  0
SECTION
  2
HEADER
  9
$ACADVER
  1
AC1014
  9
$HANDSEED
  5
FFFF
  9
$MEASUREMENT
 70
     1
  0
ENDSEC
  0
SECTION
  2
TABLES
  0
TABLE
  2
VPORT
  5
8
330
0
100
AcDbSymbolTable
 70
     4
  0
VPORT
  5
2E
330
8
100
AcDbSymbolTableRecord
100
AcDbViewportTableRecord
  2
*ACTIVE
 70
     0
 10
0.0
 20
0.0
 11
1.0
 21
1.0
 12
210.0
 22
148.5
 13
0.0
 23
0.0
 14
10.0
 24
10.0
 15
10.0
 25
10.0
 16
0.0
 26
0.0
 36
1.0
 17
0.0
 27
0.0
 37
0.0
 40
341.0
 41
1.24
 42
50.0
 43
0.0
 44
0.0
 50
0.0
 51
0.0
 71
     0
 72
   100
 73
     1
 74
     3
 75
     0
 76
     0
 77
     0
 78
     0
  0
ENDTAB
  0
TABLE
  2
LTYPE
  5
5
330
0
100
AcDbSymbolTable
 70
     1
  0
LTYPE
  5
14
330
5
100
AcDbSymbolTableRecord
100
AcDbLinetypeTableRecord
  2
BYBLOCK
 70
     0
  3

 72
    65
 73
     0
 40
0.0
  0
LTYPE
  5
15
330
5
100
AcDbSymbolTableRecord
100
AcDbLinetypeTableRecord
  2
BYLAYER
 70
     0
  3

 72
    65
 73
     0
 40
0.0
  0
LTYPE
  5
16
330
5
100
AcDbSymbolTableRecord
100
AcDbLinetypeTableRecord
  2
CONTINUOUS
 70
     0
  3
Solid line
 72
    65
 73
     0
 40
0.0
  0
ENDTAB
  0
TABLE
  2
LAYER
  5
2
100
AcDbSymbolTable
 70
2
  0
LAYER
  5
50
100
AcDbSymbolTableRecord
100
AcDbLayerTableRecord
  2
0
 70
0
  6
CONTINUOUS
  0
LAYER
  5
51
100
AcDbSymbolTableRecord
100
AcDbLayerTableRecord
  2
Layer_1
 70
0
  6
CONTINUOUS
  0
ENDTAB
  0
TABLE
  2
STYLE
  5
3
330
0
100
AcDbSymbolTable
 70
     1
  0
STYLE
  5
11
330
3
100
AcDbSymbolTableRecord
100
AcDbTextStyleTableRecord
  2
STANDARD
 70
     0
 40
0.0
 41
1.0
 50
0.0
 71
     0
 42
2.5
  3
txt
  4

  0
ENDTAB
  0
TABLE
  2
VIEW
  5
6
330
0
100
AcDbSymbolTable
 70
     0
  0
ENDTAB
  0
TABLE
  2
UCS
  5
7
330
0
100
AcDbSymbolTable
 70
     0
  0
ENDTAB
  0
TABLE
  2
APPID
  5
9
330
0
100
AcDbSymbolTable
 70
     2
  0
APPID
  5
12
330
9
100
AcDbSymbolTableRecord
100
AcDbRegAppTableRecord
  2
ACAD
 70
     0
  0
ENDTAB
  0
TABLE
  2
DIMSTYLE
  5
A
330
0
100
AcDbSymbolTable
 70
     1
  0
DIMSTYLE
105
27
330
A
100
AcDbSymbolTableRecord
100
AcDbDimStyleTableRecord
  2
ISO-25
 70
     0
  3

  4

  5

  6

  7

 40
1.0
 41
2.5
 42
0.625
 43
3.75
 44
1.25
 45
0.0
 46
0.0
 47
0.0
 48
0.0
140
2.5
141
2.5
142
0.0
143
0.03937007874016
144
1.0
145
0.0
146
1.0
147
0.625
 71
     0
 72
     0
 73
     0
 74
     0
 75
     0
 76
     0
 77
     1
 78
     8
170
     0
171
     3
172
     1
173
     0
174
     0
175
     0
176
     0
177
     0
178
     0
270
     2
271
     2
272
     2
273
     2
274
     3
340
11
275
     0
280
     0
281
     0
282
     0
283
     0
284
     8
285
     0
286
     0
287
     3
288
     0
  0
ENDTAB
  0
TABLE
  2
BLOCK_RECORD
  5
1
330
0
100
AcDbSymbolTable
 70
     1
  0
BLOCK_RECORD
  5
1F
330
1
100
AcDbSymbolTableRecord
100
AcDbBlockTableRecord
  2
*MODEL_SPACE
  0
BLOCK_RECORD
  5
1B
330
1
100
AcDbSymbolTableRecord
100
AcDbBlockTableRecord
  2
*PAPER_SPACE
  0
ENDTAB
  0
ENDSEC
  0
SECTION
  2
BLOCKS
  0
BLOCK
  5
20
330
1F
100
AcDbEntity
  8
0
100
AcDbBlockBegin
  2
*MODEL_SPACE
 70
     0
 10
0.0
 20
0.0
 30
0.0
  3
*MODEL_SPACE
  1

  0
ENDBLK
  5
21
330
1F
100
AcDbEntity
  8
0
100
AcDbBlockEnd
  0
BLOCK
  5
1C
330
1B
100
AcDbEntity
 67
     1
  8
0
100
AcDbBlockBegin
  2
*PAPER_SPACE
  1

  0
ENDBLK
  5
1D
330
1B
100
AcDbEntity
 67
     1
  8
0
100
AcDbBlockEnd
  0
ENDSEC
  0
SECTION
  2
ENTITIES
  0
LWPOLYLINE
  5
100
100
AcDbEntity
  8
Layer_1
 62
2
100
AcDbPolyline
 90
43
 70
0
 10
18.809922
 20
37.341880
 30
0.0
 10
17.576536
 20
35.998316
 30
0.0
 10
16.115607
 20
34.906131
 30
0.0
 10
14.457079
 20
34.149649
 30
0.0
 10
12.665466
 20
33.818200
 30
0.0
 10
10.538547
 20
34.262229
 30
0.0
 10
8.762798
 20
35.526521
 30
0.0
 10
7.638646
 20
37.383830
 30
0.0
 10
8.059121
 20
39.430012
 30
0.0
 10
10.031120
 20
40.301364
 30
0.0
 10
12.218659
 20
40.353232
 30
0.0
 10
14.389177
 20
40.051560
 30
0.0
 10
16.354974
 20
39.221945
 30
0.0
 10
18.030632
 20
37.894087
 30
0.0
 10
19.406603
 20
36.254738
 30
0.0
 10
20.455378
 20
34.388293
 30
0.0
 10
21.093382
 20
32.347903
 30
0.0
 10
21.151428
 20
30.215512
 30
0.0
 10
20.409265
 20
28.222120
 30
0.0
 10
19.310877
 20
26.447345
 30
0.0
 10
18.080086
 20
24.764607
 30
0.0
 10
16.549568
 20
23.352859
 30
0.0
 10
14.682314
 20
22.443210
 30
0.0
 10
12.620182
 20
22.182661
 30
0.0
 10
10.560277
 20
22.485168
 30
0.0
 10
8.592090
 20
23.170760
 30
0.0
 10
7.489806
 20
25.193689
 30
0.0
 10
8.671084
 20
27.160637
 30
0.0
 10
10.832134
 20
28.108833
 30
0.0
 10
13.191990
 20
28.120360
 30
0.0
 10
15.323176
 20
27.337322
 30
0.0
 10
17.263964
 20
26.160841
 30
0.0
 10
18.931554
 20
24.621073
 30
0.0
 10
20.221083
 20
22.754654
 30
0.0
 10
20.977455
 20
20.618861
 30
0.0
 10
20.976277
 20
18.359677
 30
0.0
 10
20.056057
 20
16.301297
 30
0.0
 10
18.392085
 20
14.769911
 30
0.0
 10
16.343187
 20
13.798191
 30
0.0
 10
14.138431
 20
13.254360
 30
0.0
 10
14.359876
 20
11.254296
 30
0.0
 10
14.489785
 20
9.245831
 30
0.0
 10
14.243382
 20
7.279960
 30
0.0
  0
LWPOLYLINE
  5
101
100
AcDbEntity
  8
Layer_1
 62
2
100
AcDbPolyline
 90
50
 70
0
 10
14.223574
 20
78.804160
 30
0.0
 10
14.044985
 20
76.882447
 30
0.0
 10
14.046456
 20
74.953739
 30
0.0
 10
14.657840
 20
73.156744
 30
0.0
 10
16.954758
 20
72.746709
 30
0.0
 10
19.016145
 20
71.670503
 30
0.0
 10
20.441257
 20
69.841985
 30
0.0
 10
20.965734
 20
67.577049
 30
0.0
 10
20.718841
 20
65.259235
 30
0.0
 10
19.901285
 20
63.073158
 30
0.0
 10
18.630037
 20
61.114653
 30
0.0
 10
16.961295
 20
59.482855
 30
0.0
 10
14.938649
 20
58.322260
 30
0.0
 10
12.665462
 20
57.818200
 30
0.0
 10
10.538543
 20
58.262225
 30
0.0
 10
8.762795
 20
59.526520
 30
0.0
 10
7.638642
 20
61.383834
 30
0.0
 10
8.059118
 20
63.430021
 30
0.0
 10
10.031117
 20
64.301369
 30
0.0
 10
12.218656
 20
64.353231
 30
0.0
 10
14.389174
 20
64.051552
 30
0.0
 10
16.354971
 20
63.221933
 30
0.0
 10
18.030629
 20
61.894073
 30
0.0
 10
19.406600
 20
60.254724
 30
0.0
 10
20.455375
 20
58.388281
 30
0.0
 10
21.093379
 20
56.347890
 30
0.0
 10
21.151425
 20
54.215496
 30
0.0
 10
20.409262
 20
52.222096
 30
0.0
 10
19.310874
 20
50.447340
 30
0.0
 10
18.080083
 20
48.764612
 30
0.0
 10
16.549565
 20
47.352870
 30
0.0
 10
14.682310
 20
46.443225
 30
0.0
 10
12.620179
 20
46.182676
 30
0.0
 10
10.560274
 20
46.485184
 30
0.0
 10
8.592086
 20
47.170776
 30
0.0
 10
7.489803
 20
49.193696
 30
0.0
 10
8.671081
 20
51.160649
 30
0.0
 10
10.832131
 20
52.108853
 30
0.0
 10
13.191987
 20
52.120384
 30
0.0
 10
15.196438
 20
51.387155
 30
0.0
 10
17.012750
 20
50.264410
 30
0.0
 10
18.601816
 20
48.836756
 30
0.0
 10
19.899629
 20
47.141443
 30
0.0
 10
20.796782
 20
45.205148
 30
0.0
 10
21.130703
 20
43.100016
 30
0.0
 10
20.766710
 20
41.002198
 30
0.0
 10
19.753679
 20
39.128280
 30
0.0
 10
18.662054
 20
37.464915
 30
0.0
 10
17.242525
 20
36.066632
 30
0.0
 10
15.649890
 20
34.865560
 30
0.0
  0
ENDSEC
  0
SECTION
  2
OBJECTS
  0
DICTIONARY
  5
C
330
0
100
AcDbDictionary
  3
ACAD_GROUP
350
D
  3
ACAD_MLINESTYLE
350
17
  0
DICTIONARY
  5
D
330
C
100
AcDbDictionary
  0
DICTIONARY
  5
1A
330
C
100
AcDbDictionary
  0
DICTIONARY
  5
17
330
C
100
AcDbDictionary
  3
STANDARD
350
18
  0
DICTIONARY
  5
19
330
C
100
AcDbDictionary
  0
ENDSEC
  0
EOF
