<svg xmlns:xlink="http://www.w3.org/1999/xlink" width="842pt" height="595pt" viewBox="0 0 842 595"><defs><symbol overflow="visible" id="a"><path d="M-.734-1.703l.53-.203v.265c0 .086.032.125.095.125.074 0 .109-.039.109-.125v-.625a.205.205 0 0 0-.016-.093c-.02-.02-.05-.032-.093-.032-.063 0-.094.043-.094.125v.141l-2.063.781v.828c0 .094.04.141.11.141.062 0 .094-.047.094-.14v-.438l1.859.703v.11c0 .085.031.124.094.124.043 0 .074-.007.093-.03A.203.203 0 0 0 0-.142V-.75a.21.21 0 0 0-.016-.094.21.21 0 0 0-.093-.046c-.063.012-.094.059-.094.141v.281l-.531-.203zm-.204.078v.875l-1.125-.422v-.031zm0 0"/></symbol><symbol overflow="visible" id="b"><path d="M-1.063-.688v-.53h.157c.086 0 .125-.036.125-.11 0-.07-.04-.11-.125-.11h-.516c-.094 0-.14.04-.14.11 0 .074.046.11.14.11h.156v.53h-.796v-1.125h.374c.086 0 .125-.035.125-.109 0-.07-.039-.11-.125-.11h-.578v1.75c0 .087.04.126.11.126.062 0 .094-.04.094-.125v-.203h1.859v.203c0 .086.031.125.094.125.074 0 .109-.04.109-.125V-2.11h-.656c-.082 0-.125.03-.125.093 0 .075.043.11.125.11h.453v1.218zm0 0"/></symbol><symbol overflow="visible" id="c"><path d="M1.703-.734l.203.53h-.265c-.086 0-.125.032-.125.095 0 .074.039.109.125.109h.625c.039 0 .07-.004.093-.016.02-.02.032-.05.032-.093 0-.063-.043-.094-.125-.094h-.141l-.781-2.063H.516c-.094 0-.141.04-.141.11 0 .062.047.094.14.094h.438L.25-.204H.14c-.085 0-.124.031-.124.094 0 .043.007.074.03.093.02.012.052.016.095.016H.75a.21.21 0 0 0 .094-.016.21.21 0 0 0 .046-.092C.879-.172.832-.203.75-.203H.469l.203-.531zm-.078-.204H.75l.422-1.125h.031zm0 0"/></symbol><symbol overflow="visible" id="d"><path d="M.688-1.063h.53v.157c0 .086.036.125.11.125.07 0 .11-.04.11-.125v-.516c0-.094-.04-.14-.11-.14-.074 0-.11.046-.11.14v.156h-.53v-.796h1.125v.374c0 .086.035.125.109.125.07 0 .11-.039.11-.125v-.578H.281c-.087 0-.126.04-.126.11 0 .062.04.094.125.094h.203v1.859H.281c-.086 0-.125.031-.125.094 0 .074.04.109.125.109H2.11v-.656c0-.082-.03-.125-.093-.125-.075 0-.11.043-.11.125v.453H.688zm0 0"/></symbol><symbol overflow="visible" id="e"><path d="M1.86-.969V0h.5v-.969h.609v-.453h-.61v-2.625H2L.156-1.5v.531zm0-.453H.593l1.265-1.766zm0 0"/></symbol><symbol overflow="visible" id="f"><path d="M1.563-4.047c-.188 0-.368.043-.532.125a.991.991 0 0 0-.39.328 1.74 1.74 0 0 0-.297.672 4.376 4.376 0 0 0-.094.969c0 .687.11 1.21.328 1.562.219.344.547.516.985.516.425 0 .753-.172.984-.516.226-.351.344-.863.344-1.53 0-.384-.032-.712-.094-.985a1.796 1.796 0 0 0-.297-.688 1.162 1.162 0 0 0-.406-.328 1.134 1.134 0 0 0-.531-.125zm0 .453c.539 0 .812.543.812 1.625 0 .574-.07 1-.203 1.282-.137.273-.34.406-.61.406-.53 0-.804-.555-.812-1.672 0-.55.066-.961.203-1.234.133-.27.336-.407.61-.407zm0 0"/></symbol><symbol overflow="visible" id="g"><path d="M1.469-2.875V0h.515v-4.047h-.328a3.51 3.51 0 0 1-.156.39.545.545 0 0 1-.172.22.839.839 0 0 1-.297.124 2.968 2.968 0 0 1-.453.079v.359zm0 0"/></symbol><symbol overflow="visible" id="h"><path d="M2.844-2.984a1.692 1.692 0 0 0-.14-.438.964.964 0 0 0-.25-.328 1.112 1.112 0 0 0-.766-.297c-.22 0-.422.055-.61.156a1.427 1.427 0 0 0-.469.422 2.16 2.16 0 0 0-.265.594c-.043.2-.07.375-.078.531a6.766 6.766 0 0 0-.016.5c0 .168.004.324.016.469.007.148.023.277.046.39.032.118.067.227.11.329.05.105.11.199.172.281A.962.962 0 0 0 1 0c.176.082.375.125.594.125.195 0 .375-.031.531-.094a1.17 1.17 0 0 0 .422-.265c.113-.125.203-.27.265-.438a1.503 1.503 0 0 0 .016-1.078 1.241 1.241 0 0 0-.265-.406 1.067 1.067 0 0 0-.391-.266 1.23 1.23 0 0 0-.485-.094c-.398 0-.71.153-.937.454.008-.489.086-.864.234-1.126.157-.269.38-.406.672-.406a.65.65 0 0 1 .438.156.794.794 0 0 1 .25.454zm-1.219.921c.238 0 .41.06.516.172.101.118.171.23.203.344.039.106.062.227.062.36a1.1 1.1 0 0 1-.062.359c-.043.105-.102.2-.172.281a.774.774 0 0 1-.563.235.832.832 0 0 1-.328-.063.9.9 0 0 1-.265-.188.866.866 0 0 1-.172-.28A1.05 1.05 0 0 1 .78-1.22c0-.125.02-.238.063-.343A.76.76 0 0 1 1.28-2a.961.961 0 0 1 .344-.063zm0 0"/></symbol><symbol overflow="visible" id="i"><path d="M3.688-4.156h-.5V-.75L1.015-4.156H.437V0h.5v-3.375L3.079 0h.61zm0 0"/></symbol><symbol overflow="visible" id="j"><path d="M.297-.922c.05.336.176.594.375.781.207.176.469.266.781.266.219 0 .395-.04.531-.11a1.22 1.22 0 0 0 .329-.218c.082-.07.156-.156.218-.25a2.06 2.06 0 0 0 .281-.672c.063-.258.094-.57.094-.938 0-.164-.011-.32-.031-.468a2.21 2.21 0 0 0-.063-.39 1.118 1.118 0 0 0-.109-.329 3.459 3.459 0 0 0-.14-.297 1.185 1.185 0 0 0-.438-.36 1.163 1.163 0 0 0-.578-.14 1.38 1.38 0 0 0-.969.39 1.43 1.43 0 0 0-.36.969c0 .2.024.375.079.532.062.156.148.293.266.406.113.117.242.203.39.266.156.062.32.093.5.093.195 0 .367-.035.516-.109.144-.07.285-.188.422-.344-.012.5-.094.883-.25 1.14-.157.263-.375.391-.657.391a.673.673 0 0 1-.453-.156C.914-.57.844-.723.813-.922zM1.53-3.609c.114.011.219.039.313.078a.872.872 0 0 1 .453.484 1.034 1.034 0 0 1 0 .703.685.685 0 0 1-.188.266.76.76 0 0 1-.265.172.78.78 0 0 1-.328.062c-.25 0-.446-.078-.579-.234-.136-.156-.203-.367-.203-.64 0-.126.016-.239.047-.345a.728.728 0 0 1 .172-.28.727.727 0 0 1 .25-.188c.102-.04.211-.067.328-.078zm0 0"/></symbol><symbol overflow="visible" id="x"><path d="M2.234 0l1.438-4.156h-.563L1.97-.641.734-4.156H.172L1.672 0zm0 0"/></symbol><symbol overflow="visible" id="y"><path d="M3.781-2.875c-.086-.445-.261-.785-.531-1.016-.262-.226-.621-.343-1.078-.343-.281 0-.54.046-.766.14a1.518 1.518 0 0 0-.547.39 2.251 2.251 0 0 0-.437.75 2.61 2.61 0 0 0-.156.923c0 .344.05.664.156.953a1.9 1.9 0 0 0 .453.719c.156.168.336.293.547.375.219.082.46.117.734.109C3.164.133 3.734-.41 3.86-1.515h-.546a2.824 2.824 0 0 1-.079.374 2.14 2.14 0 0 1-.109.266.98.98 0 0 1-.39.406c-.169.086-.36.125-.579.125a1.34 1.34 0 0 1-.562-.11 1.325 1.325 0 0 1-.438-.343 1.508 1.508 0 0 1-.265-.531 2.767 2.767 0 0 1-.079-.703c0-.27.024-.508.079-.719.062-.207.148-.383.265-.531.114-.156.25-.27.407-.344.156-.082.335-.129.546-.14.164.011.32.042.47.093.144.043.265.102.358.172a.89.89 0 0 1 .172.266c.051.093.094.214.125.359zm0 0"/></symbol><symbol overflow="visible" id="z"><path d="M1.11-4.156H.577V0h.531zm0 0"/></symbol><symbol overflow="visible" id="A"><path d="M2.703-1.25L3.125 0h.594L2.266-4.156h-.688L.094 0h.562l.438-1.25zm-.14-.438H1.234l.688-1.906zm0 0"/></symbol><symbol overflow="visible" id="D"><path d="M.453 0h1.875c.195 0 .367-.023.516-.078.144-.063.273-.149.39-.266a1.26 1.26 0 0 0 .235-.375c.05-.144.078-.3.078-.469 0-.25-.063-.453-.188-.609-.117-.164-.304-.297-.562-.39a1.02 1.02 0 0 0 .422-.36c.094-.156.144-.344.156-.562a1.372 1.372 0 0 0-.094-.407 1.142 1.142 0 0 0-.234-.359 1.131 1.131 0 0 0-.39-.203 1.59 1.59 0 0 0-.516-.078H.453zm.531-2.36v-1.328H2c.145 0 .266.012.36.032a.76.76 0 0 1 .25.11c.144.116.222.288.234.515a.796.796 0 0 1-.063.312.55.55 0 0 1-.172.203.882.882 0 0 1-.25.125A1.553 1.553 0 0 1 2-2.359zm0 1.891v-1.437h1.297c.125 0 .227.023.313.062a.588.588 0 0 1 .234.14c.063.075.11.157.14.25a.76.76 0 0 1 .048.266.927.927 0 0 1-.047.297.586.586 0 0 1-.14.22.508.508 0 0 1-.235.155.908.908 0 0 1-.313.047zm0 0"/></symbol><symbol overflow="visible" id="G"><path d="M2.89-.5H.75a.807.807 0 0 1 .063-.219c.03-.07.07-.14.125-.203.062-.062.132-.125.218-.187.094-.07.203-.145.328-.22l.579-.312c.28-.144.488-.32.624-.53a1.29 1.29 0 0 0 .235-.688 1.467 1.467 0 0 0-.11-.47.976.976 0 0 0-.28-.39 1.23 1.23 0 0 0-.407-.234 1.268 1.268 0 0 0-.5-.094c-.262 0-.484.047-.672.14a1.192 1.192 0 0 0-.61.704c-.023.105-.038.2-.046.281-.012.086-.016.18-.016.281h.5a1.7 1.7 0 0 1 .047-.328.967.967 0 0 1 .078-.234.613.613 0 0 1 .281-.281.97.97 0 0 1 .407-.125c.113.011.218.039.312.078a.675.675 0 0 1 .266.156.54.54 0 0 1 .156.234c.04.094.067.196.078.297-.011.324-.195.59-.547.797l-.53.297a3.016 3.016 0 0 0-.532.36 1.457 1.457 0 0 0-.344.374 1.302 1.302 0 0 0-.187.438C.223-.41.196-.218.187 0h2.704zm0 0"/></symbol><symbol overflow="visible" id="Q"><path d="M1.047-1.766h1.312c.157 0 .301-.02.438-.062.133-.05.254-.129.36-.234a.85.85 0 0 0 .265-.376 1.26 1.26 0 0 0 .094-.5c0-.394-.11-.695-.329-.906-.218-.207-.539-.312-.953-.312H.516V0h.53zm0-.468v-1.454h1.11c.25 0 .44.07.577.204.145.125.223.304.235.53-.012.231-.09.407-.235.532-.136.125-.328.188-.578.188zm0 0"/></symbol><symbol overflow="visible" id="k"><path d="M-2.031-1.047H0v-.344h-2.844v.235c.106.031.196.062.266.093a.452.452 0 0 1 .25.329c.023.086.039.195.047.328h.25zm0 0"/></symbol><symbol overflow="visible" id="l"><path d="M-2.844-1.11c0 .137.028.262.078.376.055.117.133.21.235.28.125.095.289.169.484.22.188.043.414.062.672.062.48 0 .844-.078 1.094-.234.25-.156.375-.39.375-.703 0-.301-.117-.532-.36-.688-.25-.156-.613-.234-1.093-.234-.27 0-.5.027-.688.078-.195.043-.36.105-.484.187a.897.897 0 0 0-.235.297.889.889 0 0 0-.078.36zm.313 0c0-.374.383-.562 1.14-.562.407 0 .711.047.907.14a.464.464 0 0 1 .28.438c0 .375-.39.563-1.171.563-.383 0-.672-.047-.86-.14-.195-.095-.296-.24-.296-.438zm0 0"/></symbol><symbol overflow="visible" id="m"><path d="M-2.922-.563v.329H0v-.329h-.813L-1.14-.89 0-1.609v-.407l-1.375.86-.734-.735v.438l.89.89zm0 0"/></symbol><symbol overflow="visible" id="H"><path d="M-1.266-.75v-.953c0-.164.043-.285.125-.36.086-.082.22-.124.407-.124h.25c.093 0 .183-.004.265-.016.086-.02.157-.04.219-.063v-.468h-.094a.21.21 0 0 1-.078.093.575.575 0 0 1-.11.063.995.995 0 0 1-.156.031h-.25c-.113 0-.21.008-.296.016a.566.566 0 0 0-.204.062.34.34 0 0 0-.14.125c-.04.055-.078.117-.11.188a.945.945 0 0 0-.28-.344.787.787 0 0 0-.423-.11c-.257 0-.453.079-.578.235-.133.148-.203.367-.203.656v1.344H0V-.75zm-.328 0h-1v-.906c0-.094.012-.172.031-.235a.446.446 0 0 1 .079-.187c.086-.094.214-.14.39-.14.18 0 .309.046.39.14.075.094.11.234.11.422zm0 0"/></symbol><symbol overflow="visible" id="N"><path d="M-1.313-.89v-.188c0-.395.172-.594.516-.594.188 0 .336.055.438.156.093.106.14.25.14.438 0 .187-.047.336-.14.437-.102.094-.258.149-.47.157v.359c.118-.008.216-.023.298-.047A.668.668 0 0 0-.328-.25.69.69 0 0 0 0-.563c.063-.132.094-.3.094-.5 0-.144-.024-.273-.063-.39a.863.863 0 0 0-.172-.313.846.846 0 0 0-.28-.187.907.907 0 0 0-.376-.078.658.658 0 0 0-.672.484c-.101-.27-.3-.406-.593-.406a1.135 1.135 0 0 0-.329.078.54.54 0 0 0-.234.156.659.659 0 0 0-.156.282c-.04.105-.063.226-.063.359 0 .293.078.512.235.656.156.149.386.227.687.234v-.359a1.16 1.16 0 0 1-.219-.015.427.427 0 0 1-.14-.047.422.422 0 0 1-.188-.172.68.68 0 0 1-.062-.297c0-.164.043-.29.125-.375a.559.559 0 0 1 .36-.14.557.557 0 0 1 .233.077c.063.032.11.086.141.157a.88.88 0 0 1 .031.093.4.4 0 0 1 .032.125v.25zm0 0"/></symbol><symbol overflow="visible" id="O"><path d="M-1.25-1.14v.952h.281v-.953zm0 0"/></symbol><symbol overflow="visible" id="P"><path d="M-.344-2.031v1.5A.433.433 0 0 1-.5-.578a.404.404 0 0 1-.14-.094.688.688 0 0 1-.141-.156 2.3 2.3 0 0 1-.156-.219l-.22-.406a1.104 1.104 0 0 0-.374-.438.824.824 0 0 0-.485-.156.75.75 0 0 0-.328.078.933.933 0 0 0-.281.188.834.834 0 0 0-.156.281c-.04.105-.063.227-.063.36 0 .187.031.35.094.484a.726.726 0 0 0 .266.297 1.15 1.15 0 0 0 .438.156h.187v-.36c-.094 0-.172-.003-.235-.015a.456.456 0 0 1-.172-.063.397.397 0 0 1-.187-.187.613.613 0 0 1-.078-.297.48.48 0 0 1 .047-.219.505.505 0 0 1 .109-.187.367.367 0 0 1 .156-.11A.487.487 0 0 1-2-1.687c.23 0 .418.125.563.375l.203.375c.086.148.168.273.25.375.086.105.171.187.265.25.094.054.2.093.313.124.117.032.25.047.406.047v-1.89zm0 0"/></symbol><symbol overflow="visible" id="R"><path d="M0-1.578l-2.922-1.016v.406l2.469.813-2.469.86v.39L0-1.172zm0 0"/></symbol><symbol overflow="visible" id="S"><path d="M0-.36v-1.124c0-.188-.031-.352-.094-.5A1.149 1.149 0 0 0-.39-2.36a1.31 1.31 0 0 0-.453-.235 2.38 2.38 0 0 0-.625-.078 2.15 2.15 0 0 0-.593.078 1.32 1.32 0 0 0-.47.235c-.124.105-.218.23-.28.375-.07.148-.11.312-.11.5V-.36zm-.328-.374h-2.266v-.688c0-.289.102-.508.297-.656.188-.145.469-.223.844-.235.367.012.648.09.844.235.187.148.28.367.28.656zm0 0"/></symbol><symbol overflow="visible" id="T"><path d="M-2.063-2.39c-.289 0-.492.074-.609.218a1.25 1.25 0 0 0-.234.406 1.608 1.608 0 0 0 0 .89.78.78 0 0 0 .172.33.845.845 0 0 0 .265.202.95.95 0 0 0 .36.063c.355 0 .578-.192.671-.578l.204-.72c.043-.187.105-.32.187-.405a.344.344 0 0 1 .281-.141c.086 0 .164.023.235.063a.478.478 0 0 1 .172.156.515.515 0 0 1 .093.218c.024.094.032.2.032.313 0 .156-.02.293-.063.406a.517.517 0 0 1-.187.266.451.451 0 0 1-.204.125.81.81 0 0 1-.25.031v.36c.137 0 .258-.016.36-.047a.833.833 0 0 0 .25-.125.957.957 0 0 0 .312-.407c.07-.164.11-.359.11-.578 0-.176-.024-.332-.063-.468a.993.993 0 0 0-.172-.36.348.348 0 0 0-.125-.125 1.246 1.246 0 0 0-.203-.125A1.124 1.124 0 0 0-.797-2.5a.803.803 0 0 0-.469.172.884.884 0 0 0-.265.453l-.203.734c-.02.094-.04.172-.063.235a.587.587 0 0 1-.125.172c-.05.054-.133.078-.25.078a.371.371 0 0 1-.187-.047.443.443 0 0 1-.157-.125.604.604 0 0 1-.109-.203 1.214 1.214 0 0 1-.031-.282c0-.226.054-.406.156-.53.094-.126.242-.192.438-.204zm0 0"/></symbol><symbol overflow="visible" id="ad"><path d="M-1.078-2.14v.828h-.828v.28h.828v.829h.281v-.828h.844v-.282h-.844v-.828zm0 0"/></symbol><symbol overflow="visible" id="n"><path d="M1.047-2.031V0h.344v-2.844h-.235a2.245 2.245 0 0 1-.093.266.452.452 0 0 1-.329.25 1.688 1.688 0 0 1-.328.047v.25zm0 0"/></symbol><symbol overflow="visible" id="o"><path d="M1.11-2.844a.907.907 0 0 0-.376.078.689.689 0 0 0-.28.235 1.39 1.39 0 0 0-.22.484 3.072 3.072 0 0 0-.062.672c0 .48.078.844.234 1.094.156.25.39.375.703.375.301 0 .532-.117.688-.36.156-.25.234-.613.234-1.093 0-.27-.027-.5-.078-.688a1.459 1.459 0 0 0-.187-.484.897.897 0 0 0-.297-.235.889.889 0 0 0-.36-.078zm0 .313c.374 0 .562.383.562 1.14 0 .407-.047.711-.14.907a.464.464 0 0 1-.438.28C.719-.203.53-.593.53-1.374c0-.383.047-.672.14-.86.095-.195.24-.296.438-.296zm0 0"/></symbol><symbol overflow="visible" id="p"><path d="M.563-2.922h-.33V0h.329v-.813L.89-1.14 1.609 0h.407l-.86-1.375.735-.734h-.438l-.89.89zm0 0"/></symbol><symbol overflow="visible" id="q"><path d="M1.938 0v-2.11h-.329v1.204a1.429 1.429 0 0 1-.062.297.577.577 0 0 1-.11.218.404.404 0 0 1-.171.141.598.598 0 0 1-.235.047.47.47 0 0 1-.328-.11.395.395 0 0 1-.11-.296v-1.5H.267v1.625c0 .093.015.18.046.25.032.062.07.12.126.172a.526.526 0 0 0 .218.109.786.786 0 0 0 .485.015.534.534 0 0 0 .17-.062.985.985 0 0 0 .172-.11c.051-.05.102-.113.157-.187V0zm0 0"/></symbol><symbol overflow="visible" id="r"><path d="M.734-1.328h1.391v-.328H.735v-.938h1.593v-.328H.36V0h.375zm0 0"/></symbol><symbol overflow="visible" id="s"><path d="M.281-2.11V0h.344v-1.156c0-.102.008-.196.031-.282a.502.502 0 0 1 .297-.375.477.477 0 0 1 .235-.062.508.508 0 0 1 .312.125.38.38 0 0 1 .125.297V0h.328v-1.594a.598.598 0 0 0-.047-.234.404.404 0 0 0-.14-.172.485.485 0 0 0-.204-.11 1.235 1.235 0 0 0-.28-.062.725.725 0 0 0-.391.11.768.768 0 0 0-.297.312v-.36zm0 0"/></symbol><symbol overflow="visible" id="t"><path d="M2.031-.344h-1.5A.433.433 0 0 1 .578-.5c.02-.05.05-.098.094-.14a.688.688 0 0 1 .156-.141 2.3 2.3 0 0 1 .219-.156l.406-.22c.195-.1.344-.226.438-.374a.824.824 0 0 0 .156-.485.75.75 0 0 0-.078-.328.933.933 0 0 0-.188-.281.834.834 0 0 0-.281-.156 1.034 1.034 0 0 0-.36-.063 1.14 1.14 0 0 0-.484.094.726.726 0 0 0-.297.266 1.15 1.15 0 0 0-.156.438v.187h.36c0-.094.003-.172.015-.235a.456.456 0 0 1 .063-.172.397.397 0 0 1 .187-.187.613.613 0 0 1 .297-.078.48.48 0 0 1 .219.047.49.49 0 0 1 .297.265.487.487 0 0 1 .046.219c0 .23-.125.418-.375.563l-.375.203a2.966 2.966 0 0 0-.375.25 1.214 1.214 0 0 0-.25.265c-.054.094-.093.2-.124.313A1.57 1.57 0 0 0 .14 0h1.89zm0 0"/></symbol><symbol overflow="visible" id="u"><path d="M2.844-1.547H1.625v.328h.89v.078a.907.907 0 0 1-.078.375.846.846 0 0 1-.187.282 1.2 1.2 0 0 1-.297.187.95.95 0 0 1-.36.063c-.148 0-.288-.024-.421-.078a.821.821 0 0 1-.313-.22.846.846 0 0 1-.14-.171 12.27 12.27 0 0 1-.094-.219 4.673 4.673 0 0 1-.063-.25 2.263 2.263 0 0 1-.015-.281c0-.176.02-.336.062-.484.051-.145.125-.27.22-.375a.973.973 0 0 1 .327-.235.93.93 0 0 1 .422-.094.99.99 0 0 1 .313.047.812.812 0 0 1 .296.156c.114.075.192.204.235.391h.39a1.28 1.28 0 0 0-.156-.39 1.155 1.155 0 0 0-.328-.344c-.156-.125-.406-.188-.75-.188-.355 0-.648.094-.875.281a1.11 1.11 0 0 0-.234.235 2.506 2.506 0 0 0-.203.39 1.726 1.726 0 0 0-.094.626c0 .23.031.437.094.625.07.187.164.351.28.484.114.137.255.242.423.312a1.38 1.38 0 0 0 1.078 0 1.71 1.71 0 0 0 .469-.359l.093.39h.235zm0 0"/></symbol><symbol overflow="visible" id="v"><path d="M2.594-2.922h-.36v2.39l-1.53-2.39H.312V0h.343v-2.375L2.172 0h.422zm0 0"/></symbol><symbol overflow="visible" id="w"><path d="M.36 0h1.124c.188 0 .352-.031.5-.094.145-.07.27-.172.375-.297a1.31 1.31 0 0 0 .235-.453 2.38 2.38 0 0 0 .078-.625 2.15 2.15 0 0 0-.078-.593 1.32 1.32 0 0 0-.235-.47 1.011 1.011 0 0 0-.375-.28 1.147 1.147 0 0 0-.5-.11H.36zm.374-.328v-2.266h.688c.289 0 .508.102.656.297.145.188.223.469.235.844-.012.367-.09.648-.235.844-.148.187-.367.28-.656.28zm0 0"/></symbol><symbol overflow="visible" id="I"><path d="M.75-1.266h.953c.164 0 .285.043.36.125.082.086.124.22.124.407v.25c0 .093.004.183.016.265.02.086.04.157.063.219h.468v-.094a.21.21 0 0 1-.093-.078.575.575 0 0 1-.063-.11.995.995 0 0 1-.031-.156v-.25c0-.113-.008-.21-.016-.296a.566.566 0 0 0-.062-.204.34.34 0 0 0-.125-.14 1.076 1.076 0 0 0-.188-.11.945.945 0 0 0 .344-.28.787.787 0 0 0 .11-.423c0-.257-.079-.453-.235-.578-.148-.133-.367-.203-.656-.203H.375V0H.75zm0-.328v-1h.906c.094 0 .172.012.235.031.07.012.132.04.187.079.094.086.14.214.14.39 0 .18-.046.309-.14.39-.094.075-.234.11-.422.11zm0 0"/></symbol><symbol overflow="visible" id="J"><path d="M2.656-2.016c-.054-.32-.172-.562-.36-.718-.187-.157-.444-.235-.765-.235-.199 0-.375.031-.531.094-.156.063-.29.152-.39.266a1.472 1.472 0 0 0-.313.53c-.074.2-.11.419-.11.657 0 .242.036.461.11.656.07.2.18.371.328.516.102.117.227.2.375.25.156.063.328.094.516.094.707 0 1.109-.383 1.203-1.157h-.39a1.353 1.353 0 0 1-.126.454.613.613 0 0 1-.281.28.843.843 0 0 1-.406.095.884.884 0 0 1-.391-.078.915.915 0 0 1-.297-.25 1.147 1.147 0 0 1-.203-.375 1.768 1.768 0 0 1-.063-.5c0-.188.02-.352.063-.5a.997.997 0 0 1 .188-.375.885.885 0 0 1 .28-.235.792.792 0 0 1 .391-.094c.125 0 .235.016.329.047a.599.599 0 0 1 .375.313c.039.074.07.164.093.265zm0 0"/></symbol><symbol overflow="visible" id="K"><path d="M.89-1.313h.188c.395 0 .594.172.594.516 0 .188-.055.336-.156.438-.106.093-.25.14-.438.14-.187 0-.336-.047-.437-.14C.547-.461.492-.617.484-.83H.125c.008.118.023.216.047.298.02.086.047.152.078.203A.69.69 0 0 0 .563 0c.132.063.3.094.5.094.144 0 .273-.024.39-.063a.863.863 0 0 0 .313-.172.846.846 0 0 0 .187-.28.907.907 0 0 0 .078-.376.658.658 0 0 0-.484-.672c.27-.101.406-.3.406-.593a1.124 1.124 0 0 0-.078-.329.54.54 0 0 0-.156-.234.659.659 0 0 0-.282-.156 1.034 1.034 0 0 0-.359-.063c-.293 0-.512.078-.656.235-.149.156-.227.386-.234.687h.359c0-.094.004-.164.015-.219a.427.427 0 0 1 .047-.14.422.422 0 0 1 .172-.188.68.68 0 0 1 .297-.062c.164 0 .29.043.375.125a.559.559 0 0 1 .14.36.572.572 0 0 1-.077.233.307.307 0 0 1-.157.141.88.88 0 0 1-.093.031.4.4 0 0 1-.125.032H.89zm0 0"/></symbol><symbol overflow="visible" id="L"><path d="M1.313-.688V0h.359v-.688h.422V-1h-.422v-1.844h-.266L.11-1.063v.375zm0-.312H.421l.89-1.25zm0 0"/></symbol><symbol overflow="visible" id="M"><path d="M1.906-2.844H.438L.234-1.297h.329a.428.428 0 0 1 .109-.125.686.686 0 0 1 .25-.125.806.806 0 0 1 .156-.016.539.539 0 0 1 .438.188.626.626 0 0 1 .14.219.8.8 0 0 1 .047.281c0 .105-.016.2-.047.281a.99.99 0 0 1-.172.25c-.086.086-.218.125-.406.125a.587.587 0 0 1-.375-.11A.693.693 0 0 1 .5-.702H.14c.008.062.02.117.032.156.008.043.023.09.047.14.02.055.05.106.093.157.083.117.192.2.329.25.132.063.28.094.437.094a.968.968 0 0 0 .39-.078.702.702 0 0 0 .313-.204.844.844 0 0 0 .203-.328 1.06 1.06 0 0 0 0-.796.872.872 0 0 0-.187-.297.713.713 0 0 0-.281-.188.934.934 0 0 0-.375-.078c-.106 0-.2.016-.282.047a.716.716 0 0 0-.25.125L.734-2.5h1.172zm0 0"/></symbol><symbol overflow="visible" id="X"><path d="M2-2.11a.956.956 0 0 0-.11-.296.702.702 0 0 0-.171-.235.54.54 0 0 0-.235-.156.931.931 0 0 0-.734.063 1.124 1.124 0 0 0-.328.296 1.3 1.3 0 0 0-.172.422 3.131 3.131 0 0 0-.078.719c0 .117.004.227.016.328.007.106.019.2.03.281.02.086.048.165.079.235.031.062.066.125.11.187A.815.815 0 0 0 .703 0a.93.93 0 0 0 .422.094A.934.934 0 0 0 1.5.016a.803.803 0 0 0 .484-.484 1.03 1.03 0 0 0 .079-.391.823.823 0 0 0-.079-.36 1.056 1.056 0 0 0-.171-.297.713.713 0 0 0-.282-.187.978.978 0 0 0-.343-.063c-.282 0-.5.106-.657.313 0-.344.051-.61.156-.797a.535.535 0 0 1 .485-.281c.125 0 .226.039.312.11a.53.53 0 0 1 .157.312zm-.86.657c.176 0 .301.043.376.125a.77.77 0 0 1 .14.234.634.634 0 0 1 .047.25.62.62 0 0 1-.047.25.837.837 0 0 1-.125.203.606.606 0 0 1-.187.125.456.456 0 0 1-.203.047.57.57 0 0 1-.235-.047A.527.527 0 0 1 .72-.39a.731.731 0 0 1-.125-.203.971.971 0 0 1-.031-.265c0-.082.007-.16.03-.235a.584.584 0 0 1 .547-.36zm0 0"/></symbol><symbol overflow="visible" id="Y"><path d="M1.344-2.922v2.063c0 .117-.012.21-.032.28a.412.412 0 0 1-.422.36c-.148 0-.257-.039-.328-.125C.488-.438.454-.57.454-.75v-.188h-.39v.25c0 .125.019.235.062.329.04.093.094.18.156.25.07.062.156.109.25.14.102.04.223.063.36.063A.847.847 0 0 0 1.219.03a.624.624 0 0 0 .421-.42.961.961 0 0 0 .062-.343v-2.188zm0 0"/></symbol><symbol overflow="visible" id="Z"><path d="M1.14-1.25H.189v.281h.953zm0 0"/></symbol><symbol overflow="visible" id="aa"><path d="M2.14-1.078h-.828v-.828h-.28v.828h-.83v.281h.828v.844h.282v-.844h.828zm0 0"/></symbol><symbol overflow="visible" id="ab"><path d="M2.094-2.844H.188v.344h1.53a13.25 13.25 0 0 0-.437.672c-.125.21-.234.414-.328.61a7.452 7.452 0 0 0-.234.577A4.926 4.926 0 0 0 .563 0h.375c.03-.227.078-.445.14-.656a6.393 6.393 0 0 1 .578-1.266 5.9 5.9 0 0 1 .438-.625zm0 0"/></symbol><symbol overflow="visible" id="ac"><path d="M1.578-1.5c.063-.04.117-.082.172-.125a.63.63 0 0 0 .125-.125.486.486 0 0 0 .063-.156c.007-.051.015-.114.015-.188a.702.702 0 0 0-.234-.531.675.675 0 0 0-.266-.156 1.002 1.002 0 0 0-.703 0 .624.624 0 0 0-.266.156.71.71 0 0 0-.234.531.85.85 0 0 0 .016.188.41.41 0 0 0 .062.156.54.54 0 0 0 .125.125c.05.043.113.086.188.125-.336.156-.496.39-.485.703 0 .137.02.262.063.375.039.106.101.2.187.281.094.075.196.133.313.172a1.187 1.187 0 0 0 .765 0 .863.863 0 0 0 .313-.172.846.846 0 0 0 .187-.28.875.875 0 0 0 .079-.36c0-.32-.165-.563-.485-.719zM1.11-2.531c.145 0 .258.043.344.125.094.086.14.195.14.328a.414.414 0 0 1-.14.328.505.505 0 0 1-.344.11.587.587 0 0 1-.375-.11.43.43 0 0 1-.125-.328c0-.133.04-.242.125-.328a.55.55 0 0 1 .375-.125zm0 1.187c.082 0 .16.016.235.047.07.024.133.059.187.11A.666.666 0 0 1 1.657-1a.57.57 0 0 1 0 .453.917.917 0 0 1-.172.219c-.074.074-.203.11-.39.11A.74.74 0 0 1 .859-.25a.527.527 0 0 1-.187-.125.587.587 0 0 1-.125-.172.74.74 0 0 1-.031-.234A.63.63 0 0 1 .546-1a.606.606 0 0 1 .126-.188.45.45 0 0 1 .187-.109.62.62 0 0 1 .25-.047zm0 0"/></symbol><symbol overflow="visible" id="B"><path d="M1.25-2.453V0h.438v-3.438h-.282a2.98 2.98 0 0 1-.125.313.453.453 0 0 1-.14.203.939.939 0 0 1-.25.11 2.362 2.362 0 0 1-.391.046v.313zm0 0"/></symbol><symbol overflow="visible" id="C"><path d="M2.453-.422H.641a.66.66 0 0 1 .046-.187.985.985 0 0 1 .11-.172.975.975 0 0 1 .187-.172c.082-.063.176-.117.282-.172l.484-.266c.238-.132.422-.285.547-.453.125-.176.187-.375.187-.593a.87.87 0 0 0-.093-.391.961.961 0 0 0-.235-.344 1 1 0 0 0-.344-.203 1.477 1.477 0 0 0-.437-.063c-.219 0-.414.04-.578.11A.897.897 0 0 0 .422-3a.81.81 0 0 0-.125.281 1.55 1.55 0 0 0-.047.235c0 .074-.008.152-.016.234h.438c0-.113.004-.207.015-.281a.514.514 0 0 1 .094-.203.523.523 0 0 1 .235-.235.792.792 0 0 1 .343-.11.983.983 0 0 1 .266.063.619.619 0 0 1 .219.141.5.5 0 0 1 .14.203c.04.074.063.156.063.25 0 .274-.156.496-.469.672l-.453.25c-.18.105-.328.21-.453.313a1.225 1.225 0 0 0-.281.312 1.413 1.413 0 0 0-.172.39A2.188 2.188 0 0 0 .172 0h2.281zm0 0"/></symbol><symbol overflow="visible" id="E"><path d="M1.078-1.578h.234c.47 0 .704.21.704.625 0 .219-.063.39-.188.515-.125.118-.297.172-.516.172-.242 0-.417-.054-.53-.171C.663-.564.597-.75.577-1H.156c.008.137.024.258.047.36a.61.61 0 0 0 .11.25.794.794 0 0 0 .374.374c.165.082.368.125.61.125.176 0 .332-.027.469-.078a.93.93 0 0 0 .375-.203.928.928 0 0 0 .234-.344 1.28 1.28 0 0 0 .078-.453.891.891 0 0 0-.14-.515c-.086-.133-.231-.235-.438-.297.32-.125.484-.364.484-.719a.968.968 0 0 0-.078-.39.763.763 0 0 0-.203-.297.973.973 0 0 0-.344-.188 1.408 1.408 0 0 0-.421-.063c-.356 0-.625.094-.813.282-.18.187-.266.465-.266.828h.422c0-.102.004-.188.016-.25a.56.56 0 0 1 .281-.406.992.992 0 0 1 .36-.094c.187.012.332.07.437.172a.55.55 0 0 1 .172.422.506.506 0 0 1-.078.296.406.406 0 0 1-.203.172.73.73 0 0 1-.11.032.64.64 0 0 1-.14.03 1.99 1.99 0 0 1-.313.016zm0 0"/></symbol><symbol overflow="visible" id="F"><path d="M1.594-.828V0h.422v-.828h.515v-.375h-.515v-2.234h-.313L.141-1.281v.453zm0-.375H.516L1.594-2.72zm0 0"/></symbol><symbol overflow="visible" id="U"><path d="M-3.438-2.531V-.22h.422v-1.86c.293.2.563.376.813.532.242.149.48.277.719.39.23.106.464.2.703.282.242.074.5.14.781.203v-.453a9.084 9.084 0 0 1-.797-.188 8.985 8.985 0 0 1-.765-.28c-.25-.114-.5-.25-.75-.407a7.287 7.287 0 0 1-.766-.531zm0 0"/></symbol><symbol overflow="visible" id="V"><path d="M-2.453-1.25H0v-.438h-3.438v.282c.126.043.231.086.313.125a.453.453 0 0 1 .203.14.939.939 0 0 1 .11.25c.023.106.039.235.046.391h.313zm0 0"/></symbol><symbol overflow="visible" id="W"><path d="M-.828-1.594H0v-.422h-.828v-.515h-.375v.515h-2.234v.313l2.156 1.562h.453zm-.375 0v1.078L-2.72-1.594zm0 0"/></symbol><clipPath id="ae"><path d="M294 169.621h1V182h-1zm0 0"/></clipPath><clipPath id="af"><path d="M253 169.621h2V188h-2zm0 0"/></clipPath><clipPath id="ag"><path d="M253 169.621h42V171h-42zm0 0"/></clipPath></defs><use xlink:href="#a" x="307.388" y="194.07" fill="gray"/><use xlink:href="#b" x="284.356" y="194.07" fill="gray"/><use xlink:href="#c" x="402.634" y="292.182" fill="gray"/><use xlink:href="#d" x="402.634" y="269.154" fill="gray"/><use xlink:href="#a" x="376.484" y="314.971" fill="gray"/><use xlink:href="#b" x="399.516" y="314.971" fill="gray"/><use xlink:href="#a" x="445.58" y="314.971" fill="gray"/><use xlink:href="#b" x="422.548" y="314.971" fill="gray"/><use xlink:href="#e" x="300.19" y="250.442" fill="gray"/><use xlink:href="#f" x="303.37" y="250.442" fill="gray"/><use xlink:href="#g" x="306.55" y="250.442" fill="gray"/><use xlink:href="#f" x="309.73" y="250.442" fill="gray"/><use xlink:href="#h" x="312.91" y="250.442" fill="gray"/><use xlink:href="#i" x="316.09" y="250.442" fill="gray"/><use xlink:href="#e" x="360.649" y="250.442" fill="gray"/><use xlink:href="#f" x="363.829" y="250.442" fill="gray"/><use xlink:href="#g" x="367.009" y="250.442" fill="gray"/><use xlink:href="#f" x="370.189" y="250.442" fill="gray"/><use xlink:href="#h" x="373.369" y="250.442" fill="gray"/><use xlink:href="#i" x="376.549" y="250.442" fill="gray"/><use xlink:href="#e" x="421.108" y="394.372" fill="gray"/><use xlink:href="#f" x="424.288" y="394.372" fill="gray"/><use xlink:href="#h" x="427.468" y="394.372" fill="gray"/><use xlink:href="#j" x="430.648" y="394.372" fill="gray"/><use xlink:href="#i" x="433.828" y="394.372" fill="gray"/><use xlink:href="#e" x="524.752" y="394.372" fill="gray"/><use xlink:href="#f" x="527.932" y="394.372" fill="gray"/><use xlink:href="#h" x="531.112" y="394.372" fill="gray"/><use xlink:href="#j" x="534.292" y="394.372" fill="gray"/><use xlink:href="#i" x="537.472" y="394.372" fill="gray"/><use xlink:href="#k" x="291.554" y="181.355" fill="gray"/><use xlink:href="#l" x="291.554" y="179.135" fill="gray"/><use xlink:href="#l" x="291.554" y="176.915" fill="gray"/><use xlink:href="#m" x="291.554" y="174.695" fill="gray"/><use xlink:href="#n" x="415.35" y="276.35" fill="gray"/><use xlink:href="#o" x="417.57" y="276.35" fill="gray"/><use xlink:href="#o" x="419.79" y="276.35" fill="gray"/><use xlink:href="#p" x="422.01" y="276.35" fill="gray"/><use xlink:href="#n" x="241.468" y="256.2" fill="gray"/><use xlink:href="#q" x="243.688" y="256.2" fill="gray"/><use xlink:href="#r" x="245.908" y="256.2" fill="gray"/><use xlink:href="#n" x="380.92" y="264.836" fill="gray"/><use xlink:href="#o" x="383.14" y="264.836" fill="gray"/><use xlink:href="#o" x="385.36" y="264.836" fill="gray"/><use xlink:href="#s" x="387.58" y="264.836" fill="gray"/><use xlink:href="#r" x="389.8" y="264.836" fill="gray"/><use xlink:href="#n" x="380.92" y="247.564" fill="gray"/><use xlink:href="#o" x="383.14" y="247.564" fill="gray"/><use xlink:href="#o" x="385.36" y="247.564" fill="gray"/><use xlink:href="#s" x="387.58" y="247.564" fill="gray"/><use xlink:href="#r" x="389.8" y="247.564" fill="gray"/><use xlink:href="#t" x="412.471" y="342.557" fill="gray"/><use xlink:href="#t" x="414.691" y="342.557" fill="gray"/><use xlink:href="#o" x="416.911" y="342.557" fill="gray"/><use xlink:href="#s" x="419.131" y="342.557" fill="gray"/><use xlink:href="#r" x="421.351" y="342.557" fill="gray"/><use xlink:href="#n" x="426.984" y="264.836" fill="gray"/><use xlink:href="#o" x="429.204" y="264.836" fill="gray"/><use xlink:href="#o" x="431.424" y="264.836" fill="gray"/><use xlink:href="#s" x="433.644" y="264.836" fill="gray"/><use xlink:href="#r" x="435.864" y="264.836" fill="gray"/><use xlink:href="#u" x="405.152" y="309.166" fill="gray"/><use xlink:href="#v" x="408.272" y="309.166" fill="gray"/><use xlink:href="#w" x="411.152" y="309.166" fill="gray"/><use xlink:href="#k" x="392.318" y="333.985" fill="gray"/><use xlink:href="#l" x="392.318" y="331.765" fill="gray"/><use xlink:href="#l" x="392.318" y="329.545" fill="gray"/><use xlink:href="#m" x="392.318" y="327.325" fill="gray"/><use xlink:href="#k" x="429.746" y="333.985" fill="gray"/><use xlink:href="#l" x="429.746" y="331.765" fill="gray"/><use xlink:href="#l" x="429.746" y="329.545" fill="gray"/><use xlink:href="#m" x="429.746" y="327.325" fill="gray"/><use xlink:href="#u" x="405.152" y="369.617" fill="gray"/><use xlink:href="#v" x="408.272" y="369.617" fill="gray"/><use xlink:href="#w" x="411.152" y="369.617" fill="gray"/><use xlink:href="#u" x="249.686" y="274.623" fill="gray"/><use xlink:href="#v" x="252.806" y="274.623" fill="gray"/><use xlink:href="#w" x="255.686" y="274.623" fill="gray"/><use xlink:href="#n" x="514.434" y="351.194" fill="gray"/><use xlink:href="#o" x="516.654" y="351.194" fill="gray"/><use xlink:href="#s" x="518.874" y="351.194" fill="gray"/><use xlink:href="#r" x="521.094" y="351.194" fill="gray"/><use xlink:href="#u" x="560.618" y="424.31" fill="gray"/><use xlink:href="#v" x="563.738" y="424.31" fill="gray"/><use xlink:href="#w" x="566.618" y="424.31" fill="gray"/><use xlink:href="#x" x="305.706" y="328.164" fill="gray"/><use xlink:href="#y" x="309.486" y="328.164" fill="gray"/><use xlink:href="#y" x="313.626" y="328.164" fill="gray"/><use xlink:href="#u" x="307.266" y="398.403" fill="gray"/><use xlink:href="#v" x="310.386" y="398.403" fill="gray"/><use xlink:href="#w" x="313.266" y="398.403" fill="gray"/><use xlink:href="#n" x="274.455" y="359.828" fill="gray"/><use xlink:href="#o" x="276.675" y="359.828" fill="gray"/><use xlink:href="#o" x="278.895" y="359.828" fill="gray"/><use xlink:href="#s" x="281.115" y="359.828" fill="gray"/><use xlink:href="#r" x="283.335" y="359.828" fill="gray"/><use xlink:href="#n" x="326.277" y="356.95" fill="gray"/><use xlink:href="#o" x="328.497" y="356.95" fill="gray"/><use xlink:href="#o" x="330.717" y="356.95" fill="gray"/><use xlink:href="#s" x="332.937" y="356.95" fill="gray"/><use xlink:href="#r" x="335.157" y="356.95" fill="gray"/><use xlink:href="#z" x="300.19" y="231.731" fill="gray"/><use xlink:href="#y" x="301.75" y="231.731" fill="gray"/><use xlink:href="#g" x="305.89" y="231.731" fill="gray"/><use xlink:href="#A" x="309.07" y="231.731" fill="gray"/><use xlink:href="#B" x="274.919" y="238.121" fill="gray"/><use xlink:href="#C" x="311.246" y="238.121" fill="gray"/><use xlink:href="#z" x="360.649" y="231.731" fill="gray"/><use xlink:href="#y" x="362.209" y="231.731" fill="gray"/><use xlink:href="#g" x="366.349" y="231.731" fill="gray"/><use xlink:href="#D" x="369.529" y="231.731" fill="gray"/><use xlink:href="#E" x="335.378" y="238.121" fill="gray"/><use xlink:href="#F" x="371.705" y="238.121" fill="gray"/><use xlink:href="#z" x="421.108" y="375.66" fill="gray"/><use xlink:href="#y" x="422.668" y="375.66" fill="gray"/><use xlink:href="#G" x="426.808" y="375.66" fill="gray"/><use xlink:href="#A" x="429.988" y="375.66" fill="gray"/><use xlink:href="#B" x="395.837" y="382.051" fill="gray"/><use xlink:href="#C" x="432.164" y="382.051" fill="gray"/><use xlink:href="#z" x="524.752" y="375.66" fill="gray"/><use xlink:href="#y" x="526.312" y="375.66" fill="gray"/><use xlink:href="#G" x="530.452" y="375.66" fill="gray"/><use xlink:href="#D" x="533.632" y="375.66" fill="gray"/><use xlink:href="#E" x="499.481" y="382.051" fill="gray"/><use xlink:href="#F" x="535.807" y="382.051" fill="gray"/><use xlink:href="#H" x="300.19" y="181.355" fill="gray"/><use xlink:href="#k" x="300.19" y="178.475" fill="gray"/><use xlink:href="#I" x="415.35" y="284.985" fill="gray"/><use xlink:href="#t" x="418.23" y="284.985" fill="gray"/><use xlink:href="#J" x="243.268" y="247.564" fill="gray"/><use xlink:href="#n" x="246.148" y="247.564" fill="gray"/><use xlink:href="#J" x="384.04" y="250.442" fill="gray"/><use xlink:href="#t" x="386.92" y="250.442" fill="gray"/><use xlink:href="#J" x="384.04" y="233.171" fill="gray"/><use xlink:href="#K" x="386.92" y="233.171" fill="gray"/><use xlink:href="#J" x="412.471" y="351.195" fill="gray"/><use xlink:href="#L" x="415.351" y="351.195" fill="gray"/><use xlink:href="#J" x="430.104" y="250.443" fill="gray"/><use xlink:href="#M" x="432.984" y="250.443" fill="gray"/><use xlink:href="#H" x="383.682" y="333.925" fill="gray"/><use xlink:href="#N" x="383.682" y="331.045" fill="gray"/><use xlink:href="#O" x="383.682" y="328.825" fill="gray"/><use xlink:href="#P" x="383.682" y="327.505" fill="gray"/><use xlink:href="#H" x="438.382" y="333.925" fill="gray"/><use xlink:href="#N" x="438.382" y="331.045" fill="gray"/><use xlink:href="#O" x="438.382" y="328.825" fill="gray"/><use xlink:href="#k" x="438.382" y="327.505" fill="gray"/><use xlink:href="#z" x="257.005" y="364.146" fill="gray"/><use xlink:href="#y" x="258.565" y="364.146" fill="gray"/><use xlink:href="#g" x="262.705" y="364.146" fill="gray"/><use xlink:href="#Q" x="265.885" y="364.146" fill="gray"/><use xlink:href="#R" x="264.202" y="356.95" fill="gray"/><use xlink:href="#S" x="264.202" y="354.25" fill="gray"/><use xlink:href="#S" x="264.202" y="351.37" fill="gray"/><use xlink:href="#R" x="264.202" y="375.948" fill="gray"/><use xlink:href="#T" x="264.202" y="373.248" fill="gray"/><use xlink:href="#T" x="264.202" y="370.548" fill="gray"/><use xlink:href="#U" x="259.077" y="376.461" fill="gray"/><use xlink:href="#V" x="259.077" y="351.653" fill="gray"/><use xlink:href="#W" x="259.077" y="348.953" fill="gray"/><use xlink:href="#I" x="470.41" y="379.461" fill="gray"/><use xlink:href="#L" x="473.29" y="379.461" fill="gray"/><use xlink:href="#I" x="516.474" y="356.432" fill="gray"/><use xlink:href="#M" x="519.354" y="356.432" fill="gray"/><use xlink:href="#J" x="516.474" y="336.8" fill="gray"/><use xlink:href="#X" x="519.354" y="336.8" fill="gray"/><use xlink:href="#Y" x="593.848" y="404.448" fill="gray"/><use xlink:href="#n" x="595.888" y="404.448" fill="gray"/><use xlink:href="#Z" x="598.108" y="404.448" fill="gray"/><use xlink:href="#Y" x="593.848" y="384.298" fill="gray"/><use xlink:href="#n" x="595.888" y="384.298" fill="gray"/><use xlink:href="#aa" x="598.108" y="384.298" fill="gray"/><use xlink:href="#z" x="308.827" y="361.268" fill="gray"/><use xlink:href="#y" x="310.387" y="361.268" fill="gray"/><use xlink:href="#G" x="314.527" y="361.268" fill="gray"/><use xlink:href="#Q" x="317.707" y="361.268" fill="gray"/><use xlink:href="#R" x="316.025" y="354.071" fill="gray"/><use xlink:href="#S" x="316.025" y="351.371" fill="gray"/><use xlink:href="#S" x="316.025" y="348.491" fill="gray"/><use xlink:href="#R" x="316.025" y="373.07" fill="gray"/><use xlink:href="#T" x="316.025" y="370.37" fill="gray"/><use xlink:href="#T" x="316.025" y="367.67" fill="gray"/><use xlink:href="#U" x="310.9" y="373.582" fill="gray"/><use xlink:href="#V" x="310.9" y="348.774" fill="gray"/><use xlink:href="#W" x="310.9" y="346.074" fill="gray"/><use xlink:href="#J" x="280.695" y="368.466" fill="gray"/><use xlink:href="#ab" x="283.575" y="368.466" fill="gray"/><use xlink:href="#J" x="332.517" y="365.587" fill="gray"/><use xlink:href="#ac" x="335.397" y="365.587" fill="gray"/><use xlink:href="#x" x="253.884" y="328.164" fill="gray"/><use xlink:href="#y" x="257.664" y="328.164" fill="gray"/><use xlink:href="#y" x="261.804" y="328.164" fill="gray"/><use xlink:href="#u" x="255.444" y="398.404" fill="gray"/><use xlink:href="#v" x="258.564" y="398.404" fill="gray"/><use xlink:href="#w" x="261.444" y="398.404" fill="gray"/><path d="M282.898 227.398l23.043 11.524m0 0l-23.043 11.52m0-.001v-23.043" fill="none" stroke-width=".96" stroke-linecap="round" stroke-linejoin="round" stroke="maroon" stroke-miterlimit="10"/><path d="M292.68 241.8l-2.282-5.76m-.598 5.76l-2.28-5.76m2.28 5.76h2.88m0 0h2.039m-9.239-5.76h2.04m0 0h2.878" fill="none" stroke-width=".6" stroke-linecap="round" stroke-linejoin="round" stroke="maroon" stroke-miterlimit="10"/><path d="M271.379 238.922h11.52m27.542 0a2.22 2.22 0 1 1-2.223-2.223c1.227 0 2.223.996 2.223 2.223zm7.019 0h-7.019" fill="none" stroke-width=".36" stroke-linecap="round" stroke-linejoin="round" stroke="maroon" stroke-miterlimit="10"/><path d="M343.379 227.398l23.043 11.524m0 0l-23.043 11.52m0-.001v-23.043" fill="none" stroke-width=".96" stroke-linecap="round" stroke-linejoin="round" stroke="maroon" stroke-miterlimit="10"/><path d="M353.16 241.8l-2.281-5.76m-.598 5.76L348 236.04m2.281 5.76h2.88m-.001 0h2.04m-9.24-5.76H348m0 0h2.879" fill="none" stroke-width=".6" stroke-linecap="round" stroke-linejoin="round" stroke="maroon" stroke-miterlimit="10"/><path d="M331.86 238.922h11.519m27.481 0a2.22 2.22 0 1 1-4.44-.002 2.22 2.22 0 0 1 4.44.002zm7.081 0h-7.02" fill="none" stroke-width=".36" stroke-linecap="round" stroke-linejoin="round" stroke="maroon" stroke-miterlimit="10"/><path d="M403.86 394.379l22.98-11.52m0 .001l-22.98-11.52m0 0v23.039" fill="none" stroke-width=".96" stroke-linecap="round" stroke-linejoin="round" stroke="maroon" stroke-miterlimit="10"/><path d="M392.34 382.86h11.52m27.48 0a2.22 2.22 0 1 1-4.441 0 2.22 2.22 0 0 1 4.44 0zm7.02 0h-7.02" fill="none" stroke-width=".36" stroke-linecap="round" stroke-linejoin="round" stroke="maroon" stroke-miterlimit="10"/><path d="M507.48 394.379l23.04-11.52m0 .001l-23.04-11.52m0 0v23.039" fill="none" stroke-width=".96" stroke-linecap="round" stroke-linejoin="round" stroke="maroon" stroke-miterlimit="10"/><path d="M495.96 382.86h11.52m27.48 0a2.22 2.22 0 0 1-4.44 0 2.22 2.22 0 0 1 4.44 0zm7.08 0h-7.02" fill="none" stroke-width=".36" stroke-linecap="round" stroke-linejoin="round" stroke="maroon" stroke-miterlimit="10"/><path d="M300.18 188.82h-11.52m0-3.422h11.52" fill="none" stroke-width=".6" stroke-linecap="round" stroke-linejoin="round" stroke="maroon" stroke-miterlimit="10"/><path d="M294.422 181.379v1.98" fill="none" stroke-width=".36" stroke-linecap="round" stroke-linejoin="round" stroke="maroon" stroke-miterlimit="10"/><path d="M300.18 185.398v3.422m-11.52 0v-3.422" fill="none" stroke-width=".6" stroke-linecap="round" stroke-linejoin="round" stroke="maroon" stroke-miterlimit="10"/><path d="M288.66 192.84h4.621m0 0l-2.281 1.2m2.281-1.2L291 191.7m-8.102-4.56h5.762m17.281 0h-5.761m-5.758-3.78l3.957 8.038m-1.019.602l2.64 2.34m0 0l-.48-3.36m-2.16 1.02l2.16-1.02" fill="none" stroke-width=".36" stroke-linecap="round" stroke-linejoin="round" stroke="maroon" stroke-miterlimit="10"/><path d="M407.879 285v-11.52m3.421 0V285" fill="none" stroke-width=".6" stroke-linecap="round" stroke-linejoin="round" stroke="maroon" stroke-miterlimit="10"/><path d="M415.379 279.238h-2.04" fill="none" stroke-width=".36" stroke-linecap="round" stroke-linejoin="round" stroke="maroon" stroke-miterlimit="10"/><path d="M411.3 285h-3.421m0-11.52h3.422" fill="none" stroke-width=".6" stroke-linecap="round" stroke-linejoin="round" stroke="maroon" stroke-miterlimit="10"/><path d="M403.86 273.48v4.622m0 0l-1.2-2.34m1.2 2.34l1.14-2.34m4.621-8.043v5.761m0 17.282V285m3.719-5.762l-7.98 3.961m-.66-1.019l-2.34 2.582m0 0l3.359-.48m-1.019-2.102l1.019 2.101" fill="none" stroke-width=".36" stroke-linecap="round" stroke-linejoin="round" stroke="maroon" stroke-miterlimit="10"/><use xlink:href="#ad" x="251.967" y="247.563" fill="maroon"/><path d="M254.102 256.2v-4.02m0-7.5v3.718" fill="none" stroke-width=".36" stroke-linecap="round" stroke-linejoin="round" stroke="maroon" stroke-miterlimit="10"/><path d="M249.48 252.48h9.239v-1.44h-9.239zm0 0" fill="maroon" stroke-width=".12" stroke-linecap="round" stroke-linejoin="round" stroke="maroon" stroke-miterlimit="10"/><path d="M249.66 248.398v1.442m0 0h8.942m0 0v-1.442m0 0h-4.5m0 0h-4.442" fill="none" stroke-width=".3" stroke-linecap="round" stroke-linejoin="round" stroke="maroon" stroke-miterlimit="10"/><path d="M392.34 256.2h-4.078m-7.442 0h4.02" fill="none" stroke-width=".36" stroke-linecap="round" stroke-linejoin="round" stroke="maroon" stroke-miterlimit="10"/><path d="M387.121 260.219h1.2v-8.04h-1.2zm-2.34 0h1.2v-8.04h-1.2zm0 0" fill="maroon" stroke-width=".12" stroke-linecap="round" stroke-linejoin="round" stroke="maroon" stroke-miterlimit="10"/><path d="M392.34 238.922h-4.078m-7.442 0h4.02" fill="none" stroke-width=".36" stroke-linecap="round" stroke-linejoin="round" stroke="maroon" stroke-miterlimit="10"/><path d="M387.121 242.941h1.2v-8.043h-1.2zm-2.34 0h1.2v-8.043h-1.2zm0 0" fill="maroon" stroke-width=".12" stroke-linecap="round" stroke-linejoin="round" stroke="maroon" stroke-miterlimit="10"/><path d="M409.621 339.66v4.02m0 7.5v-4.02" fill="none" stroke-width=".36" stroke-linecap="round" stroke-linejoin="round" stroke="maroon" stroke-miterlimit="10"/><path d="M405.602 344.879h8.039v-1.2h-8.04zm0 2.281h8.039v-1.2h-8.04zm0 0" fill="maroon" stroke-width=".12" stroke-linecap="round" stroke-linejoin="round" stroke="maroon" stroke-miterlimit="10"/><path d="M438.36 256.2h-4.02m-7.5 0h4.082" fill="none" stroke-width=".36" stroke-linecap="round" stroke-linejoin="round" stroke="maroon" stroke-miterlimit="10"/><path d="M433.2 260.219h1.198v-8.04H433.2zm-2.34 0h1.199v-8.04h-1.2zm0 0" fill="maroon" stroke-width=".12" stroke-linecap="round" stroke-linejoin="round" stroke="maroon" stroke-miterlimit="10"/><path d="M405.84 302.281h7.5" fill="none" stroke-width=".6" stroke-linecap="round" stroke-linejoin="round" stroke="maroon" stroke-miterlimit="10"/><path d="M409.621 296.52v5.761" fill="none" stroke-width=".36" stroke-linecap="round" stroke-linejoin="round" stroke="maroon" stroke-miterlimit="10"/><path d="M407.281 303.422h4.617m-3.179 1.137h1.742M380.82 317.82h11.52m0 3.418h-11.52" fill="none" stroke-width=".6" stroke-linecap="round" stroke-linejoin="round" stroke="maroon" stroke-miterlimit="10"/><path d="M386.578 325.262v-1.98" fill="none" stroke-width=".36" stroke-linecap="round" stroke-linejoin="round" stroke="maroon" stroke-miterlimit="10"/><path d="M380.82 321.238v-3.418m11.52 0v3.418" fill="none" stroke-width=".6" stroke-linecap="round" stroke-linejoin="round" stroke="maroon" stroke-miterlimit="10"/><path d="M392.34 313.8h-4.621m0 0l2.281-1.198m-2.281 1.198l2.281 1.141m8.102 4.559h-5.762m-17.281 0h5.761m5.758 3.781l-4.02-8.043m1.082-.598L381 312.3m0 0l.48 3.36m2.16-1.02l-2.16 1.02" fill="none" stroke-width=".36" stroke-linecap="round" stroke-linejoin="round" stroke="maroon" stroke-miterlimit="10"/><path d="M438.36 317.82h-11.52m0 3.418h11.52" fill="none" stroke-width=".6" stroke-linecap="round" stroke-linejoin="round" stroke="maroon" stroke-miterlimit="10"/><path d="M432.602 325.262v-1.98" fill="none" stroke-width=".36" stroke-linecap="round" stroke-linejoin="round" stroke="maroon" stroke-miterlimit="10"/><path d="M438.36 321.238v-3.418m-11.52 0v3.418" fill="none" stroke-width=".6" stroke-linecap="round" stroke-linejoin="round" stroke="maroon" stroke-miterlimit="10"/><path d="M426.84 313.8h4.62m0 0l-2.28-1.198m2.28 1.198l-2.28 1.141m-8.102 4.559h5.762m17.281 0h-5.762m-5.757 3.781l4.02-8.043m-1.082-.598l2.64-2.34m0 0l-.48 3.36m-2.16-1.02l2.16 1.02" fill="none" stroke-width=".36" stroke-linecap="round" stroke-linejoin="round" stroke="maroon" stroke-miterlimit="10"/><path d="M413.34 362.7h-7.5" fill="none" stroke-width=".6" stroke-linecap="round" stroke-linejoin="round" stroke="maroon" stroke-miterlimit="10"/><path d="M409.621 356.941v5.758" fill="none" stroke-width=".36" stroke-linecap="round" stroke-linejoin="round" stroke="maroon" stroke-miterlimit="10"/><path d="M411.898 363.84h-4.617m3.179 1.14h-1.741m-158.34-97.261h7.5" fill="none" stroke-width=".6" stroke-linecap="round" stroke-linejoin="round" stroke="maroon" stroke-miterlimit="10"/><path d="M254.102 261.96v5.759" fill="none" stroke-width=".36" stroke-linecap="round" stroke-linejoin="round" stroke="maroon" stroke-miterlimit="10"/><path d="M251.82 268.86h4.621m-3.179 1.14H255" fill="none" stroke-width=".6" stroke-linecap="round" stroke-linejoin="round" stroke="maroon" stroke-miterlimit="10"/><path d="M259.86 379.98v-11.52m0-23.038v11.52m224.581 25.918h-5.761m-17.282 0h5.762" fill="none" stroke-width=".36" stroke-linecap="round" stroke-linejoin="round" stroke="maroon" stroke-miterlimit="10"/><path d="M467.16 384.898h11.52m0-4.078h-11.52m11.52 4.078v-4.078m-11.52 4.078v-4.078" fill="none" stroke-width=".6" stroke-linecap="round" stroke-linejoin="round" stroke="maroon" stroke-miterlimit="10"/><path d="M530.52 359.82h-5.758m-17.282 0h5.758" fill="none" stroke-width=".36" stroke-linecap="round" stroke-linejoin="round" stroke="maroon" stroke-miterlimit="10"/><path d="M513.238 361.86h11.524m0-4.02h-11.524m11.524 4.02v-4.02m-11.524 4.02v-4.02" fill="none" stroke-width=".6" stroke-linecap="round" stroke-linejoin="round" stroke="maroon" stroke-miterlimit="10"/><path d="M524.762 342.54h-4.024m-7.5 0h4.024" fill="none" stroke-width=".36" stroke-linecap="round" stroke-linejoin="round" stroke="maroon" stroke-miterlimit="10"/><path d="M519.54 346.559h1.198v-8.04h-1.199zm-2.278 0h1.199v-8.04h-1.2zm0 0" fill="maroon" stroke-width=".12" stroke-linecap="round" stroke-linejoin="round" stroke="maroon" stroke-miterlimit="10"/><path d="M579.48 403.02h5.758m5.762 0a2.88 2.88 0 0 1-2.879 2.878A2.88 2.88 0 1 1 591 403.02zm-11.52-20.16h5.758m5.762 0a2.88 2.88 0 0 1-2.879 2.878A2.88 2.88 0 1 1 591 382.86zm-29.7 34.562h7.5" fill="none" stroke-width=".6" stroke-linecap="round" stroke-linejoin="round" stroke="maroon" stroke-miterlimit="10"/><path d="M565.078 411.66v5.762" fill="none" stroke-width=".36" stroke-linecap="round" stroke-linejoin="round" stroke="maroon" stroke-miterlimit="10"/><path d="M562.738 418.559h4.621m-3.179 1.141h1.742" fill="none" stroke-width=".6" stroke-linecap="round" stroke-linejoin="round" stroke="maroon" stroke-miterlimit="10"/><path d="M311.7 377.102v-11.524m0-23.038v11.519" fill="none" stroke-width=".36" stroke-linecap="round" stroke-linejoin="round" stroke="maroon" stroke-miterlimit="10"/><path d="M314.578 335.34l-2.879-4.32m.001 0l-2.88 4.32" fill="none" stroke-width=".6" stroke-linecap="round" stroke-linejoin="round" stroke="maroon" stroke-miterlimit="10"/><path d="M311.7 336.781v-5.761" fill="none" stroke-width=".36" stroke-linecap="round" stroke-linejoin="round" stroke="maroon" stroke-miterlimit="10"/><path d="M307.98 391.5h7.442" fill="none" stroke-width=".6" stroke-linecap="round" stroke-linejoin="round" stroke="maroon" stroke-miterlimit="10"/><path d="M311.7 385.738v5.762" fill="none" stroke-width=".36" stroke-linecap="round" stroke-linejoin="round" stroke="maroon" stroke-miterlimit="10"/><path d="M309.422 392.64h4.558m-3.12 1.141h1.68" fill="none" stroke-width=".6" stroke-linecap="round" stroke-linejoin="round" stroke="maroon" stroke-miterlimit="10"/><path d="M288.66 356.941v4.02m0 7.499v-4.019" fill="none" stroke-width=".36" stroke-linecap="round" stroke-linejoin="round" stroke="maroon" stroke-miterlimit="10"/><path d="M284.64 362.16h8.04v-1.2h-8.04zm0 2.281h8.04v-1.203h-8.04zm0 0" fill="maroon" stroke-width=".12" stroke-linecap="round" stroke-linejoin="round" stroke="maroon" stroke-miterlimit="10"/><path d="M340.5 354.059v4.02m0 7.499v-4.02" fill="none" stroke-width=".36" stroke-linecap="round" stroke-linejoin="round" stroke="maroon" stroke-miterlimit="10"/><path d="M336.48 359.281h8.04v-1.203h-8.04zm0 2.278h8.04v-1.2h-8.04zm0 0" fill="maroon" stroke-width=".12" stroke-linecap="round" stroke-linejoin="round" stroke="maroon" stroke-miterlimit="10"/><path d="M262.738 335.34l-2.879-4.32m.001 0l-2.88 4.32" fill="none" stroke-width=".6" stroke-linecap="round" stroke-linejoin="round" stroke="maroon" stroke-miterlimit="10"/><path d="M259.86 336.781v-5.761" fill="none" stroke-width=".36" stroke-linecap="round" stroke-linejoin="round" stroke="maroon" stroke-miterlimit="10"/><path d="M256.14 391.5h7.5" fill="none" stroke-width=".6" stroke-linecap="round" stroke-linejoin="round" stroke="maroon" stroke-miterlimit="10"/><path d="M259.86 385.738v5.762" fill="none" stroke-width=".36" stroke-linecap="round" stroke-linejoin="round" stroke="maroon" stroke-miterlimit="10"/><path d="M257.578 392.64h4.621m-3.179 1.141h1.742" fill="none" stroke-width=".6" stroke-linecap="round" stroke-linejoin="round" stroke="maroon" stroke-miterlimit="10"/><path d="M377.941 238.922h2.88M455.64 382.86V319.5m0 0v-63.3m0 0h-17.28m0 126.66h17.28m5.758 0h-5.757" fill="none" stroke-width=".36" stroke-linecap="round" stroke-linejoin="round" stroke="green" stroke-miterlimit="10"/><path d="M456.781 382.86a1.141 1.141 0 0 1-2.281 0 1.142 1.142 0 0 1 2.281-.001" fill-rule="evenodd" fill="green"/><path d="M456.781 382.86a1.141 1.141 0 0 1-2.281 0 1.142 1.142 0 0 1 2.281-.001zm0 0" fill="none" stroke-width=".12" stroke-linecap="round" stroke-linejoin="round" stroke="green" stroke-miterlimit="10"/><path d="M444.121 319.5h11.52" fill="none" stroke-width=".36" stroke-linecap="round" stroke-linejoin="round" stroke="green" stroke-miterlimit="10"/><path d="M456.781 319.5a1.14 1.14 0 1 1-2.282-.002 1.14 1.14 0 0 1 2.282.002" fill-rule="evenodd" fill="green"/><path d="M456.781 319.5a1.14 1.14 0 1 1-2.282-.002 1.14 1.14 0 0 1 2.282.002zm0 0" fill="none" stroke-width=".12" stroke-linecap="round" stroke-linejoin="round" stroke="green" stroke-miterlimit="10"/><path d="M363.54 382.86V319.5m0 0v-63.3m0 0h17.28m-17.28 126.66h28.8m-17.281-63.36h-11.52" fill="none" stroke-width=".36" stroke-linecap="round" stroke-linejoin="round" stroke="green" stroke-miterlimit="10"/><path d="M364.68 319.5a1.14 1.14 0 1 1-2.282 0 1.142 1.142 0 0 1 2.281 0" fill-rule="evenodd" fill="green"/><path d="M364.68 319.5a1.14 1.14 0 1 1-2.282 0 1.142 1.142 0 0 1 2.281 0zm0 0" fill="none" stroke-width=".12" stroke-linecap="round" stroke-linejoin="round" stroke="green" stroke-miterlimit="10"/><path d="M409.621 356.941v-5.761m-155.519-89.22v-5.76M579.48 403.02h-14.402m0 0v8.64M311.7 377.102v5.757m0 .001v2.878m28.8-20.16v17.281m-28.8.001h28.8" fill="none" stroke-width=".36" stroke-linecap="round" stroke-linejoin="round" stroke="green" stroke-miterlimit="10"/><path d="M312.84 382.86a1.142 1.142 0 1 1-1.141-1.141c.63 0 1.14.511 1.14 1.14" fill-rule="evenodd" fill="green"/><path d="M312.84 382.86a1.142 1.142 0 1 1-1.141-1.141c.63 0 1.14.511 1.14 1.14zm0 0" fill="none" stroke-width=".12" stroke-linecap="round" stroke-linejoin="round" stroke="green" stroke-miterlimit="10"/><path d="M409.621 296.52v-5.758M259.86 379.98v2.88m0 0v2.878m0-2.878h28.8m0 0v-14.4" fill="none" stroke-width=".36" stroke-linecap="round" stroke-linejoin="round" stroke="green" stroke-miterlimit="10"/><path d="M261 382.86a1.142 1.142 0 1 1-1.141-1.141c.63 0 1.141.511 1.141 1.14" fill-rule="evenodd" fill="green"/><path d="M261 382.86a1.142 1.142 0 1 1-1.141-1.141c.63 0 1.141.511 1.141 1.14zm0 0" fill="none" stroke-width=".12" stroke-linecap="round" stroke-linejoin="round" stroke="green" stroke-miterlimit="10"/><path d="M323.219 175.621v11.52m0 2.879v48.902m0 0h-5.758m5.758 0h8.64" fill="none" stroke-width=".36" stroke-linecap="round" stroke-linejoin="round" stroke="green" stroke-miterlimit="10"/><path d="M324.36 238.922c0 .629-.508 1.137-1.141 1.137a1.139 1.139 0 1 1 0-2.278c.633 0 1.14.508 1.14 1.14" fill-rule="evenodd" fill="green"/><path d="M324.36 238.922c0 .629-.508 1.137-1.141 1.137a1.139 1.139 0 1 1 0-2.278c.633 0 1.14.508 1.14 1.14zm0 0" fill="none" stroke-width=".12" stroke-linecap="round" stroke-linejoin="round" stroke="green" stroke-miterlimit="10"/><path d="M305.941 187.14h17.278m0 0v2.88M311.7 342.54v-2.88m0 0v-2.879m0 2.879h28.8m0 0v14.399" fill="none" stroke-width=".36" stroke-linecap="round" stroke-linejoin="round" stroke="green" stroke-miterlimit="10"/><path d="M312.84 339.66a1.14 1.14 0 1 1-2.28-.002 1.14 1.14 0 0 1 2.279.002" fill-rule="evenodd" fill="green"/><path d="M312.84 339.66a1.14 1.14 0 1 1-2.28-.002 1.14 1.14 0 0 1 2.279.002zm0 0" fill="none" stroke-width=".12" stroke-linecap="round" stroke-linejoin="round" stroke="green" stroke-miterlimit="10"/><path d="M259.86 345.422v-5.762m0 0v-2.879m0 2.879h28.8m0 0v17.281" fill="none" stroke-width=".36" stroke-linecap="round" stroke-linejoin="round" stroke="green" stroke-miterlimit="10"/><path d="M261 339.66a1.14 1.14 0 1 1-2.282-.002 1.14 1.14 0 0 1 2.282.002" fill-rule="evenodd" fill="green"/><path d="M261 339.66a1.14 1.14 0 1 1-2.282-.002 1.14 1.14 0 0 1 2.282.002zm0 0" fill="none" stroke-width=".12" stroke-linecap="round" stroke-linejoin="round" stroke="green" stroke-miterlimit="10"/><path d="M495.96 382.86h-5.76m0 0h-5.759m23.039-23.04H490.2m0 0v23.04" fill="none" stroke-width=".36" stroke-linecap="round" stroke-linejoin="round" stroke="green" stroke-miterlimit="10"/><path d="M491.34 382.86a1.142 1.142 0 1 1-1.141-1.141c.63 0 1.14.511 1.14 1.14" fill-rule="evenodd" fill="green"/><path d="M491.34 382.86a1.142 1.142 0 1 1-1.141-1.141c.63 0 1.14.511 1.14 1.14zm0 0" fill="none" stroke-width=".12" stroke-linecap="round" stroke-linejoin="round" stroke="green" stroke-miterlimit="10"/><path d="M513.238 342.54H490.2m0 0v17.28" fill="none" stroke-width=".36" stroke-linecap="round" stroke-linejoin="round" stroke="green" stroke-miterlimit="10"/><path d="M491.34 359.82a1.14 1.14 0 1 1-2.28-.002 1.14 1.14 0 0 1 2.279.002" fill-rule="evenodd" fill="green"/><path d="M491.34 359.82a1.14 1.14 0 1 1-2.28-.002 1.14 1.14 0 0 1 2.279.002zm0 0" fill="none" stroke-width=".12" stroke-linecap="round" stroke-linejoin="round" stroke="green" stroke-miterlimit="10"/><path d="M530.52 359.82h17.28m0 0v23.04m0 0h-5.76m-17.278-40.32H547.8m0 0v17.28" fill="none" stroke-width=".36" stroke-linecap="round" stroke-linejoin="round" stroke="green" stroke-miterlimit="10"/><path d="M548.941 359.82a1.14 1.14 0 1 1-2.28 0 1.14 1.14 0 0 1 2.28 0" fill-rule="evenodd" fill="green"/><path d="M548.941 359.82a1.14 1.14 0 1 1-2.28 0 1.14 1.14 0 0 1 2.28 0zm0 0" fill="none" stroke-width=".12" stroke-linecap="round" stroke-linejoin="round" stroke="green" stroke-miterlimit="10"/><path d="M547.8 382.86h31.68" fill="none" stroke-width=".36" stroke-linecap="round" stroke-linejoin="round" stroke="green" stroke-miterlimit="10"/><path d="M548.941 382.86a1.14 1.14 0 1 1-2.278 0 1.14 1.14 0 0 1 2.278-.001" fill-rule="evenodd" fill="green"/><path d="M548.941 382.86a1.14 1.14 0 1 1-2.278 0 1.14 1.14 0 0 1 2.278-.001zm0 0" fill="none" stroke-width=".12" stroke-linecap="round" stroke-linejoin="round" stroke="green" stroke-miterlimit="10"/><path d="M432.602 325.262v11.52m-22.981-.001v2.88m22.981-2.88h-22.98m-23.044-11.519v11.52m23.043-.001h-23.043" fill="none" stroke-width=".36" stroke-linecap="round" stroke-linejoin="round" stroke="green" stroke-miterlimit="10"/><path d="M410.762 336.781a1.14 1.14 0 1 1-2.281 0c0-.633.507-1.14 1.14-1.14.629 0 1.14.507 1.14 1.14" fill-rule="evenodd" fill="green"/><path d="M410.762 336.781a1.14 1.14 0 1 1-2.281 0c0-.633.507-1.14 1.14-1.14.629 0 1.14.507 1.14 1.14zm0 0" fill="none" stroke-width=".12" stroke-linecap="round" stroke-linejoin="round" stroke="green" stroke-miterlimit="10"/><path d="M415.379 279.238h5.7m-.001 0v-17.277m0-.001h-11.457m-17.281-5.76h17.281m0 0v-17.278" fill="none" stroke-width=".36" stroke-linecap="round" stroke-linejoin="round" stroke="green" stroke-miterlimit="10"/><path d="M410.762 256.2a1.14 1.14 0 1 1-1.14-1.14 1.14 1.14 0 0 1 1.14 1.14" fill-rule="evenodd" fill="green"/><path d="M410.762 256.2a1.14 1.14 0 1 1-1.14-1.14 1.14 1.14 0 0 1 1.14 1.14zm0 0" fill="none" stroke-width=".12" stroke-linecap="round" stroke-linejoin="round" stroke="green" stroke-miterlimit="10"/><path d="M409.621 238.922H392.34m17.281 17.278h17.219m-17.219 5.76v-5.76m0 11.519v-5.758" fill="none" stroke-width=".36" stroke-linecap="round" stroke-linejoin="round" stroke="green" stroke-miterlimit="10"/><path d="M410.762 261.96a1.14 1.14 0 1 1-2.281 0c0-.632.507-1.14 1.14-1.14.629 0 1.14.508 1.14 1.14" fill-rule="evenodd" fill="green"/><path d="M410.762 261.96a1.14 1.14 0 1 1-2.281 0c0-.632.507-1.14 1.14-1.14.629 0 1.14.508 1.14 1.14zm0 0" fill="none" stroke-width=".12" stroke-linecap="round" stroke-linejoin="round" stroke="green" stroke-miterlimit="10"/><g clip-path="url(#ae)"><path d="M294.422 181.379v-11.52" fill="none" stroke-width=".36" stroke-linecap="round" stroke-linejoin="round" stroke="green" stroke-miterlimit="10"/></g><g clip-path="url(#af)"><path d="M254.102 169.86v17.28" fill="none" stroke-width=".36" stroke-linecap="round" stroke-linejoin="round" stroke="green" stroke-miterlimit="10"/></g><path d="M254.102 187.14v51.782m0 0h17.277m-17.277 5.758v-5.758" fill="none" stroke-width=".36" stroke-linecap="round" stroke-linejoin="round" stroke="green" stroke-miterlimit="10"/><path d="M255.238 238.922c0 .629-.508 1.137-1.136 1.137a1.137 1.137 0 0 1-1.141-1.137c0-.633.508-1.14 1.14-1.14.63 0 1.137.507 1.137 1.14" fill-rule="evenodd" fill="green"/><path d="M255.238 238.922c0 .629-.508 1.137-1.136 1.137a1.137 1.137 0 0 1-1.141-1.137c0-.633.508-1.14 1.14-1.14.63 0 1.137.507 1.137 1.14zm0 0" fill="none" stroke-width=".12" stroke-linecap="round" stroke-linejoin="round" stroke="green" stroke-miterlimit="10"/><g clip-path="url(#ag)"><path d="M294.422 169.86h-40.32" fill="none" stroke-width=".36" stroke-linecap="round" stroke-linejoin="round" stroke="green" stroke-miterlimit="10"/></g><path d="M282.898 187.14h-28.796" fill="none" stroke-width=".36" stroke-linecap="round" stroke-linejoin="round" stroke="green" stroke-miterlimit="10"/><path d="M255.238 187.14a1.139 1.139 0 1 1-2.277 0 1.14 1.14 0 1 1 2.277 0" fill-rule="evenodd" fill="green"/><path d="M255.238 187.14a1.139 1.139 0 1 1-2.277 0 1.14 1.14 0 1 1 2.277 0zm0 0" fill="none" stroke-width=".12" stroke-linecap="round" stroke-linejoin="round" stroke="green" stroke-miterlimit="10"/></svg>