<svg xmlns:xlink="http://www.w3.org/1999/xlink" width="842pt" height="595pt" viewBox="0 0 842 595">
  <defs/>
  <defs>
    <symbol id="555-Synth-1_svg__a" overflow="visible"/>
    <symbol id="555-Synth-1_svg__b" overflow="visible"/>
    <symbol id="555-Synth-1_svg__c" overflow="visible"/>
    <symbol id="555-Synth-1_svg__d" overflow="visible">
      <path d="M1.203 0l.531-1.578V0h.235v-1.875h-.344L1.078-.25.531-1.875H.187V0h.235v-1.578L.953 0zm0 0"/>
    </symbol>
    <symbol id="555-Synth-1_svg__e" overflow="visible">
      <path d="M1.234-1.828H.281l-.14 1h.218a.422.422 0 0 1 .063-.078C.453-.926.477-.941.5-.953a.179.179 0 0 1 .094-.031.37.37 0 0 1 .25.016.34.34 0 0 1 .125.093.34.34 0 0 1 .094.125.57.57 0 0 1 .03.188.48.48 0 0 1-.03.171.732.732 0 0 1-.11.172C.898-.164.813-.14.688-.14a.34.34 0 0 1-.235-.078.46.46 0 0 1-.14-.234h-.22c0 .043.005.078.016.11.008.023.02.054.032.093a.22.22 0 0 0 .062.094.4.4 0 0 0 .203.156.68.68 0 0 0 .735-.11.586.586 0 0 0 .14-.218.745.745 0 0 0 0-.516.684.684 0 0 0-.125-.187.598.598 0 0 0-.61-.14.393.393 0 0 0-.155.077l.078-.515h.765zm0 0"/>
    </symbol>
    <symbol id="555-Synth-1_svg__f" overflow="visible">
      <path d="M1.281-1.344a.566.566 0 0 0-.062-.203.69.69 0 0 0-.11-.156.476.476 0 0 0-.156-.094.554.554 0 0 0-.469.047.495.495 0 0 0-.203.188.688.688 0 0 0-.125.265 1.55 1.55 0 0 0-.047.234v.438c.008.063.02.125.032.188.02.054.035.101.047.14a.553.553 0 0 0 .078.125A.52.52 0 0 0 .453 0 .634.634 0 0 0 .97.016a.584.584 0 0 0 .313-.313.745.745 0 0 0 .046-.266.487.487 0 0 0-.047-.218.684.684 0 0 0-.125-.188.478.478 0 0 0-.172-.125.487.487 0 0 0-.218-.047.485.485 0 0 0-.422.204c0-.22.031-.383.094-.5a.34.34 0 0 1 .312-.188c.082 0 .148.027.203.078.05.043.086.11.11.203zm-.547.407c.114 0 .192.027.235.078a.36.36 0 0 1 .094.156c.019.055.03.11.03.172a.429.429 0 0 1-.03.156c-.024.043-.047.086-.079.125a.36.36 0 0 1-.125.078.257.257 0 0 1-.125.031.31.31 0 0 1-.156-.03.605.605 0 0 1-.125-.079.605.605 0 0 1-.078-.125.78.78 0 0 1-.016-.172.59.59 0 0 1 .016-.156.36.36 0 0 1 .078-.125.866.866 0 0 1 .125-.078.429.429 0 0 1 .156-.031zm0 0"/>
    </symbol>
    <symbol id="555-Synth-1_svg__g" overflow="visible"/>
    <symbol id="555-Synth-1_svg__h" overflow="visible"/>
    <symbol id="555-Synth-1_svg__i" overflow="visible"/>
    <symbol id="555-Synth-1_svg__m" overflow="visible"/>
    <symbol id="555-Synth-1_svg__n" overflow="visible"/>
    <symbol id="555-Synth-1_svg__o" overflow="visible">
      <path d="M1.11-2.844a.907.907 0 0 0-.376.078.689.689 0 0 0-.28.235 1.39 1.39 0 0 0-.22.484 3.072 3.072 0 0 0-.062.672c0 .48.078.844.234 1.094.156.25.39.375.703.375.301 0 .532-.117.688-.36.156-.25.234-.613.234-1.093 0-.27-.027-.5-.078-.688a1.459 1.459 0 0 0-.187-.484.897.897 0 0 0-.297-.235.889.889 0 0 0-.36-.078zm0 .313c.374 0 .562.383.562 1.14 0 .407-.047.711-.14.907a.464.464 0 0 1-.438.28C.719-.203.53-.593.53-1.374c0-.383.047-.672.14-.86.095-.195.24-.296.438-.296zm0 0"/>
    </symbol>
    <symbol id="555-Synth-1_svg__p" overflow="visible">
      <path d="M1.938 0v-2.11h-.329v1.204a1.429 1.429 0 0 1-.062.297.577.577 0 0 1-.11.218.404.404 0 0 1-.171.141.598.598 0 0 1-.235.047.47.47 0 0 1-.328-.11.395.395 0 0 1-.11-.296v-1.5H.267v1.625c0 .093.015.18.046.25.032.062.07.12.126.172a.526.526 0 0 0 .218.109.786.786 0 0 0 .485.015.534.534 0 0 0 .17-.062.985.985 0 0 0 .172-.11c.051-.05.102-.113.157-.187V0zm0 0"/>
    </symbol>
    <symbol id="555-Synth-1_svg__q" overflow="visible">
      <path d="M2.844-1.547H1.625v.328h.89v.078a.907.907 0 0 1-.078.375.846.846 0 0 1-.187.282 1.2 1.2 0 0 1-.297.187.95.95 0 0 1-.36.063c-.148 0-.288-.024-.421-.078a.821.821 0 0 1-.313-.22.846.846 0 0 1-.14-.171 12.27 12.27 0 0 1-.094-.219 4.673 4.673 0 0 1-.063-.25 2.263 2.263 0 0 1-.015-.281c0-.176.02-.336.062-.484.051-.145.125-.27.22-.375a.973.973 0 0 1 .327-.235.93.93 0 0 1 .422-.094.99.99 0 0 1 .313.047.812.812 0 0 1 .296.156c.114.075.192.204.235.391h.39a1.28 1.28 0 0 0-.156-.39 1.155 1.155 0 0 0-.328-.344c-.156-.125-.406-.188-.75-.188-.355 0-.648.094-.875.281a1.11 1.11 0 0 0-.234.235 2.506 2.506 0 0 0-.203.39 1.726 1.726 0 0 0-.094.626c0 .23.031.437.094.625.07.187.164.351.28.484.114.137.255.242.423.312a1.38 1.38 0 0 0 1.078 0 1.71 1.71 0 0 0 .469-.359l.093.39h.235zm0 0"/>
    </symbol>
    <symbol id="555-Synth-1_svg__r" overflow="visible"/>
    <symbol id="555-Synth-1_svg__s" overflow="visible">
      <path d="M.36 0h1.124c.188 0 .352-.031.5-.094.145-.07.27-.172.375-.297a1.31 1.31 0 0 0 .235-.453 2.38 2.38 0 0 0 .078-.625 2.15 2.15 0 0 0-.078-.593 1.32 1.32 0 0 0-.235-.47 1.011 1.011 0 0 0-.375-.28 1.147 1.147 0 0 0-.5-.11H.36zm.374-.328v-2.266h.688c.289 0 .508.102.656.297.145.188.223.469.235.844-.012.367-.09.648-.235.844-.148.187-.367.28-.656.28zm0 0"/>
    </symbol>
    <symbol id="555-Synth-1_svg__E" overflow="visible">
      <path d="M1.578 0l1.016-2.922h-.406L1.375-.453l-.86-2.469h-.39L1.172 0zm0 0"/>
    </symbol>
    <symbol id="555-Synth-1_svg__F" overflow="visible">
      <path d="M2.656-2.016c-.054-.32-.172-.562-.36-.718-.187-.157-.444-.235-.765-.235-.199 0-.375.031-.531.094-.156.063-.29.152-.39.266a1.472 1.472 0 0 0-.313.53c-.074.2-.11.419-.11.657 0 .242.036.461.11.656.07.2.18.371.328.516.102.117.227.2.375.25.156.063.328.094.516.094.707 0 1.109-.383 1.203-1.157h-.39a1.353 1.353 0 0 1-.126.454.613.613 0 0 1-.281.28.843.843 0 0 1-.406.095.884.884 0 0 1-.391-.078.915.915 0 0 1-.297-.25 1.147 1.147 0 0 1-.203-.375 1.768 1.768 0 0 1-.063-.5c0-.188.02-.352.063-.5a.997.997 0 0 1 .188-.375.885.885 0 0 1 .28-.235.792.792 0 0 1 .391-.094c.125 0 .235.016.329.047a.599.599 0 0 1 .375.313c.039.074.07.164.093.265zm0 0"/>
    </symbol>
    <symbol id="555-Synth-1_svg__ad" overflow="visible">
      <path d="M.75-1.266h.953c.164 0 .285.043.36.125.082.086.124.22.124.407v.25c0 .093.004.183.016.265.02.086.04.157.063.219h.468v-.094a.21.21 0 0 1-.093-.078.575.575 0 0 1-.063-.11.995.995 0 0 1-.031-.156v-.25c0-.113-.008-.21-.016-.296a.566.566 0 0 0-.062-.204.34.34 0 0 0-.125-.14 1.076 1.076 0 0 0-.188-.11.945.945 0 0 0 .344-.28.787.787 0 0 0 .11-.423c0-.257-.079-.453-.235-.578-.148-.133-.367-.203-.656-.203H.375V0H.75zm0-.328v-1h.906c.094 0 .172.012.235.031.07.012.132.04.187.079.094.086.14.214.14.39 0 .18-.046.309-.14.39-.094.075-.234.11-.422.11zm0 0"/>
    </symbol>
    <symbol id="555-Synth-1_svg__ag" overflow="visible"/>
    <symbol id="555-Synth-1_svg__ah" overflow="visible">
      <path d="M.89-1.313h.188c.395 0 .594.172.594.516 0 .188-.055.336-.156.438-.106.093-.25.14-.438.14-.187 0-.336-.047-.437-.14C.547-.461.492-.617.484-.83H.125c.008.118.023.216.047.298.02.086.047.152.078.203A.69.69 0 0 0 .563 0c.132.063.3.094.5.094.144 0 .273-.024.39-.063a.863.863 0 0 0 .313-.172.846.846 0 0 0 .187-.28.907.907 0 0 0 .078-.376.658.658 0 0 0-.484-.672c.27-.101.406-.3.406-.593a1.124 1.124 0 0 0-.078-.329.54.54 0 0 0-.156-.234.659.659 0 0 0-.282-.156 1.034 1.034 0 0 0-.359-.063c-.293 0-.512.078-.656.235-.149.156-.227.386-.234.687h.359c0-.094.004-.164.015-.219a.427.427 0 0 1 .047-.14.422.422 0 0 1 .172-.188.68.68 0 0 1 .297-.062c.164 0 .29.043.375.125a.559.559 0 0 1 .14.36.572.572 0 0 1-.077.233.307.307 0 0 1-.157.141.88.88 0 0 1-.093.031.4.4 0 0 1-.125.032H.89zm0 0"/>
    </symbol>
    <symbol id="555-Synth-1_svg__ai" overflow="visible"/>
    <symbol id="555-Synth-1_svg__aj" overflow="visible">
      <path d="M1.906-2.844H.438L.234-1.297h.329a.428.428 0 0 1 .109-.125.686.686 0 0 1 .25-.125.806.806 0 0 1 .156-.016.539.539 0 0 1 .438.188.626.626 0 0 1 .14.219.8.8 0 0 1 .047.281c0 .105-.016.2-.047.281a.99.99 0 0 1-.172.25c-.086.086-.218.125-.406.125a.587.587 0 0 1-.375-.11A.693.693 0 0 1 .5-.702H.14c.008.062.02.117.032.156.008.043.023.09.047.14.02.055.05.106.093.157.083.117.192.2.329.25.132.063.28.094.437.094a.968.968 0 0 0 .39-.078.702.702 0 0 0 .313-.204.844.844 0 0 0 .203-.328 1.06 1.06 0 0 0 0-.796.872.872 0 0 0-.187-.297.713.713 0 0 0-.281-.188.934.934 0 0 0-.375-.078c-.106 0-.2.016-.282.047a.716.716 0 0 0-.25.125L.734-2.5h1.172zm0 0"/>
    </symbol>
    <symbol id="555-Synth-1_svg__av" overflow="visible">
      <path d="M2-2.11a.956.956 0 0 0-.11-.296.702.702 0 0 0-.171-.235.54.54 0 0 0-.235-.156.931.931 0 0 0-.734.063 1.124 1.124 0 0 0-.328.296 1.3 1.3 0 0 0-.172.422 3.131 3.131 0 0 0-.078.719c0 .117.004.227.016.328.007.106.019.2.03.281.02.086.048.165.079.235.031.062.066.125.11.187A.815.815 0 0 0 .703 0a.93.93 0 0 0 .422.094A.934.934 0 0 0 1.5.016a.803.803 0 0 0 .484-.484 1.03 1.03 0 0 0 .079-.391.823.823 0 0 0-.079-.36 1.056 1.056 0 0 0-.171-.297.713.713 0 0 0-.282-.187.978.978 0 0 0-.343-.063c-.282 0-.5.106-.657.313 0-.344.051-.61.156-.797a.535.535 0 0 1 .485-.281c.125 0 .226.039.312.11a.53.53 0 0 1 .157.312zm-.86.657c.176 0 .301.043.376.125a.77.77 0 0 1 .14.234.634.634 0 0 1 .047.25.62.62 0 0 1-.047.25.837.837 0 0 1-.125.203.606.606 0 0 1-.187.125.456.456 0 0 1-.203.047.57.57 0 0 1-.235-.047A.527.527 0 0 1 .72-.39a.731.731 0 0 1-.125-.203.971.971 0 0 1-.031-.265c0-.082.007-.16.03-.235a.584.584 0 0 1 .547-.36zm0 0"/>
    </symbol>
    <symbol id="555-Synth-1_svg__j" overflow="visible"/>
    <symbol id="555-Synth-1_svg__k" overflow="visible"/>
    <symbol id="555-Synth-1_svg__l" overflow="visible"/>
    <symbol id="555-Synth-1_svg__t" overflow="visible"/>
    <symbol id="555-Synth-1_svg__u" overflow="visible"/>
    <symbol id="555-Synth-1_svg__ae" overflow="visible"/>
    <symbol id="555-Synth-1_svg__af" overflow="visible"/>
    <symbol id="555-Synth-1_svg__aw" overflow="visible"/>
    <symbol id="555-Synth-1_svg__v" overflow="visible"/>
    <symbol id="555-Synth-1_svg__w" overflow="visible"/>
    <symbol id="555-Synth-1_svg__x" overflow="visible"/>
    <symbol id="555-Synth-1_svg__y" overflow="visible"/>
    <symbol id="555-Synth-1_svg__z" overflow="visible"/>
    <symbol id="555-Synth-1_svg__A" overflow="visible"/>
    <symbol id="555-Synth-1_svg__B" overflow="visible"/>
    <symbol id="555-Synth-1_svg__C" overflow="visible"/>
    <symbol id="555-Synth-1_svg__D" overflow="visible"/>
    <symbol id="555-Synth-1_svg__G" overflow="visible"/>
    <symbol id="555-Synth-1_svg__H" overflow="visible">
      <path d="M2.14-1.625c-.042-.258-.14-.453-.296-.578-.149-.125-.352-.188-.61-.188a1.22 1.22 0 0 0-.437.079.714.714 0 0 0-.313.203 1.503 1.503 0 0 0-.25.437 1.552 1.552 0 0 0-.078.516c0 .199.024.383.078.547.063.156.149.293.266.406C.582-.11.68-.04.797 0c.125.05.265.078.422.078.57 0 .894-.312.968-.937h-.312a1.325 1.325 0 0 1-.047.218.33.33 0 0 1-.062.141.442.442 0 0 1-.22.234.638.638 0 0 1-.327.079.732.732 0 0 1-.313-.063.83.83 0 0 1-.25-.203A1.016 1.016 0 0 1 .5-.75a1.657 1.657 0 0 1-.047-.406c0-.145.016-.274.047-.39a1.09 1.09 0 0 1 .156-.313.568.568 0 0 1 .219-.204.847.847 0 0 1 .328-.062c.094 0 .176.016.25.047a.653.653 0 0 1 .203.094.69.69 0 0 1 .11.156.6.6 0 0 1 .062.203zm0 0"/>
    </symbol>
    <symbol id="555-Synth-1_svg__I" overflow="visible"/>
    <symbol id="555-Synth-1_svg__J" overflow="visible"/>
    <symbol id="555-Synth-1_svg__K" overflow="visible"/>
    <symbol id="555-Synth-1_svg__L" overflow="visible"/>
    <symbol id="555-Synth-1_svg__M" overflow="visible">
      <path d="M2.422-2.547a1.248 1.248 0 0 0-.125-.375.898.898 0 0 0-.203-.281 1.056 1.056 0 0 0-.297-.172 1.034 1.034 0 0 0-.36-.063 1.058 1.058 0 0 0-.921.485 1.7 1.7 0 0 0-.22.5c-.042.168-.07.32-.077.453a4.952 4.952 0 0 0-.016.422c0 .148.004.281.016.406.008.125.023.242.047.344.03.094.062.187.093.281.04.086.086.164.141.235A.89.89 0 0 0 .86 0c.144.07.312.11.5.11.163 0 .316-.032.452-.094.133-.051.254-.125.36-.22a1.02 1.02 0 0 0 .234-.374c.051-.145.082-.3.094-.469a1.585 1.585 0 0 0-.094-.437 1.036 1.036 0 0 0-.219-.344.973.973 0 0 0-.328-.234 1.112 1.112 0 0 0-.421-.079c-.344 0-.61.125-.797.375.007-.414.078-.734.203-.953a.64.64 0 0 1 .578-.344.49.49 0 0 1 .36.141c.1.086.175.211.218.375zm-1.031.781c.207 0 .351.055.437.157A.84.84 0 0 1 2-1.33c.031.095.05.2.063.313A1.427 1.427 0 0 1 2-.703a.721.721 0 0 1-.14.234.797.797 0 0 1-.22.156.76.76 0 0 1-.265.047.786.786 0 0 1-.281-.046.62.62 0 0 1-.219-.172.903.903 0 0 1-.156-.25.973.973 0 0 1 0-.594.588.588 0 0 1 .14-.234.721.721 0 0 1 .235-.141.68.68 0 0 1 .297-.063zm0 0"/>
    </symbol>
    <symbol id="555-Synth-1_svg__N" overflow="visible">
      <path d="M3.563 0l-.454-.375c.332-.363.5-.82.5-1.375 0-.27-.043-.52-.125-.75a1.612 1.612 0 0 0-.359-.578 1.462 1.462 0 0 0-.531-.375 1.932 1.932 0 0 0-.703-.156c-.25.011-.485.062-.704.156-.21.086-.39.21-.546.375a1.637 1.637 0 0 0-.344.578c-.074.23-.11.48-.11.75 0 .281.036.54.11.766.082.23.195.43.344.593.156.157.336.282.546.375a1.987 1.987 0 0 0 1.188.063 1.33 1.33 0 0 0 .453-.188l.5.422zm-1.22-1l-.234.281.36.297c-.106.055-.203.09-.297.11a1.07 1.07 0 0 1-.281.03c-.188 0-.36-.03-.516-.093a1.227 1.227 0 0 1-.406-.297 1.579 1.579 0 0 1-.25-.469A2.17 2.17 0 0 1 .64-1.75c0-.219.023-.414.078-.594.062-.176.144-.328.25-.453a1.28 1.28 0 0 1 .406-.297c.156-.07.328-.11.516-.11.187 0 .359.04.515.11.156.074.285.172.39.297.114.125.204.277.267.453.062.18.093.375.093.594 0 .23-.031.438-.094.625-.062.18-.164.34-.296.484zm0 0"/>
    </symbol>
    <symbol id="555-Synth-1_svg__O" overflow="visible">
      <path d="M2.313-3.438H.53l-.25 1.86h.39c.052-.05.099-.098.141-.14a.449.449 0 0 1 .141-.095.486.486 0 0 1 .156-.062c.063-.008.125-.016.188-.016a.81.81 0 0 1 .312.063.54.54 0 0 1 .235.156c.07.074.125.164.156.266.031.105.05.218.063.343A1.74 1.74 0 0 1 2-.719a.807.807 0 0 1-.203.297c-.094.106-.262.156-.5.156a.69.69 0 0 1-.453-.14C.727-.5.644-.645.594-.844H.172c.008.074.02.137.031.188l.063.172a.52.52 0 0 0 .109.187.888.888 0 0 0 .39.297c.165.07.348.11.547.11.176 0 .333-.032.47-.094a.984.984 0 0 0 .374-.235c.102-.113.18-.242.235-.39.062-.157.097-.329.109-.516a1.636 1.636 0 0 0-.094-.453.928.928 0 0 0-.234-.36.961.961 0 0 0-.344-.234 1.081 1.081 0 0 0-.453-.094 1.11 1.11 0 0 0-.328.047.945.945 0 0 0-.297.156l.125-.953h1.438zm0 0"/>
    </symbol>
    <symbol id="555-Synth-1_svg__P" overflow="visible"/>
    <symbol id="555-Synth-1_svg__Q" overflow="visible">
      <path d="M3.219-2.438c-.074-.394-.227-.687-.453-.874-.22-.196-.528-.297-.922-.297-.23 0-.446.043-.64.125a1.185 1.185 0 0 0-.47.328c-.168.18-.293.39-.375.64-.086.243-.125.5-.125.782 0 .304.04.574.125.812.094.242.223.45.391.625.133.137.29.234.469.297.176.07.379.11.61.11.862 0 1.347-.47 1.452-1.407h-.453a2.548 2.548 0 0 1-.078.328.803.803 0 0 1-.094.219.793.793 0 0 1-.328.36.997.997 0 0 1-.484.109c-.188 0-.356-.031-.5-.094a1.134 1.134 0 0 1-.36-.297 1.36 1.36 0 0 1-.218-.453 2.06 2.06 0 0 1-.079-.61c0-.226.02-.43.063-.609.05-.176.125-.328.219-.453a.96.96 0 0 1 .36-.297.986.986 0 0 1 .468-.11 1.222 1.222 0 0 1 .703.22.89.89 0 0 1 .156.218c.04.086.07.196.094.329zm0 0"/>
    </symbol>
    <symbol id="555-Synth-1_svg__R" overflow="visible">
      <path d="M1.906 0l1.235-3.547h-.485l-.984 3-1.047-3H.141L1.42 0zm0 0"/>
    </symbol>
    <symbol id="555-Synth-1_svg__S" overflow="visible">
      <path d="M1.078-1.578h.234c.47 0 .704.21.704.625 0 .219-.063.39-.188.515-.125.118-.297.172-.516.172-.242 0-.417-.054-.53-.171C.663-.564.597-.75.577-1H.156c.008.137.024.258.047.36a.61.61 0 0 0 .11.25.794.794 0 0 0 .374.374c.165.082.368.125.61.125.176 0 .332-.027.469-.078a.93.93 0 0 0 .375-.203.928.928 0 0 0 .234-.344 1.28 1.28 0 0 0 .078-.453.891.891 0 0 0-.14-.515c-.086-.133-.231-.235-.438-.297.32-.125.484-.364.484-.719a.968.968 0 0 0-.078-.39.763.763 0 0 0-.203-.297.973.973 0 0 0-.344-.188 1.408 1.408 0 0 0-.421-.063c-.356 0-.625.094-.813.282-.18.187-.266.465-.266.828h.422c0-.102.004-.188.016-.25a.56.56 0 0 1 .281-.406.992.992 0 0 1 .36-.094c.187.012.332.07.437.172a.55.55 0 0 1 .172.422.506.506 0 0 1-.078.296.406.406 0 0 1-.203.172.73.73 0 0 1-.11.032.64.64 0 0 1-.14.03 1.99 1.99 0 0 1-.313.016zm0 0"/>
    </symbol>
    <symbol id="555-Synth-1_svg__T" overflow="visible"/>
    <symbol id="555-Synth-1_svg__U" overflow="visible"/>
    <symbol id="555-Synth-1_svg__V" overflow="visible">
      <path d="M.438 0h1.359c.226 0 .43-.035.61-.11a1.26 1.26 0 0 0 .452-.359 1.58 1.58 0 0 0 .282-.562c.062-.219.093-.469.093-.75 0-.27-.03-.516-.093-.735a1.45 1.45 0 0 0-.282-.546 1.303 1.303 0 0 0-.453-.36 1.452 1.452 0 0 0-.61-.125H.438zM.89-.406v-2.735h.828c.351 0 .617.121.797.36.175.23.27.57.28 1.015-.01.45-.105.79-.28 1.016-.18.23-.446.344-.797.344zm0 0"/>
    </symbol>
    <symbol id="555-Synth-1_svg__W" overflow="visible"/>
    <symbol id="555-Synth-1_svg__X" overflow="visible">
      <path d="M2.89-2.5c0-.352-.09-.598-.265-.734a1.283 1.283 0 0 0-.484-.282 2.181 2.181 0 0 0-.547-.093c-.188.011-.36.043-.516.093-.156.043-.293.11-.406.204a.918.918 0 0 0-.25.328 1.042 1.042 0 0 0-.078.421c0 .438.226.715.687.829l.89.234c.22.055.38.133.485.234a.457.457 0 0 1 .156.344.589.589 0 0 1-.078.281.55.55 0 0 1-.171.204.85.85 0 0 1-.282.124 1.77 1.77 0 0 1-.375.032c-.187 0-.351-.02-.484-.063a.724.724 0 0 1-.328-.234.715.715 0 0 1-.14-.25.927.927 0 0 1-.048-.297H.234c0 .168.016.309.047.422a.841.841 0 0 0 .156.312c.126.168.286.293.485.375.195.082.43.125.703.125.219 0 .41-.027.578-.078.164-.039.305-.101.422-.187a.984.984 0 0 0 .156-.157c.051-.062.102-.144.156-.25a.991.991 0 0 0 .079-.406.843.843 0 0 0-.204-.562c-.124-.157-.308-.266-.546-.328l-.891-.235a3.942 3.942 0 0 1-.281-.094.798.798 0 0 1-.219-.14c-.063-.063-.09-.16-.078-.297 0-.082.015-.16.047-.234A.714.714 0 0 1 1-3.047a.582.582 0 0 1 .25-.125 1.11 1.11 0 0 1 .328-.047c.281 0 .492.063.64.188.157.125.239.304.25.531zm0 0"/>
    </symbol>
    <symbol id="555-Synth-1_svg__Y" overflow="visible"/>
    <symbol id="555-Synth-1_svg__Z" overflow="visible">
      <path d="M2.594-1.297h-1v-1H1.25v1H.234v.344H1.25v1h.344v-1h1zm0 0"/>
    </symbol>
    <symbol id="555-Synth-1_svg__aa" overflow="visible">
      <path d="M3.438-1.875h-1.47v.406h1.079v.094c0 .156-.031.305-.094.438a.928.928 0 0 1-.234.343 1.224 1.224 0 0 1-.344.235 1.16 1.16 0 0 1-.438.078c-.187 0-.359-.031-.515-.094a.995.995 0 0 1-.375-.266 1.092 1.092 0 0 1-.172-.218 1.8 1.8 0 0 1-.11-.266 2.81 2.81 0 0 1-.078-.313 2.888 2.888 0 0 1-.015-.328c0-.207.023-.398.078-.578.063-.176.145-.328.25-.453.113-.133.242-.234.39-.297.157-.07.329-.11.516-.11.133 0 .258.024.375.063.114.032.239.094.375.188.133.094.227.258.281.484h.454a1.37 1.37 0 0 0-.172-.469 1.656 1.656 0 0 0-.406-.437c-.188-.145-.485-.223-.891-.234-.438 0-.793.117-1.063.343a1.93 1.93 0 0 0-.28.313 1.892 1.892 0 0 0-.25.453c-.075.188-.11.445-.11.766 0 .273.035.523.11.75.081.23.19.43.327.593.145.157.317.282.516.375.195.082.422.125.672.125.226 0 .441-.043.64-.125.196-.093.383-.238.563-.437l.11.469h.28zm0 0"/>
    </symbol>
    <symbol id="555-Synth-1_svg__ab" overflow="visible"/>
    <symbol id="555-Synth-1_svg__ac" overflow="visible"/>
    <symbol id="555-Synth-1_svg__ak" overflow="visible"/>
    <symbol id="555-Synth-1_svg__al" overflow="visible"/>
    <symbol id="555-Synth-1_svg__am" overflow="visible"/>
    <symbol id="555-Synth-1_svg__an" overflow="visible"/>
    <symbol id="555-Synth-1_svg__ao" overflow="visible"/>
    <symbol id="555-Synth-1_svg__ap" overflow="visible"/>
    <symbol id="555-Synth-1_svg__aq" overflow="visible"/>
    <symbol id="555-Synth-1_svg__ar" overflow="visible"/>
    <symbol id="555-Synth-1_svg__as" overflow="visible"/>
    <symbol id="555-Synth-1_svg__at" overflow="visible"/>
    <symbol id="555-Synth-1_svg__au" overflow="visible"/>
  </defs>
  <use x="469.125" y="276.991" fill="gray" xlink:href="#555-Synth-1_svg__a"/>
  <use x="446.096" y="276.991" fill="gray" xlink:href="#555-Synth-1_svg__b"/>
  <use x="364.057" y="281.834" fill="gray" xlink:href="#555-Synth-1_svg__c"/>
  <use x="365.497" y="281.834" fill="gray" xlink:href="#555-Synth-1_svg__d"/>
  <use x="367.657" y="281.834" fill="gray" xlink:href="#555-Synth-1_svg__e"/>
  <use x="369.097" y="281.834" fill="gray" xlink:href="#555-Synth-1_svg__e"/>
  <use x="370.537" y="281.834" fill="gray" xlink:href="#555-Synth-1_svg__f"/>
  <use x="371.977" y="281.834" fill="gray" xlink:href="#555-Synth-1_svg__g"/>
  <use x="466.304" y="258.53" fill="gray" xlink:href="#555-Synth-1_svg__h"/>
  <use x="468.524" y="258.53" fill="gray" xlink:href="#555-Synth-1_svg__i"/>
  <use x="453.294" y="293.781" fill="gray" xlink:href="#555-Synth-1_svg__j"/>
  <use x="453.294" y="291.561" fill="gray" xlink:href="#555-Synth-1_svg__k"/>
  <use x="453.294" y="289.341" fill="gray" xlink:href="#555-Synth-1_svg__l"/>
  <use x="400.336" y="350.606" fill="gray" xlink:href="#555-Synth-1_svg__h"/>
  <use x="402.556" y="350.606" fill="gray" xlink:href="#555-Synth-1_svg__m"/>
  <use x="404.776" y="350.606" fill="gray" xlink:href="#555-Synth-1_svg__n"/>
  <use x="410.289" y="350.606" fill="gray" xlink:href="#555-Synth-1_svg__h"/>
  <use x="412.509" y="350.606" fill="gray" xlink:href="#555-Synth-1_svg__o"/>
  <use x="414.729" y="350.606" fill="gray" xlink:href="#555-Synth-1_svg__o"/>
  <use x="416.949" y="350.606" fill="gray" xlink:href="#555-Synth-1_svg__m"/>
  <use x="419.169" y="350.606" fill="gray" xlink:href="#555-Synth-1_svg__n"/>
  <use x="423.365" y="350.606" fill="gray" xlink:href="#555-Synth-1_svg__h"/>
  <use x="425.584" y="350.606" fill="gray" xlink:href="#555-Synth-1_svg__p"/>
  <use x="427.804" y="350.606" fill="gray" xlink:href="#555-Synth-1_svg__n"/>
  <use x="430.439" y="350.606" fill="gray" xlink:href="#555-Synth-1_svg__h"/>
  <use x="432.659" y="350.606" fill="gray" xlink:href="#555-Synth-1_svg__o"/>
  <use x="434.879" y="350.606" fill="gray" xlink:href="#555-Synth-1_svg__o"/>
  <use x="437.099" y="350.606" fill="gray" xlink:href="#555-Synth-1_svg__p"/>
  <use x="439.319" y="350.606" fill="gray" xlink:href="#555-Synth-1_svg__n"/>
  <use x="422.946" y="369.021" fill="gray" xlink:href="#555-Synth-1_svg__q"/>
  <use x="426.066" y="369.021" fill="gray" xlink:href="#555-Synth-1_svg__r"/>
  <use x="428.946" y="369.021" fill="gray" xlink:href="#555-Synth-1_svg__s"/>
  <use x="298.025" y="275.794" fill="gray" xlink:href="#555-Synth-1_svg__h"/>
  <use x="300.245" y="275.794" fill="gray" xlink:href="#555-Synth-1_svg__o"/>
  <use x="302.465" y="275.794" fill="gray" xlink:href="#555-Synth-1_svg__o"/>
  <use x="304.685" y="275.794" fill="gray" xlink:href="#555-Synth-1_svg__m"/>
  <use x="306.905" y="275.794" fill="gray" xlink:href="#555-Synth-1_svg__n"/>
  <use x="307.803" y="299.964" fill="gray" xlink:href="#555-Synth-1_svg__q"/>
  <use x="310.924" y="299.964" fill="gray" xlink:href="#555-Synth-1_svg__r"/>
  <use x="313.803" y="299.964" fill="gray" xlink:href="#555-Synth-1_svg__s"/>
  <use x="342.468" y="251.218" fill="gray" xlink:href="#555-Synth-1_svg__t"/>
  <use x="342.468" y="248.518" fill="gray" xlink:href="#555-Synth-1_svg__u"/>
  <use x="342.468" y="245.638" fill="gray" xlink:href="#555-Synth-1_svg__u"/>
  <use x="454.001" y="336.174" fill="gray" xlink:href="#555-Synth-1_svg__v"/>
  <use x="454.001" y="334.434" fill="gray" xlink:href="#555-Synth-1_svg__w"/>
  <use x="454.001" y="332.994" fill="gray" xlink:href="#555-Synth-1_svg__x"/>
  <use x="454.001" y="332.154" fill="gray" xlink:href="#555-Synth-1_svg__v"/>
  <use x="454.001" y="330.414" fill="gray" xlink:href="#555-Synth-1_svg__y"/>
  <use x="454.001" y="327.954" fill="gray" xlink:href="#555-Synth-1_svg__x"/>
  <use x="454.001" y="327.114" fill="gray" xlink:href="#555-Synth-1_svg__z"/>
  <use x="454.001" y="325.674" fill="gray" xlink:href="#555-Synth-1_svg__A"/>
  <use x="454.001" y="323.934" fill="gray" xlink:href="#555-Synth-1_svg__x"/>
  <use x="454.001" y="323.094" fill="gray" xlink:href="#555-Synth-1_svg__B"/>
  <use x="454.001" y="321.654" fill="gray" xlink:href="#555-Synth-1_svg__C"/>
  <use x="454.001" y="320.094" fill="gray" xlink:href="#555-Synth-1_svg__x"/>
  <use x="454.001" y="319.254" fill="gray" xlink:href="#555-Synth-1_svg__D"/>
  <use x="535.45" y="242.702" fill="gray" xlink:href="#555-Synth-1_svg__E"/>
  <use x="538.15" y="242.702" fill="gray" xlink:href="#555-Synth-1_svg__F"/>
  <use x="541.03" y="242.702" fill="gray" xlink:href="#555-Synth-1_svg__F"/>
  <use x="525.431" y="272.917" fill="gray" xlink:href="#555-Synth-1_svg__h"/>
  <use x="527.651" y="272.917" fill="gray" xlink:href="#555-Synth-1_svg__o"/>
  <use x="529.871" y="272.917" fill="gray" xlink:href="#555-Synth-1_svg__o"/>
  <use x="532.091" y="272.917" fill="gray" xlink:href="#555-Synth-1_svg__m"/>
  <use x="534.311" y="272.917" fill="gray" xlink:href="#555-Synth-1_svg__n"/>
  <use x="535.21" y="297.087" fill="gray" xlink:href="#555-Synth-1_svg__q"/>
  <use x="538.33" y="297.087" fill="gray" xlink:href="#555-Synth-1_svg__r"/>
  <use x="541.21" y="297.087" fill="gray" xlink:href="#555-Synth-1_svg__s"/>
  <use x="364.058" y="228.027" fill="gray" xlink:href="#555-Synth-1_svg__G"/>
  <use x="364.958" y="228.027" fill="gray" xlink:href="#555-Synth-1_svg__H"/>
  <use x="367.298" y="228.027" fill="gray" xlink:href="#555-Synth-1_svg__I"/>
  <use x="369.098" y="228.027" fill="gray" xlink:href="#555-Synth-1_svg__J"/>
  <use x="369.354" y="237.235" fill="gray" xlink:href="#555-Synth-1_svg__K"/>
  <use x="372.294" y="237.235" fill="gray" xlink:href="#555-Synth-1_svg__L"/>
  <use x="360.552" y="234.703" fill="gray" xlink:href="#555-Synth-1_svg__M"/>
  <use x="389.524" y="237.262" fill="gray" xlink:href="#555-Synth-1_svg__N"/>
  <use x="399.407" y="234.703" fill="gray" xlink:href="#555-Synth-1_svg__O"/>
  <use x="369.354" y="248.744" fill="gray" xlink:href="#555-Synth-1_svg__L"/>
  <use x="356.061" y="246.212" fill="gray" xlink:href="#555-Synth-1_svg__P"/>
  <use x="369.354" y="260.254" fill="gray" xlink:href="#555-Synth-1_svg__Q"/>
  <use x="372.834" y="260.254" fill="gray" xlink:href="#555-Synth-1_svg__R"/>
  <use x="360.552" y="257.722" fill="gray" xlink:href="#555-Synth-1_svg__S"/>
  <use x="383.404" y="260.281" fill="gray" xlink:href="#555-Synth-1_svg__K"/>
  <use x="386.344" y="260.281" fill="gray" xlink:href="#555-Synth-1_svg__T"/>
  <use x="389.824" y="260.281" fill="gray" xlink:href="#555-Synth-1_svg__L"/>
  <use x="399.407" y="257.722" fill="gray" xlink:href="#555-Synth-1_svg__U"/>
  <use x="385.204" y="248.771" fill="gray" xlink:href="#555-Synth-1_svg__V"/>
  <use x="388.684" y="248.771" fill="gray" xlink:href="#555-Synth-1_svg__W"/>
  <use x="390.064" y="248.771" fill="gray" xlink:href="#555-Synth-1_svg__X"/>
  <use x="399.407" y="246.212" fill="gray" xlink:href="#555-Synth-1_svg__Y"/>
  <use x="387.244" y="271.791" fill="gray" xlink:href="#555-Synth-1_svg__R"/>
  <use x="390.484" y="271.791" fill="gray" xlink:href="#555-Synth-1_svg__Z"/>
  <use x="399.407" y="269.231" fill="gray" xlink:href="#555-Synth-1_svg__Y"/>
  <use x="402.107" y="269.231" fill="gray" xlink:href="#555-Synth-1_svg__P"/>
  <use x="369.354" y="271.763" fill="gray" xlink:href="#555-Synth-1_svg__aa"/>
  <use x="373.134" y="271.763" fill="gray" xlink:href="#555-Synth-1_svg__ab"/>
  <use x="376.614" y="271.763" fill="gray" xlink:href="#555-Synth-1_svg__V"/>
  <use x="360.552" y="269.231" fill="gray" xlink:href="#555-Synth-1_svg__ac"/>
  <use x="465.465" y="249.895" fill="gray" xlink:href="#555-Synth-1_svg__ad"/>
  <use x="468.345" y="249.895" fill="gray" xlink:href="#555-Synth-1_svg__h"/>
  <use x="461.928" y="292.401" fill="gray" xlink:href="#555-Synth-1_svg__ae"/>
  <use x="461.928" y="289.521" fill="gray" xlink:href="#555-Synth-1_svg__af"/>
  <use x="402.136" y="341.971" fill="gray" xlink:href="#555-Synth-1_svg__F"/>
  <use x="405.016" y="341.971" fill="gray" xlink:href="#555-Synth-1_svg__h"/>
  <use x="416.529" y="341.971" fill="gray" xlink:href="#555-Synth-1_svg__F"/>
  <use x="419.409" y="341.971" fill="gray" xlink:href="#555-Synth-1_svg__ag"/>
  <use x="425.165" y="341.971" fill="gray" xlink:href="#555-Synth-1_svg__F"/>
  <use x="428.045" y="341.971" fill="gray" xlink:href="#555-Synth-1_svg__ah"/>
  <use x="436.679" y="341.971" fill="gray" xlink:href="#555-Synth-1_svg__F"/>
  <use x="439.559" y="341.971" fill="gray" xlink:href="#555-Synth-1_svg__ai"/>
  <use x="304.265" y="267.159" fill="gray" xlink:href="#555-Synth-1_svg__F"/>
  <use x="307.145" y="267.159" fill="gray" xlink:href="#555-Synth-1_svg__aj"/>
  <use x="458.451" y="315.186" fill="gray" xlink:href="#555-Synth-1_svg__ak"/>
  <use x="458.451" y="312.846" fill="gray" xlink:href="#555-Synth-1_svg__al"/>
  <use x="458.451" y="311.046" fill="gray" xlink:href="#555-Synth-1_svg__am"/>
  <use x="458.451" y="309.246" fill="gray" xlink:href="#555-Synth-1_svg__an"/>
  <use x="458.451" y="306.726" fill="gray" xlink:href="#555-Synth-1_svg__al"/>
  <use x="458.451" y="304.926" fill="gray" xlink:href="#555-Synth-1_svg__ao"/>
  <use x="429.458" y="303.759" fill="gray" xlink:href="#555-Synth-1_svg__ap"/>
  <use x="429.458" y="300.519" fill="gray" xlink:href="#555-Synth-1_svg__aq"/>
  <use x="435.215" y="328.575" fill="gray" xlink:href="#555-Synth-1_svg__ap"/>
  <use x="435.215" y="325.335" fill="gray" xlink:href="#555-Synth-1_svg__ar"/>
  <use x="446.729" y="328.575" fill="gray" xlink:href="#555-Synth-1_svg__ap"/>
  <use x="446.729" y="325.335" fill="gray" xlink:href="#555-Synth-1_svg__as"/>
  <use x="412.187" y="328.575" fill="gray" xlink:href="#555-Synth-1_svg__ap"/>
  <use x="412.187" y="325.335" fill="gray" xlink:href="#555-Synth-1_svg__at"/>
  <use x="423.701" y="328.575" fill="gray" xlink:href="#555-Synth-1_svg__ap"/>
  <use x="423.701" y="325.335" fill="gray" xlink:href="#555-Synth-1_svg__au"/>
  <use x="420.19" y="274.296" fill="gray" xlink:href="#555-Synth-1_svg__t"/>
  <use x="420.19" y="271.596" fill="gray" xlink:href="#555-Synth-1_svg__u"/>
  <use x="420.19" y="268.716" fill="gray" xlink:href="#555-Synth-1_svg__u"/>
  <use x="348.103" y="305.719" fill="gray" xlink:href="#555-Synth-1_svg__q"/>
  <use x="351.223" y="305.719" fill="gray" xlink:href="#555-Synth-1_svg__r"/>
  <use x="354.103" y="305.719" fill="gray" xlink:href="#555-Synth-1_svg__s"/>
  <use x="531.671" y="264.282" fill="gray" xlink:href="#555-Synth-1_svg__F"/>
  <use x="534.551" y="264.282" fill="gray" xlink:href="#555-Synth-1_svg__av"/>
  <path fill="none" stroke="maroon" stroke-linecap="round" stroke-linejoin="round" stroke-miterlimit="10" stroke-width=".96" d="M364.078 275.82h34.5m0 0v-46.082m0 0h-34.5m0 0v46.082"/>
  <path fill="none" stroke="maroon" stroke-linecap="round" stroke-linejoin="round" stroke-miterlimit="10" stroke-width=".36" d="M358.32 235.5h5.758m40.262 0h-5.762m-34.558 11.52a2.22 2.22 0 1 1-4.441 0 2.22 2.22 0 0 1 4.44 0zm-5.7 0h1.258m-1.258 11.52h5.758m40.262 0h-5.762m5.762-11.52h-5.762m5.762 23.039h-5.762m-40.258 0h5.758m109.382-28.797v5.758m0 17.28v-5.76"/>
  <path fill="none" stroke="maroon" stroke-linecap="round" stroke-linejoin="round" stroke-miterlimit="10" stroke-width=".6" d="M475.441 258.54v-11.52m-4.019 0v11.52m4.019-11.52h-4.02m4.02 11.52h-4.02m-9.48 21.3h-11.52m.001 3.422h11.52"/>
  <path fill="none" stroke="maroon" stroke-linecap="round" stroke-linejoin="round" stroke-miterlimit="10" stroke-width=".36" d="M456.18 287.281v-1.98"/>
  <path fill="none" stroke="maroon" stroke-linecap="round" stroke-linejoin="round" stroke-miterlimit="10" stroke-width=".6" d="M461.941 283.262v-3.422m-11.519 0v3.422"/>
  <path fill="none" stroke="maroon" stroke-linecap="round" stroke-linejoin="round" stroke-miterlimit="10" stroke-width=".36" d="M450.422 275.82h4.617m.001 0l-2.34-1.199m2.34 1.199l-2.34 1.14m-8.04 4.56h5.762m17.278 0h-5.759m-5.761 3.78l3.96-8.038m-1.019-.602l2.578-2.34m.001 0l-.481 3.36m-2.098-1.02l2.098 1.02m-51.117 72.898v-4.02m0-7.437v4.02"/>
  <path fill="maroon" stroke="maroon" stroke-linecap="round" stroke-linejoin="round" stroke-miterlimit="10" stroke-width=".12" d="M406.078 346.621h8.043v-1.2h-8.043zm0-2.34h8.043v-1.203h-8.043zm0 0"/>
  <path fill="none" stroke="maroon" stroke-linecap="round" stroke-linejoin="round" stroke-miterlimit="10" stroke-width=".36" d="M424.5 350.578v-4.02m0-7.437v4.02"/>
  <path fill="maroon" stroke="maroon" stroke-linecap="round" stroke-linejoin="round" stroke-miterlimit="10" stroke-width=".12" d="M420.48 346.621h8.04v-1.2h-8.04zm0-2.34h8.04v-1.203h-8.04zm0 0"/>
  <use x="433.862" y="341.971" fill="maroon" xlink:href="#555-Synth-1_svg__aw"/>
  <path fill="none" stroke="maroon" stroke-linecap="round" stroke-linejoin="round" stroke-miterlimit="10" stroke-width=".36" d="M436.02 350.578v-4.02m0-7.437v3.719"/>
  <path fill="maroon" stroke="maroon" stroke-linecap="round" stroke-linejoin="round" stroke-miterlimit="10" stroke-width=".12" d="M431.398 346.86h9.243v-1.442h-9.243zm0 0"/>
  <path fill="none" stroke="maroon" stroke-linecap="round" stroke-linejoin="round" stroke-miterlimit="10" stroke-width=".3" d="M431.578 342.84v1.441m0 0h8.883m-.001 0v-1.441m0 0h-4.44m0 0h-4.442"/>
  <use x="445.377" y="341.971" fill="maroon" xlink:href="#555-Synth-1_svg__aw"/>
  <path fill="none" stroke="maroon" stroke-linecap="round" stroke-linejoin="round" stroke-miterlimit="10" stroke-width=".36" d="M447.54 350.578v-4.02m0-7.437v3.719"/>
  <path fill="maroon" stroke="maroon" stroke-linecap="round" stroke-linejoin="round" stroke-miterlimit="10" stroke-width=".12" d="M442.922 346.86h9.238v-1.442h-9.238zm0 0"/>
  <path fill="none" stroke="maroon" stroke-linecap="round" stroke-linejoin="round" stroke-miterlimit="10" stroke-width=".3" d="M443.102 342.84v1.441m0 0h8.878m0 0v-1.441m0 0h-4.44m0 0h-4.438"/>
  <path fill="none" stroke="maroon" stroke-linecap="round" stroke-linejoin="round" stroke-miterlimit="10" stroke-width=".6" d="M423.66 362.102h7.442"/>
  <path fill="none" stroke="maroon" stroke-linecap="round" stroke-linejoin="round" stroke-miterlimit="10" stroke-width=".36" d="M427.379 356.34v5.762"/>
  <path fill="none" stroke="maroon" stroke-linecap="round" stroke-linejoin="round" stroke-miterlimit="10" stroke-width=".6" d="M425.102 363.238h4.558m-3.12 1.203h1.679"/>
  <path fill="none" stroke="maroon" stroke-linecap="round" stroke-linejoin="round" stroke-miterlimit="10" stroke-width=".36" d="M312.238 275.82v-4.082m0-7.438v4.02"/>
  <path fill="maroon" stroke="maroon" stroke-linecap="round" stroke-linejoin="round" stroke-miterlimit="10" stroke-width=".12" d="M308.219 271.8h8.043v-1.198h-8.043zm0-2.34h8.043v-1.198h-8.043zm0 0"/>
  <path fill="none" stroke="maroon" stroke-linecap="round" stroke-linejoin="round" stroke-miterlimit="10" stroke-width=".6" d="M308.52 293.04h7.44"/>
  <path fill="none" stroke="maroon" stroke-linecap="round" stroke-linejoin="round" stroke-miterlimit="10" stroke-width=".36" d="M312.238 287.281v5.758"/>
  <path fill="none" stroke="maroon" stroke-linecap="round" stroke-linejoin="round" stroke-miterlimit="10" stroke-width=".6" d="M309.96 294.18h4.56m-3.122 1.199h1.68m35.16-51.239l-4.316 2.88m0 0l4.316 2.878"/>
  <path fill="none" stroke="maroon" stroke-linecap="round" stroke-linejoin="round" stroke-miterlimit="10" stroke-width=".36" d="M349.68 247.02h-5.758"/>
  <path fill="none" stroke="maroon" stroke-linecap="round" stroke-linejoin="round" stroke-miterlimit="10" stroke-width=".6" d="M453.3 317.52v-4.32"/>
  <path fill="none" stroke="maroon" stroke-linecap="round" stroke-linejoin="round" stroke-miterlimit="10" stroke-width=".36" d="M453.3 313.2h-4.32"/>
  <path fill="none" stroke="maroon" stroke-linecap="round" stroke-linejoin="round" stroke-miterlimit="10" stroke-width=".6" d="M453.3 313.2v-4.321"/>
  <path fill="none" stroke="maroon" stroke-linecap="round" stroke-linejoin="round" stroke-miterlimit="10" stroke-width=".36" d="M447.54 313.2h-1.142m-2.339 0h-.84"/>
  <path fill="none" stroke="maroon" stroke-linecap="round" stroke-linejoin="round" stroke-miterlimit="10" stroke-width=".6" d="M430.262 304.559l15.238 18.12m-8.04-.839h-1.44m-1.442 0h1.442m0 0v1.441m11.52-1.441h-1.438m1.438 0v1.441"/>
  <path fill="none" stroke="maroon" stroke-linecap="round" stroke-linejoin="round" stroke-miterlimit="10" stroke-width=".36" d="M441.781 313.2h.297m4.32 0l-1.136-1.74m0 0l-1.203 1.74m-13.797-14.4v5.759m5.758 23.043v-5.762m11.52 5.762v-5.762"/>
  <path fill="none" stroke="maroon" stroke-linecap="round" stroke-linejoin="round" stroke-miterlimit="10" stroke-width=".6" d="M414.422 321.84h-1.442m0 0v1.441"/>
  <path fill="none" stroke="maroon" stroke-linecap="round" stroke-linejoin="round" stroke-miterlimit="10" stroke-width=".36" d="M412.98 327.602v-5.762"/>
  <path fill="none" stroke="maroon" stroke-linecap="round" stroke-linejoin="round" stroke-miterlimit="10" stroke-width=".6" d="M425.941 321.84H424.5m-1.441 0h1.441m0 0v1.441"/>
  <path fill="none" stroke="maroon" stroke-linecap="round" stroke-linejoin="round" stroke-miterlimit="10" stroke-width=".36" d="M424.5 327.602v-5.762"/>
  <path fill="none" stroke="maroon" stroke-linecap="round" stroke-linejoin="round" stroke-miterlimit="10" stroke-width=".6" d="M411.54 272.941l4.32-2.882m0 0l-4.32-2.88"/>
  <path fill="none" stroke="maroon" stroke-linecap="round" stroke-linejoin="round" stroke-miterlimit="10" stroke-width=".36" d="M410.102 270.059h5.757"/>
  <path fill="none" stroke="maroon" stroke-linecap="round" stroke-linejoin="round" stroke-miterlimit="10" stroke-width=".6" d="M348.781 298.8h7.5"/>
  <path fill="none" stroke="maroon" stroke-linecap="round" stroke-linejoin="round" stroke-miterlimit="10" stroke-width=".36" d="M352.559 293.04v5.76"/>
  <path fill="none" stroke="maroon" stroke-linecap="round" stroke-linejoin="round" stroke-miterlimit="10" stroke-width=".6" d="M350.219 299.941h4.62m-3.179 1.199h1.738m189.122-52.68l-2.88-4.32m0 0l-2.878 4.32"/>
  <path fill="none" stroke="maroon" stroke-linecap="round" stroke-linejoin="round" stroke-miterlimit="10" stroke-width=".36" d="M539.64 249.898v-5.757m0 28.8v-4.082m0-7.437v4.02"/>
  <path fill="maroon" stroke="maroon" stroke-linecap="round" stroke-linejoin="round" stroke-miterlimit="10" stroke-width=".12" d="M535.621 268.922h8.04v-1.203h-8.04zm0-2.344h8.04v-1.2h-8.04zm0 0"/>
  <path fill="none" stroke="maroon" stroke-linecap="round" stroke-linejoin="round" stroke-miterlimit="10" stroke-width=".6" d="M535.922 290.16h7.5"/>
  <path fill="none" stroke="maroon" stroke-linecap="round" stroke-linejoin="round" stroke-miterlimit="10" stroke-width=".36" d="M539.64 284.398v5.762"/>
  <path fill="none" stroke="maroon" stroke-linecap="round" stroke-linejoin="round" stroke-miterlimit="10" stroke-width=".6" d="M537.36 291.3h4.62m-3.18 1.2h1.74"/>
  <path fill="none" stroke="green" stroke-linecap="round" stroke-linejoin="round" stroke-miterlimit="10" stroke-width=".36" d="M404.34 258.54h25.922m0 0v22.98m0 0h14.398m-14.398 17.28v-17.28"/>
  <path fill="green" fill-rule="evenodd" d="M431.398 281.52a1.139 1.139 0 1 1-2.277 0 1.14 1.14 0 1 1 2.277 0"/>
  <path fill="none" stroke="green" stroke-linecap="round" stroke-linejoin="round" stroke-miterlimit="10" stroke-width=".12" d="M431.398 281.52a1.139 1.139 0 1 1-2.277 0 1.14 1.14 0 1 1 2.277 0zm0 0"/>
  <path fill="none" stroke="green" stroke-linecap="round" stroke-linejoin="round" stroke-miterlimit="10" stroke-width=".36" d="M358.32 235.5h-23.039m0 0v46.02m0 0h94.98m25.919 5.761v11.52m0-.001h17.28m0 0v-34.5m-69.12-28.8h69.12m0 0v5.762m-63.358 97.859h2.878m0 0v-11.52m11.52.001v11.52m11.52-11.52v11.52m11.52-11.52v11.52m-20.161 17.218v-2.88m0 0H424.5m0 0h-14.398m0 0v-2.882m14.398 0v2.883"/>
  <path fill="green" fill-rule="evenodd" d="M425.64 353.46c0 .63-.511 1.142-1.14 1.142-.629 0-1.14-.512-1.14-1.141a1.14 1.14 0 1 1 2.28 0"/>
  <path fill="none" stroke="green" stroke-linecap="round" stroke-linejoin="round" stroke-miterlimit="10" stroke-width=".12" d="M425.64 353.46c0 .63-.511 1.142-1.14 1.142-.629 0-1.14-.512-1.14-1.141a1.14 1.14 0 1 1 2.28 0zm0 0"/>
  <path fill="none" stroke="green" stroke-linecap="round" stroke-linejoin="round" stroke-miterlimit="10" stroke-width=".36" d="M436.02 350.578v2.883m0-.001h-8.641"/>
  <path fill="green" fill-rule="evenodd" d="M428.52 353.46a1.14 1.14 0 1 1-2.282 0c0-.632.512-1.14 1.14-1.14.634 0 1.142.508 1.142 1.14"/>
  <path fill="none" stroke="green" stroke-linecap="round" stroke-linejoin="round" stroke-miterlimit="10" stroke-width=".12" d="M428.52 353.46a1.14 1.14 0 1 1-2.282 0c0-.632.512-1.14 1.14-1.14.634 0 1.142.508 1.142 1.14zm0 0"/>
  <path fill="none" stroke="green" stroke-linecap="round" stroke-linejoin="round" stroke-miterlimit="10" stroke-width=".36" d="M447.54 350.578v2.883m0-.001h-11.52"/>
  <path fill="green" fill-rule="evenodd" d="M437.16 353.46c0 .63-.512 1.142-1.14 1.142-.63 0-1.141-.512-1.141-1.141a1.14 1.14 0 1 1 2.281 0"/>
  <path fill="none" stroke="green" stroke-linecap="round" stroke-linejoin="round" stroke-miterlimit="10" stroke-width=".12" d="M437.16 353.46c0 .63-.512 1.142-1.14 1.142-.63 0-1.141-.512-1.141-1.141a1.14 1.14 0 1 1 2.281 0zm0 0"/>
  <path fill="none" stroke="green" stroke-linecap="round" stroke-linejoin="round" stroke-miterlimit="10" stroke-width=".36" d="M312.238 287.281v-11.46m46.082-5.762h-5.761m0 0v22.98m187.081-8.641v-11.457M349.68 247.02h8.64m51.782 23.039h-5.762m135.3-8.637v-11.524m-181.32 8.642h-46.082m0 0v5.76"/>
</svg>
