<svg xmlns="http://www.w3.org/2000/svg" xmlns:xlink="http://www.w3.org/1999/xlink" width="842pt" height="595pt" viewBox="0 0 842 595"><defs><symbol overflow="visible" id="a"><path d="M0-1.86v1.423h-.297V-.97H-2.25v.531h-.266c0-.195-.03-.347-.093-.453-.051-.093-.157-.144-.313-.156v-.297h2.625v-.515zm0 0"/></symbol><symbol overflow="visible" id="b"><path d="M0-2.39v.437L-2.516-.656H0v.36h-2.922v-.548l2.313-1.172h-2.313v-.375zm0 0"/></symbol><symbol overflow="visible" id="c"><path d="M-1-2.094v.344h1v.375h-1v1.297h-.422l-1.5-1.313v-.359h1.61v-.344zm-.313.719h-1.14l1.14.984zm0 0"/></symbol><symbol overflow="visible" id="d"><path d="M-2.234-1.594a.426.426 0 0 0-.329.14.46.46 0 0 0-.14.36c0 .149.043.262.125.344.074.094.18.14.312.14.094 0 .18-.019.25-.062a.724.724 0 0 0 .172-.219.509.509 0 0 0 .094-.187.822.822 0 0 0 .094-.219.699.699 0 0 0-.266-.234.796.796 0 0 0-.312-.063zm1.453-.047a.599.599 0 0 0-.281.063.934.934 0 0 0-.22.281l-.077.172a3.457 3.457 0 0 0-.094.25c.074.117.156.2.25.25a.873.873 0 0 0 .375.078.555.555 0 0 0 .437-.156.494.494 0 0 0 .172-.39.55.55 0 0 0-.156-.407c-.094-.094-.227-.14-.406-.14zm.844.547c0 .149-.024.278-.063.39a.722.722 0 0 1-.188.313.598.598 0 0 1-.28.188.883.883 0 0 1-.344.062.8.8 0 0 1-.438-.125.947.947 0 0 1-.313-.375h-.015a.788.788 0 0 1-.266.329.703.703 0 0 1-.375.093.696.696 0 0 1-.547-.25.917.917 0 0 1-.218-.625c0-.258.07-.472.203-.64a.706.706 0 0 1 .531-.235c.137 0 .266.04.39.11a.658.658 0 0 1 .298.328h.015c.086-.164.184-.297.297-.39a.742.742 0 0 1 .438-.126c.25 0 .46.09.625.266.167.187.25.418.25.687zm0 0"/></symbol><symbol overflow="visible" id="z"><path d="M-1.453-2.594c.262 0 .5.055.719.156.218.106.386.25.5.438.093.148.156.297.187.453.031.149.047.34.047.578v.672h-2.922v-.656c0-.281.024-.5.063-.656.043-.157.101-.286.171-.391.126-.188.293-.332.5-.438.211-.101.454-.156.735-.156zm-.016.406c-.218 0-.41.04-.578.11a.813.813 0 0 0-.36.328c-.062.105-.109.215-.14.328a1.832 1.832 0 0 0-.047.438v.296h2.266v-.296c0-.164-.016-.317-.047-.454a1.016 1.016 0 0 0-.516-.656 1.558 1.558 0 0 0-.578-.094zm0 0"/></symbol><symbol overflow="visible" id="G"><path d="M0-1.984v1.687h-2.922v-.39h2.578v-1.297zm0 0"/></symbol><symbol overflow="visible" id="H"><path d="M-1.125-2.61v.985h1v.328h-1v.984h-.313v-.984h-.984v-.328h.985v-.984zm0 0"/></symbol><symbol overflow="visible" id="e"><path d="M1.86 0H.436v-.297H.97V-2.25H.438v-.266c.195 0 .347-.03.453-.093.093-.051.144-.157.156-.313h.297v2.625h.515zm0 0"/></symbol><symbol overflow="visible" id="f"><path d="M2.031-1.453c0 .523-.078.902-.234 1.14-.149.25-.383.376-.703.376C.77.063.535-.064.39-.314.234-.563.156-.94.156-1.452c0-.531.078-.914.235-1.156.156-.25.39-.375.703-.375.32 0 .554.132.703.39.156.25.234.633.234 1.14zm-.5.875a2.32 2.32 0 0 0 .078-.36 9.314 9.314 0 0 0 0-1.046 2.427 2.427 0 0 0-.078-.36.573.573 0 0 0-.172-.234.414.414 0 0 0-.265-.078.446.446 0 0 0-.266.078.512.512 0 0 0-.172.234 1.997 1.997 0 0 0-.078.375 6.995 6.995 0 0 0-.015.516c0 .2.003.371.015.516.008.136.035.257.078.359.04.105.098.183.172.234.063.055.149.078.266.078a.436.436 0 0 0 .265-.078.525.525 0 0 0 .172-.234zm0 0"/></symbol><symbol overflow="visible" id="g"><path d="M2.078 0h-.484L.78-1.063l-.14.141V0H.266v-3.047H.64v1.781l.859-.921h.453l-.89.906zm0 0"/></symbol><symbol overflow="visible" id="h"><path d="M2.063-.953c0 .156-.028.297-.079.422-.054.125-.12.23-.203.312a.723.723 0 0 1-.297.203.78.78 0 0 1-.343.079C1.004.063.883.038.78 0a.891.891 0 0 1-.297-.203A1.194 1.194 0 0 1 .25-.625a2.253 2.253 0 0 1-.078-.656c0-.25.023-.477.078-.688.05-.207.129-.383.234-.531.102-.145.239-.258.407-.344.164-.082.359-.125.578-.125h.187c.063.012.114.024.157.031v.376h-.016a.676.676 0 0 0-.156-.047.87.87 0 0 0-.22-.032.784.784 0 0 0-.593.25c-.148.168-.234.414-.265.735.093-.063.19-.114.296-.157a.973.973 0 0 1 .313-.046c.113 0 .21.011.297.03a.792.792 0 0 1 .515.438c.051.125.079.274.079.438zm-.407.015a.861.861 0 0 0-.047-.296.5.5 0 0 0-.14-.204.735.735 0 0 0-.172-.093c-.074-.008-.14-.016-.203-.016a.745.745 0 0 0-.266.047 1.272 1.272 0 0 0-.265.125v.172c0 .21.019.375.062.5.04.125.086.219.14.281.051.063.11.106.172.125a.326.326 0 0 0 .204.031c.156 0 .28-.05.375-.156.093-.113.14-.285.14-.516zm0 0"/></symbol><symbol overflow="visible" id="i"><path d="M.844 0H.375v-.563h.469zm0 0"/></symbol><symbol overflow="visible" id="j"><path d="M1.594-2.234a.426.426 0 0 0-.14-.329.46.46 0 0 0-.36-.14.464.464 0 0 0-.344.125.378.378 0 0 0-.14.312c0 .094.019.18.062.25.05.063.125.121.219.172a.509.509 0 0 0 .187.094c.07.043.145.074.219.094a.699.699 0 0 0 .234-.266.796.796 0 0 0 .063-.312zM1.64-.781a.599.599 0 0 0-.063-.281.934.934 0 0 0-.281-.22l-.172-.077a3.457 3.457 0 0 0-.25-.094.694.694 0 0 0-.25.25.873.873 0 0 0-.078.375.555.555 0 0 0 .156.437.494.494 0 0 0 .39.172c.165 0 .302-.05.407-.156.094-.094.14-.227.14-.406zm-.547.844C.945.063.816.038.704 0A.722.722 0 0 1 .39-.188a.598.598 0 0 1-.188-.28.883.883 0 0 1-.062-.344.8.8 0 0 1 .125-.438.947.947 0 0 1 .375-.313v-.015a.788.788 0 0 1-.329-.266.703.703 0 0 1-.093-.375c0-.219.082-.398.25-.547a.917.917 0 0 1 .625-.218c.258 0 .472.07.64.203a.706.706 0 0 1 .235.531c0 .137-.04.266-.11.39a.658.658 0 0 1-.328.298v.015c.164.086.297.184.39.297a.742.742 0 0 1 .126.438c0 .25-.09.46-.266.625a.994.994 0 0 1-.687.25zm0 0"/></symbol><symbol overflow="visible" id="k"><path d="M1.984-.922c0 .137-.023.266-.062.39a1.304 1.304 0 0 1-.203.313.757.757 0 0 1-.297.203c-.125.051-.262.079-.406.079C.867.063.726.046.594.015A1.216 1.216 0 0 1 .25-.11v-.407h.016c.03.024.078.047.14.079.051.023.114.046.188.078.07.023.14.043.203.062.062.012.133.016.219.016.07 0 .148-.016.234-.047a.389.389 0 0 0 .188-.125.604.604 0 0 0 .109-.203c.02-.07.031-.164.031-.281a.868.868 0 0 0-.031-.25.491.491 0 0 0-.125-.157.644.644 0 0 0-.203-.11 1.265 1.265 0 0 0-.282-.03c-.105 0-.21.007-.312.015-.117.024-.203.04-.266.047v-1.5h1.61v.344H.734v.781c.051-.008.098-.016.141-.016H1c.156 0 .285.012.39.032.094.031.192.078.298.14a.782.782 0 0 1 .218.282c.051.117.078.261.078.437zm0 0"/></symbol><symbol overflow="visible" id="l"><path d="M2.094-1H1.75v1h-.375v-1H.078v-.422l1.313-1.5h.359v1.61h.344zm-.719-.313v-1.14l-.984 1.14zm0 0"/></symbol><symbol overflow="visible" id="m"><path d="M2.047-2.484L.78 0H.36l1.344-2.578H.187v-.344h1.86zm0 0"/></symbol><symbol overflow="visible" id="n"><path d="M1.969 0h-.36v-.25a1.526 1.526 0 0 1-.328.234.78.78 0 0 1-.61.032.505.505 0 0 1-.218-.157.685.685 0 0 1-.156-.25A1.29 1.29 0 0 1 .25-.766v-1.421h.375v1.25c0 .117.004.21.016.28 0 .087.015.153.046.204.032.062.07.105.125.125a.78.78 0 0 0 .516-.031 1.41 1.41 0 0 0 .281-.204v-1.625h.36zm0 0"/></symbol><symbol overflow="visible" id="o"><path d="M2.047-2.578H.687v.828h1.297v.344H.688V0H.296v-2.922h1.75zm0 0"/></symbol><symbol overflow="visible" id="p"><path d="M1.422-3.047L.282.641h-.329l1.14-3.688zm0 0"/></symbol><symbol overflow="visible" id="q"><path d="M2.406-2.922L1.406 0H.984l-1-2.922h.422L1.203-.5l.813-2.422zm0 0"/></symbol><symbol overflow="visible" id="r"><path d="M2.281-.89a.703.703 0 0 1-.094.374.72.72 0 0 1-.218.282.865.865 0 0 1-.344.172A1.62 1.62 0 0 1 1.141 0H.297v-2.922h.781c.195 0 .352.008.469.016.094.023.191.058.297.11a.588.588 0 0 1 .297.53c0 .149-.04.274-.11.375a.778.778 0 0 1-.297.25v.016c.164.055.301.14.407.266a.76.76 0 0 1 .14.468zm-.547-1.313a.554.554 0 0 0-.03-.188.281.281 0 0 0-.11-.125.977.977 0 0 0-.219-.062 2.985 2.985 0 0 0-.313-.016H.688v.86h.438c.125 0 .21-.004.266-.016a.429.429 0 0 0 .187-.078.452.452 0 0 0 .125-.156.634.634 0 0 0 .031-.22zm.141 1.328a.73.73 0 0 0-.047-.281.355.355 0 0 0-.187-.172.722.722 0 0 0-.204-.063 2.985 2.985 0 0 0-.312-.015H.687v1.078H1c.164 0 .3-.008.406-.031a.478.478 0 0 0 .25-.094c.07-.05.13-.11.172-.172a.56.56 0 0 0 .047-.25zm0 0"/></symbol><symbol overflow="visible" id="s"><path d="M1.438.047a1.212 1.212 0 0 1-.532-.094A1.087 1.087 0 0 1 .5-.328a1.388 1.388 0 0 1-.281-.469 2.147 2.147 0 0 1-.094-.656c0-.25.031-.461.094-.64C.28-2.27.375-2.43.5-2.579c.113-.125.25-.223.406-.297.156-.063.332-.094.531-.094.102 0 .196.008.282.016.082.023.16.043.234.062.063.024.129.043.203.063.063.031.125.07.188.11v.468h-.031c-.032-.031-.075-.07-.126-.125-.062-.04-.132-.082-.203-.125a2.15 2.15 0 0 0-.234-.11 1.54 1.54 0 0 0-.313-.03.767.767 0 0 0-.343.078.876.876 0 0 0-.297.218.997.997 0 0 0-.188.375 1.552 1.552 0 0 0-.078.516c0 .2.024.371.078.516a.83.83 0 0 0 .188.359c.082.105.18.18.297.219a.718.718 0 0 0 .343.078.99.99 0 0 0 .313-.047A.83.83 0 0 0 2-.422a1.42 1.42 0 0 0 .313-.234h.03v.453a2.274 2.274 0 0 0-.171.094 1.023 1.023 0 0 1-.219.078C1.867 0 1.79.019 1.72.03a2.627 2.627 0 0 1-.282.016zm0 0"/></symbol><symbol overflow="visible" id="t"><path d="M1-2.64a.671.671 0 0 0-.203.03.873.873 0 0 0-.219.063.582.582 0 0 0-.156.078c-.055.031-.094.059-.125.078H.266v-.406a2.29 2.29 0 0 1 .359-.125c.133-.039.27-.062.406-.062.133 0 .25.015.344.046a.62.62 0 0 1 .266.126c.093.062.16.136.203.218.039.094.062.2.062.313a.612.612 0 0 1-.156.422.669.669 0 0 1-.375.234v.031a.919.919 0 0 1 .39.188c.051.062.098.136.141.218.04.086.063.196.063.329A.875.875 0 0 1 1.89-.5a.803.803 0 0 1-.188.297.745.745 0 0 1-.312.187c-.118.051-.25.079-.407.079C.836.063.691.046.547.015a1.814 1.814 0 0 1-.36-.141v-.406H.22C.3-.47.41-.411.547-.36a1.094 1.094 0 0 0 .656.046.559.559 0 0 0 .203-.124c.051-.063.094-.126.125-.188.02-.07.032-.16.032-.266a.687.687 0 0 0-.047-.265.491.491 0 0 0-.125-.157.446.446 0 0 0-.188-.078 1.123 1.123 0 0 0-.25-.03H.781v-.329h.14c.165 0 .306-.04.423-.125a.419.419 0 0 0 .172-.36.371.371 0 0 0-.047-.187.493.493 0 0 0-.11-.125 1.15 1.15 0 0 0-.171-.078A1.296 1.296 0 0 0 1-2.641zm0 0"/></symbol><symbol overflow="visible" id="u"><path d="M2.156 0H.125v-.36l1.563-2.218h-1.5v-.344h1.937v.36L.531-.345h1.625zm0 0"/></symbol><symbol overflow="visible" id="v"><path d="M2.547-1.531H.375v-.313h2.172zm0 .828H.375v-.328h2.172zm0 0"/></symbol><symbol overflow="visible" id="w"><path d="M2.75 0v-1.266c0-.101-.008-.195-.016-.28a.4.4 0 0 0-.046-.204.213.213 0 0 0-.11-.11.371.371 0 0 0-.187-.046.844.844 0 0 0-.516.281V0h-.36v-1.266c0-.101-.007-.195-.015-.28a1.047 1.047 0 0 0-.047-.204.324.324 0 0 0-.11-.11.4.4 0 0 0-.202-.046.844.844 0 0 0-.25.078 1.23 1.23 0 0 0-.25.187V0H.266v-2.188H.64v.235c.093-.094.187-.164.28-.219a.64.64 0 0 1 .313-.078c.125 0 .239.031.344.094.102.054.18.148.234.281.102-.125.211-.219.329-.281a.65.65 0 0 1 .343-.094c.094 0 .176.016.25.047a.599.599 0 0 1 .344.39c.031.094.047.22.047.376V0zm0 0"/></symbol><symbol overflow="visible" id="x"><path d="M3.578-2.922L2.844 0h-.438l-.594-2.422L1.22 0H.797l-.75-2.922h.406l.578 2.438.594-2.438h.39L2.61-.469l.579-2.453zm0 0"/></symbol><symbol overflow="visible" id="y"><path d="M2.016 0H.219v-.406l.36-.36c.112-.101.226-.218.343-.343.219-.25.367-.446.453-.594.07-.145.113-.297.125-.453a.487.487 0 0 0-.047-.219.602.602 0 0 0-.11-.156.629.629 0 0 0-.344-.11.822.822 0 0 0-.218.032.685.685 0 0 0-.203.062 1.166 1.166 0 0 0-.156.078c-.055.031-.094.059-.125.078H.28v-.406c.07-.039.18-.082.328-.125.145-.039.286-.062.422-.062.258 0 .469.074.625.218.157.149.235.344.235.594 0 .117-.012.219-.032.313-.03.093-.07.183-.109.265a2.195 2.195 0 0 1-.188.25 4.057 4.057 0 0 1-.203.25 7.154 7.154 0 0 1-.421.422 7.96 7.96 0 0 1-.36.344h1.438zm0 0"/></symbol><symbol overflow="visible" id="A"><path d="M2.563 0h-.516l-.922-1.156H.687V0h-.39v-2.922h.75c.164 0 .305.012.422.031.113.024.222.063.328.125a.8.8 0 0 1 .234.25.751.751 0 0 1 .094.391c0 .219-.059.398-.172.531a.913.913 0 0 1-.437.328zm-.844-2.094a.598.598 0 0 0-.047-.234.412.412 0 0 0-.14-.156.446.446 0 0 0-.188-.079c-.074-.007-.168-.019-.282-.03H.688v1.109h.344c.102 0 .203-.008.297-.032a.459.459 0 0 0 .219-.125.38.38 0 0 0 .125-.187.66.66 0 0 0 .047-.266zm0 0"/></symbol><symbol overflow="visible" id="B"><path d="M.984 0v-2.578H0v-.344h2.344v.344h-.985V0zm0 0"/></symbol><symbol overflow="visible" id="C"><path d="M2.594-1.453c0 .262-.055.5-.156.719-.106.218-.25.386-.438.5a1.33 1.33 0 0 1-.453.187A2.89 2.89 0 0 1 .969 0H.297v-2.922h.656c.281 0 .5.024.656.063.157.043.286.101.391.171.188.126.332.293.438.5.101.211.156.454.156.735zm-.406-.016c0-.218-.04-.41-.11-.578a.813.813 0 0 0-.328-.36 1.342 1.342 0 0 0-.328-.14 1.832 1.832 0 0 0-.438-.047H.688v2.266h.296c.164 0 .317-.016.454-.047a1.016 1.016 0 0 0 .656-.516c.062-.156.094-.347.094-.578zm0 0"/></symbol><symbol overflow="visible" id="D"><path d="M2.61-1.125h-.985v1h-.328v-1H.313v-.313h.984v-.984h.328v.985h.984zm0 0"/></symbol><symbol overflow="visible" id="E"><path d="M1.516.063c-.211 0-.399-.032-.563-.094a.962.962 0 0 1-.437-.297 1.177 1.177 0 0 1-.282-.469 1.894 1.894 0 0 1-.109-.672c0-.226.035-.437.11-.625a1.33 1.33 0 0 1 .28-.484c.114-.125.258-.223.438-.297.176-.063.363-.094.563-.094.101 0 .195.008.28.016.095.023.18.043.266.062.063.024.133.047.22.079a.829.829 0 0 1 .187.093v.469h-.031c-.043-.04-.09-.082-.141-.125a1.311 1.311 0 0 0-.219-.125c-.086-.04-.18-.07-.281-.094a1.039 1.039 0 0 0-.328-.047.798.798 0 0 0-.672.329c-.18.21-.266.492-.266.843 0 .188.024.36.078.516a.83.83 0 0 0 .188.36.745.745 0 0 0 .312.234.884.884 0 0 0 .391.078c.113 0 .223-.004.328-.016.102-.02.195-.047.281-.078v-.75h-.687v-.344h1.062v1.282c-.054.023-.117.046-.187.078-.094.03-.172.058-.235.078-.105.031-.195.05-.265.062-.074.02-.168.032-.281.032zm0 0"/></symbol><symbol overflow="visible" id="F"><path d="M2.39 0h-.437L.656-2.516V0h-.36v-2.922h.548L2.016-.609v-2.313h.375zm0 0"/></symbol></defs><use xlink:href="#a" x="454.618" y="253.909" fill="#505050"/><use xlink:href="#b" x="454.618" y="251.689" fill="#505050"/><use xlink:href="#c" x="454.618" y="248.989" fill="#505050"/><use xlink:href="#a" x="454.618" y="246.769" fill="#505050"/><use xlink:href="#c" x="454.618" y="244.549" fill="#505050"/><use xlink:href="#d" x="454.618" y="242.329" fill="#505050"/><use xlink:href="#e" x="361.554" y="288.952" fill="#505050"/><use xlink:href="#f" x="363.774" y="288.952" fill="#505050"/><use xlink:href="#g" x="365.994" y="288.952" fill="#505050"/><use xlink:href="#h" x="390.823" y="340.217" fill="#505050"/><use xlink:href="#i" x="393.043" y="340.217" fill="#505050"/><use xlink:href="#j" x="394.243" y="340.217" fill="#505050"/><use xlink:href="#e" x="420.273" y="323.474" fill="#505050"/><use xlink:href="#g" x="422.493" y="323.474" fill="#505050"/><use xlink:href="#e" x="436.106" y="282.68" fill="#505050"/><use xlink:href="#k" x="438.326" y="282.68" fill="#505050"/><use xlink:href="#g" x="440.546" y="282.68" fill="#505050"/><use xlink:href="#l" x="301.571" y="317.202" fill="#505050"/><use xlink:href="#m" x="303.791" y="317.202" fill="#505050"/><use xlink:href="#n" x="306.011" y="317.202" fill="#505050"/><use xlink:href="#o" x="308.231" y="317.202" fill="#505050"/><use xlink:href="#p" x="310.331" y="317.202" fill="#505050"/><use xlink:href="#e" x="311.891" y="317.202" fill="#505050"/><use xlink:href="#h" x="314.111" y="317.202" fill="#505050"/><use xlink:href="#q" x="316.331" y="317.202" fill="#505050"/><use xlink:href="#r" x="466.133" y="311.446" fill="#505050"/><use xlink:href="#s" x="468.473" y="311.446" fill="#505050"/><use xlink:href="#t" x="470.873" y="311.446" fill="#505050"/><use xlink:href="#t" x="473.093" y="311.446" fill="#505050"/><use xlink:href="#m" x="475.313" y="311.446" fill="#505050"/><use xlink:href="#r" x="402.796" y="276.923" fill="#505050"/><use xlink:href="#s" x="405.136" y="276.923" fill="#505050"/><use xlink:href="#t" x="407.536" y="276.923" fill="#505050"/><use xlink:href="#t" x="409.756" y="276.923" fill="#505050"/><use xlink:href="#m" x="411.976" y="276.923" fill="#505050"/><use xlink:href="#u" x="514.5" y="313.747" fill="#505050"/><use xlink:href="#v" x="516.72" y="313.747" fill="#505050"/><use xlink:href="#e" x="519.66" y="313.747" fill="#505050"/><use xlink:href="#t" x="521.88" y="313.747" fill="#505050"/><use xlink:href="#i" x="524.1" y="313.747" fill="#505050"/><use xlink:href="#f" x="525.3" y="313.747" fill="#505050"/><use xlink:href="#q" x="527.52" y="313.747" fill="#505050"/><use xlink:href="#p" x="529.92" y="313.747" fill="#505050"/><use xlink:href="#l" x="531.48" y="313.747" fill="#505050"/><use xlink:href="#f" x="533.7" y="313.747" fill="#505050"/><use xlink:href="#f" x="535.92" y="313.747" fill="#505050"/><use xlink:href="#w" x="538.14" y="313.747" fill="#505050"/><use xlink:href="#x" x="541.5" y="313.747" fill="#505050"/><use xlink:href="#e" x="474.308" y="311.449" fill="#505050"/><use xlink:href="#f" x="476.528" y="311.449" fill="#505050"/><use xlink:href="#n" x="478.748" y="311.449" fill="#505050"/><use xlink:href="#o" x="480.968" y="311.449" fill="#505050"/><use xlink:href="#p" x="483.068" y="311.449" fill="#505050"/><use xlink:href="#y" x="484.628" y="311.449" fill="#505050"/><use xlink:href="#k" x="486.848" y="311.449" fill="#505050"/><use xlink:href="#q" x="489.068" y="311.449" fill="#505050"/><use xlink:href="#z" x="459.8" y="253.909" fill="#505050"/><use xlink:href="#a" x="459.8" y="251.209" fill="#505050"/><use xlink:href="#A" x="362.454" y="279.282" fill="#505050"/><use xlink:href="#e" x="364.974" y="279.282" fill="#505050"/><use xlink:href="#A" x="391.723" y="331.582" fill="#505050"/><use xlink:href="#y" x="394.243" y="331.582" fill="#505050"/><use xlink:href="#A" x="420.033" y="313.804" fill="#505050"/><use xlink:href="#t" x="422.553" y="313.804" fill="#505050"/><use xlink:href="#A" x="437.786" y="274.046" fill="#505050"/><use xlink:href="#l" x="440.306" y="274.046" fill="#505050"/><use xlink:href="#s" x="314.111" y="308.568" fill="#505050"/><use xlink:href="#e" x="316.511" y="308.568" fill="#505050"/><use xlink:href="#s" x="437.906" y="331.582" fill="#505050"/><use xlink:href="#y" x="440.306" y="331.582" fill="#505050"/><use xlink:href="#B" x="448.906" y="311.445" fill="#505050"/><use xlink:href="#e" x="451.246" y="311.445" fill="#505050"/><use xlink:href="#B" x="385.568" y="276.923" fill="#505050"/><use xlink:href="#y" x="387.909" y="276.923" fill="#505050"/><use xlink:href="#C" x="514.5" y="308.568" fill="#505050"/><use xlink:href="#y" x="517.2" y="308.568" fill="#505050"/><use xlink:href="#s" x="486.848" y="302.814" fill="#505050"/><use xlink:href="#t" x="489.248" y="302.814" fill="#505050"/><use xlink:href="#D" x="296.776" y="261.102" fill="#505050"/><use xlink:href="#k" x="299.716" y="261.102" fill="#505050"/><use xlink:href="#q" x="301.936" y="261.102" fill="#505050"/><use xlink:href="#D" x="531.773" y="261.102" fill="#505050"/><use xlink:href="#e" x="534.713" y="261.102" fill="#505050"/><use xlink:href="#y" x="536.933" y="261.102" fill="#505050"/><use xlink:href="#q" x="539.153" y="261.102" fill="#505050"/><use xlink:href="#E" x="296.236" y="353.16" fill="#505050"/><use xlink:href="#F" x="298.936" y="353.16" fill="#505050"/><use xlink:href="#C" x="301.636" y="353.16" fill="#505050"/><use xlink:href="#E" x="528.894" y="353.16" fill="#505050"/><use xlink:href="#F" x="531.594" y="353.16" fill="#505050"/><use xlink:href="#C" x="534.294" y="353.16" fill="#505050"/><use xlink:href="#y" x="536.994" y="353.16" fill="#505050"/><use xlink:href="#G" x="359.036" y="253.909" fill="#505050"/><use xlink:href="#a" x="359.036" y="251.929" fill="#505050"/><path d="M451.14 259.68h5.758M462.66 259.68h-5.762" fill="none" stroke-width=".36000000000000004" stroke-linecap="round" stroke-linejoin="round" stroke="maroon" stroke-miterlimit="10"/><path d="M454.02 262.559l5.761-2.88M459.781 259.68l-5.761-2.88M459.781 256.8v2.88M454.02 256.8v5.759M459.781 259.68v2.879" fill="none" stroke-width=".6000000000000001" stroke-linecap="round" stroke-linejoin="round" stroke="maroon" stroke-miterlimit="10"/><path d="M376.32 282.66h-5.761M353.281 282.66h5.758" fill="none" stroke-width=".36000000000000004" stroke-linecap="round" stroke-linejoin="round" stroke="maroon" stroke-miterlimit="10"/><path d="M359.04 284.7h11.519M370.559 280.68h-11.52M370.559 284.7v-4.02M359.04 284.7v-4.02" fill="none" stroke-width=".6000000000000001" stroke-linecap="round" stroke-linejoin="round" stroke="maroon" stroke-miterlimit="10"/><path d="M399.36 322.98v5.7M399.36 345.96v-5.76" fill="none" stroke-width=".36000000000000004" stroke-linecap="round" stroke-linejoin="round" stroke="maroon" stroke-miterlimit="10"/><path d="M401.34 340.2v-11.52M397.32 328.68v11.52M401.34 328.68h-4.02M401.34 340.2h-4.02" fill="none" stroke-width=".6000000000000001" stroke-linecap="round" stroke-linejoin="round" stroke="maroon" stroke-miterlimit="10"/><path d="M433.86 317.219h-5.7M410.879 317.219h5.762" fill="none" stroke-width=".36000000000000004" stroke-linecap="round" stroke-linejoin="round" stroke="maroon" stroke-miterlimit="10"/><path d="M416.64 319.2h11.52M428.16 315.18h-11.52M428.16 319.2v-4.02M416.64 319.2v-4.02" fill="none" stroke-width=".6000000000000001" stroke-linecap="round" stroke-linejoin="round" stroke="maroon" stroke-miterlimit="10"/><path d="M445.379 265.441v5.7M445.379 288.422v-5.762" fill="none" stroke-width=".36000000000000004" stroke-linecap="round" stroke-linejoin="round" stroke="maroon" stroke-miterlimit="10"/><path d="M447.422 282.66v-11.52M443.398 271.14v11.52M447.422 271.14h-4.024M447.422 282.66h-4.024" fill="none" stroke-width=".6000000000000001" stroke-linecap="round" stroke-linejoin="round" stroke="maroon" stroke-miterlimit="10"/><use xlink:href="#H" x="322.329" y="308.568" fill="maroon"/><path d="M324.48 317.219v-4.02M324.48 305.7v3.722" fill="none" stroke-width=".36000000000000004" stroke-linecap="round" stroke-linejoin="round" stroke="maroon" stroke-miterlimit="10"/><path d="M319.86 313.441h9.242V312h-9.243zm0 0" fill="maroon" stroke-width=".12" stroke-linecap="round" stroke-linejoin="round" stroke="maroon" stroke-miterlimit="10"/><path d="M320.04 309.422v1.437M320.04 310.86h8.94M328.98 310.86v-1.438M328.98 309.422h-4.5M324.48 309.422h-4.44" fill="none" stroke-width=".30000000000000004" stroke-linecap="round" stroke-linejoin="round" stroke="maroon" stroke-miterlimit="10"/><path d="M445.379 340.2v-4.02M445.379 328.68v4.082" fill="none" stroke-width=".36000000000000004" stroke-linecap="round" stroke-linejoin="round" stroke="maroon" stroke-miterlimit="10"/><path d="M441.36 336.238h8.038v-1.199h-8.039zm0 0M441.36 333.898h8.038V332.7h-8.039zm0 0" fill="maroon" stroke-width=".12" stroke-linecap="round" stroke-linejoin="round" stroke="maroon" stroke-miterlimit="10"/><path d="M462.66 311.46l-5.582 2.821M460.262 320.281l1.136 2.04M461.398 322.32l-2.34.301M459.059 322.621l1.203-2.34M462.66 322.98l-1.262-.66M461.398 322.32l-3.777-1.922" fill="none" stroke-width=".36000000000000004" stroke-linecap="round" stroke-linejoin="round" stroke="maroon" stroke-miterlimit="10"/><path d="M459.66 322.32l1.32-.18M460.98 322.14l-.718-1.261" fill="none" stroke-width=".7200000000000001" stroke-linecap="round" stroke-linejoin="round" stroke="maroon" stroke-miterlimit="10"/><path d="M460.262 320.879l-.602 1.14M459.66 322.02h.84M460.5 322.02l-.238-.598" fill="none" stroke-width=".6000000000000001" stroke-linecap="round" stroke-linejoin="round" stroke="maroon" stroke-miterlimit="10"/><path d="M455.82 322.98h1.68v-11.52h-1.68zm0 0" fill="maroon" stroke-width=".12" stroke-linecap="round" stroke-linejoin="round" stroke="maroon" stroke-miterlimit="10"/><path d="M451.14 317.219h5.758M462.66 328.68v-5.7M462.66 305.7v5.76" fill="none" stroke-width=".36000000000000004" stroke-linecap="round" stroke-linejoin="round" stroke="maroon" stroke-miterlimit="10"/><path d="M467.941 317.219a8.161 8.161 0 0 1-16.32 0 8.161 8.161 0 0 1 8.16-8.16 8.164 8.164 0 0 1 8.16 8.16zm0 0" fill="none" stroke-width=".9" stroke-linecap="round" stroke-linejoin="round" stroke="maroon" stroke-miterlimit="10"/><path d="M399.36 276.898l-5.641 2.82M396.898 285.781l1.141 1.98M398.04 287.762l-2.278.297M395.762 288.059l1.136-2.278M399.36 288.422l-1.32-.66M398.04 287.762l-3.778-1.864" fill="none" stroke-width=".36000000000000004" stroke-linecap="round" stroke-linejoin="round" stroke="maroon" stroke-miterlimit="10"/><path d="M396.3 287.762l1.321-.121M397.621 287.64l-.723-1.32" fill="none" stroke-width=".7200000000000001" stroke-linecap="round" stroke-linejoin="round" stroke="maroon" stroke-miterlimit="10"/><path d="M396.898 286.32l-.597 1.2M396.3 287.52h.9M397.2 287.52l-.302-.598" fill="none" stroke-width=".6000000000000001" stroke-linecap="round" stroke-linejoin="round" stroke="maroon" stroke-miterlimit="10"/><path d="M392.46 288.422h1.68v-11.524h-1.68zm0 0" fill="maroon" stroke-width=".12" stroke-linecap="round" stroke-linejoin="round" stroke="maroon" stroke-miterlimit="10"/><path d="M387.84 282.66h5.762M399.36 294.18v-5.758M399.36 271.14v5.758" fill="none" stroke-width=".36000000000000004" stroke-linecap="round" stroke-linejoin="round" stroke="maroon" stroke-miterlimit="10"/><path d="M404.64 282.66a8.159 8.159 0 0 1-8.16 8.16 8.159 8.159 0 0 1-8.16-8.16 8.159 8.159 0 0 1 8.16-8.16 8.159 8.159 0 0 1 8.16 8.16zm0 0" fill="none" stroke-width=".9" stroke-linecap="round" stroke-linejoin="round" stroke="maroon" stroke-miterlimit="10"/><path d="M508.738 314.34v-5.762M508.738 302.82v5.758" fill="none" stroke-width=".36000000000000004" stroke-linecap="round" stroke-linejoin="round" stroke="maroon" stroke-miterlimit="10"/><path d="M505.86 311.46l2.878-5.76M508.738 305.7l2.883 5.76M511.621 305.7h-2.883M511.621 311.46h-5.762M508.738 305.7h-2.879M505.86 307.441V305.7" fill="none" stroke-width=".6000000000000001" stroke-linecap="round" stroke-linejoin="round" stroke="maroon" stroke-miterlimit="10"/><use xlink:href="#H" x="495.066" y="302.815" fill="maroon"/><path d="M497.219 311.46v-4.019M497.219 299.941v3.72" fill="none" stroke-width=".36000000000000004" stroke-linecap="round" stroke-linejoin="round" stroke="maroon" stroke-miterlimit="10"/><path d="M492.602 307.68h9.238v-1.442h-9.238zm0 0" fill="maroon" stroke-width=".12" stroke-linecap="round" stroke-linejoin="round" stroke="maroon" stroke-miterlimit="10"/><path d="M492.781 303.66v1.442M492.781 305.102h8.88M501.66 305.102v-1.442M501.66 303.66h-4.441M497.219 303.66h-4.438" fill="none" stroke-width=".30000000000000004" stroke-linecap="round" stroke-linejoin="round" stroke="maroon" stroke-miterlimit="10"/><path d="M318.719 259.68h-5.758" fill="none" stroke-width=".6000000000000001" stroke-linecap="round" stroke-linejoin="round" stroke="maroon" stroke-miterlimit="10"/><path d="M306.898 259.68l.18-.899.363-.84.598-.66.723-.48.898-.242h.899l.84.242.78.48.602.66.36.84.12.899-.12.898-.36.781-.601.72-.782.48-.84.242h-.898l-.898-.242-.723-.48-.598-.72-.363-.78-.18-.9h.602l.121-.718.3-.723.477-.539.602-.418.719-.18h.722l.72.18.66.418.48.54.3.722.06.719-.06.718-.3.66-.48.544-.66.418-.72.18h-.722l-.719-.18-.602-.418-.476-.543-.3-.66-.122-.72h-.602" fill-rule="evenodd" fill="maroon"/><path d="M306.898 259.68l.18-.899.363-.84.598-.66.723-.48.898-.242h.899l.84.242.78.48.602.66.36.84.12.899-.12.898-.36.781-.601.72-.782.48-.84.242h-.898l-.898-.242-.723-.48-.598-.72-.363-.78-.18-.9h.602l.121-.718.3-.723.477-.539.602-.418.719-.18h.722l.72.18.66.418.48.54.3.722.06.719-.06.718-.3.66-.48.544-.66.418-.72.18h-.722l-.719-.18-.602-.418-.476-.543-.3-.66-.122-.72zm0 0" fill="none" stroke-width=".12" stroke-linecap="round" stroke-linejoin="round" stroke="maroon" stroke-miterlimit="10"/><path d="M517.379 259.68h5.762" fill="none" stroke-width=".6000000000000001" stroke-linecap="round" stroke-linejoin="round" stroke="maroon" stroke-miterlimit="10"/><path d="M522.84 259.68l.12-.899.419-.84.543-.66.777-.48.84-.242h.902l.899.242.719.48.601.66.418.84.121.899-.12.898-.419.781-.601.72-.72.48-.898.242h-.902l-.84-.242-.777-.48-.543-.72-.418-.78-.121-.9h.601l.059-.718.36-.723.48-.539.601-.418.72-.18h.718l.723.18.597.418.48.54.301.722.122.719-.122.718-.3.66-.48.544-.598.418-.723.18h-.719l-.719-.18-.601-.418-.48-.543-.36-.66-.059-.72h-.601" fill-rule="evenodd" fill="maroon"/><path d="M522.84 259.68l.12-.899.419-.84.543-.66.777-.48.84-.242h.902l.899.242.719.48.601.66.418.84.121.899-.12.898-.419.781-.601.72-.72.48-.898.242h-.902l-.84-.242-.777-.48-.543-.72-.418-.78-.121-.9h.601l.059-.718.36-.723.48-.539.601-.418.72-.18h.718l.723.18.597.418.48.54.301.722.122.719-.122.718-.3.66-.48.544-.598.418-.723.18h-.719l-.719-.18-.601-.418-.48-.543-.36-.66-.059-.72zm0 0" fill="none" stroke-width=".12" stroke-linecap="round" stroke-linejoin="round" stroke="maroon" stroke-miterlimit="10"/><path d="M318.719 351.719h-5.758" fill="none" stroke-width=".6000000000000001" stroke-linecap="round" stroke-linejoin="round" stroke="maroon" stroke-miterlimit="10"/><path d="M306.898 351.719l.18-.899.363-.84.598-.66.723-.48.898-.238h.899l.84.238.78.48.602.66.36.84.12.899-.12.902-.36.84-.601.66-.782.48-.84.239h-.898l-.898-.238-.723-.48-.598-.661-.363-.84-.18-.902h.602l.121-.719.3-.66.477-.602.602-.36.719-.237h.722l.72.238.66.36.48.6.3.661.06.719-.06.722-.3.66-.48.598-.66.36-.72.242h-.722l-.719-.242-.602-.36-.476-.597-.3-.66-.122-.723h-.602" fill-rule="evenodd" fill="maroon"/><path d="M306.898 351.719l.18-.899.363-.84.598-.66.723-.48.898-.238h.899l.84.238.78.48.602.66.36.84.12.899-.12.902-.36.84-.601.66-.782.48-.84.239h-.898l-.898-.238-.723-.48-.598-.661-.363-.84-.18-.902h.602l.121-.719.3-.66.477-.602.602-.36.719-.237h.722l.72.238.66.36.48.6.3.661.06.719-.06.722-.3.66-.48.598-.66.36-.72.242h-.722l-.719-.242-.602-.36-.476-.597-.3-.66-.122-.723zm0 0" fill="none" stroke-width=".12" stroke-linecap="round" stroke-linejoin="round" stroke="maroon" stroke-miterlimit="10"/><path d="M514.5 351.719h5.762" fill="none" stroke-width=".6000000000000001" stroke-linecap="round" stroke-linejoin="round" stroke="maroon" stroke-miterlimit="10"/><path d="M519.96 351.719l.118-.899.422-.84.54-.66.78-.48.84-.238h.899l.902.238.719.48.601.66.418.84.121.899-.12.902-.419.84-.601.66-.72.48-.901.239h-.899l-.84-.238-.78-.48-.54-.661-.422-.84-.117-.902h.598l.062-.719.36-.66.48-.602.598-.36.722-.237h.719l.719.238.601.36.48.6.302.661.117.719-.117.722-.301.66-.48.598-.602.36-.719.242h-.719l-.722-.242-.598-.36-.48-.597-.36-.66-.062-.723h-.598" fill-rule="evenodd" fill="maroon"/><path d="M519.96 351.719l.118-.899.422-.84.54-.66.78-.48.84-.238h.899l.902.238.719.48.601.66.418.84.121.899-.12.902-.419.84-.601.66-.72.48-.901.239h-.899l-.84-.238-.78-.48-.54-.661-.422-.84-.117-.902h.598l.062-.719.36-.66.48-.602.598-.36.722-.237h.719l.719.238.601.36.48.6.302.661.117.719-.117.722-.301.66-.48.598-.602.36-.719.242h-.719l-.722-.242-.598-.36-.48-.597-.36-.66-.062-.723zm0 0" fill="none" stroke-width=".12" stroke-linecap="round" stroke-linejoin="round" stroke="maroon" stroke-miterlimit="10"/><path d="M373.441 259.68l-.12-.782-.301-.66-.418-.597-.602-.48-.719-.302-.722-.058M370.559 256.8l-.778.06-.66.3-.601.48-.48.598-.24.66-.12.782" fill="none" stroke-width=".6000000000000001" stroke-linecap="round" stroke-linejoin="round" stroke="maroon" stroke-miterlimit="10"/><path d="M367.68 259.68l-.121-.782-.297-.66-.422-.597-.602-.48-.718-.302-.72-.058M364.8 256.8l-.78.06-.66.3-.598.48-.48.598-.243.66-.117.782" fill="none" stroke-width=".6000000000000001" stroke-linecap="round" stroke-linejoin="round" stroke="maroon" stroke-miterlimit="10"/><path d="M361.922 259.68l-.121-.782-.301-.66-.422-.597-.598-.48-.718-.302-.723-.058" fill="none" stroke-width=".6000000000000001" stroke-linecap="round" stroke-linejoin="round" stroke="maroon" stroke-miterlimit="10"/><path d="M359.04 256.8l-.72.06-.718.3-.602.48-.48.598-.239.66-.12.782M353.281 259.68h2.88M376.32 259.68h-2.879" fill="none" stroke-width=".6000000000000001" stroke-linecap="round" stroke-linejoin="round" stroke="maroon" stroke-miterlimit="10"/><path d="M376.32 282.66h5.758M382.078 282.66h5.762M382.078 282.66v17.281" fill="none" stroke-width=".36000000000000004" stroke-linecap="round" stroke-linejoin="round" stroke="green" stroke-miterlimit="10"/><path d="M383.219 282.66a1.14 1.14 0 1 1-2.28.002 1.14 1.14 0 0 1 2.28-.002" fill-rule="evenodd" fill="green"/><path d="M383.219 282.66a1.14 1.14 0 1 1-2.28.002 1.14 1.14 0 0 1 2.28-.002zm0 0" fill="none" stroke-width=".12" stroke-linecap="round" stroke-linejoin="round" stroke="green" stroke-miterlimit="10"/><path d="M462.66 305.7v-5.759M382.078 299.941h80.582M353.281 282.66H336M336 282.66v-22.98M336 259.68h-11.52M324.48 259.68h-5.761M324.48 305.7v-46.02" fill="none" stroke-width=".36000000000000004" stroke-linecap="round" stroke-linejoin="round" stroke="green" stroke-miterlimit="10"/><path d="M325.621 259.68c0 .629-.512 1.14-1.14 1.14-.63 0-1.141-.511-1.141-1.14 0-.63.512-1.14 1.14-1.14.63 0 1.141.51 1.141 1.14" fill-rule="evenodd" fill="green"/><path d="M325.621 259.68c0 .629-.512 1.14-1.14 1.14-.63 0-1.141-.511-1.141-1.14 0-.63.512-1.14 1.14-1.14.63 0 1.141.51 1.141 1.14zm0 0" fill="none" stroke-width=".12" stroke-linecap="round" stroke-linejoin="round" stroke="green" stroke-miterlimit="10"/><path d="M353.281 259.68H336" fill="none" stroke-width=".36000000000000004" stroke-linecap="round" stroke-linejoin="round" stroke="green" stroke-miterlimit="10"/><path d="M337.14 259.68c0 .629-.511 1.14-1.14 1.14-.629 0-1.14-.511-1.14-1.14 0-.63.511-1.14 1.14-1.14.629 0 1.14.51 1.14 1.14" fill-rule="evenodd" fill="green"/><path d="M337.14 259.68c0 .629-.511 1.14-1.14 1.14-.629 0-1.14-.511-1.14-1.14 0-.63.511-1.14 1.14-1.14.629 0 1.14.51 1.14 1.14zm0 0" fill="none" stroke-width=".12" stroke-linecap="round" stroke-linejoin="round" stroke="green" stroke-miterlimit="10"/><path d="M462.66 259.68h34.559M497.219 259.68h11.52M508.738 259.68h8.64M508.738 302.82v-43.14" fill="none" stroke-width=".36000000000000004" stroke-linecap="round" stroke-linejoin="round" stroke="green" stroke-miterlimit="10"/><path d="M509.879 259.68a1.14 1.14 0 1 1-2.279.002 1.14 1.14 0 0 1 2.279-.002" fill-rule="evenodd" fill="green"/><path d="M509.879 259.68a1.14 1.14 0 1 1-2.279.002 1.14 1.14 0 0 1 2.279-.002zm0 0" fill="none" stroke-width=".12" stroke-linecap="round" stroke-linejoin="round" stroke="green" stroke-miterlimit="10"/><path d="M497.219 299.941V259.68" fill="none" stroke-width=".36000000000000004" stroke-linecap="round" stroke-linejoin="round" stroke="green" stroke-miterlimit="10"/><path d="M498.36 259.68a1.14 1.14 0 1 1-2.282 0 1.14 1.14 0 1 1 2.281 0" fill-rule="evenodd" fill="green"/><path d="M498.36 259.68a1.14 1.14 0 1 1-2.282 0 1.14 1.14 0 1 1 2.281 0zm0 0" fill="none" stroke-width=".12" stroke-linecap="round" stroke-linejoin="round" stroke="green" stroke-miterlimit="10"/><path d="M324.48 317.219v34.5M324.48 351.719h-5.761M324.48 351.719h74.88" fill="none" stroke-width=".36000000000000004" stroke-linecap="round" stroke-linejoin="round" stroke="green" stroke-miterlimit="10"/><path d="M325.621 351.719a1.14 1.14 0 1 1-2.281 0c0-.63.512-1.14 1.14-1.14.63 0 1.141.51 1.141 1.14" fill-rule="evenodd" fill="green"/><path d="M325.621 351.719a1.14 1.14 0 1 1-2.281 0c0-.63.512-1.14 1.14-1.14.63 0 1.141.51 1.141 1.14zm0 0" fill="none" stroke-width=".12" stroke-linecap="round" stroke-linejoin="round" stroke="green" stroke-miterlimit="10"/><path d="M399.36 351.719v-5.758M399.36 351.719h46.019" fill="none" stroke-width=".36000000000000004" stroke-linecap="round" stroke-linejoin="round" stroke="green" stroke-miterlimit="10"/><path d="M400.5 351.719a1.14 1.14 0 1 1-2.281 0c0-.63.511-1.14 1.14-1.14.63 0 1.141.51 1.141 1.14" fill-rule="evenodd" fill="green"/><path d="M400.5 351.719a1.14 1.14 0 1 1-2.281 0c0-.63.511-1.14 1.14-1.14.63 0 1.141.51 1.141 1.14zm0 0" fill="none" stroke-width=".12" stroke-linecap="round" stroke-linejoin="round" stroke="green" stroke-miterlimit="10"/><path d="M445.379 351.719h17.281M462.66 351.719h34.559M497.219 351.719h11.52M508.738 351.719h5.762M508.738 314.34v-2.88M508.738 314.34v37.379" fill="none" stroke-width=".36000000000000004" stroke-linecap="round" stroke-linejoin="round" stroke="green" stroke-miterlimit="10"/><path d="M509.879 351.719c0 .633-.508 1.14-1.14 1.14a1.136 1.136 0 0 1-1.137-1.14 1.139 1.139 0 1 1 2.277 0" fill-rule="evenodd" fill="green"/><path d="M509.879 351.719c0 .633-.508 1.14-1.14 1.14a1.136 1.136 0 0 1-1.137-1.14 1.139 1.139 0 1 1 2.277 0zm0 0" fill="none" stroke-width=".12" stroke-linecap="round" stroke-linejoin="round" stroke="green" stroke-miterlimit="10"/><path d="M497.219 311.46v40.259" fill="none" stroke-width=".36000000000000004" stroke-linecap="round" stroke-linejoin="round" stroke="green" stroke-miterlimit="10"/><path d="M498.36 351.719c0 .633-.508 1.14-1.141 1.14a1.14 1.14 0 1 1 0-2.28c.633 0 1.14.51 1.14 1.14" fill-rule="evenodd" fill="green"/><path d="M498.36 351.719c0 .633-.508 1.14-1.141 1.14a1.14 1.14 0 1 1 0-2.28c.633 0 1.14.51 1.14 1.14zm0 0" fill="none" stroke-width=".12" stroke-linecap="round" stroke-linejoin="round" stroke="green" stroke-miterlimit="10"/><path d="M445.379 340.2v11.519" fill="none" stroke-width=".36000000000000004" stroke-linecap="round" stroke-linejoin="round" stroke="green" stroke-miterlimit="10"/><path d="M446.52 351.719c0 .633-.508 1.14-1.141 1.14a1.14 1.14 0 1 1 0-2.28c.633 0 1.14.51 1.14 1.14" fill-rule="evenodd" fill="green"/><path d="M446.52 351.719c0 .633-.508 1.14-1.141 1.14a1.14 1.14 0 1 1 0-2.28c.633 0 1.14.51 1.14 1.14zm0 0" fill="none" stroke-width=".12" stroke-linecap="round" stroke-linejoin="round" stroke="green" stroke-miterlimit="10"/><path d="M462.66 328.68v23.039" fill="none" stroke-width=".36000000000000004" stroke-linecap="round" stroke-linejoin="round" stroke="green" stroke-miterlimit="10"/><path d="M463.8 351.719a1.14 1.14 0 1 1-2.28 0c0-.63.511-1.14 1.14-1.14.63 0 1.14.51 1.14 1.14" fill-rule="evenodd" fill="green"/><path d="M463.8 351.719a1.14 1.14 0 1 1-2.28 0c0-.63.511-1.14 1.14-1.14.63 0 1.14.51 1.14 1.14zm0 0" fill="none" stroke-width=".12" stroke-linecap="round" stroke-linejoin="round" stroke="green" stroke-miterlimit="10"/><path d="M399.36 322.98v-5.761M399.36 317.219h11.519M399.36 317.219v-23.04" fill="none" stroke-width=".36000000000000004" stroke-linecap="round" stroke-linejoin="round" stroke="green" stroke-miterlimit="10"/><path d="M400.5 317.219a1.14 1.14 0 1 1-2.281 0c0-.63.511-1.14 1.14-1.14.63 0 1.141.51 1.141 1.14" fill-rule="evenodd" fill="green"/><path d="M400.5 317.219a1.14 1.14 0 1 1-2.281 0c0-.63.511-1.14 1.14-1.14.63 0 1.141.51 1.141 1.14zm0 0" fill="none" stroke-width=".12" stroke-linecap="round" stroke-linejoin="round" stroke="green" stroke-miterlimit="10"/><path d="M451.14 317.219h-5.761M445.379 317.219v11.46M433.86 317.219h11.519" fill="none" stroke-width=".36000000000000004" stroke-linecap="round" stroke-linejoin="round" stroke="green" stroke-miterlimit="10"/><path d="M446.52 317.219c0 .633-.508 1.14-1.141 1.14a1.14 1.14 0 1 1 0-2.28c.633 0 1.14.51 1.14 1.14" fill-rule="evenodd" fill="green"/><path d="M446.52 317.219c0 .633-.508 1.14-1.141 1.14a1.14 1.14 0 1 1 0-2.28c.633 0 1.14.51 1.14 1.14zm0 0" fill="none" stroke-width=".12" stroke-linecap="round" stroke-linejoin="round" stroke="green" stroke-miterlimit="10"/><path d="M445.379 288.422v28.797" fill="none" stroke-width=".36000000000000004" stroke-linecap="round" stroke-linejoin="round" stroke="green" stroke-miterlimit="10"/><path d="M446.52 317.219c0 .633-.508 1.14-1.141 1.14a1.14 1.14 0 1 1 0-2.28c.633 0 1.14.51 1.14 1.14" fill-rule="evenodd" fill="green"/><path d="M446.52 317.219c0 .633-.508 1.14-1.141 1.14a1.14 1.14 0 1 1 0-2.28c.633 0 1.14.51 1.14 1.14zm0 0" fill="none" stroke-width=".12" stroke-linecap="round" stroke-linejoin="round" stroke="green" stroke-miterlimit="10"/><path d="M445.379 259.68h5.762M445.379 265.441v-5.761" fill="none" stroke-width=".36000000000000004" stroke-linecap="round" stroke-linejoin="round" stroke="green" stroke-miterlimit="10"/><path d="M446.52 259.68a1.14 1.14 0 1 1-2.282 0 1.14 1.14 0 1 1 2.281 0" fill-rule="evenodd" fill="green"/><path d="M446.52 259.68a1.14 1.14 0 1 1-2.282 0 1.14 1.14 0 1 1 2.281 0zm0 0" fill="none" stroke-width=".12" stroke-linecap="round" stroke-linejoin="round" stroke="green" stroke-miterlimit="10"/><path d="M399.36 259.68h46.019M399.36 271.14v-11.46M376.32 259.68h23.04" fill="none" stroke-width=".36000000000000004" stroke-linecap="round" stroke-linejoin="round" stroke="green" stroke-miterlimit="10"/><path d="M400.5 259.68c0 .629-.512 1.14-1.14 1.14-.63 0-1.141-.511-1.141-1.14 0-.63.511-1.14 1.14-1.14.63 0 1.141.51 1.141 1.14" fill-rule="evenodd" fill="green"/><path d="M400.5 259.68c0 .629-.512 1.14-1.14 1.14-.63 0-1.141-.511-1.141-1.14 0-.63.511-1.14 1.14-1.14.63 0 1.141.51 1.141 1.14zm0 0" fill="none" stroke-width=".12" stroke-linecap="round" stroke-linejoin="round" stroke="green" stroke-miterlimit="10"/></svg>