<svg xmlns="http://www.w3.org/2000/svg" xmlns:xlink="http://www.w3.org/1999/xlink" width="595pt" height="560" viewBox="0 0 595 420"><defs><symbol overflow="visible" id="a"><path d="M-.813 1.688v-.282H0V1.11h-.813V.063h-.328l-1.203 1.046v.297h1.281v.282zm-.25-.579h-.921l.921-.796zm0 0"/></symbol><symbol overflow="visible" id="b"><path d="M-2 1.656L0 .625V.297l-2.078 1.078V.156h-.266v1.5zm0 0"/></symbol><symbol overflow="visible" id="c"><path d="M0 1.594v-.297h-.203c.086-.094.148-.184.187-.266A.674.674 0 0 0 .016.547.527.527 0 0 0-.11.359.38.38 0 0 0-.313.25.893.893 0 0 0-.625.203h-1.14V.5h1c.093 0 .171.004.234.016.062 0 .12.015.172.046.043.02.074.051.093.094.024.04.032.098.032.172 0 .07-.02.149-.063.235-.039.082-.094.16-.156.234h-1.313v.297zm0 0"/></symbol><symbol overflow="visible" id="d"><path d="M-2.078 1.64V.548h.672v1.047h.281V.547H0V.234h-2.344v1.407zm0 0"/></symbol><symbol overflow="visible" id="e"><path d="M-2.453 1.156L.516.234V-.03l-2.97.906zm0 0"/></symbol><symbol overflow="visible" id="f"><path d="M0 1.5V.36h-.234V.78h-1.579V.36h-.218c0 .157-.02.274-.063.36-.05.07-.14.113-.265.125v.25h2.125V1.5zm0 0"/></symbol><symbol overflow="visible" id="g"><path d="M-.766 1.656a.961.961 0 0 0 .344-.062.528.528 0 0 0 .25-.157.666.666 0 0 0 .156-.234A.786.786 0 0 0 0 .625.756.756 0 0 0-.172.391.713.713 0 0 0-.5.203a1.887 1.887 0 0 0-.531-.062 1.53 1.53 0 0 0-.563.062 1.29 1.29 0 0 0-.422.188.966.966 0 0 0-.28.328c-.063.133-.095.289-.095.469v.156c.012.039.024.078.032.11h.296v-.016c-.007-.024-.023-.063-.046-.125a1.17 1.17 0 0 1-.016-.172.62.62 0 0 1 .203-.47c.125-.124.32-.198.578-.218a.716.716 0 0 0-.11.234.745.745 0 0 0-.046.266c0 .082.012.16.031.235a.88.88 0 0 0 .11.218.605.605 0 0 0 .25.188.9.9 0 0 0 .343.062zm.016-.312A.634.634 0 0 1-1 1.297a.32.32 0 0 1-.156-.125c-.032-.043-.055-.086-.078-.125C-1.242.984-1.25.926-1.25.875c0-.074.016-.148.047-.219.023-.062.055-.133.094-.203h.14C-.8.453-.664.47-.563.5c.094.031.168.07.22.125a.29.29 0 0 1 .109.14.31.31 0 0 1 .03.157.358.358 0 0 1-.14.297c-.094.082-.226.125-.406.125zm0 0"/></symbol><symbol overflow="visible" id="h"><path d="M-2.344 1.938L0 1.14V.797l-2.344-.813v.344l1.938.64-1.938.657zm0 0"/></symbol><symbol overflow="visible" id="i"><path d="M-1.172 1.64c.418 0 .727-.062.922-.187.2-.125.297-.312.297-.562C.047.629-.051.437-.25.312-.445.189-.754.126-1.172.126c-.426 0-.738.063-.937.188-.196.124-.297.316-.297.578 0 .25.105.437.312.562.211.125.516.188.922.188zm.719-.406c-.082.032-.18.051-.297.063a6.185 6.185 0 0 1-.844 0 1.03 1.03 0 0 1-.297-.063.387.387 0 0 1-.187-.14.34.34 0 0 1-.063-.203c0-.094.024-.168.063-.22a.387.387 0 0 1 .187-.14c.086-.031.184-.054.297-.062.125-.012.266-.016.422-.016.168 0 .305.004.406.016.118.008.215.031.297.062.086.031.149.07.188.125.043.063.062.14.062.235a.224.224 0 0 1-.062.203.362.362 0 0 1-.172.14zm0 0"/></symbol><symbol overflow="visible" id="j"><path d="M0 1.625V.172h-.328A9.33 9.33 0 0 0-.61.469c-.094.094-.188.18-.282.265-.195.176-.359.301-.484.375a.737.737 0 0 1-.36.094.428.428 0 0 1-.297-.11.814.814 0 0 1-.077-.14.841.841 0 0 1-.016-.156c0-.055.008-.11.016-.172.023-.055.043-.105.062-.156a.342.342 0 0 1 .063-.125c.023-.043.043-.078.062-.11V.22h-.344A1.453 1.453 0 0 0-2.359.5a1.232 1.232 0 0 0-.047.328c0 .219.058.39.172.516a.66.66 0 0 0 .484.187.95.95 0 0 0 .25-.031c.086-.031.156-.063.219-.094.062-.043.133-.09.203-.14.074-.055.14-.11.203-.172l.328-.328C-.43.64-.336.539-.266.469v1.156zm0 0"/></symbol><symbol overflow="visible" id="k"><path d="M-.75 1.594a.973.973 0 0 0 .313-.047.74.74 0 0 0 .25-.156.61.61 0 0 0 .171-.25.847.847 0 0 0 .063-.329C.047.696.035.587.016.484a1.954 1.954 0 0 0-.094-.28h-.344v.015a.25.25 0 0 1 .063.11c.023.038.043.085.062.14.024.062.04.117.047.172.023.05.031.109.031.171A.416.416 0 0 1-.266 1a.31.31 0 0 1-.109.156.438.438 0 0 1-.156.094.72.72 0 0 1-.422 0 .967.967 0 0 1-.14-.11.648.648 0 0 1-.079-.156.917.917 0 0 1-.031-.234c0-.086.012-.168.031-.25.012-.086.024-.152.031-.203h-1.203v1.281h.266V.594h.625v.11c0 .038-.004.077-.016.109 0 .113.012.21.032.296a.788.788 0 0 0 .125.25c.054.07.125.13.218.172.086.04.2.063.344.063zm0 0"/></symbol><symbol overflow="visible" id="B"><path d="M-.719 1.828a.796.796 0 0 0 .313-.062.724.724 0 0 0 .219-.172c.062-.094.109-.196.14-.297.031-.094.047-.227.047-.39V.233h-2.344V.86c0 .164.008.29.016.375a.92.92 0 0 0 .078.25.472.472 0 0 0 .172.188.634.634 0 0 0 .25.047.55.55 0 0 0 .297-.078.644.644 0 0 0 .218-.25.707.707 0 0 0 .22.328.61.61 0 0 0 .374.11zm-1.062-.437a.774.774 0 0 1-.14-.016.27.27 0 0 1-.095-.094.534.534 0 0 1-.062-.172V.547h.687v.36c0 .093-.004.163-.015.218a.52.52 0 0 1-.063.14.262.262 0 0 1-.125.11c-.05.008-.113.016-.187.016zm1.078.125a.433.433 0 0 1-.219-.047c-.062-.024-.113-.074-.156-.157a.676.676 0 0 1-.047-.156 2.019 2.019 0 0 1-.016-.25v-.36h.875v.266c0 .133-.004.239-.015.313-.02.082-.047.156-.078.219a.477.477 0 0 1-.141.125.924.924 0 0 1-.203.047zm0 0"/></symbol><symbol overflow="visible" id="C"><path d="M.047 1.156C.047 1 .02.86-.031.734A.724.724 0 0 0-.266.406 1.045 1.045 0 0 0-.64.187 1.6 1.6 0 0 0-1.17.11c-.196 0-.368.024-.516.079-.145.039-.274.109-.391.203a.928.928 0 0 0-.235.343c-.05.125-.078.266-.078.422 0 .082.008.16.016.235.012.062.027.125.047.187.012.05.027.102.047.156l.094.157h.374v-.032a.388.388 0 0 1-.093-.109.69.69 0 0 1-.11-.156 1.041 1.041 0 0 1-.078-.188.972.972 0 0 1-.031-.25.702.702 0 0 1 .234-.516.738.738 0 0 1 .313-.156c.117-.043.25-.062.406-.062.156 0 .293.02.406.062.125.04.227.094.297.157.086.07.149.148.188.234a.885.885 0 0 1 .047.281.827.827 0 0 1-.032.25.76.76 0 0 1-.078.203.586.586 0 0 1-.11.157c-.03.039-.054.07-.077.093v.032h.375c.023-.055.043-.102.062-.141.024-.055.043-.11.063-.172a1.16 1.16 0 0 0 .062-.187c.008-.063.016-.141.016-.235zm0 0"/></symbol><symbol overflow="visible" id="D"><path d="M-2.125.813c0-.063.008-.122.016-.172l.062-.172a2.172 2.172 0 0 1 .125-.234V.218h-.328A1 1 0 0 0-2.36.5a1.232 1.232 0 0 0-.015.61c.031.081.07.156.11.218a.799.799 0 0 0 .187.156.57.57 0 0 0 .25.047.485.485 0 0 0 .328-.125.486.486 0 0 0 .188-.297h.03l.048.157c.023.05.058.101.109.156.043.039.102.078.172.11a.83.83 0 0 0 .547 0A.774.774 0 0 0 0 1.125C.031 1.03.047.921.047.795.047.68.03.567 0 .454A.83.83 0 0 0-.094.156h-.328v.016c.043.062.086.148.125.266A.774.774 0 0 1-.219.78.525.525 0 0 1-.25.97a.31.31 0 0 1-.11.156.345.345 0 0 1-.156.11.568.568 0 0 1-.203.03.487.487 0 0 1-.219-.046.34.34 0 0 1-.125-.094.376.376 0 0 1-.062-.156 1.65 1.65 0 0 1-.016-.203V.64h-.265v.093a.57.57 0 0 1-.094.344.353.353 0 0 1-.297.14.37.37 0 0 1-.156-.03.415.415 0 0 1-.156-.219c-.008-.055-.016-.106-.016-.157zm0 0"/></symbol><symbol overflow="visible" id="H"><path d="M0 1.594V.234h-2.344v.313H-.28v1.047zm0 0"/></symbol><symbol overflow="visible" id="l"><path d="M1.5 0H.36v.234H.78v1.579H.36v.218c.157 0 .274.02.36.063.07.05.113.14.125.265h.25V.234H1.5zm0 0"/></symbol><symbol overflow="visible" id="m"><path d="M1.922 0h-.36L.532 2.031V0H.233v2.344h.454l.937-1.86v1.86h.297zm0 0"/></symbol><symbol overflow="visible" id="n"><path d="M1.688.813h-.282V0H1.11v.813H.063v.328l1.046 1.203h.297V1.063h.282zm-.579.25v.921l-.796-.921zm0 0"/></symbol><symbol overflow="visible" id="o"><path d="M1.281 1.797c0 .101-.039.191-.11.266a.414.414 0 0 1-.296.109.408.408 0 0 1-.281-.094.312.312 0 0 1-.11-.25c0-.086.02-.152.063-.203a.357.357 0 0 1 .172-.14c.031-.024.078-.048.14-.079.07-.031.133-.058.188-.078.094.07.156.145.187.219a.62.62 0 0 1 .047.25zM1.328.625a.435.435 0 0 1-.062.234.607.607 0 0 1-.22.172.849.849 0 0 1-.14.063 1.94 1.94 0 0 0-.203.078A.63.63 0 0 1 .5.969.71.71 0 0 1 .437.672c0-.149.04-.262.126-.344A.414.414 0 0 1 .89.188c.125 0 .226.035.312.109a.445.445 0 0 1 .125.328zM.891-.047C.766-.047.656-.03.562 0a.602.602 0 0 0-.25.156.586.586 0 0 0-.14.219.596.596 0 0 0-.063.281A.58.58 0 0 0 .22 1c.07.102.172.188.297.25v.016a.754.754 0 0 0-.266.218.518.518 0 0 0-.078.297c0 .176.066.328.203.453a.768.768 0 0 0 .516.172.72.72 0 0 0 .5-.172A.548.548 0 0 0 1.5 1.5a.683.683 0 0 0-.266-.25c.133-.074.239-.152.313-.234a.587.587 0 0 0 .11-.36c0-.199-.075-.367-.22-.5a.805.805 0 0 0-.546-.203zm0 0"/></symbol><symbol overflow="visible" id="p"><path d="M1.734 0H.094v.297l1.265 1.781H.156v.266h1.547v-.281L.437.28h1.297zm0 0"/></symbol><symbol overflow="visible" id="q"><path d="M2.047 1.234H.297v.25h1.75zm0-.656H.297v.25h1.75zm0 0"/></symbol><symbol overflow="visible" id="r"><path d="M.813 2.125c-.063 0-.122-.008-.172-.016l-.172-.062a2.172 2.172 0 0 1-.234-.125H.218v.328a1 1 0 0 0 .281.11 1.232 1.232 0 0 0 .61.015c.081-.031.156-.07.218-.11a.799.799 0 0 0 .156-.187.57.57 0 0 0 .047-.25.485.485 0 0 0-.125-.328.486.486 0 0 0-.297-.188v-.03l.157-.048a.602.602 0 0 0 .156-.109.651.651 0 0 0 .11-.172.83.83 0 0 0 0-.547A.774.774 0 0 0 1.125 0a1.039 1.039 0 0 0-.33-.047C.68-.047.567-.03.454 0a.83.83 0 0 0-.297.094v.328h.016A1.06 1.06 0 0 1 .438.297.774.774 0 0 1 .78.219C.844.219.906.227.97.25a.31.31 0 0 1 .156.11c.05.038.086.093.11.156.019.05.03.117.03.203a.487.487 0 0 1-.046.219.34.34 0 0 1-.094.125.376.376 0 0 1-.156.062 1.65 1.65 0 0 1-.203.016H.64v.265h.093a.57.57 0 0 1 .344.094c.094.07.14.172.14.297a.37.37 0 0 1-.03.156.415.415 0 0 1-.219.156c-.055.008-.106.016-.157.016zm0 0"/></symbol><symbol overflow="visible" id="s"><path d="M.672 0H.297v.453h.375zm0 0"/></symbol><symbol overflow="visible" id="t"><path d="M1.64 1.172c0-.418-.062-.727-.187-.922-.125-.2-.312-.297-.562-.297-.262 0-.454.098-.579.297-.124.195-.187.504-.187.922 0 .426.063.738.188.937.124.196.316.297.578.297.25 0 .437-.105.562-.312.125-.211.188-.516.188-.922zM1.235.453c.032.082.051.18.063.297.008.125.016.266.016.422 0 .164-.008.305-.016.422a1.03 1.03 0 0 1-.063.297.387.387 0 0 1-.14.187.34.34 0 0 1-.203.063.355.355 0 0 1-.22-.063.387.387 0 0 1-.14-.187 1.076 1.076 0 0 1-.062-.297 4.605 4.605 0 0 1-.016-.422c0-.168.004-.305.016-.406C.477.648.5.55.53.469A.378.378 0 0 1 .656.28.404.404 0 0 1 .891.22a.224.224 0 0 1 .203.062c.062.04.11.098.14.172zm0 0"/></symbol><symbol overflow="visible" id="u"><path d="M1.938 2.344L1.14 0H.797l-.813 2.344h.344L.968.406l.657 1.938zm0 0"/></symbol><symbol overflow="visible" id="v"><path d="M1.156 2.453L.234-.516H-.03l.906 2.97zm0 0"/></symbol><symbol overflow="visible" id="w"><path d="M2.219 0v1.016c0 .082-.008.16-.016.234a.37.37 0 0 1-.031.156.27.27 0 0 1-.094.094.37.37 0 0 1-.156.031.434.434 0 0 1-.203-.062 1.17 1.17 0 0 1-.219-.157c.008-.023.016-.042.016-.062V0h-.297v1.016c0 .082-.008.16-.016.234a.37.37 0 0 1-.031.156.27.27 0 0 1-.094.094.37.37 0 0 1-.156.031.434.434 0 0 1-.203-.062.972.972 0 0 1-.203-.157V0H.219v1.766h.297v-.204c.07.083.148.145.234.188a.515.515 0 0 0 .516-.016.42.42 0 0 0 .187-.218c.094.093.18.164.266.218.082.051.176.079.281.079a.69.69 0 0 0 .203-.032.491.491 0 0 0 .156-.125.505.505 0 0 0 .11-.187.908.908 0 0 0 .047-.313V0zm0 0"/></symbol><symbol overflow="visible" id="x"><path d="M2.875 2.344L2.281 0h-.344l-.484 1.953L.984 0H.641L.047 2.344h.312L.83.39l.484 1.953h.312L2.094.375l.469 1.969zm0 0"/></symbol><symbol overflow="visible" id="y"><path d="M1.672 0h-.39L.624.844l-.11-.11V0H.22v2.453h.297V1.016l.687.75h.375L.86 1.03zm0 0"/></symbol><symbol overflow="visible" id="z"><path d="M1.656.766a.961.961 0 0 0-.062-.344.528.528 0 0 0-.157-.25.666.666 0 0 0-.234-.156A.786.786 0 0 0 .625 0a.756.756 0 0 0-.234.172A.713.713 0 0 0 .203.5C.16.645.141.82.141 1.031a1.53 1.53 0 0 0 .062.563c.04.156.102.297.188.422a.966.966 0 0 0 .328.28c.133.063.289.095.469.095h.156c.039-.012.078-.024.11-.032v-.296h-.016c-.024.007-.063.023-.125.046a1.17 1.17 0 0 1-.172.016.62.62 0 0 1-.47-.203c-.124-.125-.198-.32-.218-.578.07.05.149.086.234.11a.745.745 0 0 0 .266.046c.082 0 .16-.012.235-.031a.88.88 0 0 0 .218-.11.605.605 0 0 0 .188-.25.9.9 0 0 0 .062-.343zM1.344.75a.634.634 0 0 1-.047.25.32.32 0 0 1-.125.156c-.043.032-.086.055-.125.078-.063.008-.121.016-.172.016a.538.538 0 0 1-.219-.047 1.527 1.527 0 0 1-.203-.094v-.062-.078C.453.8.47.664.5.563a.513.513 0 0 1 .125-.22.29.29 0 0 1 .14-.109.31.31 0 0 1 .157-.03c.125 0 .223.046.297.14.082.094.125.226.125.406zm0 0"/></symbol><symbol overflow="visible" id="A"><path d="M1.594.75a.973.973 0 0 0-.047-.313.74.74 0 0 0-.156-.25.61.61 0 0 0-.25-.171.847.847 0 0 0-.329-.063c-.117 0-.226.012-.328.031-.117.032-.21.063-.28.094v.344h.015a.25.25 0 0 1 .11-.063.795.795 0 0 1 .14-.062A.813.813 0 0 1 .64.25.409.409 0 0 1 .812.219c.063 0 .125.015.188.047a.31.31 0 0 1 .156.109c.04.04.07.094.094.156a.72.72 0 0 1 0 .422.967.967 0 0 1-.11.14.648.648 0 0 1-.156.079.917.917 0 0 1-.234.031c-.086 0-.168-.012-.25-.031C.414 1.16.348 1.148.297 1.14v1.203h1.281v-.266H.594v-.625h.11c.038 0 .077.004.109.016.113 0 .21-.012.296-.032a.788.788 0 0 0 .25-.125.573.573 0 0 0 .172-.218c.04-.086.063-.2.063-.344zm0 0"/></symbol><symbol overflow="visible" id="E"><path d="M1.156-.047C1-.047.86-.02.734.031a.724.724 0 0 0-.328.235A1.045 1.045 0 0 0 .187.64a1.6 1.6 0 0 0-.078.53c0 .196.024.368.079.516.039.145.109.274.203.391.093.102.207.18.343.235.125.05.266.078.422.078.082 0 .16-.008.235-.016.062-.012.125-.027.187-.047.05-.012.102-.027.156-.047l.157-.094v-.374h-.032a.388.388 0 0 1-.109.093.69.69 0 0 1-.156.11 1.041 1.041 0 0 1-.188.078.972.972 0 0 1-.25.031.702.702 0 0 1-.516-.234.738.738 0 0 1-.156-.313 1.168 1.168 0 0 1-.062-.406c0-.156.02-.293.062-.406A.815.815 0 0 1 .641.469.655.655 0 0 1 .875.28a.885.885 0 0 1 .281-.047c.094 0 .176.008.25.032a.76.76 0 0 1 .203.078.586.586 0 0 1 .157.11c.039.03.07.054.093.077h.032V.156C1.836.133 1.789.113 1.75.094A1.758 1.758 0 0 0 1.578.03a1.16 1.16 0 0 0-.187-.062 1.847 1.847 0 0 0-.235-.016zm0 0"/></symbol><symbol overflow="visible" id="F"><path d="M1.625 0H.172v.328C.273.43.375.523.469.61c.094.094.18.188.265.282.176.195.301.359.375.484a.737.737 0 0 1 .094.36.428.428 0 0 1-.11.297.814.814 0 0 1-.14.077.841.841 0 0 1-.156.016c-.055 0-.11-.008-.172-.016a4.337 4.337 0 0 0-.156-.062.342.342 0 0 1-.125-.063 2.172 2.172 0 0 1-.11-.062H.22v.344c.062.03.156.062.281.093.113.032.223.047.328.047.219 0 .39-.058.516-.172a.66.66 0 0 0 .187-.484.95.95 0 0 0-.031-.25 2.037 2.037 0 0 0-.094-.219c-.043-.062-.09-.133-.14-.203a1.746 1.746 0 0 0-.172-.203L.766.547C.64.43.539.336.469.266h1.156zm0 0"/></symbol><symbol overflow="visible" id="G"><path d="M2.094 1.172c0-.219-.043-.414-.125-.578a1.049 1.049 0 0 0-.36-.406A1.211 1.211 0 0 0 1.25.03 2.651 2.651 0 0 0 .781 0H.234v2.344h.547c.219 0 .39-.016.516-.047.125-.031.226-.074.312-.125.157-.106.274-.242.36-.406.082-.168.125-.368.125-.594zm-.328 0c0 .187-.032.344-.094.469a.63.63 0 0 1-.266.296.979.979 0 0 1-.265.11 1.72 1.72 0 0 1-.344.031h-.25V.266h.25c.133 0 .254.007.36.03a.783.783 0 0 1 .531.422c.05.126.078.274.078.454zm0 0"/></symbol><symbol overflow="visible" id="I"><path d="M2.063 0h-.407l-.75.938h-.36V0H.235v2.344h.61c.133 0 .25-.008.344-.016a.68.68 0 0 0 .25-.094.897.897 0 0 0 .203-.218.706.706 0 0 0 .062-.297.726.726 0 0 0-.125-.438.791.791 0 0 0-.36-.265zM1.39 1.688c-.012.07-.028.132-.047.187a.281.281 0 0 1-.11.125.376.376 0 0 1-.156.063 1.74 1.74 0 0 1-.219.015H.547v-.875h.281c.082 0 .16.004.235.016.07.02.132.05.187.093.04.04.078.094.11.157.007.062.019.133.03.218zm0 0"/></symbol><symbol overflow="visible" id="J"><path d="M.781 0v2.078H0v.266h1.89v-.266h-.796V0zm0 0"/></symbol><clipPath id="K"><path d="M247.121 180h100.8v1h-100.8zm0 0"/></clipPath><clipPath id="L"><path d="M347 180h.922v58H347zm0 0"/></clipPath><clipPath id="M"><path d="M247.121 237h100.8v1h-100.8zm0 0"/></clipPath><clipPath id="N"><path d="M247.121 180H248v58h-.879zm0 0"/></clipPath></defs><use xlink:href="#a" x="261.623" y="216.004" fill="#505050"/><use xlink:href="#b" x="261.623" y="217.744" fill="#505050"/><use xlink:href="#c" x="261.623" y="219.484" fill="#505050"/><use xlink:href="#d" x="261.623" y="221.284" fill="#505050"/><use xlink:href="#e" x="261.623" y="222.964" fill="#505050"/><use xlink:href="#f" x="261.623" y="224.224" fill="#505050"/><use xlink:href="#g" x="261.623" y="225.964" fill="#505050"/><use xlink:href="#h" x="261.623" y="227.704" fill="#505050"/><use xlink:href="#f" x="340.728" y="216.004" fill="#505050"/><use xlink:href="#i" x="340.728" y="217.744" fill="#505050"/><use xlink:href="#c" x="340.728" y="219.484" fill="#505050"/><use xlink:href="#d" x="340.728" y="221.284" fill="#505050"/><use xlink:href="#e" x="340.728" y="222.964" fill="#505050"/><use xlink:href="#j" x="340.728" y="224.224" fill="#505050"/><use xlink:href="#k" x="340.728" y="225.964" fill="#505050"/><use xlink:href="#h" x="340.728" y="227.704" fill="#505050"/><use xlink:href="#l" x="317.35" y="226.034" fill="#505050"/><use xlink:href="#m" x="319.09" y="226.034" fill="#505050"/><use xlink:href="#n" x="321.25" y="226.034" fill="#505050"/><use xlink:href="#l" x="322.99" y="226.034" fill="#505050"/><use xlink:href="#n" x="324.73" y="226.034" fill="#505050"/><use xlink:href="#o" x="326.47" y="226.034" fill="#505050"/><use xlink:href="#p" x="301.266" y="214.206" fill="#505050"/><use xlink:href="#q" x="303.066" y="214.206" fill="#505050"/><use xlink:href="#l" x="305.407" y="214.206" fill="#505050"/><use xlink:href="#r" x="307.146" y="214.206" fill="#505050"/><use xlink:href="#s" x="308.887" y="214.206" fill="#505050"/><use xlink:href="#t" x="309.846" y="214.206" fill="#505050"/><use xlink:href="#u" x="311.587" y="214.206" fill="#505050"/><use xlink:href="#v" x="313.507" y="214.206" fill="#505050"/><use xlink:href="#n" x="314.766" y="214.206" fill="#505050"/><use xlink:href="#t" x="316.507" y="214.206" fill="#505050"/><use xlink:href="#t" x="318.247" y="214.206" fill="#505050"/><use xlink:href="#w" x="319.987" y="214.206" fill="#505050"/><use xlink:href="#x" x="322.687" y="214.206" fill="#505050"/><use xlink:href="#l" x="278.594" y="200.26" fill="#505050"/><use xlink:href="#t" x="280.335" y="200.26" fill="#505050"/><use xlink:href="#y" x="282.075" y="200.26" fill="#505050"/><use xlink:href="#l" x="278.594" y="200.26" fill="#505050"/><use xlink:href="#t" x="280.335" y="200.26" fill="#505050"/><use xlink:href="#y" x="282.075" y="200.26" fill="#505050"/><use xlink:href="#z" x="278.594" y="193.072" fill="#505050"/><use xlink:href="#s" x="280.335" y="193.072" fill="#505050"/><use xlink:href="#o" x="281.295" y="193.072" fill="#505050"/><use xlink:href="#z" x="278.595" y="193.072" fill="#505050"/><use xlink:href="#s" x="280.335" y="193.072" fill="#505050"/><use xlink:href="#o" x="281.295" y="193.072" fill="#505050"/><use xlink:href="#l" x="300.169" y="207.449" fill="#505050"/><use xlink:href="#y" x="301.909" y="207.449" fill="#505050"/><use xlink:href="#l" x="300.169" y="207.449" fill="#505050"/><use xlink:href="#y" x="301.909" y="207.449" fill="#505050"/><use xlink:href="#l" x="304.274" y="222.278" fill="#505050"/><use xlink:href="#A" x="306.014" y="222.278" fill="#505050"/><use xlink:href="#y" x="307.754" y="222.278" fill="#505050"/><use xlink:href="#l" x="304.274" y="222.278" fill="#505050"/><use xlink:href="#A" x="306.014" y="222.278" fill="#505050"/><use xlink:href="#y" x="307.754" y="222.278" fill="#505050"/><use xlink:href="#B" x="303.574" y="189.938" fill="#505050"/><use xlink:href="#C" x="303.574" y="191.858" fill="#505050"/><use xlink:href="#D" x="303.574" y="193.778" fill="#505050"/><use xlink:href="#D" x="303.574" y="195.518" fill="#505050"/><use xlink:href="#b" x="303.574" y="197.258" fill="#505050"/><use xlink:href="#B" x="282" y="211.504" fill="#505050"/><use xlink:href="#C" x="282" y="213.424" fill="#505050"/><use xlink:href="#D" x="282" y="215.344" fill="#505050"/><use xlink:href="#D" x="282" y="217.084" fill="#505050"/><use xlink:href="#b" x="282" y="218.824" fill="#505050"/><use xlink:href="#C" x="253.115" y="201.561" fill="#505050"/><use xlink:href="#f" x="253.115" y="203.481" fill="#505050"/><use xlink:href="#E" x="315.559" y="205.939" fill="#505050"/><use xlink:href="#F" x="317.479" y="205.939" fill="#505050"/><use xlink:href="#C" x="332.221" y="201.561" fill="#505050"/><use xlink:href="#D" x="332.221" y="203.481" fill="#505050"/><use xlink:href="#G" x="314.116" y="232.538" fill="#505050"/><use xlink:href="#l" x="316.336" y="232.538" fill="#505050"/><use xlink:href="#G" x="321.667" y="201.503" fill="#505050"/><use xlink:href="#F" x="323.887" y="201.503" fill="#505050"/><use xlink:href="#H" x="274.69" y="235.772" fill="#505050"/><use xlink:href="#f" x="274.69" y="237.392" fill="#505050"/><use xlink:href="#I" x="276.006" y="205.292" fill="#505050"/><use xlink:href="#l" x="278.046" y="205.292" fill="#505050"/><use xlink:href="#I" x="276.006" y="205.292" fill="#505050"/><use xlink:href="#l" x="278.046" y="205.292" fill="#505050"/><use xlink:href="#I" x="276.006" y="198.103" fill="#505050"/><use xlink:href="#F" x="278.046" y="198.103" fill="#505050"/><use xlink:href="#I" x="276.006" y="198.103" fill="#505050"/><use xlink:href="#F" x="278.046" y="198.103" fill="#505050"/><use xlink:href="#I" x="297.58" y="212.481" fill="#505050"/><use xlink:href="#r" x="299.62" y="212.481" fill="#505050"/><use xlink:href="#I" x="297.58" y="212.481" fill="#505050"/><use xlink:href="#r" x="299.62" y="212.481" fill="#505050"/><use xlink:href="#I" x="308.183" y="217.246" fill="#505050"/><use xlink:href="#n" x="310.223" y="217.246" fill="#505050"/><use xlink:href="#I" x="308.183" y="217.246" fill="#505050"/><use xlink:href="#n" x="310.223" y="217.246" fill="#505050"/><use xlink:href="#J" x="305.848" y="193.297" fill="#505050"/><use xlink:href="#l" x="307.768" y="193.297" fill="#505050"/><use xlink:href="#J" x="284.274" y="214.863" fill="#505050"/><use xlink:href="#F" x="286.194" y="214.863" fill="#505050"/><path d="M254.441 208.8h1.918M256.36 208.8v-2.519M256.36 206.281h1.081M257.441 206.281v5.04M257.441 211.32h-1.082M256.36 211.32v-2.52M261.64 208.8h-1.98M259.66 208.8v2.52M259.66 211.32h-1.082M258.578 211.32v-5.039M258.578 206.281h1.082M259.66 206.281v2.52M333.52 208.8h1.98M335.5 208.8v-2.519M335.5 206.281h1.078M336.578 206.281v5.04M336.578 211.32H335.5M335.5 211.32v-2.52M340.719 208.8H338.8M338.8 208.8v2.52M338.8 211.32h-1.081M337.719 211.32v-5.039M337.719 206.281h1.082M338.8 206.281v2.52" fill="none" stroke-width=".48" stroke-linecap="round" stroke-linejoin="round" stroke="#505050" stroke-miterlimit="10"/><path d="M311.98 230.398h1.801" fill="none" stroke-width=".36000000000000004" stroke-linecap="round" stroke-linejoin="round" stroke="#505050" stroke-miterlimit="10"/><path d="M323.621 230.398h-.723M322.898 230.398h-2.636" fill="none" stroke-width=".24" stroke-linecap="round" stroke-linejoin="round" stroke="#505050" stroke-miterlimit="10"/><path d="M333.52 230.398h-1.801M326.32 194.46v2.52M326.32 223.2v-2.52" fill="none" stroke-width=".36000000000000004" stroke-linecap="round" stroke-linejoin="round" stroke="#505050" stroke-miterlimit="10"/><path d="M326.32 209.7v-.72M326.32 208.98v-2.699" fill="none" stroke-width=".24" stroke-linecap="round" stroke-linejoin="round" stroke="#505050" stroke-miterlimit="10"/><path d="M297.578 201.602h-6.117M268.84 201.602h6.058M297.578 194.46h-6.117M268.84 194.46h6.058M319.18 208.8h-6.121M290.379 208.8h6.121M290.379 223.2h6.121M319.18 223.2h-6.121" fill="none" stroke-width="1.4400000000000002" stroke-linecap="round" stroke-linejoin="round" stroke="#505050" stroke-miterlimit="10"/><path d="M344.8 227.281v1.078M344.32 227.82h1.02M344.559 228.84l-.54.539M344.02 229.379h1.62M345.64 228.84v1.082M345.64 231.48v-1.02M345.64 230.46l-1.081 1.02M344.559 231.48h-.239M344.32 231.48l-.3-.242M344.02 231.238v-.539M344.02 230.7l.3-.24M344.02 232.02h1.082M345.102 232.02l.539.539M345.64 232.559l-.538.543M345.102 233.102h-1.082M250.36 228.059v1.082M249.82 228.602h1.02M249.52 230.7v-1.02M249.52 229.68h.84M250.36 229.68l-.301.48M250.059 230.16v.3M250.059 230.46l.3.24M250.36 230.7h.48M250.84 230.7l.3-.24M251.14 230.46v-.538M251.14 229.922l-.3-.242M249.52 231.238h1.082M250.602 231.238l.539.543M251.14 231.781l-.538.54M250.602 232.32h-1.082" fill="none" stroke-width=".18000000000000002" stroke-linecap="round" stroke-linejoin="round" stroke="#505050" stroke-miterlimit="10"/><path d="M254.621 212.398h.54M255.16 211.86v.538M255.16 212.398h.54M255.16 212.398v.543M252.219 208.8a5.759 5.759 0 1 1 11.52 0 5.758 5.758 0 0 1-5.759 5.759 5.761 5.761 0 0 1-5.761-5.758zm0 0" fill="none" stroke-width=".48" stroke-linecap="round" stroke-linejoin="round" stroke="#505050" stroke-miterlimit="10"/><path d="M259.48 206.52h-.718v4.562h.718zm0 0" fill="#505050" stroke-width=".12" stroke-linecap="round" stroke-linejoin="round" stroke="#505050" stroke-miterlimit="10"/><path d="M320.98 195.3h-1.8M319.18 195.3h-1.801" fill="none" stroke-width=".9" stroke-linecap="round" stroke-linejoin="round" stroke="#505050" stroke-miterlimit="10"/><path d="M319.18 195.3v3.481" fill="none" stroke-width=".48" stroke-linecap="round" stroke-linejoin="round" stroke="#505050" stroke-miterlimit="10"/><path d="M320.98 193.5h-1.8M319.18 193.5h-1.801" fill="none" stroke-width=".9" stroke-linecap="round" stroke-linejoin="round" stroke="#505050" stroke-miterlimit="10"/><path d="M319.18 193.5v-3.36M322.059 204.84H316.3M315.578 204.121v-19.383M316.3 184.02h5.759M322.719 184.738v19.383M322.059 184.02l.242.058.238.121.18.242v.297M315.578 184.738l.063-.297.12-.242.239-.12.3-.06M316.3 204.84l-.3-.059-.238-.12-.121-.24-.063-.3M322.719 204.121v.3l-.18.24-.238.12-.242.059M333.7 212.398h.538M334.238 211.86v.538M334.238 212.398h.543M334.238 212.398v.543M331.3 208.8a5.76 5.76 0 1 1 11.52-.004 5.76 5.76 0 0 1-11.52.005zm0 0" fill="none" stroke-width=".48" stroke-linecap="round" stroke-linejoin="round" stroke="#505050" stroke-miterlimit="10"/><path d="M338.559 206.52h-.72v4.562h.72zm0 0M319 230.102h-5.16v.597H319zm0 0" fill="#505050" stroke-width=".12" stroke-linecap="round" stroke-linejoin="round" stroke="#505050" stroke-miterlimit="10"/><path d="M324.879 228.602l.48.058.422.18.297.36.184.359.058.48M326.32 230.762l-.058.418-.184.422-.297.296-.422.18-.48.121M320.621 232.2l-.48-.122-.422-.18-.297-.296-.184-.422-.058-.418M319.18 230.04l.058-.481.184-.36.297-.36.422-.179.48-.058M326.32 230.762v-.723M320.621 228.602h4.258M320.621 232.2h4.258M319.18 230.762v-.723" fill="none" stroke-width=".30000000000000004" stroke-linecap="round" stroke-linejoin="round" stroke="#505050" stroke-miterlimit="10"/><path d="M320.98 229.32v2.16M320.98 231.48l1.918-1.082M322.898 230.398l-1.918-1.078M322.898 229.32v1.078M322.898 230.398v1.082" fill="none" stroke-width=".24" stroke-linecap="round" stroke-linejoin="round" stroke="#505050" stroke-miterlimit="10"/><path d="M325.059 228.602h-.72v3.597h.72zm0 0M331.66 230.102h-5.16v.597h5.16zm0 0" fill="#505050" stroke-width=".12" stroke-linecap="round" stroke-linejoin="round" stroke="#505050" stroke-miterlimit="10"/><path d="M328.121 210.96l-.062.481-.18.36-.3.36-.419.179-.48.058M325.96 212.398l-.42-.058-.419-.18-.3-.36-.18-.359-.121-.48M324.52 206.64l.12-.421.18-.418.301-.301.418-.18.422-.12M326.68 205.2l.48.12.418.18.3.3.18.419.063.422M325.96 212.398h.72M328.121 206.64v4.32M324.52 206.64v4.32M325.96 205.2h.72" fill="none" stroke-width=".30000000000000004" stroke-linecap="round" stroke-linejoin="round" stroke="#505050" stroke-miterlimit="10"/><path d="M327.398 207h-2.16M325.238 207l1.082 1.98M326.32 208.98l1.078-1.98M327.398 208.98h-1.078M326.32 208.98h-1.082M327.398 208.98v-.902" fill="none" stroke-width=".24" stroke-linecap="round" stroke-linejoin="round" stroke="#505050" stroke-miterlimit="10"/><path d="M328.121 210.422h-3.601v.719h3.601zm0 0M326.738 195.602h-.597v9.597h.597zm0 0M326.559 212.398h-.598V222h.598zm0 0" fill="#505050" stroke-width=".12" stroke-linecap="round" stroke-linejoin="round" stroke="#505050" stroke-miterlimit="10"/><path d="M249.82 186l-.3-.3M249.52 185.7v-.481M249.52 185.219l.3-.297M249.82 184.922h1.02M250.84 184.922l.3.297M251.14 185.219v.48M251.14 185.7l-.3.3M250.84 186h-.48M250.36 186v-.54M251.14 186.54h-1.62M249.52 186.54l1.62 1.019M251.14 187.559h-1.62M249.52 188.102h1.62M251.14 188.102v.777M251.14 188.879l-.3.3M250.84 189.18h-1.02M249.82 189.18l-.3-.301M249.52 188.879v-.777M344.32 185.219l-.3-.297M344.02 184.922v-.543M344.02 184.379l.3-.238M344.32 184.14h1.02M345.34 184.14l.3.239M345.64 184.379v.543M345.64 184.922l-.3.297M345.34 185.219h-.54M344.8 185.219v-.54M345.64 185.762h-1.62M344.02 185.762l1.62 1.02M345.64 186.781h-1.62M344.02 187.32h1.62M345.64 187.32v.782M345.64 188.102l-.3.296M345.34 188.398h-1.02M344.32 188.398l-.3-.296M344.02 188.102v-.782M345.64 189.96v-1.081M345.64 188.879l-1.081 1.082M344.559 189.96h-.239M344.32 189.96l-.3-.241M344.02 189.719v-.54M344.02 189.18l.3-.301" fill="none" stroke-width=".18000000000000002" stroke-linecap="round" stroke-linejoin="round" stroke="#505050" stroke-miterlimit="10"/><path d="M271.898 229.14l.48.06.36.3.301.422.063.476M273.102 230.398v.422l-.18.36-.3.3-.36.239-.364.12M270.281 229.14l.48.06.36.3.3.422.118.476M271.54 230.398l-.118.422-.184.418-.297.301-.421.18-.418.12M268.48 229.14l.48.06.481.241.297.418.184.54" fill="none" stroke-width=".36000000000000004" stroke-linecap="round" stroke-linejoin="round" stroke="#505050" stroke-miterlimit="10"/><path d="M269.922 230.398l-.121.422-.18.418-.3.301-.423.18-.418.12M266.86 229.14l.48.06.36.3.3.422.121.476M268.121 230.398l-.062.422-.18.36-.238.3-.422.239-.36.12M266.86 231.84v-1.442M265.602 230.398l.058-.476.3-.422.419-.3.48-.06M265.602 230.398h-3.961M275.98 230.398h-2.878" fill="none" stroke-width=".36000000000000004" stroke-linecap="round" stroke-linejoin="round" stroke="#505050" stroke-miterlimit="10"/><path d="M276.7 204.48l-.24-.058-.241-.121-.18-.242-.059-.297M275.98 199.441l.06-.242.179-.238.242-.18h.238M289.66 198.781h.3l.24.18.12.238.059.242M290.379 203.762l-.059.297-.12.242-.24.12-.3.06" fill="none" stroke-width=".48" stroke-linecap="round" stroke-linejoin="round" stroke="#505050" stroke-miterlimit="10"/><path d="M291.46 200.879h-1.081v1.441h1.082zm0 0M275.98 200.879h-1.082v1.441h1.082zm0 0" fill="#505050" stroke-width=".12" stroke-linecap="round" stroke-linejoin="round" stroke="#505050" stroke-miterlimit="10"/><path d="M276.7 204.48l-.24-.058-.241-.121-.18-.242-.059-.297M275.98 199.441l.06-.242.179-.238.242-.18h.238M289.66 198.781h.3l.24.18.12.238.059.242M290.379 203.762l-.059.297-.12.242-.24.12-.3.06M275.98 199.441v4.32M276.7 204.48h1.081M278.14 204.121l-.359.36M276.7 198.781h1.081M278.14 199.14l-.359-.359M288.219 204.121l.36.36M288.219 204.121H278.14M288.219 199.14l.36-.359M288.219 199.14H278.14M289.66 204.48h-1.082M289.66 198.781h-1.082M290.379 199.441v4.32" fill="none" stroke-width=".48" stroke-linecap="round" stroke-linejoin="round" stroke="#505050" stroke-miterlimit="10"/><path d="M291.46 200.879h-1.081v1.441h1.082zm0 0M275.98 200.879h-1.082v1.441h1.082zm0 0" fill="#505050" stroke-width=".12" stroke-linecap="round" stroke-linejoin="round" stroke="#505050" stroke-miterlimit="10"/><path d="M276.7 197.34l-.24-.059-.241-.18-.18-.242-.059-.238M275.98 192.3l.06-.3.179-.238.242-.121.238-.063M289.66 191.578l.3.063.24.12.12.239.059.3M290.379 196.621l-.059.238-.12.243-.24.18-.3.058" fill="none" stroke-width=".48" stroke-linecap="round" stroke-linejoin="round" stroke="#505050" stroke-miterlimit="10"/><path d="M291.46 193.738h-1.081v1.442h1.082zm0 0M275.98 193.738h-1.082v1.442h1.082zm0 0" fill="#505050" stroke-width=".12" stroke-linecap="round" stroke-linejoin="round" stroke="#505050" stroke-miterlimit="10"/><path d="M276.7 197.34l-.24-.059-.241-.18-.18-.242-.059-.238M275.98 192.3l.06-.3.179-.238.242-.121.238-.063M289.66 191.578l.3.063.24.12.12.239.059.3M290.379 196.621l-.059.238-.12.243-.24.18-.3.058M275.98 192.3v4.321M276.7 197.34h1.081M278.14 196.98l-.359.36M276.7 191.578h1.081M278.14 191.941l-.359-.363M288.219 196.98l.36.36M288.219 196.98H278.14M288.219 191.941l.36-.363M288.219 191.941H278.14M289.66 197.34h-1.082M289.66 191.578h-1.082M290.379 192.3v4.321" fill="none" stroke-width=".48" stroke-linecap="round" stroke-linejoin="round" stroke="#505050" stroke-miterlimit="10"/><path d="M291.46 193.738h-1.081v1.442h1.082zm0 0M275.98 193.738h-1.082v1.442h1.082zm0 0" fill="#505050" stroke-width=".12" stroke-linecap="round" stroke-linejoin="round" stroke="#505050" stroke-miterlimit="10"/><path d="M298.3 211.68l-.3-.059-.18-.121-.18-.238-.062-.301M297.578 206.64l.063-.242.18-.238.179-.18.3-.058M311.262 205.922l.238.058.238.18.184.238.058.243M311.98 210.96l-.058.302-.184.238-.238.121-.238.059" fill="none" stroke-width=".48" stroke-linecap="round" stroke-linejoin="round" stroke="#505050" stroke-miterlimit="10"/><path d="M313.059 208.078h-1.079v1.442h1.079zm0 0M297.578 208.078H296.5v1.442h1.078zm0 0" fill="#505050" stroke-width=".12" stroke-linecap="round" stroke-linejoin="round" stroke="#505050" stroke-miterlimit="10"/><path d="M298.3 211.68l-.3-.059-.18-.121-.18-.238-.062-.301M297.578 206.64l.063-.242.18-.238.179-.18.3-.058M311.262 205.922l.238.058.238.18.184.238.058.243M311.98 210.96l-.058.302-.184.238-.238.121-.238.059M297.578 206.64v4.32M298.3 211.68h1.079M299.738 211.32l-.36.36M298.3 205.922h1.079M299.738 206.281l-.36-.36M309.82 211.32l.36.36M309.82 211.32h-10.082M309.82 206.281l.36-.36M309.82 206.281h-10.082M311.262 211.68h-1.082M311.262 205.922h-1.082M311.98 206.64v4.32" fill="none" stroke-width=".48" stroke-linecap="round" stroke-linejoin="round" stroke="#505050" stroke-miterlimit="10"/><path d="M313.059 208.078h-1.079v1.442h1.079zm0 0M297.578 208.078H296.5v1.442h1.078zm0 0" fill="#505050" stroke-width=".12" stroke-linecap="round" stroke-linejoin="round" stroke="#505050" stroke-miterlimit="10"/><path d="M311.262 220.32l.238.059.238.121.184.238.058.301M311.98 225.36l-.058.242-.184.238-.238.18-.238.058M298.3 226.078l-.3-.058-.18-.18-.18-.238-.062-.243M297.578 221.04l.063-.302.18-.238.179-.121.3-.059" fill="none" stroke-width=".48" stroke-linecap="round" stroke-linejoin="round" stroke="#505050" stroke-miterlimit="10"/><path d="M297.578 222.48H296.5v1.438h1.078zm0 0M313.059 222.48h-1.079v1.438h1.079zm0 0" fill="#505050" stroke-width=".12" stroke-linecap="round" stroke-linejoin="round" stroke="#505050" stroke-miterlimit="10"/><path d="M311.262 220.32l.238.059.238.121.184.238.058.301M311.98 225.36l-.058.242-.184.238-.238.18-.238.058M298.3 226.078l-.3-.058-.18-.18-.18-.238-.062-.243M297.578 221.04l.063-.302.18-.238.179-.121.3-.059M311.98 225.36v-4.32M311.262 220.32h-1.082M309.82 220.68l.36-.36M311.262 226.078h-1.082M309.82 225.719l.36.36M299.738 220.68l-.36-.36M299.738 220.68h10.082M299.738 225.719l-.36.36M299.738 225.719h10.082M298.3 220.32h1.079M298.3 226.078h1.079M297.578 225.36v-4.32" fill="none" stroke-width=".48" stroke-linecap="round" stroke-linejoin="round" stroke="#505050" stroke-miterlimit="10"/><path d="M297.578 222.48H296.5v1.438h1.078zm0 0M313.059 222.48h-1.079v1.438h1.079zm0 0" fill="#505050" stroke-width=".12" stroke-linecap="round" stroke-linejoin="round" stroke="#505050" stroke-miterlimit="10"/><path d="M300.102 200.34v-11.82M307.96 187.621l1.142.66 1.02.84.839 1.02.66 1.14.418 1.2.242 1.32v1.32l-.242 1.258-.418 1.262-.66 1.14-.84.957-1.02.84-1.14.66M304.781 186.898v15.063M307.96 201.238l-1.019.422-1.082.238-1.078.063M304.781 201.96l-1.082-.062-1.078-.238-1.082-.422M301.54 201.238l-.72-.36-.718-.538M301.54 187.621l1.081-.36 1.078-.241 1.082-.122M304.781 186.898l1.078.063 1.082.238 1.02.422M300.102 188.52l.718-.54.782-.421M278.5 221.941V210.06M286.422 209.16l1.137.66.96.84.903 1.02.598 1.14.48 1.258.238 1.262v1.32l-.238 1.32-.48 1.2-.598 1.14-.902 1.02-.961.84-1.137.66M283.18 208.441v15.118M286.422 222.84l-1.024.422-1.078.238-1.14.059M283.18 223.559l-1.078-.118-1.082-.242-1.02-.36M280 222.84l-.781-.418-.719-.48M280 209.16l1.02-.36 1.082-.241 1.078-.118M283.18 208.441l1.14.059 1.078.238 1.024.422M278.5 210.059l.781-.48.778-.419" fill="none" stroke-width=".36000000000000004" stroke-linecap="round" stroke-linejoin="round" stroke="#505050" stroke-miterlimit="10"/><path d="M338.14 230.398a2.52 2.52 0 1 1 5.042.003 2.52 2.52 0 0 1-5.041-.003" fill-rule="evenodd" fill="green"/><path d="M338.14 230.398a2.52 2.52 0 1 1 5.042.003 2.52 2.52 0 0 1-5.041-.003zm0 0" fill="none" stroke-width=".12" stroke-linecap="round" stroke-linejoin="round" stroke="green" stroke-miterlimit="10"/><path d="M339.219 230.398a1.442 1.442 0 0 1 2.883 0c0 .797-.649 1.442-1.442 1.442a1.44 1.44 0 0 1-1.441-1.442" fill-rule="evenodd" fill="#fff"/><path d="M339.219 230.398a1.442 1.442 0 0 1 2.883 0c0 .797-.649 1.442-1.442 1.442a1.44 1.44 0 0 1-1.441-1.442zm0 0" fill="none" stroke-width=".06" stroke-linecap="square" stroke-linejoin="bevel" stroke="#000" stroke-miterlimit="10"/><path d="M251.86 230.398a2.52 2.52 0 1 1 5.04.003 2.52 2.52 0 0 1-5.04-.003" fill-rule="evenodd" fill="green"/><path d="M251.86 230.398a2.52 2.52 0 1 1 5.04.003 2.52 2.52 0 0 1-5.04-.003zm0 0" fill="none" stroke-width=".12" stroke-linecap="round" stroke-linejoin="round" stroke="green" stroke-miterlimit="10"/><path d="M252.941 230.398a1.439 1.439 0 1 1 2.878.003 1.439 1.439 0 0 1-2.878-.003" fill-rule="evenodd" fill="#fff"/><path d="M252.941 230.398a1.439 1.439 0 1 1 2.878.003 1.439 1.439 0 0 1-2.878-.003zm0 0" fill="none" stroke-width=".06" stroke-linecap="square" stroke-linejoin="bevel" stroke="#000" stroke-miterlimit="10"/><path d="M259.84 208.8c0-.929.777-1.679 1.738-1.679s1.742.75 1.742 1.68c0 .926-.78 1.68-1.742 1.68-.96 0-1.738-.754-1.738-1.68" fill-rule="evenodd" fill="green"/><path d="M259.84 208.8c0-.929.777-1.679 1.738-1.679s1.742.75 1.742 1.68c0 .926-.78 1.68-1.742 1.68-.96 0-1.738-.754-1.738-1.68zm0 0" fill="none" stroke-width=".12" stroke-linecap="round" stroke-linejoin="round" stroke="green" stroke-miterlimit="10"/><path d="M260.559 208.8a1.021 1.021 0 1 1 2.043 0 1.021 1.021 0 0 1-2.043 0" fill-rule="evenodd" fill="#fff"/><path d="M260.559 208.8a1.021 1.021 0 1 1 2.043 0 1.021 1.021 0 0 1-2.043 0zm0 0" fill="none" stroke-width=".06" stroke-linecap="square" stroke-linejoin="bevel" stroke="#000" stroke-miterlimit="10"/><path d="M256.18 207.121h-3.48v3.36h3.48zm0 0" fill="green" stroke-width=".12" stroke-linecap="round" stroke-linejoin="round" stroke="green" stroke-miterlimit="10"/><path d="M253.36 208.8a1.02 1.02 0 1 1 2.04.002 1.02 1.02 0 0 1-2.04-.001" fill-rule="evenodd" fill="#fff"/><path d="M253.36 208.8a1.02 1.02 0 1 1 2.04.002 1.02 1.02 0 0 1-2.04-.001zm0 0" fill="none" stroke-width=".06" stroke-linecap="square" stroke-linejoin="bevel" stroke="#000" stroke-miterlimit="10"/><path d="M317.262 201.602c0-1.028.832-1.864 1.86-1.864a1.862 1.862 0 0 1 0 3.723 1.859 1.859 0 0 1-1.86-1.86" fill-rule="evenodd" fill="green"/><path d="M317.262 201.602c0-1.028.832-1.864 1.86-1.864a1.862 1.862 0 0 1 0 3.723 1.859 1.859 0 0 1-1.86-1.86zm0 0" fill="none" stroke-width=".12" stroke-linecap="round" stroke-linejoin="round" stroke="green" stroke-miterlimit="10"/><path d="M317.98 201.602c0-.633.508-1.141 1.141-1.141a1.14 1.14 0 1 1 0 2.277c-.633 0-1.14-.508-1.14-1.136" fill-rule="evenodd" fill="#fff"/><path d="M317.98 201.602c0-.633.508-1.141 1.141-1.141a1.14 1.14 0 1 1 0 2.277c-.633 0-1.14-.508-1.14-1.136zm0 0" fill="none" stroke-width=".06" stroke-linecap="square" stroke-linejoin="bevel" stroke="#000" stroke-miterlimit="10"/><path d="M317.262 187.262c0-1.028.832-1.864 1.86-1.864a1.862 1.862 0 0 1 0 3.723 1.861 1.861 0 0 1-1.86-1.86" fill-rule="evenodd" fill="green"/><path d="M317.262 187.262c0-1.028.832-1.864 1.86-1.864a1.862 1.862 0 0 1 0 3.723 1.861 1.861 0 0 1-1.86-1.86zm0 0" fill="none" stroke-width=".12" stroke-linecap="round" stroke-linejoin="round" stroke="green" stroke-miterlimit="10"/><path d="M317.98 187.262c0-.633.508-1.14 1.141-1.14a1.14 1.14 0 1 1 0 2.276c-.633 0-1.14-.507-1.14-1.136" fill-rule="evenodd" fill="#fff"/><path d="M317.98 187.262c0-.633.508-1.14 1.141-1.14a1.14 1.14 0 1 1 0 2.276c-.633 0-1.14-.507-1.14-1.136zm0 0" fill="none" stroke-width=".06" stroke-linecap="square" stroke-linejoin="bevel" stroke="#000" stroke-miterlimit="10"/><path d="M338.922 208.8c0-.929.777-1.679 1.738-1.679s1.738.75 1.738 1.68c0 .926-.777 1.68-1.738 1.68-.96 0-1.738-.754-1.738-1.68" fill-rule="evenodd" fill="green"/><path d="M338.922 208.8c0-.929.777-1.679 1.738-1.679s1.738.75 1.738 1.68c0 .926-.777 1.68-1.738 1.68-.96 0-1.738-.754-1.738-1.68zm0 0" fill="none" stroke-width=".12" stroke-linecap="round" stroke-linejoin="round" stroke="green" stroke-miterlimit="10"/><path d="M339.64 208.8a1.02 1.02 0 1 1 2.041.002 1.02 1.02 0 0 1-2.04-.001" fill-rule="evenodd" fill="#fff"/><path d="M339.64 208.8a1.02 1.02 0 1 1 2.041.002 1.02 1.02 0 0 1-2.04-.001zm0 0" fill="none" stroke-width=".06" stroke-linecap="square" stroke-linejoin="bevel" stroke="#000" stroke-miterlimit="10"/><path d="M335.262 207.121h-3.48v3.36h3.48zm0 0" fill="green" stroke-width=".12" stroke-linecap="round" stroke-linejoin="round" stroke="green" stroke-miterlimit="10"/><path d="M332.441 208.8a1.02 1.02 0 1 1 2.04.002 1.02 1.02 0 0 1-2.04-.001" fill-rule="evenodd" fill="#fff"/><path d="M332.441 208.8a1.02 1.02 0 1 1 2.04.002 1.02 1.02 0 0 1-2.04-.001zm0 0" fill="none" stroke-width=".06" stroke-linecap="square" stroke-linejoin="bevel" stroke="#000" stroke-miterlimit="10"/><path d="M331.602 230.398a1.859 1.859 0 1 1 3.718 0 1.862 1.862 0 0 1-1.86 1.864 1.862 1.862 0 0 1-1.858-1.864" fill-rule="evenodd" fill="green"/><path d="M331.602 230.398a1.859 1.859 0 1 1 3.718 0 1.862 1.862 0 0 1-1.86 1.864 1.862 1.862 0 0 1-1.858-1.864zm0 0" fill="none" stroke-width=".12" stroke-linecap="round" stroke-linejoin="round" stroke="green" stroke-miterlimit="10"/><path d="M332.32 230.398c0-.628.508-1.136 1.14-1.136a1.139 1.139 0 1 1 0 2.277c-.632 0-1.14-.508-1.14-1.14" fill-rule="evenodd" fill="#fff"/><path d="M332.32 230.398c0-.628.508-1.136 1.14-1.136a1.139 1.139 0 1 1 0 2.277c-.632 0-1.14-.508-1.14-1.14zm0 0" fill="none" stroke-width=".06" stroke-linecap="square" stroke-linejoin="bevel" stroke="#000" stroke-miterlimit="10"/><path d="M310.059 230.398a1.862 1.862 0 0 1 3.722 0 1.865 1.865 0 0 1-1.86 1.864 1.865 1.865 0 0 1-1.862-1.864" fill-rule="evenodd" fill="green"/><path d="M310.059 230.398a1.862 1.862 0 0 1 3.722 0 1.865 1.865 0 0 1-1.86 1.864 1.865 1.865 0 0 1-1.862-1.864zm0 0" fill="none" stroke-width=".12" stroke-linecap="round" stroke-linejoin="round" stroke="green" stroke-miterlimit="10"/><path d="M310.781 230.398c0-.628.508-1.136 1.14-1.136.63 0 1.138.508 1.138 1.136 0 .633-.508 1.141-1.137 1.141-.633 0-1.14-.508-1.14-1.14" fill-rule="evenodd" fill="#fff"/><path d="M310.781 230.398c0-.628.508-1.136 1.14-1.136.63 0 1.138.508 1.138 1.136 0 .633-.508 1.141-1.137 1.141-.633 0-1.14-.508-1.14-1.14zm0 0" fill="none" stroke-width=".06" stroke-linecap="square" stroke-linejoin="bevel" stroke="#000" stroke-miterlimit="10"/><path d="M324.398 223.2a1.862 1.862 0 0 1 3.723 0 1.861 1.861 0 0 1-3.723 0" fill-rule="evenodd" fill="green"/><path d="M324.398 223.2a1.862 1.862 0 0 1 3.723 0 1.861 1.861 0 0 1-3.723 0zm0 0" fill="none" stroke-width=".12" stroke-linecap="round" stroke-linejoin="round" stroke="green" stroke-miterlimit="10"/><path d="M325.121 223.2a1.14 1.14 0 1 1 2.279-.003 1.14 1.14 0 0 1-2.279.002" fill-rule="evenodd" fill="#fff"/><path d="M325.121 223.2a1.14 1.14 0 1 1 2.279-.003 1.14 1.14 0 0 1-2.279.002zm0 0" fill="none" stroke-width=".06" stroke-linecap="square" stroke-linejoin="bevel" stroke="#000" stroke-miterlimit="10"/><path d="M324.398 194.46a1.862 1.862 0 0 1 3.723 0 1.861 1.861 0 0 1-3.723 0" fill-rule="evenodd" fill="green"/><path d="M324.398 194.46a1.862 1.862 0 0 1 3.723 0 1.861 1.861 0 0 1-3.723 0zm0 0" fill="none" stroke-width=".12" stroke-linecap="round" stroke-linejoin="round" stroke="green" stroke-miterlimit="10"/><path d="M325.121 194.46c0-.632.508-1.14 1.14-1.14.63 0 1.137.508 1.137 1.14a1.139 1.139 0 1 1-2.277 0" fill-rule="evenodd" fill="#fff"/><path d="M325.121 194.46c0-.632.508-1.14 1.14-1.14.63 0 1.137.508 1.137 1.14a1.139 1.139 0 1 1-2.277 0zm0 0" fill="none" stroke-width=".06" stroke-linecap="square" stroke-linejoin="bevel" stroke="#000" stroke-miterlimit="10"/><path d="M251.86 187.262a2.519 2.519 0 1 1 5.04 0 2.52 2.52 0 0 1-5.04 0" fill-rule="evenodd" fill="green"/><path d="M251.86 187.262a2.519 2.519 0 1 1 5.04 0 2.52 2.52 0 0 1-5.04 0zm0 0" fill="none" stroke-width=".12" stroke-linecap="round" stroke-linejoin="round" stroke="green" stroke-miterlimit="10"/><path d="M252.941 187.262a1.44 1.44 0 1 1 2.88-.004 1.44 1.44 0 0 1-2.88.004" fill-rule="evenodd" fill="#fff"/><path d="M252.941 187.262a1.44 1.44 0 1 1 2.88-.004 1.44 1.44 0 0 1-2.88.004zm0 0" fill="none" stroke-width=".06" stroke-linecap="square" stroke-linejoin="bevel" stroke="#000" stroke-miterlimit="10"/><path d="M338.14 187.262a2.521 2.521 0 0 1 2.52-2.524 2.521 2.521 0 0 1 0 5.043 2.52 2.52 0 0 1-2.52-2.52" fill-rule="evenodd" fill="green"/><path d="M338.14 187.262a2.521 2.521 0 0 1 2.52-2.524 2.521 2.521 0 0 1 0 5.043 2.52 2.52 0 0 1-2.52-2.52zm0 0" fill="none" stroke-width=".12" stroke-linecap="round" stroke-linejoin="round" stroke="green" stroke-miterlimit="10"/><path d="M339.219 187.262a1.44 1.44 0 1 1 2.88-.002 1.44 1.44 0 0 1-2.88.002" fill-rule="evenodd" fill="#fff"/><path d="M339.219 187.262a1.44 1.44 0 1 1 2.88-.002 1.44 1.44 0 0 1-2.88.002zm0 0" fill="none" stroke-width=".06" stroke-linecap="square" stroke-linejoin="bevel" stroke="#000" stroke-miterlimit="10"/><path d="M259.719 230.398a1.861 1.861 0 1 1 3.722.004 1.861 1.861 0 0 1-3.722-.004" fill-rule="evenodd" fill="green"/><path d="M259.719 230.398a1.861 1.861 0 1 1 3.722.004 1.861 1.861 0 0 1-3.722-.004zm0 0" fill="none" stroke-width=".12" stroke-linecap="round" stroke-linejoin="round" stroke="green" stroke-miterlimit="10"/><path d="M260.441 230.398c0-.628.508-1.136 1.137-1.136.633 0 1.14.508 1.14 1.136 0 .633-.507 1.141-1.14 1.141a1.136 1.136 0 0 1-1.137-1.14" fill-rule="evenodd" fill="#fff"/><path d="M260.441 230.398c0-.628.508-1.136 1.137-1.136.633 0 1.14.508 1.14 1.136 0 .633-.507 1.141-1.14 1.141a1.136 1.136 0 0 1-1.137-1.14zm0 0" fill="none" stroke-width=".06" stroke-linecap="square" stroke-linejoin="bevel" stroke="#000" stroke-miterlimit="10"/><path d="M274.059 230.398a1.862 1.862 0 0 1 3.722 0 1.865 1.865 0 0 1-1.86 1.864 1.865 1.865 0 0 1-1.862-1.864" fill-rule="evenodd" fill="green"/><path d="M274.059 230.398a1.862 1.862 0 0 1 3.722 0 1.865 1.865 0 0 1-1.86 1.864 1.865 1.865 0 0 1-1.862-1.864zm0 0" fill="none" stroke-width=".12" stroke-linecap="round" stroke-linejoin="round" stroke="green" stroke-miterlimit="10"/><path d="M274.781 230.398c0-.628.508-1.136 1.14-1.136.63 0 1.138.508 1.138 1.136 0 .633-.508 1.141-1.137 1.141-.633 0-1.14-.508-1.14-1.14" fill-rule="evenodd" fill="#fff"/><path d="M274.781 230.398c0-.628.508-1.136 1.14-1.136.63 0 1.138.508 1.138 1.136 0 .633-.508 1.141-1.137 1.141-.633 0-1.14-.508-1.14-1.14zm0 0" fill="none" stroke-width=".06" stroke-linecap="square" stroke-linejoin="bevel" stroke="#000" stroke-miterlimit="10"/><path d="M266.922 201.602c0-1.028.832-1.864 1.86-1.864a1.862 1.862 0 0 1 0 3.723 1.859 1.859 0 0 1-1.86-1.86" fill-rule="evenodd" fill="green"/><path d="M266.922 201.602c0-1.028.832-1.864 1.86-1.864a1.862 1.862 0 0 1 0 3.723 1.859 1.859 0 0 1-1.86-1.86zm0 0" fill="none" stroke-width=".12" stroke-linecap="round" stroke-linejoin="round" stroke="green" stroke-miterlimit="10"/><path d="M267.64 201.602c0-.633.508-1.141 1.141-1.141a1.14 1.14 0 1 1 0 2.277c-.633 0-1.14-.508-1.14-1.136" fill-rule="evenodd" fill="#fff"/><path d="M267.64 201.602c0-.633.508-1.141 1.141-1.141a1.14 1.14 0 1 1 0 2.277c-.633 0-1.14-.508-1.14-1.136zm0 0" fill="none" stroke-width=".06" stroke-linecap="square" stroke-linejoin="bevel" stroke="#000" stroke-miterlimit="10"/><path d="M295.66 201.602c0-1.028.832-1.864 1.86-1.864a1.862 1.862 0 0 1 0 3.723 1.859 1.859 0 0 1-1.86-1.86" fill-rule="evenodd" fill="green"/><path d="M295.66 201.602c0-1.028.832-1.864 1.86-1.864a1.862 1.862 0 0 1 0 3.723 1.859 1.859 0 0 1-1.86-1.86zm0 0" fill="none" stroke-width=".12" stroke-linecap="round" stroke-linejoin="round" stroke="green" stroke-miterlimit="10"/><path d="M296.379 201.602a1.14 1.14 0 1 1 2.279-.003 1.14 1.14 0 0 1-2.28.003" fill-rule="evenodd" fill="#fff"/><path d="M296.379 201.602a1.14 1.14 0 1 1 2.279-.003 1.14 1.14 0 0 1-2.28.003zm0 0" fill="none" stroke-width=".06" stroke-linecap="square" stroke-linejoin="bevel" stroke="#000" stroke-miterlimit="10"/><path d="M266.922 194.46a1.859 1.859 0 1 1 3.718 0 1.859 1.859 0 0 1-3.718 0" fill-rule="evenodd" fill="green"/><path d="M266.922 194.46a1.859 1.859 0 1 1 3.718 0 1.859 1.859 0 0 1-3.718 0zm0 0" fill="none" stroke-width=".12" stroke-linecap="round" stroke-linejoin="round" stroke="green" stroke-miterlimit="10"/><path d="M267.64 194.46c0-.632.508-1.14 1.141-1.14a1.14 1.14 0 1 1 0 2.282 1.14 1.14 0 0 1-1.14-1.141" fill-rule="evenodd" fill="#fff"/><path d="M267.64 194.46c0-.632.508-1.14 1.141-1.14a1.14 1.14 0 1 1 0 2.282 1.14 1.14 0 0 1-1.14-1.141zm0 0" fill="none" stroke-width=".06" stroke-linecap="square" stroke-linejoin="bevel" stroke="#000" stroke-miterlimit="10"/><path d="M295.66 194.46a1.859 1.859 0 1 1 3.718 0 1.859 1.859 0 0 1-3.718 0" fill-rule="evenodd" fill="green"/><path d="M295.66 194.46a1.859 1.859 0 1 1 3.718 0 1.859 1.859 0 0 1-3.718 0zm0 0" fill="none" stroke-width=".12" stroke-linecap="round" stroke-linejoin="round" stroke="green" stroke-miterlimit="10"/><path d="M296.379 194.46a1.14 1.14 0 1 1 2.281 0c0 .63-.512 1.142-1.14 1.142-.63 0-1.141-.512-1.141-1.141" fill-rule="evenodd" fill="#fff"/><path d="M296.379 194.46a1.14 1.14 0 1 1 2.281 0c0 .63-.512 1.142-1.14 1.142-.63 0-1.141-.512-1.141-1.141zm0 0" fill="none" stroke-width=".06" stroke-linecap="square" stroke-linejoin="bevel" stroke="#000" stroke-miterlimit="10"/><path d="M288.46 208.8a1.859 1.859 0 1 1 3.719 0 1.859 1.859 0 0 1-3.718 0" fill-rule="evenodd" fill="green"/><path d="M288.46 208.8a1.859 1.859 0 1 1 3.719 0 1.859 1.859 0 0 1-3.718 0zm0 0" fill="none" stroke-width=".12" stroke-linecap="round" stroke-linejoin="round" stroke="green" stroke-miterlimit="10"/><path d="M289.18 208.8c0-.628.511-1.14 1.14-1.14.63 0 1.14.512 1.14 1.14 0 .63-.51 1.141-1.14 1.141-.629 0-1.14-.511-1.14-1.14" fill-rule="evenodd" fill="#fff"/><path d="M289.18 208.8c0-.628.511-1.14 1.14-1.14.63 0 1.14.512 1.14 1.14 0 .63-.51 1.141-1.14 1.141-.629 0-1.14-.511-1.14-1.14zm0 0" fill="none" stroke-width=".06" stroke-linecap="square" stroke-linejoin="bevel" stroke="#000" stroke-miterlimit="10"/><path d="M317.262 208.8a1.859 1.859 0 1 1 3.717 0 1.859 1.859 0 0 1-3.717 0" fill-rule="evenodd" fill="green"/><path d="M317.262 208.8a1.859 1.859 0 1 1 3.717 0 1.859 1.859 0 0 1-3.717 0zm0 0" fill="none" stroke-width=".12" stroke-linecap="round" stroke-linejoin="round" stroke="green" stroke-miterlimit="10"/><path d="M317.98 208.8a1.14 1.14 0 1 1 2.282 0 1.14 1.14 0 1 1-2.281 0" fill-rule="evenodd" fill="#fff"/><path d="M317.98 208.8a1.14 1.14 0 1 1 2.282 0 1.14 1.14 0 1 1-2.281 0zm0 0" fill="none" stroke-width=".06" stroke-linecap="square" stroke-linejoin="bevel" stroke="#000" stroke-miterlimit="10"/><path d="M317.262 223.2a1.859 1.859 0 1 1 3.717-.002 1.859 1.859 0 0 1-3.717.001" fill-rule="evenodd" fill="green"/><path d="M317.262 223.2a1.859 1.859 0 1 1 3.717-.002 1.859 1.859 0 0 1-3.717.001zm0 0" fill="none" stroke-width=".12" stroke-linecap="round" stroke-linejoin="round" stroke="green" stroke-miterlimit="10"/><path d="M317.98 223.2a1.14 1.14 0 1 1 2.282 0 1.14 1.14 0 1 1-2.281 0" fill-rule="evenodd" fill="#fff"/><path d="M317.98 223.2a1.14 1.14 0 1 1 2.282 0 1.14 1.14 0 1 1-2.281 0zm0 0" fill="none" stroke-width=".06" stroke-linecap="square" stroke-linejoin="bevel" stroke="#000" stroke-miterlimit="10"/><path d="M288.46 223.2a1.859 1.859 0 1 1 3.719-.002 1.859 1.859 0 0 1-3.718.001" fill-rule="evenodd" fill="green"/><path d="M288.46 223.2a1.859 1.859 0 1 1 3.719-.002 1.859 1.859 0 0 1-3.718.001zm0 0" fill="none" stroke-width=".12" stroke-linecap="round" stroke-linejoin="round" stroke="green" stroke-miterlimit="10"/><path d="M289.18 223.2c0-.63.511-1.141 1.14-1.141.63 0 1.14.511 1.14 1.14 0 .63-.51 1.14-1.14 1.14-.629 0-1.14-.51-1.14-1.14" fill-rule="evenodd" fill="#fff"/><path d="M289.18 223.2c0-.63.511-1.141 1.14-1.141.63 0 1.14.511 1.14 1.14 0 .63-.51 1.14-1.14 1.14-.629 0-1.14-.51-1.14-1.14zm0 0" fill="none" stroke-width=".06" stroke-linecap="square" stroke-linejoin="bevel" stroke="#000" stroke-miterlimit="10"/><path d="M302.68 201.602a2.041 2.041 0 1 1 4.082-.004 2.041 2.041 0 0 1-4.082.004" fill-rule="evenodd" fill="green"/><path d="M302.68 201.602a2.041 2.041 0 1 1 4.082-.004 2.041 2.041 0 0 1-4.082.004zm0 0" fill="none" stroke-width=".12" stroke-linecap="round" stroke-linejoin="round" stroke="green" stroke-miterlimit="10"/><path d="M303.7 201.602c0-.567.456-1.024 1.019-1.024a1.021 1.021 0 0 1 0 2.043 1.02 1.02 0 0 1-1.02-1.02" fill-rule="evenodd" fill="#fff"/><path d="M303.7 201.602c0-.567.456-1.024 1.019-1.024a1.021 1.021 0 0 1 0 2.043 1.02 1.02 0 0 1-1.02-1.02zm0 0" fill="none" stroke-width=".06" stroke-linecap="square" stroke-linejoin="bevel" stroke="#000" stroke-miterlimit="10"/><path d="M302.68 187.262a2.041 2.041 0 1 1 4.082-.003 2.041 2.041 0 0 1-4.082.003" fill-rule="evenodd" fill="green"/><path d="M302.68 187.262a2.041 2.041 0 1 1 4.082-.003 2.041 2.041 0 0 1-4.082.003zm0 0" fill="none" stroke-width=".12" stroke-linecap="round" stroke-linejoin="round" stroke="green" stroke-miterlimit="10"/><path d="M303.7 187.262c0-.567.456-1.024 1.019-1.024a1.021 1.021 0 0 1 0 2.043 1.02 1.02 0 0 1-1.02-1.02" fill-rule="evenodd" fill="#fff"/><path d="M303.7 187.262c0-.567.456-1.024 1.019-1.024a1.021 1.021 0 0 1 0 2.043 1.02 1.02 0 0 1-1.02-1.02zm0 0" fill="none" stroke-width=".06" stroke-linecap="square" stroke-linejoin="bevel" stroke="#000" stroke-miterlimit="10"/><path d="M302.68 194.46c0-1.128.914-2.038 2.039-2.038a2.039 2.039 0 1 1 0 4.078 2.04 2.04 0 0 1-2.04-2.04" fill-rule="evenodd" fill="green"/><path d="M302.68 194.46c0-1.128.914-2.038 2.039-2.038a2.039 2.039 0 1 1 0 4.078 2.04 2.04 0 0 1-2.04-2.04zm0 0" fill="none" stroke-width=".12" stroke-linecap="round" stroke-linejoin="round" stroke="green" stroke-miterlimit="10"/><path d="M303.7 194.46a1.02 1.02 0 1 1 2.04.002 1.02 1.02 0 0 1-2.04-.001" fill-rule="evenodd" fill="#fff"/><path d="M303.7 194.46a1.02 1.02 0 1 1 2.04.002 1.02 1.02 0 0 1-2.04-.001zm0 0" fill="none" stroke-width=".06" stroke-linecap="square" stroke-linejoin="bevel" stroke="#000" stroke-miterlimit="10"/><path d="M281.078 223.2a2.041 2.041 0 0 1 4.082 0c0 1.128-.914 2.038-2.039 2.038a2.039 2.039 0 0 1-2.043-2.039" fill-rule="evenodd" fill="green"/><path d="M281.078 223.2a2.041 2.041 0 0 1 4.082 0c0 1.128-.914 2.038-2.039 2.038a2.039 2.039 0 0 1-2.043-2.039zm0 0" fill="none" stroke-width=".12" stroke-linecap="round" stroke-linejoin="round" stroke="green" stroke-miterlimit="10"/><path d="M282.102 223.2a1.02 1.02 0 1 1 2.04 0 1.02 1.02 0 0 1-2.04 0" fill-rule="evenodd" fill="#fff"/><path d="M282.102 223.2a1.02 1.02 0 1 1 2.04 0 1.02 1.02 0 0 1-2.04 0zm0 0" fill="none" stroke-width=".06" stroke-linecap="square" stroke-linejoin="bevel" stroke="#000" stroke-miterlimit="10"/><path d="M281.078 208.8c0-1.128.914-2.038 2.043-2.038a2.038 2.038 0 1 1 0 4.078 2.041 2.041 0 0 1-2.043-2.04" fill-rule="evenodd" fill="green"/><path d="M281.078 208.8c0-1.128.914-2.038 2.043-2.038a2.038 2.038 0 1 1 0 4.078 2.041 2.041 0 0 1-2.043-2.04zm0 0" fill="none" stroke-width=".12" stroke-linecap="round" stroke-linejoin="round" stroke="green" stroke-miterlimit="10"/><path d="M282.102 208.8a1.02 1.02 0 1 1 2.04.002 1.02 1.02 0 0 1-2.04-.001" fill-rule="evenodd" fill="#fff"/><path d="M282.102 208.8a1.02 1.02 0 1 1 2.04.002 1.02 1.02 0 0 1-2.04-.001zm0 0" fill="none" stroke-width=".06" stroke-linecap="square" stroke-linejoin="bevel" stroke="#000" stroke-miterlimit="10"/><path d="M281.078 216c0-1.129.914-2.04 2.043-2.04a2.038 2.038 0 1 1 0 4.08 2.039 2.039 0 0 1-2.043-2.04" fill-rule="evenodd" fill="green"/><path d="M281.078 216c0-1.129.914-2.04 2.043-2.04a2.038 2.038 0 1 1 0 4.08 2.039 2.039 0 0 1-2.043-2.04zm0 0" fill="none" stroke-width=".12" stroke-linecap="round" stroke-linejoin="round" stroke="green" stroke-miterlimit="10"/><path d="M282.102 216a1.02 1.02 0 1 1 2.04.001 1.02 1.02 0 0 1-2.04-.001" fill-rule="evenodd" fill="#fff"/><path d="M282.102 216a1.02 1.02 0 1 1 2.04.001 1.02 1.02 0 0 1-2.04-.001zm0 0" fill="none" stroke-width=".06" stroke-linecap="square" stroke-linejoin="bevel" stroke="#000" stroke-miterlimit="10"/><path d="M338.14 230.398a2.52 2.52 0 1 1 5.042.003 2.52 2.52 0 0 1-5.041-.003" fill-rule="evenodd" fill="green"/><path d="M338.14 230.398a2.52 2.52 0 1 1 5.042.003 2.52 2.52 0 0 1-5.041-.003zm0 0" fill="none" stroke-width=".12" stroke-linecap="round" stroke-linejoin="round" stroke="green" stroke-miterlimit="10"/><path d="M339.219 230.398a1.442 1.442 0 0 1 2.883 0c0 .797-.649 1.442-1.442 1.442a1.44 1.44 0 0 1-1.441-1.442" fill-rule="evenodd" fill="#fff"/><path d="M339.219 230.398a1.442 1.442 0 0 1 2.883 0c0 .797-.649 1.442-1.442 1.442a1.44 1.44 0 0 1-1.441-1.442zm0 0" fill="none" stroke-width=".06" stroke-linecap="square" stroke-linejoin="bevel" stroke="#000" stroke-miterlimit="10"/><path d="M251.86 230.398a2.52 2.52 0 1 1 5.04.003 2.52 2.52 0 0 1-5.04-.003" fill-rule="evenodd" fill="green"/><path d="M251.86 230.398a2.52 2.52 0 1 1 5.04.003 2.52 2.52 0 0 1-5.04-.003zm0 0" fill="none" stroke-width=".12" stroke-linecap="round" stroke-linejoin="round" stroke="green" stroke-miterlimit="10"/><path d="M252.941 230.398a1.439 1.439 0 1 1 2.878.003 1.439 1.439 0 0 1-2.878-.003" fill-rule="evenodd" fill="#fff"/><path d="M252.941 230.398a1.439 1.439 0 1 1 2.878.003 1.439 1.439 0 0 1-2.878-.003zm0 0" fill="none" stroke-width=".06" stroke-linecap="square" stroke-linejoin="bevel" stroke="#000" stroke-miterlimit="10"/><path d="M259.84 208.8c0-.929.777-1.679 1.738-1.679s1.742.75 1.742 1.68c0 .926-.78 1.68-1.742 1.68-.96 0-1.738-.754-1.738-1.68" fill-rule="evenodd" fill="green"/><path d="M259.84 208.8c0-.929.777-1.679 1.738-1.679s1.742.75 1.742 1.68c0 .926-.78 1.68-1.742 1.68-.96 0-1.738-.754-1.738-1.68zm0 0" fill="none" stroke-width=".12" stroke-linecap="round" stroke-linejoin="round" stroke="green" stroke-miterlimit="10"/><path d="M260.559 208.8a1.021 1.021 0 1 1 2.043 0 1.021 1.021 0 0 1-2.043 0" fill-rule="evenodd" fill="#fff"/><path d="M260.559 208.8a1.021 1.021 0 1 1 2.043 0 1.021 1.021 0 0 1-2.043 0zm0 0" fill="none" stroke-width=".06" stroke-linecap="square" stroke-linejoin="bevel" stroke="#000" stroke-miterlimit="10"/><path d="M256.18 207.121h-3.48v3.36h3.48zm0 0" fill="green" stroke-width=".12" stroke-linecap="round" stroke-linejoin="round" stroke="green" stroke-miterlimit="10"/><path d="M253.36 208.8a1.02 1.02 0 1 1 2.04.002 1.02 1.02 0 0 1-2.04-.001" fill-rule="evenodd" fill="#fff"/><path d="M253.36 208.8a1.02 1.02 0 1 1 2.04.002 1.02 1.02 0 0 1-2.04-.001zm0 0" fill="none" stroke-width=".06" stroke-linecap="square" stroke-linejoin="bevel" stroke="#000" stroke-miterlimit="10"/><path d="M317.262 201.602c0-1.028.832-1.864 1.86-1.864a1.862 1.862 0 0 1 0 3.723 1.859 1.859 0 0 1-1.86-1.86" fill-rule="evenodd" fill="green"/><path d="M317.262 201.602c0-1.028.832-1.864 1.86-1.864a1.862 1.862 0 0 1 0 3.723 1.859 1.859 0 0 1-1.86-1.86zm0 0" fill="none" stroke-width=".12" stroke-linecap="round" stroke-linejoin="round" stroke="green" stroke-miterlimit="10"/><path d="M317.98 201.602c0-.633.508-1.141 1.141-1.141a1.14 1.14 0 1 1 0 2.277c-.633 0-1.14-.508-1.14-1.136" fill-rule="evenodd" fill="#fff"/><path d="M317.98 201.602c0-.633.508-1.141 1.141-1.141a1.14 1.14 0 1 1 0 2.277c-.633 0-1.14-.508-1.14-1.136zm0 0" fill="none" stroke-width=".06" stroke-linecap="square" stroke-linejoin="bevel" stroke="#000" stroke-miterlimit="10"/><path d="M317.262 187.262c0-1.028.832-1.864 1.86-1.864a1.862 1.862 0 0 1 0 3.723 1.861 1.861 0 0 1-1.86-1.86" fill-rule="evenodd" fill="green"/><path d="M317.262 187.262c0-1.028.832-1.864 1.86-1.864a1.862 1.862 0 0 1 0 3.723 1.861 1.861 0 0 1-1.86-1.86zm0 0" fill="none" stroke-width=".12" stroke-linecap="round" stroke-linejoin="round" stroke="green" stroke-miterlimit="10"/><path d="M317.98 187.262c0-.633.508-1.14 1.141-1.14a1.14 1.14 0 1 1 0 2.276c-.633 0-1.14-.507-1.14-1.136" fill-rule="evenodd" fill="#fff"/><path d="M317.98 187.262c0-.633.508-1.14 1.141-1.14a1.14 1.14 0 1 1 0 2.276c-.633 0-1.14-.507-1.14-1.136zm0 0" fill="none" stroke-width=".06" stroke-linecap="square" stroke-linejoin="bevel" stroke="#000" stroke-miterlimit="10"/><path d="M338.922 208.8c0-.929.777-1.679 1.738-1.679s1.738.75 1.738 1.68c0 .926-.777 1.68-1.738 1.68-.96 0-1.738-.754-1.738-1.68" fill-rule="evenodd" fill="green"/><path d="M338.922 208.8c0-.929.777-1.679 1.738-1.679s1.738.75 1.738 1.68c0 .926-.777 1.68-1.738 1.68-.96 0-1.738-.754-1.738-1.68zm0 0" fill="none" stroke-width=".12" stroke-linecap="round" stroke-linejoin="round" stroke="green" stroke-miterlimit="10"/><path d="M339.64 208.8a1.02 1.02 0 1 1 2.041.002 1.02 1.02 0 0 1-2.04-.001" fill-rule="evenodd" fill="#fff"/><path d="M339.64 208.8a1.02 1.02 0 1 1 2.041.002 1.02 1.02 0 0 1-2.04-.001zm0 0" fill="none" stroke-width=".06" stroke-linecap="square" stroke-linejoin="bevel" stroke="#000" stroke-miterlimit="10"/><path d="M335.262 207.121h-3.48v3.36h3.48zm0 0" fill="green" stroke-width=".12" stroke-linecap="round" stroke-linejoin="round" stroke="green" stroke-miterlimit="10"/><path d="M332.441 208.8a1.02 1.02 0 1 1 2.04.002 1.02 1.02 0 0 1-2.04-.001" fill-rule="evenodd" fill="#fff"/><path d="M332.441 208.8a1.02 1.02 0 1 1 2.04.002 1.02 1.02 0 0 1-2.04-.001zm0 0" fill="none" stroke-width=".06" stroke-linecap="square" stroke-linejoin="bevel" stroke="#000" stroke-miterlimit="10"/><path d="M331.602 230.398a1.859 1.859 0 1 1 3.718 0 1.862 1.862 0 0 1-1.86 1.864 1.862 1.862 0 0 1-1.858-1.864" fill-rule="evenodd" fill="green"/><path d="M331.602 230.398a1.859 1.859 0 1 1 3.718 0 1.862 1.862 0 0 1-1.86 1.864 1.862 1.862 0 0 1-1.858-1.864zm0 0" fill="none" stroke-width=".12" stroke-linecap="round" stroke-linejoin="round" stroke="green" stroke-miterlimit="10"/><path d="M332.32 230.398c0-.628.508-1.136 1.14-1.136a1.139 1.139 0 1 1 0 2.277c-.632 0-1.14-.508-1.14-1.14" fill-rule="evenodd" fill="#fff"/><path d="M332.32 230.398c0-.628.508-1.136 1.14-1.136a1.139 1.139 0 1 1 0 2.277c-.632 0-1.14-.508-1.14-1.14zm0 0" fill="none" stroke-width=".06" stroke-linecap="square" stroke-linejoin="bevel" stroke="#000" stroke-miterlimit="10"/><path d="M310.059 230.398a1.862 1.862 0 0 1 3.722 0 1.865 1.865 0 0 1-1.86 1.864 1.865 1.865 0 0 1-1.862-1.864" fill-rule="evenodd" fill="green"/><path d="M310.059 230.398a1.862 1.862 0 0 1 3.722 0 1.865 1.865 0 0 1-1.86 1.864 1.865 1.865 0 0 1-1.862-1.864zm0 0" fill="none" stroke-width=".12" stroke-linecap="round" stroke-linejoin="round" stroke="green" stroke-miterlimit="10"/><path d="M310.781 230.398c0-.628.508-1.136 1.14-1.136.63 0 1.138.508 1.138 1.136 0 .633-.508 1.141-1.137 1.141-.633 0-1.14-.508-1.14-1.14" fill-rule="evenodd" fill="#fff"/><path d="M310.781 230.398c0-.628.508-1.136 1.14-1.136.63 0 1.138.508 1.138 1.136 0 .633-.508 1.141-1.137 1.141-.633 0-1.14-.508-1.14-1.14zm0 0" fill="none" stroke-width=".06" stroke-linecap="square" stroke-linejoin="bevel" stroke="#000" stroke-miterlimit="10"/><path d="M324.398 223.2a1.862 1.862 0 0 1 3.723 0 1.861 1.861 0 0 1-3.723 0" fill-rule="evenodd" fill="green"/><path d="M324.398 223.2a1.862 1.862 0 0 1 3.723 0 1.861 1.861 0 0 1-3.723 0zm0 0" fill="none" stroke-width=".12" stroke-linecap="round" stroke-linejoin="round" stroke="green" stroke-miterlimit="10"/><path d="M325.121 223.2a1.14 1.14 0 1 1 2.279-.003 1.14 1.14 0 0 1-2.279.002" fill-rule="evenodd" fill="#fff"/><path d="M325.121 223.2a1.14 1.14 0 1 1 2.279-.003 1.14 1.14 0 0 1-2.279.002zm0 0" fill="none" stroke-width=".06" stroke-linecap="square" stroke-linejoin="bevel" stroke="#000" stroke-miterlimit="10"/><path d="M324.398 194.46a1.862 1.862 0 0 1 3.723 0 1.861 1.861 0 0 1-3.723 0" fill-rule="evenodd" fill="green"/><path d="M324.398 194.46a1.862 1.862 0 0 1 3.723 0 1.861 1.861 0 0 1-3.723 0zm0 0" fill="none" stroke-width=".12" stroke-linecap="round" stroke-linejoin="round" stroke="green" stroke-miterlimit="10"/><path d="M325.121 194.46c0-.632.508-1.14 1.14-1.14.63 0 1.137.508 1.137 1.14a1.139 1.139 0 1 1-2.277 0" fill-rule="evenodd" fill="#fff"/><path d="M325.121 194.46c0-.632.508-1.14 1.14-1.14.63 0 1.137.508 1.137 1.14a1.139 1.139 0 1 1-2.277 0zm0 0" fill="none" stroke-width=".06" stroke-linecap="square" stroke-linejoin="bevel" stroke="#000" stroke-miterlimit="10"/><path d="M251.86 187.262a2.519 2.519 0 1 1 5.04 0 2.52 2.52 0 0 1-5.04 0" fill-rule="evenodd" fill="green"/><path d="M251.86 187.262a2.519 2.519 0 1 1 5.04 0 2.52 2.52 0 0 1-5.04 0zm0 0" fill="none" stroke-width=".12" stroke-linecap="round" stroke-linejoin="round" stroke="green" stroke-miterlimit="10"/><path d="M252.941 187.262a1.44 1.44 0 1 1 2.88-.004 1.44 1.44 0 0 1-2.88.004" fill-rule="evenodd" fill="#fff"/><path d="M252.941 187.262a1.44 1.44 0 1 1 2.88-.004 1.44 1.44 0 0 1-2.88.004zm0 0" fill="none" stroke-width=".06" stroke-linecap="square" stroke-linejoin="bevel" stroke="#000" stroke-miterlimit="10"/><path d="M338.14 187.262a2.521 2.521 0 0 1 2.52-2.524 2.521 2.521 0 0 1 0 5.043 2.52 2.52 0 0 1-2.52-2.52" fill-rule="evenodd" fill="green"/><path d="M338.14 187.262a2.521 2.521 0 0 1 2.52-2.524 2.521 2.521 0 0 1 0 5.043 2.52 2.52 0 0 1-2.52-2.52zm0 0" fill="none" stroke-width=".12" stroke-linecap="round" stroke-linejoin="round" stroke="green" stroke-miterlimit="10"/><path d="M339.219 187.262a1.44 1.44 0 1 1 2.88-.002 1.44 1.44 0 0 1-2.88.002" fill-rule="evenodd" fill="#fff"/><path d="M339.219 187.262a1.44 1.44 0 1 1 2.88-.002 1.44 1.44 0 0 1-2.88.002zm0 0" fill="none" stroke-width=".06" stroke-linecap="square" stroke-linejoin="bevel" stroke="#000" stroke-miterlimit="10"/><path d="M259.719 230.398a1.861 1.861 0 1 1 3.722.004 1.861 1.861 0 0 1-3.722-.004" fill-rule="evenodd" fill="green"/><path d="M259.719 230.398a1.861 1.861 0 1 1 3.722.004 1.861 1.861 0 0 1-3.722-.004zm0 0" fill="none" stroke-width=".12" stroke-linecap="round" stroke-linejoin="round" stroke="green" stroke-miterlimit="10"/><path d="M260.441 230.398c0-.628.508-1.136 1.137-1.136.633 0 1.14.508 1.14 1.136 0 .633-.507 1.141-1.14 1.141a1.136 1.136 0 0 1-1.137-1.14" fill-rule="evenodd" fill="#fff"/><path d="M260.441 230.398c0-.628.508-1.136 1.137-1.136.633 0 1.14.508 1.14 1.136 0 .633-.507 1.141-1.14 1.141a1.136 1.136 0 0 1-1.137-1.14zm0 0" fill="none" stroke-width=".06" stroke-linecap="square" stroke-linejoin="bevel" stroke="#000" stroke-miterlimit="10"/><path d="M274.059 230.398a1.862 1.862 0 0 1 3.722 0 1.865 1.865 0 0 1-1.86 1.864 1.865 1.865 0 0 1-1.862-1.864" fill-rule="evenodd" fill="green"/><path d="M274.059 230.398a1.862 1.862 0 0 1 3.722 0 1.865 1.865 0 0 1-1.86 1.864 1.865 1.865 0 0 1-1.862-1.864zm0 0" fill="none" stroke-width=".12" stroke-linecap="round" stroke-linejoin="round" stroke="green" stroke-miterlimit="10"/><path d="M274.781 230.398c0-.628.508-1.136 1.14-1.136.63 0 1.138.508 1.138 1.136 0 .633-.508 1.141-1.137 1.141-.633 0-1.14-.508-1.14-1.14" fill-rule="evenodd" fill="#fff"/><path d="M274.781 230.398c0-.628.508-1.136 1.14-1.136.63 0 1.138.508 1.138 1.136 0 .633-.508 1.141-1.137 1.141-.633 0-1.14-.508-1.14-1.14zm0 0" fill="none" stroke-width=".06" stroke-linecap="square" stroke-linejoin="bevel" stroke="#000" stroke-miterlimit="10"/><path d="M266.922 201.602c0-1.028.832-1.864 1.86-1.864a1.862 1.862 0 0 1 0 3.723 1.859 1.859 0 0 1-1.86-1.86" fill-rule="evenodd" fill="green"/><path d="M266.922 201.602c0-1.028.832-1.864 1.86-1.864a1.862 1.862 0 0 1 0 3.723 1.859 1.859 0 0 1-1.86-1.86zm0 0" fill="none" stroke-width=".12" stroke-linecap="round" stroke-linejoin="round" stroke="green" stroke-miterlimit="10"/><path d="M267.64 201.602c0-.633.508-1.141 1.141-1.141a1.14 1.14 0 1 1 0 2.277c-.633 0-1.14-.508-1.14-1.136" fill-rule="evenodd" fill="#fff"/><path d="M267.64 201.602c0-.633.508-1.141 1.141-1.141a1.14 1.14 0 1 1 0 2.277c-.633 0-1.14-.508-1.14-1.136zm0 0" fill="none" stroke-width=".06" stroke-linecap="square" stroke-linejoin="bevel" stroke="#000" stroke-miterlimit="10"/><path d="M295.66 201.602c0-1.028.832-1.864 1.86-1.864a1.862 1.862 0 0 1 0 3.723 1.859 1.859 0 0 1-1.86-1.86" fill-rule="evenodd" fill="green"/><path d="M295.66 201.602c0-1.028.832-1.864 1.86-1.864a1.862 1.862 0 0 1 0 3.723 1.859 1.859 0 0 1-1.86-1.86zm0 0" fill="none" stroke-width=".12" stroke-linecap="round" stroke-linejoin="round" stroke="green" stroke-miterlimit="10"/><path d="M296.379 201.602a1.14 1.14 0 1 1 2.279-.003 1.14 1.14 0 0 1-2.28.003" fill-rule="evenodd" fill="#fff"/><path d="M296.379 201.602a1.14 1.14 0 1 1 2.279-.003 1.14 1.14 0 0 1-2.28.003zm0 0" fill="none" stroke-width=".06" stroke-linecap="square" stroke-linejoin="bevel" stroke="#000" stroke-miterlimit="10"/><path d="M266.922 194.46a1.859 1.859 0 1 1 3.718 0 1.859 1.859 0 0 1-3.718 0" fill-rule="evenodd" fill="green"/><path d="M266.922 194.46a1.859 1.859 0 1 1 3.718 0 1.859 1.859 0 0 1-3.718 0zm0 0" fill="none" stroke-width=".12" stroke-linecap="round" stroke-linejoin="round" stroke="green" stroke-miterlimit="10"/><path d="M267.64 194.46c0-.632.508-1.14 1.141-1.14a1.14 1.14 0 1 1 0 2.282 1.14 1.14 0 0 1-1.14-1.141" fill-rule="evenodd" fill="#fff"/><path d="M267.64 194.46c0-.632.508-1.14 1.141-1.14a1.14 1.14 0 1 1 0 2.282 1.14 1.14 0 0 1-1.14-1.141zm0 0" fill="none" stroke-width=".06" stroke-linecap="square" stroke-linejoin="bevel" stroke="#000" stroke-miterlimit="10"/><path d="M295.66 194.46a1.859 1.859 0 1 1 3.718 0 1.859 1.859 0 0 1-3.718 0" fill-rule="evenodd" fill="green"/><path d="M295.66 194.46a1.859 1.859 0 1 1 3.718 0 1.859 1.859 0 0 1-3.718 0zm0 0" fill="none" stroke-width=".12" stroke-linecap="round" stroke-linejoin="round" stroke="green" stroke-miterlimit="10"/><path d="M296.379 194.46a1.14 1.14 0 1 1 2.281 0c0 .63-.512 1.142-1.14 1.142-.63 0-1.141-.512-1.141-1.141" fill-rule="evenodd" fill="#fff"/><path d="M296.379 194.46a1.14 1.14 0 1 1 2.281 0c0 .63-.512 1.142-1.14 1.142-.63 0-1.141-.512-1.141-1.141zm0 0" fill="none" stroke-width=".06" stroke-linecap="square" stroke-linejoin="bevel" stroke="#000" stroke-miterlimit="10"/><path d="M288.46 208.8a1.859 1.859 0 1 1 3.719 0 1.859 1.859 0 0 1-3.718 0" fill-rule="evenodd" fill="green"/><path d="M288.46 208.8a1.859 1.859 0 1 1 3.719 0 1.859 1.859 0 0 1-3.718 0zm0 0" fill="none" stroke-width=".12" stroke-linecap="round" stroke-linejoin="round" stroke="green" stroke-miterlimit="10"/><path d="M289.18 208.8c0-.628.511-1.14 1.14-1.14.63 0 1.14.512 1.14 1.14 0 .63-.51 1.141-1.14 1.141-.629 0-1.14-.511-1.14-1.14" fill-rule="evenodd" fill="#fff"/><path d="M289.18 208.8c0-.628.511-1.14 1.14-1.14.63 0 1.14.512 1.14 1.14 0 .63-.51 1.141-1.14 1.141-.629 0-1.14-.511-1.14-1.14zm0 0" fill="none" stroke-width=".06" stroke-linecap="square" stroke-linejoin="bevel" stroke="#000" stroke-miterlimit="10"/><path d="M317.262 208.8a1.859 1.859 0 1 1 3.717 0 1.859 1.859 0 0 1-3.717 0" fill-rule="evenodd" fill="green"/><path d="M317.262 208.8a1.859 1.859 0 1 1 3.717 0 1.859 1.859 0 0 1-3.717 0zm0 0" fill="none" stroke-width=".12" stroke-linecap="round" stroke-linejoin="round" stroke="green" stroke-miterlimit="10"/><path d="M317.98 208.8a1.14 1.14 0 1 1 2.282 0 1.14 1.14 0 1 1-2.281 0" fill-rule="evenodd" fill="#fff"/><path d="M317.98 208.8a1.14 1.14 0 1 1 2.282 0 1.14 1.14 0 1 1-2.281 0zm0 0" fill="none" stroke-width=".06" stroke-linecap="square" stroke-linejoin="bevel" stroke="#000" stroke-miterlimit="10"/><path d="M317.262 223.2a1.859 1.859 0 1 1 3.717-.002 1.859 1.859 0 0 1-3.717.001" fill-rule="evenodd" fill="green"/><path d="M317.262 223.2a1.859 1.859 0 1 1 3.717-.002 1.859 1.859 0 0 1-3.717.001zm0 0" fill="none" stroke-width=".12" stroke-linecap="round" stroke-linejoin="round" stroke="green" stroke-miterlimit="10"/><path d="M317.98 223.2a1.14 1.14 0 1 1 2.282 0 1.14 1.14 0 1 1-2.281 0" fill-rule="evenodd" fill="#fff"/><path d="M317.98 223.2a1.14 1.14 0 1 1 2.282 0 1.14 1.14 0 1 1-2.281 0zm0 0" fill="none" stroke-width=".06" stroke-linecap="square" stroke-linejoin="bevel" stroke="#000" stroke-miterlimit="10"/><path d="M288.46 223.2a1.859 1.859 0 1 1 3.719-.002 1.859 1.859 0 0 1-3.718.001" fill-rule="evenodd" fill="green"/><path d="M288.46 223.2a1.859 1.859 0 1 1 3.719-.002 1.859 1.859 0 0 1-3.718.001zm0 0" fill="none" stroke-width=".12" stroke-linecap="round" stroke-linejoin="round" stroke="green" stroke-miterlimit="10"/><path d="M289.18 223.2c0-.63.511-1.141 1.14-1.141.63 0 1.14.511 1.14 1.14 0 .63-.51 1.14-1.14 1.14-.629 0-1.14-.51-1.14-1.14" fill-rule="evenodd" fill="#fff"/><path d="M289.18 223.2c0-.63.511-1.141 1.14-1.141.63 0 1.14.511 1.14 1.14 0 .63-.51 1.14-1.14 1.14-.629 0-1.14-.51-1.14-1.14zm0 0" fill="none" stroke-width=".06" stroke-linecap="square" stroke-linejoin="bevel" stroke="#000" stroke-miterlimit="10"/><path d="M302.68 201.602a2.041 2.041 0 1 1 4.082-.004 2.041 2.041 0 0 1-4.082.004" fill-rule="evenodd" fill="green"/><path d="M302.68 201.602a2.041 2.041 0 1 1 4.082-.004 2.041 2.041 0 0 1-4.082.004zm0 0" fill="none" stroke-width=".12" stroke-linecap="round" stroke-linejoin="round" stroke="green" stroke-miterlimit="10"/><path d="M303.7 201.602c0-.567.456-1.024 1.019-1.024a1.021 1.021 0 0 1 0 2.043 1.02 1.02 0 0 1-1.02-1.02" fill-rule="evenodd" fill="#fff"/><path d="M303.7 201.602c0-.567.456-1.024 1.019-1.024a1.021 1.021 0 0 1 0 2.043 1.02 1.02 0 0 1-1.02-1.02zm0 0" fill="none" stroke-width=".06" stroke-linecap="square" stroke-linejoin="bevel" stroke="#000" stroke-miterlimit="10"/><path d="M302.68 187.262a2.041 2.041 0 1 1 4.082-.003 2.041 2.041 0 0 1-4.082.003" fill-rule="evenodd" fill="green"/><path d="M302.68 187.262a2.041 2.041 0 1 1 4.082-.003 2.041 2.041 0 0 1-4.082.003zm0 0" fill="none" stroke-width=".12" stroke-linecap="round" stroke-linejoin="round" stroke="green" stroke-miterlimit="10"/><path d="M303.7 187.262c0-.567.456-1.024 1.019-1.024a1.021 1.021 0 0 1 0 2.043 1.02 1.02 0 0 1-1.02-1.02" fill-rule="evenodd" fill="#fff"/><path d="M303.7 187.262c0-.567.456-1.024 1.019-1.024a1.021 1.021 0 0 1 0 2.043 1.02 1.02 0 0 1-1.02-1.02zm0 0" fill="none" stroke-width=".06" stroke-linecap="square" stroke-linejoin="bevel" stroke="#000" stroke-miterlimit="10"/><path d="M302.68 194.46c0-1.128.914-2.038 2.039-2.038a2.039 2.039 0 1 1 0 4.078 2.04 2.04 0 0 1-2.04-2.04" fill-rule="evenodd" fill="green"/><path d="M302.68 194.46c0-1.128.914-2.038 2.039-2.038a2.039 2.039 0 1 1 0 4.078 2.04 2.04 0 0 1-2.04-2.04zm0 0" fill="none" stroke-width=".12" stroke-linecap="round" stroke-linejoin="round" stroke="green" stroke-miterlimit="10"/><path d="M303.7 194.46a1.02 1.02 0 1 1 2.04.002 1.02 1.02 0 0 1-2.04-.001" fill-rule="evenodd" fill="#fff"/><path d="M303.7 194.46a1.02 1.02 0 1 1 2.04.002 1.02 1.02 0 0 1-2.04-.001zm0 0" fill="none" stroke-width=".06" stroke-linecap="square" stroke-linejoin="bevel" stroke="#000" stroke-miterlimit="10"/><path d="M281.078 223.2a2.041 2.041 0 0 1 4.082 0c0 1.128-.914 2.038-2.039 2.038a2.039 2.039 0 0 1-2.043-2.039" fill-rule="evenodd" fill="green"/><path d="M281.078 223.2a2.041 2.041 0 0 1 4.082 0c0 1.128-.914 2.038-2.039 2.038a2.039 2.039 0 0 1-2.043-2.039zm0 0" fill="none" stroke-width=".12" stroke-linecap="round" stroke-linejoin="round" stroke="green" stroke-miterlimit="10"/><path d="M282.102 223.2a1.02 1.02 0 1 1 2.04 0 1.02 1.02 0 0 1-2.04 0" fill-rule="evenodd" fill="#fff"/><path d="M282.102 223.2a1.02 1.02 0 1 1 2.04 0 1.02 1.02 0 0 1-2.04 0zm0 0" fill="none" stroke-width=".06" stroke-linecap="square" stroke-linejoin="bevel" stroke="#000" stroke-miterlimit="10"/><path d="M281.078 208.8c0-1.128.914-2.038 2.043-2.038a2.038 2.038 0 1 1 0 4.078 2.041 2.041 0 0 1-2.043-2.04" fill-rule="evenodd" fill="green"/><path d="M281.078 208.8c0-1.128.914-2.038 2.043-2.038a2.038 2.038 0 1 1 0 4.078 2.041 2.041 0 0 1-2.043-2.04zm0 0" fill="none" stroke-width=".12" stroke-linecap="round" stroke-linejoin="round" stroke="green" stroke-miterlimit="10"/><path d="M282.102 208.8a1.02 1.02 0 1 1 2.04.002 1.02 1.02 0 0 1-2.04-.001" fill-rule="evenodd" fill="#fff"/><path d="M282.102 208.8a1.02 1.02 0 1 1 2.04.002 1.02 1.02 0 0 1-2.04-.001zm0 0" fill="none" stroke-width=".06" stroke-linecap="square" stroke-linejoin="bevel" stroke="#000" stroke-miterlimit="10"/><path d="M281.078 216c0-1.129.914-2.04 2.043-2.04a2.038 2.038 0 1 1 0 4.08 2.039 2.039 0 0 1-2.043-2.04" fill-rule="evenodd" fill="green"/><path d="M281.078 216c0-1.129.914-2.04 2.043-2.04a2.038 2.038 0 1 1 0 4.08 2.039 2.039 0 0 1-2.043-2.04zm0 0" fill="none" stroke-width=".12" stroke-linecap="round" stroke-linejoin="round" stroke="green" stroke-miterlimit="10"/><path d="M282.102 216a1.02 1.02 0 1 1 2.04.001 1.02 1.02 0 0 1-2.04-.001" fill-rule="evenodd" fill="#fff"/><path d="M282.102 216a1.02 1.02 0 1 1 2.04.001 1.02 1.02 0 0 1-2.04-.001zm0 0" fill="none" stroke-width=".06" stroke-linecap="square" stroke-linejoin="bevel" stroke="#000" stroke-miterlimit="10"/><path d="M297.578 201.602h7.203M283.18 216l14.398-14.398M254.441 230.398h7.2M254.441 208.8v21.598M268.84 201.602L254.44 208.8M333.52 230.398h7.199M326.32 223.2l7.2 7.198M333.52 208.8l-7.2 14.4M326.32 194.46l14.399 14.34M319.18 187.262l7.14 7.199M304.781 187.262h14.399M340.719 187.262l-14.399 7.199M268.84 194.46l35.941-7.198M261.64 208.8l7.2-14.34M254.441 187.262l14.399 7.199M283.18 208.8h7.199M297.578 194.46l-7.2 14.34M319.18 208.8v14.4M319.18 201.602v7.199M304.781 194.46l14.399 7.142M290.379 223.2l21.601 7.198M283.18 223.2h7.199M275.98 230.398l7.2-7.199" fill="none" stroke-width=".12" stroke-linecap="round" stroke-linejoin="round" stroke="olive" stroke-miterlimit="10"/><g clip-path="url(#K)"><path d="M247.238 180.059h100.684" fill="none" stroke-width=".12" stroke-linecap="round" stroke-linejoin="round" stroke="#000" stroke-miterlimit="10"/></g><g clip-path="url(#L)"><path d="M347.922 180.059v57.48" fill="none" stroke-width=".12" stroke-linecap="round" stroke-linejoin="round" stroke="#000" stroke-miterlimit="10"/></g><g clip-path="url(#M)"><path d="M347.922 237.54H247.238" fill="none" stroke-width=".12" stroke-linecap="round" stroke-linejoin="round" stroke="#000" stroke-miterlimit="10"/></g><g clip-path="url(#N)"><path d="M247.238 237.54v-57.481" fill="none" stroke-width=".12" stroke-linecap="round" stroke-linejoin="round" stroke="#000" stroke-miterlimit="10"/></g></svg>