<?xml version="1.0" encoding="UTF-8" standalone="no"?>
<svg
   xmlns:dc="http://purl.org/dc/elements/1.1/"
   xmlns:cc="http://creativecommons.org/ns#"
   xmlns:rdf="http://www.w3.org/1999/02/22-rdf-syntax-ns#"
   xmlns:svg="http://www.w3.org/2000/svg"
   xmlns="http://www.w3.org/2000/svg"
   xmlns:sodipodi="http://sodipodi.sourceforge.net/DTD/sodipodi-0.dtd"
   xmlns:inkscape="http://www.inkscape.org/namespaces/inkscape"
   id="svg238"
   version="1.1"
   viewBox="0 0 129.66078 64.801399"
   height="64.801399pt"
   width="129.66078pt"
   sodipodi:docname="5V-to-12V-Converter-alt-board-mirrored.svg"
   inkscape:version="0.92.5 (2060ec1f9f, 2020-04-08)">
  <sodipodi:namedview
     pagecolor="#ffffff"
     bordercolor="#666666"
     borderopacity="1"
     objecttolerance="10"
     gridtolerance="10"
     guidetolerance="10"
     inkscape:pageopacity="0"
     inkscape:pageshadow="2"
     inkscape:window-width="600"
     inkscape:window-height="420"
     id="namedview124"
     showgrid="false"
     inkscape:zoom="2.3191489"
     inkscape:cx="86.450928"
     inkscape:cy="43.039481"
     inkscape:window-x="0"
     inkscape:window-y="0"
     inkscape:window-maximized="0"
     inkscape:current-layer="svg238" />
  <metadata
     id="metadata242">
    <rdf:RDF>
      <cc:Work
         rdf:about="">
        <dc:format>image/svg+xml</dc:format>
        <dc:type
           rdf:resource="http://purl.org/dc/dcmitype/StillImage" />
      </cc:Work>
    </rdf:RDF>
  </metadata>
  <defs
     id="defs11">
    <clipPath
       id="clip1">
      <path
         id="path2"
         d="m 5,70 h 130.98047 v 1 H 5 Z m 0,0"
         inkscape:connector-curvature="0" />
    </clipPath>
    <clipPath
       id="clip2">
      <path
         id="path5"
         d="M 5,5 H 135.98047 V 6 H 5 Z m 0,0"
         inkscape:connector-curvature="0" />
    </clipPath>
    <clipPath
       id="clip3">
      <path
         id="path8"
         d="m 135,5 h 0.98047 V 71 H 135 Z m 0,0"
         inkscape:connector-curvature="0" />
    </clipPath>
  </defs>
  <g
     id="surface1"
     transform="translate(-5.661804,-5.4782123)">
    <path
       id="path13"
       transform="matrix(0.06,0,0,0.06,-134.019,-256)"
       d="m 3888.012,5077.9949 v -239.974"
       style="fill:none;stroke:#000000;stroke-width:60;stroke-linecap:round;stroke-linejoin:round;stroke-miterlimit:10;stroke-opacity:1"
       inkscape:connector-curvature="0" />
    <path
       id="path15"
       transform="matrix(0.06,0,0,0.06,-134.019,-256)"
       d="M 3888.012,4838.0209 H 3529.0277"
       style="fill:none;stroke:#000000;stroke-width:60;stroke-linecap:round;stroke-linejoin:round;stroke-miterlimit:10;stroke-opacity:1"
       inkscape:connector-curvature="0" />
    <path
       id="path17"
       transform="matrix(0.06,0,0,0.06,-134.019,-256)"
       d="M 3529.0277,4838.0209 H 3408.9756"
       style="fill:none;stroke:#000000;stroke-width:60;stroke-linecap:round;stroke-linejoin:round;stroke-miterlimit:10;stroke-opacity:1"
       inkscape:connector-curvature="0" />
    <path
       id="path19"
       transform="matrix(0.06,0,0,0.06,-134.019,-256)"
       d="M 3529.0277,5197.0053 V 4838.0209"
       style="fill:none;stroke:#000000;stroke-width:60;stroke-linecap:round;stroke-linejoin:round;stroke-miterlimit:10;stroke-opacity:1"
       inkscape:connector-curvature="0" />
    <path
       id="path21"
       transform="matrix(0.06,0,0,0.06,-134.019,-256)"
       d="M 4368.0251,4838.0209 H 3888.012"
       style="fill:none;stroke:#000000;stroke-width:60;stroke-linecap:round;stroke-linejoin:round;stroke-miterlimit:10;stroke-opacity:1"
       inkscape:connector-curvature="0" />
    <path
       id="path23"
       transform="matrix(0.06,0,0,0.06,-134.019,-256)"
       d="M 3408.9756,4478.9714 H 3888.012"
       style="fill:none;stroke:#000000;stroke-width:60;stroke-linecap:round;stroke-linejoin:round;stroke-miterlimit:10;stroke-opacity:1"
       inkscape:connector-curvature="0" />
    <path
       id="path25"
       transform="matrix(0.06,0,0,0.06,-134.019,-256)"
       d="m 3888.012,4478.9714 v 120.0521"
       style="fill:none;stroke:#000000;stroke-width:60;stroke-linecap:round;stroke-linejoin:round;stroke-miterlimit:10;stroke-opacity:1"
       inkscape:connector-curvature="0" />
    <path
       id="path27"
       transform="matrix(0.06,0,0,0.06,-134.019,-256)"
       d="m 2929.0277,4478.9714 h 119.9869"
       style="fill:none;stroke:#000000;stroke-width:60;stroke-linecap:round;stroke-linejoin:round;stroke-miterlimit:10;stroke-opacity:1"
       inkscape:connector-curvature="0" />
    <path
       id="path29"
       transform="matrix(0.06,0,0,0.06,-134.019,-256)"
       d="m 3049.0146,4478.9714 h 359.961"
       style="fill:none;stroke:#000000;stroke-width:60;stroke-linecap:round;stroke-linejoin:round;stroke-miterlimit:10;stroke-opacity:1"
       inkscape:connector-curvature="0" />
    <path
       id="path31"
       transform="matrix(0.06,0,0,0.06,-134.019,-256)"
       d="m 3408.9756,4478.9714 v 238.9974"
       style="fill:none;stroke:#000000;stroke-width:60;stroke-linecap:round;stroke-linejoin:round;stroke-miterlimit:10;stroke-opacity:1"
       inkscape:connector-curvature="0" />
    <path
       id="path33"
       transform="matrix(0.06,0,0,0.06,-134.019,-256)"
       d="M 3049.0146,4599.0235 V 4478.9714"
       style="fill:none;stroke:#000000;stroke-width:60;stroke-linecap:round;stroke-linejoin:round;stroke-miterlimit:10;stroke-opacity:1"
       inkscape:connector-curvature="0" />
    <path
       id="path35"
       transform="matrix(0.06,0,0,0.06,-134.019,-256)"
       d="M 3408.9756,4838.0209 V 4717.9688"
       style="fill:none;stroke:#000000;stroke-width:60;stroke-linecap:round;stroke-linejoin:round;stroke-miterlimit:10;stroke-opacity:1"
       inkscape:connector-curvature="0" />
    <path
       id="path37"
       transform="matrix(0.06,0,0,0.06,-134.019,-256)"
       d="m 2808.9756,4478.9714 h -119.987"
       style="fill:none;stroke:#000000;stroke-width:60;stroke-linecap:round;stroke-linejoin:round;stroke-miterlimit:10;stroke-opacity:1"
       inkscape:connector-curvature="0" />
    <path
       id="path39"
       transform="matrix(0.06,0,0,0.06,-134.019,-256)"
       d="M 2569.0016,4599.0235 V 4478.9714"
       style="fill:none;stroke:#000000;stroke-width:60;stroke-linecap:round;stroke-linejoin:round;stroke-miterlimit:10;stroke-opacity:1"
       inkscape:connector-curvature="0" />
    <path
       id="path41"
       transform="matrix(0.06,0,0,0.06,-134.019,-256)"
       d="m 2569.0016,4478.9714 h 119.987"
       style="fill:none;stroke:#000000;stroke-width:60;stroke-linecap:round;stroke-linejoin:round;stroke-miterlimit:10;stroke-opacity:1"
       inkscape:connector-curvature="0" />
    <path
       id="path43"
       transform="matrix(0.06,0,0,0.06,-134.019,-256)"
       d="m 2688.9886,4478.9714 v 120.0521"
       style="fill:none;stroke:#000000;stroke-width:60;stroke-linecap:round;stroke-linejoin:round;stroke-miterlimit:10;stroke-opacity:1"
       inkscape:connector-curvature="0" />
    <path
       id="path45"
       transform="matrix(0.06,0,0,0.06,-134.019,-256)"
       d="m 2688.9886,4599.0235 v 238.9974"
       style="fill:none;stroke:#000000;stroke-width:60;stroke-linecap:round;stroke-linejoin:round;stroke-miterlimit:10;stroke-opacity:1"
       inkscape:connector-curvature="0" />
    <path
       id="path47"
       transform="matrix(0.06,0,0,0.06,-134.019,-256)"
       d="m 2688.9886,4838.0209 h -119.987"
       style="fill:none;stroke:#000000;stroke-width:60;stroke-linecap:round;stroke-linejoin:round;stroke-miterlimit:10;stroke-opacity:1"
       inkscape:connector-curvature="0" />
    <path
       id="path49"
       transform="matrix(0.06,0,0,0.06,-134.019,-256)"
       d="M 3288.9886,5316.9923 V 5077.9949"
       style="fill:none;stroke:#000000;stroke-width:60;stroke-linecap:round;stroke-linejoin:round;stroke-miterlimit:10;stroke-opacity:1"
       inkscape:connector-curvature="0" />
    <path
       id="path51"
       transform="matrix(0.06,0,0,0.06,-134.019,-256)"
       d="m 3288.9886,4958.0079 h 119.987"
       style="fill:none;stroke:#000000;stroke-width:60;stroke-linecap:round;stroke-linejoin:round;stroke-miterlimit:10;stroke-opacity:1"
       inkscape:connector-curvature="0" />
    <path
       id="path53"
       transform="matrix(0.06,0,0,0.06,-134.019,-256)"
       d="m 3408.9756,5077.9949 h -119.987"
       style="fill:none;stroke:#000000;stroke-width:60;stroke-linecap:round;stroke-linejoin:round;stroke-miterlimit:10;stroke-opacity:1"
       inkscape:connector-curvature="0" />
    <path
       id="path55"
       transform="matrix(0.06,0,0,0.06,-134.019,-256)"
       d="m 3288.9886,4958.0079 v 119.987"
       style="fill:none;stroke:#000000;stroke-width:60;stroke-linecap:round;stroke-linejoin:round;stroke-miterlimit:10;stroke-opacity:1"
       inkscape:connector-curvature="0" />
    <path
       id="path57"
       transform="matrix(0.06,0,0,0.06,-134.019,-256)"
       d="m 3288.9886,4599.0235 v 358.9844"
       style="fill:none;stroke:#000000;stroke-width:60;stroke-linecap:round;stroke-linejoin:round;stroke-miterlimit:10;stroke-opacity:1"
       inkscape:connector-curvature="0" />
    <path
       id="path59"
       transform="matrix(0.06,0,0,0.06,-134.019,-256)"
       d="m 2808.9756,4958.0079 h 120.0521"
       style="fill:none;stroke:#000000;stroke-width:60;stroke-linecap:round;stroke-linejoin:round;stroke-miterlimit:10;stroke-opacity:1"
       inkscape:connector-curvature="0" />
    <path
       id="path61"
       transform="matrix(0.06,0,0,0.06,-134.019,-256)"
       d="m 2929.0277,4958.0079 h 119.9869"
       style="fill:none;stroke:#000000;stroke-width:60;stroke-linecap:round;stroke-linejoin:round;stroke-miterlimit:10;stroke-opacity:1"
       inkscape:connector-curvature="0" />
    <path
       id="path63"
       transform="matrix(0.06,0,0,0.06,-134.019,-256)"
       d="m 3049.0146,4958.0079 v 238.9974"
       style="fill:none;stroke:#000000;stroke-width:60;stroke-linecap:round;stroke-linejoin:round;stroke-miterlimit:10;stroke-opacity:1"
       inkscape:connector-curvature="0" />
    <path
       id="path65"
       transform="matrix(0.06,0,0,0.06,-134.019,-256)"
       d="M 2929.0277,4717.9688 H 2808.9756"
       style="fill:none;stroke:#000000;stroke-width:60;stroke-linecap:round;stroke-linejoin:round;stroke-miterlimit:10;stroke-opacity:1"
       inkscape:connector-curvature="0" />
    <path
       id="path67"
       transform="matrix(0.06,0,0,0.06,-134.019,-256)"
       d="m 2808.9756,4717.9688 v 240.0391"
       style="fill:none;stroke:#000000;stroke-width:60;stroke-linecap:round;stroke-linejoin:round;stroke-miterlimit:10;stroke-opacity:1"
       inkscape:connector-curvature="0" />
    <path
       id="path69"
       transform="matrix(0.06,0,0,0.06,-134.019,-256)"
       d="m 3169.0016,4838.0209 v 358.9844"
       style="fill:none;stroke:#000000;stroke-width:60;stroke-linecap:round;stroke-linejoin:round;stroke-miterlimit:10;stroke-opacity:1"
       inkscape:connector-curvature="0" />
    <path
       id="path71"
       transform="matrix(0.06,0,0,0.06,-134.019,-256)"
       d="m 2929.0277,4838.0209 h 239.9739"
       style="fill:none;stroke:#000000;stroke-width:60;stroke-linecap:round;stroke-linejoin:round;stroke-miterlimit:10;stroke-opacity:1"
       inkscape:connector-curvature="0" />
    <path
       id="path73"
       transform="matrix(0.06,0,0,0.06,-134.019,-256)"
       d="M 3169.0016,4838.0209 V 4599.0235"
       style="fill:none;stroke:#000000;stroke-width:60;stroke-linecap:round;stroke-linejoin:round;stroke-miterlimit:10;stroke-opacity:1"
       inkscape:connector-curvature="0" />
    <path
       id="path75"
       transform="matrix(0.06,0,0,0.06,-134.019,-256)"
       d="M 4368.0251,5316.9923 H 3529.0277"
       style="fill:none;stroke:#000000;stroke-width:60;stroke-linecap:round;stroke-linejoin:round;stroke-miterlimit:10;stroke-opacity:1"
       inkscape:connector-curvature="0" />
    <path
       id="path77"
       transform="matrix(0.06,0,0,0.06,-134.019,-256)"
       d="M 2929.0277,5316.9923 H 2808.9756"
       style="fill:none;stroke:#000000;stroke-width:60;stroke-linecap:round;stroke-linejoin:round;stroke-miterlimit:10;stroke-opacity:1"
       inkscape:connector-curvature="0" />
    <path
       id="path79"
       transform="matrix(0.06,0,0,0.06,-134.019,-256)"
       d="m 2808.9756,5316.9923 h -119.987"
       style="fill:none;stroke:#000000;stroke-width:60;stroke-linecap:round;stroke-linejoin:round;stroke-miterlimit:10;stroke-opacity:1"
       inkscape:connector-curvature="0" />
    <path
       id="path81"
       transform="matrix(0.06,0,0,0.06,-134.019,-256)"
       d="m 2929.0277,5316.9923 v -119.987"
       style="fill:none;stroke:#000000;stroke-width:60;stroke-linecap:round;stroke-linejoin:round;stroke-miterlimit:10;stroke-opacity:1"
       inkscape:connector-curvature="0" />
    <path
       id="path83"
       transform="matrix(0.06,0,0,0.06,-134.019,-256)"
       d="m 2929.0277,5077.9949 v 119.0104"
       style="fill:none;stroke:#000000;stroke-width:60;stroke-linecap:round;stroke-linejoin:round;stroke-miterlimit:10;stroke-opacity:1"
       inkscape:connector-curvature="0" />
    <path
       id="path85"
       transform="matrix(0.06,0,0,0.06,-134.019,-256)"
       d="m 2808.9756,5197.0053 v 119.987"
       style="fill:none;stroke:#000000;stroke-width:60;stroke-linecap:round;stroke-linejoin:round;stroke-miterlimit:10;stroke-opacity:1"
       inkscape:connector-curvature="0" />
    <path
       id="path87"
       transform="matrix(0.06,0,0,0.06,-134.019,-256)"
       d="M 4368.0251,5316.9923 V 4958.0079"
       style="fill:none;stroke:#000000;stroke-width:60;stroke-linecap:round;stroke-linejoin:round;stroke-miterlimit:10;stroke-opacity:1"
       inkscape:connector-curvature="0" />
    <path
       id="path89"
       transform="matrix(0.06,0,0,0.06,-134.019,-256)"
       d="m 3529.0277,5316.9923 h -600"
       style="fill:none;stroke:#000000;stroke-width:60;stroke-linecap:round;stroke-linejoin:round;stroke-miterlimit:10;stroke-opacity:1"
       inkscape:connector-curvature="0" />
    <path
       id="path91"
       transform="matrix(0.06,0,0,0.06,-134.019,-256)"
       d="m 2569.0016,4717.9688 h -119.987"
       style="fill:none;stroke:#000000;stroke-width:60;stroke-linecap:round;stroke-linejoin:round;stroke-miterlimit:10;stroke-opacity:1"
       inkscape:connector-curvature="0" />
    <path
       id="path93"
       transform="matrix(0.06,0,0,0.06,-134.019,-256)"
       d="m 2449.0146,4717.9688 v 240.0391"
       style="fill:none;stroke:#000000;stroke-width:60;stroke-linecap:round;stroke-linejoin:round;stroke-miterlimit:10;stroke-opacity:1"
       inkscape:connector-curvature="0" />
    <path
       id="path95"
       transform="matrix(0.06,0,0,0.06,-134.019,-256)"
       d="m 2449.0146,5316.9923 h 239.974"
       style="fill:none;stroke:#000000;stroke-width:60;stroke-linecap:round;stroke-linejoin:round;stroke-miterlimit:10;stroke-opacity:1"
       inkscape:connector-curvature="0" />
    <path
       id="path97"
       transform="matrix(0.06,0,0,0.06,-134.019,-256)"
       d="m 2688.9886,5316.9923 v -119.987"
       style="fill:none;stroke:#000000;stroke-width:60;stroke-linecap:round;stroke-linejoin:round;stroke-miterlimit:10;stroke-opacity:1"
       inkscape:connector-curvature="0" />
    <path
       id="path99"
       transform="matrix(0.06,0,0,0.06,-134.019,-256)"
       d="m 2569.0016,4958.0079 h -119.987"
       style="fill:none;stroke:#000000;stroke-width:60;stroke-linecap:round;stroke-linejoin:round;stroke-miterlimit:10;stroke-opacity:1"
       inkscape:connector-curvature="0" />
    <path
       id="path101"
       transform="matrix(0.06,0,0,0.06,-134.019,-256)"
       d="m 2449.0146,4958.0079 v 358.9844"
       style="fill:none;stroke:#000000;stroke-width:60;stroke-linecap:round;stroke-linejoin:round;stroke-miterlimit:10;stroke-opacity:1"
       inkscape:connector-curvature="0" />
    <path
       id="path103"
       transform="matrix(0.06,0,0,0.06,-134.019,-256)"
       d="m 3563.012,5316.9923 c 0,18.2291 -14.7786,33.0078 -33.0078,33.0078 -18.2291,0 -33.0078,-14.7787 -33.0078,-33.0078 0,-18.2292 14.7787,-33.0078 33.0078,-33.0078 18.2292,0 33.0078,14.7786 33.0078,33.0078 z m 0,0"
       style="fill:#000000;fill-opacity:1;fill-rule:evenodd;stroke:#000000;stroke-width:2;stroke-linecap:round;stroke-linejoin:round;stroke-miterlimit:10;stroke-opacity:1"
       inkscape:connector-curvature="0" />
    <path
       id="path105"
       transform="matrix(0.06,0,0,0.06,-134.019,-256)"
       d="m 3550.9678,5316.9923 c 0,11.5885 -9.375,21.0286 -20.9636,21.0286 -11.5885,0 -21.0286,-9.4401 -21.0286,-21.0286 0,-11.5886 9.4401,-20.9636 21.0286,-20.9636 11.5886,0 20.9636,9.375 20.9636,20.9636 z m 0,0"
       style="fill:#ffffff;fill-opacity:1;fill-rule:evenodd;stroke:#000000;stroke-width:1;stroke-linecap:square;stroke-linejoin:bevel;stroke-miterlimit:10;stroke-opacity:1"
       inkscape:connector-curvature="0" />
    <path
       id="path107"
       transform="matrix(0.06,0,0,0.06,-134.019,-256)"
       d="m 3557.999,5169.0105 h -58.0078 v 55.9896 h 58.0078 z m 0,0"
       style="fill:#000000;fill-opacity:1;fill-rule:nonzero;stroke:#000000;stroke-width:2;stroke-linecap:round;stroke-linejoin:round;stroke-miterlimit:10;stroke-opacity:1"
       inkscape:connector-curvature="0" />
    <path
       id="path109"
       transform="matrix(0.06,0,0,0.06,-134.019,-256)"
       d="m 3546.9964,5197.0053 c 0,9.375 -7.6172,16.9922 -16.9922,16.9922 -9.375,0 -16.9922,-7.6172 -16.9922,-16.9922 0,-9.375 7.6172,-16.9922 16.9922,-16.9922 9.375,0 16.9922,7.6172 16.9922,16.9922 z m 0,0"
       style="fill:#ffffff;fill-opacity:1;fill-rule:evenodd;stroke:#000000;stroke-width:1;stroke-linecap:square;stroke-linejoin:bevel;stroke-miterlimit:10;stroke-opacity:1"
       inkscape:connector-curvature="0" />
    <path
       id="path111"
       transform="matrix(0.06,0,0,0.06,-134.019,-256)"
       d="m 2843.025,5197.0053 c 0,18.2292 -14.7786,33.0078 -33.0078,33.0078 -18.2291,0 -33.0078,-14.7786 -33.0078,-33.0078 0,-18.2292 14.7787,-33.0078 33.0078,-33.0078 18.2292,0 33.0078,14.7786 33.0078,33.0078 z m 0,0"
       style="fill:#000000;fill-opacity:1;fill-rule:evenodd;stroke:#000000;stroke-width:2;stroke-linecap:round;stroke-linejoin:round;stroke-miterlimit:10;stroke-opacity:1"
       inkscape:connector-curvature="0" />
    <path
       id="path113"
       transform="matrix(0.06,0,0,0.06,-134.019,-256)"
       d="m 2830.9808,5197.0053 c 0,11.5885 -9.375,20.9635 -20.9636,20.9635 -11.5885,0 -21.0286,-9.375 -21.0286,-20.9635 0,-11.5885 9.4401,-21.0287 21.0286,-21.0287 11.5886,0 20.9636,9.4402 20.9636,21.0287 z m 0,0"
       style="fill:#ffffff;fill-opacity:1;fill-rule:evenodd;stroke:#000000;stroke-width:1;stroke-linecap:square;stroke-linejoin:bevel;stroke-miterlimit:10;stroke-opacity:1"
       inkscape:connector-curvature="0" />
    <path
       id="path115"
       transform="matrix(0.06,0,0,0.06,-134.019,-256)"
       d="m 2843.025,4958.0079 c 0,18.2292 -14.7786,33.0078 -33.0078,33.0078 -18.2291,0 -33.0078,-14.7786 -33.0078,-33.0078 0,-18.2292 14.7787,-33.0078 33.0078,-33.0078 18.2292,0 33.0078,14.7786 33.0078,33.0078 z m 0,0"
       style="fill:#000000;fill-opacity:1;fill-rule:evenodd;stroke:#000000;stroke-width:2;stroke-linecap:round;stroke-linejoin:round;stroke-miterlimit:10;stroke-opacity:1"
       inkscape:connector-curvature="0" />
    <path
       id="path117"
       transform="matrix(0.06,0,0,0.06,-134.019,-256)"
       d="m 2830.9808,4958.0079 c 0,11.5885 -9.375,20.9635 -20.9636,20.9635 -11.5885,0 -21.0286,-9.375 -21.0286,-20.9635 0,-11.5885 9.4401,-21.0287 21.0286,-21.0287 11.5886,0 20.9636,9.4402 20.9636,21.0287 z m 0,0"
       style="fill:#ffffff;fill-opacity:1;fill-rule:evenodd;stroke:#000000;stroke-width:1;stroke-linecap:square;stroke-linejoin:bevel;stroke-miterlimit:10;stroke-opacity:1"
       inkscape:connector-curvature="0" />
    <path
       id="path119"
       transform="matrix(0.06,0,0,0.06,-134.019,-256)"
       d="m 2602.986,4717.9688 c 0,18.2292 -14.7787,33.0078 -33.0078,33.0078 -18.2292,0 -33.0078,-14.7786 -33.0078,-33.0078 0,-18.164 14.7786,-32.9427 33.0078,-32.9427 18.2291,0 33.0078,14.7787 33.0078,32.9427 z m 0,0"
       style="fill:#000000;fill-opacity:1;fill-rule:evenodd;stroke:#000000;stroke-width:2;stroke-linecap:round;stroke-linejoin:round;stroke-miterlimit:10;stroke-opacity:1"
       inkscape:connector-curvature="0" />
    <path
       id="path121"
       transform="matrix(0.06,0,0,0.06,-134.019,-256)"
       d="m 2591.0068,4717.9688 c 0,11.6537 -9.4401,21.0287 -21.0286,21.0287 -11.5886,0 -20.9636,-9.375 -20.9636,-21.0287 0,-11.5885 9.375,-20.9635 20.9636,-20.9635 11.5885,0 21.0286,9.375 21.0286,20.9635 z m 0,0"
       style="fill:#ffffff;fill-opacity:1;fill-rule:evenodd;stroke:#000000;stroke-width:1;stroke-linecap:square;stroke-linejoin:bevel;stroke-miterlimit:10;stroke-opacity:1"
       inkscape:connector-curvature="0" />
    <path
       id="path123"
       transform="matrix(0.06,0,0,0.06,-134.019,-256)"
       d="m 2597.973,4571.0287 h -57.9427 v 55.9896 h 57.9427 z m 0,0"
       style="fill:#000000;fill-opacity:1;fill-rule:nonzero;stroke:#000000;stroke-width:2;stroke-linecap:round;stroke-linejoin:round;stroke-miterlimit:10;stroke-opacity:1"
       inkscape:connector-curvature="0" />
    <path
       id="path125"
       transform="matrix(0.06,0,0,0.06,-134.019,-256)"
       d="m 2586.9704,4599.0235 c 0,9.375 -7.5521,16.9922 -16.9922,16.9922 -9.375,0 -16.9922,-7.6172 -16.9922,-16.9922 0,-9.4401 7.6172,-16.9922 16.9922,-16.9922 9.4401,0 16.9922,7.5521 16.9922,16.9922 z m 0,0"
       style="fill:#ffffff;fill-opacity:1;fill-rule:evenodd;stroke:#000000;stroke-width:1;stroke-linecap:square;stroke-linejoin:bevel;stroke-miterlimit:10;stroke-opacity:1"
       inkscape:connector-curvature="0" />
    <path
       id="path127"
       transform="matrix(0.06,0,0,0.06,-134.019,-256)"
       d="m 2852.0094,4478.9714 c 0,23.2422 -18.8151,42.0573 -41.9922,42.0573 -23.2422,0 -41.9922,-18.8151 -41.9922,-42.0573 0,-23.1771 18.75,-41.9922 41.9922,-41.9922 23.1771,0 41.9922,18.8151 41.9922,41.9922 z m 0,0"
       style="fill:#000000;fill-opacity:1;fill-rule:evenodd;stroke:#000000;stroke-width:2;stroke-linecap:round;stroke-linejoin:round;stroke-miterlimit:10;stroke-opacity:1"
       inkscape:connector-curvature="0" />
    <path
       id="path129"
       transform="matrix(0.06,0,0,0.06,-134.019,-256)"
       d="m 2830.9808,4478.9714 c 0,11.6537 -9.375,21.0287 -20.9636,21.0287 -11.5885,0 -21.0286,-9.375 -21.0286,-21.0287 0,-11.5885 9.4401,-20.9635 21.0286,-20.9635 11.5886,0 20.9636,9.375 20.9636,20.9635 z m 0,0"
       style="fill:#ffffff;fill-opacity:1;fill-rule:evenodd;stroke:#000000;stroke-width:1;stroke-linecap:square;stroke-linejoin:bevel;stroke-miterlimit:10;stroke-opacity:1"
       inkscape:connector-curvature="0" />
    <path
       id="path131"
       transform="matrix(0.06,0,0,0.06,-134.019,-256)"
       d="m 2971.9964,4478.9714 c 0,23.2422 -18.8151,42.0573 -41.9922,42.0573 -23.1771,0 -41.9922,-18.8151 -41.9922,-42.0573 0,-23.1771 18.8151,-41.9922 41.9922,-41.9922 23.1771,0 41.9922,18.8151 41.9922,41.9922 z m 0,0"
       style="fill:#000000;fill-opacity:1;fill-rule:evenodd;stroke:#000000;stroke-width:2;stroke-linecap:round;stroke-linejoin:round;stroke-miterlimit:10;stroke-opacity:1"
       inkscape:connector-curvature="0" />
    <path
       id="path133"
       transform="matrix(0.06,0,0,0.06,-134.019,-256)"
       d="m 2950.9678,4478.9714 c 0,11.6537 -9.375,21.0287 -20.9636,21.0287 -11.5885,0 -21.0286,-9.375 -21.0286,-21.0287 0,-11.5885 9.4401,-20.9635 21.0286,-20.9635 11.5886,0 20.9636,9.375 20.9636,20.9635 z m 0,0"
       style="fill:#ffffff;fill-opacity:1;fill-rule:evenodd;stroke:#000000;stroke-width:1;stroke-linecap:square;stroke-linejoin:bevel;stroke-miterlimit:10;stroke-opacity:1"
       inkscape:connector-curvature="0" />
    <path
       id="path135"
       transform="matrix(0.06,0,0,0.06,-134.019,-256)"
       d="m 2722.973,4599.0235 c 0,18.2292 -14.7787,33.0078 -32.9427,33.0078 -18.2292,0 -33.0079,-14.7786 -33.0079,-33.0078 0,-18.2292 14.7787,-33.0078 33.0079,-33.0078 18.164,0 32.9427,14.7786 32.9427,33.0078 z m 0,0"
       style="fill:#000000;fill-opacity:1;fill-rule:evenodd;stroke:#000000;stroke-width:2;stroke-linecap:round;stroke-linejoin:round;stroke-miterlimit:10;stroke-opacity:1"
       inkscape:connector-curvature="0" />
    <path
       id="path137"
       transform="matrix(0.06,0,0,0.06,-134.019,-256)"
       d="m 2710.9938,4599.0235 c 0,11.5886 -9.375,20.9636 -20.9635,20.9636 -11.6537,0 -21.0287,-9.375 -21.0287,-20.9636 0,-11.6536 9.375,-21.0286 21.0287,-21.0286 11.5885,0 20.9635,9.375 20.9635,21.0286 z m 0,0"
       style="fill:#ffffff;fill-opacity:1;fill-rule:evenodd;stroke:#000000;stroke-width:1;stroke-linecap:square;stroke-linejoin:bevel;stroke-miterlimit:10;stroke-opacity:1"
       inkscape:connector-curvature="0" />
    <path
       id="path139"
       transform="matrix(0.06,0,0,0.06,-134.019,-256)"
       d="m 2722.973,5197.0053 c 0,18.2292 -14.7787,33.0078 -32.9427,33.0078 -18.2292,0 -33.0079,-14.7786 -33.0079,-33.0078 0,-18.2292 14.7787,-33.0078 33.0079,-33.0078 18.164,0 32.9427,14.7786 32.9427,33.0078 z m 0,0"
       style="fill:#000000;fill-opacity:1;fill-rule:evenodd;stroke:#000000;stroke-width:2;stroke-linecap:round;stroke-linejoin:round;stroke-miterlimit:10;stroke-opacity:1"
       inkscape:connector-curvature="0" />
    <path
       id="path141"
       transform="matrix(0.06,0,0,0.06,-134.019,-256)"
       d="m 2710.9938,5197.0053 c 0,11.5885 -9.375,20.9635 -20.9635,20.9635 -11.6537,0 -21.0287,-9.375 -21.0287,-20.9635 0,-11.5885 9.375,-21.0287 21.0287,-21.0287 11.5885,0 20.9635,9.4402 20.9635,21.0287 z m 0,0"
       style="fill:#ffffff;fill-opacity:1;fill-rule:evenodd;stroke:#000000;stroke-width:1;stroke-linecap:square;stroke-linejoin:bevel;stroke-miterlimit:10;stroke-opacity:1"
       inkscape:connector-curvature="0" />
    <path
       id="path143"
       transform="matrix(0.06,0,0,0.06,-134.019,-256)"
       d="m 3835.9938,4621.0287 30.013,29.9479 h 44.0105 l 30.013,-29.9479 v -44.0104 l -30.013,-30.013 h -44.0105 l -30.013,30.013 z m 0,0"
       style="fill:#000000;fill-opacity:1;fill-rule:nonzero;stroke:#000000;stroke-width:2;stroke-linecap:round;stroke-linejoin:round;stroke-miterlimit:10;stroke-opacity:1"
       inkscape:connector-curvature="0" />
    <path
       id="path145"
       transform="matrix(0.06,0,0,0.06,-134.019,-256)"
       d="m 3913.012,4599.0235 c 0,13.2162 -10.7421,23.9583 -24.0234,23.9583 -13.2161,0 -23.9583,-10.7421 -23.9583,-23.9583 0,-13.2812 10.7422,-24.0234 23.9583,-24.0234 13.2813,0 24.0234,10.7422 24.0234,24.0234 z m 0,0"
       style="fill:#ffffff;fill-opacity:1;fill-rule:evenodd;stroke:#000000;stroke-width:1;stroke-linecap:square;stroke-linejoin:bevel;stroke-miterlimit:10;stroke-opacity:1"
       inkscape:connector-curvature="0" />
    <path
       id="path147"
       transform="matrix(0.06,0,0,0.06,-134.019,-256)"
       d="m 3835.9938,5100.0001 30.013,30.013 h 44.0105 l 30.013,-30.013 v -44.0104 l -30.013,-30.0131 h -44.0105 l -30.013,30.0131 z m 0,0"
       style="fill:#000000;fill-opacity:1;fill-rule:nonzero;stroke:#000000;stroke-width:2;stroke-linecap:round;stroke-linejoin:round;stroke-miterlimit:10;stroke-opacity:1"
       inkscape:connector-curvature="0" />
    <path
       id="path149"
       transform="matrix(0.06,0,0,0.06,-134.019,-256)"
       d="m 3913.012,5077.9949 c 0,13.2812 -10.7421,24.0234 -24.0234,24.0234 -13.2161,0 -23.9583,-10.7422 -23.9583,-24.0234 0,-13.2813 10.7422,-24.0235 23.9583,-24.0235 13.2813,0 24.0234,10.7422 24.0234,24.0235 z m 0,0"
       style="fill:#ffffff;fill-opacity:1;fill-rule:evenodd;stroke:#000000;stroke-width:1;stroke-linecap:square;stroke-linejoin:bevel;stroke-miterlimit:10;stroke-opacity:1"
       inkscape:connector-curvature="0" />
    <path
       id="path151"
       transform="matrix(0.06,0,0,0.06,-134.019,-256)"
       d="m 3443.0251,4838.0209 c 0,18.2292 -14.7787,33.0078 -33.0079,33.0078 -18.2291,0 -33.0078,-14.7786 -33.0078,-33.0078 0,-18.2292 14.7787,-33.0078 33.0078,-33.0078 18.2292,0 33.0079,14.7786 33.0079,33.0078 z m 0,0"
       style="fill:#000000;fill-opacity:1;fill-rule:evenodd;stroke:#000000;stroke-width:2;stroke-linecap:round;stroke-linejoin:round;stroke-miterlimit:10;stroke-opacity:1"
       inkscape:connector-curvature="0" />
    <path
       id="path153"
       transform="matrix(0.06,0,0,0.06,-134.019,-256)"
       d="m 3430.9808,4838.0209 c 0,11.5886 -9.375,20.9636 -20.9636,20.9636 -11.5885,0 -21.0286,-9.375 -21.0286,-20.9636 0,-11.5885 9.4401,-21.0286 21.0286,-21.0286 11.5886,0 20.9636,9.4401 20.9636,21.0286 z m 0,0"
       style="fill:#ffffff;fill-opacity:1;fill-rule:evenodd;stroke:#000000;stroke-width:1;stroke-linecap:square;stroke-linejoin:bevel;stroke-miterlimit:10;stroke-opacity:1"
       inkscape:connector-curvature="0" />
    <path
       id="path155"
       transform="matrix(0.06,0,0,0.06,-134.019,-256)"
       d="m 2963.012,4838.0209 c 0,18.2292 -14.7786,33.0078 -33.0078,33.0078 -18.2292,0 -33.0078,-14.7786 -33.0078,-33.0078 0,-18.2292 14.7786,-33.0078 33.0078,-33.0078 18.2292,0 33.0078,14.7786 33.0078,33.0078 z m 0,0"
       style="fill:#000000;fill-opacity:1;fill-rule:evenodd;stroke:#000000;stroke-width:2;stroke-linecap:round;stroke-linejoin:round;stroke-miterlimit:10;stroke-opacity:1"
       inkscape:connector-curvature="0" />
    <path
       id="path157"
       transform="matrix(0.06,0,0,0.06,-134.019,-256)"
       d="m 2950.9678,4838.0209 c 0,11.5886 -9.375,20.9636 -20.9636,20.9636 -11.5885,0 -21.0286,-9.375 -21.0286,-20.9636 0,-11.5885 9.4401,-21.0286 21.0286,-21.0286 11.5886,0 20.9636,9.4401 20.9636,21.0286 z m 0,0"
       style="fill:#ffffff;fill-opacity:1;fill-rule:evenodd;stroke:#000000;stroke-width:1;stroke-linecap:square;stroke-linejoin:bevel;stroke-miterlimit:10;stroke-opacity:1"
       inkscape:connector-curvature="0" />
    <path
       id="path159"
       transform="matrix(0.06,0,0,0.06,-134.019,-256)"
       d="m 2963.012,5077.9949 c 0,18.2291 -14.7786,33.0078 -33.0078,33.0078 -18.2292,0 -33.0078,-14.7787 -33.0078,-33.0078 0,-18.2292 14.7786,-33.0078 33.0078,-33.0078 18.2292,0 33.0078,14.7786 33.0078,33.0078 z m 0,0"
       style="fill:#000000;fill-opacity:1;fill-rule:evenodd;stroke:#000000;stroke-width:2;stroke-linecap:round;stroke-linejoin:round;stroke-miterlimit:10;stroke-opacity:1"
       inkscape:connector-curvature="0" />
    <path
       id="path161"
       transform="matrix(0.06,0,0,0.06,-134.019,-256)"
       d="m 2950.9678,5077.9949 c 0,11.5885 -9.375,21.0286 -20.9636,21.0286 -11.5885,0 -21.0286,-9.4401 -21.0286,-21.0286 0,-11.5886 9.4401,-20.9636 21.0286,-20.9636 11.5886,0 20.9636,9.375 20.9636,20.9636 z m 0,0"
       style="fill:#ffffff;fill-opacity:1;fill-rule:evenodd;stroke:#000000;stroke-width:1;stroke-linecap:square;stroke-linejoin:bevel;stroke-miterlimit:10;stroke-opacity:1"
       inkscape:connector-curvature="0" />
    <path
       id="path163"
       transform="matrix(0.06,0,0,0.06,-134.019,-256)"
       d="m 3443.0251,5077.9949 c 0,18.2291 -14.7787,33.0078 -33.0079,33.0078 -18.2291,0 -33.0078,-14.7787 -33.0078,-33.0078 0,-18.2292 14.7787,-33.0078 33.0078,-33.0078 18.2292,0 33.0079,14.7786 33.0079,33.0078 z m 0,0"
       style="fill:#000000;fill-opacity:1;fill-rule:evenodd;stroke:#000000;stroke-width:2;stroke-linecap:round;stroke-linejoin:round;stroke-miterlimit:10;stroke-opacity:1"
       inkscape:connector-curvature="0" />
    <path
       id="path165"
       transform="matrix(0.06,0,0,0.06,-134.019,-256)"
       d="m 3430.9808,5077.9949 c 0,11.5885 -9.375,21.0286 -20.9636,21.0286 -11.5885,0 -21.0286,-9.4401 -21.0286,-21.0286 0,-11.5886 9.4401,-20.9636 21.0286,-20.9636 11.5886,0 20.9636,9.375 20.9636,20.9636 z m 0,0"
       style="fill:#ffffff;fill-opacity:1;fill-rule:evenodd;stroke:#000000;stroke-width:1;stroke-linecap:square;stroke-linejoin:bevel;stroke-miterlimit:10;stroke-opacity:1"
       inkscape:connector-curvature="0" />
    <path
       id="path167"
       transform="matrix(0.06,0,0,0.06,-134.019,-256)"
       d="m 3443.0251,4958.0079 c 0,18.2292 -14.7787,33.0078 -33.0079,33.0078 -18.2291,0 -33.0078,-14.7786 -33.0078,-33.0078 0,-18.2292 14.7787,-33.0078 33.0078,-33.0078 18.2292,0 33.0079,14.7786 33.0079,33.0078 z m 0,0"
       style="fill:#000000;fill-opacity:1;fill-rule:evenodd;stroke:#000000;stroke-width:2;stroke-linecap:round;stroke-linejoin:round;stroke-miterlimit:10;stroke-opacity:1"
       inkscape:connector-curvature="0" />
    <path
       id="path169"
       transform="matrix(0.06,0,0,0.06,-134.019,-256)"
       d="m 3430.9808,4958.0079 c 0,11.5885 -9.375,20.9635 -20.9636,20.9635 -11.5885,0 -21.0286,-9.375 -21.0286,-20.9635 0,-11.5885 9.4401,-21.0287 21.0286,-21.0287 11.5886,0 20.9636,9.4402 20.9636,21.0287 z m 0,0"
       style="fill:#ffffff;fill-opacity:1;fill-rule:evenodd;stroke:#000000;stroke-width:1;stroke-linecap:square;stroke-linejoin:bevel;stroke-miterlimit:10;stroke-opacity:1"
       inkscape:connector-curvature="0" />
    <path
       id="path171"
       transform="matrix(0.06,0,0,0.06,-134.019,-256)"
       d="m 2963.012,4958.0079 c 0,18.2292 -14.7786,33.0078 -33.0078,33.0078 -18.2292,0 -33.0078,-14.7786 -33.0078,-33.0078 0,-18.2292 14.7786,-33.0078 33.0078,-33.0078 18.2292,0 33.0078,14.7786 33.0078,33.0078 z m 0,0"
       style="fill:#000000;fill-opacity:1;fill-rule:evenodd;stroke:#000000;stroke-width:2;stroke-linecap:round;stroke-linejoin:round;stroke-miterlimit:10;stroke-opacity:1"
       inkscape:connector-curvature="0" />
    <path
       id="path173"
       transform="matrix(0.06,0,0,0.06,-134.019,-256)"
       d="m 2950.9678,4958.0079 c 0,11.5885 -9.375,20.9635 -20.9636,20.9635 -11.5885,0 -21.0286,-9.375 -21.0286,-20.9635 0,-11.5885 9.4401,-21.0287 21.0286,-21.0287 11.5886,0 20.9636,9.4402 20.9636,21.0287 z m 0,0"
       style="fill:#ffffff;fill-opacity:1;fill-rule:evenodd;stroke:#000000;stroke-width:1;stroke-linecap:square;stroke-linejoin:bevel;stroke-miterlimit:10;stroke-opacity:1"
       inkscape:connector-curvature="0" />
    <path
       id="path175"
       transform="matrix(0.06,0,0,0.06,-134.019,-256)"
       d="m 2963.012,4717.9688 c 0,18.2292 -14.7786,33.0078 -33.0078,33.0078 -18.2292,0 -33.0078,-14.7786 -33.0078,-33.0078 0,-18.164 14.7786,-32.9427 33.0078,-32.9427 18.2292,0 33.0078,14.7787 33.0078,32.9427 z m 0,0"
       style="fill:#000000;fill-opacity:1;fill-rule:evenodd;stroke:#000000;stroke-width:2;stroke-linecap:round;stroke-linejoin:round;stroke-miterlimit:10;stroke-opacity:1"
       inkscape:connector-curvature="0" />
    <path
       id="path177"
       transform="matrix(0.06,0,0,0.06,-134.019,-256)"
       d="m 2950.9678,4717.9688 c 0,11.6537 -9.375,21.0287 -20.9636,21.0287 -11.5885,0 -21.0286,-9.375 -21.0286,-21.0287 0,-11.5885 9.4401,-20.9635 21.0286,-20.9635 11.5886,0 20.9636,9.375 20.9636,20.9635 z m 0,0"
       style="fill:#ffffff;fill-opacity:1;fill-rule:evenodd;stroke:#000000;stroke-width:1;stroke-linecap:square;stroke-linejoin:bevel;stroke-miterlimit:10;stroke-opacity:1"
       inkscape:connector-curvature="0" />
    <path
       id="path179"
       transform="matrix(0.06,0,0,0.06,-134.019,-256)"
       d="m 3443.0251,4717.9688 c 0,18.2292 -14.7787,33.0078 -33.0079,33.0078 -18.2291,0 -33.0078,-14.7786 -33.0078,-33.0078 0,-18.164 14.7787,-32.9427 33.0078,-32.9427 18.2292,0 33.0079,14.7787 33.0079,32.9427 z m 0,0"
       style="fill:#000000;fill-opacity:1;fill-rule:evenodd;stroke:#000000;stroke-width:2;stroke-linecap:round;stroke-linejoin:round;stroke-miterlimit:10;stroke-opacity:1"
       inkscape:connector-curvature="0" />
    <path
       id="path181"
       transform="matrix(0.06,0,0,0.06,-134.019,-256)"
       d="m 3430.9808,4717.9688 c 0,11.6537 -9.375,21.0287 -20.9636,21.0287 -11.5885,0 -21.0286,-9.375 -21.0286,-21.0287 0,-11.5885 9.4401,-20.9635 21.0286,-20.9635 11.5886,0 20.9636,9.375 20.9636,20.9635 z m 0,0"
       style="fill:#ffffff;fill-opacity:1;fill-rule:evenodd;stroke:#000000;stroke-width:1;stroke-linecap:square;stroke-linejoin:bevel;stroke-miterlimit:10;stroke-opacity:1"
       inkscape:connector-curvature="0" />
    <path
       id="path183"
       transform="matrix(0.06,0,0,0.06,-134.019,-256)"
       d="m 3211.9704,5197.0053 c 0,23.1771 -18.75,41.9922 -41.9922,41.9922 -23.1771,0 -41.9922,-18.8151 -41.9922,-41.9922 0,-23.1771 18.8151,-41.9922 41.9922,-41.9922 23.2422,0 41.9922,18.8151 41.9922,41.9922 z m 0,0"
       style="fill:#000000;fill-opacity:1;fill-rule:evenodd;stroke:#000000;stroke-width:2;stroke-linecap:round;stroke-linejoin:round;stroke-miterlimit:10;stroke-opacity:1"
       inkscape:connector-curvature="0" />
    <path
       id="path185"
       transform="matrix(0.06,0,0,0.06,-134.019,-256)"
       d="m 3191.0068,5197.0053 c 0,11.5885 -9.4401,20.9635 -21.0286,20.9635 -11.5886,0 -20.9636,-9.375 -20.9636,-20.9635 0,-11.5885 9.375,-21.0287 20.9636,-21.0287 11.5885,0 21.0286,9.4402 21.0286,21.0287 z m 0,0"
       style="fill:#ffffff;fill-opacity:1;fill-rule:evenodd;stroke:#000000;stroke-width:1;stroke-linecap:square;stroke-linejoin:bevel;stroke-miterlimit:10;stroke-opacity:1"
       inkscape:connector-curvature="0" />
    <path
       id="path187"
       transform="matrix(0.06,0,0,0.06,-134.019,-256)"
       d="m 2971.9964,5197.0053 c 0,23.1771 -18.8151,41.9922 -41.9922,41.9922 -23.1771,0 -41.9922,-18.8151 -41.9922,-41.9922 0,-23.1771 18.8151,-41.9922 41.9922,-41.9922 23.1771,0 41.9922,18.8151 41.9922,41.9922 z m 0,0"
       style="fill:#000000;fill-opacity:1;fill-rule:evenodd;stroke:#000000;stroke-width:2;stroke-linecap:round;stroke-linejoin:round;stroke-miterlimit:10;stroke-opacity:1"
       inkscape:connector-curvature="0" />
    <path
       id="path189"
       transform="matrix(0.06,0,0,0.06,-134.019,-256)"
       d="m 2950.9678,5197.0053 c 0,11.5885 -9.375,20.9635 -20.9636,20.9635 -11.5885,0 -21.0286,-9.375 -21.0286,-20.9635 0,-11.5885 9.4401,-21.0287 21.0286,-21.0287 11.5886,0 20.9636,9.4402 20.9636,21.0287 z m 0,0"
       style="fill:#ffffff;fill-opacity:1;fill-rule:evenodd;stroke:#000000;stroke-width:1;stroke-linecap:square;stroke-linejoin:bevel;stroke-miterlimit:10;stroke-opacity:1"
       inkscape:connector-curvature="0" />
    <path
       id="path191"
       transform="matrix(0.06,0,0,0.06,-134.019,-256)"
       d="m 3091.9834,5197.0053 c 0,23.1771 -18.8151,41.9922 -41.9922,41.9922 -23.1771,0 -41.9922,-18.8151 -41.9922,-41.9922 0,-23.1771 18.8151,-41.9922 41.9922,-41.9922 23.1771,0 41.9922,18.8151 41.9922,41.9922 z m 0,0"
       style="fill:#000000;fill-opacity:1;fill-rule:evenodd;stroke:#000000;stroke-width:2;stroke-linecap:round;stroke-linejoin:round;stroke-miterlimit:10;stroke-opacity:1"
       inkscape:connector-curvature="0" />
    <path
       id="path193"
       transform="matrix(0.06,0,0,0.06,-134.019,-256)"
       d="m 3071.0198,5197.0053 c 0,11.5885 -9.4401,20.9635 -21.0286,20.9635 -11.5885,0 -20.9635,-9.375 -20.9635,-20.9635 0,-11.5885 9.375,-21.0287 20.9635,-21.0287 11.5885,0 21.0286,9.4402 21.0286,21.0287 z m 0,0"
       style="fill:#ffffff;fill-opacity:1;fill-rule:evenodd;stroke:#000000;stroke-width:1;stroke-linecap:square;stroke-linejoin:bevel;stroke-miterlimit:10;stroke-opacity:1"
       inkscape:connector-curvature="0" />
    <path
       id="path195"
       transform="matrix(0.06,0,0,0.06,-134.019,-256)"
       d="m 3091.9834,4599.0235 c 0,23.1771 -18.8151,41.9922 -41.9922,41.9922 -23.1771,0 -41.9922,-18.8151 -41.9922,-41.9922 0,-23.2422 18.8151,-41.9922 41.9922,-41.9922 23.1771,0 41.9922,18.75 41.9922,41.9922 z m 0,0"
       style="fill:#000000;fill-opacity:1;fill-rule:evenodd;stroke:#000000;stroke-width:2;stroke-linecap:round;stroke-linejoin:round;stroke-miterlimit:10;stroke-opacity:1"
       inkscape:connector-curvature="0" />
    <path
       id="path197"
       transform="matrix(0.06,0,0,0.06,-134.019,-256)"
       d="m 3071.0198,4599.0235 c 0,11.5886 -9.4401,20.9636 -21.0286,20.9636 -11.5885,0 -20.9635,-9.375 -20.9635,-20.9636 0,-11.6536 9.375,-21.0286 20.9635,-21.0286 11.5885,0 21.0286,9.375 21.0286,21.0286 z m 0,0"
       style="fill:#ffffff;fill-opacity:1;fill-rule:evenodd;stroke:#000000;stroke-width:1;stroke-linecap:square;stroke-linejoin:bevel;stroke-miterlimit:10;stroke-opacity:1"
       inkscape:connector-curvature="0" />
    <path
       id="path199"
       transform="matrix(0.06,0,0,0.06,-134.019,-256)"
       d="m 3332.0225,4599.0235 c 0,23.1771 -18.8152,41.9922 -41.9922,41.9922 -23.2422,0 -42.0573,-18.8151 -42.0573,-41.9922 0,-23.2422 18.8151,-41.9922 42.0573,-41.9922 23.177,0 41.9922,18.75 41.9922,41.9922 z m 0,0"
       style="fill:#000000;fill-opacity:1;fill-rule:evenodd;stroke:#000000;stroke-width:2;stroke-linecap:round;stroke-linejoin:round;stroke-miterlimit:10;stroke-opacity:1"
       inkscape:connector-curvature="0" />
    <path
       id="path201"
       transform="matrix(0.06,0,0,0.06,-134.019,-256)"
       d="m 3310.9938,4599.0235 c 0,11.5886 -9.375,20.9636 -20.9635,20.9636 -11.6537,0 -21.0287,-9.375 -21.0287,-20.9636 0,-11.6536 9.375,-21.0286 21.0287,-21.0286 11.5885,0 20.9635,9.375 20.9635,21.0286 z m 0,0"
       style="fill:#ffffff;fill-opacity:1;fill-rule:evenodd;stroke:#000000;stroke-width:1;stroke-linecap:square;stroke-linejoin:bevel;stroke-miterlimit:10;stroke-opacity:1"
       inkscape:connector-curvature="0" />
    <path
       id="path203"
       transform="matrix(0.06,0,0,0.06,-134.019,-256)"
       d="m 3211.9704,4599.0235 c 0,23.1771 -18.75,41.9922 -41.9922,41.9922 -23.1771,0 -41.9922,-18.8151 -41.9922,-41.9922 0,-23.2422 18.8151,-41.9922 41.9922,-41.9922 23.2422,0 41.9922,18.75 41.9922,41.9922 z m 0,0"
       style="fill:#000000;fill-opacity:1;fill-rule:evenodd;stroke:#000000;stroke-width:2;stroke-linecap:round;stroke-linejoin:round;stroke-miterlimit:10;stroke-opacity:1"
       inkscape:connector-curvature="0" />
    <path
       id="path205"
       transform="matrix(0.06,0,0,0.06,-134.019,-256)"
       d="m 3191.0068,4599.0235 c 0,11.5886 -9.4401,20.9636 -21.0286,20.9636 -11.5886,0 -20.9636,-9.375 -20.9636,-20.9636 0,-11.6536 9.375,-21.0286 20.9636,-21.0286 11.5885,0 21.0286,9.375 21.0286,21.0286 z m 0,0"
       style="fill:#ffffff;fill-opacity:1;fill-rule:evenodd;stroke:#000000;stroke-width:1;stroke-linecap:square;stroke-linejoin:bevel;stroke-miterlimit:10;stroke-opacity:1"
       inkscape:connector-curvature="0" />
    <path
       id="path207"
       transform="matrix(0.06,0,0,0.06,-134.019,-256)"
       d="m 4410.9938,4958.0079 c 0,23.1771 -18.8151,41.9922 -41.9922,41.9922 -23.177,0 -41.9922,-18.8151 -41.9922,-41.9922 0,-23.1771 18.8152,-41.9922 41.9922,-41.9922 23.1771,0 41.9922,18.8151 41.9922,41.9922 z m 0,0"
       style="fill:#000000;fill-opacity:1;fill-rule:evenodd;stroke:#000000;stroke-width:2;stroke-linecap:round;stroke-linejoin:round;stroke-miterlimit:10;stroke-opacity:1"
       inkscape:connector-curvature="0" />
    <path
       id="path209"
       transform="matrix(0.06,0,0,0.06,-134.019,-256)"
       d="m 4390.0303,4958.0079 c 0,11.5885 -9.4401,20.9635 -21.0287,20.9635 -11.5885,0 -21.0286,-9.375 -21.0286,-20.9635 0,-11.5885 9.4401,-21.0287 21.0286,-21.0287 11.5886,0 21.0287,9.4402 21.0287,21.0287 z m 0,0"
       style="fill:#ffffff;fill-opacity:1;fill-rule:evenodd;stroke:#000000;stroke-width:1;stroke-linecap:square;stroke-linejoin:bevel;stroke-miterlimit:10;stroke-opacity:1"
       inkscape:connector-curvature="0" />
    <path
       id="path211"
       transform="matrix(0.06,0,0,0.06,-134.019,-256)"
       d="m 4410.9938,4838.0209 c 0,23.1771 -18.8151,41.9922 -41.9922,41.9922 -23.177,0 -41.9922,-18.8151 -41.9922,-41.9922 0,-23.2422 18.8152,-41.9922 41.9922,-41.9922 23.1771,0 41.9922,18.75 41.9922,41.9922 z m 0,0"
       style="fill:#000000;fill-opacity:1;fill-rule:evenodd;stroke:#000000;stroke-width:2;stroke-linecap:round;stroke-linejoin:round;stroke-miterlimit:10;stroke-opacity:1"
       inkscape:connector-curvature="0" />
    <path
       id="path213"
       transform="matrix(0.06,0,0,0.06,-134.019,-256)"
       d="m 4390.0303,4838.0209 c 0,11.5886 -9.4401,20.9636 -21.0287,20.9636 -11.5885,0 -21.0286,-9.375 -21.0286,-20.9636 0,-11.5885 9.4401,-21.0286 21.0286,-21.0286 11.5886,0 21.0287,9.4401 21.0287,21.0286 z m 0,0"
       style="fill:#ffffff;fill-opacity:1;fill-rule:evenodd;stroke:#000000;stroke-width:1;stroke-linecap:square;stroke-linejoin:bevel;stroke-miterlimit:10;stroke-opacity:1"
       inkscape:connector-curvature="0" />
    <path
       id="path215"
       transform="matrix(0.06,0,0,0.06,-134.019,-256)"
       d="m 2611.9704,4958.0079 c 0,23.1771 -18.75,41.9922 -41.9922,41.9922 -23.1771,0 -41.9922,-18.8151 -41.9922,-41.9922 0,-23.1771 18.8151,-41.9922 41.9922,-41.9922 23.2422,0 41.9922,18.8151 41.9922,41.9922 z m 0,0"
       style="fill:#000000;fill-opacity:1;fill-rule:evenodd;stroke:#000000;stroke-width:2;stroke-linecap:round;stroke-linejoin:round;stroke-miterlimit:10;stroke-opacity:1"
       inkscape:connector-curvature="0" />
    <path
       id="path217"
       transform="matrix(0.06,0,0,0.06,-134.019,-256)"
       d="m 2591.0068,4958.0079 c 0,11.5885 -9.4401,20.9635 -21.0286,20.9635 -11.5886,0 -20.9636,-9.375 -20.9636,-20.9635 0,-11.5885 9.375,-21.0287 20.9636,-21.0287 11.5885,0 21.0286,9.4402 21.0286,21.0287 z m 0,0"
       style="fill:#ffffff;fill-opacity:1;fill-rule:evenodd;stroke:#000000;stroke-width:1;stroke-linecap:square;stroke-linejoin:bevel;stroke-miterlimit:10;stroke-opacity:1"
       inkscape:connector-curvature="0" />
    <path
       id="path219"
       transform="matrix(0.06,0,0,0.06,-134.019,-256)"
       d="m 2611.9704,4838.0209 c 0,23.1771 -18.75,41.9922 -41.9922,41.9922 -23.1771,0 -41.9922,-18.8151 -41.9922,-41.9922 0,-23.2422 18.8151,-41.9922 41.9922,-41.9922 23.2422,0 41.9922,18.75 41.9922,41.9922 z m 0,0"
       style="fill:#000000;fill-opacity:1;fill-rule:evenodd;stroke:#000000;stroke-width:2;stroke-linecap:round;stroke-linejoin:round;stroke-miterlimit:10;stroke-opacity:1"
       inkscape:connector-curvature="0" />
    <path
       id="path221"
       transform="matrix(0.06,0,0,0.06,-134.019,-256)"
       d="m 2591.0068,4838.0209 c 0,11.5886 -9.4401,20.9636 -21.0286,20.9636 -11.5886,0 -20.9636,-9.375 -20.9636,-20.9636 0,-11.5885 9.375,-21.0286 20.9636,-21.0286 11.5885,0 21.0286,9.4401 21.0286,21.0286 z m 0,0"
       style="fill:#ffffff;fill-opacity:1;fill-rule:evenodd;stroke:#000000;stroke-width:1;stroke-linecap:square;stroke-linejoin:bevel;stroke-miterlimit:10;stroke-opacity:1"
       inkscape:connector-curvature="0" />
    <g
       id="g225"
       clip-path="url(#clip1)"
       style="clip-rule:nonzero">
      <path
         id="path223"
         transform="matrix(0.06,0,0,0.06,-134.019,-256)"
         d="M 4488.0121,5436.9793 H 2329.0276"
         style="fill:none;stroke:#000000;stroke-width:2;stroke-linecap:round;stroke-linejoin:round;stroke-miterlimit:10;stroke-opacity:1"
         inkscape:connector-curvature="0" />
    </g>
    <path
       id="path227"
       transform="matrix(0.06,0,0,0.06,-134.019,-256)"
       d="M 2329.0276,5436.9793 V 4358.9844"
       style="fill:none;stroke:#000000;stroke-width:2;stroke-linecap:round;stroke-linejoin:round;stroke-miterlimit:10;stroke-opacity:1"
       inkscape:connector-curvature="0" />
    <g
       id="g231"
       clip-path="url(#clip2)"
       style="clip-rule:nonzero">
      <path
         id="path229"
         transform="matrix(0.06,0,0,0.06,-134.019,-256)"
         d="M 2329.0276,4358.9844 H 4488.0121"
         style="fill:none;stroke:#000000;stroke-width:2;stroke-linecap:round;stroke-linejoin:round;stroke-miterlimit:10;stroke-opacity:1"
         inkscape:connector-curvature="0" />
    </g>
    <g
       id="g235"
       clip-path="url(#clip3)"
       style="clip-rule:nonzero">
      <path
         id="path233"
         transform="matrix(0.06,0,0,0.06,-134.019,-256)"
         d="M 4488.0121,4358.9844 V 5436.9793"
         style="fill:none;stroke:#000000;stroke-width:2;stroke-linecap:round;stroke-linejoin:round;stroke-miterlimit:10;stroke-opacity:1"
         inkscape:connector-curvature="0" />
    </g>
  </g>
</svg>
