<svg xmlns="http://www.w3.org/2000/svg" xmlns:xlink="http://www.w3.org/1999/xlink" width="595pt" height="560" viewBox="0 0 595 420"><defs><symbol overflow="visible" id="a"><path d="M1.688.813h-.282V0H1.11v.813H.063v.328l1.046 1.203h.297V1.063h.282zm-.579.25v.921l-.796-.921zm0 0"/></symbol><symbol overflow="visible" id="b"><path d="M1.656 2L.625 0H.297l1.078 2.078H.156v.266h1.5zm0 0"/></symbol><symbol overflow="visible" id="c"><path d="M1.594 0h-.297v.203A1.115 1.115 0 0 0 1.03.016a.674.674 0 0 0-.484-.032.527.527 0 0 0-.188.125.38.38 0 0 0-.109.204.893.893 0 0 0-.047.312v1.14H.5v-1C.5.673.504.595.516.532.516.47.53.411.562.36A.183.183 0 0 1 .656.266.346.346 0 0 1 .828.234c.07 0 .149.02.235.063.082.039.16.094.234.156v1.313h.297zm0 0"/></symbol><symbol overflow="visible" id="d"><path d="M1.64 2.078H.548v-.672h1.047v-.281H.547V0H.234v2.344h1.407zm0 0"/></symbol><symbol overflow="visible" id="e"><path d="M1.156 2.453L.234-.516H-.03l.906 2.97zm0 0"/></symbol><symbol overflow="visible" id="f"><path d="M1.5 0H.36v.234H.78v1.579H.36v.218c.157 0 .274.02.36.063.07.05.113.14.125.265h.25V.234H1.5zm0 0"/></symbol><symbol overflow="visible" id="g"><path d="M1.656.766a.961.961 0 0 0-.062-.344.528.528 0 0 0-.157-.25.666.666 0 0 0-.234-.156A.786.786 0 0 0 .625 0a.756.756 0 0 0-.234.172A.713.713 0 0 0 .203.5C.16.645.141.82.141 1.031a1.53 1.53 0 0 0 .062.563c.04.156.102.297.188.422a.966.966 0 0 0 .328.28c.133.063.289.095.469.095h.156c.039-.012.078-.024.11-.032v-.296h-.016c-.024.007-.063.023-.125.046a1.17 1.17 0 0 1-.172.016.62.62 0 0 1-.47-.203c-.124-.125-.198-.32-.218-.578.07.05.149.086.234.11a.745.745 0 0 0 .266.046c.082 0 .16-.012.235-.031a.88.88 0 0 0 .218-.11.605.605 0 0 0 .188-.25.9.9 0 0 0 .062-.343zM1.344.75a.634.634 0 0 1-.047.25.32.32 0 0 1-.125.156c-.043.032-.086.055-.125.078-.063.008-.121.016-.172.016a.538.538 0 0 1-.219-.047 1.527 1.527 0 0 1-.203-.094v-.062-.078C.453.8.47.664.5.563a.513.513 0 0 1 .125-.22.29.29 0 0 1 .14-.109.31.31 0 0 1 .157-.03c.125 0 .223.046.297.14.082.094.125.226.125.406zm0 0"/></symbol><symbol overflow="visible" id="h"><path d="M1.938 2.344L1.14 0H.797l-.813 2.344h.344L.968.406l.657 1.938zm0 0"/></symbol><symbol overflow="visible" id="i"><path d="M1.64 1.172c0-.418-.062-.727-.187-.922-.125-.2-.312-.297-.562-.297-.262 0-.454.098-.579.297-.124.195-.187.504-.187.922 0 .426.063.738.188.937.124.196.316.297.578.297.25 0 .437-.105.562-.312.125-.211.188-.516.188-.922zM1.235.453c.032.082.051.18.063.297.008.125.016.266.016.422 0 .164-.008.305-.016.422a1.03 1.03 0 0 1-.063.297.387.387 0 0 1-.14.187.34.34 0 0 1-.203.063.355.355 0 0 1-.22-.063.387.387 0 0 1-.14-.187 1.076 1.076 0 0 1-.062-.297 4.605 4.605 0 0 1-.016-.422c0-.168.004-.305.016-.406C.477.648.5.55.53.469A.378.378 0 0 1 .656.28.404.404 0 0 1 .891.22a.224.224 0 0 1 .203.062c.062.04.11.098.14.172zm0 0"/></symbol><symbol overflow="visible" id="j"><path d="M1.625 0H.172v.328C.273.43.375.523.469.61c.094.094.18.188.265.282.176.195.301.359.375.484a.737.737 0 0 1 .094.36.428.428 0 0 1-.11.297.814.814 0 0 1-.14.077.841.841 0 0 1-.156.016c-.055 0-.11-.008-.172-.016a4.337 4.337 0 0 0-.156-.062.342.342 0 0 1-.125-.063 2.172 2.172 0 0 1-.11-.062H.22v.344c.062.03.156.062.281.093.113.032.223.047.328.047.219 0 .39-.058.516-.172a.66.66 0 0 0 .187-.484.95.95 0 0 0-.031-.25 2.037 2.037 0 0 0-.094-.219c-.043-.062-.09-.133-.14-.203a1.746 1.746 0 0 0-.172-.203L.766.547C.64.43.539.336.469.266h1.156zm0 0"/></symbol><symbol overflow="visible" id="k"><path d="M1.594.75a.973.973 0 0 0-.047-.313.74.74 0 0 0-.156-.25.61.61 0 0 0-.25-.171.847.847 0 0 0-.329-.063c-.117 0-.226.012-.328.031-.117.032-.21.063-.28.094v.344h.015a.25.25 0 0 1 .11-.063.795.795 0 0 1 .14-.062A.813.813 0 0 1 .64.25.409.409 0 0 1 .812.219c.063 0 .125.015.188.047a.31.31 0 0 1 .156.109c.04.04.07.094.094.156a.72.72 0 0 1 0 .422.967.967 0 0 1-.11.14.648.648 0 0 1-.156.079.917.917 0 0 1-.234.031c-.086 0-.168-.012-.25-.031C.414 1.16.348 1.148.297 1.14v1.203h1.281v-.266H.594v-.625h.11c.038 0 .077.004.109.016.113 0 .21-.012.296-.032a.788.788 0 0 0 .25-.125.573.573 0 0 0 .172-.218c.04-.086.063-.2.063-.344zm0 0"/></symbol><symbol overflow="visible" id="l"><path d="M1.922 0h-.36L.532 2.031V0H.233v2.344h.454l.937-1.86v1.86h.297zm0 0"/></symbol><symbol overflow="visible" id="m"><path d="M1.281 1.797c0 .101-.039.191-.11.266a.414.414 0 0 1-.296.109.408.408 0 0 1-.281-.094.312.312 0 0 1-.11-.25c0-.086.02-.152.063-.203a.357.357 0 0 1 .172-.14c.031-.024.078-.048.14-.079.07-.031.133-.058.188-.078.094.07.156.145.187.219a.62.62 0 0 1 .047.25zM1.328.625a.435.435 0 0 1-.062.234.607.607 0 0 1-.22.172.849.849 0 0 1-.14.063 1.94 1.94 0 0 0-.203.078A.63.63 0 0 1 .5.969.71.71 0 0 1 .437.672c0-.149.04-.262.126-.344A.414.414 0 0 1 .89.188c.125 0 .226.035.312.109a.445.445 0 0 1 .125.328zM.891-.047C.766-.047.656-.03.562 0a.602.602 0 0 0-.25.156.586.586 0 0 0-.14.219.596.596 0 0 0-.063.281A.58.58 0 0 0 .22 1c.07.102.172.188.297.25v.016a.754.754 0 0 0-.266.218.518.518 0 0 0-.078.297c0 .176.066.328.203.453a.768.768 0 0 0 .516.172.72.72 0 0 0 .5-.172A.548.548 0 0 0 1.5 1.5a.683.683 0 0 0-.266-.25c.133-.074.239-.152.313-.234a.587.587 0 0 0 .11-.36c0-.199-.075-.367-.22-.5a.805.805 0 0 0-.546-.203zm0 0"/></symbol><symbol overflow="visible" id="n"><path d="M1.734 0H.094v.297l1.265 1.781H.156v.266h1.547v-.281L.437.28h1.297zm0 0"/></symbol><symbol overflow="visible" id="o"><path d="M2.047 1.234H.297v.25h1.75zm0-.656H.297v.25h1.75zm0 0"/></symbol><symbol overflow="visible" id="p"><path d="M.813 2.125c-.063 0-.122-.008-.172-.016l-.172-.062a2.172 2.172 0 0 1-.234-.125H.218v.328a1 1 0 0 0 .281.11 1.232 1.232 0 0 0 .61.015c.081-.031.156-.07.218-.11a.799.799 0 0 0 .156-.187.57.57 0 0 0 .047-.25.485.485 0 0 0-.125-.328.486.486 0 0 0-.297-.188v-.03l.157-.048a.602.602 0 0 0 .156-.109.651.651 0 0 0 .11-.172.83.83 0 0 0 0-.547A.774.774 0 0 0 1.125 0a1.039 1.039 0 0 0-.33-.047C.68-.047.567-.03.454 0a.83.83 0 0 0-.297.094v.328h.016A1.06 1.06 0 0 1 .438.297.774.774 0 0 1 .78.219C.844.219.906.227.97.25a.31.31 0 0 1 .156.11c.05.038.086.093.11.156.019.05.03.117.03.203a.487.487 0 0 1-.046.219.34.34 0 0 1-.094.125.376.376 0 0 1-.156.062 1.65 1.65 0 0 1-.203.016H.64v.265h.093a.57.57 0 0 1 .344.094c.094.07.14.172.14.297a.37.37 0 0 1-.03.156.415.415 0 0 1-.219.156c-.055.008-.106.016-.157.016zm0 0"/></symbol><symbol overflow="visible" id="q"><path d="M.672 0H.297v.453h.375zm0 0"/></symbol><symbol overflow="visible" id="r"><path d="M2.219 0v1.016c0 .082-.008.16-.016.234a.37.37 0 0 1-.031.156.27.27 0 0 1-.094.094.37.37 0 0 1-.156.031.434.434 0 0 1-.203-.062 1.17 1.17 0 0 1-.219-.157c.008-.023.016-.042.016-.062V0h-.297v1.016c0 .082-.008.16-.016.234a.37.37 0 0 1-.031.156.27.27 0 0 1-.094.094.37.37 0 0 1-.156.031.434.434 0 0 1-.203-.062.972.972 0 0 1-.203-.157V0H.219v1.766h.297v-.204c.07.083.148.145.234.188a.515.515 0 0 0 .516-.016.42.42 0 0 0 .187-.218c.094.093.18.164.266.218.082.051.176.079.281.079a.69.69 0 0 0 .203-.032.491.491 0 0 0 .156-.125.505.505 0 0 0 .11-.187.908.908 0 0 0 .047-.313V0zm0 0"/></symbol><symbol overflow="visible" id="s"><path d="M2.875 2.344L2.281 0h-.344l-.484 1.953L.984 0H.641L.047 2.344h.312L.83.39l.484 1.953h.312L2.094.375l.469 1.969zm0 0"/></symbol><symbol overflow="visible" id="w"><path d="M1.672 0h-.39L.624.844l-.11-.11V0H.22v2.453h.297V1.016l.687.75h.375L.86 1.03zm0 0"/></symbol><symbol overflow="visible" id="B"><path d="M1.156-.047C1-.047.86-.02.734.031a.724.724 0 0 0-.328.235A1.045 1.045 0 0 0 .187.64a1.6 1.6 0 0 0-.078.53c0 .196.024.368.079.516.039.145.109.274.203.391.093.102.207.18.343.235.125.05.266.078.422.078.082 0 .16-.008.235-.016.062-.012.125-.027.187-.047.05-.012.102-.027.156-.047l.157-.094v-.374h-.032a.388.388 0 0 1-.109.093.69.69 0 0 1-.156.11 1.041 1.041 0 0 1-.188.078.972.972 0 0 1-.25.031.702.702 0 0 1-.516-.234.738.738 0 0 1-.156-.313 1.168 1.168 0 0 1-.062-.406c0-.156.02-.293.062-.406A.815.815 0 0 1 .641.469.655.655 0 0 1 .875.28a.885.885 0 0 1 .281-.047c.094 0 .176.008.25.032a.76.76 0 0 1 .203.078.586.586 0 0 1 .157.11c.039.03.07.054.093.077h.032V.156C1.836.133 1.789.113 1.75.094A1.758 1.758 0 0 0 1.578.03a1.16 1.16 0 0 0-.187-.062 1.847 1.847 0 0 0-.235-.016zm0 0"/></symbol><symbol overflow="visible" id="C"><path d="M2.094 1.172c0-.219-.043-.414-.125-.578a1.049 1.049 0 0 0-.36-.406A1.211 1.211 0 0 0 1.25.03 2.651 2.651 0 0 0 .781 0H.234v2.344h.547c.219 0 .39-.016.516-.047.125-.031.226-.074.312-.125.157-.106.274-.242.36-.406.082-.168.125-.368.125-.594zm-.328 0c0 .187-.032.344-.094.469a.63.63 0 0 1-.266.296.979.979 0 0 1-.265.11 1.72 1.72 0 0 1-.344.031h-.25V.266h.25c.133 0 .254.007.36.03a.783.783 0 0 1 .531.422c.05.126.078.274.078.454zm0 0"/></symbol><symbol overflow="visible" id="F"><path d="M2.063 0h-.407l-.75.938h-.36V0H.235v2.344h.61c.133 0 .25-.008.344-.016a.68.68 0 0 0 .25-.094.897.897 0 0 0 .203-.218.706.706 0 0 0 .062-.297.726.726 0 0 0-.125-.438.791.791 0 0 0-.36-.265zM1.39 1.688c-.012.07-.028.132-.047.187a.281.281 0 0 1-.11.125.376.376 0 0 1-.156.063 1.74 1.74 0 0 1-.219.015H.547v-.875h.281c.082 0 .16.004.235.016.07.02.132.05.187.093.04.04.078.094.11.157.007.062.019.133.03.218zm0 0"/></symbol><symbol overflow="visible" id="G"><path d="M.781 0v2.078H0v.266h1.89v-.266h-.796V0zm0 0"/></symbol><symbol overflow="visible" id="t"><path d="M0 1.5V.36h-.234V.78h-1.579V.36h-.218c0 .157-.02.274-.063.36-.05.07-.14.113-.265.125v.25h2.125V1.5zm0 0"/></symbol><symbol overflow="visible" id="u"><path d="M-1.172 1.64c.418 0 .727-.062.922-.187.2-.125.297-.312.297-.562C.047.629-.051.437-.25.312-.445.189-.754.126-1.172.126c-.426 0-.738.063-.937.188-.196.124-.297.316-.297.578 0 .25.105.437.312.562.211.125.516.188.922.188zm.719-.406c-.082.032-.18.051-.297.063a6.185 6.185 0 0 1-.844 0 1.03 1.03 0 0 1-.297-.063.387.387 0 0 1-.187-.14.34.34 0 0 1-.063-.203c0-.094.024-.168.063-.22a.387.387 0 0 1 .187-.14c.086-.031.184-.054.297-.062.125-.012.266-.016.422-.016.168 0 .305.004.406.016.118.008.215.031.297.062.086.031.149.07.188.125.043.063.062.14.062.235a.224.224 0 0 1-.062.203.362.362 0 0 1-.172.14zm0 0"/></symbol><symbol overflow="visible" id="v"><path d="M0 1.672v-.39L-.844.624l.11-.11H0V.22h-2.453v.297h1.437l-.75.687v.375L-1.03.86zm0 0"/></symbol><symbol overflow="visible" id="x"><path d="M-.719 1.828a.796.796 0 0 0 .313-.062.724.724 0 0 0 .219-.172c.062-.094.109-.196.14-.297.031-.094.047-.227.047-.39V.233h-2.344V.86c0 .164.008.29.016.375a.92.92 0 0 0 .078.25.472.472 0 0 0 .172.188.634.634 0 0 0 .25.047.55.55 0 0 0 .297-.078.644.644 0 0 0 .218-.25.707.707 0 0 0 .22.328.61.61 0 0 0 .374.11zm-1.062-.437a.774.774 0 0 1-.14-.016.27.27 0 0 1-.095-.094.534.534 0 0 1-.062-.172V.547h.687v.36c0 .093-.004.163-.015.218a.52.52 0 0 1-.063.14.262.262 0 0 1-.125.11c-.05.008-.113.016-.187.016zm1.078.125a.433.433 0 0 1-.219-.047c-.062-.024-.113-.074-.156-.157a.676.676 0 0 1-.047-.156 2.019 2.019 0 0 1-.016-.25v-.36h.875v.266c0 .133-.004.239-.015.313-.02.082-.047.156-.078.219a.477.477 0 0 1-.141.125.924.924 0 0 1-.203.047zm0 0"/></symbol><symbol overflow="visible" id="y"><path d="M.047 1.156C.047 1 .02.86-.031.734A.724.724 0 0 0-.266.406 1.045 1.045 0 0 0-.64.187 1.6 1.6 0 0 0-1.17.11c-.196 0-.368.024-.516.079-.145.039-.274.109-.391.203a.928.928 0 0 0-.235.343c-.05.125-.078.266-.078.422 0 .082.008.16.016.235.012.062.027.125.047.187.012.05.027.102.047.156l.094.157h.374v-.032a.388.388 0 0 1-.093-.109.69.69 0 0 1-.11-.156 1.041 1.041 0 0 1-.078-.188.972.972 0 0 1-.031-.25.702.702 0 0 1 .234-.516.738.738 0 0 1 .313-.156c.117-.043.25-.062.406-.062.156 0 .293.02.406.062.125.04.227.094.297.157.086.07.149.148.188.234a.885.885 0 0 1 .047.281.827.827 0 0 1-.032.25.76.76 0 0 1-.078.203.586.586 0 0 1-.11.157c-.03.039-.054.07-.077.093v.032h.375c.023-.055.043-.102.062-.141.024-.055.043-.11.063-.172a1.16 1.16 0 0 0 .062-.187c.008-.063.016-.141.016-.235zm0 0"/></symbol><symbol overflow="visible" id="z"><path d="M-2.125.813c0-.063.008-.122.016-.172l.062-.172a2.172 2.172 0 0 1 .125-.234V.218h-.328A1 1 0 0 0-2.36.5a1.232 1.232 0 0 0-.015.61c.031.081.07.156.11.218a.799.799 0 0 0 .187.156.57.57 0 0 0 .25.047.485.485 0 0 0 .328-.125.486.486 0 0 0 .188-.297h.03l.048.157c.023.05.058.101.109.156.043.039.102.078.172.11a.83.83 0 0 0 .547 0A.774.774 0 0 0 0 1.125C.031 1.03.047.921.047.795.047.68.03.567 0 .454A.83.83 0 0 0-.094.156h-.328v.016c.043.062.086.148.125.266A.774.774 0 0 1-.219.78.525.525 0 0 1-.25.97a.31.31 0 0 1-.11.156.345.345 0 0 1-.156.11.568.568 0 0 1-.203.03.487.487 0 0 1-.219-.046.34.34 0 0 1-.125-.094.376.376 0 0 1-.062-.156 1.65 1.65 0 0 1-.016-.203V.64h-.265v.093a.57.57 0 0 1-.094.344.353.353 0 0 1-.297.14.37.37 0 0 1-.156-.03.415.415 0 0 1-.156-.219c-.008-.055-.016-.106-.016-.157zm0 0"/></symbol><symbol overflow="visible" id="A"><path d="M-2 1.656L0 .625V.297l-2.078 1.078V.156h-.266v1.5zm0 0"/></symbol><symbol overflow="visible" id="D"><path d="M0 1.594V.234h-2.344v.313H-.28v1.047zm0 0"/></symbol><symbol overflow="visible" id="E"><path d="M0 2.063v-.407l-.938-.75v-.36H0V.235h-2.344v.61c0 .133.008.25.016.344a.68.68 0 0 0 .094.25.897.897 0 0 0 .218.203c.086.039.184.062.297.062.18 0 .324-.043.438-.125a.791.791 0 0 0 .265-.36zm-1.688-.672a1.095 1.095 0 0 1-.187-.047.281.281 0 0 1-.125-.11.376.376 0 0 1-.063-.156A1.74 1.74 0 0 1-2.078.86V.547h.875v.281c0 .082-.004.16-.016.235a.53.53 0 0 1-.093.187.613.613 0 0 1-.157.11c-.062.007-.133.019-.218.03zm0 0"/></symbol><clipPath id="H"><path d="M190 138h216v1H190zm0 0"/></clipPath><clipPath id="I"><path d="M405 138h1v144h-1zm0 0"/></clipPath><clipPath id="J"><path d="M190 281h216v1H190zm0 0"/></clipPath></defs><use xlink:href="#a" x="204.51" y="159.642" fill="#505050"/><use xlink:href="#b" x="206.25" y="159.642" fill="#505050"/><use xlink:href="#c" x="207.99" y="159.642" fill="#505050"/><use xlink:href="#d" x="209.79" y="159.642" fill="#505050"/><use xlink:href="#e" x="211.47" y="159.642" fill="#505050"/><use xlink:href="#f" x="212.73" y="159.642" fill="#505050"/><use xlink:href="#g" x="214.47" y="159.642" fill="#505050"/><use xlink:href="#h" x="216.21" y="159.642" fill="#505050"/><use xlink:href="#f" x="280.058" y="163.239" fill="#505050"/><use xlink:href="#i" x="281.798" y="163.239" fill="#505050"/><use xlink:href="#c" x="283.538" y="163.239" fill="#505050"/><use xlink:href="#d" x="285.338" y="163.239" fill="#505050"/><use xlink:href="#e" x="287.018" y="163.239" fill="#505050"/><use xlink:href="#j" x="288.278" y="163.239" fill="#505050"/><use xlink:href="#k" x="290.018" y="163.239" fill="#505050"/><use xlink:href="#h" x="291.758" y="163.239" fill="#505050"/><use xlink:href="#f" x="253.073" y="184.07" fill="#505050"/><use xlink:href="#l" x="254.813" y="184.07" fill="#505050"/><use xlink:href="#a" x="256.973" y="184.07" fill="#505050"/><use xlink:href="#f" x="258.713" y="184.07" fill="#505050"/><use xlink:href="#a" x="260.453" y="184.07" fill="#505050"/><use xlink:href="#m" x="262.193" y="184.07" fill="#505050"/><use xlink:href="#n" x="254.979" y="172.231" fill="#505050"/><use xlink:href="#o" x="256.779" y="172.231" fill="#505050"/><use xlink:href="#f" x="259.119" y="172.231" fill="#505050"/><use xlink:href="#p" x="260.859" y="172.231" fill="#505050"/><use xlink:href="#q" x="262.599" y="172.231" fill="#505050"/><use xlink:href="#i" x="263.559" y="172.231" fill="#505050"/><use xlink:href="#h" x="265.299" y="172.231" fill="#505050"/><use xlink:href="#e" x="267.219" y="172.231" fill="#505050"/><use xlink:href="#a" x="268.479" y="172.231" fill="#505050"/><use xlink:href="#i" x="270.219" y="172.231" fill="#505050"/><use xlink:href="#i" x="271.959" y="172.231" fill="#505050"/><use xlink:href="#r" x="273.699" y="172.231" fill="#505050"/><use xlink:href="#s" x="276.399" y="172.231" fill="#505050"/><use xlink:href="#t" x="212.618" y="173.534" fill="#505050"/><use xlink:href="#u" x="212.618" y="175.274" fill="#505050"/><use xlink:href="#v" x="212.618" y="177.014" fill="#505050"/><use xlink:href="#t" x="212.618" y="173.534" fill="#505050"/><use xlink:href="#u" x="212.618" y="175.274" fill="#505050"/><use xlink:href="#v" x="212.618" y="177.014" fill="#505050"/><use xlink:href="#g" x="214.295" y="151.081" fill="#505050"/><use xlink:href="#q" x="216.035" y="151.081" fill="#505050"/><use xlink:href="#m" x="216.995" y="151.081" fill="#505050"/><use xlink:href="#g" x="214.295" y="151.081" fill="#505050"/><use xlink:href="#q" x="216.035" y="151.081" fill="#505050"/><use xlink:href="#m" x="216.995" y="151.081" fill="#505050"/><use xlink:href="#f" x="243.076" y="165.469" fill="#505050"/><use xlink:href="#w" x="244.815" y="165.469" fill="#505050"/><use xlink:href="#f" x="243.075" y="165.469" fill="#505050"/><use xlink:href="#w" x="244.815" y="165.469" fill="#505050"/><use xlink:href="#f" x="247.185" y="180.311" fill="#505050"/><use xlink:href="#k" x="248.925" y="180.311" fill="#505050"/><use xlink:href="#w" x="250.665" y="180.311" fill="#505050"/><use xlink:href="#f" x="247.185" y="180.311" fill="#505050"/><use xlink:href="#k" x="248.925" y="180.311" fill="#505050"/><use xlink:href="#w" x="250.665" y="180.311" fill="#505050"/><use xlink:href="#x" x="246.482" y="147.948" fill="#505050"/><use xlink:href="#y" x="246.482" y="149.868" fill="#505050"/><use xlink:href="#z" x="246.482" y="151.788" fill="#505050"/><use xlink:href="#z" x="246.482" y="153.528" fill="#505050"/><use xlink:href="#A" x="246.482" y="155.268" fill="#505050"/><use xlink:href="#x" x="224.897" y="169.53" fill="#505050"/><use xlink:href="#y" x="224.897" y="171.45" fill="#505050"/><use xlink:href="#z" x="224.897" y="173.37" fill="#505050"/><use xlink:href="#z" x="224.897" y="175.11" fill="#505050"/><use xlink:href="#A" x="224.897" y="176.85" fill="#505050"/><use xlink:href="#B" x="190.057" y="168.153" fill="#505050"/><use xlink:href="#f" x="191.977" y="168.153" fill="#505050"/><use xlink:href="#B" x="258.473" y="163.958" fill="#505050"/><use xlink:href="#j" x="260.393" y="163.958" fill="#505050"/><use xlink:href="#B" x="265.605" y="171.75" fill="#505050"/><use xlink:href="#p" x="267.525" y="171.75" fill="#505050"/><use xlink:href="#C" x="249.836" y="190.576" fill="#505050"/><use xlink:href="#f" x="252.056" y="190.576" fill="#505050"/><use xlink:href="#C" x="275.379" y="159.52" fill="#505050"/><use xlink:href="#j" x="277.598" y="159.52" fill="#505050"/><use xlink:href="#D" x="231.973" y="193.814" fill="#505050"/><use xlink:href="#t" x="231.973" y="195.434" fill="#505050"/><use xlink:href="#E" x="217.655" y="177.445" fill="#505050"/><use xlink:href="#t" x="217.655" y="179.484" fill="#505050"/><use xlink:href="#E" x="217.655" y="177.445" fill="#505050"/><use xlink:href="#t" x="217.655" y="179.484" fill="#505050"/><use xlink:href="#F" x="211.705" y="156.117" fill="#505050"/><use xlink:href="#j" x="213.745" y="156.117" fill="#505050"/><use xlink:href="#F" x="211.705" y="156.117" fill="#505050"/><use xlink:href="#j" x="213.745" y="156.117" fill="#505050"/><use xlink:href="#F" x="240.486" y="170.505" fill="#505050"/><use xlink:href="#p" x="242.525" y="170.505" fill="#505050"/><use xlink:href="#F" x="240.486" y="170.505" fill="#505050"/><use xlink:href="#p" x="242.525" y="170.505" fill="#505050"/><use xlink:href="#F" x="251.096" y="175.275" fill="#505050"/><use xlink:href="#a" x="253.136" y="175.275" fill="#505050"/><use xlink:href="#F" x="251.096" y="175.275" fill="#505050"/><use xlink:href="#a" x="253.136" y="175.275" fill="#505050"/><use xlink:href="#G" x="248.759" y="151.308" fill="#505050"/><use xlink:href="#f" x="250.679" y="151.308" fill="#505050"/><use xlink:href="#G" x="227.173" y="172.89" fill="#505050"/><use xlink:href="#j" x="229.093" y="172.89" fill="#505050"/><path d="M197.32 166.86v-1.981M197.32 164.879h-2.52M194.8 164.879V163.8M194.8 163.8h5.04M199.84 163.8v1.079M199.84 164.879h-2.52M197.32 159.66v1.918M197.32 161.578h2.52M199.84 161.578v1.082M199.84 162.66h-5.04M194.8 162.66v-1.082M194.8 161.578h2.52M272.86 170.46v-1.98M272.86 168.48h-2.52M270.34 168.48v-1.082M270.34 167.398h5.039M275.379 167.398v1.082M275.379 168.48h-2.52M272.86 163.262v1.918M272.86 165.18h2.519M275.379 165.18v1.082M275.379 166.262h-5.04M270.34 166.262v-1.082M270.34 165.18h2.52" fill="none" stroke-width=".48" stroke-linecap="round" stroke-linejoin="round" stroke="#505050" stroke-miterlimit="10"/><path d="M247.66 188.398h1.8" fill="none" stroke-width=".36000000000000004" stroke-linecap="round" stroke-linejoin="round" stroke="#505050" stroke-miterlimit="10"/><path d="M259.36 188.398h-.72M258.64 188.398h-2.699" fill="none" stroke-width=".24" stroke-linecap="round" stroke-linejoin="round" stroke="#505050" stroke-miterlimit="10"/><path d="M269.262 188.398h-1.801M280.059 152.46v2.52M280.059 181.2v-2.52" fill="none" stroke-width=".36000000000000004" stroke-linecap="round" stroke-linejoin="round" stroke="#505050" stroke-miterlimit="10"/><path d="M280.059 167.762v-.723M280.059 167.04v-2.7" fill="none" stroke-width=".24" stroke-linecap="round" stroke-linejoin="round" stroke="#505050" stroke-miterlimit="10"/><path d="M211.719 159.66v6.121M211.719 188.398v-6.117M233.32 152.46h-6.12M204.52 152.46h6.12M262.059 166.86h-6.118M233.32 166.86h6.059M233.32 181.2h6.059M262.059 181.2h-6.118" fill="none" stroke-width="1.4400000000000002" stroke-linecap="round" stroke-linejoin="round" stroke="#505050" stroke-miterlimit="10"/><path d="M280.54 185.34v1.02M280.059 185.82h1.02M280.3 186.898l-.538.543M279.762 187.441h1.617M281.379 186.898v1.082M281.379 189.54v-1.08M281.379 188.46l-1.078 1.08M280.3 189.54h-.241M280.059 189.54l-.297-.24M279.762 189.3v-.538M279.762 188.762l.297-.301M279.762 190.078h1.078M280.84 190.078l.539.543M281.379 190.621l-.54.54M280.84 191.16h-1.078M193.238 186.121v1.02M192.7 186.66h1.019M192.398 188.762v-1.082M192.398 187.68h.84M193.238 187.68l-.297.539M192.941 188.219v.242M192.941 188.46l.297.302M193.238 188.762h.48M193.719 188.762l.3-.301M194.02 188.46v-.48M194.02 187.98l-.301-.3M192.398 189.3h1.082M193.48 189.3l.54.54M194.02 189.84l-.54.48M193.48 190.32h-1.082" fill="none" stroke-width=".18000000000000002" stroke-linecap="round" stroke-linejoin="round" stroke="#505050" stroke-miterlimit="10"/><path d="M200.922 166.68v-.54M200.379 166.14h.543M200.922 166.14v-.538M200.922 166.14h.539M191.5 163.262a5.76 5.76 0 1 1 11.52-.004 5.76 5.76 0 0 1-11.52.004zm0 0" fill="none" stroke-width=".48" stroke-linecap="round" stroke-linejoin="round" stroke="#505050" stroke-miterlimit="10"/><path d="M199.602 161.82h-4.563v.72h4.563zm0 0" fill="#505050" stroke-width=".12" stroke-linecap="round" stroke-linejoin="round" stroke="#505050" stroke-miterlimit="10"/><path d="M263.86 153.3h-1.801M262.059 153.3h-1.797" fill="none" stroke-width=".9" stroke-linecap="round" stroke-linejoin="round" stroke="#505050" stroke-miterlimit="10"/><path d="M262.059 153.3v3.481" fill="none" stroke-width=".48" stroke-linecap="round" stroke-linejoin="round" stroke="#505050" stroke-miterlimit="10"/><path d="M263.86 151.5h-1.801M262.059 151.5h-1.797" fill="none" stroke-width=".9" stroke-linecap="round" stroke-linejoin="round" stroke="#505050" stroke-miterlimit="10"/><path d="M262.059 151.5v-3.36M264.941 162.898h-5.761M258.46 162.18v-19.442M259.18 142.02h5.761M265.66 142.738v19.442M264.941 142.02l.297.058.242.121.122.242.058.297M258.46 142.738l.06-.297.18-.242.241-.12.239-.06M259.18 162.898l-.239-.058-.242-.18-.18-.238-.058-.242M265.66 162.18l-.058.242-.122.238-.242.18-.297.058M276.46 170.281v-.543M275.922 169.738h.539M276.46 169.738v-.539M276.46 169.738h.54M267.04 166.86a5.759 5.759 0 0 1 5.76-5.758 5.758 5.758 0 0 1 5.759 5.757 5.761 5.761 0 0 1-5.758 5.762 5.762 5.762 0 0 1-5.762-5.762zm0 0" fill="none" stroke-width=".48" stroke-linecap="round" stroke-linejoin="round" stroke="#505050" stroke-miterlimit="10"/><path d="M275.14 165.422h-4.558v.719h4.559zm0 0M254.738 188.102h-5.156v.597h5.156zm0 0" fill="#505050" stroke-width=".12" stroke-linecap="round" stroke-linejoin="round" stroke="#505050" stroke-miterlimit="10"/><path d="M260.621 186.602l.48.058.36.238.36.301.179.422.059.418M262.059 188.762l-.059.476-.18.364-.36.359-.358.18-.48.058M256.3 190.2l-.421-.06-.418-.18-.3-.358-.24-.364-.062-.476M254.86 188.04l.062-.419.238-.422.3-.3.419-.239.422-.058M262.059 188.762v-.723M256.3 186.602h4.321M256.3 190.2h4.321M254.86 188.762v-.723" fill="none" stroke-width=".30000000000000004" stroke-linecap="round" stroke-linejoin="round" stroke="#505050" stroke-miterlimit="10"/><path d="M256.66 187.32v2.16M256.66 189.48l1.98-1.082M258.64 188.398l-1.98-1.078M258.64 187.32v1.078M258.64 188.398v1.082" fill="none" stroke-width=".24" stroke-linecap="round" stroke-linejoin="round" stroke="#505050" stroke-miterlimit="10"/><path d="M260.8 186.602h-.722v3.597h.723zm0 0M267.398 188.102h-5.16v.597h5.16zm0 0" fill="#505050" stroke-width=".12" stroke-linecap="round" stroke-linejoin="round" stroke="#505050" stroke-miterlimit="10"/><path d="M281.86 169.02l-.06.421-.241.418-.297.301-.422.18-.418.12M279.7 170.46l-.419-.12-.422-.18-.3-.3-.239-.419-.058-.421M278.262 164.7l.058-.481.239-.36.3-.359.422-.18.418-.058M280.422 163.262l.418.058.422.18.297.36.242.359.058.48M279.7 170.46h.722M281.86 164.7v4.32M278.262 164.7v4.32M279.7 163.262h.722" fill="none" stroke-width=".30000000000000004" stroke-linecap="round" stroke-linejoin="round" stroke="#505050" stroke-miterlimit="10"/><path d="M281.14 165.059h-2.16M278.98 165.059l1.079 1.98M280.059 167.04l1.082-1.981M281.14 167.04h-1.081M280.059 167.04h-1.079M281.14 167.04v-.9" fill="none" stroke-width=".24" stroke-linecap="round" stroke-linejoin="round" stroke="#505050" stroke-miterlimit="10"/><path d="M281.86 168.48h-3.598v.72h3.597zm0 0M280.422 153.602h-.602v9.597h.602zm0 0M280.3 170.46h-.6v9.599h.6zm0 0" fill="#505050" stroke-width=".12" stroke-linecap="round" stroke-linejoin="round" stroke="#505050" stroke-miterlimit="10"/><path d="M192.7 144l-.302-.238M192.398 143.762v-.543M192.398 143.219l.301-.297M192.7 142.922h1.019M193.719 142.922l.3.297M194.02 143.219v.543M194.02 143.762l-.301.238M193.719 144h-.48M193.238 144v-.54M194.02 144.54h-1.622M192.398 144.54l1.622 1.019M194.02 145.559h-1.622M192.398 146.102h1.622M194.02 146.102v.84M194.02 146.941l-.301.239M193.719 147.18h-1.02M192.7 147.18l-.302-.239M192.398 146.941v-.84M280.059 143.219l-.297-.297M279.762 142.922v-.48M279.762 142.441l.297-.3M280.059 142.14h1.02M281.078 142.14l.3.301M281.379 142.441v.48M281.379 142.922l-.3.297M281.078 143.219h-.539M280.54 143.219v-.54M281.379 143.762h-1.617M279.762 143.762l1.617 1.02M281.379 144.781h-1.617M279.762 145.32h1.617M281.379 145.32v.782M281.379 146.102l-.3.296M281.078 146.398h-1.02M280.059 146.398l-.297-.296M279.762 146.102v-.782M281.379 147.96v-1.019M281.379 146.941l-1.078 1.02M280.3 147.96h-.241M280.059 147.96l-.297-.241M279.762 147.719v-.54M279.762 147.18l.297-.239" fill="none" stroke-width=".18000000000000002" stroke-linecap="round" stroke-linejoin="round" stroke="#505050" stroke-miterlimit="10"/><path d="M229.18 187.14l.48.122.36.238.3.422.121.476M230.441 188.398l-.062.422-.18.418-.3.301-.36.242-.36.059M227.559 187.14l.48.122.36.238.3.422.121.476M228.82 188.398l-.12.48-.18.36-.301.364-.418.18-.422.058M225.762 187.14l.476.06.48.3.302.422.18.476M227.2 188.398l-.122.48-.18.36-.296.364-.422.18-.418.058M224.14 187.14l.481.122.36.238.3.422.117.476M225.398 188.398l-.058.422-.18.418-.238.301-.422.242-.36.059M224.14 189.84v-1.442M222.879 188.398l.062-.476.297-.422.422-.238.48-.121M222.879 188.398h-3.957M233.32 188.398h-2.879" fill="none" stroke-width=".36000000000000004" stroke-linecap="round" stroke-linejoin="round" stroke="#505050" stroke-miterlimit="10"/><path d="M214.602 180.48l-.063.301-.18.239-.238.12-.242.06M209.559 181.2l-.297-.06-.242-.12-.122-.239-.058-.3M208.84 167.578l.058-.297.122-.242.242-.117.297-.063M213.879 166.86l.242.062.238.117.18.242.063.297" fill="none" stroke-width=".48" stroke-linecap="round" stroke-linejoin="round" stroke="#505050" stroke-miterlimit="10"/><path d="M212.441 165.781H211v1.078h1.441zm0 0M212.441 181.2H211v1.081h1.441zm0 0" fill="#505050" stroke-width=".12" stroke-linecap="round" stroke-linejoin="round" stroke="#505050" stroke-miterlimit="10"/><path d="M214.602 180.48l-.063.301-.18.239-.238.12-.242.06M209.559 181.2l-.297-.06-.242-.12-.122-.239-.058-.3M208.84 167.578l.058-.297.122-.242.242-.117.297-.063M213.879 166.86l.242.062.238.117.18.242.063.297M209.559 181.2h4.32M214.602 180.48v-1.082M214.238 179.04l.364.358M208.84 180.48v-1.082M209.2 179.04l-.36.358M214.238 169.02l.364-.36M214.238 169.02v10.02M209.2 169.02l-.36-.36M209.2 169.02v10.02M214.602 167.578v1.082M208.84 167.578v1.082M209.559 166.86h4.32" fill="none" stroke-width=".48" stroke-linecap="round" stroke-linejoin="round" stroke="#505050" stroke-miterlimit="10"/><path d="M212.441 165.781H211v1.078h1.441zm0 0M212.441 181.2H211v1.081h1.441zm0 0" fill="#505050" stroke-width=".12" stroke-linecap="round" stroke-linejoin="round" stroke="#505050" stroke-miterlimit="10"/><path d="M212.441 155.34l-.3-.059-.243-.18-.117-.242-.062-.238M211.719 150.3l.062-.3.117-.238.243-.121.3-.063M225.398 149.578l.243.063.238.12.18.239.062.3M226.121 154.621l-.062.238-.18.243-.238.18-.243.058" fill="none" stroke-width=".48" stroke-linecap="round" stroke-linejoin="round" stroke="#505050" stroke-miterlimit="10"/><path d="M227.2 151.738h-1.079v1.442h1.078zm0 0M211.719 151.738h-1.078v1.442h1.078zm0 0" fill="#505050" stroke-width=".12" stroke-linecap="round" stroke-linejoin="round" stroke="#505050" stroke-miterlimit="10"/><path d="M212.441 155.34l-.3-.059-.243-.18-.117-.242-.062-.238M211.719 150.3l.062-.3.117-.238.243-.121.3-.063M225.398 149.578l.243.063.238.12.18.239.062.3M226.121 154.621l-.062.238-.18.243-.238.18-.243.058M211.719 150.3v4.321M212.441 155.34h1.079M213.879 154.98l-.36.36M212.441 149.578h1.079M213.879 149.941l-.36-.363M223.96 154.98l.36.36M223.96 154.98H213.88M223.96 149.941l.36-.363M223.96 149.941H213.88M225.398 155.34h-1.078M225.398 149.578h-1.078M226.121 150.3v4.321" fill="none" stroke-width=".48" stroke-linecap="round" stroke-linejoin="round" stroke="#505050" stroke-miterlimit="10"/><path d="M227.2 151.738h-1.079v1.442h1.078zm0 0M211.719 151.738h-1.078v1.442h1.078zm0 0" fill="#505050" stroke-width=".12" stroke-linecap="round" stroke-linejoin="round" stroke="#505050" stroke-miterlimit="10"/><path d="M241.18 169.738l-.239-.058-.242-.18-.18-.238-.058-.242M240.46 164.7l.06-.302.18-.238.241-.12.239-.06M254.14 163.98l.301.06.239.12.12.238.06.301M254.86 169.02l-.06.242-.12.238-.239.18-.3.058" fill="none" stroke-width=".48" stroke-linecap="round" stroke-linejoin="round" stroke="#505050" stroke-miterlimit="10"/><path d="M255.941 166.14h-1.082v1.442h1.082zm0 0M240.46 166.14h-1.081v1.442h1.082zm0 0" fill="#505050" stroke-width=".12" stroke-linecap="round" stroke-linejoin="round" stroke="#505050" stroke-miterlimit="10"/><path d="M241.18 169.738l-.239-.058-.242-.18-.18-.238-.058-.242M240.46 164.7l.06-.302.18-.238.241-.12.239-.06M254.14 163.98l.301.06.239.12.12.238.06.301M254.86 169.02l-.06.242-.12.238-.239.18-.3.058M240.46 164.7v4.32M241.18 169.738h1.082M242.621 169.379l-.36.36M241.18 163.98h1.082M242.621 164.34l-.36-.36M252.7 169.379l.359.36M252.7 169.379H242.62M252.7 164.34l.359-.36M252.7 164.34H242.62M254.14 169.738h-1.081M254.14 163.98h-1.081M254.86 164.7v4.32" fill="none" stroke-width=".48" stroke-linecap="round" stroke-linejoin="round" stroke="#505050" stroke-miterlimit="10"/><path d="M255.941 166.14h-1.082v1.442h1.082zm0 0M240.46 166.14h-1.081v1.442h1.082zm0 0" fill="#505050" stroke-width=".12" stroke-linecap="round" stroke-linejoin="round" stroke="#505050" stroke-miterlimit="10"/><path d="M254.14 178.32l.301.059.239.18.12.242.06.238M254.86 183.36l-.06.3-.12.238-.239.122-.3.058M241.18 184.078l-.239-.058-.242-.122-.18-.238-.058-.3M240.46 179.04l.06-.24.18-.241.241-.18.239-.059" fill="none" stroke-width=".48" stroke-linecap="round" stroke-linejoin="round" stroke="#505050" stroke-miterlimit="10"/><path d="M240.46 180.48h-1.081v1.438h1.082zm0 0M255.941 180.48h-1.082v1.438h1.082zm0 0" fill="#505050" stroke-width=".12" stroke-linecap="round" stroke-linejoin="round" stroke="#505050" stroke-miterlimit="10"/><path d="M254.14 178.32l.301.059.239.18.12.242.06.238M254.86 183.36l-.06.3-.12.238-.239.122-.3.058M241.18 184.078l-.239-.058-.242-.122-.18-.238-.058-.3M240.46 179.04l.06-.24.18-.241.241-.18.239-.059M254.86 183.36v-4.32M254.14 178.32h-1.081M252.7 178.68l.359-.36M254.14 184.078h-1.081M252.7 183.719l.359.36M242.621 178.68l-.36-.36M242.621 178.68H252.7M242.621 183.719l-.36.36M242.621 183.719H252.7M241.18 178.32h1.082M241.18 184.078h1.082M240.46 183.36v-4.32" fill="none" stroke-width=".48" stroke-linecap="round" stroke-linejoin="round" stroke="#505050" stroke-miterlimit="10"/><path d="M240.46 180.48h-1.081v1.438h1.082zm0 0M255.941 180.48h-1.082v1.438h1.082zm0 0" fill="#505050" stroke-width=".12" stroke-linecap="round" stroke-linejoin="round" stroke="#505050" stroke-miterlimit="10"/><path d="M242.98 158.398V146.52M250.898 145.621l1.141.66 1.02.84.84 1.02.66 1.14.421 1.2.239 1.32v1.32l-.239 1.258-.421 1.262-.66 1.14-.84 1.02-1.02.84-1.14.66M247.66 144.898v15.122M250.898 159.3l-1.02.419-1.077.242-1.14.059M247.66 160.02l-1.082-.122-1.078-.238-1.02-.36M244.48 159.3l-.78-.421-.72-.48M244.48 145.621l1.02-.36 1.078-.241 1.082-.122M247.66 144.898l1.14.063 1.079.238 1.02.422M242.98 146.52l.782-.54.777-.421M221.441 179.941v-11.82M229.3 167.219l1.141.66 1.02.84.84.96.66 1.141.418 1.258.242 1.32v1.262l-.242 1.32-.418 1.258-.66 1.14-.84.962-1.02.84-1.14.66M226.121 166.5v15.059M229.3 180.84l-1.019.422-1.082.238-1.078.059M226.121 181.559l-1.14-.059-1.083-.238-1.02-.422M222.879 180.84l-.777-.36-.66-.539M222.879 167.219l1.02-.418 1.081-.242 1.141-.059M226.121 166.5l1.078.059 1.082.242 1.02.418M221.441 168.121l.72-.543.78-.418" fill="none" stroke-width=".36000000000000004" stroke-linecap="round" stroke-linejoin="round" stroke="#505050" stroke-miterlimit="10"/><path d="M273.879 188.398a2.52 2.52 0 1 1 5.041.003 2.52 2.52 0 0 1-5.041-.003" fill-rule="evenodd" fill="green"/><path d="M273.879 188.398a2.52 2.52 0 1 1 5.041.003 2.52 2.52 0 0 1-5.041-.003zm0 0" fill="none" stroke-width=".12" stroke-linecap="round" stroke-linejoin="round" stroke="green" stroke-miterlimit="10"/><path d="M274.96 188.398a1.439 1.439 0 1 1 2.878.003 1.439 1.439 0 0 1-2.877-.003" fill-rule="evenodd" fill="#fff"/><path d="M274.96 188.398a1.439 1.439 0 1 1 2.878.003 1.439 1.439 0 0 1-2.877-.003zm0 0" fill="none" stroke-width=".06" stroke-linecap="square" stroke-linejoin="bevel" stroke="#000" stroke-miterlimit="10"/><path d="M194.738 188.398a2.521 2.521 0 1 1 5.043.004 2.521 2.521 0 0 1-5.043-.004" fill-rule="evenodd" fill="green"/><path d="M194.738 188.398a2.521 2.521 0 1 1 5.043.004 2.521 2.521 0 0 1-5.043-.004zm0 0" fill="none" stroke-width=".12" stroke-linecap="round" stroke-linejoin="round" stroke="green" stroke-miterlimit="10"/><path d="M195.82 188.398a1.44 1.44 0 1 1 2.88.005 1.44 1.44 0 0 1-2.88-.005" fill-rule="evenodd" fill="#fff"/><path d="M195.82 188.398a1.44 1.44 0 1 1 2.88.005 1.44 1.44 0 0 1-2.88-.005zm0 0" fill="none" stroke-width=".06" stroke-linecap="square" stroke-linejoin="bevel" stroke="#000" stroke-miterlimit="10"/><path d="M195.52 159.66a1.74 1.74 0 0 1 3.48 0 1.74 1.74 0 0 1-3.48 0" fill-rule="evenodd" fill="green"/><path d="M195.52 159.66a1.74 1.74 0 0 1 3.48 0 1.74 1.74 0 0 1-3.48 0zm0 0" fill="none" stroke-width=".12" stroke-linecap="round" stroke-linejoin="round" stroke="green" stroke-miterlimit="10"/><path d="M196.238 159.66a1.021 1.021 0 0 1 2.043 0 1.021 1.021 0 1 1-2.043 0" fill-rule="evenodd" fill="#fff"/><path d="M196.238 159.66a1.021 1.021 0 0 1 2.043 0 1.021 1.021 0 1 1-2.043 0zm0 0" fill="none" stroke-width=".06" stroke-linecap="square" stroke-linejoin="bevel" stroke="#000" stroke-miterlimit="10"/><path d="M199.059 165.121h-3.48v3.48h3.48zm0 0" fill="green" stroke-width=".12" stroke-linecap="round" stroke-linejoin="round" stroke="green" stroke-miterlimit="10"/><path d="M196.238 166.86a1.021 1.021 0 0 1 2.043 0 1.021 1.021 0 1 1-2.043 0" fill-rule="evenodd" fill="#fff"/><path d="M196.238 166.86a1.021 1.021 0 0 1 2.043 0 1.021 1.021 0 1 1-2.043 0zm0 0" fill="none" stroke-width=".06" stroke-linecap="square" stroke-linejoin="bevel" stroke="#000" stroke-miterlimit="10"/><path d="M260.14 159.66a1.859 1.859 0 1 1 3.718-.001 1.859 1.859 0 0 1-3.717.001" fill-rule="evenodd" fill="green"/><path d="M260.14 159.66a1.859 1.859 0 1 1 3.718-.001 1.859 1.859 0 0 1-3.717.001zm0 0" fill="none" stroke-width=".12" stroke-linecap="round" stroke-linejoin="round" stroke="green" stroke-miterlimit="10"/><path d="M260.86 159.66c0-.629.511-1.14 1.14-1.14.629 0 1.14.511 1.14 1.14 0 .63-.511 1.14-1.14 1.14-.629 0-1.14-.51-1.14-1.14" fill-rule="evenodd" fill="#fff"/><path d="M260.86 159.66c0-.629.511-1.14 1.14-1.14.629 0 1.14.511 1.14 1.14 0 .63-.511 1.14-1.14 1.14-.629 0-1.14-.51-1.14-1.14zm0 0" fill="none" stroke-width=".06" stroke-linecap="square" stroke-linejoin="bevel" stroke="#000" stroke-miterlimit="10"/><path d="M260.14 145.262c0-1.028.833-1.864 1.86-1.864a1.862 1.862 0 0 1 0 3.723 1.861 1.861 0 0 1-1.86-1.86" fill-rule="evenodd" fill="green"/><path d="M260.14 145.262c0-1.028.833-1.864 1.86-1.864a1.862 1.862 0 0 1 0 3.723 1.861 1.861 0 0 1-1.86-1.86zm0 0" fill="none" stroke-width=".12" stroke-linecap="round" stroke-linejoin="round" stroke="green" stroke-miterlimit="10"/><path d="M260.86 145.262a1.14 1.14 0 1 1 2.278-.003 1.14 1.14 0 0 1-2.279.003" fill-rule="evenodd" fill="#fff"/><path d="M260.86 145.262a1.14 1.14 0 1 1 2.278-.003 1.14 1.14 0 0 1-2.279.003zm0 0" fill="none" stroke-width=".06" stroke-linecap="square" stroke-linejoin="bevel" stroke="#000" stroke-miterlimit="10"/><path d="M271.059 163.262a1.74 1.74 0 1 1 0 0" fill-rule="evenodd" fill="green"/><path d="M271.059 163.262a1.74 1.74 0 1 1 0 0zm0 0" fill="none" stroke-width=".12" stroke-linecap="round" stroke-linejoin="round" stroke="green" stroke-miterlimit="10"/><path d="M271.781 163.262c0-.567.457-1.024 1.02-1.024a1.021 1.021 0 0 1 0 2.043 1.02 1.02 0 0 1-1.02-1.02" fill-rule="evenodd" fill="#fff"/><path d="M271.781 163.262c0-.567.457-1.024 1.02-1.024a1.021 1.021 0 0 1 0 2.043 1.02 1.02 0 0 1-1.02-1.02zm0 0" fill="none" stroke-width=".06" stroke-linecap="square" stroke-linejoin="bevel" stroke="#000" stroke-miterlimit="10"/><path d="M274.602 168.719h-3.48v3.48h3.48zm0 0" fill="green" stroke-width=".12" stroke-linecap="round" stroke-linejoin="round" stroke="green" stroke-miterlimit="10"/><path d="M271.781 170.46a1.02 1.02 0 1 1 2.04.002 1.02 1.02 0 0 1-2.04-.001" fill-rule="evenodd" fill="#fff"/><path d="M271.781 170.46a1.02 1.02 0 1 1 2.04.002 1.02 1.02 0 0 1-2.04-.001zm0 0" fill="none" stroke-width=".06" stroke-linecap="square" stroke-linejoin="bevel" stroke="#000" stroke-miterlimit="10"/><path d="M267.34 188.398a1.859 1.859 0 1 1 3.719 0 1.862 1.862 0 0 1-1.86 1.864 1.862 1.862 0 0 1-1.86-1.864" fill-rule="evenodd" fill="green"/><path d="M267.34 188.398a1.859 1.859 0 1 1 3.719 0 1.862 1.862 0 0 1-1.86 1.864 1.862 1.862 0 0 1-1.86-1.864zm0 0" fill="none" stroke-width=".12" stroke-linecap="round" stroke-linejoin="round" stroke="green" stroke-miterlimit="10"/><path d="M268.059 188.398c0-.628.511-1.136 1.14-1.136a1.139 1.139 0 1 1 0 2.277 1.14 1.14 0 0 1-1.14-1.14" fill-rule="evenodd" fill="#fff"/><path d="M268.059 188.398c0-.628.511-1.136 1.14-1.136a1.139 1.139 0 1 1 0 2.277 1.14 1.14 0 0 1-1.14-1.14zm0 0" fill="none" stroke-width=".06" stroke-linecap="square" stroke-linejoin="bevel" stroke="#000" stroke-miterlimit="10"/><path d="M245.738 188.398a1.862 1.862 0 1 1 1.864 1.864 1.865 1.865 0 0 1-1.864-1.864" fill-rule="evenodd" fill="green"/><path d="M245.738 188.398a1.862 1.862 0 1 1 1.864 1.864 1.865 1.865 0 0 1-1.864-1.864zm0 0" fill="none" stroke-width=".12" stroke-linecap="round" stroke-linejoin="round" stroke="green" stroke-miterlimit="10"/><path d="M246.46 188.398c0-.628.509-1.136 1.142-1.136.628 0 1.136.508 1.136 1.136 0 .633-.508 1.141-1.136 1.141-.633 0-1.141-.508-1.141-1.14" fill-rule="evenodd" fill="#fff"/><path d="M246.46 188.398c0-.628.509-1.136 1.142-1.136.628 0 1.136.508 1.136 1.136 0 .633-.508 1.141-1.136 1.141-.633 0-1.141-.508-1.141-1.14zm0 0" fill="none" stroke-width=".06" stroke-linecap="square" stroke-linejoin="bevel" stroke="#000" stroke-miterlimit="10"/><path d="M278.14 181.2a1.859 1.859 0 1 1 3.718-.002 1.859 1.859 0 0 1-3.717.001" fill-rule="evenodd" fill="green"/><path d="M278.14 181.2a1.859 1.859 0 1 1 3.718-.002 1.859 1.859 0 0 1-3.717.001zm0 0" fill="none" stroke-width=".12" stroke-linecap="round" stroke-linejoin="round" stroke="green" stroke-miterlimit="10"/><path d="M278.86 181.2c0-.63.511-1.141 1.14-1.141.629 0 1.14.511 1.14 1.14 0 .63-.511 1.14-1.14 1.14-.629 0-1.14-.51-1.14-1.14" fill-rule="evenodd" fill="#fff"/><path d="M278.86 181.2c0-.63.511-1.141 1.14-1.141.629 0 1.14.511 1.14 1.14 0 .63-.511 1.14-1.14 1.14-.629 0-1.14-.51-1.14-1.14zm0 0" fill="none" stroke-width=".06" stroke-linecap="square" stroke-linejoin="bevel" stroke="#000" stroke-miterlimit="10"/><path d="M278.14 152.46a1.859 1.859 0 1 1 3.718 0 1.859 1.859 0 0 1-3.717 0" fill-rule="evenodd" fill="green"/><path d="M278.14 152.46a1.859 1.859 0 1 1 3.718 0 1.859 1.859 0 0 1-3.717 0zm0 0" fill="none" stroke-width=".12" stroke-linecap="round" stroke-linejoin="round" stroke="green" stroke-miterlimit="10"/><path d="M278.86 152.46a1.14 1.14 0 1 1 2.28 0c0 .63-.511 1.142-1.14 1.142-.629 0-1.14-.512-1.14-1.141" fill-rule="evenodd" fill="#fff"/><path d="M278.86 152.46a1.14 1.14 0 1 1 2.28 0c0 .63-.511 1.142-1.14 1.142-.629 0-1.14-.512-1.14-1.141zm0 0" fill="none" stroke-width=".06" stroke-linecap="square" stroke-linejoin="bevel" stroke="#000" stroke-miterlimit="10"/><path d="M194.738 145.262a2.522 2.522 0 1 1 5.045-.003 2.522 2.522 0 0 1-5.045.003" fill-rule="evenodd" fill="green"/><path d="M194.738 145.262a2.522 2.522 0 1 1 5.045-.003 2.522 2.522 0 0 1-5.045.003zm0 0" fill="none" stroke-width=".12" stroke-linecap="round" stroke-linejoin="round" stroke="green" stroke-miterlimit="10"/><path d="M195.82 145.262a1.44 1.44 0 1 1 2.881-.002 1.44 1.44 0 0 1-2.88.002" fill-rule="evenodd" fill="#fff"/><path d="M195.82 145.262a1.44 1.44 0 1 1 2.881-.002 1.44 1.44 0 0 1-2.88.002zm0 0" fill="none" stroke-width=".06" stroke-linecap="square" stroke-linejoin="bevel" stroke="#000" stroke-miterlimit="10"/><path d="M273.879 145.262a2.521 2.521 0 1 1 5.043-.004 2.521 2.521 0 0 1-5.043.004" fill-rule="evenodd" fill="green"/><path d="M273.879 145.262a2.521 2.521 0 1 1 5.043-.004 2.521 2.521 0 0 1-5.043.004zm0 0" fill="none" stroke-width=".12" stroke-linecap="round" stroke-linejoin="round" stroke="green" stroke-miterlimit="10"/><path d="M274.96 145.262a1.44 1.44 0 1 1 2.88-.004 1.44 1.44 0 0 1-2.88.004" fill-rule="evenodd" fill="#fff"/><path d="M274.96 145.262a1.44 1.44 0 1 1 2.88-.004 1.44 1.44 0 0 1-2.88.004zm0 0" fill="none" stroke-width=".06" stroke-linecap="square" stroke-linejoin="bevel" stroke="#000" stroke-miterlimit="10"/><path d="M217 188.398a1.859 1.859 0 1 1 3.719 0 1.862 1.862 0 0 1-1.86 1.864 1.862 1.862 0 0 1-1.859-1.864" fill-rule="evenodd" fill="green"/><path d="M217 188.398a1.859 1.859 0 1 1 3.719 0 1.862 1.862 0 0 1-1.86 1.864 1.862 1.862 0 0 1-1.859-1.864zm0 0" fill="none" stroke-width=".12" stroke-linecap="round" stroke-linejoin="round" stroke="green" stroke-miterlimit="10"/><path d="M217.719 188.398c0-.628.511-1.136 1.14-1.136a1.139 1.139 0 1 1 0 2.277 1.14 1.14 0 0 1-1.14-1.14" fill-rule="evenodd" fill="#fff"/><path d="M217.719 188.398c0-.628.511-1.136 1.14-1.136a1.139 1.139 0 1 1 0 2.277 1.14 1.14 0 0 1-1.14-1.14zm0 0" fill="none" stroke-width=".06" stroke-linecap="square" stroke-linejoin="bevel" stroke="#000" stroke-miterlimit="10"/><path d="M231.398 188.398a1.862 1.862 0 0 1 3.723 0 1.865 1.865 0 0 1-1.86 1.864 1.865 1.865 0 0 1-1.863-1.864" fill-rule="evenodd" fill="green"/><path d="M231.398 188.398a1.862 1.862 0 0 1 3.723 0 1.865 1.865 0 0 1-1.86 1.864 1.865 1.865 0 0 1-1.863-1.864zm0 0" fill="none" stroke-width=".12" stroke-linecap="round" stroke-linejoin="round" stroke="green" stroke-miterlimit="10"/><path d="M232.121 188.398c0-.628.508-1.136 1.14-1.136.63 0 1.137.508 1.137 1.136 0 .633-.507 1.141-1.136 1.141-.633 0-1.14-.508-1.14-1.14" fill-rule="evenodd" fill="#fff"/><path d="M232.121 188.398c0-.628.508-1.136 1.14-1.136.63 0 1.137.508 1.137 1.136 0 .633-.507 1.141-1.136 1.141-.633 0-1.14-.508-1.14-1.14zm0 0" fill="none" stroke-width=".06" stroke-linecap="square" stroke-linejoin="bevel" stroke="#000" stroke-miterlimit="10"/><path d="M209.8 188.398a1.859 1.859 0 1 1 3.72 0 1.862 1.862 0 0 1-1.86 1.864 1.862 1.862 0 0 1-1.86-1.864" fill-rule="evenodd" fill="green"/><path d="M209.8 188.398a1.859 1.859 0 1 1 3.72 0 1.862 1.862 0 0 1-1.86 1.864 1.862 1.862 0 0 1-1.86-1.864zm0 0" fill="none" stroke-width=".12" stroke-linecap="round" stroke-linejoin="round" stroke="green" stroke-miterlimit="10"/><path d="M210.52 188.398c0-.628.511-1.136 1.14-1.136a1.139 1.139 0 1 1 0 2.277 1.14 1.14 0 0 1-1.14-1.14" fill-rule="evenodd" fill="#fff"/><path d="M210.52 188.398c0-.628.511-1.136 1.14-1.136a1.139 1.139 0 1 1 0 2.277 1.14 1.14 0 0 1-1.14-1.14zm0 0" fill="none" stroke-width=".06" stroke-linecap="square" stroke-linejoin="bevel" stroke="#000" stroke-miterlimit="10"/><path d="M209.8 159.66a1.859 1.859 0 1 1 3.718-.001 1.859 1.859 0 0 1-3.717.001" fill-rule="evenodd" fill="green"/><path d="M209.8 159.66a1.859 1.859 0 1 1 3.718-.001 1.859 1.859 0 0 1-3.717.001zm0 0" fill="none" stroke-width=".12" stroke-linecap="round" stroke-linejoin="round" stroke="green" stroke-miterlimit="10"/><path d="M210.52 159.66c0-.629.511-1.14 1.14-1.14.63 0 1.14.511 1.14 1.14 0 .63-.51 1.14-1.14 1.14-.629 0-1.14-.51-1.14-1.14" fill-rule="evenodd" fill="#fff"/><path d="M210.52 159.66c0-.629.511-1.14 1.14-1.14.63 0 1.14.511 1.14 1.14 0 .63-.51 1.14-1.14 1.14-.629 0-1.14-.51-1.14-1.14zm0 0" fill="none" stroke-width=".06" stroke-linecap="square" stroke-linejoin="bevel" stroke="#000" stroke-miterlimit="10"/><path d="M202.602 152.46a1.859 1.859 0 1 1 3.717 0 1.859 1.859 0 0 1-3.717 0" fill-rule="evenodd" fill="green"/><path d="M202.602 152.46a1.859 1.859 0 1 1 3.717 0 1.859 1.859 0 0 1-3.717 0zm0 0" fill="none" stroke-width=".12" stroke-linecap="round" stroke-linejoin="round" stroke="green" stroke-miterlimit="10"/><path d="M203.32 152.46a1.14 1.14 0 1 1 1.14 1.14 1.14 1.14 0 0 1-1.14-1.14" fill-rule="evenodd" fill="#fff"/><path d="M203.32 152.46a1.14 1.14 0 1 1 1.14 1.14 1.14 1.14 0 0 1-1.14-1.14zm0 0" fill="none" stroke-width=".06" stroke-linecap="square" stroke-linejoin="bevel" stroke="#000" stroke-miterlimit="10"/><path d="M231.398 152.46a1.862 1.862 0 0 1 3.723 0 1.861 1.861 0 0 1-3.723 0" fill-rule="evenodd" fill="green"/><path d="M231.398 152.46a1.862 1.862 0 0 1 3.723 0 1.861 1.861 0 0 1-3.723 0zm0 0" fill="none" stroke-width=".12" stroke-linecap="round" stroke-linejoin="round" stroke="green" stroke-miterlimit="10"/><path d="M232.121 152.46c0-.632.508-1.14 1.14-1.14.63 0 1.137.508 1.137 1.14a1.139 1.139 0 1 1-2.277 0" fill-rule="evenodd" fill="#fff"/><path d="M232.121 152.46c0-.632.508-1.14 1.14-1.14.63 0 1.137.508 1.137 1.14a1.139 1.139 0 1 1-2.277 0zm0 0" fill="none" stroke-width=".06" stroke-linecap="square" stroke-linejoin="bevel" stroke="#000" stroke-miterlimit="10"/><path d="M231.398 166.86a1.862 1.862 0 0 1 3.723 0 1.861 1.861 0 0 1-3.723 0" fill-rule="evenodd" fill="green"/><path d="M231.398 166.86a1.862 1.862 0 0 1 3.723 0 1.861 1.861 0 0 1-3.723 0zm0 0" fill="none" stroke-width=".12" stroke-linecap="round" stroke-linejoin="round" stroke="green" stroke-miterlimit="10"/><path d="M232.121 166.86a1.14 1.14 0 1 1 2.279-.003 1.14 1.14 0 0 1-2.279.002" fill-rule="evenodd" fill="#fff"/><path d="M232.121 166.86a1.14 1.14 0 1 1 2.279-.003 1.14 1.14 0 0 1-2.279.002zm0 0" fill="none" stroke-width=".06" stroke-linecap="square" stroke-linejoin="bevel" stroke="#000" stroke-miterlimit="10"/><path d="M260.14 166.86a1.859 1.859 0 1 1 3.718-.002 1.859 1.859 0 0 1-3.717.001" fill-rule="evenodd" fill="green"/><path d="M260.14 166.86a1.859 1.859 0 1 1 3.718-.002 1.859 1.859 0 0 1-3.717.001zm0 0" fill="none" stroke-width=".12" stroke-linecap="round" stroke-linejoin="round" stroke="green" stroke-miterlimit="10"/><path d="M260.86 166.86c0-.63.511-1.141 1.14-1.141.629 0 1.14.511 1.14 1.14 0 .63-.511 1.141-1.14 1.141-.629 0-1.14-.512-1.14-1.14" fill-rule="evenodd" fill="#fff"/><path d="M260.86 166.86c0-.63.511-1.141 1.14-1.141.629 0 1.14.511 1.14 1.14 0 .63-.511 1.141-1.14 1.141-.629 0-1.14-.512-1.14-1.14zm0 0" fill="none" stroke-width=".06" stroke-linecap="square" stroke-linejoin="bevel" stroke="#000" stroke-miterlimit="10"/><path d="M260.14 181.2a1.859 1.859 0 1 1 3.718-.002 1.859 1.859 0 0 1-3.717.001" fill-rule="evenodd" fill="green"/><path d="M260.14 181.2a1.859 1.859 0 1 1 3.718-.002 1.859 1.859 0 0 1-3.717.001zm0 0" fill="none" stroke-width=".12" stroke-linecap="round" stroke-linejoin="round" stroke="green" stroke-miterlimit="10"/><path d="M260.86 181.2c0-.63.511-1.141 1.14-1.141.629 0 1.14.511 1.14 1.14 0 .63-.511 1.14-1.14 1.14-.629 0-1.14-.51-1.14-1.14" fill-rule="evenodd" fill="#fff"/><path d="M260.86 181.2c0-.63.511-1.141 1.14-1.141.629 0 1.14.511 1.14 1.14 0 .63-.511 1.14-1.14 1.14-.629 0-1.14-.51-1.14-1.14zm0 0" fill="none" stroke-width=".06" stroke-linecap="square" stroke-linejoin="bevel" stroke="#000" stroke-miterlimit="10"/><path d="M231.398 181.2a1.862 1.862 0 0 1 3.723 0 1.861 1.861 0 0 1-3.723 0" fill-rule="evenodd" fill="green"/><path d="M231.398 181.2a1.862 1.862 0 0 1 3.723 0 1.861 1.861 0 0 1-3.723 0zm0 0" fill="none" stroke-width=".12" stroke-linecap="round" stroke-linejoin="round" stroke="green" stroke-miterlimit="10"/><path d="M232.121 181.2a1.14 1.14 0 1 1 2.279-.003 1.14 1.14 0 0 1-2.279.002" fill-rule="evenodd" fill="#fff"/><path d="M232.121 181.2a1.14 1.14 0 1 1 2.279-.003 1.14 1.14 0 0 1-2.279.002zm0 0" fill="none" stroke-width=".06" stroke-linecap="square" stroke-linejoin="bevel" stroke="#000" stroke-miterlimit="10"/><path d="M245.559 159.66c0-1.129.914-2.039 2.043-2.039a2.038 2.038 0 1 1 0 4.078 2.041 2.041 0 0 1-2.043-2.039" fill-rule="evenodd" fill="green"/><path d="M245.559 159.66c0-1.129.914-2.039 2.043-2.039a2.038 2.038 0 1 1 0 4.078 2.041 2.041 0 0 1-2.043-2.039zm0 0" fill="none" stroke-width=".12" stroke-linecap="round" stroke-linejoin="round" stroke="green" stroke-miterlimit="10"/><path d="M246.578 159.66a1.021 1.021 0 0 1 2.043 0 1.021 1.021 0 1 1-2.043 0" fill-rule="evenodd" fill="#fff"/><path d="M246.578 159.66a1.021 1.021 0 0 1 2.043 0 1.021 1.021 0 1 1-2.043 0zm0 0" fill="none" stroke-width=".06" stroke-linecap="square" stroke-linejoin="bevel" stroke="#000" stroke-miterlimit="10"/><path d="M245.559 145.262a2.042 2.042 0 1 1 4.082 0 2.04 2.04 0 0 1-4.082 0" fill-rule="evenodd" fill="green"/><path d="M245.559 145.262a2.042 2.042 0 1 1 4.082 0 2.04 2.04 0 0 1-4.082 0zm0 0" fill="none" stroke-width=".12" stroke-linecap="round" stroke-linejoin="round" stroke="green" stroke-miterlimit="10"/><path d="M246.578 145.262a1.022 1.022 0 1 1 2.044-.003 1.022 1.022 0 0 1-2.044.003" fill-rule="evenodd" fill="#fff"/><path d="M246.578 145.262a1.022 1.022 0 1 1 2.044-.003 1.022 1.022 0 0 1-2.044.003zm0 0" fill="none" stroke-width=".06" stroke-linecap="square" stroke-linejoin="bevel" stroke="#000" stroke-miterlimit="10"/><path d="M245.559 152.46c0-1.128.914-2.038 2.043-2.038a2.038 2.038 0 1 1 0 4.078 2.041 2.041 0 0 1-2.043-2.04" fill-rule="evenodd" fill="green"/><path d="M245.559 152.46c0-1.128.914-2.038 2.043-2.038a2.038 2.038 0 1 1 0 4.078 2.041 2.041 0 0 1-2.043-2.04zm0 0" fill="none" stroke-width=".12" stroke-linecap="round" stroke-linejoin="round" stroke="green" stroke-miterlimit="10"/><path d="M246.578 152.46a1.021 1.021 0 0 1 2.043 0 1.021 1.021 0 1 1-2.043 0" fill-rule="evenodd" fill="#fff"/><path d="M246.578 152.46a1.021 1.021 0 0 1 2.043 0 1.021 1.021 0 1 1-2.043 0zm0 0" fill="none" stroke-width=".06" stroke-linecap="square" stroke-linejoin="bevel" stroke="#000" stroke-miterlimit="10"/><path d="M224.02 181.2a2.04 2.04 0 0 1 4.082 0c0 1.128-.915 2.038-2.043 2.038-1.125 0-2.04-.91-2.04-2.039" fill-rule="evenodd" fill="green"/><path d="M224.02 181.2a2.04 2.04 0 0 1 4.082 0c0 1.128-.915 2.038-2.043 2.038-1.125 0-2.04-.91-2.04-2.039zm0 0" fill="none" stroke-width=".12" stroke-linecap="round" stroke-linejoin="round" stroke="green" stroke-miterlimit="10"/><path d="M225.04 181.2a1.02 1.02 0 1 1 2.04 0 1.02 1.02 0 0 1-2.04 0" fill-rule="evenodd" fill="#fff"/><path d="M225.04 181.2a1.02 1.02 0 1 1 2.04 0 1.02 1.02 0 0 1-2.04 0zm0 0" fill="none" stroke-width=".06" stroke-linecap="square" stroke-linejoin="bevel" stroke="#000" stroke-miterlimit="10"/><path d="M224.02 166.86a2.04 2.04 0 0 1 4.082 0c0 1.128-.915 2.038-2.043 2.038-1.125 0-2.04-.91-2.04-2.039" fill-rule="evenodd" fill="green"/><path d="M224.02 166.86a2.04 2.04 0 0 1 4.082 0c0 1.128-.915 2.038-2.043 2.038-1.125 0-2.04-.91-2.04-2.039zm0 0" fill="none" stroke-width=".12" stroke-linecap="round" stroke-linejoin="round" stroke="green" stroke-miterlimit="10"/><path d="M225.04 166.86a1.02 1.02 0 1 1 2.04 0 1.02 1.02 0 0 1-2.04 0" fill-rule="evenodd" fill="#fff"/><path d="M225.04 166.86a1.02 1.02 0 1 1 2.04 0 1.02 1.02 0 0 1-2.04 0zm0 0" fill="none" stroke-width=".06" stroke-linecap="square" stroke-linejoin="bevel" stroke="#000" stroke-miterlimit="10"/><path d="M224.02 174c0-1.129.914-2.04 2.039-2.04a2.039 2.039 0 1 1 0 4.08c-1.125 0-2.04-.911-2.04-2.04" fill-rule="evenodd" fill="green"/><path d="M224.02 174c0-1.129.914-2.04 2.039-2.04a2.039 2.039 0 1 1 0 4.08c-1.125 0-2.04-.911-2.04-2.04zm0 0" fill="none" stroke-width=".12" stroke-linecap="round" stroke-linejoin="round" stroke="green" stroke-miterlimit="10"/><path d="M225.04 174a1.02 1.02 0 1 1 2.04.001 1.02 1.02 0 0 1-2.04-.001" fill-rule="evenodd" fill="#fff"/><path d="M225.04 174a1.02 1.02 0 1 1 2.04.001 1.02 1.02 0 0 1-2.04-.001zm0 0" fill="none" stroke-width=".06" stroke-linecap="square" stroke-linejoin="bevel" stroke="#000" stroke-miterlimit="10"/><path d="M273.879 188.398a2.52 2.52 0 1 1 5.041.003 2.52 2.52 0 0 1-5.041-.003" fill-rule="evenodd" fill="green"/><path d="M273.879 188.398a2.52 2.52 0 1 1 5.041.003 2.52 2.52 0 0 1-5.041-.003zm0 0" fill="none" stroke-width=".12" stroke-linecap="round" stroke-linejoin="round" stroke="green" stroke-miterlimit="10"/><path d="M274.96 188.398a1.439 1.439 0 1 1 2.878.003 1.439 1.439 0 0 1-2.877-.003" fill-rule="evenodd" fill="#fff"/><path d="M274.96 188.398a1.439 1.439 0 1 1 2.878.003 1.439 1.439 0 0 1-2.877-.003zm0 0" fill="none" stroke-width=".06" stroke-linecap="square" stroke-linejoin="bevel" stroke="#000" stroke-miterlimit="10"/><path d="M194.738 188.398a2.521 2.521 0 1 1 5.043.004 2.521 2.521 0 0 1-5.043-.004" fill-rule="evenodd" fill="green"/><path d="M194.738 188.398a2.521 2.521 0 1 1 5.043.004 2.521 2.521 0 0 1-5.043-.004zm0 0" fill="none" stroke-width=".12" stroke-linecap="round" stroke-linejoin="round" stroke="green" stroke-miterlimit="10"/><path d="M195.82 188.398a1.44 1.44 0 1 1 2.88.005 1.44 1.44 0 0 1-2.88-.005" fill-rule="evenodd" fill="#fff"/><path d="M195.82 188.398a1.44 1.44 0 1 1 2.88.005 1.44 1.44 0 0 1-2.88-.005zm0 0" fill="none" stroke-width=".06" stroke-linecap="square" stroke-linejoin="bevel" stroke="#000" stroke-miterlimit="10"/><path d="M195.52 159.66a1.74 1.74 0 0 1 3.48 0 1.74 1.74 0 0 1-3.48 0" fill-rule="evenodd" fill="green"/><path d="M195.52 159.66a1.74 1.74 0 0 1 3.48 0 1.74 1.74 0 0 1-3.48 0zm0 0" fill="none" stroke-width=".12" stroke-linecap="round" stroke-linejoin="round" stroke="green" stroke-miterlimit="10"/><path d="M196.238 159.66a1.021 1.021 0 0 1 2.043 0 1.021 1.021 0 1 1-2.043 0" fill-rule="evenodd" fill="#fff"/><path d="M196.238 159.66a1.021 1.021 0 0 1 2.043 0 1.021 1.021 0 1 1-2.043 0zm0 0" fill="none" stroke-width=".06" stroke-linecap="square" stroke-linejoin="bevel" stroke="#000" stroke-miterlimit="10"/><path d="M199.059 165.121h-3.48v3.48h3.48zm0 0" fill="green" stroke-width=".12" stroke-linecap="round" stroke-linejoin="round" stroke="green" stroke-miterlimit="10"/><path d="M196.238 166.86a1.021 1.021 0 0 1 2.043 0 1.021 1.021 0 1 1-2.043 0" fill-rule="evenodd" fill="#fff"/><path d="M196.238 166.86a1.021 1.021 0 0 1 2.043 0 1.021 1.021 0 1 1-2.043 0zm0 0" fill="none" stroke-width=".06" stroke-linecap="square" stroke-linejoin="bevel" stroke="#000" stroke-miterlimit="10"/><path d="M260.14 159.66a1.859 1.859 0 1 1 3.718-.001 1.859 1.859 0 0 1-3.717.001" fill-rule="evenodd" fill="green"/><path d="M260.14 159.66a1.859 1.859 0 1 1 3.718-.001 1.859 1.859 0 0 1-3.717.001zm0 0" fill="none" stroke-width=".12" stroke-linecap="round" stroke-linejoin="round" stroke="green" stroke-miterlimit="10"/><path d="M260.86 159.66c0-.629.511-1.14 1.14-1.14.629 0 1.14.511 1.14 1.14 0 .63-.511 1.14-1.14 1.14-.629 0-1.14-.51-1.14-1.14" fill-rule="evenodd" fill="#fff"/><path d="M260.86 159.66c0-.629.511-1.14 1.14-1.14.629 0 1.14.511 1.14 1.14 0 .63-.511 1.14-1.14 1.14-.629 0-1.14-.51-1.14-1.14zm0 0" fill="none" stroke-width=".06" stroke-linecap="square" stroke-linejoin="bevel" stroke="#000" stroke-miterlimit="10"/><path d="M260.14 145.262c0-1.028.833-1.864 1.86-1.864a1.862 1.862 0 0 1 0 3.723 1.861 1.861 0 0 1-1.86-1.86" fill-rule="evenodd" fill="green"/><path d="M260.14 145.262c0-1.028.833-1.864 1.86-1.864a1.862 1.862 0 0 1 0 3.723 1.861 1.861 0 0 1-1.86-1.86zm0 0" fill="none" stroke-width=".12" stroke-linecap="round" stroke-linejoin="round" stroke="green" stroke-miterlimit="10"/><path d="M260.86 145.262a1.14 1.14 0 1 1 2.278-.003 1.14 1.14 0 0 1-2.279.003" fill-rule="evenodd" fill="#fff"/><path d="M260.86 145.262a1.14 1.14 0 1 1 2.278-.003 1.14 1.14 0 0 1-2.279.003zm0 0" fill="none" stroke-width=".06" stroke-linecap="square" stroke-linejoin="bevel" stroke="#000" stroke-miterlimit="10"/><path d="M271.059 163.262a1.74 1.74 0 1 1 0 0" fill-rule="evenodd" fill="green"/><path d="M271.059 163.262a1.74 1.74 0 1 1 0 0zm0 0" fill="none" stroke-width=".12" stroke-linecap="round" stroke-linejoin="round" stroke="green" stroke-miterlimit="10"/><path d="M271.781 163.262c0-.567.457-1.024 1.02-1.024a1.021 1.021 0 0 1 0 2.043 1.02 1.02 0 0 1-1.02-1.02" fill-rule="evenodd" fill="#fff"/><path d="M271.781 163.262c0-.567.457-1.024 1.02-1.024a1.021 1.021 0 0 1 0 2.043 1.02 1.02 0 0 1-1.02-1.02zm0 0" fill="none" stroke-width=".06" stroke-linecap="square" stroke-linejoin="bevel" stroke="#000" stroke-miterlimit="10"/><path d="M274.602 168.719h-3.48v3.48h3.48zm0 0" fill="green" stroke-width=".12" stroke-linecap="round" stroke-linejoin="round" stroke="green" stroke-miterlimit="10"/><path d="M271.781 170.46a1.02 1.02 0 1 1 2.04.002 1.02 1.02 0 0 1-2.04-.001" fill-rule="evenodd" fill="#fff"/><path d="M271.781 170.46a1.02 1.02 0 1 1 2.04.002 1.02 1.02 0 0 1-2.04-.001zm0 0" fill="none" stroke-width=".06" stroke-linecap="square" stroke-linejoin="bevel" stroke="#000" stroke-miterlimit="10"/><path d="M267.34 188.398a1.859 1.859 0 1 1 3.719 0 1.862 1.862 0 0 1-1.86 1.864 1.862 1.862 0 0 1-1.86-1.864" fill-rule="evenodd" fill="green"/><path d="M267.34 188.398a1.859 1.859 0 1 1 3.719 0 1.862 1.862 0 0 1-1.86 1.864 1.862 1.862 0 0 1-1.86-1.864zm0 0" fill="none" stroke-width=".12" stroke-linecap="round" stroke-linejoin="round" stroke="green" stroke-miterlimit="10"/><path d="M268.059 188.398c0-.628.511-1.136 1.14-1.136a1.139 1.139 0 1 1 0 2.277 1.14 1.14 0 0 1-1.14-1.14" fill-rule="evenodd" fill="#fff"/><path d="M268.059 188.398c0-.628.511-1.136 1.14-1.136a1.139 1.139 0 1 1 0 2.277 1.14 1.14 0 0 1-1.14-1.14zm0 0" fill="none" stroke-width=".06" stroke-linecap="square" stroke-linejoin="bevel" stroke="#000" stroke-miterlimit="10"/><path d="M245.738 188.398a1.862 1.862 0 1 1 1.864 1.864 1.865 1.865 0 0 1-1.864-1.864" fill-rule="evenodd" fill="green"/><path d="M245.738 188.398a1.862 1.862 0 1 1 1.864 1.864 1.865 1.865 0 0 1-1.864-1.864zm0 0" fill="none" stroke-width=".12" stroke-linecap="round" stroke-linejoin="round" stroke="green" stroke-miterlimit="10"/><path d="M246.46 188.398c0-.628.509-1.136 1.142-1.136.628 0 1.136.508 1.136 1.136 0 .633-.508 1.141-1.136 1.141-.633 0-1.141-.508-1.141-1.14" fill-rule="evenodd" fill="#fff"/><path d="M246.46 188.398c0-.628.509-1.136 1.142-1.136.628 0 1.136.508 1.136 1.136 0 .633-.508 1.141-1.136 1.141-.633 0-1.141-.508-1.141-1.14zm0 0" fill="none" stroke-width=".06" stroke-linecap="square" stroke-linejoin="bevel" stroke="#000" stroke-miterlimit="10"/><path d="M278.14 181.2a1.859 1.859 0 1 1 3.718-.002 1.859 1.859 0 0 1-3.717.001" fill-rule="evenodd" fill="green"/><path d="M278.14 181.2a1.859 1.859 0 1 1 3.718-.002 1.859 1.859 0 0 1-3.717.001zm0 0" fill="none" stroke-width=".12" stroke-linecap="round" stroke-linejoin="round" stroke="green" stroke-miterlimit="10"/><path d="M278.86 181.2c0-.63.511-1.141 1.14-1.141.629 0 1.14.511 1.14 1.14 0 .63-.511 1.14-1.14 1.14-.629 0-1.14-.51-1.14-1.14" fill-rule="evenodd" fill="#fff"/><path d="M278.86 181.2c0-.63.511-1.141 1.14-1.141.629 0 1.14.511 1.14 1.14 0 .63-.511 1.14-1.14 1.14-.629 0-1.14-.51-1.14-1.14zm0 0" fill="none" stroke-width=".06" stroke-linecap="square" stroke-linejoin="bevel" stroke="#000" stroke-miterlimit="10"/><path d="M278.14 152.46a1.859 1.859 0 1 1 3.718 0 1.859 1.859 0 0 1-3.717 0" fill-rule="evenodd" fill="green"/><path d="M278.14 152.46a1.859 1.859 0 1 1 3.718 0 1.859 1.859 0 0 1-3.717 0zm0 0" fill="none" stroke-width=".12" stroke-linecap="round" stroke-linejoin="round" stroke="green" stroke-miterlimit="10"/><path d="M278.86 152.46a1.14 1.14 0 1 1 2.28 0c0 .63-.511 1.142-1.14 1.142-.629 0-1.14-.512-1.14-1.141" fill-rule="evenodd" fill="#fff"/><path d="M278.86 152.46a1.14 1.14 0 1 1 2.28 0c0 .63-.511 1.142-1.14 1.142-.629 0-1.14-.512-1.14-1.141zm0 0" fill="none" stroke-width=".06" stroke-linecap="square" stroke-linejoin="bevel" stroke="#000" stroke-miterlimit="10"/><path d="M194.738 145.262a2.522 2.522 0 1 1 5.045-.003 2.522 2.522 0 0 1-5.045.003" fill-rule="evenodd" fill="green"/><path d="M194.738 145.262a2.522 2.522 0 1 1 5.045-.003 2.522 2.522 0 0 1-5.045.003zm0 0" fill="none" stroke-width=".12" stroke-linecap="round" stroke-linejoin="round" stroke="green" stroke-miterlimit="10"/><path d="M195.82 145.262a1.44 1.44 0 1 1 2.881-.002 1.44 1.44 0 0 1-2.88.002" fill-rule="evenodd" fill="#fff"/><path d="M195.82 145.262a1.44 1.44 0 1 1 2.881-.002 1.44 1.44 0 0 1-2.88.002zm0 0" fill="none" stroke-width=".06" stroke-linecap="square" stroke-linejoin="bevel" stroke="#000" stroke-miterlimit="10"/><path d="M273.879 145.262a2.521 2.521 0 1 1 5.043-.004 2.521 2.521 0 0 1-5.043.004" fill-rule="evenodd" fill="green"/><path d="M273.879 145.262a2.521 2.521 0 1 1 5.043-.004 2.521 2.521 0 0 1-5.043.004zm0 0" fill="none" stroke-width=".12" stroke-linecap="round" stroke-linejoin="round" stroke="green" stroke-miterlimit="10"/><path d="M274.96 145.262a1.44 1.44 0 1 1 2.88-.004 1.44 1.44 0 0 1-2.88.004" fill-rule="evenodd" fill="#fff"/><path d="M274.96 145.262a1.44 1.44 0 1 1 2.88-.004 1.44 1.44 0 0 1-2.88.004zm0 0" fill="none" stroke-width=".06" stroke-linecap="square" stroke-linejoin="bevel" stroke="#000" stroke-miterlimit="10"/><path d="M217 188.398a1.859 1.859 0 1 1 3.719 0 1.862 1.862 0 0 1-1.86 1.864 1.862 1.862 0 0 1-1.859-1.864" fill-rule="evenodd" fill="green"/><path d="M217 188.398a1.859 1.859 0 1 1 3.719 0 1.862 1.862 0 0 1-1.86 1.864 1.862 1.862 0 0 1-1.859-1.864zm0 0" fill="none" stroke-width=".12" stroke-linecap="round" stroke-linejoin="round" stroke="green" stroke-miterlimit="10"/><path d="M217.719 188.398c0-.628.511-1.136 1.14-1.136a1.139 1.139 0 1 1 0 2.277 1.14 1.14 0 0 1-1.14-1.14" fill-rule="evenodd" fill="#fff"/><path d="M217.719 188.398c0-.628.511-1.136 1.14-1.136a1.139 1.139 0 1 1 0 2.277 1.14 1.14 0 0 1-1.14-1.14zm0 0" fill="none" stroke-width=".06" stroke-linecap="square" stroke-linejoin="bevel" stroke="#000" stroke-miterlimit="10"/><path d="M231.398 188.398a1.862 1.862 0 0 1 3.723 0 1.865 1.865 0 0 1-1.86 1.864 1.865 1.865 0 0 1-1.863-1.864" fill-rule="evenodd" fill="green"/><path d="M231.398 188.398a1.862 1.862 0 0 1 3.723 0 1.865 1.865 0 0 1-1.86 1.864 1.865 1.865 0 0 1-1.863-1.864zm0 0" fill="none" stroke-width=".12" stroke-linecap="round" stroke-linejoin="round" stroke="green" stroke-miterlimit="10"/><path d="M232.121 188.398c0-.628.508-1.136 1.14-1.136.63 0 1.137.508 1.137 1.136 0 .633-.507 1.141-1.136 1.141-.633 0-1.14-.508-1.14-1.14" fill-rule="evenodd" fill="#fff"/><path d="M232.121 188.398c0-.628.508-1.136 1.14-1.136.63 0 1.137.508 1.137 1.136 0 .633-.507 1.141-1.136 1.141-.633 0-1.14-.508-1.14-1.14zm0 0" fill="none" stroke-width=".06" stroke-linecap="square" stroke-linejoin="bevel" stroke="#000" stroke-miterlimit="10"/><path d="M209.8 188.398a1.859 1.859 0 1 1 3.72 0 1.862 1.862 0 0 1-1.86 1.864 1.862 1.862 0 0 1-1.86-1.864" fill-rule="evenodd" fill="green"/><path d="M209.8 188.398a1.859 1.859 0 1 1 3.72 0 1.862 1.862 0 0 1-1.86 1.864 1.862 1.862 0 0 1-1.86-1.864zm0 0" fill="none" stroke-width=".12" stroke-linecap="round" stroke-linejoin="round" stroke="green" stroke-miterlimit="10"/><path d="M210.52 188.398c0-.628.511-1.136 1.14-1.136a1.139 1.139 0 1 1 0 2.277 1.14 1.14 0 0 1-1.14-1.14" fill-rule="evenodd" fill="#fff"/><path d="M210.52 188.398c0-.628.511-1.136 1.14-1.136a1.139 1.139 0 1 1 0 2.277 1.14 1.14 0 0 1-1.14-1.14zm0 0" fill="none" stroke-width=".06" stroke-linecap="square" stroke-linejoin="bevel" stroke="#000" stroke-miterlimit="10"/><path d="M209.8 159.66a1.859 1.859 0 1 1 3.718-.001 1.859 1.859 0 0 1-3.717.001" fill-rule="evenodd" fill="green"/><path d="M209.8 159.66a1.859 1.859 0 1 1 3.718-.001 1.859 1.859 0 0 1-3.717.001zm0 0" fill="none" stroke-width=".12" stroke-linecap="round" stroke-linejoin="round" stroke="green" stroke-miterlimit="10"/><path d="M210.52 159.66c0-.629.511-1.14 1.14-1.14.63 0 1.14.511 1.14 1.14 0 .63-.51 1.14-1.14 1.14-.629 0-1.14-.51-1.14-1.14" fill-rule="evenodd" fill="#fff"/><path d="M210.52 159.66c0-.629.511-1.14 1.14-1.14.63 0 1.14.511 1.14 1.14 0 .63-.51 1.14-1.14 1.14-.629 0-1.14-.51-1.14-1.14zm0 0" fill="none" stroke-width=".06" stroke-linecap="square" stroke-linejoin="bevel" stroke="#000" stroke-miterlimit="10"/><path d="M202.602 152.46a1.859 1.859 0 1 1 3.717 0 1.859 1.859 0 0 1-3.717 0" fill-rule="evenodd" fill="green"/><path d="M202.602 152.46a1.859 1.859 0 1 1 3.717 0 1.859 1.859 0 0 1-3.717 0zm0 0" fill="none" stroke-width=".12" stroke-linecap="round" stroke-linejoin="round" stroke="green" stroke-miterlimit="10"/><path d="M203.32 152.46a1.14 1.14 0 1 1 1.14 1.14 1.14 1.14 0 0 1-1.14-1.14" fill-rule="evenodd" fill="#fff"/><path d="M203.32 152.46a1.14 1.14 0 1 1 1.14 1.14 1.14 1.14 0 0 1-1.14-1.14zm0 0" fill="none" stroke-width=".06" stroke-linecap="square" stroke-linejoin="bevel" stroke="#000" stroke-miterlimit="10"/><path d="M231.398 152.46a1.862 1.862 0 0 1 3.723 0 1.861 1.861 0 0 1-3.723 0" fill-rule="evenodd" fill="green"/><path d="M231.398 152.46a1.862 1.862 0 0 1 3.723 0 1.861 1.861 0 0 1-3.723 0zm0 0" fill="none" stroke-width=".12" stroke-linecap="round" stroke-linejoin="round" stroke="green" stroke-miterlimit="10"/><path d="M232.121 152.46c0-.632.508-1.14 1.14-1.14.63 0 1.137.508 1.137 1.14a1.139 1.139 0 1 1-2.277 0" fill-rule="evenodd" fill="#fff"/><path d="M232.121 152.46c0-.632.508-1.14 1.14-1.14.63 0 1.137.508 1.137 1.14a1.139 1.139 0 1 1-2.277 0zm0 0" fill="none" stroke-width=".06" stroke-linecap="square" stroke-linejoin="bevel" stroke="#000" stroke-miterlimit="10"/><path d="M231.398 166.86a1.862 1.862 0 0 1 3.723 0 1.861 1.861 0 0 1-3.723 0" fill-rule="evenodd" fill="green"/><path d="M231.398 166.86a1.862 1.862 0 0 1 3.723 0 1.861 1.861 0 0 1-3.723 0zm0 0" fill="none" stroke-width=".12" stroke-linecap="round" stroke-linejoin="round" stroke="green" stroke-miterlimit="10"/><path d="M232.121 166.86a1.14 1.14 0 1 1 2.279-.003 1.14 1.14 0 0 1-2.279.002" fill-rule="evenodd" fill="#fff"/><path d="M232.121 166.86a1.14 1.14 0 1 1 2.279-.003 1.14 1.14 0 0 1-2.279.002zm0 0" fill="none" stroke-width=".06" stroke-linecap="square" stroke-linejoin="bevel" stroke="#000" stroke-miterlimit="10"/><path d="M260.14 166.86a1.859 1.859 0 1 1 3.718-.002 1.859 1.859 0 0 1-3.717.001" fill-rule="evenodd" fill="green"/><path d="M260.14 166.86a1.859 1.859 0 1 1 3.718-.002 1.859 1.859 0 0 1-3.717.001zm0 0" fill="none" stroke-width=".12" stroke-linecap="round" stroke-linejoin="round" stroke="green" stroke-miterlimit="10"/><path d="M260.86 166.86c0-.63.511-1.141 1.14-1.141.629 0 1.14.511 1.14 1.14 0 .63-.511 1.141-1.14 1.141-.629 0-1.14-.512-1.14-1.14" fill-rule="evenodd" fill="#fff"/><path d="M260.86 166.86c0-.63.511-1.141 1.14-1.141.629 0 1.14.511 1.14 1.14 0 .63-.511 1.141-1.14 1.141-.629 0-1.14-.512-1.14-1.14zm0 0" fill="none" stroke-width=".06" stroke-linecap="square" stroke-linejoin="bevel" stroke="#000" stroke-miterlimit="10"/><path d="M260.14 181.2a1.859 1.859 0 1 1 3.718-.002 1.859 1.859 0 0 1-3.717.001" fill-rule="evenodd" fill="green"/><path d="M260.14 181.2a1.859 1.859 0 1 1 3.718-.002 1.859 1.859 0 0 1-3.717.001zm0 0" fill="none" stroke-width=".12" stroke-linecap="round" stroke-linejoin="round" stroke="green" stroke-miterlimit="10"/><path d="M260.86 181.2c0-.63.511-1.141 1.14-1.141.629 0 1.14.511 1.14 1.14 0 .63-.511 1.14-1.14 1.14-.629 0-1.14-.51-1.14-1.14" fill-rule="evenodd" fill="#fff"/><path d="M260.86 181.2c0-.63.511-1.141 1.14-1.141.629 0 1.14.511 1.14 1.14 0 .63-.511 1.14-1.14 1.14-.629 0-1.14-.51-1.14-1.14zm0 0" fill="none" stroke-width=".06" stroke-linecap="square" stroke-linejoin="bevel" stroke="#000" stroke-miterlimit="10"/><path d="M231.398 181.2a1.862 1.862 0 0 1 3.723 0 1.861 1.861 0 0 1-3.723 0" fill-rule="evenodd" fill="green"/><path d="M231.398 181.2a1.862 1.862 0 0 1 3.723 0 1.861 1.861 0 0 1-3.723 0zm0 0" fill="none" stroke-width=".12" stroke-linecap="round" stroke-linejoin="round" stroke="green" stroke-miterlimit="10"/><path d="M232.121 181.2a1.14 1.14 0 1 1 2.279-.003 1.14 1.14 0 0 1-2.279.002" fill-rule="evenodd" fill="#fff"/><path d="M232.121 181.2a1.14 1.14 0 1 1 2.279-.003 1.14 1.14 0 0 1-2.279.002zm0 0" fill="none" stroke-width=".06" stroke-linecap="square" stroke-linejoin="bevel" stroke="#000" stroke-miterlimit="10"/><path d="M245.559 159.66c0-1.129.914-2.039 2.043-2.039a2.038 2.038 0 1 1 0 4.078 2.041 2.041 0 0 1-2.043-2.039" fill-rule="evenodd" fill="green"/><path d="M245.559 159.66c0-1.129.914-2.039 2.043-2.039a2.038 2.038 0 1 1 0 4.078 2.041 2.041 0 0 1-2.043-2.039zm0 0" fill="none" stroke-width=".12" stroke-linecap="round" stroke-linejoin="round" stroke="green" stroke-miterlimit="10"/><path d="M246.578 159.66a1.021 1.021 0 0 1 2.043 0 1.021 1.021 0 1 1-2.043 0" fill-rule="evenodd" fill="#fff"/><path d="M246.578 159.66a1.021 1.021 0 0 1 2.043 0 1.021 1.021 0 1 1-2.043 0zm0 0" fill="none" stroke-width=".06" stroke-linecap="square" stroke-linejoin="bevel" stroke="#000" stroke-miterlimit="10"/><path d="M245.559 145.262a2.042 2.042 0 1 1 4.082 0 2.04 2.04 0 0 1-4.082 0" fill-rule="evenodd" fill="green"/><path d="M245.559 145.262a2.042 2.042 0 1 1 4.082 0 2.04 2.04 0 0 1-4.082 0zm0 0" fill="none" stroke-width=".12" stroke-linecap="round" stroke-linejoin="round" stroke="green" stroke-miterlimit="10"/><path d="M246.578 145.262a1.022 1.022 0 1 1 2.044-.003 1.022 1.022 0 0 1-2.044.003" fill-rule="evenodd" fill="#fff"/><path d="M246.578 145.262a1.022 1.022 0 1 1 2.044-.003 1.022 1.022 0 0 1-2.044.003zm0 0" fill="none" stroke-width=".06" stroke-linecap="square" stroke-linejoin="bevel" stroke="#000" stroke-miterlimit="10"/><path d="M245.559 152.46c0-1.128.914-2.038 2.043-2.038a2.038 2.038 0 1 1 0 4.078 2.041 2.041 0 0 1-2.043-2.04" fill-rule="evenodd" fill="green"/><path d="M245.559 152.46c0-1.128.914-2.038 2.043-2.038a2.038 2.038 0 1 1 0 4.078 2.041 2.041 0 0 1-2.043-2.04zm0 0" fill="none" stroke-width=".12" stroke-linecap="round" stroke-linejoin="round" stroke="green" stroke-miterlimit="10"/><path d="M246.578 152.46a1.021 1.021 0 0 1 2.043 0 1.021 1.021 0 1 1-2.043 0" fill-rule="evenodd" fill="#fff"/><path d="M246.578 152.46a1.021 1.021 0 0 1 2.043 0 1.021 1.021 0 1 1-2.043 0zm0 0" fill="none" stroke-width=".06" stroke-linecap="square" stroke-linejoin="bevel" stroke="#000" stroke-miterlimit="10"/><path d="M224.02 181.2a2.04 2.04 0 0 1 4.082 0c0 1.128-.915 2.038-2.043 2.038-1.125 0-2.04-.91-2.04-2.039" fill-rule="evenodd" fill="green"/><path d="M224.02 181.2a2.04 2.04 0 0 1 4.082 0c0 1.128-.915 2.038-2.043 2.038-1.125 0-2.04-.91-2.04-2.039zm0 0" fill="none" stroke-width=".12" stroke-linecap="round" stroke-linejoin="round" stroke="green" stroke-miterlimit="10"/><path d="M225.04 181.2a1.02 1.02 0 1 1 2.04 0 1.02 1.02 0 0 1-2.04 0" fill-rule="evenodd" fill="#fff"/><path d="M225.04 181.2a1.02 1.02 0 1 1 2.04 0 1.02 1.02 0 0 1-2.04 0zm0 0" fill="none" stroke-width=".06" stroke-linecap="square" stroke-linejoin="bevel" stroke="#000" stroke-miterlimit="10"/><path d="M224.02 166.86a2.04 2.04 0 0 1 4.082 0c0 1.128-.915 2.038-2.043 2.038-1.125 0-2.04-.91-2.04-2.039" fill-rule="evenodd" fill="green"/><path d="M224.02 166.86a2.04 2.04 0 0 1 4.082 0c0 1.128-.915 2.038-2.043 2.038-1.125 0-2.04-.91-2.04-2.039zm0 0" fill="none" stroke-width=".12" stroke-linecap="round" stroke-linejoin="round" stroke="green" stroke-miterlimit="10"/><path d="M225.04 166.86a1.02 1.02 0 1 1 2.04 0 1.02 1.02 0 0 1-2.04 0" fill-rule="evenodd" fill="#fff"/><path d="M225.04 166.86a1.02 1.02 0 1 1 2.04 0 1.02 1.02 0 0 1-2.04 0zm0 0" fill="none" stroke-width=".06" stroke-linecap="square" stroke-linejoin="bevel" stroke="#000" stroke-miterlimit="10"/><path d="M224.02 174c0-1.129.914-2.04 2.039-2.04a2.039 2.039 0 1 1 0 4.08c-1.125 0-2.04-.911-2.04-2.04" fill-rule="evenodd" fill="green"/><path d="M224.02 174c0-1.129.914-2.04 2.039-2.04a2.039 2.039 0 1 1 0 4.08c-1.125 0-2.04-.911-2.04-2.04zm0 0" fill="none" stroke-width=".12" stroke-linecap="round" stroke-linejoin="round" stroke="green" stroke-miterlimit="10"/><path d="M225.04 174a1.02 1.02 0 1 1 2.04.001 1.02 1.02 0 0 1-2.04-.001" fill-rule="evenodd" fill="#fff"/><path d="M225.04 174a1.02 1.02 0 1 1 2.04.001 1.02 1.02 0 0 1-2.04-.001zm0 0" fill="none" stroke-width=".06" stroke-linecap="square" stroke-linejoin="bevel" stroke="#000" stroke-miterlimit="10"/><path d="M226.121 174l21.54-14.34M211.719 159.66L226.12 174M211.719 188.398h7.203M197.32 188.398h14.399M197.32 166.86v21.538M269.262 188.398h7.199M280.059 181.2l-3.598 7.198M272.86 170.46l7.199 10.74M276.46 145.262l3.599 7.199M272.86 163.262l7.199-10.801M262.059 145.262h14.402M247.66 145.262h14.399M204.52 152.46l43.14-7.198M197.32 159.66l7.2-7.2M197.32 145.262l7.2 7.199M226.121 166.86h7.2M233.32 152.46l-7.199 14.4M262.059 181.2v-21.54M262.059 166.86v-7.2M247.66 152.46l14.399 14.4M247.66 188.398l-14.34-7.199M233.32 188.398h14.34M226.121 181.2l7.2 7.198" fill="none" stroke-width=".12" stroke-linecap="round" stroke-linejoin="round" stroke="olive" stroke-miterlimit="10"/><g clip-path="url(#H)"><path d="M190.121 138.059H406" fill="none" stroke-width=".12" stroke-linecap="round" stroke-linejoin="round" stroke="#000" stroke-miterlimit="10"/></g><g clip-path="url(#I)"><path d="M406 138.059V281.94" fill="none" stroke-width=".12" stroke-linecap="round" stroke-linejoin="round" stroke="#000" stroke-miterlimit="10"/></g><g clip-path="url(#J)"><path d="M406 281.941H190.121" fill="none" stroke-width=".12" stroke-linecap="round" stroke-linejoin="round" stroke="#000" stroke-miterlimit="10"/></g><path d="M190.121 281.941V138.06" fill="none" stroke-width=".12" stroke-linecap="round" stroke-linejoin="round" stroke="#000" stroke-miterlimit="10"/></svg>