<svg xmlns="http://www.w3.org/2000/svg" xmlns:xlink="http://www.w3.org/1999/xlink" width="595pt" height="560" viewBox="0 0 595 420"><defs><symbol overflow="visible" id="a"><path d="M.875-3.672H.406V0h2.281v-.406H.875zm0 0"/></symbol><symbol overflow="visible" id="b"><path d="M2.36 0l1.03-3.078V0h.454v-3.672h-.656L2.125-.469 1.031-3.672H.375V0h.453v-3.078L1.875 0zm0 0"/></symbol><symbol overflow="visible" id="c"><path d="M1.313-2.547V0h.437v-3.578h-.297a1.6 1.6 0 0 1-.11.328.55.55 0 0 1-.171.203.682.682 0 0 1-.25.125 4.364 4.364 0 0 1-.406.063v.312zm0 0"/></symbol><symbol overflow="visible" id="d"><path d="M1.11-1.64h.25c.488 0 .734.214.734.64 0 .23-.07.406-.203.531-.125.125-.305.188-.532.188-.242 0-.421-.055-.546-.172-.125-.125-.196-.32-.204-.594H.156c.008.149.024.274.047.375.031.106.067.195.11.266a.86.86 0 0 0 .39.39c.176.082.39.125.64.125.177 0 .337-.027.485-.078a.91.91 0 0 0 .39-.203 1.06 1.06 0 0 0 .235-.36c.063-.144.094-.3.094-.468.008-.219-.04-.395-.14-.531-.095-.145-.247-.254-.454-.328.332-.125.5-.368.5-.735A1.242 1.242 0 0 0 2.36-3a.737.737 0 0 0-.203-.313.973.973 0 0 0-.344-.187 1.298 1.298 0 0 0-.453-.078c-.367 0-.64.101-.828.297-.187.199-.289.484-.297.86h.454c0-.102.003-.188.015-.25a.614.614 0 0 1 .063-.204.56.56 0 0 1 .218-.219.703.703 0 0 1 .375-.094c.196 0 .348.06.454.172.113.106.175.25.187.438a.72.72 0 0 1-.094.312.406.406 0 0 1-.203.172.73.73 0 0 1-.11.031.716.716 0 0 1-.155.032 2.128 2.128 0 0 1-.329.015zm0 0"/></symbol><symbol overflow="visible" id="e"><path d="M2.516-2.64a1.239 1.239 0 0 0-.125-.391 1.424 1.424 0 0 0-.22-.297.872.872 0 0 0-.296-.188 1.18 1.18 0 0 0-.375-.062c-.2 0-.383.047-.547.14a1.006 1.006 0 0 0-.406.376 1.45 1.45 0 0 0-.235.515c-.042.18-.07.336-.078.469a5.752 5.752 0 0 0 0 .859c.008.125.024.242.047.344.031.105.063.203.094.297.04.094.086.18.14.25A.847.847 0 0 0 .892 0c.156.07.332.11.53.11.165 0 .317-.032.454-.094A.984.984 0 0 0 2.25-.22a1.14 1.14 0 0 0 .25-.375c.063-.156.094-.32.094-.5 0-.156-.031-.3-.094-.437a1.09 1.09 0 0 0-.234-.375.961.961 0 0 0-.344-.235A1.112 1.112 0 0 0 1.5-2.22c-.355 0-.633.133-.828.39 0-.437.066-.769.203-1a.644.644 0 0 1 .594-.358.56.56 0 0 1 .39.14c.102.094.172.23.204.406zm-1.079.812c.22 0 .368.055.454.156a.884.884 0 0 1 .187.297c.031.094.05.2.063.313a1.485 1.485 0 0 1-.063.328.645.645 0 0 1-.156.25.797.797 0 0 1-.219.156.927.927 0 0 1-.578 0A.756.756 0 0 1 .891-.5.715.715 0 0 1 .75-.75a1.11 1.11 0 0 1-.047-.328.87.87 0 0 1 .047-.297.588.588 0 0 1 .14-.234.65.65 0 0 1 .235-.157.796.796 0 0 1 .313-.062zm0 0"/></symbol><symbol overflow="visible" id="f"><path d="M1.39-3.578c-.18 0-.34.039-.484.11a.884.884 0 0 0-.344.28 1.69 1.69 0 0 0-.265.61 3.877 3.877 0 0 0-.078.844c0 .605.097 1.062.297 1.375.195.312.488.468.875.468.375 0 .66-.148.859-.453.207-.312.313-.765.313-1.36 0-.343-.032-.632-.094-.874a1.606 1.606 0 0 0-.266-.61.877.877 0 0 0-.36-.28.983.983 0 0 0-.452-.11zm0 .39c.477 0 .72.481.72 1.438 0 .512-.063.89-.188 1.14-.117.243-.297.36-.547.36-.469 0-.703-.488-.703-1.469 0-.488.055-.851.172-1.093.125-.25.304-.376.547-.376zm0 0"/></symbol><symbol overflow="visible" id="g"><path d="M2.547-.438H.672A.856.856 0 0 1 .719-.64a.643.643 0 0 1 .125-.171.944.944 0 0 1 .187-.172c.082-.063.176-.125.282-.188l.515-.281a1.61 1.61 0 0 0 .547-.469c.133-.187.203-.39.203-.61a.9.9 0 0 0-.094-.405 1.142 1.142 0 0 0-.234-.36 1.173 1.173 0 0 0-.375-.203 1.166 1.166 0 0 0-.438-.078c-.23 0-.43.043-.593.125a.914.914 0 0 0-.406.344.81.81 0 0 0-.126.28 1.944 1.944 0 0 0-.062.485h.453c0-.113.004-.207.016-.281.02-.082.047-.156.078-.219a.73.73 0 0 1 .25-.25.763.763 0 0 1 .375-.094.63.63 0 0 1 .266.063.588.588 0 0 1 .234.14.5.5 0 0 1 .14.204.63.63 0 0 1 .063.265c0 .282-.164.516-.484.704l-.47.265a3.381 3.381 0 0 0-.468.313 1.43 1.43 0 0 0-.297.328A1.37 1.37 0 0 0 .234-.5a3.009 3.009 0 0 0-.062.5h2.375zm0 0"/></symbol><symbol overflow="visible" id="h"><path d="M.719-3.672H.297V0h.422v-1.031l.406-.407L2.015 0h.516L1.453-1.734l.922-.907h-.547L.718-1.516zm0 0"/></symbol><symbol overflow="visible" id="i"><path d="M1.656-.86V0h.438v-.86h.531v-.39h-.531v-2.328h-.328L.14-1.328v.469zm0-.39H.531l1.125-1.578zm0 0"/></symbol><symbol overflow="visible" id="j"><path d="M2.625-3.578H.235v.437h1.937c-.219.305-.406.586-.563.844a9.104 9.104 0 0 0-.406.75A8.152 8.152 0 0 0 .703 0h.469c.039-.281.101-.555.187-.828.082-.27.18-.535.297-.797.125-.258.266-.52.422-.781.164-.258.348-.524.547-.797zm0 0"/></symbol><symbol overflow="visible" id="k"><path d="M.969-.531H.438V0h.53zm0 0"/></symbol><symbol overflow="visible" id="l"><path d="M2.438 0v-2.64h-.422v1.5c0 .136-.024.261-.063.374a.865.865 0 0 1-.14.282.61.61 0 0 1-.235.171.619.619 0 0 1-.281.063c-.18 0-.313-.047-.406-.14A.507.507 0 0 1 .75-.767V-2.64H.328v2.032c0 .117.016.218.047.312a.62.62 0 0 0 .172.219c.07.062.16.11.265.14.102.032.223.047.36.047.094.008.18.004.266-.015A.859.859 0 0 0 1.655 0a.68.68 0 0 0 .203-.14c.063-.063.13-.141.204-.235V0zm0 0"/></symbol><symbol overflow="visible" id="m"><path d="M.922-1.672h1.75v-.422H.922v-1.172h2v-.406H.453V0h.469zm0 0"/></symbol><symbol overflow="visible" id="n"><path d="M1.969-1.875a2.3 2.3 0 0 0 .234-.172.573.573 0 0 0 .14-.156.549.549 0 0 0 .079-.188c.02-.07.035-.148.047-.234A1.202 1.202 0 0 0 2.375-3a.901.901 0 0 0-.219-.313.973.973 0 0 0-.344-.187 1.266 1.266 0 0 0-.875 0 .972.972 0 0 0-.328.188A.853.853 0 0 0 .391-3a.873.873 0 0 0-.079.375c0 .086.004.164.016.234.02.063.047.125.078.188.04.055.094.105.156.156.063.055.141.11.235.172-.406.2-.61.492-.61.875 0 .18.024.336.079.469.062.125.144.242.25.344.101.093.226.167.375.218a1.596 1.596 0 0 0 .984 0c.145-.05.27-.125.375-.218a1.34 1.34 0 0 0 .25-.344c.063-.133.094-.285.094-.453 0-.407-.211-.704-.625-.891zM1.39-3.188c.187.012.332.07.437.172a.55.55 0 0 1 .188.407.578.578 0 0 1-.188.406c-.105.094-.25.14-.437.14-.2 0-.356-.046-.47-.14-.105-.102-.155-.242-.155-.422 0-.164.05-.297.156-.39a.747.747 0 0 1 .469-.172zm0 1.5c.101 0 .203.024.296.063a.588.588 0 0 1 .375.36c.04.085.067.18.079.28-.012.106-.04.204-.079.297a.73.73 0 0 1-.203.266c-.093.094-.257.14-.484.14a.927.927 0 0 1-.297-.046.588.588 0 0 1-.234-.14.743.743 0 0 1-.156-.22.927.927 0 0 1 0-.578.797.797 0 0 1 .156-.218.588.588 0 0 1 .234-.141.796.796 0 0 1 .313-.063zm0 0"/></symbol><symbol overflow="visible" id="o"><path d="M3.578-1.938H2.047v.407h1.125v.11c-.012.167-.047.32-.11.452a1.06 1.06 0 0 1-.234.36 1.5 1.5 0 0 1-.36.234 1.2 1.2 0 0 1-.452.078c-.2 0-.375-.031-.532-.094a1.087 1.087 0 0 1-.406-.28 1.092 1.092 0 0 1-.172-.22 2.41 2.41 0 0 1-.125-.28 2.81 2.81 0 0 1-.078-.313 3.323 3.323 0 0 1-.015-.344c0-.219.03-.422.093-.61.063-.187.149-.343.266-.468a1.22 1.22 0 0 1 .406-.313 1.277 1.277 0 0 1 1.297.156c.145.094.242.262.297.5h.484a1.898 1.898 0 0 0-.187-.5 1.619 1.619 0 0 0-.422-.437c-.2-.156-.512-.234-.938-.234-.449 0-.812.117-1.093.343-.106.094-.2.2-.282.313a2.77 2.77 0 0 0-.265.484c-.086.2-.125.465-.125.797 0 .281.039.543.125.781.082.23.195.434.344.61.144.168.32.297.53.39.208.082.438.125.688.125.25.008.473-.03.672-.125.207-.101.406-.254.594-.453l.11.485h.296zm0 0"/></symbol><symbol overflow="visible" id="p"><path d="M3.266-3.672h-.454v3l-1.921-3h-.5V0h.437v-2.984L2.734 0h.532zm0 0"/></symbol><symbol overflow="visible" id="q"><path d="M.453 0h1.422c.227 0 .43-.04.61-.125.187-.082.343-.203.468-.36.133-.163.235-.359.297-.578.07-.226.11-.488.11-.78 0-.282-.04-.536-.11-.766a1.503 1.503 0 0 0-.297-.579 1.257 1.257 0 0 0-.469-.359 1.452 1.452 0 0 0-.609-.125H.453zm.469-.406v-2.86h.86c.363 0 .64.125.827.375.188.243.282.594.282 1.063 0 .46-.094.812-.282 1.062-.187.243-.464.36-.828.36zm0 0"/></symbol><symbol overflow="visible" id="r"><path d="M.984-3.672H.5V0h.484zm0 0"/></symbol><symbol overflow="visible" id="s"><path d="M3.344-2.531c-.074-.406-.23-.707-.469-.906-.23-.196-.547-.297-.953-.297-.25 0-.477.043-.672.125a1.27 1.27 0 0 0-.5.328 2.048 2.048 0 0 0-.39.656 2.54 2.54 0 0 0-.126.828c0 .305.047.586.141.844.094.25.227.465.406.64.133.149.297.258.485.329.187.07.398.101.64.093.895.008 1.399-.472 1.516-1.453h-.485a2.548 2.548 0 0 1-.171.578.908.908 0 0 1-.344.344 1.01 1.01 0 0 1-.516.125c-.187 0-.355-.031-.5-.094a1.073 1.073 0 0 1-.375-.296 1.333 1.333 0 0 1-.234-.485 2.226 2.226 0 0 1-.078-.625c0-.238.023-.453.078-.64.05-.188.125-.344.219-.47.101-.132.222-.238.359-.312.145-.07.313-.11.5-.11.145 0 .281.024.406.063a.997.997 0 0 1 .313.172c.062.063.113.14.156.235.04.086.078.195.11.328zm0 0"/></symbol><symbol overflow="visible" id="t"><path d="M2.39-1.11L2.767 0h.53L2-3.672h-.61L.095 0h.5L.97-1.11zm-.124-.39H1.094l.61-1.672zm0 0"/></symbol><symbol overflow="visible" id="z"><path d="M.813-3.672l.015.563-.531-.188-.094.281.547.157-.344.453.25.187.313-.484.312.484.266-.187-.36-.453.547-.157-.093-.28-.547.187.031-.563zm0 0"/></symbol><symbol overflow="visible" id="C"><path d="M.938-1.578h1.218c.196 0 .344.055.438.156.101.106.156.274.156.5v.328c0 .117.008.227.031.328.02.106.047.196.078.266h.563v-.11a.906.906 0 0 1-.11-.093.795.795 0 0 1-.062-.14.623.623 0 0 1-.047-.204v-.312c0-.145-.012-.27-.031-.375a.757.757 0 0 0-.078-.266.404.404 0 0 0-.14-.172 1.055 1.055 0 0 0-.25-.14c.206-.102.35-.223.437-.36a.953.953 0 0 0 .14-.531c0-.313-.101-.55-.297-.719-.187-.164-.46-.25-.812-.25H.469V0h.469zm0-.422v-1.266h1.14c.125 0 .227.012.313.032a.607.607 0 0 1 .218.109c.125.105.188.273.188.5 0 .219-.063.383-.188.484-.117.094-.293.141-.53.141zm0 0"/></symbol><symbol overflow="visible" id="D"><path d="M2.406-3.578H.546L.282-1.625h.422a2.02 2.02 0 0 1 .14-.156.733.733 0 0 1 .157-.094.486.486 0 0 1 .156-.063.671.671 0 0 1 .203-.03.702.702 0 0 1 .547.234c.07.074.125.168.157.28.039.106.066.22.078.345a1.32 1.32 0 0 1-.079.359.956.956 0 0 1-.203.313c-.093.105-.261.156-.5.156a.787.787 0 0 1-.484-.14c-.117-.102-.2-.255-.25-.454H.172c.02.074.035.14.047.203A.78.78 0 0 0 .266-.5a.87.87 0 0 0 .125.188A.957.957 0 0 0 .797 0c.176.07.363.11.562.11.176 0 .336-.032.485-.094a.876.876 0 0 0 .39-.25c.114-.114.204-.25.266-.407.063-.156.094-.332.094-.53 0-.165-.031-.321-.094-.47a1.09 1.09 0 0 0-.234-.375.975.975 0 0 0-.375-.25 1.103 1.103 0 0 0-.813-.031c-.105.031-.21.086-.312.156l.156-1h1.484zm0 0"/></symbol><symbol overflow="visible" id="H"><path d="M2.922.64H-.11v.25h3.03zm0 0"/></symbol><symbol overflow="visible" id="I"><path d="M1.438-1.578H.234v.36h1.204zm0 0"/></symbol><symbol overflow="visible" id="J"><path d="M2.703-1.344H1.656V-2.39h-.36v1.047H.25V-1h1.047V.047h.36V-1h1.046zm0 0"/></symbol><symbol overflow="visible" id="K"><path d="M1.969-3.734c-.274 0-.516.046-.735.14-.21.094-.398.227-.562.39a1.692 1.692 0 0 0-.36.61 2.33 2.33 0 0 0-.124.781c0 .293.039.56.124.797.083.23.204.434.36.61.164.168.351.297.562.39.22.082.461.125.735.125.218 0 .422-.03.61-.093a1.488 1.488 0 0 0 .78-.579c.082-.113.149-.234.204-.359.062-.133.109-.27.14-.406.031-.145.047-.297.047-.453 0-.29-.047-.555-.14-.797a1.75 1.75 0 0 0-.36-.61 1.576 1.576 0 0 0-.563-.406 1.74 1.74 0 0 0-.718-.14zm0 .406c.195 0 .375.039.531.11.164.073.3.179.406.312.114.136.203.297.266.484.062.188.098.399.11.625-.012.23-.048.438-.11.625a1.45 1.45 0 0 1-.266.469 1.25 1.25 0 0 1-.422.297c-.156.074-.328.11-.515.11a1.227 1.227 0 0 1-.953-.406 1.383 1.383 0 0 1-.266-.485 1.962 1.962 0 0 1-.094-.625c0-.227.031-.43.094-.61a1.41 1.41 0 0 1 .266-.484 1.22 1.22 0 0 1 .406-.313c.164-.07.348-.11.547-.11zm0 0"/></symbol><symbol overflow="visible" id="L"><path d="M2.781-3.672v2.578a.961.961 0 0 1-.062.344.87.87 0 0 1-.25.297c-.125.105-.34.156-.64.156-.274 0-.493-.062-.657-.187a.779.779 0 0 1-.219-.25.754.754 0 0 1-.047-.36v-2.578H.422v2.578c0 .188.031.36.094.516.07.148.164.273.28.375.126.105.27.183.438.234.176.051.375.078.594.078.219 0 .414-.027.594-.078.176-.05.32-.129.437-.234a.952.952 0 0 0 .282-.375c.07-.156.109-.328.109-.516v-2.578zm0 0"/></symbol><symbol overflow="visible" id="M"><path d="M1.781-3.266h1.203v-.406H.11v.406h1.204V0h.468zm0 0"/></symbol><symbol overflow="visible" id="u"><path d="M1.984-1.031V0h.532v-1.031h.64v-.485h-.64v-2.78h-.391L.172-1.595v.563zm0-.485H.641L1.984-3.39zm0 0"/></symbol><symbol overflow="visible" id="v"><path d="M1.344-1.969h.062l.219-.015c.594.011.89.277.89.796 0 .274-.078.481-.234.625-.156.149-.375.227-.656.235-.293 0-.512-.07-.656-.219C.82-.703.742-.937.734-1.25h-.53c.007.18.023.328.046.453.031.117.07.219.125.313.113.21.273.367.484.468.207.102.457.157.75.157.22 0 .414-.032.594-.094.188-.063.344-.149.469-.266.125-.113.219-.254.281-.422.07-.164.11-.351.11-.562 0-.27-.06-.484-.172-.64-.118-.165-.297-.29-.547-.376.394-.164.594-.46.594-.89 0-.188-.032-.352-.094-.5a.843.843 0 0 0-.25-.36 1.229 1.229 0 0 0-.422-.234 1.471 1.471 0 0 0-.547-.094c-.43 0-.758.121-.984.36-.23.23-.352.574-.36 1.03h.531c0-.132.004-.238.016-.312.02-.082.05-.16.094-.234a.548.548 0 0 1 .265-.266.904.904 0 0 1 .454-.11c.238 0 .421.071.546.204.133.125.204.305.204.531a.703.703 0 0 1-.094.375.45.45 0 0 1-.25.203.45.45 0 0 1-.125.047 1.148 1.148 0 0 1-.188.031 3.235 3.235 0 0 1-.39.016zm0 0"/></symbol><symbol overflow="visible" id="w"><path d="M2.89-4.297H.673L.344-1.953h.5c.05-.07.101-.133.156-.188.063-.05.125-.093.188-.125a.685.685 0 0 1 .203-.062.968.968 0 0 1 .625.047c.113.043.207.11.28.203a.972.972 0 0 1 .188.328c.051.125.079.266.079.422 0 .156-.028.297-.079.422a1 1 0 0 1-.25.375c-.117.125-.32.195-.609.203-.242 0-.434-.055-.578-.172C.91-.625.813-.805.75-1.047H.219c.008.086.02.164.031.234.02.063.047.137.078.22a.798.798 0 0 0 .14.218c.126.168.286.293.485.375.207.094.438.14.688.14.207 0 .398-.038.578-.109a1.2 1.2 0 0 0 .469-.312c.132-.133.238-.297.312-.485.07-.195.11-.41.11-.64 0-.207-.04-.395-.11-.563a1.202 1.202 0 0 0-.281-.453 1.178 1.178 0 0 0-.438-.297 1.488 1.488 0 0 0-.984-.047c-.125.043-.25.11-.375.204l.172-1.204H2.89zm0 0"/></symbol><symbol overflow="visible" id="x"><path d="M3.063-.531H.813c0-.082.015-.16.046-.235C.9-.836.945-.91 1-.984c.063-.07.14-.141.234-.204.094-.07.207-.144.344-.218l.61-.328c.3-.164.523-.36.671-.579a1.207 1.207 0 0 0 .125-1.218 1.113 1.113 0 0 0-.28-.422 1.408 1.408 0 0 0-.438-.25 1.471 1.471 0 0 0-.547-.094c-.274 0-.512.047-.719.14-.2.095-.355.235-.469.423-.074.117-.125.23-.156.343a1.497 1.497 0 0 0-.063.297c0 .086-.007.18-.015.281h.547c0-.132.008-.25.031-.343a.669.669 0 0 1 .094-.25.704.704 0 0 1 .281-.313.96.96 0 0 1 .781-.047.89.89 0 0 1 .266.172.765.765 0 0 1 .187.25c.04.094.063.2.063.313 0 .355-.195.64-.578.86l-.563.312c-.218.125-.406.25-.562.375a1.828 1.828 0 0 0-.36.406 1.336 1.336 0 0 0-.203.469A3.08 3.08 0 0 0 .203 0h2.86zm0 0"/></symbol><symbol overflow="visible" id="A"><path d="M3.156-4.297H.281v.531H2.61c-.261.368-.484.704-.671 1.016a8.444 8.444 0 0 0-.844 1.781A9.83 9.83 0 0 0 .844 0h.562c.051-.344.125-.676.219-1 .102-.32.227-.64.375-.953a9.93 9.93 0 0 1 1.156-1.89zm0 0"/></symbol><symbol overflow="visible" id="y"><path d="M-3.063-1.563H0v-.546h-4.297v.359c.168.043.305.09.406.14a.787.787 0 0 1 .235.204c.054.074.101.172.14.297.032.125.059.289.079.484h.374zm0 0"/></symbol><symbol overflow="visible" id="B"><path d="M-2.266-2.375a2.232 2.232 0 0 0-.187-.266 1.07 1.07 0 0 0-.188-.171.716.716 0 0 0-.234-.11 1.214 1.214 0 0 0-.281-.031c-.164 0-.317.031-.453.094a.95.95 0 0 0-.36.265 1.23 1.23 0 0 0-.234.406 1.376 1.376 0 0 0-.094.516c0 .2.031.375.094.531.055.157.133.293.234.407a.911.911 0 0 0 .36.265c.136.063.289.094.453.094.105 0 .199-.008.281-.031A.822.822 0 0 0-2.656-.5a.691.691 0 0 0 .203-.172c.062-.082.125-.176.187-.281.243.492.602.734 1.079.734.199 0 .382-.031.546-.093.157-.07.297-.172.422-.297.117-.133.203-.29.266-.47a1.77 1.77 0 0 0 .094-.593c0-.207-.032-.398-.094-.578a1.275 1.275 0 0 0-.266-.453A1.502 1.502 0 0 0-.64-3a1.38 1.38 0 0 0-.546-.11c-.477 0-.836.247-1.079.735zm-1.562.703c.012-.226.078-.406.203-.531a.613.613 0 0 1 .484-.203c.211 0 .371.07.485.203.117.137.18.312.187.531-.008.23-.07.414-.187.547-.114.137-.274.203-.485.203-.207 0-.367-.066-.484-.203-.125-.133-.191-.316-.203-.547zm1.797 0c.011-.125.039-.238.078-.344a.691.691 0 0 1 .172-.296.748.748 0 0 1 .265-.188.847.847 0 0 1 .329-.063c.136 0 .257.024.359.063a.94.94 0 0 1 .328.25c.105.125.164.324.172.594 0 .136-.02.261-.063.375A.866.866 0 0 1-.562-1a.695.695 0 0 1-.266.172.923.923 0 0 1-.36.062.78.78 0 0 1-.328-.062.662.662 0 0 1-.265-.188.662.662 0 0 1-.172-.28 1.554 1.554 0 0 1-.078-.376zm0 0"/></symbol><symbol overflow="visible" id="E"><path d="M2.781 0l1.781-5.156H3.86L2.438-.796.921-5.157H.203L2.063 0zm0 0"/></symbol><symbol overflow="visible" id="F"><path d="M4.688-3.563c-.106-.562-.325-.984-.657-1.265-.324-.281-.765-.422-1.328-.422-.355 0-.672.059-.953.172-.273.105-.5.266-.688.484-.242.25-.421.555-.546.907a3.726 3.726 0 0 0-.172 1.171c0 .43.062.82.187 1.172.125.356.313.657.563.907.187.21.41.359.672.453.257.101.562.148.906.14C3.93.164 4.64-.516 4.797-1.89h-.688c-.03.18-.07.336-.109.47a1.695 1.695 0 0 1-.125.343 1.098 1.098 0 0 1-.469.5c-.21.105-.453.156-.734.156-.262 0-.496-.047-.703-.14a1.4 1.4 0 0 1-.516-.422 2.098 2.098 0 0 1-.344-.657A3.231 3.231 0 0 1 1-2.53c0-.32.035-.614.11-.875.07-.27.175-.492.312-.672a1.4 1.4 0 0 1 .516-.422 1.63 1.63 0 0 1 .687-.172c.207.012.398.047.578.11.176.054.32.125.438.218.093.094.164.203.218.328.063.118.114.266.157.454zm0 0"/></symbol><symbol overflow="visible" id="G"><path d="M1.297-2.344h2.812v-.594H1.297v-1.64h2.922v-.578H.64V0h3.703v-.578H1.297zm0 0"/></symbol><symbol overflow="visible" id="N"><path d="M-1.344-2.703v1.047H-2.39v.36h1.047V-.25H-1v-1.047H.047v-.36H-1v-1.046zm0 0"/></symbol><clipPath id="O"><path d="M234 104.16h2V199h-2zm0 0"/></clipPath><clipPath id="P"><path d="M234 104.16h224.46v.84H234zm0 0"/></clipPath><clipPath id="Q"><path d="M457 104.16h1.46V235H457zm0 0"/></clipPath><clipPath id="R"><path d="M436 233h22.46v2H436zm0 0"/></clipPath></defs><use xlink:href="#a" x="263.848" y="174.562" fill="gray"/><use xlink:href="#b" x="266.668" y="174.562" fill="gray"/><use xlink:href="#c" x="270.868" y="174.562" fill="gray"/><use xlink:href="#d" x="273.688" y="174.562" fill="gray"/><use xlink:href="#e" x="276.508" y="174.562" fill="gray"/><use xlink:href="#f" x="279.328" y="174.562" fill="gray"/><use xlink:href="#f" x="282.148" y="174.562" fill="gray"/><use xlink:href="#a" x="400.602" y="224.941" fill="gray"/><use xlink:href="#b" x="403.422" y="224.941" fill="gray"/><use xlink:href="#c" x="407.622" y="224.941" fill="gray"/><use xlink:href="#d" x="410.442" y="224.941" fill="gray"/><use xlink:href="#e" x="413.262" y="224.941" fill="gray"/><use xlink:href="#f" x="416.082" y="224.941" fill="gray"/><use xlink:href="#f" x="418.902" y="224.941" fill="gray"/><use xlink:href="#g" x="302.472" y="169.166" fill="gray"/><use xlink:href="#g" x="305.292" y="169.166" fill="gray"/><use xlink:href="#h" x="308.112" y="169.166" fill="gray"/><use xlink:href="#g" x="324.065" y="226.74" fill="gray"/><use xlink:href="#g" x="326.885" y="226.74" fill="gray"/><use xlink:href="#h" x="329.705" y="226.74" fill="gray"/><use xlink:href="#i" x="201.406" y="212.346" fill="gray"/><use xlink:href="#j" x="204.226" y="212.346" fill="gray"/><use xlink:href="#f" x="207.046" y="212.346" fill="gray"/><use xlink:href="#i" x="201.406" y="255.527" fill="gray"/><use xlink:href="#j" x="204.226" y="255.527" fill="gray"/><use xlink:href="#f" x="207.046" y="255.527" fill="gray"/><use xlink:href="#g" x="195.471" y="266.32" fill="gray"/><use xlink:href="#k" x="198.291" y="266.32" fill="gray"/><use xlink:href="#g" x="199.671" y="266.32" fill="gray"/><use xlink:href="#l" x="202.491" y="266.32" fill="gray"/><use xlink:href="#m" x="205.311" y="266.32" fill="gray"/><use xlink:href="#c" x="424.531" y="262.724" fill="gray"/><use xlink:href="#n" x="427.351" y="262.724" fill="gray"/><use xlink:href="#f" x="430.171" y="262.724" fill="gray"/><use xlink:href="#o" x="431.01" y="314.54" fill="gray"/><use xlink:href="#p" x="434.91" y="314.54" fill="gray"/><use xlink:href="#q" x="438.57" y="314.54" fill="gray"/><use xlink:href="#o" x="337.441" y="264.163" fill="gray"/><use xlink:href="#p" x="341.341" y="264.163" fill="gray"/><use xlink:href="#q" x="345.001" y="264.163" fill="gray"/><use xlink:href="#o" x="171.897" y="314.54" fill="gray"/><use xlink:href="#p" x="175.797" y="314.54" fill="gray"/><use xlink:href="#q" x="179.457" y="314.54" fill="gray"/><use xlink:href="#r" x="263.848" y="224.941" fill="gray"/><use xlink:href="#s" x="265.228" y="224.941" fill="gray"/><use xlink:href="#c" x="268.888" y="224.941" fill="gray"/><use xlink:href="#t" x="271.708" y="224.941" fill="gray"/><use xlink:href="#u" x="259.48" y="182.55" fill="gray"/><use xlink:href="#v" x="259.48" y="211.337" fill="gray"/><use xlink:href="#w" x="322.436" y="196.944" fill="gray"/><use xlink:href="#x" x="259.48" y="196.944" fill="gray"/><use xlink:href="#y" x="313.224" y="189.748" fill="gray"/><use xlink:href="#r" x="400.602" y="174.562" fill="gray"/><use xlink:href="#s" x="401.982" y="174.562" fill="gray"/><use xlink:href="#c" x="405.642" y="174.562" fill="gray"/><use xlink:href="#t" x="408.462" y="174.562" fill="gray"/><use xlink:href="#z" x="411.822" y="174.562" fill="gray"/><use xlink:href="#A" x="396.234" y="196.944" fill="gray"/><use xlink:href="#B" x="435.582" y="223.91" fill="gray"/><use xlink:href="#C" x="304.153" y="158.37" fill="gray"/><use xlink:href="#i" x="307.813" y="158.37" fill="gray"/><use xlink:href="#C" x="325.746" y="215.944" fill="gray"/><use xlink:href="#D" x="329.406" y="215.944" fill="gray"/><use xlink:href="#C" x="203.387" y="201.55" fill="gray"/><use xlink:href="#c" x="207.046" y="201.55" fill="gray"/><use xlink:href="#C" x="203.387" y="244.731" fill="gray"/><use xlink:href="#g" x="207.046" y="244.731" fill="gray"/><use xlink:href="#s" x="181.794" y="266.321" fill="gray"/><use xlink:href="#c" x="185.454" y="266.321" fill="gray"/><use xlink:href="#s" x="422.913" y="280.714" fill="gray"/><use xlink:href="#g" x="426.573" y="280.714" fill="gray"/><use xlink:href="#C" x="426.511" y="251.927" fill="gray"/><use xlink:href="#e" x="430.172" y="251.927" fill="gray"/><use xlink:href="#E" x="292.396" y="115.189" fill="gray"/><use xlink:href="#F" x="297.137" y="115.189" fill="gray"/><use xlink:href="#F" x="302.237" y="115.189" fill="gray"/><use xlink:href="#o" x="186.292" y="249.769" fill="gray"/><use xlink:href="#p" x="190.192" y="249.769" fill="gray"/><use xlink:href="#q" x="193.853" y="249.769" fill="gray"/><use xlink:href="#E" x="278.301" y="249.77" fill="gray"/><use xlink:href="#G" x="283.041" y="249.77" fill="gray"/><use xlink:href="#G" x="287.781" y="249.77" fill="gray"/><use xlink:href="#t" x="139.386" y="293.309" fill="gray"/><use xlink:href="#H" x="142.746" y="293.309" fill="gray"/><use xlink:href="#r" x="145.566" y="293.309" fill="gray"/><use xlink:href="#p" x="146.946" y="293.309" fill="gray"/><use xlink:href="#I" x="150.606" y="293.309" fill="gray"/><use xlink:href="#t" x="138.126" y="271.719" fill="gray"/><use xlink:href="#H" x="141.486" y="271.719" fill="gray"/><use xlink:href="#r" x="144.306" y="271.719" fill="gray"/><use xlink:href="#p" x="145.686" y="271.719" fill="gray"/><use xlink:href="#J" x="149.346" y="271.719" fill="gray"/><use xlink:href="#t" x="375.411" y="228.538" fill="gray"/><use xlink:href="#H" x="378.771" y="228.538" fill="gray"/><use xlink:href="#K" x="381.591" y="228.538" fill="gray"/><use xlink:href="#L" x="385.491" y="228.538" fill="gray"/><use xlink:href="#M" x="389.151" y="228.538" fill="gray"/><use xlink:href="#I" x="392.211" y="228.538" fill="gray"/><use xlink:href="#t" x="375.411" y="214.145" fill="gray"/><use xlink:href="#H" x="378.771" y="214.145" fill="gray"/><use xlink:href="#K" x="381.591" y="214.145" fill="gray"/><use xlink:href="#L" x="385.491" y="214.145" fill="gray"/><use xlink:href="#M" x="389.151" y="214.145" fill="gray"/><use xlink:href="#J" x="392.211" y="214.145" fill="gray"/><path d="M263.82 219.54v-43.2m0 0l43.2 21.601m0 0l-43.2 21.598" fill="none" stroke-width=".72" stroke-linecap="round" stroke-linejoin="round" stroke="maroon" stroke-miterlimit="10"/><path d="M267.422 214.14v-3.6m-1.801 1.8h3.598m-3.598-28.8h3.598m-12.539 0h7.14m-7.14 28.8h7.14m64.801-14.399h-7.2" fill="none" stroke-width=".48" stroke-linecap="round" stroke-linejoin="round" stroke="maroon" stroke-miterlimit="10"/><path d="M263.82 199.379h-.3m0 0l-.301-.117m0 0l-.239-.184m0 0l-.242-.238m0 0l-.18-.238m.001 0l-.118-.301m0-.001l-.062-.359m0 0l.062-.3m0-.001l.118-.3m0 0l.18-.3m-.001 0l.242-.24m0 0l.239-.12m0 0l.3-.121m.001 0l.3-.059m0 0l.36.059m0 0l.3.12m0 .001l.239.12m0 0l.242.24m-.001 0l.18.3m0 0l.122.3m0 0v.301m0 0v.36m0-.001l-.121.302m-.001 0l-.18.238m0 0l-.241.238m0 0l-.239.184m0 0l-.3.117m0 0h-.36m-.3 0h.66m-.84-.059h1.02m-1.141-.058h1.261m-1.378-.062h1.5m-1.622-.06h1.68m-1.738-.062h1.86m-1.922-.058h1.98m-2.04-.06h2.098m-2.16-.062h2.223m-2.281-.058h2.34m-2.34-.059h2.34m-2.399-.062h2.457m-2.519-.059h2.52m-2.52-.058h2.582m-2.641-.062h2.64m-2.64-.06h2.7m-2.7-.058h2.7m-2.759-.062h2.82m-2.82-.06h2.82m-2.82-.062h2.82m-2.82-.058h2.82m-2.82-.059h2.82m-2.82-.062h2.82m-2.82-.059h2.82m-2.82-.059h2.82m-2.82-.062h2.82m-2.82-.059h2.82m-2.82-.058h2.82m-2.82-.062h2.82m-2.82-.06h2.82m-2.761-.062h2.7m-2.7-.058h2.7m-2.7-.06h2.7m-2.641-.062h2.582m-2.582-.058h2.582m-2.52-.059h2.457m-2.457-.062h2.457m-2.398-.059h2.34m-2.282-.058h2.223m-2.223-.062h2.223m-2.161-.06h2.098m-2.038-.058h1.98m-1.918-.062h1.86m-1.742-.06h1.62m-1.5-.062h1.38m-1.321-.058h1.261m-1.082-.059h.903m-.661-.062h.419m-.239 12.179l-3.601-6.476m0 0h7.203m0 0l-3.602 6.476m0 0h.059m-.059-.058h.059m-.117-.059h.18m-.242-.062h.241m-.241-.059h.3m-.36-.059h.419m-.419-.062h.419m-.481-.059h.543m-.543-.058h.543m-.601-.062h.66m-.66-.06h.66m-.72-.062h.778m-.84-.058h.84m-.84-.06h.903m-.961-.062h1.02m-1.02-.058h1.02m-1.079-.059h1.14m-1.14-.062h1.14m-1.202-.059h1.261m-1.261-.058h1.261m-1.32-.062h1.38m-1.438-.06h1.437m-1.437-.058h1.5m-1.562-.062h1.62m-1.62-.06h1.62m-1.68-.062h1.739m-1.739-.058h1.739m-1.797-.059h1.86m-1.86-.062h1.86M262.86 207h1.98m-2.04-.059h2.04m-2.04-.062h2.098m-2.16-.059h2.223m-2.223-.058h2.223m-2.281-.062h2.34m-2.34-.06h2.34m-2.399-.062h2.457m-2.457-.058h2.457m-2.519-.06h2.582m-2.641-.062h2.64m-2.64-.058h2.7m-2.759-.059h2.82m-2.82-.062h2.82m-2.882-.059h2.941m-2.941-.058h2.941m-3-.062h3.059m-3.059-.06h3.059m-3.117-.058h3.18m-3.242-.062h3.241m-3.241-.06h3.3m-3.36-.062h3.419m-3.419-.058h3.419m-3.481-.059h3.543m-3.543-.062h3.543m-3.601-.059h3.66m-3.66-.059h3.66m-3.72-.062h3.778m-3.84-.059h3.84m-3.84-.058h3.903m-3.961-.062h4.02m-4.02-.06h4.02m-4.079-.062h4.14m-4.14-.058h4.14m-4.202-.06h4.261m-4.261-.062h4.261m-4.32-.058h4.38m-4.438-.059h4.437m-4.437-.062h4.5m-4.562-.059h4.62m-4.62-.058h4.62m-4.68-.062h4.739m-4.739-.06h4.739m-4.797-.058h4.86m-4.86-.062h4.86m-4.922-.06h4.98m-5.04-.062h5.04m-5.04-.058h5.098m-5.16-.059h5.223m-5.223-.062h5.223M261.18 204h5.34m-5.34-.059h5.34m-5.399-.062h5.457m-5.457-.059h5.457m-5.519-.058h5.582M261 203.7h5.64m-5.64-.06h5.7m-5.759-.062h5.82m-5.82-.058h5.82m-5.882-.06h5.941m-5.941-.062h5.941m-6-.058h6.059m-6.059-.059h6.059m-6.117-.062h6.18m-6.242-.059h6.241m-6.241-.058h6.3m-6.36-.062h6.419m-6.419-.06h6.419m-6.481-.058h6.543m-6.543-.062h6.543m-6.601-.06h6.66m-6.66-.062h6.66m-6.72-.058h6.778m-6.84-.059h6.84m-6.84-.062h6.903m-6.961-.059h7.02m-7.02-.059h7.02m-7.079-.062h7.14m-7.14-.059h7.14" fill="none" stroke-width=".12" stroke-linecap="round" stroke-linejoin="round" stroke="maroon" stroke-miterlimit="10"/><path d="M260.219 208.738h7.203" fill="none" stroke-width=".72" stroke-linecap="round" stroke-linejoin="round" stroke="maroon" stroke-miterlimit="10"/><path d="M263.82 187.14l3.602 6.481m0 0h-7.203m0 0l3.601-6.48m-3.539 6.48h7.14m-7.14-.062h7.14m-7.081-.059h7.02m-6.962-.059h6.903m-6.903-.062h6.903m-6.841-.059h6.778m-6.778-.058h6.778m-6.718-.062h6.66m-6.66-.06h6.66m-6.602-.062h6.543m-6.543-.058h6.543m-6.481-.06h6.419m-6.359-.062h6.3m-6.3-.058h6.3m-6.238-.059h6.18m-6.18-.062h6.18m-6.122-.059h6.059m-6.059-.058h6.059m-6-.062h5.941m-5.941-.06h5.941m-5.879-.058h5.82M261 192.36h5.7m-5.7-.06h5.7m-5.641-.062h5.582m-5.582-.058h5.582m-5.52-.059h5.457m-5.457-.062h5.457M261.18 192h5.34m-5.34-.059h5.34m-5.282-.062h5.223m-5.161-.059h5.098m-5.098-.058h5.098m-5.038-.062h4.98m-4.98-.06h4.98m-4.918-.062h4.86m-4.86-.058h4.86m-4.802-.06h4.739m-4.739-.062h4.739m-4.679-.058h4.62m-4.558-.059h4.5m-4.5-.062h4.5m-4.442-.059h4.38m-4.38-.058h4.38m-4.321-.062h4.261m-4.261-.06h4.261m-4.199-.058h4.14m-4.14-.062h4.14m-4.081-.06h4.02m-3.962-.062h3.903m-3.903-.058h3.903m-3.841-.059h3.778m-3.778-.062h3.778m-3.718-.059h3.66m-3.66-.059h3.66m-3.602-.062h3.543m-3.543-.059h3.543m-3.481-.058h3.419m-3.359-.062h3.3m-3.3-.06h3.3m-3.238-.062h3.18m-3.18-.058h3.18m-3.122-.06h3.059m-3.059-.062h3.059m-3-.058h2.941m-2.941-.059h2.941m-2.879-.062h2.82m-2.761-.059h2.7m-2.7-.058h2.7m-2.641-.062h2.582m-2.582-.06h2.582m-2.52-.058h2.457m-2.457-.062h2.457m-2.398-.06h2.34m-2.34-.062h2.34m-2.282-.058h2.223m-2.161-.059h2.098m-2.098-.062h2.098M262.86 189h1.98m-1.98-.059h1.98m-1.918-.062h1.86m-1.86-.059h1.86m-1.802-.058h1.739m-1.739-.062h1.739m-1.679-.06h1.62m-1.558-.062h1.5m-1.5-.058h1.5m-1.442-.06h1.38m-1.38-.062h1.38m-1.321-.058h1.261m-1.261-.059h1.261m-1.199-.062h1.14m-1.14-.059h1.14m-1.081-.058h1.02m-.962-.062h.903m-.903-.06h.903m-.841-.058h.778m-.778-.062h.778m-.718-.06h.66m-.66-.062h.66m-.602-.058h.543m-.543-.059h.543m-.481-.062h.419m-.359-.059h.3m-.3-.059h.3m-.238-.062h.18m-.18-.059h.18m-.122-.058h.059m-.059-.062h.059" fill="none" stroke-width=".12" stroke-linecap="round" stroke-linejoin="round" stroke="maroon" stroke-miterlimit="10"/><path d="M267.422 187.14h-7.203" fill="none" stroke-width=".72" stroke-linecap="round" stroke-linejoin="round" stroke="maroon" stroke-miterlimit="10"/><path d="M256.68 197.941h7.14" fill="none" stroke-width=".48" stroke-linecap="round" stroke-linejoin="round" stroke="maroon" stroke-miterlimit="10"/><path d="M317.219 197.941a5.1 5.1 0 1 1-10.2-.004 5.1 5.1 0 0 1 10.2.004zm0 0" fill="none" stroke-width=".72" stroke-linecap="round" stroke-linejoin="round" stroke="maroon" stroke-miterlimit="10"/><path d="M321.422 197.941a5.1 5.1 0 0 1-5.102 5.098 5.1 5.1 0 1 1 0-10.2 5.1 5.1 0 0 1 5.102 5.102zm0 0" fill="none" stroke-width=".72" stroke-linecap="round" stroke-linejoin="round" stroke="maroon" stroke-miterlimit="10"/><path d="M314.219 183.54v7.198m0 0v2.524m108-2.524h-3.598m0 0l-7.02 3.543m3.958 7.559l1.441 2.52m0 0l-2.879.359m0 0l1.438-2.88m3.062 3.301l-1.621-.78m0 0l-4.738-2.4" fill="none" stroke-width=".48" stroke-linecap="round" stroke-linejoin="round" stroke="maroon" stroke-miterlimit="10"/><path d="M414.84 204.36l1.62-.18m0 0l-.901-1.621" fill="none" stroke-width=".9" stroke-linecap="round" stroke-linejoin="round" stroke="maroon" stroke-miterlimit="10"/><path d="M415.559 202.559l-.72 1.441m.001 0h1.082m0 0l-.363-.719" fill="none" stroke-width=".72" stroke-linecap="round" stroke-linejoin="round" stroke="maroon" stroke-miterlimit="10"/><path d="M409.98 205.14h2.16v-14.402h-2.16zm0 0" fill="maroon" stroke-width=".12" stroke-linecap="round" stroke-linejoin="round" stroke="maroon" stroke-miterlimit="10"/><path d="M393.422 197.941h7.2m35.999 28.797v-7.199m0-21.598h-3.601m0 0l-7.02 3.54m3.96 7.559l1.438 2.519m0 0l-2.878.363m0 0l1.44-2.883m3.06 3.301l-1.622-.781m0 0l-4.738-2.399" fill="none" stroke-width=".48" stroke-linecap="round" stroke-linejoin="round" stroke="maroon" stroke-miterlimit="10"/><path d="M429.238 211.559l1.621-.18m.001 0l-.9-1.617" fill="none" stroke-width=".9" stroke-linecap="round" stroke-linejoin="round" stroke="maroon" stroke-miterlimit="10"/><path d="M429.96 209.762l-.722 1.437m0 .001h1.082m0 0l-.36-.72" fill="none" stroke-width=".72" stroke-linecap="round" stroke-linejoin="round" stroke="maroon" stroke-miterlimit="10"/><path d="M424.379 212.34h2.16v-14.4h-2.16zm0 0" fill="maroon" stroke-width=".12" stroke-linecap="round" stroke-linejoin="round" stroke="maroon" stroke-miterlimit="10"/><path d="M418.621 205.14h7.2" fill="none" stroke-width=".48" stroke-linecap="round" stroke-linejoin="round" stroke="maroon" stroke-miterlimit="10"/><path d="M422.219 191.46h-.239m0 0l-.12-.062m0 0l-.18-.117m0 0l-.121-.18m0 .001l-.059-.18m0 0v-.184m0 0v-.18m0 .001l.059-.18m0 0l.12-.117m.001 0l.18-.121m0-.001l.12-.062m0 0l.239-.058m0 0l.18.058m-.001 0l.18.063m0-.001l.121.122m.001 0l.12.117m0 0l.059.18m0 0l.062.18m0-.001l-.062.184m0 0l-.059.18m0 0l-.12.18m0-.001l-.122.117m0 0l-.18.063m0-.001h-.18m-.296-.062h.539m-.902-.238h1.261m-1.32-.3h1.379m-1.379-.239h1.379m-1.258-.301h1.14m-.721-.242h.3" fill="none" stroke-width=".36" stroke-linecap="round" stroke-linejoin="round" stroke="maroon" stroke-miterlimit="10"/><path d="M422.219 190.738h14.402m0 0v7.203m-12.242-14.401a2.16 2.16 0 1 1-4.321 0 2.16 2.16 0 0 1 4.32 0zm0 0" fill="none" stroke-width=".48" stroke-linecap="round" stroke-linejoin="round" stroke="maroon" stroke-miterlimit="10"/><path d="M423.66 183.54h-2.879m1.438-1.438v2.878" fill="none" stroke-width=".36" stroke-linecap="round" stroke-linejoin="round" stroke="maroon" stroke-miterlimit="10"/><path d="M422.219 185.7v5.038" fill="none" stroke-width=".48" stroke-linecap="round" stroke-linejoin="round" stroke="maroon" stroke-miterlimit="10"/><path d="M400.621 176.34h2.879m2.879 0h2.883m2.816 0h2.942m2.82 0h2.941m2.821 0h2.937m2.821 0h2.94m2.821 0h2.938m2.82 0h2.883m0 43.2h-2.883m-2.82 0h-2.938m-2.821 0h-2.94m-2.82 0h-2.938m-2.821 0h-2.941m-2.82 0h-2.942m-2.816 0h-2.883m-2.879 0h-2.879" fill="none" stroke-width=".72" stroke-linecap="round" stroke-linejoin="round" stroke="maroon" stroke-miterlimit="10"/><path d="M393.422 197.941h18m21.598 14.399h3.601m0 0v14.398" fill="none" stroke-width=".48" stroke-linecap="round" stroke-linejoin="round" stroke="maroon" stroke-miterlimit="10"/><path d="M443.762 176.34v2.941m0 2.821v2.937m0 2.821v2.94m0 2.821v2.938m0 2.82v2.883m0 2.878v2.88m0 2.878v2.883m0 2.821v2.937m-43.141-43.199v2.941m0 2.821v2.937m0 2.821v2.94m0 2.821v2.938m0 2.82v2.883m0 2.878v2.88m0 2.878v2.883m0 2.821v2.937" fill="none" stroke-width=".72" stroke-linecap="round" stroke-linejoin="round" stroke="maroon" stroke-miterlimit="10"/><path d="M314.219 147.602v7.199m0 21.539v-7.2" fill="none" stroke-width=".48" stroke-linecap="round" stroke-linejoin="round" stroke="maroon" stroke-miterlimit="10"/><path d="M316.738 169.14V154.8m-5.038 0v14.34m5.038-14.34H311.7m5.038 14.34H311.7" fill="none" stroke-width=".72" stroke-linecap="round" stroke-linejoin="round" stroke="maroon" stroke-miterlimit="10"/><path d="M335.82 205.14v7.2m0 21.601v-7.203" fill="none" stroke-width=".48" stroke-linecap="round" stroke-linejoin="round" stroke="maroon" stroke-miterlimit="10"/><path d="M338.34 226.738V212.34m-5.04 0v14.398m5.04-14.398h-5.04m5.04 14.398h-5.04" fill="none" stroke-width=".72" stroke-linecap="round" stroke-linejoin="round" stroke="maroon" stroke-miterlimit="10"/><path d="M213.48 190.738v7.203m0 21.599v-7.2" fill="none" stroke-width=".48" stroke-linecap="round" stroke-linejoin="round" stroke="maroon" stroke-miterlimit="10"/><path d="M216 212.34v-14.4m-5.04.001v14.399m5.04-14.399h-5.04M216 212.34h-5.04" fill="none" stroke-width=".72" stroke-linecap="round" stroke-linejoin="round" stroke="maroon" stroke-miterlimit="10"/><path d="M213.48 233.941v7.2m0 21.597v-7.199" fill="none" stroke-width=".48" stroke-linecap="round" stroke-linejoin="round" stroke="maroon" stroke-miterlimit="10"/><path d="M216 255.54v-14.4m-5.04 0v14.4m5.04-14.4h-5.04m5.04 14.4h-5.04" fill="none" stroke-width=".72" stroke-linecap="round" stroke-linejoin="round" stroke="maroon" stroke-miterlimit="10"/><use xlink:href="#J" x="185.334" y="276.218" fill="maroon"/><path d="M199.078 269.941h-5.039m-9.359 0h4.68" fill="none" stroke-width=".48" stroke-linecap="round" stroke-linejoin="round" stroke="maroon" stroke-miterlimit="10"/><path d="M192.602 275.7h1.796v-11.52h-1.796zm0 0" fill="maroon" stroke-width=".12" stroke-linecap="round" stroke-linejoin="round" stroke="maroon" stroke-miterlimit="10"/><path d="M189.36 275.52h1.8m0 0v-11.16m0 0h-1.8m0 0v5.581m0 0v5.579" fill="none" stroke-width=".36" stroke-linecap="round" stroke-linejoin="round" stroke="maroon" stroke-miterlimit="10"/><use xlink:href="#N" x="433.891" y="280.714" fill="maroon"/><path d="M436.621 291.48v-4.98m0-9.36v4.68" fill="none" stroke-width=".48" stroke-linecap="round" stroke-linejoin="round" stroke="maroon" stroke-miterlimit="10"/><path d="M430.86 286.86h11.519v-1.801h-11.52zm0 0" fill="maroon" stroke-width=".12" stroke-linecap="round" stroke-linejoin="round" stroke="maroon" stroke-miterlimit="10"/><path d="M431.04 281.82v1.801m0 0h11.1m0 0v-1.8m0-.001h-5.519m0 0h-5.582" fill="none" stroke-width=".36" stroke-linecap="round" stroke-linejoin="round" stroke="maroon" stroke-miterlimit="10"/><path d="M436.621 241.14v7.2m0 21.601v-7.203" fill="none" stroke-width=".48" stroke-linecap="round" stroke-linejoin="round" stroke="maroon" stroke-miterlimit="10"/><path d="M439.078 262.738V248.34m-4.976 0v14.398m4.976-14.398h-4.976m4.976 14.398h-4.976m-2.161 43.141h9.297" fill="none" stroke-width=".72" stroke-linecap="round" stroke-linejoin="round" stroke="maroon" stroke-miterlimit="10"/><path d="M436.621 298.68v7.199" fill="none" stroke-width=".48" stroke-linecap="round" stroke-linejoin="round" stroke="maroon" stroke-miterlimit="10"/><path d="M433.738 307.32h5.703m-3.901 1.442h2.1m-99.3-53.222h9.36" fill="none" stroke-width=".72" stroke-linecap="round" stroke-linejoin="round" stroke="maroon" stroke-miterlimit="10"/><path d="M343.02 248.34v7.2" fill="none" stroke-width=".48" stroke-linecap="round" stroke-linejoin="round" stroke="maroon" stroke-miterlimit="10"/><path d="M340.14 256.98h5.758m-3.957 1.442h2.16" fill="none" stroke-width=".72" stroke-linecap="round" stroke-linejoin="round" stroke="maroon" stroke-miterlimit="10"/><path d="M285.422 179.941v7.2m0 28.8v-7.203m1.5-25.198h3.058m-1.5-1.5v3.062m-1.558 27.238h3.058" fill="none" stroke-width=".48" stroke-linecap="round" stroke-linejoin="round" stroke="maroon" stroke-miterlimit="10"/><path d="M303.422 124.2l-3.602-5.4m0 0l-3.601 5.4" fill="none" stroke-width=".72" stroke-linecap="round" stroke-linejoin="round" stroke="maroon" stroke-miterlimit="10"/><path d="M299.82 126v-7.2" fill="none" stroke-width=".48" stroke-linecap="round" stroke-linejoin="round" stroke="maroon" stroke-miterlimit="10"/><path d="M187.2 241.14h9.359" fill="none" stroke-width=".72" stroke-linecap="round" stroke-linejoin="round" stroke="maroon" stroke-miterlimit="10"/><path d="M191.879 233.941v7.2" fill="none" stroke-width=".48" stroke-linecap="round" stroke-linejoin="round" stroke="maroon" stroke-miterlimit="10"/><path d="M189 242.578h5.762m-3.962 1.442h2.16m88.86-8.282l3.602 5.403m0-.001l3.598-5.402" fill="none" stroke-width=".72" stroke-linecap="round" stroke-linejoin="round" stroke="maroon" stroke-miterlimit="10"/><path d="M285.422 233.941v7.2" fill="none" stroke-width=".48" stroke-linecap="round" stroke-linejoin="round" stroke="maroon" stroke-miterlimit="10"/><path d="M170.281 291.48h-7.203m0 0a3.6 3.6 0 1 1-3.598-3.602 3.6 3.6 0 0 1 3.598 3.602zm7.203-21.539h-7.203m0 0a3.6 3.6 0 1 1-3.598-3.602 3.6 3.6 0 0 1 3.598 3.602zm9.722 35.938h9.36" fill="none" stroke-width=".72" stroke-linecap="round" stroke-linejoin="round" stroke="maroon" stroke-miterlimit="10"/><path d="M177.48 298.68v7.199" fill="none" stroke-width=".48" stroke-linecap="round" stroke-linejoin="round" stroke="maroon" stroke-miterlimit="10"/><path d="M174.602 307.32h5.757m-3.961 1.442h2.16m178.864-82.024h7.2m7.198 0zm-14.398-14.398h7.2m7.198 0a3.6 3.6 0 1 1-7.2 0 3.6 3.6 0 1 1 7.2 0zm0 0" fill="none" stroke-width=".72" stroke-linecap="round" stroke-linejoin="round" stroke="maroon" stroke-miterlimit="10"/><path d="M314.219 176.34v7.2m-115.141 86.401h14.402m0 0v-7.203m0-72v-7.199m0 .001h43.2m0 14.401h-21.602" fill="none" stroke-width=".48" stroke-linecap="round" stroke-linejoin="round" stroke="green" stroke-miterlimit="10"/><g clip-path="url(#O)"><path d="M235.078 197.941v-93.543" fill="none" stroke-width=".48" stroke-linecap="round" stroke-linejoin="round" stroke="green" stroke-miterlimit="10"/></g><g clip-path="url(#P)"><path d="M235.078 104.398H458.16" fill="none" stroke-width=".48" stroke-linecap="round" stroke-linejoin="round" stroke="green" stroke-miterlimit="10"/></g><g clip-path="url(#Q)"><path d="M458.16 104.398v129.543" fill="none" stroke-width=".48" stroke-linecap="round" stroke-linejoin="round" stroke="green" stroke-miterlimit="10"/></g><g clip-path="url(#R)"><path d="M458.16 233.941h-21.539" fill="none" stroke-width=".48" stroke-linecap="round" stroke-linejoin="round" stroke="green" stroke-miterlimit="10"/></g><path d="M436.621 233.941v-7.203m0 14.402v-7.199" fill="none" stroke-width=".48" stroke-linecap="round" stroke-linejoin="round" stroke="green" stroke-miterlimit="10"/><path d="M438.059 233.941a1.439 1.439 0 1 1-2.878-.002 1.439 1.439 0 0 1 2.878.002" fill-rule="evenodd" fill="green"/><path d="M438.059 233.941a1.439 1.439 0 1 1-2.878-.002 1.439 1.439 0 0 1 2.878.002zm0 0" fill="none" stroke-width=".12" stroke-linecap="round" stroke-linejoin="round" stroke="green" stroke-miterlimit="10"/><path d="M436.621 298.68v-7.2M335.82 233.941v7.2m0-.001h7.2m0 0v7.2m14.402-21.602h-7.203m0 0v14.403m0-.001h-7.2" fill="none" stroke-width=".48" stroke-linecap="round" stroke-linejoin="round" stroke="green" stroke-miterlimit="10"/><path d="M344.46 241.14a1.442 1.442 0 0 1-2.883 0c.001-.796.65-1.44 1.443-1.44a1.44 1.44 0 0 1 1.44 1.44" fill-rule="evenodd" fill="green"/><path d="M344.46 241.14a1.442 1.442 0 0 1-2.883 0c.001-.796.65-1.44 1.443-1.44a1.44 1.44 0 0 1 1.44 1.44zm0 0" fill="none" stroke-width=".12" stroke-linecap="round" stroke-linejoin="round" stroke="green" stroke-miterlimit="10"/><path d="M213.48 233.941v-7.203m0 0v-7.199m0 7.199h21.598m0 0V212.34" fill="none" stroke-width=".48" stroke-linecap="round" stroke-linejoin="round" stroke="green" stroke-miterlimit="10"/><path d="M214.922 226.738c0 .797-.649 1.442-1.442 1.442a1.44 1.44 0 1 1 1.442-1.442" fill-rule="evenodd" fill="green"/><path d="M214.922 226.738c0 .797-.649 1.442-1.442 1.442a1.44 1.44 0 1 1 1.442-1.442zm0 0" fill="none" stroke-width=".12" stroke-linecap="round" stroke-linejoin="round" stroke="green" stroke-miterlimit="10"/><path d="M235.078 212.34h21.602m-43.2 14.398h-21.6m-.001 0v7.203M177.48 298.68v-7.2m0 0h-7.199m266.34-14.34v-7.199m-108-72h7.2m-.001 0v7.2m0-7.2h14.399" fill="none" stroke-width=".48" stroke-linecap="round" stroke-linejoin="round" stroke="green" stroke-miterlimit="10"/><path d="M337.262 197.941a1.442 1.442 0 0 1-2.883 0 1.44 1.44 0 1 1 2.883 0" fill-rule="evenodd" fill="green"/><path d="M337.262 197.941a1.442 1.442 0 0 1-2.883 0 1.44 1.44 0 1 1 2.883 0zm0 0" fill="none" stroke-width=".12" stroke-linecap="round" stroke-linejoin="round" stroke="green" stroke-miterlimit="10"/><path d="M350.219 197.941h43.203m-36 14.399h-7.203m0 0v-14.4" fill="none" stroke-width=".48" stroke-linecap="round" stroke-linejoin="round" stroke="green" stroke-miterlimit="10"/><path d="M351.66 197.941a1.44 1.44 0 1 1-2.879-.004 1.44 1.44 0 0 1 2.88.004" fill-rule="evenodd" fill="green"/><path d="M351.66 197.941a1.44 1.44 0 1 1-2.879-.004 1.44 1.44 0 0 1 2.88.004zm0 0" fill="none" stroke-width=".12" stroke-linecap="round" stroke-linejoin="round" stroke="green" stroke-miterlimit="10"/><path d="M299.82 126v14.398m0 0h14.399m0 0v7.204m-28.797 32.339v-39.543m0 0h14.398" fill="none" stroke-width=".48" stroke-linecap="round" stroke-linejoin="round" stroke="green" stroke-miterlimit="10"/><path d="M301.262 140.398c0 .797-.649 1.442-1.442 1.442a1.44 1.44 0 1 1 1.442-1.442" fill-rule="evenodd" fill="green"/><path d="M301.262 140.398c0 .797-.649 1.442-1.442 1.442a1.44 1.44 0 1 1 1.442-1.442zm0 0" fill="none" stroke-width=".12" stroke-linecap="round" stroke-linejoin="round" stroke="green" stroke-miterlimit="10"/><path d="M285.422 233.941v-18m-115.141 54h14.399" fill="none" stroke-width=".48" stroke-linecap="round" stroke-linejoin="round" stroke="green" stroke-miterlimit="10"/></svg>