<svg xmlns="http://www.w3.org/2000/svg" xmlns:xlink="http://www.w3.org/1999/xlink" width="842pt" height="595pt" viewBox="0 0 842 595"><defs><symbol overflow="visible" id="a"><path d="M.688-2.922h-.36V0h1.813v-.328H.687zm0 0"/></symbol><symbol overflow="visible" id="b"><path d="M1.875 0l.828-2.453V0h.36v-2.922H2.53L1.687-.375.813-2.922H.297V0h.36v-2.453L1.483 0zm0 0"/></symbol><symbol overflow="visible" id="c"><path d="M1.047-2.031V0h.344v-2.844h-.235a2.245 2.245 0 0 1-.093.266.452.452 0 0 1-.329.25 1.688 1.688 0 0 1-.328.047v.25zm0 0"/></symbol><symbol overflow="visible" id="d"><path d="M.89-1.313h.188c.395 0 .594.172.594.516 0 .188-.055.336-.156.438-.106.093-.25.14-.438.14-.187 0-.336-.047-.437-.14C.547-.461.492-.617.484-.83H.125c.008.118.023.216.047.298.02.086.047.152.078.203A.69.69 0 0 0 .563 0c.132.063.3.094.5.094.144 0 .273-.024.39-.063a.863.863 0 0 0 .313-.172.846.846 0 0 0 .187-.28.907.907 0 0 0 .078-.376.658.658 0 0 0-.484-.672c.27-.101.406-.3.406-.593a1.124 1.124 0 0 0-.078-.329.54.54 0 0 0-.156-.234.659.659 0 0 0-.282-.156 1.034 1.034 0 0 0-.359-.063c-.293 0-.512.078-.656.235-.149.156-.227.386-.234.687h.359c0-.094.004-.164.015-.219a.427.427 0 0 1 .047-.14.422.422 0 0 1 .172-.188.68.68 0 0 1 .297-.062c.164 0 .29.043.375.125a.559.559 0 0 1 .14.36.572.572 0 0 1-.077.233.307.307 0 0 1-.157.141.88.88 0 0 1-.093.031.4.4 0 0 1-.125.032H.89zm0 0"/></symbol><symbol overflow="visible" id="e"><path d="M2-2.11a.956.956 0 0 0-.11-.296.702.702 0 0 0-.171-.235.54.54 0 0 0-.235-.156.931.931 0 0 0-.734.063 1.124 1.124 0 0 0-.328.296 1.3 1.3 0 0 0-.172.422 3.131 3.131 0 0 0-.078.719c0 .117.004.227.016.328.007.106.019.2.03.281.02.086.048.165.079.235.031.062.066.125.11.187A.815.815 0 0 0 .703 0a.93.93 0 0 0 .422.094A.934.934 0 0 0 1.5.016a.803.803 0 0 0 .484-.484 1.03 1.03 0 0 0 .079-.391.823.823 0 0 0-.079-.36 1.056 1.056 0 0 0-.171-.297.713.713 0 0 0-.282-.187.978.978 0 0 0-.343-.063c-.282 0-.5.106-.657.313 0-.344.051-.61.156-.797a.535.535 0 0 1 .485-.281c.125 0 .226.039.312.11a.53.53 0 0 1 .157.312zm-.86.657c.176 0 .301.043.376.125a.77.77 0 0 1 .14.234.634.634 0 0 1 .047.25.62.62 0 0 1-.047.25.837.837 0 0 1-.125.203.606.606 0 0 1-.187.125.456.456 0 0 1-.203.047.57.57 0 0 1-.235-.047A.527.527 0 0 1 .72-.39a.731.731 0 0 1-.125-.203.971.971 0 0 1-.031-.265c0-.082.007-.16.03-.235a.584.584 0 0 1 .547-.36zm0 0"/></symbol><symbol overflow="visible" id="f"><path d="M1.11-2.844a.907.907 0 0 0-.376.078.689.689 0 0 0-.28.235 1.39 1.39 0 0 0-.22.484 3.072 3.072 0 0 0-.062.672c0 .48.078.844.234 1.094.156.25.39.375.703.375.301 0 .532-.117.688-.36.156-.25.234-.613.234-1.093 0-.27-.027-.5-.078-.688a1.459 1.459 0 0 0-.187-.484.897.897 0 0 0-.297-.235.889.889 0 0 0-.36-.078zm0 .313c.374 0 .562.383.562 1.14 0 .407-.047.711-.14.907a.464.464 0 0 1-.438.28C.719-.203.53-.593.53-1.374c0-.383.047-.672.14-.86.095-.195.24-.296.438-.296zm0 0"/></symbol><symbol overflow="visible" id="g"><path d="M2.031-.344h-1.5A.433.433 0 0 1 .578-.5c.02-.05.05-.098.094-.14a.688.688 0 0 1 .156-.141 2.3 2.3 0 0 1 .219-.156l.406-.22c.195-.1.344-.226.438-.374a.824.824 0 0 0 .156-.485.75.75 0 0 0-.078-.328.933.933 0 0 0-.188-.281.834.834 0 0 0-.281-.156 1.034 1.034 0 0 0-.36-.063 1.14 1.14 0 0 0-.484.094.726.726 0 0 0-.297.266 1.15 1.15 0 0 0-.156.438v.187h.36c0-.094.003-.172.015-.235a.456.456 0 0 1 .063-.172.397.397 0 0 1 .187-.187.613.613 0 0 1 .297-.078.48.48 0 0 1 .219.047.49.49 0 0 1 .297.265.487.487 0 0 1 .046.219c0 .23-.125.418-.375.563l-.375.203a2.966 2.966 0 0 0-.375.25 1.214 1.214 0 0 0-.25.265c-.054.094-.093.2-.124.313A1.57 1.57 0 0 0 .14 0h1.89zm0 0"/></symbol><symbol overflow="visible" id="h"><path d="M.563-2.922h-.33V0h.329v-.813L.89-1.14 1.609 0h.407l-.86-1.375.735-.734h-.438l-.89.89zm0 0"/></symbol><symbol overflow="visible" id="i"><path d="M1.313-.688V0h.359v-.688h.422V-1h-.422v-1.844h-.266L.11-1.063v.375zm0-.312H.421l.89-1.25zm0 0"/></symbol><symbol overflow="visible" id="j"><path d="M2.094-2.844H.188v.344h1.53a13.25 13.25 0 0 0-.437.672c-.125.21-.234.414-.328.61a7.452 7.452 0 0 0-.234.577A4.926 4.926 0 0 0 .563 0h.375c.03-.227.078-.445.14-.656a6.393 6.393 0 0 1 .578-1.266 5.9 5.9 0 0 1 .438-.625zm0 0"/></symbol><symbol overflow="visible" id="k"><path d="M.766-.422H.344V0h.422zm0 0"/></symbol><symbol overflow="visible" id="l"><path d="M1.938 0v-2.11h-.329v1.204a1.429 1.429 0 0 1-.062.297.577.577 0 0 1-.11.218.404.404 0 0 1-.171.141.598.598 0 0 1-.235.047.47.47 0 0 1-.328-.11.395.395 0 0 1-.11-.296v-1.5H.267v1.625c0 .093.015.18.046.25.032.062.07.12.126.172a.526.526 0 0 0 .218.109.786.786 0 0 0 .485.015.534.534 0 0 0 .17-.062.985.985 0 0 0 .172-.11c.051-.05.102-.113.157-.187V0zm0 0"/></symbol><symbol overflow="visible" id="m"><path d="M.734-1.328h1.391v-.328H.735v-.938h1.593v-.328H.36V0h.375zm0 0"/></symbol><symbol overflow="visible" id="n"><path d="M1.578-1.5c.063-.04.117-.082.172-.125a.63.63 0 0 0 .125-.125.486.486 0 0 0 .063-.156c.007-.051.015-.114.015-.188a.702.702 0 0 0-.234-.531.675.675 0 0 0-.266-.156 1.002 1.002 0 0 0-.703 0 .624.624 0 0 0-.266.156.71.71 0 0 0-.234.531.85.85 0 0 0 .016.188.41.41 0 0 0 .062.156.54.54 0 0 0 .125.125c.05.043.113.086.188.125-.336.156-.496.39-.485.703 0 .137.02.262.063.375.039.106.101.2.187.281.094.075.196.133.313.172a1.187 1.187 0 0 0 .765 0 .863.863 0 0 0 .313-.172.846.846 0 0 0 .187-.28.875.875 0 0 0 .079-.36c0-.32-.165-.563-.485-.719zM1.11-2.531c.145 0 .258.043.344.125.094.086.14.195.14.328a.414.414 0 0 1-.14.328.505.505 0 0 1-.344.11.587.587 0 0 1-.375-.11.43.43 0 0 1-.125-.328c0-.133.04-.242.125-.328a.55.55 0 0 1 .375-.125zm0 1.187c.082 0 .16.016.235.047.07.024.133.059.187.11A.666.666 0 0 1 1.657-1a.57.57 0 0 1 0 .453.917.917 0 0 1-.172.219c-.074.074-.203.11-.39.11A.74.74 0 0 1 .859-.25a.527.527 0 0 1-.187-.125.587.587 0 0 1-.125-.172.74.74 0 0 1-.031-.234A.63.63 0 0 1 .546-1a.606.606 0 0 1 .126-.188.45.45 0 0 1 .187-.109.62.62 0 0 1 .25-.047zm0 0"/></symbol><symbol overflow="visible" id="o"><path d="M2.844-1.547H1.625v.328h.89v.078a.907.907 0 0 1-.078.375.846.846 0 0 1-.187.282 1.2 1.2 0 0 1-.297.187.95.95 0 0 1-.36.063c-.148 0-.288-.024-.421-.078a.821.821 0 0 1-.313-.22.846.846 0 0 1-.14-.171 12.27 12.27 0 0 1-.094-.219 4.673 4.673 0 0 1-.063-.25 2.263 2.263 0 0 1-.015-.281c0-.176.02-.336.062-.484.051-.145.125-.27.22-.375a.973.973 0 0 1 .327-.235.93.93 0 0 1 .422-.094.99.99 0 0 1 .313.047.812.812 0 0 1 .296.156c.114.075.192.204.235.391h.39a1.28 1.28 0 0 0-.156-.39 1.155 1.155 0 0 0-.328-.344c-.156-.125-.406-.188-.75-.188-.355 0-.648.094-.875.281a1.11 1.11 0 0 0-.234.235 2.506 2.506 0 0 0-.203.39 1.726 1.726 0 0 0-.094.626c0 .23.031.437.094.625.07.187.164.351.28.484.114.137.255.242.423.312a1.38 1.38 0 0 0 1.078 0 1.71 1.71 0 0 0 .469-.359l.093.39h.235zm0 0"/></symbol><symbol overflow="visible" id="p"><path d="M2.594-2.922h-.36v2.39l-1.53-2.39H.312V0h.343v-2.375L2.172 0h.422zm0 0"/></symbol><symbol overflow="visible" id="q"><path d="M.36 0h1.124c.188 0 .352-.031.5-.094.145-.07.27-.172.375-.297a1.31 1.31 0 0 0 .235-.453 2.38 2.38 0 0 0 .078-.625 2.15 2.15 0 0 0-.078-.593 1.32 1.32 0 0 0-.235-.47 1.011 1.011 0 0 0-.375-.28 1.147 1.147 0 0 0-.5-.11H.36zm.374-.328v-2.266h.688c.289 0 .508.102.656.297.145.188.223.469.235.844-.012.367-.09.648-.235.844-.148.187-.367.28-.656.28zm0 0"/></symbol><symbol overflow="visible" id="r"><path d="M1.578 0l1.016-2.922h-.406L1.375-.453l-.86-2.469h-.39L1.172 0zm0 0"/></symbol><symbol overflow="visible" id="s"><path d="M2.656-2.016c-.054-.32-.172-.562-.36-.718-.187-.157-.444-.235-.765-.235-.199 0-.375.031-.531.094-.156.063-.29.152-.39.266a1.472 1.472 0 0 0-.313.53c-.074.2-.11.419-.11.657 0 .242.036.461.11.656.07.2.18.371.328.516.102.117.227.2.375.25.156.063.328.094.516.094.707 0 1.109-.383 1.203-1.157h-.39a1.353 1.353 0 0 1-.126.454.613.613 0 0 1-.281.28.843.843 0 0 1-.406.095.884.884 0 0 1-.391-.078.915.915 0 0 1-.297-.25 1.147 1.147 0 0 1-.203-.375 1.768 1.768 0 0 1-.063-.5c0-.188.02-.352.063-.5a.997.997 0 0 1 .188-.375.885.885 0 0 1 .28-.235.792.792 0 0 1 .391-.094c.125 0 .235.016.329.047a.599.599 0 0 1 .375.313c.039.074.07.164.093.265zm0 0"/></symbol><symbol overflow="visible" id="t"><path d="M.781-2.922H.406V0h.375zm0 0"/></symbol><symbol overflow="visible" id="u"><path d="M1.906-.875L2.203 0h.422L1.594-2.922h-.485L.063 0h.406L.78-.875zm-.11-.313H.86l.485-1.343zm0 0"/></symbol><symbol overflow="visible" id="A"><path d="M.64-2.922l.016.438-.422-.141-.078.234.438.125-.281.344.203.156.25-.375.25.375.203-.156-.282-.344.438-.125-.078-.234-.422.14.016-.437zm0 0"/></symbol><symbol overflow="visible" id="D"><path d="M.75-1.266h.953c.164 0 .285.043.36.125.082.086.124.22.124.407v.25c0 .093.004.183.016.265.02.086.04.157.063.219h.468v-.094a.21.21 0 0 1-.093-.078.575.575 0 0 1-.063-.11.995.995 0 0 1-.031-.156v-.25c0-.113-.008-.21-.016-.296a.566.566 0 0 0-.062-.204.34.34 0 0 0-.125-.14 1.076 1.076 0 0 0-.188-.11.945.945 0 0 0 .344-.28.787.787 0 0 0 .11-.423c0-.257-.079-.453-.235-.578-.148-.133-.367-.203-.656-.203H.375V0H.75zm0-.328v-1h.906c.094 0 .172.012.235.031.07.012.132.04.187.079.094.086.14.214.14.39 0 .18-.046.309-.14.39-.094.075-.234.11-.422.11zm0 0"/></symbol><symbol overflow="visible" id="E"><path d="M1.906-2.844H.438L.234-1.297h.329a.428.428 0 0 1 .109-.125.686.686 0 0 1 .25-.125.806.806 0 0 1 .156-.016.539.539 0 0 1 .438.188.626.626 0 0 1 .14.219.8.8 0 0 1 .047.281c0 .105-.016.2-.047.281a.99.99 0 0 1-.172.25c-.086.086-.218.125-.406.125a.587.587 0 0 1-.375-.11A.693.693 0 0 1 .5-.702H.14c.008.062.02.117.032.156.008.043.023.09.047.14.02.055.05.106.093.157.083.117.192.2.329.25.132.063.28.094.437.094a.968.968 0 0 0 .39-.078.702.702 0 0 0 .313-.204.844.844 0 0 0 .203-.328 1.06 1.06 0 0 0 0-.796.872.872 0 0 0-.187-.297.713.713 0 0 0-.281-.188.934.934 0 0 0-.375-.078c-.106 0-.2.016-.282.047a.716.716 0 0 0-.25.125L.734-2.5h1.172zm0 0"/></symbol><symbol overflow="visible" id="F"><path d="M.734-1.328h1.594v-.328H.734v-.938h1.657v-.328H.359V0h2.094v-.328H.734zm0 0"/></symbol><symbol overflow="visible" id="G"><path d="M.219-.656c.031.242.113.43.25.562a.808.808 0 0 0 .547.188.787.787 0 0 0 .375-.078.901.901 0 0 0 .234-.157.81.81 0 0 0 .156-.172c.094-.132.16-.296.203-.484.04-.187.063-.406.063-.656a2.636 2.636 0 0 0-.063-.61 1.29 1.29 0 0 0-.078-.218 3.804 3.804 0 0 0-.11-.219.662.662 0 0 0-.296-.25.93.93 0 0 0-.422-.094.907.907 0 0 0-.375.078.71.71 0 0 0-.297.204.768.768 0 0 0-.187.296 1.08 1.08 0 0 0-.063.375c0 .137.02.262.063.375a.85.85 0 0 0 .172.282.742.742 0 0 0 .28.187.923.923 0 0 0 .36.063.771.771 0 0 0 .36-.079.867.867 0 0 0 .28-.234c0 .344-.058.61-.171.797-.105.188-.258.281-.453.281a.449.449 0 0 1-.313-.11C.648-.398.594-.507.563-.655zm.86-1.875a.539.539 0 0 1 .406.188c.05.054.093.12.124.202a.634.634 0 0 1 .047.25.57.57 0 0 1-.047.235.837.837 0 0 1-.125.203.606.606 0 0 1-.187.125.681.681 0 0 1-.234.031.539.539 0 0 1-.407-.156c-.094-.113-.14-.27-.14-.469 0-.082.007-.16.03-.234a.559.559 0 0 1 .126-.203.653.653 0 0 1 .172-.125.57.57 0 0 1 .234-.047zm0 0"/></symbol><symbol overflow="visible" id="H"><path d="M.313 0H1.64A.95.95 0 0 0 2-.063a.807.807 0 0 0 .281-.187.645.645 0 0 0 .156-.25.908.908 0 0 0 .063-.328.742.742 0 0 0-.125-.438.914.914 0 0 0-.406-.28.678.678 0 0 0 .406-.64.702.702 0 0 0-.234-.531.675.675 0 0 0-.266-.158 1.328 1.328 0 0 0-.375-.047H.312zm.374-1.672v-.922h.72c.1 0 .187.012.25.031.07.012.132.032.187.063.101.086.156.21.156.375 0 .074-.016.14-.047.203a.345.345 0 0 1-.11.156.82.82 0 0 1-.187.079 1.463 1.463 0 0 1-.25.015zm0 1.344v-1.016h.922c.082 0 .157.016.22.047a.476.476 0 0 1 .155.094c.051.055.086.11.11.172a.69.69 0 0 1 0 .406.345.345 0 0 1-.11.156.31.31 0 0 1-.156.11.63.63 0 0 1-.219.03zm0 0"/></symbol><symbol overflow="visible" id="K"><path d="M1.14-1.25H.189v.281h.953zm0 0"/></symbol><symbol overflow="visible" id="L"><path d="M1.563-2.969c-.211 0-.403.04-.579.11a1.34 1.34 0 0 0-.437.312 1.484 1.484 0 0 0-.297.485 1.98 1.98 0 0 0-.094.624c0 .231.032.438.094.625.07.188.172.352.297.485.125.137.27.242.437.312a1.615 1.615 0 0 0 1.078.031c.157-.05.29-.128.407-.234.082-.062.156-.133.219-.218a1.654 1.654 0 0 0 .25-.625c.03-.114.046-.235.046-.36a1.79 1.79 0 0 0-.109-.625 1.333 1.333 0 0 0-.281-.5 1.325 1.325 0 0 0-.453-.312 1.49 1.49 0 0 0-.579-.11zm0 .328a.93.93 0 0 1 .421.094.84.84 0 0 1 .329.235c.093.105.164.234.218.39.051.149.078.313.078.5 0 .18-.027.34-.078.484a1.105 1.105 0 0 1-.547.625 1.042 1.042 0 0 1-.421.079c-.157 0-.297-.024-.422-.078a1.078 1.078 0 0 1-.547-.625 1.866 1.866 0 0 1-.063-.5c0-.188.02-.352.063-.5.05-.145.117-.27.203-.375a.973.973 0 0 1 .328-.235 1.03 1.03 0 0 1 .438-.094zm0 0"/></symbol><symbol overflow="visible" id="M"><path d="M2.219-2.922v2.047c0 .105-.024.2-.063.281a.666.666 0 0 1-.203.235c-.094.086-.262.125-.5.125a.873.873 0 0 1-.531-.157.422.422 0 0 1-.156-.187.83.83 0 0 1-.047-.297v-2.047H.344v2.047c0 .156.023.297.078.422.05.117.125.215.219.297a.98.98 0 0 0 .343.172c.145.05.301.078.47.078.175 0 .331-.028.468-.078A.853.853 0 0 0 2.5-.47a.832.832 0 0 0 .094-.406v-2.047zm0 0"/></symbol><symbol overflow="visible" id="N"><path d="M1.422-2.594h.953v-.328H.078v.328h.969V0h.375zm0 0"/></symbol><symbol overflow="visible" id="Q"><path d="M2.14-1.078h-.828v-.828h-.28v.828h-.83v.281h.828v.844h.282v-.844h.828zm0 0"/></symbol><symbol overflow="visible" id="v"><path d="M1.594-.828V0h.422v-.828h.515v-.375h-.515v-2.234h-.313L.141-1.281v.453zm0-.375H.516L1.594-2.72zm0 0"/></symbol><symbol overflow="visible" id="w"><path d="M1.078-1.578h.234c.47 0 .704.21.704.625 0 .219-.063.39-.188.515-.125.118-.297.172-.516.172-.242 0-.417-.054-.53-.171C.663-.564.597-.75.577-1H.156c.008.137.024.258.047.36a.61.61 0 0 0 .11.25.794.794 0 0 0 .374.374c.165.082.368.125.61.125.176 0 .332-.027.469-.078a.93.93 0 0 0 .375-.203.928.928 0 0 0 .234-.344 1.28 1.28 0 0 0 .078-.453.891.891 0 0 0-.14-.515c-.086-.133-.231-.235-.438-.297.32-.125.484-.364.484-.719a.968.968 0 0 0-.078-.39.763.763 0 0 0-.203-.297.973.973 0 0 0-.344-.188 1.408 1.408 0 0 0-.421-.063c-.356 0-.625.094-.813.282-.18.187-.266.465-.266.828h.422c0-.102.004-.188.016-.25a.56.56 0 0 1 .281-.406.992.992 0 0 1 .36-.094c.187.012.332.07.437.172a.55.55 0 0 1 .172.422.506.506 0 0 1-.078.296.406.406 0 0 1-.203.172.73.73 0 0 1-.11.032.64.64 0 0 1-.14.03 1.99 1.99 0 0 1-.313.016zm0 0"/></symbol><symbol overflow="visible" id="x"><path d="M2.313-3.438H.53l-.25 1.86h.39c.052-.05.099-.098.141-.14a.449.449 0 0 1 .141-.095.486.486 0 0 1 .156-.062c.063-.008.125-.016.188-.016a.81.81 0 0 1 .312.063.54.54 0 0 1 .235.156c.07.074.125.164.156.266.031.105.05.218.063.343A1.74 1.74 0 0 1 2-.719a.807.807 0 0 1-.203.297c-.094.106-.262.156-.5.156a.69.69 0 0 1-.453-.14C.727-.5.644-.645.594-.844H.172c.008.074.02.137.031.188l.063.172a.52.52 0 0 0 .109.187.888.888 0 0 0 .39.297c.165.07.348.11.547.11.176 0 .333-.032.47-.094a.984.984 0 0 0 .374-.235c.102-.113.18-.242.235-.39.062-.157.097-.329.109-.516a1.636 1.636 0 0 0-.094-.453.928.928 0 0 0-.234-.36.961.961 0 0 0-.344-.234 1.081 1.081 0 0 0-.453-.094 1.11 1.11 0 0 0-.328.047.945.945 0 0 0-.297.156l.125-.953h1.438zm0 0"/></symbol><symbol overflow="visible" id="y"><path d="M2.453-.422H.641a.66.66 0 0 1 .046-.187.985.985 0 0 1 .11-.172.975.975 0 0 1 .187-.172c.082-.063.176-.117.282-.172l.484-.266c.238-.132.422-.285.547-.453.125-.176.187-.375.187-.593a.87.87 0 0 0-.093-.391.961.961 0 0 0-.235-.344 1 1 0 0 0-.344-.203 1.477 1.477 0 0 0-.437-.063c-.219 0-.414.04-.578.11A.897.897 0 0 0 .422-3a.81.81 0 0 0-.125.281 1.55 1.55 0 0 0-.047.235c0 .074-.008.152-.016.234h.438c0-.113.004-.207.015-.281a.514.514 0 0 1 .094-.203.523.523 0 0 1 .235-.235.792.792 0 0 1 .343-.11.983.983 0 0 1 .266.063.619.619 0 0 1 .219.141.5.5 0 0 1 .14.203c.04.074.063.156.063.25 0 .274-.156.496-.469.672l-.453.25c-.18.105-.328.21-.453.313a1.225 1.225 0 0 0-.281.312 1.413 1.413 0 0 0-.172.39A2.188 2.188 0 0 0 .172 0h2.281zm0 0"/></symbol><symbol overflow="visible" id="B"><path d="M2.531-3.438H.22v.422h1.86c-.2.293-.376.563-.532.813-.149.242-.277.48-.39.719-.106.23-.2.464-.282.703-.074.242-.14.5-.203.781h.453c.05-.27.113-.535.188-.797a9.09 9.09 0 0 1 .28-.765c.114-.25.25-.5.407-.75.156-.258.332-.516.531-.766zm0 0"/></symbol><symbol overflow="visible" id="I"><path d="M1.25-2.453V0h.438v-3.438h-.282a2.98 2.98 0 0 1-.125.313.453.453 0 0 1-.14.203.939.939 0 0 1-.25.11 2.362 2.362 0 0 1-.391.046v.313zm0 0"/></symbol><symbol overflow="visible" id="O"><path d="M.266-.781c.039.281.144.5.312.656.164.156.383.234.656.234a.952.952 0 0 0 .454-.093 1.315 1.315 0 0 0 .469-.39 2.1 2.1 0 0 0 .234-.58c.05-.226.078-.5.078-.812 0-.132-.008-.265-.016-.39a3.002 3.002 0 0 0-.047-.328 1.485 1.485 0 0 0-.094-.282 4.958 4.958 0 0 0-.124-.25 1.147 1.147 0 0 0-.376-.312 1.147 1.147 0 0 0-.5-.11c-.167 0-.32.032-.453.094a1.06 1.06 0 0 0-.359.235.984.984 0 0 0-.234.375 1.205 1.205 0 0 0-.079.453c0 .156.024.304.079.437.05.137.125.258.218.36a.986.986 0 0 0 .329.218c.125.055.269.079.437.079a.93.93 0 0 0 .422-.094c.125-.063.242-.16.36-.297 0 .43-.071.758-.204.984-.137.219-.324.328-.562.328A.586.586 0 0 1 .875-.39a.72.72 0 0 1-.188-.39zm1.046-2.297c.094.012.18.039.266.078a.566.566 0 0 1 .219.156c.062.063.11.149.14.25.04.094.063.196.063.297A.68.68 0 0 1 1.937-2a.721.721 0 0 1-.14.234.619.619 0 0 1-.219.141.817.817 0 0 1-.281.047.672.672 0 0 1-.5-.188C.68-1.898.625-2.082.625-2.312c0-.114.016-.211.047-.297a.588.588 0 0 1 .14-.235.539.539 0 0 1 .22-.156.876.876 0 0 1 .28-.078zm0 0"/></symbol><symbol overflow="visible" id="z"><path d="M-2.453-1.25H0v-.438h-3.438v.282c.126.043.231.086.313.125a.453.453 0 0 1 .203.14.939.939 0 0 1 .11.25c.023.106.039.235.046.391h.313zm0 0"/></symbol><symbol overflow="visible" id="C"><path d="M-1.813-1.906a1.108 1.108 0 0 0-.156-.203.573.573 0 0 0-.156-.141.665.665 0 0 0-.172-.094.872.872 0 0 0-.594.047.96.96 0 0 0-.296.219.972.972 0 0 0-.188.328 1.38 1.38 0 0 0-.063.422c0 .148.024.289.063.422a.972.972 0 0 0 .188.328.979.979 0 0 0 .296.203.829.829 0 0 0 .36.078c.086 0 .156-.004.219-.016a1.18 1.18 0 0 0 .187-.078.844.844 0 0 0 .156-.156c.055-.062.106-.133.157-.219.187.399.476.59.859.579.156 0 .305-.024.437-.079A.877.877 0 0 0-.187-.5c.093-.102.167-.223.218-.36.051-.144.078-.3.078-.468a1.34 1.34 0 0 0-.078-.469 1.116 1.116 0 0 0-.218-.375.973.973 0 0 0-.329-.234A1.555 1.555 0 0 0-.953-2.5c-.383 0-.672.2-.86.594zm-1.25.578c0-.188.055-.332.157-.438a.569.569 0 0 1 .39-.171.56.56 0 0 1 .391.171c.094.106.14.25.14.438 0 .18-.046.324-.14.437a.492.492 0 0 1-.39.157.498.498 0 0 1-.391-.157.63.63 0 0 1-.156-.437zm1.438 0c0-.113.023-.211.063-.297a.619.619 0 0 1 .14-.219A.468.468 0 0 1-1.219-2a1.29 1.29 0 0 1 .266-.063c.105.012.2.032.281.063a.73.73 0 0 1 .266.203c.094.094.14.25.14.469a.927.927 0 0 1-.046.297.586.586 0 0 1-.141.218.743.743 0 0 1-.219.157.786.786 0 0 1-.281.047.76.76 0 0 1-.266-.047.627.627 0 0 1-.203-.156.586.586 0 0 1-.14-.22.763.763 0 0 1-.063-.296zm0 0"/></symbol><symbol overflow="visible" id="J"><path d="M-2.547-2.422a1.248 1.248 0 0 0-.375.125.898.898 0 0 0-.281.203 1.017 1.017 0 0 0-.235.657 1.058 1.058 0 0 0 .485.921 1.7 1.7 0 0 0 .5.22c.168.042.32.07.453.077.137.012.277.016.422.016.148 0 .281-.004.406-.016a2.15 2.15 0 0 0 .344-.047c.094-.03.187-.062.281-.093A1.22 1.22 0 0 0-.312-.5.895.895 0 0 0 0-.86c.07-.144.11-.312.11-.5 0-.163-.032-.316-.094-.452a1.168 1.168 0 0 0-.22-.36 1.02 1.02 0 0 0-.374-.234 1.782 1.782 0 0 0-.469-.094c-.156.012-.3.043-.437.094-.133.054-.25.125-.344.219a.973.973 0 0 0-.234.328 1.104 1.104 0 0 0-.079.421c0 .344.125.61.375.797-.414-.007-.734-.078-.953-.203a.64.64 0 0 1-.344-.578.49.49 0 0 1 .141-.36A.712.712 0 0 1-2.547-2zm.781 1.031c0-.207.055-.351.157-.437A.84.84 0 0 1-1.33-2c.095-.031.2-.05.313-.063.118.012.22.032.313.063a.721.721 0 0 1 .234.14.797.797 0 0 1 .156.22.76.76 0 0 1 .047.265c0 .105-.015.2-.046.281a.62.62 0 0 1-.172.219.903.903 0 0 1-.25.156.973.973 0 0 1-.594 0 .588.588 0 0 1-.234-.14.721.721 0 0 1-.141-.235.68.68 0 0 1-.063-.297zm0 0"/></symbol><symbol overflow="visible" id="P"><path d="M-3.438-1.328c0 .156.032.308.094.453a.765.765 0 0 0 .281.328c.149.117.34.203.579.266.23.054.5.078.812.078.586 0 1.027-.094 1.328-.281.305-.196.453-.477.453-.844 0-.363-.144-.64-.437-.828-.3-.196-.738-.301-1.313-.313a4.776 4.776 0 0 0-.843.094 1.63 1.63 0 0 0-.579.25.913.913 0 0 0-.28.344 1.071 1.071 0 0 0-.095.453zm.376 0c0-.469.464-.703 1.39-.703.492 0 .856.058 1.094.172.23.117.344.293.344.53-.008.462-.485.688-1.422.688-.477 0-.832-.054-1.063-.171-.226-.114-.344-.286-.344-.516zm0 0"/></symbol><symbol overflow="visible" id="R"><path d="M-1.078-2.14v.828h-.828v.28h.828v.829h.281v-.828h.844v-.282h-.844v-.828zm0 0"/></symbol><clipPath id="S"><path d="M366 147.54h2V223h-2zm0 0"/></clipPath><clipPath id="T"><path d="M366 147.54h180v.46H366zm0 0"/></clipPath><clipPath id="U"><path d="M545 147.54h1V252h-1zm0 0"/></clipPath><clipPath id="V"><path d="M366 383h2v64.422h-2zm0 0"/></clipPath><clipPath id="W"><path d="M366 447h180v.422H366zm0 0"/></clipPath><clipPath id="X"><path d="M545 354h1v93.422h-1zm0 0"/></clipPath></defs><use xlink:href="#a" x="390.072" y="203.906" fill="gray"/><use xlink:href="#b" x="392.292" y="203.906" fill="gray"/><use xlink:href="#c" x="395.652" y="203.906" fill="gray"/><use xlink:href="#d" x="397.872" y="203.906" fill="gray"/><use xlink:href="#e" x="400.092" y="203.906" fill="gray"/><use xlink:href="#f" x="402.312" y="203.906" fill="gray"/><use xlink:href="#f" x="404.532" y="203.906" fill="gray"/><use xlink:href="#a" x="499.464" y="244.213" fill="gray"/><use xlink:href="#b" x="501.684" y="244.213" fill="gray"/><use xlink:href="#c" x="505.044" y="244.213" fill="gray"/><use xlink:href="#d" x="507.264" y="244.213" fill="gray"/><use xlink:href="#e" x="509.484" y="244.213" fill="gray"/><use xlink:href="#f" x="511.704" y="244.213" fill="gray"/><use xlink:href="#f" x="513.924" y="244.213" fill="gray"/><use xlink:href="#g" x="421.016" y="199.588" fill="gray"/><use xlink:href="#g" x="423.236" y="199.588" fill="gray"/><use xlink:href="#h" x="425.456" y="199.588" fill="gray"/><use xlink:href="#d" x="450.525" y="245.652" fill="gray"/><use xlink:href="#d" x="452.746" y="245.652" fill="gray"/><use xlink:href="#h" x="454.966" y="245.652" fill="gray"/><use xlink:href="#i" x="340.231" y="234.136" fill="gray"/><use xlink:href="#j" x="342.451" y="234.136" fill="gray"/><use xlink:href="#f" x="344.671" y="234.136" fill="gray"/><use xlink:href="#i" x="340.231" y="268.684" fill="gray"/><use xlink:href="#j" x="342.451" y="268.684" fill="gray"/><use xlink:href="#f" x="344.671" y="268.684" fill="gray"/><use xlink:href="#g" x="335.376" y="277.32" fill="gray"/><use xlink:href="#k" x="337.597" y="277.32" fill="gray"/><use xlink:href="#g" x="338.736" y="277.32" fill="gray"/><use xlink:href="#l" x="340.956" y="277.32" fill="gray"/><use xlink:href="#m" x="343.176" y="277.32" fill="gray"/><use xlink:href="#i" x="513.374" y="297.474" fill="gray"/><use xlink:href="#j" x="515.594" y="297.474" fill="gray"/><use xlink:href="#l" x="517.814" y="297.474" fill="gray"/><use xlink:href="#m" x="520.035" y="297.474" fill="gray"/><use xlink:href="#c" x="518.713" y="265.804" fill="gray"/><use xlink:href="#n" x="520.933" y="265.804" fill="gray"/><use xlink:href="#f" x="523.153" y="265.804" fill="gray"/><use xlink:href="#o" x="546.841" y="321.657" fill="gray"/><use xlink:href="#p" x="549.962" y="321.657" fill="gray"/><use xlink:href="#q" x="552.842" y="321.657" fill="gray"/><use xlink:href="#o" x="448.965" y="275.593" fill="gray"/><use xlink:href="#p" x="452.085" y="275.593" fill="gray"/><use xlink:href="#q" x="454.965" y="275.593" fill="gray"/><use xlink:href="#o" x="362.603" y="321.657" fill="gray"/><use xlink:href="#p" x="365.723" y="321.657" fill="gray"/><use xlink:href="#q" x="368.603" y="321.657" fill="gray"/><use xlink:href="#g" x="421.016" y="418.391" fill="gray"/><use xlink:href="#g" x="423.236" y="418.391" fill="gray"/><use xlink:href="#h" x="425.456" y="418.391" fill="gray"/><use xlink:href="#d" x="444.046" y="398.237" fill="gray"/><use xlink:href="#d" x="446.266" y="398.237" fill="gray"/><use xlink:href="#h" x="448.486" y="398.237" fill="gray"/><use xlink:href="#i" x="340.232" y="383.843" fill="gray"/><use xlink:href="#j" x="342.452" y="383.843" fill="gray"/><use xlink:href="#f" x="344.672" y="383.843" fill="gray"/><use xlink:href="#i" x="340.232" y="340.658" fill="gray"/><use xlink:href="#j" x="342.452" y="340.658" fill="gray"/><use xlink:href="#f" x="344.672" y="340.658" fill="gray"/><use xlink:href="#g" x="335.377" y="332.022" fill="gray"/><use xlink:href="#k" x="337.597" y="332.022" fill="gray"/><use xlink:href="#g" x="338.737" y="332.022" fill="gray"/><use xlink:href="#l" x="340.957" y="332.022" fill="gray"/><use xlink:href="#m" x="343.177" y="332.022" fill="gray"/><use xlink:href="#i" x="513.375" y="311.868" fill="gray"/><use xlink:href="#j" x="515.595" y="311.868" fill="gray"/><use xlink:href="#l" x="517.815" y="311.868" fill="gray"/><use xlink:href="#m" x="520.035" y="311.868" fill="gray"/><use xlink:href="#c" x="518.714" y="343.538" fill="gray"/><use xlink:href="#n" x="520.934" y="343.538" fill="gray"/><use xlink:href="#f" x="523.154" y="343.538" fill="gray"/><use xlink:href="#o" x="448.966" y="431.059" fill="gray"/><use xlink:href="#p" x="452.086" y="431.059" fill="gray"/><use xlink:href="#q" x="454.966" y="431.059" fill="gray"/><use xlink:href="#a" x="390.074" y="405.436" fill="gray"/><use xlink:href="#b" x="392.293" y="405.436" fill="gray"/><use xlink:href="#c" x="395.654" y="405.436" fill="gray"/><use xlink:href="#d" x="397.874" y="405.436" fill="gray"/><use xlink:href="#e" x="400.093" y="405.436" fill="gray"/><use xlink:href="#f" x="402.313" y="405.436" fill="gray"/><use xlink:href="#f" x="404.533" y="405.436" fill="gray"/><use xlink:href="#a" x="499.466" y="365.129" fill="gray"/><use xlink:href="#b" x="501.686" y="365.129" fill="gray"/><use xlink:href="#c" x="505.046" y="365.129" fill="gray"/><use xlink:href="#d" x="507.266" y="365.129" fill="gray"/><use xlink:href="#e" x="509.486" y="365.129" fill="gray"/><use xlink:href="#f" x="511.705" y="365.129" fill="gray"/><use xlink:href="#f" x="513.925" y="365.129" fill="gray"/><use xlink:href="#o" x="328.059" y="379.237" fill="gray"/><use xlink:href="#p" x="331.179" y="379.237" fill="gray"/><use xlink:href="#q" x="334.059" y="379.237" fill="gray"/><use xlink:href="#r" x="426.116" y="439.984" fill="gray"/><use xlink:href="#s" x="428.816" y="439.984" fill="gray"/><use xlink:href="#s" x="431.696" y="439.984" fill="gray"/><use xlink:href="#t" x="390.073" y="244.213" fill="gray"/><use xlink:href="#s" x="391.213" y="244.213" fill="gray"/><use xlink:href="#c" x="394.093" y="244.213" fill="gray"/><use xlink:href="#u" x="396.313" y="244.213" fill="gray"/><use xlink:href="#v" x="386.567" y="210.297" fill="gray"/><use xlink:href="#w" x="386.567" y="233.329" fill="gray"/><use xlink:href="#x" x="436.939" y="221.813" fill="gray"/><use xlink:href="#y" x="386.567" y="221.813" fill="gray"/><use xlink:href="#z" x="429.568" y="216.055" fill="gray"/><use xlink:href="#t" x="499.464" y="203.906" fill="gray"/><use xlink:href="#s" x="500.604" y="203.906" fill="gray"/><use xlink:href="#c" x="503.484" y="203.906" fill="gray"/><use xlink:href="#u" x="505.704" y="203.906" fill="gray"/><use xlink:href="#A" x="508.404" y="203.906" fill="gray"/><use xlink:href="#B" x="495.958" y="221.813" fill="gray"/><use xlink:href="#C" x="527.445" y="243.399" fill="gray"/><use xlink:href="#D" x="422.395" y="190.95" fill="gray"/><use xlink:href="#i" x="425.275" y="190.95" fill="gray"/><use xlink:href="#D" x="450.525" y="237.014" fill="gray"/><use xlink:href="#E" x="453.405" y="237.014" fill="gray"/><use xlink:href="#D" x="341.791" y="225.498" fill="gray"/><use xlink:href="#c" x="344.67" y="225.498" fill="gray"/><use xlink:href="#D" x="341.791" y="260.045" fill="gray"/><use xlink:href="#g" x="344.67" y="260.045" fill="gray"/><use xlink:href="#s" x="324.518" y="277.32" fill="gray"/><use xlink:href="#c" x="327.398" y="277.32" fill="gray"/><use xlink:href="#s" x="517.393" y="288.836" fill="gray"/><use xlink:href="#g" x="520.273" y="288.836" fill="gray"/><use xlink:href="#D" x="520.272" y="274.442" fill="gray"/><use xlink:href="#e" x="523.152" y="274.442" fill="gray"/><use xlink:href="#r" x="414.659" y="157.841" fill="gray"/><use xlink:href="#s" x="417.359" y="157.841" fill="gray"/><use xlink:href="#s" x="420.239" y="157.841" fill="gray"/><use xlink:href="#o" x="328.057" y="264.077" fill="gray"/><use xlink:href="#p" x="331.177" y="264.077" fill="gray"/><use xlink:href="#q" x="334.057" y="264.077" fill="gray"/><use xlink:href="#r" x="403.324" y="261.486" fill="gray"/><use xlink:href="#F" x="406.024" y="261.486" fill="gray"/><use xlink:href="#F" x="408.724" y="261.486" fill="gray"/><use xlink:href="#D" x="422.395" y="409.753" fill="gray"/><use xlink:href="#d" x="425.275" y="409.753" fill="gray"/><use xlink:href="#D" x="445.425" y="406.875" fill="gray"/><use xlink:href="#j" x="448.305" y="406.875" fill="gray"/><use xlink:href="#D" x="341.791" y="375.206" fill="gray"/><use xlink:href="#n" x="344.671" y="375.206" fill="gray"/><use xlink:href="#D" x="341.791" y="349.296" fill="gray"/><use xlink:href="#G" x="344.671" y="349.296" fill="gray"/><use xlink:href="#s" x="324.518" y="332.022" fill="gray"/><use xlink:href="#d" x="327.398" y="332.022" fill="gray"/><use xlink:href="#s" x="517.393" y="320.506" fill="gray"/><use xlink:href="#i" x="520.273" y="320.506" fill="gray"/><use xlink:href="#D" x="518.052" y="334.9" fill="gray"/><use xlink:href="#c" x="520.932" y="334.9" fill="gray"/><use xlink:href="#f" x="523.152" y="334.9" fill="gray"/><use xlink:href="#t" x="390.072" y="365.129" fill="gray"/><use xlink:href="#s" x="391.212" y="365.129" fill="gray"/><use xlink:href="#c" x="394.092" y="365.129" fill="gray"/><use xlink:href="#H" x="396.312" y="365.129" fill="gray"/><use xlink:href="#I" x="383.866" y="394.552" fill="gray"/><use xlink:href="#w" x="386.566" y="394.552" fill="gray"/><use xlink:href="#I" x="383.866" y="371.521" fill="gray"/><use xlink:href="#v" x="386.566" y="371.521" fill="gray"/><use xlink:href="#I" x="436.938" y="383.037" fill="gray"/><use xlink:href="#y" x="439.638" y="383.037" fill="gray"/><use xlink:href="#I" x="383.866" y="383.037" fill="gray"/><use xlink:href="#x" x="386.566" y="383.037" fill="gray"/><use xlink:href="#z" x="429.568" y="395.806" fill="gray"/><use xlink:href="#J" x="429.568" y="393.106" fill="gray"/><use xlink:href="#t" x="293.271" y="281.639" fill="gray"/><use xlink:href="#p" x="294.411" y="281.639" fill="gray"/><use xlink:href="#K" x="297.291" y="281.639" fill="gray"/><use xlink:href="#a" x="298.611" y="281.639" fill="gray"/><use xlink:href="#t" x="286.611" y="304.671" fill="gray"/><use xlink:href="#p" x="287.751" y="304.671" fill="gray"/><use xlink:href="#K" x="290.631" y="304.671" fill="gray"/><use xlink:href="#o" x="291.951" y="304.671" fill="gray"/><use xlink:href="#p" x="295.071" y="304.671" fill="gray"/><use xlink:href="#q" x="297.951" y="304.671" fill="gray"/><use xlink:href="#t" x="292.611" y="327.703" fill="gray"/><use xlink:href="#p" x="293.751" y="327.703" fill="gray"/><use xlink:href="#K" x="296.631" y="327.703" fill="gray"/><use xlink:href="#D" x="297.951" y="327.703" fill="gray"/><use xlink:href="#L" x="479.313" y="235.575" fill="gray"/><use xlink:href="#M" x="482.433" y="235.575" fill="gray"/><use xlink:href="#N" x="485.313" y="235.575" fill="gray"/><use xlink:href="#K" x="487.773" y="235.575" fill="gray"/><use xlink:href="#a" x="489.093" y="235.575" fill="gray"/><use xlink:href="#L" x="479.313" y="247.091" fill="gray"/><use xlink:href="#M" x="482.433" y="247.091" fill="gray"/><use xlink:href="#N" x="485.313" y="247.091" fill="gray"/><use xlink:href="#K" x="487.773" y="247.091" fill="gray"/><use xlink:href="#o" x="489.093" y="247.091" fill="gray"/><use xlink:href="#p" x="492.213" y="247.091" fill="gray"/><use xlink:href="#q" x="495.093" y="247.091" fill="gray"/><use xlink:href="#L" x="485.07" y="396.798" fill="gray"/><use xlink:href="#M" x="488.19" y="396.798" fill="gray"/><use xlink:href="#N" x="491.07" y="396.798" fill="gray"/><use xlink:href="#K" x="493.53" y="396.798" fill="gray"/><use xlink:href="#D" x="494.85" y="396.798" fill="gray"/><use xlink:href="#t" x="499.464" y="405.436" fill="gray"/><use xlink:href="#s" x="500.604" y="405.436" fill="gray"/><use xlink:href="#c" x="503.484" y="405.436" fill="gray"/><use xlink:href="#H" x="505.704" y="405.436" fill="gray"/><use xlink:href="#A" x="508.404" y="405.436" fill="gray"/><use xlink:href="#O" x="495.958" y="383.037" fill="gray"/><use xlink:href="#z" x="527.445" y="365.762" fill="gray"/><use xlink:href="#P" x="527.445" y="363.062" fill="gray"/><path d="M390.059 239.879V205.32m0 0l34.562 17.282m0 0l-34.562 17.277" fill="none" stroke-width=".6" stroke-linecap="round" stroke-linejoin="round" stroke="maroon" stroke-miterlimit="10"/><path d="M392.941 235.559v-2.88m-1.441 1.442h2.879m-2.879-23.043h2.879m-10.079 0h5.759m-5.759 23.043h5.759m51.839-11.519h-5.757" fill="none" stroke-width=".36" stroke-linecap="round" stroke-linejoin="round" stroke="maroon" stroke-miterlimit="10"/><path d="M390.059 223.8l-.239-.062m0 0l-.242-.058m0 0l-.238-.18m0 0l-.18-.18m0 0l-.12-.18m0 0l-.118-.242m0 0v-.296m0 0v-.243m0 .001l.117-.239m.001 0l.12-.242m0 0l.18-.18m0 .001l.238-.122m0 0l.242-.058m0 0l.239-.06m0 0l.242.06m-.001 0l.302.058m0 0l.18.121m-.001.001l.18.179m-.001 0l.118.242m0 0l.121.238m.001.001v.242m0 0v.296m0 0l-.122.243m0-.001l-.117.18m-.001 0l-.179.18m0 0l-.18.18m.001 0l-.301.058m-.001 0l-.241.063m-.239-.063h.54m-.72-.058h.84m-.96-.059h1.082m-1.142-.062h1.259m-1.379-.059h1.441m-1.5-.059h1.559m-1.621-.062h1.68m-1.739-.059h1.8m-1.8-.058h1.86m-1.918-.062h1.918m-1.98-.06h2.038m-2.038-.062h2.1m-2.1-.058h2.1m-2.16 0h2.16m-2.16-.06h2.22m-2.278-.062h2.277m-2.277-.058h2.277m-2.277-.059h2.277m-2.277-.062h2.277m-2.277-.059h2.277m-2.277-.058h2.277m-2.277-.062h2.277m-2.277-.06h2.277m-2.277-.058h2.277m-2.219-.062h2.22m-2.22-.06h2.22m-2.22-.062h2.16m-2.1-.058h2.1m-2.1-.059h2.1m-2.1-.062h2.038m-1.976-.059h1.918m-1.86-.059h1.86m-1.86-.062h1.8m-1.741-.059h1.68m-1.618-.058h1.559m-1.5-.062h1.441m-1.321-.06h1.259m-1.199 0h1.082m-.962-.062h.84m-.66-.058h.48m-.241 9.718l-2.88-5.16m.001 0h5.761m0 0l-2.882 5.16m0 0h.062m-.121-.058h.121m-.121-.059h.18m-.239-.062h.239m-.239-.059h.297m-.359-.059h.36m-.36-.062h.422m-.481-.059h.48m-.48-.058h.54m-.598-.062h.597m-.597-.06h.66m-.722-.062h.722m-.722-.058h.78m-.84-.06h.84m-.902-.062h.961m-.961-.058h.961m-1.019-.059h1.082m-1.082-.062h1.14m-1.2-.059h1.2m-1.2 0h1.259m-1.321-.058h1.32m-1.32-.062h1.383m-1.441-.06h1.441m-1.441-.058h1.5m-1.559-.062h1.559m-1.559-.06h1.617m-1.679-.062h1.68m-1.68-.058h1.742m-1.801-.059h1.8m-1.858-.062h1.918m-1.918-.059h1.918m-1.98-.059h2.038m-2.038-.062h2.1m-2.16-.059h2.16m-2.16-.058h2.22m-2.278-.062h2.277m-2.277-.06h2.34m-2.402-.062h2.402m-2.402-.058h2.46m-2.52-.06h2.52m-2.52-.062h2.579m-2.641-.058h2.64m-2.64-.059h2.703m-2.761-.062h2.761m-2.82 0h2.879m-2.879-.059h2.879m-2.941-.058h3m-3-.062h3.062m-3.121-.06h3.121m-3.121-.058h3.18m-3.239-.062h3.239m-3.239-.06h3.297m-3.359-.062h3.36m-3.36-.058h3.422m-3.481-.059h3.48m-3.48-.062h3.54m-3.598-.059h3.597m-3.597-.059h3.66m-3.722-.062h3.722m-3.782-.059h3.84m-3.84-.058h3.84m-3.902-.062h3.961m-3.961-.06h4.024m-4.082-.062h4.082m-4.082-.058h4.14m-4.2-.06h4.2m-4.2-.062h4.259m-4.321-.058h4.32m-4.32 0h4.383m-4.441-.059h4.441m-4.441-.062h4.5m-4.559-.059h4.559m-4.559-.058h4.617m-4.679-.062h4.68m-4.739-.06h4.8m-4.8-.058h4.8m-4.858-.062h4.918m-4.918-.06h4.976m-5.038-.062h5.038m-5.038-.058h5.1m-5.16-.059h5.16m-5.16-.062h5.22m-5.278-.059h5.277m-5.277-.059h5.34m-5.402-.062h5.402m-5.402-.059h5.46m-5.52-.058h5.52m-5.52-.062h5.579m-5.641-.06h5.64m-5.698-.062h5.761" fill="none" stroke-width=".12" stroke-linecap="round" stroke-linejoin="round" stroke="maroon" stroke-miterlimit="10"/><path d="M387.18 231.238h5.761" fill="none" stroke-width=".6" stroke-linecap="round" stroke-linejoin="round" stroke="maroon" stroke-miterlimit="10"/><path d="M390.059 213.96l2.882 5.22m0 0h-5.761m0 0l2.879-5.22m-2.879 5.161h5.761m-5.703-.062h5.64M387.3 219h5.579m-5.579-.059h5.52m-5.46-.062h5.46m-5.46-.059h5.402m-5.34-.058h5.34m-5.34 0h5.277m-5.219-.062h5.22m-5.22-.06h5.16m-5.1-.062h5.1m-5.1-.058h5.038m-4.976-.06h4.976m-4.976-.062h4.918m-4.86-.058h4.8m-4.8-.059h4.8m-4.741-.062h4.68m-4.618-.059h4.617m-4.617-.058h4.559m-4.5-.062h4.5m-4.5-.06h4.441m-4.383-.058h4.383m-4.383-.062h4.32m-4.258-.06h4.259m-4.259-.062h4.2m-4.14-.058h4.14m-4.14-.059h4.082m-4.024-.062h4.024m-4.024-.059h3.961m-3.899-.059h3.84m-3.84-.062h3.84m-3.78 0h3.722m-3.66-.059h3.66m-3.66-.058h3.597m-3.539-.062h3.54m-3.54-.06h3.48m-3.421-.062h3.422m-3.422-.058h3.36m-3.298-.06h3.297m-3.297-.062h3.239m-3.18-.058h3.18m-3.18-.059h3.121m-3.062-.062h3.062m-3.062-.059h3m-2.938-.058h2.879m-2.879-.062h2.879m-2.82-.06h2.761m-2.703-.058h2.703m-2.703-.062h2.64m-2.578-.06h2.579m-2.579-.062h2.52m-2.46-.058h2.46m-2.46-.059h2.402m-2.34-.062h2.34m-2.34-.059h2.277m-2.219-.059h2.22m-2.22 0h2.16m-2.1-.062h2.1m-2.1-.059h2.038m-1.976-.058h1.918m-1.918-.062h1.918m-1.86-.06h1.8m-1.741-.062h1.742m-1.742-.058h1.68m-1.618-.06h1.617m-1.617-.062h1.559m-1.5-.058h1.5m-1.5-.059h1.441m-1.383-.062h1.383m-1.383-.059h1.32m-1.258-.058h1.259m-1.259-.062h1.2m-1.14-.06h1.14m-1.14-.058h1.082m-1.024-.062h.961m-.961-.06h.961m-.899-.062h.84m-.78-.058h.78m-.78-.059h.722m-.66-.062h.66m-.66-.059h.597m-.539 0h.54m-.54-.059h.48m-.421-.062h.422m-.422-.059h.36m-.298-.058h.297m-.297-.062h.239m-.18-.06h.18m-.18-.062h.121m-.062-.058h.062" fill="none" stroke-width=".12" stroke-linecap="round" stroke-linejoin="round" stroke="maroon" stroke-miterlimit="10"/><path d="M392.941 213.96h-5.761" fill="none" stroke-width=".6" stroke-linecap="round" stroke-linejoin="round" stroke="maroon" stroke-miterlimit="10"/><path d="M384.3 222.602h5.759" fill="none" stroke-width=".36" stroke-linecap="round" stroke-linejoin="round" stroke="maroon" stroke-miterlimit="10"/><path d="M432.781 222.602a4.082 4.082 0 0 1-4.082 4.078 4.079 4.079 0 0 1-4.078-4.078 4.08 4.08 0 1 1 8.16 0zm0 0" fill="none" stroke-width=".6" stroke-linecap="round" stroke-linejoin="round" stroke="maroon" stroke-miterlimit="10"/><path d="M436.14 222.602a4.081 4.081 0 1 1-4.082-4.082 4.083 4.083 0 0 1 4.083 4.082zm0 0" fill="none" stroke-width=".6" stroke-linecap="round" stroke-linejoin="round" stroke="maroon" stroke-miterlimit="10"/><path d="M430.379 211.078v5.762m0 0v2.039m86.34-2.039h-2.88m.001 0l-5.578 2.82m3.179 6.059l1.137 1.98m0 .001l-2.34.3m0 0l1.203-2.281m2.399 2.641l-1.262-.66m0 0l-3.777-1.86" fill="none" stroke-width=".36" stroke-linecap="round" stroke-linejoin="round" stroke="maroon" stroke-miterlimit="10"/><path d="M510.84 227.7l1.32-.122m0 0l-.719-1.316" fill="none" stroke-width=".72" stroke-linecap="round" stroke-linejoin="round" stroke="maroon" stroke-miterlimit="10"/><path d="M511.441 226.262l-.601 1.199m0-.001h.84m0 0l-.239-.6" fill="none" stroke-width=".6" stroke-linecap="round" stroke-linejoin="round" stroke="maroon" stroke-miterlimit="10"/><path d="M507 228.36h1.68v-11.52H507zm0 0" fill="maroon" stroke-width=".12" stroke-linecap="round" stroke-linejoin="round" stroke="maroon" stroke-miterlimit="10"/><path d="M493.68 222.602h5.761m28.797 23.038v-5.761m0-17.277h-2.879m.001 0l-5.579 2.82m3.117 6.058l1.204 1.98m0 0l-2.34.302m0 0l1.136-2.282m2.462 2.641l-1.258-.66m0-.001l-3.782-1.858" fill="none" stroke-width=".36" stroke-linecap="round" stroke-linejoin="round" stroke="maroon" stroke-miterlimit="10"/><path d="M522.36 233.46l1.261-.12m0 0l-.723-1.32" fill="none" stroke-width=".72" stroke-linecap="round" stroke-linejoin="round" stroke="maroon" stroke-miterlimit="10"/><path d="M522.898 232.02l-.539 1.199m.001 0h.84m0 0l-.302-.598" fill="none" stroke-width=".6" stroke-linecap="round" stroke-linejoin="round" stroke="maroon" stroke-miterlimit="10"/><path d="M518.46 234.121h1.68v-11.52h-1.68zm0 0" fill="maroon" stroke-width=".12" stroke-linecap="round" stroke-linejoin="round" stroke="maroon" stroke-miterlimit="10"/><path d="M513.84 228.36h5.762" fill="none" stroke-width=".36" stroke-linecap="round" stroke-linejoin="round" stroke="maroon" stroke-miterlimit="10"/><path d="M516.719 217.441h-.117m0 0l-.18-.062m0 0l-.121-.117m-.001 0l-.062-.121m0-.001l-.058-.12m0 0v-.18m0 0v-.121m0 0l.058-.117m0 0l.063-.122m-.001 0l.122-.12m0 0l.18-.06m0 0h.117m0 0h.18m-.001 0l.122.06m0 0l.12.12m0 0l.122.122m0 0l.058.117m0 0v.12m0 .001v.18m0 0l-.058.12m0 0l-.121.122m-.001 0l-.12.117m0 0l-.122.062m0 0h-.18m-.058 0h.18m-.54-.241h.9m-1.02-.18h1.082m-1.082-.18h1.14m-1.082-.18h1.024m-.902-.238h.78" fill="none" stroke-width=".3" stroke-linecap="round" stroke-linejoin="round" stroke="maroon" stroke-miterlimit="10"/><path d="M516.719 216.84h11.52m-.001 0v5.762m-9.778-11.524zm0 0" fill="none" stroke-width=".36" stroke-linecap="round" stroke-linejoin="round" stroke="maroon" stroke-miterlimit="10"/><path d="M517.86 211.078h-2.282m1.141-1.137v2.34" fill="none" stroke-width=".3" stroke-linecap="round" stroke-linejoin="round" stroke="maroon" stroke-miterlimit="10"/><path d="M516.719 212.82v4.02" fill="none" stroke-width=".36" stroke-linecap="round" stroke-linejoin="round" stroke="maroon" stroke-miterlimit="10"/><path d="M499.441 205.32h2.34m2.278 0h2.34m2.281 0h2.34m2.218 0h2.34m2.282 0h2.34m2.28 0h2.34m2.282 0h2.277m2.281 0H534m0 34.559h-2.34m-2.281 0h-2.277m-2.282 0h-2.34m-2.28 0h-2.34m-2.282 0h-2.34m-2.218 0h-2.34m-2.282 0h-2.34m-2.277 0h-2.34" fill="none" stroke-width=".6" stroke-linecap="round" stroke-linejoin="round" stroke="maroon" stroke-miterlimit="10"/><path d="M493.68 222.602h14.398m17.282 11.519h2.878m0 0v11.52" fill="none" stroke-width=".36" stroke-linecap="round" stroke-linejoin="round" stroke="maroon" stroke-miterlimit="10"/><path d="M534 205.32v2.34m0 2.281v2.34m0 2.278v2.34m0 2.281v2.28m0 2.278v2.34m0 2.282v2.34m0 2.28v2.34m0 2.22v2.339m-34.559-34.559v2.34m0 2.281v2.34m0 2.278v2.34m0 2.281v2.28m0 2.278v2.34m0 2.282v2.34m0 2.28v2.34m0 2.22v2.339" fill="none" stroke-width=".6" stroke-linecap="round" stroke-linejoin="round" stroke="maroon" stroke-miterlimit="10"/><path d="M430.379 182.34v5.762m0 17.218v-5.761" fill="none" stroke-width=".36" stroke-linecap="round" stroke-linejoin="round" stroke="maroon" stroke-miterlimit="10"/><path d="M432.36 199.559v-11.457m-4.02 0v11.457m4.02-11.457h-4.02m4.02 11.457h-4.02" fill="none" stroke-width=".6" stroke-linecap="round" stroke-linejoin="round" stroke="maroon" stroke-miterlimit="10"/><path d="M447.66 228.36v5.761m0 17.277v-5.757" fill="none" stroke-width=".36" stroke-linecap="round" stroke-linejoin="round" stroke="maroon" stroke-miterlimit="10"/><path d="M445.621 245.64v-11.519m4.019 0v11.52m-4.019-11.52h4.02m-4.02 11.519h4.02" fill="none" stroke-width=".6" stroke-linecap="round" stroke-linejoin="round" stroke="maroon" stroke-miterlimit="10"/><path d="M349.738 216.84v5.762m0 17.277v-5.758" fill="none" stroke-width=".36" stroke-linecap="round" stroke-linejoin="round" stroke="maroon" stroke-miterlimit="10"/><path d="M351.781 234.121v-11.52m-4.019.001v11.52m4.019-11.52h-4.02m4.02 11.519h-4.02" fill="none" stroke-width=".6" stroke-linecap="round" stroke-linejoin="round" stroke="maroon" stroke-miterlimit="10"/><path d="M349.738 251.398v5.762m0 17.281v-5.761" fill="none" stroke-width=".36" stroke-linecap="round" stroke-linejoin="round" stroke="maroon" stroke-miterlimit="10"/><path d="M351.781 268.68v-11.52m-4.019 0v11.52m4.019-11.52h-4.02m4.02 11.52h-4.02" fill="none" stroke-width=".6" stroke-linecap="round" stroke-linejoin="round" stroke="maroon" stroke-miterlimit="10"/><use xlink:href="#Q" x="327.279" y="285.238" fill="maroon"/><path d="M338.281 280.2H334.2m-7.438 0h3.718" fill="none" stroke-width=".36" stroke-linecap="round" stroke-linejoin="round" stroke="maroon" stroke-miterlimit="10"/><path d="M333.059 284.82h1.441v-9.238h-1.441zm0 0" fill="maroon" stroke-width=".12" stroke-linecap="round" stroke-linejoin="round" stroke="maroon" stroke-miterlimit="10"/><path d="M330.48 284.64h1.442m0 0v-8.878m0 0h-1.442m0 0v4.437m0 .001v4.44" fill="none" stroke-width=".3" stroke-linecap="round" stroke-linejoin="round" stroke="maroon" stroke-miterlimit="10"/><use xlink:href="#R" x="526.092" y="288.836" fill="maroon"/><path d="M528.238 297.48v-4.02m0-7.5v3.72" fill="none" stroke-width=".36" stroke-linecap="round" stroke-linejoin="round" stroke="maroon" stroke-miterlimit="10"/><path d="M523.621 293.762h9.238v-1.442h-9.238zm0 0" fill="maroon" stroke-width=".12" stroke-linecap="round" stroke-linejoin="round" stroke="maroon" stroke-miterlimit="10"/><path d="M523.8 289.68v1.441m0 0h8.938m0 0v-1.441m0 0h-4.5m0 0h-4.437" fill="none" stroke-width=".3" stroke-linecap="round" stroke-linejoin="round" stroke="maroon" stroke-miterlimit="10"/><path d="M528.238 280.2v-5.759m0-17.281v5.762" fill="none" stroke-width=".36" stroke-linecap="round" stroke-linejoin="round" stroke="maroon" stroke-miterlimit="10"/><path d="M530.281 262.922v11.52m-4.019-.001v-11.52m4.019 11.52h-4.02m4.02-11.519h-4.02m21.298 51.84H555" fill="none" stroke-width=".6" stroke-linecap="round" stroke-linejoin="round" stroke="maroon" stroke-miterlimit="10"/><path d="M551.281 309v5.762" fill="none" stroke-width=".36" stroke-linecap="round" stroke-linejoin="round" stroke="maroon" stroke-miterlimit="10"/><path d="M549 315.898h4.559m-3.118 1.142h1.68M449.64 268.68h7.5" fill="none" stroke-width=".6" stroke-linecap="round" stroke-linejoin="round" stroke="maroon" stroke-miterlimit="10"/><path d="M453.422 262.922v5.758" fill="none" stroke-width=".36" stroke-linecap="round" stroke-linejoin="round" stroke="maroon" stroke-miterlimit="10"/><path d="M451.078 269.82h4.621m-3.179 1.14h1.742" fill="none" stroke-width=".6" stroke-linecap="round" stroke-linejoin="round" stroke="maroon" stroke-miterlimit="10"/><path d="M407.34 208.2v5.76m0 23.04v-5.762m1.2-20.16H411m-1.262-1.199v2.46m-1.198 21.782H411" fill="none" stroke-width=".36" stroke-linecap="round" stroke-linejoin="round" stroke="maroon" stroke-miterlimit="10"/><path d="M421.738 163.621l-2.879-4.32m.001-.001l-2.88 4.321" fill="none" stroke-width=".6" stroke-linecap="round" stroke-linejoin="round" stroke="maroon" stroke-miterlimit="10"/><path d="M418.86 165.059V159.3" fill="none" stroke-width=".36" stroke-linecap="round" stroke-linejoin="round" stroke="maroon" stroke-miterlimit="10"/><path d="M328.738 257.16h7.5" fill="none" stroke-width=".6" stroke-linecap="round" stroke-linejoin="round" stroke="maroon" stroke-miterlimit="10"/><path d="M332.52 251.398v5.762" fill="none" stroke-width=".36" stroke-linecap="round" stroke-linejoin="round" stroke="maroon" stroke-miterlimit="10"/><path d="M330.18 258.3h4.62m-3.179 1.2h1.738m71.101-6.66l2.88 4.32m0 0l2.879-4.32" fill="none" stroke-width=".6" stroke-linecap="round" stroke-linejoin="round" stroke="maroon" stroke-miterlimit="10"/><path d="M407.34 251.398v5.762" fill="none" stroke-width=".36" stroke-linecap="round" stroke-linejoin="round" stroke="maroon" stroke-miterlimit="10"/><path d="M363.3 314.762h7.5" fill="none" stroke-width=".6" stroke-linecap="round" stroke-linejoin="round" stroke="maroon" stroke-miterlimit="10"/><path d="M367.02 309v5.762" fill="none" stroke-width=".36" stroke-linecap="round" stroke-linejoin="round" stroke="maroon" stroke-miterlimit="10"/><path d="M364.738 315.898h4.621m-3.179 1.142h1.742" fill="none" stroke-width=".6" stroke-linecap="round" stroke-linejoin="round" stroke="maroon" stroke-miterlimit="10"/><path d="M430.379 401.102v5.757m0 17.281v-5.761" fill="none" stroke-width=".36" stroke-linecap="round" stroke-linejoin="round" stroke="maroon" stroke-miterlimit="10"/><path d="M432.36 418.379v-11.52m-4.02.001v11.519m4.02-11.519h-4.02m4.02 11.519h-4.02" fill="none" stroke-width=".6" stroke-linecap="round" stroke-linejoin="round" stroke="maroon" stroke-miterlimit="10"/><path d="M453.422 412.621v-5.762m0-17.281v5.762" fill="none" stroke-width=".36" stroke-linecap="round" stroke-linejoin="round" stroke="maroon" stroke-miterlimit="10"/><path d="M455.398 395.34v11.52m-4.019 0v-11.52m4.019 11.52h-4.02m4.02-11.52h-4.02" fill="none" stroke-width=".6" stroke-linecap="round" stroke-linejoin="round" stroke="maroon" stroke-miterlimit="10"/><path d="M349.738 366.54v5.76m0 17.278v-5.758" fill="none" stroke-width=".36" stroke-linecap="round" stroke-linejoin="round" stroke="maroon" stroke-miterlimit="10"/><path d="M351.781 383.82V372.3m-4.019 0v11.52m4.019-11.52h-4.02m4.02 11.52h-4.02" fill="none" stroke-width=".6" stroke-linecap="round" stroke-linejoin="round" stroke="maroon" stroke-miterlimit="10"/><path d="M349.738 355.078v-5.758m0-17.28v5.76" fill="none" stroke-width=".36" stroke-linecap="round" stroke-linejoin="round" stroke="maroon" stroke-miterlimit="10"/><path d="M351.781 337.8v11.52m-4.019 0V337.8m4.019 11.52h-4.02m4.02-11.52h-4.02" fill="none" stroke-width=".6" stroke-linecap="round" stroke-linejoin="round" stroke="maroon" stroke-miterlimit="10"/><use xlink:href="#Q" x="327.279" y="324.104" fill="maroon"/><path d="M338.281 326.281H334.2m-7.438 0h3.718" fill="none" stroke-width=".36" stroke-linecap="round" stroke-linejoin="round" stroke="maroon" stroke-miterlimit="10"/><path d="M333.059 330.898h1.441v-9.238h-1.441zm0 0" fill="maroon" stroke-width=".12" stroke-linecap="round" stroke-linejoin="round" stroke="maroon" stroke-miterlimit="10"/><path d="M330.48 321.781h1.442m0 0v8.938m0 0h-1.442m0 0v-4.438m0 0v-4.5" fill="none" stroke-width=".3" stroke-linecap="round" stroke-linejoin="round" stroke="maroon" stroke-miterlimit="10"/><use xlink:href="#R" x="526.092" y="319.966" fill="maroon"/><path d="M528.238 309v4.02m0 7.5v-3.782" fill="none" stroke-width=".36" stroke-linecap="round" stroke-linejoin="round" stroke="maroon" stroke-miterlimit="10"/><path d="M523.621 314.16h9.238v-1.441h-9.238zm0 0" fill="maroon" stroke-width=".12" stroke-linecap="round" stroke-linejoin="round" stroke="maroon" stroke-miterlimit="10"/><path d="M523.8 316.738v-1.437m0-.001h8.938m0 0v1.438m0 0h-4.5m0 0h-4.437" fill="none" stroke-width=".3" stroke-linecap="round" stroke-linejoin="round" stroke="maroon" stroke-miterlimit="10"/><path d="M528.238 326.281v5.758m0 17.281v-5.761" fill="none" stroke-width=".36" stroke-linecap="round" stroke-linejoin="round" stroke="maroon" stroke-miterlimit="10"/><path d="M530.281 343.559v-11.52m-4.019.001v11.519m4.019-11.519h-4.02m4.02 11.519h-4.02M449.64 424.14h7.5" fill="none" stroke-width=".6" stroke-linecap="round" stroke-linejoin="round" stroke="maroon" stroke-miterlimit="10"/><path d="M453.422 418.379v5.762" fill="none" stroke-width=".36" stroke-linecap="round" stroke-linejoin="round" stroke="maroon" stroke-miterlimit="10"/><path d="M451.078 425.281h4.621m-3.179 1.199h1.742m-64.203-59.94v34.562m0 0l34.562-17.282m0 0l-34.562-17.28" fill="none" stroke-width=".6" stroke-linecap="round" stroke-linejoin="round" stroke="maroon" stroke-miterlimit="10"/><path d="M392.941 370.86v2.878M391.5 372.3h2.879m-2.879 23.04h2.879m-10.079 0h5.759M384.3 372.3h5.759m51.839 11.52h-5.757" fill="none" stroke-width=".36" stroke-linecap="round" stroke-linejoin="round" stroke="maroon" stroke-miterlimit="10"/><path d="M390.059 382.68l-.239.058m0 0l-.242.063m0-.001l-.238.122m0 0l-.18.18m0 0l-.12.238m0 0l-.118.238m0 0v.242m0 0v.301m0 0l.117.238m.001.001l.12.18m0 0l.18.179m0 0l.238.18m0-.001l.242.063m0-.001l.239.06m0 0l.242-.06m-.001 0l.302-.062m0 0l.18-.18m-.001.001l.18-.18m-.001.001l.118-.18m0 0l.121-.239m.001 0v-.3m0-.001v-.242m0 0l-.122-.238m0 0l-.117-.238m-.001 0l-.179-.18m0 0l-.18-.121m.001-.001l-.301-.062m-.001 0l-.241-.058m-.297 2.28h.597m-.781-.062h.961m-1.019-.058h1.14m-1.262-.059h1.32m-1.378-.062h1.5m-1.559-.059h1.617m-1.679-.058h1.742m-1.801-.062h1.8m-1.858-.06h1.918m-1.918-.058h1.976m-2.038-.062h2.038m-2.038-.06h2.1m-2.16-.062h2.16m-2.16-.058h2.16m-2.16-.059h2.22m-2.278-.062h2.277m-2.277-.059h2.277m-2.277-.059h2.277m-2.277-.062h2.277m-2.277 0h2.277m-2.277-.059h2.277m-2.277-.058h2.277m-2.277-.062h2.277m-2.277-.06h2.277m-2.219-.062h2.22m-2.22-.058h2.16m-2.16-.06h2.16m-2.1-.062h2.1m-2.1-.058h2.038m-1.976-.059h1.976m-1.976-.062h1.918m-1.86-.059h1.86m-1.801-.058h1.742m-1.68-.062h1.617m-1.617-.06h1.559m-1.442-.058h1.383m-1.321-.062h1.2m-1.082-.06h1.024m-.902-.062h.722m-.422-.058h.121m-.062-7.5l-2.88 5.218m.001 0h5.761m0 0l-2.882-5.218m-2.821 5.16h5.703m-5.703-.059h5.64m-5.578-.062h5.579m-5.579-.059h5.52m-5.46-.058h5.46m-5.46-.062h5.402m-5.34-.06h5.34m-5.34-.058h5.277m-5.219-.062h5.16m-5.16-.06h5.16m-5.1-.062h5.038m-4.976-.058h4.976m-4.976-.059h4.918m-4.86-.062h4.86m-4.86 0h4.8m-4.741-.059h4.742m-4.742-.059h4.68m-4.618-.062h4.617m-4.617-.059h4.559m-4.5-.058h4.5m-4.5-.062h4.441m-4.383-.06h4.383m-4.383-.062h4.32m-4.258-.058h4.2m-4.2-.06h4.2m-4.14-.062h4.082m-4.024-.058h4.024m-4.024-.059h3.961m-3.899-.062h3.9m-3.9-.059h3.84m-3.78-.058h3.78m-3.78-.062h3.722m-3.66-.06h3.66m-3.66-.058h3.597m-3.539-.062h3.54m-3.54-.06h3.48m-3.421-.062h3.422m-3.422-.058h3.36m-3.298 0h3.239m-3.239-.059h3.239m-3.18-.062h3.121m-3.062-.059h3.062m-3.062-.059h3m-2.938-.062h2.938m-2.938-.059h2.879m-2.82-.058h2.82m-2.82-.062h2.761m-2.703-.06h2.703m-2.703-.062h2.64m-2.578-.058h2.579m-2.579-.06h2.52m-2.46-.062h2.46m-2.46-.058h2.402m-2.34-.059h2.277m-2.277-.062h2.277m-2.219-.059h2.16m-2.1-.058h2.1m-2.1-.062h2.038m-1.976-.06h1.976m-1.976-.058h1.918m-1.86-.062h1.86m-1.86-.06h1.8m-1.741-.062h1.742m-1.742 0h1.68m-1.618-.058h1.617m-1.617-.059h1.559m-1.5-.062h1.5m-1.5-.059h1.441m-1.383-.059h1.32m-1.32-.062h1.32m-1.258-.059h1.2m-1.14-.058h1.14m-1.14-.062h1.082m-1.024-.06h1.024m-1.024-.062h.961m-.899-.058h.9m-.9-.06h.84m-.78-.062h.78m-.78-.058h.722m-.66-.059h.66m-.66-.062h.597m-.539-.059h.54m-.54-.058h.48m-.421-.062h.36m-.36-.06h.36m-.298-.058h.239m-.18-.062h.18m-.18-.06h.121m-.062 0h.062m-.062-.062h.062" fill="none" stroke-width=".12" stroke-linecap="round" stroke-linejoin="round" stroke="maroon" stroke-miterlimit="10"/><path d="M387.18 375.18h5.761" fill="none" stroke-width=".6" stroke-linecap="round" stroke-linejoin="round" stroke="maroon" stroke-miterlimit="10"/><path d="M390.059 392.46l2.882-5.16m0 0h-5.761m0 0l2.879 5.16m0-.062h.062m-.121 0h.121m-.121-.058h.18m-.239-.059h.239m-.239-.062h.297m-.359-.059h.36m-.36-.058h.422m-.481-.062h.48m-.538-.06h.597m-.597-.058h.597m-.659-.062h.722m-.722-.06h.78m-.84-.062h.84m-.84-.058h.9m-.962-.059h.961m-.961-.062h1.024m-1.082-.059h1.082m-1.082-.059h1.14m-1.2-.062h1.2m-1.2-.059h1.259m-1.321-.058h1.32m-1.32-.062h1.383m-1.441-.06h1.441m-1.5-.062h1.559m-1.559-.058h1.559m-1.621-.06h1.68m-1.68 0h1.742m-1.801-.062h1.8m-1.8-.058h1.86m-1.918-.059h1.918m-1.918-.062h1.976m-2.038-.059h2.038m-2.038-.058h2.1m-2.16-.062h2.16m-2.16-.06h2.22m-2.278-.058h2.277m-2.277-.062h2.34m-2.402-.06h2.402m-2.462-.062h2.52m-2.52-.058h2.52m-2.582-.059h2.64m-2.64-.062h2.703M388.68 390h2.761m-2.761-.059h2.82m-2.879-.062h2.879m-2.879-.059h2.938m-3-.058h3m-3-.062h3.062m-3.121-.06h3.121m-3.121-.062h3.18m-3.239-.058h3.239m-3.239 0h3.297m-3.359-.06h3.36m-3.419-.062h3.48m-3.48-.058h3.48m-3.538-.059h3.597m-3.597-.062h3.66m-3.722-.059h3.722m-3.722-.058h3.78m-3.84-.062h3.84m-3.84-.06h3.9m-3.962-.058h3.961m-3.961-.062h4.024m-4.082-.06h4.082m-4.082-.062h4.14m-4.2-.058h4.2m-4.2-.059h4.259m-4.321-.062h4.32m-4.378-.059h4.441m-4.441-.059h4.441m-4.5-.062h4.559m-4.559-.059h4.617m-4.679-.058h4.68m-4.68-.062h4.742m-4.801-.06h4.8m-4.8 0h4.86m-4.918-.062h4.918m-4.918-.058h4.976m-5.038-.06h5.038m-5.038-.062h5.1m-5.16-.058h5.16m-5.16-.059h5.22m-5.278-.062h5.277m-5.339-.059h5.402m-5.402-.058h5.402m-5.462-.062h5.52m-5.52-.06h5.579m-5.641-.058h5.64m-5.64-.062h5.703m-5.761-.06h5.761" fill="none" stroke-width=".12" stroke-linecap="round" stroke-linejoin="round" stroke="maroon" stroke-miterlimit="10"/><path d="M392.941 392.46h-5.761" fill="none" stroke-width=".6" stroke-linecap="round" stroke-linejoin="round" stroke="maroon" stroke-miterlimit="10"/><path d="M384.3 383.82h5.759" fill="none" stroke-width=".36" stroke-linecap="round" stroke-linejoin="round" stroke="maroon" stroke-miterlimit="10"/><path d="M432.781 383.82a4.08 4.08 0 0 1-4.082 4.078 4.076 4.076 0 0 1-4.078-4.078 4.08 4.08 0 1 1 8.16 0zm0 0" fill="none" stroke-width=".6" stroke-linecap="round" stroke-linejoin="round" stroke="maroon" stroke-miterlimit="10"/><path d="M436.14 383.82a4.08 4.08 0 0 1-4.081 4.078 4.079 4.079 0 0 1-4.079-4.078 4.082 4.082 0 0 1 4.079-4.082 4.083 4.083 0 0 1 4.082 4.082zm0 0" fill="none" stroke-width=".6" stroke-linecap="round" stroke-linejoin="round" stroke="maroon" stroke-miterlimit="10"/><path d="M430.379 395.34v-5.762m0 0v-1.976" fill="none" stroke-width=".36" stroke-linecap="round" stroke-linejoin="round" stroke="maroon" stroke-miterlimit="10"/><path d="M315.238 280.2h-5.758m0 0a2.88 2.88 0 0 1-2.878 2.878 2.88 2.88 0 1 1 2.878-2.879zm5.758 23.038h-5.758m0 0a2.882 2.882 0 0 1-2.878 2.883 2.88 2.88 0 1 1 0-5.762 2.88 2.88 0 0 1 2.878 2.88zm5.758 23.043h-5.758m0 0a2.88 2.88 0 0 1-2.878 2.88 2.88 2.88 0 1 1 0-5.763 2.88 2.88 0 0 1 2.878 2.883zm155.461-92.16h5.758m5.761 0a2.88 2.88 0 0 1-2.882 2.879 2.88 2.88 0 0 1-2.879-2.879 2.88 2.88 0 1 1 5.762 0zm-11.519 11.519h5.758m5.761 0a2.88 2.88 0 0 1-2.882 2.88 2.88 2.88 0 0 1 0-5.758 2.88 2.88 0 0 1 2.883 2.879zm-5.76 149.7h5.76m5.759 0a2.88 2.88 0 1 1-5.758 0 2.88 2.88 0 0 1 5.758 0zm0 0" fill="none" stroke-width=".6" stroke-linecap="round" stroke-linejoin="round" stroke="maroon" stroke-miterlimit="10"/><path d="M516.719 389.578h-2.88m.001 0l-5.578-2.758m3.179-6.058l1.137-2.043m0 0l-2.34-.297m0 0l1.203 2.34m2.399-2.703l-1.262.66m0 0l-3.777 1.922" fill="none" stroke-width=".36" stroke-linecap="round" stroke-linejoin="round" stroke="maroon" stroke-miterlimit="10"/><path d="M510.84 378.719l1.32.18m0-.001l-.719 1.262" fill="none" stroke-width=".72" stroke-linecap="round" stroke-linejoin="round" stroke="maroon" stroke-miterlimit="10"/><path d="M511.441 380.16l-.601-1.14m0 0h.84m0 0l-.239.601" fill="none" stroke-width=".6" stroke-linecap="round" stroke-linejoin="round" stroke="maroon" stroke-miterlimit="10"/><path d="M507 389.578h1.68v-11.52H507zm0 0" fill="maroon" stroke-width=".12" stroke-linecap="round" stroke-linejoin="round" stroke="maroon" stroke-miterlimit="10"/><path d="M493.68 383.82h5.761m28.797-22.98v5.7m0 17.28h-2.879m.001 0l-5.579-2.761m3.117-6.059l1.204-2.04m0 0l-2.34-.3m0 0l1.136 2.34m2.462-2.7l-1.258.66m0 0l-3.782 1.919" fill="none" stroke-width=".36" stroke-linecap="round" stroke-linejoin="round" stroke="maroon" stroke-miterlimit="10"/><path d="M522.36 372.96l1.261.18m0 0l-.723 1.258" fill="none" stroke-width=".72" stroke-linecap="round" stroke-linejoin="round" stroke="maroon" stroke-miterlimit="10"/><path d="M522.898 374.398l-.539-1.136m.001 0h.84m0 0l-.302.597" fill="none" stroke-width=".6" stroke-linecap="round" stroke-linejoin="round" stroke="maroon" stroke-miterlimit="10"/><path d="M518.46 383.82h1.68V372.3h-1.68zm0 0" fill="maroon" stroke-width=".12" stroke-linecap="round" stroke-linejoin="round" stroke="maroon" stroke-miterlimit="10"/><path d="M513.84 378.059h5.762" fill="none" stroke-width=".36" stroke-linecap="round" stroke-linejoin="round" stroke="maroon" stroke-miterlimit="10"/><path d="M516.719 389.04h-.117m0 0l-.18.062m0 0l-.121.117m-.001 0l-.062.12m0 .001l-.058.12m0 0v.118m0 0v.184m0 0l.058.117m0 0l.063.121m-.001 0l.122.121m0 0l.18.059m0 0h.117m0 0h.18m-.001 0l.122-.059m0 0l.12-.121m0 0l.122-.121m0 0l.058-.117m0 0v-.184m0 0v-.117m0-.001l-.058-.12m0 0l-.121-.121m-.001 0l-.12-.117m0 0l-.122-.063m0 .001h-.18m-.418.96h.84m-.96-.18h1.082m-1.082-.242h1.14m-1.14-.18h1.082m-.962-.179h.84" fill="none" stroke-width=".3" stroke-linecap="round" stroke-linejoin="round" stroke="maroon" stroke-miterlimit="10"/><path d="M516.719 389.578h11.52m-.001 0v-5.758m-9.778 11.52a1.74 1.74 0 0 1-3.48 0 1.74 1.74 0 1 1 3.48 0zm0 0" fill="none" stroke-width=".36" stroke-linecap="round" stroke-linejoin="round" stroke="maroon" stroke-miterlimit="10"/><path d="M517.86 395.34h-2.282m1.141 1.14v-2.28" fill="none" stroke-width=".3" stroke-linecap="round" stroke-linejoin="round" stroke="maroon" stroke-miterlimit="10"/><path d="M516.719 393.66v-4.082" fill="none" stroke-width=".36" stroke-linecap="round" stroke-linejoin="round" stroke="maroon" stroke-miterlimit="10"/><path d="M499.441 401.102h2.34m2.278 0h2.34m2.281 0h2.34m2.218 0h2.34m2.282 0h2.34m2.28 0h2.34m2.282 0h2.277m2.281 0H534m0-34.562h-2.34m-2.281 0h-2.277m-2.282 0h-2.34m-2.28 0h-2.34m-2.282 0h-2.34m-2.218 0h-2.34m-2.282 0h-2.34m-2.277 0h-2.34" fill="none" stroke-width=".6" stroke-linecap="round" stroke-linejoin="round" stroke="maroon" stroke-miterlimit="10"/><path d="M493.68 383.82h14.398m17.282-11.52h2.878m0 0v-11.46" fill="none" stroke-width=".36" stroke-linecap="round" stroke-linejoin="round" stroke="maroon" stroke-miterlimit="10"/><path d="M534 401.102v-2.34m0-2.222v-2.34m0-2.278v-2.344m0-2.278v-2.34m0-2.28v-2.282m0-2.277v-2.34m0-2.281v-2.34m0-2.281v-2.34m-34.559 34.563v-2.34m0-2.222v-2.34m0-2.278v-2.344m0-2.278v-2.34m0-2.28v-2.282m0-2.277v-2.34m0-2.281v-2.34m0-2.281v-2.34M328.738 372.3h7.5" fill="none" stroke-width=".6" stroke-linecap="round" stroke-linejoin="round" stroke="maroon" stroke-miterlimit="10"/><path d="M332.52 366.54v5.76" fill="none" stroke-width=".36" stroke-linecap="round" stroke-linejoin="round" stroke="maroon" stroke-miterlimit="10"/><path d="M330.18 373.5h4.62m-3.179 1.14h1.738m94.141 56.7l2.879 4.32m0 0l2.883-4.32" fill="none" stroke-width=".6" stroke-linecap="round" stroke-linejoin="round" stroke="maroon" stroke-miterlimit="10"/><path d="M430.379 429.898v5.762" fill="none" stroke-width=".36" stroke-linecap="round" stroke-linejoin="round" stroke="maroon" stroke-miterlimit="10"/><path d="M430.379 205.32v5.758M338.281 280.2h11.457m0 0v-5.759m0-57.601v-5.762m0 0h34.563m-.001 11.524h-17.28" fill="none" stroke-width=".36" stroke-linecap="round" stroke-linejoin="round" stroke="green" stroke-miterlimit="10"/><g clip-path="url(#S)"><path d="M367.02 222.602v-74.82" fill="none" stroke-width=".36" stroke-linecap="round" stroke-linejoin="round" stroke="green" stroke-miterlimit="10"/></g><g clip-path="url(#T)"><path d="M367.02 147.781h178.5" fill="none" stroke-width=".36" stroke-linecap="round" stroke-linejoin="round" stroke="green" stroke-miterlimit="10"/></g><g clip-path="url(#U)"><path d="M545.52 147.781v103.617" fill="none" stroke-width=".36" stroke-linecap="round" stroke-linejoin="round" stroke="green" stroke-miterlimit="10"/></g><path d="M545.52 251.398h-17.282m0 0v-5.757m0 11.519v-5.762" fill="none" stroke-width=".36" stroke-linecap="round" stroke-linejoin="round" stroke="green" stroke-miterlimit="10"/><path d="M529.379 251.398c0 .633-.508 1.141-1.14 1.141a1.136 1.136 0 0 1-1.137-1.14c0-.63.507-1.137 1.136-1.137.633 0 1.14.508 1.14 1.136" fill-rule="evenodd" fill="green"/><path d="M529.379 251.398c0 .633-.508 1.141-1.14 1.141a1.136 1.136 0 0 1-1.137-1.14c0-.63.507-1.137 1.136-1.137.633 0 1.14.508 1.14 1.136zm0 0" fill="none" stroke-width=".12" stroke-linecap="round" stroke-linejoin="round" stroke="green" stroke-miterlimit="10"/><path d="M551.281 309v-5.762m0 0h-23.043m0 0v-5.758m0 11.52v-5.762" fill="none" stroke-width=".36" stroke-linecap="round" stroke-linejoin="round" stroke="green" stroke-miterlimit="10"/><path d="M529.379 303.238c0 .633-.508 1.14-1.14 1.14a1.136 1.136 0 0 1-1.137-1.14c0-.629.507-1.136 1.136-1.136.633 0 1.14.507 1.14 1.136" fill-rule="evenodd" fill="green"/><path d="M529.379 303.238c0 .633-.508 1.14-1.14 1.14a1.136 1.136 0 0 1-1.137-1.14c0-.629.507-1.136 1.136-1.136.633 0 1.14.507 1.14 1.136zm0 0" fill="none" stroke-width=".12" stroke-linecap="round" stroke-linejoin="round" stroke="green" stroke-miterlimit="10"/><path d="M447.66 251.398v5.762m0 0h5.762m0 0v5.762m11.519-17.282h-5.761m0 0v11.52m0 0h-5.758" fill="none" stroke-width=".36" stroke-linecap="round" stroke-linejoin="round" stroke="green" stroke-miterlimit="10"/><path d="M454.559 257.16a1.139 1.139 0 1 1-2.278 0 1.14 1.14 0 1 1 2.278 0" fill-rule="evenodd" fill="green"/><path d="M454.559 257.16a1.139 1.139 0 1 1-2.278 0 1.14 1.14 0 1 1 2.278 0zm0 0" fill="none" stroke-width=".12" stroke-linecap="round" stroke-linejoin="round" stroke="green" stroke-miterlimit="10"/><path d="M349.738 251.398v-5.757m0-.001v-5.761m0 5.761h17.282m0 0v-11.519" fill="none" stroke-width=".36" stroke-linecap="round" stroke-linejoin="round" stroke="green" stroke-miterlimit="10"/><path d="M350.879 245.64a1.14 1.14 0 1 1-2.279.003 1.14 1.14 0 0 1 2.279-.002" fill-rule="evenodd" fill="green"/><path d="M350.879 245.64a1.14 1.14 0 1 1-2.279.003 1.14 1.14 0 0 1 2.279-.002zm0 0" fill="none" stroke-width=".12" stroke-linecap="round" stroke-linejoin="round" stroke="green" stroke-miterlimit="10"/><path d="M367.02 234.121h17.28m-34.562 11.519H332.52m0 0v5.758M367.02 309v-5.762m0 0h-51.782m34.5 51.84v5.762m0 0h17.282m0 0v11.46" fill="none" stroke-width=".36" stroke-linecap="round" stroke-linejoin="round" stroke="green" stroke-miterlimit="10"/><path d="M350.879 360.84a1.14 1.14 0 1 1-2.279.002 1.14 1.14 0 0 1 2.279-.002" fill-rule="evenodd" fill="green"/><path d="M350.879 360.84a1.14 1.14 0 1 1-2.279.002 1.14 1.14 0 0 1 2.279-.002zm0 0" fill="none" stroke-width=".12" stroke-linecap="round" stroke-linejoin="round" stroke="green" stroke-miterlimit="10"/><path d="M367.02 372.3h17.28m-34.562-11.46H332.52m0 0v5.7m17.218 0v-5.7m103.684 57.539v-5.758m-11.524-190.019h5.762m0 0v5.757m0-5.757h11.52" fill="none" stroke-width=".36" stroke-linecap="round" stroke-linejoin="round" stroke="green" stroke-miterlimit="10"/><path d="M448.8 222.602c0 .628-.51 1.136-1.14 1.136a1.139 1.139 0 1 1 0-2.277c.63 0 1.14.508 1.14 1.14" fill-rule="evenodd" fill="green"/><path d="M448.8 222.602c0 .628-.51 1.136-1.14 1.136a1.139 1.139 0 1 1 0-2.277c.63 0 1.14.508 1.14 1.14zm0 0" fill="none" stroke-width=".12" stroke-linecap="round" stroke-linejoin="round" stroke="green" stroke-miterlimit="10"/><path d="M459.18 222.602h34.5m-28.739 11.519h-5.761m0 0v-11.52" fill="none" stroke-width=".36" stroke-linecap="round" stroke-linejoin="round" stroke="green" stroke-miterlimit="10"/><path d="M460.32 222.602c0 .628-.511 1.136-1.14 1.136a1.139 1.139 0 1 1 0-2.277c.629 0 1.14.508 1.14 1.14" fill-rule="evenodd" fill="green"/><path d="M460.32 222.602c0 .628-.511 1.136-1.14 1.136a1.139 1.139 0 1 1 0-2.277c.629 0 1.14.508 1.14 1.14zm0 0" fill="none" stroke-width=".12" stroke-linecap="round" stroke-linejoin="round" stroke="green" stroke-miterlimit="10"/><path d="M418.86 165.059v11.52m0-.001h11.519m0 0v5.762M407.34 208.2v-31.622m0 0h11.52" fill="none" stroke-width=".36" stroke-linecap="round" stroke-linejoin="round" stroke="green" stroke-miterlimit="10"/><path d="M420 176.578a1.14 1.14 0 1 1-2.279.002 1.14 1.14 0 0 1 2.279-.002" fill-rule="evenodd" fill="green"/><path d="M420 176.578a1.14 1.14 0 1 1-2.279.002 1.14 1.14 0 0 1 2.279-.002zm0 0" fill="none" stroke-width=".12" stroke-linecap="round" stroke-linejoin="round" stroke="green" stroke-miterlimit="10"/><path d="M430.379 424.14v5.758m-23.039-178.5V237m-92.102 43.2h11.524m11.519 46.081h11.457m0 0v5.758m0 63.301h34.563m-34.563-5.762v5.762m34.562-11.52h-17.28" fill="none" stroke-width=".36" stroke-linecap="round" stroke-linejoin="round" stroke="green" stroke-miterlimit="10"/><g clip-path="url(#V)"><path d="M367.02 383.82v63.36" fill="none" stroke-width=".36" stroke-linecap="round" stroke-linejoin="round" stroke="green" stroke-miterlimit="10"/></g><g clip-path="url(#W)"><path d="M367.02 447.18h178.5" fill="none" stroke-width=".36" stroke-linecap="round" stroke-linejoin="round" stroke="green" stroke-miterlimit="10"/></g><g clip-path="url(#X)"><path d="M545.52 447.18v-92.102" fill="none" stroke-width=".36" stroke-linecap="round" stroke-linejoin="round" stroke="green" stroke-miterlimit="10"/></g><path d="M545.52 355.078h-17.282m0 0v5.762m0-11.52v5.758" fill="none" stroke-width=".36" stroke-linecap="round" stroke-linejoin="round" stroke="green" stroke-miterlimit="10"/><path d="M529.379 355.078c0 .633-.508 1.14-1.14 1.14a1.136 1.136 0 0 1-1.137-1.14c0-.629.507-1.137 1.136-1.137.633 0 1.14.508 1.14 1.137" fill-rule="evenodd" fill="green"/><path d="M529.379 355.078c0 .633-.508 1.14-1.14 1.14a1.136 1.136 0 0 1-1.137-1.14c0-.629.507-1.137 1.136-1.137.633 0 1.14.508 1.14 1.137zm0 0" fill="none" stroke-width=".12" stroke-linecap="round" stroke-linejoin="round" stroke="green" stroke-miterlimit="10"/><path d="M441.898 383.82h11.524m0 0h11.52m-.001 0h28.739m-28.739 11.52v-11.52" fill="none" stroke-width=".36" stroke-linecap="round" stroke-linejoin="round" stroke="green" stroke-miterlimit="10"/><path d="M466.078 383.82a1.139 1.139 0 1 1-2.277 0 1.139 1.139 0 0 1 2.277 0" fill-rule="evenodd" fill="green"/><path d="M466.078 383.82a1.139 1.139 0 1 1-2.277 0 1.139 1.139 0 0 1 2.277 0zm0 0" fill="none" stroke-width=".12" stroke-linecap="round" stroke-linejoin="round" stroke="green" stroke-miterlimit="10"/><path d="M464.941 395.34h5.758m-17.277-5.762v-5.758" fill="none" stroke-width=".36" stroke-linecap="round" stroke-linejoin="round" stroke="green" stroke-miterlimit="10"/><path d="M454.559 383.82a1.139 1.139 0 1 1-2.278 0 1.14 1.14 0 1 1 2.278 0" fill-rule="evenodd" fill="green"/><path d="M454.559 383.82a1.139 1.139 0 1 1-2.278 0 1.14 1.14 0 1 1 2.278 0zm0 0" fill="none" stroke-width=".12" stroke-linecap="round" stroke-linejoin="round" stroke="green" stroke-miterlimit="10"/><path d="M315.238 326.281h11.524m103.617 74.821v-5.762m97.859-69.059v-5.761m0-40.32v5.76" fill="none" stroke-width=".36" stroke-linecap="round" stroke-linejoin="round" stroke="green" stroke-miterlimit="10"/></svg>