<svg xmlns:xlink="http://www.w3.org/1999/xlink" width="842pt" height="595pt" viewBox="0 0 842 595">
  <defs/>
  <defs>
    <symbol id="AGC-Amplifier-LM13600-Monosch-1_svg__a" overflow="visible"/>
    <symbol id="AGC-Amplifier-LM13600-Monosch-1_svg__b" overflow="visible">
      <path d="M1.875 0l.828-2.453V0h.36v-2.922H2.53L1.687-.375.813-2.922H.297V0h.36v-2.453L1.483 0zm0 0"/>
    </symbol>
    <symbol id="AGC-Amplifier-LM13600-Monosch-1_svg__c" overflow="visible"/>
    <symbol id="AGC-Amplifier-LM13600-Monosch-1_svg__d" overflow="visible">
      <path d="M.89-1.313h.188c.395 0 .594.172.594.516 0 .188-.055.336-.156.438-.106.093-.25.14-.438.14-.187 0-.336-.047-.437-.14C.547-.461.492-.617.484-.83H.125c.008.118.023.216.047.298.02.086.047.152.078.203A.69.69 0 0 0 .563 0c.132.063.3.094.5.094.144 0 .273-.024.39-.063a.863.863 0 0 0 .313-.172.846.846 0 0 0 .187-.28.907.907 0 0 0 .078-.376.658.658 0 0 0-.484-.672c.27-.101.406-.3.406-.593a1.124 1.124 0 0 0-.078-.329.54.54 0 0 0-.156-.234.659.659 0 0 0-.282-.156 1.034 1.034 0 0 0-.359-.063c-.293 0-.512.078-.656.235-.149.156-.227.386-.234.687h.359c0-.094.004-.164.015-.219a.427.427 0 0 1 .047-.14.422.422 0 0 1 .172-.188.68.68 0 0 1 .297-.062c.164 0 .29.043.375.125a.559.559 0 0 1 .14.36.572.572 0 0 1-.077.233.307.307 0 0 1-.157.141.88.88 0 0 1-.093.031.4.4 0 0 1-.125.032H.89zm0 0"/>
    </symbol>
    <symbol id="AGC-Amplifier-LM13600-Monosch-1_svg__e" overflow="visible">
      <path d="M2-2.11a.956.956 0 0 0-.11-.296.702.702 0 0 0-.171-.235.54.54 0 0 0-.235-.156.931.931 0 0 0-.734.063 1.124 1.124 0 0 0-.328.296 1.3 1.3 0 0 0-.172.422 3.131 3.131 0 0 0-.078.719c0 .117.004.227.016.328.007.106.019.2.03.281.02.086.048.165.079.235.031.062.066.125.11.187A.815.815 0 0 0 .703 0a.93.93 0 0 0 .422.094A.934.934 0 0 0 1.5.016a.803.803 0 0 0 .484-.484 1.03 1.03 0 0 0 .079-.391.823.823 0 0 0-.079-.36 1.056 1.056 0 0 0-.171-.297.713.713 0 0 0-.282-.187.978.978 0 0 0-.343-.063c-.282 0-.5.106-.657.313 0-.344.051-.61.156-.797a.535.535 0 0 1 .485-.281c.125 0 .226.039.312.11a.53.53 0 0 1 .157.312zm-.86.657c.176 0 .301.043.376.125a.77.77 0 0 1 .14.234.634.634 0 0 1 .047.25.62.62 0 0 1-.047.25.837.837 0 0 1-.125.203.606.606 0 0 1-.187.125.456.456 0 0 1-.203.047.57.57 0 0 1-.235-.047A.527.527 0 0 1 .72-.39a.731.731 0 0 1-.125-.203.971.971 0 0 1-.031-.265c0-.082.007-.16.03-.235a.584.584 0 0 1 .547-.36zm0 0"/>
    </symbol>
    <symbol id="AGC-Amplifier-LM13600-Monosch-1_svg__f" overflow="visible">
      <path d="M1.11-2.844a.907.907 0 0 0-.376.078.689.689 0 0 0-.28.235 1.39 1.39 0 0 0-.22.484 3.072 3.072 0 0 0-.062.672c0 .48.078.844.234 1.094.156.25.39.375.703.375.301 0 .532-.117.688-.36.156-.25.234-.613.234-1.093 0-.27-.027-.5-.078-.688a1.459 1.459 0 0 0-.187-.484.897.897 0 0 0-.297-.235.889.889 0 0 0-.36-.078zm0 .313c.374 0 .562.383.562 1.14 0 .407-.047.711-.14.907a.464.464 0 0 1-.438.28C.719-.203.53-.593.53-1.374c0-.383.047-.672.14-.86.095-.195.24-.296.438-.296zm0 0"/>
    </symbol>
    <symbol id="AGC-Amplifier-LM13600-Monosch-1_svg__g" overflow="visible"/>
    <symbol id="AGC-Amplifier-LM13600-Monosch-1_svg__h" overflow="visible"/>
    <symbol id="AGC-Amplifier-LM13600-Monosch-1_svg__i" overflow="visible"/>
    <symbol id="AGC-Amplifier-LM13600-Monosch-1_svg__j" overflow="visible"/>
    <symbol id="AGC-Amplifier-LM13600-Monosch-1_svg__k" overflow="visible"/>
    <symbol id="AGC-Amplifier-LM13600-Monosch-1_svg__l" overflow="visible">
      <path d="M1.938 0v-2.11h-.329v1.204a1.429 1.429 0 0 1-.062.297.577.577 0 0 1-.11.218.404.404 0 0 1-.171.141.598.598 0 0 1-.235.047.47.47 0 0 1-.328-.11.395.395 0 0 1-.11-.296v-1.5H.267v1.625c0 .093.015.18.046.25.032.062.07.12.126.172a.526.526 0 0 0 .218.109.786.786 0 0 0 .485.015.534.534 0 0 0 .17-.062.985.985 0 0 0 .172-.11c.051-.05.102-.113.157-.187V0zm0 0"/>
    </symbol>
    <symbol id="AGC-Amplifier-LM13600-Monosch-1_svg__m" overflow="visible"/>
    <symbol id="AGC-Amplifier-LM13600-Monosch-1_svg__n" overflow="visible">
      <path d="M1.578-1.5c.063-.04.117-.082.172-.125a.63.63 0 0 0 .125-.125.486.486 0 0 0 .063-.156c.007-.051.015-.114.015-.188a.702.702 0 0 0-.234-.531.675.675 0 0 0-.266-.156 1.002 1.002 0 0 0-.703 0 .624.624 0 0 0-.266.156.71.71 0 0 0-.234.531.85.85 0 0 0 .016.188.41.41 0 0 0 .062.156.54.54 0 0 0 .125.125c.05.043.113.086.188.125-.336.156-.496.39-.485.703 0 .137.02.262.063.375.039.106.101.2.187.281.094.075.196.133.313.172a1.187 1.187 0 0 0 .765 0 .863.863 0 0 0 .313-.172.846.846 0 0 0 .187-.28.875.875 0 0 0 .079-.36c0-.32-.165-.563-.485-.719zM1.11-2.531c.145 0 .258.043.344.125.094.086.14.195.14.328a.414.414 0 0 1-.14.328.505.505 0 0 1-.344.11.587.587 0 0 1-.375-.11.43.43 0 0 1-.125-.328c0-.133.04-.242.125-.328a.55.55 0 0 1 .375-.125zm0 1.187c.082 0 .16.016.235.047.07.024.133.059.187.11A.666.666 0 0 1 1.657-1a.57.57 0 0 1 0 .453.917.917 0 0 1-.172.219c-.074.074-.203.11-.39.11A.74.74 0 0 1 .859-.25a.527.527 0 0 1-.187-.125.587.587 0 0 1-.125-.172.74.74 0 0 1-.031-.234A.63.63 0 0 1 .546-1a.606.606 0 0 1 .126-.188.45.45 0 0 1 .187-.109.62.62 0 0 1 .25-.047zm0 0"/>
    </symbol>
    <symbol id="AGC-Amplifier-LM13600-Monosch-1_svg__o" overflow="visible">
      <path d="M2.844-1.547H1.625v.328h.89v.078a.907.907 0 0 1-.078.375.846.846 0 0 1-.187.282 1.2 1.2 0 0 1-.297.187.95.95 0 0 1-.36.063c-.148 0-.288-.024-.421-.078a.821.821 0 0 1-.313-.22.846.846 0 0 1-.14-.171 12.27 12.27 0 0 1-.094-.219 4.673 4.673 0 0 1-.063-.25 2.263 2.263 0 0 1-.015-.281c0-.176.02-.336.062-.484.051-.145.125-.27.22-.375a.973.973 0 0 1 .327-.235.93.93 0 0 1 .422-.094.99.99 0 0 1 .313.047.812.812 0 0 1 .296.156c.114.075.192.204.235.391h.39a1.28 1.28 0 0 0-.156-.39 1.155 1.155 0 0 0-.328-.344c-.156-.125-.406-.188-.75-.188-.355 0-.648.094-.875.281a1.11 1.11 0 0 0-.234.235 2.506 2.506 0 0 0-.203.39 1.726 1.726 0 0 0-.094.626c0 .23.031.437.094.625.07.187.164.351.28.484.114.137.255.242.423.312a1.38 1.38 0 0 0 1.078 0 1.71 1.71 0 0 0 .469-.359l.093.39h.235zm0 0"/>
    </symbol>
    <symbol id="AGC-Amplifier-LM13600-Monosch-1_svg__p" overflow="visible"/>
    <symbol id="AGC-Amplifier-LM13600-Monosch-1_svg__q" overflow="visible">
      <path d="M.36 0h1.124c.188 0 .352-.031.5-.094.145-.07.27-.172.375-.297a1.31 1.31 0 0 0 .235-.453 2.38 2.38 0 0 0 .078-.625 2.15 2.15 0 0 0-.078-.593 1.32 1.32 0 0 0-.235-.47 1.011 1.011 0 0 0-.375-.28 1.147 1.147 0 0 0-.5-.11H.36zm.374-.328v-2.266h.688c.289 0 .508.102.656.297.145.188.223.469.235.844-.012.367-.09.648-.235.844-.148.187-.367.28-.656.28zm0 0"/>
    </symbol>
    <symbol id="AGC-Amplifier-LM13600-Monosch-1_svg__r" overflow="visible"/>
    <symbol id="AGC-Amplifier-LM13600-Monosch-1_svg__s" overflow="visible">
      <path d="M2.656-2.016c-.054-.32-.172-.562-.36-.718-.187-.157-.444-.235-.765-.235-.199 0-.375.031-.531.094-.156.063-.29.152-.39.266a1.472 1.472 0 0 0-.313.53c-.074.2-.11.419-.11.657 0 .242.036.461.11.656.07.2.18.371.328.516.102.117.227.2.375.25.156.063.328.094.516.094.707 0 1.109-.383 1.203-1.157h-.39a1.353 1.353 0 0 1-.126.454.613.613 0 0 1-.281.28.843.843 0 0 1-.406.095.884.884 0 0 1-.391-.078.915.915 0 0 1-.297-.25 1.147 1.147 0 0 1-.203-.375 1.768 1.768 0 0 1-.063-.5c0-.188.02-.352.063-.5a.997.997 0 0 1 .188-.375.885.885 0 0 1 .28-.235.792.792 0 0 1 .391-.094c.125 0 .235.016.329.047a.599.599 0 0 1 .375.313c.039.074.07.164.093.265zm0 0"/>
    </symbol>
    <symbol id="AGC-Amplifier-LM13600-Monosch-1_svg__t" overflow="visible"/>
    <symbol id="AGC-Amplifier-LM13600-Monosch-1_svg__z" overflow="visible"/>
    <symbol id="AGC-Amplifier-LM13600-Monosch-1_svg__C" overflow="visible">
      <path d="M.75-1.266h.953c.164 0 .285.043.36.125.082.086.124.22.124.407v.25c0 .093.004.183.016.265.02.086.04.157.063.219h.468v-.094a.21.21 0 0 1-.093-.078.575.575 0 0 1-.063-.11.995.995 0 0 1-.031-.156v-.25c0-.113-.008-.21-.016-.296a.566.566 0 0 0-.062-.204.34.34 0 0 0-.125-.14 1.076 1.076 0 0 0-.188-.11.945.945 0 0 0 .344-.28.787.787 0 0 0 .11-.423c0-.257-.079-.453-.235-.578-.148-.133-.367-.203-.656-.203H.375V0H.75zm0-.328v-1h.906c.094 0 .172.012.235.031.07.012.132.04.187.079.094.086.14.214.14.39 0 .18-.046.309-.14.39-.094.075-.234.11-.422.11zm0 0"/>
    </symbol>
    <symbol id="AGC-Amplifier-LM13600-Monosch-1_svg__D" overflow="visible">
      <path d="M1.906-2.844H.438L.234-1.297h.329a.428.428 0 0 1 .109-.125.686.686 0 0 1 .25-.125.806.806 0 0 1 .156-.016.539.539 0 0 1 .438.188.626.626 0 0 1 .14.219.8.8 0 0 1 .047.281c0 .105-.016.2-.047.281a.99.99 0 0 1-.172.25c-.086.086-.218.125-.406.125a.587.587 0 0 1-.375-.11A.693.693 0 0 1 .5-.702H.14c.008.062.02.117.032.156.008.043.023.09.047.14.02.055.05.106.093.157.083.117.192.2.329.25.132.063.28.094.437.094a.968.968 0 0 0 .39-.078.702.702 0 0 0 .313-.204.844.844 0 0 0 .203-.328 1.06 1.06 0 0 0 0-.796.872.872 0 0 0-.187-.297.713.713 0 0 0-.281-.188.934.934 0 0 0-.375-.078c-.106 0-.2.016-.282.047a.716.716 0 0 0-.25.125L.734-2.5h1.172zm0 0"/>
    </symbol>
    <symbol id="AGC-Amplifier-LM13600-Monosch-1_svg__H" overflow="visible">
      <path d="M2.328.5H-.094v.203h2.422zm0 0"/>
    </symbol>
    <symbol id="AGC-Amplifier-LM13600-Monosch-1_svg__I" overflow="visible"/>
    <symbol id="AGC-Amplifier-LM13600-Monosch-1_svg__J" overflow="visible">
      <path d="M2.14-1.078h-.828v-.828h-.28v.828h-.83v.281h.828v.844h.282v-.844h.828zm0 0"/>
    </symbol>
    <symbol id="AGC-Amplifier-LM13600-Monosch-1_svg__K" overflow="visible">
      <path d="M1.563-2.969c-.211 0-.403.04-.579.11a1.34 1.34 0 0 0-.437.312 1.484 1.484 0 0 0-.297.485 1.98 1.98 0 0 0-.094.624c0 .231.032.438.094.625.07.188.172.352.297.485.125.137.27.242.437.312a1.615 1.615 0 0 0 1.078.031c.157-.05.29-.128.407-.234.082-.062.156-.133.219-.218a1.654 1.654 0 0 0 .25-.625c.03-.114.046-.235.046-.36a1.79 1.79 0 0 0-.109-.625 1.333 1.333 0 0 0-.281-.5 1.325 1.325 0 0 0-.453-.312 1.49 1.49 0 0 0-.579-.11zm0 .328a.93.93 0 0 1 .421.094.84.84 0 0 1 .329.235c.093.105.164.234.218.39.051.149.078.313.078.5 0 .18-.027.34-.078.484a1.105 1.105 0 0 1-.547.625 1.042 1.042 0 0 1-.421.079c-.157 0-.297-.024-.422-.078a1.078 1.078 0 0 1-.547-.625 1.866 1.866 0 0 1-.063-.5c0-.188.02-.352.063-.5.05-.145.117-.27.203-.375a.973.973 0 0 1 .328-.235 1.03 1.03 0 0 1 .438-.094zm0 0"/>
    </symbol>
    <symbol id="AGC-Amplifier-LM13600-Monosch-1_svg__L" overflow="visible">
      <path d="M2.219-2.922v2.047c0 .105-.024.2-.063.281a.666.666 0 0 1-.203.235c-.094.086-.262.125-.5.125a.873.873 0 0 1-.531-.157.422.422 0 0 1-.156-.187.83.83 0 0 1-.047-.297v-2.047H.344v2.047c0 .156.023.297.078.422.05.117.125.215.219.297a.98.98 0 0 0 .343.172c.145.05.301.078.47.078.175 0 .331-.028.468-.078A.853.853 0 0 0 2.5-.47a.832.832 0 0 0 .094-.406v-2.047zm0 0"/>
    </symbol>
    <symbol id="AGC-Amplifier-LM13600-Monosch-1_svg__M" overflow="visible"/>
    <symbol id="AGC-Amplifier-LM13600-Monosch-1_svg__u" overflow="visible"/>
    <symbol id="AGC-Amplifier-LM13600-Monosch-1_svg__v" overflow="visible">
      <path d="M1.078-1.578h.234c.47 0 .704.21.704.625 0 .219-.063.39-.188.515-.125.118-.297.172-.516.172-.242 0-.417-.054-.53-.171C.663-.564.597-.75.577-1H.156c.008.137.024.258.047.36a.61.61 0 0 0 .11.25.794.794 0 0 0 .374.374c.165.082.368.125.61.125.176 0 .332-.027.469-.078a.93.93 0 0 0 .375-.203.928.928 0 0 0 .234-.344 1.28 1.28 0 0 0 .078-.453.891.891 0 0 0-.14-.515c-.086-.133-.231-.235-.438-.297.32-.125.484-.364.484-.719a.968.968 0 0 0-.078-.39.763.763 0 0 0-.203-.297.973.973 0 0 0-.344-.188 1.408 1.408 0 0 0-.421-.063c-.356 0-.625.094-.813.282-.18.187-.266.465-.266.828h.422c0-.102.004-.188.016-.25a.56.56 0 0 1 .281-.406.992.992 0 0 1 .36-.094c.187.012.332.07.437.172a.55.55 0 0 1 .172.422.506.506 0 0 1-.078.296.406.406 0 0 1-.203.172.73.73 0 0 1-.11.032.64.64 0 0 1-.14.03 1.99 1.99 0 0 1-.313.016zm0 0"/>
    </symbol>
    <symbol id="AGC-Amplifier-LM13600-Monosch-1_svg__w" overflow="visible">
      <path d="M2.313-3.438H.53l-.25 1.86h.39c.052-.05.099-.098.141-.14a.449.449 0 0 1 .141-.095.486.486 0 0 1 .156-.062c.063-.008.125-.016.188-.016a.81.81 0 0 1 .312.063.54.54 0 0 1 .235.156c.07.074.125.164.156.266.031.105.05.218.063.343A1.74 1.74 0 0 1 2-.719a.807.807 0 0 1-.203.297c-.094.106-.262.156-.5.156a.69.69 0 0 1-.453-.14C.727-.5.644-.645.594-.844H.172c.008.074.02.137.031.188l.063.172a.52.52 0 0 0 .109.187.888.888 0 0 0 .39.297c.165.07.348.11.547.11.176 0 .333-.032.47-.094a.984.984 0 0 0 .374-.235c.102-.113.18-.242.235-.39.062-.157.097-.329.109-.516a1.636 1.636 0 0 0-.094-.453.928.928 0 0 0-.234-.36.961.961 0 0 0-.344-.234 1.081 1.081 0 0 0-.453-.094 1.11 1.11 0 0 0-.328.047.945.945 0 0 0-.297.156l.125-.953h1.438zm0 0"/>
    </symbol>
    <symbol id="AGC-Amplifier-LM13600-Monosch-1_svg__x" overflow="visible"/>
    <symbol id="AGC-Amplifier-LM13600-Monosch-1_svg__A" overflow="visible"/>
    <symbol id="AGC-Amplifier-LM13600-Monosch-1_svg__y" overflow="visible"/>
    <symbol id="AGC-Amplifier-LM13600-Monosch-1_svg__B" overflow="visible"/>
    <symbol id="AGC-Amplifier-LM13600-Monosch-1_svg__E" overflow="visible">
      <path d="M2.219 0L3.64-4.11h-.563L1.938-.624.734-4.109H.172L1.64 0zm0 0"/>
    </symbol>
    <symbol id="AGC-Amplifier-LM13600-Monosch-1_svg__F" overflow="visible">
      <path d="M3.734-2.844c-.086-.445-.257-.781-.515-1-.262-.226-.621-.344-1.078-.344-.274 0-.516.047-.735.141a1.55 1.55 0 0 0-.562.375 2.234 2.234 0 0 0-.438.735c-.094.28-.14.59-.14.921 0 .344.05.657.156.938.101.281.254.527.453.734.156.156.332.274.531.344.207.082.446.125.719.125 1 0 1.563-.54 1.688-1.625H3.28a4.349 4.349 0 0 1-.094.375 1.423 1.423 0 0 1-.093.266 1.015 1.015 0 0 1-.39.39c-.157.094-.352.14-.579.14-.21 0-.398-.034-.563-.108a1.218 1.218 0 0 1-.406-.344 1.508 1.508 0 0 1-.265-.531 2.432 2.432 0 0 1-.094-.704c0-.257.023-.492.078-.703.063-.207.148-.383.266-.531.113-.156.25-.27.406-.344.156-.082.336-.125.547-.125.164 0 .316.028.453.078a.95.95 0 0 1 .36.188c.062.062.116.148.171.25.05.094.094.215.125.36zm0 0"/>
    </symbol>
    <symbol id="AGC-Amplifier-LM13600-Monosch-1_svg__G" overflow="visible"/>
    <symbol id="AGC-Amplifier-LM13600-Monosch-1_svg__N" overflow="visible"/>
    <clipPath id="AGC-Amplifier-LM13600-Monosch-1_svg__O">
      <path d="M370 212.82h2V289h-2zm0 0"/>
    </clipPath>
    <clipPath id="AGC-Amplifier-LM13600-Monosch-1_svg__P">
      <path d="M370 212.82h179.719V214H370zm0 0"/>
    </clipPath>
    <clipPath id="AGC-Amplifier-LM13600-Monosch-1_svg__Q">
      <path d="M549 212.82h.719V317H549zm0 0"/>
    </clipPath>
    <clipPath id="AGC-Amplifier-LM13600-Monosch-1_svg__R">
      <path d="M531 316h18.719v1H531zm0 0"/>
    </clipPath>
  </defs>
  <use x="393.988" y="269.147" fill="gray" xlink:href="#AGC-Amplifier-LM13600-Monosch-1_svg__a"/>
  <use x="396.208" y="269.147" fill="gray" xlink:href="#AGC-Amplifier-LM13600-Monosch-1_svg__b"/>
  <use x="399.568" y="269.147" fill="gray" xlink:href="#AGC-Amplifier-LM13600-Monosch-1_svg__c"/>
  <use x="401.788" y="269.147" fill="gray" xlink:href="#AGC-Amplifier-LM13600-Monosch-1_svg__d"/>
  <use x="404.008" y="269.147" fill="gray" xlink:href="#AGC-Amplifier-LM13600-Monosch-1_svg__e"/>
  <use x="406.228" y="269.147" fill="gray" xlink:href="#AGC-Amplifier-LM13600-Monosch-1_svg__f"/>
  <use x="408.448" y="269.147" fill="gray" xlink:href="#AGC-Amplifier-LM13600-Monosch-1_svg__f"/>
  <use x="503.381" y="309.439" fill="gray" xlink:href="#AGC-Amplifier-LM13600-Monosch-1_svg__a"/>
  <use x="505.601" y="309.439" fill="gray" xlink:href="#AGC-Amplifier-LM13600-Monosch-1_svg__b"/>
  <use x="508.961" y="309.439" fill="gray" xlink:href="#AGC-Amplifier-LM13600-Monosch-1_svg__c"/>
  <use x="511.181" y="309.439" fill="gray" xlink:href="#AGC-Amplifier-LM13600-Monosch-1_svg__d"/>
  <use x="513.401" y="309.439" fill="gray" xlink:href="#AGC-Amplifier-LM13600-Monosch-1_svg__e"/>
  <use x="515.621" y="309.439" fill="gray" xlink:href="#AGC-Amplifier-LM13600-Monosch-1_svg__f"/>
  <use x="517.841" y="309.439" fill="gray" xlink:href="#AGC-Amplifier-LM13600-Monosch-1_svg__f"/>
  <use x="424.932" y="264.832" fill="gray" xlink:href="#AGC-Amplifier-LM13600-Monosch-1_svg__g"/>
  <use x="427.152" y="264.832" fill="gray" xlink:href="#AGC-Amplifier-LM13600-Monosch-1_svg__g"/>
  <use x="429.372" y="264.832" fill="gray" xlink:href="#AGC-Amplifier-LM13600-Monosch-1_svg__h"/>
  <use x="442.205" y="310.878" fill="gray" xlink:href="#AGC-Amplifier-LM13600-Monosch-1_svg__g"/>
  <use x="444.425" y="310.878" fill="gray" xlink:href="#AGC-Amplifier-LM13600-Monosch-1_svg__g"/>
  <use x="446.645" y="310.878" fill="gray" xlink:href="#AGC-Amplifier-LM13600-Monosch-1_svg__h"/>
  <use x="344.147" y="299.367" fill="gray" xlink:href="#AGC-Amplifier-LM13600-Monosch-1_svg__i"/>
  <use x="346.367" y="299.367" fill="gray" xlink:href="#AGC-Amplifier-LM13600-Monosch-1_svg__j"/>
  <use x="348.587" y="299.367" fill="gray" xlink:href="#AGC-Amplifier-LM13600-Monosch-1_svg__f"/>
  <use x="344.147" y="333.901" fill="gray" xlink:href="#AGC-Amplifier-LM13600-Monosch-1_svg__i"/>
  <use x="346.367" y="333.901" fill="gray" xlink:href="#AGC-Amplifier-LM13600-Monosch-1_svg__j"/>
  <use x="348.587" y="333.901" fill="gray" xlink:href="#AGC-Amplifier-LM13600-Monosch-1_svg__f"/>
  <use x="339.292" y="342.533" fill="gray" xlink:href="#AGC-Amplifier-LM13600-Monosch-1_svg__g"/>
  <use x="341.512" y="342.533" fill="gray" xlink:href="#AGC-Amplifier-LM13600-Monosch-1_svg__k"/>
  <use x="342.652" y="342.533" fill="gray" xlink:href="#AGC-Amplifier-LM13600-Monosch-1_svg__g"/>
  <use x="344.872" y="342.533" fill="gray" xlink:href="#AGC-Amplifier-LM13600-Monosch-1_svg__l"/>
  <use x="347.092" y="342.533" fill="gray" xlink:href="#AGC-Amplifier-LM13600-Monosch-1_svg__m"/>
  <use x="522.63" y="339.657" fill="gray" xlink:href="#AGC-Amplifier-LM13600-Monosch-1_svg__c"/>
  <use x="524.85" y="339.657" fill="gray" xlink:href="#AGC-Amplifier-LM13600-Monosch-1_svg__n"/>
  <use x="527.07" y="339.657" fill="gray" xlink:href="#AGC-Amplifier-LM13600-Monosch-1_svg__f"/>
  <use x="527.729" y="381.099" fill="gray" xlink:href="#AGC-Amplifier-LM13600-Monosch-1_svg__o"/>
  <use x="530.849" y="381.099" fill="gray" xlink:href="#AGC-Amplifier-LM13600-Monosch-1_svg__p"/>
  <use x="533.729" y="381.099" fill="gray" xlink:href="#AGC-Amplifier-LM13600-Monosch-1_svg__q"/>
  <use x="452.881" y="340.808" fill="gray" xlink:href="#AGC-Amplifier-LM13600-Monosch-1_svg__o"/>
  <use x="456.001" y="340.808" fill="gray" xlink:href="#AGC-Amplifier-LM13600-Monosch-1_svg__p"/>
  <use x="458.881" y="340.808" fill="gray" xlink:href="#AGC-Amplifier-LM13600-Monosch-1_svg__q"/>
  <use x="320.458" y="381.099" fill="gray" xlink:href="#AGC-Amplifier-LM13600-Monosch-1_svg__o"/>
  <use x="323.578" y="381.099" fill="gray" xlink:href="#AGC-Amplifier-LM13600-Monosch-1_svg__p"/>
  <use x="326.458" y="381.099" fill="gray" xlink:href="#AGC-Amplifier-LM13600-Monosch-1_svg__q"/>
  <use x="393.989" y="309.439" fill="gray" xlink:href="#AGC-Amplifier-LM13600-Monosch-1_svg__r"/>
  <use x="395.128" y="309.439" fill="gray" xlink:href="#AGC-Amplifier-LM13600-Monosch-1_svg__s"/>
  <use x="398.009" y="309.439" fill="gray" xlink:href="#AGC-Amplifier-LM13600-Monosch-1_svg__c"/>
  <use x="400.228" y="309.439" fill="gray" xlink:href="#AGC-Amplifier-LM13600-Monosch-1_svg__t"/>
  <use x="390.482" y="275.536" fill="gray" xlink:href="#AGC-Amplifier-LM13600-Monosch-1_svg__u"/>
  <use x="390.482" y="298.559" fill="gray" xlink:href="#AGC-Amplifier-LM13600-Monosch-1_svg__v"/>
  <use x="440.855" y="287.047" fill="gray" xlink:href="#AGC-Amplifier-LM13600-Monosch-1_svg__w"/>
  <use x="390.482" y="287.047" fill="gray" xlink:href="#AGC-Amplifier-LM13600-Monosch-1_svg__x"/>
  <use x="433.484" y="281.292" fill="gray" xlink:href="#AGC-Amplifier-LM13600-Monosch-1_svg__y"/>
  <use x="503.38" y="269.147" fill="gray" xlink:href="#AGC-Amplifier-LM13600-Monosch-1_svg__r"/>
  <use x="504.52" y="269.147" fill="gray" xlink:href="#AGC-Amplifier-LM13600-Monosch-1_svg__s"/>
  <use x="507.4" y="269.147" fill="gray" xlink:href="#AGC-Amplifier-LM13600-Monosch-1_svg__c"/>
  <use x="509.62" y="269.147" fill="gray" xlink:href="#AGC-Amplifier-LM13600-Monosch-1_svg__t"/>
  <use x="512.32" y="269.147" fill="gray" xlink:href="#AGC-Amplifier-LM13600-Monosch-1_svg__z"/>
  <use x="499.874" y="287.047" fill="gray" xlink:href="#AGC-Amplifier-LM13600-Monosch-1_svg__A"/>
  <use x="531.362" y="308.627" fill="gray" xlink:href="#AGC-Amplifier-LM13600-Monosch-1_svg__B"/>
  <use x="426.312" y="256.197" fill="gray" xlink:href="#AGC-Amplifier-LM13600-Monosch-1_svg__C"/>
  <use x="429.192" y="256.197" fill="gray" xlink:href="#AGC-Amplifier-LM13600-Monosch-1_svg__i"/>
  <use x="443.585" y="302.243" fill="gray" xlink:href="#AGC-Amplifier-LM13600-Monosch-1_svg__C"/>
  <use x="446.464" y="302.243" fill="gray" xlink:href="#AGC-Amplifier-LM13600-Monosch-1_svg__D"/>
  <use x="345.707" y="290.731" fill="gray" xlink:href="#AGC-Amplifier-LM13600-Monosch-1_svg__C"/>
  <use x="348.587" y="290.731" fill="gray" xlink:href="#AGC-Amplifier-LM13600-Monosch-1_svg__c"/>
  <use x="345.707" y="325.266" fill="gray" xlink:href="#AGC-Amplifier-LM13600-Monosch-1_svg__C"/>
  <use x="348.587" y="325.266" fill="gray" xlink:href="#AGC-Amplifier-LM13600-Monosch-1_svg__g"/>
  <use x="328.434" y="342.533" fill="gray" xlink:href="#AGC-Amplifier-LM13600-Monosch-1_svg__s"/>
  <use x="331.314" y="342.533" fill="gray" xlink:href="#AGC-Amplifier-LM13600-Monosch-1_svg__c"/>
  <use x="521.311" y="354.045" fill="gray" xlink:href="#AGC-Amplifier-LM13600-Monosch-1_svg__s"/>
  <use x="524.191" y="354.045" fill="gray" xlink:href="#AGC-Amplifier-LM13600-Monosch-1_svg__g"/>
  <use x="524.189" y="331.022" fill="gray" xlink:href="#AGC-Amplifier-LM13600-Monosch-1_svg__C"/>
  <use x="527.069" y="331.022" fill="gray" xlink:href="#AGC-Amplifier-LM13600-Monosch-1_svg__e"/>
  <use x="416.835" y="221.663" fill="gray" xlink:href="#AGC-Amplifier-LM13600-Monosch-1_svg__E"/>
  <use x="420.615" y="221.663" fill="gray" xlink:href="#AGC-Amplifier-LM13600-Monosch-1_svg__F"/>
  <use x="424.695" y="221.663" fill="gray" xlink:href="#AGC-Amplifier-LM13600-Monosch-1_svg__F"/>
  <use x="331.973" y="329.298" fill="gray" xlink:href="#AGC-Amplifier-LM13600-Monosch-1_svg__o"/>
  <use x="335.092" y="329.298" fill="gray" xlink:href="#AGC-Amplifier-LM13600-Monosch-1_svg__p"/>
  <use x="337.973" y="329.298" fill="gray" xlink:href="#AGC-Amplifier-LM13600-Monosch-1_svg__q"/>
  <use x="405.56" y="329.287" fill="gray" xlink:href="#AGC-Amplifier-LM13600-Monosch-1_svg__E"/>
  <use x="409.34" y="329.287" fill="gray" xlink:href="#AGC-Amplifier-LM13600-Monosch-1_svg__G"/>
  <use x="413.12" y="329.287" fill="gray" xlink:href="#AGC-Amplifier-LM13600-Monosch-1_svg__G"/>
  <use x="294.486" y="364.119" fill="gray" xlink:href="#AGC-Amplifier-LM13600-Monosch-1_svg__t"/>
  <use x="297.186" y="364.119" fill="gray" xlink:href="#AGC-Amplifier-LM13600-Monosch-1_svg__H"/>
  <use x="299.406" y="364.119" fill="gray" xlink:href="#AGC-Amplifier-LM13600-Monosch-1_svg__r"/>
  <use x="300.546" y="364.119" fill="gray" xlink:href="#AGC-Amplifier-LM13600-Monosch-1_svg__p"/>
  <use x="303.426" y="364.119" fill="gray" xlink:href="#AGC-Amplifier-LM13600-Monosch-1_svg__I"/>
  <use x="293.466" y="346.852" fill="gray" xlink:href="#AGC-Amplifier-LM13600-Monosch-1_svg__t"/>
  <use x="296.166" y="346.852" fill="gray" xlink:href="#AGC-Amplifier-LM13600-Monosch-1_svg__H"/>
  <use x="298.386" y="346.852" fill="gray" xlink:href="#AGC-Amplifier-LM13600-Monosch-1_svg__r"/>
  <use x="299.526" y="346.852" fill="gray" xlink:href="#AGC-Amplifier-LM13600-Monosch-1_svg__p"/>
  <use x="302.406" y="346.852" fill="gray" xlink:href="#AGC-Amplifier-LM13600-Monosch-1_svg__J"/>
  <use x="483.229" y="312.317" fill="gray" xlink:href="#AGC-Amplifier-LM13600-Monosch-1_svg__t"/>
  <use x="485.929" y="312.317" fill="gray" xlink:href="#AGC-Amplifier-LM13600-Monosch-1_svg__H"/>
  <use x="488.149" y="312.317" fill="gray" xlink:href="#AGC-Amplifier-LM13600-Monosch-1_svg__K"/>
  <use x="491.269" y="312.317" fill="gray" xlink:href="#AGC-Amplifier-LM13600-Monosch-1_svg__L"/>
  <use x="494.149" y="312.317" fill="gray" xlink:href="#AGC-Amplifier-LM13600-Monosch-1_svg__M"/>
  <use x="496.609" y="312.317" fill="gray" xlink:href="#AGC-Amplifier-LM13600-Monosch-1_svg__I"/>
  <use x="483.229" y="300.805" fill="gray" xlink:href="#AGC-Amplifier-LM13600-Monosch-1_svg__t"/>
  <use x="485.929" y="300.805" fill="gray" xlink:href="#AGC-Amplifier-LM13600-Monosch-1_svg__H"/>
  <use x="488.149" y="300.805" fill="gray" xlink:href="#AGC-Amplifier-LM13600-Monosch-1_svg__K"/>
  <use x="491.269" y="300.805" fill="gray" xlink:href="#AGC-Amplifier-LM13600-Monosch-1_svg__L"/>
  <use x="494.149" y="300.805" fill="gray" xlink:href="#AGC-Amplifier-LM13600-Monosch-1_svg__M"/>
  <use x="496.609" y="300.805" fill="gray" xlink:href="#AGC-Amplifier-LM13600-Monosch-1_svg__J"/>
  <path fill="none" stroke="maroon" stroke-linecap="round" stroke-linejoin="round" stroke-miterlimit="10" stroke-width=".6" d="M393.96 305.102v-34.5m0 0l34.56 17.277m0 0l-34.56 17.223"/>
  <path fill="none" stroke="maroon" stroke-linecap="round" stroke-linejoin="round" stroke-miterlimit="10" stroke-width=".36" d="M396.84 300.781v-2.883m-1.442 1.442h2.883m-2.883-22.98h2.883m-10.019 0h5.699m-5.699 22.98h5.699m51.839-11.461h-5.76"/>
  <path fill="none" stroke="maroon" stroke-linecap="round" stroke-linejoin="round" stroke-miterlimit="10" stroke-width=".12" d="M393.96 289.02l-.241-.06m0 0l-.239-.062m0 0l-.242-.117m0 0l-.18-.18m.001.001l-.118-.243m0 .001l-.062-.239m0 0l-.059-.242m0 0l.059-.3m0-.001l.062-.238m0 0l.118-.18m0 0l.18-.18m-.001 0l.242-.18m0 0l.239-.062m0 0l.242-.058m-.001 0l.302.058m0 0l.238.063m0-.001l.18.18m0 0l.18.18m0 0l.18.18m0 0l.062.238m0 0l.058.3m0 .001l-.058.242m0 0l-.063.238m.001.001l-.18.242m0 0l-.18.18m0-.001l-.18.117m0 0l-.238.063m0-.001l-.301.06m-.242-.06h.543m-.722-.062h.901m-1.019-.058h1.137m-1.259-.059h1.321m-1.383-.062h1.5m-1.558-.059h1.62m-1.679-.058h1.738m-1.8-.062h1.863m-1.863-.06h1.863m-1.922-.058h1.98m-1.98-.062h1.98m-2.039-.06h2.098m-2.098 0h2.098m-2.16-.062h2.223m-2.223-.058h2.223m-2.223-.059h2.223m-2.223-.062h2.223m-2.223-.059h2.223m-2.282-.059h2.34m-2.34-.062h2.34m-2.34-.059h2.34m-2.34-.058h2.282m-2.223-.062h2.223m-2.223-.06h2.223m-2.223-.062h2.223m-2.223-.058h2.223m-2.161-.06h2.098m-2.098-.062h2.098m-2.098-.058h2.098m-2.039-.059h1.98m-1.98-.062h1.98m-1.921-.059h1.863m-1.801-.058h1.738m-1.679-.062h1.62m-1.562-.06h1.5m-1.438-.058h1.38m-1.32 0h1.261m-1.141-.062h1.02m-.898-.06h.777m-.539-.062h.3m-.18 9.722l-2.882-5.16m0 0h5.762m0 0l-2.88 5.16m0 0h.06m-.06-.062h.06m-.122-.058h.18m-.238-.059h.238m-.238-.062h.3m-.359-.059h.418m-.418-.058h.418m-.48-.062h.543m-.543-.06h.543m-.602-.058h.66m-.66-.062h.66m-.718-.06h.777m-.777-.062h.777m-.839-.058h.901m-.901-.059h.901m-.961-.062h1.02m-1.02-.059h1.02m-1.078-.059h1.137m-1.199-.062h1.199m-1.199 0h1.261m-1.321-.059h1.38m-1.38-.058h1.38m-1.442-.062h1.5m-1.5-.06h1.5m-1.558-.062h1.62m-1.62-.058h1.62m-1.679-.06h1.738m-1.738-.062h1.738m-1.8-.058h1.863m-1.863-.059h1.863m-1.922-.062h1.98m-1.98-.059h1.98m-2.039-.058h2.098m-2.16-.062h2.16m-2.16-.06h2.223m-2.282-.058h2.34m-2.34-.062h2.34m-2.398-.06h2.457m-2.457-.062h2.457m-2.519-.058h2.581m-2.581-.059h2.581m-2.641-.062h2.7m-2.7-.059h2.7m-2.762-.059h2.82m-2.82 0h2.82m-2.878-.062h2.94m-2.94-.059h2.94m-3-.058h3.06m-3.122-.062h3.122m-3.122-.06h3.18m-3.238-.062h3.3m-3.3-.058h3.3m-3.359-.06h3.418m-3.418-.062h3.418m-3.48-.058h3.543m-3.543-.059h3.543m-3.602-.062h3.66m-3.66-.059h3.66m-3.718-.058h3.777m-3.777-.062h3.777m-3.839-.06h3.901m-3.901-.058h3.901m-3.961-.062H396m-4.078-.06H396m-4.078-.062h4.137m-4.199-.058h4.261m-4.261-.059h4.261m-4.321-.062h4.38m-4.38 0h4.38m-4.442-.059h4.5m-4.5-.059h4.5m-4.558-.062h4.62m-4.62-.059h4.62m-4.679-.058h4.738m-4.738-.062h4.738m-4.8-.06h4.863m-4.863-.062h4.863m-4.922-.058h4.98m-5.039-.06h5.04m-5.04-.062h5.098m-5.16-.058h5.223m-5.223-.059h5.223m-5.282-.062h5.34m-5.34-.059h5.34m-5.398-.058h5.457m-5.457-.062h5.457m-5.519-.06h5.581m-5.581-.058h5.581m-5.641-.062h5.7m-5.7-.06h5.7"/>
  <path fill="none" stroke="maroon" stroke-linecap="round" stroke-linejoin="round" stroke-miterlimit="10" stroke-width=".6" d="M391.078 296.46h5.762"/>
  <path fill="none" stroke="maroon" stroke-linecap="round" stroke-linejoin="round" stroke-miterlimit="10" stroke-width=".12" d="M393.96 279.238l2.88 5.16m0 0h-5.762m0 0l2.883-5.16m-2.821 5.102h5.7m-5.7-.059h5.7m-5.64-.062h5.581m-5.581-.059h5.519m-5.457-.058h5.457m-5.399 0h5.34m-5.34-.062h5.34m-5.281-.06h5.223m-5.223-.058h5.223m-5.161-.062h5.098m-5.098-.06h5.098m-5.039-.062h4.98m-4.98-.058h4.98m-4.921-.059h4.863m-4.863-.062h4.863m-4.801-.059h4.738m-4.738-.059h4.738m-4.679-.062h4.62m-4.62-.059h4.558m-4.5-.058h4.5m-4.438-.062h4.38m-4.38-.06h4.38m-4.32-.062h4.261m-4.261-.058h4.261m-4.199-.06h4.137m-4.137-.062h4.137m-4.079-.058H396m-4.02-.059H396m-3.96-.062h3.901m-3.901-.059h3.901m-3.839 0h3.777m-3.777-.058h3.777m-3.719-.062h3.66m-3.66-.06h3.602m-3.543-.058h3.543m-3.481-.062h3.418m-3.418-.06h3.418m-3.359-.062h3.3m-3.3-.058h3.3m-3.242-.059h3.18m-3.18-.062h3.18M392.46 282h3.06m-3.06-.059h3.06m-3-.062h2.94m-2.94-.059h2.94m-2.882-.058h2.82m-2.82-.062h2.82m-2.758-.06h2.7m-2.7-.062h2.641m-2.581-.058h2.581m-2.519-.06h2.457m-2.457-.062h2.457m-2.399-.058h2.34m-2.34-.059h2.34m-2.281 0h2.223m-2.223-.062h2.223m-2.161-.059h2.098m-2.098-.058h2.098M393 281.04h1.98m-1.98-.06h1.98m-1.921-.058h1.863m-1.863-.062h1.863m-1.801-.06h1.738m-1.738-.062h1.68m-1.621-.058h1.62m-1.562-.059h1.5m-1.5-.062h1.5m-1.438-.059h1.38m-1.38-.059h1.38m-1.32-.062h1.261m-1.261-.059h1.261m-1.199-.058h1.137m-1.137-.062h1.137m-1.079-.06h1.02m-1.02-.062h1.02m-.96-.058h.901m-.901-.06h.901m-.839-.062h.777m-.777-.058h.718m-.66 0h.66m-.601-.059h.543m-.543-.062h.543m-.481-.059h.418m-.418-.058h.418m-.359-.062h.3m-.3-.06h.3m-.242-.058h.18m-.18-.062h.18m-.118-.06h.06m-.06-.062h.06"/>
  <path fill="none" stroke="maroon" stroke-linecap="round" stroke-linejoin="round" stroke-miterlimit="10" stroke-width=".6" d="M396.84 279.238h-5.762"/>
  <path fill="none" stroke="maroon" stroke-linecap="round" stroke-linejoin="round" stroke-miterlimit="10" stroke-width=".36" d="M388.262 287.879h5.699"/>
  <path fill="none" stroke="maroon" stroke-linecap="round" stroke-linejoin="round" stroke-miterlimit="10" stroke-width=".6" d="M436.68 287.879a4.082 4.082 0 0 1-4.078 4.082 4.083 4.083 0 0 1-4.082-4.082 4.081 4.081 0 0 1 8.16 0zm0 0"/>
  <path fill="none" stroke="maroon" stroke-linecap="round" stroke-linejoin="round" stroke-miterlimit="10" stroke-width=".6" d="M440.04 287.879a4.08 4.08 0 1 1-8.161 0 4.082 4.082 0 0 1 4.082-4.078 4.079 4.079 0 0 1 4.078 4.078zm0 0"/>
  <path fill="none" stroke="maroon" stroke-linecap="round" stroke-linejoin="round" stroke-miterlimit="10" stroke-width=".36" d="M434.281 276.36v5.761m0 0v1.98m86.399-1.98h-2.88m0 0l-5.64 2.758m3.18 6.062l1.14 2.04m0-.001l-2.28.239m0 0l1.14-2.278m2.46 2.637l-1.32-.598m0 0l-3.78-1.921"/>
  <path fill="none" stroke="maroon" stroke-linecap="round" stroke-linejoin="round" stroke-miterlimit="10" stroke-width=".72" d="M514.738 292.98l1.32-.18m.001 0l-.72-1.26"/>
  <path fill="none" stroke="maroon" stroke-linecap="round" stroke-linejoin="round" stroke-miterlimit="10" stroke-width=".6" d="M515.34 291.54l-.602 1.14m0 0h.903m-.001 0l-.3-.602"/>
  <path fill="maroon" stroke="maroon" stroke-linecap="round" stroke-linejoin="round" stroke-miterlimit="10" stroke-width=".12" d="M510.898 293.64h1.684v-11.519h-1.684zm0 0"/>
  <path fill="none" stroke="maroon" stroke-linecap="round" stroke-linejoin="round" stroke-miterlimit="10" stroke-width=".36" d="M497.64 287.879h5.758m28.742 22.981v-5.758m0-17.223h-2.878m0 0l-5.582 2.762m3.18 6.059l1.14 2.038m0 0l-2.281.242m0 0l1.14-2.28m2.403 2.64l-1.262-.602m0 0l-3.781-1.918"/>
  <path fill="none" stroke="maroon" stroke-linecap="round" stroke-linejoin="round" stroke-miterlimit="10" stroke-width=".72" d="M526.262 298.738l1.316-.18m0 .001l-.719-1.258"/>
  <path fill="none" stroke="maroon" stroke-linecap="round" stroke-linejoin="round" stroke-miterlimit="10" stroke-width=".6" d="M526.86 297.3l-.598 1.141m0 0h.898m0 0l-.3-.601"/>
  <path fill="maroon" stroke="maroon" stroke-linecap="round" stroke-linejoin="round" stroke-miterlimit="10" stroke-width=".12" d="M522.422 299.34h1.68v-11.52h-1.68zm0 0"/>
  <path fill="none" stroke="maroon" stroke-linecap="round" stroke-linejoin="round" stroke-miterlimit="10" stroke-width=".36" d="M517.8 293.578h5.759"/>
  <path fill="none" stroke="maroon" stroke-linecap="round" stroke-linejoin="round" stroke-miterlimit="10" stroke-width=".3" d="M520.68 282.66h-.18m0 0l-.121-.058m0 0l-.117-.122m0 0l-.121-.12m-.001 0l-.062-.122m0 0v-.117m0 0v-.18m0 0l.063-.12m-.001-.001l.122-.12m0 0l.117-.122m0 0l.121-.058m0 0h.18m0 0h.12m0 0l.122.058m0 0l.117.121m.001.001l.12.12m0 0l.059.121m0 0v.18m0 0v.117m0 0l-.059.121m0 .001l-.12.12m0 0l-.118.122m0 0l-.121.058m-.001 0h-.12m-.418-.12h.777m-.899-.18h1.02m-1.082-.239h1.14m-1.14-.18h1.14m-1.018-.179h.902m-.602-.242h.3"/>
  <path fill="none" stroke="maroon" stroke-linecap="round" stroke-linejoin="round" stroke-miterlimit="10" stroke-width=".36" d="M520.68 282.121h11.46m0 0v5.758m-9.718-11.519zm0 0"/>
  <path fill="none" stroke="maroon" stroke-linecap="round" stroke-linejoin="round" stroke-miterlimit="10" stroke-width=".3" d="M521.82 276.36h-2.34m1.2-1.141v2.281"/>
  <path fill="none" stroke="maroon" stroke-linecap="round" stroke-linejoin="round" stroke-miterlimit="10" stroke-width=".36" d="M520.68 278.04v4.081"/>
  <path fill="none" stroke="maroon" stroke-linecap="round" stroke-linejoin="round" stroke-miterlimit="10" stroke-width=".6" d="M503.398 270.602h2.34m2.222 0h2.34m2.278 0h2.344m2.278 0h2.34m2.222 0h2.34m2.277 0h2.34m2.281 0h2.34m2.281 0h2.277m0 34.5h-2.277m-2.281 0H531m-2.281 0h-2.34m-2.277 0h-2.34m-2.222 0h-2.34m-2.278 0h-2.344m-2.278 0h-2.34m-2.222 0h-2.34"/>
  <path fill="none" stroke="maroon" stroke-linecap="round" stroke-linejoin="round" stroke-miterlimit="10" stroke-width=".36" d="M497.64 287.879h14.4m17.222 11.461h2.879m-.001 0v11.52"/>
  <path fill="none" stroke="maroon" stroke-linecap="round" stroke-linejoin="round" stroke-miterlimit="10" stroke-width=".6" d="M537.898 270.602v2.34m0 2.218v2.34m0 2.281v2.34m0 2.277v2.34m0 2.222v2.34m0 2.278v2.344m0 2.278v2.34m0 2.222v2.34m-34.5-34.5v2.34m0 2.218v2.34m0 2.281v2.34m0 2.277v2.34m0 2.222v2.34m0 2.278v2.344m0 2.278v2.34m0 2.222v2.34"/>
  <path fill="none" stroke="maroon" stroke-linecap="round" stroke-linejoin="round" stroke-miterlimit="10" stroke-width=".36" d="M434.281 247.559v5.761m0 17.282v-5.762"/>
  <path fill="none" stroke="maroon" stroke-linecap="round" stroke-linejoin="round" stroke-miterlimit="10" stroke-width=".6" d="M436.32 264.84v-11.52m-4.02 0v11.52m4.02-11.52h-4.02m4.02 11.52h-4.02"/>
  <path fill="none" stroke="maroon" stroke-linecap="round" stroke-linejoin="round" stroke-miterlimit="10" stroke-width=".36" d="M451.559 293.578v5.762m0 17.281v-5.762"/>
  <path fill="none" stroke="maroon" stroke-linecap="round" stroke-linejoin="round" stroke-miterlimit="10" stroke-width=".6" d="M453.602 310.86v-11.52m-4.082 0v11.52m4.082-11.52h-4.082m4.082 11.52h-4.082"/>
  <path fill="none" stroke="maroon" stroke-linecap="round" stroke-linejoin="round" stroke-miterlimit="10" stroke-width=".36" d="M353.7 282.121v5.758m0 17.223v-5.762"/>
  <path fill="none" stroke="maroon" stroke-linecap="round" stroke-linejoin="round" stroke-miterlimit="10" stroke-width=".6" d="M355.68 299.34v-11.461m-4.02 0v11.46m4.02-11.46h-4.02m4.02 11.461h-4.02"/>
  <path fill="none" stroke="maroon" stroke-linecap="round" stroke-linejoin="round" stroke-miterlimit="10" stroke-width=".36" d="M353.7 316.621v5.758m0 17.281v-5.762"/>
  <path fill="none" stroke="maroon" stroke-linecap="round" stroke-linejoin="round" stroke-miterlimit="10" stroke-width=".6" d="M355.68 333.898v-11.52m-4.02.001v11.52m4.02-11.52h-4.02m4.02 11.519h-4.02"/>
  <use x="331.194" y="350.449" fill="maroon" xlink:href="#AGC-Amplifier-LM13600-Monosch-1_svg__J"/>
  <path fill="none" stroke="maroon" stroke-linecap="round" stroke-linejoin="round" stroke-miterlimit="10" stroke-width=".36" d="M342.18 345.422h-4.02m-7.5 0h3.719"/>
  <path fill="maroon" stroke="maroon" stroke-linecap="round" stroke-linejoin="round" stroke-miterlimit="10" stroke-width=".12" d="M336.96 350.04h1.438v-9.24h-1.437zm0 0"/>
  <path fill="none" stroke="maroon" stroke-linecap="round" stroke-linejoin="round" stroke-miterlimit="10" stroke-width=".3" d="M334.379 349.86h1.441m0 0v-8.88m0 0h-1.441m0 0v4.442m0 0v4.437"/>
  <use x="530.009" y="354.045" fill="maroon" xlink:href="#AGC-Amplifier-LM13600-Monosch-1_svg__N"/>
  <path fill="none" stroke="maroon" stroke-linecap="round" stroke-linejoin="round" stroke-miterlimit="10" stroke-width=".36" d="M532.14 362.7v-4.079m0-7.441v3.718"/>
  <path fill="maroon" stroke="maroon" stroke-linecap="round" stroke-linejoin="round" stroke-miterlimit="10" stroke-width=".12" d="M527.52 358.922h9.242v-1.442h-9.242zm0 0"/>
  <path fill="none" stroke="maroon" stroke-linecap="round" stroke-linejoin="round" stroke-miterlimit="10" stroke-width=".3" d="M527.7 354.898v1.442m0 0h8.94m0 0v-1.442m0 0h-4.5m0 0h-4.44"/>
  <path fill="none" stroke="maroon" stroke-linecap="round" stroke-linejoin="round" stroke-miterlimit="10" stroke-width=".36" d="M532.14 322.379v5.762m0 17.281v-5.762"/>
  <path fill="none" stroke="maroon" stroke-linecap="round" stroke-linejoin="round" stroke-miterlimit="10" stroke-width=".6" d="M534.18 339.66v-11.52m-4.02 0v11.52m4.02-11.52h-4.02m4.02 11.52h-4.02m-1.738 34.5h7.5"/>
  <path fill="none" stroke="maroon" stroke-linecap="round" stroke-linejoin="round" stroke-miterlimit="10" stroke-width=".36" d="M532.14 368.46v5.7"/>
  <path fill="none" stroke="maroon" stroke-linecap="round" stroke-linejoin="round" stroke-miterlimit="10" stroke-width=".6" d="M529.86 375.36h4.62m-3.18 1.14h1.74m-79.438-42.602h7.437"/>
  <path fill="none" stroke="maroon" stroke-linecap="round" stroke-linejoin="round" stroke-miterlimit="10" stroke-width=".36" d="M457.32 328.14v5.758"/>
  <path fill="none" stroke="maroon" stroke-linecap="round" stroke-linejoin="round" stroke-miterlimit="10" stroke-width=".6" d="M455.04 335.04h4.562m-3.122 1.14h1.68"/>
  <path fill="none" stroke="maroon" stroke-linecap="round" stroke-linejoin="round" stroke-miterlimit="10" stroke-width=".36" d="M411.238 273.48v5.758m0 22.981v-5.758m1.203-20.101h2.457m-1.198-1.258v2.457m-1.259 21.781h2.457"/>
  <path fill="none" stroke="maroon" stroke-linecap="round" stroke-linejoin="round" stroke-miterlimit="10" stroke-width=".6" d="M425.64 228.84l-2.878-4.32m0 0l-2.883 4.32"/>
  <path fill="none" stroke="maroon" stroke-linecap="round" stroke-linejoin="round" stroke-miterlimit="10" stroke-width=".36" d="M422.762 230.281v-5.761"/>
  <path fill="none" stroke="maroon" stroke-linecap="round" stroke-linejoin="round" stroke-miterlimit="10" stroke-width=".6" d="M332.7 322.379h7.44"/>
  <path fill="none" stroke="maroon" stroke-linecap="round" stroke-linejoin="round" stroke-miterlimit="10" stroke-width=".36" d="M336.422 316.621v5.758"/>
  <path fill="none" stroke="maroon" stroke-linecap="round" stroke-linejoin="round" stroke-miterlimit="10" stroke-width=".6" d="M334.078 323.52h4.621m-3.179 1.199h1.742m71.098-6.66l2.878 4.32m0 0l2.883-4.32"/>
  <path fill="none" stroke="maroon" stroke-linecap="round" stroke-linejoin="round" stroke-miterlimit="10" stroke-width=".36" d="M411.238 316.621v5.758"/>
  <path fill="none" stroke="maroon" stroke-linecap="round" stroke-linejoin="round" stroke-miterlimit="10" stroke-width=".6" d="M319.14 362.7h-5.761m0 0a2.88 2.88 0 1 1-5.758-.001 2.88 2.88 0 0 1 5.758 0zm5.761-17.278h-5.761m0 0a2.88 2.88 0 0 1-5.758 0 2.88 2.88 0 1 1 5.758 0zm7.801 28.738h7.441"/>
  <path fill="none" stroke="maroon" stroke-linecap="round" stroke-linejoin="round" stroke-miterlimit="10" stroke-width=".36" d="M324.898 368.46v5.7"/>
  <path fill="none" stroke="maroon" stroke-linecap="round" stroke-linejoin="round" stroke-miterlimit="10" stroke-width=".6" d="M322.621 375.36h4.559m-3.121 1.14h1.68m143.101-65.64h5.762m5.758 0a2.88 2.88 0 1 1-5.759-.001 2.88 2.88 0 0 1 5.758 0zm-11.52-11.52h5.762m5.758 0a2.88 2.88 0 1 1-5.759 0 2.88 2.88 0 0 1 5.758 0zm0 0"/>
  <path fill="none" stroke="green" stroke-linecap="round" stroke-linejoin="round" stroke-miterlimit="10" stroke-width=".36" d="M434.281 270.602v5.757m-92.101 69.063h11.52m0 0v-5.762m0-57.539v-5.762m0 .001h34.562m0 11.519H370.98"/>
  <g clip-path="url(#AGC-Amplifier-LM13600-Monosch-1_svg__O)">
    <path fill="none" stroke="green" stroke-linecap="round" stroke-linejoin="round" stroke-miterlimit="10" stroke-width=".36" d="M370.98 287.879V213"/>
  </g>
  <g clip-path="url(#AGC-Amplifier-LM13600-Monosch-1_svg__P)">
    <path fill="none" stroke="green" stroke-linecap="round" stroke-linejoin="round" stroke-miterlimit="10" stroke-width=".36" d="M370.98 213h178.442"/>
  </g>
  <g clip-path="url(#AGC-Amplifier-LM13600-Monosch-1_svg__Q)">
    <path fill="none" stroke="green" stroke-linecap="round" stroke-linejoin="round" stroke-miterlimit="10" stroke-width=".36" d="M549.422 213v103.621"/>
  </g>
  <g clip-path="url(#AGC-Amplifier-LM13600-Monosch-1_svg__R)">
    <path fill="none" stroke="green" stroke-linecap="round" stroke-linejoin="round" stroke-miterlimit="10" stroke-width=".36" d="M549.422 316.621H532.14"/>
  </g>
  <path fill="none" stroke="green" stroke-linecap="round" stroke-linejoin="round" stroke-miterlimit="10" stroke-width=".36" d="M532.14 316.621v-5.762m0 11.52v-5.758"/>
  <path fill="green" fill-rule="evenodd" d="M533.281 316.621a1.14 1.14 0 0 1-1.14 1.14 1.14 1.14 0 1 1 1.14-1.14"/>
  <path fill="none" stroke="green" stroke-linecap="round" stroke-linejoin="round" stroke-miterlimit="10" stroke-width=".12" d="M533.281 316.621a1.14 1.14 0 0 1-1.14 1.14 1.14 1.14 0 1 1 1.14-1.14zm0 0"/>
  <path fill="none" stroke="green" stroke-linecap="round" stroke-linejoin="round" stroke-miterlimit="10" stroke-width=".36" d="M532.14 368.46v-5.76m-80.581-46.079v5.758m0 0h5.761m0 0v5.762m11.52-17.281h-5.762m0 0v11.519m0 0h-5.758"/>
  <path fill="green" fill-rule="evenodd" d="M458.46 322.379a1.14 1.14 0 1 1-2.28 0 1.14 1.14 0 0 1 2.28 0"/>
  <path fill="none" stroke="green" stroke-linecap="round" stroke-linejoin="round" stroke-miterlimit="10" stroke-width=".12" d="M458.46 322.379a1.14 1.14 0 1 1-2.28 0 1.14 1.14 0 0 1 2.28 0zm0 0"/>
  <path fill="none" stroke="green" stroke-linecap="round" stroke-linejoin="round" stroke-miterlimit="10" stroke-width=".36" d="M353.7 316.621v-5.762m0 .001v-5.758m0 5.758h17.28m0 0v-11.52"/>
  <path fill="green" fill-rule="evenodd" d="M354.84 310.86a1.142 1.142 0 1 1-1.141-1.141c.63 0 1.14.511 1.14 1.14"/>
  <path fill="none" stroke="green" stroke-linecap="round" stroke-linejoin="round" stroke-miterlimit="10" stroke-width=".12" d="M354.84 310.86a1.142 1.142 0 1 1-1.141-1.141c.63 0 1.14.511 1.14 1.14zm0 0"/>
  <path fill="none" stroke="green" stroke-linecap="round" stroke-linejoin="round" stroke-miterlimit="10" stroke-width=".36" d="M370.98 299.34h17.282M353.7 310.86h-17.278m0 0v5.761m-11.524 51.839v-5.76m0 0h-5.757m212.999-11.52v-5.758m-86.34-57.543h5.759m0 0v5.7m0-5.7h11.52"/>
  <path fill="green" fill-rule="evenodd" d="M452.7 287.879a1.14 1.14 0 1 1-2.28.002 1.14 1.14 0 0 1 2.28-.002"/>
  <path fill="none" stroke="green" stroke-linecap="round" stroke-linejoin="round" stroke-miterlimit="10" stroke-width=".12" d="M452.7 287.879a1.14 1.14 0 1 1-2.28.002 1.14 1.14 0 0 1 2.28-.002zm0 0"/>
  <path fill="none" stroke="green" stroke-linecap="round" stroke-linejoin="round" stroke-miterlimit="10" stroke-width=".36" d="M463.078 287.879h34.563M468.84 299.34h-5.762m0 0v-11.461"/>
  <path fill="green" fill-rule="evenodd" d="M464.219 287.879c0 .633-.508 1.14-1.14 1.14a1.136 1.136 0 0 1-1.138-1.14 1.139 1.139 0 1 1 2.278 0"/>
  <path fill="none" stroke="green" stroke-linecap="round" stroke-linejoin="round" stroke-miterlimit="10" stroke-width=".12" d="M464.219 287.879c0 .633-.508 1.14-1.14 1.14a1.136 1.136 0 0 1-1.138-1.14 1.139 1.139 0 1 1 2.278 0zm0 0"/>
  <path fill="none" stroke="green" stroke-linecap="round" stroke-linejoin="round" stroke-miterlimit="10" stroke-width=".36" d="M422.762 230.281v11.52m0-.001h11.52m-.001 0v5.759m-23.043 25.921V241.8m0 0h11.524"/>
  <path fill="green" fill-rule="evenodd" d="M423.898 241.8a1.139 1.139 0 1 1-2.277 0 1.14 1.14 0 1 1 2.277 0"/>
  <path fill="none" stroke="green" stroke-linecap="round" stroke-linejoin="round" stroke-miterlimit="10" stroke-width=".12" d="M423.898 241.8a1.139 1.139 0 1 1-2.277 0 1.14 1.14 0 1 1 2.277 0zm0 0"/>
  <path fill="none" stroke="green" stroke-linecap="round" stroke-linejoin="round" stroke-miterlimit="10" stroke-width=".36" d="M411.238 316.621V302.22m-92.098 43.202h11.52"/>
</svg>
