<svg xmlns="http://www.w3.org/2000/svg" xmlns:xlink="http://www.w3.org/1999/xlink" width="842pt" height="595pt" viewBox="0 0 842 595"><defs><symbol overflow="visible" id="a"><path d="M.688-2.922h-.36V0h1.813v-.328H.687zm0 0"/></symbol><symbol overflow="visible" id="b"><path d="M1.875 0l.828-2.453V0h.36v-2.922H2.53L1.687-.375.813-2.922H.297V0h.36v-2.453L1.483 0zm0 0"/></symbol><symbol overflow="visible" id="c"><path d="M1.047-2.031V0h.344v-2.844h-.235a2.245 2.245 0 0 1-.093.266.452.452 0 0 1-.329.25c-.086.023-.195.039-.328.047v.25zm0 0"/></symbol><symbol overflow="visible" id="d"><path d="M.89-1.313h.188c.395 0 .594.172.594.516 0 .188-.055.336-.156.438-.106.093-.25.14-.438.14-.187 0-.336-.047-.437-.14C.547-.461.492-.617.484-.83H.125c.008.118.023.216.047.298.02.086.047.152.078.203A.69.69 0 0 0 .563 0c.132.063.3.094.5.094.144 0 .273-.024.39-.063a.863.863 0 0 0 .313-.172.846.846 0 0 0 .187-.28.907.907 0 0 0 .078-.376.658.658 0 0 0-.484-.672c.27-.101.406-.3.406-.593a1.124 1.124 0 0 0-.078-.329.54.54 0 0 0-.156-.234.659.659 0 0 0-.282-.156 1.034 1.034 0 0 0-.359-.063c-.293 0-.512.078-.656.235-.149.156-.227.386-.234.687h.359c0-.094.004-.164.015-.219a.427.427 0 0 1 .047-.14.422.422 0 0 1 .172-.188.68.68 0 0 1 .297-.062c.164 0 .29.043.375.125a.559.559 0 0 1 .14.36.572.572 0 0 1-.077.233.307.307 0 0 1-.157.141.88.88 0 0 1-.093.031.4.4 0 0 1-.125.032H.89zm0 0"/></symbol><symbol overflow="visible" id="e"><path d="M2-2.11a.956.956 0 0 0-.11-.296.702.702 0 0 0-.171-.235.54.54 0 0 0-.235-.156.931.931 0 0 0-.734.063 1.124 1.124 0 0 0-.328.296 1.3 1.3 0 0 0-.172.422 3.131 3.131 0 0 0-.078.719c0 .117.004.227.016.328.007.106.019.2.03.281.02.086.048.165.079.235.031.062.066.125.11.187.081.118.179.204.296.266a.93.93 0 0 0 .422.094A.934.934 0 0 0 1.5.016a.803.803 0 0 0 .484-.484c.051-.126.079-.255.079-.391a.823.823 0 0 0-.079-.36 1.056 1.056 0 0 0-.171-.297.713.713 0 0 0-.282-.187.978.978 0 0 0-.343-.063c-.282 0-.5.106-.657.313 0-.344.051-.61.156-.797a.535.535 0 0 1 .485-.281c.125 0 .226.039.312.11a.53.53 0 0 1 .157.312zm-.86.657c.176 0 .301.043.376.125.07.086.117.164.14.234a.634.634 0 0 1 .047.25.62.62 0 0 1-.047.25.837.837 0 0 1-.125.203.606.606 0 0 1-.187.125.456.456 0 0 1-.203.047.57.57 0 0 1-.235-.047A.527.527 0 0 1 .72-.39a.731.731 0 0 1-.125-.203.971.971 0 0 1-.031-.265c0-.082.007-.16.03-.235a.584.584 0 0 1 .547-.36zm0 0"/></symbol><symbol overflow="visible" id="f"><path d="M1.11-2.844a.907.907 0 0 0-.376.078.689.689 0 0 0-.28.235 1.39 1.39 0 0 0-.22.484 3.072 3.072 0 0 0-.062.672c0 .48.078.844.234 1.094.156.25.39.375.703.375.301 0 .532-.117.688-.36.156-.25.234-.613.234-1.093 0-.27-.027-.5-.078-.688a1.459 1.459 0 0 0-.187-.484.897.897 0 0 0-.297-.235.889.889 0 0 0-.36-.078zm0 .313c.374 0 .562.383.562 1.14 0 .407-.047.711-.14.907a.464.464 0 0 1-.438.28C.719-.203.53-.593.53-1.374c0-.383.047-.672.14-.86.095-.195.24-.296.438-.296zm0 0"/></symbol><symbol overflow="visible" id="g"><path d="M2.031-.344h-1.5A.433.433 0 0 1 .578-.5c.02-.05.05-.098.094-.14a.688.688 0 0 1 .156-.141 2.3 2.3 0 0 1 .219-.156l.406-.22c.195-.1.344-.226.438-.374a.824.824 0 0 0 .156-.485.75.75 0 0 0-.078-.328.933.933 0 0 0-.188-.281.834.834 0 0 0-.281-.156 1.034 1.034 0 0 0-.36-.063 1.14 1.14 0 0 0-.484.094.726.726 0 0 0-.297.266 1.15 1.15 0 0 0-.156.438v.187h.36c0-.094.003-.172.015-.235a.456.456 0 0 1 .063-.172.397.397 0 0 1 .187-.187.613.613 0 0 1 .297-.078c.082 0 .156.015.219.047.07.023.133.058.187.109.051.043.086.094.11.156A.487.487 0 0 1 1.687-2c0 .23-.125.418-.375.563l-.375.203a2.966 2.966 0 0 0-.375.25 1.214 1.214 0 0 0-.25.265c-.054.094-.093.2-.124.313A1.57 1.57 0 0 0 .14 0h1.89zm0 0"/></symbol><symbol overflow="visible" id="h"><path d="M.563-2.922H.233V0h.329v-.813L.89-1.14 1.609 0h.407l-.86-1.375.735-.734h-.438l-.89.89zm0 0"/></symbol><symbol overflow="visible" id="i"><path d="M1.313-.688V0h.359v-.688h.422V-1h-.422v-1.844h-.266L.11-1.063v.375zm0-.312H.421l.89-1.25zm0 0"/></symbol><symbol overflow="visible" id="j"><path d="M2.094-2.844H.188v.344h1.53c-.167.242-.312.465-.437.672-.125.21-.234.414-.328.61a7.452 7.452 0 0 0-.234.577C.656-.44.602-.227.563 0h.375c.03-.227.078-.445.14-.656a6.393 6.393 0 0 1 .578-1.266c.125-.207.27-.414.438-.625zm0 0"/></symbol><symbol overflow="visible" id="k"><path d="M.766-.422H.344V0h.422zm0 0"/></symbol><symbol overflow="visible" id="l"><path d="M1.938 0v-2.11h-.329v1.204a1.429 1.429 0 0 1-.062.297.577.577 0 0 1-.11.218.404.404 0 0 1-.171.141.598.598 0 0 1-.235.047.47.47 0 0 1-.328-.11C.63-.383.593-.484.593-.609v-1.5H.267v1.625c0 .093.015.18.046.25.032.062.07.12.126.172a.526.526 0 0 0 .218.109.786.786 0 0 0 .485.015A.534.534 0 0 0 1.312 0a.985.985 0 0 0 .172-.11c.051-.05.102-.113.157-.187V0zm0 0"/></symbol><symbol overflow="visible" id="m"><path d="M.734-1.328h1.391v-.328H.735v-.938h1.593v-.328H.36V0h.375zm0 0"/></symbol><symbol overflow="visible" id="n"><path d="M1.578-1.5c.063-.04.117-.082.172-.125a.63.63 0 0 0 .125-.125.486.486 0 0 0 .063-.156c.007-.051.015-.114.015-.188a.702.702 0 0 0-.234-.531.675.675 0 0 0-.266-.156 1.002 1.002 0 0 0-.703 0 .624.624 0 0 0-.266.156.71.71 0 0 0-.234.531c0 .074.004.137.016.188a.41.41 0 0 0 .062.156.54.54 0 0 0 .125.125c.05.043.113.086.188.125-.336.156-.496.39-.485.703 0 .137.02.262.063.375.039.106.101.2.187.281.094.075.196.133.313.172a1.187 1.187 0 0 0 .765 0 .863.863 0 0 0 .313-.172.846.846 0 0 0 .187-.28.875.875 0 0 0 .079-.36c0-.32-.165-.563-.485-.719zM1.11-2.531c.145 0 .258.043.344.125.094.086.14.195.14.328a.414.414 0 0 1-.14.328.505.505 0 0 1-.344.11.587.587 0 0 1-.375-.11.43.43 0 0 1-.125-.328c0-.133.04-.242.125-.328a.55.55 0 0 1 .375-.125zm0 1.187c.082 0 .16.016.235.047.07.024.133.059.187.11.051.054.094.117.125.187a.57.57 0 0 1 0 .453.917.917 0 0 1-.172.219c-.074.074-.203.11-.39.11A.74.74 0 0 1 .859-.25a.527.527 0 0 1-.187-.125.587.587 0 0 1-.125-.172.74.74 0 0 1-.031-.234A.63.63 0 0 1 .546-1a.606.606 0 0 1 .126-.188.45.45 0 0 1 .187-.109.62.62 0 0 1 .25-.047zm0 0"/></symbol><symbol overflow="visible" id="o"><path d="M2.844-1.547H1.625v.328h.89v.078a.907.907 0 0 1-.078.375.846.846 0 0 1-.187.282 1.2 1.2 0 0 1-.297.187.95.95 0 0 1-.36.063c-.148 0-.288-.024-.421-.078a.821.821 0 0 1-.313-.22.846.846 0 0 1-.14-.171 12.27 12.27 0 0 1-.094-.219 4.673 4.673 0 0 1-.063-.25 2.263 2.263 0 0 1-.015-.281c0-.176.02-.336.062-.484.051-.145.125-.27.22-.375a.973.973 0 0 1 .327-.235.93.93 0 0 1 .422-.094.99.99 0 0 1 .313.047.812.812 0 0 1 .296.156c.114.075.192.204.235.391h.39a1.28 1.28 0 0 0-.156-.39 1.155 1.155 0 0 0-.328-.344c-.156-.125-.406-.188-.75-.188-.355 0-.648.094-.875.281a1.11 1.11 0 0 0-.234.235 2.506 2.506 0 0 0-.203.39 1.726 1.726 0 0 0-.094.626c0 .23.031.437.094.625.07.187.164.351.28.484.114.137.255.242.423.312a1.38 1.38 0 0 0 1.078 0 1.71 1.71 0 0 0 .469-.359l.093.39h.235zm0 0"/></symbol><symbol overflow="visible" id="p"><path d="M2.594-2.922h-.36v2.39l-1.53-2.39H.312V0h.343v-2.375L2.172 0h.422zm0 0"/></symbol><symbol overflow="visible" id="q"><path d="M.36 0h1.124c.188 0 .352-.031.5-.094.145-.07.27-.172.375-.297a1.31 1.31 0 0 0 .235-.453 2.38 2.38 0 0 0 .078-.625c0-.218-.027-.414-.078-.593a1.32 1.32 0 0 0-.235-.47 1.011 1.011 0 0 0-.375-.28 1.147 1.147 0 0 0-.5-.11H.36zm.374-.328v-2.266h.688c.289 0 .508.102.656.297.145.188.223.469.235.844-.012.367-.09.648-.235.844-.148.187-.367.28-.656.28zm0 0"/></symbol><symbol overflow="visible" id="r"><path d="M.781-2.922H.406V0h.375zm0 0"/></symbol><symbol overflow="visible" id="s"><path d="M2.656-2.016c-.054-.32-.172-.562-.36-.718-.187-.157-.444-.235-.765-.235-.199 0-.375.031-.531.094-.156.063-.29.152-.39.266a1.472 1.472 0 0 0-.313.53c-.074.2-.11.419-.11.657 0 .242.036.461.11.656.07.2.18.371.328.516.102.117.227.2.375.25.156.063.328.094.516.094.707 0 1.109-.383 1.203-1.157h-.39c-.013.094-.028.18-.048.25-.023.075-.047.141-.078.204a.613.613 0 0 1-.281.28.843.843 0 0 1-.406.095.884.884 0 0 1-.391-.078.915.915 0 0 1-.297-.25 1.147 1.147 0 0 1-.203-.375 1.768 1.768 0 0 1-.063-.5c0-.188.02-.352.063-.5a.997.997 0 0 1 .188-.375.885.885 0 0 1 .28-.235.792.792 0 0 1 .391-.094c.125 0 .235.016.329.047a.599.599 0 0 1 .375.313c.039.074.07.164.093.265zm0 0"/></symbol><symbol overflow="visible" id="t"><path d="M1.906-.875L2.203 0h.422L1.594-2.922h-.485L.063 0h.406L.78-.875zm-.11-.313H.86l.485-1.343zm0 0"/></symbol><symbol overflow="visible" id="z"><path d="M.64-2.922l.016.438-.422-.141-.078.234.438.125-.281.344.203.156.25-.375.25.375.203-.156-.282-.344.438-.125-.078-.234-.422.14.016-.437zm0 0"/></symbol><symbol overflow="visible" id="C"><path d="M.75-1.266h.953c.164 0 .285.043.36.125.082.086.124.22.124.407v.25c0 .093.004.183.016.265.02.086.04.157.063.219h.468v-.094a.21.21 0 0 1-.093-.078.575.575 0 0 1-.063-.11.995.995 0 0 1-.031-.156v-.25c0-.113-.008-.21-.016-.296a.566.566 0 0 0-.062-.204.34.34 0 0 0-.125-.14 1.076 1.076 0 0 0-.188-.11.945.945 0 0 0 .344-.28.787.787 0 0 0 .11-.423c0-.257-.079-.453-.235-.578-.148-.133-.367-.203-.656-.203H.375V0H.75zm0-.328v-1h.906c.094 0 .172.012.235.031.07.012.132.04.187.079.094.086.14.214.14.39 0 .18-.046.309-.14.39-.094.075-.234.11-.422.11zm0 0"/></symbol><symbol overflow="visible" id="D"><path d="M1.906-2.844H.438L.234-1.297h.329a.428.428 0 0 1 .109-.125.686.686 0 0 1 .25-.125.806.806 0 0 1 .156-.016.539.539 0 0 1 .438.188c.062.063.109.137.14.219.032.086.047.18.047.281 0 .105-.016.2-.047.281a.99.99 0 0 1-.172.25c-.086.086-.218.125-.406.125a.587.587 0 0 1-.375-.11A.693.693 0 0 1 .5-.702H.14c.008.062.02.117.032.156.008.043.023.09.047.14.02.055.05.106.093.157.083.117.192.2.329.25.132.063.28.094.437.094a.968.968 0 0 0 .39-.078.702.702 0 0 0 .313-.204.844.844 0 0 0 .203-.328 1.06 1.06 0 0 0 0-.796.872.872 0 0 0-.187-.297.713.713 0 0 0-.281-.188.934.934 0 0 0-.375-.078c-.106 0-.2.016-.282.047a.716.716 0 0 0-.25.125L.734-2.5h1.172zm0 0"/></symbol><symbol overflow="visible" id="E"><path d="M1.578 0l1.016-2.922h-.406L1.375-.453l-.86-2.469h-.39L1.172 0zm0 0"/></symbol><symbol overflow="visible" id="F"><path d="M.734-1.328h1.594v-.328H.734v-.938h1.657v-.328H.359V0h2.094v-.328H.734zm0 0"/></symbol><symbol overflow="visible" id="G"><path d="M2.328.5H-.094v.203h2.422zm0 0"/></symbol><symbol overflow="visible" id="H"><path d="M1.14-1.25H.189v.281h.953zm0 0"/></symbol><symbol overflow="visible" id="I"><path d="M2.14-1.078h-.828v-.828h-.28v.828H.202v.281h.828v.844h.282v-.844h.828zm0 0"/></symbol><symbol overflow="visible" id="J"><path d="M1.563-2.969c-.211 0-.403.04-.579.11a1.34 1.34 0 0 0-.437.312 1.484 1.484 0 0 0-.297.485 1.98 1.98 0 0 0-.094.624c0 .231.032.438.094.625.07.188.172.352.297.485.125.137.27.242.437.312a1.615 1.615 0 0 0 1.078.031c.157-.05.29-.128.407-.234.082-.062.156-.133.219-.218a1.654 1.654 0 0 0 .25-.625c.03-.114.046-.235.046-.36 0-.226-.039-.437-.109-.625a1.333 1.333 0 0 0-.281-.5 1.325 1.325 0 0 0-.453-.312c-.168-.07-.36-.11-.579-.11zm0 .328a.93.93 0 0 1 .421.094.84.84 0 0 1 .329.235c.093.105.164.234.218.39.051.149.078.313.078.5 0 .18-.027.34-.078.484a1.105 1.105 0 0 1-.547.625 1.042 1.042 0 0 1-.421.079c-.157 0-.297-.024-.422-.078a1.078 1.078 0 0 1-.547-.625 1.866 1.866 0 0 1-.063-.5c0-.188.02-.352.063-.5.05-.145.117-.27.203-.375a.973.973 0 0 1 .328-.235c.133-.062.281-.094.438-.094zm0 0"/></symbol><symbol overflow="visible" id="K"><path d="M2.219-2.922v2.047c0 .105-.024.2-.063.281a.666.666 0 0 1-.203.235c-.094.086-.262.125-.5.125a.873.873 0 0 1-.531-.157.422.422 0 0 1-.156-.187.83.83 0 0 1-.047-.297v-2.047H.344v2.047c0 .156.023.297.078.422.05.117.125.215.219.297a.98.98 0 0 0 .343.172c.145.05.301.078.47.078.175 0 .331-.028.468-.078A.853.853 0 0 0 2.5-.47a.832.832 0 0 0 .094-.406v-2.047zm0 0"/></symbol><symbol overflow="visible" id="L"><path d="M1.422-2.594h.953v-.328H.078v.328h.969V0h.375zm0 0"/></symbol><symbol overflow="visible" id="u"><path d="M1.594-.828V0h.422v-.828h.515v-.375h-.515v-2.234h-.313L.141-1.281v.453zm0-.375H.516L1.594-2.72zm0 0"/></symbol><symbol overflow="visible" id="v"><path d="M1.078-1.578h.234c.47 0 .704.21.704.625 0 .219-.063.39-.188.515-.125.118-.297.172-.516.172-.242 0-.417-.054-.53-.171C.663-.564.597-.75.577-1H.156c.008.137.024.258.047.36.02.093.055.18.11.25a.794.794 0 0 0 .374.374c.165.082.368.125.61.125.176 0 .332-.027.469-.078.144-.039.27-.11.375-.203a.928.928 0 0 0 .234-.344c.05-.132.078-.285.078-.453a.891.891 0 0 0-.14-.515c-.086-.133-.231-.235-.438-.297.32-.125.484-.364.484-.719a.968.968 0 0 0-.078-.39.763.763 0 0 0-.203-.297.973.973 0 0 0-.344-.188 1.408 1.408 0 0 0-.421-.063c-.356 0-.625.094-.813.282-.18.187-.266.465-.266.828h.422c0-.102.004-.188.016-.25a.56.56 0 0 1 .281-.406.992.992 0 0 1 .36-.094c.187.012.332.07.437.172a.55.55 0 0 1 .172.422.506.506 0 0 1-.078.296.406.406 0 0 1-.203.172.73.73 0 0 1-.11.032.64.64 0 0 1-.14.03 1.99 1.99 0 0 1-.313.016zm0 0"/></symbol><symbol overflow="visible" id="w"><path d="M2.313-3.438H.53l-.25 1.86h.39c.052-.05.099-.098.141-.14.04-.04.086-.071.141-.095a.486.486 0 0 1 .156-.062c.063-.008.125-.016.188-.016a.81.81 0 0 1 .312.063.54.54 0 0 1 .235.156c.07.074.125.164.156.266.031.105.05.218.063.343A1.74 1.74 0 0 1 2-.719a.807.807 0 0 1-.203.297c-.094.106-.262.156-.5.156a.69.69 0 0 1-.453-.14C.727-.5.644-.645.594-.844H.172c.008.074.02.137.031.188l.063.172c.02.062.054.125.109.187A.888.888 0 0 0 .765 0c.165.07.348.11.547.11.176 0 .333-.032.47-.094a.984.984 0 0 0 .374-.235c.102-.113.18-.242.235-.39.062-.157.097-.329.109-.516a1.636 1.636 0 0 0-.094-.453.928.928 0 0 0-.234-.36.961.961 0 0 0-.344-.234 1.081 1.081 0 0 0-.453-.094 1.11 1.11 0 0 0-.328.047.945.945 0 0 0-.297.156l.125-.953h1.438zm0 0"/></symbol><symbol overflow="visible" id="x"><path d="M2.453-.422H.641a.66.66 0 0 1 .046-.187.985.985 0 0 1 .11-.172c.05-.063.113-.117.187-.172.082-.063.176-.117.282-.172l.484-.266c.238-.132.422-.285.547-.453.125-.176.187-.375.187-.593a.87.87 0 0 0-.093-.391.961.961 0 0 0-.235-.344 1 1 0 0 0-.344-.203 1.477 1.477 0 0 0-.437-.063c-.219 0-.414.04-.578.11A.897.897 0 0 0 .422-3a.81.81 0 0 0-.125.281 1.55 1.55 0 0 0-.047.235c0 .074-.008.152-.016.234h.438c0-.113.004-.207.015-.281a.514.514 0 0 1 .094-.203.523.523 0 0 1 .235-.235.792.792 0 0 1 .343-.11.983.983 0 0 1 .266.063.619.619 0 0 1 .219.141.5.5 0 0 1 .14.203c.04.074.063.156.063.25 0 .274-.156.496-.469.672l-.453.25c-.18.105-.328.21-.453.313-.117.093-.211.199-.281.312a1.413 1.413 0 0 0-.172.39A2.188 2.188 0 0 0 .172 0h2.281zm0 0"/></symbol><symbol overflow="visible" id="A"><path d="M2.531-3.438H.22v.422h1.86c-.2.293-.376.563-.532.813-.149.242-.277.48-.39.719-.106.23-.2.464-.282.703-.074.242-.14.5-.203.781h.453c.05-.27.113-.535.188-.797.082-.258.175-.515.28-.765.114-.25.25-.5.407-.75.156-.258.332-.516.531-.766zm0 0"/></symbol><symbol overflow="visible" id="y"><path d="M-2.453-1.25H0v-.438h-3.438v.282c.126.043.231.086.313.125a.453.453 0 0 1 .203.14.939.939 0 0 1 .11.25c.023.106.039.235.046.391h.313zm0 0"/></symbol><symbol overflow="visible" id="B"><path d="M-1.813-1.906a1.108 1.108 0 0 0-.156-.203.573.573 0 0 0-.156-.141.665.665 0 0 0-.172-.094.872.872 0 0 0-.594.047.96.96 0 0 0-.296.219.972.972 0 0 0-.188.328c-.04.125-.063.266-.063.422 0 .148.024.289.063.422a.972.972 0 0 0 .188.328.979.979 0 0 0 .296.203.829.829 0 0 0 .36.078c.086 0 .156-.004.219-.016.062-.019.124-.046.187-.078a.844.844 0 0 0 .156-.156c.055-.062.106-.133.157-.219.187.399.476.59.859.579.156 0 .305-.024.437-.079A.877.877 0 0 0-.187-.5c.093-.102.167-.223.218-.36.051-.144.078-.3.078-.468a1.34 1.34 0 0 0-.078-.469 1.116 1.116 0 0 0-.218-.375.973.973 0 0 0-.329-.234A1.555 1.555 0 0 0-.953-2.5c-.383 0-.672.2-.86.594zm-1.25.578c0-.188.055-.332.157-.438a.569.569 0 0 1 .39-.171.56.56 0 0 1 .391.171c.094.106.14.25.14.438 0 .18-.046.324-.14.437a.492.492 0 0 1-.39.157.498.498 0 0 1-.391-.157.63.63 0 0 1-.156-.437zm1.438 0c0-.113.023-.211.063-.297a.619.619 0 0 1 .14-.219A.468.468 0 0 1-1.219-2c.086-.031.172-.05.266-.063.105.012.2.032.281.063a.73.73 0 0 1 .266.203c.094.094.14.25.14.469a.927.927 0 0 1-.046.297.586.586 0 0 1-.141.218.743.743 0 0 1-.219.157.786.786 0 0 1-.281.047.76.76 0 0 1-.266-.047.627.627 0 0 1-.203-.156.586.586 0 0 1-.14-.22.763.763 0 0 1-.063-.296zm0 0"/></symbol><symbol overflow="visible" id="M"><path d="M-1.078-2.14v.828h-.828v.28h.828v.829h.281v-.828h.844v-.282h-.844v-.828zm0 0"/></symbol><clipPath id="N"><path d="M370 212.82h2V289h-2zm0 0"/></clipPath><clipPath id="O"><path d="M370 212.82h179.719V214H370zm0 0"/></clipPath><clipPath id="P"><path d="M549 212.82h.719V317H549zm0 0"/></clipPath><clipPath id="Q"><path d="M531 316h18.719v1H531zm0 0"/></clipPath></defs><use xlink:href="#a" x="388.23" y="269.147" fill="gray"/><use xlink:href="#b" x="390.45" y="269.147" fill="gray"/><use xlink:href="#c" x="393.81" y="269.147" fill="gray"/><use xlink:href="#d" x="396.03" y="269.147" fill="gray"/><use xlink:href="#e" x="398.25" y="269.147" fill="gray"/><use xlink:href="#f" x="400.47" y="269.147" fill="gray"/><use xlink:href="#f" x="402.69" y="269.147" fill="gray"/><use xlink:href="#a" x="503.38" y="309.439" fill="gray"/><use xlink:href="#b" x="505.6" y="309.439" fill="gray"/><use xlink:href="#c" x="508.96" y="309.439" fill="gray"/><use xlink:href="#d" x="511.18" y="309.439" fill="gray"/><use xlink:href="#e" x="513.4" y="309.439" fill="gray"/><use xlink:href="#f" x="515.62" y="309.439" fill="gray"/><use xlink:href="#f" x="517.84" y="309.439" fill="gray"/><use xlink:href="#g" x="419.174" y="264.832" fill="gray"/><use xlink:href="#g" x="421.394" y="264.832" fill="gray"/><use xlink:href="#h" x="423.614" y="264.832" fill="gray"/><use xlink:href="#g" x="442.204" y="310.878" fill="gray"/><use xlink:href="#g" x="444.424" y="310.878" fill="gray"/><use xlink:href="#h" x="446.644" y="310.878" fill="gray"/><use xlink:href="#i" x="344.146" y="299.367" fill="gray"/><use xlink:href="#j" x="346.366" y="299.367" fill="gray"/><use xlink:href="#f" x="348.586" y="299.367" fill="gray"/><use xlink:href="#i" x="344.146" y="333.901" fill="gray"/><use xlink:href="#j" x="346.366" y="333.901" fill="gray"/><use xlink:href="#f" x="348.586" y="333.901" fill="gray"/><use xlink:href="#g" x="339.291" y="342.533" fill="gray"/><use xlink:href="#k" x="341.511" y="342.533" fill="gray"/><use xlink:href="#g" x="342.651" y="342.533" fill="gray"/><use xlink:href="#l" x="344.871" y="342.533" fill="gray"/><use xlink:href="#m" x="347.091" y="342.533" fill="gray"/><use xlink:href="#c" x="522.629" y="339.657" fill="gray"/><use xlink:href="#n" x="524.849" y="339.657" fill="gray"/><use xlink:href="#f" x="527.069" y="339.657" fill="gray"/><use xlink:href="#o" x="527.728" y="381.099" fill="gray"/><use xlink:href="#p" x="530.848" y="381.099" fill="gray"/><use xlink:href="#q" x="533.728" y="381.099" fill="gray"/><use xlink:href="#o" x="452.88" y="340.808" fill="gray"/><use xlink:href="#p" x="456" y="340.808" fill="gray"/><use xlink:href="#q" x="458.88" y="340.808" fill="gray"/><use xlink:href="#o" x="320.457" y="381.099" fill="gray"/><use xlink:href="#p" x="323.577" y="381.099" fill="gray"/><use xlink:href="#q" x="326.457" y="381.099" fill="gray"/><use xlink:href="#r" x="388.23" y="309.439" fill="gray"/><use xlink:href="#s" x="389.37" y="309.439" fill="gray"/><use xlink:href="#c" x="392.25" y="309.439" fill="gray"/><use xlink:href="#t" x="394.47" y="309.439" fill="gray"/><use xlink:href="#u" x="384.724" y="275.536" fill="gray"/><use xlink:href="#v" x="384.724" y="298.559" fill="gray"/><use xlink:href="#w" x="435.096" y="287.047" fill="gray"/><use xlink:href="#x" x="384.724" y="287.047" fill="gray"/><use xlink:href="#y" x="427.727" y="281.292" fill="gray"/><use xlink:href="#r" x="503.38" y="269.147" fill="gray"/><use xlink:href="#s" x="504.52" y="269.147" fill="gray"/><use xlink:href="#c" x="507.4" y="269.147" fill="gray"/><use xlink:href="#t" x="509.62" y="269.147" fill="gray"/><use xlink:href="#z" x="512.32" y="269.147" fill="gray"/><use xlink:href="#A" x="499.874" y="287.047" fill="gray"/><use xlink:href="#B" x="531.362" y="308.627" fill="gray"/><use xlink:href="#C" x="420.554" y="256.197" fill="gray"/><use xlink:href="#i" x="423.434" y="256.197" fill="gray"/><use xlink:href="#C" x="443.584" y="302.243" fill="gray"/><use xlink:href="#D" x="446.464" y="302.243" fill="gray"/><use xlink:href="#C" x="345.706" y="290.731" fill="gray"/><use xlink:href="#c" x="348.586" y="290.731" fill="gray"/><use xlink:href="#C" x="345.706" y="325.266" fill="gray"/><use xlink:href="#g" x="348.586" y="325.266" fill="gray"/><use xlink:href="#s" x="328.433" y="342.533" fill="gray"/><use xlink:href="#c" x="331.313" y="342.533" fill="gray"/><use xlink:href="#s" x="521.31" y="354.045" fill="gray"/><use xlink:href="#g" x="524.19" y="354.045" fill="gray"/><use xlink:href="#C" x="524.189" y="331.022" fill="gray"/><use xlink:href="#e" x="527.069" y="331.022" fill="gray"/><use xlink:href="#E" x="412.818" y="228.858" fill="gray"/><use xlink:href="#s" x="415.518" y="228.858" fill="gray"/><use xlink:href="#s" x="418.397" y="228.858" fill="gray"/><use xlink:href="#o" x="331.973" y="329.298" fill="gray"/><use xlink:href="#p" x="335.092" y="329.298" fill="gray"/><use xlink:href="#q" x="337.973" y="329.298" fill="gray"/><use xlink:href="#E" x="401.483" y="326.707" fill="gray"/><use xlink:href="#F" x="404.183" y="326.707" fill="gray"/><use xlink:href="#F" x="406.883" y="326.707" fill="gray"/><use xlink:href="#t" x="294.487" y="364.119" fill="gray"/><use xlink:href="#G" x="297.187" y="364.119" fill="gray"/><use xlink:href="#r" x="299.407" y="364.119" fill="gray"/><use xlink:href="#p" x="300.546" y="364.119" fill="gray"/><use xlink:href="#H" x="303.427" y="364.119" fill="gray"/><use xlink:href="#t" x="293.466" y="346.852" fill="gray"/><use xlink:href="#G" x="296.166" y="346.852" fill="gray"/><use xlink:href="#r" x="298.387" y="346.852" fill="gray"/><use xlink:href="#p" x="299.527" y="346.852" fill="gray"/><use xlink:href="#I" x="302.407" y="346.852" fill="gray"/><use xlink:href="#t" x="483.229" y="312.317" fill="gray"/><use xlink:href="#G" x="485.929" y="312.317" fill="gray"/><use xlink:href="#J" x="488.149" y="312.317" fill="gray"/><use xlink:href="#K" x="491.269" y="312.317" fill="gray"/><use xlink:href="#L" x="494.149" y="312.317" fill="gray"/><use xlink:href="#H" x="496.61" y="312.317" fill="gray"/><use xlink:href="#t" x="483.229" y="300.805" fill="gray"/><use xlink:href="#G" x="485.929" y="300.805" fill="gray"/><use xlink:href="#J" x="488.149" y="300.805" fill="gray"/><use xlink:href="#K" x="491.269" y="300.805" fill="gray"/><use xlink:href="#L" x="494.149" y="300.805" fill="gray"/><use xlink:href="#I" x="496.61" y="300.805" fill="gray"/><path d="M388.262 305.102v-34.5M388.262 270.602l34.5 17.277M422.762 287.879l-34.5 17.223" fill="none" stroke-width=".6000000000000001" stroke-linecap="round" stroke-linejoin="round" stroke="maroon" stroke-miterlimit="10"/><path d="M391.078 300.781v-2.883M389.64 299.34h2.88M389.64 276.36h2.88M382.5 276.36h5.762M382.5 299.34h5.762M440.04 287.879h-5.759" fill="none" stroke-width=".36000000000000004" stroke-linecap="round" stroke-linejoin="round" stroke="maroon" stroke-miterlimit="10"/><path d="M388.262 289.02l-.301-.06M387.96 288.96l-.241-.062M387.719 288.898l-.18-.117M387.54 288.781l-.24-.18M387.3 288.602l-.12-.243M387.18 288.36l-.059-.239M387.121 288.121l-.062-.242M387.059 287.879l.062-.3M387.121 287.578l.059-.238M387.18 287.34l.12-.18M387.3 287.16l.24-.18M387.54 286.98l.179-.18M387.719 286.8l.242-.062M387.96 286.738l.302-.058M388.262 286.68l.238.058M388.5 286.738l.238.063M388.738 286.8l.184.18M388.922 286.98l.238.18M389.16 287.16l.121.18M389.281 287.34l.059.238M389.34 287.578l.058.3M389.398 287.879l-.058.242M389.34 288.121l-.059.238M389.281 288.36l-.12.242M389.16 288.602l-.238.18M388.922 288.781l-.184.117M388.738 288.898l-.238.063M388.5 288.96l-.238.06M387.96 288.96h.54M387.781 288.898h.899M387.66 288.84h1.14M387.602 288.781h1.32M387.48 288.719h1.5M387.422 288.66h1.617M387.36 288.602h1.742M387.3 288.54h1.86M387.3 288.48h1.86M387.238 288.422h1.98M387.238 288.36h1.98M387.18 288.3h2.101M387.18 288.3h2.101M387.121 288.238h2.219M387.121 288.18h2.219M387.121 288.121h2.219M387.121 288.059h2.219M387.121 288h2.219M387.059 287.941h2.34M387.059 287.879h2.34M387.059 287.82h2.34M387.059 287.762h2.34M387.121 287.7h2.219M387.121 287.64h2.219M387.121 287.578h2.219M387.121 287.52h2.219M387.18 287.46h2.101M387.18 287.398h2.101M387.18 287.34h2.101M387.238 287.281h1.98M387.238 287.219h1.98M387.3 287.16h1.86M387.36 287.102h1.742M387.422 287.04h1.617M387.48 286.98h1.5M387.54 286.922h1.382M387.602 286.922h1.257M387.719 286.86h1.02M387.84 286.8h.781M388.078 286.738h.3M388.262 296.46l-2.883-5.16M385.379 291.3h5.7M391.078 291.3l-2.816 5.16M388.2 296.46h.062M388.2 296.398h.062M388.14 296.34h.18M388.14 296.281h.239M388.078 296.219h.3M388.02 296.16h.421M388.02 296.102h.421M387.96 296.04h.54M387.96 295.98h.54M387.898 295.922h.66M387.898 295.86h.66M387.84 295.8h.781M387.84 295.738h.781M387.781 295.68h.899M387.781 295.621h.899M387.719 295.559h1.02M387.719 295.5h1.02M387.66 295.441h1.14M387.66 295.379h1.14M387.602 295.379h1.257M387.54 295.32h1.382M387.54 295.262h1.382M387.48 295.2h1.5M387.48 295.14h1.5M387.422 295.078h1.617M387.422 295.02h1.617M387.36 294.96h1.742M387.36 294.898h1.742M387.3 294.84h1.86M387.3 294.781h1.86M387.238 294.719h1.98M387.238 294.66h1.98M387.18 294.602h2.101M387.18 294.54h2.101M387.121 294.48h2.219M387.059 294.422h2.34M387.059 294.36h2.34M387 294.3h2.46M387 294.238h2.46M386.941 294.18h2.579M386.941 294.121h2.579M386.879 294.059h2.7M386.879 294h2.7M386.82 293.941h2.82M386.82 293.941h2.82M386.762 293.879h2.937M386.762 293.82h2.937M386.7 293.762h3.062M386.7 293.7h3.062M386.64 293.64h3.18M386.578 293.578h3.3M386.578 293.52h3.3M386.52 293.46h3.421M386.52 293.398h3.421M386.46 293.34H390M386.46 293.281H390M386.398 293.219h3.66M386.398 293.16h3.66M386.34 293.102h3.781M386.34 293.04h3.781M386.281 292.98h3.899M386.281 292.922h3.899M386.219 292.86h4.02M386.219 292.8h4.02M386.16 292.738h4.14M386.102 292.68h4.257M386.102 292.621h4.257M386.04 292.559h4.382M386.04 292.559h4.382M385.98 292.5h4.5M385.98 292.441h4.5M385.922 292.379h4.617M385.922 292.32h4.617M385.86 292.262h4.742M385.86 292.2h4.742M385.8 292.14h4.86M385.8 292.078h4.86M385.738 292.02h4.98M385.738 291.96h4.98M385.68 291.898h5.101M385.621 291.84h5.219M385.621 291.781h5.219M385.559 291.719h5.34M385.559 291.66h5.34M385.5 291.602h5.46M385.5 291.54h5.46M385.441 291.48h5.579M385.441 291.422h5.579M385.379 291.36h5.7M385.379 291.3h5.7" fill="none" stroke-width=".12" stroke-linecap="round" stroke-linejoin="round" stroke="maroon" stroke-miterlimit="10"/><path d="M385.379 296.46h5.7" fill="none" stroke-width=".6000000000000001" stroke-linecap="round" stroke-linejoin="round" stroke="maroon" stroke-miterlimit="10"/><path d="M388.262 279.238l2.816 5.16M391.078 284.398h-5.7M385.379 284.398l2.883-5.16M385.379 284.34h5.7M385.379 284.281h5.7M385.441 284.219h5.579M385.5 284.16h5.46M385.5 284.102h5.46M385.559 284.102h5.34M385.559 284.04h5.34M385.621 283.98h5.219M385.621 283.922h5.219M385.68 283.86h5.101M385.68 283.8h5.101M385.738 283.738h4.98M385.738 283.68h4.98M385.8 283.621h4.86M385.8 283.559h4.86M385.86 283.5h4.742M385.86 283.441h4.742M385.922 283.379h4.617M385.98 283.32h4.56M385.98 283.262h4.5M386.04 283.2h4.382M386.04 283.14h4.382M386.102 283.078h4.257M386.102 283.02h4.257M386.16 282.96h4.14M386.16 282.898h4.14M386.219 282.84h4.02M386.219 282.781h4.02M386.281 282.719h3.899M386.281 282.66h3.899M386.34 282.66h3.781M386.34 282.602h3.781M386.398 282.54h3.66M386.398 282.48h3.66M386.46 282.422H390M386.52 282.36h3.421M386.52 282.3h3.421M386.578 282.238h3.3M386.578 282.18h3.3M386.64 282.121h3.18M386.64 282.059h3.18M386.7 282h3.062M386.7 281.941h3.062M386.762 281.879h2.937M386.762 281.82h2.937M386.82 281.762h2.82M386.82 281.7h2.82M386.879 281.64h2.7M386.879 281.578h2.7M386.941 281.52h2.579M387 281.46h2.46M387 281.398h2.46M387.059 281.34h2.34M387.059 281.281h2.34M387.121 281.281h2.219M387.121 281.219h2.219M387.18 281.16h2.101M387.18 281.102h2.101M387.238 281.04h1.98M387.238 280.98h1.98M387.3 280.922h1.86M387.3 280.86h1.86M387.36 280.8h1.742M387.36 280.738h1.742M387.422 280.68h1.617M387.48 280.621h1.5M387.48 280.559h1.5M387.54 280.5h1.382M387.54 280.441h1.382M387.602 280.379h1.257M387.602 280.32h1.257M387.66 280.262h1.14M387.66 280.2h1.14M387.719 280.14h1.02M387.719 280.078h1.02M387.781 280.02h.899M387.781 279.96h.899M387.84 279.898h.781M387.84 279.84h.781M387.898 279.84h.66M387.96 279.781h.54M387.96 279.719h.54M388.02 279.66h.421M388.02 279.602h.421M388.078 279.54h.3M388.078 279.48h.3M388.14 279.422h.18M388.14 279.36h.18M388.2 279.3h.062M388.2 279.238h.062" fill="none" stroke-width=".12" stroke-linecap="round" stroke-linejoin="round" stroke="maroon" stroke-miterlimit="10"/><path d="M391.078 279.238h-5.7" fill="none" stroke-width=".6000000000000001" stroke-linecap="round" stroke-linejoin="round" stroke="maroon" stroke-miterlimit="10"/><path d="M382.5 287.879h5.762" fill="none" stroke-width=".36000000000000004" stroke-linecap="round" stroke-linejoin="round" stroke="maroon" stroke-miterlimit="10"/><path d="M430.922 287.879a4.08 4.08 0 1 1-8.16 0 4.079 4.079 0 0 1 4.078-4.078 4.082 4.082 0 0 1 4.082 4.078zm0 0" fill="none" stroke-width=".6000000000000001" stroke-linecap="round" stroke-linejoin="round" stroke="maroon" stroke-miterlimit="10"/><path d="M434.281 287.879a4.08 4.08 0 1 1-8.16 0 4.079 4.079 0 0 1 4.078-4.078 4.082 4.082 0 0 1 4.082 4.078zm0 0" fill="none" stroke-width=".6000000000000001" stroke-linecap="round" stroke-linejoin="round" stroke="maroon" stroke-miterlimit="10"/><path d="M428.52 276.36v5.761M428.52 282.121v1.98M520.68 282.121h-2.88M517.8 282.121l-5.64 2.758M515.34 290.941l1.14 2.04M516.48 292.98l-2.28.239M514.2 293.219l1.14-2.278M517.8 293.578l-1.32-.598M516.48 292.98l-3.78-1.921" fill="none" stroke-width=".36000000000000004" stroke-linecap="round" stroke-linejoin="round" stroke="maroon" stroke-miterlimit="10"/><path d="M514.738 292.98l1.32-.18M516.059 292.8l-.72-1.26" fill="none" stroke-width=".7200000000000001" stroke-linecap="round" stroke-linejoin="round" stroke="maroon" stroke-miterlimit="10"/><path d="M515.34 291.54l-.602 1.14M514.738 292.68h.903M515.64 292.68l-.3-.602" fill="none" stroke-width=".6000000000000001" stroke-linecap="round" stroke-linejoin="round" stroke="maroon" stroke-miterlimit="10"/><path d="M510.898 293.64h1.684v-11.519h-1.684zm0 0" fill="maroon" stroke-width=".12" stroke-linecap="round" stroke-linejoin="round" stroke="maroon" stroke-miterlimit="10"/><path d="M497.64 287.879h5.758M532.14 310.86v-5.758M532.14 287.879h-2.878M529.262 287.879l-5.582 2.762M526.86 296.7l1.14 2.038M528 298.738l-2.281.242M525.719 298.98l1.14-2.28M529.262 299.34l-1.262-.602M528 298.738l-3.781-1.918" fill="none" stroke-width=".36000000000000004" stroke-linecap="round" stroke-linejoin="round" stroke="maroon" stroke-miterlimit="10"/><path d="M526.262 298.738l1.316-.18M527.578 298.559l-.719-1.258" fill="none" stroke-width=".7200000000000001" stroke-linecap="round" stroke-linejoin="round" stroke="maroon" stroke-miterlimit="10"/><path d="M526.86 297.3l-.598 1.141M526.262 298.441h.898M527.16 298.441l-.3-.601" fill="none" stroke-width=".6000000000000001" stroke-linecap="round" stroke-linejoin="round" stroke="maroon" stroke-miterlimit="10"/><path d="M522.422 299.34h1.68v-11.52h-1.68zm0 0" fill="maroon" stroke-width=".12" stroke-linecap="round" stroke-linejoin="round" stroke="maroon" stroke-miterlimit="10"/><path d="M517.8 293.578h5.759" fill="none" stroke-width=".36000000000000004" stroke-linecap="round" stroke-linejoin="round" stroke="maroon" stroke-miterlimit="10"/><path d="M520.68 282.66h-.18M520.5 282.66l-.121-.058M520.379 282.602l-.117-.122M520.262 282.48l-.121-.12M520.14 282.36l-.062-.122M520.078 282.238v-.117M520.078 282.121v-.18M520.078 281.941l.063-.12M520.14 281.82l.122-.12M520.262 281.7l.117-.122M520.379 281.578l.121-.058M520.5 281.52h.18M520.68 281.52h.12M520.8 281.52l.122.058M520.922 281.578l.117.121M521.04 281.7l.12.12M521.16 281.82l.059.121M521.219 281.941v.18M521.219 282.121v.117M521.219 282.238l-.059.121M521.16 282.36l-.12.12M521.04 282.48l-.118.122M520.922 282.602l-.121.058M520.8 282.66h-.12M520.262 282.54h.777M520.14 282.36h1.02M520.078 282.121h1.14M520.078 281.941h1.14M520.2 281.762h.902M520.5 281.52h.3" fill="none" stroke-width=".30000000000000004" stroke-linecap="round" stroke-linejoin="round" stroke="maroon" stroke-miterlimit="10"/><path d="M520.68 282.121h11.46M532.14 282.121v5.758M522.422 276.36a1.74 1.74 0 1 1 0 0zm0 0" fill="none" stroke-width=".36000000000000004" stroke-linecap="round" stroke-linejoin="round" stroke="maroon" stroke-miterlimit="10"/><path d="M521.82 276.36h-2.34M520.68 275.219v2.281" fill="none" stroke-width=".30000000000000004" stroke-linecap="round" stroke-linejoin="round" stroke="maroon" stroke-miterlimit="10"/><path d="M520.68 278.04v4.081" fill="none" stroke-width=".36000000000000004" stroke-linecap="round" stroke-linejoin="round" stroke="maroon" stroke-miterlimit="10"/><path d="M503.398 270.602h2.34M507.96 270.602h2.34M512.578 270.602h2.344M517.2 270.602h2.34M521.762 270.602h2.34M526.379 270.602h2.34M531 270.602h2.34M535.621 270.602h2.277M537.898 305.102h-2.277M533.34 305.102H531M528.719 305.102h-2.34M524.102 305.102h-2.34M519.54 305.102h-2.34M514.922 305.102h-2.344M510.3 305.102h-2.34M505.738 305.102h-2.34" fill="none" stroke-width=".6000000000000001" stroke-linecap="round" stroke-linejoin="round" stroke="maroon" stroke-miterlimit="10"/><path d="M497.64 287.879h14.4M529.262 299.34h2.879M532.14 299.34v11.52" fill="none" stroke-width=".36000000000000004" stroke-linecap="round" stroke-linejoin="round" stroke="maroon" stroke-miterlimit="10"/><path d="M537.898 270.602v2.34M537.898 275.16v2.34M537.898 279.781v2.34M537.898 284.398v2.34M537.898 288.96v2.34M537.898 293.578v2.344M537.898 298.2v2.34M537.898 302.762v2.34M503.398 270.602v2.34M503.398 275.16v2.34M503.398 279.781v2.34M503.398 284.398v2.34M503.398 288.96v2.34M503.398 293.578v2.344M503.398 298.2v2.34M503.398 302.762v2.34" fill="none" stroke-width=".6000000000000001" stroke-linecap="round" stroke-linejoin="round" stroke="maroon" stroke-miterlimit="10"/><path d="M428.52 247.559v5.761M428.52 270.602v-5.762" fill="none" stroke-width=".36000000000000004" stroke-linecap="round" stroke-linejoin="round" stroke="maroon" stroke-miterlimit="10"/><path d="M430.559 264.84v-11.52M426.54 253.32v11.52M430.559 253.32h-4.02M430.559 264.84h-4.02" fill="none" stroke-width=".6000000000000001" stroke-linecap="round" stroke-linejoin="round" stroke="maroon" stroke-miterlimit="10"/><path d="M451.559 293.578v5.762M451.559 316.621v-5.762" fill="none" stroke-width=".36000000000000004" stroke-linecap="round" stroke-linejoin="round" stroke="maroon" stroke-miterlimit="10"/><path d="M453.602 310.86v-11.52M449.52 299.34v11.52M453.602 299.34h-4.082M453.602 310.86h-4.082" fill="none" stroke-width=".6000000000000001" stroke-linecap="round" stroke-linejoin="round" stroke="maroon" stroke-miterlimit="10"/><path d="M353.7 282.121v5.758M353.7 305.102v-5.762" fill="none" stroke-width=".36000000000000004" stroke-linecap="round" stroke-linejoin="round" stroke="maroon" stroke-miterlimit="10"/><path d="M355.68 299.34v-11.461M351.66 287.879v11.46M355.68 287.879h-4.02M355.68 299.34h-4.02" fill="none" stroke-width=".6000000000000001" stroke-linecap="round" stroke-linejoin="round" stroke="maroon" stroke-miterlimit="10"/><path d="M353.7 316.621v5.758M353.7 339.66v-5.762" fill="none" stroke-width=".36000000000000004" stroke-linecap="round" stroke-linejoin="round" stroke="maroon" stroke-miterlimit="10"/><path d="M355.68 333.898v-11.52M351.66 322.379v11.52M355.68 322.379h-4.02M355.68 333.898h-4.02" fill="none" stroke-width=".6000000000000001" stroke-linecap="round" stroke-linejoin="round" stroke="maroon" stroke-miterlimit="10"/><use xlink:href="#I" x="331.194" y="350.449" fill="maroon"/><path d="M342.18 345.422h-4.02M330.66 345.422h3.719" fill="none" stroke-width=".36000000000000004" stroke-linecap="round" stroke-linejoin="round" stroke="maroon" stroke-miterlimit="10"/><path d="M336.96 350.04h1.438v-9.24h-1.437zm0 0" fill="maroon" stroke-width=".12" stroke-linecap="round" stroke-linejoin="round" stroke="maroon" stroke-miterlimit="10"/><path d="M334.379 349.86h1.441M335.82 349.86v-8.88M335.82 340.98h-1.441M334.379 340.98v4.442M334.379 345.422v4.437" fill="none" stroke-width=".30000000000000004" stroke-linecap="round" stroke-linejoin="round" stroke="maroon" stroke-miterlimit="10"/><use xlink:href="#M" x="530.009" y="354.045" fill="maroon"/><path d="M532.14 362.7v-4.079M532.14 351.18v3.718" fill="none" stroke-width=".36000000000000004" stroke-linecap="round" stroke-linejoin="round" stroke="maroon" stroke-miterlimit="10"/><path d="M527.52 358.922h9.242v-1.442h-9.242zm0 0" fill="maroon" stroke-width=".12" stroke-linecap="round" stroke-linejoin="round" stroke="maroon" stroke-miterlimit="10"/><path d="M527.7 354.898v1.442M527.7 356.34h8.94M536.64 356.34v-1.442M536.64 354.898h-4.5M532.14 354.898h-4.44" fill="none" stroke-width=".30000000000000004" stroke-linecap="round" stroke-linejoin="round" stroke="maroon" stroke-miterlimit="10"/><path d="M532.14 322.379v5.762M532.14 345.422v-5.762" fill="none" stroke-width=".36000000000000004" stroke-linecap="round" stroke-linejoin="round" stroke="maroon" stroke-miterlimit="10"/><path d="M534.18 339.66v-11.52M530.16 328.14v11.52M534.18 328.14h-4.02M534.18 339.66h-4.02M528.422 374.16h7.5" fill="none" stroke-width=".6000000000000001" stroke-linecap="round" stroke-linejoin="round" stroke="maroon" stroke-miterlimit="10"/><path d="M532.14 368.46v5.7" fill="none" stroke-width=".36000000000000004" stroke-linecap="round" stroke-linejoin="round" stroke="maroon" stroke-miterlimit="10"/><path d="M529.86 375.36h4.62M531.3 376.5h1.74M453.602 333.898h7.437" fill="none" stroke-width=".6000000000000001" stroke-linecap="round" stroke-linejoin="round" stroke="maroon" stroke-miterlimit="10"/><path d="M457.32 328.14v5.758" fill="none" stroke-width=".36000000000000004" stroke-linecap="round" stroke-linejoin="round" stroke="maroon" stroke-miterlimit="10"/><path d="M455.04 335.04h4.562M456.48 336.18h1.68" fill="none" stroke-width=".6000000000000001" stroke-linecap="round" stroke-linejoin="round" stroke="maroon" stroke-miterlimit="10"/><path d="M405.48 273.48v5.758M405.48 302.219v-5.758M406.68 276.36h2.46M407.941 275.102v2.457M406.68 299.34h2.46" fill="none" stroke-width=".36000000000000004" stroke-linecap="round" stroke-linejoin="round" stroke="maroon" stroke-miterlimit="10"/><path d="M419.879 234.602l-2.879-4.32M417 230.281l-2.879 4.32" fill="none" stroke-width=".6000000000000001" stroke-linecap="round" stroke-linejoin="round" stroke="maroon" stroke-miterlimit="10"/><path d="M417 236.04v-5.759" fill="none" stroke-width=".36000000000000004" stroke-linecap="round" stroke-linejoin="round" stroke="maroon" stroke-miterlimit="10"/><path d="M332.7 322.379h7.44" fill="none" stroke-width=".6000000000000001" stroke-linecap="round" stroke-linejoin="round" stroke="maroon" stroke-miterlimit="10"/><path d="M336.422 316.621v5.758" fill="none" stroke-width=".36000000000000004" stroke-linecap="round" stroke-linejoin="round" stroke="maroon" stroke-miterlimit="10"/><path d="M334.078 323.52h4.621M335.52 324.719h1.742M402.602 318.059l2.878 4.32M405.48 322.379l2.88-4.32" fill="none" stroke-width=".6000000000000001" stroke-linecap="round" stroke-linejoin="round" stroke="maroon" stroke-miterlimit="10"/><path d="M405.48 316.621v5.758" fill="none" stroke-width=".36000000000000004" stroke-linecap="round" stroke-linejoin="round" stroke="maroon" stroke-miterlimit="10"/><path d="M319.14 362.7h-5.761M313.379 362.7a2.88 2.88 0 1 1-5.758-.001 2.88 2.88 0 0 1 5.758 0zm0 0M319.14 345.422h-5.761M313.379 345.422a2.88 2.88 0 0 1-5.758 0 2.88 2.88 0 1 1 5.758 0zm0 0M321.18 374.16h7.441" fill="none" stroke-width=".6000000000000001" stroke-linecap="round" stroke-linejoin="round" stroke="maroon" stroke-miterlimit="10"/><path d="M324.898 368.46v5.7" fill="none" stroke-width=".36000000000000004" stroke-linecap="round" stroke-linejoin="round" stroke="maroon" stroke-miterlimit="10"/><path d="M322.621 375.36h4.559M324.059 376.5h1.68M468.84 310.86h5.762M480.36 310.86a2.88 2.88 0 1 1-5.759-.001 2.88 2.88 0 0 1 5.758 0zm0 0M468.84 299.34h5.762M480.36 299.34a2.88 2.88 0 1 1-5.759 0 2.88 2.88 0 0 1 5.758 0zm0 0" fill="none" stroke-width=".6000000000000001" stroke-linecap="round" stroke-linejoin="round" stroke="maroon" stroke-miterlimit="10"/><path d="M428.52 270.602v5.757M342.18 345.422h11.52M353.7 345.422v-5.762M353.7 282.121v-5.762M353.7 276.36h28.8M382.5 287.879h-11.52" fill="none" stroke-width=".36000000000000004" stroke-linecap="round" stroke-linejoin="round" stroke="green" stroke-miterlimit="10"/><g clip-path="url(#N)"><path d="M370.98 287.879V213" fill="none" stroke-width=".36000000000000004" stroke-linecap="round" stroke-linejoin="round" stroke="green" stroke-miterlimit="10"/></g><g clip-path="url(#O)"><path d="M370.98 213h178.442" fill="none" stroke-width=".36000000000000004" stroke-linecap="round" stroke-linejoin="round" stroke="green" stroke-miterlimit="10"/></g><g clip-path="url(#P)"><path d="M549.422 213v103.621" fill="none" stroke-width=".36000000000000004" stroke-linecap="round" stroke-linejoin="round" stroke="green" stroke-miterlimit="10"/></g><g clip-path="url(#Q)"><path d="M549.422 316.621H532.14" fill="none" stroke-width=".36000000000000004" stroke-linecap="round" stroke-linejoin="round" stroke="green" stroke-miterlimit="10"/></g><path d="M532.14 316.621v-5.762M532.14 322.379v-5.758" fill="none" stroke-width=".36000000000000004" stroke-linecap="round" stroke-linejoin="round" stroke="green" stroke-miterlimit="10"/><path d="M533.281 316.621c0 .629-.511 1.14-1.14 1.14a1.14 1.14 0 1 1 1.14-1.14" fill-rule="evenodd" fill="green"/><path d="M533.281 316.621c0 .629-.511 1.14-1.14 1.14a1.14 1.14 0 1 1 1.14-1.14zm0 0" fill="none" stroke-width=".12" stroke-linecap="round" stroke-linejoin="round" stroke="green" stroke-miterlimit="10"/><path d="M532.14 368.46v-5.76M451.559 316.621v5.758M451.559 322.379h5.761M457.32 322.379v5.762M468.84 310.86h-5.762M463.078 310.86v11.519M463.078 322.379h-5.758" fill="none" stroke-width=".36000000000000004" stroke-linecap="round" stroke-linejoin="round" stroke="green" stroke-miterlimit="10"/><path d="M458.46 322.379a1.14 1.14 0 1 1-2.28 0c0-.629.511-1.14 1.14-1.14.63 0 1.14.511 1.14 1.14" fill-rule="evenodd" fill="green"/><path d="M458.46 322.379a1.14 1.14 0 1 1-2.28 0c0-.629.511-1.14 1.14-1.14.63 0 1.14.511 1.14 1.14zm0 0" fill="none" stroke-width=".12" stroke-linecap="round" stroke-linejoin="round" stroke="green" stroke-miterlimit="10"/><path d="M353.7 316.621v-5.762M353.7 310.86v-5.758M353.7 310.86h17.28M370.98 310.86v-11.52" fill="none" stroke-width=".36000000000000004" stroke-linecap="round" stroke-linejoin="round" stroke="green" stroke-miterlimit="10"/><path d="M354.84 310.86c0 .628-.512 1.14-1.14 1.14-.63 0-1.141-.512-1.141-1.14 0-.63.511-1.141 1.14-1.141.63 0 1.14.511 1.14 1.14" fill-rule="evenodd" fill="green"/><path d="M354.84 310.86c0 .628-.512 1.14-1.14 1.14-.63 0-1.141-.512-1.141-1.14 0-.63.511-1.141 1.14-1.141.63 0 1.14.511 1.14 1.14zm0 0" fill="none" stroke-width=".12" stroke-linecap="round" stroke-linejoin="round" stroke="green" stroke-miterlimit="10"/><path d="M370.98 299.34h11.52M353.7 310.86h-17.278M336.422 310.86v5.761M324.898 368.46v-5.76M324.898 362.7h-5.757M532.14 351.18v-5.758M440.04 287.879h11.519M451.559 287.879v5.7M451.559 287.879h11.52" fill="none" stroke-width=".36000000000000004" stroke-linecap="round" stroke-linejoin="round" stroke="green" stroke-miterlimit="10"/><path d="M452.7 287.879a1.14 1.14 0 1 1-2.28.002 1.14 1.14 0 0 1 2.28-.002" fill-rule="evenodd" fill="green"/><path d="M452.7 287.879a1.14 1.14 0 1 1-2.28.002 1.14 1.14 0 0 1 2.28-.002zm0 0" fill="none" stroke-width=".12" stroke-linecap="round" stroke-linejoin="round" stroke="green" stroke-miterlimit="10"/><path d="M463.078 287.879h34.563M468.84 299.34h-5.762M463.078 299.34v-11.461" fill="none" stroke-width=".36000000000000004" stroke-linecap="round" stroke-linejoin="round" stroke="green" stroke-miterlimit="10"/><path d="M464.219 287.879c0 .633-.508 1.14-1.14 1.14a1.136 1.136 0 0 1-1.138-1.14 1.139 1.139 0 1 1 2.278 0" fill-rule="evenodd" fill="green"/><path d="M464.219 287.879c0 .633-.508 1.14-1.14 1.14a1.136 1.136 0 0 1-1.138-1.14 1.139 1.139 0 1 1 2.278 0zm0 0" fill="none" stroke-width=".12" stroke-linecap="round" stroke-linejoin="round" stroke="green" stroke-miterlimit="10"/><path d="M417 236.04v5.76M417 241.8h11.52M428.52 241.8v5.759M405.48 273.48V241.8M405.48 241.8H417" fill="none" stroke-width=".36000000000000004" stroke-linecap="round" stroke-linejoin="round" stroke="green" stroke-miterlimit="10"/><path d="M418.14 241.8c0 .63-.511 1.141-1.14 1.141-.629 0-1.14-.511-1.14-1.14 0-.63.511-1.14 1.14-1.14.629 0 1.14.51 1.14 1.14" fill-rule="evenodd" fill="green"/><path d="M418.14 241.8c0 .63-.511 1.141-1.14 1.141-.629 0-1.14-.511-1.14-1.14 0-.63.511-1.14 1.14-1.14.629 0 1.14.51 1.14 1.14zm0 0" fill="none" stroke-width=".12" stroke-linecap="round" stroke-linejoin="round" stroke="green" stroke-miterlimit="10"/><path d="M405.48 316.621V302.22M319.14 345.422h11.52" fill="none" stroke-width=".36000000000000004" stroke-linecap="round" stroke-linejoin="round" stroke="green" stroke-miterlimit="10"/></svg>