<svg xmlns:xlink="http://www.w3.org/1999/xlink" width="842pt" height="595pt" viewBox="0 0 842 595"><defs><symbol overflow="visible" id="a"><path d="M2.719-4.047H.625L.328-1.844h.453A1.95 1.95 0 0 1 .953-2a.668.668 0 0 1 .36-.188.823.823 0 0 1 .578.047.835.835 0 0 1 .453.5c.039.118.062.246.062.391 0 .148-.023.277-.062.39a1.127 1.127 0 0 1-.235.36c-.117.125-.308.188-.578.188a.84.84 0 0 1-.547-.172.89.89 0 0 1-.28-.5h-.5c.007.086.019.156.03.218.02.063.047.133.078.204.032.074.079.14.141.203A.935.935 0 0 0 .906 0a1.575 1.575 0 0 0 1.188.016c.164-.063.312-.157.437-.282.125-.132.219-.289.281-.468.07-.176.11-.368.11-.579 0-.195-.031-.378-.094-.546a1.232 1.232 0 0 0-.265-.422 1.113 1.113 0 0 0-.422-.281 1.376 1.376 0 0 0-.516-.094c-.148 0-.281.023-.406.062-.117.031-.23.09-.344.172l.156-1.125H2.72zm0 0"/></symbol><symbol overflow="visible" id="b"><path d="M1.625-1.781H.265v.406h1.36zm0 0"/></symbol><symbol overflow="visible" id="c"><path d="M1.469-2.875V0h.515v-4.047h-.328a3.51 3.51 0 0 1-.156.39.545.545 0 0 1-.172.22.839.839 0 0 1-.297.124 2.968 2.968 0 0 1-.453.079v.359zm0 0"/></symbol><symbol overflow="visible" id="d"><path d="M2.234-2.125c.094-.063.176-.117.25-.172a1.07 1.07 0 0 0 .172-.187c.04-.07.07-.145.094-.22.02-.07.031-.16.031-.265a.93.93 0 0 0-.094-.422 1.114 1.114 0 0 0-.25-.343 1.144 1.144 0 0 0-.39-.22 1.23 1.23 0 0 0-.485-.093c-.18 0-.34.031-.484.094a1.313 1.313 0 0 0-.39.219c-.106.093-.188.21-.25.343a1.042 1.042 0 0 0-.079.422c0 .094.004.184.016.266.02.074.05.14.094.203a.816.816 0 0 0 .172.188c.07.062.16.124.265.187-.469.219-.699.555-.687 1 0 .188.031.36.093.516.063.156.149.293.266.406.125.105.27.183.438.234.164.063.347.094.546.094.196 0 .38-.031.547-.094a1.08 1.08 0 0 0 .703-.64c.07-.157.11-.32.11-.5 0-.457-.23-.797-.688-1.016zm-.671-1.469c.218 0 .39.059.515.172a.612.612 0 0 1 .188.469c0 .187-.063.34-.188.453-.125.117-.297.172-.515.172-.211 0-.375-.055-.5-.172a.624.624 0 0 1-.204-.453.653.653 0 0 1 .204-.469.713.713 0 0 1 .5-.172zm0 1.688c.125 0 .238.023.343.062a.89.89 0 0 1 .266.172c.07.063.129.149.172.25a.847.847 0 0 1 0 .64c-.043.095-.121.2-.235.313-.117.106-.296.156-.546.156a1.18 1.18 0 0 1-.344-.046.695.695 0 0 1-.266-.172.734.734 0 0 1-.172-.25.832.832 0 0 1-.062-.328c0-.114.02-.22.062-.313a.61.61 0 0 1 .172-.25.8.8 0 0 1 .266-.172.961.961 0 0 1 .343-.062zm0 0"/></symbol><symbol overflow="visible" id="e"><path d="M.313 1.234H.78V-.312c.125.156.258.273.406.343.157.07.329.102.516.094.188 0 .36-.04.516-.11.164-.07.3-.175.406-.312.113-.133.203-.297.266-.484.062-.196.093-.414.093-.656 0-.25-.03-.473-.093-.672a1.46 1.46 0 0 0-.266-.516 1.019 1.019 0 0 0-.39-.328 1.134 1.134 0 0 0-.532-.125c-.21 0-.398.047-.562.14a1.11 1.11 0 0 0-.391.407v-.453H.312zm1.312-3.859c.125 0 .238.031.344.094a.744.744 0 0 1 .281.234c.07.106.129.23.172.375a1.789 1.789 0 0 1 0 .938 1.085 1.085 0 0 1-.188.359.718.718 0 0 1-.609.313.75.75 0 0 1-.36-.079.71.71 0 0 1-.25-.234 1.136 1.136 0 0 1-.171-.36 1.693 1.693 0 0 1-.063-.484c0-.176.02-.332.063-.468.039-.145.097-.27.172-.375a.788.788 0 0 1 .25-.235.799.799 0 0 1 .359-.078zm0 0"/></symbol><symbol overflow="visible" id="f"><path d="M1.047-1.89H3.03v-.47H1.047v-1.328h2.25v-.468H.516V0h.53zm0 0"/></symbol><symbol overflow="visible" id="g"><path d="M1.563-4.047c-.188 0-.368.043-.532.125a.991.991 0 0 0-.39.328 1.74 1.74 0 0 0-.297.672 4.376 4.376 0 0 0-.094.969c0 .687.11 1.21.328 1.562.219.344.547.516.985.516.425 0 .753-.172.984-.516.226-.351.344-.863.344-1.53 0-.384-.032-.712-.094-.985a1.796 1.796 0 0 0-.297-.688 1.162 1.162 0 0 0-.406-.328 1.134 1.134 0 0 0-.531-.125zm0 .453c.539 0 .812.543.812 1.625 0 .574-.07 1-.203 1.282-.137.273-.34.406-.61.406-.53 0-.804-.555-.812-1.672 0-.55.066-.961.203-1.234.133-.27.336-.407.61-.407zm0 0"/></symbol><symbol overflow="visible" id="h"><path d="M1.094-.594H.5V0h.594zm0 0"/></symbol><symbol overflow="visible" id="i"><path d="M2.75 0v-2.984h-.469v1.687a1.853 1.853 0 0 1-.078.422.913.913 0 0 1-.156.328.845.845 0 0 1-.266.203.78.78 0 0 1-.328.063A.64.64 0 0 1 1-.437C.895-.54.844-.688.844-.875v-2.11H.375v2.297c0 .125.02.243.063.344a.607.607 0 0 0 .187.266c.082.062.18.11.297.14.113.04.25.063.406.063A.943.943 0 0 0 1.61.109.979.979 0 0 0 1.875 0c.082-.04.16-.094.234-.156.07-.07.145-.16.22-.266V0zm0 0"/></symbol><symbol overflow="visible" id="j"><path d="M3.14-1.89V0h.532v-4.156H3.14v1.797H1v-1.797H.469V0h.547v-1.89zm0 0"/></symbol><symbol overflow="visible" id="n"><path d="M.39-2.984V0h.485v-1.656c0-.145.016-.282.047-.407a.863.863 0 0 1 .172-.312.648.648 0 0 1 .25-.203.767.767 0 0 1 .343-.078c.188 0 .333.054.438.156.113.105.172.25.172.438V0h.484v-2.266a.75.75 0 0 0-.078-.328.605.605 0 0 0-.187-.25 1.056 1.056 0 0 0-.297-.172 1.222 1.222 0 0 0-.39-.062c-.22 0-.407.047-.563.14a1.289 1.289 0 0 0-.422.454v-.5zm0 0"/></symbol><symbol overflow="visible" id="o"><path d="M4.047-2.188H2.313v.454h1.265v.125c0 .187-.039.359-.11.515a1.202 1.202 0 0 1-.265.407 1.327 1.327 0 0 1-.422.25 1.376 1.376 0 0 1-.515.093 1.84 1.84 0 0 1-.594-.094 1.194 1.194 0 0 1-.453-.312A.998.998 0 0 1 1.03-1a2.074 2.074 0 0 1-.14-.328 3.235 3.235 0 0 1-.079-.36 2.025 2.025 0 0 1-.03-.375c0-.25.03-.476.093-.687a1.63 1.63 0 0 1 .297-.531c.133-.156.289-.27.469-.344a1.58 1.58 0 0 1 .593-.14c.157.011.301.038.438.078.133.03.281.105.437.218.157.117.266.309.329.578h.546a1.964 1.964 0 0 0-.203-.562c-.094-.164-.258-.332-.484-.5-.219-.176-.57-.27-1.047-.281-.512 0-.93.136-1.25.406a2.129 2.129 0 0 0-.313.36 2.86 2.86 0 0 0-.296.53c-.094.231-.141.532-.141.907 0 .324.047.62.14.89.094.262.223.493.391.688.164.187.364.336.594.437.238.094.5.141.781.141.281.008.535-.04.766-.14.226-.114.445-.286.656-.516l.125.547h.344zm0 0"/></symbol><symbol overflow="visible" id="p"><path d="M3.688-4.156h-.5V-.75L1.015-4.156H.437V0h.5v-3.375L3.079 0h.61zm0 0"/></symbol><symbol overflow="visible" id="q"><path d="M.5 0h1.61c.257 0 .492-.047.703-.14.207-.094.382-.227.53-.407.145-.187.255-.406.329-.656.082-.258.125-.55.125-.875 0-.32-.043-.61-.125-.86a1.85 1.85 0 0 0-.328-.656 1.417 1.417 0 0 0-.531-.422 1.712 1.712 0 0 0-.704-.14H.5zm.531-.469v-3.219h.985c.414 0 .726.137.937.407.207.273.317.672.328 1.203-.011.531-.12.933-.328 1.203-.21.273-.523.406-.937.406zm0 0"/></symbol><symbol overflow="visible" id="x"><path d="M1.266-1.86h.265c.551 0 .832.247.844.735-.012.262-.09.465-.234.61-.137.136-.34.203-.61.203-.273 0-.48-.067-.625-.204C.77-.66.696-.879.687-1.172h-.5c.008.156.024.293.047.406.032.118.07.22.125.313.102.2.25.344.438.437.195.094.437.141.719.141.207 0 .394-.031.562-.094a1.08 1.08 0 0 0 .703-.64c.063-.157.098-.329.11-.516 0-.258-.059-.46-.172-.61-.106-.156-.278-.273-.516-.359.375-.144.563-.426.563-.844a1.09 1.09 0 0 0-.094-.453.961.961 0 0 0-.235-.343 1.054 1.054 0 0 0-.39-.235 1.59 1.59 0 0 0-.516-.078c-.406 0-.718.117-.937.344-.211.219-.32.543-.328.969h.5c0-.125.004-.223.015-.297.02-.082.047-.156.078-.219a.685.685 0 0 1 .266-.25 1.01 1.01 0 0 1 .422-.11c.219.012.39.079.516.204.124.117.187.277.187.484a.742.742 0 0 1-.078.36.549.549 0 0 1-.36.234 1.148 1.148 0 0 1-.187.031 2.67 2.67 0 0 1-.36.016zm0 0"/></symbol><symbol overflow="visible" id="y"><path d="M.984-4.156h-.53V0h2.593v-.469H.984zm0 0"/></symbol><symbol overflow="visible" id="z"><path d="M2.672 0l1.172-3.484V0h.5v-4.156h-.735L2.391-.531 1.156-4.156H.422V0h.516v-3.484L2.109 0zm0 0"/></symbol><symbol overflow="visible" id="I"><path d="M3.781-2.875c-.086-.445-.261-.785-.531-1.016-.262-.226-.621-.343-1.078-.343-.281 0-.54.046-.766.14a1.518 1.518 0 0 0-.547.39 2.251 2.251 0 0 0-.437.75 2.61 2.61 0 0 0-.156.923c0 .344.05.664.156.953a1.9 1.9 0 0 0 .453.719c.156.168.336.293.547.375.219.082.46.117.734.109C3.164.133 3.734-.41 3.86-1.515h-.546a2.824 2.824 0 0 1-.079.374 2.14 2.14 0 0 1-.109.266.98.98 0 0 1-.39.406c-.169.086-.36.125-.579.125a1.34 1.34 0 0 1-.562-.11 1.325 1.325 0 0 1-.438-.343 1.508 1.508 0 0 1-.265-.531 2.767 2.767 0 0 1-.079-.703c0-.27.024-.508.079-.719.062-.207.148-.383.265-.531.114-.156.25-.27.407-.344.156-.082.335-.129.546-.14.164.011.32.042.47.093.144.043.265.102.358.172a.89.89 0 0 1 .172.266c.051.093.094.214.125.359zm0 0"/></symbol><symbol overflow="visible" id="J"><path d="M2.89-.5H.75a.807.807 0 0 1 .063-.219c.03-.07.07-.14.125-.203.062-.062.132-.125.218-.187.094-.07.203-.145.328-.22l.579-.312c.28-.144.488-.32.624-.53a1.29 1.29 0 0 0 .235-.688 1.467 1.467 0 0 0-.11-.47.976.976 0 0 0-.28-.39 1.23 1.23 0 0 0-.407-.234 1.268 1.268 0 0 0-.5-.094c-.262 0-.484.047-.672.14a1.192 1.192 0 0 0-.61.704c-.023.105-.038.2-.046.281-.012.086-.016.18-.016.281h.5a1.7 1.7 0 0 1 .047-.328.967.967 0 0 1 .078-.234.613.613 0 0 1 .281-.281.97.97 0 0 1 .407-.125c.113.011.218.039.312.078a.675.675 0 0 1 .266.156.54.54 0 0 1 .156.234c.04.094.067.196.078.297-.011.324-.195.59-.547.797l-.53.297a3.016 3.016 0 0 0-.532.36 1.457 1.457 0 0 0-.344.374 1.302 1.302 0 0 0-.187.438C.223-.41.196-.218.187 0h2.704zm0 0"/></symbol><symbol overflow="visible" id="K"><path d="M2.703-1.25L3.125 0h.594L2.266-4.156h-.688L.094 0h.562l.438-1.25zm-.14-.438H1.234l.688-1.906zm0 0"/></symbol><symbol overflow="visible" id="L"><path d="M2.016-3.688h1.359v-.468H.125v.468h1.36V0h.53zm0 0"/></symbol><symbol overflow="visible" id="M"><path d="M1.86-.969V0h.5v-.969h.609v-.453h-.61v-2.625H2L.156-1.5v.531zm0-.453H.593l1.265-1.766zm0 0"/></symbol><symbol overflow="visible" id="N"><path d="M1.11-4.156H.577V0h.531zm0 0"/></symbol><symbol overflow="visible" id="R"><path d="M.453 0h1.875c.195 0 .367-.023.516-.078.144-.063.273-.149.39-.266a1.26 1.26 0 0 0 .235-.375c.05-.144.078-.3.078-.469 0-.25-.063-.453-.188-.609-.117-.164-.304-.297-.562-.39a1.02 1.02 0 0 0 .422-.36c.094-.156.144-.344.156-.562a1.372 1.372 0 0 0-.094-.407 1.142 1.142 0 0 0-.234-.359 1.131 1.131 0 0 0-.39-.203 1.59 1.59 0 0 0-.516-.078H.453zm.531-2.36v-1.328H2c.145 0 .266.012.36.032a.76.76 0 0 1 .25.11c.144.116.222.288.234.515a.796.796 0 0 1-.063.312.55.55 0 0 1-.172.203.882.882 0 0 1-.25.125A1.553 1.553 0 0 1 2-2.359zm0 1.891v-1.437h1.297c.125 0 .227.023.313.062a.588.588 0 0 1 .234.14c.063.075.11.157.14.25a.76.76 0 0 1 .048.266.927.927 0 0 1-.047.297.586.586 0 0 1-.14.22.508.508 0 0 1-.235.155.908.908 0 0 1-.313.047zm0 0"/></symbol><symbol overflow="visible" id="ab"><path d="M1.063-1.797h1.359c.238 0 .41.063.515.188.114.117.172.304.172.562v.375c0 .125.008.25.032.375.02.117.05.215.093.297h.641v-.125a.383.383 0 0 1-.125-.11.487.487 0 0 1-.078-.156.885.885 0 0 1-.047-.234v-.344a4.613 4.613 0 0 0-.047-.422.797.797 0 0 0-.078-.296.62.62 0 0 0-.172-.204 1.036 1.036 0 0 0-.265-.156c.226-.113.394-.25.5-.406a1.07 1.07 0 0 0 .156-.594c-.012-.351-.125-.625-.344-.812-.21-.196-.516-.297-.922-.297H.531V0h.531zm0-.469v-1.421h1.28c.145 0 .266.015.36.046a.593.593 0 0 1 .235.11c.144.125.218.312.218.562 0 .242-.07.422-.203.547-.125.117-.328.168-.61.156zm0 0"/></symbol><symbol overflow="visible" id="ac"><path d="M2.844-2.984a1.692 1.692 0 0 0-.14-.438.964.964 0 0 0-.25-.328 1.112 1.112 0 0 0-.766-.297c-.22 0-.422.055-.61.156a1.427 1.427 0 0 0-.469.422 2.16 2.16 0 0 0-.265.594c-.043.2-.07.375-.078.531a6.766 6.766 0 0 0-.016.5c0 .168.004.324.016.469.007.148.023.277.046.39.032.118.067.227.11.329.05.105.11.199.172.281A.962.962 0 0 0 1 0c.176.082.375.125.594.125.195 0 .375-.031.531-.094a1.17 1.17 0 0 0 .422-.265c.113-.125.203-.27.265-.438a1.503 1.503 0 0 0 .016-1.078 1.241 1.241 0 0 0-.265-.406 1.067 1.067 0 0 0-.391-.266 1.23 1.23 0 0 0-.485-.094c-.398 0-.71.153-.937.454.008-.489.086-.864.234-1.126.157-.269.38-.406.672-.406a.65.65 0 0 1 .438.156.794.794 0 0 1 .25.454zm-1.219.921c.238 0 .41.06.516.172.101.118.171.23.203.344.039.106.062.227.062.36a1.1 1.1 0 0 1-.062.359c-.043.105-.102.2-.172.281a.774.774 0 0 1-.563.235.832.832 0 0 1-.328-.063.9.9 0 0 1-.265-.188.866.866 0 0 1-.172-.28A1.05 1.05 0 0 1 .78-1.22c0-.125.02-.238.063-.343A.76.76 0 0 1 1.28-2a.961.961 0 0 1 .344-.063zm0 0"/></symbol><symbol overflow="visible" id="ad"><path d="M2.969-4.047H.266v.5h2.187a14.1 14.1 0 0 0-.64.953c-.168.293-.32.574-.454.844A8.933 8.933 0 0 0 .781 0h.547c.05-.32.117-.633.203-.938.094-.3.207-.597.344-.89.133-.3.29-.598.469-.89.187-.29.394-.595.625-.907zm0 0"/></symbol><symbol overflow="visible" id="ae"><path d="M3.406-2.938c-.011-.406-.117-.69-.312-.859-.2-.164-.39-.273-.578-.328a2.408 2.408 0 0 0-.641-.11 3.03 3.03 0 0 0-.625.094c-.18.055-.336.137-.469.25a1.094 1.094 0 0 0-.297.391 1.268 1.268 0 0 0-.093.5c0 .5.273.824.828.969l1.031.265c.258.075.453.168.578.282a.49.49 0 0 1 .188.39.935.935 0 0 1-.094.328.724.724 0 0 1-.203.25.905.905 0 0 1-.328.141 2.446 2.446 0 0 1-.438.031 1.526 1.526 0 0 1-.578-.062.95.95 0 0 1-.39-.281.866.866 0 0 1-.172-.282.95.95 0 0 1-.032-.36H.266c.007.2.03.368.062.5a.96.96 0 0 0 .188.36c.144.2.332.352.562.453.238.094.52.141.844.141.238 0 .457-.027.656-.078.195-.05.363-.129.5-.234a.853.853 0 0 0 .188-.188 1.4 1.4 0 0 0 .187-.297c.063-.125.094-.281.094-.469a.965.965 0 0 0-.235-.656c-.156-.176-.374-.305-.656-.39L1.61-2.47a4.504 4.504 0 0 1-.328-.094.988.988 0 0 1-.25-.171c-.074-.07-.105-.188-.093-.344 0-.102.019-.195.062-.281a.657.657 0 0 1 .172-.22.838.838 0 0 1 .297-.14c.113-.039.242-.062.39-.062.332 0 .586.074.766.219.176.148.266.355.266.624zm0 0"/></symbol><symbol overflow="visible" id="af"><path d="M4.25 0l1.047-4.156h-.594L3.937-.781 3-4.156h-.578L1.5-.781.719-4.156H.125L1.188 0h.593l.922-3.422L3.656 0zm0 0"/></symbol><symbol overflow="visible" id="k"><path d="M-2.031-1.047H0v-.344h-2.844v.235c.106.031.196.062.266.093a.452.452 0 0 1 .25.329c.023.086.039.195.047.328h.25zm0 0"/></symbol><symbol overflow="visible" id="l"><path d="M-2.844-1.11c0 .137.028.262.078.376.055.117.133.21.235.28.125.095.289.169.484.22.188.043.414.062.672.062.48 0 .844-.078 1.094-.234.25-.156.375-.39.375-.703 0-.301-.117-.532-.36-.688-.25-.156-.613-.234-1.093-.234-.27 0-.5.027-.688.078-.195.043-.36.105-.484.187a.897.897 0 0 0-.235.297.889.889 0 0 0-.078.36zm.313 0c0-.374.383-.562 1.14-.562.407 0 .711.047.907.14a.464.464 0 0 1 .28.438c0 .375-.39.563-1.171.563-.383 0-.672-.047-.86-.14-.195-.095-.296-.24-.296-.438zm0 0"/></symbol><symbol overflow="visible" id="m"><path d="M0-1.875l-2.453-.828H0v-.36h-2.922v.532l2.547.844-2.547.875v.515H0v-.36h-2.453L0-1.483zm0 0"/></symbol><symbol overflow="visible" id="at"><path d="M-1.078-2.14v.828h-.828v.28h.828v.829h.281v-.828h.844v-.282h-.844v-.828zm0 0"/></symbol><symbol overflow="visible" id="r"><path d="M0-.5v-1.61c0-.257-.047-.492-.14-.703a1.455 1.455 0 0 0-.407-.53 1.991 1.991 0 0 0-.656-.329 2.885 2.885 0 0 0-.875-.125c-.32 0-.61.043-.86.125a1.85 1.85 0 0 0-.656.328 1.417 1.417 0 0 0-.422.531c-.093.211-.14.446-.14.704V-.5zm-.469-.531h-3.219v-.985c0-.414.137-.726.407-.937.273-.207.672-.317 1.203-.328.531.011.933.12 1.203.328.273.21.406.523.406.937zm0 0"/></symbol><symbol overflow="visible" id="s"><path d="M-1.89-1.047v-2.266h-.47v2.266h-1.328V-3.39h-.468v2.875H0V-3.5h-.469v2.453zm0 0"/></symbol><symbol overflow="visible" id="t"><path d="M-3.688-2.016v-1.359h-.468v3.25h.468v-1.36H0v-.53zm0 0"/></symbol><symbol overflow="visible" id="u"><path d="M-2.875-3.781c-.445.086-.785.261-1.016.531-.226.262-.343.621-.343 1.078 0 .281.046.54.14.766.094.218.227.402.39.547.212.187.462.336.75.437.282.106.59.156.923.156.344 0 .664-.05.953-.156a1.9 1.9 0 0 0 .719-.453c.168-.156.293-.336.375-.547.082-.219.117-.46.109-.734.008-1.008-.535-1.578-1.64-1.703v.546c.148.024.273.047.374.079.094.03.184.07.266.109a.98.98 0 0 1 .406.39c.086.169.125.36.125.579 0 .21-.035.398-.11.562a1.325 1.325 0 0 1-.343.438c-.144.117-.32.203-.531.265a2.767 2.767 0 0 1-.703.079c-.27 0-.508-.024-.719-.079a1.578 1.578 0 0 1-.531-.265 1.06 1.06 0 0 1-.344-.407 1.313 1.313 0 0 1-.14-.546c.011-.164.042-.32.093-.47a1.14 1.14 0 0 1 .172-.358.89.89 0 0 1 .266-.172c.093-.051.214-.094.359-.125zm0 0"/></symbol><symbol overflow="visible" id="v"><path d="M-4.234-2.219c.011.305.07.578.171.828a1.8 1.8 0 0 0 .454.625c.187.18.418.313.687.407.262.093.555.14.875.14.336 0 .637-.047.906-.14a1.99 1.99 0 0 0 .688-.407c.187-.175.336-.382.437-.625.094-.25.141-.523.141-.828 0-.25-.04-.484-.11-.703a1.774 1.774 0 0 0-.328-.594 1.59 1.59 0 0 0-.328-.296 1.568 1.568 0 0 0-.406-.22 2.258 2.258 0 0 0-.453-.14 2.219 2.219 0 0 0-.516-.062 2.58 2.58 0 0 0-.906.156c-.27.094-.5.23-.687.406a1.666 1.666 0 0 0-.454.625c-.101.25-.16.527-.171.828zm.468 0c.012-.219.059-.414.141-.594.074-.187.188-.343.344-.468.148-.133.328-.239.547-.313.21-.07.445-.11.703-.11.261 0 .496.04.703.11.2.074.375.18.531.313.149.125.262.281.344.469.074.18.11.374.11.593 0 .219-.036.422-.11.61a1.38 1.38 0 0 1-.344.468 1.753 1.753 0 0 1-.547.297 2.432 2.432 0 0 1-.703.094 2.47 2.47 0 0 1-.703-.094 1.63 1.63 0 0 1-.531-.297 1.217 1.217 0 0 1-.344-.468 1.74 1.74 0 0 1-.14-.61zm0 0"/></symbol><symbol overflow="visible" id="w"><path d="M-1.797-1.063v-1.359c0-.238.063-.41.188-.515.117-.114.304-.172.562-.172h.375c.125 0 .25-.008.375-.032A.983.983 0 0 0 0-3.234v-.641h-.125a.383.383 0 0 1-.11.125.487.487 0 0 1-.156.078.885.885 0 0 1-.234.047h-.344a4.613 4.613 0 0 0-.422.047.797.797 0 0 0-.296.078.62.62 0 0 0-.204.172 1.036 1.036 0 0 0-.156.265 1.274 1.274 0 0 0-.406-.5 1.064 1.064 0 0 0-.594-.156c-.351.012-.625.125-.812.344-.196.21-.297.516-.297.922v1.922H0v-.531zm-.469 0h-1.421v-1.28c0-.145.015-.266.046-.36a.593.593 0 0 1 .11-.235c.125-.144.312-.218.562-.218.242 0 .422.07.547.203.117.125.168.328.156.61zm0 0"/></symbol><symbol overflow="visible" id="A"><path d="M-2.875-1.469H0v-.515h-4.047v.328c.156.054.29.105.39.156a.545.545 0 0 1 .22.172.839.839 0 0 1 .124.297c.032.117.06.265.079.453h.359zm0 0"/></symbol><symbol overflow="visible" id="B"><path d="M-4.047-1.563c0 .188.043.368.125.532a.99.99 0 0 0 .328.39c.18.137.403.235.672.297.274.063.594.094.969.094.687 0 1.21-.11 1.562-.328.344-.219.516-.547.516-.985 0-.425-.172-.753-.516-.984-.351-.226-.863-.344-1.53-.344-.384 0-.712.032-.985.094a1.796 1.796 0 0 0-.688.297c-.144.117-.254.25-.328.406a1.134 1.134 0 0 0-.125.531zm.453 0c0-.539.543-.812 1.625-.812.574 0 1 .07 1.282.203.273.137.406.34.406.61 0 .53-.555.804-1.672.812-.55 0-.961-.066-1.234-.203-.27-.133-.407-.336-.407-.61zm0 0"/></symbol><symbol overflow="visible" id="C"><path d="M-4.156-.813v.485H0v-.484h-1.156l-.469-.454L0-2.28v-.578L-1.953-1.64l-1.031-1.046v.624l1.265 1.25zm0 0"/></symbol><symbol overflow="visible" id="G"><path d="M0-2.75h-2.984v.469h1.687c.156.011.297.039.422.078a.913.913 0 0 1 .328.156.845.845 0 0 1 .203.266.78.78 0 0 1 .063.328A.64.64 0 0 1-.437-1c-.102.105-.25.156-.438.156h-2.11v.469h2.297c.125 0 .243-.02.344-.063a.613.613 0 0 0 .266-.187.838.838 0 0 0 .14-.297c.04-.113.063-.25.063-.406a.943.943 0 0 0-.016-.281A.979.979 0 0 0 0-1.875a1.114 1.114 0 0 0-.156-.234c-.07-.07-.16-.145-.266-.22H0zm0 0"/></symbol><symbol overflow="visible" id="H"><path d="M-1.89-1.047V-3.03h-.47v1.984h-1.328v-2.25h-.468v2.781H0v-.53zm0 0"/></symbol><symbol overflow="visible" id="V"><path d="M-.5-2.89v2.14a.807.807 0 0 1-.219-.063.793.793 0 0 1-.203-.125 1.813 1.813 0 0 1-.187-.218 3.673 3.673 0 0 1-.22-.328l-.312-.579c-.144-.28-.32-.488-.53-.624a1.286 1.286 0 0 0-.688-.235 1.48 1.48 0 0 0-.47.11.976.976 0 0 0-.39.28 1.23 1.23 0 0 0-.234.407 1.268 1.268 0 0 0-.094.5c0 .262.047.484.14.672a1.192 1.192 0 0 0 .704.61c.105.023.2.038.281.046.086.012.18.016.281.016v-.5a1.645 1.645 0 0 1-.328-.047.967.967 0 0 1-.234-.078.613.613 0 0 1-.281-.281.97.97 0 0 1-.125-.407 1.09 1.09 0 0 1 .078-.312.675.675 0 0 1 .156-.266.54.54 0 0 1 .234-.156 1.11 1.11 0 0 1 .297-.078c.324.011.59.195.797.547l.297.53c.117.212.234.388.36.532a1.455 1.455 0 0 0 .812.531c.168.043.36.07.578.079v-2.704zm0 0"/></symbol><symbol overflow="visible" id="Z"><path d="M-1.86-1.266v-.265c0-.551.247-.832.735-.844.262.012.465.09.61.234.136.137.203.34.203.61 0 .273-.067.48-.204.625-.144.136-.363.21-.656.219v.5c.156-.008.293-.024.406-.047.118-.032.22-.07.313-.125a.96.96 0 0 0 .437-.438 1.66 1.66 0 0 0 .141-.719 1.59 1.59 0 0 0-.094-.562A1.113 1.113 0 0 0-.203-2.5a1.087 1.087 0 0 0-.406-.281 1.658 1.658 0 0 0-.516-.11c-.258 0-.46.059-.61.172-.156.106-.273.278-.359.516-.144-.375-.426-.563-.844-.563a1.09 1.09 0 0 0-.453.094.961.961 0 0 0-.343.235 1.05 1.05 0 0 0-.235.39 1.59 1.59 0 0 0-.078.516c0 .406.117.718.344.937.219.211.543.32.969.328v-.5a2.02 2.02 0 0 1-.297-.015A1.023 1.023 0 0 1-3.25-.86a.685.685 0 0 1-.25-.266 1.014 1.014 0 0 1-.11-.422c.012-.219.079-.39.204-.516.117-.124.277-.187.484-.187.149 0 .266.027.36.078a.549.549 0 0 1 .234.36c.012.042.023.105.031.187.012.074.016.195.016.36zm0 0"/></symbol><symbol overflow="visible" id="aa"><path d="M-.969-1.86H0v-.5h-.969v-.609h-.453v.61h-2.625V-2L-1.5-.156h.531zm-.453 0v1.266l-1.766-1.265zm0 0"/></symbol><symbol overflow="visible" id="ak"><path d="M-4.047-2.969v2.703h.5v-2.187c.344.25.664.465.953.64.293.168.574.32.844.454A9.048 9.048 0 0 0 0-.781v-.547a8.15 8.15 0 0 1-.938-.203 7.09 7.09 0 0 1-.89-.344 7.49 7.49 0 0 1-.89-.469 17.02 17.02 0 0 1-.907-.625zm0 0"/></symbol><symbol overflow="visible" id="al"><path d="M-2.125-2.234a6.615 6.615 0 0 0-.172-.25 1.07 1.07 0 0 0-.187-.172 1.19 1.19 0 0 0-.22-.094 1.01 1.01 0 0 0-.265-.031.93.93 0 0 0-.422.094c-.132.062-.25.148-.343.25a1.144 1.144 0 0 0-.22.39 1.23 1.23 0 0 0-.093.485c0 .18.031.34.094.484.055.148.125.277.219.39.093.106.21.188.343.25.125.055.266.079.422.079.094 0 .184-.004.266-.016.074-.02.14-.05.203-.094a.833.833 0 0 0 .188-.172c.062-.07.124-.16.187-.265.219.469.555.699 1 .687.188 0 .36-.031.516-.093.156-.063.293-.149.406-.266.105-.125.183-.27.234-.438a1.53 1.53 0 0 0 .094-.546c0-.196-.031-.38-.094-.547a1.113 1.113 0 0 0-.234-.422 1.087 1.087 0 0 0-.406-.281c-.157-.07-.32-.11-.5-.11-.457 0-.797.23-1.016.688zm-1.469.671c0-.218.059-.39.172-.515a.612.612 0 0 1 .469-.188c.187 0 .34.063.453.188.117.125.172.297.172.515 0 .211-.055.375-.172.5a.624.624 0 0 1-.453.204.653.653 0 0 1-.469-.204.713.713 0 0 1-.172-.5zm1.688 0c0-.125.023-.238.062-.343a.89.89 0 0 1 .172-.266.694.694 0 0 1 .25-.172.847.847 0 0 1 .64 0c.095.043.2.121.313.235.106.117.156.296.156.546 0 .125-.015.243-.046.344a.695.695 0 0 1-.172.266.734.734 0 0 1-.25.172.832.832 0 0 1-.328.062.745.745 0 0 1-.313-.062.61.61 0 0 1-.25-.172.8.8 0 0 1-.172-.266.961.961 0 0 1-.062-.343zm0 0"/></symbol><symbol overflow="visible" id="D"><path d="M1.047-2.031V0h.344v-2.844h-.235a2.245 2.245 0 0 1-.093.266.452.452 0 0 1-.329.25 1.688 1.688 0 0 1-.328.047v.25zm0 0"/></symbol><symbol overflow="visible" id="E"><path d="M1.11-2.844a.907.907 0 0 0-.376.078.689.689 0 0 0-.28.235 1.39 1.39 0 0 0-.22.484 3.072 3.072 0 0 0-.062.672c0 .48.078.844.234 1.094.156.25.39.375.703.375.301 0 .532-.117.688-.36.156-.25.234-.613.234-1.093 0-.27-.027-.5-.078-.688a1.459 1.459 0 0 0-.187-.484.897.897 0 0 0-.297-.235.889.889 0 0 0-.36-.078zm0 .313c.374 0 .562.383.562 1.14 0 .407-.047.711-.14.907a.464.464 0 0 1-.438.28C.719-.203.53-.593.53-1.374c0-.383.047-.672.14-.86.095-.195.24-.296.438-.296zm0 0"/></symbol><symbol overflow="visible" id="F"><path d="M.563-2.922h-.33V0h.329v-.813L.89-1.14 1.609 0h.407l-.86-1.375.735-.734h-.438l-.89.89zm0 0"/></symbol><symbol overflow="visible" id="au"><path d="M2.14-1.078h-.828v-.828h-.28v.828h-.83v.281h.828v.844h.282v-.844h.828zm0 0"/></symbol><symbol overflow="visible" id="O"><path d="M2.453-.422H.641a.66.66 0 0 1 .046-.187.985.985 0 0 1 .11-.172.975.975 0 0 1 .187-.172c.082-.063.176-.117.282-.172l.484-.266c.238-.132.422-.285.547-.453.125-.176.187-.375.187-.593a.87.87 0 0 0-.093-.391.961.961 0 0 0-.235-.344 1 1 0 0 0-.344-.203 1.477 1.477 0 0 0-.437-.063c-.219 0-.414.04-.578.11A.897.897 0 0 0 .422-3a.81.81 0 0 0-.125.281 1.55 1.55 0 0 0-.047.235c0 .074-.008.152-.016.234h.438c0-.113.004-.207.015-.281a.514.514 0 0 1 .094-.203.523.523 0 0 1 .235-.235.792.792 0 0 1 .343-.11.983.983 0 0 1 .266.063.619.619 0 0 1 .219.141.5.5 0 0 1 .14.203c.04.074.063.156.063.25 0 .274-.156.496-.469.672l-.453.25c-.18.105-.328.21-.453.313a1.225 1.225 0 0 0-.281.312 1.413 1.413 0 0 0-.172.39A2.188 2.188 0 0 0 .172 0h2.281zm0 0"/></symbol><symbol overflow="visible" id="P"><path d="M1.078-1.578h.234c.47 0 .704.21.704.625 0 .219-.063.39-.188.515-.125.118-.297.172-.516.172-.242 0-.417-.054-.53-.171C.663-.564.597-.75.577-1H.156c.008.137.024.258.047.36a.61.61 0 0 0 .11.25.794.794 0 0 0 .374.374c.165.082.368.125.61.125.176 0 .332-.027.469-.078a.93.93 0 0 0 .375-.203.928.928 0 0 0 .234-.344 1.28 1.28 0 0 0 .078-.453.891.891 0 0 0-.14-.515c-.086-.133-.231-.235-.438-.297.32-.125.484-.364.484-.719a.968.968 0 0 0-.078-.39.763.763 0 0 0-.203-.297.973.973 0 0 0-.344-.188 1.408 1.408 0 0 0-.421-.063c-.356 0-.625.094-.813.282-.18.187-.266.465-.266.828h.422c0-.102.004-.188.016-.25a.56.56 0 0 1 .281-.406.992.992 0 0 1 .36-.094c.187.012.332.07.437.172a.55.55 0 0 1 .172.422.506.506 0 0 1-.078.296.406.406 0 0 1-.203.172.73.73 0 0 1-.11.032.64.64 0 0 1-.14.03 1.99 1.99 0 0 1-.313.016zm0 0"/></symbol><symbol overflow="visible" id="Q"><path d="M1.25-2.453V0h.438v-3.438h-.282a2.98 2.98 0 0 1-.125.313.453.453 0 0 1-.14.203.939.939 0 0 1-.25.11 2.362 2.362 0 0 1-.391.046v.313zm0 0"/></symbol><symbol overflow="visible" id="S"><path d="M2.422-2.547a1.248 1.248 0 0 0-.125-.375.898.898 0 0 0-.203-.281 1.056 1.056 0 0 0-.297-.172 1.034 1.034 0 0 0-.36-.063 1.058 1.058 0 0 0-.921.485 1.7 1.7 0 0 0-.22.5c-.042.168-.07.32-.077.453a4.952 4.952 0 0 0-.016.422c0 .148.004.281.016.406.008.125.023.242.047.344.03.094.062.187.093.281.04.086.086.164.141.235A.89.89 0 0 0 .86 0c.144.07.312.11.5.11.163 0 .316-.032.452-.094.133-.051.254-.125.36-.22a1.02 1.02 0 0 0 .234-.374c.051-.145.082-.3.094-.469a1.585 1.585 0 0 0-.094-.437 1.036 1.036 0 0 0-.219-.344.973.973 0 0 0-.328-.234 1.112 1.112 0 0 0-.421-.079c-.344 0-.61.125-.797.375.007-.414.078-.734.203-.953a.64.64 0 0 1 .578-.344.49.49 0 0 1 .36.141c.1.086.175.211.218.375zm-1.031.781c.207 0 .351.055.437.157A.84.84 0 0 1 2-1.33c.031.095.05.2.063.313A1.427 1.427 0 0 1 2-.703a.721.721 0 0 1-.14.234.797.797 0 0 1-.22.156.76.76 0 0 1-.265.047.786.786 0 0 1-.281-.046.62.62 0 0 1-.219-.172.903.903 0 0 1-.156-.25.973.973 0 0 1 0-.594.588.588 0 0 1 .14-.234.721.721 0 0 1 .235-.141.68.68 0 0 1 .297-.063zm0 0"/></symbol><symbol overflow="visible" id="T"><path d="M2.313-3.438H.53l-.25 1.86h.39c.052-.05.099-.098.141-.14a.449.449 0 0 1 .141-.095.486.486 0 0 1 .156-.062c.063-.008.125-.016.188-.016a.81.81 0 0 1 .312.063.54.54 0 0 1 .235.156c.07.074.125.164.156.266.031.105.05.218.063.343A1.74 1.74 0 0 1 2-.719a.807.807 0 0 1-.203.297c-.094.106-.262.156-.5.156a.69.69 0 0 1-.453-.14C.727-.5.644-.645.594-.844H.172c.008.074.02.137.031.188l.063.172a.52.52 0 0 0 .109.187.888.888 0 0 0 .39.297c.165.07.348.11.547.11.176 0 .333-.032.47-.094a.984.984 0 0 0 .374-.235c.102-.113.18-.242.235-.39.062-.157.097-.329.109-.516a1.636 1.636 0 0 0-.094-.453.928.928 0 0 0-.234-.36.961.961 0 0 0-.344-.234 1.081 1.081 0 0 0-.453-.094 1.11 1.11 0 0 0-.328.047.945.945 0 0 0-.297.156l.125-.953h1.438zm0 0"/></symbol><symbol overflow="visible" id="U"><path d="M2.531-3.438H.22v.422h1.86c-.2.293-.376.563-.532.813-.149.242-.277.48-.39.719-.106.23-.2.464-.282.703-.074.242-.14.5-.203.781h.453c.05-.27.113-.535.188-.797a9.09 9.09 0 0 1 .28-.765c.114-.25.25-.5.407-.75.156-.258.332-.516.531-.766zm0 0"/></symbol><symbol overflow="visible" id="Y"><path d="M2.89-2.5c0-.352-.09-.598-.265-.734a1.283 1.283 0 0 0-.484-.282 2.181 2.181 0 0 0-.547-.093c-.188.011-.36.043-.516.093-.156.043-.293.11-.406.204a.918.918 0 0 0-.25.328 1.042 1.042 0 0 0-.078.421c0 .438.226.715.687.829l.89.234c.22.055.38.133.485.234a.457.457 0 0 1 .156.344.589.589 0 0 1-.078.281.55.55 0 0 1-.171.204.85.85 0 0 1-.282.124 1.77 1.77 0 0 1-.375.032c-.187 0-.351-.02-.484-.063a.724.724 0 0 1-.328-.234.715.715 0 0 1-.14-.25.927.927 0 0 1-.048-.297H.234c0 .168.016.309.047.422a.841.841 0 0 0 .156.312c.126.168.286.293.485.375.195.082.43.125.703.125.219 0 .41-.027.578-.078.164-.039.305-.101.422-.187a.984.984 0 0 0 .156-.157c.051-.062.102-.144.156-.25a.991.991 0 0 0 .079-.406.843.843 0 0 0-.204-.562c-.124-.157-.308-.266-.546-.328l-.891-.235a3.942 3.942 0 0 1-.281-.094.798.798 0 0 1-.219-.14c-.063-.063-.09-.16-.078-.297 0-.082.015-.16.047-.234A.714.714 0 0 1 1-3.047a.582.582 0 0 1 .25-.125 1.11 1.11 0 0 1 .328-.047c.281 0 .492.063.64.188.157.125.239.304.25.531zm0 0"/></symbol><symbol overflow="visible" id="W"><path d="M-1.063-2.297L0-2.672v-.5l-3.547 1.25v.578L0-.078v-.484l-1.063-.375zm-.375.125v1.125l-1.625-.578zm0 0"/></symbol><symbol overflow="visible" id="X"><path d="M-1.61-.89v-1.922h-.406v1.921H-3.14v-2h-.406v2.454H0v-2.547h-.406v2.093zm0 0"/></symbol><symbol overflow="visible" id="ag"><path d="M-1.578-1.078v-.234c0-.47.21-.704.625-.704.219 0 .39.063.515.188.118.125.172.297.172.516 0 .242-.054.417-.171.53-.126.118-.313.184-.563.204v.422c.137-.008.258-.024.36-.047a.604.604 0 0 0 .25-.11.794.794 0 0 0 .374-.374 1.36 1.36 0 0 0 .125-.61 1.34 1.34 0 0 0-.078-.469.921.921 0 0 0-.203-.375.928.928 0 0 0-.344-.234 1.266 1.266 0 0 0-.453-.078.891.891 0 0 0-.515.14c-.133.086-.235.231-.297.438-.125-.32-.364-.484-.719-.484a.968.968 0 0 0-.39.078.763.763 0 0 0-.297.203.973.973 0 0 0-.188.344c-.04.125-.063.265-.063.421 0 .356.094.625.282.813.187.18.465.266.828.266v-.422c-.102 0-.188-.004-.25-.016a.56.56 0 0 1-.406-.281.992.992 0 0 1-.094-.36.667.667 0 0 1 .172-.437.55.55 0 0 1 .422-.172.5.5 0 0 1 .296.078c.075.043.133.11.172.203a.73.73 0 0 1 .032.11.64.64 0 0 1 .03.14c.013.063.016.168.016.313zm0 0"/></symbol><symbol overflow="visible" id="ah"><path d="M-2.453-1.25H0v-.438h-3.438v.282c.126.043.231.086.313.125a.453.453 0 0 1 .203.14.939.939 0 0 1 .11.25c.023.106.039.235.046.391h.313zm0 0"/></symbol><symbol overflow="visible" id="ai"><path d="M-1.813-1.906a1.108 1.108 0 0 0-.156-.203.573.573 0 0 0-.156-.141.665.665 0 0 0-.172-.094.872.872 0 0 0-.594.047.96.96 0 0 0-.296.219.972.972 0 0 0-.188.328 1.38 1.38 0 0 0-.063.422c0 .148.024.289.063.422a.972.972 0 0 0 .188.328.979.979 0 0 0 .296.203.829.829 0 0 0 .36.078c.086 0 .156-.004.219-.016a1.18 1.18 0 0 0 .187-.078.844.844 0 0 0 .156-.156c.055-.062.106-.133.157-.219.187.399.476.59.859.579.156 0 .305-.024.437-.079A.877.877 0 0 0-.187-.5c.093-.102.167-.223.218-.36.051-.144.078-.3.078-.468a1.34 1.34 0 0 0-.078-.469 1.116 1.116 0 0 0-.218-.375.973.973 0 0 0-.329-.234A1.555 1.555 0 0 0-.953-2.5c-.383 0-.672.2-.86.594zm-1.25.578c0-.188.055-.332.157-.438a.569.569 0 0 1 .39-.171.56.56 0 0 1 .391.171c.094.106.14.25.14.438 0 .18-.046.324-.14.437a.492.492 0 0 1-.39.157.498.498 0 0 1-.391-.157.63.63 0 0 1-.156-.437zm1.438 0c0-.113.023-.211.063-.297a.619.619 0 0 1 .14-.219A.468.468 0 0 1-1.219-2a1.29 1.29 0 0 1 .266-.063c.105.012.2.032.281.063a.73.73 0 0 1 .266.203c.094.094.14.25.14.469a.927.927 0 0 1-.046.297.586.586 0 0 1-.141.218.743.743 0 0 1-.219.157.786.786 0 0 1-.281.047.76.76 0 0 1-.266-.047.627.627 0 0 1-.203-.156.586.586 0 0 1-.14-.22.763.763 0 0 1-.063-.296zm0 0"/></symbol><symbol overflow="visible" id="aj"><path d="M-.828-1.594H0v-.422h-.828v-.515h-.375v.515h-2.234v.313l2.156 1.562h.453zm-.375 0v1.078L-2.72-1.594zm0 0"/></symbol><symbol overflow="visible" id="am"><path d="M2.719-2.344c0-.332-.086-.562-.25-.687A1.248 1.248 0 0 0 2-3.297a1.526 1.526 0 0 0-.5-.078c-.188 0-.355.023-.5.063a.917.917 0 0 0-.375.203 1.059 1.059 0 0 0-.234.312.907.907 0 0 0-.079.39c0 .407.22.669.657.782l.828.219c.207.054.36.125.453.218a.396.396 0 0 1 .156.313.617.617 0 0 1-.062.266.55.55 0 0 1-.172.203 1.295 1.295 0 0 1-.266.11c-.093.023-.21.03-.343.03-.188 0-.344-.02-.47-.062a.688.688 0 0 1-.296-.219.721.721 0 0 1-.14-.234.596.596 0 0 1-.032-.281H.219c0 .156.015.292.047.406.03.105.082.199.156.281.101.156.25.277.437.36.196.081.422.124.672.124.196 0 .375-.027.532-.078.164-.039.3-.101.406-.187a.798.798 0 0 0 .14-.14c.051-.063.098-.142.141-.235a.832.832 0 0 0 .078-.375.796.796 0 0 0-.187-.531.975.975 0 0 0-.516-.313l-.828-.219C1.19-2 1.102-2.023 1.03-2.047a.731.731 0 0 1-.203-.125c-.062-.062-.09-.16-.078-.297 0-.082.016-.156.047-.219a.404.404 0 0 1 .14-.171.716.716 0 0 1 .235-.11 1.46 1.46 0 0 1 .312-.062c.258.011.461.074.61.187.144.117.219.281.219.5zm0 0"/></symbol><symbol overflow="visible" id="an"><path d="M.844-1.406H1.89c.125 0 .238-.02.343-.063.102-.039.204-.097.297-.172a.847.847 0 0 0 .203-.312.942.942 0 0 0 .079-.39c0-.321-.09-.567-.266-.735-.18-.164-.434-.25-.766-.25H.421V0h.423zm0-.375v-1.172h.875c.207 0 .367.055.484.156a.55.55 0 0 1 .172.422c0 .188-.059.336-.172.438-.117.105-.277.156-.484.156zm0 0"/></symbol><symbol overflow="visible" id="ao"><path d="M2.438-1.219H1.5v-.937h-.328v.937H.234v.328h.938v.938H1.5v-.938h.938zm0 0"/></symbol><symbol overflow="visible" id="ap"><path d="M1.297-1.422H.203v.328h1.094zm0 0"/></symbol><symbol overflow="visible" id="aq"><path d="M.36 0h1.5c.156 0 .288-.02.406-.063a.986.986 0 0 0 .328-.218.957.957 0 0 0 .172-.297.907.907 0 0 0 .078-.375.75.75 0 0 0-.156-.485c-.094-.132-.247-.238-.454-.312a.78.78 0 0 0 .329-.281.914.914 0 0 0 .14-.453 1.34 1.34 0 0 0-.078-.329.933.933 0 0 0-.188-.28 1.187 1.187 0 0 0-.718-.235H.359zm.42-1.89v-1.063h.828c.114 0 .207.012.282.031.07.024.14.055.203.094.113.086.172.219.172.406a.62.62 0 0 1-.047.25.452.452 0 0 1-.125.156.518.518 0 0 1-.203.11 1.89 1.89 0 0 1-.282.015zm0 1.515v-1.14h1.031c.102 0 .192.015.266.046.07.024.133.059.188.11.05.054.086.117.109.187a.598.598 0 0 1 .047.234.538.538 0 0 1-.047.22.45.45 0 0 1-.11.187.606.606 0 0 1-.187.125.902.902 0 0 1-.265.031zm0 0"/></symbol><symbol overflow="visible" id="ar"><path d="M2.156-1L2.5 0h.484L1.813-3.328h-.547L.078 0h.453l.344-1zm-.11-.36H.985l.547-1.515zm0 0"/></symbol><symbol overflow="visible" id="as"><path d="M1.61-2.953h1.093v-.375H.093v.375h1.095V0h.421zm0 0"/></symbol></defs><use xlink:href="#a" x="274.519" y="310.693" fill="gray"/><use xlink:href="#b" x="277.699" y="310.693" fill="gray"/><use xlink:href="#c" x="279.619" y="310.693" fill="gray"/><use xlink:href="#d" x="282.799" y="310.693" fill="gray"/><use xlink:href="#e" x="285.979" y="310.693" fill="gray"/><use xlink:href="#f" x="289.159" y="310.693" fill="gray"/><use xlink:href="#g" x="315.403" y="310.406" fill="gray"/><use xlink:href="#h" x="318.583" y="310.406" fill="gray"/><use xlink:href="#c" x="320.143" y="310.406" fill="gray"/><use xlink:href="#i" x="323.323" y="310.406" fill="gray"/><use xlink:href="#j" x="326.503" y="310.406" fill="gray"/><use xlink:href="#k" x="270.777" y="340.21" fill="gray"/><use xlink:href="#l" x="270.777" y="337.99" fill="gray"/><use xlink:href="#m" x="270.777" y="335.77" fill="gray"/><use xlink:href="#c" x="313.1" y="341.203" fill="gray"/><use xlink:href="#g" x="316.28" y="341.203" fill="gray"/><use xlink:href="#n" x="319.46" y="341.203" fill="gray"/><use xlink:href="#f" x="322.64" y="341.203" fill="gray"/><use xlink:href="#o" x="280.853" y="370.85" fill="gray"/><use xlink:href="#p" x="285.293" y="370.85" fill="gray"/><use xlink:href="#q" x="289.433" y="370.85" fill="gray"/><use xlink:href="#r" x="332.103" y="272.987" fill="gray"/><use xlink:href="#s" x="332.103" y="268.847" fill="gray"/><use xlink:href="#t" x="332.103" y="265.067" fill="gray"/><use xlink:href="#s" x="332.103" y="261.587" fill="gray"/><use xlink:href="#u" x="332.103" y="257.807" fill="gray"/><use xlink:href="#t" x="332.103" y="253.667" fill="gray"/><use xlink:href="#v" x="332.103" y="250.187" fill="gray"/><use xlink:href="#w" x="332.103" y="245.747" fill="gray"/><use xlink:href="#x" x="347.65" y="306.664" fill="gray"/><use xlink:href="#x" x="350.83" y="306.664" fill="gray"/><use xlink:href="#g" x="354.01" y="306.664" fill="gray"/><use xlink:href="#e" x="357.19" y="306.664" fill="gray"/><use xlink:href="#f" x="360.37" y="306.664" fill="gray"/><use xlink:href="#o" x="338.437" y="336.31" fill="gray"/><use xlink:href="#p" x="342.877" y="336.31" fill="gray"/><use xlink:href="#q" x="347.017" y="336.31" fill="gray"/><use xlink:href="#y" x="401.779" y="296.014" fill="gray"/><use xlink:href="#z" x="404.959" y="296.014" fill="gray"/><use xlink:href="#x" x="409.698" y="296.014" fill="gray"/><use xlink:href="#a" x="412.879" y="296.014" fill="gray"/><use xlink:href="#d" x="416.059" y="296.014" fill="gray"/><use xlink:href="#p" x="419.238" y="296.014" fill="gray"/><use xlink:href="#y" x="476.637" y="296.014" fill="gray"/><use xlink:href="#z" x="479.817" y="296.014" fill="gray"/><use xlink:href="#x" x="484.557" y="296.014" fill="gray"/><use xlink:href="#a" x="487.737" y="296.014" fill="gray"/><use xlink:href="#d" x="490.917" y="296.014" fill="gray"/><use xlink:href="#p" x="494.097" y="296.014" fill="gray"/><use xlink:href="#A" x="410.416" y="310.405" fill="gray"/><use xlink:href="#B" x="410.416" y="307.225" fill="gray"/><use xlink:href="#B" x="410.416" y="304.045" fill="gray"/><use xlink:href="#C" x="410.416" y="300.865" fill="gray"/><use xlink:href="#D" x="466.498" y="320.48" fill="gray"/><use xlink:href="#E" x="468.718" y="320.48" fill="gray"/><use xlink:href="#E" x="470.938" y="320.48" fill="gray"/><use xlink:href="#F" x="473.158" y="320.48" fill="gray"/><use xlink:href="#D" x="507.827" y="285.94" fill="gray"/><use xlink:href="#E" x="510.046" y="285.94" fill="gray"/><use xlink:href="#E" x="512.266" y="285.94" fill="gray"/><use xlink:href="#c" x="421.644" y="369.756" fill="gray"/><use xlink:href="#i" x="424.824" y="369.756" fill="gray"/><use xlink:href="#f" x="428.004" y="369.756" fill="gray"/><use xlink:href="#c" x="450.436" y="369.756" fill="gray"/><use xlink:href="#i" x="453.616" y="369.756" fill="gray"/><use xlink:href="#f" x="456.796" y="369.756" fill="gray"/><use xlink:href="#c" x="421.644" y="248.867" fill="gray"/><use xlink:href="#g" x="424.824" y="248.867" fill="gray"/><use xlink:href="#g" x="428.004" y="248.867" fill="gray"/><use xlink:href="#i" x="431.184" y="248.867" fill="gray"/><use xlink:href="#f" x="434.364" y="248.867" fill="gray"/><use xlink:href="#o" x="413.294" y="388.119" fill="gray"/><use xlink:href="#p" x="417.735" y="388.119" fill="gray"/><use xlink:href="#q" x="421.875" y="388.119" fill="gray"/><use xlink:href="#o" x="442.086" y="388.119" fill="gray"/><use xlink:href="#p" x="446.527" y="388.119" fill="gray"/><use xlink:href="#q" x="450.666" y="388.119" fill="gray"/><use xlink:href="#o" x="390.261" y="336.31" fill="gray"/><use xlink:href="#p" x="394.701" y="336.31" fill="gray"/><use xlink:href="#q" x="398.841" y="336.31" fill="gray"/><use xlink:href="#k" x="345.635" y="256.739" fill="gray"/><use xlink:href="#l" x="345.635" y="254.519" fill="gray"/><use xlink:href="#m" x="345.635" y="252.299" fill="gray"/><use xlink:href="#o" x="413.295" y="267.23" fill="gray"/><use xlink:href="#p" x="417.735" y="267.23" fill="gray"/><use xlink:href="#q" x="421.875" y="267.23" fill="gray"/><use xlink:href="#A" x="544.643" y="281.91" fill="gray"/><use xlink:href="#B" x="544.643" y="278.73" fill="gray"/><use xlink:href="#B" x="544.643" y="275.55" fill="gray"/><use xlink:href="#G" x="544.643" y="272.37" fill="gray"/><use xlink:href="#H" x="544.643" y="269.19" fill="gray"/><use xlink:href="#o" x="545.737" y="324.797" fill="gray"/><use xlink:href="#p" x="550.177" y="324.797" fill="gray"/><use xlink:href="#q" x="554.317" y="324.797" fill="gray"/><use xlink:href="#o" x="436.329" y="267.231" fill="gray"/><use xlink:href="#p" x="440.769" y="267.231" fill="gray"/><use xlink:href="#q" x="444.909" y="267.231" fill="gray"/><use xlink:href="#I" x="272.792" y="298.029" fill="gray"/><use xlink:href="#c" x="276.932" y="298.029" fill="gray"/><use xlink:href="#y" x="300.406" y="297.156" fill="gray"/><use xlink:href="#c" x="303.586" y="297.156" fill="gray"/><use xlink:href="#w" x="265.882" y="345.521" fill="gray"/><use xlink:href="#A" x="265.882" y="341.381" fill="gray"/><use xlink:href="#I" x="313.1" y="329.69" fill="gray"/><use xlink:href="#J" x="317.24" y="329.69" fill="gray"/><use xlink:href="#r" x="326.92" y="272.987" fill="gray"/><use xlink:href="#A" x="326.92" y="268.847" fill="gray"/><use xlink:href="#I" x="272.792" y="254.854" fill="gray"/><use xlink:href="#x" x="276.932" y="254.854" fill="gray"/><use xlink:href="#K" x="262.077" y="225.783" fill="gray"/><use xlink:href="#p" x="265.857" y="225.783" fill="gray"/><use xlink:href="#L" x="269.997" y="225.783" fill="gray"/><use xlink:href="#c" x="273.477" y="225.783" fill="gray"/><use xlink:href="#I" x="347.65" y="295.151" fill="gray"/><use xlink:href="#M" x="351.79" y="295.151" fill="gray"/><use xlink:href="#N" x="401.779" y="277.305" fill="gray"/><use xlink:href="#I" x="403.338" y="277.305" fill="gray"/><use xlink:href="#c" x="407.479" y="277.305" fill="gray"/><use xlink:href="#K" x="410.659" y="277.305" fill="gray"/><use xlink:href="#O" x="380.997" y="289.451" fill="gray"/><use xlink:href="#P" x="380.997" y="277.938" fill="gray"/><use xlink:href="#Q" x="408.343" y="283.695" fill="gray"/><use xlink:href="#N" x="476.637" y="277.305" fill="gray"/><use xlink:href="#I" x="478.197" y="277.305" fill="gray"/><use xlink:href="#c" x="482.337" y="277.305" fill="gray"/><use xlink:href="#R" x="485.517" y="277.305" fill="gray"/><use xlink:href="#S" x="455.856" y="289.451" fill="gray"/><use xlink:href="#T" x="455.856" y="277.938" fill="gray"/><use xlink:href="#U" x="483.201" y="283.695" fill="gray"/><use xlink:href="#w" x="405.521" y="310.405" fill="gray"/><use xlink:href="#V" x="405.521" y="306.265" fill="gray"/><use xlink:href="#W" x="418.247" y="311.573" fill="gray"/><use xlink:href="#X" x="418.247" y="295.207" fill="gray"/><use xlink:href="#Y" x="425.618" y="300.964" fill="gray"/><use xlink:href="#w" x="415.598" y="345.521" fill="gray"/><use xlink:href="#Z" x="415.598" y="341.381" fill="gray"/><use xlink:href="#w" x="444.39" y="345.521" fill="gray"/><use xlink:href="#aa" x="444.39" y="341.381" fill="gray"/><use xlink:href="#ab" x="472.772" y="326.514" fill="gray"/><use xlink:href="#a" x="476.912" y="326.514" fill="gray"/><use xlink:href="#ab" x="513.08" y="291.974" fill="gray"/><use xlink:href="#ac" x="517.22" y="291.974" fill="gray"/><use xlink:href="#I" x="421.645" y="358.243" fill="gray"/><use xlink:href="#a" x="425.785" y="358.243" fill="gray"/><use xlink:href="#I" x="450.437" y="358.243" fill="gray"/><use xlink:href="#ac" x="454.577" y="358.243" fill="gray"/><use xlink:href="#I" x="421.645" y="237.354" fill="gray"/><use xlink:href="#ad" x="425.785" y="237.354" fill="gray"/><use xlink:href="#ae" x="430.149" y="210.816" fill="gray"/><use xlink:href="#af" x="433.929" y="210.816" fill="gray"/><use xlink:href="#c" x="439.329" y="210.816" fill="gray"/><use xlink:href="#O" x="427.064" y="226.129" fill="gray"/><use xlink:href="#ag" x="441.28" y="236.197" fill="gray"/><use xlink:href="#ah" x="441.28" y="220.372" fill="gray"/><use xlink:href="#ai" x="395.214" y="273.448" fill="gray"/><use xlink:href="#aj" x="395.214" y="298.253" fill="gray"/><use xlink:href="#w" x="351.67" y="250.949" fill="gray"/><use xlink:href="#ak" x="351.67" y="246.809" fill="gray"/><use xlink:href="#u" x="533.125" y="281.91" fill="gray"/><use xlink:href="#al" x="533.125" y="277.77" fill="gray"/><use xlink:href="#am" x="571.649" y="286.121" fill="gray"/><use xlink:href="#an" x="574.709" y="286.121" fill="gray"/><use xlink:href="#ao" x="577.769" y="286.121" fill="gray"/><use xlink:href="#am" x="571.649" y="303.39" fill="gray"/><use xlink:href="#an" x="574.709" y="303.39" fill="gray"/><use xlink:href="#ap" x="577.769" y="303.39" fill="gray"/><use xlink:href="#aq" x="473.758" y="240.068" fill="gray"/><use xlink:href="#ar" x="476.817" y="240.068" fill="gray"/><use xlink:href="#as" x="479.878" y="240.068" fill="gray"/><use xlink:href="#ao" x="482.637" y="240.068" fill="gray"/><use xlink:href="#aq" x="473.758" y="251.581" fill="gray"/><use xlink:href="#ar" x="476.817" y="251.581" fill="gray"/><use xlink:href="#as" x="479.878" y="251.581" fill="gray"/><use xlink:href="#ap" x="482.637" y="251.581" fill="gray"/><path d="M269.34 296.04v4.019m0 7.441v-4.02" fill="none" stroke-width=".36" stroke-linecap="round" stroke-linejoin="round" stroke="maroon" stroke-miterlimit="10"/><path d="M272.82 305.82l-8.64-8.64m-1.739 1.742l1.739-1.742m0 0l1.68-1.739" fill="none" stroke-width=".72" stroke-linecap="round" stroke-linejoin="round" stroke="maroon" stroke-miterlimit="10"/><path d="M262.441 306.36v-5.16m0 0l-.601 1.741m.601-1.741l.54 1.741" fill="none" stroke-width=".36" stroke-linecap="round" stroke-linejoin="round" stroke="maroon" stroke-miterlimit="10"/><path d="M264.719 303.54h9.242v-1.2h-9.242zm0-2.34h9.242V300h-9.242zm0 0" fill="maroon" stroke-width=".12" stroke-linecap="round" stroke-linejoin="round" stroke="maroon" stroke-miterlimit="10"/><path d="M312.54 296.04l-.118-.778-.3-.66-.423-.602-.597-.48-.723-.301-.719-.059" fill="none" stroke-width=".6" stroke-linecap="round" stroke-linejoin="round" stroke="maroon" stroke-miterlimit="10"/><path d="M309.66 298.922l.719-.121.723-.301.597-.48.422-.54.3-.718.118-.723" fill="none" stroke-width=".6" stroke-linecap="round" stroke-linejoin="round" stroke="maroon" stroke-miterlimit="10"/><path d="M312.54 301.8l-.118-.78-.3-.66-.423-.598-.597-.48-.723-.302-.719-.058m0 5.699l.719-.062.723-.297.597-.48.422-.602.3-.66.118-.72m.001 5.7l-.118-.719-.3-.722-.423-.54-.597-.48-.723-.3-.719-.118m0 5.758l.719-.059.723-.3.597-.48.422-.599.3-.66.118-.781m-2.879 5.762v-2.883m0-20.098v2.88" fill="none" stroke-width=".6" stroke-linecap="round" stroke-linejoin="round" stroke="maroon" stroke-miterlimit="10"/><path d="M269.34 324.781v5.758m0 17.281v-5.761" fill="none" stroke-width=".36" stroke-linecap="round" stroke-linejoin="round" stroke="maroon" stroke-miterlimit="10"/><path d="M271.379 342.059v-11.52m-4.079.001v11.519m4.079-11.519H267.3m4.079 11.519H267.3" fill="none" stroke-width=".6" stroke-linecap="round" stroke-linejoin="round" stroke="maroon" stroke-miterlimit="10"/><path d="M309.66 330.54v1.14m0 4.62v-1.14" fill="none" stroke-width=".36" stroke-linecap="round" stroke-linejoin="round" stroke="maroon" stroke-miterlimit="10"/><path d="M305.04 335.16h9.241v-1.2h-9.242zm0-2.281h9.241v-1.2h-9.242zm0 0" fill="maroon" stroke-width=".12" stroke-linecap="round" stroke-linejoin="round" stroke="maroon" stroke-miterlimit="10"/><path d="M309.66 324.781v5.758m0 11.52V336.3" fill="none" stroke-width=".36" stroke-linecap="round" stroke-linejoin="round" stroke="maroon" stroke-miterlimit="10"/><path d="M282.3 365.102h8.641" fill="none" stroke-width=".6" stroke-linecap="round" stroke-linejoin="round" stroke="maroon" stroke-miterlimit="10"/><path d="M286.621 359.34v5.762m46.079-86.34h-5.759m-5.761 0h5.761" fill="none" stroke-width=".36" stroke-linecap="round" stroke-linejoin="round" stroke="maroon" stroke-miterlimit="10"/><path d="M329.82 281.64l-5.761-2.878m0 0l5.761-2.883m-5.761 0v2.883m5.761-2.883v5.762m-5.761-2.879v2.879" fill="none" stroke-width=".6" stroke-linecap="round" stroke-linejoin="round" stroke="maroon" stroke-miterlimit="10"/><path d="M269.34 255.719v1.14m0 4.621v-1.14" fill="none" stroke-width=".36" stroke-linecap="round" stroke-linejoin="round" stroke="maroon" stroke-miterlimit="10"/><path d="M264.719 260.34h9.242v-1.2h-9.242zm0-2.281h9.242v-1.2h-9.242zm0 0" fill="maroon" stroke-width=".12" stroke-linecap="round" stroke-linejoin="round" stroke="maroon" stroke-miterlimit="10"/><path d="M269.34 249.96v5.759m0 11.519v-5.758" fill="none" stroke-width=".36" stroke-linecap="round" stroke-linejoin="round" stroke="maroon" stroke-miterlimit="10"/><path d="M263.578 226.922h5.762m5.762 0l-5.762 5.758m0 0l-5.762-5.758m5.762 0v5.758m0-5.758h5.762" fill="none" stroke-width=".6" stroke-linecap="round" stroke-linejoin="round" stroke="maroon" stroke-miterlimit="10"/><path d="M269.34 238.441v-5.761m74.879 63.36v1.14m0 4.62v-1.198" fill="none" stroke-width=".36" stroke-linecap="round" stroke-linejoin="round" stroke="maroon" stroke-miterlimit="10"/><path d="M339.602 300.66h9.238v-1.2h-9.238zm0-2.34h9.238v-1.199h-9.238zm0 0" fill="maroon" stroke-width=".12" stroke-linecap="round" stroke-linejoin="round" stroke="maroon" stroke-miterlimit="10"/><path d="M344.219 290.281v5.758m0 11.461v-5.7" fill="none" stroke-width=".36" stroke-linecap="round" stroke-linejoin="round" stroke="maroon" stroke-miterlimit="10"/><path d="M339.898 330.54h8.641" fill="none" stroke-width=".6" stroke-linecap="round" stroke-linejoin="round" stroke="maroon" stroke-miterlimit="10"/><path d="M344.219 324.781v5.758" fill="none" stroke-width=".36" stroke-linecap="round" stroke-linejoin="round" stroke="maroon" stroke-miterlimit="10"/><path d="M384.48 273v23.04m0 0l23.04-11.52m0 0L384.48 273" fill="none" stroke-width=".96" stroke-linecap="round" stroke-linejoin="round" stroke="maroon" stroke-miterlimit="10"/><path d="M387.36 277.32v2.88m-1.438-1.438h2.879m-2.879 11.519h2.879m-10.082 0h5.761m-5.761-11.519h5.761m28.801 5.758h-5.761" fill="none" stroke-width=".36" stroke-linecap="round" stroke-linejoin="round" stroke="maroon" stroke-miterlimit="10"/><path d="M459.36 273v23.04m0 0l23.038-11.52m0 0L459.36 273" fill="none" stroke-width=".96" stroke-linecap="round" stroke-linejoin="round" stroke="maroon" stroke-miterlimit="10"/><path d="M462.238 277.32v2.88m-1.438-1.438h2.88m-2.88 11.519h2.88m-10.078 0h5.757m-5.757-11.519h5.757m28.801 5.758h-5.762" fill="none" stroke-width=".36" stroke-linecap="round" stroke-linejoin="round" stroke="maroon" stroke-miterlimit="10"/><path d="M417.3 296.04v11.46m3.481 0v-11.46" fill="none" stroke-width=".6" stroke-linecap="round" stroke-linejoin="round" stroke="maroon" stroke-miterlimit="10"/><path d="M424.8 301.8h-1.98m0 0l-8.039-4.019" fill="none" stroke-width=".36" stroke-linecap="round" stroke-linejoin="round" stroke="maroon" stroke-miterlimit="10"/><path d="M420.781 296.04h-3.48m-.001 11.46h3.481" fill="none" stroke-width=".6" stroke-linecap="round" stroke-linejoin="round" stroke="maroon" stroke-miterlimit="10"/><path d="M413.281 307.5v-4.559m0 0l-1.14 2.278m1.14-2.278l1.14 2.278m-.241-6.359l1.02-2.16m3.84 16.562V307.5m0-17.219v5.758m11.519 5.761H424.8m-5.76 22.981v5.758m0 17.281v-5.761" fill="none" stroke-width=".36" stroke-linecap="round" stroke-linejoin="round" stroke="maroon" stroke-miterlimit="10"/><path d="M421.078 342.059v-11.52m-4.019.001v11.519m4.019-11.519h-4.02m4.02 11.519h-4.02" fill="none" stroke-width=".6" stroke-linecap="round" stroke-linejoin="round" stroke="maroon" stroke-miterlimit="10"/><path d="M447.84 324.781v5.758m0 17.281v-5.761" fill="none" stroke-width=".36" stroke-linecap="round" stroke-linejoin="round" stroke="maroon" stroke-miterlimit="10"/><path d="M449.879 342.059v-11.52m-4.079.001v11.519m4.079-11.519H445.8m4.079 11.519H445.8" fill="none" stroke-width=".6" stroke-linecap="round" stroke-linejoin="round" stroke="maroon" stroke-miterlimit="10"/><path d="M459.36 319.02h5.761m17.277 0h-5.757" fill="none" stroke-width=".36" stroke-linecap="round" stroke-linejoin="round" stroke="maroon" stroke-miterlimit="10"/><path d="M476.64 317.04h-11.519m0 4.019h11.52m-11.52-4.019v4.019m11.519-4.019v4.019" fill="none" stroke-width=".6" stroke-linecap="round" stroke-linejoin="round" stroke="maroon" stroke-miterlimit="10"/><path d="M499.68 284.52h5.761m17.278 0h-5.758" fill="none" stroke-width=".36" stroke-linecap="round" stroke-linejoin="round" stroke="maroon" stroke-miterlimit="10"/><path d="M516.96 282.48h-11.519m0 4.02h11.52m-11.52-4.02v4.02m11.519-4.02v4.02m-101.339 74.879h6.899m0 0v-2.04m-6.899.001v2.039m0-2.039h6.899" fill="none" stroke-width=".6" stroke-linecap="round" stroke-linejoin="round" stroke="maroon" stroke-miterlimit="10"/><use xlink:href="#at" x="417.729" y="358.416" fill="maroon"/><path d="M415.32 365.102h7.442v-2.043h-7.442zm0 0" fill="maroon" stroke-width=".12" stroke-linecap="round" stroke-linejoin="round" stroke="maroon" stroke-miterlimit="10"/><path d="M419.04 370.86v-5.758m0-11.524v5.762" fill="none" stroke-width=".36" stroke-linecap="round" stroke-linejoin="round" stroke="maroon" stroke-miterlimit="10"/><path d="M444.422 361.379h6.898m0 0v-2.04m-6.898.001v2.039m0-2.039h6.898" fill="none" stroke-width=".6" stroke-linecap="round" stroke-linejoin="round" stroke="maroon" stroke-miterlimit="10"/><use xlink:href="#at" x="446.521" y="358.416" fill="maroon"/><path d="M444.121 365.102h7.438v-2.043h-7.438zm0 0" fill="maroon" stroke-width=".12" stroke-linecap="round" stroke-linejoin="round" stroke="maroon" stroke-miterlimit="10"/><path d="M447.84 370.86v-5.758m0-11.524v5.762" fill="none" stroke-width=".36" stroke-linecap="round" stroke-linejoin="round" stroke="maroon" stroke-miterlimit="10"/><path d="M415.621 240.48h6.899m0 0v-2.039m-6.899 0v2.04m0-2.04h6.899" fill="none" stroke-width=".6" stroke-linecap="round" stroke-linejoin="round" stroke="maroon" stroke-miterlimit="10"/><use xlink:href="#at" x="417.729" y="237.527" fill="maroon"/><path d="M415.32 244.2h7.442v-2.04h-7.442zm0 0" fill="maroon" stroke-width=".12" stroke-linecap="round" stroke-linejoin="round" stroke="maroon" stroke-miterlimit="10"/><path d="M419.04 249.96v-5.76m0-11.52v5.761" fill="none" stroke-width=".36" stroke-linecap="round" stroke-linejoin="round" stroke="maroon" stroke-miterlimit="10"/><path d="M440.102 211.98h-3.782" fill="none" stroke-width=".6" stroke-linecap="round" stroke-linejoin="round" stroke="maroon" stroke-miterlimit="10"/><path d="M436.32 211.98v4.32" fill="none" stroke-width=".36" stroke-linecap="round" stroke-linejoin="round" stroke="maroon" stroke-miterlimit="10"/><path d="M436.32 211.98h-3.718" fill="none" stroke-width=".6" stroke-linecap="round" stroke-linejoin="round" stroke="maroon" stroke-miterlimit="10"/><path d="M436.32 217.738v1.14" fill="none" stroke-width=".36" stroke-linecap="round" stroke-linejoin="round" stroke="maroon" stroke-miterlimit="10"/><path d="M430.262 226.922h2.34m0 0l7.5-3.723m.238 6.601h1.441m-1.441-5.76h1.441" fill="none" stroke-width=".6" stroke-linecap="round" stroke-linejoin="round" stroke="maroon" stroke-miterlimit="10"/><path d="M436.32 218.879l-1.742 1.14m0 .001l1.742 1.14m-11.52 5.762h5.759m11.519 11.519v-5.761m0-17.282v5.762m-5.758 2.34v1.441" fill="none" stroke-width=".36" stroke-linecap="round" stroke-linejoin="round" stroke="maroon" stroke-miterlimit="10"/><path d="M442.078 221.16v2.88m0 5.76v2.88m-27.359 149.699h8.64" fill="none" stroke-width=".6" stroke-linecap="round" stroke-linejoin="round" stroke="maroon" stroke-miterlimit="10"/><path d="M419.04 376.621v5.758" fill="none" stroke-width=".36" stroke-linecap="round" stroke-linejoin="round" stroke="maroon" stroke-miterlimit="10"/><path d="M443.52 382.379h8.64" fill="none" stroke-width=".6" stroke-linecap="round" stroke-linejoin="round" stroke="maroon" stroke-miterlimit="10"/><path d="M447.84 376.621v5.758M396 267.238v11.524m0 23.038v-11.519" fill="none" stroke-width=".36" stroke-linecap="round" stroke-linejoin="round" stroke="maroon" stroke-miterlimit="10"/><path d="M391.68 330.54h8.64" fill="none" stroke-width=".6" stroke-linecap="round" stroke-linejoin="round" stroke="maroon" stroke-miterlimit="10"/><path d="M396 324.781v5.758m-51.781-66.179v-5.758m0-17.282v5.758" fill="none" stroke-width=".36" stroke-linecap="round" stroke-linejoin="round" stroke="maroon" stroke-miterlimit="10"/><path d="M342.18 247.078v11.524m4.02 0v-11.524m-4.02 11.524h4.02m-4.02-11.524h4.02m68.519 14.402h8.64" fill="none" stroke-width=".6" stroke-linecap="round" stroke-linejoin="round" stroke="maroon" stroke-miterlimit="10"/><path d="M419.04 255.719v5.761" fill="none" stroke-width=".36" stroke-linecap="round" stroke-linejoin="round" stroke="maroon" stroke-miterlimit="10"/><path d="M536.219 287.941v-6.902m0 .001h-1.98m-.001 6.901h1.98m-1.98 0v-6.902" fill="none" stroke-width=".6" stroke-linecap="round" stroke-linejoin="round" stroke="maroon" stroke-miterlimit="10"/><use xlink:href="#au" x="530.959" y="288.705" fill="maroon"/><path d="M537.96 288.238H540v-7.437h-2.04zm0 0" fill="maroon" stroke-width=".12" stroke-linecap="round" stroke-linejoin="round" stroke="maroon" stroke-miterlimit="10"/><path d="M545.762 284.52H540m-11.52 0h5.758" fill="none" stroke-width=".36" stroke-linecap="round" stroke-linejoin="round" stroke="maroon" stroke-miterlimit="10"/><path d="M557.281 284.52h5.758m5.761 0a2.88 2.88 0 0 1-2.878 2.878 2.88 2.88 0 1 1 2.879-2.878zm-11.519 17.28h5.758m5.761 0a2.88 2.88 0 0 1-2.878 2.88 2.88 2.88 0 1 1 2.879-2.88zm-21.6 17.22h8.64" fill="none" stroke-width=".6" stroke-linecap="round" stroke-linejoin="round" stroke="maroon" stroke-miterlimit="10"/><path d="M551.52 313.262v5.758" fill="none" stroke-width=".36" stroke-linecap="round" stroke-linejoin="round" stroke="maroon" stroke-miterlimit="10"/><path d="M459.36 238.441h5.761m5.758 0a2.88 2.88 0 0 1-5.758 0 2.88 2.88 0 1 1 5.758 0zm-33.117 23.039h8.636" fill="none" stroke-width=".6" stroke-linecap="round" stroke-linejoin="round" stroke="maroon" stroke-miterlimit="10"/><path d="M442.078 255.719v5.761" fill="none" stroke-width=".36" stroke-linecap="round" stroke-linejoin="round" stroke="maroon" stroke-miterlimit="10"/><path d="M459.36 249.96h5.761m5.758 0a2.88 2.88 0 0 1-5.758 0 2.883 2.883 0 0 1 2.879-2.882 2.882 2.882 0 0 1 2.879 2.883zm0 0" fill="none" stroke-width=".6" stroke-linecap="round" stroke-linejoin="round" stroke="maroon" stroke-miterlimit="10"/><path d="M309.66 313.262v5.758m0 0v5.761m0-5.761h-40.32" fill="none" stroke-width=".36" stroke-linecap="round" stroke-linejoin="round" stroke="green" stroke-miterlimit="10"/><path d="M310.8 319.02a1.14 1.14 0 1 1-2.282 0 1.14 1.14 0 0 1 2.282-.001" fill-rule="evenodd" fill="green"/><path d="M310.8 319.02a1.14 1.14 0 1 1-2.282 0 1.14 1.14 0 0 1 2.282-.001zm0 0" fill="none" stroke-width=".12" stroke-linecap="round" stroke-linejoin="round" stroke="green" stroke-miterlimit="10"/><path d="M269.34 307.5v11.52m0 0v5.761" fill="none" stroke-width=".36" stroke-linecap="round" stroke-linejoin="round" stroke="green" stroke-miterlimit="10"/><path d="M270.48 319.02a1.14 1.14 0 1 1-2.278 0 1.14 1.14 0 0 1 2.278-.001" fill-rule="evenodd" fill="green"/><path d="M270.48 319.02a1.14 1.14 0 1 1-2.278 0 1.14 1.14 0 0 1 2.278-.001zm0 0" fill="none" stroke-width=".12" stroke-linecap="round" stroke-linejoin="round" stroke="green" stroke-miterlimit="10"/><path d="M269.34 347.82v5.758m0 0h17.281m0 0h23.04m-.001 0v-11.52m-23.039 17.282v-5.762" fill="none" stroke-width=".36" stroke-linecap="round" stroke-linejoin="round" stroke="green" stroke-miterlimit="10"/><path d="M287.762 353.578a1.14 1.14 0 0 1-1.14 1.14 1.137 1.137 0 0 1-1.142-1.14c0-.629.508-1.137 1.141-1.137.629 0 1.14.508 1.14 1.137" fill-rule="evenodd" fill="green"/><path d="M287.762 353.578a1.14 1.14 0 0 1-1.14 1.14 1.137 1.137 0 0 1-1.142-1.14c0-.629.508-1.137 1.141-1.137.629 0 1.14.508 1.14 1.137zm0 0" fill="none" stroke-width=".12" stroke-linecap="round" stroke-linejoin="round" stroke="green" stroke-miterlimit="10"/><path d="M344.219 324.781V307.5M396 324.781v-22.98m23.04-46.082v-5.758m0 126.66v-5.762m28.8.001v5.761m103.68-63.359V301.8m0 0h5.761m-97.921-51.84h-17.282m0 0v5.759M269.34 278.762v-11.524m0 28.802v-17.278m0 0h40.32m0 0h11.52m-11.52 11.519v-11.52" fill="none" stroke-width=".36" stroke-linecap="round" stroke-linejoin="round" stroke="green" stroke-miterlimit="10"/><path d="M310.8 278.762c0 .629-.51 1.136-1.14 1.136a1.139 1.139 0 1 1 0-2.277c.63 0 1.14.508 1.14 1.14" fill-rule="evenodd" fill="green"/><path d="M310.8 278.762c0 .629-.51 1.136-1.14 1.136a1.139 1.139 0 1 1 0-2.277c.63 0 1.14.508 1.14 1.14zm0 0" fill="none" stroke-width=".12" stroke-linecap="round" stroke-linejoin="round" stroke="green" stroke-miterlimit="10"/><path d="M270.48 278.762c0 .629-.511 1.136-1.14 1.136a1.139 1.139 0 1 1 0-2.277c.629 0 1.14.508 1.14 1.14" fill-rule="evenodd" fill="green"/><path d="M270.48 278.762c0 .629-.511 1.136-1.14 1.136a1.139 1.139 0 1 1 0-2.277c.629 0 1.14.508 1.14 1.14zm0 0" fill="none" stroke-width=".12" stroke-linecap="round" stroke-linejoin="round" stroke="green" stroke-miterlimit="10"/><path d="M269.34 238.441v11.52m149.7-17.281v-5.758m0 0h5.76m-5.76 0H396m0 0v40.316" fill="none" stroke-width=".36" stroke-linecap="round" stroke-linejoin="round" stroke="green" stroke-miterlimit="10"/><path d="M420.18 226.922c0 .629-.508 1.137-1.14 1.137a1.139 1.139 0 1 1 0-2.278c.632 0 1.14.508 1.14 1.14" fill-rule="evenodd" fill="green"/><path d="M420.18 226.922c0 .629-.508 1.137-1.14 1.137a1.139 1.139 0 1 1 0-2.278c.632 0 1.14.508 1.14 1.14zm0 0" fill="none" stroke-width=".12" stroke-linecap="round" stroke-linejoin="round" stroke="green" stroke-miterlimit="10"/><path d="M344.219 241.32v-14.398m0 0H396" fill="none" stroke-width=".36" stroke-linecap="round" stroke-linejoin="round" stroke="green" stroke-miterlimit="10"/><path d="M397.14 226.922c0 .629-.511 1.137-1.14 1.137a1.139 1.139 0 1 1 0-2.278c.629 0 1.14.508 1.14 1.14" fill-rule="evenodd" fill="green"/><path d="M397.14 226.922c0 .629-.511 1.137-1.14 1.137a1.139 1.139 0 1 1 0-2.278c.629 0 1.14.508 1.14 1.14zm0 0" fill="none" stroke-width=".12" stroke-linecap="round" stroke-linejoin="round" stroke="green" stroke-miterlimit="10"/><path d="M332.7 278.762h11.519m0 0v11.52m0-25.922v14.402" fill="none" stroke-width=".36" stroke-linecap="round" stroke-linejoin="round" stroke="green" stroke-miterlimit="10"/><path d="M345.36 278.762c0 .629-.508 1.136-1.141 1.136a1.139 1.139 0 1 1 0-2.277c.633 0 1.14.508 1.14 1.14" fill-rule="evenodd" fill="green"/><path d="M345.36 278.762c0 .629-.508 1.136-1.141 1.136a1.139 1.139 0 1 1 0-2.277c.633 0 1.14.508 1.14 1.14zm0 0" fill="none" stroke-width=".12" stroke-linecap="round" stroke-linejoin="round" stroke="green" stroke-miterlimit="10"/><path d="M344.219 278.762h34.5m0 11.519h-5.758m-.001 0v28.739m0 0h46.08m0 0v-5.758m0 11.519v-5.761" fill="none" stroke-width=".36" stroke-linecap="round" stroke-linejoin="round" stroke="green" stroke-miterlimit="10"/><path d="M420.18 319.02a1.14 1.14 0 1 1-2.282 0c0-.63.512-1.141 1.141-1.141.633 0 1.14.512 1.14 1.14" fill-rule="evenodd" fill="green"/><path d="M420.18 319.02a1.14 1.14 0 1 1-2.282 0c0-.63.512-1.141 1.141-1.141.633 0 1.14.512 1.14 1.14zm0 0" fill="none" stroke-width=".12" stroke-linecap="round" stroke-linejoin="round" stroke="green" stroke-miterlimit="10"/><path d="M419.04 319.02v-5.758m0-22.981v-5.761m0 0h-5.759m40.321-5.758H436.32m0 0V301.8m0 0h-5.761m57.601-17.28h5.762m0 0h5.758m-5.758 0v34.5m0 0h-11.524" fill="none" stroke-width=".36" stroke-linecap="round" stroke-linejoin="round" stroke="green" stroke-miterlimit="10"/><path d="M495.059 284.52a1.139 1.139 0 1 1-2.278 0 1.14 1.14 0 1 1 2.278 0" fill-rule="evenodd" fill="green"/><path d="M495.059 284.52a1.139 1.139 0 1 1-2.278 0 1.14 1.14 0 1 1 2.278 0zm0 0" fill="none" stroke-width=".12" stroke-linecap="round" stroke-linejoin="round" stroke="green" stroke-miterlimit="10"/><path d="M459.36 319.02h-11.52m0 0v-28.74m0 .001h5.762m-5.762 28.739v5.761" fill="none" stroke-width=".36" stroke-linecap="round" stroke-linejoin="round" stroke="green" stroke-miterlimit="10"/><path d="M448.98 319.02a1.14 1.14 0 1 1-2.278 0 1.14 1.14 0 0 1 2.278-.001" fill-rule="evenodd" fill="green"/><path d="M448.98 319.02a1.14 1.14 0 1 1-2.278 0 1.14 1.14 0 0 1 2.278-.001zm0 0" fill="none" stroke-width=".12" stroke-linecap="round" stroke-linejoin="round" stroke="green" stroke-miterlimit="10"/><path d="M419.04 347.82v5.758m28.8-5.758v5.758m80.64-69.058h-5.761m34.562 0h-11.52m-103.683-69.122h11.524m0 0v23.043m0 0h5.757" fill="none" stroke-width=".36" stroke-linecap="round" stroke-linejoin="round" stroke="green" stroke-miterlimit="10"/></svg>