<svg xmlns:xlink="http://www.w3.org/1999/xlink" width="842pt" height="595pt" viewBox="0 0 842 595"><defs><symbol overflow="visible" id="a"><path d="M1.234-1.828H.281l-.14 1h.218a.422.422 0 0 1 .063-.078C.453-.926.477-.941.5-.953a.179.179 0 0 1 .094-.031.37.37 0 0 1 .25.016.34.34 0 0 1 .125.093.34.34 0 0 1 .094.125.57.57 0 0 1 .03.188.48.48 0 0 1-.03.171.732.732 0 0 1-.11.172C.898-.164.813-.14.688-.14a.34.34 0 0 1-.235-.078.46.46 0 0 1-.14-.234h-.22c0 .043.005.078.016.11.008.023.02.054.032.093a.22.22 0 0 0 .062.094.4.4 0 0 0 .203.156.68.68 0 0 0 .735-.11.586.586 0 0 0 .14-.218.745.745 0 0 0 0-.516.684.684 0 0 0-.125-.187.598.598 0 0 0-.61-.14.393.393 0 0 0-.155.077l.078-.515h.765zm0 0"/></symbol><symbol overflow="visible" id="b"><path d="M.734-.797H.125v.172h.61zm0 0"/></symbol><symbol overflow="visible" id="c"><path d="M.672-1.297V0H.89v-1.828H.75a1.311 1.311 0 0 1-.063.172.359.359 0 0 1-.093.11.28.28 0 0 1-.125.046 1.74 1.74 0 0 1-.203.031v.172zm0 0"/></symbol><symbol overflow="visible" id="d"><path d="M1.016-.969c.039-.02.078-.039.109-.062a.827.827 0 0 0 .078-.094.179.179 0 0 0 .031-.094.644.644 0 0 0 .016-.125.371.371 0 0 0-.047-.187.367.367 0 0 0-.11-.157.48.48 0 0 0-.171-.093.538.538 0 0 0-.438 0 .665.665 0 0 0-.171.094.443.443 0 0 0-.126.156.473.473 0 0 0-.03.187c0 .043.003.086.015.125a.88.88 0 0 0 .031.094c.02.031.047.063.078.094.04.023.082.043.125.062-.21.106-.312.262-.312.469a.57.57 0 0 0 .047.234c.03.063.07.121.125.172a.38.38 0 0 0 .187.11.692.692 0 0 0 .5 0 .418.418 0 0 0 .188-.11.524.524 0 0 0 .14-.172.57.57 0 0 0 .047-.234c0-.207-.105-.363-.312-.469zm-.313-.656c.102 0 .18.027.235.078a.273.273 0 0 1 .093.219.247.247 0 0 1-.093.203c-.055.055-.133.078-.235.078a.34.34 0 0 1-.234-.078C.414-1.175.39-1.25.39-1.344a.27.27 0 0 1 .078-.203.36.36 0 0 1 .234-.078zm0 .766a.37.37 0 0 1 .156.03.264.264 0 0 1 .125.063.428.428 0 0 1 .11.266.429.429 0 0 1-.032.156.628.628 0 0 1-.109.14C.898-.16.816-.14.703-.14a.684.684 0 0 1-.156-.015.605.605 0 0 1-.125-.078.371.371 0 0 1-.078-.11.684.684 0 0 1 0-.297.36.36 0 0 1 .078-.125.342.342 0 0 1 .125-.062.429.429 0 0 1 .156-.031zm0 0"/></symbol><symbol overflow="visible" id="e"><path d="M.14.563h.22v-.704c.05.075.109.125.171.157a.57.57 0 0 0 .235.046.539.539 0 0 0 .422-.188.577.577 0 0 0 .109-.218.973.973 0 0 0 .047-.312.861.861 0 0 0-.047-.297.593.593 0 0 0-.11-.235.539.539 0 0 0-.187-.14.435.435 0 0 0-.234-.063.515.515 0 0 0-.25.063.422.422 0 0 0-.172.187v-.203H.14zm.594-1.75c.063 0 .114.015.157.046.05.024.093.059.125.11a.648.648 0 0 1 .078.156.738.738 0 0 1 0 .422.995.995 0 0 1-.078.172.428.428 0 0 1-.125.11.385.385 0 0 1-.157.03.409.409 0 0 1-.171-.03.484.484 0 0 1-.11-.11.487.487 0 0 1-.078-.156 1.444 1.444 0 0 1 0-.438.532.532 0 0 1 .078-.156.325.325 0 0 1 .281-.156zm0 0"/></symbol><symbol overflow="visible" id="f"><path d="M.469-.86h.906v-.203H.469v-.609H1.5v-.203H.234V0H.47zm0 0"/></symbol><symbol overflow="visible" id="g"><path d="M.703-1.828a.477.477 0 0 0-.234.062.476.476 0 0 0-.188.141 1.044 1.044 0 0 0-.125.313 1.655 1.655 0 0 0-.047.421c0 .313.047.555.141.72a.507.507 0 0 0 .453.234.515.515 0 0 0 .453-.235c.102-.164.157-.398.157-.703 0-.176-.016-.32-.047-.438a.885.885 0 0 0-.141-.312.404.404 0 0 0-.172-.14.527.527 0 0 0-.25-.063zm0 .203c.25 0 .375.246.375.734 0 .262-.031.454-.094.579-.062.124-.156.187-.28.187-.243 0-.36-.25-.36-.75 0-.25.031-.438.094-.563.062-.125.148-.187.265-.187zm0 0"/></symbol><symbol overflow="visible" id="h"><path d="M.5-.266H.219V0H.5zm0 0"/></symbol><symbol overflow="visible" id="i"><path d="M1.25 0v-1.344h-.219v.766A.629.629 0 0 1 1-.391a.6.6 0 0 1-.078.141.306.306 0 0 1-.11.094.32.32 0 0 1-.156.031.301.301 0 0 1-.203-.063C.398-.237.375-.304.375-.39v-.953H.172v1.032a.31.31 0 0 0 .031.156c.02.043.047.086.078.125a.33.33 0 0 0 .14.062.48.48 0 0 0 .173.032c.05 0 .097-.008.14-.016A.462.462 0 0 0 .844 0a.43.43 0 0 0 .11-.078.906.906 0 0 0 .093-.11V0zm0 0"/></symbol><symbol overflow="visible" id="j"><path d="M1.422-.86V0h.234v-1.875h-.234v.813H.453v-.813H.22V0h.234v-.86zm0 0"/></symbol><symbol overflow="visible" id="k"><path d="M1.047-2.031V0h.344v-2.844h-.235a2.245 2.245 0 0 1-.093.266.452.452 0 0 1-.329.25 1.688 1.688 0 0 1-.328.047v.25zm0 0"/></symbol><symbol overflow="visible" id="l"><path d="M1.875 0l.828-2.453V0h.36v-2.922H2.53L1.687-.375.813-2.922H.297V0h.36v-2.453L1.483 0zm0 0"/></symbol><symbol overflow="visible" id="m"><path d="M1.11-2.844a.907.907 0 0 0-.376.078.689.689 0 0 0-.28.235 1.39 1.39 0 0 0-.22.484 3.072 3.072 0 0 0-.062.672c0 .48.078.844.234 1.094.156.25.39.375.703.375.301 0 .532-.117.688-.36.156-.25.234-.613.234-1.093 0-.27-.027-.5-.078-.688a1.459 1.459 0 0 0-.187-.484.897.897 0 0 0-.297-.235.889.889 0 0 0-.36-.078zm0 .313c.374 0 .562.383.562 1.14 0 .407-.047.711-.14.907a.464.464 0 0 1-.438.28C.719-.203.53-.593.53-1.374c0-.383.047-.672.14-.86.095-.195.24-.296.438-.296zm0 0"/></symbol><symbol overflow="visible" id="n"><path d="M.281-2.11V0h.344v-1.156c0-.102.008-.196.031-.282a.502.502 0 0 1 .297-.375.477.477 0 0 1 .235-.062.508.508 0 0 1 .312.125.38.38 0 0 1 .125.297V0h.328v-1.594a.598.598 0 0 0-.047-.234.404.404 0 0 0-.14-.172.485.485 0 0 0-.204-.11 1.235 1.235 0 0 0-.28-.062.725.725 0 0 0-.391.11.768.768 0 0 0-.297.312v-.36zm0 0"/></symbol><symbol overflow="visible" id="o"><path d="M.734-1.328h1.391v-.328H.735v-.938h1.593v-.328H.36V0h.375zm0 0"/></symbol><symbol overflow="visible" id="w"><path d="M.766-.422H.344V0h.422zm0 0"/></symbol><symbol overflow="visible" id="x"><path d="M1.906-2.844H.438L.234-1.297h.329a.428.428 0 0 1 .109-.125.686.686 0 0 1 .25-.125.806.806 0 0 1 .156-.016.539.539 0 0 1 .438.188.626.626 0 0 1 .14.219.8.8 0 0 1 .047.281c0 .105-.016.2-.047.281a.99.99 0 0 1-.172.25c-.086.086-.218.125-.406.125a.587.587 0 0 1-.375-.11A.693.693 0 0 1 .5-.702H.14c.008.062.02.117.032.156.008.043.023.09.047.14.02.055.05.106.093.157.083.117.192.2.329.25.132.063.28.094.437.094a.968.968 0 0 0 .39-.078.702.702 0 0 0 .313-.204.844.844 0 0 0 .203-.328 1.06 1.06 0 0 0 0-.796.872.872 0 0 0-.187-.297.713.713 0 0 0-.281-.188.934.934 0 0 0-.375-.078c-.106 0-.2.016-.282.047a.716.716 0 0 0-.25.125L.734-2.5h1.172zm0 0"/></symbol><symbol overflow="visible" id="y"><path d="M.219.875h.344V-.219a.793.793 0 0 0 .28.235c.102.05.223.078.36.078a.823.823 0 0 0 .64-.297.94.94 0 0 0 .188-.344 1.789 1.789 0 0 0 0-.937.95.95 0 0 0-.187-.36.744.744 0 0 0-.282-.234 1.036 1.036 0 0 0-.359-.094.95.95 0 0 0-.39.11.696.696 0 0 0-.282.28v-.327H.22zm.922-2.719c.093 0 .175.024.25.063.07.031.132.086.187.156a1.039 1.039 0 0 1 .172.594c0 .125-.016.242-.047.344a.936.936 0 0 1-.125.25.597.597 0 0 1-.187.171.634.634 0 0 1-.25.047.62.62 0 0 1-.25-.047.599.599 0 0 1-.172-.171.833.833 0 0 1-.125-.25 1.561 1.561 0 0 1-.031-.344c0-.125.007-.235.03-.328a.88.88 0 0 1 .126-.266.494.494 0 0 1 .422-.219zm0 0"/></symbol><symbol overflow="visible" id="z"><path d="M.89-1.313h.188c.395 0 .594.172.594.516 0 .188-.055.336-.156.438-.106.093-.25.14-.438.14-.187 0-.336-.047-.437-.14C.547-.461.492-.617.484-.83H.125c.008.118.023.216.047.298.02.086.047.152.078.203A.69.69 0 0 0 .563 0c.132.063.3.094.5.094.144 0 .273-.024.39-.063a.863.863 0 0 0 .313-.172.846.846 0 0 0 .187-.28.907.907 0 0 0 .078-.376.658.658 0 0 0-.484-.672c.27-.101.406-.3.406-.593a1.124 1.124 0 0 0-.078-.329.54.54 0 0 0-.156-.234.659.659 0 0 0-.282-.156 1.034 1.034 0 0 0-.359-.063c-.293 0-.512.078-.656.235-.149.156-.227.386-.234.687h.359c0-.094.004-.164.015-.219a.427.427 0 0 1 .047-.14.422.422 0 0 1 .172-.188.68.68 0 0 1 .297-.062c.164 0 .29.043.375.125a.559.559 0 0 1 .14.36.572.572 0 0 1-.077.233.307.307 0 0 1-.157.141.88.88 0 0 1-.093.031.4.4 0 0 1-.125.032H.89zm0 0"/></symbol><symbol overflow="visible" id="A"><path d="M.563-2.922h-.33V0h.329v-.813L.89-1.14 1.609 0h.407l-.86-1.375.735-.734h-.438l-.89.89zm0 0"/></symbol><symbol overflow="visible" id="E"><path d="M1.938 0v-2.11h-.329v1.204a1.429 1.429 0 0 1-.062.297.577.577 0 0 1-.11.218.404.404 0 0 1-.171.141.598.598 0 0 1-.235.047.47.47 0 0 1-.328-.11.395.395 0 0 1-.11-.296v-1.5H.267v1.625c0 .093.015.18.046.25.032.062.07.12.126.172a.526.526 0 0 0 .218.109.786.786 0 0 0 .485.015.534.534 0 0 0 .17-.062.985.985 0 0 0 .172-.11c.051-.05.102-.113.157-.187V0zm0 0"/></symbol><symbol overflow="visible" id="P"><path d="M.75-1.266h.953c.164 0 .285.043.36.125.082.086.124.22.124.407v.25c0 .093.004.183.016.265.02.086.04.157.063.219h.468v-.094a.21.21 0 0 1-.093-.078.575.575 0 0 1-.063-.11.995.995 0 0 1-.031-.156v-.25c0-.113-.008-.21-.016-.296a.566.566 0 0 0-.062-.204.34.34 0 0 0-.125-.14 1.076 1.076 0 0 0-.188-.11.945.945 0 0 0 .344-.28.787.787 0 0 0 .11-.423c0-.257-.079-.453-.235-.578-.148-.133-.367-.203-.656-.203H.375V0H.75zm0-.328v-1h.906c.094 0 .172.012.235.031.07.012.132.04.187.079.094.086.14.214.14.39 0 .18-.046.309-.14.39-.094.075-.234.11-.422.11zm0 0"/></symbol><symbol overflow="visible" id="Q"><path d="M2.656-2.016c-.054-.32-.172-.562-.36-.718-.187-.157-.444-.235-.765-.235-.199 0-.375.031-.531.094-.156.063-.29.152-.39.266a1.472 1.472 0 0 0-.313.53c-.074.2-.11.419-.11.657 0 .242.036.461.11.656.07.2.18.371.328.516.102.117.227.2.375.25.156.063.328.094.516.094.707 0 1.109-.383 1.203-1.157h-.39a1.353 1.353 0 0 1-.126.454.613.613 0 0 1-.281.28.843.843 0 0 1-.406.095.884.884 0 0 1-.391-.078.915.915 0 0 1-.297-.25 1.147 1.147 0 0 1-.203-.375 1.768 1.768 0 0 1-.063-.5c0-.188.02-.352.063-.5a.997.997 0 0 1 .188-.375.885.885 0 0 1 .28-.235.792.792 0 0 1 .391-.094c.125 0 .235.016.329.047a.599.599 0 0 1 .375.313c.039.074.07.164.093.265zm0 0"/></symbol><symbol overflow="visible" id="R"><path d="M2.031-.344h-1.5A.433.433 0 0 1 .578-.5c.02-.05.05-.098.094-.14a.688.688 0 0 1 .156-.141 2.3 2.3 0 0 1 .219-.156l.406-.22c.195-.1.344-.226.438-.374a.824.824 0 0 0 .156-.485.75.75 0 0 0-.078-.328.933.933 0 0 0-.188-.281.834.834 0 0 0-.281-.156 1.034 1.034 0 0 0-.36-.063 1.14 1.14 0 0 0-.484.094.726.726 0 0 0-.297.266 1.15 1.15 0 0 0-.156.438v.187h.36c0-.094.003-.172.015-.235a.456.456 0 0 1 .063-.172.397.397 0 0 1 .187-.187.613.613 0 0 1 .297-.078.48.48 0 0 1 .219.047.49.49 0 0 1 .297.265.487.487 0 0 1 .046.219c0 .23-.125.418-.375.563l-.375.203a2.966 2.966 0 0 0-.375.25 1.214 1.214 0 0 0-.25.265c-.054.094-.093.2-.124.313A1.57 1.57 0 0 0 .14 0h1.89zm0 0"/></symbol><symbol overflow="visible" id="V"><path d="M1.313-.688V0h.359v-.688h.422V-1h-.422v-1.844h-.266L.11-1.063v.375zm0-.312H.421l.89-1.25zm0 0"/></symbol><symbol overflow="visible" id="Z"><path d="M2-2.11a.956.956 0 0 0-.11-.296.702.702 0 0 0-.171-.235.54.54 0 0 0-.235-.156.931.931 0 0 0-.734.063 1.124 1.124 0 0 0-.328.296 1.3 1.3 0 0 0-.172.422 3.131 3.131 0 0 0-.078.719c0 .117.004.227.016.328.007.106.019.2.03.281.02.086.048.165.079.235.031.062.066.125.11.187A.815.815 0 0 0 .703 0a.93.93 0 0 0 .422.094A.934.934 0 0 0 1.5.016a.803.803 0 0 0 .484-.484 1.03 1.03 0 0 0 .079-.391.823.823 0 0 0-.079-.36 1.056 1.056 0 0 0-.171-.297.713.713 0 0 0-.282-.187.978.978 0 0 0-.343-.063c-.282 0-.5.106-.657.313 0-.344.051-.61.156-.797a.535.535 0 0 1 .485-.281c.125 0 .226.039.312.11a.53.53 0 0 1 .157.312zm-.86.657c.176 0 .301.043.376.125a.77.77 0 0 1 .14.234.634.634 0 0 1 .047.25.62.62 0 0 1-.047.25.837.837 0 0 1-.125.203.606.606 0 0 1-.187.125.456.456 0 0 1-.203.047.57.57 0 0 1-.235-.047A.527.527 0 0 1 .72-.39a.731.731 0 0 1-.125-.203.971.971 0 0 1-.031-.265c0-.082.007-.16.03-.235a.584.584 0 0 1 .547-.36zm0 0"/></symbol><symbol overflow="visible" id="aa"><path d="M2.094-2.844H.188v.344h1.53a13.25 13.25 0 0 0-.437.672c-.125.21-.234.414-.328.61a7.452 7.452 0 0 0-.234.577A4.926 4.926 0 0 0 .563 0h.375c.03-.227.078-.445.14-.656a6.393 6.393 0 0 1 .578-1.266 5.9 5.9 0 0 1 .438-.625zm0 0"/></symbol><symbol overflow="visible" id="ai"><path d="M2.39-2.063c0-.289-.074-.492-.218-.609a1.25 1.25 0 0 0-.406-.234 1.608 1.608 0 0 0-.89 0 .78.78 0 0 0-.33.172.845.845 0 0 0-.202.265.95.95 0 0 0-.063.36c0 .355.192.578.578.671l.72.204c.187.043.32.105.405.187a.344.344 0 0 1 .141.281.477.477 0 0 1-.063.235.478.478 0 0 1-.156.172.515.515 0 0 1-.218.093c-.094.024-.2.032-.313.032a1.15 1.15 0 0 1-.406-.063.517.517 0 0 1-.266-.187.451.451 0 0 1-.125-.204.81.81 0 0 1-.031-.25h-.36c0 .137.016.258.047.36.032.094.07.18.125.25a.957.957 0 0 0 .407.312c.164.07.359.11.578.11.176 0 .332-.024.468-.063a.993.993 0 0 0 .36-.172.348.348 0 0 0 .125-.125c.039-.05.082-.117.125-.203.039-.094.066-.203.078-.328a.803.803 0 0 0-.172-.469.884.884 0 0 0-.453-.265l-.734-.203a1.647 1.647 0 0 1-.235-.063.587.587 0 0 1-.172-.125c-.054-.05-.078-.133-.078-.25a.37.37 0 0 1 .047-.187.443.443 0 0 1 .125-.157.604.604 0 0 1 .203-.109c.082-.02.176-.031.282-.031.226 0 .406.054.53.156.126.094.192.242.204.438zm0 0"/></symbol><symbol overflow="visible" id="aj"><path d="M.734-1.234h.922a.99.99 0 0 0 .313-.047.774.774 0 0 0 .25-.172.648.648 0 0 0 .203-.25c.039-.102.062-.223.062-.36-.011-.28-.093-.492-.25-.64-.148-.145-.367-.219-.656-.219H.36V0h.375zm0-.344v-1.016h.782c.175 0 .312.047.406.14.101.087.16.212.172.376a.546.546 0 0 1-.172.375c-.094.086-.23.125-.406.125zm0 0"/></symbol><symbol overflow="visible" id="ak"><path d="M2.14-1.078h-.828v-.828h-.28v.828h-.83v.281h.828v.844h.282v-.844h.828zm0 0"/></symbol><symbol overflow="visible" id="al"><path d="M1.14-1.25H.189v.281h.953zm0 0"/></symbol><symbol overflow="visible" id="am"><path d="M.219-.656c.031.242.113.43.25.562a.808.808 0 0 0 .547.188.787.787 0 0 0 .375-.078.901.901 0 0 0 .234-.157.81.81 0 0 0 .156-.172c.094-.132.16-.296.203-.484.04-.187.063-.406.063-.656a2.636 2.636 0 0 0-.063-.61 1.29 1.29 0 0 0-.078-.218 3.804 3.804 0 0 0-.11-.219.662.662 0 0 0-.296-.25.93.93 0 0 0-.422-.094.907.907 0 0 0-.375.078.71.71 0 0 0-.297.204.768.768 0 0 0-.187.296 1.08 1.08 0 0 0-.063.375c0 .137.02.262.063.375a.85.85 0 0 0 .172.282.742.742 0 0 0 .28.187.923.923 0 0 0 .36.063.771.771 0 0 0 .36-.079.867.867 0 0 0 .28-.234c0 .344-.058.61-.171.797-.105.188-.258.281-.453.281a.449.449 0 0 1-.313-.11C.648-.398.594-.507.563-.655zm.86-1.875a.539.539 0 0 1 .406.188c.05.054.093.12.124.202a.634.634 0 0 1 .047.25.57.57 0 0 1-.047.235.837.837 0 0 1-.125.203.606.606 0 0 1-.187.125.681.681 0 0 1-.234.031.539.539 0 0 1-.407-.156c-.094-.113-.14-.27-.14-.469 0-.082.007-.16.03-.234a.559.559 0 0 1 .126-.203.653.653 0 0 1 .172-.125.57.57 0 0 1 .234-.047zm0 0"/></symbol><symbol overflow="visible" id="an"><path d="M1.578 0l1.016-2.922h-.406L1.375-.453l-.86-2.469h-.39L1.172 0zm0 0"/></symbol><symbol overflow="visible" id="ao"><path d="M2.844-1.547H1.625v.328h.89v.078a.907.907 0 0 1-.078.375.846.846 0 0 1-.187.282 1.2 1.2 0 0 1-.297.187.95.95 0 0 1-.36.063c-.148 0-.288-.024-.421-.078a.821.821 0 0 1-.313-.22.846.846 0 0 1-.14-.171 12.27 12.27 0 0 1-.094-.219 4.673 4.673 0 0 1-.063-.25 2.263 2.263 0 0 1-.015-.281c0-.176.02-.336.062-.484.051-.145.125-.27.22-.375a.973.973 0 0 1 .327-.235.93.93 0 0 1 .422-.094.99.99 0 0 1 .313.047.812.812 0 0 1 .296.156c.114.075.192.204.235.391h.39a1.28 1.28 0 0 0-.156-.39 1.155 1.155 0 0 0-.328-.344c-.156-.125-.406-.188-.75-.188-.355 0-.648.094-.875.281a1.11 1.11 0 0 0-.234.235 2.506 2.506 0 0 0-.203.39 1.726 1.726 0 0 0-.094.626c0 .23.031.437.094.625.07.187.164.351.28.484.114.137.255.242.423.312a1.38 1.38 0 0 0 1.078 0 1.71 1.71 0 0 0 .469-.359l.093.39h.235zm0 0"/></symbol><symbol overflow="visible" id="ap"><path d="M2.594-2.922h-.36v2.39l-1.53-2.39H.312V0h.343v-2.375L2.172 0h.422zm0 0"/></symbol><symbol overflow="visible" id="aq"><path d="M.36 0h1.124c.188 0 .352-.031.5-.094.145-.07.27-.172.375-.297a1.31 1.31 0 0 0 .235-.453 2.38 2.38 0 0 0 .078-.625 2.15 2.15 0 0 0-.078-.593 1.32 1.32 0 0 0-.235-.47 1.011 1.011 0 0 0-.375-.28 1.147 1.147 0 0 0-.5-.11H.36zm.374-.328v-2.266h.688c.289 0 .508.102.656.297.145.188.223.469.235.844-.012.367-.09.648-.235.844-.148.187-.367.28-.656.28zm0 0"/></symbol><symbol overflow="visible" id="p"><path d="M4-2.172H2.281v.469h1.25v.11c0 .187-.031.359-.094.515a1.216 1.216 0 0 1-.671.656 1.376 1.376 0 0 1-.516.094c-.219 0-.418-.035-.594-.11a1.194 1.194 0 0 1-.453-.312A2.313 2.313 0 0 1 1.016-1a1.643 1.643 0 0 1-.141-.313 3.372 3.372 0 0 1-.078-.343 1.437 1.437 0 0 1-.016-.39c0-.25.031-.474.094-.673.063-.207.156-.383.281-.531a1.394 1.394 0 0 1 1.063-.469c.156 0 .297.024.422.063.132.043.28.12.437.234.156.106.266.293.328.563h.531a1.372 1.372 0 0 0-.203-.547 1.77 1.77 0 0 0-.468-.5c-.22-.176-.57-.27-1.047-.281-.5 0-.914.136-1.235.406a2.366 2.366 0 0 0-.312.344 2.512 2.512 0 0 0-.281.53c-.094.231-.141.528-.141.891 0 .325.04.618.125.875.094.262.223.493.39.688.165.187.364.336.594.437.227.094.485.141.766.141s.535-.055.766-.156c.226-.102.441-.266.64-.485l.14.532H4zm0 0"/></symbol><symbol overflow="visible" id="q"><path d="M3.64-4.11h-.5v3.36L1-4.11H.422V0h.5v-3.328L3.047 0h.594zm0 0"/></symbol><symbol overflow="visible" id="r"><path d="M.5 0h1.594c.25 0 .476-.047.687-.14.207-.094.383-.227.531-.407.145-.176.254-.39.329-.64.082-.258.125-.551.125-.875 0-.313-.043-.594-.125-.844a1.85 1.85 0 0 0-.329-.656 1.499 1.499 0 0 0-.53-.407 1.665 1.665 0 0 0-.688-.14H.5zm.531-.469v-3.187H2c.406.011.71.152.922.422.207.261.312.656.312 1.187 0 .524-.105.918-.312 1.188-.211.261-.516.39-.922.39zm0 0"/></symbol><symbol overflow="visible" id="s"><path d="M2.188-4.188c-.293.012-.563.07-.813.172-.242.106-.45.25-.625.438a2.001 2.001 0 0 0-.39.687 2.523 2.523 0 0 0-.141.86c0 .336.047.633.14.89.094.262.223.493.391.688.176.187.383.336.625.437.25.094.523.141.828.141.25 0 .477-.04.688-.11.218-.07.41-.18.578-.328.113-.093.21-.195.297-.312.093-.125.164-.258.218-.406.063-.145.11-.297.141-.453.04-.164.063-.332.063-.5 0-.332-.047-.633-.141-.907-.094-.27-.23-.5-.406-.687A1.888 1.888 0 0 0 3-4.016a2.314 2.314 0 0 0-.813-.171zm0 .47c.226 0 .43.042.609.124.176.086.328.203.453.36.133.148.234.324.297.53.07.212.11.446.11.704 0 .25-.04.48-.11.688a1.505 1.505 0 0 1-.297.53 1.261 1.261 0 0 1-.469.345c-.18.074-.37.109-.578.109a1.64 1.64 0 0 1-.61-.11 1.401 1.401 0 0 1-.468-.343 1.753 1.753 0 0 1-.297-.547 2.432 2.432 0 0 1-.094-.703c0-.25.032-.477.094-.688a1.63 1.63 0 0 1 .297-.531c.133-.145.29-.258.469-.344.176-.082.375-.125.593-.125zm0 0"/></symbol><symbol overflow="visible" id="t"><path d="M2.672-1.234L3.094 0h.594L2.234-4.11h-.671L.093 0h.563l.438-1.234zm-.14-.438H1.218l.672-1.875zm0 0"/></symbol><symbol overflow="visible" id="u"><path d="M2.938-4H.265v.484h2.156c-.242.344-.45.664-.625.954-.168.28-.32.558-.453.828a8.289 8.289 0 0 0-.328.828C.93-.625.852-.32.78 0h.531c.051-.313.118-.617.204-.922.093-.3.207-.598.343-.89.133-.29.29-.583.47-.875.175-.29.378-.586.608-.891zm0 0"/></symbol><symbol overflow="visible" id="v"><path d="M.297-.922c.05.336.176.594.375.781.195.176.453.266.765.266.22 0 .395-.04.532-.11.133-.07.242-.14.328-.203a.967.967 0 0 0 .203-.25 2.06 2.06 0 0 0 .281-.671c.063-.258.094-.57.094-.938a31.94 31.94 0 0 1-.031-.453 2.21 2.21 0 0 0-.063-.39 1.726 1.726 0 0 0-.25-.61 1.202 1.202 0 0 0-.422-.375A1.343 1.343 0 0 0 1.516-4c-.188 0-.368.04-.532.11a1.087 1.087 0 0 0-.406.28 1.176 1.176 0 0 0-.265.422 1.506 1.506 0 0 0-.094.532c0 .187.023.36.078.515.062.157.144.293.25.407.113.117.242.203.39.265.157.063.32.094.5.094a1.149 1.149 0 0 0 .922-.453c-.011.492-.093.867-.25 1.125-.148.262-.359.39-.64.39a.613.613 0 0 1-.438-.156C.914-.57.836-.723.797-.922zm1.219-2.64a.65.65 0 0 1 .312.078.748.748 0 0 1 .266.187.84.84 0 0 1 .172.281 1.034 1.034 0 0 1 0 .704 1.143 1.143 0 0 1-.172.265.76.76 0 0 1-.266.172 1.039 1.039 0 0 1-.328.047c-.242 0-.434-.07-.578-.219-.137-.156-.203-.367-.203-.64 0-.126.02-.239.062-.344a.88.88 0 0 1 .156-.281.727.727 0 0 1 .25-.188.908.908 0 0 1 .329-.063zm0 0"/></symbol><symbol overflow="visible" id="B"><path d="M1.453-2.844V0h.5v-4h-.328c-.043.156-.09.281-.14.375a.545.545 0 0 1-.173.219.675.675 0 0 1-.28.125 2.968 2.968 0 0 1-.454.078v.36zm0 0"/></symbol><symbol overflow="visible" id="C"><path d="M1.547-4c-.188 0-.367.043-.531.125-.157.074-.29.18-.391.313-.125.18-.227.402-.297.671-.062.274-.09.59-.078.954 0 .68.11 1.195.328 1.546.219.344.54.516.969.516.426 0 .75-.172.969-.516.226-.343.343-.847.343-1.515 0-.383-.03-.707-.093-.969a1.94 1.94 0 0 0-.297-.688 1.08 1.08 0 0 0-.406-.312A1.094 1.094 0 0 0 1.546-4zm0 .438c.539 0 .812.539.812 1.609 0 .574-.07.996-.203 1.266-.136.273-.34.406-.61.406-.53 0-.796-.547-.796-1.64 0-.552.066-.962.203-1.235.133-.27.332-.406.594-.406zm0 0"/></symbol><symbol overflow="visible" id="D"><path d="M.797-4.11H.328V0h.469v-1.156l.453-.453L2.25 0h.578L1.625-1.938l1.031-1.015h-.61l-1.25 1.25zm0 0"/></symbol><symbol overflow="visible" id="F"><path d="M2.719 0v-2.953H2.25v1.672c0 .156-.023.297-.063.422a1.209 1.209 0 0 1-.171.312.676.676 0 0 1-.25.203.78.78 0 0 1-.329.063c-.187 0-.335-.051-.437-.156A.598.598 0 0 1 .828-.86v-2.094H.36v2.281c0 .125.02.242.063.344.05.094.113.18.187.25.082.062.18.11.297.14a1.342 1.342 0 0 0 .688.032A.678.678 0 0 0 1.859 0a.797.797 0 0 0 .22-.156c.07-.07.144-.157.218-.25V0zm0 0"/></symbol><symbol overflow="visible" id="G"><path d="M1.031-1.875H3v-.453H1.031v-1.328h2.235v-.453H.5V0h.531zm0 0"/></symbol><symbol overflow="visible" id="H"><path d="M.969-4.11H.453V0H3v-.469H.969zm0 0"/></symbol><symbol overflow="visible" id="I"><path d="M2.64 0l1.157-3.453V0h.5v-4.11h-.734L2.375-.53 1.156-4.11H.422V0h.5v-3.453L2.094 0zm0 0"/></symbol><symbol overflow="visible" id="J"><path d="M1.25-1.828h.063l.203-.016c.55.012.828.258.828.735 0 .25-.074.449-.219.593-.148.137-.352.204-.61.204-.273 0-.476-.067-.609-.204C.77-.648.691-.863.672-1.156H.187c.008.156.024.293.047.406.032.117.07.215.125.297.094.2.235.344.422.437.196.094.438.141.719.141.207 0 .395-.031.563-.094.164-.05.304-.129.421-.234.114-.113.204-.242.266-.39.063-.157.098-.333.11-.532 0-.25-.06-.445-.172-.594-.106-.156-.278-.273-.516-.36.375-.144.562-.421.562-.827 0-.164-.03-.317-.093-.453a.961.961 0 0 0-.235-.344 1.144 1.144 0 0 0-.39-.219 1.526 1.526 0 0 0-.5-.078c-.407 0-.715.11-.922.328-.211.219-.32.543-.328.969h.5c0-.125.004-.223.015-.297a.614.614 0 0 1 .328-.469.832.832 0 0 1 .407-.094c.226 0 .398.063.515.188.125.117.192.277.203.484a.894.894 0 0 1-.093.36.468.468 0 0 1-.235.187.45.45 0 0 1-.125.047.754.754 0 0 1-.172.031 2.67 2.67 0 0 1-.359.016zm0 0"/></symbol><symbol overflow="visible" id="K"><path d="M2.86-.484H.75a.623.623 0 0 1 .063-.22c.03-.07.07-.14.125-.202.062-.07.132-.14.218-.203.082-.063.188-.13.313-.204l.562-.312c.281-.145.489-.316.625-.516.145-.207.223-.437.235-.687a1.467 1.467 0 0 0-.11-.469 1.307 1.307 0 0 0-.265-.39 1.465 1.465 0 0 0-.407-.235A1.526 1.526 0 0 0 1.61-4a1.49 1.49 0 0 0-.671.14.982.982 0 0 0-.438.376c-.074.105-.125.21-.156.312-.024.106-.04.2-.047.281-.012.086-.016.18-.016.282h.5a1.296 1.296 0 0 1 .11-.563.696.696 0 0 1 .28-.281.811.811 0 0 1 .72-.047.674.674 0 0 1 .25.156.702.702 0 0 1 .234.531c0 .325-.184.586-.547.782l-.516.297c-.21.117-.386.23-.53.343a1.5 1.5 0 0 0-.516.828A2.47 2.47 0 0 0 .187 0H2.86zm0 0"/></symbol><symbol overflow="visible" id="L"><path d="M1.844-.953V0h.5v-.953h.594v-.453h-.594V-4h-.375L.156-1.484v.53zm0-.453H.594l1.25-1.75zm0 0"/></symbol><symbol overflow="visible" id="W"><path d="M1.047-1.766h1.36c.226 0 .394.059.5.172.113.117.171.305.171.563v.36a2.025 2.025 0 0 0 .11.671h.64v-.125a.486.486 0 0 1-.203-.25 2.308 2.308 0 0 1-.031-.234 2.868 2.868 0 0 1-.016-.344c0-.164-.012-.305-.031-.422a.797.797 0 0 0-.078-.297.62.62 0 0 0-.172-.203 3.006 3.006 0 0 0-.266-.156c.219-.102.38-.235.485-.39.101-.157.156-.352.156-.595 0-.351-.11-.625-.328-.812-.211-.188-.516-.281-.922-.281H.516V0h.53zm0-.468v-1.422h1.266c.144 0 .265.015.359.047a.593.593 0 0 1 .234.109c.145.125.219.313.219.563 0 .242-.07.417-.203.53-.125.118-.328.173-.61.173zm0 0"/></symbol><symbol overflow="visible" id="X"><path d="M2.688-4H.624L.328-1.828h.453a1.341 1.341 0 0 1 .328-.281.706.706 0 0 1 .188-.063 1.66 1.66 0 0 1 .219-.015c.125 0 .238.023.343.062a.713.713 0 0 1 .282.188c.082.085.14.187.171.312.04.117.067.246.079.39a1.57 1.57 0 0 1-.079.391.9.9 0 0 1-.218.36c-.117.117-.309.171-.578.171-.22 0-.399-.05-.532-.156C.848-.582.75-.754.688-.984H.203c.008.086.02.156.031.218.02.063.047.133.078.204.032.074.07.148.126.218A.973.973 0 0 0 .89 0c.187.082.394.125.625.125.207 0 .394-.04.562-.11.164-.062.305-.156.422-.28.125-.126.219-.274.281-.454.07-.176.11-.367.11-.578a1.43 1.43 0 0 0-.094-.531 1.232 1.232 0 0 0-.266-.422 1.12 1.12 0 0 0-.406-.281 1.658 1.658 0 0 0-.516-.11c-.148 0-.28.024-.406.063-.117.043-.23.105-.344.187l.157-1.125h1.671zm0 0"/></symbol><symbol overflow="visible" id="Y"><path d="M2.813-2.953a1.692 1.692 0 0 0-.141-.438 1.144 1.144 0 0 0-.25-.328.844.844 0 0 0-.328-.203A1.112 1.112 0 0 0 1.672-4c-.219 0-.422.055-.61.156a1.1 1.1 0 0 0-.453.422 1.92 1.92 0 0 0-.265.578 6.19 6.19 0 0 0-.094.531 3.335 3.335 0 0 0 0 .485 5.372 5.372 0 0 0 .062.859c.032.117.067.227.11.328.039.094.094.188.156.282.102.156.238.277.406.359.176.082.375.125.594.125.195 0 .375-.031.531-.094a1.204 1.204 0 0 0 .688-.703 1.53 1.53 0 0 0 .094-.547 1.268 1.268 0 0 0-.36-.906 1.112 1.112 0 0 0-.375-.266 1.23 1.23 0 0 0-.484-.093c-.399 0-.703.148-.922.437 0-.488.07-.863.219-1.125.156-.258.379-.39.672-.39.175 0 .32.058.437.171.113.106.192.25.235.438zm-1.204.906c.239 0 .41.059.516.172.102.117.172.23.203.344.031.105.05.226.063.36-.012.124-.04.241-.079.343a.766.766 0 0 1-.156.281.774.774 0 0 1-.562.235.832.832 0 0 1-.328-.063A.79.79 0 0 1 1-.563a.866.866 0 0 1-.172-.28 1.353 1.353 0 0 1 0-.704.76.76 0 0 1 .438-.437.961.961 0 0 1 .343-.063zm0 0"/></symbol><symbol overflow="visible" id="ag"><path d="M3.734-2.844c-.086-.445-.257-.781-.515-1-.262-.226-.621-.344-1.078-.344-.274 0-.516.047-.735.141a1.55 1.55 0 0 0-.562.375 2.234 2.234 0 0 0-.438.735c-.094.28-.14.59-.14.921 0 .344.05.657.156.938.101.281.254.527.453.734.156.156.332.274.531.344.207.082.446.125.719.125 1 0 1.563-.54 1.688-1.625H3.28a4.349 4.349 0 0 1-.094.375 1.423 1.423 0 0 1-.093.266 1.015 1.015 0 0 1-.39.39c-.157.094-.352.14-.579.14-.21 0-.398-.034-.563-.108a1.218 1.218 0 0 1-.406-.344 1.508 1.508 0 0 1-.265-.531 2.432 2.432 0 0 1-.094-.704c0-.257.023-.492.078-.703.063-.207.148-.383.266-.531.113-.156.25-.27.406-.344.156-.082.336-.125.547-.125.164 0 .316.028.453.078a.95.95 0 0 1 .36.188c.062.062.116.148.171.25.05.094.094.215.125.36zm0 0"/></symbol><symbol overflow="visible" id="ah"><path d="M2.203-2.11a.967.967 0 0 0 .25-.171 1.07 1.07 0 0 0 .172-.188.877.877 0 0 0 .094-.203c.02-.07.031-.16.031-.265a.93.93 0 0 0-.094-.422.87.87 0 0 0-.25-.344 1.185 1.185 0 0 0-.375-.219A1.482 1.482 0 0 0 1.547-4c-.18 0-.34.027-.484.078a1.313 1.313 0 0 0-.391.219 1.03 1.03 0 0 0-.25.344 1.042 1.042 0 0 0-.078.421.99.99 0 0 0 .031.266c.02.074.05.14.094.203.039.063.094.125.156.188.07.062.16.12.266.172-.461.23-.688.562-.688 1 0 .187.031.359.094.515a1.3 1.3 0 0 0 .281.39c.113.106.254.184.422.235.164.063.348.094.547.094.195 0 .379-.031.547-.094.164-.05.304-.129.422-.234a1.21 1.21 0 0 0 .265-.39c.07-.157.11-.329.11-.516 0-.446-.23-.782-.688-1zm-.656-1.453c.219.012.383.075.5.188.125.105.191.258.203.453a.64.64 0 0 1-.203.453c-.117.106-.281.164-.5.172a.794.794 0 0 1-.5-.172.584.584 0 0 1-.188-.453c0-.195.063-.348.188-.453a.78.78 0 0 1 .5-.188zm0 1.672c.125.012.234.04.328.079a.675.675 0 0 1 .266.156c.082.062.14.148.171.25.04.093.067.199.079.312a1.26 1.26 0 0 1-.079.328.74.74 0 0 1-.218.297c-.117.106-.297.156-.547.156a1.18 1.18 0 0 1-.344-.046.838.838 0 0 1-.266-.157.734.734 0 0 1-.171-.25 1.11 1.11 0 0 1 0-.64.61.61 0 0 1 .171-.25.806.806 0 0 1 .266-.157c.102-.039.219-.066.344-.078zm0 0"/></symbol><symbol overflow="visible" id="au"><path d="M1.094-4.11H.562V0h.532zm0 0"/></symbol><symbol overflow="visible" id="av"><path d="M.453 0h1.844c.195 0 .367-.023.515-.078.145-.063.274-.149.391-.266.094-.101.164-.222.219-.36.062-.144.094-.3.094-.468 0-.25-.063-.453-.188-.61-.117-.155-.305-.284-.562-.39a.911.911 0 0 0 .421-.344c.094-.156.141-.336.141-.546 0-.157-.027-.297-.078-.422a.97.97 0 0 0-.625-.547 1.59 1.59 0 0 0-.516-.078H.453zM.97-2.344v-1.312h1.015c.145 0 .266.015.36.047a.593.593 0 0 1 .234.109c.145.117.223.281.235.5a.796.796 0 0 1-.063.313.55.55 0 0 1-.172.203.502.502 0 0 1-.234.109 1.553 1.553 0 0 1-.36.031zm0 1.875v-1.406h1.28c.125 0 .227.016.313.047a.588.588 0 0 1 .234.14c.062.075.11.157.14.25a.76.76 0 0 1 .047.266.927.927 0 0 1-.046.297.586.586 0 0 1-.141.219.724.724 0 0 1-.235.156.709.709 0 0 1-.312.031zm0 0"/></symbol><symbol overflow="visible" id="M"><path d="M2.14-1.625c-.042-.258-.14-.453-.296-.578-.149-.125-.352-.188-.61-.188a1.22 1.22 0 0 0-.437.079.714.714 0 0 0-.313.203 1.503 1.503 0 0 0-.25.437 1.552 1.552 0 0 0-.078.516c0 .199.024.383.078.547.063.156.149.293.266.406C.582-.11.68-.04.797 0c.125.05.265.078.422.078.57 0 .894-.312.968-.937h-.312a1.325 1.325 0 0 1-.047.218.33.33 0 0 1-.062.141.442.442 0 0 1-.22.234.638.638 0 0 1-.327.079.732.732 0 0 1-.313-.063.83.83 0 0 1-.25-.203A1.016 1.016 0 0 1 .5-.75a1.657 1.657 0 0 1-.047-.406c0-.145.016-.274.047-.39a1.09 1.09 0 0 1 .156-.313.568.568 0 0 1 .219-.204.847.847 0 0 1 .328-.062c.094 0 .176.016.25.047a.653.653 0 0 1 .203.094.69.69 0 0 1 .11.156.6.6 0 0 1 .062.203zm0 0"/></symbol><symbol overflow="visible" id="N"><path d="M.844-1.64V0h.281v-2.297H.937a.817.817 0 0 1-.078.219.434.434 0 0 1-.109.125.541.541 0 0 1-.172.078 2.396 2.396 0 0 1-.25.031v.203zm0 0"/></symbol><symbol overflow="visible" id="O"><path d="M.563-2.36H.266V0h1.453v-.266H.562zm0 0"/></symbol><symbol overflow="visible" id="S"><path d="M1.531-.703l.25.703h.328l-.828-2.36h-.39L.062 0h.313l.25-.703zm-.078-.25h-.75l.39-1.078zm0 0"/></symbol><symbol overflow="visible" id="T"><path d="M2.094-2.36h-.281v1.938L.577-2.359H.25V0h.281v-1.906L1.75 0h.344zm0 0"/></symbol><symbol overflow="visible" id="U"><path d="M1.14-2.094h.782v-.265H.062v.265h.782V0h.297zm0 0"/></symbol><symbol overflow="visible" id="ab"><path d="M1.922-1.672c0-.226-.059-.39-.172-.484a1.024 1.024 0 0 0-.328-.188 1.272 1.272 0 0 0-.36-.047 1.18 1.18 0 0 0-.343.047.69.69 0 0 0-.266.14.508.508 0 0 0-.172.22.619.619 0 0 0-.062.28c0 .294.156.477.469.548L1.28-1c.145.043.25.094.313.156.07.063.11.137.11.219 0 .074-.016.14-.048.203a.434.434 0 0 1-.11.125.53.53 0 0 1-.187.094 1.617 1.617 0 0 1-.25.016 1.09 1.09 0 0 1-.343-.047.405.405 0 0 1-.204-.157.504.504 0 0 1-.125-.359h-.28c0 .105.007.2.03.281a.5.5 0 0 0 .11.203A.82.82 0 0 0 .609 0c.133.05.297.078.485.078.133 0 .258-.015.375-.047a.732.732 0 0 0 .39-.25.914.914 0 0 0 .094-.156c.031-.07.05-.16.063-.266a.687.687 0 0 0-.141-.375.712.712 0 0 0-.375-.218l-.578-.157a1.166 1.166 0 0 1-.188-.062.343.343 0 0 1-.14-.094C.55-1.586.53-1.657.53-1.75a.39.39 0 0 1 .031-.156.428.428 0 0 1 .11-.125.297.297 0 0 1 .156-.078.872.872 0 0 1 .235-.032.67.67 0 0 1 .421.125.43.43 0 0 1 .157.344zm0 0"/></symbol><symbol overflow="visible" id="ac"><path d="M2.406 0L3-2.36h-.328L2.234-.437l-.53-1.921h-.329L.844-.438.406-2.359H.078L.672 0H1l.531-1.938L2.078 0zm0 0"/></symbol><symbol overflow="visible" id="ad"><path d="M2.453-.422H.641a.66.66 0 0 1 .046-.187.985.985 0 0 1 .11-.172.975.975 0 0 1 .187-.172c.082-.063.176-.117.282-.172l.484-.266c.238-.132.422-.285.547-.453.125-.176.187-.375.187-.593a.87.87 0 0 0-.093-.391.961.961 0 0 0-.235-.344 1 1 0 0 0-.344-.203 1.477 1.477 0 0 0-.437-.063c-.219 0-.414.04-.578.11A.897.897 0 0 0 .422-3a.81.81 0 0 0-.125.281 1.55 1.55 0 0 0-.047.235c0 .074-.008.152-.016.234h.438c0-.113.004-.207.015-.281a.514.514 0 0 1 .094-.203.523.523 0 0 1 .235-.235.792.792 0 0 1 .343-.11.983.983 0 0 1 .266.063.619.619 0 0 1 .219.141.5.5 0 0 1 .14.203c.04.074.063.156.063.25 0 .274-.156.496-.469.672l-.453.25c-.18.105-.328.21-.453.313a1.225 1.225 0 0 0-.281.312 1.413 1.413 0 0 0-.172.39A2.188 2.188 0 0 0 .172 0h2.281zm0 0"/></symbol><symbol overflow="visible" id="ar"><path d="M2.422-2.547a1.248 1.248 0 0 0-.125-.375.898.898 0 0 0-.203-.281 1.056 1.056 0 0 0-.297-.172 1.034 1.034 0 0 0-.36-.063 1.058 1.058 0 0 0-.921.485 1.7 1.7 0 0 0-.22.5c-.042.168-.07.32-.077.453a4.952 4.952 0 0 0-.016.422c0 .148.004.281.016.406.008.125.023.242.047.344.03.094.062.187.093.281.04.086.086.164.141.235A.89.89 0 0 0 .86 0c.144.07.312.11.5.11.163 0 .316-.032.452-.094.133-.051.254-.125.36-.22a1.02 1.02 0 0 0 .234-.374c.051-.145.082-.3.094-.469a1.585 1.585 0 0 0-.094-.437 1.036 1.036 0 0 0-.219-.344.973.973 0 0 0-.328-.234 1.112 1.112 0 0 0-.421-.079c-.344 0-.61.125-.797.375.007-.414.078-.734.203-.953a.64.64 0 0 1 .578-.344.49.49 0 0 1 .36.141c.1.086.175.211.218.375zm-1.031.781c.207 0 .351.055.437.157A.84.84 0 0 1 2-1.33c.031.095.05.2.063.313A1.427 1.427 0 0 1 2-.703a.721.721 0 0 1-.14.234.797.797 0 0 1-.22.156.76.76 0 0 1-.265.047.786.786 0 0 1-.281-.046.62.62 0 0 1-.219-.172.903.903 0 0 1-.156-.25.973.973 0 0 1 0-.594.588.588 0 0 1 .14-.234.721.721 0 0 1 .235-.141.68.68 0 0 1 .297-.063zm0 0"/></symbol><symbol overflow="visible" id="as"><path d="M2.313-3.438H.53l-.25 1.86h.39c.052-.05.099-.098.141-.14a.449.449 0 0 1 .141-.095.486.486 0 0 1 .156-.062c.063-.008.125-.016.188-.016a.81.81 0 0 1 .312.063.54.54 0 0 1 .235.156c.07.074.125.164.156.266.031.105.05.218.063.343A1.74 1.74 0 0 1 2-.719a.807.807 0 0 1-.203.297c-.094.106-.262.156-.5.156a.69.69 0 0 1-.453-.14C.727-.5.644-.645.594-.844H.172c.008.074.02.137.031.188l.063.172a.52.52 0 0 0 .109.187.888.888 0 0 0 .39.297c.165.07.348.11.547.11.176 0 .333-.032.47-.094a.984.984 0 0 0 .374-.235c.102-.113.18-.242.235-.39.062-.157.097-.329.109-.516a1.636 1.636 0 0 0-.094-.453.928.928 0 0 0-.234-.36.961.961 0 0 0-.344-.234 1.081 1.081 0 0 0-.453-.094 1.11 1.11 0 0 0-.328.047.945.945 0 0 0-.297.156l.125-.953h1.438zm0 0"/></symbol><symbol overflow="visible" id="at"><path d="M2.531-3.438H.22v.422h1.86c-.2.293-.376.563-.532.813-.149.242-.277.48-.39.719-.106.23-.2.464-.282.703-.074.242-.14.5-.203.781h.453c.05-.27.113-.535.188-.797a9.09 9.09 0 0 1 .28-.765c.114-.25.25-.5.407-.75.156-.258.332-.516.531-.766zm0 0"/></symbol><symbol overflow="visible" id="aw"><path d="M.266-.781c.039.281.144.5.312.656.164.156.383.234.656.234a.952.952 0 0 0 .454-.093 1.315 1.315 0 0 0 .469-.39 2.1 2.1 0 0 0 .234-.58c.05-.226.078-.5.078-.812 0-.132-.008-.265-.016-.39a3.002 3.002 0 0 0-.047-.328 1.485 1.485 0 0 0-.094-.282 4.958 4.958 0 0 0-.124-.25 1.147 1.147 0 0 0-.376-.312 1.147 1.147 0 0 0-.5-.11c-.167 0-.32.032-.453.094a1.06 1.06 0 0 0-.359.235.984.984 0 0 0-.234.375 1.205 1.205 0 0 0-.079.453c0 .156.024.304.079.437.05.137.125.258.218.36a.986.986 0 0 0 .329.218c.125.055.269.079.437.079a.93.93 0 0 0 .422-.094c.125-.063.242-.16.36-.297 0 .43-.071.758-.204.984-.137.219-.324.328-.562.328A.586.586 0 0 1 .875-.39a.72.72 0 0 1-.188-.39zm1.046-2.297c.094.012.18.039.266.078a.566.566 0 0 1 .219.156c.062.063.11.149.14.25.04.094.063.196.063.297A.68.68 0 0 1 1.937-2a.721.721 0 0 1-.14.234.619.619 0 0 1-.219.141.817.817 0 0 1-.281.047.672.672 0 0 1-.5-.188C.68-1.898.625-2.082.625-2.312c0-.114.016-.211.047-.297a.588.588 0 0 1 .14-.235.539.539 0 0 1 .22-.156.876.876 0 0 1 .28-.078zm0 0"/></symbol><symbol overflow="visible" id="ax"><path d="M1.25-2.453V0h.438v-3.438h-.282a2.98 2.98 0 0 1-.125.313.453.453 0 0 1-.14.203.939.939 0 0 1-.25.11 2.362 2.362 0 0 1-.391.046v.313zm0 0"/></symbol><symbol overflow="visible" id="ay"><path d="M1.328-3.438c-.156 0-.308.032-.453.094a.765.765 0 0 0-.328.281 1.57 1.57 0 0 0-.266.579c-.054.23-.078.5-.078.812 0 .586.094 1.027.281 1.328.196.305.477.453.844.453.363 0 .64-.144.828-.437.196-.3.301-.738.313-1.313a4.776 4.776 0 0 0-.094-.843 1.63 1.63 0 0 0-.25-.579.913.913 0 0 0-.344-.28 1.081 1.081 0 0 0-.453-.095zm0 .376c.469 0 .703.464.703 1.39 0 .492-.058.856-.172 1.094-.117.23-.293.344-.53.344C.866-.242.64-.72.64-1.656c0-.477.054-.832.171-1.063.114-.226.286-.344.516-.344zm0 0"/></symbol><symbol overflow="visible" id="az"><path d="M1.906-1.813a1.04 1.04 0 0 0 .203-.156.573.573 0 0 0 .141-.156.65.65 0 0 0 .094-.172.872.872 0 0 0-.047-.594.96.96 0 0 0-.219-.296.972.972 0 0 0-.328-.188 1.408 1.408 0 0 0-.422-.063c-.148 0-.289.024-.422.063a.972.972 0 0 0-.328.188.979.979 0 0 0-.203.296.829.829 0 0 0-.078.36c0 .086.004.156.016.219.019.062.046.124.078.187a.821.821 0 0 0 .156.156c.062.055.133.106.219.157-.399.187-.59.476-.579.859 0 .156.024.305.079.437.05.125.129.235.234.329.102.093.223.167.36.218.144.051.3.078.468.078.176 0 .332-.027.469-.078.144-.05.27-.125.375-.218a.973.973 0 0 0 .234-.329c.051-.132.082-.28.094-.437 0-.383-.2-.672-.594-.86zm-.578-1.25c.188 0 .332.055.438.157.101.094.16.226.171.39a.56.56 0 0 1-.171.391c-.106.094-.25.14-.438.14a.661.661 0 0 1-.437-.14.492.492 0 0 1-.157-.39c0-.165.051-.297.157-.391a.63.63 0 0 1 .437-.156zm0 1.438c.113 0 .211.023.297.063a.619.619 0 0 1 .219.14.47.47 0 0 1 .156.203c.031.086.05.172.063.266-.012.105-.032.2-.063.281a.73.73 0 0 1-.203.266c-.094.094-.25.14-.469.14a.927.927 0 0 1-.297-.046.586.586 0 0 1-.218-.141.743.743 0 0 1-.157-.219.786.786 0 0 1-.047-.281.76.76 0 0 1 .047-.266.627.627 0 0 1 .156-.203.586.586 0 0 1 .22-.14.763.763 0 0 1 .296-.063zm0 0"/></symbol><symbol overflow="visible" id="ae"><path d="M-1.578-1.078v-.234c0-.47.21-.704.625-.704.219 0 .39.063.515.188.118.125.172.297.172.516 0 .242-.054.417-.171.53-.126.118-.313.184-.563.204v.422c.137-.008.258-.024.36-.047a.604.604 0 0 0 .25-.11.794.794 0 0 0 .374-.374 1.36 1.36 0 0 0 .125-.61 1.34 1.34 0 0 0-.078-.469.921.921 0 0 0-.203-.375.928.928 0 0 0-.344-.234 1.266 1.266 0 0 0-.453-.078.891.891 0 0 0-.515.14c-.133.086-.235.231-.297.438-.125-.32-.364-.484-.719-.484a.968.968 0 0 0-.39.078.763.763 0 0 0-.297.203.973.973 0 0 0-.188.344c-.04.125-.063.265-.063.421 0 .356.094.625.282.813.187.18.465.266.828.266v-.422c-.102 0-.188-.004-.25-.016a.56.56 0 0 1-.406-.281.992.992 0 0 1-.094-.36.667.667 0 0 1 .172-.437.55.55 0 0 1 .422-.172.5.5 0 0 1 .296.078c.075.043.133.11.172.203a.73.73 0 0 1 .032.11.64.64 0 0 1 .03.14c.013.063.016.168.016.313zm0 0"/></symbol><symbol overflow="visible" id="af"><path d="M-2.453-1.25H0v-.438h-3.438v.282c.126.043.231.086.313.125a.453.453 0 0 1 .203.14.939.939 0 0 1 .11.25c.023.106.039.235.046.391h.313zm0 0"/></symbol><symbol overflow="visible" id="aA"><path d="M-1.078-2.14v.828h-.828v.28h.828v.829h.281v-.828h.844v-.282h-.844v-.828zm0 0"/></symbol></defs><use xlink:href="#a" x="261.055" y="306.386" fill="gray"/><use xlink:href="#b" x="262.495" y="306.386" fill="gray"/><use xlink:href="#c" x="263.335" y="306.386" fill="gray"/><use xlink:href="#d" x="264.775" y="306.386" fill="gray"/><use xlink:href="#e" x="266.215" y="306.386" fill="gray"/><use xlink:href="#f" x="267.655" y="306.386" fill="gray"/><use xlink:href="#g" x="298.298" y="306.386" fill="gray"/><use xlink:href="#h" x="299.738" y="306.386" fill="gray"/><use xlink:href="#c" x="300.457" y="306.386" fill="gray"/><use xlink:href="#a" x="301.898" y="306.386" fill="gray"/><use xlink:href="#i" x="303.338" y="306.386" fill="gray"/><use xlink:href="#j" x="304.778" y="306.386" fill="gray"/><use xlink:href="#k" x="267.953" y="341.948" fill="gray"/><use xlink:href="#l" x="270.173" y="341.948" fill="gray"/><use xlink:href="#k" x="298.957" y="341.948" fill="gray"/><use xlink:href="#m" x="301.177" y="341.948" fill="gray"/><use xlink:href="#n" x="303.397" y="341.948" fill="gray"/><use xlink:href="#o" x="305.617" y="341.948" fill="gray"/><use xlink:href="#p" x="287.926" y="370.731" fill="gray"/><use xlink:href="#q" x="292.306" y="370.731" fill="gray"/><use xlink:href="#r" x="296.386" y="370.731" fill="gray"/><use xlink:href="#s" x="321.028" y="286.957" fill="gray"/><use xlink:href="#t" x="325.407" y="286.957" fill="gray"/><use xlink:href="#u" x="329.187" y="286.957" fill="gray"/><use xlink:href="#v" x="332.307" y="286.957" fill="gray"/><use xlink:href="#k" x="263.273" y="261.35" fill="gray"/><use xlink:href="#w" x="265.493" y="261.35" fill="gray"/><use xlink:href="#x" x="266.633" y="261.35" fill="gray"/><use xlink:href="#y" x="268.853" y="261.35" fill="gray"/><use xlink:href="#o" x="271.073" y="261.35" fill="gray"/><use xlink:href="#z" x="331.281" y="304.527" fill="gray"/><use xlink:href="#z" x="333.501" y="304.527" fill="gray"/><use xlink:href="#m" x="335.721" y="304.527" fill="gray"/><use xlink:href="#y" x="337.941" y="304.527" fill="gray"/><use xlink:href="#o" x="340.161" y="304.527" fill="gray"/><use xlink:href="#p" x="339.742" y="330.433" fill="gray"/><use xlink:href="#q" x="344.122" y="330.433" fill="gray"/><use xlink:href="#r" x="348.202" y="330.433" fill="gray"/><use xlink:href="#k" x="404.448" y="295.89" fill="gray"/><use xlink:href="#m" x="406.668" y="295.89" fill="gray"/><use xlink:href="#m" x="408.888" y="295.89" fill="gray"/><use xlink:href="#A" x="411.108" y="295.89" fill="gray"/><use xlink:href="#z" x="409.846" y="341.948" fill="gray"/><use xlink:href="#w" x="412.066" y="341.948" fill="gray"/><use xlink:href="#z" x="413.206" y="341.948" fill="gray"/><use xlink:href="#A" x="415.426" y="341.948" fill="gray"/><use xlink:href="#z" x="438.633" y="341.948" fill="gray"/><use xlink:href="#w" x="440.853" y="341.948" fill="gray"/><use xlink:href="#z" x="441.993" y="341.948" fill="gray"/><use xlink:href="#A" x="444.213" y="341.948" fill="gray"/><use xlink:href="#B" x="466.101" y="327.256" fill="gray"/><use xlink:href="#C" x="469.221" y="327.256" fill="gray"/><use xlink:href="#C" x="472.341" y="327.256" fill="gray"/><use xlink:href="#D" x="475.461" y="327.256" fill="gray"/><use xlink:href="#B" x="507.782" y="292.714" fill="gray"/><use xlink:href="#C" x="510.902" y="292.714" fill="gray"/><use xlink:href="#C" x="514.022" y="292.714" fill="gray"/><use xlink:href="#k" x="407.687" y="367.854" fill="gray"/><use xlink:href="#E" x="409.907" y="367.854" fill="gray"/><use xlink:href="#o" x="412.127" y="367.854" fill="gray"/><use xlink:href="#k" x="436.474" y="367.854" fill="gray"/><use xlink:href="#E" x="438.694" y="367.854" fill="gray"/><use xlink:href="#o" x="440.914" y="367.854" fill="gray"/><use xlink:href="#k" x="403.247" y="246.957" fill="gray"/><use xlink:href="#m" x="405.467" y="246.957" fill="gray"/><use xlink:href="#m" x="407.687" y="246.957" fill="gray"/><use xlink:href="#E" x="409.907" y="246.957" fill="gray"/><use xlink:href="#o" x="412.127" y="246.957" fill="gray"/><use xlink:href="#p" x="414.587" y="388.002" fill="gray"/><use xlink:href="#q" x="418.967" y="388.002" fill="gray"/><use xlink:href="#r" x="423.047" y="388.002" fill="gray"/><use xlink:href="#p" x="443.374" y="388.002" fill="gray"/><use xlink:href="#q" x="447.754" y="388.002" fill="gray"/><use xlink:href="#r" x="451.833" y="388.002" fill="gray"/><use xlink:href="#p" x="391.558" y="336.189" fill="gray"/><use xlink:href="#q" x="395.938" y="336.189" fill="gray"/><use xlink:href="#r" x="400.018" y="336.189" fill="gray"/><use xlink:href="#k" x="337.04" y="258.471" fill="gray"/><use xlink:href="#l" x="339.26" y="258.471" fill="gray"/><use xlink:href="#p" x="414.587" y="267.105" fill="gray"/><use xlink:href="#q" x="418.967" y="267.105" fill="gray"/><use xlink:href="#r" x="423.047" y="267.105" fill="gray"/><use xlink:href="#B" x="530.449" y="295.592" fill="gray"/><use xlink:href="#C" x="533.569" y="295.592" fill="gray"/><use xlink:href="#C" x="536.689" y="295.592" fill="gray"/><use xlink:href="#F" x="539.809" y="295.592" fill="gray"/><use xlink:href="#G" x="542.929" y="295.592" fill="gray"/><use xlink:href="#p" x="547.005" y="324.675" fill="gray"/><use xlink:href="#q" x="551.385" y="324.675" fill="gray"/><use xlink:href="#r" x="555.465" y="324.675" fill="gray"/><use xlink:href="#p" x="437.616" y="267.105" fill="gray"/><use xlink:href="#q" x="441.996" y="267.105" fill="gray"/><use xlink:href="#r" x="446.076" y="267.105" fill="gray"/><use xlink:href="#H" x="380.043" y="305.667" fill="gray"/><use xlink:href="#I" x="383.163" y="305.667" fill="gray"/><use xlink:href="#J" x="387.843" y="305.667" fill="gray"/><use xlink:href="#K" x="390.963" y="305.667" fill="gray"/><use xlink:href="#L" x="394.083" y="305.667" fill="gray"/><use xlink:href="#H" x="454.888" y="305.667" fill="gray"/><use xlink:href="#I" x="458.008" y="305.667" fill="gray"/><use xlink:href="#J" x="462.688" y="305.667" fill="gray"/><use xlink:href="#K" x="465.808" y="305.667" fill="gray"/><use xlink:href="#L" x="468.928" y="305.667" fill="gray"/><use xlink:href="#M" x="265.075" y="293.012" fill="gray"/><use xlink:href="#N" x="267.415" y="293.012" fill="gray"/><use xlink:href="#O" x="303.037" y="293.012" fill="gray"/><use xlink:href="#N" x="304.837" y="293.012" fill="gray"/><use xlink:href="#P" x="268.433" y="333.311" fill="gray"/><use xlink:href="#k" x="271.313" y="333.311" fill="gray"/><use xlink:href="#Q" x="302.977" y="333.311" fill="gray"/><use xlink:href="#R" x="305.857" y="333.311" fill="gray"/><use xlink:href="#r" x="324.627" y="274.301" fill="gray"/><use xlink:href="#B" x="328.707" y="274.301" fill="gray"/><use xlink:href="#Q" x="268.433" y="252.713" fill="gray"/><use xlink:href="#z" x="271.313" y="252.713" fill="gray"/><use xlink:href="#S" x="273.171" y="225.655" fill="gray"/><use xlink:href="#T" x="275.331" y="225.655" fill="gray"/><use xlink:href="#U" x="277.671" y="225.655" fill="gray"/><use xlink:href="#Q" x="337.52" y="295.89" fill="gray"/><use xlink:href="#V" x="340.4" y="295.89" fill="gray"/><use xlink:href="#P" x="408.048" y="310.284" fill="gray"/><use xlink:href="#R" x="410.928" y="310.284" fill="gray"/><use xlink:href="#P" x="412.366" y="333.311" fill="gray"/><use xlink:href="#z" x="415.246" y="333.311" fill="gray"/><use xlink:href="#P" x="441.152" y="333.311" fill="gray"/><use xlink:href="#V" x="444.032" y="333.311" fill="gray"/><use xlink:href="#W" x="468.561" y="314.601" fill="gray"/><use xlink:href="#X" x="472.64" y="314.601" fill="gray"/><use xlink:href="#W" x="508.862" y="280.058" fill="gray"/><use xlink:href="#Y" x="512.942" y="280.058" fill="gray"/><use xlink:href="#Q" x="409.487" y="359.217" fill="gray"/><use xlink:href="#x" x="412.367" y="359.217" fill="gray"/><use xlink:href="#Q" x="438.274" y="359.217" fill="gray"/><use xlink:href="#Z" x="441.154" y="359.217" fill="gray"/><use xlink:href="#Q" x="409.487" y="238.32" fill="gray"/><use xlink:href="#aa" x="412.367" y="238.32" fill="gray"/><use xlink:href="#ab" x="434.136" y="210.687" fill="gray"/><use xlink:href="#ac" x="436.297" y="210.687" fill="gray"/><use xlink:href="#N" x="439.356" y="210.687" fill="gray"/><use xlink:href="#ad" x="428.353" y="226" fill="gray"/><use xlink:href="#ae" x="442.568" y="236.069" fill="gray"/><use xlink:href="#af" x="442.568" y="220.243" fill="gray"/><use xlink:href="#P" x="337.521" y="249.834" fill="gray"/><use xlink:href="#aa" x="340.401" y="249.834" fill="gray"/><use xlink:href="#ag" x="534.483" y="277.525" fill="gray"/><use xlink:href="#ah" x="538.563" y="277.525" fill="gray"/><use xlink:href="#ai" x="572.915" y="285.816" fill="gray"/><use xlink:href="#aj" x="575.615" y="285.816" fill="gray"/><use xlink:href="#ak" x="578.315" y="285.816" fill="gray"/><use xlink:href="#ai" x="572.915" y="303.087" fill="gray"/><use xlink:href="#aj" x="575.615" y="303.087" fill="gray"/><use xlink:href="#al" x="578.315" y="303.087" fill="gray"/><use xlink:href="#ak" x="475.04" y="239.76" fill="gray"/><use xlink:href="#am" x="477.38" y="239.76" fill="gray"/><use xlink:href="#an" x="479.6" y="239.76" fill="gray"/><use xlink:href="#ao" x="475.04" y="251.274" fill="gray"/><use xlink:href="#ap" x="478.16" y="251.274" fill="gray"/><use xlink:href="#aq" x="481.04" y="251.274" fill="gray"/><use xlink:href="#ar" x="382.296" y="289.327" fill="gray"/><use xlink:href="#as" x="382.296" y="277.813" fill="gray"/><use xlink:href="#at" x="409.637" y="283.57" fill="gray"/><use xlink:href="#au" x="380.044" y="265.666" fill="gray"/><use xlink:href="#ag" x="381.604" y="265.666" fill="gray"/><use xlink:href="#K" x="385.684" y="265.666" fill="gray"/><use xlink:href="#av" x="388.804" y="265.666" fill="gray"/><use xlink:href="#aw" x="457.141" y="289.327" fill="gray"/><use xlink:href="#ax" x="454.441" y="277.813" fill="gray"/><use xlink:href="#ay" x="457.141" y="277.813" fill="gray"/><use xlink:href="#az" x="484.482" y="283.57" fill="gray"/><use xlink:href="#au" x="454.889" y="265.666" fill="gray"/><use xlink:href="#ag" x="456.449" y="265.666" fill="gray"/><use xlink:href="#K" x="460.529" y="265.666" fill="gray"/><use xlink:href="#ag" x="463.649" y="265.666" fill="gray"/><path d="M276.422 304.5v-4.02m0-7.44v4.019" fill="none" stroke-width=".36" stroke-linecap="round" stroke-linejoin="round" stroke="maroon" stroke-miterlimit="10"/><path d="M279.84 302.82l-8.578-8.64m-1.742 1.742l1.742-1.742m0 0l1.68-1.739" fill="none" stroke-width=".72" stroke-linecap="round" stroke-linejoin="round" stroke="maroon" stroke-miterlimit="10"/><path d="M269.52 303.36v-5.16m0 0l-.598 1.741m.598-1.741l.539 1.741" fill="none" stroke-width=".36" stroke-linecap="round" stroke-linejoin="round" stroke="maroon" stroke-miterlimit="10"/><path d="M271.8 300.54h9.24v-1.2h-9.24zm0-2.34h9.24V297h-9.24zm0 0" fill="maroon" stroke-width=".12" stroke-linecap="round" stroke-linejoin="round" stroke="maroon" stroke-miterlimit="10"/><path d="M308.102 304.5l.058.781.3.66.481.598.598.48.66.301.781.059m0-5.758l-.78.117-.66.301-.599.48-.48.54-.3.722-.06.719m.001-5.762l.058.782.3.66.481.601.598.48.66.298.781.062m0-5.699l-.78.058-.66.301-.599.48-.48.54-.3.719-.06.718m.001-5.698l.058.722.3.718.481.54.598.48.66.3.781.122m0-5.762l-.78.059-.66.3-.599.481-.48.602-.3.66-.06.777m2.879-5.758v2.88m0 20.101v-2.883" fill="none" stroke-width=".6" stroke-linecap="round" stroke-linejoin="round" stroke="maroon" stroke-miterlimit="10"/><path d="M276.422 324.66v5.762m0 17.278v-5.759" fill="none" stroke-width=".36" stroke-linecap="round" stroke-linejoin="round" stroke="maroon" stroke-miterlimit="10"/><path d="M278.398 341.941v-11.52m-4.019.001v11.52m4.019-11.52h-4.02m4.02 11.519h-4.02" fill="none" stroke-width=".6" stroke-linecap="round" stroke-linejoin="round" stroke="maroon" stroke-miterlimit="10"/><path d="M310.98 341.941v-4.02m0-7.499v4.02" fill="none" stroke-width=".36" stroke-linecap="round" stroke-linejoin="round" stroke="maroon" stroke-miterlimit="10"/><path d="M306.96 337.922H315v-1.203h-8.04zm0-2.282H315v-1.199h-8.04zm0 0" fill="maroon" stroke-width=".12" stroke-linecap="round" stroke-linejoin="round" stroke="maroon" stroke-miterlimit="10"/><path d="M289.379 364.98h8.64" fill="none" stroke-width=".6" stroke-linecap="round" stroke-linejoin="round" stroke="maroon" stroke-miterlimit="10"/><path d="M293.7 359.219v5.761m40.26-86.34h-5.76m-5.7 0h5.7" fill="none" stroke-width=".36" stroke-linecap="round" stroke-linejoin="round" stroke="maroon" stroke-miterlimit="10"/><path d="M331.078 281.52l-5.758-2.88m0 0l5.758-2.878m-5.758 0v2.879m5.758-2.879v5.758m-5.758-2.88v2.88" fill="none" stroke-width=".6" stroke-linecap="round" stroke-linejoin="round" stroke="maroon" stroke-miterlimit="10"/><path d="M276.422 261.36v-4.02m0-7.5v4.02" fill="none" stroke-width=".36" stroke-linecap="round" stroke-linejoin="round" stroke="maroon" stroke-miterlimit="10"/><path d="M272.398 257.34h8.043v-1.2h-8.043zm0-2.281h8.043v-1.2h-8.043zm0 0" fill="maroon" stroke-width=".12" stroke-linecap="round" stroke-linejoin="round" stroke="maroon" stroke-miterlimit="10"/><path d="M270.66 226.8h5.762m5.758 0l-5.758 5.759m0 0l-5.762-5.758m5.762-.001v5.759m0-5.759h5.758" fill="none" stroke-width=".6" stroke-linecap="round" stroke-linejoin="round" stroke="maroon" stroke-miterlimit="10"/><path d="M276.422 238.32v-5.761M345.48 304.5v-4.02m0-7.44v4.019" fill="none" stroke-width=".36" stroke-linecap="round" stroke-linejoin="round" stroke="maroon" stroke-miterlimit="10"/><path d="M341.46 300.54h8.04v-1.2h-8.04zm0-2.34h8.04V297h-8.04zm0 0" fill="maroon" stroke-width=".12" stroke-linecap="round" stroke-linejoin="round" stroke="maroon" stroke-miterlimit="10"/><path d="M341.16 324.66h8.64" fill="none" stroke-width=".6" stroke-linecap="round" stroke-linejoin="round" stroke="maroon" stroke-miterlimit="10"/><path d="M345.48 318.898v5.762" fill="none" stroke-width=".36" stroke-linecap="round" stroke-linejoin="round" stroke="maroon" stroke-miterlimit="10"/><path d="M418.621 307.379v-11.457m3.481 0v11.457" fill="none" stroke-width=".6" stroke-linecap="round" stroke-linejoin="round" stroke="maroon" stroke-miterlimit="10"/><path d="M426.121 301.621h-2.043m0 0l-7.976 4.02" fill="none" stroke-width=".36" stroke-linecap="round" stroke-linejoin="round" stroke="maroon" stroke-miterlimit="10"/><path d="M422.102 307.379h-3.48m-.001-11.457h3.48" fill="none" stroke-width=".6" stroke-linecap="round" stroke-linejoin="round" stroke="maroon" stroke-miterlimit="10"/><path d="M414.602 295.922v4.558m0 0l-1.141-2.28m1.141 2.28l1.136-2.28m-.297 6.359l1.02 2.16m3.899-16.559v5.762m0 17.218v-5.761m0 17.281v5.762m0 17.278v-5.759" fill="none" stroke-width=".36" stroke-linecap="round" stroke-linejoin="round" stroke="maroon" stroke-miterlimit="10"/><path d="M422.34 341.941v-11.52m-4.02.001v11.52m4.02-11.52h-4.02m4.02 11.519h-4.02" fill="none" stroke-width=".6" stroke-linecap="round" stroke-linejoin="round" stroke="maroon" stroke-miterlimit="10"/><path d="M449.16 324.66v5.762m0 17.278v-5.759" fill="none" stroke-width=".36" stroke-linecap="round" stroke-linejoin="round" stroke="maroon" stroke-miterlimit="10"/><path d="M451.14 341.941v-11.52m-4.019.001v11.52m4.019-11.52h-4.019m4.019 11.519h-4.019" fill="none" stroke-width=".6" stroke-linecap="round" stroke-linejoin="round" stroke="maroon" stroke-miterlimit="10"/><path d="M460.621 318.898h5.758m17.281 0h-5.762" fill="none" stroke-width=".36" stroke-linecap="round" stroke-linejoin="round" stroke="maroon" stroke-miterlimit="10"/><path d="M477.898 316.922h-11.52m.001 4.019h11.52m-11.52-4.019v4.02m11.519-4.02v4.02" fill="none" stroke-width=".6" stroke-linecap="round" stroke-linejoin="round" stroke="maroon" stroke-miterlimit="10"/><path d="M500.941 284.398h5.758m17.281 0h-5.761" fill="none" stroke-width=".36" stroke-linecap="round" stroke-linejoin="round" stroke="maroon" stroke-miterlimit="10"/><path d="M518.219 282.36h-11.52m.001 4.019h11.519M506.7 282.36v4.019m11.519-4.019v4.019" fill="none" stroke-width=".6" stroke-linecap="round" stroke-linejoin="round" stroke="maroon" stroke-miterlimit="10"/><use xlink:href="#aA" x="418.186" y="359.217" fill="maroon"/><path d="M420.36 367.86v-4.02m0-7.5v3.719" fill="none" stroke-width=".36" stroke-linecap="round" stroke-linejoin="round" stroke="maroon" stroke-miterlimit="10"/><path d="M415.738 364.14h9.242v-1.44h-9.242zm0 0" fill="maroon" stroke-width=".12" stroke-linecap="round" stroke-linejoin="round" stroke="maroon" stroke-miterlimit="10"/><path d="M415.86 360.059v1.441m0 0h8.94m0 0v-1.441m0 0h-4.44m0 0h-4.5" fill="none" stroke-width=".3" stroke-linecap="round" stroke-linejoin="round" stroke="maroon" stroke-miterlimit="10"/><use xlink:href="#aA" x="446.973" y="359.217" fill="maroon"/><path d="M449.16 367.86v-4.02m0-7.5v3.719" fill="none" stroke-width=".36" stroke-linecap="round" stroke-linejoin="round" stroke="maroon" stroke-miterlimit="10"/><path d="M444.54 364.14h9.241v-1.44h-9.242zm0 0" fill="maroon" stroke-width=".12" stroke-linecap="round" stroke-linejoin="round" stroke="maroon" stroke-miterlimit="10"/><path d="M444.66 360.059v1.441m0 0h8.942m0 0v-1.441m0 0h-4.442m0 0h-4.5" fill="none" stroke-width=".3" stroke-linecap="round" stroke-linejoin="round" stroke="maroon" stroke-miterlimit="10"/><use xlink:href="#aA" x="418.186" y="238.32" fill="maroon"/><path d="M420.36 246.96v-4.019m0-7.5v3.72" fill="none" stroke-width=".36" stroke-linecap="round" stroke-linejoin="round" stroke="maroon" stroke-miterlimit="10"/><path d="M415.738 243.238h9.242v-1.437h-9.242zm0 0" fill="maroon" stroke-width=".12" stroke-linecap="round" stroke-linejoin="round" stroke="maroon" stroke-miterlimit="10"/><path d="M415.86 239.16v1.442m0 0h8.94m0 0v-1.442m0 0h-4.44m0 0h-4.5" fill="none" stroke-width=".3" stroke-linecap="round" stroke-linejoin="round" stroke="maroon" stroke-miterlimit="10"/><path d="M441.36 211.86h-3.72" fill="none" stroke-width=".6" stroke-linecap="round" stroke-linejoin="round" stroke="maroon" stroke-miterlimit="10"/><path d="M437.64 211.86v4.32" fill="none" stroke-width=".36" stroke-linecap="round" stroke-linejoin="round" stroke="maroon" stroke-miterlimit="10"/><path d="M437.64 211.86h-3.78" fill="none" stroke-width=".6" stroke-linecap="round" stroke-linejoin="round" stroke="maroon" stroke-miterlimit="10"/><path d="M437.64 217.621v1.14" fill="none" stroke-width=".36" stroke-linecap="round" stroke-linejoin="round" stroke="maroon" stroke-miterlimit="10"/><path d="M431.578 226.8h2.281m.001 0l7.5-3.722m.3 6.602h1.442m-1.442-5.758h1.442" fill="none" stroke-width=".6" stroke-linecap="round" stroke-linejoin="round" stroke="maroon" stroke-miterlimit="10"/><path d="M437.64 218.762l-1.742 1.136m0 0l1.743 1.141m-11.52 5.761h5.758m11.519 11.52v-5.761m0-17.278v5.758m-5.758 2.34v1.441" fill="none" stroke-width=".36" stroke-linecap="round" stroke-linejoin="round" stroke="maroon" stroke-miterlimit="10"/><path d="M443.398 221.04v2.882m0 5.758v2.879M416.04 382.262h8.64" fill="none" stroke-width=".6" stroke-linecap="round" stroke-linejoin="round" stroke="maroon" stroke-miterlimit="10"/><path d="M420.36 376.5v5.762" fill="none" stroke-width=".36" stroke-linecap="round" stroke-linejoin="round" stroke="maroon" stroke-miterlimit="10"/><path d="M444.84 382.262h8.582" fill="none" stroke-width=".6" stroke-linecap="round" stroke-linejoin="round" stroke="maroon" stroke-miterlimit="10"/><path d="M449.16 376.5v5.762" fill="none" stroke-width=".36" stroke-linecap="round" stroke-linejoin="round" stroke="maroon" stroke-miterlimit="10"/><path d="M393 330.422h8.64" fill="none" stroke-width=".6" stroke-linecap="round" stroke-linejoin="round" stroke="maroon" stroke-miterlimit="10"/><path d="M397.32 324.66v5.762M345.48 241.2v5.76m0 17.278v-5.758" fill="none" stroke-width=".36" stroke-linecap="round" stroke-linejoin="round" stroke="maroon" stroke-miterlimit="10"/><path d="M347.52 258.48v-11.52m-4.02 0v11.52m4.02-11.52h-4.02m4.02 11.52h-4.02m72.54 2.88h8.64" fill="none" stroke-width=".6" stroke-linecap="round" stroke-linejoin="round" stroke="maroon" stroke-miterlimit="10"/><path d="M420.36 255.602v5.757" fill="none" stroke-width=".36" stroke-linecap="round" stroke-linejoin="round" stroke="maroon" stroke-miterlimit="10"/><use xlink:href="#ak" x="533.152" y="289.415" fill="maroon"/><path d="M544.14 284.398h-4.019m-7.5 0h3.719" fill="none" stroke-width=".36" stroke-linecap="round" stroke-linejoin="round" stroke="maroon" stroke-miterlimit="10"/><path d="M538.922 289.02h1.437v-9.239h-1.437zm0 0" fill="maroon" stroke-width=".12" stroke-linecap="round" stroke-linejoin="round" stroke="maroon" stroke-miterlimit="10"/><path d="M536.34 288.84h1.441m0 0v-8.942m0 0h-1.441m0 0v4.5m0 0v4.442" fill="none" stroke-width=".3" stroke-linecap="round" stroke-linejoin="round" stroke="maroon" stroke-miterlimit="10"/><path d="M558.54 284.398h5.76m5.759 0a2.88 2.88 0 1 1-2.88-2.878 2.88 2.88 0 0 1 2.88 2.878zm-11.519 17.223h5.76m5.759 0a2.88 2.88 0 0 1-5.758 0 2.88 2.88 0 1 1 5.758 0zm-21.599 17.277h8.642" fill="none" stroke-width=".6" stroke-linecap="round" stroke-linejoin="round" stroke="maroon" stroke-miterlimit="10"/><path d="M552.781 313.14v5.758" fill="none" stroke-width=".36" stroke-linecap="round" stroke-linejoin="round" stroke="maroon" stroke-miterlimit="10"/><path d="M460.621 238.32h5.758m5.761 0a2.88 2.88 0 0 1-2.878 2.88 2.882 2.882 0 0 1-2.883-2.88 2.882 2.882 0 0 1 2.883-2.879 2.88 2.88 0 0 1 2.879 2.88zm-33.062 23.04h8.64" fill="none" stroke-width=".6" stroke-linecap="round" stroke-linejoin="round" stroke="maroon" stroke-miterlimit="10"/><path d="M443.398 255.602v5.757" fill="none" stroke-width=".36" stroke-linecap="round" stroke-linejoin="round" stroke="maroon" stroke-miterlimit="10"/><path d="M460.621 249.84h5.758m5.761 0a2.88 2.88 0 0 1-2.878 2.879 2.882 2.882 0 0 1-2.883-2.88 2.882 2.882 0 0 1 2.883-2.878 2.88 2.88 0 0 1 2.879 2.879zm0 0" fill="none" stroke-width=".6" stroke-linecap="round" stroke-linejoin="round" stroke="maroon" stroke-miterlimit="10"/><path d="M385.8 272.879v23.043m0 0l23.04-11.524m0 0l-23.04-11.52" fill="none" stroke-width=".96" stroke-linecap="round" stroke-linejoin="round" stroke="maroon" stroke-miterlimit="10"/><path d="M388.68 277.2v2.878m-1.442-1.438h2.883m-2.883 11.52h2.883m-10.081 0h5.76m-5.76-11.52h5.76m28.802 5.758h-5.762" fill="none" stroke-width=".36" stroke-linecap="round" stroke-linejoin="round" stroke="maroon" stroke-miterlimit="10"/><path d="M460.621 272.879v23.043m0 0l23.04-11.524m-.001 0l-23.039-11.52" fill="none" stroke-width=".96" stroke-linecap="round" stroke-linejoin="round" stroke="maroon" stroke-miterlimit="10"/><path d="M463.5 277.2v2.878m-1.441-1.438h2.882m-2.882 11.52h2.882m-10.081 0h5.761m-5.761-11.52h5.761m28.801 5.758h-5.762m-86.34-11.519v5.762m0 17.281v-5.762m-4.558-14.398h2.457m-1.259-1.262v2.46m-1.198 16.02h2.457" fill="none" stroke-width=".36" stroke-linecap="round" stroke-linejoin="round" stroke="maroon" stroke-miterlimit="10"/><path d="M310.98 318.898h-34.558m0 0v5.762m0-20.16v14.398" fill="none" stroke-width=".36" stroke-linecap="round" stroke-linejoin="round" stroke="green" stroke-miterlimit="10"/><path d="M277.559 318.898c0 .633-.508 1.141-1.137 1.141-.633 0-1.14-.508-1.14-1.14 0-.63.507-1.137 1.14-1.137.629 0 1.137.508 1.137 1.136" fill-rule="evenodd" fill="green"/><path d="M277.559 318.898c0 .633-.508 1.141-1.137 1.141-.633 0-1.14-.508-1.14-1.14 0-.63.507-1.137 1.14-1.137.629 0 1.137.508 1.137 1.136zm0 0" fill="none" stroke-width=".12" stroke-linecap="round" stroke-linejoin="round" stroke="green" stroke-miterlimit="10"/><path d="M310.98 310.262v8.636m0 0v11.524" fill="none" stroke-width=".36" stroke-linecap="round" stroke-linejoin="round" stroke="green" stroke-miterlimit="10"/><path d="M312.121 318.898a1.14 1.14 0 1 1-2.279.003 1.14 1.14 0 0 1 2.28-.003" fill-rule="evenodd" fill="green"/><path d="M312.121 318.898a1.14 1.14 0 1 1-2.279.003 1.14 1.14 0 0 1 2.28-.003zm0 0" fill="none" stroke-width=".12" stroke-linecap="round" stroke-linejoin="round" stroke="green" stroke-miterlimit="10"/><path d="M276.422 347.7v5.76m0 0h17.277m.001 0h17.28m-17.28 5.759v-5.758" fill="none" stroke-width=".36" stroke-linecap="round" stroke-linejoin="round" stroke="green" stroke-miterlimit="10"/><path d="M294.84 353.46c0 .63-.512 1.142-1.14 1.142-.63 0-1.141-.512-1.141-1.141a1.14 1.14 0 1 1 2.28 0" fill-rule="evenodd" fill="green"/><path d="M294.84 353.46c0 .63-.512 1.142-1.14 1.142-.63 0-1.141-.512-1.141-1.141a1.14 1.14 0 1 1 2.28 0zm0 0" fill="none" stroke-width=".12" stroke-linecap="round" stroke-linejoin="round" stroke="green" stroke-miterlimit="10"/><path d="M310.98 341.941v11.52m86.34-28.801v-28.738m23.04-40.32v-8.641m0 129.539v-8.64m28.8 0v8.64m103.621-63.36v-11.519m0 0h5.758m-97.918-51.781h-17.223m0 0v5.762m-97.918 63.296V304.5m-69.058-25.86v-17.28m0 17.28h34.558m0 0h11.52m-46.078 14.4v-14.4" fill="none" stroke-width=".36" stroke-linecap="round" stroke-linejoin="round" stroke="green" stroke-miterlimit="10"/><path d="M277.559 278.64a1.139 1.139 0 1 1-2.278 0 1.14 1.14 0 1 1 2.278 0" fill-rule="evenodd" fill="green"/><path d="M277.559 278.64a1.139 1.139 0 1 1-2.278 0 1.14 1.14 0 1 1 2.278 0zm0 0" fill="none" stroke-width=".12" stroke-linecap="round" stroke-linejoin="round" stroke="green" stroke-miterlimit="10"/><path d="M310.98 287.281v-8.64" fill="none" stroke-width=".36" stroke-linecap="round" stroke-linejoin="round" stroke="green" stroke-miterlimit="10"/><path d="M312.121 278.64a1.142 1.142 0 0 1-2.281.001 1.142 1.142 0 0 1 2.281-.001" fill-rule="evenodd" fill="green"/><path d="M312.121 278.64a1.142 1.142 0 0 1-2.281.001 1.142 1.142 0 0 1 2.281-.001zm0 0" fill="none" stroke-width=".12" stroke-linecap="round" stroke-linejoin="round" stroke="green" stroke-miterlimit="10"/><path d="M276.422 238.32v11.52m143.938-14.399v-8.64m0-.001h-23.04m0 0v46.079M345.48 226.8h51.84" fill="none" stroke-width=".36" stroke-linecap="round" stroke-linejoin="round" stroke="green" stroke-miterlimit="10"/><path d="M398.46 226.8a1.14 1.14 0 1 1-2.28 0 1.14 1.14 0 0 1 2.28.001" fill-rule="evenodd" fill="green"/><path d="M398.46 226.8a1.14 1.14 0 1 1-2.28 0 1.14 1.14 0 0 1 2.28.001zm0 0" fill="none" stroke-width=".12" stroke-linecap="round" stroke-linejoin="round" stroke="green" stroke-miterlimit="10"/><path d="M421.5 226.8a1.142 1.142 0 0 1-2.281.001 1.14 1.14 0 0 1 2.281 0" fill-rule="evenodd" fill="green"/><path d="M421.5 226.8a1.142 1.142 0 0 1-2.281.001 1.14 1.14 0 0 1 2.281 0zm0 0" fill="none" stroke-width=".12" stroke-linecap="round" stroke-linejoin="round" stroke="green" stroke-miterlimit="10"/><path d="M426.121 226.8h-5.762m-74.879 14.4v-14.4m-11.52 51.84h11.52" fill="none" stroke-width=".36" stroke-linecap="round" stroke-linejoin="round" stroke="green" stroke-miterlimit="10"/><path d="M346.621 278.64a1.142 1.142 0 0 1-2.281.001 1.142 1.142 0 0 1 2.281-.001" fill-rule="evenodd" fill="green"/><path d="M346.621 278.64a1.142 1.142 0 0 1-2.281.001 1.142 1.142 0 0 1 2.281-.001zm0 0" fill="none" stroke-width=".12" stroke-linecap="round" stroke-linejoin="round" stroke="green" stroke-miterlimit="10"/><path d="M345.48 278.64h34.56m-34.56 0v14.4m0-14.4v-14.402m34.56 25.922h-5.759m0 0v28.738m0 0h46.078m.001 5.762v-5.762m0-5.758v5.758" fill="none" stroke-width=".36" stroke-linecap="round" stroke-linejoin="round" stroke="green" stroke-miterlimit="10"/><path d="M421.5 318.898a1.14 1.14 0 1 1-2.279.003 1.14 1.14 0 0 1 2.279-.003" fill-rule="evenodd" fill="green"/><path d="M421.5 318.898a1.14 1.14 0 1 1-2.279.003 1.14 1.14 0 0 1 2.279-.003zm0 0" fill="none" stroke-width=".12" stroke-linecap="round" stroke-linejoin="round" stroke="green" stroke-miterlimit="10"/><path d="M420.36 284.398h-5.758m5.758 5.762v-5.762m34.5-5.758h-17.22m0 0v22.981m0 0h-11.519m63.301-17.223h5.758m0 0h5.761m-5.761 0v34.5m0 0h-11.52" fill="none" stroke-width=".36" stroke-linecap="round" stroke-linejoin="round" stroke="green" stroke-miterlimit="10"/><path d="M496.32 284.398a1.14 1.14 0 1 1-2.279.003 1.14 1.14 0 0 1 2.28-.003" fill-rule="evenodd" fill="green"/><path d="M496.32 284.398a1.14 1.14 0 1 1-2.279.003 1.14 1.14 0 0 1 2.28-.003zm0 0" fill="none" stroke-width=".12" stroke-linecap="round" stroke-linejoin="round" stroke="green" stroke-miterlimit="10"/><path d="M460.621 318.898h-11.46m-.001 0V290.16m0 0h5.7m-5.7 28.738v5.762" fill="none" stroke-width=".36" stroke-linecap="round" stroke-linejoin="round" stroke="green" stroke-miterlimit="10"/><path d="M450.3 318.898a1.14 1.14 0 1 1-2.278.003 1.14 1.14 0 0 1 2.279-.003" fill-rule="evenodd" fill="green"/><path d="M450.3 318.898a1.14 1.14 0 1 1-2.278.003 1.14 1.14 0 0 1 2.279-.003zm0 0" fill="none" stroke-width=".12" stroke-linecap="round" stroke-linejoin="round" stroke="green" stroke-miterlimit="10"/><path d="M420.36 347.7v8.64m28.8-8.64v8.64m83.461-71.942h-8.64m34.559 0h-14.4m-89.28-69.117v23.04m0-.001h5.761m-5.761-23.039h-11.462" fill="none" stroke-width=".36" stroke-linecap="round" stroke-linejoin="round" stroke="green" stroke-miterlimit="10"/></svg>