<svg xmlns="http://www.w3.org/2000/svg" xmlns:xlink="http://www.w3.org/1999/xlink" width="595pt" height="560" viewBox="0 0 595 420"><defs><symbol overflow="visible" id="a"><path d="M1.438.047a1.212 1.212 0 0 1-.532-.094A1.087 1.087 0 0 1 .5-.328a1.388 1.388 0 0 1-.281-.469 2.147 2.147 0 0 1-.094-.656c0-.25.031-.461.094-.64C.28-2.27.375-2.43.5-2.579a1.28 1.28 0 0 1 .406-.297c.156-.063.332-.094.531-.094.102 0 .196.008.282.016.082.023.16.043.234.062.063.024.129.043.203.063.063.031.125.07.188.11v.468h-.031c-.032-.031-.075-.07-.126-.125-.062-.04-.132-.082-.203-.125a2.15 2.15 0 0 0-.234-.11 1.54 1.54 0 0 0-.313-.03.767.767 0 0 0-.343.078.876.876 0 0 0-.297.218.997.997 0 0 0-.188.375 1.552 1.552 0 0 0-.078.516c0 .2.024.371.078.516a.83.83 0 0 0 .188.359c.082.105.18.18.297.219a.718.718 0 0 0 .343.078.99.99 0 0 0 .313-.047A.83.83 0 0 0 2-.422a1.42 1.42 0 0 0 .313-.234h.03v.453a2.274 2.274 0 0 0-.171.094 1.023 1.023 0 0 1-.219.078C1.867 0 1.79.019 1.72.03a2.627 2.627 0 0 1-.282.016zm0 0"/></symbol><symbol overflow="visible" id="b"><path d="M1.86 0H.436v-.297H.97V-2.25H.438v-.266c.195 0 .347-.03.453-.093.093-.051.144-.157.156-.313h.297v2.625h.515zm0 0"/></symbol><symbol overflow="visible" id="c"><path d="M2.016 0H.219v-.406l.36-.36c.112-.101.226-.218.343-.343.219-.25.367-.446.453-.594.07-.145.113-.297.125-.453a.487.487 0 0 0-.047-.219.602.602 0 0 0-.11-.156.629.629 0 0 0-.344-.11.822.822 0 0 0-.218.032.685.685 0 0 0-.203.062 1.166 1.166 0 0 0-.156.078c-.055.031-.094.059-.125.078H.28v-.406c.07-.039.18-.082.328-.125.145-.039.286-.062.422-.062.258 0 .469.074.625.218.157.149.235.344.235.594 0 .117-.012.219-.032.313a2.19 2.19 0 0 1-.109.265 2.195 2.195 0 0 1-.188.25 4.057 4.057 0 0 1-.203.25 7.154 7.154 0 0 1-.421.422 7.96 7.96 0 0 1-.36.344h1.438zm0 0"/></symbol><symbol overflow="visible" id="f"><path d="M2.094-1H1.75v1h-.375v-1H.078v-.422l1.313-1.5h.359v1.61h.344zm-.719-.313v-1.14l-.984 1.14zm0 0"/></symbol><symbol overflow="visible" id="k"><path d="M2.563 0h-.516l-.922-1.156H.687V0h-.39v-2.922h.75c.164 0 .305.012.422.031.113.024.222.063.328.125a.8.8 0 0 1 .234.25.751.751 0 0 1 .094.391.797.797 0 0 1-.172.531.913.913 0 0 1-.437.328zm-.844-2.094a.598.598 0 0 0-.047-.234.412.412 0 0 0-.14-.156.446.446 0 0 0-.188-.079c-.074-.007-.168-.019-.282-.03H.688v1.109h.344c.102 0 .203-.008.297-.032a.459.459 0 0 0 .219-.125.38.38 0 0 0 .125-.187.66.66 0 0 0 .047-.266zm0 0"/></symbol><symbol overflow="visible" id="n"><path d="M2.063-.953c0 .156-.028.297-.079.422a.974.974 0 0 1-.203.312.723.723 0 0 1-.297.203.78.78 0 0 1-.343.079A1.04 1.04 0 0 1 .78 0a.891.891 0 0 1-.297-.203A1.194 1.194 0 0 1 .25-.625a2.253 2.253 0 0 1-.078-.656c0-.25.023-.477.078-.688.05-.207.129-.383.234-.531.102-.145.239-.258.407-.344.164-.082.359-.125.578-.125h.187c.063.012.114.024.157.031v.376h-.016a.676.676 0 0 0-.156-.047.87.87 0 0 0-.22-.032.784.784 0 0 0-.593.25c-.148.168-.234.414-.265.735a1.58 1.58 0 0 1 .296-.157.973.973 0 0 1 .313-.046c.113 0 .21.011.297.03a.792.792 0 0 1 .515.438c.051.125.079.274.079.438zm-.407.015a.861.861 0 0 0-.047-.296.5.5 0 0 0-.14-.204.735.735 0 0 0-.172-.093c-.074-.008-.14-.016-.203-.016a.745.745 0 0 0-.266.047 1.272 1.272 0 0 0-.265.125v.172c0 .21.019.375.062.5.04.125.086.219.14.281.051.063.11.106.172.125a.326.326 0 0 0 .204.031c.156 0 .28-.05.375-.156.093-.113.14-.285.14-.516zm0 0"/></symbol><symbol overflow="visible" id="o"><path d="M2.047-2.484L.78 0H.36l1.344-2.578H.187v-.344h1.86zm0 0"/></symbol><symbol overflow="visible" id="p"><path d="M.984 0v-2.578H0v-.344h2.344v.344h-.985V0zm0 0"/></symbol><symbol overflow="visible" id="q"><path d="M2.031-1.453c0 .523-.078.902-.234 1.14-.149.25-.383.376-.703.376C.77.063.535-.064.39-.314.234-.563.156-.94.156-1.452c0-.531.078-.914.235-1.156.156-.25.39-.375.703-.375.32 0 .554.132.703.39.156.25.234.633.234 1.14zm-.5.875a2.32 2.32 0 0 0 .078-.36 9.314 9.314 0 0 0 0-1.046 2.427 2.427 0 0 0-.078-.36.573.573 0 0 0-.172-.234.414.414 0 0 0-.265-.078.446.446 0 0 0-.266.078.512.512 0 0 0-.172.234 1.997 1.997 0 0 0-.078.375 6.995 6.995 0 0 0-.015.516c0 .2.003.371.015.516.008.136.035.257.078.359.04.105.098.183.172.234.063.055.149.078.266.078a.436.436 0 0 0 .265-.078.525.525 0 0 0 .172-.234zm0 0"/></symbol><symbol overflow="visible" id="r"><path d="M2.11-1.156c0 .367-.09.656-.266.875-.18.219-.399.328-.657.328A.83.83 0 0 1 .891 0a.74.74 0 0 1-.25-.11v.922H.266v-3H.64v.235c.082-.082.18-.156.296-.219a.907.907 0 0 1 .375-.078.67.67 0 0 1 .579.297c.144.2.218.465.218.797zm-.391.047c0-.25-.04-.442-.11-.579a.425.425 0 0 0-.39-.218 1.238 1.238 0 0 0-.313.078 1.143 1.143 0 0 0-.265.172v1.25c.093.043.175.074.25.094a.69.69 0 0 0 .234.03c.188 0 .332-.07.438-.218.101-.133.156-.336.156-.61zm0 0"/></symbol><symbol overflow="visible" id="d"><path d="M.047-1.438c.008.188-.024.368-.094.532A1.087 1.087 0 0 1-.328-.5c-.125.117-.281.21-.469.281a2.147 2.147 0 0 1-.656.094c-.25 0-.461-.031-.64-.094A1.555 1.555 0 0 1-2.579-.5a1.284 1.284 0 0 1-.297-.406 1.416 1.416 0 0 1-.094-.531c0-.102.008-.196.016-.282.023-.082.043-.16.062-.234.024-.063.043-.129.063-.203.031-.063.07-.125.11-.188h.468v.031c-.031.032-.07.075-.125.126-.04.062-.082.132-.125.203a2.15 2.15 0 0 0-.11.234c-.019.094-.03.2-.03.313 0 .125.027.242.078.343a.876.876 0 0 0 .218.297c.106.086.23.149.375.188.157.054.328.078.516.078.2 0 .371-.024.516-.078a.83.83 0 0 0 .359-.188.624.624 0 0 0 .219-.297.718.718 0 0 0 .078-.343.99.99 0 0 0-.047-.313A.83.83 0 0 0-.422-2a1.42 1.42 0 0 0-.234-.313v-.03h.453c.031.062.062.12.094.171.03.063.058.137.078.219.031.086.05.164.062.234.008.074.016.168.016.282zm0 0"/></symbol><symbol overflow="visible" id="e"><path d="M-2.64-1c0 .074.011.14.03.203a.873.873 0 0 0 .063.219.582.582 0 0 0 .078.156c.031.055.059.094.078.125v.031h-.406a2.29 2.29 0 0 1-.125-.359 1.444 1.444 0 0 1-.062-.406c0-.133.015-.25.046-.344a.62.62 0 0 1 .126-.266.596.596 0 0 1 .218-.203.81.81 0 0 1 .313-.062.61.61 0 0 1 .422.156c.125.105.203.23.234.375h.031a.919.919 0 0 1 .188-.39 1.28 1.28 0 0 1 .218-.141.875.875 0 0 1 .688.016.803.803 0 0 1 .297.187.745.745 0 0 1 .187.312c.051.118.079.25.079.407 0 .148-.016.293-.047.437-.04.137-.086.258-.141.36h-.406V-.22c.061-.08.12-.19.171-.327a1.094 1.094 0 0 0 .046-.656.559.559 0 0 0-.124-.203 1.043 1.043 0 0 0-.188-.125 1.01 1.01 0 0 0-.266-.032.687.687 0 0 0-.265.047.491.491 0 0 0-.157.125.446.446 0 0 0-.078.188c-.02.086-.03.168-.03.25v.172h-.329v-.14a.691.691 0 0 0-.125-.423.419.419 0 0 0-.36-.172.371.371 0 0 0-.187.047.493.493 0 0 0-.125.11 1.15 1.15 0 0 0-.078.171A1.296 1.296 0 0 0-2.641-1zm0 0"/></symbol><symbol overflow="visible" id="g"><path d="M-.922-1.984c.137 0 .266.023.39.062.118.055.22.121.313.203a.757.757 0 0 1 .203.297c.051.125.079.262.079.406 0 .149-.016.29-.047.422-.032.137-.07.25-.125.344h-.407v-.016c.024-.03.047-.078.079-.14.023-.051.046-.114.078-.188.023-.07.043-.14.062-.203.012-.062.016-.133.016-.219a.693.693 0 0 0-.047-.234.389.389 0 0 0-.125-.188.604.604 0 0 0-.203-.109 1.075 1.075 0 0 0-.281-.031.868.868 0 0 0-.25.031.491.491 0 0 0-.157.125.644.644 0 0 0-.11.203c-.019.086-.03.18-.03.282a4 4 0 0 0 .015.312c.024.117.04.203.047.266h-1.5v-1.61h.344v1.235h.781c-.008-.051-.016-.098-.016-.141V-1c0-.156.012-.285.032-.39.031-.094.078-.192.14-.298a.782.782 0 0 1 .282-.218c.117-.051.261-.078.437-.078zm0 0"/></symbol><symbol overflow="visible" id="h"><path d="M-.953-2.063c.156 0 .297.028.422.079.125.054.23.12.312.203a.723.723 0 0 1 .203.297.78.78 0 0 1 .079.343c0 .137-.024.258-.063.36a.891.891 0 0 1-.203.297 1.194 1.194 0 0 1-.422.234 2.253 2.253 0 0 1-.656.078c-.25 0-.477-.023-.688-.078A1.537 1.537 0 0 1-2.5-.484a1.093 1.093 0 0 1-.344-.407 1.286 1.286 0 0 1-.125-.578v-.187c.012-.063.024-.114.031-.157h.376v.016a.676.676 0 0 0-.047.156.87.87 0 0 0-.032.22c0 .241.086.437.25.593.168.148.414.234.735.265a1.654 1.654 0 0 1-.157-.296.973.973 0 0 1-.046-.313c0-.113.011-.21.03-.297a.792.792 0 0 1 .438-.515c.125-.051.274-.079.438-.079zm.015.407a.861.861 0 0 0-.296.047.5.5 0 0 0-.204.14.735.735 0 0 0-.093.172c-.008.074-.016.14-.016.203 0 .094.016.184.047.266.031.094.074.183.125.265h.172c.21 0 .375-.019.5-.062a.783.783 0 0 0 .281-.14.368.368 0 0 0 .125-.172.326.326 0 0 0 .031-.204.476.476 0 0 0-.156-.375c-.113-.093-.285-.14-.516-.14zm0 0"/></symbol><symbol overflow="visible" id="l"><path d="M0-2.563v.516l-1.156.922v.438H0v.39h-2.922v-.75c0-.164.012-.305.031-.422.024-.113.063-.222.125-.328a.8.8 0 0 1 .25-.234.751.751 0 0 1 .391-.094c.219 0 .398.059.531.172.149.105.258.25.328.437zm-2.094.844a.598.598 0 0 0-.234.047.412.412 0 0 0-.156.14.446.446 0 0 0-.079.188c-.007.074-.019.168-.03.282v.375h1.109v-.344c0-.102-.008-.203-.032-.297a.459.459 0 0 0-.125-.219.38.38 0 0 0-.187-.125.66.66 0 0 0-.266-.047zm0 0"/></symbol><symbol overflow="visible" id="m"><path d="M0-2.016v1.797h-.406l-.36-.36a5.702 5.702 0 0 0-.343-.343 4.127 4.127 0 0 0-.594-.453 1.247 1.247 0 0 0-.453-.125.487.487 0 0 0-.219.047.602.602 0 0 0-.156.11.629.629 0 0 0-.11.344.81.81 0 0 0 .032.218c.011.074.03.14.062.203.024.055.047.105.078.156.031.055.059.094.078.125v.016h-.406a1.67 1.67 0 0 1-.125-.328 1.623 1.623 0 0 1-.062-.422c0-.258.074-.469.218-.625.149-.157.344-.235.594-.235.117 0 .219.012.313.032.093.03.183.07.265.109.086.055.168.117.25.188.086.062.168.132.25.203.137.125.278.265.422.421.149.149.262.266.344.36v-1.438zm0 0"/></symbol><symbol overflow="visible" id="i"><path d="M2.094-1.172c0 .219-.043.414-.125.578a1.04 1.04 0 0 1-.36.406 1.211 1.211 0 0 1-.359.157A2.651 2.651 0 0 1 .781 0H.234v-2.344h.547c.219 0 .39.016.516.047.125.031.226.074.312.125.157.106.274.242.36.406.082.168.125.368.125.594zm-.328 0c0-.187-.032-.344-.094-.469a.63.63 0 0 0-.266-.296.979.979 0 0 0-.265-.11 1.72 1.72 0 0 0-.344-.031h-.25v1.812h.25c.133 0 .254-.007.36-.03a.783.783 0 0 0 .531-.422c.05-.126.078-.274.078-.454zm0 0"/></symbol><symbol overflow="visible" id="j"><path d="M1.5 0H.36v-.234h.42v-1.579H.36v-.218c.157 0 .274-.02.36-.063.07-.05.113-.14.125-.265h.25v2.125H1.5zm0 0"/></symbol><symbol overflow="visible" id="s"><path d="M1.64-1.172c0 .418-.062.727-.187.922-.125.2-.312.297-.562.297C.629.047.437-.051.312-.25.189-.445.126-.754.126-1.172c0-.426.063-.738.188-.937.124-.196.316-.297.578-.297.25 0 .437.105.562.312.125.211.188.516.188.922zm-.406.719c.032-.082.051-.18.063-.297a6.042 6.042 0 0 0 0-.844 1.03 1.03 0 0 0-.063-.297.387.387 0 0 0-.14-.187.34.34 0 0 0-.203-.063.355.355 0 0 0-.22.063.387.387 0 0 0-.14.187 1.076 1.076 0 0 0-.062.297 4.605 4.605 0 0 0-.016.422c0 .168.004.305.016.406.008.118.031.215.062.297.031.086.07.149.125.188.063.043.14.062.235.062a.224.224 0 0 0 .203-.062.362.362 0 0 0 .14-.172zm0 0"/></symbol><symbol overflow="visible" id="t"><path d="M1.594 0h-.297v-1.234a1.104 1.104 0 0 0-.047-.172.411.411 0 0 0-.11-.094.454.454 0 0 0-.39.031 1.066 1.066 0 0 0-.234.156V0H.219v-1.766h.297v.204A.918.918 0 0 1 .78-1.75a.617.617 0 0 1 .266-.063.5.5 0 0 1 .406.172c.094.118.14.282.14.5zm0 0"/></symbol><symbol overflow="visible" id="x"><path d="M1.906-2.078c.082.105.149.23.203.375.051.156.079.336.079.531 0 .188-.028.36-.079.516a1.31 1.31 0 0 1-.203.39 1.037 1.037 0 0 1-.343.235c-.125.05-.266.078-.422.078C.984.047.844.02.719-.031A.724.724 0 0 1 .39-.266a1.05 1.05 0 0 1-.22-.39 1.943 1.943 0 0 1-.062-.516c0-.195.02-.375.063-.531.05-.145.125-.27.219-.375a.787.787 0 0 1 .328-.235 1.036 1.036 0 0 1 1.188.234zm-.047.906a1.76 1.76 0 0 0-.046-.422 1.916 1.916 0 0 0-.141-.297.951.951 0 0 0-.234-.187.861.861 0 0 0-.297-.047.83.83 0 0 0-.297.047.624.624 0 0 0-.219.187.885.885 0 0 0-.14.313c-.044.117-.063.25-.063.406 0 .313.066.547.203.703.125.168.297.25.516.25a.65.65 0 0 0 .53-.25c.126-.156.188-.39.188-.703zm0 0"/></symbol><symbol overflow="visible" id="y"><path d="M-.016 0l.797-2.344h.375L1.953 0h-.328l-.219-.656h-.89L.296 0zm1.344-.922l-.36-1.11-.374 1.11zm0 0"/></symbol><symbol overflow="visible" id="z"><path d="M1.656-2L.625 0H.297l1.078-2.078H.156v-.266h1.5zm0 0"/></symbol><symbol overflow="visible" id="A"><path d="M1.313-1.39c0-.157-.016-.286-.047-.391a.74.74 0 0 0-.125-.235A.552.552 0 0 0 1-2.109a.37.37 0 0 0-.156-.032A.353.353 0 0 0 .547-2c-.086.094-.125.23-.125.406 0 .094.016.172.047.235a.28.28 0 0 0 .125.171c.031.032.07.055.125.063a.816.816 0 0 0 .39-.016c.07-.02.141-.05.204-.093v-.157zM.109-1.595a.86.86 0 0 1 .063-.328.628.628 0 0 1 .156-.25.702.702 0 0 1 .813-.172.793.793 0 0 1 .234.156c.082.086.145.2.188.344.039.137.062.313.062.532 0 .187-.023.37-.063.546-.042.18-.105.325-.187.438a.93.93 0 0 1-.328.281 1.044 1.044 0 0 1-.469.094.724.724 0 0 1-.14-.016.644.644 0 0 1-.127-.014v-.297h.016a.37.37 0 0 0 .125.031c.05.023.11.031.172.031.195 0 .36-.066.484-.203.114-.144.18-.344.204-.594a.714.714 0 0 1-.25.125.634.634 0 0 1-.25.047.74.74 0 0 1-.454-.14.526.526 0 0 1-.187-.25.86.86 0 0 1-.063-.36zm0 0"/></symbol><symbol overflow="visible" id="B"><path d="M1.672 0h-.39L.624-.844l-.11.11V0H.22v-2.453h.297v1.437l.687-.75h.375L.86-1.03zm0 0"/></symbol><symbol overflow="visible" id="u"><path d="M0-1.5v1.14h-.234v-.42h-1.579v.422h-.218a.813.813 0 0 0-.063-.36c-.05-.07-.14-.113-.265-.125v-.25h2.125V-1.5zm0 0"/></symbol><symbol overflow="visible" id="v"><path d="M0-1.594v.297h-1.234a1.104 1.104 0 0 0-.172.047.411.411 0 0 0-.094.11.454.454 0 0 0 .031.39c.043.086.094.164.156.234H0v.297h-1.766v-.297h.204A.918.918 0 0 1-1.75-.78a.617.617 0 0 1-.063-.266.5.5 0 0 1 .172-.406c.118-.094.282-.14.5-.14zm0 0"/></symbol><symbol overflow="visible" id="w"><path d="M0-1.594v.297h-.203c.086.094.148.184.187.266a.674.674 0 0 1 .032.484.527.527 0 0 1-.125.188.38.38 0 0 1-.204.109.893.893 0 0 1-.312.047h-1.14V-.5h1a1.3 1.3 0 0 0 .234-.016.325.325 0 0 0 .171-.046.183.183 0 0 0 .093-.094.346.346 0 0 0 .032-.172c0-.07-.02-.149-.063-.235a1.114 1.114 0 0 0-.156-.234h-1.313v-.297zm0 0"/></symbol><symbol overflow="visible" id="C"><path d="M-1.172-1.64c.418 0 .727.062.922.187.2.125.297.312.297.562 0 .262-.098.454-.297.579-.195.124-.504.187-.922.187-.426 0-.738-.063-.937-.188-.196-.124-.297-.316-.297-.578 0-.25.105-.437.312-.562.211-.125.516-.188.922-.188zm.719.406a1.163 1.163 0 0 0-.297-.063 6.185 6.185 0 0 0-.844 0 1.03 1.03 0 0 0-.297.063.387.387 0 0 0-.187.14.34.34 0 0 0-.063.203.362.362 0 0 0 .25.36c.086.031.184.054.297.062.125.012.266.016.422.016.168 0 .305-.004.406-.016.118-.008.215-.031.297-.062A.378.378 0 0 0-.28-.656a.404.404 0 0 0 .06-.235.224.224 0 0 0-.062-.203.362.362 0 0 0-.172-.14zm0 0"/></symbol><symbol overflow="visible" id="D"><path d="M0-2.25v.313h-2.031l1.39.609v.187l-1.39.61H0v.297h-2.344v-.438l1.297-.578-1.297-.563v-.437zm0 0"/></symbol><symbol overflow="visible" id="H"><path d="M-.719-1.828c.117 0 .219.023.313.062a.724.724 0 0 1 .219.172c.062.094.109.196.14.297.031.094.047.227.047.39v.673h-2.344V-.86c0-.164.008-.29.016-.375a.92.92 0 0 1 .078-.25.472.472 0 0 1 .172-.188.634.634 0 0 1 .25-.047.55.55 0 0 1 .297.078.644.644 0 0 1 .218.25.707.707 0 0 1 .22-.328.61.61 0 0 1 .374-.11zm-1.062.437a.774.774 0 0 0-.14.016.27.27 0 0 0-.095.094.534.534 0 0 0-.062.172v.562h.687v-.36c0-.093-.004-.163-.015-.218a.52.52 0 0 0-.063-.14.262.262 0 0 0-.125-.11 1.204 1.204 0 0 0-.187-.016zm1.078-.125a.433.433 0 0 0-.219.047c-.062.024-.113.074-.156.157a.676.676 0 0 0-.047.156 2.019 2.019 0 0 0-.016.25v.36h.875v-.266a2.19 2.19 0 0 0-.015-.313 1.023 1.023 0 0 0-.078-.219.477.477 0 0 0-.141-.125.924.924 0 0 0-.203-.047zm0 0"/></symbol><symbol overflow="visible" id="I"><path d="M.047-1.156c0 .156-.027.297-.078.422a.724.724 0 0 1-.235.328 1.045 1.045 0 0 1-.375.219 1.6 1.6 0 0 1-.53.078 1.48 1.48 0 0 1-.516-.079 1.068 1.068 0 0 1-.391-.203.928.928 0 0 1-.235-.343 1.112 1.112 0 0 1-.078-.422c0-.082.008-.16.016-.235.012-.062.027-.125.047-.187a1.36 1.36 0 0 1 .047-.156l.094-.157h.374v.032a.388.388 0 0 0-.093.109.69.69 0 0 0-.11.156 1.041 1.041 0 0 0-.078.188.972.972 0 0 0-.031.25.702.702 0 0 0 .234.516.738.738 0 0 0 .313.156c.117.043.25.062.406.062.156 0 .293-.02.406-.062a.815.815 0 0 0 .297-.157.655.655 0 0 0 .188-.234.885.885 0 0 0 .047-.281.827.827 0 0 0-.032-.25.76.76 0 0 0-.078-.203.586.586 0 0 0-.11-.157 1 1 0 0 0-.077-.093v-.032h.375c.023.055.043.102.062.141.024.055.043.11.063.172.031.074.05.137.062.187.008.063.016.141.016.235zm0 0"/></symbol><symbol overflow="visible" id="J"><path d="M-.75-1.594c.117 0 .219.016.313.047a.74.74 0 0 1 .25.156.61.61 0 0 1 .171.25c.04.094.063.204.063.329 0 .117-.012.226-.031.328-.032.117-.063.21-.094.28h-.344v-.015a.25.25 0 0 0 .063-.11.795.795 0 0 0 .062-.14A.813.813 0 0 0-.25-.64a.409.409 0 0 0 .031-.171A.416.416 0 0 0-.266-1a.31.31 0 0 0-.109-.156.438.438 0 0 0-.156-.094.72.72 0 0 0-.422 0 .967.967 0 0 0-.14.11.648.648 0 0 0-.079.156.917.917 0 0 0-.031.234c0 .086.012.168.031.25.012.086.024.152.031.203h-1.203v-1.281h.266v.984h.625v-.11a.322.322 0 0 0-.016-.109c0-.113.012-.21.032-.296a.788.788 0 0 1 .125-.25.573.573 0 0 1 .218-.172c.086-.04.2-.063.344-.063zm0 0"/></symbol><symbol overflow="visible" id="K"><path d="M-.813-1.688v.282H0v.297h-.813v1.046h-.328l-1.203-1.046v-.297h1.281v-.282zm-.25.579h-.921l.921.796zm0 0"/></symbol><symbol overflow="visible" id="L"><path d="M-2-1.656L0-.625v.328l-2.078-1.078v1.219h-.266v-1.5zm0 0"/></symbol><symbol overflow="visible" id="E"><path d="M2.344 0H.563v-.375h.656v-2.453H.562v-.344c.25 0 .43-.035.547-.11.125-.062.192-.195.204-.405h.39v3.312h.64zm0 0"/></symbol><symbol overflow="visible" id="F"><path d="M2.547-1.828c0 .656-.094 1.137-.281 1.437-.2.313-.496.47-.891.47-.406 0-.703-.157-.89-.47C.296-.703.202-1.18.202-1.828c0-.664.098-1.149.297-1.453.188-.313.477-.469.875-.469.406 0 .703.164.89.484.188.313.282.793.282 1.438zm-.625 1.11c.039-.114.07-.266.094-.454.02-.187.03-.406.03-.656 0-.258-.01-.477-.03-.656a2.744 2.744 0 0 0-.094-.47.69.69 0 0 0-.203-.28.564.564 0 0 0-.344-.11.489.489 0 0 0-.328.11.598.598 0 0 0-.219.28 1.31 1.31 0 0 0-.094.47 5.8 5.8 0 0 0-.03.656c0 .25.007.465.03.64.008.18.04.336.094.47.05.124.117.218.203.28.082.075.196.11.344.11.133 0 .25-.031.344-.094a.814.814 0 0 0 .203-.297zm0 0"/></symbol><symbol overflow="visible" id="G"><path d="M2.61 0h-.594L.984-1.328l-.187.172V0H.328v-3.828h.469v2.234L1.89-2.75h.578l-1.14 1.14zm0 0"/></symbol><clipPath id="M"><path d="M232.68 249h129.6v.602h-129.6zm0 0"/></clipPath><clipPath id="N"><path d="M362 170.398h.281v79.204H362zm0 0"/></clipPath><clipPath id="O"><path d="M232.68 170.398h129.6V171h-129.6zm0 0"/></clipPath><clipPath id="P"><path d="M232.68 170.398h.32v79.204h-.32zm0 0"/></clipPath></defs><path d="M249.66 184.86a2.518 2.518 0 0 1-2.52 2.519 2.516 2.516 0 0 1-2.519-2.52 2.52 2.52 0 0 1 5.04 0" fill-rule="evenodd" fill="green"/><path d="M249.66 184.86a2.518 2.518 0 0 1-2.52 2.519 2.516 2.516 0 0 1-2.519-2.52 2.52 2.52 0 0 1 5.04 0zm0 0" fill="none" stroke-width=".12" stroke-linecap="round" stroke-linejoin="round" stroke="green" stroke-miterlimit="10"/><path d="M248.578 184.86a1.44 1.44 0 1 1-2.879.003 1.44 1.44 0 0 1 2.88-.004" fill-rule="evenodd" fill="#fff"/><path d="M248.578 184.86a1.44 1.44 0 1 1-2.879.003 1.44 1.44 0 0 1 2.88-.004zm0 0" fill="none" stroke-width=".06" stroke-linecap="square" stroke-linejoin="bevel" stroke="#000" stroke-miterlimit="10"/><path d="M249 213.602a1.859 1.859 0 1 1-3.719 0c0-1.028.832-1.864 1.86-1.864 1.027 0 1.859.836 1.859 1.864" fill-rule="evenodd" fill="green"/><path d="M249 213.602a1.859 1.859 0 1 1-3.719 0c0-1.028.832-1.864 1.86-1.864 1.027 0 1.859.836 1.859 1.864zm0 0" fill="none" stroke-width=".12" stroke-linecap="round" stroke-linejoin="round" stroke="green" stroke-miterlimit="10"/><path d="M248.281 213.602c0 .628-.511 1.136-1.14 1.136a1.139 1.139 0 1 1 0-2.277c.629 0 1.14.508 1.14 1.14" fill-rule="evenodd" fill="#fff"/><path d="M248.281 213.602c0 .628-.511 1.136-1.14 1.136a1.139 1.139 0 1 1 0-2.277c.629 0 1.14.508 1.14 1.14zm0 0" fill="none" stroke-width=".06" stroke-linecap="square" stroke-linejoin="bevel" stroke="#000" stroke-miterlimit="10"/><path d="M249 199.2a1.859 1.859 0 1 1-3.718 0 1.859 1.859 0 0 1 3.718 0" fill-rule="evenodd" fill="green"/><path d="M249 199.2a1.859 1.859 0 1 1-3.718 0 1.859 1.859 0 0 1 3.718 0zm0 0" fill="none" stroke-width=".12" stroke-linecap="round" stroke-linejoin="round" stroke="green" stroke-miterlimit="10"/><path d="M248.281 199.2a1.141 1.141 0 0 1-2.281 0 1.142 1.142 0 0 1 2.281-.001" fill-rule="evenodd" fill="#fff"/><path d="M248.281 199.2a1.141 1.141 0 0 1-2.281 0 1.142 1.142 0 0 1 2.281-.001zm0 0" fill="none" stroke-width=".06" stroke-linecap="square" stroke-linejoin="bevel" stroke="#000" stroke-miterlimit="10"/><path d="M263.398 235.14a1.859 1.859 0 1 1-3.717.002 1.859 1.859 0 0 1 3.717-.001" fill-rule="evenodd" fill="green"/><path d="M263.398 235.14a1.859 1.859 0 1 1-3.717.002 1.859 1.859 0 0 1 3.717-.001zm0 0" fill="none" stroke-width=".12" stroke-linecap="round" stroke-linejoin="round" stroke="green" stroke-miterlimit="10"/><path d="M262.68 235.14a1.14 1.14 0 1 1-2.282 0c0-.628.512-1.14 1.141-1.14.633 0 1.14.512 1.14 1.14" fill-rule="evenodd" fill="#fff"/><path d="M262.68 235.14a1.14 1.14 0 1 1-2.282 0c0-.628.512-1.14 1.141-1.14.633 0 1.14.512 1.14 1.14zm0 0" fill="none" stroke-width=".06" stroke-linecap="square" stroke-linejoin="bevel" stroke="#000" stroke-miterlimit="10"/><path d="M277.738 235.14a1.859 1.859 0 1 1-3.717.002 1.859 1.859 0 0 1 3.717-.001" fill-rule="evenodd" fill="green"/><path d="M277.738 235.14a1.859 1.859 0 1 1-3.717.002 1.859 1.859 0 0 1 3.717-.001zm0 0" fill="none" stroke-width=".12" stroke-linecap="round" stroke-linejoin="round" stroke="green" stroke-miterlimit="10"/><path d="M277.02 235.14a1.14 1.14 0 1 1-2.282 0 1.14 1.14 0 1 1 2.281 0" fill-rule="evenodd" fill="#fff"/><path d="M277.02 235.14a1.14 1.14 0 1 1-2.282 0 1.14 1.14 0 1 1 2.281 0zm0 0" fill="none" stroke-width=".06" stroke-linecap="square" stroke-linejoin="bevel" stroke="#000" stroke-miterlimit="10"/><path d="M299.34 242.34a1.859 1.859 0 1 1-3.718.001 1.859 1.859 0 0 1 3.718-.001" fill-rule="evenodd" fill="green"/><path d="M299.34 242.34a1.859 1.859 0 1 1-3.718.001 1.859 1.859 0 0 1 3.718-.001zm0 0" fill="none" stroke-width=".12" stroke-linecap="round" stroke-linejoin="round" stroke="green" stroke-miterlimit="10"/><path d="M298.621 242.34a1.141 1.141 0 0 1-2.281 0 1.14 1.14 0 0 1 2.281 0" fill-rule="evenodd" fill="#fff"/><path d="M298.621 242.34a1.141 1.141 0 0 1-2.281 0 1.14 1.14 0 0 1 2.281 0zm0 0" fill="none" stroke-width=".06" stroke-linecap="square" stroke-linejoin="bevel" stroke="#000" stroke-miterlimit="10"/><path d="M299.34 228a1.859 1.859 0 1 1-3.718.001 1.859 1.859 0 0 1 3.718-.001" fill-rule="evenodd" fill="green"/><path d="M299.34 228a1.859 1.859 0 1 1-3.718.001 1.859 1.859 0 0 1 3.718-.001zm0 0" fill="none" stroke-width=".12" stroke-linecap="round" stroke-linejoin="round" stroke="green" stroke-miterlimit="10"/><path d="M298.621 228a1.141 1.141 0 0 1-2.281 0 1.141 1.141 0 0 1 2.281 0" fill-rule="evenodd" fill="#fff"/><path d="M298.621 228a1.141 1.141 0 0 1-2.281 0 1.141 1.141 0 0 1 2.281 0zm0 0" fill="none" stroke-width=".06" stroke-linecap="square" stroke-linejoin="bevel" stroke="#000" stroke-miterlimit="10"/><path d="M306.54 213.602a1.859 1.859 0 1 1-3.72 0c0-1.028.832-1.864 1.86-1.864 1.027 0 1.86.836 1.86 1.864" fill-rule="evenodd" fill="green"/><path d="M306.54 213.602a1.859 1.859 0 1 1-3.72 0c0-1.028.832-1.864 1.86-1.864 1.027 0 1.86.836 1.86 1.864zm0 0" fill="none" stroke-width=".12" stroke-linecap="round" stroke-linejoin="round" stroke="green" stroke-miterlimit="10"/><path d="M305.82 213.602c0 .628-.511 1.136-1.14 1.136a1.139 1.139 0 1 1 0-2.277c.629 0 1.14.508 1.14 1.14" fill-rule="evenodd" fill="#fff"/><path d="M305.82 213.602c0 .628-.511 1.136-1.14 1.136a1.139 1.139 0 1 1 0-2.277c.629 0 1.14.508 1.14 1.14zm0 0" fill="none" stroke-width=".06" stroke-linecap="square" stroke-linejoin="bevel" stroke="#000" stroke-miterlimit="10"/><path d="M320.941 213.602a1.862 1.862 0 0 1-3.722 0c0-1.028.836-1.864 1.86-1.864 1.026 0 1.862.836 1.862 1.864" fill-rule="evenodd" fill="green"/><path d="M320.941 213.602a1.862 1.862 0 0 1-3.722 0c0-1.028.836-1.864 1.86-1.864 1.026 0 1.862.836 1.862 1.864zm0 0" fill="none" stroke-width=".12" stroke-linecap="round" stroke-linejoin="round" stroke="green" stroke-miterlimit="10"/><path d="M320.219 213.602c0 .628-.508 1.136-1.14 1.136a1.135 1.135 0 0 1-1.138-1.136c0-.633.508-1.141 1.137-1.141.633 0 1.14.508 1.14 1.14" fill-rule="evenodd" fill="#fff"/><path d="M320.219 213.602c0 .628-.508 1.136-1.14 1.136a1.135 1.135 0 0 1-1.138-1.136c0-.633.508-1.141 1.137-1.141.633 0 1.14.508 1.14 1.14zm0 0" fill="none" stroke-width=".06" stroke-linecap="square" stroke-linejoin="bevel" stroke="#000" stroke-miterlimit="10"/><path d="M328.14 242.34a1.859 1.859 0 1 1-3.717.001 1.859 1.859 0 0 1 3.718-.001" fill-rule="evenodd" fill="green"/><path d="M328.14 242.34a1.859 1.859 0 1 1-3.717.001 1.859 1.859 0 0 1 3.718-.001zm0 0" fill="none" stroke-width=".12" stroke-linecap="round" stroke-linejoin="round" stroke="green" stroke-miterlimit="10"/><path d="M327.422 242.34a1.14 1.14 0 1 1-1.14-1.14c.628 0 1.14.51 1.14 1.14" fill-rule="evenodd" fill="#fff"/><path d="M327.422 242.34a1.14 1.14 0 1 1-1.14-1.14c.628 0 1.14.51 1.14 1.14zm0 0" fill="none" stroke-width=".06" stroke-linecap="square" stroke-linejoin="bevel" stroke="#000" stroke-miterlimit="10"/><path d="M328.14 228a1.859 1.859 0 1 1-3.717.001 1.859 1.859 0 0 1 3.718-.001" fill-rule="evenodd" fill="green"/><path d="M328.14 228a1.859 1.859 0 1 1-3.717.001 1.859 1.859 0 0 1 3.718-.001zm0 0" fill="none" stroke-width=".12" stroke-linecap="round" stroke-linejoin="round" stroke="green" stroke-miterlimit="10"/><path d="M327.422 228a1.14 1.14 0 1 1-1.14-1.14c.628 0 1.14.511 1.14 1.14" fill-rule="evenodd" fill="#fff"/><path d="M327.422 228a1.14 1.14 0 1 1-1.14-1.14c.628 0 1.14.511 1.14 1.14zm0 0" fill="none" stroke-width=".06" stroke-linecap="square" stroke-linejoin="bevel" stroke="#000" stroke-miterlimit="10"/><path d="M349.559 228c0 .93-.778 1.68-1.739 1.68-.96 0-1.742-.75-1.742-1.68 0-.93.781-1.68 1.742-1.68s1.739.75 1.739 1.68" fill-rule="evenodd" fill="green"/><path d="M349.559 228c0 .93-.778 1.68-1.739 1.68-.96 0-1.742-.75-1.742-1.68 0-.93.781-1.68 1.742-1.68s1.739.75 1.739 1.68zm0 0" fill="none" stroke-width=".12" stroke-linecap="round" stroke-linejoin="round" stroke="green" stroke-miterlimit="10"/><path d="M348.84 228a1.02 1.02 0 1 1-2.04-.001 1.02 1.02 0 0 1 2.04.001" fill-rule="evenodd" fill="#fff"/><path d="M348.84 228a1.02 1.02 0 1 1-2.04-.001 1.02 1.02 0 0 1 2.04.001zm0 0" fill="none" stroke-width=".06" stroke-linecap="square" stroke-linejoin="bevel" stroke="#000" stroke-miterlimit="10"/><path d="M346.078 222.48h3.48v-3.359h-3.48zm0 0" fill="green" stroke-width=".12" stroke-linecap="round" stroke-linejoin="round" stroke="green" stroke-miterlimit="10"/><path d="M348.84 220.8a1.02 1.02 0 1 1-2.04 0 1.02 1.02 0 0 1 2.04 0" fill-rule="evenodd" fill="#fff"/><path d="M348.84 220.8a1.02 1.02 0 1 1-2.04 0 1.02 1.02 0 0 1 2.04 0zm0 0" fill="none" stroke-width=".06" stroke-linecap="square" stroke-linejoin="bevel" stroke="#000" stroke-miterlimit="10"/><path d="M256.2 213.602a1.859 1.859 0 1 1-3.72 0c0-1.028.833-1.864 1.86-1.864 1.027 0 1.86.836 1.86 1.864" fill-rule="evenodd" fill="green"/><path d="M256.2 213.602a1.859 1.859 0 1 1-3.72 0c0-1.028.833-1.864 1.86-1.864 1.027 0 1.86.836 1.86 1.864zm0 0" fill="none" stroke-width=".12" stroke-linecap="round" stroke-linejoin="round" stroke="green" stroke-miterlimit="10"/><path d="M255.48 213.602c0 .628-.511 1.136-1.14 1.136a1.139 1.139 0 1 1 0-2.277c.629 0 1.14.508 1.14 1.14" fill-rule="evenodd" fill="#fff"/><path d="M255.48 213.602c0 .628-.511 1.136-1.14 1.136a1.139 1.139 0 1 1 0-2.277c.629 0 1.14.508 1.14 1.14zm0 0" fill="none" stroke-width=".06" stroke-linecap="square" stroke-linejoin="bevel" stroke="#000" stroke-miterlimit="10"/><path d="M256.2 235.14a1.859 1.859 0 1 1-3.718.002 1.859 1.859 0 0 1 3.717-.001" fill-rule="evenodd" fill="green"/><path d="M256.2 235.14a1.859 1.859 0 1 1-3.718.002 1.859 1.859 0 0 1 3.717-.001zm0 0" fill="none" stroke-width=".12" stroke-linecap="round" stroke-linejoin="round" stroke="green" stroke-miterlimit="10"/><path d="M255.48 235.14a1.141 1.141 0 1 1-2.282 0 1.141 1.141 0 0 1 2.282 0" fill-rule="evenodd" fill="#fff"/><path d="M255.48 235.14a1.141 1.141 0 1 1-2.282 0 1.141 1.141 0 0 1 2.282 0zm0 0" fill="none" stroke-width=".06" stroke-linecap="square" stroke-linejoin="bevel" stroke="#000" stroke-miterlimit="10"/><path d="M335.941 228a2.52 2.52 0 1 1-5.04-.002 2.52 2.52 0 0 1 5.04.002" fill-rule="evenodd" fill="green"/><path d="M335.941 228a2.52 2.52 0 1 1-5.04-.002 2.52 2.52 0 0 1 5.04.002zm0 0" fill="none" stroke-width=".12" stroke-linecap="round" stroke-linejoin="round" stroke="green" stroke-miterlimit="10"/><path d="M334.86 228a1.44 1.44 0 1 1-2.88 0 1.44 1.44 0 1 1 2.88 0" fill-rule="evenodd" fill="#fff"/><path d="M334.86 228a1.44 1.44 0 1 1-2.88 0 1.44 1.44 0 1 1 2.88 0zm0 0" fill="none" stroke-width=".06" stroke-linecap="square" stroke-linejoin="bevel" stroke="#000" stroke-miterlimit="10"/><path d="M335.941 242.34a2.52 2.52 0 1 1-5.04-.002 2.52 2.52 0 0 1 5.04.002" fill-rule="evenodd" fill="green"/><path d="M335.941 242.34a2.52 2.52 0 1 1-5.04-.002 2.52 2.52 0 0 1 5.04.002zm0 0" fill="none" stroke-width=".12" stroke-linecap="round" stroke-linejoin="round" stroke="green" stroke-miterlimit="10"/><path d="M334.86 242.34a1.44 1.44 0 1 1-2.88 0c0-.793.645-1.442 1.442-1.442.793 0 1.437.649 1.437 1.442" fill-rule="evenodd" fill="#fff"/><path d="M334.86 242.34a1.44 1.44 0 1 1-2.88 0c0-.793.645-1.442 1.442-1.442.793 0 1.437.649 1.437 1.442zm0 0" fill="none" stroke-width=".06" stroke-linecap="square" stroke-linejoin="bevel" stroke="#000" stroke-miterlimit="10"/><path d="M350.34 242.34a2.52 2.52 0 0 1-5.04 0 2.52 2.52 0 0 1 5.04 0" fill-rule="evenodd" fill="green"/><path d="M350.34 242.34a2.52 2.52 0 0 1-5.04 0 2.52 2.52 0 0 1 5.04 0zm0 0" fill="none" stroke-width=".12" stroke-linecap="round" stroke-linejoin="round" stroke="green" stroke-miterlimit="10"/><path d="M349.262 242.34c0 .797-.649 1.441-1.442 1.441a1.44 1.44 0 1 1 1.442-1.441" fill-rule="evenodd" fill="#fff"/><path d="M349.262 242.34c0 .797-.649 1.441-1.442 1.441a1.44 1.44 0 1 1 1.442-1.441zm0 0" fill="none" stroke-width=".06" stroke-linecap="square" stroke-linejoin="bevel" stroke="#000" stroke-miterlimit="10"/><path d="M248.879 242.34c0 .93-.777 1.68-1.738 1.68s-1.743-.75-1.743-1.68c0-.93.782-1.68 1.743-1.68.96 0 1.738.75 1.738 1.68" fill-rule="evenodd" fill="green"/><path d="M248.879 242.34c0 .93-.777 1.68-1.738 1.68s-1.743-.75-1.743-1.68c0-.93.782-1.68 1.743-1.68.96 0 1.738.75 1.738 1.68zm0 0" fill="none" stroke-width=".12" stroke-linecap="round" stroke-linejoin="round" stroke="green" stroke-miterlimit="10"/><path d="M248.16 242.34a1.02 1.02 0 1 1-2.04-.002 1.02 1.02 0 0 1 2.04.002" fill-rule="evenodd" fill="#fff"/><path d="M248.16 242.34a1.02 1.02 0 1 1-2.04-.002 1.02 1.02 0 0 1 2.04.002zm0 0" fill="none" stroke-width=".06" stroke-linecap="square" stroke-linejoin="bevel" stroke="#000" stroke-miterlimit="10"/><path d="M248.879 220.8c0 .927-.777 1.68-1.738 1.68s-1.743-.753-1.743-1.68c0-.929.782-1.679 1.743-1.679.96 0 1.738.75 1.738 1.68" fill-rule="evenodd" fill="green"/><path d="M248.879 220.8c0 .927-.777 1.68-1.738 1.68s-1.743-.753-1.743-1.68c0-.929.782-1.679 1.743-1.679.96 0 1.738.75 1.738 1.68zm0 0" fill="none" stroke-width=".12" stroke-linecap="round" stroke-linejoin="round" stroke="green" stroke-miterlimit="10"/><path d="M248.16 220.8a1.02 1.02 0 1 1-2.04 0 1.02 1.02 0 0 1 2.04 0" fill-rule="evenodd" fill="#fff"/><path d="M248.16 220.8a1.02 1.02 0 1 1-2.04 0 1.02 1.02 0 0 1 2.04 0zm0 0" fill="none" stroke-width=".06" stroke-linecap="square" stroke-linejoin="bevel" stroke="#000" stroke-miterlimit="10"/><path d="M263.281 228c0 .93-.781 1.68-1.742 1.68-.96 0-1.738-.75-1.738-1.68 0-.93.777-1.68 1.738-1.68s1.742.75 1.742 1.68" fill-rule="evenodd" fill="green"/><path d="M263.281 228c0 .93-.781 1.68-1.742 1.68-.96 0-1.738-.75-1.738-1.68 0-.93.777-1.68 1.738-1.68s1.742.75 1.742 1.68zm0 0" fill="none" stroke-width=".12" stroke-linecap="round" stroke-linejoin="round" stroke="green" stroke-miterlimit="10"/><path d="M262.559 228a1.02 1.02 0 1 1-2.04-.001 1.02 1.02 0 0 1 2.04.001" fill-rule="evenodd" fill="#fff"/><path d="M262.559 228a1.02 1.02 0 1 1-2.04-.001 1.02 1.02 0 0 1 2.04.001zm0 0" fill="none" stroke-width=".06" stroke-linecap="square" stroke-linejoin="bevel" stroke="#000" stroke-miterlimit="10"/><path d="M263.281 206.398c0 .93-.781 1.68-1.742 1.68-.96 0-1.738-.75-1.738-1.68 0-.925.777-1.68 1.738-1.68s1.742.755 1.742 1.68" fill-rule="evenodd" fill="green"/><path d="M263.281 206.398c0 .93-.781 1.68-1.742 1.68-.96 0-1.738-.75-1.738-1.68 0-.925.777-1.68 1.738-1.68s1.742.755 1.742 1.68zm0 0" fill="none" stroke-width=".12" stroke-linecap="round" stroke-linejoin="round" stroke="green" stroke-miterlimit="10"/><path d="M262.559 206.398c0 .567-.457 1.024-1.02 1.024a1.021 1.021 0 0 1 0-2.043c.563 0 1.02.457 1.02 1.02" fill-rule="evenodd" fill="#fff"/><path d="M262.559 206.398c0 .567-.457 1.024-1.02 1.024a1.021 1.021 0 0 1 0-2.043c.563 0 1.02.457 1.02 1.02zm0 0" fill="none" stroke-width=".06" stroke-linecap="square" stroke-linejoin="bevel" stroke="#000" stroke-miterlimit="10"/><path d="M277.621 220.8c0 .927-.781 1.68-1.742 1.68s-1.738-.753-1.738-1.68c0-.929.777-1.679 1.738-1.679.96 0 1.742.75 1.742 1.68" fill-rule="evenodd" fill="green"/><path d="M277.621 220.8c0 .927-.781 1.68-1.742 1.68s-1.738-.753-1.738-1.68c0-.929.777-1.679 1.738-1.679.96 0 1.742.75 1.742 1.68zm0 0" fill="none" stroke-width=".12" stroke-linecap="round" stroke-linejoin="round" stroke="green" stroke-miterlimit="10"/><path d="M276.898 220.8a1.02 1.02 0 1 1-2.04 0 1.02 1.02 0 0 1 2.04 0" fill-rule="evenodd" fill="#fff"/><path d="M276.898 220.8a1.02 1.02 0 1 1-2.04 0 1.02 1.02 0 0 1 2.04 0zm0 0" fill="none" stroke-width=".06" stroke-linecap="square" stroke-linejoin="bevel" stroke="#000" stroke-miterlimit="10"/><path d="M299.219 220.8c0 .927-.778 1.68-1.739 1.68-.96 0-1.742-.753-1.742-1.68 0-.929.782-1.679 1.742-1.679.961 0 1.739.75 1.739 1.68" fill-rule="evenodd" fill="green"/><path d="M299.219 220.8c0 .927-.778 1.68-1.739 1.68-.96 0-1.742-.753-1.742-1.68 0-.929.782-1.679 1.742-1.679.961 0 1.739.75 1.739 1.68zm0 0" fill="none" stroke-width=".12" stroke-linecap="round" stroke-linejoin="round" stroke="green" stroke-miterlimit="10"/><path d="M298.5 220.8a1.02 1.02 0 1 1-2.04 0 1.02 1.02 0 0 1 2.04 0" fill-rule="evenodd" fill="#fff"/><path d="M298.5 220.8a1.02 1.02 0 1 1-2.04 0 1.02 1.02 0 0 1 2.04 0zm0 0" fill="none" stroke-width=".06" stroke-linecap="square" stroke-linejoin="bevel" stroke="#000" stroke-miterlimit="10"/><path d="M306.422 220.8c0 .927-.781 1.68-1.742 1.68s-1.739-.753-1.739-1.68c0-.929.778-1.679 1.739-1.679.96 0 1.742.75 1.742 1.68" fill-rule="evenodd" fill="green"/><path d="M306.422 220.8c0 .927-.781 1.68-1.742 1.68s-1.739-.753-1.739-1.68c0-.929.778-1.679 1.739-1.679.96 0 1.742.75 1.742 1.68zm0 0" fill="none" stroke-width=".12" stroke-linecap="round" stroke-linejoin="round" stroke="green" stroke-miterlimit="10"/><path d="M305.7 220.8a1.02 1.02 0 1 1-2.041 0 1.02 1.02 0 0 1 2.04 0" fill-rule="evenodd" fill="#fff"/><path d="M305.7 220.8a1.02 1.02 0 1 1-2.041 0 1.02 1.02 0 0 1 2.04 0zm0 0" fill="none" stroke-width=".06" stroke-linecap="square" stroke-linejoin="bevel" stroke="#000" stroke-miterlimit="10"/><path d="M328.02 220.8c0 .927-.778 1.68-1.739 1.68-.96 0-1.742-.753-1.742-1.68 0-.929.781-1.679 1.742-1.679s1.739.75 1.739 1.68" fill-rule="evenodd" fill="green"/><path d="M328.02 220.8c0 .927-.778 1.68-1.739 1.68-.96 0-1.742-.753-1.742-1.68 0-.929.781-1.679 1.742-1.679s1.739.75 1.739 1.68zm0 0" fill="none" stroke-width=".12" stroke-linecap="round" stroke-linejoin="round" stroke="green" stroke-miterlimit="10"/><path d="M327.3 220.8a1.02 1.02 0 1 1-2.04 0 1.02 1.02 0 0 1 2.04 0" fill-rule="evenodd" fill="#fff"/><path d="M327.3 220.8a1.02 1.02 0 1 1-2.04 0 1.02 1.02 0 0 1 2.04 0zm0 0" fill="none" stroke-width=".06" stroke-linecap="square" stroke-linejoin="bevel" stroke="#000" stroke-miterlimit="10"/><path d="M335.16 220.8c0 .927-.777 1.68-1.738 1.68s-1.742-.753-1.742-1.68c0-.929.78-1.679 1.742-1.679.96 0 1.738.75 1.738 1.68" fill-rule="evenodd" fill="green"/><path d="M335.16 220.8c0 .927-.777 1.68-1.738 1.68s-1.742-.753-1.742-1.68c0-.929.78-1.679 1.742-1.679.96 0 1.738.75 1.738 1.68zm0 0" fill="none" stroke-width=".12" stroke-linecap="round" stroke-linejoin="round" stroke="green" stroke-miterlimit="10"/><path d="M334.441 220.8a1.021 1.021 0 1 1-2.043 0 1.021 1.021 0 0 1 2.043 0" fill-rule="evenodd" fill="#fff"/><path d="M334.441 220.8a1.021 1.021 0 1 1-2.043 0 1.021 1.021 0 0 1 2.043 0zm0 0" fill="none" stroke-width=".06" stroke-linecap="square" stroke-linejoin="bevel" stroke="#000" stroke-miterlimit="10"/><path d="M335.16 199.2c0 .929-.777 1.679-1.738 1.679s-1.742-.75-1.742-1.68c0-.926.78-1.68 1.742-1.68.96 0 1.738.754 1.738 1.68" fill-rule="evenodd" fill="green"/><path d="M335.16 199.2c0 .929-.777 1.679-1.738 1.679s-1.742-.75-1.742-1.68c0-.926.78-1.68 1.742-1.68.96 0 1.738.754 1.738 1.68zm0 0" fill="none" stroke-width=".12" stroke-linecap="round" stroke-linejoin="round" stroke="green" stroke-miterlimit="10"/><path d="M334.441 199.2a1.021 1.021 0 1 1-2.043 0 1.021 1.021 0 0 1 2.043 0" fill-rule="evenodd" fill="#fff"/><path d="M334.441 199.2a1.021 1.021 0 1 1-2.043 0 1.021 1.021 0 0 1 2.043 0zm0 0" fill="none" stroke-width=".06" stroke-linecap="square" stroke-linejoin="bevel" stroke="#000" stroke-miterlimit="10"/><path d="M307.441 206.398a2.762 2.762 0 0 1-2.761 2.762 2.758 2.758 0 0 1-2.758-2.762 2.76 2.76 0 0 1 5.52 0" fill-rule="evenodd" fill="green"/><path d="M307.441 206.398a2.762 2.762 0 0 1-2.761 2.762 2.758 2.758 0 0 1-2.758-2.762 2.76 2.76 0 0 1 5.52 0zm0 0" fill="none" stroke-width=".12" stroke-linecap="round" stroke-linejoin="round" stroke="green" stroke-miterlimit="10"/><path d="M306.121 206.398a1.44 1.44 0 1 1-2.88.003 1.44 1.44 0 0 1 2.88-.003" fill-rule="evenodd" fill="#fff"/><path d="M306.121 206.398a1.44 1.44 0 1 1-2.88.003 1.44 1.44 0 0 1 2.88-.003zm0 0" fill="none" stroke-width=".06" stroke-linecap="square" stroke-linejoin="bevel" stroke="#000" stroke-miterlimit="10"/><path d="M300.238 206.398a2.758 2.758 0 0 1-2.758 2.762 2.76 2.76 0 1 1 2.758-2.762" fill-rule="evenodd" fill="green"/><path d="M300.238 206.398a2.758 2.758 0 0 1-2.758 2.762 2.76 2.76 0 1 1 2.758-2.762zm0 0" fill="none" stroke-width=".12" stroke-linecap="round" stroke-linejoin="round" stroke="green" stroke-miterlimit="10"/><path d="M298.922 206.398c0 .797-.649 1.442-1.442 1.442a1.44 1.44 0 1 1 1.442-1.442" fill-rule="evenodd" fill="#fff"/><path d="M298.922 206.398c0 .797-.649 1.442-1.442 1.442a1.44 1.44 0 1 1 1.442-1.442zm0 0" fill="none" stroke-width=".06" stroke-linecap="square" stroke-linejoin="bevel" stroke="#000" stroke-miterlimit="10"/><path d="M293.04 206.398a2.758 2.758 0 0 1-2.759 2.762 2.76 2.76 0 1 1 2.758-2.762" fill-rule="evenodd" fill="green"/><path d="M293.04 206.398a2.758 2.758 0 0 1-2.759 2.762 2.76 2.76 0 1 1 2.758-2.762zm0 0" fill="none" stroke-width=".12" stroke-linecap="round" stroke-linejoin="round" stroke="green" stroke-miterlimit="10"/><path d="M291.719 206.398a1.44 1.44 0 1 1-2.88.004 1.44 1.44 0 0 1 2.88-.004" fill-rule="evenodd" fill="#fff"/><path d="M291.719 206.398a1.44 1.44 0 1 1-2.88.004 1.44 1.44 0 0 1 2.88-.004zm0 0" fill="none" stroke-width=".06" stroke-linecap="square" stroke-linejoin="bevel" stroke="#000" stroke-miterlimit="10"/><path d="M285.121 228a2.04 2.04 0 0 1-2.043 2.04 2.038 2.038 0 1 1 0-4.08 2.04 2.04 0 0 1 2.043 2.04" fill-rule="evenodd" fill="green"/><path d="M285.121 228a2.04 2.04 0 0 1-2.043 2.04 2.038 2.038 0 1 1 0-4.08 2.04 2.04 0 0 1 2.043 2.04zm0 0" fill="none" stroke-width=".12" stroke-linecap="round" stroke-linejoin="round" stroke="green" stroke-miterlimit="10"/><path d="M284.102 228a1.021 1.021 0 0 1-2.043 0 1.021 1.021 0 1 1 2.043 0" fill-rule="evenodd" fill="#fff"/><path d="M284.102 228a1.021 1.021 0 0 1-2.043 0 1.021 1.021 0 1 1 2.043 0zm0 0" fill="none" stroke-width=".06" stroke-linecap="square" stroke-linejoin="bevel" stroke="#000" stroke-miterlimit="10"/><path d="M285.121 242.34a2.039 2.039 0 0 1-2.043 2.039 2.038 2.038 0 1 1 0-4.078c1.129 0 2.043.914 2.043 2.039" fill-rule="evenodd" fill="green"/><path d="M285.121 242.34a2.039 2.039 0 0 1-2.043 2.039 2.038 2.038 0 1 1 0-4.078c1.129 0 2.043.914 2.043 2.039zm0 0" fill="none" stroke-width=".12" stroke-linecap="round" stroke-linejoin="round" stroke="green" stroke-miterlimit="10"/><path d="M284.102 242.34a1.021 1.021 0 0 1-2.043 0 1.021 1.021 0 1 1 2.043 0" fill-rule="evenodd" fill="#fff"/><path d="M284.102 242.34a1.021 1.021 0 0 1-2.043 0 1.021 1.021 0 1 1 2.043 0zm0 0" fill="none" stroke-width=".06" stroke-linecap="square" stroke-linejoin="bevel" stroke="#000" stroke-miterlimit="10"/><path d="M285.121 235.14a2.041 2.041 0 0 1-4.082 0c0-1.128.914-2.038 2.04-2.038 1.128 0 2.042.91 2.042 2.039" fill-rule="evenodd" fill="green"/><path d="M285.121 235.14a2.041 2.041 0 0 1-4.082 0c0-1.128.914-2.038 2.04-2.038 1.128 0 2.042.91 2.042 2.039zm0 0" fill="none" stroke-width=".12" stroke-linecap="round" stroke-linejoin="round" stroke="green" stroke-miterlimit="10"/><path d="M284.102 235.14a1.021 1.021 0 0 1-2.043 0 1.021 1.021 0 1 1 2.043 0" fill-rule="evenodd" fill="#fff"/><path d="M284.102 235.14a1.021 1.021 0 0 1-2.043 0 1.021 1.021 0 1 1 2.043 0zm0 0" fill="none" stroke-width=".06" stroke-linecap="square" stroke-linejoin="bevel" stroke="#000" stroke-miterlimit="10"/><path d="M313.922 228a2.04 2.04 0 0 1-2.043 2.04 2.038 2.038 0 1 1 0-4.08 2.04 2.04 0 0 1 2.043 2.04" fill-rule="evenodd" fill="green"/><path d="M313.922 228a2.04 2.04 0 0 1-2.043 2.04 2.038 2.038 0 1 1 0-4.08 2.04 2.04 0 0 1 2.043 2.04zm0 0" fill="none" stroke-width=".12" stroke-linecap="round" stroke-linejoin="round" stroke="green" stroke-miterlimit="10"/><path d="M312.898 228a1.02 1.02 0 1 1-2.04-.001 1.02 1.02 0 0 1 2.04.001" fill-rule="evenodd" fill="#fff"/><path d="M312.898 228a1.02 1.02 0 1 1-2.04-.001 1.02 1.02 0 0 1 2.04.001zm0 0" fill="none" stroke-width=".06" stroke-linecap="square" stroke-linejoin="bevel" stroke="#000" stroke-miterlimit="10"/><path d="M313.922 242.34a2.039 2.039 0 0 1-2.043 2.039 2.038 2.038 0 1 1 0-4.078c1.129 0 2.043.914 2.043 2.039" fill-rule="evenodd" fill="green"/><path d="M313.922 242.34a2.039 2.039 0 0 1-2.043 2.039 2.038 2.038 0 1 1 0-4.078c1.129 0 2.043.914 2.043 2.039zm0 0" fill="none" stroke-width=".12" stroke-linecap="round" stroke-linejoin="round" stroke="green" stroke-miterlimit="10"/><path d="M312.898 242.34a1.02 1.02 0 1 1-2.04-.002 1.02 1.02 0 0 1 2.04.002" fill-rule="evenodd" fill="#fff"/><path d="M312.898 242.34a1.02 1.02 0 1 1-2.04-.002 1.02 1.02 0 0 1 2.04.002zm0 0" fill="none" stroke-width=".06" stroke-linecap="square" stroke-linejoin="bevel" stroke="#000" stroke-miterlimit="10"/><path d="M313.922 235.14a2.041 2.041 0 0 1-4.082 0c0-1.128.914-2.038 2.039-2.038 1.129 0 2.043.91 2.043 2.039" fill-rule="evenodd" fill="green"/><path d="M313.922 235.14a2.041 2.041 0 0 1-4.082 0c0-1.128.914-2.038 2.039-2.038 1.129 0 2.043.91 2.043 2.039zm0 0" fill="none" stroke-width=".12" stroke-linecap="round" stroke-linejoin="round" stroke="green" stroke-miterlimit="10"/><path d="M312.898 235.14a1.02 1.02 0 1 1-2.04 0 1.02 1.02 0 0 1 2.04 0" fill-rule="evenodd" fill="#fff"/><path d="M312.898 235.14a1.02 1.02 0 1 1-2.04 0 1.02 1.02 0 0 1 2.04 0zm0 0" fill="none" stroke-width=".06" stroke-linecap="square" stroke-linejoin="bevel" stroke="#000" stroke-miterlimit="10"/><path d="M350.34 199.2a2.518 2.518 0 0 1-2.52 2.519 2.52 2.52 0 1 1 2.52-2.52" fill-rule="evenodd" fill="green"/><path d="M350.34 199.2a2.518 2.518 0 0 1-2.52 2.519 2.52 2.52 0 1 1 2.52-2.52zm0 0" fill="none" stroke-width=".12" stroke-linecap="round" stroke-linejoin="round" stroke="green" stroke-miterlimit="10"/><path d="M349.262 199.2c0 .796-.649 1.44-1.442 1.44a1.44 1.44 0 1 1 1.442-1.44" fill-rule="evenodd" fill="#fff"/><path d="M349.262 199.2c0 .796-.649 1.44-1.442 1.44a1.44 1.44 0 1 1 1.442-1.44zm0 0" fill="none" stroke-width=".06" stroke-linecap="square" stroke-linejoin="bevel" stroke="#000" stroke-miterlimit="10"/><path d="M249.66 184.86a2.518 2.518 0 0 1-2.52 2.519 2.516 2.516 0 0 1-2.519-2.52 2.52 2.52 0 0 1 5.04 0" fill-rule="evenodd" fill="green"/><path d="M249.66 184.86a2.518 2.518 0 0 1-2.52 2.519 2.516 2.516 0 0 1-2.519-2.52 2.52 2.52 0 0 1 5.04 0zm0 0" fill="none" stroke-width=".12" stroke-linecap="round" stroke-linejoin="round" stroke="green" stroke-miterlimit="10"/><path d="M248.578 184.86a1.44 1.44 0 1 1-2.879.003 1.44 1.44 0 0 1 2.88-.004" fill-rule="evenodd" fill="#fff"/><path d="M248.578 184.86a1.44 1.44 0 1 1-2.879.003 1.44 1.44 0 0 1 2.88-.004zm0 0" fill="none" stroke-width=".06" stroke-linecap="square" stroke-linejoin="bevel" stroke="#000" stroke-miterlimit="10"/><path d="M249 213.602a1.859 1.859 0 1 1-3.719 0c0-1.028.832-1.864 1.86-1.864 1.027 0 1.859.836 1.859 1.864" fill-rule="evenodd" fill="green"/><path d="M249 213.602a1.859 1.859 0 1 1-3.719 0c0-1.028.832-1.864 1.86-1.864 1.027 0 1.859.836 1.859 1.864zm0 0" fill="none" stroke-width=".12" stroke-linecap="round" stroke-linejoin="round" stroke="green" stroke-miterlimit="10"/><path d="M248.281 213.602c0 .628-.511 1.136-1.14 1.136a1.139 1.139 0 1 1 0-2.277c.629 0 1.14.508 1.14 1.14" fill-rule="evenodd" fill="#fff"/><path d="M248.281 213.602c0 .628-.511 1.136-1.14 1.136a1.139 1.139 0 1 1 0-2.277c.629 0 1.14.508 1.14 1.14zm0 0" fill="none" stroke-width=".06" stroke-linecap="square" stroke-linejoin="bevel" stroke="#000" stroke-miterlimit="10"/><path d="M249 199.2a1.859 1.859 0 1 1-3.718 0 1.859 1.859 0 0 1 3.718 0" fill-rule="evenodd" fill="green"/><path d="M249 199.2a1.859 1.859 0 1 1-3.718 0 1.859 1.859 0 0 1 3.718 0zm0 0" fill="none" stroke-width=".12" stroke-linecap="round" stroke-linejoin="round" stroke="green" stroke-miterlimit="10"/><path d="M248.281 199.2a1.141 1.141 0 0 1-2.281 0 1.142 1.142 0 0 1 2.281-.001" fill-rule="evenodd" fill="#fff"/><path d="M248.281 199.2a1.141 1.141 0 0 1-2.281 0 1.142 1.142 0 0 1 2.281-.001zm0 0" fill="none" stroke-width=".06" stroke-linecap="square" stroke-linejoin="bevel" stroke="#000" stroke-miterlimit="10"/><path d="M263.398 235.14a1.859 1.859 0 1 1-3.717.002 1.859 1.859 0 0 1 3.717-.001" fill-rule="evenodd" fill="green"/><path d="M263.398 235.14a1.859 1.859 0 1 1-3.717.002 1.859 1.859 0 0 1 3.717-.001zm0 0" fill="none" stroke-width=".12" stroke-linecap="round" stroke-linejoin="round" stroke="green" stroke-miterlimit="10"/><path d="M262.68 235.14a1.14 1.14 0 1 1-2.282 0c0-.628.512-1.14 1.141-1.14.633 0 1.14.512 1.14 1.14" fill-rule="evenodd" fill="#fff"/><path d="M262.68 235.14a1.14 1.14 0 1 1-2.282 0c0-.628.512-1.14 1.141-1.14.633 0 1.14.512 1.14 1.14zm0 0" fill="none" stroke-width=".06" stroke-linecap="square" stroke-linejoin="bevel" stroke="#000" stroke-miterlimit="10"/><path d="M277.738 235.14a1.859 1.859 0 1 1-3.717.002 1.859 1.859 0 0 1 3.717-.001" fill-rule="evenodd" fill="green"/><path d="M277.738 235.14a1.859 1.859 0 1 1-3.717.002 1.859 1.859 0 0 1 3.717-.001zm0 0" fill="none" stroke-width=".12" stroke-linecap="round" stroke-linejoin="round" stroke="green" stroke-miterlimit="10"/><path d="M277.02 235.14a1.14 1.14 0 1 1-2.282 0 1.14 1.14 0 1 1 2.281 0" fill-rule="evenodd" fill="#fff"/><path d="M277.02 235.14a1.14 1.14 0 1 1-2.282 0 1.14 1.14 0 1 1 2.281 0zm0 0" fill="none" stroke-width=".06" stroke-linecap="square" stroke-linejoin="bevel" stroke="#000" stroke-miterlimit="10"/><path d="M299.34 242.34a1.859 1.859 0 1 1-3.718.001 1.859 1.859 0 0 1 3.718-.001" fill-rule="evenodd" fill="green"/><path d="M299.34 242.34a1.859 1.859 0 1 1-3.718.001 1.859 1.859 0 0 1 3.718-.001zm0 0" fill="none" stroke-width=".12" stroke-linecap="round" stroke-linejoin="round" stroke="green" stroke-miterlimit="10"/><path d="M298.621 242.34a1.141 1.141 0 0 1-2.281 0 1.14 1.14 0 0 1 2.281 0" fill-rule="evenodd" fill="#fff"/><path d="M298.621 242.34a1.141 1.141 0 0 1-2.281 0 1.14 1.14 0 0 1 2.281 0zm0 0" fill="none" stroke-width=".06" stroke-linecap="square" stroke-linejoin="bevel" stroke="#000" stroke-miterlimit="10"/><path d="M299.34 228a1.859 1.859 0 1 1-3.718.001 1.859 1.859 0 0 1 3.718-.001" fill-rule="evenodd" fill="green"/><path d="M299.34 228a1.859 1.859 0 1 1-3.718.001 1.859 1.859 0 0 1 3.718-.001zm0 0" fill="none" stroke-width=".12" stroke-linecap="round" stroke-linejoin="round" stroke="green" stroke-miterlimit="10"/><path d="M298.621 228a1.141 1.141 0 0 1-2.281 0 1.141 1.141 0 0 1 2.281 0" fill-rule="evenodd" fill="#fff"/><path d="M298.621 228a1.141 1.141 0 0 1-2.281 0 1.141 1.141 0 0 1 2.281 0zm0 0" fill="none" stroke-width=".06" stroke-linecap="square" stroke-linejoin="bevel" stroke="#000" stroke-miterlimit="10"/><path d="M306.54 213.602a1.859 1.859 0 1 1-3.72 0c0-1.028.832-1.864 1.86-1.864 1.027 0 1.86.836 1.86 1.864" fill-rule="evenodd" fill="green"/><path d="M306.54 213.602a1.859 1.859 0 1 1-3.72 0c0-1.028.832-1.864 1.86-1.864 1.027 0 1.86.836 1.86 1.864zm0 0" fill="none" stroke-width=".12" stroke-linecap="round" stroke-linejoin="round" stroke="green" stroke-miterlimit="10"/><path d="M305.82 213.602c0 .628-.511 1.136-1.14 1.136a1.139 1.139 0 1 1 0-2.277c.629 0 1.14.508 1.14 1.14" fill-rule="evenodd" fill="#fff"/><path d="M305.82 213.602c0 .628-.511 1.136-1.14 1.136a1.139 1.139 0 1 1 0-2.277c.629 0 1.14.508 1.14 1.14zm0 0" fill="none" stroke-width=".06" stroke-linecap="square" stroke-linejoin="bevel" stroke="#000" stroke-miterlimit="10"/><path d="M320.941 213.602a1.862 1.862 0 0 1-3.722 0c0-1.028.836-1.864 1.86-1.864 1.026 0 1.862.836 1.862 1.864" fill-rule="evenodd" fill="green"/><path d="M320.941 213.602a1.862 1.862 0 0 1-3.722 0c0-1.028.836-1.864 1.86-1.864 1.026 0 1.862.836 1.862 1.864zm0 0" fill="none" stroke-width=".12" stroke-linecap="round" stroke-linejoin="round" stroke="green" stroke-miterlimit="10"/><path d="M320.219 213.602c0 .628-.508 1.136-1.14 1.136a1.135 1.135 0 0 1-1.138-1.136c0-.633.508-1.141 1.137-1.141.633 0 1.14.508 1.14 1.14" fill-rule="evenodd" fill="#fff"/><path d="M320.219 213.602c0 .628-.508 1.136-1.14 1.136a1.135 1.135 0 0 1-1.138-1.136c0-.633.508-1.141 1.137-1.141.633 0 1.14.508 1.14 1.14zm0 0" fill="none" stroke-width=".06" stroke-linecap="square" stroke-linejoin="bevel" stroke="#000" stroke-miterlimit="10"/><path d="M328.14 242.34a1.859 1.859 0 1 1-3.717.001 1.859 1.859 0 0 1 3.718-.001" fill-rule="evenodd" fill="green"/><path d="M328.14 242.34a1.859 1.859 0 1 1-3.717.001 1.859 1.859 0 0 1 3.718-.001zm0 0" fill="none" stroke-width=".12" stroke-linecap="round" stroke-linejoin="round" stroke="green" stroke-miterlimit="10"/><path d="M327.422 242.34a1.14 1.14 0 1 1-1.14-1.14c.628 0 1.14.51 1.14 1.14" fill-rule="evenodd" fill="#fff"/><path d="M327.422 242.34a1.14 1.14 0 1 1-1.14-1.14c.628 0 1.14.51 1.14 1.14zm0 0" fill="none" stroke-width=".06" stroke-linecap="square" stroke-linejoin="bevel" stroke="#000" stroke-miterlimit="10"/><path d="M328.14 228a1.859 1.859 0 1 1-3.717.001 1.859 1.859 0 0 1 3.718-.001" fill-rule="evenodd" fill="green"/><path d="M328.14 228a1.859 1.859 0 1 1-3.717.001 1.859 1.859 0 0 1 3.718-.001zm0 0" fill="none" stroke-width=".12" stroke-linecap="round" stroke-linejoin="round" stroke="green" stroke-miterlimit="10"/><path d="M327.422 228a1.14 1.14 0 1 1-1.14-1.14c.628 0 1.14.511 1.14 1.14" fill-rule="evenodd" fill="#fff"/><path d="M327.422 228a1.14 1.14 0 1 1-1.14-1.14c.628 0 1.14.511 1.14 1.14zm0 0" fill="none" stroke-width=".06" stroke-linecap="square" stroke-linejoin="bevel" stroke="#000" stroke-miterlimit="10"/><path d="M349.559 228c0 .93-.778 1.68-1.739 1.68-.96 0-1.742-.75-1.742-1.68 0-.93.781-1.68 1.742-1.68s1.739.75 1.739 1.68" fill-rule="evenodd" fill="green"/><path d="M349.559 228c0 .93-.778 1.68-1.739 1.68-.96 0-1.742-.75-1.742-1.68 0-.93.781-1.68 1.742-1.68s1.739.75 1.739 1.68zm0 0" fill="none" stroke-width=".12" stroke-linecap="round" stroke-linejoin="round" stroke="green" stroke-miterlimit="10"/><path d="M348.84 228a1.02 1.02 0 1 1-2.04-.001 1.02 1.02 0 0 1 2.04.001" fill-rule="evenodd" fill="#fff"/><path d="M348.84 228a1.02 1.02 0 1 1-2.04-.001 1.02 1.02 0 0 1 2.04.001zm0 0" fill="none" stroke-width=".06" stroke-linecap="square" stroke-linejoin="bevel" stroke="#000" stroke-miterlimit="10"/><path d="M346.078 222.48h3.48v-3.359h-3.48zm0 0" fill="green" stroke-width=".12" stroke-linecap="round" stroke-linejoin="round" stroke="green" stroke-miterlimit="10"/><path d="M348.84 220.8a1.02 1.02 0 1 1-2.04 0 1.02 1.02 0 0 1 2.04 0" fill-rule="evenodd" fill="#fff"/><path d="M348.84 220.8a1.02 1.02 0 1 1-2.04 0 1.02 1.02 0 0 1 2.04 0zm0 0" fill="none" stroke-width=".06" stroke-linecap="square" stroke-linejoin="bevel" stroke="#000" stroke-miterlimit="10"/><path d="M256.2 213.602a1.859 1.859 0 1 1-3.72 0c0-1.028.833-1.864 1.86-1.864 1.027 0 1.86.836 1.86 1.864" fill-rule="evenodd" fill="green"/><path d="M256.2 213.602a1.859 1.859 0 1 1-3.72 0c0-1.028.833-1.864 1.86-1.864 1.027 0 1.86.836 1.86 1.864zm0 0" fill="none" stroke-width=".12" stroke-linecap="round" stroke-linejoin="round" stroke="green" stroke-miterlimit="10"/><path d="M255.48 213.602c0 .628-.511 1.136-1.14 1.136a1.139 1.139 0 1 1 0-2.277c.629 0 1.14.508 1.14 1.14" fill-rule="evenodd" fill="#fff"/><path d="M255.48 213.602c0 .628-.511 1.136-1.14 1.136a1.139 1.139 0 1 1 0-2.277c.629 0 1.14.508 1.14 1.14zm0 0" fill="none" stroke-width=".06" stroke-linecap="square" stroke-linejoin="bevel" stroke="#000" stroke-miterlimit="10"/><path d="M256.2 235.14a1.859 1.859 0 1 1-3.718.002 1.859 1.859 0 0 1 3.717-.001" fill-rule="evenodd" fill="green"/><path d="M256.2 235.14a1.859 1.859 0 1 1-3.718.002 1.859 1.859 0 0 1 3.717-.001zm0 0" fill="none" stroke-width=".12" stroke-linecap="round" stroke-linejoin="round" stroke="green" stroke-miterlimit="10"/><path d="M255.48 235.14a1.141 1.141 0 1 1-2.282 0 1.141 1.141 0 0 1 2.282 0" fill-rule="evenodd" fill="#fff"/><path d="M255.48 235.14a1.141 1.141 0 1 1-2.282 0 1.141 1.141 0 0 1 2.282 0zm0 0" fill="none" stroke-width=".06" stroke-linecap="square" stroke-linejoin="bevel" stroke="#000" stroke-miterlimit="10"/><path d="M335.941 228a2.52 2.52 0 1 1-5.04-.002 2.52 2.52 0 0 1 5.04.002" fill-rule="evenodd" fill="green"/><path d="M335.941 228a2.52 2.52 0 1 1-5.04-.002 2.52 2.52 0 0 1 5.04.002zm0 0" fill="none" stroke-width=".12" stroke-linecap="round" stroke-linejoin="round" stroke="green" stroke-miterlimit="10"/><path d="M334.86 228a1.44 1.44 0 1 1-2.88 0 1.44 1.44 0 1 1 2.88 0" fill-rule="evenodd" fill="#fff"/><path d="M334.86 228a1.44 1.44 0 1 1-2.88 0 1.44 1.44 0 1 1 2.88 0zm0 0" fill="none" stroke-width=".06" stroke-linecap="square" stroke-linejoin="bevel" stroke="#000" stroke-miterlimit="10"/><path d="M335.941 242.34a2.52 2.52 0 1 1-5.04-.002 2.52 2.52 0 0 1 5.04.002" fill-rule="evenodd" fill="green"/><path d="M335.941 242.34a2.52 2.52 0 1 1-5.04-.002 2.52 2.52 0 0 1 5.04.002zm0 0" fill="none" stroke-width=".12" stroke-linecap="round" stroke-linejoin="round" stroke="green" stroke-miterlimit="10"/><path d="M334.86 242.34a1.44 1.44 0 1 1-2.88 0c0-.793.645-1.442 1.442-1.442.793 0 1.437.649 1.437 1.442" fill-rule="evenodd" fill="#fff"/><path d="M334.86 242.34a1.44 1.44 0 1 1-2.88 0c0-.793.645-1.442 1.442-1.442.793 0 1.437.649 1.437 1.442zm0 0" fill="none" stroke-width=".06" stroke-linecap="square" stroke-linejoin="bevel" stroke="#000" stroke-miterlimit="10"/><path d="M350.34 242.34a2.52 2.52 0 0 1-5.04 0 2.52 2.52 0 0 1 5.04 0" fill-rule="evenodd" fill="green"/><path d="M350.34 242.34a2.52 2.52 0 0 1-5.04 0 2.52 2.52 0 0 1 5.04 0zm0 0" fill="none" stroke-width=".12" stroke-linecap="round" stroke-linejoin="round" stroke="green" stroke-miterlimit="10"/><path d="M349.262 242.34c0 .797-.649 1.441-1.442 1.441a1.44 1.44 0 1 1 1.442-1.441" fill-rule="evenodd" fill="#fff"/><path d="M349.262 242.34c0 .797-.649 1.441-1.442 1.441a1.44 1.44 0 1 1 1.442-1.441zm0 0" fill="none" stroke-width=".06" stroke-linecap="square" stroke-linejoin="bevel" stroke="#000" stroke-miterlimit="10"/><path d="M248.879 242.34c0 .93-.777 1.68-1.738 1.68s-1.743-.75-1.743-1.68c0-.93.782-1.68 1.743-1.68.96 0 1.738.75 1.738 1.68" fill-rule="evenodd" fill="green"/><path d="M248.879 242.34c0 .93-.777 1.68-1.738 1.68s-1.743-.75-1.743-1.68c0-.93.782-1.68 1.743-1.68.96 0 1.738.75 1.738 1.68zm0 0" fill="none" stroke-width=".12" stroke-linecap="round" stroke-linejoin="round" stroke="green" stroke-miterlimit="10"/><path d="M248.16 242.34a1.02 1.02 0 1 1-2.04-.002 1.02 1.02 0 0 1 2.04.002" fill-rule="evenodd" fill="#fff"/><path d="M248.16 242.34a1.02 1.02 0 1 1-2.04-.002 1.02 1.02 0 0 1 2.04.002zm0 0" fill="none" stroke-width=".06" stroke-linecap="square" stroke-linejoin="bevel" stroke="#000" stroke-miterlimit="10"/><path d="M248.879 220.8c0 .927-.777 1.68-1.738 1.68s-1.743-.753-1.743-1.68c0-.929.782-1.679 1.743-1.679.96 0 1.738.75 1.738 1.68" fill-rule="evenodd" fill="green"/><path d="M248.879 220.8c0 .927-.777 1.68-1.738 1.68s-1.743-.753-1.743-1.68c0-.929.782-1.679 1.743-1.679.96 0 1.738.75 1.738 1.68zm0 0" fill="none" stroke-width=".12" stroke-linecap="round" stroke-linejoin="round" stroke="green" stroke-miterlimit="10"/><path d="M248.16 220.8a1.02 1.02 0 1 1-2.04 0 1.02 1.02 0 0 1 2.04 0" fill-rule="evenodd" fill="#fff"/><path d="M248.16 220.8a1.02 1.02 0 1 1-2.04 0 1.02 1.02 0 0 1 2.04 0zm0 0" fill="none" stroke-width=".06" stroke-linecap="square" stroke-linejoin="bevel" stroke="#000" stroke-miterlimit="10"/><path d="M263.281 228c0 .93-.781 1.68-1.742 1.68-.96 0-1.738-.75-1.738-1.68 0-.93.777-1.68 1.738-1.68s1.742.75 1.742 1.68" fill-rule="evenodd" fill="green"/><path d="M263.281 228c0 .93-.781 1.68-1.742 1.68-.96 0-1.738-.75-1.738-1.68 0-.93.777-1.68 1.738-1.68s1.742.75 1.742 1.68zm0 0" fill="none" stroke-width=".12" stroke-linecap="round" stroke-linejoin="round" stroke="green" stroke-miterlimit="10"/><path d="M262.559 228a1.02 1.02 0 1 1-2.04-.001 1.02 1.02 0 0 1 2.04.001" fill-rule="evenodd" fill="#fff"/><path d="M262.559 228a1.02 1.02 0 1 1-2.04-.001 1.02 1.02 0 0 1 2.04.001zm0 0" fill="none" stroke-width=".06" stroke-linecap="square" stroke-linejoin="bevel" stroke="#000" stroke-miterlimit="10"/><path d="M263.281 206.398c0 .93-.781 1.68-1.742 1.68-.96 0-1.738-.75-1.738-1.68 0-.925.777-1.68 1.738-1.68s1.742.755 1.742 1.68" fill-rule="evenodd" fill="green"/><path d="M263.281 206.398c0 .93-.781 1.68-1.742 1.68-.96 0-1.738-.75-1.738-1.68 0-.925.777-1.68 1.738-1.68s1.742.755 1.742 1.68zm0 0" fill="none" stroke-width=".12" stroke-linecap="round" stroke-linejoin="round" stroke="green" stroke-miterlimit="10"/><path d="M262.559 206.398c0 .567-.457 1.024-1.02 1.024a1.021 1.021 0 0 1 0-2.043c.563 0 1.02.457 1.02 1.02" fill-rule="evenodd" fill="#fff"/><path d="M262.559 206.398c0 .567-.457 1.024-1.02 1.024a1.021 1.021 0 0 1 0-2.043c.563 0 1.02.457 1.02 1.02zm0 0" fill="none" stroke-width=".06" stroke-linecap="square" stroke-linejoin="bevel" stroke="#000" stroke-miterlimit="10"/><path d="M277.621 220.8c0 .927-.781 1.68-1.742 1.68s-1.738-.753-1.738-1.68c0-.929.777-1.679 1.738-1.679.96 0 1.742.75 1.742 1.68" fill-rule="evenodd" fill="green"/><path d="M277.621 220.8c0 .927-.781 1.68-1.742 1.68s-1.738-.753-1.738-1.68c0-.929.777-1.679 1.738-1.679.96 0 1.742.75 1.742 1.68zm0 0" fill="none" stroke-width=".12" stroke-linecap="round" stroke-linejoin="round" stroke="green" stroke-miterlimit="10"/><path d="M276.898 220.8a1.02 1.02 0 1 1-2.04 0 1.02 1.02 0 0 1 2.04 0" fill-rule="evenodd" fill="#fff"/><path d="M276.898 220.8a1.02 1.02 0 1 1-2.04 0 1.02 1.02 0 0 1 2.04 0zm0 0" fill="none" stroke-width=".06" stroke-linecap="square" stroke-linejoin="bevel" stroke="#000" stroke-miterlimit="10"/><path d="M299.219 220.8c0 .927-.778 1.68-1.739 1.68-.96 0-1.742-.753-1.742-1.68 0-.929.782-1.679 1.742-1.679.961 0 1.739.75 1.739 1.68" fill-rule="evenodd" fill="green"/><path d="M299.219 220.8c0 .927-.778 1.68-1.739 1.68-.96 0-1.742-.753-1.742-1.68 0-.929.782-1.679 1.742-1.679.961 0 1.739.75 1.739 1.68zm0 0" fill="none" stroke-width=".12" stroke-linecap="round" stroke-linejoin="round" stroke="green" stroke-miterlimit="10"/><path d="M298.5 220.8a1.02 1.02 0 1 1-2.04 0 1.02 1.02 0 0 1 2.04 0" fill-rule="evenodd" fill="#fff"/><path d="M298.5 220.8a1.02 1.02 0 1 1-2.04 0 1.02 1.02 0 0 1 2.04 0zm0 0" fill="none" stroke-width=".06" stroke-linecap="square" stroke-linejoin="bevel" stroke="#000" stroke-miterlimit="10"/><path d="M306.422 220.8c0 .927-.781 1.68-1.742 1.68s-1.739-.753-1.739-1.68c0-.929.778-1.679 1.739-1.679.96 0 1.742.75 1.742 1.68" fill-rule="evenodd" fill="green"/><path d="M306.422 220.8c0 .927-.781 1.68-1.742 1.68s-1.739-.753-1.739-1.68c0-.929.778-1.679 1.739-1.679.96 0 1.742.75 1.742 1.68zm0 0" fill="none" stroke-width=".12" stroke-linecap="round" stroke-linejoin="round" stroke="green" stroke-miterlimit="10"/><path d="M305.7 220.8a1.02 1.02 0 1 1-2.041 0 1.02 1.02 0 0 1 2.04 0" fill-rule="evenodd" fill="#fff"/><path d="M305.7 220.8a1.02 1.02 0 1 1-2.041 0 1.02 1.02 0 0 1 2.04 0zm0 0" fill="none" stroke-width=".06" stroke-linecap="square" stroke-linejoin="bevel" stroke="#000" stroke-miterlimit="10"/><path d="M328.02 220.8c0 .927-.778 1.68-1.739 1.68-.96 0-1.742-.753-1.742-1.68 0-.929.781-1.679 1.742-1.679s1.739.75 1.739 1.68" fill-rule="evenodd" fill="green"/><path d="M328.02 220.8c0 .927-.778 1.68-1.739 1.68-.96 0-1.742-.753-1.742-1.68 0-.929.781-1.679 1.742-1.679s1.739.75 1.739 1.68zm0 0" fill="none" stroke-width=".12" stroke-linecap="round" stroke-linejoin="round" stroke="green" stroke-miterlimit="10"/><path d="M327.3 220.8a1.02 1.02 0 1 1-2.04 0 1.02 1.02 0 0 1 2.04 0" fill-rule="evenodd" fill="#fff"/><path d="M327.3 220.8a1.02 1.02 0 1 1-2.04 0 1.02 1.02 0 0 1 2.04 0zm0 0" fill="none" stroke-width=".06" stroke-linecap="square" stroke-linejoin="bevel" stroke="#000" stroke-miterlimit="10"/><path d="M335.16 220.8c0 .927-.777 1.68-1.738 1.68s-1.742-.753-1.742-1.68c0-.929.78-1.679 1.742-1.679.96 0 1.738.75 1.738 1.68" fill-rule="evenodd" fill="green"/><path d="M335.16 220.8c0 .927-.777 1.68-1.738 1.68s-1.742-.753-1.742-1.68c0-.929.78-1.679 1.742-1.679.96 0 1.738.75 1.738 1.68zm0 0" fill="none" stroke-width=".12" stroke-linecap="round" stroke-linejoin="round" stroke="green" stroke-miterlimit="10"/><path d="M334.441 220.8a1.021 1.021 0 1 1-2.043 0 1.021 1.021 0 0 1 2.043 0" fill-rule="evenodd" fill="#fff"/><path d="M334.441 220.8a1.021 1.021 0 1 1-2.043 0 1.021 1.021 0 0 1 2.043 0zm0 0" fill="none" stroke-width=".06" stroke-linecap="square" stroke-linejoin="bevel" stroke="#000" stroke-miterlimit="10"/><path d="M335.16 199.2c0 .929-.777 1.679-1.738 1.679s-1.742-.75-1.742-1.68c0-.926.78-1.68 1.742-1.68.96 0 1.738.754 1.738 1.68" fill-rule="evenodd" fill="green"/><path d="M335.16 199.2c0 .929-.777 1.679-1.738 1.679s-1.742-.75-1.742-1.68c0-.926.78-1.68 1.742-1.68.96 0 1.738.754 1.738 1.68zm0 0" fill="none" stroke-width=".12" stroke-linecap="round" stroke-linejoin="round" stroke="green" stroke-miterlimit="10"/><path d="M334.441 199.2a1.021 1.021 0 1 1-2.043 0 1.021 1.021 0 0 1 2.043 0" fill-rule="evenodd" fill="#fff"/><path d="M334.441 199.2a1.021 1.021 0 1 1-2.043 0 1.021 1.021 0 0 1 2.043 0zm0 0" fill="none" stroke-width=".06" stroke-linecap="square" stroke-linejoin="bevel" stroke="#000" stroke-miterlimit="10"/><path d="M307.441 206.398a2.762 2.762 0 0 1-2.761 2.762 2.758 2.758 0 0 1-2.758-2.762 2.76 2.76 0 0 1 5.52 0" fill-rule="evenodd" fill="green"/><path d="M307.441 206.398a2.762 2.762 0 0 1-2.761 2.762 2.758 2.758 0 0 1-2.758-2.762 2.76 2.76 0 0 1 5.52 0zm0 0" fill="none" stroke-width=".12" stroke-linecap="round" stroke-linejoin="round" stroke="green" stroke-miterlimit="10"/><path d="M306.121 206.398a1.44 1.44 0 1 1-2.88.003 1.44 1.44 0 0 1 2.88-.003" fill-rule="evenodd" fill="#fff"/><path d="M306.121 206.398a1.44 1.44 0 1 1-2.88.003 1.44 1.44 0 0 1 2.88-.003zm0 0" fill="none" stroke-width=".06" stroke-linecap="square" stroke-linejoin="bevel" stroke="#000" stroke-miterlimit="10"/><path d="M300.238 206.398a2.758 2.758 0 0 1-2.758 2.762 2.76 2.76 0 1 1 2.758-2.762" fill-rule="evenodd" fill="green"/><path d="M300.238 206.398a2.758 2.758 0 0 1-2.758 2.762 2.76 2.76 0 1 1 2.758-2.762zm0 0" fill="none" stroke-width=".12" stroke-linecap="round" stroke-linejoin="round" stroke="green" stroke-miterlimit="10"/><path d="M298.922 206.398c0 .797-.649 1.442-1.442 1.442a1.44 1.44 0 1 1 1.442-1.442" fill-rule="evenodd" fill="#fff"/><path d="M298.922 206.398c0 .797-.649 1.442-1.442 1.442a1.44 1.44 0 1 1 1.442-1.442zm0 0" fill="none" stroke-width=".06" stroke-linecap="square" stroke-linejoin="bevel" stroke="#000" stroke-miterlimit="10"/><path d="M293.04 206.398a2.758 2.758 0 0 1-2.759 2.762 2.76 2.76 0 1 1 2.758-2.762" fill-rule="evenodd" fill="green"/><path d="M293.04 206.398a2.758 2.758 0 0 1-2.759 2.762 2.76 2.76 0 1 1 2.758-2.762zm0 0" fill="none" stroke-width=".12" stroke-linecap="round" stroke-linejoin="round" stroke="green" stroke-miterlimit="10"/><path d="M291.719 206.398a1.44 1.44 0 1 1-2.88.004 1.44 1.44 0 0 1 2.88-.004" fill-rule="evenodd" fill="#fff"/><path d="M291.719 206.398a1.44 1.44 0 1 1-2.88.004 1.44 1.44 0 0 1 2.88-.004zm0 0" fill="none" stroke-width=".06" stroke-linecap="square" stroke-linejoin="bevel" stroke="#000" stroke-miterlimit="10"/><path d="M285.121 228a2.04 2.04 0 0 1-2.043 2.04 2.038 2.038 0 1 1 0-4.08 2.04 2.04 0 0 1 2.043 2.04" fill-rule="evenodd" fill="green"/><path d="M285.121 228a2.04 2.04 0 0 1-2.043 2.04 2.038 2.038 0 1 1 0-4.08 2.04 2.04 0 0 1 2.043 2.04zm0 0" fill="none" stroke-width=".12" stroke-linecap="round" stroke-linejoin="round" stroke="green" stroke-miterlimit="10"/><path d="M284.102 228a1.021 1.021 0 0 1-2.043 0 1.021 1.021 0 1 1 2.043 0" fill-rule="evenodd" fill="#fff"/><path d="M284.102 228a1.021 1.021 0 0 1-2.043 0 1.021 1.021 0 1 1 2.043 0zm0 0" fill="none" stroke-width=".06" stroke-linecap="square" stroke-linejoin="bevel" stroke="#000" stroke-miterlimit="10"/><path d="M285.121 242.34a2.039 2.039 0 0 1-2.043 2.039 2.038 2.038 0 1 1 0-4.078c1.129 0 2.043.914 2.043 2.039" fill-rule="evenodd" fill="green"/><path d="M285.121 242.34a2.039 2.039 0 0 1-2.043 2.039 2.038 2.038 0 1 1 0-4.078c1.129 0 2.043.914 2.043 2.039zm0 0" fill="none" stroke-width=".12" stroke-linecap="round" stroke-linejoin="round" stroke="green" stroke-miterlimit="10"/><path d="M284.102 242.34a1.021 1.021 0 0 1-2.043 0 1.021 1.021 0 1 1 2.043 0" fill-rule="evenodd" fill="#fff"/><path d="M284.102 242.34a1.021 1.021 0 0 1-2.043 0 1.021 1.021 0 1 1 2.043 0zm0 0" fill="none" stroke-width=".06" stroke-linecap="square" stroke-linejoin="bevel" stroke="#000" stroke-miterlimit="10"/><path d="M285.121 235.14a2.041 2.041 0 0 1-4.082 0c0-1.128.914-2.038 2.04-2.038 1.128 0 2.042.91 2.042 2.039" fill-rule="evenodd" fill="green"/><path d="M285.121 235.14a2.041 2.041 0 0 1-4.082 0c0-1.128.914-2.038 2.04-2.038 1.128 0 2.042.91 2.042 2.039zm0 0" fill="none" stroke-width=".12" stroke-linecap="round" stroke-linejoin="round" stroke="green" stroke-miterlimit="10"/><path d="M284.102 235.14a1.021 1.021 0 0 1-2.043 0 1.021 1.021 0 1 1 2.043 0" fill-rule="evenodd" fill="#fff"/><path d="M284.102 235.14a1.021 1.021 0 0 1-2.043 0 1.021 1.021 0 1 1 2.043 0zm0 0" fill="none" stroke-width=".06" stroke-linecap="square" stroke-linejoin="bevel" stroke="#000" stroke-miterlimit="10"/><path d="M313.922 228a2.04 2.04 0 0 1-2.043 2.04 2.038 2.038 0 1 1 0-4.08 2.04 2.04 0 0 1 2.043 2.04" fill-rule="evenodd" fill="green"/><path d="M313.922 228a2.04 2.04 0 0 1-2.043 2.04 2.038 2.038 0 1 1 0-4.08 2.04 2.04 0 0 1 2.043 2.04zm0 0" fill="none" stroke-width=".12" stroke-linecap="round" stroke-linejoin="round" stroke="green" stroke-miterlimit="10"/><path d="M312.898 228a1.02 1.02 0 1 1-2.04-.001 1.02 1.02 0 0 1 2.04.001" fill-rule="evenodd" fill="#fff"/><path d="M312.898 228a1.02 1.02 0 1 1-2.04-.001 1.02 1.02 0 0 1 2.04.001zm0 0" fill="none" stroke-width=".06" stroke-linecap="square" stroke-linejoin="bevel" stroke="#000" stroke-miterlimit="10"/><path d="M313.922 242.34a2.039 2.039 0 0 1-2.043 2.039 2.038 2.038 0 1 1 0-4.078c1.129 0 2.043.914 2.043 2.039" fill-rule="evenodd" fill="green"/><path d="M313.922 242.34a2.039 2.039 0 0 1-2.043 2.039 2.038 2.038 0 1 1 0-4.078c1.129 0 2.043.914 2.043 2.039zm0 0" fill="none" stroke-width=".12" stroke-linecap="round" stroke-linejoin="round" stroke="green" stroke-miterlimit="10"/><path d="M312.898 242.34a1.02 1.02 0 1 1-2.04-.002 1.02 1.02 0 0 1 2.04.002" fill-rule="evenodd" fill="#fff"/><path d="M312.898 242.34a1.02 1.02 0 1 1-2.04-.002 1.02 1.02 0 0 1 2.04.002zm0 0" fill="none" stroke-width=".06" stroke-linecap="square" stroke-linejoin="bevel" stroke="#000" stroke-miterlimit="10"/><path d="M313.922 235.14a2.041 2.041 0 0 1-4.082 0c0-1.128.914-2.038 2.039-2.038 1.129 0 2.043.91 2.043 2.039" fill-rule="evenodd" fill="green"/><path d="M313.922 235.14a2.041 2.041 0 0 1-4.082 0c0-1.128.914-2.038 2.039-2.038 1.129 0 2.043.91 2.043 2.039zm0 0" fill="none" stroke-width=".12" stroke-linecap="round" stroke-linejoin="round" stroke="green" stroke-miterlimit="10"/><path d="M312.898 235.14a1.02 1.02 0 1 1-2.04 0 1.02 1.02 0 0 1 2.04 0" fill-rule="evenodd" fill="#fff"/><path d="M312.898 235.14a1.02 1.02 0 1 1-2.04 0 1.02 1.02 0 0 1 2.04 0zm0 0" fill="none" stroke-width=".06" stroke-linecap="square" stroke-linejoin="bevel" stroke="#000" stroke-miterlimit="10"/><path d="M350.34 199.2a2.518 2.518 0 0 1-2.52 2.519 2.52 2.52 0 1 1 2.52-2.52" fill-rule="evenodd" fill="green"/><path d="M350.34 199.2a2.518 2.518 0 0 1-2.52 2.519 2.52 2.52 0 1 1 2.52-2.52zm0 0" fill="none" stroke-width=".12" stroke-linecap="round" stroke-linejoin="round" stroke="green" stroke-miterlimit="10"/><path d="M349.262 199.2c0 .796-.649 1.44-1.442 1.44a1.44 1.44 0 1 1 1.442-1.44" fill-rule="evenodd" fill="#fff"/><path d="M349.262 199.2c0 .796-.649 1.44-1.442 1.44a1.44 1.44 0 1 1 1.442-1.44zm0 0" fill="none" stroke-width=".06" stroke-linecap="square" stroke-linejoin="bevel" stroke="#000" stroke-miterlimit="10"/><path d="M243.84 187.922h-1.078m0 0l-.543-.48m0-.001l.543-.543m0 0h1.078m-.84 1.024v-1.024m.84-.538h-1.621m0 0l1.62-1.079m.001 0h-1.621m1.621-1.019h-1.621m0 .476v-1.02m.543-.538l-.543-.54m0 0h1.62m.001.54v-1.078" fill="none" stroke-width=".18" stroke-linecap="round" stroke-linejoin="round" stroke="#505050" stroke-miterlimit="10"/><path d="M248.941 203.879l-.12-.54-.243-.48-.418-.418-.48-.242-.54-.12m1.801 6.843v-5.043m-1.801 6.84l.54-.059.48-.3.418-.36.242-.54.121-.538" fill="none" stroke-width=".36" stroke-linecap="round" stroke-linejoin="round" stroke="#505050" stroke-miterlimit="10"/><path d="M245.34 208.922l.058.539.301.539.36.36.543.3.539.059m-1.801-6.84v5.043m1.8-6.844l-.538.121-.543.242-.36.418-.3.48-.06.54" fill="none" stroke-width=".36" stroke-linecap="round" stroke-linejoin="round" stroke="#505050" stroke-miterlimit="10"/><path d="M245.7 206.04h2.882v-.72h-2.883zm0 1.44h2.882v-.718h-2.883zm0 0" fill="#505050" stroke-width=".12" stroke-linecap="round" stroke-linejoin="round" stroke="#505050" stroke-miterlimit="10"/><path d="M248.941 203.879l-.12-.54-.243-.48-.418-.418-.48-.242-.54-.12m24.06 34.862l.6-.062.481-.238.418-.422.242-.48.059-.598m-6.84 1.8h5.04m-6.778-1.801l.058.598.239.48.422.423.48.238.54.062" fill="none" stroke-width=".36" stroke-linecap="round" stroke-linejoin="round" stroke="#505050" stroke-miterlimit="10"/><path d="M266.16 233.34l-.539.12-.48.24-.422.421-.239.48-.058.54m6.778-1.801h-5.04m6.84 1.8l-.059-.538-.242-.48-.418-.423-.48-.238-.602-.121" fill="none" stroke-width=".36" stroke-linecap="round" stroke-linejoin="round" stroke="#505050" stroke-miterlimit="10"/><path d="M269.04 236.578h.722V233.7h-.723zm-1.438 0h.718V233.7h-.718zm0 0" fill="#505050" stroke-width=".12" stroke-linecap="round" stroke-linejoin="round" stroke="#505050" stroke-miterlimit="10"/><path d="M271.2 236.941l.6-.062.481-.238.418-.422.242-.48.059-.598m26.281-2.52l-.062-.543-.297-.476-.363-.422-.54-.239-.539-.12m1.801 6.839v-5.039m-1.801 6.839l.54-.062.539-.238.363-.422.297-.476.062-.602M295.68 237.66l.058.602.301.476.36.422.542.238.54.063m-1.801-6.84v5.04m1.8-6.841l-.539.121-.543.239-.359.422-.3.476-.06.543" fill="none" stroke-width=".36" stroke-linecap="round" stroke-linejoin="round" stroke="#505050" stroke-miterlimit="10"/><path d="M296.04 234.781h2.882v-.722h-2.883zm0 1.438h2.882v-.719h-2.883zm0 0" fill="#505050" stroke-width=".12" stroke-linecap="round" stroke-linejoin="round" stroke="#505050" stroke-miterlimit="10"/><path d="M299.281 232.621l-.062-.543-.297-.476-.363-.422-.54-.239-.539-.12m16.918-15.423l.543-.117.48-.242.419-.36.238-.538.121-.54m-6.839 1.797h5.038m-6.839-1.796l.062.539.3.539.36.36.54.241.538.117m.001-3.598l-.54.06-.539.3-.36.36-.3.539-.062.543m6.839-1.802h-5.039M316.2 213.602l-.122-.543-.238-.54-.418-.359-.48-.3-.544-.06" fill="none" stroke-width=".36" stroke-linecap="round" stroke-linejoin="round" stroke="#505050" stroke-miterlimit="10"/><path d="M312.238 215.04h.723v-2.88h-.723zm-1.438 0h.72v-2.88h-.72zm0 0" fill="#505050" stroke-width=".12" stroke-linecap="round" stroke-linejoin="round" stroke="#505050" stroke-miterlimit="10"/><path d="M314.398 215.398l.543-.117.48-.242.419-.36.238-.538.121-.54m11.879 19.02l-.117-.543-.242-.476-.418-.422-.48-.239-.54-.12m1.797 6.839v-5.039m-1.797 6.839l.54-.062.48-.238.418-.422.242-.476.117-.602m-3.598 0l.06.602.241.476.418.422.48.238.602.063m-1.801-6.84v5.04m1.801-6.841l-.601.121-.48.239-.419.422-.242.476-.059.543" fill="none" stroke-width=".36" stroke-linecap="round" stroke-linejoin="round" stroke="#505050" stroke-miterlimit="10"/><path d="M324.84 234.781h2.879v-.722h-2.88zm0 1.438h2.879v-.719h-2.88zm0 0" fill="#505050" stroke-width=".12" stroke-linecap="round" stroke-linejoin="round" stroke="#505050" stroke-miterlimit="10"/><path d="M328.078 232.621l-.117-.543-.242-.476-.418-.422-.48-.239-.54-.12" fill="none" stroke-width=".36" stroke-linecap="round" stroke-linejoin="round" stroke="#505050" stroke-miterlimit="10"/><path d="M350.52 222.238v.364m-.36 0h.36m0 0v.359m0-.359h.359" fill="none" stroke-width=".24" stroke-linecap="round" stroke-linejoin="round" stroke="#505050" stroke-miterlimit="10"/><path d="M352.14 224.398a4.32 4.32 0 0 1-4.32 4.32 4.32 4.32 0 1 1 0-8.64 4.322 4.322 0 0 1 4.32 4.32zm0 0" fill="none" stroke-width=".36" stroke-linecap="round" stroke-linejoin="round" stroke="#505050" stroke-miterlimit="10"/><path d="M345.898 225.48h3.84v-.601h-3.84zm0 0" fill="#505050" stroke-width=".12" stroke-linecap="round" stroke-linejoin="round" stroke="#505050" stroke-miterlimit="10"/><path d="M256.14 222.238l-.12-.476-.18-.364-.3-.359-.419-.18-.422-.058m-.719-.001l-.48.06-.36.18-.359.358-.18.364-.062.476m.001 4.321l.062.421.18.418.359.301.359.18.48.121m.72 0l.421-.121.418-.18.3-.3.18-.419.122-.421m-2.161-5.759h.72m1.44 5.759v-4.32m-3.6 4.32v-4.32m1.44 5.761h.72" fill="none" stroke-width=".3" stroke-linecap="round" stroke-linejoin="round" stroke="#505050" stroke-miterlimit="10"/><path d="M255.422 226.2h-2.16m0 0l1.078-1.981m0 0l1.082 1.98m0-1.98h-1.082m0 0h-1.078" fill="none" stroke-width=".24" stroke-linecap="round" stroke-linejoin="round" stroke="#505050" stroke-miterlimit="10"/><path d="M252.54 222.781h3.6v-.722h-3.6zm1.5 9.719h.6v-4.441h-.6zm0-11.82h.6v-4.442h-.6zm0 0" fill="#505050" stroke-width=".12" stroke-linecap="round" stroke-linejoin="round" stroke="#505050" stroke-miterlimit="10"/><path d="M331.379 223.078h-1.02m.001 0v1.563m0-.001h1.019m-1.019-.78h.48m1.082.78v-1.019m0 0l.539-.543m-.001 0l.54.543m0 0v1.02m-1.078-.781H333m.54.78v-1.562m0 0h.78m0 0l.239.242m0 0v.54m0 0l-.239.3m0 0h-.78m.48 0l.539.48m.543-.78h1.078m-.54-.54v1.078m-4.261 21.242h-1.02m.001 0v1.622m0 0h1.019m-1.019-.84h.48m1.082.84v-1.082m0 0l.539-.54m-.001 0l.54.54m0 0v1.082m-1.078-.84H333m.54.84v-1.621m0-.001h.78m0 0l.239.301m0 0v.48m0 .001l-.239.297m0 0h-.78m.48 0l.539.543m.543-.84h1.078m15.242-2.82l-.3.296m-.001 0v.48m0 .001l.3.3m.001.001h1.02m-.001 0l.297-.301m0 0v-.48m0-.001l-.297-.296m0 0h-.48m-.001 0v.539m.778-1.082h-1.617m0 0l1.617-1.02m0 .001h-1.617m0-.54h1.617m0 0v-.781m0 0l-.297-.297m0 0h-1.02m.001 0l-.3.297m-.001 0v.781" fill="none" stroke-width=".18" stroke-linecap="round" stroke-linejoin="round" stroke="#505050" stroke-miterlimit="10"/><path d="M245.34 234.422l.058.297.122.242.242.117.297.063m2.16-.001l.242-.062.238-.117.18-.242.062-.297m0-5.703l-.062-.297-.18-.242-.238-.18h-.242m-2.16 0h-.297l-.242.18-.122.242-.058.297" fill="none" stroke-width=".48" stroke-linecap="round" stroke-linejoin="round" stroke="#505050" stroke-miterlimit="10"/><path d="M245.34 234.422l.058.297.122.242.242.117.297.063m2.16-.001l.242-.062.238-.117.18-.242.062-.297m0-5.703l-.062-.297-.18-.242-.238-.18h-.242m-2.16 0h-.297l-.242.18-.122.242-.058.297m2.879 6.421h-2.16m-.719-6.421v5.703m3.601-5.703v5.703m-.722-6.422h-2.16" fill="none" stroke-width=".48" stroke-linecap="round" stroke-linejoin="round" stroke="#505050" stroke-miterlimit="10"/><path d="M246.781 228h.719v-1.082h-.719zm0 8.219h.719v-1.078h-.719zm0 0" fill="#505050" stroke-width=".12" stroke-linecap="round" stroke-linejoin="round" stroke="#505050" stroke-miterlimit="10"/><path d="M259.738 220.078v.242l.184.239.238.18.3.062m2.161-.001l.238-.062.243-.18.18-.238.058-.242m0-5.758l-.059-.3-.18-.239-.242-.12-.238-.06m-2.161.001l-.3.058-.238.121-.184.239v.3" fill="none" stroke-width=".48" stroke-linecap="round" stroke-linejoin="round" stroke="#505050" stroke-miterlimit="10"/><path d="M259.738 220.078v.242l.184.239.238.18.3.062m2.161-.001l.238-.062.243-.18.18-.238.058-.242m0-5.758l-.059-.3-.18-.239-.242-.12-.238-.06m-2.161.001l-.3.058-.238.121-.184.239v.3m2.883 6.48h-2.16m-.723-6.48v5.758m3.602-5.758v5.758m-.719-6.476h-2.16" fill="none" stroke-width=".48" stroke-linecap="round" stroke-linejoin="round" stroke="#505050" stroke-miterlimit="10"/><path d="M261.18 213.602h.718v-1.082h-.718zm0 8.277h.718V220.8h-.718zm0 0" fill="#505050" stroke-width=".12" stroke-linecap="round" stroke-linejoin="round" stroke="#505050" stroke-miterlimit="10"/><path d="M283.8 219l-.241.059-.239.12-.18.243-.062.297m0 2.16l.063.242.18.238.238.18.242.063m5.758 0l.3-.063.243-.18.117-.238.062-.242m0-2.16l-.062-.297-.117-.242-.243-.121-.3-.059" fill="none" stroke-width=".48" stroke-linecap="round" stroke-linejoin="round" stroke="#505050" stroke-miterlimit="10"/><path d="M283.8 219l-.241.059-.239.12-.18.243-.062.297m0 2.16l.063.242.18.238.238.18.242.063m5.758 0l.3-.063.243-.18.117-.238.062-.242m0-2.16l-.062-.297-.117-.242-.243-.121-.3-.059m-6.481 2.879v-2.16m6.481-.719H283.8m5.759 3.602H283.8m6.481-.723v-2.16" fill="none" stroke-width=".48" stroke-linecap="round" stroke-linejoin="round" stroke="#505050" stroke-miterlimit="10"/><path d="M290.281 221.16h1.078v-.719h-1.078zm-8.281 0h1.082v-.719H282zm0 0" fill="#505050" stroke-width=".12" stroke-linecap="round" stroke-linejoin="round" stroke="#505050" stroke-miterlimit="10"/><path d="M312.602 219l-.301.059-.242.12-.118.243-.062.297m0 2.16l.062.242.118.238.242.18.3.063m5.759 0l.242-.063.238-.18.18-.238.058-.242m0-2.16l-.058-.297-.18-.242-.238-.121-.243-.059" fill="none" stroke-width=".48" stroke-linecap="round" stroke-linejoin="round" stroke="#505050" stroke-miterlimit="10"/><path d="M312.602 219l-.301.059-.242.12-.118.243-.062.297m0 2.16l.062.242.118.238.242.18.3.063m5.759 0l.242-.063.238-.18.18-.238.058-.242m0-2.16l-.058-.297-.18-.242-.238-.121-.243-.059m-6.48 2.879v-2.16m6.481-.719h-5.758m5.758 3.602h-5.758m6.476-.723v-2.16" fill="none" stroke-width=".48" stroke-linecap="round" stroke-linejoin="round" stroke="#505050" stroke-miterlimit="10"/><path d="M319.078 221.16h1.082v-.719h-1.082zm-8.278 0h1.079v-.719H310.8zm0 0" fill="#505050" stroke-width=".12" stroke-linecap="round" stroke-linejoin="round" stroke="#505050" stroke-miterlimit="10"/><path d="M331.621 212.879l.059.3.18.18.242.18.238.063m2.16 0l.3-.063.24-.18.179-.18v-.3m0-5.758v-.3l-.18-.18-.238-.18-.301-.063m-2.16 0l-.238.063-.243.18-.18.18-.058.3" fill="none" stroke-width=".48" stroke-linecap="round" stroke-linejoin="round" stroke="#505050" stroke-miterlimit="10"/><path d="M331.621 212.879l.059.3.18.18.242.18.238.063m2.16 0l.3-.063.24-.18.179-.18v-.3m0-5.758v-.3l-.18-.18-.238-.18-.301-.063m-2.16 0l-.238.063-.243.18-.18.18-.058.3m2.879 6.481h-2.16m-.719-6.481v5.758m3.598-5.758v5.758m-.719-6.481h-2.16" fill="none" stroke-width=".48" stroke-linecap="round" stroke-linejoin="round" stroke="#505050" stroke-miterlimit="10"/><path d="M333.059 206.398h.722v-1.078h-.722zm0 8.282h.722v-1.078h-.722zm0 0" fill="#505050" stroke-width=".12" stroke-linecap="round" stroke-linejoin="round" stroke="#505050" stroke-miterlimit="10"/><path d="M310.32 199.5h-25.68m25.68-5.64h-3.12m3.12 5.64v-5.64m-3.12 0v5.402m3.12 2.34h-25.68m15.66-13.262v-9.899m-5.64 0v9.899m7.078 10.922V189.18m0 0l-1.437-.84m-5.641 0l-1.441.84m0 0v10.082m7.081-10.922h-5.64m5.64-9.899h-5.64m15.66 21.059v11.16m-25.68-11.16v11.16m16.801-20.52l-7.921 1.438m7.921-.058l-7.921 1.5m7.921-.06l-7.921 1.5m7.921-.12l-7.921 1.5m7.921-.059l-7.921 1.5m7.921-.062l-7.921 1.441m7.261-9.84l-7.261 1.5m16.8 20.34h-25.68" fill="none" stroke-width=".6" stroke-linecap="round" stroke-linejoin="round" stroke="#505050" stroke-miterlimit="10"/><path d="M278.398 229.262v11.816m7.922.902l1.14-.66.962-.84.84-1.02.66-1.14.476-1.199.243-1.32v-1.32l-.243-1.262-.476-1.258-.66-1.14-.84-.962-.961-.84-1.14-.66m-3.243 14.341v-15.06m3.242.72l-1.02-.419-1.081-.242-1.14-.058m-.001-.001l-1.078.06-1.078.241-1.024.418m0 .001l-.777.359-.723.543m1.5 12.718l1.024.36 1.078.238 1.078.121m0 .001l1.14-.06 1.083-.242 1.02-.418m-7.923-.902l.782.543.78.418m27.24-12.777v11.816m7.859.902l1.14-.66 1.02-.84.84-1.02.66-1.14.422-1.199.238-1.32v-1.32l-.238-1.262-.422-1.258-.66-1.14-.84-.962-1.02-.84-1.14-.66m-3.18 14.341v-15.06m3.18.72l-1.02-.419-1.078-.242-1.082-.058m0-.001l-1.14.06-1.079.241-1.02.418m0 .001l-.718.359-.723.543m1.441 12.718l1.02.36 1.078.238 1.14.121m.001.001l1.082-.06 1.078-.242 1.02-.418m-7.859-.902l.722.543.777.418" fill="none" stroke-width=".36" stroke-linecap="round" stroke-linejoin="round" stroke="#505050" stroke-miterlimit="10"/><path d="M351.121 201.54h1.078m.001 0l.538-.54m0 0l-.539-.54m.001 0h-1.079m.301-1.562l-.3.243m-.001-.001v.54m0 0l.3.242m.001 0h1.02m-.001 0l.297-.242m0 0v-.54m0 0l-.297-.242m-1.019-1.617l-.3.297m-.001 0v.48m0 .001l.3.3m.001.001h1.02m-.001 0l.297-.301m0 0v-.48m0-.001l-.297-.297" fill="none" stroke-width=".18" stroke-linecap="round" stroke-linejoin="round" stroke="#505050" stroke-miterlimit="10"/><path d="M247.14 213.602v-6.063m0-8.339v6.12m14.4 29.82h6.062m8.277 0h-6.117m27.718 7.2v-6.059m0-8.281v6.059m7.2-20.457h6.058m8.34 0h-6.117m13.32 28.738v-6.059m0-8.281v6.059M347.82 220.8v2.34m0 0h-1.98m0 0v.84m0 0h3.96m0 0v-.84m0 0h-1.98m0 4.86v-2.34m0 0h1.98m0 0v-.898m0 0h-3.96m0 0v.898m0 0h1.98" fill="none" stroke-width=".24" stroke-linecap="round" stroke-linejoin="round" stroke="#505050" stroke-miterlimit="10"/><path d="M254.34 235.14v-2.519" fill="none" stroke-width=".36" stroke-linecap="round" stroke-linejoin="round" stroke="#505050" stroke-miterlimit="10"/><path d="M254.34 223.5v3.422" fill="none" stroke-width=".24" stroke-linecap="round" stroke-linejoin="round" stroke="#505050" stroke-miterlimit="10"/><path d="M254.34 213.602v2.52" fill="none" stroke-width=".36" stroke-linecap="round" stroke-linejoin="round" stroke="#505050" stroke-miterlimit="10"/><path d="M247.14 220.8v6.122m0 15.418v-6.121m14.4-29.821v6.122m0 15.48v-6.121m35.94-1.079h-6.12m-15.481 0H282m44.281 0h-6.12m-15.481 0h6.12m22.622-21.6v6.12m0 15.48v-6.12" fill="none" stroke-width=".72" stroke-linecap="round" stroke-linejoin="round" stroke="#505050" stroke-miterlimit="10"/><use xlink:href="#a" x="250.004" y="207.845" fill="#505050"/><use xlink:href="#b" x="252.404" y="207.845" fill="#505050"/><use xlink:href="#a" x="269.482" y="240.378" fill="#505050"/><use xlink:href="#c" x="271.882" y="240.378" fill="#505050"/><use xlink:href="#d" x="302.698" y="234.39" fill="#505050"/><use xlink:href="#e" x="302.698" y="231.99" fill="#505050"/><use xlink:href="#a" x="312.642" y="218.811" fill="#505050"/><use xlink:href="#f" x="315.042" y="218.811" fill="#505050"/><use xlink:href="#d" x="331.471" y="234.39" fill="#505050"/><use xlink:href="#g" x="331.471" y="231.99" fill="#505050"/><use xlink:href="#d" x="355.569" y="226.658" fill="#505050"/><use xlink:href="#h" x="355.569" y="224.258" fill="#505050"/><use xlink:href="#i" x="247.483" y="218.986" fill="#505050"/><use xlink:href="#j" x="249.703" y="218.986" fill="#505050"/><use xlink:href="#k" x="241.667" y="226.175" fill="#505050"/><use xlink:href="#b" x="244.188" y="226.175" fill="#505050"/><use xlink:href="#l" x="266.911" y="219.529" fill="#505050"/><use xlink:href="#m" x="266.911" y="217.009" fill="#505050"/><use xlink:href="#l" x="294.965" y="220.065" fill="#505050"/><use xlink:href="#e" x="294.965" y="217.545" fill="#505050"/><use xlink:href="#l" x="323.738" y="220.065" fill="#505050"/><use xlink:href="#g" x="323.738" y="217.545" fill="#505050"/><use xlink:href="#k" x="327.988" y="204.608" fill="#505050"/><use xlink:href="#n" x="330.508" y="204.608" fill="#505050"/><use xlink:href="#k" x="305.688" y="215.396" fill="#505050"/><use xlink:href="#o" x="308.208" y="215.396" fill="#505050"/><use xlink:href="#p" x="283.691" y="236.602" fill="#505050"/><use xlink:href="#b" x="286.031" y="236.602" fill="#505050"/><use xlink:href="#p" x="312.465" y="236.602" fill="#505050"/><use xlink:href="#c" x="314.804" y="236.602" fill="#505050"/><use xlink:href="#b" x="235.37" y="207.845" fill="#505050"/><use xlink:href="#q" x="237.59" y="207.845" fill="#505050"/><use xlink:href="#q" x="239.81" y="207.845" fill="#505050"/><use xlink:href="#r" x="242.03" y="207.845" fill="#505050"/><use xlink:href="#j" x="262.593" y="232.825" fill="#505050"/><use xlink:href="#s" x="264.333" y="232.825" fill="#505050"/><use xlink:href="#t" x="266.073" y="232.825" fill="#505050"/><use xlink:href="#u" x="295.142" y="241.273" fill="#505050"/><use xlink:href="#v" x="295.142" y="239.533" fill="#505050"/><use xlink:href="#j" x="305.752" y="211.258" fill="#505050"/><use xlink:href="#s" x="307.492" y="211.258" fill="#505050"/><use xlink:href="#t" x="309.232" y="211.258" fill="#505050"/><use xlink:href="#u" x="323.916" y="241.273" fill="#505050"/><use xlink:href="#v" x="323.916" y="239.533" fill="#505050"/><use xlink:href="#u" x="342.978" y="226.119" fill="#505050"/><use xlink:href="#w" x="342.978" y="224.378" fill="#505050"/><use xlink:href="#x" x="243.763" y="232.05" fill="#505050"/><use xlink:href="#y" x="246.043" y="232.05" fill="#505050"/><use xlink:href="#z" x="247.963" y="232.05" fill="#505050"/><use xlink:href="#A" x="249.703" y="232.05" fill="#505050"/><use xlink:href="#j" x="241.308" y="239.239" fill="#505050"/><use xlink:href="#s" x="243.048" y="239.239" fill="#505050"/><use xlink:href="#B" x="244.788" y="239.239" fill="#505050"/><use xlink:href="#u" x="262.654" y="220.189" fill="#505050"/><use xlink:href="#C" x="262.654" y="218.449" fill="#505050"/><use xlink:href="#D" x="262.654" y="216.709" fill="#505050"/><use xlink:href="#u" x="281.295" y="220.065" fill="#505050"/><use xlink:href="#C" x="281.295" y="218.325" fill="#505050"/><use xlink:href="#D" x="281.295" y="216.585" fill="#505050"/><use xlink:href="#u" x="310.069" y="220.065" fill="#505050"/><use xlink:href="#C" x="310.069" y="218.325" fill="#505050"/><use xlink:href="#D" x="310.069" y="216.585" fill="#505050"/><use xlink:href="#j" x="325.888" y="217.672" fill="#505050"/><use xlink:href="#s" x="327.628" y="217.672" fill="#505050"/><use xlink:href="#s" x="329.368" y="217.672" fill="#505050"/><use xlink:href="#B" x="331.108" y="217.672" fill="#505050"/><use xlink:href="#E" x="280.926" y="198.138" fill="#505050"/><use xlink:href="#F" x="283.686" y="198.138" fill="#505050"/><use xlink:href="#F" x="286.446" y="198.138" fill="#505050"/><use xlink:href="#G" x="289.206" y="198.138" fill="#505050"/><use xlink:href="#H" x="281.895" y="239.662" fill="#505050"/><use xlink:href="#I" x="281.895" y="237.742" fill="#505050"/><use xlink:href="#J" x="281.895" y="235.822" fill="#505050"/><use xlink:href="#K" x="281.895" y="234.082" fill="#505050"/><use xlink:href="#L" x="281.895" y="232.342" fill="#505050"/><use xlink:href="#H" x="310.668" y="239.662" fill="#505050"/><use xlink:href="#I" x="310.668" y="237.742" fill="#505050"/><use xlink:href="#J" x="310.668" y="235.822" fill="#505050"/><use xlink:href="#K" x="310.668" y="234.082" fill="#505050"/><use xlink:href="#L" x="310.668" y="232.342" fill="#505050"/><path d="M275.879 235.14V220.8m7.199 14.34h-7.2m-21.538 0l7.2-7.14m0 7.14h-7.2m-7.2-21.538h7.2m-7.2 7.198l7.2-7.198m-7.2-14.402v-14.34m86.282 14.34h14.398m0 21.6v-21.6m-43.14 7.198l28.742-7.199m-71.882 7.199h43.14m-7.2 14.402l-7.199-14.402M297.48 228v-7.2m-14.402 7.2h14.402m0-21.602l7.2 7.204m0 7.198l14.398-7.198m-7.199 21.538l-7.2-14.34m21.602 0h7.14m.001 7.2v-7.2m-7.141 7.2v-7.2m-14.402 7.2h14.402m21.539 14.34V228m-14.398 14.34h14.398m-21.539 0h7.14m-21.542 0h14.402m-28.801 0h14.399m-28.801 0h14.402m-50.34 0h35.938" fill="none" stroke-width=".12" stroke-linecap="round" stroke-linejoin="round" stroke="olive" stroke-miterlimit="10"/><g clip-path="url(#M)"><path d="M232.738 249.54h129.48" fill="none" stroke-width=".12" stroke-linecap="round" stroke-linejoin="round" stroke="#000" stroke-miterlimit="10"/></g><g clip-path="url(#N)"><path d="M362.219 249.54v-79.08" fill="none" stroke-width=".12" stroke-linecap="round" stroke-linejoin="round" stroke="#000" stroke-miterlimit="10"/></g><g clip-path="url(#O)"><path d="M362.219 170.46h-129.48" fill="none" stroke-width=".12" stroke-linecap="round" stroke-linejoin="round" stroke="#000" stroke-miterlimit="10"/></g><g clip-path="url(#P)"><path d="M232.738 170.46v79.08" fill="none" stroke-width=".12" stroke-linecap="round" stroke-linejoin="round" stroke="#000" stroke-miterlimit="10"/></g></svg>