<svg xmlns:xlink="http://www.w3.org/1999/xlink" width="842pt" height="595pt" viewBox="0 0 842 595">
  <defs/>
  <defs>
    <symbol id="Amazing-All-Band-Receiver-1_svg__a" overflow="visible">
      <path d="M1.906-2.078c.082.105.149.23.203.375.051.156.079.336.079.531 0 .188-.028.36-.079.516a1.31 1.31 0 0 1-.203.39 1.037 1.037 0 0 1-.343.235c-.125.05-.266.078-.422.078C.984.047.844.02.719-.031A.724.724 0 0 1 .39-.266a1.05 1.05 0 0 1-.22-.39 1.943 1.943 0 0 1-.062-.516c0-.195.02-.375.063-.531.05-.145.125-.27.219-.375a.787.787 0 0 1 .328-.235 1.036 1.036 0 0 1 1.188.234zm-.047.906a1.76 1.76 0 0 0-.046-.422 1.916 1.916 0 0 0-.141-.297.951.951 0 0 0-.234-.187.861.861 0 0 0-.297-.047.83.83 0 0 0-.297.047.624.624 0 0 0-.219.187.885.885 0 0 0-.14.313c-.044.117-.063.25-.063.406 0 .313.066.547.203.703.125.168.297.25.516.25a.65.65 0 0 0 .53-.25c.126-.156.188-.39.188-.703zm0 0"/>
    </symbol>
    <symbol id="Amazing-All-Band-Receiver-1_svg__b" overflow="visible"/>
    <symbol id="Amazing-All-Band-Receiver-1_svg__c" overflow="visible"/>
    <symbol id="Amazing-All-Band-Receiver-1_svg__d" overflow="visible">
      <path d="M1.313-1.39c0-.157-.016-.286-.047-.391a.74.74 0 0 0-.125-.235A.552.552 0 0 0 1-2.109a.37.37 0 0 0-.156-.032A.353.353 0 0 0 .547-2c-.086.094-.125.23-.125.406 0 .094.016.172.047.235a.28.28 0 0 0 .125.171c.031.032.07.055.125.063a.816.816 0 0 0 .39-.016c.07-.02.141-.05.204-.093v-.157zM.109-1.595a.86.86 0 0 1 .063-.328.628.628 0 0 1 .156-.25.702.702 0 0 1 .813-.172.793.793 0 0 1 .234.156c.082.086.145.2.188.344.039.137.062.313.062.532 0 .187-.023.37-.063.546-.042.18-.105.325-.187.438a.93.93 0 0 1-.328.281 1.044 1.044 0 0 1-.469.094.724.724 0 0 1-.14-.016.644.644 0 0 1-.127-.014v-.297h.016a.37.37 0 0 0 .125.031c.05.023.11.031.172.031.195 0 .36-.066.484-.203.114-.144.18-.344.204-.594a.714.714 0 0 1-.25.125.634.634 0 0 1-.25.047.74.74 0 0 1-.454-.14.526.526 0 0 1-.187-.25.86.86 0 0 1-.063-.36zm0 0"/>
    </symbol>
    <symbol id="Amazing-All-Band-Receiver-1_svg__t" overflow="visible">
      <path d="M2.094-1.172c0 .219-.043.414-.125.578a1.04 1.04 0 0 1-.36.406 1.211 1.211 0 0 1-.359.157A2.651 2.651 0 0 1 .781 0H.234v-2.344h.547c.219 0 .39.016.516.047.125.031.226.074.312.125.157.106.274.242.36.406.082.168.125.368.125.594zm-.328 0c0-.187-.032-.344-.094-.469a.63.63 0 0 0-.266-.296.979.979 0 0 0-.265-.11 1.72 1.72 0 0 0-.344-.031h-.25v1.812h.25c.133 0 .254-.007.36-.03a.783.783 0 0 0 .531-.422c.05-.126.078-.274.078-.454zm0 0"/>
    </symbol>
    <symbol id="Amazing-All-Band-Receiver-1_svg__u" overflow="visible">
      <path d="M1.5 0H.36v-.234h.42v-1.579H.36v-.218c.157 0 .274-.02.36-.063.07-.05.113-.14.125-.265h.25v2.125H1.5zm0 0"/>
    </symbol>
    <symbol id="Amazing-All-Band-Receiver-1_svg__E" overflow="visible">
      <path d="M1.922 0h-.36L.532-2.031V0H.233v-2.344h.454l.937 1.86v-1.86h.297zm0 0"/>
    </symbol>
    <symbol id="Amazing-All-Band-Receiver-1_svg__F" overflow="visible">
      <path d="M.781 0v-2.078H0v-.266h1.89v.266h-.796V0zm0 0"/>
    </symbol>
    <symbol id="Amazing-All-Band-Receiver-1_svg__e" overflow="visible">
      <path d="M1.86 0H.436v-.297H.97V-2.25H.438v-.266c.195 0 .347-.03.453-.093.093-.051.144-.157.156-.313h.297v2.625h.515zm0 0"/>
    </symbol>
    <symbol id="Amazing-All-Band-Receiver-1_svg__f" overflow="visible">
      <path d="M2.031-1.453c0 .523-.078.902-.234 1.14-.149.25-.383.376-.703.376C.77.063.535-.064.39-.314.234-.563.156-.94.156-1.452c0-.531.078-.914.235-1.156.156-.25.39-.375.703-.375.32 0 .554.132.703.39.156.25.234.633.234 1.14zm-.5.875a2.32 2.32 0 0 0 .078-.36 9.314 9.314 0 0 0 0-1.046 2.427 2.427 0 0 0-.078-.36.573.573 0 0 0-.172-.234.414.414 0 0 0-.265-.078.446.446 0 0 0-.266.078.512.512 0 0 0-.172.234 1.997 1.997 0 0 0-.078.375 6.995 6.995 0 0 0-.015.516c0 .2.003.371.015.516.008.136.035.257.078.359.04.105.098.183.172.234.063.055.149.078.266.078a.436.436 0 0 0 .265-.078.525.525 0 0 0 .172-.234zm0 0"/>
    </symbol>
    <symbol id="Amazing-All-Band-Receiver-1_svg__g" overflow="visible">
      <path d="M2.078 0h-.484L.78-1.063l-.14.141V0H.266v-3.047H.64v1.781l.859-.921h.453l-.89.906zm0 0"/>
    </symbol>
    <symbol id="Amazing-All-Band-Receiver-1_svg__h" overflow="visible">
      <path d="M2.11-1.156c0 .367-.09.656-.266.875-.18.219-.399.328-.657.328A.83.83 0 0 1 .891 0a.74.74 0 0 1-.25-.11v.922H.266v-3H.64v.235c.082-.082.18-.156.296-.219a.907.907 0 0 1 .375-.078.67.67 0 0 1 .579.297c.144.2.218.465.218.797zm-.391.047c0-.25-.04-.442-.11-.579a.425.425 0 0 0-.39-.218 1.238 1.238 0 0 0-.313.078 1.143 1.143 0 0 0-.265.172v1.25c.093.043.175.074.25.094a.69.69 0 0 0 .234.03c.188 0 .332-.07.438-.218.101-.133.156-.336.156-.61zm0 0"/>
    </symbol>
    <symbol id="Amazing-All-Band-Receiver-1_svg__i" overflow="visible">
      <path d="M1.984 0h-.359v-1.25c0-.094-.008-.188-.016-.281a.566.566 0 0 0-.062-.203.382.382 0 0 0-.125-.125 1.042 1.042 0 0 0-.219-.047.589.589 0 0 0-.281.078c-.106.055-.2.117-.281.187V0H.266v-2.188H.64v.235a1.42 1.42 0 0 1 .312-.219.831.831 0 0 1 .344-.078c.219 0 .39.07.516.203.113.149.171.356.171.625zm0 0"/>
    </symbol>
    <symbol id="Amazing-All-Band-Receiver-1_svg__j" overflow="visible">
      <path d="M2.281-.89a.703.703 0 0 1-.094.374.72.72 0 0 1-.218.282.865.865 0 0 1-.344.172A1.62 1.62 0 0 1 1.141 0H.297v-2.922h.781c.195 0 .352.008.469.016.094.023.191.058.297.11a.588.588 0 0 1 .297.53c0 .149-.04.274-.11.375a.778.778 0 0 1-.297.25v.016c.164.055.301.14.407.266a.76.76 0 0 1 .14.468zm-.547-1.313a.554.554 0 0 0-.03-.188.281.281 0 0 0-.11-.125.977.977 0 0 0-.219-.062 2.985 2.985 0 0 0-.313-.016H.688v.86h.438c.125 0 .21-.004.266-.016a.429.429 0 0 0 .187-.078.452.452 0 0 0 .125-.156.634.634 0 0 0 .031-.22zm.141 1.328a.73.73 0 0 0-.047-.281.355.355 0 0 0-.187-.172.722.722 0 0 0-.204-.063 2.985 2.985 0 0 0-.312-.015H.687v1.078H1c.164 0 .3-.008.406-.031a.478.478 0 0 0 .25-.094c.07-.05.13-.11.172-.172a.56.56 0 0 0 .047-.25zm0 0"/>
    </symbol>
    <symbol id="Amazing-All-Band-Receiver-1_svg__k" overflow="visible">
      <path d="M1.438.047a1.212 1.212 0 0 1-.532-.094A1.087 1.087 0 0 1 .5-.328a1.388 1.388 0 0 1-.281-.469 2.147 2.147 0 0 1-.094-.656c0-.25.031-.461.094-.64C.28-2.27.375-2.43.5-2.579a1.28 1.28 0 0 1 .406-.297c.156-.063.332-.094.531-.094.102 0 .196.008.282.016.082.023.16.043.234.062.063.024.129.043.203.063.063.031.125.07.188.11v.468h-.031c-.032-.031-.075-.07-.126-.125-.062-.04-.132-.082-.203-.125a2.15 2.15 0 0 0-.234-.11 1.54 1.54 0 0 0-.313-.03.767.767 0 0 0-.343.078.876.876 0 0 0-.297.218.997.997 0 0 0-.188.375 1.552 1.552 0 0 0-.078.516c0 .2.024.371.078.516a.83.83 0 0 0 .188.359c.082.105.18.18.297.219a.718.718 0 0 0 .343.078.99.99 0 0 0 .313-.047A.83.83 0 0 0 2-.422a1.42 1.42 0 0 0 .313-.234h.03v.453a2.274 2.274 0 0 0-.171.094 1.023 1.023 0 0 1-.219.078C1.867 0 1.79.019 1.72.03a2.627 2.627 0 0 1-.282.016zm0 0"/>
    </symbol>
    <symbol id="Amazing-All-Band-Receiver-1_svg__l" overflow="visible">
      <path d="M1.984-.922c0 .137-.023.266-.062.39a1.304 1.304 0 0 1-.203.313.757.757 0 0 1-.297.203 1.072 1.072 0 0 1-.406.079C.867.063.726.046.594.015A1.216 1.216 0 0 1 .25-.11v-.407h.016c.03.024.078.047.14.079.051.023.114.046.188.078.07.023.14.043.203.062.062.012.133.016.219.016.07 0 .148-.016.234-.047a.389.389 0 0 0 .188-.125.604.604 0 0 0 .109-.203c.02-.07.031-.164.031-.281a.868.868 0 0 0-.031-.25.491.491 0 0 0-.125-.157.644.644 0 0 0-.203-.11 1.265 1.265 0 0 0-.282-.03 4 4 0 0 0-.312.015c-.117.024-.203.04-.266.047v-1.5h1.61v.344H.734v.781c.051-.008.098-.016.141-.016H1c.156 0 .285.012.39.032.094.031.192.078.298.14a.782.782 0 0 1 .218.282c.051.117.078.261.078.437zm0 0"/>
    </symbol>
    <symbol id="Amazing-All-Band-Receiver-1_svg__m" overflow="visible"/>
    <symbol id="Amazing-All-Band-Receiver-1_svg__n" overflow="visible"/>
    <symbol id="Amazing-All-Band-Receiver-1_svg__o" overflow="visible">
      <path d="M2.797 0h-.39v-2.516l-.75 1.72h-.25l-.75-1.72V0h-.36v-2.922h.531l.735 1.625.703-1.625h.53zm0 0"/>
    </symbol>
    <symbol id="Amazing-All-Band-Receiver-1_svg__p" overflow="visible">
      <path d="M1.516.063c-.211 0-.399-.032-.563-.094a.962.962 0 0 1-.437-.297 1.177 1.177 0 0 1-.282-.469 1.894 1.894 0 0 1-.109-.672c0-.226.035-.437.11-.625a1.33 1.33 0 0 1 .28-.484c.114-.125.258-.223.438-.297.176-.063.363-.094.563-.094.101 0 .195.008.28.016.095.023.18.043.266.062.063.024.133.047.22.079a.829.829 0 0 1 .187.093v.469h-.031a3.862 3.862 0 0 0-.141-.125 1.311 1.311 0 0 0-.219-.125c-.086-.04-.18-.07-.281-.094a1.039 1.039 0 0 0-.328-.047.798.798 0 0 0-.672.329c-.18.21-.266.492-.266.843 0 .188.024.36.078.516a.83.83 0 0 0 .188.36.745.745 0 0 0 .312.234.884.884 0 0 0 .391.078c.113 0 .223-.004.328-.016.102-.02.195-.047.281-.078v-.75h-.687v-.344h1.062v1.282c-.054.023-.117.046-.187.078-.094.03-.172.058-.235.078-.105.031-.195.05-.265.062-.074.02-.168.032-.281.032zm0 0"/>
    </symbol>
    <symbol id="Amazing-All-Band-Receiver-1_svg__q" overflow="visible">
      <path d="M2.39 0h-.437L.656-2.516V0h-.36v-2.922h.548L2.016-.609v-2.313h.375zm0 0"/>
    </symbol>
    <symbol id="Amazing-All-Band-Receiver-1_svg__r" overflow="visible">
      <path d="M2.594-1.453c0 .262-.055.5-.156.719-.106.218-.25.386-.438.5a1.33 1.33 0 0 1-.453.187A2.89 2.89 0 0 1 .969 0H.297v-2.922h.656c.281 0 .5.024.656.063.157.043.286.101.391.171.188.126.332.293.438.5.101.211.156.454.156.735zm-.406-.016c0-.218-.04-.41-.11-.578a.813.813 0 0 0-.328-.36 1.342 1.342 0 0 0-.328-.14 1.832 1.832 0 0 0-.438-.047H.688v2.266h.296c.164 0 .317-.016.454-.047a1.016 1.016 0 0 0 .656-.516c.062-.156.094-.347.094-.578zm0 0"/>
    </symbol>
    <symbol id="Amazing-All-Band-Receiver-1_svg__s" overflow="visible">
      <path d="M1.969 0h-.36v-.25a1.526 1.526 0 0 1-.328.234.78.78 0 0 1-.61.032.505.505 0 0 1-.218-.157.685.685 0 0 1-.156-.25A1.29 1.29 0 0 1 .25-.766v-1.421h.375v1.25c0 .117.004.21.016.28 0 .087.015.153.046.204.032.062.07.105.125.125a.78.78 0 0 0 .516-.031 1.41 1.41 0 0 0 .281-.204v-1.625h.36zm0 0"/>
    </symbol>
    <symbol id="Amazing-All-Band-Receiver-1_svg__v" overflow="visible">
      <path d="M2.563 0h-.516l-.922-1.156H.687V0h-.39v-2.922h.75c.164 0 .305.012.422.031.113.024.222.063.328.125a.8.8 0 0 1 .234.25.751.751 0 0 1 .094.391.797.797 0 0 1-.172.531.913.913 0 0 1-.437.328zm-.844-2.094a.598.598 0 0 0-.047-.234.412.412 0 0 0-.14-.156.446.446 0 0 0-.188-.079c-.074-.007-.168-.019-.282-.03H.688v1.109h.344c.102 0 .203-.008.297-.032a.459.459 0 0 0 .219-.125.38.38 0 0 0 .125-.187.66.66 0 0 0 .047-.266zm0 0"/>
    </symbol>
    <symbol id="Amazing-All-Band-Receiver-1_svg__w" overflow="visible">
      <path d="M2.016 0H.219v-.406l.36-.36c.112-.101.226-.218.343-.343.219-.25.367-.446.453-.594.07-.145.113-.297.125-.453a.487.487 0 0 0-.047-.219.602.602 0 0 0-.11-.156.629.629 0 0 0-.344-.11.822.822 0 0 0-.218.032.685.685 0 0 0-.203.062 1.166 1.166 0 0 0-.156.078c-.055.031-.094.059-.125.078H.28v-.406c.07-.039.18-.082.328-.125.145-.039.286-.062.422-.062.258 0 .469.074.625.218.157.149.235.344.235.594 0 .117-.012.219-.032.313a2.19 2.19 0 0 1-.109.265 2.195 2.195 0 0 1-.188.25 4.057 4.057 0 0 1-.203.25 7.154 7.154 0 0 1-.421.422 7.96 7.96 0 0 1-.36.344h1.438zm0 0"/>
    </symbol>
    <symbol id="Amazing-All-Band-Receiver-1_svg__x" overflow="visible">
      <path d="M1-2.64a.671.671 0 0 0-.203.03.873.873 0 0 0-.219.063.582.582 0 0 0-.156.078c-.055.031-.094.059-.125.078H.266v-.406a2.29 2.29 0 0 1 .359-.125c.133-.039.27-.062.406-.062.133 0 .25.015.344.046a.62.62 0 0 1 .266.126c.093.062.16.136.203.218.039.094.062.2.062.313a.612.612 0 0 1-.156.422.669.669 0 0 1-.375.234v.031a.919.919 0 0 1 .39.188c.051.062.098.136.141.218a.78.78 0 0 1 .063.329.875.875 0 0 1-.079.359.803.803 0 0 1-.188.297.745.745 0 0 1-.312.187c-.118.051-.25.079-.407.079C.836.063.691.046.547.015a1.814 1.814 0 0 1-.36-.141v-.406H.22c.08.062.19.121.327.172a1.094 1.094 0 0 0 .656.046.559.559 0 0 0 .203-.124c.051-.063.094-.126.125-.188.02-.07.032-.16.032-.266a.687.687 0 0 0-.047-.265.491.491 0 0 0-.125-.157.446.446 0 0 0-.188-.078 1.123 1.123 0 0 0-.25-.03H.781v-.329h.14c.165 0 .306-.04.423-.125a.419.419 0 0 0 .172-.36.371.371 0 0 0-.047-.187.493.493 0 0 0-.11-.125 1.15 1.15 0 0 0-.171-.078A1.296 1.296 0 0 0 1-2.641zm0 0"/>
    </symbol>
    <symbol id="Amazing-All-Band-Receiver-1_svg__y" overflow="visible">
      <path d="M.984 0v-2.578H0v-.344h2.344v.344h-.985V0zm0 0"/>
    </symbol>
    <symbol id="Amazing-All-Band-Receiver-1_svg__z" overflow="visible">
      <path d="M2.063-.953c0 .156-.028.297-.079.422a.974.974 0 0 1-.203.312.723.723 0 0 1-.297.203.78.78 0 0 1-.343.079A1.04 1.04 0 0 1 .78 0a.891.891 0 0 1-.297-.203A1.194 1.194 0 0 1 .25-.625a2.253 2.253 0 0 1-.078-.656c0-.25.023-.477.078-.688.05-.207.129-.383.234-.531.102-.145.239-.258.407-.344.164-.082.359-.125.578-.125h.187c.063.012.114.024.157.031v.376h-.016a.676.676 0 0 0-.156-.047.87.87 0 0 0-.22-.032.784.784 0 0 0-.593.25c-.148.168-.234.414-.265.735a1.58 1.58 0 0 1 .296-.157.973.973 0 0 1 .313-.046c.113 0 .21.011.297.03a.792.792 0 0 1 .515.438c.051.125.079.274.079.438zm-.407.015a.861.861 0 0 0-.047-.296.5.5 0 0 0-.14-.204.735.735 0 0 0-.172-.093c-.074-.008-.14-.016-.203-.016a.745.745 0 0 0-.266.047 1.272 1.272 0 0 0-.265.125v.172c0 .21.019.375.062.5.04.125.086.219.14.281.051.063.11.106.172.125a.326.326 0 0 0 .204.031c.156 0 .28-.05.375-.156.093-.113.14-.285.14-.516zm0 0"/>
    </symbol>
    <symbol id="Amazing-All-Band-Receiver-1_svg__A" overflow="visible">
      <path d="M.297 0v-2.922h1.828v.344H.687v.797h1.344v.36H.687v1.077h1.438V0zm0 0"/>
    </symbol>
    <symbol id="Amazing-All-Band-Receiver-1_svg__B" overflow="visible"/>
    <symbol id="Amazing-All-Band-Receiver-1_svg__C" overflow="visible"/>
    <symbol id="Amazing-All-Band-Receiver-1_svg__D" overflow="visible"/>
    <symbol id="Amazing-All-Band-Receiver-1_svg__G" overflow="visible"/>
    <symbol id="Amazing-All-Band-Receiver-1_svg__H" overflow="visible"/>
  </defs>
  <use x="274.687" y="315.187" fill="#505050" xlink:href="#Amazing-All-Band-Receiver-1_svg__a"/>
  <use x="276.967" y="315.187" fill="#505050" xlink:href="#Amazing-All-Band-Receiver-1_svg__b"/>
  <use x="278.887" y="315.187" fill="#505050" xlink:href="#Amazing-All-Band-Receiver-1_svg__c"/>
  <use x="280.627" y="315.187" fill="#505050" xlink:href="#Amazing-All-Band-Receiver-1_svg__d"/>
  <use x="256.561" y="331.035" fill="#505050" xlink:href="#Amazing-All-Band-Receiver-1_svg__e"/>
  <use x="258.781" y="331.035" fill="#505050" xlink:href="#Amazing-All-Band-Receiver-1_svg__f"/>
  <use x="261.001" y="331.035" fill="#505050" xlink:href="#Amazing-All-Band-Receiver-1_svg__g"/>
  <use x="252.949" y="296.512" fill="#505050" xlink:href="#Amazing-All-Band-Receiver-1_svg__e"/>
  <use x="255.169" y="296.512" fill="#505050" xlink:href="#Amazing-All-Band-Receiver-1_svg__f"/>
  <use x="257.389" y="296.512" fill="#505050" xlink:href="#Amazing-All-Band-Receiver-1_svg__f"/>
  <use x="259.609" y="296.512" fill="#505050" xlink:href="#Amazing-All-Band-Receiver-1_svg__h"/>
  <use x="304.016" y="315.787" fill="#505050" xlink:href="#Amazing-All-Band-Receiver-1_svg__e"/>
  <use x="306.236" y="315.787" fill="#505050" xlink:href="#Amazing-All-Band-Receiver-1_svg__f"/>
  <use x="308.456" y="315.787" fill="#505050" xlink:href="#Amazing-All-Band-Receiver-1_svg__i"/>
  <use x="366.787" y="313.773" fill="#505050" xlink:href="#Amazing-All-Band-Receiver-1_svg__e"/>
  <use x="369.007" y="313.773" fill="#505050" xlink:href="#Amazing-All-Band-Receiver-1_svg__i"/>
  <use x="351.075" y="301.399" fill="#505050" xlink:href="#Amazing-All-Band-Receiver-1_svg__j"/>
  <use x="353.415" y="301.399" fill="#505050" xlink:href="#Amazing-All-Band-Receiver-1_svg__k"/>
  <use x="355.815" y="301.399" fill="#505050" xlink:href="#Amazing-All-Band-Receiver-1_svg__l"/>
  <use x="358.035" y="301.399" fill="#505050" xlink:href="#Amazing-All-Band-Receiver-1_svg__m"/>
  <use x="360.255" y="301.399" fill="#505050" xlink:href="#Amazing-All-Band-Receiver-1_svg__n"/>
  <use x="278.452" y="279.25" fill="#505050" xlink:href="#Amazing-All-Band-Receiver-1_svg__e"/>
  <use x="280.672" y="279.25" fill="#505050" xlink:href="#Amazing-All-Band-Receiver-1_svg__f"/>
  <use x="282.892" y="279.25" fill="#505050" xlink:href="#Amazing-All-Band-Receiver-1_svg__o"/>
  <use x="312.999" y="296.512" fill="#505050" xlink:href="#Amazing-All-Band-Receiver-1_svg__e"/>
  <use x="315.219" y="296.512" fill="#505050" xlink:href="#Amazing-All-Band-Receiver-1_svg__f"/>
  <use x="317.439" y="296.512" fill="#505050" xlink:href="#Amazing-All-Band-Receiver-1_svg__o"/>
  <use x="407.656" y="315.787" fill="#505050" xlink:href="#Amazing-All-Band-Receiver-1_svg__e"/>
  <use x="409.876" y="315.787" fill="#505050" xlink:href="#Amazing-All-Band-Receiver-1_svg__f"/>
  <use x="412.096" y="315.787" fill="#505050" xlink:href="#Amazing-All-Band-Receiver-1_svg__i"/>
  <use x="464.669" y="313.773" fill="#505050" xlink:href="#Amazing-All-Band-Receiver-1_svg__e"/>
  <use x="466.889" y="313.773" fill="#505050" xlink:href="#Amazing-All-Band-Receiver-1_svg__i"/>
  <use x="410.881" y="296.512" fill="#505050" xlink:href="#Amazing-All-Band-Receiver-1_svg__e"/>
  <use x="413.101" y="296.512" fill="#505050" xlink:href="#Amazing-All-Band-Receiver-1_svg__f"/>
  <use x="415.321" y="296.512" fill="#505050" xlink:href="#Amazing-All-Band-Receiver-1_svg__o"/>
  <use x="448.957" y="301.399" fill="#505050" xlink:href="#Amazing-All-Band-Receiver-1_svg__j"/>
  <use x="451.297" y="301.399" fill="#505050" xlink:href="#Amazing-All-Band-Receiver-1_svg__k"/>
  <use x="453.697" y="301.399" fill="#505050" xlink:href="#Amazing-All-Band-Receiver-1_svg__l"/>
  <use x="455.917" y="301.399" fill="#505050" xlink:href="#Amazing-All-Band-Receiver-1_svg__m"/>
  <use x="458.137" y="301.399" fill="#505050" xlink:href="#Amazing-All-Band-Receiver-1_svg__n"/>
  <use x="432.832" y="261.988" fill="#505050" xlink:href="#Amazing-All-Band-Receiver-1_svg__e"/>
  <use x="435.052" y="261.988" fill="#505050" xlink:href="#Amazing-All-Band-Receiver-1_svg__f"/>
  <use x="437.272" y="261.988" fill="#505050" xlink:href="#Amazing-All-Band-Receiver-1_svg__f"/>
  <use x="439.492" y="261.988" fill="#505050" xlink:href="#Amazing-All-Band-Receiver-1_svg__g"/>
  <use x="499.06" y="360.093" fill="#505050" xlink:href="#Amazing-All-Band-Receiver-1_svg__p"/>
  <use x="501.76" y="360.093" fill="#505050" xlink:href="#Amazing-All-Band-Receiver-1_svg__q"/>
  <use x="504.46" y="360.093" fill="#505050" xlink:href="#Amazing-All-Band-Receiver-1_svg__r"/>
  <use x="538.945" y="296.512" fill="#505050" xlink:href="#Amazing-All-Band-Receiver-1_svg__e"/>
  <use x="541.165" y="296.512" fill="#505050" xlink:href="#Amazing-All-Band-Receiver-1_svg__s"/>
  <use x="333.223" y="266.879" fill="#505050" xlink:href="#Amazing-All-Band-Receiver-1_svg__e"/>
  <use x="335.443" y="266.879" fill="#505050" xlink:href="#Amazing-All-Band-Receiver-1_svg__f"/>
  <use x="337.663" y="266.879" fill="#505050" xlink:href="#Amazing-All-Band-Receiver-1_svg__f"/>
  <use x="339.883" y="266.879" fill="#505050" xlink:href="#Amazing-All-Band-Receiver-1_svg__g"/>
  <use x="276.547" y="301.399" fill="#505050" xlink:href="#Amazing-All-Band-Receiver-1_svg__t"/>
  <use x="278.767" y="301.399" fill="#505050" xlink:href="#Amazing-All-Band-Receiver-1_svg__u"/>
  <use x="258.241" y="320.675" fill="#505050" xlink:href="#Amazing-All-Band-Receiver-1_svg__v"/>
  <use x="260.761" y="320.675" fill="#505050" xlink:href="#Amazing-All-Band-Receiver-1_svg__e"/>
  <use x="257.209" y="286.152" fill="#505050" xlink:href="#Amazing-All-Band-Receiver-1_svg__k"/>
  <use x="259.609" y="286.152" fill="#505050" xlink:href="#Amazing-All-Band-Receiver-1_svg__e"/>
  <use x="305.036" y="301.399" fill="#505050" xlink:href="#Amazing-All-Band-Receiver-1_svg__k"/>
  <use x="307.436" y="301.399" fill="#505050" xlink:href="#Amazing-All-Band-Receiver-1_svg__w"/>
  <use x="366.608" y="303.413" fill="#505050" xlink:href="#Amazing-All-Band-Receiver-1_svg__k"/>
  <use x="369.008" y="303.413" fill="#505050" xlink:href="#Amazing-All-Band-Receiver-1_svg__x"/>
  <use x="333.848" y="301.399" fill="#505050" xlink:href="#Amazing-All-Band-Receiver-1_svg__y"/>
  <use x="336.188" y="301.399" fill="#505050" xlink:href="#Amazing-All-Band-Receiver-1_svg__e"/>
  <use x="281.272" y="268.89" fill="#505050" xlink:href="#Amazing-All-Band-Receiver-1_svg__v"/>
  <use x="283.792" y="268.89" fill="#505050" xlink:href="#Amazing-All-Band-Receiver-1_svg__w"/>
  <use x="315.819" y="286.152" fill="#505050" xlink:href="#Amazing-All-Band-Receiver-1_svg__v"/>
  <use x="318.339" y="286.152" fill="#505050" xlink:href="#Amazing-All-Band-Receiver-1_svg__x"/>
  <use x="408.676" y="301.399" fill="#505050" xlink:href="#Amazing-All-Band-Receiver-1_svg__k"/>
  <use x="411.076" y="301.399" fill="#505050" xlink:href="#Amazing-All-Band-Receiver-1_svg__m"/>
  <use x="464.49" y="303.413" fill="#505050" xlink:href="#Amazing-All-Band-Receiver-1_svg__k"/>
  <use x="466.89" y="303.413" fill="#505050" xlink:href="#Amazing-All-Band-Receiver-1_svg__l"/>
  <use x="413.701" y="286.152" fill="#505050" xlink:href="#Amazing-All-Band-Receiver-1_svg__v"/>
  <use x="416.221" y="286.152" fill="#505050" xlink:href="#Amazing-All-Band-Receiver-1_svg__l"/>
  <use x="431.73" y="301.399" fill="#505050" xlink:href="#Amazing-All-Band-Receiver-1_svg__y"/>
  <use x="434.07" y="301.399" fill="#505050" xlink:href="#Amazing-All-Band-Receiver-1_svg__w"/>
  <use x="436.732" y="251.628" fill="#505050" xlink:href="#Amazing-All-Band-Receiver-1_svg__v"/>
  <use x="439.252" y="251.628" fill="#505050" xlink:href="#Amazing-All-Band-Receiver-1_svg__z"/>
  <use x="523.233" y="274.07" fill="#505050" xlink:href="#Amazing-All-Band-Receiver-1_svg__A"/>
  <use x="525.513" y="274.07" fill="#505050" xlink:href="#Amazing-All-Band-Receiver-1_svg__B"/>
  <use x="527.913" y="274.07" fill="#505050" xlink:href="#Amazing-All-Band-Receiver-1_svg__v"/>
  <use x="530.433" y="274.07" fill="#505050" xlink:href="#Amazing-All-Band-Receiver-1_svg__C"/>
  <use x="523.233" y="308.593" fill="#505050" xlink:href="#Amazing-All-Band-Receiver-1_svg__A"/>
  <use x="525.513" y="308.593" fill="#505050" xlink:href="#Amazing-All-Band-Receiver-1_svg__B"/>
  <use x="527.913" y="308.593" fill="#505050" xlink:href="#Amazing-All-Band-Receiver-1_svg__v"/>
  <use x="530.433" y="308.593" fill="#505050" xlink:href="#Amazing-All-Band-Receiver-1_svg__D"/>
  <use x="263.172" y="259.971" fill="#505050" xlink:href="#Amazing-All-Band-Receiver-1_svg__b"/>
  <use x="265.091" y="259.971" fill="#505050" xlink:href="#Amazing-All-Band-Receiver-1_svg__E"/>
  <use x="267.252" y="259.971" fill="#505050" xlink:href="#Amazing-All-Band-Receiver-1_svg__F"/>
  <use x="269.172" y="259.971" fill="#505050" xlink:href="#Amazing-All-Band-Receiver-1_svg__u"/>
  <use x="580.811" y="343.117" fill="#505050" xlink:href="#Amazing-All-Band-Receiver-1_svg__p"/>
  <use x="583.511" y="343.117" fill="#505050" xlink:href="#Amazing-All-Band-Receiver-1_svg__q"/>
  <use x="586.211" y="343.117" fill="#505050" xlink:href="#Amazing-All-Band-Receiver-1_svg__r"/>
  <use x="580.811" y="239.546" fill="#505050" xlink:href="#Amazing-All-Band-Receiver-1_svg__G"/>
  <use x="583.211" y="239.546" fill="#505050" xlink:href="#Amazing-All-Band-Receiver-1_svg__k"/>
  <use x="585.611" y="239.546" fill="#505050" xlink:href="#Amazing-All-Band-Receiver-1_svg__k"/>
  <use x="538.765" y="286.151" fill="#505050" xlink:href="#Amazing-All-Band-Receiver-1_svg__k"/>
  <use x="541.165" y="286.151" fill="#505050" xlink:href="#Amazing-All-Band-Receiver-1_svg__z"/>
  <use x="337.123" y="246.737" fill="#505050" xlink:href="#Amazing-All-Band-Receiver-1_svg__v"/>
  <use x="339.643" y="246.737" fill="#505050" xlink:href="#Amazing-All-Band-Receiver-1_svg__n"/>
  <path fill="none" stroke="maroon" stroke-linecap="round" stroke-linejoin="round" stroke-miterlimit="10" stroke-width=".36" d="M284.281 307.14h-5.761m-5.758 0h5.758"/>
  <path fill="none" stroke="maroon" stroke-linecap="round" stroke-linejoin="round" stroke-miterlimit="10" stroke-width=".6" d="M281.398 304.262l-5.757 2.879m-.001-.001l5.758 2.88m-5.758 0v-2.88m5.758 2.88v-5.758m-5.758 2.878v-2.878"/>
  <path fill="none" stroke="maroon" stroke-linecap="round" stroke-linejoin="round" stroke-miterlimit="10" stroke-width=".36" d="M267 312.898v5.762m0 17.281v-5.761"/>
  <path fill="none" stroke="maroon" stroke-linecap="round" stroke-linejoin="round" stroke-miterlimit="10" stroke-width=".6" d="M269.04 330.18v-11.52m-4.02 0v11.52m4.02-11.52h-4.02m4.02 11.52h-4.02"/>
  <path fill="none" stroke="maroon" stroke-linecap="round" stroke-linejoin="round" stroke-miterlimit="10" stroke-width=".36" d="M267 295.621v-4.02m0-7.441v4.02"/>
  <path fill="maroon" stroke="maroon" stroke-linecap="round" stroke-linejoin="round" stroke-miterlimit="10" stroke-width=".12" d="M262.379 291.66h9.242v-1.2h-9.242zm0-2.34h9.242v-1.199h-9.242zm0 0"/>
  <path fill="none" stroke="maroon" stroke-linecap="round" stroke-linejoin="round" stroke-miterlimit="10" stroke-width=".36" d="M301.559 307.14h4.02m7.499 0h-4.02"/>
  <path fill="maroon" stroke="maroon" stroke-linecap="round" stroke-linejoin="round" stroke-miterlimit="10" stroke-width=".12" d="M305.578 311.762h1.203v-9.242h-1.203zm2.282 0h1.199v-9.242h-1.2zm0 0"/>
  <path fill="none" stroke="maroon" stroke-linecap="round" stroke-linejoin="round" stroke-miterlimit="10" stroke-width=".36" d="M376.379 312.898v-4.02m0-7.499v4.02"/>
  <path fill="maroon" stroke="maroon" stroke-linecap="round" stroke-linejoin="round" stroke-miterlimit="10" stroke-width=".12" d="M371.762 308.879H381v-1.2h-9.238zm0-2.277H381v-1.204h-9.238zm0 0"/>
  <path fill="none" stroke="maroon" stroke-linecap="round" stroke-linejoin="round" stroke-miterlimit="10" stroke-width=".36" d="M347.64 301.379l-5.64 2.82m3.18 6.063l1.14 1.976m0 0l-2.28.301m0 .001l1.14-2.278m2.46 2.636l-1.32-.66m0 0l-3.78-1.86"/>
  <path fill="none" stroke="maroon" stroke-linecap="round" stroke-linejoin="round" stroke-miterlimit="10" stroke-width=".72" d="M344.578 312.238l1.32-.117m0 0l-.718-1.32"/>
  <path fill="none" stroke="maroon" stroke-linecap="round" stroke-linejoin="round" stroke-miterlimit="10" stroke-width=".6" d="M345.18 310.8l-.602 1.2m0 0h.902m0 0l-.3-.602"/>
  <path fill="maroon" stroke="maroon" stroke-linecap="round" stroke-linejoin="round" stroke-miterlimit="10" stroke-width=".12" d="M340.738 312.898h1.684v-11.52h-1.684zm0 0"/>
  <path fill="none" stroke="maroon" stroke-linecap="round" stroke-linejoin="round" stroke-miterlimit="10" stroke-width=".36" d="M336.121 307.14h5.758m5.761 11.52v-5.762m0-17.277v5.758"/>
  <path fill="none" stroke="maroon" stroke-linecap="round" stroke-linejoin="round" stroke-miterlimit="10" stroke-width=".9" d="M352.922 307.14a8.164 8.164 0 0 1-8.16 8.16 8.161 8.161 0 0 1 0-16.32 8.161 8.161 0 0 1 8.16 8.16zm0 0"/>
  <path fill="none" stroke="maroon" stroke-linecap="round" stroke-linejoin="round" stroke-miterlimit="10" stroke-width=".36" d="M290.04 261.121v5.758m0 17.281v-5.762"/>
  <path fill="none" stroke="maroon" stroke-linecap="round" stroke-linejoin="round" stroke-miterlimit="10" stroke-width=".6" d="M292.078 278.398v-11.52m-4.078.001v11.52m4.078-11.52H288m4.078 11.519H288"/>
  <path fill="none" stroke="maroon" stroke-linecap="round" stroke-linejoin="round" stroke-miterlimit="10" stroke-width=".36" d="M324.602 278.398v5.762m0 17.219v-5.758"/>
  <path fill="none" stroke="maroon" stroke-linecap="round" stroke-linejoin="round" stroke-miterlimit="10" stroke-width=".6" d="M326.578 295.621v-11.46m-4.019-.001v11.461m4.019-11.461h-4.02m4.02 11.461h-4.02"/>
  <path fill="none" stroke="maroon" stroke-linecap="round" stroke-linejoin="round" stroke-miterlimit="10" stroke-width=".36" d="M405.18 307.14h4.02m7.5 0h-4.02"/>
  <path fill="maroon" stroke="maroon" stroke-linecap="round" stroke-linejoin="round" stroke-miterlimit="10" stroke-width=".12" d="M409.2 311.762h1.198v-9.242H409.2zm2.28 0h1.2v-9.242h-1.2zm0 0"/>
  <path fill="none" stroke="maroon" stroke-linecap="round" stroke-linejoin="round" stroke-miterlimit="10" stroke-width=".36" d="M474.3 312.898v-4.02m0-7.499v4.02"/>
  <path fill="maroon" stroke="maroon" stroke-linecap="round" stroke-linejoin="round" stroke-miterlimit="10" stroke-width=".12" d="M469.68 308.879h9.238v-1.2h-9.238zm0-2.277h9.238v-1.204h-9.238zm0 0"/>
  <path fill="none" stroke="maroon" stroke-linecap="round" stroke-linejoin="round" stroke-miterlimit="10" stroke-width=".36" d="M422.46 278.398v5.762m0 17.219v-5.758"/>
  <path fill="none" stroke="maroon" stroke-linecap="round" stroke-linejoin="round" stroke-miterlimit="10" stroke-width=".6" d="M424.5 295.621v-11.46m-4.02-.001v11.461m4.02-11.461h-4.02m4.02 11.461h-4.02"/>
  <path fill="none" stroke="maroon" stroke-linecap="round" stroke-linejoin="round" stroke-miterlimit="10" stroke-width=".36" d="M445.5 301.379l-5.64 2.82m3.18 6.063l1.14 1.976m0 0l-2.282.301m0 .001l1.141-2.278m2.461 2.636l-1.32-.66m0 0l-3.72-1.86"/>
  <path fill="none" stroke="maroon" stroke-linecap="round" stroke-linejoin="round" stroke-miterlimit="10" stroke-width=".72" d="M442.5 312.238l1.262-.117m0 0l-.723-1.32"/>
  <path fill="none" stroke="maroon" stroke-linecap="round" stroke-linejoin="round" stroke-miterlimit="10" stroke-width=".6" d="M443.04 310.8l-.54 1.2m0 0h.84m0 0l-.3-.602"/>
  <path fill="maroon" stroke="maroon" stroke-linecap="round" stroke-linejoin="round" stroke-miterlimit="10" stroke-width=".12" d="M438.602 312.898h1.68v-11.52h-1.68zm0 0"/>
  <path fill="none" stroke="maroon" stroke-linecap="round" stroke-linejoin="round" stroke-miterlimit="10" stroke-width=".36" d="M433.98 307.14h5.758m5.762 11.52v-5.762m0-17.277v5.758"/>
  <path fill="none" stroke="maroon" stroke-linecap="round" stroke-linejoin="round" stroke-miterlimit="10" stroke-width=".9" d="M450.781 307.14a8.161 8.161 0 1 1-16.322-.002 8.161 8.161 0 0 1 16.322.003zm0 0"/>
  <path fill="none" stroke="maroon" stroke-linecap="round" stroke-linejoin="round" stroke-miterlimit="10" stroke-width=".36" d="M445.5 243.84v5.762m0 17.277v-5.758"/>
  <path fill="none" stroke="maroon" stroke-linecap="round" stroke-linejoin="round" stroke-miterlimit="10" stroke-width=".6" d="M447.54 261.121v-11.52m-4.08.001v11.52m4.08-11.52h-4.08m4.08 11.519h-4.08m55.86 92.039h7.5"/>
  <path fill="none" stroke="maroon" stroke-linecap="round" stroke-linejoin="round" stroke-miterlimit="10" stroke-width=".36" d="M503.102 347.46v5.7"/>
  <path fill="none" stroke="maroon" stroke-linecap="round" stroke-linejoin="round" stroke-miterlimit="10" stroke-width=".6" d="M500.762 354.36h4.617m-3.179 1.14h1.741m4.919-82.86h5.761"/>
  <path fill="maroon" fill-rule="evenodd" d="M514.32 272.64l.121-.902.36-.84.597-.66.782-.476.84-.242h.902l.84.242.777.476.602.66.359.84.121.903-.121.898-.36.781-.6.72-.778.48-.84.242h-.902l-.84-.242-.782-.48-.597-.72-.36-.78-.12-.9h.538l.121-.718.301-.66.48-.602.66-.36.657-.241h.781l.72.242.6.36.481.6.3.66.118.72-.117.718-.3.66-.481.54-.602.421-.719.239h-.78l-.657-.239-.66-.421-.48-.54-.302-.66-.12-.718h-.54"/>
  <path fill="none" stroke="maroon" stroke-linecap="round" stroke-linejoin="round" stroke-miterlimit="10" stroke-width=".12" d="M514.32 272.64l.121-.902.36-.84.597-.66.782-.476.84-.242h.902l.84.242.777.476.602.66.359.84.121.903-.121.898-.36.781-.6.72-.778.48-.84.242h-.902l-.84-.242-.782-.48-.597-.72-.36-.78-.12-.9h.538l.121-.718.301-.66.48-.602.66-.36.657-.241h.781l.72.242.6.36.481.6.3.66.118.72-.117.718-.3.66-.481.54-.602.421-.719.239h-.78l-.657-.239-.66-.421-.48-.54-.302-.66-.12-.718zm0 0"/>
  <path fill="none" stroke="maroon" stroke-linecap="round" stroke-linejoin="round" stroke-miterlimit="10" stroke-width=".6" d="M508.86 307.14h5.761"/>
  <path fill="maroon" fill-rule="evenodd" d="M514.32 307.14l.121-.902.36-.777.597-.723.782-.476.84-.242h.902l.84.242.777.476.602.723.359.777.121.903-.121.898-.36.84-.6.66-.778.48-.84.243h-.902l-.84-.242-.782-.48-.597-.661-.36-.84-.12-.898h.538l.121-.72.301-.66.48-.542.66-.418.657-.18h.781l.72.18.6.418.481.543.3.66.118.719-.117.718-.3.72-.481.542-.602.36-.719.238h-.78l-.657-.239-.66-.359-.48-.543-.302-.719-.12-.718h-.54"/>
  <path fill="none" stroke="maroon" stroke-linecap="round" stroke-linejoin="round" stroke-miterlimit="10" stroke-width=".12" d="M514.32 307.14l.121-.902.36-.777.597-.723.782-.476.84-.242h.902l.84.242.777.476.602.723.359.777.121.903-.121.898-.36.84-.6.66-.778.48-.84.243h-.902l-.84-.242-.782-.48-.597-.661-.36-.84-.12-.898h.538l.121-.72.301-.66.48-.542.66-.418.657-.18h.781l.72.18.6.418.481.543.3.66.118.719-.117.718-.3.72-.481.542-.602.36-.719.238h-.78l-.657-.239-.66-.359-.48-.543-.302-.719-.12-.718zm0 0"/>
  <path fill="none" stroke="maroon" stroke-linecap="round" stroke-linejoin="round" stroke-miterlimit="10" stroke-width=".6" d="M261.238 261.121H267m5.762 0L267 266.88m0-.001l-5.762-5.758m5.762 0v5.758m0-5.758h5.762"/>
  <path fill="none" stroke="maroon" stroke-linecap="round" stroke-linejoin="round" stroke-miterlimit="10" stroke-width=".36" d="M267 272.64v-5.761"/>
  <path fill="none" stroke="maroon" stroke-linecap="round" stroke-linejoin="round" stroke-miterlimit="10" stroke-width=".6" d="M566.398 341.7h5.762"/>
  <path fill="maroon" fill-rule="evenodd" d="M571.86 341.7l.18-.9.358-.84.602-.66.719-.48.902-.3h.899l.84.3.78.48.598.66.364.84.117.9-.117.84-.364.839-.597.66-.782.54-.84.241h-.898l-.902-.242-.719-.539-.602-.66-.359-.84-.18-.84h.602l.117-.777.3-.66.481-.543.602-.418.719-.18h.718l.723.18.598.418.543.543.297.66.062.777-.062.723-.297.656-.543.543-.598.418-.723.18h-.718l-.72-.18-.6-.418-.481-.543-.3-.656-.118-.723h-.602"/>
  <path fill="none" stroke="maroon" stroke-linecap="round" stroke-linejoin="round" stroke-miterlimit="10" stroke-width=".12" d="M571.86 341.7l.18-.9.358-.84.602-.66.719-.48.902-.3h.899l.84.3.78.48.598.66.364.84.117.9-.117.84-.364.839-.597.66-.782.54-.84.241h-.898l-.902-.242-.719-.539-.602-.66-.359-.84-.18-.84h.602l.117-.777.3-.66.481-.543.602-.418.719-.18h.718l.723.18.598.418.543.543.297.66.062.777-.062.723-.297.656-.543.543-.598.418-.723.18h-.718l-.72-.18-.6-.418-.481-.543-.3-.656-.118-.723zm0 0"/>
  <path fill="none" stroke="maroon" stroke-linecap="round" stroke-linejoin="round" stroke-miterlimit="10" stroke-width=".6" d="M566.398 238.078h5.762"/>
  <path fill="maroon" fill-rule="evenodd" d="M571.86 238.078l.18-.84.358-.84.602-.66.719-.539.902-.238h.899l.84.238.78.54.598.66.364.84.117.84-.117.901-.364.84-.597.66-.782.48-.84.302h-.898l-.902-.301-.719-.48-.602-.66-.359-.84-.18-.903h.602l.117-.719.3-.66.481-.539.602-.422.719-.18h.718l.723.18.598.422.543.54.297.66.062.718-.062.781-.297.66-.543.54-.598.421-.723.18h-.718l-.72-.18-.6-.421-.481-.54-.3-.66-.118-.78h-.602"/>
  <path fill="none" stroke="maroon" stroke-linecap="round" stroke-linejoin="round" stroke-miterlimit="10" stroke-width=".12" d="M571.86 238.078l.18-.84.358-.84.602-.66.719-.539.902-.238h.899l.84.238.78.54.598.66.364.84.117.84-.117.901-.364.84-.597.66-.782.48-.84.302h-.898l-.902-.301-.719-.48-.602-.66-.359-.84-.18-.903h.602l.117-.719.3-.66.481-.539.602-.422.719-.18h.718l.723.18.598.422.543.54.297.66.062.718-.062.781-.297.66-.543.54-.598.421-.723.18h-.718l-.72-.18-.6-.421-.481-.54-.3-.66-.118-.78zm0 0"/>
  <use x="546.983" y="287.015" fill="maroon" xlink:href="#Amazing-All-Band-Receiver-1_svg__H"/>
  <path fill="none" stroke="maroon" stroke-linecap="round" stroke-linejoin="round" stroke-miterlimit="10" stroke-width=".36" d="M549.121 295.621v-4.02m0-7.441v3.719"/>
  <path fill="maroon" stroke="maroon" stroke-linecap="round" stroke-linejoin="round" stroke-miterlimit="10" stroke-width=".12" d="M544.5 291.898h9.238v-1.437H544.5zm0 0"/>
  <path fill="none" stroke="maroon" stroke-linecap="round" stroke-linejoin="round" stroke-miterlimit="10" stroke-width=".3" d="M544.68 287.879v1.441m0 0h8.941m0 0v-1.441m0 0h-4.5m0 0h-4.441"/>
  <path fill="none" stroke="maroon" stroke-linecap="round" stroke-linejoin="round" stroke-miterlimit="10" stroke-width=".6" d="M345.898 261.121v-11.52m3.422.001v11.52"/>
  <path fill="none" stroke="maroon" stroke-linecap="round" stroke-linejoin="round" stroke-miterlimit="10" stroke-width=".36" d="M353.398 255.36h-2.039"/>
  <path fill="none" stroke="maroon" stroke-linecap="round" stroke-linejoin="round" stroke-miterlimit="10" stroke-width=".6" d="M349.32 261.121h-3.422m0-11.519h3.422"/>
  <path fill="none" stroke="maroon" stroke-linecap="round" stroke-linejoin="round" stroke-miterlimit="10" stroke-width=".36" d="M341.879 249.602v4.617m0 0l-1.14-2.278m1.14 2.278l1.14-2.278m4.621-8.101v5.762m0 17.277v-5.758m3.72-5.761l-7.981 3.96m-.66-1.02l-2.34 2.641m0 0l3.36-.48m-1.02-2.161l1.02 2.16"/>
  <path fill="none" stroke="green" stroke-linecap="round" stroke-linejoin="round" stroke-miterlimit="10" stroke-width=".36" d="M313.078 307.14h11.524m0 0h11.52m-11.52-5.761v5.762"/>
  <path fill="green" fill-rule="evenodd" d="M325.738 307.14a1.139 1.139 0 1 1-2.277 0 1.14 1.14 0 1 1 2.277 0"/>
  <path fill="none" stroke="green" stroke-linecap="round" stroke-linejoin="round" stroke-miterlimit="10" stroke-width=".12" d="M325.738 307.14a1.139 1.139 0 1 1-2.277 0 1.14 1.14 0 1 1 2.277 0zm0 0"/>
  <path fill="none" stroke="green" stroke-linecap="round" stroke-linejoin="round" stroke-miterlimit="10" stroke-width=".36" d="M290.04 284.16v22.98m0 0h11.519m-17.278 0h5.758"/>
  <path fill="green" fill-rule="evenodd" d="M291.18 307.14a1.14 1.14 0 1 1-2.282 0c0-.628.512-1.14 1.141-1.14.633 0 1.14.512 1.14 1.14"/>
  <path fill="none" stroke="green" stroke-linecap="round" stroke-linejoin="round" stroke-miterlimit="10" stroke-width=".12" d="M291.18 307.14a1.14 1.14 0 1 1-2.282 0c0-.628.512-1.14 1.141-1.14.633 0 1.14.512 1.14 1.14zm0 0"/>
  <path fill="none" stroke="green" stroke-linecap="round" stroke-linejoin="round" stroke-miterlimit="10" stroke-width=".36" d="M267 295.621v11.52m0-.001v5.758m0-5.758h5.762"/>
  <path fill="green" fill-rule="evenodd" d="M268.14 307.14a1.141 1.141 0 1 1-2.282 0 1.141 1.141 0 0 1 2.282 0"/>
  <path fill="none" stroke="green" stroke-linecap="round" stroke-linejoin="round" stroke-miterlimit="10" stroke-width=".12" d="M268.14 307.14a1.141 1.141 0 1 1-2.282 0 1.141 1.141 0 0 1 2.282 0zm0 0"/>
  <path fill="none" stroke="green" stroke-linecap="round" stroke-linejoin="round" stroke-miterlimit="10" stroke-width=".36" d="M267 284.16v-11.52m23.04-11.519v-23.043m0 0h57.6m0 5.762v-5.762"/>
  <path fill="green" fill-rule="evenodd" d="M348.781 238.078a1.14 1.14 0 1 1-2.279.002 1.14 1.14 0 0 1 2.28-.002"/>
  <path fill="none" stroke="green" stroke-linecap="round" stroke-linejoin="round" stroke-miterlimit="10" stroke-width=".12" d="M348.781 238.078a1.14 1.14 0 1 1-2.279.002 1.14 1.14 0 0 1 2.28-.002zm0 0"/>
  <path fill="none" stroke="green" stroke-linecap="round" stroke-linejoin="round" stroke-miterlimit="10" stroke-width=".36" d="M347.64 238.078h97.86m0 0v5.762m120.898-5.762h-17.277"/>
  <path fill="green" fill-rule="evenodd" d="M446.64 238.078a1.14 1.14 0 1 1-2.278.002 1.14 1.14 0 0 1 2.279-.002"/>
  <path fill="none" stroke="green" stroke-linecap="round" stroke-linejoin="round" stroke-miterlimit="10" stroke-width=".12" d="M446.64 238.078a1.14 1.14 0 1 1-2.278.002 1.14 1.14 0 0 1 2.279-.002zm0 0"/>
  <path fill="none" stroke="green" stroke-linecap="round" stroke-linejoin="round" stroke-miterlimit="10" stroke-width=".36" d="M549.121 238.078H445.5m103.621 0v46.082"/>
  <path fill="green" fill-rule="evenodd" d="M550.262 238.078a1.14 1.14 0 0 1-1.14 1.14 1.137 1.137 0 0 1-1.142-1.14c0-.629.508-1.137 1.141-1.137.629 0 1.14.508 1.14 1.137"/>
  <path fill="none" stroke="green" stroke-linecap="round" stroke-linejoin="round" stroke-miterlimit="10" stroke-width=".12" d="M550.262 238.078a1.14 1.14 0 0 1-1.14 1.14 1.137 1.137 0 0 1-1.142-1.14c0-.629.508-1.137 1.141-1.137.629 0 1.14.508 1.14 1.137zm0 0"/>
  <path fill="none" stroke="green" stroke-linecap="round" stroke-linejoin="round" stroke-miterlimit="10" stroke-width=".36" d="M324.602 278.398v-5.757m0-.001h23.039m-.001 0h28.739m0 0v28.739m-28.739-5.758v-22.98"/>
  <path fill="green" fill-rule="evenodd" d="M348.781 272.64a1.141 1.141 0 1 1-2.282 0 1.141 1.141 0 0 1 2.282 0"/>
  <path fill="none" stroke="green" stroke-linecap="round" stroke-linejoin="round" stroke-miterlimit="10" stroke-width=".12" d="M348.781 272.64a1.141 1.141 0 1 1-2.282 0 1.141 1.141 0 0 1 2.282 0zm0 0"/>
  <path fill="none" stroke="green" stroke-linecap="round" stroke-linejoin="round" stroke-miterlimit="10" stroke-width=".36" d="M347.64 272.64v-5.761m5.758-11.519h46.024m0 0v51.78m0 0h5.758m17.28-5.761v5.762m0-.001h11.52m-11.52 0h-5.76"/>
  <path fill="green" fill-rule="evenodd" d="M423.602 307.14c0 .63-.512 1.141-1.141 1.141a1.14 1.14 0 1 1 0-2.281c.629 0 1.14.512 1.14 1.14"/>
  <path fill="none" stroke="green" stroke-linecap="round" stroke-linejoin="round" stroke-miterlimit="10" stroke-width=".12" d="M423.602 307.14c0 .63-.512 1.141-1.141 1.141a1.14 1.14 0 1 1 0-2.281c.629 0 1.14.512 1.14 1.14zm0 0"/>
  <path fill="none" stroke="green" stroke-linecap="round" stroke-linejoin="round" stroke-miterlimit="10" stroke-width=".36" d="M445.5 295.621v-22.98m0-.001h-23.04m0 0v5.758m23.04-11.519v5.762"/>
  <path fill="green" fill-rule="evenodd" d="M446.64 272.64a1.141 1.141 0 1 1-2.282 0 1.141 1.141 0 0 1 2.282 0"/>
  <path fill="none" stroke="green" stroke-linecap="round" stroke-linejoin="round" stroke-miterlimit="10" stroke-width=".12" d="M446.64 272.64a1.141 1.141 0 1 1-2.282 0 1.141 1.141 0 0 1 2.282 0zm0 0"/>
  <path fill="none" stroke="green" stroke-linecap="round" stroke-linejoin="round" stroke-miterlimit="10" stroke-width=".36" d="M445.5 272.64h28.8m0 0v28.739m34.56-28.739H474.3"/>
  <path fill="green" fill-rule="evenodd" d="M475.441 272.64a1.141 1.141 0 1 1-2.282 0 1.141 1.141 0 0 1 2.282 0"/>
  <path fill="none" stroke="green" stroke-linecap="round" stroke-linejoin="round" stroke-miterlimit="10" stroke-width=".12" d="M475.441 272.64a1.141 1.141 0 1 1-2.282 0 1.141 1.141 0 0 1 2.282 0zm0 0"/>
  <path fill="none" stroke="green" stroke-linecap="round" stroke-linejoin="round" stroke-miterlimit="10" stroke-width=".36" d="M267 335.941v5.758m0 .001h80.64m0 0v-23.04m28.739-5.762V341.7m0 0H347.64"/>
  <path fill="green" fill-rule="evenodd" d="M348.781 341.7a1.141 1.141 0 0 1-2.281 0 1.142 1.142 0 0 1 2.281-.001"/>
  <path fill="none" stroke="green" stroke-linecap="round" stroke-linejoin="round" stroke-miterlimit="10" stroke-width=".12" d="M348.781 341.7a1.141 1.141 0 0 1-2.281 0 1.142 1.142 0 0 1 2.281-.001zm0 0"/>
  <path fill="none" stroke="green" stroke-linecap="round" stroke-linejoin="round" stroke-miterlimit="10" stroke-width=".36" d="M376.379 341.7H445.5m0 0h28.8m0 0v-28.802"/>
  <path fill="green" fill-rule="evenodd" d="M377.52 341.7a1.14 1.14 0 1 1-2.282 0 1.14 1.14 0 1 1 2.281 0"/>
  <path fill="none" stroke="green" stroke-linecap="round" stroke-linejoin="round" stroke-miterlimit="10" stroke-width=".12" d="M377.52 341.7a1.14 1.14 0 1 1-2.282 0 1.14 1.14 0 1 1 2.281 0zm0 0"/>
  <path fill="none" stroke="green" stroke-linecap="round" stroke-linejoin="round" stroke-miterlimit="10" stroke-width=".36" d="M445.5 318.66v23.04"/>
  <path fill="green" fill-rule="evenodd" d="M446.64 341.7c0 .628-.511 1.14-1.14 1.14a1.141 1.141 0 0 1 0-2.281c.629 0 1.14.511 1.14 1.14"/>
  <path fill="none" stroke="green" stroke-linecap="round" stroke-linejoin="round" stroke-miterlimit="10" stroke-width=".12" d="M446.64 341.7c0 .628-.511 1.14-1.14 1.14a1.141 1.141 0 0 1 0-2.281c.629 0 1.14.511 1.14 1.14zm0 0"/>
  <path fill="none" stroke="green" stroke-linecap="round" stroke-linejoin="round" stroke-miterlimit="10" stroke-width=".36" d="M508.86 307.14h-5.758m0 0v34.56"/>
  <path fill="green" fill-rule="evenodd" d="M475.441 341.7a1.14 1.14 0 1 1-2.278 0 1.14 1.14 0 0 1 2.278-.001"/>
  <path fill="none" stroke="green" stroke-linecap="round" stroke-linejoin="round" stroke-miterlimit="10" stroke-width=".12" d="M475.441 341.7a1.14 1.14 0 1 1-2.278 0 1.14 1.14 0 0 1 2.278-.001zm0 0"/>
  <path fill="none" stroke="green" stroke-linecap="round" stroke-linejoin="round" stroke-miterlimit="10" stroke-width=".36" d="M503.102 341.7H474.3m28.802 5.76v-5.76"/>
  <path fill="green" fill-rule="evenodd" d="M504.238 341.7a1.139 1.139 0 1 1-2.277 0 1.14 1.14 0 1 1 2.277 0"/>
  <path fill="none" stroke="green" stroke-linecap="round" stroke-linejoin="round" stroke-miterlimit="10" stroke-width=".12" d="M504.238 341.7a1.139 1.139 0 1 1-2.277 0 1.14 1.14 0 1 1 2.277 0zm0 0"/>
  <path fill="none" stroke="green" stroke-linecap="round" stroke-linejoin="round" stroke-miterlimit="10" stroke-width=".36" d="M566.398 341.7h-17.277m0 0h-46.02m46.02-46.079V341.7"/>
  <path fill="green" fill-rule="evenodd" d="M550.262 341.7a1.14 1.14 0 1 1-1.14-1.14 1.14 1.14 0 0 1 1.14 1.14"/>
  <path fill="none" stroke="green" stroke-linecap="round" stroke-linejoin="round" stroke-miterlimit="10" stroke-width=".12" d="M550.262 341.7a1.14 1.14 0 1 1-1.14-1.14 1.14 1.14 0 0 1 1.14 1.14zm0 0"/>
</svg>
