<svg xmlns="http://www.w3.org/2000/svg" xmlns:xlink="http://www.w3.org/1999/xlink" width="595pt" height="560" viewBox="0 0 595 420"><defs><symbol overflow="visible" id="a"><path d="M1.64.281H.423c.008.04.02.082.031.125a.43.43 0 0 0 .078.11c.04.039.082.078.125.109.051.04.114.082.188.125l.328.172c.156.094.273.195.36.312a.648.648 0 0 1 .062.657.566.566 0 0 1-.157.218.588.588 0 0 1-.234.141.942.942 0 0 1-.672-.031.702.702 0 0 1-.344-.406C.176 1.75.165 1.69.158 1.64V1.5h.296c0 .07.004.133.016.188.008.05.023.097.047.14a.375.375 0 0 0 .156.156.477.477 0 0 0 .406.032.476.476 0 0 0 .156-.094c.04-.043.07-.09.094-.14a.497.497 0 0 0 .031-.173c0-.18-.105-.328-.312-.453L.75 1A2.553 2.553 0 0 1 .453.781.909.909 0 0 1 .25.578a.83.83 0 0 1-.094-.25A1.837 1.837 0 0 1 .11 0h1.532zm0 0"/></symbol><symbol overflow="visible" id="b"><path d="M.625.344H.281V0h.344zm0 0"/></symbol><symbol overflow="visible" id="c"><path d="M1.688 2.297H.155v-.281h1.235c-.137-.2-.258-.383-.36-.547a6.407 6.407 0 0 1-.25-.485A3.087 3.087 0 0 1 .594.516 4.086 4.086 0 0 1 .454 0H.75a4.533 4.533 0 0 0 .313 1.047c.082.164.171.332.265.5.102.164.223.332.36.5zm0 0"/></symbol><symbol overflow="visible" id="d"><path d="M.219 1.688V0H.5v.938a.63.63 0 0 0 .031.218c.02.07.051.133.094.188.04.05.086.086.14.11.051.03.114.046.188.046a.35.35 0 0 0 .36-.328V0h.265v1.281c0 .07-.016.133-.047.188a.267.267 0 0 1-.11.14.48.48 0 0 1-.171.094 1.42 1.42 0 0 1-.219.047.578.578 0 0 1-.328-.094.766.766 0 0 1-.234-.25v.282zm0 0"/></symbol><symbol overflow="visible" id="e"><path d="M.594 1.078h1.125v.266H.594v.75h1.281v.265H.297V0h.297zm0 0"/></symbol><symbol overflow="visible" id="f"><path d="M1.547 2.297H.359l-.171-1.25h.265a.53.53 0 0 0 .094.094c.031.03.062.05.094.062.03.02.062.031.093.031.04.008.082.02.125.032.082-.012.149-.028.204-.047a.367.367 0 0 0 .156-.11.505.505 0 0 0 .11-.187 1.42 1.42 0 0 0 .046-.219 1.325 1.325 0 0 0-.047-.219.597.597 0 0 0-.14-.203C1.125.22 1.016.18.859.171a.436.436 0 0 0-.296.095.686.686 0 0 0-.172.296H.109A.577.577 0 0 1 .141.438C.148.407.16.367.17.329A.605.605 0 0 1 .25.203.51.51 0 0 1 .5 0a.907.907 0 0 1 .375-.078.774.774 0 0 1 .563.234c.07.07.125.156.156.25.039.102.062.219.062.344 0 .113-.023.21-.062.297a.588.588 0 0 1-.14.234.702.702 0 0 1-.532.235.57.57 0 0 1-.235-.047A1.05 1.05 0 0 1 .5 1.375l.078.64h.969zm0 0"/></symbol><symbol overflow="visible" id="g"><path d="M.844 1.64V0h.281v2.297H.937a.817.817 0 0 0-.078-.219.434.434 0 0 0-.109-.125.541.541 0 0 0-.172-.078 2.396 2.396 0 0 0-.25-.031V1.64zm0 0"/></symbol><symbol overflow="visible" id="h"><path d="M.453 2.36H.187V0h.266v.656L.72.922 1.297 0h.328L.937 1.11l.579.577h-.344L.453.97zm0 0"/></symbol><symbol overflow="visible" id="m"><path d="M2.14 1.625c-.042.258-.14.453-.296.578-.149.125-.352.188-.61.188-.156 0-.304-.028-.437-.079a.714.714 0 0 1-.313-.203 1.503 1.503 0 0 1-.25-.437 1.552 1.552 0 0 1-.078-.516C.156.957.18.773.234.61.297.453.383.316.5.203A.676.676 0 0 1 .797 0c.125-.05.265-.078.422-.078.57 0 .894.312.968.937h-.312a1.325 1.325 0 0 0-.047-.218A.33.33 0 0 0 1.766.5a.442.442 0 0 0-.22-.234.638.638 0 0 0-.327-.079.732.732 0 0 0-.313.063.83.83 0 0 0-.25.203C.594.535.54.633.5.75a1.657 1.657 0 0 0-.047.406c0 .145.016.274.047.39.04.126.094.227.156.313.063.094.133.16.219.204.094.039.203.062.328.062a.634.634 0 0 0 .25-.047.653.653 0 0 0 .203-.094.69.69 0 0 0 .11-.156.566.566 0 0 0 .062-.203zm0 0"/></symbol><symbol overflow="visible" id="n"><path d="M.61 1.016h.765c.133 0 .234-.04.297-.11.062-.062.094-.168.094-.312V.39c0-.075.004-.149.015-.22A.586.586 0 0 1 1.828 0h.375v.078a.146.146 0 0 0-.078.047.577.577 0 0 0-.078.219v.203c0 .094-.008.172-.016.234a.713.713 0 0 1-.047.172.34.34 0 0 1-.093.125.648.648 0 0 1-.157.078.603.603 0 0 1 .375.578c0 .196-.062.348-.187.454-.125.113-.305.171-.531.171H.297V0h.312zm0 .265v.813h.718a.6.6 0 0 0 .203-.031.38.38 0 0 0 .14-.063.403.403 0 0 0 .126-.313c0-.136-.043-.242-.125-.312-.074-.063-.188-.094-.344-.094zm0 0"/></symbol><symbol overflow="visible" id="o"><path d="M.719 1.047H.75l.125.016c.313-.012.469-.153.469-.422a.464.464 0 0 0-.125-.344.554.554 0 0 0-.344-.125C.719.172.598.21.515.297.442.379.399.504.392.672H.109c0-.094.004-.18.016-.25A.487.487 0 0 1 .203.266.658.658 0 0 1 .453 0 .991.991 0 0 1 .86-.078a.81.81 0 0 1 .313.062.599.599 0 0 1 .25.141c.07.063.125.133.156.219.04.094.063.191.063.297a.57.57 0 0 1-.094.343.542.542 0 0 1-.297.204c.207.082.313.238.313.468a.687.687 0 0 1-.047.266.5.5 0 0 1-.141.203.586.586 0 0 1-.219.125.817.817 0 0 1-.281.047c-.242 0-.422-.063-.547-.188-.117-.125-.172-.312-.172-.562h.281c0 .07.004.129.016.172.008.039.02.082.031.125.032.062.079.11.141.14.07.04.156.063.25.063.125 0 .223-.04.297-.11a.396.396 0 0 0 .11-.28.381.381 0 0 0-.048-.204.234.234 0 0 0-.14-.11c-.024-.011-.047-.023-.078-.03-.024 0-.055-.008-.094-.016H.719zm0 0"/></symbol><symbol overflow="visible" id="p"><path d="M1.14 2.094h.782v.265H.062v-.265h.782V0h.297zm0 0"/></symbol><symbol overflow="visible" id="q"><path d="M1.063.547V0h.28v.547h.345v.265h-.344v1.485h-.219L.094.844V.547zm0 .265h-.72l.72 1zm0 0"/></symbol><symbol overflow="visible" id="r"><path d="M1.266 2.39c-.18 0-.34-.03-.485-.093a.95.95 0 0 1-.36-.25 1.082 1.082 0 0 1-.218-.39 1.43 1.43 0 0 1-.078-.5c0-.188.023-.36.078-.516C.253.492.328.363.422.25.523.145.645.062.782 0c.144-.05.304-.078.484-.078.132 0 .265.023.39.062.125.04.239.102.344.188.063.05.113.113.156.187.051.07.094.149.125.235.04.082.07.172.094.265a1.379 1.379 0 0 1-.063.797 1.054 1.054 0 0 1-.234.39.843.843 0 0 1-.36.25c-.136.063-.288.095-.452.095zm0-.265a.68.68 0 0 0 .328-.078.748.748 0 0 0 .265-.188.681.681 0 0 0 .172-.312 1.298 1.298 0 0 0 0-.797.957.957 0 0 0-.172-.297.845.845 0 0 0-.265-.203.78.78 0 0 0-.328-.063.883.883 0 0 0-.344.063.765.765 0 0 0-.266.203.825.825 0 0 0-.172.297 1.23 1.23 0 0 0-.062.406c0 .145.02.274.062.39.04.126.098.227.172.313a.799.799 0 0 0 .61.266zm0 0"/></symbol><symbol overflow="visible" id="s"><path d="M1.781 2.36V.702a.476.476 0 0 0-.047-.219.525.525 0 0 0-.156-.203C1.504.22 1.368.187 1.172.187A.676.676 0 0 0 .75.314a.386.386 0 0 0-.14.156.681.681 0 0 0-.032.234V2.36H.281V.703C.281.578.297.47.328.375A.734.734 0 0 1 .5.125a.838.838 0 0 1 .297-.14 1.143 1.143 0 0 1 .75 0 .732.732 0 0 1 .281.14c.082.07.145.156.188.25.039.094.066.203.078.328V2.36zm0 0"/></symbol><symbol overflow="visible" id="v"><path d="M.594 1h.75c.082 0 .16.008.234.031a.634.634 0 0 1 .36.344.68.68 0 0 1 .062.297c0 .219-.063.383-.188.5-.125.125-.308.187-.546.187h-.97V0h.298zm0 .266v.828h.625c.144 0 .254-.04.328-.11a.46.46 0 0 0 .14-.312.43.43 0 0 0-.14-.297c-.074-.074-.184-.11-.328-.11zm0 0"/></symbol><symbol overflow="visible" id="w"><path d="M2.406 0L3 2.36h-.328L2.234.437l-.53 1.921h-.329L.844.438.406 2.359H.078L.672 0H1l.531 1.938L2.078 0zm0 0"/></symbol><symbol overflow="visible" id="i"><path d="M0 .25v1.063c0 .113-.016.21-.047.296a.528.528 0 0 1-.156.22.634.634 0 0 1-.203.14.745.745 0 0 1-.266.047.525.525 0 0 1-.344-.11c-.093-.062-.171-.172-.234-.328a.46.46 0 0 1-.188.25A.68.68 0 0 1-2 1.86a.539.539 0 0 1-.188-.14.493.493 0 0 1-.124-.219.817.817 0 0 1-.047-.281V.25zm-1.344.313h-.75v.578a.6.6 0 0 0 .031.203c.012.05.028.097.047.14a.38.38 0 0 0 .297.125.48.48 0 0 0 .172-.03.31.31 0 0 0 .188-.235.997.997 0 0 0 .015-.203zm1.078 0h-.812v.734a.497.497 0 0 0 .11.312c.042.032.09.055.14.079.055.019.105.03.156.03a.48.48 0 0 0 .172-.03c.043-.024.086-.047.125-.079a.404.404 0 0 0 .094-.14.804.804 0 0 0 .015-.172zm0 0"/></symbol><symbol overflow="visible" id="j"><path d="M-1.625 2.14c-.258-.042-.453-.14-.578-.296-.125-.149-.188-.352-.188-.61 0-.156.028-.304.079-.437A.714.714 0 0 1-2.11.484c.125-.105.273-.187.437-.25.156-.054.328-.078.516-.078.199 0 .383.024.547.078.156.063.293.149.406.266.094.082.164.18.203.297.05.125.078.265.078.422 0 .57-.312.894-.937.968v-.312c.086-.012.156-.027.218-.047A.33.33 0 0 0-.5 1.766a.442.442 0 0 0 .234-.22.638.638 0 0 0 .079-.327A.732.732 0 0 0-.25.906a.83.83 0 0 0-.203-.25A1.016 1.016 0 0 0-.75.5a1.657 1.657 0 0 0-.406-.047c-.145 0-.274.016-.39.047-.126.04-.227.094-.313.156a.568.568 0 0 0-.204.219.847.847 0 0 0-.062.328c0 .094.016.176.047.25a.653.653 0 0 0 .094.203.69.69 0 0 0 .156.11c.055.03.121.05.203.062zm0 0"/></symbol><symbol overflow="visible" id="k"><path d="M-2.297 1.547V.359l1.25-.171v.265a.53.53 0 0 0-.094.094.262.262 0 0 0-.062.094.179.179 0 0 0-.031.093c-.008.04-.02.082-.032.125.012.082.028.149.047.204a.367.367 0 0 0 .11.156c.054.05.117.086.187.11.063.019.137.034.219.046.086-.012.156-.027.219-.047a.597.597 0 0 0 .203-.14c.062-.063.101-.172.11-.329A.436.436 0 0 0-.267.563.686.686 0 0 0-.562.39V.109c.054.008.093.02.125.032.03.007.07.02.109.03.043.02.086.048.125.079A.51.51 0 0 1 0 .5c.05.113.078.238.078.375a.774.774 0 0 1-.234.563.645.645 0 0 1-.25.156.961.961 0 0 1-.344.062.706.706 0 0 1-.297-.062.588.588 0 0 1-.234-.14.702.702 0 0 1-.235-.532.57.57 0 0 1 .047-.235A1.05 1.05 0 0 1-1.375.5l-.64.078v.969zm0 0"/></symbol><symbol overflow="visible" id="l"><path d="M-2.297 1.688V.155h.281v1.235c.2-.137.383-.258.547-.36.168-.093.328-.18.485-.25.148-.074.304-.136.468-.187.157-.055.329-.102.516-.14V.75a4.533 4.533 0 0 0-1.047.313c-.164.082-.332.171-.5.265a4.812 4.812 0 0 0-.5.36zm0 0"/></symbol><symbol overflow="visible" id="t"><path d="M1.14 1.25H.189V.969h.953zm0 0"/></symbol><symbol overflow="visible" id="u"><path d="M-1.078 2.14v-.828h-.828v-.28h.828V.202h.281v.828h.844v.282h-.844v.828zm0 0"/></symbol><symbol overflow="visible" id="x"><path d="M1.438 1.578H.234v-.36h1.204zm0 0"/></symbol><clipPath id="y"><path d="M340 179.762h1.2V239H340zm0 0"/></clipPath><clipPath id="z"><path d="M254 179.762h87.2V181H254zm0 0"/></clipPath><clipPath id="A"><path d="M254 179.762h1V239h-1zm0 0"/></clipPath><clipPath id="B"><path d="M254 237h87.2v2H254zm0 0"/></clipPath><clipPath id="C"><path d="M254 179.762h87.2V181H254zm0 0"/></clipPath><clipPath id="D"><path d="M254 180h87.2v2H254zm0 0"/></clipPath><clipPath id="E"><path d="M254 181h87.2v1H254zm0 0"/></clipPath><clipPath id="F"><path d="M254 181h87.2v2H254zm0 0"/></clipPath><clipPath id="G"><path d="M254 182h87.2v2H254zm0 0"/></clipPath><clipPath id="H"><path d="M262 183h79.2v2H262zm0 0"/></clipPath><clipPath id="I"><path d="M311 184h30.2v1H311zm0 0"/></clipPath><clipPath id="J"><path d="M313 184h28.2v2H313zm0 0"/></clipPath><clipPath id="K"><path d="M314 185h27.2v2H314zm0 0"/></clipPath><clipPath id="L"><path d="M314 186h27.2v1H314zm0 0"/></clipPath><clipPath id="M"><path d="M314 186h27.2v2H314zm0 0"/></clipPath><clipPath id="N"><path d="M314 187h27.2v2H314zm0 0"/></clipPath><clipPath id="O"><path d="M314 187h27.2v2H314zm0 0"/></clipPath><clipPath id="P"><path d="M327 188h14.2v2H327zm0 0"/></clipPath><clipPath id="Q"><path d="M329 189h12.2v1H329zm0 0"/></clipPath><clipPath id="R"><path d="M329 189h12.2v2H329zm0 0"/></clipPath><clipPath id="S"><path d="M330 190h11.2v2H330zm0 0"/></clipPath><clipPath id="T"><path d="M331 191h10.2v1H331zm0 0"/></clipPath><clipPath id="U"><path d="M331 191h10.2v2H331zm0 0"/></clipPath><clipPath id="V"><path d="M331 192h10.2v2H331zm0 0"/></clipPath><clipPath id="W"><path d="M331 193h10.2v1H331zm0 0"/></clipPath><clipPath id="X"><path d="M331 193h10.2v2H331zm0 0"/></clipPath><clipPath id="Y"><path d="M331 194h10.2v1H331zm0 0"/></clipPath><clipPath id="Z"><path d="M331 194h10.2v2H331zm0 0"/></clipPath><clipPath id="aa"><path d="M331 195h10.2v2H331zm0 0"/></clipPath><clipPath id="ab"><path d="M331 196h10.2v1H331zm0 0"/></clipPath><clipPath id="ac"><path d="M331 196h10.2v2H331zm0 0"/></clipPath><clipPath id="ad"><path d="M330 197h11.2v2H330zm0 0"/></clipPath><clipPath id="ae"><path d="M330 198h11.2v1H330zm0 0"/></clipPath><clipPath id="af"><path d="M329 198h12.2v2H329zm0 0"/></clipPath><clipPath id="ag"><path d="M329 199h12.2v2H329zm0 0"/></clipPath><clipPath id="ah"><path d="M329 199h12.2v2H329zm0 0"/></clipPath><clipPath id="ai"><path d="M329 200h12.2v2H329zm0 0"/></clipPath><clipPath id="aj"><path d="M326 201h15.2v1H326zm0 0"/></clipPath><clipPath id="ak"><path d="M329 201h12.2v2H329zm0 0"/></clipPath><clipPath id="al"><path d="M329 202h12.2v2H329zm0 0"/></clipPath><clipPath id="am"><path d="M329 203h12.2v1H329zm0 0"/></clipPath><clipPath id="an"><path d="M330 203h11.2v2H330zm0 0"/></clipPath><clipPath id="ao"><path d="M331 204h10.2v2H331zm0 0"/></clipPath><clipPath id="ap"><path d="M331 204h10.2v2H331zm0 0"/></clipPath><clipPath id="aq"><path d="M331 205h10.2v2H331zm0 0"/></clipPath><clipPath id="ar"><path d="M332 206h9.2v1H332zm0 0"/></clipPath><clipPath id="as"><path d="M332 206h9.2v2H332zm0 0"/></clipPath><clipPath id="at"><path d="M332 207h9.2v2H332zm0 0"/></clipPath><clipPath id="au"><path d="M332 208h9.2v1H332zm0 0"/></clipPath><clipPath id="av"><path d="M332 208h9.2v2H332zm0 0"/></clipPath><clipPath id="aw"><path d="M332 209h9.2v2H332zm0 0"/></clipPath><clipPath id="ax"><path d="M332 210h9.2v1H332zm0 0"/></clipPath><clipPath id="ay"><path d="M332 210h9.2v2H332zm0 0"/></clipPath><clipPath id="az"><path d="M331 211h10.2v1H331zm0 0"/></clipPath><clipPath id="aA"><path d="M331 211h10.2v2H331zm0 0"/></clipPath><clipPath id="aB"><path d="M331 212h10.2v2H331zm0 0"/></clipPath><clipPath id="aC"><path d="M332 213h9.2v1H332zm0 0"/></clipPath><clipPath id="aD"><path d="M332 213h9.2v2H332zm0 0"/></clipPath><clipPath id="aE"><path d="M332 214h9.2v2H332zm0 0"/></clipPath><clipPath id="aF"><path d="M332 215h9.2v1H332zm0 0"/></clipPath><clipPath id="aG"><path d="M332 215h9.2v2H332zm0 0"/></clipPath><clipPath id="aH"><path d="M332 216h9.2v2H332zm0 0"/></clipPath><clipPath id="aI"><path d="M332 216h9.2v2H332zm0 0"/></clipPath><clipPath id="aJ"><path d="M332 217h9.2v2H332zm0 0"/></clipPath><clipPath id="aK"><path d="M332 218h9.2v1H332zm0 0"/></clipPath><clipPath id="aL"><path d="M332 218h9.2v2H332zm0 0"/></clipPath><clipPath id="aM"><path d="M331 219h10.2v2H331zm0 0"/></clipPath><clipPath id="aN"><path d="M331 220h10.2v1H331zm0 0"/></clipPath><clipPath id="aO"><path d="M330 220h11.2v2H330zm0 0"/></clipPath><clipPath id="aP"><path d="M329 221h12.2v1H329zm0 0"/></clipPath><clipPath id="aQ"><path d="M328 221h13.2v2H328zm0 0"/></clipPath><clipPath id="aR"><path d="M324 222h17.2v2H324zm0 0"/></clipPath><clipPath id="aS"><path d="M324 223h17.2v1H324zm0 0"/></clipPath><clipPath id="aT"><path d="M324 223h17.2v2H324zm0 0"/></clipPath><clipPath id="aU"><path d="M324 224h17.2v2H324zm0 0"/></clipPath><clipPath id="aV"><path d="M324 225h17.2v1H324zm0 0"/></clipPath><clipPath id="aW"><path d="M324 225h17.2v2H324zm0 0"/></clipPath><clipPath id="aX"><path d="M333 226h8.2v2H333zm0 0"/></clipPath><clipPath id="aY"><path d="M335 226h6.2v2H335zm0 0"/></clipPath><clipPath id="aZ"><path d="M336 227h5.2v2H336zm0 0"/></clipPath><clipPath id="ba"><path d="M336 228h5.2v1H336zm0 0"/></clipPath><clipPath id="bb"><path d="M336 228h5.2v2H336zm0 0"/></clipPath><clipPath id="bc"><path d="M337 229h4.2v2H337zm0 0"/></clipPath><clipPath id="bd"><path d="M333 230h8.2v1H333zm0 0"/></clipPath><clipPath id="be"><path d="M337 230h4.2v2H337zm0 0"/></clipPath><clipPath id="bf"><path d="M336 231h5.2v2H336zm0 0"/></clipPath><clipPath id="bg"><path d="M336 232h5.2v1H336zm0 0"/></clipPath><clipPath id="bh"><path d="M336 232h5.2v2H336zm0 0"/></clipPath><clipPath id="bi"><path d="M335 233h6.2v1H335zm0 0"/></clipPath><clipPath id="bj"><path d="M333 233h8.2v2H333zm0 0"/></clipPath><clipPath id="bk"><path d="M323 234h18.2v2H323zm0 0"/></clipPath><clipPath id="bl"><path d="M323 235h18.2v1H323zm0 0"/></clipPath><clipPath id="bm"><path d="M322 235h19.2v2H322zm0 0"/></clipPath><clipPath id="bn"><path d="M321 236h20.2v2H321zm0 0"/></clipPath><clipPath id="bo"><path d="M254 237h87.2v1H254zm0 0"/></clipPath></defs><use xlink:href="#a" x="294.055" y="197.004" fill="gray"/><use xlink:href="#b" x="295.855" y="197.004" fill="gray"/><use xlink:href="#c" x="296.755" y="197.004" fill="gray"/><use xlink:href="#d" x="298.555" y="197.004" fill="gray"/><use xlink:href="#e" x="300.355" y="197.004" fill="gray"/><use xlink:href="#a" x="294.055" y="204.19" fill="gray"/><use xlink:href="#b" x="295.855" y="204.19" fill="gray"/><use xlink:href="#c" x="296.755" y="204.19" fill="gray"/><use xlink:href="#d" x="298.555" y="204.19" fill="gray"/><use xlink:href="#e" x="300.355" y="204.19" fill="gray"/><use xlink:href="#f" x="269.241" y="190.475" fill="gray"/><use xlink:href="#b" x="271.041" y="190.475" fill="gray"/><use xlink:href="#g" x="271.941" y="190.475" fill="gray"/><use xlink:href="#h" x="273.741" y="190.475" fill="gray"/><use xlink:href="#g" x="262.951" y="190.475" fill="gray"/><use xlink:href="#f" x="264.751" y="190.475" fill="gray"/><use xlink:href="#h" x="266.551" y="190.475" fill="gray"/><use xlink:href="#g" x="306.091" y="190.475" fill="gray"/><use xlink:href="#f" x="307.891" y="190.475" fill="gray"/><use xlink:href="#h" x="309.691" y="190.475" fill="gray"/><use xlink:href="#i" x="286.747" y="218.314" fill="gray"/><use xlink:href="#j" x="286.747" y="220.474" fill="gray"/><use xlink:href="#k" x="286.747" y="222.814" fill="gray"/><use xlink:href="#k" x="286.747" y="224.614" fill="gray"/><use xlink:href="#l" x="286.747" y="226.414" fill="gray"/><use xlink:href="#i" x="308.317" y="218.314" fill="gray"/><use xlink:href="#j" x="308.317" y="220.474" fill="gray"/><use xlink:href="#k" x="308.317" y="222.814" fill="gray"/><use xlink:href="#k" x="308.317" y="224.614" fill="gray"/><use xlink:href="#l" x="308.317" y="226.414" fill="gray"/><use xlink:href="#f" x="333.776" y="236.464" fill="gray"/><use xlink:href="#h" x="335.576" y="236.464" fill="gray"/><use xlink:href="#m" x="287.944" y="204.19" fill="gray"/><use xlink:href="#a" x="290.284" y="204.19" fill="gray"/><use xlink:href="#m" x="287.944" y="211.376" fill="gray"/><use xlink:href="#g" x="290.284" y="211.376" fill="gray"/><use xlink:href="#n" x="271.221" y="203.534" fill="gray"/><use xlink:href="#a" x="273.561" y="203.534" fill="gray"/><use xlink:href="#n" x="264.031" y="203.534" fill="gray"/><use xlink:href="#g" x="266.371" y="203.534" fill="gray"/><use xlink:href="#n" x="307.172" y="203.534" fill="gray"/><use xlink:href="#o" x="309.511" y="203.534" fill="gray"/><use xlink:href="#p" x="278.474" y="222.155" fill="gray"/><use xlink:href="#g" x="280.454" y="222.155" fill="gray"/><use xlink:href="#p" x="300.044" y="222.155" fill="gray"/><use xlink:href="#a" x="302.024" y="222.155" fill="gray"/><use xlink:href="#n" x="329.461" y="209.158" fill="gray"/><use xlink:href="#q" x="331.801" y="209.158" fill="gray"/><path d="M283.3 201.719h9.66M304.84 201.719h-9.719M283.3 208.922h9.66M304.84 208.922h-9.719" fill="none" stroke-width=".24" stroke-linecap="round" stroke-linejoin="round" stroke="gray" stroke-miterlimit="10"/><path d="M276.102 208.922V202.8M276.102 187.379v6.121M268.898 208.922V202.8M268.898 187.379v6.121M312.04 208.922V202.8M312.04 187.379v6.121" fill="none" stroke-width=".7200000000000001" stroke-linecap="round" stroke-linejoin="round" stroke="gray" stroke-miterlimit="10"/><path d="M323.922 212.52h4.976M326.441 219.36v-1.438M316.719 234.059h5.043M331.059 234.059h5.043M315.64 227.578v5.402M337.18 232.98v-5.402M320.621 223.32a5.761 5.761 0 0 1 5.758-5.761 5.759 5.759 0 1 1 0 11.52 5.758 5.758 0 0 1-5.758-5.759zm0 0" fill="none" stroke-width=".48" stroke-linecap="round" stroke-linejoin="round" stroke="gray" stroke-miterlimit="10"/><path d="M322.781 223.32a3.6 3.6 0 1 1 7.2 0 3.6 3.6 0 1 1-7.2 0zm0 0" fill="none" stroke-width=".48" stroke-linecap="round" stroke-linejoin="round" stroke="gray" stroke-miterlimit="10"/><path d="M321.04 231.898h-3.599v2.16h3.598zm0 0" fill="gray" stroke-width=".12" stroke-linecap="round" stroke-linejoin="round" stroke="gray" stroke-miterlimit="10"/><path d="M289 199.922h10.078M287.922 201v1.441M289 203.52l-.422-.06-.297-.241-.242-.36-.117-.418M299.078 203.52H289" fill="none" stroke-width=".30000000000000004" stroke-linecap="round" stroke-linejoin="round" stroke="gray" stroke-miterlimit="10"/><path d="M295.121 200.281h-.723v2.88h.723zm0 0M293.68 200.281h-.72v2.88h.72zm0 0" fill="gray" stroke-width=".12" stroke-linecap="round" stroke-linejoin="round" stroke="gray" stroke-miterlimit="10"/><path d="M287.922 201l.117-.422.242-.297.297-.242.422-.117M300.16 202.441V201M299.078 199.922l.422.117.36.242.242.297.058.422M300.16 202.441l-.058.418-.243.36-.359.242-.422.059M289 207.121h10.078M287.922 208.2v1.44M289 210.719l-.422-.059-.297-.238-.242-.363-.117-.418M299.078 210.719H289" fill="none" stroke-width=".30000000000000004" stroke-linecap="round" stroke-linejoin="round" stroke="gray" stroke-miterlimit="10"/><path d="M295.121 207.48h-.723v2.88h.723zm0 0M293.68 207.48h-.72v2.88h.72zm0 0" fill="gray" stroke-width=".12" stroke-linecap="round" stroke-linejoin="round" stroke="gray" stroke-miterlimit="10"/><path d="M287.922 208.2l.117-.419.242-.36.297-.241.422-.059M300.16 209.64v-1.44M299.078 207.121l.422.059.36.242.242.36.058.417M300.16 209.64l-.058.419-.243.363-.359.238-.422.059" fill="none" stroke-width=".30000000000000004" stroke-linecap="round" stroke-linejoin="round" stroke="gray" stroke-miterlimit="10"/><path d="M274.3 195.238l.06-.238.12-.238.239-.184h.3M277.18 194.578h.242l.238.184.18.238.058.238M277.898 201l-.058.3-.18.24-.238.12-.242.059M275.02 201.719l-.301-.059-.239-.12-.12-.24-.06-.3" fill="none" stroke-width=".48" stroke-linecap="round" stroke-linejoin="round" stroke="gray" stroke-miterlimit="10"/><path d="M274.3 195.238l.06-.238.12-.238.239-.184h.3M277.18 194.578h.242l.238.184.18.238.058.238M277.898 201l-.058.3-.18.24-.238.12-.242.059M275.02 201.719l-.301-.059-.239-.12-.12-.24-.06-.3M277.18 194.578h-2.16M274.3 201v-5.762M277.898 201v-5.762M277.18 201.719h-2.16" fill="none" stroke-width=".48" stroke-linecap="round" stroke-linejoin="round" stroke="gray" stroke-miterlimit="10"/><path d="M276.46 201.719h-.722v1.082h.723zm0 0M276.46 193.5h-.722v1.082h.723zm0 0" fill="gray" stroke-width=".12" stroke-linecap="round" stroke-linejoin="round" stroke="gray" stroke-miterlimit="10"/><path d="M267.102 195.238l.058-.238.121-.238.239-.184h.3M269.98 194.578h.239l.242.184.18.238.058.238M270.7 201l-.06.3-.18.24-.241.12-.239.059M267.82 201.719l-.3-.059-.239-.12-.12-.24-.06-.3" fill="none" stroke-width=".48" stroke-linecap="round" stroke-linejoin="round" stroke="gray" stroke-miterlimit="10"/><path d="M267.102 195.238l.058-.238.121-.238.239-.184h.3M269.98 194.578h.239l.242.184.18.238.058.238M270.7 201l-.06.3-.18.24-.241.12-.239.059M267.82 201.719l-.3-.059-.239-.12-.12-.24-.06-.3M269.98 194.578h-2.16M267.102 201v-5.762M270.7 201v-5.762M269.98 201.719h-2.16" fill="none" stroke-width=".48" stroke-linecap="round" stroke-linejoin="round" stroke="gray" stroke-miterlimit="10"/><path d="M269.262 201.719h-.723v1.082h.723zm0 0M269.262 193.5h-.723v1.082h.723zm0 0" fill="gray" stroke-width=".12" stroke-linecap="round" stroke-linejoin="round" stroke="gray" stroke-miterlimit="10"/><path d="M310.238 195.238l.063-.238.12-.238.24-.184h.3M313.121 194.578h.238l.243.184.18.238.058.238M313.84 201l-.059.3-.18.24-.242.12-.238.059M310.96 201.719l-.3-.059-.238-.12-.121-.24-.063-.3" fill="none" stroke-width=".48" stroke-linecap="round" stroke-linejoin="round" stroke="gray" stroke-miterlimit="10"/><path d="M310.238 195.238l.063-.238.12-.238.24-.184h.3M313.121 194.578h.238l.243.184.18.238.058.238M313.84 201l-.059.3-.18.24-.242.12-.238.059M310.96 201.719l-.3-.059-.238-.12-.121-.24-.063-.3M313.121 194.578h-2.16M310.238 201v-5.762M313.84 201v-5.762M313.121 201.719h-2.16" fill="none" stroke-width=".48" stroke-linecap="round" stroke-linejoin="round" stroke="gray" stroke-miterlimit="10"/><path d="M312.398 201.719h-.718v1.082h.718zm0 0M312.398 193.5h-.718v1.082h.718zm0 0" fill="gray" stroke-width=".12" stroke-linecap="round" stroke-linejoin="round" stroke="gray" stroke-miterlimit="10"/><path d="M287.922 217.379v11.82M280.059 230.102l-1.137-.66-1.024-.84-.84-1.024-.66-1.078-.418-1.262-.242-1.316v-1.262l.242-1.32.418-1.2.66-1.14.84-1.02 1.024-.84 1.137-.66M283.3 230.82v-15.058M280.059 216.48l1.02-.421 1.081-.239 1.14-.058M283.3 215.762l1.079.117 1.082.242 1.02.36M286.48 216.48l.782.418.66.48M286.48 230.102l-1.02.418-1.081.242-1.078.058M283.3 230.82l-1.14-.058-1.082-.242-1.02-.418M287.922 229.2l-.723.538-.777.422M309.52 217.379v11.82M301.602 230.102l-1.082-.66-1.02-.84-.84-1.024-.66-1.078-.48-1.262-.18-1.316v-1.262l.18-1.32.48-1.2.66-1.14.84-1.02 1.02-.84 1.082-.66M304.84 230.82v-15.058M301.602 216.48l1.078-.421 1.082-.239 1.078-.058M304.84 215.762l1.082.117 1.078.242 1.078.36M308.078 216.48l.723.418.719.48M308.078 230.102l-1.078.418-1.078.242-1.082.058M304.84 230.82l-1.078-.058-1.082-.242-1.078-.418" fill="none" stroke-width=".36000000000000004" stroke-linecap="round" stroke-linejoin="round" stroke="gray" stroke-miterlimit="10"/><path d="M309.52 229.2l-.72.538-.84.422" fill="none" stroke-width=".36000000000000004" stroke-linecap="round" stroke-linejoin="round" stroke="gray" stroke-miterlimit="10"/><use xlink:href="#r" x="322.991" y="195.146" fill="gray"/><use xlink:href="#s" x="325.511" y="195.146" fill="gray"/><use xlink:href="#p" x="327.851" y="195.146" fill="gray"/><path d="M322.84 212.52V198.12M322.84 198.121h7.14M329.98 198.121v14.399M329.98 212.52h-7.14" fill="none" stroke-width=".36000000000000004" stroke-linecap="round" stroke-linejoin="round" stroke="gray" stroke-miterlimit="10"/><use xlink:href="#t" x="331.144" y="200.297" fill="gray"/><use xlink:href="#u" x="333.244" y="207.783" fill="gray"/><use xlink:href="#v" x="257.92" y="180.774" fill="gray"/><use xlink:href="#w" x="260.08" y="180.774" fill="gray"/><use xlink:href="#n" x="263.14" y="180.774" fill="gray"/><path d="M258.102 198.121v-14.34M258.102 183.781h7.199M265.3 183.781v14.34M265.3 198.121h-7.198" fill="none" stroke-width=".36000000000000004" stroke-linecap="round" stroke-linejoin="round" stroke="gray" stroke-miterlimit="10"/><use xlink:href="#x" x="255.468" y="185.566" fill="gray"/><use xlink:href="#u" x="257.747" y="193.411" fill="gray"/><path d="M327.102 222.602V220.8M327.102 220.8h-1.383M325.719 220.8v1.802M325.719 222.602h-1.797M323.922 222.602v1.437M323.922 224.04h1.797M325.719 224.04v1.741M325.719 225.781h1.383M327.102 225.781v-1.742M327.102 224.04h1.796M328.898 224.04v-1.438M328.898 222.602h-1.796M316.719 212.52h7.203M328.898 225.781l1.442 1.438M323.922 225.781l-1.442 1.438M331.781 223.32h-1.441M322.48 223.32h-1.44M329.262 220.441l.718-.722M323.559 220.441l-.72-.722M321.762 234.059h9.297M316.719 234.059L316.3 234l-.36-.238-.242-.364-.058-.418M315.64 213.602l.06-.422.241-.36.36-.242.418-.058M336.102 212.52l.418.058.359.242.242.36.059.422M337.18 232.98l-.059.418-.242.364-.36.238-.417.059M336.102 212.52h-7.204M315.64 227.578v-13.976M337.18 213.602v13.976" fill="none" stroke-width=".48" stroke-linecap="round" stroke-linejoin="round" stroke="gray" stroke-miterlimit="10"/><path d="M302.922 201.719a1.859 1.859 0 1 1 3.717-.001 1.859 1.859 0 0 1-3.717 0" fill-rule="evenodd" fill="green"/><path d="M302.922 201.719a1.859 1.859 0 1 1 3.718-.001 1.859 1.859 0 0 1-3.718 0zm0 0" fill="none" stroke-width=".12" stroke-linecap="round" stroke-linejoin="round" stroke="green" stroke-miterlimit="10"/><path d="M303.64 201.719a1.14 1.14 0 1 1 2.282 0 1.14 1.14 0 0 1-1.14 1.14c-.634 0-1.141-.507-1.141-1.14" fill-rule="evenodd" fill="#fff"/><path d="M303.64 201.719a1.14 1.14 0 1 1 2.282 0 1.14 1.14 0 0 1-1.14 1.14c-.634 0-1.141-.507-1.141-1.14zm0 0" fill="none" stroke-width=".06" stroke-linecap="square" stroke-linejoin="bevel" stroke="#000" stroke-miterlimit="10"/><path d="M281.379 201.719a1.861 1.861 0 0 1 3.723 0 1.862 1.862 0 0 1-3.723 0" fill-rule="evenodd" fill="green"/><path d="M281.379 201.719a1.861 1.861 0 0 1 3.723 0 1.862 1.862 0 0 1-3.723 0zm0 0" fill="none" stroke-width=".12" stroke-linecap="round" stroke-linejoin="round" stroke="green" stroke-miterlimit="10"/><path d="M282.102 201.719a1.139 1.139 0 1 1 2.277 0c0 .633-.508 1.14-1.14 1.14a1.136 1.136 0 0 1-1.137-1.14" fill-rule="evenodd" fill="#fff"/><path d="M282.102 201.719a1.139 1.139 0 1 1 2.277 0c0 .633-.508 1.14-1.14 1.14a1.136 1.136 0 0 1-1.137-1.14zm0 0" fill="none" stroke-width=".06" stroke-linecap="square" stroke-linejoin="bevel" stroke="#000" stroke-miterlimit="10"/><path d="M302.922 208.922c0-1.027.832-1.863 1.86-1.863a1.862 1.862 0 0 1 0 3.722 1.861 1.861 0 0 1-1.86-1.86" fill-rule="evenodd" fill="green"/><path d="M302.922 208.922c0-1.027.832-1.863 1.86-1.863a1.862 1.862 0 0 1 0 3.722 1.861 1.861 0 0 1-1.86-1.86zm0 0" fill="none" stroke-width=".12" stroke-linecap="round" stroke-linejoin="round" stroke="green" stroke-miterlimit="10"/><path d="M303.64 208.922c0-.633.508-1.14 1.141-1.14a1.14 1.14 0 1 1 0 2.277c-.633 0-1.14-.508-1.14-1.137" fill-rule="evenodd" fill="#fff"/><path d="M303.64 208.922c0-.633.508-1.14 1.141-1.14a1.14 1.14 0 1 1 0 2.277c-.633 0-1.14-.508-1.14-1.137zm0 0" fill="none" stroke-width=".06" stroke-linecap="square" stroke-linejoin="bevel" stroke="#000" stroke-miterlimit="10"/><path d="M281.379 208.922c0-1.027.836-1.863 1.86-1.863 1.027 0 1.863.836 1.863 1.863 0 1.023-.836 1.86-1.864 1.86a1.864 1.864 0 0 1-1.86-1.86" fill-rule="evenodd" fill="green"/><path d="M281.379 208.922c0-1.027.836-1.863 1.86-1.863 1.027 0 1.863.836 1.863 1.863 0 1.023-.836 1.86-1.864 1.86a1.864 1.864 0 0 1-1.86-1.86zm0 0" fill="none" stroke-width=".12" stroke-linecap="round" stroke-linejoin="round" stroke="green" stroke-miterlimit="10"/><path d="M282.102 208.922c0-.633.507-1.14 1.136-1.14.633 0 1.14.507 1.14 1.14 0 .629-.507 1.137-1.14 1.137a1.135 1.135 0 0 1-1.136-1.137" fill-rule="evenodd" fill="#fff"/><path d="M282.102 208.922c0-.633.507-1.14 1.136-1.14.633 0 1.14.507 1.14 1.14 0 .629-.507 1.137-1.14 1.137a1.135 1.135 0 0 1-1.136-1.137zm0 0" fill="none" stroke-width=".06" stroke-linecap="square" stroke-linejoin="bevel" stroke="#000" stroke-miterlimit="10"/><path d="M274.36 187.379a1.68 1.68 0 1 1 3.36 0 1.68 1.68 0 0 1-3.36 0" fill-rule="evenodd" fill="green"/><path d="M274.36 187.379a1.68 1.68 0 1 1 3.36 0 1.68 1.68 0 0 1-3.36 0zm0 0" fill="none" stroke-width=".12" stroke-linecap="round" stroke-linejoin="round" stroke="green" stroke-miterlimit="10"/><path d="M275.02 187.379a1.02 1.02 0 1 1 2.04.001 1.02 1.02 0 0 1-2.04-.001" fill-rule="evenodd" fill="#fff"/><path d="M275.02 187.379a1.02 1.02 0 1 1 2.04.001 1.02 1.02 0 0 1-2.04-.001zm0 0" fill="none" stroke-width=".06" stroke-linecap="square" stroke-linejoin="bevel" stroke="#000" stroke-miterlimit="10"/><path d="M274.36 208.922a1.68 1.68 0 0 1 3.36 0 1.68 1.68 0 1 1-3.36 0" fill-rule="evenodd" fill="green"/><path d="M274.36 208.922a1.68 1.68 0 0 1 3.36 0 1.68 1.68 0 1 1-3.36 0zm0 0" fill="none" stroke-width=".12" stroke-linecap="round" stroke-linejoin="round" stroke="green" stroke-miterlimit="10"/><path d="M275.02 208.922a1.019 1.019 0 1 1 2.04 0 1.02 1.02 0 0 1-2.04 0" fill-rule="evenodd" fill="#fff"/><path d="M275.02 208.922a1.019 1.019 0 1 1 2.04 0 1.02 1.02 0 0 1-2.04 0zm0 0" fill="none" stroke-width=".06" stroke-linecap="square" stroke-linejoin="bevel" stroke="#000" stroke-miterlimit="10"/><path d="M267.16 187.379a1.68 1.68 0 1 1 3.36 0 1.68 1.68 0 0 1-3.36 0" fill-rule="evenodd" fill="green"/><path d="M267.16 187.379a1.68 1.68 0 1 1 3.36 0 1.68 1.68 0 0 1-3.36 0zm0 0" fill="none" stroke-width=".12" stroke-linecap="round" stroke-linejoin="round" stroke="green" stroke-miterlimit="10"/><path d="M267.82 187.379a1.02 1.02 0 1 1 2.04.001 1.02 1.02 0 0 1-2.04-.001" fill-rule="evenodd" fill="#fff"/><path d="M267.82 187.379a1.02 1.02 0 1 1 2.04.001 1.02 1.02 0 0 1-2.04-.001zm0 0" fill="none" stroke-width=".06" stroke-linecap="square" stroke-linejoin="bevel" stroke="#000" stroke-miterlimit="10"/><path d="M267.16 208.922a1.68 1.68 0 1 1 1.68 1.68 1.68 1.68 0 0 1-1.68-1.68" fill-rule="evenodd" fill="green"/><path d="M267.16 208.922a1.68 1.68 0 1 1 1.68 1.68 1.68 1.68 0 0 1-1.68-1.68zm0 0" fill="none" stroke-width=".12" stroke-linecap="round" stroke-linejoin="round" stroke="green" stroke-miterlimit="10"/><path d="M267.82 208.922c0-.567.457-1.024 1.02-1.024a1.021 1.021 0 0 1 0 2.043 1.02 1.02 0 0 1-1.02-1.02" fill-rule="evenodd" fill="#fff"/><path d="M267.82 208.922c0-.567.457-1.024 1.02-1.024a1.021 1.021 0 0 1 0 2.043 1.02 1.02 0 0 1-1.02-1.02zm0 0" fill="none" stroke-width=".06" stroke-linecap="square" stroke-linejoin="bevel" stroke="#000" stroke-miterlimit="10"/><path d="M310.3 187.379a1.68 1.68 0 1 1 3.36 0 1.68 1.68 0 0 1-3.36 0" fill-rule="evenodd" fill="green"/><path d="M310.3 187.379a1.68 1.68 0 1 1 3.36 0 1.68 1.68 0 0 1-3.36 0zm0 0" fill="none" stroke-width=".12" stroke-linecap="round" stroke-linejoin="round" stroke="green" stroke-miterlimit="10"/><path d="M310.96 187.379a1.02 1.02 0 1 1 2.041.001 1.02 1.02 0 0 1-2.04-.001" fill-rule="evenodd" fill="#fff"/><path d="M310.96 187.379a1.02 1.02 0 1 1 2.041.001 1.02 1.02 0 0 1-2.04-.001zm0 0" fill="none" stroke-width=".06" stroke-linecap="square" stroke-linejoin="bevel" stroke="#000" stroke-miterlimit="10"/><path d="M310.3 208.922a1.68 1.68 0 1 1 1.68 1.68 1.68 1.68 0 0 1-1.68-1.68" fill-rule="evenodd" fill="green"/><path d="M310.3 208.922a1.68 1.68 0 1 1 1.68 1.68 1.68 1.68 0 0 1-1.68-1.68zm0 0" fill="none" stroke-width=".12" stroke-linecap="round" stroke-linejoin="round" stroke="green" stroke-miterlimit="10"/><path d="M310.96 208.922c0-.567.458-1.024 1.02-1.024a1.021 1.021 0 0 1 0 2.043 1.02 1.02 0 0 1-1.02-1.02" fill-rule="evenodd" fill="#fff"/><path d="M310.96 208.922c0-.567.458-1.024 1.02-1.024a1.021 1.021 0 0 1 0 2.043 1.02 1.02 0 0 1-1.02-1.02zm0 0" fill="none" stroke-width=".06" stroke-linecap="square" stroke-linejoin="bevel" stroke="#000" stroke-miterlimit="10"/><path d="M281.2 216.121a2.041 2.041 0 1 1 4.082-.003 2.041 2.041 0 0 1-4.083.003" fill-rule="evenodd" fill="green"/><path d="M281.2 216.121a2.041 2.041 0 1 1 4.082-.003 2.041 2.041 0 0 1-4.083.003zm0 0" fill="none" stroke-width=".12" stroke-linecap="round" stroke-linejoin="round" stroke="green" stroke-miterlimit="10"/><path d="M282.219 216.121a1.021 1.021 0 1 1 2.043 0 1.021 1.021 0 0 1-2.043 0" fill-rule="evenodd" fill="#fff"/><path d="M282.219 216.121a1.021 1.021 0 1 1 2.043 0 1.021 1.021 0 0 1-2.043 0zm0 0" fill="none" stroke-width=".06" stroke-linecap="square" stroke-linejoin="bevel" stroke="#000" stroke-miterlimit="10"/><path d="M281.2 230.46c0-1.128.913-2.038 2.038-2.038a2.039 2.039 0 1 1 0 4.078 2.04 2.04 0 0 1-2.039-2.04" fill-rule="evenodd" fill="green"/><path d="M281.2 230.46c0-1.128.913-2.038 2.038-2.038a2.039 2.039 0 1 1 0 4.078 2.04 2.04 0 0 1-2.039-2.04zm0 0" fill="none" stroke-width=".12" stroke-linecap="round" stroke-linejoin="round" stroke="green" stroke-miterlimit="10"/><path d="M282.219 230.46a1.021 1.021 0 1 1 2.043 0 1.021 1.021 0 0 1-2.043 0" fill-rule="evenodd" fill="#fff"/><path d="M282.219 230.46a1.021 1.021 0 1 1 2.043 0 1.021 1.021 0 0 1-2.043 0zm0 0" fill="none" stroke-width=".06" stroke-linecap="square" stroke-linejoin="bevel" stroke="#000" stroke-miterlimit="10"/><path d="M281.2 223.32c0-1.129.913-2.039 2.038-2.039a2.039 2.039 0 1 1 0 4.078 2.04 2.04 0 0 1-2.039-2.039" fill-rule="evenodd" fill="green"/><path d="M281.2 223.32c0-1.129.913-2.039 2.038-2.039a2.039 2.039 0 1 1 0 4.078 2.04 2.04 0 0 1-2.039-2.039zm0 0" fill="none" stroke-width=".12" stroke-linecap="round" stroke-linejoin="round" stroke="green" stroke-miterlimit="10"/><path d="M282.219 223.32a1.021 1.021 0 1 1 2.043 0 1.021 1.021 0 0 1-2.043 0" fill-rule="evenodd" fill="#fff"/><path d="M282.219 223.32a1.021 1.021 0 1 1 2.043 0 1.021 1.021 0 0 1-2.043 0zm0 0" fill="none" stroke-width=".06" stroke-linecap="square" stroke-linejoin="bevel" stroke="#000" stroke-miterlimit="10"/><path d="M302.738 216.121a2.042 2.042 0 1 1 4.082 0 2.04 2.04 0 0 1-4.082 0" fill-rule="evenodd" fill="green"/><path d="M302.738 216.121a2.042 2.042 0 1 1 4.082 0 2.04 2.04 0 0 1-4.082 0zm0 0" fill="none" stroke-width=".12" stroke-linecap="round" stroke-linejoin="round" stroke="green" stroke-miterlimit="10"/><path d="M303.762 216.121a1.02 1.02 0 1 1 2.04.002 1.02 1.02 0 0 1-2.04-.002" fill-rule="evenodd" fill="#fff"/><path d="M303.762 216.121a1.02 1.02 0 1 1 2.04.002 1.02 1.02 0 0 1-2.04-.002zm0 0" fill="none" stroke-width=".06" stroke-linecap="square" stroke-linejoin="bevel" stroke="#000" stroke-miterlimit="10"/><path d="M302.738 230.46c0-1.128.914-2.038 2.043-2.038a2.038 2.038 0 1 1 0 4.078 2.041 2.041 0 0 1-2.043-2.04" fill-rule="evenodd" fill="green"/><path d="M302.738 230.46c0-1.128.914-2.038 2.043-2.038a2.038 2.038 0 1 1 0 4.078 2.041 2.041 0 0 1-2.043-2.04zm0 0" fill="none" stroke-width=".12" stroke-linecap="round" stroke-linejoin="round" stroke="green" stroke-miterlimit="10"/><path d="M303.762 230.46a1.02 1.02 0 1 1 2.04.002 1.02 1.02 0 0 1-2.04-.001" fill-rule="evenodd" fill="#fff"/><path d="M303.762 230.46a1.02 1.02 0 1 1 2.04.002 1.02 1.02 0 0 1-2.04-.001zm0 0" fill="none" stroke-width=".06" stroke-linecap="square" stroke-linejoin="bevel" stroke="#000" stroke-miterlimit="10"/><path d="M302.738 223.32c0-1.129.914-2.039 2.043-2.039a2.038 2.038 0 1 1 0 4.078 2.041 2.041 0 0 1-2.043-2.039" fill-rule="evenodd" fill="green"/><path d="M302.738 223.32c0-1.129.914-2.039 2.043-2.039a2.038 2.038 0 1 1 0 4.078 2.041 2.041 0 0 1-2.043-2.039zm0 0" fill="none" stroke-width=".12" stroke-linecap="round" stroke-linejoin="round" stroke="green" stroke-miterlimit="10"/><path d="M303.762 223.32a1.02 1.02 0 1 1 2.04.002 1.02 1.02 0 0 1-2.04-.002" fill-rule="evenodd" fill="#fff"/><path d="M303.762 223.32a1.02 1.02 0 1 1 2.04.002 1.02 1.02 0 0 1-2.04-.002zm0 0" fill="none" stroke-width=".06" stroke-linecap="square" stroke-linejoin="bevel" stroke="#000" stroke-miterlimit="10"/><path d="M323.86 201.719a2.52 2.52 0 1 1 5.04.002 2.52 2.52 0 0 1-5.04-.002" fill-rule="evenodd" fill="green"/><path d="M323.86 201.719a2.52 2.52 0 1 1 5.04.002 2.52 2.52 0 0 1-5.04-.002zm0 0" fill="none" stroke-width=".12" stroke-linecap="round" stroke-linejoin="round" stroke="green" stroke-miterlimit="10"/><path d="M324.941 201.719a1.439 1.439 0 1 1 2.878.002 1.439 1.439 0 0 1-2.878-.002" fill-rule="evenodd" fill="#fff"/><path d="M324.941 201.719a1.439 1.439 0 1 1 2.878.002 1.439 1.439 0 0 1-2.878-.002zm0 0" fill="none" stroke-width=".06" stroke-linecap="square" stroke-linejoin="bevel" stroke="#000" stroke-miterlimit="10"/><path d="M323.86 208.922a2.519 2.519 0 1 1 5.04 0 2.52 2.52 0 0 1-5.04 0" fill-rule="evenodd" fill="green"/><path d="M323.86 208.922a2.519 2.519 0 1 1 5.04 0 2.52 2.52 0 0 1-5.04 0zm0 0" fill="none" stroke-width=".12" stroke-linecap="round" stroke-linejoin="round" stroke="green" stroke-miterlimit="10"/><path d="M324.941 208.922a1.44 1.44 0 1 1 2.88-.004 1.44 1.44 0 0 1-2.88.004" fill-rule="evenodd" fill="#fff"/><path d="M324.941 208.922a1.44 1.44 0 1 1 2.88-.004 1.44 1.44 0 0 1-2.88.004zm0 0" fill="none" stroke-width=".06" stroke-linecap="square" stroke-linejoin="bevel" stroke="#000" stroke-miterlimit="10"/><path d="M259.121 187.379a2.52 2.52 0 1 1 5.037.002 2.52 2.52 0 0 1-5.037-.002" fill-rule="evenodd" fill="green"/><path d="M259.121 187.379a2.52 2.52 0 1 1 5.037.002 2.52 2.52 0 0 1-5.037-.002zm0 0" fill="none" stroke-width=".12" stroke-linecap="round" stroke-linejoin="round" stroke="green" stroke-miterlimit="10"/><path d="M260.2 187.379a1.44 1.44 0 1 1 2.878.004 1.44 1.44 0 0 1-2.879-.004" fill-rule="evenodd" fill="#fff"/><path d="M260.2 187.379a1.44 1.44 0 1 1 2.878.004 1.44 1.44 0 0 1-2.879-.004zm0 0" fill="none" stroke-width=".06" stroke-linecap="square" stroke-linejoin="bevel" stroke="#000" stroke-miterlimit="10"/><path d="M259.121 194.578a2.52 2.52 0 1 1 5.037.002 2.52 2.52 0 0 1-5.037-.002" fill-rule="evenodd" fill="green"/><path d="M259.121 194.578a2.52 2.52 0 1 1 5.037.002 2.52 2.52 0 0 1-5.037-.002zm0 0" fill="none" stroke-width=".12" stroke-linecap="round" stroke-linejoin="round" stroke="green" stroke-miterlimit="10"/><path d="M260.2 194.578a1.44 1.44 0 1 1 2.878.004 1.44 1.44 0 0 1-2.879-.004" fill-rule="evenodd" fill="#fff"/><path d="M260.2 194.578a1.44 1.44 0 1 1 2.878.004 1.44 1.44 0 0 1-2.879-.004zm0 0" fill="none" stroke-width=".06" stroke-linecap="square" stroke-linejoin="bevel" stroke="#000" stroke-miterlimit="10"/><path d="M323.621 216.121a2.76 2.76 0 0 1 2.758-2.762 2.764 2.764 0 0 1 2.762 2.762 2.76 2.76 0 0 1-5.52 0" fill-rule="evenodd" fill="green"/><path d="M323.621 216.121a2.76 2.76 0 0 1 2.758-2.762 2.764 2.764 0 0 1 2.762 2.762 2.76 2.76 0 0 1-5.52 0zm0 0" fill="none" stroke-width=".12" stroke-linecap="round" stroke-linejoin="round" stroke="green" stroke-miterlimit="10"/><path d="M324.941 216.121a1.44 1.44 0 1 1 2.88-.004 1.44 1.44 0 0 1-2.88.004" fill-rule="evenodd" fill="#fff"/><path d="M324.941 216.121a1.44 1.44 0 1 1 2.88-.004 1.44 1.44 0 0 1-2.88.004zm0 0" fill="none" stroke-width=".06" stroke-linecap="square" stroke-linejoin="bevel" stroke="#000" stroke-miterlimit="10"/><path d="M330.762 230.46a2.76 2.76 0 0 1 2.758-2.76 2.764 2.764 0 0 1 2.761 2.76 2.76 2.76 0 0 1-5.52 0" fill-rule="evenodd" fill="green"/><path d="M330.762 230.46a2.76 2.76 0 0 1 2.758-2.76 2.764 2.764 0 0 1 2.761 2.76 2.76 2.76 0 0 1-5.52 0zm0 0" fill="none" stroke-width=".12" stroke-linecap="round" stroke-linejoin="round" stroke="green" stroke-miterlimit="10"/><path d="M332.078 230.46c0-.796.649-1.44 1.442-1.44a1.44 1.44 0 1 1-1.442 1.44" fill-rule="evenodd" fill="#fff"/><path d="M332.078 230.46c0-.796.649-1.44 1.442-1.44a1.44 1.44 0 1 1-1.442 1.44zm0 0" fill="none" stroke-width=".06" stroke-linecap="square" stroke-linejoin="bevel" stroke="#000" stroke-miterlimit="10"/><path d="M316.422 230.46a2.76 2.76 0 0 1 2.758-2.76 2.764 2.764 0 0 1 2.761 2.76 2.76 2.76 0 0 1-5.52 0" fill-rule="evenodd" fill="green"/><path d="M316.422 230.46a2.76 2.76 0 0 1 2.758-2.76 2.764 2.764 0 0 1 2.761 2.76 2.76 2.76 0 0 1-5.52 0zm0 0" fill="none" stroke-width=".12" stroke-linecap="round" stroke-linejoin="round" stroke="green" stroke-miterlimit="10"/><path d="M317.738 230.46c0-.796.649-1.44 1.442-1.44a1.44 1.44 0 1 1-1.442 1.44" fill-rule="evenodd" fill="#fff"/><path d="M317.738 230.46c0-.796.649-1.44 1.442-1.44a1.44 1.44 0 1 1-1.442 1.44zm0 0" fill="none" stroke-width=".06" stroke-linecap="square" stroke-linejoin="bevel" stroke="#000" stroke-miterlimit="10"/><path d="M276.102 208.922h7.199M283.3 208.922v7.2M312.04 208.922v14.398M304.84 223.32h7.2M312.04 208.922h-7.2M304.84 201.719h-7.2M297.64 201.719v14.402M297.64 216.121h7.2M319.238 230.46V201.72M319.238 201.719H304.84M283.3 201.719h-14.402M268.898 201.719v7.203M268.898 208.922v14.398M268.898 223.32h14.403M326.441 208.922v7.2M312.04 187.379h-35.938M276.102 187.379h-7.204M261.7 187.379h7.198M312.04 187.379h14.401M333.578 187.379v14.34M333.578 230.46V201.72M333.578 201.719h-7.137M326.441 187.379h7.137" fill="none" stroke-width="3.6" stroke-linecap="round" stroke-linejoin="round" stroke="navy" stroke-miterlimit="10"/><g clip-path="url(#y)"><path d="M340.781 237.66v-57.48" fill="none" stroke-width=".7200000000000001" stroke-linecap="round" stroke-linejoin="round" stroke="navy" stroke-miterlimit="10"/></g><g clip-path="url(#z)"><path d="M340.781 180.18H254.5" fill="none" stroke-width=".7200000000000001" stroke-linecap="round" stroke-linejoin="round" stroke="navy" stroke-miterlimit="10"/></g><g clip-path="url(#A)"><path d="M254.5 180.18v57.48" fill="none" stroke-width=".7200000000000001" stroke-linecap="round" stroke-linejoin="round" stroke="navy" stroke-miterlimit="10"/></g><g clip-path="url(#B)"><path d="M254.5 237.66h86.281" fill="none" stroke-width=".7200000000000001" stroke-linecap="round" stroke-linejoin="round" stroke="navy" stroke-miterlimit="10"/></g><path d="M325.898 229.14v2.641M325.898 231.781l-1.02 2.457M324.879 234.238l-1.86 1.922M323.02 236.16l-2.461 1.02M320.559 237.18h-2.637M317.922 237.18l-2.461-1.02M315.46 236.16l-1.92-1.922M313.54 234.238l-1.02-2.457M312.52 231.781v-2.64M312.52 229.14l.058-.12M312.578 229.02h-1.86M310.719 229.02l.062.3M310.781 229.32v2.34M310.781 231.66l-.902 2.219M309.879 233.879l-1.68 1.68M308.2 235.559l-2.16.902M306.04 236.46h-2.4M303.64 236.46l-.48-.241M303.16 236.219h-18.18M284.98 236.219l-.539.242M284.441 236.46h-2.34M282.102 236.46l-.543-.241M281.559 236.219h-21M260.559 236.219l-2.098-.84M258.46 235.379l-1.62-1.617M256.84 233.762l-.899-2.16M255.941 231.602v-34.024M255.941 197.578l-.722-1.738M255.219 195.84v-2.578M255.219 193.262l1.02-2.403M256.238 190.86l1.801-1.801M258.04 189.059l.42-.18M258.46 188.879l-.12-.117M258.34 188.762l-.121-.543M258.219 188.219l-.117-.48M258.102 187.738h3.238M261.34 187.738v-.718M261.34 187.02h-3.238M258.102 187.02l.117-.48M258.219 186.54l.12-.54M258.34 186l.3-.54M258.64 185.46l.301-.42M258.941 185.04l.418-.419M259.36 184.621l.48-.3M259.84 184.32l.48-.3M260.32 184.02l.54-.18M260.86 183.84l.48-.059M261.34 183.781v3.239M261.34 187.02h.719M262.059 187.02v-3.239M262.059 183.781l.48.059M262.54 183.84l.538.18M263.078 184.02l.48.3M263.559 184.32l.48.301M264.04 184.621l.42.418M264.46 185.04l.302.42M264.762 185.46l.297.54M265.059 186l.12.54M265.18 186.54l.12.48M265.3 187.02h-3.241M262.059 187.02v.718M262.059 187.738h3.242M265.3 187.738l-.12.48M265.18 188.219l-.121.543M265.059 188.762l-.059.058M265 188.82h1.5M266.5 188.82l-.059-.12M266.441 188.7l-.242-.54M266.2 188.16l-.122-.539M266.078 187.621v-.121M266.078 187.5h2.703M268.781 187.5v-.3M268.781 187.2h-2.703M266.078 187.2v-.122M266.078 187.078l.121-.539M266.2 186.54l.241-.481M266.441 186.059l.297-.48M266.738 185.578l.364-.36M267.102 185.219l.476-.297M267.578 184.922l.48-.242M268.059 184.68l.543-.121M268.602 184.559h.18M268.781 184.559v2.64M268.781 187.2h.239M269.02 187.2v-2.641M269.02 184.559h.12M269.14 184.559l.54.12M269.68 184.68l.539.242M270.219 184.922l.422.297M270.64 185.219l.419.36M271.059 185.578l.3.48M271.36 186.059l.242.48M271.602 186.54l.058.538M271.66 187.078v.121M271.66 187.2h-2.64M269.02 187.2v.3M269.02 187.5h2.64M271.66 187.5v.121M271.66 187.621l-.058.54M271.602 188.16l-.243.54M271.36 188.7l-.06.12M271.3 188.82h2.4M273.7 188.82l-.122-.12M273.578 188.7l-.18-.54M273.398 188.16l-.117-.539M273.281 187.621v-.121M273.281 187.5h2.64M275.922 187.5v-.3M275.922 187.2h-2.64M273.281 187.2v-.122M273.281 187.078l.117-.539M273.398 186.54l.18-.481M273.578 186.059l.363-.48M273.941 185.578l.36-.36M274.3 185.219l.481-.297M274.781 184.922l.48-.242M275.262 184.68l.539-.121M275.8 184.559h.122M275.922 184.559v2.64M275.922 187.2h.297M276.219 187.2v-2.641M276.219 184.559h.12M276.34 184.559l.539.12M276.879 184.68l.543.242M277.422 184.922l.418.297M277.84 185.219l.422.36M278.262 185.578l.297.48M278.559 186.059l.18.48M278.738 186.54l.121.538M278.86 187.078v.121M278.86 187.2h-2.641M276.219 187.2v.3M276.219 187.5h2.64M278.86 187.5v.121M278.86 187.621l-.122.54M278.738 188.16l-.18.54M278.559 188.7l-.059.12M278.5 188.82h31.14M309.64 188.82l-.062-.12M309.578 188.7l-.238-.54M309.34 188.16l-.121-.539M309.219 187.621v-.121M309.219 187.5h2.703M311.922 187.5v-.3M311.922 187.2h-2.703M309.219 187.2v-.122M309.219 187.078l.12-.539M309.34 186.54l.238-.481M309.578 186.059l.3-.48M309.879 185.578l.36-.36M310.238 185.219l.48-.297M310.719 184.922l.48-.242M311.2 184.68l.538-.121M311.738 184.559h.184M311.922 184.559v2.64M311.922 187.2h.238M312.16 187.2v-2.641M312.16 184.559h.121M312.281 184.559l.54.12M312.82 184.68l.54.242M313.36 184.922l.421.297M313.781 185.219l.418.36M314.2 185.578l.3.48M314.5 186.059l.238.48M314.738 186.54l.063.538M314.8 187.078v.121M314.8 187.2h-2.64M312.16 187.2v.3M312.16 187.5h2.64M314.8 187.5v.121M314.8 187.621l-.062.54M314.738 188.16l-.238.54M314.5 188.7l-.059.12M314.441 188.82h13.137M327.578 188.82l2.102.84M329.68 189.66l1.62 1.621M331.3 191.281l.84 2.098M332.14 193.379v2.34M332.14 195.719l-.84 2.101M331.3 197.82l-1.62 1.621M329.68 199.441l-.418.118M329.262 199.559l.238.3M329.5 199.86l.238.48M329.738 200.34l.184.539M329.922 200.879l.058.48M329.98 201.36h-3.242M326.738 201.36v.718M326.738 202.078h3.242M329.98 202.078l-.058.48M329.922 202.559l-.184.543M329.738 203.102l-.058.18M329.68 203.281l.422.18M330.102 203.46l1.796 1.802M331.898 205.262l.961 2.398M332.86 207.66v2.52M332.86 210.18l-.72 1.742M332.14 211.922v.598M332.14 212.52l.962 2.28M333.102 214.8v2.641M333.102 217.441l-1.024 2.457M332.078 219.898l-1.86 1.864M330.219 221.762l-2.457 1.02M327.762 222.781h-2.703M325.059 222.781l-.059-.062M325 222.719v4.203M325 226.922l.898 2.219M332.68 226.738l.539-.058M333.219 226.68v3.422M333.219 230.102h.722M333.941 230.102v-3.422M333.941 226.68l.54.058M334.48 226.738l.598.242M335.078 226.98l.543.239M335.621 227.219l.48.36M336.102 227.578l.418.422M336.52 228l.359.48M336.879 228.48l.242.54M337.121 229.02l.18.539M337.3 229.559l.122.543M337.422 230.102h-3.48M333.941 230.102v.718M333.941 230.82h3.48M337.422 230.82l-.121.54M337.3 231.36l-.179.6M337.121 231.96l-.242.54M336.879 232.5l-.36.48M336.52 232.98l-.418.418M336.102 233.398l-.48.364M335.621 233.762l-.543.238M335.078 234l-.598.18M334.48 234.18l-.539.12M333.941 234.3v-3.48M333.941 230.82h-.722M333.219 230.82v3.48M333.219 234.3l-.54-.12M332.68 234.18l-.54-.18M332.14 234l-.538-.238M331.602 233.762l-.48-.364M331.121 233.398l-.422-.418M330.7 232.98l-.36-.48M330.34 232.5l-.3-.54M330.04 231.96l-.18-.6M329.86 231.36l-.06-.54M329.8 230.82h3.419M333.219 230.82v-.718M333.219 230.102H329.8M329.8 230.102l.06-.543M329.86 229.559l.18-.54M330.04 229.02l.3-.54M330.34 228.48l.36-.48M330.7 228l.421-.422M331.121 227.578l.48-.36M331.602 227.219l.539-.239M332.14 226.98l.54-.242" fill="none" stroke-width=".7200000000000001" stroke-linecap="round" stroke-linejoin="round" stroke="navy" stroke-miterlimit="10"/><g clip-path="url(#C)"><path d="M254.5 180.18h86.281" fill="none" stroke-width=".7200000000000001" stroke-linecap="round" stroke-linejoin="round" stroke="navy" stroke-miterlimit="10"/></g><g clip-path="url(#D)"><path d="M254.5 180.781h86.281" fill="none" stroke-width=".7200000000000001" stroke-linecap="round" stroke-linejoin="round" stroke="navy" stroke-miterlimit="10"/></g><g clip-path="url(#E)"><path d="M254.5 181.441h86.281" fill="none" stroke-width=".7200000000000001" stroke-linecap="round" stroke-linejoin="round" stroke="navy" stroke-miterlimit="10"/></g><g clip-path="url(#F)"><path d="M254.5 182.04h86.281" fill="none" stroke-width=".7200000000000001" stroke-linecap="round" stroke-linejoin="round" stroke="navy" stroke-miterlimit="10"/></g><g clip-path="url(#G)" fill="none" stroke-width="7.2" stroke-linecap="round" stroke-linejoin="round" stroke="navy" stroke-miterlimit="10"><path d="M254.5 182.7h86.281M254.5 183.3h86.281" stroke-width=".7200000000000001"/></g><path d="M254.5 183.96h6.059M261.34 183.96h.719" fill="none" stroke-width=".7200000000000001" stroke-linecap="round" stroke-linejoin="round" stroke="navy" stroke-miterlimit="10"/><g clip-path="url(#H)"><path d="M262.84 183.96h77.941" fill="none" stroke-width=".7200000000000001" stroke-linecap="round" stroke-linejoin="round" stroke="navy" stroke-miterlimit="10"/></g><path d="M254.5 184.559h4.922M261.34 184.559h.719M263.98 184.559h4.622M268.781 184.559h.239M269.2 184.559h6.6M275.922 184.559h.297M276.34 184.559h35.398M311.922 184.559h.238" fill="none" stroke-width=".7200000000000001" stroke-linecap="round" stroke-linejoin="round" stroke="navy" stroke-miterlimit="10"/><g clip-path="url(#I)"><path d="M312.34 184.559h28.441" fill="none" stroke-width=".7200000000000001" stroke-linecap="round" stroke-linejoin="round" stroke="navy" stroke-miterlimit="10"/></g><path d="M254.5 185.219h4.32M261.34 185.219h.719M264.578 185.219h2.524M268.781 185.219h.239M270.7 185.219h3.6M275.922 185.219h.297M277.84 185.219h32.398M311.922 185.219h.238" fill="none" stroke-width=".7200000000000001" stroke-linecap="round" stroke-linejoin="round" stroke="navy" stroke-miterlimit="10"/><g clip-path="url(#J)"><path d="M313.84 185.219h26.941" fill="none" stroke-width=".7200000000000001" stroke-linecap="round" stroke-linejoin="round" stroke="navy" stroke-miterlimit="10"/></g><path d="M254.5 185.82h3.96M261.34 185.82h.719M264.941 185.82h1.618M268.781 185.82h.239M271.238 185.82h2.524M275.922 185.82h.297M278.441 185.82H309.7M311.922 185.82h.238" fill="none" stroke-width=".7200000000000001" stroke-linecap="round" stroke-linejoin="round" stroke="navy" stroke-miterlimit="10"/><g clip-path="url(#K)"><path d="M314.379 185.82h26.402" fill="none" stroke-width=".7200000000000001" stroke-linecap="round" stroke-linejoin="round" stroke="navy" stroke-miterlimit="10"/></g><path d="M254.5 186.48h3.719M261.34 186.48h.719M265.18 186.48h1.082M268.781 186.48h.239M271.54 186.48h1.92M275.922 186.48h.297M278.738 186.48h30.66M311.922 186.48h.238" fill="none" stroke-width=".7200000000000001" stroke-linecap="round" stroke-linejoin="round" stroke="navy" stroke-miterlimit="10"/><g clip-path="url(#L)"><path d="M314.68 186.48h26.101" fill="none" stroke-width=".7200000000000001" stroke-linecap="round" stroke-linejoin="round" stroke="navy" stroke-miterlimit="10"/></g><path d="M254.5 187.078h6.84M262.059 187.078h4.02M268.781 187.078h.239M271.66 187.078h1.621M275.922 187.078h.297M278.86 187.078h30.359M311.922 187.078h.238" fill="none" stroke-width=".7200000000000001" stroke-linecap="round" stroke-linejoin="round" stroke="navy" stroke-miterlimit="10"/><g clip-path="url(#M)"><path d="M314.8 187.078h25.981" fill="none" stroke-width=".7200000000000001" stroke-linecap="round" stroke-linejoin="round" stroke="navy" stroke-miterlimit="10"/></g><path d="M254.5 187.738h3.602M265.3 187.738h.84M271.66 187.738h1.621M278.86 187.738h30.421" fill="none" stroke-width=".7200000000000001" stroke-linecap="round" stroke-linejoin="round" stroke="navy" stroke-miterlimit="10"/><g clip-path="url(#N)"><path d="M314.8 187.738h25.981" fill="none" stroke-width=".7200000000000001" stroke-linecap="round" stroke-linejoin="round" stroke="navy" stroke-miterlimit="10"/></g><path d="M254.5 188.34h3.719M265.18 188.34h1.082M271.48 188.34h1.98M278.68 188.34h30.718" fill="none" stroke-width=".7200000000000001" stroke-linecap="round" stroke-linejoin="round" stroke="navy" stroke-miterlimit="10"/><g clip-path="url(#O)"><path d="M314.621 188.34h26.16" fill="none" stroke-width=".7200000000000001" stroke-linecap="round" stroke-linejoin="round" stroke="navy" stroke-miterlimit="10"/></g><path d="M254.5 189h3.719" fill="none" stroke-width=".7200000000000001" stroke-linecap="round" stroke-linejoin="round" stroke="navy" stroke-miterlimit="10"/><g clip-path="url(#P)"><path d="M328 189h12.781" fill="none" stroke-width=".7200000000000001" stroke-linecap="round" stroke-linejoin="round" stroke="navy" stroke-miterlimit="10"/></g><path d="M254.5 189.602h3" fill="none" stroke-width=".7200000000000001" stroke-linecap="round" stroke-linejoin="round" stroke="navy" stroke-miterlimit="10"/><g clip-path="url(#Q)"><path d="M329.5 189.602h11.281" fill="none" stroke-width=".7200000000000001" stroke-linecap="round" stroke-linejoin="round" stroke="navy" stroke-miterlimit="10"/></g><path d="M254.5 190.262h2.34" fill="none" stroke-width=".7200000000000001" stroke-linecap="round" stroke-linejoin="round" stroke="navy" stroke-miterlimit="10"/><g clip-path="url(#R)"><path d="M330.219 190.262h10.562" fill="none" stroke-width=".7200000000000001" stroke-linecap="round" stroke-linejoin="round" stroke="navy" stroke-miterlimit="10"/></g><path d="M254.5 190.86h1.738" fill="none" stroke-width=".7200000000000001" stroke-linecap="round" stroke-linejoin="round" stroke="navy" stroke-miterlimit="10"/><g clip-path="url(#S)"><path d="M330.879 190.86h9.902" fill="none" stroke-width=".7200000000000001" stroke-linecap="round" stroke-linejoin="round" stroke="navy" stroke-miterlimit="10"/></g><path d="M254.5 191.52h1.441" fill="none" stroke-width=".7200000000000001" stroke-linecap="round" stroke-linejoin="round" stroke="navy" stroke-miterlimit="10"/><g clip-path="url(#T)"><path d="M331.36 191.52h9.421" fill="none" stroke-width=".7200000000000001" stroke-linecap="round" stroke-linejoin="round" stroke="navy" stroke-miterlimit="10"/></g><path d="M254.5 192.121h1.2" fill="none" stroke-width=".7200000000000001" stroke-linecap="round" stroke-linejoin="round" stroke="navy" stroke-miterlimit="10"/><g clip-path="url(#U)"><path d="M331.66 192.121h9.121" fill="none" stroke-width=".7200000000000001" stroke-linecap="round" stroke-linejoin="round" stroke="navy" stroke-miterlimit="10"/></g><path d="M254.5 192.781h.96" fill="none" stroke-width=".7200000000000001" stroke-linecap="round" stroke-linejoin="round" stroke="navy" stroke-miterlimit="10"/><g clip-path="url(#V)"><path d="M331.898 192.781h8.883" fill="none" stroke-width=".7200000000000001" stroke-linecap="round" stroke-linejoin="round" stroke="navy" stroke-miterlimit="10"/></g><path d="M254.5 193.379h.719" fill="none" stroke-width=".7200000000000001" stroke-linecap="round" stroke-linejoin="round" stroke="navy" stroke-miterlimit="10"/><g clip-path="url(#W)"><path d="M332.14 193.379h8.641" fill="none" stroke-width=".7200000000000001" stroke-linecap="round" stroke-linejoin="round" stroke="navy" stroke-miterlimit="10"/></g><path d="M254.5 193.98h.719" fill="none" stroke-width=".7200000000000001" stroke-linecap="round" stroke-linejoin="round" stroke="navy" stroke-miterlimit="10"/><g clip-path="url(#X)"><path d="M332.14 193.98h8.641" fill="none" stroke-width=".7200000000000001" stroke-linecap="round" stroke-linejoin="round" stroke="navy" stroke-miterlimit="10"/></g><path d="M254.5 194.64h.719" fill="none" stroke-width=".7200000000000001" stroke-linecap="round" stroke-linejoin="round" stroke="navy" stroke-miterlimit="10"/><g clip-path="url(#Y)"><path d="M332.14 194.64h8.641" fill="none" stroke-width=".7200000000000001" stroke-linecap="round" stroke-linejoin="round" stroke="navy" stroke-miterlimit="10"/></g><path d="M254.5 195.238h.719" fill="none" stroke-width=".7200000000000001" stroke-linecap="round" stroke-linejoin="round" stroke="navy" stroke-miterlimit="10"/><g clip-path="url(#Z)"><path d="M332.14 195.238h8.641" fill="none" stroke-width=".7200000000000001" stroke-linecap="round" stroke-linejoin="round" stroke="navy" stroke-miterlimit="10"/></g><path d="M254.5 195.898h.781" fill="none" stroke-width=".7200000000000001" stroke-linecap="round" stroke-linejoin="round" stroke="navy" stroke-miterlimit="10"/><g clip-path="url(#aa)"><path d="M332.078 195.898h8.703" fill="none" stroke-width=".7200000000000001" stroke-linecap="round" stroke-linejoin="round" stroke="navy" stroke-miterlimit="10"/></g><path d="M254.5 196.5h1.02" fill="none" stroke-width=".7200000000000001" stroke-linecap="round" stroke-linejoin="round" stroke="navy" stroke-miterlimit="10"/><g clip-path="url(#ab)"><path d="M331.84 196.5h8.941" fill="none" stroke-width=".7200000000000001" stroke-linecap="round" stroke-linejoin="round" stroke="navy" stroke-miterlimit="10"/></g><path d="M254.5 197.16h1.262" fill="none" stroke-width=".7200000000000001" stroke-linecap="round" stroke-linejoin="round" stroke="navy" stroke-miterlimit="10"/><g clip-path="url(#ac)"><path d="M331.54 197.16h9.241" fill="none" stroke-width=".7200000000000001" stroke-linecap="round" stroke-linejoin="round" stroke="navy" stroke-miterlimit="10"/></g><path d="M254.5 197.762h1.441" fill="none" stroke-width=".7200000000000001" stroke-linecap="round" stroke-linejoin="round" stroke="navy" stroke-miterlimit="10"/><g clip-path="url(#ad)"><path d="M331.3 197.762h9.481" fill="none" stroke-width=".7200000000000001" stroke-linecap="round" stroke-linejoin="round" stroke="navy" stroke-miterlimit="10"/></g><path d="M254.5 198.422h1.441" fill="none" stroke-width=".7200000000000001" stroke-linecap="round" stroke-linejoin="round" stroke="navy" stroke-miterlimit="10"/><g clip-path="url(#ae)"><path d="M330.7 198.422h10.081" fill="none" stroke-width=".7200000000000001" stroke-linecap="round" stroke-linejoin="round" stroke="navy" stroke-miterlimit="10"/></g><path d="M254.5 199.02h1.441" fill="none" stroke-width=".7200000000000001" stroke-linecap="round" stroke-linejoin="round" stroke="navy" stroke-miterlimit="10"/><g clip-path="url(#af)"><path d="M330.04 199.02h10.741" fill="none" stroke-width=".7200000000000001" stroke-linecap="round" stroke-linejoin="round" stroke="navy" stroke-miterlimit="10"/></g><path d="M254.5 199.68h1.441" fill="none" stroke-width=".7200000000000001" stroke-linecap="round" stroke-linejoin="round" stroke="navy" stroke-miterlimit="10"/><g clip-path="url(#ag)"><path d="M329.379 199.68h11.402" fill="none" stroke-width=".7200000000000001" stroke-linecap="round" stroke-linejoin="round" stroke="navy" stroke-miterlimit="10"/></g><path d="M254.5 200.281h1.441" fill="none" stroke-width=".7200000000000001" stroke-linecap="round" stroke-linejoin="round" stroke="navy" stroke-miterlimit="10"/><g clip-path="url(#ah)"><path d="M329.738 200.281h11.043" fill="none" stroke-width=".7200000000000001" stroke-linecap="round" stroke-linejoin="round" stroke="navy" stroke-miterlimit="10"/></g><path d="M254.5 200.941h1.441" fill="none" stroke-width=".7200000000000001" stroke-linecap="round" stroke-linejoin="round" stroke="navy" stroke-miterlimit="10"/><g clip-path="url(#ai)"><path d="M329.922 200.941h10.86" fill="none" stroke-width=".7200000000000001" stroke-linecap="round" stroke-linejoin="round" stroke="navy" stroke-miterlimit="10"/></g><path d="M254.5 201.54h1.441" fill="none" stroke-width=".7200000000000001" stroke-linecap="round" stroke-linejoin="round" stroke="navy" stroke-miterlimit="10"/><g clip-path="url(#aj)"><path d="M326.738 201.54h14.043" fill="none" stroke-width=".7200000000000001" stroke-linecap="round" stroke-linejoin="round" stroke="navy" stroke-miterlimit="10"/></g><path d="M254.5 202.2h1.441" fill="none" stroke-width=".7200000000000001" stroke-linecap="round" stroke-linejoin="round" stroke="navy" stroke-miterlimit="10"/><g clip-path="url(#ak)"><path d="M329.98 202.2h10.801" fill="none" stroke-width=".7200000000000001" stroke-linecap="round" stroke-linejoin="round" stroke="navy" stroke-miterlimit="10"/></g><path d="M254.5 202.8h1.441" fill="none" stroke-width=".7200000000000001" stroke-linecap="round" stroke-linejoin="round" stroke="navy" stroke-miterlimit="10"/><g clip-path="url(#al)"><path d="M329.86 202.8h10.921" fill="none" stroke-width=".7200000000000001" stroke-linecap="round" stroke-linejoin="round" stroke="navy" stroke-miterlimit="10"/></g><path d="M254.5 203.46h1.441" fill="none" stroke-width=".7200000000000001" stroke-linecap="round" stroke-linejoin="round" stroke="navy" stroke-miterlimit="10"/><g clip-path="url(#am)"><path d="M330.102 203.46h10.68" fill="none" stroke-width=".7200000000000001" stroke-linecap="round" stroke-linejoin="round" stroke="navy" stroke-miterlimit="10"/></g><path d="M254.5 204.059h1.441" fill="none" stroke-width=".7200000000000001" stroke-linecap="round" stroke-linejoin="round" stroke="navy" stroke-miterlimit="10"/><g clip-path="url(#an)"><path d="M330.7 204.059h10.081" fill="none" stroke-width=".7200000000000001" stroke-linecap="round" stroke-linejoin="round" stroke="navy" stroke-miterlimit="10"/></g><path d="M254.5 204.719h1.441" fill="none" stroke-width=".7200000000000001" stroke-linecap="round" stroke-linejoin="round" stroke="navy" stroke-miterlimit="10"/><g clip-path="url(#ao)"><path d="M331.36 204.719h9.421" fill="none" stroke-width=".7200000000000001" stroke-linecap="round" stroke-linejoin="round" stroke="navy" stroke-miterlimit="10"/></g><path d="M254.5 205.32h1.441" fill="none" stroke-width=".7200000000000001" stroke-linecap="round" stroke-linejoin="round" stroke="navy" stroke-miterlimit="10"/><g clip-path="url(#ap)"><path d="M331.898 205.32h8.883" fill="none" stroke-width=".7200000000000001" stroke-linecap="round" stroke-linejoin="round" stroke="navy" stroke-miterlimit="10"/></g><path d="M254.5 205.98h1.441" fill="none" stroke-width=".7200000000000001" stroke-linecap="round" stroke-linejoin="round" stroke="navy" stroke-miterlimit="10"/><g clip-path="url(#aq)"><path d="M332.2 205.98h8.581" fill="none" stroke-width=".7200000000000001" stroke-linecap="round" stroke-linejoin="round" stroke="navy" stroke-miterlimit="10"/></g><path d="M254.5 206.578h1.441" fill="none" stroke-width=".7200000000000001" stroke-linecap="round" stroke-linejoin="round" stroke="navy" stroke-miterlimit="10"/><g clip-path="url(#ar)"><path d="M332.441 206.578h8.34" fill="none" stroke-width=".7200000000000001" stroke-linecap="round" stroke-linejoin="round" stroke="navy" stroke-miterlimit="10"/></g><path d="M254.5 207.238h1.441" fill="none" stroke-width=".7200000000000001" stroke-linecap="round" stroke-linejoin="round" stroke="navy" stroke-miterlimit="10"/><g clip-path="url(#as)"><path d="M332.68 207.238h8.101" fill="none" stroke-width=".7200000000000001" stroke-linecap="round" stroke-linejoin="round" stroke="navy" stroke-miterlimit="10"/></g><path d="M254.5 207.84h1.441" fill="none" stroke-width=".7200000000000001" stroke-linecap="round" stroke-linejoin="round" stroke="navy" stroke-miterlimit="10"/><g clip-path="url(#at)"><path d="M332.86 207.84h7.921" fill="none" stroke-width=".7200000000000001" stroke-linecap="round" stroke-linejoin="round" stroke="navy" stroke-miterlimit="10"/></g><path d="M254.5 208.441h1.441" fill="none" stroke-width=".7200000000000001" stroke-linecap="round" stroke-linejoin="round" stroke="navy" stroke-miterlimit="10"/><g clip-path="url(#au)"><path d="M332.86 208.441h7.921" fill="none" stroke-width=".7200000000000001" stroke-linecap="round" stroke-linejoin="round" stroke="navy" stroke-miterlimit="10"/></g><path d="M254.5 209.102h1.441" fill="none" stroke-width=".7200000000000001" stroke-linecap="round" stroke-linejoin="round" stroke="navy" stroke-miterlimit="10"/><g clip-path="url(#av)"><path d="M332.86 209.102h7.921" fill="none" stroke-width=".7200000000000001" stroke-linecap="round" stroke-linejoin="round" stroke="navy" stroke-miterlimit="10"/></g><path d="M254.5 209.7h1.441" fill="none" stroke-width=".7200000000000001" stroke-linecap="round" stroke-linejoin="round" stroke="navy" stroke-miterlimit="10"/><g clip-path="url(#aw)"><path d="M332.86 209.7h7.921" fill="none" stroke-width=".7200000000000001" stroke-linecap="round" stroke-linejoin="round" stroke="navy" stroke-miterlimit="10"/></g><path d="M254.5 210.36h1.441" fill="none" stroke-width=".7200000000000001" stroke-linecap="round" stroke-linejoin="round" stroke="navy" stroke-miterlimit="10"/><g clip-path="url(#ax)"><path d="M332.8 210.36h7.981" fill="none" stroke-width=".7200000000000001" stroke-linecap="round" stroke-linejoin="round" stroke="navy" stroke-miterlimit="10"/></g><path d="M254.5 210.96h1.441" fill="none" stroke-width=".7200000000000001" stroke-linecap="round" stroke-linejoin="round" stroke="navy" stroke-miterlimit="10"/><g clip-path="url(#ay)"><path d="M332.559 210.96h8.222" fill="none" stroke-width=".7200000000000001" stroke-linecap="round" stroke-linejoin="round" stroke="navy" stroke-miterlimit="10"/></g><path d="M254.5 211.621h1.441" fill="none" stroke-width=".7200000000000001" stroke-linecap="round" stroke-linejoin="round" stroke="navy" stroke-miterlimit="10"/><g clip-path="url(#az)"><path d="M332.32 211.621h8.461" fill="none" stroke-width=".7200000000000001" stroke-linecap="round" stroke-linejoin="round" stroke="navy" stroke-miterlimit="10"/></g><path d="M254.5 212.219h1.441" fill="none" stroke-width=".7200000000000001" stroke-linecap="round" stroke-linejoin="round" stroke="navy" stroke-miterlimit="10"/><g clip-path="url(#aA)"><path d="M332.14 212.219h8.641" fill="none" stroke-width=".7200000000000001" stroke-linecap="round" stroke-linejoin="round" stroke="navy" stroke-miterlimit="10"/></g><path d="M254.5 212.879h1.441" fill="none" stroke-width=".7200000000000001" stroke-linecap="round" stroke-linejoin="round" stroke="navy" stroke-miterlimit="10"/><g clip-path="url(#aB)"><path d="M332.32 212.879h8.461" fill="none" stroke-width=".7200000000000001" stroke-linecap="round" stroke-linejoin="round" stroke="navy" stroke-miterlimit="10"/></g><path d="M254.5 213.48h1.441" fill="none" stroke-width=".7200000000000001" stroke-linecap="round" stroke-linejoin="round" stroke="navy" stroke-miterlimit="10"/><g clip-path="url(#aC)"><path d="M332.559 213.48h8.222" fill="none" stroke-width=".7200000000000001" stroke-linecap="round" stroke-linejoin="round" stroke="navy" stroke-miterlimit="10"/></g><path d="M254.5 214.14h1.441" fill="none" stroke-width=".7200000000000001" stroke-linecap="round" stroke-linejoin="round" stroke="navy" stroke-miterlimit="10"/><g clip-path="url(#aD)"><path d="M332.8 214.14h7.981" fill="none" stroke-width=".7200000000000001" stroke-linecap="round" stroke-linejoin="round" stroke="navy" stroke-miterlimit="10"/></g><path d="M254.5 214.738h1.441" fill="none" stroke-width=".7200000000000001" stroke-linecap="round" stroke-linejoin="round" stroke="navy" stroke-miterlimit="10"/><g clip-path="url(#aE)"><path d="M333.102 214.738h7.68" fill="none" stroke-width=".7200000000000001" stroke-linecap="round" stroke-linejoin="round" stroke="navy" stroke-miterlimit="10"/></g><path d="M254.5 215.398h1.441" fill="none" stroke-width=".7200000000000001" stroke-linecap="round" stroke-linejoin="round" stroke="navy" stroke-miterlimit="10"/><g clip-path="url(#aF)"><path d="M333.102 215.398h7.68" fill="none" stroke-width=".7200000000000001" stroke-linecap="round" stroke-linejoin="round" stroke="navy" stroke-miterlimit="10"/></g><path d="M254.5 216h1.441" fill="none" stroke-width=".7200000000000001" stroke-linecap="round" stroke-linejoin="round" stroke="navy" stroke-miterlimit="10"/><g clip-path="url(#aG)"><path d="M333.102 216h7.68" fill="none" stroke-width=".7200000000000001" stroke-linecap="round" stroke-linejoin="round" stroke="navy" stroke-miterlimit="10"/></g><path d="M254.5 216.66h1.441" fill="none" stroke-width=".7200000000000001" stroke-linecap="round" stroke-linejoin="round" stroke="navy" stroke-miterlimit="10"/><g clip-path="url(#aH)"><path d="M333.102 216.66h7.68" fill="none" stroke-width=".7200000000000001" stroke-linecap="round" stroke-linejoin="round" stroke="navy" stroke-miterlimit="10"/></g><path d="M254.5 217.262h1.441" fill="none" stroke-width=".7200000000000001" stroke-linecap="round" stroke-linejoin="round" stroke="navy" stroke-miterlimit="10"/><g clip-path="url(#aI)"><path d="M333.102 217.262h7.68" fill="none" stroke-width=".7200000000000001" stroke-linecap="round" stroke-linejoin="round" stroke="navy" stroke-miterlimit="10"/></g><path d="M254.5 217.922h1.441" fill="none" stroke-width=".7200000000000001" stroke-linecap="round" stroke-linejoin="round" stroke="navy" stroke-miterlimit="10"/><g clip-path="url(#aJ)"><path d="M332.922 217.922h7.86" fill="none" stroke-width=".7200000000000001" stroke-linecap="round" stroke-linejoin="round" stroke="navy" stroke-miterlimit="10"/></g><path d="M254.5 218.52h1.441" fill="none" stroke-width=".7200000000000001" stroke-linecap="round" stroke-linejoin="round" stroke="navy" stroke-miterlimit="10"/><g clip-path="url(#aK)"><path d="M332.621 218.52h8.16" fill="none" stroke-width=".7200000000000001" stroke-linecap="round" stroke-linejoin="round" stroke="navy" stroke-miterlimit="10"/></g><path d="M254.5 219.18h1.441" fill="none" stroke-width=".7200000000000001" stroke-linecap="round" stroke-linejoin="round" stroke="navy" stroke-miterlimit="10"/><g clip-path="url(#aL)"><path d="M332.379 219.18h8.402" fill="none" stroke-width=".7200000000000001" stroke-linecap="round" stroke-linejoin="round" stroke="navy" stroke-miterlimit="10"/></g><path d="M254.5 219.781h1.441" fill="none" stroke-width=".7200000000000001" stroke-linecap="round" stroke-linejoin="round" stroke="navy" stroke-miterlimit="10"/><g clip-path="url(#aM)"><path d="M332.14 219.781h8.641" fill="none" stroke-width=".7200000000000001" stroke-linecap="round" stroke-linejoin="round" stroke="navy" stroke-miterlimit="10"/></g><path d="M254.5 220.441h1.441" fill="none" stroke-width=".7200000000000001" stroke-linecap="round" stroke-linejoin="round" stroke="navy" stroke-miterlimit="10"/><g clip-path="url(#aN)"><path d="M331.54 220.441h9.241" fill="none" stroke-width=".7200000000000001" stroke-linecap="round" stroke-linejoin="round" stroke="navy" stroke-miterlimit="10"/></g><path d="M254.5 221.04h1.441" fill="none" stroke-width=".7200000000000001" stroke-linecap="round" stroke-linejoin="round" stroke="navy" stroke-miterlimit="10"/><g clip-path="url(#aO)"><path d="M330.941 221.04h9.84" fill="none" stroke-width=".7200000000000001" stroke-linecap="round" stroke-linejoin="round" stroke="navy" stroke-miterlimit="10"/></g><path d="M254.5 221.64h1.441" fill="none" stroke-width=".7200000000000001" stroke-linecap="round" stroke-linejoin="round" stroke="navy" stroke-miterlimit="10"/><g clip-path="url(#aP)"><path d="M330.281 221.64h10.5" fill="none" stroke-width=".7200000000000001" stroke-linecap="round" stroke-linejoin="round" stroke="navy" stroke-miterlimit="10"/></g><path d="M254.5 222.3h1.441" fill="none" stroke-width=".7200000000000001" stroke-linecap="round" stroke-linejoin="round" stroke="navy" stroke-miterlimit="10"/><g clip-path="url(#aQ)"><path d="M328.96 222.3h11.821" fill="none" stroke-width=".7200000000000001" stroke-linecap="round" stroke-linejoin="round" stroke="navy" stroke-miterlimit="10"/></g><path d="M254.5 222.898h1.441" fill="none" stroke-width=".7200000000000001" stroke-linecap="round" stroke-linejoin="round" stroke="navy" stroke-miterlimit="10"/><g clip-path="url(#aR)"><path d="M325 222.898h15.781" fill="none" stroke-width=".7200000000000001" stroke-linecap="round" stroke-linejoin="round" stroke="navy" stroke-miterlimit="10"/></g><path d="M254.5 223.559h1.441" fill="none" stroke-width=".7200000000000001" stroke-linecap="round" stroke-linejoin="round" stroke="navy" stroke-miterlimit="10"/><g clip-path="url(#aS)"><path d="M325 223.559h15.781" fill="none" stroke-width=".7200000000000001" stroke-linecap="round" stroke-linejoin="round" stroke="navy" stroke-miterlimit="10"/></g><path d="M254.5 224.16h1.441" fill="none" stroke-width=".7200000000000001" stroke-linecap="round" stroke-linejoin="round" stroke="navy" stroke-miterlimit="10"/><g clip-path="url(#aT)"><path d="M325 224.16h15.781" fill="none" stroke-width=".7200000000000001" stroke-linecap="round" stroke-linejoin="round" stroke="navy" stroke-miterlimit="10"/></g><path d="M254.5 224.82h1.441" fill="none" stroke-width=".7200000000000001" stroke-linecap="round" stroke-linejoin="round" stroke="navy" stroke-miterlimit="10"/><g clip-path="url(#aU)"><path d="M325 224.82h15.781" fill="none" stroke-width=".7200000000000001" stroke-linecap="round" stroke-linejoin="round" stroke="navy" stroke-miterlimit="10"/></g><path d="M254.5 225.422h1.441" fill="none" stroke-width=".7200000000000001" stroke-linecap="round" stroke-linejoin="round" stroke="navy" stroke-miterlimit="10"/><g clip-path="url(#aV)"><path d="M325 225.422h15.781" fill="none" stroke-width=".7200000000000001" stroke-linecap="round" stroke-linejoin="round" stroke="navy" stroke-miterlimit="10"/></g><path d="M254.5 226.078h1.441" fill="none" stroke-width=".7200000000000001" stroke-linecap="round" stroke-linejoin="round" stroke="navy" stroke-miterlimit="10"/><g clip-path="url(#aW)"><path d="M325 226.078h15.781" fill="none" stroke-width=".7200000000000001" stroke-linecap="round" stroke-linejoin="round" stroke="navy" stroke-miterlimit="10"/></g><path d="M254.5 226.68h1.441M325 226.68h8.16M333.219 226.68h.722" fill="none" stroke-width=".7200000000000001" stroke-linecap="round" stroke-linejoin="round" stroke="navy" stroke-miterlimit="10"/><g clip-path="url(#aX)"><path d="M334.059 226.68h6.722" fill="none" stroke-width=".7200000000000001" stroke-linecap="round" stroke-linejoin="round" stroke="navy" stroke-miterlimit="10"/></g><path d="M254.5 227.34h1.441M325.18 227.34h6.3M333.219 227.34h.722" fill="none" stroke-width=".7200000000000001" stroke-linecap="round" stroke-linejoin="round" stroke="navy" stroke-miterlimit="10"/><g clip-path="url(#aY)"><path d="M335.738 227.34h5.043" fill="none" stroke-width=".7200000000000001" stroke-linecap="round" stroke-linejoin="round" stroke="navy" stroke-miterlimit="10"/></g><path d="M254.5 227.941h1.441M325.422 227.941h5.34M333.219 227.941h.722" fill="none" stroke-width=".7200000000000001" stroke-linecap="round" stroke-linejoin="round" stroke="navy" stroke-miterlimit="10"/><g clip-path="url(#aZ)"><path d="M336.46 227.941h4.321" fill="none" stroke-width=".7200000000000001" stroke-linecap="round" stroke-linejoin="round" stroke="navy" stroke-miterlimit="10"/></g><path d="M254.5 228.602h1.441M325.66 228.602h4.621M333.219 228.602h.722" fill="none" stroke-width=".7200000000000001" stroke-linecap="round" stroke-linejoin="round" stroke="navy" stroke-miterlimit="10"/><g clip-path="url(#ba)"><path d="M336.941 228.602h3.84" fill="none" stroke-width=".7200000000000001" stroke-linecap="round" stroke-linejoin="round" stroke="navy" stroke-miterlimit="10"/></g><path d="M254.5 229.2h1.441M310.781 229.2h1.739M325.898 229.2h4.082M333.219 229.2h.722" fill="none" stroke-width=".7200000000000001" stroke-linecap="round" stroke-linejoin="round" stroke="navy" stroke-miterlimit="10"/><g clip-path="url(#bb)"><path d="M337.18 229.2h3.601" fill="none" stroke-width=".7200000000000001" stroke-linecap="round" stroke-linejoin="round" stroke="navy" stroke-miterlimit="10"/></g><path d="M254.5 229.86h1.441M310.781 229.86h1.739M325.898 229.86h3.961M333.219 229.86h.722" fill="none" stroke-width=".7200000000000001" stroke-linecap="round" stroke-linejoin="round" stroke="navy" stroke-miterlimit="10"/><g clip-path="url(#bc)"><path d="M337.36 229.86h3.421" fill="none" stroke-width=".7200000000000001" stroke-linecap="round" stroke-linejoin="round" stroke="navy" stroke-miterlimit="10"/></g><path d="M254.5 230.46h1.441M310.781 230.46h1.739M325.898 230.46h7.32" fill="none" stroke-width=".7200000000000001" stroke-linecap="round" stroke-linejoin="round" stroke="navy" stroke-miterlimit="10"/><g clip-path="url(#bd)"><path d="M333.941 230.46h6.84" fill="none" stroke-width=".7200000000000001" stroke-linecap="round" stroke-linejoin="round" stroke="navy" stroke-miterlimit="10"/></g><path d="M254.5 231.121h1.441M310.781 231.121h1.739M325.898 231.121h3.961M333.219 231.121h.722" fill="none" stroke-width=".7200000000000001" stroke-linecap="round" stroke-linejoin="round" stroke="navy" stroke-miterlimit="10"/><g clip-path="url(#be)"><path d="M337.36 231.121h3.421" fill="none" stroke-width=".7200000000000001" stroke-linecap="round" stroke-linejoin="round" stroke="navy" stroke-miterlimit="10"/></g><path d="M254.5 231.719h1.5M310.781 231.719h1.739M325.898 231.719h4.082M333.219 231.719h.722" fill="none" stroke-width=".7200000000000001" stroke-linecap="round" stroke-linejoin="round" stroke="navy" stroke-miterlimit="10"/><g clip-path="url(#bf)"><path d="M337.18 231.719h3.601" fill="none" stroke-width=".7200000000000001" stroke-linecap="round" stroke-linejoin="round" stroke="navy" stroke-miterlimit="10"/></g><path d="M254.5 232.379h1.738M310.54 232.379h2.222M325.66 232.379h4.621M333.219 232.379h.722" fill="none" stroke-width=".7200000000000001" stroke-linecap="round" stroke-linejoin="round" stroke="navy" stroke-miterlimit="10"/><g clip-path="url(#bg)"><path d="M336.941 232.379h3.84" fill="none" stroke-width=".7200000000000001" stroke-linecap="round" stroke-linejoin="round" stroke="navy" stroke-miterlimit="10"/></g><path d="M254.5 232.98h2.04M310.238 232.98H313M325.422 232.98h5.277M333.219 232.98h.722" fill="none" stroke-width=".7200000000000001" stroke-linecap="round" stroke-linejoin="round" stroke="navy" stroke-miterlimit="10"/><g clip-path="url(#bh)"><path d="M336.46 232.98h4.321" fill="none" stroke-width=".7200000000000001" stroke-linecap="round" stroke-linejoin="round" stroke="navy" stroke-miterlimit="10"/></g><path d="M254.5 233.64h2.281M310 233.64h3.3M325.18 233.64h6.242M333.219 233.64h.722" fill="none" stroke-width=".7200000000000001" stroke-linecap="round" stroke-linejoin="round" stroke="navy" stroke-miterlimit="10"/><g clip-path="url(#bi)"><path d="M335.738 233.64h5.043" fill="none" stroke-width=".7200000000000001" stroke-linecap="round" stroke-linejoin="round" stroke="navy" stroke-miterlimit="10"/></g><path d="M254.5 234.238h2.82M309.52 234.238h4.02M324.879 234.238h8.101M333.219 234.238h.722" fill="none" stroke-width=".7200000000000001" stroke-linecap="round" stroke-linejoin="round" stroke="navy" stroke-miterlimit="10"/><g clip-path="url(#bj)"><path d="M334.18 234.238h6.601" fill="none" stroke-width=".7200000000000001" stroke-linecap="round" stroke-linejoin="round" stroke="navy" stroke-miterlimit="10"/></g><path d="M254.5 234.898h3.48M308.86 234.898h5.28" fill="none" stroke-width=".7200000000000001" stroke-linecap="round" stroke-linejoin="round" stroke="navy" stroke-miterlimit="10"/><g clip-path="url(#bk)"><path d="M324.281 234.898h16.5" fill="none" stroke-width=".7200000000000001" stroke-linecap="round" stroke-linejoin="round" stroke="navy" stroke-miterlimit="10"/></g><path d="M254.5 235.5h4.32M308.262 235.5h6.539" fill="none" stroke-width=".7200000000000001" stroke-linecap="round" stroke-linejoin="round" stroke="navy" stroke-miterlimit="10"/><g clip-path="url(#bl)"><path d="M323.68 235.5h17.101" fill="none" stroke-width=".7200000000000001" stroke-linecap="round" stroke-linejoin="round" stroke="navy" stroke-miterlimit="10"/></g><path d="M254.5 236.102h5.82M306.82 236.102h8.578" fill="none" stroke-width=".7200000000000001" stroke-linecap="round" stroke-linejoin="round" stroke="navy" stroke-miterlimit="10"/><g clip-path="url(#bm)"><path d="M323.02 236.102h17.761" fill="none" stroke-width=".7200000000000001" stroke-linecap="round" stroke-linejoin="round" stroke="navy" stroke-miterlimit="10"/></g><path d="M254.5 236.762h62.398" fill="none" stroke-width=".7200000000000001" stroke-linecap="round" stroke-linejoin="round" stroke="navy" stroke-miterlimit="10"/><g clip-path="url(#bn)"><path d="M321.52 236.762h19.261" fill="none" stroke-width=".7200000000000001" stroke-linecap="round" stroke-linejoin="round" stroke="navy" stroke-miterlimit="10"/></g><g clip-path="url(#bo)"><path d="M254.5 237.36h86.281" fill="none" stroke-width=".7200000000000001" stroke-linecap="round" stroke-linejoin="round" stroke="navy" stroke-miterlimit="10"/></g><path d="M261.7 230.46h21.6M283.3 230.46h21.54M261.7 194.578v35.883M326.441 194.578H261.7" fill="none" stroke-width="3.6" stroke-linecap="round" stroke-linejoin="round" stroke="navy" stroke-miterlimit="10"/><path d="M302.922 201.719a1.859 1.859 0 1 1 3.717-.001 1.859 1.859 0 0 1-3.717 0" fill-rule="evenodd" fill="green"/><path d="M302.922 201.719a1.859 1.859 0 1 1 3.718-.001 1.859 1.859 0 0 1-3.718 0zm0 0" fill="none" stroke-width=".12" stroke-linecap="round" stroke-linejoin="round" stroke="green" stroke-miterlimit="10"/><path d="M303.64 201.719a1.14 1.14 0 1 1 2.282 0 1.14 1.14 0 0 1-1.14 1.14c-.634 0-1.141-.507-1.141-1.14" fill-rule="evenodd" fill="#fff"/><path d="M303.64 201.719a1.14 1.14 0 1 1 2.282 0 1.14 1.14 0 0 1-1.14 1.14c-.634 0-1.141-.507-1.141-1.14zm0 0" fill="none" stroke-width=".06" stroke-linecap="square" stroke-linejoin="bevel" stroke="#000" stroke-miterlimit="10"/><path d="M281.379 201.719a1.861 1.861 0 0 1 3.723 0 1.862 1.862 0 0 1-3.723 0" fill-rule="evenodd" fill="green"/><path d="M281.379 201.719a1.861 1.861 0 0 1 3.723 0 1.862 1.862 0 0 1-3.723 0zm0 0" fill="none" stroke-width=".12" stroke-linecap="round" stroke-linejoin="round" stroke="green" stroke-miterlimit="10"/><path d="M282.102 201.719a1.139 1.139 0 1 1 2.277 0c0 .633-.508 1.14-1.14 1.14a1.136 1.136 0 0 1-1.137-1.14" fill-rule="evenodd" fill="#fff"/><path d="M282.102 201.719a1.139 1.139 0 1 1 2.277 0c0 .633-.508 1.14-1.14 1.14a1.136 1.136 0 0 1-1.137-1.14zm0 0" fill="none" stroke-width=".06" stroke-linecap="square" stroke-linejoin="bevel" stroke="#000" stroke-miterlimit="10"/><path d="M302.922 208.922c0-1.027.832-1.863 1.86-1.863a1.862 1.862 0 0 1 0 3.722 1.861 1.861 0 0 1-1.86-1.86" fill-rule="evenodd" fill="green"/><path d="M302.922 208.922c0-1.027.832-1.863 1.86-1.863a1.862 1.862 0 0 1 0 3.722 1.861 1.861 0 0 1-1.86-1.86zm0 0" fill="none" stroke-width=".12" stroke-linecap="round" stroke-linejoin="round" stroke="green" stroke-miterlimit="10"/><path d="M303.64 208.922c0-.633.508-1.14 1.141-1.14a1.14 1.14 0 1 1 0 2.277c-.633 0-1.14-.508-1.14-1.137" fill-rule="evenodd" fill="#fff"/><path d="M303.64 208.922c0-.633.508-1.14 1.141-1.14a1.14 1.14 0 1 1 0 2.277c-.633 0-1.14-.508-1.14-1.137zm0 0" fill="none" stroke-width=".06" stroke-linecap="square" stroke-linejoin="bevel" stroke="#000" stroke-miterlimit="10"/><path d="M281.379 208.922c0-1.027.836-1.863 1.86-1.863 1.027 0 1.863.836 1.863 1.863 0 1.023-.836 1.86-1.864 1.86a1.864 1.864 0 0 1-1.86-1.86" fill-rule="evenodd" fill="green"/><path d="M281.379 208.922c0-1.027.836-1.863 1.86-1.863 1.027 0 1.863.836 1.863 1.863 0 1.023-.836 1.86-1.864 1.86a1.864 1.864 0 0 1-1.86-1.86zm0 0" fill="none" stroke-width=".12" stroke-linecap="round" stroke-linejoin="round" stroke="green" stroke-miterlimit="10"/><path d="M282.102 208.922c0-.633.507-1.14 1.136-1.14.633 0 1.14.507 1.14 1.14 0 .629-.507 1.137-1.14 1.137a1.135 1.135 0 0 1-1.136-1.137" fill-rule="evenodd" fill="#fff"/><path d="M282.102 208.922c0-.633.507-1.14 1.136-1.14.633 0 1.14.507 1.14 1.14 0 .629-.507 1.137-1.14 1.137a1.135 1.135 0 0 1-1.136-1.137zm0 0" fill="none" stroke-width=".06" stroke-linecap="square" stroke-linejoin="bevel" stroke="#000" stroke-miterlimit="10"/><path d="M274.36 187.379a1.68 1.68 0 1 1 3.36 0 1.68 1.68 0 0 1-3.36 0" fill-rule="evenodd" fill="green"/><path d="M274.36 187.379a1.68 1.68 0 1 1 3.36 0 1.68 1.68 0 0 1-3.36 0zm0 0" fill="none" stroke-width=".12" stroke-linecap="round" stroke-linejoin="round" stroke="green" stroke-miterlimit="10"/><path d="M275.02 187.379a1.02 1.02 0 1 1 2.04.001 1.02 1.02 0 0 1-2.04-.001" fill-rule="evenodd" fill="#fff"/><path d="M275.02 187.379a1.02 1.02 0 1 1 2.04.001 1.02 1.02 0 0 1-2.04-.001zm0 0" fill="none" stroke-width=".06" stroke-linecap="square" stroke-linejoin="bevel" stroke="#000" stroke-miterlimit="10"/><path d="M274.36 208.922a1.68 1.68 0 0 1 3.36 0 1.68 1.68 0 1 1-3.36 0" fill-rule="evenodd" fill="green"/><path d="M274.36 208.922a1.68 1.68 0 0 1 3.36 0 1.68 1.68 0 1 1-3.36 0zm0 0" fill="none" stroke-width=".12" stroke-linecap="round" stroke-linejoin="round" stroke="green" stroke-miterlimit="10"/><path d="M275.02 208.922a1.019 1.019 0 1 1 2.04 0 1.02 1.02 0 0 1-2.04 0" fill-rule="evenodd" fill="#fff"/><path d="M275.02 208.922a1.019 1.019 0 1 1 2.04 0 1.02 1.02 0 0 1-2.04 0zm0 0" fill="none" stroke-width=".06" stroke-linecap="square" stroke-linejoin="bevel" stroke="#000" stroke-miterlimit="10"/><path d="M267.16 187.379a1.68 1.68 0 1 1 3.36 0 1.68 1.68 0 0 1-3.36 0" fill-rule="evenodd" fill="green"/><path d="M267.16 187.379a1.68 1.68 0 1 1 3.36 0 1.68 1.68 0 0 1-3.36 0zm0 0" fill="none" stroke-width=".12" stroke-linecap="round" stroke-linejoin="round" stroke="green" stroke-miterlimit="10"/><path d="M267.82 187.379a1.02 1.02 0 1 1 2.04.001 1.02 1.02 0 0 1-2.04-.001" fill-rule="evenodd" fill="#fff"/><path d="M267.82 187.379a1.02 1.02 0 1 1 2.04.001 1.02 1.02 0 0 1-2.04-.001zm0 0" fill="none" stroke-width=".06" stroke-linecap="square" stroke-linejoin="bevel" stroke="#000" stroke-miterlimit="10"/><path d="M267.16 208.922a1.68 1.68 0 1 1 1.68 1.68 1.68 1.68 0 0 1-1.68-1.68" fill-rule="evenodd" fill="green"/><path d="M267.16 208.922a1.68 1.68 0 1 1 1.68 1.68 1.68 1.68 0 0 1-1.68-1.68zm0 0" fill="none" stroke-width=".12" stroke-linecap="round" stroke-linejoin="round" stroke="green" stroke-miterlimit="10"/><path d="M267.82 208.922c0-.567.457-1.024 1.02-1.024a1.021 1.021 0 0 1 0 2.043 1.02 1.02 0 0 1-1.02-1.02" fill-rule="evenodd" fill="#fff"/><path d="M267.82 208.922c0-.567.457-1.024 1.02-1.024a1.021 1.021 0 0 1 0 2.043 1.02 1.02 0 0 1-1.02-1.02zm0 0" fill="none" stroke-width=".06" stroke-linecap="square" stroke-linejoin="bevel" stroke="#000" stroke-miterlimit="10"/><path d="M310.3 187.379a1.68 1.68 0 1 1 3.36 0 1.68 1.68 0 0 1-3.36 0" fill-rule="evenodd" fill="green"/><path d="M310.3 187.379a1.68 1.68 0 1 1 3.36 0 1.68 1.68 0 0 1-3.36 0zm0 0" fill="none" stroke-width=".12" stroke-linecap="round" stroke-linejoin="round" stroke="green" stroke-miterlimit="10"/><path d="M310.96 187.379a1.02 1.02 0 1 1 2.041.001 1.02 1.02 0 0 1-2.04-.001" fill-rule="evenodd" fill="#fff"/><path d="M310.96 187.379a1.02 1.02 0 1 1 2.041.001 1.02 1.02 0 0 1-2.04-.001zm0 0" fill="none" stroke-width=".06" stroke-linecap="square" stroke-linejoin="bevel" stroke="#000" stroke-miterlimit="10"/><path d="M310.3 208.922a1.68 1.68 0 1 1 1.68 1.68 1.68 1.68 0 0 1-1.68-1.68" fill-rule="evenodd" fill="green"/><path d="M310.3 208.922a1.68 1.68 0 1 1 1.68 1.68 1.68 1.68 0 0 1-1.68-1.68zm0 0" fill="none" stroke-width=".12" stroke-linecap="round" stroke-linejoin="round" stroke="green" stroke-miterlimit="10"/><path d="M310.96 208.922c0-.567.458-1.024 1.02-1.024a1.021 1.021 0 0 1 0 2.043 1.02 1.02 0 0 1-1.02-1.02" fill-rule="evenodd" fill="#fff"/><path d="M310.96 208.922c0-.567.458-1.024 1.02-1.024a1.021 1.021 0 0 1 0 2.043 1.02 1.02 0 0 1-1.02-1.02zm0 0" fill="none" stroke-width=".06" stroke-linecap="square" stroke-linejoin="bevel" stroke="#000" stroke-miterlimit="10"/><path d="M281.2 216.121a2.041 2.041 0 1 1 4.082-.003 2.041 2.041 0 0 1-4.083.003" fill-rule="evenodd" fill="green"/><path d="M281.2 216.121a2.041 2.041 0 1 1 4.082-.003 2.041 2.041 0 0 1-4.083.003zm0 0" fill="none" stroke-width=".12" stroke-linecap="round" stroke-linejoin="round" stroke="green" stroke-miterlimit="10"/><path d="M282.219 216.121a1.021 1.021 0 1 1 2.043 0 1.021 1.021 0 0 1-2.043 0" fill-rule="evenodd" fill="#fff"/><path d="M282.219 216.121a1.021 1.021 0 1 1 2.043 0 1.021 1.021 0 0 1-2.043 0zm0 0" fill="none" stroke-width=".06" stroke-linecap="square" stroke-linejoin="bevel" stroke="#000" stroke-miterlimit="10"/><path d="M281.2 230.46c0-1.128.913-2.038 2.038-2.038a2.039 2.039 0 1 1 0 4.078 2.04 2.04 0 0 1-2.039-2.04" fill-rule="evenodd" fill="green"/><path d="M281.2 230.46c0-1.128.913-2.038 2.038-2.038a2.039 2.039 0 1 1 0 4.078 2.04 2.04 0 0 1-2.039-2.04zm0 0" fill="none" stroke-width=".12" stroke-linecap="round" stroke-linejoin="round" stroke="green" stroke-miterlimit="10"/><path d="M282.219 230.46a1.021 1.021 0 1 1 2.043 0 1.021 1.021 0 0 1-2.043 0" fill-rule="evenodd" fill="#fff"/><path d="M282.219 230.46a1.021 1.021 0 1 1 2.043 0 1.021 1.021 0 0 1-2.043 0zm0 0" fill="none" stroke-width=".06" stroke-linecap="square" stroke-linejoin="bevel" stroke="#000" stroke-miterlimit="10"/><path d="M281.2 223.32c0-1.129.913-2.039 2.038-2.039a2.039 2.039 0 1 1 0 4.078 2.04 2.04 0 0 1-2.039-2.039" fill-rule="evenodd" fill="green"/><path d="M281.2 223.32c0-1.129.913-2.039 2.038-2.039a2.039 2.039 0 1 1 0 4.078 2.04 2.04 0 0 1-2.039-2.039zm0 0" fill="none" stroke-width=".12" stroke-linecap="round" stroke-linejoin="round" stroke="green" stroke-miterlimit="10"/><path d="M282.219 223.32a1.021 1.021 0 1 1 2.043 0 1.021 1.021 0 0 1-2.043 0" fill-rule="evenodd" fill="#fff"/><path d="M282.219 223.32a1.021 1.021 0 1 1 2.043 0 1.021 1.021 0 0 1-2.043 0zm0 0" fill="none" stroke-width=".06" stroke-linecap="square" stroke-linejoin="bevel" stroke="#000" stroke-miterlimit="10"/><path d="M302.738 216.121a2.042 2.042 0 1 1 4.082 0 2.04 2.04 0 0 1-4.082 0" fill-rule="evenodd" fill="green"/><path d="M302.738 216.121a2.042 2.042 0 1 1 4.082 0 2.04 2.04 0 0 1-4.082 0zm0 0" fill="none" stroke-width=".12" stroke-linecap="round" stroke-linejoin="round" stroke="green" stroke-miterlimit="10"/><path d="M303.762 216.121a1.02 1.02 0 1 1 2.04.002 1.02 1.02 0 0 1-2.04-.002" fill-rule="evenodd" fill="#fff"/><path d="M303.762 216.121a1.02 1.02 0 1 1 2.04.002 1.02 1.02 0 0 1-2.04-.002zm0 0" fill="none" stroke-width=".06" stroke-linecap="square" stroke-linejoin="bevel" stroke="#000" stroke-miterlimit="10"/><path d="M302.738 230.46c0-1.128.914-2.038 2.043-2.038a2.038 2.038 0 1 1 0 4.078 2.041 2.041 0 0 1-2.043-2.04" fill-rule="evenodd" fill="green"/><path d="M302.738 230.46c0-1.128.914-2.038 2.043-2.038a2.038 2.038 0 1 1 0 4.078 2.041 2.041 0 0 1-2.043-2.04zm0 0" fill="none" stroke-width=".12" stroke-linecap="round" stroke-linejoin="round" stroke="green" stroke-miterlimit="10"/><path d="M303.762 230.46a1.02 1.02 0 1 1 2.04.002 1.02 1.02 0 0 1-2.04-.001" fill-rule="evenodd" fill="#fff"/><path d="M303.762 230.46a1.02 1.02 0 1 1 2.04.002 1.02 1.02 0 0 1-2.04-.001zm0 0" fill="none" stroke-width=".06" stroke-linecap="square" stroke-linejoin="bevel" stroke="#000" stroke-miterlimit="10"/><path d="M302.738 223.32c0-1.129.914-2.039 2.043-2.039a2.038 2.038 0 1 1 0 4.078 2.041 2.041 0 0 1-2.043-2.039" fill-rule="evenodd" fill="green"/><path d="M302.738 223.32c0-1.129.914-2.039 2.043-2.039a2.038 2.038 0 1 1 0 4.078 2.041 2.041 0 0 1-2.043-2.039zm0 0" fill="none" stroke-width=".12" stroke-linecap="round" stroke-linejoin="round" stroke="green" stroke-miterlimit="10"/><path d="M303.762 223.32a1.02 1.02 0 1 1 2.04.002 1.02 1.02 0 0 1-2.04-.002" fill-rule="evenodd" fill="#fff"/><path d="M303.762 223.32a1.02 1.02 0 1 1 2.04.002 1.02 1.02 0 0 1-2.04-.002zm0 0" fill="none" stroke-width=".06" stroke-linecap="square" stroke-linejoin="bevel" stroke="#000" stroke-miterlimit="10"/><path d="M323.86 201.719a2.52 2.52 0 1 1 5.04.002 2.52 2.52 0 0 1-5.04-.002" fill-rule="evenodd" fill="green"/><path d="M323.86 201.719a2.52 2.52 0 1 1 5.04.002 2.52 2.52 0 0 1-5.04-.002zm0 0" fill="none" stroke-width=".12" stroke-linecap="round" stroke-linejoin="round" stroke="green" stroke-miterlimit="10"/><path d="M324.941 201.719a1.439 1.439 0 1 1 2.878.002 1.439 1.439 0 0 1-2.878-.002" fill-rule="evenodd" fill="#fff"/><path d="M324.941 201.719a1.439 1.439 0 1 1 2.878.002 1.439 1.439 0 0 1-2.878-.002zm0 0" fill="none" stroke-width=".06" stroke-linecap="square" stroke-linejoin="bevel" stroke="#000" stroke-miterlimit="10"/><path d="M323.86 208.922a2.519 2.519 0 1 1 5.04 0 2.52 2.52 0 0 1-5.04 0" fill-rule="evenodd" fill="green"/><path d="M323.86 208.922a2.519 2.519 0 1 1 5.04 0 2.52 2.52 0 0 1-5.04 0zm0 0" fill="none" stroke-width=".12" stroke-linecap="round" stroke-linejoin="round" stroke="green" stroke-miterlimit="10"/><path d="M324.941 208.922a1.44 1.44 0 1 1 2.88-.004 1.44 1.44 0 0 1-2.88.004" fill-rule="evenodd" fill="#fff"/><path d="M324.941 208.922a1.44 1.44 0 1 1 2.88-.004 1.44 1.44 0 0 1-2.88.004zm0 0" fill="none" stroke-width=".06" stroke-linecap="square" stroke-linejoin="bevel" stroke="#000" stroke-miterlimit="10"/><path d="M259.121 187.379a2.52 2.52 0 1 1 5.037.002 2.52 2.52 0 0 1-5.037-.002" fill-rule="evenodd" fill="green"/><path d="M259.121 187.379a2.52 2.52 0 1 1 5.037.002 2.52 2.52 0 0 1-5.037-.002zm0 0" fill="none" stroke-width=".12" stroke-linecap="round" stroke-linejoin="round" stroke="green" stroke-miterlimit="10"/><path d="M260.2 187.379a1.44 1.44 0 1 1 2.878.004 1.44 1.44 0 0 1-2.879-.004" fill-rule="evenodd" fill="#fff"/><path d="M260.2 187.379a1.44 1.44 0 1 1 2.878.004 1.44 1.44 0 0 1-2.879-.004zm0 0" fill="none" stroke-width=".06" stroke-linecap="square" stroke-linejoin="bevel" stroke="#000" stroke-miterlimit="10"/><path d="M259.121 194.578a2.52 2.52 0 1 1 5.037.002 2.52 2.52 0 0 1-5.037-.002" fill-rule="evenodd" fill="green"/><path d="M259.121 194.578a2.52 2.52 0 1 1 5.037.002 2.52 2.52 0 0 1-5.037-.002zm0 0" fill="none" stroke-width=".12" stroke-linecap="round" stroke-linejoin="round" stroke="green" stroke-miterlimit="10"/><path d="M260.2 194.578a1.44 1.44 0 1 1 2.878.004 1.44 1.44 0 0 1-2.879-.004" fill-rule="evenodd" fill="#fff"/><path d="M260.2 194.578a1.44 1.44 0 1 1 2.878.004 1.44 1.44 0 0 1-2.879-.004zm0 0" fill="none" stroke-width=".06" stroke-linecap="square" stroke-linejoin="bevel" stroke="#000" stroke-miterlimit="10"/><path d="M323.621 216.121a2.76 2.76 0 0 1 2.758-2.762 2.764 2.764 0 0 1 2.762 2.762 2.76 2.76 0 0 1-5.52 0" fill-rule="evenodd" fill="green"/><path d="M323.621 216.121a2.76 2.76 0 0 1 2.758-2.762 2.764 2.764 0 0 1 2.762 2.762 2.76 2.76 0 0 1-5.52 0zm0 0" fill="none" stroke-width=".12" stroke-linecap="round" stroke-linejoin="round" stroke="green" stroke-miterlimit="10"/><path d="M324.941 216.121a1.44 1.44 0 1 1 2.88-.004 1.44 1.44 0 0 1-2.88.004" fill-rule="evenodd" fill="#fff"/><path d="M324.941 216.121a1.44 1.44 0 1 1 2.88-.004 1.44 1.44 0 0 1-2.88.004zm0 0" fill="none" stroke-width=".06" stroke-linecap="square" stroke-linejoin="bevel" stroke="#000" stroke-miterlimit="10"/><path d="M330.762 230.46a2.76 2.76 0 0 1 2.758-2.76 2.764 2.764 0 0 1 2.761 2.76 2.76 2.76 0 0 1-5.52 0" fill-rule="evenodd" fill="green"/><path d="M330.762 230.46a2.76 2.76 0 0 1 2.758-2.76 2.764 2.764 0 0 1 2.761 2.76 2.76 2.76 0 0 1-5.52 0zm0 0" fill="none" stroke-width=".12" stroke-linecap="round" stroke-linejoin="round" stroke="green" stroke-miterlimit="10"/><path d="M332.078 230.46c0-.796.649-1.44 1.442-1.44a1.44 1.44 0 1 1-1.442 1.44" fill-rule="evenodd" fill="#fff"/><path d="M332.078 230.46c0-.796.649-1.44 1.442-1.44a1.44 1.44 0 1 1-1.442 1.44zm0 0" fill="none" stroke-width=".06" stroke-linecap="square" stroke-linejoin="bevel" stroke="#000" stroke-miterlimit="10"/><path d="M316.422 230.46a2.76 2.76 0 0 1 2.758-2.76 2.764 2.764 0 0 1 2.761 2.76 2.76 2.76 0 0 1-5.52 0" fill-rule="evenodd" fill="green"/><path d="M316.422 230.46a2.76 2.76 0 0 1 2.758-2.76 2.764 2.764 0 0 1 2.761 2.76 2.76 2.76 0 0 1-5.52 0zm0 0" fill="none" stroke-width=".12" stroke-linecap="round" stroke-linejoin="round" stroke="green" stroke-miterlimit="10"/><path d="M317.738 230.46c0-.796.649-1.44 1.442-1.44a1.44 1.44 0 1 1-1.442 1.44" fill-rule="evenodd" fill="#fff"/><path d="M317.738 230.46c0-.796.649-1.44 1.442-1.44a1.44 1.44 0 1 1-1.442 1.44zm0 0" fill="none" stroke-width=".06" stroke-linecap="square" stroke-linejoin="bevel" stroke="#000" stroke-miterlimit="10"/></svg>