<?xml version="1.0" encoding="UTF-8" standalone="no"?>
<svg
   xmlns:dc="http://purl.org/dc/elements/1.1/"
   xmlns:cc="http://creativecommons.org/ns#"
   xmlns:rdf="http://www.w3.org/1999/02/22-rdf-syntax-ns#"
   xmlns:svg="http://www.w3.org/2000/svg"
   xmlns="http://www.w3.org/2000/svg"
   xmlns:sodipodi="http://sodipodi.sourceforge.net/DTD/sodipodi-0.dtd"
   xmlns:inkscape="http://www.inkscape.org/namespaces/inkscape"
   id="svg177"
   version="1.1"
   viewBox="0 0 86.399055 57.580383"
   height="57.580383pt"
   width="86.399055pt"
   sodipodi:docname="AstableMultivibrator-PNP-board-mirrored.svg"
   inkscape:version="0.92.5 (2060ec1f9f, 2020-04-08)">
  <sodipodi:namedview
     pagecolor="#ffffff"
     bordercolor="#666666"
     borderopacity="1"
     objecttolerance="10"
     gridtolerance="10"
     guidetolerance="10"
     inkscape:pageopacity="0"
     inkscape:pageshadow="2"
     inkscape:window-width="600"
     inkscape:window-height="420"
     id="namedview94"
     showgrid="false"
     inkscape:zoom="2.6029412"
     inkscape:cx="57.518636"
     inkscape:cy="38.666667"
     inkscape:window-x="0"
     inkscape:window-y="0"
     inkscape:window-maximized="0"
     inkscape:current-layer="svg177" />
  <metadata
     id="metadata181">
    <rdf:RDF>
      <cc:Work
         rdf:about="">
        <dc:format>image/svg+xml</dc:format>
        <dc:type
           rdf:resource="http://purl.org/dc/dcmitype/StillImage" />
      </cc:Work>
    </rdf:RDF>
  </metadata>
  <defs
     id="defs14">
    <clipPath
       id="clip1">
      <path
         id="path2"
         d="m 5.5,62 h 87.480469 v 1 H 5.5 Z m 0,0"
         inkscape:connector-curvature="0" />
    </clipPath>
    <clipPath
       id="clip2">
      <path
         id="path5"
         d="M 5.5,5 H 6 V 63 H 5.5 Z m 0,0"
         inkscape:connector-curvature="0" />
    </clipPath>
    <clipPath
       id="clip3">
      <path
         id="path8"
         d="M 5.5,5 H 92.980469 V 6 H 5.5 Z m 0,0"
         inkscape:connector-curvature="0" />
    </clipPath>
    <clipPath
       id="clip4">
      <path
         id="path11"
         d="m 92,5 h 0.980469 V 63 H 92 Z m 0,0"
         inkscape:connector-curvature="0" />
    </clipPath>
  </defs>
  <g
     id="surface1"
     transform="translate(-5.8610231,-5.4196187)">
    <path
       id="path16"
       transform="matrix(0.06,0,0,0.06,-153.019,-262)"
       d="M 3727.0094,4936.9792 H 3607.999"
       style="fill:none;stroke:#000000;stroke-width:60;stroke-linecap:round;stroke-linejoin:round;stroke-miterlimit:10;stroke-opacity:1"
       inkscape:connector-curvature="0" />
    <path
       id="path18"
       transform="matrix(0.06,0,0,0.06,-153.019,-262)"
       d="M 3607.999,4936.9792 V 4816.9923"
       style="fill:none;stroke:#000000;stroke-width:60;stroke-linecap:round;stroke-linejoin:round;stroke-miterlimit:10;stroke-opacity:1"
       inkscape:connector-curvature="0" />
    <path
       id="path20"
       transform="matrix(0.06,0,0,0.06,-153.019,-262)"
       d="M 3247.973,4936.9792 H 3127.986"
       style="fill:none;stroke:#000000;stroke-width:60;stroke-linecap:round;stroke-linejoin:round;stroke-miterlimit:10;stroke-opacity:1"
       inkscape:connector-curvature="0" />
    <path
       id="path22"
       transform="matrix(0.06,0,0,0.06,-153.019,-262)"
       d="M 3127.986,4936.9792 V 4697.0053"
       style="fill:none;stroke:#000000;stroke-width:60;stroke-linecap:round;stroke-linejoin:round;stroke-miterlimit:10;stroke-opacity:1"
       inkscape:connector-curvature="0" />
    <path
       id="path24"
       transform="matrix(0.06,0,0,0.06,-153.019,-262)"
       d="m 3127.986,4697.0053 h 119.987"
       style="fill:none;stroke:#000000;stroke-width:60;stroke-linecap:round;stroke-linejoin:round;stroke-miterlimit:10;stroke-opacity:1"
       inkscape:connector-curvature="0" />
    <path
       id="path26"
       transform="matrix(0.06,0,0,0.06,-153.019,-262)"
       d="m 3247.973,4816.9923 h 120.0521"
       style="fill:none;stroke:#000000;stroke-width:60;stroke-linecap:round;stroke-linejoin:round;stroke-miterlimit:10;stroke-opacity:1"
       inkscape:connector-curvature="0" />
    <path
       id="path28"
       transform="matrix(0.06,0,0,0.06,-153.019,-262)"
       d="m 3368.0251,4816.9923 v 240.039"
       style="fill:none;stroke:#000000;stroke-width:60;stroke-linecap:round;stroke-linejoin:round;stroke-miterlimit:10;stroke-opacity:1"
       inkscape:connector-curvature="0" />
    <path
       id="path30"
       transform="matrix(0.06,0,0,0.06,-153.019,-262)"
       d="M 3368.0251,5057.0313 H 3247.973"
       style="fill:none;stroke:#000000;stroke-width:60;stroke-linecap:round;stroke-linejoin:round;stroke-miterlimit:10;stroke-opacity:1"
       inkscape:connector-curvature="0" />
    <path
       id="path32"
       transform="matrix(0.06,0,0,0.06,-153.019,-262)"
       d="m 3007.999,4577.0183 v 480.013"
       style="fill:none;stroke:#000000;stroke-width:60;stroke-linecap:round;stroke-linejoin:round;stroke-miterlimit:10;stroke-opacity:1"
       inkscape:connector-curvature="0" />
    <path
       id="path34"
       transform="matrix(0.06,0,0,0.06,-153.019,-262)"
       d="m 3007.999,5057.0313 h 239.974"
       style="fill:none;stroke:#000000;stroke-width:60;stroke-linecap:round;stroke-linejoin:round;stroke-miterlimit:10;stroke-opacity:1"
       inkscape:connector-curvature="0" />
    <path
       id="path36"
       transform="matrix(0.06,0,0,0.06,-153.019,-262)"
       d="m 3607.999,5057.0313 h 238.9974"
       style="fill:none;stroke:#000000;stroke-width:60;stroke-linecap:round;stroke-linejoin:round;stroke-miterlimit:10;stroke-opacity:1"
       inkscape:connector-curvature="0" />
    <path
       id="path38"
       transform="matrix(0.06,0,0,0.06,-153.019,-262)"
       d="m 3846.9964,5057.0313 v -360.026"
       style="fill:none;stroke:#000000;stroke-width:60;stroke-linecap:round;stroke-linejoin:round;stroke-miterlimit:10;stroke-opacity:1"
       inkscape:connector-curvature="0" />
    <path
       id="path40"
       transform="matrix(0.06,0,0,0.06,-153.019,-262)"
       d="M 3846.9964,4697.0053 H 3607.999"
       style="fill:none;stroke:#000000;stroke-width:60;stroke-linecap:round;stroke-linejoin:round;stroke-miterlimit:10;stroke-opacity:1"
       inkscape:connector-curvature="0" />
    <path
       id="path42"
       transform="matrix(0.06,0,0,0.06,-153.019,-262)"
       d="M 2888.012,4936.9792 V 4816.9923"
       style="fill:none;stroke:#000000;stroke-width:60;stroke-linecap:round;stroke-linejoin:round;stroke-miterlimit:10;stroke-opacity:1"
       inkscape:connector-curvature="0" />
    <path
       id="path44"
       transform="matrix(0.06,0,0,0.06,-153.019,-262)"
       d="M 3727.0094,5296.0287 H 3127.986"
       style="fill:none;stroke:#000000;stroke-width:60;stroke-linecap:round;stroke-linejoin:round;stroke-miterlimit:10;stroke-opacity:1"
       inkscape:connector-curvature="0" />
    <path
       id="path46"
       transform="matrix(0.06,0,0,0.06,-153.019,-262)"
       d="M 3127.986,5296.0287 H 2888.012"
       style="fill:none;stroke:#000000;stroke-width:60;stroke-linecap:round;stroke-linejoin:round;stroke-miterlimit:10;stroke-opacity:1"
       inkscape:connector-curvature="0" />
    <path
       id="path48"
       transform="matrix(0.06,0,0,0.06,-153.019,-262)"
       d="m 2769.0016,4577.0183 v 480.013"
       style="fill:none;stroke:#000000;stroke-width:60;stroke-linecap:round;stroke-linejoin:round;stroke-miterlimit:10;stroke-opacity:1"
       inkscape:connector-curvature="0" />
    <path
       id="path50"
       transform="matrix(0.06,0,0,0.06,-153.019,-262)"
       d="M 2769.0016,5057.0313 H 2888.012"
       style="fill:none;stroke:#000000;stroke-width:60;stroke-linecap:round;stroke-linejoin:round;stroke-miterlimit:10;stroke-opacity:1"
       inkscape:connector-curvature="0" />
    <path
       id="path52"
       transform="matrix(0.06,0,0,0.06,-153.019,-262)"
       d="M 2888.012,5296.0287 H 2769.0016"
       style="fill:none;stroke:#000000;stroke-width:60;stroke-linecap:round;stroke-linejoin:round;stroke-miterlimit:10;stroke-opacity:1"
       inkscape:connector-curvature="0" />
    <path
       id="path54"
       transform="matrix(0.06,0,0,0.06,-153.019,-262)"
       d="M 2769.0016,5296.0287 V 5057.0313"
       style="fill:none;stroke:#000000;stroke-width:60;stroke-linecap:round;stroke-linejoin:round;stroke-miterlimit:10;stroke-opacity:1"
       inkscape:connector-curvature="0" />
    <path
       id="path56"
       transform="matrix(0.06,0,0,0.06,-153.019,-262)"
       d="m 3727.0094,5296.0287 h 119.987"
       style="fill:none;stroke:#000000;stroke-width:60;stroke-linecap:round;stroke-linejoin:round;stroke-miterlimit:10;stroke-opacity:1"
       inkscape:connector-curvature="0" />
    <path
       id="path58"
       transform="matrix(0.06,0,0,0.06,-153.019,-262)"
       d="M 3607.999,4577.0183 H 3247.973"
       style="fill:none;stroke:#000000;stroke-width:60;stroke-linecap:round;stroke-linejoin:round;stroke-miterlimit:10;stroke-opacity:1"
       inkscape:connector-curvature="0" />
    <path
       id="path60"
       transform="matrix(0.06,0,0,0.06,-153.019,-262)"
       d="M 2888.012,5175.9766 H 3966.9834"
       style="fill:none;stroke:#000000;stroke-width:60;stroke-linecap:round;stroke-linejoin:round;stroke-miterlimit:10;stroke-opacity:1"
       inkscape:connector-curvature="0" />
    <path
       id="path62"
       transform="matrix(0.06,0,0,0.06,-153.019,-262)"
       d="M 3966.9834,5175.9766 V 4577.0183"
       style="fill:none;stroke:#000000;stroke-width:60;stroke-linecap:round;stroke-linejoin:round;stroke-miterlimit:10;stroke-opacity:1"
       inkscape:connector-curvature="0" />
    <path
       id="path64"
       transform="matrix(0.06,0,0,0.06,-153.019,-262)"
       d="M 3966.9834,4577.0183 H 3607.999"
       style="fill:none;stroke:#000000;stroke-width:60;stroke-linecap:round;stroke-linejoin:round;stroke-miterlimit:10;stroke-opacity:1"
       inkscape:connector-curvature="0" />
    <path
       id="path66"
       transform="matrix(0.06,0,0,0.06,-153.019,-262)"
       d="m 3282.0225,4936.9792 c 0,18.2292 -14.7787,33.0079 -33.0079,33.0079 -18.2291,0 -33.0078,-14.7787 -33.0078,-33.0079 0,-18.2291 14.7787,-33.0078 33.0078,-33.0078 18.2292,0 33.0079,14.7787 33.0079,33.0078 z m 0,0"
       style="fill:#000000;fill-opacity:1;fill-rule:evenodd;stroke:#000000;stroke-width:2;stroke-linecap:round;stroke-linejoin:round;stroke-miterlimit:10;stroke-opacity:1"
       inkscape:connector-curvature="0" />
    <path
       id="path68"
       transform="matrix(0.06,0,0,0.06,-153.019,-262)"
       d="m 3269.9782,4936.9792 c 0,11.5886 -9.375,21.0287 -20.9636,21.0287 -11.5885,0 -21.0286,-9.4401 -21.0286,-21.0287 0,-11.5885 9.4401,-20.9635 21.0286,-20.9635 11.5886,0 20.9636,9.375 20.9636,20.9635 z m 0,0"
       style="fill:#ffffff;fill-opacity:1;fill-rule:evenodd;stroke:#000000;stroke-width:1;stroke-linecap:square;stroke-linejoin:bevel;stroke-miterlimit:10;stroke-opacity:1"
       inkscape:connector-curvature="0" />
    <path
       id="path70"
       transform="matrix(0.06,0,0,0.06,-153.019,-262)"
       d="m 3641.9834,4936.9792 c 0,18.2292 -14.7787,33.0079 -33.0078,33.0079 -18.2292,0 -33.0078,-14.7787 -33.0078,-33.0079 0,-18.2291 14.7786,-33.0078 33.0078,-33.0078 18.2291,0 33.0078,14.7787 33.0078,33.0078 z m 0,0"
       style="fill:#000000;fill-opacity:1;fill-rule:evenodd;stroke:#000000;stroke-width:2;stroke-linecap:round;stroke-linejoin:round;stroke-miterlimit:10;stroke-opacity:1"
       inkscape:connector-curvature="0" />
    <path
       id="path72"
       transform="matrix(0.06,0,0,0.06,-153.019,-262)"
       d="m 3630.0042,4936.9792 c 0,11.5886 -9.375,21.0287 -21.0286,21.0287 -11.5886,0 -20.9636,-9.4401 -20.9636,-21.0287 0,-11.5885 9.375,-20.9635 20.9636,-20.9635 11.6536,0 21.0286,9.375 21.0286,20.9635 z m 0,0"
       style="fill:#ffffff;fill-opacity:1;fill-rule:evenodd;stroke:#000000;stroke-width:1;stroke-linecap:square;stroke-linejoin:bevel;stroke-miterlimit:10;stroke-opacity:1"
       inkscape:connector-curvature="0" />
    <path
       id="path74"
       transform="matrix(0.06,0,0,0.06,-153.019,-262)"
       d="m 3282.0225,5057.0313 c 0,18.1641 -14.7787,32.9427 -33.0079,32.9427 -18.2291,0 -33.0078,-14.7786 -33.0078,-32.9427 0,-18.2291 14.7787,-33.0078 33.0078,-33.0078 18.2292,0 33.0079,14.7787 33.0079,33.0078 z m 0,0"
       style="fill:#000000;fill-opacity:1;fill-rule:evenodd;stroke:#000000;stroke-width:2;stroke-linecap:round;stroke-linejoin:round;stroke-miterlimit:10;stroke-opacity:1"
       inkscape:connector-curvature="0" />
    <path
       id="path76"
       transform="matrix(0.06,0,0,0.06,-153.019,-262)"
       d="m 3269.9782,5057.0313 c 0,11.5886 -9.375,20.9636 -20.9636,20.9636 -11.5885,0 -21.0286,-9.375 -21.0286,-20.9636 0,-11.6536 9.4401,-21.0286 21.0286,-21.0286 11.5886,0 20.9636,9.375 20.9636,21.0286 z m 0,0"
       style="fill:#ffffff;fill-opacity:1;fill-rule:evenodd;stroke:#000000;stroke-width:1;stroke-linecap:square;stroke-linejoin:bevel;stroke-miterlimit:10;stroke-opacity:1"
       inkscape:connector-curvature="0" />
    <path
       id="path78"
       transform="matrix(0.06,0,0,0.06,-153.019,-262)"
       d="m 3641.9834,5057.0313 c 0,18.1641 -14.7787,32.9427 -33.0078,32.9427 -18.2292,0 -33.0078,-14.7786 -33.0078,-32.9427 0,-18.2291 14.7786,-33.0078 33.0078,-33.0078 18.2291,0 33.0078,14.7787 33.0078,33.0078 z m 0,0"
       style="fill:#000000;fill-opacity:1;fill-rule:evenodd;stroke:#000000;stroke-width:2;stroke-linecap:round;stroke-linejoin:round;stroke-miterlimit:10;stroke-opacity:1"
       inkscape:connector-curvature="0" />
    <path
       id="path80"
       transform="matrix(0.06,0,0,0.06,-153.019,-262)"
       d="m 3630.0042,5057.0313 c 0,11.5886 -9.375,20.9636 -21.0286,20.9636 -11.5886,0 -20.9636,-9.375 -20.9636,-20.9636 0,-11.6536 9.375,-21.0286 20.9636,-21.0286 11.6536,0 21.0286,9.375 21.0286,21.0286 z m 0,0"
       style="fill:#ffffff;fill-opacity:1;fill-rule:evenodd;stroke:#000000;stroke-width:1;stroke-linecap:square;stroke-linejoin:bevel;stroke-miterlimit:10;stroke-opacity:1"
       inkscape:connector-curvature="0" />
    <path
       id="path82"
       transform="matrix(0.06,0,0,0.06,-153.019,-262)"
       d="m 2930.9808,5296.0287 c 0,23.1771 -18.8151,41.9922 -41.9922,41.9922 -23.1771,0 -41.9922,-18.8151 -41.9922,-41.9922 0,-23.2422 18.8151,-42.0573 41.9922,-42.0573 23.1771,0 41.9922,18.8151 41.9922,42.0573 z m 0,0"
       style="fill:#000000;fill-opacity:1;fill-rule:evenodd;stroke:#000000;stroke-width:2;stroke-linecap:round;stroke-linejoin:round;stroke-miterlimit:10;stroke-opacity:1"
       inkscape:connector-curvature="0" />
    <path
       id="path84"
       transform="matrix(0.06,0,0,0.06,-153.019,-262)"
       d="m 2910.0172,5296.0287 c 0,11.5886 -9.4401,20.9636 -21.0286,20.9636 -11.5886,0 -20.9636,-9.375 -20.9636,-20.9636 0,-11.6536 9.375,-21.0286 20.9636,-21.0286 11.5885,0 21.0286,9.375 21.0286,21.0286 z m 0,0"
       style="fill:#ffffff;fill-opacity:1;fill-rule:evenodd;stroke:#000000;stroke-width:1;stroke-linecap:square;stroke-linejoin:bevel;stroke-miterlimit:10;stroke-opacity:1"
       inkscape:connector-curvature="0" />
    <path
       id="path86"
       transform="matrix(0.06,0,0,0.06,-153.019,-262)"
       d="m 2930.9808,5175.9766 c 0,23.2422 -18.8151,41.9922 -41.9922,41.9922 -23.1771,0 -41.9922,-18.75 -41.9922,-41.9922 0,-23.177 18.8151,-41.9921 41.9922,-41.9921 23.1771,0 41.9922,18.8151 41.9922,41.9921 z m 0,0"
       style="fill:#000000;fill-opacity:1;fill-rule:evenodd;stroke:#000000;stroke-width:2;stroke-linecap:round;stroke-linejoin:round;stroke-miterlimit:10;stroke-opacity:1"
       inkscape:connector-curvature="0" />
    <path
       id="path88"
       transform="matrix(0.06,0,0,0.06,-153.019,-262)"
       d="m 2910.0172,5175.9766 c 0,11.6537 -9.4401,21.0287 -21.0286,21.0287 -11.5886,0 -20.9636,-9.375 -20.9636,-21.0287 0,-11.5885 9.375,-20.9635 20.9636,-20.9635 11.5885,0 21.0286,9.375 21.0286,20.9635 z m 0,0"
       style="fill:#ffffff;fill-opacity:1;fill-rule:evenodd;stroke:#000000;stroke-width:1;stroke-linecap:square;stroke-linejoin:bevel;stroke-miterlimit:10;stroke-opacity:1"
       inkscape:connector-curvature="0" />
    <path
       id="path90"
       transform="matrix(0.06,0,0,0.06,-153.019,-262)"
       d="m 2930.9808,5057.0313 c 0,23.1771 -18.8151,41.9922 -41.9922,41.9922 -23.1771,0 -41.9922,-18.8151 -41.9922,-41.9922 0,-23.2422 18.8151,-42.0573 41.9922,-42.0573 23.1771,0 41.9922,18.8151 41.9922,42.0573 z m 0,0"
       style="fill:#000000;fill-opacity:1;fill-rule:evenodd;stroke:#000000;stroke-width:2;stroke-linecap:round;stroke-linejoin:round;stroke-miterlimit:10;stroke-opacity:1"
       inkscape:connector-curvature="0" />
    <path
       id="path92"
       transform="matrix(0.06,0,0,0.06,-153.019,-262)"
       d="m 2910.0172,5057.0313 c 0,11.5886 -9.4401,20.9636 -21.0286,20.9636 -11.5886,0 -20.9636,-9.375 -20.9636,-20.9636 0,-11.6536 9.375,-21.0286 20.9636,-21.0286 11.5885,0 21.0286,9.375 21.0286,21.0286 z m 0,0"
       style="fill:#ffffff;fill-opacity:1;fill-rule:evenodd;stroke:#000000;stroke-width:1;stroke-linecap:square;stroke-linejoin:bevel;stroke-miterlimit:10;stroke-opacity:1"
       inkscape:connector-curvature="0" />
    <path
       id="path94"
       transform="matrix(0.06,0,0,0.06,-153.019,-262)"
       d="m 2930.9808,4936.9792 c 0,23.2422 -18.8151,41.9922 -41.9922,41.9922 -23.1771,0 -41.9922,-18.75 -41.9922,-41.9922 0,-23.177 18.8151,-41.9921 41.9922,-41.9921 23.1771,0 41.9922,18.8151 41.9922,41.9921 z m 0,0"
       style="fill:#000000;fill-opacity:1;fill-rule:evenodd;stroke:#000000;stroke-width:2;stroke-linecap:round;stroke-linejoin:round;stroke-miterlimit:10;stroke-opacity:1"
       inkscape:connector-curvature="0" />
    <path
       id="path96"
       transform="matrix(0.06,0,0,0.06,-153.019,-262)"
       d="m 2910.0172,4936.9792 c 0,11.5886 -9.4401,21.0287 -21.0286,21.0287 -11.5886,0 -20.9636,-9.4401 -20.9636,-21.0287 0,-11.5885 9.375,-20.9635 20.9636,-20.9635 11.5885,0 21.0286,9.375 21.0286,20.9635 z m 0,0"
       style="fill:#ffffff;fill-opacity:1;fill-rule:evenodd;stroke:#000000;stroke-width:1;stroke-linecap:square;stroke-linejoin:bevel;stroke-miterlimit:10;stroke-opacity:1"
       inkscape:connector-curvature="0" />
    <path
       id="path98"
       transform="matrix(0.06,0,0,0.06,-153.019,-262)"
       d="m 3880.9808,5296.0287 c 0,18.2292 -14.7787,32.9427 -33.0078,32.9427 -18.2292,0 -32.9427,-14.7135 -32.9427,-32.9427 0,-18.2291 14.7135,-33.0078 32.9427,-33.0078 18.2291,0 33.0078,14.7787 33.0078,33.0078 z m 0,0"
       style="fill:#000000;fill-opacity:1;fill-rule:evenodd;stroke:#000000;stroke-width:2;stroke-linecap:round;stroke-linejoin:round;stroke-miterlimit:10;stroke-opacity:1"
       inkscape:connector-curvature="0" />
    <path
       id="path100"
       transform="matrix(0.06,0,0,0.06,-153.019,-262)"
       d="m 3869.0016,5296.0287 c 0,11.5886 -9.375,20.9636 -21.0286,20.9636 -11.5886,0 -20.9636,-9.375 -20.9636,-20.9636 0,-11.6536 9.375,-21.0286 20.9636,-21.0286 11.6536,0 21.0286,9.375 21.0286,21.0286 z m 0,0"
       style="fill:#ffffff;fill-opacity:1;fill-rule:evenodd;stroke:#000000;stroke-width:1;stroke-linecap:square;stroke-linejoin:bevel;stroke-miterlimit:10;stroke-opacity:1"
       inkscape:connector-curvature="0" />
    <path
       id="path102"
       transform="matrix(0.06,0,0,0.06,-153.019,-262)"
       d="m 3880.9808,4936.9792 c 0,18.2292 -14.7787,33.0079 -33.0078,33.0079 -18.2292,0 -32.9427,-14.7787 -32.9427,-33.0079 0,-18.2291 14.7135,-33.0078 32.9427,-33.0078 18.2291,0 33.0078,14.7787 33.0078,33.0078 z m 0,0"
       style="fill:#000000;fill-opacity:1;fill-rule:evenodd;stroke:#000000;stroke-width:2;stroke-linecap:round;stroke-linejoin:round;stroke-miterlimit:10;stroke-opacity:1"
       inkscape:connector-curvature="0" />
    <path
       id="path104"
       transform="matrix(0.06,0,0,0.06,-153.019,-262)"
       d="m 3869.0016,4936.9792 c 0,11.5886 -9.375,21.0287 -21.0286,21.0287 -11.5886,0 -20.9636,-9.4401 -20.9636,-21.0287 0,-11.5885 9.375,-20.9635 20.9636,-20.9635 11.6536,0 21.0286,9.375 21.0286,20.9635 z m 0,0"
       style="fill:#ffffff;fill-opacity:1;fill-rule:evenodd;stroke:#000000;stroke-width:1;stroke-linecap:square;stroke-linejoin:bevel;stroke-miterlimit:10;stroke-opacity:1"
       inkscape:connector-curvature="0" />
    <path
       id="path106"
       transform="matrix(0.06,0,0,0.06,-153.019,-262)"
       d="m 3760.9938,5296.0287 c 0,18.2292 -14.7786,32.9427 -33.0078,32.9427 -18.2292,0 -33.0078,-14.7135 -33.0078,-32.9427 0,-18.2291 14.7786,-33.0078 33.0078,-33.0078 18.2292,0 33.0078,14.7787 33.0078,33.0078 z m 0,0"
       style="fill:#000000;fill-opacity:1;fill-rule:evenodd;stroke:#000000;stroke-width:2;stroke-linecap:round;stroke-linejoin:round;stroke-miterlimit:10;stroke-opacity:1"
       inkscape:connector-curvature="0" />
    <path
       id="path108"
       transform="matrix(0.06,0,0,0.06,-153.019,-262)"
       d="m 3749.0146,5296.0287 c 0,11.5886 -9.4401,20.9636 -21.0286,20.9636 -11.5885,0 -20.9635,-9.375 -20.9635,-20.9636 0,-11.6536 9.375,-21.0286 20.9635,-21.0286 11.5885,0 21.0286,9.375 21.0286,21.0286 z m 0,0"
       style="fill:#ffffff;fill-opacity:1;fill-rule:evenodd;stroke:#000000;stroke-width:1;stroke-linecap:square;stroke-linejoin:bevel;stroke-miterlimit:10;stroke-opacity:1"
       inkscape:connector-curvature="0" />
    <path
       id="path110"
       transform="matrix(0.06,0,0,0.06,-153.019,-262)"
       d="m 3760.9938,4936.9792 c 0,18.2292 -14.7786,33.0079 -33.0078,33.0079 -18.2292,0 -33.0078,-14.7787 -33.0078,-33.0079 0,-18.2291 14.7786,-33.0078 33.0078,-33.0078 18.2292,0 33.0078,14.7787 33.0078,33.0078 z m 0,0"
       style="fill:#000000;fill-opacity:1;fill-rule:evenodd;stroke:#000000;stroke-width:2;stroke-linecap:round;stroke-linejoin:round;stroke-miterlimit:10;stroke-opacity:1"
       inkscape:connector-curvature="0" />
    <path
       id="path112"
       transform="matrix(0.06,0,0,0.06,-153.019,-262)"
       d="m 3749.0146,4936.9792 c 0,11.5886 -9.4401,21.0287 -21.0286,21.0287 -11.5885,0 -20.9635,-9.4401 -20.9635,-21.0287 0,-11.5885 9.375,-20.9635 20.9635,-20.9635 11.5885,0 21.0286,9.375 21.0286,20.9635 z m 0,0"
       style="fill:#ffffff;fill-opacity:1;fill-rule:evenodd;stroke:#000000;stroke-width:1;stroke-linecap:square;stroke-linejoin:bevel;stroke-miterlimit:10;stroke-opacity:1"
       inkscape:connector-curvature="0" />
    <path
       id="path114"
       transform="matrix(0.06,0,0,0.06,-153.019,-262)"
       d="m 3161.9704,5296.0287 c 0,18.2292 -14.7136,32.9427 -32.9427,32.9427 -18.2292,0 -33.0079,-14.7135 -33.0079,-32.9427 0,-18.2291 14.7787,-33.0078 33.0079,-33.0078 18.2291,0 32.9427,14.7787 32.9427,33.0078 z m 0,0"
       style="fill:#000000;fill-opacity:1;fill-rule:evenodd;stroke:#000000;stroke-width:2;stroke-linecap:round;stroke-linejoin:round;stroke-miterlimit:10;stroke-opacity:1"
       inkscape:connector-curvature="0" />
    <path
       id="path116"
       transform="matrix(0.06,0,0,0.06,-153.019,-262)"
       d="m 3149.9912,5296.0287 c 0,11.5886 -9.375,20.9636 -20.9635,20.9636 -11.6537,0 -21.0287,-9.375 -21.0287,-20.9636 0,-11.6536 9.375,-21.0286 21.0287,-21.0286 11.5885,0 20.9635,9.375 20.9635,21.0286 z m 0,0"
       style="fill:#ffffff;fill-opacity:1;fill-rule:evenodd;stroke:#000000;stroke-width:1;stroke-linecap:square;stroke-linejoin:bevel;stroke-miterlimit:10;stroke-opacity:1"
       inkscape:connector-curvature="0" />
    <path
       id="path118"
       transform="matrix(0.06,0,0,0.06,-153.019,-262)"
       d="m 3161.9704,4936.9792 c 0,18.2292 -14.7136,33.0079 -32.9427,33.0079 -18.2292,0 -33.0079,-14.7787 -33.0079,-33.0079 0,-18.2291 14.7787,-33.0078 33.0079,-33.0078 18.2291,0 32.9427,14.7787 32.9427,33.0078 z m 0,0"
       style="fill:#000000;fill-opacity:1;fill-rule:evenodd;stroke:#000000;stroke-width:2;stroke-linecap:round;stroke-linejoin:round;stroke-miterlimit:10;stroke-opacity:1"
       inkscape:connector-curvature="0" />
    <path
       id="path120"
       transform="matrix(0.06,0,0,0.06,-153.019,-262)"
       d="m 3149.9912,4936.9792 c 0,11.5886 -9.375,21.0287 -20.9635,21.0287 -11.6537,0 -21.0287,-9.4401 -21.0287,-21.0287 0,-11.5885 9.375,-20.9635 21.0287,-20.9635 11.5885,0 20.9635,9.375 20.9635,20.9635 z m 0,0"
       style="fill:#ffffff;fill-opacity:1;fill-rule:evenodd;stroke:#000000;stroke-width:1;stroke-linecap:square;stroke-linejoin:bevel;stroke-miterlimit:10;stroke-opacity:1"
       inkscape:connector-curvature="0" />
    <path
       id="path122"
       transform="matrix(0.06,0,0,0.06,-153.019,-262)"
       d="m 2930.9808,4816.9923 c 0,23.1771 -18.8151,41.9922 -41.9922,41.9922 -23.1771,0 -41.9922,-18.8151 -41.9922,-41.9922 0,-23.1771 18.8151,-41.9922 41.9922,-41.9922 23.1771,0 41.9922,18.8151 41.9922,41.9922 z m 0,0"
       style="fill:#000000;fill-opacity:1;fill-rule:evenodd;stroke:#000000;stroke-width:2;stroke-linecap:round;stroke-linejoin:round;stroke-miterlimit:10;stroke-opacity:1"
       inkscape:connector-curvature="0" />
    <path
       id="path124"
       transform="matrix(0.06,0,0,0.06,-153.019,-262)"
       d="m 2910.0172,4816.9923 c 0,11.5885 -9.4401,21.0286 -21.0286,21.0286 -11.5886,0 -20.9636,-9.4401 -20.9636,-21.0286 0,-11.5886 9.375,-20.9636 20.9636,-20.9636 11.5885,0 21.0286,9.375 21.0286,20.9636 z m 0,0"
       style="fill:#ffffff;fill-opacity:1;fill-rule:evenodd;stroke:#000000;stroke-width:1;stroke-linecap:square;stroke-linejoin:bevel;stroke-miterlimit:10;stroke-opacity:1"
       inkscape:connector-curvature="0" />
    <path
       id="path126"
       transform="matrix(0.06,0,0,0.06,-153.019,-262)"
       d="m 2811.9704,4577.0183 c 0,23.1771 -18.75,41.9922 -41.9922,41.9922 -23.1771,0 -41.9922,-18.8151 -41.9922,-41.9922 0,-23.2422 18.8151,-41.9922 41.9922,-41.9922 23.2422,0 41.9922,18.75 41.9922,41.9922 z m 0,0"
       style="fill:#000000;fill-opacity:1;fill-rule:evenodd;stroke:#000000;stroke-width:2;stroke-linecap:round;stroke-linejoin:round;stroke-miterlimit:10;stroke-opacity:1"
       inkscape:connector-curvature="0" />
    <path
       id="path128"
       transform="matrix(0.06,0,0,0.06,-153.019,-262)"
       d="m 2791.0068,4577.0183 c 0,11.5885 -9.4401,20.9635 -21.0286,20.9635 -11.5886,0 -20.9636,-9.375 -20.9636,-20.9635 0,-11.5885 9.375,-21.0286 20.9636,-21.0286 11.5885,0 21.0286,9.4401 21.0286,21.0286 z m 0,0"
       style="fill:#ffffff;fill-opacity:1;fill-rule:evenodd;stroke:#000000;stroke-width:1;stroke-linecap:square;stroke-linejoin:bevel;stroke-miterlimit:10;stroke-opacity:1"
       inkscape:connector-curvature="0" />
    <path
       id="path130"
       transform="matrix(0.06,0,0,0.06,-153.019,-262)"
       d="m 3050.9678,4577.0183 c 0,23.1771 -18.75,41.9922 -41.9922,41.9922 -23.1771,0 -41.9922,-18.8151 -41.9922,-41.9922 0,-23.2422 18.8151,-41.9922 41.9922,-41.9922 23.2422,0 41.9922,18.75 41.9922,41.9922 z m 0,0"
       style="fill:#000000;fill-opacity:1;fill-rule:evenodd;stroke:#000000;stroke-width:2;stroke-linecap:round;stroke-linejoin:round;stroke-miterlimit:10;stroke-opacity:1"
       inkscape:connector-curvature="0" />
    <path
       id="path132"
       transform="matrix(0.06,0,0,0.06,-153.019,-262)"
       d="m 3030.0042,4577.0183 c 0,11.5885 -9.375,20.9635 -21.0286,20.9635 -11.5886,0 -20.9636,-9.375 -20.9636,-20.9635 0,-11.5885 9.375,-21.0286 20.9636,-21.0286 11.6536,0 21.0286,9.4401 21.0286,21.0286 z m 0,0"
       style="fill:#ffffff;fill-opacity:1;fill-rule:evenodd;stroke:#000000;stroke-width:1;stroke-linecap:square;stroke-linejoin:bevel;stroke-miterlimit:10;stroke-opacity:1"
       inkscape:connector-curvature="0" />
    <path
       id="path134"
       transform="matrix(0.06,0,0,0.06,-153.019,-262)"
       d="m 3650.9678,4816.9923 c 0,23.1771 -18.75,41.9922 -41.9922,41.9922 -23.1771,0 -41.9922,-18.8151 -41.9922,-41.9922 0,-23.1771 18.8151,-41.9922 41.9922,-41.9922 23.2422,0 41.9922,18.8151 41.9922,41.9922 z m 0,0"
       style="fill:#000000;fill-opacity:1;fill-rule:evenodd;stroke:#000000;stroke-width:2;stroke-linecap:round;stroke-linejoin:round;stroke-miterlimit:10;stroke-opacity:1"
       inkscape:connector-curvature="0" />
    <path
       id="path136"
       transform="matrix(0.06,0,0,0.06,-153.019,-262)"
       d="m 3630.0042,4816.9923 c 0,11.5885 -9.375,21.0286 -21.0286,21.0286 -11.5886,0 -20.9636,-9.4401 -20.9636,-21.0286 0,-11.5886 9.375,-20.9636 20.9636,-20.9636 11.6536,0 21.0286,9.375 21.0286,20.9636 z m 0,0"
       style="fill:#ffffff;fill-opacity:1;fill-rule:evenodd;stroke:#000000;stroke-width:1;stroke-linecap:square;stroke-linejoin:bevel;stroke-miterlimit:10;stroke-opacity:1"
       inkscape:connector-curvature="0" />
    <path
       id="path138"
       transform="matrix(0.06,0,0,0.06,-153.019,-262)"
       d="m 3650.9678,4577.0183 c 0,23.1771 -18.75,41.9922 -41.9922,41.9922 -23.1771,0 -41.9922,-18.8151 -41.9922,-41.9922 0,-23.2422 18.8151,-41.9922 41.9922,-41.9922 23.2422,0 41.9922,18.75 41.9922,41.9922 z m 0,0"
       style="fill:#000000;fill-opacity:1;fill-rule:evenodd;stroke:#000000;stroke-width:2;stroke-linecap:round;stroke-linejoin:round;stroke-miterlimit:10;stroke-opacity:1"
       inkscape:connector-curvature="0" />
    <path
       id="path140"
       transform="matrix(0.06,0,0,0.06,-153.019,-262)"
       d="m 3630.0042,4577.0183 c 0,11.5885 -9.375,20.9635 -21.0286,20.9635 -11.5886,0 -20.9636,-9.375 -20.9636,-20.9635 0,-11.5885 9.375,-21.0286 20.9636,-21.0286 11.6536,0 21.0286,9.4401 21.0286,21.0286 z m 0,0"
       style="fill:#ffffff;fill-opacity:1;fill-rule:evenodd;stroke:#000000;stroke-width:1;stroke-linecap:square;stroke-linejoin:bevel;stroke-miterlimit:10;stroke-opacity:1"
       inkscape:connector-curvature="0" />
    <path
       id="path142"
       transform="matrix(0.06,0,0,0.06,-153.019,-262)"
       d="m 3650.9678,4697.0053 c 0,23.1771 -18.75,41.9922 -41.9922,41.9922 -23.1771,0 -41.9922,-18.8151 -41.9922,-41.9922 0,-23.1771 18.8151,-41.9922 41.9922,-41.9922 23.2422,0 41.9922,18.8151 41.9922,41.9922 z m 0,0"
       style="fill:#000000;fill-opacity:1;fill-rule:evenodd;stroke:#000000;stroke-width:2;stroke-linecap:round;stroke-linejoin:round;stroke-miterlimit:10;stroke-opacity:1"
       inkscape:connector-curvature="0" />
    <path
       id="path144"
       transform="matrix(0.06,0,0,0.06,-153.019,-262)"
       d="m 3630.0042,4697.0053 c 0,11.5885 -9.375,20.9635 -21.0286,20.9635 -11.5886,0 -20.9636,-9.375 -20.9636,-20.9635 0,-11.5886 9.375,-21.0287 20.9636,-21.0287 11.6536,0 21.0286,9.4401 21.0286,21.0287 z m 0,0"
       style="fill:#ffffff;fill-opacity:1;fill-rule:evenodd;stroke:#000000;stroke-width:1;stroke-linecap:square;stroke-linejoin:bevel;stroke-miterlimit:10;stroke-opacity:1"
       inkscape:connector-curvature="0" />
    <path
       id="path146"
       transform="matrix(0.06,0,0,0.06,-153.019,-262)"
       d="m 3291.0068,4816.9923 c 0,23.1771 -18.8151,41.9922 -41.9922,41.9922 -23.2421,0 -41.9922,-18.8151 -41.9922,-41.9922 0,-23.1771 18.7501,-41.9922 41.9922,-41.9922 23.1771,0 41.9922,18.8151 41.9922,41.9922 z m 0,0"
       style="fill:#000000;fill-opacity:1;fill-rule:evenodd;stroke:#000000;stroke-width:2;stroke-linecap:round;stroke-linejoin:round;stroke-miterlimit:10;stroke-opacity:1"
       inkscape:connector-curvature="0" />
    <path
       id="path148"
       transform="matrix(0.06,0,0,0.06,-153.019,-262)"
       d="m 3269.9782,4816.9923 c 0,11.5885 -9.375,21.0286 -20.9636,21.0286 -11.5885,0 -21.0286,-9.4401 -21.0286,-21.0286 0,-11.5886 9.4401,-20.9636 21.0286,-20.9636 11.5886,0 20.9636,9.375 20.9636,20.9636 z m 0,0"
       style="fill:#ffffff;fill-opacity:1;fill-rule:evenodd;stroke:#000000;stroke-width:1;stroke-linecap:square;stroke-linejoin:bevel;stroke-miterlimit:10;stroke-opacity:1"
       inkscape:connector-curvature="0" />
    <path
       id="path150"
       transform="matrix(0.06,0,0,0.06,-153.019,-262)"
       d="m 3291.0068,4577.0183 c 0,23.1771 -18.8151,41.9922 -41.9922,41.9922 -23.2421,0 -41.9922,-18.8151 -41.9922,-41.9922 0,-23.2422 18.7501,-41.9922 41.9922,-41.9922 23.1771,0 41.9922,18.75 41.9922,41.9922 z m 0,0"
       style="fill:#000000;fill-opacity:1;fill-rule:evenodd;stroke:#000000;stroke-width:2;stroke-linecap:round;stroke-linejoin:round;stroke-miterlimit:10;stroke-opacity:1"
       inkscape:connector-curvature="0" />
    <path
       id="path152"
       transform="matrix(0.06,0,0,0.06,-153.019,-262)"
       d="m 3269.9782,4577.0183 c 0,11.5885 -9.375,20.9635 -20.9636,20.9635 -11.5885,0 -21.0286,-9.375 -21.0286,-20.9635 0,-11.5885 9.4401,-21.0286 21.0286,-21.0286 11.5886,0 20.9636,9.4401 20.9636,21.0286 z m 0,0"
       style="fill:#ffffff;fill-opacity:1;fill-rule:evenodd;stroke:#000000;stroke-width:1;stroke-linecap:square;stroke-linejoin:bevel;stroke-miterlimit:10;stroke-opacity:1"
       inkscape:connector-curvature="0" />
    <path
       id="path154"
       transform="matrix(0.06,0,0,0.06,-153.019,-262)"
       d="m 3291.0068,4697.0053 c 0,23.1771 -18.8151,41.9922 -41.9922,41.9922 -23.2421,0 -41.9922,-18.8151 -41.9922,-41.9922 0,-23.1771 18.7501,-41.9922 41.9922,-41.9922 23.1771,0 41.9922,18.8151 41.9922,41.9922 z m 0,0"
       style="fill:#000000;fill-opacity:1;fill-rule:evenodd;stroke:#000000;stroke-width:2;stroke-linecap:round;stroke-linejoin:round;stroke-miterlimit:10;stroke-opacity:1"
       inkscape:connector-curvature="0" />
    <path
       id="path156"
       transform="matrix(0.06,0,0,0.06,-153.019,-262)"
       d="m 3269.9782,4697.0053 c 0,11.5885 -9.375,20.9635 -20.9636,20.9635 -11.5885,0 -21.0286,-9.375 -21.0286,-20.9635 0,-11.5886 9.4401,-21.0287 21.0286,-21.0287 11.5886,0 20.9636,9.4401 20.9636,21.0287 z m 0,0"
       style="fill:#ffffff;fill-opacity:1;fill-rule:evenodd;stroke:#000000;stroke-width:1;stroke-linecap:square;stroke-linejoin:bevel;stroke-miterlimit:10;stroke-opacity:1"
       inkscape:connector-curvature="0" />
    <path
       id="path158"
       transform="matrix(0.06,0,0,0.06,-153.019,-262)"
       d="M 3846.9964,5057.0313 V 4936.9792"
       style="fill:none;stroke:#000000;stroke-width:2;stroke-linecap:round;stroke-linejoin:round;stroke-miterlimit:10;stroke-opacity:1"
       inkscape:connector-curvature="0" />
    <g
       id="g162"
       clip-path="url(#clip1)"
       style="clip-rule:nonzero">
      <path
         id="path160"
         transform="matrix(0.06,0,0,0.06,-153.019,-262)"
         d="M 4086.9704,5416.0157 H 2649.0146"
         style="fill:none;stroke:#000000;stroke-width:2;stroke-linecap:round;stroke-linejoin:round;stroke-miterlimit:10;stroke-opacity:1"
         inkscape:connector-curvature="0" />
    </g>
    <g
       id="g166"
       clip-path="url(#clip2)"
       style="clip-rule:nonzero">
      <path
         id="path164"
         transform="matrix(0.06,0,0,0.06,-153.019,-262)"
         d="M 2649.0146,5416.0157 V 4458.0079"
         style="fill:none;stroke:#000000;stroke-width:2;stroke-linecap:round;stroke-linejoin:round;stroke-miterlimit:10;stroke-opacity:1"
         inkscape:connector-curvature="0" />
    </g>
    <g
       id="g170"
       clip-path="url(#clip3)"
       style="clip-rule:nonzero">
      <path
         id="path168"
         transform="matrix(0.06,0,0,0.06,-153.019,-262)"
         d="M 2649.0146,4458.0079 H 4086.9704"
         style="fill:none;stroke:#000000;stroke-width:2;stroke-linecap:round;stroke-linejoin:round;stroke-miterlimit:10;stroke-opacity:1"
         inkscape:connector-curvature="0" />
    </g>
    <g
       id="g174"
       clip-path="url(#clip4)"
       style="clip-rule:nonzero">
      <path
         id="path172"
         transform="matrix(0.06,0,0,0.06,-153.019,-262)"
         d="m 4086.9704,4458.0079 v 958.0078"
         style="fill:none;stroke:#000000;stroke-width:2;stroke-linecap:round;stroke-linejoin:round;stroke-miterlimit:10;stroke-opacity:1"
         inkscape:connector-curvature="0" />
    </g>
  </g>
</svg>
