<svg xmlns="http://www.w3.org/2000/svg" xmlns:xlink="http://www.w3.org/1999/xlink" width="595pt" height="560" viewBox="0 0 595 420"><defs><symbol overflow="visible" id="a"><path d="M.625 1.219V0h.203v1.703H.703C.68 1.641.66 1.586.641 1.547a.239.239 0 0 0-.079-.094.53.53 0 0 0-.125-.062 1.87 1.87 0 0 0-.187-.032v-.14zm0 0"/></symbol><symbol overflow="visible" id="b"><path d="M.656 1.703a.538.538 0 0 1-.219-.047.525.525 0 0 1-.171-.14.85.85 0 0 1-.125-.282A2.094 2.094 0 0 1 .109.828C.11.535.156.316.25.172a.485.485 0 0 1 .406-.234.501.501 0 0 1 .422.234c.094.144.14.36.14.64 0 .165-.015.305-.046.422a.62.62 0 0 1-.125.282.404.404 0 0 1-.172.14.487.487 0 0 1-.219.047zm0-.187c.227 0 .344-.23.344-.688C1 .586.969.41.906.297.852.18.77.125.656.125.437.125.32.359.312.828c0 .227.024.399.079.516.062.113.148.172.265.172zm0 0"/></symbol><symbol overflow="visible" id="c"><path d="M1.156 0v1.266H.953v-.72A.48.48 0 0 0 .922.376a.33.33 0 0 0-.063-.14A.306.306 0 0 0 .75.14.535.535 0 0 0 .61.125a.279.279 0 0 0-.188.063C.379.227.359.288.359.374v.89H.156V.282c0-.054.008-.101.032-.14A.371.371 0 0 1 .266.03.237.237 0 0 1 .39-.03.461.461 0 0 1 .78 0c.04.02.078.04.11.063a.906.906 0 0 1 .093.109V0zm0 0"/></symbol><symbol overflow="visible" id="d"><path d="M.438.797h.843V1H.438v.563h.953v.187H.219V0h.218zm0 0"/></symbol><symbol overflow="visible" id="o"><path d="M1.594 1.203c-.032.195-.106.344-.219.438a.698.698 0 0 1-.453.14.847.847 0 0 1-.328-.062.54.54 0 0 1-.235-.157.745.745 0 0 1-.187-.312A1.123 1.123 0 0 1 .109.86C.11.71.13.577.172.452A.891.891 0 0 1 .375.156.505.505 0 0 1 .594 0a.796.796 0 0 1 .312-.063c.426 0 .664.235.719.704h-.234a.358.358 0 0 0-.032-.157.401.401 0 0 0-.046-.109.342.342 0 0 0-.157-.188.634.634 0 0 0-.25-.046.57.57 0 0 0-.234.047.476.476 0 0 0-.188.14.953.953 0 0 0-.109.219 1.283 1.283 0 0 0-.031.312c0 .114.008.211.031.297.02.094.055.172.11.235.05.062.109.109.171.14a.86.86 0 0 0 .235.063c.07-.012.132-.028.187-.047a.313.313 0 0 0 .156-.078.313.313 0 0 0 .079-.094.713.713 0 0 0 .046-.172zm0 0"/></symbol><symbol overflow="visible" id="p"><path d="M1.219.203H.312c.008.04.02.07.032.094A.264.264 0 0 0 .39.39c.03.03.062.054.093.078C.524.5.57.53.625.563l.25.125a.79.79 0 0 1 .266.218.523.523 0 0 1 .093.297c0 .07-.015.14-.046.203-.032.063-.07.117-.11.172a.69.69 0 0 1-.39.125.68.68 0 0 1-.297-.062.352.352 0 0 1-.172-.157.617.617 0 0 1-.078-.14.476.476 0 0 1-.016-.125v-.11h.203c.008.063.016.11.016.141.008.04.023.078.047.11.02.05.054.085.109.109a.337.337 0 0 0 .313.016.258.258 0 0 0 .109-.063.174.174 0 0 0 .062-.094.31.31 0 0 0 .032-.125c0-.137-.079-.25-.235-.344L.562.734A1.87 1.87 0 0 1 .329.578.601.601 0 0 1 .11.234 2.309 2.309 0 0 1 .08 0h1.14zm0 0"/></symbol><symbol overflow="visible" id="e"><path d="M1.063.547V0h.28v.547h.345v.265h-.344v1.485h-.219L.094.844V.547zm0 .265h-.72l.72 1zm0 0"/></symbol><symbol overflow="visible" id="f"><path d="M1.688 2.297H.155v-.281h1.235c-.137-.2-.258-.383-.36-.547a6.407 6.407 0 0 1-.25-.485A3.087 3.087 0 0 1 .594.516 4.086 4.086 0 0 1 .454 0H.75a4.533 4.533 0 0 0 .313 1.047c.082.164.171.332.265.5.102.164.223.332.36.5zm0 0"/></symbol><symbol overflow="visible" id="g"><path d="M.453 2.36H.187V0h.266v.656L.72.922 1.297 0h.328L.937 1.11l.579.577h-.344L.453.97zm0 0"/></symbol><symbol overflow="visible" id="h"><path d="M1.547 2.297H.359l-.171-1.25h.265a.53.53 0 0 0 .094.094c.031.03.062.05.094.062.03.02.062.031.093.031.04.008.082.02.125.032.082-.012.149-.028.204-.047a.367.367 0 0 0 .156-.11.505.505 0 0 0 .11-.187 1.42 1.42 0 0 0 .046-.219 1.325 1.325 0 0 0-.047-.219.597.597 0 0 0-.14-.203C1.125.22 1.016.18.859.171a.436.436 0 0 0-.296.095.686.686 0 0 0-.172.296H.109A.577.577 0 0 1 .141.438C.148.407.16.367.17.329A.605.605 0 0 1 .25.203.51.51 0 0 1 .5 0a.907.907 0 0 1 .375-.078.774.774 0 0 1 .563.234c.07.07.125.156.156.25.039.102.062.219.062.344 0 .113-.023.21-.062.297a.588.588 0 0 1-.14.234.702.702 0 0 1-.532.235.57.57 0 0 1-.235-.047A1.05 1.05 0 0 1 .5 1.375l.078.64h.969zm0 0"/></symbol><symbol overflow="visible" id="i"><path d="M.625.344H.281V0h.344zm0 0"/></symbol><symbol overflow="visible" id="j"><path d="M.844 1.64V0h.281v2.297H.937a.817.817 0 0 0-.078-.219.434.434 0 0 0-.109-.125.541.541 0 0 0-.172-.078 2.396 2.396 0 0 0-.25-.031V1.64zm0 0"/></symbol><symbol overflow="visible" id="q"><path d="M.61 1.016h.765c.133 0 .234-.04.297-.11.062-.062.094-.168.094-.312V.39c0-.075.004-.149.015-.22A.586.586 0 0 1 1.828 0h.375v.078a.146.146 0 0 0-.078.047.577.577 0 0 0-.078.219v.203c0 .094-.008.172-.016.234a.713.713 0 0 1-.047.172.34.34 0 0 1-.093.125.648.648 0 0 1-.157.078.603.603 0 0 1 .375.578c0 .196-.062.348-.187.454-.125.113-.305.171-.531.171H.297V0h.312zm0 .265v.813h.718a.6.6 0 0 0 .203-.031.38.38 0 0 0 .14-.063.403.403 0 0 0 .126-.313c0-.136-.043-.242-.125-.312-.074-.063-.188-.094-.344-.094zm0 0"/></symbol><symbol overflow="visible" id="r"><path d="M1.64.281H.423c.008.04.02.082.031.125a.43.43 0 0 0 .078.11c.04.039.082.078.125.109.051.04.114.082.188.125l.328.172c.156.094.273.195.36.312a.648.648 0 0 1 .062.657.566.566 0 0 1-.157.218.588.588 0 0 1-.234.141.942.942 0 0 1-.672-.031.702.702 0 0 1-.344-.406C.176 1.75.165 1.69.158 1.64V1.5h.296c0 .07.004.133.016.188.008.05.023.097.047.14a.375.375 0 0 0 .156.156.477.477 0 0 0 .406.032.476.476 0 0 0 .156-.094c.04-.043.07-.09.094-.14a.497.497 0 0 0 .031-.173c0-.18-.105-.328-.312-.453L.75 1A2.553 2.553 0 0 1 .453.781.909.909 0 0 1 .25.578a.83.83 0 0 1-.094-.25A1.837 1.837 0 0 1 .11 0h1.532zm0 0"/></symbol><symbol overflow="visible" id="s"><path d="M.719 1.047H.75l.125.016c.313-.012.469-.153.469-.422a.464.464 0 0 0-.125-.344.554.554 0 0 0-.344-.125C.719.172.598.21.515.297.442.379.399.504.392.672H.109c0-.094.004-.18.016-.25A.487.487 0 0 1 .203.266.658.658 0 0 1 .453 0 .991.991 0 0 1 .86-.078a.81.81 0 0 1 .313.062.599.599 0 0 1 .25.141c.07.063.125.133.156.219.04.094.063.191.063.297a.57.57 0 0 1-.094.343.542.542 0 0 1-.297.204c.207.082.313.238.313.468a.687.687 0 0 1-.047.266.5.5 0 0 1-.141.203.586.586 0 0 1-.219.125.817.817 0 0 1-.281.047c-.242 0-.422-.063-.547-.188-.117-.125-.172-.312-.172-.562h.281c0 .07.004.129.016.172.008.039.02.082.031.125.032.062.079.11.141.14.07.04.156.063.25.063.125 0 .223-.04.297-.11a.396.396 0 0 0 .11-.28.381.381 0 0 0-.048-.204.234.234 0 0 0-.14-.11c-.024-.011-.047-.023-.078-.03-.024 0-.055-.008-.094-.016H.719zm0 0"/></symbol><symbol overflow="visible" id="t"><path d="M1.14 2.094h.782v.265H.062v-.265h.782V0h.297zm0 0"/></symbol><symbol overflow="visible" id="u"><path d="M.594 1h.75c.082 0 .16.008.234.031a.634.634 0 0 1 .36.344.68.68 0 0 1 .062.297c0 .219-.063.383-.188.5-.125.125-.308.187-.546.187h-.97V0h.298zm0 .266v.828h.625c.144 0 .254-.04.328-.11a.46.46 0 0 0 .14-.312.43.43 0 0 0-.14-.297c-.074-.074-.184-.11-.328-.11zm0 0"/></symbol><symbol overflow="visible" id="v"><path d="M2.406 0L3 2.36h-.328L2.234.437l-.53 1.921h-.329L.844.438.406 2.359H.078L.672 0H1l.531 1.938L2.078 0zm0 0"/></symbol><symbol overflow="visible" id="y"><path d="M1.266 2.39c-.18 0-.34-.03-.485-.093a.95.95 0 0 1-.36-.25 1.082 1.082 0 0 1-.218-.39 1.43 1.43 0 0 1-.078-.5c0-.188.023-.36.078-.516C.253.492.328.363.422.25.523.145.645.062.782 0c.144-.05.304-.078.484-.078.132 0 .265.023.39.062.125.04.239.102.344.188.063.05.113.113.156.187.051.07.094.149.125.235.04.082.07.172.094.265a1.379 1.379 0 0 1-.063.797 1.054 1.054 0 0 1-.234.39.843.843 0 0 1-.36.25c-.136.063-.288.095-.452.095zm0-.265a.68.68 0 0 0 .328-.078.748.748 0 0 0 .265-.188.681.681 0 0 0 .172-.312 1.298 1.298 0 0 0 0-.797.957.957 0 0 0-.172-.297.845.845 0 0 0-.265-.203.78.78 0 0 0-.328-.063.883.883 0 0 0-.344.063.765.765 0 0 0-.266.203.825.825 0 0 0-.172.297 1.23 1.23 0 0 0-.062.406c0 .145.02.274.062.39.04.126.098.227.172.313a.799.799 0 0 0 .61.266zm0 0"/></symbol><symbol overflow="visible" id="z"><path d="M1.781 2.36V.702a.476.476 0 0 0-.047-.219.525.525 0 0 0-.156-.203C1.504.22 1.368.187 1.172.187A.676.676 0 0 0 .75.314a.386.386 0 0 0-.14.156.681.681 0 0 0-.032.234V2.36H.281V.703C.281.578.297.47.328.375A.734.734 0 0 1 .5.125a.838.838 0 0 1 .297-.14 1.143 1.143 0 0 1 .75 0 .732.732 0 0 1 .281.14c.082.07.145.156.188.25.039.094.066.203.078.328V2.36zm0 0"/></symbol><symbol overflow="visible" id="k"><path d="M0 .25v1.063c0 .113-.016.21-.047.296a.528.528 0 0 1-.156.22.634.634 0 0 1-.203.14.745.745 0 0 1-.266.047.525.525 0 0 1-.344-.11c-.093-.062-.171-.172-.234-.328a.46.46 0 0 1-.188.25A.68.68 0 0 1-2 1.86a.539.539 0 0 1-.188-.14.493.493 0 0 1-.124-.219.817.817 0 0 1-.047-.281V.25zm-1.344.313h-.75v.578a.6.6 0 0 0 .031.203c.012.05.028.097.047.14a.38.38 0 0 0 .297.125.48.48 0 0 0 .172-.03.31.31 0 0 0 .188-.235.997.997 0 0 0 .015-.203zm1.078 0h-.812v.734a.497.497 0 0 0 .11.312c.042.032.09.055.14.079.055.019.105.03.156.03a.48.48 0 0 0 .172-.03c.043-.024.086-.047.125-.079a.404.404 0 0 0 .094-.14.804.804 0 0 0 .015-.172zm0 0"/></symbol><symbol overflow="visible" id="l"><path d="M-1.625 2.14c-.258-.042-.453-.14-.578-.296-.125-.149-.188-.352-.188-.61 0-.156.028-.304.079-.437A.714.714 0 0 1-2.11.484c.125-.105.273-.187.437-.25.156-.054.328-.078.516-.078.199 0 .383.024.547.078.156.063.293.149.406.266.094.082.164.18.203.297.05.125.078.265.078.422 0 .57-.312.894-.937.968v-.312c.086-.012.156-.027.218-.047A.33.33 0 0 0-.5 1.766a.442.442 0 0 0 .234-.22.638.638 0 0 0 .079-.327A.732.732 0 0 0-.25.906a.83.83 0 0 0-.203-.25A1.016 1.016 0 0 0-.75.5a1.657 1.657 0 0 0-.406-.047c-.145 0-.274.016-.39.047-.126.04-.227.094-.313.156a.568.568 0 0 0-.204.219.847.847 0 0 0-.062.328c0 .094.016.176.047.25a.653.653 0 0 0 .094.203.69.69 0 0 0 .156.11c.055.03.121.05.203.062zm0 0"/></symbol><symbol overflow="visible" id="m"><path d="M-2.297 1.547V.359l1.25-.171v.265a.53.53 0 0 0-.094.094.262.262 0 0 0-.062.094.179.179 0 0 0-.031.093c-.008.04-.02.082-.032.125.012.082.028.149.047.204a.367.367 0 0 0 .11.156c.054.05.117.086.187.11.063.019.137.034.219.046.086-.012.156-.027.219-.047a.597.597 0 0 0 .203-.14c.062-.063.101-.172.11-.329A.436.436 0 0 0-.267.563.686.686 0 0 0-.562.39V.109c.054.008.093.02.125.032.03.007.07.02.109.03.043.02.086.048.125.079A.51.51 0 0 1 0 .5c.05.113.078.238.078.375a.774.774 0 0 1-.234.563.645.645 0 0 1-.25.156.961.961 0 0 1-.344.062.706.706 0 0 1-.297-.062.588.588 0 0 1-.234-.14.702.702 0 0 1-.235-.532.57.57 0 0 1 .047-.235A1.05 1.05 0 0 1-1.375.5l-.64.078v.969zm0 0"/></symbol><symbol overflow="visible" id="n"><path d="M-2.297 1.688V.155h.281v1.235c.2-.137.383-.258.547-.36.168-.093.328-.18.485-.25.148-.074.304-.136.468-.187.157-.055.329-.102.516-.14V.75a4.533 4.533 0 0 0-1.047.313c-.164.082-.332.171-.5.265a4.812 4.812 0 0 0-.5.36zm0 0"/></symbol><symbol overflow="visible" id="w"><path d="M1.438 1.578H.234v-.36h1.204zm0 0"/></symbol><symbol overflow="visible" id="x"><path d="M-1.078 2.14v-.828h-.828v-.28h.828V.202h.281v.828h.844v.282h-.844v.828zm0 0"/></symbol><symbol overflow="visible" id="A"><path d="M1.14 1.25H.189V.969h.953zm0 0"/></symbol><clipPath id="B"><path d="M253.898 179.762H255V239h-1.102zm0 0"/></clipPath><clipPath id="C"><path d="M253.898 237h87.243v2h-87.243zm0 0"/></clipPath><clipPath id="D"><path d="M340 179.762h1.14V239H340zm0 0"/></clipPath><clipPath id="E"><path d="M253.898 179.762h87.243V181h-87.243zm0 0"/></clipPath><clipPath id="F"><path d="M253.898 179.762h87.243V181h-87.243zm0 0"/></clipPath><clipPath id="G"><path d="M253.898 180h87.243v2h-87.243zm0 0"/></clipPath><clipPath id="H"><path d="M253.898 181h87.243v2h-87.243zm0 0"/></clipPath><clipPath id="I"><path d="M253.898 182h87.243v2h-87.243zm0 0"/></clipPath><clipPath id="J"><path d="M253.898 183H326v2h-72.102zm0 0"/></clipPath><clipPath id="K"><path d="M327 183h14.14v2H327zm0 0"/></clipPath><clipPath id="L"><path d="M253.898 184H268v2h-14.102zm0 0"/></clipPath><clipPath id="M"><path d="M328 184h13.14v2H328zm0 0"/></clipPath><clipPath id="N"><path d="M253.898 185H268v2h-14.102zm0 0"/></clipPath><clipPath id="O"><path d="M329 185h12.14v2H329zm0 0"/></clipPath><clipPath id="P"><path d="M253.898 186H267v1h-13.102zm0 0"/></clipPath><clipPath id="Q"><path d="M329 186h12.14v1H329zm0 0"/></clipPath><clipPath id="R"><path d="M253.898 186H267v2h-13.102zm0 0"/></clipPath><clipPath id="S"><path d="M326 186h15.14v2H326zm0 0"/></clipPath><clipPath id="T"><path d="M253.898 187H267v2h-13.102zm0 0"/></clipPath><clipPath id="U"><path d="M329 187h12.14v2H329zm0 0"/></clipPath><clipPath id="V"><path d="M253.898 188H267v2h-13.102zm0 0"/></clipPath><clipPath id="W"><path d="M329 188h12.14v2H329zm0 0"/></clipPath><clipPath id="X"><path d="M253.898 189H260v1h-6.102zm0 0"/></clipPath><clipPath id="Y"><path d="M330 189h11.14v1H330zm0 0"/></clipPath><clipPath id="Z"><path d="M253.898 189H259v2h-5.102zm0 0"/></clipPath><clipPath id="aa"><path d="M330 189h11.14v2H330zm0 0"/></clipPath><clipPath id="ab"><path d="M253.898 190H258v2h-4.102zm0 0"/></clipPath><clipPath id="ac"><path d="M331 190h10.14v2H331zm0 0"/></clipPath><clipPath id="ad"><path d="M253.898 191H257v2h-3.102zm0 0"/></clipPath><clipPath id="ae"><path d="M331 191h10.14v2H331zm0 0"/></clipPath><clipPath id="af"><path d="M253.898 192H257v2h-3.102zm0 0"/></clipPath><clipPath id="ag"><path d="M332 192h9.14v2H332zm0 0"/></clipPath><clipPath id="ah"><path d="M253.898 192H257v2h-3.102zm0 0"/></clipPath><clipPath id="ai"><path d="M332 192h9.14v2H332zm0 0"/></clipPath><clipPath id="aj"><path d="M253.898 193H257v2h-3.102zm0 0"/></clipPath><clipPath id="ak"><path d="M332 193h9.14v2H332zm0 0"/></clipPath><clipPath id="al"><path d="M253.898 194H257v2h-3.102zm0 0"/></clipPath><clipPath id="am"><path d="M332 194h9.14v2H332zm0 0"/></clipPath><clipPath id="an"><path d="M253.898 195H257v2h-3.102zm0 0"/></clipPath><clipPath id="ao"><path d="M332 195h9.14v2H332zm0 0"/></clipPath><clipPath id="ap"><path d="M253.898 196H257v1h-3.102zm0 0"/></clipPath><clipPath id="aq"><path d="M332 196h9.14v1H332zm0 0"/></clipPath><clipPath id="ar"><path d="M253.898 196H257v2h-3.102zm0 0"/></clipPath><clipPath id="as"><path d="M331 196h10.14v2H331zm0 0"/></clipPath><clipPath id="at"><path d="M253.898 197H257v2h-3.102zm0 0"/></clipPath><clipPath id="au"><path d="M331 197h10.14v2H331zm0 0"/></clipPath><clipPath id="av"><path d="M253.898 198H257v2h-3.102zm0 0"/></clipPath><clipPath id="aw"><path d="M330 198h11.14v2H330zm0 0"/></clipPath><clipPath id="ax"><path d="M253.898 199H257v2h-3.102zm0 0"/></clipPath><clipPath id="ay"><path d="M330 199h11.14v2H330zm0 0"/></clipPath><clipPath id="az"><path d="M253.898 199H257v2h-3.102zm0 0"/></clipPath><clipPath id="aA"><path d="M329 199h12.14v2H329zm0 0"/></clipPath><clipPath id="aB"><path d="M253.898 200H257v2h-3.102zm0 0"/></clipPath><clipPath id="aC"><path d="M329 200h12.14v2H329zm0 0"/></clipPath><clipPath id="aD"><path d="M253.898 201H257v2h-3.102zm0 0"/></clipPath><clipPath id="aE"><path d="M326 201h15.14v2H326zm0 0"/></clipPath><clipPath id="aF"><path d="M253.898 202H257v2h-3.102zm0 0"/></clipPath><clipPath id="aG"><path d="M329 202h12.14v2H329zm0 0"/></clipPath><clipPath id="aH"><path d="M253.898 203H257v1h-3.102zm0 0"/></clipPath><clipPath id="aI"><path d="M329 203h12.14v1H329zm0 0"/></clipPath><clipPath id="aJ"><path d="M253.898 203H257v2h-3.102zm0 0"/></clipPath><clipPath id="aK"><path d="M330 203h11.14v2H330zm0 0"/></clipPath><clipPath id="aL"><path d="M253.898 204H257v2h-3.102zm0 0"/></clipPath><clipPath id="aM"><path d="M331 204h10.14v2H331zm0 0"/></clipPath><clipPath id="aN"><path d="M253.898 205H257v2h-3.102zm0 0"/></clipPath><clipPath id="aO"><path d="M331 205h10.14v2H331zm0 0"/></clipPath><clipPath id="aP"><path d="M253.898 206H257v2h-3.102zm0 0"/></clipPath><clipPath id="aQ"><path d="M331 206h10.14v2H331zm0 0"/></clipPath><clipPath id="aR"><path d="M253.898 206H257v2h-3.102zm0 0"/></clipPath><clipPath id="aS"><path d="M332 206h9.14v2H332zm0 0"/></clipPath><clipPath id="aT"><path d="M253.898 207H257v2h-3.102zm0 0"/></clipPath><clipPath id="aU"><path d="M332 207h9.14v2H332zm0 0"/></clipPath><clipPath id="aV"><path d="M253.898 208H257v2h-3.102zm0 0"/></clipPath><clipPath id="aW"><path d="M332 208h9.14v2H332zm0 0"/></clipPath><clipPath id="aX"><path d="M253.898 209H257v2h-3.102zm0 0"/></clipPath><clipPath id="aY"><path d="M332 209h9.14v2H332zm0 0"/></clipPath><clipPath id="aZ"><path d="M253.898 209H257v2h-3.102zm0 0"/></clipPath><clipPath id="ba"><path d="M332 209h9.14v2H332zm0 0"/></clipPath><clipPath id="bb"><path d="M253.898 210H257v2h-3.102zm0 0"/></clipPath><clipPath id="bc"><path d="M332 210h9.14v2H332zm0 0"/></clipPath><clipPath id="bd"><path d="M253.898 211H257v2h-3.102zm0 0"/></clipPath><clipPath id="be"><path d="M331 211h10.14v2H331zm0 0"/></clipPath><clipPath id="bf"><path d="M253.898 212H257v2h-3.102zm0 0"/></clipPath><clipPath id="bg"><path d="M331 212h10.14v2H331zm0 0"/></clipPath><clipPath id="bh"><path d="M253.898 213H257v1h-3.102zm0 0"/></clipPath><clipPath id="bi"><path d="M332 213h9.14v1H332zm0 0"/></clipPath><clipPath id="bj"><path d="M253.898 213H257v2h-3.102zm0 0"/></clipPath><clipPath id="bk"><path d="M332 213h9.14v2H332zm0 0"/></clipPath><clipPath id="bl"><path d="M253.898 214H257v2h-3.102zm0 0"/></clipPath><clipPath id="bm"><path d="M332 214h9.14v2H332zm0 0"/></clipPath><clipPath id="bn"><path d="M253.898 215H257v2h-3.102zm0 0"/></clipPath><clipPath id="bo"><path d="M332 215h9.14v2H332zm0 0"/></clipPath><clipPath id="bp"><path d="M253.898 216H257v2h-3.102zm0 0"/></clipPath><clipPath id="bq"><path d="M332 216h9.14v2H332zm0 0"/></clipPath><clipPath id="br"><path d="M253.898 216H257v2h-3.102zm0 0"/></clipPath><clipPath id="bs"><path d="M332 216h9.14v2H332zm0 0"/></clipPath><clipPath id="bt"><path d="M253.898 217H257v2h-3.102zm0 0"/></clipPath><clipPath id="bu"><path d="M332 217h9.14v2H332zm0 0"/></clipPath><clipPath id="bv"><path d="M253.898 218H257v2h-3.102zm0 0"/></clipPath><clipPath id="bw"><path d="M332 218h9.14v2H332zm0 0"/></clipPath><clipPath id="bx"><path d="M253.898 219H257v2h-3.102zm0 0"/></clipPath><clipPath id="by"><path d="M331 219h10.14v2H331zm0 0"/></clipPath><clipPath id="bz"><path d="M253.898 219H257v2h-3.102zm0 0"/></clipPath><clipPath id="bA"><path d="M331 219h10.14v2H331zm0 0"/></clipPath><clipPath id="bB"><path d="M253.898 220H257v2h-3.102zm0 0"/></clipPath><clipPath id="bC"><path d="M330 220h11.14v2H330zm0 0"/></clipPath><clipPath id="bD"><path d="M253.898 221H257v2h-3.102zm0 0"/></clipPath><clipPath id="bE"><path d="M329 221h12.14v2H329zm0 0"/></clipPath><clipPath id="bF"><path d="M253.898 222H257v2h-3.102zm0 0"/></clipPath><clipPath id="bG"><path d="M327 222h14.14v2H327zm0 0"/></clipPath><clipPath id="bH"><path d="M253.898 223H257v2h-3.102zm0 0"/></clipPath><clipPath id="bI"><path d="M324 223h17.14v2H324zm0 0"/></clipPath><clipPath id="bJ"><path d="M253.898 223H257v2h-3.102zm0 0"/></clipPath><clipPath id="bK"><path d="M324 223h17.14v2H324zm0 0"/></clipPath><clipPath id="bL"><path d="M253.898 224H257v2h-3.102zm0 0"/></clipPath><clipPath id="bM"><path d="M324 224h17.14v2H324zm0 0"/></clipPath><clipPath id="bN"><path d="M253.898 225H257v2h-3.102zm0 0"/></clipPath><clipPath id="bO"><path d="M324 225h17.14v2H324zm0 0"/></clipPath><clipPath id="bP"><path d="M253.898 226H257v2h-3.102zm0 0"/></clipPath><clipPath id="bQ"><path d="M324 226h17.14v2H324zm0 0"/></clipPath><clipPath id="bR"><path d="M253.898 226H257v2h-3.102zm0 0"/></clipPath><clipPath id="bS"><path d="M335 226h6.14v2H335zm0 0"/></clipPath><clipPath id="bT"><path d="M253.898 227H257v2h-3.102zm0 0"/></clipPath><clipPath id="bU"><path d="M336 227h5.14v2H336zm0 0"/></clipPath><clipPath id="bV"><path d="M253.898 228H257v2h-3.102zm0 0"/></clipPath><clipPath id="bW"><path d="M336 228h5.14v2H336zm0 0"/></clipPath><clipPath id="bX"><path d="M253.898 229H257v2h-3.102zm0 0"/></clipPath><clipPath id="bY"><path d="M336 229h5.14v2H336zm0 0"/></clipPath><clipPath id="bZ"><path d="M253.898 230H257v1h-3.102zm0 0"/></clipPath><clipPath id="ca"><path d="M333 230h8.14v1H333zm0 0"/></clipPath><clipPath id="cb"><path d="M253.898 230H257v2h-3.102zm0 0"/></clipPath><clipPath id="cc"><path d="M336 230h5.14v2H336zm0 0"/></clipPath><clipPath id="cd"><path d="M253.898 231H257v2h-3.102zm0 0"/></clipPath><clipPath id="ce"><path d="M336 231h5.14v2H336zm0 0"/></clipPath><clipPath id="cf"><path d="M253.898 232H257v2h-3.102zm0 0"/></clipPath><clipPath id="cg"><path d="M336 232h5.14v2H336zm0 0"/></clipPath><clipPath id="ch"><path d="M253.898 233H257v2h-3.102zm0 0"/></clipPath><clipPath id="ci"><path d="M335 233h6.14v2H335zm0 0"/></clipPath><clipPath id="cj"><path d="M253.898 233H258v2h-4.102zm0 0"/></clipPath><clipPath id="ck"><path d="M334 233h7.14v2H334zm0 0"/></clipPath><clipPath id="cl"><path d="M253.898 234H259v2h-5.102zm0 0"/></clipPath><clipPath id="cm"><path d="M323 234h18.14v2H323zm0 0"/></clipPath><clipPath id="cn"><path d="M253.898 235H260v2h-6.102zm0 0"/></clipPath><clipPath id="co"><path d="M322 235h19.14v2H322zm0 0"/></clipPath><clipPath id="cp"><path d="M253.898 236H317v2h-63.102zm0 0"/></clipPath><clipPath id="cq"><path d="M321 236h20.14v2H321zm0 0"/></clipPath><clipPath id="cr"><path d="M253.898 236h87.243v2h-87.243zm0 0"/></clipPath></defs><use xlink:href="#a" x="288.584" y="201.37" fill="gray"/><use xlink:href="#b" x="289.904" y="201.37" fill="gray"/><use xlink:href="#c" x="291.224" y="201.37" fill="gray"/><use xlink:href="#d" x="292.544" y="201.37" fill="gray"/><use xlink:href="#a" x="293.966" y="207.78" fill="gray"/><use xlink:href="#b" x="295.286" y="207.78" fill="gray"/><use xlink:href="#c" x="296.606" y="207.78" fill="gray"/><use xlink:href="#d" x="297.926" y="207.78" fill="gray"/><use xlink:href="#e" x="262.878" y="190.592" fill="gray"/><use xlink:href="#f" x="264.678" y="190.592" fill="gray"/><use xlink:href="#g" x="266.478" y="190.592" fill="gray"/><use xlink:href="#h" x="269.166" y="190.592" fill="gray"/><use xlink:href="#i" x="270.966" y="190.592" fill="gray"/><use xlink:href="#j" x="271.866" y="190.592" fill="gray"/><use xlink:href="#g" x="273.666" y="190.592" fill="gray"/><use xlink:href="#e" x="306.007" y="190.592" fill="gray"/><use xlink:href="#f" x="307.807" y="190.592" fill="gray"/><use xlink:href="#g" x="309.607" y="190.592" fill="gray"/><use xlink:href="#h" x="333.684" y="236.572" fill="gray"/><use xlink:href="#g" x="335.484" y="236.572" fill="gray"/><use xlink:href="#k" x="286.669" y="218.426" fill="gray"/><use xlink:href="#l" x="286.669" y="220.586" fill="gray"/><use xlink:href="#m" x="286.669" y="222.926" fill="gray"/><use xlink:href="#m" x="286.669" y="224.726" fill="gray"/><use xlink:href="#n" x="286.669" y="226.526" fill="gray"/><use xlink:href="#k" x="308.233" y="218.426" fill="gray"/><use xlink:href="#l" x="308.233" y="220.586" fill="gray"/><use xlink:href="#m" x="308.233" y="222.926" fill="gray"/><use xlink:href="#m" x="308.233" y="224.726" fill="gray"/><use xlink:href="#n" x="308.233" y="226.526" fill="gray"/><use xlink:href="#o" x="279.054" y="213.348" fill="gray"/><use xlink:href="#a" x="280.794" y="213.348" fill="gray"/><use xlink:href="#o" x="305.835" y="195.803" fill="gray"/><use xlink:href="#p" x="307.575" y="195.803" fill="gray"/><use xlink:href="#q" x="263.957" y="203.649" fill="gray"/><use xlink:href="#j" x="266.297" y="203.649" fill="gray"/><use xlink:href="#q" x="271.145" y="203.649" fill="gray"/><use xlink:href="#r" x="273.485" y="203.649" fill="gray"/><use xlink:href="#q" x="307.086" y="203.649" fill="gray"/><use xlink:href="#s" x="309.426" y="203.649" fill="gray"/><use xlink:href="#q" x="329.369" y="209.272" fill="gray"/><use xlink:href="#e" x="331.709" y="209.272" fill="gray"/><use xlink:href="#t" x="278.397" y="222.266" fill="gray"/><use xlink:href="#j" x="280.377" y="222.266" fill="gray"/><use xlink:href="#t" x="299.961" y="222.266" fill="gray"/><use xlink:href="#r" x="301.941" y="222.266" fill="gray"/><path d="M290.379 209.04h-1.918M288.46 209.04v2.519M288.46 211.559h-1.081M287.379 211.559v-5.04M287.379 206.52h1.082M288.46 206.52v2.52M283.18 209.04h1.98M285.16 209.04v-2.52M285.16 206.52h1.078M286.238 206.52v5.039M286.238 211.559h-1.078M285.16 211.559v-2.52M297.578 201.84h1.922M299.5 201.84v-2.52M299.5 199.32h1.078M300.578 199.32v5.04M300.578 204.36H299.5M299.5 204.36v-2.52M304.781 201.84h-1.98M302.8 201.84v2.52M302.8 204.36h-1.081M301.719 204.36v-5.04M301.719 199.32h1.082M302.8 199.32v2.52" fill="none" stroke-width=".48" stroke-linecap="round" stroke-linejoin="round" stroke="gray" stroke-miterlimit="10"/><path d="M268.84 209.04v-6.118M268.84 187.5v6.121M275.98 209.04v-6.118M275.98 187.5v6.121M311.922 209.04v-6.118M311.922 187.5v6.121" fill="none" stroke-width=".7200000000000001" stroke-linecap="round" stroke-linejoin="round" stroke="gray" stroke-miterlimit="10"/><path d="M323.8 212.64h5.04M326.32 219.48v-1.44M316.602 234.18h5.039M331 234.18h5.04M315.52 227.7v5.402M337.121 233.102v-5.403M320.5 223.379a5.759 5.759 0 0 1 5.762-5.758 5.758 5.758 0 0 1 5.758 5.758 5.76 5.76 0 0 1-11.52 0zm0 0" fill="none" stroke-width=".48" stroke-linecap="round" stroke-linejoin="round" stroke="gray" stroke-miterlimit="10"/><path d="M322.66 223.379a3.6 3.6 0 1 1 7.199.003 3.6 3.6 0 0 1-7.199-.003zm0 0" fill="none" stroke-width=".48" stroke-linecap="round" stroke-linejoin="round" stroke="gray" stroke-miterlimit="10"/><path d="M320.922 232.02h-3.602v2.16h3.602zm0 0" fill="gray" stroke-width=".12" stroke-linecap="round" stroke-linejoin="round" stroke="gray" stroke-miterlimit="10"/><path d="M290.2 212.64h-.54M289.66 213.18v-.54M289.66 212.64h-.539M289.66 212.64v-.538M280.96 209.04a5.758 5.758 0 0 1 5.759-5.759 5.76 5.76 0 1 1-5.758 5.758zm0 0" fill="none" stroke-width=".48" stroke-linecap="round" stroke-linejoin="round" stroke="gray" stroke-miterlimit="10"/><path d="M286.059 206.762h-.72v4.558h.72zm0 0" fill="gray" stroke-width=".12" stroke-linecap="round" stroke-linejoin="round" stroke="gray" stroke-miterlimit="10"/><path d="M297.762 198.238h.539M298.3 197.7v.538M298.3 198.238h.54M298.3 198.238v.543M295.36 201.84a5.762 5.762 0 0 1 5.761-5.762 5.761 5.761 0 0 1 0 11.524 5.762 5.762 0 0 1-5.762-5.762zm0 0" fill="none" stroke-width=".48" stroke-linecap="round" stroke-linejoin="round" stroke="gray" stroke-miterlimit="10"/><path d="M302.621 199.559h-.723v4.562h.723zm0 0" fill="gray" stroke-width=".12" stroke-linecap="round" stroke-linejoin="round" stroke="gray" stroke-miterlimit="10"/><use xlink:href="#u" x="322.541" y="180.894" fill="gray"/><use xlink:href="#v" x="324.701" y="180.894" fill="gray"/><use xlink:href="#q" x="327.761" y="180.894" fill="gray"/><path d="M322.719 198.238v-14.34M322.719 183.898h7.203M329.922 183.898v14.34M329.922 198.238h-7.203" fill="none" stroke-width=".36000000000000004" stroke-linecap="round" stroke-linejoin="round" stroke="gray" stroke-miterlimit="10"/><use xlink:href="#w" x="320.09" y="185.684" fill="gray"/><use xlink:href="#x" x="322.37" y="193.529" fill="gray"/><use xlink:href="#y" x="322.901" y="195.263" fill="gray"/><use xlink:href="#z" x="325.421" y="195.263" fill="gray"/><use xlink:href="#t" x="327.761" y="195.263" fill="gray"/><path d="M322.719 212.64v-14.402M322.719 198.238h7.203M329.922 198.238v14.403M329.922 212.64h-7.203" fill="none" stroke-width=".36000000000000004" stroke-linecap="round" stroke-linejoin="round" stroke="gray" stroke-miterlimit="10"/><use xlink:href="#A" x="320.27" y="200.413" fill="gray"/><use xlink:href="#x" x="322.37" y="207.897" fill="gray"/><path d="M267.04 195.36l.062-.239.117-.242.242-.18.3-.058M269.922 194.64l.238.06.238.179.18.242.063.238M270.64 201.121l-.062.3-.18.24-.238.12-.238.059M267.762 201.84l-.301-.059-.242-.12-.117-.24-.063-.3" fill="none" stroke-width=".48" stroke-linecap="round" stroke-linejoin="round" stroke="gray" stroke-miterlimit="10"/><path d="M267.04 195.36l.062-.239.117-.242.242-.18.3-.058M269.922 194.64l.238.06.238.179.18.242.063.238M270.64 201.121l-.062.3-.18.24-.238.12-.238.059M267.762 201.84l-.301-.059-.242-.12-.117-.24-.063-.3M269.922 194.64h-2.16M267.04 201.121v-5.762M270.64 201.121v-5.762M269.922 201.84h-2.16" fill="none" stroke-width=".48" stroke-linecap="round" stroke-linejoin="round" stroke="gray" stroke-miterlimit="10"/><path d="M269.2 201.84h-.72v1.082h.72zm0 0M269.2 193.559h-.72v1.082h.72zm0 0" fill="gray" stroke-width=".12" stroke-linecap="round" stroke-linejoin="round" stroke="gray" stroke-miterlimit="10"/><path d="M274.18 195.36l.058-.239.184-.242.238-.18.238-.058M277.059 194.64l.3.06.243.179.117.242.062.238M277.781 201.121l-.062.3-.117.24-.243.12-.3.059M274.898 201.84l-.238-.059-.238-.12-.184-.24-.058-.3" fill="none" stroke-width=".48" stroke-linecap="round" stroke-linejoin="round" stroke="gray" stroke-miterlimit="10"/><path d="M274.18 195.36l.058-.239.184-.242.238-.18.238-.058M277.059 194.64l.3.06.243.179.117.242.062.238M277.781 201.121l-.062.3-.117.24-.243.12-.3.059M274.898 201.84l-.238-.059-.238-.12-.184-.24-.058-.3M277.059 194.64h-2.16M274.18 201.121v-5.762M277.781 201.121v-5.762M277.059 201.84h-2.16" fill="none" stroke-width=".48" stroke-linecap="round" stroke-linejoin="round" stroke="gray" stroke-miterlimit="10"/><path d="M276.34 201.84h-.719v1.082h.719zm0 0M276.34 193.559h-.719v1.082h.719zm0 0" fill="gray" stroke-width=".12" stroke-linecap="round" stroke-linejoin="round" stroke="gray" stroke-miterlimit="10"/><path d="M310.121 195.36l.059-.239.18-.242.242-.18.238-.058M313 194.64l.3.06.24.179.12.242.059.238M313.719 201.121l-.059.3-.12.24-.24.12-.3.059M310.84 201.84l-.238-.059-.243-.12-.18-.24-.058-.3" fill="none" stroke-width=".48" stroke-linecap="round" stroke-linejoin="round" stroke="gray" stroke-miterlimit="10"/><path d="M310.121 195.36l.059-.239.18-.242.242-.18.238-.058M313 194.64l.3.06.24.179.12.242.059.238M313.719 201.121l-.059.3-.12.24-.24.12-.3.059M310.84 201.84l-.238-.059-.243-.12-.18-.24-.058-.3M313 194.64h-2.16M310.121 201.121v-5.762M313.719 201.121v-5.762M313 201.84h-2.16" fill="none" stroke-width=".48" stroke-linecap="round" stroke-linejoin="round" stroke="gray" stroke-miterlimit="10"/><path d="M312.281 201.84h-.722v1.082h.722zm0 0M312.281 193.559h-.722v1.082h.722zm0 0" fill="gray" stroke-width=".12" stroke-linecap="round" stroke-linejoin="round" stroke="gray" stroke-miterlimit="10"/><path d="M327.04 222.66v-1.738M327.04 220.922h-1.438M325.602 220.922v1.738M325.602 222.66H323.8M323.8 222.66v1.442M323.8 224.102h1.802M325.602 224.102v1.796M325.602 225.898h1.437M327.04 225.898v-1.796M327.04 224.102h1.8M328.84 224.102v-1.442M328.84 222.66h-1.8M316.602 212.64h7.199M328.84 225.898l1.441 1.442M323.8 225.898l-1.44 1.442M331.719 223.379h-1.438M322.36 223.379h-1.438M329.2 220.559l.722-.72M323.441 220.559l-.722-.72M321.64 234.18H331M316.602 234.18l-.422-.059-.301-.242-.238-.36-.121-.417M315.52 213.719l.12-.418.239-.36.3-.242.423-.058M336.04 212.64l.42.06.302.241.238.36.121.418M337.121 233.102l-.121.418-.238.359-.301.242-.422.059M336.04 212.64h-7.2M315.52 227.7v-13.981M337.121 213.719v13.98" fill="none" stroke-width=".48" stroke-linecap="round" stroke-linejoin="round" stroke="gray" stroke-miterlimit="10"/><path d="M287.86 217.5v11.82M280 230.219l-1.14-.66-1.02-.84-.84-1.02-.66-1.14-.418-1.2-.242-1.32v-1.258l.242-1.32.418-1.262.66-1.078.84-1.02 1.02-.84 1.14-.66M283.18 230.941V215.88M280 216.602l1.02-.422 1.082-.239 1.078-.062M283.18 215.879l1.14.062 1.02.239 1.082.422M286.422 216.602l.719.359.718.539M286.422 230.219l-1.082.36-1.02.241-1.14.121M283.18 230.941l-1.078-.062-1.082-.238-1.02-.422M287.86 229.32l-.72.54-.78.421M309.398 217.5v11.82M301.54 230.219l-1.142-.66-1.02-.84-.839-1.02-.598-1.14-.48-1.2-.242-1.32v-1.258l.242-1.32.48-1.262.598-1.078.84-1.02 1.02-.84 1.14-.66M304.781 230.941V215.88M301.54 216.602l1.019-.422 1.082-.239 1.14-.062M304.781 215.879l1.078.062 1.082.239 1.02.422M307.96 216.602l.778.359.66.539M307.96 230.219l-1.019.36-1.082.241-1.078.121M304.781 230.941l-1.14-.062-1.082-.238-1.02-.422M309.398 229.32l-.718.54-.782.421" fill="none" stroke-width=".36000000000000004" stroke-linecap="round" stroke-linejoin="round" stroke="gray" stroke-miterlimit="10"/><path d="M280.84 209.04a2.278 2.278 0 0 1 2.281-2.278 2.277 2.277 0 0 1 2.277 2.277 2.278 2.278 0 1 1-4.558 0" fill-rule="evenodd" fill="green"/><path d="M280.84 209.04a2.278 2.278 0 0 1 2.281-2.278 2.277 2.277 0 0 1 2.277 2.277 2.278 2.278 0 1 1-4.558 0zm0 0" fill="none" stroke-width=".12" stroke-linecap="round" stroke-linejoin="round" stroke="green" stroke-miterlimit="10"/><path d="M281.98 209.04a1.14 1.14 0 1 1 2.282 0 1.14 1.14 0 0 1-1.14 1.14c-.634 0-1.142-.508-1.142-1.14" fill-rule="evenodd" fill="#fff"/><path d="M281.98 209.04a1.14 1.14 0 1 1 2.282 0 1.14 1.14 0 0 1-1.14 1.14c-.634 0-1.142-.508-1.142-1.14zm0 0" fill="none" stroke-width=".06" stroke-linecap="square" stroke-linejoin="bevel" stroke="#000" stroke-miterlimit="10"/><path d="M292.66 206.762h-4.558v4.558h4.558zm0 0" fill="green" stroke-width=".12" stroke-linecap="round" stroke-linejoin="round" stroke="green" stroke-miterlimit="10"/><path d="M289.18 209.04c0-.63.511-1.142 1.14-1.142.63 0 1.14.512 1.14 1.141a1.14 1.14 0 1 1-2.28 0" fill-rule="evenodd" fill="#fff"/><path d="M289.18 209.04c0-.63.511-1.142 1.14-1.142.63 0 1.14.512 1.14 1.141a1.14 1.14 0 1 1-2.28 0zm0 0" fill="none" stroke-width=".06" stroke-linecap="square" stroke-linejoin="bevel" stroke="#000" stroke-miterlimit="10"/><path d="M302.441 201.84a2.28 2.28 0 0 1 2.278-2.281 2.281 2.281 0 0 1 0 4.562 2.28 2.28 0 0 1-2.278-2.281" fill-rule="evenodd" fill="green"/><path d="M302.441 201.84a2.28 2.28 0 0 1 2.278-2.281 2.281 2.281 0 0 1 0 4.562 2.28 2.28 0 0 1-2.278-2.281zm0 0" fill="none" stroke-width=".12" stroke-linecap="round" stroke-linejoin="round" stroke="green" stroke-miterlimit="10"/><path d="M303.578 201.84a1.14 1.14 0 1 1 1.14 1.14c-.628 0-1.14-.511-1.14-1.14" fill-rule="evenodd" fill="#fff"/><path d="M303.578 201.84a1.14 1.14 0 1 1 1.14 1.14c-.628 0-1.14-.511-1.14-1.14zm0 0" fill="none" stroke-width=".06" stroke-linecap="square" stroke-linejoin="bevel" stroke="#000" stroke-miterlimit="10"/><path d="M299.86 199.559h-4.56v4.562h4.56zm0 0" fill="green" stroke-width=".12" stroke-linecap="round" stroke-linejoin="round" stroke="green" stroke-miterlimit="10"/><path d="M296.379 201.84c0-.63.512-1.14 1.14-1.14.63 0 1.141.51 1.141 1.14 0 .629-.512 1.14-1.14 1.14-.63 0-1.141-.511-1.141-1.14" fill-rule="evenodd" fill="#fff"/><path d="M296.379 201.84c0-.63.512-1.14 1.14-1.14.63 0 1.141.51 1.141 1.14 0 .629-.512 1.14-1.14 1.14-.63 0-1.141-.511-1.141-1.14zm0 0" fill="none" stroke-width=".06" stroke-linecap="square" stroke-linejoin="bevel" stroke="#000" stroke-miterlimit="10"/><path d="M323.738 187.5a2.521 2.521 0 0 1 5.043 0 2.52 2.52 0 0 1-5.043 0" fill-rule="evenodd" fill="green"/><path d="M323.738 187.5a2.521 2.521 0 0 1 5.043 0 2.52 2.52 0 0 1-5.043 0zm0 0" fill="none" stroke-width=".12" stroke-linecap="round" stroke-linejoin="round" stroke="green" stroke-miterlimit="10"/><path d="M324.82 187.5a1.44 1.44 0 1 1 2.881-.002 1.44 1.44 0 0 1-2.88.002" fill-rule="evenodd" fill="#fff"/><path d="M324.82 187.5a1.44 1.44 0 1 1 2.881-.002 1.44 1.44 0 0 1-2.88.002zm0 0" fill="none" stroke-width=".06" stroke-linecap="square" stroke-linejoin="bevel" stroke="#000" stroke-miterlimit="10"/><path d="M323.738 194.64a2.519 2.519 0 0 1 2.524-2.519 2.52 2.52 0 1 1-2.523 2.52" fill-rule="evenodd" fill="green"/><path d="M323.738 194.64a2.519 2.519 0 0 1 2.524-2.519 2.52 2.52 0 1 1-2.523 2.52zm0 0" fill="none" stroke-width=".12" stroke-linecap="round" stroke-linejoin="round" stroke="green" stroke-miterlimit="10"/><path d="M324.82 194.64a1.44 1.44 0 1 1 2.881-.001 1.44 1.44 0 0 1-2.88.002" fill-rule="evenodd" fill="#fff"/><path d="M324.82 194.64a1.44 1.44 0 1 1 2.881-.001 1.44 1.44 0 0 1-2.88.002zm0 0" fill="none" stroke-width=".06" stroke-linecap="square" stroke-linejoin="bevel" stroke="#000" stroke-miterlimit="10"/><path d="M323.738 201.84a2.521 2.521 0 0 1 5.043 0 2.52 2.52 0 0 1-5.043 0" fill-rule="evenodd" fill="green"/><path d="M323.738 201.84a2.521 2.521 0 0 1 5.043 0 2.52 2.52 0 0 1-5.043 0zm0 0" fill="none" stroke-width=".12" stroke-linecap="round" stroke-linejoin="round" stroke="green" stroke-miterlimit="10"/><path d="M324.82 201.84c0-.793.645-1.442 1.442-1.442a1.442 1.442 0 0 1 0 2.883 1.44 1.44 0 0 1-1.442-1.441" fill-rule="evenodd" fill="#fff"/><path d="M324.82 201.84c0-.793.645-1.442 1.442-1.442a1.442 1.442 0 0 1 0 2.883 1.44 1.44 0 0 1-1.442-1.441zm0 0" fill="none" stroke-width=".06" stroke-linecap="square" stroke-linejoin="bevel" stroke="#000" stroke-miterlimit="10"/><path d="M323.738 209.04a2.521 2.521 0 0 1 5.043 0 2.518 2.518 0 0 1-2.52 2.519 2.519 2.519 0 0 1-2.523-2.52" fill-rule="evenodd" fill="green"/><path d="M323.738 209.04a2.521 2.521 0 0 1 5.043 0 2.518 2.518 0 0 1-2.52 2.519 2.519 2.519 0 0 1-2.523-2.52zm0 0" fill="none" stroke-width=".12" stroke-linecap="round" stroke-linejoin="round" stroke="green" stroke-miterlimit="10"/><path d="M324.82 209.04a1.44 1.44 0 1 1 2.88.003 1.44 1.44 0 0 1-2.88-.004" fill-rule="evenodd" fill="#fff"/><path d="M324.82 209.04a1.44 1.44 0 1 1 2.88.003 1.44 1.44 0 0 1-2.88-.004zm0 0" fill="none" stroke-width=".06" stroke-linecap="square" stroke-linejoin="bevel" stroke="#000" stroke-miterlimit="10"/><path d="M267.102 187.5a1.68 1.68 0 1 1 3.36 0 1.68 1.68 0 0 1-3.36 0" fill-rule="evenodd" fill="green"/><path d="M267.102 187.5a1.68 1.68 0 1 1 3.36 0 1.68 1.68 0 0 1-3.36 0zm0 0" fill="none" stroke-width=".12" stroke-linecap="round" stroke-linejoin="round" stroke="green" stroke-miterlimit="10"/><path d="M267.762 187.5c0-.531.457-.96 1.02-.96.562 0 1.019.429 1.019.96 0 .531-.457.96-1.02.96-.562 0-1.02-.429-1.02-.96" fill-rule="evenodd" fill="#fff"/><path d="M267.762 187.5c0-.531.457-.96 1.02-.96.562 0 1.019.429 1.019.96 0 .531-.457.96-1.02.96-.562 0-1.02-.429-1.02-.96zm0 0" fill="none" stroke-width=".06" stroke-linecap="square" stroke-linejoin="bevel" stroke="#000" stroke-miterlimit="10"/><path d="M267.102 209.04a1.68 1.68 0 1 1 3.359-.001 1.68 1.68 0 0 1-3.36 0" fill-rule="evenodd" fill="green"/><path d="M267.102 209.04a1.68 1.68 0 1 1 3.359-.001 1.68 1.68 0 0 1-3.36 0zm0 0" fill="none" stroke-width=".12" stroke-linecap="round" stroke-linejoin="round" stroke="green" stroke-miterlimit="10"/><path d="M267.762 209.04c0-.528.457-.962 1.02-.962.562 0 1.019.434 1.019.961 0 .531-.457.961-1.02.961-.562 0-1.02-.43-1.02-.96" fill-rule="evenodd" fill="#fff"/><path d="M267.762 209.04c0-.528.457-.962 1.02-.962.562 0 1.019.434 1.019.961 0 .531-.457.961-1.02.961-.562 0-1.02-.43-1.02-.96zm0 0" fill="none" stroke-width=".06" stroke-linecap="square" stroke-linejoin="bevel" stroke="#000" stroke-miterlimit="10"/><path d="M274.238 187.5c0-.93.754-1.68 1.684-1.68a1.68 1.68 0 1 1 0 3.36 1.68 1.68 0 0 1-1.684-1.68" fill-rule="evenodd" fill="green"/><path d="M274.238 187.5c0-.93.754-1.68 1.684-1.68a1.68 1.68 0 1 1 0 3.36 1.68 1.68 0 0 1-1.684-1.68zm0 0" fill="none" stroke-width=".12" stroke-linecap="round" stroke-linejoin="round" stroke="green" stroke-miterlimit="10"/><path d="M274.898 187.5c0-.531.457-.96 1.024-.96.562 0 1.02.429 1.02.96 0 .531-.458.96-1.02.96-.567 0-1.024-.429-1.024-.96" fill-rule="evenodd" fill="#fff"/><path d="M274.898 187.5c0-.531.457-.96 1.024-.96.562 0 1.02.429 1.02.96 0 .531-.458.96-1.02.96-.567 0-1.024-.429-1.024-.96zm0 0" fill="none" stroke-width=".06" stroke-linecap="square" stroke-linejoin="bevel" stroke="#000" stroke-miterlimit="10"/><path d="M274.238 209.04a1.682 1.682 0 0 1 3.363 0c0 .929-.753 1.679-1.68 1.679a1.68 1.68 0 0 1-1.683-1.68" fill-rule="evenodd" fill="green"/><path d="M274.238 209.04a1.682 1.682 0 0 1 3.363 0c0 .929-.753 1.679-1.68 1.679a1.68 1.68 0 0 1-1.683-1.68zm0 0" fill="none" stroke-width=".12" stroke-linecap="round" stroke-linejoin="round" stroke="green" stroke-miterlimit="10"/><path d="M274.898 209.04c0-.528.457-.962 1.024-.962.562 0 1.02.434 1.02.961 0 .531-.458.961-1.02.961-.567 0-1.024-.43-1.024-.96" fill-rule="evenodd" fill="#fff"/><path d="M274.898 209.04c0-.528.457-.962 1.024-.962.562 0 1.02.434 1.02.961 0 .531-.458.961-1.02.961-.567 0-1.024-.43-1.024-.96zm0 0" fill="none" stroke-width=".06" stroke-linecap="square" stroke-linejoin="bevel" stroke="#000" stroke-miterlimit="10"/><path d="M310.18 187.5a1.68 1.68 0 1 1 3.359 0 1.68 1.68 0 0 1-3.36 0" fill-rule="evenodd" fill="green"/><path d="M310.18 187.5a1.68 1.68 0 1 1 3.359 0 1.68 1.68 0 0 1-3.36 0zm0 0" fill="none" stroke-width=".12" stroke-linecap="round" stroke-linejoin="round" stroke="green" stroke-miterlimit="10"/><path d="M310.84 187.5c0-.531.457-.96 1.02-.96.562 0 1.019.429 1.019.96 0 .531-.457.96-1.02.96-.562 0-1.02-.429-1.02-.96" fill-rule="evenodd" fill="#fff"/><path d="M310.84 187.5c0-.531.457-.96 1.02-.96.562 0 1.019.429 1.019.96 0 .531-.457.96-1.02.96-.562 0-1.02-.429-1.02-.96zm0 0" fill="none" stroke-width=".06" stroke-linecap="square" stroke-linejoin="bevel" stroke="#000" stroke-miterlimit="10"/><path d="M310.18 209.04a1.68 1.68 0 1 1 3.36 0 1.68 1.68 0 0 1-3.36 0" fill-rule="evenodd" fill="green"/><path d="M310.18 209.04a1.68 1.68 0 1 1 3.36 0 1.68 1.68 0 0 1-3.36 0zm0 0" fill="none" stroke-width=".12" stroke-linecap="round" stroke-linejoin="round" stroke="green" stroke-miterlimit="10"/><path d="M310.84 209.04c0-.528.457-.962 1.02-.962.562 0 1.019.434 1.019.961 0 .531-.457.961-1.02.961-.562 0-1.02-.43-1.02-.96" fill-rule="evenodd" fill="#fff"/><path d="M310.84 209.04c0-.528.457-.962 1.02-.962.562 0 1.019.434 1.019.961 0 .531-.457.961-1.02.961-.562 0-1.02-.43-1.02-.96zm0 0" fill="none" stroke-width=".06" stroke-linecap="square" stroke-linejoin="bevel" stroke="#000" stroke-miterlimit="10"/><path d="M323.5 216.238a2.758 2.758 0 0 1 2.762-2.758 2.757 2.757 0 0 1 2.758 2.758 2.759 2.759 0 1 1-5.52 0" fill-rule="evenodd" fill="green"/><path d="M323.5 216.238a2.758 2.758 0 0 1 2.762-2.758 2.757 2.757 0 0 1 2.758 2.758 2.759 2.759 0 1 1-5.52 0zm0 0" fill="none" stroke-width=".12" stroke-linecap="round" stroke-linejoin="round" stroke="green" stroke-miterlimit="10"/><path d="M324.82 216.238a1.44 1.44 0 1 1 2.88.004 1.44 1.44 0 0 1-2.88-.004" fill-rule="evenodd" fill="#fff"/><path d="M324.82 216.238a1.44 1.44 0 1 1 2.88.004 1.44 1.44 0 0 1-2.88-.004zm0 0" fill="none" stroke-width=".06" stroke-linecap="square" stroke-linejoin="bevel" stroke="#000" stroke-miterlimit="10"/><path d="M330.7 230.578a2.76 2.76 0 1 1 5.52.006 2.76 2.76 0 0 1-5.52-.006" fill-rule="evenodd" fill="green"/><path d="M330.7 230.578a2.76 2.76 0 1 1 5.52.006 2.76 2.76 0 0 1-5.52-.006zm0 0" fill="none" stroke-width=".12" stroke-linecap="round" stroke-linejoin="round" stroke="green" stroke-miterlimit="10"/><path d="M332.02 230.578a1.44 1.44 0 1 1 2.879.004 1.44 1.44 0 0 1-2.88-.004" fill-rule="evenodd" fill="#fff"/><path d="M332.02 230.578a1.44 1.44 0 1 1 2.879.004 1.44 1.44 0 0 1-2.88-.004zm0 0" fill="none" stroke-width=".06" stroke-linecap="square" stroke-linejoin="bevel" stroke="#000" stroke-miterlimit="10"/><path d="M316.3 230.578a2.757 2.757 0 0 1 2.759-2.758 2.759 2.759 0 1 1-2.758 2.758" fill-rule="evenodd" fill="green"/><path d="M316.3 230.578a2.757 2.757 0 0 1 2.759-2.758 2.759 2.759 0 1 1-2.758 2.758zm0 0" fill="none" stroke-width=".12" stroke-linecap="round" stroke-linejoin="round" stroke="green" stroke-miterlimit="10"/><path d="M317.621 230.578a1.439 1.439 0 1 1 2.878.003 1.439 1.439 0 0 1-2.878-.003" fill-rule="evenodd" fill="#fff"/><path d="M317.621 230.578a1.439 1.439 0 1 1 2.878.003 1.439 1.439 0 0 1-2.878-.003zm0 0" fill="none" stroke-width=".06" stroke-linecap="square" stroke-linejoin="bevel" stroke="#000" stroke-miterlimit="10"/><path d="M281.078 216.238a2.041 2.041 0 1 1 4.083.005 2.041 2.041 0 0 1-4.083-.005" fill-rule="evenodd" fill="green"/><path d="M281.078 216.238a2.041 2.041 0 1 1 4.083.005 2.041 2.041 0 0 1-4.083-.005zm0 0" fill="none" stroke-width=".12" stroke-linecap="round" stroke-linejoin="round" stroke="green" stroke-miterlimit="10"/><path d="M282.102 216.238c0-.527.457-.957 1.02-.957.562 0 1.019.43 1.019.957 0 .532-.457.961-1.02.961-.562 0-1.02-.43-1.02-.96" fill-rule="evenodd" fill="#fff"/><path d="M282.102 216.238c0-.527.457-.957 1.02-.957.562 0 1.019.43 1.019.957 0 .532-.457.961-1.02.961-.562 0-1.02-.43-1.02-.96zm0 0" fill="none" stroke-width=".06" stroke-linecap="square" stroke-linejoin="bevel" stroke="#000" stroke-miterlimit="10"/><path d="M281.078 230.578a2.041 2.041 0 1 1 4.083.005 2.041 2.041 0 0 1-4.083-.005" fill-rule="evenodd" fill="green"/><path d="M281.078 230.578a2.041 2.041 0 1 1 4.083.005 2.041 2.041 0 0 1-4.083-.005zm0 0" fill="none" stroke-width=".12" stroke-linecap="round" stroke-linejoin="round" stroke="green" stroke-miterlimit="10"/><path d="M282.102 230.578c0-.527.457-.957 1.02-.957.562 0 1.019.43 1.019.957 0 .531-.457.961-1.02.961-.562 0-1.02-.43-1.02-.96" fill-rule="evenodd" fill="#fff"/><path d="M282.102 230.578c0-.527.457-.957 1.02-.957.562 0 1.019.43 1.019.957 0 .531-.457.961-1.02.961-.562 0-1.02-.43-1.02-.96zm0 0" fill="none" stroke-width=".06" stroke-linecap="square" stroke-linejoin="bevel" stroke="#000" stroke-miterlimit="10"/><path d="M281.078 223.379a2.041 2.041 0 1 1 4.083.005 2.041 2.041 0 0 1-4.083-.005" fill-rule="evenodd" fill="green"/><path d="M281.078 223.379a2.041 2.041 0 1 1 4.083.005 2.041 2.041 0 0 1-4.083-.005zm0 0" fill="none" stroke-width=".12" stroke-linecap="round" stroke-linejoin="round" stroke="green" stroke-miterlimit="10"/><path d="M282.102 223.379c0-.527.457-.957 1.02-.957.562 0 1.019.43 1.019.957 0 .531-.457.96-1.02.96-.562 0-1.02-.429-1.02-.96" fill-rule="evenodd" fill="#fff"/><path d="M282.102 223.379c0-.527.457-.957 1.02-.957.562 0 1.019.43 1.019.957 0 .531-.457.96-1.02.96-.562 0-1.02-.429-1.02-.96zm0 0" fill="none" stroke-width=".06" stroke-linecap="square" stroke-linejoin="bevel" stroke="#000" stroke-miterlimit="10"/><path d="M302.68 216.238a2.04 2.04 0 1 1 4.08.003 2.04 2.04 0 0 1-4.08-.003" fill-rule="evenodd" fill="green"/><path d="M302.68 216.238a2.04 2.04 0 1 1 4.08.003 2.04 2.04 0 0 1-4.08-.003zm0 0" fill="none" stroke-width=".12" stroke-linecap="round" stroke-linejoin="round" stroke="green" stroke-miterlimit="10"/><path d="M303.7 216.238c0-.527.456-.957 1.019-.957.562 0 1.02.43 1.02.957 0 .532-.458.961-1.02.961-.563 0-1.02-.43-1.02-.96" fill-rule="evenodd" fill="#fff"/><path d="M303.7 216.238c0-.527.456-.957 1.019-.957.562 0 1.02.43 1.02.957 0 .532-.458.961-1.02.961-.563 0-1.02-.43-1.02-.96zm0 0" fill="none" stroke-width=".06" stroke-linecap="square" stroke-linejoin="bevel" stroke="#000" stroke-miterlimit="10"/><path d="M302.68 230.578a2.04 2.04 0 1 1 4.08.003 2.04 2.04 0 0 1-4.08-.003" fill-rule="evenodd" fill="green"/><path d="M302.68 230.578a2.04 2.04 0 1 1 4.08.003 2.04 2.04 0 0 1-4.08-.003zm0 0" fill="none" stroke-width=".12" stroke-linecap="round" stroke-linejoin="round" stroke="green" stroke-miterlimit="10"/><path d="M303.7 230.578c0-.527.456-.957 1.019-.957.562 0 1.02.43 1.02.957 0 .531-.458.961-1.02.961-.563 0-1.02-.43-1.02-.96" fill-rule="evenodd" fill="#fff"/><path d="M303.7 230.578c0-.527.456-.957 1.019-.957.562 0 1.02.43 1.02.957 0 .531-.458.961-1.02.961-.563 0-1.02-.43-1.02-.96zm0 0" fill="none" stroke-width=".06" stroke-linecap="square" stroke-linejoin="bevel" stroke="#000" stroke-miterlimit="10"/><path d="M302.68 223.379a2.04 2.04 0 1 1 4.08.003 2.04 2.04 0 0 1-4.08-.003" fill-rule="evenodd" fill="green"/><path d="M302.68 223.379a2.04 2.04 0 1 1 4.08.003 2.04 2.04 0 0 1-4.08-.003zm0 0" fill="none" stroke-width=".12" stroke-linecap="round" stroke-linejoin="round" stroke="green" stroke-miterlimit="10"/><path d="M303.7 223.379c0-.527.456-.957 1.019-.957.562 0 1.02.43 1.02.957 0 .531-.458.96-1.02.96-.563 0-1.02-.429-1.02-.96" fill-rule="evenodd" fill="#fff"/><path d="M303.7 223.379c0-.527.456-.957 1.019-.957.562 0 1.02.43 1.02.957 0 .531-.458.96-1.02.96-.563 0-1.02-.429-1.02-.96zm0 0" fill="none" stroke-width=".06" stroke-linecap="square" stroke-linejoin="bevel" stroke="#000" stroke-miterlimit="10"/><path d="M275.98 209.04h7.2M283.18 209.04v7.198M311.922 209.04v14.339M311.922 223.379h-7.14M290.379 209.04h7.2M297.578 209.04v14.339M297.578 223.379h7.203M304.781 216.238V201.84M319.121 230.578V201.84M319.121 201.84h-14.34M297.578 201.84H268.84M268.84 201.84v21.539M268.84 223.379h14.34M326.32 209.04v7.198M275.98 187.5h35.942M311.922 187.5h14.398M333.52 230.578V201.84M333.52 201.84h-7.2M326.32 187.5h7.2M333.52 187.5v14.34M275.98 187.5h-7.14" fill="none" stroke-width="3.6" stroke-linecap="round" stroke-linejoin="round" stroke="navy" stroke-miterlimit="10"/><g clip-path="url(#B)"><path d="M254.441 180.3v57.481" fill="none" stroke-width=".9" stroke-linecap="round" stroke-linejoin="round" stroke="navy" stroke-miterlimit="10"/></g><g clip-path="url(#C)"><path d="M254.441 237.781h86.278" fill="none" stroke-width=".9" stroke-linecap="round" stroke-linejoin="round" stroke="navy" stroke-miterlimit="10"/></g><g clip-path="url(#D)"><path d="M340.719 237.781v-57.48" fill="none" stroke-width=".9" stroke-linecap="round" stroke-linejoin="round" stroke="navy" stroke-miterlimit="10"/></g><g clip-path="url(#E)"><path d="M340.719 180.3H254.44" fill="none" stroke-width=".9" stroke-linecap="round" stroke-linejoin="round" stroke="navy" stroke-miterlimit="10"/></g><path d="M333.219 226.738l-.059-.058M333.219 226.738v3.543M333.219 230.281h.601M333.82 230.281v-3.543M333.82 226.738h-.058M333.82 226.738l.602.063M334.422 226.8l.598.18M335.02 226.98l.539.301M335.559 227.281l.48.36M336.04 227.64l.42.419M336.46 228.059l.36.48M336.82 228.54l.301.538M337.121 229.078l.18.602M337.3 229.68l.122.601M337.422 230.281v-.062M337.422 230.281h-3.602M333.82 230.281v.598M333.82 230.879h3.602M337.422 230.879l-.063-.059M337.422 230.879l-.121.601M337.3 231.48l-.179.598M337.121 232.078l-.3.543M336.82 232.621l-.36.48M336.46 233.102l-.42.418M336.04 233.52l-.481.359M335.559 233.879l-.54.3M335.02 234.18l-.598.18M334.422 234.36l-.602.12M333.82 234.48h-.058M333.82 234.48v-3.601M333.82 230.879h-.601M333.219 230.879v3.601M333.219 234.48l-.059-.058M333.219 234.48l-.598-.12M332.621 234.36l-.601-.18M332.02 234.18l-.54-.301M331.48 233.879l-.48-.36M331 233.52l-.48-.418M330.52 233.102l-.36-.48M330.16 232.621l-.238-.543M329.922 232.078l-.184-.598M329.738 231.48l-.117-.601M329.621 230.879l-.062-.059M329.621 230.879h3.598M333.219 230.879v-.598M333.219 230.281h-3.598M329.621 230.281v-.062M329.621 230.281l.117-.601M329.738 229.68l.184-.602M329.922 229.078l.238-.539M330.16 228.54l.36-.481M330.52 228.059l.48-.418M331 227.64l.48-.359M331.48 227.281l.54-.3M332.02 226.98l.601-.18M332.621 226.8l.598-.062M268.54 184.621h.241M268.781 184.621v2.82M268.781 187.441h.117M268.898 187.441v-2.82M268.898 184.621h.18M269.078 184.621l.602.117M269.68 184.738l.48.242M270.16 184.98l.48.301M270.64 185.281l.419.36M271.059 185.64l.3.481M271.36 186.121l.18.54M271.54 186.66l.12.54M271.66 187.2v.241M271.66 187.441h-2.762M268.898 187.441v.118M268.898 187.559h2.762M271.66 187.559v.18M271.66 187.738l-.12.602M271.54 188.34l-.18.48M271.36 188.82l-.06-.058M271.36 188.82h2.1M273.46 188.82l-.062-.058M273.46 188.82l-.179-.48M273.281 188.34l-.12-.602M273.16 187.738v-.18M273.16 187.559h2.762M275.922 187.559v-.118M275.922 187.441h-2.762M273.16 187.441v-.242M273.16 187.2l.121-.54M273.281 186.66l.18-.539M273.46 186.121l.302-.48M273.762 185.64l.418-.359M274.18 185.281l.48-.3M274.66 184.98l.54-.242M275.2 184.738l.538-.117M275.738 184.621h.184M275.922 184.621v2.82M275.922 187.441h.117M276.04 187.441v-2.82M276.04 184.621h.241M276.281 184.621l.54.117M276.82 184.738l.54.242M277.36 184.98l.48.301M277.84 185.281l.36.36M278.2 185.64l.359.481M278.559 186.121l.18.54M278.738 186.66l.121.54M278.86 187.2v.241M278.86 187.441h-2.82M276.04 187.441v.118M276.04 187.559h2.82M278.86 187.559v.18M278.86 187.738l-.122.602M278.738 188.34l-.18.48M278.559 188.82l-.059-.058M278.559 188.82h30.84M309.398 188.82l-.058-.058M309.398 188.82l-.18-.48M309.219 188.34l-.117-.602M309.102 187.738v-.18M309.102 187.559h2.757M311.86 187.559v-.118M311.86 187.441h-2.758M309.102 187.441v-.242M309.102 187.2l.117-.54M309.219 186.66l.18-.539M309.398 186.121l.301-.48M309.7 185.64l.421-.359M310.121 185.281l.48-.3M310.602 184.98l.539-.242M311.14 184.738l.54-.117M311.68 184.621h.18M311.86 184.621v2.82M311.86 187.441h.12M311.98 187.441v-2.82M311.98 184.621h.239M312.219 184.621l.543.117M312.762 184.738l.539.242M313.3 184.98l.481.301M313.781 185.281l.36.36M314.14 185.64l.36.481M314.5 186.121l.18.54M314.68 186.66l.12.54M314.8 187.2v.241M314.8 187.441h-2.82M311.98 187.441v.118M311.98 187.559h2.82M314.8 187.559v.18M314.8 187.738l-.12.602M314.68 188.34l-.18.48M314.5 188.82l-.059-.058M314.5 188.82h8.398M322.898 188.82l-.18-.48M322.719 188.34l-.059-.54M322.66 187.8v-.062M322.66 187.738h3.36M326.02 187.738v-.539M326.02 187.2h-3.36M322.66 187.2v-.06M322.66 187.2l.059-.598M322.719 186.602l.18-.543M322.898 186.059l.301-.48M323.2 185.578l.3-.476M323.5 185.102l.422-.422M323.922 184.68l.476-.301M324.398 184.379l.543-.3M324.941 184.078l.54-.18M325.48 183.898l.54-.058M326.02 183.84h-.06M326.02 183.84v3.36M326.02 187.2h.601M326.621 187.2v-3.36M326.621 183.84l-.062-.059M326.621 183.84l.54.058M327.16 183.898l.54.18M327.7 184.078l.538.3M328.238 184.379l.48.3M328.719 184.68l.422.422M329.14 185.102l.301.476M329.441 185.578l.297.48M329.738 186.059l.184.543M329.922 186.602l.058.597M329.98 187.2v-.06M329.98 187.2h-3.359M326.621 187.2v.538M326.621 187.738h3.36M329.98 187.738v.063M329.98 187.8l-.058.54M329.922 188.34l-.184.539M329.738 188.879l-.058.121M329.68 189l.36.121M330.04 189.121l1.8 1.86M331.84 190.98l1.02 2.399M332.86 193.379v2.582M332.86 195.96l-1.02 2.4M331.84 198.36l-1.8 1.859M330.04 200.219l-.36.12M329.68 200.34l.058.12M329.738 200.46l.184.54M329.922 201l.058.54M329.98 201.54v.062M329.98 201.602h-3.359M326.621 201.602v.539M326.621 202.14h3.36M329.98 202.14l-.058-.062M329.98 202.14l-.058.598M329.922 202.738l-.184.543M329.738 203.281l-.058.059M329.68 203.34l.36.18M330.04 203.52l1.8 1.8M331.84 205.32l1.02 2.399M332.86 207.719v2.64M332.86 210.36l-.72 1.742M332.14 212.102v.539M332.14 212.64l.962 2.22M333.102 214.86v2.699M333.102 217.559l-1.082 2.46M332.02 220.02l-1.86 1.921M330.16 221.941l-2.52 1.02M327.64 222.96H325M325 222.96h-.059M324.941 222.96v4.02M324.941 226.98l.957 2.282M325.898 229.262v2.699M325.898 231.96l-1.02 2.462M324.879 234.422l-1.918 1.918M322.96 236.34l-2.46 1.02M320.5 237.36h-2.7M317.8 237.36l-2.519-1.02M315.281 236.34l-1.86-1.918M313.422 234.422l-1.024-2.461M312.398 231.96v-2.698M312.398 229.262v-.063M312.398 229.2h-1.68M310.719 229.2l.062.179M310.781 229.379v2.402M310.781 231.781L309.88 234M309.879 234l-1.68 1.68M308.2 235.68l-2.22.96M305.98 236.64h-2.402M303.578 236.64l-.539-.242M303.04 236.398h-18.118M284.922 236.398l-.543.243M284.379 236.64h-2.399M281.98 236.64l-.48-.242M281.5 236.398h-21.059M260.441 236.398l-2.101-.898M258.34 235.5l-1.621-1.621M256.719 233.879l-.899-2.16M255.82 231.719V193.5M255.82 193.5l.899-2.102M256.719 191.398l1.62-1.68M258.34 189.719l2.101-.899M260.441 188.82h5.82M266.262 188.82l-.063-.058M266.262 188.82l-.184-.48M266.078 188.34l-.117-.602M265.96 187.738v-.18M265.96 187.559h2.821M268.781 187.559v-.118M268.781 187.441h-2.82M265.96 187.441v-.242M265.96 187.2l.118-.54M266.078 186.66l.184-.539M266.262 186.121l.36-.48M266.621 185.64l.36-.359M266.98 185.281l.48-.3M267.46 184.98l.54-.242M268 184.738l.54-.117" fill="none" stroke-width=".9" stroke-linecap="round" stroke-linejoin="round" stroke="navy" stroke-miterlimit="10"/><g clip-path="url(#F)"><path d="M254.441 180.3h86.278" fill="none" stroke-width=".9" stroke-linecap="round" stroke-linejoin="round" stroke="navy" stroke-miterlimit="10"/></g><g clip-path="url(#G)"><path d="M254.441 181.078h86.278" fill="none" stroke-width=".9" stroke-linecap="round" stroke-linejoin="round" stroke="navy" stroke-miterlimit="10"/></g><g clip-path="url(#H)"><path d="M254.441 181.86h86.278" fill="none" stroke-width=".9" stroke-linecap="round" stroke-linejoin="round" stroke="navy" stroke-miterlimit="10"/></g><g clip-path="url(#I)" fill="none" stroke-width="9" stroke-linecap="round" stroke-linejoin="round" stroke="navy" stroke-miterlimit="10"><path d="M254.441 182.64h86.278M254.441 183.36h86.278" stroke-width=".9"/></g><g clip-path="url(#J)"><path d="M254.441 184.14h70.32" fill="none" stroke-width=".9" stroke-linecap="round" stroke-linejoin="round" stroke="navy" stroke-miterlimit="10"/></g><path d="M326.02 184.14h.601" fill="none" stroke-width=".9" stroke-linecap="round" stroke-linejoin="round" stroke="navy" stroke-miterlimit="10"/><g clip-path="url(#K)"><path d="M327.879 184.14h12.84" fill="none" stroke-width=".9" stroke-linecap="round" stroke-linejoin="round" stroke="navy" stroke-miterlimit="10"/></g><g clip-path="url(#L)"><path d="M254.441 184.922h13.079" fill="none" stroke-width=".9" stroke-linecap="round" stroke-linejoin="round" stroke="navy" stroke-miterlimit="10"/></g><path d="M268.781 184.922h.117M270.102 184.922h4.617M275.922 184.922h.117M277.3 184.922h33.36M311.86 184.922h.12M313.238 184.922h10.442M326.02 184.922h.601" fill="none" stroke-width=".9" stroke-linecap="round" stroke-linejoin="round" stroke="navy" stroke-miterlimit="10"/><g clip-path="url(#M)"><path d="M328.96 184.922h11.759" fill="none" stroke-width=".9" stroke-linecap="round" stroke-linejoin="round" stroke="navy" stroke-miterlimit="10"/></g><g clip-path="url(#N)"><path d="M254.441 185.7h12.118" fill="none" stroke-width=".9" stroke-linecap="round" stroke-linejoin="round" stroke="navy" stroke-miterlimit="10"/></g><path d="M268.781 185.7h.117M271.059 185.7h2.703M275.922 185.7h.117M278.262 185.7h31.437M311.86 185.7h.12M314.2 185.7h8.94M326.02 185.7h.601" fill="none" stroke-width=".9" stroke-linecap="round" stroke-linejoin="round" stroke="navy" stroke-miterlimit="10"/><g clip-path="url(#O)"><path d="M329.5 185.7h11.219" fill="none" stroke-width=".9" stroke-linecap="round" stroke-linejoin="round" stroke="navy" stroke-miterlimit="10"/></g><g clip-path="url(#P)"><path d="M254.441 186.48h11.7" fill="none" stroke-width=".9" stroke-linecap="round" stroke-linejoin="round" stroke="navy" stroke-miterlimit="10"/></g><path d="M268.781 186.48h.117M271.48 186.48h1.86M275.922 186.48h.117M278.68 186.48h30.601M311.86 186.48h.12M314.621 186.48h8.16M326.02 186.48h.601" fill="none" stroke-width=".9" stroke-linecap="round" stroke-linejoin="round" stroke="navy" stroke-miterlimit="10"/><g clip-path="url(#Q)"><path d="M329.86 186.48h10.859" fill="none" stroke-width=".9" stroke-linecap="round" stroke-linejoin="round" stroke="navy" stroke-miterlimit="10"/></g><g clip-path="url(#R)"><path d="M254.441 187.262h11.52" fill="none" stroke-width=".9" stroke-linecap="round" stroke-linejoin="round" stroke="navy" stroke-miterlimit="10"/></g><path d="M268.781 187.262h.117M271.66 187.262h1.5M275.922 187.262h.117M278.86 187.262h30.242M311.86 187.262h.12M314.8 187.262h11.22" fill="none" stroke-width=".9" stroke-linecap="round" stroke-linejoin="round" stroke="navy" stroke-miterlimit="10"/><g clip-path="url(#S)"><path d="M326.621 187.262h14.098" fill="none" stroke-width=".9" stroke-linecap="round" stroke-linejoin="round" stroke="navy" stroke-miterlimit="10"/></g><g clip-path="url(#T)"><path d="M254.441 188.04h11.579" fill="none" stroke-width=".9" stroke-linecap="round" stroke-linejoin="round" stroke="navy" stroke-miterlimit="10"/></g><path d="M271.602 188.04h1.617M278.8 188.04h30.36M314.738 188.04h7.98" fill="none" stroke-width=".9" stroke-linecap="round" stroke-linejoin="round" stroke="navy" stroke-miterlimit="10"/><g clip-path="url(#U)"><path d="M329.922 188.04h10.797" fill="none" stroke-width=".9" stroke-linecap="round" stroke-linejoin="round" stroke="navy" stroke-miterlimit="10"/></g><g clip-path="url(#V)"><path d="M254.441 188.82h11.82" fill="none" stroke-width=".9" stroke-linecap="round" stroke-linejoin="round" stroke="navy" stroke-miterlimit="10"/></g><path d="M271.36 188.82h2.1M278.559 188.82h30.84M314.5 188.82h8.398" fill="none" stroke-width=".9" stroke-linecap="round" stroke-linejoin="round" stroke="navy" stroke-miterlimit="10"/><g clip-path="url(#W)"><path d="M329.738 188.82h10.98" fill="none" stroke-width=".9" stroke-linecap="round" stroke-linejoin="round" stroke="navy" stroke-miterlimit="10"/></g><g clip-path="url(#X)"><path d="M254.441 189.54h4.32" fill="none" stroke-width=".9" stroke-linecap="round" stroke-linejoin="round" stroke="navy" stroke-miterlimit="10"/></g><g clip-path="url(#Y)"><path d="M330.46 189.54h10.259" fill="none" stroke-width=".9" stroke-linecap="round" stroke-linejoin="round" stroke="navy" stroke-miterlimit="10"/></g><g clip-path="url(#Z)"><path d="M254.441 190.32h3.297" fill="none" stroke-width=".9" stroke-linecap="round" stroke-linejoin="round" stroke="navy" stroke-miterlimit="10"/></g><g clip-path="url(#aa)"><path d="M331.238 190.32h9.48" fill="none" stroke-width=".9" stroke-linecap="round" stroke-linejoin="round" stroke="navy" stroke-miterlimit="10"/></g><g clip-path="url(#ab)"><path d="M254.441 191.102h2.52" fill="none" stroke-width=".9" stroke-linecap="round" stroke-linejoin="round" stroke="navy" stroke-miterlimit="10"/></g><g clip-path="url(#ac)"><path d="M331.898 191.102h8.82" fill="none" stroke-width=".9" stroke-linecap="round" stroke-linejoin="round" stroke="navy" stroke-miterlimit="10"/></g><g clip-path="url(#ad)"><path d="M254.441 191.879h2.04" fill="none" stroke-width=".9" stroke-linecap="round" stroke-linejoin="round" stroke="navy" stroke-miterlimit="10"/></g><g clip-path="url(#ae)"><path d="M332.262 191.879h8.457" fill="none" stroke-width=".9" stroke-linecap="round" stroke-linejoin="round" stroke="navy" stroke-miterlimit="10"/></g><g clip-path="url(#af)"><path d="M254.441 192.66h1.739" fill="none" stroke-width=".9" stroke-linecap="round" stroke-linejoin="round" stroke="navy" stroke-miterlimit="10"/></g><g clip-path="url(#ag)"><path d="M332.559 192.66h8.16" fill="none" stroke-width=".9" stroke-linecap="round" stroke-linejoin="round" stroke="navy" stroke-miterlimit="10"/></g><g clip-path="url(#ah)"><path d="M254.441 193.441h1.38" fill="none" stroke-width=".9" stroke-linecap="round" stroke-linejoin="round" stroke="navy" stroke-miterlimit="10"/></g><g clip-path="url(#ai)"><path d="M332.86 193.441h7.859" fill="none" stroke-width=".9" stroke-linecap="round" stroke-linejoin="round" stroke="navy" stroke-miterlimit="10"/></g><g clip-path="url(#aj)"><path d="M254.441 194.219h1.38" fill="none" stroke-width=".9" stroke-linecap="round" stroke-linejoin="round" stroke="navy" stroke-miterlimit="10"/></g><g clip-path="url(#ak)"><path d="M332.86 194.219h7.859" fill="none" stroke-width=".9" stroke-linecap="round" stroke-linejoin="round" stroke="navy" stroke-miterlimit="10"/></g><g clip-path="url(#al)"><path d="M254.441 195h1.38" fill="none" stroke-width=".9" stroke-linecap="round" stroke-linejoin="round" stroke="navy" stroke-miterlimit="10"/></g><g clip-path="url(#am)"><path d="M332.86 195h7.859" fill="none" stroke-width=".9" stroke-linecap="round" stroke-linejoin="round" stroke="navy" stroke-miterlimit="10"/></g><g clip-path="url(#an)"><path d="M254.441 195.719h1.38" fill="none" stroke-width=".9" stroke-linecap="round" stroke-linejoin="round" stroke="navy" stroke-miterlimit="10"/></g><g clip-path="url(#ao)"><path d="M332.86 195.719h7.859" fill="none" stroke-width=".9" stroke-linecap="round" stroke-linejoin="round" stroke="navy" stroke-miterlimit="10"/></g><g clip-path="url(#ap)"><path d="M254.441 196.5h1.38" fill="none" stroke-width=".9" stroke-linecap="round" stroke-linejoin="round" stroke="navy" stroke-miterlimit="10"/></g><g clip-path="url(#aq)"><path d="M332.621 196.5h8.098" fill="none" stroke-width=".9" stroke-linecap="round" stroke-linejoin="round" stroke="navy" stroke-miterlimit="10"/></g><g clip-path="url(#ar)"><path d="M254.441 197.281h1.38" fill="none" stroke-width=".9" stroke-linecap="round" stroke-linejoin="round" stroke="navy" stroke-miterlimit="10"/></g><g clip-path="url(#as)"><path d="M332.32 197.281h8.399" fill="none" stroke-width=".9" stroke-linecap="round" stroke-linejoin="round" stroke="navy" stroke-miterlimit="10"/></g><g clip-path="url(#at)"><path d="M254.441 198.059h1.38" fill="none" stroke-width=".9" stroke-linecap="round" stroke-linejoin="round" stroke="navy" stroke-miterlimit="10"/></g><g clip-path="url(#au)"><path d="M332.02 198.059h8.699" fill="none" stroke-width=".9" stroke-linecap="round" stroke-linejoin="round" stroke="navy" stroke-miterlimit="10"/></g><g clip-path="url(#av)"><path d="M254.441 198.84h1.38" fill="none" stroke-width=".9" stroke-linecap="round" stroke-linejoin="round" stroke="navy" stroke-miterlimit="10"/></g><g clip-path="url(#aw)"><path d="M331.422 198.84h9.297" fill="none" stroke-width=".9" stroke-linecap="round" stroke-linejoin="round" stroke="navy" stroke-miterlimit="10"/></g><g clip-path="url(#ax)"><path d="M254.441 199.621h1.38" fill="none" stroke-width=".9" stroke-linecap="round" stroke-linejoin="round" stroke="navy" stroke-miterlimit="10"/></g><g clip-path="url(#ay)"><path d="M330.64 199.621h10.079" fill="none" stroke-width=".9" stroke-linecap="round" stroke-linejoin="round" stroke="navy" stroke-miterlimit="10"/></g><g clip-path="url(#az)"><path d="M254.441 200.398h1.38" fill="none" stroke-width=".9" stroke-linecap="round" stroke-linejoin="round" stroke="navy" stroke-miterlimit="10"/></g><g clip-path="url(#aA)"><path d="M329.68 200.398h11.039" fill="none" stroke-width=".9" stroke-linecap="round" stroke-linejoin="round" stroke="navy" stroke-miterlimit="10"/></g><g clip-path="url(#aB)"><path d="M254.441 201.121h1.38" fill="none" stroke-width=".9" stroke-linecap="round" stroke-linejoin="round" stroke="navy" stroke-miterlimit="10"/></g><g clip-path="url(#aC)"><path d="M329.922 201.121h10.797" fill="none" stroke-width=".9" stroke-linecap="round" stroke-linejoin="round" stroke="navy" stroke-miterlimit="10"/></g><g clip-path="url(#aD)"><path d="M254.441 201.898h1.38" fill="none" stroke-width=".9" stroke-linecap="round" stroke-linejoin="round" stroke="navy" stroke-miterlimit="10"/></g><g clip-path="url(#aE)"><path d="M326.621 201.898h14.098" fill="none" stroke-width=".9" stroke-linecap="round" stroke-linejoin="round" stroke="navy" stroke-miterlimit="10"/></g><g clip-path="url(#aF)"><path d="M254.441 202.68h1.38" fill="none" stroke-width=".9" stroke-linecap="round" stroke-linejoin="round" stroke="navy" stroke-miterlimit="10"/></g><g clip-path="url(#aG)"><path d="M329.922 202.68h10.797" fill="none" stroke-width=".9" stroke-linecap="round" stroke-linejoin="round" stroke="navy" stroke-miterlimit="10"/></g><g clip-path="url(#aH)"><path d="M254.441 203.46h1.38" fill="none" stroke-width=".9" stroke-linecap="round" stroke-linejoin="round" stroke="navy" stroke-miterlimit="10"/></g><g clip-path="url(#aI)"><path d="M329.98 203.46h10.739" fill="none" stroke-width=".9" stroke-linecap="round" stroke-linejoin="round" stroke="navy" stroke-miterlimit="10"/></g><g clip-path="url(#aJ)"><path d="M254.441 204.238h1.38" fill="none" stroke-width=".9" stroke-linecap="round" stroke-linejoin="round" stroke="navy" stroke-miterlimit="10"/></g><g clip-path="url(#aK)"><path d="M330.762 204.238h9.957" fill="none" stroke-width=".9" stroke-linecap="round" stroke-linejoin="round" stroke="navy" stroke-miterlimit="10"/></g><g clip-path="url(#aL)"><path d="M254.441 205.02h1.38" fill="none" stroke-width=".9" stroke-linecap="round" stroke-linejoin="round" stroke="navy" stroke-miterlimit="10"/></g><g clip-path="url(#aM)"><path d="M331.54 205.02h9.179" fill="none" stroke-width=".9" stroke-linecap="round" stroke-linejoin="round" stroke="navy" stroke-miterlimit="10"/></g><g clip-path="url(#aN)"><path d="M254.441 205.8h1.38" fill="none" stroke-width=".9" stroke-linecap="round" stroke-linejoin="round" stroke="navy" stroke-miterlimit="10"/></g><g clip-path="url(#aO)"><path d="M332.078 205.8h8.64" fill="none" stroke-width=".9" stroke-linecap="round" stroke-linejoin="round" stroke="navy" stroke-miterlimit="10"/></g><g clip-path="url(#aP)"><path d="M254.441 206.578h1.38" fill="none" stroke-width=".9" stroke-linecap="round" stroke-linejoin="round" stroke="navy" stroke-miterlimit="10"/></g><g clip-path="url(#aQ)"><path d="M332.379 206.578h8.34" fill="none" stroke-width=".9" stroke-linecap="round" stroke-linejoin="round" stroke="navy" stroke-miterlimit="10"/></g><g clip-path="url(#aR)"><path d="M254.441 207.3h1.38" fill="none" stroke-width=".9" stroke-linecap="round" stroke-linejoin="round" stroke="navy" stroke-miterlimit="10"/></g><g clip-path="url(#aS)"><path d="M332.68 207.3h8.039" fill="none" stroke-width=".9" stroke-linecap="round" stroke-linejoin="round" stroke="navy" stroke-miterlimit="10"/></g><g clip-path="url(#aT)"><path d="M254.441 208.078h1.38" fill="none" stroke-width=".9" stroke-linecap="round" stroke-linejoin="round" stroke="navy" stroke-miterlimit="10"/></g><g clip-path="url(#aU)"><path d="M332.86 208.078h7.859" fill="none" stroke-width=".9" stroke-linecap="round" stroke-linejoin="round" stroke="navy" stroke-miterlimit="10"/></g><g clip-path="url(#aV)"><path d="M254.441 208.86h1.38" fill="none" stroke-width=".9" stroke-linecap="round" stroke-linejoin="round" stroke="navy" stroke-miterlimit="10"/></g><g clip-path="url(#aW)"><path d="M332.86 208.86h7.859" fill="none" stroke-width=".9" stroke-linecap="round" stroke-linejoin="round" stroke="navy" stroke-miterlimit="10"/></g><g clip-path="url(#aX)"><path d="M254.441 209.64h1.38" fill="none" stroke-width=".9" stroke-linecap="round" stroke-linejoin="round" stroke="navy" stroke-miterlimit="10"/></g><g clip-path="url(#aY)"><path d="M332.86 209.64h7.859" fill="none" stroke-width=".9" stroke-linecap="round" stroke-linejoin="round" stroke="navy" stroke-miterlimit="10"/></g><g clip-path="url(#aZ)"><path d="M254.441 210.422h1.38" fill="none" stroke-width=".9" stroke-linecap="round" stroke-linejoin="round" stroke="navy" stroke-miterlimit="10"/></g><g clip-path="url(#ba)"><path d="M332.86 210.422h7.859" fill="none" stroke-width=".9" stroke-linecap="round" stroke-linejoin="round" stroke="navy" stroke-miterlimit="10"/></g><g clip-path="url(#bb)"><path d="M254.441 211.2h1.38" fill="none" stroke-width=".9" stroke-linecap="round" stroke-linejoin="round" stroke="navy" stroke-miterlimit="10"/></g><g clip-path="url(#bc)"><path d="M332.5 211.2h8.219" fill="none" stroke-width=".9" stroke-linecap="round" stroke-linejoin="round" stroke="navy" stroke-miterlimit="10"/></g><g clip-path="url(#bd)"><path d="M254.441 211.98h1.38" fill="none" stroke-width=".9" stroke-linecap="round" stroke-linejoin="round" stroke="navy" stroke-miterlimit="10"/></g><g clip-path="url(#be)"><path d="M332.2 211.98h8.519" fill="none" stroke-width=".9" stroke-linecap="round" stroke-linejoin="round" stroke="navy" stroke-miterlimit="10"/></g><g clip-path="url(#bf)"><path d="M254.441 212.762h1.38" fill="none" stroke-width=".9" stroke-linecap="round" stroke-linejoin="round" stroke="navy" stroke-miterlimit="10"/></g><g clip-path="url(#bg)"><path d="M332.2 212.762h8.519" fill="none" stroke-width=".9" stroke-linecap="round" stroke-linejoin="round" stroke="navy" stroke-miterlimit="10"/></g><g clip-path="url(#bh)"><path d="M254.441 213.48h1.38" fill="none" stroke-width=".9" stroke-linecap="round" stroke-linejoin="round" stroke="navy" stroke-miterlimit="10"/></g><g clip-path="url(#bi)"><path d="M332.5 213.48h8.219" fill="none" stroke-width=".9" stroke-linecap="round" stroke-linejoin="round" stroke="navy" stroke-miterlimit="10"/></g><g clip-path="url(#bj)"><path d="M254.441 214.262h1.38" fill="none" stroke-width=".9" stroke-linecap="round" stroke-linejoin="round" stroke="navy" stroke-miterlimit="10"/></g><g clip-path="url(#bk)"><path d="M332.8 214.262h7.919" fill="none" stroke-width=".9" stroke-linecap="round" stroke-linejoin="round" stroke="navy" stroke-miterlimit="10"/></g><g clip-path="url(#bl)"><path d="M254.441 215.04h1.38" fill="none" stroke-width=".9" stroke-linecap="round" stroke-linejoin="round" stroke="navy" stroke-miterlimit="10"/></g><g clip-path="url(#bm)"><path d="M333.102 215.04h7.617" fill="none" stroke-width=".9" stroke-linecap="round" stroke-linejoin="round" stroke="navy" stroke-miterlimit="10"/></g><g clip-path="url(#bn)"><path d="M254.441 215.82h1.38" fill="none" stroke-width=".9" stroke-linecap="round" stroke-linejoin="round" stroke="navy" stroke-miterlimit="10"/></g><g clip-path="url(#bo)"><path d="M333.102 215.82h7.617" fill="none" stroke-width=".9" stroke-linecap="round" stroke-linejoin="round" stroke="navy" stroke-miterlimit="10"/></g><g clip-path="url(#bp)"><path d="M254.441 216.602h1.38" fill="none" stroke-width=".9" stroke-linecap="round" stroke-linejoin="round" stroke="navy" stroke-miterlimit="10"/></g><g clip-path="url(#bq)"><path d="M333.102 216.602h7.617" fill="none" stroke-width=".9" stroke-linecap="round" stroke-linejoin="round" stroke="navy" stroke-miterlimit="10"/></g><g clip-path="url(#br)"><path d="M254.441 217.379h1.38" fill="none" stroke-width=".9" stroke-linecap="round" stroke-linejoin="round" stroke="navy" stroke-miterlimit="10"/></g><g clip-path="url(#bs)"><path d="M333.102 217.379h7.617" fill="none" stroke-width=".9" stroke-linecap="round" stroke-linejoin="round" stroke="navy" stroke-miterlimit="10"/></g><g clip-path="url(#bt)"><path d="M254.441 218.16h1.38" fill="none" stroke-width=".9" stroke-linecap="round" stroke-linejoin="round" stroke="navy" stroke-miterlimit="10"/></g><g clip-path="url(#bu)"><path d="M332.86 218.16h7.859" fill="none" stroke-width=".9" stroke-linecap="round" stroke-linejoin="round" stroke="navy" stroke-miterlimit="10"/></g><g clip-path="url(#bv)"><path d="M254.441 218.879h1.38" fill="none" stroke-width=".9" stroke-linecap="round" stroke-linejoin="round" stroke="navy" stroke-miterlimit="10"/></g><g clip-path="url(#bw)"><path d="M332.5 218.879h8.219" fill="none" stroke-width=".9" stroke-linecap="round" stroke-linejoin="round" stroke="navy" stroke-miterlimit="10"/></g><g clip-path="url(#bx)"><path d="M254.441 219.66h1.38" fill="none" stroke-width=".9" stroke-linecap="round" stroke-linejoin="round" stroke="navy" stroke-miterlimit="10"/></g><g clip-path="url(#by)"><path d="M332.2 219.66h8.519" fill="none" stroke-width=".9" stroke-linecap="round" stroke-linejoin="round" stroke="navy" stroke-miterlimit="10"/></g><g clip-path="url(#bz)"><path d="M254.441 220.441h1.38" fill="none" stroke-width=".9" stroke-linecap="round" stroke-linejoin="round" stroke="navy" stroke-miterlimit="10"/></g><g clip-path="url(#bA)"><path d="M331.66 220.441h9.059" fill="none" stroke-width=".9" stroke-linecap="round" stroke-linejoin="round" stroke="navy" stroke-miterlimit="10"/></g><g clip-path="url(#bB)"><path d="M254.441 221.219h1.38" fill="none" stroke-width=".9" stroke-linecap="round" stroke-linejoin="round" stroke="navy" stroke-miterlimit="10"/></g><g clip-path="url(#bC)"><path d="M330.879 221.219h9.84" fill="none" stroke-width=".9" stroke-linecap="round" stroke-linejoin="round" stroke="navy" stroke-miterlimit="10"/></g><g clip-path="url(#bD)"><path d="M254.441 222h1.38" fill="none" stroke-width=".9" stroke-linecap="round" stroke-linejoin="round" stroke="navy" stroke-miterlimit="10"/></g><g clip-path="url(#bE)"><path d="M330.04 222h10.679" fill="none" stroke-width=".9" stroke-linecap="round" stroke-linejoin="round" stroke="navy" stroke-miterlimit="10"/></g><g clip-path="url(#bF)"><path d="M254.441 222.781h1.38" fill="none" stroke-width=".9" stroke-linecap="round" stroke-linejoin="round" stroke="navy" stroke-miterlimit="10"/></g><g clip-path="url(#bG)"><path d="M328.18 222.781h12.539" fill="none" stroke-width=".9" stroke-linecap="round" stroke-linejoin="round" stroke="navy" stroke-miterlimit="10"/></g><g clip-path="url(#bH)"><path d="M254.441 223.559h1.38" fill="none" stroke-width=".9" stroke-linecap="round" stroke-linejoin="round" stroke="navy" stroke-miterlimit="10"/></g><g clip-path="url(#bI)"><path d="M324.941 223.559h15.778" fill="none" stroke-width=".9" stroke-linecap="round" stroke-linejoin="round" stroke="navy" stroke-miterlimit="10"/></g><g clip-path="url(#bJ)"><path d="M254.441 224.34h1.38" fill="none" stroke-width=".9" stroke-linecap="round" stroke-linejoin="round" stroke="navy" stroke-miterlimit="10"/></g><g clip-path="url(#bK)"><path d="M324.941 224.34h15.778" fill="none" stroke-width=".9" stroke-linecap="round" stroke-linejoin="round" stroke="navy" stroke-miterlimit="10"/></g><g clip-path="url(#bL)"><path d="M254.441 225.059h1.38" fill="none" stroke-width=".9" stroke-linecap="round" stroke-linejoin="round" stroke="navy" stroke-miterlimit="10"/></g><g clip-path="url(#bM)"><path d="M324.941 225.059h15.778" fill="none" stroke-width=".9" stroke-linecap="round" stroke-linejoin="round" stroke="navy" stroke-miterlimit="10"/></g><g clip-path="url(#bN)"><path d="M254.441 225.84h1.38" fill="none" stroke-width=".9" stroke-linecap="round" stroke-linejoin="round" stroke="navy" stroke-miterlimit="10"/></g><g clip-path="url(#bO)"><path d="M324.941 225.84h15.778" fill="none" stroke-width=".9" stroke-linecap="round" stroke-linejoin="round" stroke="navy" stroke-miterlimit="10"/></g><g clip-path="url(#bP)"><path d="M254.441 226.621h1.38" fill="none" stroke-width=".9" stroke-linecap="round" stroke-linejoin="round" stroke="navy" stroke-miterlimit="10"/></g><g clip-path="url(#bQ)"><path d="M324.941 226.621h15.778" fill="none" stroke-width=".9" stroke-linecap="round" stroke-linejoin="round" stroke="navy" stroke-miterlimit="10"/></g><g clip-path="url(#bR)"><path d="M254.441 227.398h1.38" fill="none" stroke-width=".9" stroke-linecap="round" stroke-linejoin="round" stroke="navy" stroke-miterlimit="10"/></g><path d="M325.121 227.398h6.18M333.219 227.398h.601" fill="none" stroke-width=".9" stroke-linecap="round" stroke-linejoin="round" stroke="navy" stroke-miterlimit="10"/><g clip-path="url(#bS)"><path d="M335.738 227.398h4.98" fill="none" stroke-width=".9" stroke-linecap="round" stroke-linejoin="round" stroke="navy" stroke-miterlimit="10"/></g><g clip-path="url(#bT)"><path d="M254.441 228.18h1.38" fill="none" stroke-width=".9" stroke-linecap="round" stroke-linejoin="round" stroke="navy" stroke-miterlimit="10"/></g><path d="M325.422 228.18h5.039M333.219 228.18h.601" fill="none" stroke-width=".9" stroke-linecap="round" stroke-linejoin="round" stroke="navy" stroke-miterlimit="10"/><g clip-path="url(#bU)"><path d="M336.578 228.18h4.14" fill="none" stroke-width=".9" stroke-linecap="round" stroke-linejoin="round" stroke="navy" stroke-miterlimit="10"/></g><g clip-path="url(#bV)"><path d="M254.441 228.96h1.38" fill="none" stroke-width=".9" stroke-linecap="round" stroke-linejoin="round" stroke="navy" stroke-miterlimit="10"/></g><path d="M325.781 228.96h4.2M333.219 228.96h.601" fill="none" stroke-width=".9" stroke-linecap="round" stroke-linejoin="round" stroke="navy" stroke-miterlimit="10"/><g clip-path="url(#bW)"><path d="M337 228.96h3.719" fill="none" stroke-width=".9" stroke-linecap="round" stroke-linejoin="round" stroke="navy" stroke-miterlimit="10"/></g><g clip-path="url(#bX)"><path d="M254.441 229.738h1.38" fill="none" stroke-width=".9" stroke-linecap="round" stroke-linejoin="round" stroke="navy" stroke-miterlimit="10"/></g><path d="M310.781 229.738h1.617M325.898 229.738h3.84M333.219 229.738h.601" fill="none" stroke-width=".9" stroke-linecap="round" stroke-linejoin="round" stroke="navy" stroke-miterlimit="10"/><g clip-path="url(#bY)"><path d="M337.3 229.738h3.419" fill="none" stroke-width=".9" stroke-linecap="round" stroke-linejoin="round" stroke="navy" stroke-miterlimit="10"/></g><g clip-path="url(#bZ)"><path d="M254.441 230.52h1.38" fill="none" stroke-width=".9" stroke-linecap="round" stroke-linejoin="round" stroke="navy" stroke-miterlimit="10"/></g><path d="M310.781 230.52h1.617M325.898 230.52h7.32" fill="none" stroke-width=".9" stroke-linecap="round" stroke-linejoin="round" stroke="navy" stroke-miterlimit="10"/><g clip-path="url(#ca)"><path d="M333.82 230.52h6.899" fill="none" stroke-width=".9" stroke-linecap="round" stroke-linejoin="round" stroke="navy" stroke-miterlimit="10"/></g><g clip-path="url(#cb)"><path d="M254.441 231.238h1.38" fill="none" stroke-width=".9" stroke-linecap="round" stroke-linejoin="round" stroke="navy" stroke-miterlimit="10"/></g><path d="M310.781 231.238h1.617M325.898 231.238h3.782M333.219 231.238h.601" fill="none" stroke-width=".9" stroke-linecap="round" stroke-linejoin="round" stroke="navy" stroke-miterlimit="10"/><g clip-path="url(#cc)"><path d="M337.36 231.238h3.359" fill="none" stroke-width=".9" stroke-linecap="round" stroke-linejoin="round" stroke="navy" stroke-miterlimit="10"/></g><g clip-path="url(#cd)"><path d="M254.441 232.02h1.5" fill="none" stroke-width=".9" stroke-linecap="round" stroke-linejoin="round" stroke="navy" stroke-miterlimit="10"/></g><path d="M310.719 232.02h1.68M325.84 232.02h4.082M333.219 232.02h.601" fill="none" stroke-width=".9" stroke-linecap="round" stroke-linejoin="round" stroke="navy" stroke-miterlimit="10"/><g clip-path="url(#ce)"><path d="M337.121 232.02h3.598" fill="none" stroke-width=".9" stroke-linecap="round" stroke-linejoin="round" stroke="navy" stroke-miterlimit="10"/></g><g clip-path="url(#cf)"><path d="M254.441 232.8h1.797" fill="none" stroke-width=".9" stroke-linecap="round" stroke-linejoin="round" stroke="navy" stroke-miterlimit="10"/></g><path d="M310.36 232.8h2.402M325.54 232.8h4.8M333.219 232.8h.601" fill="none" stroke-width=".9" stroke-linecap="round" stroke-linejoin="round" stroke="navy" stroke-miterlimit="10"/><g clip-path="url(#cg)"><path d="M336.7 232.8h4.019" fill="none" stroke-width=".9" stroke-linecap="round" stroke-linejoin="round" stroke="navy" stroke-miterlimit="10"/></g><g clip-path="url(#ch)"><path d="M254.441 233.578h2.098" fill="none" stroke-width=".9" stroke-linecap="round" stroke-linejoin="round" stroke="navy" stroke-miterlimit="10"/></g><path d="M310.059 233.578h3M325.18 233.578H331M333.219 233.578h.601" fill="none" stroke-width=".9" stroke-linecap="round" stroke-linejoin="round" stroke="navy" stroke-miterlimit="10"/><g clip-path="url(#ci)"><path d="M335.98 233.578h4.739" fill="none" stroke-width=".9" stroke-linecap="round" stroke-linejoin="round" stroke="navy" stroke-miterlimit="10"/></g><g clip-path="url(#cj)"><path d="M254.441 234.36h2.7" fill="none" stroke-width=".9" stroke-linecap="round" stroke-linejoin="round" stroke="navy" stroke-miterlimit="10"/></g><path d="M309.52 234.36h3.84M324.879 234.36h7.68M333.219 234.36h.601" fill="none" stroke-width=".9" stroke-linecap="round" stroke-linejoin="round" stroke="navy" stroke-miterlimit="10"/><g clip-path="url(#ck)"><path d="M334.48 234.36h6.239" fill="none" stroke-width=".9" stroke-linecap="round" stroke-linejoin="round" stroke="navy" stroke-miterlimit="10"/></g><g clip-path="url(#cl)"><path d="M254.441 235.14h3.48" fill="none" stroke-width=".9" stroke-linecap="round" stroke-linejoin="round" stroke="navy" stroke-miterlimit="10"/></g><path d="M308.738 235.14h5.403" fill="none" stroke-width=".9" stroke-linecap="round" stroke-linejoin="round" stroke="navy" stroke-miterlimit="10"/><g clip-path="url(#cm)"><path d="M324.16 235.14h16.559" fill="none" stroke-width=".9" stroke-linecap="round" stroke-linejoin="round" stroke="navy" stroke-miterlimit="10"/></g><g clip-path="url(#cn)"><path d="M254.441 235.922h4.797" fill="none" stroke-width=".9" stroke-linecap="round" stroke-linejoin="round" stroke="navy" stroke-miterlimit="10"/></g><path d="M307.719 235.922h7.14" fill="none" stroke-width=".9" stroke-linecap="round" stroke-linejoin="round" stroke="navy" stroke-miterlimit="10"/><g clip-path="url(#co)"><path d="M323.379 235.922h17.34" fill="none" stroke-width=".9" stroke-linecap="round" stroke-linejoin="round" stroke="navy" stroke-miterlimit="10"/></g><g clip-path="url(#cp)"><path d="M254.441 236.64h61.739" fill="none" stroke-width=".9" stroke-linecap="round" stroke-linejoin="round" stroke="navy" stroke-miterlimit="10"/></g><g clip-path="url(#cq)"><path d="M322.121 236.64h18.598" fill="none" stroke-width=".9" stroke-linecap="round" stroke-linejoin="round" stroke="navy" stroke-miterlimit="10"/></g><g clip-path="url(#cr)"><path d="M254.441 237.422h86.278" fill="none" stroke-width=".9" stroke-linecap="round" stroke-linejoin="round" stroke="navy" stroke-miterlimit="10"/></g><path d="M283.18 230.578h21.601M326.32 194.64h-64.68M261.64 194.64v35.938M261.64 230.578h21.54" fill="none" stroke-width="3.6" stroke-linecap="round" stroke-linejoin="round" stroke="navy" stroke-miterlimit="10"/><path d="M280.84 209.04a2.278 2.278 0 0 1 2.281-2.278 2.277 2.277 0 0 1 2.277 2.277 2.278 2.278 0 1 1-4.558 0" fill-rule="evenodd" fill="green"/><path d="M280.84 209.04a2.278 2.278 0 0 1 2.281-2.278 2.277 2.277 0 0 1 2.277 2.277 2.278 2.278 0 1 1-4.558 0zm0 0" fill="none" stroke-width=".12" stroke-linecap="round" stroke-linejoin="round" stroke="green" stroke-miterlimit="10"/><path d="M281.98 209.04a1.14 1.14 0 1 1 2.282 0 1.14 1.14 0 0 1-1.14 1.14c-.634 0-1.142-.508-1.142-1.14" fill-rule="evenodd" fill="#fff"/><path d="M281.98 209.04a1.14 1.14 0 1 1 2.282 0 1.14 1.14 0 0 1-1.14 1.14c-.634 0-1.142-.508-1.142-1.14zm0 0" fill="none" stroke-width=".06" stroke-linecap="square" stroke-linejoin="bevel" stroke="#000" stroke-miterlimit="10"/><path d="M292.66 206.762h-4.558v4.558h4.558zm0 0" fill="green" stroke-width=".12" stroke-linecap="round" stroke-linejoin="round" stroke="green" stroke-miterlimit="10"/><path d="M289.18 209.04c0-.63.511-1.142 1.14-1.142.63 0 1.14.512 1.14 1.141a1.14 1.14 0 1 1-2.28 0" fill-rule="evenodd" fill="#fff"/><path d="M289.18 209.04c0-.63.511-1.142 1.14-1.142.63 0 1.14.512 1.14 1.141a1.14 1.14 0 1 1-2.28 0zm0 0" fill="none" stroke-width=".06" stroke-linecap="square" stroke-linejoin="bevel" stroke="#000" stroke-miterlimit="10"/><path d="M302.441 201.84a2.28 2.28 0 0 1 2.278-2.281 2.281 2.281 0 0 1 0 4.562 2.28 2.28 0 0 1-2.278-2.281" fill-rule="evenodd" fill="green"/><path d="M302.441 201.84a2.28 2.28 0 0 1 2.278-2.281 2.281 2.281 0 0 1 0 4.562 2.28 2.28 0 0 1-2.278-2.281zm0 0" fill="none" stroke-width=".12" stroke-linecap="round" stroke-linejoin="round" stroke="green" stroke-miterlimit="10"/><path d="M303.578 201.84a1.14 1.14 0 1 1 1.14 1.14c-.628 0-1.14-.511-1.14-1.14" fill-rule="evenodd" fill="#fff"/><path d="M303.578 201.84a1.14 1.14 0 1 1 1.14 1.14c-.628 0-1.14-.511-1.14-1.14zm0 0" fill="none" stroke-width=".06" stroke-linecap="square" stroke-linejoin="bevel" stroke="#000" stroke-miterlimit="10"/><path d="M299.86 199.559h-4.56v4.562h4.56zm0 0" fill="green" stroke-width=".12" stroke-linecap="round" stroke-linejoin="round" stroke="green" stroke-miterlimit="10"/><path d="M296.379 201.84c0-.63.512-1.14 1.14-1.14.63 0 1.141.51 1.141 1.14 0 .629-.512 1.14-1.14 1.14-.63 0-1.141-.511-1.141-1.14" fill-rule="evenodd" fill="#fff"/><path d="M296.379 201.84c0-.63.512-1.14 1.14-1.14.63 0 1.141.51 1.141 1.14 0 .629-.512 1.14-1.14 1.14-.63 0-1.141-.511-1.141-1.14zm0 0" fill="none" stroke-width=".06" stroke-linecap="square" stroke-linejoin="bevel" stroke="#000" stroke-miterlimit="10"/><path d="M323.738 187.5a2.521 2.521 0 0 1 5.043 0 2.52 2.52 0 0 1-5.043 0" fill-rule="evenodd" fill="green"/><path d="M323.738 187.5a2.521 2.521 0 0 1 5.043 0 2.52 2.52 0 0 1-5.043 0zm0 0" fill="none" stroke-width=".12" stroke-linecap="round" stroke-linejoin="round" stroke="green" stroke-miterlimit="10"/><path d="M324.82 187.5a1.44 1.44 0 1 1 2.881-.002 1.44 1.44 0 0 1-2.88.002" fill-rule="evenodd" fill="#fff"/><path d="M324.82 187.5a1.44 1.44 0 1 1 2.881-.002 1.44 1.44 0 0 1-2.88.002zm0 0" fill="none" stroke-width=".06" stroke-linecap="square" stroke-linejoin="bevel" stroke="#000" stroke-miterlimit="10"/><path d="M323.738 194.64a2.519 2.519 0 0 1 2.524-2.519 2.52 2.52 0 1 1-2.523 2.52" fill-rule="evenodd" fill="green"/><path d="M323.738 194.64a2.519 2.519 0 0 1 2.524-2.519 2.52 2.52 0 1 1-2.523 2.52zm0 0" fill="none" stroke-width=".12" stroke-linecap="round" stroke-linejoin="round" stroke="green" stroke-miterlimit="10"/><path d="M324.82 194.64a1.44 1.44 0 1 1 2.881-.001 1.44 1.44 0 0 1-2.88.002" fill-rule="evenodd" fill="#fff"/><path d="M324.82 194.64a1.44 1.44 0 1 1 2.881-.001 1.44 1.44 0 0 1-2.88.002zm0 0" fill="none" stroke-width=".06" stroke-linecap="square" stroke-linejoin="bevel" stroke="#000" stroke-miterlimit="10"/><path d="M323.738 201.84a2.521 2.521 0 0 1 5.043 0 2.52 2.52 0 0 1-5.043 0" fill-rule="evenodd" fill="green"/><path d="M323.738 201.84a2.521 2.521 0 0 1 5.043 0 2.52 2.52 0 0 1-5.043 0zm0 0" fill="none" stroke-width=".12" stroke-linecap="round" stroke-linejoin="round" stroke="green" stroke-miterlimit="10"/><path d="M324.82 201.84c0-.793.645-1.442 1.442-1.442a1.442 1.442 0 0 1 0 2.883 1.44 1.44 0 0 1-1.442-1.441" fill-rule="evenodd" fill="#fff"/><path d="M324.82 201.84c0-.793.645-1.442 1.442-1.442a1.442 1.442 0 0 1 0 2.883 1.44 1.44 0 0 1-1.442-1.441zm0 0" fill="none" stroke-width=".06" stroke-linecap="square" stroke-linejoin="bevel" stroke="#000" stroke-miterlimit="10"/><path d="M323.738 209.04a2.521 2.521 0 0 1 5.043 0 2.518 2.518 0 0 1-2.52 2.519 2.519 2.519 0 0 1-2.523-2.52" fill-rule="evenodd" fill="green"/><path d="M323.738 209.04a2.521 2.521 0 0 1 5.043 0 2.518 2.518 0 0 1-2.52 2.519 2.519 2.519 0 0 1-2.523-2.52zm0 0" fill="none" stroke-width=".12" stroke-linecap="round" stroke-linejoin="round" stroke="green" stroke-miterlimit="10"/><path d="M324.82 209.04a1.44 1.44 0 1 1 2.88.003 1.44 1.44 0 0 1-2.88-.004" fill-rule="evenodd" fill="#fff"/><path d="M324.82 209.04a1.44 1.44 0 1 1 2.88.003 1.44 1.44 0 0 1-2.88-.004zm0 0" fill="none" stroke-width=".06" stroke-linecap="square" stroke-linejoin="bevel" stroke="#000" stroke-miterlimit="10"/><path d="M267.102 187.5a1.68 1.68 0 1 1 3.36 0 1.68 1.68 0 0 1-3.36 0" fill-rule="evenodd" fill="green"/><path d="M267.102 187.5a1.68 1.68 0 1 1 3.36 0 1.68 1.68 0 0 1-3.36 0zm0 0" fill="none" stroke-width=".12" stroke-linecap="round" stroke-linejoin="round" stroke="green" stroke-miterlimit="10"/><path d="M267.762 187.5c0-.531.457-.96 1.02-.96.562 0 1.019.429 1.019.96 0 .531-.457.96-1.02.96-.562 0-1.02-.429-1.02-.96" fill-rule="evenodd" fill="#fff"/><path d="M267.762 187.5c0-.531.457-.96 1.02-.96.562 0 1.019.429 1.019.96 0 .531-.457.96-1.02.96-.562 0-1.02-.429-1.02-.96zm0 0" fill="none" stroke-width=".06" stroke-linecap="square" stroke-linejoin="bevel" stroke="#000" stroke-miterlimit="10"/><path d="M267.102 209.04a1.68 1.68 0 1 1 3.359-.001 1.68 1.68 0 0 1-3.36 0" fill-rule="evenodd" fill="green"/><path d="M267.102 209.04a1.68 1.68 0 1 1 3.359-.001 1.68 1.68 0 0 1-3.36 0zm0 0" fill="none" stroke-width=".12" stroke-linecap="round" stroke-linejoin="round" stroke="green" stroke-miterlimit="10"/><path d="M267.762 209.04c0-.528.457-.962 1.02-.962.562 0 1.019.434 1.019.961 0 .531-.457.961-1.02.961-.562 0-1.02-.43-1.02-.96" fill-rule="evenodd" fill="#fff"/><path d="M267.762 209.04c0-.528.457-.962 1.02-.962.562 0 1.019.434 1.019.961 0 .531-.457.961-1.02.961-.562 0-1.02-.43-1.02-.96zm0 0" fill="none" stroke-width=".06" stroke-linecap="square" stroke-linejoin="bevel" stroke="#000" stroke-miterlimit="10"/><path d="M274.238 187.5c0-.93.754-1.68 1.684-1.68a1.68 1.68 0 1 1 0 3.36 1.68 1.68 0 0 1-1.684-1.68" fill-rule="evenodd" fill="green"/><path d="M274.238 187.5c0-.93.754-1.68 1.684-1.68a1.68 1.68 0 1 1 0 3.36 1.68 1.68 0 0 1-1.684-1.68zm0 0" fill="none" stroke-width=".12" stroke-linecap="round" stroke-linejoin="round" stroke="green" stroke-miterlimit="10"/><path d="M274.898 187.5c0-.531.457-.96 1.024-.96.562 0 1.02.429 1.02.96 0 .531-.458.96-1.02.96-.567 0-1.024-.429-1.024-.96" fill-rule="evenodd" fill="#fff"/><path d="M274.898 187.5c0-.531.457-.96 1.024-.96.562 0 1.02.429 1.02.96 0 .531-.458.96-1.02.96-.567 0-1.024-.429-1.024-.96zm0 0" fill="none" stroke-width=".06" stroke-linecap="square" stroke-linejoin="bevel" stroke="#000" stroke-miterlimit="10"/><path d="M274.238 209.04a1.682 1.682 0 0 1 3.363 0c0 .929-.753 1.679-1.68 1.679a1.68 1.68 0 0 1-1.683-1.68" fill-rule="evenodd" fill="green"/><path d="M274.238 209.04a1.682 1.682 0 0 1 3.363 0c0 .929-.753 1.679-1.68 1.679a1.68 1.68 0 0 1-1.683-1.68zm0 0" fill="none" stroke-width=".12" stroke-linecap="round" stroke-linejoin="round" stroke="green" stroke-miterlimit="10"/><path d="M274.898 209.04c0-.528.457-.962 1.024-.962.562 0 1.02.434 1.02.961 0 .531-.458.961-1.02.961-.567 0-1.024-.43-1.024-.96" fill-rule="evenodd" fill="#fff"/><path d="M274.898 209.04c0-.528.457-.962 1.024-.962.562 0 1.02.434 1.02.961 0 .531-.458.961-1.02.961-.567 0-1.024-.43-1.024-.96zm0 0" fill="none" stroke-width=".06" stroke-linecap="square" stroke-linejoin="bevel" stroke="#000" stroke-miterlimit="10"/><path d="M310.18 187.5a1.68 1.68 0 1 1 3.359 0 1.68 1.68 0 0 1-3.36 0" fill-rule="evenodd" fill="green"/><path d="M310.18 187.5a1.68 1.68 0 1 1 3.359 0 1.68 1.68 0 0 1-3.36 0zm0 0" fill="none" stroke-width=".12" stroke-linecap="round" stroke-linejoin="round" stroke="green" stroke-miterlimit="10"/><path d="M310.84 187.5c0-.531.457-.96 1.02-.96.562 0 1.019.429 1.019.96 0 .531-.457.96-1.02.96-.562 0-1.02-.429-1.02-.96" fill-rule="evenodd" fill="#fff"/><path d="M310.84 187.5c0-.531.457-.96 1.02-.96.562 0 1.019.429 1.019.96 0 .531-.457.96-1.02.96-.562 0-1.02-.429-1.02-.96zm0 0" fill="none" stroke-width=".06" stroke-linecap="square" stroke-linejoin="bevel" stroke="#000" stroke-miterlimit="10"/><path d="M310.18 209.04a1.68 1.68 0 1 1 3.36 0 1.68 1.68 0 0 1-3.36 0" fill-rule="evenodd" fill="green"/><path d="M310.18 209.04a1.68 1.68 0 1 1 3.36 0 1.68 1.68 0 0 1-3.36 0zm0 0" fill="none" stroke-width=".12" stroke-linecap="round" stroke-linejoin="round" stroke="green" stroke-miterlimit="10"/><path d="M310.84 209.04c0-.528.457-.962 1.02-.962.562 0 1.019.434 1.019.961 0 .531-.457.961-1.02.961-.562 0-1.02-.43-1.02-.96" fill-rule="evenodd" fill="#fff"/><path d="M310.84 209.04c0-.528.457-.962 1.02-.962.562 0 1.019.434 1.019.961 0 .531-.457.961-1.02.961-.562 0-1.02-.43-1.02-.96zm0 0" fill="none" stroke-width=".06" stroke-linecap="square" stroke-linejoin="bevel" stroke="#000" stroke-miterlimit="10"/><path d="M323.5 216.238a2.758 2.758 0 0 1 2.762-2.758 2.757 2.757 0 0 1 2.758 2.758 2.759 2.759 0 1 1-5.52 0" fill-rule="evenodd" fill="green"/><path d="M323.5 216.238a2.758 2.758 0 0 1 2.762-2.758 2.757 2.757 0 0 1 2.758 2.758 2.759 2.759 0 1 1-5.52 0zm0 0" fill="none" stroke-width=".12" stroke-linecap="round" stroke-linejoin="round" stroke="green" stroke-miterlimit="10"/><path d="M324.82 216.238a1.44 1.44 0 1 1 2.88.004 1.44 1.44 0 0 1-2.88-.004" fill-rule="evenodd" fill="#fff"/><path d="M324.82 216.238a1.44 1.44 0 1 1 2.88.004 1.44 1.44 0 0 1-2.88-.004zm0 0" fill="none" stroke-width=".06" stroke-linecap="square" stroke-linejoin="bevel" stroke="#000" stroke-miterlimit="10"/><path d="M330.7 230.578a2.76 2.76 0 1 1 5.52.006 2.76 2.76 0 0 1-5.52-.006" fill-rule="evenodd" fill="green"/><path d="M330.7 230.578a2.76 2.76 0 1 1 5.52.006 2.76 2.76 0 0 1-5.52-.006zm0 0" fill="none" stroke-width=".12" stroke-linecap="round" stroke-linejoin="round" stroke="green" stroke-miterlimit="10"/><path d="M332.02 230.578a1.44 1.44 0 1 1 2.879.004 1.44 1.44 0 0 1-2.88-.004" fill-rule="evenodd" fill="#fff"/><path d="M332.02 230.578a1.44 1.44 0 1 1 2.879.004 1.44 1.44 0 0 1-2.88-.004zm0 0" fill="none" stroke-width=".06" stroke-linecap="square" stroke-linejoin="bevel" stroke="#000" stroke-miterlimit="10"/><path d="M316.3 230.578a2.757 2.757 0 0 1 2.759-2.758 2.759 2.759 0 1 1-2.758 2.758" fill-rule="evenodd" fill="green"/><path d="M316.3 230.578a2.757 2.757 0 0 1 2.759-2.758 2.759 2.759 0 1 1-2.758 2.758zm0 0" fill="none" stroke-width=".12" stroke-linecap="round" stroke-linejoin="round" stroke="green" stroke-miterlimit="10"/><path d="M317.621 230.578a1.439 1.439 0 1 1 2.878.003 1.439 1.439 0 0 1-2.878-.003" fill-rule="evenodd" fill="#fff"/><path d="M317.621 230.578a1.439 1.439 0 1 1 2.878.003 1.439 1.439 0 0 1-2.878-.003zm0 0" fill="none" stroke-width=".06" stroke-linecap="square" stroke-linejoin="bevel" stroke="#000" stroke-miterlimit="10"/><path d="M281.078 216.238a2.041 2.041 0 1 1 4.083.005 2.041 2.041 0 0 1-4.083-.005" fill-rule="evenodd" fill="green"/><path d="M281.078 216.238a2.041 2.041 0 1 1 4.083.005 2.041 2.041 0 0 1-4.083-.005zm0 0" fill="none" stroke-width=".12" stroke-linecap="round" stroke-linejoin="round" stroke="green" stroke-miterlimit="10"/><path d="M282.102 216.238c0-.527.457-.957 1.02-.957.562 0 1.019.43 1.019.957 0 .532-.457.961-1.02.961-.562 0-1.02-.43-1.02-.96" fill-rule="evenodd" fill="#fff"/><path d="M282.102 216.238c0-.527.457-.957 1.02-.957.562 0 1.019.43 1.019.957 0 .532-.457.961-1.02.961-.562 0-1.02-.43-1.02-.96zm0 0" fill="none" stroke-width=".06" stroke-linecap="square" stroke-linejoin="bevel" stroke="#000" stroke-miterlimit="10"/><path d="M281.078 230.578a2.041 2.041 0 1 1 4.083.005 2.041 2.041 0 0 1-4.083-.005" fill-rule="evenodd" fill="green"/><path d="M281.078 230.578a2.041 2.041 0 1 1 4.083.005 2.041 2.041 0 0 1-4.083-.005zm0 0" fill="none" stroke-width=".12" stroke-linecap="round" stroke-linejoin="round" stroke="green" stroke-miterlimit="10"/><path d="M282.102 230.578c0-.527.457-.957 1.02-.957.562 0 1.019.43 1.019.957 0 .531-.457.961-1.02.961-.562 0-1.02-.43-1.02-.96" fill-rule="evenodd" fill="#fff"/><path d="M282.102 230.578c0-.527.457-.957 1.02-.957.562 0 1.019.43 1.019.957 0 .531-.457.961-1.02.961-.562 0-1.02-.43-1.02-.96zm0 0" fill="none" stroke-width=".06" stroke-linecap="square" stroke-linejoin="bevel" stroke="#000" stroke-miterlimit="10"/><path d="M281.078 223.379a2.041 2.041 0 1 1 4.083.005 2.041 2.041 0 0 1-4.083-.005" fill-rule="evenodd" fill="green"/><path d="M281.078 223.379a2.041 2.041 0 1 1 4.083.005 2.041 2.041 0 0 1-4.083-.005zm0 0" fill="none" stroke-width=".12" stroke-linecap="round" stroke-linejoin="round" stroke="green" stroke-miterlimit="10"/><path d="M282.102 223.379c0-.527.457-.957 1.02-.957.562 0 1.019.43 1.019.957 0 .531-.457.96-1.02.96-.562 0-1.02-.429-1.02-.96" fill-rule="evenodd" fill="#fff"/><path d="M282.102 223.379c0-.527.457-.957 1.02-.957.562 0 1.019.43 1.019.957 0 .531-.457.96-1.02.96-.562 0-1.02-.429-1.02-.96zm0 0" fill="none" stroke-width=".06" stroke-linecap="square" stroke-linejoin="bevel" stroke="#000" stroke-miterlimit="10"/><path d="M302.68 216.238a2.04 2.04 0 1 1 4.08.003 2.04 2.04 0 0 1-4.08-.003" fill-rule="evenodd" fill="green"/><path d="M302.68 216.238a2.04 2.04 0 1 1 4.08.003 2.04 2.04 0 0 1-4.08-.003zm0 0" fill="none" stroke-width=".12" stroke-linecap="round" stroke-linejoin="round" stroke="green" stroke-miterlimit="10"/><path d="M303.7 216.238c0-.527.456-.957 1.019-.957.562 0 1.02.43 1.02.957 0 .532-.458.961-1.02.961-.563 0-1.02-.43-1.02-.96" fill-rule="evenodd" fill="#fff"/><path d="M303.7 216.238c0-.527.456-.957 1.019-.957.562 0 1.02.43 1.02.957 0 .532-.458.961-1.02.961-.563 0-1.02-.43-1.02-.96zm0 0" fill="none" stroke-width=".06" stroke-linecap="square" stroke-linejoin="bevel" stroke="#000" stroke-miterlimit="10"/><path d="M302.68 230.578a2.04 2.04 0 1 1 4.08.003 2.04 2.04 0 0 1-4.08-.003" fill-rule="evenodd" fill="green"/><path d="M302.68 230.578a2.04 2.04 0 1 1 4.08.003 2.04 2.04 0 0 1-4.08-.003zm0 0" fill="none" stroke-width=".12" stroke-linecap="round" stroke-linejoin="round" stroke="green" stroke-miterlimit="10"/><path d="M303.7 230.578c0-.527.456-.957 1.019-.957.562 0 1.02.43 1.02.957 0 .531-.458.961-1.02.961-.563 0-1.02-.43-1.02-.96" fill-rule="evenodd" fill="#fff"/><path d="M303.7 230.578c0-.527.456-.957 1.019-.957.562 0 1.02.43 1.02.957 0 .531-.458.961-1.02.961-.563 0-1.02-.43-1.02-.96zm0 0" fill="none" stroke-width=".06" stroke-linecap="square" stroke-linejoin="bevel" stroke="#000" stroke-miterlimit="10"/><path d="M302.68 223.379a2.04 2.04 0 1 1 4.08.003 2.04 2.04 0 0 1-4.08-.003" fill-rule="evenodd" fill="green"/><path d="M302.68 223.379a2.04 2.04 0 1 1 4.08.003 2.04 2.04 0 0 1-4.08-.003zm0 0" fill="none" stroke-width=".12" stroke-linecap="round" stroke-linejoin="round" stroke="green" stroke-miterlimit="10"/><path d="M303.7 223.379c0-.527.456-.957 1.019-.957.562 0 1.02.43 1.02.957 0 .531-.458.96-1.02.96-.563 0-1.02-.429-1.02-.96" fill-rule="evenodd" fill="#fff"/><path d="M303.7 223.379c0-.527.456-.957 1.019-.957.562 0 1.02.43 1.02.957 0 .531-.458.96-1.02.96-.563 0-1.02-.429-1.02-.96zm0 0" fill="none" stroke-width=".06" stroke-linecap="square" stroke-linejoin="bevel" stroke="#000" stroke-miterlimit="10"/><path d="M268.84 201.84v7.2" fill="none" stroke-width=".12" stroke-linecap="round" stroke-linejoin="round" stroke="olive" stroke-miterlimit="10"/></svg>