<svg xmlns="http://www.w3.org/2000/svg" xmlns:xlink="http://www.w3.org/1999/xlink" width="595pt" height="560" viewBox="0 0 595 420"><defs><symbol overflow="visible" id="a"><path d="M1.219.203H.312c.008.04.02.07.032.094A.264.264 0 0 0 .39.39c.03.03.062.054.093.078C.524.5.57.53.625.563l.25.125a.79.79 0 0 1 .266.218.523.523 0 0 1 .093.297.46.46 0 0 1-.046.203 1.26 1.26 0 0 1-.11.172.69.69 0 0 1-.39.125.68.68 0 0 1-.297-.062.352.352 0 0 1-.172-.157.617.617 0 0 1-.078-.14.476.476 0 0 1-.016-.125v-.11h.203c.008.063.016.11.016.141a.27.27 0 0 0 .047.11c.02.05.054.085.109.109a.337.337 0 0 0 .313.016.258.258 0 0 0 .109-.063.174.174 0 0 0 .062-.094.31.31 0 0 0 .032-.125c0-.137-.079-.25-.235-.344L.562.734A1.87 1.87 0 0 1 .329.578.601.601 0 0 1 .11.234 2.309 2.309 0 0 1 .08 0h1.14zm0 0"/></symbol><symbol overflow="visible" id="b"><path d="M.453.25h-.25V0h.25zm0 0"/></symbol><symbol overflow="visible" id="c"><path d="M1.25 1.703H.11V1.5h.921A4.717 4.717 0 0 1 .578.734a2.857 2.857 0 0 1-.14-.359A3.257 3.257 0 0 1 .328 0h.234c.02.133.047.266.079.39.039.133.086.266.14.391.063.125.13.242.203.36.082.125.172.254.266.39zm0 0"/></symbol><symbol overflow="visible" id="d"><path d="M.172 1.266V0h.203v.703c0 .063.004.117.016.172C.41.925.43.969.453 1c.031.04.067.07.11.094.05.02.101.031.156.031.07 0 .129-.027.172-.078A.217.217 0 0 0 .969.875V0h.203v.953c0 .05-.012.098-.031.14a.555.555 0 0 1-.079.11.253.253 0 0 1-.125.063.497.497 0 0 1-.171.03.435.435 0 0 1-.235-.062.62.62 0 0 1-.172-.187v.219zm0 0"/></symbol><symbol overflow="visible" id="e"><path d="M.438.797h.843V1H.438v.563h.953v.187H.219V0h.218zm0 0"/></symbol><symbol overflow="visible" id="o"><path d="M1.594 1.203c-.032.195-.106.344-.219.438a.698.698 0 0 1-.453.14.847.847 0 0 1-.328-.062.54.54 0 0 1-.235-.157.745.745 0 0 1-.187-.312A1.123 1.123 0 0 1 .109.86C.11.71.13.577.172.452A.891.891 0 0 1 .375.156.505.505 0 0 1 .594 0a.796.796 0 0 1 .312-.063c.426 0 .664.235.719.704h-.234a.358.358 0 0 0-.032-.157.401.401 0 0 0-.046-.109.342.342 0 0 0-.157-.188.634.634 0 0 0-.25-.046.57.57 0 0 0-.234.047.476.476 0 0 0-.188.14.953.953 0 0 0-.109.219 1.283 1.283 0 0 0-.031.312c0 .114.008.211.031.297.02.094.055.172.11.235a.52.52 0 0 0 .171.14.86.86 0 0 0 .235.063c.07-.012.132-.028.187-.047a.313.313 0 0 0 .156-.078.313.313 0 0 0 .079-.094.713.713 0 0 0 .046-.172zm0 0"/></symbol><symbol overflow="visible" id="p"><path d="M.625 1.219V0h.203v1.703H.703C.68 1.641.66 1.586.641 1.547a.239.239 0 0 0-.079-.094.53.53 0 0 0-.125-.062 1.87 1.87 0 0 0-.187-.032v-.14zm0 0"/></symbol><symbol overflow="visible" id="f"><path d="M-2.297 1.547V.359l1.25-.171v.265a.53.53 0 0 0-.094.094.262.262 0 0 0-.062.094.179.179 0 0 0-.031.093c-.008.04-.02.082-.032.125.012.082.028.149.047.204a.367.367 0 0 0 .11.156.52.52 0 0 0 .187.11c.063.019.137.034.219.046.086-.012.156-.027.219-.047a.597.597 0 0 0 .203-.14c.062-.063.101-.172.11-.329A.436.436 0 0 0-.267.563.686.686 0 0 0-.562.39V.109c.054.008.093.02.125.032.03.007.07.02.109.03A.64.64 0 0 1-.203.25.51.51 0 0 1 0 .5c.05.113.078.238.078.375a.774.774 0 0 1-.234.563.645.645 0 0 1-.25.156.961.961 0 0 1-.344.062.706.706 0 0 1-.297-.062.588.588 0 0 1-.234-.14.702.702 0 0 1-.235-.532.57.57 0 0 1 .047-.235A1.05 1.05 0 0 1-1.375.5l-.64.078v.969zm0 0"/></symbol><symbol overflow="visible" id="g"><path d="M-.344.625V.281H0v.344zm0 0"/></symbol><symbol overflow="visible" id="h"><path d="M-1.64.844H0v.281h-2.297V.937A.817.817 0 0 0-2.078.86a.434.434 0 0 0 .125-.11.541.541 0 0 0 .078-.172c.012-.062.023-.148.031-.25h.203zm0 0"/></symbol><symbol overflow="visible" id="i"><path d="M-2.36.453V.187H0v.266h-.656L-.922.72 0 1.297v.328L-1.11.937l-.577.579v-.344L-.97.453zm0 0"/></symbol><symbol overflow="visible" id="y"><path d="M-2.39 1.266c0-.18.03-.34.093-.485a.95.95 0 0 1 .25-.36c.106-.093.235-.167.39-.218a1.43 1.43 0 0 1 .5-.078c.188 0 .36.023.516.078.149.05.278.125.391.219.105.101.188.223.25.36.05.144.078.304.078.484 0 .132-.023.265-.062.39-.04.125-.102.239-.188.344a.667.667 0 0 1-.187.156.961.961 0 0 1-.235.125c-.082.04-.172.07-.265.094a1.379 1.379 0 0 1-.797-.063 1.054 1.054 0 0 1-.39-.234.843.843 0 0 1-.25-.36 1.081 1.081 0 0 1-.095-.452zm.265 0a.68.68 0 0 0 .078.328.748.748 0 0 0 .188.265.678.678 0 0 0 .312.172 1.298 1.298 0 0 0 .797 0 .957.957 0 0 0 .297-.172.845.845 0 0 0 .203-.265.78.78 0 0 0 .063-.328A.883.883 0 0 0-.25.922.765.765 0 0 0-.453.656.825.825 0 0 0-.75.484a1.23 1.23 0 0 0-.406-.062c-.145 0-.274.02-.39.062a.863.863 0 0 0-.313.172.799.799 0 0 0-.266.61zm0 0"/></symbol><symbol overflow="visible" id="z"><path d="M-2.36 1.781h1.657a.476.476 0 0 0 .219-.047.525.525 0 0 0 .203-.156c.062-.074.094-.21.094-.406A.676.676 0 0 0-.314.75.386.386 0 0 0-.469.61.681.681 0 0 0-.703.577H-2.36V.281h1.656c.125 0 .234.016.328.047.094.04.18.098.25.172a.81.81 0 0 1 .14.297 1.143 1.143 0 0 1 0 .75.732.732 0 0 1-.14.281.727.727 0 0 1-.25.188 1.136 1.136 0 0 1-.328.078H-2.36zm0 0"/></symbol><symbol overflow="visible" id="A"><path d="M-2.094 1.14v.782h-.265V.062h.265v.782H0v.297zm0 0"/></symbol><symbol overflow="visible" id="j"><path d="M.25 0h1.063c.113 0 .21.016.296.047a.528.528 0 0 1 .22.156.644.644 0 0 1 .14.203.745.745 0 0 1 .047.266c0 .144-.04.258-.11.344-.062.093-.172.171-.328.234a.46.46 0 0 1 .25.188A.68.68 0 0 1 1.86 2a.539.539 0 0 1-.14.188.493.493 0 0 1-.219.124.817.817 0 0 1-.281.047H.25zm.313 1.344v.75h.578a.6.6 0 0 0 .203-.031.743.743 0 0 0 .14-.047.38.38 0 0 0 .125-.297.48.48 0 0 0-.03-.172.31.31 0 0 0-.235-.188.997.997 0 0 0-.203-.015zm0-1.078v.812h.734a.497.497 0 0 0 .312-.11.814.814 0 0 0 .079-.14.463.463 0 0 0 .03-.156.48.48 0 0 0-.03-.172C1.663.457 1.64.414 1.609.375a.404.404 0 0 0-.14-.094.804.804 0 0 0-.172-.015zm0 0"/></symbol><symbol overflow="visible" id="k"><path d="M2.14 1.625c-.042.258-.14.453-.296.578-.149.125-.352.188-.61.188a1.22 1.22 0 0 1-.437-.079.714.714 0 0 1-.313-.203 1.503 1.503 0 0 1-.25-.437 1.552 1.552 0 0 1-.078-.516C.156.957.18.773.234.61A1.15 1.15 0 0 1 .5.203.676.676 0 0 1 .797 0c.125-.05.265-.078.422-.078.57 0 .894.312.968.937h-.312a1.325 1.325 0 0 0-.047-.218A.33.33 0 0 0 1.766.5a.442.442 0 0 0-.22-.234.638.638 0 0 0-.327-.079.732.732 0 0 0-.313.063.83.83 0 0 0-.25.203C.594.535.54.633.5.75a1.657 1.657 0 0 0-.047.406c0 .145.016.274.047.39.04.126.094.227.156.313a.58.58 0 0 0 .219.204.849.849 0 0 0 .328.062.634.634 0 0 0 .25-.047.653.653 0 0 0 .203-.094.69.69 0 0 0 .11-.156.566.566 0 0 0 .062-.203zm0 0"/></symbol><symbol overflow="visible" id="l"><path d="M1.547 2.297H.359l-.171-1.25h.265a.53.53 0 0 0 .094.094c.031.03.062.05.094.062a.17.17 0 0 0 .093.031c.04.008.082.02.125.032.082-.012.149-.028.204-.047a.367.367 0 0 0 .156-.11.505.505 0 0 0 .11-.187 1.42 1.42 0 0 0 .046-.219 1.325 1.325 0 0 0-.047-.219.597.597 0 0 0-.14-.203C1.125.22 1.016.18.859.171a.436.436 0 0 0-.296.095.686.686 0 0 0-.172.296H.109A.577.577 0 0 1 .141.438C.148.407.16.367.17.329A.605.605 0 0 1 .25.203.51.51 0 0 1 .5 0a.907.907 0 0 1 .375-.078.774.774 0 0 1 .563.234.64.64 0 0 1 .156.25.966.966 0 0 1 .062.344c0 .113-.023.21-.062.297a.588.588 0 0 1-.14.234.702.702 0 0 1-.532.235.57.57 0 0 1-.235-.047A1.05 1.05 0 0 1 .5 1.375l.078.64h.969zm0 0"/></symbol><symbol overflow="visible" id="m"><path d="M1.688 2.297H.155v-.281H1.39c-.137-.2-.258-.383-.36-.547A6.407 6.407 0 0 1 .78.984 3.087 3.087 0 0 1 .594.516 4.086 4.086 0 0 1 .454 0H.75a4.533 4.533 0 0 0 .313 1.047c.082.164.171.332.265.5.102.164.223.332.36.5zm0 0"/></symbol><symbol overflow="visible" id="n"><path d="M.453 2.36H.187V0h.266v.656L.72.922 1.297 0h.328L.937 1.11l.579.577h-.344L.453.97zm0 0"/></symbol><symbol overflow="visible" id="q"><path d="M.61 1.016h.765c.133 0 .234-.04.297-.11.062-.062.094-.168.094-.312V.39c0-.075.004-.149.015-.22A.586.586 0 0 1 1.828 0h.375v.078a.146.146 0 0 0-.078.047.577.577 0 0 0-.078.219v.203c0 .094-.008.172-.016.234a.713.713 0 0 1-.047.172.34.34 0 0 1-.093.125.648.648 0 0 1-.157.078.603.603 0 0 1 .375.578c0 .196-.062.348-.187.454-.125.113-.305.171-.531.171H.297V0h.312zm0 .265v.813h.718a.6.6 0 0 0 .203-.031.38.38 0 0 0 .14-.063.403.403 0 0 0 .126-.313c0-.136-.043-.242-.125-.312-.074-.063-.188-.094-.344-.094zm0 0"/></symbol><symbol overflow="visible" id="r"><path d="M1.64.281H.423c.008.04.02.082.031.125a.43.43 0 0 0 .078.11A1.654 1.654 0 0 0 .845.75l.328.172c.156.094.273.195.36.312a.648.648 0 0 1 .062.657.566.566 0 0 1-.157.218.588.588 0 0 1-.234.141.942.942 0 0 1-.672-.031.702.702 0 0 1-.344-.406 3.786 3.786 0 0 1-.03-.173V1.5h.296c0 .07.004.133.016.188.008.05.023.097.047.14a.375.375 0 0 0 .156.156.477.477 0 0 0 .406.032.476.476 0 0 0 .156-.094c.04-.043.07-.09.094-.14a.497.497 0 0 0 .031-.173c0-.18-.105-.328-.312-.453L.75 1A2.553 2.553 0 0 1 .453.781.909.909 0 0 1 .25.578a.83.83 0 0 1-.094-.25A1.837 1.837 0 0 1 .11 0h1.532zm0 0"/></symbol><symbol overflow="visible" id="s"><path d="M.844 1.64V0h.281v2.297H.937a.817.817 0 0 0-.078-.219.434.434 0 0 0-.109-.125.541.541 0 0 0-.172-.078 2.396 2.396 0 0 0-.25-.031V1.64zm0 0"/></symbol><symbol overflow="visible" id="t"><path d="M.719 1.047H.75l.125.016c.313-.012.469-.153.469-.422a.464.464 0 0 0-.125-.344.554.554 0 0 0-.344-.125C.719.172.598.21.515.297.442.379.399.504.392.672H.109c0-.094.004-.18.016-.25A.487.487 0 0 1 .203.266.658.658 0 0 1 .453 0 .991.991 0 0 1 .86-.078a.81.81 0 0 1 .313.062.599.599 0 0 1 .25.141c.07.063.125.133.156.219.04.094.063.191.063.297a.57.57 0 0 1-.094.343.542.542 0 0 1-.297.204.463.463 0 0 1 .313.468.687.687 0 0 1-.047.266.5.5 0 0 1-.141.203.586.586 0 0 1-.219.125.817.817 0 0 1-.281.047c-.242 0-.422-.063-.547-.188-.117-.125-.172-.312-.172-.562h.281c0 .07.004.129.016.172.008.039.02.082.031.125.032.062.079.11.141.14.07.04.156.063.25.063.125 0 .223-.04.297-.11a.396.396 0 0 0 .11-.28.381.381 0 0 0-.048-.204.234.234 0 0 0-.14-.11c-.024-.011-.047-.023-.078-.03-.024 0-.055-.008-.094-.016H.719zm0 0"/></symbol><symbol overflow="visible" id="u"><path d="M1.14 2.094h.782v.265H.062v-.265h.782V0h.297zm0 0"/></symbol><symbol overflow="visible" id="v"><path d="M1.063.547V0h.28v.547h.345v.265h-.344v1.485h-.219L.094.844V.547zm0 .265h-.72l.72 1zm0 0"/></symbol><symbol overflow="visible" id="B"><path d="M.594 1h.75c.082 0 .16.008.234.031a.634.634 0 0 1 .36.344.68.68 0 0 1 .062.297c0 .219-.063.383-.188.5-.125.125-.308.187-.546.187h-.97V0h.298zm0 .266v.828h.625c.144 0 .254-.04.328-.11a.46.46 0 0 0 .14-.312.43.43 0 0 0-.14-.297c-.074-.074-.184-.11-.328-.11zm0 0"/></symbol><symbol overflow="visible" id="C"><path d="M2.406 0L3 2.36h-.328L2.234.437l-.53 1.921h-.329L.844.438.406 2.359H.078L.672 0H1l.531 1.938L2.078 0zm0 0"/></symbol><symbol overflow="visible" id="w"><path d="M-1.25 1.14V.189h.281v.953zm0 0"/></symbol><symbol overflow="visible" id="E"><path d="M-1.078 2.14v-.828h-.828v-.28h.828v-.83h.281v.828h.844v.282h-.844v.828zm0 0"/></symbol><symbol overflow="visible" id="x"><path d="M2.14 1.078h-.828v.828h-.28v-.828h-.83V.797h.828v-.844h.282v.844h.828zm0 0"/></symbol><symbol overflow="visible" id="D"><path d="M1.438 1.578H.234v-.36h1.204zm0 0"/></symbol><clipPath id="F"><path d="M253.781 188H255v44h-1.219zm0 0"/></clipPath><clipPath id="G"><path d="M253.781 231H341.2v1h-87.418zm0 0"/></clipPath><clipPath id="H"><path d="M340 188h1.2v44H340zm0 0"/></clipPath><clipPath id="I"><path d="M253.781 188H341.2v1h-87.418zm0 0"/></clipPath><clipPath id="J"><path d="M253.781 188H341.2v1h-87.418zm0 0"/></clipPath><clipPath id="K"><path d="M253.781 188H341.2v2h-87.418zm0 0"/></clipPath><clipPath id="L"><path d="M253.781 189H341.2v2h-87.418zm0 0"/></clipPath><clipPath id="M"><path d="M253.781 190H341.2v2h-87.418zm0 0"/></clipPath><clipPath id="N"><path d="M253.781 191H341.2v1h-87.418zm0 0"/></clipPath><clipPath id="O"><path d="M253.781 191H261v2h-7.219zm0 0"/></clipPath><clipPath id="P"><path d="M320 191h21.2v2H320zm0 0"/></clipPath><clipPath id="Q"><path d="M253.781 192H260v2h-6.219zm0 0"/></clipPath><clipPath id="R"><path d="M321 192h20.2v2H321zm0 0"/></clipPath><clipPath id="S"><path d="M253.781 193H259v2h-5.219zm0 0"/></clipPath><clipPath id="T"><path d="M322 193h19.2v2H322zm0 0"/></clipPath><clipPath id="U"><path d="M253.781 194H259v2h-5.219zm0 0"/></clipPath><clipPath id="V"><path d="M322 194h19.2v2H322zm0 0"/></clipPath><clipPath id="W"><path d="M253.781 194H262v2h-8.219zm0 0"/></clipPath><clipPath id="X"><path d="M318 194h23.2v2H318zm0 0"/></clipPath><clipPath id="Y"><path d="M253.781 195H259v2h-5.219zm0 0"/></clipPath><clipPath id="Z"><path d="M334 195h7.2v2H334zm0 0"/></clipPath><clipPath id="aa"><path d="M253.781 196H259v2h-5.219zm0 0"/></clipPath><clipPath id="ab"><path d="M336 196h5.2v2H336zm0 0"/></clipPath><clipPath id="ac"><path d="M253.781 197H258v2h-4.219zm0 0"/></clipPath><clipPath id="ad"><path d="M337 197h4.2v2H337zm0 0"/></clipPath><clipPath id="ae"><path d="M253.781 198H258v1h-4.219zm0 0"/></clipPath><clipPath id="af"><path d="M338 198h3.2v1H338zm0 0"/></clipPath><clipPath id="ag"><path d="M253.781 198H257v2h-3.219zm0 0"/></clipPath><clipPath id="ah"><path d="M338 198h3.2v2H338zm0 0"/></clipPath><clipPath id="ai"><path d="M253.781 199H257v2h-3.219zm0 0"/></clipPath><clipPath id="aj"><path d="M339 199h2.2v2H339zm0 0"/></clipPath><clipPath id="ak"><path d="M253.781 200H256v2h-2.219zm0 0"/></clipPath><clipPath id="al"><path d="M339 200h2.2v2H339zm0 0"/></clipPath><clipPath id="am"><path d="M253.781 201H256v2h-2.219zm0 0"/></clipPath><clipPath id="an"><path d="M339 201h2.2v2H339zm0 0"/></clipPath><clipPath id="ao"><path d="M253.781 201H256v2h-2.219zm0 0"/></clipPath><clipPath id="ap"><path d="M339 201h2.2v2H339zm0 0"/></clipPath><clipPath id="aq"><path d="M253.781 202H256v2h-2.219zm0 0"/></clipPath><clipPath id="ar"><path d="M339 202h2.2v2H339zm0 0"/></clipPath><clipPath id="as"><path d="M253.781 203H256v2h-2.219zm0 0"/></clipPath><clipPath id="at"><path d="M339 203h2.2v2H339zm0 0"/></clipPath><clipPath id="au"><path d="M253.781 204H256v2h-2.219zm0 0"/></clipPath><clipPath id="av"><path d="M339 204h2.2v2H339zm0 0"/></clipPath><clipPath id="aw"><path d="M253.781 204H257v2h-3.219zm0 0"/></clipPath><clipPath id="ax"><path d="M339 204h2.2v2H339zm0 0"/></clipPath><clipPath id="ay"><path d="M253.781 205H257v2h-3.219zm0 0"/></clipPath><clipPath id="az"><path d="M339 205h2.2v2H339zm0 0"/></clipPath><clipPath id="aA"><path d="M253.781 206H257v2h-3.219zm0 0"/></clipPath><clipPath id="aB"><path d="M338 206h3.2v2H338zm0 0"/></clipPath><clipPath id="aC"><path d="M253.781 207H257v2h-3.219zm0 0"/></clipPath><clipPath id="aD"><path d="M338 207h3.2v2H338zm0 0"/></clipPath><clipPath id="aE"><path d="M253.781 208H257v1h-3.219zm0 0"/></clipPath><clipPath id="aF"><path d="M338 208h3.2v1H338zm0 0"/></clipPath><clipPath id="aG"><path d="M253.781 208H257v2h-3.219zm0 0"/></clipPath><clipPath id="aH"><path d="M338 208h3.2v2H338zm0 0"/></clipPath><clipPath id="aI"><path d="M253.781 209H257v2h-3.219zm0 0"/></clipPath><clipPath id="aJ"><path d="M338 209h3.2v2H338zm0 0"/></clipPath><clipPath id="aK"><path d="M253.781 210H257v2h-3.219zm0 0"/></clipPath><clipPath id="aL"><path d="M338 210h3.2v2H338zm0 0"/></clipPath><clipPath id="aM"><path d="M253.781 211H257v2h-3.219zm0 0"/></clipPath><clipPath id="aN"><path d="M338 211h3.2v2H338zm0 0"/></clipPath><clipPath id="aO"><path d="M253.781 211H257v2h-3.219zm0 0"/></clipPath><clipPath id="aP"><path d="M338 211h3.2v2H338zm0 0"/></clipPath><clipPath id="aQ"><path d="M253.781 212H257v2h-3.219zm0 0"/></clipPath><clipPath id="aR"><path d="M338 212h3.2v2H338zm0 0"/></clipPath><clipPath id="aS"><path d="M253.781 213H257v2h-3.219zm0 0"/></clipPath><clipPath id="aT"><path d="M338 213h3.2v2H338zm0 0"/></clipPath><clipPath id="aU"><path d="M253.781 214H257v2h-3.219zm0 0"/></clipPath><clipPath id="aV"><path d="M338 214h3.2v2H338zm0 0"/></clipPath><clipPath id="aW"><path d="M253.781 215H257v1h-3.219zm0 0"/></clipPath><clipPath id="aX"><path d="M338 215h3.2v1H338zm0 0"/></clipPath><clipPath id="aY"><path d="M253.781 215H257v2h-3.219zm0 0"/></clipPath><clipPath id="aZ"><path d="M338 215h3.2v2H338zm0 0"/></clipPath><clipPath id="ba"><path d="M253.781 216H257v2h-3.219zm0 0"/></clipPath><clipPath id="bb"><path d="M338 216h3.2v2H338zm0 0"/></clipPath><clipPath id="bc"><path d="M253.781 217H257v2h-3.219zm0 0"/></clipPath><clipPath id="bd"><path d="M338 217h3.2v2H338zm0 0"/></clipPath><clipPath id="be"><path d="M253.781 218H257v2h-3.219zm0 0"/></clipPath><clipPath id="bf"><path d="M338 218h3.2v2H338zm0 0"/></clipPath><clipPath id="bg"><path d="M253.781 218H257v2h-3.219zm0 0"/></clipPath><clipPath id="bh"><path d="M338 218h3.2v2H338zm0 0"/></clipPath><clipPath id="bi"><path d="M253.781 219H257v2h-3.219zm0 0"/></clipPath><clipPath id="bj"><path d="M338 219h3.2v2H338zm0 0"/></clipPath><clipPath id="bk"><path d="M253.781 220H257v2h-3.219zm0 0"/></clipPath><clipPath id="bl"><path d="M338 220h3.2v2H338zm0 0"/></clipPath><clipPath id="bm"><path d="M253.781 221H257v2h-3.219zm0 0"/></clipPath><clipPath id="bn"><path d="M339 221h2.2v2H339zm0 0"/></clipPath><clipPath id="bo"><path d="M253.781 221H257v2h-3.219zm0 0"/></clipPath><clipPath id="bp"><path d="M339 221h2.2v2H339zm0 0"/></clipPath><clipPath id="bq"><path d="M253.781 222H257v2h-3.219zm0 0"/></clipPath><clipPath id="br"><path d="M339 222h2.2v2H339zm0 0"/></clipPath><clipPath id="bs"><path d="M253.781 223H257v2h-3.219zm0 0"/></clipPath><clipPath id="bt"><path d="M339 223h2.2v2H339zm0 0"/></clipPath><clipPath id="bu"><path d="M253.781 224H257v2h-3.219zm0 0"/></clipPath><clipPath id="bv"><path d="M339 224h2.2v2H339zm0 0"/></clipPath><clipPath id="bw"><path d="M253.781 225H257v1h-3.219zm0 0"/></clipPath><clipPath id="bx"><path d="M339 225h2.2v1H339zm0 0"/></clipPath><clipPath id="by"><path d="M253.781 225H257v2h-3.219zm0 0"/></clipPath><clipPath id="bz"><path d="M339 225h2.2v2H339zm0 0"/></clipPath><clipPath id="bA"><path d="M253.781 226H257v2h-3.219zm0 0"/></clipPath><clipPath id="bB"><path d="M339 226h2.2v2H339zm0 0"/></clipPath><clipPath id="bC"><path d="M253.781 227H257v2h-3.219zm0 0"/></clipPath><clipPath id="bD"><path d="M338 227h3.2v2H338zm0 0"/></clipPath><clipPath id="bE"><path d="M253.781 228H258v2h-4.219zm0 0"/></clipPath><clipPath id="bF"><path d="M338 228h3.2v2H338zm0 0"/></clipPath><clipPath id="bG"><path d="M253.781 228H259v2h-5.219zm0 0"/></clipPath><clipPath id="bH"><path d="M337 228h4.2v2H337zm0 0"/></clipPath><clipPath id="bI"><path d="M253.781 229H261v2h-7.219zm0 0"/></clipPath><clipPath id="bJ"><path d="M336 229h5.2v2H336zm0 0"/></clipPath><clipPath id="bK"><path d="M253.781 230H341.2v2h-87.418zm0 0"/></clipPath></defs><use xlink:href="#a" x="293.991" y="205.566" fill="gray"/><use xlink:href="#b" x="295.311" y="205.566" fill="gray"/><use xlink:href="#c" x="295.971" y="205.566" fill="gray"/><use xlink:href="#d" x="297.291" y="205.566" fill="gray"/><use xlink:href="#e" x="298.611" y="205.566" fill="gray"/><use xlink:href="#a" x="293.991" y="212.745" fill="gray"/><use xlink:href="#b" x="295.311" y="212.745" fill="gray"/><use xlink:href="#c" x="295.971" y="212.745" fill="gray"/><use xlink:href="#d" x="297.291" y="212.745" fill="gray"/><use xlink:href="#e" x="298.611" y="212.745" fill="gray"/><use xlink:href="#f" x="277.158" y="203.346" fill="gray"/><use xlink:href="#g" x="277.158" y="205.146" fill="gray"/><use xlink:href="#h" x="277.158" y="206.046" fill="gray"/><use xlink:href="#i" x="277.158" y="207.846" fill="gray"/><use xlink:href="#h" x="269.969" y="203.826" fill="gray"/><use xlink:href="#f" x="269.969" y="205.626" fill="gray"/><use xlink:href="#i" x="269.969" y="207.426" fill="gray"/><use xlink:href="#h" x="313.104" y="203.826" fill="gray"/><use xlink:href="#f" x="313.104" y="205.626" fill="gray"/><use xlink:href="#i" x="313.104" y="207.426" fill="gray"/><use xlink:href="#j" x="263.909" y="225.546" fill="gray"/><use xlink:href="#k" x="266.069" y="225.546" fill="gray"/><use xlink:href="#l" x="268.409" y="225.546" fill="gray"/><use xlink:href="#l" x="270.209" y="225.546" fill="gray"/><use xlink:href="#m" x="272.009" y="225.546" fill="gray"/><use xlink:href="#j" x="307.044" y="225.546" fill="gray"/><use xlink:href="#k" x="309.204" y="225.546" fill="gray"/><use xlink:href="#l" x="311.544" y="225.546" fill="gray"/><use xlink:href="#l" x="313.344" y="225.546" fill="gray"/><use xlink:href="#m" x="315.144" y="225.546" fill="gray"/><use xlink:href="#l" x="329.937" y="194.562" fill="gray"/><use xlink:href="#n" x="331.737" y="194.562" fill="gray"/><use xlink:href="#o" x="287.88" y="212.745" fill="gray"/><use xlink:href="#a" x="289.62" y="212.745" fill="gray"/><use xlink:href="#o" x="287.88" y="219.924" fill="gray"/><use xlink:href="#p" x="289.62" y="219.924" fill="gray"/><use xlink:href="#q" x="271.159" y="211.791" fill="gray"/><use xlink:href="#r" x="273.499" y="211.791" fill="gray"/><use xlink:href="#q" x="263.97" y="211.791" fill="gray"/><use xlink:href="#s" x="266.31" y="211.791" fill="gray"/><use xlink:href="#q" x="307.105" y="211.791" fill="gray"/><use xlink:href="#t" x="309.445" y="211.791" fill="gray"/><use xlink:href="#u" x="266.969" y="219.624" fill="gray"/><use xlink:href="#s" x="268.949" y="219.624" fill="gray"/><use xlink:href="#u" x="310.104" y="219.624" fill="gray"/><use xlink:href="#r" x="312.084" y="219.624" fill="gray"/><use xlink:href="#q" x="329.391" y="210.228" fill="gray"/><use xlink:href="#v" x="331.731" y="210.228" fill="gray"/><path d="M283.18 210h9.718m11.883 0h-9.722m-11.879 7.2h9.718m11.883 0h-9.722" fill="none" stroke-width=".24" stroke-linecap="round" stroke-linejoin="round" stroke="gray" stroke-miterlimit="10"/><path d="M276.04 217.2v-6.122m0-15.418v6.059m-7.2 15.481v-6.122m0-15.418v6.059m43.14 15.481v-6.122m0-15.418v6.059" fill="none" stroke-width=".72" stroke-linecap="round" stroke-linejoin="round" stroke="gray" stroke-miterlimit="10"/><path d="M337.121 200.281v5.04m-6.84-2.521h1.438m-16.141-9.66v5.04m0 9.3v5.04M322 192.059h-5.34m0 21.543H322m-1.5-10.802a5.76 5.76 0 1 1 11.52-.003 5.76 5.76 0 0 1-11.52.004zm0 0" fill="none" stroke-width=".48" stroke-linecap="round" stroke-linejoin="round" stroke="gray" stroke-miterlimit="10"/><path d="M322.66 202.8a3.603 3.603 0 0 1 3.602-3.6 3.602 3.602 0 0 1 3.597 3.6 3.6 3.6 0 1 1-7.2 0zm0 0" fill="none" stroke-width=".48" stroke-linecap="round" stroke-linejoin="round" stroke="gray" stroke-miterlimit="10"/><path d="M317.738 193.86h-2.156v3.6h2.156zm0 0" fill="gray" stroke-width=".12" stroke-linecap="round" stroke-linejoin="round" stroke="gray" stroke-miterlimit="10"/><path d="M288.941 208.2h10.079m-11.16 1.081v1.438m1.081 1.081l-.421-.12-.301-.18-.239-.36-.12-.421m11.16 1.081h-10.08" fill="none" stroke-width=".3" stroke-linecap="round" stroke-linejoin="round" stroke="gray" stroke-miterlimit="10"/><path d="M295.059 208.559h-.72v2.882h.72zm-1.438 0h-.723v2.882h.723zm0 0" fill="gray" stroke-width=".12" stroke-linecap="round" stroke-linejoin="round" stroke="gray" stroke-miterlimit="10"/><path d="M287.86 209.281l.12-.422.239-.359.3-.238.422-.063m11.161 2.52v-1.438m-1.082-1.081l.421.062.36.238.238.36.063.421m0 1.438l-.063.422-.238.359-.36.18-.421.12m-10.079 3.598h10.079m-11.16 1.082v1.442m1.081 1.019l-.421-.062-.301-.238-.239-.36-.12-.36m11.16 1.02h-10.08" fill="none" stroke-width=".3" stroke-linecap="round" stroke-linejoin="round" stroke="gray" stroke-miterlimit="10"/><path d="M295.059 215.762h-.72v2.879h.72zm-1.438 0h-.723v2.879h.723zm0 0" fill="gray" stroke-width=".12" stroke-linecap="round" stroke-linejoin="round" stroke="gray" stroke-miterlimit="10"/><path d="M287.86 216.48l.12-.421.239-.36.3-.238.422-.063m11.161 2.524v-1.442m-1.082-1.082l.421.063.36.238.238.36.063.421m0 1.442l-.063.36-.238.359-.36.238-.421.062" fill="none" stroke-width=".3" stroke-linecap="round" stroke-linejoin="round" stroke="gray" stroke-miterlimit="10"/><path d="M274.238 203.52l.063-.239.12-.242.24-.18.3-.058m2.16-.001l.238.06.243.18.18.241.058.239m0 5.761l-.059.297-.18.184-.242.18-.238.058m-2.161 0l-.3-.059-.238-.18-.121-.183-.063-.297" fill="none" stroke-width=".48" stroke-linecap="round" stroke-linejoin="round" stroke="gray" stroke-miterlimit="10"/><path d="M274.238 203.52l.063-.239.12-.242.24-.18.3-.058m2.16-.001l.238.06.243.18.18.241.058.239m0 5.761l-.059.297-.18.184-.242.18-.238.058m-2.161 0l-.3-.059-.238-.18-.121-.183-.063-.297m2.883-6.481h-2.16m-.723 6.481v-5.761m3.602 5.761v-5.761m-.719 6.48h-2.16" fill="none" stroke-width=".48" stroke-linecap="round" stroke-linejoin="round" stroke="gray" stroke-miterlimit="10"/><path d="M276.398 210h-.718v1.082h.718zm0-8.281h-.718v1.082h.718zm0 0" fill="gray" stroke-width=".12" stroke-linecap="round" stroke-linejoin="round" stroke="gray" stroke-miterlimit="10"/><path d="M267.04 203.52l.062-.239.117-.242.242-.18.3-.058m2.161-.001l.238.06.238.18.18.241.063.239m-.001 5.761l-.062.297-.18.184-.238.18-.238.058m-2.16 0l-.301-.059-.242-.18-.117-.183-.063-.297" fill="none" stroke-width=".48" stroke-linecap="round" stroke-linejoin="round" stroke="gray" stroke-miterlimit="10"/><path d="M267.04 203.52l.062-.239.117-.242.242-.18.3-.058m2.161-.001l.238.06.238.18.18.241.063.239m-.001 5.761l-.062.297-.18.184-.238.18-.238.058m-2.16 0l-.301-.059-.242-.18-.117-.183-.063-.297m2.883-6.481h-2.16m-.722 6.481v-5.761m3.6 5.761v-5.761m-.718 6.48h-2.16" fill="none" stroke-width=".48" stroke-linecap="round" stroke-linejoin="round" stroke="gray" stroke-miterlimit="10"/><path d="M269.2 210h-.72v1.082h.72zm0-8.281h-.72v1.082h.72zm0 0" fill="gray" stroke-width=".12" stroke-linecap="round" stroke-linejoin="round" stroke="gray" stroke-miterlimit="10"/><path d="M310.18 203.52l.058-.239.121-.242.243-.18.296-.058m2.161-.001l.242.06.238.18.18.241.062.239m0 5.761l-.062.297-.18.184-.238.18-.242.058m-2.161 0l-.296-.059-.243-.18-.12-.183-.06-.297" fill="none" stroke-width=".48" stroke-linecap="round" stroke-linejoin="round" stroke="gray" stroke-miterlimit="10"/><path d="M310.18 203.52l.058-.239.121-.242.243-.18.296-.058m2.161-.001l.242.06.238.18.18.241.062.239m0 5.761l-.062.297-.18.184-.238.18-.242.058m-2.161 0l-.296-.059-.243-.18-.12-.183-.06-.297m2.88-6.481h-2.16m-.719 6.481v-5.761m3.601 5.761v-5.761m-.722 6.48h-2.16" fill="none" stroke-width=".48" stroke-linecap="round" stroke-linejoin="round" stroke="gray" stroke-miterlimit="10"/><path d="M312.34 210h-.719v1.082h.719zm0-8.281h-.719v1.082h.719zm0 0" fill="gray" stroke-width=".12" stroke-linecap="round" stroke-linejoin="round" stroke="gray" stroke-miterlimit="10"/><path d="M274.781 229.02h-11.883m-.898-7.86l.66-1.14.84-1.02 1.02-.84 1.14-.66 1.2-.422 1.32-.238h1.32l1.262.238 1.258.422 1.14.66 1.02.84.84 1.02.66 1.14m-14.399 3.18h15.059m-.66-3.18l.36 1.02.241 1.082.059 1.078m0 0l-.059 1.14-.242 1.02-.36 1.078m.001 0l-.418.723-.48.719M262 227.578l-.36-1.078-.242-1.02-.117-1.14m0 0l.059-1.078.238-1.082.422-1.02m.898 7.86l-.539-.72-.418-.78m55.981 1.5h-11.883m-.899-7.86l.66-1.14.84-1.02 1.02-.84 1.14-.66 1.2-.422 1.32-.238h1.32l1.258.238 1.262.422 1.14.66.962.84.898 1.02.66 1.14m-14.398 3.18h15.058m-.66-3.18l.36 1.02.242 1.082.058 1.078m0 0l-.058 1.14-.242 1.02-.36 1.078m0 0l-.422.723-.476.719m-12.782-1.442l-.359-1.078-.242-1.02-.117-1.14m0 0l.058-1.078.239-1.082.422-1.02m.899 7.86l-.54-.72-.422-.78m32.043.421H322.72m-.001 0v-7.203m0 0h14.402m0 0v7.203" fill="none" stroke-width=".36" stroke-linecap="round" stroke-linejoin="round" stroke="gray" stroke-miterlimit="10"/><use xlink:href="#w" x="327.782" y="229.077" fill="gray"/><use xlink:href="#x" x="332.391" y="228.296" fill="gray"/><use xlink:href="#y" x="340.125" y="220.932" fill="gray"/><use xlink:href="#z" x="340.125" y="223.452" fill="gray"/><use xlink:href="#A" x="340.125" y="225.792" fill="gray"/><use xlink:href="#B" x="257.86" y="189.052" fill="gray"/><use xlink:href="#C" x="260.02" y="189.052" fill="gray"/><use xlink:href="#q" x="263.08" y="189.052" fill="gray"/><path d="M258.04 206.398v-14.34m0 .001h7.198m0 0v14.34m0-.001h-7.199" fill="none" stroke-width=".36" stroke-linecap="round" stroke-linejoin="round" stroke="gray" stroke-miterlimit="10"/><use xlink:href="#D" x="255.408" y="193.839" fill="gray"/><use xlink:href="#E" x="257.688" y="201.677" fill="gray"/><path d="M327.04 203.52h1.8m0 0v-1.442m0 0h-1.8m0 0v-1.797m0 0h-1.438m0 0v1.797m0 0H323.8m0 0v1.442m0 0h1.802m0 0v1.8m0 0h1.437m.001 0v-1.8m10.081-10.38v7.141M323.8 205.32l-1.44 1.442m1.44-6.481l-1.44-1.441m3.96 9.36v-1.438m0-7.922v-1.38m2.88 8.22l.722.718m-.722-6.476l.722-.723m-14.344-1.019v9.3m0-14.34l.063-.421.238-.36.36-.238.421-.062m19.38 0l.42.062.36.238.239.36.062.422m0 19.379l-.062.421-.239.297-.36.242-.42.122m-19.38 0l-.422-.122-.36-.242-.237-.297-.063-.421m21.543 0v-7.2M322 192.059h14.04m0 21.543H322" fill="none" stroke-width=".48" stroke-linecap="round" stroke-linejoin="round" stroke="gray" stroke-miterlimit="10"/><path d="M302.86 210a1.859 1.859 0 1 1 3.717-.001 1.859 1.859 0 0 1-3.718.001" fill-rule="evenodd" fill="green"/><path d="M302.86 210a1.859 1.859 0 1 1 3.717-.001 1.859 1.859 0 0 1-3.718.001zm0 0" fill="none" stroke-width=".12" stroke-linecap="round" stroke-linejoin="round" stroke="green" stroke-miterlimit="10"/><path d="M303.578 210a1.14 1.14 0 1 1 1.14 1.14c-.628 0-1.14-.511-1.14-1.14" fill-rule="evenodd" fill="#fff"/><path d="M303.578 210a1.14 1.14 0 1 1 1.14 1.14c-.628 0-1.14-.511-1.14-1.14zm0 0" fill="none" stroke-width=".06" stroke-linecap="square" stroke-linejoin="bevel" stroke="#000" stroke-miterlimit="10"/><path d="M281.262 210a1.859 1.859 0 1 1 3.717-.001 1.859 1.859 0 0 1-3.717.001" fill-rule="evenodd" fill="green"/><path d="M281.262 210a1.859 1.859 0 1 1 3.717-.001 1.859 1.859 0 0 1-3.717.001zm0 0" fill="none" stroke-width=".12" stroke-linecap="round" stroke-linejoin="round" stroke="green" stroke-miterlimit="10"/><path d="M281.98 210a1.14 1.14 0 1 1 2.282 0 1.14 1.14 0 1 1-2.281 0" fill-rule="evenodd" fill="#fff"/><path d="M281.98 210a1.14 1.14 0 1 1 2.282 0 1.14 1.14 0 1 1-2.281 0zm0 0" fill="none" stroke-width=".06" stroke-linecap="square" stroke-linejoin="bevel" stroke="#000" stroke-miterlimit="10"/><path d="M302.86 217.2a1.859 1.859 0 1 1 3.717-.002 1.859 1.859 0 0 1-3.718.001" fill-rule="evenodd" fill="green"/><path d="M302.86 217.2a1.859 1.859 0 1 1 3.717-.002 1.859 1.859 0 0 1-3.718.001zm0 0" fill="none" stroke-width=".12" stroke-linecap="round" stroke-linejoin="round" stroke="green" stroke-miterlimit="10"/><path d="M303.578 217.2a1.14 1.14 0 1 1 1.14 1.14c-.628 0-1.14-.512-1.14-1.14" fill-rule="evenodd" fill="#fff"/><path d="M303.578 217.2a1.14 1.14 0 1 1 1.14 1.14c-.628 0-1.14-.512-1.14-1.14zm0 0" fill="none" stroke-width=".06" stroke-linecap="square" stroke-linejoin="bevel" stroke="#000" stroke-miterlimit="10"/><path d="M281.262 217.2a1.859 1.859 0 1 1 3.717-.002 1.859 1.859 0 0 1-3.717.001" fill-rule="evenodd" fill="green"/><path d="M281.262 217.2a1.859 1.859 0 1 1 3.717-.002 1.859 1.859 0 0 1-3.717.001zm0 0" fill="none" stroke-width=".12" stroke-linecap="round" stroke-linejoin="round" stroke="green" stroke-miterlimit="10"/><path d="M281.98 217.2a1.14 1.14 0 1 1 2.282 0 1.14 1.14 0 1 1-2.281 0" fill-rule="evenodd" fill="#fff"/><path d="M281.98 217.2a1.14 1.14 0 1 1 2.282 0 1.14 1.14 0 1 1-2.281 0zm0 0" fill="none" stroke-width=".06" stroke-linecap="square" stroke-linejoin="bevel" stroke="#000" stroke-miterlimit="10"/><path d="M274.3 195.66a1.68 1.68 0 1 1 3.36 0 1.68 1.68 0 0 1-3.36 0" fill-rule="evenodd" fill="green"/><path d="M274.3 195.66a1.68 1.68 0 1 1 3.36 0 1.68 1.68 0 0 1-3.36 0zm0 0" fill="none" stroke-width=".12" stroke-linecap="round" stroke-linejoin="round" stroke="green" stroke-miterlimit="10"/><path d="M274.96 195.66c0-.531.458-.96 1.02-.96.563 0 1.02.429 1.02.96 0 .531-.457.961-1.02.961-.562 0-1.02-.43-1.02-.96" fill-rule="evenodd" fill="#fff"/><path d="M274.96 195.66c0-.531.458-.96 1.02-.96.563 0 1.02.429 1.02.96 0 .531-.457.961-1.02.961-.562 0-1.02-.43-1.02-.96zm0 0" fill="none" stroke-width=".06" stroke-linecap="square" stroke-linejoin="bevel" stroke="#000" stroke-miterlimit="10"/><path d="M274.3 217.2a1.68 1.68 0 1 1 3.36-.001 1.68 1.68 0 0 1-3.36 0" fill-rule="evenodd" fill="green"/><path d="M274.3 217.2a1.68 1.68 0 1 1 3.36-.001 1.68 1.68 0 0 1-3.36 0zm0 0" fill="none" stroke-width=".12" stroke-linecap="round" stroke-linejoin="round" stroke="green" stroke-miterlimit="10"/><path d="M274.96 217.2c0-.528.458-.962 1.02-.962.563 0 1.02.434 1.02.961 0 .531-.457.961-1.02.961-.562 0-1.02-.43-1.02-.96" fill-rule="evenodd" fill="#fff"/><path d="M274.96 217.2c0-.528.458-.962 1.02-.962.563 0 1.02.434 1.02.961 0 .531-.457.961-1.02.961-.562 0-1.02-.43-1.02-.96zm0 0" fill="none" stroke-width=".06" stroke-linecap="square" stroke-linejoin="bevel" stroke="#000" stroke-miterlimit="10"/><path d="M267.102 195.66a1.68 1.68 0 1 1 3.36 0 1.68 1.68 0 0 1-3.36 0" fill-rule="evenodd" fill="green"/><path d="M267.102 195.66a1.68 1.68 0 1 1 3.36 0 1.68 1.68 0 0 1-3.36 0zm0 0" fill="none" stroke-width=".12" stroke-linecap="round" stroke-linejoin="round" stroke="green" stroke-miterlimit="10"/><path d="M267.762 195.66c0-.531.457-.96 1.02-.96.562 0 1.019.429 1.019.96 0 .531-.457.961-1.02.961-.562 0-1.02-.43-1.02-.96" fill-rule="evenodd" fill="#fff"/><path d="M267.762 195.66c0-.531.457-.96 1.02-.96.562 0 1.019.429 1.019.96 0 .531-.457.961-1.02.961-.562 0-1.02-.43-1.02-.96zm0 0" fill="none" stroke-width=".06" stroke-linecap="square" stroke-linejoin="bevel" stroke="#000" stroke-miterlimit="10"/><path d="M267.102 217.2a1.68 1.68 0 1 1 3.359-.001 1.68 1.68 0 0 1-3.36 0" fill-rule="evenodd" fill="green"/><path d="M267.102 217.2a1.68 1.68 0 1 1 3.359-.001 1.68 1.68 0 0 1-3.36 0zm0 0" fill="none" stroke-width=".12" stroke-linecap="round" stroke-linejoin="round" stroke="green" stroke-miterlimit="10"/><path d="M267.762 217.2c0-.528.457-.962 1.02-.962.562 0 1.019.434 1.019.961 0 .531-.457.961-1.02.961-.562 0-1.02-.43-1.02-.96" fill-rule="evenodd" fill="#fff"/><path d="M267.762 217.2c0-.528.457-.962 1.02-.962.562 0 1.019.434 1.019.961 0 .531-.457.961-1.02.961-.562 0-1.02-.43-1.02-.96zm0 0" fill="none" stroke-width=".06" stroke-linecap="square" stroke-linejoin="bevel" stroke="#000" stroke-miterlimit="10"/><path d="M310.238 195.66c0-.93.754-1.68 1.684-1.68a1.68 1.68 0 1 1 0 3.36 1.68 1.68 0 0 1-1.684-1.68" fill-rule="evenodd" fill="green"/><path d="M310.238 195.66c0-.93.754-1.68 1.684-1.68a1.68 1.68 0 1 1 0 3.36 1.68 1.68 0 0 1-1.684-1.68zm0 0" fill="none" stroke-width=".12" stroke-linecap="round" stroke-linejoin="round" stroke="green" stroke-miterlimit="10"/><path d="M310.898 195.66c0-.531.457-.96 1.024-.96.562 0 1.02.429 1.02.96 0 .531-.458.961-1.02.961-.567 0-1.024-.43-1.024-.96" fill-rule="evenodd" fill="#fff"/><path d="M310.898 195.66c0-.531.457-.96 1.024-.96.562 0 1.02.429 1.02.96 0 .531-.458.961-1.02.961-.567 0-1.024-.43-1.024-.96zm0 0" fill="none" stroke-width=".06" stroke-linecap="square" stroke-linejoin="bevel" stroke="#000" stroke-miterlimit="10"/><path d="M310.238 217.2a1.682 1.682 0 0 1 3.363 0c0 .929-.753 1.679-1.68 1.679a1.68 1.68 0 0 1-1.683-1.68" fill-rule="evenodd" fill="green"/><path d="M310.238 217.2a1.682 1.682 0 0 1 3.363 0c0 .929-.753 1.679-1.68 1.679a1.68 1.68 0 0 1-1.683-1.68zm0 0" fill="none" stroke-width=".12" stroke-linecap="round" stroke-linejoin="round" stroke="green" stroke-miterlimit="10"/><path d="M310.898 217.2c0-.528.457-.962 1.024-.962.562 0 1.02.434 1.02.961 0 .531-.458.961-1.02.961-.567 0-1.024-.43-1.024-.96" fill-rule="evenodd" fill="#fff"/><path d="M310.898 217.2c0-.528.457-.962 1.024-.962.562 0 1.02.434 1.02.961 0 .531-.458.961-1.02.961-.567 0-1.024-.43-1.024-.96zm0 0" fill="none" stroke-width=".06" stroke-linecap="square" stroke-linejoin="bevel" stroke="#000" stroke-miterlimit="10"/><path d="M273.941 224.34c0-1.094.914-1.98 2.04-1.98 1.124 0 2.039.886 2.039 1.98 0 1.094-.915 1.98-2.04 1.98s-2.039-.886-2.039-1.98" fill-rule="evenodd" fill="green"/><path d="M273.941 224.34c0-1.094.914-1.98 2.04-1.98 1.124 0 2.039.886 2.039 1.98 0 1.094-.915 1.98-2.04 1.98s-2.039-.886-2.039-1.98zm0 0" fill="none" stroke-width=".12" stroke-linecap="round" stroke-linejoin="round" stroke="green" stroke-miterlimit="10"/><path d="M274.96 224.34c0-.531.458-.961 1.02-.961.563 0 1.02.43 1.02.96 0 .532-.457.962-1.02.962-.562 0-1.02-.43-1.02-.961" fill-rule="evenodd" fill="#fff"/><path d="M274.96 224.34c0-.531.458-.961 1.02-.961.563 0 1.02.43 1.02.96 0 .532-.457.962-1.02.962-.562 0-1.02-.43-1.02-.961zm0 0" fill="none" stroke-width=".06" stroke-linecap="square" stroke-linejoin="bevel" stroke="#000" stroke-miterlimit="10"/><path d="M259.54 224.34c0-1.094.913-1.98 2.038-1.98 1.129 0 2.043.886 2.043 1.98 0 1.094-.914 1.98-2.043 1.98-1.125 0-2.039-.886-2.039-1.98" fill-rule="evenodd" fill="green"/><path d="M259.54 224.34c0-1.094.913-1.98 2.038-1.98 1.129 0 2.043.886 2.043 1.98 0 1.094-.914 1.98-2.043 1.98-1.125 0-2.039-.886-2.039-1.98zm0 0" fill="none" stroke-width=".12" stroke-linecap="round" stroke-linejoin="round" stroke="green" stroke-miterlimit="10"/><path d="M260.559 224.34c0-.531.457-.961 1.02-.961.566 0 1.023.43 1.023.96 0 .532-.457.962-1.024.962-.562 0-1.02-.43-1.02-.961" fill-rule="evenodd" fill="#fff"/><path d="M260.559 224.34c0-.531.457-.961 1.02-.961.566 0 1.023.43 1.023.96 0 .532-.457.962-1.024.962-.562 0-1.02-.43-1.02-.961zm0 0" fill="none" stroke-width=".06" stroke-linecap="square" stroke-linejoin="bevel" stroke="#000" stroke-miterlimit="10"/><path d="M266.738 224.34c0-1.094.914-1.98 2.043-1.98 1.125 0 2.04.886 2.04 1.98 0 1.094-.915 1.98-2.04 1.98-1.129 0-2.043-.886-2.043-1.98" fill-rule="evenodd" fill="green"/><path d="M266.738 224.34c0-1.094.914-1.98 2.043-1.98 1.125 0 2.04.886 2.04 1.98 0 1.094-.915 1.98-2.04 1.98-1.129 0-2.043-.886-2.043-1.98zm0 0" fill="none" stroke-width=".12" stroke-linecap="round" stroke-linejoin="round" stroke="green" stroke-miterlimit="10"/><path d="M267.762 224.34c0-.531.457-.961 1.02-.961.562 0 1.019.43 1.019.96 0 .532-.457.962-1.02.962-.562 0-1.02-.43-1.02-.961" fill-rule="evenodd" fill="#fff"/><path d="M267.762 224.34c0-.531.457-.961 1.02-.961.562 0 1.019.43 1.019.96 0 .532-.457.962-1.02.962-.562 0-1.02-.43-1.02-.961zm0 0" fill="none" stroke-width=".06" stroke-linecap="square" stroke-linejoin="bevel" stroke="#000" stroke-miterlimit="10"/><path d="M317.078 224.34c0-1.094.914-1.98 2.043-1.98 1.125 0 2.04.886 2.04 1.98 0 1.094-.915 1.98-2.04 1.98-1.129 0-2.043-.886-2.043-1.98" fill-rule="evenodd" fill="green"/><path d="M317.078 224.34c0-1.094.914-1.98 2.043-1.98 1.125 0 2.04.886 2.04 1.98 0 1.094-.915 1.98-2.04 1.98-1.129 0-2.043-.886-2.043-1.98zm0 0" fill="none" stroke-width=".12" stroke-linecap="round" stroke-linejoin="round" stroke="green" stroke-miterlimit="10"/><path d="M318.102 224.34c0-.531.457-.961 1.02-.961.562 0 1.019.43 1.019.96 0 .532-.457.962-1.02.962-.562 0-1.02-.43-1.02-.961" fill-rule="evenodd" fill="#fff"/><path d="M318.102 224.34c0-.531.457-.961 1.02-.961.562 0 1.019.43 1.019.96 0 .532-.457.962-1.02.962-.562 0-1.02-.43-1.02-.961zm0 0" fill="none" stroke-width=".06" stroke-linecap="square" stroke-linejoin="bevel" stroke="#000" stroke-miterlimit="10"/><path d="M302.68 224.34c0-1.094.914-1.98 2.039-1.98 1.129 0 2.043.886 2.043 1.98 0 1.094-.914 1.98-2.043 1.98-1.125 0-2.04-.886-2.04-1.98" fill-rule="evenodd" fill="green"/><path d="M302.68 224.34c0-1.094.914-1.98 2.039-1.98 1.129 0 2.043.886 2.043 1.98 0 1.094-.914 1.98-2.043 1.98-1.125 0-2.04-.886-2.04-1.98zm0 0" fill="none" stroke-width=".12" stroke-linecap="round" stroke-linejoin="round" stroke="green" stroke-miterlimit="10"/><path d="M303.7 224.34c0-.531.456-.961 1.019-.961.562 0 1.02.43 1.02.96 0 .532-.458.962-1.02.962-.563 0-1.02-.43-1.02-.961" fill-rule="evenodd" fill="#fff"/><path d="M303.7 224.34c0-.531.456-.961 1.019-.961.562 0 1.02.43 1.02.96 0 .532-.458.962-1.02.962-.563 0-1.02-.43-1.02-.961zm0 0" fill="none" stroke-width=".06" stroke-linecap="square" stroke-linejoin="bevel" stroke="#000" stroke-miterlimit="10"/><path d="M309.879 224.34c0-1.094.914-1.98 2.043-1.98 1.125 0 2.039.886 2.039 1.98 0 1.094-.914 1.98-2.04 1.98-1.128 0-2.042-.886-2.042-1.98" fill-rule="evenodd" fill="green"/><path d="M309.879 224.34c0-1.094.914-1.98 2.043-1.98 1.125 0 2.039.886 2.039 1.98 0 1.094-.914 1.98-2.04 1.98-1.128 0-2.042-.886-2.042-1.98zm0 0" fill="none" stroke-width=".12" stroke-linecap="round" stroke-linejoin="round" stroke="green" stroke-miterlimit="10"/><path d="M310.898 224.34c0-.531.457-.961 1.024-.961.562 0 1.02.43 1.02.96 0 .532-.458.962-1.02.962-.567 0-1.024-.43-1.024-.961" fill-rule="evenodd" fill="#fff"/><path d="M310.898 224.34c0-.531.457-.961 1.024-.961.562 0 1.02.43 1.02.96 0 .532-.458.962-1.02.962-.567 0-1.024-.43-1.024-.961zm0 0" fill="none" stroke-width=".06" stroke-linecap="square" stroke-linejoin="bevel" stroke="#000" stroke-miterlimit="10"/><path d="M323.738 224.34a2.521 2.521 0 0 1 5.043 0 2.52 2.52 0 0 1-5.043 0" fill-rule="evenodd" fill="green"/><path d="M323.738 224.34a2.521 2.521 0 0 1 5.043 0 2.52 2.52 0 0 1-5.043 0zm0 0" fill="none" stroke-width=".12" stroke-linecap="round" stroke-linejoin="round" stroke="green" stroke-miterlimit="10"/><path d="M324.82 224.34c0-.793.645-1.442 1.442-1.442a1.442 1.442 0 0 1 0 2.883 1.44 1.44 0 0 1-1.442-1.441" fill-rule="evenodd" fill="#fff"/><path d="M324.82 224.34c0-.793.645-1.442 1.442-1.442a1.442 1.442 0 0 1 0 2.883 1.44 1.44 0 0 1-1.442-1.441zm0 0" fill="none" stroke-width=".06" stroke-linecap="square" stroke-linejoin="bevel" stroke="#000" stroke-miterlimit="10"/><path d="M330.941 224.34a2.52 2.52 0 1 1 5.037.002 2.52 2.52 0 0 1-5.037-.002" fill-rule="evenodd" fill="green"/><path d="M330.941 224.34a2.52 2.52 0 1 1 5.037.002 2.52 2.52 0 0 1-5.037-.002zm0 0" fill="none" stroke-width=".12" stroke-linecap="round" stroke-linejoin="round" stroke="green" stroke-miterlimit="10"/><path d="M332.02 224.34c0-.793.644-1.442 1.44-1.442a1.442 1.442 0 0 1 0 2.883 1.44 1.44 0 0 1-1.44-1.441" fill-rule="evenodd" fill="#fff"/><path d="M332.02 224.34c0-.793.644-1.442 1.44-1.442a1.442 1.442 0 0 1 0 2.883 1.44 1.44 0 0 1-1.44-1.441zm0 0" fill="none" stroke-width=".06" stroke-linecap="square" stroke-linejoin="bevel" stroke="#000" stroke-miterlimit="10"/><path d="M259.059 195.66a2.52 2.52 0 1 1 5.04.002 2.52 2.52 0 0 1-5.04-.002" fill-rule="evenodd" fill="green"/><path d="M259.059 195.66a2.52 2.52 0 1 1 5.04.002 2.52 2.52 0 0 1-5.04-.002zm0 0" fill="none" stroke-width=".12" stroke-linecap="round" stroke-linejoin="round" stroke="green" stroke-miterlimit="10"/><path d="M260.14 195.66a1.44 1.44 0 1 1 2.88 0c0 .793-.645 1.442-1.442 1.442a1.442 1.442 0 0 1-1.437-1.442" fill-rule="evenodd" fill="#fff"/><path d="M260.14 195.66a1.44 1.44 0 1 1 2.88 0c0 .793-.645 1.442-1.442 1.442a1.442 1.442 0 0 1-1.437-1.442zm0 0" fill="none" stroke-width=".06" stroke-linecap="square" stroke-linejoin="bevel" stroke="#000" stroke-miterlimit="10"/><path d="M259.059 202.8a2.518 2.518 0 0 1 2.52-2.519 2.519 2.519 0 1 1 0 5.04 2.52 2.52 0 0 1-2.52-2.52" fill-rule="evenodd" fill="green"/><path d="M259.059 202.8a2.518 2.518 0 0 1 2.52-2.519 2.519 2.519 0 1 1 0 5.04 2.52 2.52 0 0 1-2.52-2.52zm0 0" fill="none" stroke-width=".12" stroke-linecap="round" stroke-linejoin="round" stroke="green" stroke-miterlimit="10"/><path d="M260.14 202.8a1.44 1.44 0 1 1 2.88-.003 1.44 1.44 0 0 1-2.88.004" fill-rule="evenodd" fill="#fff"/><path d="M260.14 202.8a1.44 1.44 0 1 1 2.88-.003 1.44 1.44 0 0 1-2.88.004zm0 0" fill="none" stroke-width=".06" stroke-linecap="square" stroke-linejoin="bevel" stroke="#000" stroke-miterlimit="10"/><path d="M330.7 202.8c0-1.491 1.238-2.698 2.76-2.698 1.524 0 2.759 1.207 2.759 2.699 0 1.488-1.235 2.699-2.758 2.699-1.524 0-2.762-1.21-2.762-2.7" fill-rule="evenodd" fill="green"/><path d="M330.7 202.8c0-1.491 1.237-2.698 2.76-2.698 1.524 0 2.759 1.207 2.759 2.699 0 1.488-1.235 2.699-2.758 2.699-1.524 0-2.762-1.21-2.762-2.7zm0 0" fill="none" stroke-width=".12" stroke-linecap="round" stroke-linejoin="round" stroke="green" stroke-miterlimit="10"/><path d="M332.02 202.8a1.44 1.44 0 1 1 2.88-.001 1.44 1.44 0 0 1-2.88.002" fill-rule="evenodd" fill="#fff"/><path d="M332.02 202.8a1.44 1.44 0 1 1 2.88-.001 1.44 1.44 0 0 1-2.88.002zm0 0" fill="none" stroke-width=".06" stroke-linecap="square" stroke-linejoin="bevel" stroke="#000" stroke-miterlimit="10"/><path d="M316.36 210c0-1.492 1.238-2.7 2.761-2.7 1.524 0 2.758 1.208 2.758 2.7 0 1.492-1.234 2.7-2.758 2.7-1.523 0-2.762-1.208-2.762-2.7" fill-rule="evenodd" fill="green"/><path d="M316.36 210c0-1.492 1.238-2.7 2.761-2.7 1.524 0 2.758 1.208 2.758 2.7 0 1.492-1.234 2.7-2.758 2.7-1.523 0-2.762-1.208-2.762-2.7zm0 0" fill="none" stroke-width=".12" stroke-linecap="round" stroke-linejoin="round" stroke="green" stroke-miterlimit="10"/><path d="M317.68 210a1.44 1.44 0 1 1 2.88-.002 1.44 1.44 0 0 1-2.88.002" fill-rule="evenodd" fill="#fff"/><path d="M317.68 210a1.44 1.44 0 1 1 2.88-.002 1.44 1.44 0 0 1-2.88.002zm0 0" fill="none" stroke-width=".06" stroke-linecap="square" stroke-linejoin="bevel" stroke="#000" stroke-miterlimit="10"/><path d="M316.36 195.66c0-1.492 1.238-2.7 2.761-2.7 1.524 0 2.758 1.208 2.758 2.7 0 1.492-1.234 2.7-2.758 2.7-1.523 0-2.762-1.208-2.762-2.7" fill-rule="evenodd" fill="green"/><path d="M316.36 195.66c0-1.492 1.238-2.7 2.761-2.7 1.524 0 2.758 1.208 2.758 2.7 0 1.492-1.234 2.7-2.758 2.7-1.523 0-2.762-1.208-2.762-2.7zm0 0" fill="none" stroke-width=".12" stroke-linecap="round" stroke-linejoin="round" stroke="green" stroke-miterlimit="10"/><path d="M317.68 195.66a1.44 1.44 0 1 1 2.88-.002 1.44 1.44 0 0 1-2.88.002" fill-rule="evenodd" fill="#fff"/><path d="M317.68 195.66a1.44 1.44 0 1 1 2.88-.002 1.44 1.44 0 0 1-2.88.002zm0 0" fill="none" stroke-width=".06" stroke-linecap="square" stroke-linejoin="bevel" stroke="#000" stroke-miterlimit="10"/><path d="M283.18 217.2h-7.14m0 0v7.14m35.94 0v-7.14m0 0h-7.199M283.18 210h-14.34m0 0v7.2m0 0v7.14m64.68-21.54v21.54m-21.54-28.68h-35.94m0 0h-7.2m-7.2 0h7.2m43.14 0h7.2m7.14 28.68v-28.68m0 0h-7.14" fill="none" stroke-width="3.6" stroke-linecap="round" stroke-linejoin="round" stroke="navy" stroke-miterlimit="10"/><g clip-path="url(#F)"><path d="M254.441 188.46v43.08" fill="none" stroke-width=".9" stroke-linecap="round" stroke-linejoin="round" stroke="navy" stroke-miterlimit="10"/></g><g clip-path="url(#G)"><path d="M254.441 231.54h86.278" fill="none" stroke-width=".9" stroke-linecap="round" stroke-linejoin="round" stroke="navy" stroke-miterlimit="10"/></g><g clip-path="url(#H)"><path d="M340.719 231.54v-43.08" fill="none" stroke-width=".9" stroke-linecap="round" stroke-linejoin="round" stroke="navy" stroke-miterlimit="10"/></g><g clip-path="url(#I)"><path d="M340.719 188.46H254.44" fill="none" stroke-width=".9" stroke-linecap="round" stroke-linejoin="round" stroke="navy" stroke-miterlimit="10"/></g><path d="M319.422 199.5v-3.602m0 0h-.543m0 0v3.602m0 0h-.059m0 0l-.601-.059m0 0l-.54-.18m.001.001l-.54-.301m0-.001l-.538-.358m0 0l-.422-.422m0 0l-.36-.48m0 0l-.242-.598m0 0l-.238-.543m0 0l-.059-.598m0-.001v-.062m0 0h3.598m0 0v-.539m0 .001h-3.598m0 0v-.06m0 .06l.059-.598m0 0l.238-.602m0 0l.242-.539m0 0l.36-.48m0-.001l.422-.48m0 0l.539-.36m-.001 0l.54-.241m0 0l.539-.18m0 0l.601-.117m0 0h.059m0 0v3.597m0 .001h.543m0 0v-3.598m0 0h.058m0 0l.598.117m0 0l.543.18m0 0l.54.242m-.001-.001l.54.36m0 0l.421.48m0 0l.36.481m-.001 0l.301.54m0-.001l.18.602m-.001 0l.06.597m0 .001v-.06m0 .06h-3.598m0 0v.538m0 0h3.598m0 0v.063m0-.001l-.06.599m0 0l-.179.543m0 0l-.3.597m-.001.001l-.359.48m0 0l-.422.422m.001 0l-.54.359m0-.001l-.539.302m0 0l-.543.18m0-.001l-.598.059m0 0h-.058m-7.742-6.719h.242m0 0v2.82m0 .001h.117m.001 0v-2.82m0-.001h.179m0 0l.601.117m0 0l.48.18m0 0l.481.363m0 0l.418.36m.001-.001l.3.481m0 0l.238.54m0-.001l.063.54m-.001 0v.242m0 0h-2.76m0 0v.117m0 0h2.76m0 0v.18m0-.001l-.062.602m0 0l-.238.48m0 0l-.3.48m0 0l-.419.419m0 0l-.48.3m-.001.001l-.48.18m0 0l-.601.12m0 0h-.18m.001 0v-2.761m0 0h-.118m0 0v2.761m0 0h-.242m0 0l-.54-.12m0 0l-.538-.18m0 0l-.48-.301m-.001 0l-.36-.418m.001-.001l-.364-.48m0 0l-.18-.48m.001 0l-.117-.602m0 0v-.18m0 .001h2.82m0 0v-.117m0 0h-2.82m0 0v-.243m0 .001l.117-.54m0 0l.18-.539m-.001 0l.364-.48m0-.001l.36-.359m-.001 0l.48-.363m.001 0l.539-.18m-.001 0l.54-.117m-53.461 4.259l-.18-.54m.001 0l-.06-.602m0 0v-.058m0 .058h3.36m0 0v-.539m0 .001h-3.36m0 0l-.058-.06m.058.06l.06-.598m0 0l.179-.543m0 0l.3-.48m.001-.001l.3-.476m0 0l.418-.422m0 0l.48-.36m.001 0l.543-.242m0 0l.539-.18m-.001.001l.54-.059m0 0h-.059m.059 0v3.36m0 0h.601m0 0V192m0 0l-.062-.059m.062.059l.54.059m-.001 0l.54.18m0-.001l.539.242m0 0l.48.36m.001 0l.42.422m0 0l.302.476m0 0l.297.48m0 .001l.18.543m-.001 0l.063.597m-.001.001v-.06m0 .06h-3.359m0 0v.538m0 0h3.36m-.001 0l-.062-.058m.062.058l-.062.602m0 0l-.18.48m.001 0h1.261m0 0l-.058-.058m.058.058l-.242-.48m0 0l-.117-.602m-.001 0v-.18m0 .001h2.821m0 0v-.117m0 0h-2.82m-.001 0v-.243m0 .001l.118-.54m0 0l.242-.539m0 0l.301-.48m0-.001l.36-.359m-.001 0l.48-.363m0 0l.54-.18m0 0l.54-.117m0 0h.241m0 0v2.82m0 .001h.117m0 0v-2.82m0-.001h.243m-.001 0l.54.117m0 0l.48.18m0 0l.48.363m0 0l.419.36m0-.001l.3.481m.001 0l.242.54m0-.001l.058.54m0 0v.242m0 0h-2.762m0 0v.117m0 0h2.762m0 0v.18m0-.001l-.058.602m0 0l-.243.48m.001 0l-.06-.058m.06.058h2.16m0 0h-.06m0 0l-.179-.48m0 0l-.12-.602m-.001 0v-.18m0 .001h2.82m0 0v-.117m0 0h-2.82m0 0v-.243m0 .001l.121-.54m0 0l.18-.539m-.001 0l.36-.48m0-.001l.36-.359m0 0l.48-.363m0 0l.54-.18m0 0l.538-.117m0 0h.242m0 0v2.82m0 .001h.122m0 0v-2.82m0-.001h.18m-.001 0l.598.117m0 0l.48.18m.001 0l.48.363m0 0l.422.36m0-.001l.297.481m0 0l.18.54m-.001-.001l.121.54m.001 0v.242m0 0h-2.758m0 0v.117m0 0h2.757m.001 0v.18m0-.001l-.122.602m0 0l-.18.48m.001 0l-.059-.058m.059.058h20.16m0 0l2.16.899m0 0l1.621 1.621m0 0l.898 2.16m0 0v2.52m0 0l.18-.059m0 0h2.344m0 0l.18.059m0 0h9.476m0 0l2.223-.961m-.001 0h2.7m0 0l2.46 1.082m0-.001l1.919 1.86m0 0l1.02 2.52m-.001 0v2.64m0 0l-.898 2.282m0 0v7.32m0 0l.48-.121m0-.001l.598-.12m0 0l-.058-.059m.058.059v3.422m0 0h.543m0 0v-3.422m0 0h-.062m.062 0l.598.12m0 0l.48.122m.001 0v-14.524m0 0l-.9-2.218m0 0v-2.7m0 0l1.02-2.46m0 0l1.86-1.918m0 0l2.52-1.024m0 0h2.698m0 0l2.461 1.024m.001 0l1.921 1.918m0 0l1.02 2.46m-.001 0v2.7m0 0l-.96 2.218m0 0v14.942m0 0l.719 1.738m0 0v2.582m0 0l-.957 2.399m0 0l-1.864 1.863m0 0l-2.398.957m0 0h-2.64m0 0l-2.4-.957m0 0l-1.8-1.863m0 0l-.18-.36m0 .001l-.058.062m0 0l-.543.18m0-.001l-.598.059m0 0h-.062m.062 0v-3.36m0 0h-.543m0 0V228m0 0l-.058-.059m.058.059l-.598-.059m0 0l-.539-.18m0 .001l-.543-.301m0-.001l-.058-.062m.058.062l-.117.302m0 0l-1.68 1.68m.001-.001l-2.223.957m0 0h-2.399m0 0l-2.218-.957m0 0l-.184-.12m0-.001l-.18.121m0 0l-2.218.957m0 0h-2.399m0 0l-2.222-.957m0 0l-.18-.12m0-.001l-.18.121m.001 0l-2.22.957m0 0h-2.402m0 0l-.539-.238m.001 0h-6.599m0 0l-2.16-.898m0 0l-1.62-1.621m-.001-.001l-.898-2.16m0 0v-16.859m0 0H289m0 0l.059.18m0-.001v2.34m0 0l-.899 2.16m0 0l-.238.302m0 0l.238.238m0 0l.899 2.16m0 0v2.34m0 0l-.899 2.16m0 0l-1.62 1.621m0 0l-2.161.899m0 0h-2.34m.001 0h-.06m0 0l.06.12m0 0v2.4m0 0l-.9 2.222m0 0l-1.68 1.68m0-.001l-2.222.957m0 0h-2.398m0 0l-2.219-.957m0 0l-.18-.12m0-.001l-.18.121m.001 0l-2.223.957m.001 0h-2.4m0 0l-2.218-.957m0 0l-.184-.12m0-.001l-.18.121m.001 0l-2.22.957m.001 0h-2.399m0 0l-2.222-.957m0 0l-1.68-1.68m.001.001l-.962-2.223m0 .001v-2.4m0 0l.242-.48m0 0v-16.8m0 0l-.718-1.739m0 0v-2.582m0 .001l1.02-2.4m-.001 0l1.8-1.859m.001 0l.36-.12m-.001-.001l-.062-.12" fill="none" stroke-width=".9" stroke-linecap="round" stroke-linejoin="round" stroke="navy" stroke-miterlimit="10"/><g clip-path="url(#J)"><path d="M254.441 188.46h86.278" fill="none" stroke-width=".9" stroke-linecap="round" stroke-linejoin="round" stroke="navy" stroke-miterlimit="10"/></g><g clip-path="url(#K)"><path d="M254.441 189.238h86.278" fill="none" stroke-width=".9" stroke-linecap="round" stroke-linejoin="round" stroke="navy" stroke-miterlimit="10"/></g><g clip-path="url(#L)"><path d="M254.441 190.02h86.278" fill="none" stroke-width=".9" stroke-linecap="round" stroke-linejoin="round" stroke="navy" stroke-miterlimit="10"/></g><g clip-path="url(#M)"><path d="M254.441 190.8h86.278" fill="none" stroke-width=".9" stroke-linecap="round" stroke-linejoin="round" stroke="navy" stroke-miterlimit="10"/></g><g clip-path="url(#N)"><path d="M254.441 191.52h86.278" fill="none" stroke-width=".9" stroke-linecap="round" stroke-linejoin="round" stroke="navy" stroke-miterlimit="10"/></g><g clip-path="url(#O)"><path d="M254.441 192.3h5.637" fill="none" stroke-width=".9" stroke-linecap="round" stroke-linejoin="round" stroke="navy" stroke-miterlimit="10"/></g><path d="M261.34 192.3h.601m1.259 0h53.94m1.739 0h.543" fill="none" stroke-width=".9" stroke-linecap="round" stroke-linejoin="round" stroke="navy" stroke-miterlimit="10"/><g clip-path="url(#P)"><path d="M321.16 192.3h19.559" fill="none" stroke-width=".9" stroke-linecap="round" stroke-linejoin="round" stroke="navy" stroke-miterlimit="10"/></g><g clip-path="url(#Q)"><path d="M254.441 193.078H259" fill="none" stroke-width=".9" stroke-linecap="round" stroke-linejoin="round" stroke="navy" stroke-miterlimit="10"/></g><path d="M261.34 193.078h.601m2.34 0h3.239m1.261 0h.117m1.262 0h4.559m1.261 0h.122m1.198 0h33.36m1.262 0h.117m1.261 0h2.938m2.641 0h.543" fill="none" stroke-width=".9" stroke-linecap="round" stroke-linejoin="round" stroke="navy" stroke-miterlimit="10"/><g clip-path="url(#R)"><path d="M322.121 193.078h18.598" fill="none" stroke-width=".9" stroke-linecap="round" stroke-linejoin="round" stroke="navy" stroke-miterlimit="10"/></g><g clip-path="url(#S)"><path d="M254.441 193.86h4.02" fill="none" stroke-width=".9" stroke-linecap="round" stroke-linejoin="round" stroke="navy" stroke-miterlimit="10"/></g><path d="M261.34 193.86h.601m2.879 0h1.739m2.222 0h.117m2.161 0h2.703m2.218 0h.122m2.16 0h31.437m2.223 0h.117m2.161 0h1.5m3.179 0h.543" fill="none" stroke-width=".9" stroke-linecap="round" stroke-linejoin="round" stroke="navy" stroke-miterlimit="10"/><g clip-path="url(#T)"><path d="M322.602 193.86h18.117" fill="none" stroke-width=".9" stroke-linecap="round" stroke-linejoin="round" stroke="navy" stroke-miterlimit="10"/></g><g clip-path="url(#U)"><path d="M254.441 194.64h3.66" fill="none" stroke-width=".9" stroke-linecap="round" stroke-linejoin="round" stroke="navy" stroke-miterlimit="10"/></g><path d="M261.34 194.64h.601m3.239 0h.96m2.641 0h.117m2.582 0h1.86m2.64 0h.122m2.578 0h30.601m2.641 0h.117m2.582 0h.777m3.481 0h.543" fill="none" stroke-width=".9" stroke-linecap="round" stroke-linejoin="round" stroke="navy" stroke-miterlimit="10"/><g clip-path="url(#V)"><path d="M322.898 194.64h17.82" fill="none" stroke-width=".9" stroke-linecap="round" stroke-linejoin="round" stroke="navy" stroke-miterlimit="10"/></g><g clip-path="url(#W)"><path d="M254.441 195.422h6.899" fill="none" stroke-width=".9" stroke-linecap="round" stroke-linejoin="round" stroke="navy" stroke-miterlimit="10"/></g><path d="M261.941 195.422h4.02m2.82 0h.117m2.762 0h1.5m2.82 0h.122m2.758 0h30.242m2.82 0h.117m2.761 0h4.079" fill="none" stroke-width=".9" stroke-linecap="round" stroke-linejoin="round" stroke="navy" stroke-miterlimit="10"/><g clip-path="url(#X)"><path d="M319.422 195.422h21.297" fill="none" stroke-width=".9" stroke-linecap="round" stroke-linejoin="round" stroke="navy" stroke-miterlimit="10"/></g><g clip-path="url(#Y)"><path d="M254.441 196.2h3.598" fill="none" stroke-width=".9" stroke-linecap="round" stroke-linejoin="round" stroke="navy" stroke-miterlimit="10"/></g><path d="M265.238 196.2h.782m5.64 0h1.559m5.581 0h30.36m2.762 0h.117m2.761 0h.481m3.598 0h.543m3.598 0h8.94" fill="none" stroke-width=".9" stroke-linecap="round" stroke-linejoin="round" stroke="navy" stroke-miterlimit="10"/><g clip-path="url(#Z)"><path d="M335.14 196.2h5.579" fill="none" stroke-width=".9" stroke-linecap="round" stroke-linejoin="round" stroke="navy" stroke-miterlimit="10"/></g><g clip-path="url(#aa)"><path d="M254.441 196.922h3.778" fill="none" stroke-width=".9" stroke-linecap="round" stroke-linejoin="round" stroke="navy" stroke-miterlimit="10"/></g><path d="M265.059 196.922h1.203m5.098 0h2.1m5.099 0h30.84m2.523 0h.117m2.461 0h1.02m3.359 0h.543m3.359 0h7.258" fill="none" stroke-width=".9" stroke-linecap="round" stroke-linejoin="round" stroke="navy" stroke-miterlimit="10"/><g clip-path="url(#ab)"><path d="M337 196.922h3.719" fill="none" stroke-width=".9" stroke-linecap="round" stroke-linejoin="round" stroke="navy" stroke-miterlimit="10"/></g><g clip-path="url(#ac)"><path d="M254.441 197.7h3.059" fill="none" stroke-width=".9" stroke-linecap="round" stroke-linejoin="round" stroke="navy" stroke-miterlimit="10"/></g><path d="M300.46 197.7H310m1.922 0h.117m1.859 0h1.98m3.001 0h.543m3 0h6.656" fill="none" stroke-width=".9" stroke-linecap="round" stroke-linejoin="round" stroke="navy" stroke-miterlimit="10"/><g clip-path="url(#ad)"><path d="M337.96 197.7h2.759" fill="none" stroke-width=".9" stroke-linecap="round" stroke-linejoin="round" stroke="navy" stroke-miterlimit="10"/></g><g clip-path="url(#ae)"><path d="M254.441 198.48h2.278" fill="none" stroke-width=".9" stroke-linecap="round" stroke-linejoin="round" stroke="navy" stroke-miterlimit="10"/></g><path d="M301.48 198.48h10.2m.242 0h.117m.242 0h4.258m2.34 0h.543m2.34 0h6.539" fill="none" stroke-width=".9" stroke-linecap="round" stroke-linejoin="round" stroke="navy" stroke-miterlimit="10"/><g clip-path="url(#af)"><path d="M338.738 198.48h1.98" fill="none" stroke-width=".9" stroke-linecap="round" stroke-linejoin="round" stroke="navy" stroke-miterlimit="10"/></g><g clip-path="url(#ag)"><path d="M254.441 199.262h1.618" fill="none" stroke-width=".9" stroke-linecap="round" stroke-linejoin="round" stroke="navy" stroke-miterlimit="10"/></g><path d="M302.262 199.262h15.476m1.141 0h.543m1.137 0h7.14" fill="none" stroke-width=".9" stroke-linecap="round" stroke-linejoin="round" stroke="navy" stroke-miterlimit="10"/><g clip-path="url(#ah)"><path d="M339.398 199.262h1.32" fill="none" stroke-width=".9" stroke-linecap="round" stroke-linejoin="round" stroke="navy" stroke-miterlimit="10"/></g><g clip-path="url(#ai)"><path d="M254.441 200.04h1.258" fill="none" stroke-width=".9" stroke-linecap="round" stroke-linejoin="round" stroke="navy" stroke-miterlimit="10"/></g><path d="M302.738 200.04h24.66" fill="none" stroke-width=".9" stroke-linecap="round" stroke-linejoin="round" stroke="navy" stroke-miterlimit="10"/><g clip-path="url(#aj)"><path d="M339.7 200.04h1.019" fill="none" stroke-width=".9" stroke-linecap="round" stroke-linejoin="round" stroke="navy" stroke-miterlimit="10"/></g><g clip-path="url(#ak)"><path d="M254.441 200.82h.957" fill="none" stroke-width=".9" stroke-linecap="round" stroke-linejoin="round" stroke="navy" stroke-miterlimit="10"/></g><path d="M303.04 200.82h24" fill="none" stroke-width=".9" stroke-linecap="round" stroke-linejoin="round" stroke="navy" stroke-miterlimit="10"/><g clip-path="url(#al)"><path d="M340 200.82h.719" fill="none" stroke-width=".9" stroke-linecap="round" stroke-linejoin="round" stroke="navy" stroke-miterlimit="10"/></g><g clip-path="url(#am)"><path d="M254.441 201.602h.66" fill="none" stroke-width=".9" stroke-linecap="round" stroke-linejoin="round" stroke="navy" stroke-miterlimit="10"/></g><path d="M303.398 201.602h23.403" fill="none" stroke-width=".9" stroke-linecap="round" stroke-linejoin="round" stroke="navy" stroke-miterlimit="10"/><g clip-path="url(#an)"><path d="M340.3 201.602h.419" fill="none" stroke-width=".9" stroke-linecap="round" stroke-linejoin="round" stroke="navy" stroke-miterlimit="10"/></g><g clip-path="url(#ao)"><path d="M254.441 202.32h.66" fill="none" stroke-width=".9" stroke-linecap="round" stroke-linejoin="round" stroke="navy" stroke-miterlimit="10"/></g><path d="M303.398 202.32h23.403" fill="none" stroke-width=".9" stroke-linecap="round" stroke-linejoin="round" stroke="navy" stroke-miterlimit="10"/><g clip-path="url(#ap)"><path d="M340.3 202.32h.419" fill="none" stroke-width=".9" stroke-linecap="round" stroke-linejoin="round" stroke="navy" stroke-miterlimit="10"/></g><g clip-path="url(#aq)"><path d="M254.441 203.102h.66" fill="none" stroke-width=".9" stroke-linecap="round" stroke-linejoin="round" stroke="navy" stroke-miterlimit="10"/></g><path d="M303.398 203.102h23.403" fill="none" stroke-width=".9" stroke-linecap="round" stroke-linejoin="round" stroke="navy" stroke-miterlimit="10"/><g clip-path="url(#ar)"><path d="M340.3 203.102h.419" fill="none" stroke-width=".9" stroke-linecap="round" stroke-linejoin="round" stroke="navy" stroke-miterlimit="10"/></g><g clip-path="url(#as)"><path d="M254.441 203.879h.66" fill="none" stroke-width=".9" stroke-linecap="round" stroke-linejoin="round" stroke="navy" stroke-miterlimit="10"/></g><path d="M303.398 203.879h12.84m5.821 0h4.742" fill="none" stroke-width=".9" stroke-linecap="round" stroke-linejoin="round" stroke="navy" stroke-miterlimit="10"/><g clip-path="url(#at)"><path d="M340.3 203.879h.419" fill="none" stroke-width=".9" stroke-linecap="round" stroke-linejoin="round" stroke="navy" stroke-miterlimit="10"/></g><g clip-path="url(#au)"><path d="M254.441 204.66h.899" fill="none" stroke-width=".9" stroke-linecap="round" stroke-linejoin="round" stroke="navy" stroke-miterlimit="10"/></g><path d="M323.379 204.66h3.601" fill="none" stroke-width=".9" stroke-linecap="round" stroke-linejoin="round" stroke="navy" stroke-miterlimit="10"/><g clip-path="url(#av)"><path d="M340.059 204.66h.66" fill="none" stroke-width=".9" stroke-linecap="round" stroke-linejoin="round" stroke="navy" stroke-miterlimit="10"/></g><g clip-path="url(#aw)"><path d="M254.441 205.441h1.2" fill="none" stroke-width=".9" stroke-linecap="round" stroke-linejoin="round" stroke="navy" stroke-miterlimit="10"/></g><path d="M324.16 205.441h3.121" fill="none" stroke-width=".9" stroke-linecap="round" stroke-linejoin="round" stroke="navy" stroke-miterlimit="10"/><g clip-path="url(#ax)"><path d="M339.762 205.441h.957" fill="none" stroke-width=".9" stroke-linecap="round" stroke-linejoin="round" stroke="navy" stroke-miterlimit="10"/></g><g clip-path="url(#ay)"><path d="M254.441 206.219h1.38" fill="none" stroke-width=".9" stroke-linecap="round" stroke-linejoin="round" stroke="navy" stroke-miterlimit="10"/></g><path d="M324.879 206.219h2.762" fill="none" stroke-width=".9" stroke-linecap="round" stroke-linejoin="round" stroke="navy" stroke-miterlimit="10"/><g clip-path="url(#az)"><path d="M339.46 206.219h1.259" fill="none" stroke-width=".9" stroke-linecap="round" stroke-linejoin="round" stroke="navy" stroke-miterlimit="10"/></g><g clip-path="url(#aA)"><path d="M254.441 207h1.38" fill="none" stroke-width=".9" stroke-linecap="round" stroke-linejoin="round" stroke="navy" stroke-miterlimit="10"/></g><path d="M325.238 207h2.461" fill="none" stroke-width=".9" stroke-linecap="round" stroke-linejoin="round" stroke="navy" stroke-miterlimit="10"/><g clip-path="url(#aB)"><path d="M339.34 207h1.379" fill="none" stroke-width=".9" stroke-linecap="round" stroke-linejoin="round" stroke="navy" stroke-miterlimit="10"/></g><g clip-path="url(#aC)"><path d="M254.441 207.719h1.38" fill="none" stroke-width=".9" stroke-linecap="round" stroke-linejoin="round" stroke="navy" stroke-miterlimit="10"/></g><path d="M325.54 207.719h2.16" fill="none" stroke-width=".9" stroke-linecap="round" stroke-linejoin="round" stroke="navy" stroke-miterlimit="10"/><g clip-path="url(#aD)"><path d="M339.34 207.719h1.379" fill="none" stroke-width=".9" stroke-linecap="round" stroke-linejoin="round" stroke="navy" stroke-miterlimit="10"/></g><g clip-path="url(#aE)"><path d="M254.441 208.5h1.38" fill="none" stroke-width=".9" stroke-linecap="round" stroke-linejoin="round" stroke="navy" stroke-miterlimit="10"/></g><path d="M325.84 208.5h1.86" fill="none" stroke-width=".9" stroke-linecap="round" stroke-linejoin="round" stroke="navy" stroke-miterlimit="10"/><g clip-path="url(#aF)"><path d="M339.34 208.5h1.379" fill="none" stroke-width=".9" stroke-linecap="round" stroke-linejoin="round" stroke="navy" stroke-miterlimit="10"/></g><g clip-path="url(#aG)"><path d="M254.441 209.281h1.38" fill="none" stroke-width=".9" stroke-linecap="round" stroke-linejoin="round" stroke="navy" stroke-miterlimit="10"/></g><path d="M289.059 209.281h2.703m34.136 0h1.801" fill="none" stroke-width=".9" stroke-linecap="round" stroke-linejoin="round" stroke="navy" stroke-miterlimit="10"/><g clip-path="url(#aH)"><path d="M339.34 209.281h1.379" fill="none" stroke-width=".9" stroke-linecap="round" stroke-linejoin="round" stroke="navy" stroke-miterlimit="10"/></g><g clip-path="url(#aI)"><path d="M254.441 210.059h1.38" fill="none" stroke-width=".9" stroke-linecap="round" stroke-linejoin="round" stroke="navy" stroke-miterlimit="10"/></g><path d="M289.059 210.059h2.703m34.136 0h1.801" fill="none" stroke-width=".9" stroke-linecap="round" stroke-linejoin="round" stroke="navy" stroke-miterlimit="10"/><g clip-path="url(#aJ)"><path d="M339.34 210.059h1.379" fill="none" stroke-width=".9" stroke-linecap="round" stroke-linejoin="round" stroke="navy" stroke-miterlimit="10"/></g><g clip-path="url(#aK)"><path d="M254.441 210.84h1.38" fill="none" stroke-width=".9" stroke-linecap="round" stroke-linejoin="round" stroke="navy" stroke-miterlimit="10"/></g><path d="M289.059 210.84h2.703m34.136 0h1.801" fill="none" stroke-width=".9" stroke-linecap="round" stroke-linejoin="round" stroke="navy" stroke-miterlimit="10"/><g clip-path="url(#aL)"><path d="M339.34 210.84h1.379" fill="none" stroke-width=".9" stroke-linecap="round" stroke-linejoin="round" stroke="navy" stroke-miterlimit="10"/></g><g clip-path="url(#aM)"><path d="M254.441 211.621h1.38" fill="none" stroke-width=".9" stroke-linecap="round" stroke-linejoin="round" stroke="navy" stroke-miterlimit="10"/></g><path d="M288.879 211.621h2.883m34.019 0h1.918" fill="none" stroke-width=".9" stroke-linecap="round" stroke-linejoin="round" stroke="navy" stroke-miterlimit="10"/><g clip-path="url(#aN)"><path d="M339.34 211.621h1.379" fill="none" stroke-width=".9" stroke-linecap="round" stroke-linejoin="round" stroke="navy" stroke-miterlimit="10"/></g><g clip-path="url(#aO)"><path d="M254.441 212.398h1.38" fill="none" stroke-width=".9" stroke-linecap="round" stroke-linejoin="round" stroke="navy" stroke-miterlimit="10"/></g><path d="M288.578 212.398h3.184m33.718 0h2.22" fill="none" stroke-width=".9" stroke-linecap="round" stroke-linejoin="round" stroke="navy" stroke-miterlimit="10"/><g clip-path="url(#aP)"><path d="M339.34 212.398h1.379" fill="none" stroke-width=".9" stroke-linecap="round" stroke-linejoin="round" stroke="navy" stroke-miterlimit="10"/></g><g clip-path="url(#aQ)"><path d="M254.441 213.121h1.38" fill="none" stroke-width=".9" stroke-linecap="round" stroke-linejoin="round" stroke="navy" stroke-miterlimit="10"/></g><path d="M288.281 213.121h3.48m33.419 0h2.52" fill="none" stroke-width=".9" stroke-linecap="round" stroke-linejoin="round" stroke="navy" stroke-miterlimit="10"/><g clip-path="url(#aR)"><path d="M339.34 213.121h1.379" fill="none" stroke-width=".9" stroke-linecap="round" stroke-linejoin="round" stroke="navy" stroke-miterlimit="10"/></g><g clip-path="url(#aS)"><path d="M254.441 213.898h1.38" fill="none" stroke-width=".9" stroke-linecap="round" stroke-linejoin="round" stroke="navy" stroke-miterlimit="10"/></g><path d="M288.219 213.898h3.543m33.238 0h2.7" fill="none" stroke-width=".9" stroke-linecap="round" stroke-linejoin="round" stroke="navy" stroke-miterlimit="10"/><g clip-path="url(#aT)"><path d="M339.34 213.898h1.379" fill="none" stroke-width=".9" stroke-linecap="round" stroke-linejoin="round" stroke="navy" stroke-miterlimit="10"/></g><g clip-path="url(#aU)"><path d="M254.441 214.68h1.38" fill="none" stroke-width=".9" stroke-linecap="round" stroke-linejoin="round" stroke="navy" stroke-miterlimit="10"/></g><path d="M288.52 214.68h3.242m33.238 0h2.7" fill="none" stroke-width=".9" stroke-linecap="round" stroke-linejoin="round" stroke="navy" stroke-miterlimit="10"/><g clip-path="url(#aV)"><path d="M339.34 214.68h1.379" fill="none" stroke-width=".9" stroke-linecap="round" stroke-linejoin="round" stroke="navy" stroke-miterlimit="10"/></g><g clip-path="url(#aW)"><path d="M254.441 215.46h1.38" fill="none" stroke-width=".9" stroke-linecap="round" stroke-linejoin="round" stroke="navy" stroke-miterlimit="10"/></g><path d="M288.879 215.46h2.883m33.238 0h2.7" fill="none" stroke-width=".9" stroke-linecap="round" stroke-linejoin="round" stroke="navy" stroke-miterlimit="10"/><g clip-path="url(#aX)"><path d="M339.34 215.46h1.379" fill="none" stroke-width=".9" stroke-linecap="round" stroke-linejoin="round" stroke="navy" stroke-miterlimit="10"/></g><g clip-path="url(#aY)"><path d="M254.441 216.238h1.38" fill="none" stroke-width=".9" stroke-linecap="round" stroke-linejoin="round" stroke="navy" stroke-miterlimit="10"/></g><path d="M289.059 216.238h2.703m33.238 0h2.7" fill="none" stroke-width=".9" stroke-linecap="round" stroke-linejoin="round" stroke="navy" stroke-miterlimit="10"/><g clip-path="url(#aZ)"><path d="M339.34 216.238h1.379" fill="none" stroke-width=".9" stroke-linecap="round" stroke-linejoin="round" stroke="navy" stroke-miterlimit="10"/></g><g clip-path="url(#ba)"><path d="M254.441 217.02h1.38" fill="none" stroke-width=".9" stroke-linecap="round" stroke-linejoin="round" stroke="navy" stroke-miterlimit="10"/></g><path d="M289.059 217.02h2.703m33.238 0h2.7" fill="none" stroke-width=".9" stroke-linecap="round" stroke-linejoin="round" stroke="navy" stroke-miterlimit="10"/><g clip-path="url(#bb)"><path d="M339.34 217.02h1.379" fill="none" stroke-width=".9" stroke-linecap="round" stroke-linejoin="round" stroke="navy" stroke-miterlimit="10"/></g><g clip-path="url(#bc)"><path d="M254.441 217.8h1.38" fill="none" stroke-width=".9" stroke-linecap="round" stroke-linejoin="round" stroke="navy" stroke-miterlimit="10"/></g><path d="M289.059 217.8h2.703m33.238 0h2.7" fill="none" stroke-width=".9" stroke-linecap="round" stroke-linejoin="round" stroke="navy" stroke-miterlimit="10"/><g clip-path="url(#bd)"><path d="M339.34 217.8h1.379" fill="none" stroke-width=".9" stroke-linecap="round" stroke-linejoin="round" stroke="navy" stroke-miterlimit="10"/></g><g clip-path="url(#be)"><path d="M254.441 218.578h1.38" fill="none" stroke-width=".9" stroke-linecap="round" stroke-linejoin="round" stroke="navy" stroke-miterlimit="10"/></g><path d="M289 218.578h2.762m33.238 0h2.7" fill="none" stroke-width=".9" stroke-linecap="round" stroke-linejoin="round" stroke="navy" stroke-miterlimit="10"/><g clip-path="url(#bf)"><path d="M339.34 218.578h1.379" fill="none" stroke-width=".9" stroke-linecap="round" stroke-linejoin="round" stroke="navy" stroke-miterlimit="10"/></g><g clip-path="url(#bg)"><path d="M254.441 219.3h1.38" fill="none" stroke-width=".9" stroke-linecap="round" stroke-linejoin="round" stroke="navy" stroke-miterlimit="10"/></g><path d="M288.7 219.3h3.062m33.238 0h2.7" fill="none" stroke-width=".9" stroke-linecap="round" stroke-linejoin="round" stroke="navy" stroke-miterlimit="10"/><g clip-path="url(#bh)"><path d="M339.34 219.3h1.379" fill="none" stroke-width=".9" stroke-linecap="round" stroke-linejoin="round" stroke="navy" stroke-miterlimit="10"/></g><g clip-path="url(#bi)"><path d="M254.441 220.078h1.38" fill="none" stroke-width=".9" stroke-linecap="round" stroke-linejoin="round" stroke="navy" stroke-miterlimit="10"/></g><path d="M288.34 220.078h3.422m33.238 0h2.7" fill="none" stroke-width=".9" stroke-linecap="round" stroke-linejoin="round" stroke="navy" stroke-miterlimit="10"/><g clip-path="url(#bj)"><path d="M339.34 220.078h1.379" fill="none" stroke-width=".9" stroke-linecap="round" stroke-linejoin="round" stroke="navy" stroke-miterlimit="10"/></g><g clip-path="url(#bk)"><path d="M254.441 220.86h1.38" fill="none" stroke-width=".9" stroke-linecap="round" stroke-linejoin="round" stroke="navy" stroke-miterlimit="10"/></g><path d="M287.8 220.86h3.962m33.238 0h.238m.84 0h.543m.839 0h.24" fill="none" stroke-width=".9" stroke-linecap="round" stroke-linejoin="round" stroke="navy" stroke-miterlimit="10"/><g clip-path="url(#bl)"><path d="M339.34 220.86h1.379" fill="none" stroke-width=".9" stroke-linecap="round" stroke-linejoin="round" stroke="navy" stroke-miterlimit="10"/></g><g clip-path="url(#bm)"><path d="M254.441 221.64h1.38" fill="none" stroke-width=".9" stroke-linecap="round" stroke-linejoin="round" stroke="navy" stroke-miterlimit="10"/></g><path d="M287.02 221.64h4.742m34.316 0h.543" fill="none" stroke-width=".9" stroke-linecap="round" stroke-linejoin="round" stroke="navy" stroke-miterlimit="10"/><g clip-path="url(#bn)"><path d="M339.46 221.64h1.259" fill="none" stroke-width=".9" stroke-linecap="round" stroke-linejoin="round" stroke="navy" stroke-miterlimit="10"/></g><g clip-path="url(#bo)"><path d="M254.441 222.422h1.38" fill="none" stroke-width=".9" stroke-linecap="round" stroke-linejoin="round" stroke="navy" stroke-miterlimit="10"/></g><path d="M285.879 222.422h5.883m34.316 0h.543" fill="none" stroke-width=".9" stroke-linecap="round" stroke-linejoin="round" stroke="navy" stroke-miterlimit="10"/><g clip-path="url(#bp)"><path d="M339.82 222.422h.899" fill="none" stroke-width=".9" stroke-linecap="round" stroke-linejoin="round" stroke="navy" stroke-miterlimit="10"/></g><g clip-path="url(#bq)"><path d="M254.441 223.2h1.137" fill="none" stroke-width=".9" stroke-linecap="round" stroke-linejoin="round" stroke="navy" stroke-miterlimit="10"/></g><path d="M282.04 223.2h9.722m34.316 0h.543" fill="none" stroke-width=".9" stroke-linecap="round" stroke-linejoin="round" stroke="navy" stroke-miterlimit="10"/><g clip-path="url(#br)"><path d="M340.059 223.2h.66" fill="none" stroke-width=".9" stroke-linecap="round" stroke-linejoin="round" stroke="navy" stroke-miterlimit="10"/></g><g clip-path="url(#bs)"><path d="M254.441 223.98h1.137" fill="none" stroke-width=".9" stroke-linecap="round" stroke-linejoin="round" stroke="navy" stroke-miterlimit="10"/></g><path d="M282.04 223.98h9.722m34.316 0h.543" fill="none" stroke-width=".9" stroke-linecap="round" stroke-linejoin="round" stroke="navy" stroke-miterlimit="10"/><g clip-path="url(#bt)"><path d="M340.059 223.98h.66" fill="none" stroke-width=".9" stroke-linecap="round" stroke-linejoin="round" stroke="navy" stroke-miterlimit="10"/></g><g clip-path="url(#bu)"><path d="M254.441 224.7h1.137" fill="none" stroke-width=".9" stroke-linecap="round" stroke-linejoin="round" stroke="navy" stroke-miterlimit="10"/></g><path d="M282.04 224.7h9.722m34.316 0h.543" fill="none" stroke-width=".9" stroke-linecap="round" stroke-linejoin="round" stroke="navy" stroke-miterlimit="10"/><g clip-path="url(#bv)"><path d="M340.059 224.7h.66" fill="none" stroke-width=".9" stroke-linecap="round" stroke-linejoin="round" stroke="navy" stroke-miterlimit="10"/></g><g clip-path="url(#bw)"><path d="M254.441 225.48h1.137" fill="none" stroke-width=".9" stroke-linecap="round" stroke-linejoin="round" stroke="navy" stroke-miterlimit="10"/></g><path d="M282.04 225.48h9.722m34.316 0h.543" fill="none" stroke-width=".9" stroke-linecap="round" stroke-linejoin="round" stroke="navy" stroke-miterlimit="10"/><g clip-path="url(#bx)"><path d="M340.059 225.48h.66" fill="none" stroke-width=".9" stroke-linecap="round" stroke-linejoin="round" stroke="navy" stroke-miterlimit="10"/></g><g clip-path="url(#by)"><path d="M254.441 226.262h1.438" fill="none" stroke-width=".9" stroke-linecap="round" stroke-linejoin="round" stroke="navy" stroke-miterlimit="10"/></g><path d="M281.738 226.262h10.32m34.02 0h.543" fill="none" stroke-width=".9" stroke-linecap="round" stroke-linejoin="round" stroke="navy" stroke-miterlimit="10"/><g clip-path="url(#bz)"><path d="M339.82 226.262h.899" fill="none" stroke-width=".9" stroke-linecap="round" stroke-linejoin="round" stroke="navy" stroke-miterlimit="10"/></g><g clip-path="url(#bA)"><path d="M254.441 227.04h1.797" fill="none" stroke-width=".9" stroke-linecap="round" stroke-linejoin="round" stroke="navy" stroke-miterlimit="10"/></g><path d="M281.441 227.04h10.98m33.657 0h.543" fill="none" stroke-width=".9" stroke-linecap="round" stroke-linejoin="round" stroke="navy" stroke-miterlimit="10"/><g clip-path="url(#bB)"><path d="M339.52 227.04h1.199" fill="none" stroke-width=".9" stroke-linecap="round" stroke-linejoin="round" stroke="navy" stroke-miterlimit="10"/></g><g clip-path="url(#bC)"><path d="M254.441 227.82h2.098" fill="none" stroke-width=".9" stroke-linecap="round" stroke-linejoin="round" stroke="navy" stroke-miterlimit="10"/></g><path d="M281.078 227.82h11.762m31.379 0h.902m.957 0h.543m.957 0h.3" fill="none" stroke-width=".9" stroke-linecap="round" stroke-linejoin="round" stroke="navy" stroke-miterlimit="10"/><g clip-path="url(#bD)"><path d="M339.16 227.82h1.559" fill="none" stroke-width=".9" stroke-linecap="round" stroke-linejoin="round" stroke="navy" stroke-miterlimit="10"/></g><g clip-path="url(#bE)"><path d="M254.441 228.602h2.88" fill="none" stroke-width=".9" stroke-linecap="round" stroke-linejoin="round" stroke="navy" stroke-miterlimit="10"/></g><path d="M280.3 228.602h13.259m29.882 0h5.098" fill="none" stroke-width=".9" stroke-linecap="round" stroke-linejoin="round" stroke="navy" stroke-miterlimit="10"/><g clip-path="url(#bF)"><path d="M338.559 228.602h2.16" fill="none" stroke-width=".9" stroke-linecap="round" stroke-linejoin="round" stroke="navy" stroke-miterlimit="10"/></g><g clip-path="url(#bG)"><path d="M254.441 229.379h3.66" fill="none" stroke-width=".9" stroke-linecap="round" stroke-linejoin="round" stroke="navy" stroke-miterlimit="10"/></g><path d="M265.18 229.379h.12m7.079 0h.121m7.078 0h14.883m13.859 0h.121m7.079 0h.12m7.02 0h6.602" fill="none" stroke-width=".9" stroke-linecap="round" stroke-linejoin="round" stroke="navy" stroke-miterlimit="10"/><g clip-path="url(#bH)"><path d="M337.781 229.379h2.938" fill="none" stroke-width=".9" stroke-linecap="round" stroke-linejoin="round" stroke="navy" stroke-miterlimit="10"/></g><g clip-path="url(#bI)"><path d="M254.441 230.102h5.399" fill="none" stroke-width=".9" stroke-linecap="round" stroke-linejoin="round" stroke="navy" stroke-miterlimit="10"/></g><path d="M263.441 230.102h3.54m3.659 0h3.54m3.66 0h18.48m10.258 0h3.543m3.66 0h3.54m3.659 0h9.418" fill="none" stroke-width=".9" stroke-linecap="round" stroke-linejoin="round" stroke="navy" stroke-miterlimit="10"/><g clip-path="url(#bJ)"><path d="M336.7 230.102h4.019" fill="none" stroke-width=".9" stroke-linecap="round" stroke-linejoin="round" stroke="navy" stroke-miterlimit="10"/></g><g clip-path="url(#bK)"><path d="M254.441 230.879h86.278" fill="none" stroke-width=".9" stroke-linecap="round" stroke-linejoin="round" stroke="navy" stroke-miterlimit="10"/></g><path d="M261.64 202.8h35.938m0 0v21.54m0 0h7.203M261.64 202.8v21.54M304.781 210h14.399m0 0v14.34" fill="none" stroke-width="3.6" stroke-linecap="round" stroke-linejoin="round" stroke="navy" stroke-miterlimit="10"/><path d="M302.86 210a1.859 1.859 0 1 1 3.717-.001 1.859 1.859 0 0 1-3.718.001" fill-rule="evenodd" fill="green"/><path d="M302.86 210a1.859 1.859 0 1 1 3.717-.001 1.859 1.859 0 0 1-3.718.001zm0 0" fill="none" stroke-width=".12" stroke-linecap="round" stroke-linejoin="round" stroke="green" stroke-miterlimit="10"/><path d="M303.578 210a1.14 1.14 0 1 1 1.14 1.14c-.628 0-1.14-.511-1.14-1.14" fill-rule="evenodd" fill="#fff"/><path d="M303.578 210a1.14 1.14 0 1 1 1.14 1.14c-.628 0-1.14-.511-1.14-1.14zm0 0" fill="none" stroke-width=".06" stroke-linecap="square" stroke-linejoin="bevel" stroke="#000" stroke-miterlimit="10"/><path d="M281.262 210a1.859 1.859 0 1 1 3.717-.001 1.859 1.859 0 0 1-3.717.001" fill-rule="evenodd" fill="green"/><path d="M281.262 210a1.859 1.859 0 1 1 3.717-.001 1.859 1.859 0 0 1-3.717.001zm0 0" fill="none" stroke-width=".12" stroke-linecap="round" stroke-linejoin="round" stroke="green" stroke-miterlimit="10"/><path d="M281.98 210a1.14 1.14 0 1 1 2.282 0 1.14 1.14 0 1 1-2.281 0" fill-rule="evenodd" fill="#fff"/><path d="M281.98 210a1.14 1.14 0 1 1 2.282 0 1.14 1.14 0 1 1-2.281 0zm0 0" fill="none" stroke-width=".06" stroke-linecap="square" stroke-linejoin="bevel" stroke="#000" stroke-miterlimit="10"/><path d="M302.86 217.2a1.859 1.859 0 1 1 3.717-.002 1.859 1.859 0 0 1-3.718.001" fill-rule="evenodd" fill="green"/><path d="M302.86 217.2a1.859 1.859 0 1 1 3.717-.002 1.859 1.859 0 0 1-3.718.001zm0 0" fill="none" stroke-width=".12" stroke-linecap="round" stroke-linejoin="round" stroke="green" stroke-miterlimit="10"/><path d="M303.578 217.2a1.14 1.14 0 1 1 1.14 1.14c-.628 0-1.14-.512-1.14-1.14" fill-rule="evenodd" fill="#fff"/><path d="M303.578 217.2a1.14 1.14 0 1 1 1.14 1.14c-.628 0-1.14-.512-1.14-1.14zm0 0" fill="none" stroke-width=".06" stroke-linecap="square" stroke-linejoin="bevel" stroke="#000" stroke-miterlimit="10"/><path d="M281.262 217.2a1.859 1.859 0 1 1 3.717-.002 1.859 1.859 0 0 1-3.717.001" fill-rule="evenodd" fill="green"/><path d="M281.262 217.2a1.859 1.859 0 1 1 3.717-.002 1.859 1.859 0 0 1-3.717.001zm0 0" fill="none" stroke-width=".12" stroke-linecap="round" stroke-linejoin="round" stroke="green" stroke-miterlimit="10"/><path d="M281.98 217.2a1.14 1.14 0 1 1 2.282 0 1.14 1.14 0 1 1-2.281 0" fill-rule="evenodd" fill="#fff"/><path d="M281.98 217.2a1.14 1.14 0 1 1 2.282 0 1.14 1.14 0 1 1-2.281 0zm0 0" fill="none" stroke-width=".06" stroke-linecap="square" stroke-linejoin="bevel" stroke="#000" stroke-miterlimit="10"/><path d="M274.3 195.66a1.68 1.68 0 1 1 3.36 0 1.68 1.68 0 0 1-3.36 0" fill-rule="evenodd" fill="green"/><path d="M274.3 195.66a1.68 1.68 0 1 1 3.36 0 1.68 1.68 0 0 1-3.36 0zm0 0" fill="none" stroke-width=".12" stroke-linecap="round" stroke-linejoin="round" stroke="green" stroke-miterlimit="10"/><path d="M274.96 195.66c0-.531.458-.96 1.02-.96.563 0 1.02.429 1.02.96 0 .531-.457.961-1.02.961-.562 0-1.02-.43-1.02-.96" fill-rule="evenodd" fill="#fff"/><path d="M274.96 195.66c0-.531.458-.96 1.02-.96.563 0 1.02.429 1.02.96 0 .531-.457.961-1.02.961-.562 0-1.02-.43-1.02-.96zm0 0" fill="none" stroke-width=".06" stroke-linecap="square" stroke-linejoin="bevel" stroke="#000" stroke-miterlimit="10"/><path d="M274.3 217.2a1.68 1.68 0 1 1 3.36-.001 1.68 1.68 0 0 1-3.36 0" fill-rule="evenodd" fill="green"/><path d="M274.3 217.2a1.68 1.68 0 1 1 3.36-.001 1.68 1.68 0 0 1-3.36 0zm0 0" fill="none" stroke-width=".12" stroke-linecap="round" stroke-linejoin="round" stroke="green" stroke-miterlimit="10"/><path d="M274.96 217.2c0-.528.458-.962 1.02-.962.563 0 1.02.434 1.02.961 0 .531-.457.961-1.02.961-.562 0-1.02-.43-1.02-.96" fill-rule="evenodd" fill="#fff"/><path d="M274.96 217.2c0-.528.458-.962 1.02-.962.563 0 1.02.434 1.02.961 0 .531-.457.961-1.02.961-.562 0-1.02-.43-1.02-.96zm0 0" fill="none" stroke-width=".06" stroke-linecap="square" stroke-linejoin="bevel" stroke="#000" stroke-miterlimit="10"/><path d="M267.102 195.66a1.68 1.68 0 1 1 3.36 0 1.68 1.68 0 0 1-3.36 0" fill-rule="evenodd" fill="green"/><path d="M267.102 195.66a1.68 1.68 0 1 1 3.36 0 1.68 1.68 0 0 1-3.36 0zm0 0" fill="none" stroke-width=".12" stroke-linecap="round" stroke-linejoin="round" stroke="green" stroke-miterlimit="10"/><path d="M267.762 195.66c0-.531.457-.96 1.02-.96.562 0 1.019.429 1.019.96 0 .531-.457.961-1.02.961-.562 0-1.02-.43-1.02-.96" fill-rule="evenodd" fill="#fff"/><path d="M267.762 195.66c0-.531.457-.96 1.02-.96.562 0 1.019.429 1.019.96 0 .531-.457.961-1.02.961-.562 0-1.02-.43-1.02-.96zm0 0" fill="none" stroke-width=".06" stroke-linecap="square" stroke-linejoin="bevel" stroke="#000" stroke-miterlimit="10"/><path d="M267.102 217.2a1.68 1.68 0 1 1 3.359-.001 1.68 1.68 0 0 1-3.36 0" fill-rule="evenodd" fill="green"/><path d="M267.102 217.2a1.68 1.68 0 1 1 3.359-.001 1.68 1.68 0 0 1-3.36 0zm0 0" fill="none" stroke-width=".12" stroke-linecap="round" stroke-linejoin="round" stroke="green" stroke-miterlimit="10"/><path d="M267.762 217.2c0-.528.457-.962 1.02-.962.562 0 1.019.434 1.019.961 0 .531-.457.961-1.02.961-.562 0-1.02-.43-1.02-.96" fill-rule="evenodd" fill="#fff"/><path d="M267.762 217.2c0-.528.457-.962 1.02-.962.562 0 1.019.434 1.019.961 0 .531-.457.961-1.02.961-.562 0-1.02-.43-1.02-.96zm0 0" fill="none" stroke-width=".06" stroke-linecap="square" stroke-linejoin="bevel" stroke="#000" stroke-miterlimit="10"/><path d="M310.238 195.66c0-.93.754-1.68 1.684-1.68a1.68 1.68 0 1 1 0 3.36 1.68 1.68 0 0 1-1.684-1.68" fill-rule="evenodd" fill="green"/><path d="M310.238 195.66c0-.93.754-1.68 1.684-1.68a1.68 1.68 0 1 1 0 3.36 1.68 1.68 0 0 1-1.684-1.68zm0 0" fill="none" stroke-width=".12" stroke-linecap="round" stroke-linejoin="round" stroke="green" stroke-miterlimit="10"/><path d="M310.898 195.66c0-.531.457-.96 1.024-.96.562 0 1.02.429 1.02.96 0 .531-.458.961-1.02.961-.567 0-1.024-.43-1.024-.96" fill-rule="evenodd" fill="#fff"/><path d="M310.898 195.66c0-.531.457-.96 1.024-.96.562 0 1.02.429 1.02.96 0 .531-.458.961-1.02.961-.567 0-1.024-.43-1.024-.96zm0 0" fill="none" stroke-width=".06" stroke-linecap="square" stroke-linejoin="bevel" stroke="#000" stroke-miterlimit="10"/><path d="M310.238 217.2a1.682 1.682 0 0 1 3.363 0c0 .929-.753 1.679-1.68 1.679a1.68 1.68 0 0 1-1.683-1.68" fill-rule="evenodd" fill="green"/><path d="M310.238 217.2a1.682 1.682 0 0 1 3.363 0c0 .929-.753 1.679-1.68 1.679a1.68 1.68 0 0 1-1.683-1.68zm0 0" fill="none" stroke-width=".12" stroke-linecap="round" stroke-linejoin="round" stroke="green" stroke-miterlimit="10"/><path d="M310.898 217.2c0-.528.457-.962 1.024-.962.562 0 1.02.434 1.02.961 0 .531-.458.961-1.02.961-.567 0-1.024-.43-1.024-.96" fill-rule="evenodd" fill="#fff"/><path d="M310.898 217.2c0-.528.457-.962 1.024-.962.562 0 1.02.434 1.02.961 0 .531-.458.961-1.02.961-.567 0-1.024-.43-1.024-.96zm0 0" fill="none" stroke-width=".06" stroke-linecap="square" stroke-linejoin="bevel" stroke="#000" stroke-miterlimit="10"/><path d="M273.941 224.34c0-1.094.914-1.98 2.04-1.98 1.124 0 2.039.886 2.039 1.98 0 1.094-.915 1.98-2.04 1.98s-2.039-.886-2.039-1.98" fill-rule="evenodd" fill="green"/><path d="M273.941 224.34c0-1.094.914-1.98 2.04-1.98 1.124 0 2.039.886 2.039 1.98 0 1.094-.915 1.98-2.04 1.98s-2.039-.886-2.039-1.98zm0 0" fill="none" stroke-width=".12" stroke-linecap="round" stroke-linejoin="round" stroke="green" stroke-miterlimit="10"/><path d="M274.96 224.34c0-.531.458-.961 1.02-.961.563 0 1.02.43 1.02.96 0 .532-.457.962-1.02.962-.562 0-1.02-.43-1.02-.961" fill-rule="evenodd" fill="#fff"/><path d="M274.96 224.34c0-.531.458-.961 1.02-.961.563 0 1.02.43 1.02.96 0 .532-.457.962-1.02.962-.562 0-1.02-.43-1.02-.961zm0 0" fill="none" stroke-width=".06" stroke-linecap="square" stroke-linejoin="bevel" stroke="#000" stroke-miterlimit="10"/><path d="M259.54 224.34c0-1.094.913-1.98 2.038-1.98 1.129 0 2.043.886 2.043 1.98 0 1.094-.914 1.98-2.043 1.98-1.125 0-2.039-.886-2.039-1.98" fill-rule="evenodd" fill="green"/><path d="M259.54 224.34c0-1.094.913-1.98 2.038-1.98 1.129 0 2.043.886 2.043 1.98 0 1.094-.914 1.98-2.043 1.98-1.125 0-2.039-.886-2.039-1.98zm0 0" fill="none" stroke-width=".12" stroke-linecap="round" stroke-linejoin="round" stroke="green" stroke-miterlimit="10"/><path d="M260.559 224.34c0-.531.457-.961 1.02-.961.566 0 1.023.43 1.023.96 0 .532-.457.962-1.024.962-.562 0-1.02-.43-1.02-.961" fill-rule="evenodd" fill="#fff"/><path d="M260.559 224.34c0-.531.457-.961 1.02-.961.566 0 1.023.43 1.023.96 0 .532-.457.962-1.024.962-.562 0-1.02-.43-1.02-.961zm0 0" fill="none" stroke-width=".06" stroke-linecap="square" stroke-linejoin="bevel" stroke="#000" stroke-miterlimit="10"/><path d="M266.738 224.34c0-1.094.914-1.98 2.043-1.98 1.125 0 2.04.886 2.04 1.98 0 1.094-.915 1.98-2.04 1.98-1.129 0-2.043-.886-2.043-1.98" fill-rule="evenodd" fill="green"/><path d="M266.738 224.34c0-1.094.914-1.98 2.043-1.98 1.125 0 2.04.886 2.04 1.98 0 1.094-.915 1.98-2.04 1.98-1.129 0-2.043-.886-2.043-1.98zm0 0" fill="none" stroke-width=".12" stroke-linecap="round" stroke-linejoin="round" stroke="green" stroke-miterlimit="10"/><path d="M267.762 224.34c0-.531.457-.961 1.02-.961.562 0 1.019.43 1.019.96 0 .532-.457.962-1.02.962-.562 0-1.02-.43-1.02-.961" fill-rule="evenodd" fill="#fff"/><path d="M267.762 224.34c0-.531.457-.961 1.02-.961.562 0 1.019.43 1.019.96 0 .532-.457.962-1.02.962-.562 0-1.02-.43-1.02-.961zm0 0" fill="none" stroke-width=".06" stroke-linecap="square" stroke-linejoin="bevel" stroke="#000" stroke-miterlimit="10"/><path d="M317.078 224.34c0-1.094.914-1.98 2.043-1.98 1.125 0 2.04.886 2.04 1.98 0 1.094-.915 1.98-2.04 1.98-1.129 0-2.043-.886-2.043-1.98" fill-rule="evenodd" fill="green"/><path d="M317.078 224.34c0-1.094.914-1.98 2.043-1.98 1.125 0 2.04.886 2.04 1.98 0 1.094-.915 1.98-2.04 1.98-1.129 0-2.043-.886-2.043-1.98zm0 0" fill="none" stroke-width=".12" stroke-linecap="round" stroke-linejoin="round" stroke="green" stroke-miterlimit="10"/><path d="M318.102 224.34c0-.531.457-.961 1.02-.961.562 0 1.019.43 1.019.96 0 .532-.457.962-1.02.962-.562 0-1.02-.43-1.02-.961" fill-rule="evenodd" fill="#fff"/><path d="M318.102 224.34c0-.531.457-.961 1.02-.961.562 0 1.019.43 1.019.96 0 .532-.457.962-1.02.962-.562 0-1.02-.43-1.02-.961zm0 0" fill="none" stroke-width=".06" stroke-linecap="square" stroke-linejoin="bevel" stroke="#000" stroke-miterlimit="10"/><path d="M302.68 224.34c0-1.094.914-1.98 2.039-1.98 1.129 0 2.043.886 2.043 1.98 0 1.094-.914 1.98-2.043 1.98-1.125 0-2.04-.886-2.04-1.98" fill-rule="evenodd" fill="green"/><path d="M302.68 224.34c0-1.094.914-1.98 2.039-1.98 1.129 0 2.043.886 2.043 1.98 0 1.094-.914 1.98-2.043 1.98-1.125 0-2.04-.886-2.04-1.98zm0 0" fill="none" stroke-width=".12" stroke-linecap="round" stroke-linejoin="round" stroke="green" stroke-miterlimit="10"/><path d="M303.7 224.34c0-.531.456-.961 1.019-.961.562 0 1.02.43 1.02.96 0 .532-.458.962-1.02.962-.563 0-1.02-.43-1.02-.961" fill-rule="evenodd" fill="#fff"/><path d="M303.7 224.34c0-.531.456-.961 1.019-.961.562 0 1.02.43 1.02.96 0 .532-.458.962-1.02.962-.563 0-1.02-.43-1.02-.961zm0 0" fill="none" stroke-width=".06" stroke-linecap="square" stroke-linejoin="bevel" stroke="#000" stroke-miterlimit="10"/><path d="M309.879 224.34c0-1.094.914-1.98 2.043-1.98 1.125 0 2.039.886 2.039 1.98 0 1.094-.914 1.98-2.04 1.98-1.128 0-2.042-.886-2.042-1.98" fill-rule="evenodd" fill="green"/><path d="M309.879 224.34c0-1.094.914-1.98 2.043-1.98 1.125 0 2.039.886 2.039 1.98 0 1.094-.914 1.98-2.04 1.98-1.128 0-2.042-.886-2.042-1.98zm0 0" fill="none" stroke-width=".12" stroke-linecap="round" stroke-linejoin="round" stroke="green" stroke-miterlimit="10"/><path d="M310.898 224.34c0-.531.457-.961 1.024-.961.562 0 1.02.43 1.02.96 0 .532-.458.962-1.02.962-.567 0-1.024-.43-1.024-.961" fill-rule="evenodd" fill="#fff"/><path d="M310.898 224.34c0-.531.457-.961 1.024-.961.562 0 1.02.43 1.02.96 0 .532-.458.962-1.02.962-.567 0-1.024-.43-1.024-.961zm0 0" fill="none" stroke-width=".06" stroke-linecap="square" stroke-linejoin="bevel" stroke="#000" stroke-miterlimit="10"/><path d="M323.738 224.34a2.521 2.521 0 0 1 5.043 0 2.52 2.52 0 0 1-5.043 0" fill-rule="evenodd" fill="green"/><path d="M323.738 224.34a2.521 2.521 0 0 1 5.043 0 2.52 2.52 0 0 1-5.043 0zm0 0" fill="none" stroke-width=".12" stroke-linecap="round" stroke-linejoin="round" stroke="green" stroke-miterlimit="10"/><path d="M324.82 224.34c0-.793.645-1.442 1.442-1.442a1.442 1.442 0 0 1 0 2.883 1.44 1.44 0 0 1-1.442-1.441" fill-rule="evenodd" fill="#fff"/><path d="M324.82 224.34c0-.793.645-1.442 1.442-1.442a1.442 1.442 0 0 1 0 2.883 1.44 1.44 0 0 1-1.442-1.441zm0 0" fill="none" stroke-width=".06" stroke-linecap="square" stroke-linejoin="bevel" stroke="#000" stroke-miterlimit="10"/><path d="M330.941 224.34a2.52 2.52 0 1 1 5.037.002 2.52 2.52 0 0 1-5.037-.002" fill-rule="evenodd" fill="green"/><path d="M330.941 224.34a2.52 2.52 0 1 1 5.037.002 2.52 2.52 0 0 1-5.037-.002zm0 0" fill="none" stroke-width=".12" stroke-linecap="round" stroke-linejoin="round" stroke="green" stroke-miterlimit="10"/><path d="M332.02 224.34c0-.793.644-1.442 1.44-1.442a1.442 1.442 0 0 1 0 2.883 1.44 1.44 0 0 1-1.44-1.441" fill-rule="evenodd" fill="#fff"/><path d="M332.02 224.34c0-.793.644-1.442 1.44-1.442a1.442 1.442 0 0 1 0 2.883 1.44 1.44 0 0 1-1.44-1.441zm0 0" fill="none" stroke-width=".06" stroke-linecap="square" stroke-linejoin="bevel" stroke="#000" stroke-miterlimit="10"/><path d="M259.059 195.66a2.52 2.52 0 1 1 5.04.002 2.52 2.52 0 0 1-5.04-.002" fill-rule="evenodd" fill="green"/><path d="M259.059 195.66a2.52 2.52 0 1 1 5.04.002 2.52 2.52 0 0 1-5.04-.002zm0 0" fill="none" stroke-width=".12" stroke-linecap="round" stroke-linejoin="round" stroke="green" stroke-miterlimit="10"/><path d="M260.14 195.66a1.44 1.44 0 1 1 2.88 0c0 .793-.645 1.442-1.442 1.442a1.442 1.442 0 0 1-1.437-1.442" fill-rule="evenodd" fill="#fff"/><path d="M260.14 195.66a1.44 1.44 0 1 1 2.88 0c0 .793-.645 1.442-1.442 1.442a1.442 1.442 0 0 1-1.437-1.442zm0 0" fill="none" stroke-width=".06" stroke-linecap="square" stroke-linejoin="bevel" stroke="#000" stroke-miterlimit="10"/><path d="M259.059 202.8a2.518 2.518 0 0 1 2.52-2.519 2.519 2.519 0 1 1 0 5.04 2.52 2.52 0 0 1-2.52-2.52" fill-rule="evenodd" fill="green"/><path d="M259.059 202.8a2.518 2.518 0 0 1 2.52-2.519 2.519 2.519 0 1 1 0 5.04 2.52 2.52 0 0 1-2.52-2.52zm0 0" fill="none" stroke-width=".12" stroke-linecap="round" stroke-linejoin="round" stroke="green" stroke-miterlimit="10"/><path d="M260.14 202.8a1.44 1.44 0 1 1 2.88-.003 1.44 1.44 0 0 1-2.88.004" fill-rule="evenodd" fill="#fff"/><path d="M260.14 202.8a1.44 1.44 0 1 1 2.88-.003 1.44 1.44 0 0 1-2.88.004zm0 0" fill="none" stroke-width=".06" stroke-linecap="square" stroke-linejoin="bevel" stroke="#000" stroke-miterlimit="10"/><path d="M330.7 202.8c0-1.491 1.238-2.698 2.76-2.698 1.524 0 2.759 1.207 2.759 2.699 0 1.488-1.235 2.699-2.758 2.699-1.524 0-2.762-1.21-2.762-2.7" fill-rule="evenodd" fill="green"/><path d="M330.7 202.8c0-1.491 1.237-2.698 2.76-2.698 1.524 0 2.759 1.207 2.759 2.699 0 1.488-1.235 2.699-2.758 2.699-1.524 0-2.762-1.21-2.762-2.7zm0 0" fill="none" stroke-width=".12" stroke-linecap="round" stroke-linejoin="round" stroke="green" stroke-miterlimit="10"/><path d="M332.02 202.8a1.44 1.44 0 1 1 2.88-.001 1.44 1.44 0 0 1-2.88.002" fill-rule="evenodd" fill="#fff"/><path d="M332.02 202.8a1.44 1.44 0 1 1 2.88-.001 1.44 1.44 0 0 1-2.88.002zm0 0" fill="none" stroke-width=".06" stroke-linecap="square" stroke-linejoin="bevel" stroke="#000" stroke-miterlimit="10"/><path d="M316.36 210c0-1.492 1.238-2.7 2.761-2.7 1.524 0 2.758 1.208 2.758 2.7 0 1.492-1.234 2.7-2.758 2.7-1.523 0-2.762-1.208-2.762-2.7" fill-rule="evenodd" fill="green"/><path d="M316.36 210c0-1.492 1.238-2.7 2.761-2.7 1.524 0 2.758 1.208 2.758 2.7 0 1.492-1.234 2.7-2.758 2.7-1.523 0-2.762-1.208-2.762-2.7zm0 0" fill="none" stroke-width=".12" stroke-linecap="round" stroke-linejoin="round" stroke="green" stroke-miterlimit="10"/><path d="M317.68 210a1.44 1.44 0 1 1 2.88-.002 1.44 1.44 0 0 1-2.88.002" fill-rule="evenodd" fill="#fff"/><path d="M317.68 210a1.44 1.44 0 1 1 2.88-.002 1.44 1.44 0 0 1-2.88.002zm0 0" fill="none" stroke-width=".06" stroke-linecap="square" stroke-linejoin="bevel" stroke="#000" stroke-miterlimit="10"/><path d="M316.36 195.66c0-1.492 1.238-2.7 2.761-2.7 1.524 0 2.758 1.208 2.758 2.7 0 1.492-1.234 2.7-2.758 2.7-1.523 0-2.762-1.208-2.762-2.7" fill-rule="evenodd" fill="green"/><path d="M316.36 195.66c0-1.492 1.238-2.7 2.761-2.7 1.524 0 2.758 1.208 2.758 2.7 0 1.492-1.234 2.7-2.758 2.7-1.523 0-2.762-1.208-2.762-2.7zm0 0" fill="none" stroke-width=".12" stroke-linecap="round" stroke-linejoin="round" stroke="green" stroke-miterlimit="10"/><path d="M317.68 195.66a1.44 1.44 0 1 1 2.88-.002 1.44 1.44 0 0 1-2.88.002" fill-rule="evenodd" fill="#fff"/><path d="M317.68 195.66a1.44 1.44 0 1 1 2.88-.002 1.44 1.44 0 0 1-2.88.002zm0 0" fill="none" stroke-width=".06" stroke-linecap="square" stroke-linejoin="bevel" stroke="#000" stroke-miterlimit="10"/></svg>