<svg xmlns="http://www.w3.org/2000/svg" xmlns:xlink="http://www.w3.org/1999/xlink" width="595pt" height="560" viewBox="0 0 595 420"><defs><symbol overflow="visible" id="a"><path d="M1.219.203H.312c.008.04.02.07.032.094A.264.264 0 0 0 .39.39c.03.03.062.054.093.078C.524.5.57.53.625.563l.25.125a.79.79 0 0 1 .266.218.523.523 0 0 1 .093.297c0 .07-.015.14-.046.203-.032.063-.07.117-.11.172a.69.69 0 0 1-.39.125.68.68 0 0 1-.297-.062.352.352 0 0 1-.172-.157.617.617 0 0 1-.078-.14.476.476 0 0 1-.016-.125v-.11h.203c.008.063.016.11.016.141.008.04.023.078.047.11.02.05.054.085.109.109a.337.337 0 0 0 .313.016.258.258 0 0 0 .109-.063.174.174 0 0 0 .062-.094.31.31 0 0 0 .032-.125c0-.137-.079-.25-.235-.344L.562.734A1.87 1.87 0 0 1 .329.578.601.601 0 0 1 .11.234 2.309 2.309 0 0 1 .08 0h1.14zm0 0"/></symbol><symbol overflow="visible" id="b"><path d="M.453.25h-.25V0h.25zm0 0"/></symbol><symbol overflow="visible" id="c"><path d="M1.25 1.703H.11V1.5h.921A4.717 4.717 0 0 1 .578.734a2.857 2.857 0 0 1-.14-.359A3.257 3.257 0 0 1 .328 0h.234c.02.133.047.266.079.39.039.133.086.266.14.391.063.125.13.242.203.36.082.125.172.254.266.39zm0 0"/></symbol><symbol overflow="visible" id="d"><path d="M.172 1.266V0h.203v.703c0 .063.004.117.016.172C.41.925.43.969.453 1c.031.04.067.07.11.094.05.02.101.031.156.031.07 0 .129-.027.172-.078A.217.217 0 0 0 .969.875V0h.203v.953c0 .05-.012.098-.031.14a.555.555 0 0 1-.079.11.253.253 0 0 1-.125.063.497.497 0 0 1-.171.03.435.435 0 0 1-.235-.062.62.62 0 0 1-.172-.187v.219zm0 0"/></symbol><symbol overflow="visible" id="e"><path d="M.438.797h.843V1H.438v.563h.953v.187H.219V0h.218zm0 0"/></symbol><symbol overflow="visible" id="m"><path d="M1.594 1.203c-.032.195-.106.344-.219.438a.698.698 0 0 1-.453.14.847.847 0 0 1-.328-.062.54.54 0 0 1-.235-.157.745.745 0 0 1-.187-.312A1.123 1.123 0 0 1 .109.86C.11.71.13.577.172.452A.891.891 0 0 1 .375.156.505.505 0 0 1 .594 0a.796.796 0 0 1 .312-.063c.426 0 .664.235.719.704h-.234a.358.358 0 0 0-.032-.157.401.401 0 0 0-.046-.109.342.342 0 0 0-.157-.188.634.634 0 0 0-.25-.046.57.57 0 0 0-.234.047.476.476 0 0 0-.188.14.953.953 0 0 0-.109.219 1.283 1.283 0 0 0-.031.312c0 .114.008.211.031.297.02.094.055.172.11.235.05.062.109.109.171.14a.86.86 0 0 0 .235.063c.07-.012.132-.028.187-.047a.313.313 0 0 0 .156-.078.313.313 0 0 0 .079-.094.713.713 0 0 0 .046-.172zm0 0"/></symbol><symbol overflow="visible" id="n"><path d="M.625 1.219V0h.203v1.703H.703C.68 1.641.66 1.586.641 1.547a.239.239 0 0 0-.079-.094.53.53 0 0 0-.125-.062 1.87 1.87 0 0 0-.187-.032v-.14zm0 0"/></symbol><symbol overflow="visible" id="f"><path d="M1.547 2.297H.359l-.171-1.25h.265a.53.53 0 0 0 .094.094c.031.03.062.05.094.062.03.02.062.031.093.031.04.008.082.02.125.032.082-.012.149-.028.204-.047a.367.367 0 0 0 .156-.11.505.505 0 0 0 .11-.187 1.42 1.42 0 0 0 .046-.219 1.325 1.325 0 0 0-.047-.219.597.597 0 0 0-.14-.203C1.125.22 1.016.18.859.171a.436.436 0 0 0-.296.095.686.686 0 0 0-.172.296H.109A.577.577 0 0 1 .141.438C.148.407.16.367.17.329A.605.605 0 0 1 .25.203.51.51 0 0 1 .5 0a.907.907 0 0 1 .375-.078.774.774 0 0 1 .563.234c.07.07.125.156.156.25.039.102.062.219.062.344 0 .113-.023.21-.062.297a.588.588 0 0 1-.14.234.702.702 0 0 1-.532.235.57.57 0 0 1-.235-.047A1.05 1.05 0 0 1 .5 1.375l.078.64h.969zm0 0"/></symbol><symbol overflow="visible" id="g"><path d="M.625.344H.281V0h.344zm0 0"/></symbol><symbol overflow="visible" id="h"><path d="M.844 1.64V0h.281v2.297H.937a.817.817 0 0 0-.078-.219.434.434 0 0 0-.109-.125.541.541 0 0 0-.172-.078 2.396 2.396 0 0 0-.25-.031V1.64zm0 0"/></symbol><symbol overflow="visible" id="i"><path d="M.453 2.36H.187V0h.266v.656L.72.922 1.297 0h.328L.937 1.11l.579.577h-.344L.453.97zm0 0"/></symbol><symbol overflow="visible" id="j"><path d="M.25 0h1.063c.113 0 .21.016.296.047a.528.528 0 0 1 .22.156c.062.063.109.129.14.203a.745.745 0 0 1 .047.266c0 .144-.04.258-.11.344-.062.093-.172.171-.328.234a.46.46 0 0 1 .25.188A.68.68 0 0 1 1.86 2a.539.539 0 0 1-.14.188.493.493 0 0 1-.219.124.817.817 0 0 1-.281.047H.25zm.313 1.344v.75h.578a.6.6 0 0 0 .203-.031.743.743 0 0 0 .14-.047.38.38 0 0 0 .125-.297.48.48 0 0 0-.03-.172.31.31 0 0 0-.235-.188.997.997 0 0 0-.203-.015zm0-1.078v.812h.734a.497.497 0 0 0 .312-.11.814.814 0 0 0 .079-.14.463.463 0 0 0 .03-.156.48.48 0 0 0-.03-.172C1.663.457 1.64.414 1.609.375a.404.404 0 0 0-.14-.094.804.804 0 0 0-.172-.015zm0 0"/></symbol><symbol overflow="visible" id="k"><path d="M2.14 1.625c-.042.258-.14.453-.296.578-.149.125-.352.188-.61.188-.156 0-.304-.028-.437-.079a.714.714 0 0 1-.313-.203 1.503 1.503 0 0 1-.25-.437 1.552 1.552 0 0 1-.078-.516C.156.957.18.773.234.61.297.453.383.316.5.203A.676.676 0 0 1 .797 0c.125-.05.265-.078.422-.078.57 0 .894.312.968.937h-.312a1.325 1.325 0 0 0-.047-.218A.33.33 0 0 0 1.766.5a.442.442 0 0 0-.22-.234.638.638 0 0 0-.327-.079.732.732 0 0 0-.313.063.83.83 0 0 0-.25.203C.594.535.54.633.5.75a1.657 1.657 0 0 0-.047.406c0 .145.016.274.047.39.04.126.094.227.156.313.063.094.133.16.219.204.094.039.203.062.328.062a.634.634 0 0 0 .25-.047.653.653 0 0 0 .203-.094.69.69 0 0 0 .11-.156.566.566 0 0 0 .062-.203zm0 0"/></symbol><symbol overflow="visible" id="l"><path d="M1.688 2.297H.155v-.281h1.235c-.137-.2-.258-.383-.36-.547a6.407 6.407 0 0 1-.25-.485A3.087 3.087 0 0 1 .594.516 4.086 4.086 0 0 1 .454 0H.75a4.533 4.533 0 0 0 .313 1.047c.082.164.171.332.265.5.102.164.223.332.36.5zm0 0"/></symbol><symbol overflow="visible" id="o"><path d="M.61 1.016h.765c.133 0 .234-.04.297-.11.062-.062.094-.168.094-.312V.39c0-.075.004-.149.015-.22A.586.586 0 0 1 1.828 0h.375v.078a.146.146 0 0 0-.078.047.577.577 0 0 0-.078.219v.203c0 .094-.008.172-.016.234a.713.713 0 0 1-.047.172.34.34 0 0 1-.093.125.648.648 0 0 1-.157.078.603.603 0 0 1 .375.578c0 .196-.062.348-.187.454-.125.113-.305.171-.531.171H.297V0h.312zm0 .265v.813h.718a.6.6 0 0 0 .203-.031.38.38 0 0 0 .14-.063.403.403 0 0 0 .126-.313c0-.136-.043-.242-.125-.312-.074-.063-.188-.094-.344-.094zm0 0"/></symbol><symbol overflow="visible" id="p"><path d="M1.64.281H.423c.008.04.02.082.031.125a.43.43 0 0 0 .078.11c.04.039.082.078.125.109.051.04.114.082.188.125l.328.172c.156.094.273.195.36.312a.648.648 0 0 1 .062.657.566.566 0 0 1-.157.218.588.588 0 0 1-.234.141.942.942 0 0 1-.672-.031.702.702 0 0 1-.344-.406C.176 1.75.165 1.69.158 1.64V1.5h.296c0 .07.004.133.016.188.008.05.023.097.047.14a.375.375 0 0 0 .156.156.477.477 0 0 0 .406.032.476.476 0 0 0 .156-.094c.04-.043.07-.09.094-.14a.497.497 0 0 0 .031-.173c0-.18-.105-.328-.312-.453L.75 1A2.553 2.553 0 0 1 .453.781.909.909 0 0 1 .25.578a.83.83 0 0 1-.094-.25A1.837 1.837 0 0 1 .11 0h1.532zm0 0"/></symbol><symbol overflow="visible" id="q"><path d="M.719 1.047H.75l.125.016c.313-.012.469-.153.469-.422a.464.464 0 0 0-.125-.344.554.554 0 0 0-.344-.125C.719.172.598.21.515.297.442.379.399.504.392.672H.109c0-.094.004-.18.016-.25A.487.487 0 0 1 .203.266.658.658 0 0 1 .453 0 .991.991 0 0 1 .86-.078a.81.81 0 0 1 .313.062.599.599 0 0 1 .25.141c.07.063.125.133.156.219.04.094.063.191.063.297a.57.57 0 0 1-.094.343.542.542 0 0 1-.297.204c.207.082.313.238.313.468a.687.687 0 0 1-.047.266.5.5 0 0 1-.141.203.586.586 0 0 1-.219.125.817.817 0 0 1-.281.047c-.242 0-.422-.063-.547-.188-.117-.125-.172-.312-.172-.562h.281c0 .07.004.129.016.172.008.039.02.082.031.125.032.062.079.11.141.14.07.04.156.063.25.063.125 0 .223-.04.297-.11a.396.396 0 0 0 .11-.28.381.381 0 0 0-.048-.204.234.234 0 0 0-.14-.11c-.024-.011-.047-.023-.078-.03-.024 0-.055-.008-.094-.016H.719zm0 0"/></symbol><symbol overflow="visible" id="r"><path d="M1.14 2.094h.782v.265H.062v-.265h.782V0h.297zm0 0"/></symbol><symbol overflow="visible" id="s"><path d="M1.063.547V0h.28v.547h.345v.265h-.344v1.485h-.219L.094.844V.547zm0 .265h-.72l.72 1zm0 0"/></symbol><symbol overflow="visible" id="v"><path d="M1.266 2.39c-.18 0-.34-.03-.485-.093a.95.95 0 0 1-.36-.25 1.082 1.082 0 0 1-.218-.39 1.43 1.43 0 0 1-.078-.5c0-.188.023-.36.078-.516C.253.492.328.363.422.25.523.145.645.062.782 0c.144-.05.304-.078.484-.078.132 0 .265.023.39.062.125.04.239.102.344.188.063.05.113.113.156.187.051.07.094.149.125.235.04.082.07.172.094.265a1.379 1.379 0 0 1-.063.797 1.054 1.054 0 0 1-.234.39.843.843 0 0 1-.36.25c-.136.063-.288.095-.452.095zm0-.265a.68.68 0 0 0 .328-.078.748.748 0 0 0 .265-.188.681.681 0 0 0 .172-.312 1.298 1.298 0 0 0 0-.797.957.957 0 0 0-.172-.297.845.845 0 0 0-.265-.203.78.78 0 0 0-.328-.063.883.883 0 0 0-.344.063.765.765 0 0 0-.266.203.825.825 0 0 0-.172.297 1.23 1.23 0 0 0-.062.406c0 .145.02.274.062.39.04.126.098.227.172.313a.799.799 0 0 0 .61.266zm0 0"/></symbol><symbol overflow="visible" id="w"><path d="M1.781 2.36V.702a.476.476 0 0 0-.047-.219.525.525 0 0 0-.156-.203C1.504.22 1.368.187 1.172.187A.676.676 0 0 0 .75.314a.386.386 0 0 0-.14.156.681.681 0 0 0-.032.234V2.36H.281V.703C.281.578.297.47.328.375A.734.734 0 0 1 .5.125a.838.838 0 0 1 .297-.14 1.143 1.143 0 0 1 .75 0 .732.732 0 0 1 .281.14c.082.07.145.156.188.25.039.094.066.203.078.328V2.36zm0 0"/></symbol><symbol overflow="visible" id="x"><path d="M.594 1h.75c.082 0 .16.008.234.031a.634.634 0 0 1 .36.344.68.68 0 0 1 .062.297c0 .219-.063.383-.188.5-.125.125-.308.187-.546.187h-.97V0h.298zm0 .266v.828h.625c.144 0 .254-.04.328-.11a.46.46 0 0 0 .14-.312.43.43 0 0 0-.14-.297c-.074-.074-.184-.11-.328-.11zm0 0"/></symbol><symbol overflow="visible" id="y"><path d="M2.406 0L3 2.36h-.328L2.234.437l-.53 1.921h-.329L.844.438.406 2.359H.078L.672 0H1l.531 1.938L2.078 0zm0 0"/></symbol><symbol overflow="visible" id="t"><path d="M1.14 1.25H.189V.969h.953zm0 0"/></symbol><symbol overflow="visible" id="u"><path d="M-1.078 2.14v-.828h-.828v-.28h.828V.202h.281v.828h.844v.282h-.844v.828zm0 0"/></symbol><symbol overflow="visible" id="z"><path d="M1.438 1.578H.234v-.36h1.204zm0 0"/></symbol><clipPath id="A"><path d="M340 188.04h1.2v43.92H340zm0 0"/></clipPath><clipPath id="B"><path d="M254 188.04h87.2v.96H254zm0 0"/></clipPath><clipPath id="C"><path d="M254 188.04h1v43.92h-1zm0 0"/></clipPath><clipPath id="D"><path d="M254 231h87.2v.96H254zm0 0"/></clipPath><clipPath id="E"><path d="M254 188.04h87.2v.96H254zm0 0"/></clipPath><clipPath id="F"><path d="M254 188.04h87.2V190H254zm0 0"/></clipPath><clipPath id="G"><path d="M254 189h87.2v2H254zm0 0"/></clipPath><clipPath id="H"><path d="M254 190h87.2v2H254zm0 0"/></clipPath><clipPath id="I"><path d="M254 191h87.2v1H254zm0 0"/></clipPath><clipPath id="J"><path d="M334 191h7.2v2H334zm0 0"/></clipPath><clipPath id="K"><path d="M335 192h6.2v2H335zm0 0"/></clipPath><clipPath id="L"><path d="M336 193h5.2v1H336zm0 0"/></clipPath><clipPath id="M"><path d="M336 193h5.2v2H336zm0 0"/></clipPath><clipPath id="N"><path d="M336 194h5.2v2H336zm0 0"/></clipPath><clipPath id="O"><path d="M333 195h8.2v1H333zm0 0"/></clipPath><clipPath id="P"><path d="M336 195h5.2v2H336zm0 0"/></clipPath><clipPath id="Q"><path d="M336 196h5.2v1H336zm0 0"/></clipPath><clipPath id="R"><path d="M336 196h5.2v2H336zm0 0"/></clipPath><clipPath id="S"><path d="M337 197h4.2v2H337zm0 0"/></clipPath><clipPath id="T"><path d="M338 198h3.2v1H338zm0 0"/></clipPath><clipPath id="U"><path d="M338 198h3.2v2H338zm0 0"/></clipPath><clipPath id="V"><path d="M338 199h3.2v2H338zm0 0"/></clipPath><clipPath id="W"><path d="M339 200h2.2v1H339zm0 0"/></clipPath><clipPath id="X"><path d="M339 200h2.2v2H339zm0 0"/></clipPath><clipPath id="Y"><path d="M339 201h2.2v2H339zm0 0"/></clipPath><clipPath id="Z"><path d="M339 201h2.2v2H339zm0 0"/></clipPath><clipPath id="aa"><path d="M339 202h2.2v2H339zm0 0"/></clipPath><clipPath id="ab"><path d="M339 203h2.2v1H339zm0 0"/></clipPath><clipPath id="ac"><path d="M339 203h2.2v2H339zm0 0"/></clipPath><clipPath id="ad"><path d="M339 204h2.2v2H339zm0 0"/></clipPath><clipPath id="ae"><path d="M339 205h2.2v1H339zm0 0"/></clipPath><clipPath id="af"><path d="M338 205h3.2v2H338zm0 0"/></clipPath><clipPath id="ag"><path d="M338 206h3.2v2H338zm0 0"/></clipPath><clipPath id="ah"><path d="M338 206h3.2v2H338zm0 0"/></clipPath><clipPath id="ai"><path d="M338 207h3.2v2H338zm0 0"/></clipPath><clipPath id="aj"><path d="M338 208h3.2v1H338zm0 0"/></clipPath><clipPath id="ak"><path d="M338 208h3.2v2H338zm0 0"/></clipPath><clipPath id="al"><path d="M338 209h3.2v2H338zm0 0"/></clipPath><clipPath id="am"><path d="M338 210h3.2v1H338zm0 0"/></clipPath><clipPath id="an"><path d="M338 210h3.2v2H338zm0 0"/></clipPath><clipPath id="ao"><path d="M338 211h3.2v2H338zm0 0"/></clipPath><clipPath id="ap"><path d="M338 211h3.2v2H338zm0 0"/></clipPath><clipPath id="aq"><path d="M338 212h3.2v2H338zm0 0"/></clipPath><clipPath id="ar"><path d="M338 213h3.2v1H338zm0 0"/></clipPath><clipPath id="as"><path d="M338 213h3.2v2H338zm0 0"/></clipPath><clipPath id="at"><path d="M338 214h3.2v2H338zm0 0"/></clipPath><clipPath id="au"><path d="M338 215h3.2v1H338zm0 0"/></clipPath><clipPath id="av"><path d="M339 215h2.2v2H339zm0 0"/></clipPath><clipPath id="aw"><path d="M339 216h2.2v2H339zm0 0"/></clipPath><clipPath id="ax"><path d="M339 217h2.2v1H339zm0 0"/></clipPath><clipPath id="ay"><path d="M339 217h2.2v2H339zm0 0"/></clipPath><clipPath id="az"><path d="M339 218h2.2v1H339zm0 0"/></clipPath><clipPath id="aA"><path d="M338 218h3.2v2H338zm0 0"/></clipPath><clipPath id="aB"><path d="M338 219h3.2v2H338zm0 0"/></clipPath><clipPath id="aC"><path d="M338 220h3.2v1H338zm0 0"/></clipPath><clipPath id="aD"><path d="M338 220h3.2v2H338zm0 0"/></clipPath><clipPath id="aE"><path d="M338 221h3.2v2H338zm0 0"/></clipPath><clipPath id="aF"><path d="M338 222h3.2v1H338zm0 0"/></clipPath><clipPath id="aG"><path d="M338 222h3.2v2H338zm0 0"/></clipPath><clipPath id="aH"><path d="M338 223h3.2v1H338zm0 0"/></clipPath><clipPath id="aI"><path d="M338 223h3.2v2H338zm0 0"/></clipPath><clipPath id="aJ"><path d="M338 224h3.2v2H338zm0 0"/></clipPath><clipPath id="aK"><path d="M338 225h3.2v1H338zm0 0"/></clipPath><clipPath id="aL"><path d="M338 225h3.2v2H338zm0 0"/></clipPath><clipPath id="aM"><path d="M338 226h3.2v2H338zm0 0"/></clipPath><clipPath id="aN"><path d="M338 227h3.2v1H338zm0 0"/></clipPath><clipPath id="aO"><path d="M337 227h4.2v2H337zm0 0"/></clipPath><clipPath id="aP"><path d="M337 228h4.2v2H337zm0 0"/></clipPath><clipPath id="aQ"><path d="M336 228h5.2v2H336zm0 0"/></clipPath><clipPath id="aR"><path d="M334 229h7.2v2H334zm0 0"/></clipPath><clipPath id="aS"><path d="M254 230h87.2v1H254zm0 0"/></clipPath><clipPath id="aT"><path d="M254 230h87.2v1.96H254zm0 0"/></clipPath></defs><use xlink:href="#a" x="304.831" y="205.571" fill="gray"/><use xlink:href="#b" x="306.151" y="205.571" fill="gray"/><use xlink:href="#c" x="306.811" y="205.571" fill="gray"/><use xlink:href="#d" x="308.131" y="205.571" fill="gray"/><use xlink:href="#e" x="309.451" y="205.571" fill="gray"/><use xlink:href="#a" x="304.831" y="212.751" fill="gray"/><use xlink:href="#b" x="306.151" y="212.751" fill="gray"/><use xlink:href="#c" x="306.811" y="212.751" fill="gray"/><use xlink:href="#d" x="308.131" y="212.751" fill="gray"/><use xlink:href="#e" x="309.451" y="212.751" fill="gray"/><use xlink:href="#f" x="316.151" y="201.681" fill="gray"/><use xlink:href="#g" x="317.951" y="201.681" fill="gray"/><use xlink:href="#h" x="318.851" y="201.681" fill="gray"/><use xlink:href="#i" x="320.651" y="201.681" fill="gray"/><use xlink:href="#h" x="323.761" y="201.681" fill="gray"/><use xlink:href="#f" x="325.561" y="201.681" fill="gray"/><use xlink:href="#i" x="327.361" y="201.681" fill="gray"/><use xlink:href="#h" x="287.811" y="201.681" fill="gray"/><use xlink:href="#f" x="289.611" y="201.681" fill="gray"/><use xlink:href="#i" x="291.411" y="201.681" fill="gray"/><use xlink:href="#j" x="321.421" y="213.708" fill="gray"/><use xlink:href="#k" x="323.581" y="213.708" fill="gray"/><use xlink:href="#f" x="325.921" y="213.708" fill="gray"/><use xlink:href="#f" x="327.721" y="213.708" fill="gray"/><use xlink:href="#l" x="329.521" y="213.708" fill="gray"/><use xlink:href="#j" x="285.531" y="218.375" fill="gray"/><use xlink:href="#k" x="287.691" y="218.375" fill="gray"/><use xlink:href="#f" x="290.031" y="218.375" fill="gray"/><use xlink:href="#f" x="291.831" y="218.375" fill="gray"/><use xlink:href="#l" x="293.631" y="218.375" fill="gray"/><use xlink:href="#f" x="269.056" y="208.798" fill="gray"/><use xlink:href="#i" x="270.856" y="208.798" fill="gray"/><use xlink:href="#m" x="307.883" y="198.331" fill="gray"/><use xlink:href="#a" x="309.622" y="198.331" fill="gray"/><use xlink:href="#m" x="307.883" y="205.511" fill="gray"/><use xlink:href="#n" x="309.622" y="205.511" fill="gray"/><use xlink:href="#o" x="320.829" y="197.31" fill="gray"/><use xlink:href="#p" x="323.169" y="197.31" fill="gray"/><use xlink:href="#o" x="328.019" y="197.31" fill="gray"/><use xlink:href="#h" x="330.359" y="197.31" fill="gray"/><use xlink:href="#o" x="292.069" y="197.31" fill="gray"/><use xlink:href="#q" x="294.408" y="197.31" fill="gray"/><use xlink:href="#r" x="324.481" y="219.632" fill="gray"/><use xlink:href="#h" x="326.461" y="219.632" fill="gray"/><use xlink:href="#r" x="288.591" y="212.452" fill="gray"/><use xlink:href="#p" x="290.571" y="212.452" fill="gray"/><use xlink:href="#o" x="268.88" y="193.128" fill="gray"/><use xlink:href="#s" x="271.221" y="193.128" fill="gray"/><path d="M312.04 202.8h-6.118M297.64 202.8h6.122M312.04 210h-6.118M297.64 210h6.122" fill="none" stroke-width=".24" stroke-linecap="round" stroke-linejoin="round" stroke="gray" stroke-miterlimit="10"/><path d="M319.238 210v-2.52M319.238 195.66v2.52M326.379 210v-2.52M326.379 195.66v2.52M290.441 210v-2.52M290.441 195.66v2.52" fill="none" stroke-width=".7200000000000001" stroke-linecap="round" stroke-linejoin="round" stroke="gray" stroke-miterlimit="10"/><path d="M265.3 205.32v-5.039M272.14 202.8h-1.44M286.84 212.52v-5.04M286.84 198.18v-5.04M280.36 213.602h5.402M285.762 192.059h-5.403M270.281 202.8a5.76 5.76 0 1 1 11.52-.004 5.76 5.76 0 0 1-11.52.005zm0 0" fill="none" stroke-width=".48" stroke-linecap="round" stroke-linejoin="round" stroke="gray" stroke-miterlimit="10"/><path d="M272.441 202.8a3.6 3.6 0 1 1 7.199-.004 3.6 3.6 0 0 1-7.199.005zm0 0" fill="none" stroke-width=".48" stroke-linecap="round" stroke-linejoin="round" stroke="gray" stroke-miterlimit="10"/><path d="M286.84 208.2h-2.16v3.6h2.16zm0 0" fill="gray" stroke-width=".12" stroke-linecap="round" stroke-linejoin="round" stroke="gray" stroke-miterlimit="10"/><path d="M309.879 204.602H299.8M310.96 203.52v-1.442M309.879 201l.422.121.3.238.239.36.12.36M299.8 201h10.079" fill="none" stroke-width=".30000000000000004" stroke-linecap="round" stroke-linejoin="round" stroke="gray" stroke-miterlimit="10"/><path d="M304.48 201.36h-.718v2.878h.718zm0 0M305.922 201.36h-.723v2.878h.723zm0 0" fill="gray" stroke-width=".12" stroke-linecap="round" stroke-linejoin="round" stroke="gray" stroke-miterlimit="10"/><path d="M310.96 203.52l-.12.421-.238.36-.301.238-.422.063M298.719 202.078v1.442M299.8 204.602l-.421-.063-.36-.238-.238-.36-.062-.421M298.719 202.078l.062-.36.239-.359.359-.238.422-.121M309.879 211.8H299.8M310.96 210.719v-1.438M309.879 208.2l.422.062.3.238.239.36.12.421M299.8 208.2h10.079" fill="none" stroke-width=".30000000000000004" stroke-linecap="round" stroke-linejoin="round" stroke="gray" stroke-miterlimit="10"/><path d="M304.48 208.559h-.718v2.882h.718zm0 0M305.922 208.559h-.723v2.882h.723zm0 0" fill="gray" stroke-width=".12" stroke-linecap="round" stroke-linejoin="round" stroke="gray" stroke-miterlimit="10"/><path d="M310.96 210.719l-.12.422-.238.359-.301.238-.422.063M298.719 209.281v1.438M299.8 211.8l-.421-.062-.36-.238-.238-.36-.062-.421M298.719 209.281l.062-.422.239-.359.359-.238.422-.063" fill="none" stroke-width=".30000000000000004" stroke-linecap="round" stroke-linejoin="round" stroke="gray" stroke-miterlimit="10"/><path d="M320.262 199.262h.297l.242.18.18.238v.242M320.98 205.68v.3l-.18.239-.241.12-.297.06M317.441 199.922v-.242l.18-.239.238-.18h.301M318.16 206.398l-.3-.058-.239-.121-.18-.239v-.3M320.262 199.262h-2.102M317.441 205.68v-5.758M320.98 205.68v-5.758M320.262 206.398h-2.102" fill="none" stroke-width=".36000000000000004" stroke-linecap="round" stroke-linejoin="round" stroke="gray" stroke-miterlimit="10"/><path d="M319.602 206.398h-.723v1.082h.723zm0 0M319.602 198.18h-.723v1.082h.723zm0 0" fill="gray" stroke-width=".12" stroke-linecap="round" stroke-linejoin="round" stroke="gray" stroke-miterlimit="10"/><path d="M327.46 199.262h.302l.238.18.121.238.059.242M328.18 205.68l-.059.3-.121.239-.238.12-.301.06M324.578 199.922l.063-.242.18-.239.238-.18h.242M325.3 206.398l-.241-.058-.239-.121-.18-.239-.062-.3M327.46 199.262h-2.16M324.578 205.68v-5.758M328.18 205.68v-5.758M327.46 206.398h-2.16" fill="none" stroke-width=".36000000000000004" stroke-linecap="round" stroke-linejoin="round" stroke="gray" stroke-miterlimit="10"/><path d="M326.738 206.398h-.718v1.082h.718zm0 0M326.738 198.18h-.718v1.082h.718zm0 0" fill="gray" stroke-width=".12" stroke-linecap="round" stroke-linejoin="round" stroke="gray" stroke-miterlimit="10"/><path d="M291.52 199.262h.3l.239.18.12.238.06.242M292.238 205.68l-.058.3-.121.239-.239.12-.3.06M288.64 199.922l.06-.242.179-.239.242-.18h.238M289.36 206.398l-.239-.058-.242-.121-.18-.239-.058-.3M291.52 199.262h-2.16M288.64 205.68v-5.758M292.238 205.68v-5.758M291.52 206.398h-2.16" fill="none" stroke-width=".36000000000000004" stroke-linecap="round" stroke-linejoin="round" stroke="gray" stroke-miterlimit="10"/><path d="M290.8 206.398h-.722v1.082h.723zm0 0M290.8 198.18h-.722v1.082h.723zm0 0" fill="gray" stroke-width=".12" stroke-linecap="round" stroke-linejoin="round" stroke="gray" stroke-miterlimit="10"/><path d="M320.5 212.52h11.82M333.219 220.379l-.66 1.14-.84 1.02-1.02.84-1.14.66-1.2.422-1.32.238h-1.32l-1.258-.238-1.262-.422-1.14-.66-.957-.84-.84-1.02-.66-1.14M333.941 217.2H318.88M319.602 220.379l-.422-1.02-.239-1.078-.062-1.082" fill="none" stroke-width=".36000000000000004" stroke-linecap="round" stroke-linejoin="round" stroke="gray" stroke-miterlimit="10"/><path d="M318.879 217.2l.062-1.141.239-1.079.422-1.02M319.54 213.96l.42-.722.54-.718M333.219 213.96l.36 1.02.241 1.079.121 1.14M333.941 217.2l-.062 1.081-.238 1.078-.422 1.02M332.32 212.52l.54.718.421.782M296.379 221.82H284.5M283.602 213.96l.66-1.14.84-.96 1.02-.84 1.14-.66 1.258-.481 1.261-.18h1.32l1.32.18 1.2.48 1.14.66 1.02.84.84.961.66 1.14M282.879 217.2H298M297.281 213.96l.418 1.02.242 1.079.059 1.14M298 217.2l-.121 1.081-.238 1.078-.36 1.02M297.281 220.379l-.422.781-.48.66M283.602 220.379l-.364-1.02-.238-1.078-.121-1.082" fill="none" stroke-width=".36000000000000004" stroke-linecap="round" stroke-linejoin="round" stroke="gray" stroke-miterlimit="10"/><path d="M282.879 217.2l.121-1.141.18-1.079.422-1.02M284.5 221.82l-.48-.718-.418-.782M258.102 206.398v-14.34M258.102 192.059h7.199M265.3 192.059v14.34M265.3 206.398h-7.198" fill="none" stroke-width=".36000000000000004" stroke-linecap="round" stroke-linejoin="round" stroke="gray" stroke-miterlimit="10"/><use xlink:href="#t" x="255.637" y="194.2" fill="gray"/><use xlink:href="#u" x="257.737" y="201.681" fill="gray"/><use xlink:href="#v" x="258.27" y="207.129" fill="gray"/><use xlink:href="#w" x="260.79" y="207.129" fill="gray"/><use xlink:href="#r" x="263.13" y="207.129" fill="gray"/><use xlink:href="#x" x="329.811" y="189.052" fill="gray"/><use xlink:href="#y" x="331.971" y="189.052" fill="gray"/><use xlink:href="#o" x="335.031" y="189.052" fill="gray"/><path d="M329.98 206.398v-14.34M329.98 192.059h7.2M337.18 192.059v14.34M337.18 206.398h-7.2" fill="none" stroke-width=".36000000000000004" stroke-linecap="round" stroke-linejoin="round" stroke="gray" stroke-miterlimit="10"/><use xlink:href="#z" x="327.359" y="193.84" fill="gray"/><use xlink:href="#u" x="329.639" y="201.681" fill="gray"/><path d="M275.379 202.078h-1.8M273.578 202.078v1.442M273.578 203.52h1.8M275.379 203.52v1.8M275.379 205.32h1.383M276.762 205.32v-1.8M276.762 203.52h1.797M278.559 203.52v-1.442M278.559 202.078h-1.797M276.762 202.078v-1.797M276.762 200.281h-1.383M275.379 200.281v1.797M265.3 212.52v-7.2M278.559 200.281l1.441-1.383M278.559 205.32l1.441 1.442M276.102 197.46v1.438M276.102 206.762v1.437M273.219 199.922l-.719-.66M273.219 205.68l-.719.718M286.84 207.48v-9.3M286.84 212.52l-.059.421-.242.36-.36.18-.417.12M266.379 213.602l-.418-.122-.36-.18-.242-.359-.058-.421M265.3 193.14l.06-.421.242-.36.359-.238.418-.062M285.762 192.059l.418.062.36.238.241.36.059.422M265.3 193.14v7.141M280.36 213.602h-13.981M266.379 192.059h13.98" fill="none" stroke-width=".48" stroke-linecap="round" stroke-linejoin="round" stroke="gray" stroke-miterlimit="10"/><path d="M295.719 202.8a1.861 1.861 0 0 1 3.722 0 1.862 1.862 0 0 1-3.722 0" fill-rule="evenodd" fill="green"/><path d="M295.719 202.8a1.861 1.861 0 0 1 3.722 0 1.862 1.862 0 0 1-3.722 0zm0 0" fill="none" stroke-width=".12" stroke-linecap="round" stroke-linejoin="round" stroke="green" stroke-miterlimit="10"/><path d="M296.441 202.8a1.139 1.139 0 1 1 2.278 0 1.14 1.14 0 1 1-2.278 0" fill-rule="evenodd" fill="#fff"/><path d="M296.441 202.8a1.139 1.139 0 1 1 2.278 0 1.14 1.14 0 1 1-2.278 0zm0 0" fill="none" stroke-width=".06" stroke-linecap="square" stroke-linejoin="bevel" stroke="#000" stroke-miterlimit="10"/><path d="M310.121 202.8a1.859 1.859 0 1 1 3.718 0 1.859 1.859 0 0 1-3.718 0" fill-rule="evenodd" fill="green"/><path d="M310.121 202.8a1.859 1.859 0 1 1 3.718 0 1.859 1.859 0 0 1-3.718 0zm0 0" fill="none" stroke-width=".12" stroke-linecap="round" stroke-linejoin="round" stroke="green" stroke-miterlimit="10"/><path d="M310.84 202.8c0-.628.512-1.14 1.14-1.14.63 0 1.141.512 1.141 1.14 0 .63-.512 1.141-1.14 1.141-.63 0-1.141-.511-1.141-1.14" fill-rule="evenodd" fill="#fff"/><path d="M310.84 202.8c0-.628.512-1.14 1.14-1.14.63 0 1.141.512 1.141 1.14 0 .63-.512 1.141-1.14 1.141-.63 0-1.141-.511-1.141-1.14zm0 0" fill="none" stroke-width=".06" stroke-linecap="square" stroke-linejoin="bevel" stroke="#000" stroke-miterlimit="10"/><path d="M295.719 210a1.861 1.861 0 0 1 3.722 0 1.862 1.862 0 0 1-3.722 0" fill-rule="evenodd" fill="green"/><path d="M295.719 210a1.861 1.861 0 0 1 3.722 0 1.862 1.862 0 0 1-3.722 0zm0 0" fill="none" stroke-width=".12" stroke-linecap="round" stroke-linejoin="round" stroke="green" stroke-miterlimit="10"/><path d="M296.441 210a1.139 1.139 0 1 1 2.278 0 1.14 1.14 0 1 1-2.278 0" fill-rule="evenodd" fill="#fff"/><path d="M296.441 210a1.139 1.139 0 1 1 2.278 0 1.14 1.14 0 1 1-2.278 0zm0 0" fill="none" stroke-width=".06" stroke-linecap="square" stroke-linejoin="bevel" stroke="#000" stroke-miterlimit="10"/><path d="M310.121 210a1.859 1.859 0 1 1 3.718-.001 1.859 1.859 0 0 1-3.718.001" fill-rule="evenodd" fill="green"/><path d="M310.121 210a1.859 1.859 0 1 1 3.718-.001 1.859 1.859 0 0 1-3.718.001zm0 0" fill="none" stroke-width=".12" stroke-linecap="round" stroke-linejoin="round" stroke="green" stroke-miterlimit="10"/><path d="M310.84 210c0-.629.512-1.14 1.14-1.14.63 0 1.141.511 1.141 1.14 0 .629-.512 1.14-1.14 1.14-.63 0-1.141-.511-1.141-1.14" fill-rule="evenodd" fill="#fff"/><path d="M310.84 210c0-.629.512-1.14 1.14-1.14.63 0 1.141.511 1.141 1.14 0 .629-.512 1.14-1.14 1.14-.63 0-1.141-.511-1.141-1.14zm0 0" fill="none" stroke-width=".06" stroke-linecap="square" stroke-linejoin="bevel" stroke="#000" stroke-miterlimit="10"/><path d="M317.32 195.66a1.859 1.859 0 1 1 3.718-.001 1.859 1.859 0 0 1-3.718.001" fill-rule="evenodd" fill="green"/><path d="M317.32 195.66a1.859 1.859 0 1 1 3.718-.001 1.859 1.859 0 0 1-3.718.001zm0 0" fill="none" stroke-width=".12" stroke-linecap="round" stroke-linejoin="round" stroke="green" stroke-miterlimit="10"/><path d="M318.04 195.66c0-.629.51-1.14 1.14-1.14.629 0 1.14.511 1.14 1.14 0 .63-.511 1.14-1.14 1.14-.63 0-1.14-.51-1.14-1.14" fill-rule="evenodd" fill="#fff"/><path d="M318.04 195.66c0-.629.51-1.14 1.14-1.14.629 0 1.14.511 1.14 1.14 0 .63-.511 1.14-1.14 1.14-.63 0-1.14-.51-1.14-1.14zm0 0" fill="none" stroke-width=".06" stroke-linecap="square" stroke-linejoin="bevel" stroke="#000" stroke-miterlimit="10"/><path d="M317.32 210a1.859 1.859 0 1 1 3.718-.001 1.859 1.859 0 0 1-3.718.001" fill-rule="evenodd" fill="green"/><path d="M317.32 210a1.859 1.859 0 1 1 3.718-.001 1.859 1.859 0 0 1-3.718.001zm0 0" fill="none" stroke-width=".12" stroke-linecap="round" stroke-linejoin="round" stroke="green" stroke-miterlimit="10"/><path d="M318.04 210c0-.629.51-1.14 1.14-1.14.629 0 1.14.511 1.14 1.14 0 .629-.511 1.14-1.14 1.14-.63 0-1.14-.511-1.14-1.14" fill-rule="evenodd" fill="#fff"/><path d="M318.04 210c0-.629.51-1.14 1.14-1.14.629 0 1.14.511 1.14 1.14 0 .629-.511 1.14-1.14 1.14-.63 0-1.14-.511-1.14-1.14zm0 0" fill="none" stroke-width=".06" stroke-linecap="square" stroke-linejoin="bevel" stroke="#000" stroke-miterlimit="10"/><path d="M324.46 195.66a1.859 1.859 0 1 1 3.719-.001 1.859 1.859 0 0 1-3.718.001" fill-rule="evenodd" fill="green"/><path d="M324.46 195.66a1.859 1.859 0 1 1 3.719-.001 1.859 1.859 0 0 1-3.718.001zm0 0" fill="none" stroke-width=".12" stroke-linecap="round" stroke-linejoin="round" stroke="green" stroke-miterlimit="10"/><path d="M325.18 195.66c0-.629.511-1.14 1.14-1.14.63 0 1.14.511 1.14 1.14 0 .63-.51 1.14-1.14 1.14-.629 0-1.14-.51-1.14-1.14" fill-rule="evenodd" fill="#fff"/><path d="M325.18 195.66c0-.629.511-1.14 1.14-1.14.63 0 1.14.511 1.14 1.14 0 .63-.51 1.14-1.14 1.14-.629 0-1.14-.51-1.14-1.14zm0 0" fill="none" stroke-width=".06" stroke-linecap="square" stroke-linejoin="bevel" stroke="#000" stroke-miterlimit="10"/><path d="M324.46 210a1.859 1.859 0 1 1 3.719-.001 1.859 1.859 0 0 1-3.718.001" fill-rule="evenodd" fill="green"/><path d="M324.46 210a1.859 1.859 0 1 1 3.719-.001 1.859 1.859 0 0 1-3.718.001zm0 0" fill="none" stroke-width=".12" stroke-linecap="round" stroke-linejoin="round" stroke="green" stroke-miterlimit="10"/><path d="M325.18 210c0-.629.511-1.14 1.14-1.14.63 0 1.14.511 1.14 1.14 0 .629-.51 1.14-1.14 1.14-.629 0-1.14-.511-1.14-1.14" fill-rule="evenodd" fill="#fff"/><path d="M325.18 210c0-.629.511-1.14 1.14-1.14.63 0 1.14.511 1.14 1.14 0 .629-.51 1.14-1.14 1.14-.629 0-1.14-.511-1.14-1.14zm0 0" fill="none" stroke-width=".06" stroke-linecap="square" stroke-linejoin="bevel" stroke="#000" stroke-miterlimit="10"/><path d="M288.52 195.66a1.859 1.859 0 1 1 3.717-.001 1.859 1.859 0 0 1-3.717.001" fill-rule="evenodd" fill="green"/><path d="M288.52 195.66a1.859 1.859 0 1 1 3.717-.001 1.859 1.859 0 0 1-3.717.001zm0 0" fill="none" stroke-width=".12" stroke-linecap="round" stroke-linejoin="round" stroke="green" stroke-miterlimit="10"/><path d="M289.238 195.66a1.14 1.14 0 1 1 1.14 1.14c-.628 0-1.14-.51-1.14-1.14" fill-rule="evenodd" fill="#fff"/><path d="M289.238 195.66a1.14 1.14 0 1 1 1.14 1.14c-.628 0-1.14-.51-1.14-1.14zm0 0" fill="none" stroke-width=".06" stroke-linecap="square" stroke-linejoin="bevel" stroke="#000" stroke-miterlimit="10"/><path d="M288.52 210a1.859 1.859 0 1 1 3.717-.001 1.859 1.859 0 0 1-3.717.001" fill-rule="evenodd" fill="green"/><path d="M288.52 210a1.859 1.859 0 1 1 3.717-.001 1.859 1.859 0 0 1-3.717.001zm0 0" fill="none" stroke-width=".12" stroke-linecap="round" stroke-linejoin="round" stroke="green" stroke-miterlimit="10"/><path d="M289.238 210a1.14 1.14 0 1 1 1.14 1.14c-.628 0-1.14-.511-1.14-1.14" fill-rule="evenodd" fill="#fff"/><path d="M289.238 210a1.14 1.14 0 1 1 1.14 1.14c-.628 0-1.14-.511-1.14-1.14zm0 0" fill="none" stroke-width=".06" stroke-linecap="square" stroke-linejoin="bevel" stroke="#000" stroke-miterlimit="10"/><path d="M317.14 217.2a2.038 2.038 0 1 1 4.078 0 2.038 2.038 0 1 1-4.078 0" fill-rule="evenodd" fill="green"/><path d="M317.14 217.2a2.038 2.038 0 1 1 4.078 0 2.038 2.038 0 1 1-4.078 0zm0 0" fill="none" stroke-width=".12" stroke-linecap="round" stroke-linejoin="round" stroke="green" stroke-miterlimit="10"/><path d="M318.16 217.2c0-.528.457-.962 1.02-.962.562 0 1.02.434 1.02.961 0 .531-.458.961-1.02.961-.563 0-1.02-.43-1.02-.96" fill-rule="evenodd" fill="#fff"/><path d="M318.16 217.2c0-.528.457-.962 1.02-.962.562 0 1.02.434 1.02.961 0 .531-.458.961-1.02.961-.563 0-1.02-.43-1.02-.96zm0 0" fill="none" stroke-width=".06" stroke-linecap="square" stroke-linejoin="bevel" stroke="#000" stroke-miterlimit="10"/><path d="M331.48 217.2a2.04 2.04 0 0 1 2.04-2.04 2.038 2.038 0 1 1-2.04 2.04" fill-rule="evenodd" fill="green"/><path d="M331.48 217.2a2.04 2.04 0 0 1 2.04-2.04 2.038 2.038 0 1 1-2.04 2.04zm0 0" fill="none" stroke-width=".12" stroke-linecap="round" stroke-linejoin="round" stroke="green" stroke-miterlimit="10"/><path d="M332.5 217.2c0-.528.457-.962 1.02-.962.562 0 1.02.434 1.02.961 0 .531-.458.961-1.02.961-.563 0-1.02-.43-1.02-.96" fill-rule="evenodd" fill="#fff"/><path d="M332.5 217.2c0-.528.457-.962 1.02-.962.562 0 1.02.434 1.02.961 0 .531-.458.961-1.02.961-.563 0-1.02-.43-1.02-.96zm0 0" fill="none" stroke-width=".06" stroke-linecap="square" stroke-linejoin="bevel" stroke="#000" stroke-miterlimit="10"/><path d="M324.281 217.2a2.038 2.038 0 1 1 4.078 0c0 1.128-.914 2.038-2.039 2.038-1.129 0-2.039-.91-2.039-2.039" fill-rule="evenodd" fill="green"/><path d="M324.281 217.2a2.038 2.038 0 1 1 4.078 0c0 1.128-.914 2.038-2.039 2.038-1.129 0-2.039-.91-2.039-2.039zm0 0" fill="none" stroke-width=".12" stroke-linecap="round" stroke-linejoin="round" stroke="green" stroke-miterlimit="10"/><path d="M325.3 217.2c0-.528.458-.962 1.02-.962.563 0 1.02.434 1.02.961 0 .531-.457.961-1.02.961-.562 0-1.02-.43-1.02-.96" fill-rule="evenodd" fill="#fff"/><path d="M325.3 217.2c0-.528.458-.962 1.02-.962.563 0 1.02.434 1.02.961 0 .531-.457.961-1.02.961-.562 0-1.02-.43-1.02-.96zm0 0" fill="none" stroke-width=".06" stroke-linecap="square" stroke-linejoin="bevel" stroke="#000" stroke-miterlimit="10"/><path d="M295.54 217.2a2.04 2.04 0 0 1 4.081 0c0 1.128-.914 2.038-2.043 2.038-1.125 0-2.039-.91-2.039-2.039" fill-rule="evenodd" fill="green"/><path d="M295.54 217.2a2.04 2.04 0 0 1 4.081 0c0 1.128-.914 2.038-2.043 2.038-1.125 0-2.039-.91-2.039-2.039zm0 0" fill="none" stroke-width=".12" stroke-linecap="round" stroke-linejoin="round" stroke="green" stroke-miterlimit="10"/><path d="M296.559 217.2c0-.528.457-.962 1.02-.962.566 0 1.023.434 1.023.961 0 .531-.457.961-1.024.961-.562 0-1.02-.43-1.02-.96" fill-rule="evenodd" fill="#fff"/><path d="M296.559 217.2c0-.528.457-.962 1.02-.962.566 0 1.023.434 1.023.961 0 .531-.457.961-1.024.961-.562 0-1.02-.43-1.02-.96zm0 0" fill="none" stroke-width=".06" stroke-linecap="square" stroke-linejoin="bevel" stroke="#000" stroke-miterlimit="10"/><path d="M281.14 217.2a2.038 2.038 0 1 1 4.078 0 2.038 2.038 0 1 1-4.078 0" fill-rule="evenodd" fill="green"/><path d="M281.14 217.2a2.038 2.038 0 1 1 4.078 0 2.038 2.038 0 1 1-4.078 0zm0 0" fill="none" stroke-width=".12" stroke-linecap="round" stroke-linejoin="round" stroke="green" stroke-miterlimit="10"/><path d="M282.16 217.2c0-.528.457-.962 1.02-.962.562 0 1.02.434 1.02.961 0 .531-.458.961-1.02.961-.563 0-1.02-.43-1.02-.96" fill-rule="evenodd" fill="#fff"/><path d="M282.16 217.2c0-.528.457-.962 1.02-.962.562 0 1.02.434 1.02.961 0 .531-.458.961-1.02.961-.563 0-1.02-.43-1.02-.96zm0 0" fill="none" stroke-width=".06" stroke-linecap="square" stroke-linejoin="bevel" stroke="#000" stroke-miterlimit="10"/><path d="M288.34 217.2a2.04 2.04 0 0 1 4.082 0c0 1.128-.914 2.038-2.043 2.038-1.125 0-2.04-.91-2.04-2.039" fill-rule="evenodd" fill="green"/><path d="M288.34 217.2a2.04 2.04 0 0 1 4.082 0c0 1.128-.914 2.038-2.043 2.038-1.125 0-2.04-.91-2.04-2.039zm0 0" fill="none" stroke-width=".12" stroke-linecap="round" stroke-linejoin="round" stroke="green" stroke-miterlimit="10"/><path d="M289.36 217.2c0-.528.456-.962 1.019-.962.562 0 1.02.434 1.02.961 0 .531-.458.961-1.02.961-.563 0-1.02-.43-1.02-.96" fill-rule="evenodd" fill="#fff"/><path d="M289.36 217.2c0-.528.456-.962 1.019-.962.562 0 1.02.434 1.02.961 0 .531-.458.961-1.02.961-.563 0-1.02-.43-1.02-.96zm0 0" fill="none" stroke-width=".06" stroke-linecap="square" stroke-linejoin="bevel" stroke="#000" stroke-miterlimit="10"/><path d="M259.121 195.66a2.52 2.52 0 1 1 5.037.002 2.52 2.52 0 0 1-5.037-.002" fill-rule="evenodd" fill="green"/><path d="M259.121 195.66a2.52 2.52 0 1 1 5.037.002 2.52 2.52 0 0 1-5.037-.002zm0 0" fill="none" stroke-width=".12" stroke-linecap="round" stroke-linejoin="round" stroke="green" stroke-miterlimit="10"/><path d="M260.2 195.66a1.44 1.44 0 1 1 2.88-.002 1.44 1.44 0 0 1-2.88.002" fill-rule="evenodd" fill="#fff"/><path d="M260.2 195.66a1.44 1.44 0 1 1 2.88-.002 1.44 1.44 0 0 1-2.88.002zm0 0" fill="none" stroke-width=".06" stroke-linecap="square" stroke-linejoin="bevel" stroke="#000" stroke-miterlimit="10"/><path d="M259.121 202.8a2.516 2.516 0 0 1 2.52-2.519 2.52 2.52 0 1 1-2.52 2.52" fill-rule="evenodd" fill="green"/><path d="M259.121 202.8a2.516 2.516 0 0 1 2.52-2.519 2.52 2.52 0 1 1-2.52 2.52zm0 0" fill="none" stroke-width=".12" stroke-linecap="round" stroke-linejoin="round" stroke="green" stroke-miterlimit="10"/><path d="M260.2 202.8a1.44 1.44 0 1 1 2.88-.001 1.44 1.44 0 0 1-2.88.002" fill-rule="evenodd" fill="#fff"/><path d="M260.2 202.8a1.44 1.44 0 1 1 2.88-.001 1.44 1.44 0 0 1-2.88.002zm0 0" fill="none" stroke-width=".06" stroke-linecap="square" stroke-linejoin="bevel" stroke="#000" stroke-miterlimit="10"/><path d="M331 195.66a2.52 2.52 0 0 1 5.04 0 2.52 2.52 0 0 1-5.04 0" fill-rule="evenodd" fill="green"/><path d="M331 195.66a2.52 2.52 0 0 1 5.04 0 2.52 2.52 0 0 1-5.04 0zm0 0" fill="none" stroke-width=".12" stroke-linecap="round" stroke-linejoin="round" stroke="green" stroke-miterlimit="10"/><path d="M332.078 195.66c0-.797.649-1.441 1.442-1.441a1.44 1.44 0 1 1-1.442 1.441" fill-rule="evenodd" fill="#fff"/><path d="M332.078 195.66c0-.797.649-1.441 1.442-1.441a1.44 1.44 0 1 1-1.442 1.441zm0 0" fill="none" stroke-width=".06" stroke-linecap="square" stroke-linejoin="bevel" stroke="#000" stroke-miterlimit="10"/><path d="M331 202.8a2.518 2.518 0 0 1 2.52-2.519 2.52 2.52 0 1 1-2.52 2.52" fill-rule="evenodd" fill="green"/><path d="M331 202.8a2.518 2.518 0 0 1 2.52-2.519 2.52 2.52 0 1 1-2.52 2.52zm0 0" fill="none" stroke-width=".12" stroke-linecap="round" stroke-linejoin="round" stroke="green" stroke-miterlimit="10"/><path d="M332.078 202.8c0-.796.649-1.44 1.442-1.44a1.44 1.44 0 1 1-1.442 1.44" fill-rule="evenodd" fill="#fff"/><path d="M332.078 202.8c0-.796.649-1.44 1.442-1.44a1.44 1.44 0 1 1-1.442 1.44zm0 0" fill="none" stroke-width=".06" stroke-linecap="square" stroke-linejoin="bevel" stroke="#000" stroke-miterlimit="10"/><path d="M266.078 202.8c0-1.491 1.238-2.698 2.762-2.698 1.523 0 2.762 1.207 2.762 2.699 0 1.488-1.239 2.699-2.762 2.699-1.524 0-2.762-1.21-2.762-2.7" fill-rule="evenodd" fill="green"/><path d="M266.078 202.8c0-1.491 1.238-2.698 2.762-2.698 1.523 0 2.762 1.207 2.762 2.699 0 1.488-1.239 2.699-2.762 2.699-1.524 0-2.762-1.21-2.762-2.7zm0 0" fill="none" stroke-width=".12" stroke-linecap="round" stroke-linejoin="round" stroke="green" stroke-miterlimit="10"/><path d="M267.398 202.8c0-.796.649-1.44 1.442-1.44a1.44 1.44 0 1 1-1.442 1.44" fill-rule="evenodd" fill="#fff"/><path d="M267.398 202.8c0-.796.649-1.44 1.442-1.44a1.44 1.44 0 1 1-1.442 1.44zm0 0" fill="none" stroke-width=".06" stroke-linecap="square" stroke-linejoin="bevel" stroke="#000" stroke-miterlimit="10"/><path d="M280.422 195.66c0-1.492 1.234-2.7 2.758-2.7 1.523 0 2.761 1.208 2.761 2.7 0 1.492-1.238 2.7-2.761 2.7-1.524 0-2.758-1.208-2.758-2.7" fill-rule="evenodd" fill="green"/><path d="M280.422 195.66c0-1.492 1.234-2.7 2.758-2.7 1.523 0 2.761 1.208 2.761 2.7 0 1.492-1.238 2.7-2.761 2.7-1.524 0-2.758-1.208-2.758-2.7zm0 0" fill="none" stroke-width=".12" stroke-linecap="round" stroke-linejoin="round" stroke="green" stroke-miterlimit="10"/><path d="M281.738 195.66c0-.797.649-1.441 1.442-1.441a1.44 1.44 0 1 1-1.442 1.441" fill-rule="evenodd" fill="#fff"/><path d="M281.738 195.66c0-.797.649-1.441 1.442-1.441a1.44 1.44 0 1 1-1.442 1.441zm0 0" fill="none" stroke-width=".06" stroke-linecap="square" stroke-linejoin="bevel" stroke="#000" stroke-miterlimit="10"/><path d="M280.422 210c0-1.492 1.234-2.7 2.758-2.7 1.523 0 2.761 1.208 2.761 2.7 0 1.492-1.238 2.7-2.761 2.7-1.524 0-2.758-1.208-2.758-2.7" fill-rule="evenodd" fill="green"/><path d="M280.422 210c0-1.492 1.234-2.7 2.758-2.7 1.523 0 2.761 1.208 2.761 2.7 0 1.492-1.238 2.7-2.761 2.7-1.524 0-2.758-1.208-2.758-2.7zm0 0" fill="none" stroke-width=".12" stroke-linecap="round" stroke-linejoin="round" stroke="green" stroke-miterlimit="10"/><path d="M281.738 210c0-.797.649-1.441 1.442-1.441a1.44 1.44 0 1 1-1.442 1.441" fill-rule="evenodd" fill="#fff"/><path d="M281.738 210c0-.797.649-1.441 1.442-1.441a1.44 1.44 0 1 1-1.442 1.441zm0 0" fill="none" stroke-width=".06" stroke-linecap="square" stroke-linejoin="bevel" stroke="#000" stroke-miterlimit="10"/><path d="M327.82 208.559h-2.879v2.882h2.88zm0 0" fill="green" stroke-width=".12" stroke-linecap="round" stroke-linejoin="round" stroke="green" stroke-miterlimit="10"/><path d="M325.48 210c0-.465.375-.84.84-.84.465 0 .84.375.84.84 0 .465-.375.84-.84.84a.839.839 0 0 1-.84-.84" fill-rule="evenodd" fill="#fff"/><path d="M325.48 210c0-.465.375-.84.84-.84.465 0 .84.375.84.84 0 .465-.375.84-.84.84a.839.839 0 0 1-.84-.84zm0 0" fill="none" stroke-width=".06" stroke-linecap="square" stroke-linejoin="bevel" stroke="#000" stroke-miterlimit="10"/><path d="M312.04 210h7.198M319.238 210v7.2M297.64 210h-7.199M290.441 210v7.2M297.64 202.8h-14.402M283.238 202.8v7.2M297.64 217.2h7.2M304.84 217.2v-14.4M304.84 202.8h-7.2M312.04 202.8h14.339M326.379 202.8v14.4M261.7 202.8h7.198M290.441 195.66h28.797M319.238 195.66h7.14M333.578 195.66h-7.2M290.441 195.66h-7.203M261.7 195.66h21.538" fill="none" stroke-width="3.6" stroke-linecap="round" stroke-linejoin="round" stroke="navy" stroke-miterlimit="10"/><g clip-path="url(#A)"><path d="M340.781 231.54v-43.08" fill="none" stroke-width=".7200000000000001" stroke-linecap="round" stroke-linejoin="round" stroke="navy" stroke-miterlimit="10"/></g><g clip-path="url(#B)"><path d="M340.781 188.46H254.5" fill="none" stroke-width=".7200000000000001" stroke-linecap="round" stroke-linejoin="round" stroke="navy" stroke-miterlimit="10"/></g><g clip-path="url(#C)"><path d="M254.5 188.46v43.08" fill="none" stroke-width=".7200000000000001" stroke-linecap="round" stroke-linejoin="round" stroke="navy" stroke-miterlimit="10"/></g><g clip-path="url(#D)"><path d="M254.5 231.54h86.281" fill="none" stroke-width=".7200000000000001" stroke-linecap="round" stroke-linejoin="round" stroke="navy" stroke-miterlimit="10"/></g><path d="M280 197.64l-.3-.538M279.7 197.102l-.18-.543M279.52 196.559l-.06-.54M279.46 196.02h3.419M282.879 196.02v-.72M282.879 195.3h-3.418M279.46 195.3l.06-.538M279.52 194.762l.18-.602M279.7 194.16l.3-.539M280 193.621l.36-.48M280.36 193.14l.421-.421M280.781 192.719l.48-.36M281.262 192.36l.539-.239M281.8 192.121l.54-.18M282.34 191.941l.539-.12M282.879 191.82v3.48M282.879 195.3h.723M283.602 195.3v-3.48M283.602 191.82l.539.121M284.14 191.941l.598.18M284.738 192.121l.543.238M285.281 192.36l.48.359M285.762 192.719l.418.422M286.18 193.14l.36.481M286.54 193.621l.241.54M286.781 194.16l.18.602M286.96 194.762l.118.539M287.078 195.3h-3.476M283.602 195.3v.72M283.602 196.02h3.476M287.078 196.02l-.117.539M286.96 196.559l-.179.543M286.781 197.102h1.14M287.922 197.102l-.184-.364M287.738 196.738l-.117-.418M287.621 196.32l-.121-.422M287.5 195.898v-.058M287.5 195.84h2.762M290.262 195.84v-.418M290.262 195.422H287.5M287.5 195.422l-.059-.063M287.5 195.422l.121-.48M287.621 194.941l.117-.421M287.738 194.52l.184-.418M287.922 194.102l.297-.364M288.219 193.738l.3-.36M288.52 193.379l.421-.238M288.941 193.14l.36-.242M289.3 192.898l.481-.117M289.781 192.781l.418-.062M290.2 192.719h.062M290.262 192.719v2.703M290.262 195.422h.418M290.68 195.422v-2.703M290.68 192.719l-.059-.059M290.68 192.719l.48.062M291.16 192.781l.418.117M291.578 192.898l.422.243M292 193.14l.36.239M292.36 193.379l.3.36M292.66 193.738l.3.364M292.96 194.102l.18.418M293.14 194.52l.18.421M293.32 194.941l.059.48M293.379 195.422l-.059-.063M293.379 195.422h-2.7M290.68 195.422v.418M290.68 195.84h2.699M293.379 195.84v.058M293.379 195.898l-.059.422M293.32 196.32l-.18.418M293.14 196.738l-.12.364M293.02 197.102h3.359M296.379 197.102l.121-.063M296.5 197.04h2.281M298.781 197.04l.117.062M298.898 197.102h7.082M305.98 197.102l2.098.84M308.078 197.941l.3.297M308.379 198.238l.36-.36M308.738 197.879l2.102-.84M310.84 197.04h2.34M313.18 197.04l.12.062M313.3 197.102h3.36M316.66 197.102l-.18-.364M316.48 196.738l-.12-.418M316.36 196.32l-.06-.422M316.3 195.898v-.058M316.3 195.84h2.7M319 195.84v-.418M319 195.422h-2.7M316.3 195.422l-.062-.063M316.3 195.422l.06-.48M316.36 194.941l.12-.421M316.48 194.52l.239-.418M316.719 194.102l.242-.364M316.96 193.738l.36-.36M317.32 193.379l.36-.238M317.68 193.14l.422-.242M318.102 192.898l.418-.117M318.52 192.781l.48-.062M319 192.719h-.059M319 192.719v2.703M319 195.422h.422M319.422 195.422v-2.703M319.422 192.719l-.063-.059M319.422 192.719l.476.062M319.898 192.781l.422.117M320.32 192.898l.418.243M320.738 193.14l.364.239M321.102 193.379l.359.36M321.46 193.738l.24.364M321.7 194.102l.241.418M321.941 194.52l.118.421M322.059 194.941l.062.48M322.121 195.422l-.062-.063M322.121 195.422h-2.7M319.422 195.422v.418M319.422 195.84h2.7M322.121 195.84v.058M322.121 195.898l-.062.422M322.059 196.32l-.118.418M321.941 196.738l-.18.364M321.762 197.102h2.097M323.86 197.102l-.18-.364M323.68 196.738l-.121-.418M323.559 196.32l-.059-.422M323.5 195.898v-.058M323.5 195.84h2.7M326.2 195.84v-.418M326.2 195.422h-2.7M323.5 195.422l-.059-.063M323.5 195.422l.059-.48M323.559 194.941l.12-.421M323.68 194.52l.242-.418M323.922 194.102l.238-.364M324.16 193.738l.36-.36M324.52 193.379l.359-.238M324.879 193.14l.422-.242M325.3 192.898l.419-.117M325.719 192.781l.48-.062M326.2 192.719h-.06M326.2 192.719v2.703M326.2 195.422h.421M326.621 195.422v-2.703M326.621 192.719l-.062-.059M326.621 192.719l.48.062M327.102 192.781l.418.117M327.52 192.898l.421.243M327.941 193.14l.36.239M328.3 193.379l.36.36M328.66 193.738l.238.364M328.898 194.102l.243.418M329.14 194.52l.122.421M329.262 194.941l.058.48M329.32 195.422v-.063M329.32 195.422h-2.699M326.621 195.422v.418M326.621 195.84h2.7M329.32 195.84v.058M329.32 195.898l-.058.422M329.262 196.32l-.121.418M329.14 196.738l-.242.422M328.898 197.16l-.238.36M328.66 197.52l.781.359M329.441 197.879l.48-.54M329.922 197.34l.418-.18M330.34 197.16l-.059-.12M330.281 197.04l-.18-.54M330.102 196.5l-.122-.54M329.98 195.96h3.239M333.219 195.96v-.66M333.219 195.3h-3.239M329.98 195.3l.122-.48M330.102 194.82l.18-.539M330.281 194.281l.239-.543M330.52 193.738l.3-.418M330.82 193.32l.418-.422M331.238 192.898l.48-.359M331.719 192.54l.48-.24M332.2 192.3l.538-.179M332.738 192.121l.48-.062M333.219 192.059v3.242M333.219 195.3h.722M333.941 195.3v-3.241M333.941 192.059l.48.062M334.422 192.121l.539.18M334.96 192.3l.54.24M335.5 192.54l.422.358M335.922 192.898l.418.422M336.34 193.32l.3.418M336.64 193.738l.301.543M336.941 194.281l.18.54M337.121 194.82l.059.48M337.18 195.3h-3.239M333.941 195.3v.66M333.941 195.96h3.239M337.18 195.96l-.059.54M337.121 196.5l-.18.54M336.941 197.04l-.12.12M336.82 197.16l.418.18M337.238 197.34l1.864 1.8M339.102 199.14l.957 2.4M340.059 201.54v2.581M340.059 204.121l-.72 1.738M339.34 205.86v9.6M339.34 215.46l.238.54M339.578 216v2.34M339.578 218.34l-.238.539M339.34 218.879v6.601M339.34 225.48l-.899 2.16M338.441 227.64l-1.62 1.622M336.82 229.262l-2.101.84M334.719 230.102h-52.617M282.102 230.102l-2.102-.84M280 229.262l-1.621-1.621M278.379 227.64l-.899-2.16M277.48 225.48v-6.601M277.48 218.879l-.18-.54M277.3 218.34V216M277.3 216l.72-1.8M278.02 214.2l-.418-.419M277.602 213.781l-1.024-2.46M276.578 211.32v-2.64M276.578 208.68l.902-2.282M277.48 206.398v-4.738M277.48 201.66l.899-2.101M278.379 199.559L280 197.94M280 197.941l.18-.062M280.18 197.879l-.18-.238M258.34 197.04l-.18-.54M258.16 196.5l-.058-.54M258.102 195.96h3.238M261.34 195.96v-.66M261.34 195.3h-3.238M258.102 195.3l.058-.48M258.16 194.82l.18-.539M258.34 194.281l.3-.543M258.64 193.738l.301-.418M258.941 193.32l.418-.422M259.36 192.898l.421-.359M259.781 192.54l.54-.24M260.32 192.3l.54-.179M260.86 192.121l.48-.062M261.34 192.059v3.242M261.34 195.3h.719M262.059 195.3v-3.241M262.059 192.059l.48.062M262.54 192.121l.538.18M263.078 192.3l.48.24M263.559 192.54l.48.358M264.04 192.898l.42.422M264.46 193.32l.302.418M264.762 193.738l.238.543M265 194.281l.18.54M265.18 194.82l.12.48M265.3 195.3h-3.241M262.059 195.3v.66M262.059 195.96h3.242M265.3 195.96l-.12.54M265.18 196.5l-.18.54M265 197.04v.062M265 197.102h.3M265.3 197.102l2.278-.961M267.578 196.14h2.64M270.219 196.14l2.46 1.02M272.68 197.16l1.86 1.86M274.54 199.02l1.019 2.46M275.559 201.48v2.641M275.559 204.121l-1.02 2.457M274.54 206.578l-1.86 1.922M272.68 208.5l-2.461 1.02M270.219 209.52h-2.64M267.578 209.52l-2.277-.961M265.3 208.559h-.6M264.7 208.559l-1.74.722M262.96 209.281h-2.581M260.379 209.281l-2.34-.96M258.04 208.32l-1.86-1.86M256.18 206.46l-.961-2.339M255.219 204.121v-2.582M255.219 201.54l.96-2.4M256.18 199.14l1.86-1.8M258.04 197.34l.42-.18M258.46 197.16l-.12-.12" fill="none" stroke-width=".7200000000000001" stroke-linecap="round" stroke-linejoin="round" stroke="navy" stroke-miterlimit="10"/><g clip-path="url(#E)"><path d="M254.5 188.46h86.281" fill="none" stroke-width=".7200000000000001" stroke-linecap="round" stroke-linejoin="round" stroke="navy" stroke-miterlimit="10"/></g><g clip-path="url(#F)"><path d="M254.5 189.059h86.281" fill="none" stroke-width=".7200000000000001" stroke-linecap="round" stroke-linejoin="round" stroke="navy" stroke-miterlimit="10"/></g><g clip-path="url(#G)" fill="none" stroke-width="7.2" stroke-linecap="round" stroke-linejoin="round" stroke="navy" stroke-miterlimit="10"><path d="M254.5 189.719h86.281M254.5 190.32h86.281" stroke-width=".7200000000000001"/></g><g clip-path="url(#H)"><path d="M254.5 190.98h86.281" fill="none" stroke-width=".7200000000000001" stroke-linecap="round" stroke-linejoin="round" stroke="navy" stroke-miterlimit="10"/></g><g clip-path="url(#I)"><path d="M254.5 191.578h86.281" fill="none" stroke-width=".7200000000000001" stroke-linecap="round" stroke-linejoin="round" stroke="navy" stroke-miterlimit="10"/></g><path d="M254.5 192.238h6.059M261.34 192.238h.719M262.84 192.238h18.719M282.879 192.238h.723M284.922 192.238H332.5M333.219 192.238h.722" fill="none" stroke-width=".7200000000000001" stroke-linecap="round" stroke-linejoin="round" stroke="navy" stroke-miterlimit="10"/><g clip-path="url(#J)"><path d="M334.719 192.238h6.062" fill="none" stroke-width=".7200000000000001" stroke-linecap="round" stroke-linejoin="round" stroke="navy" stroke-miterlimit="10"/></g><path d="M254.5 192.84h4.922M261.34 192.84h.719M263.98 192.84h16.68M282.879 192.84h.723M285.879 192.84h3.66M290.262 192.84h.418M291.34 192.84h26.941M319 192.84h.422M320.14 192.84h5.34M326.2 192.84h.421M327.281 192.84h4.02M333.219 192.84h.722" fill="none" stroke-width=".7200000000000001" stroke-linecap="round" stroke-linejoin="round" stroke="navy" stroke-miterlimit="10"/><g clip-path="url(#K)"><path d="M335.86 192.84h4.921" fill="none" stroke-width=".7200000000000001" stroke-linecap="round" stroke-linejoin="round" stroke="navy" stroke-miterlimit="10"/></g><path d="M254.5 193.5h4.32M261.34 193.5h.719M264.578 193.5h15.543M282.879 193.5h.723M286.422 193.5h2.039M290.262 193.5h.418M292.422 193.5h24.777M319 193.5h.422M321.219 193.5h3.18M326.2 193.5h.421M328.36 193.5h2.34M333.219 193.5h.722" fill="none" stroke-width=".7200000000000001" stroke-linecap="round" stroke-linejoin="round" stroke="navy" stroke-miterlimit="10"/><g clip-path="url(#L)"><path d="M336.46 193.5h4.321" fill="none" stroke-width=".7200000000000001" stroke-linecap="round" stroke-linejoin="round" stroke="navy" stroke-miterlimit="10"/></g><path d="M254.5 194.102h3.96M261.34 194.102h.719M264.941 194.102h14.82M282.879 194.102h.723M286.781 194.102h1.14M290.262 194.102h.418M292.96 194.102h23.759M319 194.102h.422M321.7 194.102h2.222M326.2 194.102h.421M328.898 194.102h1.442M333.219 194.102h.722" fill="none" stroke-width=".7200000000000001" stroke-linecap="round" stroke-linejoin="round" stroke="navy" stroke-miterlimit="10"/><g clip-path="url(#M)"><path d="M336.82 194.102h3.961" fill="none" stroke-width=".7200000000000001" stroke-linecap="round" stroke-linejoin="round" stroke="navy" stroke-miterlimit="10"/></g><path d="M254.5 194.762h3.719M261.34 194.762h.719M265.18 194.762h14.34M282.879 194.762h.723M286.96 194.762h.72M290.262 194.762h.418M293.262 194.762h23.16M319 194.762h.422M322 194.762h1.621M326.2 194.762h.421M329.2 194.762h.902M333.219 194.762h.722" fill="none" stroke-width=".7200000000000001" stroke-linecap="round" stroke-linejoin="round" stroke="navy" stroke-miterlimit="10"/><g clip-path="url(#N)"><path d="M337.059 194.762h3.722" fill="none" stroke-width=".7200000000000001" stroke-linecap="round" stroke-linejoin="round" stroke="navy" stroke-miterlimit="10"/></g><path d="M254.5 195.36h6.84M262.059 195.36h20.82M283.602 195.36h3.898M290.262 195.36h.418M293.379 195.36H316.3M319 195.36h.422M322.121 195.36h1.379M326.2 195.36h.421M329.32 195.36h3.899" fill="none" stroke-width=".7200000000000001" stroke-linecap="round" stroke-linejoin="round" stroke="navy" stroke-miterlimit="10"/><g clip-path="url(#O)"><path d="M333.941 195.36h6.84" fill="none" stroke-width=".7200000000000001" stroke-linecap="round" stroke-linejoin="round" stroke="navy" stroke-miterlimit="10"/></g><path d="M254.5 196.02h3.602M265.3 196.02h17.579M283.602 196.02h3.957M293.379 196.02H316.3M322.121 196.02h1.379M329.32 196.02h.66" fill="none" stroke-width=".7200000000000001" stroke-linecap="round" stroke-linejoin="round" stroke="navy" stroke-miterlimit="10"/><g clip-path="url(#P)"><path d="M337.18 196.02h3.601" fill="none" stroke-width=".7200000000000001" stroke-linecap="round" stroke-linejoin="round" stroke="navy" stroke-miterlimit="10"/></g><path d="M254.5 196.621h3.719M265.121 196.621h1.258M271.36 196.621h8.218M286.96 196.621h.72M293.2 196.621h23.28M322 196.621h1.621M329.14 196.621h1.02" fill="none" stroke-width=".7200000000000001" stroke-linecap="round" stroke-linejoin="round" stroke="navy" stroke-miterlimit="10"/><g clip-path="url(#Q)"><path d="M337.059 196.621h3.722" fill="none" stroke-width=".7200000000000001" stroke-linecap="round" stroke-linejoin="round" stroke="navy" stroke-miterlimit="10"/></g><path d="M254.5 197.281h3.719M272.738 197.281h7.082M306.398 197.281h3.903M328.84 197.281h1.32" fill="none" stroke-width=".7200000000000001" stroke-linecap="round" stroke-linejoin="round" stroke="navy" stroke-miterlimit="10"/><g clip-path="url(#R)"><path d="M337.059 197.281h3.722" fill="none" stroke-width=".7200000000000001" stroke-linecap="round" stroke-linejoin="round" stroke="navy" stroke-miterlimit="10"/></g><path d="M254.5 197.879h3M273.398 197.879h6.782M307.898 197.879h.903" fill="none" stroke-width=".7200000000000001" stroke-linecap="round" stroke-linejoin="round" stroke="navy" stroke-miterlimit="10"/><g clip-path="url(#S)"><path d="M337.781 197.879h3" fill="none" stroke-width=".7200000000000001" stroke-linecap="round" stroke-linejoin="round" stroke="navy" stroke-miterlimit="10"/></g><path d="M254.5 198.54h2.34M274 198.54h5.46" fill="none" stroke-width=".7200000000000001" stroke-linecap="round" stroke-linejoin="round" stroke="navy" stroke-miterlimit="10"/><g clip-path="url(#T)"><path d="M338.441 198.54h2.34" fill="none" stroke-width=".7200000000000001" stroke-linecap="round" stroke-linejoin="round" stroke="navy" stroke-miterlimit="10"/></g><path d="M254.5 199.14h1.738M274.602 199.14h4.199" fill="none" stroke-width=".7200000000000001" stroke-linecap="round" stroke-linejoin="round" stroke="navy" stroke-miterlimit="10"/><g clip-path="url(#U)"><path d="M339.04 199.14h1.741" fill="none" stroke-width=".7200000000000001" stroke-linecap="round" stroke-linejoin="round" stroke="navy" stroke-miterlimit="10"/></g><path d="M254.5 199.738h1.441M274.84 199.738h3.48" fill="none" stroke-width=".7200000000000001" stroke-linecap="round" stroke-linejoin="round" stroke="navy" stroke-miterlimit="10"/><g clip-path="url(#V)"><path d="M339.34 199.738h1.441" fill="none" stroke-width=".7200000000000001" stroke-linecap="round" stroke-linejoin="round" stroke="navy" stroke-miterlimit="10"/></g><path d="M254.5 200.398h1.2M275.14 200.398h2.88" fill="none" stroke-width=".7200000000000001" stroke-linecap="round" stroke-linejoin="round" stroke="navy" stroke-miterlimit="10"/><g clip-path="url(#W)"><path d="M339.578 200.398h1.203" fill="none" stroke-width=".7200000000000001" stroke-linecap="round" stroke-linejoin="round" stroke="navy" stroke-miterlimit="10"/></g><path d="M254.5 201h.96M275.379 201h2.402" fill="none" stroke-width=".7200000000000001" stroke-linecap="round" stroke-linejoin="round" stroke="navy" stroke-miterlimit="10"/><g clip-path="url(#X)"><path d="M339.82 201h.961" fill="none" stroke-width=".7200000000000001" stroke-linecap="round" stroke-linejoin="round" stroke="navy" stroke-miterlimit="10"/></g><path d="M254.5 201.66h.719M275.559 201.66h1.98" fill="none" stroke-width=".7200000000000001" stroke-linecap="round" stroke-linejoin="round" stroke="navy" stroke-miterlimit="10"/><g clip-path="url(#Y)"><path d="M340.059 201.66h.722" fill="none" stroke-width=".7200000000000001" stroke-linecap="round" stroke-linejoin="round" stroke="navy" stroke-miterlimit="10"/></g><path d="M254.5 202.262h.719M275.559 202.262h1.921" fill="none" stroke-width=".7200000000000001" stroke-linecap="round" stroke-linejoin="round" stroke="navy" stroke-miterlimit="10"/><g clip-path="url(#Z)"><path d="M340.059 202.262h.722" fill="none" stroke-width=".7200000000000001" stroke-linecap="round" stroke-linejoin="round" stroke="navy" stroke-miterlimit="10"/></g><path d="M254.5 202.922h.719M275.559 202.922h1.921" fill="none" stroke-width=".7200000000000001" stroke-linecap="round" stroke-linejoin="round" stroke="navy" stroke-miterlimit="10"/><g clip-path="url(#aa)"><path d="M340.059 202.922h.722" fill="none" stroke-width=".7200000000000001" stroke-linecap="round" stroke-linejoin="round" stroke="navy" stroke-miterlimit="10"/></g><path d="M254.5 203.52h.719M275.559 203.52h1.921" fill="none" stroke-width=".7200000000000001" stroke-linecap="round" stroke-linejoin="round" stroke="navy" stroke-miterlimit="10"/><g clip-path="url(#ab)"><path d="M340.059 203.52h.722" fill="none" stroke-width=".7200000000000001" stroke-linecap="round" stroke-linejoin="round" stroke="navy" stroke-miterlimit="10"/></g><path d="M254.5 204.18h.719M275.559 204.18h1.921" fill="none" stroke-width=".7200000000000001" stroke-linecap="round" stroke-linejoin="round" stroke="navy" stroke-miterlimit="10"/><g clip-path="url(#ac)"><path d="M340.059 204.18h.722" fill="none" stroke-width=".7200000000000001" stroke-linecap="round" stroke-linejoin="round" stroke="navy" stroke-miterlimit="10"/></g><path d="M254.5 204.781h1.02M275.32 204.781h2.16" fill="none" stroke-width=".7200000000000001" stroke-linecap="round" stroke-linejoin="round" stroke="navy" stroke-miterlimit="10"/><g clip-path="url(#ad)"><path d="M339.762 204.781h1.02" fill="none" stroke-width=".7200000000000001" stroke-linecap="round" stroke-linejoin="round" stroke="navy" stroke-miterlimit="10"/></g><path d="M254.5 205.441h1.262M275.02 205.441h2.46" fill="none" stroke-width=".7200000000000001" stroke-linecap="round" stroke-linejoin="round" stroke="navy" stroke-miterlimit="10"/><g clip-path="url(#ae)"><path d="M339.52 205.441h1.261" fill="none" stroke-width=".7200000000000001" stroke-linecap="round" stroke-linejoin="round" stroke="navy" stroke-miterlimit="10"/></g><path d="M254.5 206.04h1.5M274.781 206.04h2.7" fill="none" stroke-width=".7200000000000001" stroke-linecap="round" stroke-linejoin="round" stroke="navy" stroke-miterlimit="10"/><g clip-path="url(#af)"><path d="M339.34 206.04h1.441" fill="none" stroke-width=".7200000000000001" stroke-linecap="round" stroke-linejoin="round" stroke="navy" stroke-miterlimit="10"/></g><path d="M254.5 206.7h1.922M274.48 206.7h2.942" fill="none" stroke-width=".7200000000000001" stroke-linecap="round" stroke-linejoin="round" stroke="navy" stroke-miterlimit="10"/><g clip-path="url(#ag)"><path d="M339.34 206.7h1.441" fill="none" stroke-width=".7200000000000001" stroke-linecap="round" stroke-linejoin="round" stroke="navy" stroke-miterlimit="10"/></g><path d="M254.5 207.3h2.52M273.82 207.3h3.301" fill="none" stroke-width=".7200000000000001" stroke-linecap="round" stroke-linejoin="round" stroke="navy" stroke-miterlimit="10"/><g clip-path="url(#ah)"><path d="M339.34 207.3h1.441" fill="none" stroke-width=".7200000000000001" stroke-linecap="round" stroke-linejoin="round" stroke="navy" stroke-miterlimit="10"/></g><path d="M254.5 207.96h3.18M273.219 207.96h3.66" fill="none" stroke-width=".7200000000000001" stroke-linecap="round" stroke-linejoin="round" stroke="navy" stroke-miterlimit="10"/><g clip-path="url(#ai)"><path d="M339.34 207.96h1.441" fill="none" stroke-width=".7200000000000001" stroke-linecap="round" stroke-linejoin="round" stroke="navy" stroke-miterlimit="10"/></g><path d="M254.5 208.559h4.14M272.5 208.559h4.14" fill="none" stroke-width=".7200000000000001" stroke-linecap="round" stroke-linejoin="round" stroke="navy" stroke-miterlimit="10"/><g clip-path="url(#aj)"><path d="M339.34 208.559h1.441" fill="none" stroke-width=".7200000000000001" stroke-linecap="round" stroke-linejoin="round" stroke="navy" stroke-miterlimit="10"/></g><path d="M254.5 209.16h5.7M263.2 209.16h3.6M270.941 209.16h5.637" fill="none" stroke-width=".7200000000000001" stroke-linecap="round" stroke-linejoin="round" stroke="navy" stroke-miterlimit="10"/><g clip-path="url(#ak)"><path d="M339.34 209.16h1.441" fill="none" stroke-width=".7200000000000001" stroke-linecap="round" stroke-linejoin="round" stroke="navy" stroke-miterlimit="10"/></g><path d="M254.5 209.82h22.078" fill="none" stroke-width=".7200000000000001" stroke-linecap="round" stroke-linejoin="round" stroke="navy" stroke-miterlimit="10"/><g clip-path="url(#al)"><path d="M339.34 209.82h1.441" fill="none" stroke-width=".7200000000000001" stroke-linecap="round" stroke-linejoin="round" stroke="navy" stroke-miterlimit="10"/></g><path d="M254.5 210.422h22.078" fill="none" stroke-width=".7200000000000001" stroke-linecap="round" stroke-linejoin="round" stroke="navy" stroke-miterlimit="10"/><g clip-path="url(#am)"><path d="M339.34 210.422h1.441" fill="none" stroke-width=".7200000000000001" stroke-linecap="round" stroke-linejoin="round" stroke="navy" stroke-miterlimit="10"/></g><path d="M254.5 211.078h22.078" fill="none" stroke-width=".7200000000000001" stroke-linecap="round" stroke-linejoin="round" stroke="navy" stroke-miterlimit="10"/><g clip-path="url(#an)"><path d="M339.34 211.078h1.441" fill="none" stroke-width=".7200000000000001" stroke-linecap="round" stroke-linejoin="round" stroke="navy" stroke-miterlimit="10"/></g><path d="M254.5 211.68h22.2" fill="none" stroke-width=".7200000000000001" stroke-linecap="round" stroke-linejoin="round" stroke="navy" stroke-miterlimit="10"/><g clip-path="url(#ao)"><path d="M339.34 211.68h1.441" fill="none" stroke-width=".7200000000000001" stroke-linecap="round" stroke-linejoin="round" stroke="navy" stroke-miterlimit="10"/></g><path d="M254.5 212.34H277" fill="none" stroke-width=".7200000000000001" stroke-linecap="round" stroke-linejoin="round" stroke="navy" stroke-miterlimit="10"/><g clip-path="url(#ap)"><path d="M339.34 212.34h1.441" fill="none" stroke-width=".7200000000000001" stroke-linecap="round" stroke-linejoin="round" stroke="navy" stroke-miterlimit="10"/></g><path d="M254.5 212.941h22.738" fill="none" stroke-width=".7200000000000001" stroke-linecap="round" stroke-linejoin="round" stroke="navy" stroke-miterlimit="10"/><g clip-path="url(#aq)"><path d="M339.34 212.941h1.441" fill="none" stroke-width=".7200000000000001" stroke-linecap="round" stroke-linejoin="round" stroke="navy" stroke-miterlimit="10"/></g><path d="M254.5 213.602h22.98" fill="none" stroke-width=".7200000000000001" stroke-linecap="round" stroke-linejoin="round" stroke="navy" stroke-miterlimit="10"/><g clip-path="url(#ar)"><path d="M339.34 213.602h1.441" fill="none" stroke-width=".7200000000000001" stroke-linecap="round" stroke-linejoin="round" stroke="navy" stroke-miterlimit="10"/></g><path d="M254.5 214.2h23.52" fill="none" stroke-width=".7200000000000001" stroke-linecap="round" stroke-linejoin="round" stroke="navy" stroke-miterlimit="10"/><g clip-path="url(#as)"><path d="M339.34 214.2h1.441" fill="none" stroke-width=".7200000000000001" stroke-linecap="round" stroke-linejoin="round" stroke="navy" stroke-miterlimit="10"/></g><path d="M254.5 214.86h23.281" fill="none" stroke-width=".7200000000000001" stroke-linecap="round" stroke-linejoin="round" stroke="navy" stroke-miterlimit="10"/><g clip-path="url(#at)"><path d="M339.34 214.86h1.441" fill="none" stroke-width=".7200000000000001" stroke-linecap="round" stroke-linejoin="round" stroke="navy" stroke-miterlimit="10"/></g><path d="M254.5 215.46h23.04" fill="none" stroke-width=".7200000000000001" stroke-linecap="round" stroke-linejoin="round" stroke="navy" stroke-miterlimit="10"/><g clip-path="url(#au)"><path d="M339.34 215.46h1.441" fill="none" stroke-width=".7200000000000001" stroke-linecap="round" stroke-linejoin="round" stroke="navy" stroke-miterlimit="10"/></g><path d="M254.5 216.121h22.8" fill="none" stroke-width=".7200000000000001" stroke-linecap="round" stroke-linejoin="round" stroke="navy" stroke-miterlimit="10"/><g clip-path="url(#av)"><path d="M339.578 216.121h1.203" fill="none" stroke-width=".7200000000000001" stroke-linecap="round" stroke-linejoin="round" stroke="navy" stroke-miterlimit="10"/></g><path d="M254.5 216.719h22.8" fill="none" stroke-width=".7200000000000001" stroke-linecap="round" stroke-linejoin="round" stroke="navy" stroke-miterlimit="10"/><g clip-path="url(#aw)"><path d="M339.578 216.719h1.203" fill="none" stroke-width=".7200000000000001" stroke-linecap="round" stroke-linejoin="round" stroke="navy" stroke-miterlimit="10"/></g><path d="M254.5 217.379h22.8" fill="none" stroke-width=".7200000000000001" stroke-linecap="round" stroke-linejoin="round" stroke="navy" stroke-miterlimit="10"/><g clip-path="url(#ax)"><path d="M339.578 217.379h1.203" fill="none" stroke-width=".7200000000000001" stroke-linecap="round" stroke-linejoin="round" stroke="navy" stroke-miterlimit="10"/></g><path d="M254.5 217.98h22.8" fill="none" stroke-width=".7200000000000001" stroke-linecap="round" stroke-linejoin="round" stroke="navy" stroke-miterlimit="10"/><g clip-path="url(#ay)"><path d="M339.578 217.98h1.203" fill="none" stroke-width=".7200000000000001" stroke-linecap="round" stroke-linejoin="round" stroke="navy" stroke-miterlimit="10"/></g><path d="M254.5 218.64h22.922" fill="none" stroke-width=".7200000000000001" stroke-linecap="round" stroke-linejoin="round" stroke="navy" stroke-miterlimit="10"/><g clip-path="url(#az)"><path d="M339.46 218.64h1.321" fill="none" stroke-width=".7200000000000001" stroke-linecap="round" stroke-linejoin="round" stroke="navy" stroke-miterlimit="10"/></g><path d="M254.5 219.238h22.98" fill="none" stroke-width=".7200000000000001" stroke-linecap="round" stroke-linejoin="round" stroke="navy" stroke-miterlimit="10"/><g clip-path="url(#aA)"><path d="M339.34 219.238h1.441" fill="none" stroke-width=".7200000000000001" stroke-linecap="round" stroke-linejoin="round" stroke="navy" stroke-miterlimit="10"/></g><path d="M254.5 219.84h22.98" fill="none" stroke-width=".7200000000000001" stroke-linecap="round" stroke-linejoin="round" stroke="navy" stroke-miterlimit="10"/><g clip-path="url(#aB)"><path d="M339.34 219.84h1.441" fill="none" stroke-width=".7200000000000001" stroke-linecap="round" stroke-linejoin="round" stroke="navy" stroke-miterlimit="10"/></g><path d="M254.5 220.5h22.98" fill="none" stroke-width=".7200000000000001" stroke-linecap="round" stroke-linejoin="round" stroke="navy" stroke-miterlimit="10"/><g clip-path="url(#aC)"><path d="M339.34 220.5h1.441" fill="none" stroke-width=".7200000000000001" stroke-linecap="round" stroke-linejoin="round" stroke="navy" stroke-miterlimit="10"/></g><path d="M254.5 221.102h22.98" fill="none" stroke-width=".7200000000000001" stroke-linecap="round" stroke-linejoin="round" stroke="navy" stroke-miterlimit="10"/><g clip-path="url(#aD)"><path d="M339.34 221.102h1.441" fill="none" stroke-width=".7200000000000001" stroke-linecap="round" stroke-linejoin="round" stroke="navy" stroke-miterlimit="10"/></g><path d="M254.5 221.762h22.98" fill="none" stroke-width=".7200000000000001" stroke-linecap="round" stroke-linejoin="round" stroke="navy" stroke-miterlimit="10"/><g clip-path="url(#aE)"><path d="M339.34 221.762h1.441" fill="none" stroke-width=".7200000000000001" stroke-linecap="round" stroke-linejoin="round" stroke="navy" stroke-miterlimit="10"/></g><path d="M254.5 222.36h22.98" fill="none" stroke-width=".7200000000000001" stroke-linecap="round" stroke-linejoin="round" stroke="navy" stroke-miterlimit="10"/><g clip-path="url(#aF)"><path d="M339.34 222.36h1.441" fill="none" stroke-width=".7200000000000001" stroke-linecap="round" stroke-linejoin="round" stroke="navy" stroke-miterlimit="10"/></g><path d="M254.5 223.02h22.98" fill="none" stroke-width=".7200000000000001" stroke-linecap="round" stroke-linejoin="round" stroke="navy" stroke-miterlimit="10"/><g clip-path="url(#aG)"><path d="M339.34 223.02h1.441" fill="none" stroke-width=".7200000000000001" stroke-linecap="round" stroke-linejoin="round" stroke="navy" stroke-miterlimit="10"/></g><path d="M254.5 223.621h22.98" fill="none" stroke-width=".7200000000000001" stroke-linecap="round" stroke-linejoin="round" stroke="navy" stroke-miterlimit="10"/><g clip-path="url(#aH)"><path d="M339.34 223.621h1.441" fill="none" stroke-width=".7200000000000001" stroke-linecap="round" stroke-linejoin="round" stroke="navy" stroke-miterlimit="10"/></g><path d="M254.5 224.281h22.98" fill="none" stroke-width=".7200000000000001" stroke-linecap="round" stroke-linejoin="round" stroke="navy" stroke-miterlimit="10"/><g clip-path="url(#aI)"><path d="M339.34 224.281h1.441" fill="none" stroke-width=".7200000000000001" stroke-linecap="round" stroke-linejoin="round" stroke="navy" stroke-miterlimit="10"/></g><path d="M254.5 224.879h22.98" fill="none" stroke-width=".7200000000000001" stroke-linecap="round" stroke-linejoin="round" stroke="navy" stroke-miterlimit="10"/><g clip-path="url(#aJ)"><path d="M339.34 224.879h1.441" fill="none" stroke-width=".7200000000000001" stroke-linecap="round" stroke-linejoin="round" stroke="navy" stroke-miterlimit="10"/></g><path d="M254.5 225.54h23.04" fill="none" stroke-width=".7200000000000001" stroke-linecap="round" stroke-linejoin="round" stroke="navy" stroke-miterlimit="10"/><g clip-path="url(#aK)"><path d="M339.34 225.54h1.441" fill="none" stroke-width=".7200000000000001" stroke-linecap="round" stroke-linejoin="round" stroke="navy" stroke-miterlimit="10"/></g><path d="M254.5 226.14h23.281" fill="none" stroke-width=".7200000000000001" stroke-linecap="round" stroke-linejoin="round" stroke="navy" stroke-miterlimit="10"/><g clip-path="url(#aL)"><path d="M339.102 226.14h1.68" fill="none" stroke-width=".7200000000000001" stroke-linecap="round" stroke-linejoin="round" stroke="navy" stroke-miterlimit="10"/></g><path d="M254.5 226.8h23.52" fill="none" stroke-width=".7200000000000001" stroke-linecap="round" stroke-linejoin="round" stroke="navy" stroke-miterlimit="10"/><g clip-path="url(#aM)"><path d="M338.8 226.8h1.981" fill="none" stroke-width=".7200000000000001" stroke-linecap="round" stroke-linejoin="round" stroke="navy" stroke-miterlimit="10"/></g><path d="M254.5 227.398h23.82" fill="none" stroke-width=".7200000000000001" stroke-linecap="round" stroke-linejoin="round" stroke="navy" stroke-miterlimit="10"/><g clip-path="url(#aN)"><path d="M338.559 227.398h2.222" fill="none" stroke-width=".7200000000000001" stroke-linecap="round" stroke-linejoin="round" stroke="navy" stroke-miterlimit="10"/></g><path d="M254.5 228.059h24.3" fill="none" stroke-width=".7200000000000001" stroke-linecap="round" stroke-linejoin="round" stroke="navy" stroke-miterlimit="10"/><g clip-path="url(#aO)"><path d="M338.02 228.059h2.761" fill="none" stroke-width=".7200000000000001" stroke-linecap="round" stroke-linejoin="round" stroke="navy" stroke-miterlimit="10"/></g><path d="M254.5 228.66h24.96" fill="none" stroke-width=".7200000000000001" stroke-linecap="round" stroke-linejoin="round" stroke="navy" stroke-miterlimit="10"/><g clip-path="url(#aP)"><path d="M337.422 228.66h3.36" fill="none" stroke-width=".7200000000000001" stroke-linecap="round" stroke-linejoin="round" stroke="navy" stroke-miterlimit="10"/></g><path d="M254.5 229.32h25.621" fill="none" stroke-width=".7200000000000001" stroke-linecap="round" stroke-linejoin="round" stroke="navy" stroke-miterlimit="10"/><g clip-path="url(#aQ)"><path d="M336.7 229.32h4.081" fill="none" stroke-width=".7200000000000001" stroke-linecap="round" stroke-linejoin="round" stroke="navy" stroke-miterlimit="10"/></g><path d="M254.5 229.922h27.18" fill="none" stroke-width=".7200000000000001" stroke-linecap="round" stroke-linejoin="round" stroke="navy" stroke-miterlimit="10"/><g clip-path="url(#aR)"><path d="M335.2 229.922h5.581" fill="none" stroke-width=".7200000000000001" stroke-linecap="round" stroke-linejoin="round" stroke="navy" stroke-miterlimit="10"/></g><g clip-path="url(#aS)"><path d="M254.5 230.52h86.281" fill="none" stroke-width=".7200000000000001" stroke-linecap="round" stroke-linejoin="round" stroke="navy" stroke-miterlimit="10"/></g><g clip-path="url(#aT)"><path d="M254.5 231.18h86.281" fill="none" stroke-width=".7200000000000001" stroke-linecap="round" stroke-linejoin="round" stroke="navy" stroke-miterlimit="10"/></g><path d="M283.238 217.2v7.14M283.238 224.34h50.34M333.578 224.34v-7.14M333.578 217.2v-14.4" fill="none" stroke-width="3.6" stroke-linecap="round" stroke-linejoin="round" stroke="navy" stroke-miterlimit="10"/><path d="M295.719 202.8a1.861 1.861 0 0 1 3.722 0 1.862 1.862 0 0 1-3.722 0" fill-rule="evenodd" fill="green"/><path d="M295.719 202.8a1.861 1.861 0 0 1 3.722 0 1.862 1.862 0 0 1-3.722 0zm0 0" fill="none" stroke-width=".12" stroke-linecap="round" stroke-linejoin="round" stroke="green" stroke-miterlimit="10"/><path d="M296.441 202.8a1.139 1.139 0 1 1 2.278 0 1.14 1.14 0 1 1-2.278 0" fill-rule="evenodd" fill="#fff"/><path d="M296.441 202.8a1.139 1.139 0 1 1 2.278 0 1.14 1.14 0 1 1-2.278 0zm0 0" fill="none" stroke-width=".06" stroke-linecap="square" stroke-linejoin="bevel" stroke="#000" stroke-miterlimit="10"/><path d="M310.121 202.8a1.859 1.859 0 1 1 3.718 0 1.859 1.859 0 0 1-3.718 0" fill-rule="evenodd" fill="green"/><path d="M310.121 202.8a1.859 1.859 0 1 1 3.718 0 1.859 1.859 0 0 1-3.718 0zm0 0" fill="none" stroke-width=".12" stroke-linecap="round" stroke-linejoin="round" stroke="green" stroke-miterlimit="10"/><path d="M310.84 202.8c0-.628.512-1.14 1.14-1.14.63 0 1.141.512 1.141 1.14 0 .63-.512 1.141-1.14 1.141-.63 0-1.141-.511-1.141-1.14" fill-rule="evenodd" fill="#fff"/><path d="M310.84 202.8c0-.628.512-1.14 1.14-1.14.63 0 1.141.512 1.141 1.14 0 .63-.512 1.141-1.14 1.141-.63 0-1.141-.511-1.141-1.14zm0 0" fill="none" stroke-width=".06" stroke-linecap="square" stroke-linejoin="bevel" stroke="#000" stroke-miterlimit="10"/><path d="M295.719 210a1.861 1.861 0 0 1 3.722 0 1.862 1.862 0 0 1-3.722 0" fill-rule="evenodd" fill="green"/><path d="M295.719 210a1.861 1.861 0 0 1 3.722 0 1.862 1.862 0 0 1-3.722 0zm0 0" fill="none" stroke-width=".12" stroke-linecap="round" stroke-linejoin="round" stroke="green" stroke-miterlimit="10"/><path d="M296.441 210a1.139 1.139 0 1 1 2.278 0 1.14 1.14 0 1 1-2.278 0" fill-rule="evenodd" fill="#fff"/><path d="M296.441 210a1.139 1.139 0 1 1 2.278 0 1.14 1.14 0 1 1-2.278 0zm0 0" fill="none" stroke-width=".06" stroke-linecap="square" stroke-linejoin="bevel" stroke="#000" stroke-miterlimit="10"/><path d="M310.121 210a1.859 1.859 0 1 1 3.718-.001 1.859 1.859 0 0 1-3.718.001" fill-rule="evenodd" fill="green"/><path d="M310.121 210a1.859 1.859 0 1 1 3.718-.001 1.859 1.859 0 0 1-3.718.001zm0 0" fill="none" stroke-width=".12" stroke-linecap="round" stroke-linejoin="round" stroke="green" stroke-miterlimit="10"/><path d="M310.84 210c0-.629.512-1.14 1.14-1.14.63 0 1.141.511 1.141 1.14 0 .629-.512 1.14-1.14 1.14-.63 0-1.141-.511-1.141-1.14" fill-rule="evenodd" fill="#fff"/><path d="M310.84 210c0-.629.512-1.14 1.14-1.14.63 0 1.141.511 1.141 1.14 0 .629-.512 1.14-1.14 1.14-.63 0-1.141-.511-1.141-1.14zm0 0" fill="none" stroke-width=".06" stroke-linecap="square" stroke-linejoin="bevel" stroke="#000" stroke-miterlimit="10"/><path d="M317.32 195.66a1.859 1.859 0 1 1 3.718-.001 1.859 1.859 0 0 1-3.718.001" fill-rule="evenodd" fill="green"/><path d="M317.32 195.66a1.859 1.859 0 1 1 3.718-.001 1.859 1.859 0 0 1-3.718.001zm0 0" fill="none" stroke-width=".12" stroke-linecap="round" stroke-linejoin="round" stroke="green" stroke-miterlimit="10"/><path d="M318.04 195.66c0-.629.51-1.14 1.14-1.14.629 0 1.14.511 1.14 1.14 0 .63-.511 1.14-1.14 1.14-.63 0-1.14-.51-1.14-1.14" fill-rule="evenodd" fill="#fff"/><path d="M318.04 195.66c0-.629.51-1.14 1.14-1.14.629 0 1.14.511 1.14 1.14 0 .63-.511 1.14-1.14 1.14-.63 0-1.14-.51-1.14-1.14zm0 0" fill="none" stroke-width=".06" stroke-linecap="square" stroke-linejoin="bevel" stroke="#000" stroke-miterlimit="10"/><path d="M317.32 210a1.859 1.859 0 1 1 3.718-.001 1.859 1.859 0 0 1-3.718.001" fill-rule="evenodd" fill="green"/><path d="M317.32 210a1.859 1.859 0 1 1 3.718-.001 1.859 1.859 0 0 1-3.718.001zm0 0" fill="none" stroke-width=".12" stroke-linecap="round" stroke-linejoin="round" stroke="green" stroke-miterlimit="10"/><path d="M318.04 210c0-.629.51-1.14 1.14-1.14.629 0 1.14.511 1.14 1.14 0 .629-.511 1.14-1.14 1.14-.63 0-1.14-.511-1.14-1.14" fill-rule="evenodd" fill="#fff"/><path d="M318.04 210c0-.629.51-1.14 1.14-1.14.629 0 1.14.511 1.14 1.14 0 .629-.511 1.14-1.14 1.14-.63 0-1.14-.511-1.14-1.14zm0 0" fill="none" stroke-width=".06" stroke-linecap="square" stroke-linejoin="bevel" stroke="#000" stroke-miterlimit="10"/><path d="M324.46 195.66a1.859 1.859 0 1 1 3.719-.001 1.859 1.859 0 0 1-3.718.001" fill-rule="evenodd" fill="green"/><path d="M324.46 195.66a1.859 1.859 0 1 1 3.719-.001 1.859 1.859 0 0 1-3.718.001zm0 0" fill="none" stroke-width=".12" stroke-linecap="round" stroke-linejoin="round" stroke="green" stroke-miterlimit="10"/><path d="M325.18 195.66c0-.629.511-1.14 1.14-1.14.63 0 1.14.511 1.14 1.14 0 .63-.51 1.14-1.14 1.14-.629 0-1.14-.51-1.14-1.14" fill-rule="evenodd" fill="#fff"/><path d="M325.18 195.66c0-.629.511-1.14 1.14-1.14.63 0 1.14.511 1.14 1.14 0 .63-.51 1.14-1.14 1.14-.629 0-1.14-.51-1.14-1.14zm0 0" fill="none" stroke-width=".06" stroke-linecap="square" stroke-linejoin="bevel" stroke="#000" stroke-miterlimit="10"/><path d="M324.46 210a1.859 1.859 0 1 1 3.719-.001 1.859 1.859 0 0 1-3.718.001" fill-rule="evenodd" fill="green"/><path d="M324.46 210a1.859 1.859 0 1 1 3.719-.001 1.859 1.859 0 0 1-3.718.001zm0 0" fill="none" stroke-width=".12" stroke-linecap="round" stroke-linejoin="round" stroke="green" stroke-miterlimit="10"/><path d="M325.18 210c0-.629.511-1.14 1.14-1.14.63 0 1.14.511 1.14 1.14 0 .629-.51 1.14-1.14 1.14-.629 0-1.14-.511-1.14-1.14" fill-rule="evenodd" fill="#fff"/><path d="M325.18 210c0-.629.511-1.14 1.14-1.14.63 0 1.14.511 1.14 1.14 0 .629-.51 1.14-1.14 1.14-.629 0-1.14-.511-1.14-1.14zm0 0" fill="none" stroke-width=".06" stroke-linecap="square" stroke-linejoin="bevel" stroke="#000" stroke-miterlimit="10"/><path d="M288.52 195.66a1.859 1.859 0 1 1 3.717-.001 1.859 1.859 0 0 1-3.717.001" fill-rule="evenodd" fill="green"/><path d="M288.52 195.66a1.859 1.859 0 1 1 3.717-.001 1.859 1.859 0 0 1-3.717.001zm0 0" fill="none" stroke-width=".12" stroke-linecap="round" stroke-linejoin="round" stroke="green" stroke-miterlimit="10"/><path d="M289.238 195.66a1.14 1.14 0 1 1 1.14 1.14c-.628 0-1.14-.51-1.14-1.14" fill-rule="evenodd" fill="#fff"/><path d="M289.238 195.66a1.14 1.14 0 1 1 1.14 1.14c-.628 0-1.14-.51-1.14-1.14zm0 0" fill="none" stroke-width=".06" stroke-linecap="square" stroke-linejoin="bevel" stroke="#000" stroke-miterlimit="10"/><path d="M288.52 210a1.859 1.859 0 1 1 3.717-.001 1.859 1.859 0 0 1-3.717.001" fill-rule="evenodd" fill="green"/><path d="M288.52 210a1.859 1.859 0 1 1 3.717-.001 1.859 1.859 0 0 1-3.717.001zm0 0" fill="none" stroke-width=".12" stroke-linecap="round" stroke-linejoin="round" stroke="green" stroke-miterlimit="10"/><path d="M289.238 210a1.14 1.14 0 1 1 1.14 1.14c-.628 0-1.14-.511-1.14-1.14" fill-rule="evenodd" fill="#fff"/><path d="M289.238 210a1.14 1.14 0 1 1 1.14 1.14c-.628 0-1.14-.511-1.14-1.14zm0 0" fill="none" stroke-width=".06" stroke-linecap="square" stroke-linejoin="bevel" stroke="#000" stroke-miterlimit="10"/><path d="M317.14 217.2a2.038 2.038 0 1 1 4.078 0 2.038 2.038 0 1 1-4.078 0" fill-rule="evenodd" fill="green"/><path d="M317.14 217.2a2.038 2.038 0 1 1 4.078 0 2.038 2.038 0 1 1-4.078 0zm0 0" fill="none" stroke-width=".12" stroke-linecap="round" stroke-linejoin="round" stroke="green" stroke-miterlimit="10"/><path d="M318.16 217.2c0-.528.457-.962 1.02-.962.562 0 1.02.434 1.02.961 0 .531-.458.961-1.02.961-.563 0-1.02-.43-1.02-.96" fill-rule="evenodd" fill="#fff"/><path d="M318.16 217.2c0-.528.457-.962 1.02-.962.562 0 1.02.434 1.02.961 0 .531-.458.961-1.02.961-.563 0-1.02-.43-1.02-.96zm0 0" fill="none" stroke-width=".06" stroke-linecap="square" stroke-linejoin="bevel" stroke="#000" stroke-miterlimit="10"/><path d="M331.48 217.2a2.04 2.04 0 0 1 2.04-2.04 2.038 2.038 0 1 1-2.04 2.04" fill-rule="evenodd" fill="green"/><path d="M331.48 217.2a2.04 2.04 0 0 1 2.04-2.04 2.038 2.038 0 1 1-2.04 2.04zm0 0" fill="none" stroke-width=".12" stroke-linecap="round" stroke-linejoin="round" stroke="green" stroke-miterlimit="10"/><path d="M332.5 217.2c0-.528.457-.962 1.02-.962.562 0 1.02.434 1.02.961 0 .531-.458.961-1.02.961-.563 0-1.02-.43-1.02-.96" fill-rule="evenodd" fill="#fff"/><path d="M332.5 217.2c0-.528.457-.962 1.02-.962.562 0 1.02.434 1.02.961 0 .531-.458.961-1.02.961-.563 0-1.02-.43-1.02-.96zm0 0" fill="none" stroke-width=".06" stroke-linecap="square" stroke-linejoin="bevel" stroke="#000" stroke-miterlimit="10"/><path d="M324.281 217.2a2.038 2.038 0 1 1 4.078 0c0 1.128-.914 2.038-2.039 2.038-1.129 0-2.039-.91-2.039-2.039" fill-rule="evenodd" fill="green"/><path d="M324.281 217.2a2.038 2.038 0 1 1 4.078 0c0 1.128-.914 2.038-2.039 2.038-1.129 0-2.039-.91-2.039-2.039zm0 0" fill="none" stroke-width=".12" stroke-linecap="round" stroke-linejoin="round" stroke="green" stroke-miterlimit="10"/><path d="M325.3 217.2c0-.528.458-.962 1.02-.962.563 0 1.02.434 1.02.961 0 .531-.457.961-1.02.961-.562 0-1.02-.43-1.02-.96" fill-rule="evenodd" fill="#fff"/><path d="M325.3 217.2c0-.528.458-.962 1.02-.962.563 0 1.02.434 1.02.961 0 .531-.457.961-1.02.961-.562 0-1.02-.43-1.02-.96zm0 0" fill="none" stroke-width=".06" stroke-linecap="square" stroke-linejoin="bevel" stroke="#000" stroke-miterlimit="10"/><path d="M295.54 217.2a2.04 2.04 0 0 1 4.081 0c0 1.128-.914 2.038-2.043 2.038-1.125 0-2.039-.91-2.039-2.039" fill-rule="evenodd" fill="green"/><path d="M295.54 217.2a2.04 2.04 0 0 1 4.081 0c0 1.128-.914 2.038-2.043 2.038-1.125 0-2.039-.91-2.039-2.039zm0 0" fill="none" stroke-width=".12" stroke-linecap="round" stroke-linejoin="round" stroke="green" stroke-miterlimit="10"/><path d="M296.559 217.2c0-.528.457-.962 1.02-.962.566 0 1.023.434 1.023.961 0 .531-.457.961-1.024.961-.562 0-1.02-.43-1.02-.96" fill-rule="evenodd" fill="#fff"/><path d="M296.559 217.2c0-.528.457-.962 1.02-.962.566 0 1.023.434 1.023.961 0 .531-.457.961-1.024.961-.562 0-1.02-.43-1.02-.96zm0 0" fill="none" stroke-width=".06" stroke-linecap="square" stroke-linejoin="bevel" stroke="#000" stroke-miterlimit="10"/><path d="M281.14 217.2a2.038 2.038 0 1 1 4.078 0 2.038 2.038 0 1 1-4.078 0" fill-rule="evenodd" fill="green"/><path d="M281.14 217.2a2.038 2.038 0 1 1 4.078 0 2.038 2.038 0 1 1-4.078 0zm0 0" fill="none" stroke-width=".12" stroke-linecap="round" stroke-linejoin="round" stroke="green" stroke-miterlimit="10"/><path d="M282.16 217.2c0-.528.457-.962 1.02-.962.562 0 1.02.434 1.02.961 0 .531-.458.961-1.02.961-.563 0-1.02-.43-1.02-.96" fill-rule="evenodd" fill="#fff"/><path d="M282.16 217.2c0-.528.457-.962 1.02-.962.562 0 1.02.434 1.02.961 0 .531-.458.961-1.02.961-.563 0-1.02-.43-1.02-.96zm0 0" fill="none" stroke-width=".06" stroke-linecap="square" stroke-linejoin="bevel" stroke="#000" stroke-miterlimit="10"/><path d="M288.34 217.2a2.04 2.04 0 0 1 4.082 0c0 1.128-.914 2.038-2.043 2.038-1.125 0-2.04-.91-2.04-2.039" fill-rule="evenodd" fill="green"/><path d="M288.34 217.2a2.04 2.04 0 0 1 4.082 0c0 1.128-.914 2.038-2.043 2.038-1.125 0-2.04-.91-2.04-2.039zm0 0" fill="none" stroke-width=".12" stroke-linecap="round" stroke-linejoin="round" stroke="green" stroke-miterlimit="10"/><path d="M289.36 217.2c0-.528.456-.962 1.019-.962.562 0 1.02.434 1.02.961 0 .531-.458.961-1.02.961-.563 0-1.02-.43-1.02-.96" fill-rule="evenodd" fill="#fff"/><path d="M289.36 217.2c0-.528.456-.962 1.019-.962.562 0 1.02.434 1.02.961 0 .531-.458.961-1.02.961-.563 0-1.02-.43-1.02-.96zm0 0" fill="none" stroke-width=".06" stroke-linecap="square" stroke-linejoin="bevel" stroke="#000" stroke-miterlimit="10"/><path d="M259.121 195.66a2.52 2.52 0 1 1 5.037.002 2.52 2.52 0 0 1-5.037-.002" fill-rule="evenodd" fill="green"/><path d="M259.121 195.66a2.52 2.52 0 1 1 5.037.002 2.52 2.52 0 0 1-5.037-.002zm0 0" fill="none" stroke-width=".12" stroke-linecap="round" stroke-linejoin="round" stroke="green" stroke-miterlimit="10"/><path d="M260.2 195.66a1.44 1.44 0 1 1 2.88-.002 1.44 1.44 0 0 1-2.88.002" fill-rule="evenodd" fill="#fff"/><path d="M260.2 195.66a1.44 1.44 0 1 1 2.88-.002 1.44 1.44 0 0 1-2.88.002zm0 0" fill="none" stroke-width=".06" stroke-linecap="square" stroke-linejoin="bevel" stroke="#000" stroke-miterlimit="10"/><path d="M259.121 202.8a2.516 2.516 0 0 1 2.52-2.519 2.52 2.52 0 1 1-2.52 2.52" fill-rule="evenodd" fill="green"/><path d="M259.121 202.8a2.516 2.516 0 0 1 2.52-2.519 2.52 2.52 0 1 1-2.52 2.52zm0 0" fill="none" stroke-width=".12" stroke-linecap="round" stroke-linejoin="round" stroke="green" stroke-miterlimit="10"/><path d="M260.2 202.8a1.44 1.44 0 1 1 2.88-.001 1.44 1.44 0 0 1-2.88.002" fill-rule="evenodd" fill="#fff"/><path d="M260.2 202.8a1.44 1.44 0 1 1 2.88-.001 1.44 1.44 0 0 1-2.88.002zm0 0" fill="none" stroke-width=".06" stroke-linecap="square" stroke-linejoin="bevel" stroke="#000" stroke-miterlimit="10"/><path d="M331 195.66a2.52 2.52 0 0 1 5.04 0 2.52 2.52 0 0 1-5.04 0" fill-rule="evenodd" fill="green"/><path d="M331 195.66a2.52 2.52 0 0 1 5.04 0 2.52 2.52 0 0 1-5.04 0zm0 0" fill="none" stroke-width=".12" stroke-linecap="round" stroke-linejoin="round" stroke="green" stroke-miterlimit="10"/><path d="M332.078 195.66c0-.797.649-1.441 1.442-1.441a1.44 1.44 0 1 1-1.442 1.441" fill-rule="evenodd" fill="#fff"/><path d="M332.078 195.66c0-.797.649-1.441 1.442-1.441a1.44 1.44 0 1 1-1.442 1.441zm0 0" fill="none" stroke-width=".06" stroke-linecap="square" stroke-linejoin="bevel" stroke="#000" stroke-miterlimit="10"/><path d="M331 202.8a2.518 2.518 0 0 1 2.52-2.519 2.52 2.52 0 1 1-2.52 2.52" fill-rule="evenodd" fill="green"/><path d="M331 202.8a2.518 2.518 0 0 1 2.52-2.519 2.52 2.52 0 1 1-2.52 2.52zm0 0" fill="none" stroke-width=".12" stroke-linecap="round" stroke-linejoin="round" stroke="green" stroke-miterlimit="10"/><path d="M332.078 202.8c0-.796.649-1.44 1.442-1.44a1.44 1.44 0 1 1-1.442 1.44" fill-rule="evenodd" fill="#fff"/><path d="M332.078 202.8c0-.796.649-1.44 1.442-1.44a1.44 1.44 0 1 1-1.442 1.44zm0 0" fill="none" stroke-width=".06" stroke-linecap="square" stroke-linejoin="bevel" stroke="#000" stroke-miterlimit="10"/><path d="M266.078 202.8c0-1.491 1.238-2.698 2.762-2.698 1.523 0 2.762 1.207 2.762 2.699 0 1.488-1.239 2.699-2.762 2.699-1.524 0-2.762-1.21-2.762-2.7" fill-rule="evenodd" fill="green"/><path d="M266.078 202.8c0-1.491 1.238-2.698 2.762-2.698 1.523 0 2.762 1.207 2.762 2.699 0 1.488-1.239 2.699-2.762 2.699-1.524 0-2.762-1.21-2.762-2.7zm0 0" fill="none" stroke-width=".12" stroke-linecap="round" stroke-linejoin="round" stroke="green" stroke-miterlimit="10"/><path d="M267.398 202.8c0-.796.649-1.44 1.442-1.44a1.44 1.44 0 1 1-1.442 1.44" fill-rule="evenodd" fill="#fff"/><path d="M267.398 202.8c0-.796.649-1.44 1.442-1.44a1.44 1.44 0 1 1-1.442 1.44zm0 0" fill="none" stroke-width=".06" stroke-linecap="square" stroke-linejoin="bevel" stroke="#000" stroke-miterlimit="10"/><path d="M280.422 195.66c0-1.492 1.234-2.7 2.758-2.7 1.523 0 2.761 1.208 2.761 2.7 0 1.492-1.238 2.7-2.761 2.7-1.524 0-2.758-1.208-2.758-2.7" fill-rule="evenodd" fill="green"/><path d="M280.422 195.66c0-1.492 1.234-2.7 2.758-2.7 1.523 0 2.761 1.208 2.761 2.7 0 1.492-1.238 2.7-2.761 2.7-1.524 0-2.758-1.208-2.758-2.7zm0 0" fill="none" stroke-width=".12" stroke-linecap="round" stroke-linejoin="round" stroke="green" stroke-miterlimit="10"/><path d="M281.738 195.66c0-.797.649-1.441 1.442-1.441a1.44 1.44 0 1 1-1.442 1.441" fill-rule="evenodd" fill="#fff"/><path d="M281.738 195.66c0-.797.649-1.441 1.442-1.441a1.44 1.44 0 1 1-1.442 1.441zm0 0" fill="none" stroke-width=".06" stroke-linecap="square" stroke-linejoin="bevel" stroke="#000" stroke-miterlimit="10"/><path d="M280.422 210c0-1.492 1.234-2.7 2.758-2.7 1.523 0 2.761 1.208 2.761 2.7 0 1.492-1.238 2.7-2.761 2.7-1.524 0-2.758-1.208-2.758-2.7" fill-rule="evenodd" fill="green"/><path d="M280.422 210c0-1.492 1.234-2.7 2.758-2.7 1.523 0 2.761 1.208 2.761 2.7 0 1.492-1.238 2.7-2.761 2.7-1.524 0-2.758-1.208-2.758-2.7zm0 0" fill="none" stroke-width=".12" stroke-linecap="round" stroke-linejoin="round" stroke="green" stroke-miterlimit="10"/><path d="M281.738 210c0-.797.649-1.441 1.442-1.441a1.44 1.44 0 1 1-1.442 1.441" fill-rule="evenodd" fill="#fff"/><path d="M281.738 210c0-.797.649-1.441 1.442-1.441a1.44 1.44 0 1 1-1.442 1.441zm0 0" fill="none" stroke-width=".06" stroke-linecap="square" stroke-linejoin="bevel" stroke="#000" stroke-miterlimit="10"/><path d="M327.82 208.559h-2.879v2.882h2.88zm0 0" fill="green" stroke-width=".12" stroke-linecap="round" stroke-linejoin="round" stroke="green" stroke-miterlimit="10"/><path d="M325.48 210c0-.465.375-.84.84-.84.465 0 .84.375.84.84 0 .465-.375.84-.84.84a.839.839 0 0 1-.84-.84" fill-rule="evenodd" fill="#fff"/><path d="M325.48 210c0-.465.375-.84.84-.84.465 0 .84.375.84.84 0 .465-.375.84-.84.84a.839.839 0 0 1-.84-.84zm0 0" fill="none" stroke-width=".06" stroke-linecap="square" stroke-linejoin="bevel" stroke="#000" stroke-miterlimit="10"/><path d="M326.379 217.2V210" fill="none" stroke-width=".12" stroke-linecap="round" stroke-linejoin="round" stroke="olive" stroke-miterlimit="10"/></svg>