<svg xmlns:xlink="http://www.w3.org/1999/xlink" width="842pt" height="595pt" viewBox="0 0 842 595"><defs><symbol overflow="visible" id="a"><path d="M2.031-.344h-1.5A.433.433 0 0 1 .578-.5c.02-.05.05-.098.094-.14a.688.688 0 0 1 .156-.141 2.3 2.3 0 0 1 .219-.156l.406-.22c.195-.1.344-.226.438-.374a.824.824 0 0 0 .156-.485.75.75 0 0 0-.078-.328.933.933 0 0 0-.188-.281.834.834 0 0 0-.281-.156 1.034 1.034 0 0 0-.36-.063 1.14 1.14 0 0 0-.484.094.726.726 0 0 0-.297.266 1.15 1.15 0 0 0-.156.438v.187h.36c0-.094.003-.172.015-.235a.456.456 0 0 1 .063-.172.397.397 0 0 1 .187-.187.613.613 0 0 1 .297-.078.48.48 0 0 1 .219.047.49.49 0 0 1 .297.265.487.487 0 0 1 .046.219c0 .23-.125.418-.375.563l-.375.203a2.966 2.966 0 0 0-.375.25 1.214 1.214 0 0 0-.25.265c-.054.094-.093.2-.124.313A1.57 1.57 0 0 0 .14 0h1.89zm0 0"/></symbol><symbol overflow="visible" id="b"><path d="M2.594-2.922h-.36v2.39l-1.53-2.39H.312V0h.343v-2.375L2.172 0h.422zm0 0"/></symbol><symbol overflow="visible" id="c"><path d="M.89-1.313h.188c.395 0 .594.172.594.516 0 .188-.055.336-.156.438-.106.093-.25.14-.438.14-.187 0-.336-.047-.437-.14C.547-.461.492-.617.484-.83H.125c.008.118.023.216.047.298.02.086.047.152.078.203A.69.69 0 0 0 .563 0c.132.063.3.094.5.094.144 0 .273-.024.39-.063a.863.863 0 0 0 .313-.172.846.846 0 0 0 .187-.28.907.907 0 0 0 .078-.376.658.658 0 0 0-.484-.672c.27-.101.406-.3.406-.593a1.124 1.124 0 0 0-.078-.329.54.54 0 0 0-.156-.234.659.659 0 0 0-.282-.156 1.034 1.034 0 0 0-.359-.063c-.293 0-.512.078-.656.235-.149.156-.227.386-.234.687h.359c0-.094.004-.164.015-.219a.427.427 0 0 1 .047-.14.422.422 0 0 1 .172-.188.68.68 0 0 1 .297-.062c.164 0 .29.043.375.125a.559.559 0 0 1 .14.36.572.572 0 0 1-.077.233.307.307 0 0 1-.157.141.88.88 0 0 1-.093.031.4.4 0 0 1-.125.032H.89zm0 0"/></symbol><symbol overflow="visible" id="d"><path d="M.219-.656c.031.242.113.43.25.562a.808.808 0 0 0 .547.188.787.787 0 0 0 .375-.078.901.901 0 0 0 .234-.157.81.81 0 0 0 .156-.172c.094-.132.16-.296.203-.484.04-.187.063-.406.063-.656a2.636 2.636 0 0 0-.063-.61 1.29 1.29 0 0 0-.078-.218 3.804 3.804 0 0 0-.11-.219.662.662 0 0 0-.296-.25.93.93 0 0 0-.422-.094.907.907 0 0 0-.375.078.71.71 0 0 0-.297.204.768.768 0 0 0-.187.296 1.08 1.08 0 0 0-.063.375c0 .137.02.262.063.375a.85.85 0 0 0 .172.282.742.742 0 0 0 .28.187.923.923 0 0 0 .36.063.771.771 0 0 0 .36-.079.867.867 0 0 0 .28-.234c0 .344-.058.61-.171.797-.105.188-.258.281-.453.281a.449.449 0 0 1-.313-.11C.648-.398.594-.507.563-.655zm.86-1.875a.539.539 0 0 1 .406.188c.05.054.093.12.124.202a.634.634 0 0 1 .047.25.57.57 0 0 1-.047.235.837.837 0 0 1-.125.203.606.606 0 0 1-.187.125.681.681 0 0 1-.234.031.539.539 0 0 1-.407-.156c-.094-.113-.14-.27-.14-.469 0-.082.007-.16.03-.234a.559.559 0 0 1 .126-.203.653.653 0 0 1 .172-.125.57.57 0 0 1 .234-.047zm0 0"/></symbol><symbol overflow="visible" id="e"><path d="M1.11-2.844a.907.907 0 0 0-.376.078.689.689 0 0 0-.28.235 1.39 1.39 0 0 0-.22.484 3.072 3.072 0 0 0-.062.672c0 .48.078.844.234 1.094.156.25.39.375.703.375.301 0 .532-.117.688-.36.156-.25.234-.613.234-1.093 0-.27-.027-.5-.078-.688a1.459 1.459 0 0 0-.187-.484.897.897 0 0 0-.297-.235.889.889 0 0 0-.36-.078zm0 .313c.374 0 .562.383.562 1.14 0 .407-.047.711-.14.907a.464.464 0 0 1-.438.28C.719-.203.53-.593.53-1.374c0-.383.047-.672.14-.86.095-.195.24-.296.438-.296zm0 0"/></symbol><symbol overflow="visible" id="f"><path d="M1.313-.688V0h.359v-.688h.422V-1h-.422v-1.844h-.266L.11-1.063v.375zm0-.312H.421l.89-1.25zm0 0"/></symbol><symbol overflow="visible" id="g"><path d="M.563-2.922h-.33V0h.329v-.813L.89-1.14 1.609 0h.407l-.86-1.375.735-.734h-.438l-.89.89zm0 0"/></symbol><symbol overflow="visible" id="h"><path d="M2.094-2.844H.188v.344h1.53a13.25 13.25 0 0 0-.437.672c-.125.21-.234.414-.328.61a7.452 7.452 0 0 0-.234.577A4.926 4.926 0 0 0 .563 0h.375c.03-.227.078-.445.14-.656a6.393 6.393 0 0 1 .578-1.266 5.9 5.9 0 0 1 .438-.625zm0 0"/></symbol><symbol overflow="visible" id="i"><path d="M.281-2.11V0h.344v-1.156c0-.102.008-.196.031-.282a.502.502 0 0 1 .297-.375.477.477 0 0 1 .235-.062.508.508 0 0 1 .312.125.38.38 0 0 1 .125.297V0h.328v-1.594a.598.598 0 0 0-.047-.234.404.404 0 0 0-.14-.172.485.485 0 0 0-.204-.11 1.235 1.235 0 0 0-.28-.062.725.725 0 0 0-.391.11.768.768 0 0 0-.297.312v-.36zm0 0"/></symbol><symbol overflow="visible" id="j"><path d="M2.844-1.547H1.625v.328h.89v.078a.907.907 0 0 1-.078.375.846.846 0 0 1-.187.282 1.2 1.2 0 0 1-.297.187.95.95 0 0 1-.36.063c-.148 0-.288-.024-.421-.078a.821.821 0 0 1-.313-.22.846.846 0 0 1-.14-.171 12.27 12.27 0 0 1-.094-.219 4.673 4.673 0 0 1-.063-.25 2.263 2.263 0 0 1-.015-.281c0-.176.02-.336.062-.484.051-.145.125-.27.22-.375a.973.973 0 0 1 .327-.235.93.93 0 0 1 .422-.094.99.99 0 0 1 .313.047.812.812 0 0 1 .296.156c.114.075.192.204.235.391h.39a1.28 1.28 0 0 0-.156-.39 1.155 1.155 0 0 0-.328-.344c-.156-.125-.406-.188-.75-.188-.355 0-.648.094-.875.281a1.11 1.11 0 0 0-.234.235 2.506 2.506 0 0 0-.203.39 1.726 1.726 0 0 0-.094.626c0 .23.031.437.094.625.07.187.164.351.28.484.114.137.255.242.423.312a1.38 1.38 0 0 0 1.078 0 1.71 1.71 0 0 0 .469-.359l.093.39h.235zm0 0"/></symbol><symbol overflow="visible" id="k"><path d="M.36 0h1.124c.188 0 .352-.031.5-.094.145-.07.27-.172.375-.297a1.31 1.31 0 0 0 .235-.453 2.38 2.38 0 0 0 .078-.625 2.15 2.15 0 0 0-.078-.593 1.32 1.32 0 0 0-.235-.47 1.011 1.011 0 0 0-.375-.28 1.147 1.147 0 0 0-.5-.11H.36zm.374-.328v-2.266h.688c.289 0 .508.102.656.297.145.188.223.469.235.844-.012.367-.09.648-.235.844-.148.187-.367.28-.656.28zm0 0"/></symbol><symbol overflow="visible" id="l"><path d="M.766-.422H.344V0h.422zm0 0"/></symbol><symbol overflow="visible" id="m"><path d="M1.047-2.031V0h.344v-2.844h-.235a2.245 2.245 0 0 1-.093.266.452.452 0 0 1-.329.25 1.688 1.688 0 0 1-.328.047v.25zm0 0"/></symbol><symbol overflow="visible" id="n"><path d="M1.578-1.5c.063-.04.117-.082.172-.125a.63.63 0 0 0 .125-.125.486.486 0 0 0 .063-.156c.007-.051.015-.114.015-.188a.702.702 0 0 0-.234-.531.675.675 0 0 0-.266-.156 1.002 1.002 0 0 0-.703 0 .624.624 0 0 0-.266.156.71.71 0 0 0-.234.531.85.85 0 0 0 .016.188.41.41 0 0 0 .062.156.54.54 0 0 0 .125.125c.05.043.113.086.188.125-.336.156-.496.39-.485.703 0 .137.02.262.063.375.039.106.101.2.187.281.094.075.196.133.313.172a1.187 1.187 0 0 0 .765 0 .863.863 0 0 0 .313-.172.846.846 0 0 0 .187-.28.875.875 0 0 0 .079-.36c0-.32-.165-.563-.485-.719zM1.11-2.531c.145 0 .258.043.344.125.094.086.14.195.14.328a.414.414 0 0 1-.14.328.505.505 0 0 1-.344.11.587.587 0 0 1-.375-.11.43.43 0 0 1-.125-.328c0-.133.04-.242.125-.328a.55.55 0 0 1 .375-.125zm0 1.187c.082 0 .16.016.235.047.07.024.133.059.187.11A.666.666 0 0 1 1.657-1a.57.57 0 0 1 0 .453.917.917 0 0 1-.172.219c-.074.074-.203.11-.39.11A.74.74 0 0 1 .859-.25a.527.527 0 0 1-.187-.125.587.587 0 0 1-.125-.172.74.74 0 0 1-.031-.234A.63.63 0 0 1 .546-1a.606.606 0 0 1 .126-.188.45.45 0 0 1 .187-.109.62.62 0 0 1 .25-.047zm0 0"/></symbol><symbol overflow="visible" id="o"><path d="M1.14-1.25H.189v.281h.953zm0 0"/></symbol><symbol overflow="visible" id="p"><path d="M.344-.422V0h.25v.078a.841.841 0 0 1-.016.156.261.261 0 0 1-.047.11.1.1 0 0 1-.062.062.237.237 0 0 1-.125.031v.157c.144 0 .25-.047.312-.14.07-.087.11-.216.11-.392v-.484zm0 0"/></symbol><symbol overflow="visible" id="q"><path d="M1.906-2.844H.438L.234-1.297h.329a.428.428 0 0 1 .109-.125.686.686 0 0 1 .25-.125.806.806 0 0 1 .156-.016.539.539 0 0 1 .438.188.626.626 0 0 1 .14.219.8.8 0 0 1 .047.281c0 .105-.016.2-.047.281a.99.99 0 0 1-.172.25c-.086.086-.218.125-.406.125a.587.587 0 0 1-.375-.11A.693.693 0 0 1 .5-.702H.14c.008.062.02.117.032.156.008.043.023.09.047.14.02.055.05.106.093.157.083.117.192.2.329.25.132.063.28.094.437.094a.968.968 0 0 0 .39-.078.702.702 0 0 0 .313-.204.844.844 0 0 0 .203-.328 1.06 1.06 0 0 0 0-.796.872.872 0 0 0-.187-.297.713.713 0 0 0-.281-.188.934.934 0 0 0-.375-.078c-.106 0-.2.016-.282.047a.716.716 0 0 0-.25.125L.734-2.5h1.172zm0 0"/></symbol><symbol overflow="visible" id="r"><path d="M1.906-.875L2.203 0h.422L1.594-2.922h-.485L.063 0h.406L.78-.875zm-.11-.313H.86l.485-1.343zm0 0"/></symbol><symbol overflow="visible" id="s"><path d="M2-2.11a.956.956 0 0 0-.11-.296.702.702 0 0 0-.171-.235.54.54 0 0 0-.235-.156.931.931 0 0 0-.734.063 1.124 1.124 0 0 0-.328.296 1.3 1.3 0 0 0-.172.422 3.131 3.131 0 0 0-.078.719c0 .117.004.227.016.328.007.106.019.2.03.281.02.086.048.165.079.235.031.062.066.125.11.187A.815.815 0 0 0 .703 0a.93.93 0 0 0 .422.094A.934.934 0 0 0 1.5.016a.803.803 0 0 0 .484-.484 1.03 1.03 0 0 0 .079-.391.823.823 0 0 0-.079-.36 1.056 1.056 0 0 0-.171-.297.713.713 0 0 0-.282-.187.978.978 0 0 0-.343-.063c-.282 0-.5.106-.657.313 0-.344.051-.61.156-.797a.535.535 0 0 1 .485-.281c.125 0 .226.039.312.11a.53.53 0 0 1 .157.312zm-.86.657c.176 0 .301.043.376.125a.77.77 0 0 1 .14.234.634.634 0 0 1 .047.25.62.62 0 0 1-.047.25.837.837 0 0 1-.125.203.606.606 0 0 1-.187.125.456.456 0 0 1-.203.047.57.57 0 0 1-.235-.047A.527.527 0 0 1 .72-.39a.731.731 0 0 1-.125-.203.971.971 0 0 1-.031-.265c0-.082.007-.16.03-.235a.584.584 0 0 1 .547-.36zm0 0"/></symbol><symbol overflow="visible" id="t"><path d="M1.938 0v-2.11h-.329v1.204a1.429 1.429 0 0 1-.062.297.577.577 0 0 1-.11.218.404.404 0 0 1-.171.141.598.598 0 0 1-.235.047.47.47 0 0 1-.328-.11.395.395 0 0 1-.11-.296v-1.5H.267v1.625c0 .093.015.18.046.25.032.062.07.12.126.172a.526.526 0 0 0 .218.109.786.786 0 0 0 .485.015.534.534 0 0 0 .17-.062.985.985 0 0 0 .172-.11c.051-.05.102-.113.157-.187V0zm0 0"/></symbol><symbol overflow="visible" id="u"><path d="M1.422-2.594h.953v-.328H.078v.328h.969V0h.375zm0 0"/></symbol><symbol overflow="visible" id="v"><path d="M.75-1.266h.953c.164 0 .285.043.36.125.082.086.124.22.124.407v.25c0 .093.004.183.016.265.02.086.04.157.063.219h.468v-.094a.21.21 0 0 1-.093-.078.575.575 0 0 1-.063-.11.995.995 0 0 1-.031-.156v-.25c0-.113-.008-.21-.016-.296a.566.566 0 0 0-.062-.204.34.34 0 0 0-.125-.14 1.076 1.076 0 0 0-.188-.11.945.945 0 0 0 .344-.28.787.787 0 0 0 .11-.423c0-.257-.079-.453-.235-.578-.148-.133-.367-.203-.656-.203H.375V0H.75zm0-.328v-1h.906c.094 0 .172.012.235.031.07.012.132.04.187.079.094.086.14.214.14.39 0 .18-.046.309-.14.39-.094.075-.234.11-.422.11zm0 0"/></symbol><symbol overflow="visible" id="w"><path d="M2.656-2.016c-.054-.32-.172-.562-.36-.718-.187-.157-.444-.235-.765-.235-.199 0-.375.031-.531.094-.156.063-.29.152-.39.266a1.472 1.472 0 0 0-.313.53c-.074.2-.11.419-.11.657 0 .242.036.461.11.656.07.2.18.371.328.516.102.117.227.2.375.25.156.063.328.094.516.094.707 0 1.109-.383 1.203-1.157h-.39a1.353 1.353 0 0 1-.126.454.613.613 0 0 1-.281.28.843.843 0 0 1-.406.095.884.884 0 0 1-.391-.078.915.915 0 0 1-.297-.25 1.147 1.147 0 0 1-.203-.375 1.768 1.768 0 0 1-.063-.5c0-.188.02-.352.063-.5a.997.997 0 0 1 .188-.375.885.885 0 0 1 .28-.235.792.792 0 0 1 .391-.094c.125 0 .235.016.329.047a.599.599 0 0 1 .375.313c.039.074.07.164.093.265zm0 0"/></symbol><symbol overflow="visible" id="D"><path d="M1.578 0l1.016-2.922h-.406L1.375-.453l-.86-2.469h-.39L1.172 0zm0 0"/></symbol><symbol overflow="visible" id="E"><path d="M2.14-1.078h-.828v-.828h-.28v.828h-.83v.281h.828v.844h.282v-.844h.828zm0 0"/></symbol><symbol overflow="visible" id="F"><path d="M2.219-2.922v2.047c0 .105-.024.2-.063.281a.666.666 0 0 1-.203.235c-.094.086-.262.125-.5.125a.873.873 0 0 1-.531-.157.422.422 0 0 1-.156-.187.83.83 0 0 1-.047-.297v-2.047H.344v2.047c0 .156.023.297.078.422.05.117.125.215.219.297a.98.98 0 0 0 .343.172c.145.05.301.078.47.078.175 0 .331-.028.468-.078A.853.853 0 0 0 2.5-.47a.832.832 0 0 0 .094-.406v-2.047zm0 0"/></symbol><symbol overflow="visible" id="G"><path d="M.781-2.922H.406V0h.375zm0 0"/></symbol><symbol overflow="visible" id="H"><path d="M1.563-2.969c-.211 0-.403.04-.579.11a1.34 1.34 0 0 0-.437.312 1.484 1.484 0 0 0-.297.485 1.98 1.98 0 0 0-.094.624c0 .231.032.438.094.625.07.188.172.352.297.485.125.137.27.242.437.312a1.615 1.615 0 0 0 1.078.031c.157-.05.29-.128.407-.234.082-.062.156-.133.219-.218a1.654 1.654 0 0 0 .25-.625c.03-.114.046-.235.046-.36a1.79 1.79 0 0 0-.109-.625 1.333 1.333 0 0 0-.281-.5 1.325 1.325 0 0 0-.453-.312 1.49 1.49 0 0 0-.579-.11zm0 .328a.93.93 0 0 1 .421.094.84.84 0 0 1 .329.235c.093.105.164.234.218.39.051.149.078.313.078.5 0 .18-.027.34-.078.484a1.105 1.105 0 0 1-.547.625 1.042 1.042 0 0 1-.421.079c-.157 0-.297-.024-.422-.078a1.078 1.078 0 0 1-.547-.625 1.866 1.866 0 0 1-.063-.5c0-.188.02-.352.063-.5.05-.145.117-.27.203-.375a.973.973 0 0 1 .328-.235 1.03 1.03 0 0 1 .438-.094zm0 0"/></symbol><symbol overflow="visible" id="I"><path d="M2.39-2.063c0-.289-.074-.492-.218-.609a1.25 1.25 0 0 0-.406-.234 1.608 1.608 0 0 0-.89 0 .78.78 0 0 0-.33.172.845.845 0 0 0-.202.265.95.95 0 0 0-.063.36c0 .355.192.578.578.671l.72.204c.187.043.32.105.405.187a.344.344 0 0 1 .141.281.477.477 0 0 1-.063.235.478.478 0 0 1-.156.172.515.515 0 0 1-.218.093c-.094.024-.2.032-.313.032a1.15 1.15 0 0 1-.406-.063.517.517 0 0 1-.266-.187.451.451 0 0 1-.125-.204.81.81 0 0 1-.031-.25h-.36c0 .137.016.258.047.36.032.094.07.18.125.25a.957.957 0 0 0 .407.312c.164.07.359.11.578.11.176 0 .332-.024.468-.063a.993.993 0 0 0 .36-.172.348.348 0 0 0 .125-.125c.039-.05.082-.117.125-.203.039-.094.066-.203.078-.328a.803.803 0 0 0-.172-.469.884.884 0 0 0-.453-.265l-.734-.203a1.647 1.647 0 0 1-.235-.063.587.587 0 0 1-.172-.125c-.054-.05-.078-.133-.078-.25a.37.37 0 0 1 .047-.187.443.443 0 0 1 .125-.157.604.604 0 0 1 .203-.109c.082-.02.176-.031.282-.031.226 0 .406.054.53.156.126.094.192.242.204.438zm0 0"/></symbol><symbol overflow="visible" id="J"><path d="M.734-1.234h.922a.99.99 0 0 0 .313-.047.774.774 0 0 0 .25-.172.648.648 0 0 0 .203-.25c.039-.102.062-.223.062-.36-.011-.28-.093-.492-.25-.64-.148-.145-.367-.219-.656-.219H.36V0h.375zm0-.344v-1.016h.782c.175 0 .312.047.406.14.101.087.16.212.172.376a.546.546 0 0 1-.172.375c-.094.086-.23.125-.406.125zm0 0"/></symbol><symbol overflow="visible" id="K"><path d="M.688-1.031l.484-.469L2.203 0h.438L1.437-1.734l1.188-1.188h-.469L.687-1.437v-1.485H.313V0h.376zm0 0"/></symbol><symbol overflow="visible" id="x"><path d="M-1.672-1.922c-.226 0-.39.059-.484.172a1.024 1.024 0 0 0-.188.328 1.272 1.272 0 0 0-.047.36c0 .125.016.242.047.343a.69.69 0 0 0 .14.266.508.508 0 0 0 .22.172c.086.043.18.062.28.062.294 0 .477-.156.548-.469L-1-1.28a.747.747 0 0 1 .156-.313.291.291 0 0 1 .219-.11c.074 0 .14.016.203.048.055.031.094.07.125.11a.53.53 0 0 1 .094.187c.012.074.016.156.016.25 0 .136-.016.25-.047.343a.405.405 0 0 1-.157.204.504.504 0 0 1-.359.125v.28c.105 0 .2-.007.281-.03a.493.493 0 0 0 .203-.11A.82.82 0 0 0 0-.609c.05-.133.078-.297.078-.485a1.45 1.45 0 0 0-.047-.375.732.732 0 0 0-.25-.39.914.914 0 0 0-.156-.094.916.916 0 0 0-.266-.063.687.687 0 0 0-.375.141.712.712 0 0 0-.218.375l-.157.578c-.02.074-.039.137-.062.188a.343.343 0 0 1-.094.14c-.039.043-.11.063-.203.063a.385.385 0 0 1-.156-.031.428.428 0 0 1-.125-.11.297.297 0 0 1-.078-.156.872.872 0 0 1-.032-.235.67.67 0 0 1 .125-.421.429.429 0 0 1 .344-.157zm0 0"/></symbol><symbol overflow="visible" id="y"><path d="M0-2.406L-2.36-3v.328l1.922.438-1.921.53v.329l1.921.531-1.921.438v.328L0-.672V-1l-1.938-.531L0-2.078zm0 0"/></symbol><symbol overflow="visible" id="z"><path d="M-1.64-.844H0v-.281h-2.297v.188a.817.817 0 0 1 .219.078.41.41 0 0 1 .125.109.541.541 0 0 1 .078.172c.012.062.023.148.031.25h.203zm0 0"/></symbol><symbol overflow="visible" id="A"><path d="M-.422-2.453v1.812a.66.66 0 0 1-.187-.046.985.985 0 0 1-.172-.11 1.001 1.001 0 0 1-.172-.187 1.918 1.918 0 0 1-.172-.282l-.266-.484a1.703 1.703 0 0 0-.453-.547 1.003 1.003 0 0 0-.593-.187.87.87 0 0 0-.391.093.961.961 0 0 0-.344.235 1 1 0 0 0-.203.344c-.04.125-.063.273-.063.437 0 .219.04.414.11.578A.897.897 0 0 0-3-.422a.81.81 0 0 0 .281.125c.086.024.164.04.235.047.074 0 .152.008.234.016v-.438a1.89 1.89 0 0 1-.281-.015.514.514 0 0 1-.203-.094.523.523 0 0 1-.235-.235.792.792 0 0 1-.11-.343.983.983 0 0 1 .063-.266.619.619 0 0 1 .141-.219.5.5 0 0 1 .203-.14.527.527 0 0 1 .25-.063c.274 0 .496.156.672.469l.25.453c.105.18.21.328.313.453.093.117.199.211.312.281.117.075.246.133.39.172.137.032.297.047.485.047v-2.281zm0 0"/></symbol><symbol overflow="visible" id="B"><path d="M1.078-1.578h.234c.47 0 .704.21.704.625 0 .219-.063.39-.188.515-.125.118-.297.172-.516.172-.242 0-.417-.054-.53-.171C.663-.564.597-.75.577-1H.156c.008.137.024.258.047.36a.61.61 0 0 0 .11.25.794.794 0 0 0 .374.374c.165.082.368.125.61.125.176 0 .332-.027.469-.078a.93.93 0 0 0 .375-.203.928.928 0 0 0 .234-.344 1.28 1.28 0 0 0 .078-.453.891.891 0 0 0-.14-.515c-.086-.133-.231-.235-.438-.297.32-.125.484-.364.484-.719a.968.968 0 0 0-.078-.39.763.763 0 0 0-.203-.297.973.973 0 0 0-.344-.188 1.408 1.408 0 0 0-.421-.063c-.356 0-.625.094-.813.282-.18.187-.266.465-.266.828h.422c0-.102.004-.188.016-.25a.56.56 0 0 1 .281-.406.992.992 0 0 1 .36-.094c.187.012.332.07.437.172a.55.55 0 0 1 .172.422.506.506 0 0 1-.078.296.406.406 0 0 1-.203.172.73.73 0 0 1-.11.032.64.64 0 0 1-.14.03 1.99 1.99 0 0 1-.313.016zm0 0"/></symbol><symbol overflow="visible" id="C"><path d="M1.25-2.453V0h.438v-3.438h-.282a2.98 2.98 0 0 1-.125.313.453.453 0 0 1-.14.203.939.939 0 0 1-.25.11 2.362 2.362 0 0 1-.391.046v.313zm0 0"/></symbol><symbol overflow="visible" id="L"><path d="M-1.078-2.14v.828h-.828v.28h.828v.829h.281v-.828h.844v-.282h-.844v-.828zm0 0"/></symbol></defs><path d="M266.64 196.262v-3.063m0 .001l1.56-1.5m0 0l1.5 1.5m0 0v3.062m-3.06-2.282h3.06m9.12-1.5l-.78-.78m0 0h-1.5m0 0l-.778.78m0 0v.72m0 0l.777.78m.001 0h1.5m0 0l.78.782m0 0v.718m0 0l-.78.782m0 0h-1.5m0 0l-.778-.782m4.558-2.28h.782m0 0v3.062m-.782 0h1.559m-.777-5.34v.777m2.277 4.563v-3.063m0 .001h.781m0 0l.719.78m0 0v2.282m0-2.282l.781-.78m0 0l.781.78m0 0v2.282m1.5 1.5v-4.563m0 .001h2.278m0 0l.781.78m0 0v1.5m0 0l-.781.782m0 0h-2.278m4.559-4.562h.781m0 0v4.562m-.781 0h1.5m3.84 0h-1.559m0 0l-.722-.782m0 0v-1.5m0 0l.722-.78m0 0h1.559m0 0l.719.78m0 0v.782m0 0h-3m9.121 1.5v-3.063m0 .001l1.5-1.5m0 0l1.5 1.5m0 0v3.062m-3-2.282h3m1.558-.78v2.28m0 0l.723.782m-.001 0h2.278m0 0v-3.063m4.562-1.499v4.562m0 0h-2.28m0 0l-.72-.782m0 0v-1.5m0 0l.72-.78m0 0h2.28m1.56 0h.718m0 0v3.062m-.718 0h1.5m-.782-5.34v.777m3.062 4.563h1.5m0 0l.782-.782m0 0v-1.5m0 0l-.781-.78m-.001 0h-1.5m0 0l-.78.78m0 0v1.5m0 0l.78.782m8.34 0v-3.063m0 .001l1.5-1.5m0 0l1.56 1.5m0 0v3.062m-3.06-2.282h3.06m1.5 2.282v-3.063m0 .001h.78m0 0l.72.78m0 0v2.282m0-2.282l.78-.78m0 0l.782.78m0 0v2.282m1.5 1.5v-4.563m0 .001h2.277m0 0l.781.78m0 0v1.5m0 0l-.781.782m0 0h-2.277m4.558-4.562h.781m0 0v4.562m-.781 0h1.5m1.559-3.062h.722m0 0v3.062m-.722 0h1.5m-.778-5.34v.777m3.059 4.563v-3.782m0 0l.781-.78m-1.562 2.28h1.562m1.5-.78h.778m0 0v3.062m-.778 0h1.5m-.722-5.34v.777m4.562 4.563h-1.562m0 0l-.72-.782m.001 0v-1.5m0 0l.719-.78m0 0h1.562m0 0l.719.78m0 0v.782m0 0h-3m4.558 1.5v-3.063m0 1.563l1.5-1.563m0 .001h.782m6.84 3.062v-3.782m0 0l.718-.78m-1.5 2.28h1.5m2.282 2.282h1.558m0 0l.723-.782m-.001 0v-1.5m0 0l-.722-.78m0 0h-1.558m0 0l-.72.78m0 0v1.5m0 0l.72.782m3.84 0v-3.063m0 1.563l1.5-1.563m0 .001h.78m6.06 0v2.28m0 0l.78.782m0 0h2.282m0-3.062v3.84m0 0l-.782.722m0 0h-.78m3.84-1.5h1.5m0 0l.78-.782m0 0v-1.5m0 0l-.78-.78m0 0h-1.5m0 0l-.778.78m0 0v1.5m0 0l.777.782m3.781-3.062v2.28m0 0l.782.782m0 0h2.277m0 0v-3.063m1.5 3.063v-3.063m0 1.563l1.5-1.563m0 .001h.781m6.059 3.062v-3.063m0 1.563l1.562-1.563m0 .001h.719m2.281 0h1.559m0 0l.719.78m0 0v2.282m0 0h-2.278m0 0l-.722-.782m0 0l.722-.718m0 0h2.278m4.562-3.062v4.562m0 0h-2.281m0 0l-.719-.782m0 0v-1.5m0 0l.719-.78m0 0h2.281m1.559 0h.718m0 0v3.062m-.718 0h1.5m-.782-5.34v.777m3.062 4.563h1.5m0 0l.778-.782m0 0v-1.5m0 0l-.777-.78m-.001 0h-1.5m0 0l-.78.78m0 0v1.5m0 0l.78.782m8.34 1.5v-4.563m0 .001h2.278m0 0l.781.78m.001 0v1.5m0 0l-.782.782m0 0h-2.277m4.559 0v-3.063m0 1.563l1.5-1.563m0 .001h.78m2.282 3.062h1.5m0 0l.777-.782m.001 0v-1.5m0 0l-.778-.78m0 0h-1.5m0 0l-.781.78m-.001 0v1.5m0 0l.782.782m3.778 1.5h.78m0 0l.782-.723m0 .001v-3.84m0-2.278v.777m3.778 4.563h-1.5m0 0l-.778-.782m0 0v-1.5m0 0l.777-.78m.001 0h1.5m0 0l.78.78m0 0v.782m0 0h-3.058m7.617-1.562h-2.277m0 0l-.782.78m0 0v1.5m0 0l.782.782m0 0h2.277m2.281-3.782v3m0 0l.719.782m-1.5-3.062h1.5m1.562 3.062h2.278m0 0l.722-.782m0 0l-.722-.718m0 0h-1.559m0 0l-.719-.782m0 0l.72-.78m-.001 0h2.281M266.64 203.7v-4.56m0 0l3.06 4.56m0 0v-4.56m2.28 4.56h1.5m0 0l.782-.778m0 0v-1.5m0 0l-.782-.781m0-.001h-1.5m0 0l-.78.782m0 0v1.5m0 0l.78.777m3.782-3.059l1.558 3.06m0 0l1.5-3.06m1.5 3.06v-.778m0 0h.782m0 0v.777m0 .001h-.782m9.899 0h-3.059m0 0l3.059-3.06m0 0v-.78m0 0l-.778-.72m0 0h-1.5m0 0l-.78.72m4.558 0l.781-.72m0 0h1.5m0 0l.781.72m0 0v.78m0 0l-.781.782m0 0h-.719m.719 0l.781.719m0-.001v.782m0 0l-.781.777m0 .001h-1.5m0 0l-.781-.778m4.562 2.278l1.559-1.5m0 0v-.778m0 0h-.781m0 0v.777m0 .001h.78m9.059 0h-3m0 0l3-3.06m0 0v-.78m0 0l-.718-.72m0 0h-1.5m0 0l-.782.72m4.562 3.062v-3.063m0 .001l.778-.72m0 0h1.5m0 0l.723.72m-.001 0v3.062m0 0l-.722.777m0 .001h-1.5m0 0l-.777-.778m-.001 0l3-3.063m1.56 3.063v-3.063m0 .001l.718-.72m0 0h1.563m-.001 0l.72.72m0 0v3.062m0 0l-.72.777m0 .001h-1.562m0 0l-.718-.778m0 0l3-3.063m3.84 3.841v-4.56m0 0l-2.282 2.282m0 0h3m6.122-2.282v4.56m0 0h2.28m0 0l.72-.778m0 0v-1.5m0 0l-.72-.781m0-.001h-2.28m4.562 0v2.282m0 0l.718.777m0 .001h2.282m0-3.06v3.782m0 0l-.723.777m.001.001h-.778m7.617-1.5v-4.56m0 0h2.281m0 0l.719.72m0 0v1.562m0 0l-.719.719m0-.001h-2.281m1.5 0l1.5 1.56m1.562-3.06h.72m-.001 0v3.06m-.719 0h1.5m-.781-5.34v.78m5.34 1.5h-2.281m0 0l-.778.782m0 0v1.5m0 0l.778.777m0 .001H351m1.5 0v-4.56m2.281 4.56l-2.281-1.56m0 0l2.281-1.5m6.117 3.06v-3.06m0 0l1.5-1.5m0 0l1.5 1.5m0 0v3.06m-3-2.278h3m1.562 2.278v-3.06m0 0h2.278m0 0l.723.782m-.001 0v2.277m4.56-4.559v4.56m0 0h-2.282m0 0l-.718-.778m0 0v-1.5m0 0l.718-.781m0-.001h2.282m3.84 3.06h-1.56m0 0l-.722-.778m0 0v-1.5m0 0l.723-.781m-.001-.001h1.56m0 0l.718.782m0 0v.719m0-.001h-3m4.562 1.56v-3.06m0 1.5l1.5-1.5m0 0h.782m1.5 3.06h2.277m.001 0l.78-.778m0 0l-.78-.781m0-.001h-1.5m0 0l-.778-.718m0 0l.777-.781m.001-.001h2.28m3.782 3.06h-1.5m0 0l-.782-.778m0 0v-1.5m0 0l.782-.781m0-.001h1.5m0 0l.777.782m.001 0v.719m0-.001h-3.06m4.56 1.56v-3.06m0 0h2.28m0 0l.782.782m0 0v2.277M266.64 213.96v4.56m0-2.282l.782-.718m0 0h1.5m0 0l.777.718m.001 0v2.282m2.28-3.782v3.063m0-.001l.782.72m-1.562-3h1.562m2.278-.782v3.063m0-.001l.722.72m-1.5-3h1.5m1.558 4.558v-4.558m0 0h2.282m0 0l.718.718m0 0v1.563m0-.001l-.718.72m0 0h-2.282m4.559-3h.723m0 0v.718m0 0h-.723m0 0v-.718m0 2.28h.723m0 0v.72m0 0h-.723m0 0v-.72m2.281.72l3-4.56m1.559 4.56l3-4.56m1.562 1.56v2.28m0 0l.719.72m0 0l.781-.72m0 0l.778.72m0 0l.722-.72m0 0v-2.28m1.559 0v2.28m0 0l.719.72m0 0l.78-.72m.001 0l.719.72m0 0l.78-.72m.001 0v-2.28m1.558 0v2.28m0 0l.723.72m0 0l.777-.72m0 0l.723.72m0 0l.777-.72m0 0v-2.28m1.562 3v-.72m0 0h.72m0 0v.72m0 0h-.72m2.278 0v-4.56m2.222 4.56l-2.222-1.5m0 0l2.223-1.5m3.839 3h-1.562m0 0l-.718-.72m0 0v-1.562m0 0l.718-.718m0 0h1.563m-.001 0l.72.718m0 0v.782m0 0h-3m4.558-2.282l.723-.777m-.001-.001h1.56m0 0l.718.778m0 0v.782m0 0l-.719.718m.001 0h-.782m.782 0l.718.782m0 0v.78m0 0l-.719.72m.001 0h-1.56m0 0l-.722-.72m4.562-2.28h.72m0 0v3m-.72 0h1.5m-.78-5.282v.723m2.28 6.117h.782m0 0l.777-.777m.001-.001v-3.78m0-2.282v.723m1.5 4.559v-.72m0 0h.78m0 0v.72m0 0h-.78m5.34-3h-2.278m0 0l-.782.718m0 0v1.563m0-.001l.782.72m0 0h2.277m2.281 0h1.5m0 0l.782-.72m0 0v-1.562m0 0l-.782-.718m0 0h-1.5m0 0l-.78.718m0 0v1.563m0-.001l.78.72m3.782 0v-3m0 0h.777m0 0l.723.718m0 0v2.282m0-2.282l.777-.718m0 0l.781.718m0 0v2.282m1.5 0l3.059-4.56m2.281 1.56h1.5m0 0l.781.718m0 0v2.282m0 0H349.5m0 0l-.781-.72m0 0l.781-.78m0 0h2.281m1.5 1.5v-3m0 0h.778m0 0l.722.718m0 0v2.282m0-2.282l.778-.718m0 0l.78.718m.001 0v2.282m1.5 1.558v-4.558m0 0h2.281m0 0l.777.718m0 0v1.563m0-.001l-.777.72m0 0h-2.281m4.558 0v-.72m0 0h.782m0 0v.72m0 0h-.782m2.282-4.56v4.56m0-2.282l.78-.718m0 0h1.5m0 0l.778.718m0 0v2.282m2.282-3.782v3.063m0-.001l.718.72m-1.5-3h1.5m1.562 3v-3m0 0h.72m0 0l.78.718m0 0v2.282m0-2.282l.778-.718m0 0l.723.718m-.001 0v2.282" fill="none" stroke-width=".42" stroke-linecap="round" stroke-linejoin="round" stroke="gray" stroke-miterlimit="10"/><use xlink:href="#a" x="344.759" y="379.934" fill="gray"/><use xlink:href="#b" x="346.979" y="379.934" fill="gray"/><use xlink:href="#c" x="349.859" y="379.934" fill="gray"/><use xlink:href="#d" x="352.079" y="379.934" fill="gray"/><use xlink:href="#e" x="354.299" y="379.934" fill="gray"/><use xlink:href="#f" x="356.519" y="379.934" fill="gray"/><use xlink:href="#c" x="319.652" y="352.588" fill="gray"/><use xlink:href="#d" x="321.872" y="352.588" fill="gray"/><use xlink:href="#e" x="324.092" y="352.588" fill="gray"/><use xlink:href="#g" x="326.312" y="352.588" fill="gray"/><use xlink:href="#f" x="290.805" y="377.92" fill="gray"/><use xlink:href="#h" x="293.025" y="377.92" fill="gray"/><use xlink:href="#e" x="295.245" y="377.92" fill="gray"/><use xlink:href="#i" x="297.465" y="377.92" fill="gray"/><use xlink:href="#j" x="336.865" y="398.358" fill="gray"/><use xlink:href="#b" x="339.985" y="398.358" fill="gray"/><use xlink:href="#k" x="342.865" y="398.358" fill="gray"/><use xlink:href="#a" x="402.334" y="362.663" fill="gray"/><use xlink:href="#b" x="404.554" y="362.663" fill="gray"/><use xlink:href="#c" x="407.434" y="362.663" fill="gray"/><use xlink:href="#d" x="409.654" y="362.663" fill="gray"/><use xlink:href="#e" x="411.874" y="362.663" fill="gray"/><use xlink:href="#f" x="414.094" y="362.663" fill="gray"/><use xlink:href="#c" x="377.227" y="335.317" fill="gray"/><use xlink:href="#d" x="379.447" y="335.317" fill="gray"/><use xlink:href="#e" x="381.667" y="335.317" fill="gray"/><use xlink:href="#g" x="383.887" y="335.317" fill="gray"/><use xlink:href="#f" x="348.38" y="360.649" fill="gray"/><use xlink:href="#h" x="350.6" y="360.649" fill="gray"/><use xlink:href="#e" x="352.82" y="360.649" fill="gray"/><use xlink:href="#i" x="355.039" y="360.649" fill="gray"/><use xlink:href="#j" x="394.44" y="398.358" fill="gray"/><use xlink:href="#b" x="397.559" y="398.358" fill="gray"/><use xlink:href="#k" x="400.439" y="398.358" fill="gray"/><use xlink:href="#a" x="471.424" y="345.391" fill="gray"/><use xlink:href="#b" x="473.644" y="345.391" fill="gray"/><use xlink:href="#c" x="476.524" y="345.391" fill="gray"/><use xlink:href="#d" x="478.744" y="345.391" fill="gray"/><use xlink:href="#e" x="480.964" y="345.391" fill="gray"/><use xlink:href="#f" x="483.184" y="345.391" fill="gray"/><use xlink:href="#c" x="480.862" y="295.017" fill="gray"/><use xlink:href="#d" x="483.082" y="295.017" fill="gray"/><use xlink:href="#e" x="485.302" y="295.017" fill="gray"/><use xlink:href="#g" x="487.522" y="295.017" fill="gray"/><use xlink:href="#f" x="405.954" y="343.378" fill="gray"/><use xlink:href="#h" x="408.174" y="343.378" fill="gray"/><use xlink:href="#e" x="410.395" y="343.378" fill="gray"/><use xlink:href="#i" x="412.615" y="343.378" fill="gray"/><use xlink:href="#j" x="463.529" y="398.358" fill="gray"/><use xlink:href="#b" x="466.649" y="398.358" fill="gray"/><use xlink:href="#k" x="469.529" y="398.358" fill="gray"/><use xlink:href="#a" x="430.184" y="335.317" fill="gray"/><use xlink:href="#h" x="432.404" y="335.317" fill="gray"/><use xlink:href="#g" x="434.624" y="335.317" fill="gray"/><use xlink:href="#f" x="355.699" y="305.093" fill="gray"/><use xlink:href="#l" x="357.918" y="305.093" fill="gray"/><use xlink:href="#h" x="359.058" y="305.093" fill="gray"/><use xlink:href="#g" x="361.279" y="305.093" fill="gray"/><use xlink:href="#m" x="320.251" y="305.093" fill="gray"/><use xlink:href="#e" x="322.471" y="305.093" fill="gray"/><use xlink:href="#i" x="324.691" y="305.093" fill="gray"/><use xlink:href="#f" x="413.273" y="287.822" fill="gray"/><use xlink:href="#l" x="415.493" y="287.822" fill="gray"/><use xlink:href="#h" x="416.633" y="287.822" fill="gray"/><use xlink:href="#g" x="418.853" y="287.822" fill="gray"/><use xlink:href="#m" x="377.826" y="287.822" fill="gray"/><use xlink:href="#e" x="380.046" y="287.822" fill="gray"/><use xlink:href="#i" x="382.266" y="287.822" fill="gray"/><use xlink:href="#m" x="473.727" y="302.79" fill="gray"/><use xlink:href="#b" x="475.947" y="302.79" fill="gray"/><use xlink:href="#f" x="478.827" y="302.79" fill="gray"/><use xlink:href="#m" x="481.047" y="302.79" fill="gray"/><use xlink:href="#f" x="483.267" y="302.79" fill="gray"/><use xlink:href="#n" x="485.487" y="302.79" fill="gray"/><use xlink:href="#c" x="487.707" y="302.79" fill="gray"/><use xlink:href="#f" x="489.927" y="302.79" fill="gray"/><use xlink:href="#o" x="492.147" y="302.79" fill="gray"/><use xlink:href="#a" x="493.467" y="302.79" fill="gray"/><use xlink:href="#p" x="495.687" y="302.79" fill="gray"/><use xlink:href="#q" x="496.827" y="302.79" fill="gray"/><use xlink:href="#o" x="499.047" y="302.79" fill="gray"/><use xlink:href="#r" x="500.367" y="302.79" fill="gray"/><use xlink:href="#a" x="505.968" y="282.063" fill="gray"/><use xlink:href="#b" x="508.189" y="282.063" fill="gray"/><use xlink:href="#c" x="511.069" y="282.063" fill="gray"/><use xlink:href="#d" x="513.289" y="282.063" fill="gray"/><use xlink:href="#e" x="515.509" y="282.063" fill="gray"/><use xlink:href="#f" x="517.729" y="282.063" fill="gray"/><use xlink:href="#a" x="505.393" y="325.243" fill="gray"/><use xlink:href="#b" x="507.613" y="325.243" fill="gray"/><use xlink:href="#c" x="510.493" y="325.243" fill="gray"/><use xlink:href="#d" x="512.713" y="325.243" fill="gray"/><use xlink:href="#e" x="514.933" y="325.243" fill="gray"/><use xlink:href="#s" x="517.153" y="325.243" fill="gray"/><use xlink:href="#j" x="498.074" y="398.358" fill="gray"/><use xlink:href="#b" x="501.194" y="398.358" fill="gray"/><use xlink:href="#k" x="504.074" y="398.358" fill="gray"/><use xlink:href="#a" x="457.47" y="259.036" fill="gray"/><use xlink:href="#l" x="459.691" y="259.036" fill="gray"/><use xlink:href="#a" x="460.831" y="259.036" fill="gray"/><use xlink:href="#g" x="463.051" y="259.036" fill="gray"/><use xlink:href="#m" x="289.902" y="253.279" fill="gray"/><use xlink:href="#e" x="292.122" y="253.279" fill="gray"/><use xlink:href="#e" x="294.342" y="253.279" fill="gray"/><use xlink:href="#e" x="296.563" y="253.279" fill="gray"/><use xlink:href="#t" x="298.782" y="253.279" fill="gray"/><use xlink:href="#j" x="302.32" y="271.702" fill="gray"/><use xlink:href="#b" x="305.44" y="271.702" fill="gray"/><use xlink:href="#k" x="308.32" y="271.702" fill="gray"/><use xlink:href="#m" x="366.732" y="237.446" fill="gray"/><use xlink:href="#e" x="368.952" y="237.446" fill="gray"/><use xlink:href="#e" x="371.172" y="237.446" fill="gray"/><use xlink:href="#j" x="544.134" y="398.358" fill="gray"/><use xlink:href="#b" x="547.254" y="398.358" fill="gray"/><use xlink:href="#k" x="550.134" y="398.358" fill="gray"/><use xlink:href="#j" x="290.805" y="404.115" fill="gray"/><use xlink:href="#b" x="293.925" y="404.115" fill="gray"/><use xlink:href="#k" x="296.805" y="404.115" fill="gray"/><use xlink:href="#f" x="526.862" y="302.214" fill="gray"/><use xlink:href="#h" x="529.082" y="302.214" fill="gray"/><use xlink:href="#e" x="531.302" y="302.214" fill="gray"/><use xlink:href="#t" x="533.522" y="302.214" fill="gray"/><use xlink:href="#j" x="544.135" y="329.273" fill="gray"/><use xlink:href="#b" x="547.255" y="329.273" fill="gray"/><use xlink:href="#k" x="550.135" y="329.273" fill="gray"/><use xlink:href="#u" x="327.414" y="362.662" fill="gray"/><use xlink:href="#m" x="329.874" y="362.662" fill="gray"/><use xlink:href="#v" x="321.513" y="347.752" fill="gray"/><use xlink:href="#m" x="324.393" y="347.752" fill="gray"/><use xlink:href="#w" x="292.666" y="362.662" fill="gray"/><use xlink:href="#m" x="295.546" y="362.662" fill="gray"/><use xlink:href="#u" x="384.988" y="345.391" fill="gray"/><use xlink:href="#a" x="387.449" y="345.391" fill="gray"/><use xlink:href="#v" x="379.088" y="330.48" fill="gray"/><use xlink:href="#a" x="381.968" y="330.48" fill="gray"/><use xlink:href="#w" x="350.24" y="345.391" fill="gray"/><use xlink:href="#a" x="353.12" y="345.391" fill="gray"/><use xlink:href="#u" x="454.078" y="328.119" fill="gray"/><use xlink:href="#c" x="456.538" y="328.119" fill="gray"/><use xlink:href="#v" x="482.722" y="290.18" fill="gray"/><use xlink:href="#c" x="485.603" y="290.18" fill="gray"/><use xlink:href="#w" x="407.815" y="328.119" fill="gray"/><use xlink:href="#c" x="410.696" y="328.119" fill="gray"/><use xlink:href="#v" x="430.905" y="330.48" fill="gray"/><use xlink:href="#f" x="433.785" y="330.48" fill="gray"/><use xlink:href="#v" x="355.699" y="296.455" fill="gray"/><use xlink:href="#q" x="358.579" y="296.455" fill="gray"/><use xlink:href="#w" x="321.812" y="296.455" fill="gray"/><use xlink:href="#f" x="324.692" y="296.455" fill="gray"/><use xlink:href="#v" x="413.274" y="279.184" fill="gray"/><use xlink:href="#s" x="416.154" y="279.184" fill="gray"/><use xlink:href="#w" x="379.387" y="279.184" fill="gray"/><use xlink:href="#q" x="382.267" y="279.184" fill="gray"/><use xlink:href="#k" x="473.727" y="307.971" fill="gray"/><use xlink:href="#m" x="476.608" y="307.971" fill="gray"/><use xlink:href="#k" x="473.727" y="284.942" fill="gray"/><use xlink:href="#a" x="476.608" y="284.942" fill="gray"/><use xlink:href="#u" x="488.623" y="264.791" fill="gray"/><use xlink:href="#f" x="491.083" y="264.791" fill="gray"/><use xlink:href="#u" x="505.393" y="310.848" fill="gray"/><use xlink:href="#q" x="507.854" y="310.848" fill="gray"/><use xlink:href="#v" x="459.991" y="250.399" fill="gray"/><use xlink:href="#h" x="462.871" y="250.399" fill="gray"/><use xlink:href="#w" x="295.903" y="244.641" fill="gray"/><use xlink:href="#s" x="298.784" y="244.641" fill="gray"/><use xlink:href="#v" x="367.573" y="232.609" fill="gray"/><use xlink:href="#n" x="370.453" y="232.609" fill="gray"/><use xlink:href="#x" x="543.945" y="245.244" fill="gray"/><use xlink:href="#y" x="543.945" y="243.084" fill="gray"/><use xlink:href="#z" x="543.945" y="240.024" fill="gray"/><use xlink:href="#A" x="524.738" y="251.027" fill="gray"/><use xlink:href="#B" x="516.28" y="235.201" fill="gray"/><use xlink:href="#C" x="532.107" y="235.201" fill="gray"/><use xlink:href="#D" x="574.482" y="237.447" fill="gray"/><use xlink:href="#E" x="577.182" y="237.447" fill="gray"/><use xlink:href="#D" x="574.482" y="381.375" fill="gray"/><use xlink:href="#o" x="577.182" y="381.375" fill="gray"/><use xlink:href="#r" x="255.296" y="387.132" fill="gray"/><use xlink:href="#F" x="257.996" y="387.132" fill="gray"/><use xlink:href="#k" x="260.876" y="387.132" fill="gray"/><use xlink:href="#G" x="263.756" y="387.132" fill="gray"/><use xlink:href="#H" x="264.896" y="387.132" fill="gray"/><use xlink:href="#o" x="268.016" y="387.132" fill="gray"/><use xlink:href="#r" x="254.276" y="369.861" fill="gray"/><use xlink:href="#F" x="256.976" y="369.861" fill="gray"/><use xlink:href="#k" x="259.856" y="369.861" fill="gray"/><use xlink:href="#G" x="262.736" y="369.861" fill="gray"/><use xlink:href="#H" x="263.876" y="369.861" fill="gray"/><use xlink:href="#E" x="266.996" y="369.861" fill="gray"/><use xlink:href="#w" x="528.721" y="287.821" fill="gray"/><use xlink:href="#h" x="531.601" y="287.821" fill="gray"/><use xlink:href="#I" x="574.482" y="312.29" fill="gray"/><use xlink:href="#J" x="577.182" y="312.29" fill="gray"/><use xlink:href="#K" x="579.882" y="312.29" fill="gray"/><use xlink:href="#v" x="582.582" y="312.29" fill="gray"/><use xlink:href="#o" x="585.462" y="312.29" fill="gray"/><use xlink:href="#I" x="574.482" y="295.018" fill="gray"/><use xlink:href="#J" x="577.182" y="295.018" fill="gray"/><use xlink:href="#K" x="579.882" y="295.018" fill="gray"/><use xlink:href="#v" x="582.582" y="295.018" fill="gray"/><use xlink:href="#E" x="585.462" y="295.018" fill="gray"/><path d="M341.281 362.64l-5.582 2.82m3.18 6.06l1.14 1.98m.001 0l-2.34.3m0 0l1.199-2.28m2.402 2.64l-1.261-.66m0 0l-3.782-1.86" fill="none" stroke-width=".36" stroke-linecap="round" stroke-linejoin="round" stroke="maroon" stroke-miterlimit="10"/><path d="M338.281 373.5l1.32-.121m.001 0l-.723-1.258" fill="none" stroke-width=".72" stroke-linecap="round" stroke-linejoin="round" stroke="maroon" stroke-miterlimit="10"/><path d="M338.879 372.121l-.598 1.14m0 .001h.84m0 0l-.242-.602" fill="none" stroke-width=".6" stroke-linecap="round" stroke-linejoin="round" stroke="maroon" stroke-miterlimit="10"/><path d="M334.441 374.16h1.68v-11.52h-1.68zm0 0" fill="maroon" stroke-width=".12" stroke-linecap="round" stroke-linejoin="round" stroke="maroon" stroke-miterlimit="10"/><path d="M329.762 368.398h5.758m5.761 11.524v-5.762m0-17.281v5.762" fill="none" stroke-width=".36" stroke-linecap="round" stroke-linejoin="round" stroke="maroon" stroke-miterlimit="10"/><path d="M346.559 368.398a8.161 8.161 0 0 1-16.32 0 8.164 8.164 0 0 1 8.16-8.16 8.161 8.161 0 0 1 8.16 8.16zm0 0" fill="none" stroke-width=".9" stroke-linecap="round" stroke-linejoin="round" stroke="maroon" stroke-miterlimit="10"/><path d="M335.52 351.121h-5.758m-17.222 0h5.76" fill="none" stroke-width=".36" stroke-linecap="round" stroke-linejoin="round" stroke="maroon" stroke-miterlimit="10"/><path d="M318.3 353.16h11.462m0-4.02H318.3m11.462 4.02v-4.02m-11.462 4.02v-4.02" fill="none" stroke-width=".6" stroke-linecap="round" stroke-linejoin="round" stroke="maroon" stroke-miterlimit="10"/><path d="M301.02 368.398H297m-7.5 0h4.02" fill="none" stroke-width=".36" stroke-linecap="round" stroke-linejoin="round" stroke="maroon" stroke-miterlimit="10"/><path d="M295.8 372.422h1.2v-8.043h-1.2zm-2.28 0h1.199v-8.043h-1.2zm0 0" fill="maroon" stroke-width=".12" stroke-linecap="round" stroke-linejoin="round" stroke="maroon" stroke-miterlimit="10"/><path d="M337.559 391.441h7.5" fill="none" stroke-width=".6" stroke-linecap="round" stroke-linejoin="round" stroke="maroon" stroke-miterlimit="10"/><path d="M341.281 385.68v5.761" fill="none" stroke-width=".36" stroke-linecap="round" stroke-linejoin="round" stroke="maroon" stroke-miterlimit="10"/><path d="M339 392.578h4.621m-3.18 1.203h1.739" fill="none" stroke-width=".6" stroke-linecap="round" stroke-linejoin="round" stroke="maroon" stroke-miterlimit="10"/><path d="M398.879 345.422l-5.64 2.758m3.183 6.058l1.137 2.043m0 0l-2.278.239m0 0l1.14-2.282m2.458 2.641l-1.32-.598m0 0l-3.72-1.922" fill="none" stroke-width=".36" stroke-linecap="round" stroke-linejoin="round" stroke="maroon" stroke-miterlimit="10"/><path d="M395.879 356.281l1.262-.18m-.001.001l-.718-1.262" fill="none" stroke-width=".72" stroke-linecap="round" stroke-linejoin="round" stroke="maroon" stroke-miterlimit="10"/><path d="M396.422 354.84l-.543 1.14m0 0h.84m0 0l-.297-.601" fill="none" stroke-width=".6" stroke-linecap="round" stroke-linejoin="round" stroke="maroon" stroke-miterlimit="10"/><path d="M391.98 356.879h1.68v-11.52h-1.68zm0 0" fill="maroon" stroke-width=".12" stroke-linecap="round" stroke-linejoin="round" stroke="maroon" stroke-miterlimit="10"/><path d="M387.36 351.121h5.761m5.758 11.519v-5.761m0-17.219v5.762" fill="none" stroke-width=".36" stroke-linecap="round" stroke-linejoin="round" stroke="maroon" stroke-miterlimit="10"/><path d="M404.16 351.121a8.159 8.159 0 0 1-8.16 8.16 8.159 8.159 0 0 1-8.16-8.16 8.159 8.159 0 0 1 8.16-8.16 8.159 8.159 0 0 1 8.16 8.16zm0 0" fill="none" stroke-width=".9" stroke-linecap="round" stroke-linejoin="round" stroke="maroon" stroke-miterlimit="10"/><path d="M393.121 333.898h-5.762m-17.281 0h5.762" fill="none" stroke-width=".36" stroke-linecap="round" stroke-linejoin="round" stroke="maroon" stroke-miterlimit="10"/><path d="M375.84 335.879h11.52m0-4.019h-11.52m11.52 4.019v-4.02m-11.52 4.02v-4.02" fill="none" stroke-width=".6" stroke-linecap="round" stroke-linejoin="round" stroke="maroon" stroke-miterlimit="10"/><path d="M358.559 351.121h-4.02m-7.499 0h4.081" fill="none" stroke-width=".36" stroke-linecap="round" stroke-linejoin="round" stroke="maroon" stroke-miterlimit="10"/><path d="M353.398 355.14h1.204v-8.038h-1.204zm-2.339 0h1.203v-8.038h-1.203zm0 0" fill="maroon" stroke-width=".12" stroke-linecap="round" stroke-linejoin="round" stroke="maroon" stroke-miterlimit="10"/><path d="M395.16 391.441h7.442" fill="none" stroke-width=".6" stroke-linecap="round" stroke-linejoin="round" stroke="maroon" stroke-miterlimit="10"/><path d="M398.879 385.68v5.761" fill="none" stroke-width=".36" stroke-linecap="round" stroke-linejoin="round" stroke="maroon" stroke-miterlimit="10"/><path d="M396.602 392.578h4.558m-3.12 1.203h1.679" fill="none" stroke-width=".6" stroke-linecap="round" stroke-linejoin="round" stroke="maroon" stroke-miterlimit="10"/><path d="M467.941 328.14l-5.582 2.758m3.181 6.062l1.14 2.04m0 0l-2.282.3m0 0l1.141-2.34m2.402 2.7l-1.261-.66m0 0l-3.782-1.922" fill="none" stroke-width=".36" stroke-linecap="round" stroke-linejoin="round" stroke="maroon" stroke-miterlimit="10"/><path d="M464.941 339l1.32-.18m.001 0l-.723-1.261" fill="none" stroke-width=".72" stroke-linecap="round" stroke-linejoin="round" stroke="maroon" stroke-miterlimit="10"/><path d="M465.54 337.559l-.599 1.14m0 .001h.899m0 0l-.3-.598" fill="none" stroke-width=".6" stroke-linecap="round" stroke-linejoin="round" stroke="maroon" stroke-miterlimit="10"/><path d="M461.102 339.66h1.68v-11.52h-1.68zm0 0" fill="maroon" stroke-width=".12" stroke-linecap="round" stroke-linejoin="round" stroke="maroon" stroke-miterlimit="10"/><path d="M456.48 333.898h5.758m5.703 11.524v-5.762m0-17.281v5.762" fill="none" stroke-width=".36" stroke-linecap="round" stroke-linejoin="round" stroke="maroon" stroke-miterlimit="10"/><path d="M473.281 333.898a8.159 8.159 0 0 1-8.16 8.16 8.161 8.161 0 1 1 8.16-8.16zm0 0" fill="none" stroke-width=".9" stroke-linecap="round" stroke-linejoin="round" stroke="maroon" stroke-miterlimit="10"/><path d="M496.738 293.578h-5.758m-17.28 0h5.76" fill="none" stroke-width=".36" stroke-linecap="round" stroke-linejoin="round" stroke="maroon" stroke-miterlimit="10"/><path d="M479.46 295.621h11.52m0-4.081h-11.52m11.52 4.081v-4.082m-11.52 4.082v-4.082" fill="none" stroke-width=".6" stroke-linecap="round" stroke-linejoin="round" stroke="maroon" stroke-miterlimit="10"/><path d="M416.16 333.898h-4.02m-7.5 0h4.02" fill="none" stroke-width=".36" stroke-linecap="round" stroke-linejoin="round" stroke="maroon" stroke-miterlimit="10"/><path d="M410.941 337.922h1.2v-8.043h-1.2zm-2.281 0h1.2v-8.043h-1.2zm0 0" fill="maroon" stroke-width=".12" stroke-linecap="round" stroke-linejoin="round" stroke="maroon" stroke-miterlimit="10"/><path d="M464.219 391.441h7.5" fill="none" stroke-width=".6" stroke-linecap="round" stroke-linejoin="round" stroke="maroon" stroke-miterlimit="10"/><path d="M467.941 385.68v5.761" fill="none" stroke-width=".36" stroke-linecap="round" stroke-linejoin="round" stroke="maroon" stroke-miterlimit="10"/><path d="M465.66 392.578h4.621m-3.179 1.203h1.738" fill="none" stroke-width=".6" stroke-linecap="round" stroke-linejoin="round" stroke="maroon" stroke-miterlimit="10"/><path d="M444.96 333.898h-5.76m-17.278 0h5.758" fill="none" stroke-width=".36" stroke-linecap="round" stroke-linejoin="round" stroke="maroon" stroke-miterlimit="10"/><path d="M427.68 335.879h11.52m0-4.019h-11.52m11.52 4.019v-4.02m-11.52 4.02v-4.02" fill="none" stroke-width=".6" stroke-linecap="round" stroke-linejoin="round" stroke="maroon" stroke-miterlimit="10"/><path d="M352.8 287.82v5.758m0 17.282v-5.758" fill="none" stroke-width=".36" stroke-linecap="round" stroke-linejoin="round" stroke="maroon" stroke-miterlimit="10"/><path d="M350.82 305.102v-11.524m4.02 0v11.524m-4.02-11.524h4.02m-4.02 11.524h4.02" fill="none" stroke-width=".6" stroke-linecap="round" stroke-linejoin="round" stroke="maroon" stroke-miterlimit="10"/><path d="M329.762 305.102v-4.024m0-7.5v4.024" fill="none" stroke-width=".36" stroke-linecap="round" stroke-linejoin="round" stroke="maroon" stroke-miterlimit="10"/><path d="M325.738 301.078h8.043v-1.2h-8.043zm0-2.278h8.043v-1.198h-8.043zm0 0" fill="maroon" stroke-width=".12" stroke-linecap="round" stroke-linejoin="round" stroke="maroon" stroke-miterlimit="10"/><path d="M410.398 270.54v5.76m0 17.278v-5.758" fill="none" stroke-width=".36" stroke-linecap="round" stroke-linejoin="round" stroke="maroon" stroke-miterlimit="10"/><path d="M408.36 287.82V276.3m4.019 0v11.52m-4.019-11.52h4.019m-4.019 11.52h4.019" fill="none" stroke-width=".6" stroke-linecap="round" stroke-linejoin="round" stroke="maroon" stroke-miterlimit="10"/><path d="M387.36 287.82v-4.02m0-7.5v4.02" fill="none" stroke-width=".36" stroke-linecap="round" stroke-linejoin="round" stroke="maroon" stroke-miterlimit="10"/><path d="M383.34 283.8h8.039v-1.198h-8.04zm0-2.28h8.039v-1.2h-8.04zm0 0" fill="maroon" stroke-width=".12" stroke-linecap="round" stroke-linejoin="round" stroke="maroon" stroke-miterlimit="10"/><path d="M467.941 299.34v5.762m0 5.758v-5.758" fill="none" stroke-width=".36" stroke-linecap="round" stroke-linejoin="round" stroke="maroon" stroke-miterlimit="10"/><path d="M465.121 302.219l2.82 5.761m0 0l2.88-5.761m-.001 5.761h-2.879m2.879-5.761h-5.699m2.82 5.761h-2.82" fill="none" stroke-width=".6" stroke-linecap="round" stroke-linejoin="round" stroke="maroon" stroke-miterlimit="10"/><path d="M467.941 276.3v5.759m0 5.761v-5.761" fill="none" stroke-width=".36" stroke-linecap="round" stroke-linejoin="round" stroke="maroon" stroke-miterlimit="10"/><path d="M465.121 279.18l2.82 5.761m0 0l2.88-5.761m-.001 5.761h-2.879m2.879-5.761h-5.699m2.82 5.761h-2.82" fill="none" stroke-width=".6" stroke-linecap="round" stroke-linejoin="round" stroke="maroon" stroke-miterlimit="10"/><path d="M502.5 264.781l-5.578 2.82m3.118 6.059l1.198 1.98m0 0l-2.34.301m0 0l1.141-2.28m2.461 2.639l-1.262-.66m0 0l-3.777-1.859" fill="none" stroke-width=".36" stroke-linecap="round" stroke-linejoin="round" stroke="maroon" stroke-miterlimit="10"/><path d="M499.5 275.64l1.262-.12m0 0l-.723-1.32" fill="none" stroke-width=".72" stroke-linecap="round" stroke-linejoin="round" stroke="maroon" stroke-miterlimit="10"/><path d="M500.04 274.2l-.54 1.198m0 0h.84m0 0l-.3-.597" fill="none" stroke-width=".6" stroke-linecap="round" stroke-linejoin="round" stroke="maroon" stroke-miterlimit="10"/><path d="M495.602 276.3h1.68v-11.519h-1.68zm0 0" fill="maroon" stroke-width=".12" stroke-linecap="round" stroke-linejoin="round" stroke="maroon" stroke-miterlimit="10"/><path d="M490.98 270.54h5.758m5.762 11.519V276.3m0-17.28v5.761" fill="none" stroke-width=".36" stroke-linecap="round" stroke-linejoin="round" stroke="maroon" stroke-miterlimit="10"/><path d="M507.781 270.54a8.159 8.159 0 0 1-8.16 8.16 8.159 8.159 0 0 1-8.16-8.16 8.159 8.159 0 0 1 8.16-8.161 8.159 8.159 0 0 1 8.16 8.16zm0 0" fill="none" stroke-width=".9" stroke-linecap="round" stroke-linejoin="round" stroke="maroon" stroke-miterlimit="10"/><path d="M501.48 312.781l-1.14-2.043m0 0l-2.399 2.524m0 0l3.54-.48m1.019-1.922l-1.621.96m1.621 10.559l-4.621-2.34" fill="none" stroke-width=".36" stroke-linecap="round" stroke-linejoin="round" stroke="maroon" stroke-miterlimit="10"/><path d="M501.059 312.602l-.84-1.442m0 0l-1.739 1.68m0 0l2.282-.238m0 0l-.543-.903m0 .001l-.899.6m0 0h.899" fill="none" stroke-width=".6" stroke-linecap="round" stroke-linejoin="round" stroke="maroon" stroke-miterlimit="10"/><path d="M496.2 322.379h1.679v-11.52h-1.68zm0 0" fill="maroon" stroke-width=".12" stroke-linecap="round" stroke-linejoin="round" stroke="maroon" stroke-miterlimit="10"/><path d="M490.98 316.621h5.758m5.762-11.519v5.757m0 17.281v-5.761" fill="none" stroke-width=".36" stroke-linecap="round" stroke-linejoin="round" stroke="maroon" stroke-miterlimit="10"/><path d="M507.781 316.621a8.159 8.159 0 0 1-8.16 8.16 8.159 8.159 0 0 1-8.16-8.16 8.159 8.159 0 0 1 8.16-8.16 8.159 8.159 0 0 1 8.16 8.16zm-9 74.82h7.5" fill="none" stroke-width=".6" stroke-linecap="round" stroke-linejoin="round" stroke="maroon" stroke-miterlimit="10"/><path d="M502.5 385.68v5.761" fill="none" stroke-width=".36" stroke-linecap="round" stroke-linejoin="round" stroke="maroon" stroke-miterlimit="10"/><path d="M500.219 392.578h4.62m-3.179 1.203h1.738" fill="none" stroke-width=".6" stroke-linecap="round" stroke-linejoin="round" stroke="maroon" stroke-miterlimit="10"/><path d="M467.941 241.738v5.762m0 17.281v-5.761" fill="none" stroke-width=".36" stroke-linecap="round" stroke-linejoin="round" stroke="maroon" stroke-miterlimit="10"/><path d="M469.98 259.02V247.5m-4.02 0v11.52m4.02-11.52h-4.02m4.02 11.52h-4.02" fill="none" stroke-width=".6" stroke-linecap="round" stroke-linejoin="round" stroke="maroon" stroke-miterlimit="10"/><use xlink:href="#L" x="304.601" y="244.642" fill="maroon"/><path d="M306.781 253.262v-4.024m0-7.5v3.782" fill="none" stroke-width=".36" stroke-linecap="round" stroke-linejoin="round" stroke="maroon" stroke-miterlimit="10"/><path d="M302.16 249.54h9.238v-1.438h-9.238zm0 0" fill="maroon" stroke-width=".12" stroke-linecap="round" stroke-linejoin="round" stroke="maroon" stroke-miterlimit="10"/><path d="M302.281 245.52v1.44m0 0h8.938m0 0v-1.44m0 0h-4.438m0 0h-4.5" fill="none" stroke-width=".3" stroke-linecap="round" stroke-linejoin="round" stroke="maroon" stroke-miterlimit="10"/><path d="M303 264.781h7.5" fill="none" stroke-width=".6" stroke-linecap="round" stroke-linejoin="round" stroke="maroon" stroke-miterlimit="10"/><path d="M306.781 259.02v5.761" fill="none" stroke-width=".36" stroke-linecap="round" stroke-linejoin="round" stroke="maroon" stroke-miterlimit="10"/><path d="M304.441 265.922h4.618m-3.18 1.199h1.742" fill="none" stroke-width=".6" stroke-linecap="round" stroke-linejoin="round" stroke="maroon" stroke-miterlimit="10"/><path d="M381.602 235.98h-5.762m-17.281 0h5.761" fill="none" stroke-width=".36" stroke-linecap="round" stroke-linejoin="round" stroke="maroon" stroke-miterlimit="10"/><path d="M364.32 238.02h11.52m0-4.02h-11.52m11.52 4.02V234m-11.52 4.02V234m176.22 4.02v3.718" fill="none" stroke-width=".6" stroke-linecap="round" stroke-linejoin="round" stroke="maroon" stroke-miterlimit="10"/><path d="M540.54 241.738h-4.321" fill="none" stroke-width=".36" stroke-linecap="round" stroke-linejoin="round" stroke="maroon" stroke-miterlimit="10"/><path d="M540.54 241.738v3.782" fill="none" stroke-width=".6" stroke-linecap="round" stroke-linejoin="round" stroke="maroon" stroke-miterlimit="10"/><path d="M534.781 241.738h-1.203" fill="none" stroke-width=".36" stroke-linecap="round" stroke-linejoin="round" stroke="maroon" stroke-miterlimit="10"/><path d="M525.54 247.8v-2.28m0 0l3.722-7.5m-6.602-.301v-1.438m5.762 1.438v-1.438" fill="none" stroke-width=".6" stroke-linecap="round" stroke-linejoin="round" stroke="maroon" stroke-miterlimit="10"/><path d="M533.578 241.738l-1.137 1.742m0 0l-1.14-1.742m-5.761 11.524V247.5m-11.52-11.52h5.761m17.278 0H531.3m-2.28 5.758h-1.442" fill="none" stroke-width=".36" stroke-linecap="round" stroke-linejoin="round" stroke="maroon" stroke-miterlimit="10"/><path d="M531.3 235.98h-2.878m-5.762 0h-2.879m40.321 0h5.757m5.762 0a2.882 2.882 0 0 1-2.883 2.88 2.88 2.88 0 0 1 0-5.758 2.882 2.882 0 0 1 2.883 2.878zm-11.519 143.942h5.757m5.762 0a2.882 2.882 0 0 1-2.883 2.879 2.88 2.88 0 0 1-2.879-2.88 2.88 2.88 0 1 1 5.762 0zm-26.761 11.519h7.44" fill="none" stroke-width=".6" stroke-linecap="round" stroke-linejoin="round" stroke="maroon" stroke-miterlimit="10"/><path d="M548.578 385.68v5.761" fill="none" stroke-width=".36" stroke-linecap="round" stroke-linejoin="round" stroke="maroon" stroke-miterlimit="10"/><path d="M546.3 392.578h4.56m-3.122 1.203h1.684m-265.684-8.101h-5.758m0 0a2.88 2.88 0 0 1-2.878 2.879 2.88 2.88 0 1 1 2.878-2.88zm5.758-17.282h-5.758m0 0a2.88 2.88 0 1 1-5.761 0 2.88 2.88 0 0 1 2.883-2.878 2.88 2.88 0 0 1 2.878 2.878zm13.5 28.802h7.5" fill="none" stroke-width=".6" stroke-linecap="round" stroke-linejoin="round" stroke="maroon" stroke-miterlimit="10"/><path d="M295.262 391.441v5.758" fill="none" stroke-width=".36" stroke-linecap="round" stroke-linejoin="round" stroke="maroon" stroke-miterlimit="10"/><path d="M292.922 398.34h4.617m-3.179 1.14h1.742" fill="none" stroke-width=".6" stroke-linecap="round" stroke-linejoin="round" stroke="maroon" stroke-miterlimit="10"/><use xlink:href="#E" x="526.083" y="291.419" fill="maroon"/><path d="M537.059 293.578h-4.02m-7.499 0h3.722" fill="none" stroke-width=".36" stroke-linecap="round" stroke-linejoin="round" stroke="maroon" stroke-miterlimit="10"/><path d="M531.898 298.2h1.442v-9.24h-1.442zm0 0" fill="maroon" stroke-width=".12" stroke-linecap="round" stroke-linejoin="round" stroke="maroon" stroke-miterlimit="10"/><path d="M529.262 289.14h1.437m.001 0v8.88m0 0h-1.438m0 0v-4.442m0 0v-4.437" fill="none" stroke-width=".3" stroke-linecap="round" stroke-linejoin="round" stroke="maroon" stroke-miterlimit="10"/><path d="M560.102 310.86h5.757m5.762 0a2.882 2.882 0 0 1-2.883 2.878 2.88 2.88 0 0 1 0-5.758c1.59 0 2.883 1.29 2.883 2.88zm-11.519-17.282h5.757m5.762 0a2.88 2.88 0 1 1-5.762 0 2.88 2.88 0 0 1 2.88-2.879c1.59 0 2.882 1.29 2.882 2.88zm-26.761 28.801h7.44" fill="none" stroke-width=".6" stroke-linecap="round" stroke-linejoin="round" stroke="maroon" stroke-miterlimit="10"/><path d="M548.578 316.621v5.758" fill="none" stroke-width=".36" stroke-linecap="round" stroke-linejoin="round" stroke="maroon" stroke-miterlimit="10"/><path d="M546.3 323.52h4.56m-3.122 1.14h1.684" fill="none" stroke-width=".6" stroke-linecap="round" stroke-linejoin="round" stroke="maroon" stroke-miterlimit="10"/><path d="M312.54 351.121h-5.759m0 0v17.277m0 0h-5.761m5.761 0h22.98" fill="none" stroke-width=".36" stroke-linecap="round" stroke-linejoin="round" stroke="green" stroke-miterlimit="10"/><path d="M307.922 368.398a1.14 1.14 0 0 1-1.14 1.141 1.137 1.137 0 0 1-1.141-1.14c0-.63.507-1.137 1.14-1.137.63 0 1.14.508 1.14 1.136" fill-rule="evenodd" fill="green"/><path d="M307.922 368.398a1.14 1.14 0 0 1-1.14 1.141 1.137 1.137 0 0 1-1.141-1.14c0-.63.507-1.137 1.14-1.137.63 0 1.14.508 1.14 1.136zm0 0" fill="none" stroke-width=".12" stroke-linecap="round" stroke-linejoin="round" stroke="green" stroke-miterlimit="10"/><path d="M341.281 385.68v-5.758m57.598 5.758v-23.04m69.062 23.04v-40.258M502.5 385.68v-57.54m-195.719-69.12v-5.758M548.578 385.68v-5.758m0 0h11.524m-264.84 11.519v-5.761m0 0h-11.524m264.84-69.059v-5.762m0 .001h11.524m-190.024 23.038h-5.758m0 0v17.223m0 0h-5.761m5.761 0h23.04" fill="none" stroke-width=".36" stroke-linecap="round" stroke-linejoin="round" stroke="green" stroke-miterlimit="10"/><path d="M365.46 351.121c0 .629-.51 1.14-1.14 1.14a1.14 1.14 0 1 1 1.14-1.14" fill-rule="evenodd" fill="green"/><path d="M365.46 351.121c0 .629-.51 1.14-1.14 1.14a1.14 1.14 0 1 1 1.14-1.14zm0 0" fill="none" stroke-width=".12" stroke-linecap="round" stroke-linejoin="round" stroke="green" stroke-miterlimit="10"/><path d="M473.7 293.578h-22.981m0 0v40.32m0 0h5.761m-5.761 0h-5.758" fill="none" stroke-width=".36" stroke-linecap="round" stroke-linejoin="round" stroke="green" stroke-miterlimit="10"/><path d="M451.86 333.898c0 .633-.508 1.141-1.141 1.141a1.14 1.14 0 1 1 0-2.277c.633 0 1.14.508 1.14 1.136" fill-rule="evenodd" fill="green"/><path d="M451.86 333.898c0 .633-.508 1.141-1.141 1.141a1.14 1.14 0 1 1 0-2.277c.633 0 1.14.508 1.14 1.136zm0 0" fill="none" stroke-width=".12" stroke-linecap="round" stroke-linejoin="round" stroke="green" stroke-miterlimit="10"/><path d="M421.922 333.898h-5.762M352.8 310.86v5.761m0 0h-11.519m0 0h-11.52m.001 0v-11.52m5.758 46.02h5.761m0 0v5.758m5.759-5.758h-5.759" fill="none" stroke-width=".36" stroke-linecap="round" stroke-linejoin="round" stroke="green" stroke-miterlimit="10"/><path d="M342.422 351.121a1.14 1.14 0 1 1-2.281 0c0-.633.507-1.14 1.14-1.14.63 0 1.14.507 1.14 1.14" fill-rule="evenodd" fill="green"/><path d="M342.422 351.121a1.14 1.14 0 1 1-2.281 0c0-.633.507-1.14 1.14-1.14.63 0 1.14.507 1.14 1.14zm0 0" fill="none" stroke-width=".12" stroke-linecap="round" stroke-linejoin="round" stroke="green" stroke-miterlimit="10"/><path d="M341.281 316.621v34.5" fill="none" stroke-width=".36" stroke-linecap="round" stroke-linejoin="round" stroke="green" stroke-miterlimit="10"/><path d="M342.422 316.621a1.14 1.14 0 1 1-2.281 0c0-.633.507-1.14 1.14-1.14.63 0 1.14.507 1.14 1.14" fill-rule="evenodd" fill="green"/><path d="M342.422 316.621a1.14 1.14 0 1 1-2.281 0c0-.633.507-1.14 1.14-1.14.63 0 1.14.507 1.14 1.14zm0 0" fill="none" stroke-width=".12" stroke-linecap="round" stroke-linejoin="round" stroke="green" stroke-miterlimit="10"/><path d="M410.398 293.578v5.762m0 0h-11.52m.001 0h-11.52m.001 0v-11.52m5.761 46.078h5.758m0 0v5.762m5.761-5.762h-5.761" fill="none" stroke-width=".36" stroke-linecap="round" stroke-linejoin="round" stroke="green" stroke-miterlimit="10"/><path d="M400.02 333.898c0 .633-.508 1.141-1.141 1.141a1.14 1.14 0 1 1 0-2.277c.633 0 1.14.508 1.14 1.136" fill-rule="evenodd" fill="green"/><path d="M400.02 333.898c0 .633-.508 1.141-1.141 1.141a1.14 1.14 0 1 1 0-2.277c.633 0 1.14.508 1.14 1.136zm0 0" fill="none" stroke-width=".12" stroke-linecap="round" stroke-linejoin="round" stroke="green" stroke-miterlimit="10"/><path d="M398.879 299.34v34.558" fill="none" stroke-width=".36" stroke-linecap="round" stroke-linejoin="round" stroke="green" stroke-miterlimit="10"/><path d="M400.02 299.34a1.14 1.14 0 1 1-2.282 0 1.14 1.14 0 1 1 2.281 0" fill-rule="evenodd" fill="green"/><path d="M400.02 299.34a1.14 1.14 0 1 1-2.282 0 1.14 1.14 0 1 1 2.281 0zm0 0" fill="none" stroke-width=".12" stroke-linecap="round" stroke-linejoin="round" stroke="green" stroke-miterlimit="10"/><path d="M502.5 282.059v11.52m0-.001v11.524m-5.762-11.524h5.762" fill="none" stroke-width=".36" stroke-linecap="round" stroke-linejoin="round" stroke="green" stroke-miterlimit="10"/><path d="M503.64 293.578a1.14 1.14 0 1 1-2.278.002 1.14 1.14 0 0 1 2.279-.002" fill-rule="evenodd" fill="green"/><path d="M503.64 293.578a1.14 1.14 0 1 1-2.278.002 1.14 1.14 0 0 1 2.279-.002zm0 0" fill="none" stroke-width=".12" stroke-linecap="round" stroke-linejoin="round" stroke="green" stroke-miterlimit="10"/><path d="M502.5 293.578h23.04m-34.56 23.043h-23.039m0 0v5.758m0-11.519v5.761" fill="none" stroke-width=".36" stroke-linecap="round" stroke-linejoin="round" stroke="green" stroke-miterlimit="10"/><path d="M469.078 316.621a1.139 1.139 0 1 1-2.277 0 1.14 1.14 0 1 1 2.277 0" fill-rule="evenodd" fill="green"/><path d="M469.078 316.621a1.139 1.139 0 1 1-2.277 0 1.14 1.14 0 1 1 2.277 0zm0 0" fill="none" stroke-width=".12" stroke-linecap="round" stroke-linejoin="round" stroke="green" stroke-miterlimit="10"/><path d="M467.941 287.82v11.52m0-23.04v-5.76m0 0h23.04m-23.04-5.759v5.758" fill="none" stroke-width=".36" stroke-linecap="round" stroke-linejoin="round" stroke="green" stroke-miterlimit="10"/><path d="M469.078 270.54zm0 0" fill="none" stroke-width=".12" stroke-linecap="round" stroke-linejoin="round" stroke="green" stroke-miterlimit="10"/><path d="M502.5 259.02v-23.04m0 0h-34.559m0 0v5.758M387.36 276.3v-11.519m0 0h11.519m0 0h11.52m-.001 0v5.758m57.543-34.559H398.88m-.001 0v28.801" fill="none" stroke-width=".36" stroke-linecap="round" stroke-linejoin="round" stroke="green" stroke-miterlimit="10"/><path d="M469.078 235.98a1.139 1.139 0 1 1-2.277 0 1.139 1.139 0 0 1 2.277 0" fill-rule="evenodd" fill="green"/><path d="M469.078 235.98a1.139 1.139 0 1 1-2.277 0 1.139 1.139 0 0 1 2.277 0zm0 0" fill="none" stroke-width=".12" stroke-linecap="round" stroke-linejoin="round" stroke="green" stroke-miterlimit="10"/><path d="M400.02 264.781a1.14 1.14 0 1 1-2.282 0c0-.633.512-1.14 1.14-1.14.634 0 1.142.507 1.142 1.14" fill-rule="evenodd" fill="green"/><path d="M400.02 264.781a1.14 1.14 0 1 1-2.282 0c0-.633.512-1.14 1.14-1.14.634 0 1.142.507 1.142 1.14zm0 0" fill="none" stroke-width=".12" stroke-linecap="round" stroke-linejoin="round" stroke="green" stroke-miterlimit="10"/><path d="M398.879 235.98h-17.277" fill="none" stroke-width=".36" stroke-linecap="round" stroke-linejoin="round" stroke="green" stroke-miterlimit="10"/><path d="M400.02 235.98a1.14 1.14 0 1 1-2.282 0 1.14 1.14 0 1 1 2.281 0" fill-rule="evenodd" fill="green"/><path d="M400.02 235.98a1.14 1.14 0 1 1-2.282 0 1.14 1.14 0 1 1 2.281 0zm0 0" fill="none" stroke-width=".12" stroke-linecap="round" stroke-linejoin="round" stroke="green" stroke-miterlimit="10"/><path d="M502.5 235.98h11.52" fill="none" stroke-width=".36" stroke-linecap="round" stroke-linejoin="round" stroke="green" stroke-miterlimit="10"/><path d="M503.64 235.98a1.141 1.141 0 1 1-2.282 0 1.141 1.141 0 0 1 2.282 0" fill-rule="evenodd" fill="green"/><path d="M503.64 235.98a1.141 1.141 0 1 1-2.282 0 1.141 1.141 0 0 1 2.282 0zm0 0" fill="none" stroke-width=".12" stroke-linecap="round" stroke-linejoin="round" stroke="green" stroke-miterlimit="10"/><path d="M352.8 282.059v5.761m-11.519-5.761h11.52m-11.52-46.079v46.079" fill="none" stroke-width=".36" stroke-linecap="round" stroke-linejoin="round" stroke="green" stroke-miterlimit="10"/><path d="M342.422 282.059a1.14 1.14 0 1 1-2.284.002 1.14 1.14 0 0 1 2.284-.002" fill-rule="evenodd" fill="green"/><path d="M342.422 282.059a1.14 1.14 0 1 1-2.284.002 1.14 1.14 0 0 1 2.284-.002zm0 0" fill="none" stroke-width=".12" stroke-linecap="round" stroke-linejoin="round" stroke="green" stroke-miterlimit="10"/><path d="M329.762 282.059h11.52m-11.52 11.519v-11.52m28.797-46.078H341.28m.001 0h-34.5m0 0v5.758" fill="none" stroke-width=".36" stroke-linecap="round" stroke-linejoin="round" stroke="green" stroke-miterlimit="10"/><path d="M342.422 235.98a1.14 1.14 0 1 1-1.14-1.14c.628 0 1.14.512 1.14 1.14" fill-rule="evenodd" fill="green"/><path d="M342.422 235.98a1.14 1.14 0 1 1-1.14-1.14c.628 0 1.14.512 1.14 1.14zm0 0" fill="none" stroke-width=".12" stroke-linecap="round" stroke-linejoin="round" stroke="green" stroke-miterlimit="10"/><path d="M525.54 253.262v5.758m0 0h23.038m0 0v-23.04m0 0h-11.52m23.044 0h-11.524" fill="none" stroke-width=".36" stroke-linecap="round" stroke-linejoin="round" stroke="green" stroke-miterlimit="10"/><path d="M549.719 235.98a1.14 1.14 0 1 1-2.28.003 1.14 1.14 0 0 1 2.28-.003" fill-rule="evenodd" fill="green"/><path d="M549.719 235.98a1.14 1.14 0 1 1-2.28.003 1.14 1.14 0 0 1 2.28-.003zm0 0" fill="none" stroke-width=".12" stroke-linecap="round" stroke-linejoin="round" stroke="green" stroke-miterlimit="10"/><path d="M283.738 368.398h5.762m247.559-74.82h23.043" fill="none" stroke-width=".36" stroke-linecap="round" stroke-linejoin="round" stroke="green" stroke-miterlimit="10"/></svg>