<svg xmlns="http://www.w3.org/2000/svg" xmlns:xlink="http://www.w3.org/1999/xlink" width="842pt" height="595pt" viewBox="0 0 842 595"><defs><symbol overflow="visible" id="a"><path d="M2.031-.344h-1.5A.433.433 0 0 1 .578-.5c.02-.05.05-.098.094-.14a.688.688 0 0 1 .156-.141 2.3 2.3 0 0 1 .219-.156l.406-.22c.195-.1.344-.226.438-.374a.824.824 0 0 0 .156-.485.75.75 0 0 0-.078-.328.933.933 0 0 0-.188-.281.834.834 0 0 0-.281-.156 1.034 1.034 0 0 0-.36-.063 1.14 1.14 0 0 0-.484.094.726.726 0 0 0-.297.266 1.15 1.15 0 0 0-.156.438v.187h.36c0-.094.003-.172.015-.235a.456.456 0 0 1 .063-.172.397.397 0 0 1 .187-.187.613.613 0 0 1 .297-.078c.082 0 .156.015.219.047.07.023.133.058.187.109.051.043.086.094.11.156A.487.487 0 0 1 1.687-2c0 .23-.125.418-.375.563l-.375.203a2.966 2.966 0 0 0-.375.25 1.214 1.214 0 0 0-.25.265c-.054.094-.093.2-.124.313A1.57 1.57 0 0 0 .14 0h1.89zm0 0"/></symbol><symbol overflow="visible" id="b"><path d="M2.594-2.922h-.36v2.39l-1.53-2.39H.312V0h.343v-2.375L2.172 0h.422zm0 0"/></symbol><symbol overflow="visible" id="c"><path d="M.89-1.313h.188c.395 0 .594.172.594.516 0 .188-.055.336-.156.438-.106.093-.25.14-.438.14-.187 0-.336-.047-.437-.14C.547-.461.492-.617.484-.83H.125c.008.118.023.216.047.298.02.086.047.152.078.203A.69.69 0 0 0 .563 0c.132.063.3.094.5.094.144 0 .273-.024.39-.063a.863.863 0 0 0 .313-.172.846.846 0 0 0 .187-.28.907.907 0 0 0 .078-.376.658.658 0 0 0-.484-.672c.27-.101.406-.3.406-.593a1.124 1.124 0 0 0-.078-.329.54.54 0 0 0-.156-.234.659.659 0 0 0-.282-.156 1.034 1.034 0 0 0-.359-.063c-.293 0-.512.078-.656.235-.149.156-.227.386-.234.687h.359c0-.094.004-.164.015-.219a.427.427 0 0 1 .047-.14.422.422 0 0 1 .172-.188.68.68 0 0 1 .297-.062c.164 0 .29.043.375.125a.559.559 0 0 1 .14.36.572.572 0 0 1-.077.233.307.307 0 0 1-.157.141.88.88 0 0 1-.093.031.4.4 0 0 1-.125.032H.89zm0 0"/></symbol><symbol overflow="visible" id="d"><path d="M.219-.656c.031.242.113.43.25.562a.808.808 0 0 0 .547.188.787.787 0 0 0 .375-.078.901.901 0 0 0 .234-.157.81.81 0 0 0 .156-.172c.094-.132.16-.296.203-.484.04-.187.063-.406.063-.656a2.636 2.636 0 0 0-.063-.61 1.29 1.29 0 0 0-.078-.218 3.804 3.804 0 0 0-.11-.219.662.662 0 0 0-.296-.25.93.93 0 0 0-.422-.094.907.907 0 0 0-.375.078.71.71 0 0 0-.297.204.768.768 0 0 0-.187.296 1.08 1.08 0 0 0-.063.375c0 .137.02.262.063.375.039.106.097.2.172.282a.742.742 0 0 0 .28.187.923.923 0 0 0 .36.063.771.771 0 0 0 .36-.079.867.867 0 0 0 .28-.234c0 .344-.058.61-.171.797-.105.188-.258.281-.453.281a.449.449 0 0 1-.313-.11C.648-.398.594-.507.563-.655zm.86-1.875a.539.539 0 0 1 .406.188c.05.054.093.12.124.202a.634.634 0 0 1 .047.25.57.57 0 0 1-.047.235.837.837 0 0 1-.125.203.606.606 0 0 1-.187.125.681.681 0 0 1-.234.031.539.539 0 0 1-.407-.156c-.094-.113-.14-.27-.14-.469 0-.082.007-.16.03-.234a.559.559 0 0 1 .126-.203c.05-.051.11-.094.172-.125a.57.57 0 0 1 .234-.047zm0 0"/></symbol><symbol overflow="visible" id="e"><path d="M1.11-2.844a.907.907 0 0 0-.376.078.689.689 0 0 0-.28.235 1.39 1.39 0 0 0-.22.484 3.072 3.072 0 0 0-.062.672c0 .48.078.844.234 1.094.156.25.39.375.703.375.301 0 .532-.117.688-.36.156-.25.234-.613.234-1.093 0-.27-.027-.5-.078-.688a1.459 1.459 0 0 0-.187-.484.897.897 0 0 0-.297-.235.889.889 0 0 0-.36-.078zm0 .313c.374 0 .562.383.562 1.14 0 .407-.047.711-.14.907a.464.464 0 0 1-.438.28C.719-.203.53-.593.53-1.374c0-.383.047-.672.14-.86.095-.195.24-.296.438-.296zm0 0"/></symbol><symbol overflow="visible" id="f"><path d="M1.313-.688V0h.359v-.688h.422V-1h-.422v-1.844h-.266L.11-1.063v.375zm0-.312H.421l.89-1.25zm0 0"/></symbol><symbol overflow="visible" id="g"><path d="M.563-2.922H.233V0h.329v-.813L.89-1.14 1.609 0h.407l-.86-1.375.735-.734h-.438l-.89.89zm0 0"/></symbol><symbol overflow="visible" id="h"><path d="M2.094-2.844H.188v.344h1.53c-.167.242-.312.465-.437.672-.125.21-.234.414-.328.61a7.452 7.452 0 0 0-.234.577C.656-.44.602-.227.563 0h.375c.03-.227.078-.445.14-.656a6.393 6.393 0 0 1 .578-1.266c.125-.207.27-.414.438-.625zm0 0"/></symbol><symbol overflow="visible" id="i"><path d="M.281-2.11V0h.344v-1.156c0-.102.008-.196.031-.282a.502.502 0 0 1 .297-.375.477.477 0 0 1 .235-.062.508.508 0 0 1 .312.125.38.38 0 0 1 .125.297V0h.328v-1.594a.598.598 0 0 0-.047-.234.404.404 0 0 0-.14-.172.485.485 0 0 0-.204-.11 1.235 1.235 0 0 0-.28-.062.725.725 0 0 0-.391.11.768.768 0 0 0-.297.312v-.36zm0 0"/></symbol><symbol overflow="visible" id="j"><path d="M2.844-1.547H1.625v.328h.89v.078a.907.907 0 0 1-.078.375.846.846 0 0 1-.187.282 1.2 1.2 0 0 1-.297.187.95.95 0 0 1-.36.063c-.148 0-.288-.024-.421-.078a.821.821 0 0 1-.313-.22.846.846 0 0 1-.14-.171 12.27 12.27 0 0 1-.094-.219 4.673 4.673 0 0 1-.063-.25 2.263 2.263 0 0 1-.015-.281c0-.176.02-.336.062-.484.051-.145.125-.27.22-.375a.973.973 0 0 1 .327-.235.93.93 0 0 1 .422-.094.99.99 0 0 1 .313.047.812.812 0 0 1 .296.156c.114.075.192.204.235.391h.39a1.28 1.28 0 0 0-.156-.39 1.155 1.155 0 0 0-.328-.344c-.156-.125-.406-.188-.75-.188-.355 0-.648.094-.875.281a1.11 1.11 0 0 0-.234.235 2.506 2.506 0 0 0-.203.39 1.726 1.726 0 0 0-.094.626c0 .23.031.437.094.625.07.187.164.351.28.484.114.137.255.242.423.312a1.38 1.38 0 0 0 1.078 0 1.71 1.71 0 0 0 .469-.359l.093.39h.235zm0 0"/></symbol><symbol overflow="visible" id="k"><path d="M.36 0h1.124c.188 0 .352-.031.5-.094.145-.07.27-.172.375-.297a1.31 1.31 0 0 0 .235-.453 2.38 2.38 0 0 0 .078-.625c0-.218-.027-.414-.078-.593a1.32 1.32 0 0 0-.235-.47 1.011 1.011 0 0 0-.375-.28 1.147 1.147 0 0 0-.5-.11H.36zm.374-.328v-2.266h.688c.289 0 .508.102.656.297.145.188.223.469.235.844-.012.367-.09.648-.235.844-.148.187-.367.28-.656.28zm0 0"/></symbol><symbol overflow="visible" id="l"><path d="M.766-.422H.344V0h.422zm0 0"/></symbol><symbol overflow="visible" id="m"><path d="M1.047-2.031V0h.344v-2.844h-.235a2.245 2.245 0 0 1-.093.266.452.452 0 0 1-.329.25c-.086.023-.195.039-.328.047v.25zm0 0"/></symbol><symbol overflow="visible" id="n"><path d="M1.578-1.5c.063-.04.117-.082.172-.125a.63.63 0 0 0 .125-.125.486.486 0 0 0 .063-.156c.007-.051.015-.114.015-.188a.702.702 0 0 0-.234-.531.675.675 0 0 0-.266-.156 1.002 1.002 0 0 0-.703 0 .624.624 0 0 0-.266.156.71.71 0 0 0-.234.531c0 .074.004.137.016.188a.41.41 0 0 0 .062.156.54.54 0 0 0 .125.125c.05.043.113.086.188.125-.336.156-.496.39-.485.703 0 .137.02.262.063.375.039.106.101.2.187.281.094.075.196.133.313.172a1.187 1.187 0 0 0 .765 0 .863.863 0 0 0 .313-.172.846.846 0 0 0 .187-.28.875.875 0 0 0 .079-.36c0-.32-.165-.563-.485-.719zM1.11-2.531c.145 0 .258.043.344.125.094.086.14.195.14.328a.414.414 0 0 1-.14.328.505.505 0 0 1-.344.11.587.587 0 0 1-.375-.11.43.43 0 0 1-.125-.328c0-.133.04-.242.125-.328a.55.55 0 0 1 .375-.125zm0 1.187c.082 0 .16.016.235.047.07.024.133.059.187.11.051.054.094.117.125.187a.57.57 0 0 1 0 .453.917.917 0 0 1-.172.219c-.074.074-.203.11-.39.11A.74.74 0 0 1 .859-.25a.527.527 0 0 1-.187-.125.587.587 0 0 1-.125-.172.74.74 0 0 1-.031-.234A.63.63 0 0 1 .546-1a.606.606 0 0 1 .126-.188.45.45 0 0 1 .187-.109.62.62 0 0 1 .25-.047zm0 0"/></symbol><symbol overflow="visible" id="o"><path d="M1.14-1.25H.189v.281h.953zm0 0"/></symbol><symbol overflow="visible" id="p"><path d="M.344-.422V0h.25v.078a.841.841 0 0 1-.016.156.261.261 0 0 1-.047.11.1.1 0 0 1-.062.062.237.237 0 0 1-.125.031v.157c.144 0 .25-.047.312-.14.07-.087.11-.216.11-.392v-.484zm0 0"/></symbol><symbol overflow="visible" id="q"><path d="M1.906-2.844H.438L.234-1.297h.329a.428.428 0 0 1 .109-.125.686.686 0 0 1 .25-.125.806.806 0 0 1 .156-.016.539.539 0 0 1 .438.188c.062.063.109.137.14.219.032.086.047.18.047.281 0 .105-.016.2-.047.281a.99.99 0 0 1-.172.25c-.086.086-.218.125-.406.125a.587.587 0 0 1-.375-.11A.693.693 0 0 1 .5-.702H.14c.008.062.02.117.032.156.008.043.023.09.047.14.02.055.05.106.093.157.083.117.192.2.329.25.132.063.28.094.437.094a.968.968 0 0 0 .39-.078.702.702 0 0 0 .313-.204.844.844 0 0 0 .203-.328 1.06 1.06 0 0 0 0-.796.872.872 0 0 0-.187-.297.713.713 0 0 0-.281-.188.934.934 0 0 0-.375-.078c-.106 0-.2.016-.282.047a.716.716 0 0 0-.25.125L.734-2.5h1.172zm0 0"/></symbol><symbol overflow="visible" id="r"><path d="M1.906-.875L2.203 0h.422L1.594-2.922h-.485L.063 0h.406L.78-.875zm-.11-.313H.86l.485-1.343zm0 0"/></symbol><symbol overflow="visible" id="s"><path d="M2-2.11a.956.956 0 0 0-.11-.296.702.702 0 0 0-.171-.235.54.54 0 0 0-.235-.156.931.931 0 0 0-.734.063 1.124 1.124 0 0 0-.328.296 1.3 1.3 0 0 0-.172.422 3.131 3.131 0 0 0-.078.719c0 .117.004.227.016.328.007.106.019.2.03.281.02.086.048.165.079.235.031.062.066.125.11.187.081.118.179.204.296.266a.93.93 0 0 0 .422.094A.934.934 0 0 0 1.5.016a.803.803 0 0 0 .484-.484c.051-.126.079-.255.079-.391a.823.823 0 0 0-.079-.36 1.056 1.056 0 0 0-.171-.297.713.713 0 0 0-.282-.187.978.978 0 0 0-.343-.063c-.282 0-.5.106-.657.313 0-.344.051-.61.156-.797a.535.535 0 0 1 .485-.281c.125 0 .226.039.312.11a.53.53 0 0 1 .157.312zm-.86.657c.176 0 .301.043.376.125.07.086.117.164.14.234a.634.634 0 0 1 .047.25.62.62 0 0 1-.047.25.837.837 0 0 1-.125.203.606.606 0 0 1-.187.125.456.456 0 0 1-.203.047.57.57 0 0 1-.235-.047A.527.527 0 0 1 .72-.39a.731.731 0 0 1-.125-.203.971.971 0 0 1-.031-.265c0-.082.007-.16.03-.235a.584.584 0 0 1 .547-.36zm0 0"/></symbol><symbol overflow="visible" id="t"><path d="M1.938 0v-2.11h-.329v1.204a1.429 1.429 0 0 1-.062.297.577.577 0 0 1-.11.218.404.404 0 0 1-.171.141.598.598 0 0 1-.235.047.47.47 0 0 1-.328-.11C.63-.383.593-.484.593-.609v-1.5H.267v1.625c0 .093.015.18.046.25.032.062.07.12.126.172a.526.526 0 0 0 .218.109.786.786 0 0 0 .485.015A.534.534 0 0 0 1.312 0a.985.985 0 0 0 .172-.11c.051-.05.102-.113.157-.187V0zm0 0"/></symbol><symbol overflow="visible" id="u"><path d="M1.422-2.594h.953v-.328H.078v.328h.969V0h.375zm0 0"/></symbol><symbol overflow="visible" id="v"><path d="M.75-1.266h.953c.164 0 .285.043.36.125.082.086.124.22.124.407v.25c0 .093.004.183.016.265.02.086.04.157.063.219h.468v-.094a.21.21 0 0 1-.093-.078.575.575 0 0 1-.063-.11.995.995 0 0 1-.031-.156v-.25c0-.113-.008-.21-.016-.296a.566.566 0 0 0-.062-.204.34.34 0 0 0-.125-.14 1.076 1.076 0 0 0-.188-.11.945.945 0 0 0 .344-.28.787.787 0 0 0 .11-.423c0-.257-.079-.453-.235-.578-.148-.133-.367-.203-.656-.203H.375V0H.75zm0-.328v-1h.906c.094 0 .172.012.235.031.07.012.132.04.187.079.094.086.14.214.14.39 0 .18-.046.309-.14.39-.094.075-.234.11-.422.11zm0 0"/></symbol><symbol overflow="visible" id="w"><path d="M2.656-2.016c-.054-.32-.172-.562-.36-.718-.187-.157-.444-.235-.765-.235-.199 0-.375.031-.531.094-.156.063-.29.152-.39.266a1.472 1.472 0 0 0-.313.53c-.074.2-.11.419-.11.657 0 .242.036.461.11.656.07.2.18.371.328.516.102.117.227.2.375.25.156.063.328.094.516.094.707 0 1.109-.383 1.203-1.157h-.39c-.013.094-.028.18-.048.25-.023.075-.047.141-.078.204a.613.613 0 0 1-.281.28.843.843 0 0 1-.406.095.884.884 0 0 1-.391-.078.915.915 0 0 1-.297-.25 1.147 1.147 0 0 1-.203-.375 1.768 1.768 0 0 1-.063-.5c0-.188.02-.352.063-.5a.997.997 0 0 1 .188-.375.885.885 0 0 1 .28-.235.792.792 0 0 1 .391-.094c.125 0 .235.016.329.047a.599.599 0 0 1 .375.313c.039.074.07.164.093.265zm0 0"/></symbol><symbol overflow="visible" id="D"><path d="M1.578 0l1.016-2.922h-.406L1.375-.453l-.86-2.469h-.39L1.172 0zm0 0"/></symbol><symbol overflow="visible" id="E"><path d="M2.14-1.078h-.828v-.828h-.28v.828H.202v.281h.828v.844h.282v-.844h.828zm0 0"/></symbol><symbol overflow="visible" id="F"><path d="M2.219-2.922v2.047c0 .105-.024.2-.063.281a.666.666 0 0 1-.203.235c-.094.086-.262.125-.5.125a.873.873 0 0 1-.531-.157.422.422 0 0 1-.156-.187.83.83 0 0 1-.047-.297v-2.047H.344v2.047c0 .156.023.297.078.422.05.117.125.215.219.297a.98.98 0 0 0 .343.172c.145.05.301.078.47.078.175 0 .331-.028.468-.078A.853.853 0 0 0 2.5-.47a.832.832 0 0 0 .094-.406v-2.047zm0 0"/></symbol><symbol overflow="visible" id="G"><path d="M.781-2.922H.406V0h.375zm0 0"/></symbol><symbol overflow="visible" id="H"><path d="M1.563-2.969c-.211 0-.403.04-.579.11a1.34 1.34 0 0 0-.437.312 1.484 1.484 0 0 0-.297.485 1.98 1.98 0 0 0-.094.624c0 .231.032.438.094.625.07.188.172.352.297.485.125.137.27.242.437.312a1.615 1.615 0 0 0 1.078.031c.157-.05.29-.128.407-.234.082-.062.156-.133.219-.218a1.654 1.654 0 0 0 .25-.625c.03-.114.046-.235.046-.36 0-.226-.039-.437-.109-.625a1.333 1.333 0 0 0-.281-.5 1.325 1.325 0 0 0-.453-.312c-.168-.07-.36-.11-.579-.11zm0 .328a.93.93 0 0 1 .421.094.84.84 0 0 1 .329.235c.093.105.164.234.218.39.051.149.078.313.078.5 0 .18-.027.34-.078.484a1.105 1.105 0 0 1-.547.625 1.042 1.042 0 0 1-.421.079c-.157 0-.297-.024-.422-.078a1.078 1.078 0 0 1-.547-.625 1.866 1.866 0 0 1-.063-.5c0-.188.02-.352.063-.5.05-.145.117-.27.203-.375a.973.973 0 0 1 .328-.235c.133-.062.281-.094.438-.094zm0 0"/></symbol><symbol overflow="visible" id="I"><path d="M2.39-2.063c0-.289-.074-.492-.218-.609a1.25 1.25 0 0 0-.406-.234 1.608 1.608 0 0 0-.89 0 .78.78 0 0 0-.33.172.845.845 0 0 0-.202.265.95.95 0 0 0-.063.36c0 .355.192.578.578.671l.72.204c.187.043.32.105.405.187.094.074.141.168.141.281a.477.477 0 0 1-.063.235.478.478 0 0 1-.156.172.515.515 0 0 1-.218.093c-.094.024-.2.032-.313.032-.156 0-.293-.02-.406-.063a.517.517 0 0 1-.266-.187.451.451 0 0 1-.125-.204.81.81 0 0 1-.031-.25h-.36c0 .137.016.258.047.36.032.094.07.18.125.25a.957.957 0 0 0 .407.312c.164.07.359.11.578.11.176 0 .332-.024.468-.063a.993.993 0 0 0 .36-.172.348.348 0 0 0 .125-.125c.039-.05.082-.117.125-.203.039-.094.066-.203.078-.328a.803.803 0 0 0-.172-.469.884.884 0 0 0-.453-.265l-.734-.203a1.647 1.647 0 0 1-.235-.063.587.587 0 0 1-.172-.125c-.054-.05-.078-.133-.078-.25 0-.07.016-.133.047-.187a.443.443 0 0 1 .125-.157.604.604 0 0 1 .203-.109c.082-.02.176-.031.282-.031.226 0 .406.054.53.156.126.094.192.242.204.438zm0 0"/></symbol><symbol overflow="visible" id="J"><path d="M.734-1.234h.922a.99.99 0 0 0 .313-.047.774.774 0 0 0 .25-.172.648.648 0 0 0 .203-.25c.039-.102.062-.223.062-.36-.011-.28-.093-.492-.25-.64-.148-.145-.367-.219-.656-.219H.36V0h.375zm0-.344v-1.016h.782c.175 0 .312.047.406.14.101.087.16.212.172.376a.546.546 0 0 1-.172.375c-.094.086-.23.125-.406.125zm0 0"/></symbol><symbol overflow="visible" id="K"><path d="M.688-1.031l.484-.469L2.203 0h.438L1.437-1.734l1.188-1.188h-.469L.687-1.437v-1.485H.313V0h.376zm0 0"/></symbol><symbol overflow="visible" id="x"><path d="M-1.672-1.922c-.226 0-.39.059-.484.172a1.024 1.024 0 0 0-.188.328 1.272 1.272 0 0 0-.047.36c0 .125.016.242.047.343a.69.69 0 0 0 .14.266.508.508 0 0 0 .22.172c.086.043.18.062.28.062.294 0 .477-.156.548-.469L-1-1.28a.747.747 0 0 1 .156-.313.291.291 0 0 1 .219-.11c.074 0 .14.016.203.048.055.031.094.07.125.11a.53.53 0 0 1 .094.187c.012.074.016.156.016.25 0 .136-.016.25-.047.343a.405.405 0 0 1-.157.204.504.504 0 0 1-.359.125v.28c.105 0 .2-.007.281-.03a.493.493 0 0 0 .203-.11A.82.82 0 0 0 0-.609c.05-.133.078-.297.078-.485a1.45 1.45 0 0 0-.047-.375.732.732 0 0 0-.25-.39.914.914 0 0 0-.156-.094.916.916 0 0 0-.266-.063.687.687 0 0 0-.375.141.712.712 0 0 0-.218.375l-.157.578c-.02.074-.039.137-.062.188a.343.343 0 0 1-.094.14c-.039.043-.11.063-.203.063a.385.385 0 0 1-.156-.031.428.428 0 0 1-.125-.11.297.297 0 0 1-.078-.156.872.872 0 0 1-.032-.235.67.67 0 0 1 .125-.421.429.429 0 0 1 .344-.157zm0 0"/></symbol><symbol overflow="visible" id="y"><path d="M0-2.406L-2.36-3v.328l1.922.438-1.921.53v.329l1.921.531-1.921.438v.328L0-.672V-1l-1.938-.531L0-2.078zm0 0"/></symbol><symbol overflow="visible" id="z"><path d="M-1.64-.844H0v-.281h-2.297v.188a.817.817 0 0 1 .219.078c.055.03.094.07.125.109a.541.541 0 0 1 .078.172c.012.062.023.148.031.25h.203zm0 0"/></symbol><symbol overflow="visible" id="A"><path d="M-.422-2.453v1.812a.66.66 0 0 1-.187-.046.985.985 0 0 1-.172-.11 1.001 1.001 0 0 1-.172-.187 1.918 1.918 0 0 1-.172-.282l-.266-.484a1.703 1.703 0 0 0-.453-.547 1.003 1.003 0 0 0-.593-.187.87.87 0 0 0-.391.093.961.961 0 0 0-.344.235 1 1 0 0 0-.203.344c-.04.125-.063.273-.063.437 0 .219.04.414.11.578A.897.897 0 0 0-3-.422a.81.81 0 0 0 .281.125c.086.024.164.04.235.047.074 0 .152.008.234.016v-.438a1.89 1.89 0 0 1-.281-.015.514.514 0 0 1-.203-.094.523.523 0 0 1-.235-.235.792.792 0 0 1-.11-.343.983.983 0 0 1 .063-.266.619.619 0 0 1 .141-.219.5.5 0 0 1 .203-.14.527.527 0 0 1 .25-.063c.274 0 .496.156.672.469l.25.453c.105.18.21.328.313.453.093.117.199.211.312.281.117.075.246.133.39.172.137.032.297.047.485.047v-2.281zm0 0"/></symbol><symbol overflow="visible" id="B"><path d="M1.078-1.578h.234c.47 0 .704.21.704.625 0 .219-.063.39-.188.515-.125.118-.297.172-.516.172-.242 0-.417-.054-.53-.171C.663-.564.597-.75.577-1H.156c.008.137.024.258.047.36.02.093.055.18.11.25a.794.794 0 0 0 .374.374c.165.082.368.125.61.125.176 0 .332-.027.469-.078.144-.039.27-.11.375-.203a.928.928 0 0 0 .234-.344c.05-.132.078-.285.078-.453a.891.891 0 0 0-.14-.515c-.086-.133-.231-.235-.438-.297.32-.125.484-.364.484-.719a.968.968 0 0 0-.078-.39.763.763 0 0 0-.203-.297.973.973 0 0 0-.344-.188 1.408 1.408 0 0 0-.421-.063c-.356 0-.625.094-.813.282-.18.187-.266.465-.266.828h.422c0-.102.004-.188.016-.25a.56.56 0 0 1 .281-.406.992.992 0 0 1 .36-.094c.187.012.332.07.437.172a.55.55 0 0 1 .172.422.506.506 0 0 1-.078.296.406.406 0 0 1-.203.172.73.73 0 0 1-.11.032.64.64 0 0 1-.14.03 1.99 1.99 0 0 1-.313.016zm0 0"/></symbol><symbol overflow="visible" id="C"><path d="M1.25-2.453V0h.438v-3.438h-.282c-.043.126-.086.231-.125.313a.453.453 0 0 1-.14.203.939.939 0 0 1-.25.11c-.106.023-.235.039-.391.046v.313zm0 0"/></symbol><symbol overflow="visible" id="L"><path d="M-1.078-2.14v.828h-.828v.28h.828v.829h.281v-.828h.844v-.282h-.844v-.828zm0 0"/></symbol></defs><path d="M266.64 196.262v-3.063M266.64 193.2l1.56-1.5M268.2 191.7l1.5 1.5M269.7 193.2v3.062M266.64 193.98h3.06M278.82 192.48l-.78-.78M278.04 191.7h-1.5M276.54 191.7l-.778.78M275.762 192.48v.72M275.762 193.2l.777.78M276.54 193.98h1.5M278.04 193.98l.78.782M278.82 194.762v.718M278.82 195.48l-.78.782M278.04 196.262h-1.5M276.54 196.262l-.778-.782M280.32 193.2h.782M281.102 193.2v3.062M280.32 196.262h1.559M281.102 190.922v.777M283.379 196.262v-3.063M283.379 193.2h.781M284.16 193.2l.719.78M284.879 193.98v2.282M284.879 193.98l.781-.78M285.66 193.2l.781.78M286.441 193.98v2.282M287.941 197.762v-4.563M287.941 193.2h2.278M290.219 193.2l.781.78M291 193.98v1.5M291 195.48l-.781.782M290.219 196.262h-2.278M292.5 191.7h.781M293.281 191.7v4.562M292.5 196.262h1.5M297.84 196.262h-1.559M296.281 196.262l-.722-.782M295.559 195.48v-1.5M295.559 193.98l.722-.78M296.281 193.2h1.559M297.84 193.2l.719.78M298.559 193.98v.782M298.559 194.762h-3M304.68 196.262v-3.063M304.68 193.2l1.5-1.5M306.18 191.7l1.5 1.5M307.68 193.2v3.062M304.68 193.98h3M309.238 193.2v2.28M309.238 195.48l.723.782M309.96 196.262h2.278M312.238 196.262v-3.063M316.8 191.7v4.562M316.8 196.262h-2.28M314.52 196.262l-.72-.782M313.8 195.48v-1.5M313.8 193.98l.72-.78M314.52 193.2h2.28M318.36 193.2h.718M319.078 193.2v3.062M318.36 196.262h1.5M319.078 190.922v.777M322.14 196.262h1.5M323.64 196.262l.782-.782M324.422 195.48v-1.5M324.422 193.98l-.781-.78M323.64 193.2h-1.5M322.14 193.2l-.78.78M321.36 193.98v1.5M321.36 195.48l.78.782M330.48 196.262v-3.063M330.48 193.2l1.5-1.5M331.98 191.7l1.56 1.5M333.54 193.2v3.062M330.48 193.98h3.06M335.04 196.262v-3.063M335.04 193.2h.78M335.82 193.2l.72.78M336.54 193.98v2.282M336.54 193.98l.78-.78M337.32 193.2l.782.78M338.102 193.98v2.282M339.602 197.762v-4.563M339.602 193.2h2.277M341.879 193.2l.781.78M342.66 193.98v1.5M342.66 195.48l-.781.782M341.879 196.262h-2.277M344.16 191.7h.781M344.941 191.7v4.562M344.16 196.262h1.5M347.219 193.2h.722M347.941 193.2v3.062M347.219 196.262h1.5M347.941 190.922v.777M351 196.262v-3.782M351 192.48l.781-.78M350.219 193.98h1.562M353.281 193.2h.778M354.059 193.2v3.062M353.281 196.262h1.5M354.059 190.922v.777M358.621 196.262h-1.562M357.059 196.262l-.72-.782M356.34 195.48v-1.5M356.34 193.98l.719-.78M357.059 193.2h1.562M358.621 193.2l.719.78M359.34 193.98v.782M359.34 194.762h-3M360.898 196.262v-3.063M360.898 194.762l1.5-1.563M362.398 193.2h.782M370.02 196.262v-3.782M370.02 192.48l.718-.78M369.238 193.98h1.5M373.02 196.262h1.558M374.578 196.262l.723-.782M375.3 195.48v-1.5M375.3 193.98l-.722-.78M374.578 193.2h-1.558M373.02 193.2l-.72.78M372.3 193.98v1.5M372.3 195.48l.72.782M376.86 196.262v-3.063M376.86 194.762l1.5-1.563M378.36 193.2h.78M385.2 193.2v2.28M385.2 195.48l.78.782M385.98 196.262h2.282M388.262 193.2v3.84M388.262 197.04l-.782.722M387.48 197.762h-.78M390.54 196.262h1.5M392.04 196.262l.78-.782M392.82 195.48v-1.5M392.82 193.98l-.78-.78M392.04 193.2h-1.5M390.54 193.2l-.778.78M389.762 193.98v1.5M389.762 195.48l.777.782M394.32 193.2v2.28M394.32 195.48l.782.782M395.102 196.262h2.277M397.379 196.262v-3.063M398.879 196.262v-3.063M398.879 194.762l1.5-1.563M400.379 193.2h.781M407.219 196.262v-3.063M407.219 194.762l1.562-1.563M408.781 193.2h.719M411.781 193.2h1.559M413.34 193.2l.719.78M414.059 193.98v2.282M414.059 196.262h-2.278M411.781 196.262l-.722-.782M411.059 195.48l.722-.718M411.781 194.762h2.278M418.621 191.7v4.562M418.621 196.262h-2.281M416.34 196.262l-.719-.782M415.621 195.48v-1.5M415.621 193.98l.719-.78M416.34 193.2h2.281M420.18 193.2h.718M420.898 193.2v3.062M420.18 196.262h1.5M420.898 190.922v.777M423.96 196.262h1.5M425.46 196.262l.778-.782M426.238 195.48v-1.5M426.238 193.98l-.777-.78M425.46 193.2h-1.5M423.96 193.2l-.78.78M423.18 193.98v1.5M423.18 195.48l.78.782M432.3 197.762v-4.563M432.3 193.2h2.278M434.578 193.2l.781.78M435.36 193.98v1.5M435.36 195.48l-.782.782M434.578 196.262h-2.277M436.86 196.262v-3.063M436.86 194.762l1.5-1.563M438.36 193.2h.78M441.422 196.262h1.5M442.922 196.262l.777-.782M443.7 195.48v-1.5M443.7 193.98l-.778-.78M442.922 193.2h-1.5M441.422 193.2l-.781.78M440.64 193.98v1.5M440.64 195.48l.782.782M445.2 197.762h.78M445.98 197.762l.782-.723M446.762 197.04v-3.84M446.762 190.922v.777M450.54 196.262h-1.5M449.04 196.262l-.778-.782M448.262 195.48v-1.5M448.262 193.98l.777-.78M449.04 193.2h1.5M450.54 193.2l.78.78M451.32 193.98v.782M451.32 194.762h-3.058M455.879 193.2h-2.277M453.602 193.2l-.782.78M452.82 193.98v1.5M452.82 195.48l.782.782M453.602 196.262h2.277M458.16 192.48v3M458.16 195.48l.719.782M457.379 193.2h1.5M460.441 196.262h2.278M462.719 196.262l.722-.782M463.441 195.48l-.722-.718M462.719 194.762h-1.559M461.16 194.762l-.719-.782M460.441 193.98l.72-.78M461.16 193.2h2.281M266.64 203.7v-4.56M266.64 199.14l3.06 4.56M269.7 203.7v-4.56M271.98 203.7h1.5M273.48 203.7l.782-.778M274.262 202.922v-1.5M274.262 201.422l-.782-.781M273.48 200.64h-1.5M271.98 200.64l-.78.782M271.2 201.422v1.5M271.2 202.922l.78.777M275.762 200.64l1.558 3.06M277.32 203.7l1.5-3.06M280.32 203.7v-.778M280.32 202.922h.782M281.102 202.922v.777M281.102 203.7h-.782M290.219 203.7h-3.059M287.16 203.7l3.059-3.06M290.219 200.64v-.78M290.219 199.86l-.778-.72M289.441 199.14h-1.5M287.941 199.14l-.78.72M291.719 199.86l.781-.72M292.5 199.14h1.5M294 199.14l.781.72M294.781 199.86v.78M294.781 200.64l-.781.782M294 201.422h-.719M294 201.422l.781.719M294.781 202.14v.782M294.781 202.922l-.781.777M294 203.7h-1.5M292.5 203.7l-.781-.778M296.281 205.2l1.559-1.5M297.84 203.7v-.778M297.84 202.922h-.781M297.059 202.922v.777M297.059 203.7h.78M306.898 203.7h-3M303.898 203.7l3-3.06M306.898 200.64v-.78M306.898 199.86l-.718-.72M306.18 199.14h-1.5M304.68 199.14l-.782.72M308.46 202.922v-3.063M308.46 199.86l.778-.72M309.238 199.14h1.5M310.738 199.14l.723.72M311.46 199.86v3.062M311.46 202.922l-.722.777M310.738 203.7h-1.5M309.238 203.7l-.777-.778M308.46 202.922l3-3.063M313.02 202.922v-3.063M313.02 199.86l.718-.72M313.738 199.14h1.563M315.3 199.14l.72.72M316.02 199.86v3.062M316.02 202.922l-.72.777M315.3 203.7h-1.562M313.738 203.7l-.718-.778M313.02 202.922l3-3.063M319.86 203.7v-4.56M319.86 199.14l-2.282 2.282M317.578 201.422h3M326.7 199.14v4.56M326.7 203.7h2.28M328.98 203.7l.72-.778M329.7 202.922v-1.5M329.7 201.422l-.72-.781M328.98 200.64h-2.28M331.262 200.64v2.282M331.262 202.922l.718.777M331.98 203.7h2.282M334.262 200.64v3.782M334.262 204.422l-.723.777M333.54 205.2h-.778M340.379 203.7v-4.56M340.379 199.14h2.281M342.66 199.14l.719.72M343.379 199.86v1.562M343.379 201.422l-.719.719M342.66 202.14h-2.281M341.879 202.14l1.5 1.56M344.941 200.64h.72M345.66 200.64v3.06M344.941 203.7h1.5M345.66 198.36v.78M351 200.64h-2.281M348.719 200.64l-.778.782M347.941 201.422v1.5M347.941 202.922l.778.777M348.719 203.7H351M352.5 203.7v-4.56M354.781 203.7l-2.281-1.56M352.5 202.14l2.281-1.5M360.898 203.7v-3.06M360.898 200.64l1.5-1.5M362.398 199.14l1.5 1.5M363.898 200.64v3.06M360.898 201.422h3M365.46 203.7v-3.06M365.46 200.64h2.278M367.738 200.64l.723.782M368.46 201.422v2.277M373.02 199.14v4.56M373.02 203.7h-2.282M370.738 203.7l-.718-.778M370.02 202.922v-1.5M370.02 201.422l.718-.781M370.738 200.64h2.282M376.86 203.7h-1.56M375.3 203.7l-.722-.778M374.578 202.922v-1.5M374.578 201.422l.723-.781M375.3 200.64h1.56M376.86 200.64l.718.782M377.578 201.422v.719M377.578 202.14h-3M379.14 203.7v-3.06M379.14 202.14l1.5-1.5M380.64 200.64h.782M382.922 203.7h2.277M385.2 203.7l.78-.778M385.98 202.922l-.78-.781M385.2 202.14h-1.5M383.7 202.14l-.778-.718M382.922 201.422l.777-.781M383.7 200.64h2.28M389.762 203.7h-1.5M388.262 203.7l-.782-.778M387.48 202.922v-1.5M387.48 201.422l.782-.781M388.262 200.64h1.5M389.762 200.64l.777.782M390.54 201.422v.719M390.54 202.14h-3.06M392.04 203.7v-3.06M392.04 200.64h2.28M394.32 200.64l.782.782M395.102 201.422v2.277M266.64 213.96v4.56M266.64 216.238l.782-.718M267.422 215.52h1.5M268.922 215.52l.777.718M269.7 216.238v2.282M271.98 214.738v3.063M271.98 217.8l.782.72M271.2 215.52h1.562M275.04 214.738v3.063M275.04 217.8l.722.72M274.262 215.52h1.5M277.32 220.078v-4.558M277.32 215.52h2.282M279.602 215.52l.718.718M280.32 216.238v1.563M280.32 217.8l-.718.72M279.602 218.52h-2.282M281.879 215.52h.723M282.602 215.52v.718M282.602 216.238h-.723M281.879 216.238v-.718M281.879 217.8h.723M282.602 217.8v.72M282.602 218.52h-.723M281.879 218.52v-.72M284.16 218.52l3-4.56M288.719 218.52l3-4.56M293.281 215.52v2.28M293.281 217.8l.719.72M294 218.52l.781-.72M294.781 217.8l.778.72M295.559 218.52l.722-.72M296.281 217.8v-2.28M297.84 215.52v2.28M297.84 217.8l.719.72M298.559 218.52l.78-.72M299.34 217.8l.719.72M300.059 218.52l.78-.72M300.84 217.8v-2.28M302.398 215.52v2.28M302.398 217.8l.723.72M303.121 218.52l.777-.72M303.898 217.8l.723.72M304.621 218.52l.777-.72M305.398 217.8v-2.28M306.96 218.52v-.72M306.96 217.8h.72M307.68 217.8v.72M307.68 218.52h-.72M309.238 218.52v-4.56M311.46 218.52l-2.222-1.5M309.238 217.02l2.223-1.5M315.3 218.52h-1.562M313.738 218.52l-.718-.72M313.02 217.8v-1.562M313.02 216.238l.718-.718M313.738 215.52h1.563M315.3 215.52l.72.718M316.02 216.238v.782M316.02 217.02h-3M317.578 214.738l.723-.777M318.3 213.96h1.56M319.86 213.96l.718.778M320.578 214.738v.782M320.578 215.52l-.719.718M319.86 216.238h-.782M319.86 216.238l.718.782M320.578 217.02v.78M320.578 217.8l-.719.72M319.86 218.52h-1.56M318.3 218.52l-.722-.72M322.14 215.52h.72M322.86 215.52v3M322.14 218.52h1.5M322.86 213.238v.723M325.14 220.078h.782M325.922 220.078l.777-.777M326.7 219.3v-3.78M326.7 213.238v.723M328.2 218.52v-.72M328.2 217.8h.78M328.98 217.8v.72M328.98 218.52h-.78M333.54 215.52h-2.278M331.262 215.52l-.782.718M330.48 216.238v1.563M330.48 217.8l.782.72M331.262 218.52h2.277M335.82 218.52h1.5M337.32 218.52l.782-.72M338.102 217.8v-1.562M338.102 216.238l-.782-.718M337.32 215.52h-1.5M335.82 215.52l-.78.718M335.04 216.238v1.563M335.04 217.8l.78.72M339.602 218.52v-3M339.602 215.52h.777M340.379 215.52l.723.718M341.102 216.238v2.282M341.102 216.238l.777-.718M341.879 215.52l.781.718M342.66 216.238v2.282M344.16 218.52l3.059-4.56M349.5 215.52h1.5M351 215.52l.781.718M351.781 216.238v2.282M351.781 218.52H349.5M349.5 218.52l-.781-.72M348.719 217.8l.781-.78M349.5 217.02h2.281M353.281 218.52v-3M353.281 215.52h.778M354.059 215.52l.722.718M354.781 216.238v2.282M354.781 216.238l.778-.718M355.559 215.52l.78.718M356.34 216.238v2.282M357.84 220.078v-4.558M357.84 215.52h2.281M360.121 215.52l.777.718M360.898 216.238v1.563M360.898 217.8l-.777.72M360.121 218.52h-2.281M362.398 218.52v-.72M362.398 217.8h.782M363.18 217.8v.72M363.18 218.52h-.782M364.68 213.96v4.56M364.68 216.238l.78-.718M365.46 215.52h1.5M366.96 215.52l.778.718M367.738 216.238v2.282M370.02 214.738v3.063M370.02 217.8l.718.72M369.238 215.52h1.5M372.3 218.52v-3M372.3 215.52h.72M373.02 215.52l.78.718M373.8 216.238v2.282M373.8 216.238l.778-.718M374.578 215.52l.723.718M375.3 216.238v2.282" fill="none" stroke-width=".42000000000000004" stroke-linecap="round" stroke-linejoin="round" stroke="gray" stroke-miterlimit="10"/><use xlink:href="#a" x="344.759" y="379.934" fill="gray"/><use xlink:href="#b" x="346.979" y="379.934" fill="gray"/><use xlink:href="#c" x="349.859" y="379.934" fill="gray"/><use xlink:href="#d" x="352.079" y="379.934" fill="gray"/><use xlink:href="#e" x="354.299" y="379.934" fill="gray"/><use xlink:href="#f" x="356.519" y="379.934" fill="gray"/><use xlink:href="#c" x="319.652" y="352.588" fill="gray"/><use xlink:href="#d" x="321.872" y="352.588" fill="gray"/><use xlink:href="#e" x="324.092" y="352.588" fill="gray"/><use xlink:href="#g" x="326.312" y="352.588" fill="gray"/><use xlink:href="#f" x="290.805" y="377.92" fill="gray"/><use xlink:href="#h" x="293.025" y="377.92" fill="gray"/><use xlink:href="#e" x="295.245" y="377.92" fill="gray"/><use xlink:href="#i" x="297.465" y="377.92" fill="gray"/><use xlink:href="#j" x="336.865" y="398.358" fill="gray"/><use xlink:href="#b" x="339.985" y="398.358" fill="gray"/><use xlink:href="#k" x="342.865" y="398.358" fill="gray"/><use xlink:href="#a" x="402.334" y="362.663" fill="gray"/><use xlink:href="#b" x="404.554" y="362.663" fill="gray"/><use xlink:href="#c" x="407.434" y="362.663" fill="gray"/><use xlink:href="#d" x="409.654" y="362.663" fill="gray"/><use xlink:href="#e" x="411.874" y="362.663" fill="gray"/><use xlink:href="#f" x="414.094" y="362.663" fill="gray"/><use xlink:href="#c" x="377.227" y="335.317" fill="gray"/><use xlink:href="#d" x="379.447" y="335.317" fill="gray"/><use xlink:href="#e" x="381.667" y="335.317" fill="gray"/><use xlink:href="#g" x="383.887" y="335.317" fill="gray"/><use xlink:href="#f" x="348.38" y="360.649" fill="gray"/><use xlink:href="#h" x="350.6" y="360.649" fill="gray"/><use xlink:href="#e" x="352.82" y="360.649" fill="gray"/><use xlink:href="#i" x="355.039" y="360.649" fill="gray"/><use xlink:href="#j" x="394.44" y="398.358" fill="gray"/><use xlink:href="#b" x="397.559" y="398.358" fill="gray"/><use xlink:href="#k" x="400.439" y="398.358" fill="gray"/><use xlink:href="#a" x="471.424" y="345.391" fill="gray"/><use xlink:href="#b" x="473.644" y="345.391" fill="gray"/><use xlink:href="#c" x="476.524" y="345.391" fill="gray"/><use xlink:href="#d" x="478.744" y="345.391" fill="gray"/><use xlink:href="#e" x="480.964" y="345.391" fill="gray"/><use xlink:href="#f" x="483.184" y="345.391" fill="gray"/><use xlink:href="#c" x="480.862" y="295.017" fill="gray"/><use xlink:href="#d" x="483.082" y="295.017" fill="gray"/><use xlink:href="#e" x="485.302" y="295.017" fill="gray"/><use xlink:href="#g" x="487.522" y="295.017" fill="gray"/><use xlink:href="#f" x="405.954" y="343.378" fill="gray"/><use xlink:href="#h" x="408.174" y="343.378" fill="gray"/><use xlink:href="#e" x="410.395" y="343.378" fill="gray"/><use xlink:href="#i" x="412.615" y="343.378" fill="gray"/><use xlink:href="#j" x="463.529" y="398.358" fill="gray"/><use xlink:href="#b" x="466.649" y="398.358" fill="gray"/><use xlink:href="#k" x="469.529" y="398.358" fill="gray"/><use xlink:href="#a" x="430.184" y="335.317" fill="gray"/><use xlink:href="#h" x="432.404" y="335.317" fill="gray"/><use xlink:href="#g" x="434.624" y="335.317" fill="gray"/><use xlink:href="#f" x="355.699" y="305.093" fill="gray"/><use xlink:href="#l" x="357.918" y="305.093" fill="gray"/><use xlink:href="#h" x="359.058" y="305.093" fill="gray"/><use xlink:href="#g" x="361.279" y="305.093" fill="gray"/><use xlink:href="#m" x="320.251" y="305.093" fill="gray"/><use xlink:href="#e" x="322.471" y="305.093" fill="gray"/><use xlink:href="#i" x="324.691" y="305.093" fill="gray"/><use xlink:href="#f" x="413.273" y="287.822" fill="gray"/><use xlink:href="#l" x="415.493" y="287.822" fill="gray"/><use xlink:href="#h" x="416.633" y="287.822" fill="gray"/><use xlink:href="#g" x="418.853" y="287.822" fill="gray"/><use xlink:href="#m" x="377.826" y="287.822" fill="gray"/><use xlink:href="#e" x="380.046" y="287.822" fill="gray"/><use xlink:href="#i" x="382.266" y="287.822" fill="gray"/><use xlink:href="#m" x="473.727" y="302.79" fill="gray"/><use xlink:href="#b" x="475.947" y="302.79" fill="gray"/><use xlink:href="#f" x="478.827" y="302.79" fill="gray"/><use xlink:href="#m" x="481.047" y="302.79" fill="gray"/><use xlink:href="#f" x="483.267" y="302.79" fill="gray"/><use xlink:href="#n" x="485.487" y="302.79" fill="gray"/><use xlink:href="#c" x="487.707" y="302.79" fill="gray"/><use xlink:href="#f" x="489.927" y="302.79" fill="gray"/><use xlink:href="#o" x="492.147" y="302.79" fill="gray"/><use xlink:href="#a" x="493.467" y="302.79" fill="gray"/><use xlink:href="#p" x="495.687" y="302.79" fill="gray"/><use xlink:href="#q" x="496.827" y="302.79" fill="gray"/><use xlink:href="#o" x="499.047" y="302.79" fill="gray"/><use xlink:href="#r" x="500.367" y="302.79" fill="gray"/><use xlink:href="#a" x="505.968" y="282.063" fill="gray"/><use xlink:href="#b" x="508.189" y="282.063" fill="gray"/><use xlink:href="#c" x="511.069" y="282.063" fill="gray"/><use xlink:href="#d" x="513.289" y="282.063" fill="gray"/><use xlink:href="#e" x="515.509" y="282.063" fill="gray"/><use xlink:href="#f" x="517.729" y="282.063" fill="gray"/><use xlink:href="#a" x="505.393" y="325.243" fill="gray"/><use xlink:href="#b" x="507.613" y="325.243" fill="gray"/><use xlink:href="#c" x="510.493" y="325.243" fill="gray"/><use xlink:href="#d" x="512.713" y="325.243" fill="gray"/><use xlink:href="#e" x="514.933" y="325.243" fill="gray"/><use xlink:href="#s" x="517.153" y="325.243" fill="gray"/><use xlink:href="#j" x="498.074" y="398.358" fill="gray"/><use xlink:href="#b" x="501.194" y="398.358" fill="gray"/><use xlink:href="#k" x="504.074" y="398.358" fill="gray"/><use xlink:href="#a" x="457.47" y="259.036" fill="gray"/><use xlink:href="#l" x="459.691" y="259.036" fill="gray"/><use xlink:href="#a" x="460.831" y="259.036" fill="gray"/><use xlink:href="#g" x="463.051" y="259.036" fill="gray"/><use xlink:href="#m" x="289.902" y="253.279" fill="gray"/><use xlink:href="#e" x="292.122" y="253.279" fill="gray"/><use xlink:href="#e" x="294.342" y="253.279" fill="gray"/><use xlink:href="#e" x="296.563" y="253.279" fill="gray"/><use xlink:href="#t" x="298.782" y="253.279" fill="gray"/><use xlink:href="#j" x="302.32" y="271.702" fill="gray"/><use xlink:href="#b" x="305.44" y="271.702" fill="gray"/><use xlink:href="#k" x="308.32" y="271.702" fill="gray"/><use xlink:href="#m" x="366.732" y="237.446" fill="gray"/><use xlink:href="#e" x="368.952" y="237.446" fill="gray"/><use xlink:href="#e" x="371.172" y="237.446" fill="gray"/><use xlink:href="#j" x="544.134" y="398.358" fill="gray"/><use xlink:href="#b" x="547.254" y="398.358" fill="gray"/><use xlink:href="#k" x="550.134" y="398.358" fill="gray"/><use xlink:href="#j" x="290.805" y="404.115" fill="gray"/><use xlink:href="#b" x="293.925" y="404.115" fill="gray"/><use xlink:href="#k" x="296.805" y="404.115" fill="gray"/><use xlink:href="#f" x="526.862" y="302.214" fill="gray"/><use xlink:href="#h" x="529.082" y="302.214" fill="gray"/><use xlink:href="#e" x="531.302" y="302.214" fill="gray"/><use xlink:href="#t" x="533.522" y="302.214" fill="gray"/><use xlink:href="#j" x="544.135" y="329.273" fill="gray"/><use xlink:href="#b" x="547.255" y="329.273" fill="gray"/><use xlink:href="#k" x="550.135" y="329.273" fill="gray"/><use xlink:href="#u" x="327.414" y="362.662" fill="gray"/><use xlink:href="#m" x="329.874" y="362.662" fill="gray"/><use xlink:href="#v" x="321.513" y="347.752" fill="gray"/><use xlink:href="#m" x="324.393" y="347.752" fill="gray"/><use xlink:href="#w" x="292.666" y="362.662" fill="gray"/><use xlink:href="#m" x="295.546" y="362.662" fill="gray"/><use xlink:href="#u" x="384.988" y="345.391" fill="gray"/><use xlink:href="#a" x="387.449" y="345.391" fill="gray"/><use xlink:href="#v" x="379.088" y="330.48" fill="gray"/><use xlink:href="#a" x="381.968" y="330.48" fill="gray"/><use xlink:href="#w" x="350.24" y="345.391" fill="gray"/><use xlink:href="#a" x="353.12" y="345.391" fill="gray"/><use xlink:href="#u" x="454.078" y="328.119" fill="gray"/><use xlink:href="#c" x="456.538" y="328.119" fill="gray"/><use xlink:href="#v" x="482.722" y="290.18" fill="gray"/><use xlink:href="#c" x="485.603" y="290.18" fill="gray"/><use xlink:href="#w" x="407.815" y="328.119" fill="gray"/><use xlink:href="#c" x="410.696" y="328.119" fill="gray"/><use xlink:href="#v" x="430.905" y="330.48" fill="gray"/><use xlink:href="#f" x="433.785" y="330.48" fill="gray"/><use xlink:href="#v" x="355.699" y="296.455" fill="gray"/><use xlink:href="#q" x="358.579" y="296.455" fill="gray"/><use xlink:href="#w" x="321.812" y="296.455" fill="gray"/><use xlink:href="#f" x="324.692" y="296.455" fill="gray"/><use xlink:href="#v" x="413.274" y="279.184" fill="gray"/><use xlink:href="#s" x="416.154" y="279.184" fill="gray"/><use xlink:href="#w" x="379.387" y="279.184" fill="gray"/><use xlink:href="#q" x="382.267" y="279.184" fill="gray"/><use xlink:href="#k" x="473.727" y="307.971" fill="gray"/><use xlink:href="#m" x="476.608" y="307.971" fill="gray"/><use xlink:href="#k" x="473.727" y="284.942" fill="gray"/><use xlink:href="#a" x="476.608" y="284.942" fill="gray"/><use xlink:href="#u" x="488.623" y="264.791" fill="gray"/><use xlink:href="#f" x="491.083" y="264.791" fill="gray"/><use xlink:href="#u" x="505.393" y="310.848" fill="gray"/><use xlink:href="#q" x="507.854" y="310.848" fill="gray"/><use xlink:href="#v" x="459.991" y="250.399" fill="gray"/><use xlink:href="#h" x="462.871" y="250.399" fill="gray"/><use xlink:href="#w" x="295.903" y="244.641" fill="gray"/><use xlink:href="#s" x="298.784" y="244.641" fill="gray"/><use xlink:href="#v" x="367.573" y="232.609" fill="gray"/><use xlink:href="#n" x="370.453" y="232.609" fill="gray"/><use xlink:href="#x" x="543.945" y="245.244" fill="gray"/><use xlink:href="#y" x="543.945" y="243.084" fill="gray"/><use xlink:href="#z" x="543.945" y="240.024" fill="gray"/><use xlink:href="#A" x="524.738" y="251.027" fill="gray"/><use xlink:href="#B" x="516.28" y="235.201" fill="gray"/><use xlink:href="#C" x="532.107" y="235.201" fill="gray"/><use xlink:href="#D" x="574.482" y="237.447" fill="gray"/><use xlink:href="#E" x="577.182" y="237.447" fill="gray"/><use xlink:href="#D" x="574.482" y="381.375" fill="gray"/><use xlink:href="#o" x="577.182" y="381.375" fill="gray"/><use xlink:href="#r" x="255.296" y="387.132" fill="gray"/><use xlink:href="#F" x="257.996" y="387.132" fill="gray"/><use xlink:href="#k" x="260.876" y="387.132" fill="gray"/><use xlink:href="#G" x="263.756" y="387.132" fill="gray"/><use xlink:href="#H" x="264.896" y="387.132" fill="gray"/><use xlink:href="#o" x="268.016" y="387.132" fill="gray"/><use xlink:href="#r" x="254.276" y="369.861" fill="gray"/><use xlink:href="#F" x="256.976" y="369.861" fill="gray"/><use xlink:href="#k" x="259.856" y="369.861" fill="gray"/><use xlink:href="#G" x="262.736" y="369.861" fill="gray"/><use xlink:href="#H" x="263.876" y="369.861" fill="gray"/><use xlink:href="#E" x="266.996" y="369.861" fill="gray"/><use xlink:href="#w" x="528.721" y="287.821" fill="gray"/><use xlink:href="#h" x="531.601" y="287.821" fill="gray"/><use xlink:href="#I" x="574.482" y="312.29" fill="gray"/><use xlink:href="#J" x="577.182" y="312.29" fill="gray"/><use xlink:href="#K" x="579.882" y="312.29" fill="gray"/><use xlink:href="#v" x="582.582" y="312.29" fill="gray"/><use xlink:href="#o" x="585.462" y="312.29" fill="gray"/><use xlink:href="#I" x="574.482" y="295.018" fill="gray"/><use xlink:href="#J" x="577.182" y="295.018" fill="gray"/><use xlink:href="#K" x="579.882" y="295.018" fill="gray"/><use xlink:href="#v" x="582.582" y="295.018" fill="gray"/><use xlink:href="#E" x="585.462" y="295.018" fill="gray"/><path d="M341.281 362.64l-5.582 2.82M338.879 371.52l1.14 1.98M340.02 373.5l-2.34.3M337.68 373.8l1.199-2.28M341.281 374.16l-1.261-.66M340.02 373.5l-3.782-1.86" fill="none" stroke-width=".36000000000000004" stroke-linecap="round" stroke-linejoin="round" stroke="maroon" stroke-miterlimit="10"/><path d="M338.281 373.5l1.32-.121M339.602 373.379l-.723-1.258" fill="none" stroke-width=".7200000000000001" stroke-linecap="round" stroke-linejoin="round" stroke="maroon" stroke-miterlimit="10"/><path d="M338.879 372.121l-.598 1.14M338.281 373.262h.84M339.121 373.262l-.242-.602" fill="none" stroke-width=".6000000000000001" stroke-linecap="round" stroke-linejoin="round" stroke="maroon" stroke-miterlimit="10"/><path d="M334.441 374.16h1.68v-11.52h-1.68zm0 0" fill="maroon" stroke-width=".12" stroke-linecap="round" stroke-linejoin="round" stroke="maroon" stroke-miterlimit="10"/><path d="M329.762 368.398h5.758M341.281 379.922v-5.762M341.281 356.879v5.762" fill="none" stroke-width=".36000000000000004" stroke-linecap="round" stroke-linejoin="round" stroke="maroon" stroke-miterlimit="10"/><path d="M346.559 368.398a8.161 8.161 0 0 1-16.32 0 8.164 8.164 0 0 1 8.16-8.16 8.161 8.161 0 0 1 8.16 8.16zm0 0" fill="none" stroke-width=".9" stroke-linecap="round" stroke-linejoin="round" stroke="maroon" stroke-miterlimit="10"/><path d="M335.52 351.121h-5.758M312.54 351.121h5.76" fill="none" stroke-width=".36000000000000004" stroke-linecap="round" stroke-linejoin="round" stroke="maroon" stroke-miterlimit="10"/><path d="M318.3 353.16h11.462M329.762 349.14H318.3M329.762 353.16v-4.02M318.3 353.16v-4.02" fill="none" stroke-width=".6000000000000001" stroke-linecap="round" stroke-linejoin="round" stroke="maroon" stroke-miterlimit="10"/><path d="M301.02 368.398H297M289.5 368.398h4.02" fill="none" stroke-width=".36000000000000004" stroke-linecap="round" stroke-linejoin="round" stroke="maroon" stroke-miterlimit="10"/><path d="M295.8 372.422h1.2v-8.043h-1.2zm0 0M293.52 372.422h1.199v-8.043h-1.2zm0 0" fill="maroon" stroke-width=".12" stroke-linecap="round" stroke-linejoin="round" stroke="maroon" stroke-miterlimit="10"/><path d="M337.559 391.441h7.5" fill="none" stroke-width=".6000000000000001" stroke-linecap="round" stroke-linejoin="round" stroke="maroon" stroke-miterlimit="10"/><path d="M341.281 385.68v5.761" fill="none" stroke-width=".36000000000000004" stroke-linecap="round" stroke-linejoin="round" stroke="maroon" stroke-miterlimit="10"/><path d="M339 392.578h4.621M340.441 393.781h1.739" fill="none" stroke-width=".6000000000000001" stroke-linecap="round" stroke-linejoin="round" stroke="maroon" stroke-miterlimit="10"/><path d="M398.879 345.422l-5.64 2.758M396.422 354.238l1.137 2.043M397.559 356.281l-2.278.239M395.281 356.52l1.14-2.282M398.879 356.879l-1.32-.598M397.559 356.281l-3.72-1.922" fill="none" stroke-width=".36000000000000004" stroke-linecap="round" stroke-linejoin="round" stroke="maroon" stroke-miterlimit="10"/><path d="M395.879 356.281l1.262-.18M397.14 356.102l-.718-1.262" fill="none" stroke-width=".7200000000000001" stroke-linecap="round" stroke-linejoin="round" stroke="maroon" stroke-miterlimit="10"/><path d="M396.422 354.84l-.543 1.14M395.879 355.98h.84M396.719 355.98l-.297-.601" fill="none" stroke-width=".6000000000000001" stroke-linecap="round" stroke-linejoin="round" stroke="maroon" stroke-miterlimit="10"/><path d="M391.98 356.879h1.68v-11.52h-1.68zm0 0" fill="maroon" stroke-width=".12" stroke-linecap="round" stroke-linejoin="round" stroke="maroon" stroke-miterlimit="10"/><path d="M387.36 351.121h5.761M398.879 362.64v-5.761M398.879 339.66v5.762" fill="none" stroke-width=".36000000000000004" stroke-linecap="round" stroke-linejoin="round" stroke="maroon" stroke-miterlimit="10"/><path d="M404.16 351.121a8.159 8.159 0 0 1-8.16 8.16 8.159 8.159 0 0 1-8.16-8.16 8.159 8.159 0 0 1 8.16-8.16 8.159 8.159 0 0 1 8.16 8.16zm0 0" fill="none" stroke-width=".9" stroke-linecap="round" stroke-linejoin="round" stroke="maroon" stroke-miterlimit="10"/><path d="M393.121 333.898h-5.762M370.078 333.898h5.762" fill="none" stroke-width=".36000000000000004" stroke-linecap="round" stroke-linejoin="round" stroke="maroon" stroke-miterlimit="10"/><path d="M375.84 335.879h11.52M387.36 331.86h-11.52M387.36 335.879v-4.02M375.84 335.879v-4.02" fill="none" stroke-width=".6000000000000001" stroke-linecap="round" stroke-linejoin="round" stroke="maroon" stroke-miterlimit="10"/><path d="M358.559 351.121h-4.02M347.04 351.121h4.081" fill="none" stroke-width=".36000000000000004" stroke-linecap="round" stroke-linejoin="round" stroke="maroon" stroke-miterlimit="10"/><path d="M353.398 355.14h1.204v-8.038h-1.204zm0 0M351.059 355.14h1.203v-8.038h-1.203zm0 0" fill="maroon" stroke-width=".12" stroke-linecap="round" stroke-linejoin="round" stroke="maroon" stroke-miterlimit="10"/><path d="M395.16 391.441h7.442" fill="none" stroke-width=".6000000000000001" stroke-linecap="round" stroke-linejoin="round" stroke="maroon" stroke-miterlimit="10"/><path d="M398.879 385.68v5.761" fill="none" stroke-width=".36000000000000004" stroke-linecap="round" stroke-linejoin="round" stroke="maroon" stroke-miterlimit="10"/><path d="M396.602 392.578h4.558M398.04 393.781h1.679" fill="none" stroke-width=".6000000000000001" stroke-linecap="round" stroke-linejoin="round" stroke="maroon" stroke-miterlimit="10"/><path d="M467.941 328.14l-5.582 2.758M465.54 336.96l1.14 2.04M466.68 339l-2.282.3M464.398 339.3l1.141-2.34M467.941 339.66l-1.261-.66M466.68 339l-3.782-1.922" fill="none" stroke-width=".36000000000000004" stroke-linecap="round" stroke-linejoin="round" stroke="maroon" stroke-miterlimit="10"/><path d="M464.941 339l1.32-.18M466.262 338.82l-.723-1.261" fill="none" stroke-width=".7200000000000001" stroke-linecap="round" stroke-linejoin="round" stroke="maroon" stroke-miterlimit="10"/><path d="M465.54 337.559l-.599 1.14M464.941 338.7h.899M465.84 338.7l-.3-.598" fill="none" stroke-width=".6000000000000001" stroke-linecap="round" stroke-linejoin="round" stroke="maroon" stroke-miterlimit="10"/><path d="M461.102 339.66h1.68v-11.52h-1.68zm0 0" fill="maroon" stroke-width=".12" stroke-linecap="round" stroke-linejoin="round" stroke="maroon" stroke-miterlimit="10"/><path d="M456.48 333.898h5.758M467.941 345.422v-5.762M467.941 322.379v5.762" fill="none" stroke-width=".36000000000000004" stroke-linecap="round" stroke-linejoin="round" stroke="maroon" stroke-miterlimit="10"/><path d="M473.281 333.898a8.159 8.159 0 0 1-8.16 8.16 8.161 8.161 0 1 1 8.16-8.16zm0 0" fill="none" stroke-width=".9" stroke-linecap="round" stroke-linejoin="round" stroke="maroon" stroke-miterlimit="10"/><path d="M496.738 293.578h-5.758M473.7 293.578h5.76" fill="none" stroke-width=".36000000000000004" stroke-linecap="round" stroke-linejoin="round" stroke="maroon" stroke-miterlimit="10"/><path d="M479.46 295.621h11.52M490.98 291.54h-11.52M490.98 295.621v-4.082M479.46 295.621v-4.082" fill="none" stroke-width=".6000000000000001" stroke-linecap="round" stroke-linejoin="round" stroke="maroon" stroke-miterlimit="10"/><path d="M416.16 333.898h-4.02M404.64 333.898h4.02" fill="none" stroke-width=".36000000000000004" stroke-linecap="round" stroke-linejoin="round" stroke="maroon" stroke-miterlimit="10"/><path d="M410.941 337.922h1.2v-8.043h-1.2zm0 0M408.66 337.922h1.2v-8.043h-1.2zm0 0" fill="maroon" stroke-width=".12" stroke-linecap="round" stroke-linejoin="round" stroke="maroon" stroke-miterlimit="10"/><path d="M464.219 391.441h7.5" fill="none" stroke-width=".6000000000000001" stroke-linecap="round" stroke-linejoin="round" stroke="maroon" stroke-miterlimit="10"/><path d="M467.941 385.68v5.761" fill="none" stroke-width=".36000000000000004" stroke-linecap="round" stroke-linejoin="round" stroke="maroon" stroke-miterlimit="10"/><path d="M465.66 392.578h4.621M467.102 393.781h1.738" fill="none" stroke-width=".6000000000000001" stroke-linecap="round" stroke-linejoin="round" stroke="maroon" stroke-miterlimit="10"/><path d="M444.96 333.898h-5.76M421.922 333.898h5.758" fill="none" stroke-width=".36000000000000004" stroke-linecap="round" stroke-linejoin="round" stroke="maroon" stroke-miterlimit="10"/><path d="M427.68 335.879h11.52M439.2 331.86h-11.52M439.2 335.879v-4.02M427.68 335.879v-4.02" fill="none" stroke-width=".6000000000000001" stroke-linecap="round" stroke-linejoin="round" stroke="maroon" stroke-miterlimit="10"/><path d="M352.8 287.82v5.758M352.8 310.86v-5.758" fill="none" stroke-width=".36000000000000004" stroke-linecap="round" stroke-linejoin="round" stroke="maroon" stroke-miterlimit="10"/><path d="M350.82 305.102v-11.524M354.84 293.578v11.524M350.82 293.578h4.02M350.82 305.102h4.02" fill="none" stroke-width=".6000000000000001" stroke-linecap="round" stroke-linejoin="round" stroke="maroon" stroke-miterlimit="10"/><path d="M329.762 305.102v-4.024M329.762 293.578v4.024" fill="none" stroke-width=".36000000000000004" stroke-linecap="round" stroke-linejoin="round" stroke="maroon" stroke-miterlimit="10"/><path d="M325.738 301.078h8.043v-1.2h-8.043zm0 0M325.738 298.8h8.043v-1.198h-8.043zm0 0" fill="maroon" stroke-width=".12" stroke-linecap="round" stroke-linejoin="round" stroke="maroon" stroke-miterlimit="10"/><path d="M410.398 270.54v5.76M410.398 293.578v-5.758" fill="none" stroke-width=".36000000000000004" stroke-linecap="round" stroke-linejoin="round" stroke="maroon" stroke-miterlimit="10"/><path d="M408.36 287.82V276.3M412.379 276.3v11.52M408.36 276.3h4.019M408.36 287.82h4.019" fill="none" stroke-width=".6000000000000001" stroke-linecap="round" stroke-linejoin="round" stroke="maroon" stroke-miterlimit="10"/><path d="M387.36 287.82v-4.02M387.36 276.3v4.02" fill="none" stroke-width=".36000000000000004" stroke-linecap="round" stroke-linejoin="round" stroke="maroon" stroke-miterlimit="10"/><path d="M383.34 283.8h8.039v-1.198h-8.04zm0 0M383.34 281.52h8.039v-1.2h-8.04zm0 0" fill="maroon" stroke-width=".12" stroke-linecap="round" stroke-linejoin="round" stroke="maroon" stroke-miterlimit="10"/><path d="M467.941 299.34v5.762M467.941 310.86v-5.758" fill="none" stroke-width=".36000000000000004" stroke-linecap="round" stroke-linejoin="round" stroke="maroon" stroke-miterlimit="10"/><path d="M465.121 302.219l2.82 5.761M467.941 307.98l2.88-5.761M470.82 307.98h-2.879M470.82 302.219h-5.699M467.941 307.98h-2.82" fill="none" stroke-width=".6000000000000001" stroke-linecap="round" stroke-linejoin="round" stroke="maroon" stroke-miterlimit="10"/><path d="M467.941 276.3v5.759M467.941 287.82v-5.761" fill="none" stroke-width=".36000000000000004" stroke-linecap="round" stroke-linejoin="round" stroke="maroon" stroke-miterlimit="10"/><path d="M465.121 279.18l2.82 5.761M467.941 284.941l2.88-5.761M470.82 284.941h-2.879M470.82 279.18h-5.699M467.941 284.941h-2.82" fill="none" stroke-width=".6000000000000001" stroke-linecap="round" stroke-linejoin="round" stroke="maroon" stroke-miterlimit="10"/><path d="M502.5 264.781l-5.578 2.82M500.04 273.66l1.198 1.98M501.238 275.64l-2.34.301M498.898 275.941l1.141-2.28M502.5 276.3l-1.262-.66M501.238 275.64l-3.777-1.859" fill="none" stroke-width=".36000000000000004" stroke-linecap="round" stroke-linejoin="round" stroke="maroon" stroke-miterlimit="10"/><path d="M499.5 275.64l1.262-.12M500.762 275.52l-.723-1.32" fill="none" stroke-width=".7200000000000001" stroke-linecap="round" stroke-linejoin="round" stroke="maroon" stroke-miterlimit="10"/><path d="M500.04 274.2l-.54 1.198M499.5 275.398h.84M500.34 275.398l-.3-.597" fill="none" stroke-width=".6000000000000001" stroke-linecap="round" stroke-linejoin="round" stroke="maroon" stroke-miterlimit="10"/><path d="M495.602 276.3h1.68v-11.519h-1.68zm0 0" fill="maroon" stroke-width=".12" stroke-linecap="round" stroke-linejoin="round" stroke="maroon" stroke-miterlimit="10"/><path d="M490.98 270.54h5.758M502.5 282.059V276.3M502.5 259.02v5.761" fill="none" stroke-width=".36000000000000004" stroke-linecap="round" stroke-linejoin="round" stroke="maroon" stroke-miterlimit="10"/><path d="M507.781 270.54a8.159 8.159 0 0 1-8.16 8.16 8.159 8.159 0 0 1-8.16-8.16 8.159 8.159 0 0 1 8.16-8.161 8.159 8.159 0 0 1 8.16 8.16zm0 0" fill="none" stroke-width=".9" stroke-linecap="round" stroke-linejoin="round" stroke="maroon" stroke-miterlimit="10"/><path d="M501.48 312.781l-1.14-2.043M500.34 310.738l-2.399 2.524M497.941 313.262l3.54-.48M502.5 310.86l-1.621.96M502.5 322.379l-4.621-2.34" fill="none" stroke-width=".36000000000000004" stroke-linecap="round" stroke-linejoin="round" stroke="maroon" stroke-miterlimit="10"/><path d="M501.059 312.602l-.84-1.442M500.219 311.16l-1.739 1.68M498.48 312.84l2.282-.238M500.762 312.602l-.543-.903M500.219 311.7l-.899.6M499.32 312.3h.899" fill="none" stroke-width=".6000000000000001" stroke-linecap="round" stroke-linejoin="round" stroke="maroon" stroke-miterlimit="10"/><path d="M496.2 322.379h1.679v-11.52h-1.68zm0 0" fill="maroon" stroke-width=".12" stroke-linecap="round" stroke-linejoin="round" stroke="maroon" stroke-miterlimit="10"/><path d="M490.98 316.621h5.758M502.5 305.102v5.757M502.5 328.14v-5.761" fill="none" stroke-width=".36000000000000004" stroke-linecap="round" stroke-linejoin="round" stroke="maroon" stroke-miterlimit="10"/><path d="M507.781 316.621a8.159 8.159 0 0 1-8.16 8.16 8.159 8.159 0 0 1-8.16-8.16 8.159 8.159 0 0 1 8.16-8.16 8.159 8.159 0 0 1 8.16 8.16zm0 0M498.781 391.441h7.5" fill="none" stroke-width=".6000000000000001" stroke-linecap="round" stroke-linejoin="round" stroke="maroon" stroke-miterlimit="10"/><path d="M502.5 385.68v5.761" fill="none" stroke-width=".36000000000000004" stroke-linecap="round" stroke-linejoin="round" stroke="maroon" stroke-miterlimit="10"/><path d="M500.219 392.578h4.62M501.66 393.781h1.738" fill="none" stroke-width=".6000000000000001" stroke-linecap="round" stroke-linejoin="round" stroke="maroon" stroke-miterlimit="10"/><path d="M467.941 241.738v5.762M467.941 264.781v-5.761" fill="none" stroke-width=".36000000000000004" stroke-linecap="round" stroke-linejoin="round" stroke="maroon" stroke-miterlimit="10"/><path d="M469.98 259.02V247.5M465.96 247.5v11.52M469.98 247.5h-4.02M469.98 259.02h-4.02" fill="none" stroke-width=".6000000000000001" stroke-linecap="round" stroke-linejoin="round" stroke="maroon" stroke-miterlimit="10"/><use xlink:href="#L" x="304.601" y="244.642" fill="maroon"/><path d="M306.781 253.262v-4.024M306.781 241.738v3.782" fill="none" stroke-width=".36000000000000004" stroke-linecap="round" stroke-linejoin="round" stroke="maroon" stroke-miterlimit="10"/><path d="M302.16 249.54h9.238v-1.438h-9.238zm0 0" fill="maroon" stroke-width=".12" stroke-linecap="round" stroke-linejoin="round" stroke="maroon" stroke-miterlimit="10"/><path d="M302.281 245.52v1.44M302.281 246.96h8.938M311.219 246.96v-1.44M311.219 245.52h-4.438M306.781 245.52h-4.5" fill="none" stroke-width=".30000000000000004" stroke-linecap="round" stroke-linejoin="round" stroke="maroon" stroke-miterlimit="10"/><path d="M303 264.781h7.5" fill="none" stroke-width=".6000000000000001" stroke-linecap="round" stroke-linejoin="round" stroke="maroon" stroke-miterlimit="10"/><path d="M306.781 259.02v5.761" fill="none" stroke-width=".36000000000000004" stroke-linecap="round" stroke-linejoin="round" stroke="maroon" stroke-miterlimit="10"/><path d="M304.441 265.922h4.618M305.879 267.121h1.742" fill="none" stroke-width=".6000000000000001" stroke-linecap="round" stroke-linejoin="round" stroke="maroon" stroke-miterlimit="10"/><path d="M381.602 235.98h-5.762M358.559 235.98h5.761" fill="none" stroke-width=".36000000000000004" stroke-linecap="round" stroke-linejoin="round" stroke="maroon" stroke-miterlimit="10"/><path d="M364.32 238.02h11.52M375.84 234h-11.52M375.84 238.02V234M364.32 238.02V234M540.54 238.02v3.718" fill="none" stroke-width=".6000000000000001" stroke-linecap="round" stroke-linejoin="round" stroke="maroon" stroke-miterlimit="10"/><path d="M540.54 241.738h-4.321" fill="none" stroke-width=".36000000000000004" stroke-linecap="round" stroke-linejoin="round" stroke="maroon" stroke-miterlimit="10"/><path d="M540.54 241.738v3.782" fill="none" stroke-width=".6000000000000001" stroke-linecap="round" stroke-linejoin="round" stroke="maroon" stroke-miterlimit="10"/><path d="M534.781 241.738h-1.203" fill="none" stroke-width=".36000000000000004" stroke-linecap="round" stroke-linejoin="round" stroke="maroon" stroke-miterlimit="10"/><path d="M525.54 247.8v-2.28M525.54 245.52l3.722-7.5M522.66 237.719v-1.438M528.422 237.719v-1.438" fill="none" stroke-width=".6000000000000001" stroke-linecap="round" stroke-linejoin="round" stroke="maroon" stroke-miterlimit="10"/><path d="M533.578 241.738l-1.137 1.742M532.441 243.48l-1.14-1.742M525.54 253.262V247.5M514.02 235.98h5.761M537.059 235.98H531.3M529.02 241.738h-1.442" fill="none" stroke-width=".36000000000000004" stroke-linecap="round" stroke-linejoin="round" stroke="maroon" stroke-miterlimit="10"/><path d="M531.3 235.98h-2.878M522.66 235.98h-2.879M560.102 235.98h5.757M571.621 235.98a2.882 2.882 0 0 1-2.883 2.88 2.88 2.88 0 0 1 0-5.758c1.59 0 2.883 1.289 2.883 2.878zm0 0M560.102 379.922h5.757M571.621 379.922a2.882 2.882 0 0 1-2.883 2.879 2.88 2.88 0 0 1-2.879-2.88 2.88 2.88 0 1 1 5.762 0zm0 0M544.86 391.441h7.44" fill="none" stroke-width=".6000000000000001" stroke-linecap="round" stroke-linejoin="round" stroke="maroon" stroke-miterlimit="10"/><path d="M548.578 385.68v5.761" fill="none" stroke-width=".36000000000000004" stroke-linecap="round" stroke-linejoin="round" stroke="maroon" stroke-miterlimit="10"/><path d="M546.3 392.578h4.56M547.738 393.781h1.684M283.738 385.68h-5.758M277.98 385.68a2.88 2.88 0 0 1-2.878 2.879 2.88 2.88 0 1 1 2.878-2.88zm0 0M283.738 368.398h-5.758M277.98 368.398a2.88 2.88 0 1 1-5.761 0 2.88 2.88 0 0 1 2.883-2.878 2.88 2.88 0 0 1 2.878 2.878zm0 0M291.48 397.2h7.5" fill="none" stroke-width=".6000000000000001" stroke-linecap="round" stroke-linejoin="round" stroke="maroon" stroke-miterlimit="10"/><path d="M295.262 391.441v5.758" fill="none" stroke-width=".36000000000000004" stroke-linecap="round" stroke-linejoin="round" stroke="maroon" stroke-miterlimit="10"/><path d="M292.922 398.34h4.617M294.36 399.48h1.742" fill="none" stroke-width=".6000000000000001" stroke-linecap="round" stroke-linejoin="round" stroke="maroon" stroke-miterlimit="10"/><use xlink:href="#E" x="526.083" y="291.419" fill="maroon"/><path d="M537.059 293.578h-4.02M525.54 293.578h3.722" fill="none" stroke-width=".36000000000000004" stroke-linecap="round" stroke-linejoin="round" stroke="maroon" stroke-miterlimit="10"/><path d="M531.898 298.2h1.442v-9.24h-1.442zm0 0" fill="maroon" stroke-width=".12" stroke-linecap="round" stroke-linejoin="round" stroke="maroon" stroke-miterlimit="10"/><path d="M529.262 289.14h1.437M530.7 289.14v8.88M530.7 298.02h-1.438M529.262 298.02v-4.442M529.262 293.578v-4.437" fill="none" stroke-width=".30000000000000004" stroke-linecap="round" stroke-linejoin="round" stroke="maroon" stroke-miterlimit="10"/><path d="M560.102 310.86h5.757M571.621 310.86a2.882 2.882 0 0 1-2.883 2.878 2.88 2.88 0 0 1 0-5.758c1.59 0 2.883 1.29 2.883 2.88zm0 0M560.102 293.578h5.757M571.621 293.578a2.88 2.88 0 1 1-5.762 0 2.88 2.88 0 0 1 2.88-2.879c1.59 0 2.882 1.29 2.882 2.88zm0 0M544.86 322.379h7.44" fill="none" stroke-width=".6000000000000001" stroke-linecap="round" stroke-linejoin="round" stroke="maroon" stroke-miterlimit="10"/><path d="M548.578 316.621v5.758" fill="none" stroke-width=".36000000000000004" stroke-linecap="round" stroke-linejoin="round" stroke="maroon" stroke-miterlimit="10"/><path d="M546.3 323.52h4.56M547.738 324.66h1.684" fill="none" stroke-width=".6000000000000001" stroke-linecap="round" stroke-linejoin="round" stroke="maroon" stroke-miterlimit="10"/><path d="M312.54 351.121h-5.759M306.781 351.121v17.277M306.781 368.398h-5.761M306.781 368.398h22.98" fill="none" stroke-width=".36000000000000004" stroke-linecap="round" stroke-linejoin="round" stroke="green" stroke-miterlimit="10"/><path d="M307.922 368.398a1.14 1.14 0 0 1-1.14 1.141c-.634 0-1.141-.508-1.141-1.14 0-.63.507-1.137 1.14-1.137.63 0 1.14.508 1.14 1.136" fill-rule="evenodd" fill="green"/><path d="M307.922 368.398a1.14 1.14 0 0 1-1.14 1.141c-.634 0-1.141-.508-1.141-1.14 0-.63.507-1.137 1.14-1.137.63 0 1.14.508 1.14 1.136zm0 0" fill="none" stroke-width=".12" stroke-linecap="round" stroke-linejoin="round" stroke="green" stroke-miterlimit="10"/><path d="M341.281 385.68v-5.758M398.879 385.68v-23.04M467.941 385.68v-40.258M502.5 385.68v-57.54M306.781 259.02v-5.758M548.578 385.68v-5.758M548.578 379.922h11.524M295.262 391.441v-5.761M295.262 385.68h-11.524M548.578 316.621v-5.762M548.578 310.86h11.524M370.078 333.898h-5.758M364.32 333.898v17.223M364.32 351.121h-5.761M364.32 351.121h23.04" fill="none" stroke-width=".36000000000000004" stroke-linecap="round" stroke-linejoin="round" stroke="green" stroke-miterlimit="10"/><path d="M365.46 351.121c0 .629-.51 1.14-1.14 1.14a1.14 1.14 0 1 1 1.14-1.14" fill-rule="evenodd" fill="green"/><path d="M365.46 351.121c0 .629-.51 1.14-1.14 1.14a1.14 1.14 0 1 1 1.14-1.14zm0 0" fill="none" stroke-width=".12" stroke-linecap="round" stroke-linejoin="round" stroke="green" stroke-miterlimit="10"/><path d="M473.7 293.578h-22.981M450.719 293.578v40.32M450.719 333.898h5.761M450.719 333.898h-5.758" fill="none" stroke-width=".36000000000000004" stroke-linecap="round" stroke-linejoin="round" stroke="green" stroke-miterlimit="10"/><path d="M451.86 333.898c0 .633-.508 1.141-1.141 1.141a1.14 1.14 0 1 1 0-2.277c.633 0 1.14.508 1.14 1.136" fill-rule="evenodd" fill="green"/><path d="M451.86 333.898c0 .633-.508 1.141-1.141 1.141a1.14 1.14 0 1 1 0-2.277c.633 0 1.14.508 1.14 1.136zm0 0" fill="none" stroke-width=".12" stroke-linecap="round" stroke-linejoin="round" stroke="green" stroke-miterlimit="10"/><path d="M421.922 333.898h-5.762M352.8 310.86v5.761M352.8 316.621h-11.519M341.281 316.621h-11.52M329.762 316.621v-11.52M335.52 351.121h5.761M341.281 351.121v5.758M347.04 351.121h-5.759" fill="none" stroke-width=".36000000000000004" stroke-linecap="round" stroke-linejoin="round" stroke="green" stroke-miterlimit="10"/><path d="M342.422 351.121a1.14 1.14 0 1 1-2.281 0c0-.633.507-1.14 1.14-1.14.63 0 1.14.507 1.14 1.14" fill-rule="evenodd" fill="green"/><path d="M342.422 351.121a1.14 1.14 0 1 1-2.281 0c0-.633.507-1.14 1.14-1.14.63 0 1.14.507 1.14 1.14zm0 0" fill="none" stroke-width=".12" stroke-linecap="round" stroke-linejoin="round" stroke="green" stroke-miterlimit="10"/><path d="M341.281 316.621v34.5" fill="none" stroke-width=".36000000000000004" stroke-linecap="round" stroke-linejoin="round" stroke="green" stroke-miterlimit="10"/><path d="M342.422 316.621a1.14 1.14 0 1 1-2.281 0c0-.633.507-1.14 1.14-1.14.63 0 1.14.507 1.14 1.14" fill-rule="evenodd" fill="green"/><path d="M342.422 316.621a1.14 1.14 0 1 1-2.281 0c0-.633.507-1.14 1.14-1.14.63 0 1.14.507 1.14 1.14zm0 0" fill="none" stroke-width=".12" stroke-linecap="round" stroke-linejoin="round" stroke="green" stroke-miterlimit="10"/><path d="M410.398 293.578v5.762M410.398 299.34h-11.52M398.879 299.34h-11.52M387.36 299.34v-11.52M393.121 333.898h5.758M398.879 333.898v5.762M404.64 333.898h-5.761" fill="none" stroke-width=".36000000000000004" stroke-linecap="round" stroke-linejoin="round" stroke="green" stroke-miterlimit="10"/><path d="M400.02 333.898c0 .633-.508 1.141-1.141 1.141a1.14 1.14 0 1 1 0-2.277c.633 0 1.14.508 1.14 1.136" fill-rule="evenodd" fill="green"/><path d="M400.02 333.898c0 .633-.508 1.141-1.141 1.141a1.14 1.14 0 1 1 0-2.277c.633 0 1.14.508 1.14 1.136zm0 0" fill="none" stroke-width=".12" stroke-linecap="round" stroke-linejoin="round" stroke="green" stroke-miterlimit="10"/><path d="M398.879 299.34v34.558" fill="none" stroke-width=".36000000000000004" stroke-linecap="round" stroke-linejoin="round" stroke="green" stroke-miterlimit="10"/><path d="M400.02 299.34a1.14 1.14 0 1 1-2.282 0 1.14 1.14 0 1 1 2.281 0" fill-rule="evenodd" fill="green"/><path d="M400.02 299.34a1.14 1.14 0 1 1-2.282 0 1.14 1.14 0 1 1 2.281 0zm0 0" fill="none" stroke-width=".12" stroke-linecap="round" stroke-linejoin="round" stroke="green" stroke-miterlimit="10"/><path d="M502.5 282.059v11.52M502.5 293.578v11.524M496.738 293.578h5.762" fill="none" stroke-width=".36000000000000004" stroke-linecap="round" stroke-linejoin="round" stroke="green" stroke-miterlimit="10"/><path d="M503.64 293.578a1.14 1.14 0 1 1-2.278.002 1.14 1.14 0 0 1 2.279-.002" fill-rule="evenodd" fill="green"/><path d="M503.64 293.578a1.14 1.14 0 1 1-2.278.002 1.14 1.14 0 0 1 2.279-.002zm0 0" fill="none" stroke-width=".12" stroke-linecap="round" stroke-linejoin="round" stroke="green" stroke-miterlimit="10"/><path d="M502.5 293.578h23.04M490.98 316.621h-23.039M467.941 316.621v5.758M467.941 310.86v5.761" fill="none" stroke-width=".36000000000000004" stroke-linecap="round" stroke-linejoin="round" stroke="green" stroke-miterlimit="10"/><path d="M469.078 316.621a1.139 1.139 0 1 1-2.277 0 1.14 1.14 0 1 1 2.277 0" fill-rule="evenodd" fill="green"/><path d="M469.078 316.621a1.139 1.139 0 1 1-2.277 0 1.14 1.14 0 1 1 2.277 0zm0 0" fill="none" stroke-width=".12" stroke-linecap="round" stroke-linejoin="round" stroke="green" stroke-miterlimit="10"/><path d="M467.941 287.82v11.52M467.941 276.3v-5.76M467.941 270.54h23.04M467.941 264.781v5.758" fill="none" stroke-width=".36000000000000004" stroke-linecap="round" stroke-linejoin="round" stroke="green" stroke-miterlimit="10"/><path d="M469.078 270.54a1.14 1.14 0 1 1 0 0" fill-rule="evenodd" fill="green"/><path d="M469.078 270.54a1.14 1.14 0 1 1 0 0zm0 0" fill="none" stroke-width=".12" stroke-linecap="round" stroke-linejoin="round" stroke="green" stroke-miterlimit="10"/><path d="M502.5 259.02v-23.04M502.5 235.98h-34.559M467.941 235.98v5.758M387.36 276.3v-11.519M387.36 264.781h11.519M398.879 264.781h11.52M410.398 264.781v5.758M467.941 235.98H398.88M398.879 235.98v28.801" fill="none" stroke-width=".36000000000000004" stroke-linecap="round" stroke-linejoin="round" stroke="green" stroke-miterlimit="10"/><path d="M469.078 235.98a1.139 1.139 0 1 1-2.277 0 1.139 1.139 0 0 1 2.277 0" fill-rule="evenodd" fill="green"/><path d="M469.078 235.98a1.139 1.139 0 1 1-2.277 0 1.139 1.139 0 0 1 2.277 0zm0 0" fill="none" stroke-width=".12" stroke-linecap="round" stroke-linejoin="round" stroke="green" stroke-miterlimit="10"/><path d="M400.02 264.781a1.14 1.14 0 1 1-2.282 0c0-.633.512-1.14 1.14-1.14.634 0 1.142.507 1.142 1.14" fill-rule="evenodd" fill="green"/><path d="M400.02 264.781a1.14 1.14 0 1 1-2.282 0c0-.633.512-1.14 1.14-1.14.634 0 1.142.507 1.142 1.14zm0 0" fill="none" stroke-width=".12" stroke-linecap="round" stroke-linejoin="round" stroke="green" stroke-miterlimit="10"/><path d="M398.879 235.98h-17.277" fill="none" stroke-width=".36000000000000004" stroke-linecap="round" stroke-linejoin="round" stroke="green" stroke-miterlimit="10"/><path d="M400.02 235.98a1.14 1.14 0 1 1-2.282 0 1.14 1.14 0 1 1 2.281 0" fill-rule="evenodd" fill="green"/><path d="M400.02 235.98a1.14 1.14 0 1 1-2.282 0 1.14 1.14 0 1 1 2.281 0zm0 0" fill="none" stroke-width=".12" stroke-linecap="round" stroke-linejoin="round" stroke="green" stroke-miterlimit="10"/><path d="M502.5 235.98h11.52" fill="none" stroke-width=".36000000000000004" stroke-linecap="round" stroke-linejoin="round" stroke="green" stroke-miterlimit="10"/><path d="M503.64 235.98c0 .63-.511 1.141-1.14 1.141-.629 0-1.14-.512-1.14-1.14 0-.63.511-1.141 1.14-1.141.629 0 1.14.512 1.14 1.14" fill-rule="evenodd" fill="green"/><path d="M503.64 235.98c0 .63-.511 1.141-1.14 1.141-.629 0-1.14-.512-1.14-1.14 0-.63.511-1.141 1.14-1.141.629 0 1.14.512 1.14 1.14zm0 0" fill="none" stroke-width=".12" stroke-linecap="round" stroke-linejoin="round" stroke="green" stroke-miterlimit="10"/><path d="M352.8 282.059v5.761M341.281 282.059h11.52M341.281 235.98v46.079" fill="none" stroke-width=".36000000000000004" stroke-linecap="round" stroke-linejoin="round" stroke="green" stroke-miterlimit="10"/><path d="M342.422 282.059a1.14 1.14 0 1 1-2.284.002 1.14 1.14 0 0 1 2.284-.002" fill-rule="evenodd" fill="green"/><path d="M342.422 282.059a1.14 1.14 0 1 1-2.284.002 1.14 1.14 0 0 1 2.284-.002zm0 0" fill="none" stroke-width=".12" stroke-linecap="round" stroke-linejoin="round" stroke="green" stroke-miterlimit="10"/><path d="M329.762 282.059h11.52M329.762 293.578v-11.52M358.559 235.98H341.28M341.281 235.98h-34.5M306.781 235.98v5.758" fill="none" stroke-width=".36000000000000004" stroke-linecap="round" stroke-linejoin="round" stroke="green" stroke-miterlimit="10"/><path d="M342.422 235.98a1.14 1.14 0 1 1-1.14-1.14c.628 0 1.14.512 1.14 1.14" fill-rule="evenodd" fill="green"/><path d="M342.422 235.98a1.14 1.14 0 1 1-1.14-1.14c.628 0 1.14.512 1.14 1.14zm0 0" fill="none" stroke-width=".12" stroke-linecap="round" stroke-linejoin="round" stroke="green" stroke-miterlimit="10"/><path d="M525.54 253.262v5.758M525.54 259.02h23.038M548.578 259.02v-23.04M548.578 235.98h-11.52M560.102 235.98h-11.524" fill="none" stroke-width=".36000000000000004" stroke-linecap="round" stroke-linejoin="round" stroke="green" stroke-miterlimit="10"/><path d="M549.719 235.98a1.14 1.14 0 1 1-2.28.003 1.14 1.14 0 0 1 2.28-.003" fill-rule="evenodd" fill="green"/><path d="M549.719 235.98a1.14 1.14 0 1 1-2.28.003 1.14 1.14 0 0 1 2.28-.003zm0 0" fill="none" stroke-width=".12" stroke-linecap="round" stroke-linejoin="round" stroke="green" stroke-miterlimit="10"/><path d="M283.738 368.398h5.762M537.059 293.578h23.043" fill="none" stroke-width=".36000000000000004" stroke-linecap="round" stroke-linejoin="round" stroke="green" stroke-miterlimit="10"/></svg>