<svg xmlns:xlink="http://www.w3.org/1999/xlink" width="842pt" height="595pt" viewBox="0 0 842 595">
  <defs/>
  <defs>
    <symbol id="AudioPreAmp-LM741-1_svg__a" overflow="visible"/>
    <symbol id="AudioPreAmp-LM741-1_svg__b" overflow="visible">
      <path d="M1.875 0l.828-2.453V0h.36v-2.922H2.53L1.687-.375.813-2.922H.297V0h.36v-2.453L1.483 0zm0 0"/>
    </symbol>
    <symbol id="AudioPreAmp-LM741-1_svg__c" overflow="visible"/>
    <symbol id="AudioPreAmp-LM741-1_svg__d" overflow="visible"/>
    <symbol id="AudioPreAmp-LM741-1_svg__e" overflow="visible"/>
    <symbol id="AudioPreAmp-LM741-1_svg__k" overflow="visible"/>
    <symbol id="AudioPreAmp-LM741-1_svg__l" overflow="visible"/>
    <symbol id="AudioPreAmp-LM741-1_svg__o" overflow="visible">
      <path d="M1.11-2.844a.907.907 0 0 0-.376.078.689.689 0 0 0-.28.235 1.39 1.39 0 0 0-.22.484 3.072 3.072 0 0 0-.062.672c0 .48.078.844.234 1.094.156.25.39.375.703.375.301 0 .532-.117.688-.36.156-.25.234-.613.234-1.093 0-.27-.027-.5-.078-.688a1.459 1.459 0 0 0-.187-.484.897.897 0 0 0-.297-.235.889.889 0 0 0-.36-.078zm0 .313c.374 0 .562.383.562 1.14 0 .407-.047.711-.14.907a.464.464 0 0 1-.438.28C.719-.203.53-.593.53-1.374c0-.383.047-.672.14-.86.095-.195.24-.296.438-.296zm0 0"/>
    </symbol>
    <symbol id="AudioPreAmp-LM741-1_svg__p" overflow="visible">
      <path d="M1.938 0v-2.11h-.329v1.204a1.429 1.429 0 0 1-.062.297.577.577 0 0 1-.11.218.404.404 0 0 1-.171.141.598.598 0 0 1-.235.047.47.47 0 0 1-.328-.11.395.395 0 0 1-.11-.296v-1.5H.267v1.625c0 .093.015.18.046.25.032.062.07.12.126.172a.526.526 0 0 0 .218.109.786.786 0 0 0 .485.015.534.534 0 0 0 .17-.062.985.985 0 0 0 .172-.11c.051-.05.102-.113.157-.187V0zm0 0"/>
    </symbol>
    <symbol id="AudioPreAmp-LM741-1_svg__q" overflow="visible"/>
    <symbol id="AudioPreAmp-LM741-1_svg__r" overflow="visible">
      <path d="M2.844-1.547H1.625v.328h.89v.078a.907.907 0 0 1-.078.375.846.846 0 0 1-.187.282 1.2 1.2 0 0 1-.297.187.95.95 0 0 1-.36.063c-.148 0-.288-.024-.421-.078a.821.821 0 0 1-.313-.22.846.846 0 0 1-.14-.171 12.27 12.27 0 0 1-.094-.219 4.673 4.673 0 0 1-.063-.25 2.263 2.263 0 0 1-.015-.281c0-.176.02-.336.062-.484.051-.145.125-.27.22-.375a.973.973 0 0 1 .327-.235.93.93 0 0 1 .422-.094.99.99 0 0 1 .313.047.812.812 0 0 1 .296.156c.114.075.192.204.235.391h.39a1.28 1.28 0 0 0-.156-.39 1.155 1.155 0 0 0-.328-.344c-.156-.125-.406-.188-.75-.188-.355 0-.648.094-.875.281a1.11 1.11 0 0 0-.234.235 2.506 2.506 0 0 0-.203.39 1.726 1.726 0 0 0-.094.626c0 .23.031.437.094.625.07.187.164.351.28.484.114.137.255.242.423.312a1.38 1.38 0 0 0 1.078 0 1.71 1.71 0 0 0 .469-.359l.093.39h.235zm0 0"/>
    </symbol>
    <symbol id="AudioPreAmp-LM741-1_svg__s" overflow="visible"/>
    <symbol id="AudioPreAmp-LM741-1_svg__t" overflow="visible">
      <path d="M.36 0h1.124c.188 0 .352-.031.5-.094.145-.07.27-.172.375-.297a1.31 1.31 0 0 0 .235-.453 2.38 2.38 0 0 0 .078-.625 2.15 2.15 0 0 0-.078-.593 1.32 1.32 0 0 0-.235-.47 1.011 1.011 0 0 0-.375-.28 1.147 1.147 0 0 0-.5-.11H.36zm.374-.328v-2.266h.688c.289 0 .508.102.656.297.145.188.223.469.235.844-.012.367-.09.648-.235.844-.148.187-.367.28-.656.28zm0 0"/>
    </symbol>
    <symbol id="AudioPreAmp-LM741-1_svg__w" overflow="visible"/>
    <symbol id="AudioPreAmp-LM741-1_svg__x" overflow="visible"/>
    <symbol id="AudioPreAmp-LM741-1_svg__y" overflow="visible">
      <path d="M2.656-2.016c-.054-.32-.172-.562-.36-.718-.187-.157-.444-.235-.765-.235-.199 0-.375.031-.531.094-.156.063-.29.152-.39.266a1.472 1.472 0 0 0-.313.53c-.074.2-.11.419-.11.657 0 .242.036.461.11.656.07.2.18.371.328.516.102.117.227.2.375.25.156.063.328.094.516.094.707 0 1.109-.383 1.203-1.157h-.39a1.353 1.353 0 0 1-.126.454.613.613 0 0 1-.281.28.843.843 0 0 1-.406.095.884.884 0 0 1-.391-.078.915.915 0 0 1-.297-.25 1.147 1.147 0 0 1-.203-.375 1.768 1.768 0 0 1-.063-.5c0-.188.02-.352.063-.5a.997.997 0 0 1 .188-.375.885.885 0 0 1 .28-.235.792.792 0 0 1 .391-.094c.125 0 .235.016.329.047a.599.599 0 0 1 .375.313c.039.074.07.164.093.265zm0 0"/>
    </symbol>
    <symbol id="AudioPreAmp-LM741-1_svg__z" overflow="visible"/>
    <symbol id="AudioPreAmp-LM741-1_svg__F" overflow="visible">
      <path d="M.75-1.266h.953c.164 0 .285.043.36.125.082.086.124.22.124.407v.25c0 .093.004.183.016.265.02.086.04.157.063.219h.468v-.094a.21.21 0 0 1-.093-.078.575.575 0 0 1-.063-.11.995.995 0 0 1-.031-.156v-.25c0-.113-.008-.21-.016-.296a.566.566 0 0 0-.062-.204.34.34 0 0 0-.125-.14 1.076 1.076 0 0 0-.188-.11.945.945 0 0 0 .344-.28.787.787 0 0 0 .11-.423c0-.257-.079-.453-.235-.578-.148-.133-.367-.203-.656-.203H.375V0H.75zm0-.328v-1h.906c.094 0 .172.012.235.031.07.012.132.04.187.079.094.086.14.214.14.39 0 .18-.046.309-.14.39-.094.075-.234.11-.422.11zm0 0"/>
    </symbol>
    <symbol id="AudioPreAmp-LM741-1_svg__H" overflow="visible">
      <path d="M.89-1.313h.188c.395 0 .594.172.594.516 0 .188-.055.336-.156.438-.106.093-.25.14-.438.14-.187 0-.336-.047-.437-.14C.547-.461.492-.617.484-.83H.125c.008.118.023.216.047.298.02.086.047.152.078.203A.69.69 0 0 0 .563 0c.132.063.3.094.5.094.144 0 .273-.024.39-.063a.863.863 0 0 0 .313-.172.846.846 0 0 0 .187-.28.907.907 0 0 0 .078-.376.658.658 0 0 0-.484-.672c.27-.101.406-.3.406-.593a1.124 1.124 0 0 0-.078-.329.54.54 0 0 0-.156-.234.659.659 0 0 0-.282-.156 1.034 1.034 0 0 0-.359-.063c-.293 0-.512.078-.656.235-.149.156-.227.386-.234.687h.359c0-.094.004-.164.015-.219a.427.427 0 0 1 .047-.14.422.422 0 0 1 .172-.188.68.68 0 0 1 .297-.062c.164 0 .29.043.375.125a.559.559 0 0 1 .14.36.572.572 0 0 1-.077.233.307.307 0 0 1-.157.141.88.88 0 0 1-.093.031.4.4 0 0 1-.125.032H.89zm0 0"/>
    </symbol>
    <symbol id="AudioPreAmp-LM741-1_svg__I" overflow="visible">
      <path d="M1.906-2.844H.438L.234-1.297h.329a.428.428 0 0 1 .109-.125.686.686 0 0 1 .25-.125.806.806 0 0 1 .156-.016.539.539 0 0 1 .438.188.626.626 0 0 1 .14.219.8.8 0 0 1 .047.281c0 .105-.016.2-.047.281a.99.99 0 0 1-.172.25c-.086.086-.218.125-.406.125a.587.587 0 0 1-.375-.11A.693.693 0 0 1 .5-.702H.14c.008.062.02.117.032.156.008.043.023.09.047.14.02.055.05.106.093.157.083.117.192.2.329.25.132.063.28.094.437.094a.968.968 0 0 0 .39-.078.702.702 0 0 0 .313-.204.844.844 0 0 0 .203-.328 1.06 1.06 0 0 0 0-.796.872.872 0 0 0-.187-.297.713.713 0 0 0-.281-.188.934.934 0 0 0-.375-.078c-.106 0-.2.016-.282.047a.716.716 0 0 0-.25.125L.734-2.5h1.172zm0 0"/>
    </symbol>
    <symbol id="AudioPreAmp-LM741-1_svg__J" overflow="visible"/>
    <symbol id="AudioPreAmp-LM741-1_svg__K" overflow="visible">
      <path d="M2.14-1.078h-.828v-.828h-.28v.828h-.83v.281h.828v.844h.282v-.844h.828zm0 0"/>
    </symbol>
    <symbol id="AudioPreAmp-LM741-1_svg__L" overflow="visible">
      <path d="M1.563-2.969c-.211 0-.403.04-.579.11a1.34 1.34 0 0 0-.437.312 1.484 1.484 0 0 0-.297.485 1.98 1.98 0 0 0-.094.624c0 .231.032.438.094.625.07.188.172.352.297.485.125.137.27.242.437.312a1.615 1.615 0 0 0 1.078.031c.157-.05.29-.128.407-.234.082-.062.156-.133.219-.218a1.654 1.654 0 0 0 .25-.625c.03-.114.046-.235.046-.36a1.79 1.79 0 0 0-.109-.625 1.333 1.333 0 0 0-.281-.5 1.325 1.325 0 0 0-.453-.312 1.49 1.49 0 0 0-.579-.11zm0 .328a.93.93 0 0 1 .421.094.84.84 0 0 1 .329.235c.093.105.164.234.218.39.051.149.078.313.078.5 0 .18-.027.34-.078.484a1.105 1.105 0 0 1-.547.625 1.042 1.042 0 0 1-.421.079c-.157 0-.297-.024-.422-.078a1.078 1.078 0 0 1-.547-.625 1.866 1.866 0 0 1-.063-.5c0-.188.02-.352.063-.5.05-.145.117-.27.203-.375a.973.973 0 0 1 .328-.235 1.03 1.03 0 0 1 .438-.094zm0 0"/>
    </symbol>
    <symbol id="AudioPreAmp-LM741-1_svg__M" overflow="visible">
      <path d="M2.219-2.922v2.047c0 .105-.024.2-.063.281a.666.666 0 0 1-.203.235c-.094.086-.262.125-.5.125a.873.873 0 0 1-.531-.157.422.422 0 0 1-.156-.187.83.83 0 0 1-.047-.297v-2.047H.344v2.047c0 .156.023.297.078.422.05.117.125.215.219.297a.98.98 0 0 0 .343.172c.145.05.301.078.47.078.175 0 .331-.028.468-.078A.853.853 0 0 0 2.5-.47a.832.832 0 0 0 .094-.406v-2.047zm0 0"/>
    </symbol>
    <symbol id="AudioPreAmp-LM741-1_svg__N" overflow="visible"/>
    <symbol id="AudioPreAmp-LM741-1_svg__f" overflow="visible"/>
    <symbol id="AudioPreAmp-LM741-1_svg__g" overflow="visible"/>
    <symbol id="AudioPreAmp-LM741-1_svg__h" overflow="visible"/>
    <symbol id="AudioPreAmp-LM741-1_svg__i" overflow="visible"/>
    <symbol id="AudioPreAmp-LM741-1_svg__j" overflow="visible"/>
    <symbol id="AudioPreAmp-LM741-1_svg__m" overflow="visible"/>
    <symbol id="AudioPreAmp-LM741-1_svg__n" overflow="visible"/>
    <symbol id="AudioPreAmp-LM741-1_svg__D" overflow="visible"/>
    <symbol id="AudioPreAmp-LM741-1_svg__E" overflow="visible"/>
    <symbol id="AudioPreAmp-LM741-1_svg__G" overflow="visible"/>
    <symbol id="AudioPreAmp-LM741-1_svg__O" overflow="visible"/>
    <symbol id="AudioPreAmp-LM741-1_svg__u" overflow="visible">
      <path d="M2.219 0L3.64-4.11h-.563L1.938-.624.734-4.109H.172L1.64 0zm0 0"/>
    </symbol>
    <symbol id="AudioPreAmp-LM741-1_svg__v" overflow="visible">
      <path d="M3.734-2.844c-.086-.445-.257-.781-.515-1-.262-.226-.621-.344-1.078-.344-.274 0-.516.047-.735.141a1.55 1.55 0 0 0-.562.375 2.234 2.234 0 0 0-.438.735c-.094.28-.14.59-.14.921 0 .344.05.657.156.938.101.281.254.527.453.734.156.156.332.274.531.344.207.082.446.125.719.125 1 0 1.563-.54 1.688-1.625H3.28a4.349 4.349 0 0 1-.094.375 1.423 1.423 0 0 1-.093.266 1.015 1.015 0 0 1-.39.39c-.157.094-.352.14-.579.14-.21 0-.398-.034-.563-.108a1.218 1.218 0 0 1-.406-.344 1.508 1.508 0 0 1-.265-.531 2.432 2.432 0 0 1-.094-.704c0-.257.023-.492.078-.703.063-.207.148-.383.266-.531.113-.156.25-.27.406-.344.156-.082.336-.125.547-.125.164 0 .316.028.453.078a.95.95 0 0 1 .36.188c.062.062.116.148.171.25.05.094.094.215.125.36zm0 0"/>
    </symbol>
    <symbol id="AudioPreAmp-LM741-1_svg__A" overflow="visible"/>
    <symbol id="AudioPreAmp-LM741-1_svg__B" overflow="visible">
      <path d="M1.078-1.578h.234c.47 0 .704.21.704.625 0 .219-.063.39-.188.515-.125.118-.297.172-.516.172-.242 0-.417-.054-.53-.171C.663-.564.597-.75.577-1H.156c.008.137.024.258.047.36a.61.61 0 0 0 .11.25.794.794 0 0 0 .374.374c.165.082.368.125.61.125.176 0 .332-.027.469-.078a.93.93 0 0 0 .375-.203.928.928 0 0 0 .234-.344 1.28 1.28 0 0 0 .078-.453.891.891 0 0 0-.14-.515c-.086-.133-.231-.235-.438-.297.32-.125.484-.364.484-.719a.968.968 0 0 0-.078-.39.763.763 0 0 0-.203-.297.973.973 0 0 0-.344-.188 1.408 1.408 0 0 0-.421-.063c-.356 0-.625.094-.813.282-.18.187-.266.465-.266.828h.422c0-.102.004-.188.016-.25a.56.56 0 0 1 .281-.406.992.992 0 0 1 .36-.094c.187.012.332.07.437.172a.55.55 0 0 1 .172.422.506.506 0 0 1-.078.296.406.406 0 0 1-.203.172.73.73 0 0 1-.11.032.64.64 0 0 1-.14.03 1.99 1.99 0 0 1-.313.016zm0 0"/>
    </symbol>
    <symbol id="AudioPreAmp-LM741-1_svg__C" overflow="visible">
      <path d="M2.422-2.547a1.248 1.248 0 0 0-.125-.375.898.898 0 0 0-.203-.281 1.056 1.056 0 0 0-.297-.172 1.034 1.034 0 0 0-.36-.063 1.058 1.058 0 0 0-.921.485 1.7 1.7 0 0 0-.22.5c-.042.168-.07.32-.077.453a4.952 4.952 0 0 0-.016.422c0 .148.004.281.016.406.008.125.023.242.047.344.03.094.062.187.093.281.04.086.086.164.141.235A.89.89 0 0 0 .86 0c.144.07.312.11.5.11.163 0 .316-.032.452-.094.133-.051.254-.125.36-.22a1.02 1.02 0 0 0 .234-.374c.051-.145.082-.3.094-.469a1.585 1.585 0 0 0-.094-.437 1.036 1.036 0 0 0-.219-.344.973.973 0 0 0-.328-.234 1.112 1.112 0 0 0-.421-.079c-.344 0-.61.125-.797.375.007-.414.078-.734.203-.953a.64.64 0 0 1 .578-.344.49.49 0 0 1 .36.141c.1.086.175.211.218.375zm-1.031.781c.207 0 .351.055.437.157A.84.84 0 0 1 2-1.33c.031.095.05.2.063.313A1.427 1.427 0 0 1 2-.703a.721.721 0 0 1-.14.234.797.797 0 0 1-.22.156.76.76 0 0 1-.265.047.786.786 0 0 1-.281-.046.62.62 0 0 1-.219-.172.903.903 0 0 1-.156-.25.973.973 0 0 1 0-.594.588.588 0 0 1 .14-.234.721.721 0 0 1 .235-.141.68.68 0 0 1 .297-.063zm0 0"/>
    </symbol>
    <clipPath id="AudioPreAmp-LM741-1_svg__P">
      <path d="M531 255h9.781v2H531zm0 0"/>
    </clipPath>
    <clipPath id="AudioPreAmp-LM741-1_svg__Q">
      <path d="M531 253h9.781v2H531zm0 0"/>
    </clipPath>
    <clipPath id="AudioPreAmp-LM741-1_svg__R">
      <path d="M540 252h.781v3H540zm0 0"/>
    </clipPath>
    <clipPath id="AudioPreAmp-LM741-1_svg__S">
      <path d="M535 252h5.781v1H535zm0 0"/>
    </clipPath>
  </defs>
  <use x="449.722" y="297.67" fill="gray" xlink:href="#AudioPreAmp-LM741-1_svg__a"/>
  <use x="451.942" y="297.67" fill="gray" xlink:href="#AudioPreAmp-LM741-1_svg__b"/>
  <use x="455.302" y="297.67" fill="gray" xlink:href="#AudioPreAmp-LM741-1_svg__c"/>
  <use x="457.522" y="297.67" fill="gray" xlink:href="#AudioPreAmp-LM741-1_svg__d"/>
  <use x="459.742" y="297.67" fill="gray" xlink:href="#AudioPreAmp-LM741-1_svg__e"/>
  <use x="331.694" y="286.158" fill="gray" xlink:href="#AudioPreAmp-LM741-1_svg__f"/>
  <use x="331.694" y="283.938" fill="gray" xlink:href="#AudioPreAmp-LM741-1_svg__g"/>
  <use x="331.694" y="282.798" fill="gray" xlink:href="#AudioPreAmp-LM741-1_svg__h"/>
  <use x="331.694" y="280.578" fill="gray" xlink:href="#AudioPreAmp-LM741-1_svg__i"/>
  <use x="331.694" y="278.358" fill="gray" xlink:href="#AudioPreAmp-LM741-1_svg__j"/>
  <use x="495.783" y="302.174" fill="gray" xlink:href="#AudioPreAmp-LM741-1_svg__f"/>
  <use x="495.783" y="299.954" fill="gray" xlink:href="#AudioPreAmp-LM741-1_svg__g"/>
  <use x="495.783" y="298.814" fill="gray" xlink:href="#AudioPreAmp-LM741-1_svg__h"/>
  <use x="495.783" y="296.594" fill="gray" xlink:href="#AudioPreAmp-LM741-1_svg__i"/>
  <use x="495.783" y="294.374" fill="gray" xlink:href="#AudioPreAmp-LM741-1_svg__j"/>
  <use x="353.763" y="298.19" fill="gray" xlink:href="#AudioPreAmp-LM741-1_svg__d"/>
  <use x="355.983" y="298.19" fill="gray" xlink:href="#AudioPreAmp-LM741-1_svg__k"/>
  <use x="357.123" y="298.19" fill="gray" xlink:href="#AudioPreAmp-LM741-1_svg__c"/>
  <use x="359.343" y="298.19" fill="gray" xlink:href="#AudioPreAmp-LM741-1_svg__l"/>
  <use x="446.845" y="337.784" fill="gray" xlink:href="#AudioPreAmp-LM741-1_svg__m"/>
  <use x="446.845" y="335.564" fill="gray" xlink:href="#AudioPreAmp-LM741-1_svg__n"/>
  <use x="411.937" y="332.724" fill="gray" xlink:href="#AudioPreAmp-LM741-1_svg__e"/>
  <use x="414.157" y="332.724" fill="gray" xlink:href="#AudioPreAmp-LM741-1_svg__o"/>
  <use x="416.377" y="332.724" fill="gray" xlink:href="#AudioPreAmp-LM741-1_svg__l"/>
  <use x="348.482" y="337.962" fill="gray" xlink:href="#AudioPreAmp-LM741-1_svg__d"/>
  <use x="350.702" y="337.962" fill="gray" xlink:href="#AudioPreAmp-LM741-1_svg__c"/>
  <use x="352.923" y="337.962" fill="gray" xlink:href="#AudioPreAmp-LM741-1_svg__p"/>
  <use x="355.142" y="337.962" fill="gray" xlink:href="#AudioPreAmp-LM741-1_svg__q"/>
  <use x="377.031" y="337.962" fill="gray" xlink:href="#AudioPreAmp-LM741-1_svg__d"/>
  <use x="379.251" y="337.962" fill="gray" xlink:href="#AudioPreAmp-LM741-1_svg__c"/>
  <use x="381.471" y="337.962" fill="gray" xlink:href="#AudioPreAmp-LM741-1_svg__l"/>
  <use x="365.516" y="268.894" fill="gray" xlink:href="#AudioPreAmp-LM741-1_svg__d"/>
  <use x="367.736" y="268.894" fill="gray" xlink:href="#AudioPreAmp-LM741-1_svg__c"/>
  <use x="369.956" y="268.894" fill="gray" xlink:href="#AudioPreAmp-LM741-1_svg__l"/>
  <use x="370.435" y="367.891" fill="gray" xlink:href="#AudioPreAmp-LM741-1_svg__r"/>
  <use x="373.555" y="367.891" fill="gray" xlink:href="#AudioPreAmp-LM741-1_svg__s"/>
  <use x="376.435" y="367.891" fill="gray" xlink:href="#AudioPreAmp-LM741-1_svg__t"/>
  <use x="368.935" y="237.236" fill="gray" xlink:href="#AudioPreAmp-LM741-1_svg__u"/>
  <use x="372.715" y="237.236" fill="gray" xlink:href="#AudioPreAmp-LM741-1_svg__v"/>
  <use x="376.795" y="237.236" fill="gray" xlink:href="#AudioPreAmp-LM741-1_svg__v"/>
  <use x="330.133" y="333.357" fill="gray" xlink:href="#AudioPreAmp-LM741-1_svg__r"/>
  <use x="333.253" y="333.357" fill="gray" xlink:href="#AudioPreAmp-LM741-1_svg__s"/>
  <use x="336.133" y="333.357" fill="gray" xlink:href="#AudioPreAmp-LM741-1_svg__t"/>
  <use x="485.584" y="321.846" fill="gray" xlink:href="#AudioPreAmp-LM741-1_svg__r"/>
  <use x="488.704" y="321.846" fill="gray" xlink:href="#AudioPreAmp-LM741-1_svg__s"/>
  <use x="491.584" y="321.846" fill="gray" xlink:href="#AudioPreAmp-LM741-1_svg__t"/>
  <use x="521.507" y="231.48" fill="gray" xlink:href="#AudioPreAmp-LM741-1_svg__u"/>
  <use x="525.287" y="231.48" fill="gray" xlink:href="#AudioPreAmp-LM741-1_svg__v"/>
  <use x="529.367" y="231.48" fill="gray" xlink:href="#AudioPreAmp-LM741-1_svg__v"/>
  <use x="523.007" y="281.556" fill="gray" xlink:href="#AudioPreAmp-LM741-1_svg__r"/>
  <use x="526.127" y="281.556" fill="gray" xlink:href="#AudioPreAmp-LM741-1_svg__s"/>
  <use x="529.007" y="281.556" fill="gray" xlink:href="#AudioPreAmp-LM741-1_svg__t"/>
  <use x="521.206" y="260.26" fill="gray" xlink:href="#AudioPreAmp-LM741-1_svg__e"/>
  <use x="523.426" y="260.26" fill="gray" xlink:href="#AudioPreAmp-LM741-1_svg__o"/>
  <use x="525.646" y="260.26" fill="gray" xlink:href="#AudioPreAmp-LM741-1_svg__p"/>
  <use x="527.866" y="260.26" fill="gray" xlink:href="#AudioPreAmp-LM741-1_svg__q"/>
  <use x="504.592" y="260.26" fill="gray" xlink:href="#AudioPreAmp-LM741-1_svg__e"/>
  <use x="506.812" y="260.26" fill="gray" xlink:href="#AudioPreAmp-LM741-1_svg__o"/>
  <use x="509.032" y="260.26" fill="gray" xlink:href="#AudioPreAmp-LM741-1_svg__o"/>
  <use x="511.252" y="260.26" fill="gray" xlink:href="#AudioPreAmp-LM741-1_svg__w"/>
  <use x="513.472" y="260.26" fill="gray" xlink:href="#AudioPreAmp-LM741-1_svg__q"/>
  <use x="449.721" y="278.964" fill="gray" xlink:href="#AudioPreAmp-LM741-1_svg__x"/>
  <use x="450.861" y="278.964" fill="gray" xlink:href="#AudioPreAmp-LM741-1_svg__y"/>
  <use x="453.741" y="278.964" fill="gray" xlink:href="#AudioPreAmp-LM741-1_svg__e"/>
  <use x="455.961" y="278.964" fill="gray" xlink:href="#AudioPreAmp-LM741-1_svg__z"/>
  <use x="428.943" y="291.108" fill="gray" xlink:href="#AudioPreAmp-LM741-1_svg__A"/>
  <use x="428.943" y="279.597" fill="gray" xlink:href="#AudioPreAmp-LM741-1_svg__B"/>
  <use x="456.285" y="285.353" fill="gray" xlink:href="#AudioPreAmp-LM741-1_svg__C"/>
  <use x="340.332" y="286.158" fill="gray" xlink:href="#AudioPreAmp-LM741-1_svg__D"/>
  <use x="340.332" y="283.278" fill="gray" xlink:href="#AudioPreAmp-LM741-1_svg__m"/>
  <use x="487.146" y="297.014" fill="gray" xlink:href="#AudioPreAmp-LM741-1_svg__D"/>
  <use x="487.146" y="294.134" fill="gray" xlink:href="#AudioPreAmp-LM741-1_svg__E"/>
  <use x="355.082" y="288.518" fill="gray" xlink:href="#AudioPreAmp-LM741-1_svg__F"/>
  <use x="357.962" y="288.518" fill="gray" xlink:href="#AudioPreAmp-LM741-1_svg__e"/>
  <use x="455.479" y="337.304" fill="gray" xlink:href="#AudioPreAmp-LM741-1_svg__G"/>
  <use x="455.479" y="334.424" fill="gray" xlink:href="#AudioPreAmp-LM741-1_svg__E"/>
  <use x="412.657" y="323.052" fill="gray" xlink:href="#AudioPreAmp-LM741-1_svg__F"/>
  <use x="415.537" y="323.052" fill="gray" xlink:href="#AudioPreAmp-LM741-1_svg__H"/>
  <use x="438.024" y="234.357" fill="gray" xlink:href="#AudioPreAmp-LM741-1_svg__u"/>
  <use x="441.804" y="234.357" fill="gray" xlink:href="#AudioPreAmp-LM741-1_svg__v"/>
  <use x="445.884" y="234.357" fill="gray" xlink:href="#AudioPreAmp-LM741-1_svg__v"/>
  <use x="439.524" y="316.09" fill="gray" xlink:href="#AudioPreAmp-LM741-1_svg__r"/>
  <use x="442.645" y="316.09" fill="gray" xlink:href="#AudioPreAmp-LM741-1_svg__s"/>
  <use x="445.524" y="316.09" fill="gray" xlink:href="#AudioPreAmp-LM741-1_svg__t"/>
  <use x="352.503" y="329.326" fill="gray" xlink:href="#AudioPreAmp-LM741-1_svg__y"/>
  <use x="355.382" y="329.326" fill="gray" xlink:href="#AudioPreAmp-LM741-1_svg__H"/>
  <use x="378.411" y="329.326" fill="gray" xlink:href="#AudioPreAmp-LM741-1_svg__F"/>
  <use x="381.291" y="329.326" fill="gray" xlink:href="#AudioPreAmp-LM741-1_svg__d"/>
  <use x="366.896" y="260.258" fill="gray" xlink:href="#AudioPreAmp-LM741-1_svg__F"/>
  <use x="369.776" y="260.258" fill="gray" xlink:href="#AudioPreAmp-LM741-1_svg__I"/>
  <use x="303.324" y="310.621" fill="gray" xlink:href="#AudioPreAmp-LM741-1_svg__x"/>
  <use x="304.464" y="310.621" fill="gray" xlink:href="#AudioPreAmp-LM741-1_svg__s"/>
  <use x="307.344" y="310.621" fill="gray" xlink:href="#AudioPreAmp-LM741-1_svg__J"/>
  <use x="302.304" y="293.354" fill="gray" xlink:href="#AudioPreAmp-LM741-1_svg__x"/>
  <use x="303.444" y="293.354" fill="gray" xlink:href="#AudioPreAmp-LM741-1_svg__s"/>
  <use x="306.324" y="293.354" fill="gray" xlink:href="#AudioPreAmp-LM741-1_svg__K"/>
  <use x="515.932" y="299.11" fill="gray" xlink:href="#AudioPreAmp-LM741-1_svg__L"/>
  <use x="519.052" y="299.11" fill="gray" xlink:href="#AudioPreAmp-LM741-1_svg__M"/>
  <use x="521.932" y="299.11" fill="gray" xlink:href="#AudioPreAmp-LM741-1_svg__N"/>
  <use x="524.392" y="299.11" fill="gray" xlink:href="#AudioPreAmp-LM741-1_svg__J"/>
  <use x="515.932" y="287.598" fill="gray" xlink:href="#AudioPreAmp-LM741-1_svg__L"/>
  <use x="519.052" y="287.598" fill="gray" xlink:href="#AudioPreAmp-LM741-1_svg__M"/>
  <use x="521.932" y="287.598" fill="gray" xlink:href="#AudioPreAmp-LM741-1_svg__N"/>
  <use x="524.392" y="287.598" fill="gray" xlink:href="#AudioPreAmp-LM741-1_svg__K"/>
  <use x="525.226" y="251.625" fill="gray" xlink:href="#AudioPreAmp-LM741-1_svg__y"/>
  <use x="528.106" y="251.625" fill="gray" xlink:href="#AudioPreAmp-LM741-1_svg__d"/>
  <use x="510.832" y="251.625" fill="gray" xlink:href="#AudioPreAmp-LM741-1_svg__y"/>
  <use x="513.712" y="251.625" fill="gray" xlink:href="#AudioPreAmp-LM741-1_svg__I"/>
  <path fill="none" stroke="maroon" stroke-linecap="round" stroke-linejoin="round" stroke-miterlimit="10" stroke-width=".96" d="M432.422 274.621v23.04m0-.001l23.039-11.52m-.001 0l-23.038-11.519"/>
  <path fill="none" stroke="maroon" stroke-linecap="round" stroke-linejoin="round" stroke-miterlimit="10" stroke-width=".36" d="M435.3 278.941v2.88m-1.44-1.442h2.878m-2.878 11.519h2.878m-10.019 0h5.703m-5.703-11.519h5.703m28.797 5.761h-5.758m-11.52-11.519v5.758m0 17.281v-5.762m1.199-14.398h2.462m-1.204-1.2v2.462m-1.258 16.019h2.462"/>
  <use x="337.452" y="289.755" fill="maroon" xlink:href="#AudioPreAmp-LM741-1_svg__K"/>
  <path fill="none" stroke="maroon" stroke-linecap="round" stroke-linejoin="round" stroke-miterlimit="10" stroke-width=".36" d="M328.8 291.898h4.02m7.5 0h-3.718"/>
  <path fill="maroon" stroke="maroon" stroke-linecap="round" stroke-linejoin="round" stroke-miterlimit="10" stroke-width=".12" d="M332.578 296.52h1.442v-9.239h-1.442zm0 0"/>
  <path fill="none" stroke="maroon" stroke-linecap="round" stroke-linejoin="round" stroke-miterlimit="10" stroke-width=".3" d="M336.602 287.46h-1.442m0 0v8.938m0 0h1.442m0 0v-4.5m0 0v-4.437"/>
  <use x="484.805" y="291.197" fill="maroon" xlink:href="#AudioPreAmp-LM741-1_svg__K"/>
  <path fill="none" stroke="maroon" stroke-linecap="round" stroke-linejoin="round" stroke-miterlimit="10" stroke-width=".36" d="M495.781 286.14h-4.02m-7.499 0h3.718"/>
  <path fill="maroon" stroke="maroon" stroke-linecap="round" stroke-linejoin="round" stroke-miterlimit="10" stroke-width=".12" d="M490.621 290.762h1.438v-9.242h-1.438zm0 0"/>
  <path fill="none" stroke="maroon" stroke-linecap="round" stroke-linejoin="round" stroke-miterlimit="10" stroke-width=".3" d="M487.98 290.64h1.442m0 0v-8.94m0 0h-1.442m0 0v4.44m0 0v4.5"/>
  <path fill="none" stroke="maroon" stroke-linecap="round" stroke-linejoin="round" stroke-miterlimit="10" stroke-width=".36" d="M369.121 291.898h-5.762m-17.281 0h5.762"/>
  <path fill="none" stroke="maroon" stroke-linecap="round" stroke-linejoin="round" stroke-miterlimit="10" stroke-width=".6" d="M351.84 293.941h11.52m0-4.019h-11.52m11.52 4.019v-4.02m-11.52 4.02v-4.02m103.62 34.798h-11.519m0 3.481h11.52"/>
  <path fill="none" stroke="maroon" stroke-linecap="round" stroke-linejoin="round" stroke-miterlimit="10" stroke-width=".36" d="M449.7 332.219v-2.04"/>
  <path fill="none" stroke="maroon" stroke-linecap="round" stroke-linejoin="round" stroke-miterlimit="10" stroke-width=".6" d="M455.46 328.2v-3.481m-11.519 0v3.48"/>
  <path fill="none" stroke="maroon" stroke-linecap="round" stroke-linejoin="round" stroke-miterlimit="10" stroke-width=".36" d="M443.941 320.7h4.618m0 0l-2.278-1.141m2.278 1.141l-2.278 1.14m-8.101 4.62h5.761m17.278 0h-5.758m-5.761 3.72l4.019-7.98m-1.079-.66l2.641-2.34m0 0l-.48 3.421m-2.161-1.081l2.16 1.081m-28.081 3.839h-5.758m-17.281 0h5.761"/>
  <path fill="none" stroke="maroon" stroke-linecap="round" stroke-linejoin="round" stroke-miterlimit="10" stroke-width=".6" d="M409.441 328.441h11.52m-.001-4.019h-11.519m11.519 4.019v-4.02m-11.519 4.02v-4.02m37.379-82.862l-2.879-4.32m0-.001l-2.882 4.32"/>
  <path fill="none" stroke="maroon" stroke-linecap="round" stroke-linejoin="round" stroke-miterlimit="10" stroke-width=".36" d="M443.941 243v-5.762"/>
  <path fill="none" stroke="maroon" stroke-linecap="round" stroke-linejoin="round" stroke-miterlimit="10" stroke-width=".6" d="M440.219 309.18h7.5"/>
  <path fill="none" stroke="maroon" stroke-linecap="round" stroke-linejoin="round" stroke-miterlimit="10" stroke-width=".36" d="M443.941 303.422v5.758"/>
  <path fill="none" stroke="maroon" stroke-linecap="round" stroke-linejoin="round" stroke-miterlimit="10" stroke-width=".6" d="M441.66 310.32h4.621m-3.179 1.14h1.738"/>
  <use x="361.201" y="329.326" fill="maroon" xlink:href="#AudioPreAmp-LM741-1_svg__O"/>
  <path fill="none" stroke="maroon" stroke-linecap="round" stroke-linejoin="round" stroke-miterlimit="10" stroke-width=".36" d="M363.36 337.98v-4.02m0-7.5v3.72"/>
  <path fill="maroon" stroke="maroon" stroke-linecap="round" stroke-linejoin="round" stroke-miterlimit="10" stroke-width=".12" d="M358.738 334.2h9.242v-1.438h-9.242zm0 0"/>
  <path fill="none" stroke="maroon" stroke-linecap="round" stroke-linejoin="round" stroke-miterlimit="10" stroke-width=".3" d="M358.922 330.18v1.441m0 0h8.879m-.001 0v-1.441m0 0h-4.44m0 0h-4.438"/>
  <path fill="none" stroke="maroon" stroke-linecap="round" stroke-linejoin="round" stroke-miterlimit="10" stroke-width=".36" d="M386.398 320.7v5.76m0 17.278v-5.758"/>
  <path fill="none" stroke="maroon" stroke-linecap="round" stroke-linejoin="round" stroke-miterlimit="10" stroke-width=".6" d="M388.379 337.98v-11.52m-4.019 0v11.52m4.019-11.52h-4.02m4.02 11.52h-4.02"/>
  <path fill="none" stroke="maroon" stroke-linecap="round" stroke-linejoin="round" stroke-miterlimit="10" stroke-width=".36" d="M374.879 251.64v5.758m0 17.223v-5.7"/>
  <path fill="none" stroke="maroon" stroke-linecap="round" stroke-linejoin="round" stroke-miterlimit="10" stroke-width=".6" d="M376.922 268.922v-11.524m-4.082 0v11.524m4.082-11.524h-4.082m4.082 11.524h-4.082m-1.68 92.038h7.442"/>
  <path fill="none" stroke="maroon" stroke-linecap="round" stroke-linejoin="round" stroke-miterlimit="10" stroke-width=".36" d="M374.879 355.2v5.76"/>
  <path fill="none" stroke="maroon" stroke-linecap="round" stroke-linejoin="round" stroke-miterlimit="10" stroke-width=".6" d="M372.602 362.16h4.558m-3.12 1.14h1.679m2.043-118.859l-2.883-4.32m0 0l-2.879 4.32"/>
  <path fill="none" stroke="maroon" stroke-linecap="round" stroke-linejoin="round" stroke-miterlimit="10" stroke-width=".36" d="M374.879 245.879v-5.758"/>
  <path fill="none" stroke="maroon" stroke-linecap="round" stroke-linejoin="round" stroke-miterlimit="10" stroke-width=".6" d="M323.04 309.18h-5.759m0 0a2.88 2.88 0 0 1-2.883 2.879 2.88 2.88 0 0 1 0-5.758 2.88 2.88 0 0 1 2.883 2.879zm5.759-17.282h-5.759m0 0a2.88 2.88 0 1 1-5.761.005 2.88 2.88 0 0 1 5.761-.005zm13.559 34.562h7.5"/>
  <path fill="none" stroke="maroon" stroke-linecap="round" stroke-linejoin="round" stroke-miterlimit="10" stroke-width=".36" d="M334.559 320.7v5.76"/>
  <path fill="none" stroke="maroon" stroke-linecap="round" stroke-linejoin="round" stroke-miterlimit="10" stroke-width=".6" d="M332.281 327.602h4.617m-3.179 1.136h1.742M501.54 297.66h5.76m5.759 0a2.88 2.88 0 1 1-5.759 0 2.88 2.88 0 0 1 5.759 0zm-11.519-11.52h5.76m5.759 0a2.88 2.88 0 1 1-5.759 0 2.88 2.88 0 0 1 5.759 0zM486.3 314.941h7.438"/>
  <path fill="none" stroke="maroon" stroke-linecap="round" stroke-linejoin="round" stroke-miterlimit="10" stroke-width=".36" d="M490.02 309.18v5.761"/>
  <path fill="none" stroke="maroon" stroke-linecap="round" stroke-linejoin="round" stroke-miterlimit="10" stroke-width=".6" d="M487.738 316.078h4.563m-3.121 1.141h1.68m39.48-78.539l-2.88-4.32m0 0l-2.882 4.32"/>
  <path fill="none" stroke="maroon" stroke-linecap="round" stroke-linejoin="round" stroke-miterlimit="10" stroke-width=".36" d="M527.46 240.121v-5.762"/>
  <path fill="none" stroke="maroon" stroke-linecap="round" stroke-linejoin="round" stroke-miterlimit="10" stroke-width=".6" d="M523.68 274.621h7.5"/>
  <path fill="none" stroke="maroon" stroke-linecap="round" stroke-linejoin="round" stroke-miterlimit="10" stroke-width=".36" d="M527.46 268.922v5.7"/>
  <path fill="none" stroke="maroon" stroke-linecap="round" stroke-linejoin="round" stroke-miterlimit="10" stroke-width=".6" d="M525.121 275.82h4.617m-3.179 1.14h1.742"/>
  <use x="533.925" y="251.625" fill="maroon" xlink:href="#AudioPreAmp-LM741-1_svg__O"/>
  <path fill="none" stroke="maroon" stroke-linecap="round" stroke-linejoin="round" stroke-miterlimit="10" stroke-width=".36" d="M536.102 260.281V256.2m0-7.438v3.718"/>
  <g clip-path="url(#AudioPreAmp-LM741-1_svg__P)">
    <path fill="maroon" stroke="maroon" stroke-linecap="round" stroke-linejoin="round" stroke-miterlimit="10" stroke-width=".12" d="M531.48 256.5h9.239v-1.441h-9.239zm0 0"/>
  </g>
  <path fill="none" stroke="maroon" stroke-linecap="round" stroke-linejoin="round" stroke-miterlimit="10" stroke-width=".3" d="M531.602 252.48v1.442"/>
  <g clip-path="url(#AudioPreAmp-LM741-1_svg__Q)">
    <path fill="none" stroke="maroon" stroke-linecap="round" stroke-linejoin="round" stroke-miterlimit="10" stroke-width=".3" d="M531.602 253.922h8.937"/>
  </g>
  <g clip-path="url(#AudioPreAmp-LM741-1_svg__R)">
    <path fill="none" stroke="maroon" stroke-linecap="round" stroke-linejoin="round" stroke-miterlimit="10" stroke-width=".3" d="M540.54 253.922v-1.442"/>
  </g>
  <g clip-path="url(#AudioPreAmp-LM741-1_svg__S)">
    <path fill="none" stroke="maroon" stroke-linecap="round" stroke-linejoin="round" stroke-miterlimit="10" stroke-width=".3" d="M540.54 252.48h-4.438"/>
  </g>
  <path fill="none" stroke="maroon" stroke-linecap="round" stroke-linejoin="round" stroke-miterlimit="10" stroke-width=".3" d="M536.102 252.48h-4.5"/>
  <path fill="none" stroke="maroon" stroke-linecap="round" stroke-linejoin="round" stroke-miterlimit="10" stroke-width=".36" d="M518.82 260.281V256.2m0-7.438v4.02"/>
  <path fill="maroon" stroke="maroon" stroke-linecap="round" stroke-linejoin="round" stroke-miterlimit="10" stroke-width=".12" d="M514.8 256.262h8.04v-1.203h-8.04zm0-2.282h8.04v-1.199h-8.04zm0 0"/>
  <path fill="none" stroke="green" stroke-linecap="round" stroke-linejoin="round" stroke-miterlimit="10" stroke-width=".36" d="M432.422 337.98v-11.52m0 0h5.758m-11.461 0h5.703"/>
  <path fill="green" fill-rule="evenodd" d="M433.559 326.46a1.139 1.139 0 1 1-2.278 0c0-.632.508-1.14 1.14-1.14.63 0 1.138.508 1.138 1.14"/>
  <path fill="none" stroke="green" stroke-linecap="round" stroke-linejoin="round" stroke-miterlimit="10" stroke-width=".12" d="M433.559 326.46a1.139 1.139 0 1 1-2.278 0c0-.632.508-1.14 1.14-1.14.63 0 1.138.508 1.138 1.14zm0 0"/>
  <path fill="none" stroke="green" stroke-linecap="round" stroke-linejoin="round" stroke-miterlimit="10" stroke-width=".36" d="M397.922 326.46h5.758m-34.559-34.562h28.8m.001 0h28.797m-28.797 34.562v-34.562"/>
  <path fill="green" fill-rule="evenodd" d="M399.059 291.898c0 .633-.508 1.141-1.137 1.141-.633 0-1.14-.508-1.14-1.14 0-.63.507-1.137 1.14-1.137.629 0 1.137.508 1.137 1.136"/>
  <path fill="none" stroke="green" stroke-linecap="round" stroke-linejoin="round" stroke-miterlimit="10" stroke-width=".12" d="M399.059 291.898c0 .633-.508 1.141-1.137 1.141-.633 0-1.14-.508-1.14-1.14 0-.63.507-1.137 1.14-1.137.629 0 1.137.508 1.137 1.136zm0 0"/>
  <path fill="none" stroke="green" stroke-linecap="round" stroke-linejoin="round" stroke-miterlimit="10" stroke-width=".36" d="M346.078 291.898h-5.758M443.941 243v31.621m-69.062-28.742v5.762m152.581-11.52v5.758m0 0h-8.64m0 0v2.883m8.64-2.883h8.642m0 0v2.883"/>
  <path fill="green" fill-rule="evenodd" d="M528.602 245.879a1.14 1.14 0 0 1-1.141 1.14c-.633 0-1.14-.507-1.14-1.14a1.14 1.14 0 1 1 2.28 0"/>
  <path fill="none" stroke="green" stroke-linecap="round" stroke-linejoin="round" stroke-miterlimit="10" stroke-width=".12" d="M528.602 245.879a1.14 1.14 0 0 1-1.141 1.14c-.633 0-1.14-.507-1.14-1.14a1.14 1.14 0 1 1 2.28 0zm0 0"/>
  <path fill="none" stroke="green" stroke-linecap="round" stroke-linejoin="round" stroke-miterlimit="10" stroke-width=".36" d="M443.941 297.66v5.762M363.36 337.98v11.52m0 0h11.519m0 0h11.52m-.001 0v-5.762m-11.519 5.762v5.7"/>
  <path fill="green" fill-rule="evenodd" d="M376.02 349.5a1.14 1.14 0 1 1-2.282 0 1.14 1.14 0 1 1 2.281 0"/>
  <path fill="none" stroke="green" stroke-linecap="round" stroke-linejoin="round" stroke-miterlimit="10" stroke-width=".12" d="M376.02 349.5a1.14 1.14 0 1 1-2.282 0 1.14 1.14 0 1 1 2.281 0zm0 0"/>
  <path fill="none" stroke="green" stroke-linecap="round" stroke-linejoin="round" stroke-miterlimit="10" stroke-width=".36" d="M334.559 320.7v-11.52m0 0h-11.52m166.981 0v-11.52m0 0h11.52m17.28-37.379v2.88m0-.001h8.64m0 0v5.762m8.642-8.641v2.88m0-.001h-8.641"/>
  <path fill="green" fill-rule="evenodd" d="M528.602 263.16c0 .63-.512 1.14-1.141 1.14a1.14 1.14 0 1 1 0-2.28c.629 0 1.14.511 1.14 1.14"/>
  <path fill="none" stroke="green" stroke-linecap="round" stroke-linejoin="round" stroke-miterlimit="10" stroke-width=".12" d="M528.602 263.16c0 .63-.512 1.14-1.141 1.14a1.14 1.14 0 1 1 0-2.28c.629 0 1.14.511 1.14 1.14zm0 0"/>
  <path fill="none" stroke="green" stroke-linecap="round" stroke-linejoin="round" stroke-miterlimit="10" stroke-width=".36" d="M363.36 326.46v-11.519m0 0h11.519m0 0h11.52m-.001 0v5.758m-11.519-5.758V280.38"/>
  <path fill="green" fill-rule="evenodd" d="M376.02 314.941c0 .63-.508 1.137-1.141 1.137a1.139 1.139 0 1 1 0-2.277c.633 0 1.14.508 1.14 1.14"/>
  <path fill="none" stroke="green" stroke-linecap="round" stroke-linejoin="round" stroke-miterlimit="10" stroke-width=".12" d="M376.02 314.941c0 .63-.508 1.137-1.141 1.137a1.139 1.139 0 1 1 0-2.277c.633 0 1.14.508 1.14 1.14zm0 0"/>
  <path fill="none" stroke="green" stroke-linecap="round" stroke-linejoin="round" stroke-miterlimit="10" stroke-width=".36" d="M374.879 280.379v-5.758m51.84 5.758h-51.84"/>
  <path fill="green" fill-rule="evenodd" d="M376.02 280.379c0 .633-.508 1.14-1.141 1.14a1.14 1.14 0 1 1 0-2.28c.633 0 1.14.511 1.14 1.14"/>
  <path fill="none" stroke="green" stroke-linecap="round" stroke-linejoin="round" stroke-miterlimit="10" stroke-width=".12" d="M376.02 280.379c0 .633-.508 1.14-1.141 1.14a1.14 1.14 0 1 1 0-2.28c.633 0 1.14.511 1.14 1.14zm0 0"/>
  <path fill="none" stroke="green" stroke-linecap="round" stroke-linejoin="round" stroke-miterlimit="10" stroke-width=".36" d="M323.04 291.898h5.76m172.74-5.758h-5.759M449.7 332.219v11.52m11.519-57.599h11.52m-.001 0h11.524m-23.043 40.32h11.52m-.001 0v-40.32"/>
  <path fill="green" fill-rule="evenodd" d="M473.879 286.14a1.14 1.14 0 1 1-2.279.003 1.14 1.14 0 0 1 2.279-.002"/>
  <path fill="none" stroke="green" stroke-linecap="round" stroke-linejoin="round" stroke-miterlimit="10" stroke-width=".12" d="M473.879 286.14a1.14 1.14 0 1 1-2.279.003 1.14 1.14 0 0 1 2.279-.002zm0 0"/>
  <path fill="none" stroke="green" stroke-linecap="round" stroke-linejoin="round" stroke-miterlimit="10" stroke-width=".36" d="M449.7 343.738h23.038m0 0v-17.277"/>
  <path fill="green" fill-rule="evenodd" d="M473.879 326.46a1.14 1.14 0 1 1-2.277 0c0-.632.507-1.14 1.136-1.14.633 0 1.14.508 1.14 1.14"/>
  <path fill="none" stroke="green" stroke-linecap="round" stroke-linejoin="round" stroke-miterlimit="10" stroke-width=".12" d="M473.879 326.46a1.14 1.14 0 1 1-2.277 0c0-.632.507-1.14 1.136-1.14.633 0 1.14.508 1.14 1.14zm0 0"/>
</svg>
