<?xml version="1.0" encoding="UTF-8" standalone="no"?>
<svg
   xmlns:dc="http://purl.org/dc/elements/1.1/"
   xmlns:cc="http://creativecommons.org/ns#"
   xmlns:rdf="http://www.w3.org/1999/02/22-rdf-syntax-ns#"
   xmlns:svg="http://www.w3.org/2000/svg"
   xmlns="http://www.w3.org/2000/svg"
   xmlns:sodipodi="http://sodipodi.sourceforge.net/DTD/sodipodi-0.dtd"
   xmlns:inkscape="http://www.inkscape.org/namespaces/inkscape"
   id="svg186"
   version="1.1"
   viewBox="0 0 72.000618 64.799133"
   height="64.799133pt"
   width="72.000618pt"
   sodipodi:docname="FM-Radio-Circuit-Mirrored-board-mirrored.svg"
   inkscape:version="0.92.5 (2060ec1f9f, 2020-04-08)">
  <sodipodi:namedview
     pagecolor="#ffffff"
     bordercolor="#666666"
     borderopacity="1"
     objecttolerance="10"
     gridtolerance="10"
     guidetolerance="10"
     inkscape:pageopacity="0"
     inkscape:pageshadow="2"
     inkscape:window-width="600"
     inkscape:window-height="420"
     id="namedview99"
     showgrid="false"
     inkscape:zoom="2.36"
     inkscape:cx="48.450927"
     inkscape:cy="43.171874"
     inkscape:window-x="0"
     inkscape:window-y="0"
     inkscape:window-maximized="0"
     inkscape:current-layer="svg186" />
  <metadata
     id="metadata190">
    <rdf:RDF>
      <cc:Work
         rdf:about="">
        <dc:format>image/svg+xml</dc:format>
        <dc:type
           rdf:resource="http://purl.org/dc/dcmitype/StillImage" />
      </cc:Work>
    </rdf:RDF>
  </metadata>
  <defs
     id="defs17">
    <clipPath
       id="clip1">
      <path
         id="path2"
         d="m 5,69 h 72.222656 v 0.878906 H 5 Z m 0,0"
         inkscape:connector-curvature="0" />
    </clipPath>
    <clipPath
       id="clip2">
      <path
         id="path5"
         d="M 5,5.078125 H 6 V 69.878906 H 5 Z m 0,0"
         inkscape:connector-curvature="0" />
    </clipPath>
    <clipPath
       id="clip3">
      <path
         id="path8"
         d="M 5,5.078125 H 77.222656 V 6 H 5 Z m 0,0"
         inkscape:connector-curvature="0" />
    </clipPath>
    <clipPath
       id="clip4">
      <path
         id="path11"
         d="m 77,5.078125 h 0.222656 V 69.878906 H 77 Z m 0,0"
         inkscape:connector-curvature="0" />
    </clipPath>
    <clipPath
       id="clip5">
      <path
         id="path14"
         d="M 5,5.078125 H 6 V 69.878906 H 5 Z m 0,0"
         inkscape:connector-curvature="0" />
    </clipPath>
  </defs>
  <g
     id="surface1"
     transform="translate(-5.1618046,-5.0797749)">
    <path
       id="path19"
       transform="matrix(0.06,0,0,0.06,-169.019,-260)"
       d="M 3622.973,5257.0313 V 5017.9688"
       style="fill:none;stroke:#000000;stroke-width:29;stroke-linecap:round;stroke-linejoin:round;stroke-miterlimit:10;stroke-opacity:1"
       inkscape:connector-curvature="0" />
    <path
       id="path21"
       transform="matrix(0.06,0,0,0.06,-169.019,-260)"
       d="M 3622.973,5017.9688 V 4897.9819"
       style="fill:none;stroke:#000000;stroke-width:29;stroke-linecap:round;stroke-linejoin:round;stroke-miterlimit:10;stroke-opacity:1"
       inkscape:connector-curvature="0" />
    <path
       id="path23"
       transform="matrix(0.06,0,0,0.06,-169.019,-260)"
       d="M 3743.0251,4897.9819 H 3622.973"
       style="fill:none;stroke:#000000;stroke-width:29;stroke-linecap:round;stroke-linejoin:round;stroke-miterlimit:10;stroke-opacity:1"
       inkscape:connector-curvature="0" />
    <path
       id="path25"
       transform="matrix(0.06,0,0,0.06,-169.019,-260)"
       d="m 3622.973,4897.9819 -119.987,-119.987"
       style="fill:none;stroke:#000000;stroke-width:29;stroke-linecap:round;stroke-linejoin:round;stroke-miterlimit:10;stroke-opacity:1"
       inkscape:connector-curvature="0" />
    <path
       id="path27"
       transform="matrix(0.06,0,0,0.06,-169.019,-260)"
       d="M 3263.9886,5377.0183 V 5138.0209"
       style="fill:none;stroke:#000000;stroke-width:29;stroke-linecap:round;stroke-linejoin:round;stroke-miterlimit:10;stroke-opacity:1"
       inkscape:connector-curvature="0" />
    <path
       id="path29"
       transform="matrix(0.06,0,0,0.06,-169.019,-260)"
       d="m 3982.0225,4538.9975 v 119.987"
       style="fill:none;stroke:#000000;stroke-width:29;stroke-linecap:round;stroke-linejoin:round;stroke-miterlimit:10;stroke-opacity:1"
       inkscape:connector-curvature="0" />
    <path
       id="path31"
       transform="matrix(0.06,0,0,0.06,-169.019,-260)"
       d="M 3982.0225,4538.9975 H 3743.0251"
       style="fill:none;stroke:#000000;stroke-width:29;stroke-linecap:round;stroke-linejoin:round;stroke-miterlimit:10;stroke-opacity:1"
       inkscape:connector-curvature="0" />
    <path
       id="path33"
       transform="matrix(0.06,0,0,0.06,-169.019,-260)"
       d="m 3024.0146,4478.9714 v 60.0261"
       style="fill:none;stroke:#000000;stroke-width:29;stroke-linecap:round;stroke-linejoin:round;stroke-miterlimit:10;stroke-opacity:1"
       inkscape:connector-curvature="0" />
    <path
       id="path35"
       transform="matrix(0.06,0,0,0.06,-169.019,-260)"
       d="m 3263.9886,4897.9819 h -119.987"
       style="fill:none;stroke:#000000;stroke-width:29;stroke-linecap:round;stroke-linejoin:round;stroke-miterlimit:10;stroke-opacity:1"
       inkscape:connector-curvature="0" />
    <path
       id="path37"
       transform="matrix(0.06,0,0,0.06,-169.019,-260)"
       d="M 3144.0016,4897.9819 V 4538.9975"
       style="fill:none;stroke:#000000;stroke-width:29;stroke-linecap:round;stroke-linejoin:round;stroke-miterlimit:10;stroke-opacity:1"
       inkscape:connector-curvature="0" />
    <path
       id="path39"
       transform="matrix(0.06,0,0,0.06,-169.019,-260)"
       d="M 3743.0251,4538.9975 H 3144.0016"
       style="fill:none;stroke:#000000;stroke-width:29;stroke-linecap:round;stroke-linejoin:round;stroke-miterlimit:10;stroke-opacity:1"
       inkscape:connector-curvature="0" />
    <path
       id="path41"
       transform="matrix(0.06,0,0,0.06,-169.019,-260)"
       d="m 3144.0016,4538.9975 h -119.987"
       style="fill:none;stroke:#000000;stroke-width:29;stroke-linecap:round;stroke-linejoin:round;stroke-miterlimit:10;stroke-opacity:1"
       inkscape:connector-curvature="0" />
    <path
       id="path43"
       transform="matrix(0.06,0,0,0.06,-169.019,-260)"
       d="m 3743.0251,5017.9688 v 239.0625"
       style="fill:none;stroke:#000000;stroke-width:29;stroke-linecap:round;stroke-linejoin:round;stroke-miterlimit:10;stroke-opacity:1"
       inkscape:connector-curvature="0" />
    <path
       id="path45"
       transform="matrix(0.06,0,0,0.06,-169.019,-260)"
       d="m 3743.0251,5017.9688 h 238.9974"
       style="fill:none;stroke:#000000;stroke-width:29;stroke-linecap:round;stroke-linejoin:round;stroke-miterlimit:10;stroke-opacity:1"
       inkscape:connector-curvature="0" />
    <path
       id="path47"
       transform="matrix(0.06,0,0,0.06,-169.019,-260)"
       d="M 3982.0225,5017.9688 V 4658.9845"
       style="fill:none;stroke:#000000;stroke-width:29;stroke-linecap:round;stroke-linejoin:round;stroke-miterlimit:10;stroke-opacity:1"
       inkscape:connector-curvature="0" />
    <path
       id="path49"
       transform="matrix(0.06,0,0,0.06,-169.019,-260)"
       d="M 3743.0251,4538.9975 H 3144.0016"
       style="fill:none;stroke:#000000;stroke-width:29;stroke-linecap:round;stroke-linejoin:round;stroke-miterlimit:10;stroke-opacity:1"
       inkscape:connector-curvature="0" />
    <path
       id="path51"
       transform="matrix(0.06,0,0,0.06,-169.019,-260)"
       d="m 3144.0016,5138.0209 v 238.9974"
       style="fill:none;stroke:#000000;stroke-width:29;stroke-linecap:round;stroke-linejoin:round;stroke-miterlimit:10;stroke-opacity:1"
       inkscape:connector-curvature="0" />
    <path
       id="path53"
       transform="matrix(0.06,0,0,0.06,-169.019,-260)"
       d="M 3024.0146,5377.0183 V 5138.0209"
       style="fill:none;stroke:#000000;stroke-width:29;stroke-linecap:round;stroke-linejoin:round;stroke-miterlimit:10;stroke-opacity:1"
       inkscape:connector-curvature="0" />
    <path
       id="path55"
       transform="matrix(0.06,0,0,0.06,-169.019,-260)"
       d="M 3982.0225,5377.0183 H 3861.9704"
       style="fill:none;stroke:#000000;stroke-width:29;stroke-linecap:round;stroke-linejoin:round;stroke-miterlimit:10;stroke-opacity:1"
       inkscape:connector-curvature="0" />
    <path
       id="path57"
       transform="matrix(0.06,0,0,0.06,-169.019,-260)"
       d="m 3861.9704,5257.0313 v 119.987"
       style="fill:none;stroke:#000000;stroke-width:29;stroke-linecap:round;stroke-linejoin:round;stroke-miterlimit:10;stroke-opacity:1"
       inkscape:connector-curvature="0" />
    <path
       id="path59"
       transform="matrix(0.06,0,0,0.06,-169.019,-260)"
       d="M 3861.9704,5377.0183 H 3502.986"
       style="fill:none;stroke:#000000;stroke-width:29;stroke-linecap:round;stroke-linejoin:round;stroke-miterlimit:10;stroke-opacity:1"
       inkscape:connector-curvature="0" />
    <path
       id="path61"
       transform="matrix(0.06,0,0,0.06,-169.019,-260)"
       d="M 3502.986,5377.0183 V 5017.9688"
       style="fill:none;stroke:#000000;stroke-width:29;stroke-linecap:round;stroke-linejoin:round;stroke-miterlimit:10;stroke-opacity:1"
       inkscape:connector-curvature="0" />
    <path
       id="path63"
       transform="matrix(0.06,0,0,0.06,-169.019,-260)"
       d="M 3502.986,5017.9688 H 3024.0146"
       style="fill:none;stroke:#000000;stroke-width:29;stroke-linecap:round;stroke-linejoin:round;stroke-miterlimit:10;stroke-opacity:1"
       inkscape:connector-curvature="0" />
    <path
       id="path65"
       transform="matrix(0.06,0,0,0.06,-169.019,-260)"
       d="m 3024.0146,5017.9688 v 120.0521"
       style="fill:none;stroke:#000000;stroke-width:29;stroke-linecap:round;stroke-linejoin:round;stroke-miterlimit:10;stroke-opacity:1"
       inkscape:connector-curvature="0" />
    <path
       id="path67"
       transform="matrix(0.06,0,0,0.06,-169.019,-260)"
       d="m 3113.9886,5053.9714 h -119.987"
       style="fill:none;stroke:#000000;stroke-width:29;stroke-linecap:round;stroke-linejoin:round;stroke-miterlimit:10;stroke-opacity:1"
       inkscape:connector-curvature="0" />
    <path
       id="path69"
       transform="matrix(0.06,0,0,0.06,-169.019,-260)"
       d="M 3982.0225,5257.0313 V 5138.0209"
       style="fill:none;stroke:#000000;stroke-width:29;stroke-linecap:round;stroke-linejoin:round;stroke-miterlimit:10;stroke-opacity:1"
       inkscape:connector-curvature="0" />
    <path
       id="path71"
       transform="matrix(0.06,0,0,0.06,-169.019,-260)"
       d="m 3066.0068,5096.0287 h -83.9844 v 83.9844 h 83.9844 z m 0,0"
       style="fill:#000000;fill-opacity:1;fill-rule:nonzero;stroke:#000000;stroke-width:2;stroke-linecap:round;stroke-linejoin:round;stroke-miterlimit:10;stroke-opacity:1"
       inkscape:connector-curvature="0" />
    <path
       id="path73"
       transform="matrix(0.06,0,0,0.06,-169.019,-260)"
       d="m 3046.0198,5138.0209 c 0,11.5886 -9.4401,20.9636 -21.0286,20.9636 -11.5885,0 -20.9635,-9.375 -20.9635,-20.9636 0,-11.5885 9.375,-21.0286 20.9635,-21.0286 11.5885,0 21.0286,9.4401 21.0286,21.0286 z m 0,0"
       style="fill:#ffffff;fill-opacity:1;fill-rule:evenodd;stroke:#000000;stroke-width:1;stroke-linecap:square;stroke-linejoin:bevel;stroke-miterlimit:10;stroke-opacity:1"
       inkscape:connector-curvature="0" />
    <path
       id="path75"
       transform="matrix(0.06,0,0,0.06,-169.019,-260)"
       d="m 3186.9704,5138.0209 c 0,23.1771 -18.75,41.9922 -41.9922,41.9922 -23.1771,0 -41.9922,-18.8151 -41.9922,-41.9922 0,-23.2422 18.8151,-41.9922 41.9922,-41.9922 23.2422,0 41.9922,18.75 41.9922,41.9922 z m 0,0"
       style="fill:#000000;fill-opacity:1;fill-rule:evenodd;stroke:#000000;stroke-width:2;stroke-linecap:round;stroke-linejoin:round;stroke-miterlimit:10;stroke-opacity:1"
       inkscape:connector-curvature="0" />
    <path
       id="path77"
       transform="matrix(0.06,0,0,0.06,-169.019,-260)"
       d="m 3166.0068,5138.0209 c 0,11.5886 -9.4401,20.9636 -21.0286,20.9636 -11.5886,0 -20.9636,-9.375 -20.9636,-20.9636 0,-11.5885 9.375,-21.0286 20.9636,-21.0286 11.5885,0 21.0286,9.4401 21.0286,21.0286 z m 0,0"
       style="fill:#ffffff;fill-opacity:1;fill-rule:evenodd;stroke:#000000;stroke-width:1;stroke-linecap:square;stroke-linejoin:bevel;stroke-miterlimit:10;stroke-opacity:1"
       inkscape:connector-curvature="0" />
    <path
       id="path79"
       transform="matrix(0.06,0,0,0.06,-169.019,-260)"
       d="m 3066.9834,4538.9975 c 0,23.1771 -18.8151,41.9922 -41.9922,41.9922 -23.1771,0 -41.9922,-18.8151 -41.9922,-41.9922 0,-23.1771 18.8151,-41.9922 41.9922,-41.9922 23.1771,0 41.9922,18.8151 41.9922,41.9922 z m 0,0"
       style="fill:#000000;fill-opacity:1;fill-rule:evenodd;stroke:#000000;stroke-width:2;stroke-linecap:round;stroke-linejoin:round;stroke-miterlimit:10;stroke-opacity:1"
       inkscape:connector-curvature="0" />
    <path
       id="path81"
       transform="matrix(0.06,0,0,0.06,-169.019,-260)"
       d="m 3046.0198,4538.9975 c 0,11.5885 -9.4401,21.0286 -21.0286,21.0286 -11.5885,0 -20.9635,-9.4401 -20.9635,-21.0286 0,-11.5886 9.375,-21.0287 20.9635,-21.0287 11.5885,0 21.0286,9.4401 21.0286,21.0287 z m 0,0"
       style="fill:#ffffff;fill-opacity:1;fill-rule:evenodd;stroke:#000000;stroke-width:1;stroke-linecap:square;stroke-linejoin:bevel;stroke-miterlimit:10;stroke-opacity:1"
       inkscape:connector-curvature="0" />
    <path
       id="path83"
       transform="matrix(0.06,0,0,0.06,-169.019,-260)"
       d="m 3463.9886,4555.0131 22.9818,22.9818 h 32.0312 l 22.9818,-22.9818 v -32.0313 l -22.9818,-22.9817 h -32.0312 l -22.9818,22.9817 z m 0,0"
       style="fill:#000000;fill-opacity:1;fill-rule:nonzero;stroke:#000000;stroke-width:2;stroke-linecap:round;stroke-linejoin:round;stroke-miterlimit:10;stroke-opacity:1"
       inkscape:connector-curvature="0" />
    <path
       id="path85"
       transform="matrix(0.06,0,0,0.06,-169.019,-260)"
       d="m 3530.0042,4538.9975 c 0,14.388 -11.6536,25.9765 -25.9765,25.9765 -14.3881,0 -26.0417,-11.5885 -26.0417,-25.9765 0,-14.3881 11.6536,-25.9766 26.0417,-25.9766 14.3229,0 25.9765,11.5885 25.9765,25.9766 z m 0,0"
       style="fill:#ffffff;fill-opacity:1;fill-rule:evenodd;stroke:#000000;stroke-width:1;stroke-linecap:square;stroke-linejoin:bevel;stroke-miterlimit:10;stroke-opacity:1"
       inkscape:connector-curvature="0" />
    <path
       id="path87"
       transform="matrix(0.06,0,0,0.06,-169.019,-260)"
       d="m 3463.9886,4794.0105 22.9818,22.9818 h 32.0312 l 22.9818,-22.9818 v -32.0313 l -22.9818,-22.9817 h -32.0312 l -22.9818,22.9817 z m 0,0"
       style="fill:#000000;fill-opacity:1;fill-rule:nonzero;stroke:#000000;stroke-width:2;stroke-linecap:round;stroke-linejoin:round;stroke-miterlimit:10;stroke-opacity:1"
       inkscape:connector-curvature="0" />
    <path
       id="path89"
       transform="matrix(0.06,0,0,0.06,-169.019,-260)"
       d="m 3530.0042,4777.9949 c 0,14.388 -11.6536,25.9765 -25.9765,25.9765 -14.3881,0 -26.0417,-11.5885 -26.0417,-25.9765 0,-14.3229 11.6536,-25.9766 26.0417,-25.9766 14.3229,0 25.9765,11.6537 25.9765,25.9766 z m 0,0"
       style="fill:#ffffff;fill-opacity:1;fill-rule:evenodd;stroke:#000000;stroke-width:1;stroke-linecap:square;stroke-linejoin:bevel;stroke-miterlimit:10;stroke-opacity:1"
       inkscape:connector-curvature="0" />
    <path
       id="path91"
       transform="matrix(0.06,0,0,0.06,-169.019,-260)"
       d="m 3224.9912,4794.0105 22.9818,22.9818 h 32.0312 l 22.9818,-22.9818 v -32.0313 l -22.9818,-22.9817 h -32.0312 l -22.9818,22.9817 z m 0,0"
       style="fill:#000000;fill-opacity:1;fill-rule:nonzero;stroke:#000000;stroke-width:2;stroke-linecap:round;stroke-linejoin:round;stroke-miterlimit:10;stroke-opacity:1"
       inkscape:connector-curvature="0" />
    <path
       id="path93"
       transform="matrix(0.06,0,0,0.06,-169.019,-260)"
       d="m 3291.0068,4777.9949 c 0,14.388 -11.6536,25.9765 -25.9765,25.9765 -14.3881,0 -26.0417,-11.5885 -26.0417,-25.9765 0,-14.3229 11.6536,-25.9766 26.0417,-25.9766 14.3229,0 25.9765,11.6537 25.9765,25.9766 z m 0,0"
       style="fill:#ffffff;fill-opacity:1;fill-rule:evenodd;stroke:#000000;stroke-width:1;stroke-linecap:square;stroke-linejoin:bevel;stroke-miterlimit:10;stroke-opacity:1"
       inkscape:connector-curvature="0" />
    <path
       id="path95"
       transform="matrix(0.06,0,0,0.06,-169.019,-260)"
       d="m 3307.0225,5138.0209 c 0,23.1771 -18.8152,41.9922 -41.9922,41.9922 -23.2422,0 -42.0573,-18.8151 -42.0573,-41.9922 0,-23.2422 18.8151,-41.9922 42.0573,-41.9922 23.177,0 41.9922,18.75 41.9922,41.9922 z m 0,0"
       style="fill:#000000;fill-opacity:1;fill-rule:evenodd;stroke:#000000;stroke-width:2;stroke-linecap:round;stroke-linejoin:round;stroke-miterlimit:10;stroke-opacity:1"
       inkscape:connector-curvature="0" />
    <path
       id="path97"
       transform="matrix(0.06,0,0,0.06,-169.019,-260)"
       d="m 3285.9938,5138.0209 c 0,11.5886 -9.375,20.9636 -20.9635,20.9636 -11.6537,0 -21.0287,-9.375 -21.0287,-20.9636 0,-11.5885 9.375,-21.0286 21.0287,-21.0286 11.5885,0 20.9635,9.4401 20.9635,21.0286 z m 0,0"
       style="fill:#ffffff;fill-opacity:1;fill-rule:evenodd;stroke:#000000;stroke-width:1;stroke-linecap:square;stroke-linejoin:bevel;stroke-miterlimit:10;stroke-opacity:1"
       inkscape:connector-curvature="0" />
    <path
       id="path99"
       transform="matrix(0.06,0,0,0.06,-169.019,-260)"
       d="m 3307.0225,4897.9819 c 0,23.2421 -18.8152,41.9921 -41.9922,41.9921 -23.2422,0 -42.0573,-18.75 -42.0573,-41.9921 0,-23.1771 18.8151,-41.9922 42.0573,-41.9922 23.177,0 41.9922,18.8151 41.9922,41.9922 z m 0,0"
       style="fill:#000000;fill-opacity:1;fill-rule:evenodd;stroke:#000000;stroke-width:2;stroke-linecap:round;stroke-linejoin:round;stroke-miterlimit:10;stroke-opacity:1"
       inkscape:connector-curvature="0" />
    <path
       id="path101"
       transform="matrix(0.06,0,0,0.06,-169.019,-260)"
       d="m 3285.9938,4897.9819 c 0,11.5885 -9.375,21.0286 -20.9635,21.0286 -11.6537,0 -21.0287,-9.4401 -21.0287,-21.0286 0,-11.5886 9.375,-20.9636 21.0287,-20.9636 11.5885,0 20.9635,9.375 20.9635,20.9636 z m 0,0"
       style="fill:#ffffff;fill-opacity:1;fill-rule:evenodd;stroke:#000000;stroke-width:1;stroke-linecap:square;stroke-linejoin:bevel;stroke-miterlimit:10;stroke-opacity:1"
       inkscape:connector-curvature="0" />
    <path
       id="path103"
       transform="matrix(0.06,0,0,0.06,-169.019,-260)"
       d="m 3785.9938,4538.9975 c 0,23.1771 -18.8151,41.9922 -41.9922,41.9922 -23.1771,0 -41.9922,-18.8151 -41.9922,-41.9922 0,-23.1771 18.8151,-41.9922 41.9922,-41.9922 23.1771,0 41.9922,18.8151 41.9922,41.9922 z m 0,0"
       style="fill:#000000;fill-opacity:1;fill-rule:evenodd;stroke:#000000;stroke-width:2;stroke-linecap:round;stroke-linejoin:round;stroke-miterlimit:10;stroke-opacity:1"
       inkscape:connector-curvature="0" />
    <path
       id="path105"
       transform="matrix(0.06,0,0,0.06,-169.019,-260)"
       d="m 3765.0303,4538.9975 c 0,11.5885 -9.4401,21.0286 -21.0287,21.0286 -11.5885,0 -21.0286,-9.4401 -21.0286,-21.0286 0,-11.5886 9.4401,-21.0287 21.0286,-21.0287 11.5886,0 21.0287,9.4401 21.0287,21.0287 z m 0,0"
       style="fill:#ffffff;fill-opacity:1;fill-rule:evenodd;stroke:#000000;stroke-width:1;stroke-linecap:square;stroke-linejoin:bevel;stroke-miterlimit:10;stroke-opacity:1"
       inkscape:connector-curvature="0" />
    <path
       id="path107"
       transform="matrix(0.06,0,0,0.06,-169.019,-260)"
       d="m 3785.9938,4897.9819 c 0,23.2421 -18.8151,41.9921 -41.9922,41.9921 -23.1771,0 -41.9922,-18.75 -41.9922,-41.9921 0,-23.1771 18.8151,-41.9922 41.9922,-41.9922 23.1771,0 41.9922,18.8151 41.9922,41.9922 z m 0,0"
       style="fill:#000000;fill-opacity:1;fill-rule:evenodd;stroke:#000000;stroke-width:2;stroke-linecap:round;stroke-linejoin:round;stroke-miterlimit:10;stroke-opacity:1"
       inkscape:connector-curvature="0" />
    <path
       id="path109"
       transform="matrix(0.06,0,0,0.06,-169.019,-260)"
       d="m 3765.0303,4897.9819 c 0,11.5885 -9.4401,21.0286 -21.0287,21.0286 -11.5885,0 -21.0286,-9.4401 -21.0286,-21.0286 0,-11.5886 9.4401,-20.9636 21.0286,-20.9636 11.5886,0 21.0287,9.375 21.0287,20.9636 z m 0,0"
       style="fill:#ffffff;fill-opacity:1;fill-rule:evenodd;stroke:#000000;stroke-width:1;stroke-linecap:square;stroke-linejoin:bevel;stroke-miterlimit:10;stroke-opacity:1"
       inkscape:connector-curvature="0" />
    <path
       id="path111"
       transform="matrix(0.06,0,0,0.06,-169.019,-260)"
       d="m 3066.9834,5377.0183 c 0,23.1771 -18.8151,41.9922 -41.9922,41.9922 -23.1771,0 -41.9922,-18.8151 -41.9922,-41.9922 0,-23.2422 18.8151,-41.9922 41.9922,-41.9922 23.1771,0 41.9922,18.75 41.9922,41.9922 z m 0,0"
       style="fill:#000000;fill-opacity:1;fill-rule:evenodd;stroke:#000000;stroke-width:2;stroke-linecap:round;stroke-linejoin:round;stroke-miterlimit:10;stroke-opacity:1"
       inkscape:connector-curvature="0" />
    <path
       id="path113"
       transform="matrix(0.06,0,0,0.06,-169.019,-260)"
       d="m 3046.0198,5377.0183 c 0,11.5886 -9.4401,20.9636 -21.0286,20.9636 -11.5885,0 -20.9635,-9.375 -20.9635,-20.9636 0,-11.5885 9.375,-21.0286 20.9635,-21.0286 11.5885,0 21.0286,9.4401 21.0286,21.0286 z m 0,0"
       style="fill:#ffffff;fill-opacity:1;fill-rule:evenodd;stroke:#000000;stroke-width:1;stroke-linecap:square;stroke-linejoin:bevel;stroke-miterlimit:10;stroke-opacity:1"
       inkscape:connector-curvature="0" />
    <path
       id="path115"
       transform="matrix(0.06,0,0,0.06,-169.019,-260)"
       d="m 3186.9704,5377.0183 c 0,23.1771 -18.75,41.9922 -41.9922,41.9922 -23.1771,0 -41.9922,-18.8151 -41.9922,-41.9922 0,-23.2422 18.8151,-41.9922 41.9922,-41.9922 23.2422,0 41.9922,18.75 41.9922,41.9922 z m 0,0"
       style="fill:#000000;fill-opacity:1;fill-rule:evenodd;stroke:#000000;stroke-width:2;stroke-linecap:round;stroke-linejoin:round;stroke-miterlimit:10;stroke-opacity:1"
       inkscape:connector-curvature="0" />
    <path
       id="path117"
       transform="matrix(0.06,0,0,0.06,-169.019,-260)"
       d="m 3166.0068,5377.0183 c 0,11.5886 -9.4401,20.9636 -21.0286,20.9636 -11.5886,0 -20.9636,-9.375 -20.9636,-20.9636 0,-11.5885 9.375,-21.0286 20.9636,-21.0286 11.5885,0 21.0286,9.4401 21.0286,21.0286 z m 0,0"
       style="fill:#ffffff;fill-opacity:1;fill-rule:evenodd;stroke:#000000;stroke-width:1;stroke-linecap:square;stroke-linejoin:bevel;stroke-miterlimit:10;stroke-opacity:1"
       inkscape:connector-curvature="0" />
    <path
       id="path119"
       transform="matrix(0.06,0,0,0.06,-169.019,-260)"
       d="m 3305.9808,5335.0261 h -83.9844 v 83.9844 h 83.9844 z m 0,0"
       style="fill:#000000;fill-opacity:1;fill-rule:nonzero;stroke:#000000;stroke-width:2;stroke-linecap:round;stroke-linejoin:round;stroke-miterlimit:10;stroke-opacity:1"
       inkscape:connector-curvature="0" />
    <path
       id="path121"
       transform="matrix(0.06,0,0,0.06,-169.019,-260)"
       d="m 3285.9938,5377.0183 c 0,11.5886 -9.375,20.9636 -20.9635,20.9636 -11.6537,0 -21.0287,-9.375 -21.0287,-20.9636 0,-11.5885 9.375,-21.0286 21.0287,-21.0286 11.5885,0 20.9635,9.4401 20.9635,21.0286 z m 0,0"
       style="fill:#ffffff;fill-opacity:1;fill-rule:evenodd;stroke:#000000;stroke-width:1;stroke-linecap:square;stroke-linejoin:bevel;stroke-miterlimit:10;stroke-opacity:1"
       inkscape:connector-curvature="0" />
    <path
       id="path123"
       transform="matrix(0.06,0,0,0.06,-169.019,-260)"
       d="m 4024.9912,4658.9845 c 0,23.2421 -18.8151,41.9921 -41.9922,41.9921 -23.1771,0 -41.9922,-18.75 -41.9922,-41.9921 0,-23.1771 18.8151,-41.9922 41.9922,-41.9922 23.1771,0 41.9922,18.8151 41.9922,41.9922 z m 0,0"
       style="fill:#000000;fill-opacity:1;fill-rule:evenodd;stroke:#000000;stroke-width:2;stroke-linecap:round;stroke-linejoin:round;stroke-miterlimit:10;stroke-opacity:1"
       inkscape:connector-curvature="0" />
    <path
       id="path125"
       transform="matrix(0.06,0,0,0.06,-169.019,-260)"
       d="m 4004.0277,4658.9845 c 0,11.5885 -9.4401,21.0286 -21.0287,21.0286 -11.5885,0 -21.0286,-9.4401 -21.0286,-21.0286 0,-11.5886 9.4401,-20.9636 21.0286,-20.9636 11.5886,0 21.0287,9.375 21.0287,20.9636 z m 0,0"
       style="fill:#ffffff;fill-opacity:1;fill-rule:evenodd;stroke:#000000;stroke-width:1;stroke-linecap:square;stroke-linejoin:bevel;stroke-miterlimit:10;stroke-opacity:1"
       inkscape:connector-curvature="0" />
    <path
       id="path127"
       transform="matrix(0.06,0,0,0.06,-169.019,-260)"
       d="m 4024.9912,5138.0209 c 0,23.1771 -18.8151,41.9922 -41.9922,41.9922 -23.1771,0 -41.9922,-18.8151 -41.9922,-41.9922 0,-23.2422 18.8151,-41.9922 41.9922,-41.9922 23.1771,0 41.9922,18.75 41.9922,41.9922 z m 0,0"
       style="fill:#000000;fill-opacity:1;fill-rule:evenodd;stroke:#000000;stroke-width:2;stroke-linecap:round;stroke-linejoin:round;stroke-miterlimit:10;stroke-opacity:1"
       inkscape:connector-curvature="0" />
    <path
       id="path129"
       transform="matrix(0.06,0,0,0.06,-169.019,-260)"
       d="m 4004.0277,5138.0209 c 0,11.5886 -9.4401,20.9636 -21.0287,20.9636 -11.5885,0 -21.0286,-9.375 -21.0286,-20.9636 0,-11.5885 9.4401,-21.0286 21.0286,-21.0286 11.5886,0 21.0287,9.4401 21.0287,21.0286 z m 0,0"
       style="fill:#ffffff;fill-opacity:1;fill-rule:evenodd;stroke:#000000;stroke-width:1;stroke-linecap:square;stroke-linejoin:bevel;stroke-miterlimit:10;stroke-opacity:1"
       inkscape:connector-curvature="0" />
    <path
       id="path131"
       transform="matrix(0.06,0,0,0.06,-169.019,-260)"
       d="m 4024.0147,5335.0261 h -83.9844 v 83.9844 h 83.9844 z m 0,0"
       style="fill:#000000;fill-opacity:1;fill-rule:nonzero;stroke:#000000;stroke-width:2;stroke-linecap:round;stroke-linejoin:round;stroke-miterlimit:10;stroke-opacity:1"
       inkscape:connector-curvature="0" />
    <path
       id="path133"
       transform="matrix(0.06,0,0,0.06,-169.019,-260)"
       d="m 4004.0277,5377.0183 c 0,11.5886 -9.4401,20.9636 -21.0287,20.9636 -11.5885,0 -21.0286,-9.375 -21.0286,-20.9636 0,-11.5885 9.4401,-21.0286 21.0286,-21.0286 11.5886,0 21.0287,9.4401 21.0287,21.0286 z m 0,0"
       style="fill:#ffffff;fill-opacity:1;fill-rule:evenodd;stroke:#000000;stroke-width:1;stroke-linecap:square;stroke-linejoin:bevel;stroke-miterlimit:10;stroke-opacity:1"
       inkscape:connector-curvature="0" />
    <path
       id="path135"
       transform="matrix(0.06,0,0,0.06,-169.019,-260)"
       d="m 4024.9912,5257.0313 c 0,23.1771 -18.8151,41.9922 -41.9922,41.9922 -23.1771,0 -41.9922,-18.8151 -41.9922,-41.9922 0,-23.2422 18.8151,-42.0573 41.9922,-42.0573 23.1771,0 41.9922,18.8151 41.9922,42.0573 z m 0,0"
       style="fill:#000000;fill-opacity:1;fill-rule:evenodd;stroke:#000000;stroke-width:2;stroke-linecap:round;stroke-linejoin:round;stroke-miterlimit:10;stroke-opacity:1"
       inkscape:connector-curvature="0" />
    <path
       id="path137"
       transform="matrix(0.06,0,0,0.06,-169.019,-260)"
       d="m 4004.0277,5257.0313 c 0,11.5886 -9.4401,20.9636 -21.0287,20.9636 -11.5885,0 -21.0286,-9.375 -21.0286,-20.9636 0,-11.6536 9.4401,-21.0286 21.0286,-21.0286 11.5886,0 21.0287,9.375 21.0287,21.0286 z m 0,0"
       style="fill:#ffffff;fill-opacity:1;fill-rule:evenodd;stroke:#000000;stroke-width:1;stroke-linecap:square;stroke-linejoin:bevel;stroke-miterlimit:10;stroke-opacity:1"
       inkscape:connector-curvature="0" />
    <path
       id="path139"
       transform="matrix(0.06,0,0,0.06,-169.019,-260)"
       d="m 3785.9938,5017.9688 c 0,23.2422 -18.8151,42.0573 -41.9922,42.0573 -23.1771,0 -41.9922,-18.8151 -41.9922,-42.0573 0,-23.1771 18.8151,-41.9922 41.9922,-41.9922 23.1771,0 41.9922,18.8151 41.9922,41.9922 z m 0,0"
       style="fill:#000000;fill-opacity:1;fill-rule:evenodd;stroke:#000000;stroke-width:2;stroke-linecap:round;stroke-linejoin:round;stroke-miterlimit:10;stroke-opacity:1"
       inkscape:connector-curvature="0" />
    <path
       id="path141"
       transform="matrix(0.06,0,0,0.06,-169.019,-260)"
       d="m 3765.0303,5017.9688 c 0,11.6537 -9.4401,21.0287 -21.0287,21.0287 -11.5885,0 -21.0286,-9.375 -21.0286,-21.0287 0,-11.5885 9.4401,-20.9635 21.0286,-20.9635 11.5886,0 21.0287,9.375 21.0287,20.9635 z m 0,0"
       style="fill:#ffffff;fill-opacity:1;fill-rule:evenodd;stroke:#000000;stroke-width:1;stroke-linecap:square;stroke-linejoin:bevel;stroke-miterlimit:10;stroke-opacity:1"
       inkscape:connector-curvature="0" />
    <path
       id="path143"
       transform="matrix(0.06,0,0,0.06,-169.019,-260)"
       d="m 3546.0199,5017.9688 c 0,23.2422 -18.8152,42.0573 -41.9922,42.0573 -23.2422,0 -42.0573,-18.8151 -42.0573,-42.0573 0,-23.1771 18.8151,-41.9922 42.0573,-41.9922 23.177,0 41.9922,18.8151 41.9922,41.9922 z m 0,0"
       style="fill:#000000;fill-opacity:1;fill-rule:evenodd;stroke:#000000;stroke-width:2;stroke-linecap:round;stroke-linejoin:round;stroke-miterlimit:10;stroke-opacity:1"
       inkscape:connector-curvature="0" />
    <path
       id="path145"
       transform="matrix(0.06,0,0,0.06,-169.019,-260)"
       d="m 3524.9912,5017.9688 c 0,11.6537 -9.375,21.0287 -20.9635,21.0287 -11.6537,0 -21.0287,-9.375 -21.0287,-21.0287 0,-11.5885 9.375,-20.9635 21.0287,-20.9635 11.5885,0 20.9635,9.375 20.9635,20.9635 z m 0,0"
       style="fill:#ffffff;fill-opacity:1;fill-rule:evenodd;stroke:#000000;stroke-width:1;stroke-linecap:square;stroke-linejoin:bevel;stroke-miterlimit:10;stroke-opacity:1"
       inkscape:connector-curvature="0" />
    <path
       id="path147"
       transform="matrix(0.06,0,0,0.06,-169.019,-260)"
       d="m 3666.0068,5017.9688 c 0,23.2422 -18.8151,42.0573 -41.9922,42.0573 -23.2421,0 -41.9921,-18.8151 -41.9921,-42.0573 0,-23.1771 18.75,-41.9922 41.9921,-41.9922 23.1771,0 41.9922,18.8151 41.9922,41.9922 z m 0,0"
       style="fill:#000000;fill-opacity:1;fill-rule:evenodd;stroke:#000000;stroke-width:2;stroke-linecap:round;stroke-linejoin:round;stroke-miterlimit:10;stroke-opacity:1"
       inkscape:connector-curvature="0" />
    <path
       id="path149"
       transform="matrix(0.06,0,0,0.06,-169.019,-260)"
       d="m 3644.9782,5017.9688 c 0,11.6537 -9.375,21.0287 -20.9636,21.0287 -11.5885,0 -21.0286,-9.375 -21.0286,-21.0287 0,-11.5885 9.4401,-20.9635 21.0286,-20.9635 11.5886,0 20.9636,9.375 20.9636,20.9635 z m 0,0"
       style="fill:#ffffff;fill-opacity:1;fill-rule:evenodd;stroke:#000000;stroke-width:1;stroke-linecap:square;stroke-linejoin:bevel;stroke-miterlimit:10;stroke-opacity:1"
       inkscape:connector-curvature="0" />
    <path
       id="path151"
       transform="matrix(0.06,0,0,0.06,-169.019,-260)"
       d="m 3666.0068,5257.0313 c 0,23.1771 -18.8151,41.9922 -41.9922,41.9922 -23.2421,0 -41.9921,-18.8151 -41.9921,-41.9922 0,-23.2422 18.75,-42.0573 41.9921,-42.0573 23.1771,0 41.9922,18.8151 41.9922,42.0573 z m 0,0"
       style="fill:#000000;fill-opacity:1;fill-rule:evenodd;stroke:#000000;stroke-width:2;stroke-linecap:round;stroke-linejoin:round;stroke-miterlimit:10;stroke-opacity:1"
       inkscape:connector-curvature="0" />
    <path
       id="path153"
       transform="matrix(0.06,0,0,0.06,-169.019,-260)"
       d="m 3644.9782,5257.0313 c 0,11.5886 -9.375,20.9636 -20.9636,20.9636 -11.5885,0 -21.0286,-9.375 -21.0286,-20.9636 0,-11.6536 9.4401,-21.0286 21.0286,-21.0286 11.5886,0 20.9636,9.375 20.9636,21.0286 z m 0,0"
       style="fill:#ffffff;fill-opacity:1;fill-rule:evenodd;stroke:#000000;stroke-width:1;stroke-linecap:square;stroke-linejoin:bevel;stroke-miterlimit:10;stroke-opacity:1"
       inkscape:connector-curvature="0" />
    <path
       id="path155"
       transform="matrix(0.06,0,0,0.06,-169.019,-260)"
       d="m 3905.0042,5257.0313 c 0,23.1771 -18.8151,41.9922 -41.9922,41.9922 -23.177,0 -41.9921,-18.8151 -41.9921,-41.9922 0,-23.2422 18.8151,-42.0573 41.9921,-42.0573 23.1771,0 41.9922,18.8151 41.9922,42.0573 z m 0,0"
       style="fill:#000000;fill-opacity:1;fill-rule:evenodd;stroke:#000000;stroke-width:2;stroke-linecap:round;stroke-linejoin:round;stroke-miterlimit:10;stroke-opacity:1"
       inkscape:connector-curvature="0" />
    <path
       id="path157"
       transform="matrix(0.06,0,0,0.06,-169.019,-260)"
       d="m 3883.9756,5257.0313 c 0,11.5886 -9.375,20.9636 -20.9636,20.9636 -11.5885,0 -21.0286,-9.375 -21.0286,-20.9636 0,-11.6536 9.4401,-21.0286 21.0286,-21.0286 11.5886,0 20.9636,9.375 20.9636,21.0286 z m 0,0"
       style="fill:#ffffff;fill-opacity:1;fill-rule:evenodd;stroke:#000000;stroke-width:1;stroke-linecap:square;stroke-linejoin:bevel;stroke-miterlimit:10;stroke-opacity:1"
       inkscape:connector-curvature="0" />
    <path
       id="path159"
       transform="matrix(0.06,0,0,0.06,-169.019,-260)"
       d="m 3785.9938,5257.0313 c 0,23.1771 -18.8151,41.9922 -41.9922,41.9922 -23.1771,0 -41.9922,-18.8151 -41.9922,-41.9922 0,-23.2422 18.8151,-42.0573 41.9922,-42.0573 23.1771,0 41.9922,18.8151 41.9922,42.0573 z m 0,0"
       style="fill:#000000;fill-opacity:1;fill-rule:evenodd;stroke:#000000;stroke-width:2;stroke-linecap:round;stroke-linejoin:round;stroke-miterlimit:10;stroke-opacity:1"
       inkscape:connector-curvature="0" />
    <path
       id="path161"
       transform="matrix(0.06,0,0,0.06,-169.019,-260)"
       d="m 3765.0303,5257.0313 c 0,11.5886 -9.4401,20.9636 -21.0287,20.9636 -11.5885,0 -21.0286,-9.375 -21.0286,-20.9636 0,-11.6536 9.4401,-21.0286 21.0286,-21.0286 11.5886,0 21.0287,9.375 21.0287,21.0286 z m 0,0"
       style="fill:#ffffff;fill-opacity:1;fill-rule:evenodd;stroke:#000000;stroke-width:1;stroke-linecap:square;stroke-linejoin:bevel;stroke-miterlimit:10;stroke-opacity:1"
       inkscape:connector-curvature="0" />
    <path
       id="path163"
       transform="matrix(0.06,0,0,0.06,-169.019,-260)"
       d="M 3743.0251,4538.9975 H 3502.986"
       style="fill:none;stroke:#000000;stroke-width:2;stroke-linecap:round;stroke-linejoin:round;stroke-miterlimit:10;stroke-opacity:1"
       inkscape:connector-curvature="0" />
    <g
       id="g167"
       clip-path="url(#clip1)"
       style="clip-rule:nonzero">
      <path
         id="path165"
         transform="matrix(0.06,0,0,0.06,-169.019,-260)"
         d="M 4102.0094,5497.0053 H 2904.0277"
         style="fill:none;stroke:#000000;stroke-width:2;stroke-linecap:round;stroke-linejoin:round;stroke-miterlimit:10;stroke-opacity:1"
         inkscape:connector-curvature="0" />
    </g>
    <g
       id="g171"
       clip-path="url(#clip2)"
       style="clip-rule:nonzero">
      <path
         id="path169"
         transform="matrix(0.06,0,0,0.06,-169.019,-260)"
         d="M 2904.0277,5497.0053 V 4419.0105"
         style="fill:none;stroke:#000000;stroke-width:2;stroke-linecap:round;stroke-linejoin:round;stroke-miterlimit:10;stroke-opacity:1"
         inkscape:connector-curvature="0" />
    </g>
    <g
       id="g175"
       clip-path="url(#clip3)"
       style="clip-rule:nonzero">
      <path
         id="path173"
         transform="matrix(0.06,0,0,0.06,-169.019,-260)"
         d="M 2904.0277,4419.0105 H 4102.0094"
         style="fill:none;stroke:#000000;stroke-width:2;stroke-linecap:round;stroke-linejoin:round;stroke-miterlimit:10;stroke-opacity:1"
         inkscape:connector-curvature="0" />
    </g>
    <g
       id="g179"
       clip-path="url(#clip4)"
       style="clip-rule:nonzero">
      <path
         id="path177"
         transform="matrix(0.06,0,0,0.06,-169.019,-260)"
         d="M 4102.0094,4419.0105 V 5497.0053"
         style="fill:none;stroke:#000000;stroke-width:2;stroke-linecap:round;stroke-linejoin:round;stroke-miterlimit:10;stroke-opacity:1"
         inkscape:connector-curvature="0" />
    </g>
    <g
       id="g183"
       clip-path="url(#clip5)"
       style="clip-rule:nonzero">
      <path
         id="path181"
         transform="matrix(0.06,0,0,0.06,-169.019,-260)"
         d="M 2904.0277,5497.0053 V 4419.0105"
         style="fill:none;stroke:#000000;stroke-width:2;stroke-linecap:round;stroke-linejoin:round;stroke-miterlimit:10;stroke-opacity:1"
         inkscape:connector-curvature="0" />
    </g>
  </g>
</svg>
