<?xml version="1.0" encoding="UTF-8" standalone="no"?>
<svg
   xmlns:dc="http://purl.org/dc/elements/1.1/"
   xmlns:cc="http://creativecommons.org/ns#"
   xmlns:rdf="http://www.w3.org/1999/02/22-rdf-syntax-ns#"
   xmlns:svg="http://www.w3.org/2000/svg"
   xmlns="http://www.w3.org/2000/svg"
   xmlns:sodipodi="http://sodipodi.sourceforge.net/DTD/sodipodi-0.dtd"
   xmlns:inkscape="http://www.inkscape.org/namespaces/inkscape"
   id="svg211"
   version="1.1"
   viewBox="0 0 93.541328 61.201477"
   height="61.201477pt"
   width="93.541328pt"
   sodipodi:docname="FM-Radio-Simple-Receiver-2-board-mirrored.svg"
   inkscape:version="0.92.5 (2060ec1f9f, 2020-04-08)">
  <sodipodi:namedview
     pagecolor="#ffffff"
     bordercolor="#666666"
     borderopacity="1"
     objecttolerance="10"
     gridtolerance="10"
     guidetolerance="10"
     inkscape:pageopacity="0"
     inkscape:pageshadow="2"
     inkscape:window-width="600"
     inkscape:window-height="420"
     id="namedview111"
     showgrid="false"
     inkscape:zoom="2.4583333"
     inkscape:cx="62.427083"
     inkscape:cy="41.307294"
     inkscape:window-x="0"
     inkscape:window-y="0"
     inkscape:window-maximized="0"
     inkscape:current-layer="svg211" />
  <metadata
     id="metadata215">
    <rdf:RDF>
      <cc:Work
         rdf:about="">
        <dc:format>image/svg+xml</dc:format>
        <dc:type
           rdf:resource="http://purl.org/dc/dcmitype/StillImage" />
      </cc:Work>
    </rdf:RDF>
  </metadata>
  <defs
     id="defs14">
    <clipPath
       id="clip1">
      <path
         id="path2"
         d="M 5.179688,66 H 98.78125 v 0.980469 H 5.179688 Z m 0,0"
         inkscape:connector-curvature="0" />
    </clipPath>
    <clipPath
       id="clip2">
      <path
         id="path5"
         d="M 5.179688,5 H 6 V 66.980469 H 5.179688 Z m 0,0"
         inkscape:connector-curvature="0" />
    </clipPath>
    <clipPath
       id="clip3">
      <path
         id="path8"
         d="M 5.179688,5 H 98.78125 V 6 H 5.179688 Z m 0,0"
         inkscape:connector-curvature="0" />
    </clipPath>
    <clipPath
       id="clip4">
      <path
         id="path11"
         d="m 98,5 h 0.78125 V 66.980469 H 98 Z m 0,0"
         inkscape:connector-curvature="0" />
    </clipPath>
  </defs>
  <g
     id="surface1"
     transform="translate(-5.179688,-5.7789937)">
    <path
       id="path16"
       transform="matrix(0.06,0,0,0.06,-158.019,-262)"
       d="M 2840.0303,4763.0209 V 4524.0235"
       style="fill:none;stroke:#000000;stroke-width:29;stroke-linecap:round;stroke-linejoin:round;stroke-miterlimit:10;stroke-opacity:1"
       inkscape:connector-curvature="0" />
    <path
       id="path18"
       transform="matrix(0.06,0,0,0.06,-158.019,-262)"
       d="m 2840.0303,4763.0209 v 239.974"
       style="fill:none;stroke:#000000;stroke-width:29;stroke-linecap:round;stroke-linejoin:round;stroke-miterlimit:10;stroke-opacity:1"
       inkscape:connector-curvature="0" />
    <path
       id="path20"
       transform="matrix(0.06,0,0,0.06,-158.019,-262)"
       d="m 2840.0303,5241.9923 h 119.9869"
       style="fill:none;stroke:#000000;stroke-width:29;stroke-linecap:round;stroke-linejoin:round;stroke-miterlimit:10;stroke-opacity:1"
       inkscape:connector-curvature="0" />
    <path
       id="path22"
       transform="matrix(0.06,0,0,0.06,-158.019,-262)"
       d="M 2960.0172,5241.9923 V 5002.9949"
       style="fill:none;stroke:#000000;stroke-width:29;stroke-linecap:round;stroke-linejoin:round;stroke-miterlimit:10;stroke-opacity:1"
       inkscape:connector-curvature="0" />
    <path
       id="path24"
       transform="matrix(0.06,0,0,0.06,-158.019,-262)"
       d="M 3199.0146,5122.0053 V 4524.0235"
       style="fill:none;stroke:#000000;stroke-width:29;stroke-linecap:round;stroke-linejoin:round;stroke-miterlimit:10;stroke-opacity:1"
       inkscape:connector-curvature="0" />
    <path
       id="path26"
       transform="matrix(0.06,0,0,0.06,-158.019,-262)"
       d="m 3080.0042,4524.0235 h 119.0104"
       style="fill:none;stroke:#000000;stroke-width:29;stroke-linecap:round;stroke-linejoin:round;stroke-miterlimit:10;stroke-opacity:1"
       inkscape:connector-curvature="0" />
    <path
       id="path28"
       transform="matrix(0.06,0,0,0.06,-158.019,-262)"
       d="m 3558.9756,5241.9923 h 120.0521"
       style="fill:none;stroke:#000000;stroke-width:29;stroke-linecap:round;stroke-linejoin:round;stroke-miterlimit:10;stroke-opacity:1"
       inkscape:connector-curvature="0" />
    <path
       id="path30"
       transform="matrix(0.06,0,0,0.06,-158.019,-262)"
       d="M 3679.0277,5241.9923 V 4524.0235"
       style="fill:none;stroke:#000000;stroke-width:29;stroke-linecap:round;stroke-linejoin:round;stroke-miterlimit:10;stroke-opacity:1"
       inkscape:connector-curvature="0" />
    <path
       id="path32"
       transform="matrix(0.06,0,0,0.06,-158.019,-262)"
       d="m 3679.0277,4524.0235 h 119.9869"
       style="fill:none;stroke:#000000;stroke-width:29;stroke-linecap:round;stroke-linejoin:round;stroke-miterlimit:10;stroke-opacity:1"
       inkscape:connector-curvature="0" />
    <path
       id="path34"
       transform="matrix(0.06,0,0,0.06,-158.019,-262)"
       d="m 3799.0146,4524.0235 h -600"
       style="fill:none;stroke:#000000;stroke-width:29;stroke-linecap:round;stroke-linejoin:round;stroke-miterlimit:10;stroke-opacity:1"
       inkscape:connector-curvature="0" />
    <path
       id="path36"
       transform="matrix(0.06,0,0,0.06,-158.019,-262)"
       d="m 3680.9808,5122.0053 -1.9531,119.987"
       style="fill:none;stroke:#000000;stroke-width:29;stroke-linecap:round;stroke-linejoin:round;stroke-miterlimit:10;stroke-opacity:1"
       inkscape:connector-curvature="0" />
    <path
       id="path38"
       transform="matrix(0.06,0,0,0.06,-158.019,-262)"
       d="m 3319.0016,5002.9949 v 119.0104"
       style="fill:none;stroke:#000000;stroke-width:29;stroke-linecap:round;stroke-linejoin:round;stroke-miterlimit:10;stroke-opacity:1"
       inkscape:connector-curvature="0" />
    <path
       id="path40"
       transform="matrix(0.06,0,0,0.06,-158.019,-262)"
       d="m 3319.0016,5241.9923 v -119.987"
       style="fill:none;stroke:#000000;stroke-width:29;stroke-linecap:round;stroke-linejoin:round;stroke-miterlimit:10;stroke-opacity:1"
       inkscape:connector-curvature="0" />
    <path
       id="path42"
       transform="matrix(0.06,0,0,0.06,-158.019,-262)"
       d="m 3319.0016,5122.0053 h 119.987"
       style="fill:none;stroke:#000000;stroke-width:29;stroke-linecap:round;stroke-linejoin:round;stroke-miterlimit:10;stroke-opacity:1"
       inkscape:connector-curvature="0" />
    <path
       id="path44"
       transform="matrix(0.06,0,0,0.06,-158.019,-262)"
       d="M 3796.9964,5361.9793 H 3438.9886"
       style="fill:none;stroke:#000000;stroke-width:29;stroke-linecap:round;stroke-linejoin:round;stroke-miterlimit:10;stroke-opacity:1"
       inkscape:connector-curvature="0" />
    <path
       id="path46"
       transform="matrix(0.06,0,0,0.06,-158.019,-262)"
       d="m 3438.9886,5361.9793 h -239.974"
       style="fill:none;stroke:#000000;stroke-width:29;stroke-linecap:round;stroke-linejoin:round;stroke-miterlimit:10;stroke-opacity:1"
       inkscape:connector-curvature="0" />
    <path
       id="path48"
       transform="matrix(0.06,0,0,0.06,-158.019,-262)"
       d="m 3080.0042,5002.9949 v 358.9844"
       style="fill:none;stroke:#000000;stroke-width:29;stroke-linecap:round;stroke-linejoin:round;stroke-miterlimit:10;stroke-opacity:1"
       inkscape:connector-curvature="0" />
    <path
       id="path50"
       transform="matrix(0.06,0,0,0.06,-158.019,-262)"
       d="m 3796.9964,5361.9793 238.9974,2.0182"
       style="fill:none;stroke:#000000;stroke-width:29;stroke-linecap:round;stroke-linejoin:round;stroke-miterlimit:10;stroke-opacity:1"
       inkscape:connector-curvature="0" />
    <path
       id="path52"
       transform="matrix(0.06,0,0,0.06,-158.019,-262)"
       d="m 4035.9938,5363.9975 2.0182,-361.0026"
       style="fill:none;stroke:#000000;stroke-width:29;stroke-linecap:round;stroke-linejoin:round;stroke-miterlimit:10;stroke-opacity:1"
       inkscape:connector-curvature="0" />
    <path
       id="path54"
       transform="matrix(0.06,0,0,0.06,-158.019,-262)"
       d="m 4038.012,4763.0209 v 239.974"
       style="fill:none;stroke:#000000;stroke-width:29;stroke-linecap:round;stroke-linejoin:round;stroke-miterlimit:10;stroke-opacity:1"
       inkscape:connector-curvature="0" />
    <path
       id="path56"
       transform="matrix(0.06,0,0,0.06,-158.019,-262)"
       d="M 3796.9964,5361.9793 H 4157.999"
       style="fill:none;stroke:#000000;stroke-width:29;stroke-linecap:round;stroke-linejoin:round;stroke-miterlimit:10;stroke-opacity:1"
       inkscape:connector-curvature="0" />
    <path
       id="path58"
       transform="matrix(0.06,0,0,0.06,-158.019,-262)"
       d="m 3080.0042,5002.9949 v -239.974"
       style="fill:none;stroke:#000000;stroke-width:29;stroke-linecap:round;stroke-linejoin:round;stroke-miterlimit:10;stroke-opacity:1"
       inkscape:connector-curvature="0" />
    <path
       id="path60"
       transform="matrix(0.06,0,0,0.06,-158.019,-262)"
       d="M 3199.0146,5361.9793 H 3080.0042"
       style="fill:none;stroke:#000000;stroke-width:29;stroke-linecap:round;stroke-linejoin:round;stroke-miterlimit:10;stroke-opacity:1"
       inkscape:connector-curvature="0" />
    <path
       id="path62"
       transform="matrix(0.06,0,0,0.06,-158.019,-262)"
       d="M 3080.0042,5361.9793 H 2840.0303"
       style="fill:none;stroke:#000000;stroke-width:29;stroke-linecap:round;stroke-linejoin:round;stroke-miterlimit:10;stroke-opacity:1"
       inkscape:connector-curvature="0" />
    <path
       id="path64"
       transform="matrix(0.06,0,0,0.06,-158.019,-262)"
       d="M 3918.0251,4524.0235 H 4157.999"
       style="fill:none;stroke:#000000;stroke-width:29;stroke-linecap:round;stroke-linejoin:round;stroke-miterlimit:10;stroke-opacity:1"
       inkscape:connector-curvature="0" />
    <path
       id="path66"
       transform="matrix(0.06,0,0,0.06,-158.019,-262)"
       d="m 3799.0146,5002.9949 h 119.0105"
       style="fill:none;stroke:#000000;stroke-width:29;stroke-linecap:round;stroke-linejoin:round;stroke-miterlimit:10;stroke-opacity:1"
       inkscape:connector-curvature="0" />
    <path
       id="path68"
       transform="matrix(0.06,0,0,0.06,-158.019,-262)"
       d="M 3918.0251,4763.0209 V 4524.0235"
       style="fill:none;stroke:#000000;stroke-width:29;stroke-linecap:round;stroke-linejoin:round;stroke-miterlimit:10;stroke-opacity:1"
       inkscape:connector-curvature="0" />
    <path
       id="path70"
       transform="matrix(0.06,0,0,0.06,-158.019,-262)"
       d="m 3918.0251,4763.0209 v 239.974"
       style="fill:none;stroke:#000000;stroke-width:29;stroke-linecap:round;stroke-linejoin:round;stroke-miterlimit:10;stroke-opacity:1"
       inkscape:connector-curvature="0" />
    <path
       id="path72"
       transform="matrix(0.06,0,0,0.06,-158.019,-262)"
       d="m 4157.999,5002.9949 v 238.9974"
       style="fill:none;stroke:#000000;stroke-width:29;stroke-linecap:round;stroke-linejoin:round;stroke-miterlimit:10;stroke-opacity:1"
       inkscape:connector-curvature="0" />
    <path
       id="path74"
       transform="matrix(0.06,0,0,0.06,-158.019,-262)"
       d="m 2882.0224,5319.9871 h -84.0494 v 83.9843 h 84.0494 z m 0,0"
       style="fill:#000000;fill-opacity:1;fill-rule:nonzero;stroke:#000000;stroke-width:2;stroke-linecap:round;stroke-linejoin:round;stroke-miterlimit:10;stroke-opacity:1"
       inkscape:connector-curvature="0" />
    <path
       id="path76"
       transform="matrix(0.06,0,0,0.06,-158.019,-262)"
       d="m 2861.9704,5361.9793 c 0,11.5885 -9.375,21.0286 -20.9636,21.0286 -11.5885,0 -21.0286,-9.4401 -21.0286,-21.0286 0,-11.5886 9.4401,-20.9636 21.0286,-20.9636 11.5886,0 20.9636,9.375 20.9636,20.9636 z m 0,0"
       style="fill:#ffffff;fill-opacity:1;fill-rule:evenodd;stroke:#000000;stroke-width:1;stroke-linecap:square;stroke-linejoin:bevel;stroke-miterlimit:10;stroke-opacity:1"
       inkscape:connector-curvature="0" />
    <path
       id="path78"
       transform="matrix(0.06,0,0,0.06,-158.019,-262)"
       d="m 2882.999,5241.9923 c 0,23.1771 -18.8151,41.9922 -41.9922,41.9922 -23.1771,0 -41.9922,-18.8151 -41.9922,-41.9922 0,-23.1771 18.8151,-41.9922 41.9922,-41.9922 23.1771,0 41.9922,18.8151 41.9922,41.9922 z m 0,0"
       style="fill:#000000;fill-opacity:1;fill-rule:evenodd;stroke:#000000;stroke-width:2;stroke-linecap:round;stroke-linejoin:round;stroke-miterlimit:10;stroke-opacity:1"
       inkscape:connector-curvature="0" />
    <path
       id="path80"
       transform="matrix(0.06,0,0,0.06,-158.019,-262)"
       d="m 2861.9704,5241.9923 c 0,11.5885 -9.375,21.0286 -20.9636,21.0286 -11.5885,0 -21.0286,-9.4401 -21.0286,-21.0286 0,-11.5886 9.4401,-20.9636 21.0286,-20.9636 11.5886,0 20.9636,9.375 20.9636,20.9636 z m 0,0"
       style="fill:#ffffff;fill-opacity:1;fill-rule:evenodd;stroke:#000000;stroke-width:1;stroke-linecap:square;stroke-linejoin:bevel;stroke-miterlimit:10;stroke-opacity:1"
       inkscape:connector-curvature="0" />
    <path
       id="path82"
       transform="matrix(0.06,0,0,0.06,-158.019,-262)"
       d="m 3241.9834,4524.0235 c 0,23.1771 -18.8151,41.9922 -41.9922,41.9922 -23.1771,0 -41.9922,-18.8151 -41.9922,-41.9922 0,-23.2422 18.8151,-41.9922 41.9922,-41.9922 23.1771,0 41.9922,18.75 41.9922,41.9922 z m 0,0"
       style="fill:#000000;fill-opacity:1;fill-rule:evenodd;stroke:#000000;stroke-width:2;stroke-linecap:round;stroke-linejoin:round;stroke-miterlimit:10;stroke-opacity:1"
       inkscape:connector-curvature="0" />
    <path
       id="path84"
       transform="matrix(0.06,0,0,0.06,-158.019,-262)"
       d="m 3221.0198,4524.0235 c 0,11.5886 -9.4401,20.9636 -21.0286,20.9636 -11.5885,0 -20.9635,-9.375 -20.9635,-20.9636 0,-11.6536 9.375,-21.0286 20.9635,-21.0286 11.5885,0 21.0286,9.375 21.0286,21.0286 z m 0,0"
       style="fill:#ffffff;fill-opacity:1;fill-rule:evenodd;stroke:#000000;stroke-width:1;stroke-linecap:square;stroke-linejoin:bevel;stroke-miterlimit:10;stroke-opacity:1"
       inkscape:connector-curvature="0" />
    <path
       id="path86"
       transform="matrix(0.06,0,0,0.06,-158.019,-262)"
       d="m 3840.0303,5361.9793 c 0,23.2421 -18.8151,41.9921 -42.0573,41.9921 -23.1771,0 -41.9922,-18.75 -41.9922,-41.9921 0,-23.1771 18.8151,-41.9922 41.9922,-41.9922 23.2422,0 42.0573,18.8151 42.0573,41.9922 z m 0,0"
       style="fill:#000000;fill-opacity:1;fill-rule:evenodd;stroke:#000000;stroke-width:2;stroke-linecap:round;stroke-linejoin:round;stroke-miterlimit:10;stroke-opacity:1"
       inkscape:connector-curvature="0" />
    <path
       id="path88"
       transform="matrix(0.06,0,0,0.06,-158.019,-262)"
       d="m 3819.0016,5361.9793 c 0,11.5885 -9.375,21.0286 -21.0286,21.0286 -11.5886,0 -20.9636,-9.4401 -20.9636,-21.0286 0,-11.5886 9.375,-20.9636 20.9636,-20.9636 11.6536,0 21.0286,9.375 21.0286,20.9636 z m 0,0"
       style="fill:#ffffff;fill-opacity:1;fill-rule:evenodd;stroke:#000000;stroke-width:1;stroke-linecap:square;stroke-linejoin:bevel;stroke-miterlimit:10;stroke-opacity:1"
       inkscape:connector-curvature="0" />
    <path
       id="path90"
       transform="matrix(0.06,0,0,0.06,-158.019,-262)"
       d="m 3724.0146,5122.0053 c 0,23.1771 -18.8151,41.9922 -41.9921,41.9922 -23.2422,0 -41.9922,-18.8151 -41.9922,-41.9922 0,-23.1771 18.75,-41.9922 41.9922,-41.9922 23.177,0 41.9921,18.8151 41.9921,41.9922 z m 0,0"
       style="fill:#000000;fill-opacity:1;fill-rule:evenodd;stroke:#000000;stroke-width:2;stroke-linecap:round;stroke-linejoin:round;stroke-miterlimit:10;stroke-opacity:1"
       inkscape:connector-curvature="0" />
    <path
       id="path92"
       transform="matrix(0.06,0,0,0.06,-158.019,-262)"
       d="m 3702.986,5122.0053 c 0,11.5885 -9.375,20.9635 -20.9635,20.9635 -11.5886,0 -21.0287,-9.375 -21.0287,-20.9635 0,-11.5885 9.4401,-21.0287 21.0287,-21.0287 11.5885,0 20.9635,9.4402 20.9635,21.0287 z m 0,0"
       style="fill:#ffffff;fill-opacity:1;fill-rule:evenodd;stroke:#000000;stroke-width:1;stroke-linecap:square;stroke-linejoin:bevel;stroke-miterlimit:10;stroke-opacity:1"
       inkscape:connector-curvature="0" />
    <path
       id="path94"
       transform="matrix(0.06,0,0,0.06,-158.019,-262)"
       d="m 2882.999,4524.0235 c 0,23.1771 -18.8151,41.9922 -41.9922,41.9922 -23.1771,0 -41.9922,-18.8151 -41.9922,-41.9922 0,-23.2422 18.8151,-41.9922 41.9922,-41.9922 23.1771,0 41.9922,18.75 41.9922,41.9922 z m 0,0"
       style="fill:#000000;fill-opacity:1;fill-rule:evenodd;stroke:#000000;stroke-width:2;stroke-linecap:round;stroke-linejoin:round;stroke-miterlimit:10;stroke-opacity:1"
       inkscape:connector-curvature="0" />
    <path
       id="path96"
       transform="matrix(0.06,0,0,0.06,-158.019,-262)"
       d="m 2861.9704,4524.0235 c 0,11.5886 -9.375,20.9636 -20.9636,20.9636 -11.5885,0 -21.0286,-9.375 -21.0286,-20.9636 0,-11.6536 9.4401,-21.0286 21.0286,-21.0286 11.5886,0 20.9636,9.375 20.9636,21.0286 z m 0,0"
       style="fill:#ffffff;fill-opacity:1;fill-rule:evenodd;stroke:#000000;stroke-width:1;stroke-linecap:square;stroke-linejoin:bevel;stroke-miterlimit:10;stroke-opacity:1"
       inkscape:connector-curvature="0" />
    <path
       id="path98"
       transform="matrix(0.06,0,0,0.06,-158.019,-262)"
       d="m 3122.973,4524.0235 c 0,23.1771 -18.75,41.9922 -41.9922,41.9922 -23.1771,0 -41.9922,-18.8151 -41.9922,-41.9922 0,-23.2422 18.8151,-41.9922 41.9922,-41.9922 23.2422,0 41.9922,18.75 41.9922,41.9922 z m 0,0"
       style="fill:#000000;fill-opacity:1;fill-rule:evenodd;stroke:#000000;stroke-width:2;stroke-linecap:round;stroke-linejoin:round;stroke-miterlimit:10;stroke-opacity:1"
       inkscape:connector-curvature="0" />
    <path
       id="path100"
       transform="matrix(0.06,0,0,0.06,-158.019,-262)"
       d="m 3102.0094,4524.0235 c 0,11.5886 -9.4401,20.9636 -21.0286,20.9636 -11.5886,0 -20.9636,-9.375 -20.9636,-20.9636 0,-11.6536 9.375,-21.0286 20.9636,-21.0286 11.5885,0 21.0286,9.375 21.0286,21.0286 z m 0,0"
       style="fill:#ffffff;fill-opacity:1;fill-rule:evenodd;stroke:#000000;stroke-width:1;stroke-linecap:square;stroke-linejoin:bevel;stroke-miterlimit:10;stroke-opacity:1"
       inkscape:connector-curvature="0" />
    <path
       id="path102"
       transform="matrix(0.06,0,0,0.06,-158.019,-262)"
       d="m 3721.9964,4524.0235 c 0,23.1771 -18.8151,41.9922 -41.9922,41.9922 -23.1771,0 -41.9922,-18.8151 -41.9922,-41.9922 0,-23.2422 18.8151,-41.9922 41.9922,-41.9922 23.1771,0 41.9922,18.75 41.9922,41.9922 z m 0,0"
       style="fill:#000000;fill-opacity:1;fill-rule:evenodd;stroke:#000000;stroke-width:2;stroke-linecap:round;stroke-linejoin:round;stroke-miterlimit:10;stroke-opacity:1"
       inkscape:connector-curvature="0" />
    <path
       id="path104"
       transform="matrix(0.06,0,0,0.06,-158.019,-262)"
       d="m 3700.9678,4524.0235 c 0,11.5886 -9.375,20.9636 -20.9636,20.9636 -11.5885,0 -21.0286,-9.375 -21.0286,-20.9636 0,-11.6536 9.4401,-21.0286 21.0286,-21.0286 11.5886,0 20.9636,9.375 20.9636,21.0286 z m 0,0"
       style="fill:#ffffff;fill-opacity:1;fill-rule:evenodd;stroke:#000000;stroke-width:1;stroke-linecap:square;stroke-linejoin:bevel;stroke-miterlimit:10;stroke-opacity:1"
       inkscape:connector-curvature="0" />
    <path
       id="path106"
       transform="matrix(0.06,0,0,0.06,-158.019,-262)"
       d="m 3361.9704,5002.9949 c 0,23.1771 -18.75,41.9922 -41.9922,41.9922 -23.1771,0 -41.9922,-18.8151 -41.9922,-41.9922 0,-23.1771 18.8151,-41.9922 41.9922,-41.9922 23.2422,0 41.9922,18.8151 41.9922,41.9922 z m 0,0"
       style="fill:#000000;fill-opacity:1;fill-rule:evenodd;stroke:#000000;stroke-width:2;stroke-linecap:round;stroke-linejoin:round;stroke-miterlimit:10;stroke-opacity:1"
       inkscape:connector-curvature="0" />
    <path
       id="path108"
       transform="matrix(0.06,0,0,0.06,-158.019,-262)"
       d="m 3341.0068,5002.9949 c 0,11.5885 -9.4401,21.0286 -21.0286,21.0286 -11.5886,0 -20.9636,-9.4401 -20.9636,-21.0286 0,-11.5886 9.375,-20.9636 20.9636,-20.9636 11.5885,0 21.0286,9.375 21.0286,20.9636 z m 0,0"
       style="fill:#ffffff;fill-opacity:1;fill-rule:evenodd;stroke:#000000;stroke-width:1;stroke-linecap:square;stroke-linejoin:bevel;stroke-miterlimit:10;stroke-opacity:1"
       inkscape:connector-curvature="0" />
    <path
       id="path110"
       transform="matrix(0.06,0,0,0.06,-158.019,-262)"
       d="m 3122.973,5002.9949 c 0,23.1771 -18.75,41.9922 -41.9922,41.9922 -23.1771,0 -41.9922,-18.8151 -41.9922,-41.9922 0,-23.1771 18.8151,-41.9922 41.9922,-41.9922 23.2422,0 41.9922,18.8151 41.9922,41.9922 z m 0,0"
       style="fill:#000000;fill-opacity:1;fill-rule:evenodd;stroke:#000000;stroke-width:2;stroke-linecap:round;stroke-linejoin:round;stroke-miterlimit:10;stroke-opacity:1"
       inkscape:connector-curvature="0" />
    <path
       id="path112"
       transform="matrix(0.06,0,0,0.06,-158.019,-262)"
       d="m 3102.0094,5002.9949 c 0,11.5885 -9.4401,21.0286 -21.0286,21.0286 -11.5886,0 -20.9636,-9.4401 -20.9636,-21.0286 0,-11.5886 9.375,-20.9636 20.9636,-20.9636 11.5885,0 21.0286,9.375 21.0286,20.9636 z m 0,0"
       style="fill:#ffffff;fill-opacity:1;fill-rule:evenodd;stroke:#000000;stroke-width:1;stroke-linecap:square;stroke-linejoin:bevel;stroke-miterlimit:10;stroke-opacity:1"
       inkscape:connector-curvature="0" />
    <path
       id="path114"
       transform="matrix(0.06,0,0,0.06,-158.019,-262)"
       d="m 3002.986,5002.9949 c 0,23.1771 -18.8151,41.9922 -41.9922,41.9922 -23.1771,0 -41.9922,-18.8151 -41.9922,-41.9922 0,-23.1771 18.8151,-41.9922 41.9922,-41.9922 23.1771,0 41.9922,18.8151 41.9922,41.9922 z m 0,0"
       style="fill:#000000;fill-opacity:1;fill-rule:evenodd;stroke:#000000;stroke-width:2;stroke-linecap:round;stroke-linejoin:round;stroke-miterlimit:10;stroke-opacity:1"
       inkscape:connector-curvature="0" />
    <path
       id="path116"
       transform="matrix(0.06,0,0,0.06,-158.019,-262)"
       d="m 2982.0224,5002.9949 c 0,11.5885 -9.4401,21.0286 -21.0286,21.0286 -11.5885,0 -20.9635,-9.4401 -20.9635,-21.0286 0,-11.5886 9.375,-20.9636 20.9635,-20.9636 11.5885,0 21.0286,9.375 21.0286,20.9636 z m 0,0"
       style="fill:#ffffff;fill-opacity:1;fill-rule:evenodd;stroke:#000000;stroke-width:1;stroke-linecap:square;stroke-linejoin:bevel;stroke-miterlimit:10;stroke-opacity:1"
       inkscape:connector-curvature="0" />
    <path
       id="path118"
       transform="matrix(0.06,0,0,0.06,-158.019,-262)"
       d="m 2882.0224,4961.0027 h -84.0494 v 83.9844 h 84.0494 z m 0,0"
       style="fill:#000000;fill-opacity:1;fill-rule:nonzero;stroke:#000000;stroke-width:2;stroke-linecap:round;stroke-linejoin:round;stroke-miterlimit:10;stroke-opacity:1"
       inkscape:connector-curvature="0" />
    <path
       id="path120"
       transform="matrix(0.06,0,0,0.06,-158.019,-262)"
       d="m 2861.9704,5002.9949 c 0,11.5885 -9.375,21.0286 -20.9636,21.0286 -11.5885,0 -21.0286,-9.4401 -21.0286,-21.0286 0,-11.5886 9.4401,-20.9636 21.0286,-20.9636 11.5886,0 20.9636,9.375 20.9636,20.9636 z m 0,0"
       style="fill:#ffffff;fill-opacity:1;fill-rule:evenodd;stroke:#000000;stroke-width:1;stroke-linecap:square;stroke-linejoin:bevel;stroke-miterlimit:10;stroke-opacity:1"
       inkscape:connector-curvature="0" />
    <path
       id="path122"
       transform="matrix(0.06,0,0,0.06,-158.019,-262)"
       d="m 3841.9834,5002.9949 c 0,23.1771 -18.8151,41.9922 -41.9922,41.9922 -23.1771,0 -41.9922,-18.8151 -41.9922,-41.9922 0,-23.1771 18.8151,-41.9922 41.9922,-41.9922 23.1771,0 41.9922,18.8151 41.9922,41.9922 z m 0,0"
       style="fill:#000000;fill-opacity:1;fill-rule:evenodd;stroke:#000000;stroke-width:2;stroke-linecap:round;stroke-linejoin:round;stroke-miterlimit:10;stroke-opacity:1"
       inkscape:connector-curvature="0" />
    <path
       id="path124"
       transform="matrix(0.06,0,0,0.06,-158.019,-262)"
       d="m 3821.0199,5002.9949 c 0,11.5885 -9.4401,21.0286 -21.0287,21.0286 -11.5885,0 -20.9635,-9.4401 -20.9635,-21.0286 0,-11.5886 9.375,-20.9636 20.9635,-20.9636 11.5886,0 21.0287,9.375 21.0287,20.9636 z m 0,0"
       style="fill:#ffffff;fill-opacity:1;fill-rule:evenodd;stroke:#000000;stroke-width:1;stroke-linecap:square;stroke-linejoin:bevel;stroke-miterlimit:10;stroke-opacity:1"
       inkscape:connector-curvature="0" />
    <path
       id="path126"
       transform="matrix(0.06,0,0,0.06,-158.019,-262)"
       d="m 3841.9834,4524.0235 c 0,23.1771 -18.8151,41.9922 -41.9922,41.9922 -23.1771,0 -41.9922,-18.8151 -41.9922,-41.9922 0,-23.2422 18.8151,-41.9922 41.9922,-41.9922 23.1771,0 41.9922,18.75 41.9922,41.9922 z m 0,0"
       style="fill:#000000;fill-opacity:1;fill-rule:evenodd;stroke:#000000;stroke-width:2;stroke-linecap:round;stroke-linejoin:round;stroke-miterlimit:10;stroke-opacity:1"
       inkscape:connector-curvature="0" />
    <path
       id="path128"
       transform="matrix(0.06,0,0,0.06,-158.019,-262)"
       d="m 3821.0199,4524.0235 c 0,11.5886 -9.4401,20.9636 -21.0287,20.9636 -11.5885,0 -20.9635,-9.375 -20.9635,-20.9636 0,-11.6536 9.375,-21.0286 20.9635,-21.0286 11.5886,0 21.0287,9.375 21.0287,21.0286 z m 0,0"
       style="fill:#ffffff;fill-opacity:1;fill-rule:evenodd;stroke:#000000;stroke-width:1;stroke-linecap:square;stroke-linejoin:bevel;stroke-miterlimit:10;stroke-opacity:1"
       inkscape:connector-curvature="0" />
    <path
       id="path130"
       transform="matrix(0.06,0,0,0.06,-158.019,-262)"
       d="m 4199.9912,5319.9871 h -83.9844 v 83.9843 h 83.9844 z m 0,0"
       style="fill:#000000;fill-opacity:1;fill-rule:nonzero;stroke:#000000;stroke-width:2;stroke-linecap:round;stroke-linejoin:round;stroke-miterlimit:10;stroke-opacity:1"
       inkscape:connector-curvature="0" />
    <path
       id="path132"
       transform="matrix(0.06,0,0,0.06,-158.019,-262)"
       d="m 4180.0042,5361.9793 c 0,11.5885 -9.375,21.0286 -21.0286,21.0286 -11.5886,0 -20.9636,-9.4401 -20.9636,-21.0286 0,-11.5886 9.375,-20.9636 20.9636,-20.9636 11.6536,0 21.0286,9.375 21.0286,20.9636 z m 0,0"
       style="fill:#ffffff;fill-opacity:1;fill-rule:evenodd;stroke:#000000;stroke-width:1;stroke-linecap:square;stroke-linejoin:bevel;stroke-miterlimit:10;stroke-opacity:1"
       inkscape:connector-curvature="0" />
    <path
       id="path134"
       transform="matrix(0.06,0,0,0.06,-158.019,-262)"
       d="m 4200.9678,5241.9923 c 0,23.1771 -18.75,41.9922 -41.9922,41.9922 -23.1771,0 -41.9922,-18.8151 -41.9922,-41.9922 0,-23.1771 18.8151,-41.9922 41.9922,-41.9922 23.2422,0 41.9922,18.8151 41.9922,41.9922 z m 0,0"
       style="fill:#000000;fill-opacity:1;fill-rule:evenodd;stroke:#000000;stroke-width:2;stroke-linecap:round;stroke-linejoin:round;stroke-miterlimit:10;stroke-opacity:1"
       inkscape:connector-curvature="0" />
    <path
       id="path136"
       transform="matrix(0.06,0,0,0.06,-158.019,-262)"
       d="m 4180.0042,5241.9923 c 0,11.5885 -9.375,21.0286 -21.0286,21.0286 -11.5886,0 -20.9636,-9.4401 -20.9636,-21.0286 0,-11.5886 9.375,-20.9636 20.9636,-20.9636 11.6536,0 21.0286,9.375 21.0286,20.9636 z m 0,0"
       style="fill:#ffffff;fill-opacity:1;fill-rule:evenodd;stroke:#000000;stroke-width:1;stroke-linecap:square;stroke-linejoin:bevel;stroke-miterlimit:10;stroke-opacity:1"
       inkscape:connector-curvature="0" />
    <path
       id="path138"
       transform="matrix(0.06,0,0,0.06,-158.019,-262)"
       d="m 3482.0225,5361.9793 c 0,23.2421 -18.8152,41.9921 -41.9922,41.9921 -23.2422,0 -42.0573,-18.75 -42.0573,-41.9921 0,-23.1771 18.8151,-41.9922 42.0573,-41.9922 23.177,0 41.9922,18.8151 41.9922,41.9922 z m 0,0"
       style="fill:#000000;fill-opacity:1;fill-rule:evenodd;stroke:#000000;stroke-width:2;stroke-linecap:round;stroke-linejoin:round;stroke-miterlimit:10;stroke-opacity:1"
       inkscape:connector-curvature="0" />
    <path
       id="path140"
       transform="matrix(0.06,0,0,0.06,-158.019,-262)"
       d="m 3460.9938,5361.9793 c 0,11.5885 -9.375,21.0286 -20.9635,21.0286 -11.6537,0 -21.0287,-9.4401 -21.0287,-21.0286 0,-11.5886 9.375,-20.9636 21.0287,-20.9636 11.5885,0 20.9635,9.375 20.9635,20.9636 z m 0,0"
       style="fill:#ffffff;fill-opacity:1;fill-rule:evenodd;stroke:#000000;stroke-width:1;stroke-linecap:square;stroke-linejoin:bevel;stroke-miterlimit:10;stroke-opacity:1"
       inkscape:connector-curvature="0" />
    <path
       id="path142"
       transform="matrix(0.06,0,0,0.06,-158.019,-262)"
       d="m 3482.0225,5122.0053 c 0,23.1771 -18.8152,41.9922 -41.9922,41.9922 -23.2422,0 -42.0573,-18.8151 -42.0573,-41.9922 0,-23.1771 18.8151,-41.9922 42.0573,-41.9922 23.177,0 41.9922,18.8151 41.9922,41.9922 z m 0,0"
       style="fill:#000000;fill-opacity:1;fill-rule:evenodd;stroke:#000000;stroke-width:2;stroke-linecap:round;stroke-linejoin:round;stroke-miterlimit:10;stroke-opacity:1"
       inkscape:connector-curvature="0" />
    <path
       id="path144"
       transform="matrix(0.06,0,0,0.06,-158.019,-262)"
       d="m 3460.9938,5122.0053 c 0,11.5885 -9.375,20.9635 -20.9635,20.9635 -11.6537,0 -21.0287,-9.375 -21.0287,-20.9635 0,-11.5885 9.375,-21.0287 21.0287,-21.0287 11.5885,0 20.9635,9.4402 20.9635,21.0287 z m 0,0"
       style="fill:#ffffff;fill-opacity:1;fill-rule:evenodd;stroke:#000000;stroke-width:1;stroke-linecap:square;stroke-linejoin:bevel;stroke-miterlimit:10;stroke-opacity:1"
       inkscape:connector-curvature="0" />
    <path
       id="path146"
       transform="matrix(0.06,0,0,0.06,-158.019,-262)"
       d="m 3602.0094,5241.9923 c 0,23.1771 -18.8151,41.9922 -41.9922,41.9922 -23.2421,0 -41.9921,-18.8151 -41.9921,-41.9922 0,-23.1771 18.75,-41.9922 41.9921,-41.9922 23.1771,0 41.9922,18.8151 41.9922,41.9922 z m 0,0"
       style="fill:#000000;fill-opacity:1;fill-rule:evenodd;stroke:#000000;stroke-width:2;stroke-linecap:round;stroke-linejoin:round;stroke-miterlimit:10;stroke-opacity:1"
       inkscape:connector-curvature="0" />
    <path
       id="path148"
       transform="matrix(0.06,0,0,0.06,-158.019,-262)"
       d="m 3580.9808,5241.9923 c 0,11.5885 -9.375,21.0286 -20.9636,21.0286 -11.5885,0 -21.0286,-9.4401 -21.0286,-21.0286 0,-11.5886 9.4401,-20.9636 21.0286,-20.9636 11.5886,0 20.9636,9.375 20.9636,20.9636 z m 0,0"
       style="fill:#ffffff;fill-opacity:1;fill-rule:evenodd;stroke:#000000;stroke-width:1;stroke-linecap:square;stroke-linejoin:bevel;stroke-miterlimit:10;stroke-opacity:1"
       inkscape:connector-curvature="0" />
    <path
       id="path150"
       transform="matrix(0.06,0,0,0.06,-158.019,-262)"
       d="m 3241.9834,5361.9793 c 0,23.2421 -18.8151,41.9921 -41.9922,41.9921 -23.1771,0 -41.9922,-18.75 -41.9922,-41.9921 0,-23.1771 18.8151,-41.9922 41.9922,-41.9922 23.1771,0 41.9922,18.8151 41.9922,41.9922 z m 0,0"
       style="fill:#000000;fill-opacity:1;fill-rule:evenodd;stroke:#000000;stroke-width:2;stroke-linecap:round;stroke-linejoin:round;stroke-miterlimit:10;stroke-opacity:1"
       inkscape:connector-curvature="0" />
    <path
       id="path152"
       transform="matrix(0.06,0,0,0.06,-158.019,-262)"
       d="m 3221.0198,5361.9793 c 0,11.5885 -9.4401,21.0286 -21.0286,21.0286 -11.5885,0 -20.9635,-9.4401 -20.9635,-21.0286 0,-11.5886 9.375,-20.9636 20.9635,-20.9636 11.5885,0 21.0286,9.375 21.0286,20.9636 z m 0,0"
       style="fill:#ffffff;fill-opacity:1;fill-rule:evenodd;stroke:#000000;stroke-width:1;stroke-linecap:square;stroke-linejoin:bevel;stroke-miterlimit:10;stroke-opacity:1"
       inkscape:connector-curvature="0" />
    <path
       id="path154"
       transform="matrix(0.06,0,0,0.06,-158.019,-262)"
       d="m 3241.9834,5122.0053 c 0,23.1771 -18.8151,41.9922 -41.9922,41.9922 -23.1771,0 -41.9922,-18.8151 -41.9922,-41.9922 0,-23.1771 18.8151,-41.9922 41.9922,-41.9922 23.1771,0 41.9922,18.8151 41.9922,41.9922 z m 0,0"
       style="fill:#000000;fill-opacity:1;fill-rule:evenodd;stroke:#000000;stroke-width:2;stroke-linecap:round;stroke-linejoin:round;stroke-miterlimit:10;stroke-opacity:1"
       inkscape:connector-curvature="0" />
    <path
       id="path156"
       transform="matrix(0.06,0,0,0.06,-158.019,-262)"
       d="m 3221.0198,5122.0053 c 0,11.5885 -9.4401,20.9635 -21.0286,20.9635 -11.5885,0 -20.9635,-9.375 -20.9635,-20.9635 0,-11.5885 9.375,-21.0287 20.9635,-21.0287 11.5885,0 21.0286,9.4402 21.0286,21.0287 z m 0,0"
       style="fill:#ffffff;fill-opacity:1;fill-rule:evenodd;stroke:#000000;stroke-width:1;stroke-linecap:square;stroke-linejoin:bevel;stroke-miterlimit:10;stroke-opacity:1"
       inkscape:connector-curvature="0" />
    <path
       id="path158"
       transform="matrix(0.06,0,0,0.06,-158.019,-262)"
       d="m 3361.9704,5241.9923 c 0,23.1771 -18.75,41.9922 -41.9922,41.9922 -23.1771,0 -41.9922,-18.8151 -41.9922,-41.9922 0,-23.1771 18.8151,-41.9922 41.9922,-41.9922 23.2422,0 41.9922,18.8151 41.9922,41.9922 z m 0,0"
       style="fill:#000000;fill-opacity:1;fill-rule:evenodd;stroke:#000000;stroke-width:2;stroke-linecap:round;stroke-linejoin:round;stroke-miterlimit:10;stroke-opacity:1"
       inkscape:connector-curvature="0" />
    <path
       id="path160"
       transform="matrix(0.06,0,0,0.06,-158.019,-262)"
       d="m 3341.0068,5241.9923 c 0,11.5885 -9.4401,21.0286 -21.0286,21.0286 -11.5886,0 -20.9636,-9.4401 -20.9636,-21.0286 0,-11.5886 9.375,-20.9636 20.9636,-20.9636 11.5885,0 21.0286,9.375 21.0286,20.9636 z m 0,0"
       style="fill:#ffffff;fill-opacity:1;fill-rule:evenodd;stroke:#000000;stroke-width:1;stroke-linecap:square;stroke-linejoin:bevel;stroke-miterlimit:10;stroke-opacity:1"
       inkscape:connector-curvature="0" />
    <path
       id="path162"
       transform="matrix(0.06,0,0,0.06,-158.019,-262)"
       d="m 3122.973,4763.0209 c 0,23.1771 -18.75,41.9922 -41.9922,41.9922 -23.1771,0 -41.9922,-18.8151 -41.9922,-41.9922 0,-23.2422 18.8151,-41.9922 41.9922,-41.9922 23.2422,0 41.9922,18.75 41.9922,41.9922 z m 0,0"
       style="fill:#000000;fill-opacity:1;fill-rule:evenodd;stroke:#000000;stroke-width:2;stroke-linecap:round;stroke-linejoin:round;stroke-miterlimit:10;stroke-opacity:1"
       inkscape:connector-curvature="0" />
    <path
       id="path164"
       transform="matrix(0.06,0,0,0.06,-158.019,-262)"
       d="m 3102.0094,4763.0209 c 0,11.5886 -9.4401,20.9636 -21.0286,20.9636 -11.5886,0 -20.9636,-9.375 -20.9636,-20.9636 0,-11.5885 9.375,-21.0286 20.9636,-21.0286 11.5885,0 21.0286,9.4401 21.0286,21.0286 z m 0,0"
       style="fill:#ffffff;fill-opacity:1;fill-rule:evenodd;stroke:#000000;stroke-width:1;stroke-linecap:square;stroke-linejoin:bevel;stroke-miterlimit:10;stroke-opacity:1"
       inkscape:connector-curvature="0" />
    <path
       id="path166"
       transform="matrix(0.06,0,0,0.06,-158.019,-262)"
       d="m 2882.999,4763.0209 c 0,23.1771 -18.8151,41.9922 -41.9922,41.9922 -23.1771,0 -41.9922,-18.8151 -41.9922,-41.9922 0,-23.2422 18.8151,-41.9922 41.9922,-41.9922 23.1771,0 41.9922,18.75 41.9922,41.9922 z m 0,0"
       style="fill:#000000;fill-opacity:1;fill-rule:evenodd;stroke:#000000;stroke-width:2;stroke-linecap:round;stroke-linejoin:round;stroke-miterlimit:10;stroke-opacity:1"
       inkscape:connector-curvature="0" />
    <path
       id="path168"
       transform="matrix(0.06,0,0,0.06,-158.019,-262)"
       d="m 2861.9704,4763.0209 c 0,11.5886 -9.375,20.9636 -20.9636,20.9636 -11.5885,0 -21.0286,-9.375 -21.0286,-20.9636 0,-11.5885 9.4401,-21.0286 21.0286,-21.0286 11.5886,0 20.9636,9.4401 20.9636,21.0286 z m 0,0"
       style="fill:#ffffff;fill-opacity:1;fill-rule:evenodd;stroke:#000000;stroke-width:1;stroke-linecap:square;stroke-linejoin:bevel;stroke-miterlimit:10;stroke-opacity:1"
       inkscape:connector-curvature="0" />
    <path
       id="path170"
       transform="matrix(0.06,0,0,0.06,-158.019,-262)"
       d="m 3960.9938,5002.9949 c 0,23.1771 -18.8151,41.9922 -41.9922,41.9922 -23.1771,0 -41.9922,-18.8151 -41.9922,-41.9922 0,-23.1771 18.8151,-41.9922 41.9922,-41.9922 23.1771,0 41.9922,18.8151 41.9922,41.9922 z m 0,0"
       style="fill:#000000;fill-opacity:1;fill-rule:evenodd;stroke:#000000;stroke-width:2;stroke-linecap:round;stroke-linejoin:round;stroke-miterlimit:10;stroke-opacity:1"
       inkscape:connector-curvature="0" />
    <path
       id="path172"
       transform="matrix(0.06,0,0,0.06,-158.019,-262)"
       d="m 3940.0303,5002.9949 c 0,11.5885 -9.4401,21.0286 -21.0287,21.0286 -11.5885,0 -21.0286,-9.4401 -21.0286,-21.0286 0,-11.5886 9.4401,-20.9636 21.0286,-20.9636 11.5886,0 21.0287,9.375 21.0287,20.9636 z m 0,0"
       style="fill:#ffffff;fill-opacity:1;fill-rule:evenodd;stroke:#000000;stroke-width:1;stroke-linecap:square;stroke-linejoin:bevel;stroke-miterlimit:10;stroke-opacity:1"
       inkscape:connector-curvature="0" />
    <path
       id="path174"
       transform="matrix(0.06,0,0,0.06,-158.019,-262)"
       d="m 4080.9808,5002.9949 c 0,23.1771 -18.8151,41.9922 -41.9922,41.9922 -23.1771,0 -41.9922,-18.8151 -41.9922,-41.9922 0,-23.1771 18.8151,-41.9922 41.9922,-41.9922 23.1771,0 41.9922,18.8151 41.9922,41.9922 z m 0,0"
       style="fill:#000000;fill-opacity:1;fill-rule:evenodd;stroke:#000000;stroke-width:2;stroke-linecap:round;stroke-linejoin:round;stroke-miterlimit:10;stroke-opacity:1"
       inkscape:connector-curvature="0" />
    <path
       id="path176"
       transform="matrix(0.06,0,0,0.06,-158.019,-262)"
       d="m 4060.0173,5002.9949 c 0,11.5885 -9.4401,21.0286 -21.0287,21.0286 -11.5885,0 -20.9635,-9.4401 -20.9635,-21.0286 0,-11.5886 9.375,-20.9636 20.9635,-20.9636 11.5886,0 21.0287,9.375 21.0287,20.9636 z m 0,0"
       style="fill:#ffffff;fill-opacity:1;fill-rule:evenodd;stroke:#000000;stroke-width:1;stroke-linecap:square;stroke-linejoin:bevel;stroke-miterlimit:10;stroke-opacity:1"
       inkscape:connector-curvature="0" />
    <path
       id="path178"
       transform="matrix(0.06,0,0,0.06,-158.019,-262)"
       d="m 4080.9808,4763.0209 c 0,23.1771 -18.8151,41.9922 -41.9922,41.9922 -23.1771,0 -41.9922,-18.8151 -41.9922,-41.9922 0,-23.2422 18.8151,-41.9922 41.9922,-41.9922 23.1771,0 41.9922,18.75 41.9922,41.9922 z m 0,0"
       style="fill:#000000;fill-opacity:1;fill-rule:evenodd;stroke:#000000;stroke-width:2;stroke-linecap:round;stroke-linejoin:round;stroke-miterlimit:10;stroke-opacity:1"
       inkscape:connector-curvature="0" />
    <path
       id="path180"
       transform="matrix(0.06,0,0,0.06,-158.019,-262)"
       d="m 4060.0173,4763.0209 c 0,11.5886 -9.4401,20.9636 -21.0287,20.9636 -11.5885,0 -20.9635,-9.375 -20.9635,-20.9636 0,-11.5885 9.375,-21.0286 20.9635,-21.0286 11.5886,0 21.0287,9.4401 21.0287,21.0286 z m 0,0"
       style="fill:#ffffff;fill-opacity:1;fill-rule:evenodd;stroke:#000000;stroke-width:1;stroke-linecap:square;stroke-linejoin:bevel;stroke-miterlimit:10;stroke-opacity:1"
       inkscape:connector-curvature="0" />
    <path
       id="path182"
       transform="matrix(0.06,0,0,0.06,-158.019,-262)"
       d="m 3960.9938,4763.0209 c 0,23.1771 -18.8151,41.9922 -41.9922,41.9922 -23.1771,0 -41.9922,-18.8151 -41.9922,-41.9922 0,-23.2422 18.8151,-41.9922 41.9922,-41.9922 23.1771,0 41.9922,18.75 41.9922,41.9922 z m 0,0"
       style="fill:#000000;fill-opacity:1;fill-rule:evenodd;stroke:#000000;stroke-width:2;stroke-linecap:round;stroke-linejoin:round;stroke-miterlimit:10;stroke-opacity:1"
       inkscape:connector-curvature="0" />
    <path
       id="path184"
       transform="matrix(0.06,0,0,0.06,-158.019,-262)"
       d="m 3940.0303,4763.0209 c 0,11.5886 -9.4401,20.9636 -21.0287,20.9636 -11.5885,0 -21.0286,-9.375 -21.0286,-20.9636 0,-11.5885 9.4401,-21.0286 21.0286,-21.0286 11.5886,0 21.0287,9.4401 21.0287,21.0286 z m 0,0"
       style="fill:#ffffff;fill-opacity:1;fill-rule:evenodd;stroke:#000000;stroke-width:1;stroke-linecap:square;stroke-linejoin:bevel;stroke-miterlimit:10;stroke-opacity:1"
       inkscape:connector-curvature="0" />
    <path
       id="path186"
       transform="matrix(0.06,0,0,0.06,-158.019,-262)"
       d="m 4200.9678,5002.9949 c 0,23.1771 -18.75,41.9922 -41.9922,41.9922 -23.1771,0 -41.9922,-18.8151 -41.9922,-41.9922 0,-23.1771 18.8151,-41.9922 41.9922,-41.9922 23.2422,0 41.9922,18.8151 41.9922,41.9922 z m 0,0"
       style="fill:#000000;fill-opacity:1;fill-rule:evenodd;stroke:#000000;stroke-width:2;stroke-linecap:round;stroke-linejoin:round;stroke-miterlimit:10;stroke-opacity:1"
       inkscape:connector-curvature="0" />
    <path
       id="path188"
       transform="matrix(0.06,0,0,0.06,-158.019,-262)"
       d="m 4180.0042,5002.9949 c 0,11.5885 -9.375,21.0286 -21.0286,21.0286 -11.5886,0 -20.9636,-9.4401 -20.9636,-21.0286 0,-11.5886 9.375,-20.9636 20.9636,-20.9636 11.6536,0 21.0286,9.375 21.0286,20.9636 z m 0,0"
       style="fill:#ffffff;fill-opacity:1;fill-rule:evenodd;stroke:#000000;stroke-width:1;stroke-linecap:square;stroke-linejoin:bevel;stroke-miterlimit:10;stroke-opacity:1"
       inkscape:connector-curvature="0" />
    <path
       id="path190"
       transform="matrix(0.06,0,0,0.06,-158.019,-262)"
       d="m 4200.9678,4524.0235 c 0,23.1771 -18.75,41.9922 -41.9922,41.9922 -23.1771,0 -41.9922,-18.8151 -41.9922,-41.9922 0,-23.2422 18.8151,-41.9922 41.9922,-41.9922 23.2422,0 41.9922,18.75 41.9922,41.9922 z m 0,0"
       style="fill:#000000;fill-opacity:1;fill-rule:evenodd;stroke:#000000;stroke-width:2;stroke-linecap:round;stroke-linejoin:round;stroke-miterlimit:10;stroke-opacity:1"
       inkscape:connector-curvature="0" />
    <path
       id="path192"
       transform="matrix(0.06,0,0,0.06,-158.019,-262)"
       d="m 4180.0042,4524.0235 c 0,11.5886 -9.375,20.9636 -21.0286,20.9636 -11.5886,0 -20.9636,-9.375 -20.9636,-20.9636 0,-11.6536 9.375,-21.0286 20.9636,-21.0286 11.6536,0 21.0286,9.375 21.0286,21.0286 z m 0,0"
       style="fill:#ffffff;fill-opacity:1;fill-rule:evenodd;stroke:#000000;stroke-width:1;stroke-linecap:square;stroke-linejoin:bevel;stroke-miterlimit:10;stroke-opacity:1"
       inkscape:connector-curvature="0" />
    <g
       id="g196"
       clip-path="url(#clip1)"
       style="clip-rule:nonzero">
      <path
         id="path194"
         transform="matrix(0.06,0,0,0.06,-158.019,-262)"
         d="M 4277.986,5482.0313 H 2719.9782"
         style="fill:none;stroke:#000000;stroke-width:2;stroke-linecap:round;stroke-linejoin:round;stroke-miterlimit:10;stroke-opacity:1"
         inkscape:connector-curvature="0" />
    </g>
    <g
       id="g200"
       clip-path="url(#clip2)"
       style="clip-rule:nonzero">
      <path
         id="path198"
         transform="matrix(0.06,0,0,0.06,-158.019,-262)"
         d="M 2719.9782,5482.0313 V 4463.9975"
         style="fill:none;stroke:#000000;stroke-width:2;stroke-linecap:round;stroke-linejoin:round;stroke-miterlimit:10;stroke-opacity:1"
         inkscape:connector-curvature="0" />
    </g>
    <g
       id="g204"
       clip-path="url(#clip3)"
       style="clip-rule:nonzero">
      <path
         id="path202"
         transform="matrix(0.06,0,0,0.06,-158.019,-262)"
         d="M 2719.9782,4463.9975 H 4277.986"
         style="fill:none;stroke:#000000;stroke-width:2;stroke-linecap:round;stroke-linejoin:round;stroke-miterlimit:10;stroke-opacity:1"
         inkscape:connector-curvature="0" />
    </g>
    <g
       id="g208"
       clip-path="url(#clip4)"
       style="clip-rule:nonzero">
      <path
         id="path206"
         transform="matrix(0.06,0,0,0.06,-158.019,-262)"
         d="M 4277.986,4463.9975 V 5482.0313"
         style="fill:none;stroke:#000000;stroke-width:2;stroke-linecap:round;stroke-linejoin:round;stroke-miterlimit:10;stroke-opacity:1"
         inkscape:connector-curvature="0" />
    </g>
  </g>
</svg>
