<svg xmlns="http://www.w3.org/2000/svg" xmlns:xlink="http://www.w3.org/1999/xlink" width="842pt" height="595pt" viewBox="0 0 842 595"><defs><symbol overflow="visible" id="a"><path d="M.922-2.125v1.953h1.094v-.64c0-.04.004-.07.015-.094a.167.167 0 0 1 .063-.016.11.11 0 0 1 .062.016c.02.023.031.054.031.094V0H.36C.316 0 .29-.008.281-.031.258-.04.25-.055.25-.078c0-.031.008-.05.031-.063A.23.23 0 0 1 .36-.17h.39v-1.954H.36c-.044 0-.07-.008-.079-.031C.258-2.164.25-2.187.25-2.22c0-.02.008-.035.031-.047.008-.02.035-.03.078-.03h.954c.039 0 .066.01.078.03.02.012.03.028.03.047 0 .031-.01.055-.03.063-.012.023-.04.031-.079.031zm0 0"/></symbol><symbol overflow="visible" id="b"><path d="M1.281-2.5v2.328h.563l.093.031a.11.11 0 0 1 .016.063.067.067 0 0 1-.016.047C1.914-.008 1.883 0 1.844 0H.562C.52 0 .488-.008.47-.031.445-.04.44-.055.453-.078.441-.11.445-.128.47-.141c.02-.007.05-.02.094-.03h.562v-2.095l-.547.172H.531c-.023.012-.043.008-.062-.015a.115.115 0 0 1-.016-.063c0-.02.004-.035.016-.047A.22.22 0 0 1 .53-2.25zm0 0"/></symbol><symbol overflow="visible" id="c"><path d="M1.172-1.703h.062a.27.27 0 0 1 .188.078.244.244 0 0 1 .094.188.247.247 0 0 1-.094.203.293.293 0 0 1-.188.062h-.062c-.074.012-.137-.016-.188-.078-.054-.04-.078-.098-.078-.172a.27.27 0 0 1 .078-.203.257.257 0 0 1 .188-.078zm0 1.234h.062a.27.27 0 0 1 .188.078.244.244 0 0 1 .094.188.233.233 0 0 1-.094.187.27.27 0 0 1-.188.079h-.062a.257.257 0 0 1-.188-.079.242.242 0 0 1-.078-.187c0-.07.024-.133.078-.188a.257.257 0 0 1 .188-.078zm0 0"/></symbol><symbol overflow="visible" id="d"><path d="M.75-2.297v.813c.094-.04.188-.07.281-.094.082-.02.164-.031.25-.031.207 0 .38.074.516.218.144.149.219.34.219.579 0 .261-.079.468-.235.625a.776.776 0 0 1-.593.25c-.157 0-.31-.04-.454-.11a.866.866 0 0 1-.28-.172C.41-.258.39-.297.39-.329c0-.019.004-.038.015-.062.008-.02.031-.03.063-.03.02 0 .039.015.062.046.196.18.41.266.64.266a.66.66 0 0 0 .485-.188.747.747 0 0 0 .188-.531.665.665 0 0 0-.157-.453.626.626 0 0 0-.421-.157c-.168 0-.34.043-.516.125a.236.236 0 0 1-.078.032c-.031 0-.055-.004-.063-.016a.155.155 0 0 1-.015-.078v-1.078h1.14a.17.17 0 0 1 .079.015c.019.024.03.043.03.063 0 .023-.011.043-.03.063-.012.011-.04.015-.079.015zm0 0"/></symbol><symbol overflow="visible" id="e"><path d="M.86-1.703h.906c.03 0 .054.012.078.031.02.012.031.031.031.063a.046.046 0 0 1-.031.046.1.1 0 0 1-.078.032H.859v1.093c0 .094.04.172.125.235.07.074.18.11.329.11.113 0 .234-.02.359-.063a1.19 1.19 0 0 0 .312-.11.164.164 0 0 1 .063-.015.09.09 0 0 1 .047.015c.02.024.031.043.031.063a.048.048 0 0 1-.031.047c-.043.054-.14.101-.297.14a1.627 1.627 0 0 1-.469.079.69.69 0 0 1-.453-.141C.758-.16.703-.281.703-.438V-1.53H.391c-.032 0-.059-.008-.079-.032-.023-.007-.03-.023-.03-.046 0-.032.007-.051.03-.063a.11.11 0 0 1 .079-.031h.312v-.484c0-.032.004-.055.016-.079.02-.02.039-.03.062-.03.02 0 .04.01.063.03a.231.231 0 0 1 .015.079zm0 0"/></symbol><symbol overflow="visible" id="f"><path d="M1.766 0v-.234c-.23.199-.47.296-.72.296C.88.063.755.02.673-.061A.576.576 0 0 1 .516-.47v-1.06H.28c-.031 0-.058-.008-.078-.032-.022-.008-.03-.023-.03-.047 0-.032.008-.051.031-.063a.11.11 0 0 1 .078-.031h.39V-.47a.35.35 0 0 0 .11.266.31.31 0 0 0 .25.11c.27 0 .516-.126.735-.376v-1.06h-.297c-.043 0-.074-.008-.094-.032-.012-.007-.016-.023-.016-.046 0-.032.004-.051.016-.063.02-.02.05-.031.094-.031h.468v1.531h.141c.031.012.055.024.078.031.02.012.031.032.031.063 0 .023-.011.039-.03.047a.1.1 0 0 1-.08.03zm0 0"/></symbol><symbol overflow="visible" id="g"><path d="M1.016-1.703v.422c.207-.196.363-.32.468-.375a.746.746 0 0 1 .297-.078c.102 0 .196.03.282.093.082.063.124.118.124.157 0 .023-.011.043-.03.062-.012.012-.032.016-.063.016h-.031a.257.257 0 0 1-.047-.047 4.887 4.887 0 0 1-.125-.094.179.179 0 0 0-.094-.031.532.532 0 0 0-.266.094c-.105.054-.277.195-.515.421v.891h.718c.04.012.07.024.094.031a.11.11 0 0 1 .016.063.067.067 0 0 1-.016.047C1.805-.008 1.773 0 1.734 0H.438c-.033 0-.06-.008-.08-.031C.336-.04.33-.055.33-.078c0-.02.007-.04.03-.063.008-.007.036-.015.079-.015h.406v-1.375H.547c-.043 0-.074-.008-.094-.032C.43-1.57.422-1.585.422-1.609c0-.032.008-.051.031-.063.008-.02.04-.031.094-.031zm0 0"/></symbol><symbol overflow="visible" id="h"><path d="M.672-1.703v.25c.113-.113.219-.192.312-.234a.796.796 0 0 1 .657.015c.07.031.14.094.203.188.05.093.078.187.078.28v1.032h.14c.04.012.07.024.094.031a.11.11 0 0 1 .016.063.067.067 0 0 1-.016.047C2.133-.008 2.102 0 2.062 0h-.437c-.043 0-.07-.008-.078-.031-.024-.008-.031-.024-.031-.047 0-.031.007-.05.03-.063a.23.23 0 0 1 .079-.03h.14v-1a.417.417 0 0 0-.124-.298.476.476 0 0 0-.344-.125c-.106 0-.2.024-.281.063-.086.054-.2.164-.344.328v1.031h.187c.04.012.067.024.079.031.019.012.03.032.03.063 0 .023-.011.039-.03.047C.925-.008.897 0 .859 0H.33C.284 0 .253-.008.233-.031.211-.04.207-.055.22-.078.207-.11.21-.128.234-.141c.02-.007.051-.02.094-.03h.188v-1.36H.375c-.043 0-.074-.008-.094-.032-.023-.007-.027-.023-.015-.046-.012-.032-.008-.051.015-.063.02-.02.051-.031.094-.031zm0 0"/></symbol><symbol overflow="visible" id="i"><path d="M1.75-1.594c0-.031.004-.054.016-.078.02-.02.039-.031.062-.031.031 0 .05.012.063.031.02.024.03.047.03.078v.297a.11.11 0 0 1-.03.078c-.012.024-.032.032-.063.032-.023 0-.039-.008-.047-.032-.023-.008-.031-.031-.031-.062a.307.307 0 0 0-.125-.203.75.75 0 0 0-.422-.11c-.187 0-.336.04-.437.11-.075.062-.11.125-.11.187 0 .086.047.152.14.203.063.043.18.07.36.078.227.032.383.063.469.094a.577.577 0 0 1 .281.188A.44.44 0 0 1 2-.47c0 .137-.07.262-.203.375-.137.102-.336.157-.594.157-.262 0-.469-.067-.625-.204 0 .055-.008.086-.015.094L.53-.016C.52-.004.504 0 .484 0a.075.075 0 0 1-.062-.031C.41-.04.406-.066.406-.11v-.344a.16.16 0 0 1 .016-.078c.02-.02.039-.031.062-.031.02 0 .04.011.063.03.02.012.031.032.031.063 0 .063.016.117.047.156.04.063.113.118.219.157a.86.86 0 0 0 .36.062c.218 0 .378-.039.484-.125.101-.082.156-.164.156-.25 0-.101-.055-.187-.157-.25a1.353 1.353 0 0 0-.468-.125 2.17 2.17 0 0 1-.453-.078.405.405 0 0 1-.204-.156.314.314 0 0 1-.078-.219c0-.133.07-.25.22-.344a1.03 1.03 0 0 1 .484-.109c.226 0 .414.055.562.156zm0 0"/></symbol><symbol overflow="visible" id="j"><path d="M1.953-1.438v.407c0 .367-.086.648-.25.843a.592.592 0 0 1-.5.25A.617.617 0 0 1 .937 0 .743.743 0 0 1 .72-.156a.573.573 0 0 1-.125-.219A1.57 1.57 0 0 1 .5-.625a1.549 1.549 0 0 1-.047-.406v-.407c0-.351.082-.632.25-.843a.604.604 0 0 1 .5-.235.76.76 0 0 1 .266.047.573.573 0 0 1 .218.172c.04.043.083.11.125.203.051.106.086.196.11.266.02.117.031.246.031.39zm-.156.032c0-.157-.024-.301-.063-.438a2.63 2.63 0 0 0-.156-.328.493.493 0 0 0-.125-.11.722.722 0 0 0-.25-.077c-.187 0-.336.093-.437.28a1.41 1.41 0 0 0-.157.673v.36c0 .155.024.304.079.437a.932.932 0 0 0 .14.312.32.32 0 0 0 .125.125c.07.043.156.063.25.063.188 0 .332-.094.438-.282.101-.187.156-.406.156-.656zm0 0"/></symbol><symbol overflow="visible" id="k"><path d="M1.172-.469h.062a.27.27 0 0 1 .188.078.244.244 0 0 1 .094.188.233.233 0 0 1-.094.187.27.27 0 0 1-.188.079h-.062a.257.257 0 0 1-.188-.079.242.242 0 0 1-.078-.187c0-.07.024-.133.078-.188a.257.257 0 0 1 .188-.078zm0 0"/></symbol><symbol overflow="visible" id="l"><path d="M1.547-1.281a.963.963 0 0 1 .312.265.748.748 0 0 1 .094.36.691.691 0 0 1-.219.5.72.72 0 0 1-.53.218.707.707 0 0 1-.532-.218.676.676 0 0 1-.219-.5c0-.125.035-.242.11-.36a.742.742 0 0 1 .312-.265.686.686 0 0 1-.266-.203.503.503 0 0 1-.109-.36c0-.176.066-.332.203-.468a.683.683 0 0 1 .5-.204c.195 0 .363.07.5.204a.632.632 0 0 1 .219.468.54.54 0 0 1-.125.344.662.662 0 0 1-.25.219zm.203-.563a.511.511 0 0 0-.156-.36.638.638 0 0 0-.39-.155.536.536 0 0 0-.391.156.495.495 0 0 0-.157.36c0 .136.051.25.156.343.102.094.235.14.391.14a.564.564 0 0 0 .39-.14.452.452 0 0 0 .157-.344zm.047 1.188a.498.498 0 0 0-.172-.375.587.587 0 0 0-.422-.172.574.574 0 0 0-.422.172.51.51 0 0 0-.156.375c0 .148.05.277.156.39a.594.594 0 0 0 .422.157.606.606 0 0 0 .422-.157.537.537 0 0 0 .172-.39zm0 0"/></symbol><symbol overflow="visible" id="m"><path d="M.453-1.703v.172c.133-.145.274-.219.422-.219a.41.41 0 0 1 .219.063c.07.042.129.109.172.203a.748.748 0 0 1 .218-.204.454.454 0 0 1 .22-.062c.124 0 .222.04.296.11a.639.639 0 0 1 .14.327v1.141h.126l.093.031a.11.11 0 0 1 .016.063.067.067 0 0 1-.016.047C2.336-.008 2.305 0 2.266 0h-.297v-1.297a.34.34 0 0 0-.078-.219.249.249 0 0 0-.172-.078.358.358 0 0 0-.188.063 1.006 1.006 0 0 0-.234.281v1.078h.14c.032.012.055.024.079.031.02.012.03.032.03.063 0 .023-.01.039-.03.047A.1.1 0 0 1 1.437 0h-.312v-1.281a.364.364 0 0 0-.063-.219C1-1.563.938-1.594.875-1.594a.332.332 0 0 0-.172.063.86.86 0 0 0-.25.281v1.078h.14c.04.012.067.024.079.031.02.012.031.032.031.063a.048.048 0 0 1-.031.047C.66-.008.632 0 .594 0H.156C.113 0 .082-.008.063-.031.05-.04.046-.055.046-.078c0-.031.004-.05.015-.063.02-.007.051-.02.094-.03h.14v-1.36h-.14c-.043 0-.074-.008-.093-.032C.05-1.57.046-1.585.046-1.609c0-.032.004-.051.015-.063.02-.02.051-.031.094-.031zm0 0"/></symbol><symbol overflow="visible" id="n"><path d="M2.125-.844c0 .25-.09.465-.266.64a.915.915 0 0 1-.656.266.878.878 0 0 1-.656-.265.861.861 0 0 1-.266-.64c0-.25.086-.462.266-.641a.892.892 0 0 1 .656-.266c.25 0 .469.09.656.266.176.18.266.39.266.64zm-.172 0a.735.735 0 0 0-.219-.531.735.735 0 0 0-.53-.219.722.722 0 0 0-.532.219.72.72 0 0 0-.219.531c0 .2.07.375.219.531.144.149.32.22.531.22a.72.72 0 0 0 .531-.22.722.722 0 0 0 .22-.53zm0 0"/></symbol><symbol overflow="visible" id="o"><path d="M2.016-2.453v2.281h.218c.04.012.067.024.079.031.019.012.03.032.03.063 0 .023-.011.039-.03.047C2.3-.008 2.272 0 2.233 0h-.39v-.328c-.188.262-.43.39-.719.39a.825.825 0 0 1-.438-.124.781.781 0 0 1-.328-.329.993.993 0 0 1 0-.906.956.956 0 0 1 .329-.344.931.931 0 0 1 .437-.109c.281 0 .52.133.719.39v-.937h-.219c-.043 0-.07-.004-.078-.015a.076.076 0 0 1-.031-.063c0-.02.007-.04.03-.063.009-.007.036-.015.079-.015zm-.172 1.61a.77.77 0 0 0-.203-.532.72.72 0 0 0-.516-.219c-.2 0-.367.074-.5.219a.72.72 0 0 0-.219.531c0 .211.07.387.219.531.133.149.3.22.5.22a.705.705 0 0 0 .516-.22.757.757 0 0 0 .203-.53zm0 0"/></symbol><symbol overflow="visible" id="p"><path d="M2.11-1.36H.312c-.043 0-.075-.007-.094-.03-.012-.008-.016-.032-.016-.063 0-.02.004-.035.016-.047.02-.02.05-.031.093-.031H2.11c.032 0 .055.011.079.031.019.012.03.031.03.063 0 .023-.011.039-.03.046a.1.1 0 0 1-.079.032zm0 .594H.312c-.043 0-.075-.007-.094-.03C.207-.806.203-.829.203-.86c0-.02.004-.04.016-.063a.255.255 0 0 1 .093-.015H2.11c.032 0 .055.007.079.015.019.024.03.043.03.063 0 .03-.011.054-.03.062a.1.1 0 0 1-.079.031zm0 0"/></symbol><symbol overflow="visible" id="q"><path d="M1.86 0H.436v-.297H.97V-2.25H.438v-.266c.195 0 .347-.03.453-.093.093-.051.144-.157.156-.313h.297v2.625h.515zm0 0"/></symbol><symbol overflow="visible" id="r"><path d="M2.031-1.453c0 .523-.078.902-.234 1.14-.149.25-.383.376-.703.376C.77.063.535-.064.39-.314.234-.563.156-.94.156-1.452c0-.531.078-.914.235-1.156.156-.25.39-.375.703-.375.32 0 .554.132.703.39.156.25.234.633.234 1.14zm-.5.875a2.32 2.32 0 0 0 .078-.36 9.314 9.314 0 0 0 0-1.046 2.427 2.427 0 0 0-.078-.36.573.573 0 0 0-.172-.234.414.414 0 0 0-.265-.078.446.446 0 0 0-.266.078.512.512 0 0 0-.172.234 1.997 1.997 0 0 0-.078.375 6.995 6.995 0 0 0-.015.516c0 .2.003.371.015.516.008.136.035.257.078.359.04.105.098.183.172.234.063.055.149.078.266.078a.436.436 0 0 0 .265-.078.525.525 0 0 0 .172-.234zm0 0"/></symbol><symbol overflow="visible" id="s"><path d="M1.984 0h-.359v-1.25c0-.094-.008-.188-.016-.281a.566.566 0 0 0-.062-.203.382.382 0 0 0-.125-.125 1.042 1.042 0 0 0-.219-.047.589.589 0 0 0-.281.078c-.106.055-.2.117-.281.187V0H.266v-2.188H.64v.235a1.42 1.42 0 0 1 .312-.219.831.831 0 0 1 .344-.078c.219 0 .39.07.516.203.113.149.171.356.171.625zm0 0"/></symbol><symbol overflow="visible" id="t"><path d="M2.078 0h-.484L.78-1.063l-.14.141V0H.266v-3.047H.64v1.781l.859-.921h.453l-.89.906zm0 0"/></symbol><symbol overflow="visible" id="u"><path d="M2.016 0H.219v-.406l.36-.36c.112-.101.226-.218.343-.343.219-.25.367-.446.453-.594.07-.145.113-.297.125-.453a.487.487 0 0 0-.047-.219.602.602 0 0 0-.11-.156.629.629 0 0 0-.344-.11.822.822 0 0 0-.218.032.685.685 0 0 0-.203.062 1.166 1.166 0 0 0-.156.078c-.055.031-.094.059-.125.078H.28v-.406c.07-.039.18-.082.328-.125.145-.039.286-.062.422-.062.258 0 .469.074.625.218.157.149.235.344.235.594 0 .117-.012.219-.032.313a2.19 2.19 0 0 1-.109.265 2.195 2.195 0 0 1-.188.25 4.057 4.057 0 0 1-.203.25 7.154 7.154 0 0 1-.421.422 7.96 7.96 0 0 1-.36.344h1.438zm0 0"/></symbol><symbol overflow="visible" id="v"><path d="M2.39 0h-.437L.656-2.516V0h-.36v-2.922h.548L2.016-.609v-2.313h.375zm0 0"/></symbol><symbol overflow="visible" id="w"><path d="M1-2.64a.671.671 0 0 0-.203.03.873.873 0 0 0-.219.063.582.582 0 0 0-.156.078c-.055.031-.094.059-.125.078H.266v-.406a2.29 2.29 0 0 1 .359-.125c.133-.039.27-.062.406-.062.133 0 .25.015.344.046a.62.62 0 0 1 .266.126c.093.062.16.136.203.218.039.094.062.2.062.313a.612.612 0 0 1-.156.422.669.669 0 0 1-.375.234v.031a.919.919 0 0 1 .39.188c.051.062.098.136.141.218a.78.78 0 0 1 .063.329.875.875 0 0 1-.079.359.803.803 0 0 1-.188.297.745.745 0 0 1-.312.187c-.118.051-.25.079-.407.079C.836.063.691.046.547.015a1.814 1.814 0 0 1-.36-.141v-.406H.22c.08.062.19.121.327.172a1.094 1.094 0 0 0 .656.046.559.559 0 0 0 .203-.124c.051-.063.094-.126.125-.188.02-.07.032-.16.032-.266a.687.687 0 0 0-.047-.265.491.491 0 0 0-.125-.157.446.446 0 0 0-.188-.078 1.123 1.123 0 0 0-.25-.03H.781v-.329h.14c.165 0 .306-.04.423-.125a.419.419 0 0 0 .172-.36.371.371 0 0 0-.047-.187.493.493 0 0 0-.11-.125 1.15 1.15 0 0 0-.171-.078A1.296 1.296 0 0 0 1-2.641zm0 0"/></symbol><symbol overflow="visible" id="x"><path d="M1.625-1.719c0-.195-.016-.36-.047-.484a.918.918 0 0 0-.156-.297.421.421 0 0 0-.172-.125.629.629 0 0 0-.188-.031.479.479 0 0 0-.39.172c-.094.117-.14.28-.14.5a.76.76 0 0 0 .046.296.505.505 0 0 0 .156.22.25.25 0 0 0 .157.077 1.004 1.004 0 0 0 .484-.031.627.627 0 0 0 .25-.11v-.187zm-1.5-.25c0-.156.023-.289.078-.406a1.08 1.08 0 0 1 .203-.328c.082-.082.18-.149.297-.203a.875.875 0 0 1 .719 0 .713.713 0 0 1 .281.187c.102.117.18.258.234.422a2 2 0 0 1 .094.656c0 .25-.031.48-.094.688a1.639 1.639 0 0 1-.234.547c-.117.148-.25.261-.406.344a1.24 1.24 0 0 1-.578.124A1.182 1.182 0 0 1 .547.048.358.358 0 0 1 .39.016V-.36h.015a.317.317 0 0 0 .156.046.569.569 0 0 0 .204.032c.257 0 .46-.082.609-.25.145-.164.227-.406.25-.719-.105.063-.203.11-.297.14a.825.825 0 0 1-.312.063.83.83 0 0 1-.297-.047.663.663 0 0 1-.266-.125.745.745 0 0 1-.234-.312.963.963 0 0 1-.094-.438zm0 0"/></symbol><symbol overflow="visible" id="y"><path d="M2.094-1H1.75v1h-.375v-1H.078v-.422l1.313-1.5h.359v1.61h.344zm-.719-.313v-1.14l-.984 1.14zm0 0"/></symbol><symbol overflow="visible" id="z"><path d="M2.11-1.156c0 .367-.09.656-.266.875-.18.219-.399.328-.657.328A.83.83 0 0 1 .891 0a.74.74 0 0 1-.25-.11v.922H.266v-3H.64v.235c.082-.082.18-.156.296-.219a.907.907 0 0 1 .375-.078.67.67 0 0 1 .579.297c.144.2.218.465.218.797zm-.391.047c0-.25-.04-.442-.11-.579a.425.425 0 0 0-.39-.218 1.238 1.238 0 0 0-.313.078 1.143 1.143 0 0 0-.265.172v1.25c.093.043.175.074.25.094a.69.69 0 0 0 .234.03c.188 0 .332-.07.438-.218.101-.133.156-.336.156-.61zm0 0"/></symbol><symbol overflow="visible" id="A"><path d="M1.984-.922c0 .137-.023.266-.062.39a1.304 1.304 0 0 1-.203.313.757.757 0 0 1-.297.203 1.072 1.072 0 0 1-.406.079C.867.063.726.046.594.015A1.216 1.216 0 0 1 .25-.11v-.407h.016c.03.024.078.047.14.079.051.023.114.046.188.078.07.023.14.043.203.062.062.012.133.016.219.016.07 0 .148-.016.234-.047a.389.389 0 0 0 .188-.125.604.604 0 0 0 .109-.203c.02-.07.031-.164.031-.281a.868.868 0 0 0-.031-.25.491.491 0 0 0-.125-.157.644.644 0 0 0-.203-.11 1.265 1.265 0 0 0-.282-.03 4 4 0 0 0-.312.015c-.117.024-.203.04-.266.047v-1.5h1.61v.344H.734v.781c.051-.008.098-.016.141-.016H1c.156 0 .285.012.39.032.094.031.192.078.298.14a.782.782 0 0 1 .218.282c.051.117.078.261.078.437zm0 0"/></symbol><symbol overflow="visible" id="B"><path d="M.844 0H.375v-.563h.469zm0 0"/></symbol><symbol overflow="visible" id="C"><path d="M1.969 0h-.36v-.25a1.526 1.526 0 0 1-.328.234.78.78 0 0 1-.61.032.505.505 0 0 1-.218-.157.685.685 0 0 1-.156-.25A1.29 1.29 0 0 1 .25-.766v-1.421h.375v1.25c0 .117.004.21.016.28 0 .087.015.153.046.204.032.062.07.105.125.125a.78.78 0 0 0 .516-.031 1.41 1.41 0 0 0 .281-.204v-1.625h.36zm0 0"/></symbol><symbol overflow="visible" id="D"><path d="M2.422 0h-.39v-1.422H.686V0h-.39v-2.922h.39v1.14H2.03v-1.14h.39zm0 0"/></symbol><symbol overflow="visible" id="E"><path d="M1.516.063c-.211 0-.399-.032-.563-.094a.962.962 0 0 1-.437-.297 1.177 1.177 0 0 1-.282-.469 1.894 1.894 0 0 1-.109-.672c0-.226.035-.437.11-.625a1.33 1.33 0 0 1 .28-.484c.114-.125.258-.223.438-.297.176-.063.363-.094.563-.094.101 0 .195.008.28.016.095.023.18.043.266.062.063.024.133.047.22.079a.829.829 0 0 1 .187.093v.469h-.031a3.862 3.862 0 0 0-.141-.125 1.311 1.311 0 0 0-.219-.125c-.086-.04-.18-.07-.281-.094a1.039 1.039 0 0 0-.328-.047.798.798 0 0 0-.672.329c-.18.21-.266.492-.266.843 0 .188.024.36.078.516a.83.83 0 0 0 .188.36.745.745 0 0 0 .312.234.884.884 0 0 0 .391.078c.113 0 .223-.004.328-.016.102-.02.195-.047.281-.078v-.75h-.687v-.344h1.062v1.282c-.054.023-.117.046-.187.078-.094.03-.172.058-.235.078-.105.031-.195.05-.265.062-.074.02-.168.032-.281.032zm0 0"/></symbol><symbol overflow="visible" id="F"><path d="M2.594-1.453c0 .262-.055.5-.156.719-.106.218-.25.386-.438.5a1.33 1.33 0 0 1-.453.187A2.89 2.89 0 0 1 .969 0H.297v-2.922h.656c.281 0 .5.024.656.063.157.043.286.101.391.171.188.126.332.293.438.5.101.211.156.454.156.735zm-.406-.016c0-.218-.04-.41-.11-.578a.813.813 0 0 0-.328-.36 1.342 1.342 0 0 0-.328-.14 1.832 1.832 0 0 0-.438-.047H.688v2.266h.296c.164 0 .317-.016.454-.047a1.016 1.016 0 0 0 .656-.516c.062-.156.094-.347.094-.578zm0 0"/></symbol><symbol overflow="visible" id="G"><path d="M1.438.047a1.212 1.212 0 0 1-.532-.094A1.087 1.087 0 0 1 .5-.328a1.388 1.388 0 0 1-.281-.469 2.147 2.147 0 0 1-.094-.656c0-.25.031-.461.094-.64C.28-2.27.375-2.43.5-2.579a1.28 1.28 0 0 1 .406-.297c.156-.063.332-.094.531-.094.102 0 .196.008.282.016.082.023.16.043.234.062.063.024.129.043.203.063.063.031.125.07.188.11v.468h-.031c-.032-.031-.075-.07-.126-.125-.062-.04-.132-.082-.203-.125a2.15 2.15 0 0 0-.234-.11 1.54 1.54 0 0 0-.313-.03.767.767 0 0 0-.343.078.876.876 0 0 0-.297.218.997.997 0 0 0-.188.375 1.552 1.552 0 0 0-.078.516c0 .2.024.371.078.516a.83.83 0 0 0 .188.359c.082.105.18.18.297.219a.718.718 0 0 0 .343.078.99.99 0 0 0 .313-.047A.83.83 0 0 0 2-.422a1.42 1.42 0 0 0 .313-.234h.03v.453a2.274 2.274 0 0 0-.171.094 1.023 1.023 0 0 1-.219.078C1.867 0 1.79.019 1.72.03a2.627 2.627 0 0 1-.282.016zm0 0"/></symbol><symbol overflow="visible" id="H"><path d="M2.563 0h-.516l-.922-1.156H.687V0h-.39v-2.922h.75c.164 0 .305.012.422.031.113.024.222.063.328.125a.8.8 0 0 1 .234.25.751.751 0 0 1 .094.391.797.797 0 0 1-.172.531.913.913 0 0 1-.437.328zm-.844-2.094a.598.598 0 0 0-.047-.234.412.412 0 0 0-.14-.156.446.446 0 0 0-.188-.079c-.074-.007-.168-.019-.282-.03H.688v1.109h.344c.102 0 .203-.008.297-.032a.459.459 0 0 0 .219-.125.38.38 0 0 0 .125-.187.66.66 0 0 0 .047-.266zm0 0"/></symbol><symbol overflow="visible" id="I"><path d="M.984 0v-2.578H0v-.344h2.344v.344h-.985V0zm0 0"/></symbol><symbol overflow="visible" id="J"><path d="M1.984 0H.297v-2.922h.39v2.578h1.297zm0 0"/></symbol><symbol overflow="visible" id="K"><path d="M2.063-.953c0 .156-.028.297-.079.422a.974.974 0 0 1-.203.312.723.723 0 0 1-.297.203.78.78 0 0 1-.343.079A1.04 1.04 0 0 1 .78 0a.891.891 0 0 1-.297-.203A1.194 1.194 0 0 1 .25-.625a2.253 2.253 0 0 1-.078-.656c0-.25.023-.477.078-.688.05-.207.129-.383.234-.531.102-.145.239-.258.407-.344.164-.082.359-.125.578-.125h.187c.063.012.114.024.157.031v.376h-.016a.676.676 0 0 0-.156-.047.87.87 0 0 0-.22-.032.784.784 0 0 0-.593.25c-.148.168-.234.414-.265.735a1.58 1.58 0 0 1 .296-.157.973.973 0 0 1 .313-.046c.113 0 .21.011.297.03a.792.792 0 0 1 .515.438c.051.125.079.274.079.438zm-.407.015a.861.861 0 0 0-.047-.296.5.5 0 0 0-.14-.204.735.735 0 0 0-.172-.093c-.074-.008-.14-.016-.203-.016a.745.745 0 0 0-.266.047 1.272 1.272 0 0 0-.265.125v.172c0 .21.019.375.062.5.04.125.086.219.14.281.051.063.11.106.172.125a.326.326 0 0 0 .204.031c.156 0 .28-.05.375-.156.093-.113.14-.285.14-.516zm0 0"/></symbol><symbol overflow="visible" id="L"><path d="M-.016 0L.97-2.922h.469L2.421 0h-.406L1.75-.813H.64L.376 0zm1.657-1.14l-.454-1.391-.437 1.39zm0 0"/></symbol><symbol overflow="visible" id="M"><path d="M2.047-2.578H.687v.828h1.297v.344H.688V0H.296v-2.922h1.75zm0 0"/></symbol><symbol overflow="visible" id="N"><path d="M2.61-1.125h-.985v1h-.328v-1H.313v-.313h.984v-.984h.328v.985h.984zm0 0"/></symbol><symbol overflow="visible" id="O"><path d="M2.406-2.922L1.406 0H.984l-1-2.922h.422L1.203-.5l.813-2.422zm0 0"/></symbol><symbol overflow="visible" id="P"><path d="M1.281-1.094H.171v-.36h1.11zm0 0"/></symbol></defs><use xlink:href="#a" x="424.196" y="381.784" fill="#505050"/><use xlink:href="#b" x="426.596" y="381.784" fill="#505050"/><use xlink:href="#c" x="428.996" y="381.784" fill="#505050"/><use xlink:href="#d" x="431.396" y="381.784" fill="#505050"/><use xlink:href="#d" x="433.796" y="381.784" fill="#505050"/><use xlink:href="#d" x="436.196" y="381.784" fill="#505050"/><use xlink:href="#e" x="438.596" y="381.784" fill="#505050"/><use xlink:href="#f" x="440.996" y="381.784" fill="#505050"/><use xlink:href="#g" x="443.396" y="381.784" fill="#505050"/><use xlink:href="#h" x="445.796" y="381.784" fill="#505050"/><use xlink:href="#i" x="448.196" y="381.784" fill="#505050"/><use xlink:href="#d" x="450.596" y="381.784" fill="#505050"/><use xlink:href="#j" x="452.996" y="381.784" fill="#505050"/><use xlink:href="#k" x="455.396" y="381.784" fill="#505050"/><use xlink:href="#l" x="457.796" y="381.784" fill="#505050"/><use xlink:href="#m" x="460.196" y="381.784" fill="#505050"/><use xlink:href="#m" x="462.596" y="381.784" fill="#505050"/><use xlink:href="#d" x="464.996" y="381.784" fill="#505050"/><use xlink:href="#n" x="467.396" y="381.784" fill="#505050"/><use xlink:href="#h" x="469.796" y="381.784" fill="#505050"/><use xlink:href="#d" x="472.196" y="381.784" fill="#505050"/><use xlink:href="#o" x="474.596" y="381.784" fill="#505050"/><use xlink:href="#p" x="476.996" y="381.784" fill="#505050"/><use xlink:href="#l" x="479.396" y="381.784" fill="#505050"/><use xlink:href="#m" x="481.796" y="381.784" fill="#505050"/><use xlink:href="#m" x="484.196" y="381.784" fill="#505050"/><use xlink:href="#q" x="337.531" y="330.845" fill="#505050"/><use xlink:href="#r" x="339.751" y="330.845" fill="#505050"/><use xlink:href="#s" x="341.971" y="330.845" fill="#505050"/><use xlink:href="#q" x="364.912" y="256.021" fill="#505050"/><use xlink:href="#r" x="367.132" y="256.021" fill="#505050"/><use xlink:href="#t" x="369.352" y="256.021" fill="#505050"/><use xlink:href="#q" x="376.423" y="330.845" fill="#505050"/><use xlink:href="#r" x="378.643" y="330.845" fill="#505050"/><use xlink:href="#t" x="380.863" y="330.845" fill="#505050"/><use xlink:href="#u" x="398.871" y="275.3" fill="#505050"/><use xlink:href="#v" x="401.091" y="275.3" fill="#505050"/><use xlink:href="#w" x="403.791" y="275.3" fill="#505050"/><use xlink:href="#x" x="406.011" y="275.3" fill="#505050"/><use xlink:href="#r" x="408.231" y="275.3" fill="#505050"/><use xlink:href="#y" x="410.451" y="275.3" fill="#505050"/><use xlink:href="#u" x="391.1" y="249.402" fill="#505050"/><use xlink:href="#u" x="393.321" y="249.402" fill="#505050"/><use xlink:href="#z" x="395.541" y="249.402" fill="#505050"/><use xlink:href="#A" x="412.685" y="235.01" fill="#505050"/><use xlink:href="#q" x="423.621" y="287.677" fill="#505050"/><use xlink:href="#r" x="425.841" y="287.677" fill="#505050"/><use xlink:href="#z" x="428.061" y="287.677" fill="#505050"/><use xlink:href="#r" x="376.882" y="309.835" fill="#505050"/><use xlink:href="#B" x="379.102" y="309.835" fill="#505050"/><use xlink:href="#w" x="380.302" y="309.835" fill="#505050"/><use xlink:href="#w" x="382.521" y="309.835" fill="#505050"/><use xlink:href="#C" x="384.741" y="309.835" fill="#505050"/><use xlink:href="#D" x="386.962" y="309.835" fill="#505050"/><use xlink:href="#q" x="399.446" y="356.747" fill="#505050"/><use xlink:href="#r" x="401.666" y="356.747" fill="#505050"/><use xlink:href="#t" x="403.886" y="356.747" fill="#505050"/><use xlink:href="#q" x="455.491" y="226.379" fill="#505050"/><use xlink:href="#r" x="457.711" y="226.379" fill="#505050"/><use xlink:href="#t" x="459.931" y="226.379" fill="#505050"/><use xlink:href="#q" x="446.89" y="322.212" fill="#505050"/><use xlink:href="#r" x="449.11" y="322.212" fill="#505050"/><use xlink:href="#s" x="451.331" y="322.212" fill="#505050"/><use xlink:href="#q" x="423.868" y="322.212" fill="#505050"/><use xlink:href="#r" x="426.087" y="322.212" fill="#505050"/><use xlink:href="#s" x="428.307" y="322.212" fill="#505050"/><use xlink:href="#q" x="466.942" y="309.837" fill="#505050"/><use xlink:href="#r" x="469.162" y="309.837" fill="#505050"/><use xlink:href="#C" x="471.382" y="309.837" fill="#505050"/><use xlink:href="#E" x="391.397" y="385.813" fill="#505050"/><use xlink:href="#v" x="394.097" y="385.813" fill="#505050"/><use xlink:href="#F" x="396.797" y="385.813" fill="#505050"/><use xlink:href="#G" x="339.571" y="320.483" fill="#505050"/><use xlink:href="#q" x="341.971" y="320.483" fill="#505050"/><use xlink:href="#H" x="364.912" y="245.658" fill="#505050"/><use xlink:href="#q" x="367.432" y="245.658" fill="#505050"/><use xlink:href="#H" x="376.423" y="320.483" fill="#505050"/><use xlink:href="#u" x="378.943" y="320.483" fill="#505050"/><use xlink:href="#I" x="381.648" y="275.3" fill="#505050"/><use xlink:href="#q" x="383.988" y="275.3" fill="#505050"/><use xlink:href="#G" x="391.1" y="235.01" fill="#505050"/><use xlink:href="#u" x="393.5" y="235.01" fill="#505050"/><use xlink:href="#J" x="412.685" y="249.402" fill="#505050"/><use xlink:href="#q" x="414.665" y="249.402" fill="#505050"/><use xlink:href="#G" x="423.621" y="277.315" fill="#505050"/><use xlink:href="#w" x="426.021" y="277.315" fill="#505050"/><use xlink:href="#J" x="385.462" y="324.226" fill="#505050"/><use xlink:href="#u" x="387.441" y="324.226" fill="#505050"/><use xlink:href="#H" x="399.446" y="346.384" fill="#505050"/><use xlink:href="#w" x="401.966" y="346.384" fill="#505050"/><use xlink:href="#H" x="456.331" y="211.987" fill="#505050"/><use xlink:href="#y" x="458.851" y="211.987" fill="#505050"/><use xlink:href="#G" x="448.931" y="311.849" fill="#505050"/><use xlink:href="#y" x="451.331" y="311.849" fill="#505050"/><use xlink:href="#G" x="425.907" y="311.849" fill="#505050"/><use xlink:href="#A" x="428.307" y="311.849" fill="#505050"/><use xlink:href="#G" x="467.962" y="289.69" fill="#505050"/><use xlink:href="#K" x="470.362" y="289.69" fill="#505050"/><use xlink:href="#L" x="496.143" y="299.763" fill="#505050"/><use xlink:href="#M" x="498.543" y="299.763" fill="#505050"/><use xlink:href="#N" x="500.643" y="299.763" fill="#505050"/><use xlink:href="#N" x="496.143" y="219.183" fill="#505050"/><use xlink:href="#x" x="499.083" y="219.183" fill="#505050"/><use xlink:href="#O" x="501.303" y="219.183" fill="#505050"/><use xlink:href="#E" x="496.143" y="368.833" fill="#505050"/><use xlink:href="#v" x="498.843" y="368.833" fill="#505050"/><use xlink:href="#F" x="501.543" y="368.833" fill="#505050"/><use xlink:href="#L" x="496.143" y="334.298" fill="#505050"/><use xlink:href="#M" x="498.543" y="334.298" fill="#505050"/><use xlink:href="#P" x="500.643" y="334.298" fill="#505050"/><path d="M349.379 330v-4.02m0-7.5v4.02" fill="none" stroke-width=".36" stroke-linecap="round" stroke-linejoin="round" stroke="maroon" stroke-miterlimit="10"/><path d="M344.762 325.98H354v-1.199h-9.238zm0-2.28H354v-1.2h-9.238zm0 0" fill="maroon" stroke-width=".12" stroke-linecap="round" stroke-linejoin="round" stroke="maroon" stroke-miterlimit="10"/><path d="M360.898 237.898v5.762m0 17.281v-5.761" fill="none" stroke-width=".36" stroke-linecap="round" stroke-linejoin="round" stroke="maroon" stroke-miterlimit="10"/><path d="M358.86 255.18v-11.52m4.019 0v11.52m-4.019-11.52h4.019m-4.019 11.52h4.019" fill="none" stroke-width=".6" stroke-linecap="round" stroke-linejoin="round" stroke="maroon" stroke-miterlimit="10"/><path d="M372.422 312.719v5.761m0 17.282V330" fill="none" stroke-width=".36" stroke-linecap="round" stroke-linejoin="round" stroke="maroon" stroke-miterlimit="10"/><path d="M370.379 330v-11.52m4.019 0V330m-4.019-11.52h4.02m-4.02 11.52h4.02" fill="none" stroke-width=".6" stroke-linecap="round" stroke-linejoin="round" stroke="maroon" stroke-miterlimit="10"/><path d="M395.398 275.281l-5.578 2.82m3.18 6.059l1.14 1.98m0 0l-2.34.301m0 0l1.2-2.28m2.398 2.639l-1.257-.66m-.001 0l-3.78-1.859" fill="none" stroke-width=".36" stroke-linecap="round" stroke-linejoin="round" stroke="maroon" stroke-miterlimit="10"/><path d="M392.398 286.14l1.32-.12m.001 0L393 284.7" fill="none" stroke-width=".72" stroke-linecap="round" stroke-linejoin="round" stroke="maroon" stroke-miterlimit="10"/><path d="M393 284.7l-.602 1.198m0 0h.84m0 0l-.238-.597" fill="none" stroke-width=".6" stroke-linecap="round" stroke-linejoin="round" stroke="maroon" stroke-miterlimit="10"/><path d="M388.559 286.8h1.68v-11.519h-1.68zm0 0" fill="maroon" stroke-width=".12" stroke-linecap="round" stroke-linejoin="round" stroke="maroon" stroke-miterlimit="10"/><path d="M383.879 281.04h5.762m5.757 11.519V286.8m0-17.28v5.761" fill="none" stroke-width=".36" stroke-linecap="round" stroke-linejoin="round" stroke="maroon" stroke-miterlimit="10"/><path d="M400.68 281.04a8.159 8.159 0 0 1-8.16 8.16 8.159 8.159 0 0 1-8.16-8.16 8.159 8.159 0 0 1 8.16-8.161 8.159 8.159 0 0 1 8.16 8.16zm0 0" fill="none" stroke-width=".9" stroke-linecap="round" stroke-linejoin="round" stroke="maroon" stroke-miterlimit="10"/><path d="M383.879 246.54v-4.02m0-7.5v4.02" fill="none" stroke-width=".36" stroke-linecap="round" stroke-linejoin="round" stroke="maroon" stroke-miterlimit="10"/><path d="M380.46 244.8l8.642-8.64m1.738 1.738l-1.738-1.738m0 0l-1.743-1.738" fill="none" stroke-width=".72" stroke-linecap="round" stroke-linejoin="round" stroke="maroon" stroke-miterlimit="10"/><path d="M390.84 245.398v-5.218m0 0l.539 1.742m-.539-1.742l-.602 1.742" fill="none" stroke-width=".36" stroke-linecap="round" stroke-linejoin="round" stroke="maroon" stroke-miterlimit="10"/><path d="M379.262 242.52h9.238v-1.2h-9.238zm0-2.282h9.238v-1.199h-9.238zm0 0" fill="maroon" stroke-width=".12" stroke-linecap="round" stroke-linejoin="round" stroke="maroon" stroke-miterlimit="10"/><path d="M409.8 235.02l-.12-.782-.239-.66-.48-.598-.602-.48-.66-.238-.777-.121" fill="none" stroke-width=".6" stroke-linecap="round" stroke-linejoin="round" stroke="maroon" stroke-miterlimit="10"/><path d="M406.922 237.898l.777-.117.66-.3.602-.422.48-.598.239-.723.12-.718m0 5.761l-.12-.781-.239-.66-.48-.602-.602-.476-.66-.301-.777-.063m0 5.762l.777-.12.66-.302.602-.418.48-.601.239-.719.12-.719m0 5.759l-.12-.778-.239-.66-.48-.602-.602-.48-.66-.301-.777-.059" fill="none" stroke-width=".6" stroke-linecap="round" stroke-linejoin="round" stroke="maroon" stroke-miterlimit="10"/><path d="M406.922 249.422l.777-.121.66-.301.602-.422.48-.598.239-.718.12-.723m-2.878 5.761v-2.878m0-20.16v2.879" fill="none" stroke-width=".6" stroke-linecap="round" stroke-linejoin="round" stroke="maroon" stroke-miterlimit="10"/><path d="M418.441 286.8v-4.019m0-7.5v4.02" fill="none" stroke-width=".36" stroke-linecap="round" stroke-linejoin="round" stroke="maroon" stroke-miterlimit="10"/><path d="M413.82 282.781h9.239v-1.203h-9.239zm0-2.281h9.239v-1.2h-9.239zm0 0" fill="maroon" stroke-width=".12" stroke-linecap="round" stroke-linejoin="round" stroke="maroon" stroke-miterlimit="10"/><path d="M395.398 306.96l-.718.118-.72.242-.6.48-.419.598-.3.723-.121.719" fill="none" stroke-width=".6" stroke-linecap="round" stroke-linejoin="round" stroke="maroon" stroke-miterlimit="10"/><path d="M392.52 309.84l.12.719.301.722.418.598.602.422.719.3.718.118m0 0l-.718.12-.72.24-.6.48-.419.601-.3.66-.121.782M392.52 315.602l.12.718.301.72.418.6.602.419.719.3.718.121m0 0l-.718.06-.72.3-.6.48-.419.602-.3.656-.121.781m0 .001l.12.718.301.723.418.597.602.422.719.301.718.117m0 2.883v-2.883m0-20.16v2.883" fill="none" stroke-width=".6" stroke-linecap="round" stroke-linejoin="round" stroke="maroon" stroke-miterlimit="10"/><path d="M395.398 338.64v5.7m0 17.281v-5.762" fill="none" stroke-width=".36" stroke-linecap="round" stroke-linejoin="round" stroke="maroon" stroke-miterlimit="10"/><path d="M393.422 355.86v-11.52m4.019 0v11.52m-4.019-11.52h4.02m-4.02 11.52h4.02" fill="none" stroke-width=".6" stroke-linecap="round" stroke-linejoin="round" stroke="maroon" stroke-miterlimit="10"/><path d="M447.238 217.738H453m17.219 0h-5.758" fill="none" stroke-width=".36" stroke-linecap="round" stroke-linejoin="round" stroke="maroon" stroke-miterlimit="10"/><path d="M464.46 219.781H453m0-4.081h11.46M453 219.781V215.7m11.46 4.081V215.7" fill="none" stroke-width=".6" stroke-linecap="round" stroke-linejoin="round" stroke="maroon" stroke-miterlimit="10"/><path d="M458.762 321.36v-4.02m0-7.5v4.02" fill="none" stroke-width=".36" stroke-linecap="round" stroke-linejoin="round" stroke="maroon" stroke-miterlimit="10"/><path d="M454.14 317.34h9.239v-1.2h-9.238zm0-2.281h9.239v-1.2h-9.238zm0 0" fill="maroon" stroke-width=".12" stroke-linecap="round" stroke-linejoin="round" stroke="maroon" stroke-miterlimit="10"/><path d="M435.719 321.36v-4.02m0-7.5v4.02" fill="none" stroke-width=".36" stroke-linecap="round" stroke-linejoin="round" stroke="maroon" stroke-miterlimit="10"/><path d="M431.102 317.34h9.238v-1.2h-9.238zm0-2.281h9.238v-1.2h-9.238zm0 0" fill="maroon" stroke-width=".12" stroke-linecap="round" stroke-linejoin="round" stroke="maroon" stroke-miterlimit="10"/><use xlink:href="#N" x="464.425" y="303.362" fill="maroon"/><path d="M475.98 298.32h-4.02m-7.5 0h3.778" fill="none" stroke-width=".36" stroke-linecap="round" stroke-linejoin="round" stroke="maroon" stroke-miterlimit="10"/><path d="M470.82 302.941h1.442V293.7h-1.442zm0 0" fill="maroon" stroke-width=".12" stroke-linecap="round" stroke-linejoin="round" stroke="maroon" stroke-miterlimit="10"/><path d="M468.238 302.762h1.442m0 0v-8.883m0 0h-1.442m0 0v4.441m0 0v4.442" fill="none" stroke-width=".3" stroke-linecap="round" stroke-linejoin="round" stroke="maroon" stroke-miterlimit="10"/><path d="M391.68 378.898h7.5" fill="none" stroke-width=".6" stroke-linecap="round" stroke-linejoin="round" stroke="maroon" stroke-miterlimit="10"/><path d="M395.398 373.14v5.758" fill="none" stroke-width=".36" stroke-linecap="round" stroke-linejoin="round" stroke="maroon" stroke-miterlimit="10"/><path d="M393.121 380.04h4.617m-3.179 1.14h1.742m85.437-82.86h5.762" fill="none" stroke-width=".6" stroke-linecap="round" stroke-linejoin="round" stroke="maroon" stroke-miterlimit="10"/><path d="M487.2 298.32l.179-.898.36-.781.6-.72.72-.48.902-.242h.898l.84.242.781.48.598.72.363.78.118.9-.118.898-.363.84-.598.66-.78.48-.84.242h-.9l-.901-.242-.72-.48-.6-.66-.36-.84-.18-.899h.602l.12-.718.298-.66.48-.602.602-.36.719-.242h.718l.723.242.598.36.48.601.36.66.062.72-.063.718-.359.66-.48.602-.598.36-.723.237h-.718l-.72-.238-.6-.36-.481-.6-.297-.66-.121-.72h-.602" fill-rule="evenodd" fill="maroon"/><path d="M487.2 298.32l.179-.898.36-.781.6-.72.72-.48.902-.242h.898l.84.242.781.48.598.72.363.78.118.9-.118.898-.363.84-.598.66-.78.48-.84.242h-.9l-.901-.242-.72-.48-.6-.66-.36-.84-.18-.899h.602l.12-.718.298-.66.48-.602.602-.36.719-.242h.718l.723.242.598.36.48.601.36.66.062.72-.063.718-.359.66-.48.602-.598.36-.723.237h-.718l-.72-.238-.6-.36-.481-.6-.297-.66-.121-.72zm0 0" fill="none" stroke-width=".12" stroke-linecap="round" stroke-linejoin="round" stroke="maroon" stroke-miterlimit="10"/><path d="M481.738 217.738h5.762" fill="none" stroke-width=".6" stroke-linecap="round" stroke-linejoin="round" stroke="maroon" stroke-miterlimit="10"/><path d="M487.2 217.738l.179-.898.36-.781.6-.72.72-.48.902-.238h.898l.84.238.781.48.598.72.363.78.118.9-.118.902-.363.84-.598.66-.78.48-.84.238h-.9l-.901-.238-.72-.48-.6-.66-.36-.84-.18-.903h.602l.12-.718.298-.66.48-.598.602-.364.719-.238h.718l.723.238.598.364.48.597.36.66.062.72-.063.722-.359.66-.48.598-.598.36-.723.241h-.718l-.72-.242-.6-.36-.481-.597-.297-.66-.121-.723h-.602" fill-rule="evenodd" fill="maroon"/><path d="M487.2 217.738l.179-.898.36-.781.6-.72.72-.48.902-.238h.898l.84.238.781.48.598.72.363.78.118.9-.118.902-.363.84-.598.66-.78.48-.84.238h-.9l-.901-.238-.72-.48-.6-.66-.36-.84-.18-.903h.602l.12-.718.298-.66.48-.598.602-.364.719-.238h.718l.723.238.598.364.48.597.36.66.062.72-.063.722-.359.66-.48.598-.598.36-.723.241h-.718l-.72-.242-.6-.36-.481-.597-.297-.66-.121-.723zm0 0" fill="none" stroke-width=".12" stroke-linecap="round" stroke-linejoin="round" stroke="maroon" stroke-miterlimit="10"/><path d="M481.738 367.379h5.762" fill="none" stroke-width=".6" stroke-linecap="round" stroke-linejoin="round" stroke="maroon" stroke-miterlimit="10"/><path d="M487.2 367.379l.179-.899.36-.78.6-.72.72-.48.902-.238h.898l.84.238.781.48.598.72.363.78.118.899-.118.902-.363.84-.598.66-.78.48-.84.239h-.9l-.901-.238-.72-.48-.6-.66-.36-.84-.18-.903h.602l.12-.719.298-.66.48-.54.602-.42.719-.24h.718l.723.24.598.42.48.54.36.66.062.719-.063.723-.359.718-.48.54-.598.359-.723.242h-.718l-.72-.242-.6-.36-.481-.539-.297-.718-.121-.723h-.602" fill-rule="evenodd" fill="maroon"/><path d="M487.2 367.379l.179-.899.36-.78.6-.72.72-.48.902-.238h.898l.84.238.781.48.598.72.363.78.118.899-.118.902-.363.84-.598.66-.78.48-.84.239h-.9l-.901-.238-.72-.48-.6-.66-.36-.84-.18-.903h.602l.12-.719.298-.66.48-.54.602-.42.719-.24h.718l.723.24.598.42.48.54.36.66.062.719-.063.723-.359.718-.48.54-.598.359-.723.242h-.718l-.72-.242-.6-.36-.481-.539-.297-.718-.121-.723zm0 0" fill="none" stroke-width=".12" stroke-linecap="round" stroke-linejoin="round" stroke="maroon" stroke-miterlimit="10"/><path d="M481.738 332.879h5.762" fill="none" stroke-width=".6" stroke-linecap="round" stroke-linejoin="round" stroke="maroon" stroke-miterlimit="10"/><path d="M487.2 332.879l.179-.899.36-.84.6-.66.72-.48.902-.3h.898l.84.3.781.48.598.66.363.84.118.899-.118.902-.363.778-.598.722-.78.48-.84.239h-.9l-.901-.238-.72-.48-.6-.723-.36-.778-.18-.902h.602l.12-.777.298-.66.48-.544.602-.418.719-.18h.718l.723.18.598.418.48.543.36.66.062.778-.063.723-.359.66-.48.539-.598.418-.723.18h-.718l-.72-.18-.6-.418-.481-.54-.297-.66-.121-.722h-.602" fill-rule="evenodd" fill="maroon"/><path d="M487.2 332.879l.179-.899.36-.84.6-.66.72-.48.902-.3h.898l.84.3.781.48.598.66.363.84.118.899-.118.902-.363.778-.598.722-.78.48-.84.239h-.9l-.901-.238-.72-.48-.6-.723-.36-.778-.18-.902h.602l.12-.777.298-.66.48-.544.602-.418.719-.18h.718l.723.18.598.418.48.543.36.66.062.778-.063.723-.359.66-.48.539-.598.418-.723.18h-.718l-.72-.18-.6-.418-.481-.54-.297-.66-.121-.722zm0 0" fill="none" stroke-width=".12" stroke-linecap="round" stroke-linejoin="round" stroke="maroon" stroke-miterlimit="10"/><path d="M349.379 318.48v-14.402m0 0h11.52m-.001-23.038v23.038m0 0h11.524m0 0v8.64m-11.524-51.777v20.098" fill="none" stroke-width=".36" stroke-linecap="round" stroke-linejoin="round" stroke="green" stroke-miterlimit="10"/><path d="M362.04 281.04c0 .632-.509 1.14-1.142 1.14a1.136 1.136 0 0 1-1.136-1.14 1.139 1.139 0 1 1 2.277 0" fill-rule="evenodd" fill="green"/><path d="M362.04 281.04c0 .632-.509 1.14-1.142 1.14a1.136 1.136 0 0 1-1.136-1.14 1.139 1.139 0 1 1 2.277 0zm0 0" fill="none" stroke-width=".12" stroke-linecap="round" stroke-linejoin="round" stroke="green" stroke-miterlimit="10"/><path d="M383.879 281.04h-22.98" fill="none" stroke-width=".36" stroke-linecap="round" stroke-linejoin="round" stroke="green" stroke-miterlimit="10"/><path d="M362.04 304.078c0 .633-.509 1.14-1.142 1.14a1.136 1.136 0 0 1-1.136-1.14c0-.629.508-1.137 1.136-1.137.633 0 1.141.508 1.141 1.137" fill-rule="evenodd" fill="green"/><path d="M362.04 304.078c0 .633-.509 1.14-1.142 1.14a1.136 1.136 0 0 1-1.136-1.14c0-.629.508-1.137 1.136-1.137.633 0 1.141.508 1.141 1.137zm0 0" fill="none" stroke-width=".12" stroke-linecap="round" stroke-linejoin="round" stroke="green" stroke-miterlimit="10"/><path d="M395.398 332.879v5.762m0-5.762h40.32m.001 0v-11.52m-40.321 5.762v5.758" fill="none" stroke-width=".36" stroke-linecap="round" stroke-linejoin="round" stroke="green" stroke-miterlimit="10"/><path d="M396.54 332.879c0 .633-.509 1.14-1.142 1.14a1.136 1.136 0 0 1-1.136-1.14 1.139 1.139 0 1 1 2.277 0" fill-rule="evenodd" fill="green"/><path d="M396.54 332.879c0 .633-.509 1.14-1.142 1.14a1.136 1.136 0 0 1-1.136-1.14 1.139 1.139 0 1 1 2.277 0zm0 0" fill="none" stroke-width=".12" stroke-linecap="round" stroke-linejoin="round" stroke="green" stroke-miterlimit="10"/><path d="M395.398 292.559v5.761m0 0h23.043m0 0V286.8m-23.043 11.52v5.758" fill="none" stroke-width=".36" stroke-linecap="round" stroke-linejoin="round" stroke="green" stroke-miterlimit="10"/><path d="M396.54 298.32a1.14 1.14 0 1 1-2.28.003 1.14 1.14 0 0 1 2.28-.003" fill-rule="evenodd" fill="green"/><path d="M396.54 298.32a1.14 1.14 0 1 1-2.28.003 1.14 1.14 0 0 1 2.28-.003zm0 0" fill="none" stroke-width=".12" stroke-linecap="round" stroke-linejoin="round" stroke="green" stroke-miterlimit="10"/><path d="M383.879 246.54v11.519m0 0h11.52m-.001 0h11.524m-11.524 11.461v-5.758" fill="none" stroke-width=".36" stroke-linecap="round" stroke-linejoin="round" stroke="green" stroke-miterlimit="10"/><path d="M396.54 258.059a1.14 1.14 0 1 1-2.28.002 1.14 1.14 0 0 1 2.28-.002" fill-rule="evenodd" fill="green"/><path d="M396.54 258.059a1.14 1.14 0 1 1-2.28.002 1.14 1.14 0 0 1 2.28-.002zm0 0" fill="none" stroke-width=".12" stroke-linecap="round" stroke-linejoin="round" stroke="green" stroke-miterlimit="10"/><path d="M395.398 263.762v-5.703m0 5.703h23.043m0 0v11.52" fill="none" stroke-width=".36" stroke-linecap="round" stroke-linejoin="round" stroke="green" stroke-miterlimit="10"/><path d="M396.54 263.762c0 .629-.509 1.136-1.142 1.136a1.135 1.135 0 0 1-1.136-1.136c0-.633.508-1.14 1.136-1.14.633 0 1.141.507 1.141 1.14" fill-rule="evenodd" fill="green"/><path d="M396.54 263.762c0 .629-.509 1.136-1.142 1.136a1.135 1.135 0 0 1-1.136-1.136c0-.633.508-1.14 1.136-1.14.633 0 1.141.507 1.141 1.14zm0 0" fill="none" stroke-width=".12" stroke-linecap="round" stroke-linejoin="round" stroke="green" stroke-miterlimit="10"/><path d="M406.922 252.3v5.759m28.797 51.781v-11.52m0 0v-80.582m0 0h11.52m-86.341 20.16v-20.16m0 0h34.5m0 0v5.762m0 0h-11.52m.001 0v11.52m23.043-11.52h-11.524" fill="none" stroke-width=".36" stroke-linecap="round" stroke-linejoin="round" stroke="green" stroke-miterlimit="10"/><path d="M396.54 223.5a1.14 1.14 0 1 1-2.28.002 1.14 1.14 0 0 1 2.28-.002" fill-rule="evenodd" fill="green"/><path d="M396.54 223.5a1.14 1.14 0 1 1-2.28.002 1.14 1.14 0 0 1 2.28-.002zm0 0" fill="none" stroke-width=".12" stroke-linecap="round" stroke-linejoin="round" stroke="green" stroke-miterlimit="10"/><path d="M435.719 217.738h-40.32" fill="none" stroke-width=".36" stroke-linecap="round" stroke-linejoin="round" stroke="green" stroke-miterlimit="10"/><path d="M436.86 217.738c0 .633-.508 1.14-1.141 1.14a1.14 1.14 0 1 1 0-2.276c.633 0 1.14.507 1.14 1.136" fill-rule="evenodd" fill="green"/><path d="M436.86 217.738c0 .633-.508 1.14-1.141 1.14a1.14 1.14 0 1 1 0-2.276c.633 0 1.14.507 1.14 1.136zm0 0" fill="none" stroke-width=".12" stroke-linecap="round" stroke-linejoin="round" stroke="green" stroke-miterlimit="10"/><path d="M396.54 217.738c0 .633-.509 1.14-1.142 1.14a1.136 1.136 0 0 1-1.136-1.14c0-.629.508-1.136 1.136-1.136.633 0 1.141.507 1.141 1.136" fill-rule="evenodd" fill="green"/><path d="M396.54 217.738c0 .633-.509 1.14-1.142 1.14a1.136 1.136 0 0 1-1.136-1.14c0-.629.508-1.136 1.136-1.136.633 0 1.141.507 1.141 1.136zm0 0" fill="none" stroke-width=".12" stroke-linecap="round" stroke-linejoin="round" stroke="green" stroke-miterlimit="10"/><path d="M458.762 309.84v-11.52m-23.043 0h23.043" fill="none" stroke-width=".36" stroke-linecap="round" stroke-linejoin="round" stroke="green" stroke-miterlimit="10"/><path d="M436.86 298.32a1.14 1.14 0 1 1-2.282 0 1.14 1.14 0 1 1 2.281 0" fill-rule="evenodd" fill="green"/><path d="M436.86 298.32a1.14 1.14 0 1 1-2.282 0 1.14 1.14 0 1 1 2.281 0zm0 0" fill="none" stroke-width=".12" stroke-linecap="round" stroke-linejoin="round" stroke="green" stroke-miterlimit="10"/><path d="M458.762 298.32h5.699" fill="none" stroke-width=".36" stroke-linecap="round" stroke-linejoin="round" stroke="green" stroke-miterlimit="10"/><path d="M459.898 298.32a1.139 1.139 0 1 1-2.277 0 1.14 1.14 0 1 1 2.277 0" fill-rule="evenodd" fill="green"/><path d="M459.898 298.32a1.139 1.139 0 1 1-2.277 0 1.14 1.14 0 1 1 2.277 0zm0 0" fill="none" stroke-width=".12" stroke-linecap="round" stroke-linejoin="round" stroke="green" stroke-miterlimit="10"/><path d="M406.922 229.262V223.5M349.379 330v14.34m0 0h11.52m-.001 0v23.039m0 0h34.5m0-5.758v5.758" fill="none" stroke-width=".36" stroke-linecap="round" stroke-linejoin="round" stroke="green" stroke-miterlimit="10"/><path d="M396.54 367.379c0 .633-.509 1.14-1.142 1.14a1.136 1.136 0 0 1-1.136-1.14 1.139 1.139 0 1 1 2.277 0" fill-rule="evenodd" fill="green"/><path d="M396.54 367.379c0 .633-.509 1.14-1.142 1.14a1.136 1.136 0 0 1-1.136-1.14 1.139 1.139 0 1 1 2.277 0zm0 0" fill="none" stroke-width=".12" stroke-linecap="round" stroke-linejoin="round" stroke="green" stroke-miterlimit="10"/><path d="M372.422 335.762v8.578m0 0h-11.524" fill="none" stroke-width=".36" stroke-linecap="round" stroke-linejoin="round" stroke="green" stroke-miterlimit="10"/><path d="M362.04 344.34a1.14 1.14 0 1 1-2.28.002 1.14 1.14 0 0 1 2.28-.002" fill-rule="evenodd" fill="green"/><path d="M362.04 344.34a1.14 1.14 0 1 1-2.28.002 1.14 1.14 0 0 1 2.28-.002zm0 0" fill="none" stroke-width=".12" stroke-linecap="round" stroke-linejoin="round" stroke="green" stroke-miterlimit="10"/><path d="M395.398 373.14v-5.761m0 0h63.364m0 0v-46.02m22.976 46.02h-5.758" fill="none" stroke-width=".36" stroke-linecap="round" stroke-linejoin="round" stroke="green" stroke-miterlimit="10"/><path d="M459.898 367.379c0 .633-.507 1.14-1.136 1.14-.633 0-1.14-.507-1.14-1.14a1.14 1.14 0 1 1 2.276 0" fill-rule="evenodd" fill="green"/><path d="M459.898 367.379c0 .633-.507 1.14-1.136 1.14-.633 0-1.14-.507-1.14-1.14a1.14 1.14 0 1 1 2.276 0zm0 0" fill="none" stroke-width=".12" stroke-linecap="round" stroke-linejoin="round" stroke="green" stroke-miterlimit="10"/><path d="M475.98 367.379h-17.218m17.218 0v-34.5" fill="none" stroke-width=".36" stroke-linecap="round" stroke-linejoin="round" stroke="green" stroke-miterlimit="10"/><path d="M477.121 367.379a1.14 1.14 0 1 1-2.281 0 1.141 1.141 0 0 1 2.281 0" fill-rule="evenodd" fill="green"/><path d="M477.121 367.379a1.14 1.14 0 1 1-2.281 0 1.141 1.141 0 0 1 2.281 0zm0 0" fill="none" stroke-width=".12" stroke-linecap="round" stroke-linejoin="round" stroke="green" stroke-miterlimit="10"/><path d="M475.98 332.879h5.758m0-115.141h-11.52m11.52 80.582h-5.758" fill="none" stroke-width=".36" stroke-linecap="round" stroke-linejoin="round" stroke="green" stroke-miterlimit="10"/></svg>