<svg xmlns:xlink="http://www.w3.org/1999/xlink" width="842pt" height="595pt" viewBox="0 0 842 595"><defs><symbol overflow="visible" id="a"><path d="M.734-1.719v1.594h.891v-.531a.16.16 0 0 1 .016-.078c.007-.008.023-.016.046-.016a.08.08 0 0 1 .047.016.231.231 0 0 1 .016.078V0H.297a.155.155 0 0 1-.078-.016C.207-.023.203-.039.203-.062c0-.02.004-.036.016-.047a.212.212 0 0 1 .078-.016h.312v-1.594H.297a.155.155 0 0 1-.078-.015c-.012-.008-.016-.024-.016-.047 0-.02.004-.035.016-.047a.212.212 0 0 1 .078-.016h.766a.11.11 0 0 1 .062.016.084.084 0 0 1 .016.047.067.067 0 0 1-.016.047c-.012.011-.031.015-.063.015zm0 0"/></symbol><symbol overflow="visible" id="b"><path d="M1.031-2.016v1.891h.453c.032 0 .055.008.079.016a.084.084 0 0 1 .015.046c0 .024-.008.04-.016.047A.165.165 0 0 1 1.484 0H.454a.155.155 0 0 1-.079-.016C.363-.023.359-.039.359-.062c0-.02.004-.036.016-.047a.212.212 0 0 1 .078-.016h.453v-1.703l-.437.14H.422c-.012.012-.027.008-.047-.015-.012-.008-.016-.024-.016-.047 0-.008.004-.023.016-.047a.123.123 0 0 0 .047-.016zm0 0"/></symbol><symbol overflow="visible" id="c"><path d="M1.64-1.016v.204H.298v-.204zm0 0"/></symbol><symbol overflow="visible" id="d"><path d="M1.422-1.781v-.063H.469v.11a.212.212 0 0 1-.016.078.123.123 0 0 1-.047.015c-.023 0-.039-.004-.047-.015-.023-.02-.03-.047-.03-.078v-.25h1.218v.218L1.016-.062c-.012.03-.024.046-.032.046C.973-.004.957 0 .938 0a.036.036 0 0 1-.032-.016C.883-.023.875-.039.875-.062c0-.008.004-.024.016-.047zm0 0"/></symbol><symbol overflow="visible" id="e"><path d="M.703-1.375h.719c.031 0 .05.012.062.031a.084.084 0 0 1 .016.047c0 .024-.008.04-.016.047-.011.012-.03.016-.062.016H.703v.89c0 .074.031.137.094.188.062.054.148.078.265.078.094 0 .192-.016.297-.047a.64.64 0 0 0 .235-.094c.02-.008.035-.015.047-.015.02 0 .035.007.046.015.008.024.016.04.016.047 0 .024-.008.04-.016.047-.03.043-.117.078-.25.11a1.255 1.255 0 0 1-.359.062.61.61 0 0 1-.375-.11.334.334 0 0 1-.14-.28v-.891h-.25c-.032 0-.055-.004-.063-.016-.012-.008-.016-.023-.016-.047 0-.02.004-.035.016-.047.008-.02.031-.031.063-.031h.25v-.39c0-.032.003-.051.015-.063.02-.008.035-.016.047-.016.02 0 .035.008.047.016.02.012.031.031.031.062zm0 0"/></symbol><symbol overflow="visible" id="f"><path d="M1.422 0v-.188a.864.864 0 0 1-.578.235C.707.047.609.016.547-.047a.45.45 0 0 1-.14-.328v-.86H.233c-.03 0-.054-.003-.062-.015C.148-1.258.14-1.273.14-1.297c0-.02.007-.035.03-.047.009-.02.032-.031.063-.031h.313v1c0 .086.023.152.078.203.05.063.117.094.203.094.219 0 .414-.098.594-.297v-.86h-.234c-.043 0-.07-.003-.079-.015-.011-.008-.015-.023-.015-.047 0-.02.004-.035.015-.047.008-.02.036-.031.079-.031h.375v1.25h.109a.11.11 0 0 1 .062.016.084.084 0 0 1 .016.046c0 .024-.008.04-.016.047-.011.012-.03.016-.062.016zm0 0"/></symbol><symbol overflow="visible" id="g"><path d="M.813-1.375v.344c.164-.157.296-.254.39-.297a.452.452 0 0 1 .234-.078.34.34 0 0 1 .22.078c.07.062.109.105.109.125a.048.048 0 0 1-.032.047c-.011.023-.027.031-.046.031a.036.036 0 0 1-.032-.016s-.011-.007-.031-.03a.542.542 0 0 1-.094-.079c-.031-.008-.062-.016-.093-.016a.51.51 0 0 0-.204.063 3.79 3.79 0 0 0-.421.344v.734h.593a.11.11 0 0 1 .063.016.084.084 0 0 1 .015.046c0 .024-.007.04-.015.047-.012.012-.032.016-.063.016H.36C.33 0 .305-.004.297-.016.273-.023.266-.039.266-.062c0-.02.007-.036.03-.047.009-.008.032-.016.063-.016h.313v-1.11H.437A.155.155 0 0 1 .36-1.25c-.011-.008-.015-.023-.015-.047 0-.02.004-.035.015-.047a.11.11 0 0 1 .079-.031zm0 0"/></symbol><symbol overflow="visible" id="h"><path d="M.547-1.375v.203a.844.844 0 0 1 .25-.187.515.515 0 0 1 .25-.063.98.98 0 0 1 .281.078.66.66 0 0 1 .156.157c.04.074.063.148.063.218v.844h.125a.11.11 0 0 1 .062.016.084.084 0 0 1 .016.046c0 .024-.008.04-.016.047-.011.012-.03.016-.062.016h-.36a.155.155 0 0 1-.078-.016c-.011-.007-.015-.023-.015-.046 0-.02.004-.036.015-.047a.212.212 0 0 1 .079-.016h.109v-.828c0-.082-.04-.16-.11-.235a.361.361 0 0 0-.265-.093.522.522 0 0 0-.234.047 1.641 1.641 0 0 0-.266.265v.844h.14c.032 0 .055.008.079.016a.084.084 0 0 1 .015.046c0 .024-.008.04-.015.047A.165.165 0 0 1 .687 0h-.42a.155.155 0 0 1-.079-.016C.176-.023.172-.039.172-.062c0-.02.004-.036.016-.047a.212.212 0 0 1 .078-.016h.14v-1.11h-.11c-.03 0-.054-.003-.062-.015-.023-.008-.03-.023-.03-.047 0-.02.007-.035.03-.047.008-.02.032-.031.063-.031zm0 0"/></symbol><symbol overflow="visible" id="i"><path d="M1.406-1.281c0-.032.004-.051.016-.063.02-.02.035-.031.047-.031.02 0 .039.012.062.031a.11.11 0 0 1 .016.063v.234c0 .031-.008.055-.016.063-.023.023-.043.027-.062.015a.036.036 0 0 1-.032-.015c-.023-.008-.03-.024-.03-.047a.262.262 0 0 0-.095-.157.57.57 0 0 0-.343-.093.554.554 0 0 0-.344.093c-.063.043-.094.09-.094.141 0 .074.035.133.11.172.05.031.144.055.28.063.188.023.317.042.391.062a.63.63 0 0 1 .235.156.41.41 0 0 1 .062.219.373.373 0 0 1-.156.297C1.336.004 1.176.047.97.047.758.047.586-.003.453-.11v.078c0 .011-.008.015-.016.015A.134.134 0 0 1 .376 0a.036.036 0 0 1-.031-.016.155.155 0 0 1-.016-.078v-.265c0-.032.004-.051.016-.063A.047.047 0 0 1 .39-.453c.02 0 .035.008.046.016.02.023.032.042.032.062 0 .055.008.094.031.125a.424.424 0 0 0 .172.125.83.83 0 0 0 .297.047c.176 0 .304-.031.39-.094.082-.062.125-.129.125-.203 0-.082-.043-.148-.125-.203a.94.94 0 0 0-.375-.094A1.356 1.356 0 0 1 .625-.75a.294.294 0 0 1-.172-.11.326.326 0 0 1-.062-.187c0-.113.054-.203.171-.266a.76.76 0 0 1 .407-.109c.176 0 .32.047.437.14zm0 0"/></symbol><symbol overflow="visible" id="j"><path d="M1.36 0v-.188a.997.997 0 0 1-.626.235.61.61 0 0 1-.375-.11.333.333 0 0 1-.125-.296C.223-.492.281-.61.406-.703c.114-.094.285-.14.516-.14.062 0 .129.007.203.015.063 0 .14.012.234.031v-.219c0-.07-.039-.132-.109-.187a.514.514 0 0 0-.297-.078c-.105 0-.25.031-.437.093a.223.223 0 0 1-.063.016c-.023 0-.039-.004-.047-.016a.093.093 0 0 1-.015-.046c0-.02.004-.036.015-.047.008-.02.067-.04.172-.063.164-.05.29-.078.375-.078.164 0 .297.043.39.125.095.086.141.18.141.281v.891h.172a.22.22 0 0 1 .078.016.084.084 0 0 1 .016.046c0 .024-.008.04-.016.047A.165.165 0 0 1 1.656 0zm0-.656a1.547 1.547 0 0 0-.204-.047c-.074 0-.148-.004-.218-.016-.2 0-.352.043-.454.125a.276.276 0 0 0-.125.235c0 .074.032.14.094.203.063.054.156.078.281.078a.61.61 0 0 0 .313-.078.934.934 0 0 0 .312-.219zm0 0"/></symbol><symbol overflow="visible" id="k"><path d="M1.719-.688a.827.827 0 0 1-.219.532.753.753 0 0 1-.531.203.657.657 0 0 1-.516-.219.657.657 0 0 1-.219-.516c0-.195.07-.367.22-.515a.67.67 0 0 1 .515-.219c.207 0 .383.074.531.219a.83.83 0 0 1 .219.516zm-.14 0a.614.614 0 0 0-.173-.421.638.638 0 0 0-.437-.172.574.574 0 0 0-.422.172.583.583 0 0 0 0 .859.56.56 0 0 0 .422.172.62.62 0 0 0 .437-.172.63.63 0 0 0 .172-.438zm0 0"/></symbol><symbol overflow="visible" id="l"><path d="M1.625-1.984v1.859h.172a.11.11 0 0 1 .062.016c.02.011.032.027.032.046 0 .024-.012.04-.032.047-.011.012-.03.016-.062.016h-.313v-.266c-.156.211-.351.313-.578.313a.65.65 0 0 1-.344-.094.623.623 0 0 1-.265-.266.832.832 0 0 1-.094-.374c0-.125.031-.243.094-.36a.645.645 0 0 1 .266-.266.6.6 0 0 1 .343-.109c.227.012.422.121.578.328v-.75h-.171a.155.155 0 0 1-.079-.015.115.115 0 0 1-.015-.063c0-.008.004-.023.015-.047a.213.213 0 0 1 .079-.015zm-.14 1.296a.587.587 0 0 0-.579-.593.558.558 0 0 0-.406.172.572.572 0 0 0-.172.421c0 .18.055.325.172.438.113.117.25.172.406.172a.592.592 0 0 0 .578-.61zm0 0"/></symbol><symbol overflow="visible" id="m"><path d="M.61-1.844v.64a.873.873 0 0 1 .218-.062.78.78 0 0 1 .203-.03c.164 0 .305.058.422.171a.647.647 0 0 1 .172.469c0 .21-.07.375-.203.5a.607.607 0 0 1-.469.203.875.875 0 0 1-.36-.078.743.743 0 0 1-.218-.157C.332-.217.312-.241.312-.266c0-.02.004-.035.016-.046a.047.047 0 0 1 .047-.032c.008 0 .023.012.047.031a.764.764 0 0 0 .531.235.453.453 0 0 0 .375-.172.572.572 0 0 0 .156-.422.53.53 0 0 0-.125-.36.51.51 0 0 0-.343-.124.95.95 0 0 0-.407.093.135.135 0 0 1-.078.032c-.023 0-.039-.004-.047-.016C.473-1.055.47-1.078.47-1.109v-.875h.922c.03 0 .054.007.078.015.008.024.015.04.015.047a.162.162 0 0 1-.015.063.165.165 0 0 1-.078.015zm0 0"/></symbol><symbol overflow="visible" id="n"><path d="M1.563-2.078L.5.203C.477.243.453.266.422.266.41.266.398.258.39.25.367.238.359.223.359.203A.103.103 0 0 1 .375.156L1.438-2.14a.091.091 0 0 1 .046-.046h.032c.02 0 .035.007.046.015a.084.084 0 0 1 .016.047c0 .012-.008.027-.016.047zm0 0"/></symbol><symbol overflow="visible" id="o"><path d="M.578-.844a1.18 1.18 0 0 1 .25-.265.537.537 0 0 1 .672.094.645.645 0 0 1 .156.437.686.686 0 0 1-.14.422.504.504 0 0 1-.422.203.507.507 0 0 1-.313-.11C.676-.124.594-.234.531-.39a1.77 1.77 0 0 1-.094-.593c0-.164.032-.32.094-.47a.979.979 0 0 1 .5-.5.875.875 0 0 1 .36-.077c.093 0 .164.023.218.062.032.012.047.032.047.063a.072.072 0 0 1-.015.047.123.123 0 0 1-.047.015c-.024 0-.04-.004-.047-.015a.422.422 0 0 0-.172-.032c-.2 0-.387.09-.563.266a.883.883 0 0 0-.234.781zm.031.219c.032.2.094.34.188.422a.39.39 0 0 0 .297.125.405.405 0 0 0 .312-.14.522.522 0 0 0 .125-.36.51.51 0 0 0-.125-.344.423.423 0 0 0-.297-.14.446.446 0 0 0-.296.125 1.195 1.195 0 0 0-.204.312zm0 0"/></symbol><symbol overflow="visible" id="p"><path d="M.469-1.984v.875c.156-.207.347-.313.578-.313.195 0 .363.074.5.219.133.148.203.32.203.516 0 .21-.07.386-.203.53a.713.713 0 0 1-.5.204c-.23 0-.422-.102-.578-.313V0H.156C.125 0 .102-.004.094-.016.07-.023.066-.039.078-.062.066-.083.07-.099.094-.11c.008-.008.031-.016.062-.016h.188v-1.719H.156c-.031 0-.054-.004-.062-.015C.07-1.88.066-1.9.078-1.922.066-1.93.07-1.945.094-1.969c.008-.008.031-.015.062-.015zM1.625-.688a.587.587 0 0 0-.578-.593.558.558 0 0 0-.406.172.572.572 0 0 0-.172.421c0 .18.054.325.172.438.113.117.25.172.406.172a.592.592 0 0 0 .578-.61zm0 0"/></symbol><symbol overflow="visible" id="q"><path d="M1.031-1.984v1.859h.532a.11.11 0 0 1 .062.016c.02.011.031.027.031.046 0 .024-.011.04-.031.047-.012.012-.031.016-.063.016H.391a.155.155 0 0 1-.079-.016C.301-.023.297-.039.297-.062c0-.02.004-.036.016-.047A.212.212 0 0 1 .39-.125h.515v-1.719h-.39c-.032 0-.055-.004-.063-.015a.115.115 0 0 1-.016-.063c0-.008.004-.023.016-.047.008-.008.031-.015.063-.015zm0 0"/></symbol><symbol overflow="visible" id="r"><path d="M.703-.484h.438L.67.39C.642.44.602.469.563.469A.164.164 0 0 1 .5.453.1.1 0 0 1 .469.375c0-.012.004-.023.015-.031zm0 0"/></symbol><symbol overflow="visible" id="s"><path d="M.469-1.375v.25c.082-.094.164-.164.25-.219a.68.68 0 0 1 .328-.078c.125 0 .242.031.36.094a.668.668 0 0 1 .265.266.78.78 0 0 1 .078.343c0 .188-.07.352-.203.485a.68.68 0 0 1-.5.203.676.676 0 0 1-.578-.297v.812h.328c.031 0 .05.004.062.016.008.008.016.023.016.047 0 .02-.008.035-.016.047a.11.11 0 0 1-.062.015h-.64C.124.61.101.602.093.594.07.582.066.566.078.547.066.523.07.507.094.5.102.488.125.484.156.484h.188v-1.718H.156c-.031 0-.054-.004-.062-.016-.024-.008-.028-.023-.016-.047-.012-.02-.008-.035.016-.047.008-.02.031-.031.062-.031zm1.156.656a.565.565 0 0 0-.172-.406.6.6 0 0 0-.406-.156.558.558 0 0 0-.406.172.5.5 0 0 0-.172.39c0 .149.054.278.172.39.113.106.25.157.406.157a.58.58 0 0 0 .406-.156.537.537 0 0 0 .172-.39zm0 0"/></symbol><symbol overflow="visible" id="t"><path d="M.406-.125h1.016v-.063c0-.03.004-.05.016-.062.007-.008.023-.016.046-.016a.08.08 0 0 1 .047.016.11.11 0 0 1 .016.063V0H.266v-.203c.27-.238.535-.484.796-.734a3.54 3.54 0 0 0 .235-.25.72.72 0 0 0 .094-.157.227.227 0 0 0 .03-.125.39.39 0 0 0-.14-.297.485.485 0 0 0-.328-.125.545.545 0 0 0-.312.094.384.384 0 0 0-.172.25.188.188 0 0 1-.031.047c-.012.012-.028.016-.047.016A.036.036 0 0 1 .359-1.5c-.023-.008-.03-.023-.03-.047 0-.05.03-.117.093-.203a.611.611 0 0 1 .219-.203.698.698 0 0 1 .312-.078c.156 0 .297.058.422.172a.55.55 0 0 1 .172.39.48.48 0 0 1-.031.172c-.024.055-.055.11-.094.172l-.266.266c-.312.312-.562.554-.75.718zm0 0"/></symbol><symbol overflow="visible" id="u"><path d="M.89-1.234v1.109h.579a.11.11 0 0 1 .062.016.084.084 0 0 1 .016.046c0 .024-.008.04-.016.047C1.52-.004 1.5 0 1.47 0H.422C.39 0 .367-.004.359-.016.348-.023.344-.039.344-.062c0-.02.004-.036.015-.047.008-.008.032-.016.063-.016H.75v-1.11H.469c-.043 0-.07-.003-.078-.015-.012-.008-.016-.023-.016-.047 0-.02.004-.035.016-.047.007-.02.035-.031.078-.031H.75v-.188a.39.39 0 0 1 .14-.296.493.493 0 0 1 .36-.125c.125 0 .254.011.39.03a1.4 1.4 0 0 1 .11.032.084.084 0 0 1 .016.047c0 .023-.012.04-.032.047-.011.012-.027.016-.046.016H1.64a3.352 3.352 0 0 0-.391-.032c-.125 0-.215.028-.266.078a.288.288 0 0 0-.093.204v.187h.61c.031 0 .055.012.078.031a.084.084 0 0 1 .016.047c0 .024-.008.04-.016.047a.165.165 0 0 1-.078.016zm0 0"/></symbol><symbol overflow="visible" id="v"><path d="M1.406-.625H.531l-.172.5h.25a.11.11 0 0 1 .063.016c.02.011.031.027.031.046 0 .024-.012.04-.031.047C.66-.004.64 0 .609 0h-.5C.08 0 .055-.004.047-.016.035-.023.03-.039.03-.062c0-.02.004-.036.016-.047.008-.008.031-.016.062-.016h.11l.578-1.594h-.39c-.032 0-.055-.004-.063-.015-.012-.008-.016-.024-.016-.047 0-.02.004-.035.016-.047.008-.008.031-.016.062-.016h.672l.656 1.719h.094a.11.11 0 0 1 .063.016c.02.011.03.027.03.046 0 .024-.01.04-.03.047-.012.012-.032.016-.063.016h-.484c-.043 0-.07-.004-.078-.016-.012-.007-.016-.023-.016-.046 0-.02.004-.036.016-.047.007-.008.035-.016.078-.016h.25zM1.36-.75l-.375-.969H.938l-.36.969zm0 0"/></symbol><symbol overflow="visible" id="w"><path d="M1.547 0h-.203L.969-1.313.594 0H.39L.203-1.719H.141c-.032 0-.055-.004-.063-.015-.012-.008-.015-.024-.015-.047 0-.02.003-.035.015-.047.008-.008.031-.016.063-.016h.5a.11.11 0 0 1 .062.016c.02.012.031.027.031.047 0 .023-.011.039-.03.047-.013.011-.032.015-.063.015H.328L.5-.156l.36-1.282h.203l.375 1.282.171-1.563h-.312c-.031 0-.055-.004-.063-.015-.023-.008-.03-.024-.03-.047 0-.02.007-.035.03-.047.008-.008.032-.016.063-.016h.484a.22.22 0 0 1 .078.016.084.084 0 0 1 .016.047.067.067 0 0 1-.016.047.165.165 0 0 1-.078.015h-.047zm0 0"/></symbol><symbol overflow="visible" id="x"><path d="M1.688-.688v.579a2.027 2.027 0 0 1-.297.125c-.106.02-.204.03-.297.03a1.022 1.022 0 0 1-.375-.061.674.674 0 0 1-.281-.171.734.734 0 0 1-.172-.25.86.86 0 0 1-.063-.36v-.25A.871.871 0 0 1 .61-1.78a.811.811 0 0 1 .407-.11.91.91 0 0 1 .546.172v-.093c0-.008.004-.02.016-.032h.047c.02 0 .035.008.047.016a.11.11 0 0 1 .016.062v.313c0 .031-.008.055-.016.062-.012.012-.027.016-.047.016-.023 0-.04-.004-.047-.016-.012-.007-.016-.03-.016-.062-.011-.094-.07-.164-.171-.219a.889.889 0 0 0-.36-.078.68.68 0 0 0-.328.078.717.717 0 0 0-.281.297.578.578 0 0 0-.094.328v.25c0 .219.067.39.203.516.133.136.32.203.563.203a.63.63 0 0 0 .218-.031.858.858 0 0 0 .25-.079v-.5h-.468c-.032 0-.055-.003-.063-.015-.011-.008-.015-.024-.015-.047 0-.02.004-.035.015-.047.008-.008.032-.015.063-.015h.64c.032 0 .055.007.079.015a.084.084 0 0 1 .015.047c0 .012-.008.023-.016.031l-.03.031h-.095zm0 0"/></symbol><symbol overflow="visible" id="y"><path d="M1.25-1.078a.643.643 0 0 1 .266.219c.07.105.109.203.109.296 0 .168-.07.31-.203.422a.66.66 0 0 1-.484.188.831.831 0 0 1-.344-.078.617.617 0 0 1-.266-.14.115.115 0 0 1-.016-.063c0-.008.004-.02.016-.032a.047.047 0 0 1 .047-.03c.008 0 .023.01.047.03a.839.839 0 0 0 .516.188c.156 0 .285-.05.39-.156.102-.094.156-.196.156-.313a.41.41 0 0 0-.078-.234.747.747 0 0 0-.218-.188.732.732 0 0 0-.282-.062c-.043 0-.07-.004-.078-.016-.012-.008-.015-.023-.015-.047 0-.02.003-.035.015-.047.008-.007.031-.015.063-.015H1a.398.398 0 0 0 .297-.11.35.35 0 0 0 .11-.25.379.379 0 0 0-.11-.265.503.503 0 0 0-.328-.11.692.692 0 0 0-.25.047.584.584 0 0 0-.188.125c-.011.024-.023.032-.031.032-.012.011-.023.015-.031.015-.024 0-.04-.004-.047-.016C.41-1.694.406-1.71.406-1.734c0-.04.047-.094.14-.157a.686.686 0 0 1 .423-.14c.164 0 .304.054.422.156a.473.473 0 0 1 .078.61.647.647 0 0 1-.219.187zm0 0"/></symbol><symbol overflow="visible" id="z"><path d="M1.578-1.156v.328c0 .293-.07.515-.203.672a.49.49 0 0 1-.406.203.538.538 0 0 1-.39-.172.752.752 0 0 1-.095-.172.822.822 0 0 1-.093-.219 1.186 1.186 0 0 1-.032-.312v-.328c0-.282.067-.504.204-.672a.49.49 0 0 1 .406-.203.48.48 0 0 1 .219.047.46.46 0 0 1 .171.125c.032.043.067.101.11.171.031.086.054.157.078.22.02.085.031.187.031.312zm-.125.015a.978.978 0 0 0-.062-.343 1.558 1.558 0 0 0-.11-.266 1.36 1.36 0 0 0-.11-.094.456.456 0 0 0-.202-.047c-.149 0-.262.075-.344.22a1.089 1.089 0 0 0-.125.53v.297c0 .125.016.242.047.344a.648.648 0 0 0 .219.36.347.347 0 0 0 .203.062c.144 0 .258-.078.344-.234a1.3 1.3 0 0 0 .14-.532zm0 0"/></symbol><symbol overflow="visible" id="A"><path d="M1.25-1.031a.678.678 0 0 1 .25.218.558.558 0 0 1-.094.688.62.62 0 0 1-.437.172.56.56 0 0 1-.422-.172.532.532 0 0 1-.188-.406c0-.102.032-.196.094-.281a.636.636 0 0 1 .25-.22.724.724 0 0 1-.219-.171.485.485 0 0 1 .078-.656.565.565 0 0 1 .813 0c.113.105.172.23.172.375a.444.444 0 0 1-.094.28.569.569 0 0 1-.203.173zm.156-.453a.417.417 0 0 0-.125-.297.475.475 0 0 0-.312-.11.427.427 0 0 0-.313.125.352.352 0 0 0-.125.282c0 .105.04.195.125.265a.412.412 0 0 0 .313.125.417.417 0 0 0 .312-.125.339.339 0 0 0 .125-.265zm.032.953a.417.417 0 0 0-.125-.297.472.472 0 0 0-.344-.14.414.414 0 0 0-.328.14.399.399 0 0 0 0 .61c.082.093.191.14.328.14.133 0 .25-.047.344-.14a.427.427 0 0 0 .125-.313zm0 0"/></symbol><symbol overflow="visible" id="B"><path d="M.36-1.375v.14c.113-.124.226-.187.343-.187.07 0 .133.024.188.063.05.03.093.086.125.156a.663.663 0 0 1 .187-.156c.05-.04.11-.063.172-.063a.452.452 0 0 1 .234.094.42.42 0 0 1 .11.266v.937h.11a.11.11 0 0 1 .062.016c.02.011.03.027.03.046 0 .024-.01.04-.03.047-.012.012-.032.016-.063.016h-.25v-1.047a.335.335 0 0 0-.047-.172.225.225 0 0 0-.156-.062.273.273 0 0 0-.14.047.723.723 0 0 0-.188.218v.891h.11a.11.11 0 0 1 .062.016c.02.011.031.027.031.046 0 .024-.012.04-.031.047-.012.012-.032.016-.063.016h-.25v-1.031a.318.318 0 0 0-.062-.188.21.21 0 0 0-.14-.062.273.273 0 0 0-.141.047.864.864 0 0 0-.204.218v.891h.125a.11.11 0 0 1 .063.016.084.084 0 0 1 .015.046c0 .024-.007.04-.015.047C.535-.004.516 0 .484 0H.125a.155.155 0 0 1-.078-.016C.035-.023.03-.039.03-.062c0-.02.004-.036.016-.047a.212.212 0 0 1 .078-.016h.11v-1.11h-.11a.155.155 0 0 1-.078-.015C.035-1.258.03-1.273.03-1.297c0-.02.004-.035.016-.047a.11.11 0 0 1 .078-.031zm0 0"/></symbol><symbol overflow="visible" id="C"><path d="M3.656-2.047c0 .375-.078.715-.234 1.016a1.8 1.8 0 0 1-1.235.968A4.441 4.441 0 0 1 1.36 0H.422v-4.094h.922c.383 0 .691.028.922.078.207.063.39.141.546.235.27.18.477.414.626.703.144.293.218.637.218 1.031zm-.578 0c0-.32-.055-.594-.156-.812a1.194 1.194 0 0 0-.469-.532A2.058 2.058 0 0 0 2-3.578a3.486 3.486 0 0 0-.625-.047H.969v3.156h.406c.238 0 .453-.02.64-.062a1.29 1.29 0 0 0 .5-.203c.188-.133.329-.305.422-.516a2.02 2.02 0 0 0 .141-.797zm0 0"/></symbol><symbol overflow="visible" id="D"><path d="M1.563.078c-.305 0-.56-.031-.766-.094A3.082 3.082 0 0 1 .219-.25v-.672H.25a1.9 1.9 0 0 0 .61.39c.226.095.445.141.656.141.3 0 .53-.066.687-.203a.56.56 0 0 0 .235-.484.64.64 0 0 0-.126-.406.716.716 0 0 0-.39-.22 4.737 4.737 0 0 0-.344-.093 4.868 4.868 0 0 1-.39-.094 1.717 1.717 0 0 1-.375-.14 1.038 1.038 0 0 1-.297-.235.681.681 0 0 1-.204-.312A1.294 1.294 0 0 1 .25-3c0-.332.125-.613.375-.844.258-.219.594-.328 1-.328.227 0 .445.024.656.063.196.054.383.12.563.203v.64h-.047a1.93 1.93 0 0 0-.5-.312 1.747 1.747 0 0 0-.64-.125c-.25 0-.454.058-.61.172a.577.577 0 0 0-.234.469c0 .18.046.32.14.421.082.106.211.18.39.22.114.03.255.07.423.108l.421.11c.282.086.489.215.626.39.124.18.187.391.187.641 0 .168-.031.328-.094.484a.95.95 0 0 1-.281.391 1.237 1.237 0 0 1-.438.281 1.8 1.8 0 0 1-.624.094zm0 0"/></symbol><symbol overflow="visible" id="E"><path d="M2.125.078c-.293 0-.559-.043-.797-.125a1.578 1.578 0 0 1-.61-.406 1.856 1.856 0 0 1-.405-.672 3.043 3.043 0 0 1-.126-.922c0-.332.047-.629.141-.89.082-.258.211-.485.39-.672.165-.176.368-.317.61-.422a2.494 2.494 0 0 1 1.203-.11c.125.024.242.047.36.079.093.03.195.07.312.109.113.055.207.094.281.125v.656h-.046a2.22 2.22 0 0 1-.22-.172 2.536 2.536 0 0 0-.688-.313 2.175 2.175 0 0 0-.452-.046c-.398 0-.719.148-.969.437-.242.305-.359.7-.359 1.188 0 .281.031.527.094.734.062.211.156.383.281.516.113.148.254.258.422.328.164.074.351.11.562.11.157 0 .305-.008.454-.032.156-.02.285-.05.39-.094v-1.062h-.937v-.484H3.5v1.796c-.074.032-.168.07-.281.11a1.69 1.69 0 0 1-.328.11c-.137.042-.258.07-.36.093-.117.02-.25.031-.406.031zm0 0"/></symbol><symbol overflow="visible" id="F"><path d="M3.203-1.266c0 .211-.043.391-.125.547a1.05 1.05 0 0 1-.312.39c-.149.118-.309.2-.485.25-.18.056-.406.079-.687.079H.422v-4.094H1.5c.29 0 .508.008.656.016.145.023.285.07.422.14a.904.904 0 0 1 .328.313A1 1 0 0 1 3-3.172a.99.99 0 0 1-.14.516.997.997 0 0 1-.438.36v.015c.25.074.441.195.578.36.133.179.203.398.203.655zm-.765-1.828a.687.687 0 0 0-.047-.265.389.389 0 0 0-.157-.172.823.823 0 0 0-.296-.094 6.61 6.61 0 0 0-.454-.016H.97v1.204h.61c.175 0 .3-.008.374-.032a.565.565 0 0 0 .438-.312.893.893 0 0 0 .046-.313zm.187 1.86a1.12 1.12 0 0 0-.063-.391c-.042-.094-.132-.176-.265-.25-.086-.04-.18-.07-.281-.094a5.837 5.837 0 0 0-.438-.015h-.61V-.47h.438c.239 0 .426-.008.563-.031a.827.827 0 0 0 .593-.39.806.806 0 0 0 .063-.344zm0 0"/></symbol><symbol overflow="visible" id="G"><path d="M2.875-3.61H.969v1.157h1.828v.484H.969V0H.422v-4.094h2.453zm0 0"/></symbol><symbol overflow="visible" id="H"><path d="M2.828 0H.297v-.578c.176-.164.348-.332.516-.5a7.82 7.82 0 0 0 .468-.484c.313-.344.524-.618.64-.829.114-.207.173-.421.173-.64a.861.861 0 0 0-.047-.297.89.89 0 0 0-.156-.219.799.799 0 0 0-.22-.125 1.265 1.265 0 0 0-.562 0 9.15 9.15 0 0 0-.296.094 2.284 2.284 0 0 0-.391.219H.39v-.579c.101-.062.257-.117.468-.171a2.31 2.31 0 0 1 .579-.079c.382 0 .68.102.89.297.219.211.328.485.328.829 0 .167-.015.32-.047.453a2.038 2.038 0 0 1-.156.375 5.518 5.518 0 0 1-.25.359 8.59 8.59 0 0 1-.297.344A23.384 23.384 0 0 1 .812-.468h2.016zm0 0"/></symbol><symbol overflow="visible" id="I"><path d="M2.938-1.406h-.485V0h-.531v-1.406H.109v-.578l1.829-2.11h.515v2.25h.485zm-1.016-.438v-1.61L.547-1.843zm0 0"/></symbol><symbol overflow="visible" id="J"><path d="M2.781-1.313c0 .211-.031.399-.094.563A1.25 1.25 0 0 1 2-.016a1.72 1.72 0 0 1-.577.094c-.2 0-.39-.023-.578-.062a1.7 1.7 0 0 1-.5-.172v-.578h.031c.04.03.102.07.188.109.07.043.16.078.265.11.102.042.203.074.297.093.082.024.18.031.297.031a.86.86 0 0 0 .328-.062.662.662 0 0 0 .266-.188.766.766 0 0 0 .156-.28c.031-.102.047-.235.047-.391 0-.145-.016-.266-.047-.36A.573.573 0 0 0 2-1.89a.802.802 0 0 0-.297-.156 1.508 1.508 0 0 0-.39-.047c-.149 0-.293.016-.438.047a4.888 4.888 0 0 0-.36.063v-2.11h2.25v.469H1.048v1.094c.062-.008.125-.016.187-.016h.172c.207 0 .383.016.532.047.144.043.285.11.421.203.133.106.239.235.313.39.07.157.11.356.11.595zm0 0"/></symbol><symbol overflow="visible" id="aa"><path d="M3.828 1c-.105.031-.21.05-.312.063-.118.007-.227.015-.329.015-.312 0-.562-.086-.75-.25-.199-.18-.304-.43-.312-.75H2c-.281 0-.531-.047-.75-.14A1.494 1.494 0 0 1 .672-.47a1.944 1.944 0 0 1-.36-.672 2.474 2.474 0 0 1-.124-.906c0-.344.039-.644.124-.906a1.98 1.98 0 0 1 .36-.672 1.45 1.45 0 0 1 .578-.422c.219-.094.469-.14.75-.14.27 0 .52.046.75.14.219.106.406.246.563.422.156.18.273.402.359.672.094.262.14.562.14.906 0 .531-.105.969-.312 1.313-.21.343-.496.578-.86.703.008.101.032.195.063.281.02.082.05.145.094.188a.38.38 0 0 0 .187.124.816.816 0 0 0 .547 0A1.35 1.35 0 0 0 3.75.5h.078zm-.594-3.047c0-.27-.027-.508-.078-.719a1.913 1.913 0 0 0-.25-.53 1.339 1.339 0 0 0-.39-.313A1.244 1.244 0 0 0 2-3.72c-.2 0-.371.04-.516.11a.977.977 0 0 0-.406.312 1.537 1.537 0 0 0-.234.531c-.063.211-.094.45-.094.72 0 .542.113.952.344 1.233.218.282.52.422.906.422.375 0 .676-.14.906-.421.219-.282.328-.692.328-1.235zm0 0"/></symbol><symbol overflow="visible" id="ab"><path d="M2.625 0h-2v-.422h.734v-2.75H.625v-.375c.281 0 .488-.035.625-.11.125-.081.195-.234.219-.452h.422v3.687h.734zm0 0"/></symbol><symbol overflow="visible" id="K"><path d="M2.031-1.453c0 .523-.078.902-.234 1.14-.149.25-.383.376-.703.376C.77.063.535-.064.39-.314.234-.563.156-.94.156-1.452c0-.531.078-.914.235-1.156.156-.25.39-.375.703-.375.32 0 .554.132.703.39.156.25.234.633.234 1.14zm-.5.875a2.32 2.32 0 0 0 .078-.36 9.314 9.314 0 0 0 0-1.046 2.427 2.427 0 0 0-.078-.36.573.573 0 0 0-.172-.234.414.414 0 0 0-.265-.078.446.446 0 0 0-.266.078.512.512 0 0 0-.172.234 1.997 1.997 0 0 0-.078.375 6.995 6.995 0 0 0-.015.516c0 .2.003.371.015.516.008.136.035.257.078.359.04.105.098.183.172.234.063.055.149.078.266.078a.436.436 0 0 0 .265-.078.525.525 0 0 0 .172-.234zm0 0"/></symbol><symbol overflow="visible" id="L"><path d="M.844 0H.375v-.563h.469zm0 0"/></symbol><symbol overflow="visible" id="M"><path d="M2.016 0H.219v-.406l.36-.36c.112-.101.226-.218.343-.343.219-.25.367-.446.453-.594.07-.145.113-.297.125-.453a.487.487 0 0 0-.047-.219.602.602 0 0 0-.11-.156.629.629 0 0 0-.344-.11.822.822 0 0 0-.218.032.685.685 0 0 0-.203.062 1.166 1.166 0 0 0-.156.078c-.055.031-.094.059-.125.078H.28v-.406c.07-.039.18-.082.328-.125.145-.039.286-.062.422-.062.258 0 .469.074.625.218.157.149.235.344.235.594 0 .117-.012.219-.032.313a2.19 2.19 0 0 1-.109.265 2.195 2.195 0 0 1-.188.25 4.057 4.057 0 0 1-.203.25 7.154 7.154 0 0 1-.421.422 7.96 7.96 0 0 1-.36.344h1.438zm0 0"/></symbol><symbol overflow="visible" id="N"><path d="M1.969 0h-.36v-.25a1.526 1.526 0 0 1-.328.234.78.78 0 0 1-.61.032.505.505 0 0 1-.218-.157.685.685 0 0 1-.156-.25A1.29 1.29 0 0 1 .25-.766v-1.421h.375v1.25c0 .117.004.21.016.28 0 .087.015.153.046.204.032.062.07.105.125.125a.78.78 0 0 0 .516-.031 1.41 1.41 0 0 0 .281-.204v-1.625h.36zm0 0"/></symbol><symbol overflow="visible" id="O"><path d="M2.422 0h-.39v-1.422H.686V0h-.39v-2.922h.39v1.14H2.03v-1.14h.39zm0 0"/></symbol><symbol overflow="visible" id="P"><path d="M1.86 0H.436v-.297H.97V-2.25H.438v-.266c.195 0 .347-.03.453-.093.093-.051.144-.157.156-.313h.297v2.625h.515zm0 0"/></symbol><symbol overflow="visible" id="Q"><path d="M1.984-.922c0 .137-.023.266-.062.39a1.304 1.304 0 0 1-.203.313.757.757 0 0 1-.297.203 1.072 1.072 0 0 1-.406.079C.867.063.726.046.594.015A1.216 1.216 0 0 1 .25-.11v-.407h.016c.03.024.078.047.14.079.051.023.114.046.188.078.07.023.14.043.203.062.062.012.133.016.219.016.07 0 .148-.016.234-.047a.389.389 0 0 0 .188-.125.604.604 0 0 0 .109-.203c.02-.07.031-.164.031-.281a.868.868 0 0 0-.031-.25.491.491 0 0 0-.125-.157.644.644 0 0 0-.203-.11 1.265 1.265 0 0 0-.282-.03 4 4 0 0 0-.312.015c-.117.024-.203.04-.266.047v-1.5h1.61v.344H.734v.781c.051-.008.098-.016.141-.016H1c.156 0 .285.012.39.032.094.031.192.078.298.14a.782.782 0 0 1 .218.282c.051.117.078.261.078.437zm0 0"/></symbol><symbol overflow="visible" id="R"><path d="M2.11-1.156c0 .367-.09.656-.266.875-.18.219-.399.328-.657.328A.83.83 0 0 1 .891 0a.74.74 0 0 1-.25-.11v.922H.266v-3H.64v.235c.082-.082.18-.156.296-.219a.907.907 0 0 1 .375-.078.67.67 0 0 1 .579.297c.144.2.218.465.218.797zm-.391.047c0-.25-.04-.442-.11-.579a.425.425 0 0 0-.39-.218 1.238 1.238 0 0 0-.313.078 1.143 1.143 0 0 0-.265.172v1.25c.093.043.175.074.25.094a.69.69 0 0 0 .234.03c.188 0 .332-.07.438-.218.101-.133.156-.336.156-.61zm0 0"/></symbol><symbol overflow="visible" id="S"><path d="M1.984 0h-.359v-1.25c0-.094-.008-.188-.016-.281a.566.566 0 0 0-.062-.203.382.382 0 0 0-.125-.125 1.042 1.042 0 0 0-.219-.047.589.589 0 0 0-.281.078c-.106.055-.2.117-.281.187V0H.266v-2.188H.64v.235a1.42 1.42 0 0 1 .312-.219.831.831 0 0 1 .344-.078c.219 0 .39.07.516.203.113.149.171.356.171.625zm0 0"/></symbol><symbol overflow="visible" id="T"><path d="M2.078 0h-.484L.78-1.063l-.14.141V0H.266v-3.047H.64v1.781l.859-.921h.453l-.89.906zm0 0"/></symbol><symbol overflow="visible" id="U"><path d="M1.516.063c-.211 0-.399-.032-.563-.094a.962.962 0 0 1-.437-.297 1.177 1.177 0 0 1-.282-.469 1.894 1.894 0 0 1-.109-.672c0-.226.035-.437.11-.625a1.33 1.33 0 0 1 .28-.484c.114-.125.258-.223.438-.297.176-.063.363-.094.563-.094.101 0 .195.008.28.016.095.023.18.043.266.062.063.024.133.047.22.079a.829.829 0 0 1 .187.093v.469h-.031a3.862 3.862 0 0 0-.141-.125 1.311 1.311 0 0 0-.219-.125c-.086-.04-.18-.07-.281-.094a1.039 1.039 0 0 0-.328-.047.798.798 0 0 0-.672.329c-.18.21-.266.492-.266.843 0 .188.024.36.078.516a.83.83 0 0 0 .188.36.745.745 0 0 0 .312.234.884.884 0 0 0 .391.078c.113 0 .223-.004.328-.016.102-.02.195-.047.281-.078v-.75h-.687v-.344h1.062v1.282c-.054.023-.117.046-.187.078-.094.03-.172.058-.235.078-.105.031-.195.05-.265.062-.074.02-.168.032-.281.032zm0 0"/></symbol><symbol overflow="visible" id="V"><path d="M2.39 0h-.437L.656-2.516V0h-.36v-2.922h.548L2.016-.609v-2.313h.375zm0 0"/></symbol><symbol overflow="visible" id="W"><path d="M2.594-1.453c0 .262-.055.5-.156.719-.106.218-.25.386-.438.5a1.33 1.33 0 0 1-.453.187A2.89 2.89 0 0 1 .969 0H.297v-2.922h.656c.281 0 .5.024.656.063.157.043.286.101.391.171.188.126.332.293.438.5.101.211.156.454.156.735zm-.406-.016c0-.218-.04-.41-.11-.578a.813.813 0 0 0-.328-.36 1.342 1.342 0 0 0-.328-.14 1.832 1.832 0 0 0-.438-.047H.688v2.266h.296c.164 0 .317-.016.454-.047a1.016 1.016 0 0 0 .656-.516c.062-.156.094-.347.094-.578zm0 0"/></symbol><symbol overflow="visible" id="X"><path d="M1-2.64a.671.671 0 0 0-.203.03.873.873 0 0 0-.219.063.582.582 0 0 0-.156.078c-.055.031-.094.059-.125.078H.266v-.406a2.29 2.29 0 0 1 .359-.125c.133-.039.27-.062.406-.062.133 0 .25.015.344.046a.62.62 0 0 1 .266.126c.093.062.16.136.203.218.039.094.062.2.062.313a.612.612 0 0 1-.156.422.669.669 0 0 1-.375.234v.031a.919.919 0 0 1 .39.188c.051.062.098.136.141.218a.78.78 0 0 1 .063.329.875.875 0 0 1-.079.359.803.803 0 0 1-.188.297.745.745 0 0 1-.312.187c-.118.051-.25.079-.407.079C.836.063.691.046.547.015a1.814 1.814 0 0 1-.36-.141v-.406H.22c.08.062.19.121.327.172a1.094 1.094 0 0 0 .656.046.559.559 0 0 0 .203-.124c.051-.063.094-.126.125-.188.02-.07.032-.16.032-.266a.687.687 0 0 0-.047-.265.491.491 0 0 0-.125-.157.446.446 0 0 0-.188-.078 1.123 1.123 0 0 0-.25-.03H.781v-.329h.14c.165 0 .306-.04.423-.125a.419.419 0 0 0 .172-.36.371.371 0 0 0-.047-.187.493.493 0 0 0-.11-.125 1.15 1.15 0 0 0-.171-.078A1.296 1.296 0 0 0 1-2.641zm0 0"/></symbol><symbol overflow="visible" id="Y"><path d="M2.094-1H1.75v1h-.375v-1H.078v-.422l1.313-1.5h.359v1.61h.344zm-.719-.313v-1.14l-.984 1.14zm0 0"/></symbol><symbol overflow="visible" id="Z"><path d="M2.047-2.484L.78 0H.36l1.344-2.578H.187v-.344h1.86zm0 0"/></symbol><symbol overflow="visible" id="ac"><path d="M1.984 0H.297v-2.922h.39v2.578h1.297zm0 0"/></symbol><symbol overflow="visible" id="ad"><path d="M1.438.047a1.212 1.212 0 0 1-.532-.094A1.087 1.087 0 0 1 .5-.328a1.388 1.388 0 0 1-.281-.469 2.147 2.147 0 0 1-.094-.656c0-.25.031-.461.094-.64C.28-2.27.375-2.43.5-2.579a1.28 1.28 0 0 1 .406-.297c.156-.063.332-.094.531-.094.102 0 .196.008.282.016.082.023.16.043.234.062.063.024.129.043.203.063.063.031.125.07.188.11v.468h-.031c-.032-.031-.075-.07-.126-.125-.062-.04-.132-.082-.203-.125a2.15 2.15 0 0 0-.234-.11 1.54 1.54 0 0 0-.313-.03.767.767 0 0 0-.343.078.876.876 0 0 0-.297.218.997.997 0 0 0-.188.375 1.552 1.552 0 0 0-.078.516c0 .2.024.371.078.516a.83.83 0 0 0 .188.359c.082.105.18.18.297.219a.718.718 0 0 0 .343.078.99.99 0 0 0 .313-.047A.83.83 0 0 0 2-.422a1.42 1.42 0 0 0 .313-.234h.03v.453a2.274 2.274 0 0 0-.171.094 1.023 1.023 0 0 1-.219.078C1.867 0 1.79.019 1.72.03a2.627 2.627 0 0 1-.282.016zm0 0"/></symbol><symbol overflow="visible" id="ae"><path d="M2.563 0h-.516l-.922-1.156H.687V0h-.39v-2.922h.75c.164 0 .305.012.422.031.113.024.222.063.328.125a.8.8 0 0 1 .234.25.751.751 0 0 1 .094.391.797.797 0 0 1-.172.531.913.913 0 0 1-.437.328zm-.844-2.094a.598.598 0 0 0-.047-.234.412.412 0 0 0-.14-.156.446.446 0 0 0-.188-.079c-.074-.007-.168-.019-.282-.03H.688v1.109h.344c.102 0 .203-.008.297-.032a.459.459 0 0 0 .219-.125.38.38 0 0 0 .125-.187.66.66 0 0 0 .047-.266zm0 0"/></symbol><symbol overflow="visible" id="ai"><path d="M2.063-.953c0 .156-.028.297-.079.422a.974.974 0 0 1-.203.312.723.723 0 0 1-.297.203.78.78 0 0 1-.343.079A1.04 1.04 0 0 1 .78 0a.891.891 0 0 1-.297-.203A1.194 1.194 0 0 1 .25-.625a2.253 2.253 0 0 1-.078-.656c0-.25.023-.477.078-.688.05-.207.129-.383.234-.531.102-.145.239-.258.407-.344.164-.082.359-.125.578-.125h.187c.063.012.114.024.157.031v.376h-.016a.676.676 0 0 0-.156-.047.87.87 0 0 0-.22-.032.784.784 0 0 0-.593.25c-.148.168-.234.414-.265.735a1.58 1.58 0 0 1 .296-.157.973.973 0 0 1 .313-.046c.113 0 .21.011.297.03a.792.792 0 0 1 .515.438c.051.125.079.274.079.438zm-.407.015a.861.861 0 0 0-.047-.296.5.5 0 0 0-.14-.204.735.735 0 0 0-.172-.093c-.074-.008-.14-.016-.203-.016a.745.745 0 0 0-.266.047 1.272 1.272 0 0 0-.265.125v.172c0 .21.019.375.062.5.04.125.086.219.14.281.051.063.11.106.172.125a.326.326 0 0 0 .204.031c.156 0 .28-.05.375-.156.093-.113.14-.285.14-.516zm0 0"/></symbol><symbol overflow="visible" id="aj"><path d="M-.016 0L.97-2.922h.469L2.421 0h-.406L1.75-.813H.64L.376 0zm1.657-1.14l-.454-1.391-.437 1.39zm0 0"/></symbol><symbol overflow="visible" id="ak"><path d="M2.36-2.578c.113.125.203.281.265.469.05.187.082.406.094.656 0 .23-.031.445-.094.64a1.302 1.302 0 0 1-.266.47 1.146 1.146 0 0 1-.421.312 1.376 1.376 0 0 1-.516.093c-.2 0-.375-.039-.531-.109a.87.87 0 0 1-.407-.297A1.247 1.247 0 0 1 .22-.813a2.01 2.01 0 0 1-.094-.64c0-.25.031-.469.094-.656.062-.188.148-.344.265-.47a.897.897 0 0 1 .407-.296c.156-.07.332-.11.53-.11.196 0 .376.04.532.11.156.074.29.172.406.297zm-.047 1.125c0-.195-.024-.367-.063-.516a1.015 1.015 0 0 0-.453-.61 1.18 1.18 0 0 0-.75 0 .885.885 0 0 0-.281.235c-.075.106-.133.23-.172.375a1.943 1.943 0 0 0-.063.516c0 .387.082.68.25.875.156.2.367.297.64.297a.77.77 0 0 0 .641-.297c.165-.195.25-.488.25-.875zm0 0"/></symbol><symbol overflow="visible" id="al"><path d="M1.313.063a1.27 1.27 0 0 1-.454-.079.722.722 0 0 1-.312-.187.79.79 0 0 1-.219-.375 1.719 1.719 0 0 1-.062-.516v-1.828h.39v1.828a.947.947 0 0 0 .016.328c.02.094.055.18.11.25.05.086.116.149.202.188a.78.78 0 0 0 .329.062.78.78 0 0 0 .328-.062.465.465 0 0 0 .218-.188.513.513 0 0 0 .094-.234c.02-.094.031-.207.031-.344v-1.828h.391v1.828c0 .2-.023.371-.063.516a.86.86 0 0 1-.218.375A1.08 1.08 0 0 1 1.766 0c-.125.04-.278.063-.454.063zm0 0"/></symbol><symbol overflow="visible" id="am"><path d="M.984 0v-2.578H0v-.344h2.344v.344h-.985V0zm0 0"/></symbol><symbol overflow="visible" id="an"><path d="M2.61-1.125h-.985v1h-.328v-1H.313v-.313h.984v-.984h.328v.985h.984zm0 0"/></symbol><symbol overflow="visible" id="aq"><path d="M1.281-1.094H.171v-.36h1.11zm0 0"/></symbol><symbol overflow="visible" id="af"><path d="M-.016 0l.797-2.344h.375L1.953 0h-.328l-.219-.656h-.89L.296 0zm1.344-.922l-.36-1.11-.374 1.11zm0 0"/></symbol><symbol overflow="visible" id="ag"><path d="M1.922 0h-.36L.532-2.031V0H.233v-2.344h.454l.937 1.86v-1.86h.297zm0 0"/></symbol><symbol overflow="visible" id="ah"><path d="M.781 0v-2.078H0v-.266h1.89v.266h-.796V0zm0 0"/></symbol><symbol overflow="visible" id="ao"><path d="M-1.719-1.625c-.195 0-.36.016-.484.047a.918.918 0 0 0-.297.156.421.421 0 0 0-.125.172.629.629 0 0 0-.031.188c0 .167.058.296.172.39.117.094.28.14.5.14a.76.76 0 0 0 .296-.046.505.505 0 0 0 .22-.156.25.25 0 0 0 .077-.157 1.004 1.004 0 0 0-.031-.484.627.627 0 0 0-.11-.25h-.187zm-.25 1.5a.943.943 0 0 1-.406-.078 1.08 1.08 0 0 1-.328-.203 1.024 1.024 0 0 1-.203-.297.875.875 0 0 1 0-.719.713.713 0 0 1 .187-.281 1.21 1.21 0 0 1 .422-.234 2.01 2.01 0 0 1 .656-.094c.25 0 .48.031.688.094.219.054.402.132.547.234.148.117.261.25.344.406a1.24 1.24 0 0 1 .109.75.358.358 0 0 1-.031.156H-.36v-.015a.321.321 0 0 0 .046-.156.569.569 0 0 0 .032-.204c0-.257-.082-.46-.25-.609-.164-.145-.406-.227-.719-.25.063.105.11.203.14.297.044.105.063.21.063.312a.83.83 0 0 1-.047.297.663.663 0 0 1-.125.266.745.745 0 0 1-.312.234.963.963 0 0 1-.438.094zm0 0"/></symbol><symbol overflow="visible" id="ap"><path d="M-2.922-2.406l2.922 1v.422l-2.922 1v-.422L-.5-1.203l-2.422-.813zm0 0"/></symbol></defs><use xlink:href="#a" x="424.14" y="352.137" fill="#505050"/><use xlink:href="#b" x="426.06" y="352.137" fill="#505050"/><use xlink:href="#c" x="427.98" y="352.137" fill="#505050"/><use xlink:href="#c" x="429.9" y="352.137" fill="#505050"/><use xlink:href="#c" x="431.82" y="352.137" fill="#505050"/><use xlink:href="#d" x="433.74" y="352.137" fill="#505050"/><use xlink:href="#c" x="435.66" y="352.137" fill="#505050"/><use xlink:href="#e" x="437.58" y="352.137" fill="#505050"/><use xlink:href="#f" x="439.5" y="352.137" fill="#505050"/><use xlink:href="#g" x="441.42" y="352.137" fill="#505050"/><use xlink:href="#h" x="443.34" y="352.137" fill="#505050"/><use xlink:href="#i" x="445.26" y="352.137" fill="#505050"/><use xlink:href="#c" x="447.18" y="352.137" fill="#505050"/><use xlink:href="#j" x="449.1" y="352.137" fill="#505050"/><use xlink:href="#g" x="451.02" y="352.137" fill="#505050"/><use xlink:href="#k" x="452.94" y="352.137" fill="#505050"/><use xlink:href="#f" x="454.86" y="352.137" fill="#505050"/><use xlink:href="#h" x="456.78" y="352.137" fill="#505050"/><use xlink:href="#l" x="458.7" y="352.137" fill="#505050"/><use xlink:href="#c" x="460.62" y="352.137" fill="#505050"/><use xlink:href="#m" x="462.54" y="352.137" fill="#505050"/><use xlink:href="#n" x="464.46" y="352.137" fill="#505050"/><use xlink:href="#b" x="466.38" y="352.137" fill="#505050"/><use xlink:href="#o" x="468.3" y="352.137" fill="#505050"/><use xlink:href="#c" x="470.22" y="352.137" fill="#505050"/><use xlink:href="#p" x="472.14" y="352.137" fill="#505050"/><use xlink:href="#k" x="474.06" y="352.137" fill="#505050"/><use xlink:href="#q" x="475.98" y="352.137" fill="#505050"/><use xlink:href="#e" x="477.9" y="352.137" fill="#505050"/><use xlink:href="#r" x="479.82" y="352.137" fill="#505050"/><use xlink:href="#c" x="481.74" y="352.137" fill="#505050"/><use xlink:href="#e" x="483.66" y="352.137" fill="#505050"/><use xlink:href="#j" x="485.58" y="352.137" fill="#505050"/><use xlink:href="#s" x="487.5" y="352.137" fill="#505050"/><use xlink:href="#c" x="489.42" y="352.137" fill="#505050"/><use xlink:href="#j" x="491.34" y="352.137" fill="#505050"/><use xlink:href="#e" x="493.26" y="352.137" fill="#505050"/><use xlink:href="#c" x="495.18" y="352.137" fill="#505050"/><use xlink:href="#t" x="497.1" y="352.137" fill="#505050"/><use xlink:href="#h" x="499.02" y="352.137" fill="#505050"/><use xlink:href="#l" x="500.94" y="352.137" fill="#505050"/><use xlink:href="#c" x="502.86" y="352.137" fill="#505050"/><use xlink:href="#e" x="504.78" y="352.137" fill="#505050"/><use xlink:href="#f" x="506.7" y="352.137" fill="#505050"/><use xlink:href="#g" x="508.62" y="352.137" fill="#505050"/><use xlink:href="#h" x="510.54" y="352.137" fill="#505050"/><use xlink:href="#a" x="424.14" y="357.891" fill="#505050"/><use xlink:href="#t" x="426.06" y="357.891" fill="#505050"/><use xlink:href="#c" x="427.98" y="357.891" fill="#505050"/><use xlink:href="#c" x="429.9" y="357.891" fill="#505050"/><use xlink:href="#c" x="431.82" y="357.891" fill="#505050"/><use xlink:href="#t" x="433.74" y="357.891" fill="#505050"/><use xlink:href="#o" x="435.66" y="357.891" fill="#505050"/><use xlink:href="#c" x="437.58" y="357.891" fill="#505050"/><use xlink:href="#e" x="439.5" y="357.891" fill="#505050"/><use xlink:href="#f" x="441.42" y="357.891" fill="#505050"/><use xlink:href="#g" x="443.34" y="357.891" fill="#505050"/><use xlink:href="#h" x="445.26" y="357.891" fill="#505050"/><use xlink:href="#i" x="447.18" y="357.891" fill="#505050"/><use xlink:href="#c" x="449.1" y="357.891" fill="#505050"/><use xlink:href="#k" x="451.02" y="357.891" fill="#505050"/><use xlink:href="#u" x="452.94" y="357.891" fill="#505050"/><use xlink:href="#c" x="454.86" y="357.891" fill="#505050"/><use xlink:href="#v" x="456.78" y="357.891" fill="#505050"/><use xlink:href="#w" x="458.7" y="357.891" fill="#505050"/><use xlink:href="#x" x="460.62" y="357.891" fill="#505050"/><use xlink:href="#c" x="462.54" y="357.891" fill="#505050"/><use xlink:href="#y" x="464.46" y="357.891" fill="#505050"/><use xlink:href="#z" x="466.38" y="357.891" fill="#505050"/><use xlink:href="#c" x="468.3" y="357.891" fill="#505050"/><use xlink:href="#j" x="470.22" y="357.891" fill="#505050"/><use xlink:href="#g" x="472.14" y="357.891" fill="#505050"/><use xlink:href="#k" x="474.06" y="357.891" fill="#505050"/><use xlink:href="#f" x="475.98" y="357.891" fill="#505050"/><use xlink:href="#h" x="477.9" y="357.891" fill="#505050"/><use xlink:href="#l" x="479.82" y="357.891" fill="#505050"/><use xlink:href="#c" x="481.74" y="357.891" fill="#505050"/><use xlink:href="#A" x="483.66" y="357.891" fill="#505050"/><use xlink:href="#B" x="485.58" y="357.891" fill="#505050"/><use xlink:href="#B" x="487.5" y="357.891" fill="#505050"/><use xlink:href="#c" x="489.42" y="357.891" fill="#505050"/><use xlink:href="#u" x="491.34" y="357.891" fill="#505050"/><use xlink:href="#k" x="493.26" y="357.891" fill="#505050"/><use xlink:href="#g" x="495.18" y="357.891" fill="#505050"/><use xlink:href="#B" x="497.1" y="357.891" fill="#505050"/><use xlink:href="#C" x="410.705" y="270.449" fill="#505050"/><use xlink:href="#D" x="434.094" y="271.024" fill="#505050"/><use xlink:href="#E" x="417.481" y="281.956" fill="#505050"/><use xlink:href="#F" x="429.897" y="284.833" fill="#505050"/><use xlink:href="#G" x="433.197" y="284.833" fill="#505050"/><use xlink:href="#H" x="436.137" y="284.833" fill="#505050"/><use xlink:href="#I" x="439.197" y="284.833" fill="#505050"/><use xlink:href="#J" x="442.257" y="284.833" fill="#505050"/><use xlink:href="#F" x="445.317" y="284.833" fill="#505050"/><use xlink:href="#K" x="377.479" y="272.185" fill="#505050"/><use xlink:href="#L" x="379.699" y="272.185" fill="#505050"/><use xlink:href="#M" x="380.899" y="272.185" fill="#505050"/><use xlink:href="#M" x="383.119" y="272.185" fill="#505050"/><use xlink:href="#N" x="385.339" y="272.185" fill="#505050"/><use xlink:href="#O" x="387.559" y="272.185" fill="#505050"/><use xlink:href="#K" x="377.479" y="272.185" fill="#505050"/><use xlink:href="#L" x="379.699" y="272.185" fill="#505050"/><use xlink:href="#M" x="380.899" y="272.185" fill="#505050"/><use xlink:href="#M" x="383.119" y="272.185" fill="#505050"/><use xlink:href="#N" x="385.339" y="272.185" fill="#505050"/><use xlink:href="#O" x="387.559" y="272.185" fill="#505050"/><use xlink:href="#P" x="393.011" y="280.813" fill="#505050"/><use xlink:href="#Q" x="395.231" y="280.813" fill="#505050"/><use xlink:href="#R" x="397.452" y="280.813" fill="#505050"/><use xlink:href="#P" x="339.674" y="293.186" fill="#505050"/><use xlink:href="#S" x="341.894" y="293.186" fill="#505050"/><use xlink:href="#P" x="322.067" y="254.921" fill="#505050"/><use xlink:href="#T" x="324.286" y="254.921" fill="#505050"/><use xlink:href="#U" x="328.004" y="327.996" fill="#505050"/><use xlink:href="#V" x="330.704" y="327.996" fill="#505050"/><use xlink:href="#W" x="333.404" y="327.996" fill="#505050"/><use xlink:href="#U" x="420.12" y="327.996" fill="#505050"/><use xlink:href="#V" x="422.82" y="327.996" fill="#505050"/><use xlink:href="#W" x="425.52" y="327.996" fill="#505050"/><use xlink:href="#X" x="459.161" y="272.185" fill="#505050"/><use xlink:href="#L" x="461.381" y="272.185" fill="#505050"/><use xlink:href="#X" x="462.581" y="272.185" fill="#505050"/><use xlink:href="#N" x="464.801" y="272.185" fill="#505050"/><use xlink:href="#O" x="467.021" y="272.185" fill="#505050"/><use xlink:href="#Y" x="430.473" y="240.537" fill="#505050"/><use xlink:href="#Z" x="432.693" y="240.537" fill="#505050"/><use xlink:href="#R" x="434.913" y="240.537" fill="#505050"/><use xlink:href="#P" x="477.02" y="293.187" fill="#505050"/><use xlink:href="#K" x="479.24" y="293.187" fill="#505050"/><use xlink:href="#T" x="481.46" y="293.187" fill="#505050"/><use xlink:href="#Y" x="504.166" y="293.187" fill="#505050"/><use xlink:href="#L" x="506.386" y="293.187" fill="#505050"/><use xlink:href="#Z" x="507.586" y="293.187" fill="#505050"/><use xlink:href="#S" x="509.806" y="293.187" fill="#505050"/><use xlink:href="#P" x="506.059" y="272.185" fill="#505050"/><use xlink:href="#K" x="508.279" y="272.185" fill="#505050"/><use xlink:href="#K" x="510.499" y="272.185" fill="#505050"/><use xlink:href="#S" x="512.719" y="272.185" fill="#505050"/><use xlink:href="#U" x="494.964" y="327.996" fill="#505050"/><use xlink:href="#V" x="497.664" y="327.996" fill="#505050"/><use xlink:href="#W" x="500.364" y="327.996" fill="#505050"/><use xlink:href="#U" x="523.751" y="327.996" fill="#505050"/><use xlink:href="#V" x="526.451" y="327.996" fill="#505050"/><use xlink:href="#W" x="529.151" y="327.996" fill="#505050"/><use xlink:href="#U" x="304.914" y="327.996" fill="#505050"/><use xlink:href="#V" x="307.614" y="327.996" fill="#505050"/><use xlink:href="#W" x="310.314" y="327.996" fill="#505050"/><use xlink:href="#aa" x="429.896" y="279.079" fill="#505050"/><use xlink:href="#ab" x="433.917" y="279.079" fill="#505050"/><use xlink:href="#ac" x="381.738" y="257.798" fill="#505050"/><use xlink:href="#P" x="383.718" y="257.798" fill="#505050"/><use xlink:href="#ac" x="381.738" y="257.798" fill="#505050"/><use xlink:href="#P" x="383.718" y="257.798" fill="#505050"/><use xlink:href="#ad" x="395.051" y="295.2" fill="#505050"/><use xlink:href="#X" x="397.451" y="295.2" fill="#505050"/><use xlink:href="#ad" x="339.493" y="282.827" fill="#505050"/><use xlink:href="#P" x="341.893" y="282.827" fill="#505050"/><use xlink:href="#ae" x="321.526" y="275.062" fill="#505050"/><use xlink:href="#P" x="324.046" y="275.062" fill="#505050"/><use xlink:href="#af" x="369.324" y="239.387" fill="#505050"/><use xlink:href="#ag" x="371.244" y="239.387" fill="#505050"/><use xlink:href="#ah" x="373.404" y="239.387" fill="#505050"/><use xlink:href="#ac" x="462.34" y="260.675" fill="#505050"/><use xlink:href="#M" x="464.32" y="260.675" fill="#505050"/><use xlink:href="#ad" x="413.762" y="240.537" fill="#505050"/><use xlink:href="#Y" x="416.162" y="240.537" fill="#505050"/><use xlink:href="#ae" x="478.699" y="282.827" fill="#505050"/><use xlink:href="#M" x="481.219" y="282.827" fill="#505050"/><use xlink:href="#ad" x="504.165" y="282.827" fill="#505050"/><use xlink:href="#Q" x="506.565" y="282.827" fill="#505050"/><use xlink:href="#ad" x="508.158" y="257.798" fill="#505050"/><use xlink:href="#ai" x="510.558" y="257.798" fill="#505050"/><use xlink:href="#aj" x="553.677" y="264.992" fill="#505050"/><use xlink:href="#ak" x="556.077" y="264.992" fill="#505050"/><use xlink:href="#al" x="558.897" y="264.992" fill="#505050"/><use xlink:href="#am" x="561.538" y="264.992" fill="#505050"/><use xlink:href="#an" x="563.878" y="264.992" fill="#505050"/><use xlink:href="#ao" x="283.087" y="242.817" fill="#505050"/><use xlink:href="#ap" x="283.087" y="240.597" fill="#505050"/><use xlink:href="#aj" x="553.678" y="282.253" fill="#505050"/><use xlink:href="#ak" x="556.078" y="282.253" fill="#505050"/><use xlink:href="#al" x="558.898" y="282.253" fill="#505050"/><use xlink:href="#am" x="561.538" y="282.253" fill="#505050"/><use xlink:href="#aq" x="563.878" y="282.253" fill="#505050"/><use xlink:href="#U" x="274.987" y="282.253" fill="#505050"/><use xlink:href="#V" x="277.687" y="282.253" fill="#505050"/><use xlink:href="#W" x="280.387" y="282.253" fill="#505050"/><path d="M424.14 271.441v.18m0 0v.3m0 .001v.117m0 .001v3m-2.878-11.462v7.5m5.758.062v-7.562m-8.641 0h2.883m5.758 0h2.878M424.14 280.8v-5.76m-11.519-11.462h5.758m17.281 0h-5.762" fill="none" stroke-width=".36" stroke-linecap="round" stroke-linejoin="round" stroke="maroon" stroke-miterlimit="10"/><path d="M432.3 267.602a8.164 8.164 0 0 1-8.16 8.16 8.161 8.161 0 0 1 0-16.32 8.161 8.161 0 0 1 8.16 8.16zm0 0" fill="none" stroke-width=".9" stroke-linecap="round" stroke-linejoin="round" stroke="maroon" stroke-miterlimit="10"/><path d="M419.52 271.621h9.242v-1.2h-9.242zm0 0" fill="maroon" stroke-width=".12" stroke-linecap="round" stroke-linejoin="round" stroke="maroon" stroke-miterlimit="10"/><path d="M424.14 271.621l1.141 1.14m-2.281.001l1.14-1.14m1.141 1.14H423m.422-.122h1.437m.001 0l-.72-.718m0 0l-.6.539m0-.001l-.118.18m.118-.18h.179m0 0h.84m0 0l-.418-.42m-.001 0l-.421.42" fill="none" stroke-width=".36" stroke-linecap="round" stroke-linejoin="round" stroke="maroon" stroke-miterlimit="10"/><path d="M386.7 266.398l.78-.058.66-.3.598-.481.48-.54.302-.718.058-.723m-5.758 0l.121.723.297.719.422.539.602.48.718.3.72.06m-5.759-.001l.778-.058.66-.3.601-.481.48-.54.302-.718.058-.723m-5.761 0l.12.723.301.719.418.539.602.48.719.3.722.06m-5.761-.001l.78-.058.661-.3.598-.481.48-.54.301-.718.059-.723m-5.759 0l.122.723.297.719.422.539.597.48.723.3.719.06" fill="none" stroke-width=".6" stroke-linecap="round" stroke-linejoin="round" stroke="maroon" stroke-miterlimit="10"/><path d="M369.422 266.398l.777-.058.66-.3.602-.481.48-.54.297-.718.063-.723m-5.761 0l.12.723.3.719.481.539.54.48.718.3.723.06" fill="none" stroke-width=".6" stroke-linecap="round" stroke-linejoin="round" stroke="maroon" stroke-miterlimit="10"/><path d="M395.34 263.578h-5.762m-28.797 0h5.758" fill="none" stroke-width=".36" stroke-linecap="round" stroke-linejoin="round" stroke="maroon" stroke-miterlimit="10"/><path d="M371.52 263.578l.12-.476.36-.243.422-.058.418.18.238.359v.422l-.238.36-.418.237-.422-.12-.36-.239-.12-.422h.3l.059-.297.242-.18.3-.062.24.121.12.238v.301l-.12.242-.24.118-.3-.059-.242-.18-.059-.242h-.3" fill-rule="evenodd" fill="maroon"/><path d="M371.52 263.578l.12-.476.36-.243.422-.058.418.18.238.359v.422l-.238.36-.418.237-.422-.12-.36-.239-.12-.422h.3l.059-.297.242-.18.3-.062.24.121.12.238v.301l-.12.242-.24.118-.3-.059-.242-.18-.059-.242zm0 0" fill="none" stroke-width=".12" stroke-linecap="round" stroke-linejoin="round" stroke="maroon" stroke-miterlimit="10"/><path d="M371.762 263.578l.117-.36.36-.179.363.063.238.238v.422l-.238.238-.364.059-.36-.18-.116-.3h.297l.062-.18.18-.118.18.059.058.12v.18l-.059.122-.18.058-.179-.12-.062-.122h-.297" fill-rule="evenodd" fill="maroon"/><path d="M371.762 263.578l.117-.36.36-.179.363.063.238.238v.422l-.238.238-.364.059-.36-.18-.116-.3h.297l.062-.18.18-.118.18.059.058.12v.18l-.059.122-.18.058-.179-.12-.062-.122zm0 0" fill="none" stroke-width=".12" stroke-linecap="round" stroke-linejoin="round" stroke="maroon" stroke-miterlimit="10"/><path d="M371.941 263.578l.118-.297.242-.12.3.12.118.297-.117.242-.301.121-.242-.12-.118-.243h.297v-.058l.063-.06.058.06.063.058-.063.063h-.12v-.063h-.298" fill-rule="evenodd" fill="maroon"/><path d="M371.941 263.578l.118-.297.242-.12.3.12.118.297-.117.242-.301.121-.242-.12-.118-.243h.297v-.058l.063-.06.058.06.063.058-.063.063h-.12v-.063zm0 0" fill="none" stroke-width=".12" stroke-linecap="round" stroke-linejoin="round" stroke="maroon" stroke-miterlimit="10"/><path d="M372.059 263.578l.062-.238.18-.059.18.059.12.238-.12.184-.18.058-.18-.058-.062-.184" fill-rule="evenodd" fill="maroon"/><path d="M372.059 263.578l.062-.238.18-.059.18.059.12.238-.12.184-.18.058-.18-.058zm0 0" fill="none" stroke-width=".12" stroke-linecap="round" stroke-linejoin="round" stroke="maroon" stroke-miterlimit="10"/><path d="M371.398 263.578l.122-.476.3-.364.48-.117.481.117.36.364.12.476-.12.422-.36.36-.48.12-.48-.12-.301-.36-.122-.422h.243l.12-.36.239-.238.3-.12.36.12.238.239.063.36-.063.3-.238.242-.36.117-.3-.117-.238-.242-.121-.3h-.243" fill-rule="evenodd" fill="maroon"/><path d="M371.398 263.578l.122-.476.3-.364.48-.117.481.117.36.364.12.476-.12.422-.36.36-.48.12-.48-.12-.301-.36-.122-.422h.243l.12-.36.239-.238.3-.12.36.12.238.239.063.36-.063.3-.238.242-.36.117-.3-.117-.238-.242-.121-.3zm0 0" fill="none" stroke-width=".12" stroke-linecap="round" stroke-linejoin="round" stroke="maroon" stroke-miterlimit="10"/><path d="M386.7 266.398l.78-.058.66-.3.598-.481.48-.54.302-.718.058-.723m-5.758 0l.121.723.297.719.422.539.602.48.718.3.72.06m-5.759-.001l.778-.058.66-.3.601-.481.48-.54.302-.718.058-.723m-5.761 0l.12.723.301.719.418.539.602.48.719.3.722.06m-5.761-.001l.78-.058.661-.3.598-.481.48-.54.301-.718.059-.723m-5.759 0l.122.723.297.719.422.539.597.48.723.3.719.06" fill="none" stroke-width=".6" stroke-linecap="round" stroke-linejoin="round" stroke="maroon" stroke-miterlimit="10"/><path d="M369.422 266.398l.777-.058.66-.3.602-.481.48-.54.297-.718.063-.723m-5.761 0l.12.723.3.719.481.539.54.48.718.3.723.06" fill="none" stroke-width=".6" stroke-linecap="round" stroke-linejoin="round" stroke="maroon" stroke-miterlimit="10"/><path d="M371.52 263.578l.12-.476.36-.243.422-.058.418.18.238.359v.422l-.238.36-.418.237-.422-.12-.36-.239-.12-.422h.3l.059-.297.242-.18.3-.062.24.121.12.238v.301l-.12.242-.24.118-.3-.059-.242-.18-.059-.242h-.3" fill-rule="evenodd" fill="maroon"/><path d="M371.52 263.578l.12-.476.36-.243.422-.058.418.18.238.359v.422l-.238.36-.418.237-.422-.12-.36-.239-.12-.422h.3l.059-.297.242-.18.3-.062.24.121.12.238v.301l-.12.242-.24.118-.3-.059-.242-.18-.059-.242zm0 0" fill="none" stroke-width=".12" stroke-linecap="round" stroke-linejoin="round" stroke="maroon" stroke-miterlimit="10"/><path d="M371.762 263.578l.117-.36.36-.179.363.063.238.238v.422l-.238.238-.364.059-.36-.18-.116-.3h.297l.062-.18.18-.118.18.059.058.12v.18l-.059.122-.18.058-.179-.12-.062-.122h-.297" fill-rule="evenodd" fill="maroon"/><path d="M371.762 263.578l.117-.36.36-.179.363.063.238.238v.422l-.238.238-.364.059-.36-.18-.116-.3h.297l.062-.18.18-.118.18.059.058.12v.18l-.059.122-.18.058-.179-.12-.062-.122zm0 0" fill="none" stroke-width=".12" stroke-linecap="round" stroke-linejoin="round" stroke="maroon" stroke-miterlimit="10"/><path d="M371.941 263.578l.118-.297.242-.12.3.12.118.297-.117.242-.301.121-.242-.12-.118-.243h.297v-.058l.063-.06.058.06.063.058-.063.063h-.12v-.063h-.298" fill-rule="evenodd" fill="maroon"/><path d="M371.941 263.578l.118-.297.242-.12.3.12.118.297-.117.242-.301.121-.242-.12-.118-.243h.297v-.058l.063-.06.058.06.063.058-.063.063h-.12v-.063zm0 0" fill="none" stroke-width=".12" stroke-linecap="round" stroke-linejoin="round" stroke="maroon" stroke-miterlimit="10"/><path d="M372.059 263.578l.062-.238.18-.059.18.059.12.238-.12.184-.18.058-.18-.058-.062-.184" fill-rule="evenodd" fill="maroon"/><path d="M372.059 263.578l.062-.238.18-.059.18.059.12.238-.12.184-.18.058-.18-.058zm0 0" fill="none" stroke-width=".12" stroke-linecap="round" stroke-linejoin="round" stroke="maroon" stroke-miterlimit="10"/><path d="M371.398 263.578l.122-.476.3-.364.48-.117.481.117.36.364.12.476-.12.422-.36.36-.48.12-.48-.12-.301-.36-.122-.422h.243l.12-.36.239-.238.3-.12.36.12.238.239.063.36-.063.3-.238.242-.36.117-.3-.117-.238-.242-.121-.3h-.243" fill-rule="evenodd" fill="maroon"/><path d="M371.398 263.578l.122-.476.3-.364.48-.117.481.117.36.364.12.476-.12.422-.36.36-.48.12-.48-.12-.301-.36-.122-.422h.243l.12-.36.239-.238.3-.12.36.12.238.239.063.36-.063.3-.238.242-.36.117-.3-.117-.238-.242-.121-.3zm0 0" fill="none" stroke-width=".12" stroke-linecap="round" stroke-linejoin="round" stroke="maroon" stroke-miterlimit="10"/><path d="M406.86 280.8v4.02m0 7.5v-4.02" fill="none" stroke-width=".36" stroke-linecap="round" stroke-linejoin="round" stroke="maroon" stroke-miterlimit="10"/><path d="M410.34 282.54l-8.64 8.64m-1.74-1.739l1.74 1.739m0 0l1.741 1.742" fill="none" stroke-width=".72" stroke-linecap="round" stroke-linejoin="round" stroke="maroon" stroke-miterlimit="10"/><path d="M399.96 281.941v5.22m0-.001l-.6-1.738m.6 1.738l.599-1.738" fill="none" stroke-width=".36" stroke-linecap="round" stroke-linejoin="round" stroke="maroon" stroke-miterlimit="10"/><path d="M402.238 286.02h9.242v-1.2h-9.242zm0 2.28h9.242v-1.198h-9.242zm0 0" fill="maroon" stroke-width=".12" stroke-linecap="round" stroke-linejoin="round" stroke="maroon" stroke-miterlimit="10"/><path d="M349.32 292.32v-4.02m0-7.5v4.02" fill="none" stroke-width=".36" stroke-linecap="round" stroke-linejoin="round" stroke="maroon" stroke-miterlimit="10"/><path d="M344.7 288.3h9.241v-1.198H344.7zm0-2.28h9.241v-1.2H344.7zm0 0" fill="maroon" stroke-width=".12" stroke-linecap="round" stroke-linejoin="round" stroke="maroon" stroke-miterlimit="10"/><path d="M330.3 257.82v11.461m3.481 0v-11.46" fill="none" stroke-width=".6" stroke-linecap="round" stroke-linejoin="round" stroke="maroon" stroke-miterlimit="10"/><path d="M337.8 263.578h-2.038" fill="none" stroke-width=".36" stroke-linecap="round" stroke-linejoin="round" stroke="maroon" stroke-miterlimit="10"/><path d="M333.781 257.82h-3.48m-.001 11.461h3.481" fill="none" stroke-width=".6" stroke-linecap="round" stroke-linejoin="round" stroke="maroon" stroke-miterlimit="10"/><path d="M326.281 269.281v-4.562m0 0l-1.14 2.281m1.14-2.281l1.14 2.281m4.619 8.04v-5.759m0-17.222v5.761m3.722 5.758l-7.98-4.02m-.661 1.082l-2.34-2.64m0 0l3.36.48m-1.02 2.16l1.02-2.16" fill="none" stroke-width=".36" stroke-linecap="round" stroke-linejoin="round" stroke="maroon" stroke-miterlimit="10"/><path d="M328.262 321.059h7.5" fill="none" stroke-width=".6" stroke-linecap="round" stroke-linejoin="round" stroke="maroon" stroke-miterlimit="10"/><path d="M332.04 315.36v5.699" fill="none" stroke-width=".36" stroke-linecap="round" stroke-linejoin="round" stroke="maroon" stroke-miterlimit="10"/><path d="M329.7 322.262h4.62m-3.18 1.136h1.739m87.543-2.339h7.437" fill="none" stroke-width=".6" stroke-linecap="round" stroke-linejoin="round" stroke="maroon" stroke-miterlimit="10"/><path d="M424.14 315.36v5.699" fill="none" stroke-width=".36" stroke-linecap="round" stroke-linejoin="round" stroke="maroon" stroke-miterlimit="10"/><path d="M421.86 322.262h4.562m-3.122 1.136h1.68m-58.44-82.858h5.76m5.759 0l-5.758 5.76m-.001 0l-5.76-5.76m5.76 0v5.76m0-5.76h5.759" fill="none" stroke-width=".6" stroke-linecap="round" stroke-linejoin="round" stroke="maroon" stroke-miterlimit="10"/><path d="M372.3 252.059V246.3" fill="none" stroke-width=".36" stroke-linecap="round" stroke-linejoin="round" stroke="maroon" stroke-miterlimit="10"/><path d="M473.102 266.398l.718-.058.72-.3.6-.481.419-.54.3-.718.121-.723m-5.761 0l.062.723.297.719.48.539.602.48.66.3.782.06m-5.762-.001l.719-.058.722-.3.598-.481.422-.54.3-.718.118-.723m-5.759 0l.06.723.3.719.48.539.598.48.66.3.782.06" fill="none" stroke-width=".6" stroke-linecap="round" stroke-linejoin="round" stroke="maroon" stroke-miterlimit="10"/><path d="M461.578 266.398l.723-.058.719-.3.601-.481.418-.54.3-.718.122-.723m-5.761 0l.062.723.297.719.48.539.602.48.66.3.777.06m-5.758-.001l.72-.058.722-.3.597-.481.422-.54.297-.718.121-.723m-5.758 0l.059.723.3.719.481.539.598.48.66.3.781.06" fill="none" stroke-width=".6" stroke-linecap="round" stroke-linejoin="round" stroke="maroon" stroke-miterlimit="10"/><path d="M447.18 263.578h5.761m28.797 0h-5.758M429.898 246.3h-4.02m-7.499 0h4.02" fill="none" stroke-width=".36" stroke-linecap="round" stroke-linejoin="round" stroke="maroon" stroke-miterlimit="10"/><path d="M424.68 250.922h1.199v-9.242h-1.2zm-2.282 0h1.204v-9.242h-1.204zm0 0" fill="maroon" stroke-width=".12" stroke-linecap="round" stroke-linejoin="round" stroke="maroon" stroke-miterlimit="10"/><path d="M487.441 275.04v5.76m0 17.278v-5.758" fill="none" stroke-width=".36" stroke-linecap="round" stroke-linejoin="round" stroke="maroon" stroke-miterlimit="10"/><path d="M489.48 292.32V280.8m-4.02 0v11.52m4.02-11.52h-4.02m4.02 11.52h-4.02" fill="none" stroke-width=".6" stroke-linecap="round" stroke-linejoin="round" stroke="maroon" stroke-miterlimit="10"/><path d="M498.96 292.32v-4.02m0-7.5v4.02" fill="none" stroke-width=".36" stroke-linecap="round" stroke-linejoin="round" stroke="maroon" stroke-miterlimit="10"/><path d="M494.34 288.3h9.242v-1.198h-9.242zm0-2.28h9.242v-1.2h-9.242zm0 0" fill="maroon" stroke-width=".12" stroke-linecap="round" stroke-linejoin="round" stroke="maroon" stroke-miterlimit="10"/><path d="M516.238 263.578h-4.02m-7.499 0h4.082" fill="none" stroke-width=".36" stroke-linecap="round" stroke-linejoin="round" stroke="maroon" stroke-miterlimit="10"/><path d="M511.078 268.2h1.203v-9.24h-1.203zm-2.34 0h1.203v-9.24h-1.203zm0 0" fill="maroon" stroke-width=".12" stroke-linecap="round" stroke-linejoin="round" stroke="maroon" stroke-miterlimit="10"/><path d="M539.281 263.578h5.758" fill="none" stroke-width=".6" stroke-linecap="round" stroke-linejoin="round" stroke="maroon" stroke-miterlimit="10"/><path d="M544.738 263.578l.121-.898.422-.84.54-.66.78-.48.899-.302h.898l.84.301.782.48.539.66.421.84.122.9-.122.843-.421.84-.54.66-.78.539-.84.238h-.899l-.898-.238-.782-.54-.539-.66-.422-.84-.12-.843h.6l.122-.777.3-.66.477-.54.602-.421.719-.18h.722l.719.18.602.422.476.539.3.66.122.777-.121.723-.3.66-.477.539-.602.422-.719.18h-.722l-.72-.18-.6-.422-.477-.54-.301-.66-.121-.722h-.602" fill-rule="evenodd" fill="maroon"/><path d="M544.738 263.578l.121-.898.422-.84.54-.66.78-.48.899-.302h.898l.84.301.782.48.539.66.421.84.122.9-.122.843-.421.84-.54.66-.78.539-.84.238h-.899l-.898-.238-.782-.54-.539-.66-.422-.84-.12-.843h.6l.122-.777.3-.66.477-.54.602-.421.719-.18h.722l.719.18.602.422.476.539.3.66.122.777-.121.723-.3.66-.477.539-.602.422-.719.18h-.722l-.72-.18-.6-.422-.477-.54-.301-.66-.121-.722zm0 0" fill="none" stroke-width=".12" stroke-linecap="round" stroke-linejoin="round" stroke="maroon" stroke-miterlimit="10"/><path d="M495.238 321.059h7.5" fill="none" stroke-width=".6" stroke-linecap="round" stroke-linejoin="round" stroke="maroon" stroke-miterlimit="10"/><path d="M498.96 315.36v5.699" fill="none" stroke-width=".36" stroke-linecap="round" stroke-linejoin="round" stroke="maroon" stroke-miterlimit="10"/><path d="M496.68 322.262h4.62m-3.179 1.136h1.738M297.48 240.54h-5.761" fill="none" stroke-width=".6" stroke-linecap="round" stroke-linejoin="round" stroke="maroon" stroke-miterlimit="10"/><path d="M285.66 240.54l.121-.9.418-.84.602-.66.719-.48.902-.238h.898l.84.238.781.48.54.66.417.84.122.9-.122.901-.418.778-.539.722-.78.48-.84.24h-.9l-.901-.24-.72-.48-.6-.722-.419-.778-.12-.902h.6l.118-.719.3-.66.481-.601.602-.36.718-.238h.72l.722.238.598.36.48.601.3.66.122.72-.121.722-.301.66-.48.598-.598.359-.723.242h-.719l-.718-.242-.602-.36-.48-.597-.301-.66-.117-.723h-.602" fill-rule="evenodd" fill="maroon"/><path d="M285.66 240.54l.121-.9.418-.84.602-.66.719-.48.902-.238h.898l.84.238.781.48.54.66.417.84.122.9-.122.901-.418.778-.539.722-.78.48-.84.24h-.9l-.901-.24-.72-.48-.6-.722-.419-.778-.12-.902h.6l.118-.719.3-.66.481-.601.602-.36.718-.238h.72l.722.238.598.36.48.601.3.66.122.72-.121.722-.301.66-.48.598-.598.359-.723.242h-.719l-.718-.242-.602-.36-.48-.597-.301-.66-.117-.723zm0 0" fill="none" stroke-width=".12" stroke-linecap="round" stroke-linejoin="round" stroke="maroon" stroke-miterlimit="10"/><path d="M539.281 280.8h5.758" fill="none" stroke-width=".6" stroke-linecap="round" stroke-linejoin="round" stroke="maroon" stroke-miterlimit="10"/><path d="M544.738 280.8l.121-.902.422-.777.54-.723.78-.476.899-.242h.898l.84.242.782.476.539.723.421.777.122.903-.122.898-.421.84-.54.66-.78.48-.84.243h-.899l-.898-.242-.782-.48-.539-.66-.422-.84-.12-.9h.6l.122-.722.3-.656.477-.543.602-.418.719-.242h.722l.719.242.602.418.476.543.3.656.122.723-.121.719-.3.718-.477.543-.602.36-.719.238h-.722l-.72-.238-.6-.36-.477-.543-.301-.718-.121-.72h-.602" fill-rule="evenodd" fill="maroon"/><path d="M544.738 280.8l.121-.902.422-.777.54-.723.78-.476.899-.242h.898l.84.242.782.476.539.723.421.777.122.903-.122.898-.421.84-.54.66-.78.48-.84.243h-.899l-.898-.242-.782-.48-.539-.66-.422-.84-.12-.9h.6l.122-.722.3-.656.477-.543.602-.418.719-.242h.722l.719.242.602.418.476.543.3.656.122.723-.121.719-.3.718-.477.543-.602.36-.719.238h-.722l-.72-.238-.6-.36-.477-.543-.301-.718-.121-.72zm0 0" fill="none" stroke-width=".12" stroke-linecap="round" stroke-linejoin="round" stroke="maroon" stroke-miterlimit="10"/><path d="M524.04 321.059h7.5" fill="none" stroke-width=".6" stroke-linecap="round" stroke-linejoin="round" stroke="maroon" stroke-miterlimit="10"/><path d="M527.762 315.36v5.699" fill="none" stroke-width=".36" stroke-linecap="round" stroke-linejoin="round" stroke="maroon" stroke-miterlimit="10"/><path d="M525.48 322.262h4.622m-3.18 1.136h1.738M297.48 280.8h-5.761" fill="none" stroke-width=".6" stroke-linecap="round" stroke-linejoin="round" stroke="maroon" stroke-miterlimit="10"/><path d="M285.66 280.8l.121-.902.418-.777.602-.723.719-.476.902-.242h.898l.84.242.781.476.54.723.417.777.122.903-.122.898-.418.84-.539.66-.78.48-.84.243h-.9l-.901-.242-.72-.48-.6-.66-.419-.84-.12-.9h.6l.118-.722.3-.656.481-.543.602-.418.718-.242h.72l.722.242.598.418.48.543.3.656.122.723-.121.719-.301.718-.48.543-.598.36-.723.238h-.719l-.718-.238-.602-.36-.48-.543-.301-.718-.117-.72h-.602" fill-rule="evenodd" fill="maroon"/><path d="M285.66 280.8l.121-.902.418-.777.602-.723.719-.476.902-.242h.898l.84.242.781.476.54.723.417.777.122.903-.122.898-.418.84-.539.66-.78.48-.84.243h-.9l-.901-.242-.72-.48-.6-.66-.419-.84-.12-.9h.6l.118-.722.3-.656.481-.543.602-.418.718-.242h.72l.722.242.598.418.48.543.3.656.122.723-.121.719-.301.718-.48.543-.598.36-.723.238h-.719l-.718-.238-.602-.36-.48-.543-.301-.718-.117-.72zm0 0" fill="none" stroke-width=".12" stroke-linecap="round" stroke-linejoin="round" stroke="maroon" stroke-miterlimit="10"/><path d="M312.719 321.059h-7.438" fill="none" stroke-width=".6" stroke-linecap="round" stroke-linejoin="round" stroke="maroon" stroke-miterlimit="10"/><path d="M309 315.36v5.699" fill="none" stroke-width=".36" stroke-linecap="round" stroke-linejoin="round" stroke="maroon" stroke-miterlimit="10"/><path d="M311.281 322.262h-4.562m3.121 1.136h-1.68" fill="none" stroke-width=".6" stroke-linecap="round" stroke-linejoin="round" stroke="maroon" stroke-miterlimit="10"/><path d="M424.14 280.8v28.802m0 0v5.757m0-5.757h-17.28" fill="none" stroke-width=".36" stroke-linecap="round" stroke-linejoin="round" stroke="green" stroke-miterlimit="10"/><path d="M425.281 309.602c0 .628-.511 1.136-1.14 1.136a1.139 1.139 0 1 1 0-2.277c.629 0 1.14.508 1.14 1.14" fill-rule="evenodd" fill="green"/><path d="M425.281 309.602c0 .628-.511 1.136-1.14 1.136a1.139 1.139 0 1 1 0-2.277c.629 0 1.14.508 1.14 1.14zm0 0" fill="none" stroke-width=".12" stroke-linecap="round" stroke-linejoin="round" stroke="green" stroke-miterlimit="10"/><path d="M406.86 292.32v17.282m-57.54-17.282v17.282m0 0h-17.28m0 0v5.757m0-40.319v34.562" fill="none" stroke-width=".36" stroke-linecap="round" stroke-linejoin="round" stroke="green" stroke-miterlimit="10"/><path d="M333.18 309.602c0 .628-.508 1.136-1.14 1.136a1.139 1.139 0 1 1 0-2.277c.632 0 1.14.508 1.14 1.14" fill-rule="evenodd" fill="green"/><path d="M333.18 309.602c0 .628-.508 1.136-1.14 1.136a1.139 1.139 0 1 1 0-2.277c.632 0 1.14.508 1.14 1.14zm0 0" fill="none" stroke-width=".12" stroke-linecap="round" stroke-linejoin="round" stroke="green" stroke-miterlimit="10"/><path d="M487.441 298.078v11.524m0 0h11.52m-.001 0V292.32m0 23.04v-5.758" fill="none" stroke-width=".36" stroke-linecap="round" stroke-linejoin="round" stroke="green" stroke-miterlimit="10"/><path d="M500.102 309.602c0 .628-.512 1.136-1.141 1.136-.633 0-1.14-.508-1.14-1.136a1.14 1.14 0 1 1 2.281 0" fill-rule="evenodd" fill="green"/><path d="M500.102 309.602c0 .628-.512 1.136-1.141 1.136-.633 0-1.14-.508-1.14-1.136a1.14 1.14 0 1 1 2.281 0zm0 0" fill="none" stroke-width=".12" stroke-linecap="round" stroke-linejoin="round" stroke="green" stroke-miterlimit="10"/><path d="M527.762 315.36V280.8m0 0h11.52M309 315.36V280.8m0 0h-11.52m109.38-17.222h5.761m-17.281 0h11.52" fill="none" stroke-width=".36" stroke-linecap="round" stroke-linejoin="round" stroke="green" stroke-miterlimit="10"/><path d="M408 263.578a1.14 1.14 0 1 1-2.279.002 1.14 1.14 0 0 1 2.279-.002" fill-rule="evenodd" fill="green"/><path d="M408 263.578a1.14 1.14 0 1 1-2.279.002 1.14 1.14 0 0 1 2.279-.002zm0 0" fill="none" stroke-width=".12" stroke-linecap="round" stroke-linejoin="round" stroke="green" stroke-miterlimit="10"/><path d="M406.86 263.578v-17.277m0-.001h11.519m-11.519 17.278v17.223m-46.079-17.223h-11.46m-.001 0v17.223m-11.52-17.223h11.52" fill="none" stroke-width=".36" stroke-linecap="round" stroke-linejoin="round" stroke="green" stroke-miterlimit="10"/><path d="M350.46 263.578a1.14 1.14 0 1 1-2.278.002 1.14 1.14 0 0 1 2.279-.002" fill-rule="evenodd" fill="green"/><path d="M350.46 263.578a1.14 1.14 0 1 1-2.278.002 1.14 1.14 0 0 1 2.279-.002zm0 0" fill="none" stroke-width=".12" stroke-linecap="round" stroke-linejoin="round" stroke="green" stroke-miterlimit="10"/><path d="M372.3 263.578v-11.52m57.598-5.758h11.524m0 0v17.278m0 0h-5.762m5.762 0h5.758" fill="none" stroke-width=".36" stroke-linecap="round" stroke-linejoin="round" stroke="green" stroke-miterlimit="10"/><path d="M442.559 263.578c0 .633-.508 1.14-1.137 1.14-.633 0-1.14-.507-1.14-1.14 0-.629.507-1.137 1.14-1.137.629 0 1.137.508 1.137 1.137" fill-rule="evenodd" fill="green"/><path d="M442.559 263.578c0 .633-.508 1.14-1.137 1.14-.633 0-1.14-.507-1.14-1.14 0-.629.507-1.137 1.14-1.137.629 0 1.137.508 1.137 1.137zm0 0" fill="none" stroke-width=".12" stroke-linecap="round" stroke-linejoin="round" stroke="green" stroke-miterlimit="10"/><path d="M481.738 263.578h5.703m0 0v11.461m0-11.461h11.52m-.001 0v17.223" fill="none" stroke-width=".36" stroke-linecap="round" stroke-linejoin="round" stroke="green" stroke-miterlimit="10"/><path d="M488.578 263.578zm0 0" fill="none" stroke-width=".12" stroke-linecap="round" stroke-linejoin="round" stroke="green" stroke-miterlimit="10"/><path d="M504.719 263.578h-5.758" fill="none" stroke-width=".36" stroke-linecap="round" stroke-linejoin="round" stroke="green" stroke-miterlimit="10"/><path d="M500.102 263.578a1.14 1.14 0 0 1-1.141 1.14c-.633 0-1.14-.507-1.14-1.14 0-.629.507-1.137 1.14-1.137.629 0 1.14.508 1.14 1.137" fill-rule="evenodd" fill="green"/><path d="M500.102 263.578a1.14 1.14 0 0 1-1.141 1.14c-.633 0-1.14-.507-1.14-1.14 0-.629.507-1.137 1.14-1.137.629 0 1.14.508 1.14 1.137zm0 0" fill="none" stroke-width=".12" stroke-linecap="round" stroke-linejoin="round" stroke="green" stroke-miterlimit="10"/><path d="M539.281 263.578h-23.043M297.48 240.54h34.56m0 0v11.519" fill="none" stroke-width=".36" stroke-linecap="round" stroke-linejoin="round" stroke="green" stroke-miterlimit="10"/></svg>