<svg xmlns:xlink="http://www.w3.org/1999/xlink" width="842pt" height="595pt" viewBox="0 0 842 595">
  <defs>
    <path fill="#505050" stroke="#505050" stroke-linecap="round" stroke-linejoin="round" stroke-miterlimit="10" stroke-width=".12" d="M485.762 311.04h2.156v-2.88h-2.156zm-30.962 0h2.16v-2.88h-2.16zm0 0" id="reuse-123"/>
    <path fill="none" stroke="#000" stroke-linecap="square" stroke-linejoin="bevel" stroke-miterlimit="10" stroke-width=".06" d="M315.3 252.059a2.281 2.281 0 0 1-4.562 0 2.28 2.28 0 0 1 4.563 0zm0 0" id="reuse-122"/>
    <path fill="#fff" fill-rule="evenodd" d="M315.3 252.059a2.281 2.281 0 0 1-4.562 0 2.28 2.28 0 0 1 4.563 0" id="reuse-121"/>
    <path fill="none" stroke="green" stroke-linecap="round" stroke-linejoin="round" stroke-miterlimit="10" stroke-width=".12" d="M316.738 252.059a3.721 3.721 0 0 1-3.718 3.722 3.721 3.721 0 0 1 0-7.441 3.718 3.718 0 0 1 3.718 3.719zm0 0" id="reuse-120"/>
    <path fill="green" fill-rule="evenodd" d="M316.738 252.059a3.721 3.721 0 0 1-3.718 3.722 3.721 3.721 0 0 1 0-7.441 3.718 3.718 0 0 1 3.718 3.719" id="reuse-119"/>
    <path fill="none" stroke="#000" stroke-linecap="square" stroke-linejoin="bevel" stroke-miterlimit="10" stroke-width=".06" d="M300.898 266.398a2.278 2.278 0 1 1-4.558 0 2.278 2.278 0 0 1 2.281-2.277 2.277 2.277 0 0 1 2.277 2.277zm0 0" id="reuse-118"/>
    <path fill="#fff" fill-rule="evenodd" d="M300.898 266.398a2.278 2.278 0 1 1-4.558 0 2.278 2.278 0 0 1 2.281-2.277 2.277 2.277 0 0 1 2.277 2.277" id="reuse-117"/>
    <path fill="none" stroke="green" stroke-linecap="round" stroke-linejoin="round" stroke-miterlimit="10" stroke-width=".12" d="M302.34 266.398a3.721 3.721 0 1 1-7.442.004 3.721 3.721 0 0 1 7.442-.004zm0 0" id="reuse-116"/>
    <path fill="green" fill-rule="evenodd" d="M302.34 266.398a3.721 3.721 0 1 1-7.442.004 3.721 3.721 0 0 1 7.442-.004" id="reuse-115"/>
    <path fill="none" stroke="#000" stroke-linecap="square" stroke-linejoin="bevel" stroke-miterlimit="10" stroke-width=".06" d="M372.84 266.398a2.279 2.279 0 1 1-4.558.005 2.279 2.279 0 0 1 4.558-.005zm0 0" id="reuse-114"/>
    <path fill="#fff" fill-rule="evenodd" d="M372.84 266.398a2.279 2.279 0 1 1-4.558.005 2.279 2.279 0 0 1 4.558-.005" id="reuse-113"/>
    <path fill="none" stroke="green" stroke-linecap="round" stroke-linejoin="round" stroke-miterlimit="10" stroke-width=".12" d="M374.281 266.398zm0 0" id="reuse-112"/>
    <path fill="none" stroke="#000" stroke-linecap="square" stroke-linejoin="bevel" stroke-miterlimit="10" stroke-width=".06" d="M502.379 309.602a2.277 2.277 0 0 1-2.277 2.277 2.278 2.278 0 1 1 0-4.559 2.278 2.278 0 0 1 2.277 2.282zm0 0" id="reuse-111"/>
    <path fill="#fff" fill-rule="evenodd" d="M502.379 309.602a2.277 2.277 0 0 1-2.277 2.277 2.278 2.278 0 1 1 0-4.559 2.278 2.278 0 0 1 2.277 2.282" id="reuse-110"/>
    <path fill="none" stroke="green" stroke-linecap="round" stroke-linejoin="round" stroke-miterlimit="10" stroke-width=".12" d="M503.82 309.602a3.723 3.723 0 0 1-3.718 3.718 3.723 3.723 0 0 1-3.723-3.718 3.724 3.724 0 0 1 3.723-3.723 3.723 3.723 0 0 1 3.718 3.723zm0 0" id="reuse-109"/>
    <path fill="green" fill-rule="evenodd" d="M503.82 309.602a3.723 3.723 0 0 1-3.718 3.718 3.723 3.723 0 0 1-3.723-3.718 3.724 3.724 0 0 1 3.723-3.723 3.723 3.723 0 0 1 3.718 3.723" id="reuse-108"/>
    <path fill="none" stroke="#000" stroke-linecap="square" stroke-linejoin="bevel" stroke-miterlimit="10" stroke-width=".06" d="M444.84 309.602a2.278 2.278 0 0 1-2.281 2.277 2.277 2.277 0 0 1-2.278-2.277 2.278 2.278 0 1 1 4.559 0zm0 0" id="reuse-107"/>
    <path fill="#fff" fill-rule="evenodd" d="M444.84 309.602a2.278 2.278 0 0 1-2.281 2.277 2.277 2.277 0 0 1-2.278-2.277 2.278 2.278 0 1 1 4.559 0" id="reuse-106"/>
    <path fill="none" stroke="green" stroke-linecap="round" stroke-linejoin="round" stroke-miterlimit="10" stroke-width=".12" d="M446.281 309.602a3.72 3.72 0 1 1-3.723-3.723 3.724 3.724 0 0 1 3.723 3.723zm0 0" id="reuse-105"/>
    <path fill="green" fill-rule="evenodd" d="M446.281 309.602a3.72 3.72 0 1 1-3.723-3.723 3.724 3.724 0 0 1 3.723 3.723" id="reuse-104"/>
    <path fill="none" stroke="#000" stroke-linecap="square" stroke-linejoin="bevel" stroke-miterlimit="10" stroke-width=".06" d="M330.3 309.602a2.88 2.88 0 0 1-2.878 2.878 2.88 2.88 0 1 1 0-5.761 2.88 2.88 0 0 1 2.879 2.883zm0 0" id="reuse-103"/>
    <path fill="#fff" fill-rule="evenodd" d="M330.3 309.602a2.88 2.88 0 0 1-2.878 2.878 2.88 2.88 0 1 1 0-5.761 2.88 2.88 0 0 1 2.879 2.883" id="reuse-102"/>
    <path fill="none" stroke="green" stroke-linecap="round" stroke-linejoin="round" stroke-miterlimit="10" stroke-width=".12" d="M332.879 309.602a5.455 5.455 0 0 1-5.457 5.457 5.458 5.458 0 1 1 0-10.918 5.458 5.458 0 0 1 5.457 5.46zm0 0" id="reuse-101"/>
    <path fill="green" fill-rule="evenodd" d="M332.879 309.602a5.455 5.455 0 0 1-5.457 5.457 5.458 5.458 0 1 1 0-10.918 5.458 5.458 0 0 1 5.457 5.46" id="reuse-100"/>
    <path fill="none" stroke="#000" stroke-linecap="square" stroke-linejoin="bevel" stroke-miterlimit="10" stroke-width=".06" d="M359.04 309.602a2.88 2.88 0 0 1-5.759 0 2.88 2.88 0 1 1 5.758 0zm0 0" id="reuse-99"/>
    <path fill="#fff" fill-rule="evenodd" d="M359.04 309.602a2.88 2.88 0 0 1-5.759 0 2.88 2.88 0 1 1 5.758 0" id="reuse-98"/>
    <path fill="none" stroke="green" stroke-linecap="round" stroke-linejoin="round" stroke-miterlimit="10" stroke-width=".12" d="M361.621 309.602a5.458 5.458 0 0 1-5.46 5.457 5.458 5.458 0 1 1 0-10.918 5.461 5.461 0 0 1 5.46 5.46zm0 0" id="reuse-97"/>
    <path fill="green" fill-rule="evenodd" d="M361.621 309.602a5.458 5.458 0 0 1-5.46 5.457 5.458 5.458 0 1 1 0-10.918 5.461 5.461 0 0 1 5.46 5.46" id="reuse-96"/>
    <path fill="none" stroke="#000" stroke-linecap="square" stroke-linejoin="bevel" stroke-miterlimit="10" stroke-width=".06" d="M344.7 338.34a2.88 2.88 0 1 1-5.759 0 2.88 2.88 0 0 1 5.758 0zm0 0" id="reuse-95"/>
    <path fill="#fff" fill-rule="evenodd" d="M344.7 338.34a2.88 2.88 0 1 1-5.759 0 2.88 2.88 0 0 1 5.758 0" id="reuse-94"/>
    <path fill="none" stroke="green" stroke-linecap="round" stroke-linejoin="round" stroke-miterlimit="10" stroke-width=".12" d="M347.281 338.34a5.461 5.461 0 1 1-10.923-.001 5.461 5.461 0 0 1 10.923 0zm0 0" id="reuse-93"/>
    <path fill="green" fill-rule="evenodd" d="M347.281 338.34a5.461 5.461 0 1 1-10.923-.001 5.461 5.461 0 0 1 10.923 0" id="reuse-92"/>
    <path fill="none" stroke="#000" stroke-linecap="square" stroke-linejoin="bevel" stroke-miterlimit="10" stroke-width=".06" d="M416.04 280.8a2.277 2.277 0 0 1-2.278 2.278 2.278 2.278 0 1 1 0-4.558 2.278 2.278 0 0 1 2.277 2.28zm0 0" id="reuse-91"/>
    <path fill="#fff" fill-rule="evenodd" d="M416.04 280.8a2.277 2.277 0 0 1-2.278 2.278 2.278 2.278 0 1 1 0-4.558 2.278 2.278 0 0 1 2.277 2.28" id="reuse-90"/>
    <path fill="none" stroke="green" stroke-linecap="round" stroke-linejoin="round" stroke-miterlimit="10" stroke-width=".12" d="M417.48 282.36l-2.16 2.16h-3.12l-2.16-2.16v-3.122l2.16-2.16h3.12l2.16 2.16zm0 0" id="reuse-89"/>
    <path fill="green" d="M417.48 282.36l-2.16 2.16h-3.12l-2.16-2.16v-3.122l2.16-2.16h3.12l2.16 2.16v3.121" id="reuse-88"/>
    <path fill="none" stroke="#000" stroke-linecap="square" stroke-linejoin="bevel" stroke-miterlimit="10" stroke-width=".06" d="M430.441 280.8a2.28 2.28 0 0 1-4.562 0 2.281 2.281 0 0 1 4.562 0zm0 0" id="reuse-87"/>
    <path fill="#fff" fill-rule="evenodd" d="M430.441 280.8a2.28 2.28 0 0 1-4.562 0 2.281 2.281 0 0 1 4.562 0" id="reuse-86"/>
    <path fill="none" stroke="green" stroke-linecap="round" stroke-linejoin="round" stroke-miterlimit="10" stroke-width=".12" d="M431.879 282.36l-2.16 2.16h-3.117l-2.16-2.16v-3.122l2.16-2.16h3.117l2.16 2.16zm0 0" id="reuse-85"/>
    <path fill="green" d="M431.879 282.36l-2.16 2.16h-3.117l-2.16-2.16v-3.122l2.16-2.16h3.117l2.16 2.16v3.121" id="reuse-84"/>
    <path fill="none" stroke="#000" stroke-linecap="square" stroke-linejoin="bevel" stroke-miterlimit="10" stroke-width=".06" d="M401.64 280.8a2.28 2.28 0 0 1-4.562 0 2.281 2.281 0 0 1 4.563 0zm0 0" id="reuse-83"/>
    <path fill="#fff" fill-rule="evenodd" d="M401.64 280.8a2.28 2.28 0 0 1-4.562 0 2.281 2.281 0 0 1 4.563 0" id="reuse-82"/>
    <path fill="none" stroke="green" stroke-linecap="round" stroke-linejoin="round" stroke-miterlimit="10" stroke-width=".12" d="M403.078 282.36l-2.156 2.16H397.8l-2.16-2.16v-3.122l2.16-2.16h3.12l2.157 2.16zm0 0" id="reuse-81"/>
    <path fill="green" d="M403.078 282.36l-2.156 2.16H397.8l-2.16-2.16v-3.122l2.16-2.16h3.12l2.157 2.16v3.121" id="reuse-80"/>
    <path fill="none" stroke="#000" stroke-linecap="square" stroke-linejoin="bevel" stroke-miterlimit="10" stroke-width=".06" d="M503.52 252.059a3.42 3.42 0 1 1-6.84.003 3.42 3.42 0 0 1 6.84-.003zm0 0" id="reuse-79"/>
    <path fill="#fff" fill-rule="evenodd" d="M503.52 252.059a3.42 3.42 0 1 1-6.84.003 3.42 3.42 0 0 1 6.84-.003" id="reuse-78"/>
    <path fill="none" stroke="green" stroke-linecap="round" stroke-linejoin="round" stroke-miterlimit="10" stroke-width=".12" d="M505.559 252.059a5.458 5.458 0 1 1-10.918 0 5.46 5.46 0 0 1 5.46-5.457 5.457 5.457 0 0 1 5.458 5.457zm0 0" id="reuse-77"/>
    <path fill="green" fill-rule="evenodd" d="M505.559 252.059a5.458 5.458 0 1 1-10.918 0 5.46 5.46 0 0 1 5.46-5.457 5.457 5.457 0 0 1 5.458 5.457" id="reuse-76"/>
    <path fill="none" stroke="#000" stroke-linecap="square" stroke-linejoin="bevel" stroke-miterlimit="10" stroke-width=".06" d="M460.379 252.059a3.42 3.42 0 1 1-6.84.003 3.42 3.42 0 0 1 6.84-.003zm0 0" id="reuse-75"/>
    <path fill="#fff" fill-rule="evenodd" d="M460.379 252.059a3.42 3.42 0 1 1-6.84.003 3.42 3.42 0 0 1 6.84-.003" id="reuse-74"/>
    <path fill="none" stroke="green" stroke-linecap="round" stroke-linejoin="round" stroke-miterlimit="10" stroke-width=".12" d="M462.422 252.059a5.461 5.461 0 0 1-10.922 0 5.46 5.46 0 0 1 5.46-5.457 5.46 5.46 0 0 1 5.462 5.457zm0 0" id="reuse-73"/>
    <path fill="green" fill-rule="evenodd" d="M462.422 252.059a5.461 5.461 0 0 1-10.922 0 5.46 5.46 0 0 1 10.922 0" id="reuse-72"/>
    <path fill="none" stroke="#000" stroke-linecap="square" stroke-linejoin="bevel" stroke-miterlimit="10" stroke-width=".06" d="M460.379 280.8a3.42 3.42 0 1 1-6.839-.002 3.42 3.42 0 0 1 6.839.003zm0 0" id="reuse-71"/>
    <path fill="#fff" fill-rule="evenodd" d="M460.379 280.8a3.42 3.42 0 1 1-6.839-.002 3.42 3.42 0 0 1 6.839.003" id="reuse-70"/>
    <path fill="none" stroke="green" stroke-linecap="round" stroke-linejoin="round" stroke-miterlimit="10" stroke-width=".12" d="M462.422 280.8a5.461 5.461 0 1 1-10.923 0 5.461 5.461 0 0 1 10.923 0zm0 0" id="reuse-69"/>
    <path fill="green" fill-rule="evenodd" d="M462.422 280.8a5.461 5.461 0 1 1-10.923 0 5.461 5.461 0 0 1 10.923 0" id="reuse-68"/>
    <path fill="none" stroke="#000" stroke-linecap="square" stroke-linejoin="bevel" stroke-miterlimit="10" stroke-width=".06" d="M503.52 280.8a3.42 3.42 0 1 1-6.839-.002 3.42 3.42 0 0 1 6.839.003zm0 0" id="reuse-67"/>
    <path fill="#fff" fill-rule="evenodd" d="M503.52 280.8a3.42 3.42 0 1 1-6.839-.002 3.42 3.42 0 0 1 6.839.003" id="reuse-66"/>
    <path fill="none" stroke="green" stroke-linecap="round" stroke-linejoin="round" stroke-miterlimit="10" stroke-width=".12" d="M505.559 280.8a5.458 5.458 0 1 1-10.918 0 5.458 5.458 0 1 1 10.918 0zm0 0" id="reuse-65"/>
    <path fill="green" fill-rule="evenodd" d="M505.559 280.8a5.458 5.458 0 1 1-10.918 0 5.458 5.458 0 1 1 10.918 0" id="reuse-64"/>
    <path fill="none" stroke="#000" stroke-linecap="square" stroke-linejoin="bevel" stroke-miterlimit="10" stroke-width=".06" d="M301.441 323.941a2.824 2.824 0 0 1-2.82 2.82 2.822 2.822 0 0 1 0-5.64 2.822 2.822 0 0 1 2.82 2.82zm0 0" id="reuse-63"/>
    <path fill="#fff" fill-rule="evenodd" d="M301.441 323.941a2.824 2.824 0 0 1-2.82 2.82 2.822 2.822 0 0 1 0-5.64 2.822 2.822 0 0 1 2.82 2.82" id="reuse-62"/>
    <path fill="none" stroke="green" stroke-linecap="round" stroke-linejoin="round" stroke-miterlimit="10" stroke-width=".12" d="M303.66 323.941a5.041 5.041 0 1 1-10.082-.004 5.041 5.041 0 0 1 10.082.004zm0 0" id="reuse-61"/>
    <path fill="green" fill-rule="evenodd" d="M303.66 323.941a5.041 5.041 0 1 1-10.082-.004 5.041 5.041 0 0 1 10.082.004" id="reuse-60"/>
    <path fill="none" stroke="#000" stroke-linecap="square" stroke-linejoin="bevel" stroke-miterlimit="10" stroke-width=".06" d="M502.379 323.941a2.277 2.277 0 0 1-2.277 2.278 2.278 2.278 0 1 1 0-4.559 2.278 2.278 0 0 1 2.277 2.281zm0 0" id="reuse-59"/>
    <path fill="#fff" fill-rule="evenodd" d="M502.379 323.941a2.277 2.277 0 0 1-2.277 2.278 2.278 2.278 0 1 1 0-4.559 2.278 2.278 0 0 1 2.277 2.281" id="reuse-58"/>
    <path fill="none" stroke="green" stroke-linecap="round" stroke-linejoin="round" stroke-miterlimit="10" stroke-width=".12" d="M503.82 323.941a3.72 3.72 0 1 1-7.44-.002 3.72 3.72 0 0 1 7.44.002zm0 0" id="reuse-57"/>
    <path fill="green" fill-rule="evenodd" d="M503.82 323.941a3.72 3.72 0 1 1-7.44-.002 3.72 3.72 0 0 1 7.44.002" id="reuse-56"/>
    <path fill="none" stroke="#000" stroke-linecap="square" stroke-linejoin="bevel" stroke-miterlimit="10" stroke-width=".06" d="M531.18 323.941a2.278 2.278 0 0 1-2.282 2.278 2.277 2.277 0 0 1-2.277-2.278 2.278 2.278 0 1 1 4.559 0zm0 0" id="reuse-55"/>
    <path fill="#fff" fill-rule="evenodd" d="M531.18 323.941a2.278 2.278 0 0 1-2.282 2.278 2.277 2.277 0 0 1-2.277-2.278 2.278 2.278 0 1 1 4.559 0" id="reuse-54"/>
    <path fill="none" stroke="green" stroke-linecap="round" stroke-linejoin="round" stroke-miterlimit="10" stroke-width=".12" d="M532.621 323.941a3.721 3.721 0 1 1-7.442-.004 3.721 3.721 0 0 1 7.442.004zm0 0" id="reuse-53"/>
    <path fill="green" fill-rule="evenodd" d="M532.621 323.941a3.721 3.721 0 1 1-7.442-.004 3.721 3.721 0 0 1 7.442.004" id="reuse-52"/>
    <path fill="none" stroke="#000" stroke-linecap="square" stroke-linejoin="bevel" stroke-miterlimit="10" stroke-width=".06" d="M488.04 323.941a2.277 2.277 0 0 1-2.278 2.278 2.278 2.278 0 1 1 0-4.559 2.278 2.278 0 0 1 2.277 2.281zm0 0" id="reuse-51"/>
    <path fill="#fff" fill-rule="evenodd" d="M488.04 323.941a2.277 2.277 0 0 1-2.278 2.278 2.278 2.278 0 1 1 0-4.559 2.278 2.278 0 0 1 2.277 2.281" id="reuse-50"/>
    <path fill="none" stroke="green" stroke-linecap="round" stroke-linejoin="round" stroke-miterlimit="10" stroke-width=".12" d="M489.48 323.941a3.72 3.72 0 0 1-3.718 3.72 3.722 3.722 0 1 1 3.719-3.719zm0 0" id="reuse-49"/>
    <path fill="green" fill-rule="evenodd" d="M489.48 323.941a3.72 3.72 0 0 1-3.718 3.72 3.722 3.722 0 1 1 3.719-3.719" id="reuse-48"/>
    <path fill="none" stroke="#000" stroke-linecap="square" stroke-linejoin="bevel" stroke-miterlimit="10" stroke-width=".06" d="M459.238 323.941a2.277 2.277 0 0 1-2.277 2.278 2.278 2.278 0 1 1 0-4.559 2.278 2.278 0 0 1 2.277 2.281zm0 0" id="reuse-47"/>
    <path fill="#fff" fill-rule="evenodd" d="M459.238 323.941a2.277 2.277 0 0 1-2.277 2.278 2.278 2.278 0 1 1 0-4.559 2.278 2.278 0 0 1 2.277 2.281" id="reuse-46"/>
    <path fill="none" stroke="green" stroke-linecap="round" stroke-linejoin="round" stroke-miterlimit="10" stroke-width=".12" d="M460.68 323.941a3.721 3.721 0 1 1-3.719-3.723 3.721 3.721 0 0 1 3.719 3.723zm0 0" id="reuse-45"/>
    <path fill="green" fill-rule="evenodd" d="M460.68 323.941a3.721 3.721 0 1 1-3.719-3.723 3.721 3.721 0 0 1 3.719 3.723" id="reuse-44"/>
    <path fill="none" stroke="#000" stroke-linecap="square" stroke-linejoin="bevel" stroke-miterlimit="10" stroke-width=".06" d="M401.64 266.398a2.281 2.281 0 0 1-4.562 0 2.28 2.28 0 0 1 4.563 0zm0 0" id="reuse-43"/>
    <path fill="#fff" fill-rule="evenodd" d="M401.64 266.398a2.281 2.281 0 0 1-4.562 0 2.28 2.28 0 0 1 4.563 0" id="reuse-42"/>
    <path fill="none" stroke="green" stroke-linecap="round" stroke-linejoin="round" stroke-miterlimit="10" stroke-width=".12" d="M403.078 266.398a3.721 3.721 0 0 1-3.719 3.723 3.721 3.721 0 0 1 0-7.441 3.718 3.718 0 0 1 3.72 3.718zm0 0" id="reuse-41"/>
    <path fill="green" fill-rule="evenodd" d="M403.078 266.398a3.721 3.721 0 0 1-3.719 3.723 3.721 3.721 0 0 1 0-7.441 3.718 3.718 0 0 1 3.72 3.718" id="reuse-40"/>
    <path fill="none" stroke="#000" stroke-linecap="square" stroke-linejoin="bevel" stroke-miterlimit="10" stroke-width=".06" d="M430.441 266.398a2.281 2.281 0 0 1-4.562 0 2.28 2.28 0 0 1 4.562 0zm0 0" id="reuse-39"/>
    <path fill="#fff" fill-rule="evenodd" d="M430.441 266.398a2.281 2.281 0 0 1-4.562 0 2.28 2.28 0 0 1 4.562 0" id="reuse-38"/>
    <path fill="none" stroke="green" stroke-linecap="round" stroke-linejoin="round" stroke-miterlimit="10" stroke-width=".12" d="M431.879 266.398a3.721 3.721 0 0 1-3.719 3.723 3.721 3.721 0 0 1 0-7.441 3.718 3.718 0 0 1 3.719 3.718zm0 0" id="reuse-37"/>
    <path fill="green" fill-rule="evenodd" d="M431.879 266.398a3.721 3.721 0 0 1-3.719 3.723 3.721 3.721 0 0 1 0-7.441 3.718 3.718 0 0 1 3.719 3.718" id="reuse-36"/>
    <path fill="none" stroke="#000" stroke-linecap="square" stroke-linejoin="bevel" stroke-miterlimit="10" stroke-width=".06" d="M402.48 338.34a3.122 3.122 0 0 1-3.12 3.12 3.122 3.122 0 0 1-3.122-3.12 3.122 3.122 0 0 1 3.121-3.121 3.122 3.122 0 0 1 3.121 3.12zm0 0" id="reuse-35"/>
    <path fill="#fff" fill-rule="evenodd" d="M402.48 338.34a3.122 3.122 0 0 1-3.12 3.12 3.122 3.122 0 0 1-3.122-3.12 3.122 3.122 0 0 1 3.121-3.121 3.122 3.122 0 0 1 3.121 3.12" id="reuse-34"/>
    <path fill="none" stroke="green" stroke-linecap="round" stroke-linejoin="round" stroke-miterlimit="10" stroke-width=".12" d="M404.04 340.262l-2.759 2.758h-3.84l-2.761-2.758v-3.84l2.761-2.762h3.84l2.758 2.762zm0 0" id="reuse-33"/>
    <path fill="green" d="M404.04 340.262l-2.759 2.758h-3.84l-2.761-2.758v-3.84l2.761-2.762h3.84l2.758 2.762v3.84" id="reuse-32"/>
    <path fill="none" stroke="#000" stroke-linecap="square" stroke-linejoin="bevel" stroke-miterlimit="10" stroke-width=".06" d="M402.48 309.602a3.12 3.12 0 0 1-3.12 3.117 3.12 3.12 0 1 1 0-6.239 3.122 3.122 0 0 1 3.12 3.122zm0 0" id="reuse-31"/>
    <path fill="#fff" fill-rule="evenodd" d="M402.48 309.602a3.12 3.12 0 0 1-3.12 3.117 3.12 3.12 0 1 1 0-6.239 3.122 3.122 0 0 1 3.12 3.122" id="reuse-30"/>
    <path fill="none" stroke="green" stroke-linecap="round" stroke-linejoin="round" stroke-miterlimit="10" stroke-width=".12" d="M404.04 311.52l-2.759 2.761h-3.84l-2.761-2.761v-3.84l2.761-2.758h3.84l2.758 2.758zm0 0" id="reuse-29"/>
    <path fill="green" d="M404.04 311.52l-2.759 2.761h-3.84l-2.761-2.761v-3.84l2.761-2.758h3.84l2.758 2.758v3.84" id="reuse-28"/>
    <path fill="none" stroke="#000" stroke-linecap="square" stroke-linejoin="bevel" stroke-miterlimit="10" stroke-width=".06" d="M431.281 309.602a3.12 3.12 0 0 1-3.12 3.117 3.12 3.12 0 1 1 0-6.239 3.122 3.122 0 0 1 3.12 3.122zm0 0" id="reuse-27"/>
    <path fill="#fff" fill-rule="evenodd" d="M431.281 309.602a3.12 3.12 0 0 1-3.12 3.117 3.12 3.12 0 1 1 0-6.239 3.122 3.122 0 0 1 3.12 3.122" id="reuse-26"/>
    <path fill="none" stroke="green" stroke-linecap="round" stroke-linejoin="round" stroke-miterlimit="10" stroke-width=".12" d="M432.84 311.52l-2.762 2.761h-3.84l-2.758-2.761v-3.84l2.758-2.758h3.84l2.762 2.758zm0 0" id="reuse-25"/>
    <path fill="green" d="M432.84 311.52l-2.762 2.761h-3.84l-2.758-2.761v-3.84l2.758-2.758h3.84l2.762 2.758v3.84" id="reuse-24"/>
    <path fill="none" stroke="#000" stroke-linecap="square" stroke-linejoin="bevel" stroke-miterlimit="10" stroke-width=".06" d="M372.84 338.34a2.281 2.281 0 0 1-2.281 2.281 2.28 2.28 0 0 1 0-4.562 2.281 2.281 0 0 1 2.28 2.28zm0 0" id="reuse-23"/>
    <path fill="#fff" fill-rule="evenodd" d="M372.84 338.34a2.281 2.281 0 0 1-2.281 2.281 2.28 2.28 0 0 1 0-4.562 2.281 2.281 0 0 1 2.28 2.28" id="reuse-22"/>
    <path fill="none" stroke="green" stroke-linecap="round" stroke-linejoin="round" stroke-miterlimit="10" stroke-width=".12" d="M374.281 338.34a3.721 3.721 0 0 1-7.441 0 3.721 3.721 0 0 1 7.441 0zm0 0" id="reuse-21"/>
    <path fill="green" fill-rule="evenodd" d="M374.281 338.34a3.721 3.721 0 0 1-7.441 0 3.721 3.721 0 0 1 7.441 0" id="reuse-20"/>
    <path fill="none" stroke="#000" stroke-linecap="square" stroke-linejoin="bevel" stroke-miterlimit="10" stroke-width=".06" d="M372.84 309.602a2.278 2.278 0 0 1-2.281 2.277 2.277 2.277 0 0 1-2.278-2.277 2.278 2.278 0 1 1 4.559 0zm0 0" id="reuse-19"/>
    <path fill="#fff" fill-rule="evenodd" d="M372.84 309.602a2.278 2.278 0 0 1-2.281 2.277 2.277 2.277 0 0 1-2.278-2.277 2.278 2.278 0 1 1 4.559 0" id="reuse-18"/>
    <path fill="none" stroke="green" stroke-linecap="round" stroke-linejoin="round" stroke-miterlimit="10" stroke-width=".12" d="M374.281 309.602a3.72 3.72 0 1 1-3.723-3.723 3.724 3.724 0 0 1 3.723 3.723zm0 0" id="reuse-17"/>
    <path fill="green" fill-rule="evenodd" d="M374.281 309.602a3.72 3.72 0 1 1-3.723-3.723 3.724 3.724 0 0 1 3.723 3.723" id="reuse-16"/>
    <path fill="none" stroke="#000" stroke-linecap="square" stroke-linejoin="bevel" stroke-miterlimit="10" stroke-width=".06" d="M560.52 338.34a2.822 2.822 0 1 1-5.638-.002 2.822 2.822 0 0 1 5.638.002zm0 0" id="reuse-15"/>
    <path fill="#fff" fill-rule="evenodd" d="M560.52 338.34a2.822 2.822 0 1 1-5.638-.002 2.822 2.822 0 0 1 5.638.002" id="reuse-14"/>
    <path fill="none" stroke="green" stroke-linecap="round" stroke-linejoin="round" stroke-miterlimit="10" stroke-width=".12" d="M562.738 338.34a5.039 5.039 0 1 1-10.078 0 5.036 5.036 0 0 1 5.04-5.04 5.036 5.036 0 0 1 5.038 5.04zm0 0" id="reuse-13"/>
    <path fill="green" fill-rule="evenodd" d="M562.738 338.34a5.039 5.039 0 1 1-10.078 0 5.036 5.036 0 0 1 5.04-5.04 5.036 5.036 0 0 1 5.038 5.04" id="reuse-12"/>
    <path fill="none" stroke="#000" stroke-linecap="square" stroke-linejoin="bevel" stroke-miterlimit="10" stroke-width=".06" d="M560.52 323.941a2.822 2.822 0 0 1-2.82 2.82 2.824 2.824 0 0 1-2.821-2.82 2.822 2.822 0 0 1 5.64 0zm0 0" id="reuse-11"/>
    <path fill="#fff" fill-rule="evenodd" d="M560.52 323.941a2.822 2.822 0 0 1-2.82 2.82 2.824 2.824 0 0 1-2.821-2.82 2.822 2.822 0 0 1 5.64 0" id="reuse-10"/>
    <path fill="none" stroke="green" stroke-linecap="round" stroke-linejoin="round" stroke-miterlimit="10" stroke-width=".12" d="M562.738 323.941a5.039 5.039 0 1 1-10.078 0 5.04 5.04 0 1 1 10.078 0zm0 0" id="reuse-9"/>
    <path fill="green" fill-rule="evenodd" d="M562.738 323.941a5.039 5.039 0 1 1-10.078 0 5.04 5.04 0 1 1 10.078 0" id="reuse-8"/>
    <path fill="none" stroke="#000" stroke-linecap="square" stroke-linejoin="bevel" stroke-miterlimit="10" stroke-width=".06" d="M287.04 252.059a2.822 2.822 0 0 1-5.64 0 2.824 2.824 0 0 1 2.819-2.82 2.822 2.822 0 0 1 2.82 2.82zm0 0" id="reuse-7"/>
    <path fill="#fff" fill-rule="evenodd" d="M287.04 252.059a2.822 2.822 0 0 1-5.64 0 2.824 2.824 0 0 1 2.819-2.82 2.822 2.822 0 0 1 2.82 2.82" id="reuse-6"/>
    <path fill="none" stroke="green" stroke-linecap="round" stroke-linejoin="round" stroke-miterlimit="10" stroke-width=".12" d="M289.262 252.059a5.042 5.042 0 1 1-5.043-5.04 5.042 5.042 0 0 1 5.043 5.04zm0 0" id="reuse-5"/>
    <path fill="green" fill-rule="evenodd" d="M289.262 252.059a5.042 5.042 0 1 1-5.043-5.04 5.042 5.042 0 0 1 5.043 5.04" id="reuse-4"/>
    <path fill="none" stroke="#000" stroke-linecap="square" stroke-linejoin="bevel" stroke-miterlimit="10" stroke-width=".06" d="M301.441 309.602a2.824 2.824 0 0 1-2.82 2.82 2.822 2.822 0 0 1 0-5.64 2.822 2.822 0 0 1 2.82 2.82zm0 0" id="reuse-3"/>
    <path fill="#fff" fill-rule="evenodd" d="M301.441 309.602a2.824 2.824 0 0 1-2.82 2.82 2.822 2.822 0 0 1 0-5.64 2.822 2.822 0 0 1 2.82 2.82" id="reuse-2"/>
    <path fill="none" stroke="green" stroke-linecap="round" stroke-linejoin="round" stroke-miterlimit="10" stroke-width=".12" d="M303.66 309.602a5.041 5.041 0 1 1-10.082-.005 5.041 5.041 0 0 1 10.082.005zm0 0" id="reuse-1"/>
    <path fill="green" fill-rule="evenodd" d="M303.66 309.602a5.041 5.041 0 1 1-10.082-.005 5.041 5.041 0 0 1 10.082.005" id="reuse-0"/>
  </defs>
  <defs>
    <symbol id="FM-Super-Regen-2_svg__a" overflow="visible">
      <path d="M1.125 0h-.86v-.172h.313v-1.172H.266v-.172a.61.61 0 0 0 .265-.046c.051-.032.082-.094.094-.188h.188v1.578h.312zm0 0"/>
    </symbol>
    <symbol id="FM-Super-Regen-2_svg__b" overflow="visible">
      <path d="M2.89.11c-.386 0-.734-.07-1.046-.204A2.112 2.112 0 0 1 1-.656a2.521 2.521 0 0 1-.547-.969C.316-2 .253-2.438.266-2.938c0-.488.062-.914.187-1.28A2.62 2.62 0 0 1 1-5.188c.227-.257.504-.457.828-.593.32-.133.68-.203 1.078-.203.196 0 .383.011.563.03.164.032.32.071.469.11.132.043.265.094.39.157l.406.187v.953h-.078c-.062-.062-.148-.14-.25-.234A6.766 6.766 0 0 0 4-5.047a2.575 2.575 0 0 0-.484-.203 3.799 3.799 0 0 0-.61-.078c-.25 0-.492.055-.719.156-.23.106-.43.258-.593.453a2.095 2.095 0 0 0-.375.766c-.094.305-.14.64-.14 1.015 0 .407.046.758.14 1.047.093.293.226.54.406.735.156.199.348.343.578.437.219.106.453.156.703.156.219 0 .426-.03.625-.093.188-.051.36-.117.516-.203.133-.082.258-.164.375-.25.101-.082.187-.157.25-.22h.062v.923a5.584 5.584 0 0 0-.375.187 3.37 3.37 0 0 1-.421.157 2.474 2.474 0 0 1-.47.124 2.89 2.89 0 0 1-.577.047zm0 0"/>
    </symbol>
    <symbol id="FM-Super-Regen-2_svg__c" overflow="visible">
      <path d="M3.766 0H.89v-.594h1.062v-3.953H.891v-.531c.406 0 .703-.055.89-.172.196-.113.305-.332.328-.656h.61v5.312h1.047zm0 0"/>
    </symbol>
    <symbol id="FM-Super-Regen-2_svg__h" overflow="visible">
      <path d="M4-1.875c0 .293-.047.559-.14.797-.094.242-.22.45-.376.625-.168.18-.375.32-.625.422-.25.101-.527.156-.828.156-.281 0-.558-.031-.828-.094a3.098 3.098 0 0 1-.719-.25v-.828h.063c.05.043.14.094.265.156.102.055.227.106.375.157.145.062.286.105.422.125.125.03.27.046.438.046.156 0 .305-.023.453-.078a.976.976 0 0 0 .39-.28c.102-.114.18-.25.235-.407.04-.156.063-.336.063-.547 0-.207-.028-.379-.079-.516a1.025 1.025 0 0 0-.656-.547A2.64 2.64 0 0 0 1.891-3a4.5 4.5 0 0 0-.641.047c-.219.043-.39.074-.516.094v-3.032h3.22v.704H1.5v1.562c.094-.008.188-.02.281-.031h.25c.29 0 .547.027.766.078.195.055.394.148.594.281.187.149.336.336.453.563.101.218.156.507.156.859zm0 0"/>
    </symbol>
    <symbol id="FM-Super-Regen-2_svg__i" overflow="visible">
      <path d="M4.156-1.906c0 .304-.054.578-.156.828-.094.262-.23.476-.406.64-.18.188-.375.329-.594.422-.219.094-.46.141-.719.141-.261 0-.5-.047-.719-.14a1.476 1.476 0 0 1-.578-.391 2.285 2.285 0 0 1-.468-.86C.39-1.617.328-2.055.328-2.578c0-.508.055-.973.172-1.39.102-.415.266-.774.484-1.079a2.32 2.32 0 0 1 .829-.703C2.144-5.914 2.53-6 2.968-6c.133.012.258.023.375.031.113.012.21.032.297.063v.75h-.032a1.353 1.353 0 0 0-.312-.11 1.887 1.887 0 0 0-.422-.046c-.492 0-.887.164-1.188.484-.312.336-.496.828-.546 1.484a2.53 2.53 0 0 1 .578-.312c.195-.07.414-.11.656-.11.227.012.426.04.594.079.176.054.36.148.547.28.207.169.367.372.484.61.102.262.156.559.156.89zm-.812.031a1.75 1.75 0 0 0-.094-.61 1.066 1.066 0 0 0-.297-.421.929.929 0 0 0-.36-.172 2.551 2.551 0 0 0-.39-.031c-.187 0-.371.027-.547.078a3.32 3.32 0 0 0-.515.25v.156a1.128 1.128 0 0 0-.016.203c0 .418.04.75.125 1 .082.25.18.438.297.563a1 1 0 0 0 .36.265.85.85 0 0 0 .374.078c.32 0 .582-.113.781-.343.188-.227.282-.567.282-1.016zm0 0"/>
    </symbol>
    <symbol id="FM-Super-Regen-2_svg__j" overflow="visible">
      <path d="M5.484 1.438a2.508 2.508 0 0 1-.453.078c-.156.02-.312.03-.468.03-.438 0-.793-.124-1.063-.374C3.219.93 3.066.582 3.047.125h-.188a2.59 2.59 0 0 1-1.078-.219A1.888 1.888 0 0 1 .97-.688a2.525 2.525 0 0 1-.531-.953 3.865 3.865 0 0 1-.172-1.296c0-.489.062-.926.187-1.313a2.52 2.52 0 0 1 .516-.953c.219-.258.492-.461.828-.61A2.832 2.832 0 0 1 2.859-6c.395 0 .754.07 1.079.203.32.137.597.336.828.594.218.25.39.57.515.953.125.387.188.824.188 1.313 0 .761-.153 1.386-.453 1.874-.293.5-.7.84-1.22 1.016.009.145.036.274.079.39a.594.594 0 0 0 .14.282c.07.082.16.145.266.188.102.03.242.046.422.046.102.008.227-.007.375-.046.133-.032.234-.06.297-.079h.11zm-.828-4.375a5.1 5.1 0 0 0-.125-1.032c-.086-.3-.203-.55-.36-.75a1.805 1.805 0 0 0-.562-.468 1.964 1.964 0 0 0-.75-.141c-.28 0-.527.047-.734.14a1.536 1.536 0 0 0-.563.47 2.079 2.079 0 0 0-.359.75 3.807 3.807 0 0 0-.125 1.03c0 .774.16 1.36.484 1.766.32.418.754.625 1.297.625.551 0 .989-.207 1.313-.625.312-.406.473-.992.484-1.766zm0 0"/>
    </symbol>
    <symbol id="FM-Super-Regen-2_svg__m" overflow="visible">
      <path d="M5.156 0H4.141L2.266-2.344h-.891V0H.594v-5.89h1.515c.332.011.618.03.86.062.219.031.43.117.64.25.207.137.375.308.5.516.114.21.172.468.172.78 0 .43-.11.79-.328 1.079a1.854 1.854 0 0 1-.89.64zM3.47-4.234a1.636 1.636 0 0 0-.094-.454.93.93 0 0 0-.281-.328 1.28 1.28 0 0 0-.39-.156 7.22 7.22 0 0 0-.548-.047h-.781v2.235h.688c.226 0 .43-.02.609-.063a.913.913 0 0 0 .453-.25 1.04 1.04 0 0 0 .266-.39c.039-.157.066-.336.078-.547zm0 0"/>
    </symbol>
    <symbol id="FM-Super-Regen-2_svg__n" overflow="visible">
      <path d="M4.063 0H.438v-.828c.25-.25.492-.485.734-.703.226-.227.453-.469.672-.719.445-.488.754-.883.922-1.188a2.05 2.05 0 0 0 .25-.906c0-.164-.028-.312-.079-.437a1.13 1.13 0 0 0-.218-.313c-.094-.07-.2-.129-.313-.172A1.361 1.361 0 0 0 2-5.328c-.137 0-.277.023-.422.062a2.359 2.359 0 0 0-.406.125 1.46 1.46 0 0 0-.328.172c-.106.063-.188.117-.25.157H.547v-.844c.164-.082.394-.16.687-.235.29-.07.567-.109.829-.109.539 0 .968.14 1.28.422.313.293.47.687.47 1.187a2.422 2.422 0 0 1-.297 1.188 5.166 5.166 0 0 1-.36.5c-.136.18-.277.344-.422.5-.261.273-.539.555-.828.844l-.734.687h2.89zm0 0"/>
    </symbol>
    <symbol id="FM-Super-Regen-2_svg__q" overflow="visible">
      <path d="M4 0h-.734v-2.516c0-.195-.012-.382-.032-.562a1.428 1.428 0 0 0-.109-.422.616.616 0 0 0-.25-.25 1.138 1.138 0 0 0-.453-.078c-.188 0-.375.047-.563.14a3.42 3.42 0 0 0-.578.391V0h-.75v-4.422h.75v.5c.219-.195.438-.348.657-.453.207-.102.437-.156.687-.156.426 0 .766.14 1.016.422.238.293.359.71.359 1.25zm0 0"/>
    </symbol>
    <symbol id="FM-Super-Regen-2_svg__y" overflow="visible"/>
    <symbol id="FM-Super-Regen-2_svg__z" overflow="visible">
      <path d="M1.703 0H.75v-1.125h.953zm0 0"/>
    </symbol>
    <symbol id="FM-Super-Regen-2_svg__A" overflow="visible"/>
    <symbol id="FM-Super-Regen-2_svg__B" overflow="visible">
      <path d="M4.094-2.938c0 1.055-.157 1.825-.469 2.313-.305.5-.777.75-1.422.75-.648 0-1.121-.25-1.422-.75C.477-1.133.328-1.906.328-2.938c0-1.062.156-1.835.469-2.328.3-.488.77-.734 1.406-.734.645 0 1.125.258 1.438.766.3.511.453 1.277.453 2.296zM3.078-1.155c.07-.188.125-.43.156-.735.032-.289.047-.64.047-1.046 0-.407-.015-.758-.047-1.063a3.292 3.292 0 0 0-.156-.734 1.324 1.324 0 0 0-.328-.47c-.137-.093-.32-.14-.547-.14-.219 0-.398.047-.531.14a1.147 1.147 0 0 0-.344.47 3.38 3.38 0 0 0-.156.765c-.031.305-.047.649-.047 1.031 0 .418.016.762.047 1.032.02.281.07.531.156.75a.89.89 0 0 0 .328.453c.133.117.317.172.547.172a.916.916 0 0 0 .547-.156c.133-.102.242-.258.328-.47zm0 0"/>
    </symbol>
    <symbol id="FM-Super-Regen-2_svg__d" overflow="visible"/>
    <symbol id="FM-Super-Regen-2_svg__e" overflow="visible"/>
    <symbol id="FM-Super-Regen-2_svg__f" overflow="visible">
      <path d="M2.328.078a2.184 2.184 0 0 1-.86-.14 1.717 1.717 0 0 1-.671-.47 1.973 1.973 0 0 1-.438-.765 3.222 3.222 0 0 1-.156-1.062c0-.383.05-.727.156-1.032a2.08 2.08 0 0 1 .438-.765c.187-.207.41-.367.672-.485.25-.101.535-.156.86-.156.155 0 .304.012.452.031.133.024.258.055.375.094.102.031.207.07.313.11.101.054.207.105.312.156v.765h-.047c-.054-.05-.12-.113-.203-.187a3.673 3.673 0 0 0-.328-.219 2.089 2.089 0 0 0-.39-.156 1.888 1.888 0 0 0-.485-.063 1.347 1.347 0 0 0-1.047.485 1.73 1.73 0 0 0-.312.61c-.074.241-.11.51-.11.812 0 .336.04.617.125.843.07.23.176.43.313.594.125.156.281.274.469.344.164.086.351.125.562.125.176 0 .344-.02.5-.063a2.265 2.265 0 0 0 .719-.375c.082-.062.144-.117.187-.171h.047v.75a4.795 4.795 0 0 0-.281.124c-.094.055-.21.102-.344.141-.136.043-.261.07-.375.094-.125.02-.277.031-.453.031zm0 0"/>
    </symbol>
    <symbol id="FM-Super-Regen-2_svg__g" overflow="visible"/>
    <symbol id="FM-Super-Regen-2_svg__o" overflow="visible">
      <path d="M3.203 0H.484v-4.719h.625v4.157h2.094zm0 0"/>
    </symbol>
    <symbol id="FM-Super-Regen-2_svg__p" overflow="visible">
      <path d="M3.016 0H.719v-.484h.86v-3.157h-.86v-.437c.32 0 .562-.047.719-.14.144-.083.226-.255.25-.516h.484v4.25h.844zm0 0"/>
    </symbol>
    <symbol id="FM-Super-Regen-2_svg__u" overflow="visible">
      <path d="M1.36 0H.61v-.906h.75zm0 0"/>
    </symbol>
    <symbol id="FM-Super-Regen-2_svg__v" overflow="visible"/>
    <symbol id="FM-Super-Regen-2_svg__w" overflow="visible">
      <path d="M3.39-1.86c0 .587-.14 1.055-.421 1.407-.281.355-.637.523-1.063.516a1.445 1.445 0 0 1-.468-.047 1.517 1.517 0 0 1-.407-.188v1.469H.438v-4.828h.593v.36a2.51 2.51 0 0 1 .485-.329 1.24 1.24 0 0 1 .593-.14c.407.011.723.171.954.484.218.324.328.758.328 1.297zm-.609.063c0-.394-.062-.707-.187-.937-.137-.22-.344-.329-.625-.329-.18 0-.344.04-.5.11a1.989 1.989 0 0 0-.438.281v2.016c.145.074.274.125.39.156a2 2 0 0 0 .391.031c.301 0 .54-.11.72-.328.163-.226.25-.562.25-1zm0 0"/>
    </symbol>
    <symbol id="FM-Super-Regen-2_svg__x" overflow="visible"/>
    <symbol id="FM-Super-Regen-2_svg__C" overflow="visible"/>
    <symbol id="FM-Super-Regen-2_svg__D" overflow="visible">
      <path d="M3.25 0H.344v-.656c.207-.196.406-.39.594-.578.187-.176.367-.364.546-.563.352-.394.598-.71.735-.953.125-.238.187-.484.187-.734 0-.125-.015-.239-.047-.344a.92.92 0 0 0-.171-.25.752.752 0 0 0-.266-.14.99.99 0 0 0-.313-.048c-.117 0-.23.016-.343.047-.118.032-.227.07-.329.11a1.272 1.272 0 0 0-.265.125c-.086.054-.149.093-.188.125H.438v-.672a3.44 3.44 0 0 1 .546-.188c.239-.062.461-.093.672-.093.438 0 .782.117 1.032.343.25.242.374.559.374.953 0 .188-.023.36-.062.516a2.636 2.636 0 0 1-.188.422c-.085.148-.18.289-.28.422a21.05 21.05 0 0 1-.345.39 9.9 9.9 0 0 1-.671.672c-.243.23-.434.414-.579.547H3.25zm0 0"/>
    </symbol>
    <symbol id="FM-Super-Regen-2_svg__E" overflow="visible">
      <path d="M3.203-1.5c0 .23-.039.438-.11.625-.073.2-.179.371-.312.516a1.371 1.371 0 0 1-.484.328 1.836 1.836 0 0 1-.672.125c-.23 0-.45-.028-.656-.078A2.01 2.01 0 0 1 .39-.172v-.672h.046c.04.043.11.086.204.125.093.055.195.094.312.125.113.055.223.09.328.11.102.023.223.03.36.03.125 0 .242-.019.359-.062a.646.646 0 0 0 .313-.218.972.972 0 0 0 .187-.329c.04-.125.063-.269.063-.437 0-.164-.028-.305-.079-.422a.748.748 0 0 0-.187-.266 1.18 1.18 0 0 0-.344-.171 1.951 1.951 0 0 0-.437-.047c-.168 0-.34.015-.516.047-.18.03-.32.058-.422.078V-4.72h2.594v.563H1.203v1.25c.07-.008.145-.016.219-.016.07 0 .14-.004.203-.015.238 0 .441.023.61.062.163.043.328.121.484.234.156.125.273.278.36.454.081.18.124.406.124.687zm0 0"/>
    </symbol>
    <symbol id="FM-Super-Regen-2_svg__G" overflow="visible">
      <path d="M3.281-2.36c0 .844-.125 1.465-.375 1.86-.242.398-.62.594-1.14.594C1.242.094.863-.102.625-.5.383-.906.265-1.523.265-2.36c0-.843.126-1.46.376-1.859.238-.394.613-.593 1.125-.593.52 0 .898.203 1.14.609.25.418.375 1.031.375 1.844zM2.47-.921a2.22 2.22 0 0 0 .125-.594 6.63 6.63 0 0 0 .047-.843c0-.32-.016-.602-.047-.844a2.22 2.22 0 0 0-.125-.594.82.82 0 0 0-.266-.36.742.742 0 0 0-.437-.124c-.18 0-.32.043-.422.125a.878.878 0 0 0-.282.36 2.293 2.293 0 0 0-.125.608c-.023.25-.03.528-.03.829 0 .336.007.609.03.828.02.23.063.43.125.593a.761.761 0 0 0 .266.375.66.66 0 0 0 .438.141c.175 0 .32-.039.437-.125a.786.786 0 0 0 .266-.375zm0 0"/>
    </symbol>
    <symbol id="FM-Super-Regen-2_svg__H" overflow="visible">
      <path d="M3.36 0h-.782L1.266-1.703l-.235.219V0H.438v-4.922h.593v2.875l1.39-1.484h.75L1.72-2.062zm0 0"/>
    </symbol>
    <symbol id="FM-Super-Regen-2_svg__I" overflow="visible">
      <path d="M3.188 0h-.594v-.39a2.831 2.831 0 0 1-.531.359c-.157.082-.34.125-.547.125-.157 0-.305-.028-.438-.078a.74.74 0 0 1-.36-.235.918.918 0 0 1-.234-.422 1.903 1.903 0 0 1-.078-.593v-2.297H1v2.015c0 .188.004.34.016.454.02.125.05.234.093.328a.45.45 0 0 0 .204.203.802.802 0 0 0 .359.062c.144 0 .3-.039.469-.125.164-.082.316-.18.453-.297v-2.64h.594zm0 0"/>
    </symbol>
    <symbol id="FM-Super-Regen-2_svg__J" overflow="visible">
      <path d="M3.906 0h-.625v-2.313H1.11V0H.484v-4.719h.625v1.86h2.172v-1.86h.625zm0 0"/>
    </symbol>
    <symbol id="FM-Super-Regen-2_svg__k" overflow="visible">
      <path d="M6.453 0H5.187L2.845-2.938h-1.11V0H.75v-7.375h1.906c.414 0 .77.027 1.063.078.281.043.55.149.812.313.25.168.453.382.61.64.144.262.218.586.218.969 0 .543-.136.996-.406 1.36a2.471 2.471 0 0 1-1.125.812zm-2.11-5.297a1.86 1.86 0 0 0-.124-.578 1.09 1.09 0 0 0-.344-.406 1.332 1.332 0 0 0-.484-.188 3.413 3.413 0 0 0-.688-.062h-.969v2.781h.86c.281 0 .531-.023.75-.078.219-.04.41-.14.578-.297.144-.133.25-.3.312-.5a2.48 2.48 0 0 0 .11-.672zm0 0"/>
    </symbol>
    <symbol id="FM-Super-Regen-2_svg__l" overflow="visible">
      <path d="M4.719 0H1.125v-.75h1.328v-4.938H1.125v-.687c.5 0 .867-.066 1.11-.203.238-.145.374-.414.406-.813h.765V-.75H4.72zm0 0"/>
    </symbol>
    <symbol id="FM-Super-Regen-2_svg__F" overflow="visible">
      <path d="M5.266 0H4.03L1.97-2.672l-.36.36V0H.672v-7.703h.937v4.516l2.188-2.344h1.156L2.672-3.22zm0 0"/>
    </symbol>
    <symbol id="FM-Super-Regen-2_svg__r" overflow="visible"/>
    <symbol id="FM-Super-Regen-2_svg__s" overflow="visible"/>
    <symbol id="FM-Super-Regen-2_svg__t" overflow="visible"/>
    <clipPath id="FM-Super-Regen-2_svg__K">
      <path d="M269.762 352H572.16v1H269.762zm0 0"/>
    </clipPath>
    <clipPath id="FM-Super-Regen-2_svg__L">
      <path d="M572 237.602h.16V353H572zm0 0"/>
    </clipPath>
    <clipPath id="FM-Super-Regen-2_svg__M">
      <path d="M269.762 237.602H572.16V238H269.762zm0 0"/>
    </clipPath>
    <clipPath id="FM-Super-Regen-2_svg__N">
      <path d="M269.762 237.602H270V353h-.238zm0 0"/>
    </clipPath>
  </defs>
  <path fill="none" stroke="navy" stroke-linecap="round" stroke-linejoin="round" stroke-miterlimit="10" stroke-width="3.48" d="M428.16 323.941h-57.6m-14.4-14.339v7.199m0 7.14h-57.539m129.539 0v-14.34M557.7 338.34H456.96m0 0v-14.4m-14.401-14.338h14.402m-.001 0v14.34m-28.8-43.142v28.802m0 0h14.399m-86.399 0v14.34m0-.001h14.399m0 0v-14.34m28.801.001V280.8m0 0v-14.402m-28.801 0h28.8m-28.8 71.942H341.82m0 0h-57.6m-.001 0v-71.942m0 0h14.402m-14.402-14.339h28.8M413.762 280.8v-14.402m0 0h14.398m0 0h28.8m0 0v14.403m43.142-28.742h-14.34m0 0v57.543m14.34 14.339h-14.34m0 0v-14.34m0 .001h14.34m28.796 14.339H557.7m-259.079-14.339h28.8"/>
  <use fill-rule="evenodd" xlink:href="#reuse-0"/>
  <use stroke-linecap="round" stroke-linejoin="round" stroke-miterlimit="10" stroke-width=".12" xlink:href="#reuse-1"/>
  <use fill-rule="evenodd" xlink:href="#reuse-2"/>
  <use stroke-linecap="square" stroke-linejoin="bevel" stroke-miterlimit="10" stroke-width=".06" xlink:href="#reuse-3"/>
  <use fill-rule="evenodd" xlink:href="#reuse-4"/>
  <use stroke-linecap="round" stroke-linejoin="round" stroke-miterlimit="10" stroke-width=".12" xlink:href="#reuse-5"/>
  <use fill-rule="evenodd" xlink:href="#reuse-6"/>
  <use stroke-linecap="square" stroke-linejoin="bevel" stroke-miterlimit="10" stroke-width=".06" xlink:href="#reuse-7"/>
  <use fill-rule="evenodd" xlink:href="#reuse-8"/>
  <use stroke-linecap="round" stroke-linejoin="round" stroke-miterlimit="10" stroke-width=".12" xlink:href="#reuse-9"/>
  <use fill-rule="evenodd" xlink:href="#reuse-10"/>
  <use stroke-linecap="square" stroke-linejoin="bevel" stroke-miterlimit="10" stroke-width=".06" xlink:href="#reuse-11"/>
  <use fill-rule="evenodd" xlink:href="#reuse-12"/>
  <use stroke-linecap="round" stroke-linejoin="round" stroke-miterlimit="10" stroke-width=".12" xlink:href="#reuse-13"/>
  <use fill-rule="evenodd" xlink:href="#reuse-14"/>
  <use stroke-linecap="square" stroke-linejoin="bevel" stroke-miterlimit="10" stroke-width=".06" xlink:href="#reuse-15"/>
  <use fill-rule="evenodd" xlink:href="#reuse-16"/>
  <use stroke-linecap="round" stroke-linejoin="round" stroke-miterlimit="10" stroke-width=".12" xlink:href="#reuse-17"/>
  <use fill-rule="evenodd" xlink:href="#reuse-18"/>
  <use stroke-linecap="square" stroke-linejoin="bevel" stroke-miterlimit="10" stroke-width=".06" xlink:href="#reuse-19"/>
  <use fill-rule="evenodd" xlink:href="#reuse-20"/>
  <use stroke-linecap="round" stroke-linejoin="round" stroke-miterlimit="10" stroke-width=".12" xlink:href="#reuse-21"/>
  <use fill-rule="evenodd" xlink:href="#reuse-22"/>
  <use stroke-linecap="square" stroke-linejoin="bevel" stroke-miterlimit="10" stroke-width=".06" xlink:href="#reuse-23"/>
  <use xlink:href="#reuse-24"/>
  <use stroke-linecap="round" stroke-linejoin="round" stroke-miterlimit="10" stroke-width=".12" xlink:href="#reuse-25"/>
  <use fill-rule="evenodd" xlink:href="#reuse-26"/>
  <use stroke-linecap="square" stroke-linejoin="bevel" stroke-miterlimit="10" stroke-width=".06" xlink:href="#reuse-27"/>
  <use xlink:href="#reuse-28"/>
  <use stroke-linecap="round" stroke-linejoin="round" stroke-miterlimit="10" stroke-width=".12" xlink:href="#reuse-29"/>
  <use fill-rule="evenodd" xlink:href="#reuse-30"/>
  <use stroke-linecap="square" stroke-linejoin="bevel" stroke-miterlimit="10" stroke-width=".06" xlink:href="#reuse-31"/>
  <use xlink:href="#reuse-32"/>
  <use stroke-linecap="round" stroke-linejoin="round" stroke-miterlimit="10" stroke-width=".12" xlink:href="#reuse-33"/>
  <use fill-rule="evenodd" xlink:href="#reuse-34"/>
  <use stroke-linecap="square" stroke-linejoin="bevel" stroke-miterlimit="10" stroke-width=".06" xlink:href="#reuse-35"/>
  <use fill-rule="evenodd" xlink:href="#reuse-36"/>
  <use stroke-linecap="round" stroke-linejoin="round" stroke-miterlimit="10" stroke-width=".12" xlink:href="#reuse-37"/>
  <use fill-rule="evenodd" xlink:href="#reuse-38"/>
  <use stroke-linecap="square" stroke-linejoin="bevel" stroke-miterlimit="10" stroke-width=".06" xlink:href="#reuse-39"/>
  <use fill-rule="evenodd" xlink:href="#reuse-40"/>
  <use stroke-linecap="round" stroke-linejoin="round" stroke-miterlimit="10" stroke-width=".12" xlink:href="#reuse-41"/>
  <use fill-rule="evenodd" xlink:href="#reuse-42"/>
  <use stroke-linecap="square" stroke-linejoin="bevel" stroke-miterlimit="10" stroke-width=".06" xlink:href="#reuse-43"/>
  <use fill-rule="evenodd" xlink:href="#reuse-44"/>
  <use stroke-linecap="round" stroke-linejoin="round" stroke-miterlimit="10" stroke-width=".12" xlink:href="#reuse-45"/>
  <use fill-rule="evenodd" xlink:href="#reuse-46"/>
  <use stroke-linecap="square" stroke-linejoin="bevel" stroke-miterlimit="10" stroke-width=".06" xlink:href="#reuse-47"/>
  <use fill-rule="evenodd" xlink:href="#reuse-48"/>
  <use stroke-linecap="round" stroke-linejoin="round" stroke-miterlimit="10" stroke-width=".12" xlink:href="#reuse-49"/>
  <use fill-rule="evenodd" xlink:href="#reuse-50"/>
  <use stroke-linecap="square" stroke-linejoin="bevel" stroke-miterlimit="10" stroke-width=".06" xlink:href="#reuse-51"/>
  <use fill-rule="evenodd" xlink:href="#reuse-52"/>
  <use stroke-linecap="round" stroke-linejoin="round" stroke-miterlimit="10" stroke-width=".12" xlink:href="#reuse-53"/>
  <use fill-rule="evenodd" xlink:href="#reuse-54"/>
  <use stroke-linecap="square" stroke-linejoin="bevel" stroke-miterlimit="10" stroke-width=".06" xlink:href="#reuse-55"/>
  <use fill-rule="evenodd" xlink:href="#reuse-56"/>
  <use stroke-linecap="round" stroke-linejoin="round" stroke-miterlimit="10" stroke-width=".12" xlink:href="#reuse-57"/>
  <use fill-rule="evenodd" xlink:href="#reuse-58"/>
  <use stroke-linecap="square" stroke-linejoin="bevel" stroke-miterlimit="10" stroke-width=".06" xlink:href="#reuse-59"/>
  <use fill-rule="evenodd" xlink:href="#reuse-60"/>
  <use stroke-linecap="round" stroke-linejoin="round" stroke-miterlimit="10" stroke-width=".12" xlink:href="#reuse-61"/>
  <use fill-rule="evenodd" xlink:href="#reuse-62"/>
  <use stroke-linecap="square" stroke-linejoin="bevel" stroke-miterlimit="10" stroke-width=".06" xlink:href="#reuse-63"/>
  <use fill-rule="evenodd" xlink:href="#reuse-64"/>
  <use stroke-linecap="round" stroke-linejoin="round" stroke-miterlimit="10" stroke-width=".12" xlink:href="#reuse-65"/>
  <use fill-rule="evenodd" xlink:href="#reuse-66"/>
  <use stroke-linecap="square" stroke-linejoin="bevel" stroke-miterlimit="10" stroke-width=".06" xlink:href="#reuse-67"/>
  <use fill-rule="evenodd" xlink:href="#reuse-68"/>
  <use stroke-linecap="round" stroke-linejoin="round" stroke-miterlimit="10" stroke-width=".12" xlink:href="#reuse-69"/>
  <use fill-rule="evenodd" xlink:href="#reuse-70"/>
  <use stroke-linecap="square" stroke-linejoin="bevel" stroke-miterlimit="10" stroke-width=".06" xlink:href="#reuse-71"/>
  <use fill-rule="evenodd" xlink:href="#reuse-72"/>
  <use stroke-linecap="round" stroke-linejoin="round" stroke-miterlimit="10" stroke-width=".12" xlink:href="#reuse-73"/>
  <use fill-rule="evenodd" xlink:href="#reuse-74"/>
  <use stroke-linecap="square" stroke-linejoin="bevel" stroke-miterlimit="10" stroke-width=".06" xlink:href="#reuse-75"/>
  <use fill-rule="evenodd" xlink:href="#reuse-76"/>
  <use stroke-linecap="round" stroke-linejoin="round" stroke-miterlimit="10" stroke-width=".12" xlink:href="#reuse-77"/>
  <use fill-rule="evenodd" xlink:href="#reuse-78"/>
  <use stroke-linecap="square" stroke-linejoin="bevel" stroke-miterlimit="10" stroke-width=".06" xlink:href="#reuse-79"/>
  <use xlink:href="#reuse-80"/>
  <use stroke-linecap="round" stroke-linejoin="round" stroke-miterlimit="10" stroke-width=".12" xlink:href="#reuse-81"/>
  <use fill-rule="evenodd" xlink:href="#reuse-82"/>
  <use stroke-linecap="square" stroke-linejoin="bevel" stroke-miterlimit="10" stroke-width=".06" xlink:href="#reuse-83"/>
  <use xlink:href="#reuse-84"/>
  <use stroke-linecap="round" stroke-linejoin="round" stroke-miterlimit="10" stroke-width=".12" xlink:href="#reuse-85"/>
  <use fill-rule="evenodd" xlink:href="#reuse-86"/>
  <use stroke-linecap="square" stroke-linejoin="bevel" stroke-miterlimit="10" stroke-width=".06" xlink:href="#reuse-87"/>
  <use xlink:href="#reuse-88"/>
  <use stroke-linecap="round" stroke-linejoin="round" stroke-miterlimit="10" stroke-width=".12" xlink:href="#reuse-89"/>
  <use fill-rule="evenodd" xlink:href="#reuse-90"/>
  <use stroke-linecap="square" stroke-linejoin="bevel" stroke-miterlimit="10" stroke-width=".06" xlink:href="#reuse-91"/>
  <use fill-rule="evenodd" xlink:href="#reuse-92"/>
  <use stroke-linecap="round" stroke-linejoin="round" stroke-miterlimit="10" stroke-width=".12" xlink:href="#reuse-93"/>
  <use fill-rule="evenodd" xlink:href="#reuse-94"/>
  <use stroke-linecap="square" stroke-linejoin="bevel" stroke-miterlimit="10" stroke-width=".06" xlink:href="#reuse-95"/>
  <use fill-rule="evenodd" xlink:href="#reuse-96"/>
  <use stroke-linecap="round" stroke-linejoin="round" stroke-miterlimit="10" stroke-width=".12" xlink:href="#reuse-97"/>
  <use fill-rule="evenodd" xlink:href="#reuse-98"/>
  <use stroke-linecap="square" stroke-linejoin="bevel" stroke-miterlimit="10" stroke-width=".06" xlink:href="#reuse-99"/>
  <use fill-rule="evenodd" xlink:href="#reuse-100"/>
  <use stroke-linecap="round" stroke-linejoin="round" stroke-miterlimit="10" stroke-width=".12" xlink:href="#reuse-101"/>
  <use fill-rule="evenodd" xlink:href="#reuse-102"/>
  <use stroke-linecap="square" stroke-linejoin="bevel" stroke-miterlimit="10" stroke-width=".06" xlink:href="#reuse-103"/>
  <use fill-rule="evenodd" xlink:href="#reuse-104"/>
  <use stroke-linecap="round" stroke-linejoin="round" stroke-miterlimit="10" stroke-width=".12" xlink:href="#reuse-105"/>
  <use fill-rule="evenodd" xlink:href="#reuse-106"/>
  <use stroke-linecap="square" stroke-linejoin="bevel" stroke-miterlimit="10" stroke-width=".06" xlink:href="#reuse-107"/>
  <use fill-rule="evenodd" xlink:href="#reuse-108"/>
  <use stroke-linecap="round" stroke-linejoin="round" stroke-miterlimit="10" stroke-width=".12" xlink:href="#reuse-109"/>
  <use fill-rule="evenodd" xlink:href="#reuse-110"/>
  <use stroke-linecap="square" stroke-linejoin="bevel" stroke-miterlimit="10" stroke-width=".06" xlink:href="#reuse-111"/>
  <use stroke-linecap="round" stroke-linejoin="round" stroke-miterlimit="10" stroke-width=".12" xlink:href="#reuse-112"/>
  <use fill-rule="evenodd" xlink:href="#reuse-113"/>
  <use stroke-linecap="square" stroke-linejoin="bevel" stroke-miterlimit="10" stroke-width=".06" xlink:href="#reuse-114"/>
  <use fill-rule="evenodd" xlink:href="#reuse-115"/>
  <use stroke-linecap="round" stroke-linejoin="round" stroke-miterlimit="10" stroke-width=".12" xlink:href="#reuse-116"/>
  <use fill-rule="evenodd" xlink:href="#reuse-117"/>
  <use stroke-linecap="square" stroke-linejoin="bevel" stroke-miterlimit="10" stroke-width=".06" xlink:href="#reuse-118"/>
  <use fill-rule="evenodd" xlink:href="#reuse-119"/>
  <use stroke-linecap="round" stroke-linejoin="round" stroke-miterlimit="10" stroke-width=".12" xlink:href="#reuse-120"/>
  <use fill-rule="evenodd" xlink:href="#reuse-121"/>
  <use stroke-linecap="square" stroke-linejoin="bevel" stroke-miterlimit="10" stroke-width=".06" xlink:href="#reuse-122"/>
  <use fill-rule="evenodd" xlink:href="#reuse-0"/>
  <use stroke-linecap="round" stroke-linejoin="round" stroke-miterlimit="10" stroke-width=".12" xlink:href="#reuse-1"/>
  <use fill-rule="evenodd" xlink:href="#reuse-2"/>
  <use stroke-linecap="square" stroke-linejoin="bevel" stroke-miterlimit="10" stroke-width=".06" xlink:href="#reuse-3"/>
  <use fill-rule="evenodd" xlink:href="#reuse-4"/>
  <use stroke-linecap="round" stroke-linejoin="round" stroke-miterlimit="10" stroke-width=".12" xlink:href="#reuse-5"/>
  <use fill-rule="evenodd" xlink:href="#reuse-6"/>
  <use stroke-linecap="square" stroke-linejoin="bevel" stroke-miterlimit="10" stroke-width=".06" xlink:href="#reuse-7"/>
  <use fill-rule="evenodd" xlink:href="#reuse-8"/>
  <use stroke-linecap="round" stroke-linejoin="round" stroke-miterlimit="10" stroke-width=".12" xlink:href="#reuse-9"/>
  <use fill-rule="evenodd" xlink:href="#reuse-10"/>
  <use stroke-linecap="square" stroke-linejoin="bevel" stroke-miterlimit="10" stroke-width=".06" xlink:href="#reuse-11"/>
  <use fill-rule="evenodd" xlink:href="#reuse-12"/>
  <use stroke-linecap="round" stroke-linejoin="round" stroke-miterlimit="10" stroke-width=".12" xlink:href="#reuse-13"/>
  <use fill-rule="evenodd" xlink:href="#reuse-14"/>
  <use stroke-linecap="square" stroke-linejoin="bevel" stroke-miterlimit="10" stroke-width=".06" xlink:href="#reuse-15"/>
  <use fill-rule="evenodd" xlink:href="#reuse-16"/>
  <use stroke-linecap="round" stroke-linejoin="round" stroke-miterlimit="10" stroke-width=".12" xlink:href="#reuse-17"/>
  <use fill-rule="evenodd" xlink:href="#reuse-18"/>
  <use stroke-linecap="square" stroke-linejoin="bevel" stroke-miterlimit="10" stroke-width=".06" xlink:href="#reuse-19"/>
  <use fill-rule="evenodd" xlink:href="#reuse-20"/>
  <use stroke-linecap="round" stroke-linejoin="round" stroke-miterlimit="10" stroke-width=".12" xlink:href="#reuse-21"/>
  <use fill-rule="evenodd" xlink:href="#reuse-22"/>
  <use stroke-linecap="square" stroke-linejoin="bevel" stroke-miterlimit="10" stroke-width=".06" xlink:href="#reuse-23"/>
  <use xlink:href="#reuse-24"/>
  <use stroke-linecap="round" stroke-linejoin="round" stroke-miterlimit="10" stroke-width=".12" xlink:href="#reuse-25"/>
  <use fill-rule="evenodd" xlink:href="#reuse-26"/>
  <use stroke-linecap="square" stroke-linejoin="bevel" stroke-miterlimit="10" stroke-width=".06" xlink:href="#reuse-27"/>
  <use xlink:href="#reuse-28"/>
  <use stroke-linecap="round" stroke-linejoin="round" stroke-miterlimit="10" stroke-width=".12" xlink:href="#reuse-29"/>
  <use fill-rule="evenodd" xlink:href="#reuse-30"/>
  <use stroke-linecap="square" stroke-linejoin="bevel" stroke-miterlimit="10" stroke-width=".06" xlink:href="#reuse-31"/>
  <use xlink:href="#reuse-32"/>
  <use stroke-linecap="round" stroke-linejoin="round" stroke-miterlimit="10" stroke-width=".12" xlink:href="#reuse-33"/>
  <use fill-rule="evenodd" xlink:href="#reuse-34"/>
  <use stroke-linecap="square" stroke-linejoin="bevel" stroke-miterlimit="10" stroke-width=".06" xlink:href="#reuse-35"/>
  <use fill-rule="evenodd" xlink:href="#reuse-36"/>
  <use stroke-linecap="round" stroke-linejoin="round" stroke-miterlimit="10" stroke-width=".12" xlink:href="#reuse-37"/>
  <use fill-rule="evenodd" xlink:href="#reuse-38"/>
  <use stroke-linecap="square" stroke-linejoin="bevel" stroke-miterlimit="10" stroke-width=".06" xlink:href="#reuse-39"/>
  <use fill-rule="evenodd" xlink:href="#reuse-40"/>
  <use stroke-linecap="round" stroke-linejoin="round" stroke-miterlimit="10" stroke-width=".12" xlink:href="#reuse-41"/>
  <use fill-rule="evenodd" xlink:href="#reuse-42"/>
  <use stroke-linecap="square" stroke-linejoin="bevel" stroke-miterlimit="10" stroke-width=".06" xlink:href="#reuse-43"/>
  <use fill-rule="evenodd" xlink:href="#reuse-44"/>
  <use stroke-linecap="round" stroke-linejoin="round" stroke-miterlimit="10" stroke-width=".12" xlink:href="#reuse-45"/>
  <use fill-rule="evenodd" xlink:href="#reuse-46"/>
  <use stroke-linecap="square" stroke-linejoin="bevel" stroke-miterlimit="10" stroke-width=".06" xlink:href="#reuse-47"/>
  <use fill-rule="evenodd" xlink:href="#reuse-48"/>
  <use stroke-linecap="round" stroke-linejoin="round" stroke-miterlimit="10" stroke-width=".12" xlink:href="#reuse-49"/>
  <use fill-rule="evenodd" xlink:href="#reuse-50"/>
  <use stroke-linecap="square" stroke-linejoin="bevel" stroke-miterlimit="10" stroke-width=".06" xlink:href="#reuse-51"/>
  <use fill-rule="evenodd" xlink:href="#reuse-52"/>
  <use stroke-linecap="round" stroke-linejoin="round" stroke-miterlimit="10" stroke-width=".12" xlink:href="#reuse-53"/>
  <use fill-rule="evenodd" xlink:href="#reuse-54"/>
  <use stroke-linecap="square" stroke-linejoin="bevel" stroke-miterlimit="10" stroke-width=".06" xlink:href="#reuse-55"/>
  <use fill-rule="evenodd" xlink:href="#reuse-56"/>
  <use stroke-linecap="round" stroke-linejoin="round" stroke-miterlimit="10" stroke-width=".12" xlink:href="#reuse-57"/>
  <use fill-rule="evenodd" xlink:href="#reuse-58"/>
  <use stroke-linecap="square" stroke-linejoin="bevel" stroke-miterlimit="10" stroke-width=".06" xlink:href="#reuse-59"/>
  <use fill-rule="evenodd" xlink:href="#reuse-60"/>
  <use stroke-linecap="round" stroke-linejoin="round" stroke-miterlimit="10" stroke-width=".12" xlink:href="#reuse-61"/>
  <use fill-rule="evenodd" xlink:href="#reuse-62"/>
  <use stroke-linecap="square" stroke-linejoin="bevel" stroke-miterlimit="10" stroke-width=".06" xlink:href="#reuse-63"/>
  <use fill-rule="evenodd" xlink:href="#reuse-64"/>
  <use stroke-linecap="round" stroke-linejoin="round" stroke-miterlimit="10" stroke-width=".12" xlink:href="#reuse-65"/>
  <use fill-rule="evenodd" xlink:href="#reuse-66"/>
  <use stroke-linecap="square" stroke-linejoin="bevel" stroke-miterlimit="10" stroke-width=".06" xlink:href="#reuse-67"/>
  <use fill-rule="evenodd" xlink:href="#reuse-68"/>
  <use stroke-linecap="round" stroke-linejoin="round" stroke-miterlimit="10" stroke-width=".12" xlink:href="#reuse-69"/>
  <use fill-rule="evenodd" xlink:href="#reuse-70"/>
  <use stroke-linecap="square" stroke-linejoin="bevel" stroke-miterlimit="10" stroke-width=".06" xlink:href="#reuse-71"/>
  <use fill-rule="evenodd" xlink:href="#reuse-72"/>
  <use stroke-linecap="round" stroke-linejoin="round" stroke-miterlimit="10" stroke-width=".12" xlink:href="#reuse-73"/>
  <use fill-rule="evenodd" xlink:href="#reuse-74"/>
  <use stroke-linecap="square" stroke-linejoin="bevel" stroke-miterlimit="10" stroke-width=".06" xlink:href="#reuse-75"/>
  <use fill-rule="evenodd" xlink:href="#reuse-76"/>
  <use stroke-linecap="round" stroke-linejoin="round" stroke-miterlimit="10" stroke-width=".12" xlink:href="#reuse-77"/>
  <use fill-rule="evenodd" xlink:href="#reuse-78"/>
  <use stroke-linecap="square" stroke-linejoin="bevel" stroke-miterlimit="10" stroke-width=".06" xlink:href="#reuse-79"/>
  <use xlink:href="#reuse-80"/>
  <use stroke-linecap="round" stroke-linejoin="round" stroke-miterlimit="10" stroke-width=".12" xlink:href="#reuse-81"/>
  <use fill-rule="evenodd" xlink:href="#reuse-82"/>
  <use stroke-linecap="square" stroke-linejoin="bevel" stroke-miterlimit="10" stroke-width=".06" xlink:href="#reuse-83"/>
  <use xlink:href="#reuse-84"/>
  <use stroke-linecap="round" stroke-linejoin="round" stroke-miterlimit="10" stroke-width=".12" xlink:href="#reuse-85"/>
  <use fill-rule="evenodd" xlink:href="#reuse-86"/>
  <use stroke-linecap="square" stroke-linejoin="bevel" stroke-miterlimit="10" stroke-width=".06" xlink:href="#reuse-87"/>
  <use xlink:href="#reuse-88"/>
  <use stroke-linecap="round" stroke-linejoin="round" stroke-miterlimit="10" stroke-width=".12" xlink:href="#reuse-89"/>
  <use fill-rule="evenodd" xlink:href="#reuse-90"/>
  <use stroke-linecap="square" stroke-linejoin="bevel" stroke-miterlimit="10" stroke-width=".06" xlink:href="#reuse-91"/>
  <use fill-rule="evenodd" xlink:href="#reuse-92"/>
  <use stroke-linecap="round" stroke-linejoin="round" stroke-miterlimit="10" stroke-width=".12" xlink:href="#reuse-93"/>
  <use fill-rule="evenodd" xlink:href="#reuse-94"/>
  <use stroke-linecap="square" stroke-linejoin="bevel" stroke-miterlimit="10" stroke-width=".06" xlink:href="#reuse-95"/>
  <use fill-rule="evenodd" xlink:href="#reuse-96"/>
  <use stroke-linecap="round" stroke-linejoin="round" stroke-miterlimit="10" stroke-width=".12" xlink:href="#reuse-97"/>
  <use fill-rule="evenodd" xlink:href="#reuse-98"/>
  <use stroke-linecap="square" stroke-linejoin="bevel" stroke-miterlimit="10" stroke-width=".06" xlink:href="#reuse-99"/>
  <use fill-rule="evenodd" xlink:href="#reuse-100"/>
  <use stroke-linecap="round" stroke-linejoin="round" stroke-miterlimit="10" stroke-width=".12" xlink:href="#reuse-101"/>
  <use fill-rule="evenodd" xlink:href="#reuse-102"/>
  <use stroke-linecap="square" stroke-linejoin="bevel" stroke-miterlimit="10" stroke-width=".06" xlink:href="#reuse-103"/>
  <use fill-rule="evenodd" xlink:href="#reuse-104"/>
  <use stroke-linecap="round" stroke-linejoin="round" stroke-miterlimit="10" stroke-width=".12" xlink:href="#reuse-105"/>
  <use fill-rule="evenodd" xlink:href="#reuse-106"/>
  <use stroke-linecap="square" stroke-linejoin="bevel" stroke-miterlimit="10" stroke-width=".06" xlink:href="#reuse-107"/>
  <use fill-rule="evenodd" xlink:href="#reuse-108"/>
  <use stroke-linecap="round" stroke-linejoin="round" stroke-miterlimit="10" stroke-width=".12" xlink:href="#reuse-109"/>
  <use fill-rule="evenodd" xlink:href="#reuse-110"/>
  <use stroke-linecap="square" stroke-linejoin="bevel" stroke-miterlimit="10" stroke-width=".06" xlink:href="#reuse-111"/>
  <use stroke-linecap="round" stroke-linejoin="round" stroke-miterlimit="10" stroke-width=".12" xlink:href="#reuse-112"/>
  <use fill-rule="evenodd" xlink:href="#reuse-113"/>
  <use stroke-linecap="square" stroke-linejoin="bevel" stroke-miterlimit="10" stroke-width=".06" xlink:href="#reuse-114"/>
  <use fill-rule="evenodd" xlink:href="#reuse-115"/>
  <use stroke-linecap="round" stroke-linejoin="round" stroke-miterlimit="10" stroke-width=".12" xlink:href="#reuse-116"/>
  <use fill-rule="evenodd" xlink:href="#reuse-117"/>
  <use stroke-linecap="square" stroke-linejoin="bevel" stroke-miterlimit="10" stroke-width=".06" xlink:href="#reuse-118"/>
  <use fill-rule="evenodd" xlink:href="#reuse-119"/>
  <use stroke-linecap="round" stroke-linejoin="round" stroke-miterlimit="10" stroke-width=".12" xlink:href="#reuse-120"/>
  <use fill-rule="evenodd" xlink:href="#reuse-121"/>
  <use stroke-linecap="square" stroke-linejoin="bevel" stroke-miterlimit="10" stroke-width=".06" xlink:href="#reuse-122"/>
  <path fill="none" stroke="#505050" stroke-linecap="round" stroke-linejoin="round" stroke-miterlimit="10" stroke-width=".3" d="M291.48 312.602l.48-.48m0-.001v-1.082m0 .001l-.48-.54m0 0h-2.16m0 0l-.48.54m0 0v1.081m0 0l.48.48m0 .001h.54m0 0l.538-.48m0-.001V310.5m-1.558-1.078h2.101m0 0l1.02-1.024m-.001 0l-1.019-1.078m0 0h-2.101m-11.219-50.64h-2.16m-.001 0l-1.019-1.078m0 0l1.02-1.024m-.001 0h2.161M276 256.68v-2.102m1.621-1.078h-3.18m0 0l3.18-2.102m0 0h-3.18m3.18-2.16h-3.18m0 1.082v-2.101M567.48 331.8h-2.101m0 0l-1.078-1.081m-.001 0l1.079-1.078m0-.001h2.101m-1.558 2.16v-2.16M564.3 327v1.078m0 0l.54.543m0 0h2.101m0 0l.54-.543m-.001 0V327m0 0l-.539-.54m0 0h-2.101m0 0l-.54.54m0-1.559h2.641m0 0l.54-.543m-.001 0v-1.078m0 0l-.539-.539m0 0h-2.64m3.179-2.101h-3.18m0 1.082v-2.16m1.622-1.024v-2.156M564.84 318h2.101m.539 28.14h-2.101m0 0l-1.078-1.019m-.001 0l1.079-1.082m0 .001h2.101m-1.558 2.1v-2.1m-1.622-2.642v1.082m0 0l.54.48m0 0h2.101m0 0l.54-.48m-.001 0v-1.082m0 0l-.539-.539m0 .001h-2.101m0 0l-.54.538m0-1.617h2.641m0 0l.54-.48m-.001-.001v-1.081m0 0l-.539-.54m0 .001h-2.64m3.179-2.102h-3.18m0 1.024V334.5m1.622-1.078v-2.102"/>
  <path fill="none" stroke="#505050" stroke-linecap="round" stroke-linejoin="round" stroke-miterlimit="10" stroke-width=".72" d="M366.96 328.98l.118.84.242.72.418.722.602.539.66.418.781.3.778.06m-3.599-13.619v10.02m3.599-13.62l-.778.062-.781.297-.66.422-.602.539-.418.718-.242.723-.117.84m7.199-.001l-.058-.839-.301-.723-.422-.718-.54-.54-.718-.421-.723-.297-.84-.063m3.602 13.621v-10.02m-3.601 13.618l.84-.058.722-.301.719-.418.539-.54.422-.722.3-.719.06-.84"/>
  <path fill="#505050" stroke="#505050" stroke-linecap="round" stroke-linejoin="round" stroke-miterlimit="10" stroke-width=".12" d="M367.68 326.102h5.761v-1.442h-5.761zm0-2.821h5.761v-1.441h-5.761zm0 0"/>
  <path fill="none" stroke="#505050" stroke-linecap="round" stroke-linejoin="round" stroke-miterlimit="10" stroke-width=".72" d="M366.96 328.98l.118.84.242.72.418.722.602.539.66.418.781.3.778.06M391.8 309.3l3.66-3.6m-.062 7.859l-4.796-4.797m0 0l-1.864 1.86m0-.001l-.117 2.098m0 0l-.18 2.16m0 0l4.86 4.86m15.961-16.439l-4.621-4.62m-.001 0l-2.16.18m0 0l-2.101.12m0 0l-1.86 1.86m.001 0l4.859 4.8m-3.899-3.96l-4.02 4.02M408 327.54l9.36-9.36m-7.079 11.699l9.36-9.36m-18.063-16.499l-7.738 7.8m26.82 12.121a6.9 6.9 0 1 1-13.8-.003 6.9 6.9 0 0 1 13.8.003zm0 0"/>
  <path fill="#505050" fill-rule="evenodd" d="M401.762 301.98l.117-.66.36-.601.6-.418.72-.121.66.12.601.419.36.601.18.66-.18.72-.36.538-.601.422-.66.121-.72-.12-.6-.423-.36-.539-.117-.719h.718l.06-.421.241-.36.36-.18.418-.12.363.12.36.18.238.36.12.421-.12.418-.239.364-.36.238-.362.059-.418-.059-.36-.238-.242-.364-.059-.418h-.718"/>
  <path fill="none" stroke="#505050" stroke-linecap="round" stroke-linejoin="round" stroke-miterlimit="10" stroke-width=".12" d="M401.762 301.98l.117-.66.36-.601.6-.418.72-.121.66.12.601.419.36.601.18.66-.18.72-.36.538-.601.422-.66.121-.72-.12-.6-.423-.36-.539-.117-.719h.718l.06-.421.241-.36.36-.18.418-.12.363.12.36.18.238.36.12.421-.12.418-.239.364-.36.238-.362.059-.418-.059-.36-.238-.242-.364-.059-.418zm0 0"/>
  <path fill="#505050" fill-rule="evenodd" d="M389.879 313.8l.121-.722.36-.539.6-.418.72-.121.66.121.601.418.36.54.18.722-.18.66-.36.598-.601.363-.66.18-.72-.18-.6-.363-.36-.598-.121-.66h.723l.058-.422.238-.36.364-.238.418-.062.36.062.358.239.243.359.12.422-.12.418-.243.3-.359.243-.36.117-.417-.117-.364-.242-.238-.301-.058-.418h-.723"/>
  <path fill="none" stroke="#505050" stroke-linecap="round" stroke-linejoin="round" stroke-miterlimit="10" stroke-width=".12" d="M389.879 313.8l.121-.722.36-.539.6-.418.72-.121.66.121.601.418.36.54.18.722-.18.66-.36.598-.601.363-.66.18-.72-.18-.6-.363-.36-.598-.121-.66h.723l.058-.422.238-.36.364-.238.418-.062.36.062.358.239.243.359.12.422-.12.418-.243.3-.359.243-.36.117-.417-.117-.364-.242-.238-.301-.058-.418zm0 0"/>
  <path fill="none" stroke="#505050" stroke-linecap="round" stroke-linejoin="round" stroke-miterlimit="10" stroke-width=".72" d="M434.578 323.941c0 11.465-9.32 20.758-20.816 20.758-11.5 0-20.82-9.293-20.82-20.758 0-11.464 9.32-20.761 20.82-20.761 11.496 0 20.816 9.297 20.816 20.761zm0 0"/>
  <path fill="none" stroke="#505050" stroke-linecap="round" stroke-linejoin="round" stroke-miterlimit="10" stroke-width=".72" d="M432.96 323.941c0 10.602-8.597 19.2-19.198 19.2-10.606 0-19.203-8.598-19.203-19.2 0-10.605 8.597-19.203 19.203-19.203 10.601 0 19.199 8.598 19.199 19.203zm-24.241-61.081l-.778.062-.78.238-.661.48-.602.54-.418.66-.242.781-.117.777m13.679-3.538h-10.08m13.678 3.538l-.117-.777-.242-.781-.418-.66-.601-.54-.66-.48-.782-.238-.777-.063M418.8 270l.778-.059.781-.3.66-.422.602-.54.418-.718.242-.723.117-.84M408.719 270H418.8m-13.679-3.602l.117.84.242.723.418.719.602.539.66.422.781.3.778.059"/>
  <path fill="#505050" stroke="#505050" stroke-linecap="round" stroke-linejoin="round" stroke-miterlimit="10" stroke-width=".12" d="M411.602 269.281h1.437v-5.761h-1.437zm2.878 0h1.438v-5.761h-1.438zm0 0"/>
  <path fill="none" stroke="#505050" stroke-linecap="round" stroke-linejoin="round" stroke-miterlimit="10" stroke-width=".72" d="M408.719 262.86l-.778.062-.78.238-.661.48-.602.54-.418.66-.242.781-.117.777"/>
  <path fill="none" stroke="#505050" stroke-linecap="round" stroke-linejoin="round" stroke-miterlimit="10" stroke-width=".6" d="M461.281 327.54h20.16m-22.32-2.161v-2.82m2.16-2.161l-.66.063-.601.3-.48.477-.302.602-.117.719m22.32-2.161h-20.16"/>
  <path fill="#505050" stroke="#505050" stroke-linecap="round" stroke-linejoin="round" stroke-miterlimit="10" stroke-width=".12" d="M472.078 326.82h1.442v-5.761h-1.442zm-2.878 0h1.44v-5.761h-1.44zm0 0"/>
  <path fill="none" stroke="#505050" stroke-linecap="round" stroke-linejoin="round" stroke-miterlimit="10" stroke-width=".6" d="M459.121 325.379l.117.723.301.597.48.48.602.301.66.06m22.321-4.981v2.82m-2.161 2.161l.66-.06.598-.3.48-.48.301-.598.122-.723m0-2.82l-.122-.72-.3-.6-.48-.477-.598-.301-.66-.063m43.136 0h-20.156m22.316 2.161v2.82m-2.16 2.161l.66-.06.602-.3.48-.48.36-.598.058-.723m-22.316 2.161h20.156"/>
  <path fill="#505050" stroke="#505050" stroke-linecap="round" stroke-linejoin="round" stroke-miterlimit="10" stroke-width=".12" d="M512.34 326.82h1.441v-5.761h-1.441zm2.879 0h1.441v-5.761h-1.441zm0 0"/>
  <path fill="none" stroke="#505050" stroke-linecap="round" stroke-linejoin="round" stroke-miterlimit="10" stroke-width=".6" d="M526.738 322.559l-.058-.72-.36-.6-.48-.477-.602-.301-.66-.063m-22.316 4.981v-2.82m2.16-2.161l-.66.063-.602.3-.48.477-.301.602-.117.719m0 2.82l.117.723.3.597.481.48.602.301.66.06"/>
  <path fill="none" stroke="#505050" stroke-linecap="round" stroke-linejoin="round" stroke-miterlimit="10" stroke-width=".3" d="M289.32 326.46l-.48.54m0 0v1.078m0 0l.48.543m0 0h2.16m0 0l.48-.543m0 0V327m0 0l-.48-.54m0 0h-1.082m0 0v1.08m1.562-2.099h-3.12m0 0l3.12-2.16m0 0h-3.12m0-1.019h3.12m0 0v-1.621m0-.001l-.48-.538m0 0h-2.16m0 0l-.48.539m0-.001v1.622"/>
  <path fill="none" stroke="#505050" stroke-linecap="round" stroke-linejoin="round" stroke-miterlimit="10" stroke-width=".12" d="M460.738 280.8l-.718-2.222m0 0l-1.98-1.379m0 .001l-2.4.062m0 0l-1.859 1.437m0 .001l-.66 2.34m0 0l.84 2.222m-.001 0l2.04 1.258m0 0l2.398-.18m0 0l1.743-1.38m-.001 0l.598-2.16m-12.418-37.378h60.418m0 0v46.02m0-.001H448.32m0 0v-46.02m49.739 22.86l-1.438-7.32m0-.001l-4.14-6.179m-.001 0l-6.242-4.14m0-.001l-7.316-1.44m0 0l-7.32 1.44m0 0l-6.18 4.141m0 0l-4.14 6.18m-.001-.001l-1.441 7.321m0 0l1.441 7.32m0 .001l4.14 6.18m.001-.001l6.238 4.14m0 .001l7.262 1.437m0 .001l7.316-1.438m0 0l6.242-4.14m0-.001l4.141-6.18m0 .001l1.438-7.32m-4.797-.001l-1.082-5.46m0-.001l-3.121-4.68m0 0l-4.618-3.12m0 0l-5.52-1.079m.001 0l-5.461 1.079m-.001 0l-4.679 3.12m0 0l-3.062 4.68m0 0l-1.078 5.461m-.001 0l1.079 5.457m0 0l3.062 4.684m0 0l4.68 3.117m-.001.001l5.462 1.081m0 0l5.52-1.082m-.001.001l4.618-3.118m0 0l3.12-4.621m.001-.001l1.082-5.519m-32.524-14.222l-.718-2.278m0 0l-1.98-1.383m0 0l-2.4.063m0-.001l-1.921 1.438m0 0l-.598 2.34m0 0l.84 2.223m-.001-.001l2.04 1.259m0 0l2.398-.117m0 0l1.68-1.442m0 0l.66-2.101m43.203 0l-.722-2.278m0 0l-1.98-1.383m-.001 0l-2.398.063m0-.001l-1.86 1.438m0 0l-.66 2.34m0 0l.899 2.223m0-.001l1.98 1.259m.001 0l2.402-.117m0 0l1.738-1.442m0 0l.601-2.101m-.062 28.801l-.719-2.282m0 0l-1.98-1.379m0 .001l-2.399.062m0 0l-1.86 1.5m.001 0l-.66 2.277m0 .001l.84 2.28m0 0l2.039 1.258m-.001 0l2.4-.18m0 0l1.741-1.437m0-.001l.598-2.1"/>
  <path fill="none" stroke="#505050" stroke-linecap="round" stroke-linejoin="round" stroke-miterlimit="10" stroke-width=".72" d="M425.64 271.441h-23.76m-1.802 15.778l.902 1.68 1.141 1.562 1.32 1.379 1.438 1.2 1.621 1.019 1.68.78 1.8.602 1.86.36 1.922.12 1.918-.12 1.86-.36 1.8-.601 1.68-.781 1.62-1.02 1.438-1.2 1.32-1.378 1.141-1.563.902-1.68m-28.801-7.14h30.239m-1.438 7.141l.66-1.68.477-1.8.242-1.798.059-1.863m0 0l-.18-1.437-.3-1.5-.419-1.38-.539-1.382m0 0l-.84-1.5-.96-1.438m-25.563 2.938l-.539 1.383-.418 1.379-.3 1.5-.18 1.437m-.001 0l.06 1.863.241 1.797.48 1.801.657 1.68"/>
  <path fill="none" stroke="#505050" stroke-linecap="round" stroke-linejoin="round" stroke-miterlimit="10" stroke-width=".72" d="M401.879 271.441l-1.02 1.5-.84 1.559"/>
  <use x="423.239" y="278.956" fill="#505050" xlink:href="#FM-Super-Regen-2_svg__a"/>
  <path fill="none" stroke="#505050" stroke-linecap="round" stroke-linejoin="round" stroke-miterlimit="10" stroke-width=".9" d="M343.262 325.379v3.601m0 0h-2.883m0 0v-3.601m0 0h-3.598m0 0v-2.82m0 0h3.598m0 0v-3.598m0-.001h2.883m0 0v3.599m0 0h3.539m-.001 0v2.82m0 0h-3.538m-20.883 20.161h14.402m10.019-26.58l2.88-2.882m-12.899 2.882l-2.883-2.882m18.661 7.863h-2.88m-15.781 0h-2.878m16.5 5.759l1.44 1.44m-12.901-1.44l-1.438 1.44m-2.161-28.742h18.661m-28.742 0l-.66.122-.598.3-.48.48-.36.598-.062.66m0 38.821l.062.66.36.602.48.48.598.3.66.118m38.821.001l.722-.118.598-.3.48-.481.3-.602.06-.66m0-38.82l-.06-.66-.3-.598-.48-.48-.598-.301-.723-.122m.001 43.142h-14.4m-26.581-30.18v28.019m43.141 0v-28.02m95.038-11.519l-.476.058-.363.18-.36.363-.18.36-.058.48m-.001 8.641l.06.418.18.422.359.297.363.18.476.12m25.922.001l.418-.122.422-.18.3-.296.18-.422.122-.418m0-8.641l-.121-.48-.18-.36-.3-.363-.423-.18-.418-.058"/>
  <use stroke-linecap="round" stroke-linejoin="round" stroke-miterlimit="10" stroke-width=".12" xlink:href="#reuse-123"/>
  <path fill="none" stroke="#505050" stroke-linecap="round" stroke-linejoin="round" stroke-miterlimit="10" stroke-width=".9" d="M458.398 303.84l-.476.058-.363.18-.36.363-.18.36-.058.48m-.001 8.641l.06.418.18.422.359.297.363.18.476.12m25.922.001l.418-.122.422-.18.3-.296.18-.422.122-.418m0-8.641l-.121-.48-.18-.36-.3-.363-.423-.18-.418-.058m-27.36 10.082v-8.64m1.438-1.442h2.16m.723.719l-.722-.72m-2.161 11.521h2.16m.723-.72l-.722.72m20.882-10.801l.72-.72m-.72.72h-20.16m20.16 10.081l.72.72m-.72-.72h-20.16m23.039-10.8h-2.16m2.16 11.52h-2.16m3.602-1.438v-8.64"/>
  <use stroke-linecap="round" stroke-linejoin="round" stroke-miterlimit="10" stroke-width=".12" xlink:href="#reuse-123"/>
  <path fill="none" stroke="#505050" stroke-linecap="round" stroke-linejoin="round" stroke-miterlimit="10" stroke-width="1.74" d="M298.621 266.398h7.2m-.001 0V249.18m7.2 35.941l-7.2-35.941m15.84 35.941l-7.2-35.941m15.84 35.941l-7.198-35.941m15.117 35.941l-7.2-35.941m39.54 17.941h-7.2m.001 0v18m-7.2-35.941l7.2 35.941m-15.84-35.941l7.199 35.941m-15.778-35.941l7.137 35.941"/>
  <path fill="none" stroke="#505050" stroke-linecap="round" stroke-linejoin="round" stroke-miterlimit="10" stroke-width=".48" d="M370.559 309.602v12.117m0 16.621v-12.238m57.601-59.704h-12.18m-16.62 0h12.242m45.358 57.543h12.118m16.684 0H473.52m55.378 0h-12.117m-16.679 0h12.238"/>
  <path fill="none" stroke="#505050" stroke-linecap="round" stroke-linejoin="round" stroke-miterlimit="10" stroke-width=".9" d="M336.781 345.54h10.02m-4.981-13.68v2.878m-19.441-32.34h10.082m18.66 0H361.2m-40.981 12.962v-10.801m43.141 0v10.8m-10.02 8.582c0 6.36-5.156 11.52-11.52 11.52-6.363 0-11.52-5.16-11.52-11.52 0-6.363 5.157-11.52 11.52-11.52 6.364 0 11.52 5.157 11.52 11.52zm0 0"/>
  <path fill="none" stroke="#505050" stroke-linecap="round" stroke-linejoin="round" stroke-miterlimit="10" stroke-width=".9" d="M349.02 323.941c0 3.973-3.223 7.2-7.2 7.2a7.201 7.201 0 0 1 0-14.403c3.977 0 7.2 3.227 7.2 7.203zm0 0"/>
  <path fill="#505050" stroke="#505050" stroke-linecap="round" stroke-linejoin="round" stroke-miterlimit="10" stroke-width=".12" d="M323.82 306.719h7.2v-4.32h-7.2zm0 0"/>
  <path fill="none" stroke="#505050" stroke-linecap="round" stroke-linejoin="round" stroke-miterlimit="10" stroke-width="2.88" d="M500.102 309.602h-12.18m-45.363 0H454.8"/>
  <use x="355.522" y="326.849" fill="#505050" xlink:href="#FM-Super-Regen-2_svg__b"/>
  <use x="360.382" y="326.849" fill="#505050" xlink:href="#FM-Super-Regen-2_svg__c"/>
  <use x="428.157" y="328.649" fill="#505050" xlink:href="#FM-Super-Regen-2_svg__d"/>
  <use x="428.157" y="323.789" fill="#505050" xlink:href="#FM-Super-Regen-2_svg__e"/>
  <use x="404.884" y="261.751" fill="#505050" xlink:href="#FM-Super-Regen-2_svg__f"/>
  <use x="408.784" y="261.751" fill="#505050" xlink:href="#FM-Super-Regen-2_svg__g"/>
  <use x="466.72" y="316.776" fill="#505050" xlink:href="#FM-Super-Regen-2_svg__b"/>
  <use x="471.58" y="316.776" fill="#505050" xlink:href="#FM-Super-Regen-2_svg__h"/>
  <use x="509.843" y="336.921" fill="#505050" xlink:href="#FM-Super-Regen-2_svg__b"/>
  <use x="514.703" y="336.921" fill="#505050" xlink:href="#FM-Super-Regen-2_svg__i"/>
  <use x="408.663" y="266.426" fill="#505050" xlink:href="#FM-Super-Regen-2_svg__j"/>
  <use x="414.423" y="266.426" fill="#505050" xlink:href="#FM-Super-Regen-2_svg__c"/>
  <use x="344.366" y="354.905" fill="#505050" xlink:href="#FM-Super-Regen-2_svg__k"/>
  <use x="350.666" y="354.905" fill="#505050" xlink:href="#FM-Super-Regen-2_svg__l"/>
  <use x="456.946" y="302.246" fill="#505050" xlink:href="#FM-Super-Regen-2_svg__m"/>
  <use x="461.986" y="302.246" fill="#505050" xlink:href="#FM-Super-Regen-2_svg__n"/>
  <use x="456.946" y="302.246" fill="#505050" xlink:href="#FM-Super-Regen-2_svg__m"/>
  <use x="461.986" y="302.246" fill="#505050" xlink:href="#FM-Super-Regen-2_svg__n"/>
  <use x="338.432" y="244.848" fill="#505050" xlink:href="#FM-Super-Regen-2_svg__o"/>
  <use x="341.672" y="244.848" fill="#505050" xlink:href="#FM-Super-Regen-2_svg__p"/>
  <use x="369.141" y="348.427" fill="#505050" xlink:href="#FM-Super-Regen-2_svg__c"/>
  <use x="373.581" y="348.427" fill="#505050" xlink:href="#FM-Super-Regen-2_svg__q"/>
  <use x="403.989" y="329.309" fill="#505050" xlink:href="#FM-Super-Regen-2_svg__r"/>
  <use x="403.989" y="325.769" fill="#505050" xlink:href="#FM-Super-Regen-2_svg__s"/>
  <use x="403.989" y="322.229" fill="#505050" xlink:href="#FM-Super-Regen-2_svg__t"/>
  <use x="415.202" y="261.751" fill="#505050" xlink:href="#FM-Super-Regen-2_svg__g"/>
  <use x="418.742" y="261.751" fill="#505050" xlink:href="#FM-Super-Regen-2_svg__u"/>
  <use x="420.722" y="261.751" fill="#505050" xlink:href="#FM-Super-Regen-2_svg__v"/>
  <use x="424.262" y="261.751" fill="#505050" xlink:href="#FM-Super-Regen-2_svg__w"/>
  <use x="427.862" y="261.751" fill="#505050" xlink:href="#FM-Super-Regen-2_svg__x"/>
  <use x="463.42" y="336.921" fill="#505050" xlink:href="#FM-Super-Regen-2_svg__y"/>
  <use x="467.86" y="336.921" fill="#505050" xlink:href="#FM-Super-Regen-2_svg__z"/>
  <use x="470.32" y="336.921" fill="#505050" xlink:href="#FM-Super-Regen-2_svg__A"/>
  <use x="474.76" y="336.921" fill="#505050" xlink:href="#FM-Super-Regen-2_svg__q"/>
  <use x="505.582" y="316.776" fill="#505050" xlink:href="#FM-Super-Regen-2_svg__c"/>
  <use x="510.022" y="316.776" fill="#505050" xlink:href="#FM-Super-Regen-2_svg__B"/>
  <use x="514.463" y="316.776" fill="#505050" xlink:href="#FM-Super-Regen-2_svg__B"/>
  <use x="518.902" y="316.776" fill="#505050" xlink:href="#FM-Super-Regen-2_svg__q"/>
  <use x="402.902" y="307.01" fill="#505050" xlink:href="#FM-Super-Regen-2_svg__C"/>
  <use x="406.743" y="307.01" fill="#505050" xlink:href="#FM-Super-Regen-2_svg__x"/>
  <use x="410.103" y="307.01" fill="#505050" xlink:href="#FM-Super-Regen-2_svg__D"/>
  <use x="413.643" y="307.01" fill="#505050" xlink:href="#FM-Super-Regen-2_svg__g"/>
  <use x="417.183" y="307.01" fill="#505050" xlink:href="#FM-Super-Regen-2_svg__E"/>
  <use x="420.722" y="307.01" fill="#505050" xlink:href="#FM-Super-Regen-2_svg__C"/>
  <use x="352.822" y="300.24" fill="#505050" xlink:href="#FM-Super-Regen-2_svg__l"/>
  <use x="358.343" y="300.24" fill="#505050" xlink:href="#FM-Super-Regen-2_svg__F"/>
  <use x="462.127" y="312.316" fill="#505050" xlink:href="#FM-Super-Regen-2_svg__p"/>
  <use x="465.667" y="312.316" fill="#505050" xlink:href="#FM-Super-Regen-2_svg__G"/>
  <use x="469.207" y="312.316" fill="#505050" xlink:href="#FM-Super-Regen-2_svg__H"/>
  <use x="462.127" y="312.316" fill="#505050" xlink:href="#FM-Super-Regen-2_svg__p"/>
  <use x="465.667" y="312.316" fill="#505050" xlink:href="#FM-Super-Regen-2_svg__G"/>
  <use x="469.207" y="312.316" fill="#505050" xlink:href="#FM-Super-Regen-2_svg__H"/>
  <use x="331.531" y="292.625" fill="#505050" xlink:href="#FM-Super-Regen-2_svg__G"/>
  <use x="335.072" y="292.625" fill="#505050" xlink:href="#FM-Super-Regen-2_svg__u"/>
  <use x="337.052" y="292.625" fill="#505050" xlink:href="#FM-Super-Regen-2_svg__D"/>
  <use x="340.592" y="292.625" fill="#505050" xlink:href="#FM-Super-Regen-2_svg__D"/>
  <use x="344.131" y="292.625" fill="#505050" xlink:href="#FM-Super-Regen-2_svg__I"/>
  <use x="347.731" y="292.625" fill="#505050" xlink:href="#FM-Super-Regen-2_svg__J"/>
  <g clip-path="url(#FM-Super-Regen-2_svg__K)">
    <path fill="none" stroke="#000" stroke-linecap="round" stroke-linejoin="round" stroke-miterlimit="10" stroke-width=".12" d="M269.82 352.738h302.282"/>
  </g>
  <g clip-path="url(#FM-Super-Regen-2_svg__L)">
    <path fill="none" stroke="#000" stroke-linecap="round" stroke-linejoin="round" stroke-miterlimit="10" stroke-width=".12" d="M572.102 352.738V237.66"/>
  </g>
  <g clip-path="url(#FM-Super-Regen-2_svg__M)">
    <path fill="none" stroke="#000" stroke-linecap="round" stroke-linejoin="round" stroke-miterlimit="10" stroke-width=".12" d="M572.102 237.66H269.82"/>
  </g>
  <g clip-path="url(#FM-Super-Regen-2_svg__N)">
    <path fill="none" stroke="#000" stroke-linecap="round" stroke-linejoin="round" stroke-miterlimit="10" stroke-width=".12" d="M269.82 237.66v115.078"/>
  </g>
</svg>
