<svg xmlns:xlink="http://www.w3.org/1999/xlink" width="595pt" height="842pt" viewBox="0 0 595 842"><defs><symbol overflow="visible" id="a"><path d="M0 1.125v-.86h.172v.313h1.172V.266h.172a.61.61 0 0 0 .046.265c.032.051.094.082.188.094v.188H.172v.312zm0 0"/></symbol><symbol overflow="visible" id="b"><path d="M-.11 2.89c0-.386.07-.734.204-1.046.125-.336.312-.617.562-.844.258-.242.582-.422.969-.547.375-.137.813-.2 1.313-.187.488 0 .914.062 1.28.187.364.113.688.297.97.547.257.227.457.504.593.828.133.32.203.68.203 1.078 0 .196-.011.383-.03.563a6.92 6.92 0 0 1-.11.469 2.809 2.809 0 0 1-.157.39l-.187.406h-.953v-.078c.062-.062.14-.148.234-.25.082-.117.172-.25.266-.406.082-.148.148-.309.203-.484.04-.18.066-.383.078-.61 0-.25-.055-.492-.156-.719a1.686 1.686 0 0 0-.453-.593 2.095 2.095 0 0 0-.766-.375 3.432 3.432 0 0 0-1.015-.14 3.43 3.43 0 0 0-1.047.14c-.293.093-.54.226-.735.406a1.387 1.387 0 0 0-.437.578 1.596 1.596 0 0 0-.156.703c0 .219.03.426.093.625.051.188.117.36.203.516.082.133.164.258.25.375.082.101.157.187.22.25v.062H.405A5.584 5.584 0 0 0 .22 4.36a3.37 3.37 0 0 1-.157-.421 2.474 2.474 0 0 1-.124-.47 2.89 2.89 0 0 1-.047-.577zm0 0"/></symbol><symbol overflow="visible" id="c"><path d="M0 3.766V.89h.594v1.062h3.953V.891h.531c0 .406.055.703.172.89.113.196.332.305.656.328v.61H.594v1.047zm0 0"/></symbol><symbol overflow="visible" id="m"><path d="M-1.438 5.484a2.498 2.498 0 0 1-.078-.453 3.779 3.779 0 0 1-.03-.468c0-.438.124-.793.374-1.063.242-.281.59-.434 1.047-.453v-.188c0-.398.074-.757.219-1.078.125-.324.32-.593.594-.812.25-.23.566-.406.953-.531A3.865 3.865 0 0 1 2.937.266c.489 0 .926.062 1.313.187.375.113.691.285.953.516.258.219.461.492.61.828.125.312.187.664.187 1.062 0 .395-.07.754-.203 1.079-.137.32-.336.597-.594.828-.25.218-.57.39-.953.515a4.26 4.26 0 0 1-1.313.188c-.761 0-1.386-.153-1.874-.453-.5-.293-.84-.7-1.016-1.22a1.334 1.334 0 0 0-.39.079.594.594 0 0 0-.282.14.685.685 0 0 0-.188.266 1.495 1.495 0 0 0-.046.422c-.008.102.007.227.046.375.032.133.06.234.079.297v.11zm4.375-.828a5.1 5.1 0 0 0 1.032-.125c.3-.086.55-.203.75-.36.195-.155.351-.343.468-.562.094-.23.141-.48.141-.75 0-.28-.047-.527-.14-.734a1.536 1.536 0 0 0-.47-.563 2.079 2.079 0 0 0-.75-.359 3.807 3.807 0 0 0-1.03-.125c-.774 0-1.36.16-1.766.484-.418.32-.625.754-.625 1.297 0 .551.207.989.625 1.313.406.312.992.473 1.766.484zm0 0"/></symbol><symbol overflow="visible" id="r"><path d="M0 4v-.734h2.516c.195 0 .382-.012.562-.032.176-.023.317-.058.422-.109a.616.616 0 0 0 .25-.25c.05-.117.078-.266.078-.453 0-.188-.047-.375-.14-.563a3.42 3.42 0 0 0-.391-.578H0v-.75h4.422v.75h-.5c.195.219.348.438.453.657.102.207.156.437.156.687 0 .426-.14.766-.422 1.016C3.816 3.879 3.4 4 2.86 4zm0 0"/></symbol><symbol overflow="visible" id="d"><path d="M2.89.11c-.386 0-.734-.07-1.046-.204A2.112 2.112 0 0 1 1-.656a2.521 2.521 0 0 1-.547-.969C.316-2 .253-2.438.266-2.938c0-.488.062-.914.187-1.28A2.62 2.62 0 0 1 1-5.188c.227-.257.504-.457.828-.593.32-.133.68-.203 1.078-.203.196 0 .383.011.563.03.164.032.32.071.469.11.132.043.265.094.39.157l.406.187v.953h-.078c-.062-.062-.148-.14-.25-.234A6.766 6.766 0 0 0 4-5.047a2.575 2.575 0 0 0-.484-.203 3.799 3.799 0 0 0-.61-.078c-.25 0-.492.055-.719.156-.23.106-.43.258-.593.453a2.095 2.095 0 0 0-.375.766c-.094.305-.14.64-.14 1.015 0 .407.046.758.14 1.047.093.293.226.54.406.735.156.199.348.343.578.437.219.106.453.156.703.156.219 0 .426-.03.625-.093.188-.051.36-.117.516-.203.133-.082.258-.164.375-.25.101-.082.187-.157.25-.22h.062v.923a5.584 5.584 0 0 0-.375.187 3.37 3.37 0 0 1-.421.157 2.474 2.474 0 0 1-.47.124 2.89 2.89 0 0 1-.577.047zm0 0"/></symbol><symbol overflow="visible" id="e"><path d="M2.016-5.328a1.62 1.62 0 0 0-.422.062 2.79 2.79 0 0 0-.422.125c-.125.055-.234.11-.328.172-.094.063-.18.117-.25.157H.547v-.829c.164-.093.398-.175.703-.25.29-.07.566-.109.828-.109.27 0 .504.027.703.078.196.055.375.137.531.25.176.125.313.277.407.453.082.18.125.387.125.625 0 .324-.106.61-.313.86-.219.25-.476.406-.765.468v.047c.113.031.242.074.39.125.133.063.266.153.39.266.126.117.224.258.298.422.07.187.11.406.11.656 0 .273-.044.516-.126.734a1.785 1.785 0 0 1-1.015 1 2.272 2.272 0 0 1-.829.141c-.293 0-.586-.04-.875-.11a3.822 3.822 0 0 1-.718-.25v-.843h.046c.165.125.391.242.672.344.27.117.547.171.829.171.164 0 .332-.023.5-.078a.876.876 0 0 0 .39-.25c.102-.113.188-.238.25-.375.05-.144.078-.32.078-.53 0-.22-.031-.395-.094-.532a.964.964 0 0 0-.25-.328 1.28 1.28 0 0 0-.39-.156 2.557 2.557 0 0 0-.5-.047h-.344v-.657h.266c.351 0 .644-.082.875-.25.219-.164.328-.41.328-.734a.813.813 0 0 0-.094-.39.678.678 0 0 0-.219-.25 1.042 1.042 0 0 0-.328-.141 1.62 1.62 0 0 0-.39-.047zm0 0"/></symbol><symbol overflow="visible" id="k"><path d="M4 0H.594v-5.89h.781v5.187H4zm0 0"/></symbol><symbol overflow="visible" id="l"><path d="M3.766 0H.89v-.594h1.062v-3.953H.891v-.531c.406 0 .703-.055.89-.172.196-.113.305-.332.328-.656h.61v5.312h1.047zm0 0"/></symbol><symbol overflow="visible" id="p"><path d="M5.156 0H4.141L2.266-2.344h-.891V0H.594v-5.89h1.515c.332.011.618.03.86.062.219.031.43.117.64.25.207.137.375.308.5.516.114.21.172.468.172.78 0 .43-.11.79-.328 1.079a1.854 1.854 0 0 1-.89.64zM3.47-4.234a1.636 1.636 0 0 0-.094-.454.93.93 0 0 0-.281-.328 1.28 1.28 0 0 0-.39-.156 7.22 7.22 0 0 0-.548-.047h-.781v2.235h.688c.226 0 .43-.02.609-.063a.913.913 0 0 0 .453-.25 1.04 1.04 0 0 0 .266-.39c.039-.157.066-.336.078-.547zm0 0"/></symbol><symbol overflow="visible" id="q"><path d="M4.063 0H.438v-.828c.25-.25.492-.485.734-.703.226-.227.453-.469.672-.719.445-.488.754-.883.922-1.188a2.05 2.05 0 0 0 .25-.906c0-.164-.028-.312-.079-.437a1.13 1.13 0 0 0-.218-.313c-.094-.07-.2-.129-.313-.172A1.361 1.361 0 0 0 2-5.328c-.137 0-.277.023-.422.062a2.359 2.359 0 0 0-.406.125 1.46 1.46 0 0 0-.328.172c-.106.063-.188.117-.25.157H.547v-.844c.164-.082.394-.16.687-.235.29-.07.567-.109.829-.109.539 0 .968.14 1.28.422.313.293.47.687.47 1.187a2.422 2.422 0 0 1-.297 1.188 5.166 5.166 0 0 1-.36.5c-.136.18-.277.344-.422.5-.261.273-.539.555-.828.844l-.734.687h2.89zm0 0"/></symbol><symbol overflow="visible" id="f"><path d="M-.078 2.328a2.2 2.2 0 0 1 .14-.86C.164 1.207.32.984.532.797a1.94 1.94 0 0 1 .764-.438A3.23 3.23 0 0 1 2.358.203c.383 0 .727.05 1.032.156.289.094.546.239.765.438.207.187.367.41.485.672.101.25.156.535.156.86 0 .155-.012.304-.031.452a2.63 2.63 0 0 1-.094.375c-.031.102-.07.207-.11.313a7.764 7.764 0 0 0-.156.312H3.64v-.047c.05-.054.113-.12.187-.203.07-.094.145-.203.219-.328.062-.117.113-.246.156-.39.04-.149.063-.31.063-.485a1.347 1.347 0 0 0-.485-1.047 1.73 1.73 0 0 0-.61-.312 2.763 2.763 0 0 0-.812-.11c-.336 0-.617.04-.843.125-.23.07-.43.176-.594.313a1.08 1.08 0 0 0-.344.469 1.193 1.193 0 0 0-.125.562c0 .176.02.344.063.5a2.265 2.265 0 0 0 .375.719c.062.082.117.144.171.187v.047h-.75A5.292 5.292 0 0 0 .189 3.5a1.572 1.572 0 0 1-.141-.344 3.747 3.747 0 0 1-.094-.375 2.977 2.977 0 0 1-.031-.453zm0 0"/></symbol><symbol overflow="visible" id="g"><path d="M1.625 3.375v-.563H0v-.609h1.625V.125h.656l2.438 2.11v.578H2.125v.562zm.5-1.172h1.844L2.125.625zm0 0"/></symbol><symbol overflow="visible" id="u"><path d="M4.016 3.313L0 1.265V.594L4.156 2.75V.312h.563v3zm0 0"/></symbol><symbol overflow="visible" id="v"><path d="M1.86 3.39c-.587 0-1.055-.14-1.407-.421-.355-.281-.523-.637-.516-1.063-.007-.18.008-.336.047-.468a1.55 1.55 0 0 1 .188-.407h-1.469V.438h4.828v.593h-.36c.126.145.235.305.329.485.094.175.14.375.14.593-.011.407-.171.723-.484.954-.324.218-.758.328-1.297.328zm-.063-.609c.394 0 .707-.062.937-.187.22-.137.329-.344.329-.625 0-.18-.04-.344-.11-.5a1.989 1.989 0 0 0-.281-.438H.656a1.979 1.979 0 0 0-.156.39 1.953 1.953 0 0 0-.031.391c0 .301.11.54.328.72.226.163.562.25 1 .25zm0 0"/></symbol><symbol overflow="visible" id="E"><path d="M1.453 3.672a1.46 1.46 0 0 1-.625-.125 1.155 1.155 0 0 1-.437-.36 1.435 1.435 0 0 1-.297-.578C.03 2.41 0 2.15 0 1.83V.483h4.719v1.25c0 .332-.012.582-.032.75a2.19 2.19 0 0 1-.156.485 1 1 0 0 1-.36.375 1.24 1.24 0 0 1-.515.11c-.23 0-.43-.06-.594-.173a1.32 1.32 0 0 1-.421-.484h-.016c-.086.27-.227.484-.422.64-.21.157-.46.235-.75.235zm2.11-.875c.113 0 .21-.016.296-.047a.548.548 0 0 0 .204-.188.996.996 0 0 0 .093-.343c.008-.125.016-.297.016-.516V1.11H2.797v.704c0 .195.008.343.031.437a.99.99 0 0 0 .125.297.61.61 0 0 0 .235.187c.101.04.226.063.374.063zm-2.141.234c.176 0 .32-.027.437-.078.114-.055.211-.156.297-.312a.985.985 0 0 0 .094-.329c.02-.117.031-.28.031-.5V1.11H.531v.5c0 .282.016.5.047.657.02.156.07.296.156.421a.805.805 0 0 0 .282.25c.101.051.238.083.406.094zm0 0"/></symbol><symbol overflow="visible" id="F"><path d="M4.156 3.297V1.109H2.828v2.094h-.562V1.11H0V.484h4.719v2.813zm0 0"/></symbol><symbol overflow="visible" id="G"><path d="M0 3.25V.344h.656c.196.207.39.406.578.594.176.187.364.367.563.546.394.352.71.598.953.735.238.125.484.187.734.187.125 0 .239-.015.344-.047a.92.92 0 0 0 .25-.171.752.752 0 0 0 .14-.266.99.99 0 0 0 .048-.313c0-.117-.016-.23-.047-.343a3.228 3.228 0 0 0-.11-.329 1.272 1.272 0 0 0-.125-.265C3.93.586 3.891.523 3.86.484V.438h.672c.063.132.125.316.188.546.062.239.093.461.093.672 0 .438-.117.782-.343 1.032-.242.25-.559.374-.953.374-.188 0-.36-.023-.516-.062a2.636 2.636 0 0 1-.422-.188 3.959 3.959 0 0 1-.422-.28 21.05 21.05 0 0 1-.39-.345 9.9 9.9 0 0 1-.672-.671C.864 1.273.68 1.082.547.937V3.25zm0 0"/></symbol><symbol overflow="visible" id="H"><path d="M1.5 3.203c-.23 0-.438-.039-.625-.11a1.533 1.533 0 0 1-.516-.312 1.361 1.361 0 0 1-.328-.484 1.833 1.833 0 0 1-.125-.672c0-.23.028-.45.078-.656A2.01 2.01 0 0 1 .172.39h.672v.046A.587.587 0 0 0 .719.64a1.244 1.244 0 0 0-.125.312c-.055.113-.09.223-.11.328a1.64 1.64 0 0 0-.03.36c0 .125.019.242.062.359a.649.649 0 0 0 .218.313.972.972 0 0 0 .329.187c.125.04.269.063.437.063.164 0 .305-.028.422-.079a.748.748 0 0 0 .266-.187 1.19 1.19 0 0 0 .171-.344c.032-.137.047-.281.047-.437 0-.168-.015-.34-.047-.516-.03-.18-.058-.32-.078-.422H4.72v2.594h-.563V1.203h-1.25c.008.07.016.145.016.219 0 .07.004.14.015.203 0 .238-.023.441-.062.61a1.458 1.458 0 0 1-.234.484 1.303 1.303 0 0 1-.454.36c-.18.081-.406.124-.687.124zm0 0"/></symbol><symbol overflow="visible" id="h"><path d="M2.328.078a2.184 2.184 0 0 1-.86-.14 1.717 1.717 0 0 1-.671-.47 1.973 1.973 0 0 1-.438-.765 3.222 3.222 0 0 1-.156-1.062c0-.383.05-.727.156-1.032a2.08 2.08 0 0 1 .438-.765c.187-.207.41-.367.672-.485.25-.101.535-.156.86-.156.155 0 .304.012.452.031.133.024.258.055.375.094.102.031.207.07.313.11.101.054.207.105.312.156v.765h-.047c-.054-.05-.12-.113-.203-.187a3.673 3.673 0 0 0-.328-.219 2.089 2.089 0 0 0-.39-.156 1.888 1.888 0 0 0-.485-.063 1.347 1.347 0 0 0-1.047.485 1.73 1.73 0 0 0-.312.61c-.074.241-.11.51-.11.812 0 .336.04.617.125.843.07.23.176.43.313.594.125.156.281.274.469.344.164.086.351.125.562.125.176 0 .344-.02.5-.063a2.265 2.265 0 0 0 .719-.375c.082-.062.144-.117.187-.171h.047v.75a4.795 4.795 0 0 0-.281.124c-.094.055-.21.102-.344.141-.136.043-.261.07-.375.094-.125.02-.277.031-.453.031zm0 0"/></symbol><symbol overflow="visible" id="i"><path d="M3.203-1.5c0 .23-.039.438-.11.625-.073.2-.179.371-.312.516a1.371 1.371 0 0 1-.484.328 1.836 1.836 0 0 1-.672.125c-.23 0-.45-.028-.656-.078A2.01 2.01 0 0 1 .39-.172v-.672h.046c.04.043.11.086.204.125.093.055.195.094.312.125.113.055.223.09.328.11.102.023.223.03.36.03.125 0 .242-.019.359-.062a.646.646 0 0 0 .313-.218.972.972 0 0 0 .187-.329c.04-.125.063-.269.063-.437 0-.164-.028-.305-.079-.422a.748.748 0 0 0-.187-.266 1.18 1.18 0 0 0-.344-.171 1.951 1.951 0 0 0-.437-.047c-.168 0-.34.015-.516.047-.18.03-.32.058-.422.078V-4.72h2.594v.563H1.203v1.25c.07-.008.145-.016.219-.016.07 0 .14-.004.203-.015.238 0 .441.023.61.062.163.043.328.121.484.234.156.125.273.278.36.454.081.18.124.406.124.687zm0 0"/></symbol><symbol overflow="visible" id="j"><path d="M3.328-1.531c0 .25-.043.476-.125.672-.074.21-.18.382-.312.515a1.44 1.44 0 0 1-1.063.438c-.21 0-.402-.04-.578-.11a1.103 1.103 0 0 1-.469-.312C.625-.492.5-.723.406-1.016c-.094-.28-.14-.632-.14-1.062 0-.406.039-.774.125-1.11.082-.32.21-.609.39-.859a2.11 2.11 0 0 1 .672-.562c.258-.125.57-.188.938-.188.101 0 .195.008.28.016.095.011.177.027.25.047v.609h-.03a1.132 1.132 0 0 0-.25-.094 1.199 1.199 0 0 0-.344-.047c-.399.012-.715.149-.953.407-.242.261-.383.652-.422 1.171.144-.101.297-.18.453-.234a1.49 1.49 0 0 1 .531-.094c.176 0 .336.024.485.063.132.043.273.117.421.219.176.136.305.304.391.5.082.199.125.433.125.703zm-.64.031c0-.195-.028-.36-.079-.484a.869.869 0 0 0-.25-.344.759.759 0 0 0-.28-.125 1.557 1.557 0 0 0-.75.031 1.805 1.805 0 0 0-.407.188.67.67 0 0 0-.016.14v.156c0 .336.031.602.094.797.063.2.14.352.234.454a.672.672 0 0 0 .282.203.797.797 0 0 0 .312.062c.258 0 .469-.086.625-.266.156-.175.235-.445.235-.812zm0 0"/></symbol><symbol overflow="visible" id="s"><path d="M3.016 0H.719v-.484h.86v-3.157h-.86v-.437c.32 0 .562-.047.719-.14.144-.083.226-.255.25-.516h.484v4.25h.844zm0 0"/></symbol><symbol overflow="visible" id="t"><path d="M3.39-1.86c0 .587-.14 1.055-.421 1.407-.281.355-.637.523-1.063.516a1.445 1.445 0 0 1-.468-.047 1.517 1.517 0 0 1-.407-.188v1.469H.438v-4.828h.593v.36a2.51 2.51 0 0 1 .485-.329 1.24 1.24 0 0 1 .593-.14c.407.011.723.171.954.484.218.324.328.758.328 1.297zm-.609.063c0-.394-.062-.707-.187-.937-.137-.22-.344-.329-.625-.329-.18 0-.344.04-.5.11a1.989 1.989 0 0 0-.438.281v2.016c.145.074.274.125.39.156a2 2 0 0 0 .391.031c.301 0 .54-.11.72-.328.163-.226.25-.562.25-1zm0 0"/></symbol><symbol overflow="visible" id="w"><path d="M3.375-1.625h-.563V0h-.609v-1.625H.125v-.656l2.11-2.438h.578v2.594h.562zm-1.172-.5v-1.844L.625-2.125zm0 0"/></symbol><symbol overflow="visible" id="x"><path d="M1.36 0H.61v-.906h.75zm0 0"/></symbol><symbol overflow="visible" id="y"><path d="M3.313-4.016L1.265 0H.594L2.75-4.156H.312v-.563h3zm0 0"/></symbol><symbol overflow="visible" id="z"><path d="M3.203 0H2.61v-2.016c0-.156-.007-.304-.015-.453a1.666 1.666 0 0 0-.094-.344A.548.548 0 0 0 2.297-3a.873.873 0 0 0-.36-.063 1.1 1.1 0 0 0-.453.11 2.609 2.609 0 0 0-.453.312V0H.438v-3.531h.593v.39c.164-.156.336-.28.516-.375a1.29 1.29 0 0 1 .547-.125c.351 0 .629.118.828.344.187.242.281.574.281 1zm0 0"/></symbol><symbol overflow="visible" id="A"><path d="M3.281-2.36c0 .844-.125 1.465-.375 1.86-.242.398-.62.594-1.14.594C1.242.094.863-.102.625-.5.383-.906.265-1.523.265-2.36c0-.843.126-1.46.376-1.859.238-.394.613-.593 1.125-.593.52 0 .898.203 1.14.609.25.418.375 1.031.375 1.844zM2.47-.921a2.22 2.22 0 0 0 .125-.594 6.63 6.63 0 0 0 .047-.843c0-.32-.016-.602-.047-.844a2.22 2.22 0 0 0-.125-.594.82.82 0 0 0-.266-.36.742.742 0 0 0-.437-.124c-.18 0-.32.043-.422.125a.878.878 0 0 0-.282.36 2.293 2.293 0 0 0-.125.608c-.023.25-.03.528-.03.829 0 .336.007.609.03.828.02.23.063.43.125.593a.761.761 0 0 0 .266.375.66.66 0 0 0 .438.141c.175 0 .32-.039.437-.125a.786.786 0 0 0 .266-.375zm0 0"/></symbol><symbol overflow="visible" id="B"><path d="M3.25 0H.344v-.656c.207-.196.406-.39.594-.578.187-.176.367-.364.546-.563.352-.394.598-.71.735-.953.125-.238.187-.484.187-.734 0-.125-.015-.239-.047-.344a.92.92 0 0 0-.171-.25.752.752 0 0 0-.266-.14.99.99 0 0 0-.313-.048c-.117 0-.23.016-.343.047-.118.032-.227.07-.329.11a1.272 1.272 0 0 0-.265.125c-.086.054-.149.093-.188.125H.438v-.672a3.44 3.44 0 0 1 .546-.188c.239-.062.461-.093.672-.093.438 0 .782.117 1.032.343.25.242.374.559.374.953 0 .188-.023.36-.062.516a2.636 2.636 0 0 1-.188.422c-.085.148-.18.289-.28.422a21.05 21.05 0 0 1-.345.39 9.9 9.9 0 0 1-.671.672c-.243.23-.434.414-.579.547H3.25zm0 0"/></symbol><symbol overflow="visible" id="C"><path d="M3.188 0h-.594v-.39a2.831 2.831 0 0 1-.531.359c-.157.082-.34.125-.547.125-.157 0-.305-.028-.438-.078a.74.74 0 0 1-.36-.235.918.918 0 0 1-.234-.422 1.903 1.903 0 0 1-.078-.593v-2.297H1v2.015c0 .188.004.34.016.454.02.125.05.234.093.328a.45.45 0 0 0 .204.203.802.802 0 0 0 .359.062c.144 0 .3-.039.469-.125.164-.082.316-.18.453-.297v-2.64h.594zm0 0"/></symbol><symbol overflow="visible" id="D"><path d="M3.906 0h-.625v-2.313H1.11V0H.484v-4.719h.625v1.86h2.172v-1.86h.625zm0 0"/></symbol><symbol overflow="visible" id="J"><path d="M3.36 0h-.782L1.266-1.703l-.235.219V0H.438v-4.922h.593v2.875l1.39-1.484h.75L1.72-2.062zm0 0"/></symbol><symbol overflow="visible" id="n"><path d="M6.453 0H5.187L2.845-2.938h-1.11V0H.75v-7.375h1.906c.414 0 .77.027 1.063.078.281.043.55.149.812.313.25.168.453.382.61.64.144.262.218.586.218.969 0 .543-.136.996-.406 1.36a2.471 2.471 0 0 1-1.125.812zm-2.11-5.297a1.86 1.86 0 0 0-.124-.578 1.09 1.09 0 0 0-.344-.406 1.332 1.332 0 0 0-.484-.188 3.413 3.413 0 0 0-.688-.062h-.969v2.781h.86c.281 0 .531-.023.75-.078.219-.04.41-.14.578-.297.144-.133.25-.3.312-.5a2.48 2.48 0 0 0 .11-.672zm0 0"/></symbol><symbol overflow="visible" id="o"><path d="M4.719 0H1.125v-.75h1.328v-4.938H1.125v-.687c.5 0 .867-.066 1.11-.203.238-.145.374-.414.406-.813h.765V-.75H4.72zm0 0"/></symbol><symbol overflow="visible" id="I"><path d="M5.266 0H4.03L1.97-2.672l-.36.36V0H.672v-7.703h.937v4.516l2.188-2.344h1.156L2.672-3.22zm0 0"/></symbol><clipPath id="K"><path d="M250 248.16h1v345.602h-1zm0 0"/></clipPath><clipPath id="L"><path d="M250 593h115.2v.762H250zm0 0"/></clipPath><clipPath id="M"><path d="M365 248.16h.2v345.602h-.2zm0 0"/></clipPath><clipPath id="N"><path d="M250 248.16h115.2v.84H250zm0 0"/></clipPath></defs><path d="M344.68 372.719l-.121-2.219-.297-2.219-.543-2.16-.778-2.101-.96-2.04-1.141-1.859-1.32-1.8-1.5-1.68-1.622-1.442-1.796-1.379-1.922-1.14-1.98-.899-2.098-.781-2.16-.54-2.223-.3-2.219-.12m22.68 11.339l-.121-2.219-.297-2.219-.543-2.16-.778-2.101-.96-1.98-1.141-1.919-1.32-1.8-1.5-1.622-1.622-1.5-1.796-1.32-1.922-1.2-1.98-.898-2.098-.78-2.16-.54-2.223-.3-2.219-.122m22.68 11.341l-.121-2.22-.297-2.218-.543-2.16-.778-2.102-.96-1.98-1.141-1.919-1.32-1.8-1.5-1.621-1.622-1.5-1.796-1.32-1.922-1.141-1.98-.957-2.098-.782-2.16-.539-2.223-.3-2.219-.122m22.68 11.341l-.121-2.22-.297-2.218-.543-2.16-.778-2.102-.96-1.98-1.141-1.918-1.32-1.801-1.5-1.621-1.622-1.5-1.796-1.32-1.922-1.141-1.98-.957-2.098-.782-2.16-.539-2.223-.3-2.219-.121m22.68 11.34l-.121-2.22-.297-2.218-.543-2.16-.778-2.102-.96-1.98-1.141-1.918-1.32-1.801-1.5-1.621-1.622-1.5-1.796-1.32-1.922-1.141-1.98-.957-2.098-.781-2.16-.54-2.223-.3-2.219-.121m22.68 11.34l-.121-2.22-.297-2.222-.543-2.156-.778-2.102-.96-1.98-1.141-1.918-1.32-1.8-1.5-1.622-1.622-1.5-1.796-1.32-1.922-1.14-1.98-.962-2.098-.777-2.16-.54-2.223-.3-2.219-.121m22.68 11.34l-.121-2.22-.297-2.222-.543-2.16-.778-2.039-.96-2.039-1.141-1.922-1.32-1.797-1.5-1.62-1.622-1.5-1.796-1.321-1.922-1.14-1.98-.962-2.098-.718-2.16-.54-2.223-.359L322 282m0 113.34l2.219-.059 2.222-.36 2.16-.542 2.098-.719 1.98-.96 1.923-1.141 1.796-1.32 1.622-1.5 1.5-1.68 1.32-1.739 1.14-1.922.961-2.039.778-2.097.543-2.16.297-2.16.12-2.223" fill="none" stroke-width=".72" stroke-linecap="round" stroke-linejoin="round" stroke="#505050" stroke-miterlimit="10"/><path d="M344.68 372.719l-.121-2.219-.297-2.219-.543-2.16-.778-2.101-.96-2.04-1.141-1.859-1.32-1.8-1.5-1.68-1.622-1.442-1.796-1.379-1.922-1.14-1.98-.899-2.098-.781-2.16-.54-2.223-.3-2.219-.12m22.68 11.339l-.121-2.219-.297-2.219-.543-2.16-.778-2.101-.96-1.98-1.141-1.919-1.32-1.8-1.5-1.622-1.622-1.5-1.796-1.32-1.922-1.2-1.98-.898-2.098-.78-2.16-.54-2.223-.3-2.219-.122m22.68 11.341l-.121-2.22-.297-2.218-.543-2.16-.778-2.102-.96-1.98-1.141-1.919-1.32-1.8-1.5-1.621-1.622-1.5-1.796-1.32-1.922-1.141-1.98-.957-2.098-.782-2.16-.539-2.223-.3-2.219-.122m22.68 11.341l-.121-2.22-.297-2.218-.543-2.16-.778-2.102-.96-1.98-1.141-1.918-1.32-1.801-1.5-1.621-1.622-1.5-1.796-1.32-1.922-1.141-1.98-.957-2.098-.782-2.16-.539-2.223-.3-2.219-.121m22.68 11.34l-.121-2.22-.297-2.218-.543-2.16-.778-2.102-.96-1.98-1.141-1.918-1.32-1.801-1.5-1.621-1.622-1.5-1.796-1.32-1.922-1.141-1.98-.957-2.098-.781-2.16-.54-2.223-.3-2.219-.121m22.68 11.34l-.121-2.22-.297-2.222-.543-2.156-.778-2.102-.96-1.98-1.141-1.918-1.32-1.8-1.5-1.622-1.622-1.5-1.796-1.32-1.922-1.14-1.98-.962-2.098-.777-2.16-.54-2.223-.3-2.219-.121m22.68 11.34l-.121-2.22-.297-2.222-.543-2.16-.778-2.039-.96-2.039-1.141-1.922-1.32-1.797-1.5-1.62-1.622-1.5-1.796-1.321-1.922-1.14-1.98-.962-2.098-.718-2.16-.54-2.223-.359L322 282m0 113.34l2.219-.059 2.222-.36 2.16-.542 2.098-.719 1.98-.96 1.923-1.141 1.796-1.32 1.622-1.5 1.5-1.68 1.32-1.739 1.14-1.922.961-2.039.778-2.097.543-2.16.297-2.16.12-2.223" fill="none" stroke-width=".72" stroke-linecap="round" stroke-linejoin="round" stroke="#505050" stroke-miterlimit="10"/><path d="M278.86 282a5.039 5.039 0 1 1 0-10.079 5.039 5.039 0 0 1 0 10.079" fill-rule="evenodd" fill="green"/><path d="M278.86 282a5.039 5.039 0 1 1 0-10.079 5.039 5.039 0 0 1 0 10.079zm0 0" fill="none" stroke-width=".12" stroke-linecap="round" stroke-linejoin="round" stroke="green" stroke-miterlimit="10"/><path d="M278.86 279.781a2.822 2.822 0 1 1 .002-5.643 2.822 2.822 0 0 1-.003 5.643" fill-rule="evenodd" fill="#fff"/><path d="M278.86 279.781a2.822 2.822 0 1 1 .002-5.643 2.822 2.822 0 0 1-.003 5.643zm0 0" fill="none" stroke-width=".06" stroke-linecap="square" stroke-linejoin="bevel" stroke="#000" stroke-miterlimit="10"/><path d="M350.8 282a5.039 5.039 0 1 1 0-10.078 5.039 5.039 0 1 1 0 10.078" fill-rule="evenodd" fill="green"/><path d="M350.8 282a5.039 5.039 0 1 1 0-10.078 5.039 5.039 0 1 1 0 10.078zm0 0" fill="none" stroke-width=".12" stroke-linecap="round" stroke-linejoin="round" stroke="green" stroke-miterlimit="10"/><path d="M350.8 279.781a2.82 2.82 0 0 1-2.82-2.82 2.822 2.822 0 1 1 2.82 2.82" fill-rule="evenodd" fill="#fff"/><path d="M350.8 279.781a2.82 2.82 0 0 1-2.82-2.82 2.822 2.822 0 1 1 2.82 2.82zm0 0" fill="none" stroke-width=".06" stroke-linecap="square" stroke-linejoin="bevel" stroke="#000" stroke-miterlimit="10"/><path d="M350.8 569.941a5.04 5.04 0 0 1-5.038-5.043 5.039 5.039 0 1 1 10.078 0 5.04 5.04 0 0 1-5.04 5.043" fill-rule="evenodd" fill="green"/><path d="M350.8 569.941a5.04 5.04 0 0 1-5.038-5.043 5.039 5.039 0 1 1 10.078 0 5.04 5.04 0 0 1-5.04 5.043zm0 0" fill="none" stroke-width=".12" stroke-linecap="round" stroke-linejoin="round" stroke="green" stroke-miterlimit="10"/><path d="M350.8 567.719a2.822 2.822 0 0 1 0-5.64 2.824 2.824 0 0 1 2.821 2.82 2.822 2.822 0 0 1-2.82 2.82" fill-rule="evenodd" fill="#fff"/><path d="M350.8 567.719a2.822 2.822 0 0 1 0-5.64 2.824 2.824 0 0 1 2.821 2.82 2.822 2.822 0 0 1-2.82 2.82zm0 0" fill="none" stroke-width=".06" stroke-linecap="square" stroke-linejoin="bevel" stroke="#000" stroke-miterlimit="10"/><path d="M278.86 569.941a5.042 5.042 0 0 1 0-10.082 5.039 5.039 0 0 1 5.038 5.04 5.04 5.04 0 0 1-5.039 5.042" fill-rule="evenodd" fill="green"/><path d="M278.86 569.941a5.042 5.042 0 0 1 0-10.082 5.039 5.039 0 0 1 5.038 5.04 5.04 5.04 0 0 1-5.039 5.042zm0 0" fill="none" stroke-width=".12" stroke-linecap="round" stroke-linejoin="round" stroke="green" stroke-miterlimit="10"/><path d="M278.86 567.719a2.822 2.822 0 0 1-2.82-2.82 2.824 2.824 0 0 1 2.82-2.82 2.822 2.822 0 0 1 0 5.64" fill-rule="evenodd" fill="#fff"/><path d="M278.86 567.719a2.822 2.822 0 0 1-2.82-2.82 2.824 2.824 0 0 1 2.82-2.82 2.822 2.822 0 0 1 0 5.64zm0 0" fill="none" stroke-width=".06" stroke-linecap="square" stroke-linejoin="bevel" stroke="#000" stroke-miterlimit="10"/><path d="M264.46 309.48zm0 0" fill="none" stroke-width=".12" stroke-linecap="round" stroke-linejoin="round" stroke="green" stroke-miterlimit="10"/><path d="M264.46 308.04a2.278 2.278 0 1 1 0-4.56 2.278 2.278 0 0 1 2.278 2.282 2.277 2.277 0 0 1-2.277 2.277" fill-rule="evenodd" fill="#fff"/><path d="M264.46 308.04a2.278 2.278 0 1 1 0-4.56 2.278 2.278 0 0 1 2.278 2.282 2.277 2.277 0 0 1-2.277 2.277zm0 0" fill="none" stroke-width=".06" stroke-linecap="square" stroke-linejoin="bevel" stroke="#000" stroke-miterlimit="10"/><path d="M293.262 309.48a3.721 3.721 0 1 1-.004-7.441 3.721 3.721 0 0 1 .004 7.441" fill-rule="evenodd" fill="green"/><path d="M293.262 309.48a3.721 3.721 0 1 1-.004-7.441 3.721 3.721 0 0 1 .004 7.441zm0 0" fill="none" stroke-width=".12" stroke-linecap="round" stroke-linejoin="round" stroke="green" stroke-miterlimit="10"/><path d="M293.262 308.04a2.278 2.278 0 1 1 0-4.56 2.278 2.278 0 0 1 2.277 2.282 2.277 2.277 0 0 1-2.277 2.277" fill-rule="evenodd" fill="#fff"/><path d="M293.262 308.04a2.278 2.278 0 1 1 0-4.56 2.278 2.278 0 0 1 2.277 2.282 2.277 2.277 0 0 1-2.277 2.277zm0 0" fill="none" stroke-width=".06" stroke-linecap="square" stroke-linejoin="bevel" stroke="#000" stroke-miterlimit="10"/><path d="M291.34 454.379l-2.762-2.758v-3.84l2.762-2.761h3.84l2.761 2.761v3.84l-2.761 2.758h-3.84" fill="green"/><path d="M291.34 454.379l-2.762-2.758v-3.84l2.762-2.761h3.84l2.761 2.761v3.84l-2.761 2.758zm0 0" fill="none" stroke-width=".12" stroke-linecap="round" stroke-linejoin="round" stroke="green" stroke-miterlimit="10"/><path d="M293.262 452.82a3.12 3.12 0 0 1-3.121-3.12 3.12 3.12 0 1 1 6.238 0 3.12 3.12 0 0 1-3.117 3.12" fill-rule="evenodd" fill="#fff"/><path d="M293.262 452.82a3.12 3.12 0 0 1-3.121-3.12 3.12 3.12 0 1 1 6.238 0 3.12 3.12 0 0 1-3.117 3.12zm0 0" fill="none" stroke-width=".06" stroke-linecap="square" stroke-linejoin="bevel" stroke="#000" stroke-miterlimit="10"/><path d="M291.34 425.578l-2.762-2.758v-3.84l2.762-2.761h3.84l2.761 2.761v3.84l-2.761 2.758h-3.84" fill="green"/><path d="M291.34 425.578l-2.762-2.758v-3.84l2.762-2.761h3.84l2.761 2.761v3.84l-2.761 2.758zm0 0" fill="none" stroke-width=".12" stroke-linecap="round" stroke-linejoin="round" stroke="green" stroke-miterlimit="10"/><path d="M293.262 424.02a3.12 3.12 0 1 1-.003-6.24 3.12 3.12 0 0 1 .003 6.24" fill-rule="evenodd" fill="#fff"/><path d="M293.262 424.02a3.12 3.12 0 1 1-.003-6.24 3.12 3.12 0 0 1 .003 6.24zm0 0" fill="none" stroke-width=".06" stroke-linecap="square" stroke-linejoin="bevel" stroke="#000" stroke-miterlimit="10"/><path d="M262.54 425.578l-2.759-2.758v-3.84l2.758-2.761h3.84l2.762 2.761v3.84l-2.762 2.758h-3.84" fill="green"/><path d="M262.54 425.578l-2.759-2.758v-3.84l2.758-2.761h3.84l2.762 2.761v3.84l-2.762 2.758zm0 0" fill="none" stroke-width=".12" stroke-linecap="round" stroke-linejoin="round" stroke="green" stroke-miterlimit="10"/><path d="M264.46 424.02zm0 0" fill="none" stroke-width=".06" stroke-linecap="square" stroke-linejoin="bevel" stroke="#000" stroke-miterlimit="10"/><path d="M336.398 453.422a3.72 3.72 0 1 1 3.723-3.723 3.724 3.724 0 0 1-3.723 3.723" fill-rule="evenodd" fill="green"/><path d="M336.398 453.422a3.72 3.72 0 1 1 3.723-3.723 3.724 3.724 0 0 1-3.723 3.723zm0 0" fill="none" stroke-width=".12" stroke-linecap="round" stroke-linejoin="round" stroke="green" stroke-miterlimit="10"/><path d="M336.398 451.98a2.278 2.278 0 0 1-2.277-2.28 2.277 2.277 0 0 1 2.277-2.278 2.278 2.278 0 1 1 0 4.558" fill-rule="evenodd" fill="#fff"/><path d="M336.398 451.98a2.278 2.278 0 0 1-2.277-2.28 2.277 2.277 0 0 1 2.277-2.278 2.278 2.278 0 1 1 0 4.558zm0 0" fill="none" stroke-width=".06" stroke-linecap="square" stroke-linejoin="bevel" stroke="#000" stroke-miterlimit="10"/><path d="M336.398 424.621a3.72 3.72 0 1 1 3.723-3.723 3.724 3.724 0 0 1-3.723 3.723" fill-rule="evenodd" fill="green"/><path d="M336.398 424.621a3.72 3.72 0 1 1 3.723-3.723 3.724 3.724 0 0 1-3.723 3.723zm0 0" fill="none" stroke-width=".12" stroke-linecap="round" stroke-linejoin="round" stroke="green" stroke-miterlimit="10"/><path d="M336.398 423.18a2.278 2.278 0 0 1-2.277-2.282 2.277 2.277 0 0 1 2.277-2.277 2.278 2.278 0 1 1 0 4.559" fill-rule="evenodd" fill="#fff"/><path d="M336.398 423.18a2.278 2.278 0 0 1-2.277-2.282 2.277 2.277 0 0 1 2.277-2.277 2.278 2.278 0 1 1 0 4.559zm0 0" fill="none" stroke-width=".06" stroke-linecap="square" stroke-linejoin="bevel" stroke="#000" stroke-miterlimit="10"/><path d="M250.121 539.82a3.723 3.723 0 0 1-3.723-3.718 3.721 3.721 0 1 1 3.723 3.719" fill-rule="evenodd" fill="green"/><path d="M250.121 539.82a3.723 3.723 0 0 1-3.723-3.718 3.721 3.721 0 1 1 3.723 3.719zm0 0" fill="none" stroke-width=".12" stroke-linecap="round" stroke-linejoin="round" stroke="green" stroke-miterlimit="10"/><path d="M250.121 538.379a2.278 2.278 0 1 1 0-4.559 2.278 2.278 0 0 1 2.277 2.282 2.277 2.277 0 0 1-2.277 2.277" fill-rule="evenodd" fill="#fff"/><path d="M250.121 538.379a2.278 2.278 0 1 1 0-4.559 2.278 2.278 0 0 1 2.277 2.282 2.277 2.277 0 0 1-2.277 2.277zm0 0" fill="none" stroke-width=".06" stroke-linecap="square" stroke-linejoin="bevel" stroke="#000" stroke-miterlimit="10"/><path d="M278.86 539.82a3.72 3.72 0 0 1 0-7.441 3.721 3.721 0 0 1 0 7.441" fill-rule="evenodd" fill="green"/><path d="M278.86 539.82a3.72 3.72 0 0 1 0-7.441 3.721 3.721 0 0 1 0 7.441zm0 0" fill="none" stroke-width=".12" stroke-linecap="round" stroke-linejoin="round" stroke="green" stroke-miterlimit="10"/><path d="M278.86 538.379a2.28 2.28 0 0 1-2.282-2.277 2.281 2.281 0 0 1 4.563 0 2.28 2.28 0 0 1-2.282 2.277" fill-rule="evenodd" fill="#fff"/><path d="M278.86 538.379a2.28 2.28 0 0 1-2.282-2.277 2.281 2.281 0 0 1 4.563 0 2.28 2.28 0 0 1-2.282 2.277zm0 0" fill="none" stroke-width=".06" stroke-linecap="square" stroke-linejoin="bevel" stroke="#000" stroke-miterlimit="10"/><path d="M350.8 539.82a3.723 3.723 0 0 1-3.722-3.718 3.721 3.721 0 1 1 3.723 3.719" fill-rule="evenodd" fill="green"/><path d="M350.8 539.82a3.723 3.723 0 0 1-3.722-3.718 3.721 3.721 0 1 1 3.723 3.719zm0 0" fill="none" stroke-width=".12" stroke-linecap="round" stroke-linejoin="round" stroke="green" stroke-miterlimit="10"/><path d="M350.8 538.379a2.278 2.278 0 1 1 0-4.559 2.278 2.278 0 0 1 2.278 2.282 2.277 2.277 0 0 1-2.277 2.277" fill-rule="evenodd" fill="#fff"/><path d="M350.8 538.379a2.278 2.278 0 1 1 0-4.559 2.278 2.278 0 0 1 2.278 2.282 2.277 2.277 0 0 1-2.277 2.277zm0 0" fill="none" stroke-width=".06" stroke-linecap="square" stroke-linejoin="bevel" stroke="#000" stroke-miterlimit="10"/><path d="M322 539.82a3.72 3.72 0 0 1 0-7.441 3.721 3.721 0 0 1 0 7.441" fill-rule="evenodd" fill="green"/><path d="M322 539.82a3.72 3.72 0 0 1 0-7.441 3.721 3.721 0 0 1 0 7.441zm0 0" fill="none" stroke-width=".12" stroke-linecap="round" stroke-linejoin="round" stroke="green" stroke-miterlimit="10"/><path d="M322 538.379a2.28 2.28 0 0 1-2.281-2.277 2.281 2.281 0 0 1 4.562 0 2.28 2.28 0 0 1-2.281 2.277" fill-rule="evenodd" fill="#fff"/><path d="M322 538.379a2.28 2.28 0 0 1-2.281-2.277 2.281 2.281 0 0 1 4.562 0 2.28 2.28 0 0 1-2.281 2.277zm0 0" fill="none" stroke-width=".06" stroke-linecap="square" stroke-linejoin="bevel" stroke="#000" stroke-miterlimit="10"/><path d="M264.46 274.8a5.039 5.039 0 0 1-5.038-5.038 5.04 5.04 0 1 1 10.078 0 5.041 5.041 0 0 1-5.04 5.039" fill-rule="evenodd" fill="green"/><path d="M264.46 274.8a5.039 5.039 0 0 1-5.038-5.038 5.04 5.04 0 1 1 10.078 0 5.041 5.041 0 0 1-5.04 5.039zm0 0" fill="none" stroke-width=".12" stroke-linecap="round" stroke-linejoin="round" stroke="green" stroke-miterlimit="10"/><path d="M264.46 272.578a2.818 2.818 0 1 1 0-5.637 2.82 2.82 0 1 1 0 5.637" fill-rule="evenodd" fill="#fff"/><path d="M264.46 272.578a2.818 2.818 0 1 1 0-5.637 2.82 2.82 0 1 1 0 5.637zm0 0" fill="none" stroke-width=".06" stroke-linecap="square" stroke-linejoin="bevel" stroke="#000" stroke-miterlimit="10"/><path d="M350.8 325.621a5.461 5.461 0 1 1 .002-10.923 5.461 5.461 0 0 1-.001 10.923" fill-rule="evenodd" fill="green"/><path d="M350.8 325.621a5.461 5.461 0 1 1 .002-10.923 5.461 5.461 0 0 1-.001 10.923zm0 0" fill="none" stroke-width=".12" stroke-linecap="round" stroke-linejoin="round" stroke="green" stroke-miterlimit="10"/><path d="M350.8 323.578zm0 0" fill="none" stroke-width=".06" stroke-linecap="square" stroke-linejoin="bevel" stroke="#000" stroke-miterlimit="10"/><path d="M322 282.422a5.461 5.461 0 1 1 0-10.923 5.461 5.461 0 0 1 0 10.923" fill-rule="evenodd" fill="green"/><path d="M322 282.422a5.461 5.461 0 1 1 0-10.923 5.461 5.461 0 0 1 0 10.923zm0 0" fill="none" stroke-width=".12" stroke-linecap="round" stroke-linejoin="round" stroke="green" stroke-miterlimit="10"/><path d="M322 280.379a3.42 3.42 0 1 1 0-6.84 3.42 3.42 0 1 1 0 6.84" fill-rule="evenodd" fill="#fff"/><path d="M322 280.379a3.42 3.42 0 1 1 0-6.84 3.42 3.42 0 1 1 0 6.84zm0 0" fill="none" stroke-width=".06" stroke-linecap="square" stroke-linejoin="bevel" stroke="#000" stroke-miterlimit="10"/><path d="M322 397.621a5.461 5.461 0 1 1 0-10.923 5.461 5.461 0 0 1 0 10.923" fill-rule="evenodd" fill="green"/><path d="M322 397.621a5.461 5.461 0 1 1 0-10.923 5.461 5.461 0 0 1 0 10.923zm0 0" fill="none" stroke-width=".12" stroke-linecap="round" stroke-linejoin="round" stroke="green" stroke-miterlimit="10"/><path d="M322 395.578a3.42 3.42 0 0 1 0-6.84 3.42 3.42 0 1 1 0 6.84" fill-rule="evenodd" fill="#fff"/><path d="M322 395.578a3.42 3.42 0 0 1 0-6.84 3.42 3.42 0 1 1 0 6.84zm0 0" fill="none" stroke-width=".06" stroke-linecap="square" stroke-linejoin="bevel" stroke="#000" stroke-miterlimit="10"/><path d="M307.66 527.16a5.461 5.461 0 1 1 .001-10.923 5.461 5.461 0 0 1 0 10.923" fill-rule="evenodd" fill="green"/><path d="M307.66 527.16a5.461 5.461 0 1 1 .001-10.923 5.461 5.461 0 0 1 0 10.923zm0 0" fill="none" stroke-width=".12" stroke-linecap="round" stroke-linejoin="round" stroke="green" stroke-miterlimit="10"/><path d="M307.66 525.121a3.42 3.42 0 1 1-.002-6.842 3.42 3.42 0 0 1 .002 6.842" fill-rule="evenodd" fill="#fff"/><path d="M307.66 525.121a3.42 3.42 0 1 1-.002-6.842 3.42 3.42 0 0 1 .002 6.842zm0 0" fill="none" stroke-width=".06" stroke-linecap="square" stroke-linejoin="bevel" stroke="#000" stroke-miterlimit="10"/><path d="M307.66 483.96a5.461 5.461 0 1 1 .001-10.922 5.461 5.461 0 0 1 0 10.923" fill-rule="evenodd" fill="green"/><path d="M307.66 483.96a5.461 5.461 0 1 1 .001-10.922 5.461 5.461 0 0 1 0 10.923zm0 0" fill="none" stroke-width=".12" stroke-linecap="round" stroke-linejoin="round" stroke="green" stroke-miterlimit="10"/><path d="M307.66 481.922a3.42 3.42 0 0 1-3.422-3.422 3.42 3.42 0 1 1 6.84 0 3.418 3.418 0 0 1-3.418 3.422" fill-rule="evenodd" fill="#fff"/><path d="M307.66 481.922a3.42 3.42 0 0 1-3.422-3.422 3.42 3.42 0 1 1 6.84 0 3.418 3.418 0 0 1-3.418 3.422zm0 0" fill="none" stroke-width=".06" stroke-linecap="square" stroke-linejoin="bevel" stroke="#000" stroke-miterlimit="10"/><path d="M336.398 483.96a5.458 5.458 0 0 1-5.457-5.46 5.458 5.458 0 1 1 10.918 0 5.461 5.461 0 0 1-5.46 5.46" fill-rule="evenodd" fill="green"/><path d="M336.398 483.96a5.458 5.458 0 0 1-5.457-5.46 5.458 5.458 0 1 1 10.918 0 5.461 5.461 0 0 1-5.46 5.46zm0 0" fill="none" stroke-width=".12" stroke-linecap="round" stroke-linejoin="round" stroke="green" stroke-miterlimit="10"/><path d="M336.398 481.922a3.42 3.42 0 0 1-3.418-3.422 3.42 3.42 0 1 1 6.84 0 3.42 3.42 0 0 1-3.422 3.422" fill-rule="evenodd" fill="#fff"/><path d="M336.398 481.922a3.42 3.42 0 0 1-3.418-3.422 3.42 3.42 0 1 1 6.84 0 3.42 3.42 0 0 1-3.422 3.422zm0 0" fill="none" stroke-width=".06" stroke-linecap="square" stroke-linejoin="bevel" stroke="#000" stroke-miterlimit="10"/><path d="M336.398 527.16a5.458 5.458 0 0 1-5.457-5.46 5.458 5.458 0 1 1 10.918 0 5.461 5.461 0 0 1-5.46 5.46" fill-rule="evenodd" fill="green"/><path d="M336.398 527.16a5.458 5.458 0 0 1-5.457-5.46 5.458 5.458 0 1 1 10.918 0 5.461 5.461 0 0 1-5.46 5.46zm0 0" fill="none" stroke-width=".12" stroke-linecap="round" stroke-linejoin="round" stroke="green" stroke-miterlimit="10"/><path d="M336.398 525.121a3.42 3.42 0 1 1 .005-6.84 3.42 3.42 0 0 1-.005 6.84" fill-rule="evenodd" fill="#fff"/><path d="M336.398 525.121a3.42 3.42 0 1 1 .005-6.84 3.42 3.42 0 0 1-.005 6.84zm0 0" fill="none" stroke-width=".06" stroke-linecap="square" stroke-linejoin="bevel" stroke="#000" stroke-miterlimit="10"/><path d="M320.441 424.621l-2.16-2.16v-3.121l2.16-2.16h3.118l2.16 2.16v3.12l-2.16 2.161h-3.118" fill="green"/><path d="M320.441 424.621l-2.16-2.16v-3.121l2.16-2.16h3.118l2.16 2.16v3.12l-2.16 2.161zm0 0" fill="none" stroke-width=".12" stroke-linecap="round" stroke-linejoin="round" stroke="green" stroke-miterlimit="10"/><path d="M322 423.18a2.281 2.281 0 0 1-2.281-2.282 2.28 2.28 0 0 1 4.562 0A2.281 2.281 0 0 1 322 423.18" fill-rule="evenodd" fill="#fff"/><path d="M322 423.18a2.281 2.281 0 0 1-2.281-2.282 2.28 2.28 0 0 1 4.562 0A2.281 2.281 0 0 1 322 423.18zm0 0" fill="none" stroke-width=".06" stroke-linecap="square" stroke-linejoin="bevel" stroke="#000" stroke-miterlimit="10"/><path d="M320.441 453.422l-2.16-2.16v-3.121l2.16-2.16h3.118l2.16 2.16v3.12l-2.16 2.16h-3.118" fill="green"/><path d="M320.441 453.422l-2.16-2.16v-3.121l2.16-2.16h3.118l2.16 2.16v3.12l-2.16 2.16zm0 0" fill="none" stroke-width=".12" stroke-linecap="round" stroke-linejoin="round" stroke="green" stroke-miterlimit="10"/><path d="M322 451.98a2.281 2.281 0 0 1-2.281-2.28 2.28 2.28 0 0 1 4.562 0 2.281 2.281 0 0 1-2.281 2.28" fill-rule="evenodd" fill="#fff"/><path d="M322 451.98a2.281 2.281 0 0 1-2.281-2.28 2.28 2.28 0 0 1 4.562 0 2.281 2.281 0 0 1-2.281 2.28zm0 0" fill="none" stroke-width=".06" stroke-linecap="square" stroke-linejoin="bevel" stroke="#000" stroke-miterlimit="10"/><path d="M320.441 439.02l-2.16-2.16v-3.122l2.16-2.16h3.118l2.16 2.16v3.121l-2.16 2.16h-3.118" fill="green"/><path d="M320.441 439.02l-2.16-2.16v-3.122l2.16-2.16h3.118l2.16 2.16v3.121l-2.16 2.16zm0 0" fill="none" stroke-width=".12" stroke-linecap="round" stroke-linejoin="round" stroke="green" stroke-miterlimit="10"/><path d="M322 437.578a2.28 2.28 0 0 1-2.281-2.277 2.281 2.281 0 0 1 4.562 0 2.28 2.28 0 0 1-2.281 2.277" fill-rule="evenodd" fill="#fff"/><path d="M322 437.578a2.28 2.28 0 0 1-2.281-2.277 2.281 2.281 0 0 1 4.562 0 2.28 2.28 0 0 1-2.281 2.277zm0 0" fill="none" stroke-width=".06" stroke-linecap="square" stroke-linejoin="bevel" stroke="#000" stroke-miterlimit="10"/><path d="M278.86 368.82a5.461 5.461 0 1 1 0-10.923 5.461 5.461 0 0 1 0 10.923" fill-rule="evenodd" fill="green"/><path d="M278.86 368.82a5.461 5.461 0 1 1 0-10.923 5.461 5.461 0 0 1 0 10.923zm0 0" fill="none" stroke-width=".12" stroke-linecap="round" stroke-linejoin="round" stroke="green" stroke-miterlimit="10"/><path d="M278.86 366.238a2.88 2.88 0 1 1 0-5.758 2.88 2.88 0 0 1 0 5.758" fill-rule="evenodd" fill="#fff"/><path d="M278.86 366.238a2.88 2.88 0 1 1 0-5.758 2.88 2.88 0 0 1 0 5.758zm0 0" fill="none" stroke-width=".06" stroke-linecap="square" stroke-linejoin="bevel" stroke="#000" stroke-miterlimit="10"/><path d="M264.46 397.621a5.461 5.461 0 1 1 .002-10.923 5.461 5.461 0 0 1-.001 10.923" fill-rule="evenodd" fill="green"/><path d="M264.46 397.621a5.461 5.461 0 1 1 .002-10.923 5.461 5.461 0 0 1-.001 10.923zm0 0" fill="none" stroke-width=".12" stroke-linecap="round" stroke-linejoin="round" stroke="green" stroke-miterlimit="10"/><path d="M264.46 395.04a2.882 2.882 0 0 1-2.882-2.88 2.882 2.882 0 0 1 2.883-2.879 2.88 2.88 0 0 1 0 5.758" fill-rule="evenodd" fill="#fff"/><path d="M264.46 395.04a2.882 2.882 0 0 1-2.882-2.88 2.882 2.882 0 0 1 2.883-2.879 2.88 2.88 0 0 1 0 5.758zm0 0" fill="none" stroke-width=".06" stroke-linecap="square" stroke-linejoin="bevel" stroke="#000" stroke-miterlimit="10"/><path d="M293.262 397.621a5.461 5.461 0 0 1 0-10.922 5.46 5.46 0 0 1 5.457 5.461 5.46 5.46 0 0 1-5.457 5.461" fill-rule="evenodd" fill="green"/><path d="M293.262 397.621a5.461 5.461 0 0 1 0-10.922 5.46 5.46 0 0 1 5.457 5.461 5.46 5.46 0 0 1-5.457 5.461zm0 0" fill="none" stroke-width=".12" stroke-linecap="round" stroke-linejoin="round" stroke="green" stroke-miterlimit="10"/><path d="M293.262 395.04a2.882 2.882 0 0 1-2.883-2.88 2.882 2.882 0 0 1 2.883-2.879 2.88 2.88 0 0 1 0 5.758" fill-rule="evenodd" fill="#fff"/><path d="M293.262 395.04a2.882 2.882 0 0 1-2.883-2.88 2.882 2.882 0 0 1 2.883-2.879 2.88 2.88 0 0 1 0 5.758zm0 0" fill="none" stroke-width=".06" stroke-linecap="square" stroke-linejoin="bevel" stroke="#000" stroke-miterlimit="10"/><path d="M235.719 525.422a3.721 3.721 0 1 1 .004-7.442 3.721 3.721 0 0 1-.004 7.442" fill-rule="evenodd" fill="green"/><path d="M235.719 525.422a3.721 3.721 0 1 1 .004-7.442 3.721 3.721 0 0 1-.004 7.442zm0 0" fill="none" stroke-width=".12" stroke-linecap="round" stroke-linejoin="round" stroke="green" stroke-miterlimit="10"/><path d="M235.719 523.98a2.278 2.278 0 0 1-2.278-2.28 2.277 2.277 0 0 1 2.278-2.278 2.278 2.278 0 1 1 0 4.558" fill-rule="evenodd" fill="#fff"/><path d="M235.719 523.98a2.278 2.278 0 0 1-2.278-2.28 2.277 2.277 0 0 1 2.278-2.278 2.278 2.278 0 1 1 0 4.558zm0 0" fill="none" stroke-width=".06" stroke-linecap="square" stroke-linejoin="bevel" stroke="#000" stroke-miterlimit="10"/><path d="M293.262 525.422a3.722 3.722 0 1 1-.002-7.444 3.722 3.722 0 0 1 .002 7.444" fill-rule="evenodd" fill="green"/><path d="M293.262 525.422a3.722 3.722 0 1 1-.002-7.444 3.722 3.722 0 0 1 .002 7.444zm0 0" fill="none" stroke-width=".12" stroke-linecap="round" stroke-linejoin="round" stroke="green" stroke-miterlimit="10"/><path d="M293.262 523.98a2.279 2.279 0 1 1-.005-4.557 2.279 2.279 0 0 1 .005 4.557" fill-rule="evenodd" fill="#fff"/><path d="M293.262 523.98a2.279 2.279 0 1 1-.005-4.557 2.279 2.279 0 0 1 .005 4.557zm0 0" fill="none" stroke-width=".06" stroke-linecap="square" stroke-linejoin="bevel" stroke="#000" stroke-miterlimit="10"/><path d="M278.86 282a5.039 5.039 0 1 1 0-10.079 5.039 5.039 0 0 1 0 10.079" fill-rule="evenodd" fill="green"/><path d="M278.86 282a5.039 5.039 0 1 1 0-10.079 5.039 5.039 0 0 1 0 10.079zm0 0" fill="none" stroke-width=".12" stroke-linecap="round" stroke-linejoin="round" stroke="green" stroke-miterlimit="10"/><path d="M278.86 279.781a2.822 2.822 0 1 1 .002-5.643 2.822 2.822 0 0 1-.003 5.643" fill-rule="evenodd" fill="#fff"/><path d="M278.86 279.781a2.822 2.822 0 1 1 .002-5.643 2.822 2.822 0 0 1-.003 5.643zm0 0" fill="none" stroke-width=".06" stroke-linecap="square" stroke-linejoin="bevel" stroke="#000" stroke-miterlimit="10"/><path d="M350.8 282a5.039 5.039 0 1 1 0-10.078 5.039 5.039 0 1 1 0 10.078" fill-rule="evenodd" fill="green"/><path d="M350.8 282a5.039 5.039 0 1 1 0-10.078 5.039 5.039 0 1 1 0 10.078zm0 0" fill="none" stroke-width=".12" stroke-linecap="round" stroke-linejoin="round" stroke="green" stroke-miterlimit="10"/><path d="M350.8 279.781a2.82 2.82 0 0 1-2.82-2.82 2.822 2.822 0 1 1 2.82 2.82" fill-rule="evenodd" fill="#fff"/><path d="M350.8 279.781a2.82 2.82 0 0 1-2.82-2.82 2.822 2.822 0 1 1 2.82 2.82zm0 0" fill="none" stroke-width=".06" stroke-linecap="square" stroke-linejoin="bevel" stroke="#000" stroke-miterlimit="10"/><path d="M350.8 569.941a5.04 5.04 0 0 1-5.038-5.043 5.039 5.039 0 1 1 10.078 0 5.04 5.04 0 0 1-5.04 5.043" fill-rule="evenodd" fill="green"/><path d="M350.8 569.941a5.04 5.04 0 0 1-5.038-5.043 5.039 5.039 0 1 1 10.078 0 5.04 5.04 0 0 1-5.04 5.043zm0 0" fill="none" stroke-width=".12" stroke-linecap="round" stroke-linejoin="round" stroke="green" stroke-miterlimit="10"/><path d="M350.8 567.719a2.822 2.822 0 0 1 0-5.64 2.824 2.824 0 0 1 2.821 2.82 2.822 2.822 0 0 1-2.82 2.82" fill-rule="evenodd" fill="#fff"/><path d="M350.8 567.719a2.822 2.822 0 0 1 0-5.64 2.824 2.824 0 0 1 2.821 2.82 2.822 2.822 0 0 1-2.82 2.82zm0 0" fill="none" stroke-width=".06" stroke-linecap="square" stroke-linejoin="bevel" stroke="#000" stroke-miterlimit="10"/><path d="M278.86 569.941a5.042 5.042 0 0 1 0-10.082 5.039 5.039 0 0 1 5.038 5.04 5.04 5.04 0 0 1-5.039 5.042" fill-rule="evenodd" fill="green"/><path d="M278.86 569.941a5.042 5.042 0 0 1 0-10.082 5.039 5.039 0 0 1 5.038 5.04 5.04 5.04 0 0 1-5.039 5.042zm0 0" fill="none" stroke-width=".12" stroke-linecap="round" stroke-linejoin="round" stroke="green" stroke-miterlimit="10"/><path d="M278.86 567.719a2.822 2.822 0 0 1-2.82-2.82 2.824 2.824 0 0 1 2.82-2.82 2.822 2.822 0 0 1 0 5.64" fill-rule="evenodd" fill="#fff"/><path d="M278.86 567.719a2.822 2.822 0 0 1-2.82-2.82 2.824 2.824 0 0 1 2.82-2.82 2.822 2.822 0 0 1 0 5.64zm0 0" fill="none" stroke-width=".06" stroke-linecap="square" stroke-linejoin="bevel" stroke="#000" stroke-miterlimit="10"/><path d="M264.46 309.48zm0 0" fill="none" stroke-width=".12" stroke-linecap="round" stroke-linejoin="round" stroke="green" stroke-miterlimit="10"/><path d="M264.46 308.04a2.278 2.278 0 1 1 0-4.56 2.278 2.278 0 0 1 2.278 2.282 2.277 2.277 0 0 1-2.277 2.277" fill-rule="evenodd" fill="#fff"/><path d="M264.46 308.04a2.278 2.278 0 1 1 0-4.56 2.278 2.278 0 0 1 2.278 2.282 2.277 2.277 0 0 1-2.277 2.277zm0 0" fill="none" stroke-width=".06" stroke-linecap="square" stroke-linejoin="bevel" stroke="#000" stroke-miterlimit="10"/><path d="M293.262 309.48a3.721 3.721 0 1 1-.004-7.441 3.721 3.721 0 0 1 .004 7.441" fill-rule="evenodd" fill="green"/><path d="M293.262 309.48a3.721 3.721 0 1 1-.004-7.441 3.721 3.721 0 0 1 .004 7.441zm0 0" fill="none" stroke-width=".12" stroke-linecap="round" stroke-linejoin="round" stroke="green" stroke-miterlimit="10"/><path d="M293.262 308.04a2.278 2.278 0 1 1 0-4.56 2.278 2.278 0 0 1 2.277 2.282 2.277 2.277 0 0 1-2.277 2.277" fill-rule="evenodd" fill="#fff"/><path d="M293.262 308.04a2.278 2.278 0 1 1 0-4.56 2.278 2.278 0 0 1 2.277 2.282 2.277 2.277 0 0 1-2.277 2.277zm0 0" fill="none" stroke-width=".06" stroke-linecap="square" stroke-linejoin="bevel" stroke="#000" stroke-miterlimit="10"/><path d="M291.34 454.379l-2.762-2.758v-3.84l2.762-2.761h3.84l2.761 2.761v3.84l-2.761 2.758h-3.84" fill="green"/><path d="M291.34 454.379l-2.762-2.758v-3.84l2.762-2.761h3.84l2.761 2.761v3.84l-2.761 2.758zm0 0" fill="none" stroke-width=".12" stroke-linecap="round" stroke-linejoin="round" stroke="green" stroke-miterlimit="10"/><path d="M293.262 452.82a3.12 3.12 0 0 1-3.121-3.12 3.12 3.12 0 1 1 6.238 0 3.12 3.12 0 0 1-3.117 3.12" fill-rule="evenodd" fill="#fff"/><path d="M293.262 452.82a3.12 3.12 0 0 1-3.121-3.12 3.12 3.12 0 1 1 6.238 0 3.12 3.12 0 0 1-3.117 3.12zm0 0" fill="none" stroke-width=".06" stroke-linecap="square" stroke-linejoin="bevel" stroke="#000" stroke-miterlimit="10"/><path d="M291.34 425.578l-2.762-2.758v-3.84l2.762-2.761h3.84l2.761 2.761v3.84l-2.761 2.758h-3.84" fill="green"/><path d="M291.34 425.578l-2.762-2.758v-3.84l2.762-2.761h3.84l2.761 2.761v3.84l-2.761 2.758zm0 0" fill="none" stroke-width=".12" stroke-linecap="round" stroke-linejoin="round" stroke="green" stroke-miterlimit="10"/><path d="M293.262 424.02a3.12 3.12 0 1 1-.003-6.24 3.12 3.12 0 0 1 .003 6.24" fill-rule="evenodd" fill="#fff"/><path d="M293.262 424.02a3.12 3.12 0 1 1-.003-6.24 3.12 3.12 0 0 1 .003 6.24zm0 0" fill="none" stroke-width=".06" stroke-linecap="square" stroke-linejoin="bevel" stroke="#000" stroke-miterlimit="10"/><path d="M262.54 425.578l-2.759-2.758v-3.84l2.758-2.761h3.84l2.762 2.761v3.84l-2.762 2.758h-3.84" fill="green"/><path d="M262.54 425.578l-2.759-2.758v-3.84l2.758-2.761h3.84l2.762 2.761v3.84l-2.762 2.758zm0 0" fill="none" stroke-width=".12" stroke-linecap="round" stroke-linejoin="round" stroke="green" stroke-miterlimit="10"/><path d="M264.46 424.02zm0 0" fill="none" stroke-width=".06" stroke-linecap="square" stroke-linejoin="bevel" stroke="#000" stroke-miterlimit="10"/><path d="M336.398 453.422a3.72 3.72 0 1 1 3.723-3.723 3.724 3.724 0 0 1-3.723 3.723" fill-rule="evenodd" fill="green"/><path d="M336.398 453.422a3.72 3.72 0 1 1 3.723-3.723 3.724 3.724 0 0 1-3.723 3.723zm0 0" fill="none" stroke-width=".12" stroke-linecap="round" stroke-linejoin="round" stroke="green" stroke-miterlimit="10"/><path d="M336.398 451.98a2.278 2.278 0 0 1-2.277-2.28 2.277 2.277 0 0 1 2.277-2.278 2.278 2.278 0 1 1 0 4.558" fill-rule="evenodd" fill="#fff"/><path d="M336.398 451.98a2.278 2.278 0 0 1-2.277-2.28 2.277 2.277 0 0 1 2.277-2.278 2.278 2.278 0 1 1 0 4.558zm0 0" fill="none" stroke-width=".06" stroke-linecap="square" stroke-linejoin="bevel" stroke="#000" stroke-miterlimit="10"/><path d="M336.398 424.621a3.72 3.72 0 1 1 3.723-3.723 3.724 3.724 0 0 1-3.723 3.723" fill-rule="evenodd" fill="green"/><path d="M336.398 424.621a3.72 3.72 0 1 1 3.723-3.723 3.724 3.724 0 0 1-3.723 3.723zm0 0" fill="none" stroke-width=".12" stroke-linecap="round" stroke-linejoin="round" stroke="green" stroke-miterlimit="10"/><path d="M336.398 423.18a2.278 2.278 0 0 1-2.277-2.282 2.277 2.277 0 0 1 2.277-2.277 2.278 2.278 0 1 1 0 4.559" fill-rule="evenodd" fill="#fff"/><path d="M336.398 423.18a2.278 2.278 0 0 1-2.277-2.282 2.277 2.277 0 0 1 2.277-2.277 2.278 2.278 0 1 1 0 4.559zm0 0" fill="none" stroke-width=".06" stroke-linecap="square" stroke-linejoin="bevel" stroke="#000" stroke-miterlimit="10"/><path d="M250.121 539.82a3.723 3.723 0 0 1-3.723-3.718 3.721 3.721 0 1 1 3.723 3.719" fill-rule="evenodd" fill="green"/><path d="M250.121 539.82a3.723 3.723 0 0 1-3.723-3.718 3.721 3.721 0 1 1 3.723 3.719zm0 0" fill="none" stroke-width=".12" stroke-linecap="round" stroke-linejoin="round" stroke="green" stroke-miterlimit="10"/><path d="M250.121 538.379a2.278 2.278 0 1 1 0-4.559 2.278 2.278 0 0 1 2.277 2.282 2.277 2.277 0 0 1-2.277 2.277" fill-rule="evenodd" fill="#fff"/><path d="M250.121 538.379a2.278 2.278 0 1 1 0-4.559 2.278 2.278 0 0 1 2.277 2.282 2.277 2.277 0 0 1-2.277 2.277zm0 0" fill="none" stroke-width=".06" stroke-linecap="square" stroke-linejoin="bevel" stroke="#000" stroke-miterlimit="10"/><path d="M278.86 539.82a3.72 3.72 0 0 1 0-7.441 3.721 3.721 0 0 1 0 7.441" fill-rule="evenodd" fill="green"/><path d="M278.86 539.82a3.72 3.72 0 0 1 0-7.441 3.721 3.721 0 0 1 0 7.441zm0 0" fill="none" stroke-width=".12" stroke-linecap="round" stroke-linejoin="round" stroke="green" stroke-miterlimit="10"/><path d="M278.86 538.379a2.28 2.28 0 0 1-2.282-2.277 2.281 2.281 0 0 1 4.563 0 2.28 2.28 0 0 1-2.282 2.277" fill-rule="evenodd" fill="#fff"/><path d="M278.86 538.379a2.28 2.28 0 0 1-2.282-2.277 2.281 2.281 0 0 1 4.563 0 2.28 2.28 0 0 1-2.282 2.277zm0 0" fill="none" stroke-width=".06" stroke-linecap="square" stroke-linejoin="bevel" stroke="#000" stroke-miterlimit="10"/><path d="M350.8 539.82a3.723 3.723 0 0 1-3.722-3.718 3.721 3.721 0 1 1 3.723 3.719" fill-rule="evenodd" fill="green"/><path d="M350.8 539.82a3.723 3.723 0 0 1-3.722-3.718 3.721 3.721 0 1 1 3.723 3.719zm0 0" fill="none" stroke-width=".12" stroke-linecap="round" stroke-linejoin="round" stroke="green" stroke-miterlimit="10"/><path d="M350.8 538.379a2.278 2.278 0 1 1 0-4.559 2.278 2.278 0 0 1 2.278 2.282 2.277 2.277 0 0 1-2.277 2.277" fill-rule="evenodd" fill="#fff"/><path d="M350.8 538.379a2.278 2.278 0 1 1 0-4.559 2.278 2.278 0 0 1 2.278 2.282 2.277 2.277 0 0 1-2.277 2.277zm0 0" fill="none" stroke-width=".06" stroke-linecap="square" stroke-linejoin="bevel" stroke="#000" stroke-miterlimit="10"/><path d="M322 539.82a3.72 3.72 0 0 1 0-7.441 3.721 3.721 0 0 1 0 7.441" fill-rule="evenodd" fill="green"/><path d="M322 539.82a3.72 3.72 0 0 1 0-7.441 3.721 3.721 0 0 1 0 7.441zm0 0" fill="none" stroke-width=".12" stroke-linecap="round" stroke-linejoin="round" stroke="green" stroke-miterlimit="10"/><path d="M322 538.379a2.28 2.28 0 0 1-2.281-2.277 2.281 2.281 0 0 1 4.562 0 2.28 2.28 0 0 1-2.281 2.277" fill-rule="evenodd" fill="#fff"/><path d="M322 538.379a2.28 2.28 0 0 1-2.281-2.277 2.281 2.281 0 0 1 4.562 0 2.28 2.28 0 0 1-2.281 2.277zm0 0" fill="none" stroke-width=".06" stroke-linecap="square" stroke-linejoin="bevel" stroke="#000" stroke-miterlimit="10"/><path d="M264.46 274.8a5.039 5.039 0 0 1-5.038-5.038 5.04 5.04 0 1 1 10.078 0 5.041 5.041 0 0 1-5.04 5.039" fill-rule="evenodd" fill="green"/><path d="M264.46 274.8a5.039 5.039 0 0 1-5.038-5.038 5.04 5.04 0 1 1 10.078 0 5.041 5.041 0 0 1-5.04 5.039zm0 0" fill="none" stroke-width=".12" stroke-linecap="round" stroke-linejoin="round" stroke="green" stroke-miterlimit="10"/><path d="M264.46 272.578a2.818 2.818 0 1 1 0-5.637 2.82 2.82 0 1 1 0 5.637" fill-rule="evenodd" fill="#fff"/><path d="M264.46 272.578a2.818 2.818 0 1 1 0-5.637 2.82 2.82 0 1 1 0 5.637zm0 0" fill="none" stroke-width=".06" stroke-linecap="square" stroke-linejoin="bevel" stroke="#000" stroke-miterlimit="10"/><path d="M350.8 325.621a5.461 5.461 0 1 1 .002-10.923 5.461 5.461 0 0 1-.001 10.923" fill-rule="evenodd" fill="green"/><path d="M350.8 325.621a5.461 5.461 0 1 1 .002-10.923 5.461 5.461 0 0 1-.001 10.923zm0 0" fill="none" stroke-width=".12" stroke-linecap="round" stroke-linejoin="round" stroke="green" stroke-miterlimit="10"/><path d="M350.8 323.578zm0 0" fill="none" stroke-width=".06" stroke-linecap="square" stroke-linejoin="bevel" stroke="#000" stroke-miterlimit="10"/><path d="M322 282.422a5.461 5.461 0 1 1 0-10.923 5.461 5.461 0 0 1 0 10.923" fill-rule="evenodd" fill="green"/><path d="M322 282.422a5.461 5.461 0 1 1 0-10.923 5.461 5.461 0 0 1 0 10.923zm0 0" fill="none" stroke-width=".12" stroke-linecap="round" stroke-linejoin="round" stroke="green" stroke-miterlimit="10"/><path d="M322 280.379a3.42 3.42 0 1 1 0-6.84 3.42 3.42 0 1 1 0 6.84" fill-rule="evenodd" fill="#fff"/><path d="M322 280.379a3.42 3.42 0 1 1 0-6.84 3.42 3.42 0 1 1 0 6.84zm0 0" fill="none" stroke-width=".06" stroke-linecap="square" stroke-linejoin="bevel" stroke="#000" stroke-miterlimit="10"/><path d="M322 397.621a5.461 5.461 0 1 1 0-10.923 5.461 5.461 0 0 1 0 10.923" fill-rule="evenodd" fill="green"/><path d="M322 397.621a5.461 5.461 0 1 1 0-10.923 5.461 5.461 0 0 1 0 10.923zm0 0" fill="none" stroke-width=".12" stroke-linecap="round" stroke-linejoin="round" stroke="green" stroke-miterlimit="10"/><path d="M322 395.578a3.42 3.42 0 0 1 0-6.84 3.42 3.42 0 1 1 0 6.84" fill-rule="evenodd" fill="#fff"/><path d="M322 395.578a3.42 3.42 0 0 1 0-6.84 3.42 3.42 0 1 1 0 6.84zm0 0" fill="none" stroke-width=".06" stroke-linecap="square" stroke-linejoin="bevel" stroke="#000" stroke-miterlimit="10"/><path d="M307.66 527.16a5.461 5.461 0 1 1 .001-10.923 5.461 5.461 0 0 1 0 10.923" fill-rule="evenodd" fill="green"/><path d="M307.66 527.16a5.461 5.461 0 1 1 .001-10.923 5.461 5.461 0 0 1 0 10.923zm0 0" fill="none" stroke-width=".12" stroke-linecap="round" stroke-linejoin="round" stroke="green" stroke-miterlimit="10"/><path d="M307.66 525.121a3.42 3.42 0 1 1-.002-6.842 3.42 3.42 0 0 1 .002 6.842" fill-rule="evenodd" fill="#fff"/><path d="M307.66 525.121a3.42 3.42 0 1 1-.002-6.842 3.42 3.42 0 0 1 .002 6.842zm0 0" fill="none" stroke-width=".06" stroke-linecap="square" stroke-linejoin="bevel" stroke="#000" stroke-miterlimit="10"/><path d="M307.66 483.96a5.461 5.461 0 1 1 .001-10.922 5.461 5.461 0 0 1 0 10.923" fill-rule="evenodd" fill="green"/><path d="M307.66 483.96a5.461 5.461 0 1 1 .001-10.922 5.461 5.461 0 0 1 0 10.923zm0 0" fill="none" stroke-width=".12" stroke-linecap="round" stroke-linejoin="round" stroke="green" stroke-miterlimit="10"/><path d="M307.66 481.922a3.42 3.42 0 0 1-3.422-3.422 3.42 3.42 0 1 1 6.84 0 3.418 3.418 0 0 1-3.418 3.422" fill-rule="evenodd" fill="#fff"/><path d="M307.66 481.922a3.42 3.42 0 0 1-3.422-3.422 3.42 3.42 0 1 1 6.84 0 3.418 3.418 0 0 1-3.418 3.422zm0 0" fill="none" stroke-width=".06" stroke-linecap="square" stroke-linejoin="bevel" stroke="#000" stroke-miterlimit="10"/><path d="M336.398 483.96a5.458 5.458 0 0 1-5.457-5.46 5.458 5.458 0 1 1 10.918 0 5.461 5.461 0 0 1-5.46 5.46" fill-rule="evenodd" fill="green"/><path d="M336.398 483.96a5.458 5.458 0 0 1-5.457-5.46 5.458 5.458 0 1 1 10.918 0 5.461 5.461 0 0 1-5.46 5.46zm0 0" fill="none" stroke-width=".12" stroke-linecap="round" stroke-linejoin="round" stroke="green" stroke-miterlimit="10"/><path d="M336.398 481.922a3.42 3.42 0 0 1-3.418-3.422 3.42 3.42 0 1 1 6.84 0 3.42 3.42 0 0 1-3.422 3.422" fill-rule="evenodd" fill="#fff"/><path d="M336.398 481.922a3.42 3.42 0 0 1-3.418-3.422 3.42 3.42 0 1 1 6.84 0 3.42 3.42 0 0 1-3.422 3.422zm0 0" fill="none" stroke-width=".06" stroke-linecap="square" stroke-linejoin="bevel" stroke="#000" stroke-miterlimit="10"/><path d="M336.398 527.16a5.458 5.458 0 0 1-5.457-5.46 5.458 5.458 0 1 1 10.918 0 5.461 5.461 0 0 1-5.46 5.46" fill-rule="evenodd" fill="green"/><path d="M336.398 527.16a5.458 5.458 0 0 1-5.457-5.46 5.458 5.458 0 1 1 10.918 0 5.461 5.461 0 0 1-5.46 5.46zm0 0" fill="none" stroke-width=".12" stroke-linecap="round" stroke-linejoin="round" stroke="green" stroke-miterlimit="10"/><path d="M336.398 525.121a3.42 3.42 0 1 1 .005-6.84 3.42 3.42 0 0 1-.005 6.84" fill-rule="evenodd" fill="#fff"/><path d="M336.398 525.121a3.42 3.42 0 1 1 .005-6.84 3.42 3.42 0 0 1-.005 6.84zm0 0" fill="none" stroke-width=".06" stroke-linecap="square" stroke-linejoin="bevel" stroke="#000" stroke-miterlimit="10"/><path d="M320.441 424.621l-2.16-2.16v-3.121l2.16-2.16h3.118l2.16 2.16v3.12l-2.16 2.161h-3.118" fill="green"/><path d="M320.441 424.621l-2.16-2.16v-3.121l2.16-2.16h3.118l2.16 2.16v3.12l-2.16 2.161zm0 0" fill="none" stroke-width=".12" stroke-linecap="round" stroke-linejoin="round" stroke="green" stroke-miterlimit="10"/><path d="M322 423.18a2.281 2.281 0 0 1-2.281-2.282 2.28 2.28 0 0 1 4.562 0A2.281 2.281 0 0 1 322 423.18" fill-rule="evenodd" fill="#fff"/><path d="M322 423.18a2.281 2.281 0 0 1-2.281-2.282 2.28 2.28 0 0 1 4.562 0A2.281 2.281 0 0 1 322 423.18zm0 0" fill="none" stroke-width=".06" stroke-linecap="square" stroke-linejoin="bevel" stroke="#000" stroke-miterlimit="10"/><path d="M320.441 453.422l-2.16-2.16v-3.121l2.16-2.16h3.118l2.16 2.16v3.12l-2.16 2.16h-3.118" fill="green"/><path d="M320.441 453.422l-2.16-2.16v-3.121l2.16-2.16h3.118l2.16 2.16v3.12l-2.16 2.16zm0 0" fill="none" stroke-width=".12" stroke-linecap="round" stroke-linejoin="round" stroke="green" stroke-miterlimit="10"/><path d="M322 451.98a2.281 2.281 0 0 1-2.281-2.28 2.28 2.28 0 0 1 4.562 0 2.281 2.281 0 0 1-2.281 2.28" fill-rule="evenodd" fill="#fff"/><path d="M322 451.98a2.281 2.281 0 0 1-2.281-2.28 2.28 2.28 0 0 1 4.562 0 2.281 2.281 0 0 1-2.281 2.28zm0 0" fill="none" stroke-width=".06" stroke-linecap="square" stroke-linejoin="bevel" stroke="#000" stroke-miterlimit="10"/><path d="M320.441 439.02l-2.16-2.16v-3.122l2.16-2.16h3.118l2.16 2.16v3.121l-2.16 2.16h-3.118" fill="green"/><path d="M320.441 439.02l-2.16-2.16v-3.122l2.16-2.16h3.118l2.16 2.16v3.121l-2.16 2.16zm0 0" fill="none" stroke-width=".12" stroke-linecap="round" stroke-linejoin="round" stroke="green" stroke-miterlimit="10"/><path d="M322 437.578a2.28 2.28 0 0 1-2.281-2.277 2.281 2.281 0 0 1 4.562 0 2.28 2.28 0 0 1-2.281 2.277" fill-rule="evenodd" fill="#fff"/><path d="M322 437.578a2.28 2.28 0 0 1-2.281-2.277 2.281 2.281 0 0 1 4.562 0 2.28 2.28 0 0 1-2.281 2.277zm0 0" fill="none" stroke-width=".06" stroke-linecap="square" stroke-linejoin="bevel" stroke="#000" stroke-miterlimit="10"/><path d="M278.86 368.82a5.461 5.461 0 1 1 0-10.923 5.461 5.461 0 0 1 0 10.923" fill-rule="evenodd" fill="green"/><path d="M278.86 368.82a5.461 5.461 0 1 1 0-10.923 5.461 5.461 0 0 1 0 10.923zm0 0" fill="none" stroke-width=".12" stroke-linecap="round" stroke-linejoin="round" stroke="green" stroke-miterlimit="10"/><path d="M278.86 366.238a2.88 2.88 0 1 1 0-5.758 2.88 2.88 0 0 1 0 5.758" fill-rule="evenodd" fill="#fff"/><path d="M278.86 366.238a2.88 2.88 0 1 1 0-5.758 2.88 2.88 0 0 1 0 5.758zm0 0" fill="none" stroke-width=".06" stroke-linecap="square" stroke-linejoin="bevel" stroke="#000" stroke-miterlimit="10"/><path d="M264.46 397.621a5.461 5.461 0 1 1 .002-10.923 5.461 5.461 0 0 1-.001 10.923" fill-rule="evenodd" fill="green"/><path d="M264.46 397.621a5.461 5.461 0 1 1 .002-10.923 5.461 5.461 0 0 1-.001 10.923zm0 0" fill="none" stroke-width=".12" stroke-linecap="round" stroke-linejoin="round" stroke="green" stroke-miterlimit="10"/><path d="M264.46 395.04a2.882 2.882 0 0 1-2.882-2.88 2.882 2.882 0 0 1 2.883-2.879 2.88 2.88 0 0 1 0 5.758" fill-rule="evenodd" fill="#fff"/><path d="M264.46 395.04a2.882 2.882 0 0 1-2.882-2.88 2.882 2.882 0 0 1 2.883-2.879 2.88 2.88 0 0 1 0 5.758zm0 0" fill="none" stroke-width=".06" stroke-linecap="square" stroke-linejoin="bevel" stroke="#000" stroke-miterlimit="10"/><path d="M293.262 397.621a5.461 5.461 0 0 1 0-10.922 5.46 5.46 0 0 1 5.457 5.461 5.46 5.46 0 0 1-5.457 5.461" fill-rule="evenodd" fill="green"/><path d="M293.262 397.621a5.461 5.461 0 0 1 0-10.922 5.46 5.46 0 0 1 5.457 5.461 5.46 5.46 0 0 1-5.457 5.461zm0 0" fill="none" stroke-width=".12" stroke-linecap="round" stroke-linejoin="round" stroke="green" stroke-miterlimit="10"/><path d="M293.262 395.04a2.882 2.882 0 0 1-2.883-2.88 2.882 2.882 0 0 1 2.883-2.879 2.88 2.88 0 0 1 0 5.758" fill-rule="evenodd" fill="#fff"/><path d="M293.262 395.04a2.882 2.882 0 0 1-2.883-2.88 2.882 2.882 0 0 1 2.883-2.879 2.88 2.88 0 0 1 0 5.758zm0 0" fill="none" stroke-width=".06" stroke-linecap="square" stroke-linejoin="bevel" stroke="#000" stroke-miterlimit="10"/><path d="M235.719 525.422a3.721 3.721 0 1 1 .004-7.442 3.721 3.721 0 0 1-.004 7.442" fill-rule="evenodd" fill="green"/><path d="M235.719 525.422a3.721 3.721 0 1 1 .004-7.442 3.721 3.721 0 0 1-.004 7.442zm0 0" fill="none" stroke-width=".12" stroke-linecap="round" stroke-linejoin="round" stroke="green" stroke-miterlimit="10"/><path d="M235.719 523.98a2.278 2.278 0 0 1-2.278-2.28 2.277 2.277 0 0 1 2.278-2.278 2.278 2.278 0 1 1 0 4.558" fill-rule="evenodd" fill="#fff"/><path d="M235.719 523.98a2.278 2.278 0 0 1-2.278-2.28 2.277 2.277 0 0 1 2.278-2.278 2.278 2.278 0 1 1 0 4.558zm0 0" fill="none" stroke-width=".06" stroke-linecap="square" stroke-linejoin="bevel" stroke="#000" stroke-miterlimit="10"/><path d="M293.262 525.422a3.722 3.722 0 1 1-.002-7.444 3.722 3.722 0 0 1 .002 7.444" fill-rule="evenodd" fill="green"/><path d="M293.262 525.422a3.722 3.722 0 1 1-.002-7.444 3.722 3.722 0 0 1 .002 7.444zm0 0" fill="none" stroke-width=".12" stroke-linecap="round" stroke-linejoin="round" stroke="green" stroke-miterlimit="10"/><path d="M293.262 523.98a2.279 2.279 0 1 1-.005-4.557 2.279 2.279 0 0 1 .005 4.557" fill-rule="evenodd" fill="#fff"/><path d="M293.262 523.98a2.279 2.279 0 1 1-.005-4.557 2.279 2.279 0 0 1 .005 4.557zm0 0" fill="none" stroke-width=".06" stroke-linecap="square" stroke-linejoin="bevel" stroke="#000" stroke-miterlimit="10"/><path d="M275.8 269.82l.54.54m0 0h1.082m0 0l.539-.54m-.001 0v-2.101m0 0l-.538-.54m0 .001h-1.082m0 0l-.54.539m0 0v.543m0 0l.54.476m0 0h1.62m1.02-1.558v2.101m0 0l1.079 1.078m0 .001l1.082-1.079m-.001 0v-2.101m65.04 3.18v-2.098m0 0l1.02-1.082m0 0l1.081 1.082m0 0v2.097m-2.101-1.621h2.101m1.079 1.622v-3.18m0 0l2.1 3.18m0 0v-3.18m2.099 3.18v-3.18m-1.019 0h2.1M343 558.238v-2.097m0-.001l1.02-1.081m0 0l1.082 1.082m0-.001v2.098M343 556.68h2.102m2.636-1.621h-1.02m.001 0l-.54.543m.001 0v2.097m0 .001l.539.538m0 0h1.02m-.001 0l.543-.539m0 .001v-2.098m0 0l-.543-.543m1.622 0v2.64m0 .001l.538.538m0 0h1.024m0 0l.539-.539m-.001.001v-2.641m2.099 3.179v-3.18m-1.019.001h2.1m1.079 1.621h2.101m-1.082-1.078v2.097m-85.679.539v-2.097m0-.001l1.082-1.081m-.001 0l1.02 1.082m0-.001v2.098m-2.101-1.558h2.101m2.64-1.621h-1.019m0 0l-.543.543m0 0v2.097m0 .001l.543.538m0 0h1.02m-.001 0l.54-.539m0 .001v-2.098m0 0l-.54-.543m1.622 0v2.64m0 .001l.539.538m-.001 0h1.02m0 0l.54-.539m0 .001v-2.641m2.16 3.179v-3.18m-1.078.001h2.097m1.082 1.621h2.098" fill="none" stroke-width=".3" stroke-linecap="round" stroke-linejoin="round" stroke="#505050" stroke-miterlimit="10"/><path d="M283.898 309.36l.782-.06.78-.3.661-.422.598-.598.422-.66.238-.78.121-.778m-13.68 3.598h10.078m-13.679-3.598l.12.777.24.781.421.66.602.598.66.422.777.3.781.06m0-7.2l-.78.121-.778.239-.66.421-.602.598-.422.66-.238.781-.121.782m13.679-3.602H273.82" fill="none" stroke-width=".72" stroke-linecap="round" stroke-linejoin="round" stroke="#505050" stroke-miterlimit="10"/><path d="M287.5 305.762l-.121-.782-.238-.78-.422-.66-.598-.599-.66-.421-.781-.239-.782-.12" fill="none" stroke-width=".72" stroke-linecap="round" stroke-linejoin="round" stroke="#505050" stroke-miterlimit="10"/><path d="M279.578 302.879v5.762h1.442v-5.762zm-2.878 0v5.762h1.44v-5.762zm0 0" fill="#505050" stroke-width=".12" stroke-linecap="round" stroke-linejoin="round" stroke="#505050" stroke-miterlimit="10"/><path d="M283.898 309.36l.782-.06.78-.3.661-.422.598-.598.422-.66.238-.78.121-.778m6 107.578l3.66 3.66m-7.922 0l4.801-4.86m.001 0l-1.802-1.8m0 0l-2.16-.18m0 0l-2.098-.18m0 0l-4.859 4.86M299.5 430.8l4.621-4.62m0 0l-.121-2.102m0 0l-.18-2.156m0 0l-1.86-1.8m0-.001l-4.8 4.8m3.961-3.901l-3.96-4.02m-21.899 12.54l9.36 9.358m-11.642-7.019l9.36 9.36m16.5-18.059l-7.8-7.801M278.86 442.2a6.9 6.9 0 1 1 .003-13.801 6.9 6.9 0 0 1-.004 13.8zm0 0" fill="none" stroke-width=".72" stroke-linecap="round" stroke-linejoin="round" stroke="#505050" stroke-miterlimit="10"/><path d="M300.82 423.3l.72.122.6.418.36.539.121.723-.121.66-.36.597-.6.422-.72.117-.66-.117-.601-.422-.36-.597-.18-.66.18-.723.36-.54.601-.417.66-.121v.719l.418.058.364.242.238.36.058.422-.058.418-.238.359-.364.18-.418.12-.36-.12-.358-.18-.243-.36-.12-.417.12-.422.243-.36.359-.242.36-.058v-.72" fill-rule="evenodd" fill="#505050"/><path d="M300.82 423.3l.72.122.6.418.36.539.121.723-.121.66-.36.597-.6.422-.72.117-.66-.117-.601-.422-.36-.597-.18-.66.18-.723.36-.54.601-.417.66-.121v.719l.418.058.364.242.238.36.058.422-.058.418-.238.359-.364.18-.418.12-.36-.12-.358-.18-.243-.36-.12-.417.12-.422.243-.36.359-.242.36-.058zm0 0" fill="none" stroke-width=".12" stroke-linecap="round" stroke-linejoin="round" stroke="#505050" stroke-miterlimit="10"/><path d="M289.059 411.422l.66.117.601.422.418.539.121.719-.12.66-.419.601-.601.418-.66.122-.72-.122-.538-.418-.422-.601-.117-.66.117-.719.422-.54.539-.42.719-.118v.719l.421.058.36.242.18.36.12.418-.12.422-.18.359-.36.18-.421.12-.418-.12-.36-.18-.242-.36-.059-.421.06-.418.241-.36.36-.242.418-.058v-.72" fill-rule="evenodd" fill="#505050"/><path d="M289.059 411.422l.66.117.601.422.418.539.121.719-.12.66-.419.601-.601.418-.66.122-.72-.122-.538-.418-.422-.601-.117-.66.117-.719.422-.54.539-.42.719-.118v.719l.421.058.36.242.18.36.12.418-.12.422-.18.359-.36.18-.421.12-.418-.12-.36-.18-.242-.36-.059-.421.06-.418.241-.36.36-.242.418-.058zm0 0" fill="none" stroke-width=".12" stroke-linecap="round" stroke-linejoin="round" stroke="#505050" stroke-miterlimit="10"/><path d="M278.86 456.121c-11.465 0-20.758-9.324-20.758-20.82 0-11.5 9.293-20.82 20.757-20.82 11.465 0 20.762 9.32 20.762 20.82 0 11.496-9.297 20.82-20.762 20.82zm0 0" fill="none" stroke-width=".72" stroke-linecap="round" stroke-linejoin="round" stroke="#505050" stroke-miterlimit="10"/><path d="M278.86 454.5c-10.602 0-19.2-8.598-19.2-19.2 0-10.605 8.598-19.198 19.2-19.198 10.605 0 19.199 8.593 19.199 19.199 0 10.601-8.594 19.199-19.2 19.199zM340 430.262l-.059-.782-.3-.78-.422-.66-.54-.599-.718-.421-.781-.239-.782-.12M340 440.34v-10.078m-3.602 13.679l.782-.062.78-.3.72-.419.539-.539.422-.723.3-.718.059-.84m-7.2 0l.122.84.238.718.418.723.602.54.66.417.781.3.777.063m-3.598-13.679v10.078m3.598-13.68l-.777.121-.781.239-.66.421-.602.598-.418.66-.238.781-.121.782" fill="none" stroke-width=".72" stroke-linecap="round" stroke-linejoin="round" stroke="#505050" stroke-miterlimit="10"/><path d="M333.52 433.14v1.442h5.761v-1.441zm0 2.88v1.44h5.761v-1.44zm0 0" fill="#505050" stroke-width=".12" stroke-linecap="round" stroke-linejoin="round" stroke="#505050" stroke-miterlimit="10"/><path d="M340 430.262l-.059-.782-.3-.78-.422-.66-.54-.599-.718-.421-.781-.239-.782-.12M269.5 539.7l.84-.122.719-.238.722-.418.54-.602.417-.66.301-.781.063-.777m-13.68 3.598H269.5m-13.68-3.598l.121.777.239.781.48.66.54.602.66.418.78.238.782.121m0-7.199l-.781.059-.782.3-.66.422-.539.54-.48.718-.239.723-.12.84M269.5 532.5h-10.078m13.68 3.602l-.063-.84-.3-.723-.419-.719-.539-.539-.722-.422-.72-.3-.839-.059" fill="none" stroke-width=".72" stroke-linecap="round" stroke-linejoin="round" stroke="#505050" stroke-miterlimit="10"/><path d="M265.18 533.219v5.761h1.441v-5.761zm-2.88 0v5.761h1.438v-5.761zm0 0" fill="#505050" stroke-width=".12" stroke-linecap="round" stroke-linejoin="round" stroke="#505050" stroke-miterlimit="10"/><path d="M269.5 539.7l.84-.122.719-.238.722-.418.54-.602.417-.66.301-.781.063-.777m58.258-3.602l-.782.059-.777.3-.66.422-.602.54-.418.718-.242.723-.117.84m13.679-3.602H331.36m13.68 3.602l-.118-.84-.242-.723-.418-.719-.602-.539-.66-.422-.781-.3-.778-.059m0 7.2l.778-.122.781-.238.66-.418.602-.602.418-.66.242-.781.117-.777M331.36 539.7h10.081m-13.679-3.598l.117.777.242.781.418.66.602.602.66.418.777.238.781.121" fill="none" stroke-width=".72" stroke-linecap="round" stroke-linejoin="round" stroke="#505050" stroke-miterlimit="10"/><path d="M334.238 533.219v5.761h1.442v-5.761zm2.883 0v5.761h1.438v-5.761zm0 0" fill="#505050" stroke-width=".12" stroke-linecap="round" stroke-linejoin="round" stroke="#505050" stroke-miterlimit="10"/><path d="M331.36 532.5l-.782.059-.777.3-.66.422-.602.54-.418.718-.242.723-.117.84" fill="none" stroke-width=".72" stroke-linecap="round" stroke-linejoin="round" stroke="#505050" stroke-miterlimit="10"/><path d="M261.941 260.52l-.48-.54m-.001 0h-1.081m0 0l-.54.54m.001 0v2.101m0 0l.539.54m0-.001h1.082m-.001 0l.481-.539m0 0v-1.02m0 .001h-1.02m2.099 1.558v-3.18m0 0l2.101 3.18m0 0v-3.18m1.079 0v3.18m0 0h1.62m0 0l.48-.539m0 0v-2.101m0 0l-.48-.54m0 0h-1.62" fill="none" stroke-width=".3" stroke-linecap="round" stroke-linejoin="round" stroke="#505050" stroke-miterlimit="10"/><path d="M322 350.04l-2.219.12-2.16.3-2.16.54-2.102.781-2.039.899-1.86 1.14-1.8 1.38-1.68 1.44-1.5 1.68-1.32 1.801-1.14 1.86-.899 2.039-.781 2.101-.54 2.16-.3 2.219-.121 2.219M322 338.7l-2.219.12-2.16.301-2.16.54-2.102.78-2.039.899-1.86 1.2-1.8 1.32-1.68 1.5-1.5 1.62-1.32 1.801-1.14 1.918-.899 1.98-.781 2.102-.54 2.16-.3 2.22-.121 2.218M322 327.36l-2.219.12-2.16.301-2.16.54-2.102.78-2.039.958-1.86 1.14-1.8 1.32-1.68 1.5-1.5 1.622-1.32 1.8-1.14 1.918-.899 1.98-.781 2.102-.54 2.16-.3 2.22-.121 2.218M322 316.02l-2.219.12-2.16.301-2.16.54-2.102.78-2.039.958-1.86 1.14-1.8 1.32-1.68 1.5-1.5 1.622-1.32 1.8-1.14 1.919-.899 1.98-.781 2.102-.54 2.16-.3 2.218-.121 2.22M322 304.68l-2.219.12-2.16.302-2.16.539-2.102.78-2.039.958-1.86 1.14-1.8 1.32-1.68 1.5-1.5 1.622-1.32 1.8-1.14 1.919-.899 1.98-.781 2.102-.54 2.16-.3 2.219-.121 2.218M322 293.34l-2.219.12-2.16.302-2.16.539-2.102.777-2.039.961-1.86 1.14-1.8 1.321-1.68 1.5-1.5 1.621-1.32 1.8-1.14 1.919-.899 1.98-.781 2.102-.54 2.156-.3 2.223-.121 2.219" fill="none" stroke-width=".72" stroke-linecap="round" stroke-linejoin="round" stroke="#505050" stroke-miterlimit="10"/><path d="M322 350.04l-2.219.12-2.16.3-2.16.54-2.102.781-2.039.899-1.86 1.14-1.8 1.38-1.68 1.44-1.5 1.68-1.32 1.801-1.14 1.86-.899 2.039-.781 2.101-.54 2.16-.3 2.219-.121 2.219M322 338.7l-2.219.12-2.16.301-2.16.54-2.102.78-2.039.899-1.86 1.2-1.8 1.32-1.68 1.5-1.5 1.62-1.32 1.801-1.14 1.918-.899 1.98-.781 2.102-.54 2.16-.3 2.22-.121 2.218M322 327.36l-2.219.12-2.16.301-2.16.54-2.102.78-2.039.958-1.86 1.14-1.8 1.32-1.68 1.5-1.5 1.622-1.32 1.8-1.14 1.918-.899 1.98-.781 2.102-.54 2.16-.3 2.22-.121 2.218M322 316.02l-2.219.12-2.16.301-2.16.54-2.102.78-2.039.958-1.86 1.14-1.8 1.32-1.68 1.5-1.5 1.622-1.32 1.8-1.14 1.919-.899 1.98-.781 2.102-.54 2.16-.3 2.218-.121 2.22M322 304.68l-2.219.12-2.16.302-2.16.539-2.102.78-2.039.958-1.86 1.14-1.8 1.32-1.68 1.5-1.5 1.622-1.32 1.8-1.14 1.919-.899 1.98-.781 2.102-.54 2.16-.3 2.219-.121 2.218M322 293.34l-2.219.12-2.16.302-2.16.539-2.102.777-2.039.961-1.86 1.14-1.8 1.321-1.68 1.5-1.5 1.621-1.32 1.8-1.14 1.919-.899 1.98-.781 2.102-.54 2.156-.3 2.223-.121 2.219m51.421 4.14l-6.12-4.14M322 276.96V282" fill="none" stroke-width=".72" stroke-linecap="round" stroke-linejoin="round" stroke="#505050" stroke-miterlimit="10"/><path d="M307.602 482.34l2.277-.781m0 0l1.383-1.918m0-.001l-.063-2.402m.001 0l-1.438-1.918m0 0l-2.34-.601m0 0l-2.223.84m.001 0l-1.259 2.043m0 0l.18 2.398m0 0l1.379 1.68m0 0l2.102.66m37.438-12.48v60.48m0 0h-46.02m0 0v-60.48m0 0h46.02m-22.86 49.742l7.32-1.442m0 0l6.18-4.14m0 0l4.14-6.18m0 0l1.442-7.32m0 0l-1.442-7.32m0 0l-4.14-6.18m0 0l-6.18-4.2m0 0l-7.32-1.441m0 0l-7.32 1.441m0 0l-6.18 4.2m0 0l-4.14 6.18m0 0l-1.5 7.32m0 0l1.5 7.32m0 0l4.14 6.18m0 0l6.18 4.14m0 0l7.32 1.442m0-4.742l5.46-1.141m0 0l4.68-3.059m0 0l3.059-4.68m0 0l1.082-5.46m-.001 0l-1.08-5.52m-.001 0l-3.059-4.621m0 0l-4.68-3.117m0 0l-5.46-1.082m0 0l-5.52 1.082m0 0l-4.62 3.117m0 0L308.921 495m.001 0l-1.082 5.52m0 0l1.082 5.46m0 0l3.117 4.68m.001 0l4.62 3.059m0 0l5.52 1.14m14.218-32.519l2.282-.781m0 0l1.379-1.98m0-.001L340 477.18m0 0l-1.5-1.86m0 0l-2.281-.66m0 0l-2.219.899m0 0l-1.32 1.98m0 .001l.18 2.401m0 0l1.44 1.739m0 0l2.098.66m0 43.2l2.282-.778m0 0l1.379-1.922m0 0l-.059-2.4m0 .001l-1.5-1.921m0 0l-2.281-.598m0 0l-2.219.84m0 0l-1.32 2.039m0-.001l.18 2.4m0 0l1.44 1.679m0 0l2.098.66m-28.796-.059l2.277-.78m0 0l1.383-1.919m0 0l-.063-2.402m.001 0l-1.5-1.918m0-.001l-2.278-.6m0 0l-2.281.84m-.001 0l-1.261 2.038m0 0l.18 2.403m0-.001l1.382 1.68m0 0l2.16.66" fill="none" stroke-width=".12" stroke-linecap="round" stroke-linejoin="round" stroke="#505050" stroke-miterlimit="10"/><path d="M331.36 447.18v-23.758m-15.782-1.801l-1.68.957-1.5 1.082-1.378 1.32-1.2 1.442-1.02 1.617-.84 1.742-.538 1.797-.363 1.863-.118 1.86.118 1.918.363 1.86.539 1.8.84 1.742 1.02 1.559 1.199 1.5 1.378 1.261 1.5 1.137 1.68.902m7.141-28.742v30.184m-7.141-1.442l1.742.72 1.739.421 1.863.3h1.797m0 .001l1.5-.121 1.441-.301 1.442-.422 1.378-.598m0 0l1.5-.78 1.38-1.02m-2.88-25.559l-1.378-.543-1.442-.418-1.441-.3-1.5-.122m0 0h-1.797l-1.863.242-1.739.48-1.742.661" fill="none" stroke-width=".72" stroke-linecap="round" stroke-linejoin="round" stroke="#505050" stroke-miterlimit="10"/><path d="M331.36 423.422l-1.438-1.024-1.621-.84" fill="none" stroke-width=".72" stroke-linecap="round" stroke-linejoin="round" stroke="#505050" stroke-miterlimit="10"/><use xlink:href="#a" x="323.878" y="444.796" fill="#505050"/><path d="M277.422 376.32v-3.601m0 0h2.879m-.001 0v3.601m0 0h3.598m0 0v2.88m0 0h-3.597m-.001 0v3.6m0 0h-2.878m0 0v-3.6m0 0h-3.602m0 0v-2.88m0 0h3.602m20.878-20.16h-14.402M273.82 382.8l-2.879 2.88m12.957-2.88l2.883 2.88m-18.722-7.918h2.882m15.84 0h2.88M273.102 372l-1.442-1.441M284.621 372l1.438-1.441m2.16 28.801H269.5m28.8 0l.66-.122.599-.297.48-.48.3-.602.122-.66m-.001-38.879l-.12-.66-.3-.601-.481-.48-.598-.298-.66-.12m-38.879-.001l-.66.121-.602.297-.48.48-.301.602-.117.66m0 38.88l.117.66.3.6.481.481.602.297.66.121m0-43.199h14.398m26.64 30.238V358.32m-43.198 0v28.078m-5.703 129.543l-.48.059-.419.18-.3.36-.18.358-.059.48m0 8.642l.059.421.18.418.3.301.418.238.48.063m25.864-.001l.418-.062.422-.238.297-.3.242-.419.058-.421m.001-8.641l-.06-.48-.241-.36-.297-.36-.422-.179-.418-.059" fill="none" stroke-width=".9" stroke-linecap="round" stroke-linejoin="round" stroke="#505050" stroke-miterlimit="10"/><path d="M278.86 520.262v2.879h2.16v-2.88zm-30.9 0v2.879h2.161v-2.88zm0 0" fill="#505050" stroke-width=".12" stroke-linecap="round" stroke-linejoin="round" stroke="#505050" stroke-miterlimit="10"/><path d="M251.559 515.941l-.48.059-.419.18-.3.36-.18.358-.059.48m0 8.642l.059.421.18.418.3.301.418.238.48.063m25.864-.001l.418-.062.422-.238.297-.3.242-.419.058-.421m.001-8.641l-.06-.48-.241-.36-.297-.36-.422-.179-.418-.059m-27.301 10.079v-8.641m1.438-1.438h2.101m.719.719l-.719-.719m-2.101 11.519h2.101m.719-.722l-.719.723m20.88-10.801l.722-.719m-.722.719h-20.161m20.161 10.078l.722.723m-.722-.723h-20.161m23.043-10.797h-2.16m2.16 11.519h-2.16m3.598-1.44v-8.641" fill="none" stroke-width=".9" stroke-linecap="round" stroke-linejoin="round" stroke="#505050" stroke-miterlimit="10"/><path d="M278.86 520.262v2.879h2.16v-2.88zm-30.9 0v2.879h2.161v-2.88zm0 0" fill="#505050" stroke-width=".12" stroke-linecap="round" stroke-linejoin="round" stroke="#505050" stroke-miterlimit="10"/><path d="M264.46 305.762h12.18m16.622 0H281.02M336.398 449.7v-12.122m0-16.68v12.243m-86.277 102.961h12.117m16.622 0h-12.24m84.18 0h-12.179m-16.621 0h12.238" fill="none" stroke-width=".48" stroke-linecap="round" stroke-linejoin="round" stroke="#505050" stroke-miterlimit="10"/><path d="M283.898 356.16H273.82m5.04 13.68v-2.88m19.44 32.4h-10.08m-18.72 0h-10.078m41.038-12.962V397.2m-43.198 0v-10.802m21.598 2.883c-6.364 0-11.52-5.16-11.52-11.52 0-6.363 5.156-11.523 11.52-11.523 6.363 0 11.519 5.16 11.519 11.524 0 6.36-5.156 11.52-11.52 11.52zm0 0" fill="none" stroke-width=".9" stroke-linecap="round" stroke-linejoin="round" stroke="#505050" stroke-miterlimit="10"/><path d="M278.86 384.96a7.201 7.201 0 0 1 0-14.401 7.202 7.202 0 0 1 0 14.402zm0 0" fill="none" stroke-width=".9" stroke-linecap="round" stroke-linejoin="round" stroke="#505050" stroke-miterlimit="10"/><path d="M289.66 395.04v4.32h7.2v-4.32zm0 0" fill="#505050" stroke-width=".12" stroke-linecap="round" stroke-linejoin="round" stroke="#505050" stroke-miterlimit="10"/><path d="M293.262 521.7H281.02m-45.301 0h12.242" fill="none" stroke-width="2.88" stroke-linecap="round" stroke-linejoin="round" stroke="#505050" stroke-miterlimit="10"/><use xlink:href="#b" x="275.984" y="311.523" fill="#505050"/><use xlink:href="#c" x="275.984" y="316.383" fill="#505050"/><use xlink:href="#d" x="274.184" y="449.715" fill="#505050"/><use xlink:href="#e" x="279.044" y="449.715" fill="#505050"/><use xlink:href="#f" x="341.083" y="426.441" fill="#505050"/><use xlink:href="#g" x="341.083" y="430.341" fill="#505050"/><use xlink:href="#h" x="265.916" y="545.383" fill="#505050"/><use xlink:href="#i" x="269.816" y="545.383" fill="#505050"/><use xlink:href="#h" x="327.529" y="531.406" fill="#505050"/><use xlink:href="#j" x="331.429" y="531.406" fill="#505050"/><use xlink:href="#k" x="270.404" y="327.357" fill="#505050"/><use xlink:href="#l" x="274.423" y="327.357" fill="#505050"/><use xlink:href="#k" x="270.403" y="327.357" fill="#505050"/><use xlink:href="#l" x="274.423" y="327.357" fill="#505050"/><use xlink:href="#m" x="336.408" y="430.22" fill="#505050"/><use xlink:href="#c" x="336.408" y="435.98" fill="#505050"/><use xlink:href="#n" x="264.478" y="353.988" fill="#505050"/><use xlink:href="#o" x="270.778" y="353.988" fill="#505050"/><use xlink:href="#p" x="250.092" y="514.348" fill="#505050"/><use xlink:href="#q" x="255.132" y="514.348" fill="#505050"/><use xlink:href="#p" x="250.092" y="514.348" fill="#505050"/><use xlink:href="#q" x="255.132" y="514.348" fill="#505050"/><use xlink:href="#c" x="275.984" y="291.067" fill="#505050"/><use xlink:href="#r" x="275.984" y="295.507" fill="#505050"/><use xlink:href="#s" x="273.524" y="425.545" fill="#505050"/><use xlink:href="#i" x="277.064" y="425.545" fill="#505050"/><use xlink:href="#t" x="280.604" y="425.545" fill="#505050"/><use xlink:href="#g" x="341.083" y="436.759" fill="#505050"/><use xlink:href="#u" x="341.083" y="440.299" fill="#505050"/><use xlink:href="#v" x="341.083" y="443.839" fill="#505050"/><use xlink:href="#w" x="250.379" y="545.383" fill="#505050"/><use xlink:href="#x" x="253.919" y="545.383" fill="#505050"/><use xlink:href="#y" x="255.899" y="545.383" fill="#505050"/><use xlink:href="#z" x="259.439" y="545.383" fill="#505050"/><use xlink:href="#s" x="337.846" y="531.406" fill="#505050"/><use xlink:href="#A" x="341.386" y="531.406" fill="#505050"/><use xlink:href="#A" x="344.926" y="531.406" fill="#505050"/><use xlink:href="#z" x="348.466" y="531.406" fill="#505050"/><use xlink:href="#A" x="258.284" y="346.372" fill="#505050"/><use xlink:href="#x" x="261.824" y="346.372" fill="#505050"/><use xlink:href="#B" x="263.804" y="346.372" fill="#505050"/><use xlink:href="#B" x="267.343" y="346.372" fill="#505050"/><use xlink:href="#C" x="270.884" y="346.372" fill="#505050"/><use xlink:href="#D" x="274.484" y="346.372" fill="#505050"/><use xlink:href="#A" x="258.284" y="346.372" fill="#505050"/><use xlink:href="#x" x="261.824" y="346.372" fill="#505050"/><use xlink:href="#B" x="263.804" y="346.372" fill="#505050"/><use xlink:href="#B" x="267.343" y="346.372" fill="#505050"/><use xlink:href="#C" x="270.884" y="346.372" fill="#505050"/><use xlink:href="#D" x="274.484" y="346.372" fill="#505050"/><use xlink:href="#E" x="295.823" y="424.46" fill="#505050"/><use xlink:href="#F" x="295.823" y="428.3" fill="#505050"/><use xlink:href="#G" x="295.823" y="431.66" fill="#505050"/><use xlink:href="#g" x="295.823" y="435.2" fill="#505050"/><use xlink:href="#H" x="295.823" y="438.74" fill="#505050"/><use xlink:href="#E" x="295.823" y="442.28" fill="#505050"/><use xlink:href="#o" x="257.285" y="408.689" fill="#505050"/><use xlink:href="#I" x="262.805" y="408.689" fill="#505050"/><use xlink:href="#s" x="255.271" y="524.425" fill="#505050"/><use xlink:href="#A" x="258.811" y="524.425" fill="#505050"/><use xlink:href="#J" x="262.351" y="524.425" fill="#505050"/><use xlink:href="#s" x="255.271" y="524.425" fill="#505050"/><use xlink:href="#A" x="258.811" y="524.425" fill="#505050"/><use xlink:href="#J" x="262.351" y="524.425" fill="#505050"/><path d="M250.121 536.102l28.738 28.796m-43.14-43.198l14.402 14.402M322 449.7l-86.281 72m57.543-72H322m-57.54-57.54l28.802 57.54M264.46 305.762v86.398m0-122.398v36m71.938 115.136L322 392.16m0 28.738h14.398m-43.136 0H322m-28.738-115.136L322 276.96m-43.14 86.4l14.402-57.598M350.8 276.96v43.2M336.398 449.7l-28.738 28.8M322 435.3l14.398 14.4M322 536.102l14.398-14.403m-43.136.001L322 536.101m-43.14.001l14.402-14.403m57.538 14.403v28.796M278.86 276.96l14.402 115.2" fill="none" stroke-width=".12" stroke-linecap="round" stroke-linejoin="round" stroke="olive" stroke-miterlimit="10"/><g clip-path="url(#K)"><path d="M250.121 248.16v345.48" fill="none" stroke-width=".12" stroke-linecap="round" stroke-linejoin="round" stroke="#000" stroke-miterlimit="10"/></g><g clip-path="url(#L)"><path d="M250.121 593.64H365.2" fill="none" stroke-width=".12" stroke-linecap="round" stroke-linejoin="round" stroke="#000" stroke-miterlimit="10"/></g><g clip-path="url(#M)"><path d="M365.2 593.64V248.16" fill="none" stroke-width=".12" stroke-linecap="round" stroke-linejoin="round" stroke="#000" stroke-miterlimit="10"/></g><g clip-path="url(#N)"><path d="M365.2 248.16H250.12" fill="none" stroke-width=".12" stroke-linecap="round" stroke-linejoin="round" stroke="#000" stroke-miterlimit="10"/></g></svg>