<svg xmlns:xlink="http://www.w3.org/1999/xlink" width="842pt" height="595pt" viewBox="0 0 842 595">
  <defs/>
  <defs>
    <symbol id="FunctionGenerator-ICL8038-1_svg__a" overflow="visible">
      <path d="M1.313 0H.188v-.297h.374v-2.328H.188v-.297h1.125v.297H.938v2.328h.375zm0 0"/>
    </symbol>
    <symbol id="FunctionGenerator-ICL8038-1_svg__b" overflow="visible">
      <path d="M1.438.047a1.212 1.212 0 0 1-.532-.094A1.087 1.087 0 0 1 .5-.328a1.388 1.388 0 0 1-.281-.469 2.147 2.147 0 0 1-.094-.656c0-.25.031-.461.094-.64C.28-2.27.375-2.43.5-2.579a1.28 1.28 0 0 1 .406-.297c.156-.063.332-.094.531-.094.102 0 .196.008.282.016.082.023.16.043.234.062.063.024.129.043.203.063.063.031.125.07.188.11v.468h-.031c-.032-.031-.075-.07-.126-.125-.062-.04-.132-.082-.203-.125a2.15 2.15 0 0 0-.234-.11 1.54 1.54 0 0 0-.313-.03.767.767 0 0 0-.343.078.876.876 0 0 0-.297.218.997.997 0 0 0-.188.375 1.552 1.552 0 0 0-.078.516c0 .2.024.371.078.516a.83.83 0 0 0 .188.359c.082.105.18.18.297.219a.718.718 0 0 0 .343.078.99.99 0 0 0 .313-.047A.83.83 0 0 0 2-.422a1.42 1.42 0 0 0 .313-.234h.03v.453a2.274 2.274 0 0 0-.171.094 1.023 1.023 0 0 1-.219.078C1.867 0 1.79.019 1.72.03a2.627 2.627 0 0 1-.282.016zm0 0"/>
    </symbol>
    <symbol id="FunctionGenerator-ICL8038-1_svg__c" overflow="visible">
      <path d="M1.984 0H.297v-2.922h.39v2.578h1.297zm0 0"/>
    </symbol>
    <symbol id="FunctionGenerator-ICL8038-1_svg__d" overflow="visible">
      <path d="M1.594-2.234a.426.426 0 0 0-.14-.329.46.46 0 0 0-.36-.14.464.464 0 0 0-.344.125.378.378 0 0 0-.14.312c0 .094.019.18.062.25a.71.71 0 0 0 .219.172.509.509 0 0 0 .187.094c.07.043.145.074.219.094a.699.699 0 0 0 .234-.266.796.796 0 0 0 .063-.312zM1.64-.781a.599.599 0 0 0-.063-.281.934.934 0 0 0-.281-.22l-.172-.077a3.457 3.457 0 0 0-.25-.094.694.694 0 0 0-.25.25.873.873 0 0 0-.078.375.555.555 0 0 0 .156.437.494.494 0 0 0 .39.172c.165 0 .302-.05.407-.156.094-.094.14-.227.14-.406zm-.547.844A1.2 1.2 0 0 1 .704 0 .722.722 0 0 1 .39-.188a.598.598 0 0 1-.188-.28.883.883 0 0 1-.062-.344.8.8 0 0 1 .125-.438.947.947 0 0 1 .375-.313v-.015a.788.788 0 0 1-.329-.266.703.703 0 0 1-.093-.375c0-.219.082-.398.25-.547a.917.917 0 0 1 .625-.218c.258 0 .472.07.64.203a.706.706 0 0 1 .235.531c0 .137-.04.266-.11.39a.658.658 0 0 1-.328.298v.015c.164.086.297.184.39.297a.742.742 0 0 1 .126.438c0 .25-.09.46-.266.625a.994.994 0 0 1-.687.25zm0 0"/>
    </symbol>
    <symbol id="FunctionGenerator-ICL8038-1_svg__e" overflow="visible">
      <path d="M2.031-1.453c0 .523-.078.902-.234 1.14-.149.25-.383.376-.703.376C.77.063.535-.064.39-.314.234-.563.156-.94.156-1.452c0-.531.078-.914.235-1.156.156-.25.39-.375.703-.375.32 0 .554.132.703.39.156.25.234.633.234 1.14zm-.5.875a2.32 2.32 0 0 0 .078-.36 9.314 9.314 0 0 0 0-1.046 2.427 2.427 0 0 0-.078-.36.573.573 0 0 0-.172-.234.414.414 0 0 0-.265-.078.446.446 0 0 0-.266.078.512.512 0 0 0-.172.234 1.997 1.997 0 0 0-.078.375 6.995 6.995 0 0 0-.015.516c0 .2.003.371.015.516.008.136.035.257.078.359.04.105.098.183.172.234.063.055.149.078.266.078a.436.436 0 0 0 .265-.078.525.525 0 0 0 .172-.234zm0 0"/>
    </symbol>
    <symbol id="FunctionGenerator-ICL8038-1_svg__f" overflow="visible">
      <path d="M1-2.64a.671.671 0 0 0-.203.03.873.873 0 0 0-.219.063.582.582 0 0 0-.156.078c-.055.031-.094.059-.125.078H.266v-.406a2.29 2.29 0 0 1 .359-.125c.133-.039.27-.062.406-.062.133 0 .25.015.344.046a.62.62 0 0 1 .266.126c.093.062.16.136.203.218.039.094.062.2.062.313a.612.612 0 0 1-.156.422.669.669 0 0 1-.375.234v.031a.919.919 0 0 1 .39.188c.051.062.098.136.141.218a.78.78 0 0 1 .063.329.875.875 0 0 1-.079.359.803.803 0 0 1-.188.297.745.745 0 0 1-.312.187c-.118.051-.25.079-.407.079C.836.063.691.046.547.015a1.814 1.814 0 0 1-.36-.141v-.406H.22c.08.062.19.121.327.172a1.094 1.094 0 0 0 .656.046.559.559 0 0 0 .203-.124c.051-.063.094-.126.125-.188.02-.07.032-.16.032-.266a.687.687 0 0 0-.047-.265.491.491 0 0 0-.125-.157.446.446 0 0 0-.188-.078 1.123 1.123 0 0 0-.25-.03H.781v-.329h.14c.165 0 .306-.04.423-.125a.419.419 0 0 0 .172-.36.371.371 0 0 0-.047-.187.493.493 0 0 0-.11-.125 1.15 1.15 0 0 0-.171-.078A1.296 1.296 0 0 0 1-2.641zm0 0"/>
    </symbol>
    <symbol id="FunctionGenerator-ICL8038-1_svg__k" overflow="visible">
      <path d="M1.86 0H.436v-.297H.97V-2.25H.438v-.266c.195 0 .347-.03.453-.093.093-.051.144-.157.156-.313h.297v2.625h.515zm0 0"/>
    </symbol>
    <symbol id="FunctionGenerator-ICL8038-1_svg__l" overflow="visible">
      <path d="M2.078 0h-.484L.78-1.063l-.14.141V0H.266v-3.047H.64v1.781l.859-.921h.453l-.89.906zm0 0"/>
    </symbol>
    <symbol id="FunctionGenerator-ICL8038-1_svg__m" overflow="visible">
      <path d="M2.016 0H.219v-.406l.36-.36c.112-.101.226-.218.343-.343.219-.25.367-.446.453-.594.07-.145.113-.297.125-.453a.487.487 0 0 0-.047-.219.602.602 0 0 0-.11-.156.629.629 0 0 0-.344-.11.822.822 0 0 0-.218.032.685.685 0 0 0-.203.062 1.166 1.166 0 0 0-.156.078c-.055.031-.094.059-.125.078H.28v-.406c.07-.039.18-.082.328-.125.145-.039.286-.062.422-.062.258 0 .469.074.625.218.157.149.235.344.235.594 0 .117-.012.219-.032.313a2.19 2.19 0 0 1-.109.265 2.195 2.195 0 0 1-.188.25 4.057 4.057 0 0 1-.203.25 7.154 7.154 0 0 1-.421.422 7.96 7.96 0 0 1-.36.344h1.438zm0 0"/>
    </symbol>
    <symbol id="FunctionGenerator-ICL8038-1_svg__p" overflow="visible">
      <path d="M1.516.063c-.211 0-.399-.032-.563-.094a.962.962 0 0 1-.437-.297 1.177 1.177 0 0 1-.282-.469 1.894 1.894 0 0 1-.109-.672c0-.226.035-.437.11-.625a1.33 1.33 0 0 1 .28-.484c.114-.125.258-.223.438-.297.176-.063.363-.094.563-.094.101 0 .195.008.28.016.095.023.18.043.266.062.063.024.133.047.22.079a.829.829 0 0 1 .187.093v.469h-.031a3.862 3.862 0 0 0-.141-.125 1.311 1.311 0 0 0-.219-.125c-.086-.04-.18-.07-.281-.094a1.039 1.039 0 0 0-.328-.047.798.798 0 0 0-.672.329c-.18.21-.266.492-.266.843 0 .188.024.36.078.516a.83.83 0 0 0 .188.36.745.745 0 0 0 .312.234.884.884 0 0 0 .391.078c.113 0 .223-.004.328-.016.102-.02.195-.047.281-.078v-.75h-.687v-.344h1.062v1.282c-.054.023-.117.046-.187.078-.094.03-.172.058-.235.078-.105.031-.195.05-.265.062-.074.02-.168.032-.281.032zm0 0"/>
    </symbol>
    <symbol id="FunctionGenerator-ICL8038-1_svg__q" overflow="visible">
      <path d="M2.39 0h-.437L.656-2.516V0h-.36v-2.922h.548L2.016-.609v-2.313h.375zm0 0"/>
    </symbol>
    <symbol id="FunctionGenerator-ICL8038-1_svg__r" overflow="visible">
      <path d="M2.594-1.453c0 .262-.055.5-.156.719-.106.218-.25.386-.438.5a1.33 1.33 0 0 1-.453.187A2.89 2.89 0 0 1 .969 0H.297v-2.922h.656c.281 0 .5.024.656.063.157.043.286.101.391.171.188.126.332.293.438.5.101.211.156.454.156.735zm-.406-.016c0-.218-.04-.41-.11-.578a.813.813 0 0 0-.328-.36 1.342 1.342 0 0 0-.328-.14 1.832 1.832 0 0 0-.438-.047H.688v2.266h.296c.164 0 .317-.016.454-.047a1.016 1.016 0 0 0 .656-.516c.062-.156.094-.347.094-.578zm0 0"/>
    </symbol>
    <symbol id="FunctionGenerator-ICL8038-1_svg__s" overflow="visible">
      <path d="M.844 0H.375v-.563h.469zm0 0"/>
    </symbol>
    <symbol id="FunctionGenerator-ICL8038-1_svg__t" overflow="visible">
      <path d="M1.984 0h-.359v-1.25c0-.094-.008-.188-.016-.281a.566.566 0 0 0-.062-.203.382.382 0 0 0-.125-.125 1.042 1.042 0 0 0-.219-.047.589.589 0 0 0-.281.078c-.106.055-.2.117-.281.187V0H.266v-2.188H.64v.235a1.42 1.42 0 0 1 .312-.219.831.831 0 0 1 .344-.078c.219 0 .39.07.516.203.113.149.171.356.171.625zm0 0"/>
    </symbol>
    <symbol id="FunctionGenerator-ICL8038-1_svg__u" overflow="visible"/>
    <symbol id="FunctionGenerator-ICL8038-1_svg__v" overflow="visible">
      <path d="M2.281-.89a.703.703 0 0 1-.094.374.72.72 0 0 1-.218.282.865.865 0 0 1-.344.172A1.62 1.62 0 0 1 1.141 0H.297v-2.922h.781c.195 0 .352.008.469.016.094.023.191.058.297.11a.588.588 0 0 1 .297.53c0 .149-.04.274-.11.375a.778.778 0 0 1-.297.25v.016c.164.055.301.14.407.266a.76.76 0 0 1 .14.468zm-.547-1.313a.554.554 0 0 0-.03-.188.281.281 0 0 0-.11-.125.977.977 0 0 0-.219-.062 2.985 2.985 0 0 0-.313-.016H.688v.86h.438c.125 0 .21-.004.266-.016a.429.429 0 0 0 .187-.078.452.452 0 0 0 .125-.156.634.634 0 0 0 .031-.22zm.141 1.328a.73.73 0 0 0-.047-.281.355.355 0 0 0-.187-.172.722.722 0 0 0-.204-.063 2.985 2.985 0 0 0-.312-.015H.687v1.078H1c.164 0 .3-.008.406-.031a.478.478 0 0 0 .25-.094c.07-.05.13-.11.172-.172a.56.56 0 0 0 .047-.25zm0 0"/>
    </symbol>
    <symbol id="FunctionGenerator-ICL8038-1_svg__w" overflow="visible">
      <path d="M1.984-.922c0 .137-.023.266-.062.39a1.304 1.304 0 0 1-.203.313.757.757 0 0 1-.297.203 1.072 1.072 0 0 1-.406.079C.867.063.726.046.594.015A1.216 1.216 0 0 1 .25-.11v-.407h.016c.03.024.078.047.14.079.051.023.114.046.188.078.07.023.14.043.203.062.062.012.133.016.219.016.07 0 .148-.016.234-.047a.389.389 0 0 0 .188-.125.604.604 0 0 0 .109-.203c.02-.07.031-.164.031-.281a.868.868 0 0 0-.031-.25.491.491 0 0 0-.125-.157.644.644 0 0 0-.203-.11 1.265 1.265 0 0 0-.282-.03 4 4 0 0 0-.312.015c-.117.024-.203.04-.266.047v-1.5h1.61v.344H.734v.781c.051-.008.098-.016.141-.016H1c.156 0 .285.012.39.032.094.031.192.078.298.14a.782.782 0 0 1 .218.282c.051.117.078.261.078.437zm0 0"/>
    </symbol>
    <symbol id="FunctionGenerator-ICL8038-1_svg__x" overflow="visible"/>
    <symbol id="FunctionGenerator-ICL8038-1_svg__y" overflow="visible"/>
    <symbol id="FunctionGenerator-ICL8038-1_svg__z" overflow="visible">
      <path d="M.297 0v-2.922h1.828v.344H.687v.797h1.344v.36H.687v1.077h1.438V0zm0 0"/>
    </symbol>
    <symbol id="FunctionGenerator-ICL8038-1_svg__aj" overflow="visible">
      <path d="M2.563 0h-.516l-.922-1.156H.687V0h-.39v-2.922h.75c.164 0 .305.012.422.031.113.024.222.063.328.125a.8.8 0 0 1 .234.25.751.751 0 0 1 .094.391.797.797 0 0 1-.172.531.913.913 0 0 1-.437.328zm-.844-2.094a.598.598 0 0 0-.047-.234.412.412 0 0 0-.14-.156.446.446 0 0 0-.188-.079c-.074-.007-.168-.019-.282-.03H.688v1.109h.344c.102 0 .203-.008.297-.032a.459.459 0 0 0 .219-.125.38.38 0 0 0 .125-.187.66.66 0 0 0 .047-.266zm0 0"/>
    </symbol>
    <symbol id="FunctionGenerator-ICL8038-1_svg__ak" overflow="visible">
      <path d="M2.063-.953c0 .156-.028.297-.079.422a.974.974 0 0 1-.203.312.723.723 0 0 1-.297.203.78.78 0 0 1-.343.079A1.04 1.04 0 0 1 .78 0a.891.891 0 0 1-.297-.203A1.194 1.194 0 0 1 .25-.625a2.253 2.253 0 0 1-.078-.656c0-.25.023-.477.078-.688.05-.207.129-.383.234-.531.102-.145.239-.258.407-.344.164-.082.359-.125.578-.125h.187c.063.012.114.024.157.031v.376h-.016a.676.676 0 0 0-.156-.047.87.87 0 0 0-.22-.032.784.784 0 0 0-.593.25c-.148.168-.234.414-.265.735a1.58 1.58 0 0 1 .296-.157.973.973 0 0 1 .313-.046c.113 0 .21.011.297.03a.792.792 0 0 1 .515.438c.051.125.079.274.079.438zm-.407.015a.861.861 0 0 0-.047-.296.5.5 0 0 0-.14-.204.735.735 0 0 0-.172-.093c-.074-.008-.14-.016-.203-.016a.745.745 0 0 0-.266.047 1.272 1.272 0 0 0-.265.125v.172c0 .21.019.375.062.5.04.125.086.219.14.281.051.063.11.106.172.125a.326.326 0 0 0 .204.031c.156 0 .28-.05.375-.156.093-.113.14-.285.14-.516zm0 0"/>
    </symbol>
    <symbol id="FunctionGenerator-ICL8038-1_svg__al" overflow="visible">
      <path d="M1.11.047a1.449 1.449 0 0 1-.532-.063 2.058 2.058 0 0 1-.422-.156v-.484h.016c.133.117.281.21.437.281.164.063.32.094.47.094.218 0 .378-.047.484-.14a.4.4 0 0 0 .171-.345.489.489 0 0 0-.093-.296.604.604 0 0 0-.266-.157 2.536 2.536 0 0 1-.25-.062 5.878 5.878 0 0 0-.281-.063 1.134 1.134 0 0 1-.266-.11.743.743 0 0 1-.219-.155.588.588 0 0 1-.14-.235.83.83 0 0 1-.047-.297c0-.226.094-.425.281-.593.176-.157.41-.235.703-.235.157 0 .313.016.469.047.145.031.281.078.406.14v.47H2a1.788 1.788 0 0 0-.36-.235 1.148 1.148 0 0 0-.452-.094c-.188 0-.336.043-.438.125a.4.4 0 0 0-.172.344c0 .125.031.227.094.297a.518.518 0 0 0 .281.156c.082.024.188.047.313.078.113.024.21.047.296.079A.917.917 0 0 1 2-1.297a.76.76 0 0 1 .14.469.725.725 0 0 1-.078.328.661.661 0 0 1-.187.281.83.83 0 0 1-.313.203c-.125.04-.277.063-.453.063zm0 0"/>
    </symbol>
    <symbol id="FunctionGenerator-ICL8038-1_svg__am" overflow="visible">
      <path d="M.984 0v-2.578H0v-.344h2.344v.344h-.985V0zm0 0"/>
    </symbol>
    <symbol id="FunctionGenerator-ICL8038-1_svg__an" overflow="visible">
      <path d="M2.719.719C2.645.727 2.57.739 2.5.75c-.086.008-.164.016-.234.016-.22 0-.399-.063-.532-.188-.136-.117-.21-.289-.218-.515h-.094c-.2 0-.375-.04-.531-.11a.87.87 0 0 1-.407-.297A1.247 1.247 0 0 1 .22-.813a2.01 2.01 0 0 1-.094-.64c0-.25.031-.469.094-.656.062-.188.148-.344.265-.47a.897.897 0 0 1 .407-.296c.156-.07.332-.11.53-.11.196 0 .376.04.532.11.156.074.29.172.406.297.114.125.204.281.266.469.05.187.082.406.094.656-.012.375-.09.683-.235.922-.148.25-.343.418-.593.5 0 .082.007.148.03.203A.34.34 0 0 0 2 .312c.031.04.07.07.125.094a1.3 1.3 0 0 0 .203.016.46.46 0 0 0 .188-.016 2.74 2.74 0 0 1 .156-.047h.047zm-.406-2.172c0-.195-.024-.367-.063-.516a1.015 1.015 0 0 0-.453-.61 1.18 1.18 0 0 0-.75 0 .885.885 0 0 0-.281.235c-.075.106-.133.23-.172.375a1.943 1.943 0 0 0-.063.516c0 .375.082.668.25.875.156.21.367.312.64.312.27 0 .485-.101.641-.312.165-.207.25-.5.25-.875zm0 0"/>
    </symbol>
    <symbol id="FunctionGenerator-ICL8038-1_svg__aq" overflow="visible"/>
    <symbol id="FunctionGenerator-ICL8038-1_svg__ar" overflow="visible"/>
    <symbol id="FunctionGenerator-ICL8038-1_svg__as" overflow="visible"/>
    <symbol id="FunctionGenerator-ICL8038-1_svg__g" overflow="visible"/>
    <symbol id="FunctionGenerator-ICL8038-1_svg__h" overflow="visible"/>
    <symbol id="FunctionGenerator-ICL8038-1_svg__i" overflow="visible"/>
    <symbol id="FunctionGenerator-ICL8038-1_svg__j" overflow="visible"/>
    <symbol id="FunctionGenerator-ICL8038-1_svg__ai" overflow="visible"/>
    <symbol id="FunctionGenerator-ICL8038-1_svg__n" overflow="visible"/>
    <symbol id="FunctionGenerator-ICL8038-1_svg__o" overflow="visible">
      <path d="M2.016.078c-.274 0-.516-.047-.735-.14A1.315 1.315 0 0 1 .703-.47a1.823 1.823 0 0 1-.39-.656 2.536 2.536 0 0 1-.126-.922c0-.344.04-.64.126-.89.082-.258.207-.485.374-.672a1.56 1.56 0 0 1 .594-.422c.219-.094.469-.14.75-.14.133 0 .266.01.39.03.114.024.224.047.329.079.082.023.172.054.266.093.093.043.187.09.28.14v.657H3.25a2.466 2.466 0 0 1-.188-.156 2.232 2.232 0 0 0-.265-.188 3.144 3.144 0 0 0-.344-.14 1.832 1.832 0 0 0-.437-.047 1.28 1.28 0 0 0-.485.094 1.086 1.086 0 0 0-.422.328 1.4 1.4 0 0 0-.265.515c-.063.22-.094.461-.094.72 0 .28.031.523.094.718.07.21.164.383.281.516.113.136.25.242.406.312.157.074.317.11.485.11.156 0 .3-.02.437-.063.133-.04.254-.086.36-.14a2.47 2.47 0 0 0 .265-.188c.07-.051.129-.098.172-.14h.047v.64c-.094.043-.18.086-.25.125a1.631 1.631 0 0 1-.297.11c-.125.042-.234.07-.328.093a2.25 2.25 0 0 1-.406.031zm0 0"/>
    </symbol>
    <symbol id="FunctionGenerator-ICL8038-1_svg__A" overflow="visible">
      <path d="M1.344.063c-.262 0-.48-.028-.657-.079a2.353 2.353 0 0 1-.5-.203v-.578H.22c.156.149.332.258.531.328.188.086.375.125.563.125.257 0 .453-.05.578-.156a.55.55 0 0 0 .203-.438A.612.612 0 0 0 2-1.28a.701.701 0 0 0-.344-.188c-.105-.031-.203-.054-.297-.078-.093-.02-.21-.05-.343-.094a2.485 2.485 0 0 1-.329-.109.83.83 0 0 1-.25-.203.695.695 0 0 1-.171-.266.966.966 0 0 1-.063-.375c0-.281.113-.52.344-.719.219-.187.5-.28.844-.28.195 0 .382.023.562.062.176.043.344.094.5.156v.563h-.047a1.875 1.875 0 0 0-.422-.266 1.54 1.54 0 0 0-.562-.11c-.219 0-.39.047-.516.141a.437.437 0 0 0-.203.406c0 .157.035.278.11.36a.67.67 0 0 0 .343.203c.102.023.227.047.375.078.133.043.254.078.36.11.238.074.414.183.53.327.102.157.161.344.173.563a1.495 1.495 0 0 1-.094.406.928.928 0 0 1-.234.344 1.146 1.146 0 0 1-.391.234 1.628 1.628 0 0 1-.531.079zm0 0"/>
    </symbol>
    <symbol id="FunctionGenerator-ICL8038-1_svg__B" overflow="visible">
      <path d="M2.688.719h-2.72V.406h2.72zm0 0"/>
    </symbol>
    <symbol id="FunctionGenerator-ICL8038-1_svg__C" overflow="visible"/>
    <symbol id="FunctionGenerator-ICL8038-1_svg__D" overflow="visible"/>
    <symbol id="FunctionGenerator-ICL8038-1_svg__E" overflow="visible">
      <path d="M1.688-.922c0 .313-.094.555-.282.719-.187.168-.445.25-.765.25C.566.047.469.039.344.03a3.002 3.002 0 0 1-.328-.047V-.47h.03c.063.024.145.047.25.078.095.024.188.032.282.032.145 0 .266-.016.36-.047a.387.387 0 0 0 .187-.14.572.572 0 0 0 .078-.235c.008-.082.016-.188.016-.313v-2.062h-.75v-.375h1.219zm0 0"/>
    </symbol>
    <symbol id="FunctionGenerator-ICL8038-1_svg__F" overflow="visible">
      <path d="M2.266 0H.53v-.36h.64v-2.374H.53v-.313c.239 0 .422-.035.547-.11.113-.062.176-.19.188-.39h.359v3.188h.64zm0 0"/>
    </symbol>
    <symbol id="FunctionGenerator-ICL8038-1_svg__G" overflow="visible">
      <path d="M1.594 0H.219v-.36h.453v-2.812H.219v-.36h1.375v.36H1.14v2.813h.453zm0 0"/>
    </symbol>
    <symbol id="FunctionGenerator-ICL8038-1_svg__H" overflow="visible">
      <path d="M2.89 0h-.53L.796-3.047V0H.359v-3.531h.672L2.453-.734v-2.797h.438zm0 0"/>
    </symbol>
    <symbol id="FunctionGenerator-ICL8038-1_svg__I" overflow="visible">
      <path d="M.36 0v-3.531h2.203v.422H.827v.968h1.625v.407H.828v1.312h1.735V0zm0 0"/>
    </symbol>
    <symbol id="FunctionGenerator-ICL8038-1_svg__J" overflow="visible">
      <path d="M2.438 0H.265v-.5c.145-.145.29-.285.438-.422.133-.133.27-.273.406-.422.27-.3.454-.539.547-.718.102-.176.157-.36.157-.547a.76.76 0 0 0-.047-.266.478.478 0 0 0-.125-.172.644.644 0 0 0-.204-.11.598.598 0 0 0-.234-.046c-.086 0-.168.012-.25.031-.094.031-.18.063-.25.094a.877.877 0 0 0-.203.094.87.87 0 0 1-.14.093H.327v-.5c.102-.05.242-.097.422-.14a1.65 1.65 0 0 1 .484-.078c.332 0 .594.09.782.265a.93.93 0 0 1 .28.703c0 .149-.015.278-.046.391-.043.117-.09.227-.14.328a2.003 2.003 0 0 1-.22.297 9.043 9.043 0 0 1-.25.297c-.156.168-.324.34-.5.516-.187.167-.335.304-.437.406h1.735zm0 0"/>
    </symbol>
    <symbol id="FunctionGenerator-ICL8038-1_svg__K" overflow="visible">
      <path d="M1.188 0v-3.11H0v-.421h2.844v.422H1.656V0zm0 0"/>
    </symbol>
    <symbol id="FunctionGenerator-ICL8038-1_svg__L" overflow="visible">
      <path d="M3.094 0h-.61L1.36-1.406H.83V0H.36v-3.531h.907c.207 0 .379.011.515.031a1.04 1.04 0 0 1 .688.453c.062.137.094.293.094.469 0 .262-.063.48-.188.656-.137.18-.313.309-.531.39zM2.078-2.531a.817.817 0 0 0-.047-.281.62.62 0 0 0-.172-.204 1.223 1.223 0 0 0-.234-.093 3.854 3.854 0 0 0-.328-.016H.828v1.328h.406c.133 0 .258-.008.375-.031a.631.631 0 0 0 .266-.156.54.54 0 0 0 .156-.235.973.973 0 0 0 .047-.312zm0 0"/>
    </symbol>
    <symbol id="FunctionGenerator-ICL8038-1_svg__M" overflow="visible">
      <path d="M1.844.063a2.03 2.03 0 0 1-.688-.11C.946-.117.766-.234.61-.39a1.427 1.427 0 0 1-.328-.578 2.246 2.246 0 0 1-.125-.797c0-.289.04-.546.125-.765.07-.227.188-.422.344-.578.133-.157.313-.274.531-.36a1.86 1.86 0 0 1 .688-.125c.113 0 .226.008.343.016.102.023.208.047.313.078.07.023.16.055.266.094.093.043.171.078.234.11v.577h-.047a1.67 1.67 0 0 1-.172-.156 4.959 4.959 0 0 1-.265-.156 2.301 2.301 0 0 0-.329-.11 1.68 1.68 0 0 0-.406-.046 1 1 0 0 0-.812.374C.75-2.55.64-2.207.64-1.78c0 .242.03.449.093.625.051.18.13.324.235.437a.992.992 0 0 0 .36.281c.144.063.304.094.484.094.132 0 .269-.004.406-.015.125-.02.234-.051.328-.094v-.906h-.813v-.422h1.282v1.547a1.717 1.717 0 0 1-.25.093c-.106.043-.2.078-.282.11-.117.031-.218.054-.312.078a3.854 3.854 0 0 1-.328.015zm0 0"/>
    </symbol>
    <symbol id="FunctionGenerator-ICL8038-1_svg__N" overflow="visible">
      <path d="M2.406 0H.36v-3.531h.47v3.11h1.577zm0 0"/>
    </symbol>
    <symbol id="FunctionGenerator-ICL8038-1_svg__O" overflow="visible">
      <path d="M1.219-3.203c-.094 0-.184.012-.266.031-.086.031-.168.063-.25.094-.074.031-.14.062-.203.094a1.097 1.097 0 0 0-.14.093H.327v-.5c.102-.05.242-.101.422-.156.176-.039.344-.062.5-.062.156 0 .297.015.422.046.113.032.223.086.328.157a.92.92 0 0 1 .234.281.85.85 0 0 1 .079.375c0 .188-.07.355-.204.5a.737.737 0 0 1-.453.281v.047c.07.012.149.031.235.063.082.043.16.093.234.156.07.074.133.164.188.266.039.105.062.234.062.39s-.027.305-.078.438a1.06 1.06 0 0 1-.235.359.984.984 0 0 1-.374.234 1.23 1.23 0 0 1-.485.094C1.016.078.836.055.672.016a1.616 1.616 0 0 1-.438-.157v-.5h.032c.093.075.226.141.406.204.156.062.32.093.5.093a.885.885 0 0 0 .281-.047.423.423 0 0 0 .25-.14.721.721 0 0 0 .14-.235.893.893 0 0 0 .048-.312.908.908 0 0 0-.047-.313.686.686 0 0 0-.157-.203 1.223 1.223 0 0 0-.234-.093 1.471 1.471 0 0 0-.297-.032H.953v-.39h.156c.207 0 .38-.051.516-.157a.524.524 0 0 0 .203-.437.598.598 0 0 0-.047-.235.783.783 0 0 0-.14-.156 1.565 1.565 0 0 0-.204-.078.87.87 0 0 0-.218-.031zm0 0"/>
    </symbol>
    <symbol id="FunctionGenerator-ICL8038-1_svg__P" overflow="visible"/>
    <symbol id="FunctionGenerator-ICL8038-1_svg__Q" overflow="visible">
      <path d="M2.406-1.125c0 .18-.031.336-.094.469a1.313 1.313 0 0 1-.218.39 1.19 1.19 0 0 1-.875.344 2.16 2.16 0 0 1-.5-.062 1.406 1.406 0 0 1-.422-.141v-.5h.031c.031.023.082.055.156.094A2.037 2.037 0 0 0 .97-.36c.07.011.16.015.265.015A.45.45 0 0 0 1.5-.39a.508.508 0 0 0 .234-.156.715.715 0 0 0 .141-.25c.031-.094.047-.203.047-.328a.908.908 0 0 0-.047-.313.686.686 0 0 0-.156-.203.998.998 0 0 0-.25-.125 1.798 1.798 0 0 0-.328-.03c-.137 0-.266.01-.391.03-.137.024-.242.04-.313.047V-3.53h1.938v.406H.891v.953a1.35 1.35 0 0 1 .171-.015.73.73 0 0 0 .157-.016 1.9 1.9 0 0 1 .453.047.937.937 0 0 1 .36.187c.113.086.206.196.28.328.063.137.094.309.094.516zm0 0"/>
    </symbol>
    <symbol id="FunctionGenerator-ICL8038-1_svg__U" overflow="visible"/>
    <symbol id="FunctionGenerator-ICL8038-1_svg__V" overflow="visible">
      <path d="M3.39 0h-.468v-3.047L2-.969h-.297L.797-3.047V0H.359v-3.531H1l.875 1.969.86-1.97h.656zm0 0"/>
    </symbol>
    <symbol id="FunctionGenerator-ICL8038-1_svg__W" overflow="visible"/>
    <symbol id="FunctionGenerator-ICL8038-1_svg__X" overflow="visible"/>
    <symbol id="FunctionGenerator-ICL8038-1_svg__Y" overflow="visible"/>
    <symbol id="FunctionGenerator-ICL8038-1_svg__Z" overflow="visible"/>
    <symbol id="FunctionGenerator-ICL8038-1_svg__aa" overflow="visible">
      <path d="M1.922-2.703a.6.6 0 0 0-.156-.406.604.604 0 0 0-.438-.157c-.18 0-.32.047-.422.141a.473.473 0 0 0-.172.39c0 .118.032.215.094.297.05.086.133.157.25.22.04.023.113.058.219.109.094.054.187.09.281.109a.756.756 0 0 0 .266-.328.832.832 0 0 0 .078-.375zm.062 1.765a.668.668 0 0 0-.078-.343c-.062-.094-.172-.18-.328-.266a1.214 1.214 0 0 0-.219-.094l-.296-.125a.886.886 0 0 0-.313.313 1.036 1.036 0 0 0-.094.437c0 .22.063.399.188.532a.626.626 0 0 0 .484.218.66.66 0 0 0 .484-.187c.114-.113.172-.274.172-.484zM1.328.079A1.462 1.462 0 0 1 .844 0a.916.916 0 0 1-.36-.219.844.844 0 0 1-.234-.344.992.992 0 0 1-.078-.406c0-.195.05-.375.156-.531.102-.156.254-.285.453-.39v-.016a1.01 1.01 0 0 1-.39-.328C.305-2.348.266-2.5.266-2.688a.85.85 0 0 1 .296-.656c.196-.176.454-.265.766-.265.32 0 .578.086.766.25a.813.813 0 0 1 .297.64.845.845 0 0 1-.141.469c-.094.156-.23.281-.406.375a1.4 1.4 0 0 1 .468.36.804.804 0 0 1 .172.53c0 .305-.109.56-.328.766-.23.2-.508.297-.828.297zm0 0"/>
    </symbol>
    <symbol id="FunctionGenerator-ICL8038-1_svg__ab" overflow="visible">
      <path d="M3.297.86a4.156 4.156 0 0 1-.266.046c-.105.02-.199.031-.281.031-.273 0-.492-.078-.656-.234-.168-.148-.258-.355-.266-.625H1.72c-.242 0-.453-.043-.64-.125a1.295 1.295 0 0 1-.5-.36 1.552 1.552 0 0 1-.313-.577 2.517 2.517 0 0 1-.11-.782c0-.289.035-.55.11-.78.07-.227.175-.423.312-.579.133-.156.3-.273.5-.36.188-.081.399-.124.64-.124.239 0 .458.043.657.125.188.086.348.203.484.359.133.156.239.352.313.578.07.23.11.492.11.781 0 .461-.09.836-.266 1.125-.18.305-.422.508-.735.61a.885.885 0 0 0 .047.234c.02.07.05.129.094.172.039.05.094.086.156.11.05.019.133.03.25.03.063 0 .133-.011.219-.03a.72.72 0 0 0 .187-.047h.063zm-.5-2.626c0-.226-.027-.437-.078-.625a1.312 1.312 0 0 0-.219-.437.93.93 0 0 0-.328-.281 1.081 1.081 0 0 0-.453-.094.963.963 0 0 0-.438.094.884.884 0 0 0-.343.28 1.226 1.226 0 0 0-.22.454c-.054.18-.077.383-.077.61 0 .468.097.824.296 1.062.196.25.458.375.782.375.332 0 .593-.125.781-.375.195-.238.297-.594.297-1.063zm0 0"/>
    </symbol>
    <symbol id="FunctionGenerator-ICL8038-1_svg__ac" overflow="visible">
      <path d="M1.594.078a1.45 1.45 0 0 1-.547-.094.935.935 0 0 1-.39-.234A1.034 1.034 0 0 1 .39-.688a2.193 2.193 0 0 1-.079-.64v-2.203h.47v2.203c0 .168.007.305.03.406.02.117.063.219.125.313a.5.5 0 0 0 .266.203.829.829 0 0 0 .39.078.907.907 0 0 0 .391-.078.516.516 0 0 0 .266-.203.848.848 0 0 0 .125-.313 2.13 2.13 0 0 0 .031-.39v-2.22h.469v2.204c0 .242-.027.45-.078.625a1.05 1.05 0 0 1-.266.453 1.417 1.417 0 0 1-.39.25c-.149.05-.329.078-.547.078zm0 0"/>
    </symbol>
    <symbol id="FunctionGenerator-ICL8038-1_svg__ad" overflow="visible">
      <path d="M1.969-2.078a2.49 2.49 0 0 0-.063-.594.828.828 0 0 0-.187-.344.618.618 0 0 0-.203-.156.598.598 0 0 0-.235-.047.584.584 0 0 0-.468.203c-.118.149-.172.352-.172.61 0 .156.02.281.062.375.031.094.086.18.172.25a.37.37 0 0 0 .219.093.74.74 0 0 0 .234.032c.102 0 .211-.02.328-.063.114-.031.219-.078.313-.14v-.219zM.156-2.391c0-.175.032-.343.094-.5.063-.144.14-.27.234-.375.102-.101.227-.187.375-.25a.979.979 0 0 1 .422-.093c.164 0 .313.027.438.078a1.173 1.173 0 0 1 .625.75c.07.219.11.484.11.797 0 .293-.032.574-.095.843a1.914 1.914 0 0 1-.296.641 1.34 1.34 0 0 1-.485.422 1.47 1.47 0 0 1-.719.14H.672A1.414 1.414 0 0 1 .469.017v-.454h.015c.04.024.102.043.188.063a.971.971 0 0 0 .265.031c.301 0 .54-.097.72-.297.175-.207.28-.5.312-.875a2.15 2.15 0 0 1-.36.188.887.887 0 0 1-.375.047 1.64 1.64 0 0 1-.359-.032.831.831 0 0 1-.328-.171.804.804 0 0 1-.297-.36 1.457 1.457 0 0 1-.094-.547zm0 0"/>
    </symbol>
    <symbol id="FunctionGenerator-ICL8038-1_svg__ae" overflow="visible">
      <path d="M1.734.063c-.23 0-.437-.04-.625-.11a1.446 1.446 0 0 1-.515-.36 1.574 1.574 0 0 1-.328-.562 2.568 2.568 0 0 1-.11-.797c0-.289.035-.546.11-.765a1.6 1.6 0 0 1 .328-.578c.144-.157.312-.274.5-.36a1.68 1.68 0 0 1 .656-.125 4.4 4.4 0 0 1 .328.016c.102.023.203.047.297.078.07.023.148.047.234.078.07.043.149.086.235.125v.563h-.047a1.428 1.428 0 0 1-.156-.141 1.87 1.87 0 0 0-.235-.156l-.297-.125a3.76 3.76 0 0 0-.375-.047.979.979 0 0 0-.421.094.884.884 0 0 0-.344.28 1.219 1.219 0 0 0-.235.454c-.062.18-.093.383-.093.61 0 .25.03.46.093.624.051.18.13.329.235.454a.905.905 0 0 0 .344.25.979.979 0 0 0 .421.093c.133 0 .266-.015.391-.047.113-.03.21-.07.297-.125.094-.05.172-.101.234-.156.063-.05.11-.094.14-.125h.048v.563a2.037 2.037 0 0 0-.219.093 1.339 1.339 0 0 1-.25.11C2.27 0 2.172.019 2.078.03c-.086.02-.2.032-.344.032zm0 0"/>
    </symbol>
    <symbol id="FunctionGenerator-ICL8038-1_svg__af" overflow="visible">
      <path d="M2.453-1.766c0 .637-.09 1.102-.265 1.391C2-.07 1.71.078 1.328.078.941.078.656-.07.468-.375c-.187-.3-.277-.766-.265-1.39 0-.633.086-1.098.266-1.391.187-.301.472-.453.86-.453.382 0 .671.156.859.468.175.305.265.762.265 1.375zm-.61 1.079c.052-.114.087-.266.11-.454a13.673 13.673 0 0 0 0-1.265 1.66 1.66 0 0 0-.11-.438.713.713 0 0 0-.187-.281.544.544 0 0 0-.328-.094.528.528 0 0 0-.328.094.79.79 0 0 0-.203.281 2.142 2.142 0 0 0-.094.453 5.142 5.142 0 0 0-.031.625c0 .25.008.461.031.625.008.168.04.313.094.438A.51.51 0 0 0 1-.422a.47.47 0 0 0 .328.11.578.578 0 0 0 .328-.094.577.577 0 0 0 .188-.281zm0 0"/>
    </symbol>
    <symbol id="FunctionGenerator-ICL8038-1_svg__R" overflow="visible"/>
    <symbol id="FunctionGenerator-ICL8038-1_svg__S" overflow="visible"/>
    <symbol id="FunctionGenerator-ICL8038-1_svg__T" overflow="visible"/>
    <symbol id="FunctionGenerator-ICL8038-1_svg__ag" overflow="visible"/>
    <symbol id="FunctionGenerator-ICL8038-1_svg__ah" overflow="visible"/>
    <symbol id="FunctionGenerator-ICL8038-1_svg__ao" overflow="visible"/>
    <symbol id="FunctionGenerator-ICL8038-1_svg__ap" overflow="visible"/>
  </defs>
  <use x="355.701" y="332.188" fill="#505050" xlink:href="#FunctionGenerator-ICL8038-1_svg__a"/>
  <use x="357.201" y="332.188" fill="#505050" xlink:href="#FunctionGenerator-ICL8038-1_svg__b"/>
  <use x="359.601" y="332.188" fill="#505050" xlink:href="#FunctionGenerator-ICL8038-1_svg__c"/>
  <use x="361.581" y="332.188" fill="#505050" xlink:href="#FunctionGenerator-ICL8038-1_svg__d"/>
  <use x="363.801" y="332.188" fill="#505050" xlink:href="#FunctionGenerator-ICL8038-1_svg__e"/>
  <use x="366.021" y="332.188" fill="#505050" xlink:href="#FunctionGenerator-ICL8038-1_svg__f"/>
  <use x="368.241" y="332.188" fill="#505050" xlink:href="#FunctionGenerator-ICL8038-1_svg__d"/>
  <use x="321.158" y="281.824" fill="#505050" xlink:href="#FunctionGenerator-ICL8038-1_svg__g"/>
  <use x="321.158" y="279.604" fill="#505050" xlink:href="#FunctionGenerator-ICL8038-1_svg__h"/>
  <use x="321.158" y="277.384" fill="#505050" xlink:href="#FunctionGenerator-ICL8038-1_svg__i"/>
  <use x="321.158" y="275.164" fill="#505050" xlink:href="#FunctionGenerator-ICL8038-1_svg__j"/>
  <use x="461.851" y="298.172" fill="#505050" xlink:href="#FunctionGenerator-ICL8038-1_svg__k"/>
  <use x="464.071" y="298.172" fill="#505050" xlink:href="#FunctionGenerator-ICL8038-1_svg__e"/>
  <use x="466.291" y="298.172" fill="#505050" xlink:href="#FunctionGenerator-ICL8038-1_svg__l"/>
  <use x="461.851" y="280.905" fill="#505050" xlink:href="#FunctionGenerator-ICL8038-1_svg__k"/>
  <use x="464.071" y="280.905" fill="#505050" xlink:href="#FunctionGenerator-ICL8038-1_svg__e"/>
  <use x="466.291" y="280.905" fill="#505050" xlink:href="#FunctionGenerator-ICL8038-1_svg__l"/>
  <use x="287.437" y="269.739" fill="#505050" xlink:href="#FunctionGenerator-ICL8038-1_svg__f"/>
  <use x="289.657" y="269.739" fill="#505050" xlink:href="#FunctionGenerator-ICL8038-1_svg__f"/>
  <use x="291.877" y="269.739" fill="#505050" xlink:href="#FunctionGenerator-ICL8038-1_svg__e"/>
  <use x="362.896" y="349.973" fill="#505050" xlink:href="#FunctionGenerator-ICL8038-1_svg__k"/>
  <use x="365.116" y="349.973" fill="#505050" xlink:href="#FunctionGenerator-ICL8038-1_svg__e"/>
  <use x="367.336" y="349.973" fill="#505050" xlink:href="#FunctionGenerator-ICL8038-1_svg__e"/>
  <use x="369.556" y="349.973" fill="#505050" xlink:href="#FunctionGenerator-ICL8038-1_svg__l"/>
  <use x="460.771" y="315.439" fill="#505050" xlink:href="#FunctionGenerator-ICL8038-1_svg__m"/>
  <use x="462.991" y="315.439" fill="#505050" xlink:href="#FunctionGenerator-ICL8038-1_svg__m"/>
  <use x="465.211" y="315.439" fill="#505050" xlink:href="#FunctionGenerator-ICL8038-1_svg__e"/>
  <use x="467.431" y="315.439" fill="#505050" xlink:href="#FunctionGenerator-ICL8038-1_svg__l"/>
  <use x="513.668" y="315.439" fill="#505050" xlink:href="#FunctionGenerator-ICL8038-1_svg__k"/>
  <use x="515.888" y="315.439" fill="#505050" xlink:href="#FunctionGenerator-ICL8038-1_svg__e"/>
  <use x="518.108" y="315.439" fill="#505050" xlink:href="#FunctionGenerator-ICL8038-1_svg__l"/>
  <use x="293.087" y="231.462" fill="#505050" xlink:href="#FunctionGenerator-ICL8038-1_svg__n"/>
  <use x="296.448" y="231.462" fill="#505050" xlink:href="#FunctionGenerator-ICL8038-1_svg__o"/>
  <use x="299.808" y="231.462" fill="#505050" xlink:href="#FunctionGenerator-ICL8038-1_svg__o"/>
  <use x="328.652" y="367.873" fill="#505050" xlink:href="#FunctionGenerator-ICL8038-1_svg__p"/>
  <use x="331.352" y="367.873" fill="#505050" xlink:href="#FunctionGenerator-ICL8038-1_svg__q"/>
  <use x="334.052" y="367.873" fill="#505050" xlink:href="#FunctionGenerator-ICL8038-1_svg__r"/>
  <use x="386.226" y="367.873" fill="#505050" xlink:href="#FunctionGenerator-ICL8038-1_svg__p"/>
  <use x="388.926" y="367.873" fill="#505050" xlink:href="#FunctionGenerator-ICL8038-1_svg__q"/>
  <use x="391.626" y="367.873" fill="#505050" xlink:href="#FunctionGenerator-ICL8038-1_svg__r"/>
  <use x="317.53" y="344.563" fill="#505050" xlink:href="#FunctionGenerator-ICL8038-1_svg__m"/>
  <use x="319.75" y="344.563" fill="#505050" xlink:href="#FunctionGenerator-ICL8038-1_svg__s"/>
  <use x="320.95" y="344.563" fill="#505050" xlink:href="#FunctionGenerator-ICL8038-1_svg__m"/>
  <use x="323.17" y="344.563" fill="#505050" xlink:href="#FunctionGenerator-ICL8038-1_svg__t"/>
  <use x="325.39" y="344.563" fill="#505050" xlink:href="#FunctionGenerator-ICL8038-1_svg__u"/>
  <use x="554.907" y="303.408" fill="#505050" xlink:href="#FunctionGenerator-ICL8038-1_svg__v"/>
  <use x="557.247" y="303.408" fill="#505050" xlink:href="#FunctionGenerator-ICL8038-1_svg__b"/>
  <use x="559.647" y="303.408" fill="#505050" xlink:href="#FunctionGenerator-ICL8038-1_svg__w"/>
  <use x="561.867" y="303.408" fill="#505050" xlink:href="#FunctionGenerator-ICL8038-1_svg__x"/>
  <use x="564.087" y="303.408" fill="#505050" xlink:href="#FunctionGenerator-ICL8038-1_svg__y"/>
  <use x="566.307" y="303.408" fill="#505050" xlink:href="#FunctionGenerator-ICL8038-1_svg__b"/>
  <use x="568.707" y="303.408" fill="#505050" xlink:href="#FunctionGenerator-ICL8038-1_svg__v"/>
  <use x="571.047" y="303.408" fill="#505050" xlink:href="#FunctionGenerator-ICL8038-1_svg__z"/>
  <use x="540.763" y="287.006" fill="#505050" xlink:href="#FunctionGenerator-ICL8038-1_svg__x"/>
  <use x="542.983" y="287.006" fill="#505050" xlink:href="#FunctionGenerator-ICL8038-1_svg__y"/>
  <use x="545.203" y="287.006" fill="#505050" xlink:href="#FunctionGenerator-ICL8038-1_svg__e"/>
  <use x="547.433" y="367.873" fill="#505050" xlink:href="#FunctionGenerator-ICL8038-1_svg__p"/>
  <use x="550.133" y="367.873" fill="#505050" xlink:href="#FunctionGenerator-ICL8038-1_svg__q"/>
  <use x="552.833" y="367.873" fill="#505050" xlink:href="#FunctionGenerator-ICL8038-1_svg__r"/>
  <use x="294.048" y="367.873" fill="#505050" xlink:href="#FunctionGenerator-ICL8038-1_svg__p"/>
  <use x="296.748" y="367.873" fill="#505050" xlink:href="#FunctionGenerator-ICL8038-1_svg__q"/>
  <use x="299.448" y="367.873" fill="#505050" xlink:href="#FunctionGenerator-ICL8038-1_svg__r"/>
  <use x="385.206" y="231.462" fill="#505050" xlink:href="#FunctionGenerator-ICL8038-1_svg__n"/>
  <use x="388.566" y="231.462" fill="#505050" xlink:href="#FunctionGenerator-ICL8038-1_svg__o"/>
  <use x="391.926" y="231.462" fill="#505050" xlink:href="#FunctionGenerator-ICL8038-1_svg__o"/>
  <use x="477.324" y="231.462" fill="#505050" xlink:href="#FunctionGenerator-ICL8038-1_svg__n"/>
  <use x="480.684" y="231.462" fill="#505050" xlink:href="#FunctionGenerator-ICL8038-1_svg__o"/>
  <use x="484.044" y="231.462" fill="#505050" xlink:href="#FunctionGenerator-ICL8038-1_svg__o"/>
  <use x="546.413" y="231.462" fill="#505050" xlink:href="#FunctionGenerator-ICL8038-1_svg__n"/>
  <use x="549.773" y="231.462" fill="#505050" xlink:href="#FunctionGenerator-ICL8038-1_svg__o"/>
  <use x="553.133" y="231.462" fill="#505050" xlink:href="#FunctionGenerator-ICL8038-1_svg__o"/>
  <use x="293.088" y="323.552" fill="#505050" xlink:href="#FunctionGenerator-ICL8038-1_svg__n"/>
  <use x="296.448" y="323.552" fill="#505050" xlink:href="#FunctionGenerator-ICL8038-1_svg__o"/>
  <use x="299.808" y="323.552" fill="#505050" xlink:href="#FunctionGenerator-ICL8038-1_svg__o"/>
  <use x="360.999" y="305.134" fill="#505050" xlink:href="#FunctionGenerator-ICL8038-1_svg__A"/>
  <use x="363.699" y="305.134" fill="#505050" xlink:href="#FunctionGenerator-ICL8038-1_svg__B"/>
  <use x="366.338" y="305.134" fill="#505050" xlink:href="#FunctionGenerator-ICL8038-1_svg__C"/>
  <use x="369.278" y="305.134" fill="#505050" xlink:href="#FunctionGenerator-ICL8038-1_svg__D"/>
  <use x="372.578" y="305.134" fill="#505050" xlink:href="#FunctionGenerator-ICL8038-1_svg__E"/>
  <use x="374.619" y="305.134" fill="#505050" xlink:href="#FunctionGenerator-ICL8038-1_svg__F"/>
  <use x="352.256" y="302.602" fill="#505050" xlink:href="#FunctionGenerator-ICL8038-1_svg__F"/>
  <use x="409.053" y="316.672" fill="#505050" xlink:href="#FunctionGenerator-ICL8038-1_svg__A"/>
  <use x="411.753" y="316.672" fill="#505050" xlink:href="#FunctionGenerator-ICL8038-1_svg__G"/>
  <use x="413.553" y="316.672" fill="#505050" xlink:href="#FunctionGenerator-ICL8038-1_svg__H"/>
  <use x="416.794" y="316.672" fill="#505050" xlink:href="#FunctionGenerator-ICL8038-1_svg__I"/>
  <use x="425.596" y="314.113" fill="#505050" xlink:href="#FunctionGenerator-ICL8038-1_svg__J"/>
  <use x="397.353" y="322.428" fill="#505050" xlink:href="#FunctionGenerator-ICL8038-1_svg__K"/>
  <use x="400.174" y="322.428" fill="#505050" xlink:href="#FunctionGenerator-ICL8038-1_svg__L"/>
  <use x="403.174" y="322.428" fill="#505050" xlink:href="#FunctionGenerator-ICL8038-1_svg__G"/>
  <use x="404.974" y="322.428" fill="#505050" xlink:href="#FunctionGenerator-ICL8038-1_svg__C"/>
  <use x="407.914" y="322.428" fill="#505050" xlink:href="#FunctionGenerator-ICL8038-1_svg__H"/>
  <use x="411.153" y="322.428" fill="#505050" xlink:href="#FunctionGenerator-ICL8038-1_svg__M"/>
  <use x="414.394" y="322.428" fill="#505050" xlink:href="#FunctionGenerator-ICL8038-1_svg__N"/>
  <use x="416.794" y="322.428" fill="#505050" xlink:href="#FunctionGenerator-ICL8038-1_svg__I"/>
  <use x="425.596" y="319.869" fill="#505050" xlink:href="#FunctionGenerator-ICL8038-1_svg__O"/>
  <use x="402.633" y="287.894" fill="#505050" xlink:href="#FunctionGenerator-ICL8038-1_svg__D"/>
  <use x="405.933" y="287.894" fill="#505050" xlink:href="#FunctionGenerator-ICL8038-1_svg__B"/>
  <use x="408.574" y="287.894" fill="#505050" xlink:href="#FunctionGenerator-ICL8038-1_svg__C"/>
  <use x="411.514" y="287.894" fill="#505050" xlink:href="#FunctionGenerator-ICL8038-1_svg__D"/>
  <use x="414.814" y="287.894" fill="#505050" xlink:href="#FunctionGenerator-ICL8038-1_svg__E"/>
  <use x="416.853" y="287.894" fill="#505050" xlink:href="#FunctionGenerator-ICL8038-1_svg__F"/>
  <use x="425.596" y="285.335" fill="#505050" xlink:href="#FunctionGenerator-ICL8038-1_svg__P"/>
  <use x="402.633" y="293.65" fill="#505050" xlink:href="#FunctionGenerator-ICL8038-1_svg__D"/>
  <use x="405.933" y="293.65" fill="#505050" xlink:href="#FunctionGenerator-ICL8038-1_svg__B"/>
  <use x="408.574" y="293.65" fill="#505050" xlink:href="#FunctionGenerator-ICL8038-1_svg__C"/>
  <use x="411.514" y="293.65" fill="#505050" xlink:href="#FunctionGenerator-ICL8038-1_svg__D"/>
  <use x="414.814" y="293.65" fill="#505050" xlink:href="#FunctionGenerator-ICL8038-1_svg__E"/>
  <use x="416.853" y="293.65" fill="#505050" xlink:href="#FunctionGenerator-ICL8038-1_svg__J"/>
  <use x="425.596" y="291.09" fill="#505050" xlink:href="#FunctionGenerator-ICL8038-1_svg__Q"/>
  <use x="391.998" y="292.1" fill="#505050" xlink:href="#FunctionGenerator-ICL8038-1_svg__R"/>
  <use x="391.998" y="289.22" fill="#505050" xlink:href="#FunctionGenerator-ICL8038-1_svg__S"/>
  <use x="389.439" y="279.579" fill="#505050" xlink:href="#FunctionGenerator-ICL8038-1_svg__T"/>
  <use x="360.998" y="293.623" fill="#505050" xlink:href="#FunctionGenerator-ICL8038-1_svg__U"/>
  <use x="363.518" y="293.623" fill="#505050" xlink:href="#FunctionGenerator-ICL8038-1_svg__V"/>
  <use x="367.238" y="293.623" fill="#505050" xlink:href="#FunctionGenerator-ICL8038-1_svg__B"/>
  <use x="369.878" y="293.623" fill="#505050" xlink:href="#FunctionGenerator-ICL8038-1_svg__W"/>
  <use x="372.758" y="293.623" fill="#505050" xlink:href="#FunctionGenerator-ICL8038-1_svg__G"/>
  <use x="374.558" y="293.623" fill="#505050" xlink:href="#FunctionGenerator-ICL8038-1_svg__C"/>
  <use x="377.498" y="293.623" fill="#505050" xlink:href="#FunctionGenerator-ICL8038-1_svg__A"/>
  <use x="352.255" y="291.09" fill="#505050" xlink:href="#FunctionGenerator-ICL8038-1_svg__X"/>
  <use x="360.998" y="287.867" fill="#505050" xlink:href="#FunctionGenerator-ICL8038-1_svg__A"/>
  <use x="363.698" y="287.867" fill="#505050" xlink:href="#FunctionGenerator-ICL8038-1_svg__Y"/>
  <use x="368.078" y="287.867" fill="#505050" xlink:href="#FunctionGenerator-ICL8038-1_svg__I"/>
  <use x="370.778" y="287.867" fill="#505050" xlink:href="#FunctionGenerator-ICL8038-1_svg__I"/>
  <use x="373.478" y="287.867" fill="#505050" xlink:href="#FunctionGenerator-ICL8038-1_svg__Z"/>
  <use x="352.255" y="285.335" fill="#505050" xlink:href="#FunctionGenerator-ICL8038-1_svg__aa"/>
  <use x="401.553" y="310.916" fill="#505050" xlink:href="#FunctionGenerator-ICL8038-1_svg__A"/>
  <use x="404.253" y="310.916" fill="#505050" xlink:href="#FunctionGenerator-ICL8038-1_svg__ab"/>
  <use x="407.673" y="310.916" fill="#505050" xlink:href="#FunctionGenerator-ICL8038-1_svg__ac"/>
  <use x="410.853" y="310.916" fill="#505050" xlink:href="#FunctionGenerator-ICL8038-1_svg__C"/>
  <use x="413.793" y="310.916" fill="#505050" xlink:href="#FunctionGenerator-ICL8038-1_svg__L"/>
  <use x="416.793" y="310.916" fill="#505050" xlink:href="#FunctionGenerator-ICL8038-1_svg__I"/>
  <use x="425.596" y="308.357" fill="#505050" xlink:href="#FunctionGenerator-ICL8038-1_svg__ad"/>
  <use x="360.998" y="322.401" fill="#505050" xlink:href="#FunctionGenerator-ICL8038-1_svg__ae"/>
  <use x="363.938" y="322.401" fill="#505050" xlink:href="#FunctionGenerator-ICL8038-1_svg__C"/>
  <use x="366.878" y="322.401" fill="#505050" xlink:href="#FunctionGenerator-ICL8038-1_svg__Z"/>
  <use x="349.615" y="319.869" fill="#505050" xlink:href="#FunctionGenerator-ICL8038-1_svg__F"/>
  <use x="352.255" y="319.869" fill="#505050" xlink:href="#FunctionGenerator-ICL8038-1_svg__af"/>
  <use x="391.972" y="321.135" fill="#505050" xlink:href="#FunctionGenerator-ICL8038-1_svg__R"/>
  <use x="391.972" y="318.255" fill="#505050" xlink:href="#FunctionGenerator-ICL8038-1_svg__ag"/>
  <use x="389.439" y="332.516" fill="#505050" xlink:href="#FunctionGenerator-ICL8038-1_svg__ah"/>
  <use x="389.439" y="329.876" fill="#505050" xlink:href="#FunctionGenerator-ICL8038-1_svg__ah"/>
  <use x="360.998" y="310.89" fill="#505050" xlink:href="#FunctionGenerator-ICL8038-1_svg__A"/>
  <use x="363.698" y="310.89" fill="#505050" xlink:href="#FunctionGenerator-ICL8038-1_svg__B"/>
  <use x="366.338" y="310.89" fill="#505050" xlink:href="#FunctionGenerator-ICL8038-1_svg__C"/>
  <use x="369.278" y="310.89" fill="#505050" xlink:href="#FunctionGenerator-ICL8038-1_svg__D"/>
  <use x="372.578" y="310.89" fill="#505050" xlink:href="#FunctionGenerator-ICL8038-1_svg__E"/>
  <use x="374.618" y="310.89" fill="#505050" xlink:href="#FunctionGenerator-ICL8038-1_svg__J"/>
  <use x="349.615" y="308.358" fill="#505050" xlink:href="#FunctionGenerator-ICL8038-1_svg__F"/>
  <use x="352.255" y="308.358" fill="#505050" xlink:href="#FunctionGenerator-ICL8038-1_svg__J"/>
  <use x="355.701" y="277.507" fill="#505050" xlink:href="#FunctionGenerator-ICL8038-1_svg__a"/>
  <use x="357.201" y="277.507" fill="#505050" xlink:href="#FunctionGenerator-ICL8038-1_svg__b"/>
  <use x="359.601" y="277.507" fill="#505050" xlink:href="#FunctionGenerator-ICL8038-1_svg__k"/>
  <use x="311.369" y="298.651" fill="#505050" xlink:href="#FunctionGenerator-ICL8038-1_svg__ai"/>
  <use x="311.369" y="296.131" fill="#505050" xlink:href="#FunctionGenerator-ICL8038-1_svg__h"/>
  <use x="462.751" y="288.501" fill="#505050" xlink:href="#FunctionGenerator-ICL8038-1_svg__aj"/>
  <use x="465.271" y="288.501" fill="#505050" xlink:href="#FunctionGenerator-ICL8038-1_svg__m"/>
  <use x="462.751" y="271.234" fill="#505050" xlink:href="#FunctionGenerator-ICL8038-1_svg__aj"/>
  <use x="465.271" y="271.234" fill="#505050" xlink:href="#FunctionGenerator-ICL8038-1_svg__k"/>
  <use x="289.357" y="259.378" fill="#505050" xlink:href="#FunctionGenerator-ICL8038-1_svg__aj"/>
  <use x="291.877" y="259.378" fill="#505050" xlink:href="#FunctionGenerator-ICL8038-1_svg__f"/>
  <use x="364.876" y="340.302" fill="#505050" xlink:href="#FunctionGenerator-ICL8038-1_svg__aj"/>
  <use x="367.396" y="340.302" fill="#505050" xlink:href="#FunctionGenerator-ICL8038-1_svg__x"/>
  <use x="462.751" y="305.768" fill="#505050" xlink:href="#FunctionGenerator-ICL8038-1_svg__aj"/>
  <use x="465.271" y="305.768" fill="#505050" xlink:href="#FunctionGenerator-ICL8038-1_svg__ak"/>
  <use x="514.568" y="305.768" fill="#505050" xlink:href="#FunctionGenerator-ICL8038-1_svg__aj"/>
  <use x="517.088" y="305.768" fill="#505050" xlink:href="#FunctionGenerator-ICL8038-1_svg__y"/>
  <use x="322.87" y="334.201" fill="#505050" xlink:href="#FunctionGenerator-ICL8038-1_svg__b"/>
  <use x="325.27" y="334.201" fill="#505050" xlink:href="#FunctionGenerator-ICL8038-1_svg__k"/>
  <use x="519.786" y="339.382" fill="#505050" xlink:href="#FunctionGenerator-ICL8038-1_svg__al"/>
  <use x="522.006" y="339.382" fill="#505050" xlink:href="#FunctionGenerator-ICL8038-1_svg__a"/>
  <use x="523.506" y="339.382" fill="#505050" xlink:href="#FunctionGenerator-ICL8038-1_svg__q"/>
  <use x="519.786" y="350.893" fill="#505050" xlink:href="#FunctionGenerator-ICL8038-1_svg__am"/>
  <use x="522.126" y="350.893" fill="#505050" xlink:href="#FunctionGenerator-ICL8038-1_svg__aj"/>
  <use x="524.646" y="350.893" fill="#505050" xlink:href="#FunctionGenerator-ICL8038-1_svg__a"/>
  <use x="519.786" y="327.87" fill="#505050" xlink:href="#FunctionGenerator-ICL8038-1_svg__al"/>
  <use x="522.006" y="327.87" fill="#505050" xlink:href="#FunctionGenerator-ICL8038-1_svg__an"/>
  <use x="524.826" y="327.87" fill="#505050" xlink:href="#FunctionGenerator-ICL8038-1_svg__aj"/>
  <use x="537.68" y="303.408" fill="#505050" xlink:href="#FunctionGenerator-ICL8038-1_svg__am"/>
  <use x="540.02" y="303.408" fill="#505050" xlink:href="#FunctionGenerator-ICL8038-1_svg__k"/>
  <use x="559.512" y="261.967" fill="#505050" xlink:href="#FunctionGenerator-ICL8038-1_svg__ao"/>
  <use x="559.512" y="258.127" fill="#505050" xlink:href="#FunctionGenerator-ICL8038-1_svg__ap"/>
  <use x="542.682" y="276.644" fill="#505050" xlink:href="#FunctionGenerator-ICL8038-1_svg__aj"/>
  <use x="545.202" y="276.644" fill="#505050" xlink:href="#FunctionGenerator-ICL8038-1_svg__d"/>
  <use x="269.696" y="350.893" fill="#505050" xlink:href="#FunctionGenerator-ICL8038-1_svg__k"/>
  <use x="271.916" y="350.893" fill="#505050" xlink:href="#FunctionGenerator-ICL8038-1_svg__m"/>
  <use x="274.136" y="350.893" fill="#505050" xlink:href="#FunctionGenerator-ICL8038-1_svg__aq"/>
  <use x="276.536" y="350.893" fill="#505050" xlink:href="#FunctionGenerator-ICL8038-1_svg__ar"/>
  <use x="268.196" y="339.382" fill="#505050" xlink:href="#FunctionGenerator-ICL8038-1_svg__k"/>
  <use x="270.416" y="339.382" fill="#505050" xlink:href="#FunctionGenerator-ICL8038-1_svg__m"/>
  <use x="272.636" y="339.382" fill="#505050" xlink:href="#FunctionGenerator-ICL8038-1_svg__aq"/>
  <use x="275.036" y="339.382" fill="#505050" xlink:href="#FunctionGenerator-ICL8038-1_svg__as"/>
  <path fill="none" stroke="maroon" stroke-linecap="round" stroke-linejoin="round" stroke-miterlimit="10" stroke-width=".6" d="M355.68 280.379v46.082m0-.001h69.12m0 0v-46.08m-69.12-.001h69.12"/>
  <path fill="none" stroke="maroon" stroke-linecap="round" stroke-linejoin="round" stroke-miterlimit="10" stroke-width=".36" d="M349.922 303.422h5.758m74.879 11.519H424.8m5.759 5.759H424.8m5.759-34.56H424.8m5.759 5.758H424.8m-34.562-17.277v5.758m-40.316 11.519h5.758m-5.758-5.758h5.758m74.879 23.04H424.8m-74.878 11.52h5.758m34.558 11.46v-5.7m-40.316-17.28h5.758"/>
  <path fill="none" stroke="maroon" stroke-linecap="round" stroke-linejoin="round" stroke-miterlimit="10" stroke-width=".6" d="M313.68 280.379v11.52m3.422-.001v-11.52"/>
  <path fill="none" stroke="maroon" stroke-linecap="round" stroke-linejoin="round" stroke-miterlimit="10" stroke-width=".36" d="M321.18 286.14h-2.04"/>
  <path fill="none" stroke="maroon" stroke-linecap="round" stroke-linejoin="round" stroke-miterlimit="10" stroke-width=".6" d="M317.102 280.379h-3.422m0 11.519h3.422"/>
  <path fill="none" stroke="maroon" stroke-linecap="round" stroke-linejoin="round" stroke-miterlimit="10" stroke-width=".36" d="M309.66 291.898v-4.617m0 0l-1.14 2.34m1.14-2.34l1.14 2.34m4.622 8.039v-5.762m0-17.277v5.758m3.718 5.761l-7.98-3.96m-.66 1.02l-2.34-2.579m0 0l3.36.48m-1.02 2.099l1.02-2.098m165.058 10.796h-5.758m-17.218 0h5.757"/>
  <path fill="none" stroke="maroon" stroke-linecap="round" stroke-linejoin="round" stroke-miterlimit="10" stroke-width=".6" d="M459.36 293.941h11.46m0-4.081h-11.46m11.46 4.081v-4.082m-11.46 4.082v-4.082"/>
  <path fill="none" stroke="maroon" stroke-linecap="round" stroke-linejoin="round" stroke-miterlimit="10" stroke-width=".36" d="M476.578 274.621h-5.758m-17.218 0h5.757"/>
  <path fill="none" stroke="maroon" stroke-linecap="round" stroke-linejoin="round" stroke-miterlimit="10" stroke-width=".6" d="M459.36 276.66h11.46m0-4.02h-11.46m11.46 4.02v-4.02m-11.46 4.02v-4.02"/>
  <path fill="none" stroke="maroon" stroke-linecap="round" stroke-linejoin="round" stroke-miterlimit="10" stroke-width=".36" d="M298.14 251.578v5.762m0 17.281v-5.762"/>
  <path fill="none" stroke="maroon" stroke-linecap="round" stroke-linejoin="round" stroke-miterlimit="10" stroke-width=".6" d="M300.121 268.86v-11.52m-4.019 0v11.52m4.019-11.52h-4.02m4.02 11.52h-4.02"/>
  <path fill="none" stroke="maroon" stroke-linecap="round" stroke-linejoin="round" stroke-miterlimit="10" stroke-width=".36" d="M378.719 343.68h-5.758m-17.281 0h5.761"/>
  <path fill="none" stroke="maroon" stroke-linecap="round" stroke-linejoin="round" stroke-miterlimit="10" stroke-width=".6" d="M361.441 345.719h11.52m-.001-4.019h-11.519m11.519 4.019v-4.02m-11.519 4.02v-4.02"/>
  <path fill="none" stroke="maroon" stroke-linecap="round" stroke-linejoin="round" stroke-miterlimit="10" stroke-width=".36" d="M476.578 309.18h-5.758m-17.218 0h5.757"/>
  <path fill="none" stroke="maroon" stroke-linecap="round" stroke-linejoin="round" stroke-miterlimit="10" stroke-width=".6" d="M459.36 311.16h11.46m0-4.02h-11.46m11.46 4.02v-4.02m-11.46 4.02v-4.02"/>
  <path fill="none" stroke="maroon" stroke-linecap="round" stroke-linejoin="round" stroke-miterlimit="10" stroke-width=".36" d="M528.422 309.18h-5.762m-17.281 0h5.762"/>
  <path fill="none" stroke="maroon" stroke-linecap="round" stroke-linejoin="round" stroke-miterlimit="10" stroke-width=".6" d="M511.14 311.16h11.52m0-4.02h-11.52m11.52 4.02v-4.02m-11.52 4.02v-4.02m-210.12-68.46l-2.88-4.32m0 0l-2.878 4.32"/>
  <path fill="none" stroke="maroon" stroke-linecap="round" stroke-linejoin="round" stroke-miterlimit="10" stroke-width=".36" d="M298.14 240.121v-5.762"/>
  <path fill="none" stroke="maroon" stroke-linecap="round" stroke-linejoin="round" stroke-miterlimit="10" stroke-width=".6" d="M328.922 360.96h7.5"/>
  <path fill="none" stroke="maroon" stroke-linecap="round" stroke-linejoin="round" stroke-miterlimit="10" stroke-width=".36" d="M332.7 355.2v5.76"/>
  <path fill="none" stroke="maroon" stroke-linecap="round" stroke-linejoin="round" stroke-miterlimit="10" stroke-width=".6" d="M330.36 362.102h4.62m-3.18 1.136h1.74m52.98-2.278h7.44"/>
  <path fill="none" stroke="maroon" stroke-linecap="round" stroke-linejoin="round" stroke-miterlimit="10" stroke-width=".36" d="M390.238 355.2v5.76"/>
  <path fill="none" stroke="maroon" stroke-linecap="round" stroke-linejoin="round" stroke-miterlimit="10" stroke-width=".6" d="M387.96 362.102h4.56m-3.122 1.136h1.68"/>
  <path fill="none" stroke="maroon" stroke-linecap="round" stroke-linejoin="round" stroke-miterlimit="10" stroke-width=".36" d="M332.7 343.68v-4.02m0-7.5v4.078"/>
  <path fill="maroon" stroke="maroon" stroke-linecap="round" stroke-linejoin="round" stroke-miterlimit="10" stroke-width=".12" d="M328.078 339.719h9.242v-1.2h-9.242zm0-2.34h9.242v-1.2h-9.242zm0 0"/>
  <path fill="none" stroke="maroon" stroke-linecap="round" stroke-linejoin="round" stroke-miterlimit="10" stroke-width=".6" d="M505.379 337.922h5.762"/>
  <path fill="maroon" fill-rule="evenodd" d="M510.84 337.922l.18-.902.359-.782.601-.718.72-.48.902-.24h.898l.84.24.781.48.598.718.36.782.12.902-.12.898-.36.84-.598.66-.781.48-.84.302h-.898l-.903-.301-.719-.48-.601-.66-.36-.84-.18-.9h.602l.118-.722.3-.66.48-.539.602-.422.72-.18h.718l.723.18.597.422.48.54.36.66.063.722-.063.777-.36.66-.48.54-.597.421-.723.18h-.719l-.719-.18-.601-.422-.48-.539-.301-.66-.118-.777h-.601"/>
  <path fill="none" stroke="maroon" stroke-linecap="round" stroke-linejoin="round" stroke-miterlimit="10" stroke-width=".12" d="M510.84 337.922l.18-.902.359-.782.601-.718.72-.48.902-.24h.898l.84.24.781.48.598.718.36.782.12.902-.12.898-.36.84-.598.66-.781.48-.84.302h-.898l-.903-.301-.719-.48-.601-.66-.36-.84-.18-.9h.602l.118-.722.3-.66.48-.539.602-.422.72-.18h.718l.723.18.597.422.48.54.36.66.063.722-.063.777-.36.66-.48.54-.597.421-.723.18h-.719l-.719-.18-.601-.422-.48-.539-.301-.66-.118-.777zm0 0"/>
  <path fill="none" stroke="maroon" stroke-linecap="round" stroke-linejoin="round" stroke-miterlimit="10" stroke-width=".6" d="M505.379 349.441h5.762"/>
  <path fill="maroon" fill-rule="evenodd" d="M510.84 349.441l.18-.902.359-.777.601-.723.72-.48.902-.239h.898l.84.239.781.48.598.723.36.777.12.902-.12.899-.36.84-.598.66-.781.48-.84.239h-.898l-.903-.239-.719-.48-.601-.66-.36-.84-.18-.899h.602l.118-.722.3-.66.48-.54.602-.417.72-.243h.718l.723.243.597.418.48.539.36.66.063.722-.063.72-.36.718-.48.543-.597.36-.723.238h-.719l-.719-.239-.601-.36-.48-.542-.301-.719-.118-.719h-.601"/>
  <path fill="none" stroke="maroon" stroke-linecap="round" stroke-linejoin="round" stroke-miterlimit="10" stroke-width=".12" d="M510.84 349.441l.18-.902.359-.777.601-.723.72-.48.902-.239h.898l.84.239.781.48.598.723.36.777.12.902-.12.899-.36.84-.598.66-.781.48-.84.239h-.898l-.903-.239-.719-.48-.601-.66-.36-.84-.18-.899h.602l.118-.722.3-.66.48-.54.602-.417.72-.243h.718l.723.243.597.418.48.539.36.66.063.722-.063.72-.36.718-.48.543-.597.36-.723.238h-.719l-.719-.239-.601-.36-.48-.542-.301-.719-.118-.719zm0 0"/>
  <path fill="none" stroke="maroon" stroke-linecap="round" stroke-linejoin="round" stroke-miterlimit="10" stroke-width=".6" d="M505.379 326.46h5.762"/>
  <path fill="maroon" fill-rule="evenodd" d="M510.84 326.46l.18-.901.359-.84.601-.66.72-.48.902-.298h.898l.84.297.781.48.598.66.36.84.12.903-.12.84-.36.84-.598.66-.781.539-.84.238h-.898l-.903-.238-.719-.54-.601-.66-.36-.84-.18-.84h.602l.118-.78.3-.66.48-.54.602-.421.72-.18h.718l.723.18.597.421.48.54.36.66.063.78-.063.72-.36.66-.48.539-.597.422-.723.18h-.719l-.719-.18-.601-.422-.48-.54-.301-.66-.118-.718h-.601"/>
  <path fill="none" stroke="maroon" stroke-linecap="round" stroke-linejoin="round" stroke-miterlimit="10" stroke-width=".12" d="M510.84 326.46l.18-.901.359-.84.601-.66.72-.48.902-.298h.898l.84.297.781.48.598.66.36.84.12.903-.12.84-.36.84-.598.66-.781.539-.84.238h-.898l-.903-.238-.719-.54-.601-.66-.36-.84-.18-.84h.602l.118-.78.3-.66.48-.54.602-.421.72-.18h.718l.723.18.597.421.48.54.36.66.063.78-.063.72-.36.66-.48.539-.597.422-.723.18h-.719l-.719-.18-.601-.422-.48-.54-.301-.66-.118-.718zm0 0"/>
  <path fill="none" stroke="maroon" stroke-linecap="round" stroke-linejoin="round" stroke-miterlimit="10" stroke-width=".36" d="M551.46 303.422l-5.64 2.816m3.18 6l1.14 2.043m0 0l-2.28.297m0 0l1.14-2.34m2.46 2.703l-1.32-.66m0 0l-3.718-1.86"/>
  <path fill="none" stroke="maroon" stroke-linecap="round" stroke-linejoin="round" stroke-miterlimit="10" stroke-width=".72" d="M548.398 314.281l1.32-.18m.001.001L549 312.84"/>
  <path fill="none" stroke="maroon" stroke-linecap="round" stroke-linejoin="round" stroke-miterlimit="10" stroke-width=".6" d="M549 312.84l-.602 1.14m0 0h.903m-.001 0l-.3-.601"/>
  <path fill="maroon" stroke="maroon" stroke-linecap="round" stroke-linejoin="round" stroke-miterlimit="10" stroke-width=".12" d="M544.559 314.941h1.68v-11.52h-1.68zm0 0"/>
  <path fill="none" stroke="maroon" stroke-linecap="round" stroke-linejoin="round" stroke-miterlimit="10" stroke-width=".36" d="M539.941 309.18h5.758m5.761 11.52v-5.759m0-17.281v5.762"/>
  <path fill="none" stroke="maroon" stroke-linecap="round" stroke-linejoin="round" stroke-miterlimit="10" stroke-width=".9" d="M556.738 309.18a8.159 8.159 0 1 1-16.316 0 8.158 8.158 0 1 1 16.316 0zm0 0"/>
  <path fill="none" stroke="maroon" stroke-linecap="round" stroke-linejoin="round" stroke-miterlimit="10" stroke-width=".6" d="M554.34 251.578l-2.88 5.762m0 0l-2.882-5.762m5.762 5.762h-2.88m0 0h-2.882m5.762-5.762h-2.88m0 0h-2.882"/>
  <path fill="none" stroke="maroon" stroke-linecap="round" stroke-linejoin="round" stroke-miterlimit="10" stroke-width=".36" d="M551.46 251.578v5.762m-4.62-4.02l-3.18 3.18m3.48-.602l-3.18 3.18m7.5 4.024v-5.762m0-11.461v5.7m-7.8 4.921l.899-2.04m0 0l1.14 1.2m.001 0l-2.04.84m.059-.121h.18m-.059-.239h.66m-.54-.242h1.142m-1.082-.238h1.68m-1.56-.3h1.32m-1.198-.239h.898m-.781-.242h.543m-.422-.239h.18m-.72 4.438l.9-1.976m0 0l1.14 1.136m0 0l-2.04.84m.06-.118h.242m-.122-.241h.72m-.598-.297h1.199m-1.082-.242h1.562m-1.5-.239h1.258m-1.14-.241h.902m-.781-.302h.48m-.36-.238h.122m6.538 11.7v5.761m0 17.277v-5.757"/>
  <path fill="none" stroke="maroon" stroke-linecap="round" stroke-linejoin="round" stroke-miterlimit="10" stroke-width=".6" d="M553.441 286.14v-11.519m-4.019 0v11.52m4.019-11.52h-4.02m4.02 11.519h-4.02m-1.741 74.82h7.5"/>
  <path fill="none" stroke="maroon" stroke-linecap="round" stroke-linejoin="round" stroke-miterlimit="10" stroke-width=".36" d="M551.46 355.2v5.76"/>
  <path fill="none" stroke="maroon" stroke-linecap="round" stroke-linejoin="round" stroke-miterlimit="10" stroke-width=".6" d="M549.121 362.102h4.617m-3.179 1.136h1.742M301.86 360.96h-7.5"/>
  <path fill="none" stroke="maroon" stroke-linecap="round" stroke-linejoin="round" stroke-miterlimit="10" stroke-width=".36" d="M298.14 355.2v5.76"/>
  <path fill="none" stroke="maroon" stroke-linecap="round" stroke-linejoin="round" stroke-miterlimit="10" stroke-width=".6" d="M300.422 362.102H295.8m3.18 1.136h-1.742m95.883-124.558l-2.883-4.32m0 0l-2.879 4.32"/>
  <path fill="none" stroke="maroon" stroke-linecap="round" stroke-linejoin="round" stroke-miterlimit="10" stroke-width=".36" d="M390.238 240.121v-5.762"/>
  <path fill="none" stroke="maroon" stroke-linecap="round" stroke-linejoin="round" stroke-miterlimit="10" stroke-width=".6" d="M485.219 238.68l-2.88-4.32m.001 0l-2.88 4.32"/>
  <path fill="none" stroke="maroon" stroke-linecap="round" stroke-linejoin="round" stroke-miterlimit="10" stroke-width=".36" d="M482.34 240.121v-5.762"/>
  <path fill="none" stroke="maroon" stroke-linecap="round" stroke-linejoin="round" stroke-miterlimit="10" stroke-width=".6" d="M554.34 238.68l-2.88-4.32m0 0l-2.882 4.32"/>
  <path fill="none" stroke="maroon" stroke-linecap="round" stroke-linejoin="round" stroke-miterlimit="10" stroke-width=".36" d="M551.46 240.121v-5.762"/>
  <path fill="none" stroke="maroon" stroke-linecap="round" stroke-linejoin="round" stroke-miterlimit="10" stroke-width=".6" d="M301.02 330.719l-2.88-4.258m0-.001l-2.878 4.259"/>
  <path fill="none" stroke="maroon" stroke-linecap="round" stroke-linejoin="round" stroke-miterlimit="10" stroke-width=".36" d="M298.14 332.16v-5.7"/>
  <path fill="none" stroke="maroon" stroke-linecap="round" stroke-linejoin="round" stroke-miterlimit="10" stroke-width=".6" d="M292.379 349.441h-5.758"/>
  <path fill="maroon" fill-rule="evenodd" d="M280.559 349.441l.12-.902.36-.777.602-.723.78-.48.84-.239h.9l.898.239.722.48.598.723.422.777.12.902-.12.899-.422.84-.598.66-.722.48-.899.239h-.898l-.84-.239-.781-.48-.602-.66-.36-.84-.12-.899h.601l.059-.722.36-.66.48-.54.601-.417.719-.243h.723l.718.243.602.418.476.539.301.66.121.722-.12.72-.302.718-.476.543-.602.36-.718.238h-.723l-.719-.239-.601-.36-.48-.542-.36-.719-.059-.719h-.601"/>
  <path fill="none" stroke="maroon" stroke-linecap="round" stroke-linejoin="round" stroke-miterlimit="10" stroke-width=".12" d="M280.559 349.441l.12-.902.36-.777.602-.723.78-.48.84-.239h.9l.898.239.722.48.598.723.422.777.12.902-.12.899-.422.84-.598.66-.722.48-.899.239h-.898l-.84-.239-.781-.48-.602-.66-.36-.84-.12-.899h.601l.059-.722.36-.66.48-.54.601-.417.719-.243h.723l.718.243.602.418.476.539.301.66.121.722-.12.72-.302.718-.476.543-.602.36-.718.238h-.723l-.719-.239-.601-.36-.48-.542-.36-.719-.059-.719zm0 0"/>
  <path fill="none" stroke="maroon" stroke-linecap="round" stroke-linejoin="round" stroke-miterlimit="10" stroke-width=".6" d="M292.379 337.922h-5.758"/>
  <path fill="maroon" fill-rule="evenodd" d="M280.559 337.922l.12-.902.36-.782.602-.718.78-.48.84-.24h.9l.898.24.722.48.598.718.422.782.12.902-.12.898-.422.84-.598.66-.722.48-.899.302h-.898l-.84-.301-.781-.48-.602-.66-.36-.84-.12-.9h.601l.059-.722.36-.66.48-.539.601-.422.719-.18h.723l.718.18.602.422.476.54.301.66.121.722-.12.777-.302.66-.476.54-.602.421-.718.18h-.723l-.719-.18-.601-.422-.48-.539-.36-.66-.059-.777h-.601"/>
  <path fill="none" stroke="maroon" stroke-linecap="round" stroke-linejoin="round" stroke-miterlimit="10" stroke-width=".12" d="M280.559 337.922l.12-.902.36-.782.602-.718.78-.48.84-.24h.9l.898.24.722.48.598.718.422.782.12.902-.12.898-.422.84-.598.66-.722.48-.899.302h-.898l-.84-.301-.781-.48-.602-.66-.36-.84-.12-.9h.601l.059-.722.36-.66.48-.539.601-.422.719-.18h.723l.718.18.602.422.476.54.301.66.121.722-.12.777-.302.66-.476.54-.602.421-.718.18h-.723l-.719-.18-.601-.422-.48-.539-.36-.66-.059-.777zm0 0"/>
  <path fill="none" stroke="green" stroke-linecap="round" stroke-linejoin="round" stroke-miterlimit="10" stroke-width=".36" d="M298.14 240.121v11.457m92.098-11.457v34.5m92.102-34.5v34.5m0 0v17.277m0 0v17.282m0 0h-5.762m0-17.282h5.762"/>
  <path fill="green" fill-rule="evenodd" d="M483.48 291.898a1.14 1.14 0 1 1-2.278.003 1.14 1.14 0 0 1 2.278-.003"/>
  <path fill="none" stroke="green" stroke-linecap="round" stroke-linejoin="round" stroke-miterlimit="10" stroke-width=".12" d="M483.48 291.898a1.14 1.14 0 1 1-2.278.003 1.14 1.14 0 0 1 2.278-.003zm0 0"/>
  <path fill="none" stroke="green" stroke-linecap="round" stroke-linejoin="round" stroke-miterlimit="10" stroke-width=".36" d="M476.578 274.621h5.762"/>
  <path fill="green" fill-rule="evenodd" d="M483.48 274.621a1.14 1.14 0 0 1-1.14 1.14 1.14 1.14 0 1 1 1.14-1.14"/>
  <path fill="none" stroke="green" stroke-linecap="round" stroke-linejoin="round" stroke-miterlimit="10" stroke-width=".12" d="M483.48 274.621a1.14 1.14 0 0 1-1.14 1.14 1.14 1.14 0 1 1 1.14-1.14zm0 0"/>
  <path fill="none" stroke="green" stroke-linecap="round" stroke-linejoin="round" stroke-miterlimit="10" stroke-width=".36" d="M551.46 240.121v5.758M298.14 332.16v5.762m0 0h-5.761m138.18-51.782h11.52m-.001 0v-11.519m0 0h11.524m-23.043 17.277h23.043m-23.043 17.282h17.28m.001 0h5.762m-5.762 0v17.28m0 0h46.02"/>
  <path fill="green" fill-rule="evenodd" d="M448.98 309.18a1.14 1.14 0 1 1-2.282-.002 1.14 1.14 0 0 1 2.282.002"/>
  <path fill="none" stroke="green" stroke-linecap="round" stroke-linejoin="round" stroke-miterlimit="10" stroke-width=".12" d="M448.98 309.18a1.14 1.14 0 1 1-2.282-.002 1.14 1.14 0 0 1 2.282.002zm0 0"/>
  <path fill="none" stroke="green" stroke-linecap="round" stroke-linejoin="round" stroke-miterlimit="10" stroke-width=".36" d="M493.86 326.46v-17.28m0 0h11.519m0 17.28h-11.52"/>
  <path fill="green" fill-rule="evenodd" d="M495 326.46c0 .63-.512 1.142-1.14 1.142-.63 0-1.141-.512-1.141-1.141a1.14 1.14 0 1 1 2.281 0"/>
  <path fill="none" stroke="green" stroke-linecap="round" stroke-linejoin="round" stroke-miterlimit="10" stroke-width=".12" d="M495 326.46c0 .63-.512 1.142-1.14 1.142-.63 0-1.141-.512-1.141-1.141a1.14 1.14 0 1 1 2.281 0zm0 0"/>
  <path fill="none" stroke="green" stroke-linecap="round" stroke-linejoin="round" stroke-miterlimit="10" stroke-width=".36" d="M390.238 355.2v-11.52m0 0v-11.52m-11.519 11.52h11.52"/>
  <path fill="green" fill-rule="evenodd" d="M391.379 343.68a1.14 1.14 0 1 1-2.279.002 1.14 1.14 0 0 1 2.279-.002"/>
  <path fill="none" stroke="green" stroke-linecap="round" stroke-linejoin="round" stroke-miterlimit="10" stroke-width=".12" d="M391.379 343.68a1.14 1.14 0 1 1-2.279.002 1.14 1.14 0 0 1 2.279-.002zm0 0"/>
  <path fill="none" stroke="green" stroke-linecap="round" stroke-linejoin="round" stroke-miterlimit="10" stroke-width=".36" d="M332.7 343.68v11.52m218.76 0v-34.5m-253.32 34.5v-5.759m0 0h-5.761m63.301-5.761h-11.52m0 0v-34.5m0 0h5.762m0 11.52h-17.223m.001 0v11.46m97.859-11.46h5.761m0 0v28.741m0 0h69.059m0-11.519h-63.3m-.001 0v-22.98m0-.001h-11.52m109.383-5.761h-11.52m23.039-46.078v5.757m0 28.801v-5.762m-253.32 11.524v-28.8m17.282 23.038v5.762m0 0H298.14m51.782-11.524h-5.762m0 0v-5.757m0-.001h5.762m-28.742 0h22.98"/>
  <path fill="green" fill-rule="evenodd" d="M345.3 286.14a1.14 1.14 0 1 1-2.28.001 1.14 1.14 0 0 1 2.28-.001"/>
  <path fill="none" stroke="green" stroke-linecap="round" stroke-linejoin="round" stroke-miterlimit="10" stroke-width=".12" d="M345.3 286.14a1.14 1.14 0 1 1-2.28.001 1.14 1.14 0 0 1 2.28-.001zm0 0"/>
</svg>
