<svg xmlns="http://www.w3.org/2000/svg" xmlns:xlink="http://www.w3.org/1999/xlink" width="842pt" height="595pt" viewBox="0 0 842 595"><defs><symbol overflow="visible" id="a"><path d="M1.313 0H.188v-.297h.374v-2.328H.188v-.297h1.125v.297H.938v2.328h.375zm0 0"/></symbol><symbol overflow="visible" id="b"><path d="M1.438.047a1.212 1.212 0 0 1-.532-.094A1.087 1.087 0 0 1 .5-.328a1.388 1.388 0 0 1-.281-.469 2.147 2.147 0 0 1-.094-.656c0-.25.031-.461.094-.64C.28-2.27.375-2.43.5-2.579c.113-.125.25-.223.406-.297.156-.063.332-.094.531-.094.102 0 .196.008.282.016.082.023.16.043.234.062.063.024.129.043.203.063.063.031.125.07.188.11v.468h-.031c-.032-.031-.075-.07-.126-.125-.062-.04-.132-.082-.203-.125a2.15 2.15 0 0 0-.234-.11 1.54 1.54 0 0 0-.313-.03.767.767 0 0 0-.343.078.876.876 0 0 0-.297.218.997.997 0 0 0-.188.375 1.552 1.552 0 0 0-.078.516c0 .2.024.371.078.516a.83.83 0 0 0 .188.359c.082.105.18.18.297.219a.718.718 0 0 0 .343.078.99.99 0 0 0 .313-.047A.83.83 0 0 0 2-.422a1.42 1.42 0 0 0 .313-.234h.03v.453a2.274 2.274 0 0 0-.171.094 1.023 1.023 0 0 1-.219.078C1.867 0 1.79.019 1.72.03a2.627 2.627 0 0 1-.282.016zm0 0"/></symbol><symbol overflow="visible" id="c"><path d="M1.984 0H.297v-2.922h.39v2.578h1.297zm0 0"/></symbol><symbol overflow="visible" id="d"><path d="M1.594-2.234a.426.426 0 0 0-.14-.329.46.46 0 0 0-.36-.14.464.464 0 0 0-.344.125.378.378 0 0 0-.14.312c0 .094.019.18.062.25.05.063.125.121.219.172a.509.509 0 0 0 .187.094c.07.043.145.074.219.094a.699.699 0 0 0 .234-.266.796.796 0 0 0 .063-.312zM1.64-.781a.599.599 0 0 0-.063-.281.934.934 0 0 0-.281-.22l-.172-.077a3.457 3.457 0 0 0-.25-.094.694.694 0 0 0-.25.25.873.873 0 0 0-.078.375.555.555 0 0 0 .156.437.494.494 0 0 0 .39.172c.165 0 .302-.05.407-.156.094-.094.14-.227.14-.406zm-.547.844C.945.063.816.038.704 0A.722.722 0 0 1 .39-.188a.598.598 0 0 1-.188-.28.883.883 0 0 1-.062-.344.8.8 0 0 1 .125-.438.947.947 0 0 1 .375-.313v-.015a.788.788 0 0 1-.329-.266.703.703 0 0 1-.093-.375c0-.219.082-.398.25-.547a.917.917 0 0 1 .625-.218c.258 0 .472.07.64.203a.706.706 0 0 1 .235.531c0 .137-.04.266-.11.39a.658.658 0 0 1-.328.298v.015c.164.086.297.184.39.297a.742.742 0 0 1 .126.438c0 .25-.09.46-.266.625a.994.994 0 0 1-.687.25zm0 0"/></symbol><symbol overflow="visible" id="e"><path d="M2.031-1.453c0 .523-.078.902-.234 1.14-.149.25-.383.376-.703.376C.77.063.535-.064.39-.314.234-.563.156-.94.156-1.452c0-.531.078-.914.235-1.156.156-.25.39-.375.703-.375.32 0 .554.132.703.39.156.25.234.633.234 1.14zm-.5.875a2.32 2.32 0 0 0 .078-.36 9.314 9.314 0 0 0 0-1.046 2.427 2.427 0 0 0-.078-.36.573.573 0 0 0-.172-.234.414.414 0 0 0-.265-.078.446.446 0 0 0-.266.078.512.512 0 0 0-.172.234 1.997 1.997 0 0 0-.078.375 6.995 6.995 0 0 0-.015.516c0 .2.003.371.015.516.008.136.035.257.078.359.04.105.098.183.172.234.063.055.149.078.266.078a.436.436 0 0 0 .265-.078.525.525 0 0 0 .172-.234zm0 0"/></symbol><symbol overflow="visible" id="f"><path d="M1-2.64a.671.671 0 0 0-.203.03.873.873 0 0 0-.219.063.582.582 0 0 0-.156.078c-.055.031-.094.059-.125.078H.266v-.406a2.29 2.29 0 0 1 .359-.125c.133-.039.27-.062.406-.062.133 0 .25.015.344.046a.62.62 0 0 1 .266.126c.093.062.16.136.203.218.039.094.062.2.062.313a.612.612 0 0 1-.156.422.669.669 0 0 1-.375.234v.031a.919.919 0 0 1 .39.188c.051.062.098.136.141.218.04.086.063.196.063.329A.875.875 0 0 1 1.89-.5a.803.803 0 0 1-.188.297.745.745 0 0 1-.312.187c-.118.051-.25.079-.407.079C.836.063.691.046.547.015a1.814 1.814 0 0 1-.36-.141v-.406H.22C.3-.47.41-.411.547-.36a1.094 1.094 0 0 0 .656.046.559.559 0 0 0 .203-.124c.051-.063.094-.126.125-.188.02-.07.032-.16.032-.266a.687.687 0 0 0-.047-.265.491.491 0 0 0-.125-.157.446.446 0 0 0-.188-.078 1.123 1.123 0 0 0-.25-.03H.781v-.329h.14c.165 0 .306-.04.423-.125a.419.419 0 0 0 .172-.36.371.371 0 0 0-.047-.187.493.493 0 0 0-.11-.125 1.15 1.15 0 0 0-.171-.078A1.296 1.296 0 0 0 1-2.641zm0 0"/></symbol><symbol overflow="visible" id="k"><path d="M1.86 0H.436v-.297H.97V-2.25H.438v-.266c.195 0 .347-.03.453-.093.093-.051.144-.157.156-.313h.297v2.625h.515zm0 0"/></symbol><symbol overflow="visible" id="l"><path d="M2.078 0h-.484L.78-1.063l-.14.141V0H.266v-3.047H.64v1.781l.859-.921h.453l-.89.906zm0 0"/></symbol><symbol overflow="visible" id="m"><path d="M2.016 0H.219v-.406l.36-.36c.112-.101.226-.218.343-.343.219-.25.367-.446.453-.594.07-.145.113-.297.125-.453a.487.487 0 0 0-.047-.219.602.602 0 0 0-.11-.156.629.629 0 0 0-.344-.11.822.822 0 0 0-.218.032.685.685 0 0 0-.203.062 1.166 1.166 0 0 0-.156.078c-.055.031-.094.059-.125.078H.28v-.406c.07-.039.18-.082.328-.125.145-.039.286-.062.422-.062.258 0 .469.074.625.218.157.149.235.344.235.594 0 .117-.012.219-.032.313-.03.093-.07.183-.109.265a2.195 2.195 0 0 1-.188.25 4.057 4.057 0 0 1-.203.25 7.154 7.154 0 0 1-.421.422 7.96 7.96 0 0 1-.36.344h1.438zm0 0"/></symbol><symbol overflow="visible" id="p"><path d="M1.516.063c-.211 0-.399-.032-.563-.094a.962.962 0 0 1-.437-.297 1.177 1.177 0 0 1-.282-.469 1.894 1.894 0 0 1-.109-.672c0-.226.035-.437.11-.625a1.33 1.33 0 0 1 .28-.484c.114-.125.258-.223.438-.297.176-.063.363-.094.563-.094.101 0 .195.008.28.016.095.023.18.043.266.062.063.024.133.047.22.079a.829.829 0 0 1 .187.093v.469h-.031c-.043-.04-.09-.082-.141-.125a1.311 1.311 0 0 0-.219-.125c-.086-.04-.18-.07-.281-.094a1.039 1.039 0 0 0-.328-.047.798.798 0 0 0-.672.329c-.18.21-.266.492-.266.843 0 .188.024.36.078.516a.83.83 0 0 0 .188.36.745.745 0 0 0 .312.234.884.884 0 0 0 .391.078c.113 0 .223-.004.328-.016.102-.02.195-.047.281-.078v-.75h-.687v-.344h1.062v1.282c-.054.023-.117.046-.187.078-.094.03-.172.058-.235.078-.105.031-.195.05-.265.062-.074.02-.168.032-.281.032zm0 0"/></symbol><symbol overflow="visible" id="q"><path d="M2.39 0h-.437L.656-2.516V0h-.36v-2.922h.548L2.016-.609v-2.313h.375zm0 0"/></symbol><symbol overflow="visible" id="r"><path d="M2.594-1.453c0 .262-.055.5-.156.719-.106.218-.25.386-.438.5a1.33 1.33 0 0 1-.453.187A2.89 2.89 0 0 1 .969 0H.297v-2.922h.656c.281 0 .5.024.656.063.157.043.286.101.391.171.188.126.332.293.438.5.101.211.156.454.156.735zm-.406-.016c0-.218-.04-.41-.11-.578a.813.813 0 0 0-.328-.36 1.342 1.342 0 0 0-.328-.14 1.832 1.832 0 0 0-.438-.047H.688v2.266h.296c.164 0 .317-.016.454-.047a1.016 1.016 0 0 0 .656-.516c.062-.156.094-.347.094-.578zm0 0"/></symbol><symbol overflow="visible" id="s"><path d="M.844 0H.375v-.563h.469zm0 0"/></symbol><symbol overflow="visible" id="t"><path d="M1.984 0h-.359v-1.25c0-.094-.008-.188-.016-.281a.566.566 0 0 0-.062-.203.382.382 0 0 0-.125-.125 1.042 1.042 0 0 0-.219-.047.589.589 0 0 0-.281.078c-.106.055-.2.117-.281.187V0H.266v-2.188H.64v.235a1.42 1.42 0 0 1 .312-.219.831.831 0 0 1 .344-.078c.219 0 .39.07.516.203.113.149.171.356.171.625zm0 0"/></symbol><symbol overflow="visible" id="u"><path d="M2.047-2.578H.687v.828h1.297v.344H.688V0H.296v-2.922h1.75zm0 0"/></symbol><symbol overflow="visible" id="v"><path d="M2.281-.89a.703.703 0 0 1-.094.374.72.72 0 0 1-.218.282.865.865 0 0 1-.344.172A1.62 1.62 0 0 1 1.141 0H.297v-2.922h.781c.195 0 .352.008.469.016.094.023.191.058.297.11a.588.588 0 0 1 .297.53c0 .149-.04.274-.11.375a.778.778 0 0 1-.297.25v.016c.164.055.301.14.407.266a.76.76 0 0 1 .14.468zm-.547-1.313a.554.554 0 0 0-.03-.188.281.281 0 0 0-.11-.125.977.977 0 0 0-.219-.062 2.985 2.985 0 0 0-.313-.016H.688v.86h.438c.125 0 .21-.004.266-.016a.429.429 0 0 0 .187-.078.452.452 0 0 0 .125-.156.634.634 0 0 0 .031-.22zm.141 1.328a.73.73 0 0 0-.047-.281.355.355 0 0 0-.187-.172.722.722 0 0 0-.204-.063 2.985 2.985 0 0 0-.312-.015H.687v1.078H1c.164 0 .3-.008.406-.031a.478.478 0 0 0 .25-.094c.07-.05.13-.11.172-.172a.56.56 0 0 0 .047-.25zm0 0"/></symbol><symbol overflow="visible" id="w"><path d="M1.984-.922c0 .137-.023.266-.062.39a1.304 1.304 0 0 1-.203.313.757.757 0 0 1-.297.203c-.125.051-.262.079-.406.079C.867.063.726.046.594.015A1.216 1.216 0 0 1 .25-.11v-.407h.016c.03.024.078.047.14.079.051.023.114.046.188.078.07.023.14.043.203.062.062.012.133.016.219.016.07 0 .148-.016.234-.047a.389.389 0 0 0 .188-.125.604.604 0 0 0 .109-.203c.02-.07.031-.164.031-.281a.868.868 0 0 0-.031-.25.491.491 0 0 0-.125-.157.644.644 0 0 0-.203-.11 1.265 1.265 0 0 0-.282-.03c-.105 0-.21.007-.312.015-.117.024-.203.04-.266.047v-1.5h1.61v.344H.734v.781c.051-.008.098-.016.141-.016H1c.156 0 .285.012.39.032.094.031.192.078.298.14a.782.782 0 0 1 .218.282c.051.117.078.261.078.437zm0 0"/></symbol><symbol overflow="visible" id="x"><path d="M2.094-1H1.75v1h-.375v-1H.078v-.422l1.313-1.5h.359v1.61h.344zm-.719-.313v-1.14l-.984 1.14zm0 0"/></symbol><symbol overflow="visible" id="y"><path d="M2.047-2.484L.78 0H.36l1.344-2.578H.187v-.344h1.86zm0 0"/></symbol><symbol overflow="visible" id="z"><path d="M.297 0v-2.922h1.828v.344H.687v.797h1.344v.36H.687v1.077h1.438V0zm0 0"/></symbol><symbol overflow="visible" id="aj"><path d="M2.563 0h-.516l-.922-1.156H.687V0h-.39v-2.922h.75c.164 0 .305.012.422.031.113.024.222.063.328.125a.8.8 0 0 1 .234.25.751.751 0 0 1 .094.391c0 .219-.059.398-.172.531a.913.913 0 0 1-.437.328zm-.844-2.094a.598.598 0 0 0-.047-.234.412.412 0 0 0-.14-.156.446.446 0 0 0-.188-.079c-.074-.007-.168-.019-.282-.03H.688v1.109h.344c.102 0 .203-.008.297-.032a.459.459 0 0 0 .219-.125.38.38 0 0 0 .125-.187.66.66 0 0 0 .047-.266zm0 0"/></symbol><symbol overflow="visible" id="ak"><path d="M2.063-.953c0 .156-.028.297-.079.422-.054.125-.12.23-.203.312a.723.723 0 0 1-.297.203.78.78 0 0 1-.343.079C1.004.063.883.038.78 0a.891.891 0 0 1-.297-.203A1.194 1.194 0 0 1 .25-.625a2.253 2.253 0 0 1-.078-.656c0-.25.023-.477.078-.688.05-.207.129-.383.234-.531.102-.145.239-.258.407-.344.164-.082.359-.125.578-.125h.187c.063.012.114.024.157.031v.376h-.016a.676.676 0 0 0-.156-.047.87.87 0 0 0-.22-.032.784.784 0 0 0-.593.25c-.148.168-.234.414-.265.735.093-.063.19-.114.296-.157a.973.973 0 0 1 .313-.046c.113 0 .21.011.297.03a.792.792 0 0 1 .515.438c.051.125.079.274.079.438zm-.407.015a.861.861 0 0 0-.047-.296.5.5 0 0 0-.14-.204.735.735 0 0 0-.172-.093c-.074-.008-.14-.016-.203-.016a.745.745 0 0 0-.266.047 1.272 1.272 0 0 0-.265.125v.172c0 .21.019.375.062.5.04.125.086.219.14.281.051.063.11.106.172.125a.326.326 0 0 0 .204.031c.156 0 .28-.05.375-.156.093-.113.14-.285.14-.516zm0 0"/></symbol><symbol overflow="visible" id="al"><path d="M1.11.047a1.449 1.449 0 0 1-.532-.063 2.058 2.058 0 0 1-.422-.156v-.484h.016c.133.117.281.21.437.281.164.063.32.094.47.094.218 0 .378-.047.484-.14a.4.4 0 0 0 .171-.345.489.489 0 0 0-.093-.296.604.604 0 0 0-.266-.157c-.094-.02-.18-.039-.25-.062a5.878 5.878 0 0 0-.281-.063 1.134 1.134 0 0 1-.266-.11.743.743 0 0 1-.219-.155.588.588 0 0 1-.14-.235.83.83 0 0 1-.047-.297c0-.226.094-.425.281-.593.176-.157.41-.235.703-.235.157 0 .313.016.469.047.145.031.281.078.406.14v.47H2a1.788 1.788 0 0 0-.36-.235 1.148 1.148 0 0 0-.452-.094c-.188 0-.336.043-.438.125a.4.4 0 0 0-.172.344c0 .125.031.227.094.297a.518.518 0 0 0 .281.156c.082.024.188.047.313.078.113.024.21.047.296.079.196.062.344.152.438.265a.76.76 0 0 1 .14.469.725.725 0 0 1-.078.328.661.661 0 0 1-.187.281.83.83 0 0 1-.313.203c-.125.04-.277.063-.453.063zm0 0"/></symbol><symbol overflow="visible" id="am"><path d="M.984 0v-2.578H0v-.344h2.344v.344h-.985V0zm0 0"/></symbol><symbol overflow="visible" id="an"><path d="M2.719.719C2.645.727 2.57.739 2.5.75c-.086.008-.164.016-.234.016-.22 0-.399-.063-.532-.188-.136-.117-.21-.289-.218-.515h-.094c-.2 0-.375-.04-.531-.11a.87.87 0 0 1-.407-.297A1.247 1.247 0 0 1 .22-.813a2.01 2.01 0 0 1-.094-.64c0-.25.031-.469.094-.656.062-.188.148-.344.265-.47a.897.897 0 0 1 .407-.296c.156-.07.332-.11.53-.11.196 0 .376.04.532.11.156.074.29.172.406.297.114.125.204.281.266.469.05.187.082.406.094.656-.012.375-.09.683-.235.922-.148.25-.343.418-.593.5 0 .082.007.148.03.203A.34.34 0 0 0 2 .312c.031.04.07.07.125.094a1.3 1.3 0 0 0 .203.016c.05.008.113.004.188-.016.07-.023.125-.039.156-.047h.047zm-.406-2.172c0-.195-.024-.367-.063-.516a1.015 1.015 0 0 0-.453-.61 1.18 1.18 0 0 0-.75 0 .885.885 0 0 0-.281.235c-.075.106-.133.23-.172.375a1.943 1.943 0 0 0-.063.516c0 .375.082.668.25.875.156.21.367.312.64.312.27 0 .485-.101.641-.312.165-.207.25-.5.25-.875zm0 0"/></symbol><symbol overflow="visible" id="aq"><path d="M2.406-2.922L1.406 0H.984l-1-2.922h.422L1.203-.5l.813-2.422zm0 0"/></symbol><symbol overflow="visible" id="ar"><path d="M1.281-1.094H.171v-.36h1.11zm0 0"/></symbol><symbol overflow="visible" id="as"><path d="M2.61-1.125h-.985v1h-.328v-1H.313v-.313h.984v-.984h.328v.985h.984zm0 0"/></symbol><symbol overflow="visible" id="g"><path d="M0-2.016v1.797h-.406l-.36-.36a5.702 5.702 0 0 0-.343-.343 4.127 4.127 0 0 0-.594-.453 1.247 1.247 0 0 0-.453-.125.487.487 0 0 0-.219.047.602.602 0 0 0-.156.11.629.629 0 0 0-.11.344c0 .073.012.147.032.218.011.074.03.14.062.203.024.055.047.105.078.156.031.055.059.094.078.125v.016h-.406c-.039-.07-.082-.18-.125-.328a1.623 1.623 0 0 1-.062-.422c0-.258.074-.469.218-.625.149-.157.344-.235.594-.235.117 0 .219.012.313.032.093.03.183.07.265.109.086.055.168.117.25.188.086.062.168.132.25.203.137.125.278.265.422.421.149.149.262.266.344.36v-1.438zm0 0"/></symbol><symbol overflow="visible" id="h"><path d="M-.922-1.984c.137 0 .266.023.39.062.118.055.22.121.313.203a.757.757 0 0 1 .203.297c.051.125.079.262.079.406 0 .149-.016.29-.047.422-.032.137-.07.25-.125.344h-.407v-.016c.024-.03.047-.078.079-.14.023-.051.046-.114.078-.188.023-.07.043-.14.062-.203.012-.062.016-.133.016-.219a.693.693 0 0 0-.047-.234.389.389 0 0 0-.125-.188.604.604 0 0 0-.203-.109 1.075 1.075 0 0 0-.281-.031.868.868 0 0 0-.25.031.491.491 0 0 0-.157.125.644.644 0 0 0-.11.203c-.019.086-.03.18-.03.282 0 .105.007.21.015.312.024.117.04.203.047.266h-1.5v-1.61h.344v1.235h.781c-.008-.051-.016-.098-.016-.141V-1c0-.156.012-.285.032-.39.031-.094.078-.192.14-.298a.782.782 0 0 1 .282-.218c.117-.051.261-.078.437-.078zm0 0"/></symbol><symbol overflow="visible" id="i"><path d="M-1.453-2.031c.523 0 .902.078 1.14.234.25.149.376.383.376.703 0 .324-.126.559-.376.703-.25.157-.628.235-1.14.235-.531 0-.914-.078-1.156-.235-.25-.156-.375-.39-.375-.703 0-.32.132-.554.39-.703.25-.156.633-.234 1.14-.234zm.875.5a2.32 2.32 0 0 0-.36-.078 9.314 9.314 0 0 0-1.046 0 2.427 2.427 0 0 0-.36.078.573.573 0 0 0-.234.172.414.414 0 0 0-.078.265c0 .106.027.196.078.266a.512.512 0 0 0 .234.172c.094.031.219.058.375.078.157.012.328.015.516.015.2 0 .371-.003.516-.015.136-.008.257-.035.359-.078a.474.474 0 0 0 .234-.172c.055-.063.078-.149.078-.266a.436.436 0 0 0-.078-.265.525.525 0 0 0-.234-.172zm0 0"/></symbol><symbol overflow="visible" id="j"><path d="M0-2.078v.484l-1.063.813.141.14H0v.375h-3.047V-.64h1.781l-.921-.859v-.453l.906.89zm0 0"/></symbol><symbol overflow="visible" id="ai"><path d="M0-2.563v.516l-1.156.922v.438H0v.39h-2.922v-.75c0-.164.012-.305.031-.422.024-.113.063-.222.125-.328a.8.8 0 0 1 .25-.234.751.751 0 0 1 .391-.094c.219 0 .398.059.531.172.149.105.258.25.328.437zm-2.094.844a.598.598 0 0 0-.234.047.412.412 0 0 0-.156.14.446.446 0 0 0-.079.188c-.007.074-.019.168-.03.282v.375h1.109v-.344c0-.102-.008-.203-.032-.297a.459.459 0 0 0-.125-.219.38.38 0 0 0-.187-.125.66.66 0 0 0-.266-.047zm0 0"/></symbol><symbol overflow="visible" id="n"><path d="M3.39-4.094L1.985 0h-.593L-.016-4.094h.579l1.14 3.39 1.125-3.39zm0 0"/></symbol><symbol overflow="visible" id="o"><path d="M2.016.078c-.274 0-.516-.047-.735-.14A1.315 1.315 0 0 1 .703-.47a1.823 1.823 0 0 1-.39-.656 2.536 2.536 0 0 1-.126-.922c0-.344.04-.64.126-.89.082-.258.207-.485.374-.672a1.56 1.56 0 0 1 .594-.422c.219-.094.469-.14.75-.14.133 0 .266.01.39.03.114.024.224.047.329.079.082.023.172.054.266.093.093.043.187.09.28.14v.657H3.25a2.466 2.466 0 0 1-.188-.156 2.232 2.232 0 0 0-.265-.188 3.144 3.144 0 0 0-.344-.14 1.832 1.832 0 0 0-.437-.047c-.168 0-.329.031-.485.094a1.086 1.086 0 0 0-.422.328 1.4 1.4 0 0 0-.265.515c-.063.22-.094.461-.094.72 0 .28.031.523.094.718.07.21.164.383.281.516.113.136.25.242.406.312.157.074.317.11.485.11.156 0 .3-.02.437-.063.133-.04.254-.086.36-.14.101-.063.19-.126.265-.188.07-.051.129-.098.172-.14h.047v.64c-.094.043-.18.086-.25.125a1.631 1.631 0 0 1-.297.11c-.125.042-.234.07-.328.093-.106.02-.242.031-.406.031zm0 0"/></symbol><symbol overflow="visible" id="A"><path d="M1.344.063c-.262 0-.48-.028-.657-.079a2.353 2.353 0 0 1-.5-.203v-.578H.22c.156.149.332.258.531.328.188.086.375.125.563.125.257 0 .453-.05.578-.156a.55.55 0 0 0 .203-.438A.612.612 0 0 0 2-1.28a.701.701 0 0 0-.344-.188c-.105-.031-.203-.054-.297-.078-.093-.02-.21-.05-.343-.094a2.485 2.485 0 0 1-.329-.109.83.83 0 0 1-.25-.203.695.695 0 0 1-.171-.266.966.966 0 0 1-.063-.375c0-.281.113-.52.344-.719.219-.187.5-.28.844-.28.195 0 .382.023.562.062.176.043.344.094.5.156v.563h-.047a1.875 1.875 0 0 0-.422-.266c-.18-.07-.367-.11-.562-.11-.219 0-.39.047-.516.141a.437.437 0 0 0-.203.406c0 .157.035.278.11.36a.67.67 0 0 0 .343.203c.102.023.227.047.375.078.133.043.254.078.36.11.238.074.414.183.53.327.102.157.161.344.173.563a1.495 1.495 0 0 1-.094.406.928.928 0 0 1-.234.344 1.146 1.146 0 0 1-.391.234c-.148.051-.324.079-.531.079zm0 0"/></symbol><symbol overflow="visible" id="B"><path d="M2.688.719h-2.72V.406h2.72zm0 0"/></symbol><symbol overflow="visible" id="C"><path d="M-.031 0l1.203-3.531h.578L2.938 0h-.5l-.313-.984H.765L.454 0zm2.015-1.39l-.546-1.657L.905-1.39zm0 0"/></symbol><symbol overflow="visible" id="D"><path d="M3.14-1.766c0 .325-.062.618-.187.875a1.594 1.594 0 0 1-.531.61c-.18.117-.36.187-.547.219-.18.042-.414.062-.703.062H.359v-3.531h.797c.332 0 .598.027.797.078.176.043.332.11.469.203.226.148.406.344.531.594s.188.547.188.89zm-.484 0c0-.27-.047-.504-.14-.703a1.068 1.068 0 0 0-.391-.453 1.806 1.806 0 0 0-.406-.156 2.604 2.604 0 0 0-.532-.047H.829v2.719h.36c.207 0 .39-.016.546-.047a1.03 1.03 0 0 0 .422-.188.982.982 0 0 0 .375-.437c.082-.188.125-.414.125-.688zm0 0"/></symbol><symbol overflow="visible" id="E"><path d="M1.688-.922c0 .313-.094.555-.282.719-.187.168-.445.25-.765.25C.566.047.469.039.344.03a3.002 3.002 0 0 1-.328-.047v-.453h.03c.063.024.145.047.25.078.095.024.188.032.282.032.145 0 .266-.016.36-.047a.387.387 0 0 0 .187-.14.572.572 0 0 0 .078-.235c.008-.082.016-.188.016-.313v-2.062h-.75v-.375h1.219zm0 0"/></symbol><symbol overflow="visible" id="F"><path d="M2.266 0H.53v-.36h.64v-2.374h-.64v-.313c.239 0 .422-.035.547-.11.113-.062.176-.19.188-.39h.359v3.188h.64zm0 0"/></symbol><symbol overflow="visible" id="G"><path d="M1.594 0H.219v-.36h.453v-2.812H.219v-.36h1.375v.36H1.14v2.813h.453zm0 0"/></symbol><symbol overflow="visible" id="H"><path d="M2.89 0h-.53L.796-3.047V0H.359v-3.531h.672L2.453-.734v-2.797h.438zm0 0"/></symbol><symbol overflow="visible" id="I"><path d="M.36 0v-3.531h2.203v.422H.827v.968h1.625v.407H.828v1.312h1.735V0zm0 0"/></symbol><symbol overflow="visible" id="J"><path d="M2.438 0H.265v-.5C.41-.645.555-.785.703-.922c.133-.133.27-.273.406-.422.27-.3.454-.539.547-.718.102-.176.157-.36.157-.547a.76.76 0 0 0-.047-.266.478.478 0 0 0-.125-.172.644.644 0 0 0-.204-.11.598.598 0 0 0-.234-.046c-.086 0-.168.012-.25.031-.094.031-.18.063-.25.094a.877.877 0 0 0-.203.094.87.87 0 0 1-.14.093H.327v-.5c.102-.05.242-.097.422-.14a1.65 1.65 0 0 1 .484-.078c.332 0 .594.09.782.265a.93.93 0 0 1 .28.703c0 .149-.015.278-.046.391-.043.117-.09.227-.14.328a2.003 2.003 0 0 1-.22.297c-.085.105-.167.203-.25.297-.156.168-.324.34-.5.516-.187.167-.335.304-.437.406h1.735zm0 0"/></symbol><symbol overflow="visible" id="K"><path d="M1.188 0v-3.11H0v-.421h2.844v.422H1.656V0zm0 0"/></symbol><symbol overflow="visible" id="L"><path d="M3.094 0h-.61L1.36-1.406H.83V0h-.47v-3.531h.907c.207 0 .379.011.515.031a1.04 1.04 0 0 1 .688.453c.062.137.094.293.094.469 0 .262-.063.48-.188.656-.137.18-.313.309-.531.39zM2.078-2.531a.817.817 0 0 0-.047-.281.62.62 0 0 0-.172-.204 1.223 1.223 0 0 0-.234-.093 3.854 3.854 0 0 0-.328-.016H.828v1.328h.406c.133 0 .258-.008.375-.031a.631.631 0 0 0 .266-.156.54.54 0 0 0 .156-.235.973.973 0 0 0 .047-.312zm0 0"/></symbol><symbol overflow="visible" id="M"><path d="M1.844.063a2.03 2.03 0 0 1-.688-.11C.946-.117.766-.234.61-.39a1.427 1.427 0 0 1-.328-.578 2.246 2.246 0 0 1-.125-.797c0-.289.04-.546.125-.765.07-.227.188-.422.344-.578.133-.157.313-.274.531-.36.207-.082.438-.125.688-.125.113 0 .226.008.343.016.102.023.208.047.313.078.07.023.16.055.266.094.093.043.171.078.234.11v.577h-.047a1.67 1.67 0 0 1-.172-.156 4.959 4.959 0 0 1-.265-.156 2.301 2.301 0 0 0-.329-.11 1.68 1.68 0 0 0-.406-.046c-.336 0-.605.124-.812.374C.75-2.55.64-2.207.64-1.78c0 .242.03.449.093.625.051.18.13.324.235.437a.992.992 0 0 0 .36.281c.144.063.304.094.484.094.132 0 .269-.004.406-.015.125-.02.234-.051.328-.094v-.906h-.813v-.422h1.282v1.547a1.717 1.717 0 0 1-.25.093c-.106.043-.2.078-.282.11-.117.031-.218.054-.312.078a3.854 3.854 0 0 1-.328.015zm0 0"/></symbol><symbol overflow="visible" id="N"><path d="M2.406 0H.36v-3.531h.47v3.11h1.577zm0 0"/></symbol><symbol overflow="visible" id="O"><path d="M1.219-3.203c-.094 0-.184.012-.266.031-.086.031-.168.063-.25.094-.074.031-.14.062-.203.094a1.097 1.097 0 0 0-.14.093H.327v-.5c.102-.05.242-.101.422-.156.176-.039.344-.062.5-.062.156 0 .297.015.422.046.113.032.223.086.328.157a.92.92 0 0 1 .234.281c.051.105.079.23.079.375 0 .188-.07.355-.204.5a.737.737 0 0 1-.453.281v.047c.07.012.149.031.235.063.082.043.16.093.234.156.07.074.133.164.188.266.039.105.062.234.062.39s-.027.305-.078.438a1.06 1.06 0 0 1-.235.359.984.984 0 0 1-.374.234 1.23 1.23 0 0 1-.485.094C1.016.078.836.055.672.016a1.616 1.616 0 0 1-.438-.157v-.5h.032c.093.075.226.141.406.204.156.062.32.093.5.093a.885.885 0 0 0 .281-.047.423.423 0 0 0 .25-.14.721.721 0 0 0 .14-.235.893.893 0 0 0 .048-.312.908.908 0 0 0-.047-.313.686.686 0 0 0-.157-.203 1.223 1.223 0 0 0-.234-.093 1.471 1.471 0 0 0-.297-.032H.953v-.39h.156c.207 0 .38-.051.516-.157a.524.524 0 0 0 .203-.437.598.598 0 0 0-.047-.235.783.783 0 0 0-.14-.156 1.565 1.565 0 0 0-.204-.078.87.87 0 0 0-.218-.031zm0 0"/></symbol><symbol overflow="visible" id="P"><path d="M2.531-1.219H2.11V0h-.453v-1.219H.094v-.5L1.672-3.53h.437v1.937h.422zm-.875-.375v-1.375L.47-1.594zm0 0"/></symbol><symbol overflow="visible" id="Q"><path d="M2.406-1.125c0 .18-.031.336-.094.469a1.313 1.313 0 0 1-.218.39 1.19 1.19 0 0 1-.875.344C1.05.078.883.055.719.016a1.406 1.406 0 0 1-.422-.141v-.5h.031c.031.023.082.055.156.094A2.037 2.037 0 0 0 .97-.36c.07.011.16.015.265.015A.45.45 0 0 0 1.5-.39a.508.508 0 0 0 .234-.156.715.715 0 0 0 .141-.25c.031-.094.047-.203.047-.328a.908.908 0 0 0-.047-.313.686.686 0 0 0-.156-.203.998.998 0 0 0-.25-.125 1.798 1.798 0 0 0-.328-.03c-.137 0-.266.01-.391.03-.137.024-.242.04-.313.047V-3.53h1.938v.406H.891v.953c.062-.008.117-.015.171-.015a.73.73 0 0 0 .157-.016 1.9 1.9 0 0 1 .453.047.937.937 0 0 1 .36.187c.113.086.206.196.28.328.063.137.094.309.094.516zm0 0"/></symbol><symbol overflow="visible" id="U"><path d="M2.469-3.11H.829v.985h1.577v.422H.828V0H.36v-3.531h2.11zm0 0"/></symbol><symbol overflow="visible" id="V"><path d="M3.39 0h-.468v-3.047L2-.969h-.297L.797-3.047V0H.359v-3.531H1l.875 1.969.86-1.97h.656zm0 0"/></symbol><symbol overflow="visible" id="W"><path d="M2.75-1.078c0 .168-.031.32-.094.453a1.32 1.32 0 0 1-.265.344c-.137.105-.282.18-.438.219-.148.042-.34.062-.578.062H.359v-3.531h.938c.25 0 .437.008.562.015.125.024.243.063.36.125a.804.804 0 0 1 .281.266.813.813 0 0 1 .094.39.706.706 0 0 1-.14.438.803.803 0 0 1-.36.313v.015a.962.962 0 0 1 .484.313.965.965 0 0 1 .172.578zm-.656-1.594a.738.738 0 0 0-.031-.219.412.412 0 0 0-.141-.156.92.92 0 0 0-.25-.078H.828v1.031h.531c.145 0 .254-.008.329-.031a.555.555 0 0 0 .375-.266c.019-.07.03-.164.03-.28zm.172 1.61a.792.792 0 0 0-.063-.329c-.031-.082-.105-.156-.219-.218a.722.722 0 0 0-.25-.079 4.146 4.146 0 0 0-.375-.015H.83v1.297h.374c.207 0 .375-.004.5-.016a.81.81 0 0 0 .313-.125.624.624 0 0 0 .187-.219.622.622 0 0 0 .063-.296zm0 0"/></symbol><symbol overflow="visible" id="X"><path d="M2.484-3L.954 0H.437l1.625-3.125H.234v-.406h2.25zm0 0"/></symbol><symbol overflow="visible" id="Y"><path d="M4.328-3.531L3.438 0h-.532l-.719-2.938L1.485 0H.97L.063-3.531h.484L1.25-.594l.719-2.937h.468l.72 2.969.702-2.97zm0 0"/></symbol><symbol overflow="visible" id="Z"><path d="M2.594-2.469c0 .156-.028.305-.078.438a1.162 1.162 0 0 1-.672.625c-.157.062-.36.093-.61.093H.828V0H.36v-3.531h.891c.207 0 .383.015.531.047.145.043.274.101.39.171.126.094.227.211.313.344.07.137.11.305.11.5zm-.5.016a.847.847 0 0 0-.063-.328A.66.66 0 0 0 1.844-3a1.109 1.109 0 0 0-.25-.094 2.071 2.071 0 0 0-.375-.031h-.39v1.406h.312c.195 0 .351-.015.468-.047a.749.749 0 0 0 .297-.156.721.721 0 0 0 .14-.234.83.83 0 0 0 .048-.297zm0 0"/></symbol><symbol overflow="visible" id="aa"><path d="M1.922-2.703a.6.6 0 0 0-.156-.406.604.604 0 0 0-.438-.157c-.18 0-.32.047-.422.141a.473.473 0 0 0-.172.39c0 .118.032.215.094.297.05.086.133.157.25.22.04.023.113.058.219.109.094.054.187.09.281.109a.756.756 0 0 0 .266-.328.832.832 0 0 0 .078-.375zm.062 1.765a.668.668 0 0 0-.078-.343c-.062-.094-.172-.18-.328-.266a1.214 1.214 0 0 0-.219-.094l-.296-.125a.886.886 0 0 0-.313.313 1.036 1.036 0 0 0-.094.437c0 .22.063.399.188.532a.626.626 0 0 0 .484.218.66.66 0 0 0 .484-.187c.114-.113.172-.274.172-.484zM1.328.079C1.148.078.988.051.844 0a.916.916 0 0 1-.36-.219.844.844 0 0 1-.234-.344.992.992 0 0 1-.078-.406c0-.195.05-.375.156-.531.102-.156.254-.285.453-.39v-.016a1.01 1.01 0 0 1-.39-.328C.305-2.348.266-2.5.266-2.688a.85.85 0 0 1 .296-.656c.196-.176.454-.265.766-.265.32 0 .578.086.766.25a.813.813 0 0 1 .297.64.845.845 0 0 1-.141.469c-.094.156-.23.281-.406.375a1.4 1.4 0 0 1 .468.36.804.804 0 0 1 .172.53c0 .305-.109.56-.328.766-.23.2-.508.297-.828.297zm0 0"/></symbol><symbol overflow="visible" id="ab"><path d="M3.297.86c-.094.019-.184.035-.266.046-.105.02-.199.031-.281.031-.273 0-.492-.078-.656-.234-.168-.148-.258-.355-.266-.625H1.72c-.242 0-.453-.043-.64-.125a1.295 1.295 0 0 1-.5-.36 1.552 1.552 0 0 1-.313-.577 2.517 2.517 0 0 1-.11-.782c0-.289.035-.55.11-.78.07-.227.175-.423.312-.579.133-.156.3-.273.5-.36.188-.081.399-.124.64-.124.239 0 .458.043.657.125.188.086.348.203.484.359.133.156.239.352.313.578.07.23.11.492.11.781 0 .461-.09.836-.266 1.125-.18.305-.422.508-.735.61a.885.885 0 0 0 .047.234c.02.07.05.129.094.172.039.05.094.086.156.11.05.019.133.03.25.03.063 0 .133-.011.219-.03a.72.72 0 0 0 .187-.047h.063zm-.5-2.626c0-.226-.027-.437-.078-.625a1.312 1.312 0 0 0-.219-.437.93.93 0 0 0-.328-.281 1.081 1.081 0 0 0-.453-.094.963.963 0 0 0-.438.094.884.884 0 0 0-.343.28 1.226 1.226 0 0 0-.22.454c-.054.18-.077.383-.077.61 0 .468.097.824.296 1.062.196.25.458.375.782.375.332 0 .593-.125.781-.375.195-.238.297-.594.297-1.063zm0 0"/></symbol><symbol overflow="visible" id="ac"><path d="M1.594.078c-.211 0-.39-.031-.547-.094a.935.935 0 0 1-.39-.234A1.034 1.034 0 0 1 .39-.688a2.193 2.193 0 0 1-.079-.64v-2.203h.47v2.203c0 .168.007.305.03.406.02.117.063.219.125.313a.5.5 0 0 0 .266.203.829.829 0 0 0 .39.078.907.907 0 0 0 .391-.078.516.516 0 0 0 .266-.203.848.848 0 0 0 .125-.313 2.13 2.13 0 0 0 .031-.39v-2.22h.469v2.204c0 .242-.027.45-.078.625-.055.18-.14.328-.266.453a1.417 1.417 0 0 1-.39.25c-.149.05-.329.078-.547.078zm0 0"/></symbol><symbol overflow="visible" id="ad"><path d="M1.969-2.078a2.49 2.49 0 0 0-.063-.594.828.828 0 0 0-.187-.344.618.618 0 0 0-.203-.156.598.598 0 0 0-.235-.047c-.199 0-.355.07-.468.203-.118.149-.172.352-.172.61 0 .156.02.281.062.375.031.094.086.18.172.25a.37.37 0 0 0 .219.093.74.74 0 0 0 .234.032c.102 0 .211-.02.328-.063.114-.031.219-.078.313-.14v-.094-.125zM.156-2.391c0-.175.032-.343.094-.5.063-.144.14-.27.234-.375.102-.101.227-.187.375-.25a.979.979 0 0 1 .422-.093c.164 0 .313.027.438.078a1.173 1.173 0 0 1 .625.75c.07.219.11.484.11.797 0 .293-.032.574-.095.843a1.914 1.914 0 0 1-.296.641 1.34 1.34 0 0 1-.485.422 1.47 1.47 0 0 1-.719.14H.672A1.414 1.414 0 0 1 .469.017v-.454h.015c.04.024.102.043.188.063a.971.971 0 0 0 .265.031c.301 0 .54-.097.72-.297.175-.207.28-.5.312-.875a2.15 2.15 0 0 1-.36.188.887.887 0 0 1-.375.047 1.64 1.64 0 0 1-.359-.032.831.831 0 0 1-.328-.171.804.804 0 0 1-.297-.36 1.457 1.457 0 0 1-.094-.547zm0 0"/></symbol><symbol overflow="visible" id="ae"><path d="M1.734.063c-.23 0-.437-.04-.625-.11a1.446 1.446 0 0 1-.515-.36 1.574 1.574 0 0 1-.328-.562 2.568 2.568 0 0 1-.11-.797c0-.289.035-.546.11-.765.07-.219.18-.41.328-.578.144-.157.312-.274.5-.36a1.68 1.68 0 0 1 .656-.125 4.4 4.4 0 0 1 .328.016c.102.023.203.047.297.078.07.023.148.047.234.078.07.043.149.086.235.125v.563h-.047a1.428 1.428 0 0 1-.156-.141 1.87 1.87 0 0 0-.235-.156l-.297-.125a3.76 3.76 0 0 0-.375-.047.979.979 0 0 0-.421.094.884.884 0 0 0-.344.28 1.219 1.219 0 0 0-.235.454c-.062.18-.093.383-.093.61 0 .25.03.46.093.624.051.18.13.329.235.454.101.117.219.199.344.25a.979.979 0 0 0 .421.093c.133 0 .266-.015.391-.047.113-.03.21-.07.297-.125.094-.05.172-.101.234-.156.063-.05.11-.094.14-.125h.048v.563a2.037 2.037 0 0 0-.219.093 1.339 1.339 0 0 1-.25.11C2.27 0 2.172.019 2.078.03c-.086.02-.2.032-.344.032zm0 0"/></symbol><symbol overflow="visible" id="af"><path d="M2.453-1.766c0 .637-.09 1.102-.265 1.391C2-.07 1.71.078 1.328.078.941.078.656-.07.468-.375c-.187-.3-.277-.766-.265-1.39 0-.633.086-1.098.266-1.391.187-.301.472-.453.86-.453.382 0 .671.156.859.468.175.305.265.762.265 1.375zm-.61 1.079c.052-.114.087-.266.11-.454a13.673 13.673 0 0 0 0-1.265 1.66 1.66 0 0 0-.11-.438.713.713 0 0 0-.187-.281.544.544 0 0 0-.328-.094.528.528 0 0 0-.328.094.79.79 0 0 0-.203.281 2.142 2.142 0 0 0-.094.453 5.142 5.142 0 0 0-.031.625c0 .25.008.461.031.625.008.168.04.313.094.438A.51.51 0 0 0 1-.422a.47.47 0 0 0 .328.11.578.578 0 0 0 .328-.094.577.577 0 0 0 .188-.281zm0 0"/></symbol><symbol overflow="visible" id="R"><path d="M-3.531-2.922L0-1.703v.5L-3.531.016v-.5l2.937-.985-2.937-.968zm0 0"/></symbol><symbol overflow="visible" id="S"><path d="M-1.36-3.156v1.187h1.204v.39H-1.36v1.204h-.375v-1.203h-1.204v-.39h1.204v-1.188zm0 0"/></symbol><symbol overflow="visible" id="T"><path d="M-1.14-2.5c.18.012.343.043.5.094.156.062.28.148.374.25.118.105.2.219.25.344.063.136.094.28.094.437 0 .168-.027.313-.078.438a.777.777 0 0 1-.25.343 1.166 1.166 0 0 1-.516.281c-.207.075-.468.11-.78.11-.313 0-.595-.031-.845-.094a1.89 1.89 0 0 1-.64-.297 1.37 1.37 0 0 1-.422-.484 1.687 1.687 0 0 1-.14-.703V-2c.011-.07.027-.133.046-.188h.453v.016a1.178 1.178 0 0 0-.094.453c0 .293.102.528.297.703.2.188.493.297.875.329a1.883 1.883 0 0 1-.171-.344 1.298 1.298 0 0 1-.063-.39c0-.134.012-.255.031-.36.031-.102.09-.211.172-.328.106-.125.23-.223.375-.297A1.36 1.36 0 0 1-1.14-2.5zm.015.484c-.145 0-.27.024-.375.063a.765.765 0 0 0-.25.187.959.959 0 0 0-.094.204.874.874 0 0 0 .031.563c.032.104.079.21.141.312h.094a.476.476 0 0 0 .125.015c.25 0 .45-.023.594-.078a.827.827 0 0 0 .343-.188.538.538 0 0 0 .204-.437.607.607 0 0 0-.204-.469c-.132-.113-.336-.172-.609-.172zm0 0"/></symbol><symbol overflow="visible" id="ag"><path d="M-1.328-1.547v1.328h-.438v-1.328zm0 0"/></symbol><symbol overflow="visible" id="ah"><path d="M0-2.266V-.53h-.36v-.64h-2.374v.64h-.313c0-.239-.035-.422-.11-.547-.062-.113-.19-.176-.39-.188v-.359h3.188v-.64zm0 0"/></symbol><symbol overflow="visible" id="ao"><path d="M-2.047-3.656c.375 0 .715.078 1.016.234a1.8 1.8 0 0 1 .968 1.235c.043.218.063.496.063.828v.937h-4.094v-.922c0-.383.028-.691.078-.922.063-.207.141-.39.235-.546.18-.27.414-.477.703-.626a2.305 2.305 0 0 1 1.031-.218zm0 .578c-.32 0-.594.055-.812.156a1.194 1.194 0 0 0-.532.469A2.058 2.058 0 0 0-3.578-2a3.486 3.486 0 0 0-.047.625v.406h3.156v-.406c0-.238-.02-.453-.062-.64a1.29 1.29 0 0 0-.203-.5 1.235 1.235 0 0 0-.516-.422 2.02 2.02 0 0 0-.797-.141zm0 0"/></symbol><symbol overflow="visible" id="ap"><path d="M0-2.625v2h-.422v-.734h-2.75v.734h-.375c0-.281-.035-.488-.11-.625-.081-.125-.234-.195-.452-.219v-.422h3.687v-.734zm0 0"/></symbol></defs><use xlink:href="#a" x="355.701" y="332.188" fill="#505050"/><use xlink:href="#b" x="357.201" y="332.188" fill="#505050"/><use xlink:href="#c" x="359.601" y="332.188" fill="#505050"/><use xlink:href="#d" x="361.581" y="332.188" fill="#505050"/><use xlink:href="#e" x="363.801" y="332.188" fill="#505050"/><use xlink:href="#f" x="366.021" y="332.188" fill="#505050"/><use xlink:href="#d" x="368.241" y="332.188" fill="#505050"/><use xlink:href="#g" x="321.158" y="281.824" fill="#505050"/><use xlink:href="#h" x="321.158" y="279.604" fill="#505050"/><use xlink:href="#i" x="321.158" y="277.384" fill="#505050"/><use xlink:href="#j" x="321.158" y="275.164" fill="#505050"/><use xlink:href="#k" x="461.851" y="298.172" fill="#505050"/><use xlink:href="#e" x="464.071" y="298.172" fill="#505050"/><use xlink:href="#l" x="466.291" y="298.172" fill="#505050"/><use xlink:href="#k" x="461.851" y="280.905" fill="#505050"/><use xlink:href="#e" x="464.071" y="280.905" fill="#505050"/><use xlink:href="#l" x="466.291" y="280.905" fill="#505050"/><use xlink:href="#f" x="287.437" y="269.739" fill="#505050"/><use xlink:href="#f" x="289.657" y="269.739" fill="#505050"/><use xlink:href="#e" x="291.877" y="269.739" fill="#505050"/><use xlink:href="#k" x="362.896" y="349.973" fill="#505050"/><use xlink:href="#e" x="365.116" y="349.973" fill="#505050"/><use xlink:href="#e" x="367.336" y="349.973" fill="#505050"/><use xlink:href="#l" x="369.556" y="349.973" fill="#505050"/><use xlink:href="#m" x="460.771" y="315.439" fill="#505050"/><use xlink:href="#m" x="462.991" y="315.439" fill="#505050"/><use xlink:href="#e" x="465.211" y="315.439" fill="#505050"/><use xlink:href="#l" x="467.431" y="315.439" fill="#505050"/><use xlink:href="#k" x="513.668" y="315.439" fill="#505050"/><use xlink:href="#e" x="515.888" y="315.439" fill="#505050"/><use xlink:href="#l" x="518.108" y="315.439" fill="#505050"/><use xlink:href="#n" x="293.087" y="231.462" fill="#505050"/><use xlink:href="#o" x="296.448" y="231.462" fill="#505050"/><use xlink:href="#o" x="299.808" y="231.462" fill="#505050"/><use xlink:href="#p" x="328.652" y="367.873" fill="#505050"/><use xlink:href="#q" x="331.352" y="367.873" fill="#505050"/><use xlink:href="#r" x="334.052" y="367.873" fill="#505050"/><use xlink:href="#p" x="386.226" y="367.873" fill="#505050"/><use xlink:href="#q" x="388.926" y="367.873" fill="#505050"/><use xlink:href="#r" x="391.626" y="367.873" fill="#505050"/><use xlink:href="#m" x="317.53" y="344.563" fill="#505050"/><use xlink:href="#s" x="319.75" y="344.563" fill="#505050"/><use xlink:href="#m" x="320.95" y="344.563" fill="#505050"/><use xlink:href="#t" x="323.17" y="344.563" fill="#505050"/><use xlink:href="#u" x="325.39" y="344.563" fill="#505050"/><use xlink:href="#v" x="554.907" y="303.408" fill="#505050"/><use xlink:href="#b" x="557.247" y="303.408" fill="#505050"/><use xlink:href="#w" x="559.647" y="303.408" fill="#505050"/><use xlink:href="#x" x="561.867" y="303.408" fill="#505050"/><use xlink:href="#y" x="564.087" y="303.408" fill="#505050"/><use xlink:href="#b" x="566.307" y="303.408" fill="#505050"/><use xlink:href="#v" x="568.707" y="303.408" fill="#505050"/><use xlink:href="#z" x="571.047" y="303.408" fill="#505050"/><use xlink:href="#x" x="540.763" y="287.006" fill="#505050"/><use xlink:href="#y" x="542.983" y="287.006" fill="#505050"/><use xlink:href="#e" x="545.203" y="287.006" fill="#505050"/><use xlink:href="#p" x="547.433" y="367.873" fill="#505050"/><use xlink:href="#q" x="550.133" y="367.873" fill="#505050"/><use xlink:href="#r" x="552.833" y="367.873" fill="#505050"/><use xlink:href="#p" x="294.048" y="367.873" fill="#505050"/><use xlink:href="#q" x="296.748" y="367.873" fill="#505050"/><use xlink:href="#r" x="299.448" y="367.873" fill="#505050"/><use xlink:href="#n" x="385.206" y="231.462" fill="#505050"/><use xlink:href="#o" x="388.566" y="231.462" fill="#505050"/><use xlink:href="#o" x="391.926" y="231.462" fill="#505050"/><use xlink:href="#n" x="477.324" y="231.462" fill="#505050"/><use xlink:href="#o" x="480.684" y="231.462" fill="#505050"/><use xlink:href="#o" x="484.044" y="231.462" fill="#505050"/><use xlink:href="#n" x="546.413" y="231.462" fill="#505050"/><use xlink:href="#o" x="549.773" y="231.462" fill="#505050"/><use xlink:href="#o" x="553.133" y="231.462" fill="#505050"/><use xlink:href="#n" x="293.088" y="323.552" fill="#505050"/><use xlink:href="#o" x="296.448" y="323.552" fill="#505050"/><use xlink:href="#o" x="299.808" y="323.552" fill="#505050"/><use xlink:href="#A" x="360.999" y="305.134" fill="#505050"/><use xlink:href="#B" x="363.699" y="305.134" fill="#505050"/><use xlink:href="#C" x="366.338" y="305.134" fill="#505050"/><use xlink:href="#D" x="369.278" y="305.134" fill="#505050"/><use xlink:href="#E" x="372.578" y="305.134" fill="#505050"/><use xlink:href="#F" x="374.619" y="305.134" fill="#505050"/><use xlink:href="#F" x="352.256" y="302.602" fill="#505050"/><use xlink:href="#A" x="409.053" y="316.672" fill="#505050"/><use xlink:href="#G" x="411.753" y="316.672" fill="#505050"/><use xlink:href="#H" x="413.553" y="316.672" fill="#505050"/><use xlink:href="#I" x="416.794" y="316.672" fill="#505050"/><use xlink:href="#J" x="425.596" y="314.113" fill="#505050"/><use xlink:href="#K" x="397.353" y="322.428" fill="#505050"/><use xlink:href="#L" x="400.174" y="322.428" fill="#505050"/><use xlink:href="#G" x="403.174" y="322.428" fill="#505050"/><use xlink:href="#C" x="404.974" y="322.428" fill="#505050"/><use xlink:href="#H" x="407.914" y="322.428" fill="#505050"/><use xlink:href="#M" x="411.153" y="322.428" fill="#505050"/><use xlink:href="#N" x="414.394" y="322.428" fill="#505050"/><use xlink:href="#I" x="416.794" y="322.428" fill="#505050"/><use xlink:href="#O" x="425.596" y="319.869" fill="#505050"/><use xlink:href="#D" x="402.633" y="287.894" fill="#505050"/><use xlink:href="#B" x="405.933" y="287.894" fill="#505050"/><use xlink:href="#C" x="408.574" y="287.894" fill="#505050"/><use xlink:href="#D" x="411.514" y="287.894" fill="#505050"/><use xlink:href="#E" x="414.814" y="287.894" fill="#505050"/><use xlink:href="#F" x="416.853" y="287.894" fill="#505050"/><use xlink:href="#P" x="425.596" y="285.335" fill="#505050"/><use xlink:href="#D" x="402.633" y="293.65" fill="#505050"/><use xlink:href="#B" x="405.933" y="293.65" fill="#505050"/><use xlink:href="#C" x="408.574" y="293.65" fill="#505050"/><use xlink:href="#D" x="411.514" y="293.65" fill="#505050"/><use xlink:href="#E" x="414.814" y="293.65" fill="#505050"/><use xlink:href="#J" x="416.853" y="293.65" fill="#505050"/><use xlink:href="#Q" x="425.596" y="291.09" fill="#505050"/><use xlink:href="#R" x="391.998" y="292.1" fill="#505050"/><use xlink:href="#S" x="391.998" y="289.22" fill="#505050"/><use xlink:href="#T" x="389.439" y="279.579" fill="#505050"/><use xlink:href="#U" x="360.998" y="293.623" fill="#505050"/><use xlink:href="#V" x="363.518" y="293.623" fill="#505050"/><use xlink:href="#B" x="367.238" y="293.623" fill="#505050"/><use xlink:href="#W" x="369.878" y="293.623" fill="#505050"/><use xlink:href="#G" x="372.758" y="293.623" fill="#505050"/><use xlink:href="#C" x="374.558" y="293.623" fill="#505050"/><use xlink:href="#A" x="377.498" y="293.623" fill="#505050"/><use xlink:href="#X" x="352.255" y="291.09" fill="#505050"/><use xlink:href="#A" x="360.998" y="287.867" fill="#505050"/><use xlink:href="#Y" x="363.698" y="287.867" fill="#505050"/><use xlink:href="#I" x="368.078" y="287.867" fill="#505050"/><use xlink:href="#I" x="370.778" y="287.867" fill="#505050"/><use xlink:href="#Z" x="373.478" y="287.867" fill="#505050"/><use xlink:href="#aa" x="352.255" y="285.335" fill="#505050"/><use xlink:href="#A" x="401.553" y="310.916" fill="#505050"/><use xlink:href="#ab" x="404.253" y="310.916" fill="#505050"/><use xlink:href="#ac" x="407.673" y="310.916" fill="#505050"/><use xlink:href="#C" x="410.853" y="310.916" fill="#505050"/><use xlink:href="#L" x="413.793" y="310.916" fill="#505050"/><use xlink:href="#I" x="416.793" y="310.916" fill="#505050"/><use xlink:href="#ad" x="425.596" y="308.357" fill="#505050"/><use xlink:href="#ae" x="360.998" y="322.401" fill="#505050"/><use xlink:href="#C" x="363.938" y="322.401" fill="#505050"/><use xlink:href="#Z" x="366.878" y="322.401" fill="#505050"/><use xlink:href="#F" x="349.615" y="319.869" fill="#505050"/><use xlink:href="#af" x="352.255" y="319.869" fill="#505050"/><use xlink:href="#R" x="391.972" y="321.135" fill="#505050"/><use xlink:href="#ag" x="391.972" y="318.255" fill="#505050"/><use xlink:href="#ah" x="389.439" y="332.516" fill="#505050"/><use xlink:href="#ah" x="389.439" y="329.876" fill="#505050"/><use xlink:href="#A" x="360.998" y="310.89" fill="#505050"/><use xlink:href="#B" x="363.698" y="310.89" fill="#505050"/><use xlink:href="#C" x="366.338" y="310.89" fill="#505050"/><use xlink:href="#D" x="369.278" y="310.89" fill="#505050"/><use xlink:href="#E" x="372.578" y="310.89" fill="#505050"/><use xlink:href="#J" x="374.618" y="310.89" fill="#505050"/><use xlink:href="#F" x="349.615" y="308.358" fill="#505050"/><use xlink:href="#J" x="352.255" y="308.358" fill="#505050"/><use xlink:href="#a" x="355.701" y="277.507" fill="#505050"/><use xlink:href="#b" x="357.201" y="277.507" fill="#505050"/><use xlink:href="#k" x="359.601" y="277.507" fill="#505050"/><use xlink:href="#ai" x="311.369" y="298.651" fill="#505050"/><use xlink:href="#h" x="311.369" y="296.131" fill="#505050"/><use xlink:href="#aj" x="462.751" y="288.501" fill="#505050"/><use xlink:href="#m" x="465.271" y="288.501" fill="#505050"/><use xlink:href="#aj" x="462.751" y="271.234" fill="#505050"/><use xlink:href="#k" x="465.271" y="271.234" fill="#505050"/><use xlink:href="#aj" x="289.357" y="259.378" fill="#505050"/><use xlink:href="#f" x="291.877" y="259.378" fill="#505050"/><use xlink:href="#aj" x="364.876" y="340.302" fill="#505050"/><use xlink:href="#x" x="367.396" y="340.302" fill="#505050"/><use xlink:href="#aj" x="462.751" y="305.768" fill="#505050"/><use xlink:href="#ak" x="465.271" y="305.768" fill="#505050"/><use xlink:href="#aj" x="514.568" y="305.768" fill="#505050"/><use xlink:href="#y" x="517.088" y="305.768" fill="#505050"/><use xlink:href="#b" x="322.87" y="334.201" fill="#505050"/><use xlink:href="#k" x="325.27" y="334.201" fill="#505050"/><use xlink:href="#al" x="519.786" y="339.382" fill="#505050"/><use xlink:href="#a" x="522.006" y="339.382" fill="#505050"/><use xlink:href="#q" x="523.506" y="339.382" fill="#505050"/><use xlink:href="#am" x="519.786" y="350.893" fill="#505050"/><use xlink:href="#aj" x="522.126" y="350.893" fill="#505050"/><use xlink:href="#a" x="524.646" y="350.893" fill="#505050"/><use xlink:href="#al" x="519.786" y="327.87" fill="#505050"/><use xlink:href="#an" x="522.006" y="327.87" fill="#505050"/><use xlink:href="#aj" x="524.826" y="327.87" fill="#505050"/><use xlink:href="#am" x="537.68" y="303.408" fill="#505050"/><use xlink:href="#k" x="540.02" y="303.408" fill="#505050"/><use xlink:href="#ao" x="559.512" y="261.967" fill="#505050"/><use xlink:href="#ap" x="559.512" y="258.127" fill="#505050"/><use xlink:href="#aj" x="542.682" y="276.644" fill="#505050"/><use xlink:href="#d" x="545.202" y="276.644" fill="#505050"/><use xlink:href="#k" x="269.696" y="350.893" fill="#505050"/><use xlink:href="#m" x="271.916" y="350.893" fill="#505050"/><use xlink:href="#aq" x="274.136" y="350.893" fill="#505050"/><use xlink:href="#ar" x="276.536" y="350.893" fill="#505050"/><use xlink:href="#k" x="268.196" y="339.382" fill="#505050"/><use xlink:href="#m" x="270.416" y="339.382" fill="#505050"/><use xlink:href="#aq" x="272.636" y="339.382" fill="#505050"/><use xlink:href="#as" x="275.036" y="339.382" fill="#505050"/><path d="M355.68 280.379v46.082M355.68 326.46h69.12M424.8 326.46V280.38M355.68 280.379h69.12" fill="none" stroke-width=".6000000000000001" stroke-linecap="round" stroke-linejoin="round" stroke="maroon" stroke-miterlimit="10"/><path d="M349.922 303.422h5.758M430.559 314.941H424.8M430.559 320.7H424.8M430.559 286.14H424.8M430.559 291.898H424.8M390.238 274.621v5.758M349.922 291.898h5.758M349.922 286.14h5.758M430.559 309.18H424.8M349.922 320.7h5.758M390.238 332.16v-5.7M349.922 309.18h5.758" fill="none" stroke-width=".36000000000000004" stroke-linecap="round" stroke-linejoin="round" stroke="maroon" stroke-miterlimit="10"/><path d="M313.68 280.379v11.52M317.102 291.898v-11.52" fill="none" stroke-width=".6000000000000001" stroke-linecap="round" stroke-linejoin="round" stroke="maroon" stroke-miterlimit="10"/><path d="M321.18 286.14h-2.04" fill="none" stroke-width=".36000000000000004" stroke-linecap="round" stroke-linejoin="round" stroke="maroon" stroke-miterlimit="10"/><path d="M317.102 280.379h-3.422M313.68 291.898h3.422" fill="none" stroke-width=".6000000000000001" stroke-linecap="round" stroke-linejoin="round" stroke="maroon" stroke-miterlimit="10"/><path d="M309.66 291.898v-4.617M309.66 287.281l-1.14 2.34M309.66 287.281l1.14 2.34M315.422 297.66v-5.762M315.422 274.621v5.758M319.14 286.14l-7.98-3.96M310.5 283.2l-2.34-2.579M308.16 280.621l3.36.48M310.5 283.2l1.02-2.098M476.578 291.898h-5.758M453.602 291.898h5.757" fill="none" stroke-width=".36000000000000004" stroke-linecap="round" stroke-linejoin="round" stroke="maroon" stroke-miterlimit="10"/><path d="M459.36 293.941h11.46M470.82 289.86h-11.46M470.82 293.941v-4.082M459.36 293.941v-4.082" fill="none" stroke-width=".6000000000000001" stroke-linecap="round" stroke-linejoin="round" stroke="maroon" stroke-miterlimit="10"/><path d="M476.578 274.621h-5.758M453.602 274.621h5.757" fill="none" stroke-width=".36000000000000004" stroke-linecap="round" stroke-linejoin="round" stroke="maroon" stroke-miterlimit="10"/><path d="M459.36 276.66h11.46M470.82 272.64h-11.46M470.82 276.66v-4.02M459.36 276.66v-4.02" fill="none" stroke-width=".6000000000000001" stroke-linecap="round" stroke-linejoin="round" stroke="maroon" stroke-miterlimit="10"/><path d="M298.14 251.578v5.762M298.14 274.621v-5.762" fill="none" stroke-width=".36000000000000004" stroke-linecap="round" stroke-linejoin="round" stroke="maroon" stroke-miterlimit="10"/><path d="M300.121 268.86v-11.52M296.102 257.34v11.52M300.121 257.34h-4.02M300.121 268.86h-4.02" fill="none" stroke-width=".6000000000000001" stroke-linecap="round" stroke-linejoin="round" stroke="maroon" stroke-miterlimit="10"/><path d="M378.719 343.68h-5.758M355.68 343.68h5.761" fill="none" stroke-width=".36000000000000004" stroke-linecap="round" stroke-linejoin="round" stroke="maroon" stroke-miterlimit="10"/><path d="M361.441 345.719h11.52M372.96 341.7h-11.519M372.96 345.719v-4.02M361.441 345.719v-4.02" fill="none" stroke-width=".6000000000000001" stroke-linecap="round" stroke-linejoin="round" stroke="maroon" stroke-miterlimit="10"/><path d="M476.578 309.18h-5.758M453.602 309.18h5.757" fill="none" stroke-width=".36000000000000004" stroke-linecap="round" stroke-linejoin="round" stroke="maroon" stroke-miterlimit="10"/><path d="M459.36 311.16h11.46M470.82 307.14h-11.46M470.82 311.16v-4.02M459.36 311.16v-4.02" fill="none" stroke-width=".6000000000000001" stroke-linecap="round" stroke-linejoin="round" stroke="maroon" stroke-miterlimit="10"/><path d="M528.422 309.18h-5.762M505.379 309.18h5.762" fill="none" stroke-width=".36000000000000004" stroke-linecap="round" stroke-linejoin="round" stroke="maroon" stroke-miterlimit="10"/><path d="M511.14 311.16h11.52M522.66 307.14h-11.52M522.66 311.16v-4.02M511.14 311.16v-4.02M301.02 238.68l-2.88-4.32M298.14 234.36l-2.878 4.32" fill="none" stroke-width=".6000000000000001" stroke-linecap="round" stroke-linejoin="round" stroke="maroon" stroke-miterlimit="10"/><path d="M298.14 240.121v-5.762" fill="none" stroke-width=".36000000000000004" stroke-linecap="round" stroke-linejoin="round" stroke="maroon" stroke-miterlimit="10"/><path d="M328.922 360.96h7.5" fill="none" stroke-width=".6000000000000001" stroke-linecap="round" stroke-linejoin="round" stroke="maroon" stroke-miterlimit="10"/><path d="M332.7 355.2v5.76" fill="none" stroke-width=".36000000000000004" stroke-linecap="round" stroke-linejoin="round" stroke="maroon" stroke-miterlimit="10"/><path d="M330.36 362.102h4.62M331.8 363.238h1.74M386.52 360.96h7.44" fill="none" stroke-width=".6000000000000001" stroke-linecap="round" stroke-linejoin="round" stroke="maroon" stroke-miterlimit="10"/><path d="M390.238 355.2v5.76" fill="none" stroke-width=".36000000000000004" stroke-linecap="round" stroke-linejoin="round" stroke="maroon" stroke-miterlimit="10"/><path d="M387.96 362.102h4.56M389.398 363.238h1.68" fill="none" stroke-width=".6000000000000001" stroke-linecap="round" stroke-linejoin="round" stroke="maroon" stroke-miterlimit="10"/><path d="M332.7 343.68v-4.02M332.7 332.16v4.078" fill="none" stroke-width=".36000000000000004" stroke-linecap="round" stroke-linejoin="round" stroke="maroon" stroke-miterlimit="10"/><path d="M328.078 339.719h9.242v-1.2h-9.242zm0 0M328.078 337.379h9.242v-1.2h-9.242zm0 0" fill="maroon" stroke-width=".12" stroke-linecap="round" stroke-linejoin="round" stroke="maroon" stroke-miterlimit="10"/><path d="M505.379 337.922h5.762" fill="none" stroke-width=".6000000000000001" stroke-linecap="round" stroke-linejoin="round" stroke="maroon" stroke-miterlimit="10"/><path d="M510.84 337.922l.18-.902.359-.782.601-.718.72-.48.902-.24h.898l.84.24.781.48.598.718.36.782.12.902-.12.898-.36.84-.598.66-.781.48-.84.302h-.898l-.903-.301-.719-.48-.601-.66-.36-.84-.18-.9h.602l.118-.722.3-.66.48-.539.602-.422.72-.18h.718l.723.18.597.422.48.54.36.66.063.722-.063.777-.36.66-.48.54-.597.421-.723.18h-.719l-.719-.18-.601-.422-.48-.539-.301-.66-.118-.777h-.601" fill-rule="evenodd" fill="maroon"/><path d="M510.84 337.922l.18-.902.359-.782.601-.718.72-.48.902-.24h.898l.84.24.781.48.598.718.36.782.12.902-.12.898-.36.84-.598.66-.781.48-.84.302h-.898l-.903-.301-.719-.48-.601-.66-.36-.84-.18-.9h.602l.118-.722.3-.66.48-.539.602-.422.72-.18h.718l.723.18.597.422.48.54.36.66.063.722-.063.777-.36.66-.48.54-.597.421-.723.18h-.719l-.719-.18-.601-.422-.48-.539-.301-.66-.118-.777zm0 0" fill="none" stroke-width=".12" stroke-linecap="round" stroke-linejoin="round" stroke="maroon" stroke-miterlimit="10"/><path d="M505.379 349.441h5.762" fill="none" stroke-width=".6000000000000001" stroke-linecap="round" stroke-linejoin="round" stroke="maroon" stroke-miterlimit="10"/><path d="M510.84 349.441l.18-.902.359-.777.601-.723.72-.48.902-.239h.898l.84.239.781.48.598.723.36.777.12.902-.12.899-.36.84-.598.66-.781.48-.84.239h-.898l-.903-.239-.719-.48-.601-.66-.36-.84-.18-.899h.602l.118-.722.3-.66.48-.54.602-.417.72-.243h.718l.723.243.597.418.48.539.36.66.063.722-.063.72-.36.718-.48.543-.597.36-.723.238h-.719l-.719-.239-.601-.36-.48-.542-.301-.719-.118-.719h-.601" fill-rule="evenodd" fill="maroon"/><path d="M510.84 349.441l.18-.902.359-.777.601-.723.72-.48.902-.239h.898l.84.239.781.48.598.723.36.777.12.902-.12.899-.36.84-.598.66-.781.48-.84.239h-.898l-.903-.239-.719-.48-.601-.66-.36-.84-.18-.899h.602l.118-.722.3-.66.48-.54.602-.417.72-.243h.718l.723.243.597.418.48.539.36.66.063.722-.063.72-.36.718-.48.543-.597.36-.723.238h-.719l-.719-.239-.601-.36-.48-.542-.301-.719-.118-.719zm0 0" fill="none" stroke-width=".12" stroke-linecap="round" stroke-linejoin="round" stroke="maroon" stroke-miterlimit="10"/><path d="M505.379 326.46h5.762" fill="none" stroke-width=".6000000000000001" stroke-linecap="round" stroke-linejoin="round" stroke="maroon" stroke-miterlimit="10"/><path d="M510.84 326.46l.18-.901.359-.84.601-.66.72-.48.902-.298h.898l.84.297.781.48.598.66.36.84.12.903-.12.84-.36.84-.598.66-.781.539-.84.238h-.898l-.903-.238-.719-.54-.601-.66-.36-.84-.18-.84h.602l.118-.78.3-.66.48-.54.602-.421.72-.18h.718l.723.18.597.421.48.54.36.66.063.78-.063.72-.36.66-.48.539-.597.422-.723.18h-.719l-.719-.18-.601-.422-.48-.54-.301-.66-.118-.718h-.601" fill-rule="evenodd" fill="maroon"/><path d="M510.84 326.46l.18-.901.359-.84.601-.66.72-.48.902-.298h.898l.84.297.781.48.598.66.36.84.12.903-.12.84-.36.84-.598.66-.781.539-.84.238h-.898l-.903-.238-.719-.54-.601-.66-.36-.84-.18-.84h.602l.118-.78.3-.66.48-.54.602-.421.72-.18h.718l.723.18.597.421.48.54.36.66.063.78-.063.72-.36.66-.48.539-.597.422-.723.18h-.719l-.719-.18-.601-.422-.48-.54-.301-.66-.118-.718zm0 0" fill="none" stroke-width=".12" stroke-linecap="round" stroke-linejoin="round" stroke="maroon" stroke-miterlimit="10"/><path d="M551.46 303.422l-5.64 2.816M549 312.238l1.14 2.043M550.14 314.281l-2.28.297M547.86 314.578l1.14-2.34M551.46 314.941l-1.32-.66M550.14 314.281l-3.718-1.86" fill="none" stroke-width=".36000000000000004" stroke-linecap="round" stroke-linejoin="round" stroke="maroon" stroke-miterlimit="10"/><path d="M548.398 314.281l1.32-.18M549.719 314.102L549 312.84" fill="none" stroke-width=".7200000000000001" stroke-linecap="round" stroke-linejoin="round" stroke="maroon" stroke-miterlimit="10"/><path d="M549 312.84l-.602 1.14M548.398 313.98h.903M549.3 313.98l-.3-.601" fill="none" stroke-width=".6000000000000001" stroke-linecap="round" stroke-linejoin="round" stroke="maroon" stroke-miterlimit="10"/><path d="M544.559 314.941h1.68v-11.52h-1.68zm0 0" fill="maroon" stroke-width=".12" stroke-linecap="round" stroke-linejoin="round" stroke="maroon" stroke-miterlimit="10"/><path d="M539.941 309.18h5.758M551.46 320.7v-5.759M551.46 297.66v5.762" fill="none" stroke-width=".36000000000000004" stroke-linecap="round" stroke-linejoin="round" stroke="maroon" stroke-miterlimit="10"/><path d="M556.738 309.18a8.159 8.159 0 1 1-16.316 0 8.158 8.158 0 1 1 16.316 0zm0 0" fill="none" stroke-width=".9" stroke-linecap="round" stroke-linejoin="round" stroke="maroon" stroke-miterlimit="10"/><path d="M554.34 251.578l-2.88 5.762M551.46 257.34l-2.882-5.762M554.34 257.34h-2.88M551.46 257.34h-2.882M554.34 251.578h-2.88M551.46 251.578h-2.882" fill="none" stroke-width=".6000000000000001" stroke-linecap="round" stroke-linejoin="round" stroke="maroon" stroke-miterlimit="10"/><path d="M551.46 251.578v5.762M546.84 253.32l-3.18 3.18M547.14 255.898l-3.18 3.18M551.46 263.102v-5.762M551.46 245.879v5.7M543.66 256.5l.899-2.04M544.559 254.46l1.14 1.2M545.7 255.66l-2.04.84M543.719 256.379h.18M543.84 256.14h.66M543.96 255.898h1.142M544.02 255.66h1.68M544.14 255.36h1.32M544.262 255.121h.898M544.379 254.879h.543M544.5 254.64h.18M543.96 259.078l.9-1.976M544.86 257.102l1.14 1.136M546 258.238l-2.04.84M544.02 258.96h.242M544.14 258.719h.72M544.262 258.422h1.199M544.379 258.18h1.562M544.441 257.941h1.258M544.559 257.7h.902M544.68 257.398h.48M544.8 257.16h.122M551.46 268.86v5.761M551.46 291.898v-5.757" fill="none" stroke-width=".36000000000000004" stroke-linecap="round" stroke-linejoin="round" stroke="maroon" stroke-miterlimit="10"/><path d="M553.441 286.14v-11.519M549.422 274.621v11.52M553.441 274.621h-4.02M553.441 286.14h-4.02M547.68 360.96h7.5" fill="none" stroke-width=".6000000000000001" stroke-linecap="round" stroke-linejoin="round" stroke="maroon" stroke-miterlimit="10"/><path d="M551.46 355.2v5.76" fill="none" stroke-width=".36000000000000004" stroke-linecap="round" stroke-linejoin="round" stroke="maroon" stroke-miterlimit="10"/><path d="M549.121 362.102h4.617M550.559 363.238h1.742M301.86 360.96h-7.5" fill="none" stroke-width=".6000000000000001" stroke-linecap="round" stroke-linejoin="round" stroke="maroon" stroke-miterlimit="10"/><path d="M298.14 355.2v5.76" fill="none" stroke-width=".36000000000000004" stroke-linecap="round" stroke-linejoin="round" stroke="maroon" stroke-miterlimit="10"/><path d="M300.422 362.102H295.8M298.98 363.238h-1.742M393.121 238.68l-2.883-4.32M390.238 234.36l-2.879 4.32" fill="none" stroke-width=".6000000000000001" stroke-linecap="round" stroke-linejoin="round" stroke="maroon" stroke-miterlimit="10"/><path d="M390.238 240.121v-5.762" fill="none" stroke-width=".36000000000000004" stroke-linecap="round" stroke-linejoin="round" stroke="maroon" stroke-miterlimit="10"/><path d="M485.219 238.68l-2.88-4.32M482.34 234.36l-2.88 4.32" fill="none" stroke-width=".6000000000000001" stroke-linecap="round" stroke-linejoin="round" stroke="maroon" stroke-miterlimit="10"/><path d="M482.34 240.121v-5.762" fill="none" stroke-width=".36000000000000004" stroke-linecap="round" stroke-linejoin="round" stroke="maroon" stroke-miterlimit="10"/><path d="M554.34 238.68l-2.88-4.32M551.46 234.36l-2.882 4.32" fill="none" stroke-width=".6000000000000001" stroke-linecap="round" stroke-linejoin="round" stroke="maroon" stroke-miterlimit="10"/><path d="M551.46 240.121v-5.762" fill="none" stroke-width=".36000000000000004" stroke-linecap="round" stroke-linejoin="round" stroke="maroon" stroke-miterlimit="10"/><path d="M301.02 330.719l-2.88-4.258M298.14 326.46l-2.878 4.259" fill="none" stroke-width=".6000000000000001" stroke-linecap="round" stroke-linejoin="round" stroke="maroon" stroke-miterlimit="10"/><path d="M298.14 332.16v-5.7" fill="none" stroke-width=".36000000000000004" stroke-linecap="round" stroke-linejoin="round" stroke="maroon" stroke-miterlimit="10"/><path d="M292.379 349.441h-5.758" fill="none" stroke-width=".6000000000000001" stroke-linecap="round" stroke-linejoin="round" stroke="maroon" stroke-miterlimit="10"/><path d="M280.559 349.441l.12-.902.36-.777.602-.723.78-.48.84-.239h.9l.898.239.722.48.598.723.422.777.12.902-.12.899-.422.84-.598.66-.722.48-.899.239h-.898l-.84-.239-.781-.48-.602-.66-.36-.84-.12-.899h.601l.059-.722.36-.66.48-.54.601-.417.719-.243h.723l.718.243.602.418.476.539.301.66.121.722-.12.72-.302.718-.476.543-.602.36-.718.238h-.723l-.719-.239-.601-.36-.48-.542-.36-.719-.059-.719h-.601" fill-rule="evenodd" fill="maroon"/><path d="M280.559 349.441l.12-.902.36-.777.602-.723.78-.48.84-.239h.9l.898.239.722.48.598.723.422.777.12.902-.12.899-.422.84-.598.66-.722.48-.899.239h-.898l-.84-.239-.781-.48-.602-.66-.36-.84-.12-.899h.601l.059-.722.36-.66.48-.54.601-.417.719-.243h.723l.718.243.602.418.476.539.301.66.121.722-.12.72-.302.718-.476.543-.602.36-.718.238h-.723l-.719-.239-.601-.36-.48-.542-.36-.719-.059-.719zm0 0" fill="none" stroke-width=".12" stroke-linecap="round" stroke-linejoin="round" stroke="maroon" stroke-miterlimit="10"/><path d="M292.379 337.922h-5.758" fill="none" stroke-width=".6000000000000001" stroke-linecap="round" stroke-linejoin="round" stroke="maroon" stroke-miterlimit="10"/><path d="M280.559 337.922l.12-.902.36-.782.602-.718.78-.48.84-.24h.9l.898.24.722.48.598.718.422.782.12.902-.12.898-.422.84-.598.66-.722.48-.899.302h-.898l-.84-.301-.781-.48-.602-.66-.36-.84-.12-.9h.601l.059-.722.36-.66.48-.539.601-.422.719-.18h.723l.718.18.602.422.476.54.301.66.121.722-.12.777-.302.66-.476.54-.602.421-.718.18h-.723l-.719-.18-.601-.422-.48-.539-.36-.66-.059-.777h-.601" fill-rule="evenodd" fill="maroon"/><path d="M280.559 337.922l.12-.902.36-.782.602-.718.78-.48.84-.24h.9l.898.24.722.48.598.718.422.782.12.902-.12.898-.422.84-.598.66-.722.48-.899.302h-.898l-.84-.301-.781-.48-.602-.66-.36-.84-.12-.9h.601l.059-.722.36-.66.48-.539.601-.422.719-.18h.723l.718.18.602.422.476.54.301.66.121.722-.12.777-.302.66-.476.54-.602.421-.718.18h-.723l-.719-.18-.601-.422-.48-.539-.36-.66-.059-.777zm0 0" fill="none" stroke-width=".12" stroke-linecap="round" stroke-linejoin="round" stroke="maroon" stroke-miterlimit="10"/><path d="M298.14 240.121v11.457M390.238 240.121v34.5M482.34 240.121v34.5M482.34 274.621v17.277M482.34 291.898v17.282M482.34 309.18h-5.762M476.578 291.898h5.762" fill="none" stroke-width=".36000000000000004" stroke-linecap="round" stroke-linejoin="round" stroke="green" stroke-miterlimit="10"/><path d="M483.48 291.898a1.14 1.14 0 1 1-2.278.003 1.14 1.14 0 0 1 2.278-.003" fill-rule="evenodd" fill="green"/><path d="M483.48 291.898a1.14 1.14 0 1 1-2.278.003 1.14 1.14 0 0 1 2.278-.003zm0 0" fill="none" stroke-width=".12" stroke-linecap="round" stroke-linejoin="round" stroke="green" stroke-miterlimit="10"/><path d="M476.578 274.621h5.762" fill="none" stroke-width=".36000000000000004" stroke-linecap="round" stroke-linejoin="round" stroke="green" stroke-miterlimit="10"/><path d="M483.48 274.621c0 .629-.511 1.14-1.14 1.14a1.14 1.14 0 1 1 1.14-1.14" fill-rule="evenodd" fill="green"/><path d="M483.48 274.621c0 .629-.511 1.14-1.14 1.14a1.14 1.14 0 1 1 1.14-1.14zm0 0" fill="none" stroke-width=".12" stroke-linecap="round" stroke-linejoin="round" stroke="green" stroke-miterlimit="10"/><path d="M551.46 240.121v5.758M298.14 332.16v5.762M298.14 337.922h-5.761M430.559 286.14h11.52M442.078 286.14v-11.519M442.078 274.621h11.524M430.559 291.898h23.043M430.559 309.18h17.28M447.84 309.18h5.762M447.84 309.18v17.28M447.84 326.46h46.02" fill="none" stroke-width=".36000000000000004" stroke-linecap="round" stroke-linejoin="round" stroke="green" stroke-miterlimit="10"/><path d="M448.98 309.18c0 .629-.511 1.14-1.14 1.14-.63 0-1.14-.511-1.14-1.14 0-.63.51-1.14 1.14-1.14.629 0 1.14.51 1.14 1.14" fill-rule="evenodd" fill="green"/><path d="M448.98 309.18c0 .629-.511 1.14-1.14 1.14-.63 0-1.14-.511-1.14-1.14 0-.63.51-1.14 1.14-1.14.629 0 1.14.51 1.14 1.14zm0 0" fill="none" stroke-width=".12" stroke-linecap="round" stroke-linejoin="round" stroke="green" stroke-miterlimit="10"/><path d="M493.86 326.46v-17.28M493.86 309.18h11.519M505.379 326.46h-11.52" fill="none" stroke-width=".36000000000000004" stroke-linecap="round" stroke-linejoin="round" stroke="green" stroke-miterlimit="10"/><path d="M495 326.46c0 .63-.512 1.142-1.14 1.142-.63 0-1.141-.512-1.141-1.141a1.14 1.14 0 1 1 2.281 0" fill-rule="evenodd" fill="green"/><path d="M495 326.46c0 .63-.512 1.142-1.14 1.142-.63 0-1.141-.512-1.141-1.141a1.14 1.14 0 1 1 2.281 0zm0 0" fill="none" stroke-width=".12" stroke-linecap="round" stroke-linejoin="round" stroke="green" stroke-miterlimit="10"/><path d="M390.238 355.2v-11.52M390.238 343.68v-11.52M378.719 343.68h11.52" fill="none" stroke-width=".36000000000000004" stroke-linecap="round" stroke-linejoin="round" stroke="green" stroke-miterlimit="10"/><path d="M391.379 343.68a1.14 1.14 0 1 1-2.279.002 1.14 1.14 0 0 1 2.279-.002" fill-rule="evenodd" fill="green"/><path d="M391.379 343.68a1.14 1.14 0 1 1-2.279.002 1.14 1.14 0 0 1 2.279-.002zm0 0" fill="none" stroke-width=".12" stroke-linecap="round" stroke-linejoin="round" stroke="green" stroke-miterlimit="10"/><path d="M332.7 343.68v11.52M551.46 355.2v-34.5M298.14 355.2v-5.759M298.14 349.441h-5.761M355.68 343.68h-11.52M344.16 343.68v-34.5M344.16 309.18h5.762M349.922 320.7h-17.223M332.7 320.7v11.46M430.559 320.7h5.761M436.32 320.7v28.741M436.32 349.441h69.059M505.379 337.922h-63.3M442.078 337.922v-22.98M442.078 314.941h-11.52M539.941 309.18h-11.52M551.46 263.102v5.757M551.46 297.66v-5.762M298.14 303.422v-28.8M315.422 297.66v5.762M315.422 303.422H298.14M349.922 291.898h-5.762M344.16 291.898v-5.757M344.16 286.14h5.762M321.18 286.14h22.98" fill="none" stroke-width=".36000000000000004" stroke-linecap="round" stroke-linejoin="round" stroke="green" stroke-miterlimit="10"/><path d="M345.3 286.14c0 .63-.51 1.141-1.14 1.141-.629 0-1.14-.511-1.14-1.14 0-.63.511-1.141 1.14-1.141.63 0 1.14.512 1.14 1.14" fill-rule="evenodd" fill="green"/><path d="M345.3 286.14c0 .63-.51 1.141-1.14 1.141-.629 0-1.14-.511-1.14-1.14 0-.63.511-1.141 1.14-1.141.63 0 1.14.512 1.14 1.14zm0 0" fill="none" stroke-width=".12" stroke-linecap="round" stroke-linejoin="round" stroke="green" stroke-miterlimit="10"/></svg>