<svg xmlns:xlink="http://www.w3.org/1999/xlink" width="842pt" height="595pt" viewBox="0 0 842 595">
  <defs/>
  <defs>
    <symbol id="Headphone-Amplifier-ClassAB-alt4-1_svg__a" overflow="visible">
      <path d="M2.281-.89a.703.703 0 0 1-.094.374.72.72 0 0 1-.218.282.865.865 0 0 1-.344.172A1.62 1.62 0 0 1 1.141 0H.297v-2.922h.781c.195 0 .352.008.469.016.094.023.191.058.297.11a.588.588 0 0 1 .297.53c0 .149-.04.274-.11.375a.778.778 0 0 1-.297.25v.016c.164.055.301.14.407.266a.76.76 0 0 1 .14.468zm-.547-1.313a.554.554 0 0 0-.03-.188.281.281 0 0 0-.11-.125.977.977 0 0 0-.219-.062 2.985 2.985 0 0 0-.313-.016H.688v.86h.438c.125 0 .21-.004.266-.016a.429.429 0 0 0 .187-.078.452.452 0 0 0 .125-.156.634.634 0 0 0 .031-.22zm.141 1.328a.73.73 0 0 0-.047-.281.355.355 0 0 0-.187-.172.722.722 0 0 0-.204-.063 2.985 2.985 0 0 0-.312-.015H.687v1.078H1c.164 0 .3-.008.406-.031a.478.478 0 0 0 .25-.094c.07-.05.13-.11.172-.172a.56.56 0 0 0 .047-.25zm0 0"/>
    </symbol>
    <symbol id="Headphone-Amplifier-ClassAB-alt4-1_svg__b" overflow="visible">
      <path d="M1.438.047a1.212 1.212 0 0 1-.532-.094A1.087 1.087 0 0 1 .5-.328a1.388 1.388 0 0 1-.281-.469 2.147 2.147 0 0 1-.094-.656c0-.25.031-.461.094-.64C.28-2.27.375-2.43.5-2.579a1.28 1.28 0 0 1 .406-.297c.156-.063.332-.094.531-.094.102 0 .196.008.282.016.082.023.16.043.234.062.063.024.129.043.203.063.063.031.125.07.188.11v.468h-.031c-.032-.031-.075-.07-.126-.125-.062-.04-.132-.082-.203-.125a2.15 2.15 0 0 0-.234-.11 1.54 1.54 0 0 0-.313-.03.767.767 0 0 0-.343.078.876.876 0 0 0-.297.218.997.997 0 0 0-.188.375 1.552 1.552 0 0 0-.078.516c0 .2.024.371.078.516a.83.83 0 0 0 .188.359c.082.105.18.18.297.219a.718.718 0 0 0 .343.078.99.99 0 0 0 .313-.047A.83.83 0 0 0 2-.422a1.42 1.42 0 0 0 .313-.234h.03v.453a2.274 2.274 0 0 0-.171.094 1.023 1.023 0 0 1-.219.078C1.867 0 1.79.019 1.72.03a2.627 2.627 0 0 1-.282.016zm0 0"/>
    </symbol>
    <symbol id="Headphone-Amplifier-ClassAB-alt4-1_svg__c" overflow="visible">
      <path d="M1.984-.922c0 .137-.023.266-.062.39a1.304 1.304 0 0 1-.203.313.757.757 0 0 1-.297.203 1.072 1.072 0 0 1-.406.079C.867.063.726.046.594.015A1.216 1.216 0 0 1 .25-.11v-.407h.016c.03.024.078.047.14.079.051.023.114.046.188.078.07.023.14.043.203.062.062.012.133.016.219.016.07 0 .148-.016.234-.047a.389.389 0 0 0 .188-.125.604.604 0 0 0 .109-.203c.02-.07.031-.164.031-.281a.868.868 0 0 0-.031-.25.491.491 0 0 0-.125-.157.644.644 0 0 0-.203-.11 1.265 1.265 0 0 0-.282-.03 4 4 0 0 0-.312.015c-.117.024-.203.04-.266.047v-1.5h1.61v.344H.734v.781c.051-.008.098-.016.141-.016H1c.156 0 .285.012.39.032.094.031.192.078.298.14a.782.782 0 0 1 .218.282c.051.117.078.261.078.437zm0 0"/>
    </symbol>
    <symbol id="Headphone-Amplifier-ClassAB-alt4-1_svg__d" overflow="visible"/>
    <symbol id="Headphone-Amplifier-ClassAB-alt4-1_svg__e" overflow="visible"/>
    <symbol id="Headphone-Amplifier-ClassAB-alt4-1_svg__f" overflow="visible">
      <path d="M1-2.64a.671.671 0 0 0-.203.03.873.873 0 0 0-.219.063.582.582 0 0 0-.156.078c-.055.031-.094.059-.125.078H.266v-.406a2.29 2.29 0 0 1 .359-.125c.133-.039.27-.062.406-.062.133 0 .25.015.344.046a.62.62 0 0 1 .266.126c.093.062.16.136.203.218.039.094.062.2.062.313a.612.612 0 0 1-.156.422.669.669 0 0 1-.375.234v.031a.919.919 0 0 1 .39.188c.051.062.098.136.141.218a.78.78 0 0 1 .063.329.875.875 0 0 1-.079.359.803.803 0 0 1-.188.297.745.745 0 0 1-.312.187c-.118.051-.25.079-.407.079C.836.063.691.046.547.015a1.814 1.814 0 0 1-.36-.141v-.406H.22c.08.062.19.121.327.172a1.094 1.094 0 0 0 .656.046.559.559 0 0 0 .203-.124c.051-.063.094-.126.125-.188.02-.07.032-.16.032-.266a.687.687 0 0 0-.047-.265.491.491 0 0 0-.125-.157.446.446 0 0 0-.188-.078 1.123 1.123 0 0 0-.25-.03H.781v-.329h.14c.165 0 .306-.04.423-.125a.419.419 0 0 0 .172-.36.371.371 0 0 0-.047-.187.493.493 0 0 0-.11-.125 1.15 1.15 0 0 0-.171-.078A1.296 1.296 0 0 0 1-2.641zm0 0"/>
    </symbol>
    <symbol id="Headphone-Amplifier-ClassAB-alt4-1_svg__g" overflow="visible">
      <path d="M2.016 0H.219v-.406l.36-.36c.112-.101.226-.218.343-.343.219-.25.367-.446.453-.594.07-.145.113-.297.125-.453a.487.487 0 0 0-.047-.219.602.602 0 0 0-.11-.156.629.629 0 0 0-.344-.11.822.822 0 0 0-.218.032.685.685 0 0 0-.203.062 1.166 1.166 0 0 0-.156.078c-.055.031-.094.059-.125.078H.28v-.406c.07-.039.18-.082.328-.125.145-.039.286-.062.422-.062.258 0 .469.074.625.218.157.149.235.344.235.594 0 .117-.012.219-.032.313a2.19 2.19 0 0 1-.109.265 2.195 2.195 0 0 1-.188.25 4.057 4.057 0 0 1-.203.25 7.154 7.154 0 0 1-.421.422 7.96 7.96 0 0 1-.36.344h1.438zm0 0"/>
    </symbol>
    <symbol id="Headphone-Amplifier-ClassAB-alt4-1_svg__h" overflow="visible">
      <path d="M1.86 0H.436v-.297H.97V-2.25H.438v-.266c.195 0 .347-.03.453-.093.093-.051.144-.157.156-.313h.297v2.625h.515zm0 0"/>
    </symbol>
    <symbol id="Headphone-Amplifier-ClassAB-alt4-1_svg__i" overflow="visible">
      <path d="M2.031-1.453c0 .523-.078.902-.234 1.14-.149.25-.383.376-.703.376C.77.063.535-.064.39-.314.234-.563.156-.94.156-1.452c0-.531.078-.914.235-1.156.156-.25.39-.375.703-.375.32 0 .554.132.703.39.156.25.234.633.234 1.14zm-.5.875a2.32 2.32 0 0 0 .078-.36 9.314 9.314 0 0 0 0-1.046 2.427 2.427 0 0 0-.078-.36.573.573 0 0 0-.172-.234.414.414 0 0 0-.265-.078.446.446 0 0 0-.266.078.512.512 0 0 0-.172.234 1.997 1.997 0 0 0-.078.375 6.995 6.995 0 0 0-.015.516c0 .2.003.371.015.516.008.136.035.257.078.359.04.105.098.183.172.234.063.055.149.078.266.078a.436.436 0 0 0 .265-.078.525.525 0 0 0 .172-.234zm0 0"/>
    </symbol>
    <symbol id="Headphone-Amplifier-ClassAB-alt4-1_svg__j" overflow="visible">
      <path d="M2.078 0h-.484L.78-1.063l-.14.141V0H.266v-3.047H.64v1.781l.859-.921h.453l-.89.906zm0 0"/>
    </symbol>
    <symbol id="Headphone-Amplifier-ClassAB-alt4-1_svg__k" overflow="visible">
      <path d="M.844 0H.375v-.563h.469zm0 0"/>
    </symbol>
    <symbol id="Headphone-Amplifier-ClassAB-alt4-1_svg__l" overflow="visible">
      <path d="M1.969 0h-.36v-.25a1.526 1.526 0 0 1-.328.234.78.78 0 0 1-.61.032.505.505 0 0 1-.218-.157.685.685 0 0 1-.156-.25A1.29 1.29 0 0 1 .25-.766v-1.421h.375v1.25c0 .117.004.21.016.28 0 .087.015.153.046.204.032.062.07.105.125.125a.78.78 0 0 0 .516-.031 1.41 1.41 0 0 0 .281-.204v-1.625h.36zm0 0"/>
    </symbol>
    <symbol id="Headphone-Amplifier-ClassAB-alt4-1_svg__m" overflow="visible"/>
    <symbol id="Headphone-Amplifier-ClassAB-alt4-1_svg__n" overflow="visible">
      <path d="M1.516.063c-.211 0-.399-.032-.563-.094a.962.962 0 0 1-.437-.297 1.177 1.177 0 0 1-.282-.469 1.894 1.894 0 0 1-.109-.672c0-.226.035-.437.11-.625a1.33 1.33 0 0 1 .28-.484c.114-.125.258-.223.438-.297.176-.063.363-.094.563-.094.101 0 .195.008.28.016.095.023.18.043.266.062.063.024.133.047.22.079a.829.829 0 0 1 .187.093v.469h-.031a3.862 3.862 0 0 0-.141-.125 1.311 1.311 0 0 0-.219-.125c-.086-.04-.18-.07-.281-.094a1.039 1.039 0 0 0-.328-.047.798.798 0 0 0-.672.329c-.18.21-.266.492-.266.843 0 .188.024.36.078.516a.83.83 0 0 0 .188.36.745.745 0 0 0 .312.234.884.884 0 0 0 .391.078c.113 0 .223-.004.328-.016.102-.02.195-.047.281-.078v-.75h-.687v-.344h1.062v1.282c-.054.023-.117.046-.187.078-.094.03-.172.058-.235.078-.105.031-.195.05-.265.062-.074.02-.168.032-.281.032zm0 0"/>
    </symbol>
    <symbol id="Headphone-Amplifier-ClassAB-alt4-1_svg__o" overflow="visible">
      <path d="M2.39 0h-.437L.656-2.516V0h-.36v-2.922h.548L2.016-.609v-2.313h.375zm0 0"/>
    </symbol>
    <symbol id="Headphone-Amplifier-ClassAB-alt4-1_svg__p" overflow="visible">
      <path d="M2.594-1.453c0 .262-.055.5-.156.719-.106.218-.25.386-.438.5a1.33 1.33 0 0 1-.453.187A2.89 2.89 0 0 1 .969 0H.297v-2.922h.656c.281 0 .5.024.656.063.157.043.286.101.391.171.188.126.332.293.438.5.101.211.156.454.156.735zm-.406-.016c0-.218-.04-.41-.11-.578a.813.813 0 0 0-.328-.36 1.342 1.342 0 0 0-.328-.14 1.832 1.832 0 0 0-.438-.047H.688v2.266h.296c.164 0 .317-.016.454-.047a1.016 1.016 0 0 0 .656-.516c.062-.156.094-.347.094-.578zm0 0"/>
    </symbol>
    <symbol id="Headphone-Amplifier-ClassAB-alt4-1_svg__q" overflow="visible"/>
    <symbol id="Headphone-Amplifier-ClassAB-alt4-1_svg__r" overflow="visible"/>
    <symbol id="Headphone-Amplifier-ClassAB-alt4-1_svg__s" overflow="visible">
      <path d="M.984 0v-2.578H0v-.344h2.344v.344h-.985V0zm0 0"/>
    </symbol>
    <symbol id="Headphone-Amplifier-ClassAB-alt4-1_svg__t" overflow="visible">
      <path d="M2.563 0h-.516l-.922-1.156H.687V0h-.39v-2.922h.75c.164 0 .305.012.422.031.113.024.222.063.328.125a.8.8 0 0 1 .234.25.751.751 0 0 1 .094.391.797.797 0 0 1-.172.531.913.913 0 0 1-.437.328zm-.844-2.094a.598.598 0 0 0-.047-.234.412.412 0 0 0-.14-.156.446.446 0 0 0-.188-.079c-.074-.007-.168-.019-.282-.03H.688v1.109h.344c.102 0 .203-.008.297-.032a.459.459 0 0 0 .219-.125.38.38 0 0 0 .125-.187.66.66 0 0 0 .047-.266zm0 0"/>
    </symbol>
    <symbol id="Headphone-Amplifier-ClassAB-alt4-1_svg__u" overflow="visible">
      <path d="M1.313 0H.188v-.297h.374v-2.328H.188v-.297h1.125v.297H.938v2.328h.375zm0 0"/>
    </symbol>
    <symbol id="Headphone-Amplifier-ClassAB-alt4-1_svg__v" overflow="visible"/>
    <symbol id="Headphone-Amplifier-ClassAB-alt4-1_svg__w" overflow="visible"/>
    <symbol id="Headphone-Amplifier-ClassAB-alt4-1_svg__x" overflow="visible">
      <path d="M2.422 0h-.39v-1.422H.686V0h-.39v-2.922h.39v1.14H2.03v-1.14h.39zm0 0"/>
    </symbol>
    <symbol id="Headphone-Amplifier-ClassAB-alt4-1_svg__y" overflow="visible"/>
  </defs>
  <path fill="none" stroke="#505050" stroke-linecap="round" stroke-linejoin="round" stroke-miterlimit="10" stroke-width=".36" d="M286.379 210.898v3.66m0-1.796l.601-.66m0 0h1.258m0 0l.602.66m0 0v1.797m1.86-3.059v2.46m0 0l.6.599m-1.198-2.457h1.199m1.859-.602v2.46m0 0l.66.599m-1.261-2.457h1.261m1.2 3.718v-3.718m0 0h1.859m0 0l.601.66m0 0v1.199m0-.001l-.601.599m0 0h-1.86m3.719-2.457h.602m0 0v.66m0 0h-.602m0 0v-.66m0 1.858h.602m0 0v.599m0 0h-.602m0 0v-.598m1.864.598l2.457-3.66m1.261 3.66l2.461-3.66m1.259 1.203v1.859m0-.001l.6.599m0 0l.598-.598m0-.001l.602.599m0 0l.66-.598m0-.001v-1.858m1.262 0v1.859m0-.001l.597.599m.001 0l.6-.598m0-.001l.599.599m0 0l.66-.598m0-.001v-1.858m1.203 0v1.859m0-.001l.656.599m0 0l.602-.598m0-.001l.601.599m0 0l.598-.598m0-.001v-1.858m1.261 2.457v-.598m0-.001h.66m0 0v.599m0 0h-.66m3.72 0h-1.258m0 0l-.602-.598m0-.001v-1.198m0 0l.602-.66m0 0h1.257m.001 0l.6.66m0 0v.597m0 .001H321m3.719-2.462h.601m0 0v3.66m-.601.001h1.261m3.06 0h-1.2m0 0l-.66-.598m0-.001v-1.198m0 0l.66-.66m0 0h1.2m0 0l.6.66m0 0v.597m0 .001h-2.46m6.18-1.258h-1.86m0 0l-.602.66m0 0v1.199m0-.001l.602.599m0 0h1.86m1.859-3.059v2.46m0 0l.66.599m-1.258-2.457h1.258m1.199 2.457v-2.457m0 1.258l1.262-1.258m0 0h.601m1.859 2.457h1.259m0 0l.601-.598m0-.001v-1.198m0 0l-.601-.66m0 0H340.8m0 0l-.6.66m0 0v1.199m0-.001l.6.599m3.122 0v-2.457m0 0h1.797m0 0l.66.66m0 0v1.797m1.261-2.457h.598m0 0v2.457m-.598 0h1.2m-.602-4.259v.598m4.321 1.204h-1.86m.001 0l-.598.66m0 0v1.199m0-.001l.597.599m.001 0h1.859m1.261 0h1.801m0 0l.66-.598m0-.001l-.66-.6m0 0h-1.2m.001 0l-.602-.598m0 0l.602-.66m0 0h1.86m1.198.66h2.461m3.719-1.864v3.66m0 .001h-1.8m0 0l-.66-.598m0-.001v-1.198m0 0l.66-.66m0 0h1.8m1.262 0h.598m0 0v2.457m-.598 0h1.258m-.66-4.259v.598m1.859 1.204v1.859m0-.001l.66.599m.001 0h1.8m0-2.457v3.117m0 0l-.602.601m0 0h-.597m2.461-1.261v-.598m0-.001h.597m.001 0v.599m0 0h-.598m4.32-2.457h-1.863m0 0l-.598.66m-.001 0v1.199m0-.001l.599.599m0 0h1.863m1.859 0h1.258m.001 0l.6-.598m0-.001v-1.198m0 0l-.6-.66m0 0h-1.259m0 0l-.601.66m0 0v1.199m0-.001l.601.599m3.117 0v-2.457m0 0H381m0 0l.602.66m0 0v1.797m0-1.797l.66-.66m0 0l.597.66m.001 0v1.797m1.261 0l2.457-3.66m3.062 3.66v-3.66m0-.001l-1.8 1.864m0 0h2.46m1.2-.66l2.46 2.457m-2.46 0l2.46-2.457m3.118 2.457v-3.66m0-.001l-1.86 1.864m.001 0h2.46m1.262 1.797v-.598m0-.001h.598m.001 0v.599m0 0h-.599m1.859 1.261v-3.718m0 0h1.86m0 0l.602.66m0 0v1.199m0-.001l-.602.599m0 0h-1.86m3.72-3.661v3.66m0-1.796l.601-.66m0 0h1.258m0 0l.601.66m0 0v1.797m1.258 1.261v-3.718m0 0h1.864m0 0l.597.66m.001 0v1.199m0-.001l-.598.599m0 0h-1.864"/>
  <use x="399.056" y="343.13" fill="#505050" xlink:href="#Headphone-Amplifier-ClassAB-alt4-1_svg__a"/>
  <use x="401.396" y="343.13" fill="#505050" xlink:href="#Headphone-Amplifier-ClassAB-alt4-1_svg__b"/>
  <use x="403.796" y="343.13" fill="#505050" xlink:href="#Headphone-Amplifier-ClassAB-alt4-1_svg__c"/>
  <use x="406.016" y="343.13" fill="#505050" xlink:href="#Headphone-Amplifier-ClassAB-alt4-1_svg__d"/>
  <use x="408.236" y="343.13" fill="#505050" xlink:href="#Headphone-Amplifier-ClassAB-alt4-1_svg__e"/>
  <use x="456.058" y="340.253" fill="#505050" xlink:href="#Headphone-Amplifier-ClassAB-alt4-1_svg__a"/>
  <use x="458.398" y="340.253" fill="#505050" xlink:href="#Headphone-Amplifier-ClassAB-alt4-1_svg__b"/>
  <use x="460.798" y="340.253" fill="#505050" xlink:href="#Headphone-Amplifier-ClassAB-alt4-1_svg__f"/>
  <use x="463.018" y="340.253" fill="#505050" xlink:href="#Headphone-Amplifier-ClassAB-alt4-1_svg__g"/>
  <use x="465.238" y="340.253" fill="#505050" xlink:href="#Headphone-Amplifier-ClassAB-alt4-1_svg__e"/>
  <use x="456.633" y="279.805" fill="#505050" xlink:href="#Headphone-Amplifier-ClassAB-alt4-1_svg__a"/>
  <use x="458.974" y="279.805" fill="#505050" xlink:href="#Headphone-Amplifier-ClassAB-alt4-1_svg__b"/>
  <use x="461.374" y="279.805" fill="#505050" xlink:href="#Headphone-Amplifier-ClassAB-alt4-1_svg__f"/>
  <use x="463.594" y="279.805" fill="#505050" xlink:href="#Headphone-Amplifier-ClassAB-alt4-1_svg__f"/>
  <use x="465.813" y="279.805" fill="#505050" xlink:href="#Headphone-Amplifier-ClassAB-alt4-1_svg__e"/>
  <use x="391.281" y="314.866" fill="#505050" xlink:href="#Headphone-Amplifier-ClassAB-alt4-1_svg__h"/>
  <use x="393.501" y="314.866" fill="#505050" xlink:href="#Headphone-Amplifier-ClassAB-alt4-1_svg__i"/>
  <use x="395.721" y="314.866" fill="#505050" xlink:href="#Headphone-Amplifier-ClassAB-alt4-1_svg__i"/>
  <use x="397.942" y="314.866" fill="#505050" xlink:href="#Headphone-Amplifier-ClassAB-alt4-1_svg__j"/>
  <use x="432.545" y="268.81" fill="#505050" xlink:href="#Headphone-Amplifier-ClassAB-alt4-1_svg__f"/>
  <use x="434.766" y="268.81" fill="#505050" xlink:href="#Headphone-Amplifier-ClassAB-alt4-1_svg__f"/>
  <use x="436.986" y="268.81" fill="#505050" xlink:href="#Headphone-Amplifier-ClassAB-alt4-1_svg__i"/>
  <use x="490.604" y="291.32" fill="#505050" xlink:href="#Headphone-Amplifier-ClassAB-alt4-1_svg__h"/>
  <use x="492.824" y="291.32" fill="#505050" xlink:href="#Headphone-Amplifier-ClassAB-alt4-1_svg__i"/>
  <use x="495.044" y="291.32" fill="#505050" xlink:href="#Headphone-Amplifier-ClassAB-alt4-1_svg__i"/>
  <use x="502.779" y="245.783" fill="#505050" xlink:href="#Headphone-Amplifier-ClassAB-alt4-1_svg__g"/>
  <use x="504.999" y="245.783" fill="#505050" xlink:href="#Headphone-Amplifier-ClassAB-alt4-1_svg__e"/>
  <use x="321.529" y="340.253" fill="#505050" xlink:href="#Headphone-Amplifier-ClassAB-alt4-1_svg__d"/>
  <use x="323.749" y="340.253" fill="#505050" xlink:href="#Headphone-Amplifier-ClassAB-alt4-1_svg__k"/>
  <use x="324.949" y="340.253" fill="#505050" xlink:href="#Headphone-Amplifier-ClassAB-alt4-1_svg__e"/>
  <use x="327.169" y="340.253" fill="#505050" xlink:href="#Headphone-Amplifier-ClassAB-alt4-1_svg__l"/>
  <use x="329.388" y="340.253" fill="#505050" xlink:href="#Headphone-Amplifier-ClassAB-alt4-1_svg__m"/>
  <use x="326.505" y="354.645" fill="#505050" xlink:href="#Headphone-Amplifier-ClassAB-alt4-1_svg__h"/>
  <use x="328.725" y="354.645" fill="#505050" xlink:href="#Headphone-Amplifier-ClassAB-alt4-1_svg__i"/>
  <use x="330.945" y="354.645" fill="#505050" xlink:href="#Headphone-Amplifier-ClassAB-alt4-1_svg__i"/>
  <use x="333.165" y="354.645" fill="#505050" xlink:href="#Headphone-Amplifier-ClassAB-alt4-1_svg__j"/>
  <use x="356.075" y="357.524" fill="#505050" xlink:href="#Headphone-Amplifier-ClassAB-alt4-1_svg__d"/>
  <use x="358.295" y="357.524" fill="#505050" xlink:href="#Headphone-Amplifier-ClassAB-alt4-1_svg__k"/>
  <use x="359.495" y="357.524" fill="#505050" xlink:href="#Headphone-Amplifier-ClassAB-alt4-1_svg__e"/>
  <use x="361.715" y="357.524" fill="#505050" xlink:href="#Headphone-Amplifier-ClassAB-alt4-1_svg__l"/>
  <use x="363.935" y="357.524" fill="#505050" xlink:href="#Headphone-Amplifier-ClassAB-alt4-1_svg__m"/>
  <use x="449.159" y="384.581" fill="#505050" xlink:href="#Headphone-Amplifier-ClassAB-alt4-1_svg__n"/>
  <use x="451.859" y="384.581" fill="#505050" xlink:href="#Headphone-Amplifier-ClassAB-alt4-1_svg__o"/>
  <use x="454.559" y="384.581" fill="#505050" xlink:href="#Headphone-Amplifier-ClassAB-alt4-1_svg__p"/>
  <use x="391.581" y="263.687" fill="#505050" xlink:href="#Headphone-Amplifier-ClassAB-alt4-1_svg__n"/>
  <use x="394.281" y="263.687" fill="#505050" xlink:href="#Headphone-Amplifier-ClassAB-alt4-1_svg__o"/>
  <use x="396.981" y="263.687" fill="#505050" xlink:href="#Headphone-Amplifier-ClassAB-alt4-1_svg__p"/>
  <use x="413.172" y="248.143" fill="#505050" xlink:href="#Headphone-Amplifier-ClassAB-alt4-1_svg__d"/>
  <use x="415.392" y="248.143" fill="#505050" xlink:href="#Headphone-Amplifier-ClassAB-alt4-1_svg__e"/>
  <use x="417.612" y="248.143" fill="#505050" xlink:href="#Headphone-Amplifier-ClassAB-alt4-1_svg__i"/>
  <use x="419.832" y="248.143" fill="#505050" xlink:href="#Headphone-Amplifier-ClassAB-alt4-1_svg__l"/>
  <use x="422.053" y="248.143" fill="#505050" xlink:href="#Headphone-Amplifier-ClassAB-alt4-1_svg__m"/>
  <use x="459.234" y="317.226" fill="#505050" xlink:href="#Headphone-Amplifier-ClassAB-alt4-1_svg__h"/>
  <use x="461.454" y="317.226" fill="#505050" xlink:href="#Headphone-Amplifier-ClassAB-alt4-1_svg__i"/>
  <use x="463.674" y="317.226" fill="#505050" xlink:href="#Headphone-Amplifier-ClassAB-alt4-1_svg__i"/>
  <use x="465.894" y="317.226" fill="#505050" xlink:href="#Headphone-Amplifier-ClassAB-alt4-1_svg__l"/>
  <use x="468.114" y="317.226" fill="#505050" xlink:href="#Headphone-Amplifier-ClassAB-alt4-1_svg__m"/>
  <use x="519.632" y="218.206" fill="#505050" xlink:href="#Headphone-Amplifier-ClassAB-alt4-1_svg__q"/>
  <use x="522.032" y="218.206" fill="#505050" xlink:href="#Headphone-Amplifier-ClassAB-alt4-1_svg__r"/>
  <use x="381.829" y="343.13" fill="#505050" xlink:href="#Headphone-Amplifier-ClassAB-alt4-1_svg__s"/>
  <use x="384.169" y="343.13" fill="#505050" xlink:href="#Headphone-Amplifier-ClassAB-alt4-1_svg__h"/>
  <use x="456.057" y="325.86" fill="#505050" xlink:href="#Headphone-Amplifier-ClassAB-alt4-1_svg__s"/>
  <use x="458.398" y="325.86" fill="#505050" xlink:href="#Headphone-Amplifier-ClassAB-alt4-1_svg__g"/>
  <use x="424.39" y="299.955" fill="#505050" xlink:href="#Headphone-Amplifier-ClassAB-alt4-1_svg__p"/>
  <use x="427.09" y="299.955" fill="#505050" xlink:href="#Headphone-Amplifier-ClassAB-alt4-1_svg__h"/>
  <use x="424.39" y="322.983" fill="#505050" xlink:href="#Headphone-Amplifier-ClassAB-alt4-1_svg__p"/>
  <use x="427.09" y="322.983" fill="#505050" xlink:href="#Headphone-Amplifier-ClassAB-alt4-1_svg__g"/>
  <use x="439.406" y="279.805" fill="#505050" xlink:href="#Headphone-Amplifier-ClassAB-alt4-1_svg__s"/>
  <use x="441.746" y="279.805" fill="#505050" xlink:href="#Headphone-Amplifier-ClassAB-alt4-1_svg__f"/>
  <use x="393.261" y="305.193" fill="#505050" xlink:href="#Headphone-Amplifier-ClassAB-alt4-1_svg__t"/>
  <use x="395.781" y="305.193" fill="#505050" xlink:href="#Headphone-Amplifier-ClassAB-alt4-1_svg__h"/>
  <use x="433.566" y="259.138" fill="#505050" xlink:href="#Headphone-Amplifier-ClassAB-alt4-1_svg__t"/>
  <use x="436.085" y="259.138" fill="#505050" xlink:href="#Headphone-Amplifier-ClassAB-alt4-1_svg__g"/>
  <use x="490.604" y="282.683" fill="#505050" xlink:href="#Headphone-Amplifier-ClassAB-alt4-1_svg__t"/>
  <use x="493.124" y="282.683" fill="#505050" xlink:href="#Headphone-Amplifier-ClassAB-alt4-1_svg__f"/>
  <use x="502.658" y="236.11" fill="#505050" xlink:href="#Headphone-Amplifier-ClassAB-alt4-1_svg__t"/>
  <use x="505.178" y="236.11" fill="#505050" xlink:href="#Headphone-Amplifier-ClassAB-alt4-1_svg__d"/>
  <use x="324.228" y="325.86" fill="#505050" xlink:href="#Headphone-Amplifier-ClassAB-alt4-1_svg__b"/>
  <use x="326.628" y="325.86" fill="#505050" xlink:href="#Headphone-Amplifier-ClassAB-alt4-1_svg__h"/>
  <use x="330.405" y="346.009" fill="#505050" xlink:href="#Headphone-Amplifier-ClassAB-alt4-1_svg__t"/>
  <use x="332.925" y="346.009" fill="#505050" xlink:href="#Headphone-Amplifier-ClassAB-alt4-1_svg__c"/>
  <use x="358.774" y="343.13" fill="#505050" xlink:href="#Headphone-Amplifier-ClassAB-alt4-1_svg__b"/>
  <use x="361.174" y="343.13" fill="#505050" xlink:href="#Headphone-Amplifier-ClassAB-alt4-1_svg__g"/>
  <use x="416.352" y="233.75" fill="#505050" xlink:href="#Headphone-Amplifier-ClassAB-alt4-1_svg__b"/>
  <use x="418.752" y="233.75" fill="#505050" xlink:href="#Headphone-Amplifier-ClassAB-alt4-1_svg__f"/>
  <use x="462.414" y="302.833" fill="#505050" xlink:href="#Headphone-Amplifier-ClassAB-alt4-1_svg__b"/>
  <use x="464.814" y="302.833" fill="#505050" xlink:href="#Headphone-Amplifier-ClassAB-alt4-1_svg__d"/>
  <use x="287.701" y="333.057" fill="#505050" xlink:href="#Headphone-Amplifier-ClassAB-alt4-1_svg__u"/>
  <use x="289.201" y="333.057" fill="#505050" xlink:href="#Headphone-Amplifier-ClassAB-alt4-1_svg__o"/>
  <use x="291.901" y="333.057" fill="#505050" xlink:href="#Headphone-Amplifier-ClassAB-alt4-1_svg__r"/>
  <use x="289.201" y="367.598" fill="#505050" xlink:href="#Headphone-Amplifier-ClassAB-alt4-1_svg__u"/>
  <use x="290.701" y="367.598" fill="#505050" xlink:href="#Headphone-Amplifier-ClassAB-alt4-1_svg__o"/>
  <use x="293.401" y="367.598" fill="#505050" xlink:href="#Headphone-Amplifier-ClassAB-alt4-1_svg__v"/>
  <use x="542.424" y="240.947" fill="#505050" xlink:href="#Headphone-Amplifier-ClassAB-alt4-1_svg__a"/>
  <use x="544.763" y="240.947" fill="#505050" xlink:href="#Headphone-Amplifier-ClassAB-alt4-1_svg__w"/>
  <use x="547.163" y="240.947" fill="#505050" xlink:href="#Headphone-Amplifier-ClassAB-alt4-1_svg__s"/>
  <use x="549.503" y="240.947" fill="#505050" xlink:href="#Headphone-Amplifier-ClassAB-alt4-1_svg__r"/>
  <use x="542.424" y="367.598" fill="#505050" xlink:href="#Headphone-Amplifier-ClassAB-alt4-1_svg__a"/>
  <use x="544.763" y="367.598" fill="#505050" xlink:href="#Headphone-Amplifier-ClassAB-alt4-1_svg__w"/>
  <use x="547.163" y="367.598" fill="#505050" xlink:href="#Headphone-Amplifier-ClassAB-alt4-1_svg__s"/>
  <use x="549.503" y="367.598" fill="#505050" xlink:href="#Headphone-Amplifier-ClassAB-alt4-1_svg__v"/>
  <use x="542.424" y="263.975" fill="#505050" xlink:href="#Headphone-Amplifier-ClassAB-alt4-1_svg__x"/>
  <use x="545.124" y="263.975" fill="#505050" xlink:href="#Headphone-Amplifier-ClassAB-alt4-1_svg__p"/>
  <use x="547.824" y="263.975" fill="#505050" xlink:href="#Headphone-Amplifier-ClassAB-alt4-1_svg__y"/>
  <use x="550.044" y="263.975" fill="#505050" xlink:href="#Headphone-Amplifier-ClassAB-alt4-1_svg__x"/>
  <use x="552.744" y="263.975" fill="#505050" xlink:href="#Headphone-Amplifier-ClassAB-alt4-1_svg__r"/>
  <use x="542.424" y="310.03" fill="#505050" xlink:href="#Headphone-Amplifier-ClassAB-alt4-1_svg__x"/>
  <use x="545.124" y="310.03" fill="#505050" xlink:href="#Headphone-Amplifier-ClassAB-alt4-1_svg__p"/>
  <use x="547.824" y="310.03" fill="#505050" xlink:href="#Headphone-Amplifier-ClassAB-alt4-1_svg__y"/>
  <use x="550.044" y="310.03" fill="#505050" xlink:href="#Headphone-Amplifier-ClassAB-alt4-1_svg__x"/>
  <use x="552.744" y="310.03" fill="#505050" xlink:href="#Headphone-Amplifier-ClassAB-alt4-1_svg__v"/>
  <path fill="none" stroke="maroon" stroke-linecap="round" stroke-linejoin="round" stroke-miterlimit="10" stroke-width=".36" d="M395.578 343.14L390 345.96m3.18 6l1.14 2.04m0 0l-2.34.3m0 0l1.2-2.34m2.398 2.7l-1.258-.66m0 0l-3.78-1.86"/>
  <path fill="none" stroke="maroon" stroke-linecap="round" stroke-linejoin="round" stroke-miterlimit="10" stroke-width=".72" d="M392.578 354l1.32-.121m0 0l-.718-1.32"/>
  <path fill="none" stroke="maroon" stroke-linecap="round" stroke-linejoin="round" stroke-miterlimit="10" stroke-width=".6" d="M393.18 352.559l-.602 1.14m0 .001h.844m0 0l-.242-.54"/>
  <path fill="maroon" stroke="maroon" stroke-linecap="round" stroke-linejoin="round" stroke-miterlimit="10" stroke-width=".12" d="M388.738 354.66h1.684v-11.52h-1.684zm0 0"/>
  <path fill="none" stroke="maroon" stroke-linecap="round" stroke-linejoin="round" stroke-miterlimit="10" stroke-width=".36" d="M384.059 348.898h5.761m5.758 11.524v-5.762m0-17.281v5.762"/>
  <path fill="none" stroke="maroon" stroke-linecap="round" stroke-linejoin="round" stroke-miterlimit="10" stroke-width=".9" d="M400.86 348.898a8.159 8.159 0 0 1-8.16 8.16 8.161 8.161 0 1 1 8.16-8.16zm0 0"/>
  <path fill="none" stroke="maroon" stroke-linecap="round" stroke-linejoin="round" stroke-miterlimit="10" stroke-width=".36" d="M452.16 327.84l-1.14-2.102m0 0l-2.399 2.524m0 0l3.54-.422m1.019-1.98l-1.68.96m1.68 10.559l-4.621-2.277"/>
  <path fill="none" stroke="maroon" stroke-linecap="round" stroke-linejoin="round" stroke-miterlimit="10" stroke-width=".6" d="M451.738 327.602l-.84-1.442m0 0l-1.738 1.738m0 0l2.281-.296m0 0l-.543-.903m0 .001l-.898.6m0 0h.898"/>
  <path fill="maroon" stroke="maroon" stroke-linecap="round" stroke-linejoin="round" stroke-miterlimit="10" stroke-width=".12" d="M446.879 337.379h1.68v-11.52h-1.68zm0 0"/>
  <path fill="none" stroke="maroon" stroke-linecap="round" stroke-linejoin="round" stroke-miterlimit="10" stroke-width=".36" d="M441.66 331.621h5.762m5.758-11.519v5.757m0 17.281v-5.761"/>
  <path fill="none" stroke="maroon" stroke-linecap="round" stroke-linejoin="round" stroke-miterlimit="10" stroke-width=".6" d="M458.46 331.621a8.159 8.159 0 0 1-8.16 8.16 8.159 8.159 0 0 1-8.16-8.16 8.159 8.159 0 0 1 8.16-8.16 8.159 8.159 0 0 1 8.16 8.16zm0 0"/>
  <path fill="none" stroke="maroon" stroke-linecap="round" stroke-linejoin="round" stroke-miterlimit="10" stroke-width=".36" d="M418.621 291.3v5.759m0 5.761v-5.761"/>
  <path fill="none" stroke="maroon" stroke-linecap="round" stroke-linejoin="round" stroke-miterlimit="10" stroke-width=".6" d="M415.738 294.18l2.883 5.761m0 0l2.879-5.761m0 5.761h-2.879m2.879-5.761h-5.762m2.883 5.761h-2.883"/>
  <path fill="none" stroke="maroon" stroke-linecap="round" stroke-linejoin="round" stroke-miterlimit="10" stroke-width=".36" d="M418.621 314.34v5.762m0 5.758v-5.758"/>
  <path fill="none" stroke="maroon" stroke-linecap="round" stroke-linejoin="round" stroke-miterlimit="10" stroke-width=".6" d="M415.738 317.219l2.883 5.761m0 0l2.879-5.761m0 5.761h-2.879m2.879-5.761h-5.762m2.883 5.761h-2.883"/>
  <path fill="none" stroke="maroon" stroke-linecap="round" stroke-linejoin="round" stroke-miterlimit="10" stroke-width=".36" d="M453.18 279.781l-5.64 2.82m3.179 6.059l1.14 2.04m.001 0l-2.282.241m0 0l1.14-2.28m2.462 2.639l-1.32-.6m0 0l-3.72-1.919"/>
  <path fill="none" stroke="maroon" stroke-linecap="round" stroke-linejoin="round" stroke-miterlimit="10" stroke-width=".72" d="M450.18 290.7l1.261-.18m0 0l-.722-1.258"/>
  <path fill="none" stroke="maroon" stroke-linecap="round" stroke-linejoin="round" stroke-miterlimit="10" stroke-width=".6" d="M450.719 289.262l-.54 1.136m.001 0h.84m0 0l-.301-.597"/>
  <path fill="maroon" stroke="maroon" stroke-linecap="round" stroke-linejoin="round" stroke-miterlimit="10" stroke-width=".12" d="M446.281 291.3h1.68v-11.519h-1.68zm0 0"/>
  <path fill="none" stroke="maroon" stroke-linecap="round" stroke-linejoin="round" stroke-miterlimit="10" stroke-width=".36" d="M441.66 285.54h5.762m5.758 11.519V291.3m0-17.28v5.761"/>
  <path fill="none" stroke="maroon" stroke-linecap="round" stroke-linejoin="round" stroke-miterlimit="10" stroke-width=".9" d="M458.46 285.54a8.159 8.159 0 0 1-8.16 8.16 8.159 8.159 0 0 1-8.16-8.16 8.159 8.159 0 0 1 8.16-8.161 8.159 8.159 0 0 1 8.16 8.16zm0 0"/>
  <path fill="none" stroke="maroon" stroke-linecap="round" stroke-linejoin="round" stroke-miterlimit="10" stroke-width=".36" d="M407.102 308.578h-5.762m-17.281 0h5.761"/>
  <path fill="none" stroke="maroon" stroke-linecap="round" stroke-linejoin="round" stroke-miterlimit="10" stroke-width=".6" d="M389.82 310.621h11.52m0-4.019h-11.52m11.52 4.019v-4.02m-11.52 4.02v-4.02"/>
  <path fill="none" stroke="maroon" stroke-linecap="round" stroke-linejoin="round" stroke-miterlimit="10" stroke-width=".36" d="M447.422 262.559h-5.762m-17.281 0h5.762"/>
  <path fill="none" stroke="maroon" stroke-linecap="round" stroke-linejoin="round" stroke-miterlimit="10" stroke-width=".6" d="M430.14 264.54h11.52m0-4.02h-11.52m11.52 4.02v-4.02m-11.52 4.02v-4.02"/>
  <path fill="none" stroke="maroon" stroke-linecap="round" stroke-linejoin="round" stroke-miterlimit="10" stroke-width=".36" d="M487.738 274.02v5.761m0 17.278V291.3"/>
  <path fill="none" stroke="maroon" stroke-linecap="round" stroke-linejoin="round" stroke-miterlimit="10" stroke-width=".6" d="M485.7 291.3v-11.519m4.019 0v11.52m-4.019-11.52h4.019M485.7 291.3h4.019"/>
  <path fill="none" stroke="maroon" stroke-linecap="round" stroke-linejoin="round" stroke-miterlimit="10" stroke-width=".36" d="M516.54 239.52h-5.759m-17.281 0h5.762"/>
  <path fill="none" stroke="maroon" stroke-linecap="round" stroke-linejoin="round" stroke-miterlimit="10" stroke-width=".6" d="M499.262 241.5h11.52m-.001-4.02h-11.52m11.52 4.02v-4.02m-11.519 4.02v-4.02"/>
  <use x="329.388" y="329.458" fill="maroon" xlink:href="#Headphone-Amplifier-ClassAB-alt4-1_svg__r"/>
  <path fill="none" stroke="maroon" stroke-linecap="round" stroke-linejoin="round" stroke-miterlimit="10" stroke-width=".36" d="M320.762 331.621h4.02m7.499 0H328.5"/>
  <path fill="maroon" stroke="maroon" stroke-linecap="round" stroke-linejoin="round" stroke-miterlimit="10" stroke-width=".12" d="M324.48 336.238h1.438V327h-1.438zm0 0"/>
  <path fill="none" stroke="maroon" stroke-linecap="round" stroke-linejoin="round" stroke-miterlimit="10" stroke-width=".3" d="M328.5 327.18h-1.441m0 0v8.879m0 0h1.441m0 0v-4.438m0 0v-4.441"/>
  <path fill="none" stroke="maroon" stroke-linecap="round" stroke-linejoin="round" stroke-miterlimit="10" stroke-width=".6" d="M342.059 343.14v11.52m3.421 0v-11.52"/>
  <path fill="none" stroke="maroon" stroke-linecap="round" stroke-linejoin="round" stroke-miterlimit="10" stroke-width=".36" d="M349.559 348.898h-2.04"/>
  <path fill="none" stroke="maroon" stroke-linecap="round" stroke-linejoin="round" stroke-miterlimit="10" stroke-width=".6" d="M345.48 343.14h-3.421m0 11.52h3.421"/>
  <path fill="none" stroke="maroon" stroke-linecap="round" stroke-linejoin="round" stroke-miterlimit="10" stroke-width=".36" d="M338.04 354.66v-4.62m0 0l-1.142 2.28m1.142-2.28l1.14 2.28m4.62 8.102v-5.762m0-17.281v5.762m3.72 5.757l-7.98-3.957m-.661 1.019l-2.34-2.64m.001 0l3.358.48m-1.019 2.16l1.02-2.16"/>
  <use x="363.934" y="346.728" fill="maroon" xlink:href="#Headphone-Amplifier-ClassAB-alt4-1_svg__r"/>
  <path fill="none" stroke="maroon" stroke-linecap="round" stroke-linejoin="round" stroke-miterlimit="10" stroke-width=".36" d="M355.32 348.898h4.02m7.5 0h-3.781"/>
  <path fill="maroon" stroke="maroon" stroke-linecap="round" stroke-linejoin="round" stroke-miterlimit="10" stroke-width=".12" d="M359.04 353.52h1.44v-9.239h-1.44zm0 0"/>
  <path fill="none" stroke="maroon" stroke-linecap="round" stroke-linejoin="round" stroke-miterlimit="10" stroke-width=".3" d="M363.059 344.398h-1.438m0 0v8.942m0 0h1.438m0 0v-4.442m0 0v-4.5"/>
  <path fill="none" stroke="maroon" stroke-linecap="round" stroke-linejoin="round" stroke-miterlimit="10" stroke-width=".6" d="M449.46 377.7h7.438"/>
  <path fill="none" stroke="maroon" stroke-linecap="round" stroke-linejoin="round" stroke-miterlimit="10" stroke-width=".36" d="M453.18 371.941v5.758"/>
  <path fill="none" stroke="maroon" stroke-linecap="round" stroke-linejoin="round" stroke-miterlimit="10" stroke-width=".6" d="M450.898 378.84h4.563m-3.121 1.14h1.68M391.86 256.8h7.5"/>
  <path fill="none" stroke="maroon" stroke-linecap="round" stroke-linejoin="round" stroke-miterlimit="10" stroke-width=".36" d="M395.578 251.04v5.76"/>
  <path fill="none" stroke="maroon" stroke-linecap="round" stroke-linejoin="round" stroke-miterlimit="10" stroke-width=".6" d="M393.3 257.941h4.622m-3.184 1.137h1.742"/>
  <use x="421.511" y="237.348" fill="maroon" xlink:href="#Headphone-Amplifier-ClassAB-alt4-1_svg__r"/>
  <path fill="none" stroke="maroon" stroke-linecap="round" stroke-linejoin="round" stroke-miterlimit="10" stroke-width=".36" d="M412.86 239.52h4.019m7.5 0h-3.719"/>
  <path fill="maroon" stroke="maroon" stroke-linecap="round" stroke-linejoin="round" stroke-miterlimit="10" stroke-width=".12" d="M416.64 244.14h1.442v-9.242h-1.441zm0 0"/>
  <path fill="none" stroke="maroon" stroke-linecap="round" stroke-linejoin="round" stroke-miterlimit="10" stroke-width=".3" d="M420.66 235.02h-1.441m0 0v8.94m0 0h1.441m0 0v-4.44m0 0v-4.5"/>
  <use x="467.573" y="306.43" fill="maroon" xlink:href="#Headphone-Amplifier-ClassAB-alt4-1_svg__r"/>
  <path fill="none" stroke="maroon" stroke-linecap="round" stroke-linejoin="round" stroke-miterlimit="10" stroke-width=".36" d="M458.941 308.578h4.02m7.499 0h-3.78"/>
  <path fill="maroon" stroke="maroon" stroke-linecap="round" stroke-linejoin="round" stroke-miterlimit="10" stroke-width=".12" d="M462.66 313.2h1.442v-9.24h-1.442zm0 0"/>
  <path fill="none" stroke="maroon" stroke-linecap="round" stroke-linejoin="round" stroke-miterlimit="10" stroke-width=".3" d="M466.68 304.14h-1.38m0 0v8.938m0 0h1.38m0 0v-4.5m0 0v-4.437"/>
  <path fill="none" stroke="maroon" stroke-linecap="round" stroke-linejoin="round" stroke-miterlimit="10" stroke-width=".6" d="M309.238 331.621h-5.758"/>
  <path fill="maroon" fill-rule="evenodd" d="M297.422 331.621l.117-.902.422-.84.539-.66.781-.48.84-.239h.899l.902.238.777.48.54.66.421.84.121.903-.12.899-.423.78-.539.72-.777.48-.902.238h-.899l-.84-.238-.781-.48-.54-.72-.42-.78-.118-.899h.598l.12-.723.301-.66.48-.597.599-.36.718-.242h.723l.719.242.601.36.48.597.298.66.12.723-.12.719-.297.66-.48.602-.602.359-.72.238h-.722l-.718-.238-.598-.36-.48-.601-.301-.66-.121-.719h-.598"/>
  <path fill="none" stroke="maroon" stroke-linecap="round" stroke-linejoin="round" stroke-miterlimit="10" stroke-width=".12" d="M297.422 331.621l.117-.902.422-.84.539-.66.781-.48.84-.239h.899l.902.238.777.48.54.66.421.84.121.903-.12.899-.423.78-.539.72-.777.48-.902.238h-.899l-.84-.238-.781-.48-.54-.72-.42-.78-.118-.899h.598l.12-.723.301-.66.48-.597.599-.36.718-.242h.723l.719.242.601.36.48.597.298.66.12.723-.12.719-.297.66-.48.602-.602.359-.72.238h-.722l-.718-.238-.598-.36-.48-.601-.301-.66-.121-.719zm0 0"/>
  <path fill="none" stroke="maroon" stroke-linecap="round" stroke-linejoin="round" stroke-miterlimit="10" stroke-width=".6" d="M309.238 366.18h-5.758"/>
  <path fill="maroon" fill-rule="evenodd" d="M297.422 366.18l.117-.899.422-.84.539-.66.781-.48.84-.301h.899l.902.3.777.481.54.66.421.84.121.899-.12.84-.423.84-.539.718-.777.48-.902.243h-.899l-.84-.242-.781-.48-.54-.72-.42-.84-.118-.84h.598l.12-.78.301-.66.48-.54.599-.418.718-.18h.723l.719.18.601.418.48.54.298.66.12.78-.12.72-.297.66-.48.543-.602.418-.72.18h-.722l-.718-.18-.598-.418-.48-.543-.301-.66-.121-.72h-.598"/>
  <path fill="none" stroke="maroon" stroke-linecap="round" stroke-linejoin="round" stroke-miterlimit="10" stroke-width=".12" d="M297.422 366.18l.117-.899.422-.84.539-.66.781-.48.84-.301h.899l.902.3.777.481.54.66.421.84.121.899-.12.84-.423.84-.539.718-.777.48-.902.243h-.899l-.84-.242-.781-.48-.54-.72-.42-.84-.118-.84h.598l.12-.78.301-.66.48-.54.599-.418.718-.18h.723l.719.18.601.418.48.54.298.66.12.78-.12.72-.297.66-.48.543-.602.418-.72.18h-.722l-.718-.18-.598-.418-.48-.543-.301-.66-.121-.72zm0 0"/>
  <path fill="none" stroke="maroon" stroke-linecap="round" stroke-linejoin="round" stroke-miterlimit="10" stroke-width=".6" d="M528 239.52h5.762"/>
  <path fill="maroon" fill-rule="evenodd" d="M533.52 239.52l.12-.899.36-.84.602-.66.777-.48.84-.243h.902l.84.243.777.48.602.66.36.84.12.899-.12.902-.36.777-.602.723-.777.476-.84.243h-.902l-.84-.243-.777-.476-.602-.723-.36-.777-.12-.902h.539l.12-.72.301-.722.48-.539.661-.36.66-.238h.778l.66.239.66.36.48.538.301.723.121.719-.12.718-.302.66-.48.543-.66.418-.66.243h-.778l-.66-.243-.66-.418-.48-.543-.301-.66-.121-.718h-.54"/>
  <path fill="none" stroke="maroon" stroke-linecap="round" stroke-linejoin="round" stroke-miterlimit="10" stroke-width=".12" d="M533.52 239.52l.12-.899.36-.84.602-.66.777-.48.84-.243h.902l.84.243.777.48.602.66.36.84.12.899-.12.902-.36.777-.602.723-.777.476-.84.243h-.902l-.84-.243-.777-.476-.602-.723-.36-.777-.12-.902h.539l.12-.72.301-.722.48-.539.661-.36.66-.238h.778l.66.239.66.36.48.538.301.723.121.719-.12.718-.302.66-.48.543-.66.418-.66.243h-.778l-.66-.243-.66-.418-.48-.543-.301-.66-.121-.718zm0 0"/>
  <path fill="none" stroke="maroon" stroke-linecap="round" stroke-linejoin="round" stroke-miterlimit="10" stroke-width=".6" d="M528 366.18h5.762"/>
  <path fill="maroon" fill-rule="evenodd" d="M533.52 366.18l.12-.899.36-.84.602-.66.777-.48.84-.301h.902l.84.3.777.481.602.66.36.84.12.899-.12.84-.36.84-.602.718-.777.48-.84.243h-.902l-.84-.242-.777-.48-.602-.72-.36-.84-.12-.84h.539l.12-.78.301-.66.48-.54.661-.418.66-.18h.778l.66.18.66.418.48.54.301.66.121.78-.12.72-.302.66-.48.543-.66.418-.66.18h-.778l-.66-.18-.66-.418-.48-.543-.301-.66-.121-.72h-.54"/>
  <path fill="none" stroke="maroon" stroke-linecap="round" stroke-linejoin="round" stroke-miterlimit="10" stroke-width=".12" d="M533.52 366.18l.12-.899.36-.84.602-.66.777-.48.84-.301h.902l.84.3.777.481.602.66.36.84.12.899-.12.84-.36.84-.602.718-.777.48-.84.243h-.902l-.84-.242-.777-.48-.602-.72-.36-.84-.12-.84h.539l.12-.78.301-.66.48-.54.661-.418.66-.18h.778l.66.18.66.418.48.54.301.66.121.78-.12.72-.302.66-.48.543-.66.418-.66.18h-.778l-.66-.18-.66-.418-.48-.543-.301-.66-.121-.72zm0 0"/>
  <path fill="none" stroke="maroon" stroke-linecap="round" stroke-linejoin="round" stroke-miterlimit="10" stroke-width=".6" d="M522.3 219.36l-2.878 5.761m0 0h2.879m-.001 0h2.88m0 0l-2.88-5.762m0 5.762V228m5.7 34.559h5.762"/>
  <path fill="maroon" fill-rule="evenodd" d="M533.52 262.559l.12-.899.36-.84.602-.66.777-.48.84-.301h.902l.84.3.777.481.602.66.36.84.12.899-.12.84-.36.84-.602.66-.777.542-.84.239h-.902l-.84-.239-.777-.543-.602-.66-.36-.84-.12-.84h.539l.12-.777.301-.66.48-.543.661-.418.66-.18h.778l.66.18.66.418.48.543.301.66.121.778-.12.722-.302.66-.48.54-.66.417-.66.18h-.778l-.66-.18-.66-.418-.48-.539-.301-.66-.121-.722h-.54"/>
  <path fill="none" stroke="maroon" stroke-linecap="round" stroke-linejoin="round" stroke-miterlimit="10" stroke-width=".12" d="M533.52 262.559l.12-.899.36-.84.602-.66.777-.48.84-.301h.902l.84.3.777.481.602.66.36.84.12.899-.12.84-.36.84-.602.66-.777.542-.84.239h-.902l-.84-.239-.777-.543-.602-.66-.36-.84-.12-.84h.539l.12-.777.301-.66.48-.543.661-.418.66-.18h.778l.66.18.66.418.48.543.301.66.121.778-.12.722-.302.66-.48.54-.66.417-.66.18h-.778l-.66-.18-.66-.418-.48-.539-.301-.66-.121-.722zm0 0"/>
  <path fill="none" stroke="maroon" stroke-linecap="round" stroke-linejoin="round" stroke-miterlimit="10" stroke-width=".6" d="M528 308.578h5.762"/>
  <path fill="maroon" fill-rule="evenodd" d="M533.52 308.578l.12-.898.36-.782.602-.718.777-.48.84-.24h.902l.84.24.777.48.602.718.36.782.12.898-.12.902-.36.84-.602.66-.777.48-.84.24h-.902l-.84-.24-.777-.48-.602-.66-.36-.84-.12-.902h.539l.12-.719.301-.66.48-.539.661-.422.66-.238h.778l.66.238.66.422.48.54.301.66.121.718-.12.723-.302.66-.48.598-.66.363-.66.238h-.778l-.66-.238-.66-.363-.48-.598-.301-.66-.121-.723h-.54"/>
  <path fill="none" stroke="maroon" stroke-linecap="round" stroke-linejoin="round" stroke-miterlimit="10" stroke-width=".12" d="M533.52 308.578l.12-.898.36-.782.602-.718.777-.48.84-.24h.902l.84.24.777.48.602.718.36.782.12.898-.12.902-.36.84-.602.66-.777.48-.84.24h-.902l-.84-.24-.777-.48-.602-.66-.36-.84-.12-.902h.539l.12-.719.301-.66.48-.539.661-.422.66-.238h.778l.66.238.66.422.48.54.301.66.121.718-.12.723-.302.66-.48.598-.66.363-.66.238h-.778l-.66-.238-.66-.363-.48-.598-.301-.66-.121-.723zm0 0"/>
  <path fill="none" stroke="green" stroke-linecap="round" stroke-linejoin="round" stroke-miterlimit="10" stroke-width=".36" d="M441.66 285.54h-23.039m0 0v5.76m5.758-28.741h-5.758m0 0v22.98"/>
  <path fill="green" fill-rule="evenodd" d="M419.762 285.54a1.14 1.14 0 0 1-1.14 1.14 1.14 1.14 0 1 1 1.14-1.14"/>
  <path fill="none" stroke="green" stroke-linecap="round" stroke-linejoin="round" stroke-miterlimit="10" stroke-width=".12" d="M419.762 285.54a1.14 1.14 0 0 1-1.14 1.14 1.14 1.14 0 1 1 1.14-1.14zm0 0"/>
  <path fill="none" stroke="green" stroke-linecap="round" stroke-linejoin="round" stroke-miterlimit="10" stroke-width=".36" d="M441.66 331.621h-23.039m0 0v-5.762m-23.043 11.52v-5.758m0 0h23.043"/>
  <path fill="green" fill-rule="evenodd" d="M419.762 331.621a1.14 1.14 0 1 1-2.281 0c0-.633.507-1.14 1.14-1.14.629 0 1.14.507 1.14 1.14"/>
  <path fill="none" stroke="green" stroke-linecap="round" stroke-linejoin="round" stroke-miterlimit="10" stroke-width=".12" d="M419.762 331.621a1.14 1.14 0 1 1-2.281 0c0-.633.507-1.14 1.14-1.14.629 0 1.14.507 1.14 1.14zm0 0"/>
  <path fill="none" stroke="green" stroke-linecap="round" stroke-linejoin="round" stroke-miterlimit="10" stroke-width=".36" d="M418.621 314.34v-11.52m34.559-5.761v11.52m0-.001v11.524m-46.078-11.524h46.078"/>
  <path fill="green" fill-rule="evenodd" d="M454.32 308.578a1.14 1.14 0 1 1-2.279.002 1.14 1.14 0 0 1 2.28-.002"/>
  <path fill="none" stroke="green" stroke-linecap="round" stroke-linejoin="round" stroke-miterlimit="10" stroke-width=".12" d="M454.32 308.578a1.14 1.14 0 1 1-2.279.002 1.14 1.14 0 0 1 2.28-.002zm0 0"/>
  <path fill="none" stroke="green" stroke-linecap="round" stroke-linejoin="round" stroke-miterlimit="10" stroke-width=".36" d="M453.18 308.578h5.761m-126.66 23.043h11.52m-.001 5.758v-5.758m5.759 17.277h5.761m11.52 0h5.762m0 0h11.457m-11.457 0v-40.32m0 0h11.457"/>
  <path fill="green" fill-rule="evenodd" d="M373.738 348.898c0 .633-.508 1.141-1.136 1.141a1.137 1.137 0 0 1-1.141-1.14c0-.63.508-1.137 1.14-1.137.63 0 1.137.508 1.137 1.136"/>
  <path fill="none" stroke="green" stroke-linecap="round" stroke-linejoin="round" stroke-miterlimit="10" stroke-width=".12" d="M373.738 348.898c0 .633-.508 1.141-1.136 1.141a1.137 1.137 0 0 1-1.141-1.14c0-.63.508-1.137 1.14-1.137.63 0 1.137.508 1.137 1.136zm0 0"/>
  <path fill="none" stroke="green" stroke-linecap="round" stroke-linejoin="round" stroke-miterlimit="10" stroke-width=".36" d="M395.578 251.04v-11.52m0 0h17.281m40.321 103.62v23.04m0 0v5.761m-57.602-11.519v5.758m0 0h57.602"/>
  <path fill="green" fill-rule="evenodd" d="M454.32 366.18a1.14 1.14 0 1 1-2.282-.002 1.14 1.14 0 0 1 2.282.002"/>
  <path fill="none" stroke="green" stroke-linecap="round" stroke-linejoin="round" stroke-miterlimit="10" stroke-width=".12" d="M454.32 366.18a1.14 1.14 0 1 1-2.282-.002 1.14 1.14 0 0 1 2.282.002zm0 0"/>
  <path fill="green" fill-rule="evenodd" d="M396.719 366.18a1.14 1.14 0 1 1-2.28.002 1.14 1.14 0 0 1 2.28-.002"/>
  <path fill="none" stroke="green" stroke-linecap="round" stroke-linejoin="round" stroke-miterlimit="10" stroke-width=".12" d="M396.719 366.18a1.14 1.14 0 1 1-2.28.002 1.14 1.14 0 0 1 2.28-.002zm0 0"/>
  <path fill="none" stroke="green" stroke-linecap="round" stroke-linejoin="round" stroke-miterlimit="10" stroke-width=".36" d="M343.8 366.18h51.778m57.602 0H528m-184.2-5.758v5.758m-34.562 0h34.563"/>
  <path fill="green" fill-rule="evenodd" d="M344.941 366.18a1.14 1.14 0 1 1-2.282-.002 1.14 1.14 0 0 1 2.282.002"/>
  <path fill="none" stroke="green" stroke-linecap="round" stroke-linejoin="round" stroke-miterlimit="10" stroke-width=".12" d="M344.941 366.18a1.14 1.14 0 1 1-2.282-.002 1.14 1.14 0 0 1 2.282.002zm0 0"/>
  <path fill="none" stroke="green" stroke-linecap="round" stroke-linejoin="round" stroke-miterlimit="10" stroke-width=".36" d="M447.422 262.559h28.797m0 0v46.02m0-.001h-5.758"/>
  <path fill="green" fill-rule="evenodd" d="M477.36 308.578c0 .633-.508 1.14-1.141 1.14a1.14 1.14 0 1 1 0-2.277c.633 0 1.14.508 1.14 1.137"/>
  <path fill="none" stroke="green" stroke-linecap="round" stroke-linejoin="round" stroke-miterlimit="10" stroke-width=".12" d="M477.36 308.578c0 .633-.508 1.14-1.141 1.14a1.14 1.14 0 1 1 0-2.277c.633 0 1.14.508 1.14 1.137zm0 0"/>
  <path fill="none" stroke="green" stroke-linecap="round" stroke-linejoin="round" stroke-miterlimit="10" stroke-width=".36" d="M487.738 308.578h-11.52m11.52-11.519v11.52m0-.001H528"/>
  <path fill="green" fill-rule="evenodd" d="M488.879 308.578c0 .633-.508 1.14-1.14 1.14a1.136 1.136 0 0 1-1.137-1.14c0-.629.507-1.137 1.136-1.137.633 0 1.14.508 1.14 1.137"/>
  <path fill="none" stroke="green" stroke-linecap="round" stroke-linejoin="round" stroke-miterlimit="10" stroke-width=".12" d="M488.879 308.578c0 .633-.508 1.14-1.14 1.14a1.136 1.136 0 0 1-1.137-1.14c0-.629.507-1.137 1.136-1.137.633 0 1.14.508 1.14 1.137zm0 0"/>
  <path fill="none" stroke="green" stroke-linecap="round" stroke-linejoin="round" stroke-miterlimit="10" stroke-width=".36" d="M424.379 239.52h28.8m.001 0h34.558m0 0h5.762m-40.32 0v34.5"/>
  <path fill="green" fill-rule="evenodd" d="M454.32 239.52a1.14 1.14 0 1 1-2.278 0 1.14 1.14 0 0 1 2.278-.001"/>
  <path fill="none" stroke="green" stroke-linecap="round" stroke-linejoin="round" stroke-miterlimit="10" stroke-width=".12" d="M454.32 239.52a1.14 1.14 0 1 1-2.278 0 1.14 1.14 0 0 1 2.278-.001zm0 0"/>
  <path fill="green" fill-rule="evenodd" d="M488.879 239.52a1.14 1.14 0 1 1-2.279.002 1.14 1.14 0 0 1 2.279-.002"/>
  <path fill="none" stroke="green" stroke-linecap="round" stroke-linejoin="round" stroke-miterlimit="10" stroke-width=".12" d="M488.879 239.52a1.14 1.14 0 1 1-2.279.002 1.14 1.14 0 0 1 2.279-.002zm0 0"/>
  <path fill="none" stroke="green" stroke-linecap="round" stroke-linejoin="round" stroke-miterlimit="10" stroke-width=".36" d="M487.738 274.02v-11.461m0 0v-23.04m0 23.04H528"/>
  <path fill="green" fill-rule="evenodd" d="M488.879 262.559a1.14 1.14 0 1 1-2.279.002 1.14 1.14 0 0 1 2.279-.002"/>
  <path fill="none" stroke="green" stroke-linecap="round" stroke-linejoin="round" stroke-miterlimit="10" stroke-width=".12" d="M488.879 262.559a1.14 1.14 0 1 1-2.279.002 1.14 1.14 0 0 1 2.279-.002zm0 0"/>
  <path fill="none" stroke="green" stroke-linecap="round" stroke-linejoin="round" stroke-miterlimit="10" stroke-width=".36" d="M522.3 228v11.52m0 0h-5.76m5.76 0h5.7"/>
  <path fill="green" fill-rule="evenodd" d="M523.441 239.52a1.14 1.14 0 1 1-2.278 0 1.14 1.14 0 0 1 2.278-.001"/>
  <path fill="none" stroke="green" stroke-linecap="round" stroke-linejoin="round" stroke-miterlimit="10" stroke-width=".12" d="M523.441 239.52a1.14 1.14 0 1 1-2.278 0 1.14 1.14 0 0 1 2.278-.001zm0 0"/>
  <path fill="none" stroke="green" stroke-linecap="round" stroke-linejoin="round" stroke-miterlimit="10" stroke-width=".36" d="M309.238 331.621h11.524"/>
</svg>
