<svg xmlns:xlink="http://www.w3.org/1999/xlink" width="595pt" height="560" viewBox="0 0 595 420"><defs><symbol overflow="visible" id="a"><path d="M1.25.61h-.203V0H.813v.61H.046v.234l.781.906h.219V.797h.203zM.812.796v.672L.235.797zm0 0"/></symbol><symbol overflow="visible" id="b"><path d="M.5 0H.219v.328H.5zm0 0"/></symbol><symbol overflow="visible" id="c"><path d="M1.234 1.484L.47 0H.22l.797 1.547H.109v.203h1.125zm0 0"/></symbol><symbol overflow="visible" id="d"><path d="M1.188 0h-.22v.14A1.368 1.368 0 0 0 .767.017.456.456 0 0 0 .563-.03a.806.806 0 0 0-.156.015.343.343 0 0 0-.14.094.616.616 0 0 0-.11.375v.86h.219V.39C.383.348.395.305.406.266A.135.135 0 0 1 .484.203C.516.18.563.172.625.172c.05 0 .11.016.172.047a.985.985 0 0 1 .172.11v.984h.219zm0 0"/></symbol><symbol overflow="visible" id="e"><path d="M1.219 1.547H.406v-.5h.781V.844h-.78V0H.171v1.75h1.047zm0 0"/></symbol><symbol overflow="visible" id="f"><path d="M1.219.875c0-.313-.047-.543-.14-.688A.463.463 0 0 0 .655-.03a.463.463 0 0 0-.422.218C.141.333.094.564.094.875c0 .313.047.54.14.688a.47.47 0 0 0 .422.218.47.47 0 0 0 .422-.218c.094-.157.14-.387.14-.688zM.922.344c.02.05.035.125.047.219a3.248 3.248 0 0 1 0 .625 1.42 1.42 0 0 1-.047.218.42.42 0 0 1-.11.14.256.256 0 0 1-.156.048.248.248 0 0 1-.156-.047.375.375 0 0 1-.11-.14.862.862 0 0 1-.046-.22V.875a1.379 1.379 0 0 1 0-.313A.827.827 0 0 1 .39.345.234.234 0 0 1 .5.204C.531.171.582.155.656.155a.259.259 0 0 1 .156.048.42.42 0 0 1 .11.14zm0 0"/></symbol><symbol overflow="visible" id="g"><path d="M1.125 0h-.86v.172h.313v1.172H.266v.172a.61.61 0 0 1 .265.046c.051.032.082.094.094.188h.188V.172h.312zm0 0"/></symbol><symbol overflow="visible" id="h"><path d="M1.25 0H.953L.47.64.375.548V0H.156v1.828h.219V.766l.531.546h.266L.64.766zm0 0"/></symbol><symbol overflow="visible" id="i"><path d="M.594 1.578a.644.644 0 0 1-.125-.016 1.946 1.946 0 0 0-.125-.03.264.264 0 0 0-.094-.048.369.369 0 0 0-.078-.046H.156v.234a.812.812 0 0 0 .219.078c.082.02.164.031.25.031.07 0 .14-.008.203-.015a.648.648 0 0 0 .156-.079.6.6 0 0 0 .125-.14.554.554 0 0 0 .032-.188.369.369 0 0 0-.094-.25.407.407 0 0 0-.234-.14V.953C.852.941.894.93.938.922c.039-.024.082-.047.125-.078A.428.428 0 0 0 1.14.719a.6.6 0 0 0 .03-.203.822.822 0 0 0-.03-.22A.668.668 0 0 0 .844 0a.972.972 0 0 0-.25-.031 1.151 1.151 0 0 0-.485.11v.233h.016C.175.282.242.25.328.22a.692.692 0 0 1 .39-.032.36.36 0 0 1 .204.188C.93.416.937.47.937.532a.37.37 0 0 1-.03.156.166.166 0 0 1-.079.094.258.258 0 0 1-.11.063h-.25v.203h.079c.101 0 .191.023.265.078a.267.267 0 0 1 .063.328.17.17 0 0 1-.063.078.525.525 0 0 1-.093.047H.594zm0 0"/></symbol><symbol overflow="visible" id="j"><path d="M1.203 0H.125v.25a3.918 3.918 0 0 1 .422.422c.133.144.226.258.281.344a.71.71 0 0 1 .063.28c0 .04-.008.083-.016.126a1.302 1.302 0 0 0-.063.094.525.525 0 0 1-.093.046.713.713 0 0 1-.125.016.644.644 0 0 1-.125-.016 1.946 1.946 0 0 0-.125-.03.264.264 0 0 0-.094-.048.369.369 0 0 0-.078-.046v.25c.039.019.11.039.203.062.082.02.16.031.234.031A.579.579 0 0 0 1 1.656a.46.46 0 0 0 .14-.36.629.629 0 0 0-.03-.187.486.486 0 0 0-.063-.156A1.578 1.578 0 0 0 .813.656a2.516 2.516 0 0 0-.25-.25C.469.32.394.254.343.203h.86zm0 0"/></symbol><symbol overflow="visible" id="u"><path d="M.86-.031A.796.796 0 0 0 .546.03a.536.536 0 0 0-.25.172.582.582 0 0 0-.156.281 1.093 1.093 0 0 0-.063.391c0 .145.02.27.063.375.03.113.082.21.156.297.07.07.156.129.25.172a.796.796 0 0 0 .312.062c.063 0 .118-.008.172-.015.051-.012.098-.024.14-.032a.462.462 0 0 0 .11-.046 1 1 0 0 0 .125-.047v-.282H1.39a.245.245 0 0 0-.079.063c-.03.02-.074.047-.125.078-.042.02-.09.04-.14.063a1.296 1.296 0 0 1-.188.015.444.444 0 0 1-.203-.047.584.584 0 0 1-.187-.125.936.936 0 0 1-.11-.234.861.861 0 0 1-.046-.297c0-.125.015-.23.046-.313A.667.667 0 0 1 .484.345.282.282 0 0 1 .656.219.444.444 0 0 1 .86.172c.07 0 .133.004.188.016a.873.873 0 0 1 .156.062c.04.031.078.055.11.078.03.031.054.05.078.063h.015V.125a2.173 2.173 0 0 1-.11-.063L1.173.017c-.055-.012-.102-.02-.14-.032A.957.957 0 0 0 .858-.03zm0 0"/></symbol><symbol overflow="visible" id="y"><path d="M1.531 0h-.297L.672.703H.406V0H.172v1.75h.453c.102 0 .188-.008.25-.016a.556.556 0 0 0 .203-.078.412.412 0 0 0 .14-.156.487.487 0 0 0 .048-.219.528.528 0 0 0-.094-.328.534.534 0 0 0-.266-.187zm-.5 1.25c0 .05-.011.098-.031.14a.313.313 0 0 1-.078.094.419.419 0 0 1-.125.047.841.841 0 0 1-.156.016H.406V.89H.61c.07 0 .133.004.188.015.05.008.098.035.14.078a.239.239 0 0 1 .063.11c.02.05.031.101.031.156zm0 0"/></symbol><symbol overflow="visible" id="k"><path d="M1.828.719a.796.796 0 0 0-.062-.313.724.724 0 0 0-.172-.219 1.144 1.144 0 0 0-.297-.14A1.296 1.296 0 0 0 .907 0H.233v2.344H.86c.164 0 .29-.008.375-.016a.92.92 0 0 0 .25-.078.472.472 0 0 0 .188-.172.634.634 0 0 0 .047-.25.55.55 0 0 0-.078-.297.644.644 0 0 0-.25-.218.707.707 0 0 0 .328-.22.61.61 0 0 0 .11-.374zM1.391 1.78a.738.738 0 0 1-.016.14.27.27 0 0 1-.094.095.534.534 0 0 1-.172.062H.547V1.39h.36c.093 0 .163.004.218.015a.52.52 0 0 1 .14.063c.051.031.087.07.11.125.008.05.016.113.016.187zM1.516.703a.433.433 0 0 1-.047.219c-.024.062-.074.113-.157.156a.676.676 0 0 1-.156.047 2.019 2.019 0 0 1-.25.016h-.36V.266h.266c.133 0 .239.004.313.015.082.02.156.047.219.078A.51.51 0 0 1 1.469.5a.9.9 0 0 1 .047.203zm0 0"/></symbol><symbol overflow="visible" id="l"><path d="M1.156-.047C1-.047.86-.02.734.031a.724.724 0 0 0-.328.235A1.045 1.045 0 0 0 .187.64a1.6 1.6 0 0 0-.078.53c0 .196.024.368.079.516.039.145.109.274.203.391.093.102.207.18.343.235.125.05.266.078.422.078.082 0 .16-.008.235-.016.062-.012.125-.027.187-.047a1.36 1.36 0 0 0 .156-.047l.157-.094v-.374h-.032a.388.388 0 0 1-.109.093.69.69 0 0 1-.156.11 1.041 1.041 0 0 1-.188.078.972.972 0 0 1-.25.031.702.702 0 0 1-.516-.234.738.738 0 0 1-.156-.313 1.168 1.168 0 0 1-.062-.406c0-.156.02-.293.062-.406A.815.815 0 0 1 .641.469.655.655 0 0 1 .875.28a.885.885 0 0 1 .281-.047c.094 0 .176.008.25.032a.76.76 0 0 1 .203.078.586.586 0 0 1 .157.11 1 1 0 0 1 .093.077h.032V.156A2.829 2.829 0 0 1 1.75.094 1.758 1.758 0 0 0 1.578.03a1.16 1.16 0 0 0-.187-.062 1.847 1.847 0 0 0-.235-.016zm0 0"/></symbol><symbol overflow="visible" id="m"><path d="M1.594.75a.973.973 0 0 0-.047-.313.74.74 0 0 0-.156-.25.61.61 0 0 0-.25-.171.847.847 0 0 0-.329-.063c-.117 0-.226.012-.328.031-.117.032-.21.063-.28.094v.344h.015a.25.25 0 0 1 .11-.063.795.795 0 0 1 .14-.062A.813.813 0 0 1 .64.25.409.409 0 0 1 .812.219c.063 0 .125.015.188.047a.31.31 0 0 1 .156.109c.04.04.07.094.094.156a.72.72 0 0 1 0 .422.967.967 0 0 1-.11.14.648.648 0 0 1-.156.079.917.917 0 0 1-.234.031c-.086 0-.168-.012-.25-.031C.414 1.16.348 1.148.297 1.14v1.203h1.281v-.266H.594v-.625h.11a.32.32 0 0 1 .109.016c.113 0 .21-.012.296-.032a.788.788 0 0 0 .25-.125.573.573 0 0 0 .172-.218c.04-.086.063-.2.063-.344zm0 0"/></symbol><symbol overflow="visible" id="n"><path d="M1.688.813h-.282V0H1.11v.813H.063v.328l1.046 1.203h.297V1.063h.282zm-.579.25v.921l-.796-.921zm0 0"/></symbol><symbol overflow="visible" id="o"><path d="M1.656 2L.625 0H.297l1.078 2.078H.156v.266h1.5zm0 0"/></symbol><symbol overflow="visible" id="v"><path d="M2.094 1.172c0-.219-.043-.414-.125-.578a1.049 1.049 0 0 0-.36-.406A1.211 1.211 0 0 0 1.25.03 2.651 2.651 0 0 0 .781 0H.234v2.344h.547c.219 0 .39-.016.516-.047a1.14 1.14 0 0 0 .312-.125c.157-.106.274-.242.36-.406.082-.168.125-.368.125-.594zm-.328 0c0 .187-.032.344-.094.469a.63.63 0 0 1-.266.296.979.979 0 0 1-.265.11 1.72 1.72 0 0 1-.344.031h-.25V.266h.25c.133 0 .254.007.36.03a.783.783 0 0 1 .531.422c.05.126.078.274.078.454zm0 0"/></symbol><symbol overflow="visible" id="w"><path d="M1.5 0H.36v.234h.42v1.579H.36v.218c.157 0 .274.02.36.063.07.05.113.14.125.265h.25V.234H1.5zm0 0"/></symbol><symbol overflow="visible" id="x"><path d="M1.625 0H.172v.328C.273.43.375.523.469.61c.094.094.18.188.265.282.176.195.301.359.375.484a.737.737 0 0 1 .094.36.428.428 0 0 1-.11.297.814.814 0 0 1-.14.077.841.841 0 0 1-.156.016c-.055 0-.11-.008-.172-.016a4.337 4.337 0 0 0-.156-.062.342.342 0 0 1-.125-.063 2.172 2.172 0 0 1-.11-.062H.22v.344c.062.03.156.062.281.093.113.032.223.047.328.047.219 0 .39-.058.516-.172a.66.66 0 0 0 .187-.484.95.95 0 0 0-.031-.25 2.037 2.037 0 0 0-.094-.219c-.043-.062-.09-.133-.14-.203a1.746 1.746 0 0 0-.172-.203L.766.547A12.592 12.592 0 0 1 .469.266h1.156zm0 0"/></symbol><symbol overflow="visible" id="D"><path d="M.781 0v2.078H0v.266h1.89v-.266h-.796V0zm0 0"/></symbol><symbol overflow="visible" id="E"><path d="M.813 2.125c-.063 0-.122-.008-.172-.016l-.172-.062a2.172 2.172 0 0 1-.234-.125H.218v.328a1 1 0 0 0 .281.11 1.232 1.232 0 0 0 .61.015c.081-.031.156-.07.218-.11a.799.799 0 0 0 .156-.187.57.57 0 0 0 .047-.25.485.485 0 0 0-.125-.328.486.486 0 0 0-.297-.188v-.03l.157-.048a.602.602 0 0 0 .156-.109.651.651 0 0 0 .11-.172.83.83 0 0 0 0-.547A.774.774 0 0 0 1.125 0a1.039 1.039 0 0 0-.33-.047C.68-.047.567-.03.454 0a.83.83 0 0 0-.297.094v.328h.016A1.06 1.06 0 0 1 .438.297.774.774 0 0 1 .78.219c.064 0 .126.008.19.031a.31.31 0 0 1 .156.11c.05.038.086.093.11.156a.58.58 0 0 1 .03.203.487.487 0 0 1-.046.219.34.34 0 0 1-.094.125.376.376 0 0 1-.156.062 1.65 1.65 0 0 1-.203.016H.64v.265h.093a.57.57 0 0 1 .344.094c.094.07.14.172.14.297a.37.37 0 0 1-.03.156.415.415 0 0 1-.219.156c-.055.008-.106.016-.157.016zm0 0"/></symbol><symbol overflow="visible" id="F"><path d="M-.016 0l.797 2.344h.375L1.953 0h-.328l-.219.656h-.89L.296 0zm1.344.922l-.36 1.11L.595.921zm0 0"/></symbol><symbol overflow="visible" id="I"><path d="M1.953 0h-.312v1.156H.547V0H.234v2.344h.313v-.922H1.64v.922h.312zm0 0"/></symbol><symbol overflow="visible" id="J"><path d="M1.719 1.64a.782.782 0 0 0-.047-.28.793.793 0 0 0-.438-.423A1.231 1.231 0 0 0 .813.875H.546V0H.234v2.344h.594c.133 0 .254-.012.36-.031a.777.777 0 0 0 .469-.328.9.9 0 0 0 .062-.344zm-.328 0a.69.69 0 0 1-.032.204.491.491 0 0 1-.125.156.534.534 0 0 1-.171.063 2.314 2.314 0 0 1-.25.015H.546v-.937h.219c.125 0 .226.007.312.03.07.02.133.056.188.11.039.051.07.102.093.157.02.05.032.117.032.203zm0 0"/></symbol><symbol overflow="visible" id="K"><path d="M1.063 0H.14v.234h.312V2.11H.141v.235h.921V2.11H.766V.234h.296zm0 0"/></symbol><symbol overflow="visible" id="L"><path d="M1.922 0h-.36L.532 2.031V0H.233v2.344h.454l.937-1.86v1.86h.297zm0 0"/></symbol><symbol overflow="visible" id="p"><path d="M-.719 1.828a.796.796 0 0 0 .313-.062.724.724 0 0 0 .219-.172c.062-.094.109-.196.14-.297.031-.094.047-.227.047-.39V.233h-2.344V.86c0 .164.008.29.016.375a.92.92 0 0 0 .078.25.472.472 0 0 0 .172.188.634.634 0 0 0 .25.047.55.55 0 0 0 .297-.078.644.644 0 0 0 .218-.25.707.707 0 0 0 .22.328.61.61 0 0 0 .374.11zm-1.062-.437a.774.774 0 0 1-.14-.016.27.27 0 0 1-.095-.094.534.534 0 0 1-.062-.172V.547h.687v.36c0 .093-.004.163-.015.218a.52.52 0 0 1-.063.14.262.262 0 0 1-.125.11c-.05.008-.113.016-.187.016zm1.078.125a.433.433 0 0 1-.219-.047c-.062-.024-.113-.074-.156-.157a.676.676 0 0 1-.047-.156 2.019 2.019 0 0 1-.016-.25v-.36h.875v.266c0 .133-.004.239-.015.313-.02.082-.047.156-.078.219a.477.477 0 0 1-.141.125.924.924 0 0 1-.203.047zm0 0"/></symbol><symbol overflow="visible" id="q"><path d="M.047 1.156C.047 1 .02.86-.031.734A.724.724 0 0 0-.266.406 1.045 1.045 0 0 0-.64.187 1.6 1.6 0 0 0-1.17.11a1.48 1.48 0 0 0-.516.079 1.06 1.06 0 0 0-.391.203.928.928 0 0 0-.235.343c-.05.125-.078.266-.078.422 0 .082.008.16.016.235.012.062.027.125.047.187.012.05.027.102.047.156l.094.157h.374V1.86a.388.388 0 0 1-.093-.109.69.69 0 0 1-.11-.156 1.041 1.041 0 0 1-.078-.188.972.972 0 0 1-.031-.25.702.702 0 0 1 .234-.516.738.738 0 0 1 .313-.156c.117-.043.25-.062.406-.062.156 0 .293.02.406.062a.82.82 0 0 1 .297.157c.086.07.149.148.188.234a.885.885 0 0 1 .047.281.827.827 0 0 1-.032.25.76.76 0 0 1-.078.203.586.586 0 0 1-.11.157 1 1 0 0 1-.077.093v.032h.375c.023-.055.043-.102.062-.141.024-.055.043-.11.063-.172a1.16 1.16 0 0 0 .062-.187c.008-.063.016-.141.016-.235zm0 0"/></symbol><symbol overflow="visible" id="r"><path d="M-2.125.813c0-.063.008-.122.016-.172l.062-.172a2.172 2.172 0 0 1 .125-.234V.218h-.328A1 1 0 0 0-2.36.5a1.232 1.232 0 0 0-.015.61c.031.081.07.156.11.218a.799.799 0 0 0 .187.156.57.57 0 0 0 .25.047.485.485 0 0 0 .328-.125.486.486 0 0 0 .188-.297h.03l.048.157c.023.05.058.101.109.156a.68.68 0 0 0 .172.11.83.83 0 0 0 .547 0A.774.774 0 0 0 0 1.125a1.06 1.06 0 0 0 .047-.33C.047.68.03.567 0 .454A.83.83 0 0 0-.094.156h-.328v.016c.043.062.086.148.125.266A.774.774 0 0 1-.219.78.525.525 0 0 1-.25.97a.31.31 0 0 1-.11.156.345.345 0 0 1-.156.11.568.568 0 0 1-.203.03.487.487 0 0 1-.219-.046.34.34 0 0 1-.125-.094.376.376 0 0 1-.062-.156 1.65 1.65 0 0 1-.016-.203V.64h-.265v.093a.57.57 0 0 1-.094.344.353.353 0 0 1-.297.14.37.37 0 0 1-.156-.03.415.415 0 0 1-.156-.219c-.008-.055-.016-.106-.016-.157zm0 0"/></symbol><symbol overflow="visible" id="s"><path d="M0 1.625V.172h-.328A9.33 9.33 0 0 0-.61.469c-.094.094-.188.18-.282.265a3.248 3.248 0 0 1-.484.375.737.737 0 0 1-.36.094.428.428 0 0 1-.297-.11.814.814 0 0 1-.077-.14.841.841 0 0 1-.016-.156c0-.055.008-.11.016-.172.023-.055.043-.105.062-.156a.342.342 0 0 1 .063-.125 2.76 2.76 0 0 1 .062-.11V.22h-.344a1.453 1.453 0 0 0-.092.28 1.232 1.232 0 0 0-.047.328c0 .219.058.39.172.516a.66.66 0 0 0 .484.187.95.95 0 0 0 .25-.031 2.08 2.08 0 0 0 .219-.094c.062-.043.133-.09.203-.14.074-.055.14-.11.203-.172l.328-.328C-.43.64-.336.539-.266.469v1.156zm0 0"/></symbol><symbol overflow="visible" id="t"><path d="M-2 1.656L0 .625V.297l-2.078 1.078V.156h-.266v1.5zm0 0"/></symbol><symbol overflow="visible" id="B"><path d="M0 .781h-2.078V0h-.266v1.89h.266v-.796H0zm0 0"/></symbol><symbol overflow="visible" id="C"><path d="M0 1.5V.36h-.234v.42h-1.579V.36h-.218c0 .157-.02.274-.063.36-.05.07-.14.113-.265.125v.25h2.125V1.5zm0 0"/></symbol><symbol overflow="visible" id="z"><path d="M2.563 0h-.516l-.922 1.156H.687V0h-.39v2.922h.75c.164 0 .305-.012.422-.031.113-.024.222-.063.328-.125a.8.8 0 0 0 .234-.25.751.751 0 0 0 .094-.391.797.797 0 0 0-.172-.531.913.913 0 0 0-.437-.328zm-.844 2.094a.6.6 0 0 1-.047.234.412.412 0 0 1-.14.156.446.446 0 0 1-.188.079c-.074.007-.168.019-.282.03H.688V1.485h.344c.102 0 .203.008.297.032.082.02.156.062.219.125a.38.38 0 0 1 .125.187.66.66 0 0 1 .047.266zm0 0"/></symbol><symbol overflow="visible" id="A"><path d="M1.984.922a1.29 1.29 0 0 0-.062-.39 1.304 1.304 0 0 0-.203-.313.757.757 0 0 0-.297-.203 1.075 1.075 0 0 0-.406-.079c-.149 0-.29.016-.422.047A1.2 1.2 0 0 0 .25.11v.407h.016c.03-.025.078-.048.14-.08C.457.414.52.392.594.36.664.336.734.316.797.297A1.16 1.16 0 0 1 1.016.28c.07 0 .148.016.234.047a.4.4 0 0 1 .188.125c.05.063.085.129.109.203.02.07.031.164.031.281a.868.868 0 0 1-.031.25.491.491 0 0 1-.125.157.644.644 0 0 1-.203.11c-.086.019-.18.03-.282.03a4 4 0 0 1-.312-.015 4.021 4.021 0 0 0-.266-.047v1.5h1.61v-.344H.734v-.781c.051.008.098.016.141.016H1c.156 0 .285-.012.39-.032.094-.031.192-.078.298-.14a.782.782 0 0 0 .218-.282c.051-.117.078-.261.078-.437zm0 0"/></symbol><symbol overflow="visible" id="G"><path d="M1.281 1.094H.171v.36h1.11zm0 0"/></symbol><symbol overflow="visible" id="H"><path d="M-1.125 2.61v-.985h1v-.328h-1V.313h-.313v.984h-.984v.328h.985v.984zm0 0"/></symbol><symbol overflow="visible" id="M"><path d="M.563 0H.124v.094h.172v.578H.125V.75c.063 0 .11.008.14.031.032.02.047.051.047.094h.094V.094h.156zm0 0"/></symbol></defs><use xlink:href="#a" x="274.156" y="220.328" fill="#505050"/><use xlink:href="#b" x="275.476" y="220.328" fill="#505050"/><use xlink:href="#c" x="276.196" y="220.328" fill="#505050"/><use xlink:href="#d" x="277.516" y="220.328" fill="#505050"/><use xlink:href="#e" x="278.836" y="220.328" fill="#505050"/><use xlink:href="#a" x="274.156" y="205.948" fill="#505050"/><use xlink:href="#b" x="275.476" y="205.948" fill="#505050"/><use xlink:href="#c" x="276.196" y="205.948" fill="#505050"/><use xlink:href="#d" x="277.516" y="205.948" fill="#505050"/><use xlink:href="#e" x="278.836" y="205.948" fill="#505050"/><use xlink:href="#a" x="323.433" y="191.748" fill="#505050"/><use xlink:href="#c" x="324.753" y="191.748" fill="#505050"/><use xlink:href="#f" x="326.073" y="191.748" fill="#505050"/><use xlink:href="#d" x="327.393" y="191.748" fill="#505050"/><use xlink:href="#e" x="328.713" y="191.748" fill="#505050"/><use xlink:href="#g" x="317.678" y="217.215" fill="#505050"/><use xlink:href="#f" x="318.998" y="217.215" fill="#505050"/><use xlink:href="#f" x="320.318" y="217.215" fill="#505050"/><use xlink:href="#d" x="321.638" y="217.215" fill="#505050"/><use xlink:href="#e" x="322.958" y="217.215" fill="#505050"/><use xlink:href="#g" x="284.165" y="205.59" fill="#505050"/><use xlink:href="#f" x="285.485" y="205.59" fill="#505050"/><use xlink:href="#f" x="286.805" y="205.59" fill="#505050"/><use xlink:href="#h" x="288.125" y="205.59" fill="#505050"/><use xlink:href="#i" x="313.54" y="219.97" fill="#505050"/><use xlink:href="#i" x="314.86" y="219.97" fill="#505050"/><use xlink:href="#f" x="316.18" y="219.97" fill="#505050"/><use xlink:href="#g" x="313.54" y="227.16" fill="#505050"/><use xlink:href="#f" x="314.86" y="227.16" fill="#505050"/><use xlink:href="#f" x="316.18" y="227.16" fill="#505050"/><use xlink:href="#j" x="332.184" y="201.095" fill="#505050"/><use xlink:href="#c" x="333.504" y="201.095" fill="#505050"/><use xlink:href="#g" x="258.987" y="199.298" fill="#505050"/><use xlink:href="#f" x="260.307" y="199.298" fill="#505050"/><use xlink:href="#f" x="261.627" y="199.298" fill="#505050"/><use xlink:href="#h" x="262.947" y="199.298" fill="#505050"/><use xlink:href="#k" x="271.454" y="200.437" fill="#505050"/><use xlink:href="#l" x="273.374" y="200.437" fill="#505050"/><use xlink:href="#m" x="275.295" y="200.437" fill="#505050"/><use xlink:href="#n" x="277.035" y="200.437" fill="#505050"/><use xlink:href="#o" x="278.774" y="200.437" fill="#505050"/><use xlink:href="#p" x="302.273" y="194.74" fill="#505050"/><use xlink:href="#q" x="302.273" y="196.66" fill="#505050"/><use xlink:href="#r" x="302.273" y="198.58" fill="#505050"/><use xlink:href="#s" x="302.273" y="200.32" fill="#505050"/><use xlink:href="#t" x="302.273" y="202.06" fill="#505050"/><use xlink:href="#p" x="296.338" y="216.31" fill="#505050"/><use xlink:href="#q" x="296.338" y="218.23" fill="#505050"/><use xlink:href="#r" x="296.338" y="220.15" fill="#505050"/><use xlink:href="#r" x="296.338" y="221.89" fill="#505050"/><use xlink:href="#t" x="296.338" y="223.63" fill="#505050"/><use xlink:href="#u" x="264.922" y="232.314" fill="#505050"/><use xlink:href="#g" x="266.362" y="232.314" fill="#505050"/><use xlink:href="#u" x="264.922" y="217.934" fill="#505050"/><use xlink:href="#j" x="266.362" y="217.934" fill="#505050"/><use xlink:href="#u" x="322.714" y="205.711" fill="#505050"/><use xlink:href="#i" x="324.154" y="205.711" fill="#505050"/><use xlink:href="#u" x="303.768" y="207.566" fill="#505050"/><use xlink:href="#a" x="305.208" y="207.566" fill="#505050"/><use xlink:href="#v" x="285.303" y="214.216" fill="#505050"/><use xlink:href="#w" x="287.523" y="214.216" fill="#505050"/><use xlink:href="#v" x="284.228" y="225.124" fill="#505050"/><use xlink:href="#x" x="286.448" y="225.124" fill="#505050"/><use xlink:href="#y" x="285.305" y="209.125" fill="#505050"/><use xlink:href="#g" x="286.805" y="209.125" fill="#505050"/><use xlink:href="#y" x="314.08" y="223.505" fill="#505050"/><use xlink:href="#j" x="315.58" y="223.505" fill="#505050"/><use xlink:href="#y" x="314.08" y="230.695" fill="#505050"/><use xlink:href="#i" x="315.58" y="230.695" fill="#505050"/><use xlink:href="#y" x="332.124" y="216.497" fill="#505050"/><use xlink:href="#a" x="333.624" y="216.497" fill="#505050"/><use xlink:href="#z" x="259.227" y="226.203" fill="#505050"/><use xlink:href="#A" x="261.747" y="226.203" fill="#505050"/><use xlink:href="#B" x="277.095" y="194.504" fill="#505050"/><use xlink:href="#C" x="277.095" y="196.424" fill="#505050"/><use xlink:href="#D" x="308.326" y="189.77" fill="#505050"/><use xlink:href="#x" x="310.246" y="189.77" fill="#505050"/><use xlink:href="#D" x="298.613" y="219.67" fill="#505050"/><use xlink:href="#E" x="300.533" y="219.67" fill="#505050"/><path d="M275.98 228H274m0 0v2.52m0 0h-1.078m0 0v-5.04m0 0H274m0 0V228m-5.219 0h1.918m.001 0v-2.52m0 0h1.081m0 0v5.04m0 0H270.7m0 0V228m5.28-14.398H274m0 0v2.52m0-.001h-1.078m0 0v-5.043m0 0H274m0 0v2.524m-5.219 0h1.918m.001 0v-2.524m0 0h1.081m0 0v5.043m0 0H270.7m0 0v-2.52m52.198-8.281l-1.02.54-1.077.359-1.14.18h-1.141l-1.079-.18-1.14-.36-.961-.539m0-12.18l.96-.538 1.141-.364 1.079-.18h1.14l1.14.18 1.079.364 1.02.539" fill="none" stroke-width=".48" stroke-linecap="round" stroke-linejoin="round" stroke="#505050" stroke-miterlimit="10"/><path d="M290.32 213.602v1.796" fill="none" stroke-width=".36" stroke-linecap="round" stroke-linejoin="round" stroke="#505050" stroke-miterlimit="10"/><path d="M290.32 221.7v-.72m0 0v-2.699" fill="none" stroke-width=".24" stroke-linecap="round" stroke-linejoin="round" stroke="#505050" stroke-miterlimit="10"/><path d="M290.32 228v-1.8m-7.199 1.8v-1.8" fill="none" stroke-width=".36" stroke-linecap="round" stroke-linejoin="round" stroke="#505050" stroke-miterlimit="10"/><path d="M283.121 219.898v.723m0 0v2.7" fill="none" stroke-width=".24" stroke-linecap="round" stroke-linejoin="round" stroke="#505050" stroke-miterlimit="10"/><path d="M283.121 213.602v1.796" fill="none" stroke-width=".36" stroke-linecap="round" stroke-linejoin="round" stroke="#505050" stroke-miterlimit="10"/><path d="M297.52 206.398h-6.122m-15.418 0h6.06m44.28 14.402h-6.12m-15.481 0h6.12m15.481 7.2h-6.12m-15.481 0h6.12" fill="none" stroke-width=".72" stroke-linecap="round" stroke-linejoin="round" stroke="#505050" stroke-miterlimit="10"/><path d="M330.941 206.398a2.52 2.52 0 1 1 5.037.002 2.52 2.52 0 0 1-5.037-.002zm0 0" fill="none" stroke-width=".48" stroke-linecap="round" stroke-linejoin="round" stroke="#505050" stroke-miterlimit="10"/><path d="M331.66 206.398a1.8 1.8 0 0 1 3.602 0 1.801 1.801 0 0 1-3.602 0zm0 0" fill="none" stroke-width=".18" stroke-linecap="round" stroke-linejoin="round" stroke="#505050" stroke-miterlimit="10"/><path d="M333.52 206.398v7.204" fill="none" stroke-width="1.44" stroke-linecap="round" stroke-linejoin="round" stroke="#505050" stroke-miterlimit="10"/><path d="M330.941 206.398a2.52 2.52 0 1 1 5.037.002 2.52 2.52 0 0 1-5.037-.002zm0 0" fill="none" stroke-width=".48" stroke-linecap="round" stroke-linejoin="round" stroke="#505050" stroke-miterlimit="10"/><path d="M331.66 206.398a1.8 1.8 0 0 1 3.602 0 1.801 1.801 0 0 1-3.602 0zm0 0" fill="none" stroke-width=".18" stroke-linecap="round" stroke-linejoin="round" stroke="#505050" stroke-miterlimit="10"/><use xlink:href="#k" x="337.818" y="185.456" fill="#505050"/><use xlink:href="#F" x="339.738" y="185.456" fill="#505050"/><use xlink:href="#D" x="341.658" y="185.456" fill="#505050"/><path d="M337.121 202.86v-14.4m0 0h7.2m-.001 0v14.4m0 0h-7.199" fill="none" stroke-width=".36" stroke-linecap="round" stroke-linejoin="round" stroke="#505050" stroke-miterlimit="10"/><use xlink:href="#G" x="345.373" y="190.61" fill="#505050"/><use xlink:href="#H" x="347.533" y="197.8" fill="#505050"/><path d="M275.8 231.602h-.538m0 .538v-.538m0 0h-.543m.543 0v-.543M266.559 228a5.765 5.765 0 0 1 5.761-5.762 5.761 5.761 0 0 1 0 11.524 5.765 5.765 0 0 1-5.76-5.762zm0 0" fill="none" stroke-width=".48" stroke-linecap="round" stroke-linejoin="round" stroke="#505050" stroke-miterlimit="10"/><path d="M271.66 225.719h-.719v4.562h.72zm0 0" fill="#505050" stroke-width=".12" stroke-linecap="round" stroke-linejoin="round" stroke="#505050" stroke-miterlimit="10"/><path d="M275.8 217.2h-.538m0 .538v-.539m0 .001h-.543m.543 0v-.54m-8.703-3.058a5.759 5.759 0 1 1 11.52 0 5.758 5.758 0 0 1-5.759 5.757 5.761 5.761 0 0 1-5.761-5.757zm0 0" fill="none" stroke-width=".48" stroke-linecap="round" stroke-linejoin="round" stroke="#505050" stroke-miterlimit="10"/><path d="M271.66 211.32h-.719v4.559h.72zm0 0" fill="#505050" stroke-width=".12" stroke-linecap="round" stroke-linejoin="round" stroke="#505050" stroke-miterlimit="10"/><path d="M322.898 193.14l1.024.72.777.902.723 1.02.476 1.077.301 1.2.121 1.203-.12 1.199-.302 1.14-.476 1.137-.723 1.024-.777.84-1.024.718m-7.558 0l-1.02-.718-.84-.84-.66-1.024-.48-1.136-.3-1.141-.118-1.2.117-1.202.3-1.2.481-1.078.66-1.02.84-.902 1.02-.718m3.781 10.078v-1.797m0 0h-2.883m0 0v-1.442m0 0H322m0 0v1.442m0 0h-2.879m0-3.962v-2.16m1.801 8.278v-1.437m-.722.719h1.44" fill="none" stroke-width=".48" stroke-linecap="round" stroke-linejoin="round" stroke="#505050" stroke-miterlimit="10"/><path d="M322 197.102h-5.762v1.437H322zm0 0" fill="#505050" stroke-width=".12" stroke-linecap="round" stroke-linejoin="round" stroke="#505050" stroke-miterlimit="10"/><path d="M307.121 210.48l.719-.902.84-.719 1.02-.539 1.081-.36 1.14-.12 1.138.12 1.082.36 1.02.54.839.718.719.902m0 6.301l-.719.899-.84.718-1.02.543-1.081.297-1.137.121-1.14-.12-1.083-.298-1.02-.543-.84-.718-.718-.899m9.598-6.301l.543.961.297 1.079.12 1.082-.12 1.136-.297 1.082-.543.961m-9.598 0l-.543-.96-.297-1.083-.12-1.136.12-1.082.297-1.079.543-.96m8.758 3.121h-1.8m-.001 0v2.878m0 0h-1.437m-.001 0v-5.761m0 0h1.438m0 0v2.883m-3.957 0h-2.16m8.277-1.802h-1.437m.719.72v-1.442" fill="none" stroke-width=".48" stroke-linecap="round" stroke-linejoin="round" stroke="#505050" stroke-miterlimit="10"/><path d="M311.2 210.719h-1.438v5.761h1.437zm0 0" fill="#505050" stroke-width=".12" stroke-linecap="round" stroke-linejoin="round" stroke="#505050" stroke-miterlimit="10"/><path d="M292.121 222.96l-.062.481-.18.36-.36.36-.359.179-.48.058m-.72 0l-.42-.058-.419-.18-.3-.36-.18-.359-.121-.48m0-4.321l.12-.421.18-.418.301-.301.418-.238.422-.063m.719.001l.48.062.36.238.359.3.18.419.062.422m-2.161 5.757h.72m1.441-5.758v4.32m-3.601-4.32v4.32m1.44-5.76h.72" fill="none" stroke-width=".3" stroke-linecap="round" stroke-linejoin="round" stroke="#505050" stroke-miterlimit="10"/><path d="M291.398 219h-2.16m0 0l1.082 1.98m0 0l1.078-1.98m0 1.98h-1.078m0 0h-1.082" fill="none" stroke-width=".24" stroke-linecap="round" stroke-linejoin="round" stroke="#505050" stroke-miterlimit="10"/><path d="M292.121 222.422h-3.601v.719h3.601zm-1.5 2.156h-.601v1.563h.601zm0-9.058h-.601v1.562h.601zm0 0" fill="#505050" stroke-width=".12" stroke-linecap="round" stroke-linejoin="round" stroke="#505050" stroke-miterlimit="10"/><path d="M281.32 218.64l.121-.421.18-.418.3-.301.419-.238.422-.063m.718.001l.48.062.419.238.3.3.18.419.063.422m0 4.319l-.063.481-.18.36-.3.36-.418.179-.48.058m-.719 0l-.422-.058-.418-.18-.3-.36-.18-.359-.122-.48m2.16-5.761h-.718m-1.442 5.76v-4.32m3.602 4.32v-4.32m-1.442 5.758h-.718" fill="none" stroke-width=".3" stroke-linecap="round" stroke-linejoin="round" stroke="#505050" stroke-miterlimit="10"/><path d="M282.04 222.602h2.16m0 0l-1.079-1.98m0-.001l-1.082 1.98m.001-1.98h1.081m0 0h1.078" fill="none" stroke-width=".24" stroke-linecap="round" stroke-linejoin="round" stroke="#505050" stroke-miterlimit="10"/><path d="M284.922 218.46h-3.602v.72h3.602zm-1.5-2.94h-.602v1.562h.602zm0 9.058h-.602v1.563h.602zm0 0" fill="#505050" stroke-width=".12" stroke-linecap="round" stroke-linejoin="round" stroke="#505050" stroke-miterlimit="10"/><use xlink:href="#I" x="336.498" y="232.314" fill="#505050"/><use xlink:href="#v" x="338.658" y="232.314" fill="#505050"/><use xlink:href="#J" x="340.878" y="232.314" fill="#505050"/><use xlink:href="#I" x="342.678" y="232.314" fill="#505050"/><path d="M344.32 217.2v14.402m0 0h-7.199m0 0v-14.403m0 .001h7.2" fill="none" stroke-width=".36" stroke-linecap="round" stroke-linejoin="round" stroke="#505050" stroke-miterlimit="10"/><use xlink:href="#G" x="345.373" y="226.56" fill="#505050"/><use xlink:href="#H" x="347.533" y="219.31" fill="#505050"/><use xlink:href="#K" x="252.694" y="185.456" fill="#505050"/><use xlink:href="#L" x="253.894" y="185.456" fill="#505050"/><path d="M250.781 202.86v-14.4m0 0h7.2m-.001 0v14.4m0 0h-7.199" fill="none" stroke-width=".36" stroke-linecap="round" stroke-linejoin="round" stroke="#505050" stroke-miterlimit="10"/><use xlink:href="#G" x="248.259" y="190.61" fill="#505050"/><use xlink:href="#H" x="250.418" y="197.8" fill="#505050"/><path d="M283.84 208.2h-.238l-.243-.18-.18-.239-.058-.3m0-2.102l.059-.3.18-.24.242-.179h.238m5.762 0h.296l.243.18.12.238.06.3m-.001 2.102l-.058.301-.121.239-.243.18h-.296" fill="none" stroke-width=".48" stroke-linecap="round" stroke-linejoin="round" stroke="#505050" stroke-miterlimit="10"/><path d="M283.84 208.2h-.238l-.243-.18-.18-.239-.058-.3m0-2.102l.059-.3.18-.24.242-.179h.238m5.762 0h.296l.243.18.12.238.06.3m-.001 2.102l-.058.301-.121.239-.243.18h-.296m-6.481-2.821v2.101m6.481.72h-5.762m5.762-3.54h-5.762m6.48.719v2.101" fill="none" stroke-width=".48" stroke-linecap="round" stroke-linejoin="round" stroke="#505050" stroke-miterlimit="10"/><path d="M291.398 206.04h-1.078v.722h1.078zm-8.277 0h-1.082v.722h1.082zm0 0" fill="#505050" stroke-width=".12" stroke-linecap="round" stroke-linejoin="round" stroke="#505050" stroke-miterlimit="10"/><path d="M312.64 222.602l-.3-.063-.18-.117-.18-.242-.058-.301m0-2.16l.058-.239.18-.242.18-.18.3-.058m5.758 0l.301.059.18.18.18.241.062.239m0 2.16l-.062.3-.18.243-.18.117-.3.063" fill="none" stroke-width=".48" stroke-linecap="round" stroke-linejoin="round" stroke="#505050" stroke-miterlimit="10"/><path d="M312.64 222.602l-.3-.063-.18-.117-.18-.242-.058-.301m0-2.16l.058-.239.18-.242.18-.18.3-.058m5.758 0l.301.059.18.18.18.241.062.239m0 2.16l-.062.3-.18.243-.18.117-.3.063m-6.477-2.883v2.16m6.476.723h-5.757m5.757-3.602h-5.757m6.48.719v2.16" fill="none" stroke-width=".48" stroke-linecap="round" stroke-linejoin="round" stroke="#505050" stroke-miterlimit="10"/><path d="M320.2 220.441h-1.079v.72h1.078zm-8.278 0h-1.082v.72h1.082zm0 0" fill="#505050" stroke-width=".12" stroke-linecap="round" stroke-linejoin="round" stroke="#505050" stroke-miterlimit="10"/><path d="M312.64 229.8l-.3-.062-.36-.36-.058-.3m0-2.156l.058-.3.36-.36.3-.063m5.758.001l.301.062.36.36.062.3m0 2.156l-.062.3-.36.36-.3.063" fill="none" stroke-width=".48" stroke-linecap="round" stroke-linejoin="round" stroke="#505050" stroke-miterlimit="10"/><path d="M312.64 229.8l-.3-.062-.36-.36-.058-.3m0-2.156l.058-.3.36-.36.3-.063m5.758.001l.301.062.36.36.062.3m0 2.156l-.062.3-.36.36-.3.063m-6.477-2.879v2.156m6.476.722h-5.757m5.757-3.6h-5.757m6.48.722v2.156" fill="none" stroke-width=".48" stroke-linecap="round" stroke-linejoin="round" stroke="#505050" stroke-miterlimit="10"/><path d="M320.2 227.64h-1.079v.72h1.078zm-8.278 0h-1.082v.72h1.082zm0 0" fill="#505050" stroke-width=".12" stroke-linecap="round" stroke-linejoin="round" stroke="#505050" stroke-miterlimit="10"/><path d="M333.52 209.64v.72" fill="none" stroke-width="1.44" stroke-linecap="round" stroke-linejoin="round" stroke="#505050" stroke-miterlimit="10"/><path d="M257.98 202.86h7.2m0 0v21.538m0 0h-7.2m0 0V202.86m23.88 1.081h-11.82m-.9-7.921l.66-1.141.84-1.02 1.02-.84 1.14-.597 1.2-.48 1.32-.243h1.32l1.258.242 1.262.48 1.14.599.962.84.84 1.019.66 1.14m-14.34 3.243h15.058m-.718-3.242l.418 1.02.242 1.081.058 1.14m0 .001l-.058 1.078-.242 1.082-.418 1.02m.058-.001l-.422.778-.539.722m-12.719-1.5l-.421-1.02-.239-1.081-.058-1.078" fill="none" stroke-width=".36" stroke-linecap="round" stroke-linejoin="round" stroke="#505050" stroke-miterlimit="10"/><path d="M268.422 199.262l.058-1.14.239-1.083.422-1.02m.899 7.922l-.54-.78-.422-.782m40.32-9.059v11.88m-7.858.902l-1.142-.66-1.02-.903-.839-.96-.66-1.138-.418-1.261-.242-1.258v-1.32l.242-1.32.418-1.204.66-1.137.84-1.02 1.02-.843 1.14-.656m3.539 14.34v-15.063m-3.538.723l1.14-.422 1.199-.238 1.2-.063m-.001.001l.961.12.961.239.96.363m0 0l.72.418.718.48m-1.438 12.782l-.96.359-.96.18-.962.12m0 .001h-1.2l-1.198-.242-1.14-.418m7.858-.902l-.718.48-.782.422" fill="none" stroke-width=".36" stroke-linecap="round" stroke-linejoin="round" stroke="#505050" stroke-miterlimit="10"/><use xlink:href="#M" x="306.528" y="193.848" fill="#505050"/><path d="M292.84 226.738V214.86m7.922-.9l1.136.661 1.024.84.84 1.02.597 1.14.48 1.258.24 1.262v1.32l-.24 1.32-.48 1.2-.597 1.14-.84 1.02-1.024.84-1.136.66m-3.242-14.403v15.121m3.242-.719l-1.024.419-1.078.242-1.14.058m0 .001l-1.079-.122-1.082-.238-1.02-.36m.001 0l-.781-.421-.72-.48m1.501-12.779l1.02-.358 1.081-.243 1.079-.12m0-.001l1.14.063 1.078.238 1.024.422m-7.922.899l.781-.481.777-.418" fill="none" stroke-width=".36" stroke-linecap="round" stroke-linejoin="round" stroke="#505050" stroke-miterlimit="10"/><path d="M338.14 192.059a2.52 2.52 0 1 1 5.042.002 2.52 2.52 0 0 1-5.041-.002" fill-rule="evenodd" fill="green"/><path d="M338.14 192.059a2.52 2.52 0 1 1 5.042.002 2.52 2.52 0 0 1-5.041-.002zm0 0" fill="none" stroke-width=".12" stroke-linecap="round" stroke-linejoin="round" stroke="green" stroke-miterlimit="10"/><path d="M339.219 192.059a1.442 1.442 0 0 1 2.883 0c0 .796-.649 1.441-1.442 1.441a1.44 1.44 0 0 1-1.441-1.441" fill-rule="evenodd" fill="#fff"/><path d="M339.219 192.059a1.442 1.442 0 0 1 2.883 0c0 .796-.649 1.441-1.442 1.441a1.44 1.44 0 0 1-1.441-1.441zm0 0" fill="none" stroke-width=".06" stroke-linecap="square" stroke-linejoin="bevel" stroke="#000" stroke-miterlimit="10"/><path d="M338.14 199.262a2.521 2.521 0 0 1 2.52-2.524 2.521 2.521 0 0 1 0 5.043 2.52 2.52 0 0 1-2.52-2.52" fill-rule="evenodd" fill="green"/><path d="M338.14 199.262a2.521 2.521 0 0 1 2.52-2.524 2.521 2.521 0 0 1 0 5.043 2.52 2.52 0 0 1-2.52-2.52zm0 0" fill="none" stroke-width=".12" stroke-linecap="round" stroke-linejoin="round" stroke="green" stroke-miterlimit="10"/><path d="M339.219 199.262a1.44 1.44 0 1 1 2.88-.002 1.44 1.44 0 0 1-2.88.002" fill-rule="evenodd" fill="#fff"/><path d="M339.219 199.262a1.44 1.44 0 1 1 2.88-.002 1.44 1.44 0 0 1-2.88.002zm0 0" fill="none" stroke-width=".06" stroke-linecap="square" stroke-linejoin="bevel" stroke="#000" stroke-miterlimit="10"/><path d="M266.441 228a2.28 2.28 0 0 1 2.278-2.281 2.281 2.281 0 0 1 0 4.562A2.28 2.28 0 0 1 266.44 228" fill-rule="evenodd" fill="green"/><path d="M266.441 228a2.28 2.28 0 0 1 2.278-2.281 2.281 2.281 0 0 1 0 4.562A2.28 2.28 0 0 1 266.44 228zm0 0" fill="none" stroke-width=".12" stroke-linecap="round" stroke-linejoin="round" stroke="green" stroke-miterlimit="10"/><path d="M267.578 228a1.14 1.14 0 1 1 1.14 1.14c-.628 0-1.14-.511-1.14-1.14" fill-rule="evenodd" fill="#fff"/><path d="M267.578 228a1.14 1.14 0 1 1 1.14 1.14c-.628 0-1.14-.511-1.14-1.14zm0 0" fill="none" stroke-width=".06" stroke-linecap="square" stroke-linejoin="bevel" stroke="#000" stroke-miterlimit="10"/><path d="M278.262 225.719h-4.563v4.562h4.563zm0 0" fill="green" stroke-width=".12" stroke-linecap="round" stroke-linejoin="round" stroke="green" stroke-miterlimit="10"/><path d="M274.781 228a1.14 1.14 0 1 1 2.28-.002 1.14 1.14 0 0 1-2.28.002" fill-rule="evenodd" fill="#fff"/><path d="M274.781 228a1.14 1.14 0 1 1 2.28-.002 1.14 1.14 0 0 1-2.28.002zm0 0" fill="none" stroke-width=".06" stroke-linecap="square" stroke-linejoin="bevel" stroke="#000" stroke-miterlimit="10"/><path d="M266.441 213.602a2.278 2.278 0 1 1 4.559 0 2.278 2.278 0 0 1-2.281 2.277 2.277 2.277 0 0 1-2.278-2.277" fill-rule="evenodd" fill="green"/><path d="M266.441 213.602a2.278 2.278 0 1 1 4.559 0 2.278 2.278 0 0 1-2.281 2.277 2.277 2.277 0 0 1-2.278-2.277zm0 0" fill="none" stroke-width=".12" stroke-linecap="round" stroke-linejoin="round" stroke="green" stroke-miterlimit="10"/><path d="M267.578 213.602a1.14 1.14 0 1 1 2.277-.003 1.14 1.14 0 0 1-2.276.003" fill-rule="evenodd" fill="#fff"/><path d="M267.578 213.602a1.14 1.14 0 1 1 2.277-.003 1.14 1.14 0 0 1-2.276.003zm0 0" fill="none" stroke-width=".06" stroke-linecap="square" stroke-linejoin="bevel" stroke="#000" stroke-miterlimit="10"/><path d="M278.262 211.32h-4.563v4.559h4.563zm0 0" fill="green" stroke-width=".12" stroke-linecap="round" stroke-linejoin="round" stroke="green" stroke-miterlimit="10"/><path d="M274.781 213.602c0-.633.508-1.141 1.14-1.141.63 0 1.138.508 1.138 1.14 0 .63-.508 1.137-1.137 1.137-.633 0-1.14-.508-1.14-1.136" fill-rule="evenodd" fill="#fff"/><path d="M274.781 213.602c0-.633.508-1.141 1.14-1.141.63 0 1.138.508 1.138 1.14 0 .63-.508 1.137-1.137 1.137-.633 0-1.14-.508-1.14-1.136zm0 0" fill="none" stroke-width=".06" stroke-linecap="square" stroke-linejoin="bevel" stroke="#000" stroke-miterlimit="10"/><path d="M320.86 204.719h-3.481v3.363h3.48zm0 0" fill="green" stroke-width=".12" stroke-linecap="round" stroke-linejoin="round" stroke="green" stroke-miterlimit="10"/><path d="M318.04 206.398a1.02 1.02 0 1 1 1.019 1.024c-.563 0-1.02-.457-1.02-1.024" fill-rule="evenodd" fill="#fff"/><path d="M318.04 206.398a1.02 1.02 0 1 1 1.019 1.024c-.563 0-1.02-.457-1.02-1.024zm0 0" fill="none" stroke-width=".06" stroke-linecap="square" stroke-linejoin="bevel" stroke="#000" stroke-miterlimit="10"/><path d="M317.32 192.059c0-.926.778-1.68 1.739-1.68.96 0 1.742.754 1.742 1.68 0 .93-.781 1.68-1.742 1.68s-1.739-.75-1.739-1.68" fill-rule="evenodd" fill="green"/><path d="M317.32 192.059c0-.926.778-1.68 1.739-1.68.96 0 1.742.754 1.742 1.68 0 .93-.781 1.68-1.742 1.68s-1.739-.75-1.739-1.68zm0 0" fill="none" stroke-width=".12" stroke-linecap="round" stroke-linejoin="round" stroke="green" stroke-miterlimit="10"/><path d="M318.04 192.059a1.02 1.02 0 1 1 2.04.001 1.02 1.02 0 0 1-2.04-.001" fill-rule="evenodd" fill="#fff"/><path d="M318.04 192.059a1.02 1.02 0 1 1 2.04.001 1.02 1.02 0 0 1-2.04-.001zm0 0" fill="none" stroke-width=".06" stroke-linecap="square" stroke-linejoin="bevel" stroke="#000" stroke-miterlimit="10"/><path d="M320.86 212.879l-1.02-1.02h-1.442l-1.02 1.02v1.441l1.02 1.02h1.442l1.02-1.02v-1.441" fill="green"/><path d="M320.86 212.879l-1.02-1.02h-1.442l-1.02 1.02v1.441l1.02 1.02h1.442l1.02-1.02zm0 0" fill="none" stroke-width=".12" stroke-linecap="round" stroke-linejoin="round" stroke="green" stroke-miterlimit="10"/><path d="M318.04 213.602a1.02 1.02 0 0 1 1.019-1.024 1.021 1.021 0 0 1 0 2.043 1.02 1.02 0 0 1-1.02-1.02" fill-rule="evenodd" fill="#fff"/><path d="M318.04 213.602a1.02 1.02 0 0 1 1.019-1.024 1.021 1.021 0 0 1 0 2.043 1.02 1.02 0 0 1-1.02-1.02zm0 0" fill="none" stroke-width=".06" stroke-linecap="square" stroke-linejoin="bevel" stroke="#000" stroke-miterlimit="10"/><path d="M302.922 213.602c0-.93.777-1.68 1.738-1.68s1.738.75 1.738 1.68c0 .925-.777 1.68-1.738 1.68-.96 0-1.738-.755-1.738-1.68" fill-rule="evenodd" fill="green"/><path d="M302.922 213.602c0-.93.777-1.68 1.738-1.68s1.738.75 1.738 1.68c0 .925-.777 1.68-1.738 1.68-.96 0-1.738-.755-1.738-1.68zm0 0" fill="none" stroke-width=".12" stroke-linecap="round" stroke-linejoin="round" stroke="green" stroke-miterlimit="10"/><path d="M303.64 213.602c0-.567.458-1.024 1.02-1.024a1.021 1.021 0 0 1 0 2.043 1.02 1.02 0 0 1-1.02-1.02" fill-rule="evenodd" fill="#fff"/><path d="M303.64 213.602c0-.567.458-1.024 1.02-1.024a1.021 1.021 0 0 1 0 2.043 1.02 1.02 0 0 1-1.02-1.02zm0 0" fill="none" stroke-width=".06" stroke-linecap="square" stroke-linejoin="bevel" stroke="#000" stroke-miterlimit="10"/><path d="M288.398 228a1.862 1.862 0 0 1 3.723 0 1.861 1.861 0 0 1-3.723 0" fill-rule="evenodd" fill="green"/><path d="M288.398 228a1.862 1.862 0 0 1 3.723 0 1.861 1.861 0 0 1-3.723 0zm0 0" fill="none" stroke-width=".12" stroke-linecap="round" stroke-linejoin="round" stroke="green" stroke-miterlimit="10"/><path d="M289.121 228a1.14 1.14 0 1 1 2.279-.002 1.14 1.14 0 0 1-2.279.002" fill-rule="evenodd" fill="#fff"/><path d="M289.121 228a1.14 1.14 0 1 1 2.279-.002 1.14 1.14 0 0 1-2.279.002zm0 0" fill="none" stroke-width=".06" stroke-linecap="square" stroke-linejoin="bevel" stroke="#000" stroke-miterlimit="10"/><path d="M288.398 213.602c0-1.028.836-1.864 1.864-1.864a1.861 1.861 0 1 1-1.863 1.863" fill-rule="evenodd" fill="green"/><path d="M288.398 213.602c0-1.028.836-1.864 1.864-1.864a1.861 1.861 0 1 1-1.863 1.863zm0 0" fill="none" stroke-width=".12" stroke-linecap="round" stroke-linejoin="round" stroke="green" stroke-miterlimit="10"/><path d="M289.121 213.602c0-.633.508-1.141 1.14-1.141.63 0 1.137.508 1.137 1.14 0 .63-.507 1.137-1.136 1.137-.633 0-1.14-.508-1.14-1.136" fill-rule="evenodd" fill="#fff"/><path d="M289.121 213.602c0-.633.508-1.141 1.14-1.141.63 0 1.137.508 1.137 1.14 0 .63-.507 1.137-1.136 1.137-.633 0-1.14-.508-1.14-1.136zm0 0" fill="none" stroke-width=".06" stroke-linecap="square" stroke-linejoin="bevel" stroke="#000" stroke-miterlimit="10"/><path d="M281.2 213.602c0-1.028.831-1.864 1.859-1.864a1.862 1.862 0 1 1-1.86 1.863" fill-rule="evenodd" fill="green"/><path d="M281.2 213.602c0-1.028.831-1.864 1.859-1.864a1.862 1.862 0 1 1-1.86 1.863zm0 0" fill="none" stroke-width=".12" stroke-linecap="round" stroke-linejoin="round" stroke="green" stroke-miterlimit="10"/><path d="M281.922 213.602zm0 0" fill="none" stroke-width=".06" stroke-linecap="square" stroke-linejoin="bevel" stroke="#000" stroke-miterlimit="10"/><path d="M281.2 228a1.862 1.862 0 0 1 3.723 0 1.862 1.862 0 0 1-3.724 0" fill-rule="evenodd" fill="green"/><path d="M281.2 228a1.862 1.862 0 0 1 3.723 0 1.862 1.862 0 0 1-3.724 0zm0 0" fill="none" stroke-width=".12" stroke-linecap="round" stroke-linejoin="round" stroke="green" stroke-miterlimit="10"/><path d="M281.922 228a1.139 1.139 0 1 1 2.277 0 1.139 1.139 0 0 1-2.277 0" fill-rule="evenodd" fill="#fff"/><path d="M281.922 228a1.139 1.139 0 1 1 2.277 0 1.139 1.139 0 0 1-2.277 0zm0 0" fill="none" stroke-width=".06" stroke-linecap="square" stroke-linejoin="bevel" stroke="#000" stroke-miterlimit="10"/><path d="M338.14 228a2.52 2.52 0 0 1 5.04 0 2.52 2.52 0 0 1-5.04 0" fill-rule="evenodd" fill="green"/><path d="M338.14 228a2.52 2.52 0 0 1 5.04 0 2.52 2.52 0 0 1-5.04 0zm0 0" fill="none" stroke-width=".12" stroke-linecap="round" stroke-linejoin="round" stroke="green" stroke-miterlimit="10"/><path d="M339.219 228a1.44 1.44 0 1 1 2.88-.002 1.44 1.44 0 0 1-2.88.002" fill-rule="evenodd" fill="#fff"/><path d="M339.219 228a1.44 1.44 0 1 1 2.88-.002 1.44 1.44 0 0 1-2.88.002zm0 0" fill="none" stroke-width=".06" stroke-linecap="square" stroke-linejoin="bevel" stroke="#000" stroke-miterlimit="10"/><path d="M338.14 220.8a2.518 2.518 0 0 1 2.52-2.519 2.52 2.52 0 1 1-2.52 2.52" fill-rule="evenodd" fill="green"/><path d="M338.14 220.8a2.518 2.518 0 0 1 2.52-2.519 2.52 2.52 0 1 1-2.52 2.52zm0 0" fill="none" stroke-width=".12" stroke-linecap="round" stroke-linejoin="round" stroke="green" stroke-miterlimit="10"/><path d="M339.219 220.8a1.44 1.44 0 1 1 2.88-.001 1.44 1.44 0 0 1-2.88.002" fill-rule="evenodd" fill="#fff"/><path d="M339.219 220.8a1.44 1.44 0 1 1 2.88-.001 1.44 1.44 0 0 1-2.88.002zm0 0" fill="none" stroke-width=".06" stroke-linecap="square" stroke-linejoin="bevel" stroke="#000" stroke-miterlimit="10"/><path d="M251.8 192.059a2.52 2.52 0 1 1 5.042.002 2.52 2.52 0 0 1-5.041-.002" fill-rule="evenodd" fill="green"/><path d="M251.8 192.059a2.52 2.52 0 1 1 5.042.002 2.52 2.52 0 0 1-5.041-.002zm0 0" fill="none" stroke-width=".12" stroke-linecap="round" stroke-linejoin="round" stroke="green" stroke-miterlimit="10"/><path d="M252.879 192.059a1.442 1.442 0 0 1 2.883 0c0 .796-.649 1.441-1.442 1.441a1.44 1.44 0 0 1-1.441-1.441" fill-rule="evenodd" fill="#fff"/><path d="M252.879 192.059a1.442 1.442 0 0 1 2.883 0c0 .796-.649 1.441-1.442 1.441a1.44 1.44 0 0 1-1.441-1.441zm0 0" fill="none" stroke-width=".06" stroke-linecap="square" stroke-linejoin="bevel" stroke="#000" stroke-miterlimit="10"/><path d="M251.8 199.262a2.521 2.521 0 0 1 2.52-2.524 2.521 2.521 0 0 1 0 5.043 2.52 2.52 0 0 1-2.52-2.52" fill-rule="evenodd" fill="green"/><path d="M251.8 199.262a2.521 2.521 0 0 1 2.52-2.524 2.521 2.521 0 0 1 0 5.043 2.52 2.52 0 0 1-2.52-2.52zm0 0" fill="none" stroke-width=".12" stroke-linecap="round" stroke-linejoin="round" stroke="green" stroke-miterlimit="10"/><path d="M252.879 199.262a1.44 1.44 0 1 1 2.88-.002 1.44 1.44 0 0 1-2.88.002" fill-rule="evenodd" fill="#fff"/><path d="M252.879 199.262a1.44 1.44 0 1 1 2.88-.002 1.44 1.44 0 0 1-2.88.002zm0 0" fill="none" stroke-width=".06" stroke-linecap="square" stroke-linejoin="bevel" stroke="#000" stroke-miterlimit="10"/><path d="M295.719 206.398c0-.925.781-1.68 1.742-1.68.96 0 1.738.755 1.738 1.68 0 .93-.777 1.68-1.738 1.68s-1.742-.75-1.742-1.68" fill-rule="evenodd" fill="green"/><path d="M295.719 206.398c0-.925.781-1.68 1.742-1.68.96 0 1.738.755 1.738 1.68 0 .93-.777 1.68-1.738 1.68s-1.742-.75-1.742-1.68zm0 0" fill="none" stroke-width=".12" stroke-linecap="round" stroke-linejoin="round" stroke="green" stroke-miterlimit="10"/><path d="M296.441 206.398a1.02 1.02 0 1 1 1.02 1.024c-.563 0-1.02-.457-1.02-1.024" fill-rule="evenodd" fill="#fff"/><path d="M296.441 206.398a1.02 1.02 0 1 1 1.02 1.024c-.563 0-1.02-.457-1.02-1.024zm0 0" fill="none" stroke-width=".06" stroke-linecap="square" stroke-linejoin="bevel" stroke="#000" stroke-miterlimit="10"/><path d="M274.18 206.398c0-.925.78-1.68 1.742-1.68.96 0 1.738.755 1.738 1.68 0 .93-.777 1.68-1.738 1.68s-1.742-.75-1.742-1.68" fill-rule="evenodd" fill="green"/><path d="M274.18 206.398c0-.925.78-1.68 1.742-1.68.96 0 1.738.755 1.738 1.68 0 .93-.777 1.68-1.738 1.68s-1.742-.75-1.742-1.68zm0 0" fill="none" stroke-width=".12" stroke-linecap="round" stroke-linejoin="round" stroke="green" stroke-miterlimit="10"/><path d="M274.898 206.398a1.021 1.021 0 1 1 2.043.004 1.021 1.021 0 0 1-2.043-.004" fill-rule="evenodd" fill="#fff"/><path d="M274.898 206.398a1.021 1.021 0 1 1 2.043.004 1.021 1.021 0 0 1-2.043-.004zm0 0" fill="none" stroke-width=".06" stroke-linecap="square" stroke-linejoin="bevel" stroke="#000" stroke-miterlimit="10"/><path d="M324.52 220.8c0-.929.78-1.679 1.742-1.679.96 0 1.738.75 1.738 1.68 0 .926-.777 1.68-1.738 1.68s-1.742-.754-1.742-1.68" fill-rule="evenodd" fill="green"/><path d="M324.52 220.8c0-.929.78-1.679 1.742-1.679.96 0 1.738.75 1.738 1.68 0 .926-.777 1.68-1.738 1.68s-1.742-.754-1.742-1.68zm0 0" fill="none" stroke-width=".12" stroke-linecap="round" stroke-linejoin="round" stroke="green" stroke-miterlimit="10"/><path d="M325.238 220.8a1.021 1.021 0 0 1 2.043 0 1.021 1.021 0 1 1-2.043 0" fill-rule="evenodd" fill="#fff"/><path d="M325.238 220.8a1.021 1.021 0 0 1 2.043 0 1.021 1.021 0 1 1-2.043 0zm0 0" fill="none" stroke-width=".06" stroke-linecap="square" stroke-linejoin="bevel" stroke="#000" stroke-miterlimit="10"/><path d="M302.922 220.8c0-.929.777-1.679 1.738-1.679s1.738.75 1.738 1.68c0 .926-.777 1.68-1.738 1.68-.96 0-1.738-.754-1.738-1.68" fill-rule="evenodd" fill="green"/><path d="M302.922 220.8c0-.929.777-1.679 1.738-1.679s1.738.75 1.738 1.68c0 .926-.777 1.68-1.738 1.68-.96 0-1.738-.754-1.738-1.68zm0 0" fill="none" stroke-width=".12" stroke-linecap="round" stroke-linejoin="round" stroke="green" stroke-miterlimit="10"/><path d="M303.64 220.8a1.02 1.02 0 1 1 2.041.002 1.02 1.02 0 0 1-2.04-.001" fill-rule="evenodd" fill="#fff"/><path d="M303.64 220.8a1.02 1.02 0 1 1 2.041.002 1.02 1.02 0 0 1-2.04-.001zm0 0" fill="none" stroke-width=".06" stroke-linecap="square" stroke-linejoin="bevel" stroke="#000" stroke-miterlimit="10"/><path d="M324.52 228c0-.93.78-1.68 1.742-1.68.96 0 1.738.75 1.738 1.68 0 .93-.777 1.68-1.738 1.68s-1.742-.75-1.742-1.68" fill-rule="evenodd" fill="green"/><path d="M324.52 228c0-.93.78-1.68 1.742-1.68.96 0 1.738.75 1.738 1.68 0 .93-.777 1.68-1.738 1.68s-1.742-.75-1.742-1.68zm0 0" fill="none" stroke-width=".12" stroke-linecap="round" stroke-linejoin="round" stroke="green" stroke-miterlimit="10"/><path d="M325.238 228a1.021 1.021 0 0 1 2.043 0 1.021 1.021 0 1 1-2.043 0" fill-rule="evenodd" fill="#fff"/><path d="M325.238 228a1.021 1.021 0 0 1 2.043 0 1.021 1.021 0 1 1-2.043 0zm0 0" fill="none" stroke-width=".06" stroke-linecap="square" stroke-linejoin="bevel" stroke="#000" stroke-miterlimit="10"/><path d="M302.922 228c0-.93.777-1.68 1.738-1.68s1.738.75 1.738 1.68c0 .93-.777 1.68-1.738 1.68-.96 0-1.738-.75-1.738-1.68" fill-rule="evenodd" fill="green"/><path d="M302.922 228c0-.93.777-1.68 1.738-1.68s1.738.75 1.738 1.68c0 .93-.777 1.68-1.738 1.68-.96 0-1.738-.75-1.738-1.68zm0 0" fill="none" stroke-width=".12" stroke-linecap="round" stroke-linejoin="round" stroke="green" stroke-miterlimit="10"/><path d="M303.64 228a1.02 1.02 0 1 1 2.041.001 1.02 1.02 0 0 1-2.04-.001" fill-rule="evenodd" fill="#fff"/><path d="M303.64 228a1.02 1.02 0 1 1 2.041.001 1.02 1.02 0 0 1-2.04-.001zm0 0" fill="none" stroke-width=".06" stroke-linecap="square" stroke-linejoin="bevel" stroke="#000" stroke-miterlimit="10"/><path d="M331.602 206.398a1.859 1.859 0 1 1 3.718 0 1.862 1.862 0 0 1-1.86 1.864 1.862 1.862 0 0 1-1.858-1.864" fill-rule="evenodd" fill="green"/><path d="M331.602 206.398a1.859 1.859 0 1 1 3.718 0 1.862 1.862 0 0 1-1.86 1.864 1.862 1.862 0 0 1-1.858-1.864zm0 0" fill="none" stroke-width=".12" stroke-linecap="round" stroke-linejoin="round" stroke="green" stroke-miterlimit="10"/><path d="M332.32 206.398c0-.628.508-1.136 1.14-1.136a1.139 1.139 0 1 1 0 2.277c-.632 0-1.14-.508-1.14-1.14" fill-rule="evenodd" fill="#fff"/><path d="M332.32 206.398c0-.628.508-1.136 1.14-1.136a1.139 1.139 0 1 1 0 2.277c-.632 0-1.14-.508-1.14-1.14zm0 0" fill="none" stroke-width=".06" stroke-linecap="square" stroke-linejoin="bevel" stroke="#000" stroke-miterlimit="10"/><path d="M331.602 213.602c0-1.028.832-1.864 1.859-1.864a1.862 1.862 0 0 1 0 3.723 1.859 1.859 0 0 1-1.86-1.86" fill-rule="evenodd" fill="green"/><path d="M331.602 213.602c0-1.028.832-1.864 1.859-1.864a1.862 1.862 0 0 1 0 3.723 1.859 1.859 0 0 1-1.86-1.86zm0 0" fill="none" stroke-width=".12" stroke-linecap="round" stroke-linejoin="round" stroke="green" stroke-miterlimit="10"/><path d="M332.32 213.602a1.14 1.14 0 1 1 1.14 1.137c-.632 0-1.14-.509-1.14-1.137" fill-rule="evenodd" fill="#fff"/><path d="M332.32 213.602a1.14 1.14 0 1 1 1.14 1.137c-.632 0-1.14-.509-1.14-1.137zm0 0" fill="none" stroke-width=".06" stroke-linecap="square" stroke-linejoin="bevel" stroke="#000" stroke-miterlimit="10"/><path d="M264.102 219.781l-1.5-1.5h-2.043l-1.5 1.5v2.04l1.5 1.5h2.043l1.5-1.5v-2.04" fill="green"/><path d="M264.102 219.781l-1.5-1.5h-2.043l-1.5 1.5v2.04l1.5 1.5h2.043l1.5-1.5zm0 0" fill="none" stroke-width=".12" stroke-linecap="round" stroke-linejoin="round" stroke="green" stroke-miterlimit="10"/><path d="M260.262 220.8a1.26 1.26 0 1 1 2.52-.002 1.26 1.26 0 0 1-2.52.003" fill-rule="evenodd" fill="#fff"/><path d="M260.262 220.8a1.26 1.26 0 1 1 2.52-.002 1.26 1.26 0 0 1-2.52.003zm0 0" fill="none" stroke-width=".06" stroke-linecap="square" stroke-linejoin="bevel" stroke="#000" stroke-miterlimit="10"/><path d="M264.102 212.578l-1.5-1.5h-2.043l-1.5 1.5v2.043l1.5 1.5h2.043l1.5-1.5v-2.043" fill="green"/><path d="M264.102 212.578l-1.5-1.5h-2.043l-1.5 1.5v2.043l1.5 1.5h2.043l1.5-1.5zm0 0" fill="none" stroke-width=".12" stroke-linecap="round" stroke-linejoin="round" stroke="green" stroke-miterlimit="10"/><path d="M260.262 213.602c0-.7.562-1.262 1.258-1.262a1.26 1.26 0 1 1-1.258 1.262" fill-rule="evenodd" fill="#fff"/><path d="M260.262 213.602c0-.7.562-1.262 1.258-1.262a1.26 1.26 0 1 1-1.258 1.262zm0 0" fill="none" stroke-width=".06" stroke-linecap="square" stroke-linejoin="bevel" stroke="#000" stroke-miterlimit="10"/><path d="M264.102 203.879h-5.043v5.039h5.043zm0 0" fill="green" stroke-width=".12" stroke-linecap="round" stroke-linejoin="round" stroke="green" stroke-miterlimit="10"/><path d="M260.262 206.398a1.26 1.26 0 1 1 1.258 1.262 1.258 1.258 0 0 1-1.258-1.262" fill-rule="evenodd" fill="#fff"/><path d="M260.262 206.398a1.26 1.26 0 1 1 1.258 1.262 1.258 1.258 0 0 1-1.258-1.262zm0 0" fill="none" stroke-width=".06" stroke-linecap="square" stroke-linejoin="bevel" stroke="#000" stroke-miterlimit="10"/><path d="M281.02 199.262a2.041 2.041 0 1 1 4.082-.003 2.041 2.041 0 0 1-4.082.003" fill-rule="evenodd" fill="green"/><path d="M281.02 199.262a2.041 2.041 0 1 1 4.082-.003 2.041 2.041 0 0 1-4.082.003zm0 0" fill="none" stroke-width=".12" stroke-linecap="round" stroke-linejoin="round" stroke="green" stroke-miterlimit="10"/><path d="M282.04 199.262a1.02 1.02 0 0 1 1.019-1.024 1.021 1.021 0 0 1 0 2.043 1.02 1.02 0 0 1-1.02-1.02" fill-rule="evenodd" fill="#fff"/><path d="M282.04 199.262a1.02 1.02 0 0 1 1.019-1.024 1.021 1.021 0 0 1 0 2.043 1.02 1.02 0 0 1-1.02-1.02zm0 0" fill="none" stroke-width=".06" stroke-linecap="square" stroke-linejoin="bevel" stroke="#000" stroke-miterlimit="10"/><path d="M266.68 199.262a2.041 2.041 0 1 1 4.082-.003 2.041 2.041 0 0 1-4.082.003" fill-rule="evenodd" fill="green"/><path d="M266.68 199.262a2.041 2.041 0 1 1 4.082-.003 2.041 2.041 0 0 1-4.082.003zm0 0" fill="none" stroke-width=".12" stroke-linecap="round" stroke-linejoin="round" stroke="green" stroke-miterlimit="10"/><path d="M267.7 199.262a1.02 1.02 0 0 1 1.019-1.024 1.021 1.021 0 0 1 0 2.043 1.02 1.02 0 0 1-1.02-1.02" fill-rule="evenodd" fill="#fff"/><path d="M267.7 199.262a1.02 1.02 0 0 1 1.019-1.024 1.021 1.021 0 0 1 0 2.043 1.02 1.02 0 0 1-1.02-1.02zm0 0" fill="none" stroke-width=".06" stroke-linecap="square" stroke-linejoin="bevel" stroke="#000" stroke-miterlimit="10"/><path d="M273.879 199.262a2.042 2.042 0 1 1 4.082 0 2.04 2.04 0 0 1-4.082 0" fill-rule="evenodd" fill="green"/><path d="M273.879 199.262a2.042 2.042 0 1 1 4.082 0 2.04 2.04 0 0 1-4.082 0zm0 0" fill="none" stroke-width=".12" stroke-linecap="round" stroke-linejoin="round" stroke="green" stroke-miterlimit="10"/><path d="M274.898 199.262a1.022 1.022 0 1 1 2.044-.003 1.022 1.022 0 0 1-2.044.003" fill-rule="evenodd" fill="#fff"/><path d="M274.898 199.262a1.022 1.022 0 1 1 2.044-.003 1.022 1.022 0 0 1-2.044.003zm0 0" fill="none" stroke-width=".06" stroke-linecap="square" stroke-linejoin="bevel" stroke="#000" stroke-miterlimit="10"/><path d="M306.578 205.621l-1.078-1.082h-1.559l-1.082 1.082v1.559l1.082 1.082h1.559l1.078-1.082v-1.559" fill="green"/><path d="M306.578 205.621l-1.078-1.082h-1.559l-1.082 1.082v1.559l1.082 1.082h1.559l1.078-1.082zm0 0" fill="none" stroke-width=".12" stroke-linecap="round" stroke-linejoin="round" stroke="green" stroke-miterlimit="10"/><path d="M303.52 206.398c0-.628.511-1.136 1.14-1.136a1.139 1.139 0 1 1 0 2.277 1.14 1.14 0 0 1-1.14-1.14" fill-rule="evenodd" fill="#fff"/><path d="M303.52 206.398c0-.628.511-1.136 1.14-1.136a1.139 1.139 0 1 1 0 2.277 1.14 1.14 0 0 1-1.14-1.14zm0 0" fill="none" stroke-width=".06" stroke-linecap="square" stroke-linejoin="bevel" stroke="#000" stroke-miterlimit="10"/><path d="M306.578 191.281L305.5 190.2h-1.559l-1.082 1.082v1.559l1.082 1.082h1.559l1.078-1.082v-1.559" fill="green"/><path d="M306.578 191.281L305.5 190.2h-1.559l-1.082 1.082v1.559l1.082 1.082h1.559l1.078-1.082zm0 0" fill="none" stroke-width=".12" stroke-linecap="round" stroke-linejoin="round" stroke="green" stroke-miterlimit="10"/><path d="M303.52 192.059c0-.63.511-1.137 1.14-1.137a1.139 1.139 0 1 1 0 2.277c-.629 0-1.14-.512-1.14-1.14" fill-rule="evenodd" fill="#fff"/><path d="M303.52 192.059c0-.63.511-1.137 1.14-1.137a1.139 1.139 0 1 1 0 2.277 1.14 1.14 0 0 1-1.14-1.14zm0 0" fill="none" stroke-width=".06" stroke-linecap="square" stroke-linejoin="bevel" stroke="#000" stroke-miterlimit="10"/><path d="M306.578 198.48l-1.078-1.082h-1.559l-1.082 1.082v1.56l1.082 1.081h1.559l1.078-1.082v-1.559" fill="green"/><path d="M306.578 198.48l-1.078-1.082h-1.559l-1.082 1.082v1.56l1.082 1.081h1.559l1.078-1.082zm0 0" fill="none" stroke-width=".12" stroke-linecap="round" stroke-linejoin="round" stroke="green" stroke-miterlimit="10"/><path d="M303.52 199.262a1.14 1.14 0 1 1 2.278-.003 1.14 1.14 0 0 1-2.278.003" fill-rule="evenodd" fill="#fff"/><path d="M303.52 199.262a1.14 1.14 0 1 1 2.278-.003 1.14 1.14 0 0 1-2.278.003zm0 0" fill="none" stroke-width=".06" stroke-linecap="square" stroke-linejoin="bevel" stroke="#000" stroke-miterlimit="10"/><path d="M295.422 228c0-1.129.91-2.04 2.039-2.04a2.038 2.038 0 1 1 0 4.08 2.037 2.037 0 0 1-2.04-2.04" fill-rule="evenodd" fill="green"/><path d="M295.422 228c0-1.129.91-2.04 2.039-2.04a2.038 2.038 0 1 1 0 4.08 2.037 2.037 0 0 1-2.04-2.04zm0 0" fill="none" stroke-width=".12" stroke-linecap="round" stroke-linejoin="round" stroke="green" stroke-miterlimit="10"/><path d="M296.441 228a1.02 1.02 0 1 1 2.04.001 1.02 1.02 0 0 1-2.04-.001" fill-rule="evenodd" fill="#fff"/><path d="M296.441 228a1.02 1.02 0 1 1 2.04.001 1.02 1.02 0 0 1-2.04-.001zm0 0" fill="none" stroke-width=".06" stroke-linecap="square" stroke-linejoin="bevel" stroke="#000" stroke-miterlimit="10"/><path d="M295.422 213.602a2.039 2.039 0 1 1 4.078 0 2.038 2.038 0 1 1-4.078 0" fill-rule="evenodd" fill="green"/><path d="M295.422 213.602a2.039 2.039 0 1 1 4.078 0 2.038 2.038 0 1 1-4.078 0zm0 0" fill="none" stroke-width=".12" stroke-linecap="round" stroke-linejoin="round" stroke="green" stroke-miterlimit="10"/><path d="M296.441 213.602c0-.567.457-1.024 1.02-1.024a1.021 1.021 0 0 1 0 2.043 1.02 1.02 0 0 1-1.02-1.02" fill-rule="evenodd" fill="#fff"/><path d="M296.441 213.602c0-.567.457-1.024 1.02-1.024a1.021 1.021 0 0 1 0 2.043 1.02 1.02 0 0 1-1.02-1.02zm0 0" fill="none" stroke-width=".06" stroke-linecap="square" stroke-linejoin="bevel" stroke="#000" stroke-miterlimit="10"/><path d="M295.422 220.8c0-1.128.91-2.038 2.039-2.038a2.038 2.038 0 1 1 0 4.078 2.038 2.038 0 0 1-2.04-2.04" fill-rule="evenodd" fill="green"/><path d="M295.422 220.8c0-1.128.91-2.038 2.039-2.038a2.038 2.038 0 1 1 0 4.078 2.038 2.038 0 0 1-2.04-2.04zm0 0" fill="none" stroke-width=".12" stroke-linecap="round" stroke-linejoin="round" stroke="green" stroke-miterlimit="10"/><path d="M296.441 220.8a1.02 1.02 0 1 1 2.04.002 1.02 1.02 0 0 1-2.04-.001" fill-rule="evenodd" fill="#fff"/><path d="M296.441 220.8a1.02 1.02 0 1 1 2.04.002 1.02 1.02 0 0 1-2.04-.001zm0 0" fill="none" stroke-width=".06" stroke-linecap="square" stroke-linejoin="bevel" stroke="#000" stroke-miterlimit="10"/><path d="M304.719 220.8H290.32m0 0v-7.198m14.399-14.34H283.12m.001 14.34v-14.34m0 28.738h7.2m14.398-14.398h-7.2m.001 0v-7.204m7.199 0h-7.2M261.578 220.8h14.402m0 0v7.2m-7.199-14.398h-7.203m14.402 0v-7.204m0 0v-7.136m-21.601-7.203h50.34m-50.34 0h7.2m7.202 0h-7.203m0 0v7.203m57.543-7.203H304.72m14.401 0h21.598m-71.938 7.203h-7.203m0 0v7.136M326.32 220.8h-7.199m0 0v-7.198M340.719 228H326.32m0-7.2v7.2m0-14.398v-7.204m0 0h-7.199m0 0h-7.2m.001 0V228m0 0h-7.203m0 0h-7.2m43.2-7.2v-7.198m0 0h-7.2m-7.199 0h7.2m7.199-14.34h-7.2m.001 0v7.136m-79.141-7.136V228m0 0h14.402" fill="none" stroke-width="3.6" stroke-linecap="round" stroke-linejoin="round" stroke="navy" stroke-miterlimit="10"/><path d="M338.14 192.059a2.52 2.52 0 1 1 5.042.002 2.52 2.52 0 0 1-5.041-.002" fill-rule="evenodd" fill="green"/><path d="M338.14 192.059a2.52 2.52 0 1 1 5.042.002 2.52 2.52 0 0 1-5.041-.002zm0 0" fill="none" stroke-width=".12" stroke-linecap="round" stroke-linejoin="round" stroke="green" stroke-miterlimit="10"/><path d="M339.219 192.059a1.442 1.442 0 0 1 2.883 0c0 .796-.649 1.441-1.442 1.441a1.44 1.44 0 0 1-1.441-1.441" fill-rule="evenodd" fill="#fff"/><path d="M339.219 192.059a1.442 1.442 0 0 1 2.883 0c0 .796-.649 1.441-1.442 1.441a1.44 1.44 0 0 1-1.441-1.441zm0 0" fill="none" stroke-width=".06" stroke-linecap="square" stroke-linejoin="bevel" stroke="#000" stroke-miterlimit="10"/><path d="M338.14 199.262a2.521 2.521 0 0 1 2.52-2.524 2.521 2.521 0 0 1 0 5.043 2.52 2.52 0 0 1-2.52-2.52" fill-rule="evenodd" fill="green"/><path d="M338.14 199.262a2.521 2.521 0 0 1 2.52-2.524 2.521 2.521 0 0 1 0 5.043 2.52 2.52 0 0 1-2.52-2.52zm0 0" fill="none" stroke-width=".12" stroke-linecap="round" stroke-linejoin="round" stroke="green" stroke-miterlimit="10"/><path d="M339.219 199.262a1.44 1.44 0 1 1 2.88-.002 1.44 1.44 0 0 1-2.88.002" fill-rule="evenodd" fill="#fff"/><path d="M339.219 199.262a1.44 1.44 0 1 1 2.88-.002 1.44 1.44 0 0 1-2.88.002zm0 0" fill="none" stroke-width=".06" stroke-linecap="square" stroke-linejoin="bevel" stroke="#000" stroke-miterlimit="10"/><path d="M266.441 228a2.28 2.28 0 0 1 2.278-2.281 2.281 2.281 0 0 1 0 4.562A2.28 2.28 0 0 1 266.44 228" fill-rule="evenodd" fill="green"/><path d="M266.441 228a2.28 2.28 0 0 1 2.278-2.281 2.281 2.281 0 0 1 0 4.562A2.28 2.28 0 0 1 266.44 228zm0 0" fill="none" stroke-width=".12" stroke-linecap="round" stroke-linejoin="round" stroke="green" stroke-miterlimit="10"/><path d="M267.578 228a1.14 1.14 0 1 1 1.14 1.14c-.628 0-1.14-.511-1.14-1.14" fill-rule="evenodd" fill="#fff"/><path d="M267.578 228a1.14 1.14 0 1 1 1.14 1.14c-.628 0-1.14-.511-1.14-1.14zm0 0" fill="none" stroke-width=".06" stroke-linecap="square" stroke-linejoin="bevel" stroke="#000" stroke-miterlimit="10"/><path d="M278.262 225.719h-4.563v4.562h4.563zm0 0" fill="green" stroke-width=".12" stroke-linecap="round" stroke-linejoin="round" stroke="green" stroke-miterlimit="10"/><path d="M274.781 228a1.14 1.14 0 1 1 2.28-.002 1.14 1.14 0 0 1-2.28.002" fill-rule="evenodd" fill="#fff"/><path d="M274.781 228a1.14 1.14 0 1 1 2.28-.002 1.14 1.14 0 0 1-2.28.002zm0 0" fill="none" stroke-width=".06" stroke-linecap="square" stroke-linejoin="bevel" stroke="#000" stroke-miterlimit="10"/><path d="M266.441 213.602a2.278 2.278 0 1 1 4.559 0 2.278 2.278 0 0 1-2.281 2.277 2.277 2.277 0 0 1-2.278-2.277" fill-rule="evenodd" fill="green"/><path d="M266.441 213.602a2.278 2.278 0 1 1 4.559 0 2.278 2.278 0 0 1-2.281 2.277 2.277 2.277 0 0 1-2.278-2.277zm0 0" fill="none" stroke-width=".12" stroke-linecap="round" stroke-linejoin="round" stroke="green" stroke-miterlimit="10"/><path d="M267.578 213.602a1.14 1.14 0 1 1 2.277-.003 1.14 1.14 0 0 1-2.276.003" fill-rule="evenodd" fill="#fff"/><path d="M267.578 213.602a1.14 1.14 0 1 1 2.277-.003 1.14 1.14 0 0 1-2.276.003zm0 0" fill="none" stroke-width=".06" stroke-linecap="square" stroke-linejoin="bevel" stroke="#000" stroke-miterlimit="10"/><path d="M278.262 211.32h-4.563v4.559h4.563zm0 0" fill="green" stroke-width=".12" stroke-linecap="round" stroke-linejoin="round" stroke="green" stroke-miterlimit="10"/><path d="M274.781 213.602c0-.633.508-1.141 1.14-1.141.63 0 1.138.508 1.138 1.14 0 .63-.508 1.137-1.137 1.137-.633 0-1.14-.508-1.14-1.136" fill-rule="evenodd" fill="#fff"/><path d="M274.781 213.602c0-.633.508-1.141 1.14-1.141.63 0 1.138.508 1.138 1.14 0 .63-.508 1.137-1.137 1.137-.633 0-1.14-.508-1.14-1.136zm0 0" fill="none" stroke-width=".06" stroke-linecap="square" stroke-linejoin="bevel" stroke="#000" stroke-miterlimit="10"/><path d="M320.86 204.719h-3.481v3.363h3.48zm0 0" fill="green" stroke-width=".12" stroke-linecap="round" stroke-linejoin="round" stroke="green" stroke-miterlimit="10"/><path d="M318.04 206.398a1.02 1.02 0 1 1 1.019 1.024c-.563 0-1.02-.457-1.02-1.024" fill-rule="evenodd" fill="#fff"/><path d="M318.04 206.398a1.02 1.02 0 1 1 1.019 1.024c-.563 0-1.02-.457-1.02-1.024zm0 0" fill="none" stroke-width=".06" stroke-linecap="square" stroke-linejoin="bevel" stroke="#000" stroke-miterlimit="10"/><path d="M317.32 192.059c0-.926.778-1.68 1.739-1.68.96 0 1.742.754 1.742 1.68 0 .93-.781 1.68-1.742 1.68s-1.739-.75-1.739-1.68" fill-rule="evenodd" fill="green"/><path d="M317.32 192.059c0-.926.778-1.68 1.739-1.68.96 0 1.742.754 1.742 1.68 0 .93-.781 1.68-1.742 1.68s-1.739-.75-1.739-1.68zm0 0" fill="none" stroke-width=".12" stroke-linecap="round" stroke-linejoin="round" stroke="green" stroke-miterlimit="10"/><path d="M318.04 192.059a1.02 1.02 0 1 1 2.04.001 1.02 1.02 0 0 1-2.04-.001" fill-rule="evenodd" fill="#fff"/><path d="M318.04 192.059a1.02 1.02 0 1 1 2.04.001 1.02 1.02 0 0 1-2.04-.001zm0 0" fill="none" stroke-width=".06" stroke-linecap="square" stroke-linejoin="bevel" stroke="#000" stroke-miterlimit="10"/><path d="M320.86 212.879l-1.02-1.02h-1.442l-1.02 1.02v1.441l1.02 1.02h1.442l1.02-1.02v-1.441" fill="green"/><path d="M320.86 212.879l-1.02-1.02h-1.442l-1.02 1.02v1.441l1.02 1.02h1.442l1.02-1.02zm0 0" fill="none" stroke-width=".12" stroke-linecap="round" stroke-linejoin="round" stroke="green" stroke-miterlimit="10"/><path d="M318.04 213.602a1.02 1.02 0 0 1 1.019-1.024 1.021 1.021 0 0 1 0 2.043 1.02 1.02 0 0 1-1.02-1.02" fill-rule="evenodd" fill="#fff"/><path d="M318.04 213.602a1.02 1.02 0 0 1 1.019-1.024 1.021 1.021 0 0 1 0 2.043 1.02 1.02 0 0 1-1.02-1.02zm0 0" fill="none" stroke-width=".06" stroke-linecap="square" stroke-linejoin="bevel" stroke="#000" stroke-miterlimit="10"/><path d="M302.922 213.602c0-.93.777-1.68 1.738-1.68s1.738.75 1.738 1.68c0 .925-.777 1.68-1.738 1.68-.96 0-1.738-.755-1.738-1.68" fill-rule="evenodd" fill="green"/><path d="M302.922 213.602c0-.93.777-1.68 1.738-1.68s1.738.75 1.738 1.68c0 .925-.777 1.68-1.738 1.68-.96 0-1.738-.755-1.738-1.68zm0 0" fill="none" stroke-width=".12" stroke-linecap="round" stroke-linejoin="round" stroke="green" stroke-miterlimit="10"/><path d="M303.64 213.602c0-.567.458-1.024 1.02-1.024a1.021 1.021 0 0 1 0 2.043 1.02 1.02 0 0 1-1.02-1.02" fill-rule="evenodd" fill="#fff"/><path d="M303.64 213.602c0-.567.458-1.024 1.02-1.024a1.021 1.021 0 0 1 0 2.043 1.02 1.02 0 0 1-1.02-1.02zm0 0" fill="none" stroke-width=".06" stroke-linecap="square" stroke-linejoin="bevel" stroke="#000" stroke-miterlimit="10"/><path d="M288.398 228a1.862 1.862 0 0 1 3.723 0 1.861 1.861 0 0 1-3.723 0" fill-rule="evenodd" fill="green"/><path d="M288.398 228a1.862 1.862 0 0 1 3.723 0 1.861 1.861 0 0 1-3.723 0zm0 0" fill="none" stroke-width=".12" stroke-linecap="round" stroke-linejoin="round" stroke="green" stroke-miterlimit="10"/><path d="M289.121 228a1.14 1.14 0 1 1 2.279-.002 1.14 1.14 0 0 1-2.279.002" fill-rule="evenodd" fill="#fff"/><path d="M289.121 228a1.14 1.14 0 1 1 2.279-.002 1.14 1.14 0 0 1-2.279.002zm0 0" fill="none" stroke-width=".06" stroke-linecap="square" stroke-linejoin="bevel" stroke="#000" stroke-miterlimit="10"/><path d="M288.398 213.602c0-1.028.836-1.864 1.864-1.864a1.861 1.861 0 1 1-1.863 1.863" fill-rule="evenodd" fill="green"/><path d="M288.398 213.602c0-1.028.836-1.864 1.864-1.864a1.861 1.861 0 1 1-1.863 1.863zm0 0" fill="none" stroke-width=".12" stroke-linecap="round" stroke-linejoin="round" stroke="green" stroke-miterlimit="10"/><path d="M289.121 213.602c0-.633.508-1.141 1.14-1.141.63 0 1.137.508 1.137 1.14 0 .63-.507 1.137-1.136 1.137-.633 0-1.14-.508-1.14-1.136" fill-rule="evenodd" fill="#fff"/><path d="M289.121 213.602c0-.633.508-1.141 1.14-1.141.63 0 1.137.508 1.137 1.14 0 .63-.507 1.137-1.136 1.137-.633 0-1.14-.508-1.14-1.136zm0 0" fill="none" stroke-width=".06" stroke-linecap="square" stroke-linejoin="bevel" stroke="#000" stroke-miterlimit="10"/><path d="M281.2 213.602c0-1.028.831-1.864 1.859-1.864a1.862 1.862 0 1 1-1.86 1.863" fill-rule="evenodd" fill="green"/><path d="M281.2 213.602c0-1.028.831-1.864 1.859-1.864a1.862 1.862 0 1 1-1.86 1.863zm0 0" fill="none" stroke-width=".12" stroke-linecap="round" stroke-linejoin="round" stroke="green" stroke-miterlimit="10"/><path d="M281.922 213.602zm0 0" fill="none" stroke-width=".06" stroke-linecap="square" stroke-linejoin="bevel" stroke="#000" stroke-miterlimit="10"/><path d="M281.2 228a1.862 1.862 0 0 1 3.723 0 1.862 1.862 0 0 1-3.724 0" fill-rule="evenodd" fill="green"/><path d="M281.2 228a1.862 1.862 0 0 1 3.723 0 1.862 1.862 0 0 1-3.724 0zm0 0" fill="none" stroke-width=".12" stroke-linecap="round" stroke-linejoin="round" stroke="green" stroke-miterlimit="10"/><path d="M281.922 228a1.139 1.139 0 1 1 2.277 0 1.139 1.139 0 0 1-2.277 0" fill-rule="evenodd" fill="#fff"/><path d="M281.922 228a1.139 1.139 0 1 1 2.277 0 1.139 1.139 0 0 1-2.277 0zm0 0" fill="none" stroke-width=".06" stroke-linecap="square" stroke-linejoin="bevel" stroke="#000" stroke-miterlimit="10"/><path d="M338.14 228a2.52 2.52 0 0 1 5.04 0 2.52 2.52 0 0 1-5.04 0" fill-rule="evenodd" fill="green"/><path d="M338.14 228a2.52 2.52 0 0 1 5.04 0 2.52 2.52 0 0 1-5.04 0zm0 0" fill="none" stroke-width=".12" stroke-linecap="round" stroke-linejoin="round" stroke="green" stroke-miterlimit="10"/><path d="M339.219 228a1.44 1.44 0 1 1 2.88-.002 1.44 1.44 0 0 1-2.88.002" fill-rule="evenodd" fill="#fff"/><path d="M339.219 228a1.44 1.44 0 1 1 2.88-.002 1.44 1.44 0 0 1-2.88.002zm0 0" fill="none" stroke-width=".06" stroke-linecap="square" stroke-linejoin="bevel" stroke="#000" stroke-miterlimit="10"/><path d="M338.14 220.8a2.518 2.518 0 0 1 2.52-2.519 2.52 2.52 0 1 1-2.52 2.52" fill-rule="evenodd" fill="green"/><path d="M338.14 220.8a2.518 2.518 0 0 1 2.52-2.519 2.52 2.52 0 1 1-2.52 2.52zm0 0" fill="none" stroke-width=".12" stroke-linecap="round" stroke-linejoin="round" stroke="green" stroke-miterlimit="10"/><path d="M339.219 220.8a1.44 1.44 0 1 1 2.88-.001 1.44 1.44 0 0 1-2.88.002" fill-rule="evenodd" fill="#fff"/><path d="M339.219 220.8a1.44 1.44 0 1 1 2.88-.001 1.44 1.44 0 0 1-2.88.002zm0 0" fill="none" stroke-width=".06" stroke-linecap="square" stroke-linejoin="bevel" stroke="#000" stroke-miterlimit="10"/><path d="M251.8 192.059a2.52 2.52 0 1 1 5.042.002 2.52 2.52 0 0 1-5.041-.002" fill-rule="evenodd" fill="green"/><path d="M251.8 192.059a2.52 2.52 0 1 1 5.042.002 2.52 2.52 0 0 1-5.041-.002zm0 0" fill="none" stroke-width=".12" stroke-linecap="round" stroke-linejoin="round" stroke="green" stroke-miterlimit="10"/><path d="M252.879 192.059a1.442 1.442 0 0 1 2.883 0c0 .796-.649 1.441-1.442 1.441a1.44 1.44 0 0 1-1.441-1.441" fill-rule="evenodd" fill="#fff"/><path d="M252.879 192.059a1.442 1.442 0 0 1 2.883 0c0 .796-.649 1.441-1.442 1.441a1.44 1.44 0 0 1-1.441-1.441zm0 0" fill="none" stroke-width=".06" stroke-linecap="square" stroke-linejoin="bevel" stroke="#000" stroke-miterlimit="10"/><path d="M251.8 199.262a2.521 2.521 0 0 1 2.52-2.524 2.521 2.521 0 0 1 0 5.043 2.52 2.52 0 0 1-2.52-2.52" fill-rule="evenodd" fill="green"/><path d="M251.8 199.262a2.521 2.521 0 0 1 2.52-2.524 2.521 2.521 0 0 1 0 5.043 2.52 2.52 0 0 1-2.52-2.52zm0 0" fill="none" stroke-width=".12" stroke-linecap="round" stroke-linejoin="round" stroke="green" stroke-miterlimit="10"/><path d="M252.879 199.262a1.44 1.44 0 1 1 2.88-.002 1.44 1.44 0 0 1-2.88.002" fill-rule="evenodd" fill="#fff"/><path d="M252.879 199.262a1.44 1.44 0 1 1 2.88-.002 1.44 1.44 0 0 1-2.88.002zm0 0" fill="none" stroke-width=".06" stroke-linecap="square" stroke-linejoin="bevel" stroke="#000" stroke-miterlimit="10"/><path d="M295.719 206.398c0-.925.781-1.68 1.742-1.68.96 0 1.738.755 1.738 1.68 0 .93-.777 1.68-1.738 1.68s-1.742-.75-1.742-1.68" fill-rule="evenodd" fill="green"/><path d="M295.719 206.398c0-.925.781-1.68 1.742-1.68.96 0 1.738.755 1.738 1.68 0 .93-.777 1.68-1.738 1.68s-1.742-.75-1.742-1.68zm0 0" fill="none" stroke-width=".12" stroke-linecap="round" stroke-linejoin="round" stroke="green" stroke-miterlimit="10"/><path d="M296.441 206.398a1.02 1.02 0 1 1 1.02 1.024c-.563 0-1.02-.457-1.02-1.024" fill-rule="evenodd" fill="#fff"/><path d="M296.441 206.398a1.02 1.02 0 1 1 1.02 1.024c-.563 0-1.02-.457-1.02-1.024zm0 0" fill="none" stroke-width=".06" stroke-linecap="square" stroke-linejoin="bevel" stroke="#000" stroke-miterlimit="10"/><path d="M274.18 206.398c0-.925.78-1.68 1.742-1.68.96 0 1.738.755 1.738 1.68 0 .93-.777 1.68-1.738 1.68s-1.742-.75-1.742-1.68" fill-rule="evenodd" fill="green"/><path d="M274.18 206.398c0-.925.78-1.68 1.742-1.68.96 0 1.738.755 1.738 1.68 0 .93-.777 1.68-1.738 1.68s-1.742-.75-1.742-1.68zm0 0" fill="none" stroke-width=".12" stroke-linecap="round" stroke-linejoin="round" stroke="green" stroke-miterlimit="10"/><path d="M274.898 206.398a1.021 1.021 0 1 1 2.043.004 1.021 1.021 0 0 1-2.043-.004" fill-rule="evenodd" fill="#fff"/><path d="M274.898 206.398a1.021 1.021 0 1 1 2.043.004 1.021 1.021 0 0 1-2.043-.004zm0 0" fill="none" stroke-width=".06" stroke-linecap="square" stroke-linejoin="bevel" stroke="#000" stroke-miterlimit="10"/><path d="M324.52 220.8c0-.929.78-1.679 1.742-1.679.96 0 1.738.75 1.738 1.68 0 .926-.777 1.68-1.738 1.68s-1.742-.754-1.742-1.68" fill-rule="evenodd" fill="green"/><path d="M324.52 220.8c0-.929.78-1.679 1.742-1.679.96 0 1.738.75 1.738 1.68 0 .926-.777 1.68-1.738 1.68s-1.742-.754-1.742-1.68zm0 0" fill="none" stroke-width=".12" stroke-linecap="round" stroke-linejoin="round" stroke="green" stroke-miterlimit="10"/><path d="M325.238 220.8a1.021 1.021 0 0 1 2.043 0 1.021 1.021 0 1 1-2.043 0" fill-rule="evenodd" fill="#fff"/><path d="M325.238 220.8a1.021 1.021 0 0 1 2.043 0 1.021 1.021 0 1 1-2.043 0zm0 0" fill="none" stroke-width=".06" stroke-linecap="square" stroke-linejoin="bevel" stroke="#000" stroke-miterlimit="10"/><path d="M302.922 220.8c0-.929.777-1.679 1.738-1.679s1.738.75 1.738 1.68c0 .926-.777 1.68-1.738 1.68-.96 0-1.738-.754-1.738-1.68" fill-rule="evenodd" fill="green"/><path d="M302.922 220.8c0-.929.777-1.679 1.738-1.679s1.738.75 1.738 1.68c0 .926-.777 1.68-1.738 1.68-.96 0-1.738-.754-1.738-1.68zm0 0" fill="none" stroke-width=".12" stroke-linecap="round" stroke-linejoin="round" stroke="green" stroke-miterlimit="10"/><path d="M303.64 220.8a1.02 1.02 0 1 1 2.041.002 1.02 1.02 0 0 1-2.04-.001" fill-rule="evenodd" fill="#fff"/><path d="M303.64 220.8a1.02 1.02 0 1 1 2.041.002 1.02 1.02 0 0 1-2.04-.001zm0 0" fill="none" stroke-width=".06" stroke-linecap="square" stroke-linejoin="bevel" stroke="#000" stroke-miterlimit="10"/><path d="M324.52 228c0-.93.78-1.68 1.742-1.68.96 0 1.738.75 1.738 1.68 0 .93-.777 1.68-1.738 1.68s-1.742-.75-1.742-1.68" fill-rule="evenodd" fill="green"/><path d="M324.52 228c0-.93.78-1.68 1.742-1.68.96 0 1.738.75 1.738 1.68 0 .93-.777 1.68-1.738 1.68s-1.742-.75-1.742-1.68zm0 0" fill="none" stroke-width=".12" stroke-linecap="round" stroke-linejoin="round" stroke="green" stroke-miterlimit="10"/><path d="M325.238 228a1.021 1.021 0 0 1 2.043 0 1.021 1.021 0 1 1-2.043 0" fill-rule="evenodd" fill="#fff"/><path d="M325.238 228a1.021 1.021 0 0 1 2.043 0 1.021 1.021 0 1 1-2.043 0zm0 0" fill="none" stroke-width=".06" stroke-linecap="square" stroke-linejoin="bevel" stroke="#000" stroke-miterlimit="10"/><path d="M302.922 228c0-.93.777-1.68 1.738-1.68s1.738.75 1.738 1.68c0 .93-.777 1.68-1.738 1.68-.96 0-1.738-.75-1.738-1.68" fill-rule="evenodd" fill="green"/><path d="M302.922 228c0-.93.777-1.68 1.738-1.68s1.738.75 1.738 1.68c0 .93-.777 1.68-1.738 1.68-.96 0-1.738-.75-1.738-1.68zm0 0" fill="none" stroke-width=".12" stroke-linecap="round" stroke-linejoin="round" stroke="green" stroke-miterlimit="10"/><path d="M303.64 228a1.02 1.02 0 1 1 2.041.001 1.02 1.02 0 0 1-2.04-.001" fill-rule="evenodd" fill="#fff"/><path d="M303.64 228a1.02 1.02 0 1 1 2.041.001 1.02 1.02 0 0 1-2.04-.001zm0 0" fill="none" stroke-width=".06" stroke-linecap="square" stroke-linejoin="bevel" stroke="#000" stroke-miterlimit="10"/><path d="M331.602 206.398a1.859 1.859 0 1 1 3.718 0 1.862 1.862 0 0 1-1.86 1.864 1.862 1.862 0 0 1-1.858-1.864" fill-rule="evenodd" fill="green"/><path d="M331.602 206.398a1.859 1.859 0 1 1 3.718 0 1.862 1.862 0 0 1-1.86 1.864 1.862 1.862 0 0 1-1.858-1.864zm0 0" fill="none" stroke-width=".12" stroke-linecap="round" stroke-linejoin="round" stroke="green" stroke-miterlimit="10"/><path d="M332.32 206.398c0-.628.508-1.136 1.14-1.136a1.139 1.139 0 1 1 0 2.277c-.632 0-1.14-.508-1.14-1.14" fill-rule="evenodd" fill="#fff"/><path d="M332.32 206.398c0-.628.508-1.136 1.14-1.136a1.139 1.139 0 1 1 0 2.277c-.632 0-1.14-.508-1.14-1.14zm0 0" fill="none" stroke-width=".06" stroke-linecap="square" stroke-linejoin="bevel" stroke="#000" stroke-miterlimit="10"/><path d="M331.602 213.602c0-1.028.832-1.864 1.859-1.864a1.862 1.862 0 0 1 0 3.723 1.859 1.859 0 0 1-1.86-1.86" fill-rule="evenodd" fill="green"/><path d="M331.602 213.602c0-1.028.832-1.864 1.859-1.864a1.862 1.862 0 0 1 0 3.723 1.859 1.859 0 0 1-1.86-1.86zm0 0" fill="none" stroke-width=".12" stroke-linecap="round" stroke-linejoin="round" stroke="green" stroke-miterlimit="10"/><path d="M332.32 213.602a1.14 1.14 0 1 1 1.14 1.137c-.632 0-1.14-.509-1.14-1.137" fill-rule="evenodd" fill="#fff"/><path d="M332.32 213.602a1.14 1.14 0 1 1 1.14 1.137c-.632 0-1.14-.509-1.14-1.137zm0 0" fill="none" stroke-width=".06" stroke-linecap="square" stroke-linejoin="bevel" stroke="#000" stroke-miterlimit="10"/><path d="M264.102 219.781l-1.5-1.5h-2.043l-1.5 1.5v2.04l1.5 1.5h2.043l1.5-1.5v-2.04" fill="green"/><path d="M264.102 219.781l-1.5-1.5h-2.043l-1.5 1.5v2.04l1.5 1.5h2.043l1.5-1.5zm0 0" fill="none" stroke-width=".12" stroke-linecap="round" stroke-linejoin="round" stroke="green" stroke-miterlimit="10"/><path d="M260.262 220.8a1.26 1.26 0 1 1 2.52-.002 1.26 1.26 0 0 1-2.52.003" fill-rule="evenodd" fill="#fff"/><path d="M260.262 220.8a1.26 1.26 0 1 1 2.52-.002 1.26 1.26 0 0 1-2.52.003zm0 0" fill="none" stroke-width=".06" stroke-linecap="square" stroke-linejoin="bevel" stroke="#000" stroke-miterlimit="10"/><path d="M264.102 212.578l-1.5-1.5h-2.043l-1.5 1.5v2.043l1.5 1.5h2.043l1.5-1.5v-2.043" fill="green"/><path d="M264.102 212.578l-1.5-1.5h-2.043l-1.5 1.5v2.043l1.5 1.5h2.043l1.5-1.5zm0 0" fill="none" stroke-width=".12" stroke-linecap="round" stroke-linejoin="round" stroke="green" stroke-miterlimit="10"/><path d="M260.262 213.602c0-.7.562-1.262 1.258-1.262a1.26 1.26 0 1 1-1.258 1.262" fill-rule="evenodd" fill="#fff"/><path d="M260.262 213.602c0-.7.562-1.262 1.258-1.262a1.26 1.26 0 1 1-1.258 1.262zm0 0" fill="none" stroke-width=".06" stroke-linecap="square" stroke-linejoin="bevel" stroke="#000" stroke-miterlimit="10"/><path d="M264.102 203.879h-5.043v5.039h5.043zm0 0" fill="green" stroke-width=".12" stroke-linecap="round" stroke-linejoin="round" stroke="green" stroke-miterlimit="10"/><path d="M260.262 206.398a1.26 1.26 0 1 1 1.258 1.262 1.258 1.258 0 0 1-1.258-1.262" fill-rule="evenodd" fill="#fff"/><path d="M260.262 206.398a1.26 1.26 0 1 1 1.258 1.262 1.258 1.258 0 0 1-1.258-1.262zm0 0" fill="none" stroke-width=".06" stroke-linecap="square" stroke-linejoin="bevel" stroke="#000" stroke-miterlimit="10"/><path d="M281.02 199.262a2.041 2.041 0 1 1 4.082-.003 2.041 2.041 0 0 1-4.082.003" fill-rule="evenodd" fill="green"/><path d="M281.02 199.262a2.041 2.041 0 1 1 4.082-.003 2.041 2.041 0 0 1-4.082.003zm0 0" fill="none" stroke-width=".12" stroke-linecap="round" stroke-linejoin="round" stroke="green" stroke-miterlimit="10"/><path d="M282.04 199.262a1.02 1.02 0 0 1 1.019-1.024 1.021 1.021 0 0 1 0 2.043 1.02 1.02 0 0 1-1.02-1.02" fill-rule="evenodd" fill="#fff"/><path d="M282.04 199.262a1.02 1.02 0 0 1 1.019-1.024 1.021 1.021 0 0 1 0 2.043 1.02 1.02 0 0 1-1.02-1.02zm0 0" fill="none" stroke-width=".06" stroke-linecap="square" stroke-linejoin="bevel" stroke="#000" stroke-miterlimit="10"/><path d="M266.68 199.262a2.041 2.041 0 1 1 4.082-.003 2.041 2.041 0 0 1-4.082.003" fill-rule="evenodd" fill="green"/><path d="M266.68 199.262a2.041 2.041 0 1 1 4.082-.003 2.041 2.041 0 0 1-4.082.003zm0 0" fill="none" stroke-width=".12" stroke-linecap="round" stroke-linejoin="round" stroke="green" stroke-miterlimit="10"/><path d="M267.7 199.262a1.02 1.02 0 0 1 1.019-1.024 1.021 1.021 0 0 1 0 2.043 1.02 1.02 0 0 1-1.02-1.02" fill-rule="evenodd" fill="#fff"/><path d="M267.7 199.262a1.02 1.02 0 0 1 1.019-1.024 1.021 1.021 0 0 1 0 2.043 1.02 1.02 0 0 1-1.02-1.02zm0 0" fill="none" stroke-width=".06" stroke-linecap="square" stroke-linejoin="bevel" stroke="#000" stroke-miterlimit="10"/><path d="M273.879 199.262a2.042 2.042 0 1 1 4.082 0 2.04 2.04 0 0 1-4.082 0" fill-rule="evenodd" fill="green"/><path d="M273.879 199.262a2.042 2.042 0 1 1 4.082 0 2.04 2.04 0 0 1-4.082 0zm0 0" fill="none" stroke-width=".12" stroke-linecap="round" stroke-linejoin="round" stroke="green" stroke-miterlimit="10"/><path d="M274.898 199.262a1.022 1.022 0 1 1 2.044-.003 1.022 1.022 0 0 1-2.044.003" fill-rule="evenodd" fill="#fff"/><path d="M274.898 199.262a1.022 1.022 0 1 1 2.044-.003 1.022 1.022 0 0 1-2.044.003zm0 0" fill="none" stroke-width=".06" stroke-linecap="square" stroke-linejoin="bevel" stroke="#000" stroke-miterlimit="10"/><path d="M306.578 205.621l-1.078-1.082h-1.559l-1.082 1.082v1.559l1.082 1.082h1.559l1.078-1.082v-1.559" fill="green"/><path d="M306.578 205.621l-1.078-1.082h-1.559l-1.082 1.082v1.559l1.082 1.082h1.559l1.078-1.082zm0 0" fill="none" stroke-width=".12" stroke-linecap="round" stroke-linejoin="round" stroke="green" stroke-miterlimit="10"/><path d="M303.52 206.398c0-.628.511-1.136 1.14-1.136a1.139 1.139 0 1 1 0 2.277 1.14 1.14 0 0 1-1.14-1.14" fill-rule="evenodd" fill="#fff"/><path d="M303.52 206.398c0-.628.511-1.136 1.14-1.136a1.139 1.139 0 1 1 0 2.277 1.14 1.14 0 0 1-1.14-1.14zm0 0" fill="none" stroke-width=".06" stroke-linecap="square" stroke-linejoin="bevel" stroke="#000" stroke-miterlimit="10"/><path d="M306.578 191.281L305.5 190.2h-1.559l-1.082 1.082v1.559l1.082 1.082h1.559l1.078-1.082v-1.559" fill="green"/><path d="M306.578 191.281L305.5 190.2h-1.559l-1.082 1.082v1.559l1.082 1.082h1.559l1.078-1.082zm0 0" fill="none" stroke-width=".12" stroke-linecap="round" stroke-linejoin="round" stroke="green" stroke-miterlimit="10"/><path d="M303.52 192.059c0-.63.511-1.137 1.14-1.137a1.139 1.139 0 1 1 0 2.277c-.629 0-1.14-.512-1.14-1.14" fill-rule="evenodd" fill="#fff"/><path d="M303.52 192.059c0-.63.511-1.137 1.14-1.137a1.139 1.139 0 1 1 0 2.277 1.14 1.14 0 0 1-1.14-1.14zm0 0" fill="none" stroke-width=".06" stroke-linecap="square" stroke-linejoin="bevel" stroke="#000" stroke-miterlimit="10"/><path d="M306.578 198.48l-1.078-1.082h-1.559l-1.082 1.082v1.56l1.082 1.081h1.559l1.078-1.082v-1.559" fill="green"/><path d="M306.578 198.48l-1.078-1.082h-1.559l-1.082 1.082v1.56l1.082 1.081h1.559l1.078-1.082zm0 0" fill="none" stroke-width=".12" stroke-linecap="round" stroke-linejoin="round" stroke="green" stroke-miterlimit="10"/><path d="M303.52 199.262a1.14 1.14 0 1 1 2.278-.003 1.14 1.14 0 0 1-2.278.003" fill-rule="evenodd" fill="#fff"/><path d="M303.52 199.262a1.14 1.14 0 1 1 2.278-.003 1.14 1.14 0 0 1-2.278.003zm0 0" fill="none" stroke-width=".06" stroke-linecap="square" stroke-linejoin="bevel" stroke="#000" stroke-miterlimit="10"/><path d="M295.422 228c0-1.129.91-2.04 2.039-2.04a2.038 2.038 0 1 1 0 4.08 2.037 2.037 0 0 1-2.04-2.04" fill-rule="evenodd" fill="green"/><path d="M295.422 228c0-1.129.91-2.04 2.039-2.04a2.038 2.038 0 1 1 0 4.08 2.037 2.037 0 0 1-2.04-2.04zm0 0" fill="none" stroke-width=".12" stroke-linecap="round" stroke-linejoin="round" stroke="green" stroke-miterlimit="10"/><path d="M296.441 228a1.02 1.02 0 1 1 2.04.001 1.02 1.02 0 0 1-2.04-.001" fill-rule="evenodd" fill="#fff"/><path d="M296.441 228a1.02 1.02 0 1 1 2.04.001 1.02 1.02 0 0 1-2.04-.001zm0 0" fill="none" stroke-width=".06" stroke-linecap="square" stroke-linejoin="bevel" stroke="#000" stroke-miterlimit="10"/><path d="M295.422 213.602a2.039 2.039 0 1 1 4.078 0 2.038 2.038 0 1 1-4.078 0" fill-rule="evenodd" fill="green"/><path d="M295.422 213.602a2.039 2.039 0 1 1 4.078 0 2.038 2.038 0 1 1-4.078 0zm0 0" fill="none" stroke-width=".12" stroke-linecap="round" stroke-linejoin="round" stroke="green" stroke-miterlimit="10"/><path d="M296.441 213.602c0-.567.457-1.024 1.02-1.024a1.021 1.021 0 0 1 0 2.043 1.02 1.02 0 0 1-1.02-1.02" fill-rule="evenodd" fill="#fff"/><path d="M296.441 213.602c0-.567.457-1.024 1.02-1.024a1.021 1.021 0 0 1 0 2.043 1.02 1.02 0 0 1-1.02-1.02zm0 0" fill="none" stroke-width=".06" stroke-linecap="square" stroke-linejoin="bevel" stroke="#000" stroke-miterlimit="10"/><path d="M295.422 220.8c0-1.128.91-2.038 2.039-2.038a2.038 2.038 0 1 1 0 4.078 2.038 2.038 0 0 1-2.04-2.04" fill-rule="evenodd" fill="green"/><path d="M295.422 220.8c0-1.128.91-2.038 2.039-2.038a2.038 2.038 0 1 1 0 4.078 2.038 2.038 0 0 1-2.04-2.04zm0 0" fill="none" stroke-width=".12" stroke-linecap="round" stroke-linejoin="round" stroke="green" stroke-miterlimit="10"/><path d="M296.441 220.8a1.02 1.02 0 1 1 2.04.002 1.02 1.02 0 0 1-2.04-.001" fill-rule="evenodd" fill="#fff"/><path d="M296.441 220.8a1.02 1.02 0 1 1 2.04.002 1.02 1.02 0 0 1-2.04-.001zm0 0" fill="none" stroke-width=".06" stroke-linecap="square" stroke-linejoin="bevel" stroke="#000" stroke-miterlimit="10"/><path d="M304.719 220.8h-7.2" fill="none" stroke-width=".12" stroke-linecap="round" stroke-linejoin="round" stroke="olive" stroke-miterlimit="10"/><path d="M247.18 184.86h100.742m0 0v50.34m0 0H247.18m0 0v-50.34" fill="none" stroke-width=".12" stroke-linecap="round" stroke-linejoin="round" stroke="#000" stroke-miterlimit="10"/></svg>