<svg xmlns="http://www.w3.org/2000/svg" xmlns:xlink="http://www.w3.org/1999/xlink" width="595pt" height="560" viewBox="0 0 595 420"><defs><symbol overflow="visible" id="a"><path d="M.781 0H.11v-.172h.22v-1.406H.11v-.172h.672v.172h-.22v1.406h.22zm0 0"/></symbol><symbol overflow="visible" id="b"><path d="M1.422 0h-.25L.39-1.516V0H.17v-1.75H.5l.719 1.39v-1.39h.203zm0 0"/></symbol><symbol overflow="visible" id="c"><path d="M1.281-1.219A.538.538 0 0 1 1.234-1a.477.477 0 0 1-.109.172.793.793 0 0 1-.203.125.908.908 0 0 1-.313.047H.406V0H.172v-1.75h.437c.102 0 .192.012.266.031.07.012.14.04.203.078a.553.553 0 0 1 .156.172.634.634 0 0 1 .047.25zm-.234 0c-.012-.062-.024-.113-.031-.156a.411.411 0 0 0-.094-.11.743.743 0 0 0-.14-.046.957.957 0 0 0-.173-.016H.406v.703h.156a.681.681 0 0 0 .235-.031.256.256 0 0 0 .14-.078.835.835 0 0 0 .079-.125 2.27 2.27 0 0 0 .03-.14zm0 0"/></symbol><symbol overflow="visible" id="d"><path d="M2.14-1.75L1.704 0h-.266l-.359-1.453L.734 0h-.25L.031-1.75h.235L.625-.297.969-1.75h.234l.36 1.469.343-1.469zm0 0"/></symbol><symbol overflow="visible" id="e"><path d="M1.531 0h-.297L.672-.703H.406V0H.172v-1.75h.453c.102 0 .188.008.25.016.07.011.14.039.203.078.063.043.11.093.14.156a.487.487 0 0 1 .048.219.528.528 0 0 1-.094.328.534.534 0 0 1-.266.187zm-.5-1.25A.337.337 0 0 0 1-1.39a.313.313 0 0 0-.078-.094.419.419 0 0 0-.125-.047.841.841 0 0 0-.156-.016H.406v.656H.61c.07 0 .133-.004.188-.015a.256.256 0 0 0 .14-.078.237.237 0 0 0 .063-.11.429.429 0 0 0 .031-.156zm0 0"/></symbol><symbol overflow="visible" id="i"><path d="M1.453 0H1.22v-.86H.406V0H.172v-1.75h.234v.688h.813v-.688h.234zm0 0"/></symbol><symbol overflow="visible" id="j"><path d="M1.563-.875a.88.88 0 0 1-.11.438.783.783 0 0 1-.25.296.982.982 0 0 1-.266.11A1.553 1.553 0 0 1 .579 0H.172v-1.75h.406c.164 0 .297.012.39.031.095.032.173.07.235.11a.751.751 0 0 1 .266.296.974.974 0 0 1 .093.438zm-.25 0a.9.9 0 0 0-.063-.344.477.477 0 0 0-.203-.218.959.959 0 0 0-.203-.094 2.019 2.019 0 0 0-.25-.016H.406v1.344h.188c.101 0 .191-.004.265-.016a.99.99 0 0 0 .22-.093.545.545 0 0 0 .171-.22.886.886 0 0 0 .063-.343zm0 0"/></symbol><symbol overflow="visible" id="k"><path d="M.86.031A.796.796 0 0 1 .546-.03a.536.536 0 0 1-.25-.172.582.582 0 0 1-.156-.281 1.093 1.093 0 0 1-.063-.391c0-.145.02-.27.063-.375a.749.749 0 0 1 .156-.297.863.863 0 0 1 .25-.172.796.796 0 0 1 .312-.062c.063 0 .118.008.172.015.051.012.098.024.14.032.04.011.079.027.11.046a1 1 0 0 1 .125.047v.282H1.39a.245.245 0 0 1-.079-.063 3.996 3.996 0 0 0-.125-.078c-.042-.02-.09-.04-.14-.063a1.296 1.296 0 0 0-.188-.015.444.444 0 0 0-.203.047.584.584 0 0 0-.187.125.936.936 0 0 0-.11.234.861.861 0 0 0-.046.297c0 .125.015.23.046.313.032.085.07.156.125.218.04.063.098.106.172.125a.444.444 0 0 0 .203.047c.07 0 .133-.004.188-.016a.865.865 0 0 0 .156-.062c.04-.031.078-.055.11-.078A.318.318 0 0 1 1.39-.39h.015v.266a2.173 2.173 0 0 0-.11.063l-.124.046c-.055.012-.102.02-.14.032A.957.957 0 0 1 .858.03zm0 0"/></symbol><symbol overflow="visible" id="l"><path d="M1.125 0h-.86v-.172h.313v-1.172H.266v-.172a.61.61 0 0 0 .265-.046c.051-.032.082-.094.094-.188h.188v1.578h.312zm0 0"/></symbol><symbol overflow="visible" id="m"><path d="M1.203 0H.125v-.25a3.918 3.918 0 0 0 .422-.422C.68-.816.773-.93.828-1.016a.732.732 0 0 0 .063-.28.712.712 0 0 0-.016-.126 1.302 1.302 0 0 1-.063-.094.525.525 0 0 0-.093-.046C.676-1.57.633-1.579.594-1.579a.644.644 0 0 0-.125.016 1.946 1.946 0 0 1-.125.03.264.264 0 0 1-.094.048.369.369 0 0 1-.078.046v-.25c.039-.019.11-.039.203-.062a.992.992 0 0 1 .234-.031.58.58 0 0 1 .391.125.46.46 0 0 1 .14.36.629.629 0 0 1-.03.187.486.486 0 0 1-.063.156 1.578 1.578 0 0 1-.234.297 2.516 2.516 0 0 1-.25.25c-.094.086-.168.152-.22.203h.86zm0 0"/></symbol><symbol overflow="visible" id="n"><path d="M.594-1.578a.644.644 0 0 0-.125.016 1.946 1.946 0 0 1-.125.03.264.264 0 0 1-.094.048.369.369 0 0 1-.078.046H.156v-.234a.817.817 0 0 1 .219-.078c.082-.02.164-.031.25-.031.07 0 .14.008.203.015a.648.648 0 0 1 .156.079.6.6 0 0 1 .125.14c.02.055.032.117.032.188 0 .093-.032.18-.094.25a.407.407 0 0 1-.234.14v.016c.039.012.082.023.125.031.039.024.082.047.125.078a.428.428 0 0 1 .078.125.6.6 0 0 1 .03.203.822.822 0 0 1-.03.22A.668.668 0 0 1 .844 0a.972.972 0 0 1-.25.031 1.151 1.151 0 0 1-.485-.11v-.233h.016c.05.03.117.062.203.093a.692.692 0 0 0 .39.032.36.36 0 0 0 .204-.188.806.806 0 0 0 .015-.156.37.37 0 0 0-.03-.156.166.166 0 0 0-.079-.094.258.258 0 0 0-.11-.063h-.25v-.203h.079a.436.436 0 0 0 .265-.078.267.267 0 0 0 .063-.328.17.17 0 0 0-.063-.078.525.525 0 0 0-.093-.047H.594zm0 0"/></symbol><symbol overflow="visible" id="o"><path d="M1.25-.61h-.203V0H.813v-.61H.046v-.234l.781-.906h.219v.953h.203zM.812-.796v-.672l-.578.672zm0 0"/></symbol><symbol overflow="visible" id="y"><path d="M.5 0H.219v-.328H.5zm0 0"/></symbol><symbol overflow="visible" id="z"><path d="M1.234-1.484L.47 0H.22l.797-1.547H.109v-.203h1.125zm0 0"/></symbol><symbol overflow="visible" id="A"><path d="M1.188 0h-.22v-.14c-.073.054-.14.093-.202.124a.456.456 0 0 1-.204.047.806.806 0 0 1-.156-.015.343.343 0 0 1-.14-.094.616.616 0 0 1-.11-.375v-.86h.219v.923c.008.043.02.086.031.125.02.032.047.055.078.063.032.023.079.031.141.031.05 0 .11-.016.172-.047a.985.985 0 0 0 .172-.11v-.984h.219zm0 0"/></symbol><symbol overflow="visible" id="B"><path d="M1.219-1.547H.406v.5h.781v.203h-.78V0H.171v-1.75h1.047zm0 0"/></symbol><symbol overflow="visible" id="C"><path d="M1.219-.875c0 .313-.047.543-.14.688A.463.463 0 0 1 .655.03a.463.463 0 0 1-.422-.218C.141-.333.094-.564.094-.875c0-.313.047-.54.14-.688a.47.47 0 0 1 .422-.218.47.47 0 0 1 .422.218c.094.157.14.387.14.688zm-.297.531a.987.987 0 0 0 .047-.219 3.248 3.248 0 0 0 0-.625 1.42 1.42 0 0 0-.047-.218.42.42 0 0 0-.11-.14.256.256 0 0 0-.156-.048.248.248 0 0 0-.156.047.375.375 0 0 0-.11.14.862.862 0 0 0-.046.22v.312c-.012.125-.012.23 0 .313a.827.827 0 0 0 .047.218c.02.063.054.11.109.14.031.032.082.048.156.048a.256.256 0 0 0 .156-.047.42.42 0 0 0 .11-.14zm0 0"/></symbol><symbol overflow="visible" id="D"><path d="M.766-.656H.109v-.219h.657zm0 0"/></symbol><symbol overflow="visible" id="H"><path d="M1.25 0H.953L.47-.64l-.094.093V0h-.22v-1.828h.219v1.062l.531-.546h.266L.64-.766zm0 0"/></symbol><symbol overflow="visible" id="f"><path d="M1.281-1.094H.171v-.36h1.11zm0 0"/></symbol><symbol overflow="visible" id="g"><path d="M-1.125-2.61v.985h1v.328h-1v.984h-.313v-.984h-.984v-.328h.985v-.984zm0 0"/></symbol><symbol overflow="visible" id="s"><path d="M0-2.563v.516l-1.156.922v.438H0v.39h-2.922v-.75c0-.164.012-.305.031-.422.024-.113.063-.222.125-.328a.8.8 0 0 1 .25-.234.751.751 0 0 1 .391-.094c.219 0 .398.059.531.172.149.105.258.25.328.437zm-2.094.844a.598.598 0 0 0-.234.047.412.412 0 0 0-.156.14.446.446 0 0 0-.079.188c-.007.074-.019.168-.03.282v.375h1.109v-.344c0-.102-.008-.203-.032-.297a.459.459 0 0 0-.125-.219.38.38 0 0 0-.187-.125.66.66 0 0 0-.266-.047zm0 0"/></symbol><symbol overflow="visible" id="t"><path d="M-.922-1.984c.137 0 .266.023.39.062.118.055.22.121.313.203a.757.757 0 0 1 .203.297c.051.125.079.262.079.406 0 .149-.016.29-.047.422-.032.137-.07.25-.125.344h-.407v-.016c.024-.03.047-.078.079-.14.023-.051.046-.114.078-.188.023-.07.043-.14.062-.203.012-.062.016-.133.016-.219a.693.693 0 0 0-.047-.234.389.389 0 0 0-.125-.188.604.604 0 0 0-.203-.109 1.075 1.075 0 0 0-.281-.031.868.868 0 0 0-.25.031.491.491 0 0 0-.157.125.644.644 0 0 0-.11.203c-.019.086-.03.18-.03.282a4 4 0 0 0 .015.312c.024.117.04.203.047.266h-1.5v-1.61h.344v1.235h.781c-.008-.051-.016-.098-.016-.141V-1c0-.156.012-.285.032-.39.031-.094.078-.192.14-.298a.782.782 0 0 1 .282-.218c.117-.051.261-.078.437-.078zm0 0"/></symbol><symbol overflow="visible" id="h"><path d="M.563 0H.124v-.094h.172v-.578H.125V-.75c.063 0 .11-.008.14-.031.032-.02.047-.051.047-.094h.094v.781h.156zm0 0"/></symbol><symbol overflow="visible" id="p"><path d="M2.094-1.172c0 .219-.043.414-.125.578a1.04 1.04 0 0 1-.36.406 1.211 1.211 0 0 1-.359.157A2.651 2.651 0 0 1 .781 0H.234v-2.344h.547c.219 0 .39.016.516.047.125.031.226.074.312.125.157.106.274.242.36.406.082.168.125.368.125.594zm-.328 0c0-.187-.032-.344-.094-.469a.63.63 0 0 0-.266-.296.979.979 0 0 0-.265-.11 1.72 1.72 0 0 0-.344-.031h-.25v1.812h.25c.133 0 .254-.007.36-.03a.783.783 0 0 0 .531-.422c.05-.126.078-.274.078-.454zm0 0"/></symbol><symbol overflow="visible" id="q"><path d="M1.5 0H.36v-.234h.42v-1.579H.36v-.218c.157 0 .274-.02.36-.063.07-.05.113-.14.125-.265h.25v2.125H1.5zm0 0"/></symbol><symbol overflow="visible" id="r"><path d="M1.625 0H.172v-.328A9.33 9.33 0 0 1 .469-.61c.094-.094.18-.188.265-.282.176-.195.301-.359.375-.484a.737.737 0 0 0 .094-.36.428.428 0 0 0-.11-.297.814.814 0 0 0-.14-.077.841.841 0 0 0-.156-.016c-.055 0-.11.008-.172.016a4.337 4.337 0 0 1-.156.062.342.342 0 0 0-.125.063 2.172 2.172 0 0 0-.11.062H.22v-.344c.062-.03.156-.062.281-.093.113-.032.223-.047.328-.047.219 0 .39.058.516.172a.66.66 0 0 1 .187.484.95.95 0 0 1-.031.25 2.037 2.037 0 0 1-.094.219c-.043.062-.09.133-.14.203-.055.074-.11.14-.172.203l-.328.328C.64-.43.539-.336.469-.266h1.156zm0 0"/></symbol><symbol overflow="visible" id="w"><path d="M.781 0v-2.078H0v-.266h1.89v.266h-.796V0zm0 0"/></symbol><symbol overflow="visible" id="x"><path d="M.813-2.125c-.063 0-.122.008-.172.016l-.172.062a2.172 2.172 0 0 0-.234.125H.218v-.328A1 1 0 0 1 .5-2.36a1.232 1.232 0 0 1 .61-.015c.081.031.156.07.218.11a.799.799 0 0 1 .156.187.57.57 0 0 1 .047.25.485.485 0 0 1-.125.328.486.486 0 0 1-.297.188v.03l.157.048c.05.023.101.058.156.109a.68.68 0 0 1 .11.172.83.83 0 0 1 0 .547.774.774 0 0 1-.406.406 1.039 1.039 0 0 1-.33.047A1.28 1.28 0 0 1 .454 0a.83.83 0 0 1-.297-.094v-.328h.016c.062.043.148.086.266.125a.774.774 0 0 0 .343.078A.525.525 0 0 0 .97-.25a.31.31 0 0 0 .156-.11.345.345 0 0 0 .11-.156.568.568 0 0 0 .03-.203.487.487 0 0 0-.046-.219.34.34 0 0 0-.094-.125.376.376 0 0 0-.156-.062 1.65 1.65 0 0 0-.203-.016H.64v-.265h.093a.57.57 0 0 0 .344-.094.353.353 0 0 0 .14-.297.37.37 0 0 0-.03-.156.415.415 0 0 0-.219-.156c-.055-.008-.106-.016-.157-.016zm0 0"/></symbol><symbol overflow="visible" id="E"><path d="M1.922 0h-.36L.532-2.031V0H.233v-2.344h.454l.937 1.86v-1.86h.297zm0 0"/></symbol><symbol overflow="visible" id="F"><path d="M1.688-.813h-.282V0H1.11v-.813H.063v-.328l1.046-1.203h.297v1.281h.282zm-.579-.25v-.921l-.796.921zm0 0"/></symbol><symbol overflow="visible" id="G"><path d="M1.281-1.797a.379.379 0 0 0-.11-.266.414.414 0 0 0-.296-.109.408.408 0 0 0-.281.094.312.312 0 0 0-.11.25.3.3 0 0 0 .063.203.357.357 0 0 0 .172.14.925.925 0 0 0 .14.079c.07.031.133.058.188.078a.558.558 0 0 0 .187-.219.62.62 0 0 0 .047-.25zm.047 1.172a.435.435 0 0 0-.062-.234.607.607 0 0 0-.22-.172.849.849 0 0 0-.14-.063 1.94 1.94 0 0 1-.203-.078.63.63 0 0 0-.203.203.71.71 0 0 0-.063.297c0 .149.04.262.126.344.082.094.19.14.328.14a.456.456 0 0 0 .312-.109.445.445 0 0 0 .125-.328zM.891.047C.766.047.656.03.562 0a.602.602 0 0 1-.25-.156.586.586 0 0 1-.14-.219.596.596 0 0 1-.063-.281A.58.58 0 0 1 .22-1a.783.783 0 0 1 .297-.25v-.016a.754.754 0 0 1-.266-.218.518.518 0 0 1-.078-.297.59.59 0 0 1 .203-.453.768.768 0 0 1 .516-.172.72.72 0 0 1 .5.172.548.548 0 0 1 .109.734.683.683 0 0 1-.266.25c.133.074.239.152.313.234a.59.59 0 0 1 .11.36.654.654 0 0 1-.22.5.805.805 0 0 1-.546.203zm0 0"/></symbol><symbol overflow="visible" id="L"><path d="M1.828-.719a.796.796 0 0 1-.062.313.724.724 0 0 1-.172.219 1.164 1.164 0 0 1-.297.14A1.296 1.296 0 0 1 .907 0H.233v-2.344H.86c.164 0 .29.008.375.016a.92.92 0 0 1 .25.078.472.472 0 0 1 .188.172.634.634 0 0 1 .047.25.55.55 0 0 1-.078.297.644.644 0 0 1-.25.218.707.707 0 0 1 .328.22.61.61 0 0 1 .11.374zM1.391-1.78a.774.774 0 0 0-.016-.14.27.27 0 0 0-.094-.095.534.534 0 0 0-.172-.062H.547v.687h.36c.093 0 .163-.004.218-.015a.52.52 0 0 0 .14-.063.262.262 0 0 0 .11-.125c.008-.05.016-.113.016-.187zm.125 1.078a.433.433 0 0 0-.047-.219c-.024-.062-.074-.113-.157-.156a.676.676 0 0 0-.156-.047 2.019 2.019 0 0 0-.25-.016h-.36v.875h.266c.133 0 .239-.004.313-.015.082-.02.156-.047.219-.078A.477.477 0 0 0 1.469-.5a.924.924 0 0 0 .047-.203zm0 0"/></symbol><symbol overflow="visible" id="M"><path d="M1.156.047C1 .047.86.02.734-.031a.724.724 0 0 1-.328-.235A1.045 1.045 0 0 1 .187-.64a1.6 1.6 0 0 1-.078-.53c0-.196.024-.368.079-.516a1.06 1.06 0 0 1 .203-.391.928.928 0 0 1 .343-.235c.125-.05.266-.078.422-.078.082 0 .16.008.235.016.062.012.125.027.187.047.05.012.102.027.156.047l.157.094v.374h-.032a.388.388 0 0 0-.109-.093.69.69 0 0 0-.156-.11 1.041 1.041 0 0 0-.188-.078.972.972 0 0 0-.25-.031.702.702 0 0 0-.516.234.738.738 0 0 0-.156.313c-.043.117-.062.25-.062.406 0 .156.02.293.062.406a.82.82 0 0 0 .157.297c.07.086.148.149.234.188a.885.885 0 0 0 .281.047.827.827 0 0 0 .25-.032.76.76 0 0 0 .203-.078.586.586 0 0 0 .157-.11 1 1 0 0 0 .093-.077h.032v.375a2.829 2.829 0 0 0-.141.062c-.055.024-.11.043-.172.063a1.16 1.16 0 0 1-.187.062 1.818 1.818 0 0 1-.235.016zm0 0"/></symbol><symbol overflow="visible" id="N"><path d="M1.594-.75a.973.973 0 0 1-.047.313.74.74 0 0 1-.156.25.61.61 0 0 1-.25.171.847.847 0 0 1-.329.063A1.8 1.8 0 0 1 .484.016a1.954 1.954 0 0 1-.28-.094v-.344h.015a.25.25 0 0 0 .11.063.74.74 0 0 0 .14.062.73.73 0 0 0 .172.047.41.41 0 0 0 .171.031A.416.416 0 0 0 1-.266a.31.31 0 0 0 .156-.109c.04-.04.07-.094.094-.156a.72.72 0 0 0 0-.422.967.967 0 0 0-.11-.14.648.648 0 0 0-.156-.079.917.917 0 0 0-.234-.031c-.086 0-.168.012-.25.031-.086.012-.152.024-.203.031v-1.203h1.281v.266H.594v.625h.11a.32.32 0 0 0 .109-.016c.113 0 .21.012.296.032a.788.788 0 0 1 .25.125c.07.054.13.125.172.218.04.086.063.2.063.344zm0 0"/></symbol><symbol overflow="visible" id="O"><path d="M1.656-2L.625 0H.297l1.078-2.078H.156v-.266h1.5zm0 0"/></symbol><symbol overflow="visible" id="W"><path d="M.672 0H.297v-.453h.375zm0 0"/></symbol><symbol overflow="visible" id="X"><path d="M1.313-1.39c0-.157-.016-.286-.047-.391a.74.74 0 0 0-.125-.235A.552.552 0 0 0 1-2.109a.37.37 0 0 0-.156-.032A.353.353 0 0 0 .547-2c-.086.094-.125.23-.125.406 0 .094.016.172.047.235a.28.28 0 0 0 .125.171c.031.032.07.055.125.063a.816.816 0 0 0 .39-.016c.07-.02.141-.05.204-.093v-.157zM.109-1.595a.86.86 0 0 1 .063-.328.628.628 0 0 1 .156-.25.702.702 0 0 1 .813-.172.793.793 0 0 1 .234.156c.082.086.145.2.188.344.039.137.062.313.062.532 0 .187-.023.37-.063.546-.042.18-.105.325-.187.438a.93.93 0 0 1-.328.281 1.044 1.044 0 0 1-.469.094.724.724 0 0 1-.14-.016.644.644 0 0 1-.127-.014v-.297h.016a.37.37 0 0 0 .125.031c.05.023.11.031.172.031.195 0 .36-.066.484-.203.114-.144.18-.344.204-.594a.714.714 0 0 1-.25.125.634.634 0 0 1-.25.047.74.74 0 0 1-.454-.14.526.526 0 0 1-.187-.25.86.86 0 0 1-.063-.36zm0 0"/></symbol><symbol overflow="visible" id="Y"><path d="M2.219 0v-1.016c0-.082-.008-.16-.016-.234a.37.37 0 0 0-.031-.156.27.27 0 0 0-.094-.094.37.37 0 0 0-.156-.031.434.434 0 0 0-.203.062 1.17 1.17 0 0 0-.219.157c.008.023.016.042.016.062V0h-.297v-1.016c0-.082-.008-.16-.016-.234a.37.37 0 0 0-.031-.156.27.27 0 0 0-.094-.094.37.37 0 0 0-.156-.031.434.434 0 0 0-.203.062.972.972 0 0 0-.203.157V0H.219v-1.766h.297v.204A.753.753 0 0 1 .75-1.75a.515.515 0 0 1 .516.016.42.42 0 0 1 .187.218c.094-.093.18-.164.266-.218A.525.525 0 0 1 2-1.813c.07 0 .14.012.203.032a.491.491 0 0 1 .156.125.506.506 0 0 1 .11.187.908.908 0 0 1 .047.313V0zm0 0"/></symbol><symbol overflow="visible" id="u"><path d="M0-.781h-2.078V0h-.266v-1.89h.266v.796H0zm0 0"/></symbol><symbol overflow="visible" id="v"><path d="M0-1.5v1.14h-.234v-.42h-1.579v.422h-.218a.813.813 0 0 0-.063-.36c-.05-.07-.14-.113-.265-.125v-.25h2.125V-1.5zm0 0"/></symbol><symbol overflow="visible" id="P"><path d="M-.719-1.828c.117 0 .219.023.313.062a.724.724 0 0 1 .219.172c.062.094.109.196.14.297.031.094.047.227.047.39v.673h-2.344V-.86c0-.164.008-.29.016-.375a.92.92 0 0 1 .078-.25.472.472 0 0 1 .172-.188.634.634 0 0 1 .25-.047.55.55 0 0 1 .297.078.644.644 0 0 1 .218.25.707.707 0 0 1 .22-.328.61.61 0 0 1 .374-.11zm-1.062.437a.774.774 0 0 0-.14.016.27.27 0 0 0-.095.094.534.534 0 0 0-.062.172v.562h.687v-.36c0-.093-.004-.163-.015-.218a.52.52 0 0 0-.063-.14.262.262 0 0 0-.125-.11 1.204 1.204 0 0 0-.187-.016zm1.078-.125a.433.433 0 0 0-.219.047c-.062.024-.113.074-.156.157a.676.676 0 0 0-.047.156 2.019 2.019 0 0 0-.016.25v.36h.875v-.266a2.19 2.19 0 0 0-.015-.313 1.023 1.023 0 0 0-.078-.219.477.477 0 0 0-.141-.125.924.924 0 0 0-.203-.047zm0 0"/></symbol><symbol overflow="visible" id="Q"><path d="M.047-1.156c0 .156-.027.297-.078.422a.724.724 0 0 1-.235.328 1.045 1.045 0 0 1-.375.219 1.6 1.6 0 0 1-.53.078 1.48 1.48 0 0 1-.516-.079 1.068 1.068 0 0 1-.391-.203.928.928 0 0 1-.235-.343 1.112 1.112 0 0 1-.078-.422c0-.082.008-.16.016-.235.012-.062.027-.125.047-.187a1.36 1.36 0 0 1 .047-.156l.094-.157h.374v.032a.388.388 0 0 0-.093.109.69.69 0 0 0-.11.156 1.041 1.041 0 0 0-.078.188.972.972 0 0 0-.031.25.702.702 0 0 0 .234.516.738.738 0 0 0 .313.156c.117.043.25.062.406.062.156 0 .293-.02.406-.062a.815.815 0 0 0 .297-.157.655.655 0 0 0 .188-.234.885.885 0 0 0 .047-.281.827.827 0 0 0-.032-.25.76.76 0 0 0-.078-.203.586.586 0 0 0-.11-.157 1 1 0 0 0-.077-.093v-.032h.375c.023.055.043.102.062.141.024.055.043.11.063.172.031.074.05.137.062.187.008.063.016.141.016.235zm0 0"/></symbol><symbol overflow="visible" id="R"><path d="M-2.125-.813c0 .063.008.122.016.172l.062.172a2.172 2.172 0 0 0 .125.234v.016h-.328A1 1 0 0 1-2.36-.5a1.232 1.232 0 0 1-.015-.61c.031-.081.07-.156.11-.218a.799.799 0 0 1 .187-.156.57.57 0 0 1 .25-.047c.125 0 .234.043.328.125a.486.486 0 0 1 .188.297h.03l.048-.157a.602.602 0 0 1 .109-.156.651.651 0 0 1 .172-.11.83.83 0 0 1 .547 0A.774.774 0 0 1 0-1.125c.031.095.047.204.047.33 0 .116-.016.23-.047.343a.83.83 0 0 1-.094.297h-.328v-.016a1.06 1.06 0 0 0 .125-.266.774.774 0 0 0 .078-.343.525.525 0 0 0-.031-.19.31.31 0 0 0-.11-.156.345.345 0 0 0-.156-.11.568.568 0 0 0-.203-.03.487.487 0 0 0-.219.046.34.34 0 0 0-.125.094.376.376 0 0 0-.062.156 1.65 1.65 0 0 0-.016.203v.125h-.265v-.093a.57.57 0 0 0-.094-.344.353.353 0 0 0-.297-.14.37.37 0 0 0-.156.03.415.415 0 0 0-.156.219c-.008.055-.016.106-.016.157zm0 0"/></symbol><symbol overflow="visible" id="S"><path d="M-2-1.656L0-.625v.328l-2.078-1.078v1.219h-.266v-1.5zm0 0"/></symbol><symbol overflow="visible" id="T"><path d="M0-1.625v1.453h-.328A9.33 9.33 0 0 1-.61-.469a8.783 8.783 0 0 0-.282-.265 3.248 3.248 0 0 0-.484-.375.737.737 0 0 0-.36-.094.428.428 0 0 0-.297.11.814.814 0 0 0-.077.14.841.841 0 0 0-.016.156c0 .055.008.11.016.172.023.055.043.105.062.156a.342.342 0 0 0 .063.125c.023.043.043.078.062.11v.015h-.344A1.453 1.453 0 0 1-2.359-.5a1.232 1.232 0 0 1-.047-.328c0-.219.058-.39.172-.516a.66.66 0 0 1 .484-.187.95.95 0 0 1 .25.031c.086.031.156.063.219.094.062.043.133.09.203.14.074.055.14.11.203.172l.328.328c.117.125.211.227.281.297v-1.156zm0 0"/></symbol><symbol overflow="visible" id="ab"><path d="M0-.672v.375h-.453v-.375zm0 0"/></symbol><symbol overflow="visible" id="ac"><path d="M-1.39-1.313c-.157 0-.286.016-.391.047a.74.74 0 0 0-.235.125.552.552 0 0 0-.093.141.37.37 0 0 0-.032.156c0 .125.047.227.141.297.094.086.23.125.406.125a.522.522 0 0 0 .235-.047.282.282 0 0 0 .171-.125.212.212 0 0 0 .063-.125.816.816 0 0 0-.016-.39.684.684 0 0 0-.093-.204h-.157zm-.204 1.204a.86.86 0 0 1-.328-.063.628.628 0 0 1-.25-.156.702.702 0 0 1-.172-.813.793.793 0 0 1 .156-.234.828.828 0 0 1 .344-.188c.137-.039.313-.062.532-.062.187 0 .37.023.546.063.18.042.325.105.438.187a.93.93 0 0 1 .281.328c.063.125.094.281.094.469 0 .043-.008.09-.016.14a.644.644 0 0 1-.015.126h-.297v-.016A.37.37 0 0 0-.25-.453a.409.409 0 0 0 .031-.172.629.629 0 0 0-.203-.484c-.144-.114-.344-.18-.594-.204a.714.714 0 0 1 .125.25.634.634 0 0 1 .047.25.74.74 0 0 1-.14.454.526.526 0 0 1-.25.187.86.86 0 0 1-.36.063zm0 0"/></symbol><symbol overflow="visible" id="ad"><path d="M-.813-1.688v.282H0v.297h-.813v1.046h-.328l-1.203-1.046v-.297h1.281v-.282zm-.25.579h-.921l.921.796zm0 0"/></symbol><symbol overflow="visible" id="ae"><path d="M0-2.219h-1.016c-.082 0-.16.008-.234.016a.37.37 0 0 0-.156.031.27.27 0 0 0-.094.094.37.37 0 0 0-.031.156.43.43 0 0 0 .062.203c.032.063.086.137.157.219.023-.008.042-.016.062-.016H0v.297h-1.016c-.082 0-.16.008-.234.016a.37.37 0 0 0-.156.031.27.27 0 0 0-.094.094.37.37 0 0 0-.031.156.43.43 0 0 0 .062.203c.043.074.094.14.157.203H0v.297h-1.766v-.297h.204A.753.753 0 0 1-1.75-.75a.515.515 0 0 1 .016-.516.42.42 0 0 1 .218-.187 1.565 1.565 0 0 1-.218-.266A.525.525 0 0 1-1.813-2c0-.07.012-.14.032-.203a.491.491 0 0 1 .125-.156.505.505 0 0 1 .187-.11.908.908 0 0 1 .313-.047H0zm0 0"/></symbol><symbol overflow="visible" id="I"><path d="M0-1.125v.86h-.172v-.313h-1.172v.312h-.172a.61.61 0 0 0-.046-.265c-.032-.051-.094-.082-.188-.094v-.188h1.578v-.312zm0 0"/></symbol><symbol overflow="visible" id="J"><path d="M-.875-1.219c.313 0 .543.047.688.14a.463.463 0 0 1 .218.423c0 .187-.07.328-.218.422-.145.093-.376.14-.688.14-.313 0-.54-.047-.688-.14a.47.47 0 0 1-.218-.422.47.47 0 0 1 .218-.422c.157-.094.387-.14.688-.14zm.531.297a.987.987 0 0 0-.219-.047 3.248 3.248 0 0 0-.625 0 1.42 1.42 0 0 0-.218.047.42.42 0 0 0-.14.11.256.256 0 0 0-.048.156.25.25 0 0 0 .047.156.375.375 0 0 0 .14.11.898.898 0 0 0 .22.046h.312c.125.012.23.012.313 0A.827.827 0 0 0-.345-.39.234.234 0 0 0-.204-.5c.032-.031.048-.082.048-.156a.256.256 0 0 0-.047-.156.42.42 0 0 0-.14-.11zm0 0"/></symbol><symbol overflow="visible" id="K"><path d="M0-1.25v.297l-.64.484.093.094H0v.219h-1.828v-.219h1.062l-.546-.531v-.266l.546.531zm0 0"/></symbol><clipPath id="U"><path d="M261 150.48h1V164h-1zm0 0"/></clipPath><clipPath id="V"><path d="M340 150.48h2V164h-2zm0 0"/></clipPath><clipPath id="Z"><path d="M234.36 172H248v1h-13.64zm0 0"/></clipPath><clipPath id="aa"><path d="M234.36 251H248v1h-13.64zm0 0"/></clipPath></defs><use xlink:href="#a" x="267.593" y="189.545" fill="#505050"/><use xlink:href="#b" x="268.493" y="189.545" fill="#505050"/><use xlink:href="#c" x="331.125" y="250.263" fill="#505050"/><use xlink:href="#d" x="332.445" y="250.263" fill="#505050"/><use xlink:href="#e" x="334.605" y="250.263" fill="#505050"/><path d="M297.602 208.262h7.199m-.001 0h7.2m-14.398-21.602h7.199m-21.539 0h14.34m0 0v7.2m-14.34 14.402v-14.403m35.938-7.199v7.2m0 0h-14.4m0 7.199v-7.2m0 7.2h-7.198M276.059 244.2v-14.4m0-7.14v-21.6m0-14.4v14.399m-7.199-14.399v-7.2m35.94 0h-35.94m50.34 64.74v-43.141m0 0h7.198m0 0V179.46m7.204 64.74h-14.403m-35.937 0h35.937m-50.339-50.34v-7.2m35.94-7.2h21.598m7.204 28.802V186.66m0 36v-7.2m0 0v-7.198M304.8 237v-7.2m7.2 0h14.398m-28.796-7.14h7.199M312 229.8h-7.2m0 0v-7.14m0 0v-7.2m28.802 14.34h-7.204M312 215.46h-7.2M326.398 237h7.204m-64.742-35.941v7.203m0 35.938v-28.74" fill="none" stroke-width="3.6" stroke-linecap="round" stroke-linejoin="round" stroke="navy" stroke-miterlimit="10"/><path d="M270.602 208.262a1.74 1.74 0 1 1-3.481-.005 1.74 1.74 0 0 1 3.48.005" fill-rule="evenodd" fill="green"/><path d="M270.602 208.262a1.74 1.74 0 1 1-3.481-.005 1.74 1.74 0 0 1 3.48.005zm0 0" fill="none" stroke-width=".12" stroke-linecap="round" stroke-linejoin="round" stroke="green" stroke-miterlimit="10"/><path d="M269.879 208.262a1.02 1.02 0 1 1-1.02-1.024c.563 0 1.02.457 1.02 1.024" fill-rule="evenodd" fill="#fff"/><path d="M269.879 208.262a1.02 1.02 0 1 1-1.02-1.024c.563 0 1.02.457 1.02 1.024zm0 0" fill="none" stroke-width=".06" stroke-linecap="square" stroke-linejoin="bevel" stroke="#000" stroke-miterlimit="10"/><path d="M267.121 217.2h3.48v-3.481h-3.48zm0 0" fill="green" stroke-width=".12" stroke-linecap="round" stroke-linejoin="round" stroke="green" stroke-miterlimit="10"/><path d="M269.879 215.46a1.02 1.02 0 1 1-2.04 0 1.02 1.02 0 0 1 2.04 0" fill-rule="evenodd" fill="#fff"/><path d="M269.879 215.46a1.02 1.02 0 1 1-2.04 0 1.02 1.02 0 0 1 2.04 0zm0 0" fill="none" stroke-width=".06" stroke-linecap="square" stroke-linejoin="bevel" stroke="#000" stroke-miterlimit="10"/><path d="M277.8 229.8a1.74 1.74 0 1 1-3.48-.004 1.74 1.74 0 0 1 3.48.005" fill-rule="evenodd" fill="green"/><path d="M277.8 229.8a1.74 1.74 0 1 1-3.48-.004 1.74 1.74 0 0 1 3.48.005zm0 0" fill="none" stroke-width=".12" stroke-linecap="round" stroke-linejoin="round" stroke="green" stroke-miterlimit="10"/><path d="M277.078 229.8a1.02 1.02 0 1 1-2.04 0 1.02 1.02 0 0 1 2.04 0" fill-rule="evenodd" fill="#fff"/><path d="M277.078 229.8a1.02 1.02 0 1 1-2.04 0 1.02 1.02 0 0 1 2.04 0zm0 0" fill="none" stroke-width=".06" stroke-linecap="square" stroke-linejoin="bevel" stroke="#000" stroke-miterlimit="10"/><path d="M274.32 224.398h3.48v-3.48h-3.48zm0 0" fill="green" stroke-width=".12" stroke-linecap="round" stroke-linejoin="round" stroke="green" stroke-miterlimit="10"/><path d="M277.078 222.66a1.02 1.02 0 1 1-2.04-.001 1.02 1.02 0 0 1 2.04.001" fill-rule="evenodd" fill="#fff"/><path d="M277.078 222.66a1.02 1.02 0 1 1-2.04-.001 1.02 1.02 0 0 1 2.04.001zm0 0" fill="none" stroke-width=".06" stroke-linecap="square" stroke-linejoin="bevel" stroke="#000" stroke-miterlimit="10"/><path d="M299.34 229.8a1.74 1.74 0 1 1-1.738-1.742c.96 0 1.738.782 1.738 1.743" fill-rule="evenodd" fill="green"/><path d="M299.34 229.8a1.74 1.74 0 1 1-1.738-1.742c.96 0 1.738.782 1.738 1.743zm0 0" fill="none" stroke-width=".12" stroke-linecap="round" stroke-linejoin="round" stroke="green" stroke-miterlimit="10"/><path d="M298.621 229.8a1.021 1.021 0 1 1-2.043 0 1.021 1.021 0 0 1 2.043 0" fill-rule="evenodd" fill="#fff"/><path d="M298.621 229.8a1.021 1.021 0 1 1-2.043 0 1.021 1.021 0 0 1 2.043 0zm0 0" fill="none" stroke-width=".06" stroke-linecap="square" stroke-linejoin="bevel" stroke="#000" stroke-miterlimit="10"/><path d="M295.86 224.398h3.48v-3.48h-3.48zm0 0" fill="green" stroke-width=".12" stroke-linecap="round" stroke-linejoin="round" stroke="green" stroke-miterlimit="10"/><path d="M298.621 222.66a1.021 1.021 0 1 1-2.043 0 1.021 1.021 0 0 1 2.043 0" fill-rule="evenodd" fill="#fff"/><path d="M298.621 222.66a1.021 1.021 0 1 1-2.043 0 1.021 1.021 0 0 1 2.043 0zm0 0" fill="none" stroke-width=".06" stroke-linecap="square" stroke-linejoin="bevel" stroke="#000" stroke-miterlimit="10"/><path d="M330.898 189.36h5.403v-5.4h-5.403zm0 0" fill="green" stroke-width=".12" stroke-linecap="round" stroke-linejoin="round" stroke="green" stroke-miterlimit="10"/><path d="M334.738 186.66a1.139 1.139 0 1 1-2.277 0 1.14 1.14 0 1 1 2.277 0" fill-rule="evenodd" fill="#fff"/><path d="M334.738 186.66a1.139 1.139 0 1 1-2.277 0 1.14 1.14 0 1 1 2.277 0zm0 0" fill="none" stroke-width=".06" stroke-linecap="square" stroke-linejoin="bevel" stroke="#000" stroke-miterlimit="10"/><path d="M321.898 186.66a2.7 2.7 0 1 1-5.397-.001 2.7 2.7 0 0 1 5.397.001" fill-rule="evenodd" fill="green"/><path d="M321.898 186.66a2.7 2.7 0 1 1-5.397-.001 2.7 2.7 0 0 1 5.397.001zm0 0" fill="none" stroke-width=".12" stroke-linecap="round" stroke-linejoin="round" stroke="green" stroke-miterlimit="10"/><path d="M320.34 186.66a1.14 1.14 0 1 1-2.28-.002 1.14 1.14 0 0 1 2.279.002" fill-rule="evenodd" fill="#fff"/><path d="M320.34 186.66a1.14 1.14 0 1 1-2.28-.002 1.14 1.14 0 0 1 2.279.002zm0 0" fill="none" stroke-width=".06" stroke-linecap="square" stroke-linejoin="bevel" stroke="#000" stroke-miterlimit="10"/><path d="M285.121 208.262c0 1.023-.836 1.86-1.86 1.86a1.865 1.865 0 0 1-1.863-1.86c0-1.028.836-1.864 1.864-1.864 1.023 0 1.86.836 1.86 1.864" fill-rule="evenodd" fill="green"/><path d="M285.121 208.262c0 1.023-.836 1.86-1.86 1.86a1.865 1.865 0 0 1-1.863-1.86c0-1.028.836-1.864 1.864-1.864 1.023 0 1.86.836 1.86 1.864zm0 0" fill="none" stroke-width=".12" stroke-linecap="round" stroke-linejoin="round" stroke="green" stroke-miterlimit="10"/><path d="M284.398 208.262c0 .629-.507 1.136-1.136 1.136-.633 0-1.14-.507-1.14-1.136 0-.633.507-1.14 1.14-1.14.629 0 1.136.507 1.136 1.14" fill-rule="evenodd" fill="#fff"/><path d="M284.398 208.262c0 .629-.507 1.136-1.136 1.136-.633 0-1.14-.507-1.14-1.136 0-.633.507-1.14 1.14-1.14.629 0 1.136.507 1.136 1.14zm0 0" fill="none" stroke-width=".06" stroke-linecap="square" stroke-linejoin="bevel" stroke="#000" stroke-miterlimit="10"/><path d="M299.46 208.262a1.861 1.861 0 1 1-3.722-.004 1.861 1.861 0 0 1 3.723.004" fill-rule="evenodd" fill="green"/><path d="M299.46 208.262a1.861 1.861 0 1 1-3.722-.004 1.861 1.861 0 0 1 3.723.004zm0 0" fill="none" stroke-width=".12" stroke-linecap="round" stroke-linejoin="round" stroke="green" stroke-miterlimit="10"/><path d="M298.738 208.262c0 .629-.508 1.136-1.136 1.136a1.136 1.136 0 0 1-1.141-1.136c0-.633.508-1.14 1.14-1.14.63 0 1.137.507 1.137 1.14" fill-rule="evenodd" fill="#fff"/><path d="M298.738 208.262c0 .629-.508 1.136-1.136 1.136a1.136 1.136 0 0 1-1.141-1.136c0-.633.508-1.14 1.14-1.14.63 0 1.137.507 1.137 1.14zm0 0" fill="none" stroke-width=".06" stroke-linecap="square" stroke-linejoin="bevel" stroke="#000" stroke-miterlimit="10"/><path d="M299.46 193.86a1.858 1.858 0 0 1-1.858 1.859 1.862 1.862 0 0 1-1.864-1.86 1.862 1.862 0 0 1 3.723 0" fill-rule="evenodd" fill="green"/><path d="M299.46 193.86a1.858 1.858 0 0 1-1.858 1.859 1.862 1.862 0 0 1-1.864-1.86 1.862 1.862 0 0 1 3.723 0zm0 0" fill="none" stroke-width=".12" stroke-linecap="round" stroke-linejoin="round" stroke="green" stroke-miterlimit="10"/><path d="M298.738 193.86a1.139 1.139 0 1 1-2.277 0 1.14 1.14 0 1 1 2.277 0" fill-rule="evenodd" fill="#fff"/><path d="M298.738 193.86a1.139 1.139 0 1 1-2.277 0 1.14 1.14 0 1 1 2.277 0zm0 0" fill="none" stroke-width=".06" stroke-linecap="square" stroke-linejoin="bevel" stroke="#000" stroke-miterlimit="10"/><path d="M285.121 193.86a1.861 1.861 0 0 1-3.723 0 1.862 1.862 0 0 1 3.723 0" fill-rule="evenodd" fill="green"/><path d="M285.121 193.86a1.861 1.861 0 0 1-3.723 0 1.862 1.862 0 0 1 3.723 0zm0 0" fill="none" stroke-width=".12" stroke-linecap="round" stroke-linejoin="round" stroke="green" stroke-miterlimit="10"/><path d="M284.398 193.86a1.139 1.139 0 1 1-2.277 0 1.14 1.14 0 1 1 2.277 0" fill-rule="evenodd" fill="#fff"/><path d="M284.398 193.86a1.139 1.139 0 1 1-2.277 0 1.14 1.14 0 1 1 2.277 0zm0 0" fill="none" stroke-width=".06" stroke-linecap="square" stroke-linejoin="bevel" stroke="#000" stroke-miterlimit="10"/><path d="M299.34 201.059a1.74 1.74 0 1 1-3.481.003 1.74 1.74 0 0 1 3.48-.003" fill-rule="evenodd" fill="green"/><path d="M299.34 201.059a1.74 1.74 0 1 1-3.481.003 1.74 1.74 0 0 1 3.48-.003zm0 0" fill="none" stroke-width=".12" stroke-linecap="round" stroke-linejoin="round" stroke="green" stroke-miterlimit="10"/><path d="M298.621 201.059a1.021 1.021 0 1 1-2.043 0 1.021 1.021 0 0 1 2.043 0" fill-rule="evenodd" fill="#fff"/><path d="M298.621 201.059a1.021 1.021 0 1 1-2.043 0 1.021 1.021 0 0 1 2.043 0zm0 0" fill="none" stroke-width=".06" stroke-linecap="square" stroke-linejoin="bevel" stroke="#000" stroke-miterlimit="10"/><path d="M277.8 201.059" fill-rule="evenodd" fill="green"/><path d="M277.8 201.059zm0 0" fill="none" stroke-width=".12" stroke-linecap="round" stroke-linejoin="round" stroke="green" stroke-miterlimit="10"/><path d="M277.078 201.059a1.02 1.02 0 1 1-2.04-.002 1.02 1.02 0 0 1 2.04.002" fill-rule="evenodd" fill="#fff"/><path d="M277.078 201.059a1.02 1.02 0 1 1-2.04-.002 1.02 1.02 0 0 1 2.04.002zm0 0" fill="none" stroke-width=".06" stroke-linecap="square" stroke-linejoin="bevel" stroke="#000" stroke-miterlimit="10"/><path d="M335.34 208.262a1.74 1.74 0 1 1-1.738-1.742c.96 0 1.738.78 1.738 1.742" fill-rule="evenodd" fill="green"/><path d="M335.34 208.262a1.74 1.74 0 1 1-1.738-1.742c.96 0 1.738.78 1.738 1.742zm0 0" fill="none" stroke-width=".12" stroke-linecap="round" stroke-linejoin="round" stroke="green" stroke-miterlimit="10"/><path d="M334.621 208.262a1.021 1.021 0 1 1-1.02-1.023c.563 0 1.02.456 1.02 1.023" fill-rule="evenodd" fill="#fff"/><path d="M334.621 208.262a1.021 1.021 0 1 1-1.02-1.023c.563 0 1.02.456 1.02 1.023zm0 0" fill="none" stroke-width=".06" stroke-linecap="square" stroke-linejoin="bevel" stroke="#000" stroke-miterlimit="10"/><path d="M313.738 208.262a1.737 1.737 0 1 1-3.477 0A1.74 1.74 0 0 1 312 206.52c.96 0 1.738.78 1.738 1.742" fill-rule="evenodd" fill="green"/><path d="M313.738 208.262a1.737 1.737 0 1 1-3.477 0A1.74 1.74 0 0 1 312 206.52c.96 0 1.738.78 1.738 1.742zm0 0" fill="none" stroke-width=".12" stroke-linecap="round" stroke-linejoin="round" stroke="green" stroke-miterlimit="10"/><path d="M313.02 208.262a1.02 1.02 0 1 1-1.02-1.024c.563 0 1.02.457 1.02 1.024" fill-rule="evenodd" fill="#fff"/><path d="M313.02 208.262a1.02 1.02 0 1 1-1.02-1.024c.563 0 1.02.457 1.02 1.024zm0 0" fill="none" stroke-width=".06" stroke-linecap="square" stroke-linejoin="bevel" stroke="#000" stroke-miterlimit="10"/><path d="M335.34 215.46a1.74 1.74 0 1 1-1.738-1.742c.96 0 1.738.782 1.738 1.743" fill-rule="evenodd" fill="green"/><path d="M335.34 215.46a1.74 1.74 0 1 1-1.738-1.742c.96 0 1.738.782 1.738 1.743zm0 0" fill="none" stroke-width=".12" stroke-linecap="round" stroke-linejoin="round" stroke="green" stroke-miterlimit="10"/><path d="M334.621 215.46a1.021 1.021 0 1 1-2.043 0 1.02 1.02 0 0 1 1.024-1.019c.562 0 1.02.454 1.02 1.02" fill-rule="evenodd" fill="#fff"/><path d="M334.621 215.46a1.021 1.021 0 1 1-2.043 0 1.02 1.02 0 0 1 1.024-1.019c.562 0 1.02.454 1.02 1.02zm0 0" fill="none" stroke-width=".06" stroke-linecap="square" stroke-linejoin="bevel" stroke="#000" stroke-miterlimit="10"/><path d="M313.738 215.46a1.737 1.737 0 1 1-3.477 0c0-.96.778-1.741 1.739-1.741.96 0 1.738.781 1.738 1.742" fill-rule="evenodd" fill="green"/><path d="M313.738 215.46a1.737 1.737 0 1 1-3.477 0c0-.96.778-1.741 1.739-1.741.96 0 1.738.781 1.738 1.742zm0 0" fill="none" stroke-width=".12" stroke-linecap="round" stroke-linejoin="round" stroke="green" stroke-miterlimit="10"/><path d="M313.02 215.46a1.02 1.02 0 1 1-2.041 0 1.02 1.02 0 0 1 2.04 0" fill-rule="evenodd" fill="#fff"/><path d="M313.02 215.46a1.02 1.02 0 1 1-2.041 0 1.02 1.02 0 0 1 2.04 0zm0 0" fill="none" stroke-width=".06" stroke-linecap="square" stroke-linejoin="bevel" stroke="#000" stroke-miterlimit="10"/><path d="M306.66 237a1.859 1.859 0 1 1-3.717.001 1.859 1.859 0 0 1 3.717-.001" fill-rule="evenodd" fill="green"/><path d="M306.66 237a1.859 1.859 0 1 1-3.717.001 1.859 1.859 0 0 1 3.717-.001zm0 0" fill="none" stroke-width=".12" stroke-linecap="round" stroke-linejoin="round" stroke="green" stroke-miterlimit="10"/><path d="M305.941 237a1.14 1.14 0 1 1-2.282-.002 1.14 1.14 0 0 1 2.282.002" fill-rule="evenodd" fill="#fff"/><path d="M305.941 237a1.14 1.14 0 1 1-2.282-.002 1.14 1.14 0 0 1 2.282.002zm0 0" fill="none" stroke-width=".06" stroke-linecap="square" stroke-linejoin="bevel" stroke="#000" stroke-miterlimit="10"/><path d="M328.262 237a1.862 1.862 0 0 1-3.723 0 1.862 1.862 0 0 1 3.723 0" fill-rule="evenodd" fill="green"/><path d="M328.262 237a1.862 1.862 0 0 1-3.723 0 1.862 1.862 0 0 1 3.723 0zm0 0" fill="none" stroke-width=".12" stroke-linecap="round" stroke-linejoin="round" stroke="green" stroke-miterlimit="10"/><path d="M327.54 237a1.14 1.14 0 1 1-2.28.002 1.14 1.14 0 0 1 2.28-.002" fill-rule="evenodd" fill="#fff"/><path d="M327.54 237a1.14 1.14 0 1 1-2.28.002 1.14 1.14 0 0 1 2.28-.002zm0 0" fill="none" stroke-width=".06" stroke-linecap="square" stroke-linejoin="bevel" stroke="#000" stroke-miterlimit="10"/><path d="M285.781 245.219l-1.5 1.5h-2.043l-1.5-1.5v-2.04l1.5-1.5h2.043l1.5 1.5v2.04" fill="green"/><path d="M285.781 245.219l-1.5 1.5h-2.043l-1.5-1.5v-2.04l1.5-1.5h2.043l1.5 1.5zm0 0" fill="none" stroke-width=".12" stroke-linecap="round" stroke-linejoin="round" stroke="green" stroke-miterlimit="10"/><path d="M284.52 244.2a1.26 1.26 0 1 1-2.521.002 1.26 1.26 0 0 1 2.52-.003" fill-rule="evenodd" fill="#fff"/><path d="M284.52 244.2a1.26 1.26 0 1 1-2.521.002 1.26 1.26 0 0 1 2.52-.003zm0 0" fill="none" stroke-width=".06" stroke-linecap="square" stroke-linejoin="bevel" stroke="#000" stroke-miterlimit="10"/><path d="M278.578 245.219l-1.5 1.5h-2.039l-1.5-1.5v-2.04l1.5-1.5h2.04l1.5 1.5v2.04" fill="green"/><path d="M278.578 245.219l-1.5 1.5h-2.039l-1.5-1.5v-2.04l1.5-1.5h2.04l1.5 1.5zm0 0" fill="none" stroke-width=".12" stroke-linecap="round" stroke-linejoin="round" stroke="green" stroke-miterlimit="10"/><path d="M277.32 244.2" fill-rule="evenodd" fill="#fff"/><path d="M277.32 244.2zm0 0" fill="none" stroke-width=".06" stroke-linecap="square" stroke-linejoin="bevel" stroke="#000" stroke-miterlimit="10"/><path d="M266.34 246.719h5.039v-5.04h-5.04zm0 0" fill="green" stroke-width=".12" stroke-linecap="round" stroke-linejoin="round" stroke="green" stroke-miterlimit="10"/><path d="M270.121 244.2" fill-rule="evenodd" fill="#fff"/><path d="M270.121 244.2zm0 0" fill="none" stroke-width=".06" stroke-linecap="square" stroke-linejoin="bevel" stroke="#000" stroke-miterlimit="10"/><path d="M285.3 186.66a2.04 2.04 0 0 1-4.081 0c0-1.129.914-2.039 2.043-2.039 1.125 0 2.039.91 2.039 2.04" fill-rule="evenodd" fill="green"/><path d="M285.3 186.66a2.04 2.04 0 0 1-4.081 0c0-1.129.914-2.039 2.043-2.039 1.125 0 2.039.91 2.039 2.04zm0 0" fill="none" stroke-width=".12" stroke-linecap="round" stroke-linejoin="round" stroke="green" stroke-miterlimit="10"/><path d="M284.281 186.66a1.021 1.021 0 1 1-2.043 0 1.021 1.021 0 0 1 2.043 0" fill-rule="evenodd" fill="#fff"/><path d="M284.281 186.66a1.021 1.021 0 1 1-2.043 0 1.021 1.021 0 0 1 2.043 0zm0 0" fill="none" stroke-width=".06" stroke-linecap="square" stroke-linejoin="bevel" stroke="#000" stroke-miterlimit="10"/><path d="M270.898 186.66a2.038 2.038 0 1 1-4.078 0c0-1.129.914-2.039 2.04-2.039 1.128 0 2.038.91 2.038 2.04" fill-rule="evenodd" fill="green"/><path d="M270.898 186.66a2.038 2.038 0 1 1-4.078 0c0-1.129.914-2.039 2.04-2.039 1.128 0 2.038.91 2.038 2.04zm0 0" fill="none" stroke-width=".12" stroke-linecap="round" stroke-linejoin="round" stroke="green" stroke-miterlimit="10"/><path d="M269.879 186.66a1.02 1.02 0 1 1-2.04-.001 1.02 1.02 0 0 1 2.04.001" fill-rule="evenodd" fill="#fff"/><path d="M269.879 186.66a1.02 1.02 0 1 1-2.04-.001 1.02 1.02 0 0 1 2.04.001zm0 0" fill="none" stroke-width=".06" stroke-linecap="square" stroke-linejoin="bevel" stroke="#000" stroke-miterlimit="10"/><path d="M278.102 186.66a2.041 2.041 0 0 1-4.082 0c0-1.129.914-2.039 2.039-2.039a2.04 2.04 0 0 1 2.043 2.04" fill-rule="evenodd" fill="green"/><path d="M278.102 186.66a2.041 2.041 0 0 1-4.082 0c0-1.129.914-2.039 2.039-2.039a2.04 2.04 0 0 1 2.043 2.04zm0 0" fill="none" stroke-width=".12" stroke-linecap="round" stroke-linejoin="round" stroke="green" stroke-miterlimit="10"/><path d="M277.078 186.66a1.02 1.02 0 1 1-2.04-.001 1.02 1.02 0 0 1 2.04.001" fill-rule="evenodd" fill="#fff"/><path d="M277.078 186.66a1.02 1.02 0 1 1-2.04-.001 1.02 1.02 0 0 1 2.04.001zm0 0" fill="none" stroke-width=".06" stroke-linecap="square" stroke-linejoin="bevel" stroke="#000" stroke-miterlimit="10"/><path d="M306.84 215.46a2.038 2.038 0 1 1-4.078 0c0-1.128.91-2.038 2.039-2.038 1.125 0 2.039.91 2.039 2.039" fill-rule="evenodd" fill="green"/><path d="M306.84 215.46a2.038 2.038 0 1 1-4.078 0c0-1.128.91-2.038 2.039-2.038 1.125 0 2.039.91 2.039 2.039zm0 0" fill="none" stroke-width=".12" stroke-linecap="round" stroke-linejoin="round" stroke="green" stroke-miterlimit="10"/><path d="M305.82 215.46a1.02 1.02 0 1 1-2.04 0 1.02 1.02 0 0 1 2.04 0" fill-rule="evenodd" fill="#fff"/><path d="M305.82 215.46a1.02 1.02 0 1 1-2.04 0 1.02 1.02 0 0 1 2.04 0zm0 0" fill="none" stroke-width=".06" stroke-linecap="square" stroke-linejoin="bevel" stroke="#000" stroke-miterlimit="10"/><path d="M306.84 201.059a2.039 2.039 0 1 1-4.078 0 2.038 2.038 0 1 1 4.078 0" fill-rule="evenodd" fill="green"/><path d="M306.84 201.059a2.039 2.039 0 1 1-4.078 0 2.038 2.038 0 1 1 4.078 0zm0 0" fill="none" stroke-width=".12" stroke-linecap="round" stroke-linejoin="round" stroke="green" stroke-miterlimit="10"/><path d="M305.82 201.059a1.02 1.02 0 1 1-2.04-.002 1.02 1.02 0 0 1 2.04.002" fill-rule="evenodd" fill="#fff"/><path d="M305.82 201.059a1.02 1.02 0 1 1-2.04-.002 1.02 1.02 0 0 1 2.04.002zm0 0" fill="none" stroke-width=".06" stroke-linecap="square" stroke-linejoin="bevel" stroke="#000" stroke-miterlimit="10"/><path d="M306.84 208.262a2.038 2.038 0 1 1-4.078 0 2.039 2.039 0 1 1 4.078 0" fill-rule="evenodd" fill="green"/><path d="M306.84 208.262a2.038 2.038 0 1 1-4.078 0 2.039 2.039 0 1 1 4.078 0zm0 0" fill="none" stroke-width=".12" stroke-linecap="round" stroke-linejoin="round" stroke="green" stroke-miterlimit="10"/><path d="M305.82 208.262a1.02 1.02 0 1 1-1.02-1.024c.563 0 1.02.457 1.02 1.024" fill-rule="evenodd" fill="#fff"/><path d="M305.82 208.262a1.02 1.02 0 1 1-1.02-1.024c.563 0 1.02.457 1.02 1.024zm0 0" fill="none" stroke-width=".06" stroke-linecap="square" stroke-linejoin="bevel" stroke="#000" stroke-miterlimit="10"/><path d="M271.379 193.86a2.516 2.516 0 0 1-2.52 2.519 2.52 2.52 0 1 1 2.52-2.52" fill-rule="evenodd" fill="green"/><path d="M271.379 193.86a2.516 2.516 0 0 1-2.52 2.519 2.52 2.52 0 1 1 2.52-2.52zm0 0" fill="none" stroke-width=".12" stroke-linecap="round" stroke-linejoin="round" stroke="green" stroke-miterlimit="10"/><path d="M270.3 193.86a1.44 1.44 0 1 1-2.88.001 1.44 1.44 0 0 1 2.88-.002" fill-rule="evenodd" fill="#fff"/><path d="M270.3 193.86a1.44 1.44 0 1 1-2.88.001 1.44 1.44 0 0 1 2.88-.002zm0 0" fill="none" stroke-width=".06" stroke-linecap="square" stroke-linejoin="bevel" stroke="#000" stroke-miterlimit="10"/><path d="M271.379 201.059a2.516 2.516 0 0 1-2.52 2.52 2.52 2.52 0 1 1 2.52-2.52" fill-rule="evenodd" fill="green"/><path d="M271.379 201.059a2.516 2.516 0 0 1-2.52 2.52 2.52 2.52 0 1 1 2.52-2.52zm0 0" fill="none" stroke-width=".12" stroke-linecap="round" stroke-linejoin="round" stroke="green" stroke-miterlimit="10"/><path d="M270.3 201.059a1.44 1.44 0 1 1-2.88.002 1.44 1.44 0 0 1 2.88-.002" fill-rule="evenodd" fill="#fff"/><path d="M270.3 201.059a1.44 1.44 0 1 1-2.88.002 1.44 1.44 0 0 1 2.88-.002zm0 0" fill="none" stroke-width=".06" stroke-linecap="square" stroke-linejoin="bevel" stroke="#000" stroke-miterlimit="10"/><path d="M306.66 194.64l-1.082 1.079h-1.558l-1.079-1.078v-1.563L304.02 192h1.558l1.082 1.078v1.563" fill="green"/><path d="M306.66 194.64l-1.082 1.079h-1.558l-1.079-1.078v-1.563L304.02 192h1.558l1.082 1.078zm0 0" fill="none" stroke-width=".12" stroke-linecap="round" stroke-linejoin="round" stroke="green" stroke-miterlimit="10"/><path d="M305.941 193.86a1.14 1.14 0 1 1-2.278 0 1.14 1.14 0 0 1 2.278-.001" fill-rule="evenodd" fill="#fff"/><path d="M305.941 193.86a1.14 1.14 0 1 1-2.278 0 1.14 1.14 0 0 1 2.278-.001zm0 0" fill="none" stroke-width=".06" stroke-linecap="square" stroke-linejoin="bevel" stroke="#000" stroke-miterlimit="10"/><path d="M306.66 180.238l-1.082 1.082h-1.558l-1.079-1.082v-1.558l1.079-1.078h1.558l1.082 1.078v1.558" fill="green"/><path d="M306.66 180.238l-1.082 1.082h-1.558l-1.079-1.082v-1.558l1.079-1.078h1.558l1.082 1.078zm0 0" fill="none" stroke-width=".12" stroke-linecap="round" stroke-linejoin="round" stroke="green" stroke-miterlimit="10"/><path d="M305.941 179.46a1.141 1.141 0 0 1-2.28.001 1.14 1.14 0 1 1 2.28 0" fill-rule="evenodd" fill="#fff"/><path d="M305.941 179.46a1.141 1.141 0 0 1-2.28.001 1.14 1.14 0 1 1 2.28 0zm0 0" fill="none" stroke-width=".06" stroke-linecap="square" stroke-linejoin="bevel" stroke="#000" stroke-miterlimit="10"/><path d="M306.66 187.441l-1.082 1.079h-1.558l-1.079-1.079v-1.562l1.079-1.078h1.558l1.082 1.078v1.562" fill="green"/><path d="M306.66 187.441l-1.082 1.079h-1.558l-1.079-1.079v-1.562l1.079-1.078h1.558l1.082 1.078zm0 0" fill="none" stroke-width=".12" stroke-linecap="round" stroke-linejoin="round" stroke="green" stroke-miterlimit="10"/><path d="M305.941 186.66a1.14 1.14 0 1 1-2.28 0 1.14 1.14 0 0 1 2.28 0" fill-rule="evenodd" fill="#fff"/><path d="M305.941 186.66a1.14 1.14 0 1 1-2.28 0 1.14 1.14 0 0 1 2.28 0zm0 0" fill="none" stroke-width=".06" stroke-linecap="square" stroke-linejoin="bevel" stroke="#000" stroke-miterlimit="10"/><path d="M336.121 244.2a2.518 2.518 0 0 1-2.52 2.519 2.519 2.519 0 1 1 0-5.04 2.52 2.52 0 0 1 2.52 2.52" fill-rule="evenodd" fill="green"/><path d="M336.121 244.2a2.518 2.518 0 0 1-2.52 2.519 2.519 2.519 0 1 1 0-5.04 2.52 2.52 0 0 1 2.52 2.52zm0 0" fill="none" stroke-width=".12" stroke-linecap="round" stroke-linejoin="round" stroke="green" stroke-miterlimit="10"/><path d="M335.04 244.2a1.44 1.44 0 1 1-2.88.003 1.44 1.44 0 0 1 2.88-.004" fill-rule="evenodd" fill="#fff"/><path d="M335.04 244.2a1.44 1.44 0 1 1-2.88.003 1.44 1.44 0 0 1 2.88-.004zm0 0" fill="none" stroke-width=".06" stroke-linecap="square" stroke-linejoin="bevel" stroke="#000" stroke-miterlimit="10"/><path d="M336.121 237a2.52 2.52 0 1 1-5.041-.002 2.52 2.52 0 0 1 5.041.002" fill-rule="evenodd" fill="green"/><path d="M336.121 237a2.52 2.52 0 1 1-5.041-.002 2.52 2.52 0 0 1 5.041.002zm0 0" fill="none" stroke-width=".12" stroke-linecap="round" stroke-linejoin="round" stroke="green" stroke-miterlimit="10"/><path d="M335.04 237a1.44 1.44 0 1 1-2.88 0 1.44 1.44 0 1 1 2.88 0" fill-rule="evenodd" fill="#fff"/><path d="M335.04 237a1.44 1.44 0 1 1-2.88 0 1.44 1.44 0 1 1 2.88 0zm0 0" fill="none" stroke-width=".06" stroke-linecap="square" stroke-linejoin="bevel" stroke="#000" stroke-miterlimit="10"/><path d="M336.121 222.66a2.52 2.52 0 1 1-5.041-.002 2.52 2.52 0 0 1 5.041.002" fill-rule="evenodd" fill="green"/><path d="M336.121 222.66a2.52 2.52 0 1 1-5.041-.002 2.52 2.52 0 0 1 5.041.002zm0 0" fill="none" stroke-width=".12" stroke-linecap="round" stroke-linejoin="round" stroke="green" stroke-miterlimit="10"/><path d="M335.04 222.66c0 .793-.645 1.442-1.438 1.442a1.44 1.44 0 1 1 1.438-1.441" fill-rule="evenodd" fill="#fff"/><path d="M335.04 222.66c0 .793-.645 1.442-1.438 1.442a1.44 1.44 0 1 1 1.438-1.441zm0 0" fill="none" stroke-width=".06" stroke-linecap="square" stroke-linejoin="bevel" stroke="#000" stroke-miterlimit="10"/><path d="M336.121 229.8a2.52 2.52 0 1 1-5.041-.001 2.52 2.52 0 0 1 5.041.002" fill-rule="evenodd" fill="green"/><path d="M336.121 229.8a2.52 2.52 0 1 1-5.041-.001 2.52 2.52 0 0 1 5.041.002zm0 0" fill="none" stroke-width=".12" stroke-linecap="round" stroke-linejoin="round" stroke="green" stroke-miterlimit="10"/><path d="M335.04 229.8a1.439 1.439 0 1 1-2.878-.002 1.439 1.439 0 0 1 2.877.003" fill-rule="evenodd" fill="#fff"/><path d="M335.04 229.8a1.439 1.439 0 1 1-2.878-.002 1.439 1.439 0 0 1 2.877.003zm0 0" fill="none" stroke-width=".06" stroke-linecap="square" stroke-linejoin="bevel" stroke="#000" stroke-miterlimit="10"/><path d="M324.96 231.238h2.88v-2.879h-2.88zm0 0" fill="green" stroke-width=".12" stroke-linecap="round" stroke-linejoin="round" stroke="green" stroke-miterlimit="10"/><path d="M327.238 229.8a.841.841 0 1 1-1.677-.002.841.841 0 0 1 1.677.003" fill-rule="evenodd" fill="#fff"/><path d="M327.238 229.8a.841.841 0 1 1-1.677-.002.841.841 0 0 1 1.677.003zm0 0" fill="none" stroke-width=".06" stroke-linecap="square" stroke-linejoin="bevel" stroke="#000" stroke-miterlimit="10"/><path d="M310.559 231.238h2.882v-2.879h-2.882zm0 0" fill="green" stroke-width=".12" stroke-linecap="round" stroke-linejoin="round" stroke="green" stroke-miterlimit="10"/><path d="M312.84 229.8c0 .466-.375.84-.84.84a.839.839 0 0 1-.84-.84.84.84 0 1 1 1.68 0" fill-rule="evenodd" fill="#fff"/><path d="M312.84 229.8c0 .466-.375.84-.84.84a.839.839 0 0 1-.84-.84.84.84 0 1 1 1.68 0zm0 0" fill="none" stroke-width=".06" stroke-linecap="square" stroke-linejoin="bevel" stroke="#000" stroke-miterlimit="10"/><path d="M326.398 229.8H312" fill="none" stroke-width="3.6" stroke-linecap="round" stroke-linejoin="round" stroke="maroon" stroke-miterlimit="10"/><path d="M270.602 208.262a1.74 1.74 0 1 1-3.481-.005 1.74 1.74 0 0 1 3.48.005" fill-rule="evenodd" fill="green"/><path d="M270.602 208.262a1.74 1.74 0 1 1-3.481-.005 1.74 1.74 0 0 1 3.48.005zm0 0" fill="none" stroke-width=".12" stroke-linecap="round" stroke-linejoin="round" stroke="green" stroke-miterlimit="10"/><path d="M269.879 208.262a1.02 1.02 0 1 1-1.02-1.024c.563 0 1.02.457 1.02 1.024" fill-rule="evenodd" fill="#fff"/><path d="M269.879 208.262a1.02 1.02 0 1 1-1.02-1.024c.563 0 1.02.457 1.02 1.024zm0 0" fill="none" stroke-width=".06" stroke-linecap="square" stroke-linejoin="bevel" stroke="#000" stroke-miterlimit="10"/><path d="M267.121 217.2h3.48v-3.481h-3.48zm0 0" fill="green" stroke-width=".12" stroke-linecap="round" stroke-linejoin="round" stroke="green" stroke-miterlimit="10"/><path d="M269.879 215.46a1.02 1.02 0 1 1-2.04 0 1.02 1.02 0 0 1 2.04 0" fill-rule="evenodd" fill="#fff"/><path d="M269.879 215.46a1.02 1.02 0 1 1-2.04 0 1.02 1.02 0 0 1 2.04 0zm0 0" fill="none" stroke-width=".06" stroke-linecap="square" stroke-linejoin="bevel" stroke="#000" stroke-miterlimit="10"/><path d="M277.8 229.8a1.74 1.74 0 1 1-3.48-.004 1.74 1.74 0 0 1 3.48.005" fill-rule="evenodd" fill="green"/><path d="M277.8 229.8a1.74 1.74 0 1 1-3.48-.004 1.74 1.74 0 0 1 3.48.005zm0 0" fill="none" stroke-width=".12" stroke-linecap="round" stroke-linejoin="round" stroke="green" stroke-miterlimit="10"/><path d="M277.078 229.8a1.02 1.02 0 1 1-2.04 0 1.02 1.02 0 0 1 2.04 0" fill-rule="evenodd" fill="#fff"/><path d="M277.078 229.8a1.02 1.02 0 1 1-2.04 0 1.02 1.02 0 0 1 2.04 0zm0 0" fill="none" stroke-width=".06" stroke-linecap="square" stroke-linejoin="bevel" stroke="#000" stroke-miterlimit="10"/><path d="M274.32 224.398h3.48v-3.48h-3.48zm0 0" fill="green" stroke-width=".12" stroke-linecap="round" stroke-linejoin="round" stroke="green" stroke-miterlimit="10"/><path d="M277.078 222.66a1.02 1.02 0 1 1-2.04-.001 1.02 1.02 0 0 1 2.04.001" fill-rule="evenodd" fill="#fff"/><path d="M277.078 222.66a1.02 1.02 0 1 1-2.04-.001 1.02 1.02 0 0 1 2.04.001zm0 0" fill="none" stroke-width=".06" stroke-linecap="square" stroke-linejoin="bevel" stroke="#000" stroke-miterlimit="10"/><path d="M299.34 229.8a1.74 1.74 0 1 1-1.738-1.742c.96 0 1.738.782 1.738 1.743" fill-rule="evenodd" fill="green"/><path d="M299.34 229.8a1.74 1.74 0 1 1-1.738-1.742c.96 0 1.738.782 1.738 1.743zm0 0" fill="none" stroke-width=".12" stroke-linecap="round" stroke-linejoin="round" stroke="green" stroke-miterlimit="10"/><path d="M298.621 229.8a1.021 1.021 0 1 1-2.043 0 1.021 1.021 0 0 1 2.043 0" fill-rule="evenodd" fill="#fff"/><path d="M298.621 229.8a1.021 1.021 0 1 1-2.043 0 1.021 1.021 0 0 1 2.043 0zm0 0" fill="none" stroke-width=".06" stroke-linecap="square" stroke-linejoin="bevel" stroke="#000" stroke-miterlimit="10"/><path d="M295.86 224.398h3.48v-3.48h-3.48zm0 0" fill="green" stroke-width=".12" stroke-linecap="round" stroke-linejoin="round" stroke="green" stroke-miterlimit="10"/><path d="M298.621 222.66a1.021 1.021 0 1 1-2.043 0 1.021 1.021 0 0 1 2.043 0" fill-rule="evenodd" fill="#fff"/><path d="M298.621 222.66a1.021 1.021 0 1 1-2.043 0 1.021 1.021 0 0 1 2.043 0zm0 0" fill="none" stroke-width=".06" stroke-linecap="square" stroke-linejoin="bevel" stroke="#000" stroke-miterlimit="10"/><path d="M330.898 189.36h5.403v-5.4h-5.403zm0 0" fill="green" stroke-width=".12" stroke-linecap="round" stroke-linejoin="round" stroke="green" stroke-miterlimit="10"/><path d="M334.738 186.66a1.139 1.139 0 1 1-2.277 0 1.14 1.14 0 1 1 2.277 0" fill-rule="evenodd" fill="#fff"/><path d="M334.738 186.66a1.139 1.139 0 1 1-2.277 0 1.14 1.14 0 1 1 2.277 0zm0 0" fill="none" stroke-width=".06" stroke-linecap="square" stroke-linejoin="bevel" stroke="#000" stroke-miterlimit="10"/><path d="M321.898 186.66a2.7 2.7 0 1 1-5.397-.001 2.7 2.7 0 0 1 5.397.001" fill-rule="evenodd" fill="green"/><path d="M321.898 186.66a2.7 2.7 0 1 1-5.397-.001 2.7 2.7 0 0 1 5.397.001zm0 0" fill="none" stroke-width=".12" stroke-linecap="round" stroke-linejoin="round" stroke="green" stroke-miterlimit="10"/><path d="M320.34 186.66a1.14 1.14 0 1 1-2.28-.002 1.14 1.14 0 0 1 2.279.002" fill-rule="evenodd" fill="#fff"/><path d="M320.34 186.66a1.14 1.14 0 1 1-2.28-.002 1.14 1.14 0 0 1 2.279.002zm0 0" fill="none" stroke-width=".06" stroke-linecap="square" stroke-linejoin="bevel" stroke="#000" stroke-miterlimit="10"/><path d="M285.121 208.262c0 1.023-.836 1.86-1.86 1.86a1.865 1.865 0 0 1-1.863-1.86c0-1.028.836-1.864 1.864-1.864 1.023 0 1.86.836 1.86 1.864" fill-rule="evenodd" fill="green"/><path d="M285.121 208.262c0 1.023-.836 1.86-1.86 1.86a1.865 1.865 0 0 1-1.863-1.86c0-1.028.836-1.864 1.864-1.864 1.023 0 1.86.836 1.86 1.864zm0 0" fill="none" stroke-width=".12" stroke-linecap="round" stroke-linejoin="round" stroke="green" stroke-miterlimit="10"/><path d="M284.398 208.262c0 .629-.507 1.136-1.136 1.136-.633 0-1.14-.507-1.14-1.136 0-.633.507-1.14 1.14-1.14.629 0 1.136.507 1.136 1.14" fill-rule="evenodd" fill="#fff"/><path d="M284.398 208.262c0 .629-.507 1.136-1.136 1.136-.633 0-1.14-.507-1.14-1.136 0-.633.507-1.14 1.14-1.14.629 0 1.136.507 1.136 1.14zm0 0" fill="none" stroke-width=".06" stroke-linecap="square" stroke-linejoin="bevel" stroke="#000" stroke-miterlimit="10"/><path d="M299.46 208.262a1.861 1.861 0 1 1-3.722-.004 1.861 1.861 0 0 1 3.723.004" fill-rule="evenodd" fill="green"/><path d="M299.46 208.262a1.861 1.861 0 1 1-3.722-.004 1.861 1.861 0 0 1 3.723.004zm0 0" fill="none" stroke-width=".12" stroke-linecap="round" stroke-linejoin="round" stroke="green" stroke-miterlimit="10"/><path d="M298.738 208.262c0 .629-.508 1.136-1.136 1.136a1.136 1.136 0 0 1-1.141-1.136c0-.633.508-1.14 1.14-1.14.63 0 1.137.507 1.137 1.14" fill-rule="evenodd" fill="#fff"/><path d="M298.738 208.262c0 .629-.508 1.136-1.136 1.136a1.136 1.136 0 0 1-1.141-1.136c0-.633.508-1.14 1.14-1.14.63 0 1.137.507 1.137 1.14zm0 0" fill="none" stroke-width=".06" stroke-linecap="square" stroke-linejoin="bevel" stroke="#000" stroke-miterlimit="10"/><path d="M299.46 193.86a1.858 1.858 0 0 1-1.858 1.859 1.862 1.862 0 0 1-1.864-1.86 1.862 1.862 0 0 1 3.723 0" fill-rule="evenodd" fill="green"/><path d="M299.46 193.86a1.858 1.858 0 0 1-1.858 1.859 1.862 1.862 0 0 1-1.864-1.86 1.862 1.862 0 0 1 3.723 0zm0 0" fill="none" stroke-width=".12" stroke-linecap="round" stroke-linejoin="round" stroke="green" stroke-miterlimit="10"/><path d="M298.738 193.86a1.139 1.139 0 1 1-2.277 0 1.14 1.14 0 1 1 2.277 0" fill-rule="evenodd" fill="#fff"/><path d="M298.738 193.86a1.139 1.139 0 1 1-2.277 0 1.14 1.14 0 1 1 2.277 0zm0 0" fill="none" stroke-width=".06" stroke-linecap="square" stroke-linejoin="bevel" stroke="#000" stroke-miterlimit="10"/><path d="M285.121 193.86a1.861 1.861 0 0 1-3.723 0 1.862 1.862 0 0 1 3.723 0" fill-rule="evenodd" fill="green"/><path d="M285.121 193.86a1.861 1.861 0 0 1-3.723 0 1.862 1.862 0 0 1 3.723 0zm0 0" fill="none" stroke-width=".12" stroke-linecap="round" stroke-linejoin="round" stroke="green" stroke-miterlimit="10"/><path d="M284.398 193.86a1.139 1.139 0 1 1-2.277 0 1.14 1.14 0 1 1 2.277 0" fill-rule="evenodd" fill="#fff"/><path d="M284.398 193.86a1.139 1.139 0 1 1-2.277 0 1.14 1.14 0 1 1 2.277 0zm0 0" fill="none" stroke-width=".06" stroke-linecap="square" stroke-linejoin="bevel" stroke="#000" stroke-miterlimit="10"/><path d="M299.34 201.059a1.74 1.74 0 1 1-3.481.003 1.74 1.74 0 0 1 3.48-.003" fill-rule="evenodd" fill="green"/><path d="M299.34 201.059a1.74 1.74 0 1 1-3.481.003 1.74 1.74 0 0 1 3.48-.003zm0 0" fill="none" stroke-width=".12" stroke-linecap="round" stroke-linejoin="round" stroke="green" stroke-miterlimit="10"/><path d="M298.621 201.059a1.021 1.021 0 1 1-2.043 0 1.021 1.021 0 0 1 2.043 0" fill-rule="evenodd" fill="#fff"/><path d="M298.621 201.059a1.021 1.021 0 1 1-2.043 0 1.021 1.021 0 0 1 2.043 0zm0 0" fill="none" stroke-width=".06" stroke-linecap="square" stroke-linejoin="bevel" stroke="#000" stroke-miterlimit="10"/><path d="M277.8 201.059" fill-rule="evenodd" fill="green"/><path d="M277.8 201.059zm0 0" fill="none" stroke-width=".12" stroke-linecap="round" stroke-linejoin="round" stroke="green" stroke-miterlimit="10"/><path d="M277.078 201.059a1.02 1.02 0 1 1-2.04-.002 1.02 1.02 0 0 1 2.04.002" fill-rule="evenodd" fill="#fff"/><path d="M277.078 201.059a1.02 1.02 0 1 1-2.04-.002 1.02 1.02 0 0 1 2.04.002zm0 0" fill="none" stroke-width=".06" stroke-linecap="square" stroke-linejoin="bevel" stroke="#000" stroke-miterlimit="10"/><path d="M335.34 208.262a1.74 1.74 0 1 1-1.738-1.742c.96 0 1.738.78 1.738 1.742" fill-rule="evenodd" fill="green"/><path d="M335.34 208.262a1.74 1.74 0 1 1-1.738-1.742c.96 0 1.738.78 1.738 1.742zm0 0" fill="none" stroke-width=".12" stroke-linecap="round" stroke-linejoin="round" stroke="green" stroke-miterlimit="10"/><path d="M334.621 208.262a1.021 1.021 0 1 1-1.02-1.023c.563 0 1.02.456 1.02 1.023" fill-rule="evenodd" fill="#fff"/><path d="M334.621 208.262a1.021 1.021 0 1 1-1.02-1.023c.563 0 1.02.456 1.02 1.023zm0 0" fill="none" stroke-width=".06" stroke-linecap="square" stroke-linejoin="bevel" stroke="#000" stroke-miterlimit="10"/><path d="M313.738 208.262a1.737 1.737 0 1 1-3.477 0A1.74 1.74 0 0 1 312 206.52c.96 0 1.738.78 1.738 1.742" fill-rule="evenodd" fill="green"/><path d="M313.738 208.262a1.737 1.737 0 1 1-3.477 0A1.74 1.74 0 0 1 312 206.52c.96 0 1.738.78 1.738 1.742zm0 0" fill="none" stroke-width=".12" stroke-linecap="round" stroke-linejoin="round" stroke="green" stroke-miterlimit="10"/><path d="M313.02 208.262a1.02 1.02 0 1 1-1.02-1.024c.563 0 1.02.457 1.02 1.024" fill-rule="evenodd" fill="#fff"/><path d="M313.02 208.262a1.02 1.02 0 1 1-1.02-1.024c.563 0 1.02.457 1.02 1.024zm0 0" fill="none" stroke-width=".06" stroke-linecap="square" stroke-linejoin="bevel" stroke="#000" stroke-miterlimit="10"/><path d="M335.34 215.46a1.74 1.74 0 1 1-1.738-1.742c.96 0 1.738.782 1.738 1.743" fill-rule="evenodd" fill="green"/><path d="M335.34 215.46a1.74 1.74 0 1 1-1.738-1.742c.96 0 1.738.782 1.738 1.743zm0 0" fill="none" stroke-width=".12" stroke-linecap="round" stroke-linejoin="round" stroke="green" stroke-miterlimit="10"/><path d="M334.621 215.46a1.021 1.021 0 1 1-2.043 0 1.02 1.02 0 0 1 1.024-1.019c.562 0 1.02.454 1.02 1.02" fill-rule="evenodd" fill="#fff"/><path d="M334.621 215.46a1.021 1.021 0 1 1-2.043 0 1.02 1.02 0 0 1 1.024-1.019c.562 0 1.02.454 1.02 1.02zm0 0" fill="none" stroke-width=".06" stroke-linecap="square" stroke-linejoin="bevel" stroke="#000" stroke-miterlimit="10"/><path d="M313.738 215.46a1.737 1.737 0 1 1-3.477 0c0-.96.778-1.741 1.739-1.741.96 0 1.738.781 1.738 1.742" fill-rule="evenodd" fill="green"/><path d="M313.738 215.46a1.737 1.737 0 1 1-3.477 0c0-.96.778-1.741 1.739-1.741.96 0 1.738.781 1.738 1.742zm0 0" fill="none" stroke-width=".12" stroke-linecap="round" stroke-linejoin="round" stroke="green" stroke-miterlimit="10"/><path d="M313.02 215.46a1.02 1.02 0 1 1-2.041 0 1.02 1.02 0 0 1 2.04 0" fill-rule="evenodd" fill="#fff"/><path d="M313.02 215.46a1.02 1.02 0 1 1-2.041 0 1.02 1.02 0 0 1 2.04 0zm0 0" fill="none" stroke-width=".06" stroke-linecap="square" stroke-linejoin="bevel" stroke="#000" stroke-miterlimit="10"/><path d="M306.66 237a1.859 1.859 0 1 1-3.717.001 1.859 1.859 0 0 1 3.717-.001" fill-rule="evenodd" fill="green"/><path d="M306.66 237a1.859 1.859 0 1 1-3.717.001 1.859 1.859 0 0 1 3.717-.001zm0 0" fill="none" stroke-width=".12" stroke-linecap="round" stroke-linejoin="round" stroke="green" stroke-miterlimit="10"/><path d="M305.941 237a1.14 1.14 0 1 1-2.282-.002 1.14 1.14 0 0 1 2.282.002" fill-rule="evenodd" fill="#fff"/><path d="M305.941 237a1.14 1.14 0 1 1-2.282-.002 1.14 1.14 0 0 1 2.282.002zm0 0" fill="none" stroke-width=".06" stroke-linecap="square" stroke-linejoin="bevel" stroke="#000" stroke-miterlimit="10"/><path d="M328.262 237a1.862 1.862 0 0 1-3.723 0 1.862 1.862 0 0 1 3.723 0" fill-rule="evenodd" fill="green"/><path d="M328.262 237a1.862 1.862 0 0 1-3.723 0 1.862 1.862 0 0 1 3.723 0zm0 0" fill="none" stroke-width=".12" stroke-linecap="round" stroke-linejoin="round" stroke="green" stroke-miterlimit="10"/><path d="M327.54 237a1.14 1.14 0 1 1-2.28.002 1.14 1.14 0 0 1 2.28-.002" fill-rule="evenodd" fill="#fff"/><path d="M327.54 237a1.14 1.14 0 1 1-2.28.002 1.14 1.14 0 0 1 2.28-.002zm0 0" fill="none" stroke-width=".06" stroke-linecap="square" stroke-linejoin="bevel" stroke="#000" stroke-miterlimit="10"/><path d="M285.781 245.219l-1.5 1.5h-2.043l-1.5-1.5v-2.04l1.5-1.5h2.043l1.5 1.5v2.04" fill="green"/><path d="M285.781 245.219l-1.5 1.5h-2.043l-1.5-1.5v-2.04l1.5-1.5h2.043l1.5 1.5zm0 0" fill="none" stroke-width=".12" stroke-linecap="round" stroke-linejoin="round" stroke="green" stroke-miterlimit="10"/><path d="M284.52 244.2a1.26 1.26 0 1 1-2.521.002 1.26 1.26 0 0 1 2.52-.003" fill-rule="evenodd" fill="#fff"/><path d="M284.52 244.2a1.26 1.26 0 1 1-2.521.002 1.26 1.26 0 0 1 2.52-.003zm0 0" fill="none" stroke-width=".06" stroke-linecap="square" stroke-linejoin="bevel" stroke="#000" stroke-miterlimit="10"/><path d="M278.578 245.219l-1.5 1.5h-2.039l-1.5-1.5v-2.04l1.5-1.5h2.04l1.5 1.5v2.04" fill="green"/><path d="M278.578 245.219l-1.5 1.5h-2.039l-1.5-1.5v-2.04l1.5-1.5h2.04l1.5 1.5zm0 0" fill="none" stroke-width=".12" stroke-linecap="round" stroke-linejoin="round" stroke="green" stroke-miterlimit="10"/><path d="M277.32 244.2" fill-rule="evenodd" fill="#fff"/><path d="M277.32 244.2zm0 0" fill="none" stroke-width=".06" stroke-linecap="square" stroke-linejoin="bevel" stroke="#000" stroke-miterlimit="10"/><path d="M266.34 246.719h5.039v-5.04h-5.04zm0 0" fill="green" stroke-width=".12" stroke-linecap="round" stroke-linejoin="round" stroke="green" stroke-miterlimit="10"/><path d="M270.121 244.2" fill-rule="evenodd" fill="#fff"/><path d="M270.121 244.2zm0 0" fill="none" stroke-width=".06" stroke-linecap="square" stroke-linejoin="bevel" stroke="#000" stroke-miterlimit="10"/><path d="M285.3 186.66a2.04 2.04 0 0 1-4.081 0c0-1.129.914-2.039 2.043-2.039 1.125 0 2.039.91 2.039 2.04" fill-rule="evenodd" fill="green"/><path d="M285.3 186.66a2.04 2.04 0 0 1-4.081 0c0-1.129.914-2.039 2.043-2.039 1.125 0 2.039.91 2.039 2.04zm0 0" fill="none" stroke-width=".12" stroke-linecap="round" stroke-linejoin="round" stroke="green" stroke-miterlimit="10"/><path d="M284.281 186.66a1.021 1.021 0 1 1-2.043 0 1.021 1.021 0 0 1 2.043 0" fill-rule="evenodd" fill="#fff"/><path d="M284.281 186.66a1.021 1.021 0 1 1-2.043 0 1.021 1.021 0 0 1 2.043 0zm0 0" fill="none" stroke-width=".06" stroke-linecap="square" stroke-linejoin="bevel" stroke="#000" stroke-miterlimit="10"/><path d="M270.898 186.66a2.038 2.038 0 1 1-4.078 0c0-1.129.914-2.039 2.04-2.039 1.128 0 2.038.91 2.038 2.04" fill-rule="evenodd" fill="green"/><path d="M270.898 186.66a2.038 2.038 0 1 1-4.078 0c0-1.129.914-2.039 2.04-2.039 1.128 0 2.038.91 2.038 2.04zm0 0" fill="none" stroke-width=".12" stroke-linecap="round" stroke-linejoin="round" stroke="green" stroke-miterlimit="10"/><path d="M269.879 186.66a1.02 1.02 0 1 1-2.04-.001 1.02 1.02 0 0 1 2.04.001" fill-rule="evenodd" fill="#fff"/><path d="M269.879 186.66a1.02 1.02 0 1 1-2.04-.001 1.02 1.02 0 0 1 2.04.001zm0 0" fill="none" stroke-width=".06" stroke-linecap="square" stroke-linejoin="bevel" stroke="#000" stroke-miterlimit="10"/><path d="M278.102 186.66a2.041 2.041 0 0 1-4.082 0c0-1.129.914-2.039 2.039-2.039a2.04 2.04 0 0 1 2.043 2.04" fill-rule="evenodd" fill="green"/><path d="M278.102 186.66a2.041 2.041 0 0 1-4.082 0c0-1.129.914-2.039 2.039-2.039a2.04 2.04 0 0 1 2.043 2.04zm0 0" fill="none" stroke-width=".12" stroke-linecap="round" stroke-linejoin="round" stroke="green" stroke-miterlimit="10"/><path d="M277.078 186.66a1.02 1.02 0 1 1-2.04-.001 1.02 1.02 0 0 1 2.04.001" fill-rule="evenodd" fill="#fff"/><path d="M277.078 186.66a1.02 1.02 0 1 1-2.04-.001 1.02 1.02 0 0 1 2.04.001zm0 0" fill="none" stroke-width=".06" stroke-linecap="square" stroke-linejoin="bevel" stroke="#000" stroke-miterlimit="10"/><path d="M306.84 215.46a2.038 2.038 0 1 1-4.078 0c0-1.128.91-2.038 2.039-2.038 1.125 0 2.039.91 2.039 2.039" fill-rule="evenodd" fill="green"/><path d="M306.84 215.46a2.038 2.038 0 1 1-4.078 0c0-1.128.91-2.038 2.039-2.038 1.125 0 2.039.91 2.039 2.039zm0 0" fill="none" stroke-width=".12" stroke-linecap="round" stroke-linejoin="round" stroke="green" stroke-miterlimit="10"/><path d="M305.82 215.46a1.02 1.02 0 1 1-2.04 0 1.02 1.02 0 0 1 2.04 0" fill-rule="evenodd" fill="#fff"/><path d="M305.82 215.46a1.02 1.02 0 1 1-2.04 0 1.02 1.02 0 0 1 2.04 0zm0 0" fill="none" stroke-width=".06" stroke-linecap="square" stroke-linejoin="bevel" stroke="#000" stroke-miterlimit="10"/><path d="M306.84 201.059a2.039 2.039 0 1 1-4.078 0 2.038 2.038 0 1 1 4.078 0" fill-rule="evenodd" fill="green"/><path d="M306.84 201.059a2.039 2.039 0 1 1-4.078 0 2.038 2.038 0 1 1 4.078 0zm0 0" fill="none" stroke-width=".12" stroke-linecap="round" stroke-linejoin="round" stroke="green" stroke-miterlimit="10"/><path d="M305.82 201.059a1.02 1.02 0 1 1-2.04-.002 1.02 1.02 0 0 1 2.04.002" fill-rule="evenodd" fill="#fff"/><path d="M305.82 201.059a1.02 1.02 0 1 1-2.04-.002 1.02 1.02 0 0 1 2.04.002zm0 0" fill="none" stroke-width=".06" stroke-linecap="square" stroke-linejoin="bevel" stroke="#000" stroke-miterlimit="10"/><path d="M306.84 208.262a2.038 2.038 0 1 1-4.078 0 2.039 2.039 0 1 1 4.078 0" fill-rule="evenodd" fill="green"/><path d="M306.84 208.262a2.038 2.038 0 1 1-4.078 0 2.039 2.039 0 1 1 4.078 0zm0 0" fill="none" stroke-width=".12" stroke-linecap="round" stroke-linejoin="round" stroke="green" stroke-miterlimit="10"/><path d="M305.82 208.262a1.02 1.02 0 1 1-1.02-1.024c.563 0 1.02.457 1.02 1.024" fill-rule="evenodd" fill="#fff"/><path d="M305.82 208.262a1.02 1.02 0 1 1-1.02-1.024c.563 0 1.02.457 1.02 1.024zm0 0" fill="none" stroke-width=".06" stroke-linecap="square" stroke-linejoin="bevel" stroke="#000" stroke-miterlimit="10"/><path d="M271.379 193.86a2.516 2.516 0 0 1-2.52 2.519 2.52 2.52 0 1 1 2.52-2.52" fill-rule="evenodd" fill="green"/><path d="M271.379 193.86a2.516 2.516 0 0 1-2.52 2.519 2.52 2.52 0 1 1 2.52-2.52zm0 0" fill="none" stroke-width=".12" stroke-linecap="round" stroke-linejoin="round" stroke="green" stroke-miterlimit="10"/><path d="M270.3 193.86a1.44 1.44 0 1 1-2.88.001 1.44 1.44 0 0 1 2.88-.002" fill-rule="evenodd" fill="#fff"/><path d="M270.3 193.86a1.44 1.44 0 1 1-2.88.001 1.44 1.44 0 0 1 2.88-.002zm0 0" fill="none" stroke-width=".06" stroke-linecap="square" stroke-linejoin="bevel" stroke="#000" stroke-miterlimit="10"/><path d="M271.379 201.059a2.516 2.516 0 0 1-2.52 2.52 2.52 2.52 0 1 1 2.52-2.52" fill-rule="evenodd" fill="green"/><path d="M271.379 201.059a2.516 2.516 0 0 1-2.52 2.52 2.52 2.52 0 1 1 2.52-2.52zm0 0" fill="none" stroke-width=".12" stroke-linecap="round" stroke-linejoin="round" stroke="green" stroke-miterlimit="10"/><path d="M270.3 201.059a1.44 1.44 0 1 1-2.88.002 1.44 1.44 0 0 1 2.88-.002" fill-rule="evenodd" fill="#fff"/><path d="M270.3 201.059a1.44 1.44 0 1 1-2.88.002 1.44 1.44 0 0 1 2.88-.002zm0 0" fill="none" stroke-width=".06" stroke-linecap="square" stroke-linejoin="bevel" stroke="#000" stroke-miterlimit="10"/><path d="M306.66 194.64l-1.082 1.079h-1.558l-1.079-1.078v-1.563L304.02 192h1.558l1.082 1.078v1.563" fill="green"/><path d="M306.66 194.64l-1.082 1.079h-1.558l-1.079-1.078v-1.563L304.02 192h1.558l1.082 1.078zm0 0" fill="none" stroke-width=".12" stroke-linecap="round" stroke-linejoin="round" stroke="green" stroke-miterlimit="10"/><path d="M305.941 193.86a1.14 1.14 0 1 1-2.278 0 1.14 1.14 0 0 1 2.278-.001" fill-rule="evenodd" fill="#fff"/><path d="M305.941 193.86a1.14 1.14 0 1 1-2.278 0 1.14 1.14 0 0 1 2.278-.001zm0 0" fill="none" stroke-width=".06" stroke-linecap="square" stroke-linejoin="bevel" stroke="#000" stroke-miterlimit="10"/><path d="M306.66 180.238l-1.082 1.082h-1.558l-1.079-1.082v-1.558l1.079-1.078h1.558l1.082 1.078v1.558" fill="green"/><path d="M306.66 180.238l-1.082 1.082h-1.558l-1.079-1.082v-1.558l1.079-1.078h1.558l1.082 1.078zm0 0" fill="none" stroke-width=".12" stroke-linecap="round" stroke-linejoin="round" stroke="green" stroke-miterlimit="10"/><path d="M305.941 179.46a1.141 1.141 0 0 1-2.28.001 1.14 1.14 0 1 1 2.28 0" fill-rule="evenodd" fill="#fff"/><path d="M305.941 179.46a1.141 1.141 0 0 1-2.28.001 1.14 1.14 0 1 1 2.28 0zm0 0" fill="none" stroke-width=".06" stroke-linecap="square" stroke-linejoin="bevel" stroke="#000" stroke-miterlimit="10"/><path d="M306.66 187.441l-1.082 1.079h-1.558l-1.079-1.079v-1.562l1.079-1.078h1.558l1.082 1.078v1.562" fill="green"/><path d="M306.66 187.441l-1.082 1.079h-1.558l-1.079-1.079v-1.562l1.079-1.078h1.558l1.082 1.078zm0 0" fill="none" stroke-width=".12" stroke-linecap="round" stroke-linejoin="round" stroke="green" stroke-miterlimit="10"/><path d="M305.941 186.66a1.14 1.14 0 1 1-2.28 0 1.14 1.14 0 0 1 2.28 0" fill-rule="evenodd" fill="#fff"/><path d="M305.941 186.66a1.14 1.14 0 1 1-2.28 0 1.14 1.14 0 0 1 2.28 0zm0 0" fill="none" stroke-width=".06" stroke-linecap="square" stroke-linejoin="bevel" stroke="#000" stroke-miterlimit="10"/><path d="M336.121 244.2a2.518 2.518 0 0 1-2.52 2.519 2.519 2.519 0 1 1 0-5.04 2.52 2.52 0 0 1 2.52 2.52" fill-rule="evenodd" fill="green"/><path d="M336.121 244.2a2.518 2.518 0 0 1-2.52 2.519 2.519 2.519 0 1 1 0-5.04 2.52 2.52 0 0 1 2.52 2.52zm0 0" fill="none" stroke-width=".12" stroke-linecap="round" stroke-linejoin="round" stroke="green" stroke-miterlimit="10"/><path d="M335.04 244.2a1.44 1.44 0 1 1-2.88.003 1.44 1.44 0 0 1 2.88-.004" fill-rule="evenodd" fill="#fff"/><path d="M335.04 244.2a1.44 1.44 0 1 1-2.88.003 1.44 1.44 0 0 1 2.88-.004zm0 0" fill="none" stroke-width=".06" stroke-linecap="square" stroke-linejoin="bevel" stroke="#000" stroke-miterlimit="10"/><path d="M336.121 237a2.52 2.52 0 1 1-5.041-.002 2.52 2.52 0 0 1 5.041.002" fill-rule="evenodd" fill="green"/><path d="M336.121 237a2.52 2.52 0 1 1-5.041-.002 2.52 2.52 0 0 1 5.041.002zm0 0" fill="none" stroke-width=".12" stroke-linecap="round" stroke-linejoin="round" stroke="green" stroke-miterlimit="10"/><path d="M335.04 237a1.44 1.44 0 1 1-2.88 0 1.44 1.44 0 1 1 2.88 0" fill-rule="evenodd" fill="#fff"/><path d="M335.04 237a1.44 1.44 0 1 1-2.88 0 1.44 1.44 0 1 1 2.88 0zm0 0" fill="none" stroke-width=".06" stroke-linecap="square" stroke-linejoin="bevel" stroke="#000" stroke-miterlimit="10"/><path d="M336.121 222.66a2.52 2.52 0 1 1-5.041-.002 2.52 2.52 0 0 1 5.041.002" fill-rule="evenodd" fill="green"/><path d="M336.121 222.66a2.52 2.52 0 1 1-5.041-.002 2.52 2.52 0 0 1 5.041.002zm0 0" fill="none" stroke-width=".12" stroke-linecap="round" stroke-linejoin="round" stroke="green" stroke-miterlimit="10"/><path d="M335.04 222.66c0 .793-.645 1.442-1.438 1.442a1.44 1.44 0 1 1 1.438-1.441" fill-rule="evenodd" fill="#fff"/><path d="M335.04 222.66c0 .793-.645 1.442-1.438 1.442a1.44 1.44 0 1 1 1.438-1.441zm0 0" fill="none" stroke-width=".06" stroke-linecap="square" stroke-linejoin="bevel" stroke="#000" stroke-miterlimit="10"/><path d="M336.121 229.8a2.52 2.52 0 1 1-5.041-.001 2.52 2.52 0 0 1 5.041.002" fill-rule="evenodd" fill="green"/><path d="M336.121 229.8a2.52 2.52 0 1 1-5.041-.001 2.52 2.52 0 0 1 5.041.002zm0 0" fill="none" stroke-width=".12" stroke-linecap="round" stroke-linejoin="round" stroke="green" stroke-miterlimit="10"/><path d="M335.04 229.8a1.439 1.439 0 1 1-2.878-.002 1.439 1.439 0 0 1 2.877.003" fill-rule="evenodd" fill="#fff"/><path d="M335.04 229.8a1.439 1.439 0 1 1-2.878-.002 1.439 1.439 0 0 1 2.877.003zm0 0" fill="none" stroke-width=".06" stroke-linecap="square" stroke-linejoin="bevel" stroke="#000" stroke-miterlimit="10"/><path d="M324.96 231.238h2.88v-2.879h-2.88zm0 0" fill="green" stroke-width=".12" stroke-linecap="round" stroke-linejoin="round" stroke="green" stroke-miterlimit="10"/><path d="M327.238 229.8a.841.841 0 1 1-1.677-.002.841.841 0 0 1 1.677.003" fill-rule="evenodd" fill="#fff"/><path d="M327.238 229.8a.841.841 0 1 1-1.677-.002.841.841 0 0 1 1.677.003zm0 0" fill="none" stroke-width=".06" stroke-linecap="square" stroke-linejoin="bevel" stroke="#000" stroke-miterlimit="10"/><path d="M310.559 231.238h2.882v-2.879h-2.882zm0 0" fill="green" stroke-width=".12" stroke-linecap="round" stroke-linejoin="round" stroke="green" stroke-miterlimit="10"/><path d="M312.84 229.8c0 .466-.375.84-.84.84a.839.839 0 0 1-.84-.84.84.84 0 1 1 1.68 0" fill-rule="evenodd" fill="#fff"/><path d="M312.84 229.8c0 .466-.375.84-.84.84a.839.839 0 0 1-.84-.84.84.84 0 1 1 1.68 0zm0 0" fill="none" stroke-width=".06" stroke-linecap="square" stroke-linejoin="bevel" stroke="#000" stroke-miterlimit="10"/><path d="M265.262 215.281v-.543m.538 0h-.538m0 0v-.539m0 .539h-.543m9.902-2.878a5.765 5.765 0 0 1-5.762 5.761 5.761 5.761 0 0 1-5.757-5.762 5.758 5.758 0 0 1 5.757-5.757 5.761 5.761 0 0 1 5.762 5.757zm0 0" fill="none" stroke-width=".48" stroke-linecap="round" stroke-linejoin="round" stroke="#505050" stroke-miterlimit="10"/><path d="M266.578 211.14h4.563v-.718h-4.563zm0 0" fill="#505050" stroke-width=".12" stroke-linecap="round" stroke-linejoin="round" stroke="#505050" stroke-miterlimit="10"/><path d="M279.66 222.781v.54m-.539-.001h.54m-.001 0v.54m0-.54h.54m1.62 2.88a5.76 5.76 0 1 1-11.52.003 5.76 5.76 0 0 1 11.52-.004zm0 0" fill="none" stroke-width=".48" stroke-linecap="round" stroke-linejoin="round" stroke="#505050" stroke-miterlimit="10"/><path d="M273.781 227.64h4.559v-.718h-4.559zm0 0" fill="#505050" stroke-width=".12" stroke-linecap="round" stroke-linejoin="round" stroke="#505050" stroke-miterlimit="10"/><path d="M301.2 221.578v.723m-.72-.001h.72m0 0v.66m0-.66h.722m2.878 3.9a7.197 7.197 0 0 1-7.198 7.198 7.2 7.2 0 1 1 0-14.398 7.2 7.2 0 0 1 7.199 7.2zm13.438-35.7l.723 1.2.84 1.019.96.96 1.137.782 1.204.539 1.257.422 1.38.238h1.32l1.32-.238 1.32-.422 1.2-.54 1.14-.78.961-.961.84-1.02.66-1.199m0-7.68l-.66-1.199-.84-1.02-.96-.96-1.142-.72-1.199-.6-1.32-.423-1.32-.18h-1.32l-1.38.18-1.257.422-1.204.602-1.136.719-.961.96-.84 1.02-.723 1.2m12.122 3.839h-1.801m0 0v-2.879m0 0h-1.438m0 0v5.758m0 .001h1.438m0 0v-2.88m-3.957 0h-2.16m8.277 1.8h-1.438m.719-.722v1.442" fill="none" stroke-width=".48" stroke-linecap="round" stroke-linejoin="round" stroke="#505050" stroke-miterlimit="10"/><path d="M324.238 189.54h1.442v-5.759h-1.442zm0 0" fill="#505050" stroke-width=".12" stroke-linecap="round" stroke-linejoin="round" stroke="#505050" stroke-miterlimit="10"/><path d="M288.3 206.46l-.48.06-.422.18-.296.359-.18.363-.063.476m.001.723l.062.418.18.422.296.3.422.239.48.059m4.259 0l.48-.059.422-.238.3-.301.18-.422.059-.418m0-.723l-.059-.476-.18-.363-.3-.36-.422-.18-.48-.058m-5.699 2.16v-.723m5.699-1.438H288.3m4.259 3.599H288.3m5.7-1.438v-.723" fill="none" stroke-width=".3" stroke-linecap="round" stroke-linejoin="round" stroke="#505050" stroke-miterlimit="10"/><path d="M292.2 207.18v2.16m0 0l-1.919-1.078m0 0l1.918-1.082m-1.918 0v1.082m0 0v1.078" fill="none" stroke-width=".24" stroke-linecap="round" stroke-linejoin="round" stroke="#505050" stroke-miterlimit="10"/><path d="M288.121 210.059h.719v-3.598h-.719zm-3-1.5h1.559v-.598h-1.559zm9.059 0h1.558v-.598h-1.558zm0 0" fill="#505050" stroke-width=".12" stroke-linecap="round" stroke-linejoin="round" stroke="#505050" stroke-miterlimit="10"/><path d="M292.559 195.66l.48-.058.422-.243.3-.3.18-.418.059-.422m0-.719l-.059-.422-.18-.418-.3-.3-.422-.239-.48-.062m-4.259 0l-.48.062-.422.238-.296.301-.18.418-.063.422m.001.719l.062.422.18.418.296.3.422.243.48.058m5.7-2.16v.719m-5.7 1.441h4.259m-4.259-3.601h4.259m-5.699 1.441v.719" fill="none" stroke-width=".3" stroke-linecap="round" stroke-linejoin="round" stroke="#505050" stroke-miterlimit="10"/><path d="M288.66 194.941v-2.16m0 0l1.918 1.078m0 .001l-1.918 1.081m1.918 0v-1.082m0 .001v-1.079" fill="none" stroke-width=".24" stroke-linecap="round" stroke-linejoin="round" stroke="#505050" stroke-miterlimit="10"/><path d="M292.02 195.66h.718v-3.601h-.718zm2.16-1.5h1.558v-.601h-1.558zm-9.059 0h1.559v-.601h-1.559zm0 0" fill="#505050" stroke-width=".12" stroke-linecap="round" stroke-linejoin="round" stroke="#505050" stroke-miterlimit="10"/><path d="M283.98 199.262l-.3.058-.239.121-.12.239-.06.3m.001 2.16l.058.239.121.242.239.18.3.058m5.758.001l.242-.06.239-.179.18-.242v-.238m-.001-2.161v-.3l-.18-.239-.238-.12-.242-.06" fill="none" stroke-width=".48" stroke-linecap="round" stroke-linejoin="round" stroke="#505050" stroke-miterlimit="10"/><path d="M283.98 199.262l-.3.058-.239.121-.12.239-.06.3m.001 2.16l.058.239.121.242.239.18.3.058m5.758.001l.242-.06.239-.179.18-.242v-.238m-.001-2.161v-.3l-.18-.239-.238-.12-.242-.06m-6.476 2.879v-2.16m6.476-.718h-5.758m5.758 3.598h-5.758m6.418-.72v-2.16" fill="none" stroke-width=".48" stroke-linecap="round" stroke-linejoin="round" stroke="#505050" stroke-miterlimit="10"/><path d="M290.398 201.422h1.082v-.723h-1.082zm-8.218 0h1.082v-.723h-1.082zm0 0" fill="#505050" stroke-width=".12" stroke-linecap="round" stroke-linejoin="round" stroke="#505050" stroke-miterlimit="10"/><path d="M319.922 206.46l-.3.06-.18.12-.18.239-.063.3m.001 2.161l.062.238.18.242.18.18.3.059m5.758 0l.242-.059.238-.18.18-.242.058-.238m0-2.16l-.058-.301-.18-.238-.238-.121-.242-.06" fill="none" stroke-width=".48" stroke-linecap="round" stroke-linejoin="round" stroke="#505050" stroke-miterlimit="10"/><path d="M319.922 206.46l-.3.06-.18.12-.18.239-.063.3m.001 2.161l.062.238.18.242.18.18.3.059m5.758 0l.242-.059.238-.18.18-.242.058-.238m0-2.16l-.058-.301-.18-.238-.238-.121-.242-.06m-6.48 2.88v-2.16m6.48-.72h-5.758m5.758 3.599h-5.758m6.476-.719v-2.16" fill="none" stroke-width=".48" stroke-linecap="round" stroke-linejoin="round" stroke="#505050" stroke-miterlimit="10"/><path d="M326.398 208.621h1.082v-.723h-1.082zm-8.277 0h1.078v-.723h-1.078zm0 0" fill="#505050" stroke-width=".12" stroke-linecap="round" stroke-linejoin="round" stroke="#505050" stroke-miterlimit="10"/><path d="M319.922 213.66l-.3.059-.18.12-.18.24-.063.3m.001 2.161l.062.241.18.239.18.18.3.062m5.758 0l.242-.063.238-.18.18-.238.058-.242m0-2.16l-.058-.3-.18-.24-.238-.12-.242-.059" fill="none" stroke-width=".48" stroke-linecap="round" stroke-linejoin="round" stroke="#505050" stroke-miterlimit="10"/><path d="M319.922 213.66l-.3.059-.18.12-.18.24-.063.3m.001 2.161l.062.241.18.239.18.18.3.062m5.758 0l.242-.063.238-.18.18-.238.058-.242m0-2.16l-.058-.3-.18-.24-.238-.12-.242-.059m-6.48 2.88v-2.161m6.48-.719h-5.758m5.758 3.602h-5.758m6.476-.722v-2.161" fill="none" stroke-width=".48" stroke-linecap="round" stroke-linejoin="round" stroke="#505050" stroke-miterlimit="10"/><path d="M326.398 215.82h1.082v-.718h-1.082zm-8.277 0h1.078v-.718h-1.078zm0 0" fill="#505050" stroke-width=".12" stroke-linecap="round" stroke-linejoin="round" stroke="#505050" stroke-miterlimit="10"/><path d="M309.121 234.121l-.242.059-.238.18-.18.242-.063.238m0 4.32l.063.3.18.24.238.12.242.059m12.957 0l.3-.059.18-.12.18-.24.063-.3m-.001-4.32l-.062-.238-.18-.243-.18-.18-.3-.058" fill="none" stroke-width=".48" stroke-linecap="round" stroke-linejoin="round" stroke="#505050" stroke-miterlimit="10"/><path d="M322.8 237.719h1.079v-1.438H322.8zm-15.48 0h1.078v-1.438h-1.078zm0 0" fill="#505050" stroke-width=".12" stroke-linecap="round" stroke-linejoin="round" stroke="#505050" stroke-miterlimit="10"/><path d="M309.121 234.121l-.242.059-.238.18-.18.242-.063.238m0 4.32l.063.3.18.24.238.12.242.059m12.957 0l.3-.059.18-.12.18-.24.063-.3m-.001-4.32l-.062-.238-.18-.243-.18-.18-.3-.058m-13.68 5.039v-4.32m.723-.719h1.078m.36.359l-.36-.359m-1.078 5.758h1.078m.36-.359l-.36.359m10.441-5.399l.36-.359m-.36.359h-10.08m10.08 5.04l.36.359m-.36-.359h-10.08m11.518-5.399H321m1.078 5.758H321m1.8-.719v-4.32" fill="none" stroke-width=".48" stroke-linecap="round" stroke-linejoin="round" stroke="#505050" stroke-miterlimit="10"/><path d="M322.8 237.719h1.079v-1.438H322.8zm-15.48 0h1.078v-1.438h-1.078zm0 0" fill="#505050" stroke-width=".12" stroke-linecap="round" stroke-linejoin="round" stroke="#505050" stroke-miterlimit="10"/><path d="M265.262 240.602v7.199m0-.001h21.597m.001 0v-7.198m0 0h-21.598M282 181.98h-11.879m-.902 7.918l.66 1.141.84.961 1.02.84 1.14.66 1.2.48 1.32.239h1.32l1.261-.239 1.258-.48 1.14-.66 1.02-.84.84-.96.66-1.142M268.5 186.66h15.059m-.661 3.238l.364-1.02.238-1.077.059-1.14m0-.001l-.059-1.082-.238-1.078-.364-1.02m0 0l-.418-.78-.48-.72m-12.781 1.5l-.36 1.02-.238 1.078-.121 1.082m0 0l.059 1.14.242 1.079.418 1.02m.902-7.919l-.543.72-.418.84m40.32 30.66v-11.88m-7.859-.898l-1.14.656-1.02.844-.84 1.02-.66 1.136-.422 1.203-.238 1.32v1.32l.238 1.259.422 1.261.66 1.137.84 1.024 1.02.84 1.14.66M304.8 200.7v15.062m-3.179-.66l1.02.359 1.078.238 1.082.063" fill="none" stroke-width=".36" stroke-linecap="round" stroke-linejoin="round" stroke="#505050" stroke-miterlimit="10"/><path d="M304.8 215.762l1.141-.063 1.079-.238 1.02-.36m0 .001l.722-.422.718-.48m-1.44-12.778l-1.02-.363-1.079-.239-1.14-.12m-.001 0l-1.081.062-1.078.238-1.02.422m7.859.898l-.718-.539-.782-.422m-35.52-11.097h-7.198m0 0v14.398m0 0h7.199" fill="none" stroke-width=".36" stroke-linecap="round" stroke-linejoin="round" stroke="#505050" stroke-miterlimit="10"/><use xlink:href="#f" x="262.738" y="195.3" fill="#505050"/><use xlink:href="#g" x="264.898" y="202.553" fill="#505050"/><path d="M272.46 204.66v-14.398m27.661-9.543v11.883m7.919.898l1.14-.66.96-.84.84-1.02.66-1.14.481-1.2.238-1.32V186l-.238-1.262-.48-1.258-.66-1.14-.84-1.02-.961-.84-1.14-.66m-3.599 14.399v-15.117m3.599.718l-1.142-.422-1.199-.238-1.258-.058m0 0l-.96.117-.961.242-.899.36m0-.001l-.781.418-.719.48m1.5 12.782l.899.36.96.242.961.117m0 0l1.258-.059 1.2-.238 1.14-.422m-7.918-.898l.777.539.782.418" fill="none" stroke-width=".36" stroke-linecap="round" stroke-linejoin="round" stroke="#505050" stroke-miterlimit="10"/><use xlink:href="#h" x="302.357" y="182.113" fill="#505050"/><path d="M330 247.8h7.2m0 0v-14.402m0 0H330" fill="none" stroke-width=".36" stroke-linecap="round" stroke-linejoin="round" stroke="#505050" stroke-miterlimit="10"/><use xlink:href="#f" x="338.259" y="245.648" fill="#505050"/><use xlink:href="#g" x="340.419" y="238.455" fill="#505050"/><path d="M330 233.398v14.403" fill="none" stroke-width=".36" stroke-linecap="round" stroke-linejoin="round" stroke="#505050" stroke-miterlimit="10"/><use xlink:href="#i" x="330.465" y="218.314" fill="#505050"/><use xlink:href="#j" x="332.085" y="218.314" fill="#505050"/><use xlink:href="#c" x="333.705" y="218.314" fill="#505050"/><use xlink:href="#i" x="335.025" y="218.314" fill="#505050"/><path d="M337.2 233.398v-14.34m0 .001H330m0 0v14.34m0-.001h7.2" fill="none" stroke-width=".36" stroke-linecap="round" stroke-linejoin="round" stroke="#505050" stroke-miterlimit="10"/><use xlink:href="#f" x="338.259" y="224.07" fill="#505050"/><use xlink:href="#g" x="340.419" y="231.323" fill="#505050"/><path d="M268.86 215.46v-1.98m0 0h2.519m0 0v-1.082m0 0h-5.04m.001 0v1.082m0 0h2.52m0-5.218v1.918m0 0h-2.52m0 0v1.082m0 0h5.039m0 0v-1.082m0 0h-2.52m7.2 12.48v1.918m0 0h-2.52m.001 0v1.082m0 0h5.038m0 0v-1.082m0 0h-2.52m.001 5.222v-1.921m0 0h2.52m-.001 0V226.8m0 0h-5.039m.001 0v1.079m0 0h2.519m21.543-6.301v2.461m0 .001H294m0 0v1.44m0 0h7.2m0 0v-1.44m0 0h-3.598m0 3.96v2.879" fill="none" stroke-width=".48" stroke-linecap="round" stroke-linejoin="round" stroke="#505050" stroke-miterlimit="10"/><path d="M294 228.36h7.2v-1.442H294zm0 0" fill="#505050" stroke-width=".12" stroke-linecap="round" stroke-linejoin="round" stroke="#505050" stroke-miterlimit="10"/><path d="M334.5 190.5l.48-1.2.301-1.32.117-1.32-.117-1.32-.3-1.262-.481-1.258m-16.262 0l-.476 1.258-.242 1.262-.122 1.32.122 1.32.242 1.32.476 1.2" fill="none" stroke-width=".48" stroke-linecap="round" stroke-linejoin="round" stroke="#505050" stroke-miterlimit="10"/><path d="M297.602 208.262H295.8" fill="none" stroke-width=".36" stroke-linecap="round" stroke-linejoin="round" stroke="#505050" stroke-miterlimit="10"/><path d="M289.559 208.262h.722m0 0h2.64" fill="none" stroke-width=".24" stroke-linecap="round" stroke-linejoin="round" stroke="#505050" stroke-miterlimit="10"/><path d="M283.262 208.262h1.797m-1.797-14.402h1.797" fill="none" stroke-width=".36" stroke-linecap="round" stroke-linejoin="round" stroke="#505050" stroke-miterlimit="10"/><path d="M291.3 193.86h-.722m0 0h-2.637" fill="none" stroke-width=".24" stroke-linecap="round" stroke-linejoin="round" stroke="#505050" stroke-miterlimit="10"/><path d="M297.602 193.86H295.8" fill="none" stroke-width=".36" stroke-linecap="round" stroke-linejoin="round" stroke="#505050" stroke-miterlimit="10"/><path d="M297.602 201.059h-6.122m-15.421 0h6.12m51.423 7.203h-6.122m-15.48 0h6.121m15.481 7.198h-6.122m-15.48 0h6.121" fill="none" stroke-width=".72" stroke-linecap="round" stroke-linejoin="round" stroke="#505050" stroke-miterlimit="10"/><path d="M326.398 237h-2.52m-19.078 0h2.52" fill="none" stroke-width="1.44" stroke-linecap="round" stroke-linejoin="round" stroke="#505050" stroke-miterlimit="10"/><use xlink:href="#k" x="272.449" y="219.034" fill="#505050"/><use xlink:href="#l" x="273.889" y="219.034" fill="#505050"/><use xlink:href="#k" x="269.689" y="220.774" fill="#505050"/><use xlink:href="#m" x="271.129" y="220.774" fill="#505050"/><use xlink:href="#k" x="301.578" y="234.439" fill="#505050"/><use xlink:href="#n" x="303.019" y="234.439" fill="#505050"/><use xlink:href="#k" x="315.002" y="193.442" fill="#505050"/><use xlink:href="#o" x="316.442" y="193.442" fill="#505050"/><use xlink:href="#p" x="295.105" y="212.683" fill="#505050"/><use xlink:href="#q" x="297.325" y="212.683" fill="#505050"/><use xlink:href="#p" x="281.795" y="191.702" fill="#505050"/><use xlink:href="#r" x="284.015" y="191.702" fill="#505050"/><use xlink:href="#e" x="285.394" y="198.356" fill="#505050"/><use xlink:href="#l" x="286.894" y="198.356" fill="#505050"/><use xlink:href="#e" x="321.356" y="205.549" fill="#505050"/><use xlink:href="#m" x="322.856" y="205.549" fill="#505050"/><use xlink:href="#e" x="321.356" y="212.741" fill="#505050"/><use xlink:href="#n" x="322.856" y="212.741" fill="#505050"/><use xlink:href="#e" x="308.411" y="233.347" fill="#505050"/><use xlink:href="#o" x="309.911" y="233.347" fill="#505050"/><use xlink:href="#e" x="308.411" y="233.347" fill="#505050"/><use xlink:href="#o" x="309.911" y="233.347" fill="#505050"/><use xlink:href="#s" x="291.512" y="246.607" fill="#505050"/><use xlink:href="#t" x="291.512" y="244.087" fill="#505050"/><use xlink:href="#u" x="277.185" y="191.404" fill="#505050"/><use xlink:href="#v" x="277.185" y="189.484" fill="#505050"/><use xlink:href="#w" x="300.078" y="209.385" fill="#505050"/><use xlink:href="#x" x="301.998" y="209.385" fill="#505050"/><use xlink:href="#w" x="297.559" y="179.475" fill="#505050"/><use xlink:href="#r" x="299.479" y="179.475" fill="#505050"/><use xlink:href="#o" x="259.317" y="207.346" fill="#505050"/><use xlink:href="#y" x="260.637" y="207.346" fill="#505050"/><use xlink:href="#z" x="261.357" y="207.346" fill="#505050"/><use xlink:href="#A" x="262.677" y="207.346" fill="#505050"/><use xlink:href="#B" x="263.996" y="207.346" fill="#505050"/><use xlink:href="#o" x="279.642" y="232.462" fill="#505050"/><use xlink:href="#y" x="280.962" y="232.462" fill="#505050"/><use xlink:href="#z" x="281.682" y="232.462" fill="#505050"/><use xlink:href="#A" x="283.002" y="232.462" fill="#505050"/><use xlink:href="#B" x="284.321" y="232.462" fill="#505050"/><use xlink:href="#l" x="301.578" y="219.393" fill="#505050"/><use xlink:href="#C" x="302.899" y="219.393" fill="#505050"/><use xlink:href="#C" x="304.219" y="219.393" fill="#505050"/><use xlink:href="#D" x="305.539" y="219.393" fill="#505050"/><use xlink:href="#l" x="306.439" y="219.393" fill="#505050"/><use xlink:href="#C" x="307.758" y="219.393" fill="#505050"/><use xlink:href="#C" x="309.078" y="219.393" fill="#505050"/><use xlink:href="#C" x="310.399" y="219.393" fill="#505050"/><use xlink:href="#A" x="311.719" y="219.393" fill="#505050"/><use xlink:href="#B" x="313.039" y="219.393" fill="#505050"/><use xlink:href="#m" x="311.222" y="180.136" fill="#505050"/><use xlink:href="#m" x="312.542" y="180.136" fill="#505050"/><use xlink:href="#C" x="313.862" y="180.136" fill="#505050"/><use xlink:href="#A" x="315.181" y="180.136" fill="#505050"/><use xlink:href="#B" x="316.502" y="180.136" fill="#505050"/><use xlink:href="#q" x="284.97" y="206.177" fill="#505050"/><use xlink:href="#E" x="286.71" y="206.177" fill="#505050"/><use xlink:href="#F" x="288.87" y="206.177" fill="#505050"/><use xlink:href="#q" x="290.61" y="206.177" fill="#505050"/><use xlink:href="#F" x="292.35" y="206.177" fill="#505050"/><use xlink:href="#G" x="294.09" y="206.177" fill="#505050"/><use xlink:href="#q" x="285.03" y="198.208" fill="#505050"/><use xlink:href="#E" x="286.77" y="198.208" fill="#505050"/><use xlink:href="#F" x="288.93" y="198.208" fill="#505050"/><use xlink:href="#q" x="290.67" y="198.208" fill="#505050"/><use xlink:href="#F" x="292.41" y="198.208" fill="#505050"/><use xlink:href="#G" x="294.15" y="198.208" fill="#505050"/><use xlink:href="#l" x="284.254" y="201.892" fill="#505050"/><use xlink:href="#C" x="285.574" y="201.892" fill="#505050"/><use xlink:href="#C" x="286.894" y="201.892" fill="#505050"/><use xlink:href="#H" x="288.214" y="201.892" fill="#505050"/><use xlink:href="#n" x="320.816" y="209.085" fill="#505050"/><use xlink:href="#n" x="322.136" y="209.085" fill="#505050"/><use xlink:href="#C" x="323.456" y="209.085" fill="#505050"/><use xlink:href="#l" x="320.816" y="216.278" fill="#505050"/><use xlink:href="#C" x="322.136" y="216.278" fill="#505050"/><use xlink:href="#C" x="323.456" y="216.278" fill="#505050"/><use xlink:href="#m" x="311.001" y="238.381" fill="#505050"/><use xlink:href="#m" x="312.321" y="238.381" fill="#505050"/><use xlink:href="#m" x="311.001" y="238.381" fill="#505050"/><use xlink:href="#m" x="312.32" y="238.381" fill="#505050"/><use xlink:href="#I" x="263.458" y="246.787" fill="#505050"/><use xlink:href="#J" x="263.458" y="245.467" fill="#505050"/><use xlink:href="#J" x="263.458" y="244.147" fill="#505050"/><use xlink:href="#K" x="263.458" y="242.827" fill="#505050"/><use xlink:href="#L" x="271.545" y="185.47" fill="#505050"/><use xlink:href="#M" x="273.465" y="185.47" fill="#505050"/><use xlink:href="#N" x="275.385" y="185.47" fill="#505050"/><use xlink:href="#F" x="277.125" y="185.47" fill="#505050"/><use xlink:href="#O" x="278.865" y="185.47" fill="#505050"/><use xlink:href="#P" x="308.293" y="212.805" fill="#505050"/><use xlink:href="#Q" x="308.293" y="210.885" fill="#505050"/><use xlink:href="#R" x="308.293" y="208.965" fill="#505050"/><use xlink:href="#R" x="308.293" y="207.225" fill="#505050"/><use xlink:href="#S" x="308.293" y="205.485" fill="#505050"/><use xlink:href="#P" x="309.552" y="191.228" fill="#505050"/><use xlink:href="#Q" x="309.552" y="189.308" fill="#505050"/><use xlink:href="#R" x="309.552" y="187.387" fill="#505050"/><use xlink:href="#T" x="309.552" y="185.648" fill="#505050"/><use xlink:href="#S" x="309.552" y="183.908" fill="#505050"/><path d="M261.66 172.262h79.14m0 0v79.136m0 0h-79.14m0 0v-79.136" fill="none" stroke-width=".12" stroke-linecap="round" stroke-linejoin="round" stroke="#000" stroke-miterlimit="10"/><path d="M256.078 243.84l.66-.66m0 0v2.101m-.66 0h1.383m-.001-7.203h-1.382m0 0l1.383-1.437m-.001-.001v-.3m0 0l-.358-.36m0 0h-.723m0 0l-.3.36m-.001-7.2l.3-.359m.001 0h.723m0 0l.359.36m-.001-.001v.36m0 0l-.358.3m0 0h-.364m.364 0l.359.36m-.001 0v.36m0 0l-.358.359m0 0h-.723m0 0l-.3-.36m1.023-6.839v-2.102m0 0l-1.024 1.024m0 0h1.383m-.001-8.223h-1.382m0 0v1.082m0-.001l.66-.358m0 0h.364m0 0l.359.359m-.001-.001v.661m0 0l-.358.36m0-.001h-.723m0 0l-.3-.359m1.381-8.941l-.722.36m0 0l-.66.722m0 0v.66m0 0l.3.36m.001-.001h.723m0 0l.359-.36m-.001.001v-.3m0-.001l-.358-.36m0 .001h-1.024m0-8.282h1.383m-.001 0v.36m0 0l-1.382 1.379m0 0v.36m0-8.939l.3-.3m.001 0h.723m0 0l.359.3m-.001 0v.36m0 0l-.358.36m0 0l.359.359m-.001 0v.36m0-.001l-.358.3m0 .001h-.723m0 0l-.3-.3m-.001-.001v-.36m0 .001l.3-.36m.001.001l-.3-.36m-.001 0v-.36m.301.72h.723m-1.024-6.481l.3.36m.001-.001h.723m0 0l.359-.36m-.001.001V186m0 0l-.358-.36m0 0h-.723m0 0l-.3.36m-.001 0v.3m0 0l.3.36m.001 0h1.082m-3.539-7.558l.719-.66m-.001-.001v2.098m-.718.001h1.379m.777-.36v-1.38m0 0l.3-.359m.001 0h.723m0 0l.359.36m-.001-.001v1.38m0 0l-.358.36m0 0h-.723m0 0l-.3-.36m-.001 0l1.383-1.38m10.437-11.64l.723-.66m0 0v2.102m-.723 0h1.383m7.199 0h-1.378m0 0l1.378-1.442m0 0v-.3m0 0l-.359-.36m0 0h-.66m-.001 0l-.358.36m7.198 0l.36-.36m0 0h.66m0 0l.36.36m0 0v.3m0 0l-.36.36m0 0h-.36m.36 0l.36.359m0 0v.36m0-.001l-.36.364m0 0h-.66m0 0l-.36-.364m8.22.364V166.5m0 0l-1.02 1.02m0 0h1.379m7.199-1.02H296.7m0 0v1.02m0 0l.66-.36m0 0h.359m0 0l.36.36m-.001 0v.718m0 0l-.36.364m.001 0H297m0 0l-.3-.364m8.581-1.738l-.722.36m0 0l-.72.66m.001 0v.718m0 0l.36.364m0 0h.722m0 0l.36-.364m-.001 0v-.36m0 .001l-.36-.36m.001.001h-1.082m7.2-1.02h1.382m0 0v.36m0 0l-1.383 1.378m.001 0v.364m7.198-1.742l.364-.36m0 0h.718m0 0l.301.36m0 0v.3m0 0l-.3.36m-.001 0l.301.359m0 0v.36m0-.001l-.3.364m-.001 0h-.718m0 0l-.364-.364m0 0v-.36m0 .001l.364-.36m0 .001l-.364-.36m0 0v-.3m.364.66h.718m6.121.718l.36.364m-.001 0h.66m0 0l.36-.364m0 0v-1.379m0 .001l-.36-.36m0 0h-.66m0 0l-.359.36m0 0v.3m0 0l.36.36m-.001 0h1.02m4.739-.36l.722-.66m0 0v2.102m-.722 0h1.382m.778-.364v-1.379m0 .001l.3-.36m.001 0h.718m0 0l.364.36m0 0v1.378m0 0l-.364.364m0 0h-.718m0 0l-.301-.364m0 0l1.383-1.379" fill="none" stroke-width=".24" stroke-linecap="round" stroke-linejoin="round" stroke="#000" stroke-miterlimit="10"/><g clip-path="url(#U)"><path d="M261.66 150.719v12.722" fill="none" stroke-width=".42" stroke-linecap="round" stroke-linejoin="round" stroke="#000" stroke-miterlimit="10"/></g><g clip-path="url(#V)"><path d="M340.8 150.719v12.722" fill="none" stroke-width=".42" stroke-linecap="round" stroke-linejoin="round" stroke="#000" stroke-miterlimit="10"/></g><path d="M261.84 157.922h78.781m-78.781 0l7.2-.902m0 0v1.8m0 0l-7.2-.898m0 0l7.2-.422m0 .781l-7.2-.36m0 .001l7.2-.781m0 1.499l-7.2-.718m78.781 0l-7.2-.902m.001 0v1.8m0 0l7.2-.898m-.001 0l-7.2-.422m.001.781l7.2-.36m-.001.001l-7.2-.781m.001 1.499l7.2-.718" fill="none" stroke-width=".42" stroke-linecap="round" stroke-linejoin="round" stroke="#000" stroke-miterlimit="10"/><use xlink:href="#r" x="294.293" y="156.954"/><use xlink:href="#O" x="296.033" y="156.954"/><use xlink:href="#W" x="297.773" y="156.954"/><use xlink:href="#X" x="298.733" y="156.954"/><use xlink:href="#F" x="300.473" y="156.954"/><use xlink:href="#Y" x="302.213" y="156.954"/><use xlink:href="#Y" x="304.913" y="156.954"/><g clip-path="url(#Z)"><path d="M247.262 172.262h-12.723" fill="none" stroke-width=".42" stroke-linecap="round" stroke-linejoin="round" stroke="#000" stroke-miterlimit="10"/></g><g clip-path="url(#aa)"><path d="M247.262 251.398h-12.723" fill="none" stroke-width=".42" stroke-linecap="round" stroke-linejoin="round" stroke="#000" stroke-miterlimit="10"/></g><path d="M240.059 172.441v78.778m0-78.778l-.899 7.2m0-.001h1.8m0 0l-.901-7.199m0 0l-.36 7.2m.781-.001l-.421-7.199m0 0l-.72 7.2m1.501-.001l-.781-7.199m0 78.778l-.899-7.2m0 .001h1.8m0 0l-.901 7.199m0 0l-.36-7.2m.781.001l-.421 7.199m0 0l-.72-7.2m1.501.001l-.781 7.199" fill="none" stroke-width=".42" stroke-linecap="round" stroke-linejoin="round" stroke="#000" stroke-miterlimit="10"/><use xlink:href="#T" x="239.139" y="218.767"/><use xlink:href="#S" x="239.139" y="217.027"/><use xlink:href="#ab" x="239.139" y="215.287"/><use xlink:href="#ac" x="239.139" y="214.327"/><use xlink:href="#ad" x="239.139" y="212.587"/><use xlink:href="#ae" x="239.139" y="210.847"/><use xlink:href="#ae" x="239.139" y="208.147"/></svg>