<svg xmlns="http://www.w3.org/2000/svg" xmlns:xlink="http://www.w3.org/1999/xlink" width="595pt" height="560" viewBox="0 0 595 420"><defs><symbol overflow="visible" id="a"><path d="M1.25.61h-.203V0H.813v.61H.046v.234l.781.906h.219V.797h.203zM.812.796v.672L.235.797zm0 0"/></symbol><symbol overflow="visible" id="b"><path d="M.5 0H.219v.328H.5zm0 0"/></symbol><symbol overflow="visible" id="c"><path d="M1.234 1.484L.47 0h-.25l.797 1.547H.109v.203h1.125zm0 0"/></symbol><symbol overflow="visible" id="d"><path d="M1.188 0h-.22v.14A1.368 1.368 0 0 0 .767.017a.456.456 0 0 0-.204-.047.806.806 0 0 0-.156.015.343.343 0 0 0-.14.094.616.616 0 0 0-.11.375v.86h.219v-.75V.39C.383.348.395.305.406.266A.135.135 0 0 1 .484.203C.516.18.563.172.625.172c.05 0 .11.016.172.047a.985.985 0 0 1 .172.11v.984h.219zm0 0"/></symbol><symbol overflow="visible" id="e"><path d="M1.219 1.547H.406v-.5h.781V.844h-.78V0H.171v1.75h1.047zm0 0"/></symbol><symbol overflow="visible" id="f"><path d="M1.125 0h-.86v.172h.313v1.172H.266v.172a.61.61 0 0 1 .265.046c.051.032.082.094.094.188h.188V.172h.312zm0 0"/></symbol><symbol overflow="visible" id="g"><path d="M1.219.875c0-.313-.047-.543-.14-.688A.463.463 0 0 0 .655-.03a.463.463 0 0 0-.422.218C.141.333.094.564.094.875c0 .313.047.54.14.688a.47.47 0 0 0 .422.218.47.47 0 0 0 .422-.218c.094-.157.14-.387.14-.688zM.922.344c.02.05.035.125.047.219a3.248 3.248 0 0 1 0 .625 1.42 1.42 0 0 1-.047.218.42.42 0 0 1-.11.14.256.256 0 0 1-.156.048.248.248 0 0 1-.156-.047.375.375 0 0 1-.11-.14.862.862 0 0 1-.046-.22V.875a1.379 1.379 0 0 1 0-.313A.827.827 0 0 1 .39.345.234.234 0 0 1 .5.204C.531.171.582.155.656.155.72.156.77.172.812.203a.42.42 0 0 1 .11.14zm0 0"/></symbol><symbol overflow="visible" id="h"><path d="M.766.656H.109v.219h.657zm0 0"/></symbol><symbol overflow="visible" id="i"><path d="M1.203 0H.125v.25a3.918 3.918 0 0 1 .422.422c.133.144.226.258.281.344.04.093.063.187.063.28 0 .04-.008.083-.016.126a1.302 1.302 0 0 0-.063.094.525.525 0 0 1-.093.046c-.043.008-.086.016-.125.016a.644.644 0 0 1-.125-.016 1.946 1.946 0 0 0-.125-.03.264.264 0 0 0-.094-.048.369.369 0 0 0-.078-.046v.25c.039.019.11.039.203.062.082.02.16.031.234.031A.579.579 0 0 0 1 1.656a.46.46 0 0 0 .14-.36.629.629 0 0 0-.03-.187.486.486 0 0 0-.063-.156A1.578 1.578 0 0 0 .813.656a2.516 2.516 0 0 0-.25-.25C.469.32.394.254.343.203h.86zm0 0"/></symbol><symbol overflow="visible" id="p"><path d="M1.25 0H.953L.47.64.375.548V0H.156v1.828h.219V.766l.531.546h.266L.64.766zm0 0"/></symbol><symbol overflow="visible" id="q"><path d="M.594 1.578a.644.644 0 0 1-.125-.016 1.946 1.946 0 0 0-.125-.03.264.264 0 0 0-.094-.048.369.369 0 0 0-.078-.046H.156v.234c.051.031.125.055.219.078.082.02.164.031.25.031.07 0 .14-.008.203-.015a.648.648 0 0 0 .156-.079.6.6 0 0 0 .125-.14.554.554 0 0 0 .032-.188.369.369 0 0 0-.094-.25.407.407 0 0 0-.234-.14V.953C.852.941.894.93.938.922c.039-.024.082-.047.125-.078A.428.428 0 0 0 1.14.719a.6.6 0 0 0 .03-.203.822.822 0 0 0-.03-.22A.668.668 0 0 0 .844 0a.972.972 0 0 0-.25-.031 1.151 1.151 0 0 0-.485.11v.233h.016C.175.282.242.25.328.22a.692.692 0 0 1 .39-.032.36.36 0 0 1 .204.188c.008.04.015.094.015.156a.37.37 0 0 1-.03.156.166.166 0 0 1-.079.094.258.258 0 0 1-.11.063h-.25v.203h.079c.101 0 .191.023.265.078a.267.267 0 0 1 .063.328.17.17 0 0 1-.063.078.525.525 0 0 1-.093.047H.594zm0 0"/></symbol><symbol overflow="visible" id="r"><path d="M1.36.531a.476.476 0 0 0-.048-.219.418.418 0 0 0-.125-.171A.675.675 0 0 0 .97.03 1.028 1.028 0 0 0 .672 0h-.5v1.75H.64c.125 0 .218-.008.28-.016a.534.534 0 0 0 .173-.062.34.34 0 0 0 .14-.125.371.371 0 0 0 .047-.188.4.4 0 0 0-.062-.218.353.353 0 0 0-.188-.157V.97a.548.548 0 0 0 .25-.156A.488.488 0 0 0 1.36.53zm-.313.797a.21.21 0 0 1-.031.11.1.1 0 0 1-.063.062 1 1 0 0 1-.125.047H.406V1.03h.266c.07 0 .125.004.156.016.04.008.078.023.11.047.039.02.066.05.078.093.02.032.03.079.03.141zm.078-.797a.37.37 0 0 1-.031.156.324.324 0 0 1-.11.11A1 1 0 0 1 .86.844H.406v-.64h.188c.101 0 .187.003.25.015.05.008.101.023.156.047.04.03.07.066.094.109.02.04.031.094.031.156zm0 0"/></symbol><symbol overflow="visible" id="s"><path d="M.86-.031A.796.796 0 0 0 .546.03a.536.536 0 0 0-.25.172.582.582 0 0 0-.156.281 1.093 1.093 0 0 0-.063.391c0 .145.02.27.063.375.03.113.082.21.156.297.07.07.156.129.25.172.094.039.195.062.312.062.063 0 .118-.008.172-.015.051-.012.098-.024.14-.032a.462.462 0 0 0 .11-.046 1 1 0 0 0 .125-.047v-.282h-.015a.245.245 0 0 0-.079.063c-.03.02-.074.047-.125.078-.042.02-.09.04-.14.063a1.296 1.296 0 0 1-.188.015.444.444 0 0 1-.203-.047.584.584 0 0 1-.187-.125.936.936 0 0 1-.11-.234.861.861 0 0 1-.046-.297c0-.125.015-.23.046-.313A.667.667 0 0 1 .484.345.282.282 0 0 1 .656.219.444.444 0 0 1 .86.172c.07 0 .133.004.188.016.062.019.113.039.156.062.04.031.078.055.11.078.03.031.054.05.078.063h.015V.125a2.173 2.173 0 0 1-.11-.063L1.173.017c-.055-.012-.102-.02-.14-.032A.957.957 0 0 0 .858-.03zm0 0"/></symbol><symbol overflow="visible" id="t"><path d="M1.188.563A.522.522 0 0 0 1.14.328a.45.45 0 0 0-.11-.187.606.606 0 0 0-.422-.172c-.086 0-.168.008-.25.015a.951.951 0 0 0-.218.079v.25h.015L.234.266a.252.252 0 0 1 .11-.047.33.33 0 0 1 .14-.032A.36.36 0 0 1 .61.172.67.67 0 0 1 .75.188c.04.019.078.05.11.093.03.031.05.067.062.11.02.05.031.109.031.171 0 .063-.012.11-.031.141a.555.555 0 0 1-.078.11.258.258 0 0 1-.11.062C.68.883.625.891.563.891.5.89.438.883.374.875L.219.844v.906h.953v-.203H.438v-.469H.53c.02.008.047.016.078.016a.738.738 0 0 0 .22-.032.549.549 0 0 0 .187-.078.742.742 0 0 0 .125-.171.57.57 0 0 0 .046-.25zm0 0"/></symbol><symbol overflow="visible" id="z"><path d="M1.531 0h-.297L.672.703H.406V0H.172v1.75h.453c.102 0 .188-.008.25-.016.07-.011.14-.039.203-.078a.412.412 0 0 0 .14-.156.487.487 0 0 0 .048-.219.528.528 0 0 0-.094-.328.534.534 0 0 0-.266-.187zm-.5 1.25c0 .05-.011.098-.031.14a.313.313 0 0 1-.078.094.419.419 0 0 1-.125.047.841.841 0 0 1-.156.016H.406V.89H.61c.07 0 .133.004.188.015.05.008.098.035.14.078.032.032.051.067.063.11.02.05.031.101.031.156zm0 0"/></symbol><symbol overflow="visible" id="C"><path d="M.594 0v1.547H0v.203h1.406v-.203H.813V0zm0 0"/></symbol><symbol overflow="visible" id="D"><path d="M1.563.875a.875.875 0 0 0-.11-.438.783.783 0 0 0-.25-.296.982.982 0 0 0-.266-.11A1.553 1.553 0 0 0 .579 0H.172v1.75h.406c.164 0 .297-.012.39-.031.095-.032.173-.07.235-.11a.751.751 0 0 0 .266-.296.974.974 0 0 0 .093-.438zm-.25 0a.9.9 0 0 1-.063.344.477.477 0 0 1-.203.218.959.959 0 0 1-.203.094 2.019 2.019 0 0 1-.25.016H.406V.203h.188c.101 0 .191.004.265.016.07.02.145.05.22.093.07.051.128.126.171.22.04.093.063.206.063.343zm0 0"/></symbol><symbol overflow="visible" id="G"><path d="M1.453 0H1.22v.86H.406V0H.172v1.75h.234v-.688h.813v.688h.234zm0 0"/></symbol><symbol overflow="visible" id="H"><path d="M1.281 1.219A.538.538 0 0 0 1.234 1a.477.477 0 0 0-.109-.172.793.793 0 0 0-.203-.125.908.908 0 0 0-.313-.047H.406V0H.172v1.75h.437c.102 0 .192-.012.266-.031.07-.012.14-.04.203-.078a.553.553 0 0 0 .156-.172.634.634 0 0 0 .047-.25zm-.234 0c-.012.062-.024.113-.031.156a.411.411 0 0 1-.094.11.743.743 0 0 1-.14.046.957.957 0 0 1-.173.016H.406V.844h.156c.094 0 .172.008.235.031.05.008.098.035.14.078.032.04.055.082.079.125.007.031.02.078.03.14zm0 0"/></symbol><symbol overflow="visible" id="I"><path d="M.781 0H.11v.172h.22v1.406h-.22v.172h.672v-.172H.562V.172h.22zm0 0"/></symbol><symbol overflow="visible" id="J"><path d="M1.422 0h-.25L.39 1.516V0H.17v1.75H.5L1.219.36v1.39h.203zm0 0"/></symbol><symbol overflow="visible" id="L"><path d="M-.016 0l.594 1.75H.86L1.453 0h-.25l-.156.484H.375L.219 0zm1 .688l-.265.828L.453.687zm0 0"/></symbol><symbol overflow="visible" id="j"><path d="M1.078 1.281v.032c0 .019.004.035.016.046 0 .008.008.016.031.016.008 0 .02-.008.031-.016a.084.084 0 0 0 .016-.046v-.25c0-.032-.008-.055-.016-.063-.011-.012-.023-.016-.031-.016A.036.036 0 0 0 1.094 1c-.012.008-.016.023-.016.047a.313.313 0 0 1-.11.187.39.39 0 0 1-.25.079.336.336 0 0 1-.25-.094C.396 1.164.36 1.102.36 1.03c0-.043.008-.078.032-.11A.249.249 0 0 1 .469.845.264.264 0 0 1 .563.797.462.462 0 0 1 .75.75C.875.727.96.707 1.016.687a.342.342 0 0 0 .156-.125.559.559 0 0 0 .062-.187.38.38 0 0 0-.14-.297.563.563 0 0 0-.36-.11c-.18 0-.32.052-.421.157V.062C.313.04.304.024.296.017.285.004.273 0 .266 0a.036.036 0 0 0-.032.016C.223.023.22.039.22.062v.282c0 .02.004.035.015.047.008.007.02.015.032.015.007 0 .02-.008.03-.015A.084.084 0 0 0 .314.344C.32.27.362.207.436.156A.436.436 0 0 1 .734.063c.114 0 .207.03.282.093.07.063.109.133.109.219 0 .05-.012.098-.031.14A.34.34 0 0 1 .969.61L.734.656C.566.687.445.726.375.781a.307.307 0 0 0-.11.25c0 .102.04.192.126.266.082.07.191.11.328.11a.574.574 0 0 0 .36-.126zm0 0"/></symbol><symbol overflow="visible" id="k"><path d="M.5.563v-.47h.344C.864.094.879.087.89.079.898.078.906.066.906.047.906.035.898.023.891.016.879.004.863 0 .844 0H.28C.25 0 .227.004.22.016a.036.036 0 0 0-.016.03c0 .02.004.032.016.032C.227.086.25.094.28.094h.125V1.28H.281c-.031 0-.054.004-.062.016-.012 0-.016.008-.016.031 0 .008.004.02.016.031.008.008.031.016.062.016h.563a.51.51 0 0 0 .344-.125.365.365 0 0 0-.016-.563.355.355 0 0 0-.188-.093.366.366 0 0 0-.171-.031zm0 .093h.328c.07 0 .14.02.203.063.063.031.11.066.14.11.032.05.048.097.048.14 0 .082-.04.156-.11.219a.342.342 0 0 1-.25.093H.5zm0 0"/></symbol><symbol overflow="visible" id="l"><path d="M1.047.453H.39L.266.093h.187C.473.094.488.087.5.079.508.078.516.066.516.047.516.035.508.023.5.016.488.004.473 0 .453 0H.078C.055 0 .04.004.031.016a.036.036 0 0 0-.015.03c0 .02.004.032.015.032.008.008.024.016.047.016h.078L.594 1.28H.313c-.032 0-.055.004-.063.016-.012 0-.016.008-.016.031 0 .008.004.02.016.031.008.008.031.016.063.016h.484L1.28.094h.078c.02 0 .036-.008.047-.016.008 0 .016-.012.016-.031 0-.012-.008-.024-.016-.031C1.395.004 1.38 0 1.36 0H1C.969 0 .945.004.937.016a.036.036 0 0 0-.015.03c0 .02.004.032.015.032C.946.086.97.094 1 .094h.188zm-.031.11l-.282.718h-.03L.437.563zm0 0"/></symbol><symbol overflow="visible" id="m"><path d="M.328.094V1.28H.25c-.023 0-.04.004-.047.016-.012 0-.016.008-.016.031 0 .008.004.02.016.031.008.008.024.016.047.016h.531c.082 0 .16-.016.235-.047.062-.043.113-.086.156-.125a.813.813 0 0 0 .14-.234.738.738 0 0 0 .032-.219V.625A.763.763 0 0 0 1.28.328a.788.788 0 0 0-.234-.25A.436.436 0 0 0 .78 0H.25C.227 0 .21.004.203.016a.036.036 0 0 0-.016.03c0 .02.004.032.016.032.008.008.024.016.047.016zm.11 0h.359a.36.36 0 0 1 .234.093c.063.051.114.114.157.188.039.07.062.145.062.219V.78c0 .051-.012.102-.031.156a.919.919 0 0 1-.125.204.693.693 0 0 1-.125.093.335.335 0 0 1-.172.047h-.36zm0 0"/></symbol><symbol overflow="visible" id="n"><path d="M.766.64v-.5-.046C.754.082.738.078.719.078a.036.036 0 0 0-.031.016C.675.102.671.117.671.14v.5H.234C.211.64.195.645.187.656.176.656.172.664.172.687c0 .008.004.02.016.032.007.008.023.015.046.015h.438v.5c0 .02.004.036.015.047.008.008.02.016.032.016.02 0 .035-.008.047-.016V.734h.437A.11.11 0 0 0 1.266.72c.007-.012.015-.024.015-.031 0-.024-.008-.032-.015-.032-.012-.011-.032-.015-.063-.015zm0 0"/></symbol><symbol overflow="visible" id="o"><path d="M1.219.75V.61h-1v.14zm0 0"/></symbol><symbol overflow="visible" id="u"><path d="M-.531 1.36a.476.476 0 0 0 .219-.048.418.418 0 0 0 .171-.125A.675.675 0 0 0-.03.97C-.008.895 0 .797 0 .672v-.5h-1.75V.64c0 .125.008.218.016.28a.534.534 0 0 0 .062.173.34.34 0 0 0 .125.14.371.371 0 0 0 .188.047.4.4 0 0 0 .218-.062.353.353 0 0 0 .157-.188h.015a.548.548 0 0 0 .156.25c.075.051.168.078.282.078zm-.797-.313a.21.21 0 0 1-.11-.031A.1.1 0 0 1-1.5.953a1 1 0 0 1-.047-.125V.406h.516v.266c0 .07-.004.125-.016.156a.274.274 0 0 1-.047.11.145.145 0 0 1-.093.078.268.268 0 0 1-.141.03zm.797.078a.37.37 0 0 1-.156-.031.324.324 0 0 1-.11-.11A1 1 0 0 1-.844.86V.406h.64v.188c0 .101-.003.187-.015.25A.642.642 0 0 1-.266 1a.359.359 0 0 1-.109.094.358.358 0 0 1-.156.031zm0 0"/></symbol><symbol overflow="visible" id="v"><path d="M.031.86A.796.796 0 0 0-.03.546a.536.536 0 0 0-.172-.25A.582.582 0 0 0-.484.14 1.093 1.093 0 0 0-.875.078c-.145 0-.27.02-.375.063a.749.749 0 0 0-.297.156.863.863 0 0 0-.172.25.796.796 0 0 0-.062.312c0 .063.008.118.015.172.012.051.024.098.032.14.011.04.027.079.046.11a1 1 0 0 0 .047.125h.282v-.015a.245.245 0 0 0-.063-.079c-.02-.03-.047-.074-.078-.125-.02-.042-.04-.09-.063-.14a1.296 1.296 0 0 1-.015-.188c0-.074.016-.14.047-.203A.584.584 0 0 1-1.406.47a.936.936 0 0 1 .234-.11.861.861 0 0 1 .297-.046c.125 0 .23.015.313.046.085.032.156.07.218.125.063.04.106.098.125.172A.444.444 0 0 1-.172.86c0 .07-.004.133-.016.188a.865.865 0 0 1-.062.156c-.031.04-.055.078-.078.11a.318.318 0 0 0-.063.078v.015h.266c.023-.043.043-.078.063-.11l.046-.124c.012-.055.02-.102.032-.14A.957.957 0 0 0 .03.858zm0 0"/></symbol><symbol overflow="visible" id="w"><path d="M-1.578.594c0-.043.008-.086.016-.125.011-.043.023-.086.03-.125A.264.264 0 0 0-1.483.25a.369.369 0 0 0 .046-.078V.156h-.234a.817.817 0 0 0-.078.219c-.02.082-.031.164-.031.25 0 .07.008.14.015.203a.648.648 0 0 0 .079.156.6.6 0 0 0 .14.125c.055.02.117.032.188.032.093 0 .18-.032.25-.094A.407.407 0 0 0-.97.813h.016c.012.039.023.082.031.125.024.039.047.082.078.125a.428.428 0 0 0 .125.078.6.6 0 0 0 .203.03.822.822 0 0 0 .22-.03A.668.668 0 0 0 0 .844a.972.972 0 0 0 .031-.25 1.151 1.151 0 0 0-.11-.485h-.233v.016c.03.05.062.117.093.203a.692.692 0 0 1 .032.39.36.36 0 0 1-.188.204.806.806 0 0 1-.156.015.37.37 0 0 1-.156-.03.166.166 0 0 1-.094-.079.258.258 0 0 1-.063-.11v-.25h-.203v.079a.436.436 0 0 1-.078.265.267.267 0 0 1-.328.063.17.17 0 0 1-.078-.063.525.525 0 0 1-.047-.093V.594zm0 0"/></symbol><symbol overflow="visible" id="x"><path d="M0 1.203V.125h-.25a3.918 3.918 0 0 1-.422.422 2.747 2.747 0 0 1-.344.281.732.732 0 0 1-.28.063c-.04 0-.083-.008-.126-.016a1.302 1.302 0 0 0-.094-.063.525.525 0 0 1-.046-.093C-1.57.676-1.579.633-1.579.594c0-.043.008-.086.016-.125.011-.043.023-.086.03-.125A.264.264 0 0 0-1.483.25a.369.369 0 0 0 .046-.078h-.25c-.019.039-.039.11-.062.203a1.02 1.02 0 0 0-.031.234c0 .164.043.297.125.391a.46.46 0 0 0 .36.14.629.629 0 0 0 .187-.03.486.486 0 0 0 .156-.063A1.578 1.578 0 0 0-.656.813c.086-.075.168-.157.25-.25.086-.094.152-.168.203-.22v.86zm0 0"/></symbol><symbol overflow="visible" id="y"><path d="M-1.484 1.234L0 .47v-.25l-1.547.797V.109h-.203v1.125zm0 0"/></symbol><symbol overflow="visible" id="A"><path d="M0 .594h-1.547V0h-.203v1.406h.203V.813H0zm0 0"/></symbol><symbol overflow="visible" id="B"><path d="M0 1.125v-.86h-.172v.313h-1.172V.266h-.172a.61.61 0 0 1-.046.265c-.032.051-.094.082-.188.094v.188h1.578v.312zm0 0"/></symbol><symbol overflow="visible" id="E"><path d="M1.281 1.094H.171v.36h1.11zm0 0"/></symbol><symbol overflow="visible" id="F"><path d="M-1.125 2.61v-.985h1v-.328h-1V.313h-.313v.984h-.984v.328h.985v.984zm0 0"/></symbol><symbol overflow="visible" id="K"><path d="M.563 0H.124v.094h.172v.578H.125V.75c.063 0 .11.008.14.031.032.02.047.051.047.094h.094V.094h.156zm0 0"/></symbol></defs><use xlink:href="#a" x="262.819" y="219.969" fill="#505050"/><use xlink:href="#b" x="264.139" y="219.969" fill="#505050"/><use xlink:href="#c" x="264.859" y="219.969" fill="#505050"/><use xlink:href="#d" x="266.179" y="219.969" fill="#505050"/><use xlink:href="#e" x="267.499" y="219.969" fill="#505050"/><use xlink:href="#a" x="262.819" y="205.589" fill="#505050"/><use xlink:href="#b" x="264.139" y="205.589" fill="#505050"/><use xlink:href="#c" x="264.859" y="205.589" fill="#505050"/><use xlink:href="#d" x="266.179" y="205.589" fill="#505050"/><use xlink:href="#e" x="267.499" y="205.589" fill="#505050"/><use xlink:href="#f" x="304.238" y="187.075" fill="#505050"/><use xlink:href="#g" x="305.559" y="187.075" fill="#505050"/><use xlink:href="#g" x="306.879" y="187.075" fill="#505050"/><use xlink:href="#h" x="308.199" y="187.075" fill="#505050"/><use xlink:href="#f" x="309.099" y="187.075" fill="#505050"/><use xlink:href="#g" x="310.419" y="187.075" fill="#505050"/><use xlink:href="#g" x="311.739" y="187.075" fill="#505050"/><use xlink:href="#g" x="313.059" y="187.075" fill="#505050"/><use xlink:href="#d" x="314.379" y="187.075" fill="#505050"/><use xlink:href="#e" x="315.699" y="187.075" fill="#505050"/><use xlink:href="#i" x="307.966" y="197.86" fill="#505050"/><use xlink:href="#i" x="309.286" y="197.86" fill="#505050"/><use xlink:href="#g" x="310.606" y="197.86" fill="#505050"/><use xlink:href="#d" x="311.926" y="197.86" fill="#505050"/><use xlink:href="#e" x="313.246" y="197.86" fill="#505050"/><use xlink:href="#j" x="348.612" y="216.315" fill="#505050"/><use xlink:href="#k" x="350.052" y="216.315" fill="#505050"/><use xlink:href="#l" x="351.492" y="216.315" fill="#505050"/><use xlink:href="#m" x="352.932" y="216.315" fill="#505050"/><use xlink:href="#n" x="354.372" y="216.315" fill="#505050"/><use xlink:href="#o" x="355.812" y="216.315" fill="#505050"/><use xlink:href="#o" x="357.252" y="216.315" fill="#505050"/><use xlink:href="#n" x="358.692" y="216.315" fill="#505050"/><use xlink:href="#f" x="276.97" y="205.59" fill="#505050"/><use xlink:href="#g" x="278.29" y="205.59" fill="#505050"/><use xlink:href="#g" x="279.61" y="205.59" fill="#505050"/><use xlink:href="#p" x="280.93" y="205.59" fill="#505050"/><use xlink:href="#q" x="313.54" y="219.97" fill="#505050"/><use xlink:href="#q" x="314.86" y="219.97" fill="#505050"/><use xlink:href="#g" x="316.18" y="219.97" fill="#505050"/><use xlink:href="#f" x="313.54" y="227.16" fill="#505050"/><use xlink:href="#g" x="314.86" y="227.16" fill="#505050"/><use xlink:href="#g" x="316.18" y="227.16" fill="#505050"/><use xlink:href="#i" x="344.102" y="209.378" fill="#505050"/><use xlink:href="#i" x="345.422" y="209.378" fill="#505050"/><use xlink:href="#f" x="255.388" y="199.298" fill="#505050"/><use xlink:href="#g" x="256.708" y="199.298" fill="#505050"/><use xlink:href="#g" x="258.028" y="199.298" fill="#505050"/><use xlink:href="#p" x="259.348" y="199.298" fill="#505050"/><use xlink:href="#r" x="268.936" y="201.636" fill="#505050"/><use xlink:href="#s" x="270.376" y="201.636" fill="#505050"/><use xlink:href="#t" x="271.816" y="201.636" fill="#505050"/><use xlink:href="#a" x="273.136" y="201.636" fill="#505050"/><use xlink:href="#c" x="274.456" y="201.636" fill="#505050"/><use xlink:href="#u" x="291.181" y="195.82" fill="#505050"/><use xlink:href="#v" x="291.181" y="197.26" fill="#505050"/><use xlink:href="#w" x="291.181" y="198.7" fill="#505050"/><use xlink:href="#x" x="291.181" y="200.02" fill="#505050"/><use xlink:href="#y" x="291.181" y="201.34" fill="#505050"/><use xlink:href="#u" x="291.541" y="217.39" fill="#505050"/><use xlink:href="#v" x="291.541" y="218.83" fill="#505050"/><use xlink:href="#w" x="291.541" y="220.27" fill="#505050"/><use xlink:href="#w" x="291.541" y="221.59" fill="#505050"/><use xlink:href="#y" x="291.541" y="222.91" fill="#505050"/><use xlink:href="#s" x="261.323" y="232.314" fill="#505050"/><use xlink:href="#f" x="262.763" y="232.314" fill="#505050"/><use xlink:href="#s" x="261.323" y="217.934" fill="#505050"/><use xlink:href="#i" x="262.763" y="217.934" fill="#505050"/><use xlink:href="#s" x="314.199" y="202.116" fill="#505050"/><use xlink:href="#q" x="315.639" y="202.116" fill="#505050"/><use xlink:href="#s" x="298.012" y="212.901" fill="#505050"/><use xlink:href="#a" x="299.452" y="212.901" fill="#505050"/><use xlink:href="#z" x="273.133" y="208.227" fill="#505050"/><use xlink:href="#f" x="274.633" y="208.227" fill="#505050"/><use xlink:href="#z" x="304.427" y="222.679" fill="#505050"/><use xlink:href="#i" x="305.927" y="222.679" fill="#505050"/><use xlink:href="#z" x="304.427" y="229.869" fill="#505050"/><use xlink:href="#q" x="305.927" y="229.869" fill="#505050"/><use xlink:href="#z" x="343.922" y="201.383" fill="#505050"/><use xlink:href="#a" x="345.422" y="201.383" fill="#505050"/><use xlink:href="#z" x="343.922" y="201.383" fill="#505050"/><use xlink:href="#a" x="345.422" y="201.383" fill="#505050"/><use xlink:href="#z" x="256.588" y="226.202" fill="#505050"/><use xlink:href="#t" x="258.088" y="226.202" fill="#505050"/><use xlink:href="#A" x="273.196" y="193.606" fill="#505050"/><use xlink:href="#B" x="273.196" y="194.986" fill="#505050"/><use xlink:href="#C" x="297.535" y="190.31" fill="#505050"/><use xlink:href="#i" x="298.915" y="190.31" fill="#505050"/><use xlink:href="#C" x="296.874" y="219.91" fill="#505050"/><use xlink:href="#q" x="298.254" y="219.91" fill="#505050"/><use xlink:href="#D" x="282.725" y="214.756" fill="#505050"/><use xlink:href="#f" x="284.345" y="214.756" fill="#505050"/><use xlink:href="#D" x="280.629" y="225.124" fill="#505050"/><use xlink:href="#i" x="282.249" y="225.124" fill="#505050"/><path d="M272.379 228h-1.98M270.398 228v2.52M270.398 230.52h-1.078M269.32 230.52v-5.04M269.32 225.48h1.078M270.398 225.48V228M265.18 228h1.922M267.102 228v-2.52M267.102 225.48h1.078M268.18 225.48v5.04M268.18 230.52h-1.078M267.102 230.52V228M272.379 213.602h-1.98M270.398 213.602v2.52M270.398 216.121h-1.078M269.32 216.121v-5.043M269.32 211.078h1.078M270.398 211.078v2.524M265.18 213.602h1.922M267.102 213.602v-2.524M267.102 211.078h1.078M268.18 211.078v5.043M268.18 216.121h-1.078M267.102 216.121v-2.52M322.719 200.34v-2.52M322.719 197.82h-3.598M319.121 197.82v-1.441M319.121 196.379h7.2M326.32 196.379v1.441M326.32 197.82h-3.601M322.719 193.86v-2.88" fill="none" stroke-width=".48" stroke-linecap="round" stroke-linejoin="round" stroke="#505050" stroke-miterlimit="10"/><path d="M326.32 193.5h-7.199v1.441h7.2zm0 0" fill="#505050" stroke-width=".12" stroke-linecap="round" stroke-linejoin="round" stroke="#505050" stroke-miterlimit="10"/><path d="M309.398 206.398h-2.52M306.879 206.398V210M306.879 210h-1.438M305.441 210v-7.14M305.441 202.86h1.438M306.879 202.86v3.538M302.922 206.398h-2.883" fill="none" stroke-width=".48" stroke-linecap="round" stroke-linejoin="round" stroke="#505050" stroke-miterlimit="10"/><path d="M304 202.8h-1.441v7.2H304zm0 0" fill="#505050" stroke-width=".12" stroke-linecap="round" stroke-linejoin="round" stroke="#505050" stroke-miterlimit="10"/><path d="M286.719 206.398h-2.52M272.379 206.398h2.52" fill="none" stroke-width=".7200000000000001" stroke-linecap="round" stroke-linejoin="round" stroke="#505050" stroke-miterlimit="10"/><path d="M329.922 220.8H323.8M301.121 220.8h6.117M329.922 228H323.8M301.121 228h6.117" fill="none" stroke-width="1.4400000000000002" stroke-linecap="round" stroke-linejoin="round" stroke="#505050" stroke-miterlimit="10"/><path d="M286.719 213.602v1.796" fill="none" stroke-width=".36000000000000004" stroke-linecap="round" stroke-linejoin="round" stroke="#505050" stroke-miterlimit="10"/><path d="M286.719 221.7v-.72M286.719 220.98v-2.699" fill="none" stroke-width=".24" stroke-linecap="round" stroke-linejoin="round" stroke="#505050" stroke-miterlimit="10"/><path d="M286.719 228v-1.8M279.52 228v-1.8" fill="none" stroke-width=".36000000000000004" stroke-linecap="round" stroke-linejoin="round" stroke="#505050" stroke-miterlimit="10"/><path d="M279.52 219.898v.723M279.52 220.621v2.7" fill="none" stroke-width=".24" stroke-linecap="round" stroke-linejoin="round" stroke="#505050" stroke-miterlimit="10"/><path d="M279.52 213.602v1.796M340.719 188.46h7.203M347.922 188.46v14.4M347.922 202.86h-7.203" fill="none" stroke-width=".36000000000000004" stroke-linecap="round" stroke-linejoin="round" stroke="#505050" stroke-miterlimit="10"/><use xlink:href="#E" x="348.971" y="190.61" fill="#505050"/><use xlink:href="#F" x="351.132" y="197.8" fill="#505050"/><path d="M340.719 202.86v-14.4" fill="none" stroke-width=".36000000000000004" stroke-linecap="round" stroke-linejoin="round" stroke="#505050" stroke-miterlimit="10"/><path d="M272.2 231.602h-.54M271.66 232.14v-.538M271.66 231.602h-.539M271.66 231.602v-.543M262.96 228a5.761 5.761 0 0 1 5.759-5.762 5.762 5.762 0 0 1 0 11.524A5.761 5.761 0 0 1 262.96 228zm0 0" fill="none" stroke-width=".48" stroke-linecap="round" stroke-linejoin="round" stroke="#505050" stroke-miterlimit="10"/><path d="M268.059 225.719h-.72v4.562h.72zm0 0" fill="#505050" stroke-width=".12" stroke-linecap="round" stroke-linejoin="round" stroke="#505050" stroke-miterlimit="10"/><path d="M272.2 217.2h-.54M271.66 217.738v-.539M271.66 217.2h-.539M271.66 217.2v-.54M262.96 213.602a5.76 5.76 0 1 1 11.52-.004 5.76 5.76 0 0 1-11.52.004zm0 0" fill="none" stroke-width=".48" stroke-linecap="round" stroke-linejoin="round" stroke="#505050" stroke-miterlimit="10"/><path d="M268.059 211.32h-.72v4.559h.72zm0 0" fill="#505050" stroke-width=".12" stroke-linecap="round" stroke-linejoin="round" stroke="#505050" stroke-miterlimit="10"/><path d="M326.32 201.422v-1.082M325.238 200.34h1.082M326.32 200.34v-1.078M326.32 200.34h1.078M314.738 195.66a7.922 7.922 0 0 1 7.922-7.922 7.919 7.919 0 0 1 7.918 7.922 7.915 7.915 0 0 1-7.918 7.918 7.919 7.919 0 0 1-7.922-7.918zm0 0M317.32 191.7h-.718M309.398 202.86h-.718M308.68 203.578v-.719M308.68 202.86h-.72M308.68 202.86v-.72M297.46 206.398c0-3.976 3.224-7.199 7.2-7.199 3.977 0 7.2 3.223 7.2 7.2a7.2 7.2 0 1 1-14.4 0zm0 0" fill="none" stroke-width=".48" stroke-linecap="round" stroke-linejoin="round" stroke="#505050" stroke-miterlimit="10"/><use xlink:href="#G" x="341.176" y="225.124" fill="#505050"/><use xlink:href="#D" x="342.796" y="225.124" fill="#505050"/><use xlink:href="#H" x="344.416" y="225.124" fill="#505050"/><use xlink:href="#G" x="345.736" y="225.124" fill="#505050"/><path d="M347.922 210v14.398M347.922 224.398h-7.203M340.719 224.398V210M340.719 210h7.203" fill="none" stroke-width=".36000000000000004" stroke-linecap="round" stroke-linejoin="round" stroke="#505050" stroke-miterlimit="10"/><use xlink:href="#E" x="348.971" y="219.37" fill="#505050"/><use xlink:href="#F" x="351.132" y="212.12" fill="#505050"/><use xlink:href="#I" x="249.514" y="214.756" fill="#505050"/><use xlink:href="#J" x="250.414" y="214.756" fill="#505050"/><path d="M247.18 231.602v-14.403M247.18 217.2h7.199M254.379 217.2v14.402M254.379 231.602h-7.2" fill="none" stroke-width=".36000000000000004" stroke-linecap="round" stroke-linejoin="round" stroke="#505050" stroke-miterlimit="10"/><use xlink:href="#E" x="244.659" y="219.37" fill="#505050"/><use xlink:href="#F" x="246.818" y="226.56" fill="#505050"/><path d="M275.98 205.379v-.3l.18-.24.238-.179h.301M282.398 204.66h.301l.242.18.18.238v.3M276.7 208.2h-.302l-.238-.18-.18-.239v-.3M283.121 207.48v.301l-.18.239-.242.18h-.3M275.98 205.379v2.101M282.398 208.2H276.7M282.398 204.66H276.7M283.121 205.379v2.101" fill="none" stroke-width=".36000000000000004" stroke-linecap="round" stroke-linejoin="round" stroke="#505050" stroke-miterlimit="10"/><path d="M284.2 206.04h-1.079v.722h1.078zm0 0M275.98 206.04h-1.082v.722h1.082zm0 0" fill="#505050" stroke-width=".12" stroke-linecap="round" stroke-linejoin="round" stroke="#505050" stroke-miterlimit="10"/><path d="M309.04 223.68l-.24-.059-.241-.121-.18-.238-.059-.301M308.32 218.64l.059-.242.18-.238.242-.18.238-.058M322 217.922l.238.058.242.18.18.238.059.243M322.719 222.96l-.059.302-.18.238-.242.121-.238.059" fill="none" stroke-width=".48" stroke-linecap="round" stroke-linejoin="round" stroke="#505050" stroke-miterlimit="10"/><path d="M323.8 220.078h-1.081v1.442h1.082zm0 0M308.32 220.078h-1.082v1.442h1.082zm0 0" fill="#505050" stroke-width=".12" stroke-linecap="round" stroke-linejoin="round" stroke="#505050" stroke-miterlimit="10"/><path d="M309.04 223.68l-.24-.059-.241-.121-.18-.238-.059-.301M308.32 218.64l.059-.242.18-.238.242-.18.238-.058M322 217.922l.238.058.242.18.18.238.059.243M322.719 222.96l-.059.302-.18.238-.242.121-.238.059M308.32 218.64v4.32M309.04 223.68h1.081M310.48 223.32l-.359.36M309.04 217.922h1.081M310.48 218.281l-.359-.36M320.559 223.32l.363.36M320.559 223.32H310.48M320.559 218.281l.363-.36M320.559 218.281H310.48M322 223.68h-1.078M322 217.922h-1.078M322.719 218.64v4.32" fill="none" stroke-width=".48" stroke-linecap="round" stroke-linejoin="round" stroke="#505050" stroke-miterlimit="10"/><path d="M323.8 220.078h-1.081v1.442h1.082zm0 0M308.32 220.078h-1.082v1.442h1.082zm0 0" fill="#505050" stroke-width=".12" stroke-linecap="round" stroke-linejoin="round" stroke="#505050" stroke-miterlimit="10"/><path d="M309.04 230.879l-.24-.059-.241-.18-.18-.18-.059-.3M308.32 225.84l.059-.3.18-.18.242-.18.238-.059M322 225.121l.238.059.242.18.18.18.059.3M322.719 230.16l-.059.3-.18.18-.242.18-.238.059" fill="none" stroke-width=".48" stroke-linecap="round" stroke-linejoin="round" stroke="#505050" stroke-miterlimit="10"/><path d="M323.8 227.281h-1.081v1.438h1.082zm0 0M308.32 227.281h-1.082v1.438h1.082zm0 0" fill="#505050" stroke-width=".12" stroke-linecap="round" stroke-linejoin="round" stroke="#505050" stroke-miterlimit="10"/><path d="M309.04 230.879l-.24-.059-.241-.18-.18-.18-.059-.3M308.32 225.84l.059-.3.18-.18.242-.18.238-.059M322 225.121l.238.059.242.18.18.18.059.3M322.719 230.16l-.059.3-.18.18-.242.18-.238.059M308.32 225.84v4.32M309.04 230.879h1.081M310.48 230.52l-.359.359M309.04 225.121h1.081M310.48 225.48l-.359-.359M320.559 230.52l.363.359M320.559 230.52H310.48M320.559 225.48l.363-.359M320.559 225.48H310.48M322 230.879h-1.078M322 225.121h-1.078M322.719 225.84v4.32" fill="none" stroke-width=".48" stroke-linecap="round" stroke-linejoin="round" stroke="#505050" stroke-miterlimit="10"/><path d="M323.8 227.281h-1.081v1.438h1.082zm0 0M308.32 227.281h-1.082v1.438h1.082zm0 0" fill="#505050" stroke-width=".12" stroke-linecap="round" stroke-linejoin="round" stroke="#505050" stroke-miterlimit="10"/><path d="M254.379 202.86h7.2M261.578 202.86v21.538M261.578 224.398h-7.2M254.379 224.398V202.86M278.262 203.941h-11.82M265.54 196.02l.66-1.141.84-1.02 1.019-.84 1.14-.597 1.2-.48 1.32-.243h1.32l1.262.242 1.258.48 1.14.599.961.84.899 1.019.66 1.14M264.82 199.262h15.059M279.219 196.02l.36 1.02.241 1.081.059 1.14M279.879 199.262l-.059 1.078-.242 1.082-.36 1.02M279.219 202.441l-.418.778-.54.722M265.54 202.441l-.419-1.02-.242-1.081-.059-1.078M264.82 199.262l.059-1.14.242-1.083.418-1.02M266.441 203.941l-.543-.78-.418-.782M298.602 193.32v11.88M290.738 206.102l-1.136-.66-1.024-.903-.84-.96-.66-1.138-.418-1.261-.238-1.258v-1.32l.238-1.32.418-1.204.66-1.137.84-1.02 1.024-.843 1.136-.656M294.281 206.762v-15.063M290.738 192.422l1.14-.422 1.2-.238 1.203-.063M294.281 191.7l1.02.12.96.239.9.363M297.16 192.422l.781.418.66.48M297.16 206.102l-.898.359-.961.18-1.02.12M294.281 206.762h-1.203l-1.2-.242-1.14-.418M298.602 205.2l-.723.48-.777.422" fill="none" stroke-width=".36000000000000004" stroke-linecap="round" stroke-linejoin="round" stroke="#505050" stroke-miterlimit="10"/><use xlink:href="#K" x="295.736" y="193.848" fill="#505050"/><path d="M289.238 226.738V214.86M297.16 213.96l1.14.661 1.02.84.84 1.02.602 1.14.476 1.258.242 1.262v1.32l-.242 1.32-.476 1.2-.602 1.14-.84 1.02-1.02.84-1.14.66M293.922 213.238v15.121M297.16 227.64l-1.02.419-1.081.242-1.137.058M293.922 228.36l-1.082-.122-1.078-.238-1.024-.36M290.738 227.64l-.777-.421-.723-.48M290.738 213.96l1.024-.358 1.078-.243 1.082-.12" fill="none" stroke-width=".36000000000000004" stroke-linecap="round" stroke-linejoin="round" stroke="#505050" stroke-miterlimit="10"/><path d="M293.922 213.238l1.137.063 1.082.238 1.02.422M289.238 214.86l.782-.481.78-.418" fill="none" stroke-width=".36000000000000004" stroke-linecap="round" stroke-linejoin="round" stroke="#505050" stroke-miterlimit="10"/><path d="M288.52 222.96l-.06.481-.179.36-.36.36-.362.179-.48.058M286.36 224.398l-.419-.058-.421-.18-.301-.36-.18-.359-.117-.48M284.922 218.64l.117-.421.18-.418.3-.301.422-.238.418-.063M287.078 217.2l.48.062.364.238.36.3.179.419.059.422M286.36 224.398h.718M288.52 218.64v4.32M284.922 218.64v4.32M286.36 217.2h.718" fill="none" stroke-width=".30000000000000004" stroke-linecap="round" stroke-linejoin="round" stroke="#505050" stroke-miterlimit="10"/><path d="M287.8 219h-2.16M285.64 219l1.079 1.98M286.719 220.98L287.8 219M287.8 220.98h-1.081M286.719 220.98h-1.078" fill="none" stroke-width=".24" stroke-linecap="round" stroke-linejoin="round" stroke="#505050" stroke-miterlimit="10"/><path d="M288.52 222.422h-3.598v.719h3.598zm0 0M287.02 224.578h-.598v1.563h.598zm0 0M287.02 215.52h-.598v1.562h.598zm0 0" fill="#505050" stroke-width=".12" stroke-linecap="round" stroke-linejoin="round" stroke="#505050" stroke-miterlimit="10"/><path d="M277.781 218.64l.059-.421.18-.418.3-.301.418-.238.48-.063M279.879 217.2l.48.062.422.238.297.3.184.419.058.422M281.32 222.96l-.058.481-.184.36-.297.36-.422.179-.48.058M279.219 224.398l-.48-.058-.419-.18-.3-.36-.18-.359-.059-.48M279.879 217.2h-.66M277.781 222.96v-4.32M281.32 222.96v-4.32M279.879 224.398h-.66" fill="none" stroke-width=".30000000000000004" stroke-linecap="round" stroke-linejoin="round" stroke="#505050" stroke-miterlimit="10"/><path d="M278.5 222.602h2.102M280.602 222.602l-1.082-1.98M279.52 220.621l-1.02 1.98M278.5 220.621h1.02M279.52 220.621h1.082" fill="none" stroke-width=".24" stroke-linecap="round" stroke-linejoin="round" stroke="#505050" stroke-miterlimit="10"/><path d="M281.32 218.46h-3.601v.72h3.601zm0 0M279.82 215.52h-.601v1.562h.601zm0 0M279.82 224.578h-.601v1.563h.601zm0 0" fill="#505050" stroke-width=".12" stroke-linecap="round" stroke-linejoin="round" stroke="#505050" stroke-miterlimit="10"/><path d="M308.32 213.602h14.399" fill="none" stroke-width="3.6" stroke-linecap="round" stroke-linejoin="round" stroke="maroon" stroke-miterlimit="10"/><path d="M341.738 192.059a2.521 2.521 0 0 1 5.043 0 2.518 2.518 0 0 1-2.52 2.52 2.519 2.519 0 0 1-2.523-2.52" fill-rule="evenodd" fill="green"/><path d="M341.738 192.059a2.521 2.521 0 0 1 5.043 0 2.518 2.518 0 0 1-2.52 2.52 2.519 2.519 0 0 1-2.523-2.52zm0 0" fill="none" stroke-width=".12" stroke-linecap="round" stroke-linejoin="round" stroke="green" stroke-miterlimit="10"/><path d="M342.82 192.059a1.44 1.44 0 1 1 2.88.004 1.44 1.44 0 0 1-2.88-.004" fill-rule="evenodd" fill="#fff"/><path d="M342.82 192.059a1.44 1.44 0 1 1 2.88.004 1.44 1.44 0 0 1-2.88-.004zm0 0" fill="none" stroke-width=".06" stroke-linecap="square" stroke-linejoin="bevel" stroke="#000" stroke-miterlimit="10"/><path d="M341.738 199.262a2.522 2.522 0 1 1 5.045-.003 2.522 2.522 0 0 1-5.045.003" fill-rule="evenodd" fill="green"/><path d="M341.738 199.262a2.522 2.522 0 1 1 5.045-.003 2.522 2.522 0 0 1-5.045.003zm0 0" fill="none" stroke-width=".12" stroke-linecap="round" stroke-linejoin="round" stroke="green" stroke-miterlimit="10"/><path d="M342.82 199.262a1.44 1.44 0 1 1 2.881-.002 1.44 1.44 0 0 1-2.88.002" fill-rule="evenodd" fill="#fff"/><path d="M342.82 199.262a1.44 1.44 0 1 1 2.881-.002 1.44 1.44 0 0 1-2.88.002zm0 0" fill="none" stroke-width=".06" stroke-linecap="square" stroke-linejoin="bevel" stroke="#000" stroke-miterlimit="10"/><path d="M262.84 228a2.281 2.281 0 0 1 2.281-2.281 2.28 2.28 0 0 1 0 4.562A2.281 2.281 0 0 1 262.84 228" fill-rule="evenodd" fill="green"/><path d="M262.84 228a2.281 2.281 0 0 1 2.281-2.281 2.28 2.28 0 0 1 0 4.562A2.281 2.281 0 0 1 262.84 228zm0 0" fill="none" stroke-width=".12" stroke-linecap="round" stroke-linejoin="round" stroke="green" stroke-miterlimit="10"/><path d="M263.98 228a1.14 1.14 0 1 1 2.282 0 1.14 1.14 0 1 1-2.281 0" fill-rule="evenodd" fill="#fff"/><path d="M263.98 228a1.14 1.14 0 1 1 2.282 0 1.14 1.14 0 1 1-2.281 0zm0 0" fill="none" stroke-width=".06" stroke-linecap="square" stroke-linejoin="bevel" stroke="#000" stroke-miterlimit="10"/><path d="M274.66 225.719h-4.558v4.562h4.558zm0 0" fill="green" stroke-width=".12" stroke-linecap="round" stroke-linejoin="round" stroke="green" stroke-miterlimit="10"/><path d="M271.18 228c0-.629.511-1.14 1.14-1.14.63 0 1.14.511 1.14 1.14 0 .629-.51 1.14-1.14 1.14-.629 0-1.14-.511-1.14-1.14" fill-rule="evenodd" fill="#fff"/><path d="M271.18 228c0-.629.511-1.14 1.14-1.14.63 0 1.14.511 1.14 1.14 0 .629-.51 1.14-1.14 1.14-.629 0-1.14-.511-1.14-1.14zm0 0" fill="none" stroke-width=".06" stroke-linecap="square" stroke-linejoin="bevel" stroke="#000" stroke-miterlimit="10"/><path d="M262.84 213.602a2.279 2.279 0 1 1 4.558-.005 2.279 2.279 0 0 1-4.558.005" fill-rule="evenodd" fill="green"/><path d="M262.84 213.602a2.279 2.279 0 1 1 4.558-.005 2.279 2.279 0 0 1-4.558.005zm0 0" fill="none" stroke-width=".12" stroke-linecap="round" stroke-linejoin="round" stroke="green" stroke-miterlimit="10"/><path d="M263.98 213.602c0-.633.508-1.141 1.141-1.141a1.14 1.14 0 1 1 0 2.277c-.633 0-1.14-.508-1.14-1.136" fill-rule="evenodd" fill="#fff"/><path d="M263.98 213.602c0-.633.508-1.141 1.141-1.141a1.14 1.14 0 1 1 0 2.277c-.633 0-1.14-.508-1.14-1.136zm0 0" fill="none" stroke-width=".06" stroke-linecap="square" stroke-linejoin="bevel" stroke="#000" stroke-miterlimit="10"/><path d="M274.66 211.32h-4.558v4.559h4.558zm0 0" fill="green" stroke-width=".12" stroke-linecap="round" stroke-linejoin="round" stroke="green" stroke-miterlimit="10"/><path d="M271.18 213.602a1.14 1.14 0 1 1 2.279-.003 1.14 1.14 0 0 1-2.28.003" fill-rule="evenodd" fill="#fff"/><path d="M271.18 213.602a1.14 1.14 0 1 1 2.279-.003 1.14 1.14 0 0 1-2.28.003zm0 0" fill="none" stroke-width=".06" stroke-linecap="square" stroke-linejoin="bevel" stroke="#000" stroke-miterlimit="10"/><path d="M320.379 192.059a2.28 2.28 0 0 1 4.562 0 2.281 2.281 0 0 1-4.562 0" fill-rule="evenodd" fill="green"/><path d="M320.379 192.059a2.28 2.28 0 0 1 4.562 0 2.281 2.281 0 0 1-4.562 0zm0 0" fill="none" stroke-width=".12" stroke-linecap="round" stroke-linejoin="round" stroke="green" stroke-miterlimit="10"/><path d="M321.52 192.059c0-.63.511-1.137 1.14-1.137a1.139 1.139 0 1 1 0 2.277c-.629 0-1.14-.512-1.14-1.14" fill-rule="evenodd" fill="#fff"/><path d="M321.52 192.059c0-.63.511-1.137 1.14-1.137a1.139 1.139 0 1 1 0 2.277c-.629 0-1.14-.511-1.14-1.14zm0 0" fill="none" stroke-width=".06" stroke-linecap="square" stroke-linejoin="bevel" stroke="#000" stroke-miterlimit="10"/><path d="M325 196.98h-4.559v4.56H325zm0 0" fill="green" stroke-width=".12" stroke-linecap="round" stroke-linejoin="round" stroke="green" stroke-miterlimit="10"/><path d="M321.52 199.262a1.14 1.14 0 1 1 2.278-.003 1.14 1.14 0 0 1-2.278.003" fill-rule="evenodd" fill="#fff"/><path d="M321.52 199.262a1.14 1.14 0 1 1 2.278-.003 1.14 1.14 0 0 1-2.278.003zm0 0" fill="none" stroke-width=".06" stroke-linecap="square" stroke-linejoin="bevel" stroke="#000" stroke-miterlimit="10"/><path d="M299.32 206.398c0-.925.778-1.68 1.739-1.68.96 0 1.742.755 1.742 1.68 0 .93-.781 1.68-1.742 1.68s-1.739-.75-1.739-1.68" fill-rule="evenodd" fill="green"/><path d="M299.32 206.398c0-.925.778-1.68 1.739-1.68.96 0 1.742.755 1.742 1.68 0 .93-.781 1.68-1.742 1.68s-1.739-.75-1.739-1.68zm0 0" fill="none" stroke-width=".12" stroke-linecap="round" stroke-linejoin="round" stroke="green" stroke-miterlimit="10"/><path d="M300.04 206.398a1.02 1.02 0 1 1 1.019 1.024c-.563 0-1.02-.457-1.02-1.024" fill-rule="evenodd" fill="#fff"/><path d="M300.04 206.398a1.02 1.02 0 1 1 1.019 1.024c-.563 0-1.02-.457-1.02-1.024zm0 0" fill="none" stroke-width=".06" stroke-linecap="square" stroke-linejoin="bevel" stroke="#000" stroke-miterlimit="10"/><path d="M310.059 204.719h-3.48v3.363h3.48zm0 0" fill="green" stroke-width=".12" stroke-linecap="round" stroke-linejoin="round" stroke="green" stroke-miterlimit="10"/><path d="M307.238 206.398a1.021 1.021 0 1 1 2.042.004 1.021 1.021 0 0 1-2.042-.004" fill-rule="evenodd" fill="#fff"/><path d="M307.238 206.398a1.021 1.021 0 1 1 2.042.004 1.021 1.021 0 0 1-2.042-.004zm0 0" fill="none" stroke-width=".06" stroke-linecap="square" stroke-linejoin="bevel" stroke="#000" stroke-miterlimit="10"/><path d="M341.738 220.8a2.519 2.519 0 0 1 2.524-2.519 2.52 2.52 0 1 1-2.523 2.52" fill-rule="evenodd" fill="green"/><path d="M341.738 220.8a2.519 2.519 0 0 1 2.524-2.519 2.52 2.52 0 1 1-2.523 2.52zm0 0" fill="none" stroke-width=".12" stroke-linecap="round" stroke-linejoin="round" stroke="green" stroke-miterlimit="10"/><path d="M342.82 220.8a1.44 1.44 0 1 1 2.881-.001 1.44 1.44 0 0 1-2.88.002" fill-rule="evenodd" fill="#fff"/><path d="M342.82 220.8a1.44 1.44 0 1 1 2.881-.001 1.44 1.44 0 0 1-2.88.002zm0 0" fill="none" stroke-width=".06" stroke-linecap="square" stroke-linejoin="bevel" stroke="#000" stroke-miterlimit="10"/><path d="M341.738 213.602a2.522 2.522 0 1 1 5.045-.003 2.522 2.522 0 0 1-5.045.003" fill-rule="evenodd" fill="green"/><path d="M341.738 213.602a2.522 2.522 0 1 1 5.045-.003 2.522 2.522 0 0 1-5.045.003zm0 0" fill="none" stroke-width=".12" stroke-linecap="round" stroke-linejoin="round" stroke="green" stroke-miterlimit="10"/><path d="M342.82 213.602a1.44 1.44 0 1 1 2.881-.003 1.44 1.44 0 0 1-2.88.003" fill-rule="evenodd" fill="#fff"/><path d="M342.82 213.602a1.44 1.44 0 1 1 2.881-.003 1.44 1.44 0 0 1-2.88.003zm0 0" fill="none" stroke-width=".06" stroke-linecap="square" stroke-linejoin="bevel" stroke="#000" stroke-miterlimit="10"/><path d="M248.2 220.8a2.518 2.518 0 0 1 2.519-2.519 2.516 2.516 0 0 1 2.52 2.52 2.52 2.52 0 0 1-5.04 0" fill-rule="evenodd" fill="green"/><path d="M248.2 220.8a2.518 2.518 0 0 1 2.519-2.519 2.516 2.516 0 0 1 2.52 2.52 2.52 2.52 0 0 1-5.04 0zm0 0" fill="none" stroke-width=".12" stroke-linecap="round" stroke-linejoin="round" stroke="green" stroke-miterlimit="10"/><path d="M249.281 220.8a1.44 1.44 0 1 1 2.88-.003 1.44 1.44 0 0 1-2.88.004" fill-rule="evenodd" fill="#fff"/><path d="M249.281 220.8a1.44 1.44 0 1 1 2.88-.003 1.44 1.44 0 0 1-2.88.004zm0 0" fill="none" stroke-width=".06" stroke-linecap="square" stroke-linejoin="bevel" stroke="#000" stroke-miterlimit="10"/><path d="M248.2 228a2.52 2.52 0 1 1 5.04.002 2.52 2.52 0 0 1-5.04-.002" fill-rule="evenodd" fill="green"/><path d="M248.2 228a2.52 2.52 0 1 1 5.04.002 2.52 2.52 0 0 1-5.04-.002zm0 0" fill="none" stroke-width=".12" stroke-linecap="round" stroke-linejoin="round" stroke="green" stroke-miterlimit="10"/><path d="M249.281 228a1.44 1.44 0 1 1 2.88 0 1.44 1.44 0 1 1-2.88 0" fill-rule="evenodd" fill="#fff"/><path d="M249.281 228a1.44 1.44 0 1 1 2.88 0 1.44 1.44 0 1 1-2.88 0zm0 0" fill="none" stroke-width=".06" stroke-linecap="square" stroke-linejoin="bevel" stroke="#000" stroke-miterlimit="10"/><path d="M270.46 206.398a1.859 1.859 0 1 1 3.72 0 1.862 1.862 0 0 1-1.86 1.864 1.862 1.862 0 0 1-1.86-1.864" fill-rule="evenodd" fill="green"/><path d="M270.46 206.398a1.859 1.859 0 1 1 3.72 0 1.862 1.862 0 0 1-1.86 1.864 1.862 1.862 0 0 1-1.86-1.864zm0 0" fill="none" stroke-width=".12" stroke-linecap="round" stroke-linejoin="round" stroke="green" stroke-miterlimit="10"/><path d="M271.18 206.398c0-.628.511-1.136 1.14-1.136a1.139 1.139 0 1 1 0 2.277 1.14 1.14 0 0 1-1.14-1.14" fill-rule="evenodd" fill="#fff"/><path d="M271.18 206.398c0-.628.511-1.136 1.14-1.136a1.139 1.139 0 1 1 0 2.277 1.14 1.14 0 0 1-1.14-1.14zm0 0" fill="none" stroke-width=".06" stroke-linecap="square" stroke-linejoin="bevel" stroke="#000" stroke-miterlimit="10"/><path d="M284.8 206.398a1.859 1.859 0 1 1 3.72 0 1.862 1.862 0 0 1-1.86 1.864 1.862 1.862 0 0 1-1.86-1.864" fill-rule="evenodd" fill="green"/><path d="M284.8 206.398a1.859 1.859 0 1 1 3.72 0 1.862 1.862 0 0 1-1.86 1.864 1.862 1.862 0 0 1-1.86-1.864zm0 0" fill="none" stroke-width=".12" stroke-linecap="round" stroke-linejoin="round" stroke="green" stroke-miterlimit="10"/><path d="M285.52 206.398c0-.628.511-1.136 1.14-1.136a1.139 1.139 0 1 1 0 2.277 1.14 1.14 0 0 1-1.14-1.14" fill-rule="evenodd" fill="#fff"/><path d="M285.52 206.398c0-.628.511-1.136 1.14-1.136a1.139 1.139 0 1 1 0 2.277 1.14 1.14 0 0 1-1.14-1.14zm0 0" fill="none" stroke-width=".06" stroke-linecap="square" stroke-linejoin="bevel" stroke="#000" stroke-miterlimit="10"/><path d="M299.2 220.8a1.862 1.862 0 0 1 3.723 0 1.862 1.862 0 0 1-3.724 0" fill-rule="evenodd" fill="green"/><path d="M299.2 220.8a1.862 1.862 0 0 1 3.723 0 1.862 1.862 0 0 1-3.724 0zm0 0" fill="none" stroke-width=".12" stroke-linecap="round" stroke-linejoin="round" stroke="green" stroke-miterlimit="10"/><path d="M299.922 220.8a1.139 1.139 0 1 1 2.277 0 1.139 1.139 0 0 1-2.277 0" fill-rule="evenodd" fill="#fff"/><path d="M299.922 220.8a1.139 1.139 0 1 1 2.277 0 1.139 1.139 0 0 1-2.277 0zm0 0" fill="none" stroke-width=".06" stroke-linecap="square" stroke-linejoin="bevel" stroke="#000" stroke-miterlimit="10"/><path d="M328 220.8a1.859 1.859 0 1 1 3.718 0 1.859 1.859 0 0 1-3.718 0" fill-rule="evenodd" fill="green"/><path d="M328 220.8a1.859 1.859 0 1 1 3.718 0 1.859 1.859 0 0 1-3.718 0zm0 0" fill="none" stroke-width=".12" stroke-linecap="round" stroke-linejoin="round" stroke="green" stroke-miterlimit="10"/><path d="M328.719 220.8c0-.628.511-1.14 1.14-1.14.63 0 1.141.512 1.141 1.14 0 .63-.512 1.141-1.14 1.141-.63 0-1.141-.511-1.141-1.14" fill-rule="evenodd" fill="#fff"/><path d="M328.719 220.8c0-.628.511-1.14 1.14-1.14.63 0 1.141.512 1.141 1.14 0 .63-.512 1.141-1.14 1.141-.63 0-1.141-.511-1.141-1.14zm0 0" fill="none" stroke-width=".06" stroke-linecap="square" stroke-linejoin="bevel" stroke="#000" stroke-miterlimit="10"/><path d="M299.2 228a1.862 1.862 0 0 1 3.723 0 1.862 1.862 0 0 1-3.724 0" fill-rule="evenodd" fill="green"/><path d="M299.2 228a1.862 1.862 0 0 1 3.723 0 1.862 1.862 0 0 1-3.724 0zm0 0" fill="none" stroke-width=".12" stroke-linecap="round" stroke-linejoin="round" stroke="green" stroke-miterlimit="10"/><path d="M299.922 228a1.139 1.139 0 1 1 2.277 0 1.139 1.139 0 0 1-2.277 0" fill-rule="evenodd" fill="#fff"/><path d="M299.922 228a1.139 1.139 0 1 1 2.277 0 1.139 1.139 0 0 1-2.277 0zm0 0" fill="none" stroke-width=".06" stroke-linecap="square" stroke-linejoin="bevel" stroke="#000" stroke-miterlimit="10"/><path d="M328 228a1.859 1.859 0 1 1 3.718-.001A1.859 1.859 0 0 1 328 228" fill-rule="evenodd" fill="green"/><path d="M328 228a1.859 1.859 0 1 1 3.718-.001A1.859 1.859 0 0 1 328 228zm0 0" fill="none" stroke-width=".12" stroke-linecap="round" stroke-linejoin="round" stroke="green" stroke-miterlimit="10"/><path d="M328.719 228c0-.629.511-1.14 1.14-1.14.63 0 1.141.511 1.141 1.14 0 .629-.512 1.14-1.14 1.14-.63 0-1.141-.511-1.141-1.14" fill-rule="evenodd" fill="#fff"/><path d="M328.719 228c0-.629.511-1.14 1.14-1.14.63 0 1.141.511 1.141 1.14 0 .629-.512 1.14-1.14 1.14-.63 0-1.141-.511-1.141-1.14zm0 0" fill="none" stroke-width=".06" stroke-linecap="square" stroke-linejoin="bevel" stroke="#000" stroke-miterlimit="10"/><path d="M335.2 206.398a1.862 1.862 0 0 1 3.723 0 1.865 1.865 0 0 1-1.864 1.864 1.862 1.862 0 0 1-1.86-1.864" fill-rule="evenodd" fill="green"/><path d="M335.2 206.398a1.862 1.862 0 0 1 3.723 0 1.865 1.865 0 0 1-1.864 1.864 1.862 1.862 0 0 1-1.86-1.864zm0 0" fill="none" stroke-width=".12" stroke-linecap="round" stroke-linejoin="round" stroke="green" stroke-miterlimit="10"/><path d="M335.922 206.398a1.139 1.139 0 1 1 1.137 1.14 1.136 1.136 0 0 1-1.137-1.14" fill-rule="evenodd" fill="#fff"/><path d="M335.922 206.398a1.139 1.139 0 1 1 1.137 1.14 1.136 1.136 0 0 1-1.137-1.14zm0 0" fill="none" stroke-width=".06" stroke-linecap="square" stroke-linejoin="bevel" stroke="#000" stroke-miterlimit="10"/><path d="M342.398 206.398a1.862 1.862 0 0 1 3.723 0 1.865 1.865 0 0 1-1.86 1.864 1.865 1.865 0 0 1-1.863-1.864" fill-rule="evenodd" fill="green"/><path d="M342.398 206.398a1.862 1.862 0 0 1 3.723 0 1.865 1.865 0 0 1-1.86 1.864 1.865 1.865 0 0 1-1.863-1.864zm0 0" fill="none" stroke-width=".12" stroke-linecap="round" stroke-linejoin="round" stroke="green" stroke-miterlimit="10"/><path d="M343.121 206.398c0-.628.508-1.136 1.14-1.136.63 0 1.137.508 1.137 1.136 0 .633-.507 1.141-1.136 1.141-.633 0-1.14-.508-1.14-1.14" fill-rule="evenodd" fill="#fff"/><path d="M343.121 206.398c0-.628.508-1.136 1.14-1.136.63 0 1.137.508 1.137 1.136 0 .633-.507 1.141-1.136 1.141-.633 0-1.14-.508-1.14-1.14zm0 0" fill="none" stroke-width=".06" stroke-linecap="square" stroke-linejoin="bevel" stroke="#000" stroke-miterlimit="10"/><path d="M260.5 219.781l-1.5-1.5h-2.04l-1.5 1.5v2.04l1.5 1.5H259l1.5-1.5v-2.04" fill="green"/><path d="M260.5 219.781l-1.5-1.5h-2.04l-1.5 1.5v2.04l1.5 1.5H259l1.5-1.5zm0 0" fill="none" stroke-width=".12" stroke-linecap="round" stroke-linejoin="round" stroke="green" stroke-miterlimit="10"/><path d="M256.66 220.8a1.26 1.26 0 1 1 0 0" fill-rule="evenodd" fill="#fff"/><path d="M256.66 220.8a1.26 1.26 0 1 1 0 0zm0 0" fill="none" stroke-width=".06" stroke-linecap="square" stroke-linejoin="bevel" stroke="#000" stroke-miterlimit="10"/><path d="M260.5 212.578l-1.5-1.5h-2.04l-1.5 1.5v2.043l1.5 1.5H259l1.5-1.5v-2.043" fill="green"/><path d="M260.5 212.578l-1.5-1.5h-2.04l-1.5 1.5v2.043l1.5 1.5H259l1.5-1.5zm0 0" fill="none" stroke-width=".12" stroke-linecap="round" stroke-linejoin="round" stroke="green" stroke-miterlimit="10"/><path d="M256.66 213.602a1.259 1.259 0 1 1 2.52 0c0 .695-.563 1.257-1.258 1.257-.7 0-1.262-.562-1.262-1.257" fill-rule="evenodd" fill="#fff"/><path d="M256.66 213.602a1.259 1.259 0 1 1 2.52 0c0 .695-.563 1.257-1.258 1.257-.7 0-1.262-.562-1.262-1.257zm0 0" fill="none" stroke-width=".06" stroke-linecap="square" stroke-linejoin="bevel" stroke="#000" stroke-miterlimit="10"/><path d="M260.5 203.879h-5.04v5.039h5.04zm0 0" fill="green" stroke-width=".12" stroke-linecap="round" stroke-linejoin="round" stroke="green" stroke-miterlimit="10"/><path d="M256.66 206.398c0-.695.563-1.257 1.262-1.257.695 0 1.258.562 1.258 1.257a1.259 1.259 0 1 1-2.52 0" fill-rule="evenodd" fill="#fff"/><path d="M256.66 206.398c0-.695.563-1.257 1.262-1.257.695 0 1.258.562 1.258 1.257a1.259 1.259 0 1 1-2.52 0zm0 0" fill="none" stroke-width=".06" stroke-linecap="square" stroke-linejoin="bevel" stroke="#000" stroke-miterlimit="10"/><path d="M277.422 199.262a2.039 2.039 0 1 1 4.078 0 2.038 2.038 0 1 1-4.078 0" fill-rule="evenodd" fill="green"/><path d="M277.422 199.262a2.039 2.039 0 1 1 4.078 0 2.038 2.038 0 1 1-4.078 0zm0 0" fill="none" stroke-width=".12" stroke-linecap="round" stroke-linejoin="round" stroke="green" stroke-miterlimit="10"/><path d="M278.441 199.262c0-.567.457-1.024 1.02-1.024a1.021 1.021 0 0 1 0 2.043 1.02 1.02 0 0 1-1.02-1.02" fill-rule="evenodd" fill="#fff"/><path d="M278.441 199.262c0-.567.457-1.024 1.02-1.024a1.021 1.021 0 0 1 0 2.043 1.02 1.02 0 0 1-1.02-1.02zm0 0" fill="none" stroke-width=".06" stroke-linecap="square" stroke-linejoin="bevel" stroke="#000" stroke-miterlimit="10"/><path d="M263.078 199.262a2.042 2.042 0 1 1 4.082 0 2.04 2.04 0 0 1-4.082 0" fill-rule="evenodd" fill="green"/><path d="M263.078 199.262a2.042 2.042 0 1 1 4.082 0 2.04 2.04 0 0 1-4.082 0zm0 0" fill="none" stroke-width=".12" stroke-linecap="round" stroke-linejoin="round" stroke="green" stroke-miterlimit="10"/><path d="M264.102 199.262c0-.567.457-1.024 1.02-1.024a1.021 1.021 0 0 1 0 2.043 1.02 1.02 0 0 1-1.02-1.02" fill-rule="evenodd" fill="#fff"/><path d="M264.102 199.262c0-.567.457-1.024 1.02-1.024a1.021 1.021 0 0 1 0 2.043 1.02 1.02 0 0 1-1.02-1.02zm0 0" fill="none" stroke-width=".06" stroke-linecap="square" stroke-linejoin="bevel" stroke="#000" stroke-miterlimit="10"/><path d="M270.281 199.262a2.039 2.039 0 1 1 4.078 0 2.038 2.038 0 1 1-4.078 0" fill-rule="evenodd" fill="green"/><path d="M270.281 199.262a2.039 2.039 0 1 1 4.078 0 2.038 2.038 0 1 1-4.078 0zm0 0" fill="none" stroke-width=".12" stroke-linecap="round" stroke-linejoin="round" stroke="green" stroke-miterlimit="10"/><path d="M271.3 199.262c0-.567.458-1.024 1.02-1.024a1.021 1.021 0 0 1 0 2.043 1.02 1.02 0 0 1-1.02-1.02" fill-rule="evenodd" fill="#fff"/><path d="M271.3 199.262c0-.567.458-1.024 1.02-1.024a1.021 1.021 0 0 1 0 2.043 1.02 1.02 0 0 1-1.02-1.02zm0 0" fill="none" stroke-width=".06" stroke-linecap="square" stroke-linejoin="bevel" stroke="#000" stroke-miterlimit="10"/><path d="M295.781 205.621l-1.082-1.082h-1.558l-1.082 1.082v1.559l1.082 1.082h1.558l1.082-1.082v-1.559" fill="green"/><path d="M295.781 205.621l-1.082-1.082h-1.558l-1.082 1.082v1.559l1.082 1.082h1.558l1.082-1.082zm0 0" fill="none" stroke-width=".12" stroke-linecap="round" stroke-linejoin="round" stroke="green" stroke-miterlimit="10"/><path d="M292.719 206.398c0-.628.511-1.136 1.14-1.136a1.139 1.139 0 1 1 0 2.277 1.14 1.14 0 0 1-1.14-1.14" fill-rule="evenodd" fill="#fff"/><path d="M292.719 206.398c0-.628.511-1.136 1.14-1.136a1.139 1.139 0 1 1 0 2.277 1.14 1.14 0 0 1-1.14-1.14zm0 0" fill="none" stroke-width=".06" stroke-linecap="square" stroke-linejoin="bevel" stroke="#000" stroke-miterlimit="10"/><path d="M295.781 191.281L294.7 190.2h-1.558l-1.082 1.082v1.559l1.082 1.082h1.558l1.082-1.082v-1.559" fill="green"/><path d="M295.781 191.281L294.7 190.2h-1.558l-1.082 1.082v1.559l1.082 1.082h1.558l1.082-1.082zm0 0" fill="none" stroke-width=".12" stroke-linecap="round" stroke-linejoin="round" stroke="green" stroke-miterlimit="10"/><path d="M292.719 192.059c0-.63.511-1.137 1.14-1.137a1.139 1.139 0 1 1 0 2.277c-.629 0-1.14-.512-1.14-1.14" fill-rule="evenodd" fill="#fff"/><path d="M292.719 192.059c0-.63.511-1.137 1.14-1.137a1.139 1.139 0 1 1 0 2.277c-.629 0-1.14-.511-1.14-1.14zm0 0" fill="none" stroke-width=".06" stroke-linecap="square" stroke-linejoin="bevel" stroke="#000" stroke-miterlimit="10"/><path d="M295.781 198.48l-1.082-1.082h-1.558l-1.082 1.082v1.56l1.082 1.081h1.558l1.082-1.082v-1.559" fill="green"/><path d="M295.781 198.48l-1.082-1.082h-1.558l-1.082 1.082v1.56l1.082 1.081h1.558l1.082-1.082zm0 0" fill="none" stroke-width=".12" stroke-linecap="round" stroke-linejoin="round" stroke="green" stroke-miterlimit="10"/><path d="M292.719 199.262a1.14 1.14 0 1 1 2.279-.003 1.14 1.14 0 0 1-2.28.003" fill-rule="evenodd" fill="#fff"/><path d="M292.719 199.262a1.14 1.14 0 1 1 2.279-.003 1.14 1.14 0 0 1-2.28.003zm0 0" fill="none" stroke-width=".06" stroke-linecap="square" stroke-linejoin="bevel" stroke="#000" stroke-miterlimit="10"/><path d="M291.82 228c0-1.129.914-2.04 2.04-2.04 1.128 0 2.038.911 2.038 2.04s-.91 2.04-2.039 2.04c-1.125 0-2.039-.911-2.039-2.04" fill-rule="evenodd" fill="green"/><path d="M291.82 228c0-1.129.914-2.04 2.04-2.04 1.128 0 2.038.911 2.038 2.04s-.91 2.04-2.039 2.04c-1.125 0-2.039-.911-2.039-2.04zm0 0" fill="none" stroke-width=".12" stroke-linecap="round" stroke-linejoin="round" stroke="green" stroke-miterlimit="10"/><path d="M292.84 228a1.02 1.02 0 1 1 2.04.001 1.02 1.02 0 0 1-2.04-.001" fill-rule="evenodd" fill="#fff"/><path d="M292.84 228a1.02 1.02 0 1 1 2.04.001 1.02 1.02 0 0 1-2.04-.001zm0 0" fill="none" stroke-width=".06" stroke-linecap="square" stroke-linejoin="bevel" stroke="#000" stroke-miterlimit="10"/><path d="M291.82 213.602a2.039 2.039 0 1 1 4.078 0 2.038 2.038 0 1 1-4.078 0" fill-rule="evenodd" fill="green"/><path d="M291.82 213.602a2.039 2.039 0 1 1 4.078 0 2.038 2.038 0 1 1-4.078 0zm0 0" fill="none" stroke-width=".12" stroke-linecap="round" stroke-linejoin="round" stroke="green" stroke-miterlimit="10"/><path d="M292.84 213.602c0-.567.457-1.024 1.02-1.024a1.021 1.021 0 0 1 0 2.043 1.02 1.02 0 0 1-1.02-1.02" fill-rule="evenodd" fill="#fff"/><path d="M292.84 213.602c0-.567.457-1.024 1.02-1.024a1.021 1.021 0 0 1 0 2.043 1.02 1.02 0 0 1-1.02-1.02zm0 0" fill="none" stroke-width=".06" stroke-linecap="square" stroke-linejoin="bevel" stroke="#000" stroke-miterlimit="10"/><path d="M291.82 220.8c0-1.128.914-2.038 2.04-2.038 1.128 0 2.038.91 2.038 2.039a2.038 2.038 0 1 1-4.078 0" fill-rule="evenodd" fill="green"/><path d="M291.82 220.8c0-1.128.914-2.038 2.04-2.038 1.128 0 2.038.91 2.038 2.039a2.038 2.038 0 1 1-4.078 0zm0 0" fill="none" stroke-width=".12" stroke-linecap="round" stroke-linejoin="round" stroke="green" stroke-miterlimit="10"/><path d="M292.84 220.8a1.02 1.02 0 1 1 2.04.002 1.02 1.02 0 0 1-2.04-.001" fill-rule="evenodd" fill="#fff"/><path d="M292.84 220.8a1.02 1.02 0 1 1 2.04.002 1.02 1.02 0 0 1-2.04-.001zm0 0" fill="none" stroke-width=".06" stroke-linecap="square" stroke-linejoin="bevel" stroke="#000" stroke-miterlimit="10"/><path d="M284.8 228a1.859 1.859 0 1 1 3.718-.001 1.859 1.859 0 0 1-3.717.001" fill-rule="evenodd" fill="green"/><path d="M284.8 228a1.859 1.859 0 1 1 3.718-.001 1.859 1.859 0 0 1-3.717.001zm0 0" fill="none" stroke-width=".12" stroke-linecap="round" stroke-linejoin="round" stroke="green" stroke-miterlimit="10"/><path d="M285.52 228c0-.629.511-1.14 1.14-1.14.63 0 1.14.511 1.14 1.14 0 .629-.51 1.14-1.14 1.14-.629 0-1.14-.511-1.14-1.14" fill-rule="evenodd" fill="#fff"/><path d="M285.52 228c0-.629.511-1.14 1.14-1.14.63 0 1.14.511 1.14 1.14 0 .629-.51 1.14-1.14 1.14-.629 0-1.14-.511-1.14-1.14zm0 0" fill="none" stroke-width=".06" stroke-linecap="square" stroke-linejoin="bevel" stroke="#000" stroke-miterlimit="10"/><path d="M284.8 213.602c0-1.028.833-1.864 1.86-1.864a1.862 1.862 0 0 1 0 3.723 1.859 1.859 0 0 1-1.86-1.86" fill-rule="evenodd" fill="green"/><path d="M284.8 213.602c0-1.028.833-1.864 1.86-1.864a1.862 1.862 0 0 1 0 3.723 1.859 1.859 0 0 1-1.86-1.86zm0 0" fill="none" stroke-width=".12" stroke-linecap="round" stroke-linejoin="round" stroke="green" stroke-miterlimit="10"/><path d="M285.52 213.602a1.14 1.14 0 1 1 2.278-.003 1.14 1.14 0 0 1-2.278.003" fill-rule="evenodd" fill="#fff"/><path d="M285.52 213.602a1.14 1.14 0 1 1 2.278-.003 1.14 1.14 0 0 1-2.278.003zm0 0" fill="none" stroke-width=".06" stroke-linecap="square" stroke-linejoin="bevel" stroke="#000" stroke-miterlimit="10"/><path d="M277.602 213.602c0-1.028.832-1.864 1.859-1.864a1.862 1.862 0 0 1 0 3.723 1.859 1.859 0 0 1-1.86-1.86" fill-rule="evenodd" fill="green"/><path d="M277.602 213.602c0-1.028.832-1.864 1.859-1.864a1.862 1.862 0 0 1 0 3.723 1.859 1.859 0 0 1-1.86-1.86zm0 0" fill="none" stroke-width=".12" stroke-linecap="round" stroke-linejoin="round" stroke="green" stroke-miterlimit="10"/><path d="M278.32 213.602a1.14 1.14 0 1 1 1.14 1.137c-.632 0-1.14-.509-1.14-1.137" fill-rule="evenodd" fill="#fff"/><path d="M278.32 213.602a1.14 1.14 0 1 1 1.14 1.137c-.632 0-1.14-.509-1.14-1.137zm0 0" fill="none" stroke-width=".06" stroke-linecap="square" stroke-linejoin="bevel" stroke="#000" stroke-miterlimit="10"/><path d="M277.602 228a1.859 1.859 0 1 1 3.717-.001 1.859 1.859 0 0 1-3.717.001" fill-rule="evenodd" fill="green"/><path d="M277.602 228a1.859 1.859 0 1 1 3.717-.001 1.859 1.859 0 0 1-3.717.001zm0 0" fill="none" stroke-width=".12" stroke-linecap="round" stroke-linejoin="round" stroke="green" stroke-miterlimit="10"/><path d="M278.32 228a1.14 1.14 0 1 1 2.282 0c0 .629-.512 1.14-1.141 1.14a1.14 1.14 0 0 1-1.14-1.14" fill-rule="evenodd" fill="#fff"/><path d="M278.32 228a1.14 1.14 0 1 1 2.282 0c0 .629-.512 1.14-1.141 1.14a1.14 1.14 0 0 1-1.14-1.14zm0 0" fill="none" stroke-width=".06" stroke-linecap="square" stroke-linejoin="bevel" stroke="#000" stroke-miterlimit="10"/><path d="M309.762 212.16h-2.883v2.88h2.883zm0 0" fill="green" stroke-width=".12" stroke-linecap="round" stroke-linejoin="round" stroke="green" stroke-miterlimit="10"/><path d="M307.422 213.602a.841.841 0 0 1 1.68 0c0 .46-.38.84-.84.84a.841.841 0 0 1-.84-.84" fill-rule="evenodd" fill="#fff"/><path d="M307.422 213.602a.841.841 0 0 1 1.68 0c0 .46-.38.84-.84.84a.841.841 0 0 1-.84-.84zm0 0" fill="none" stroke-width=".06" stroke-linecap="square" stroke-linejoin="bevel" stroke="#000" stroke-miterlimit="10"/><path d="M324.16 212.16h-2.879v2.88h2.88zm0 0" fill="green" stroke-width=".12" stroke-linecap="round" stroke-linejoin="round" stroke="green" stroke-miterlimit="10"/><path d="M321.82 213.602c0-.465.375-.84.84-.84a.841.841 0 1 1-.84.84" fill-rule="evenodd" fill="#fff"/><path d="M321.82 213.602c0-.465.375-.84.84-.84a.841.841 0 1 1-.84.84zm0 0" fill="none" stroke-width=".06" stroke-linecap="square" stroke-linejoin="bevel" stroke="#000" stroke-miterlimit="10"/><path d="M293.922 220.8h-7.203M286.719 220.8v-7.198M301.121 220.8h-7.2M293.922 199.262H279.52M279.52 199.262v14.34M301.121 206.398h-7.2M293.922 213.602v-7.204M293.922 206.398h-7.203M257.98 220.8h14.399M272.379 220.8v7.2M272.379 213.602v-14.34M265.18 213.602h-7.2M272.379 206.398v7.204M272.379 199.262v7.136M250.781 220.8V192.06M250.781 192.059h7.2M257.98 192.059h35.942M293.922 192.059h28.797M265.18 199.262h-7.2M257.98 199.262v7.136M257.98 206.398v-14.34M344.32 192.059H322.72M308.32 206.398v7.204M329.922 220.8v7.2M344.32 220.8h-14.398M322.719 213.602v7.199M322.719 220.8h7.203M315.52 228H301.12M293.922 228h7.2M337.121 206.398v-7.136M337.121 199.262H322.72M322.719 199.262h-7.2M315.52 199.262V228M337.121 206.398v7.204M337.121 213.602h7.2M344.32 199.262v7.136M250.781 228h14.399M279.52 228h7.199" fill="none" stroke-width="3.6" stroke-linecap="round" stroke-linejoin="round" stroke="navy" stroke-miterlimit="10"/><path d="M341.738 192.059a2.521 2.521 0 0 1 5.043 0 2.518 2.518 0 0 1-2.52 2.52 2.519 2.519 0 0 1-2.523-2.52" fill-rule="evenodd" fill="green"/><path d="M341.738 192.059a2.521 2.521 0 0 1 5.043 0 2.518 2.518 0 0 1-2.52 2.52 2.519 2.519 0 0 1-2.523-2.52zm0 0" fill="none" stroke-width=".12" stroke-linecap="round" stroke-linejoin="round" stroke="green" stroke-miterlimit="10"/><path d="M342.82 192.059a1.44 1.44 0 1 1 2.88.004 1.44 1.44 0 0 1-2.88-.004" fill-rule="evenodd" fill="#fff"/><path d="M342.82 192.059a1.44 1.44 0 1 1 2.88.004 1.44 1.44 0 0 1-2.88-.004zm0 0" fill="none" stroke-width=".06" stroke-linecap="square" stroke-linejoin="bevel" stroke="#000" stroke-miterlimit="10"/><path d="M341.738 199.262a2.522 2.522 0 1 1 5.045-.003 2.522 2.522 0 0 1-5.045.003" fill-rule="evenodd" fill="green"/><path d="M341.738 199.262a2.522 2.522 0 1 1 5.045-.003 2.522 2.522 0 0 1-5.045.003zm0 0" fill="none" stroke-width=".12" stroke-linecap="round" stroke-linejoin="round" stroke="green" stroke-miterlimit="10"/><path d="M342.82 199.262a1.44 1.44 0 1 1 2.881-.002 1.44 1.44 0 0 1-2.88.002" fill-rule="evenodd" fill="#fff"/><path d="M342.82 199.262a1.44 1.44 0 1 1 2.881-.002 1.44 1.44 0 0 1-2.88.002zm0 0" fill="none" stroke-width=".06" stroke-linecap="square" stroke-linejoin="bevel" stroke="#000" stroke-miterlimit="10"/><path d="M262.84 228a2.281 2.281 0 0 1 2.281-2.281 2.28 2.28 0 0 1 0 4.562A2.281 2.281 0 0 1 262.84 228" fill-rule="evenodd" fill="green"/><path d="M262.84 228a2.281 2.281 0 0 1 2.281-2.281 2.28 2.28 0 0 1 0 4.562A2.281 2.281 0 0 1 262.84 228zm0 0" fill="none" stroke-width=".12" stroke-linecap="round" stroke-linejoin="round" stroke="green" stroke-miterlimit="10"/><path d="M263.98 228a1.14 1.14 0 1 1 2.282 0 1.14 1.14 0 1 1-2.281 0" fill-rule="evenodd" fill="#fff"/><path d="M263.98 228a1.14 1.14 0 1 1 2.282 0 1.14 1.14 0 1 1-2.281 0zm0 0" fill="none" stroke-width=".06" stroke-linecap="square" stroke-linejoin="bevel" stroke="#000" stroke-miterlimit="10"/><path d="M274.66 225.719h-4.558v4.562h4.558zm0 0" fill="green" stroke-width=".12" stroke-linecap="round" stroke-linejoin="round" stroke="green" stroke-miterlimit="10"/><path d="M271.18 228c0-.629.511-1.14 1.14-1.14.63 0 1.14.511 1.14 1.14 0 .629-.51 1.14-1.14 1.14-.629 0-1.14-.511-1.14-1.14" fill-rule="evenodd" fill="#fff"/><path d="M271.18 228c0-.629.511-1.14 1.14-1.14.63 0 1.14.511 1.14 1.14 0 .629-.51 1.14-1.14 1.14-.629 0-1.14-.511-1.14-1.14zm0 0" fill="none" stroke-width=".06" stroke-linecap="square" stroke-linejoin="bevel" stroke="#000" stroke-miterlimit="10"/><path d="M262.84 213.602a2.279 2.279 0 1 1 4.558-.005 2.279 2.279 0 0 1-4.558.005" fill-rule="evenodd" fill="green"/><path d="M262.84 213.602a2.279 2.279 0 1 1 4.558-.005 2.279 2.279 0 0 1-4.558.005zm0 0" fill="none" stroke-width=".12" stroke-linecap="round" stroke-linejoin="round" stroke="green" stroke-miterlimit="10"/><path d="M263.98 213.602c0-.633.508-1.141 1.141-1.141a1.14 1.14 0 1 1 0 2.277c-.633 0-1.14-.508-1.14-1.136" fill-rule="evenodd" fill="#fff"/><path d="M263.98 213.602c0-.633.508-1.141 1.141-1.141a1.14 1.14 0 1 1 0 2.277c-.633 0-1.14-.508-1.14-1.136zm0 0" fill="none" stroke-width=".06" stroke-linecap="square" stroke-linejoin="bevel" stroke="#000" stroke-miterlimit="10"/><path d="M274.66 211.32h-4.558v4.559h4.558zm0 0" fill="green" stroke-width=".12" stroke-linecap="round" stroke-linejoin="round" stroke="green" stroke-miterlimit="10"/><path d="M271.18 213.602a1.14 1.14 0 1 1 2.279-.003 1.14 1.14 0 0 1-2.28.003" fill-rule="evenodd" fill="#fff"/><path d="M271.18 213.602a1.14 1.14 0 1 1 2.279-.003 1.14 1.14 0 0 1-2.28.003zm0 0" fill="none" stroke-width=".06" stroke-linecap="square" stroke-linejoin="bevel" stroke="#000" stroke-miterlimit="10"/><path d="M320.379 192.059a2.28 2.28 0 0 1 4.562 0 2.281 2.281 0 0 1-4.562 0" fill-rule="evenodd" fill="green"/><path d="M320.379 192.059a2.28 2.28 0 0 1 4.562 0 2.281 2.281 0 0 1-4.562 0zm0 0" fill="none" stroke-width=".12" stroke-linecap="round" stroke-linejoin="round" stroke="green" stroke-miterlimit="10"/><path d="M321.52 192.059c0-.63.511-1.137 1.14-1.137a1.139 1.139 0 1 1 0 2.277c-.629 0-1.14-.512-1.14-1.14" fill-rule="evenodd" fill="#fff"/><path d="M321.52 192.059c0-.63.511-1.137 1.14-1.137a1.139 1.139 0 1 1 0 2.277c-.629 0-1.14-.511-1.14-1.14zm0 0" fill="none" stroke-width=".06" stroke-linecap="square" stroke-linejoin="bevel" stroke="#000" stroke-miterlimit="10"/><path d="M325 196.98h-4.559v4.56H325zm0 0" fill="green" stroke-width=".12" stroke-linecap="round" stroke-linejoin="round" stroke="green" stroke-miterlimit="10"/><path d="M321.52 199.262a1.14 1.14 0 1 1 2.278-.003 1.14 1.14 0 0 1-2.278.003" fill-rule="evenodd" fill="#fff"/><path d="M321.52 199.262a1.14 1.14 0 1 1 2.278-.003 1.14 1.14 0 0 1-2.278.003zm0 0" fill="none" stroke-width=".06" stroke-linecap="square" stroke-linejoin="bevel" stroke="#000" stroke-miterlimit="10"/><path d="M299.32 206.398c0-.925.778-1.68 1.739-1.68.96 0 1.742.755 1.742 1.68 0 .93-.781 1.68-1.742 1.68s-1.739-.75-1.739-1.68" fill-rule="evenodd" fill="green"/><path d="M299.32 206.398c0-.925.778-1.68 1.739-1.68.96 0 1.742.755 1.742 1.68 0 .93-.781 1.68-1.742 1.68s-1.739-.75-1.739-1.68zm0 0" fill="none" stroke-width=".12" stroke-linecap="round" stroke-linejoin="round" stroke="green" stroke-miterlimit="10"/><path d="M300.04 206.398a1.02 1.02 0 1 1 1.019 1.024c-.563 0-1.02-.457-1.02-1.024" fill-rule="evenodd" fill="#fff"/><path d="M300.04 206.398a1.02 1.02 0 1 1 1.019 1.024c-.563 0-1.02-.457-1.02-1.024zm0 0" fill="none" stroke-width=".06" stroke-linecap="square" stroke-linejoin="bevel" stroke="#000" stroke-miterlimit="10"/><path d="M310.059 204.719h-3.48v3.363h3.48zm0 0" fill="green" stroke-width=".12" stroke-linecap="round" stroke-linejoin="round" stroke="green" stroke-miterlimit="10"/><path d="M307.238 206.398a1.021 1.021 0 1 1 2.042.004 1.021 1.021 0 0 1-2.042-.004" fill-rule="evenodd" fill="#fff"/><path d="M307.238 206.398a1.021 1.021 0 1 1 2.042.004 1.021 1.021 0 0 1-2.042-.004zm0 0" fill="none" stroke-width=".06" stroke-linecap="square" stroke-linejoin="bevel" stroke="#000" stroke-miterlimit="10"/><path d="M341.738 220.8a2.519 2.519 0 0 1 2.524-2.519 2.52 2.52 0 1 1-2.523 2.52" fill-rule="evenodd" fill="green"/><path d="M341.738 220.8a2.519 2.519 0 0 1 2.524-2.519 2.52 2.52 0 1 1-2.523 2.52zm0 0" fill="none" stroke-width=".12" stroke-linecap="round" stroke-linejoin="round" stroke="green" stroke-miterlimit="10"/><path d="M342.82 220.8a1.44 1.44 0 1 1 2.881-.001 1.44 1.44 0 0 1-2.88.002" fill-rule="evenodd" fill="#fff"/><path d="M342.82 220.8a1.44 1.44 0 1 1 2.881-.001 1.44 1.44 0 0 1-2.88.002zm0 0" fill="none" stroke-width=".06" stroke-linecap="square" stroke-linejoin="bevel" stroke="#000" stroke-miterlimit="10"/><path d="M341.738 213.602a2.522 2.522 0 1 1 5.045-.003 2.522 2.522 0 0 1-5.045.003" fill-rule="evenodd" fill="green"/><path d="M341.738 213.602a2.522 2.522 0 1 1 5.045-.003 2.522 2.522 0 0 1-5.045.003zm0 0" fill="none" stroke-width=".12" stroke-linecap="round" stroke-linejoin="round" stroke="green" stroke-miterlimit="10"/><path d="M342.82 213.602a1.44 1.44 0 1 1 2.881-.003 1.44 1.44 0 0 1-2.88.003" fill-rule="evenodd" fill="#fff"/><path d="M342.82 213.602a1.44 1.44 0 1 1 2.881-.003 1.44 1.44 0 0 1-2.88.003zm0 0" fill="none" stroke-width=".06" stroke-linecap="square" stroke-linejoin="bevel" stroke="#000" stroke-miterlimit="10"/><path d="M248.2 220.8a2.518 2.518 0 0 1 2.519-2.519 2.516 2.516 0 0 1 2.52 2.52 2.52 2.52 0 0 1-5.04 0" fill-rule="evenodd" fill="green"/><path d="M248.2 220.8a2.518 2.518 0 0 1 2.519-2.519 2.516 2.516 0 0 1 2.52 2.52 2.52 2.52 0 0 1-5.04 0zm0 0" fill="none" stroke-width=".12" stroke-linecap="round" stroke-linejoin="round" stroke="green" stroke-miterlimit="10"/><path d="M249.281 220.8a1.44 1.44 0 1 1 2.88-.003 1.44 1.44 0 0 1-2.88.004" fill-rule="evenodd" fill="#fff"/><path d="M249.281 220.8a1.44 1.44 0 1 1 2.88-.003 1.44 1.44 0 0 1-2.88.004zm0 0" fill="none" stroke-width=".06" stroke-linecap="square" stroke-linejoin="bevel" stroke="#000" stroke-miterlimit="10"/><path d="M248.2 228a2.52 2.52 0 1 1 5.04.002 2.52 2.52 0 0 1-5.04-.002" fill-rule="evenodd" fill="green"/><path d="M248.2 228a2.52 2.52 0 1 1 5.04.002 2.52 2.52 0 0 1-5.04-.002zm0 0" fill="none" stroke-width=".12" stroke-linecap="round" stroke-linejoin="round" stroke="green" stroke-miterlimit="10"/><path d="M249.281 228a1.44 1.44 0 1 1 2.88 0 1.44 1.44 0 1 1-2.88 0" fill-rule="evenodd" fill="#fff"/><path d="M249.281 228a1.44 1.44 0 1 1 2.88 0 1.44 1.44 0 1 1-2.88 0zm0 0" fill="none" stroke-width=".06" stroke-linecap="square" stroke-linejoin="bevel" stroke="#000" stroke-miterlimit="10"/><path d="M270.46 206.398a1.859 1.859 0 1 1 3.72 0 1.862 1.862 0 0 1-1.86 1.864 1.862 1.862 0 0 1-1.86-1.864" fill-rule="evenodd" fill="green"/><path d="M270.46 206.398a1.859 1.859 0 1 1 3.72 0 1.862 1.862 0 0 1-1.86 1.864 1.862 1.862 0 0 1-1.86-1.864zm0 0" fill="none" stroke-width=".12" stroke-linecap="round" stroke-linejoin="round" stroke="green" stroke-miterlimit="10"/><path d="M271.18 206.398c0-.628.511-1.136 1.14-1.136a1.139 1.139 0 1 1 0 2.277 1.14 1.14 0 0 1-1.14-1.14" fill-rule="evenodd" fill="#fff"/><path d="M271.18 206.398c0-.628.511-1.136 1.14-1.136a1.139 1.139 0 1 1 0 2.277 1.14 1.14 0 0 1-1.14-1.14zm0 0" fill="none" stroke-width=".06" stroke-linecap="square" stroke-linejoin="bevel" stroke="#000" stroke-miterlimit="10"/><path d="M284.8 206.398a1.859 1.859 0 1 1 3.72 0 1.862 1.862 0 0 1-1.86 1.864 1.862 1.862 0 0 1-1.86-1.864" fill-rule="evenodd" fill="green"/><path d="M284.8 206.398a1.859 1.859 0 1 1 3.72 0 1.862 1.862 0 0 1-1.86 1.864 1.862 1.862 0 0 1-1.86-1.864zm0 0" fill="none" stroke-width=".12" stroke-linecap="round" stroke-linejoin="round" stroke="green" stroke-miterlimit="10"/><path d="M285.52 206.398c0-.628.511-1.136 1.14-1.136a1.139 1.139 0 1 1 0 2.277 1.14 1.14 0 0 1-1.14-1.14" fill-rule="evenodd" fill="#fff"/><path d="M285.52 206.398c0-.628.511-1.136 1.14-1.136a1.139 1.139 0 1 1 0 2.277 1.14 1.14 0 0 1-1.14-1.14zm0 0" fill="none" stroke-width=".06" stroke-linecap="square" stroke-linejoin="bevel" stroke="#000" stroke-miterlimit="10"/><path d="M299.2 220.8a1.862 1.862 0 0 1 3.723 0 1.862 1.862 0 0 1-3.724 0" fill-rule="evenodd" fill="green"/><path d="M299.2 220.8a1.862 1.862 0 0 1 3.723 0 1.862 1.862 0 0 1-3.724 0zm0 0" fill="none" stroke-width=".12" stroke-linecap="round" stroke-linejoin="round" stroke="green" stroke-miterlimit="10"/><path d="M299.922 220.8a1.139 1.139 0 1 1 2.277 0 1.139 1.139 0 0 1-2.277 0" fill-rule="evenodd" fill="#fff"/><path d="M299.922 220.8a1.139 1.139 0 1 1 2.277 0 1.139 1.139 0 0 1-2.277 0zm0 0" fill="none" stroke-width=".06" stroke-linecap="square" stroke-linejoin="bevel" stroke="#000" stroke-miterlimit="10"/><path d="M328 220.8a1.859 1.859 0 1 1 3.718 0 1.859 1.859 0 0 1-3.718 0" fill-rule="evenodd" fill="green"/><path d="M328 220.8a1.859 1.859 0 1 1 3.718 0 1.859 1.859 0 0 1-3.718 0zm0 0" fill="none" stroke-width=".12" stroke-linecap="round" stroke-linejoin="round" stroke="green" stroke-miterlimit="10"/><path d="M328.719 220.8c0-.628.511-1.14 1.14-1.14.63 0 1.141.512 1.141 1.14 0 .63-.512 1.141-1.14 1.141-.63 0-1.141-.511-1.141-1.14" fill-rule="evenodd" fill="#fff"/><path d="M328.719 220.8c0-.628.511-1.14 1.14-1.14.63 0 1.141.512 1.141 1.14 0 .63-.512 1.141-1.14 1.141-.63 0-1.141-.511-1.141-1.14zm0 0" fill="none" stroke-width=".06" stroke-linecap="square" stroke-linejoin="bevel" stroke="#000" stroke-miterlimit="10"/><path d="M299.2 228a1.862 1.862 0 0 1 3.723 0 1.862 1.862 0 0 1-3.724 0" fill-rule="evenodd" fill="green"/><path d="M299.2 228a1.862 1.862 0 0 1 3.723 0 1.862 1.862 0 0 1-3.724 0zm0 0" fill="none" stroke-width=".12" stroke-linecap="round" stroke-linejoin="round" stroke="green" stroke-miterlimit="10"/><path d="M299.922 228a1.139 1.139 0 1 1 2.277 0 1.139 1.139 0 0 1-2.277 0" fill-rule="evenodd" fill="#fff"/><path d="M299.922 228a1.139 1.139 0 1 1 2.277 0 1.139 1.139 0 0 1-2.277 0zm0 0" fill="none" stroke-width=".06" stroke-linecap="square" stroke-linejoin="bevel" stroke="#000" stroke-miterlimit="10"/><path d="M328 228a1.859 1.859 0 1 1 3.718-.001A1.859 1.859 0 0 1 328 228" fill-rule="evenodd" fill="green"/><path d="M328 228a1.859 1.859 0 1 1 3.718-.001A1.859 1.859 0 0 1 328 228zm0 0" fill="none" stroke-width=".12" stroke-linecap="round" stroke-linejoin="round" stroke="green" stroke-miterlimit="10"/><path d="M328.719 228c0-.629.511-1.14 1.14-1.14.63 0 1.141.511 1.141 1.14 0 .629-.512 1.14-1.14 1.14-.63 0-1.141-.511-1.141-1.14" fill-rule="evenodd" fill="#fff"/><path d="M328.719 228c0-.629.511-1.14 1.14-1.14.63 0 1.141.511 1.141 1.14 0 .629-.512 1.14-1.14 1.14-.63 0-1.141-.511-1.141-1.14zm0 0" fill="none" stroke-width=".06" stroke-linecap="square" stroke-linejoin="bevel" stroke="#000" stroke-miterlimit="10"/><path d="M335.2 206.398a1.862 1.862 0 0 1 3.723 0 1.865 1.865 0 0 1-1.864 1.864 1.862 1.862 0 0 1-1.86-1.864" fill-rule="evenodd" fill="green"/><path d="M335.2 206.398a1.862 1.862 0 0 1 3.723 0 1.865 1.865 0 0 1-1.864 1.864 1.862 1.862 0 0 1-1.86-1.864zm0 0" fill="none" stroke-width=".12" stroke-linecap="round" stroke-linejoin="round" stroke="green" stroke-miterlimit="10"/><path d="M335.922 206.398a1.139 1.139 0 1 1 1.137 1.14 1.136 1.136 0 0 1-1.137-1.14" fill-rule="evenodd" fill="#fff"/><path d="M335.922 206.398a1.139 1.139 0 1 1 1.137 1.14 1.136 1.136 0 0 1-1.137-1.14zm0 0" fill="none" stroke-width=".06" stroke-linecap="square" stroke-linejoin="bevel" stroke="#000" stroke-miterlimit="10"/><path d="M342.398 206.398a1.862 1.862 0 0 1 3.723 0 1.865 1.865 0 0 1-1.86 1.864 1.865 1.865 0 0 1-1.863-1.864" fill-rule="evenodd" fill="green"/><path d="M342.398 206.398a1.862 1.862 0 0 1 3.723 0 1.865 1.865 0 0 1-1.86 1.864 1.865 1.865 0 0 1-1.863-1.864zm0 0" fill="none" stroke-width=".12" stroke-linecap="round" stroke-linejoin="round" stroke="green" stroke-miterlimit="10"/><path d="M343.121 206.398c0-.628.508-1.136 1.14-1.136.63 0 1.137.508 1.137 1.136 0 .633-.507 1.141-1.136 1.141-.633 0-1.14-.508-1.14-1.14" fill-rule="evenodd" fill="#fff"/><path d="M343.121 206.398c0-.628.508-1.136 1.14-1.136.63 0 1.137.508 1.137 1.136 0 .633-.507 1.141-1.136 1.141-.633 0-1.14-.508-1.14-1.14zm0 0" fill="none" stroke-width=".06" stroke-linecap="square" stroke-linejoin="bevel" stroke="#000" stroke-miterlimit="10"/><path d="M260.5 219.781l-1.5-1.5h-2.04l-1.5 1.5v2.04l1.5 1.5H259l1.5-1.5v-2.04" fill="green"/><path d="M260.5 219.781l-1.5-1.5h-2.04l-1.5 1.5v2.04l1.5 1.5H259l1.5-1.5zm0 0" fill="none" stroke-width=".12" stroke-linecap="round" stroke-linejoin="round" stroke="green" stroke-miterlimit="10"/><path d="M256.66 220.8a1.26 1.26 0 1 1 0 0" fill-rule="evenodd" fill="#fff"/><path d="M256.66 220.8a1.26 1.26 0 1 1 0 0zm0 0" fill="none" stroke-width=".06" stroke-linecap="square" stroke-linejoin="bevel" stroke="#000" stroke-miterlimit="10"/><path d="M260.5 212.578l-1.5-1.5h-2.04l-1.5 1.5v2.043l1.5 1.5H259l1.5-1.5v-2.043" fill="green"/><path d="M260.5 212.578l-1.5-1.5h-2.04l-1.5 1.5v2.043l1.5 1.5H259l1.5-1.5zm0 0" fill="none" stroke-width=".12" stroke-linecap="round" stroke-linejoin="round" stroke="green" stroke-miterlimit="10"/><path d="M256.66 213.602a1.259 1.259 0 1 1 2.52 0c0 .695-.563 1.257-1.258 1.257-.7 0-1.262-.562-1.262-1.257" fill-rule="evenodd" fill="#fff"/><path d="M256.66 213.602a1.259 1.259 0 1 1 2.52 0c0 .695-.563 1.257-1.258 1.257-.7 0-1.262-.562-1.262-1.257zm0 0" fill="none" stroke-width=".06" stroke-linecap="square" stroke-linejoin="bevel" stroke="#000" stroke-miterlimit="10"/><path d="M260.5 203.879h-5.04v5.039h5.04zm0 0" fill="green" stroke-width=".12" stroke-linecap="round" stroke-linejoin="round" stroke="green" stroke-miterlimit="10"/><path d="M256.66 206.398c0-.695.563-1.257 1.262-1.257.695 0 1.258.562 1.258 1.257a1.259 1.259 0 1 1-2.52 0" fill-rule="evenodd" fill="#fff"/><path d="M256.66 206.398c0-.695.563-1.257 1.262-1.257.695 0 1.258.562 1.258 1.257a1.259 1.259 0 1 1-2.52 0zm0 0" fill="none" stroke-width=".06" stroke-linecap="square" stroke-linejoin="bevel" stroke="#000" stroke-miterlimit="10"/><path d="M277.422 199.262a2.039 2.039 0 1 1 4.078 0 2.038 2.038 0 1 1-4.078 0" fill-rule="evenodd" fill="green"/><path d="M277.422 199.262a2.039 2.039 0 1 1 4.078 0 2.038 2.038 0 1 1-4.078 0zm0 0" fill="none" stroke-width=".12" stroke-linecap="round" stroke-linejoin="round" stroke="green" stroke-miterlimit="10"/><path d="M278.441 199.262c0-.567.457-1.024 1.02-1.024a1.021 1.021 0 0 1 0 2.043 1.02 1.02 0 0 1-1.02-1.02" fill-rule="evenodd" fill="#fff"/><path d="M278.441 199.262c0-.567.457-1.024 1.02-1.024a1.021 1.021 0 0 1 0 2.043 1.02 1.02 0 0 1-1.02-1.02zm0 0" fill="none" stroke-width=".06" stroke-linecap="square" stroke-linejoin="bevel" stroke="#000" stroke-miterlimit="10"/><path d="M263.078 199.262a2.042 2.042 0 1 1 4.082 0 2.04 2.04 0 0 1-4.082 0" fill-rule="evenodd" fill="green"/><path d="M263.078 199.262a2.042 2.042 0 1 1 4.082 0 2.04 2.04 0 0 1-4.082 0zm0 0" fill="none" stroke-width=".12" stroke-linecap="round" stroke-linejoin="round" stroke="green" stroke-miterlimit="10"/><path d="M264.102 199.262c0-.567.457-1.024 1.02-1.024a1.021 1.021 0 0 1 0 2.043 1.02 1.02 0 0 1-1.02-1.02" fill-rule="evenodd" fill="#fff"/><path d="M264.102 199.262c0-.567.457-1.024 1.02-1.024a1.021 1.021 0 0 1 0 2.043 1.02 1.02 0 0 1-1.02-1.02zm0 0" fill="none" stroke-width=".06" stroke-linecap="square" stroke-linejoin="bevel" stroke="#000" stroke-miterlimit="10"/><path d="M270.281 199.262a2.039 2.039 0 1 1 4.078 0 2.038 2.038 0 1 1-4.078 0" fill-rule="evenodd" fill="green"/><path d="M270.281 199.262a2.039 2.039 0 1 1 4.078 0 2.038 2.038 0 1 1-4.078 0zm0 0" fill="none" stroke-width=".12" stroke-linecap="round" stroke-linejoin="round" stroke="green" stroke-miterlimit="10"/><path d="M271.3 199.262c0-.567.458-1.024 1.02-1.024a1.021 1.021 0 0 1 0 2.043 1.02 1.02 0 0 1-1.02-1.02" fill-rule="evenodd" fill="#fff"/><path d="M271.3 199.262c0-.567.458-1.024 1.02-1.024a1.021 1.021 0 0 1 0 2.043 1.02 1.02 0 0 1-1.02-1.02zm0 0" fill="none" stroke-width=".06" stroke-linecap="square" stroke-linejoin="bevel" stroke="#000" stroke-miterlimit="10"/><path d="M295.781 205.621l-1.082-1.082h-1.558l-1.082 1.082v1.559l1.082 1.082h1.558l1.082-1.082v-1.559" fill="green"/><path d="M295.781 205.621l-1.082-1.082h-1.558l-1.082 1.082v1.559l1.082 1.082h1.558l1.082-1.082zm0 0" fill="none" stroke-width=".12" stroke-linecap="round" stroke-linejoin="round" stroke="green" stroke-miterlimit="10"/><path d="M292.719 206.398c0-.628.511-1.136 1.14-1.136a1.139 1.139 0 1 1 0 2.277 1.14 1.14 0 0 1-1.14-1.14" fill-rule="evenodd" fill="#fff"/><path d="M292.719 206.398c0-.628.511-1.136 1.14-1.136a1.139 1.139 0 1 1 0 2.277 1.14 1.14 0 0 1-1.14-1.14zm0 0" fill="none" stroke-width=".06" stroke-linecap="square" stroke-linejoin="bevel" stroke="#000" stroke-miterlimit="10"/><path d="M295.781 191.281L294.7 190.2h-1.558l-1.082 1.082v1.559l1.082 1.082h1.558l1.082-1.082v-1.559" fill="green"/><path d="M295.781 191.281L294.7 190.2h-1.558l-1.082 1.082v1.559l1.082 1.082h1.558l1.082-1.082zm0 0" fill="none" stroke-width=".12" stroke-linecap="round" stroke-linejoin="round" stroke="green" stroke-miterlimit="10"/><path d="M292.719 192.059c0-.63.511-1.137 1.14-1.137a1.139 1.139 0 1 1 0 2.277c-.629 0-1.14-.512-1.14-1.14" fill-rule="evenodd" fill="#fff"/><path d="M292.719 192.059c0-.63.511-1.137 1.14-1.137a1.139 1.139 0 1 1 0 2.277c-.629 0-1.14-.511-1.14-1.14zm0 0" fill="none" stroke-width=".06" stroke-linecap="square" stroke-linejoin="bevel" stroke="#000" stroke-miterlimit="10"/><path d="M295.781 198.48l-1.082-1.082h-1.558l-1.082 1.082v1.56l1.082 1.081h1.558l1.082-1.082v-1.559" fill="green"/><path d="M295.781 198.48l-1.082-1.082h-1.558l-1.082 1.082v1.56l1.082 1.081h1.558l1.082-1.082zm0 0" fill="none" stroke-width=".12" stroke-linecap="round" stroke-linejoin="round" stroke="green" stroke-miterlimit="10"/><path d="M292.719 199.262a1.14 1.14 0 1 1 2.279-.003 1.14 1.14 0 0 1-2.28.003" fill-rule="evenodd" fill="#fff"/><path d="M292.719 199.262a1.14 1.14 0 1 1 2.279-.003 1.14 1.14 0 0 1-2.28.003zm0 0" fill="none" stroke-width=".06" stroke-linecap="square" stroke-linejoin="bevel" stroke="#000" stroke-miterlimit="10"/><path d="M291.82 228c0-1.129.914-2.04 2.04-2.04 1.128 0 2.038.911 2.038 2.04s-.91 2.04-2.039 2.04c-1.125 0-2.039-.911-2.039-2.04" fill-rule="evenodd" fill="green"/><path d="M291.82 228c0-1.129.914-2.04 2.04-2.04 1.128 0 2.038.911 2.038 2.04s-.91 2.04-2.039 2.04c-1.125 0-2.039-.911-2.039-2.04zm0 0" fill="none" stroke-width=".12" stroke-linecap="round" stroke-linejoin="round" stroke="green" stroke-miterlimit="10"/><path d="M292.84 228a1.02 1.02 0 1 1 2.04.001 1.02 1.02 0 0 1-2.04-.001" fill-rule="evenodd" fill="#fff"/><path d="M292.84 228a1.02 1.02 0 1 1 2.04.001 1.02 1.02 0 0 1-2.04-.001zm0 0" fill="none" stroke-width=".06" stroke-linecap="square" stroke-linejoin="bevel" stroke="#000" stroke-miterlimit="10"/><path d="M291.82 213.602a2.039 2.039 0 1 1 4.078 0 2.038 2.038 0 1 1-4.078 0" fill-rule="evenodd" fill="green"/><path d="M291.82 213.602a2.039 2.039 0 1 1 4.078 0 2.038 2.038 0 1 1-4.078 0zm0 0" fill="none" stroke-width=".12" stroke-linecap="round" stroke-linejoin="round" stroke="green" stroke-miterlimit="10"/><path d="M292.84 213.602c0-.567.457-1.024 1.02-1.024a1.021 1.021 0 0 1 0 2.043 1.02 1.02 0 0 1-1.02-1.02" fill-rule="evenodd" fill="#fff"/><path d="M292.84 213.602c0-.567.457-1.024 1.02-1.024a1.021 1.021 0 0 1 0 2.043 1.02 1.02 0 0 1-1.02-1.02zm0 0" fill="none" stroke-width=".06" stroke-linecap="square" stroke-linejoin="bevel" stroke="#000" stroke-miterlimit="10"/><path d="M291.82 220.8c0-1.128.914-2.038 2.04-2.038 1.128 0 2.038.91 2.038 2.039a2.038 2.038 0 1 1-4.078 0" fill-rule="evenodd" fill="green"/><path d="M291.82 220.8c0-1.128.914-2.038 2.04-2.038 1.128 0 2.038.91 2.038 2.039a2.038 2.038 0 1 1-4.078 0zm0 0" fill="none" stroke-width=".12" stroke-linecap="round" stroke-linejoin="round" stroke="green" stroke-miterlimit="10"/><path d="M292.84 220.8a1.02 1.02 0 1 1 2.04.002 1.02 1.02 0 0 1-2.04-.001" fill-rule="evenodd" fill="#fff"/><path d="M292.84 220.8a1.02 1.02 0 1 1 2.04.002 1.02 1.02 0 0 1-2.04-.001zm0 0" fill="none" stroke-width=".06" stroke-linecap="square" stroke-linejoin="bevel" stroke="#000" stroke-miterlimit="10"/><path d="M284.8 228a1.859 1.859 0 1 1 3.718-.001 1.859 1.859 0 0 1-3.717.001" fill-rule="evenodd" fill="green"/><path d="M284.8 228a1.859 1.859 0 1 1 3.718-.001 1.859 1.859 0 0 1-3.717.001zm0 0" fill="none" stroke-width=".12" stroke-linecap="round" stroke-linejoin="round" stroke="green" stroke-miterlimit="10"/><path d="M285.52 228c0-.629.511-1.14 1.14-1.14.63 0 1.14.511 1.14 1.14 0 .629-.51 1.14-1.14 1.14-.629 0-1.14-.511-1.14-1.14" fill-rule="evenodd" fill="#fff"/><path d="M285.52 228c0-.629.511-1.14 1.14-1.14.63 0 1.14.511 1.14 1.14 0 .629-.51 1.14-1.14 1.14-.629 0-1.14-.511-1.14-1.14zm0 0" fill="none" stroke-width=".06" stroke-linecap="square" stroke-linejoin="bevel" stroke="#000" stroke-miterlimit="10"/><path d="M284.8 213.602c0-1.028.833-1.864 1.86-1.864a1.862 1.862 0 0 1 0 3.723 1.859 1.859 0 0 1-1.86-1.86" fill-rule="evenodd" fill="green"/><path d="M284.8 213.602c0-1.028.833-1.864 1.86-1.864a1.862 1.862 0 0 1 0 3.723 1.859 1.859 0 0 1-1.86-1.86zm0 0" fill="none" stroke-width=".12" stroke-linecap="round" stroke-linejoin="round" stroke="green" stroke-miterlimit="10"/><path d="M285.52 213.602a1.14 1.14 0 1 1 2.278-.003 1.14 1.14 0 0 1-2.278.003" fill-rule="evenodd" fill="#fff"/><path d="M285.52 213.602a1.14 1.14 0 1 1 2.278-.003 1.14 1.14 0 0 1-2.278.003zm0 0" fill="none" stroke-width=".06" stroke-linecap="square" stroke-linejoin="bevel" stroke="#000" stroke-miterlimit="10"/><path d="M277.602 213.602c0-1.028.832-1.864 1.859-1.864a1.862 1.862 0 0 1 0 3.723 1.859 1.859 0 0 1-1.86-1.86" fill-rule="evenodd" fill="green"/><path d="M277.602 213.602c0-1.028.832-1.864 1.859-1.864a1.862 1.862 0 0 1 0 3.723 1.859 1.859 0 0 1-1.86-1.86zm0 0" fill="none" stroke-width=".12" stroke-linecap="round" stroke-linejoin="round" stroke="green" stroke-miterlimit="10"/><path d="M278.32 213.602a1.14 1.14 0 1 1 1.14 1.137c-.632 0-1.14-.509-1.14-1.137" fill-rule="evenodd" fill="#fff"/><path d="M278.32 213.602a1.14 1.14 0 1 1 1.14 1.137c-.632 0-1.14-.509-1.14-1.137zm0 0" fill="none" stroke-width=".06" stroke-linecap="square" stroke-linejoin="bevel" stroke="#000" stroke-miterlimit="10"/><path d="M277.602 228a1.859 1.859 0 1 1 3.717-.001 1.859 1.859 0 0 1-3.717.001" fill-rule="evenodd" fill="green"/><path d="M277.602 228a1.859 1.859 0 1 1 3.717-.001 1.859 1.859 0 0 1-3.717.001zm0 0" fill="none" stroke-width=".12" stroke-linecap="round" stroke-linejoin="round" stroke="green" stroke-miterlimit="10"/><path d="M278.32 228a1.14 1.14 0 1 1 2.282 0c0 .629-.512 1.14-1.141 1.14a1.14 1.14 0 0 1-1.14-1.14" fill-rule="evenodd" fill="#fff"/><path d="M278.32 228a1.14 1.14 0 1 1 2.282 0c0 .629-.512 1.14-1.141 1.14a1.14 1.14 0 0 1-1.14-1.14zm0 0" fill="none" stroke-width=".06" stroke-linecap="square" stroke-linejoin="bevel" stroke="#000" stroke-miterlimit="10"/><path d="M309.762 212.16h-2.883v2.88h2.883zm0 0" fill="green" stroke-width=".12" stroke-linecap="round" stroke-linejoin="round" stroke="green" stroke-miterlimit="10"/><path d="M307.422 213.602a.841.841 0 0 1 1.68 0c0 .46-.38.84-.84.84a.841.841 0 0 1-.84-.84" fill-rule="evenodd" fill="#fff"/><path d="M307.422 213.602a.841.841 0 0 1 1.68 0c0 .46-.38.84-.84.84a.841.841 0 0 1-.84-.84zm0 0" fill="none" stroke-width=".06" stroke-linecap="square" stroke-linejoin="bevel" stroke="#000" stroke-miterlimit="10"/><path d="M324.16 212.16h-2.879v2.88h2.88zm0 0" fill="green" stroke-width=".12" stroke-linecap="round" stroke-linejoin="round" stroke="green" stroke-miterlimit="10"/><path d="M321.82 213.602c0-.465.375-.84.84-.84a.841.841 0 1 1-.84.84" fill-rule="evenodd" fill="#fff"/><path d="M321.82 213.602c0-.465.375-.84.84-.84a.841.841 0 1 1-.84.84zm0 0" fill="none" stroke-width=".06" stroke-linecap="square" stroke-linejoin="bevel" stroke="#000" stroke-miterlimit="10"/><path d="M341.078 206.398h-.719" fill="none" stroke-width="1.4400000000000002" stroke-linecap="round" stroke-linejoin="round" stroke="#505050" stroke-miterlimit="10"/><path d="M341.738 206.398a2.521 2.521 0 1 1 5.043.004 2.521 2.521 0 0 1-5.043-.004zm0 0" fill="none" stroke-width=".48" stroke-linecap="round" stroke-linejoin="round" stroke="#505050" stroke-miterlimit="10"/><path d="M342.46 206.398a1.798 1.798 0 0 1 3.599 0 1.798 1.798 0 1 1-3.598 0zm0 0" fill="none" stroke-width=".18000000000000002" stroke-linecap="round" stroke-linejoin="round" stroke="#505050" stroke-miterlimit="10"/><path d="M344.32 206.398h-7.199" fill="none" stroke-width="1.4400000000000002" stroke-linecap="round" stroke-linejoin="round" stroke="#505050" stroke-miterlimit="10"/><path d="M341.738 206.398a2.521 2.521 0 1 1 5.043.004 2.521 2.521 0 0 1-5.043-.004zm0 0" fill="none" stroke-width=".48" stroke-linecap="round" stroke-linejoin="round" stroke="#505050" stroke-miterlimit="10"/><path d="M342.46 206.398a1.798 1.798 0 0 1 3.599 0 1.798 1.798 0 1 1-3.598 0zm0 0" fill="none" stroke-width=".18000000000000002" stroke-linecap="round" stroke-linejoin="round" stroke="#505050" stroke-miterlimit="10"/><use xlink:href="#r" x="342.196" y="185.996" fill="#505050"/><use xlink:href="#L" x="343.636" y="185.996" fill="#505050"/><use xlink:href="#C" x="345.076" y="185.996" fill="#505050"/><path d="M265.18 213.602h7.199" fill="none" stroke-width=".12" stroke-linecap="round" stroke-linejoin="round" stroke="olive" stroke-miterlimit="10"/><path d="M243.578 184.86h107.883M351.46 184.86v50.34M351.46 235.2H243.579M243.578 235.2v-50.34" fill="none" stroke-width=".12" stroke-linecap="round" stroke-linejoin="round" stroke="#000" stroke-miterlimit="10"/></svg>