<svg xmlns:xlink="http://www.w3.org/1999/xlink" width="595pt" height="560" viewBox="0 0 595 420"><defs><symbol overflow="visible" id="a"><path d="M1.688.813h-.282V0H1.11v.813H.063v.328l1.046 1.203h.297V1.063h.282zm-.579.25v.921l-.796-.921zm0 0"/></symbol><symbol overflow="visible" id="b"><path d="M.672 0H.297v.453h.375zm0 0"/></symbol><symbol overflow="visible" id="c"><path d="M1.656 2L.625 0H.297l1.078 2.078H.156v.266h1.5zm0 0"/></symbol><symbol overflow="visible" id="d"><path d="M1.594 0h-.297v.203A1.115 1.115 0 0 0 1.03.016a.674.674 0 0 0-.484-.032.527.527 0 0 0-.188.125.38.38 0 0 0-.109.204.893.893 0 0 0-.047.312v1.14H.5v-1C.5.673.504.595.516.532A.32.32 0 0 1 .562.36.183.183 0 0 1 .656.266.346.346 0 0 1 .828.234c.07 0 .149.02.235.063.082.039.16.094.234.156v1.313h.297zm0 0"/></symbol><symbol overflow="visible" id="e"><path d="M1.64 2.078H.548v-.672h1.047v-.281H.547V0H.234v2.344h1.407zm0 0"/></symbol><symbol overflow="visible" id="k"><path d="M1.5 0H.36v.234h.42v1.579H.36v.218c.157 0 .274.02.36.063.07.05.113.14.125.265h.25V.234H1.5zm0 0"/></symbol><symbol overflow="visible" id="l"><path d="M1.64 1.172c0-.418-.062-.727-.187-.922-.125-.2-.312-.297-.562-.297-.262 0-.454.098-.579.297-.124.195-.187.504-.187.922 0 .426.063.738.188.937.124.196.316.297.578.297.25 0 .437-.105.562-.312.125-.211.188-.516.188-.922zM1.235.453c.032.082.051.18.063.297a6.042 6.042 0 0 1 0 .844 1.03 1.03 0 0 1-.063.297.387.387 0 0 1-.14.187.34.34 0 0 1-.203.063.355.355 0 0 1-.22-.063.387.387 0 0 1-.14-.187 1.076 1.076 0 0 1-.062-.297 4.605 4.605 0 0 1-.016-.422c0-.168.004-.305.016-.406C.477.648.5.55.53.469A.378.378 0 0 1 .656.28.404.404 0 0 1 .891.22a.224.224 0 0 1 .203.062c.062.04.11.098.14.172zm0 0"/></symbol><symbol overflow="visible" id="m"><path d="M1.031.89h-.89v.282h.89zm0 0"/></symbol><symbol overflow="visible" id="p"><path d="M1.922 0h-.36L.532 2.031V0H.233v2.344h.454l.937-1.86v1.86h.297zm0 0"/></symbol><symbol overflow="visible" id="q"><path d="M1.281 1.797a.38.38 0 0 1-.11.266.414.414 0 0 1-.296.109.408.408 0 0 1-.281-.094.312.312 0 0 1-.11-.25.3.3 0 0 1 .063-.203.357.357 0 0 1 .172-.14.925.925 0 0 1 .14-.079c.07-.031.133-.058.188-.078.094.07.156.145.187.219a.62.62 0 0 1 .047.25zM1.328.625a.435.435 0 0 1-.062.234.607.607 0 0 1-.22.172.849.849 0 0 1-.14.063 1.94 1.94 0 0 0-.203.078A.63.63 0 0 1 .5.969.71.71 0 0 1 .437.672c0-.149.04-.262.126-.344A.414.414 0 0 1 .89.188c.125 0 .226.035.312.109a.445.445 0 0 1 .125.328zM.891-.047C.766-.047.656-.03.562 0a.602.602 0 0 0-.25.156.586.586 0 0 0-.14.219.596.596 0 0 0-.063.281A.58.58 0 0 0 .22 1c.07.102.172.188.297.25v.016a.754.754 0 0 0-.266.218.518.518 0 0 0-.078.297.59.59 0 0 0 .203.453.768.768 0 0 0 .516.172.72.72 0 0 0 .5-.172A.548.548 0 0 0 1.5 1.5a.683.683 0 0 0-.266-.25 1.22 1.22 0 0 0 .313-.234.587.587 0 0 0 .11-.36.654.654 0 0 0-.22-.5.805.805 0 0 0-.546-.203zm0 0"/></symbol><symbol overflow="visible" id="r"><path d="M1.672 0h-.39L.624.844l-.11-.11V0H.22v2.453h.297V1.016l.687.75h.375L.86 1.03zm0 0"/></symbol><symbol overflow="visible" id="s"><path d="M.813 2.125c-.063 0-.122-.008-.172-.016l-.172-.062a2.172 2.172 0 0 1-.234-.125H.218v.328a1 1 0 0 0 .281.11 1.232 1.232 0 0 0 .61.015c.081-.031.156-.07.218-.11a.799.799 0 0 0 .156-.187.57.57 0 0 0 .047-.25.485.485 0 0 0-.125-.328.486.486 0 0 0-.297-.188v-.03l.157-.048a.602.602 0 0 0 .156-.109.651.651 0 0 0 .11-.172.83.83 0 0 0 0-.547A.774.774 0 0 0 1.125 0a1.039 1.039 0 0 0-.33-.047C.68-.047.567-.03.454 0a.83.83 0 0 0-.297.094v.328h.016A1.06 1.06 0 0 1 .438.297.774.774 0 0 1 .78.219c.064 0 .126.008.19.031a.31.31 0 0 1 .156.11c.05.038.086.093.11.156a.58.58 0 0 1 .03.203.487.487 0 0 1-.046.219.34.34 0 0 1-.094.125.376.376 0 0 1-.156.062 1.65 1.65 0 0 1-.203.016H.64v.265h.093a.57.57 0 0 1 .344.094c.094.07.14.172.14.297a.37.37 0 0 1-.03.156.415.415 0 0 1-.219.156c-.055.008-.106.016-.157.016zm0 0"/></symbol><symbol overflow="visible" id="y"><path d="M1.156-.047C1-.047.86-.02.734.031a.724.724 0 0 0-.328.235A1.045 1.045 0 0 0 .187.64a1.6 1.6 0 0 0-.078.53c0 .196.024.368.079.516.039.145.109.274.203.391.093.102.207.18.343.235.125.05.266.078.422.078.082 0 .16-.008.235-.016.062-.012.125-.027.187-.047a1.36 1.36 0 0 0 .156-.047l.157-.094v-.374h-.032a.388.388 0 0 1-.109.093.69.69 0 0 1-.156.11 1.041 1.041 0 0 1-.188.078.972.972 0 0 1-.25.031.702.702 0 0 1-.516-.234.738.738 0 0 1-.156-.313 1.168 1.168 0 0 1-.062-.406c0-.156.02-.293.062-.406A.815.815 0 0 1 .641.469.655.655 0 0 1 .875.28a.885.885 0 0 1 .281-.047c.094 0 .176.008.25.032a.76.76 0 0 1 .203.078.586.586 0 0 1 .157.11 1 1 0 0 1 .093.077h.032V.156A2.829 2.829 0 0 1 1.75.094 1.758 1.758 0 0 0 1.578.03a1.16 1.16 0 0 0-.187-.062 1.847 1.847 0 0 0-.235-.016zm0 0"/></symbol><symbol overflow="visible" id="z"><path d="M2.094 1.172c0-.219-.043-.414-.125-.578a1.049 1.049 0 0 0-.36-.406A1.211 1.211 0 0 0 1.25.03 2.651 2.651 0 0 0 .781 0H.234v2.344h.547c.219 0 .39-.016.516-.047a1.14 1.14 0 0 0 .312-.125c.157-.106.274-.242.36-.406.082-.168.125-.368.125-.594zm-.328 0c0 .187-.032.344-.094.469a.63.63 0 0 1-.266.296.979.979 0 0 1-.265.11 1.72 1.72 0 0 1-.344.031h-.25V.266h.25c.133 0 .254.007.36.03a.783.783 0 0 1 .531.422c.05.126.078.274.078.454zm0 0"/></symbol><symbol overflow="visible" id="A"><path d="M1.625 0H.172v.328C.273.43.375.523.469.61c.094.094.18.188.265.282.176.195.301.359.375.484a.737.737 0 0 1 .094.36.428.428 0 0 1-.11.297.814.814 0 0 1-.14.077.841.841 0 0 1-.156.016c-.055 0-.11-.008-.172-.016a4.337 4.337 0 0 0-.156-.062.342.342 0 0 1-.125-.063 2.172 2.172 0 0 1-.11-.062H.22v.344c.062.03.156.062.281.093.113.032.223.047.328.047.219 0 .39-.058.516-.172a.66.66 0 0 0 .187-.484.95.95 0 0 0-.031-.25 2.037 2.037 0 0 0-.094-.219c-.043-.062-.09-.133-.14-.203a1.746 1.746 0 0 0-.172-.203L.766.547A12.592 12.592 0 0 1 .469.266h1.156zm0 0"/></symbol><symbol overflow="visible" id="B"><path d="M2.063 0h-.407l-.75.938h-.36V0H.235v2.344h.61c.133 0 .25-.008.344-.016a.68.68 0 0 0 .25-.094.897.897 0 0 0 .203-.218.706.706 0 0 0 .062-.297.726.726 0 0 0-.125-.438.791.791 0 0 0-.36-.265zM1.39 1.688c-.012.07-.028.132-.047.187a.281.281 0 0 1-.11.125.376.376 0 0 1-.156.063 1.74 1.74 0 0 1-.219.015H.547v-.875h.281c.082 0 .16.004.235.016.07.02.132.05.187.093.04.04.078.094.11.157.007.062.019.133.03.218zm0 0"/></symbol><symbol overflow="visible" id="E"><path d="M.781 0v2.078H0v.266h1.89v-.266h-.796V0zm0 0"/></symbol><symbol overflow="visible" id="F"><path d="M1.828.719a.796.796 0 0 0-.062-.313.724.724 0 0 0-.172-.219 1.144 1.144 0 0 0-.297-.14A1.296 1.296 0 0 0 .907 0H.233v2.344H.86c.164 0 .29-.008.375-.016a.92.92 0 0 0 .25-.078.472.472 0 0 0 .188-.172.634.634 0 0 0 .047-.25.55.55 0 0 0-.078-.297.644.644 0 0 0-.25-.218.707.707 0 0 0 .328-.22.61.61 0 0 0 .11-.374zM1.391 1.78a.738.738 0 0 1-.016.14.27.27 0 0 1-.094.095.534.534 0 0 1-.172.062H.547V1.39h.36c.093 0 .163.004.218.015a.52.52 0 0 1 .14.063c.051.031.087.07.11.125.008.05.016.113.016.187zM1.516.703a.433.433 0 0 1-.047.219c-.024.062-.074.113-.157.156a.676.676 0 0 1-.156.047 2.019 2.019 0 0 1-.25.016h-.36V.266h.266c.133 0 .239.004.313.015.082.02.156.047.219.078A.51.51 0 0 1 1.469.5a.9.9 0 0 1 .047.203zm0 0"/></symbol><symbol overflow="visible" id="G"><path d="M-.016 0l.797 2.344h.375L1.953 0h-.328l-.219.656h-.89L.296 0zm1.344.922l-.36 1.11L.595.921zm0 0"/></symbol><symbol overflow="visible" id="J"><path d="M1.953 0h-.312v1.156H.547V0H.234v2.344h.313v-.922H1.64v.922h.312zm0 0"/></symbol><symbol overflow="visible" id="K"><path d="M1.719 1.64a.782.782 0 0 0-.047-.28.793.793 0 0 0-.438-.423A1.231 1.231 0 0 0 .813.875H.546V0H.234v2.344h.594c.133 0 .254-.012.36-.031a.777.777 0 0 0 .469-.328.9.9 0 0 0 .062-.344zm-.328 0a.69.69 0 0 1-.032.204.491.491 0 0 1-.125.156.534.534 0 0 1-.171.063 2.314 2.314 0 0 1-.25.015H.546v-.937h.219c.125 0 .226.007.312.03.07.02.133.056.188.11.039.051.07.102.093.157.02.05.032.117.032.203zm0 0"/></symbol><symbol overflow="visible" id="f"><path d="M-.813 1.688v-.282H0V1.11h-.813V.063h-.328l-1.203 1.046v.297h1.281v.282zm-.25-.579h-.921l.921-.796zm0 0"/></symbol><symbol overflow="visible" id="g"><path d="M0 .672V.297h-.453v.375zm0 0"/></symbol><symbol overflow="visible" id="h"><path d="M-2 1.656L0 .625V.297l-2.078 1.078V.156h-.266v1.5zm0 0"/></symbol><symbol overflow="visible" id="i"><path d="M0 1.594v-.297h-.203c.086-.094.148-.184.187-.266A.674.674 0 0 0 .016.547.527.527 0 0 0-.11.359.38.38 0 0 0-.313.25.893.893 0 0 0-.625.203h-1.14V.5h1a1.3 1.3 0 0 1 .234.016.33.33 0 0 1 .172.046c.043.02.074.051.093.094.024.04.032.098.032.172 0 .07-.02.149-.063.235-.039.082-.094.16-.156.234h-1.313v.297zm0 0"/></symbol><symbol overflow="visible" id="j"><path d="M-2.078 1.64V.548h.672v1.047h.281V.547H0V.234h-2.344v1.407zm0 0"/></symbol><symbol overflow="visible" id="n"><path d="M0 1.625V.172h-.328A9.33 9.33 0 0 0-.61.469c-.094.094-.188.18-.282.265a3.248 3.248 0 0 1-.484.375.737.737 0 0 1-.36.094.428.428 0 0 1-.297-.11.814.814 0 0 1-.077-.14.841.841 0 0 1-.016-.156c0-.055.008-.11.016-.172.023-.055.043-.105.062-.156a.342.342 0 0 1 .063-.125 2.76 2.76 0 0 1 .062-.11V.22h-.344a1.453 1.453 0 0 0-.092.28 1.232 1.232 0 0 0-.047.328c0 .219.058.39.172.516a.66.66 0 0 0 .484.187.95.95 0 0 0 .25-.031 2.08 2.08 0 0 0 .219-.094c.062-.043.133-.09.203-.14.074-.055.14-.11.203-.172l.328-.328C-.43.64-.336.539-.266.469v1.156zm0 0"/></symbol><symbol overflow="visible" id="o"><path d="M-1.172 1.64c.418 0 .727-.062.922-.187.2-.125.297-.312.297-.562C.047.629-.051.437-.25.312-.445.189-.754.126-1.172.126c-.426 0-.738.063-.937.188-.196.124-.297.316-.297.578 0 .25.105.437.312.562.211.125.516.188.922.188zm.719-.406c-.082.032-.18.051-.297.063a6.185 6.185 0 0 1-.844 0 1.03 1.03 0 0 1-.297-.063.387.387 0 0 1-.187-.14.34.34 0 0 1-.063-.203c0-.094.024-.168.063-.22a.387.387 0 0 1 .187-.14c.086-.031.184-.054.297-.062.125-.012.266-.016.422-.016.168 0 .305.004.406.016.118.008.215.031.297.062.086.031.149.07.188.125.043.063.062.14.062.235a.224.224 0 0 1-.062.203.362.362 0 0 1-.172.14zm0 0"/></symbol><symbol overflow="visible" id="t"><path d="M0 1.5V.36h-.234v.42h-1.579V.36h-.218c0 .157-.02.274-.063.36-.05.07-.14.113-.265.125v.25h2.125V1.5zm0 0"/></symbol><symbol overflow="visible" id="u"><path d="M0 1.672v-.39L-.844.624l.11-.11H0V.22h-2.453v.297h1.437l-.75.687v.375L-1.03.86zm0 0"/></symbol><symbol overflow="visible" id="v"><path d="M-.719 1.828a.796.796 0 0 0 .313-.062.724.724 0 0 0 .219-.172c.062-.094.109-.196.14-.297.031-.094.047-.227.047-.39V.233h-2.344V.86c0 .164.008.29.016.375a.92.92 0 0 0 .078.25.472.472 0 0 0 .172.188.634.634 0 0 0 .25.047.55.55 0 0 0 .297-.078.644.644 0 0 0 .218-.25.707.707 0 0 0 .22.328.61.61 0 0 0 .374.11zm-1.062-.437a.774.774 0 0 1-.14-.016.27.27 0 0 1-.095-.094.534.534 0 0 1-.062-.172V.547h.687v.36c0 .093-.004.163-.015.218a.52.52 0 0 1-.063.14.262.262 0 0 1-.125.11c-.05.008-.113.016-.187.016zm1.078.125a.433.433 0 0 1-.219-.047c-.062-.024-.113-.074-.156-.157a.676.676 0 0 1-.047-.156 2.019 2.019 0 0 1-.016-.25v-.36h.875v.266c0 .133-.004.239-.015.313-.02.082-.047.156-.078.219a.477.477 0 0 1-.141.125.924.924 0 0 1-.203.047zm0 0"/></symbol><symbol overflow="visible" id="w"><path d="M.047 1.156C.047 1 .02.86-.031.734A.724.724 0 0 0-.266.406 1.045 1.045 0 0 0-.64.187 1.6 1.6 0 0 0-1.17.11a1.48 1.48 0 0 0-.516.079 1.06 1.06 0 0 0-.391.203.928.928 0 0 0-.235.343c-.05.125-.078.266-.078.422 0 .082.008.16.016.235.012.062.027.125.047.187.012.05.027.102.047.156l.094.157h.374V1.86a.388.388 0 0 1-.093-.109.69.69 0 0 1-.11-.156 1.041 1.041 0 0 1-.078-.188.972.972 0 0 1-.031-.25.702.702 0 0 1 .234-.516.738.738 0 0 1 .313-.156c.117-.043.25-.062.406-.062.156 0 .293.02.406.062a.82.82 0 0 1 .297.157c.086.07.149.148.188.234a.885.885 0 0 1 .047.281.827.827 0 0 1-.032.25.76.76 0 0 1-.078.203.586.586 0 0 1-.11.157 1 1 0 0 1-.077.093v.032h.375c.023-.055.043-.102.062-.141.024-.055.043-.11.063-.172a1.16 1.16 0 0 0 .062-.187c.008-.063.016-.141.016-.235zm0 0"/></symbol><symbol overflow="visible" id="x"><path d="M-.75 1.594a.973.973 0 0 0 .313-.047.74.74 0 0 0 .25-.156.61.61 0 0 0 .171-.25.847.847 0 0 0 .063-.329A1.8 1.8 0 0 0 .016.484a1.954 1.954 0 0 0-.094-.28h-.344v.015a.25.25 0 0 1 .063.11.74.74 0 0 1 .062.14.73.73 0 0 1 .047.172.41.41 0 0 1 .031.171A.416.416 0 0 1-.266 1a.31.31 0 0 1-.109.156.438.438 0 0 1-.156.094.72.72 0 0 1-.422 0 .967.967 0 0 1-.14-.11.648.648 0 0 1-.079-.156.917.917 0 0 1-.031-.234c0-.086.012-.168.031-.25.012-.086.024-.152.031-.203h-1.203v1.281h.266V.594h.625v.11a.32.32 0 0 1-.016.109c0 .113.012.21.032.296a.788.788 0 0 0 .125.25c.054.07.125.13.218.172.086.04.2.063.344.063zm0 0"/></symbol><symbol overflow="visible" id="C"><path d="M0 2.063v-.407l-.938-.75v-.36H0V.235h-2.344v.61c0 .133.008.25.016.344a.68.68 0 0 0 .094.25.897.897 0 0 0 .218.203.709.709 0 0 0 .297.062c.18 0 .324-.043.438-.125a.791.791 0 0 0 .265-.36zm-1.688-.672a1.095 1.095 0 0 1-.187-.047.281.281 0 0 1-.125-.11.376.376 0 0 1-.063-.156A1.74 1.74 0 0 1-2.078.86V.547h.875v.281c0 .082-.004.16-.016.235a.53.53 0 0 1-.093.187.613.613 0 0 1-.157.11c-.062.007-.133.019-.218.03zm0 0"/></symbol><symbol overflow="visible" id="D"><path d="M-2.125.813c0-.063.008-.122.016-.172l.062-.172a2.172 2.172 0 0 1 .125-.234V.218h-.328A1 1 0 0 0-2.36.5a1.232 1.232 0 0 0-.015.61c.031.081.07.156.11.218a.799.799 0 0 0 .187.156.57.57 0 0 0 .25.047.485.485 0 0 0 .328-.125.486.486 0 0 0 .188-.297h.03l.048.157c.023.05.058.101.109.156a.68.68 0 0 0 .172.11.83.83 0 0 0 .547 0A.774.774 0 0 0 0 1.125a1.06 1.06 0 0 0 .047-.33C.047.68.03.567 0 .454A.83.83 0 0 0-.094.156h-.328v.016c.043.062.086.148.125.266A.774.774 0 0 1-.219.78.525.525 0 0 1-.25.97a.31.31 0 0 1-.11.156.345.345 0 0 1-.156.11.568.568 0 0 1-.203.03.487.487 0 0 1-.219-.046.34.34 0 0 1-.125-.094.376.376 0 0 1-.062-.156 1.65 1.65 0 0 1-.016-.203V.64h-.265v.093a.57.57 0 0 1-.094.344.353.353 0 0 1-.297.14.37.37 0 0 1-.156-.03.415.415 0 0 1-.156-.219c-.008-.055-.016-.106-.016-.157zm0 0"/></symbol><symbol overflow="visible" id="L"><path d="M0 1.063V.14h-.234v.312H-2.11V.141h-.235v.921h.235V.766h1.875v.296zm0 0"/></symbol><symbol overflow="visible" id="M"><path d="M0 1.922v-.36L-2.031.532H0V.233h-2.344v.454l1.86.937h-1.86v.297zm0 0"/></symbol><symbol overflow="visible" id="H"><path d="M1.281 1.094H.171v.36h1.11zm0 0"/></symbol><symbol overflow="visible" id="O"><path d="M2.61 1.125h-.985v-1h-.328v1H.313v.313h.984v.984h.328v-.985h.984zm0 0"/></symbol><symbol overflow="visible" id="I"><path d="M-1.125 2.61v-.985h1v-.328h-1V.313h-.313v.984h-.984v.328h.985v.984zm0 0"/></symbol><symbol overflow="visible" id="N"><path d="M-1.094 1.281V.171h-.36v1.11zm0 0"/></symbol></defs><use xlink:href="#a" x="260.847" y="229.325" fill="#505050"/><use xlink:href="#b" x="262.587" y="229.325" fill="#505050"/><use xlink:href="#c" x="263.547" y="229.325" fill="#505050"/><use xlink:href="#d" x="265.287" y="229.325" fill="#505050"/><use xlink:href="#e" x="267.087" y="229.325" fill="#505050"/><use xlink:href="#f" x="270.026" y="203.91" fill="#505050"/><use xlink:href="#g" x="270.026" y="205.65" fill="#505050"/><use xlink:href="#h" x="270.026" y="206.61" fill="#505050"/><use xlink:href="#i" x="270.026" y="208.35" fill="#505050"/><use xlink:href="#j" x="270.026" y="210.15" fill="#505050"/><use xlink:href="#k" x="323.439" y="187.618" fill="#505050"/><use xlink:href="#l" x="325.179" y="187.618" fill="#505050"/><use xlink:href="#l" x="326.919" y="187.618" fill="#505050"/><use xlink:href="#m" x="328.659" y="187.618" fill="#505050"/><use xlink:href="#k" x="329.859" y="187.618" fill="#505050"/><use xlink:href="#l" x="331.599" y="187.618" fill="#505050"/><use xlink:href="#l" x="333.339" y="187.618" fill="#505050"/><use xlink:href="#l" x="335.079" y="187.618" fill="#505050"/><use xlink:href="#d" x="336.819" y="187.618" fill="#505050"/><use xlink:href="#e" x="338.619" y="187.618" fill="#505050"/><use xlink:href="#n" x="314.087" y="197.018" fill="#505050"/><use xlink:href="#n" x="314.087" y="198.758" fill="#505050"/><use xlink:href="#o" x="314.087" y="200.498" fill="#505050"/><use xlink:href="#i" x="314.087" y="202.238" fill="#505050"/><use xlink:href="#j" x="314.087" y="204.038" fill="#505050"/><use xlink:href="#k" x="284.888" y="219.291" fill="#505050"/><use xlink:href="#p" x="286.628" y="219.291" fill="#505050"/><use xlink:href="#a" x="288.788" y="219.291" fill="#505050"/><use xlink:href="#k" x="290.528" y="219.291" fill="#505050"/><use xlink:href="#a" x="292.268" y="219.291" fill="#505050"/><use xlink:href="#q" x="294.008" y="219.291" fill="#505050"/><use xlink:href="#k" x="284.888" y="204.909" fill="#505050"/><use xlink:href="#p" x="286.628" y="204.909" fill="#505050"/><use xlink:href="#a" x="288.788" y="204.909" fill="#505050"/><use xlink:href="#k" x="290.528" y="204.909" fill="#505050"/><use xlink:href="#a" x="292.268" y="204.909" fill="#505050"/><use xlink:href="#q" x="294.008" y="204.909" fill="#505050"/><use xlink:href="#k" x="290.525" y="208.893" fill="#505050"/><use xlink:href="#l" x="292.265" y="208.893" fill="#505050"/><use xlink:href="#l" x="294.005" y="208.893" fill="#505050"/><use xlink:href="#r" x="295.745" y="208.893" fill="#505050"/><use xlink:href="#s" x="316.543" y="216.084" fill="#505050"/><use xlink:href="#s" x="318.283" y="216.084" fill="#505050"/><use xlink:href="#l" x="320.023" y="216.084" fill="#505050"/><use xlink:href="#t" x="327.457" y="221.774" fill="#505050"/><use xlink:href="#o" x="327.457" y="223.514" fill="#505050"/><use xlink:href="#o" x="327.457" y="225.254" fill="#505050"/><use xlink:href="#n" x="334.877" y="201.835" fill="#505050"/><use xlink:href="#n" x="334.877" y="203.575" fill="#505050"/><use xlink:href="#n" x="334.877" y="201.835" fill="#505050"/><use xlink:href="#n" x="334.877" y="203.575" fill="#505050"/><use xlink:href="#t" x="268.889" y="204.28" fill="#505050"/><use xlink:href="#o" x="268.889" y="206.02" fill="#505050"/><use xlink:href="#o" x="268.889" y="207.76" fill="#505050"/><use xlink:href="#u" x="268.889" y="209.5" fill="#505050"/><use xlink:href="#v" x="274.763" y="191.151" fill="#505050"/><use xlink:href="#w" x="274.763" y="193.071" fill="#505050"/><use xlink:href="#x" x="274.763" y="194.991" fill="#505050"/><use xlink:href="#f" x="274.763" y="196.731" fill="#505050"/><use xlink:href="#h" x="274.763" y="198.471" fill="#505050"/><use xlink:href="#v" x="308.214" y="191.091" fill="#505050"/><use xlink:href="#w" x="308.214" y="193.011" fill="#505050"/><use xlink:href="#x" x="308.214" y="194.931" fill="#505050"/><use xlink:href="#x" x="308.214" y="196.671" fill="#505050"/><use xlink:href="#h" x="308.214" y="198.411" fill="#505050"/><use xlink:href="#v" x="303.538" y="219.914" fill="#505050"/><use xlink:href="#w" x="303.538" y="221.834" fill="#505050"/><use xlink:href="#x" x="303.538" y="223.754" fill="#505050"/><use xlink:href="#f" x="303.538" y="225.494" fill="#505050"/><use xlink:href="#h" x="303.538" y="227.234" fill="#505050"/><use xlink:href="#y" x="279.558" y="220.818" fill="#505050"/><use xlink:href="#k" x="281.478" y="220.818" fill="#505050"/><use xlink:href="#w" x="282.557" y="218.302" fill="#505050"/><use xlink:href="#n" x="282.557" y="220.222" fill="#505050"/><use xlink:href="#y" x="322.72" y="202.123" fill="#505050"/><use xlink:href="#s" x="324.64" y="202.123" fill="#505050"/><use xlink:href="#w" x="327.158" y="213.987" fill="#505050"/><use xlink:href="#f" x="327.158" y="215.907" fill="#505050"/><use xlink:href="#z" x="295.024" y="212.786" fill="#505050"/><use xlink:href="#k" x="297.244" y="212.786" fill="#505050"/><use xlink:href="#z" x="295.024" y="198.404" fill="#505050"/><use xlink:href="#A" x="297.244" y="198.404" fill="#505050"/><use xlink:href="#B" x="292.085" y="205.236" fill="#505050"/><use xlink:href="#k" x="294.125" y="205.236" fill="#505050"/><use xlink:href="#B" x="311.746" y="219.021" fill="#505050"/><use xlink:href="#A" x="313.786" y="219.021" fill="#505050"/><use xlink:href="#C" x="331.834" y="226.032" fill="#505050"/><use xlink:href="#D" x="331.834" y="228.072" fill="#505050"/><use xlink:href="#C" x="329.842" y="199.246" fill="#505050"/><use xlink:href="#f" x="329.842" y="201.287" fill="#505050"/><use xlink:href="#C" x="329.842" y="199.247" fill="#505050"/><use xlink:href="#f" x="329.842" y="201.287" fill="#505050"/><use xlink:href="#C" x="268.889" y="226.387" fill="#505050"/><use xlink:href="#x" x="268.889" y="228.427" fill="#505050"/><use xlink:href="#E" x="277.039" y="194.511" fill="#505050"/><use xlink:href="#k" x="278.959" y="194.511" fill="#505050"/><use xlink:href="#E" x="299.999" y="194.511" fill="#505050"/><use xlink:href="#A" x="301.919" y="194.511" fill="#505050"/><use xlink:href="#E" x="305.814" y="223.274" fill="#505050"/><use xlink:href="#s" x="307.734" y="223.274" fill="#505050"/><path d="M275.98 224.398v1.98m0 .001h2.52m0 0v1.082m0-.001h-5.04m0 0v-1.081m0 0h2.52m0 5.223v-1.922m0 0h-2.52m0 0v-1.078m0 0h5.04m0 0v1.078m0 0h-2.52m0-19.621v1.921m0 0h2.52m0 0v1.079m0 0h-5.04m0 0v-1.079m0 0h2.52m0 5.22v-1.919m0 0h-2.52m0 0V214.2m0 0h5.04m0 0v1.081m0 0h-2.52m46.918-13.5l-.957.48-1.14.36-1.082.18h-1.14l-1.138-.18-1.082-.36-1.02-.48m.001-12.241l1.02-.54 1.081-.36 1.137-.18h1.14l1.083.18 1.14.36.957.54" fill="none" stroke-width=".48" stroke-linecap="round" stroke-linejoin="round" stroke="#505050" stroke-miterlimit="10"/><path d="M297.52 217.2h-1.801" fill="none" stroke-width=".36" stroke-linecap="round" stroke-linejoin="round" stroke="#505050" stroke-miterlimit="10"/><path d="M289.422 217.2h.719m-.001 0h2.7" fill="none" stroke-width=".24" stroke-linecap="round" stroke-linejoin="round" stroke="#505050" stroke-miterlimit="10"/><path d="M283.18 217.2h1.8m12.54-14.34h-1.801" fill="none" stroke-width=".36" stroke-linecap="round" stroke-linejoin="round" stroke="#505050" stroke-miterlimit="10"/><path d="M289.422 202.86h.719m-.001 0h2.7" fill="none" stroke-width=".24" stroke-linecap="round" stroke-linejoin="round" stroke="#505050" stroke-miterlimit="10"/><path d="M283.18 202.86h1.8" fill="none" stroke-width=".36" stroke-linecap="round" stroke-linejoin="round" stroke="#505050" stroke-miterlimit="10"/><path d="M304.719 210.059h-6.117m-15.422 0h6.058m37.082 7.141h-2.52m-11.878 0h2.52m4.679 7.198h2.52m11.879 0H331" fill="none" stroke-width=".72" stroke-linecap="round" stroke-linejoin="round" stroke="#505050" stroke-miterlimit="10"/><path d="M333.52 217.2v-2.52m0-19.02v2.52" fill="none" stroke-width="1.44" stroke-linecap="round" stroke-linejoin="round" stroke="#505050" stroke-miterlimit="10"/><use xlink:href="#F" x="337.824" y="181.866" fill="#505050"/><use xlink:href="#G" x="339.744" y="181.866" fill="#505050"/><use xlink:href="#E" x="341.664" y="181.866" fill="#505050"/><path d="M337.121 199.262v-14.403m0 .001h7.2m-.001 0v14.402m0 0h-7.199" fill="none" stroke-width=".36" stroke-linecap="round" stroke-linejoin="round" stroke="#505050" stroke-miterlimit="10"/><use xlink:href="#H" x="345.379" y="187.02" fill="#505050"/><use xlink:href="#I" x="347.539" y="194.211" fill="#505050"/><path d="M272.379 224.578v.543m.543 0h-.543m0 0v.54m0-.54h-.54M270.16 228a5.762 5.762 0 0 1 5.762-5.762 5.761 5.761 0 0 1 0 11.524A5.762 5.762 0 0 1 270.16 228zm0 0" fill="none" stroke-width=".48" stroke-linecap="round" stroke-linejoin="round" stroke="#505050" stroke-miterlimit="10"/><path d="M278.262 228.719h-4.563v.722h4.563zm0 0" fill="#505050" stroke-width=".12" stroke-linecap="round" stroke-linejoin="round" stroke="#505050" stroke-miterlimit="10"/><path d="M279.578 210.238v.543m.543 0h-.543m0 0v.54m0-.54h-.539m-8.879 2.821a5.76 5.76 0 1 1 11.52-.004 5.76 5.76 0 0 1-11.52.004zm0 0" fill="none" stroke-width=".48" stroke-linecap="round" stroke-linejoin="round" stroke="#505050" stroke-miterlimit="10"/><path d="M278.262 214.32h-4.563v.72h4.563zm0 0" fill="#505050" stroke-width=".12" stroke-linecap="round" stroke-linejoin="round" stroke="#505050" stroke-miterlimit="10"/><path d="M322.898 189.54l1.024.722.84.898.66 1.02.476 1.082.301 1.199.121 1.2-.12 1.198-.302 1.2-.476 1.082-.66 1.02-.84.839-1.024.781m-7.558 0l-1.02-.781-.78-.84-.72-1.02-.48-1.081-.3-1.2-.118-1.199.117-1.2.3-1.198.481-1.082.72-1.02.78-.898 1.02-.723m3.781 10.082v-1.8m0-.001h-2.883m0 0v-1.441m0 0H322m0 0v1.441m0 0h-2.879m0-3.96v-2.16m1.801 8.28v-1.44m-.722.722h1.44" fill="none" stroke-width=".48" stroke-linecap="round" stroke-linejoin="round" stroke="#505050" stroke-miterlimit="10"/><path d="M322 193.5h-5.762v1.441H322zm0 0" fill="#505050" stroke-width=".12" stroke-linecap="round" stroke-linejoin="round" stroke="#505050" stroke-miterlimit="10"/><path d="M314.32 206.879l.72-.899.839-.718 1.02-.543 1.081-.297 1.141-.121 1.14.12 1.079.298 1.02.543.84.718.722.899m0 6.301l-.723.898-.84.723-1.02.539-1.077.36-1.14.062-1.142-.063-1.082-.36-1.02-.538-.839-.723-.719-.898m9.602-6.301l.539.96.3 1.083.118 1.137-.117 1.082-.301 1.078-.54.96m-9.601.001l-.539-.961-.3-1.078-.122-1.082.121-1.137.301-1.082.54-.961m8.757 3.18h-1.797m0 0v2.82m0 0h-1.441m0 0v-5.7m0 .001h1.441m0 0v2.879m-3.961 0h-2.16m8.281-1.797H322m.719.718v-1.44" fill="none" stroke-width=".48" stroke-linecap="round" stroke-linejoin="round" stroke="#505050" stroke-miterlimit="10"/><path d="M318.398 207.18h-1.437v5.761h1.437zm0 0" fill="#505050" stroke-width=".12" stroke-linecap="round" stroke-linejoin="round" stroke="#505050" stroke-miterlimit="10"/><path d="M288.219 219l-.48-.059-.419-.18-.3-.363-.18-.359-.059-.48m0-.719l.059-.418.18-.422.3-.3.418-.18.48-.122m4.262 0l.48.122.419.18.3.3.18.422.063.418m0 .719l-.063.48-.18.36-.3.363-.418.18-.48.058m-5.7-2.16v.719M292.48 219h-4.261m4.261-3.602h-4.261m5.703 1.442v.719" fill="none" stroke-width=".3" stroke-linecap="round" stroke-linejoin="round" stroke="#505050" stroke-miterlimit="10"/><path d="M292.121 218.281v-2.16m0 0l-1.98 1.078m-.001.001l1.981 1.081m-1.981 0V217.2m0 0v-1.079" fill="none" stroke-width=".24" stroke-linecap="round" stroke-linejoin="round" stroke="#505050" stroke-miterlimit="10"/><path d="M288.762 215.398h-.723V219h.723zm-2.16 1.5h-1.563v.602h1.563zm9.058 0h-1.558v.602h1.558zm0 0" fill="#505050" stroke-width=".12" stroke-linecap="round" stroke-linejoin="round" stroke="#505050" stroke-miterlimit="10"/><path d="M288.219 204.66l-.48-.12-.419-.18-.3-.301-.18-.418-.059-.422m0-.719l.059-.48.18-.36.3-.36.418-.179.48-.062m4.262 0l.48.062.419.18.3.36.18.359.063.48m0 .719l-.063.422-.18.418-.3.3-.418.18-.48.121m-5.7-2.16v.719m5.699 1.441h-4.261m4.261-3.601h-4.261m5.703 1.441v.719" fill="none" stroke-width=".3" stroke-linecap="round" stroke-linejoin="round" stroke="#505050" stroke-miterlimit="10"/><path d="M292.121 203.941v-2.16m0 0l-1.98 1.078m-.001.001l1.981 1.081m-1.981 0v-1.082m0 .001v-1.079" fill="none" stroke-width=".24" stroke-linecap="round" stroke-linejoin="round" stroke="#505050" stroke-miterlimit="10"/><path d="M288.762 201.059h-.723v3.601h.723zm-2.16 1.5h-1.563v.601h1.563zm9.058 0h-1.558v.601h1.558zm0 0" fill="#505050" stroke-width=".12" stroke-linecap="round" stroke-linejoin="round" stroke="#505050" stroke-miterlimit="10"/><use xlink:href="#J" x="336.564" y="217.82" fill="#505050"/><use xlink:href="#z" x="338.724" y="217.82" fill="#505050"/><use xlink:href="#K" x="340.944" y="217.82" fill="#505050"/><use xlink:href="#J" x="342.744" y="217.82" fill="#505050"/><path d="M337.121 235.2v-14.4m0 0h7.2m-.001 0v14.4m0 0h-7.199" fill="none" stroke-width=".36" stroke-linecap="round" stroke-linejoin="round" stroke="#505050" stroke-miterlimit="10"/><use xlink:href="#H" x="345.379" y="222.974" fill="#505050"/><use xlink:href="#I" x="347.539" y="230.164" fill="#505050"/><use xlink:href="#L" x="250.063" y="186.78" fill="#505050"/><use xlink:href="#M" x="250.063" y="187.98" fill="#505050"/><path d="M265.18 192.059h-14.4m.001 0v-7.2m0 .001h14.399m0 0v7.199" fill="none" stroke-width=".36" stroke-linecap="round" stroke-linejoin="round" stroke="#505050" stroke-miterlimit="10"/><use xlink:href="#N" x="255.82" y="182.347" fill="#505050"/><use xlink:href="#O" x="260.134" y="181.627" fill="#505050"/><path d="M291.04 211.8h-.24l-.241-.179-.18-.242-.059-.238m0-2.161l.059-.3.18-.239.242-.18h.238m5.761.001h.302l.238.18.12.238.06.3m0 2.16l-.06.239-.12.242-.238.18h-.301" fill="none" stroke-width=".48" stroke-linecap="round" stroke-linejoin="round" stroke="#505050" stroke-miterlimit="10"/><path d="M291.04 211.8h-.24l-.241-.179-.18-.242-.059-.238m0-2.161l.059-.3.18-.239.242-.18h.238m5.761.001h.302l.238.18.12.238.06.3m0 2.16l-.06.239-.12.242-.238.18h-.301m-6.481-2.821v2.16m6.48.66h-5.76m5.76-3.538h-5.76m6.48.718v2.16" fill="none" stroke-width=".48" stroke-linecap="round" stroke-linejoin="round" stroke="#505050" stroke-miterlimit="10"/><path d="M298.602 209.7h-1.082v.722h1.082zm-8.282 0h-1.082v.722h1.082zm0 0" fill="#505050" stroke-width=".12" stroke-linecap="round" stroke-linejoin="round" stroke="#505050" stroke-miterlimit="10"/><path d="M315.52 216.121l.058-.242.184-.238.238-.18.238-.063m5.762 0l.3.063.18.18.18.238.059.242M316.238 219l-.238-.059-.238-.12-.184-.243-.058-.297m7.199 0l-.059.297-.18.242-.18.121-.3.059m-6.48-2.879v2.16M322 219h-5.762m5.762-3.602h-5.762m6.481.723v2.16" fill="none" stroke-width=".36" stroke-linecap="round" stroke-linejoin="round" stroke="#505050" stroke-miterlimit="10"/><path d="M323.8 216.84h-1.081v.719h1.082zm-8.28 0h-1.079v.719h1.079zm0 0" fill="#505050" stroke-width=".12" stroke-linecap="round" stroke-linejoin="round" stroke="#505050" stroke-miterlimit="10"/><path d="M329.922 225.48l-.063.301-.18.239-.238.12-.242.06m-5.758 0l-.3-.06-.18-.12-.18-.239-.062-.3m6.481-2.879l.241.058.239.18.18.238.062.242m-7.203 0l.062-.242.18-.238.18-.18.3-.058m6.481 2.878v-2.16m-6.481-.718h5.758m-5.758 3.598h5.758m-6.48-.72v-2.16" fill="none" stroke-width=".36" stroke-linecap="round" stroke-linejoin="round" stroke="#505050" stroke-miterlimit="10"/><path d="M322.719 224.04h-1.078v.722h1.078zm8.281 0h-1.082v.722H331zm0 0" fill="#505050" stroke-width=".12" stroke-linecap="round" stroke-linejoin="round" stroke="#505050" stroke-miterlimit="10"/><path d="M330.64 199.98l.06-.3.12-.239.239-.12.3-.06m4.321.001l.242.058.238.121.18.239.058.3m0 12.899l-.058.3-.18.243-.238.18h-.242m-4.32 0h-.301l-.239-.18-.12-.242-.06-.301" fill="none" stroke-width=".48" stroke-linecap="round" stroke-linejoin="round" stroke="#505050" stroke-miterlimit="10"/><path d="M334.238 213.602h-1.437v1.078h1.437zm0-15.422h-1.437v1.082h1.437zm0 0" fill="#505050" stroke-width=".12" stroke-linecap="round" stroke-linejoin="round" stroke="#505050" stroke-miterlimit="10"/><path d="M330.64 199.98l.06-.3.12-.239.239-.12.3-.06m4.321.001l.242.058.238.121.18.239.058.3m0 12.899l-.058.3-.18.243-.238.18h-.242m-4.32 0h-.301l-.239-.18-.12-.242-.06-.301m5.04-13.617h-4.32m-.72.718v1.079m.36.363l-.36-.363m5.758-1.079v1.079m-.358.363l.358-.363M331 211.5l-.36.3m.36-.3v-10.078m5.04 10.078l.358.3m-.358-.3v-10.078m-5.4 11.457V211.8m5.758 1.079V211.8m-.718 1.802h-4.32" fill="none" stroke-width=".48" stroke-linecap="round" stroke-linejoin="round" stroke="#505050" stroke-miterlimit="10"/><path d="M334.238 213.602h-1.437v1.078h1.437zm0-15.422h-1.437v1.082h1.437zm0 0" fill="#505050" stroke-width=".12" stroke-linecap="round" stroke-linejoin="round" stroke="#505050" stroke-miterlimit="10"/><path d="M254.68 230.102v-25.743m-5.64 25.743v-3.122m5.64 3.122h-5.64m0-3.122h5.339m2.402 3.122v-25.743M243.46 220.02h-9.901m0-5.641h9.902m10.918 7.081H244.3m0 0l-.84-1.44m0-5.641l.84-1.379m0 0h10.079m-10.919 7.02v-5.641m-9.901 5.641v-5.641m21.121 15.723h11.16m-11.16-25.742h11.16m-20.578 16.8l1.5-7.86m-.062 7.86l1.5-7.86m-.122 7.86l1.5-7.86m-.058 7.86l1.5-7.86m-.06 7.86l1.438-7.86m-.058 7.86l1.5-7.86m-9.84 7.259l1.441-7.258m20.399 16.801v-25.743" fill="none" stroke-width=".6" stroke-linecap="round" stroke-linejoin="round" stroke="#505050" stroke-miterlimit="10"/><path d="M271.3 201.602v-11.883m7.86-.899l1.14.66 1.02.84.84 1.02.66 1.14.418 1.2.242 1.32v1.32l-.242 1.258-.418 1.262-.66 1.14-.84 1.02-1.02.84-1.14.66m-3.18-14.398v15.117m3.18-.719l-1.02.422-1.081.238-1.079.059m0 0l-1.14-.117-1.078-.243-1.024-.359m0 0l-.777-.422-.66-.476m1.437-12.782l1.024-.36 1.078-.241 1.14-.117m0 0l1.079.058 1.082.238 1.02.422m-7.861.899l.72-.54.78-.417m36.598.957v11.883m-7.858.898l-1.142-.66-1.02-.84-.839-1.02-.66-1.14-.418-1.262-.242-1.258V195l.242-1.32.418-1.2.66-1.14.84-1.02 1.02-.84 1.14-.66m3.18 14.399v-15.117m-3.179.718l1.019-.422 1.082-.238 1.078-.058m0 0l1.14.117 1.082.242 1.02.36m-.001-.001l.72.418.718.48M307.96 202.5l-1.019.36-1.082.242-1.14.117m0 0l-1.078-.059-1.082-.238-1.02-.422m7.859-.898l-.718.476-.782.422m-7.858 27.84v-11.88m7.92-.901l1.142.66 1.02.84.839 1.02.598 1.14.48 1.261.242 1.258v1.32l-.242 1.32-.48 1.2-.598 1.14-.84 1.02-1.02.84-1.14.66m-3.242-14.34v15.063m3.241-.723l-1.019.422-1.082.238-1.14.063m0-.001l-1.078-.12-1.082-.238-1.02-.364m.001 0l-.778-.418-.723-.48m1.501-12.781l1.019-.36 1.082-.238 1.078-.063m0 0l1.14.063 1.082.238 1.02.36m-7.921.901l.78-.48.782-.421" fill="none" stroke-width=".36" stroke-linecap="round" stroke-linejoin="round" stroke="#505050" stroke-miterlimit="10"/><path d="M338.14 188.46a2.518 2.518 0 0 1 2.52-2.519 2.52 2.52 0 1 1-2.52 2.52" fill-rule="evenodd" fill="green"/><path d="M338.14 188.46a2.518 2.518 0 0 1 2.52-2.519 2.52 2.52 0 1 1-2.52 2.52zm0 0" fill="none" stroke-width=".12" stroke-linecap="round" stroke-linejoin="round" stroke="green" stroke-miterlimit="10"/><path d="M339.219 188.46a1.44 1.44 0 1 1 2.88-.001 1.44 1.44 0 0 1-2.88.002" fill-rule="evenodd" fill="#fff"/><path d="M339.219 188.46a1.44 1.44 0 1 1 2.88-.001 1.44 1.44 0 0 1-2.88.002zm0 0" fill="none" stroke-width=".06" stroke-linecap="square" stroke-linejoin="bevel" stroke="#000" stroke-miterlimit="10"/><path d="M338.14 195.66a2.52 2.52 0 0 1 5.04 0 2.52 2.52 0 0 1-5.04 0" fill-rule="evenodd" fill="green"/><path d="M338.14 195.66a2.52 2.52 0 0 1 5.04 0 2.52 2.52 0 0 1-5.04 0zm0 0" fill="none" stroke-width=".12" stroke-linecap="round" stroke-linejoin="round" stroke="green" stroke-miterlimit="10"/><path d="M339.219 195.66a1.44 1.44 0 1 1 2.88-.002 1.44 1.44 0 0 1-2.88.002" fill-rule="evenodd" fill="#fff"/><path d="M339.219 195.66a1.44 1.44 0 1 1 2.88-.002 1.44 1.44 0 0 1-2.88.002zm0 0" fill="none" stroke-width=".06" stroke-linecap="square" stroke-linejoin="bevel" stroke="#000" stroke-miterlimit="10"/><path d="M274.18 231.602c0-.93.78-1.68 1.742-1.68.96 0 1.738.75 1.738 1.68 0 .925-.777 1.68-1.738 1.68s-1.742-.755-1.742-1.68" fill-rule="evenodd" fill="green"/><path d="M274.18 231.602c0-.93.78-1.68 1.742-1.68.96 0 1.738.75 1.738 1.68 0 .925-.777 1.68-1.738 1.68s-1.742-.755-1.742-1.68zm0 0" fill="none" stroke-width=".12" stroke-linecap="round" stroke-linejoin="round" stroke="green" stroke-miterlimit="10"/><path d="M274.898 231.602a1.022 1.022 0 1 1 2.044-.003 1.022 1.022 0 0 1-2.044.003" fill-rule="evenodd" fill="#fff"/><path d="M274.898 231.602a1.022 1.022 0 1 1 2.044-.003 1.022 1.022 0 0 1-2.044.003zm0 0" fill="none" stroke-width=".06" stroke-linecap="square" stroke-linejoin="bevel" stroke="#000" stroke-miterlimit="10"/><path d="M277.719 222.719h-3.48v3.363h3.48zm0 0" fill="green" stroke-width=".12" stroke-linecap="round" stroke-linejoin="round" stroke="green" stroke-miterlimit="10"/><path d="M274.898 224.398a1.021 1.021 0 1 1 2.043.004 1.021 1.021 0 0 1-2.043-.004" fill-rule="evenodd" fill="#fff"/><path d="M274.898 224.398a1.021 1.021 0 1 1 2.043.004 1.021 1.021 0 0 1-2.043-.004zm0 0" fill="none" stroke-width=".06" stroke-linecap="square" stroke-linejoin="bevel" stroke="#000" stroke-miterlimit="10"/><path d="M273.64 217.2a2.278 2.278 0 0 1 2.282-2.278 2.277 2.277 0 0 1 2.277 2.277 2.278 2.278 0 1 1-4.558 0" fill-rule="evenodd" fill="green"/><path d="M273.64 217.2a2.278 2.278 0 0 1 2.282-2.278 2.277 2.277 0 0 1 2.277 2.277 2.278 2.278 0 1 1-4.558 0zm0 0" fill="none" stroke-width=".12" stroke-linecap="round" stroke-linejoin="round" stroke="green" stroke-miterlimit="10"/><path d="M274.781 217.2a1.14 1.14 0 1 1 2.28-.003 1.14 1.14 0 0 1-2.28.002" fill-rule="evenodd" fill="#fff"/><path d="M274.781 217.2a1.14 1.14 0 1 1 2.28-.003 1.14 1.14 0 0 1-2.28.002zm0 0" fill="none" stroke-width=".06" stroke-linecap="square" stroke-linejoin="bevel" stroke="#000" stroke-miterlimit="10"/><path d="M278.262 207.781h-4.563v4.559h4.563zm0 0" fill="green" stroke-width=".12" stroke-linecap="round" stroke-linejoin="round" stroke="green" stroke-miterlimit="10"/><path d="M274.781 210.059c0-.63.508-1.137 1.14-1.137a1.139 1.139 0 1 1-1.14 1.137" fill-rule="evenodd" fill="#fff"/><path d="M274.781 210.059c0-.63.508-1.137 1.14-1.137a1.139 1.139 0 1 1-1.14 1.137zm0 0" fill="none" stroke-width=".06" stroke-linecap="square" stroke-linejoin="bevel" stroke="#000" stroke-miterlimit="10"/><path d="M320.86 201.18h-3.481v3.36h3.48zm0 0" fill="green" stroke-width=".12" stroke-linecap="round" stroke-linejoin="round" stroke="green" stroke-miterlimit="10"/><path d="M318.04 202.86a1.02 1.02 0 1 1 2.04 0 1.02 1.02 0 0 1-2.04 0" fill-rule="evenodd" fill="#fff"/><path d="M318.04 202.86a1.02 1.02 0 1 1 2.04 0 1.02 1.02 0 0 1-2.04 0zm0 0" fill="none" stroke-width=".06" stroke-linecap="square" stroke-linejoin="bevel" stroke="#000" stroke-miterlimit="10"/><path d="M317.32 188.46c0-.929.778-1.679 1.739-1.679.96 0 1.742.75 1.742 1.68 0 .926-.781 1.68-1.742 1.68s-1.739-.754-1.739-1.68" fill-rule="evenodd" fill="green"/><path d="M317.32 188.46c0-.929.778-1.679 1.739-1.679.96 0 1.742.75 1.742 1.68 0 .926-.781 1.68-1.742 1.68s-1.739-.754-1.739-1.68zm0 0" fill="none" stroke-width=".12" stroke-linecap="round" stroke-linejoin="round" stroke="green" stroke-miterlimit="10"/><path d="M318.04 188.46a1.02 1.02 0 1 1 2.04.002 1.02 1.02 0 0 1-2.04-.001" fill-rule="evenodd" fill="#fff"/><path d="M318.04 188.46a1.02 1.02 0 1 1 2.04.002 1.02 1.02 0 0 1-2.04-.001zm0 0" fill="none" stroke-width=".06" stroke-linecap="square" stroke-linejoin="bevel" stroke="#000" stroke-miterlimit="10"/><path d="M328.18 208.2h-3.72v3.718h3.72zm0 0" fill="green" stroke-width=".12" stroke-linecap="round" stroke-linejoin="round" stroke="green" stroke-miterlimit="10"/><path d="M325.121 210.059c0-.63.508-1.137 1.14-1.137a1.139 1.139 0 1 1-1.14 1.137" fill-rule="evenodd" fill="#fff"/><path d="M325.121 210.059c0-.63.508-1.137 1.14-1.137a1.139 1.139 0 1 1-1.14 1.137zm0 0" fill="none" stroke-width=".06" stroke-linecap="square" stroke-linejoin="bevel" stroke="#000" stroke-miterlimit="10"/><path d="M310 210.059a1.859 1.859 0 1 1 3.719 0 1.862 1.862 0 0 1-1.86 1.863 1.862 1.862 0 0 1-1.859-1.863" fill-rule="evenodd" fill="green"/><path d="M310 210.059a1.859 1.859 0 1 1 3.719 0 1.862 1.862 0 0 1-1.86 1.863 1.862 1.862 0 0 1-1.859-1.863zm0 0" fill="none" stroke-width=".12" stroke-linecap="round" stroke-linejoin="round" stroke="green" stroke-miterlimit="10"/><path d="M310.719 210.059c0-.63.511-1.137 1.14-1.137a1.139 1.139 0 1 1 0 2.277c-.629 0-1.14-.512-1.14-1.14" fill-rule="evenodd" fill="#fff"/><path d="M310.719 210.059c0-.63.511-1.137 1.14-1.137a1.139 1.139 0 1 1 0 2.277 1.14 1.14 0 0 1-1.14-1.14zm0 0" fill="none" stroke-width=".06" stroke-linecap="square" stroke-linejoin="bevel" stroke="#000" stroke-miterlimit="10"/><path d="M281.262 217.2a1.859 1.859 0 1 1 3.717-.002 1.859 1.859 0 0 1-3.717.001" fill-rule="evenodd" fill="green"/><path d="M281.262 217.2a1.859 1.859 0 1 1 3.717-.002 1.859 1.859 0 0 1-3.717.001zm0 0" fill="none" stroke-width=".12" stroke-linecap="round" stroke-linejoin="round" stroke="green" stroke-miterlimit="10"/><path d="M281.98 217.2a1.14 1.14 0 1 1 2.282 0 1.14 1.14 0 1 1-2.281 0" fill-rule="evenodd" fill="#fff"/><path d="M281.98 217.2a1.14 1.14 0 1 1 2.282 0 1.14 1.14 0 1 1-2.281 0zm0 0" fill="none" stroke-width=".06" stroke-linecap="square" stroke-linejoin="bevel" stroke="#000" stroke-miterlimit="10"/><path d="M295.602 217.2a1.859 1.859 0 1 1 3.717-.002 1.859 1.859 0 0 1-3.717.001" fill-rule="evenodd" fill="green"/><path d="M295.602 217.2a1.859 1.859 0 1 1 3.717-.002 1.859 1.859 0 0 1-3.717.001zm0 0" fill="none" stroke-width=".12" stroke-linecap="round" stroke-linejoin="round" stroke="green" stroke-miterlimit="10"/><path d="M296.32 217.2a1.14 1.14 0 1 1 2.282 0c0 .628-.512 1.14-1.141 1.14a1.14 1.14 0 0 1-1.14-1.14" fill-rule="evenodd" fill="#fff"/><path d="M296.32 217.2a1.14 1.14 0 1 1 2.282 0c0 .628-.512 1.14-1.141 1.14a1.14 1.14 0 0 1-1.14-1.14zm0 0" fill="none" stroke-width=".06" stroke-linecap="square" stroke-linejoin="bevel" stroke="#000" stroke-miterlimit="10"/><path d="M281.262 202.86a1.859 1.859 0 1 1 3.717-.002 1.859 1.859 0 0 1-3.717.001" fill-rule="evenodd" fill="green"/><path d="M281.262 202.86a1.859 1.859 0 1 1 3.717-.002 1.859 1.859 0 0 1-3.717.001zm0 0" fill="none" stroke-width=".12" stroke-linecap="round" stroke-linejoin="round" stroke="green" stroke-miterlimit="10"/><path d="M281.98 202.86a1.14 1.14 0 1 1 2.282 0 1.14 1.14 0 1 1-2.281 0" fill-rule="evenodd" fill="#fff"/><path d="M281.98 202.86a1.14 1.14 0 1 1 2.282 0 1.14 1.14 0 1 1-2.281 0zm0 0" fill="none" stroke-width=".06" stroke-linecap="square" stroke-linejoin="bevel" stroke="#000" stroke-miterlimit="10"/><path d="M295.602 202.86a1.859 1.859 0 1 1 3.717-.002 1.859 1.859 0 0 1-3.717.001" fill-rule="evenodd" fill="green"/><path d="M295.602 202.86a1.859 1.859 0 1 1 3.717-.002 1.859 1.859 0 0 1-3.717.001zm0 0" fill="none" stroke-width=".12" stroke-linecap="round" stroke-linejoin="round" stroke="green" stroke-miterlimit="10"/><path d="M296.32 202.86a1.14 1.14 0 1 1 2.282 0c0 .628-.512 1.14-1.141 1.14a1.14 1.14 0 0 1-1.14-1.14" fill-rule="evenodd" fill="#fff"/><path d="M296.32 202.86a1.14 1.14 0 1 1 2.282 0c0 .628-.512 1.14-1.141 1.14a1.14 1.14 0 0 1-1.14-1.14zm0 0" fill="none" stroke-width=".06" stroke-linecap="square" stroke-linejoin="bevel" stroke="#000" stroke-miterlimit="10"/><path d="M338.14 224.398a2.52 2.52 0 1 1 5.042.003 2.52 2.52 0 0 1-5.041-.003" fill-rule="evenodd" fill="green"/><path d="M338.14 224.398a2.52 2.52 0 1 1 5.042.003 2.52 2.52 0 0 1-5.041-.003zm0 0" fill="none" stroke-width=".12" stroke-linecap="round" stroke-linejoin="round" stroke="green" stroke-miterlimit="10"/><path d="M339.219 224.398a1.442 1.442 0 0 1 2.883 0c0 .797-.649 1.442-1.442 1.442a1.44 1.44 0 0 1-1.441-1.442" fill-rule="evenodd" fill="#fff"/><path d="M339.219 224.398a1.442 1.442 0 0 1 2.883 0c0 .797-.649 1.442-1.442 1.442a1.44 1.44 0 0 1-1.441-1.442zm0 0" fill="none" stroke-width=".06" stroke-linecap="square" stroke-linejoin="bevel" stroke="#000" stroke-miterlimit="10"/><path d="M338.14 231.602a2.521 2.521 0 0 1 2.52-2.524 2.521 2.521 0 0 1 0 5.043 2.52 2.52 0 0 1-2.52-2.52" fill-rule="evenodd" fill="green"/><path d="M338.14 231.602a2.521 2.521 0 0 1 2.52-2.524 2.521 2.521 0 0 1 0 5.043 2.52 2.52 0 0 1-2.52-2.52zm0 0" fill="none" stroke-width=".12" stroke-linecap="round" stroke-linejoin="round" stroke="green" stroke-miterlimit="10"/><path d="M339.219 231.602a1.44 1.44 0 1 1 2.88-.003 1.44 1.44 0 0 1-2.88.003" fill-rule="evenodd" fill="#fff"/><path d="M339.219 231.602a1.44 1.44 0 1 1 2.88-.003 1.44 1.44 0 0 1-2.88.003zm0 0" fill="none" stroke-width=".06" stroke-linecap="square" stroke-linejoin="bevel" stroke="#000" stroke-miterlimit="10"/><path d="M251.8 188.46a2.518 2.518 0 0 1 2.52-2.519 2.52 2.52 0 1 1-2.52 2.52" fill-rule="evenodd" fill="green"/><path d="M251.8 188.46a2.518 2.518 0 0 1 2.52-2.519 2.52 2.52 0 1 1-2.52 2.52zm0 0" fill="none" stroke-width=".12" stroke-linecap="round" stroke-linejoin="round" stroke="green" stroke-miterlimit="10"/><path d="M252.879 188.46a1.44 1.44 0 1 1 2.88-.001 1.44 1.44 0 0 1-2.88.002" fill-rule="evenodd" fill="#fff"/><path d="M252.879 188.46a1.44 1.44 0 1 1 2.88-.001 1.44 1.44 0 0 1-2.88.002zm0 0" fill="none" stroke-width=".06" stroke-linecap="square" stroke-linejoin="bevel" stroke="#000" stroke-miterlimit="10"/><path d="M259 188.46a2.518 2.518 0 0 1 2.52-2.519 2.52 2.52 0 1 1-2.52 2.52" fill-rule="evenodd" fill="green"/><path d="M259 188.46a2.518 2.518 0 0 1 2.52-2.519 2.52 2.52 0 1 1-2.52 2.52zm0 0" fill="none" stroke-width=".12" stroke-linecap="round" stroke-linejoin="round" stroke="green" stroke-miterlimit="10"/><path d="M260.078 188.46c0-.796.649-1.44 1.442-1.44a1.44 1.44 0 1 1-1.442 1.44" fill-rule="evenodd" fill="#fff"/><path d="M260.078 188.46c0-.796.649-1.44 1.442-1.44a1.44 1.44 0 1 1-1.442 1.44zm0 0" fill="none" stroke-width=".06" stroke-linecap="square" stroke-linejoin="bevel" stroke="#000" stroke-miterlimit="10"/><path d="M281.379 210.059c0-.926.781-1.68 1.742-1.68s1.738.754 1.738 1.68c0 .93-.777 1.68-1.738 1.68-.96 0-1.742-.75-1.742-1.68" fill-rule="evenodd" fill="green"/><path d="M281.379 210.059c0-.926.781-1.68 1.742-1.68s1.738.754 1.738 1.68c0 .93-.777 1.68-1.738 1.68-.96 0-1.742-.75-1.742-1.68zm0 0" fill="none" stroke-width=".12" stroke-linecap="round" stroke-linejoin="round" stroke="green" stroke-miterlimit="10"/><path d="M282.102 210.059a1.02 1.02 0 1 1 2.04.001 1.02 1.02 0 0 1-2.04-.001" fill-rule="evenodd" fill="#fff"/><path d="M282.102 210.059a1.02 1.02 0 1 1 2.04.001 1.02 1.02 0 0 1-2.04-.001zm0 0" fill="none" stroke-width=".06" stroke-linecap="square" stroke-linejoin="bevel" stroke="#000" stroke-miterlimit="10"/><path d="M302.922 210.059c0-.926.777-1.68 1.738-1.68s1.738.754 1.738 1.68c0 .93-.777 1.68-1.738 1.68-.96 0-1.738-.75-1.738-1.68" fill-rule="evenodd" fill="green"/><path d="M302.922 210.059c0-.926.777-1.68 1.738-1.68s1.738.754 1.738 1.68c0 .93-.777 1.68-1.738 1.68-.96 0-1.738-.75-1.738-1.68zm0 0" fill="none" stroke-width=".12" stroke-linecap="round" stroke-linejoin="round" stroke="green" stroke-miterlimit="10"/><path d="M303.64 210.059a1.02 1.02 0 1 1 2.041.001 1.02 1.02 0 0 1-2.04-.001" fill-rule="evenodd" fill="#fff"/><path d="M303.64 210.059a1.02 1.02 0 1 1 2.041.001 1.02 1.02 0 0 1-2.04-.001zm0 0" fill="none" stroke-width=".06" stroke-linecap="square" stroke-linejoin="bevel" stroke="#000" stroke-miterlimit="10"/><path d="M310 217.2a1.859 1.859 0 1 1 3.718-.002 1.859 1.859 0 0 1-3.718.001" fill-rule="evenodd" fill="green"/><path d="M310 217.2a1.859 1.859 0 1 1 3.718-.002 1.859 1.859 0 0 1-3.718.001zm0 0" fill="none" stroke-width=".12" stroke-linecap="round" stroke-linejoin="round" stroke="green" stroke-miterlimit="10"/><path d="M310.719 217.2a1.141 1.141 0 1 1 2.282.002 1.141 1.141 0 0 1-2.282-.003" fill-rule="evenodd" fill="#fff"/><path d="M310.719 217.2a1.141 1.141 0 1 1 2.282.002 1.141 1.141 0 0 1-2.282-.003zm0 0" fill="none" stroke-width=".06" stroke-linecap="square" stroke-linejoin="bevel" stroke="#000" stroke-miterlimit="10"/><path d="M324.398 217.2a1.862 1.862 0 0 1 3.723 0 1.861 1.861 0 0 1-3.723 0" fill-rule="evenodd" fill="green"/><path d="M324.398 217.2a1.862 1.862 0 0 1 3.723 0 1.861 1.861 0 0 1-3.723 0zm0 0" fill="none" stroke-width=".12" stroke-linecap="round" stroke-linejoin="round" stroke="green" stroke-miterlimit="10"/><path d="M325.121 217.2a1.14 1.14 0 1 1 2.279-.003 1.14 1.14 0 0 1-2.279.002" fill-rule="evenodd" fill="#fff"/><path d="M325.121 217.2a1.14 1.14 0 1 1 2.279-.003 1.14 1.14 0 0 1-2.279.002zm0 0" fill="none" stroke-width=".06" stroke-linecap="square" stroke-linejoin="bevel" stroke="#000" stroke-miterlimit="10"/><path d="M331.602 224.398a1.859 1.859 0 1 1 3.718 0 1.862 1.862 0 0 1-1.86 1.864 1.862 1.862 0 0 1-1.858-1.864" fill-rule="evenodd" fill="green"/><path d="M331.602 224.398a1.859 1.859 0 1 1 3.718 0 1.862 1.862 0 0 1-1.86 1.864 1.862 1.862 0 0 1-1.858-1.864zm0 0" fill="none" stroke-width=".12" stroke-linecap="round" stroke-linejoin="round" stroke="green" stroke-miterlimit="10"/><path d="M332.32 224.398c0-.628.508-1.136 1.14-1.136a1.139 1.139 0 1 1 0 2.277c-.632 0-1.14-.508-1.14-1.14" fill-rule="evenodd" fill="#fff"/><path d="M332.32 224.398c0-.628.508-1.136 1.14-1.136a1.139 1.139 0 1 1 0 2.277c-.632 0-1.14-.508-1.14-1.14zm0 0" fill="none" stroke-width=".06" stroke-linecap="square" stroke-linejoin="bevel" stroke="#000" stroke-miterlimit="10"/><path d="M317.2 224.398a1.862 1.862 0 0 1 3.723 0 1.865 1.865 0 0 1-1.864 1.864 1.862 1.862 0 0 1-1.86-1.864" fill-rule="evenodd" fill="green"/><path d="M317.2 224.398a1.862 1.862 0 0 1 3.723 0 1.865 1.865 0 0 1-1.864 1.864 1.862 1.862 0 0 1-1.86-1.864zm0 0" fill="none" stroke-width=".12" stroke-linecap="round" stroke-linejoin="round" stroke="green" stroke-miterlimit="10"/><path d="M317.922 224.398a1.139 1.139 0 1 1 1.137 1.14 1.136 1.136 0 0 1-1.137-1.14" fill-rule="evenodd" fill="#fff"/><path d="M317.922 224.398a1.139 1.139 0 1 1 1.137 1.14 1.136 1.136 0 0 1-1.137-1.14zm0 0" fill="none" stroke-width=".06" stroke-linecap="square" stroke-linejoin="bevel" stroke="#000" stroke-miterlimit="10"/><path d="M331.602 195.66a1.859 1.859 0 1 1 3.717-.001 1.859 1.859 0 0 1-3.717.001" fill-rule="evenodd" fill="green"/><path d="M331.602 195.66a1.859 1.859 0 1 1 3.717-.001 1.859 1.859 0 0 1-3.717.001zm0 0" fill="none" stroke-width=".12" stroke-linecap="round" stroke-linejoin="round" stroke="green" stroke-miterlimit="10"/><path d="M332.32 195.66a1.14 1.14 0 1 1 2.282 0c0 .63-.512 1.14-1.141 1.14a1.14 1.14 0 0 1-1.14-1.14" fill-rule="evenodd" fill="#fff"/><path d="M332.32 195.66a1.14 1.14 0 1 1 2.282 0c0 .63-.512 1.14-1.141 1.14a1.14 1.14 0 0 1-1.14-1.14zm0 0" fill="none" stroke-width=".06" stroke-linecap="square" stroke-linejoin="bevel" stroke="#000" stroke-miterlimit="10"/><path d="M331.602 217.2a1.859 1.859 0 1 1 3.717-.002 1.859 1.859 0 0 1-3.717.001" fill-rule="evenodd" fill="green"/><path d="M331.602 217.2a1.859 1.859 0 1 1 3.717-.002 1.859 1.859 0 0 1-3.717.001zm0 0" fill="none" stroke-width=".12" stroke-linecap="round" stroke-linejoin="round" stroke="green" stroke-miterlimit="10"/><path d="M332.32 217.2a1.14 1.14 0 1 1 2.282 0c0 .628-.512 1.14-1.141 1.14a1.14 1.14 0 0 1-1.14-1.14" fill-rule="evenodd" fill="#fff"/><path d="M332.32 217.2a1.14 1.14 0 1 1 2.282 0c0 .628-.512 1.14-1.141 1.14a1.14 1.14 0 0 1-1.14-1.14zm0 0" fill="none" stroke-width=".06" stroke-linecap="square" stroke-linejoin="bevel" stroke="#000" stroke-miterlimit="10"/><path d="M258.762 224.398a2.76 2.76 0 1 1 2.758 2.762 2.758 2.758 0 0 1-2.758-2.762" fill-rule="evenodd" fill="green"/><path d="M258.762 224.398a2.76 2.76 0 1 1 2.758 2.762 2.758 2.758 0 0 1-2.758-2.762zm0 0" fill="none" stroke-width=".12" stroke-linecap="round" stroke-linejoin="round" stroke="green" stroke-miterlimit="10"/><path d="M260.078 224.398a1.442 1.442 0 0 1 2.883 0 1.44 1.44 0 1 1-2.883 0" fill-rule="evenodd" fill="#fff"/><path d="M260.078 224.398a1.442 1.442 0 0 1 2.883 0 1.44 1.44 0 1 1-2.883 0zm0 0" fill="none" stroke-width=".06" stroke-linecap="square" stroke-linejoin="bevel" stroke="#000" stroke-miterlimit="10"/><path d="M258.762 217.2a2.76 2.76 0 0 1 5.52 0 2.764 2.764 0 0 1-2.762 2.76 2.76 2.76 0 0 1-2.758-2.76" fill-rule="evenodd" fill="green"/><path d="M258.762 217.2a2.76 2.76 0 0 1 5.52 0 2.764 2.764 0 0 1-2.762 2.76 2.76 2.76 0 0 1-2.758-2.76zm0 0" fill="none" stroke-width=".12" stroke-linecap="round" stroke-linejoin="round" stroke="green" stroke-miterlimit="10"/><path d="M260.078 217.2a1.442 1.442 0 0 1 2.883 0 1.44 1.44 0 1 1-2.883 0" fill-rule="evenodd" fill="#fff"/><path d="M260.078 217.2a1.442 1.442 0 0 1 2.883 0 1.44 1.44 0 1 1-2.883 0zm0 0" fill="none" stroke-width=".06" stroke-linecap="square" stroke-linejoin="bevel" stroke="#000" stroke-miterlimit="10"/><path d="M258.762 210.059a2.76 2.76 0 1 1 2.758 2.762 2.758 2.758 0 0 1-2.758-2.762" fill-rule="evenodd" fill="green"/><path d="M258.762 210.059a2.76 2.76 0 1 1 2.758 2.762 2.758 2.758 0 0 1-2.758-2.762zm0 0" fill="none" stroke-width=".12" stroke-linecap="round" stroke-linejoin="round" stroke="green" stroke-miterlimit="10"/><path d="M260.078 210.059a1.442 1.442 0 0 1 2.883 0 1.44 1.44 0 1 1-2.883 0" fill-rule="evenodd" fill="#fff"/><path d="M260.078 210.059a1.442 1.442 0 0 1 2.883 0 1.44 1.44 0 1 1-2.883 0zm0 0" fill="none" stroke-width=".06" stroke-linecap="square" stroke-linejoin="bevel" stroke="#000" stroke-miterlimit="10"/><path d="M273.879 202.86a2.041 2.041 0 0 1 4.082 0 2.038 2.038 0 0 1-2.04 2.038 2.039 2.039 0 0 1-2.042-2.039" fill-rule="evenodd" fill="green"/><path d="M273.879 202.86a2.041 2.041 0 0 1 4.082 0 2.038 2.038 0 0 1-2.04 2.038 2.039 2.039 0 0 1-2.042-2.039zm0 0" fill="none" stroke-width=".12" stroke-linecap="round" stroke-linejoin="round" stroke="green" stroke-miterlimit="10"/><path d="M274.898 202.86a1.021 1.021 0 0 1 2.043 0 1.021 1.021 0 1 1-2.043 0" fill-rule="evenodd" fill="#fff"/><path d="M274.898 202.86a1.021 1.021 0 0 1 2.043 0 1.021 1.021 0 1 1-2.043 0zm0 0" fill="none" stroke-width=".06" stroke-linecap="square" stroke-linejoin="bevel" stroke="#000" stroke-miterlimit="10"/><path d="M273.879 188.46c0-1.128.914-2.038 2.043-2.038a2.038 2.038 0 1 1 0 4.078 2.041 2.041 0 0 1-2.043-2.04" fill-rule="evenodd" fill="green"/><path d="M273.879 188.46c0-1.128.914-2.038 2.043-2.038a2.038 2.038 0 1 1 0 4.078 2.041 2.041 0 0 1-2.043-2.04zm0 0" fill="none" stroke-width=".12" stroke-linecap="round" stroke-linejoin="round" stroke="green" stroke-miterlimit="10"/><path d="M274.898 188.46a1.021 1.021 0 0 1 2.043 0 1.021 1.021 0 1 1-2.043 0" fill-rule="evenodd" fill="#fff"/><path d="M274.898 188.46a1.021 1.021 0 0 1 2.043 0 1.021 1.021 0 1 1-2.043 0zm0 0" fill="none" stroke-width=".06" stroke-linecap="square" stroke-linejoin="bevel" stroke="#000" stroke-miterlimit="10"/><path d="M273.879 195.66c0-1.129.914-2.039 2.043-2.039a2.038 2.038 0 1 1 0 4.078 2.041 2.041 0 0 1-2.043-2.039" fill-rule="evenodd" fill="green"/><path d="M273.879 195.66c0-1.129.914-2.039 2.043-2.039a2.038 2.038 0 1 1 0 4.078 2.041 2.041 0 0 1-2.043-2.039zm0 0" fill="none" stroke-width=".12" stroke-linecap="round" stroke-linejoin="round" stroke="green" stroke-miterlimit="10"/><path d="M274.898 195.66a1.021 1.021 0 0 1 2.043 0 1.021 1.021 0 1 1-2.043 0" fill-rule="evenodd" fill="#fff"/><path d="M274.898 195.66a1.021 1.021 0 0 1 2.043 0 1.021 1.021 0 1 1-2.043 0zm0 0" fill="none" stroke-width=".06" stroke-linecap="square" stroke-linejoin="bevel" stroke="#000" stroke-miterlimit="10"/><path d="M302.621 188.46c0-1.128.91-2.038 2.04-2.038a2.038 2.038 0 1 1 0 4.078 2.038 2.038 0 0 1-2.04-2.04" fill-rule="evenodd" fill="green"/><path d="M302.621 188.46c0-1.128.91-2.038 2.04-2.038a2.038 2.038 0 1 1 0 4.078 2.038 2.038 0 0 1-2.04-2.04zm0 0" fill="none" stroke-width=".12" stroke-linecap="round" stroke-linejoin="round" stroke="green" stroke-miterlimit="10"/><path d="M303.64 188.46a1.02 1.02 0 1 1 2.041.002 1.02 1.02 0 0 1-2.04-.001" fill-rule="evenodd" fill="#fff"/><path d="M303.64 188.46a1.02 1.02 0 1 1 2.041.002 1.02 1.02 0 0 1-2.04-.001zm0 0" fill="none" stroke-width=".06" stroke-linecap="square" stroke-linejoin="bevel" stroke="#000" stroke-miterlimit="10"/><path d="M302.621 202.86a2.038 2.038 0 1 1 4.078 0 2.038 2.038 0 0 1-2.039 2.038 2.035 2.035 0 0 1-2.039-2.039" fill-rule="evenodd" fill="green"/><path d="M302.621 202.86a2.038 2.038 0 1 1 4.078 0 2.038 2.038 0 0 1-2.039 2.038 2.035 2.035 0 0 1-2.039-2.039zm0 0" fill="none" stroke-width=".12" stroke-linecap="round" stroke-linejoin="round" stroke="green" stroke-miterlimit="10"/><path d="M303.64 202.86a1.02 1.02 0 1 1 2.041 0 1.02 1.02 0 0 1-2.04 0" fill-rule="evenodd" fill="#fff"/><path d="M303.64 202.86a1.02 1.02 0 1 1 2.041 0 1.02 1.02 0 0 1-2.04 0zm0 0" fill="none" stroke-width=".06" stroke-linecap="square" stroke-linejoin="bevel" stroke="#000" stroke-miterlimit="10"/><path d="M302.621 195.66c0-1.129.91-2.039 2.04-2.039a2.038 2.038 0 1 1 0 4.078 2.038 2.038 0 0 1-2.04-2.039" fill-rule="evenodd" fill="green"/><path d="M302.621 195.66c0-1.129.91-2.039 2.04-2.039a2.038 2.038 0 1 1 0 4.078 2.038 2.038 0 0 1-2.04-2.039zm0 0" fill="none" stroke-width=".12" stroke-linecap="round" stroke-linejoin="round" stroke="green" stroke-miterlimit="10"/><path d="M303.64 195.66a1.02 1.02 0 1 1 2.041.002 1.02 1.02 0 0 1-2.04-.002" fill-rule="evenodd" fill="#fff"/><path d="M303.64 195.66a1.02 1.02 0 1 1 2.041.002 1.02 1.02 0 0 1-2.04-.002zm0 0" fill="none" stroke-width=".06" stroke-linecap="square" stroke-linejoin="bevel" stroke="#000" stroke-miterlimit="10"/><path d="M302.621 231.602a2.039 2.039 0 1 1 4.078 0 2.038 2.038 0 1 1-4.078 0" fill-rule="evenodd" fill="green"/><path d="M302.621 231.602a2.039 2.039 0 1 1 4.078 0 2.038 2.038 0 1 1-4.078 0zm0 0" fill="none" stroke-width=".12" stroke-linecap="round" stroke-linejoin="round" stroke="green" stroke-miterlimit="10"/><path d="M303.64 231.602c0-.567.458-1.024 1.02-1.024a1.021 1.021 0 0 1 0 2.043 1.02 1.02 0 0 1-1.02-1.02" fill-rule="evenodd" fill="#fff"/><path d="M303.64 231.602c0-.567.458-1.024 1.02-1.024a1.021 1.021 0 0 1 0 2.043 1.02 1.02 0 0 1-1.02-1.02zm0 0" fill="none" stroke-width=".06" stroke-linecap="square" stroke-linejoin="bevel" stroke="#000" stroke-miterlimit="10"/><path d="M302.621 217.2a2.038 2.038 0 1 1 4.078 0 2.038 2.038 0 0 1-2.039 2.038 2.035 2.035 0 0 1-2.039-2.039" fill-rule="evenodd" fill="green"/><path d="M302.621 217.2a2.038 2.038 0 1 1 4.078 0 2.038 2.038 0 0 1-2.039 2.038 2.035 2.035 0 0 1-2.039-2.039zm0 0" fill="none" stroke-width=".12" stroke-linecap="round" stroke-linejoin="round" stroke="green" stroke-miterlimit="10"/><path d="M303.64 217.2a1.02 1.02 0 1 1 2.041 0 1.02 1.02 0 0 1-2.04 0" fill-rule="evenodd" fill="#fff"/><path d="M303.64 217.2a1.02 1.02 0 1 1 2.041 0 1.02 1.02 0 0 1-2.04 0zm0 0" fill="none" stroke-width=".06" stroke-linecap="square" stroke-linejoin="bevel" stroke="#000" stroke-miterlimit="10"/><path d="M302.621 224.398a2.038 2.038 0 1 1 4.078 0 2.039 2.039 0 1 1-4.078 0" fill-rule="evenodd" fill="green"/><path d="M302.621 224.398a2.038 2.038 0 1 1 4.078 0 2.039 2.039 0 1 1-4.078 0zm0 0" fill="none" stroke-width=".12" stroke-linecap="round" stroke-linejoin="round" stroke="green" stroke-miterlimit="10"/><path d="M303.64 224.398a1.02 1.02 0 1 1 1.02 1.024c-.562 0-1.02-.457-1.02-1.024" fill-rule="evenodd" fill="#fff"/><path d="M303.64 224.398a1.02 1.02 0 1 1 1.02 1.024c-.562 0-1.02-.457-1.02-1.024zm0 0" fill="none" stroke-width=".06" stroke-linecap="square" stroke-linejoin="bevel" stroke="#000" stroke-miterlimit="10"/><path d="M311.922 217.2v7.198m0 0h-7.203m0 0h-7.2m.001 0V217.2m7.199-21.54h-21.54m.001 0v7.2m0 0h-7.2m21.54 0h-7.2m0 0v14.34m0 0h-7.14m21.539-7.141v7.14m7.203-7.14h-7.203m0-7.199v7.199m-43.141 14.339h14.402m0-7.198h-14.402m21.602-7.141h-7.2m0 0h-7.199m0 0V195.66m0 0h7.2m64.738-7.2H319.12m.001 0H304.72m-43.142 0v21.599m14.402-21.599h28.739m-43.141 0h14.402m50.34 28.74v7.198m0 0h7.2m3.601 0h-3.601m0 0h7.199M326.32 217.2v-7.141m-50.34 21.543h-21.6m-.001 0V188.46m79.141 7.2h-14.4m.001 0v7.2m0 0v21.538m0 0v7.204m0 0H304.72m14.401 0h21.598m0 0h3.601m-3.601-35.942v21.54m0 0h-7.2" fill="none" stroke-width="3.6" stroke-linecap="round" stroke-linejoin="round" stroke="navy" stroke-miterlimit="10"/><path d="M338.14 188.46a2.518 2.518 0 0 1 2.52-2.519 2.52 2.52 0 1 1-2.52 2.52" fill-rule="evenodd" fill="green"/><path d="M338.14 188.46a2.518 2.518 0 0 1 2.52-2.519 2.52 2.52 0 1 1-2.52 2.52zm0 0" fill="none" stroke-width=".12" stroke-linecap="round" stroke-linejoin="round" stroke="green" stroke-miterlimit="10"/><path d="M339.219 188.46a1.44 1.44 0 1 1 2.88-.001 1.44 1.44 0 0 1-2.88.002" fill-rule="evenodd" fill="#fff"/><path d="M339.219 188.46a1.44 1.44 0 1 1 2.88-.001 1.44 1.44 0 0 1-2.88.002zm0 0" fill="none" stroke-width=".06" stroke-linecap="square" stroke-linejoin="bevel" stroke="#000" stroke-miterlimit="10"/><path d="M338.14 195.66a2.52 2.52 0 0 1 5.04 0 2.52 2.52 0 0 1-5.04 0" fill-rule="evenodd" fill="green"/><path d="M338.14 195.66a2.52 2.52 0 0 1 5.04 0 2.52 2.52 0 0 1-5.04 0zm0 0" fill="none" stroke-width=".12" stroke-linecap="round" stroke-linejoin="round" stroke="green" stroke-miterlimit="10"/><path d="M339.219 195.66a1.44 1.44 0 1 1 2.88-.002 1.44 1.44 0 0 1-2.88.002" fill-rule="evenodd" fill="#fff"/><path d="M339.219 195.66a1.44 1.44 0 1 1 2.88-.002 1.44 1.44 0 0 1-2.88.002zm0 0" fill="none" stroke-width=".06" stroke-linecap="square" stroke-linejoin="bevel" stroke="#000" stroke-miterlimit="10"/><path d="M274.18 231.602c0-.93.78-1.68 1.742-1.68.96 0 1.738.75 1.738 1.68 0 .925-.777 1.68-1.738 1.68s-1.742-.755-1.742-1.68" fill-rule="evenodd" fill="green"/><path d="M274.18 231.602c0-.93.78-1.68 1.742-1.68.96 0 1.738.75 1.738 1.68 0 .925-.777 1.68-1.738 1.68s-1.742-.755-1.742-1.68zm0 0" fill="none" stroke-width=".12" stroke-linecap="round" stroke-linejoin="round" stroke="green" stroke-miterlimit="10"/><path d="M274.898 231.602a1.022 1.022 0 1 1 2.044-.003 1.022 1.022 0 0 1-2.044.003" fill-rule="evenodd" fill="#fff"/><path d="M274.898 231.602a1.022 1.022 0 1 1 2.044-.003 1.022 1.022 0 0 1-2.044.003zm0 0" fill="none" stroke-width=".06" stroke-linecap="square" stroke-linejoin="bevel" stroke="#000" stroke-miterlimit="10"/><path d="M277.719 222.719h-3.48v3.363h3.48zm0 0" fill="green" stroke-width=".12" stroke-linecap="round" stroke-linejoin="round" stroke="green" stroke-miterlimit="10"/><path d="M274.898 224.398a1.021 1.021 0 1 1 2.043.004 1.021 1.021 0 0 1-2.043-.004" fill-rule="evenodd" fill="#fff"/><path d="M274.898 224.398a1.021 1.021 0 1 1 2.043.004 1.021 1.021 0 0 1-2.043-.004zm0 0" fill="none" stroke-width=".06" stroke-linecap="square" stroke-linejoin="bevel" stroke="#000" stroke-miterlimit="10"/><path d="M273.64 217.2a2.278 2.278 0 0 1 2.282-2.278 2.277 2.277 0 0 1 2.277 2.277 2.278 2.278 0 1 1-4.558 0" fill-rule="evenodd" fill="green"/><path d="M273.64 217.2a2.278 2.278 0 0 1 2.282-2.278 2.277 2.277 0 0 1 2.277 2.277 2.278 2.278 0 1 1-4.558 0zm0 0" fill="none" stroke-width=".12" stroke-linecap="round" stroke-linejoin="round" stroke="green" stroke-miterlimit="10"/><path d="M274.781 217.2a1.14 1.14 0 1 1 2.28-.003 1.14 1.14 0 0 1-2.28.002" fill-rule="evenodd" fill="#fff"/><path d="M274.781 217.2a1.14 1.14 0 1 1 2.28-.003 1.14 1.14 0 0 1-2.28.002zm0 0" fill="none" stroke-width=".06" stroke-linecap="square" stroke-linejoin="bevel" stroke="#000" stroke-miterlimit="10"/><path d="M278.262 207.781h-4.563v4.559h4.563zm0 0" fill="green" stroke-width=".12" stroke-linecap="round" stroke-linejoin="round" stroke="green" stroke-miterlimit="10"/><path d="M274.781 210.059c0-.63.508-1.137 1.14-1.137a1.139 1.139 0 1 1-1.14 1.137" fill-rule="evenodd" fill="#fff"/><path d="M274.781 210.059c0-.63.508-1.137 1.14-1.137a1.139 1.139 0 1 1-1.14 1.137zm0 0" fill="none" stroke-width=".06" stroke-linecap="square" stroke-linejoin="bevel" stroke="#000" stroke-miterlimit="10"/><path d="M320.86 201.18h-3.481v3.36h3.48zm0 0" fill="green" stroke-width=".12" stroke-linecap="round" stroke-linejoin="round" stroke="green" stroke-miterlimit="10"/><path d="M318.04 202.86a1.02 1.02 0 1 1 2.04 0 1.02 1.02 0 0 1-2.04 0" fill-rule="evenodd" fill="#fff"/><path d="M318.04 202.86a1.02 1.02 0 1 1 2.04 0 1.02 1.02 0 0 1-2.04 0zm0 0" fill="none" stroke-width=".06" stroke-linecap="square" stroke-linejoin="bevel" stroke="#000" stroke-miterlimit="10"/><path d="M317.32 188.46c0-.929.778-1.679 1.739-1.679.96 0 1.742.75 1.742 1.68 0 .926-.781 1.68-1.742 1.68s-1.739-.754-1.739-1.68" fill-rule="evenodd" fill="green"/><path d="M317.32 188.46c0-.929.778-1.679 1.739-1.679.96 0 1.742.75 1.742 1.68 0 .926-.781 1.68-1.742 1.68s-1.739-.754-1.739-1.68zm0 0" fill="none" stroke-width=".12" stroke-linecap="round" stroke-linejoin="round" stroke="green" stroke-miterlimit="10"/><path d="M318.04 188.46a1.02 1.02 0 1 1 2.04.002 1.02 1.02 0 0 1-2.04-.001" fill-rule="evenodd" fill="#fff"/><path d="M318.04 188.46a1.02 1.02 0 1 1 2.04.002 1.02 1.02 0 0 1-2.04-.001zm0 0" fill="none" stroke-width=".06" stroke-linecap="square" stroke-linejoin="bevel" stroke="#000" stroke-miterlimit="10"/><path d="M328.18 208.2h-3.72v3.718h3.72zm0 0" fill="green" stroke-width=".12" stroke-linecap="round" stroke-linejoin="round" stroke="green" stroke-miterlimit="10"/><path d="M325.121 210.059c0-.63.508-1.137 1.14-1.137a1.139 1.139 0 1 1-1.14 1.137" fill-rule="evenodd" fill="#fff"/><path d="M325.121 210.059c0-.63.508-1.137 1.14-1.137a1.139 1.139 0 1 1-1.14 1.137zm0 0" fill="none" stroke-width=".06" stroke-linecap="square" stroke-linejoin="bevel" stroke="#000" stroke-miterlimit="10"/><path d="M310 210.059a1.859 1.859 0 1 1 3.719 0 1.862 1.862 0 0 1-1.86 1.863 1.862 1.862 0 0 1-1.859-1.863" fill-rule="evenodd" fill="green"/><path d="M310 210.059a1.859 1.859 0 1 1 3.719 0 1.862 1.862 0 0 1-1.86 1.863 1.862 1.862 0 0 1-1.859-1.863zm0 0" fill="none" stroke-width=".12" stroke-linecap="round" stroke-linejoin="round" stroke="green" stroke-miterlimit="10"/><path d="M310.719 210.059c0-.63.511-1.137 1.14-1.137a1.139 1.139 0 1 1 0 2.277c-.629 0-1.14-.512-1.14-1.14" fill-rule="evenodd" fill="#fff"/><path d="M310.719 210.059c0-.63.511-1.137 1.14-1.137a1.139 1.139 0 1 1 0 2.277 1.14 1.14 0 0 1-1.14-1.14zm0 0" fill="none" stroke-width=".06" stroke-linecap="square" stroke-linejoin="bevel" stroke="#000" stroke-miterlimit="10"/><path d="M281.262 217.2a1.859 1.859 0 1 1 3.717-.002 1.859 1.859 0 0 1-3.717.001" fill-rule="evenodd" fill="green"/><path d="M281.262 217.2a1.859 1.859 0 1 1 3.717-.002 1.859 1.859 0 0 1-3.717.001zm0 0" fill="none" stroke-width=".12" stroke-linecap="round" stroke-linejoin="round" stroke="green" stroke-miterlimit="10"/><path d="M281.98 217.2a1.14 1.14 0 1 1 2.282 0 1.14 1.14 0 1 1-2.281 0" fill-rule="evenodd" fill="#fff"/><path d="M281.98 217.2a1.14 1.14 0 1 1 2.282 0 1.14 1.14 0 1 1-2.281 0zm0 0" fill="none" stroke-width=".06" stroke-linecap="square" stroke-linejoin="bevel" stroke="#000" stroke-miterlimit="10"/><path d="M295.602 217.2a1.859 1.859 0 1 1 3.717-.002 1.859 1.859 0 0 1-3.717.001" fill-rule="evenodd" fill="green"/><path d="M295.602 217.2a1.859 1.859 0 1 1 3.717-.002 1.859 1.859 0 0 1-3.717.001zm0 0" fill="none" stroke-width=".12" stroke-linecap="round" stroke-linejoin="round" stroke="green" stroke-miterlimit="10"/><path d="M296.32 217.2a1.14 1.14 0 1 1 2.282 0c0 .628-.512 1.14-1.141 1.14a1.14 1.14 0 0 1-1.14-1.14" fill-rule="evenodd" fill="#fff"/><path d="M296.32 217.2a1.14 1.14 0 1 1 2.282 0c0 .628-.512 1.14-1.141 1.14a1.14 1.14 0 0 1-1.14-1.14zm0 0" fill="none" stroke-width=".06" stroke-linecap="square" stroke-linejoin="bevel" stroke="#000" stroke-miterlimit="10"/><path d="M281.262 202.86a1.859 1.859 0 1 1 3.717-.002 1.859 1.859 0 0 1-3.717.001" fill-rule="evenodd" fill="green"/><path d="M281.262 202.86a1.859 1.859 0 1 1 3.717-.002 1.859 1.859 0 0 1-3.717.001zm0 0" fill="none" stroke-width=".12" stroke-linecap="round" stroke-linejoin="round" stroke="green" stroke-miterlimit="10"/><path d="M281.98 202.86a1.14 1.14 0 1 1 2.282 0 1.14 1.14 0 1 1-2.281 0" fill-rule="evenodd" fill="#fff"/><path d="M281.98 202.86a1.14 1.14 0 1 1 2.282 0 1.14 1.14 0 1 1-2.281 0zm0 0" fill="none" stroke-width=".06" stroke-linecap="square" stroke-linejoin="bevel" stroke="#000" stroke-miterlimit="10"/><path d="M295.602 202.86a1.859 1.859 0 1 1 3.717-.002 1.859 1.859 0 0 1-3.717.001" fill-rule="evenodd" fill="green"/><path d="M295.602 202.86a1.859 1.859 0 1 1 3.717-.002 1.859 1.859 0 0 1-3.717.001zm0 0" fill="none" stroke-width=".12" stroke-linecap="round" stroke-linejoin="round" stroke="green" stroke-miterlimit="10"/><path d="M296.32 202.86a1.14 1.14 0 1 1 2.282 0c0 .628-.512 1.14-1.141 1.14a1.14 1.14 0 0 1-1.14-1.14" fill-rule="evenodd" fill="#fff"/><path d="M296.32 202.86a1.14 1.14 0 1 1 2.282 0c0 .628-.512 1.14-1.141 1.14a1.14 1.14 0 0 1-1.14-1.14zm0 0" fill="none" stroke-width=".06" stroke-linecap="square" stroke-linejoin="bevel" stroke="#000" stroke-miterlimit="10"/><path d="M338.14 224.398a2.52 2.52 0 1 1 5.042.003 2.52 2.52 0 0 1-5.041-.003" fill-rule="evenodd" fill="green"/><path d="M338.14 224.398a2.52 2.52 0 1 1 5.042.003 2.52 2.52 0 0 1-5.041-.003zm0 0" fill="none" stroke-width=".12" stroke-linecap="round" stroke-linejoin="round" stroke="green" stroke-miterlimit="10"/><path d="M339.219 224.398a1.442 1.442 0 0 1 2.883 0c0 .797-.649 1.442-1.442 1.442a1.44 1.44 0 0 1-1.441-1.442" fill-rule="evenodd" fill="#fff"/><path d="M339.219 224.398a1.442 1.442 0 0 1 2.883 0c0 .797-.649 1.442-1.442 1.442a1.44 1.44 0 0 1-1.441-1.442zm0 0" fill="none" stroke-width=".06" stroke-linecap="square" stroke-linejoin="bevel" stroke="#000" stroke-miterlimit="10"/><path d="M338.14 231.602a2.521 2.521 0 0 1 2.52-2.524 2.521 2.521 0 0 1 0 5.043 2.52 2.52 0 0 1-2.52-2.52" fill-rule="evenodd" fill="green"/><path d="M338.14 231.602a2.521 2.521 0 0 1 2.52-2.524 2.521 2.521 0 0 1 0 5.043 2.52 2.52 0 0 1-2.52-2.52zm0 0" fill="none" stroke-width=".12" stroke-linecap="round" stroke-linejoin="round" stroke="green" stroke-miterlimit="10"/><path d="M339.219 231.602a1.44 1.44 0 1 1 2.88-.003 1.44 1.44 0 0 1-2.88.003" fill-rule="evenodd" fill="#fff"/><path d="M339.219 231.602a1.44 1.44 0 1 1 2.88-.003 1.44 1.44 0 0 1-2.88.003zm0 0" fill="none" stroke-width=".06" stroke-linecap="square" stroke-linejoin="bevel" stroke="#000" stroke-miterlimit="10"/><path d="M251.8 188.46a2.518 2.518 0 0 1 2.52-2.519 2.52 2.52 0 1 1-2.52 2.52" fill-rule="evenodd" fill="green"/><path d="M251.8 188.46a2.518 2.518 0 0 1 2.52-2.519 2.52 2.52 0 1 1-2.52 2.52zm0 0" fill="none" stroke-width=".12" stroke-linecap="round" stroke-linejoin="round" stroke="green" stroke-miterlimit="10"/><path d="M252.879 188.46a1.44 1.44 0 1 1 2.88-.001 1.44 1.44 0 0 1-2.88.002" fill-rule="evenodd" fill="#fff"/><path d="M252.879 188.46a1.44 1.44 0 1 1 2.88-.001 1.44 1.44 0 0 1-2.88.002zm0 0" fill="none" stroke-width=".06" stroke-linecap="square" stroke-linejoin="bevel" stroke="#000" stroke-miterlimit="10"/><path d="M259 188.46a2.518 2.518 0 0 1 2.52-2.519 2.52 2.52 0 1 1-2.52 2.52" fill-rule="evenodd" fill="green"/><path d="M259 188.46a2.518 2.518 0 0 1 2.52-2.519 2.52 2.52 0 1 1-2.52 2.52zm0 0" fill="none" stroke-width=".12" stroke-linecap="round" stroke-linejoin="round" stroke="green" stroke-miterlimit="10"/><path d="M260.078 188.46c0-.796.649-1.44 1.442-1.44a1.44 1.44 0 1 1-1.442 1.44" fill-rule="evenodd" fill="#fff"/><path d="M260.078 188.46c0-.796.649-1.44 1.442-1.44a1.44 1.44 0 1 1-1.442 1.44zm0 0" fill="none" stroke-width=".06" stroke-linecap="square" stroke-linejoin="bevel" stroke="#000" stroke-miterlimit="10"/><path d="M281.379 210.059c0-.926.781-1.68 1.742-1.68s1.738.754 1.738 1.68c0 .93-.777 1.68-1.738 1.68-.96 0-1.742-.75-1.742-1.68" fill-rule="evenodd" fill="green"/><path d="M281.379 210.059c0-.926.781-1.68 1.742-1.68s1.738.754 1.738 1.68c0 .93-.777 1.68-1.738 1.68-.96 0-1.742-.75-1.742-1.68zm0 0" fill="none" stroke-width=".12" stroke-linecap="round" stroke-linejoin="round" stroke="green" stroke-miterlimit="10"/><path d="M282.102 210.059a1.02 1.02 0 1 1 2.04.001 1.02 1.02 0 0 1-2.04-.001" fill-rule="evenodd" fill="#fff"/><path d="M282.102 210.059a1.02 1.02 0 1 1 2.04.001 1.02 1.02 0 0 1-2.04-.001zm0 0" fill="none" stroke-width=".06" stroke-linecap="square" stroke-linejoin="bevel" stroke="#000" stroke-miterlimit="10"/><path d="M302.922 210.059c0-.926.777-1.68 1.738-1.68s1.738.754 1.738 1.68c0 .93-.777 1.68-1.738 1.68-.96 0-1.738-.75-1.738-1.68" fill-rule="evenodd" fill="green"/><path d="M302.922 210.059c0-.926.777-1.68 1.738-1.68s1.738.754 1.738 1.68c0 .93-.777 1.68-1.738 1.68-.96 0-1.738-.75-1.738-1.68zm0 0" fill="none" stroke-width=".12" stroke-linecap="round" stroke-linejoin="round" stroke="green" stroke-miterlimit="10"/><path d="M303.64 210.059a1.02 1.02 0 1 1 2.041.001 1.02 1.02 0 0 1-2.04-.001" fill-rule="evenodd" fill="#fff"/><path d="M303.64 210.059a1.02 1.02 0 1 1 2.041.001 1.02 1.02 0 0 1-2.04-.001zm0 0" fill="none" stroke-width=".06" stroke-linecap="square" stroke-linejoin="bevel" stroke="#000" stroke-miterlimit="10"/><path d="M310 217.2a1.859 1.859 0 1 1 3.718-.002 1.859 1.859 0 0 1-3.718.001" fill-rule="evenodd" fill="green"/><path d="M310 217.2a1.859 1.859 0 1 1 3.718-.002 1.859 1.859 0 0 1-3.718.001zm0 0" fill="none" stroke-width=".12" stroke-linecap="round" stroke-linejoin="round" stroke="green" stroke-miterlimit="10"/><path d="M310.719 217.2a1.141 1.141 0 1 1 2.282.002 1.141 1.141 0 0 1-2.282-.003" fill-rule="evenodd" fill="#fff"/><path d="M310.719 217.2a1.141 1.141 0 1 1 2.282.002 1.141 1.141 0 0 1-2.282-.003zm0 0" fill="none" stroke-width=".06" stroke-linecap="square" stroke-linejoin="bevel" stroke="#000" stroke-miterlimit="10"/><path d="M324.398 217.2a1.862 1.862 0 0 1 3.723 0 1.861 1.861 0 0 1-3.723 0" fill-rule="evenodd" fill="green"/><path d="M324.398 217.2a1.862 1.862 0 0 1 3.723 0 1.861 1.861 0 0 1-3.723 0zm0 0" fill="none" stroke-width=".12" stroke-linecap="round" stroke-linejoin="round" stroke="green" stroke-miterlimit="10"/><path d="M325.121 217.2a1.14 1.14 0 1 1 2.279-.003 1.14 1.14 0 0 1-2.279.002" fill-rule="evenodd" fill="#fff"/><path d="M325.121 217.2a1.14 1.14 0 1 1 2.279-.003 1.14 1.14 0 0 1-2.279.002zm0 0" fill="none" stroke-width=".06" stroke-linecap="square" stroke-linejoin="bevel" stroke="#000" stroke-miterlimit="10"/><path d="M331.602 224.398a1.859 1.859 0 1 1 3.718 0 1.862 1.862 0 0 1-1.86 1.864 1.862 1.862 0 0 1-1.858-1.864" fill-rule="evenodd" fill="green"/><path d="M331.602 224.398a1.859 1.859 0 1 1 3.718 0 1.862 1.862 0 0 1-1.86 1.864 1.862 1.862 0 0 1-1.858-1.864zm0 0" fill="none" stroke-width=".12" stroke-linecap="round" stroke-linejoin="round" stroke="green" stroke-miterlimit="10"/><path d="M332.32 224.398c0-.628.508-1.136 1.14-1.136a1.139 1.139 0 1 1 0 2.277c-.632 0-1.14-.508-1.14-1.14" fill-rule="evenodd" fill="#fff"/><path d="M332.32 224.398c0-.628.508-1.136 1.14-1.136a1.139 1.139 0 1 1 0 2.277c-.632 0-1.14-.508-1.14-1.14zm0 0" fill="none" stroke-width=".06" stroke-linecap="square" stroke-linejoin="bevel" stroke="#000" stroke-miterlimit="10"/><path d="M317.2 224.398a1.862 1.862 0 0 1 3.723 0 1.865 1.865 0 0 1-1.864 1.864 1.862 1.862 0 0 1-1.86-1.864" fill-rule="evenodd" fill="green"/><path d="M317.2 224.398a1.862 1.862 0 0 1 3.723 0 1.865 1.865 0 0 1-1.864 1.864 1.862 1.862 0 0 1-1.86-1.864zm0 0" fill="none" stroke-width=".12" stroke-linecap="round" stroke-linejoin="round" stroke="green" stroke-miterlimit="10"/><path d="M317.922 224.398a1.139 1.139 0 1 1 1.137 1.14 1.136 1.136 0 0 1-1.137-1.14" fill-rule="evenodd" fill="#fff"/><path d="M317.922 224.398a1.139 1.139 0 1 1 1.137 1.14 1.136 1.136 0 0 1-1.137-1.14zm0 0" fill="none" stroke-width=".06" stroke-linecap="square" stroke-linejoin="bevel" stroke="#000" stroke-miterlimit="10"/><path d="M331.602 195.66a1.859 1.859 0 1 1 3.717-.001 1.859 1.859 0 0 1-3.717.001" fill-rule="evenodd" fill="green"/><path d="M331.602 195.66a1.859 1.859 0 1 1 3.717-.001 1.859 1.859 0 0 1-3.717.001zm0 0" fill="none" stroke-width=".12" stroke-linecap="round" stroke-linejoin="round" stroke="green" stroke-miterlimit="10"/><path d="M332.32 195.66a1.14 1.14 0 1 1 2.282 0c0 .63-.512 1.14-1.141 1.14a1.14 1.14 0 0 1-1.14-1.14" fill-rule="evenodd" fill="#fff"/><path d="M332.32 195.66a1.14 1.14 0 1 1 2.282 0c0 .63-.512 1.14-1.141 1.14a1.14 1.14 0 0 1-1.14-1.14zm0 0" fill="none" stroke-width=".06" stroke-linecap="square" stroke-linejoin="bevel" stroke="#000" stroke-miterlimit="10"/><path d="M331.602 217.2a1.859 1.859 0 1 1 3.717-.002 1.859 1.859 0 0 1-3.717.001" fill-rule="evenodd" fill="green"/><path d="M331.602 217.2a1.859 1.859 0 1 1 3.717-.002 1.859 1.859 0 0 1-3.717.001zm0 0" fill="none" stroke-width=".12" stroke-linecap="round" stroke-linejoin="round" stroke="green" stroke-miterlimit="10"/><path d="M332.32 217.2a1.14 1.14 0 1 1 2.282 0c0 .628-.512 1.14-1.141 1.14a1.14 1.14 0 0 1-1.14-1.14" fill-rule="evenodd" fill="#fff"/><path d="M332.32 217.2a1.14 1.14 0 1 1 2.282 0c0 .628-.512 1.14-1.141 1.14a1.14 1.14 0 0 1-1.14-1.14zm0 0" fill="none" stroke-width=".06" stroke-linecap="square" stroke-linejoin="bevel" stroke="#000" stroke-miterlimit="10"/><path d="M258.762 224.398a2.76 2.76 0 1 1 2.758 2.762 2.758 2.758 0 0 1-2.758-2.762" fill-rule="evenodd" fill="green"/><path d="M258.762 224.398a2.76 2.76 0 1 1 2.758 2.762 2.758 2.758 0 0 1-2.758-2.762zm0 0" fill="none" stroke-width=".12" stroke-linecap="round" stroke-linejoin="round" stroke="green" stroke-miterlimit="10"/><path d="M260.078 224.398a1.442 1.442 0 0 1 2.883 0 1.44 1.44 0 1 1-2.883 0" fill-rule="evenodd" fill="#fff"/><path d="M260.078 224.398a1.442 1.442 0 0 1 2.883 0 1.44 1.44 0 1 1-2.883 0zm0 0" fill="none" stroke-width=".06" stroke-linecap="square" stroke-linejoin="bevel" stroke="#000" stroke-miterlimit="10"/><path d="M258.762 217.2a2.76 2.76 0 0 1 5.52 0 2.764 2.764 0 0 1-2.762 2.76 2.76 2.76 0 0 1-2.758-2.76" fill-rule="evenodd" fill="green"/><path d="M258.762 217.2a2.76 2.76 0 0 1 5.52 0 2.764 2.764 0 0 1-2.762 2.76 2.76 2.76 0 0 1-2.758-2.76zm0 0" fill="none" stroke-width=".12" stroke-linecap="round" stroke-linejoin="round" stroke="green" stroke-miterlimit="10"/><path d="M260.078 217.2a1.442 1.442 0 0 1 2.883 0 1.44 1.44 0 1 1-2.883 0" fill-rule="evenodd" fill="#fff"/><path d="M260.078 217.2a1.442 1.442 0 0 1 2.883 0 1.44 1.44 0 1 1-2.883 0zm0 0" fill="none" stroke-width=".06" stroke-linecap="square" stroke-linejoin="bevel" stroke="#000" stroke-miterlimit="10"/><path d="M258.762 210.059a2.76 2.76 0 1 1 2.758 2.762 2.758 2.758 0 0 1-2.758-2.762" fill-rule="evenodd" fill="green"/><path d="M258.762 210.059a2.76 2.76 0 1 1 2.758 2.762 2.758 2.758 0 0 1-2.758-2.762zm0 0" fill="none" stroke-width=".12" stroke-linecap="round" stroke-linejoin="round" stroke="green" stroke-miterlimit="10"/><path d="M260.078 210.059a1.442 1.442 0 0 1 2.883 0 1.44 1.44 0 1 1-2.883 0" fill-rule="evenodd" fill="#fff"/><path d="M260.078 210.059a1.442 1.442 0 0 1 2.883 0 1.44 1.44 0 1 1-2.883 0zm0 0" fill="none" stroke-width=".06" stroke-linecap="square" stroke-linejoin="bevel" stroke="#000" stroke-miterlimit="10"/><path d="M273.879 202.86a2.041 2.041 0 0 1 4.082 0 2.038 2.038 0 0 1-2.04 2.038 2.039 2.039 0 0 1-2.042-2.039" fill-rule="evenodd" fill="green"/><path d="M273.879 202.86a2.041 2.041 0 0 1 4.082 0 2.038 2.038 0 0 1-2.04 2.038 2.039 2.039 0 0 1-2.042-2.039zm0 0" fill="none" stroke-width=".12" stroke-linecap="round" stroke-linejoin="round" stroke="green" stroke-miterlimit="10"/><path d="M274.898 202.86a1.021 1.021 0 0 1 2.043 0 1.021 1.021 0 1 1-2.043 0" fill-rule="evenodd" fill="#fff"/><path d="M274.898 202.86a1.021 1.021 0 0 1 2.043 0 1.021 1.021 0 1 1-2.043 0zm0 0" fill="none" stroke-width=".06" stroke-linecap="square" stroke-linejoin="bevel" stroke="#000" stroke-miterlimit="10"/><path d="M273.879 188.46c0-1.128.914-2.038 2.043-2.038a2.038 2.038 0 1 1 0 4.078 2.041 2.041 0 0 1-2.043-2.04" fill-rule="evenodd" fill="green"/><path d="M273.879 188.46c0-1.128.914-2.038 2.043-2.038a2.038 2.038 0 1 1 0 4.078 2.041 2.041 0 0 1-2.043-2.04zm0 0" fill="none" stroke-width=".12" stroke-linecap="round" stroke-linejoin="round" stroke="green" stroke-miterlimit="10"/><path d="M274.898 188.46a1.021 1.021 0 0 1 2.043 0 1.021 1.021 0 1 1-2.043 0" fill-rule="evenodd" fill="#fff"/><path d="M274.898 188.46a1.021 1.021 0 0 1 2.043 0 1.021 1.021 0 1 1-2.043 0zm0 0" fill="none" stroke-width=".06" stroke-linecap="square" stroke-linejoin="bevel" stroke="#000" stroke-miterlimit="10"/><path d="M273.879 195.66c0-1.129.914-2.039 2.043-2.039a2.038 2.038 0 1 1 0 4.078 2.041 2.041 0 0 1-2.043-2.039" fill-rule="evenodd" fill="green"/><path d="M273.879 195.66c0-1.129.914-2.039 2.043-2.039a2.038 2.038 0 1 1 0 4.078 2.041 2.041 0 0 1-2.043-2.039zm0 0" fill="none" stroke-width=".12" stroke-linecap="round" stroke-linejoin="round" stroke="green" stroke-miterlimit="10"/><path d="M274.898 195.66a1.021 1.021 0 0 1 2.043 0 1.021 1.021 0 1 1-2.043 0" fill-rule="evenodd" fill="#fff"/><path d="M274.898 195.66a1.021 1.021 0 0 1 2.043 0 1.021 1.021 0 1 1-2.043 0zm0 0" fill="none" stroke-width=".06" stroke-linecap="square" stroke-linejoin="bevel" stroke="#000" stroke-miterlimit="10"/><path d="M302.621 188.46c0-1.128.91-2.038 2.04-2.038a2.038 2.038 0 1 1 0 4.078 2.038 2.038 0 0 1-2.04-2.04" fill-rule="evenodd" fill="green"/><path d="M302.621 188.46c0-1.128.91-2.038 2.04-2.038a2.038 2.038 0 1 1 0 4.078 2.038 2.038 0 0 1-2.04-2.04zm0 0" fill="none" stroke-width=".12" stroke-linecap="round" stroke-linejoin="round" stroke="green" stroke-miterlimit="10"/><path d="M303.64 188.46a1.02 1.02 0 1 1 2.041.002 1.02 1.02 0 0 1-2.04-.001" fill-rule="evenodd" fill="#fff"/><path d="M303.64 188.46a1.02 1.02 0 1 1 2.041.002 1.02 1.02 0 0 1-2.04-.001zm0 0" fill="none" stroke-width=".06" stroke-linecap="square" stroke-linejoin="bevel" stroke="#000" stroke-miterlimit="10"/><path d="M302.621 202.86a2.038 2.038 0 1 1 4.078 0 2.038 2.038 0 0 1-2.039 2.038 2.035 2.035 0 0 1-2.039-2.039" fill-rule="evenodd" fill="green"/><path d="M302.621 202.86a2.038 2.038 0 1 1 4.078 0 2.038 2.038 0 0 1-2.039 2.038 2.035 2.035 0 0 1-2.039-2.039zm0 0" fill="none" stroke-width=".12" stroke-linecap="round" stroke-linejoin="round" stroke="green" stroke-miterlimit="10"/><path d="M303.64 202.86a1.02 1.02 0 1 1 2.041 0 1.02 1.02 0 0 1-2.04 0" fill-rule="evenodd" fill="#fff"/><path d="M303.64 202.86a1.02 1.02 0 1 1 2.041 0 1.02 1.02 0 0 1-2.04 0zm0 0" fill="none" stroke-width=".06" stroke-linecap="square" stroke-linejoin="bevel" stroke="#000" stroke-miterlimit="10"/><path d="M302.621 195.66c0-1.129.91-2.039 2.04-2.039a2.038 2.038 0 1 1 0 4.078 2.038 2.038 0 0 1-2.04-2.039" fill-rule="evenodd" fill="green"/><path d="M302.621 195.66c0-1.129.91-2.039 2.04-2.039a2.038 2.038 0 1 1 0 4.078 2.038 2.038 0 0 1-2.04-2.039zm0 0" fill="none" stroke-width=".12" stroke-linecap="round" stroke-linejoin="round" stroke="green" stroke-miterlimit="10"/><path d="M303.64 195.66a1.02 1.02 0 1 1 2.041.002 1.02 1.02 0 0 1-2.04-.002" fill-rule="evenodd" fill="#fff"/><path d="M303.64 195.66a1.02 1.02 0 1 1 2.041.002 1.02 1.02 0 0 1-2.04-.002zm0 0" fill="none" stroke-width=".06" stroke-linecap="square" stroke-linejoin="bevel" stroke="#000" stroke-miterlimit="10"/><path d="M302.621 231.602a2.039 2.039 0 1 1 4.078 0 2.038 2.038 0 1 1-4.078 0" fill-rule="evenodd" fill="green"/><path d="M302.621 231.602a2.039 2.039 0 1 1 4.078 0 2.038 2.038 0 1 1-4.078 0zm0 0" fill="none" stroke-width=".12" stroke-linecap="round" stroke-linejoin="round" stroke="green" stroke-miterlimit="10"/><path d="M303.64 231.602c0-.567.458-1.024 1.02-1.024a1.021 1.021 0 0 1 0 2.043 1.02 1.02 0 0 1-1.02-1.02" fill-rule="evenodd" fill="#fff"/><path d="M303.64 231.602c0-.567.458-1.024 1.02-1.024a1.021 1.021 0 0 1 0 2.043 1.02 1.02 0 0 1-1.02-1.02zm0 0" fill="none" stroke-width=".06" stroke-linecap="square" stroke-linejoin="bevel" stroke="#000" stroke-miterlimit="10"/><path d="M302.621 217.2a2.038 2.038 0 1 1 4.078 0 2.038 2.038 0 0 1-2.039 2.038 2.035 2.035 0 0 1-2.039-2.039" fill-rule="evenodd" fill="green"/><path d="M302.621 217.2a2.038 2.038 0 1 1 4.078 0 2.038 2.038 0 0 1-2.039 2.038 2.035 2.035 0 0 1-2.039-2.039zm0 0" fill="none" stroke-width=".12" stroke-linecap="round" stroke-linejoin="round" stroke="green" stroke-miterlimit="10"/><path d="M303.64 217.2a1.02 1.02 0 1 1 2.041 0 1.02 1.02 0 0 1-2.04 0" fill-rule="evenodd" fill="#fff"/><path d="M303.64 217.2a1.02 1.02 0 1 1 2.041 0 1.02 1.02 0 0 1-2.04 0zm0 0" fill="none" stroke-width=".06" stroke-linecap="square" stroke-linejoin="bevel" stroke="#000" stroke-miterlimit="10"/><path d="M302.621 224.398a2.038 2.038 0 1 1 4.078 0 2.039 2.039 0 1 1-4.078 0" fill-rule="evenodd" fill="green"/><path d="M302.621 224.398a2.038 2.038 0 1 1 4.078 0 2.039 2.039 0 1 1-4.078 0zm0 0" fill="none" stroke-width=".12" stroke-linecap="round" stroke-linejoin="round" stroke="green" stroke-miterlimit="10"/><path d="M303.64 224.398a1.02 1.02 0 1 1 1.02 1.024c-.562 0-1.02-.457-1.02-1.024" fill-rule="evenodd" fill="#fff"/><path d="M303.64 224.398a1.02 1.02 0 1 1 1.02 1.024c-.562 0-1.02-.457-1.02-1.024zm0 0" fill="none" stroke-width=".06" stroke-linecap="square" stroke-linejoin="bevel" stroke="#000" stroke-miterlimit="10"/><path d="M250.781 184.86h93.54m-.001 0v50.34m0 0h-93.539m0 0v-50.34" fill="none" stroke-width=".12" stroke-linecap="round" stroke-linejoin="round" stroke="#000" stroke-miterlimit="10"/></svg>