<svg xmlns:xlink="http://www.w3.org/1999/xlink" width="595pt" height="560" viewBox="0 0 595 420"><defs><symbol overflow="visible" id="a"><path d="M1.828-.719a.796.796 0 0 1-.062.313.724.724 0 0 1-.172.219 1.164 1.164 0 0 1-.297.14A1.296 1.296 0 0 1 .907 0H.233v-2.344H.86c.164 0 .29.008.375.016a.92.92 0 0 1 .25.078.472.472 0 0 1 .188.172.634.634 0 0 1 .047.25.55.55 0 0 1-.078.297.644.644 0 0 1-.25.218.707.707 0 0 1 .328.22.61.61 0 0 1 .11.374zM1.391-1.78a.774.774 0 0 0-.016-.14.27.27 0 0 0-.094-.095.534.534 0 0 0-.172-.062H.547v.687h.36c.093 0 .163-.004.218-.015a.52.52 0 0 0 .14-.063.262.262 0 0 0 .11-.125c.008-.05.016-.113.016-.187zm.125 1.078a.433.433 0 0 0-.047-.219c-.024-.062-.074-.113-.157-.156a.676.676 0 0 0-.156-.047 2.019 2.019 0 0 0-.25-.016h-.36v.875h.266c.133 0 .239-.004.313-.015.082-.02.156-.047.219-.078A.477.477 0 0 0 1.469-.5a.924.924 0 0 0 .047-.203zm0 0"/></symbol><symbol overflow="visible" id="b"><path d="M-.016 0l.797-2.344h.375L1.953 0h-.328l-.219-.656h-.89L.296 0zm1.344-.922l-.36-1.11-.374 1.11zm0 0"/></symbol><symbol overflow="visible" id="c"><path d="M.781 0v-2.078H0v-.266h1.89v.266h-.796V0zm0 0"/></symbol><symbol overflow="visible" id="f"><path d="M1.953 0h-.312v-1.156H.547V0H.234v-2.344h.313v.922H1.64v-.922h.312zm0 0"/></symbol><symbol overflow="visible" id="g"><path d="M2.094-1.172c0 .219-.043.414-.125.578a1.04 1.04 0 0 1-.36.406 1.211 1.211 0 0 1-.359.157A2.651 2.651 0 0 1 .781 0H.234v-2.344h.547c.219 0 .39.016.516.047.125.031.226.074.312.125.157.106.274.242.36.406.082.168.125.368.125.594zm-.328 0c0-.187-.032-.344-.094-.469a.63.63 0 0 0-.266-.296.979.979 0 0 0-.265-.11 1.72 1.72 0 0 0-.344-.031h-.25v1.812h.25c.133 0 .254-.007.36-.03a.783.783 0 0 0 .531-.422c.05-.126.078-.274.078-.454zm0 0"/></symbol><symbol overflow="visible" id="h"><path d="M1.719-1.64a.782.782 0 0 1-.047.28.793.793 0 0 1-.438.423 1.231 1.231 0 0 1-.421.062H.546V0H.234v-2.344h.594c.133 0 .254.012.36.031a.777.777 0 0 1 .469.328.9.9 0 0 1 .062.344zm-.328 0a.69.69 0 0 0-.032-.204A.491.491 0 0 0 1.234-2a.534.534 0 0 0-.171-.063 2.314 2.314 0 0 0-.25-.015H.546v.937h.219c.125 0 .226-.007.312-.03a.418.418 0 0 0 .188-.11.72.72 0 0 0 .093-.157.568.568 0 0 0 .032-.203zm0 0"/></symbol><symbol overflow="visible" id="i"><path d="M1.063 0H.14v-.234h.312V-2.11H.141v-.235h.921v.235H.766v1.875h.296zm0 0"/></symbol><symbol overflow="visible" id="j"><path d="M1.922 0h-.36L.532-2.031V0H.233v-2.344h.454l.937 1.86v-1.86h.297zm0 0"/></symbol><symbol overflow="visible" id="l"><path d="M1.156.047C1 .047.86.02.734-.031a.724.724 0 0 1-.328-.235A1.045 1.045 0 0 1 .187-.64a1.6 1.6 0 0 1-.078-.53c0-.196.024-.368.079-.516a1.06 1.06 0 0 1 .203-.391.928.928 0 0 1 .343-.235c.125-.05.266-.078.422-.078.082 0 .16.008.235.016.062.012.125.027.187.047.05.012.102.027.156.047l.157.094v.374h-.032a.388.388 0 0 0-.109-.093.69.69 0 0 0-.156-.11 1.041 1.041 0 0 0-.188-.078.972.972 0 0 0-.25-.031.702.702 0 0 0-.516.234.738.738 0 0 0-.156.313c-.043.117-.062.25-.062.406 0 .156.02.293.062.406a.82.82 0 0 0 .157.297c.07.086.148.149.234.188a.885.885 0 0 0 .281.047.827.827 0 0 0 .25-.032.76.76 0 0 0 .203-.078.586.586 0 0 0 .157-.11 1 1 0 0 0 .093-.077h.032v.375a2.829 2.829 0 0 0-.141.062c-.055.024-.11.043-.172.063a1.16 1.16 0 0 1-.187.062 1.818 1.818 0 0 1-.235.016zm0 0"/></symbol><symbol overflow="visible" id="m"><path d="M1.5 0H.36v-.234h.42v-1.579H.36v-.218c.157 0 .274-.02.36-.063.07-.05.113-.14.125-.265h.25v2.125H1.5zm0 0"/></symbol><symbol overflow="visible" id="n"><path d="M1.625 0H.172v-.328A9.33 9.33 0 0 1 .469-.61c.094-.094.18-.188.265-.282.176-.195.301-.359.375-.484a.737.737 0 0 0 .094-.36.428.428 0 0 0-.11-.297.814.814 0 0 0-.14-.077.841.841 0 0 0-.156-.016c-.055 0-.11.008-.172.016a4.337 4.337 0 0 1-.156.062.342.342 0 0 0-.125.063 2.172 2.172 0 0 0-.11.062H.22v-.344c.062-.03.156-.062.281-.093.113-.032.223-.047.328-.047.219 0 .39.058.516.172a.66.66 0 0 1 .187.484.95.95 0 0 1-.031.25 2.037 2.037 0 0 1-.094.219c-.043.062-.09.133-.14.203-.055.074-.11.14-.172.203l-.328.328C.64-.43.539-.336.469-.266h1.156zm0 0"/></symbol><symbol overflow="visible" id="q"><path d="M1.688-.813h-.282V0H1.11v-.813H.063v-.328l1.046-1.203h.297v1.281h.282zm-.579-.25v-.921l-.796.921zm0 0"/></symbol><symbol overflow="visible" id="r"><path d="M2.063 0h-.407l-.75-.938h-.36V0H.235v-2.344h.61c.133 0 .25.008.344.016a.68.68 0 0 1 .25.094.897.897 0 0 1 .203.218.709.709 0 0 1 .062.297c0 .18-.043.324-.125.438a.791.791 0 0 1-.36.265zM1.39-1.688a1.095 1.095 0 0 0-.047-.187.281.281 0 0 0-.11-.125.376.376 0 0 0-.156-.063 1.74 1.74 0 0 0-.219-.015H.547v.875h.281c.082 0 .16-.004.235-.016a.53.53 0 0 0 .187-.093.613.613 0 0 0 .11-.157c.007-.062.019-.133.03-.218zm0 0"/></symbol><symbol overflow="visible" id="s"><path d="M.813-2.125c-.063 0-.122.008-.172.016l-.172.062a2.172 2.172 0 0 0-.234.125H.218v-.328A1 1 0 0 1 .5-2.36a1.232 1.232 0 0 1 .61-.015c.081.031.156.07.218.11a.799.799 0 0 1 .156.187.57.57 0 0 1 .047.25.485.485 0 0 1-.125.328.486.486 0 0 1-.297.188v.03l.157.048c.05.023.101.058.156.109a.68.68 0 0 1 .11.172.83.83 0 0 1 0 .547.774.774 0 0 1-.406.406 1.039 1.039 0 0 1-.33.047A1.28 1.28 0 0 1 .454 0a.83.83 0 0 1-.297-.094v-.328h.016c.062.043.148.086.266.125a.774.774 0 0 0 .343.078A.525.525 0 0 0 .97-.25a.31.31 0 0 0 .156-.11.345.345 0 0 0 .11-.156.568.568 0 0 0 .03-.203.487.487 0 0 0-.046-.219.34.34 0 0 0-.094-.125.376.376 0 0 0-.156-.062 1.65 1.65 0 0 0-.203-.016H.64v-.265h.093a.57.57 0 0 0 .344-.094.353.353 0 0 0 .14-.297.37.37 0 0 0-.03-.156.415.415 0 0 0-.219-.156c-.055-.008-.106-.016-.157-.016zm0 0"/></symbol><symbol overflow="visible" id="z"><path d="M.672 0H.297v-.453h.375zm0 0"/></symbol><symbol overflow="visible" id="A"><path d="M1.656-2L.625 0H.297l1.078-2.078H.156v-.266h1.5zm0 0"/></symbol><symbol overflow="visible" id="B"><path d="M1.594 0h-.297v-.203a1.115 1.115 0 0 1-.266.187.674.674 0 0 1-.484.032.527.527 0 0 1-.188-.125.38.38 0 0 1-.109-.204.893.893 0 0 1-.047-.312v-1.14H.5v1c0 .093.004.171.016.234 0 .062.015.12.046.172.02.043.051.074.094.093.04.024.098.032.172.032.07 0 .149-.02.235-.063.082-.039.16-.094.234-.156v-1.313h.297zm0 0"/></symbol><symbol overflow="visible" id="C"><path d="M1.64-2.078H.548v.672h1.047v.281H.547V0H.234v-2.344h1.407zm0 0"/></symbol><symbol overflow="visible" id="H"><path d="M1.64-1.172c0 .418-.062.727-.187.922-.125.2-.312.297-.562.297C.629.047.437-.051.312-.25.189-.445.126-.754.126-1.172c0-.426.063-.738.188-.937.124-.196.316-.297.578-.297.25 0 .437.105.562.312.125.211.188.516.188.922zm-.406.719c.032-.082.051-.18.063-.297a6.042 6.042 0 0 0 0-.844 1.03 1.03 0 0 0-.063-.297.387.387 0 0 0-.14-.187.34.34 0 0 0-.203-.063.355.355 0 0 0-.22.063.387.387 0 0 0-.14.187 1.076 1.076 0 0 0-.062.297 4.605 4.605 0 0 0-.016.422c0 .168.004.305.016.406.008.118.031.215.062.297.031.086.07.149.125.188.063.043.14.062.235.062a.224.224 0 0 0 .203-.062.362.362 0 0 0 .14-.172zm0 0"/></symbol><symbol overflow="visible" id="I"><path d="M1.672 0h-.39L.624-.844l-.11.11V0H.22v-2.453h.297v1.437l.687-.75h.375L.86-1.03zm0 0"/></symbol><symbol overflow="visible" id="K"><path d="M1.828-.719a.796.796 0 0 1-.062.313.724.724 0 0 1-.172.219 1.164 1.164 0 0 1-.297.14A1.296 1.296 0 0 1 .907 0H.233v-2.344H.86c.164 0 .29.008.375.016a.92.92 0 0 1 .25.078.472.472 0 0 1 .188.172.634.634 0 0 1 .047.25.55.55 0 0 1-.078.297.644.644 0 0 1-.25.218.707.707 0 0 1 .328.22.61.61 0 0 1 .11.374zM1.391-1.78a.774.774 0 0 0-.016-.14.27.27 0 0 0-.094-.095.534.534 0 0 0-.172-.062H.547v.687h.36c.093 0 .163-.004.218-.015a.52.52 0 0 0 .14-.063.262.262 0 0 0 .11-.125c.008-.05.016-.113.016-.187zm.125 1.078a.433.433 0 0 0-.047-.219c-.024-.062-.074-.113-.157-.156a.676.676 0 0 0-.156-.047 2.019 2.019 0 0 0-.25-.016h-.36v.875h.266c.133 0 .239-.004.313-.015.082-.02.156-.047.219-.078A.477.477 0 0 0 1.469-.5a.924.924 0 0 0 .047-.203zm0 0"/></symbol><symbol overflow="visible" id="L"><path d="M1.594-.75a.973.973 0 0 1-.047.313.74.74 0 0 1-.156.25.61.61 0 0 1-.25.171.847.847 0 0 1-.329.063A1.8 1.8 0 0 1 .484.016a1.954 1.954 0 0 1-.28-.094v-.344h.015a.25.25 0 0 0 .11.063.74.74 0 0 0 .14.062.73.73 0 0 0 .172.047.41.41 0 0 0 .171.031A.416.416 0 0 0 1-.266a.31.31 0 0 0 .156-.109c.04-.04.07-.094.094-.156a.72.72 0 0 0 0-.422.967.967 0 0 0-.11-.14.648.648 0 0 0-.156-.079.917.917 0 0 0-.234-.031c-.086 0-.168.012-.25.031-.086.012-.152.024-.203.031v-1.203h1.281v.266H.594v.625h.11a.32.32 0 0 0 .109-.016c.113 0 .21.012.296.032a.788.788 0 0 1 .25.125c.07.054.13.125.172.218.04.086.063.2.063.344zm0 0"/></symbol><symbol overflow="visible" id="d"><path d="M1.281-1.094H.171v-.36h1.11zm0 0"/></symbol><symbol overflow="visible" id="v"><path d="M2.563 0h-.516l-.922-1.156H.687V0h-.39v-2.922h.75c.164 0 .305.012.422.031.113.024.222.063.328.125a.8.8 0 0 1 .234.25.751.751 0 0 1 .094.391.797.797 0 0 1-.172.531.913.913 0 0 1-.437.328zm-.844-2.094a.598.598 0 0 0-.047-.234.412.412 0 0 0-.14-.156.446.446 0 0 0-.188-.079c-.074-.007-.168-.019-.282-.03H.688v1.109h.344c.102 0 .203-.008.297-.032a.459.459 0 0 0 .219-.125.38.38 0 0 0 .125-.187.66.66 0 0 0 .047-.266zm0 0"/></symbol><symbol overflow="visible" id="w"><path d="M1.984-.922c0 .137-.023.266-.062.39a1.304 1.304 0 0 1-.203.313.757.757 0 0 1-.297.203 1.072 1.072 0 0 1-.406.079C.867.063.726.046.594.015A1.216 1.216 0 0 1 .25-.11v-.407h.016c.03.024.078.047.14.079.051.023.114.046.188.078.07.023.14.043.203.062.062.012.133.016.219.016.07 0 .148-.016.234-.047a.389.389 0 0 0 .188-.125.604.604 0 0 0 .109-.203c.02-.07.031-.164.031-.281a.868.868 0 0 0-.031-.25.491.491 0 0 0-.125-.157.644.644 0 0 0-.203-.11 1.265 1.265 0 0 0-.282-.03 4 4 0 0 0-.312.015c-.117.024-.203.04-.266.047v-1.5h1.61v.344H.734v.781c.051-.008.098-.016.141-.016H1c.156 0 .285.012.39.032.094.031.192.078.298.14a.782.782 0 0 1 .218.282c.051.117.078.261.078.437zm0 0"/></symbol><symbol overflow="visible" id="e"><path d="M-1.125-2.61v.985h1v.328h-1v.984h-.313v-.984h-.984v-.328h.985v-.984zm0 0"/></symbol><symbol overflow="visible" id="k"><path d="M.563 0H.124v-.094h.172v-.578H.125V-.75c.063 0 .11-.008.14-.031.032-.02.047-.051.047-.094h.094v.781h.156zm0 0"/></symbol><symbol overflow="visible" id="o"><path d="M.047-1.156c0 .156-.027.297-.078.422a.724.724 0 0 1-.235.328 1.045 1.045 0 0 1-.375.219 1.6 1.6 0 0 1-.53.078 1.48 1.48 0 0 1-.516-.079 1.068 1.068 0 0 1-.391-.203.928.928 0 0 1-.235-.343 1.112 1.112 0 0 1-.078-.422c0-.082.008-.16.016-.235.012-.062.027-.125.047-.187a1.36 1.36 0 0 1 .047-.156l.094-.157h.374v.032a.388.388 0 0 0-.093.109.69.69 0 0 0-.11.156 1.041 1.041 0 0 0-.078.188.972.972 0 0 0-.031.25.702.702 0 0 0 .234.516.738.738 0 0 0 .313.156c.117.043.25.062.406.062.156 0 .293-.02.406-.062a.815.815 0 0 0 .297-.157.655.655 0 0 0 .188-.234.885.885 0 0 0 .047-.281.827.827 0 0 0-.032-.25.76.76 0 0 0-.078-.203.586.586 0 0 0-.11-.157 1 1 0 0 0-.077-.093v-.032h.375c.023.055.043.102.062.141.024.055.043.11.063.172.031.074.05.137.062.187.008.063.016.141.016.235zm0 0"/></symbol><symbol overflow="visible" id="p"><path d="M-2.125-.813c0 .063.008.122.016.172l.062.172a2.172 2.172 0 0 0 .125.234v.016h-.328A1 1 0 0 1-2.36-.5a1.232 1.232 0 0 1-.015-.61c.031-.081.07-.156.11-.218a.799.799 0 0 1 .187-.156.57.57 0 0 1 .25-.047c.125 0 .234.043.328.125a.486.486 0 0 1 .188.297h.03l.048-.157a.602.602 0 0 1 .109-.156.651.651 0 0 1 .172-.11.83.83 0 0 1 .547 0A.774.774 0 0 1 0-1.125c.031.095.047.204.047.33 0 .116-.016.23-.047.343a.83.83 0 0 1-.094.297h-.328v-.016a1.06 1.06 0 0 0 .125-.266.774.774 0 0 0 .078-.343.525.525 0 0 0-.031-.19.31.31 0 0 0-.11-.156.345.345 0 0 0-.156-.11.568.568 0 0 0-.203-.03.487.487 0 0 0-.219.046.34.34 0 0 0-.125.094.376.376 0 0 0-.062.156 1.65 1.65 0 0 0-.016.203v.125h-.265v-.093a.57.57 0 0 0-.094-.344.353.353 0 0 0-.297-.14.37.37 0 0 0-.156.03.415.415 0 0 0-.156.219c-.008.055-.016.106-.016.157zm0 0"/></symbol><symbol overflow="visible" id="t"><path d="M0-2.063v.407l-.938.75v.36H0v.312h-2.344v-.61c0-.133.008-.25.016-.344a.68.68 0 0 1 .094-.25.897.897 0 0 1 .218-.203.706.706 0 0 1 .297-.062c.18 0 .324.043.438.125a.791.791 0 0 1 .265.36zm-1.688.672c-.07.012-.132.028-.187.047a.281.281 0 0 0-.125.11.376.376 0 0 0-.063.156 1.74 1.74 0 0 0-.015.219v.312h.875v-.281c0-.082-.004-.16-.016-.235a.53.53 0 0 0-.093-.187.613.613 0 0 0-.157-.11c-.062-.007-.133-.019-.218-.03zm0 0"/></symbol><symbol overflow="visible" id="u"><path d="M-.813-1.688v.282H0v.297h-.813v1.046h-.328l-1.203-1.046v-.297h1.281v-.282zm-.25.579h-.921l.921.796zm0 0"/></symbol><symbol overflow="visible" id="x"><path d="M0-.781h-2.078V0h-.266v-1.89h.266v.796H0zm0 0"/></symbol><symbol overflow="visible" id="y"><path d="M0-1.5v1.14h-.234v-.42h-1.579v.422h-.218a.813.813 0 0 0-.063-.36c-.05-.07-.14-.113-.265-.125v-.25h2.125V-1.5zm0 0"/></symbol><symbol overflow="visible" id="D"><path d="M-2-1.656L0-.625v.328l-2.078-1.078v1.219h-.266v-1.5zm0 0"/></symbol><symbol overflow="visible" id="E"><path d="M-1.172-1.64c.418 0 .727.062.922.187.2.125.297.312.297.562 0 .262-.098.454-.297.579-.195.124-.504.187-.922.187-.426 0-.738-.063-.937-.188-.196-.124-.297-.316-.297-.578 0-.25.105-.437.312-.562.211-.125.516-.188.922-.188zm.719.406a1.163 1.163 0 0 0-.297-.063 6.185 6.185 0 0 0-.844 0 1.03 1.03 0 0 0-.297.063.387.387 0 0 0-.187.14.34.34 0 0 0-.063.203.362.362 0 0 0 .25.36c.086.031.184.054.297.062.125.012.266.016.422.016.168 0 .305-.004.406-.016.118-.008.215-.031.297-.062A.378.378 0 0 0-.28-.656a.404.404 0 0 0 .06-.235.224.224 0 0 0-.062-.203.362.362 0 0 0-.172-.14zm0 0"/></symbol><symbol overflow="visible" id="F"><path d="M0-1.594v.297h-.203c.086.094.148.184.187.266a.674.674 0 0 1 .032.484.527.527 0 0 1-.125.188.38.38 0 0 1-.204.109.893.893 0 0 1-.312.047h-1.14V-.5h1a1.3 1.3 0 0 0 .234-.016.325.325 0 0 0 .171-.046.183.183 0 0 0 .093-.094.346.346 0 0 0 .032-.172c0-.07-.02-.149-.063-.235a1.114 1.114 0 0 0-.156-.234h-1.313v-.297zm0 0"/></symbol><symbol overflow="visible" id="G"><path d="M-2.078-1.64v1.093h.672v-1.047h.281v1.047H0v.313h-2.344v-1.407zm0 0"/></symbol><symbol overflow="visible" id="J"><path d="M0-1.625v1.453h-.328A9.33 9.33 0 0 1-.61-.469a8.783 8.783 0 0 0-.282-.265 3.248 3.248 0 0 0-.484-.375.737.737 0 0 0-.36-.094.428.428 0 0 0-.297.11.814.814 0 0 0-.077.14.841.841 0 0 0-.016.156c0 .055.008.11.016.172.023.055.043.105.062.156a.342.342 0 0 0 .063.125c.023.043.043.078.062.11v.015h-.344A1.453 1.453 0 0 1-2.359-.5a1.232 1.232 0 0 1-.047-.328c0-.219.058-.39.172-.516a.66.66 0 0 1 .484-.187.95.95 0 0 1 .25.031c.086.031.156.063.219.094.062.043.133.09.203.14.074.055.14.11.203.172l.328.328c.117.125.211.227.281.297v-1.156zm0 0"/></symbol><symbol overflow="visible" id="M"><path d="M-.719-1.828c.117 0 .219.023.313.062a.724.724 0 0 1 .219.172c.062.094.109.196.14.297.031.094.047.227.047.39v.673h-2.344V-.86c0-.164.008-.29.016-.375a.92.92 0 0 1 .078-.25.472.472 0 0 1 .172-.188.634.634 0 0 1 .25-.047.55.55 0 0 1 .297.078.644.644 0 0 1 .218.25.707.707 0 0 1 .22-.328.61.61 0 0 1 .374-.11zm-1.062.437a.774.774 0 0 0-.14.016.27.27 0 0 0-.095.094.534.534 0 0 0-.062.172v.562h.687v-.36c0-.093-.004-.163-.015-.218a.52.52 0 0 0-.063-.14.262.262 0 0 0-.125-.11 1.204 1.204 0 0 0-.187-.016zm1.078-.125a.433.433 0 0 0-.219.047c-.062.024-.113.074-.156.157a.676.676 0 0 0-.047.156 2.019 2.019 0 0 0-.016.25v.36h.875v-.266a2.19 2.19 0 0 0-.015-.313 1.023 1.023 0 0 0-.078-.219.477.477 0 0 0-.141-.125.924.924 0 0 0-.203-.047zm0 0"/></symbol><clipPath id="N"><path d="M347 182.64h1V234h-1zm0 0"/></clipPath><clipPath id="O"><path d="M247 182.64h101v.36H247zm0 0"/></clipPath><clipPath id="P"><path d="M247 182.64h1V234h-1zm0 0"/></clipPath></defs><path d="M304.621 197.219H290.22m-.001 0v7.203m14.402 14.34H283.02m0-14.34v14.34m0-28.742h7.199m14.402 14.402h-7.2m.001 0v7.2m7.199-.001h-7.2m-35.941-14.402h14.34m0 0v-7.2m-7.14 14.403h-7.2m14.34 0v7.2m0-.001v7.14m-21.539 7.199h50.34m-50.34 0h7.2m7.199 0h-7.2m0 0v-7.198m57.54 7.198h-14.4m14.4 0h21.539m-71.879-7.198h-7.2m0 0v-7.14m64.68-14.403h-7.14m0 0v7.203m21.539-14.402H326.16m0 7.199v-7.2m0 14.403v7.2m0-.001h-7.14m0 0h-7.2m0 0V190.02m0 0h-7.199m0 0h-7.2m43.138 7.199v7.203m0 0h-7.2m-7.199 0h7.2m7.199 14.34h-7.2m.001 0v-7.14m-79.079 7.14V190.02m0 0h14.399" fill="none" stroke-width="1.74" stroke-linecap="round" stroke-linejoin="round" stroke="navy" stroke-miterlimit="10"/><path d="M343.078 225.96a2.52 2.52 0 1 1-5.037-.002 2.52 2.52 0 0 1 5.037.003" fill-rule="evenodd" fill="green"/><path d="M343.078 225.96a2.52 2.52 0 1 1-5.037-.002 2.52 2.52 0 0 1 5.037.003zm0 0" fill="none" stroke-width=".12" stroke-linecap="round" stroke-linejoin="round" stroke="green" stroke-miterlimit="10"/><path d="M342 225.96a1.44 1.44 0 1 1-2.88-.003 1.44 1.44 0 0 1 2.88.004" fill-rule="evenodd" fill="#fff"/><path d="M342 225.96a1.44 1.44 0 1 1-2.88-.003 1.44 1.44 0 0 1 2.88.004zm0 0" fill="none" stroke-width=".06" stroke-linecap="square" stroke-linejoin="bevel" stroke="#000" stroke-miterlimit="10"/><path d="M343.078 218.762a2.52 2.52 0 1 1-5.037-.002 2.52 2.52 0 0 1 5.037.002" fill-rule="evenodd" fill="green"/><path d="M343.078 218.762a2.52 2.52 0 1 1-5.037-.002 2.52 2.52 0 0 1 5.037.002zm0 0" fill="none" stroke-width=".12" stroke-linecap="round" stroke-linejoin="round" stroke="green" stroke-miterlimit="10"/><path d="M342 218.762a1.44 1.44 0 1 1-2.88-.004 1.44 1.44 0 0 1 2.88.004" fill-rule="evenodd" fill="#fff"/><path d="M342 218.762a1.44 1.44 0 1 1-2.88-.004 1.44 1.44 0 0 1 2.88.004zm0 0" fill="none" stroke-width=".06" stroke-linecap="square" stroke-linejoin="bevel" stroke="#000" stroke-miterlimit="10"/><path d="M270.96 190.02a2.284 2.284 0 0 1-2.28 2.28 2.284 2.284 0 0 1-2.282-2.28 2.284 2.284 0 0 1 2.282-2.282 2.284 2.284 0 0 1 2.28 2.282" fill-rule="evenodd" fill="green"/><path d="M270.96 190.02a2.284 2.284 0 0 1-2.28 2.28 2.284 2.284 0 0 1-2.282-2.28 2.284 2.284 0 0 1 2.282-2.282 2.284 2.284 0 0 1 2.28 2.282zm0 0" fill="none" stroke-width=".12" stroke-linecap="round" stroke-linejoin="round" stroke="green" stroke-miterlimit="10"/><path d="M269.82 190.02a1.14 1.14 0 1 1-2.278 0 1.14 1.14 0 0 1 2.278-.001" fill-rule="evenodd" fill="#fff"/><path d="M269.82 190.02a1.14 1.14 0 1 1-2.278 0 1.14 1.14 0 0 1 2.278-.001zm0 0" fill="none" stroke-width=".06" stroke-linecap="square" stroke-linejoin="bevel" stroke="#000" stroke-miterlimit="10"/><path d="M273.54 192.3h4.562v-4.562h-4.563zm0 0" fill="green" stroke-width=".12" stroke-linecap="round" stroke-linejoin="round" stroke="green" stroke-miterlimit="10"/><path d="M276.96 190.02a1.14 1.14 0 1 1-2.282 0 1.14 1.14 0 0 1 2.282-.001" fill-rule="evenodd" fill="#fff"/><path d="M276.96 190.02a1.14 1.14 0 1 1-2.282 0 1.14 1.14 0 0 1 2.282-.001zm0 0" fill="none" stroke-width=".06" stroke-linecap="square" stroke-linejoin="bevel" stroke="#000" stroke-miterlimit="10"/><path d="M270.96 204.422a2.28 2.28 0 0 1-4.562 0 2.281 2.281 0 0 1 4.563 0" fill-rule="evenodd" fill="green"/><path d="M270.96 204.422a2.28 2.28 0 0 1-4.562 0 2.281 2.281 0 0 1 4.563 0zm0 0" fill="none" stroke-width=".12" stroke-linecap="round" stroke-linejoin="round" stroke="green" stroke-miterlimit="10"/><path d="M269.82 204.422c0 .629-.511 1.137-1.14 1.137a1.139 1.139 0 1 1 0-2.278c.629 0 1.14.508 1.14 1.14" fill-rule="evenodd" fill="#fff"/><path d="M269.82 204.422c0 .629-.511 1.137-1.14 1.137a1.139 1.139 0 1 1 0-2.278c.629 0 1.14.508 1.14 1.14zm0 0" fill="none" stroke-width=".06" stroke-linecap="square" stroke-linejoin="bevel" stroke="#000" stroke-miterlimit="10"/><path d="M273.54 206.7h4.562v-4.56h-4.563zm0 0" fill="green" stroke-width=".12" stroke-linecap="round" stroke-linejoin="round" stroke="green" stroke-miterlimit="10"/><path d="M276.96 204.422c0 .629-.51 1.137-1.14 1.137a1.139 1.139 0 1 1 0-2.278c.63 0 1.14.508 1.14 1.14" fill-rule="evenodd" fill="#fff"/><path d="M276.96 204.422c0 .629-.51 1.137-1.14 1.137a1.139 1.139 0 1 1 0-2.278c.63 0 1.14.508 1.14 1.14zm0 0" fill="none" stroke-width=".06" stroke-linecap="square" stroke-linejoin="bevel" stroke="#000" stroke-miterlimit="10"/><path d="M316.32 214.32h5.399v-5.398h-5.399zm0 0" fill="green" stroke-width=".12" stroke-linecap="round" stroke-linejoin="round" stroke="green" stroke-miterlimit="10"/><path d="M320.16 211.621c0 .629-.512 1.14-1.14 1.14a1.14 1.14 0 1 1 1.14-1.14" fill-rule="evenodd" fill="#fff"/><path d="M320.16 211.621c0 .629-.512 1.14-1.14 1.14a1.14 1.14 0 1 1 1.14-1.14zm0 0" fill="none" stroke-width=".06" stroke-linecap="square" stroke-linejoin="bevel" stroke="#000" stroke-miterlimit="10"/><path d="M321.719 225.96a2.7 2.7 0 1 1-5.4 0 2.7 2.7 0 0 1 5.4 0" fill-rule="evenodd" fill="green"/><path d="M321.719 225.96a2.7 2.7 0 1 1-5.4 0 2.7 2.7 0 0 1 5.4 0zm0 0" fill="none" stroke-width=".12" stroke-linecap="round" stroke-linejoin="round" stroke="green" stroke-miterlimit="10"/><path d="M320.16 225.96c0 .63-.512 1.142-1.14 1.142-.63 0-1.141-.512-1.141-1.141a1.14 1.14 0 1 1 2.281 0" fill-rule="evenodd" fill="#fff"/><path d="M320.16 225.96c0 .63-.512 1.142-1.14 1.142-.63 0-1.141-.512-1.141-1.141a1.14 1.14 0 1 1 2.281 0zm0 0" fill="none" stroke-width=".06" stroke-linecap="square" stroke-linejoin="bevel" stroke="#000" stroke-miterlimit="10"/><path d="M320.762 205.14l-1.024 1.02h-1.437l-1.02-1.02v-1.44l1.02-1.02h1.437l1.024 1.02v1.44" fill="green"/><path d="M320.762 205.14l-1.024 1.02h-1.437l-1.02-1.02v-1.44l1.02-1.02h1.437l1.024 1.02zm0 0" fill="none" stroke-width=".12" stroke-linecap="round" stroke-linejoin="round" stroke="green" stroke-miterlimit="10"/><path d="M320.04 204.422a1.02 1.02 0 1 1-1.02-1.024c.562 0 1.02.457 1.02 1.024" fill-rule="evenodd" fill="#fff"/><path d="M320.04 204.422a1.02 1.02 0 1 1-1.02-1.024c.562 0 1.02.457 1.02 1.024zm0 0" fill="none" stroke-width=".06" stroke-linecap="square" stroke-linejoin="bevel" stroke="#000" stroke-miterlimit="10"/><path d="M306.36 204.422c0 .926-.778 1.68-1.739 1.68-.96 0-1.742-.754-1.742-1.68 0-.93.781-1.684 1.742-1.684s1.738.754 1.738 1.684" fill-rule="evenodd" fill="green"/><path d="M306.36 204.422c0 .926-.778 1.68-1.739 1.68-.96 0-1.742-.754-1.742-1.68 0-.93.781-1.684 1.742-1.684s1.738.754 1.738 1.684zm0 0" fill="none" stroke-width=".12" stroke-linecap="round" stroke-linejoin="round" stroke="green" stroke-miterlimit="10"/><path d="M305.64 204.422a1.02 1.02 0 1 1-1.019-1.024c.563 0 1.02.457 1.02 1.024" fill-rule="evenodd" fill="#fff"/><path d="M305.64 204.422a1.02 1.02 0 1 1-1.019-1.024c.563 0 1.02.457 1.02 1.024zm0 0" fill="none" stroke-width=".06" stroke-linecap="square" stroke-linejoin="bevel" stroke="#000" stroke-miterlimit="10"/><path d="M292.078 190.02a1.859 1.859 0 1 1-3.717 0 1.859 1.859 0 0 1 3.717 0" fill-rule="evenodd" fill="green"/><path d="M292.078 190.02a1.859 1.859 0 1 1-3.718 0 1.859 1.859 0 0 1 3.718 0zm0 0" fill="none" stroke-width=".12" stroke-linecap="round" stroke-linejoin="round" stroke="green" stroke-miterlimit="10"/><path d="M291.36 190.02a1.14 1.14 0 1 1-2.282 0 1.14 1.14 0 1 1 2.281 0" fill-rule="evenodd" fill="#fff"/><path d="M291.36 190.02a1.14 1.14 0 1 1-2.282 0 1.14 1.14 0 1 1 2.281 0zm0 0" fill="none" stroke-width=".06" stroke-linecap="square" stroke-linejoin="bevel" stroke="#000" stroke-miterlimit="10"/><path d="M292.078 204.422c0 1.023-.832 1.86-1.86 1.86a1.861 1.861 0 0 1 0-3.723c1.028 0 1.86.836 1.86 1.863" fill-rule="evenodd" fill="green"/><path d="M292.078 204.422c0 1.023-.832 1.86-1.86 1.86a1.861 1.861 0 0 1 0-3.723c1.028 0 1.86.836 1.86 1.863zm0 0" fill="none" stroke-width=".12" stroke-linecap="round" stroke-linejoin="round" stroke="green" stroke-miterlimit="10"/><path d="M291.36 204.422c0 .629-.508 1.137-1.141 1.137a1.139 1.139 0 1 1 0-2.278c.633 0 1.14.508 1.14 1.14" fill-rule="evenodd" fill="#fff"/><path d="M291.36 204.422c0 .629-.508 1.137-1.141 1.137a1.139 1.139 0 1 1 0-2.278c.633 0 1.14.508 1.14 1.14zm0 0" fill="none" stroke-width=".06" stroke-linecap="square" stroke-linejoin="bevel" stroke="#000" stroke-miterlimit="10"/><path d="M284.879 204.422c0 1.023-.832 1.86-1.86 1.86a1.861 1.861 0 0 1 0-3.723c1.028 0 1.86.836 1.86 1.863" fill-rule="evenodd" fill="green"/><path d="M284.879 204.422c0 1.023-.832 1.86-1.86 1.86a1.861 1.861 0 0 1 0-3.723c1.028 0 1.86.836 1.86 1.863zm0 0" fill="none" stroke-width=".12" stroke-linecap="round" stroke-linejoin="round" stroke="green" stroke-miterlimit="10"/><path d="M284.16 204.422c0 .629-.512 1.137-1.14 1.137a1.139 1.139 0 1 1 0-2.278c.628 0 1.14.508 1.14 1.14" fill-rule="evenodd" fill="#fff"/><path d="M284.16 204.422c0 .629-.512 1.137-1.14 1.137a1.139 1.139 0 1 1 0-2.278c.628 0 1.14.508 1.14 1.14zm0 0" fill="none" stroke-width=".06" stroke-linecap="square" stroke-linejoin="bevel" stroke="#000" stroke-miterlimit="10"/><path d="M284.879 190.02a1.859 1.859 0 1 1-3.718 0 1.859 1.859 0 0 1 3.718 0" fill-rule="evenodd" fill="green"/><path d="M284.879 190.02a1.859 1.859 0 1 1-3.718 0 1.859 1.859 0 0 1 3.718 0zm0 0" fill="none" stroke-width=".12" stroke-linecap="round" stroke-linejoin="round" stroke="green" stroke-miterlimit="10"/><path d="M284.16 190.02a1.142 1.142 0 1 1-1.141-1.141c.63 0 1.141.512 1.141 1.14" fill-rule="evenodd" fill="#fff"/><path d="M284.16 190.02a1.142 1.142 0 1 1-1.141-1.141c.63 0 1.141.512 1.141 1.14zm0 0" fill="none" stroke-width=".06" stroke-linecap="square" stroke-linejoin="bevel" stroke="#000" stroke-miterlimit="10"/><path d="M343.078 190.02a2.52 2.52 0 1 1-5.037-.002 2.52 2.52 0 0 1 5.037.002" fill-rule="evenodd" fill="green"/><path d="M343.078 190.02a2.52 2.52 0 1 1-5.037-.002 2.52 2.52 0 0 1 5.037.002zm0 0" fill="none" stroke-width=".12" stroke-linecap="round" stroke-linejoin="round" stroke="green" stroke-miterlimit="10"/><path d="M342 190.02a1.44 1.44 0 1 1-2.88.002 1.44 1.44 0 0 1 2.88-.002" fill-rule="evenodd" fill="#fff"/><path d="M342 190.02a1.44 1.44 0 1 1-2.88.002 1.44 1.44 0 0 1 2.88-.002zm0 0" fill="none" stroke-width=".06" stroke-linecap="square" stroke-linejoin="bevel" stroke="#000" stroke-miterlimit="10"/><path d="M343.078 197.219a2.516 2.516 0 0 1-2.52 2.52 2.52 2.52 0 1 1 2.52-2.52" fill-rule="evenodd" fill="green"/><path d="M343.078 197.219a2.516 2.516 0 0 1-2.52 2.52 2.52 2.52 0 1 1 2.52-2.52zm0 0" fill="none" stroke-width=".12" stroke-linecap="round" stroke-linejoin="round" stroke="green" stroke-miterlimit="10"/><path d="M342 197.219a1.44 1.44 0 1 1-2.88.002 1.44 1.44 0 0 1 2.88-.002" fill-rule="evenodd" fill="#fff"/><path d="M342 197.219a1.44 1.44 0 1 1-2.88.002 1.44 1.44 0 0 1 2.88-.002zm0 0" fill="none" stroke-width=".06" stroke-linecap="square" stroke-linejoin="bevel" stroke="#000" stroke-miterlimit="10"/><path d="M256.8 225.96a2.52 2.52 0 1 1-5.04-.001 2.52 2.52 0 0 1 5.04.002" fill-rule="evenodd" fill="green"/><path d="M256.8 225.96a2.52 2.52 0 1 1-5.04-.001 2.52 2.52 0 0 1 5.04.002zm0 0" fill="none" stroke-width=".12" stroke-linecap="round" stroke-linejoin="round" stroke="green" stroke-miterlimit="10"/><path d="M255.719 225.96a1.439 1.439 0 1 1-2.878-.001 1.439 1.439 0 0 1 2.878.002" fill-rule="evenodd" fill="#fff"/><path d="M255.719 225.96a1.439 1.439 0 1 1-2.878-.001 1.439 1.439 0 0 1 2.878.002zm0 0" fill="none" stroke-width=".06" stroke-linecap="square" stroke-linejoin="bevel" stroke="#000" stroke-miterlimit="10"/><path d="M256.8 218.762a2.52 2.52 0 1 1-5.04-.003 2.52 2.52 0 0 1 5.04.003" fill-rule="evenodd" fill="green"/><path d="M256.8 218.762a2.52 2.52 0 1 1-5.04-.003 2.52 2.52 0 0 1 5.04.003zm0 0" fill="none" stroke-width=".12" stroke-linecap="round" stroke-linejoin="round" stroke="green" stroke-miterlimit="10"/><path d="M255.719 218.762a1.439 1.439 0 1 1-2.878-.003 1.439 1.439 0 0 1 2.878.003" fill-rule="evenodd" fill="#fff"/><path d="M255.719 218.762a1.439 1.439 0 1 1-2.878-.003 1.439 1.439 0 0 1 2.878.003zm0 0" fill="none" stroke-width=".06" stroke-linecap="square" stroke-linejoin="bevel" stroke="#000" stroke-miterlimit="10"/><path d="M277.559 211.621c0 .926-.778 1.68-1.739 1.68-.96 0-1.742-.754-1.742-1.68 0-.93.781-1.68 1.742-1.68s1.739.75 1.739 1.68" fill-rule="evenodd" fill="green"/><path d="M277.559 211.621c0 .926-.778 1.68-1.739 1.68-.96 0-1.742-.754-1.742-1.68 0-.93.781-1.68 1.742-1.68s1.739.75 1.739 1.68zm0 0" fill="none" stroke-width=".12" stroke-linecap="round" stroke-linejoin="round" stroke="green" stroke-miterlimit="10"/><path d="M276.84 211.621a1.02 1.02 0 1 1-2.04-.001 1.02 1.02 0 0 1 2.04.001" fill-rule="evenodd" fill="#fff"/><path d="M276.84 211.621a1.02 1.02 0 1 1-2.04-.001 1.02 1.02 0 0 1 2.04.001zm0 0" fill="none" stroke-width=".06" stroke-linecap="square" stroke-linejoin="bevel" stroke="#000" stroke-miterlimit="10"/><path d="M299.16 211.621c0 .926-.777 1.68-1.738 1.68s-1.742-.754-1.742-1.68c0-.93.78-1.68 1.742-1.68.96 0 1.738.75 1.738 1.68" fill-rule="evenodd" fill="green"/><path d="M299.16 211.621c0 .926-.777 1.68-1.738 1.68s-1.742-.754-1.742-1.68c0-.93.78-1.68 1.742-1.68.96 0 1.738.75 1.738 1.68zm0 0" fill="none" stroke-width=".12" stroke-linecap="round" stroke-linejoin="round" stroke="green" stroke-miterlimit="10"/><path d="M298.441 211.621a1.021 1.021 0 1 1-2.043 0 1.021 1.021 0 0 1 2.043 0" fill-rule="evenodd" fill="#fff"/><path d="M298.441 211.621a1.021 1.021 0 1 1-2.043 0 1.021 1.021 0 0 1 2.043 0zm0 0" fill="none" stroke-width=".06" stroke-linecap="square" stroke-linejoin="bevel" stroke="#000" stroke-miterlimit="10"/><path d="M306.36 197.219c0 .93-.778 1.68-1.739 1.68-.96 0-1.742-.75-1.742-1.68 0-.926.781-1.68 1.742-1.68s1.738.754 1.738 1.68" fill-rule="evenodd" fill="green"/><path d="M306.36 197.219c0 .93-.778 1.68-1.739 1.68-.96 0-1.742-.75-1.742-1.68 0-.926.781-1.68 1.742-1.68s1.738.754 1.738 1.68zm0 0" fill="none" stroke-width=".12" stroke-linecap="round" stroke-linejoin="round" stroke="green" stroke-miterlimit="10"/><path d="M305.64 197.219a1.02 1.02 0 1 1-2.04-.002 1.02 1.02 0 0 1 2.04.002" fill-rule="evenodd" fill="#fff"/><path d="M305.64 197.219a1.02 1.02 0 1 1-2.04-.002 1.02 1.02 0 0 1 2.04.002zm0 0" fill="none" stroke-width=".06" stroke-linecap="square" stroke-linejoin="bevel" stroke="#000" stroke-miterlimit="10"/><path d="M327.898 197.219c0 .93-.777 1.68-1.738 1.68-.96 0-1.738-.75-1.738-1.68 0-.926.777-1.68 1.738-1.68s1.738.754 1.738 1.68" fill-rule="evenodd" fill="green"/><path d="M327.898 197.219c0 .93-.777 1.68-1.738 1.68-.96 0-1.738-.75-1.738-1.68 0-.926.777-1.68 1.738-1.68s1.738.754 1.738 1.68zm0 0" fill="none" stroke-width=".12" stroke-linecap="round" stroke-linejoin="round" stroke="green" stroke-miterlimit="10"/><path d="M327.18 197.219a1.02 1.02 0 1 1-2.04-.002 1.02 1.02 0 0 1 2.04.002" fill-rule="evenodd" fill="#fff"/><path d="M327.18 197.219a1.02 1.02 0 1 1-2.04-.002 1.02 1.02 0 0 1 2.04.002zm0 0" fill="none" stroke-width=".06" stroke-linecap="square" stroke-linejoin="bevel" stroke="#000" stroke-miterlimit="10"/><path d="M327.898 190.02c0 .93-.777 1.68-1.738 1.68-.96 0-1.738-.75-1.738-1.68 0-.926.777-1.68 1.738-1.68s1.738.754 1.738 1.68" fill-rule="evenodd" fill="green"/><path d="M327.898 190.02c0 .93-.777 1.68-1.738 1.68-.96 0-1.738-.75-1.738-1.68 0-.926.777-1.68 1.738-1.68s1.738.754 1.738 1.68zm0 0" fill="none" stroke-width=".12" stroke-linecap="round" stroke-linejoin="round" stroke="green" stroke-miterlimit="10"/><path d="M327.18 190.02a1.02 1.02 0 1 1-2.04-.002 1.02 1.02 0 0 1 2.04.002" fill-rule="evenodd" fill="#fff"/><path d="M327.18 190.02a1.02 1.02 0 1 1-2.04-.002 1.02 1.02 0 0 1 2.04.002zm0 0" fill="none" stroke-width=".06" stroke-linecap="square" stroke-linejoin="bevel" stroke="#000" stroke-miterlimit="10"/><path d="M306.36 190.02c0 .93-.778 1.68-1.739 1.68-.96 0-1.742-.75-1.742-1.68 0-.926.781-1.68 1.742-1.68s1.738.754 1.738 1.68" fill-rule="evenodd" fill="green"/><path d="M306.36 190.02c0 .93-.778 1.68-1.739 1.68-.96 0-1.742-.75-1.742-1.68 0-.926.781-1.68 1.742-1.68s1.738.754 1.738 1.68zm0 0" fill="none" stroke-width=".12" stroke-linecap="round" stroke-linejoin="round" stroke="green" stroke-miterlimit="10"/><path d="M305.64 190.02a1.02 1.02 0 1 1-2.04-.002 1.02 1.02 0 0 1 2.04.002" fill-rule="evenodd" fill="#fff"/><path d="M305.64 190.02a1.02 1.02 0 1 1-2.04-.002 1.02 1.02 0 0 1 2.04.002zm0 0" fill="none" stroke-width=".06" stroke-linecap="square" stroke-linejoin="bevel" stroke="#000" stroke-miterlimit="10"/><path d="M335.219 211.621a1.859 1.859 0 1 1-3.718.001 1.859 1.859 0 0 1 3.718 0" fill-rule="evenodd" fill="green"/><path d="M335.219 211.621a1.859 1.859 0 1 1-3.718.001 1.859 1.859 0 0 1 3.718 0zm0 0" fill="none" stroke-width=".12" stroke-linecap="round" stroke-linejoin="round" stroke="green" stroke-miterlimit="10"/><path d="M334.5 211.621c0 .629-.512 1.14-1.14 1.14a1.14 1.14 0 1 1 1.14-1.14" fill-rule="evenodd" fill="#fff"/><path d="M334.5 211.621c0 .629-.512 1.14-1.14 1.14a1.14 1.14 0 1 1 1.14-1.14zm0 0" fill="none" stroke-width=".06" stroke-linecap="square" stroke-linejoin="bevel" stroke="#000" stroke-miterlimit="10"/><path d="M335.219 204.422c0 1.023-.832 1.86-1.86 1.86a1.861 1.861 0 0 1 0-3.723c1.028 0 1.86.836 1.86 1.863" fill-rule="evenodd" fill="green"/><path d="M335.219 204.422c0 1.023-.832 1.86-1.86 1.86a1.861 1.861 0 0 1 0-3.723c1.028 0 1.86.836 1.86 1.863zm0 0" fill="none" stroke-width=".12" stroke-linecap="round" stroke-linejoin="round" stroke="green" stroke-miterlimit="10"/><path d="M334.5 204.422c0 .629-.512 1.137-1.14 1.137a1.139 1.139 0 1 1 0-2.278c.628 0 1.14.508 1.14 1.14" fill-rule="evenodd" fill="#fff"/><path d="M334.5 204.422c0 .629-.512 1.137-1.14 1.137a1.139 1.139 0 1 1 0-2.278c.628 0 1.14.508 1.14 1.14zm0 0" fill="none" stroke-width=".06" stroke-linecap="square" stroke-linejoin="bevel" stroke="#000" stroke-miterlimit="10"/><path d="M264 198.238l-1.5 1.5h-2.04l-1.5-1.5V196.2l1.5-1.5h2.04l1.5 1.5v2.04" fill="green"/><path d="M264 198.238l-1.5 1.5h-2.04l-1.5-1.5V196.2l1.5-1.5h2.04l1.5 1.5zm0 0" fill="none" stroke-width=".12" stroke-linecap="round" stroke-linejoin="round" stroke="green" stroke-miterlimit="10"/><path d="M262.738 197.219a1.26 1.26 0 1 1-2.52.003 1.26 1.26 0 0 1 2.52-.003" fill-rule="evenodd" fill="#fff"/><path d="M262.738 197.219a1.26 1.26 0 1 1-2.52.003 1.26 1.26 0 0 1 2.52-.003zm0 0" fill="none" stroke-width=".06" stroke-linecap="square" stroke-linejoin="bevel" stroke="#000" stroke-miterlimit="10"/><path d="M264 205.441l-1.5 1.5h-2.04l-1.5-1.5v-2.043l1.5-1.5h2.04l1.5 1.5v2.043" fill="green"/><path d="M264 205.441l-1.5 1.5h-2.04l-1.5-1.5v-2.043l1.5-1.5h2.04l1.5 1.5zm0 0" fill="none" stroke-width=".12" stroke-linecap="round" stroke-linejoin="round" stroke="green" stroke-miterlimit="10"/><path d="M262.738 204.422a1.26 1.26 0 1 1-1.258-1.262c.696 0 1.258.563 1.258 1.262" fill-rule="evenodd" fill="#fff"/><path d="M262.738 204.422a1.26 1.26 0 1 1-1.258-1.262c.696 0 1.258.563 1.258 1.262zm0 0" fill="none" stroke-width=".06" stroke-linecap="square" stroke-linejoin="bevel" stroke="#000" stroke-miterlimit="10"/><path d="M258.96 214.14H264v-5.038h-5.04zm0 0" fill="green" stroke-width=".12" stroke-linecap="round" stroke-linejoin="round" stroke="green" stroke-miterlimit="10"/><path d="M262.738 211.621a1.26 1.26 0 1 1-1.258-1.262 1.26 1.26 0 0 1 1.258 1.262" fill-rule="evenodd" fill="#fff"/><path d="M262.738 211.621a1.26 1.26 0 1 1-1.258-1.262 1.26 1.26 0 0 1 1.258 1.262zm0 0" fill="none" stroke-width=".06" stroke-linecap="square" stroke-linejoin="bevel" stroke="#000" stroke-miterlimit="10"/><path d="M285.059 218.762a2.04 2.04 0 0 1-2.04 2.039 2.04 2.04 0 0 1 0-4.082c1.126 0 2.04.914 2.04 2.043" fill-rule="evenodd" fill="green"/><path d="M285.059 218.762a2.04 2.04 0 0 1-2.04 2.039 2.04 2.04 0 0 1 0-4.082c1.126 0 2.04.914 2.04 2.043zm0 0" fill="none" stroke-width=".12" stroke-linecap="round" stroke-linejoin="round" stroke="green" stroke-miterlimit="10"/><path d="M284.04 218.762a1.02 1.02 0 1 1-1.02-1.024c.562 0 1.02.457 1.02 1.024" fill-rule="evenodd" fill="#fff"/><path d="M284.04 218.762a1.02 1.02 0 1 1-1.02-1.024c.562 0 1.02.457 1.02 1.024zm0 0" fill="none" stroke-width=".06" stroke-linecap="square" stroke-linejoin="bevel" stroke="#000" stroke-miterlimit="10"/><path d="M270.719 218.762a2.038 2.038 0 1 1-4.078 0 2.039 2.039 0 1 1 4.078 0" fill-rule="evenodd" fill="green"/><path d="M270.719 218.762a2.038 2.038 0 1 1-4.078 0 2.039 2.039 0 1 1 4.078 0zm0 0" fill="none" stroke-width=".12" stroke-linecap="round" stroke-linejoin="round" stroke="green" stroke-miterlimit="10"/><path d="M269.7 218.762a1.02 1.02 0 1 1-1.02-1.024c.562 0 1.02.457 1.02 1.024" fill-rule="evenodd" fill="#fff"/><path d="M269.7 218.762a1.02 1.02 0 1 1-1.02-1.024c.562 0 1.02.457 1.02 1.024zm0 0" fill="none" stroke-width=".06" stroke-linecap="square" stroke-linejoin="bevel" stroke="#000" stroke-miterlimit="10"/><path d="M277.86 218.762a2.038 2.038 0 1 1-4.078 0 2.039 2.039 0 1 1 4.077 0" fill-rule="evenodd" fill="green"/><path d="M277.86 218.762a2.038 2.038 0 1 1-4.078 0 2.039 2.039 0 1 1 4.077 0zm0 0" fill="none" stroke-width=".12" stroke-linecap="round" stroke-linejoin="round" stroke="green" stroke-miterlimit="10"/><path d="M276.84 218.762a1.02 1.02 0 1 1-1.02-1.024c.563 0 1.02.457 1.02 1.024" fill-rule="evenodd" fill="#fff"/><path d="M276.84 218.762a1.02 1.02 0 1 1-1.02-1.024c.563 0 1.02.457 1.02 1.024zm0 0" fill="none" stroke-width=".06" stroke-linecap="square" stroke-linejoin="bevel" stroke="#000" stroke-miterlimit="10"/><path d="M306.48 212.398l-1.082 1.082h-1.558l-1.078-1.082v-1.558l1.078-1.078h1.558l1.082 1.078v1.558" fill="green"/><path d="M306.48 212.398l-1.082 1.082h-1.558l-1.078-1.082v-1.558l1.078-1.078h1.558l1.082 1.078zm0 0" fill="none" stroke-width=".12" stroke-linecap="round" stroke-linejoin="round" stroke="green" stroke-miterlimit="10"/><path d="M305.762 211.621a1.14 1.14 0 1 1-2.281 0c0-.633.507-1.14 1.14-1.14.629 0 1.14.507 1.14 1.14" fill-rule="evenodd" fill="#fff"/><path d="M305.762 211.621a1.14 1.14 0 1 1-2.281 0c0-.633.507-1.14 1.14-1.14.629 0 1.14.507 1.14 1.14zm0 0" fill="none" stroke-width=".06" stroke-linecap="square" stroke-linejoin="bevel" stroke="#000" stroke-miterlimit="10"/><path d="M306.48 226.738l-1.082 1.082h-1.558l-1.078-1.082v-1.558l1.078-1.078h1.558l1.082 1.078v1.558" fill="green"/><path d="M306.48 226.738l-1.082 1.082h-1.558l-1.078-1.082v-1.558l1.078-1.078h1.558l1.082 1.078zm0 0" fill="none" stroke-width=".12" stroke-linecap="round" stroke-linejoin="round" stroke="green" stroke-miterlimit="10"/><path d="M305.762 225.96a1.14 1.14 0 1 1-2.281 0c0-.632.507-1.14 1.14-1.14.629 0 1.14.508 1.14 1.14" fill-rule="evenodd" fill="#fff"/><path d="M305.762 225.96a1.14 1.14 0 1 1-2.281 0c0-.632.507-1.14 1.14-1.14.629 0 1.14.508 1.14 1.14zm0 0" fill="none" stroke-width=".06" stroke-linecap="square" stroke-linejoin="bevel" stroke="#000" stroke-miterlimit="10"/><path d="M306.48 219.54l-1.082 1.081h-1.558l-1.078-1.082v-1.559l1.078-1.082h1.558l1.082 1.082v1.56" fill="green"/><path d="M306.48 219.54l-1.082 1.081h-1.558l-1.078-1.082v-1.559l1.078-1.082h1.558l1.082 1.082zm0 0" fill="none" stroke-width=".12" stroke-linecap="round" stroke-linejoin="round" stroke="green" stroke-miterlimit="10"/><path d="M305.762 218.762c0 .629-.512 1.136-1.14 1.136a1.136 1.136 0 0 1-1.142-1.136c0-.633.508-1.14 1.141-1.14.629 0 1.14.507 1.14 1.14" fill-rule="evenodd" fill="#fff"/><path d="M305.762 218.762c0 .629-.512 1.136-1.14 1.136a1.136 1.136 0 0 1-1.142-1.136c0-.633.508-1.14 1.141-1.14.629 0 1.14.507 1.14 1.14zm0 0" fill="none" stroke-width=".06" stroke-linecap="square" stroke-linejoin="bevel" stroke="#000" stroke-miterlimit="10"/><path d="M299.46 190.02a2.04 2.04 0 0 1-4.081 0 2.041 2.041 0 0 1 4.082 0" fill-rule="evenodd" fill="green"/><path d="M299.46 190.02a2.04 2.04 0 0 1-4.081 0 2.041 2.041 0 0 1 4.082 0zm0 0" fill="none" stroke-width=".12" stroke-linecap="round" stroke-linejoin="round" stroke="green" stroke-miterlimit="10"/><path d="M298.441 190.02a1.021 1.021 0 1 1-2.043 0 1.021 1.021 0 0 1 2.043 0" fill-rule="evenodd" fill="#fff"/><path d="M298.441 190.02a1.021 1.021 0 1 1-2.043 0 1.021 1.021 0 0 1 2.043 0zm0 0" fill="none" stroke-width=".06" stroke-linecap="square" stroke-linejoin="bevel" stroke="#000" stroke-miterlimit="10"/><path d="M299.46 204.422a2.04 2.04 0 1 1-4.08-.003 2.04 2.04 0 0 1 4.08.003" fill-rule="evenodd" fill="green"/><path d="M299.46 204.422a2.04 2.04 0 1 1-4.08-.003 2.04 2.04 0 0 1 4.08.003zm0 0" fill="none" stroke-width=".12" stroke-linecap="round" stroke-linejoin="round" stroke="green" stroke-miterlimit="10"/><path d="M298.441 204.422a1.021 1.021 0 1 1-1.02-1.023c.563 0 1.02.456 1.02 1.023" fill-rule="evenodd" fill="#fff"/><path d="M298.441 204.422a1.021 1.021 0 1 1-1.02-1.023c.563 0 1.02.456 1.02 1.023zm0 0" fill="none" stroke-width=".06" stroke-linecap="square" stroke-linejoin="bevel" stroke="#000" stroke-miterlimit="10"/><path d="M299.46 197.219a2.041 2.041 0 1 1-4.082.003 2.041 2.041 0 0 1 4.083-.003" fill-rule="evenodd" fill="green"/><path d="M299.46 197.219a2.041 2.041 0 1 1-4.082.003 2.041 2.041 0 0 1 4.083-.003zm0 0" fill="none" stroke-width=".12" stroke-linecap="round" stroke-linejoin="round" stroke="green" stroke-miterlimit="10"/><path d="M298.441 197.219a1.021 1.021 0 1 1-2.043 0 1.021 1.021 0 0 1 2.043 0" fill-rule="evenodd" fill="#fff"/><path d="M298.441 197.219a1.021 1.021 0 1 1-2.043 0 1.021 1.021 0 0 1 2.043 0zm0 0" fill="none" stroke-width=".06" stroke-linecap="square" stroke-linejoin="bevel" stroke="#000" stroke-miterlimit="10"/><path d="M343.078 225.96a2.52 2.52 0 1 1-5.037-.002 2.52 2.52 0 0 1 5.037.003" fill-rule="evenodd" fill="green"/><path d="M343.078 225.96a2.52 2.52 0 1 1-5.037-.002 2.52 2.52 0 0 1 5.037.003zm0 0" fill="none" stroke-width=".12" stroke-linecap="round" stroke-linejoin="round" stroke="green" stroke-miterlimit="10"/><path d="M342 225.96a1.44 1.44 0 1 1-2.88-.003 1.44 1.44 0 0 1 2.88.004" fill-rule="evenodd" fill="#fff"/><path d="M342 225.96a1.44 1.44 0 1 1-2.88-.003 1.44 1.44 0 0 1 2.88.004zm0 0" fill="none" stroke-width=".06" stroke-linecap="square" stroke-linejoin="bevel" stroke="#000" stroke-miterlimit="10"/><path d="M343.078 218.762a2.52 2.52 0 1 1-5.037-.002 2.52 2.52 0 0 1 5.037.002" fill-rule="evenodd" fill="green"/><path d="M343.078 218.762a2.52 2.52 0 1 1-5.037-.002 2.52 2.52 0 0 1 5.037.002zm0 0" fill="none" stroke-width=".12" stroke-linecap="round" stroke-linejoin="round" stroke="green" stroke-miterlimit="10"/><path d="M342 218.762a1.44 1.44 0 1 1-2.88-.004 1.44 1.44 0 0 1 2.88.004" fill-rule="evenodd" fill="#fff"/><path d="M342 218.762a1.44 1.44 0 1 1-2.88-.004 1.44 1.44 0 0 1 2.88.004zm0 0" fill="none" stroke-width=".06" stroke-linecap="square" stroke-linejoin="bevel" stroke="#000" stroke-miterlimit="10"/><path d="M270.96 190.02a2.284 2.284 0 0 1-2.28 2.28 2.284 2.284 0 0 1-2.282-2.28 2.284 2.284 0 0 1 2.282-2.282 2.284 2.284 0 0 1 2.28 2.282" fill-rule="evenodd" fill="green"/><path d="M270.96 190.02a2.284 2.284 0 0 1-2.28 2.28 2.284 2.284 0 0 1-2.282-2.28 2.284 2.284 0 0 1 2.282-2.282 2.284 2.284 0 0 1 2.28 2.282zm0 0" fill="none" stroke-width=".12" stroke-linecap="round" stroke-linejoin="round" stroke="green" stroke-miterlimit="10"/><path d="M269.82 190.02a1.14 1.14 0 1 1-2.278 0 1.14 1.14 0 0 1 2.278-.001" fill-rule="evenodd" fill="#fff"/><path d="M269.82 190.02a1.14 1.14 0 1 1-2.278 0 1.14 1.14 0 0 1 2.278-.001zm0 0" fill="none" stroke-width=".06" stroke-linecap="square" stroke-linejoin="bevel" stroke="#000" stroke-miterlimit="10"/><path d="M273.54 192.3h4.562v-4.562h-4.563zm0 0" fill="green" stroke-width=".12" stroke-linecap="round" stroke-linejoin="round" stroke="green" stroke-miterlimit="10"/><path d="M276.96 190.02a1.14 1.14 0 1 1-2.282 0 1.14 1.14 0 0 1 2.282-.001" fill-rule="evenodd" fill="#fff"/><path d="M276.96 190.02a1.14 1.14 0 1 1-2.282 0 1.14 1.14 0 0 1 2.282-.001zm0 0" fill="none" stroke-width=".06" stroke-linecap="square" stroke-linejoin="bevel" stroke="#000" stroke-miterlimit="10"/><path d="M270.96 204.422a2.28 2.28 0 0 1-4.562 0 2.281 2.281 0 0 1 4.563 0" fill-rule="evenodd" fill="green"/><path d="M270.96 204.422a2.28 2.28 0 0 1-4.562 0 2.281 2.281 0 0 1 4.563 0zm0 0" fill="none" stroke-width=".12" stroke-linecap="round" stroke-linejoin="round" stroke="green" stroke-miterlimit="10"/><path d="M269.82 204.422c0 .629-.511 1.137-1.14 1.137a1.139 1.139 0 1 1 0-2.278c.629 0 1.14.508 1.14 1.14" fill-rule="evenodd" fill="#fff"/><path d="M269.82 204.422c0 .629-.511 1.137-1.14 1.137a1.139 1.139 0 1 1 0-2.278c.629 0 1.14.508 1.14 1.14zm0 0" fill="none" stroke-width=".06" stroke-linecap="square" stroke-linejoin="bevel" stroke="#000" stroke-miterlimit="10"/><path d="M273.54 206.7h4.562v-4.56h-4.563zm0 0" fill="green" stroke-width=".12" stroke-linecap="round" stroke-linejoin="round" stroke="green" stroke-miterlimit="10"/><path d="M276.96 204.422c0 .629-.51 1.137-1.14 1.137a1.139 1.139 0 1 1 0-2.278c.63 0 1.14.508 1.14 1.14" fill-rule="evenodd" fill="#fff"/><path d="M276.96 204.422c0 .629-.51 1.137-1.14 1.137a1.139 1.139 0 1 1 0-2.278c.63 0 1.14.508 1.14 1.14zm0 0" fill="none" stroke-width=".06" stroke-linecap="square" stroke-linejoin="bevel" stroke="#000" stroke-miterlimit="10"/><path d="M316.32 214.32h5.399v-5.398h-5.399zm0 0" fill="green" stroke-width=".12" stroke-linecap="round" stroke-linejoin="round" stroke="green" stroke-miterlimit="10"/><path d="M320.16 211.621c0 .629-.512 1.14-1.14 1.14a1.14 1.14 0 1 1 1.14-1.14" fill-rule="evenodd" fill="#fff"/><path d="M320.16 211.621c0 .629-.512 1.14-1.14 1.14a1.14 1.14 0 1 1 1.14-1.14zm0 0" fill="none" stroke-width=".06" stroke-linecap="square" stroke-linejoin="bevel" stroke="#000" stroke-miterlimit="10"/><path d="M321.719 225.96a2.7 2.7 0 1 1-5.4 0 2.7 2.7 0 0 1 5.4 0" fill-rule="evenodd" fill="green"/><path d="M321.719 225.96a2.7 2.7 0 1 1-5.4 0 2.7 2.7 0 0 1 5.4 0zm0 0" fill="none" stroke-width=".12" stroke-linecap="round" stroke-linejoin="round" stroke="green" stroke-miterlimit="10"/><path d="M320.16 225.96c0 .63-.512 1.142-1.14 1.142-.63 0-1.141-.512-1.141-1.141a1.14 1.14 0 1 1 2.281 0" fill-rule="evenodd" fill="#fff"/><path d="M320.16 225.96c0 .63-.512 1.142-1.14 1.142-.63 0-1.141-.512-1.141-1.141a1.14 1.14 0 1 1 2.281 0zm0 0" fill="none" stroke-width=".06" stroke-linecap="square" stroke-linejoin="bevel" stroke="#000" stroke-miterlimit="10"/><path d="M320.762 205.14l-1.024 1.02h-1.437l-1.02-1.02v-1.44l1.02-1.02h1.437l1.024 1.02v1.44" fill="green"/><path d="M320.762 205.14l-1.024 1.02h-1.437l-1.02-1.02v-1.44l1.02-1.02h1.437l1.024 1.02zm0 0" fill="none" stroke-width=".12" stroke-linecap="round" stroke-linejoin="round" stroke="green" stroke-miterlimit="10"/><path d="M320.04 204.422a1.02 1.02 0 1 1-1.02-1.024c.562 0 1.02.457 1.02 1.024" fill-rule="evenodd" fill="#fff"/><path d="M320.04 204.422a1.02 1.02 0 1 1-1.02-1.024c.562 0 1.02.457 1.02 1.024zm0 0" fill="none" stroke-width=".06" stroke-linecap="square" stroke-linejoin="bevel" stroke="#000" stroke-miterlimit="10"/><path d="M306.36 204.422c0 .926-.778 1.68-1.739 1.68-.96 0-1.742-.754-1.742-1.68 0-.93.781-1.684 1.742-1.684s1.738.754 1.738 1.684" fill-rule="evenodd" fill="green"/><path d="M306.36 204.422c0 .926-.778 1.68-1.739 1.68-.96 0-1.742-.754-1.742-1.68 0-.93.781-1.684 1.742-1.684s1.738.754 1.738 1.684zm0 0" fill="none" stroke-width=".12" stroke-linecap="round" stroke-linejoin="round" stroke="green" stroke-miterlimit="10"/><path d="M305.64 204.422a1.02 1.02 0 1 1-1.019-1.024c.563 0 1.02.457 1.02 1.024" fill-rule="evenodd" fill="#fff"/><path d="M305.64 204.422a1.02 1.02 0 1 1-1.019-1.024c.563 0 1.02.457 1.02 1.024zm0 0" fill="none" stroke-width=".06" stroke-linecap="square" stroke-linejoin="bevel" stroke="#000" stroke-miterlimit="10"/><path d="M292.078 190.02a1.859 1.859 0 1 1-3.717 0 1.859 1.859 0 0 1 3.717 0" fill-rule="evenodd" fill="green"/><path d="M292.078 190.02a1.859 1.859 0 1 1-3.718 0 1.859 1.859 0 0 1 3.718 0zm0 0" fill="none" stroke-width=".12" stroke-linecap="round" stroke-linejoin="round" stroke="green" stroke-miterlimit="10"/><path d="M291.36 190.02a1.14 1.14 0 1 1-2.282 0 1.14 1.14 0 1 1 2.281 0" fill-rule="evenodd" fill="#fff"/><path d="M291.36 190.02a1.14 1.14 0 1 1-2.282 0 1.14 1.14 0 1 1 2.281 0zm0 0" fill="none" stroke-width=".06" stroke-linecap="square" stroke-linejoin="bevel" stroke="#000" stroke-miterlimit="10"/><path d="M292.078 204.422c0 1.023-.832 1.86-1.86 1.86a1.861 1.861 0 0 1 0-3.723c1.028 0 1.86.836 1.86 1.863" fill-rule="evenodd" fill="green"/><path d="M292.078 204.422c0 1.023-.832 1.86-1.86 1.86a1.861 1.861 0 0 1 0-3.723c1.028 0 1.86.836 1.86 1.863zm0 0" fill="none" stroke-width=".12" stroke-linecap="round" stroke-linejoin="round" stroke="green" stroke-miterlimit="10"/><path d="M291.36 204.422c0 .629-.508 1.137-1.141 1.137a1.139 1.139 0 1 1 0-2.278c.633 0 1.14.508 1.14 1.14" fill-rule="evenodd" fill="#fff"/><path d="M291.36 204.422c0 .629-.508 1.137-1.141 1.137a1.139 1.139 0 1 1 0-2.278c.633 0 1.14.508 1.14 1.14zm0 0" fill="none" stroke-width=".06" stroke-linecap="square" stroke-linejoin="bevel" stroke="#000" stroke-miterlimit="10"/><path d="M284.879 204.422c0 1.023-.832 1.86-1.86 1.86a1.861 1.861 0 0 1 0-3.723c1.028 0 1.86.836 1.86 1.863" fill-rule="evenodd" fill="green"/><path d="M284.879 204.422c0 1.023-.832 1.86-1.86 1.86a1.861 1.861 0 0 1 0-3.723c1.028 0 1.86.836 1.86 1.863zm0 0" fill="none" stroke-width=".12" stroke-linecap="round" stroke-linejoin="round" stroke="green" stroke-miterlimit="10"/><path d="M284.16 204.422c0 .629-.512 1.137-1.14 1.137a1.139 1.139 0 1 1 0-2.278c.628 0 1.14.508 1.14 1.14" fill-rule="evenodd" fill="#fff"/><path d="M284.16 204.422c0 .629-.512 1.137-1.14 1.137a1.139 1.139 0 1 1 0-2.278c.628 0 1.14.508 1.14 1.14zm0 0" fill="none" stroke-width=".06" stroke-linecap="square" stroke-linejoin="bevel" stroke="#000" stroke-miterlimit="10"/><path d="M284.879 190.02a1.859 1.859 0 1 1-3.718 0 1.859 1.859 0 0 1 3.718 0" fill-rule="evenodd" fill="green"/><path d="M284.879 190.02a1.859 1.859 0 1 1-3.718 0 1.859 1.859 0 0 1 3.718 0zm0 0" fill="none" stroke-width=".12" stroke-linecap="round" stroke-linejoin="round" stroke="green" stroke-miterlimit="10"/><path d="M284.16 190.02a1.142 1.142 0 1 1-1.141-1.141c.63 0 1.141.512 1.141 1.14" fill-rule="evenodd" fill="#fff"/><path d="M284.16 190.02a1.142 1.142 0 1 1-1.141-1.141c.63 0 1.141.512 1.141 1.14zm0 0" fill="none" stroke-width=".06" stroke-linecap="square" stroke-linejoin="bevel" stroke="#000" stroke-miterlimit="10"/><path d="M343.078 190.02a2.52 2.52 0 1 1-5.037-.002 2.52 2.52 0 0 1 5.037.002" fill-rule="evenodd" fill="green"/><path d="M343.078 190.02a2.52 2.52 0 1 1-5.037-.002 2.52 2.52 0 0 1 5.037.002zm0 0" fill="none" stroke-width=".12" stroke-linecap="round" stroke-linejoin="round" stroke="green" stroke-miterlimit="10"/><path d="M342 190.02a1.44 1.44 0 1 1-2.88.002 1.44 1.44 0 0 1 2.88-.002" fill-rule="evenodd" fill="#fff"/><path d="M342 190.02a1.44 1.44 0 1 1-2.88.002 1.44 1.44 0 0 1 2.88-.002zm0 0" fill="none" stroke-width=".06" stroke-linecap="square" stroke-linejoin="bevel" stroke="#000" stroke-miterlimit="10"/><path d="M343.078 197.219a2.516 2.516 0 0 1-2.52 2.52 2.52 2.52 0 1 1 2.52-2.52" fill-rule="evenodd" fill="green"/><path d="M343.078 197.219a2.516 2.516 0 0 1-2.52 2.52 2.52 2.52 0 1 1 2.52-2.52zm0 0" fill="none" stroke-width=".12" stroke-linecap="round" stroke-linejoin="round" stroke="green" stroke-miterlimit="10"/><path d="M342 197.219a1.44 1.44 0 1 1-2.88.002 1.44 1.44 0 0 1 2.88-.002" fill-rule="evenodd" fill="#fff"/><path d="M342 197.219a1.44 1.44 0 1 1-2.88.002 1.44 1.44 0 0 1 2.88-.002zm0 0" fill="none" stroke-width=".06" stroke-linecap="square" stroke-linejoin="bevel" stroke="#000" stroke-miterlimit="10"/><path d="M256.8 225.96a2.52 2.52 0 1 1-5.04-.001 2.52 2.52 0 0 1 5.04.002" fill-rule="evenodd" fill="green"/><path d="M256.8 225.96a2.52 2.52 0 1 1-5.04-.001 2.52 2.52 0 0 1 5.04.002zm0 0" fill="none" stroke-width=".12" stroke-linecap="round" stroke-linejoin="round" stroke="green" stroke-miterlimit="10"/><path d="M255.719 225.96a1.439 1.439 0 1 1-2.878-.001 1.439 1.439 0 0 1 2.878.002" fill-rule="evenodd" fill="#fff"/><path d="M255.719 225.96a1.439 1.439 0 1 1-2.878-.001 1.439 1.439 0 0 1 2.878.002zm0 0" fill="none" stroke-width=".06" stroke-linecap="square" stroke-linejoin="bevel" stroke="#000" stroke-miterlimit="10"/><path d="M256.8 218.762a2.52 2.52 0 1 1-5.04-.003 2.52 2.52 0 0 1 5.04.003" fill-rule="evenodd" fill="green"/><path d="M256.8 218.762a2.52 2.52 0 1 1-5.04-.003 2.52 2.52 0 0 1 5.04.003zm0 0" fill="none" stroke-width=".12" stroke-linecap="round" stroke-linejoin="round" stroke="green" stroke-miterlimit="10"/><path d="M255.719 218.762a1.439 1.439 0 1 1-2.878-.003 1.439 1.439 0 0 1 2.878.003" fill-rule="evenodd" fill="#fff"/><path d="M255.719 218.762a1.439 1.439 0 1 1-2.878-.003 1.439 1.439 0 0 1 2.878.003zm0 0" fill="none" stroke-width=".06" stroke-linecap="square" stroke-linejoin="bevel" stroke="#000" stroke-miterlimit="10"/><path d="M277.559 211.621c0 .926-.778 1.68-1.739 1.68-.96 0-1.742-.754-1.742-1.68 0-.93.781-1.68 1.742-1.68s1.739.75 1.739 1.68" fill-rule="evenodd" fill="green"/><path d="M277.559 211.621c0 .926-.778 1.68-1.739 1.68-.96 0-1.742-.754-1.742-1.68 0-.93.781-1.68 1.742-1.68s1.739.75 1.739 1.68zm0 0" fill="none" stroke-width=".12" stroke-linecap="round" stroke-linejoin="round" stroke="green" stroke-miterlimit="10"/><path d="M276.84 211.621a1.02 1.02 0 1 1-2.04-.001 1.02 1.02 0 0 1 2.04.001" fill-rule="evenodd" fill="#fff"/><path d="M276.84 211.621a1.02 1.02 0 1 1-2.04-.001 1.02 1.02 0 0 1 2.04.001zm0 0" fill="none" stroke-width=".06" stroke-linecap="square" stroke-linejoin="bevel" stroke="#000" stroke-miterlimit="10"/><path d="M299.16 211.621c0 .926-.777 1.68-1.738 1.68s-1.742-.754-1.742-1.68c0-.93.78-1.68 1.742-1.68.96 0 1.738.75 1.738 1.68" fill-rule="evenodd" fill="green"/><path d="M299.16 211.621c0 .926-.777 1.68-1.738 1.68s-1.742-.754-1.742-1.68c0-.93.78-1.68 1.742-1.68.96 0 1.738.75 1.738 1.68zm0 0" fill="none" stroke-width=".12" stroke-linecap="round" stroke-linejoin="round" stroke="green" stroke-miterlimit="10"/><path d="M298.441 211.621a1.021 1.021 0 1 1-2.043 0 1.021 1.021 0 0 1 2.043 0" fill-rule="evenodd" fill="#fff"/><path d="M298.441 211.621a1.021 1.021 0 1 1-2.043 0 1.021 1.021 0 0 1 2.043 0zm0 0" fill="none" stroke-width=".06" stroke-linecap="square" stroke-linejoin="bevel" stroke="#000" stroke-miterlimit="10"/><path d="M306.36 197.219c0 .93-.778 1.68-1.739 1.68-.96 0-1.742-.75-1.742-1.68 0-.926.781-1.68 1.742-1.68s1.738.754 1.738 1.68" fill-rule="evenodd" fill="green"/><path d="M306.36 197.219c0 .93-.778 1.68-1.739 1.68-.96 0-1.742-.75-1.742-1.68 0-.926.781-1.68 1.742-1.68s1.738.754 1.738 1.68zm0 0" fill="none" stroke-width=".12" stroke-linecap="round" stroke-linejoin="round" stroke="green" stroke-miterlimit="10"/><path d="M305.64 197.219a1.02 1.02 0 1 1-2.04-.002 1.02 1.02 0 0 1 2.04.002" fill-rule="evenodd" fill="#fff"/><path d="M305.64 197.219a1.02 1.02 0 1 1-2.04-.002 1.02 1.02 0 0 1 2.04.002zm0 0" fill="none" stroke-width=".06" stroke-linecap="square" stroke-linejoin="bevel" stroke="#000" stroke-miterlimit="10"/><path d="M327.898 197.219c0 .93-.777 1.68-1.738 1.68-.96 0-1.738-.75-1.738-1.68 0-.926.777-1.68 1.738-1.68s1.738.754 1.738 1.68" fill-rule="evenodd" fill="green"/><path d="M327.898 197.219c0 .93-.777 1.68-1.738 1.68-.96 0-1.738-.75-1.738-1.68 0-.926.777-1.68 1.738-1.68s1.738.754 1.738 1.68zm0 0" fill="none" stroke-width=".12" stroke-linecap="round" stroke-linejoin="round" stroke="green" stroke-miterlimit="10"/><path d="M327.18 197.219a1.02 1.02 0 1 1-2.04-.002 1.02 1.02 0 0 1 2.04.002" fill-rule="evenodd" fill="#fff"/><path d="M327.18 197.219a1.02 1.02 0 1 1-2.04-.002 1.02 1.02 0 0 1 2.04.002zm0 0" fill="none" stroke-width=".06" stroke-linecap="square" stroke-linejoin="bevel" stroke="#000" stroke-miterlimit="10"/><path d="M327.898 190.02c0 .93-.777 1.68-1.738 1.68-.96 0-1.738-.75-1.738-1.68 0-.926.777-1.68 1.738-1.68s1.738.754 1.738 1.68" fill-rule="evenodd" fill="green"/><path d="M327.898 190.02c0 .93-.777 1.68-1.738 1.68-.96 0-1.738-.75-1.738-1.68 0-.926.777-1.68 1.738-1.68s1.738.754 1.738 1.68zm0 0" fill="none" stroke-width=".12" stroke-linecap="round" stroke-linejoin="round" stroke="green" stroke-miterlimit="10"/><path d="M327.18 190.02a1.02 1.02 0 1 1-2.04-.002 1.02 1.02 0 0 1 2.04.002" fill-rule="evenodd" fill="#fff"/><path d="M327.18 190.02a1.02 1.02 0 1 1-2.04-.002 1.02 1.02 0 0 1 2.04.002zm0 0" fill="none" stroke-width=".06" stroke-linecap="square" stroke-linejoin="bevel" stroke="#000" stroke-miterlimit="10"/><path d="M306.36 190.02c0 .93-.778 1.68-1.739 1.68-.96 0-1.742-.75-1.742-1.68 0-.926.781-1.68 1.742-1.68s1.738.754 1.738 1.68" fill-rule="evenodd" fill="green"/><path d="M306.36 190.02c0 .93-.778 1.68-1.739 1.68-.96 0-1.742-.75-1.742-1.68 0-.926.781-1.68 1.742-1.68s1.738.754 1.738 1.68zm0 0" fill="none" stroke-width=".12" stroke-linecap="round" stroke-linejoin="round" stroke="green" stroke-miterlimit="10"/><path d="M305.64 190.02a1.02 1.02 0 1 1-2.04-.002 1.02 1.02 0 0 1 2.04.002" fill-rule="evenodd" fill="#fff"/><path d="M305.64 190.02a1.02 1.02 0 1 1-2.04-.002 1.02 1.02 0 0 1 2.04.002zm0 0" fill="none" stroke-width=".06" stroke-linecap="square" stroke-linejoin="bevel" stroke="#000" stroke-miterlimit="10"/><path d="M335.219 211.621a1.859 1.859 0 1 1-3.718.001 1.859 1.859 0 0 1 3.718 0" fill-rule="evenodd" fill="green"/><path d="M335.219 211.621a1.859 1.859 0 1 1-3.718.001 1.859 1.859 0 0 1 3.718 0zm0 0" fill="none" stroke-width=".12" stroke-linecap="round" stroke-linejoin="round" stroke="green" stroke-miterlimit="10"/><path d="M334.5 211.621c0 .629-.512 1.14-1.14 1.14a1.14 1.14 0 1 1 1.14-1.14" fill-rule="evenodd" fill="#fff"/><path d="M334.5 211.621c0 .629-.512 1.14-1.14 1.14a1.14 1.14 0 1 1 1.14-1.14zm0 0" fill="none" stroke-width=".06" stroke-linecap="square" stroke-linejoin="bevel" stroke="#000" stroke-miterlimit="10"/><path d="M335.219 204.422c0 1.023-.832 1.86-1.86 1.86a1.861 1.861 0 0 1 0-3.723c1.028 0 1.86.836 1.86 1.863" fill-rule="evenodd" fill="green"/><path d="M335.219 204.422c0 1.023-.832 1.86-1.86 1.86a1.861 1.861 0 0 1 0-3.723c1.028 0 1.86.836 1.86 1.863zm0 0" fill="none" stroke-width=".12" stroke-linecap="round" stroke-linejoin="round" stroke="green" stroke-miterlimit="10"/><path d="M334.5 204.422c0 .629-.512 1.137-1.14 1.137a1.139 1.139 0 1 1 0-2.278c.628 0 1.14.508 1.14 1.14" fill-rule="evenodd" fill="#fff"/><path d="M334.5 204.422c0 .629-.512 1.137-1.14 1.137a1.139 1.139 0 1 1 0-2.278c.628 0 1.14.508 1.14 1.14zm0 0" fill="none" stroke-width=".06" stroke-linecap="square" stroke-linejoin="bevel" stroke="#000" stroke-miterlimit="10"/><path d="M264 198.238l-1.5 1.5h-2.04l-1.5-1.5V196.2l1.5-1.5h2.04l1.5 1.5v2.04" fill="green"/><path d="M264 198.238l-1.5 1.5h-2.04l-1.5-1.5V196.2l1.5-1.5h2.04l1.5 1.5zm0 0" fill="none" stroke-width=".12" stroke-linecap="round" stroke-linejoin="round" stroke="green" stroke-miterlimit="10"/><path d="M262.738 197.219a1.26 1.26 0 1 1-2.52.003 1.26 1.26 0 0 1 2.52-.003" fill-rule="evenodd" fill="#fff"/><path d="M262.738 197.219a1.26 1.26 0 1 1-2.52.003 1.26 1.26 0 0 1 2.52-.003zm0 0" fill="none" stroke-width=".06" stroke-linecap="square" stroke-linejoin="bevel" stroke="#000" stroke-miterlimit="10"/><path d="M264 205.441l-1.5 1.5h-2.04l-1.5-1.5v-2.043l1.5-1.5h2.04l1.5 1.5v2.043" fill="green"/><path d="M264 205.441l-1.5 1.5h-2.04l-1.5-1.5v-2.043l1.5-1.5h2.04l1.5 1.5zm0 0" fill="none" stroke-width=".12" stroke-linecap="round" stroke-linejoin="round" stroke="green" stroke-miterlimit="10"/><path d="M262.738 204.422a1.26 1.26 0 1 1-1.258-1.262c.696 0 1.258.563 1.258 1.262" fill-rule="evenodd" fill="#fff"/><path d="M262.738 204.422a1.26 1.26 0 1 1-1.258-1.262c.696 0 1.258.563 1.258 1.262zm0 0" fill="none" stroke-width=".06" stroke-linecap="square" stroke-linejoin="bevel" stroke="#000" stroke-miterlimit="10"/><path d="M258.96 214.14H264v-5.038h-5.04zm0 0" fill="green" stroke-width=".12" stroke-linecap="round" stroke-linejoin="round" stroke="green" stroke-miterlimit="10"/><path d="M262.738 211.621a1.26 1.26 0 1 1-1.258-1.262 1.26 1.26 0 0 1 1.258 1.262" fill-rule="evenodd" fill="#fff"/><path d="M262.738 211.621a1.26 1.26 0 1 1-1.258-1.262 1.26 1.26 0 0 1 1.258 1.262zm0 0" fill="none" stroke-width=".06" stroke-linecap="square" stroke-linejoin="bevel" stroke="#000" stroke-miterlimit="10"/><path d="M285.059 218.762a2.04 2.04 0 0 1-2.04 2.039 2.04 2.04 0 0 1 0-4.082c1.126 0 2.04.914 2.04 2.043" fill-rule="evenodd" fill="green"/><path d="M285.059 218.762a2.04 2.04 0 0 1-2.04 2.039 2.04 2.04 0 0 1 0-4.082c1.126 0 2.04.914 2.04 2.043zm0 0" fill="none" stroke-width=".12" stroke-linecap="round" stroke-linejoin="round" stroke="green" stroke-miterlimit="10"/><path d="M284.04 218.762a1.02 1.02 0 1 1-1.02-1.024c.562 0 1.02.457 1.02 1.024" fill-rule="evenodd" fill="#fff"/><path d="M284.04 218.762a1.02 1.02 0 1 1-1.02-1.024c.562 0 1.02.457 1.02 1.024zm0 0" fill="none" stroke-width=".06" stroke-linecap="square" stroke-linejoin="bevel" stroke="#000" stroke-miterlimit="10"/><path d="M270.719 218.762a2.038 2.038 0 1 1-4.078 0 2.039 2.039 0 1 1 4.078 0" fill-rule="evenodd" fill="green"/><path d="M270.719 218.762a2.038 2.038 0 1 1-4.078 0 2.039 2.039 0 1 1 4.078 0zm0 0" fill="none" stroke-width=".12" stroke-linecap="round" stroke-linejoin="round" stroke="green" stroke-miterlimit="10"/><path d="M269.7 218.762a1.02 1.02 0 1 1-1.02-1.024c.562 0 1.02.457 1.02 1.024" fill-rule="evenodd" fill="#fff"/><path d="M269.7 218.762a1.02 1.02 0 1 1-1.02-1.024c.562 0 1.02.457 1.02 1.024zm0 0" fill="none" stroke-width=".06" stroke-linecap="square" stroke-linejoin="bevel" stroke="#000" stroke-miterlimit="10"/><path d="M277.86 218.762a2.038 2.038 0 1 1-4.078 0 2.039 2.039 0 1 1 4.077 0" fill-rule="evenodd" fill="green"/><path d="M277.86 218.762a2.038 2.038 0 1 1-4.078 0 2.039 2.039 0 1 1 4.077 0zm0 0" fill="none" stroke-width=".12" stroke-linecap="round" stroke-linejoin="round" stroke="green" stroke-miterlimit="10"/><path d="M276.84 218.762a1.02 1.02 0 1 1-1.02-1.024c.563 0 1.02.457 1.02 1.024" fill-rule="evenodd" fill="#fff"/><path d="M276.84 218.762a1.02 1.02 0 1 1-1.02-1.024c.563 0 1.02.457 1.02 1.024zm0 0" fill="none" stroke-width=".06" stroke-linecap="square" stroke-linejoin="bevel" stroke="#000" stroke-miterlimit="10"/><path d="M306.48 212.398l-1.082 1.082h-1.558l-1.078-1.082v-1.558l1.078-1.078h1.558l1.082 1.078v1.558" fill="green"/><path d="M306.48 212.398l-1.082 1.082h-1.558l-1.078-1.082v-1.558l1.078-1.078h1.558l1.082 1.078zm0 0" fill="none" stroke-width=".12" stroke-linecap="round" stroke-linejoin="round" stroke="green" stroke-miterlimit="10"/><path d="M305.762 211.621a1.14 1.14 0 1 1-2.281 0c0-.633.507-1.14 1.14-1.14.629 0 1.14.507 1.14 1.14" fill-rule="evenodd" fill="#fff"/><path d="M305.762 211.621a1.14 1.14 0 1 1-2.281 0c0-.633.507-1.14 1.14-1.14.629 0 1.14.507 1.14 1.14zm0 0" fill="none" stroke-width=".06" stroke-linecap="square" stroke-linejoin="bevel" stroke="#000" stroke-miterlimit="10"/><path d="M306.48 226.738l-1.082 1.082h-1.558l-1.078-1.082v-1.558l1.078-1.078h1.558l1.082 1.078v1.558" fill="green"/><path d="M306.48 226.738l-1.082 1.082h-1.558l-1.078-1.082v-1.558l1.078-1.078h1.558l1.082 1.078zm0 0" fill="none" stroke-width=".12" stroke-linecap="round" stroke-linejoin="round" stroke="green" stroke-miterlimit="10"/><path d="M305.762 225.96a1.14 1.14 0 1 1-2.281 0c0-.632.507-1.14 1.14-1.14.629 0 1.14.508 1.14 1.14" fill-rule="evenodd" fill="#fff"/><path d="M305.762 225.96a1.14 1.14 0 1 1-2.281 0c0-.632.507-1.14 1.14-1.14.629 0 1.14.508 1.14 1.14zm0 0" fill="none" stroke-width=".06" stroke-linecap="square" stroke-linejoin="bevel" stroke="#000" stroke-miterlimit="10"/><path d="M306.48 219.54l-1.082 1.081h-1.558l-1.078-1.082v-1.559l1.078-1.082h1.558l1.082 1.082v1.56" fill="green"/><path d="M306.48 219.54l-1.082 1.081h-1.558l-1.078-1.082v-1.559l1.078-1.082h1.558l1.082 1.082zm0 0" fill="none" stroke-width=".12" stroke-linecap="round" stroke-linejoin="round" stroke="green" stroke-miterlimit="10"/><path d="M305.762 218.762c0 .629-.512 1.136-1.14 1.136a1.136 1.136 0 0 1-1.142-1.136c0-.633.508-1.14 1.141-1.14.629 0 1.14.507 1.14 1.14" fill-rule="evenodd" fill="#fff"/><path d="M305.762 218.762c0 .629-.512 1.136-1.14 1.136a1.136 1.136 0 0 1-1.142-1.136c0-.633.508-1.14 1.141-1.14.629 0 1.14.507 1.14 1.14zm0 0" fill="none" stroke-width=".06" stroke-linecap="square" stroke-linejoin="bevel" stroke="#000" stroke-miterlimit="10"/><path d="M299.46 190.02a2.04 2.04 0 0 1-4.081 0 2.041 2.041 0 0 1 4.082 0" fill-rule="evenodd" fill="green"/><path d="M299.46 190.02a2.04 2.04 0 0 1-4.081 0 2.041 2.041 0 0 1 4.082 0zm0 0" fill="none" stroke-width=".12" stroke-linecap="round" stroke-linejoin="round" stroke="green" stroke-miterlimit="10"/><path d="M298.441 190.02a1.021 1.021 0 1 1-2.043 0 1.021 1.021 0 0 1 2.043 0" fill-rule="evenodd" fill="#fff"/><path d="M298.441 190.02a1.021 1.021 0 1 1-2.043 0 1.021 1.021 0 0 1 2.043 0zm0 0" fill="none" stroke-width=".06" stroke-linecap="square" stroke-linejoin="bevel" stroke="#000" stroke-miterlimit="10"/><path d="M299.46 204.422a2.04 2.04 0 1 1-4.08-.003 2.04 2.04 0 0 1 4.08.003" fill-rule="evenodd" fill="green"/><path d="M299.46 204.422a2.04 2.04 0 1 1-4.08-.003 2.04 2.04 0 0 1 4.08.003zm0 0" fill="none" stroke-width=".12" stroke-linecap="round" stroke-linejoin="round" stroke="green" stroke-miterlimit="10"/><path d="M298.441 204.422a1.021 1.021 0 1 1-1.02-1.023c.563 0 1.02.456 1.02 1.023" fill-rule="evenodd" fill="#fff"/><path d="M298.441 204.422a1.021 1.021 0 1 1-1.02-1.023c.563 0 1.02.456 1.02 1.023zm0 0" fill="none" stroke-width=".06" stroke-linecap="square" stroke-linejoin="bevel" stroke="#000" stroke-miterlimit="10"/><path d="M299.46 197.219a2.041 2.041 0 1 1-4.082.003 2.041 2.041 0 0 1 4.083-.003" fill-rule="evenodd" fill="green"/><path d="M299.46 197.219a2.041 2.041 0 1 1-4.082.003 2.041 2.041 0 0 1 4.083-.003zm0 0" fill="none" stroke-width=".12" stroke-linecap="round" stroke-linejoin="round" stroke="green" stroke-miterlimit="10"/><path d="M298.441 197.219a1.021 1.021 0 1 1-2.043 0 1.021 1.021 0 0 1 2.043 0" fill-rule="evenodd" fill="#fff"/><path d="M298.441 197.219a1.021 1.021 0 1 1-2.043 0 1.021 1.021 0 0 1 2.043 0zm0 0" fill="none" stroke-width=".06" stroke-linecap="square" stroke-linejoin="bevel" stroke="#000" stroke-miterlimit="10"/><use xlink:href="#a" x="337.69" y="232.565" fill="#505050"/><use xlink:href="#b" x="339.61" y="232.565" fill="#505050"/><use xlink:href="#c" x="341.53" y="232.565" fill="#505050"/><path d="M336.96 215.219v14.34m0 0h7.2m0 0v-14.34m0 0h-7.2" fill="none" stroke-width=".36" stroke-linecap="round" stroke-linejoin="round" stroke="#505050" stroke-miterlimit="10"/><use xlink:href="#d" x="345.243" y="227.412" fill="#505050"/><use xlink:href="#e" x="347.404" y="220.225" fill="#505050"/><path d="M275.64 186.422h-.538m0-.543v.543m0 0h-.543m.543 0v.539m2.938 3.059a5.761 5.761 0 0 1-5.759 5.761 5.759 5.759 0 1 1 0-11.52 5.758 5.758 0 0 1 5.758 5.759zm0 0" fill="none" stroke-width=".48" stroke-linecap="round" stroke-linejoin="round" stroke="#505050" stroke-miterlimit="10"/><path d="M270.84 192.3h.719v-4.562h-.72zm0 0" fill="#505050" stroke-width=".12" stroke-linecap="round" stroke-linejoin="round" stroke="#505050" stroke-miterlimit="10"/><path d="M275.64 200.82h-.538m0-.539v.54m0-.001h-.543m.543 0v.54m2.938 3.062a5.758 5.758 0 0 1-5.759 5.758 5.76 5.76 0 1 1 5.758-5.758zm0 0" fill="none" stroke-width=".48" stroke-linecap="round" stroke-linejoin="round" stroke="#505050" stroke-miterlimit="10"/><path d="M270.84 206.7h.719v-4.56h-.72zm0 0" fill="#505050" stroke-width=".12" stroke-linecap="round" stroke-linejoin="round" stroke="#505050" stroke-miterlimit="10"/><path d="M322.86 226.922l1.14-.66 1.078-.84.902-1.024.782-1.078.597-1.261.422-1.258.18-1.32v-1.38l-.18-1.32-.422-1.32-.597-1.2-.782-1.081-.902-1.02-1.078-.84-1.14-.66m-7.68 0l-1.2.66-1.082.84-.898 1.02-.781 1.082-.598 1.199-.36 1.32-.241 1.32v1.38l.242 1.32.36 1.258.597 1.261.781 1.078.898 1.024 1.082.84 1.2.66m3.84-12.062v1.742m0 0h-2.88m0 0v1.437m0 .001h5.758m0 0v-1.438m0 0h-2.878m0 3.957v2.16m1.8-8.219v1.379m-.718-.66h1.437" fill="none" stroke-width=".48" stroke-linecap="round" stroke-linejoin="round" stroke="#505050" stroke-miterlimit="10"/><path d="M316.14 220.922h5.758v-1.442h-5.757zm0 0" fill="#505050" stroke-width=".12" stroke-linecap="round" stroke-linejoin="round" stroke="#505050" stroke-miterlimit="10"/><path d="M307.02 207.54l.66.901.898.72 1.024.538 1.078.36 1.14.12 1.14-.12 1.08-.36.96-.539.898-.719.723-.902m0-6.301l-.723-.898-.898-.719-.96-.543-1.08-.297-1.14-.12-1.14.12-1.078.297-1.024.543-.898.719-.66.898m9.601 6.302l.54-.962.3-1.078.117-1.078-.117-1.14-.3-1.02-.54-1.024m-9.601 0l-.54 1.024-.3 1.02-.121 1.14.12 1.078.301 1.078.54.961m8.761-3.117h-1.8m-.001 0v-2.883m0 .001h-1.44m0 0v5.76m0 0h1.44m0 0v-2.878m-3.96 0h-2.16m8.28 1.797h-1.44m.722-.719v1.441" fill="none" stroke-width=".48" stroke-linecap="round" stroke-linejoin="round" stroke="#505050" stroke-miterlimit="10"/><path d="M309.66 207.3h1.442v-5.76h-1.442zm0 0" fill="#505050" stroke-width=".12" stroke-linecap="round" stroke-linejoin="round" stroke="#505050" stroke-miterlimit="10"/><path d="M292.02 195.059l-.06-.418-.179-.422-.36-.297-.362-.242-.48-.059m-.719 0l-.419.059-.421.242-.301.297-.239.422-.058.418m0 4.32l.058.422.239.418.3.3.422.243.418.058m.719 0l.48-.058.364-.242.36-.301.179-.418.059-.422m-2.16-5.758h.718m1.442 5.758v-4.32m-3.598 4.32v-4.32m1.438 5.761h.718" fill="none" stroke-width=".3" stroke-linecap="round" stroke-linejoin="round" stroke="#505050" stroke-miterlimit="10"/><path d="M291.3 199.02h-2.16m0 0l1.079-1.98m0 0l1.082 1.98m-.001-1.98h-1.081m0 0h-1.078" fill="none" stroke-width=".24" stroke-linecap="round" stroke-linejoin="round" stroke="#505050" stroke-miterlimit="10"/><path d="M288.422 195.602h3.598v-.723h-3.598zm1.5-2.102h.598v-1.559h-.598zm0 9h.598v-1.559h-.598zm0 0" fill="#505050" stroke-width=".12" stroke-linecap="round" stroke-linejoin="round" stroke="#505050" stroke-miterlimit="10"/><path d="M281.219 199.379l.12.422.18.418.301.3.418.243.422.058m.719 0l.48-.058.36-.242.36-.301.183-.418.058-.422m0-4.32l-.058-.418-.184-.422-.36-.297-.359-.242-.48-.059m-.719 0l-.422.059-.418.242-.3.297-.18.422-.121.418m2.16 5.761h-.719m-1.441-5.761v4.32m3.601-4.32v4.32m-1.441-5.758h-.719" fill="none" stroke-width=".3" stroke-linecap="round" stroke-linejoin="round" stroke="#505050" stroke-miterlimit="10"/><path d="M281.941 195.422h2.16m.001 0l-1.082 1.976m0 0l-1.079-1.976m0 1.976h1.079m0 0h1.082" fill="none" stroke-width=".24" stroke-linecap="round" stroke-linejoin="round" stroke="#505050" stroke-miterlimit="10"/><path d="M281.219 199.559h3.601v-.72h-3.601zm1.5 2.941h.601v-1.559h-.601zm0-9h.601v-1.559h-.601zm0 0" fill="#505050" stroke-width=".12" stroke-linecap="round" stroke-linejoin="round" stroke="#505050" stroke-miterlimit="10"/><use xlink:href="#f" x="336.37" y="185.721" fill="#505050"/><use xlink:href="#g" x="338.53" y="185.721" fill="#505050"/><use xlink:href="#h" x="340.75" y="185.721" fill="#505050"/><use xlink:href="#f" x="342.55" y="185.721" fill="#505050"/><path d="M344.16 200.82v-14.398m0 0h-7.2m0 0v14.398m0 0h7.2" fill="none" stroke-width=".36" stroke-linecap="round" stroke-linejoin="round" stroke="#505050" stroke-miterlimit="10"/><use xlink:href="#d" x="345.243" y="191.473" fill="#505050"/><use xlink:href="#e" x="347.404" y="198.721" fill="#505050"/><use xlink:href="#i" x="252.591" y="232.565" fill="#505050"/><use xlink:href="#j" x="253.791" y="232.565" fill="#505050"/><path d="M250.68 215.219v14.34m0 0h7.199m0 0v-14.34m0 0h-7.2" fill="none" stroke-width=".36" stroke-linecap="round" stroke-linejoin="round" stroke="#505050" stroke-miterlimit="10"/><use xlink:href="#d" x="248.158" y="227.412" fill="#505050"/><use xlink:href="#e" x="250.318" y="220.225" fill="#505050"/><path d="M283.738 209.82l-.238.059-.238.121-.184.238-.058.301m0 2.161l.058.241.184.239.238.18.238.062m5.762 0l.3-.063.24-.18.12-.238.059-.242m0-2.159l-.059-.302-.12-.238-.24-.121-.3-.059" fill="none" stroke-width=".48" stroke-linecap="round" stroke-linejoin="round" stroke="#505050" stroke-miterlimit="10"/><path d="M283.738 209.82l-.238.059-.238.121-.184.238-.058.301m0 2.161l.058.241.184.239.238.18.238.062m5.762 0l.3-.063.24-.18.12-.238.059-.242m0-2.159l-.059-.302-.12-.238-.24-.121-.3-.059m-6.48 2.88v-2.16m6.48-.72h-5.762m5.762 3.602h-5.762m6.481-.722v-2.16" fill="none" stroke-width=".48" stroke-linecap="round" stroke-linejoin="round" stroke="#505050" stroke-miterlimit="10"/><path d="M290.219 211.98h1.082v-.718h-1.082zm-8.278 0h1.079v-.718h-1.079zm0 0" fill="#505050" stroke-width=".12" stroke-linecap="round" stroke-linejoin="round" stroke="#505050" stroke-miterlimit="10"/><path d="M312.54 195.422l-.302.058-.238.18-.121.18-.059.3m0 2.16l.059.302.121.18.238.179.301.059m5.761 0l.24-.06.241-.179.18-.18.059-.3m0-2.161l-.06-.3-.179-.18-.242-.18-.238-.058" fill="none" stroke-width=".48" stroke-linecap="round" stroke-linejoin="round" stroke="#505050" stroke-miterlimit="10"/><path d="M312.54 195.422l-.302.058-.238.18-.121.18-.059.3m0 2.16l.059.302.121.18.238.179.301.059m5.761 0l.24-.06.241-.179.18-.18.059-.3m0-2.161l-.06-.3-.179-.18-.242-.18-.238-.058m-6.481 2.878v-2.16m6.48-.718h-5.76m5.76 3.598h-5.76m6.48-.72v-2.16" fill="none" stroke-width=".48" stroke-linecap="round" stroke-linejoin="round" stroke="#505050" stroke-miterlimit="10"/><path d="M319.02 197.578h1.082v-.719h-1.082zm-8.282 0h1.082v-.719h-1.082zm0 0" fill="#505050" stroke-width=".12" stroke-linecap="round" stroke-linejoin="round" stroke="#505050" stroke-miterlimit="10"/><path d="M318.3 191.82l.24-.058.241-.121.18-.243.059-.296m0-2.161l-.06-.242-.179-.238-.242-.18-.238-.062m-5.761 0l-.302.062-.238.18-.121.238-.059.242m0 2.161l.059.296.121.243.238.12.301.06" fill="none" stroke-width=".48" stroke-linecap="round" stroke-linejoin="round" stroke="#505050" stroke-miterlimit="10"/><path d="M318.3 191.82l.24-.058.241-.121.18-.243.059-.296m0-2.161l-.06-.242-.179-.238-.242-.18-.238-.062m-5.761 0l-.302.062-.238.18-.121.238-.059.242m0 2.161l.059.296.121.243.238.12.301.06m6.481-2.88v2.16m-6.48.719h5.76m-5.76-3.601h5.76m-6.48.722v2.16" fill="none" stroke-width=".48" stroke-linecap="round" stroke-linejoin="round" stroke="#505050" stroke-miterlimit="10"/><path d="M310.738 190.379h1.082v-.719h-1.082zm8.282 0h1.082v-.719h-1.082zm0 0" fill="#505050" stroke-width=".12" stroke-linecap="round" stroke-linejoin="round" stroke="#505050" stroke-miterlimit="10"/><path d="M333.36 208.379v-.719" fill="none" stroke-width="1.44" stroke-linecap="round" stroke-linejoin="round" stroke="#505050" stroke-miterlimit="10"/><path d="M257.879 215.219h7.2m-.001 0V193.62m0 .001h-7.2m.001 0v21.598m23.883-1.079h-11.82m-.902 7.86l.66 1.14.84 1.02.96.84 1.14.602 1.258.476 1.32.242h1.262l1.32-.242 1.2-.476 1.14-.602 1.02-.84.84-1.02.66-1.14m-14.34-3.238h15.059M282.66 222l.418-1.02.242-1.082.059-1.136m0 0l-.059-1.082-.242-1.078-.418-1.024m0 0l-.36-.777-.538-.66m-12.722 1.437l-.419 1.024-.242 1.078-.059 1.082m0 0l.059 1.136.242 1.082.418 1.02m.902-7.86l-.543.72-.418.78m40.32 9.06v-11.821m-7.921-.899l-1.14.66-.958.84-.84.961-.66 1.137-.48 1.262-.242 1.262v1.32l.242 1.316.48 1.203.66 1.137.84 1.024.957.84 1.14.66m3.602-14.34v15.058m-3.601-.718l1.14.418 1.2.242 1.261.058m0 0l.961-.12.957-.24.903-.358m-.001 0l.778-.422.723-.48m-1.501-12.72l-.902-.359-.957-.242-.96-.117m-.001 0h-1.261l-1.2.238-1.14.48m7.921.899l-.722-.54-.84-.417" fill="none" stroke-width=".36" stroke-linecap="round" stroke-linejoin="round" stroke="#505050" stroke-miterlimit="10"/><use xlink:href="#k" x="306.41" y="224.175" fill="#505050"/><path d="M292.738 191.281v11.88m7.922.898l1.14-.66.962-.84.84-1.02.66-1.14.476-1.258.184-1.262v-1.32l-.184-1.258-.476-1.262-.66-1.14-.84-1.02-.961-.84-1.14-.66m-3.239 14.402v-15.12m3.238.718l-1.082-.418-1.078-.242-1.078-.059m0 0l-1.082.121-1.078.239-1.082.359m0 0l-.72.422-.722.48m1.442 12.778l1.082.363 1.078.238 1.082.121m0 0l1.078-.062 1.078-.239 1.082-.421m-7.922-.899l.723.48.84.419" fill="none" stroke-width=".36" stroke-linecap="round" stroke-linejoin="round" stroke="#505050" stroke-miterlimit="10"/><path d="M275.82 190.02h-1.922m0 0v-2.52m0 0h-1.078m0 0v5.04m0 0h1.078m0 0v-2.52m-5.218 0h1.922m0 0v2.52m0 0h1.078m0 0v-5.04m0 0h-1.078m0 0v2.52m5.218 14.402h-1.922m0 0v-2.524m0 0h-1.078m0 0v5.043m0 0h1.078m0 0v-2.52m-5.218.001h1.922m0 0v2.52m0-.001h1.078m0 0v-5.043m0 0h-1.078m0 0v2.524m52.258 6.238l-1.258-.48-1.262-.301-1.32-.059-1.32.059-1.321.3-1.2.481m.001 16.262l1.199.476 1.32.301 1.32.063 1.32-.063 1.263-.3 1.257-.477" fill="none" stroke-width=".48" stroke-linecap="round" stroke-linejoin="round" stroke="#505050" stroke-miterlimit="10"/><path d="M290.219 204.422v-1.8" fill="none" stroke-width=".36" stroke-linecap="round" stroke-linejoin="round" stroke="#505050" stroke-miterlimit="10"/><path d="M290.219 196.32v.72m0 0v2.698" fill="none" stroke-width=".24" stroke-linecap="round" stroke-linejoin="round" stroke="#505050" stroke-miterlimit="10"/><path d="M290.219 190.02v1.8m-7.199-1.8v1.8" fill="none" stroke-width=".36" stroke-linecap="round" stroke-linejoin="round" stroke="#505050" stroke-miterlimit="10"/><path d="M283.02 198.121v-.723m0 0V194.7" fill="none" stroke-width=".24" stroke-linecap="round" stroke-linejoin="round" stroke="#505050" stroke-miterlimit="10"/><path d="M283.02 204.422v-1.8" fill="none" stroke-width=".36" stroke-linecap="round" stroke-linejoin="round" stroke="#505050" stroke-miterlimit="10"/><path d="M297.422 211.621H291.3m-15.48 0h6.121m44.219-14.402h-6.058m-15.481 0h6.117m-6.117-7.199h6.117m15.422 0h-6.058" fill="none" stroke-width=".72" stroke-linecap="round" stroke-linejoin="round" stroke="#505050" stroke-miterlimit="10"/><path d="M335.879 211.621a2.52 2.52 0 1 1-5.037-.002 2.52 2.52 0 0 1 5.037.002zm0 0" fill="none" stroke-width=".48" stroke-linecap="round" stroke-linejoin="round" stroke="#505050" stroke-miterlimit="10"/><path d="M335.16 211.621a1.801 1.801 0 1 1-3.602 0 1.801 1.801 0 0 1 3.602 0zm0 0" fill="none" stroke-width=".18" stroke-linecap="round" stroke-linejoin="round" stroke="#505050" stroke-miterlimit="10"/><path d="M333.36 211.621v-7.2" fill="none" stroke-width="1.44" stroke-linecap="round" stroke-linejoin="round" stroke="#505050" stroke-miterlimit="10"/><path d="M335.879 211.621a2.52 2.52 0 1 1-5.037-.002 2.52 2.52 0 0 1 5.037.002zm0 0" fill="none" stroke-width=".48" stroke-linecap="round" stroke-linejoin="round" stroke="#505050" stroke-miterlimit="10"/><path d="M335.16 211.621a1.801 1.801 0 1 1-3.602 0 1.801 1.801 0 0 1 3.602 0zm0 0" fill="none" stroke-width=".18" stroke-linecap="round" stroke-linejoin="round" stroke="#505050" stroke-miterlimit="10"/><use xlink:href="#l" x="263.916" y="185.721" fill="#505050"/><use xlink:href="#m" x="265.836" y="185.721" fill="#505050"/><use xlink:href="#l" x="263.916" y="200.096" fill="#505050"/><use xlink:href="#n" x="265.836" y="200.096" fill="#505050"/><use xlink:href="#o" x="326.309" y="231.07" fill="#505050"/><use xlink:href="#p" x="326.309" y="229.15" fill="#505050"/><use xlink:href="#l" x="302.75" y="211.002" fill="#505050"/><use xlink:href="#q" x="304.67" y="211.002" fill="#505050"/><use xlink:href="#g" x="285.191" y="203.814" fill="#505050"/><use xlink:href="#m" x="287.411" y="203.814" fill="#505050"/><use xlink:href="#g" x="284.116" y="192.909" fill="#505050"/><use xlink:href="#n" x="286.336" y="192.909" fill="#505050"/><use xlink:href="#r" x="284.773" y="216.393" fill="#505050"/><use xlink:href="#m" x="286.813" y="216.393" fill="#505050"/><use xlink:href="#r" x="313.539" y="202.017" fill="#505050"/><use xlink:href="#n" x="315.58" y="202.017" fill="#505050"/><use xlink:href="#r" x="313.48" y="187.518" fill="#505050"/><use xlink:href="#s" x="315.519" y="187.518" fill="#505050"/><use xlink:href="#t" x="330.07" y="214.041" fill="#505050"/><use xlink:href="#u" x="330.07" y="212.001" fill="#505050"/><use xlink:href="#t" x="330.07" y="214.041" fill="#505050"/><use xlink:href="#u" x="330.07" y="212.001" fill="#505050"/><use xlink:href="#v" x="259.123" y="191.83" fill="#505050"/><use xlink:href="#w" x="261.643" y="191.83" fill="#505050"/><use xlink:href="#x" x="276.986" y="223.52" fill="#505050"/><use xlink:href="#y" x="276.986" y="221.6" fill="#505050"/><use xlink:href="#c" x="308.208" y="228.252" fill="#505050"/><use xlink:href="#n" x="310.128" y="228.252" fill="#505050"/><use xlink:href="#c" x="298.497" y="198.361" fill="#505050"/><use xlink:href="#s" x="300.417" y="198.361" fill="#505050"/><use xlink:href="#q" x="274.048" y="198.243" fill="#505050"/><use xlink:href="#z" x="275.788" y="198.243" fill="#505050"/><use xlink:href="#A" x="276.748" y="198.243" fill="#505050"/><use xlink:href="#B" x="278.488" y="198.243" fill="#505050"/><use xlink:href="#C" x="280.288" y="198.243" fill="#505050"/><use xlink:href="#q" x="274.048" y="212.618" fill="#505050"/><use xlink:href="#z" x="275.788" y="212.618" fill="#505050"/><use xlink:href="#A" x="276.748" y="212.618" fill="#505050"/><use xlink:href="#B" x="278.488" y="212.618" fill="#505050"/><use xlink:href="#C" x="280.288" y="212.618" fill="#505050"/><use xlink:href="#u" x="313.005" y="236.11" fill="#505050"/><use xlink:href="#D" x="313.005" y="234.37" fill="#505050"/><use xlink:href="#E" x="313.005" y="232.63" fill="#505050"/><use xlink:href="#F" x="313.005" y="230.89" fill="#505050"/><use xlink:href="#G" x="313.005" y="229.09" fill="#505050"/><use xlink:href="#m" x="317.557" y="200.815" fill="#505050"/><use xlink:href="#H" x="319.297" y="200.815" fill="#505050"/><use xlink:href="#H" x="321.037" y="200.815" fill="#505050"/><use xlink:href="#B" x="322.777" y="200.815" fill="#505050"/><use xlink:href="#C" x="324.577" y="200.815" fill="#505050"/><use xlink:href="#m" x="283.213" y="212.737" fill="#505050"/><use xlink:href="#H" x="284.953" y="212.737" fill="#505050"/><use xlink:href="#H" x="286.693" y="212.737" fill="#505050"/><use xlink:href="#I" x="288.434" y="212.737" fill="#505050"/><use xlink:href="#s" x="312.819" y="198.361" fill="#505050"/><use xlink:href="#s" x="314.559" y="198.361" fill="#505050"/><use xlink:href="#H" x="316.299" y="198.361" fill="#505050"/><use xlink:href="#m" x="312.759" y="191.174" fill="#505050"/><use xlink:href="#H" x="314.499" y="191.174" fill="#505050"/><use xlink:href="#H" x="316.239" y="191.174" fill="#505050"/><use xlink:href="#J" x="339.923" y="214.041" fill="#505050"/><use xlink:href="#D" x="339.923" y="212.301" fill="#505050"/><use xlink:href="#J" x="339.923" y="214.041" fill="#505050"/><use xlink:href="#D" x="339.923" y="212.301" fill="#505050"/><use xlink:href="#m" x="258.043" y="219.268" fill="#505050"/><use xlink:href="#H" x="259.783" y="219.268" fill="#505050"/><use xlink:href="#H" x="261.523" y="219.268" fill="#505050"/><use xlink:href="#I" x="263.263" y="219.268" fill="#505050"/><use xlink:href="#K" x="271.346" y="217.589" fill="#505050"/><use xlink:href="#l" x="273.266" y="217.589" fill="#505050"/><use xlink:href="#L" x="275.186" y="217.589" fill="#505050"/><use xlink:href="#q" x="276.926" y="217.589" fill="#505050"/><use xlink:href="#A" x="278.666" y="217.589" fill="#505050"/><use xlink:href="#M" x="302.157" y="223.284" fill="#505050"/><use xlink:href="#o" x="302.157" y="221.364" fill="#505050"/><use xlink:href="#p" x="302.157" y="219.444" fill="#505050"/><use xlink:href="#J" x="302.157" y="217.704" fill="#505050"/><use xlink:href="#D" x="302.157" y="215.964" fill="#505050"/><use xlink:href="#M" x="296.224" y="201.721" fill="#505050"/><use xlink:href="#o" x="296.224" y="199.801" fill="#505050"/><use xlink:href="#p" x="296.224" y="197.881" fill="#505050"/><use xlink:href="#p" x="296.224" y="196.141" fill="#505050"/><use xlink:href="#D" x="296.224" y="194.401" fill="#505050"/><path d="M304.621 197.219h-7.2" fill="none" stroke-width=".12" stroke-linecap="round" stroke-linejoin="round" stroke="olive" stroke-miterlimit="10"/><path d="M247.078 233.16h100.684" fill="none" stroke-width=".12" stroke-linecap="round" stroke-linejoin="round" stroke="#000" stroke-miterlimit="10"/><g clip-path="url(#N)"><path d="M347.762 233.16v-50.34" fill="none" stroke-width=".12" stroke-linecap="round" stroke-linejoin="round" stroke="#000" stroke-miterlimit="10"/></g><g clip-path="url(#O)"><path d="M347.762 182.82H247.078" fill="none" stroke-width=".12" stroke-linecap="round" stroke-linejoin="round" stroke="#000" stroke-miterlimit="10"/></g><g clip-path="url(#P)"><path d="M247.078 182.82v50.34" fill="none" stroke-width=".12" stroke-linecap="round" stroke-linejoin="round" stroke="#000" stroke-miterlimit="10"/></g></svg>