<svg xmlns:xlink="http://www.w3.org/1999/xlink" width="842pt" height="595pt" viewBox="0 0 842 595">
  <defs>
    <path fill="#505050" stroke="#505050" stroke-linecap="round" stroke-linejoin="round" stroke-miterlimit="10" stroke-width=".12" d="M485.52 285.238h2.878v-2.156h-2.878zm0-30.898h2.878v-2.16h-2.878zm0 0" id="reuse-131"/>
    <path fill="#505050" stroke="#505050" stroke-linecap="round" stroke-linejoin="round" stroke-miterlimit="10" stroke-width=".12" d="M472.559 327.719h2.16v-2.88h-2.16zm-30.957 0h2.16v-2.88h-2.16zm0 0" id="reuse-130"/>
    <path fill="#505050" stroke="#505050" stroke-linecap="round" stroke-linejoin="round" stroke-miterlimit="10" stroke-width=".12" d="M441.602 313.32h2.16v-2.879h-2.16zm30.957 0h2.16v-2.879h-2.16zm0 0" id="reuse-129"/>
    <path fill="none" stroke="#000" stroke-linecap="square" stroke-linejoin="bevel" stroke-miterlimit="10" stroke-width=".06" d="M504.121 311.879a2.822 2.822 0 0 1-5.64 0 2.822 2.822 0 0 1 2.82-2.82 2.824 2.824 0 0 1 2.82 2.82zm0 0" id="reuse-128"/>
    <path fill="#fff" fill-rule="evenodd" d="M504.121 311.879a2.822 2.822 0 0 1-5.64 0 2.822 2.822 0 0 1 2.82-2.82 2.824 2.824 0 0 1 2.82 2.82" id="reuse-127"/>
    <path fill="none" stroke="green" stroke-linecap="round" stroke-linejoin="round" stroke-miterlimit="10" stroke-width=".12" d="M506.34 311.879a5.04 5.04 0 1 1-10.078 0 5.039 5.039 0 1 1 10.078 0zm0 0" id="reuse-126"/>
    <path fill="green" fill-rule="evenodd" d="M506.34 311.879a5.04 5.04 0 1 1-10.078 0 5.039 5.039 0 1 1 10.078 0" id="reuse-125"/>
    <path fill="none" stroke="#000" stroke-linecap="square" stroke-linejoin="bevel" stroke-miterlimit="10" stroke-width=".06" d="M489.238 297.48a2.28 2.28 0 0 1-2.277 2.282 2.281 2.281 0 0 1 0-4.563 2.28 2.28 0 0 1 2.277 2.281zm0 0" id="reuse-124"/>
    <path fill="#fff" fill-rule="evenodd" d="M489.238 297.48a2.28 2.28 0 0 1-2.277 2.282 2.281 2.281 0 0 1 0-4.563 2.28 2.28 0 0 1 2.277 2.281" id="reuse-123"/>
    <path fill="none" stroke="green" stroke-linecap="round" stroke-linejoin="round" stroke-miterlimit="10" stroke-width=".12" d="M490.68 297.48a3.721 3.721 0 0 1-7.441 0 3.721 3.721 0 0 1 7.44 0zm0 0" id="reuse-122"/>
    <path fill="green" fill-rule="evenodd" d="M490.68 297.48a3.721 3.721 0 0 1-7.441 0 3.721 3.721 0 0 1 7.44 0" id="reuse-121"/>
    <path fill="none" stroke="#000" stroke-linecap="square" stroke-linejoin="bevel" stroke-miterlimit="10" stroke-width=".06" d="M489.238 239.941a2.277 2.277 0 0 1-2.277 2.278 2.278 2.278 0 1 1 0-4.559 2.278 2.278 0 0 1 2.277 2.281zm0 0" id="reuse-120"/>
    <path fill="#fff" fill-rule="evenodd" d="M489.238 239.941a2.277 2.277 0 0 1-2.277 2.278 2.278 2.278 0 1 1 0-4.559 2.278 2.278 0 0 1 2.277 2.281" id="reuse-119"/>
    <path fill="none" stroke="green" stroke-linecap="round" stroke-linejoin="round" stroke-miterlimit="10" stroke-width=".12" d="M490.68 239.941a3.721 3.721 0 1 1-3.719-3.723 3.721 3.721 0 0 1 3.719 3.723zm0 0" id="reuse-118"/>
    <path fill="green" fill-rule="evenodd" d="M490.68 239.941a3.721 3.721 0 1 1-3.719-3.723 3.721 3.721 0 0 1 3.719 3.723" id="reuse-117"/>
    <path fill="none" stroke="#000" stroke-linecap="square" stroke-linejoin="bevel" stroke-miterlimit="10" stroke-width=".06" d="M489.238 326.281a2.277 2.277 0 0 1-2.277 2.278 2.278 2.278 0 1 1 0-4.559 2.278 2.278 0 0 1 2.277 2.281zm0 0" id="reuse-116"/>
    <path fill="#fff" fill-rule="evenodd" d="M489.238 326.281a2.277 2.277 0 0 1-2.277 2.278 2.278 2.278 0 1 1 0-4.559 2.278 2.278 0 0 1 2.277 2.281" id="reuse-115"/>
    <path fill="none" stroke="green" stroke-linecap="round" stroke-linejoin="round" stroke-miterlimit="10" stroke-width=".12" d="M490.68 326.281a3.721 3.721 0 1 1-3.719-3.723 3.721 3.721 0 0 1 3.719 3.723zm0 0" id="reuse-114"/>
    <path fill="green" fill-rule="evenodd" d="M490.68 326.281a3.721 3.721 0 1 1-3.719-3.723 3.721 3.721 0 0 1 3.719 3.723" id="reuse-113"/>
    <path fill="none" stroke="#000" stroke-linecap="square" stroke-linejoin="bevel" stroke-miterlimit="10" stroke-width=".06" d="M431.64 326.281a2.28 2.28 0 0 1-4.562 0 2.281 2.281 0 0 1 4.563 0zm0 0" id="reuse-112"/>
    <path fill="#fff" fill-rule="evenodd" d="M431.64 326.281a2.28 2.28 0 0 1-4.562 0 2.281 2.281 0 0 1 4.563 0" id="reuse-111"/>
    <path fill="none" stroke="green" stroke-linecap="round" stroke-linejoin="round" stroke-miterlimit="10" stroke-width=".12" d="M433.078 326.281A3.718 3.718 0 0 1 429.36 330a3.721 3.721 0 0 1 0-7.441 3.721 3.721 0 0 1 3.72 3.722zm0 0" id="reuse-110"/>
    <path fill="green" fill-rule="evenodd" d="M433.078 326.281A3.718 3.718 0 0 1 429.36 330a3.721 3.721 0 0 1 0-7.441 3.721 3.721 0 0 1 3.72 3.722" id="reuse-109"/>
    <path fill="none" stroke="#000" stroke-linecap="square" stroke-linejoin="bevel" stroke-miterlimit="10" stroke-width=".06" d="M431.64 311.879a2.281 2.281 0 0 1-4.562 0 2.28 2.28 0 0 1 4.563 0zm0 0" id="reuse-108"/>
    <path fill="#fff" fill-rule="evenodd" d="M431.64 311.879a2.281 2.281 0 0 1-4.562 0 2.28 2.28 0 0 1 4.563 0" id="reuse-107"/>
    <path fill="none" stroke="green" stroke-linecap="round" stroke-linejoin="round" stroke-miterlimit="10" stroke-width=".12" d="M433.078 311.879a3.721 3.721 0 0 1-3.719 3.723 3.721 3.721 0 0 1 0-7.442 3.718 3.718 0 0 1 3.72 3.719zm0 0" id="reuse-106"/>
    <path fill="green" fill-rule="evenodd" d="M433.078 311.879a3.721 3.721 0 0 1-3.719 3.723 3.721 3.721 0 0 1 0-7.442 3.718 3.718 0 0 1 3.72 3.719" id="reuse-105"/>
    <path fill="none" stroke="#000" stroke-linecap="square" stroke-linejoin="bevel" stroke-miterlimit="10" stroke-width=".06" d="M489.238 311.879a2.278 2.278 0 1 1-4.558 0 2.278 2.278 0 0 1 2.28-2.277 2.277 2.277 0 0 1 2.278 2.277zm0 0" id="reuse-104"/>
    <path fill="#fff" fill-rule="evenodd" d="M489.238 311.879a2.278 2.278 0 1 1-4.558 0 2.278 2.278 0 0 1 2.28-2.277 2.277 2.277 0 0 1 2.278 2.277" id="reuse-103"/>
    <path fill="none" stroke="green" stroke-linecap="round" stroke-linejoin="round" stroke-miterlimit="10" stroke-width=".12" d="M490.68 311.879a3.721 3.721 0 1 1-7.442.003 3.721 3.721 0 0 1 7.442-.003zm0 0" id="reuse-102"/>
    <path fill="green" fill-rule="evenodd" d="M490.68 311.879a3.721 3.721 0 1 1-7.442.003 3.721 3.721 0 0 1 7.442-.003" id="reuse-101"/>
    <path fill="none" stroke="#000" stroke-linecap="square" stroke-linejoin="bevel" stroke-miterlimit="10" stroke-width=".06" d="M431.64 297.48a2.284 2.284 0 0 1-2.28 2.282 2.284 2.284 0 0 1-2.282-2.282 2.284 2.284 0 0 1 2.281-2.28 2.284 2.284 0 0 1 2.282 2.28zm0 0" id="reuse-100"/>
    <path fill="#fff" fill-rule="evenodd" d="M431.64 297.48a2.284 2.284 0 0 1-2.28 2.282 2.284 2.284 0 0 1-2.282-2.282 2.284 2.284 0 0 1 2.281-2.28 2.284 2.284 0 0 1 2.282 2.28" id="reuse-99"/>
    <path fill="none" stroke="green" stroke-linecap="round" stroke-linejoin="round" stroke-miterlimit="10" stroke-width=".12" d="M433.078 299.04l-2.156 2.16H427.8l-2.16-2.16v-3.118l2.16-2.16h3.12l2.157 2.16zm0 0" id="reuse-98"/>
    <path fill="green" d="M433.078 299.04l-2.156 2.16H427.8l-2.16-2.16v-3.118l2.16-2.16h3.12l2.157 2.16v3.117" id="reuse-97"/>
    <path fill="none" stroke="#000" stroke-linecap="square" stroke-linejoin="bevel" stroke-miterlimit="10" stroke-width=".06" d="M417.238 297.48a2.28 2.28 0 0 1-2.277 2.282 2.281 2.281 0 0 1 0-4.563 2.28 2.28 0 0 1 2.277 2.281zm0 0" id="reuse-96"/>
    <path fill="#fff" fill-rule="evenodd" d="M417.238 297.48a2.28 2.28 0 0 1-2.277 2.282 2.281 2.281 0 0 1 0-4.563 2.28 2.28 0 0 1 2.277 2.281" id="reuse-95"/>
    <path fill="none" stroke="green" stroke-linecap="round" stroke-linejoin="round" stroke-miterlimit="10" stroke-width=".12" d="M418.68 299.04l-2.16 2.16h-3.122l-2.16-2.16v-3.118l2.16-2.16h3.122l2.16 2.16zm0 0" id="reuse-94"/>
    <path fill="green" d="M418.68 299.04l-2.16 2.16h-3.122l-2.16-2.16v-3.118l2.16-2.16h3.122l2.16 2.16v3.117" id="reuse-93"/>
    <path fill="none" stroke="#000" stroke-linecap="square" stroke-linejoin="bevel" stroke-miterlimit="10" stroke-width=".06" d="M446.04 297.48a2.28 2.28 0 0 1-2.278 2.282 2.281 2.281 0 0 1 0-4.563 2.28 2.28 0 0 1 2.277 2.281zm0 0" id="reuse-92"/>
    <path fill="#fff" fill-rule="evenodd" d="M446.04 297.48a2.28 2.28 0 0 1-2.278 2.282 2.281 2.281 0 0 1 0-4.563 2.28 2.28 0 0 1 2.277 2.281" id="reuse-91"/>
    <path fill="none" stroke="green" stroke-linecap="round" stroke-linejoin="round" stroke-miterlimit="10" stroke-width=".12" d="M447.48 299.04l-2.16 2.16h-3.12l-2.16-2.16v-3.118l2.16-2.16h3.12l2.16 2.16zm0 0" id="reuse-90"/>
    <path fill="green" d="M447.48 299.04l-2.16 2.16h-3.12l-2.16-2.16v-3.118l2.16-2.16h3.12l2.16 2.16v3.117" id="reuse-89"/>
    <path fill="none" stroke="#000" stroke-linecap="square" stroke-linejoin="bevel" stroke-miterlimit="10" stroke-width=".06" d="M431.64 239.941a2.28 2.28 0 0 1-4.562 0 2.281 2.281 0 0 1 4.563 0zm0 0" id="reuse-88"/>
    <path fill="#fff" fill-rule="evenodd" d="M431.64 239.941a2.28 2.28 0 0 1-4.562 0 2.281 2.281 0 0 1 4.563 0" id="reuse-87"/>
    <path fill="none" stroke="green" stroke-linecap="round" stroke-linejoin="round" stroke-miterlimit="10" stroke-width=".12" d="M433.078 239.941a3.718 3.718 0 0 1-3.719 3.72 3.721 3.721 0 0 1 0-7.441 3.721 3.721 0 0 1 3.72 3.721zm0 0" id="reuse-86"/>
    <path fill="green" fill-rule="evenodd" d="M433.078 239.941a3.718 3.718 0 0 1-3.719 3.72 3.721 3.721 0 0 1 0-7.441 3.721 3.721 0 0 1 3.72 3.721" id="reuse-85"/>
    <path fill="none" stroke="#000" stroke-linecap="square" stroke-linejoin="bevel" stroke-miterlimit="10" stroke-width=".06" d="M446.04 268.68a2.28 2.28 0 0 1-2.278 2.28 2.281 2.281 0 0 1 0-4.562 2.28 2.28 0 0 1 2.277 2.282zm0 0" id="reuse-84"/>
    <path fill="#fff" fill-rule="evenodd" d="M446.04 268.68a2.28 2.28 0 0 1-2.278 2.28 2.281 2.281 0 0 1 0-4.562 2.28 2.28 0 0 1 2.277 2.282" id="reuse-83"/>
    <path fill="none" stroke="green" stroke-linecap="round" stroke-linejoin="round" stroke-miterlimit="10" stroke-width=".12" d="M447.48 268.68a3.72 3.72 0 0 1-3.718 3.718 3.718 3.718 0 1 1 0-7.437 3.72 3.72 0 0 1 3.718 3.719zm0 0" id="reuse-82"/>
    <path fill="green" fill-rule="evenodd" d="M447.48 268.68a3.72 3.72 0 0 1-3.718 3.718 3.718 3.718 0 1 1 0-7.437 3.72 3.72 0 0 1 3.718 3.719" id="reuse-81"/>
    <path fill="none" stroke="#000" stroke-linecap="square" stroke-linejoin="bevel" stroke-miterlimit="10" stroke-width=".06" d="M374.102 326.281a2.28 2.28 0 0 1-4.563 0 2.281 2.281 0 0 1 4.563 0zm0 0" id="reuse-80"/>
    <path fill="#fff" fill-rule="evenodd" d="M374.102 326.281a2.28 2.28 0 0 1-4.563 0 2.281 2.281 0 0 1 4.563 0" id="reuse-79"/>
    <path fill="none" stroke="green" stroke-linecap="round" stroke-linejoin="round" stroke-miterlimit="10" stroke-width=".12" d="M375.54 326.281a3.718 3.718 0 0 1-3.72 3.719 3.721 3.721 0 0 1 0-7.441 3.721 3.721 0 0 1 3.72 3.722zm0 0" id="reuse-78"/>
    <path fill="green" fill-rule="evenodd" d="M375.54 326.281a3.718 3.718 0 0 1-3.72 3.719 3.721 3.721 0 0 1 0-7.441 3.721 3.721 0 0 1 3.72 3.722" id="reuse-77"/>
    <path fill="none" stroke="#000" stroke-linecap="square" stroke-linejoin="bevel" stroke-miterlimit="10" stroke-width=".06" d="M388.441 355.02a2.284 2.284 0 0 1-2.28 2.28 2.284 2.284 0 0 1-2.282-2.28 2.284 2.284 0 0 1 2.281-2.282 2.284 2.284 0 0 1 2.281 2.282zm0 0" id="reuse-76"/>
    <path fill="#fff" fill-rule="evenodd" d="M388.441 355.02a2.284 2.284 0 0 1-2.28 2.28 2.284 2.284 0 0 1-2.282-2.28 2.284 2.284 0 0 1 2.281-2.282 2.284 2.284 0 0 1 2.281 2.282" id="reuse-75"/>
    <path fill="none" stroke="green" stroke-linecap="round" stroke-linejoin="round" stroke-miterlimit="10" stroke-width=".12" d="M389.879 355.02a3.718 3.718 0 0 1-3.719 3.718 3.718 3.718 0 0 1-3.719-3.718 3.718 3.718 0 0 1 3.72-3.72 3.718 3.718 0 0 1 3.718 3.72zm0 0" id="reuse-74"/>
    <path fill="green" fill-rule="evenodd" d="M389.879 355.02a3.718 3.718 0 0 1-3.719 3.718 3.718 3.718 0 0 1-3.719-3.718 3.718 3.718 0 0 1 3.72-3.72 3.718 3.718 0 0 1 3.718 3.72" id="reuse-73"/>
    <path fill="none" stroke="#000" stroke-linecap="square" stroke-linejoin="bevel" stroke-miterlimit="10" stroke-width=".06" d="M345.3 283.078a2.281 2.281 0 0 1-4.562 0 2.28 2.28 0 0 1 4.563 0zm0 0" id="reuse-72"/>
    <path fill="#fff" fill-rule="evenodd" d="M345.3 283.078a2.281 2.281 0 0 1-4.562 0 2.28 2.28 0 0 1 4.563 0" id="reuse-71"/>
    <path fill="none" stroke="green" stroke-linecap="round" stroke-linejoin="round" stroke-miterlimit="10" stroke-width=".12" d="M346.738 283.078a3.721 3.721 0 0 1-3.718 3.723 3.721 3.721 0 0 1 0-7.442 3.718 3.718 0 0 1 3.718 3.72zm0 0" id="reuse-70"/>
    <path fill="green" fill-rule="evenodd" d="M346.738 283.078a3.721 3.721 0 0 1-3.718 3.723 3.721 3.721 0 0 1 0-7.442 3.718 3.718 0 0 1 3.718 3.72" id="reuse-69"/>
    <path fill="none" stroke="#000" stroke-linecap="square" stroke-linejoin="bevel" stroke-miterlimit="10" stroke-width=".06" d="M359.7 326.281a2.277 2.277 0 0 1-2.278 2.278 2.278 2.278 0 1 1 0-4.559 2.278 2.278 0 0 1 2.277 2.281zm0 0" id="reuse-68"/>
    <path fill="#fff" fill-rule="evenodd" d="M359.7 326.281a2.277 2.277 0 0 1-2.278 2.278 2.278 2.278 0 1 1 0-4.559 2.278 2.278 0 0 1 2.277 2.281" id="reuse-67"/>
    <path fill="none" stroke="green" stroke-linecap="round" stroke-linejoin="round" stroke-miterlimit="10" stroke-width=".12" d="M361.14 326.281a3.721 3.721 0 1 1-3.719-3.723 3.721 3.721 0 0 1 3.72 3.723zm0 0" id="reuse-66"/>
    <path fill="green" fill-rule="evenodd" d="M361.14 326.281a3.721 3.721 0 1 1-3.719-3.723 3.721 3.721 0 0 1 3.72 3.723" id="reuse-65"/>
    <path fill="none" stroke="#000" stroke-linecap="square" stroke-linejoin="bevel" stroke-miterlimit="10" stroke-width=".06" d="M417.238 326.281a2.277 2.277 0 0 1-2.277 2.278 2.278 2.278 0 1 1 0-4.559 2.278 2.278 0 0 1 2.277 2.281zm0 0" id="reuse-64"/>
    <path fill="#fff" fill-rule="evenodd" d="M417.238 326.281a2.277 2.277 0 0 1-2.277 2.278 2.278 2.278 0 1 1 0-4.559 2.278 2.278 0 0 1 2.277 2.281" id="reuse-63"/>
    <path fill="none" stroke="green" stroke-linecap="round" stroke-linejoin="round" stroke-miterlimit="10" stroke-width=".12" d="M418.68 326.281a3.721 3.721 0 1 1-3.719-3.723 3.721 3.721 0 0 1 3.719 3.723zm0 0" id="reuse-62"/>
    <path fill="green" fill-rule="evenodd" d="M418.68 326.281a3.721 3.721 0 1 1-3.719-3.723 3.721 3.721 0 0 1 3.719 3.723" id="reuse-61"/>
    <path fill="none" stroke="#000" stroke-linecap="square" stroke-linejoin="bevel" stroke-miterlimit="10" stroke-width=".06" d="M402.84 326.281a2.278 2.278 0 0 1-2.281 2.278 2.277 2.277 0 0 1-2.278-2.278 2.278 2.278 0 1 1 4.559 0zm0 0" id="reuse-60"/>
    <path fill="#fff" fill-rule="evenodd" d="M402.84 326.281a2.278 2.278 0 0 1-2.281 2.278 2.277 2.277 0 0 1-2.278-2.278 2.278 2.278 0 1 1 4.559 0" id="reuse-59"/>
    <path fill="none" stroke="green" stroke-linecap="round" stroke-linejoin="round" stroke-miterlimit="10" stroke-width=".12" d="M404.281 326.281a3.721 3.721 0 1 1-7.442-.004 3.721 3.721 0 0 1 7.442.004zm0 0" id="reuse-58"/>
    <path fill="green" fill-rule="evenodd" d="M404.281 326.281a3.721 3.721 0 1 1-7.442-.004 3.721 3.721 0 0 1 7.442.004" id="reuse-57"/>
    <path fill="none" stroke="#000" stroke-linecap="square" stroke-linejoin="bevel" stroke-miterlimit="10" stroke-width=".06" d="M474.84 254.34a2.281 2.281 0 0 1-2.281 2.281 2.28 2.28 0 0 1 0-4.562 2.281 2.281 0 0 1 2.28 2.28zm0 0" id="reuse-56"/>
    <path fill="#fff" fill-rule="evenodd" d="M474.84 254.34a2.281 2.281 0 0 1-2.281 2.281 2.28 2.28 0 0 1 0-4.562 2.281 2.281 0 0 1 2.28 2.28" id="reuse-55"/>
    <path fill="none" stroke="green" stroke-linecap="round" stroke-linejoin="round" stroke-miterlimit="10" stroke-width=".12" d="M476.281 254.34a3.721 3.721 0 0 1-7.441 0 3.721 3.721 0 0 1 7.441 0zm0 0" id="reuse-54"/>
    <path fill="green" fill-rule="evenodd" d="M476.281 254.34a3.721 3.721 0 0 1-7.441 0 3.721 3.721 0 0 1 7.441 0" id="reuse-53"/>
    <path fill="none" stroke="#000" stroke-linecap="square" stroke-linejoin="bevel" stroke-miterlimit="10" stroke-width=".06" d="M460.441 254.34a2.284 2.284 0 0 1-2.28 2.281 2.284 2.284 0 0 1-2.282-2.281 2.284 2.284 0 0 1 2.281-2.281 2.284 2.284 0 0 1 2.281 2.28zm0 0" id="reuse-52"/>
    <path fill="#fff" fill-rule="evenodd" d="M460.441 254.34a2.284 2.284 0 0 1-2.28 2.281 2.284 2.284 0 0 1-2.282-2.281 2.284 2.284 0 0 1 2.281-2.281 2.284 2.284 0 0 1 2.281 2.28" id="reuse-51"/>
    <path fill="none" stroke="green" stroke-linecap="round" stroke-linejoin="round" stroke-miterlimit="10" stroke-width=".12" d="M461.879 254.34a3.718 3.718 0 0 1-3.719 3.719 3.718 3.718 0 0 1-3.719-3.72 3.718 3.718 0 0 1 3.72-3.718 3.718 3.718 0 0 1 3.718 3.719zm0 0" id="reuse-50"/>
    <path fill="green" fill-rule="evenodd" d="M461.879 254.34a3.718 3.718 0 0 1-3.719 3.719 3.718 3.718 0 0 1-3.719-3.72 3.718 3.718 0 0 1 3.72-3.718 3.718 3.718 0 0 1 3.718 3.719" id="reuse-49"/>
    <path fill="none" stroke="#000" stroke-linecap="square" stroke-linejoin="bevel" stroke-miterlimit="10" stroke-width=".06" d="M474.54 283.078a1.98 1.98 0 0 1-3.962 0c0-1.094.887-1.976 1.98-1.976 1.094 0 1.981.882 1.981 1.976zm0 0" id="reuse-48"/>
    <path fill="#fff" fill-rule="evenodd" d="M474.54 283.078a1.98 1.98 0 0 1-3.962 0c0-1.094.887-1.976 1.98-1.976 1.094 0 1.981.882 1.981 1.976" id="reuse-47"/>
    <path fill="green" stroke="green" stroke-linecap="round" stroke-linejoin="round" stroke-miterlimit="10" stroke-width=".12" d="M469.14 286.5h6.84v-6.84h-6.84zm0 0" id="reuse-46"/>
    <path fill="none" stroke="#000" stroke-linecap="square" stroke-linejoin="bevel" stroke-miterlimit="10" stroke-width=".06" d="M460.14 283.078a1.98 1.98 0 0 1-3.96 0c0-1.094.886-1.976 1.98-1.976 1.094 0 1.98.882 1.98 1.976zm0 0" id="reuse-45"/>
    <path fill="#fff" fill-rule="evenodd" d="M460.14 283.078a1.98 1.98 0 0 1-3.96 0c0-1.094.886-1.976 1.98-1.976 1.094 0 1.98.882 1.98 1.976" id="reuse-44"/>
    <path fill="none" stroke="green" stroke-linecap="round" stroke-linejoin="round" stroke-miterlimit="10" stroke-width=".12" d="M461.578 283.078zm0 0" id="reuse-43"/>
    <path fill="none" stroke="#000" stroke-linecap="square" stroke-linejoin="bevel" stroke-miterlimit="10" stroke-width=".06" d="M489.238 340.621a2.277 2.277 0 0 1-2.277 2.277 2.278 2.278 0 1 1 0-4.558 2.278 2.278 0 0 1 2.277 2.281zm0 0" id="reuse-42"/>
    <path fill="#fff" fill-rule="evenodd" d="M489.238 340.621a2.277 2.277 0 0 1-2.277 2.277 2.278 2.278 0 1 1 0-4.558 2.278 2.278 0 0 1 2.277 2.281" id="reuse-41"/>
    <path fill="none" stroke="green" stroke-linecap="round" stroke-linejoin="round" stroke-miterlimit="10" stroke-width=".12" d="M490.68 340.621a3.721 3.721 0 1 1-3.719-3.723 3.721 3.721 0 0 1 3.719 3.723zm0 0" id="reuse-40"/>
    <path fill="green" fill-rule="evenodd" d="M490.68 340.621a3.721 3.721 0 1 1-3.719-3.723 3.721 3.721 0 0 1 3.719 3.723" id="reuse-39"/>
    <path fill="none" stroke="#000" stroke-linecap="square" stroke-linejoin="bevel" stroke-miterlimit="10" stroke-width=".06" d="M460.441 340.621a2.28 2.28 0 0 1-4.562 0 2.281 2.281 0 0 1 4.562 0zm0 0" id="reuse-38"/>
    <path fill="#fff" fill-rule="evenodd" d="M460.441 340.621a2.28 2.28 0 0 1-4.562 0 2.281 2.281 0 0 1 4.562 0" id="reuse-37"/>
    <path fill="none" stroke="green" stroke-linecap="round" stroke-linejoin="round" stroke-miterlimit="10" stroke-width=".12" d="M461.879 340.621a3.718 3.718 0 0 1-3.719 3.719 3.721 3.721 0 0 1 0-7.441 3.721 3.721 0 0 1 3.719 3.722zm0 0" id="reuse-36"/>
    <path fill="green" fill-rule="evenodd" d="M461.879 340.621a3.718 3.718 0 0 1-3.719 3.719 3.721 3.721 0 0 1 0-7.441 3.721 3.721 0 0 1 3.719 3.722" id="reuse-35"/>
    <path fill="none" stroke="#000" stroke-linecap="square" stroke-linejoin="bevel" stroke-miterlimit="10" stroke-width=".06" d="M403.68 283.078a3.12 3.12 0 1 1-6.24.002 3.12 3.12 0 0 1 6.24-.002zm0 0" id="reuse-34"/>
    <path fill="#fff" fill-rule="evenodd" d="M403.68 283.078a3.12 3.12 0 1 1-6.24.002 3.12 3.12 0 0 1 6.24-.002" id="reuse-33"/>
    <path fill="none" stroke="green" stroke-linecap="round" stroke-linejoin="round" stroke-miterlimit="10" stroke-width=".12" d="M405.238 285l-2.758 2.762h-3.84L395.88 285v-3.84l2.762-2.762h3.84l2.757 2.762zm0 0" id="reuse-32"/>
    <path fill="green" d="M405.238 285l-2.758 2.762h-3.84L395.88 285v-3.84l2.762-2.762h3.84l2.757 2.762V285" id="reuse-31"/>
    <path fill="none" stroke="#000" stroke-linecap="square" stroke-linejoin="bevel" stroke-miterlimit="10" stroke-width=".06" d="M403.68 311.879zm0 0" id="reuse-30"/>
    <path fill="none" stroke="green" stroke-linecap="round" stroke-linejoin="round" stroke-miterlimit="10" stroke-width=".12" d="M405.238 313.8l-2.758 2.759h-3.84l-2.761-2.758v-3.84l2.762-2.762h3.84l2.757 2.762zm0 0" id="reuse-29"/>
    <path fill="green" d="M405.238 313.8l-2.758 2.759h-3.84l-2.761-2.758v-3.84l2.762-2.762h3.84l2.757 2.762v3.84" id="reuse-28"/>
    <path fill="none" stroke="#000" stroke-linecap="square" stroke-linejoin="bevel" stroke-miterlimit="10" stroke-width=".06" d="M374.941 311.879a3.122 3.122 0 0 1-3.12 3.121 3.12 3.12 0 1 1 0-6.238 3.12 3.12 0 0 1 3.12 3.117zm0 0" id="reuse-27"/>
    <path fill="#fff" fill-rule="evenodd" d="M374.941 311.879a3.122 3.122 0 0 1-3.12 3.121 3.12 3.12 0 1 1 0-6.238 3.12 3.12 0 0 1 3.12 3.117" id="reuse-26"/>
    <path fill="none" stroke="green" stroke-linecap="round" stroke-linejoin="round" stroke-miterlimit="10" stroke-width=".12" d="M376.5 313.8l-2.762 2.759h-3.84l-2.757-2.758v-3.84l2.757-2.762h3.84l2.762 2.762zm0 0" id="reuse-25"/>
    <path fill="green" d="M376.5 313.8l-2.762 2.759h-3.84l-2.757-2.758v-3.84l2.757-2.762h3.84l2.762 2.762v3.84" id="reuse-24"/>
    <path fill="none" stroke="#000" stroke-linecap="square" stroke-linejoin="bevel" stroke-miterlimit="10" stroke-width=".06" d="M359.7 340.621a2.277 2.277 0 0 1-2.278 2.277 2.278 2.278 0 1 1 0-4.558 2.278 2.278 0 0 1 2.277 2.281zm0 0" id="reuse-23"/>
    <path fill="#fff" fill-rule="evenodd" d="M359.7 340.621a2.277 2.277 0 0 1-2.278 2.277 2.278 2.278 0 1 1 0-4.558 2.278 2.278 0 0 1 2.277 2.281" id="reuse-22"/>
    <path fill="none" stroke="green" stroke-linecap="round" stroke-linejoin="round" stroke-miterlimit="10" stroke-width=".12" d="M361.14 340.621a3.721 3.721 0 1 1-3.719-3.723 3.721 3.721 0 0 1 3.72 3.723zm0 0" id="reuse-21"/>
    <path fill="green" fill-rule="evenodd" d="M361.14 340.621a3.721 3.721 0 1 1-3.719-3.723 3.721 3.721 0 0 1 3.72 3.723" id="reuse-20"/>
    <path fill="none" stroke="#000" stroke-linecap="square" stroke-linejoin="bevel" stroke-miterlimit="10" stroke-width=".06" d="M359.7 355.02a2.28 2.28 0 0 1-2.278 2.28 2.281 2.281 0 0 1 0-4.562 2.28 2.28 0 0 1 2.277 2.282zm0 0" id="reuse-19"/>
    <path fill="#fff" fill-rule="evenodd" d="M359.7 355.02a2.28 2.28 0 0 1-2.278 2.28 2.281 2.281 0 0 1 0-4.562 2.28 2.28 0 0 1 2.277 2.282" id="reuse-18"/>
    <path fill="none" stroke="green" stroke-linecap="round" stroke-linejoin="round" stroke-miterlimit="10" stroke-width=".12" d="M361.14 355.02a3.721 3.721 0 0 1-7.441 0 3.721 3.721 0 0 1 7.442 0zm0 0" id="reuse-17"/>
    <path fill="green" fill-rule="evenodd" d="M361.14 355.02a3.721 3.721 0 0 1-7.441 0 3.721 3.721 0 0 1 7.442 0" id="reuse-16"/>
    <path fill="none" stroke="#000" stroke-linecap="square" stroke-linejoin="bevel" stroke-miterlimit="10" stroke-width=".06" d="M345.84 355.02a2.822 2.822 0 1 1-5.638-.002 2.822 2.822 0 0 1 5.638.002zm0 0" id="reuse-15"/>
    <path fill="#fff" fill-rule="evenodd" d="M345.84 355.02a2.822 2.822 0 1 1-5.638-.002 2.822 2.822 0 0 1 5.638.002" id="reuse-14"/>
    <path fill="none" stroke="green" stroke-linecap="round" stroke-linejoin="round" stroke-miterlimit="10" stroke-width=".12" d="M348.059 355.02a5.036 5.036 0 0 1-5.04 5.039 5.036 5.036 0 0 1-5.039-5.04 5.036 5.036 0 0 1 5.04-5.039 5.036 5.036 0 0 1 5.039 5.04zm0 0" id="reuse-13"/>
    <path fill="green" fill-rule="evenodd" d="M348.059 355.02a5.036 5.036 0 0 1-5.04 5.039 5.036 5.036 0 0 1-5.039-5.04 5.036 5.036 0 0 1 5.04-5.039 5.036 5.036 0 0 1 5.039 5.04" id="reuse-12"/>
    <path fill="none" stroke="#000" stroke-linecap="square" stroke-linejoin="bevel" stroke-miterlimit="10" stroke-width=".06" d="M504.121 355.02a2.822 2.822 0 1 1-5.643-.003 2.822 2.822 0 0 1 5.643.003zm0 0" id="reuse-11"/>
    <path fill="#fff" fill-rule="evenodd" d="M504.121 355.02a2.822 2.822 0 1 1-5.643-.003 2.822 2.822 0 0 1 5.643.003" id="reuse-10"/>
    <path fill="none" stroke="green" stroke-linecap="round" stroke-linejoin="round" stroke-miterlimit="10" stroke-width=".12" d="M506.34 355.02a5.036 5.036 0 0 1-5.04 5.039 5.036 5.036 0 0 1-5.038-5.04 5.036 5.036 0 0 1 5.039-5.039 5.036 5.036 0 0 1 5.039 5.04zm0 0" id="reuse-9"/>
    <path fill="green" fill-rule="evenodd" d="M506.34 355.02a5.036 5.036 0 0 1-5.04 5.039 5.036 5.036 0 0 1-5.038-5.04 5.036 5.036 0 0 1 5.039-5.039 5.036 5.036 0 0 1 5.039 5.04" id="reuse-8"/>
    <path fill="none" stroke="#000" stroke-linecap="square" stroke-linejoin="bevel" stroke-miterlimit="10" stroke-width=".06" d="M504.121 340.621a2.824 2.824 0 0 1-2.82 2.82 2.822 2.822 0 0 1 0-5.64 2.822 2.822 0 0 1 2.82 2.82zm0 0" id="reuse-7"/>
    <path fill="#fff" fill-rule="evenodd" d="M504.121 340.621a2.824 2.824 0 0 1-2.82 2.82 2.822 2.822 0 0 1 0-5.64 2.822 2.822 0 0 1 2.82 2.82" id="reuse-6"/>
    <path fill="none" stroke="green" stroke-linecap="round" stroke-linejoin="round" stroke-miterlimit="10" stroke-width=".12" d="M506.34 340.621a5.039 5.039 0 1 1-10.078 0 5.04 5.04 0 1 1 10.078 0zm0 0" id="reuse-5"/>
    <path fill="green" fill-rule="evenodd" d="M506.34 340.621a5.039 5.039 0 1 1-10.078 0 5.04 5.04 0 1 1 10.078 0" id="reuse-4"/>
    <path fill="none" stroke="#000" stroke-linecap="square" stroke-linejoin="bevel" stroke-miterlimit="10" stroke-width=".06" d="M504.121 297.48a2.824 2.824 0 0 1-2.82 2.82 2.822 2.822 0 0 1 0-5.64 2.822 2.822 0 0 1 2.82 2.82zm0 0" id="reuse-3"/>
    <path fill="#fff" fill-rule="evenodd" d="M504.121 297.48a2.824 2.824 0 0 1-2.82 2.82 2.822 2.822 0 0 1 0-5.64 2.822 2.822 0 0 1 2.82 2.82" id="reuse-2"/>
    <path fill="none" stroke="green" stroke-linecap="round" stroke-linejoin="round" stroke-miterlimit="10" stroke-width=".12" d="M506.34 297.48a5.036 5.036 0 0 1-5.04 5.04 5.036 5.036 0 0 1-5.038-5.04 5.036 5.036 0 0 1 5.039-5.039 5.036 5.036 0 0 1 5.039 5.04zm0 0" id="reuse-1"/>
    <path fill="green" fill-rule="evenodd" d="M506.34 297.48a5.036 5.036 0 0 1-5.04 5.04 5.036 5.036 0 0 1-5.038-5.04 5.036 5.036 0 0 1 5.039-5.039 5.036 5.036 0 0 1 5.039 5.04" id="reuse-0"/>
  </defs>
  <defs>
    <symbol id="Kosmos-X3000-VHF-Superregen-2_svg__a" overflow="visible">
      <path d="M1.125 0h-.86v-.172h.313v-1.172H.266v-.172a.61.61 0 0 0 .265-.046c.051-.032.082-.094.094-.188h.188v1.578h.312zm0 0"/>
    </symbol>
    <symbol id="Kosmos-X3000-VHF-Superregen-2_svg__b" overflow="visible">
      <path d="M2.89.11c-.386 0-.734-.07-1.046-.204A2.112 2.112 0 0 1 1-.656a2.521 2.521 0 0 1-.547-.969C.316-2 .253-2.438.266-2.938c0-.488.062-.914.187-1.28A2.62 2.62 0 0 1 1-5.188c.227-.257.504-.457.828-.593.32-.133.68-.203 1.078-.203.196 0 .383.011.563.03.164.032.32.071.469.11.132.043.265.094.39.157l.406.187v.953h-.078c-.062-.062-.148-.14-.25-.234A6.766 6.766 0 0 0 4-5.047a2.575 2.575 0 0 0-.484-.203 3.799 3.799 0 0 0-.61-.078c-.25 0-.492.055-.719.156-.23.106-.43.258-.593.453a2.095 2.095 0 0 0-.375.766c-.094.305-.14.64-.14 1.015 0 .407.046.758.14 1.047.093.293.226.54.406.735.156.199.348.343.578.437.219.106.453.156.703.156.219 0 .426-.03.625-.093.188-.051.36-.117.516-.203.133-.082.258-.164.375-.25.101-.082.187-.157.25-.22h.062v.923a5.584 5.584 0 0 0-.375.187 3.37 3.37 0 0 1-.421.157 2.474 2.474 0 0 1-.47.124 2.89 2.89 0 0 1-.577.047zm0 0"/>
    </symbol>
    <symbol id="Kosmos-X3000-VHF-Superregen-2_svg__c" overflow="visible">
      <path d="M3.766 0H.89v-.594h1.062v-3.953H.891v-.531c.406 0 .703-.055.89-.172.196-.113.305-.332.328-.656h.61v5.312h1.047zm0 0"/>
    </symbol>
    <symbol id="Kosmos-X3000-VHF-Superregen-2_svg__n" overflow="visible">
      <path d="M5.484 1.438a2.508 2.508 0 0 1-.453.078c-.156.02-.312.03-.468.03-.438 0-.793-.124-1.063-.374C3.219.93 3.066.582 3.047.125h-.188a2.59 2.59 0 0 1-1.078-.219A1.888 1.888 0 0 1 .97-.688a2.525 2.525 0 0 1-.531-.953 3.865 3.865 0 0 1-.172-1.296c0-.489.062-.926.187-1.313a2.52 2.52 0 0 1 .516-.953c.219-.258.492-.461.828-.61A2.832 2.832 0 0 1 2.859-6c.395 0 .754.07 1.079.203.32.137.597.336.828.594.218.25.39.57.515.953.125.387.188.824.188 1.313 0 .761-.153 1.386-.453 1.874-.293.5-.7.84-1.22 1.016.009.145.036.274.079.39a.594.594 0 0 0 .14.282c.07.082.16.145.266.188.102.03.242.046.422.046.102.008.227-.007.375-.046.133-.032.234-.06.297-.079h.11zm-.828-4.375a5.1 5.1 0 0 0-.125-1.032c-.086-.3-.203-.55-.36-.75a1.805 1.805 0 0 0-.562-.468 1.964 1.964 0 0 0-.75-.141c-.28 0-.527.047-.734.14a1.536 1.536 0 0 0-.563.47 2.079 2.079 0 0 0-.359.75 3.807 3.807 0 0 0-.125 1.03c0 .774.16 1.36.484 1.766.32.418.754.625 1.297.625.551 0 .989-.207 1.313-.625.312-.406.473-.992.484-1.766zm0 0"/>
    </symbol>
    <symbol id="Kosmos-X3000-VHF-Superregen-2_svg__o" overflow="visible">
      <path d="M5.156 0H4.141L2.266-2.344h-.891V0H.594v-5.89h1.515c.332.011.618.03.86.062.219.031.43.117.64.25.207.137.375.308.5.516.114.21.172.468.172.78 0 .43-.11.79-.328 1.079a1.854 1.854 0 0 1-.89.64zM3.47-4.234a1.636 1.636 0 0 0-.094-.454.93.93 0 0 0-.281-.328 1.28 1.28 0 0 0-.39-.156 7.22 7.22 0 0 0-.548-.047h-.781v2.235h.688c.226 0 .43-.02.609-.063a.913.913 0 0 0 .453-.25 1.04 1.04 0 0 0 .266-.39c.039-.157.066-.336.078-.547zm0 0"/>
    </symbol>
    <symbol id="Kosmos-X3000-VHF-Superregen-2_svg__p" overflow="visible">
      <path d="M2.016-5.328a1.62 1.62 0 0 0-.422.062 2.79 2.79 0 0 0-.422.125c-.125.055-.234.11-.328.172-.094.063-.18.117-.25.157H.547v-.829c.164-.093.398-.175.703-.25.29-.07.566-.109.828-.109.27 0 .504.027.703.078.196.055.375.137.531.25.176.125.313.277.407.453.082.18.125.387.125.625 0 .324-.106.61-.313.86-.219.25-.476.406-.765.468v.047c.113.031.242.074.39.125.133.063.266.153.39.266.126.117.224.258.298.422.07.187.11.406.11.656 0 .273-.044.516-.126.734a1.785 1.785 0 0 1-1.015 1 2.272 2.272 0 0 1-.829.141c-.293 0-.586-.04-.875-.11a3.822 3.822 0 0 1-.718-.25v-.843h.046c.165.125.391.242.672.344.27.117.547.171.829.171.164 0 .332-.023.5-.078a.876.876 0 0 0 .39-.25c.102-.113.188-.238.25-.375.05-.144.078-.32.078-.53 0-.22-.031-.395-.094-.532a.964.964 0 0 0-.25-.328 1.28 1.28 0 0 0-.39-.156 2.557 2.557 0 0 0-.5-.047h-.344v-.657h.266c.351 0 .644-.082.875-.25.219-.164.328-.41.328-.734a.813.813 0 0 0-.094-.39.678.678 0 0 0-.219-.25 1.042 1.042 0 0 0-.328-.141 1.62 1.62 0 0 0-.39-.047zm0 0"/>
    </symbol>
    <symbol id="Kosmos-X3000-VHF-Superregen-2_svg__q" overflow="visible"/>
    <symbol id="Kosmos-X3000-VHF-Superregen-2_svg__d" overflow="visible"/>
    <symbol id="Kosmos-X3000-VHF-Superregen-2_svg__e" overflow="visible"/>
    <symbol id="Kosmos-X3000-VHF-Superregen-2_svg__h" overflow="visible"/>
    <symbol id="Kosmos-X3000-VHF-Superregen-2_svg__i" overflow="visible"/>
    <symbol id="Kosmos-X3000-VHF-Superregen-2_svg__j" overflow="visible"/>
    <symbol id="Kosmos-X3000-VHF-Superregen-2_svg__r" overflow="visible"/>
    <symbol id="Kosmos-X3000-VHF-Superregen-2_svg__f" overflow="visible">
      <path d="M2.328.078a2.184 2.184 0 0 1-.86-.14 1.717 1.717 0 0 1-.671-.47 1.973 1.973 0 0 1-.438-.765 3.222 3.222 0 0 1-.156-1.062c0-.383.05-.727.156-1.032a2.08 2.08 0 0 1 .438-.765c.187-.207.41-.367.672-.485.25-.101.535-.156.86-.156.155 0 .304.012.452.031.133.024.258.055.375.094.102.031.207.07.313.11.101.054.207.105.312.156v.765h-.047c-.054-.05-.12-.113-.203-.187a3.673 3.673 0 0 0-.328-.219 2.089 2.089 0 0 0-.39-.156 1.888 1.888 0 0 0-.485-.063 1.347 1.347 0 0 0-1.047.485 1.73 1.73 0 0 0-.312.61c-.074.241-.11.51-.11.812 0 .336.04.617.125.843.07.23.176.43.313.594.125.156.281.274.469.344.164.086.351.125.562.125.176 0 .344-.02.5-.063a2.265 2.265 0 0 0 .719-.375c.082-.062.144-.117.187-.171h.047v.75a4.795 4.795 0 0 0-.281.124c-.094.055-.21.102-.344.141-.136.043-.261.07-.375.094-.125.02-.277.031-.453.031zm0 0"/>
    </symbol>
    <symbol id="Kosmos-X3000-VHF-Superregen-2_svg__g" overflow="visible">
      <path d="M1.625-4.266c-.117 0-.23.016-.344.047-.117.032-.23.07-.343.11a2.496 2.496 0 0 0-.266.125c-.074.054-.14.093-.203.125H.438v-.657c.132-.07.32-.14.562-.203a2.533 2.533 0 0 1 1.234-.031c.157.043.297.11.422.203.133.106.239.23.313.375.07.137.11.305.11.5 0 .262-.087.492-.25.688a1.2 1.2 0 0 1-.626.359v.047c.102.023.211.058.328.11.102.042.207.109.313.202a1.2 1.2 0 0 1 .234.344c.063.149.094.32.094.516 0 .218-.04.418-.11.593a1.43 1.43 0 0 1-.312.47 1.241 1.241 0 0 1-.5.327 1.87 1.87 0 0 1-.656.11A3.25 3.25 0 0 1 .891.016a3.494 3.494 0 0 1-.579-.204v-.671h.032a2.8 2.8 0 0 0 .547.28c.218.087.441.126.671.126.125 0 .254-.02.391-.063a.702.702 0 0 0 .313-.203c.082-.082.148-.18.203-.297a1.3 1.3 0 0 0 .062-.421.98.98 0 0 0-.078-.422.717.717 0 0 0-.203-.266.876.876 0 0 0-.313-.125 1.68 1.68 0 0 0-.406-.047h-.265v-.515h.218c.282 0 .508-.067.688-.204.176-.132.265-.332.265-.593a.81.81 0 0 0-.062-.313.853.853 0 0 0-.188-.203.776.776 0 0 0-.265-.11 1.471 1.471 0 0 0-.297-.03zm0 0"/>
    </symbol>
    <symbol id="Kosmos-X3000-VHF-Superregen-2_svg__k" overflow="visible">
      <path d="M3.203 0H.484v-4.719h.625v4.157h2.094zm0 0"/>
    </symbol>
    <symbol id="Kosmos-X3000-VHF-Superregen-2_svg__l" overflow="visible">
      <path d="M3.016 0H.719v-.484h.86v-3.157h-.86v-.437c.32 0 .562-.047.719-.14.144-.083.226-.255.25-.516h.484v4.25h.844zm0 0"/>
    </symbol>
    <symbol id="Kosmos-X3000-VHF-Superregen-2_svg__m" overflow="visible">
      <path d="M3.25 0H.344v-.656c.207-.196.406-.39.594-.578.187-.176.367-.364.546-.563.352-.394.598-.71.735-.953.125-.238.187-.484.187-.734 0-.125-.015-.239-.047-.344a.92.92 0 0 0-.171-.25.752.752 0 0 0-.266-.14.99.99 0 0 0-.313-.048c-.117 0-.23.016-.343.047-.118.032-.227.07-.329.11a1.272 1.272 0 0 0-.265.125c-.086.054-.149.093-.188.125H.438v-.672a3.44 3.44 0 0 1 .546-.188c.239-.062.461-.093.672-.093.438 0 .782.117 1.032.343.25.242.374.559.374.953 0 .188-.023.36-.062.516a2.636 2.636 0 0 1-.188.422c-.085.148-.18.289-.28.422a21.05 21.05 0 0 1-.345.39 9.9 9.9 0 0 1-.671.672c-.243.23-.434.414-.579.547H3.25zm0 0"/>
    </symbol>
    <symbol id="Kosmos-X3000-VHF-Superregen-2_svg__s" overflow="visible">
      <path d="M3.203-1.5c0 .23-.039.438-.11.625-.073.2-.179.371-.312.516a1.371 1.371 0 0 1-.484.328 1.836 1.836 0 0 1-.672.125c-.23 0-.45-.028-.656-.078A2.01 2.01 0 0 1 .39-.172v-.672h.046c.04.043.11.086.204.125.093.055.195.094.312.125.113.055.223.09.328.11.102.023.223.03.36.03.125 0 .242-.019.359-.062a.646.646 0 0 0 .313-.218.972.972 0 0 0 .187-.329c.04-.125.063-.269.063-.437 0-.164-.028-.305-.079-.422a.748.748 0 0 0-.187-.266 1.18 1.18 0 0 0-.344-.171 1.951 1.951 0 0 0-.437-.047c-.168 0-.34.015-.516.047-.18.03-.32.058-.422.078V-4.72h2.594v.563H1.203v1.25c.07-.008.145-.016.219-.016.07 0 .14-.004.203-.015.238 0 .441.023.61.062.163.043.328.121.484.234.156.125.273.278.36.454.081.18.124.406.124.687zm0 0"/>
    </symbol>
    <symbol id="Kosmos-X3000-VHF-Superregen-2_svg__t" overflow="visible">
      <path d="M3.39-1.86c0 .587-.14 1.055-.421 1.407-.281.355-.637.523-1.063.516a1.445 1.445 0 0 1-.468-.047 1.517 1.517 0 0 1-.407-.188v1.469H.438v-4.828h.593v.36a2.51 2.51 0 0 1 .485-.329 1.24 1.24 0 0 1 .593-.14c.407.011.723.171.954.484.218.324.328.758.328 1.297zm-.609.063c0-.394-.062-.707-.187-.937-.137-.22-.344-.329-.625-.329-.18 0-.344.04-.5.11a1.989 1.989 0 0 0-.438.281v2.016c.145.074.274.125.39.156a2 2 0 0 0 .391.031c.301 0 .54-.11.72-.328.163-.226.25-.562.25-1zm0 0"/>
    </symbol>
    <symbol id="Kosmos-X3000-VHF-Superregen-2_svg__x" overflow="visible">
      <path d="M3.328-1.531c0 .25-.043.476-.125.672-.074.21-.18.382-.312.515a1.44 1.44 0 0 1-1.063.438c-.21 0-.402-.04-.578-.11a1.103 1.103 0 0 1-.469-.312C.625-.492.5-.723.406-1.016c-.094-.28-.14-.632-.14-1.062 0-.406.039-.774.125-1.11.082-.32.21-.609.39-.859a2.11 2.11 0 0 1 .672-.562c.258-.125.57-.188.938-.188.101 0 .195.008.28.016.095.011.177.027.25.047v.609h-.03a1.132 1.132 0 0 0-.25-.094 1.199 1.199 0 0 0-.344-.047c-.399.012-.715.149-.953.407-.242.261-.383.652-.422 1.171.144-.101.297-.18.453-.234a1.49 1.49 0 0 1 .531-.094c.176 0 .336.024.485.063.132.043.273.117.421.219.176.136.305.304.391.5.082.199.125.433.125.703zm-.64.031c0-.195-.028-.36-.079-.484a.869.869 0 0 0-.25-.344.759.759 0 0 0-.28-.125 1.557 1.557 0 0 0-.75.031 1.805 1.805 0 0 0-.407.188.67.67 0 0 0-.016.14v.156c0 .336.031.602.094.797.063.2.14.352.234.454a.672.672 0 0 0 .282.203.797.797 0 0 0 .312.062c.258 0 .469-.086.625-.266.156-.175.235-.445.235-.812zm0 0"/>
    </symbol>
    <symbol id="Kosmos-X3000-VHF-Superregen-2_svg__y" overflow="visible">
      <path d="M1.36 0H.61v-.906h.75zm0 0"/>
    </symbol>
    <symbol id="Kosmos-X3000-VHF-Superregen-2_svg__z" overflow="visible">
      <path d="M2.563-3.61a.77.77 0 0 0-.204-.53c-.148-.145-.343-.22-.593-.22a.83.83 0 0 0-.563.188c-.148.125-.219.297-.219.516a.65.65 0 0 0 .11.39c.07.118.187.215.343.297.063.043.16.094.297.156.125.063.243.11.36.141.187-.133.312-.281.375-.437.062-.145.094-.313.094-.5zm.093 2.36a.904.904 0 0 0-.11-.469c-.085-.113-.23-.226-.437-.343a4.916 4.916 0 0 0-.296-.126c-.118-.05-.25-.109-.407-.171-.18.117-.308.257-.39.421-.094.18-.141.375-.141.594 0 .282.082.516.25.703a.863.863 0 0 0 .656.282.868.868 0 0 0 .64-.25c.157-.157.235-.368.235-.641zM1.766.11c-.23 0-.446-.04-.641-.11a1.188 1.188 0 0 1-.484-.297A1.08 1.08 0 0 1 .344-.75a1.395 1.395 0 0 1-.11-.547c0-.258.067-.492.203-.703.133-.219.333-.39.594-.516v-.015a1.526 1.526 0 0 1-.515-.453c-.118-.157-.172-.352-.172-.594 0-.352.133-.649.406-.89.27-.239.61-.36 1.016-.36.425 0 .77.117 1.03.344.259.23.392.515.392.859 0 .219-.063.43-.188.625-.125.21-.305.371-.531.484v.032c.27.125.476.28.625.468.144.18.219.414.219.704 0 .406-.149.746-.438 1.015-.305.274-.672.406-1.11.406zm0 0"/>
    </symbol>
    <symbol id="Kosmos-X3000-VHF-Superregen-2_svg__A" overflow="visible">
      <path d="M3.203 0H2.61v-2.016c0-.156-.007-.304-.015-.453a1.666 1.666 0 0 0-.094-.344A.548.548 0 0 0 2.297-3a.873.873 0 0 0-.36-.063 1.1 1.1 0 0 0-.453.11 2.609 2.609 0 0 0-.453.312V0H.438v-3.531h.593v.39c.164-.156.336-.28.516-.375a1.29 1.29 0 0 1 .547-.125c.351 0 .629.118.828.344.187.242.281.574.281 1zm0 0"/>
    </symbol>
    <symbol id="Kosmos-X3000-VHF-Superregen-2_svg__H" overflow="visible">
      <path d="M3.281-2.36c0 .844-.125 1.465-.375 1.86-.242.398-.62.594-1.14.594C1.242.094.863-.102.625-.5.383-.906.265-1.523.265-2.36c0-.843.126-1.46.376-1.859.238-.394.613-.593 1.125-.593.52 0 .898.203 1.14.609.25.418.375 1.031.375 1.844zM2.47-.921a2.22 2.22 0 0 0 .125-.594 6.63 6.63 0 0 0 .047-.843c0-.32-.016-.602-.047-.844a2.22 2.22 0 0 0-.125-.594.82.82 0 0 0-.266-.36.742.742 0 0 0-.437-.124c-.18 0-.32.043-.422.125a.878.878 0 0 0-.282.36 2.293 2.293 0 0 0-.125.608c-.023.25-.03.528-.03.829 0 .336.007.609.03.828.02.23.063.43.125.593a.761.761 0 0 0 .266.375.66.66 0 0 0 .438.141c.175 0 .32-.039.437-.125a.786.786 0 0 0 .266-.375zm0 0"/>
    </symbol>
    <symbol id="Kosmos-X3000-VHF-Superregen-2_svg__I" overflow="visible"/>
    <symbol id="Kosmos-X3000-VHF-Superregen-2_svg__J" overflow="visible">
      <path d="M2.313-4.922L.452 1.031h-.531l1.844-5.953zm0 0"/>
    </symbol>
    <symbol id="Kosmos-X3000-VHF-Superregen-2_svg__K" overflow="visible"/>
    <symbol id="Kosmos-X3000-VHF-Superregen-2_svg__L" overflow="visible">
      <path d="M1.5.063C1.176.07.922-.017.734-.204.554-.391.47-.68.47-1.078v-1.969H.063v-.484h.406v-1.016h.594v1.016h1.093v.484H1.062v1.688c0 .18.004.312.016.406 0 .105.02.2.063.281a.333.333 0 0 0 .171.156.712.712 0 0 0 .329.063.885.885 0 0 0 .28-.047.814.814 0 0 0 .204-.063h.031v.532C2.04 0 1.93.023 1.828.047c-.125.008-.234.015-.328.015zm0 0"/>
    </symbol>
    <symbol id="Kosmos-X3000-VHF-Superregen-2_svg__M" overflow="visible">
      <path d="M3.188 0h-.594v-.39a2.831 2.831 0 0 1-.531.359c-.157.082-.34.125-.547.125-.157 0-.305-.028-.438-.078a.74.74 0 0 1-.36-.235.918.918 0 0 1-.234-.422 1.903 1.903 0 0 1-.078-.593v-2.297H1v2.015c0 .188.004.34.016.454.02.125.05.234.093.328a.45.45 0 0 0 .204.203.802.802 0 0 0 .359.062c.144 0 .3-.039.469-.125.164-.082.316-.18.453-.297v-2.64h.594zm0 0"/>
    </symbol>
    <symbol id="Kosmos-X3000-VHF-Superregen-2_svg__N" overflow="visible"/>
    <symbol id="Kosmos-X3000-VHF-Superregen-2_svg__O" overflow="visible">
      <path d="M1.39.078C1.149.078.927.047.72-.016a1.69 1.69 0 0 1-.5-.203v-.656h.03a.63.63 0 0 0 .172.125c.062.055.156.105.281.156a1.541 1.541 0 0 0 1.016.14.777.777 0 0 0 .234-.077.538.538 0 0 0 .156-.156.495.495 0 0 0 .047-.25.44.44 0 0 0-.11-.313 1.163 1.163 0 0 0-.405-.188 19.07 19.07 0 0 0-.297-.062A6.848 6.848 0 0 1 1-1.594c-.273-.07-.469-.191-.594-.36a.847.847 0 0 1-.172-.593.99.99 0 0 1 .36-.781c.238-.195.554-.297.953-.297.195 0 .394.027.594.078.195.055.363.117.5.188v.625h-.032a2.523 2.523 0 0 0-.5-.282 1.65 1.65 0 0 0-.578-.109.94.94 0 0 0-.5.125.415.415 0 0 0-.203.375c0 .156.04.266.125.328a.989.989 0 0 0 .39.188c.083.023.18.043.298.062.101.031.218.059.343.078.258.074.457.184.594.328.125.157.188.368.188.625 0 .149-.028.29-.079.422a1.09 1.09 0 0 1-.265.36A1.44 1.44 0 0 1 1.984 0c-.156.05-.355.078-.593.078zm0 0"/>
    </symbol>
    <symbol id="Kosmos-X3000-VHF-Superregen-2_svg__P" overflow="visible"/>
    <symbol id="Kosmos-X3000-VHF-Superregen-2_svg__Q" overflow="visible"/>
    <symbol id="Kosmos-X3000-VHF-Superregen-2_svg__R" overflow="visible">
      <path d="M3.36 0h-.782L1.266-1.703l-.235.219V0H.438v-4.922h.593v2.875l1.39-1.484h.75L1.72-2.062zm0 0"/>
    </symbol>
    <symbol id="Kosmos-X3000-VHF-Superregen-2_svg__u" overflow="visible"/>
    <symbol id="Kosmos-X3000-VHF-Superregen-2_svg__v" overflow="visible"/>
    <symbol id="Kosmos-X3000-VHF-Superregen-2_svg__w" overflow="visible"/>
    <symbol id="Kosmos-X3000-VHF-Superregen-2_svg__B" overflow="visible"/>
    <symbol id="Kosmos-X3000-VHF-Superregen-2_svg__C" overflow="visible"/>
    <symbol id="Kosmos-X3000-VHF-Superregen-2_svg__D" overflow="visible"/>
    <symbol id="Kosmos-X3000-VHF-Superregen-2_svg__E" overflow="visible"/>
    <symbol id="Kosmos-X3000-VHF-Superregen-2_svg__F" overflow="visible"/>
    <symbol id="Kosmos-X3000-VHF-Superregen-2_svg__G" overflow="visible"/>
    <clipPath id="Kosmos-X3000-VHF-Superregen-2_svg__S">
      <path d="M328 369h187.82v.48H328zm0 0"/>
    </clipPath>
    <clipPath id="Kosmos-X3000-VHF-Superregen-2_svg__T">
      <path d="M515 225.48h.82v144H515zm0 0"/>
    </clipPath>
    <clipPath id="Kosmos-X3000-VHF-Superregen-2_svg__U">
      <path d="M328 225.48h187.82v.52H328zm0 0"/>
    </clipPath>
    <clipPath id="Kosmos-X3000-VHF-Superregen-2_svg__V">
      <path d="M328 225.48h1v144h-1zm0 0"/>
    </clipPath>
  </defs>
  <path fill="none" stroke="navy" stroke-linecap="round" stroke-linejoin="round" stroke-miterlimit="10" stroke-width="3.48" d="M458.16 254.34v28.738m43.14 71.942h-43.14m0 0v-14.4m0 .001V311.88m0-.001v-57.54m28.8 57.54h-28.8m0 43.141h-72m115.14-43.141h-14.34m-57.6 14.402h-14.4m14.4-14.402v14.402m0-14.402V297.48m57.6 28.801v14.34m0 0h14.34m-100.741-57.543h-57.54m57.54 0h14.402m-.001 0v14.402m-14.401 14.399v14.402m-28.739 0h-14.398m0 0v14.34m14.398-14.34h28.739M343.02 355.02h14.402m115.137-100.68v28.738m0-28.738v-14.4m0 .001h14.402m-14.402 0h-43.2M501.3 297.48h-14.34m-43.198 0v-28.8"/>
  <use fill-rule="evenodd" xlink:href="#reuse-0"/>
  <use stroke-linecap="round" stroke-linejoin="round" stroke-miterlimit="10" stroke-width=".12" xlink:href="#reuse-1"/>
  <use fill-rule="evenodd" xlink:href="#reuse-2"/>
  <use stroke-linecap="square" stroke-linejoin="bevel" stroke-miterlimit="10" stroke-width=".06" xlink:href="#reuse-3"/>
  <use fill-rule="evenodd" xlink:href="#reuse-4"/>
  <use stroke-linecap="round" stroke-linejoin="round" stroke-miterlimit="10" stroke-width=".12" xlink:href="#reuse-5"/>
  <use fill-rule="evenodd" xlink:href="#reuse-6"/>
  <use stroke-linecap="square" stroke-linejoin="bevel" stroke-miterlimit="10" stroke-width=".06" xlink:href="#reuse-7"/>
  <use fill-rule="evenodd" xlink:href="#reuse-8"/>
  <use stroke-linecap="round" stroke-linejoin="round" stroke-miterlimit="10" stroke-width=".12" xlink:href="#reuse-9"/>
  <use fill-rule="evenodd" xlink:href="#reuse-10"/>
  <use stroke-linecap="square" stroke-linejoin="bevel" stroke-miterlimit="10" stroke-width=".06" xlink:href="#reuse-11"/>
  <use fill-rule="evenodd" xlink:href="#reuse-12"/>
  <use stroke-linecap="round" stroke-linejoin="round" stroke-miterlimit="10" stroke-width=".12" xlink:href="#reuse-13"/>
  <use fill-rule="evenodd" xlink:href="#reuse-14"/>
  <use stroke-linecap="square" stroke-linejoin="bevel" stroke-miterlimit="10" stroke-width=".06" xlink:href="#reuse-15"/>
  <use fill-rule="evenodd" xlink:href="#reuse-16"/>
  <use stroke-linecap="round" stroke-linejoin="round" stroke-miterlimit="10" stroke-width=".12" xlink:href="#reuse-17"/>
  <use fill-rule="evenodd" xlink:href="#reuse-18"/>
  <use stroke-linecap="square" stroke-linejoin="bevel" stroke-miterlimit="10" stroke-width=".06" xlink:href="#reuse-19"/>
  <use fill-rule="evenodd" xlink:href="#reuse-20"/>
  <use stroke-linecap="round" stroke-linejoin="round" stroke-miterlimit="10" stroke-width=".12" xlink:href="#reuse-21"/>
  <use fill-rule="evenodd" xlink:href="#reuse-22"/>
  <use stroke-linecap="square" stroke-linejoin="bevel" stroke-miterlimit="10" stroke-width=".06" xlink:href="#reuse-23"/>
  <use xlink:href="#reuse-24"/>
  <use stroke-linecap="round" stroke-linejoin="round" stroke-miterlimit="10" stroke-width=".12" xlink:href="#reuse-25"/>
  <use fill-rule="evenodd" xlink:href="#reuse-26"/>
  <use stroke-linecap="square" stroke-linejoin="bevel" stroke-miterlimit="10" stroke-width=".06" xlink:href="#reuse-27"/>
  <use xlink:href="#reuse-28"/>
  <use stroke-linecap="round" stroke-linejoin="round" stroke-miterlimit="10" stroke-width=".12" xlink:href="#reuse-29"/>
  <use stroke-linecap="square" stroke-linejoin="bevel" stroke-miterlimit="10" stroke-width=".06" xlink:href="#reuse-30"/>
  <use xlink:href="#reuse-31"/>
  <use stroke-linecap="round" stroke-linejoin="round" stroke-miterlimit="10" stroke-width=".12" xlink:href="#reuse-32"/>
  <use fill-rule="evenodd" xlink:href="#reuse-33"/>
  <use stroke-linecap="square" stroke-linejoin="bevel" stroke-miterlimit="10" stroke-width=".06" xlink:href="#reuse-34"/>
  <use fill-rule="evenodd" xlink:href="#reuse-35"/>
  <use stroke-linecap="round" stroke-linejoin="round" stroke-miterlimit="10" stroke-width=".12" xlink:href="#reuse-36"/>
  <use fill-rule="evenodd" xlink:href="#reuse-37"/>
  <use stroke-linecap="square" stroke-linejoin="bevel" stroke-miterlimit="10" stroke-width=".06" xlink:href="#reuse-38"/>
  <use fill-rule="evenodd" xlink:href="#reuse-39"/>
  <use stroke-linecap="round" stroke-linejoin="round" stroke-miterlimit="10" stroke-width=".12" xlink:href="#reuse-40"/>
  <use fill-rule="evenodd" xlink:href="#reuse-41"/>
  <use stroke-linecap="square" stroke-linejoin="bevel" stroke-miterlimit="10" stroke-width=".06" xlink:href="#reuse-42"/>
  <use stroke-linecap="round" stroke-linejoin="round" stroke-miterlimit="10" stroke-width=".12" xlink:href="#reuse-43"/>
  <use fill-rule="evenodd" xlink:href="#reuse-44"/>
  <use stroke-linecap="square" stroke-linejoin="bevel" stroke-miterlimit="10" stroke-width=".06" xlink:href="#reuse-45"/>
  <use stroke-linecap="round" stroke-linejoin="round" stroke-miterlimit="10" stroke-width=".12" xlink:href="#reuse-46"/>
  <use fill-rule="evenodd" xlink:href="#reuse-47"/>
  <use stroke-linecap="square" stroke-linejoin="bevel" stroke-miterlimit="10" stroke-width=".06" xlink:href="#reuse-48"/>
  <use fill-rule="evenodd" xlink:href="#reuse-49"/>
  <use stroke-linecap="round" stroke-linejoin="round" stroke-miterlimit="10" stroke-width=".12" xlink:href="#reuse-50"/>
  <use fill-rule="evenodd" xlink:href="#reuse-51"/>
  <use stroke-linecap="square" stroke-linejoin="bevel" stroke-miterlimit="10" stroke-width=".06" xlink:href="#reuse-52"/>
  <use fill-rule="evenodd" xlink:href="#reuse-53"/>
  <use stroke-linecap="round" stroke-linejoin="round" stroke-miterlimit="10" stroke-width=".12" xlink:href="#reuse-54"/>
  <use fill-rule="evenodd" xlink:href="#reuse-55"/>
  <use stroke-linecap="square" stroke-linejoin="bevel" stroke-miterlimit="10" stroke-width=".06" xlink:href="#reuse-56"/>
  <use fill-rule="evenodd" xlink:href="#reuse-57"/>
  <use stroke-linecap="round" stroke-linejoin="round" stroke-miterlimit="10" stroke-width=".12" xlink:href="#reuse-58"/>
  <use fill-rule="evenodd" xlink:href="#reuse-59"/>
  <use stroke-linecap="square" stroke-linejoin="bevel" stroke-miterlimit="10" stroke-width=".06" xlink:href="#reuse-60"/>
  <use fill-rule="evenodd" xlink:href="#reuse-61"/>
  <use stroke-linecap="round" stroke-linejoin="round" stroke-miterlimit="10" stroke-width=".12" xlink:href="#reuse-62"/>
  <use fill-rule="evenodd" xlink:href="#reuse-63"/>
  <use stroke-linecap="square" stroke-linejoin="bevel" stroke-miterlimit="10" stroke-width=".06" xlink:href="#reuse-64"/>
  <use fill-rule="evenodd" xlink:href="#reuse-65"/>
  <use stroke-linecap="round" stroke-linejoin="round" stroke-miterlimit="10" stroke-width=".12" xlink:href="#reuse-66"/>
  <use fill-rule="evenodd" xlink:href="#reuse-67"/>
  <use stroke-linecap="square" stroke-linejoin="bevel" stroke-miterlimit="10" stroke-width=".06" xlink:href="#reuse-68"/>
  <use fill-rule="evenodd" xlink:href="#reuse-69"/>
  <use stroke-linecap="round" stroke-linejoin="round" stroke-miterlimit="10" stroke-width=".12" xlink:href="#reuse-70"/>
  <use fill-rule="evenodd" xlink:href="#reuse-71"/>
  <use stroke-linecap="square" stroke-linejoin="bevel" stroke-miterlimit="10" stroke-width=".06" xlink:href="#reuse-72"/>
  <use fill-rule="evenodd" xlink:href="#reuse-73"/>
  <use stroke-linecap="round" stroke-linejoin="round" stroke-miterlimit="10" stroke-width=".12" xlink:href="#reuse-74"/>
  <use fill-rule="evenodd" xlink:href="#reuse-75"/>
  <use stroke-linecap="square" stroke-linejoin="bevel" stroke-miterlimit="10" stroke-width=".06" xlink:href="#reuse-76"/>
  <use fill-rule="evenodd" xlink:href="#reuse-77"/>
  <use stroke-linecap="round" stroke-linejoin="round" stroke-miterlimit="10" stroke-width=".12" xlink:href="#reuse-78"/>
  <use fill-rule="evenodd" xlink:href="#reuse-79"/>
  <use stroke-linecap="square" stroke-linejoin="bevel" stroke-miterlimit="10" stroke-width=".06" xlink:href="#reuse-80"/>
  <use fill-rule="evenodd" xlink:href="#reuse-81"/>
  <use stroke-linecap="round" stroke-linejoin="round" stroke-miterlimit="10" stroke-width=".12" xlink:href="#reuse-82"/>
  <use fill-rule="evenodd" xlink:href="#reuse-83"/>
  <use stroke-linecap="square" stroke-linejoin="bevel" stroke-miterlimit="10" stroke-width=".06" xlink:href="#reuse-84"/>
  <use fill-rule="evenodd" xlink:href="#reuse-85"/>
  <use stroke-linecap="round" stroke-linejoin="round" stroke-miterlimit="10" stroke-width=".12" xlink:href="#reuse-86"/>
  <use fill-rule="evenodd" xlink:href="#reuse-87"/>
  <use stroke-linecap="square" stroke-linejoin="bevel" stroke-miterlimit="10" stroke-width=".06" xlink:href="#reuse-88"/>
  <use xlink:href="#reuse-89"/>
  <use stroke-linecap="round" stroke-linejoin="round" stroke-miterlimit="10" stroke-width=".12" xlink:href="#reuse-90"/>
  <use fill-rule="evenodd" xlink:href="#reuse-91"/>
  <use stroke-linecap="square" stroke-linejoin="bevel" stroke-miterlimit="10" stroke-width=".06" xlink:href="#reuse-92"/>
  <use xlink:href="#reuse-93"/>
  <use stroke-linecap="round" stroke-linejoin="round" stroke-miterlimit="10" stroke-width=".12" xlink:href="#reuse-94"/>
  <use fill-rule="evenodd" xlink:href="#reuse-95"/>
  <use stroke-linecap="square" stroke-linejoin="bevel" stroke-miterlimit="10" stroke-width=".06" xlink:href="#reuse-96"/>
  <use xlink:href="#reuse-97"/>
  <use stroke-linecap="round" stroke-linejoin="round" stroke-miterlimit="10" stroke-width=".12" xlink:href="#reuse-98"/>
  <use fill-rule="evenodd" xlink:href="#reuse-99"/>
  <use stroke-linecap="square" stroke-linejoin="bevel" stroke-miterlimit="10" stroke-width=".06" xlink:href="#reuse-100"/>
  <use fill-rule="evenodd" xlink:href="#reuse-101"/>
  <use stroke-linecap="round" stroke-linejoin="round" stroke-miterlimit="10" stroke-width=".12" xlink:href="#reuse-102"/>
  <use fill-rule="evenodd" xlink:href="#reuse-103"/>
  <use stroke-linecap="square" stroke-linejoin="bevel" stroke-miterlimit="10" stroke-width=".06" xlink:href="#reuse-104"/>
  <use fill-rule="evenodd" xlink:href="#reuse-105"/>
  <use stroke-linecap="round" stroke-linejoin="round" stroke-miterlimit="10" stroke-width=".12" xlink:href="#reuse-106"/>
  <use fill-rule="evenodd" xlink:href="#reuse-107"/>
  <use stroke-linecap="square" stroke-linejoin="bevel" stroke-miterlimit="10" stroke-width=".06" xlink:href="#reuse-108"/>
  <use fill-rule="evenodd" xlink:href="#reuse-109"/>
  <use stroke-linecap="round" stroke-linejoin="round" stroke-miterlimit="10" stroke-width=".12" xlink:href="#reuse-110"/>
  <use fill-rule="evenodd" xlink:href="#reuse-111"/>
  <use stroke-linecap="square" stroke-linejoin="bevel" stroke-miterlimit="10" stroke-width=".06" xlink:href="#reuse-112"/>
  <use fill-rule="evenodd" xlink:href="#reuse-113"/>
  <use stroke-linecap="round" stroke-linejoin="round" stroke-miterlimit="10" stroke-width=".12" xlink:href="#reuse-114"/>
  <use fill-rule="evenodd" xlink:href="#reuse-115"/>
  <use stroke-linecap="square" stroke-linejoin="bevel" stroke-miterlimit="10" stroke-width=".06" xlink:href="#reuse-116"/>
  <use fill-rule="evenodd" xlink:href="#reuse-117"/>
  <use stroke-linecap="round" stroke-linejoin="round" stroke-miterlimit="10" stroke-width=".12" xlink:href="#reuse-118"/>
  <use fill-rule="evenodd" xlink:href="#reuse-119"/>
  <use stroke-linecap="square" stroke-linejoin="bevel" stroke-miterlimit="10" stroke-width=".06" xlink:href="#reuse-120"/>
  <use fill-rule="evenodd" xlink:href="#reuse-121"/>
  <use stroke-linecap="round" stroke-linejoin="round" stroke-miterlimit="10" stroke-width=".12" xlink:href="#reuse-122"/>
  <use fill-rule="evenodd" xlink:href="#reuse-123"/>
  <use stroke-linecap="square" stroke-linejoin="bevel" stroke-miterlimit="10" stroke-width=".06" xlink:href="#reuse-124"/>
  <use fill-rule="evenodd" xlink:href="#reuse-125"/>
  <use stroke-linecap="round" stroke-linejoin="round" stroke-miterlimit="10" stroke-width=".12" xlink:href="#reuse-126"/>
  <use fill-rule="evenodd" xlink:href="#reuse-127"/>
  <use stroke-linecap="square" stroke-linejoin="bevel" stroke-miterlimit="10" stroke-width=".06" xlink:href="#reuse-128"/>
  <use fill-rule="evenodd" xlink:href="#reuse-0"/>
  <use stroke-linecap="round" stroke-linejoin="round" stroke-miterlimit="10" stroke-width=".12" xlink:href="#reuse-1"/>
  <use fill-rule="evenodd" xlink:href="#reuse-2"/>
  <use stroke-linecap="square" stroke-linejoin="bevel" stroke-miterlimit="10" stroke-width=".06" xlink:href="#reuse-3"/>
  <use fill-rule="evenodd" xlink:href="#reuse-4"/>
  <use stroke-linecap="round" stroke-linejoin="round" stroke-miterlimit="10" stroke-width=".12" xlink:href="#reuse-5"/>
  <use fill-rule="evenodd" xlink:href="#reuse-6"/>
  <use stroke-linecap="square" stroke-linejoin="bevel" stroke-miterlimit="10" stroke-width=".06" xlink:href="#reuse-7"/>
  <use fill-rule="evenodd" xlink:href="#reuse-8"/>
  <use stroke-linecap="round" stroke-linejoin="round" stroke-miterlimit="10" stroke-width=".12" xlink:href="#reuse-9"/>
  <use fill-rule="evenodd" xlink:href="#reuse-10"/>
  <use stroke-linecap="square" stroke-linejoin="bevel" stroke-miterlimit="10" stroke-width=".06" xlink:href="#reuse-11"/>
  <use fill-rule="evenodd" xlink:href="#reuse-12"/>
  <use stroke-linecap="round" stroke-linejoin="round" stroke-miterlimit="10" stroke-width=".12" xlink:href="#reuse-13"/>
  <use fill-rule="evenodd" xlink:href="#reuse-14"/>
  <use stroke-linecap="square" stroke-linejoin="bevel" stroke-miterlimit="10" stroke-width=".06" xlink:href="#reuse-15"/>
  <use fill-rule="evenodd" xlink:href="#reuse-16"/>
  <use stroke-linecap="round" stroke-linejoin="round" stroke-miterlimit="10" stroke-width=".12" xlink:href="#reuse-17"/>
  <use fill-rule="evenodd" xlink:href="#reuse-18"/>
  <use stroke-linecap="square" stroke-linejoin="bevel" stroke-miterlimit="10" stroke-width=".06" xlink:href="#reuse-19"/>
  <use fill-rule="evenodd" xlink:href="#reuse-20"/>
  <use stroke-linecap="round" stroke-linejoin="round" stroke-miterlimit="10" stroke-width=".12" xlink:href="#reuse-21"/>
  <use fill-rule="evenodd" xlink:href="#reuse-22"/>
  <use stroke-linecap="square" stroke-linejoin="bevel" stroke-miterlimit="10" stroke-width=".06" xlink:href="#reuse-23"/>
  <use xlink:href="#reuse-24"/>
  <use stroke-linecap="round" stroke-linejoin="round" stroke-miterlimit="10" stroke-width=".12" xlink:href="#reuse-25"/>
  <use fill-rule="evenodd" xlink:href="#reuse-26"/>
  <use stroke-linecap="square" stroke-linejoin="bevel" stroke-miterlimit="10" stroke-width=".06" xlink:href="#reuse-27"/>
  <use xlink:href="#reuse-28"/>
  <use stroke-linecap="round" stroke-linejoin="round" stroke-miterlimit="10" stroke-width=".12" xlink:href="#reuse-29"/>
  <use stroke-linecap="square" stroke-linejoin="bevel" stroke-miterlimit="10" stroke-width=".06" xlink:href="#reuse-30"/>
  <use xlink:href="#reuse-31"/>
  <use stroke-linecap="round" stroke-linejoin="round" stroke-miterlimit="10" stroke-width=".12" xlink:href="#reuse-32"/>
  <use fill-rule="evenodd" xlink:href="#reuse-33"/>
  <use stroke-linecap="square" stroke-linejoin="bevel" stroke-miterlimit="10" stroke-width=".06" xlink:href="#reuse-34"/>
  <use fill-rule="evenodd" xlink:href="#reuse-35"/>
  <use stroke-linecap="round" stroke-linejoin="round" stroke-miterlimit="10" stroke-width=".12" xlink:href="#reuse-36"/>
  <use fill-rule="evenodd" xlink:href="#reuse-37"/>
  <use stroke-linecap="square" stroke-linejoin="bevel" stroke-miterlimit="10" stroke-width=".06" xlink:href="#reuse-38"/>
  <use fill-rule="evenodd" xlink:href="#reuse-39"/>
  <use stroke-linecap="round" stroke-linejoin="round" stroke-miterlimit="10" stroke-width=".12" xlink:href="#reuse-40"/>
  <use fill-rule="evenodd" xlink:href="#reuse-41"/>
  <use stroke-linecap="square" stroke-linejoin="bevel" stroke-miterlimit="10" stroke-width=".06" xlink:href="#reuse-42"/>
  <use stroke-linecap="round" stroke-linejoin="round" stroke-miterlimit="10" stroke-width=".12" xlink:href="#reuse-43"/>
  <use fill-rule="evenodd" xlink:href="#reuse-44"/>
  <use stroke-linecap="square" stroke-linejoin="bevel" stroke-miterlimit="10" stroke-width=".06" xlink:href="#reuse-45"/>
  <use stroke-linecap="round" stroke-linejoin="round" stroke-miterlimit="10" stroke-width=".12" xlink:href="#reuse-46"/>
  <use fill-rule="evenodd" xlink:href="#reuse-47"/>
  <use stroke-linecap="square" stroke-linejoin="bevel" stroke-miterlimit="10" stroke-width=".06" xlink:href="#reuse-48"/>
  <use fill-rule="evenodd" xlink:href="#reuse-49"/>
  <use stroke-linecap="round" stroke-linejoin="round" stroke-miterlimit="10" stroke-width=".12" xlink:href="#reuse-50"/>
  <use fill-rule="evenodd" xlink:href="#reuse-51"/>
  <use stroke-linecap="square" stroke-linejoin="bevel" stroke-miterlimit="10" stroke-width=".06" xlink:href="#reuse-52"/>
  <use fill-rule="evenodd" xlink:href="#reuse-53"/>
  <use stroke-linecap="round" stroke-linejoin="round" stroke-miterlimit="10" stroke-width=".12" xlink:href="#reuse-54"/>
  <use fill-rule="evenodd" xlink:href="#reuse-55"/>
  <use stroke-linecap="square" stroke-linejoin="bevel" stroke-miterlimit="10" stroke-width=".06" xlink:href="#reuse-56"/>
  <use fill-rule="evenodd" xlink:href="#reuse-57"/>
  <use stroke-linecap="round" stroke-linejoin="round" stroke-miterlimit="10" stroke-width=".12" xlink:href="#reuse-58"/>
  <use fill-rule="evenodd" xlink:href="#reuse-59"/>
  <use stroke-linecap="square" stroke-linejoin="bevel" stroke-miterlimit="10" stroke-width=".06" xlink:href="#reuse-60"/>
  <use fill-rule="evenodd" xlink:href="#reuse-61"/>
  <use stroke-linecap="round" stroke-linejoin="round" stroke-miterlimit="10" stroke-width=".12" xlink:href="#reuse-62"/>
  <use fill-rule="evenodd" xlink:href="#reuse-63"/>
  <use stroke-linecap="square" stroke-linejoin="bevel" stroke-miterlimit="10" stroke-width=".06" xlink:href="#reuse-64"/>
  <use fill-rule="evenodd" xlink:href="#reuse-65"/>
  <use stroke-linecap="round" stroke-linejoin="round" stroke-miterlimit="10" stroke-width=".12" xlink:href="#reuse-66"/>
  <use fill-rule="evenodd" xlink:href="#reuse-67"/>
  <use stroke-linecap="square" stroke-linejoin="bevel" stroke-miterlimit="10" stroke-width=".06" xlink:href="#reuse-68"/>
  <use fill-rule="evenodd" xlink:href="#reuse-69"/>
  <use stroke-linecap="round" stroke-linejoin="round" stroke-miterlimit="10" stroke-width=".12" xlink:href="#reuse-70"/>
  <use fill-rule="evenodd" xlink:href="#reuse-71"/>
  <use stroke-linecap="square" stroke-linejoin="bevel" stroke-miterlimit="10" stroke-width=".06" xlink:href="#reuse-72"/>
  <use fill-rule="evenodd" xlink:href="#reuse-73"/>
  <use stroke-linecap="round" stroke-linejoin="round" stroke-miterlimit="10" stroke-width=".12" xlink:href="#reuse-74"/>
  <use fill-rule="evenodd" xlink:href="#reuse-75"/>
  <use stroke-linecap="square" stroke-linejoin="bevel" stroke-miterlimit="10" stroke-width=".06" xlink:href="#reuse-76"/>
  <use fill-rule="evenodd" xlink:href="#reuse-77"/>
  <use stroke-linecap="round" stroke-linejoin="round" stroke-miterlimit="10" stroke-width=".12" xlink:href="#reuse-78"/>
  <use fill-rule="evenodd" xlink:href="#reuse-79"/>
  <use stroke-linecap="square" stroke-linejoin="bevel" stroke-miterlimit="10" stroke-width=".06" xlink:href="#reuse-80"/>
  <use fill-rule="evenodd" xlink:href="#reuse-81"/>
  <use stroke-linecap="round" stroke-linejoin="round" stroke-miterlimit="10" stroke-width=".12" xlink:href="#reuse-82"/>
  <use fill-rule="evenodd" xlink:href="#reuse-83"/>
  <use stroke-linecap="square" stroke-linejoin="bevel" stroke-miterlimit="10" stroke-width=".06" xlink:href="#reuse-84"/>
  <use fill-rule="evenodd" xlink:href="#reuse-85"/>
  <use stroke-linecap="round" stroke-linejoin="round" stroke-miterlimit="10" stroke-width=".12" xlink:href="#reuse-86"/>
  <use fill-rule="evenodd" xlink:href="#reuse-87"/>
  <use stroke-linecap="square" stroke-linejoin="bevel" stroke-miterlimit="10" stroke-width=".06" xlink:href="#reuse-88"/>
  <use xlink:href="#reuse-89"/>
  <use stroke-linecap="round" stroke-linejoin="round" stroke-miterlimit="10" stroke-width=".12" xlink:href="#reuse-90"/>
  <use fill-rule="evenodd" xlink:href="#reuse-91"/>
  <use stroke-linecap="square" stroke-linejoin="bevel" stroke-miterlimit="10" stroke-width=".06" xlink:href="#reuse-92"/>
  <use xlink:href="#reuse-93"/>
  <use stroke-linecap="round" stroke-linejoin="round" stroke-miterlimit="10" stroke-width=".12" xlink:href="#reuse-94"/>
  <use fill-rule="evenodd" xlink:href="#reuse-95"/>
  <use stroke-linecap="square" stroke-linejoin="bevel" stroke-miterlimit="10" stroke-width=".06" xlink:href="#reuse-96"/>
  <use xlink:href="#reuse-97"/>
  <use stroke-linecap="round" stroke-linejoin="round" stroke-miterlimit="10" stroke-width=".12" xlink:href="#reuse-98"/>
  <use fill-rule="evenodd" xlink:href="#reuse-99"/>
  <use stroke-linecap="square" stroke-linejoin="bevel" stroke-miterlimit="10" stroke-width=".06" xlink:href="#reuse-100"/>
  <use fill-rule="evenodd" xlink:href="#reuse-101"/>
  <use stroke-linecap="round" stroke-linejoin="round" stroke-miterlimit="10" stroke-width=".12" xlink:href="#reuse-102"/>
  <use fill-rule="evenodd" xlink:href="#reuse-103"/>
  <use stroke-linecap="square" stroke-linejoin="bevel" stroke-miterlimit="10" stroke-width=".06" xlink:href="#reuse-104"/>
  <use fill-rule="evenodd" xlink:href="#reuse-105"/>
  <use stroke-linecap="round" stroke-linejoin="round" stroke-miterlimit="10" stroke-width=".12" xlink:href="#reuse-106"/>
  <use fill-rule="evenodd" xlink:href="#reuse-107"/>
  <use stroke-linecap="square" stroke-linejoin="bevel" stroke-miterlimit="10" stroke-width=".06" xlink:href="#reuse-108"/>
  <use fill-rule="evenodd" xlink:href="#reuse-109"/>
  <use stroke-linecap="round" stroke-linejoin="round" stroke-miterlimit="10" stroke-width=".12" xlink:href="#reuse-110"/>
  <use fill-rule="evenodd" xlink:href="#reuse-111"/>
  <use stroke-linecap="square" stroke-linejoin="bevel" stroke-miterlimit="10" stroke-width=".06" xlink:href="#reuse-112"/>
  <use fill-rule="evenodd" xlink:href="#reuse-113"/>
  <use stroke-linecap="round" stroke-linejoin="round" stroke-miterlimit="10" stroke-width=".12" xlink:href="#reuse-114"/>
  <use fill-rule="evenodd" xlink:href="#reuse-115"/>
  <use stroke-linecap="square" stroke-linejoin="bevel" stroke-miterlimit="10" stroke-width=".06" xlink:href="#reuse-116"/>
  <use fill-rule="evenodd" xlink:href="#reuse-117"/>
  <use stroke-linecap="round" stroke-linejoin="round" stroke-miterlimit="10" stroke-width=".12" xlink:href="#reuse-118"/>
  <use fill-rule="evenodd" xlink:href="#reuse-119"/>
  <use stroke-linecap="square" stroke-linejoin="bevel" stroke-miterlimit="10" stroke-width=".06" xlink:href="#reuse-120"/>
  <use fill-rule="evenodd" xlink:href="#reuse-121"/>
  <use stroke-linecap="round" stroke-linejoin="round" stroke-miterlimit="10" stroke-width=".12" xlink:href="#reuse-122"/>
  <use fill-rule="evenodd" xlink:href="#reuse-123"/>
  <use stroke-linecap="square" stroke-linejoin="bevel" stroke-miterlimit="10" stroke-width=".06" xlink:href="#reuse-124"/>
  <use fill-rule="evenodd" xlink:href="#reuse-125"/>
  <use stroke-linecap="round" stroke-linejoin="round" stroke-miterlimit="10" stroke-width=".12" xlink:href="#reuse-126"/>
  <use fill-rule="evenodd" xlink:href="#reuse-127"/>
  <use stroke-linecap="square" stroke-linejoin="bevel" stroke-miterlimit="10" stroke-width=".06" xlink:href="#reuse-128"/>
  <path fill="none" stroke="#505050" stroke-linecap="round" stroke-linejoin="round" stroke-miterlimit="10" stroke-width=".3" d="M509.52 302.102V300m-1.079 1.02h2.16m.001-2.098l.539-.543m-.001 0v-1.02m0 .001l-.538-.54m0 0h-2.16m-.001 0l-.48.54m-.001 0v1.019m0 0l.481.543m0 0h.54m-.001 0l.54-.543m0 0v-1.559m-1.56-1.082h2.099m0 0l1.082-1.02m-.001.001l-1.081-1.078m0-.001h-2.098m3.179 51.598h-2.16m0 0l-1.02-1.02m0 .001l1.02-1.078m0-.001h2.16m-1.62 2.098v-2.097m1.62-1.082h-3.18m0 0v-2.098m1.56 2.098v-1.02m0-2.098v-2.16m-1.079 1.079h2.16m.539 21.78h-2.16m0 0l-1.02-1.019m0 0l1.02-1.082m0 .001h2.16m-1.62 2.1v-2.1m1.62-1.08h-3.18m0 0v-2.1m1.56 2.1v-1.019m0-2.16v-2.101m-173.098 10.082h-2.16m0 0l-1.024-1.082m0 0l1.024-1.02m0 0h2.16m-1.622 2.102v-2.102m1.622-1.082h-3.184m0 0l3.184-2.098m0 0h-3.184m3.184-2.16h-3.184m0 1.078v-2.097m1.024-1.082l-1.024-1.078m0-.001h3.184m0 1.079v-2.098"/>
  <path fill="none" stroke="#505050" stroke-linecap="round" stroke-linejoin="round" stroke-miterlimit="10" stroke-width=".72" d="M361.02 342.781l-.18-.66-.3-.66-.481-.602-.54-.48-.66-.3-.718-.18h-.72m3.599 12.961v-10.08m-3.598 12.958h.719l.718-.18.66-.296.54-.422.48-.602.3-.66.18-.719m-7.199.001l.121.718.36.66.418.602.601.422.66.297.72.18h.722m-3.602-12.958v10.078m3.602-12.961h-.723l-.719.18-.66.3-.601.481-.418.602-.36.66-.12.66"/>
  <path fill="#505050" stroke="#505050" stroke-linecap="round" stroke-linejoin="round" stroke-miterlimit="10" stroke-width=".12" d="M355.262 347.46h4.316v-1.081h-4.316zm0 1.802h4.316v-1.082h-4.316zm0 0"/>
  <path fill="none" stroke="#505050" stroke-linecap="round" stroke-linejoin="round" stroke-miterlimit="10" stroke-width=".72" d="M408.121 312.121l-3.601 3.66m0-7.921l4.8 4.8m0 0l1.86-1.8m0 0l.18-2.16m0 0l.18-2.098m0 0l-4.86-4.864m-15.961 16.383l4.62 4.617m.001 0l2.101-.117m0 0l2.098-.18m.001 0l1.858-1.863m0 0l-4.796-4.797m3.898 3.957l4.02-3.957m-12.54-21.902l-9.359 9.36m7.019-11.637l-9.359 9.359m18.059 16.499l7.8-7.8m-13.081-12.18a6.898 6.898 0 0 1-6.899 6.899 6.898 6.898 0 0 1-6.898-6.899 6.898 6.898 0 1 1 13.797 0zm0 0"/>
  <path fill="#505050" fill-rule="evenodd" d="M394.621 319.441l.117-.66.422-.601.54-.36.722-.18.656.18.602.36.422.601.117.66-.117.72-.422.6-.602.36-.656.117-.723-.117-.539-.36-.422-.6-.117-.72h.719l.058-.363.243-.36.359-.238.422-.12.418.12.36.239.241.36.059.362-.059.418-.242.36-.36.242-.417.059-.422-.06-.36-.241-.242-.36-.058-.418h-.719"/>
  <path fill="none" stroke="#505050" stroke-linecap="round" stroke-linejoin="round" stroke-miterlimit="10" stroke-width=".12" d="M394.621 319.441l.117-.66.422-.601.54-.36.722-.18.656.18.602.36.422.601.117.66-.117.72-.422.6-.602.36-.656.117-.723-.117-.539-.36-.422-.6-.117-.72h.719l.058-.363.243-.36.359-.238.422-.12.418.12.36.239.241.36.059.362-.059.418-.242.36-.36.242-.417.059-.422-.06-.36-.241-.242-.36-.058-.418zm0 0"/>
  <path fill="#505050" fill-rule="evenodd" d="M406.5 307.68l.121-.72.418-.538.54-.422.722-.121.66.121.598.422.421.539.122.719-.122.66-.421.601-.598.418-.66.121-.723-.12-.539-.419-.418-.601-.121-.66h.719l.062-.418.239-.364.359-.238.422-.058.418.058.36.238.241.364.059.418-.059.422-.242.359-.36.18-.417.12-.422-.12-.36-.18-.238-.36-.062-.421h-.719"/>
  <path fill="none" stroke="#505050" stroke-linecap="round" stroke-linejoin="round" stroke-miterlimit="10" stroke-width=".12" d="M406.5 307.68l.121-.72.418-.538.54-.422.722-.121.66.121.598.422.421.539.122.719-.122.66-.421.601-.598.418-.66.121-.723-.12-.539-.419-.418-.601-.121-.66h.719l.062-.418.239-.364.359-.238.422-.058.418.058.36.238.241.364.059.418-.059.422-.242.359-.36.18-.417.12-.422-.12-.36-.18-.238-.36-.062-.421zm0 0"/>
  <path fill="none" stroke="#505050" stroke-linecap="round" stroke-linejoin="round" stroke-miterlimit="10" stroke-width=".72" d="M406.922 297.48c0 11.465-9.297 20.758-20.762 20.758s-20.762-9.293-20.762-20.758c0-11.464 9.297-20.761 20.762-20.761s20.762 9.297 20.762 20.761zm0 0"/>
  <path fill="none" stroke="#505050" stroke-linecap="round" stroke-linejoin="round" stroke-miterlimit="10" stroke-width=".72" d="M405.36 297.48c0 10.606-8.594 19.2-19.2 19.2-10.605 0-19.2-8.594-19.2-19.2 0-10.605 8.595-19.199 19.2-19.199 10.606 0 19.2 8.594 19.2 19.2zm72.242 46.739l.777-.059.781-.3.66-.419.54-.543.48-.718.238-.72.121-.839m-13.679 3.598h10.082m-13.68-3.598l.058.84.301.719.418.718.54.543.722.418.719.301.84.059m0-7.199l-.84.12-.72.239-.722.48-.539.54-.418.66-.3.78-.06.782m13.681-3.601H467.52m13.68 3.601l-.122-.781-.238-.781-.48-.66-.54-.54-.66-.48-.781-.238-.777-.121"/>
  <path fill="#505050" stroke="#505050" stroke-linecap="round" stroke-linejoin="round" stroke-miterlimit="10" stroke-width=".12" d="M473.281 343.5h1.438v-5.762h-1.438zm-2.883 0h1.442v-5.762h-1.442zm0 0"/>
  <path fill="none" stroke="#505050" stroke-linecap="round" stroke-linejoin="round" stroke-miterlimit="10" stroke-width=".72" d="M477.602 344.219l.777-.059.781-.3.66-.419.54-.543.48-.718.238-.72.121-.839"/>
  <path fill="none" stroke="#505050" stroke-linecap="round" stroke-linejoin="round" stroke-miterlimit="10" stroke-width=".9" d="M472.2 290.281h-1.079m0-1.081v1.081m0 0h-1.082m1.082 0v1.078m5.758-8.281c0 6.363-5.156 11.524-11.52 11.524-6.363 0-11.52-5.16-11.52-11.524 0-6.36 5.157-11.52 11.52-11.52 6.364 0 11.52 5.16 11.52 11.52zm0 0"/>
  <path fill="#505050" stroke="#505050" stroke-linecap="round" stroke-linejoin="round" stroke-miterlimit="10" stroke-width=".12" d="M462.48 287.7h1.438v-9.24h-1.438zm0 0"/>
  <path fill="none" stroke="#505050" stroke-linecap="round" stroke-linejoin="round" stroke-miterlimit="10" stroke-width=".72" d="M470.398 257.941l.723-.18.66-.3.54-.48.48-.54.3-.66.18-.722v-.72m-12.961 3.602h10.078m-12.957-3.601v.84l.239.78.422.778.66.543.718.418.84.242m0-7.203l-.84.184-.718.418-.66.601-.422.72-.239.78v.899m12.957-3.602H460.32"/>
  <path fill="none" stroke="#505050" stroke-linecap="round" stroke-linejoin="round" stroke-miterlimit="10" stroke-width=".72" d="M473.281 254.34v-.781l-.18-.66-.3-.66-.48-.598-.54-.422-.66-.36-.723-.12"/>
  <path fill="#505050" stroke="#505050" stroke-linecap="round" stroke-linejoin="round" stroke-miterlimit="10" stroke-width=".12" d="M465.719 256.5h1.082v-4.32h-1.082zm-1.797 0H465v-4.32h-1.078zm0 0"/>
  <path fill="none" stroke="#505050" stroke-linecap="round" stroke-linejoin="round" stroke-miterlimit="10" stroke-width=".72" d="M412.8 329.879l.72-.18.66-.3.601-.477.418-.543.301-.66.18-.719v-.719m-12.961 3.598H412.8m-12.96-3.598l.058.84.243.777.418.782.601.539.781.422.778.238m0-7.199l-.778.18-.78.421-.602.598-.418.723-.243.777-.058.902m12.96-3.601h-10.08m12.96 3.601v-.781l-.18-.66-.3-.66-.419-.602-.601-.418-.66-.36-.72-.12"/>
  <path fill="#505050" stroke="#505050" stroke-linecap="round" stroke-linejoin="round" stroke-miterlimit="10" stroke-width=".12" d="M408.121 328.441h1.078v-4.32h-1.078zm-1.801 0h1.078v-4.32h-1.078zm0 0"/>
  <path fill="none" stroke="#505050" stroke-linecap="round" stroke-linejoin="round" stroke-miterlimit="10" stroke-width=".72" d="M357.422 291.719l-.121-1.258-.36-1.2-.48-1.14-.723-1.02-.898-.902-1.02-.719-1.14-.539-1.2-.3-1.261-.121m0 0l-1.258.12-1.2.301-1.14.54-1.02.718-.902.903-.719 1.02-.539 1.14-.3 1.199-.121 1.258m14.402 4.321l-.121-1.259-.36-1.203-.48-1.137-.723-1.02-.898-.901-1.02-.72-1.14-.538-1.2-.301-1.261-.121m0 0l-1.258.12-1.2.302-1.14.539-1.02.719-.902.902-.719 1.02-.539 1.136-.3 1.203-.121 1.258m14.402 4.321l-.121-1.258-.36-1.204-.48-1.136-.723-1.024-.898-.898-1.02-.719-1.14-.543-1.2-.297-1.261-.12m0-.001l-1.258.121-1.2.297-1.14.543-1.02.719-.902.898-.719 1.024-.539 1.136-.3 1.204-.121 1.257m14.402 4.321l-.121-1.258-.36-1.203-.48-1.14-.723-1.02-.898-.899-1.02-.719-1.14-.543-1.2-.296-1.261-.122m0 0l-1.258.122-1.2.296-1.14.543-1.02.72-.902.898-.719 1.02-.539 1.14-.3 1.203-.121 1.258m14.402 4.32l-.121-1.262-.36-1.199-.48-1.14-.723-1.02-.898-.899-1.02-.718-1.14-.543-1.2-.297-1.261-.121m0-.001l-1.258.122-1.2.297-1.14.543-1.02.718-.902.899-.719 1.02-.539 1.14-.3 1.2-.121 1.261m14.402 4.32l-.121-1.261-.36-1.2-.48-1.14-.723-1.02-.898-.898-1.02-.723-1.14-.539-1.2-.3-1.261-.118m0 0l-1.258.117-1.2.301-1.14.54-1.02.722-.902.898-.719 1.02-.539 1.14-.3 1.2-.121 1.261m14.402 4.32l-.121-1.261-.36-1.2-.48-1.14-.723-1.02-.898-.898-1.02-.723-1.14-.539-1.2-.3-1.261-.118m0 0l-1.258.118-1.2.3-1.14.54-1.02.722-.902.899-.719 1.02-.539 1.14-.3 1.199-.121 1.262"/>
  <path fill="none" stroke="#505050" stroke-linecap="round" stroke-linejoin="round" stroke-miterlimit="10" stroke-width=".72" d="M343.02 317.64l.12 1.258.301 1.204.54 1.136.718 1.024.903.898 1.02.719 1.14.48 1.199.36 1.258.12m7.203-7.199v8.641m-14.402-34.562v-8.64m43.14 51.781l-.058-1.2-.364-1.262-.539-1.078-.719-1.082-.84-.84-1.081-.718-1.079-.54-1.261-.359-1.2-.062"/>
  <path fill="none" stroke="#505050" stroke-linecap="round" stroke-linejoin="round" stroke-miterlimit="10" stroke-width=".72" d="M379.02 327.719l-1.258.062-1.203.36-1.137.539-1.082.718-.84.84-.719 1.082-.543 1.078-.36 1.262-.058 1.2m14.34 4.32l-.058-1.2-.364-1.261-.539-1.14-.719-1.02-.84-.84-1.081-.719-1.079-.54-1.261-.358-1.2-.063m.001.001l-1.258.062-1.203.359-1.137.539-1.082.719-.84.84-.719 1.02-.543 1.14-.36 1.261-.058 1.2m14.34 4.32l-.058-1.2-.364-1.26-.539-1.142-.719-1.02-.84-.839-1.081-.719-1.079-.539-1.261-.36-1.2-.12m.001-.001l-1.258.122-1.203.36-1.137.538-1.082.72-.84.839-.719 1.02-.543 1.14-.36 1.262-.058 1.199m14.34 4.32l-.058-1.261-.364-1.2-.539-1.14-.719-1.02-.84-.898-1.081-.723-1.079-.476-1.261-.364-1.2-.117"/>
  <path fill="none" stroke="#505050" stroke-linecap="round" stroke-linejoin="round" stroke-miterlimit="10" stroke-width=".72" d="M379.02 340.621l-1.258.117-1.203.364-1.137.476-1.082.723-.84.898-.719 1.02-.543 1.14-.36 1.2-.058 1.261m0 0l.059 1.258.36 1.203.542 1.14.719 1.02.84.899 1.082.719 1.137.543 1.203.296 1.258.122m7.14-7.2v7.2m-14.34-28.739v8.578m71.942-86.281l-.121-1.258-.301-1.199-.54-1.14-.722-1.02-.898-.902-1.02-.72-1.14-.538-1.2-.301-1.261-.121m0 0l-1.258.121-1.2.3-1.14.54-1.02.719-.902.902-.719 1.02-.539 1.14-.3 1.2-.122 1.257m14.403 4.32l-.121-1.257-.301-1.2-.54-1.14-.722-1.02-.898-.902-1.02-.719-1.14-.539-1.2-.3-1.261-.122m0 .001l-1.258.12-1.2.301-1.14.54-1.02.718-.902.902-.719 1.02-.539 1.14-.3 1.2-.122 1.257m14.403 4.321l-.121-1.258-.301-1.2-.54-1.14-.722-1.082-.898-.84-1.02-.719-1.14-.539-1.2-.363-1.261-.058m0 0l-1.258.058-1.2.363-1.14.54-1.02.718-.902.84-.719 1.082-.539 1.14-.3 1.2-.122 1.258m14.403 4.321l-.121-1.259-.301-1.261-.54-1.079-.722-1.082-.898-.84-1.02-.718-1.14-.54-1.2-.363-1.261-.058m0 0l-1.258.058-1.2.364-1.14.539-1.02.719-.902.84-.719 1.081-.539 1.079-.3 1.261-.122 1.258m.001.001l.12 1.198.301 1.262.54 1.078.718 1.082.902.84 1.02.719 1.14.543 1.2.36 1.258.058m7.203-7.14v7.14m-14.402-28.739v8.637m-11.88 58.262h23.758m1.802-15.781l-.9-1.68-1.14-1.559-1.32-1.379-1.442-1.203-1.617-1.02-1.68-.777-1.8-.601-1.86-.36-1.922-.12-1.859.12-1.922.36-1.797.601-1.68.778-1.62 1.02-1.442 1.202-1.32 1.38-1.14 1.558-.9 1.68m28.801 7.141h-30.242m1.442-7.141l-.66 1.68-.48 1.8-.24 1.8-.062 1.86m0 .001l.184 1.5.297 1.44.422 1.38.539 1.378m0 0l.84 1.5.96 1.442m25.56-2.942l.538-1.378.422-1.38.3-1.44.18-1.5m0 0l-.058-1.86-.242-1.8-.48-1.802-.66-1.68"/>
  <path fill="none" stroke="#505050" stroke-linecap="round" stroke-linejoin="round" stroke-miterlimit="10" stroke-width=".72" d="M441.238 306.84l1.024-1.5.84-1.559"/>
  <use x="418.57" y="301.077" fill="#505050" xlink:href="#Kosmos-X3000-VHF-Superregen-2_svg__a"/>
  <path fill="none" stroke="#505050" stroke-linecap="round" stroke-linejoin="round" stroke-miterlimit="10" stroke-width=".9" d="M471.121 317.64l.418-.062.422-.238.3-.3.18-.419.118-.422m0-8.64l-.118-.48-.18-.36-.3-.36-.422-.18-.418-.058m-25.921 0l-.419.059-.422.18-.3.359-.239.36-.058.48m0 8.641l.058.421.239.418.3.3.422.24.418.062"/>
  <use stroke-linecap="round" stroke-linejoin="round" stroke-miterlimit="10" stroke-width=".12" xlink:href="#reuse-129"/>
  <path fill="none" stroke="#505050" stroke-linecap="round" stroke-linejoin="round" stroke-miterlimit="10" stroke-width=".9" d="M471.121 317.64l.418-.062.422-.238.3-.3.18-.419.118-.422m0-8.64l-.118-.48-.18-.36-.3-.36-.422-.18-.418-.058m-25.921 0l-.419.059-.422.18-.3.359-.239.36-.058.48m0 8.641l.058.421.239.418.3.3.422.24.418.062m27.36-10.082v8.64m-1.438 1.441h-2.16m-.723-.718l.723.719m2.16-11.52h-2.16m-.723.719l.723-.719m-20.883 10.801l-.719.719m.719-.719h20.16m-20.16-10.082l-.719-.719m.719.719h20.16m-23.038 10.8h2.16m-2.16-11.519h2.16m-3.598 1.438v8.64"/>
  <use stroke-linecap="round" stroke-linejoin="round" stroke-miterlimit="10" stroke-width=".12" xlink:href="#reuse-129"/>
  <path fill="none" stroke="#505050" stroke-linecap="round" stroke-linejoin="round" stroke-miterlimit="10" stroke-width=".9" d="M445.2 320.52l-.419.058-.422.184-.3.36-.239.358-.058.48m0 8.642l.058.418.239.421.3.297.422.184.418.117m25.922.001l.418-.118.422-.184.3-.297.18-.421.118-.418m0-8.642l-.118-.48-.18-.359-.3-.36-.422-.183-.418-.058"/>
  <use stroke-linecap="round" stroke-linejoin="round" stroke-miterlimit="10" stroke-width=".12" xlink:href="#reuse-130"/>
  <path fill="none" stroke="#505050" stroke-linecap="round" stroke-linejoin="round" stroke-miterlimit="10" stroke-width=".9" d="M445.2 320.52l-.419.058-.422.184-.3.36-.239.358-.058.48m0 8.642l.058.418.239.421.3.297.422.184.418.117m25.922.001l.418-.118.422-.184.3-.297.18-.421.118-.418m0-8.642l-.118-.48-.18-.359-.3-.36-.422-.183-.418-.058m-27.359 10.082v-8.641m1.438-1.441h2.16m.718.718l-.719-.718m-2.159 11.52h2.16m.718-.72l-.719.72m20.879-10.802l.723-.718m-.723.718h-20.16m20.16 10.082l.723.72m-.723-.72h-20.16m23.043-10.8h-2.16m2.16 11.52h-2.16m3.598-1.438v-8.641"/>
  <use stroke-linecap="round" stroke-linejoin="round" stroke-miterlimit="10" stroke-width=".12" xlink:href="#reuse-130"/>
  <path fill="none" stroke="#505050" stroke-linecap="round" stroke-linejoin="round" stroke-miterlimit="10" stroke-width=".9" d="M492.66 255.781l-.058-.48-.18-.422-.3-.3-.423-.18-.48-.06m-8.579.001l-.48.058-.422.18-.297.3-.18.423-.062.48m.001 25.859l.062.481.18.36.296.359.422.18.48.058m8.579 0l.48-.058.422-.18.3-.36.18-.359.06-.48"/>
  <use stroke-linecap="round" stroke-linejoin="round" stroke-miterlimit="10" stroke-width=".12" xlink:href="#reuse-131"/>
  <path fill="none" stroke="#505050" stroke-linecap="round" stroke-linejoin="round" stroke-miterlimit="10" stroke-width=".9" d="M492.66 255.781l-.058-.48-.18-.422-.3-.3-.423-.18-.48-.06m-8.579.001l-.48.058-.422.18-.297.3-.18.423-.062.48m.001 25.859l.062.481.18.36.296.359.422.18.48.058m8.579 0l.48-.058.422-.18.3-.36.18-.359.06-.48M482.64 254.34h8.579m1.441 1.441v2.16m-.719.719l.72-.719m-11.461-2.16v2.16m.722.719l-.723-.719m10.742 20.821l.72.718m-.72-.718V258.66m-10.019 20.102l-.723.718m.723-.718V258.66m10.738 22.98v-2.16m-11.46 2.16v-2.16m1.44 3.598h8.579"/>
  <use stroke-linecap="round" stroke-linejoin="round" stroke-miterlimit="10" stroke-width=".12" xlink:href="#reuse-131"/>
  <path fill="none" stroke="#505050" stroke-linecap="round" stroke-linejoin="round" stroke-miterlimit="10" stroke-width=".3" d="M508.441 314.398l-.48.48m-.001.001v1.082m0-.001l.481.54m0 0h2.16m.001 0l.539-.54m-.001 0v-1.081m0 0l-.538-.48m0-.001h-1.082m0 0v1.024m1.62-2.102h-3.18m0 0l3.18-2.101m0 0h-3.18m0-1.079h3.18m0 0v-1.562m0 0l-.538-.539m0 .001h-2.16m-.001 0l-.48.538m-.001 0v1.563"/>
  <path fill="none" stroke="#505050" stroke-linecap="round" stroke-linejoin="round" stroke-miterlimit="10" stroke-width=".48" d="M357.422 353.578v-3.539m0-7.98v3.601m100.738-5.039h12.121m16.679 0h-12.24"/>
  <path fill="none" stroke="#505050" stroke-linecap="round" stroke-linejoin="round" stroke-miterlimit="10" stroke-width=".9" d="M472.559 283.078h-3.899m0 0v-5.039m0 .001h-2.16m0 0v10.081m0 0h2.16m0 0v-5.043m-10.5 0h3.899m0 0v5.043m0 0h2.16m0 0V278.04m0 0h-2.16m0 0v5.038"/>
  <path fill="none" stroke="#505050" stroke-linecap="round" stroke-linejoin="round" stroke-miterlimit="10" stroke-width=".48" d="M459.602 254.34h3.539m7.98 0h-3.601M402 326.281h3.54m7.98 0h-3.598"/>
  <path fill="none" stroke="#505050" stroke-linecap="round" stroke-linejoin="round" stroke-miterlimit="10" stroke-width="2.88" d="M429.36 311.879h12.242m45.358 0h-12.24m12.24 14.402h-12.24m-45.36 0h12.242m45.358-28.801v-12.242m0-45.297v12.239"/>
  <use x="342.347" y="350.718" fill="#505050" xlink:href="#Kosmos-X3000-VHF-Superregen-2_svg__b"/>
  <use x="347.207" y="350.718" fill="#505050" xlink:href="#Kosmos-X3000-VHF-Superregen-2_svg__c"/>
  <use x="377.556" y="302.1" fill="#505050" xlink:href="#Kosmos-X3000-VHF-Superregen-2_svg__d"/>
  <use x="377.556" y="297.24" fill="#505050" xlink:href="#Kosmos-X3000-VHF-Superregen-2_svg__e"/>
  <use x="473.979" y="349.94" fill="#505050" xlink:href="#Kosmos-X3000-VHF-Superregen-2_svg__f"/>
  <use x="477.879" y="349.94" fill="#505050" xlink:href="#Kosmos-X3000-VHF-Superregen-2_svg__g"/>
  <use x="479.739" y="273.74" fill="#505050" xlink:href="#Kosmos-X3000-VHF-Superregen-2_svg__d"/>
  <use x="479.739" y="268.88" fill="#505050" xlink:href="#Kosmos-X3000-VHF-Superregen-2_svg__h"/>
  <use x="468.224" y="248.561" fill="#505050" xlink:href="#Kosmos-X3000-VHF-Superregen-2_svg__d"/>
  <use x="468.224" y="243.701" fill="#505050" xlink:href="#Kosmos-X3000-VHF-Superregen-2_svg__i"/>
  <use x="410.656" y="320.501" fill="#505050" xlink:href="#Kosmos-X3000-VHF-Superregen-2_svg__d"/>
  <use x="410.656" y="315.641" fill="#505050" xlink:href="#Kosmos-X3000-VHF-Superregen-2_svg__j"/>
  <use x="337.671" y="328.536" fill="#505050" xlink:href="#Kosmos-X3000-VHF-Superregen-2_svg__k"/>
  <use x="340.911" y="328.536" fill="#505050" xlink:href="#Kosmos-X3000-VHF-Superregen-2_svg__l"/>
  <use x="362.137" y="337.047" fill="#505050" xlink:href="#Kosmos-X3000-VHF-Superregen-2_svg__k"/>
  <use x="365.377" y="337.047" fill="#505050" xlink:href="#Kosmos-X3000-VHF-Superregen-2_svg__m"/>
  <use x="419.705" y="250.719" fill="#505050" xlink:href="#Kosmos-X3000-VHF-Superregen-2_svg__k"/>
  <use x="422.945" y="250.719" fill="#505050" xlink:href="#Kosmos-X3000-VHF-Superregen-2_svg__g"/>
  <use x="424.264" y="317.628" fill="#505050" xlink:href="#Kosmos-X3000-VHF-Superregen-2_svg__n"/>
  <use x="430.024" y="317.628" fill="#505050" xlink:href="#Kosmos-X3000-VHF-Superregen-2_svg__c"/>
  <use x="463.06" y="324.966" fill="#505050" xlink:href="#Kosmos-X3000-VHF-Superregen-2_svg__o"/>
  <use x="468.1" y="324.966" fill="#505050" xlink:href="#Kosmos-X3000-VHF-Superregen-2_svg__p"/>
  <use x="463.06" y="324.966" fill="#505050" xlink:href="#Kosmos-X3000-VHF-Superregen-2_svg__o"/>
  <use x="468.1" y="324.966" fill="#505050" xlink:href="#Kosmos-X3000-VHF-Superregen-2_svg__p"/>
  <use x="443.756" y="318.918" fill="#505050" xlink:href="#Kosmos-X3000-VHF-Superregen-2_svg__o"/>
  <use x="448.796" y="318.918" fill="#505050" xlink:href="#Kosmos-X3000-VHF-Superregen-2_svg__q"/>
  <use x="443.756" y="318.918" fill="#505050" xlink:href="#Kosmos-X3000-VHF-Superregen-2_svg__o"/>
  <use x="448.796" y="318.918" fill="#505050" xlink:href="#Kosmos-X3000-VHF-Superregen-2_svg__q"/>
  <use x="500.032" y="263.796" fill="#505050" xlink:href="#Kosmos-X3000-VHF-Superregen-2_svg__r"/>
  <use x="500.032" y="258.756" fill="#505050" xlink:href="#Kosmos-X3000-VHF-Superregen-2_svg__i"/>
  <use x="500.032" y="263.796" fill="#505050" xlink:href="#Kosmos-X3000-VHF-Superregen-2_svg__r"/>
  <use x="500.032" y="258.756" fill="#505050" xlink:href="#Kosmos-X3000-VHF-Superregen-2_svg__i"/>
  <use x="349.602" y="366.127" fill="#505050" xlink:href="#Kosmos-X3000-VHF-Superregen-2_svg__l"/>
  <use x="353.142" y="366.127" fill="#505050" xlink:href="#Kosmos-X3000-VHF-Superregen-2_svg__s"/>
  <use x="356.682" y="366.127" fill="#505050" xlink:href="#Kosmos-X3000-VHF-Superregen-2_svg__t"/>
  <use x="400.58" y="302.82" fill="#505050" xlink:href="#Kosmos-X3000-VHF-Superregen-2_svg__u"/>
  <use x="400.58" y="299.28" fill="#505050" xlink:href="#Kosmos-X3000-VHF-Superregen-2_svg__v"/>
  <use x="400.58" y="295.74" fill="#505050" xlink:href="#Kosmos-X3000-VHF-Superregen-2_svg__w"/>
  <use x="458.441" y="349.94" fill="#505050" xlink:href="#Kosmos-X3000-VHF-Superregen-2_svg__x"/>
  <use x="461.981" y="349.94" fill="#505050" xlink:href="#Kosmos-X3000-VHF-Superregen-2_svg__y"/>
  <use x="463.961" y="349.94" fill="#505050" xlink:href="#Kosmos-X3000-VHF-Superregen-2_svg__z"/>
  <use x="467.501" y="349.94" fill="#505050" xlink:href="#Kosmos-X3000-VHF-Superregen-2_svg__A"/>
  <use x="453.47" y="300.909" fill="#505050" xlink:href="#Kosmos-X3000-VHF-Superregen-2_svg__u"/>
  <use x="453.47" y="297.369" fill="#505050" xlink:href="#Kosmos-X3000-VHF-Superregen-2_svg__B"/>
  <use x="453.47" y="293.829" fill="#505050" xlink:href="#Kosmos-X3000-VHF-Superregen-2_svg__B"/>
  <use x="453.47" y="290.289" fill="#505050" xlink:href="#Kosmos-X3000-VHF-Superregen-2_svg__C"/>
  <use x="451.671" y="257.194" fill="#505050" xlink:href="#Kosmos-X3000-VHF-Superregen-2_svg__u"/>
  <use x="451.671" y="253.654" fill="#505050" xlink:href="#Kosmos-X3000-VHF-Superregen-2_svg__B"/>
  <use x="451.671" y="250.114" fill="#505050" xlink:href="#Kosmos-X3000-VHF-Superregen-2_svg__B"/>
  <use x="451.671" y="246.574" fill="#505050" xlink:href="#Kosmos-X3000-VHF-Superregen-2_svg__D"/>
  <use x="394.103" y="329.134" fill="#505050" xlink:href="#Kosmos-X3000-VHF-Superregen-2_svg__E"/>
  <use x="394.103" y="325.594" fill="#505050" xlink:href="#Kosmos-X3000-VHF-Superregen-2_svg__F"/>
  <use x="394.103" y="323.614" fill="#505050" xlink:href="#Kosmos-X3000-VHF-Superregen-2_svg__G"/>
  <use x="394.103" y="320.073" fill="#505050" xlink:href="#Kosmos-X3000-VHF-Superregen-2_svg__D"/>
  <use x="328.131" y="335.73" fill="#505050" xlink:href="#Kosmos-X3000-VHF-Superregen-2_svg__k"/>
  <use x="331.371" y="335.73" fill="#505050" xlink:href="#Kosmos-X3000-VHF-Superregen-2_svg__H"/>
  <use x="334.911" y="335.73" fill="#505050" xlink:href="#Kosmos-X3000-VHF-Superregen-2_svg__I"/>
  <use x="338.451" y="335.73" fill="#505050" xlink:href="#Kosmos-X3000-VHF-Superregen-2_svg__J"/>
  <use x="340.911" y="335.73" fill="#505050" xlink:href="#Kosmos-X3000-VHF-Superregen-2_svg__K"/>
  <use x="406.325" y="262.533" fill="#505050" xlink:href="#Kosmos-X3000-VHF-Superregen-2_svg__I"/>
  <use x="409.865" y="262.533" fill="#505050" xlink:href="#Kosmos-X3000-VHF-Superregen-2_svg__L"/>
  <use x="411.905" y="262.533" fill="#505050" xlink:href="#Kosmos-X3000-VHF-Superregen-2_svg__L"/>
  <use x="414.065" y="262.533" fill="#505050" xlink:href="#Kosmos-X3000-VHF-Superregen-2_svg__M"/>
  <use x="417.665" y="262.533" fill="#505050" xlink:href="#Kosmos-X3000-VHF-Superregen-2_svg__N"/>
  <use x="420.005" y="262.533" fill="#505050" xlink:href="#Kosmos-X3000-VHF-Superregen-2_svg__A"/>
  <use x="423.605" y="262.533" fill="#505050" xlink:href="#Kosmos-X3000-VHF-Superregen-2_svg__O"/>
  <use x="418.563" y="275.898" fill="#505050" xlink:href="#Kosmos-X3000-VHF-Superregen-2_svg__P"/>
  <use x="422.404" y="275.898" fill="#505050" xlink:href="#Kosmos-X3000-VHF-Superregen-2_svg__Q"/>
  <use x="425.763" y="275.898" fill="#505050" xlink:href="#Kosmos-X3000-VHF-Superregen-2_svg__m"/>
  <use x="429.304" y="275.898" fill="#505050" xlink:href="#Kosmos-X3000-VHF-Superregen-2_svg__s"/>
  <use x="432.843" y="275.898" fill="#505050" xlink:href="#Kosmos-X3000-VHF-Superregen-2_svg__x"/>
  <use x="436.384" y="275.898" fill="#505050" xlink:href="#Kosmos-X3000-VHF-Superregen-2_svg__P"/>
  <use x="455.058" y="313.754" fill="#505050" xlink:href="#Kosmos-X3000-VHF-Superregen-2_svg__g"/>
  <use x="458.598" y="313.754" fill="#505050" xlink:href="#Kosmos-X3000-VHF-Superregen-2_svg__y"/>
  <use x="460.578" y="313.754" fill="#505050" xlink:href="#Kosmos-X3000-VHF-Superregen-2_svg__g"/>
  <use x="464.118" y="313.754" fill="#505050" xlink:href="#Kosmos-X3000-VHF-Superregen-2_svg__R"/>
  <use x="455.058" y="313.754" fill="#505050" xlink:href="#Kosmos-X3000-VHF-Superregen-2_svg__g"/>
  <use x="458.598" y="313.754" fill="#505050" xlink:href="#Kosmos-X3000-VHF-Superregen-2_svg__y"/>
  <use x="460.578" y="313.754" fill="#505050" xlink:href="#Kosmos-X3000-VHF-Superregen-2_svg__g"/>
  <use x="464.118" y="313.754" fill="#505050" xlink:href="#Kosmos-X3000-VHF-Superregen-2_svg__R"/>
  <use x="448.936" y="328.99" fill="#505050" xlink:href="#Kosmos-X3000-VHF-Superregen-2_svg__l"/>
  <use x="452.477" y="328.99" fill="#505050" xlink:href="#Kosmos-X3000-VHF-Superregen-2_svg__H"/>
  <use x="456.016" y="328.99" fill="#505050" xlink:href="#Kosmos-X3000-VHF-Superregen-2_svg__R"/>
  <use x="448.936" y="328.99" fill="#505050" xlink:href="#Kosmos-X3000-VHF-Superregen-2_svg__l"/>
  <use x="452.477" y="328.99" fill="#505050" xlink:href="#Kosmos-X3000-VHF-Superregen-2_svg__H"/>
  <use x="456.016" y="328.99" fill="#505050" xlink:href="#Kosmos-X3000-VHF-Superregen-2_svg__R"/>
  <use x="488.817" y="270.116" fill="#505050" xlink:href="#Kosmos-X3000-VHF-Superregen-2_svg__u"/>
  <use x="488.817" y="266.576" fill="#505050" xlink:href="#Kosmos-X3000-VHF-Superregen-2_svg__v"/>
  <use x="488.817" y="263.036" fill="#505050" xlink:href="#Kosmos-X3000-VHF-Superregen-2_svg__B"/>
  <use x="488.817" y="270.116" fill="#505050" xlink:href="#Kosmos-X3000-VHF-Superregen-2_svg__u"/>
  <use x="488.817" y="266.576" fill="#505050" xlink:href="#Kosmos-X3000-VHF-Superregen-2_svg__v"/>
  <use x="488.817" y="263.036" fill="#505050" xlink:href="#Kosmos-X3000-VHF-Superregen-2_svg__B"/>
  <g clip-path="url(#Kosmos-X3000-VHF-Superregen-2_svg__S)">
    <path fill="none" stroke="#000" stroke-linecap="round" stroke-linejoin="round" stroke-miterlimit="10" stroke-width=".12" d="M328.621 369.422H515.7"/>
  </g>
  <g clip-path="url(#Kosmos-X3000-VHF-Superregen-2_svg__T)">
    <path fill="none" stroke="#000" stroke-linecap="round" stroke-linejoin="round" stroke-miterlimit="10" stroke-width=".12" d="M515.7 369.422V225.539"/>
  </g>
  <g clip-path="url(#Kosmos-X3000-VHF-Superregen-2_svg__U)">
    <path fill="none" stroke="#000" stroke-linecap="round" stroke-linejoin="round" stroke-miterlimit="10" stroke-width=".12" d="M515.7 225.54H328.62"/>
  </g>
  <g clip-path="url(#Kosmos-X3000-VHF-Superregen-2_svg__V)">
    <path fill="none" stroke="#000" stroke-linecap="round" stroke-linejoin="round" stroke-miterlimit="10" stroke-width=".12" d="M328.621 225.54v143.882"/>
  </g>
</svg>
