<svg xmlns:xlink="http://www.w3.org/1999/xlink" width="842pt" height="595pt" viewBox="0 0 842 595">
  <defs/>
  <defs>
    <symbol id="NE556-CD4069-Synth-Toy-1_svg__a" overflow="visible">
      <path d="M1.75-.766H.672l-.235.594h.329c.03.012.054.024.078.031.02.012.031.032.031.063a.048.048 0 0 1-.031.047A.1.1 0 0 1 .766 0H.14C.098 0 .07-.008.063-.031.038-.04.03-.055.03-.078c0-.031.008-.05.032-.063A.23.23 0 0 1 .14-.17h.125L1-2.126H.516c-.043 0-.075-.008-.094-.031-.012-.007-.016-.03-.016-.063 0-.02.004-.035.016-.047.02-.02.05-.03.094-.03h.828L2.14-.173h.125l.093.031a.11.11 0 0 1 .016.063.067.067 0 0 1-.016.047c-.023.023-.054.031-.093.031h-.61c-.043 0-.07-.008-.078-.031-.023-.008-.031-.024-.031-.047 0-.031.008-.05.031-.063a.23.23 0 0 1 .078-.03h.313zm-.063-.171l-.453-1.188h-.062L.734-.937zm0 0"/>
    </symbol>
    <symbol id="NE556-CD4069-Synth-Toy-1_svg__b" overflow="visible"/>
    <symbol id="NE556-CD4069-Synth-Toy-1_svg__c" overflow="visible"/>
    <symbol id="NE556-CD4069-Synth-Toy-1_svg__d" overflow="visible"/>
    <symbol id="NE556-CD4069-Synth-Toy-1_svg__e" overflow="visible">
      <path d="M1.281 0H.188v-1.875h.25v1.656h.843zm0 0"/>
    </symbol>
    <symbol id="NE556-CD4069-Synth-Toy-1_svg__f" overflow="visible">
      <path d="M1.797 0h-.25v-1.61L1.063-.515H.905L.422-1.609V0H.188v-1.875H.53L1-.828l.453-1.047h.344zm0 0"/>
    </symbol>
    <symbol id="NE556-CD4069-Synth-Toy-1_svg__g" overflow="visible">
      <path d="M1.266-.594a.95.95 0 0 1-.032.25.837.837 0 0 1-.125.203.687.687 0 0 1-.469.172C.556.031.47.023.376.016a.95.95 0 0 1-.219-.079v-.265h.016c.02.012.047.027.078.047.04.023.082.039.125.047a.622.622 0 0 0 .281.062c.04 0 .086-.008.14-.031a.265.265 0 0 0 .126-.094A.381.381 0 0 0 1-.422c.008-.05.016-.11.016-.172a.422.422 0 0 0-.032-.172.23.23 0 0 0-.078-.109 1.023 1.023 0 0 0-.125-.063C.727-.945.671-.953.61-.953c-.074 0-.148.008-.218.015l-.157.032v-.969h1.032v.219H.469v.5h.094c.03-.008.054-.016.078-.016.093 0 .175.012.25.031.062.024.125.055.187.094.063.043.11.102.14.172a.73.73 0 0 1 .048.281zm0 0"/>
    </symbol>
    <symbol id="NE556-CD4069-Synth-Toy-1_svg__h" overflow="visible">
      <path d="M1.328-.61a.745.745 0 0 1-.047.266.453.453 0 0 1-.14.203A.539.539 0 0 1 .953 0a.738.738 0 0 1-.219.031A.44.44 0 0 1 .5 0a.527.527 0 0 1-.188-.125.802.802 0 0 1-.156-.281A1.613 1.613 0 0 1 .11-.828c0-.156.016-.3.047-.438a.869.869 0 0 1 .157-.343.762.762 0 0 1 .265-.22.832.832 0 0 1 .375-.077h.11a.33.33 0 0 0 .093.015v.25a2.672 2.672 0 0 1-.11-.03.774.774 0 0 0-.14-.016.513.513 0 0 0-.375.156c-.094.105-.152.261-.172.468.063-.039.125-.07.188-.093a.444.444 0 0 1 .203-.047.69.69 0 0 1 .375.11.68.68 0 0 1 .14.202c.04.086.063.18.063.282zm-.266.016a.6.6 0 0 0-.03-.203.34.34 0 0 0-.095-.125.258.258 0 0 0-.109-.062H.703c-.062 0-.121.007-.172.015-.054.024-.11.047-.172.078v.125c0 .125.016.23.047.313a.353.353 0 0 0 .203.266.36.36 0 0 0 .125.015.292.292 0 0 0 .235-.11c.062-.062.094-.163.094-.312zm0 0"/>
    </symbol>
    <symbol id="NE556-CD4069-Synth-Toy-1_svg__i" overflow="visible">
      <path d="M1.531 0H1.25L.422-1.61V0H.188v-1.875h.359l.75 1.484v-1.484h.234zm0 0"/>
    </symbol>
    <symbol id="NE556-CD4069-Synth-Toy-1_svg__j" overflow="visible"/>
    <symbol id="NE556-CD4069-Synth-Toy-1_svg__k" overflow="visible">
      <path d="M2.875-2.078c0 .75-.105 1.297-.313 1.64-.218.356-.554.532-1 .532-.46 0-.796-.18-1.015-.547-.211-.344-.313-.879-.313-1.61 0-.75.11-1.3.329-1.656.207-.344.539-.515 1-.515.445 0 .78.183 1 .546.207.356.312.891.312 1.61zM2.172-.813a2.19 2.19 0 0 0 .11-.515 8.08 8.08 0 0 0 .03-.75c0-.281-.011-.524-.03-.735a2.535 2.535 0 0 0-.11-.53.854.854 0 0 0-.235-.313.61.61 0 0 0-.375-.11.678.678 0 0 0-.39.11.826.826 0 0 0-.234.328c-.055.137-.09.312-.11.531a7.029 7.029 0 0 0-.031.735c0 .28.008.523.031.718.008.2.047.375.11.532.05.148.128.257.234.328.094.074.223.109.39.109.145 0 .27-.035.375-.11a.773.773 0 0 0 .235-.328zm0 0"/>
    </symbol>
    <symbol id="NE556-CD4069-Synth-Toy-1_svg__l" overflow="visible">
      <path d="M2.922-1.344c0 .219-.031.418-.094.594a1.363 1.363 0 0 1-.703.734c-.156.07-.328.11-.516.11-.187 0-.359-.04-.515-.11a.983.983 0 0 1-.407-.28A1.562 1.562 0 0 1 .36-.892c-.086-.25-.125-.562-.125-.937 0-.352.036-.676.11-.969.07-.289.187-.547.344-.765.156-.208.347-.368.578-.485.238-.113.515-.172.828-.172.094 0 .18.008.265.016.07.012.141.023.204.031v.531h-.016c-.055-.02-.125-.046-.219-.078a1.54 1.54 0 0 0-.312-.031c-.344 0-.621.121-.829.36-.218.23-.343.574-.375 1.03.125-.093.258-.163.407-.218a1.757 1.757 0 0 1 .875-.016c.125.031.25.094.375.188.156.117.27.261.344.437.07.18.109.387.109.625zm-.563.016c0-.164-.023-.305-.062-.422a.726.726 0 0 0-.219-.297.467.467 0 0 0-.25-.11 1.379 1.379 0 0 0-.656.016 1.785 1.785 0 0 0-.36.172.476.476 0 0 0-.015.125v.14c0 .294.023.528.078.704.063.18.133.309.219.39a.52.52 0 0 0 .25.188.444.444 0 0 0 .265.047c.227 0 .41-.078.547-.234.133-.157.203-.395.203-.72zm0 0"/>
    </symbol>
    <symbol id="NE556-CD4069-Synth-Toy-1_svg__m" overflow="visible">
      <path d="M2.313-2.438a2.73 2.73 0 0 0-.079-.703 1.361 1.361 0 0 0-.203-.406.777.777 0 0 0-.531-.234.67.67 0 0 0-.547.25c-.137.168-.203.402-.203.703 0 .18.02.324.063.437.05.118.125.215.218.297.07.063.157.102.25.11.082.023.176.03.282.03a1.413 1.413 0 0 0 .75-.234v-.249zM.187-2.796a1.531 1.531 0 0 1 .391-1.047 1.374 1.374 0 0 1 1.453-.297c.145.075.274.168.39.282.145.156.259.355.345.593.07.25.109.563.109.938 0 .344-.04.672-.11.984-.085.313-.199.57-.343.766a1.61 1.61 0 0 1-.578.484c-.23.114-.508.172-.828.172C.94.078.863.07.78.063A.57.57 0 0 1 .547.015v-.532h.031c.04.032.113.059.219.079a.927.927 0 0 0 .297.046c.363 0 .648-.117.86-.359.206-.238.32-.582.343-1.031a2.43 2.43 0 0 1-.422.218 1.743 1.743 0 0 1-.86.016 1.056 1.056 0 0 1-.374-.187.97.97 0 0 1-.344-.438 1.597 1.597 0 0 1-.11-.625zm0 0"/>
    </symbol>
    <symbol id="NE556-CD4069-Synth-Toy-1_svg__n" overflow="visible">
      <path d="M3.39 0h-.624L.937-3.578V0H.422v-4.14h.781L2.875-.86v-3.28h.516zm0 0"/>
    </symbol>
    <symbol id="NE556-CD4069-Synth-Toy-1_svg__au" overflow="visible">
      <path d="M1.875 0H.265v-.422h.516v-3.297H.266v-.422h1.609v.422h-.531v3.297h.531zm0 0"/>
    </symbol>
    <symbol id="NE556-CD4069-Synth-Toy-1_svg__av" overflow="visible">
      <path d="M2.047.078c-.281 0-.531-.047-.75-.14A1.409 1.409 0 0 1 .703-.47a1.795 1.795 0 0 1-.39-.672 3.043 3.043 0 0 1-.126-.921c0-.352.04-.66.126-.922.093-.25.222-.473.39-.672.164-.176.363-.317.594-.422.219-.094.469-.14.75-.14.144 0 .273.011.39.03a3.465 3.465 0 0 1 .626.172l.265.141v.672h-.047a2.466 2.466 0 0 1-.187-.156 1.24 1.24 0 0 0-.266-.188 2.438 2.438 0 0 0-.36-.156 1.743 1.743 0 0 0-.421-.047c-.18 0-.344.04-.5.11-.168.074-.309.18-.422.312a1.578 1.578 0 0 0-.266.531 2.293 2.293 0 0 0-.109.735c0 .28.035.523.11.718.062.211.156.387.28.532.114.136.25.242.407.312.156.063.32.094.5.094.156 0 .3-.016.437-.047.133-.04.254-.094.36-.156.101-.051.191-.11.265-.172.07-.063.13-.114.172-.156h.047v.656c-.094.043-.18.086-.25.125a1.631 1.631 0 0 1-.297.11 3.33 3.33 0 0 1-.344.093c-.105.02-.234.031-.39.031zm0 0"/>
    </symbol>
    <symbol id="NE556-CD4069-Synth-Toy-1_svg__aw" overflow="visible">
      <path d="M2.86 0H.296v-.578c.187-.176.363-.344.531-.5a9.54 9.54 0 0 0 .469-.5c.32-.352.539-.633.656-.844.113-.207.172-.422.172-.64a.706.706 0 0 0-.063-.297.483.483 0 0 0-.14-.22.487.487 0 0 0-.234-.124.817.817 0 0 0-.282-.047c-.093 0-.195.012-.297.031a3.796 3.796 0 0 0-.28.094.961.961 0 0 0-.235.125 1.514 1.514 0 0 0-.172.11H.39v-.594c.113-.051.273-.11.484-.172.195-.051.39-.078.578-.078.383 0 .688.105.906.312.22.2.329.477.329.828 0 .168-.016.32-.047.453a1.644 1.644 0 0 1-.172.375 1.89 1.89 0 0 1-.235.36c-.105.125-.21.246-.312.36-.18.187-.371.386-.578.593-.219.2-.39.36-.516.484H2.86zm0 0"/>
    </symbol>
    <symbol id="NE556-CD4069-Synth-Toy-1_svg__ax" overflow="visible"/>
    <symbol id="NE556-CD4069-Synth-Toy-1_svg__ay" overflow="visible">
      <path d="M3.688-2.063c0 .376-.075.715-.22 1.016a1.768 1.768 0 0 1-.624.719 2.267 2.267 0 0 1-.64.266 4.441 4.441 0 0 1-.83.062H.422v-4.14h.937c.395 0 .704.027.922.077.219.063.406.149.563.25.27.18.476.415.625.704.144.293.219.64.219 1.046zm-.579-.015c0-.32-.054-.594-.156-.813a1.194 1.194 0 0 0-.469-.53 1.343 1.343 0 0 0-.468-.188 2.781 2.781 0 0 0-.625-.063H.969v3.203h.422c.25 0 .46-.02.64-.062.188-.04.36-.114.516-.219a1.15 1.15 0 0 0 .422-.516c.094-.218.14-.488.14-.812zm0 0"/>
    </symbol>
    <symbol id="NE556-CD4069-Synth-Toy-1_svg__aD" overflow="visible"/>
    <symbol id="NE556-CD4069-Synth-Toy-1_svg__aM" overflow="visible"/>
    <symbol id="NE556-CD4069-Synth-Toy-1_svg__o" overflow="visible">
      <path d="M1.86 0H.436v-.297H.97V-2.25H.438v-.266c.195 0 .347-.03.453-.093.093-.051.144-.157.156-.313h.297v2.625h.515zm0 0"/>
    </symbol>
    <symbol id="NE556-CD4069-Synth-Toy-1_svg__p" overflow="visible">
      <path d="M2.031-1.453c0 .523-.078.902-.234 1.14-.149.25-.383.376-.703.376C.77.063.535-.064.39-.314.234-.563.156-.94.156-1.452c0-.531.078-.914.235-1.156.156-.25.39-.375.703-.375.32 0 .554.132.703.39.156.25.234.633.234 1.14zm-.5.875a2.32 2.32 0 0 0 .078-.36 9.314 9.314 0 0 0 0-1.046 2.427 2.427 0 0 0-.078-.36.573.573 0 0 0-.172-.234.414.414 0 0 0-.265-.078.446.446 0 0 0-.266.078.512.512 0 0 0-.172.234 1.997 1.997 0 0 0-.078.375 6.995 6.995 0 0 0-.015.516c0 .2.003.371.015.516.008.136.035.257.078.359.04.105.098.183.172.234.063.055.149.078.266.078a.436.436 0 0 0 .265-.078.525.525 0 0 0 .172-.234zm0 0"/>
    </symbol>
    <symbol id="NE556-CD4069-Synth-Toy-1_svg__q" overflow="visible">
      <path d="M1.984 0h-.359v-1.25c0-.094-.008-.188-.016-.281a.566.566 0 0 0-.062-.203.382.382 0 0 0-.125-.125 1.042 1.042 0 0 0-.219-.047.589.589 0 0 0-.281.078c-.106.055-.2.117-.281.187V0H.266v-2.188H.64v.235a1.42 1.42 0 0 1 .312-.219.831.831 0 0 1 .344-.078c.219 0 .39.07.516.203.113.149.171.356.171.625zm0 0"/>
    </symbol>
    <symbol id="NE556-CD4069-Synth-Toy-1_svg__r" overflow="visible"/>
    <symbol id="NE556-CD4069-Synth-Toy-1_svg__s" overflow="visible">
      <path d="M2.016 0H.219v-.406l.36-.36c.112-.101.226-.218.343-.343.219-.25.367-.446.453-.594.07-.145.113-.297.125-.453a.487.487 0 0 0-.047-.219.602.602 0 0 0-.11-.156.629.629 0 0 0-.344-.11.822.822 0 0 0-.218.032.685.685 0 0 0-.203.062 1.166 1.166 0 0 0-.156.078c-.055.031-.094.059-.125.078H.28v-.406c.07-.039.18-.082.328-.125.145-.039.286-.062.422-.062.258 0 .469.074.625.218.157.149.235.344.235.594 0 .117-.012.219-.032.313a2.19 2.19 0 0 1-.109.265 2.195 2.195 0 0 1-.188.25 4.057 4.057 0 0 1-.203.25 7.154 7.154 0 0 1-.421.422 7.96 7.96 0 0 1-.36.344h1.438zm0 0"/>
    </symbol>
    <symbol id="NE556-CD4069-Synth-Toy-1_svg__t" overflow="visible">
      <path d="M2.078 0h-.484L.78-1.063l-.14.141V0H.266v-3.047H.64v1.781l.859-.921h.453l-.89.906zm0 0"/>
    </symbol>
    <symbol id="NE556-CD4069-Synth-Toy-1_svg__u" overflow="visible">
      <path d="M1.516.063c-.211 0-.399-.032-.563-.094a.962.962 0 0 1-.437-.297 1.177 1.177 0 0 1-.282-.469 1.894 1.894 0 0 1-.109-.672c0-.226.035-.437.11-.625a1.33 1.33 0 0 1 .28-.484c.114-.125.258-.223.438-.297.176-.063.363-.094.563-.094.101 0 .195.008.28.016.095.023.18.043.266.062.063.024.133.047.22.079a.829.829 0 0 1 .187.093v.469h-.031a3.862 3.862 0 0 0-.141-.125 1.311 1.311 0 0 0-.219-.125c-.086-.04-.18-.07-.281-.094a1.039 1.039 0 0 0-.328-.047.798.798 0 0 0-.672.329c-.18.21-.266.492-.266.843 0 .188.024.36.078.516a.83.83 0 0 0 .188.36.745.745 0 0 0 .312.234.884.884 0 0 0 .391.078c.113 0 .223-.004.328-.016.102-.02.195-.047.281-.078v-.75h-.687v-.344h1.062v1.282c-.054.023-.117.046-.187.078-.094.03-.172.058-.235.078-.105.031-.195.05-.265.062-.074.02-.168.032-.281.032zm0 0"/>
    </symbol>
    <symbol id="NE556-CD4069-Synth-Toy-1_svg__v" overflow="visible">
      <path d="M2.39 0h-.437L.656-2.516V0h-.36v-2.922h.548L2.016-.609v-2.313h.375zm0 0"/>
    </symbol>
    <symbol id="NE556-CD4069-Synth-Toy-1_svg__w" overflow="visible">
      <path d="M2.594-1.453c0 .262-.055.5-.156.719-.106.218-.25.386-.438.5a1.33 1.33 0 0 1-.453.187A2.89 2.89 0 0 1 .969 0H.297v-2.922h.656c.281 0 .5.024.656.063.157.043.286.101.391.171.188.126.332.293.438.5.101.211.156.454.156.735zm-.406-.016c0-.218-.04-.41-.11-.578a.813.813 0 0 0-.328-.36 1.342 1.342 0 0 0-.328-.14 1.832 1.832 0 0 0-.438-.047H.688v2.266h.296c.164 0 .317-.016.454-.047a1.016 1.016 0 0 0 .656-.516c.062-.156.094-.347.094-.578zm0 0"/>
    </symbol>
    <symbol id="NE556-CD4069-Synth-Toy-1_svg__A" overflow="visible"/>
    <symbol id="NE556-CD4069-Synth-Toy-1_svg__B" overflow="visible"/>
    <symbol id="NE556-CD4069-Synth-Toy-1_svg__C" overflow="visible">
      <path d="M2.563 0h-.516l-.922-1.156H.687V0h-.39v-2.922h.75c.164 0 .305.012.422.031.113.024.222.063.328.125a.8.8 0 0 1 .234.25.751.751 0 0 1 .094.391.797.797 0 0 1-.172.531.913.913 0 0 1-.437.328zm-.844-2.094a.598.598 0 0 0-.047-.234.412.412 0 0 0-.14-.156.446.446 0 0 0-.188-.079c-.074-.007-.168-.019-.282-.03H.688v1.109h.344c.102 0 .203-.008.297-.032a.459.459 0 0 0 .219-.125.38.38 0 0 0 .125-.187.66.66 0 0 0 .047-.266zm0 0"/>
    </symbol>
    <symbol id="NE556-CD4069-Synth-Toy-1_svg__D" overflow="visible"/>
    <symbol id="NE556-CD4069-Synth-Toy-1_svg__E" overflow="visible">
      <path d="M2.422 0h-.39v-1.422H.686V0h-.39v-2.922h.39v1.14H2.03v-1.14h.39zm0 0"/>
    </symbol>
    <symbol id="NE556-CD4069-Synth-Toy-1_svg__F" overflow="visible">
      <path d="M1.422-3.047L.282.641h-.329l1.14-3.688zm0 0"/>
    </symbol>
    <symbol id="NE556-CD4069-Synth-Toy-1_svg__G" overflow="visible"/>
    <symbol id="NE556-CD4069-Synth-Toy-1_svg__H" overflow="visible">
      <path d="M1.438.047a1.212 1.212 0 0 1-.532-.094A1.087 1.087 0 0 1 .5-.328a1.388 1.388 0 0 1-.281-.469 2.147 2.147 0 0 1-.094-.656c0-.25.031-.461.094-.64C.28-2.27.375-2.43.5-2.579a1.28 1.28 0 0 1 .406-.297c.156-.063.332-.094.531-.094.102 0 .196.008.282.016.082.023.16.043.234.062.063.024.129.043.203.063.063.031.125.07.188.11v.468h-.031c-.032-.031-.075-.07-.126-.125-.062-.04-.132-.082-.203-.125a2.15 2.15 0 0 0-.234-.11 1.54 1.54 0 0 0-.313-.03.767.767 0 0 0-.343.078.876.876 0 0 0-.297.218.997.997 0 0 0-.188.375 1.552 1.552 0 0 0-.078.516c0 .2.024.371.078.516a.83.83 0 0 0 .188.359c.082.105.18.18.297.219a.718.718 0 0 0 .343.078.99.99 0 0 0 .313-.047A.83.83 0 0 0 2-.422a1.42 1.42 0 0 0 .313-.234h.03v.453a2.274 2.274 0 0 0-.171.094 1.023 1.023 0 0 1-.219.078C1.867 0 1.79.019 1.72.03a2.627 2.627 0 0 1-.282.016zm0 0"/>
    </symbol>
    <symbol id="NE556-CD4069-Synth-Toy-1_svg__az" overflow="visible"/>
    <symbol id="NE556-CD4069-Synth-Toy-1_svg__aC" overflow="visible">
      <path d="M1-2.64a.671.671 0 0 0-.203.03.873.873 0 0 0-.219.063.582.582 0 0 0-.156.078c-.055.031-.094.059-.125.078H.266v-.406a2.29 2.29 0 0 1 .359-.125c.133-.039.27-.062.406-.062.133 0 .25.015.344.046a.62.62 0 0 1 .266.126c.093.062.16.136.203.218.039.094.062.2.062.313a.612.612 0 0 1-.156.422.669.669 0 0 1-.375.234v.031a.919.919 0 0 1 .39.188c.051.062.098.136.141.218a.78.78 0 0 1 .063.329.875.875 0 0 1-.079.359.803.803 0 0 1-.188.297.745.745 0 0 1-.312.187c-.118.051-.25.079-.407.079C.836.063.691.046.547.015a1.814 1.814 0 0 1-.36-.141v-.406H.22c.08.062.19.121.327.172a1.094 1.094 0 0 0 .656.046.559.559 0 0 0 .203-.124c.051-.063.094-.126.125-.188.02-.07.032-.16.032-.266a.687.687 0 0 0-.047-.265.491.491 0 0 0-.125-.157.446.446 0 0 0-.188-.078 1.123 1.123 0 0 0-.25-.03H.781v-.329h.14c.165 0 .306-.04.423-.125a.419.419 0 0 0 .172-.36.371.371 0 0 0-.047-.187.493.493 0 0 0-.11-.125 1.15 1.15 0 0 0-.171-.078A1.296 1.296 0 0 0 1-2.641zm0 0"/>
    </symbol>
    <symbol id="NE556-CD4069-Synth-Toy-1_svg__aF" overflow="visible">
      <path d="M1.984-.922c0 .137-.023.266-.062.39a1.304 1.304 0 0 1-.203.313.757.757 0 0 1-.297.203 1.072 1.072 0 0 1-.406.079C.867.063.726.046.594.015A1.216 1.216 0 0 1 .25-.11v-.407h.016c.03.024.078.047.14.079.051.023.114.046.188.078.07.023.14.043.203.062.062.012.133.016.219.016.07 0 .148-.016.234-.047a.389.389 0 0 0 .188-.125.604.604 0 0 0 .109-.203c.02-.07.031-.164.031-.281a.868.868 0 0 0-.031-.25.491.491 0 0 0-.125-.157.644.644 0 0 0-.203-.11 1.265 1.265 0 0 0-.282-.03 4 4 0 0 0-.312.015c-.117.024-.203.04-.266.047v-1.5h1.61v.344H.734v.781c.051-.008.098-.016.141-.016H1c.156 0 .285.012.39.032.094.031.192.078.298.14a.782.782 0 0 1 .218.282c.051.117.078.261.078.437zm0 0"/>
    </symbol>
    <symbol id="NE556-CD4069-Synth-Toy-1_svg__aG" overflow="visible">
      <path d="M2.063-.953c0 .156-.028.297-.079.422a.974.974 0 0 1-.203.312.723.723 0 0 1-.297.203.78.78 0 0 1-.343.079A1.04 1.04 0 0 1 .78 0a.891.891 0 0 1-.297-.203A1.194 1.194 0 0 1 .25-.625a2.253 2.253 0 0 1-.078-.656c0-.25.023-.477.078-.688.05-.207.129-.383.234-.531.102-.145.239-.258.407-.344.164-.082.359-.125.578-.125h.187c.063.012.114.024.157.031v.376h-.016a.676.676 0 0 0-.156-.047.87.87 0 0 0-.22-.032.784.784 0 0 0-.593.25c-.148.168-.234.414-.265.735a1.58 1.58 0 0 1 .296-.157.973.973 0 0 1 .313-.046c.113 0 .21.011.297.03a.792.792 0 0 1 .515.438c.051.125.079.274.079.438zm-.407.015a.861.861 0 0 0-.047-.296.5.5 0 0 0-.14-.204.735.735 0 0 0-.172-.093c-.074-.008-.14-.016-.203-.016a.745.745 0 0 0-.266.047 1.272 1.272 0 0 0-.265.125v.172c0 .21.019.375.062.5.04.125.086.219.14.281.051.063.11.106.172.125a.326.326 0 0 0 .204.031c.156 0 .28-.05.375-.156.093-.113.14-.285.14-.516zm0 0"/>
    </symbol>
    <symbol id="NE556-CD4069-Synth-Toy-1_svg__aI" overflow="visible">
      <path d="M2.36-2.578c.113.125.203.281.265.469.05.187.082.406.094.656 0 .23-.031.445-.094.64a1.302 1.302 0 0 1-.266.47 1.146 1.146 0 0 1-.421.312 1.376 1.376 0 0 1-.516.093c-.2 0-.375-.039-.531-.109a.87.87 0 0 1-.407-.297A1.247 1.247 0 0 1 .22-.813a2.01 2.01 0 0 1-.094-.64c0-.25.031-.469.094-.656.062-.188.148-.344.265-.47a.897.897 0 0 1 .407-.296c.156-.07.332-.11.53-.11.196 0 .376.04.532.11.156.074.29.172.406.297zm-.047 1.125c0-.195-.024-.367-.063-.516a1.015 1.015 0 0 0-.453-.61 1.18 1.18 0 0 0-.75 0 .885.885 0 0 0-.281.235c-.075.106-.133.23-.172.375a1.943 1.943 0 0 0-.063.516c0 .387.082.68.25.875.156.2.367.297.64.297a.77.77 0 0 0 .641-.297c.165-.195.25-.488.25-.875zm0 0"/>
    </symbol>
    <symbol id="NE556-CD4069-Synth-Toy-1_svg__aJ" overflow="visible">
      <path d="M1.313.063a1.27 1.27 0 0 1-.454-.079.722.722 0 0 1-.312-.187.79.79 0 0 1-.219-.375 1.719 1.719 0 0 1-.062-.516v-1.828h.39v1.828a.947.947 0 0 0 .016.328c.02.094.055.18.11.25.05.086.116.149.202.188a.78.78 0 0 0 .329.062.78.78 0 0 0 .328-.062.465.465 0 0 0 .218-.188.513.513 0 0 0 .094-.234c.02-.094.031-.207.031-.344v-1.828h.391v1.828c0 .2-.023.371-.063.516a.86.86 0 0 1-.218.375A1.08 1.08 0 0 1 1.766 0c-.125.04-.278.063-.454.063zm0 0"/>
    </symbol>
    <symbol id="NE556-CD4069-Synth-Toy-1_svg__aK" overflow="visible">
      <path d="M.984 0v-2.578H0v-.344h2.344v.344h-.985V0zm0 0"/>
    </symbol>
    <symbol id="NE556-CD4069-Synth-Toy-1_svg__aL" overflow="visible"/>
    <symbol id="NE556-CD4069-Synth-Toy-1_svg__x" overflow="visible"/>
    <symbol id="NE556-CD4069-Synth-Toy-1_svg__y" overflow="visible"/>
    <symbol id="NE556-CD4069-Synth-Toy-1_svg__z" overflow="visible"/>
    <symbol id="NE556-CD4069-Synth-Toy-1_svg__I" overflow="visible"/>
    <symbol id="NE556-CD4069-Synth-Toy-1_svg__J" overflow="visible"/>
    <symbol id="NE556-CD4069-Synth-Toy-1_svg__K" overflow="visible"/>
    <symbol id="NE556-CD4069-Synth-Toy-1_svg__L" overflow="visible"/>
    <symbol id="NE556-CD4069-Synth-Toy-1_svg__M" overflow="visible"/>
    <symbol id="NE556-CD4069-Synth-Toy-1_svg__N" overflow="visible">
      <path d="M-3.047-1.422L.641-.282v.329l-3.688-1.14zm0 0"/>
    </symbol>
    <symbol id="NE556-CD4069-Synth-Toy-1_svg__O" overflow="visible"/>
    <symbol id="NE556-CD4069-Synth-Toy-1_svg__aA" overflow="visible"/>
    <symbol id="NE556-CD4069-Synth-Toy-1_svg__aB" overflow="visible"/>
    <symbol id="NE556-CD4069-Synth-Toy-1_svg__aE" overflow="visible"/>
    <symbol id="NE556-CD4069-Synth-Toy-1_svg__aH" overflow="visible"/>
    <symbol id="NE556-CD4069-Synth-Toy-1_svg__P" overflow="visible">
      <path d="M1.063 0H.14v-.234h.312V-2.11H.141v-.235h.921v.235H.766v1.875h.296zm0 0"/>
    </symbol>
    <symbol id="NE556-CD4069-Synth-Toy-1_svg__Q" overflow="visible">
      <path d="M1.156.047C1 .047.86.02.734-.031a.724.724 0 0 1-.328-.235A1.045 1.045 0 0 1 .187-.64a1.6 1.6 0 0 1-.078-.53c0-.196.024-.368.079-.516a1.06 1.06 0 0 1 .203-.391.928.928 0 0 1 .343-.235c.125-.05.266-.078.422-.078.082 0 .16.008.235.016.062.012.125.027.187.047.05.012.102.027.156.047l.157.094v.374h-.032a.388.388 0 0 0-.109-.093.69.69 0 0 0-.156-.11 1.041 1.041 0 0 0-.188-.078.972.972 0 0 0-.25-.031.702.702 0 0 0-.516.234.738.738 0 0 0-.156.313c-.043.117-.062.25-.062.406 0 .156.02.293.062.406a.82.82 0 0 0 .157.297c.07.086.148.149.234.188a.885.885 0 0 0 .281.047.827.827 0 0 0 .25-.032.76.76 0 0 0 .203-.078.586.586 0 0 0 .157-.11 1 1 0 0 0 .093-.077h.032v.375a2.829 2.829 0 0 0-.141.062c-.055.024-.11.043-.172.063a1.16 1.16 0 0 1-.187.062 1.818 1.818 0 0 1-.235.016zm0 0"/>
    </symbol>
    <symbol id="NE556-CD4069-Synth-Toy-1_svg__R" overflow="visible">
      <path d="M1.5 0H.36v-.234h.42v-1.579H.36v-.218c.157 0 .274-.02.36-.063.07-.05.113-.14.125-.265h.25v2.125H1.5zm0 0"/>
    </symbol>
    <symbol id="NE556-CD4069-Synth-Toy-1_svg__S" overflow="visible"/>
    <symbol id="NE556-CD4069-Synth-Toy-1_svg__aq" overflow="visible">
      <path d="M1.828-.719a.796.796 0 0 1-.062.313.724.724 0 0 1-.172.219 1.164 1.164 0 0 1-.297.14A1.296 1.296 0 0 1 .907 0H.233v-2.344H.86c.164 0 .29.008.375.016a.92.92 0 0 1 .25.078.472.472 0 0 1 .188.172.634.634 0 0 1 .047.25.55.55 0 0 1-.078.297.644.644 0 0 1-.25.218.707.707 0 0 1 .328.22.61.61 0 0 1 .11.374zM1.391-1.78a.774.774 0 0 0-.016-.14.27.27 0 0 0-.094-.095.534.534 0 0 0-.172-.062H.547v.687h.36c.093 0 .163-.004.218-.015a.52.52 0 0 0 .14-.063.262.262 0 0 0 .11-.125c.008-.05.016-.113.016-.187zm.125 1.078a.433.433 0 0 0-.047-.219c-.024-.062-.074-.113-.157-.156a.676.676 0 0 0-.156-.047 2.019 2.019 0 0 0-.25-.016h-.36v.875h.266c.133 0 .239-.004.313-.015.082-.02.156-.047.219-.078A.477.477 0 0 0 1.469-.5a.924.924 0 0 0 .047-.203zm0 0"/>
    </symbol>
    <symbol id="NE556-CD4069-Synth-Toy-1_svg__T" overflow="visible">
      <path d="M1.188 0v-3.11H0v-.421h2.844v.422H1.656V0zm0 0"/>
    </symbol>
    <symbol id="NE556-CD4069-Synth-Toy-1_svg__U" overflow="visible">
      <path d="M3.094 0h-.61L1.36-1.406H.83V0H.36v-3.531h.907c.207 0 .379.011.515.031a1.04 1.04 0 0 1 .688.453c.062.137.094.293.094.469 0 .262-.063.48-.188.656-.137.18-.313.309-.531.39zM2.078-2.531a.817.817 0 0 0-.047-.281.62.62 0 0 0-.172-.204 1.223 1.223 0 0 0-.234-.093 3.854 3.854 0 0 0-.328-.016H.828v1.328h.406c.133 0 .258-.008.375-.031a.631.631 0 0 0 .266-.156.54.54 0 0 0 .156-.235.973.973 0 0 0 .047-.312zm0 0"/>
    </symbol>
    <symbol id="NE556-CD4069-Synth-Toy-1_svg__V" overflow="visible">
      <path d="M2.5-1.14c-.012.18-.043.343-.094.5a1.018 1.018 0 0 1-.25.374.934.934 0 0 1-.344.25 1.036 1.036 0 0 1-.437.094A1.15 1.15 0 0 1 .937 0a.777.777 0 0 1-.343-.25 1.166 1.166 0 0 1-.281-.516c-.075-.207-.11-.468-.11-.78 0-.313.031-.595.094-.845a1.89 1.89 0 0 1 .297-.64 1.37 1.37 0 0 1 .484-.422c.207-.094.442-.14.703-.14H2c.07.011.133.027.188.046v.453h-.016a1.178 1.178 0 0 0-.453-.094.903.903 0 0 0-.703.297c-.188.2-.297.493-.329.875.114-.07.227-.129.344-.171.125-.04.254-.063.39-.063.134 0 .255.012.36.031.102.031.211.09.328.172a1.2 1.2 0 0 1 .297.375c.063.149.094.324.094.531zm-.484.015c0-.145-.024-.27-.063-.375a.765.765 0 0 0-.187-.25.959.959 0 0 0-.204-.094.874.874 0 0 0-.563.031c-.104.032-.21.079-.312.141v.094a.476.476 0 0 0-.015.125c0 .25.023.45.078.594.05.156.113.273.188.343a.538.538 0 0 0 .437.204.607.607 0 0 0 .469-.204c.113-.132.172-.336.172-.609zm0 0"/>
    </symbol>
    <symbol id="NE556-CD4069-Synth-Toy-1_svg__W" overflow="visible">
      <path d="M3.297.86a4.156 4.156 0 0 1-.266.046c-.105.02-.199.031-.281.031-.273 0-.492-.078-.656-.234-.168-.148-.258-.355-.266-.625H1.72c-.242 0-.453-.043-.64-.125a1.295 1.295 0 0 1-.5-.36 1.552 1.552 0 0 1-.313-.577 2.517 2.517 0 0 1-.11-.782c0-.289.035-.55.11-.78.07-.227.175-.423.312-.579.133-.156.3-.273.5-.36.188-.081.399-.124.64-.124.239 0 .458.043.657.125.188.086.348.203.484.359.133.156.239.352.313.578.07.23.11.492.11.781 0 .461-.09.836-.266 1.125-.18.305-.422.508-.735.61a.885.885 0 0 0 .047.234c.02.07.05.129.094.172.039.05.094.086.156.11.05.019.133.03.25.03.063 0 .133-.011.219-.03a.72.72 0 0 0 .187-.047h.063zm-.5-2.626c0-.226-.027-.437-.078-.625a1.312 1.312 0 0 0-.219-.437.93.93 0 0 0-.328-.281 1.081 1.081 0 0 0-.453-.094.963.963 0 0 0-.438.094.884.884 0 0 0-.343.28 1.226 1.226 0 0 0-.22.454c-.054.18-.077.383-.077.61 0 .468.097.824.296 1.062.196.25.458.375.782.375.332 0 .593-.125.781-.375.195-.238.297-.594.297-1.063zm0 0"/>
    </symbol>
    <symbol id="NE556-CD4069-Synth-Toy-1_svg__X" overflow="visible">
      <path d="M2.406-1.125c0 .18-.031.336-.094.469a1.313 1.313 0 0 1-.218.39 1.19 1.19 0 0 1-.875.344 2.16 2.16 0 0 1-.5-.062 1.406 1.406 0 0 1-.422-.141v-.5h.031c.031.023.082.055.156.094A2.037 2.037 0 0 0 .97-.36c.07.011.16.015.265.015A.45.45 0 0 0 1.5-.39a.508.508 0 0 0 .234-.156.715.715 0 0 0 .141-.25c.031-.094.047-.203.047-.328a.908.908 0 0 0-.047-.313.686.686 0 0 0-.156-.203.998.998 0 0 0-.25-.125 1.798 1.798 0 0 0-.328-.03c-.137 0-.266.01-.391.03-.137.024-.242.04-.313.047V-3.53h1.938v.406H.891v.953a1.35 1.35 0 0 1 .171-.015.73.73 0 0 0 .157-.016 1.9 1.9 0 0 1 .453.047.937.937 0 0 1 .36.187c.113.086.206.196.28.328.063.137.094.309.094.516zm0 0"/>
    </symbol>
    <symbol id="NE556-CD4069-Synth-Toy-1_svg__Y" overflow="visible"/>
    <symbol id="NE556-CD4069-Synth-Toy-1_svg__Z" overflow="visible">
      <path d="M1.734.063c-.23 0-.437-.04-.625-.11a1.446 1.446 0 0 1-.515-.36 1.574 1.574 0 0 1-.328-.562 2.568 2.568 0 0 1-.11-.797c0-.289.035-.546.11-.765a1.6 1.6 0 0 1 .328-.578c.144-.157.312-.274.5-.36a1.68 1.68 0 0 1 .656-.125 4.4 4.4 0 0 1 .328.016c.102.023.203.047.297.078.07.023.148.047.234.078.07.043.149.086.235.125v.563h-.047a1.428 1.428 0 0 1-.156-.141 1.87 1.87 0 0 0-.235-.156l-.297-.125a3.76 3.76 0 0 0-.375-.047.979.979 0 0 0-.421.094.884.884 0 0 0-.344.28 1.219 1.219 0 0 0-.235.454c-.062.18-.093.383-.093.61 0 .25.03.46.093.624.051.18.13.329.235.454a.905.905 0 0 0 .344.25.979.979 0 0 0 .421.093c.133 0 .266-.015.391-.047.113-.03.21-.07.297-.125.094-.05.172-.101.234-.156.063-.05.11-.094.14-.125h.048v.563a2.037 2.037 0 0 0-.219.093 1.339 1.339 0 0 1-.25.11C2.27 0 2.172.019 2.078.03c-.086.02-.2.032-.344.032zm0 0"/>
    </symbol>
    <symbol id="NE556-CD4069-Synth-Toy-1_svg__aa" overflow="visible"/>
    <symbol id="NE556-CD4069-Synth-Toy-1_svg__ab" overflow="visible">
      <path d="M1.219-3.203c-.094 0-.184.012-.266.031-.086.031-.168.063-.25.094-.074.031-.14.062-.203.094a1.097 1.097 0 0 0-.14.093H.327v-.5c.102-.05.242-.101.422-.156.176-.039.344-.062.5-.062.156 0 .297.015.422.046.113.032.223.086.328.157a.92.92 0 0 1 .234.281.85.85 0 0 1 .079.375c0 .188-.07.355-.204.5a.737.737 0 0 1-.453.281v.047c.07.012.149.031.235.063.082.043.16.093.234.156.07.074.133.164.188.266.039.105.062.234.062.39s-.027.305-.078.438a1.06 1.06 0 0 1-.235.359.984.984 0 0 1-.374.234 1.23 1.23 0 0 1-.485.094C1.016.078.836.055.672.016a1.616 1.616 0 0 1-.438-.157v-.5h.032c.093.075.226.141.406.204.156.062.32.093.5.093a.885.885 0 0 0 .281-.047.423.423 0 0 0 .25-.14.721.721 0 0 0 .14-.235.893.893 0 0 0 .048-.312.908.908 0 0 0-.047-.313.686.686 0 0 0-.157-.203 1.223 1.223 0 0 0-.234-.093 1.471 1.471 0 0 0-.297-.032H.953v-.39h.156c.207 0 .38-.051.516-.157a.524.524 0 0 0 .203-.437.598.598 0 0 0-.047-.235.783.783 0 0 0-.14-.156 1.565 1.565 0 0 0-.204-.078.87.87 0 0 0-.218-.031zm0 0"/>
    </symbol>
    <symbol id="NE556-CD4069-Synth-Toy-1_svg__ac" overflow="visible">
      <path d="M2.922 0h-.469v-1.734H.828V0H.36v-3.531h.47v1.39h1.624v-1.39h.469zm0 0"/>
    </symbol>
    <symbol id="NE556-CD4069-Synth-Toy-1_svg__ad" overflow="visible">
      <path d="M2.438 0H.265v-.5c.145-.145.29-.285.438-.422.133-.133.27-.273.406-.422.27-.3.454-.539.547-.718.102-.176.157-.36.157-.547a.76.76 0 0 0-.047-.266.478.478 0 0 0-.125-.172.644.644 0 0 0-.204-.11.598.598 0 0 0-.234-.046c-.086 0-.168.012-.25.031-.094.031-.18.063-.25.094a.877.877 0 0 0-.203.094.87.87 0 0 1-.14.093H.327v-.5c.102-.05.242-.097.422-.14a1.65 1.65 0 0 1 .484-.078c.332 0 .594.09.782.265a.93.93 0 0 1 .28.703c0 .149-.015.278-.046.391-.043.117-.09.227-.14.328a2.003 2.003 0 0 1-.22.297 9.043 9.043 0 0 1-.25.297c-.156.168-.324.34-.5.516-.187.167-.335.304-.437.406h1.735zm0 0"/>
    </symbol>
    <symbol id="NE556-CD4069-Synth-Toy-1_svg__ae" overflow="visible"/>
    <symbol id="NE556-CD4069-Synth-Toy-1_svg__af" overflow="visible">
      <path d="M1.594 0H.219v-.36h.453v-2.812H.219v-.36h1.375v.36H1.14v2.813h.453zm0 0"/>
    </symbol>
    <symbol id="NE556-CD4069-Synth-Toy-1_svg__ag" overflow="visible">
      <path d="M1.344.063c-.262 0-.48-.028-.657-.079a2.353 2.353 0 0 1-.5-.203v-.578H.22c.156.149.332.258.531.328.188.086.375.125.563.125.257 0 .453-.05.578-.156a.55.55 0 0 0 .203-.438A.612.612 0 0 0 2-1.28a.701.701 0 0 0-.344-.188c-.105-.031-.203-.054-.297-.078-.093-.02-.21-.05-.343-.094a2.485 2.485 0 0 1-.329-.109.83.83 0 0 1-.25-.203.695.695 0 0 1-.171-.266.966.966 0 0 1-.063-.375c0-.281.113-.52.344-.719.219-.187.5-.28.844-.28.195 0 .382.023.562.062.176.043.344.094.5.156v.563h-.047a1.875 1.875 0 0 0-.422-.266 1.54 1.54 0 0 0-.562-.11c-.219 0-.39.047-.516.141a.437.437 0 0 0-.203.406c0 .157.035.278.11.36a.67.67 0 0 0 .343.203c.102.023.227.047.375.078.133.043.254.078.36.11.238.074.414.183.53.327.102.157.161.344.173.563a1.495 1.495 0 0 1-.094.406.928.928 0 0 1-.234.344 1.146 1.146 0 0 1-.391.234 1.628 1.628 0 0 1-.531.079zm0 0"/>
    </symbol>
    <symbol id="NE556-CD4069-Synth-Toy-1_svg__ah" overflow="visible">
      <path d="M2.266 0H.53v-.36h.64v-2.374H.53v-.313c.239 0 .422-.035.547-.11.113-.062.176-.19.188-.39h.359v3.188h.64zm0 0"/>
    </symbol>
    <symbol id="NE556-CD4069-Synth-Toy-1_svg__ar" overflow="visible">
      <path d="M1.922-2.703a.6.6 0 0 0-.156-.406.604.604 0 0 0-.438-.157c-.18 0-.32.047-.422.141a.473.473 0 0 0-.172.39c0 .118.032.215.094.297.05.086.133.157.25.22.04.023.113.058.219.109.094.054.187.09.281.109a.756.756 0 0 0 .266-.328.832.832 0 0 0 .078-.375zm.062 1.765a.668.668 0 0 0-.078-.343c-.062-.094-.172-.18-.328-.266a1.214 1.214 0 0 0-.219-.094l-.296-.125a.886.886 0 0 0-.313.313 1.036 1.036 0 0 0-.094.437c0 .22.063.399.188.532a.626.626 0 0 0 .484.218.66.66 0 0 0 .484-.187c.114-.113.172-.274.172-.484zM1.328.079A1.462 1.462 0 0 1 .844 0a.916.916 0 0 1-.36-.219.844.844 0 0 1-.234-.344.992.992 0 0 1-.078-.406c0-.195.05-.375.156-.531.102-.156.254-.285.453-.39v-.016a1.01 1.01 0 0 1-.39-.328C.305-2.348.266-2.5.266-2.688a.85.85 0 0 1 .296-.656c.196-.176.454-.265.766-.265.32 0 .578.086.766.25a.813.813 0 0 1 .297.64.845.845 0 0 1-.141.469c-.094.156-.23.281-.406.375a1.4 1.4 0 0 1 .468.36.804.804 0 0 1 .172.53c0 .305-.109.56-.328.766-.23.2-.508.297-.828.297zm0 0"/>
    </symbol>
    <symbol id="NE556-CD4069-Synth-Toy-1_svg__as" overflow="visible">
      <path d="M1.969-2.078a2.49 2.49 0 0 0-.063-.594.828.828 0 0 0-.187-.344.618.618 0 0 0-.203-.156.598.598 0 0 0-.235-.047.584.584 0 0 0-.468.203c-.118.149-.172.352-.172.61 0 .156.02.281.062.375.031.094.086.18.172.25a.37.37 0 0 0 .219.093.74.74 0 0 0 .234.032c.102 0 .211-.02.328-.063.114-.031.219-.078.313-.14v-.219zM.156-2.391c0-.175.032-.343.094-.5.063-.144.14-.27.234-.375.102-.101.227-.187.375-.25a.979.979 0 0 1 .422-.093c.164 0 .313.027.438.078a1.173 1.173 0 0 1 .625.75c.07.219.11.484.11.797 0 .293-.032.574-.095.843a1.914 1.914 0 0 1-.296.641 1.34 1.34 0 0 1-.485.422 1.47 1.47 0 0 1-.719.14H.672A1.414 1.414 0 0 1 .469.017v-.454h.015c.04.024.102.043.188.063a.971.971 0 0 0 .265.031c.301 0 .54-.097.72-.297.175-.207.28-.5.312-.875a2.15 2.15 0 0 1-.36.188.887.887 0 0 1-.375.047 1.64 1.64 0 0 1-.359-.032.831.831 0 0 1-.328-.171.804.804 0 0 1-.297-.36 1.457 1.457 0 0 1-.094-.547zm0 0"/>
    </symbol>
    <symbol id="NE556-CD4069-Synth-Toy-1_svg__at" overflow="visible">
      <path d="M2.453-1.766c0 .637-.09 1.102-.265 1.391C2-.07 1.71.078 1.328.078.941.078.656-.07.468-.375c-.187-.3-.277-.766-.265-1.39 0-.633.086-1.098.266-1.391.187-.301.472-.453.86-.453.382 0 .671.156.859.468.175.305.265.762.265 1.375zm-.61 1.079c.052-.114.087-.266.11-.454a13.673 13.673 0 0 0 0-1.265 1.66 1.66 0 0 0-.11-.438.713.713 0 0 0-.187-.281.544.544 0 0 0-.328-.094.528.528 0 0 0-.328.094.79.79 0 0 0-.203.281 2.142 2.142 0 0 0-.094.453 5.142 5.142 0 0 0-.031.625c0 .25.008.461.031.625.008.168.04.313.094.438A.51.51 0 0 0 1-.422a.47.47 0 0 0 .328.11.578.578 0 0 0 .328-.094.577.577 0 0 0 .188-.281zm0 0"/>
    </symbol>
    <symbol id="NE556-CD4069-Synth-Toy-1_svg__ai" overflow="visible"/>
    <symbol id="NE556-CD4069-Synth-Toy-1_svg__aj" overflow="visible"/>
    <symbol id="NE556-CD4069-Synth-Toy-1_svg__ak" overflow="visible"/>
    <symbol id="NE556-CD4069-Synth-Toy-1_svg__al" overflow="visible"/>
    <symbol id="NE556-CD4069-Synth-Toy-1_svg__am" overflow="visible"/>
    <symbol id="NE556-CD4069-Synth-Toy-1_svg__an" overflow="visible"/>
    <symbol id="NE556-CD4069-Synth-Toy-1_svg__ao" overflow="visible"/>
    <symbol id="NE556-CD4069-Synth-Toy-1_svg__ap" overflow="visible"/>
  </defs>
  <use x="352.6" y="310.563" fill="#505050" xlink:href="#NE556-CD4069-Synth-Toy-1_svg__a"/>
  <use x="352.6" y="333.597" fill="#505050" xlink:href="#NE556-CD4069-Synth-Toy-1_svg__b"/>
  <use x="378.273" y="356.39" fill="#505050" xlink:href="#NE556-CD4069-Synth-Toy-1_svg__c"/>
  <use x="355.24" y="356.39" fill="#505050" xlink:href="#NE556-CD4069-Synth-Toy-1_svg__d"/>
  <use x="343.723" y="356.39" fill="#505050" xlink:href="#NE556-CD4069-Synth-Toy-1_svg__c"/>
  <use x="320.691" y="356.39" fill="#505050" xlink:href="#NE556-CD4069-Synth-Toy-1_svg__d"/>
  <use x="248.952" y="212.67" fill="#505050" xlink:href="#NE556-CD4069-Synth-Toy-1_svg__a"/>
  <use x="248.952" y="189.637" fill="#505050" xlink:href="#NE556-CD4069-Synth-Toy-1_svg__b"/>
  <use x="325.009" y="228.793" fill="#505050" xlink:href="#NE556-CD4069-Synth-Toy-1_svg__e"/>
  <use x="326.269" y="228.793" fill="#505050" xlink:href="#NE556-CD4069-Synth-Toy-1_svg__f"/>
  <use x="328.249" y="228.793" fill="#505050" xlink:href="#NE556-CD4069-Synth-Toy-1_svg__g"/>
  <use x="329.629" y="228.793" fill="#505050" xlink:href="#NE556-CD4069-Synth-Toy-1_svg__g"/>
  <use x="331.009" y="228.793" fill="#505050" xlink:href="#NE556-CD4069-Synth-Toy-1_svg__h"/>
  <use x="332.389" y="228.793" fill="#505050" xlink:href="#NE556-CD4069-Synth-Toy-1_svg__i"/>
  <use x="431.536" y="220.156" fill="#505050" xlink:href="#NE556-CD4069-Synth-Toy-1_svg__e"/>
  <use x="432.796" y="220.156" fill="#505050" xlink:href="#NE556-CD4069-Synth-Toy-1_svg__f"/>
  <use x="434.776" y="220.156" fill="#505050" xlink:href="#NE556-CD4069-Synth-Toy-1_svg__g"/>
  <use x="436.156" y="220.156" fill="#505050" xlink:href="#NE556-CD4069-Synth-Toy-1_svg__g"/>
  <use x="437.536" y="220.156" fill="#505050" xlink:href="#NE556-CD4069-Synth-Toy-1_svg__h"/>
  <use x="438.916" y="220.156" fill="#505050" xlink:href="#NE556-CD4069-Synth-Toy-1_svg__i"/>
  <use x="566.854" y="432.929" fill="#505050" xlink:href="#NE556-CD4069-Synth-Toy-1_svg__j"/>
  <use x="569.974" y="432.929" fill="#505050" xlink:href="#NE556-CD4069-Synth-Toy-1_svg__k"/>
  <use x="573.094" y="432.929" fill="#505050" xlink:href="#NE556-CD4069-Synth-Toy-1_svg__l"/>
  <use x="576.214" y="432.929" fill="#505050" xlink:href="#NE556-CD4069-Synth-Toy-1_svg__m"/>
  <use x="579.334" y="432.929" fill="#505050" xlink:href="#NE556-CD4069-Synth-Toy-1_svg__n"/>
  <use x="417.14" y="435.808" fill="#505050" xlink:href="#NE556-CD4069-Synth-Toy-1_svg__j"/>
  <use x="420.26" y="435.808" fill="#505050" xlink:href="#NE556-CD4069-Synth-Toy-1_svg__k"/>
  <use x="423.38" y="435.808" fill="#505050" xlink:href="#NE556-CD4069-Synth-Toy-1_svg__l"/>
  <use x="426.5" y="435.808" fill="#505050" xlink:href="#NE556-CD4069-Synth-Toy-1_svg__m"/>
  <use x="429.62" y="435.808" fill="#505050" xlink:href="#NE556-CD4069-Synth-Toy-1_svg__n"/>
  <use x="333.646" y="294.728" fill="#505050" xlink:href="#NE556-CD4069-Synth-Toy-1_svg__o"/>
  <use x="335.866" y="294.728" fill="#505050" xlink:href="#NE556-CD4069-Synth-Toy-1_svg__p"/>
  <use x="338.086" y="294.728" fill="#505050" xlink:href="#NE556-CD4069-Synth-Toy-1_svg__p"/>
  <use x="340.306" y="294.728" fill="#505050" xlink:href="#NE556-CD4069-Synth-Toy-1_svg__q"/>
  <use x="342.526" y="294.728" fill="#505050" xlink:href="#NE556-CD4069-Synth-Toy-1_svg__r"/>
  <use x="368.195" y="294.728" fill="#505050" xlink:href="#NE556-CD4069-Synth-Toy-1_svg__o"/>
  <use x="370.415" y="294.728" fill="#505050" xlink:href="#NE556-CD4069-Synth-Toy-1_svg__p"/>
  <use x="372.635" y="294.728" fill="#505050" xlink:href="#NE556-CD4069-Synth-Toy-1_svg__p"/>
  <use x="374.855" y="294.728" fill="#505050" xlink:href="#NE556-CD4069-Synth-Toy-1_svg__q"/>
  <use x="377.075" y="294.728" fill="#505050" xlink:href="#NE556-CD4069-Synth-Toy-1_svg__r"/>
  <use x="335.863" y="326.399" fill="#505050" xlink:href="#NE556-CD4069-Synth-Toy-1_svg__s"/>
  <use x="338.083" y="326.399" fill="#505050" xlink:href="#NE556-CD4069-Synth-Toy-1_svg__p"/>
  <use x="340.303" y="326.399" fill="#505050" xlink:href="#NE556-CD4069-Synth-Toy-1_svg__t"/>
  <use x="344.021" y="350.585" fill="#505050" xlink:href="#NE556-CD4069-Synth-Toy-1_svg__u"/>
  <use x="346.721" y="350.585" fill="#505050" xlink:href="#NE556-CD4069-Synth-Toy-1_svg__v"/>
  <use x="349.421" y="350.585" fill="#505050" xlink:href="#NE556-CD4069-Synth-Toy-1_svg__w"/>
  <use x="362.439" y="375.347" fill="#505050" xlink:href="#NE556-CD4069-Synth-Toy-1_svg__x"/>
  <use x="362.439" y="373.127" fill="#505050" xlink:href="#NE556-CD4069-Synth-Toy-1_svg__y"/>
  <use x="362.439" y="370.907" fill="#505050" xlink:href="#NE556-CD4069-Synth-Toy-1_svg__y"/>
  <use x="362.439" y="368.687" fill="#505050" xlink:href="#NE556-CD4069-Synth-Toy-1_svg__z"/>
  <use x="327.89" y="375.347" fill="#505050" xlink:href="#NE556-CD4069-Synth-Toy-1_svg__x"/>
  <use x="327.89" y="373.127" fill="#505050" xlink:href="#NE556-CD4069-Synth-Toy-1_svg__y"/>
  <use x="327.89" y="370.907" fill="#505050" xlink:href="#NE556-CD4069-Synth-Toy-1_svg__y"/>
  <use x="327.89" y="368.687" fill="#505050" xlink:href="#NE556-CD4069-Synth-Toy-1_svg__z"/>
  <use x="334.183" y="389.741" fill="#505050" xlink:href="#NE556-CD4069-Synth-Toy-1_svg__s"/>
  <use x="336.403" y="389.741" fill="#505050" xlink:href="#NE556-CD4069-Synth-Toy-1_svg__s"/>
  <use x="338.623" y="389.741" fill="#505050" xlink:href="#NE556-CD4069-Synth-Toy-1_svg__p"/>
  <use x="340.843" y="389.741" fill="#505050" xlink:href="#NE556-CD4069-Synth-Toy-1_svg__q"/>
  <use x="343.063" y="389.741" fill="#505050" xlink:href="#NE556-CD4069-Synth-Toy-1_svg__r"/>
  <use x="344.022" y="408.168" fill="#505050" xlink:href="#NE556-CD4069-Synth-Toy-1_svg__u"/>
  <use x="346.722" y="408.168" fill="#505050" xlink:href="#NE556-CD4069-Synth-Toy-1_svg__v"/>
  <use x="349.422" y="408.168" fill="#505050" xlink:href="#NE556-CD4069-Synth-Toy-1_svg__w"/>
  <use x="353.8" y="435.808" fill="#505050" xlink:href="#NE556-CD4069-Synth-Toy-1_svg__j"/>
  <use x="356.92" y="435.808" fill="#505050" xlink:href="#NE556-CD4069-Synth-Toy-1_svg__k"/>
  <use x="360.04" y="435.808" fill="#505050" xlink:href="#NE556-CD4069-Synth-Toy-1_svg__l"/>
  <use x="363.16" y="435.808" fill="#505050" xlink:href="#NE556-CD4069-Synth-Toy-1_svg__m"/>
  <use x="366.28" y="435.808" fill="#505050" xlink:href="#NE556-CD4069-Synth-Toy-1_svg__n"/>
  <use x="448.811" y="421.411" fill="#505050" xlink:href="#NE556-CD4069-Synth-Toy-1_svg__A"/>
  <use x="451.031" y="421.411" fill="#505050" xlink:href="#NE556-CD4069-Synth-Toy-1_svg__B"/>
  <use x="453.251" y="421.411" fill="#505050" xlink:href="#NE556-CD4069-Synth-Toy-1_svg__p"/>
  <use x="455.471" y="421.411" fill="#505050" xlink:href="#NE556-CD4069-Synth-Toy-1_svg__q"/>
  <use x="457.691" y="421.411" fill="#505050" xlink:href="#NE556-CD4069-Synth-Toy-1_svg__r"/>
  <use x="458.165" y="425.731" fill="#505050" xlink:href="#NE556-CD4069-Synth-Toy-1_svg__C"/>
  <use x="460.685" y="425.731" fill="#505050" xlink:href="#NE556-CD4069-Synth-Toy-1_svg__D"/>
  <use x="462.125" y="425.731" fill="#505050" xlink:href="#NE556-CD4069-Synth-Toy-1_svg__E"/>
  <use x="464.825" y="425.731" fill="#505050" xlink:href="#NE556-CD4069-Synth-Toy-1_svg__p"/>
  <use x="467.045" y="425.731" fill="#505050" xlink:href="#NE556-CD4069-Synth-Toy-1_svg__s"/>
  <use x="469.265" y="425.731" fill="#505050" xlink:href="#NE556-CD4069-Synth-Toy-1_svg__p"/>
  <use x="471.485" y="425.731" fill="#505050" xlink:href="#NE556-CD4069-Synth-Toy-1_svg__A"/>
  <use x="473.705" y="425.731" fill="#505050" xlink:href="#NE556-CD4069-Synth-Toy-1_svg__F"/>
  <use x="475.265" y="425.731" fill="#505050" xlink:href="#NE556-CD4069-Synth-Toy-1_svg__o"/>
  <use x="477.485" y="425.731" fill="#505050" xlink:href="#NE556-CD4069-Synth-Toy-1_svg__p"/>
  <use x="344.442" y="152.207" fill="#505050" xlink:href="#NE556-CD4069-Synth-Toy-1_svg__G"/>
  <use x="346.842" y="152.207" fill="#505050" xlink:href="#NE556-CD4069-Synth-Toy-1_svg__H"/>
  <use x="349.242" y="152.207" fill="#505050" xlink:href="#NE556-CD4069-Synth-Toy-1_svg__H"/>
  <use x="344.022" y="252.692" fill="#505050" xlink:href="#NE556-CD4069-Synth-Toy-1_svg__u"/>
  <use x="346.722" y="252.692" fill="#505050" xlink:href="#NE556-CD4069-Synth-Toy-1_svg__v"/>
  <use x="349.422" y="252.692" fill="#505050" xlink:href="#NE556-CD4069-Synth-Toy-1_svg__w"/>
  <use x="351.457" y="240.023" fill="#505050" xlink:href="#NE556-CD4069-Synth-Toy-1_svg__o"/>
  <use x="353.677" y="240.023" fill="#505050" xlink:href="#NE556-CD4069-Synth-Toy-1_svg__p"/>
  <use x="355.897" y="240.023" fill="#505050" xlink:href="#NE556-CD4069-Synth-Toy-1_svg__p"/>
  <use x="358.117" y="240.023" fill="#505050" xlink:href="#NE556-CD4069-Synth-Toy-1_svg__q"/>
  <use x="360.337" y="240.023" fill="#505050" xlink:href="#NE556-CD4069-Synth-Toy-1_svg__r"/>
  <use x="304.134" y="137.81" fill="#505050" xlink:href="#NE556-CD4069-Synth-Toy-1_svg__G"/>
  <use x="306.534" y="137.81" fill="#505050" xlink:href="#NE556-CD4069-Synth-Toy-1_svg__H"/>
  <use x="308.934" y="137.81" fill="#505050" xlink:href="#NE556-CD4069-Synth-Toy-1_svg__H"/>
  <use x="261.668" y="196.834" fill="#505050" xlink:href="#NE556-CD4069-Synth-Toy-1_svg__s"/>
  <use x="263.888" y="196.834" fill="#505050" xlink:href="#NE556-CD4069-Synth-Toy-1_svg__p"/>
  <use x="266.108" y="196.834" fill="#505050" xlink:href="#NE556-CD4069-Synth-Toy-1_svg__t"/>
  <use x="252.31" y="172.361" fill="#505050" xlink:href="#NE556-CD4069-Synth-Toy-1_svg__G"/>
  <use x="254.71" y="172.361" fill="#505050" xlink:href="#NE556-CD4069-Synth-Toy-1_svg__H"/>
  <use x="257.11" y="172.361" fill="#505050" xlink:href="#NE556-CD4069-Synth-Toy-1_svg__H"/>
  <use x="251.89" y="238.295" fill="#505050" xlink:href="#NE556-CD4069-Synth-Toy-1_svg__u"/>
  <use x="254.59" y="238.295" fill="#505050" xlink:href="#NE556-CD4069-Synth-Toy-1_svg__v"/>
  <use x="257.29" y="238.295" fill="#505050" xlink:href="#NE556-CD4069-Synth-Toy-1_svg__w"/>
  <use x="267.304" y="219.868" fill="#505050" xlink:href="#NE556-CD4069-Synth-Toy-1_svg__o"/>
  <use x="269.524" y="219.868" fill="#505050" xlink:href="#NE556-CD4069-Synth-Toy-1_svg__p"/>
  <use x="271.744" y="219.868" fill="#505050" xlink:href="#NE556-CD4069-Synth-Toy-1_svg__q"/>
  <use x="273.964" y="219.868" fill="#505050" xlink:href="#NE556-CD4069-Synth-Toy-1_svg__r"/>
  <use x="274.923" y="238.295" fill="#505050" xlink:href="#NE556-CD4069-Synth-Toy-1_svg__u"/>
  <use x="277.623" y="238.295" fill="#505050" xlink:href="#NE556-CD4069-Synth-Toy-1_svg__v"/>
  <use x="280.323" y="238.295" fill="#505050" xlink:href="#NE556-CD4069-Synth-Toy-1_svg__w"/>
  <use x="407.064" y="223.95" fill="#505050" xlink:href="#NE556-CD4069-Synth-Toy-1_svg__I"/>
  <use x="407.064" y="221.43" fill="#505050" xlink:href="#NE556-CD4069-Synth-Toy-1_svg__J"/>
  <use x="407.064" y="219.99" fill="#505050" xlink:href="#NE556-CD4069-Synth-Toy-1_svg__K"/>
  <use x="407.064" y="217.29" fill="#505050" xlink:href="#NE556-CD4069-Synth-Toy-1_svg__y"/>
  <use x="407.064" y="215.07" fill="#505050" xlink:href="#NE556-CD4069-Synth-Toy-1_svg__L"/>
  <use x="407.064" y="212.85" fill="#505050" xlink:href="#NE556-CD4069-Synth-Toy-1_svg__y"/>
  <use x="407.064" y="210.63" fill="#505050" xlink:href="#NE556-CD4069-Synth-Toy-1_svg__M"/>
  <use x="407.064" y="208.41" fill="#505050" xlink:href="#NE556-CD4069-Synth-Toy-1_svg__N"/>
  <use x="407.064" y="206.85" fill="#505050" xlink:href="#NE556-CD4069-Synth-Toy-1_svg__x"/>
  <use x="407.064" y="204.63" fill="#505050" xlink:href="#NE556-CD4069-Synth-Toy-1_svg__y"/>
  <use x="407.064" y="202.41" fill="#505050" xlink:href="#NE556-CD4069-Synth-Toy-1_svg__J"/>
  <use x="407.064" y="200.97" fill="#505050" xlink:href="#NE556-CD4069-Synth-Toy-1_svg__O"/>
  <use x="479.341" y="459.994" fill="#505050" xlink:href="#NE556-CD4069-Synth-Toy-1_svg__u"/>
  <use x="482.041" y="459.994" fill="#505050" xlink:href="#NE556-CD4069-Synth-Toy-1_svg__v"/>
  <use x="484.741" y="459.994" fill="#505050" xlink:href="#NE556-CD4069-Synth-Toy-1_svg__w"/>
  <use x="517.91" y="381.103" fill="#505050" xlink:href="#NE556-CD4069-Synth-Toy-1_svg__j"/>
  <use x="521.03" y="381.103" fill="#505050" xlink:href="#NE556-CD4069-Synth-Toy-1_svg__k"/>
  <use x="524.15" y="381.103" fill="#505050" xlink:href="#NE556-CD4069-Synth-Toy-1_svg__l"/>
  <use x="527.27" y="381.103" fill="#505050" xlink:href="#NE556-CD4069-Synth-Toy-1_svg__m"/>
  <use x="530.39" y="381.103" fill="#505050" xlink:href="#NE556-CD4069-Synth-Toy-1_svg__n"/>
  <use x="325.01" y="174.953" fill="#505050" xlink:href="#NE556-CD4069-Synth-Toy-1_svg__P"/>
  <use x="326.21" y="174.953" fill="#505050" xlink:href="#NE556-CD4069-Synth-Toy-1_svg__Q"/>
  <use x="328.13" y="174.953" fill="#505050" xlink:href="#NE556-CD4069-Synth-Toy-1_svg__R"/>
  <use x="329.87" y="174.953" fill="#505050" xlink:href="#NE556-CD4069-Synth-Toy-1_svg__S"/>
  <use x="330.308" y="212.958" fill="#505050" xlink:href="#NE556-CD4069-Synth-Toy-1_svg__T"/>
  <use x="333.128" y="212.958" fill="#505050" xlink:href="#NE556-CD4069-Synth-Toy-1_svg__U"/>
  <use x="321.564" y="210.425" fill="#505050" xlink:href="#NE556-CD4069-Synth-Toy-1_svg__V"/>
  <use x="362.358" y="189.95" fill="#505050" xlink:href="#NE556-CD4069-Synth-Toy-1_svg__W"/>
  <use x="371.882" y="187.391" fill="#505050" xlink:href="#NE556-CD4069-Synth-Toy-1_svg__X"/>
  <use x="330.308" y="189.925" fill="#505050" xlink:href="#NE556-CD4069-Synth-Toy-1_svg__U"/>
  <use x="317.073" y="187.391" fill="#505050" xlink:href="#NE556-CD4069-Synth-Toy-1_svg__Y"/>
  <use x="330.308" y="201.442" fill="#505050" xlink:href="#NE556-CD4069-Synth-Toy-1_svg__Z"/>
  <use x="333.248" y="201.442" fill="#505050" xlink:href="#NE556-CD4069-Synth-Toy-1_svg__aa"/>
  <use x="321.564" y="198.908" fill="#505050" xlink:href="#NE556-CD4069-Synth-Toy-1_svg__ab"/>
  <use x="356.658" y="212.984" fill="#505050" xlink:href="#NE556-CD4069-Synth-Toy-1_svg__T"/>
  <use x="359.478" y="212.984" fill="#505050" xlink:href="#NE556-CD4069-Synth-Toy-1_svg__ac"/>
  <use x="362.778" y="212.984" fill="#505050" xlink:href="#NE556-CD4069-Synth-Toy-1_svg__U"/>
  <use x="371.882" y="210.425" fill="#505050" xlink:href="#NE556-CD4069-Synth-Toy-1_svg__ad"/>
  <use x="357.978" y="201.467" fill="#505050" xlink:href="#NE556-CD4069-Synth-Toy-1_svg__ae"/>
  <use x="361.278" y="201.467" fill="#505050" xlink:href="#NE556-CD4069-Synth-Toy-1_svg__af"/>
  <use x="363.078" y="201.467" fill="#505050" xlink:href="#NE556-CD4069-Synth-Toy-1_svg__ag"/>
  <use x="371.882" y="198.908" fill="#505050" xlink:href="#NE556-CD4069-Synth-Toy-1_svg__ah"/>
  <use x="349.795" y="188.398" fill="#505050" xlink:href="#NE556-CD4069-Synth-Toy-1_svg__ai"/>
  <use x="349.795" y="185.518" fill="#505050" xlink:href="#NE556-CD4069-Synth-Toy-1_svg__aj"/>
  <use x="347.236" y="175.874" fill="#505050" xlink:href="#NE556-CD4069-Synth-Toy-1_svg__ak"/>
  <use x="347.236" y="173.234" fill="#505050" xlink:href="#NE556-CD4069-Synth-Toy-1_svg__al"/>
  <use x="349.77" y="217.45" fill="#505050" xlink:href="#NE556-CD4069-Synth-Toy-1_svg__am"/>
  <use x="349.77" y="214.209" fill="#505050" xlink:href="#NE556-CD4069-Synth-Toy-1_svg__an"/>
  <use x="349.77" y="210.97" fill="#505050" xlink:href="#NE556-CD4069-Synth-Toy-1_svg__ao"/>
  <use x="347.236" y="226.193" fill="#505050" xlink:href="#NE556-CD4069-Synth-Toy-1_svg__ap"/>
  <use x="431.536" y="177.832" fill="#505050" xlink:href="#NE556-CD4069-Synth-Toy-1_svg__P"/>
  <use x="432.736" y="177.832" fill="#505050" xlink:href="#NE556-CD4069-Synth-Toy-1_svg__Q"/>
  <use x="434.656" y="177.832" fill="#505050" xlink:href="#NE556-CD4069-Synth-Toy-1_svg__R"/>
  <use x="436.396" y="177.832" fill="#505050" xlink:href="#NE556-CD4069-Synth-Toy-1_svg__aq"/>
  <use x="436.834" y="187.046" fill="#505050" xlink:href="#NE556-CD4069-Synth-Toy-1_svg__T"/>
  <use x="439.654" y="187.046" fill="#505050" xlink:href="#NE556-CD4069-Synth-Toy-1_svg__U"/>
  <use x="428.09" y="184.512" fill="#505050" xlink:href="#NE556-CD4069-Synth-Toy-1_svg__ar"/>
  <use x="457.368" y="187.071" fill="#505050" xlink:href="#NE556-CD4069-Synth-Toy-1_svg__W"/>
  <use x="466.891" y="184.512" fill="#505050" xlink:href="#NE556-CD4069-Synth-Toy-1_svg__as"/>
  <use x="436.834" y="198.562" fill="#505050" xlink:href="#NE556-CD4069-Synth-Toy-1_svg__U"/>
  <use x="420.959" y="196.029" fill="#505050" xlink:href="#NE556-CD4069-Synth-Toy-1_svg__ah"/>
  <use x="423.598" y="196.029" fill="#505050" xlink:href="#NE556-CD4069-Synth-Toy-1_svg__at"/>
  <use x="436.834" y="210.079" fill="#505050" xlink:href="#NE556-CD4069-Synth-Toy-1_svg__Z"/>
  <use x="439.774" y="210.079" fill="#505050" xlink:href="#NE556-CD4069-Synth-Toy-1_svg__aa"/>
  <use x="425.45" y="207.545" fill="#505050" xlink:href="#NE556-CD4069-Synth-Toy-1_svg__ah"/>
  <use x="428.09" y="207.545" fill="#505050" xlink:href="#NE556-CD4069-Synth-Toy-1_svg__ah"/>
  <use x="451.668" y="210.104" fill="#505050" xlink:href="#NE556-CD4069-Synth-Toy-1_svg__T"/>
  <use x="454.488" y="210.104" fill="#505050" xlink:href="#NE556-CD4069-Synth-Toy-1_svg__ac"/>
  <use x="457.788" y="210.104" fill="#505050" xlink:href="#NE556-CD4069-Synth-Toy-1_svg__U"/>
  <use x="466.891" y="207.545" fill="#505050" xlink:href="#NE556-CD4069-Synth-Toy-1_svg__ah"/>
  <use x="469.532" y="207.545" fill="#505050" xlink:href="#NE556-CD4069-Synth-Toy-1_svg__ad"/>
  <use x="452.988" y="198.588" fill="#505050" xlink:href="#NE556-CD4069-Synth-Toy-1_svg__ae"/>
  <use x="456.288" y="198.588" fill="#505050" xlink:href="#NE556-CD4069-Synth-Toy-1_svg__af"/>
  <use x="458.088" y="198.588" fill="#505050" xlink:href="#NE556-CD4069-Synth-Toy-1_svg__ag"/>
  <use x="466.891" y="196.029" fill="#505050" xlink:href="#NE556-CD4069-Synth-Toy-1_svg__ah"/>
  <use x="469.532" y="196.029" fill="#505050" xlink:href="#NE556-CD4069-Synth-Toy-1_svg__ab"/>
  <use x="566.854" y="414.214" fill="#505050" xlink:href="#NE556-CD4069-Synth-Toy-1_svg__au"/>
  <use x="568.954" y="414.214" fill="#505050" xlink:href="#NE556-CD4069-Synth-Toy-1_svg__av"/>
  <use x="572.374" y="414.214" fill="#505050" xlink:href="#NE556-CD4069-Synth-Toy-1_svg__aw"/>
  <use x="575.495" y="414.214" fill="#505050" xlink:href="#NE556-CD4069-Synth-Toy-1_svg__ax"/>
  <use x="541.642" y="420.606" fill="#505050" xlink:href="#NE556-CD4069-Synth-Toy-1_svg__ah"/>
  <use x="577.91" y="420.606" fill="#505050" xlink:href="#NE556-CD4069-Synth-Toy-1_svg__ad"/>
  <use x="417.14" y="417.093" fill="#505050" xlink:href="#NE556-CD4069-Synth-Toy-1_svg__au"/>
  <use x="419.24" y="417.093" fill="#505050" xlink:href="#NE556-CD4069-Synth-Toy-1_svg__av"/>
  <use x="422.66" y="417.093" fill="#505050" xlink:href="#NE556-CD4069-Synth-Toy-1_svg__aw"/>
  <use x="425.78" y="417.093" fill="#505050" xlink:href="#NE556-CD4069-Synth-Toy-1_svg__ay"/>
  <use x="391.928" y="423.485" fill="#505050" xlink:href="#NE556-CD4069-Synth-Toy-1_svg__as"/>
  <use x="428.196" y="423.485" fill="#505050" xlink:href="#NE556-CD4069-Synth-Toy-1_svg__ar"/>
  <use x="323.268" y="294.728" fill="#505050" xlink:href="#NE556-CD4069-Synth-Toy-1_svg__H"/>
  <use x="325.668" y="294.728" fill="#505050" xlink:href="#NE556-CD4069-Synth-Toy-1_svg__o"/>
  <use x="357.817" y="294.728" fill="#505050" xlink:href="#NE556-CD4069-Synth-Toy-1_svg__H"/>
  <use x="360.217" y="294.728" fill="#505050" xlink:href="#NE556-CD4069-Synth-Toy-1_svg__s"/>
  <use x="332.623" y="317.762" fill="#505050" xlink:href="#NE556-CD4069-Synth-Toy-1_svg__w"/>
  <use x="335.323" y="317.762" fill="#505050" xlink:href="#NE556-CD4069-Synth-Toy-1_svg__H"/>
  <use x="337.723" y="317.762" fill="#505050" xlink:href="#NE556-CD4069-Synth-Toy-1_svg__az"/>
  <use x="340.063" y="317.762" fill="#505050" xlink:href="#NE556-CD4069-Synth-Toy-1_svg__o"/>
  <use x="371.075" y="379.607" fill="#505050" xlink:href="#NE556-CD4069-Synth-Toy-1_svg__I"/>
  <use x="371.075" y="377.087" fill="#505050" xlink:href="#NE556-CD4069-Synth-Toy-1_svg__aA"/>
  <use x="371.075" y="374.807" fill="#505050" xlink:href="#NE556-CD4069-Synth-Toy-1_svg__aB"/>
  <use x="371.075" y="372.587" fill="#505050" xlink:href="#NE556-CD4069-Synth-Toy-1_svg__x"/>
  <use x="371.075" y="370.367" fill="#505050" xlink:href="#NE556-CD4069-Synth-Toy-1_svg__J"/>
  <use x="371.075" y="368.927" fill="#505050" xlink:href="#NE556-CD4069-Synth-Toy-1_svg__x"/>
  <use x="336.526" y="379.607" fill="#505050" xlink:href="#NE556-CD4069-Synth-Toy-1_svg__I"/>
  <use x="336.526" y="377.087" fill="#505050" xlink:href="#NE556-CD4069-Synth-Toy-1_svg__aA"/>
  <use x="336.526" y="374.807" fill="#505050" xlink:href="#NE556-CD4069-Synth-Toy-1_svg__aB"/>
  <use x="336.526" y="372.587" fill="#505050" xlink:href="#NE556-CD4069-Synth-Toy-1_svg__x"/>
  <use x="336.526" y="370.367" fill="#505050" xlink:href="#NE556-CD4069-Synth-Toy-1_svg__J"/>
  <use x="336.526" y="368.927" fill="#505050" xlink:href="#NE556-CD4069-Synth-Toy-1_svg__L"/>
  <use x="340.543" y="381.103" fill="#505050" xlink:href="#NE556-CD4069-Synth-Toy-1_svg__H"/>
  <use x="342.943" y="381.103" fill="#505050" xlink:href="#NE556-CD4069-Synth-Toy-1_svg__aC"/>
  <use x="353.8" y="417.093" fill="#505050" xlink:href="#NE556-CD4069-Synth-Toy-1_svg__au"/>
  <use x="355.9" y="417.093" fill="#505050" xlink:href="#NE556-CD4069-Synth-Toy-1_svg__av"/>
  <use x="359.32" y="417.093" fill="#505050" xlink:href="#NE556-CD4069-Synth-Toy-1_svg__aw"/>
  <use x="362.441" y="417.093" fill="#505050" xlink:href="#NE556-CD4069-Synth-Toy-1_svg__av"/>
  <use x="328.588" y="423.485" fill="#505050" xlink:href="#NE556-CD4069-Synth-Toy-1_svg__X"/>
  <use x="364.856" y="423.485" fill="#505050" xlink:href="#NE556-CD4069-Synth-Toy-1_svg__V"/>
  <use x="408.503" y="425.731" fill="#505050" xlink:href="#NE556-CD4069-Synth-Toy-1_svg__au"/>
  <use x="410.603" y="425.731" fill="#505050" xlink:href="#NE556-CD4069-Synth-Toy-1_svg__av"/>
  <use x="414.023" y="425.731" fill="#505050" xlink:href="#NE556-CD4069-Synth-Toy-1_svg__aw"/>
  <use x="417.144" y="425.731" fill="#505050" xlink:href="#NE556-CD4069-Synth-Toy-1_svg__aD"/>
  <use x="415.701" y="418.533" fill="#505050" xlink:href="#NE556-CD4069-Synth-Toy-1_svg__O"/>
  <use x="415.701" y="416.133" fill="#505050" xlink:href="#NE556-CD4069-Synth-Toy-1_svg__aE"/>
  <use x="415.701" y="413.433" fill="#505050" xlink:href="#NE556-CD4069-Synth-Toy-1_svg__aE"/>
  <use x="415.701" y="437.536" fill="#505050" xlink:href="#NE556-CD4069-Synth-Toy-1_svg__O"/>
  <use x="415.701" y="435.136" fill="#505050" xlink:href="#NE556-CD4069-Synth-Toy-1_svg__aB"/>
  <use x="415.701" y="432.915" fill="#505050" xlink:href="#NE556-CD4069-Synth-Toy-1_svg__aB"/>
  <use x="410.576" y="437.987" fill="#505050" xlink:href="#NE556-CD4069-Synth-Toy-1_svg__ap"/>
  <use x="410.576" y="413.235" fill="#505050" xlink:href="#NE556-CD4069-Synth-Toy-1_svg__ak"/>
  <use x="410.576" y="410.595" fill="#505050" xlink:href="#NE556-CD4069-Synth-Toy-1_svg__al"/>
  <use x="407.783" y="394.059" fill="#505050" xlink:href="#NE556-CD4069-Synth-Toy-1_svg__G"/>
  <use x="410.183" y="394.059" fill="#505050" xlink:href="#NE556-CD4069-Synth-Toy-1_svg__H"/>
  <use x="412.583" y="394.059" fill="#505050" xlink:href="#NE556-CD4069-Synth-Toy-1_svg__H"/>
  <use x="407.363" y="459.993" fill="#505050" xlink:href="#NE556-CD4069-Synth-Toy-1_svg__u"/>
  <use x="410.063" y="459.993" fill="#505050" xlink:href="#NE556-CD4069-Synth-Toy-1_svg__v"/>
  <use x="412.763" y="459.993" fill="#505050" xlink:href="#NE556-CD4069-Synth-Toy-1_svg__w"/>
  <use x="438.433" y="421.411" fill="#505050" xlink:href="#NE556-CD4069-Synth-Toy-1_svg__H"/>
  <use x="440.833" y="421.411" fill="#505050" xlink:href="#NE556-CD4069-Synth-Toy-1_svg__A"/>
  <use x="466.625" y="420.893" fill="#505050" xlink:href="#NE556-CD4069-Synth-Toy-1_svg__C"/>
  <use x="469.145" y="420.893" fill="#505050" xlink:href="#NE556-CD4069-Synth-Toy-1_svg__s"/>
  <use x="368.196" y="240.023" fill="#505050" xlink:href="#NE556-CD4069-Synth-Toy-1_svg__H"/>
  <use x="370.596" y="240.023" fill="#505050" xlink:href="#NE556-CD4069-Synth-Toy-1_svg__aF"/>
  <use x="261.669" y="205.472" fill="#505050" xlink:href="#NE556-CD4069-Synth-Toy-1_svg__H"/>
  <use x="264.069" y="205.472" fill="#505050" xlink:href="#NE556-CD4069-Synth-Toy-1_svg__G"/>
  <use x="266.469" y="205.472" fill="#505050" xlink:href="#NE556-CD4069-Synth-Toy-1_svg__o"/>
  <use x="271.445" y="211.23" fill="#505050" xlink:href="#NE556-CD4069-Synth-Toy-1_svg__H"/>
  <use x="273.845" y="211.23" fill="#505050" xlink:href="#NE556-CD4069-Synth-Toy-1_svg__aG"/>
  <use x="402.227" y="213.57" fill="#505050" xlink:href="#NE556-CD4069-Synth-Toy-1_svg__I"/>
  <use x="402.227" y="211.05" fill="#505050" xlink:href="#NE556-CD4069-Synth-Toy-1_svg__aH"/>
  <use x="506.393" y="440.127" fill="#505050" xlink:href="#NE556-CD4069-Synth-Toy-1_svg__aI"/>
  <use x="509.213" y="440.127" fill="#505050" xlink:href="#NE556-CD4069-Synth-Toy-1_svg__aJ"/>
  <use x="511.853" y="440.127" fill="#505050" xlink:href="#NE556-CD4069-Synth-Toy-1_svg__aK"/>
  <use x="514.193" y="440.127" fill="#505050" xlink:href="#NE556-CD4069-Synth-Toy-1_svg__D"/>
  <use x="517.909" y="425.731" fill="#505050" xlink:href="#NE556-CD4069-Synth-Toy-1_svg__aI"/>
  <use x="520.729" y="425.731" fill="#505050" xlink:href="#NE556-CD4069-Synth-Toy-1_svg__aJ"/>
  <use x="523.37" y="425.731" fill="#505050" xlink:href="#NE556-CD4069-Synth-Toy-1_svg__aK"/>
  <use x="525.71" y="425.731" fill="#505050" xlink:href="#NE556-CD4069-Synth-Toy-1_svg__aL"/>
  <use x="517.909" y="362.388" fill="#505050" xlink:href="#NE556-CD4069-Synth-Toy-1_svg__au"/>
  <use x="520.009" y="362.388" fill="#505050" xlink:href="#NE556-CD4069-Synth-Toy-1_svg__av"/>
  <use x="523.429" y="362.388" fill="#505050" xlink:href="#NE556-CD4069-Synth-Toy-1_svg__aw"/>
  <use x="526.55" y="362.388" fill="#505050" xlink:href="#NE556-CD4069-Synth-Toy-1_svg__aM"/>
  <use x="492.697" y="368.78" fill="#505050" xlink:href="#NE556-CD4069-Synth-Toy-1_svg__ab"/>
  <use x="528.965" y="368.78" fill="#505050" xlink:href="#NE556-CD4069-Synth-Toy-1_svg__Y"/>
  <path fill="none" stroke="maroon" stroke-linecap="round" stroke-linejoin="round" stroke-miterlimit="10" stroke-width=".96" d="M325.02 222.719h46.082m0 0v-46.02m0 .001H325.02m0 0v46.019"/>
  <path fill="none" stroke="maroon" stroke-linecap="round" stroke-linejoin="round" stroke-miterlimit="10" stroke-width=".36" d="M319.262 211.262h5.758m51.84-23.043h-5.758m-46.142 0a2.224 2.224 0 0 1-2.222 2.222 2.22 2.22 0 1 1 2.223-2.223zm-5.698 0h1.258m-1.258 11.519h5.758m51.84 11.524h-5.758m5.758-11.524h-5.758m-23.043-28.797v5.758m0 51.781v-5.761"/>
  <path fill="none" stroke="maroon" stroke-linecap="round" stroke-linejoin="round" stroke-miterlimit="10" stroke-width=".96" d="M431.52 214.078h34.558m0 0v-34.5m0 0H431.52m0 0v34.5"/>
  <path fill="none" stroke="maroon" stroke-linecap="round" stroke-linejoin="round" stroke-miterlimit="10" stroke-width=".36" d="M425.762 185.34h5.758m40.32 0h-5.762m-34.558 11.52a2.22 2.22 0 1 1-4.441 0 2.22 2.22 0 0 1 4.44 0zm-5.758 0h1.258m-1.258 11.519h5.758m40.32 0h-5.762m5.762-11.519h-5.762"/>
  <path fill="none" stroke="maroon" stroke-linecap="round" stroke-linejoin="round" stroke-miterlimit="10" stroke-width=".96" d="M549.602 432.898l23.039-11.457m-.001 0l-23.038-11.52m0 .001v22.976"/>
  <path fill="none" stroke="maroon" stroke-linecap="round" stroke-linejoin="round" stroke-miterlimit="10" stroke-width=".36" d="M538.078 421.441h11.524m27.476 0a2.22 2.22 0 1 1-4.44-.002 2.22 2.22 0 0 1 4.44.002zm7.024 0h-7.024"/>
  <path fill="none" stroke="maroon" stroke-linecap="round" stroke-linejoin="round" stroke-miterlimit="10" stroke-width=".96" d="M399.84 435.781l23.039-11.46m0-.001l-23.04-11.52m.001 0v22.981"/>
  <path fill="none" stroke="maroon" stroke-linecap="round" stroke-linejoin="round" stroke-miterlimit="10" stroke-width=".36" d="M388.32 424.32h11.52m27.539 0a2.217 2.217 0 0 1-2.219 2.22 2.217 2.217 0 0 1-2.219-2.22c0-1.226.993-2.218 2.22-2.218 1.226 0 2.218.992 2.218 2.218zm7.019 0h-7.02M336.54 297.602h-4.02m-7.5 0h4.02"/>
  <path fill="maroon" stroke="maroon" stroke-linecap="round" stroke-linejoin="round" stroke-miterlimit="10" stroke-width=".12" d="M331.32 301.621h1.2v-8.039h-1.2zm-2.28 0h1.198v-8.039h-1.199zm0 0"/>
  <path fill="none" stroke="maroon" stroke-linecap="round" stroke-linejoin="round" stroke-miterlimit="10" stroke-width=".36" d="M371.102 297.602h-4.082m-7.442 0h4.024"/>
  <path fill="maroon" stroke="maroon" stroke-linecap="round" stroke-linejoin="round" stroke-miterlimit="10" stroke-width=".12" d="M365.879 301.621h1.2v-8.039h-1.2zm-2.339 0h1.198v-8.039h-1.199zm0 0"/>
  <path fill="none" stroke="maroon" stroke-linecap="round" stroke-linejoin="round" stroke-miterlimit="10" stroke-width=".6" d="M349.738 314.879v11.52m-3.418-.001v-11.52"/>
  <path fill="none" stroke="maroon" stroke-linecap="round" stroke-linejoin="round" stroke-miterlimit="10" stroke-width=".36" d="M342.3 320.64h1.981"/>
  <path fill="none" stroke="maroon" stroke-linecap="round" stroke-linejoin="round" stroke-miterlimit="10" stroke-width=".6" d="M346.32 314.879h3.418m0 11.519h-3.418"/>
  <path fill="none" stroke="maroon" stroke-linecap="round" stroke-linejoin="round" stroke-miterlimit="10" stroke-width=".36" d="M353.82 326.398v-4.617m0 0l1.14 2.34m-1.14-2.34l-1.199 2.34m-4.562 8.039v-5.762m0-17.277v5.758m-3.778 5.761l8.04-3.96m.601 1.02l2.398-2.641m0 0l-3.422.543m1.024 2.098l-1.024-2.098"/>
  <path fill="none" stroke="maroon" stroke-linecap="round" stroke-linejoin="round" stroke-miterlimit="10" stroke-width=".6" d="M344.281 343.68h7.5"/>
  <path fill="none" stroke="maroon" stroke-linecap="round" stroke-linejoin="round" stroke-miterlimit="10" stroke-width=".36" d="M348.059 337.922v5.758"/>
  <path fill="none" stroke="maroon" stroke-linecap="round" stroke-linejoin="round" stroke-miterlimit="10" stroke-width=".6" d="M345.719 344.82h4.62m-3.179 1.14h1.738m22.204 13.259h-11.524m0 3.481h11.524"/>
  <path fill="none" stroke="maroon" stroke-linecap="round" stroke-linejoin="round" stroke-miterlimit="10" stroke-width=".36" d="M365.34 366.719v-2.04"/>
  <path fill="none" stroke="maroon" stroke-linecap="round" stroke-linejoin="round" stroke-miterlimit="10" stroke-width=".6" d="M371.102 362.7v-3.481m-11.524 0v3.48"/>
  <path fill="none" stroke="maroon" stroke-linecap="round" stroke-linejoin="round" stroke-miterlimit="10" stroke-width=".36" d="M359.578 355.2h4.563m-.001 0l-2.28-1.141m2.28 1.141l-2.28 1.14m-8.04 4.62h5.758m17.282 0h-5.758m-5.762 3.72l3.96-7.98m-1.019-.66l2.578-2.34m.001 0l-.481 3.421m-2.098-1.081l2.098 1.081"/>
  <path fill="none" stroke="maroon" stroke-linecap="round" stroke-linejoin="round" stroke-miterlimit="10" stroke-width=".6" d="M336.54 359.219h-11.52m0 3.481h11.52"/>
  <path fill="none" stroke="maroon" stroke-linecap="round" stroke-linejoin="round" stroke-miterlimit="10" stroke-width=".36" d="M330.781 366.719v-2.04"/>
  <path fill="none" stroke="maroon" stroke-linecap="round" stroke-linejoin="round" stroke-miterlimit="10" stroke-width=".6" d="M336.54 362.7v-3.481m-11.52 0v3.48"/>
  <path fill="none" stroke="maroon" stroke-linecap="round" stroke-linejoin="round" stroke-miterlimit="10" stroke-width=".36" d="M325.02 355.2h4.62m0 0l-2.34-1.141m2.34 1.141l-2.34 1.14m-8.038 4.62h5.758m17.28 0h-5.76m-5.759 3.72l3.957-7.98m-1.019-.66l2.582-2.34m-.001 0l-.48 3.421m-2.101-1.081l2.101 1.081m12.239 32.641v-4.082m0-7.442v4.024"/>
  <path fill="maroon" stroke="maroon" stroke-linecap="round" stroke-linejoin="round" stroke-miterlimit="10" stroke-width=".12" d="M344.04 385.738h8.042v-1.199h-8.043zm0-2.278h8.042v-1.198h-8.043zm0 0"/>
  <path fill="none" stroke="maroon" stroke-linecap="round" stroke-linejoin="round" stroke-miterlimit="10" stroke-width=".6" d="M344.281 401.281h7.5"/>
  <path fill="none" stroke="maroon" stroke-linecap="round" stroke-linejoin="round" stroke-miterlimit="10" stroke-width=".36" d="M348.059 395.52v5.761"/>
  <path fill="none" stroke="maroon" stroke-linecap="round" stroke-linejoin="round" stroke-miterlimit="10" stroke-width=".6" d="M345.719 402.422h4.62m-3.179 1.137h1.738"/>
  <path fill="none" stroke="maroon" stroke-linecap="round" stroke-linejoin="round" stroke-miterlimit="10" stroke-width=".96" d="M336.54 435.781l23.038-11.46m0-.001L336.54 412.8m0 0v22.981"/>
  <path fill="none" stroke="maroon" stroke-linecap="round" stroke-linejoin="round" stroke-miterlimit="10" stroke-width=".36" d="M325.02 424.32h11.52m27.48 0a2.22 2.22 0 1 1-4.441 0 2.22 2.22 0 0 1 4.44 0zm7.082 0h-7.024m47.282 17.22v-11.52m0-22.98v11.519"/>
  <path fill="none" stroke="maroon" stroke-linecap="round" stroke-linejoin="round" stroke-miterlimit="10" stroke-width=".6" d="M414.238 399.84l-2.879-4.32m.001 0l-2.88 4.32"/>
  <path fill="none" stroke="maroon" stroke-linecap="round" stroke-linejoin="round" stroke-miterlimit="10" stroke-width=".36" d="M411.36 401.281v-5.761"/>
  <path fill="none" stroke="maroon" stroke-linecap="round" stroke-linejoin="round" stroke-miterlimit="10" stroke-width=".6" d="M407.64 453.059h7.5"/>
  <path fill="none" stroke="maroon" stroke-linecap="round" stroke-linejoin="round" stroke-miterlimit="10" stroke-width=".36" d="M411.36 447.3v5.759"/>
  <path fill="none" stroke="maroon" stroke-linecap="round" stroke-linejoin="round" stroke-miterlimit="10" stroke-width=".6" d="M409.078 454.262h4.621m-3.179 1.136h1.742"/>
  <path fill="none" stroke="maroon" stroke-linecap="round" stroke-linejoin="round" stroke-miterlimit="10" stroke-width=".36" d="M451.68 424.32h-4.02m-7.5 0h4.02"/>
  <path fill="maroon" stroke="maroon" stroke-linecap="round" stroke-linejoin="round" stroke-miterlimit="10" stroke-width=".12" d="M446.46 428.34h1.2v-8.04h-1.2zm-2.28 0h1.199v-8.04h-1.2zm0 0"/>
  <path fill="none" stroke="maroon" stroke-linecap="round" stroke-linejoin="round" stroke-miterlimit="10" stroke-width=".36" d="M480.48 424.32h-5.761m-17.278 0h5.758"/>
  <path fill="none" stroke="maroon" stroke-linecap="round" stroke-linejoin="round" stroke-miterlimit="10" stroke-width=".6" d="M463.2 426.3h11.519m0-4.019h-11.52m11.52 4.019v-4.019M463.2 426.3v-4.019M350.941 157.98l-2.882-4.32m0 0l-2.88 4.32"/>
  <path fill="none" stroke="maroon" stroke-linecap="round" stroke-linejoin="round" stroke-miterlimit="10" stroke-width=".36" d="M348.059 159.422v-5.762"/>
  <path fill="none" stroke="maroon" stroke-linecap="round" stroke-linejoin="round" stroke-miterlimit="10" stroke-width=".6" d="M344.281 245.762h7.5"/>
  <path fill="none" stroke="maroon" stroke-linecap="round" stroke-linejoin="round" stroke-miterlimit="10" stroke-width=".36" d="M348.059 240v5.762"/>
  <path fill="none" stroke="maroon" stroke-linecap="round" stroke-linejoin="round" stroke-miterlimit="10" stroke-width=".6" d="M345.719 246.96h4.62m-3.179 1.142h1.738"/>
  <path fill="none" stroke="maroon" stroke-linecap="round" stroke-linejoin="round" stroke-miterlimit="10" stroke-width=".36" d="M359.578 234.238h4.024m7.5 0h-4.082"/>
  <path fill="maroon" stroke="maroon" stroke-linecap="round" stroke-linejoin="round" stroke-miterlimit="10" stroke-width=".12" d="M363.54 238.262h1.198v-8.043h-1.199zm2.339 0h1.2v-8.043h-1.2zm0 0"/>
  <path fill="none" stroke="maroon" stroke-linecap="round" stroke-linejoin="round" stroke-miterlimit="10" stroke-width=".6" d="M310.621 143.578l-2.883-4.316m0 0l-2.879 4.316"/>
  <path fill="none" stroke="maroon" stroke-linecap="round" stroke-linejoin="round" stroke-miterlimit="10" stroke-width=".36" d="M307.738 145.02v-5.758"/>
  <path fill="none" stroke="maroon" stroke-linecap="round" stroke-linejoin="round" stroke-miterlimit="10" stroke-width=".6" d="M254.16 205.5v-11.52m3.48 0v11.52"/>
  <path fill="none" stroke="maroon" stroke-linecap="round" stroke-linejoin="round" stroke-miterlimit="10" stroke-width=".36" d="M261.66 199.738h-1.98"/>
  <path fill="none" stroke="maroon" stroke-linecap="round" stroke-linejoin="round" stroke-miterlimit="10" stroke-width=".6" d="M257.64 205.5h-3.48m0-11.52h3.48"/>
  <path fill="none" stroke="maroon" stroke-linecap="round" stroke-linejoin="round" stroke-miterlimit="10" stroke-width=".36" d="M250.14 193.98v4.56m0 0l-1.14-2.278m1.14 2.278l1.141-2.278m4.617-8.043v5.761m0 17.282V205.5m3.782-5.762l-8.04 3.961m-.6-1.078l-2.4 2.64m0 .001l3.419-.48m-1.019-2.161l1.019 2.16"/>
  <path fill="none" stroke="maroon" stroke-linecap="round" stroke-linejoin="round" stroke-miterlimit="10" stroke-width=".6" d="M258.781 178.14l-2.883-4.32m0 0l-2.878 4.32"/>
  <path fill="none" stroke="maroon" stroke-linecap="round" stroke-linejoin="round" stroke-miterlimit="10" stroke-width=".36" d="M255.898 179.578v-5.758"/>
  <path fill="none" stroke="maroon" stroke-linecap="round" stroke-linejoin="round" stroke-miterlimit="10" stroke-width=".6" d="M252.18 231.36h7.5"/>
  <path fill="none" stroke="maroon" stroke-linecap="round" stroke-linejoin="round" stroke-miterlimit="10" stroke-width=".36" d="M255.898 225.602v5.757"/>
  <path fill="none" stroke="maroon" stroke-linecap="round" stroke-linejoin="round" stroke-miterlimit="10" stroke-width=".6" d="M253.621 232.559h4.617m-3.179 1.141h1.742"/>
  <path fill="none" stroke="maroon" stroke-linecap="round" stroke-linejoin="round" stroke-miterlimit="10" stroke-width=".36" d="M278.941 219.84v-4.02m0-7.441v4.02"/>
  <path fill="maroon" stroke="maroon" stroke-linecap="round" stroke-linejoin="round" stroke-miterlimit="10" stroke-width=".12" d="M274.922 215.879h8.039v-1.2h-8.04zm0-2.339h8.039v-1.2h-8.04zm0 0"/>
  <path fill="none" stroke="maroon" stroke-linecap="round" stroke-linejoin="round" stroke-miterlimit="10" stroke-width=".6" d="M275.219 231.36h7.441"/>
  <path fill="none" stroke="maroon" stroke-linecap="round" stroke-linejoin="round" stroke-miterlimit="10" stroke-width=".36" d="M278.941 225.602v5.757"/>
  <path fill="none" stroke="maroon" stroke-linecap="round" stroke-linejoin="round" stroke-miterlimit="10" stroke-width=".6" d="M276.66 232.559h4.559m-3.117 1.141h1.68"/>
  <path fill="none" stroke="maroon" stroke-linecap="round" stroke-linejoin="round" stroke-miterlimit="10" stroke-width=".36" d="M405.602 199.738v5.762m0 17.219v-5.758"/>
  <path fill="none" stroke="maroon" stroke-linecap="round" stroke-linejoin="round" stroke-miterlimit="10" stroke-width=".6" d="M407.64 216.96V205.5m-4.019 0v11.46m4.019-11.46h-4.019m4.019 11.46h-4.019M492 438.66h5.762"/>
  <path fill="maroon" fill-rule="evenodd" d="M497.46 438.66l.118-.84.422-.84.54-.66.78-.539.84-.242h.899l.902.242.719.54.601.66.418.84.121.84-.12.898-.419.84-.601.66-.72.48-.901.3h-.899l-.84-.3-.78-.48-.54-.66-.422-.84-.117-.899h.598l.062-.719.36-.66.48-.543.598-.418.722-.18H501l.719.18.601.418.48.543.302.66.117.72-.117.78-.301.66-.48.54-.602.418-.719.18h-.719l-.722-.18-.598-.418-.48-.54-.36-.66-.062-.78h-.598"/>
  <path fill="none" stroke="maroon" stroke-linecap="round" stroke-linejoin="round" stroke-miterlimit="10" stroke-width=".12" d="M497.46 438.66l.118-.84.422-.84.54-.66.78-.539.84-.242h.899l.902.242.719.54.601.66.418.84.121.84-.12.898-.419.84-.601.66-.72.48-.901.3h-.899l-.84-.3-.78-.48-.54-.66-.422-.84-.117-.899h.598l.062-.719.36-.66.48-.543.598-.418.722-.18H501l.719.18.601.418.48.543.302.66.117.72-.117.78-.301.66-.48.54-.602.418-.719.18h-.719l-.722-.18-.598-.418-.48-.54-.36-.66-.062-.78zm0 0"/>
  <path fill="none" stroke="maroon" stroke-linecap="round" stroke-linejoin="round" stroke-miterlimit="10" stroke-width=".6" d="M503.52 424.32h5.761"/>
  <path fill="maroon" fill-rule="evenodd" d="M508.98 424.32l.122-.898.359-.844.598-.656.78-.48.84-.301h.9l.901.3.72.48.6.657.419.844.12.898-.12.84-.418.84-.602.66-.719.54-.902.241h-.898l-.84-.242-.781-.539-.598-.66-.36-.84-.12-.84h.597l.063-.78.359-.661.48-.54.598-.417.723-.184h.719l.718.184.602.418.48.539.301.66.117.781-.117.72-.3.66-.481.538-.602.422-.718.18h-.72l-.722-.18-.598-.422-.48-.539-.36-.66-.062-.719h-.598"/>
  <path fill="none" stroke="maroon" stroke-linecap="round" stroke-linejoin="round" stroke-miterlimit="10" stroke-width=".12" d="M508.98 424.32l.122-.898.359-.844.598-.656.78-.48.84-.301h.9l.901.3.72.48.6.657.419.844.12.898-.12.84-.418.84-.602.66-.719.54-.902.241h-.898l-.84-.242-.781-.539-.598-.66-.36-.84-.12-.84h.597l.063-.78.359-.661.48-.54.598-.417.723-.184h.719l.718.184.602.418.48.539.301.66.117.781-.117.72-.3.66-.481.538-.602.422-.718.18h-.72l-.722-.18-.598-.422-.48-.539-.36-.66-.062-.719zm0 0"/>
  <path fill="none" stroke="maroon" stroke-linecap="round" stroke-linejoin="round" stroke-miterlimit="10" stroke-width=".6" d="M479.64 453.059h7.438"/>
  <path fill="none" stroke="maroon" stroke-linecap="round" stroke-linejoin="round" stroke-miterlimit="10" stroke-width=".36" d="M483.36 447.3v5.759"/>
  <path fill="none" stroke="maroon" stroke-linecap="round" stroke-linejoin="round" stroke-miterlimit="10" stroke-width=".6" d="M481.078 454.262h4.563m-3.121 1.136h1.68"/>
  <path fill="none" stroke="maroon" stroke-linecap="round" stroke-linejoin="round" stroke-miterlimit="10" stroke-width=".96" d="M500.64 381.121l23.04-11.52m0 .001l-23.04-11.524m0 0v23.043"/>
  <path fill="none" stroke="maroon" stroke-linecap="round" stroke-linejoin="round" stroke-miterlimit="10" stroke-width=".36" d="M489.121 369.602h11.52m27.48 0a2.223 2.223 0 0 1-2.223 2.218 2.222 2.222 0 0 1-2.218-2.218c0-1.227.996-2.223 2.218-2.223 1.227 0 2.223.996 2.223 2.223zm7.079 0h-7.02"/>
  <path fill="none" stroke="green" stroke-linecap="round" stroke-linejoin="round" stroke-miterlimit="10" stroke-width=".36" d="M348.059 395.52v-5.758m0-57.602v5.762M411.36 447.3v-5.76m-63.301-213.06v5.758m0 0V240m11.519-5.762h-11.52"/>
  <path fill="green" fill-rule="evenodd" d="M349.2 234.238a1.14 1.14 0 1 1-2.28.003 1.14 1.14 0 0 1 2.28-.003"/>
  <path fill="none" stroke="green" stroke-linecap="round" stroke-linejoin="round" stroke-miterlimit="10" stroke-width=".12" d="M349.2 234.238a1.14 1.14 0 1 1-2.28.003 1.14 1.14 0 0 1 2.28-.003zm0 0"/>
  <path fill="none" stroke="green" stroke-linecap="round" stroke-linejoin="round" stroke-miterlimit="10" stroke-width=".36" d="M255.898 225.602v-14.34m23.043 8.578v5.762M483.36 447.3l8.64-8.64m-161.219-71.941v5.761m0 0h17.278m0 5.758v-5.758m0 0v-11.52"/>
  <path fill="green" fill-rule="evenodd" d="M349.2 372.48a1.139 1.139 0 1 1-2.277 0 1.139 1.139 0 1 1 2.276 0"/>
  <path fill="none" stroke="green" stroke-linecap="round" stroke-linejoin="round" stroke-miterlimit="10" stroke-width=".12" d="M349.2 372.48a1.139 1.139 0 1 1-2.277 0 1.139 1.139 0 1 1 2.276 0zm0 0"/>
  <path fill="none" stroke="green" stroke-linecap="round" stroke-linejoin="round" stroke-miterlimit="10" stroke-width=".36" d="M342.3 360.96h5.759m0 0h5.761"/>
  <path fill="green" fill-rule="evenodd" d="M349.2 360.96a1.139 1.139 0 1 1-2.277 0 1.14 1.14 0 0 1 2.277 0"/>
  <path fill="none" stroke="green" stroke-linecap="round" stroke-linejoin="round" stroke-miterlimit="10" stroke-width=".12" d="M349.2 360.96a1.139 1.139 0 1 1-2.277 0 1.14 1.14 0 0 1 2.277 0zm0 0"/>
  <path fill="none" stroke="green" stroke-linecap="round" stroke-linejoin="round" stroke-miterlimit="10" stroke-width=".36" d="M325.02 297.602H313.5m11.52 126.718H313.5m0 0v-63.36m0 0v-63.358m5.762 63.358H313.5"/>
  <path fill="green" fill-rule="evenodd" d="M314.64 360.96c0 .63-.511 1.142-1.14 1.142-.629 0-1.14-.512-1.14-1.141a1.14 1.14 0 1 1 2.28 0"/>
  <path fill="none" stroke="green" stroke-linecap="round" stroke-linejoin="round" stroke-miterlimit="10" stroke-width=".12" d="M314.64 360.96c0 .63-.511 1.142-1.14 1.142-.629 0-1.14-.512-1.14-1.141a1.14 1.14 0 1 1 2.28 0zm0 0"/>
  <path fill="none" stroke="green" stroke-linecap="round" stroke-linejoin="round" stroke-miterlimit="10" stroke-width=".36" d="M342.3 320.64h-5.76m0 0v-17.28m0 0h11.519m0 0v5.761m0-5.761v-5.758"/>
  <path fill="green" fill-rule="evenodd" d="M349.2 303.36a1.139 1.139 0 1 1-2.277 0 1.139 1.139 0 1 1 2.276 0"/>
  <path fill="none" stroke="green" stroke-linecap="round" stroke-linejoin="round" stroke-miterlimit="10" stroke-width=".12" d="M349.2 303.36a1.139 1.139 0 1 1-2.277 0 1.139 1.139 0 1 1 2.276 0zm0 0"/>
  <path fill="none" stroke="green" stroke-linecap="round" stroke-linejoin="round" stroke-miterlimit="10" stroke-width=".36" d="M336.54 297.602h11.519m0 0h11.52"/>
  <path fill="green" fill-rule="evenodd" d="M349.2 297.602a1.139 1.139 0 1 1-2.278-.004 1.139 1.139 0 0 1 2.277.004"/>
  <path fill="none" stroke="green" stroke-linecap="round" stroke-linejoin="round" stroke-miterlimit="10" stroke-width=".12" d="M349.2 297.602a1.139 1.139 0 1 1-2.278-.004 1.139 1.139 0 0 1 2.277.004zm0 0"/>
  <path fill="none" stroke="green" stroke-linecap="round" stroke-linejoin="round" stroke-miterlimit="10" stroke-width=".36" d="M365.34 366.719v5.761m0 0h17.281m0 51.84v-51.84m0 0v-11.52m0 0v-63.358m0 0h-11.52m11.52 126.718h-11.52m17.219 0h-5.699"/>
  <path fill="green" fill-rule="evenodd" d="M383.762 424.32a1.14 1.14 0 1 1-1.14-1.14c.628 0 1.14.511 1.14 1.14"/>
  <path fill="none" stroke="green" stroke-linecap="round" stroke-linejoin="round" stroke-miterlimit="10" stroke-width=".12" d="M383.762 424.32a1.14 1.14 0 1 1-1.14-1.14c.628 0 1.14.511 1.14 1.14zm0 0"/>
  <path fill="green" fill-rule="evenodd" d="M383.762 372.48a1.14 1.14 0 1 1-1.14-1.14c.628 0 1.14.512 1.14 1.14"/>
  <path fill="none" stroke="green" stroke-linecap="round" stroke-linejoin="round" stroke-miterlimit="10" stroke-width=".12" d="M383.762 372.48a1.14 1.14 0 1 1-1.14-1.14c.628 0 1.14.512 1.14 1.14zm0 0"/>
  <path fill="none" stroke="green" stroke-linecap="round" stroke-linejoin="round" stroke-miterlimit="10" stroke-width=".36" d="M376.86 360.96h5.761"/>
  <path fill="green" fill-rule="evenodd" d="M383.762 360.96a1.14 1.14 0 1 1-2.281 0c0-.632.507-1.14 1.14-1.14.629 0 1.14.508 1.14 1.14"/>
  <path fill="none" stroke="green" stroke-linecap="round" stroke-linejoin="round" stroke-miterlimit="10" stroke-width=".12" d="M383.762 360.96a1.14 1.14 0 1 1-2.281 0c0-.632.507-1.14 1.14-1.14.629 0 1.14.508 1.14 1.14zm0 0"/>
  <path fill="none" stroke="green" stroke-linecap="round" stroke-linejoin="round" stroke-miterlimit="10" stroke-width=".36" d="M411.36 401.281v5.758m-63.301-247.617v11.52m-40.321-25.922v43.199m0 0h11.524m-66.242-8.641h2.878m0 0v8.64"/>
  <path fill="green" fill-rule="evenodd" d="M257.04 179.578c0 .633-.509 1.14-1.142 1.14a1.136 1.136 0 0 1-1.136-1.14c0-.629.508-1.137 1.136-1.137.633 0 1.141.508 1.141 1.137"/>
  <path fill="none" stroke="green" stroke-linecap="round" stroke-linejoin="round" stroke-miterlimit="10" stroke-width=".12" d="M257.04 179.578c0 .633-.509 1.14-1.142 1.14a1.136 1.136 0 0 1-1.136-1.14c0-.629.508-1.137 1.136-1.137.633 0 1.141.508 1.141 1.137zm0 0"/>
  <path fill="none" stroke="green" stroke-linecap="round" stroke-linejoin="round" stroke-miterlimit="10" stroke-width=".36" d="M457.441 424.32h-5.761m-11.52 0h-5.762M261.66 199.738h17.281m0 0v8.64m0-8.64h40.32"/>
  <path fill="none" stroke="green" stroke-linecap="round" stroke-linejoin="round" stroke-miterlimit="10" stroke-width=".12" d="M280.078 199.738zm0 0"/>
  <path fill="none" stroke="green" stroke-linecap="round" stroke-linejoin="round" stroke-miterlimit="10" stroke-width=".36" d="M405.602 199.738v-11.52m0 .001h-28.743m28.743 34.5v11.52m0 28.801h-97.864m0 0v-51.778m0 0h11.524m57.598 0h11.46m0 0v22.976m17.282 0v28.801"/>
  <path fill="green" fill-rule="evenodd" d="M406.738 234.238c0 .633-.508 1.14-1.136 1.14a1.137 1.137 0 0 1-1.141-1.14c0-.629.508-1.136 1.14-1.136.63 0 1.137.507 1.137 1.136"/>
  <path fill="none" stroke="green" stroke-linecap="round" stroke-linejoin="round" stroke-miterlimit="10" stroke-width=".12" d="M406.738 234.238c0 .633-.508 1.14-1.136 1.14a1.137 1.137 0 0 1-1.141-1.14c0-.629.508-1.136 1.14-1.136.63 0 1.137.507 1.137 1.136zm0 0"/>
  <path fill="none" stroke="green" stroke-linecap="round" stroke-linejoin="round" stroke-miterlimit="10" stroke-width=".36" d="M405.602 234.238H388.32"/>
  <path fill="green" fill-rule="evenodd" d="M389.46 234.238a1.14 1.14 0 1 1-2.278.003 1.14 1.14 0 0 1 2.279-.003"/>
  <path fill="none" stroke="green" stroke-linecap="round" stroke-linejoin="round" stroke-miterlimit="10" stroke-width=".12" d="M389.46 234.238a1.14 1.14 0 1 1-2.278.003 1.14 1.14 0 0 1 2.279-.003zm0 0"/>
  <path fill="none" stroke="green" stroke-linecap="round" stroke-linejoin="round" stroke-miterlimit="10" stroke-width=".36" d="M388.32 234.238h-17.218M503.52 424.32h-23.04"/>
</svg>
