<svg xmlns="http://www.w3.org/2000/svg" xmlns:xlink="http://www.w3.org/1999/xlink" width="560" height="595pt" viewBox="0 0 420 595"><defs><symbol overflow="visible" id="a"><path d="M1.547 1.422a.732.732 0 0 1-.281.14 1.2 1.2 0 0 1-.391.063c-.148 0-.277-.016-.39-.047a.869.869 0 0 1-.282-.156.67.67 0 0 1-.187-.25A1.149 1.149 0 0 1-.031.844c0-.117.023-.219.062-.313a.536.536 0 0 1 .172-.25.802.802 0 0 1 .281-.156C.598.094.727.078.875.078c.145 0 .273.016.39.047.102.04.196.094.282.156.07.07.129.156.172.25a.847.847 0 0 1 0 .64.92.92 0 0 1-.172.25zM.875 1.39a3.13 3.13 0 0 0 .313-.047.607.607 0 0 0 .218-.11.412.412 0 0 0 .14-.156.87.87 0 0 0 .032-.219.791.791 0 0 0-.031-.234.386.386 0 0 0-.14-.156.502.502 0 0 0-.235-.11.861.861 0 0 0-.297-.046c-.23 0-.406.05-.531.156a.468.468 0 0 0-.172.39c0 .157.055.282.172.375.125.094.3.145.531.157zm0 0"/></symbol><symbol overflow="visible" id="b"><path d="M-.031.781c0-.094.011-.183.031-.265A.586.586 0 0 1 .344.188C.426.164.53.155.656.155H1.75V.39H.656a.95.95 0 0 0-.203.015.29.29 0 0 0-.14.063.227.227 0 0 0-.11.125.351.351 0 0 0-.047.187c0 .07.016.14.047.203a.24.24 0 0 0 .11.125.33.33 0 0 0 .14.063 1.3 1.3 0 0 0 .203.016H1.75v.234H.656c-.125 0-.23-.012-.312-.031A.586.586 0 0 1 0 1.062a1.119 1.119 0 0 1-.031-.28zm0 0"/></symbol><symbol overflow="visible" id="c"><path d="M0 .594h1.547V0h.203v1.406h-.203V.813H0zm0 0"/></symbol><symbol overflow="visible" id="g"><path d="M0 .781V.11h.172v.22h1.406V.11h.172v.672h-.172v-.22H.172v.22zm0 0"/></symbol><symbol overflow="visible" id="h"><path d="M0 1.422v-.25L1.516.39H0V.17h1.75V.5l-1.39.719h1.39v.203zm0 0"/></symbol><symbol overflow="visible" id="m"><path d="M-.031.86c0-.118.023-.22.062-.313a.536.536 0 0 1 .172-.25A.582.582 0 0 1 .484.14C.598.098.727.078.875.078c.145 0 .27.02.375.063.113.03.21.082.297.156.07.07.129.156.172.25a.796.796 0 0 1 .062.312c0 .063-.008.118-.015.172-.012.051-.024.098-.032.14a.462.462 0 0 1-.046.11 1 1 0 0 1-.047.125h-.282v-.015a.245.245 0 0 1 .063-.079c.02-.03.047-.074.078-.125.02-.042.04-.09.063-.14.007-.055.015-.117.015-.188a.444.444 0 0 0-.047-.203.584.584 0 0 0-.125-.187.936.936 0 0 0-.234-.11.861.861 0 0 0-.297-.046.893.893 0 0 0-.313.046.667.667 0 0 0-.218.125.282.282 0 0 0-.125.172.444.444 0 0 0-.047.203c0 .07.004.133.016.188a.873.873 0 0 0 .062.156c.031.04.055.078.078.11.031.03.05.054.063.078v.015H.125a2.173 2.173 0 0 0-.063-.11l-.046-.124c-.012-.055-.02-.102-.032-.14A.957.957 0 0 1-.03.858zm0 0"/></symbol><symbol overflow="visible" id="n"><path d="M1.578.594a.644.644 0 0 0-.016-.125 1.946 1.946 0 0 1-.03-.125.264.264 0 0 1-.048-.094.369.369 0 0 1-.046-.078V.156h.234a.812.812 0 0 1 .078.219c.02.082.031.164.031.25 0 .07-.008.14-.015.203a.648.648 0 0 1-.079.156.6.6 0 0 1-.14.125.554.554 0 0 1-.188.032.369.369 0 0 1-.25-.094.407.407 0 0 1-.14-.234H.953a1.087 1.087 0 0 0-.031.125c-.024.039-.047.082-.078.125a.428.428 0 0 1-.125.078.6.6 0 0 1-.203.03.822.822 0 0 1-.22-.03A.668.668 0 0 1 0 .844a.972.972 0 0 1-.031-.25 1.151 1.151 0 0 1 .11-.485h.233v.016C.282.175.25.242.22.328a.692.692 0 0 0-.032.39.36.36 0 0 0 .188.204C.416.93.47.937.532.937a.37.37 0 0 0 .156-.03c.04-.012.07-.04.094-.079a.258.258 0 0 0 .063-.11v-.25h.203v.079c0 .101.023.191.078.265a.267.267 0 0 0 .328.063.17.17 0 0 0 .078-.063.525.525 0 0 0 .047-.093V.594zm0 0"/></symbol><symbol overflow="visible" id="s"><path d="M0 1.531v-.297L.703.672V.406H0V.172h1.75v.453c0 .102-.008.188-.016.25a.563.563 0 0 1-.078.203.412.412 0 0 1-.156.14.487.487 0 0 1-.219.048.528.528 0 0 1-.328-.094.534.534 0 0 1-.187-.266zm1.25-.5c.05 0 .098-.011.14-.031a.313.313 0 0 0 .094-.078.419.419 0 0 0 .047-.125.841.841 0 0 0 .016-.156V.406H.89V.61c0 .07.004.133.015.188.008.05.035.098.078.14a.239.239 0 0 0 .11.063c.05.02.101.031.156.031zm0 0"/></symbol><symbol overflow="visible" id="t"><path d="M.61 1.25v-.203H0V.813h.61V.046h.234l.906.781v.219H.797v.203zM.796.812h.672L.797.235zm0 0"/></symbol><symbol overflow="visible" id="u"><path d="M.563 1.188a.522.522 0 0 1-.235-.047.45.45 0 0 1-.187-.11A.606.606 0 0 1-.031.61c0-.086.008-.168.015-.25A.951.951 0 0 1 .063.141h.25v.015L.266.234a.252.252 0 0 0-.047.11.33.33 0 0 0-.032.14.36.36 0 0 0-.015.125c0 .04.004.086.016.141.019.04.05.078.093.11a.25.25 0 0 0 .11.062c.05.02.109.031.171.031.063 0 .11-.012.141-.031a.555.555 0 0 0 .11-.078.258.258 0 0 0 .062-.11A1.13 1.13 0 0 0 .891.563 1.742 1.742 0 0 0 .875.374L.844.219h.906v.953h-.203V.438h-.469V.53a.21.21 0 0 1 .016.078.738.738 0 0 1-.032.22.549.549 0 0 1-.078.187.742.742 0 0 1-.171.125.57.57 0 0 1-.25.046zm0 0"/></symbol><symbol overflow="visible" id="v"><path d="M.563 1.234a.692.692 0 0 1-.438-.156A.87.87 0 0 1 0 .891a.738.738 0 0 1 0-.422.386.386 0 0 1 .125-.172.575.575 0 0 1 .25-.14.982.982 0 0 1 .39-.064c.157 0 .297.015.422.047A.872.872 0 0 1 1.5.297a.78.78 0 0 1 .203.234c.05.102.078.223.078.36V1c-.011.031-.023.055-.031.078h-.219c.008-.023.02-.055.032-.094.007-.043.015-.086.015-.125A.483.483 0 0 0 1.438.5.68.68 0 0 0 1 .344c.031.05.055.11.078.172a.35.35 0 0 1 .047.187c-.012.07-.023.133-.031.188a.716.716 0 0 1-.078.156.539.539 0 0 1-.188.14.687.687 0 0 1-.265.047zm0-.234C.633 1 .69.988.734.969A.34.34 0 0 0 .86.875a.154.154 0 0 0 .047-.11.461.461 0 0 0 .016-.109A.806.806 0 0 0 .906.5 1.166 1.166 0 0 0 .828.344H.781C.758.332.738.332.72.344a.613.613 0 0 0-.297.031.47.47 0 0 0-.172.078 1.2 1.2 0 0 0-.078.11.439.439 0 0 0-.016.125c0 .093.032.164.094.218C.32.97.426 1 .563 1zm0 0"/></symbol><symbol overflow="visible" id="D"><path d="M0 .5V.219h.328V.5zm0 0"/></symbol><symbol overflow="visible" id="E"><path d="M0 1.188v-.22h.14A1.368 1.368 0 0 1 .017.767.456.456 0 0 1-.031.562c0-.062.008-.117.015-.156a.343.343 0 0 1 .094-.14.616.616 0 0 1 .375-.11h.86v.219H.39C.348.383.305.395.266.406a.135.135 0 0 0-.063.078C.18.516.172.563.172.625c0 .05.016.11.047.172a.985.985 0 0 0 .11.172h.984v.219zm0 0"/></symbol><symbol overflow="visible" id="F"><path d="M1.547 1.219V.406h-.5v.781H.844v-.78H0V.171h1.75v1.047zm0 0"/></symbol><symbol overflow="visible" id="d"><path d="M.094 0v-.875H.64v.11H.203v.234H.61v.11H.203v.312h.438V0zm0 0"/></symbol><symbol overflow="visible" id="e"><path d="M.688-.266a.2.2 0 0 1-.032.11c-.023.031-.043.058-.062.078a.223.223 0 0 1-.11.062.535.535 0 0 1-.14.016h-.25v-.875h.374a.31.31 0 0 0 .079.031c.031.024.055.043.078.063.008.031.016.07.016.11a.2.2 0 0 1-.032.109.265.265 0 0 1-.093.078c.05.011.093.039.125.078.03.031.046.078.046.14zm-.172-.39V-.72L.469-.75a.11.11 0 0 0-.063-.016.291.291 0 0 0-.094-.015H.204v.265h.14A.165.165 0 0 0 .423-.53.123.123 0 0 0 .47-.546a.091.091 0 0 0 .047-.047v-.062zm.046.39a.231.231 0 0 0-.015-.078.233.233 0 0 0-.063-.062.093.093 0 0 1-.046-.016H.203v.328h.093c.05 0 .094-.004.125-.015A.1.1 0 0 0 .5-.141a.091.091 0 0 0 .047-.047.212.212 0 0 0 .015-.078zm0 0"/></symbol><symbol overflow="visible" id="f"><path d="M.438.016a.48.48 0 0 1-.172-.032.371.371 0 0 1-.11-.078.343.343 0 0 1-.093-.14.569.569 0 0 1-.032-.203c0-.07.008-.133.032-.188a.617.617 0 0 1 .078-.14.55.55 0 0 1 .125-.094.48.48 0 0 1 .171-.032h.079a.15.15 0 0 0 .078.016.09.09 0 0 0 .047.031c.02.012.039.024.062.031v.141H.688a.119.119 0 0 1-.032-.031.519.519 0 0 0-.062-.047C.57-.758.547-.77.516-.781a.21.21 0 0 0-.079-.016.2.2 0 0 0-.109.031.262.262 0 0 0-.094.063.274.274 0 0 0-.047.11.385.385 0 0 0-.03.155.31.31 0 0 0 .03.157.252.252 0 0 0 .047.11.22.22 0 0 0 .094.062.172.172 0 0 0 .11.03.263.263 0 0 0 .093-.015c.02-.008.04-.02.063-.031a.2.2 0 0 0 .062-.047c.02-.008.031-.02.031-.031h.016v.14a.188.188 0 0 0-.047.032.134.134 0 0 1-.062.015C.563-.004.535.004.516.016H.437zm0 0"/></symbol><symbol overflow="visible" id="i"><path d="M1.094 1.281V.171h.36v1.11zm0 0"/></symbol><symbol overflow="visible" id="j"><path d="M2.61-1.125h-.985v1h-.328v-1H.313v-.313h.984v-.984h.328v.985h.984zm0 0"/></symbol><symbol overflow="visible" id="k"><path d="M.86.031A.796.796 0 0 1 .546-.03a.536.536 0 0 1-.25-.172.582.582 0 0 1-.156-.281 1.093 1.093 0 0 1-.063-.391c0-.145.02-.27.063-.375a.749.749 0 0 1 .156-.297.863.863 0 0 1 .25-.172.796.796 0 0 1 .312-.062c.063 0 .118.008.172.015.051.012.098.024.14.032.04.011.079.027.11.046a1 1 0 0 1 .125.047v.282H1.39a.245.245 0 0 1-.079-.063 3.996 3.996 0 0 0-.125-.078c-.042-.02-.09-.04-.14-.063a1.296 1.296 0 0 0-.188-.015.444.444 0 0 0-.203.047.584.584 0 0 0-.187.125.936.936 0 0 0-.11.234.861.861 0 0 0-.046.297c0 .125.015.23.046.313.032.085.07.156.125.218.04.063.098.106.172.125a.444.444 0 0 0 .203.047c.07 0 .133-.004.188-.016a.865.865 0 0 0 .156-.062c.04-.031.078-.055.11-.078A.318.318 0 0 1 1.39-.39h.015v.266a2.173 2.173 0 0 0-.11.063l-.124.046c-.055.012-.102.02-.14.032A.957.957 0 0 1 .858.03zm0 0"/></symbol><symbol overflow="visible" id="l"><path d="M1.203 0H.125v-.25a3.918 3.918 0 0 0 .422-.422C.68-.816.773-.93.828-1.016a.732.732 0 0 0 .063-.28.712.712 0 0 0-.016-.126 1.302 1.302 0 0 1-.063-.094.525.525 0 0 0-.093-.046C.676-1.57.633-1.579.594-1.579a.644.644 0 0 0-.125.016 1.946 1.946 0 0 1-.125.03.264.264 0 0 1-.094.048.369.369 0 0 1-.078.046v-.25c.039-.019.11-.039.203-.062a.992.992 0 0 1 .234-.031.58.58 0 0 1 .391.125.46.46 0 0 1 .14.36.629.629 0 0 1-.03.187.486.486 0 0 1-.063.156 1.578 1.578 0 0 1-.234.297 2.516 2.516 0 0 1-.25.25c-.094.086-.168.152-.22.203h.86zm0 0"/></symbol><symbol overflow="visible" id="q"><path d="M1.531 0h-.297L.672-.703H.406V0H.172v-1.75h.453c.102 0 .188.008.25.016.07.011.14.039.203.078.063.043.11.093.14.156a.487.487 0 0 1 .048.219.528.528 0 0 1-.094.328.534.534 0 0 1-.266.187zm-.5-1.25A.337.337 0 0 0 1-1.39a.313.313 0 0 0-.078-.094.419.419 0 0 0-.125-.047.841.841 0 0 0-.156-.016H.406v.656H.61c.07 0 .133-.004.188-.015a.256.256 0 0 0 .14-.078.237.237 0 0 0 .063-.11.429.429 0 0 0 .031-.156zm0 0"/></symbol><symbol overflow="visible" id="r"><path d="M1.125 0h-.86v-.172h.313v-1.172H.266v-.172a.61.61 0 0 0 .265-.046c.051-.032.082-.094.094-.188h.188v1.578h.312zm0 0"/></symbol><symbol overflow="visible" id="A"><path d="M.594-1.578a.644.644 0 0 0-.125.016 1.946 1.946 0 0 1-.125.03.264.264 0 0 1-.094.048.369.369 0 0 1-.078.046H.156v-.234a.817.817 0 0 1 .219-.078c.082-.02.164-.031.25-.031.07 0 .14.008.203.015a.648.648 0 0 1 .156.079.6.6 0 0 1 .125.14c.02.055.032.117.032.188 0 .093-.032.18-.094.25a.407.407 0 0 1-.234.14v.016c.039.012.082.023.125.031.039.024.082.047.125.078a.428.428 0 0 1 .078.125.6.6 0 0 1 .03.203.822.822 0 0 1-.03.22A.668.668 0 0 1 .844 0a.972.972 0 0 1-.25.031 1.151 1.151 0 0 1-.485-.11v-.233h.016c.05.03.117.062.203.093a.692.692 0 0 0 .39.032.36.36 0 0 0 .204-.188.806.806 0 0 0 .015-.156.37.37 0 0 0-.03-.156.166.166 0 0 0-.079-.094.258.258 0 0 0-.11-.063h-.25v-.203h.079a.436.436 0 0 0 .265-.078.267.267 0 0 0 .063-.328.17.17 0 0 0-.063-.078.525.525 0 0 0-.093-.047H.594zm0 0"/></symbol><symbol overflow="visible" id="B"><path d="M1.188 0h-.22V-.922a.419.419 0 0 0-.046-.125.1.1 0 0 0-.063-.062.337.337 0 0 0-.14-.032.38.38 0 0 0-.172.047c-.055.032-.11.07-.172.11V0H.156v-1.313h.219v.141c.07-.05.14-.094.203-.125a.444.444 0 0 1 .203-.047.38.38 0 0 1 .297.125.55.55 0 0 1 .11.36zm0 0"/></symbol><symbol overflow="visible" id="C"><path d="M1.219-1.547H.406v.5h.781v.203h-.78V0H.171v-1.75h1.047zm0 0"/></symbol><symbol overflow="visible" id="o"><path d="M2.094-1.172c0 .219-.043.414-.125.578a1.04 1.04 0 0 1-.36.406 1.211 1.211 0 0 1-.359.157A2.651 2.651 0 0 1 .781 0H.234v-2.344h.547c.219 0 .39.016.516.047.125.031.226.074.312.125.157.106.274.242.36.406.082.168.125.368.125.594zm-.328 0c0-.187-.032-.344-.094-.469a.63.63 0 0 0-.266-.296.979.979 0 0 0-.265-.11 1.72 1.72 0 0 0-.344-.031h-.25v1.812h.25c.133 0 .254-.007.36-.03a.783.783 0 0 0 .531-.422c.05-.126.078-.274.078-.454zm0 0"/></symbol><symbol overflow="visible" id="p"><path d="M1.5 0H.36v-.234h.42v-1.579H.36v-.218c.157 0 .274-.02.36-.063.07-.05.113-.14.125-.265h.25v2.125H1.5zm0 0"/></symbol><symbol overflow="visible" id="G"><path d="M1.734 0H.094v-.297l1.265-1.781H.156v-.266h1.547v.281L.437-.28h1.297zm0 0"/></symbol><symbol overflow="visible" id="H"><path d="M2.047-1.234H.297v-.25h1.75zm0 .656H.297v-.25h1.75zm0 0"/></symbol><symbol overflow="visible" id="I"><path d="M.813-2.125c-.063 0-.122.008-.172.016l-.172.062a2.172 2.172 0 0 0-.234.125H.218v-.328A1 1 0 0 1 .5-2.36a1.232 1.232 0 0 1 .61-.015c.081.031.156.07.218.11a.799.799 0 0 1 .156.187.57.57 0 0 1 .047.25.485.485 0 0 1-.125.328.486.486 0 0 1-.297.188v.03l.157.048c.05.023.101.058.156.109a.68.68 0 0 1 .11.172.83.83 0 0 1 0 .547.774.774 0 0 1-.406.406 1.039 1.039 0 0 1-.33.047A1.28 1.28 0 0 1 .454 0a.83.83 0 0 1-.297-.094v-.328h.016c.062.043.148.086.266.125a.774.774 0 0 0 .343.078A.525.525 0 0 0 .97-.25a.31.31 0 0 0 .156-.11.345.345 0 0 0 .11-.156.568.568 0 0 0 .03-.203.487.487 0 0 0-.046-.219.34.34 0 0 0-.094-.125.376.376 0 0 0-.156-.062 1.65 1.65 0 0 0-.203-.016H.64v-.265h.093a.57.57 0 0 0 .344-.094.353.353 0 0 0 .14-.297.37.37 0 0 0-.03-.156.415.415 0 0 0-.219-.156c-.055-.008-.106-.016-.157-.016zm0 0"/></symbol><symbol overflow="visible" id="J"><path d="M.672 0H.297v-.453h.375zm0 0"/></symbol><symbol overflow="visible" id="K"><path d="M1.938-2.344L1.14 0H.797l-.813-2.344h.344l.64 1.938.657-1.938zm0 0"/></symbol><symbol overflow="visible" id="L"><path d="M1.64-1.172c0 .418-.062.727-.187.922-.125.2-.312.297-.562.297C.629.047.437-.051.312-.25.189-.445.126-.754.126-1.172c0-.426.063-.738.188-.937.124-.196.316-.297.578-.297.25 0 .437.105.562.312.125.211.188.516.188.922zm-.406.719c.032-.082.051-.18.063-.297a6.042 6.042 0 0 0 0-.844 1.03 1.03 0 0 0-.063-.297.387.387 0 0 0-.14-.187.34.34 0 0 0-.203-.063.355.355 0 0 0-.22.063.387.387 0 0 0-.14.187 1.076 1.076 0 0 0-.062.297 4.605 4.605 0 0 0-.016.422c0 .168.004.305.016.406.008.118.031.215.062.297.031.086.07.149.125.188.063.043.14.062.235.062a.224.224 0 0 0 .203-.062.362.362 0 0 0 .14-.172zm0 0"/></symbol><symbol overflow="visible" id="M"><path d="M1.672 0h-.39L.624-.844l-.11.11V0H.22v-2.453h.297v1.437l.687-.75h.375L.86-1.03zm0 0"/></symbol><symbol overflow="visible" id="N"><path d="M2.25 0h-.313v-2.031l-.609 1.39h-.187L.53-2.03V0H.234v-2.344h.438l.578 1.297.563-1.297h.437zm0 0"/></symbol><symbol overflow="visible" id="O"><path d="M1.656-2L.625 0H.297l1.078-2.078H.156v-.266h1.5zm0 0"/></symbol><symbol overflow="visible" id="P"><path d="M1.594-.75a.973.973 0 0 1-.047.313.74.74 0 0 1-.156.25.61.61 0 0 1-.25.171.847.847 0 0 1-.329.063A1.8 1.8 0 0 1 .484.016a1.954 1.954 0 0 1-.28-.094v-.344h.015a.25.25 0 0 0 .11.063.74.74 0 0 0 .14.062.73.73 0 0 0 .172.047.41.41 0 0 0 .171.031A.416.416 0 0 0 1-.266a.31.31 0 0 0 .156-.109c.04-.04.07-.094.094-.156a.72.72 0 0 0 0-.422.967.967 0 0 0-.11-.14.648.648 0 0 0-.156-.079.917.917 0 0 0-.234-.031c-.086 0-.168.012-.25.031-.086.012-.152.024-.203.031v-1.203h1.281v.266H.594v.625h.11a.32.32 0 0 0 .109-.016c.113 0 .21.012.296.032a.788.788 0 0 1 .25.125c.07.054.13.125.172.218.04.086.063.2.063.344zm0 0"/></symbol><symbol overflow="visible" id="Q"><path d="M1.688-.813h-.282V0H1.11v-.813H.063v-.328l1.046-1.203h.297v1.281h.282zm-.579-.25v-.921l-.796.921zm0 0"/></symbol><symbol overflow="visible" id="R"><path d="M1.625 0H.172v-.328A9.33 9.33 0 0 1 .469-.61c.094-.094.18-.188.265-.282.176-.195.301-.359.375-.484a.737.737 0 0 0 .094-.36.428.428 0 0 0-.11-.297.814.814 0 0 0-.14-.077.841.841 0 0 0-.156-.016c-.055 0-.11.008-.172.016a4.337 4.337 0 0 1-.156.062.342.342 0 0 0-.125.063 2.172 2.172 0 0 0-.11.062H.22v-.344c.062-.03.156-.062.281-.093.113-.032.223-.047.328-.047.219 0 .39.058.516.172a.66.66 0 0 1 .187.484.95.95 0 0 1-.031.25 2.037 2.037 0 0 1-.094.219c-.043.062-.09.133-.14.203-.055.074-.11.14-.172.203l-.328.328C.64-.43.539-.336.469-.266h1.156zm0 0"/></symbol><symbol overflow="visible" id="S"><path d="M1.922 0h-.36L.532-2.031V0H.233v-2.344h.454l.937 1.86v-1.86h.297zm0 0"/></symbol><symbol overflow="visible" id="T"><path d="M1.313-1.39c0-.157-.016-.286-.047-.391a.74.74 0 0 0-.125-.235A.552.552 0 0 0 1-2.109a.37.37 0 0 0-.156-.032A.353.353 0 0 0 .547-2c-.086.094-.125.23-.125.406 0 .094.016.172.047.235a.28.28 0 0 0 .125.171c.031.032.07.055.125.063a.816.816 0 0 0 .39-.016c.07-.02.141-.05.204-.093v-.157zM.109-1.595a.86.86 0 0 1 .063-.328.628.628 0 0 1 .156-.25.702.702 0 0 1 .813-.172.793.793 0 0 1 .234.156c.082.086.145.2.188.344.039.137.062.313.062.532 0 .187-.023.37-.063.546-.042.18-.105.325-.187.438a.93.93 0 0 1-.328.281 1.044 1.044 0 0 1-.469.094.724.724 0 0 1-.14-.016.644.644 0 0 1-.127-.014v-.297h.016a.37.37 0 0 0 .125.031c.05.023.11.031.172.031.195 0 .36-.066.484-.203.114-.144.18-.344.204-.594a.714.714 0 0 1-.25.125.634.634 0 0 1-.25.047.74.74 0 0 1-.454-.14.526.526 0 0 1-.187-.25.86.86 0 0 1-.063-.36zm0 0"/></symbol><symbol overflow="visible" id="U"><path d="M1.656-.766a.961.961 0 0 1-.062.344.528.528 0 0 1-.157.25.666.666 0 0 1-.234.156A.786.786 0 0 1 .625 0a.756.756 0 0 1-.234-.172A.713.713 0 0 1 .203-.5a1.887 1.887 0 0 1-.062-.531 1.53 1.53 0 0 1 .062-.563 1.29 1.29 0 0 1 .188-.422.966.966 0 0 1 .328-.28c.133-.063.289-.095.469-.095h.156c.039.012.078.024.11.032v.296h-.016c-.024-.007-.063-.023-.125-.046a1.17 1.17 0 0 0-.172-.016.62.62 0 0 0-.47.203c-.124.125-.198.32-.218.578a.716.716 0 0 1 .234-.11.745.745 0 0 1 .266-.046c.082 0 .16.012.235.031a.88.88 0 0 1 .218.11.605.605 0 0 1 .188.25.9.9 0 0 1 .062.343zm-.312.016A.634.634 0 0 0 1.297-1a.32.32 0 0 0-.125-.156c-.043-.032-.086-.055-.125-.078C.984-1.242.926-1.25.875-1.25a.538.538 0 0 0-.219.047 1.527 1.527 0 0 0-.203.094v.14c0 .168.016.305.047.406.031.094.07.168.125.22a.29.29 0 0 0 .14.109.31.31 0 0 0 .157.03.358.358 0 0 0 .297-.14c.082-.094.125-.226.125-.406zm0 0"/></symbol><symbol overflow="visible" id="w"><path d="M0 .781h2.078V0h.266v1.89h-.266v-.796H0zm0 0"/></symbol><symbol overflow="visible" id="x"><path d="M0 1.5V.36h.234v.42h1.579V.36h.218c0 .157.02.274.063.36.05.07.14.113.265.125v.25H.234V1.5zm0 0"/></symbol><symbol overflow="visible" id="y"><path d="M0 1.625V.172h.328C.43.273.523.375.61.469c.094.094.188.18.282.265.195.176.359.301.484.375a.737.737 0 0 0 .36.094.428.428 0 0 0 .297-.11.814.814 0 0 0 .077-.14.841.841 0 0 0 .016-.156c0-.055-.008-.11-.016-.172a4.337 4.337 0 0 1-.062-.156.342.342 0 0 0-.063-.125 2.172 2.172 0 0 0-.062-.11V.22h.344c.03.062.062.156.093.281.032.113.047.223.047.328 0 .219-.058.39-.172.516a.66.66 0 0 1-.484.187.95.95 0 0 1-.25-.031 2.037 2.037 0 0 1-.219-.094c-.062-.043-.133-.09-.203-.14a1.746 1.746 0 0 1-.203-.172L.547.766A12.592 12.592 0 0 0 .266.469v1.156zm0 0"/></symbol><symbol overflow="visible" id="z"><path d="M2.125.813c0-.063-.008-.122-.016-.172L2.047.469a2.172 2.172 0 0 0-.125-.234V.218h.328A1 1 0 0 1 2.36.5a1.232 1.232 0 0 1 .015.61c-.031.081-.07.156-.11.218a.799.799 0 0 1-.187.156.57.57 0 0 1-.25.047.485.485 0 0 1-.328-.125.486.486 0 0 1-.188-.297h-.03l-.048.157a.602.602 0 0 1-.109.156.651.651 0 0 1-.172.11.83.83 0 0 1-.547 0A.774.774 0 0 1 0 1.125a1.039 1.039 0 0 1-.047-.33c0-.116.016-.23.047-.343A.83.83 0 0 1 .094.156h.328v.016a1.06 1.06 0 0 0-.125.266.774.774 0 0 0-.078.343c0 .063.008.125.031.188a.31.31 0 0 0 .11.156c.038.05.093.086.156.11a.58.58 0 0 0 .203.03.487.487 0 0 0 .219-.046.34.34 0 0 0 .125-.094.376.376 0 0 0 .062-.156 1.65 1.65 0 0 0 .016-.203V.64h.265v.093a.57.57 0 0 0 .094.344c.07.094.172.14.297.14a.37.37 0 0 0 .156-.03.415.415 0 0 0 .156-.219c.008-.055.016-.106.016-.157zm0 0"/></symbol></defs><use xlink:href="#a" x="178.557" y="327.525" fill="#505050"/><use xlink:href="#b" x="178.557" y="329.205" fill="#505050"/><use xlink:href="#c" x="178.557" y="330.765" fill="#505050"/><path d="M184.621 329.82v-14.398m0 0v-50.344m14.399 50.344h-7.2m0 0h-7.199m35.938-14.402H206.16m0 0v14.402m-14.34-28.801v-7.14m0 21.539v-21.54m14.34 7.141h7.2m-7.2 0v7.2m0-28.743h-14.34m28.739 0v7.203m0 0h7.203m-28.742 35.938V286.62m0 .001v-14.34m28.742 28.739v-7.2m0 0h7.199m-7.199 14.399v7.203m0 0h-14.403m.001 14.398v-7.199m0 0v-7.2m-21.54 14.399h14.34m36-43.199v-3.543m0 3.543v-7.14m0 7.14v14.399m0 21.601V301.02m0 0h-7.2m-14.401-21.54h21.601" fill="none" stroke-width="3.6" stroke-linecap="round" stroke-linejoin="round" stroke="navy" stroke-miterlimit="10"/><path d="M206.16 266.941a1.862 1.862 0 0 1 0-3.722 1.861 1.861 0 0 1 0 3.722" fill-rule="evenodd" fill="green"/><path d="M206.16 266.941a1.862 1.862 0 0 1 0-3.722 1.861 1.861 0 0 1 0 3.722zm0 0" fill="none" stroke-width=".12" stroke-linecap="round" stroke-linejoin="round" stroke="green" stroke-miterlimit="10"/><path d="M206.16 266.219a1.14 1.14 0 1 1-.002-2.28 1.14 1.14 0 0 1 .002 2.28" fill-rule="evenodd" fill="#fff"/><path d="M206.16 266.219a1.14 1.14 0 1 1-.002-2.28 1.14 1.14 0 0 1 .002 2.28zm0 0" fill="none" stroke-width=".06" stroke-linecap="square" stroke-linejoin="bevel" stroke="#000" stroke-miterlimit="10"/><path d="M220.559 266.941a1.862 1.862 0 0 1 0-3.722c1.027 0 1.863.836 1.863 1.86a1.865 1.865 0 0 1-1.863 1.862" fill-rule="evenodd" fill="green"/><path d="M220.559 266.941a1.862 1.862 0 0 1 0-3.722c1.027 0 1.863.836 1.863 1.86a1.865 1.865 0 0 1-1.863 1.862zm0 0" fill="none" stroke-width=".12" stroke-linecap="round" stroke-linejoin="round" stroke="green" stroke-miterlimit="10"/><path d="M220.559 266.219a1.136 1.136 0 0 1-1.137-1.14 1.139 1.139 0 1 1 1.137 1.14" fill-rule="evenodd" fill="#fff"/><path d="M220.559 266.219a1.136 1.136 0 0 1-1.137-1.14 1.139 1.139 0 1 1 1.137 1.14zm0 0" fill="none" stroke-width=".06" stroke-linecap="square" stroke-linejoin="bevel" stroke="#000" stroke-miterlimit="10"/><path d="M206.16 331.559a1.74 1.74 0 1 1 0-3.48 1.74 1.74 0 0 1 0 3.48" fill-rule="evenodd" fill="green"/><path d="M206.16 331.559a1.74 1.74 0 1 1 0-3.48 1.74 1.74 0 0 1 0 3.48zm0 0" fill="none" stroke-width=".12" stroke-linecap="round" stroke-linejoin="round" stroke="green" stroke-miterlimit="10"/><path d="M206.16 330.84a1.02 1.02 0 1 1 .002-2.04 1.02 1.02 0 0 1-.002 2.04" fill-rule="evenodd" fill="#fff"/><path d="M206.16 330.84a1.02 1.02 0 1 1 .002-2.04 1.02 1.02 0 0 1-.002 2.04zm0 0" fill="none" stroke-width=".06" stroke-linecap="square" stroke-linejoin="bevel" stroke="#000" stroke-miterlimit="10"/><path d="M211.621 328.078v3.48h3.48v-3.48zm0 0" fill="green" stroke-width=".12" stroke-linecap="round" stroke-linejoin="round" stroke="green" stroke-miterlimit="10"/><path d="M213.36 330.84a1.02 1.02 0 1 1 0-2.04 1.02 1.02 0 0 1 0 2.04" fill-rule="evenodd" fill="#fff"/><path d="M213.36 330.84a1.02 1.02 0 1 1 0-2.04 1.02 1.02 0 0 1 0 2.04zm0 0" fill="none" stroke-width=".06" stroke-linecap="square" stroke-linejoin="bevel" stroke="#000" stroke-miterlimit="10"/><path d="M191.82 302.879a1.859 1.859 0 1 1 0-3.718 1.859 1.859 0 0 1 0 3.718" fill-rule="evenodd" fill="green"/><path d="M191.82 302.879a1.859 1.859 0 1 1 0-3.718 1.859 1.859 0 0 1 0 3.718zm0 0" fill="none" stroke-width=".12" stroke-linecap="round" stroke-linejoin="round" stroke="green" stroke-miterlimit="10"/><path d="M191.82 302.16a1.141 1.141 0 0 1 0-2.281 1.14 1.14 0 0 1 0 2.281" fill-rule="evenodd" fill="#fff"/><path d="M191.82 302.16a1.141 1.141 0 0 1 0-2.281 1.14 1.14 0 0 1 0 2.281zm0 0" fill="none" stroke-width=".06" stroke-linecap="square" stroke-linejoin="bevel" stroke="#000" stroke-miterlimit="10"/><path d="M191.82 317.281a1.861 1.861 0 0 1 0-3.722 1.862 1.862 0 0 1 0 3.722" fill-rule="evenodd" fill="green"/><path d="M191.82 317.281a1.861 1.861 0 0 1 0-3.722 1.862 1.862 0 0 1 0 3.722zm0 0" fill="none" stroke-width=".12" stroke-linecap="round" stroke-linejoin="round" stroke="green" stroke-miterlimit="10"/><path d="M191.82 316.559a1.139 1.139 0 1 1 0-2.278 1.14 1.14 0 1 1 0 2.278" fill-rule="evenodd" fill="#fff"/><path d="M191.82 316.559a1.139 1.139 0 1 1 0-2.278 1.14 1.14 0 1 1 0 2.278zm0 0" fill="none" stroke-width=".06" stroke-linecap="square" stroke-linejoin="bevel" stroke="#000" stroke-miterlimit="10"/><path d="M227.762 274.14a1.862 1.862 0 0 1-1.864-1.859 1.862 1.862 0 0 1 3.723 0c0 1.028-.836 1.86-1.86 1.86" fill-rule="evenodd" fill="green"/><path d="M227.762 274.14a1.862 1.862 0 0 1-1.864-1.859 1.862 1.862 0 0 1 3.723 0c0 1.028-.836 1.86-1.86 1.86zm0 0" fill="none" stroke-width=".12" stroke-linecap="round" stroke-linejoin="round" stroke="green" stroke-miterlimit="10"/><path d="M227.762 273.422a1.14 1.14 0 0 1-1.14-1.14c0-.634.507-1.141 1.14-1.141.629 0 1.136.507 1.136 1.14 0 .63-.507 1.14-1.136 1.14" fill-rule="evenodd" fill="#fff"/><path d="M227.762 273.422a1.14 1.14 0 0 1-1.14-1.14c0-.634.507-1.141 1.14-1.141.629 0 1.136.507 1.136 1.14 0 .63-.507 1.14-1.136 1.14zm0 0" fill="none" stroke-width=".06" stroke-linecap="square" stroke-linejoin="bevel" stroke="#000" stroke-miterlimit="10"/><path d="M199.02 274.14a1.859 1.859 0 1 1-.002-3.717 1.859 1.859 0 0 1 .002 3.718" fill-rule="evenodd" fill="green"/><path d="M199.02 274.14a1.859 1.859 0 1 1-.002-3.717 1.859 1.859 0 0 1 .002 3.718zm0 0" fill="none" stroke-width=".12" stroke-linecap="round" stroke-linejoin="round" stroke="green" stroke-miterlimit="10"/><path d="M199.02 273.422a1.14 1.14 0 1 1 1.14-1.14c0 .628-.512 1.14-1.14 1.14" fill-rule="evenodd" fill="#fff"/><path d="M199.02 273.422a1.14 1.14 0 1 1 1.14-1.14c0 .628-.512 1.14-1.14 1.14zm0 0" fill="none" stroke-width=".06" stroke-linecap="square" stroke-linejoin="bevel" stroke="#000" stroke-miterlimit="10"/><path d="M199.02 310.078a1.859 1.859 0 1 1-.002-3.718 1.859 1.859 0 0 1 .002 3.718" fill-rule="evenodd" fill="green"/><path d="M199.02 310.078a1.859 1.859 0 1 1-.002-3.718 1.859 1.859 0 0 1 .002 3.718zm0 0" fill="none" stroke-width=".12" stroke-linecap="round" stroke-linejoin="round" stroke="green" stroke-miterlimit="10"/><path d="M199.02 309.36a1.14 1.14 0 1 1 0-2.282 1.14 1.14 0 1 1 0 2.281" fill-rule="evenodd" fill="#fff"/><path d="M199.02 309.36a1.14 1.14 0 1 1 0-2.282 1.14 1.14 0 1 1 0 2.281zm0 0" fill="none" stroke-width=".06" stroke-linecap="square" stroke-linejoin="bevel" stroke="#000" stroke-miterlimit="10"/><path d="M227.762 310.078a1.862 1.862 0 0 1-1.864-1.86 1.862 1.862 0 0 1 3.723 0c0 1.028-.836 1.86-1.86 1.86" fill-rule="evenodd" fill="green"/><path d="M227.762 310.078a1.862 1.862 0 0 1-1.864-1.86 1.862 1.862 0 0 1 3.723 0c0 1.028-.836 1.86-1.86 1.86zm0 0" fill="none" stroke-width=".12" stroke-linecap="round" stroke-linejoin="round" stroke="green" stroke-miterlimit="10"/><path d="M227.762 309.36c-.633 0-1.14-.508-1.14-1.141a1.14 1.14 0 1 1 2.276 0c0 .633-.507 1.14-1.136 1.14" fill-rule="evenodd" fill="#fff"/><path d="M227.762 309.36c-.633 0-1.14-.508-1.14-1.141a1.14 1.14 0 1 1 2.276 0c0 .633-.507 1.14-1.136 1.14zm0 0" fill="none" stroke-width=".06" stroke-linecap="square" stroke-linejoin="bevel" stroke="#000" stroke-miterlimit="10"/><path d="M206.16 295.68a1.859 1.859 0 1 1-.001-3.718 1.859 1.859 0 0 1 .001 3.718" fill-rule="evenodd" fill="green"/><path d="M206.16 295.68a1.859 1.859 0 1 1-.001-3.718 1.859 1.859 0 0 1 .001 3.718zm0 0" fill="none" stroke-width=".12" stroke-linecap="round" stroke-linejoin="round" stroke="green" stroke-miterlimit="10"/><path d="M206.16 294.96a1.14 1.14 0 1 1 0-2.28 1.14 1.14 0 0 1 0 2.28" fill-rule="evenodd" fill="#fff"/><path d="M206.16 294.96a1.14 1.14 0 1 1 0-2.28 1.14 1.14 0 0 1 0 2.28zm0 0" fill="none" stroke-width=".06" stroke-linecap="square" stroke-linejoin="bevel" stroke="#000" stroke-miterlimit="10"/><path d="M234.96 295.68a1.859 1.859 0 1 1 0-3.718 1.859 1.859 0 0 1 0 3.718" fill-rule="evenodd" fill="green"/><path d="M234.96 295.68a1.859 1.859 0 1 1 0-3.718 1.859 1.859 0 0 1 0 3.718zm0 0" fill="none" stroke-width=".12" stroke-linecap="round" stroke-linejoin="round" stroke="green" stroke-miterlimit="10"/><path d="M234.96 294.96a1.14 1.14 0 1 1 0-2.28 1.141 1.141 0 0 1 .001 2.28" fill-rule="evenodd" fill="#fff"/><path d="M234.96 294.96a1.14 1.14 0 1 1 0-2.28 1.141 1.141 0 0 1 .001 2.28zm0 0" fill="none" stroke-width=".06" stroke-linecap="square" stroke-linejoin="bevel" stroke="#000" stroke-miterlimit="10"/><path d="M242.16 288.48a1.859 1.859 0 1 1-.001-3.717 1.859 1.859 0 0 1 .001 3.717" fill-rule="evenodd" fill="green"/><path d="M242.16 288.48a1.859 1.859 0 1 1-.001-3.717 1.859 1.859 0 0 1 .001 3.717zm0 0" fill="none" stroke-width=".12" stroke-linecap="round" stroke-linejoin="round" stroke="green" stroke-miterlimit="10"/><path d="M242.16 287.762a1.14 1.14 0 1 1 1.14-1.14c0 .628-.51 1.14-1.14 1.14" fill-rule="evenodd" fill="#fff"/><path d="M242.16 287.762a1.14 1.14 0 1 1 1.14-1.14c0 .628-.51 1.14-1.14 1.14zm0 0" fill="none" stroke-width=".06" stroke-linecap="square" stroke-linejoin="bevel" stroke="#000" stroke-miterlimit="10"/><path d="M213.36 288.48a1.859 1.859 0 1 1-.002-3.717 1.859 1.859 0 0 1 .001 3.717" fill-rule="evenodd" fill="green"/><path d="M213.36 288.48a1.859 1.859 0 1 1-.002-3.717 1.859 1.859 0 0 1 .001 3.717zm0 0" fill="none" stroke-width=".12" stroke-linecap="round" stroke-linejoin="round" stroke="green" stroke-miterlimit="10"/><path d="M213.36 287.762a1.14 1.14 0 1 1 1.14-1.14c0 .628-.512 1.14-1.14 1.14" fill-rule="evenodd" fill="#fff"/><path d="M213.36 287.762a1.14 1.14 0 1 1 1.14-1.14c0 .628-.512 1.14-1.14 1.14zm0 0" fill="none" stroke-width=".06" stroke-linecap="square" stroke-linejoin="bevel" stroke="#000" stroke-miterlimit="10"/><path d="M220.559 281.34a1.859 1.859 0 1 1 0-3.719c1.027 0 1.863.832 1.863 1.86a1.862 1.862 0 0 1-1.863 1.859" fill-rule="evenodd" fill="green"/><path d="M220.559 281.34a1.859 1.859 0 1 1 0-3.719c1.027 0 1.863.832 1.863 1.86a1.862 1.862 0 0 1-1.863 1.859zm0 0" fill="none" stroke-width=".12" stroke-linecap="round" stroke-linejoin="round" stroke="green" stroke-miterlimit="10"/><path d="M220.559 280.621a1.139 1.139 0 0 1-1.137-1.14 1.139 1.139 0 1 1 2.277 0c0 .628-.512 1.14-1.14 1.14" fill-rule="evenodd" fill="#fff"/><path d="M220.559 280.621a1.139 1.139 0 0 1-1.137-1.14 1.139 1.139 0 1 1 2.277 0c0 .628-.511 1.14-1.14 1.14zm0 0" fill="none" stroke-width=".06" stroke-linecap="square" stroke-linejoin="bevel" stroke="#000" stroke-miterlimit="10"/><path d="M191.82 281.34a1.859 1.859 0 1 1 0-3.718 1.859 1.859 0 0 1 0 3.718" fill-rule="evenodd" fill="green"/><path d="M191.82 281.34a1.859 1.859 0 1 1 0-3.718 1.859 1.859 0 0 1 0 3.718zm0 0" fill="none" stroke-width=".12" stroke-linecap="round" stroke-linejoin="round" stroke="green" stroke-miterlimit="10"/><path d="M191.82 280.621a1.141 1.141 0 0 1 0-2.281 1.14 1.14 0 0 1 0 2.281" fill-rule="evenodd" fill="#fff"/><path d="M191.82 280.621a1.141 1.141 0 0 1 0-2.281 1.14 1.14 0 0 1 0 2.281zm0 0" fill="none" stroke-width=".06" stroke-linecap="square" stroke-linejoin="bevel" stroke="#000" stroke-miterlimit="10"/><path d="M242.16 324.48a1.859 1.859 0 1 1-.001-3.717 1.859 1.859 0 0 1 .001 3.717" fill-rule="evenodd" fill="green"/><path d="M242.16 324.48a1.859 1.859 0 1 1-.001-3.717 1.859 1.859 0 0 1 .001 3.717zm0 0" fill="none" stroke-width=".12" stroke-linecap="round" stroke-linejoin="round" stroke="green" stroke-miterlimit="10"/><path d="M242.16 323.762a1.14 1.14 0 1 1 1.14-1.14c0 .628-.51 1.14-1.14 1.14" fill-rule="evenodd" fill="#fff"/><path d="M242.16 323.762a1.14 1.14 0 1 1 1.14-1.14c0 .628-.51 1.14-1.14 1.14zm0 0" fill="none" stroke-width=".06" stroke-linecap="square" stroke-linejoin="bevel" stroke="#000" stroke-miterlimit="10"/><path d="M213.36 324.48a1.859 1.859 0 1 1-.002-3.717 1.859 1.859 0 0 1 .001 3.717" fill-rule="evenodd" fill="green"/><path d="M213.36 324.48a1.859 1.859 0 1 1-.002-3.717 1.859 1.859 0 0 1 .001 3.717zm0 0" fill="none" stroke-width=".12" stroke-linecap="round" stroke-linejoin="round" stroke="green" stroke-miterlimit="10"/><path d="M213.36 323.762a1.14 1.14 0 1 1 1.14-1.14c0 .628-.512 1.14-1.14 1.14" fill-rule="evenodd" fill="#fff"/><path d="M213.36 323.762a1.14 1.14 0 1 1 1.14-1.14c0 .628-.512 1.14-1.14 1.14zm0 0" fill="none" stroke-width=".06" stroke-linecap="square" stroke-linejoin="bevel" stroke="#000" stroke-miterlimit="10"/><path d="M205.379 288.48l-1.078-1.082v-1.558l1.078-1.078h1.562l1.079 1.078v1.558l-1.079 1.082h-1.562" fill="green"/><path d="M205.379 288.48l-1.078-1.082v-1.558l1.078-1.078h1.562l1.079 1.078v1.558l-1.079 1.082zm0 0" fill="none" stroke-width=".12" stroke-linecap="round" stroke-linejoin="round" stroke="green" stroke-miterlimit="10"/><path d="M206.16 287.762a1.14 1.14 0 1 1 1.14-1.14c0 .628-.51 1.14-1.14 1.14" fill-rule="evenodd" fill="#fff"/><path d="M206.16 287.762a1.14 1.14 0 1 1 1.14-1.14c0 .628-.51 1.14-1.14 1.14zm0 0" fill="none" stroke-width=".06" stroke-linecap="square" stroke-linejoin="bevel" stroke="#000" stroke-miterlimit="10"/><path d="M191.04 288.48l-1.08-1.082v-1.558l1.08-1.078h1.562l1.078 1.078v1.558l-1.078 1.082h-1.563" fill="green"/><path d="M191.04 288.48l-1.08-1.082v-1.558l1.08-1.078h1.562l1.078 1.078v1.558l-1.078 1.082zm0 0" fill="none" stroke-width=".12" stroke-linecap="round" stroke-linejoin="round" stroke="green" stroke-miterlimit="10"/><path d="M191.82 287.762a1.14 1.14 0 1 1 1.14-1.14c0 .628-.51 1.14-1.14 1.14" fill-rule="evenodd" fill="#fff"/><path d="M191.82 287.762a1.14 1.14 0 1 1 1.14-1.14c0 .628-.51 1.14-1.14 1.14zm0 0" fill="none" stroke-width=".06" stroke-linecap="square" stroke-linejoin="bevel" stroke="#000" stroke-miterlimit="10"/><path d="M198.238 288.48l-1.078-1.082v-1.558l1.078-1.078h1.563l1.078 1.078v1.558l-1.078 1.082h-1.563" fill="green"/><path d="M198.238 288.48l-1.078-1.082v-1.558l1.078-1.078h1.563l1.078 1.078v1.558l-1.078 1.082zm0 0" fill="none" stroke-width=".12" stroke-linecap="round" stroke-linejoin="round" stroke="green" stroke-miterlimit="10"/><path d="M199.02 287.762a1.14 1.14 0 1 1 1.14-1.14c0 .628-.512 1.14-1.14 1.14" fill-rule="evenodd" fill="#fff"/><path d="M199.02 287.762a1.14 1.14 0 1 1 1.14-1.14c0 .628-.512 1.14-1.14 1.14zm0 0" fill="none" stroke-width=".06" stroke-linecap="square" stroke-linejoin="bevel" stroke="#000" stroke-miterlimit="10"/><path d="M212.578 317.281L211.5 316.2v-1.558l1.078-1.082h1.563l1.078 1.082v1.558l-1.078 1.082h-1.563" fill="green"/><path d="M212.578 317.281L211.5 316.2v-1.558l1.078-1.082h1.563l1.078 1.082v1.558l-1.078 1.082zm0 0" fill="none" stroke-width=".12" stroke-linecap="round" stroke-linejoin="round" stroke="green" stroke-miterlimit="10"/><path d="M213.36 316.559a1.139 1.139 0 1 1 0-2.278 1.14 1.14 0 1 1 0 2.278" fill-rule="evenodd" fill="#fff"/><path d="M213.36 316.559a1.139 1.139 0 1 1 0-2.278 1.14 1.14 0 1 1 0 2.278zm0 0" fill="none" stroke-width=".06" stroke-linecap="square" stroke-linejoin="bevel" stroke="#000" stroke-miterlimit="10"/><path d="M198.238 317.281l-1.078-1.082v-1.558l1.078-1.082h1.563l1.078 1.082v1.558l-1.078 1.082h-1.563" fill="green"/><path d="M198.238 317.281l-1.078-1.082v-1.558l1.078-1.082h1.563l1.078 1.082v1.558l-1.078 1.082zm0 0" fill="none" stroke-width=".12" stroke-linecap="round" stroke-linejoin="round" stroke="green" stroke-miterlimit="10"/><path d="M199.02 316.559a1.139 1.139 0 1 1 0-2.278 1.14 1.14 0 1 1 0 2.278" fill-rule="evenodd" fill="#fff"/><path d="M199.02 316.559a1.139 1.139 0 1 1 0-2.278 1.14 1.14 0 1 1 0 2.278zm0 0" fill="none" stroke-width=".06" stroke-linecap="square" stroke-linejoin="bevel" stroke="#000" stroke-miterlimit="10"/><path d="M205.379 317.281L204.3 316.2v-1.558l1.078-1.082h1.562l1.079 1.082v1.558l-1.079 1.082h-1.562" fill="green"/><path d="M205.379 317.281L204.3 316.2v-1.558l1.078-1.082h1.562l1.079 1.082v1.558l-1.079 1.082zm0 0" fill="none" stroke-width=".12" stroke-linecap="round" stroke-linejoin="round" stroke="green" stroke-miterlimit="10"/><path d="M206.16 316.559a1.139 1.139 0 1 1 0-2.278 1.14 1.14 0 1 1 0 2.278" fill-rule="evenodd" fill="#fff"/><path d="M206.16 316.559a1.139 1.139 0 1 1 0-2.278 1.14 1.14 0 1 1 0 2.278zm0 0" fill="none" stroke-width=".06" stroke-linecap="square" stroke-linejoin="bevel" stroke="#000" stroke-miterlimit="10"/><path d="M219.781 302.879L218.7 301.8v-1.563l1.082-1.078h1.559l1.082 1.078v1.563l-1.082 1.078h-1.559" fill="green"/><path d="M219.781 302.879L218.7 301.8v-1.563l1.082-1.078h1.559l1.082 1.078v1.563l-1.082 1.078zm0 0" fill="none" stroke-width=".12" stroke-linecap="round" stroke-linejoin="round" stroke="green" stroke-miterlimit="10"/><path d="M220.559 302.16a1.139 1.139 0 0 1-1.137-1.14 1.139 1.139 0 1 1 2.277 0c0 .628-.512 1.14-1.14 1.14" fill-rule="evenodd" fill="#fff"/><path d="M220.559 302.16a1.139 1.139 0 0 1-1.137-1.14 1.139 1.139 0 1 1 2.277 0c0 .628-.511 1.14-1.14 1.14zm0 0" fill="none" stroke-width=".06" stroke-linecap="square" stroke-linejoin="bevel" stroke="#000" stroke-miterlimit="10"/><path d="M234.18 302.879l-1.078-1.078v-1.563l1.078-1.078h1.558l1.082 1.078v1.563l-1.082 1.078h-1.558" fill="green"/><path d="M234.18 302.879l-1.078-1.078v-1.563l1.078-1.078h1.558l1.082 1.078v1.563l-1.082 1.078zm0 0" fill="none" stroke-width=".12" stroke-linecap="round" stroke-linejoin="round" stroke="green" stroke-miterlimit="10"/><path d="M234.96 302.16a1.14 1.14 0 1 1 0-2.281c.63 0 1.142.512 1.142 1.14 0 .63-.512 1.141-1.141 1.141" fill-rule="evenodd" fill="#fff"/><path d="M234.96 302.16a1.14 1.14 0 1 1 0-2.281c.63 0 1.142.512 1.142 1.14 0 .63-.512 1.141-1.141 1.141zm0 0" fill="none" stroke-width=".06" stroke-linecap="square" stroke-linejoin="bevel" stroke="#000" stroke-miterlimit="10"/><path d="M226.98 302.879l-1.082-1.078v-1.563l1.082-1.078h1.56l1.081 1.078v1.563l-1.082 1.078h-1.559" fill="green"/><path d="M226.98 302.879l-1.082-1.078v-1.563l1.082-1.078h1.56l1.081 1.078v1.563l-1.082 1.078zm0 0" fill="none" stroke-width=".12" stroke-linecap="round" stroke-linejoin="round" stroke="green" stroke-miterlimit="10"/><path d="M227.762 302.16a1.14 1.14 0 1 1-.003-2.279 1.14 1.14 0 0 1 .003 2.28" fill-rule="evenodd" fill="#fff"/><path d="M227.762 302.16a1.14 1.14 0 1 1-.003-2.279 1.14 1.14 0 0 1 .003 2.28zm0 0" fill="none" stroke-width=".06" stroke-linecap="square" stroke-linejoin="bevel" stroke="#000" stroke-miterlimit="10"/><path d="M184.621 267.602a2.519 2.519 0 0 1-2.52-2.524 2.52 2.52 0 1 1 2.52 2.523" fill-rule="evenodd" fill="green"/><path d="M184.621 267.602a2.519 2.519 0 0 1-2.52-2.524 2.52 2.52 0 1 1 2.52 2.523zm0 0" fill="none" stroke-width=".12" stroke-linecap="round" stroke-linejoin="round" stroke="green" stroke-miterlimit="10"/><path d="M184.621 266.52a1.44 1.44 0 1 1-.002-2.881 1.44 1.44 0 0 1 .002 2.88" fill-rule="evenodd" fill="#fff"/><path d="M184.621 266.52a1.44 1.44 0 1 1-.002-2.881 1.44 1.44 0 0 1 .002 2.88zm0 0" fill="none" stroke-width=".06" stroke-linecap="square" stroke-linejoin="bevel" stroke="#000" stroke-miterlimit="10"/><path d="M191.82 267.602a2.521 2.521 0 0 1 0-5.043 2.52 2.52 0 0 1 0 5.043" fill-rule="evenodd" fill="green"/><path d="M191.82 267.602a2.521 2.521 0 0 1 0-5.043 2.52 2.52 0 0 1 0 5.043zm0 0" fill="none" stroke-width=".12" stroke-linecap="round" stroke-linejoin="round" stroke="green" stroke-miterlimit="10"/><path d="M191.82 266.52a1.44 1.44 0 1 1-.002-2.881 1.44 1.44 0 0 1 .002 2.88" fill-rule="evenodd" fill="#fff"/><path d="M191.82 266.52a1.44 1.44 0 1 1-.002-2.881 1.44 1.44 0 0 1 .002 2.88zm0 0" fill="none" stroke-width=".06" stroke-linecap="square" stroke-linejoin="bevel" stroke="#000" stroke-miterlimit="10"/><path d="M184.621 332.34a2.518 2.518 0 0 1-2.52-2.52 2.52 2.52 0 1 1 2.52 2.52" fill-rule="evenodd" fill="green"/><path d="M184.621 332.34a2.518 2.518 0 0 1-2.52-2.52 2.52 2.52 0 1 1 2.52 2.52zm0 0" fill="none" stroke-width=".12" stroke-linecap="round" stroke-linejoin="round" stroke="green" stroke-miterlimit="10"/><path d="M184.621 331.262a1.44 1.44 0 1 1-.002-2.885 1.44 1.44 0 0 1 .002 2.885" fill-rule="evenodd" fill="#fff"/><path d="M184.621 331.262a1.44 1.44 0 1 1-.002-2.885 1.44 1.44 0 0 1 .002 2.885zm0 0" fill="none" stroke-width=".06" stroke-linecap="square" stroke-linejoin="bevel" stroke="#000" stroke-miterlimit="10"/><path d="M191.82 332.34a2.52 2.52 0 0 1 0-5.04 2.52 2.52 0 0 1 0 5.04" fill-rule="evenodd" fill="green"/><path d="M191.82 332.34a2.52 2.52 0 0 1 0-5.04 2.52 2.52 0 0 1 0 5.04zm0 0" fill="none" stroke-width=".12" stroke-linecap="round" stroke-linejoin="round" stroke="green" stroke-miterlimit="10"/><path d="M191.82 331.262a1.44 1.44 0 1 1-.002-2.885 1.44 1.44 0 0 1 .002 2.885" fill-rule="evenodd" fill="#fff"/><path d="M191.82 331.262a1.44 1.44 0 1 1-.002-2.885 1.44 1.44 0 0 1 .002 2.885zm0 0" fill="none" stroke-width=".06" stroke-linecap="square" stroke-linejoin="bevel" stroke="#000" stroke-miterlimit="10"/><path d="M206.16 266.941a1.862 1.862 0 0 1 0-3.722 1.861 1.861 0 0 1 0 3.722" fill-rule="evenodd" fill="green"/><path d="M206.16 266.941a1.862 1.862 0 0 1 0-3.722 1.861 1.861 0 0 1 0 3.722zm0 0" fill="none" stroke-width=".12" stroke-linecap="round" stroke-linejoin="round" stroke="green" stroke-miterlimit="10"/><path d="M206.16 266.219a1.14 1.14 0 1 1-.002-2.28 1.14 1.14 0 0 1 .002 2.28" fill-rule="evenodd" fill="#fff"/><path d="M206.16 266.219a1.14 1.14 0 1 1-.002-2.28 1.14 1.14 0 0 1 .002 2.28zm0 0" fill="none" stroke-width=".06" stroke-linecap="square" stroke-linejoin="bevel" stroke="#000" stroke-miterlimit="10"/><path d="M220.559 266.941a1.862 1.862 0 0 1 0-3.722c1.027 0 1.863.836 1.863 1.86a1.865 1.865 0 0 1-1.863 1.862" fill-rule="evenodd" fill="green"/><path d="M220.559 266.941a1.862 1.862 0 0 1 0-3.722c1.027 0 1.863.836 1.863 1.86a1.865 1.865 0 0 1-1.863 1.862zm0 0" fill="none" stroke-width=".12" stroke-linecap="round" stroke-linejoin="round" stroke="green" stroke-miterlimit="10"/><path d="M220.559 266.219a1.136 1.136 0 0 1-1.137-1.14 1.139 1.139 0 1 1 1.137 1.14" fill-rule="evenodd" fill="#fff"/><path d="M220.559 266.219a1.136 1.136 0 0 1-1.137-1.14 1.139 1.139 0 1 1 1.137 1.14zm0 0" fill="none" stroke-width=".06" stroke-linecap="square" stroke-linejoin="bevel" stroke="#000" stroke-miterlimit="10"/><path d="M206.16 331.559a1.74 1.74 0 1 1 0-3.48 1.74 1.74 0 0 1 0 3.48" fill-rule="evenodd" fill="green"/><path d="M206.16 331.559a1.74 1.74 0 1 1 0-3.48 1.74 1.74 0 0 1 0 3.48zm0 0" fill="none" stroke-width=".12" stroke-linecap="round" stroke-linejoin="round" stroke="green" stroke-miterlimit="10"/><path d="M206.16 330.84a1.02 1.02 0 1 1 .002-2.04 1.02 1.02 0 0 1-.002 2.04" fill-rule="evenodd" fill="#fff"/><path d="M206.16 330.84a1.02 1.02 0 1 1 .002-2.04 1.02 1.02 0 0 1-.002 2.04zm0 0" fill="none" stroke-width=".06" stroke-linecap="square" stroke-linejoin="bevel" stroke="#000" stroke-miterlimit="10"/><path d="M211.621 328.078v3.48h3.48v-3.48zm0 0" fill="green" stroke-width=".12" stroke-linecap="round" stroke-linejoin="round" stroke="green" stroke-miterlimit="10"/><path d="M213.36 330.84a1.02 1.02 0 1 1 0-2.04 1.02 1.02 0 0 1 0 2.04" fill-rule="evenodd" fill="#fff"/><path d="M213.36 330.84a1.02 1.02 0 1 1 0-2.04 1.02 1.02 0 0 1 0 2.04zm0 0" fill="none" stroke-width=".06" stroke-linecap="square" stroke-linejoin="bevel" stroke="#000" stroke-miterlimit="10"/><path d="M191.82 302.879a1.859 1.859 0 1 1 0-3.718 1.859 1.859 0 0 1 0 3.718" fill-rule="evenodd" fill="green"/><path d="M191.82 302.879a1.859 1.859 0 1 1 0-3.718 1.859 1.859 0 0 1 0 3.718zm0 0" fill="none" stroke-width=".12" stroke-linecap="round" stroke-linejoin="round" stroke="green" stroke-miterlimit="10"/><path d="M191.82 302.16a1.141 1.141 0 0 1 0-2.281 1.14 1.14 0 0 1 0 2.281" fill-rule="evenodd" fill="#fff"/><path d="M191.82 302.16a1.141 1.141 0 0 1 0-2.281 1.14 1.14 0 0 1 0 2.281zm0 0" fill="none" stroke-width=".06" stroke-linecap="square" stroke-linejoin="bevel" stroke="#000" stroke-miterlimit="10"/><path d="M191.82 317.281a1.861 1.861 0 0 1 0-3.722 1.862 1.862 0 0 1 0 3.722" fill-rule="evenodd" fill="green"/><path d="M191.82 317.281a1.861 1.861 0 0 1 0-3.722 1.862 1.862 0 0 1 0 3.722zm0 0" fill="none" stroke-width=".12" stroke-linecap="round" stroke-linejoin="round" stroke="green" stroke-miterlimit="10"/><path d="M191.82 316.559a1.139 1.139 0 1 1 0-2.278 1.14 1.14 0 1 1 0 2.278" fill-rule="evenodd" fill="#fff"/><path d="M191.82 316.559a1.139 1.139 0 1 1 0-2.278 1.14 1.14 0 1 1 0 2.278zm0 0" fill="none" stroke-width=".06" stroke-linecap="square" stroke-linejoin="bevel" stroke="#000" stroke-miterlimit="10"/><path d="M227.762 274.14a1.862 1.862 0 0 1-1.864-1.859 1.862 1.862 0 0 1 3.723 0c0 1.028-.836 1.86-1.86 1.86" fill-rule="evenodd" fill="green"/><path d="M227.762 274.14a1.862 1.862 0 0 1-1.864-1.859 1.862 1.862 0 0 1 3.723 0c0 1.028-.836 1.86-1.86 1.86zm0 0" fill="none" stroke-width=".12" stroke-linecap="round" stroke-linejoin="round" stroke="green" stroke-miterlimit="10"/><path d="M227.762 273.422a1.14 1.14 0 0 1-1.14-1.14c0-.634.507-1.141 1.14-1.141.629 0 1.136.507 1.136 1.14 0 .63-.507 1.14-1.136 1.14" fill-rule="evenodd" fill="#fff"/><path d="M227.762 273.422a1.14 1.14 0 0 1-1.14-1.14c0-.634.507-1.141 1.14-1.141.629 0 1.136.507 1.136 1.14 0 .63-.507 1.14-1.136 1.14zm0 0" fill="none" stroke-width=".06" stroke-linecap="square" stroke-linejoin="bevel" stroke="#000" stroke-miterlimit="10"/><path d="M199.02 274.14a1.859 1.859 0 1 1-.002-3.717 1.859 1.859 0 0 1 .002 3.718" fill-rule="evenodd" fill="green"/><path d="M199.02 274.14a1.859 1.859 0 1 1-.002-3.717 1.859 1.859 0 0 1 .002 3.718zm0 0" fill="none" stroke-width=".12" stroke-linecap="round" stroke-linejoin="round" stroke="green" stroke-miterlimit="10"/><path d="M199.02 273.422a1.14 1.14 0 1 1 1.14-1.14c0 .628-.512 1.14-1.14 1.14" fill-rule="evenodd" fill="#fff"/><path d="M199.02 273.422a1.14 1.14 0 1 1 1.14-1.14c0 .628-.512 1.14-1.14 1.14zm0 0" fill="none" stroke-width=".06" stroke-linecap="square" stroke-linejoin="bevel" stroke="#000" stroke-miterlimit="10"/><path d="M199.02 310.078a1.859 1.859 0 1 1-.002-3.718 1.859 1.859 0 0 1 .002 3.718" fill-rule="evenodd" fill="green"/><path d="M199.02 310.078a1.859 1.859 0 1 1-.002-3.718 1.859 1.859 0 0 1 .002 3.718zm0 0" fill="none" stroke-width=".12" stroke-linecap="round" stroke-linejoin="round" stroke="green" stroke-miterlimit="10"/><path d="M199.02 309.36a1.14 1.14 0 1 1 0-2.282 1.14 1.14 0 1 1 0 2.281" fill-rule="evenodd" fill="#fff"/><path d="M199.02 309.36a1.14 1.14 0 1 1 0-2.282 1.14 1.14 0 1 1 0 2.281zm0 0" fill="none" stroke-width=".06" stroke-linecap="square" stroke-linejoin="bevel" stroke="#000" stroke-miterlimit="10"/><path d="M227.762 310.078a1.862 1.862 0 0 1-1.864-1.86 1.862 1.862 0 0 1 3.723 0c0 1.028-.836 1.86-1.86 1.86" fill-rule="evenodd" fill="green"/><path d="M227.762 310.078a1.862 1.862 0 0 1-1.864-1.86 1.862 1.862 0 0 1 3.723 0c0 1.028-.836 1.86-1.86 1.86zm0 0" fill="none" stroke-width=".12" stroke-linecap="round" stroke-linejoin="round" stroke="green" stroke-miterlimit="10"/><path d="M227.762 309.36c-.633 0-1.14-.508-1.14-1.141a1.14 1.14 0 1 1 2.276 0c0 .633-.507 1.14-1.136 1.14" fill-rule="evenodd" fill="#fff"/><path d="M227.762 309.36c-.633 0-1.14-.508-1.14-1.141a1.14 1.14 0 1 1 2.276 0c0 .633-.507 1.14-1.136 1.14zm0 0" fill="none" stroke-width=".06" stroke-linecap="square" stroke-linejoin="bevel" stroke="#000" stroke-miterlimit="10"/><path d="M206.16 295.68a1.859 1.859 0 1 1-.001-3.718 1.859 1.859 0 0 1 .001 3.718" fill-rule="evenodd" fill="green"/><path d="M206.16 295.68a1.859 1.859 0 1 1-.001-3.718 1.859 1.859 0 0 1 .001 3.718zm0 0" fill="none" stroke-width=".12" stroke-linecap="round" stroke-linejoin="round" stroke="green" stroke-miterlimit="10"/><path d="M206.16 294.96a1.14 1.14 0 1 1 0-2.28 1.14 1.14 0 0 1 0 2.28" fill-rule="evenodd" fill="#fff"/><path d="M206.16 294.96a1.14 1.14 0 1 1 0-2.28 1.14 1.14 0 0 1 0 2.28zm0 0" fill="none" stroke-width=".06" stroke-linecap="square" stroke-linejoin="bevel" stroke="#000" stroke-miterlimit="10"/><path d="M234.96 295.68a1.859 1.859 0 1 1 0-3.718 1.859 1.859 0 0 1 0 3.718" fill-rule="evenodd" fill="green"/><path d="M234.96 295.68a1.859 1.859 0 1 1 0-3.718 1.859 1.859 0 0 1 0 3.718zm0 0" fill="none" stroke-width=".12" stroke-linecap="round" stroke-linejoin="round" stroke="green" stroke-miterlimit="10"/><path d="M234.96 294.96a1.14 1.14 0 1 1 0-2.28 1.141 1.141 0 0 1 .001 2.28" fill-rule="evenodd" fill="#fff"/><path d="M234.96 294.96a1.14 1.14 0 1 1 0-2.28 1.141 1.141 0 0 1 .001 2.28zm0 0" fill="none" stroke-width=".06" stroke-linecap="square" stroke-linejoin="bevel" stroke="#000" stroke-miterlimit="10"/><path d="M242.16 288.48a1.859 1.859 0 1 1-.001-3.717 1.859 1.859 0 0 1 .001 3.717" fill-rule="evenodd" fill="green"/><path d="M242.16 288.48a1.859 1.859 0 1 1-.001-3.717 1.859 1.859 0 0 1 .001 3.717zm0 0" fill="none" stroke-width=".12" stroke-linecap="round" stroke-linejoin="round" stroke="green" stroke-miterlimit="10"/><path d="M242.16 287.762a1.14 1.14 0 1 1 1.14-1.14c0 .628-.51 1.14-1.14 1.14" fill-rule="evenodd" fill="#fff"/><path d="M242.16 287.762a1.14 1.14 0 1 1 1.14-1.14c0 .628-.51 1.14-1.14 1.14zm0 0" fill="none" stroke-width=".06" stroke-linecap="square" stroke-linejoin="bevel" stroke="#000" stroke-miterlimit="10"/><path d="M213.36 288.48a1.859 1.859 0 1 1-.002-3.717 1.859 1.859 0 0 1 .001 3.717" fill-rule="evenodd" fill="green"/><path d="M213.36 288.48a1.859 1.859 0 1 1-.002-3.717 1.859 1.859 0 0 1 .001 3.717zm0 0" fill="none" stroke-width=".12" stroke-linecap="round" stroke-linejoin="round" stroke="green" stroke-miterlimit="10"/><path d="M213.36 287.762a1.14 1.14 0 1 1 1.14-1.14c0 .628-.512 1.14-1.14 1.14" fill-rule="evenodd" fill="#fff"/><path d="M213.36 287.762a1.14 1.14 0 1 1 1.14-1.14c0 .628-.512 1.14-1.14 1.14zm0 0" fill="none" stroke-width=".06" stroke-linecap="square" stroke-linejoin="bevel" stroke="#000" stroke-miterlimit="10"/><path d="M220.559 281.34a1.859 1.859 0 1 1 0-3.719c1.027 0 1.863.832 1.863 1.86a1.862 1.862 0 0 1-1.863 1.859" fill-rule="evenodd" fill="green"/><path d="M220.559 281.34a1.859 1.859 0 1 1 0-3.719c1.027 0 1.863.832 1.863 1.86a1.862 1.862 0 0 1-1.863 1.859zm0 0" fill="none" stroke-width=".12" stroke-linecap="round" stroke-linejoin="round" stroke="green" stroke-miterlimit="10"/><path d="M220.559 280.621a1.139 1.139 0 0 1-1.137-1.14 1.139 1.139 0 1 1 2.277 0c0 .628-.512 1.14-1.14 1.14" fill-rule="evenodd" fill="#fff"/><path d="M220.559 280.621a1.139 1.139 0 0 1-1.137-1.14 1.139 1.139 0 1 1 2.277 0c0 .628-.511 1.14-1.14 1.14zm0 0" fill="none" stroke-width=".06" stroke-linecap="square" stroke-linejoin="bevel" stroke="#000" stroke-miterlimit="10"/><path d="M191.82 281.34a1.859 1.859 0 1 1 0-3.718 1.859 1.859 0 0 1 0 3.718" fill-rule="evenodd" fill="green"/><path d="M191.82 281.34a1.859 1.859 0 1 1 0-3.718 1.859 1.859 0 0 1 0 3.718zm0 0" fill="none" stroke-width=".12" stroke-linecap="round" stroke-linejoin="round" stroke="green" stroke-miterlimit="10"/><path d="M191.82 280.621a1.141 1.141 0 0 1 0-2.281 1.14 1.14 0 0 1 0 2.281" fill-rule="evenodd" fill="#fff"/><path d="M191.82 280.621a1.141 1.141 0 0 1 0-2.281 1.14 1.14 0 0 1 0 2.281zm0 0" fill="none" stroke-width=".06" stroke-linecap="square" stroke-linejoin="bevel" stroke="#000" stroke-miterlimit="10"/><path d="M242.16 324.48a1.859 1.859 0 1 1-.001-3.717 1.859 1.859 0 0 1 .001 3.717" fill-rule="evenodd" fill="green"/><path d="M242.16 324.48a1.859 1.859 0 1 1-.001-3.717 1.859 1.859 0 0 1 .001 3.717zm0 0" fill="none" stroke-width=".12" stroke-linecap="round" stroke-linejoin="round" stroke="green" stroke-miterlimit="10"/><path d="M242.16 323.762a1.14 1.14 0 1 1 1.14-1.14c0 .628-.51 1.14-1.14 1.14" fill-rule="evenodd" fill="#fff"/><path d="M242.16 323.762a1.14 1.14 0 1 1 1.14-1.14c0 .628-.51 1.14-1.14 1.14zm0 0" fill="none" stroke-width=".06" stroke-linecap="square" stroke-linejoin="bevel" stroke="#000" stroke-miterlimit="10"/><path d="M213.36 324.48a1.859 1.859 0 1 1-.002-3.717 1.859 1.859 0 0 1 .001 3.717" fill-rule="evenodd" fill="green"/><path d="M213.36 324.48a1.859 1.859 0 1 1-.002-3.717 1.859 1.859 0 0 1 .001 3.717zm0 0" fill="none" stroke-width=".12" stroke-linecap="round" stroke-linejoin="round" stroke="green" stroke-miterlimit="10"/><path d="M213.36 323.762a1.14 1.14 0 1 1 1.14-1.14c0 .628-.512 1.14-1.14 1.14" fill-rule="evenodd" fill="#fff"/><path d="M213.36 323.762a1.14 1.14 0 1 1 1.14-1.14c0 .628-.512 1.14-1.14 1.14zm0 0" fill="none" stroke-width=".06" stroke-linecap="square" stroke-linejoin="bevel" stroke="#000" stroke-miterlimit="10"/><path d="M205.379 288.48l-1.078-1.082v-1.558l1.078-1.078h1.562l1.079 1.078v1.558l-1.079 1.082h-1.562" fill="green"/><path d="M205.379 288.48l-1.078-1.082v-1.558l1.078-1.078h1.562l1.079 1.078v1.558l-1.079 1.082zm0 0" fill="none" stroke-width=".12" stroke-linecap="round" stroke-linejoin="round" stroke="green" stroke-miterlimit="10"/><path d="M206.16 287.762a1.14 1.14 0 1 1 1.14-1.14c0 .628-.51 1.14-1.14 1.14" fill-rule="evenodd" fill="#fff"/><path d="M206.16 287.762a1.14 1.14 0 1 1 1.14-1.14c0 .628-.51 1.14-1.14 1.14zm0 0" fill="none" stroke-width=".06" stroke-linecap="square" stroke-linejoin="bevel" stroke="#000" stroke-miterlimit="10"/><path d="M191.04 288.48l-1.08-1.082v-1.558l1.08-1.078h1.562l1.078 1.078v1.558l-1.078 1.082h-1.563" fill="green"/><path d="M191.04 288.48l-1.08-1.082v-1.558l1.08-1.078h1.562l1.078 1.078v1.558l-1.078 1.082zm0 0" fill="none" stroke-width=".12" stroke-linecap="round" stroke-linejoin="round" stroke="green" stroke-miterlimit="10"/><path d="M191.82 287.762a1.14 1.14 0 1 1 1.14-1.14c0 .628-.51 1.14-1.14 1.14" fill-rule="evenodd" fill="#fff"/><path d="M191.82 287.762a1.14 1.14 0 1 1 1.14-1.14c0 .628-.51 1.14-1.14 1.14zm0 0" fill="none" stroke-width=".06" stroke-linecap="square" stroke-linejoin="bevel" stroke="#000" stroke-miterlimit="10"/><path d="M198.238 288.48l-1.078-1.082v-1.558l1.078-1.078h1.563l1.078 1.078v1.558l-1.078 1.082h-1.563" fill="green"/><path d="M198.238 288.48l-1.078-1.082v-1.558l1.078-1.078h1.563l1.078 1.078v1.558l-1.078 1.082zm0 0" fill="none" stroke-width=".12" stroke-linecap="round" stroke-linejoin="round" stroke="green" stroke-miterlimit="10"/><path d="M199.02 287.762a1.14 1.14 0 1 1 1.14-1.14c0 .628-.512 1.14-1.14 1.14" fill-rule="evenodd" fill="#fff"/><path d="M199.02 287.762a1.14 1.14 0 1 1 1.14-1.14c0 .628-.512 1.14-1.14 1.14zm0 0" fill="none" stroke-width=".06" stroke-linecap="square" stroke-linejoin="bevel" stroke="#000" stroke-miterlimit="10"/><path d="M212.578 317.281L211.5 316.2v-1.558l1.078-1.082h1.563l1.078 1.082v1.558l-1.078 1.082h-1.563" fill="green"/><path d="M212.578 317.281L211.5 316.2v-1.558l1.078-1.082h1.563l1.078 1.082v1.558l-1.078 1.082zm0 0" fill="none" stroke-width=".12" stroke-linecap="round" stroke-linejoin="round" stroke="green" stroke-miterlimit="10"/><path d="M213.36 316.559a1.139 1.139 0 1 1 0-2.278 1.14 1.14 0 1 1 0 2.278" fill-rule="evenodd" fill="#fff"/><path d="M213.36 316.559a1.139 1.139 0 1 1 0-2.278 1.14 1.14 0 1 1 0 2.278zm0 0" fill="none" stroke-width=".06" stroke-linecap="square" stroke-linejoin="bevel" stroke="#000" stroke-miterlimit="10"/><path d="M198.238 317.281l-1.078-1.082v-1.558l1.078-1.082h1.563l1.078 1.082v1.558l-1.078 1.082h-1.563" fill="green"/><path d="M198.238 317.281l-1.078-1.082v-1.558l1.078-1.082h1.563l1.078 1.082v1.558l-1.078 1.082zm0 0" fill="none" stroke-width=".12" stroke-linecap="round" stroke-linejoin="round" stroke="green" stroke-miterlimit="10"/><path d="M199.02 316.559a1.139 1.139 0 1 1 0-2.278 1.14 1.14 0 1 1 0 2.278" fill-rule="evenodd" fill="#fff"/><path d="M199.02 316.559a1.139 1.139 0 1 1 0-2.278 1.14 1.14 0 1 1 0 2.278zm0 0" fill="none" stroke-width=".06" stroke-linecap="square" stroke-linejoin="bevel" stroke="#000" stroke-miterlimit="10"/><path d="M205.379 317.281L204.3 316.2v-1.558l1.078-1.082h1.562l1.079 1.082v1.558l-1.079 1.082h-1.562" fill="green"/><path d="M205.379 317.281L204.3 316.2v-1.558l1.078-1.082h1.562l1.079 1.082v1.558l-1.079 1.082zm0 0" fill="none" stroke-width=".12" stroke-linecap="round" stroke-linejoin="round" stroke="green" stroke-miterlimit="10"/><path d="M206.16 316.559a1.139 1.139 0 1 1 0-2.278 1.14 1.14 0 1 1 0 2.278" fill-rule="evenodd" fill="#fff"/><path d="M206.16 316.559a1.139 1.139 0 1 1 0-2.278 1.14 1.14 0 1 1 0 2.278zm0 0" fill="none" stroke-width=".06" stroke-linecap="square" stroke-linejoin="bevel" stroke="#000" stroke-miterlimit="10"/><path d="M219.781 302.879L218.7 301.8v-1.563l1.082-1.078h1.559l1.082 1.078v1.563l-1.082 1.078h-1.559" fill="green"/><path d="M219.781 302.879L218.7 301.8v-1.563l1.082-1.078h1.559l1.082 1.078v1.563l-1.082 1.078zm0 0" fill="none" stroke-width=".12" stroke-linecap="round" stroke-linejoin="round" stroke="green" stroke-miterlimit="10"/><path d="M220.559 302.16a1.139 1.139 0 0 1-1.137-1.14 1.139 1.139 0 1 1 2.277 0c0 .628-.512 1.14-1.14 1.14" fill-rule="evenodd" fill="#fff"/><path d="M220.559 302.16a1.139 1.139 0 0 1-1.137-1.14 1.139 1.139 0 1 1 2.277 0c0 .628-.511 1.14-1.14 1.14zm0 0" fill="none" stroke-width=".06" stroke-linecap="square" stroke-linejoin="bevel" stroke="#000" stroke-miterlimit="10"/><path d="M234.18 302.879l-1.078-1.078v-1.563l1.078-1.078h1.558l1.082 1.078v1.563l-1.082 1.078h-1.558" fill="green"/><path d="M234.18 302.879l-1.078-1.078v-1.563l1.078-1.078h1.558l1.082 1.078v1.563l-1.082 1.078zm0 0" fill="none" stroke-width=".12" stroke-linecap="round" stroke-linejoin="round" stroke="green" stroke-miterlimit="10"/><path d="M234.96 302.16a1.14 1.14 0 1 1 0-2.281c.63 0 1.142.512 1.142 1.14 0 .63-.512 1.141-1.141 1.141" fill-rule="evenodd" fill="#fff"/><path d="M234.96 302.16a1.14 1.14 0 1 1 0-2.281c.63 0 1.142.512 1.142 1.14 0 .63-.512 1.141-1.141 1.141zm0 0" fill="none" stroke-width=".06" stroke-linecap="square" stroke-linejoin="bevel" stroke="#000" stroke-miterlimit="10"/><path d="M226.98 302.879l-1.082-1.078v-1.563l1.082-1.078h1.56l1.081 1.078v1.563l-1.082 1.078h-1.559" fill="green"/><path d="M226.98 302.879l-1.082-1.078v-1.563l1.082-1.078h1.56l1.081 1.078v1.563l-1.082 1.078zm0 0" fill="none" stroke-width=".12" stroke-linecap="round" stroke-linejoin="round" stroke="green" stroke-miterlimit="10"/><path d="M227.762 302.16a1.14 1.14 0 1 1-.003-2.279 1.14 1.14 0 0 1 .003 2.28" fill-rule="evenodd" fill="#fff"/><path d="M227.762 302.16a1.14 1.14 0 1 1-.003-2.279 1.14 1.14 0 0 1 .003 2.28zm0 0" fill="none" stroke-width=".06" stroke-linecap="square" stroke-linejoin="bevel" stroke="#000" stroke-miterlimit="10"/><path d="M184.621 267.602a2.519 2.519 0 0 1-2.52-2.524 2.52 2.52 0 1 1 2.52 2.523" fill-rule="evenodd" fill="green"/><path d="M184.621 267.602a2.519 2.519 0 0 1-2.52-2.524 2.52 2.52 0 1 1 2.52 2.523zm0 0" fill="none" stroke-width=".12" stroke-linecap="round" stroke-linejoin="round" stroke="green" stroke-miterlimit="10"/><path d="M184.621 266.52a1.44 1.44 0 1 1-.002-2.881 1.44 1.44 0 0 1 .002 2.88" fill-rule="evenodd" fill="#fff"/><path d="M184.621 266.52a1.44 1.44 0 1 1-.002-2.881 1.44 1.44 0 0 1 .002 2.88zm0 0" fill="none" stroke-width=".06" stroke-linecap="square" stroke-linejoin="bevel" stroke="#000" stroke-miterlimit="10"/><path d="M191.82 267.602a2.521 2.521 0 0 1 0-5.043 2.52 2.52 0 0 1 0 5.043" fill-rule="evenodd" fill="green"/><path d="M191.82 267.602a2.521 2.521 0 0 1 0-5.043 2.52 2.52 0 0 1 0 5.043zm0 0" fill="none" stroke-width=".12" stroke-linecap="round" stroke-linejoin="round" stroke="green" stroke-miterlimit="10"/><path d="M191.82 266.52a1.44 1.44 0 1 1-.002-2.881 1.44 1.44 0 0 1 .002 2.88" fill-rule="evenodd" fill="#fff"/><path d="M191.82 266.52a1.44 1.44 0 1 1-.002-2.881 1.44 1.44 0 0 1 .002 2.88zm0 0" fill="none" stroke-width=".06" stroke-linecap="square" stroke-linejoin="bevel" stroke="#000" stroke-miterlimit="10"/><path d="M184.621 332.34a2.518 2.518 0 0 1-2.52-2.52 2.52 2.52 0 1 1 2.52 2.52" fill-rule="evenodd" fill="green"/><path d="M184.621 332.34a2.518 2.518 0 0 1-2.52-2.52 2.52 2.52 0 1 1 2.52 2.52zm0 0" fill="none" stroke-width=".12" stroke-linecap="round" stroke-linejoin="round" stroke="green" stroke-miterlimit="10"/><path d="M184.621 331.262a1.44 1.44 0 1 1-.002-2.885 1.44 1.44 0 0 1 .002 2.885" fill-rule="evenodd" fill="#fff"/><path d="M184.621 331.262a1.44 1.44 0 1 1-.002-2.885 1.44 1.44 0 0 1 .002 2.885zm0 0" fill="none" stroke-width=".06" stroke-linecap="square" stroke-linejoin="bevel" stroke="#000" stroke-miterlimit="10"/><path d="M191.82 332.34a2.52 2.52 0 0 1 0-5.04 2.52 2.52 0 0 1 0 5.04" fill-rule="evenodd" fill="green"/><path d="M191.82 332.34a2.52 2.52 0 0 1 0-5.04 2.52 2.52 0 0 1 0 5.04zm0 0" fill="none" stroke-width=".12" stroke-linecap="round" stroke-linejoin="round" stroke="green" stroke-miterlimit="10"/><path d="M191.82 331.262a1.44 1.44 0 1 1-.002-2.885 1.44 1.44 0 0 1 .002 2.885" fill-rule="evenodd" fill="#fff"/><path d="M191.82 331.262a1.44 1.44 0 1 1-.002-2.885 1.44 1.44 0 0 1 .002 2.885zm0 0" fill="none" stroke-width=".06" stroke-linecap="square" stroke-linejoin="bevel" stroke="#000" stroke-miterlimit="10"/><path d="M218.398 263.281H208.32m11.16 1.079v1.44m-1.082 1.079l.422-.117.36-.184.242-.36.058-.417m-11.16 1.078h10.078" fill="none" stroke-width=".3" stroke-linecap="round" stroke-linejoin="round" stroke="#505050" stroke-miterlimit="10"/><path d="M212.281 263.64v2.88H213v-2.88zm1.438 0v2.88h.722v-2.88zm0 0" fill="#505050" stroke-width=".12" stroke-linecap="round" stroke-linejoin="round" stroke="#505050" stroke-miterlimit="10"/><path d="M219.48 264.36l-.058-.419-.242-.363-.36-.238-.422-.059m-11.16 2.519v-1.44m1.082-1.079l-.36.059-.358.238-.243.363-.12.418m-.001 1.441l.121.419.243.36.359.183.36.117" fill="none" stroke-width=".3" stroke-linecap="round" stroke-linejoin="round" stroke="#505050" stroke-miterlimit="10"/><path d="M213.18 333.422h-.54m0-.543v.543m0 0h-.538m.538 0v.539m-2.878 1.617a5.759 5.759 0 1 1 0-11.52 5.761 5.761 0 0 1 5.758 5.762 5.758 5.758 0 0 1-5.758 5.758zm0 0" fill="none" stroke-width=".48" stroke-linecap="round" stroke-linejoin="round" stroke="#505050" stroke-miterlimit="10"/><path d="M208.32 327.54v4.562h.72v-4.563zm0 0" fill="#505050" stroke-width=".12" stroke-linecap="round" stroke-linejoin="round" stroke="#505050" stroke-miterlimit="10"/><path d="M193.621 306.059l-.062-.418-.239-.422-.3-.297-.418-.242-.422-.059m-.72 0l-.48.059-.359.242-.36.297-.183.422-.058.418m0 4.32l.058.422.184.418.36.3.358.243.48.058m.72 0l.422-.058.418-.242.3-.301.239-.418.062-.422m-2.161-5.758h.72m1.441 5.758v-4.32m-3.601 4.32v-4.32m1.44 5.761h.72" fill="none" stroke-width=".3" stroke-linecap="round" stroke-linejoin="round" stroke="#505050" stroke-miterlimit="10"/><path d="M192.898 310.02h-2.16m0 0l1.082-1.98m0 0l1.078 1.98m0-1.98h-1.078m0 0h-1.082m2.16 0v.901" fill="none" stroke-width=".24" stroke-linecap="round" stroke-linejoin="round" stroke="#505050" stroke-miterlimit="10"/><path d="M190.02 305.879v.723h3.601v-.723zm1.44 5.941v1.801h.72v-1.8zm0-9v1.801h.72v-1.8zm0 0" fill="#505050" stroke-width=".12" stroke-linecap="round" stroke-linejoin="round" stroke="#505050" stroke-miterlimit="10"/><path d="M219.84 275.16l.3-.058.239-.18.121-.242.059-.239m0-4.32l-.059-.3-.121-.243-.238-.117-.301-.063m-12.961 0l-.238.063-.243.117-.18.242-.058.301m0 4.32l.059.239.18.242.242.18.238.058" fill="none" stroke-width=".48" stroke-linecap="round" stroke-linejoin="round" stroke="#505050" stroke-miterlimit="10"/><path d="M205.078 271.559V273h1.082v-1.441zm15.481 0V273h1.082v-1.441zm0 0" fill="#505050" stroke-width=".12" stroke-linecap="round" stroke-linejoin="round" stroke="#505050" stroke-miterlimit="10"/><path d="M219.84 275.16l.3-.058.239-.18.121-.242.059-.239m0-4.32l-.059-.3-.121-.243-.238-.117-.301-.063m-12.961 0l-.238.063-.243.117-.18.242-.058.301m0 4.32l.059.239.18.242.242.18.238.058m13.68-5.039v4.32m-.719.719h-1.078m-.364-.36l.364.36m1.078-5.762h-1.078m-.364.364l.364-.364M208.32 274.8l-.36.36m.36-.36h10.078m-10.078-5.038l-.36-.364m.36.364h10.078m-11.519 5.398h1.082m-1.082-5.762h1.082m-1.801.723v4.32" fill="none" stroke-width=".48" stroke-linecap="round" stroke-linejoin="round" stroke="#505050" stroke-miterlimit="10"/><path d="M205.078 271.559V273h1.082v-1.441zm15.481 0V273h1.082v-1.441zm0 0" fill="#505050" stroke-width=".12" stroke-linecap="round" stroke-linejoin="round" stroke="#505050" stroke-miterlimit="10"/><path d="M206.879 305.34l-.238.058-.243.18-.18.242-.058.239m0 4.32l.059.3.18.243.242.117.238.063m12.961 0l.3-.063.239-.117.121-.242.059-.301m0-4.32l-.059-.239-.121-.242-.238-.18-.301-.058" fill="none" stroke-width=".48" stroke-linecap="round" stroke-linejoin="round" stroke="#505050" stroke-miterlimit="10"/><path d="M220.559 307.5v1.441h1.082V307.5zm-15.481 0v1.441h1.082V307.5zm0 0" fill="#505050" stroke-width=".12" stroke-linecap="round" stroke-linejoin="round" stroke="#505050" stroke-miterlimit="10"/><path d="M206.879 305.34l-.238.058-.243.18-.18.242-.058.239m0 4.32l.059.3.18.243.242.117.238.063m12.961 0l.3-.063.239-.117.121-.242.059-.301m0-4.32l-.059-.239-.121-.242-.238-.18-.301-.058m-13.68 5.039v-4.32m.719-.719h1.082m.359.36l-.36-.36m-1.081 5.762h1.082m.359-.364l-.36.364m10.438-5.402l.364-.36m-.364.36H208.32m10.078 5.038l.364.364m-.364-.364H208.32m11.52-5.398h-1.078m1.078 5.762h-1.078m1.797-.723v-4.32" fill="none" stroke-width=".48" stroke-linecap="round" stroke-linejoin="round" stroke="#505050" stroke-miterlimit="10"/><path d="M220.559 307.5v1.441h1.082V307.5zm-15.481 0v1.441h1.082V307.5zm0 0" fill="#505050" stroke-width=".12" stroke-linecap="round" stroke-linejoin="round" stroke="#505050" stroke-miterlimit="10"/><path d="M214.078 290.941l-.238.059-.238.18-.18.242-.063.238m.001 4.32l.062.301.18.239.238.12.238.06m12.962 0l.3-.06.238-.12.121-.239.063-.3m0-4.321l-.063-.238-.12-.242-.24-.18-.3-.059" fill="none" stroke-width=".48" stroke-linecap="round" stroke-linejoin="round" stroke="#505050" stroke-miterlimit="10"/><path d="M227.762 293.102v1.437h1.078v-1.437zm-15.481 0v1.437h1.078v-1.437zm0 0" fill="#505050" stroke-width=".12" stroke-linecap="round" stroke-linejoin="round" stroke="#505050" stroke-miterlimit="10"/><path d="M214.078 290.941l-.238.059-.238.18-.18.242-.063.238m.001 4.32l.062.301.18.239.238.12.238.06m12.962 0l.3-.06.238-.12.121-.239.063-.3m0-4.321l-.063-.238-.12-.242-.24-.18-.3-.059m-13.679 5.039v-4.32m.718-.719h1.082m.36.359l-.36-.359m-1.082 5.759h1.082m.36-.36l-.36.36m10.442-5.4l.359-.359m-.359.359H215.52m10.082 5.04l.359.36m-.359-.36H215.52m11.52-5.399h-1.08m1.08 5.759h-1.08m1.802-.72v-4.32" fill="none" stroke-width=".48" stroke-linecap="round" stroke-linejoin="round" stroke="#505050" stroke-miterlimit="10"/><path d="M227.762 293.102v1.437h1.078v-1.437zm-15.481 0v1.437h1.078v-1.437zm0 0" fill="#505050" stroke-width=".12" stroke-linecap="round" stroke-linejoin="round" stroke="#505050" stroke-miterlimit="10"/><path d="M234.238 289.5h.242l.239-.18.18-.242.062-.297m-.001-4.261l-.062-.301-.18-.239-.238-.18h-.242m-12.957 0h-.242l-.238.18-.18.239-.062.3m0 4.262l.062.297.18.242.238.18h.242" fill="none" stroke-width=".48" stroke-linecap="round" stroke-linejoin="round" stroke="#505050" stroke-miterlimit="10"/><path d="M219.48 285.898v1.442h1.079v-1.442zm15.48 0v1.442h1.08v-1.442zm0 0" fill="#505050" stroke-width=".12" stroke-linecap="round" stroke-linejoin="round" stroke="#505050" stroke-miterlimit="10"/><path d="M234.238 289.5h.242l.239-.18.18-.242.062-.297m-.001-4.261l-.062-.301-.18-.239-.238-.18h-.242m-12.957 0h-.242l-.238.18-.18.239-.062.3m0 4.262l.062.297.18.242.238.18h.242m13.679-4.98v4.261m-.722.719h-1.078m-.36-.36l.36.36m1.078-5.7h-1.078m-.36.36l.36-.36m-10.441 5.34l-.36.36m.36-.36H232.8m-10.081-4.98l-.36-.36m.36.36H232.8m-11.519 5.34h1.078m-1.078-5.7h1.078m-1.8.72v4.261" fill="none" stroke-width=".48" stroke-linecap="round" stroke-linejoin="round" stroke="#505050" stroke-miterlimit="10"/><path d="M219.48 285.898v1.442h1.079v-1.442zm15.48 0v1.442h1.08v-1.442zm0 0" fill="#505050" stroke-width=".12" stroke-linecap="round" stroke-linejoin="round" stroke="#505050" stroke-miterlimit="10"/><path d="M212.64 282.36l.301-.06.239-.179.12-.242.06-.238m0-4.321l-.06-.3-.12-.239-.239-.12-.3-.06m-12.903.001l-.297.058-.242.121-.18.239v.3m.001 4.32v.239l.18.242.241.18.297.058" fill="none" stroke-width=".48" stroke-linecap="round" stroke-linejoin="round" stroke="#505050" stroke-miterlimit="10"/><path d="M197.941 278.762v1.437h1.079v-1.437zm15.419 0v1.437h1.081v-1.437zm0 0" fill="#505050" stroke-width=".12" stroke-linecap="round" stroke-linejoin="round" stroke="#505050" stroke-miterlimit="10"/><path d="M212.64 282.36l.301-.06.239-.179.12-.242.06-.238m0-4.321l-.06-.3-.12-.239-.239-.12-.3-.06m-12.903.001l-.297.058-.242.121-.18.239v.3m.001 4.32v.239l.18.242.241.18.297.058m13.622-5.039v4.32m-.72.72h-1.081m-.359-.36l.359.36m1.081-5.758h-1.081m-.359.358l.359-.358M201.18 282l-.36.36m.36-.36h10.02m-10.02-5.04l-.36-.358m.36.358h10.02m-11.462 5.4h1.082m-1.082-5.758h1.082m-1.8.718v4.32" fill="none" stroke-width=".48" stroke-linecap="round" stroke-linejoin="round" stroke="#505050" stroke-miterlimit="10"/><path d="M197.941 278.762v1.437h1.079v-1.437zm15.419 0v1.437h1.081v-1.437zm0 0" fill="#505050" stroke-width=".12" stroke-linecap="round" stroke-linejoin="round" stroke="#505050" stroke-miterlimit="10"/><path d="M234.238 325.5l.242-.059.239-.18.18-.241.062-.239m-.001-4.321l-.062-.3-.18-.238-.238-.121-.242-.063m-12.957 0l-.242.063-.238.12-.18.24-.062.3m0 4.32l.062.239.18.242.238.18.242.058" fill="none" stroke-width=".48" stroke-linecap="round" stroke-linejoin="round" stroke="#505050" stroke-miterlimit="10"/><path d="M219.48 321.898v1.442h1.079v-1.442zm15.48 0v1.442h1.08v-1.442zm0 0" fill="#505050" stroke-width=".12" stroke-linecap="round" stroke-linejoin="round" stroke="#505050" stroke-miterlimit="10"/><path d="M234.238 325.5l.242-.059.239-.18.18-.241.062-.239m-.001-4.321l-.062-.3-.18-.238-.238-.121-.242-.063m-12.957 0l-.242.063-.238.12-.18.24-.062.3m0 4.32l.062.239.18.242.238.18.242.058m13.679-5.04v4.321m-.722.719h-1.078m-.36-.36l.36.36m1.078-5.762h-1.078m-.36.364l.36-.364m-10.441 5.402l-.36.36m.36-.36H232.8m-10.081-5.038l-.36-.364m.36.364H232.8m-11.519 5.398h1.078m-1.078-5.762h1.078m-1.8.722v4.321" fill="none" stroke-width=".48" stroke-linecap="round" stroke-linejoin="round" stroke="#505050" stroke-miterlimit="10"/><path d="M219.48 321.898v1.442h1.079v-1.442zm15.48 0v1.442h1.08v-1.442zm0 0" fill="#505050" stroke-width=".12" stroke-linecap="round" stroke-linejoin="round" stroke="#505050" stroke-miterlimit="10"/><path d="M193.078 291.3h11.82m.902-7.859l-.66-1.14-.84-1.02-.96-.84-1.14-.66-1.259-.422-1.261-.238h-1.32l-1.32.238-1.2.422-1.14.66-1.02.84-.84 1.02-.66 1.14m0 6.419l.422.78.476.66m2.703-4.32H195m7.98 0h-.78m2.698 4.32l.543-.722.418-.777" fill="none" stroke-width=".36" stroke-linecap="round" stroke-linejoin="round" stroke="#505050" stroke-miterlimit="10"/><use xlink:href="#d" x="193.241" y="290.246" fill="#505050"/><use xlink:href="#e" x="200.433" y="290.246" fill="#505050"/><use xlink:href="#f" x="207.624" y="290.246" fill="#505050"/><path d="M200.281 320.102h11.82m.899-7.922l-.66-1.14-.84-.962-1.02-.84-1.14-.66-1.2-.476-1.32-.18h-1.261l-1.32.18-1.259.476-1.14.66-.961.84-.84.961-.66 1.14m0 6.481l.36.719.542.723m2.699-4.321h-.78m7.98 0h-.782m2.704 4.321l.539-.723.418-.84" fill="none" stroke-width=".36" stroke-linecap="round" stroke-linejoin="round" stroke="#505050" stroke-miterlimit="10"/><use xlink:href="#d" x="200.433" y="319.016" fill="#505050"/><use xlink:href="#e" x="207.624" y="319.016" fill="#505050"/><use xlink:href="#f" x="214.816" y="319.016" fill="#505050"/><path d="M233.7 296.34h-11.88m-.898 7.922l.656 1.136.844.961 1.02.84 1.136.66 1.262.48 1.262.24h1.32l1.258-.24 1.261-.48 1.137-.66 1.024-.84.84-.96.66-1.137m0-6.422l-.422-.781-.48-.72m-2.7 4.321h.719m-7.919 0h.72m-2.7-4.32l-.48.781-.418.777" fill="none" stroke-width=".36" stroke-linecap="round" stroke-linejoin="round" stroke="#505050" stroke-miterlimit="10"/><use xlink:href="#d" x="232.854" y="298.279" fill="#505050"/><use xlink:href="#e" x="225.602" y="298.279" fill="#505050"/><use xlink:href="#f" x="218.411" y="298.279" fill="#505050"/><use xlink:href="#g" x="178.557" y="263.813" fill="#505050"/><use xlink:href="#h" x="178.557" y="264.713" fill="#505050"/><path d="M195.422 261.48H181.02m0 0v7.2m0 0h14.402m0 0v-7.2" fill="none" stroke-width=".36" stroke-linecap="round" stroke-linejoin="round" stroke="#505050" stroke-miterlimit="10"/><use xlink:href="#i" x="183.171" y="258.958" fill="#505050"/><use xlink:href="#j" x="190.363" y="261.118" fill="#505050"/><path d="M181.02 326.219v7.203m0 0h14.402m0 0v-7.203" fill="none" stroke-width=".36" stroke-linecap="round" stroke-linejoin="round" stroke="#505050" stroke-miterlimit="10"/><use xlink:href="#i" x="183.171" y="334.479" fill="#505050"/><use xlink:href="#j" x="190.363" y="336.639" fill="#505050"/><path d="M195.422 326.219H181.02" fill="none" stroke-width=".36" stroke-linecap="round" stroke-linejoin="round" stroke="#505050" stroke-miterlimit="10"/><path d="M220.559 265.078H214.5m-8.34 0h6.121" fill="none" stroke-width=".24" stroke-linecap="round" stroke-linejoin="round" stroke="#505050" stroke-miterlimit="10"/><path d="M213.36 329.82h-1.919m0 0v-2.52m0 0h-1.082m.001 0v5.04m0 0h1.081m0 0v-2.52m-5.281 0h1.98m0 0v2.52m0 0h1.079m0 0v-5.04m0 0h-1.078m-.001 0v2.52" fill="none" stroke-width=".48" stroke-linecap="round" stroke-linejoin="round" stroke="#505050" stroke-miterlimit="10"/><path d="M191.82 315.422v-1.8m0-12.602v1.8" fill="none" stroke-width=".36" stroke-linecap="round" stroke-linejoin="round" stroke="#505050" stroke-miterlimit="10"/><path d="M191.82 307.32v.72m0 0v2.698" fill="none" stroke-width=".24" stroke-linecap="round" stroke-linejoin="round" stroke="#505050" stroke-miterlimit="10"/><path d="M199.02 272.281h6.058m22.684 0h-6.121m6.121 35.938h-6.121m-22.621 0h6.058m29.882-14.399h-6.12m-22.68 0h6.121m1.079-7.199h6.12m22.68 0h-6.12m-44.22-7.141h6.121m22.618 0h-6.118m-1.081 43.141h6.12m22.68 0h-6.12" fill="none" stroke-width="1.44" stroke-linecap="round" stroke-linejoin="round" stroke="#505050" stroke-miterlimit="10"/><path d="M202.2 286.98h-6.419m-3.601-3.539l-.418 1.137-.242 1.203-.06 1.2" fill="none" stroke-width=".36" stroke-linecap="round" stroke-linejoin="round" stroke="#505050" stroke-miterlimit="10"/><path d="M191.46 286.98l.118 1.02.242.96.36.9m2.82-2.88h-3.54m14.34 2.88l.36-.9.238-.96.122-1.02m0 0v-1.199l-.239-1.203-.48-1.137m.719 3.539h-3.54m6.418 28.801h-6.418m-3.601-3.601l-.48 1.199-.239 1.2v1.202m0 0l.121.957.239.961.359.961m2.821-2.879h-3.54M213 318.66l.36-.96.242-.962.117-.957m0 0l-.059-1.203-.238-1.2-.422-1.198m.719 3.601h-3.54m14.341-15.121H231m3.602 3.602l.418-1.14.242-1.2.058-1.262m0 0l-.12-.96-.24-.962-.358-.898m-2.883 2.82h3.601m-14.398-2.82l-.363.898-.239.961-.12.961m0 0l.062 1.262.238 1.2.422 1.14m-.722-3.602h3.6" fill="none" stroke-width=".36" stroke-linecap="round" stroke-linejoin="round" stroke="#505050" stroke-miterlimit="10"/><use xlink:href="#k" x="216.731" y="269.569" fill="#505050"/><use xlink:href="#l" x="218.171" y="269.569" fill="#505050"/><use xlink:href="#m" x="215.234" y="323.449" fill="#505050"/><use xlink:href="#n" x="215.234" y="324.889" fill="#505050"/><use xlink:href="#o" x="186.764" y="314.284" fill="#505050"/><use xlink:href="#p" x="188.984" y="314.284" fill="#505050"/><use xlink:href="#q" x="217.749" y="277.673" fill="#505050"/><use xlink:href="#r" x="219.249" y="277.673" fill="#505050"/><use xlink:href="#q" x="217.749" y="277.673" fill="#505050"/><use xlink:href="#r" x="219.249" y="277.673" fill="#505050"/><use xlink:href="#q" x="206.186" y="304.56" fill="#505050"/><use xlink:href="#l" x="207.686" y="304.56" fill="#505050"/><use xlink:href="#q" x="206.186" y="304.56" fill="#505050"/><use xlink:href="#l" x="207.686" y="304.56" fill="#505050"/><use xlink:href="#s" x="209.84" y="295.641" fill="#505050"/><use xlink:href="#n" x="209.84" y="297.141" fill="#505050"/><use xlink:href="#s" x="236.75" y="282.032" fill="#505050"/><use xlink:href="#t" x="236.75" y="283.532" fill="#505050"/><use xlink:href="#s" x="215.176" y="274.84" fill="#505050"/><use xlink:href="#u" x="215.176" y="276.34" fill="#505050"/><use xlink:href="#s" x="236.75" y="317.995" fill="#505050"/><use xlink:href="#v" x="236.75" y="319.495" fill="#505050"/><use xlink:href="#w" x="206.186" y="279.394" fill="#505050"/><use xlink:href="#x" x="206.186" y="281.314" fill="#505050"/><use xlink:href="#w" x="213.378" y="308.164" fill="#505050"/><use xlink:href="#y" x="213.378" y="310.084" fill="#505050"/><use xlink:href="#w" x="218.29" y="304.632" fill="#505050"/><use xlink:href="#z" x="218.29" y="306.552" fill="#505050"/><use xlink:href="#A" x="213.378" y="262.316" fill="#505050"/><use xlink:href="#A" x="214.698" y="262.316" fill="#505050"/><use xlink:href="#B" x="216.018" y="262.316" fill="#505050"/><use xlink:href="#C" x="217.338" y="262.316" fill="#505050"/><use xlink:href="#n" x="203.547" y="333.401" fill="#505050"/><use xlink:href="#D" x="203.547" y="334.721" fill="#505050"/><use xlink:href="#n" x="203.547" y="335.441" fill="#505050"/><use xlink:href="#E" x="203.547" y="336.761" fill="#505050"/><use xlink:href="#F" x="203.547" y="338.081" fill="#505050"/><use xlink:href="#G" x="180.225" y="304.452" fill="#505050"/><use xlink:href="#H" x="182.025" y="304.452" fill="#505050"/><use xlink:href="#I" x="184.365" y="304.452" fill="#505050"/><use xlink:href="#J" x="186.105" y="304.452" fill="#505050"/><use xlink:href="#I" x="187.065" y="304.452" fill="#505050"/><use xlink:href="#K" x="188.805" y="304.452" fill="#505050"/><use xlink:href="#p" x="209.958" y="273.406" fill="#505050"/><use xlink:href="#L" x="211.698" y="273.406" fill="#505050"/><use xlink:href="#L" x="213.438" y="273.406" fill="#505050"/><use xlink:href="#M" x="215.178" y="273.406" fill="#505050"/><use xlink:href="#p" x="211.278" y="309.368" fill="#505050"/><use xlink:href="#N" x="213.018" y="309.368" fill="#505050"/><use xlink:href="#O" x="218.05" y="294.983" fill="#505050"/><use xlink:href="#P" x="219.79" y="294.983" fill="#505050"/><use xlink:href="#M" x="221.53" y="294.983" fill="#505050"/><use xlink:href="#O" x="224.702" y="287.79" fill="#505050"/><use xlink:href="#J" x="226.441" y="287.79" fill="#505050"/><use xlink:href="#P" x="227.402" y="287.79" fill="#505050"/><use xlink:href="#M" x="229.141" y="287.79" fill="#505050"/><use xlink:href="#Q" x="203.127" y="280.598" fill="#505050"/><use xlink:href="#J" x="204.867" y="280.598" fill="#505050"/><use xlink:href="#O" x="205.827" y="280.598" fill="#505050"/><use xlink:href="#M" x="207.567" y="280.598" fill="#505050"/><use xlink:href="#p" x="226.081" y="323.753" fill="#505050"/><use xlink:href="#M" x="227.821" y="323.753" fill="#505050"/><use xlink:href="#R" x="193.535" y="284.194" fill="#505050"/><use xlink:href="#S" x="195.275" y="284.194" fill="#505050"/><use xlink:href="#I" x="197.435" y="284.194" fill="#505050"/><use xlink:href="#T" x="199.175" y="284.194" fill="#505050"/><use xlink:href="#L" x="200.915" y="284.194" fill="#505050"/><use xlink:href="#Q" x="202.655" y="284.194" fill="#505050"/><use xlink:href="#R" x="200.727" y="312.964" fill="#505050"/><use xlink:href="#S" x="202.467" y="312.964" fill="#505050"/><use xlink:href="#I" x="204.627" y="312.964" fill="#505050"/><use xlink:href="#T" x="206.367" y="312.964" fill="#505050"/><use xlink:href="#L" x="208.107" y="312.964" fill="#505050"/><use xlink:href="#Q" x="209.847" y="312.964" fill="#505050"/><use xlink:href="#R" x="222.361" y="305.771" fill="#505050"/><use xlink:href="#S" x="224.102" y="305.771" fill="#505050"/><use xlink:href="#I" x="226.261" y="305.771" fill="#505050"/><use xlink:href="#T" x="228.002" y="305.771" fill="#505050"/><use xlink:href="#L" x="229.741" y="305.771" fill="#505050"/><use xlink:href="#U" x="231.481" y="305.771" fill="#505050"/><path d="M177.422 257.879v79.14m0 .001h71.937m.001 0v-79.141m0 0h-71.938" fill="none" stroke-width=".12" stroke-linecap="round" stroke-linejoin="round" stroke="#000" stroke-miterlimit="10"/></svg>