<svg xmlns:xlink="http://www.w3.org/1999/xlink" width="842pt" height="595pt" viewBox="0 0 842 595">
  <defs/>
  <defs>
    <symbol id="OpAmp-Inverting-3Transistor-alt-1_svg__a" overflow="visible">
      <path d="M2.281-.89a.703.703 0 0 1-.094.374.72.72 0 0 1-.218.282.865.865 0 0 1-.344.172A1.62 1.62 0 0 1 1.141 0H.297v-2.922h.781c.195 0 .352.008.469.016.094.023.191.058.297.11a.588.588 0 0 1 .297.53c0 .149-.04.274-.11.375a.778.778 0 0 1-.297.25v.016c.164.055.301.14.407.266a.76.76 0 0 1 .14.468zm-.547-1.313a.554.554 0 0 0-.03-.188.281.281 0 0 0-.11-.125.977.977 0 0 0-.219-.062 2.985 2.985 0 0 0-.313-.016H.688v.86h.438c.125 0 .21-.004.266-.016a.429.429 0 0 0 .187-.078.452.452 0 0 0 .125-.156.634.634 0 0 0 .031-.22zm.141 1.328a.73.73 0 0 0-.047-.281.355.355 0 0 0-.187-.172.722.722 0 0 0-.204-.063 2.985 2.985 0 0 0-.312-.015H.687v1.078H1c.164 0 .3-.008.406-.031a.478.478 0 0 0 .25-.094c.07-.05.13-.11.172-.172a.56.56 0 0 0 .047-.25zm0 0"/>
    </symbol>
    <symbol id="OpAmp-Inverting-3Transistor-alt-1_svg__b" overflow="visible">
      <path d="M1.438.047a1.212 1.212 0 0 1-.532-.094A1.087 1.087 0 0 1 .5-.328a1.388 1.388 0 0 1-.281-.469 2.147 2.147 0 0 1-.094-.656c0-.25.031-.461.094-.64C.28-2.27.375-2.43.5-2.579a1.28 1.28 0 0 1 .406-.297c.156-.063.332-.094.531-.094.102 0 .196.008.282.016.082.023.16.043.234.062.063.024.129.043.203.063.063.031.125.07.188.11v.468h-.031c-.032-.031-.075-.07-.126-.125-.062-.04-.132-.082-.203-.125a2.15 2.15 0 0 0-.234-.11 1.54 1.54 0 0 0-.313-.03.767.767 0 0 0-.343.078.876.876 0 0 0-.297.218.997.997 0 0 0-.188.375 1.552 1.552 0 0 0-.078.516c0 .2.024.371.078.516a.83.83 0 0 0 .188.359c.082.105.18.18.297.219a.718.718 0 0 0 .343.078.99.99 0 0 0 .313-.047A.83.83 0 0 0 2-.422a1.42 1.42 0 0 0 .313-.234h.03v.453a2.274 2.274 0 0 0-.171.094 1.023 1.023 0 0 1-.219.078C1.867 0 1.79.019 1.72.03a2.627 2.627 0 0 1-.282.016zm0 0"/>
    </symbol>
    <symbol id="OpAmp-Inverting-3Transistor-alt-1_svg__c" overflow="visible">
      <path d="M1.984-.922c0 .137-.023.266-.062.39a1.304 1.304 0 0 1-.203.313.757.757 0 0 1-.297.203 1.072 1.072 0 0 1-.406.079C.867.063.726.046.594.015A1.216 1.216 0 0 1 .25-.11v-.407h.016c.03.024.078.047.14.079.051.023.114.046.188.078.07.023.14.043.203.062.062.012.133.016.219.016.07 0 .148-.016.234-.047a.389.389 0 0 0 .188-.125.604.604 0 0 0 .109-.203c.02-.07.031-.164.031-.281a.868.868 0 0 0-.031-.25.491.491 0 0 0-.125-.157.644.644 0 0 0-.203-.11 1.265 1.265 0 0 0-.282-.03 4 4 0 0 0-.312.015c-.117.024-.203.04-.266.047v-1.5h1.61v.344H.734v.781c.051-.008.098-.016.141-.016H1c.156 0 .285.012.39.032.094.031.192.078.298.14a.782.782 0 0 1 .218.282c.051.117.078.261.078.437zm0 0"/>
    </symbol>
    <symbol id="OpAmp-Inverting-3Transistor-alt-1_svg__d" overflow="visible"/>
    <symbol id="OpAmp-Inverting-3Transistor-alt-1_svg__e" overflow="visible"/>
    <symbol id="OpAmp-Inverting-3Transistor-alt-1_svg__f" overflow="visible">
      <path d="M1.86 0H.436v-.297H.97V-2.25H.438v-.266c.195 0 .347-.03.453-.093.093-.051.144-.157.156-.313h.297v2.625h.515zm0 0"/>
    </symbol>
    <symbol id="OpAmp-Inverting-3Transistor-alt-1_svg__g" overflow="visible">
      <path d="M2.031-1.453c0 .523-.078.902-.234 1.14-.149.25-.383.376-.703.376C.77.063.535-.064.39-.314.234-.563.156-.94.156-1.452c0-.531.078-.914.235-1.156.156-.25.39-.375.703-.375.32 0 .554.132.703.39.156.25.234.633.234 1.14zm-.5.875a2.32 2.32 0 0 0 .078-.36 9.314 9.314 0 0 0 0-1.046 2.427 2.427 0 0 0-.078-.36.573.573 0 0 0-.172-.234.414.414 0 0 0-.265-.078.446.446 0 0 0-.266.078.512.512 0 0 0-.172.234 1.997 1.997 0 0 0-.078.375 6.995 6.995 0 0 0-.015.516c0 .2.003.371.015.516.008.136.035.257.078.359.04.105.098.183.172.234.063.055.149.078.266.078a.436.436 0 0 0 .265-.078.525.525 0 0 0 .172-.234zm0 0"/>
    </symbol>
    <symbol id="OpAmp-Inverting-3Transistor-alt-1_svg__h" overflow="visible">
      <path d="M2.078 0h-.484L.78-1.063l-.14.141V0H.266v-3.047H.64v1.781l.859-.921h.453l-.89.906zm0 0"/>
    </symbol>
    <symbol id="OpAmp-Inverting-3Transistor-alt-1_svg__i" overflow="visible">
      <path d="M2.797 0h-.39v-2.516l-.75 1.72h-.25l-.75-1.72V0h-.36v-2.922h.531l.735 1.625.703-1.625h.53zm0 0"/>
    </symbol>
    <symbol id="OpAmp-Inverting-3Transistor-alt-1_svg__j" overflow="visible">
      <path d="M.844 0H.375v-.563h.469zm0 0"/>
    </symbol>
    <symbol id="OpAmp-Inverting-3Transistor-alt-1_svg__k" overflow="visible">
      <path d="M2.156 0H.125v-.36l1.563-2.218h-1.5v-.344h1.937v.36L.531-.345h1.625zm0 0"/>
    </symbol>
    <symbol id="OpAmp-Inverting-3Transistor-alt-1_svg__l" overflow="visible"/>
    <symbol id="OpAmp-Inverting-3Transistor-alt-1_svg__m" overflow="visible">
      <path d="M1-2.64a.671.671 0 0 0-.203.03.873.873 0 0 0-.219.063.582.582 0 0 0-.156.078c-.055.031-.094.059-.125.078H.266v-.406a2.29 2.29 0 0 1 .359-.125c.133-.039.27-.062.406-.062.133 0 .25.015.344.046a.62.62 0 0 1 .266.126c.093.062.16.136.203.218.039.094.062.2.062.313a.612.612 0 0 1-.156.422.669.669 0 0 1-.375.234v.031a.919.919 0 0 1 .39.188c.051.062.098.136.141.218a.78.78 0 0 1 .063.329.875.875 0 0 1-.079.359.803.803 0 0 1-.188.297.745.745 0 0 1-.312.187c-.118.051-.25.079-.407.079C.836.063.691.046.547.015a1.814 1.814 0 0 1-.36-.141v-.406H.22c.08.062.19.121.327.172a1.094 1.094 0 0 0 .656.046.559.559 0 0 0 .203-.124c.051-.063.094-.126.125-.188.02-.07.032-.16.032-.266a.687.687 0 0 0-.047-.265.491.491 0 0 0-.125-.157.446.446 0 0 0-.188-.078 1.123 1.123 0 0 0-.25-.03H.781v-.329h.14c.165 0 .306-.04.423-.125a.419.419 0 0 0 .172-.36.371.371 0 0 0-.047-.187.493.493 0 0 0-.11-.125 1.15 1.15 0 0 0-.171-.078A1.296 1.296 0 0 0 1-2.641zm0 0"/>
    </symbol>
    <symbol id="OpAmp-Inverting-3Transistor-alt-1_svg__n" overflow="visible"/>
    <symbol id="OpAmp-Inverting-3Transistor-alt-1_svg__o" overflow="visible">
      <path d="M1.984 0h-.359v-1.25c0-.094-.008-.188-.016-.281a.566.566 0 0 0-.062-.203.382.382 0 0 0-.125-.125 1.042 1.042 0 0 0-.219-.047.589.589 0 0 0-.281.078c-.106.055-.2.117-.281.187V0H.266v-2.188H.64v.235a1.42 1.42 0 0 1 .312-.219.831.831 0 0 1 .344-.078c.219 0 .39.07.516.203.113.149.171.356.171.625zm0 0"/>
    </symbol>
    <symbol id="OpAmp-Inverting-3Transistor-alt-1_svg__p" overflow="visible"/>
    <symbol id="OpAmp-Inverting-3Transistor-alt-1_svg__q" overflow="visible">
      <path d="M1.969 0h-.36v-.25a1.526 1.526 0 0 1-.328.234.78.78 0 0 1-.61.032.505.505 0 0 1-.218-.157.685.685 0 0 1-.156-.25A1.29 1.29 0 0 1 .25-.766v-1.421h.375v1.25c0 .117.004.21.016.28 0 .087.015.153.046.204.032.062.07.105.125.125a.78.78 0 0 0 .516-.031 1.41 1.41 0 0 0 .281-.204v-1.625h.36zm0 0"/>
    </symbol>
    <symbol id="OpAmp-Inverting-3Transistor-alt-1_svg__r" overflow="visible">
      <path d="M1.516.063c-.211 0-.399-.032-.563-.094a.962.962 0 0 1-.437-.297 1.177 1.177 0 0 1-.282-.469 1.894 1.894 0 0 1-.109-.672c0-.226.035-.437.11-.625a1.33 1.33 0 0 1 .28-.484c.114-.125.258-.223.438-.297.176-.063.363-.094.563-.094.101 0 .195.008.28.016.095.023.18.043.266.062.063.024.133.047.22.079a.829.829 0 0 1 .187.093v.469h-.031a3.862 3.862 0 0 0-.141-.125 1.311 1.311 0 0 0-.219-.125c-.086-.04-.18-.07-.281-.094a1.039 1.039 0 0 0-.328-.047.798.798 0 0 0-.672.329c-.18.21-.266.492-.266.843 0 .188.024.36.078.516a.83.83 0 0 0 .188.36.745.745 0 0 0 .312.234.884.884 0 0 0 .391.078c.113 0 .223-.004.328-.016.102-.02.195-.047.281-.078v-.75h-.687v-.344h1.062v1.282c-.054.023-.117.046-.187.078-.094.03-.172.058-.235.078-.105.031-.195.05-.265.062-.074.02-.168.032-.281.032zm0 0"/>
    </symbol>
    <symbol id="OpAmp-Inverting-3Transistor-alt-1_svg__s" overflow="visible">
      <path d="M2.39 0h-.437L.656-2.516V0h-.36v-2.922h.548L2.016-.609v-2.313h.375zm0 0"/>
    </symbol>
    <symbol id="OpAmp-Inverting-3Transistor-alt-1_svg__t" overflow="visible">
      <path d="M2.594-1.453c0 .262-.055.5-.156.719-.106.218-.25.386-.438.5a1.33 1.33 0 0 1-.453.187A2.89 2.89 0 0 1 .969 0H.297v-2.922h.656c.281 0 .5.024.656.063.157.043.286.101.391.171.188.126.332.293.438.5.101.211.156.454.156.735zm-.406-.016c0-.218-.04-.41-.11-.578a.813.813 0 0 0-.328-.36 1.342 1.342 0 0 0-.328-.14 1.832 1.832 0 0 0-.438-.047H.688v2.266h.296c.164 0 .317-.016.454-.047a1.016 1.016 0 0 0 .656-.516c.062-.156.094-.347.094-.578zm0 0"/>
    </symbol>
    <symbol id="OpAmp-Inverting-3Transistor-alt-1_svg__u" overflow="visible">
      <path d="M.984 0v-2.578H0v-.344h2.344v.344h-.985V0zm0 0"/>
    </symbol>
    <symbol id="OpAmp-Inverting-3Transistor-alt-1_svg__v" overflow="visible">
      <path d="M2.016 0H.219v-.406l.36-.36c.112-.101.226-.218.343-.343.219-.25.367-.446.453-.594.07-.145.113-.297.125-.453a.487.487 0 0 0-.047-.219.602.602 0 0 0-.11-.156.629.629 0 0 0-.344-.11.822.822 0 0 0-.218.032.685.685 0 0 0-.203.062 1.166 1.166 0 0 0-.156.078c-.055.031-.094.059-.125.078H.28v-.406c.07-.039.18-.082.328-.125.145-.039.286-.062.422-.062.258 0 .469.074.625.218.157.149.235.344.235.594 0 .117-.012.219-.032.313a2.19 2.19 0 0 1-.109.265 2.195 2.195 0 0 1-.188.25 4.057 4.057 0 0 1-.203.25 7.154 7.154 0 0 1-.421.422 7.96 7.96 0 0 1-.36.344h1.438zm0 0"/>
    </symbol>
    <symbol id="OpAmp-Inverting-3Transistor-alt-1_svg__w" overflow="visible">
      <path d="M2.563 0h-.516l-.922-1.156H.687V0h-.39v-2.922h.75c.164 0 .305.012.422.031.113.024.222.063.328.125a.8.8 0 0 1 .234.25.751.751 0 0 1 .094.391.797.797 0 0 1-.172.531.913.913 0 0 1-.437.328zm-.844-2.094a.598.598 0 0 0-.047-.234.412.412 0 0 0-.14-.156.446.446 0 0 0-.188-.079c-.074-.007-.168-.019-.282-.03H.688v1.109h.344c.102 0 .203-.008.297-.032a.459.459 0 0 0 .219-.125.38.38 0 0 0 .125-.187.66.66 0 0 0 .047-.266zm0 0"/>
    </symbol>
    <symbol id="OpAmp-Inverting-3Transistor-alt-1_svg__x" overflow="visible">
      <path d="M2.063-.953c0 .156-.028.297-.079.422a.974.974 0 0 1-.203.312.723.723 0 0 1-.297.203.78.78 0 0 1-.343.079A1.04 1.04 0 0 1 .78 0a.891.891 0 0 1-.297-.203A1.194 1.194 0 0 1 .25-.625a2.253 2.253 0 0 1-.078-.656c0-.25.023-.477.078-.688.05-.207.129-.383.234-.531.102-.145.239-.258.407-.344.164-.082.359-.125.578-.125h.187c.063.012.114.024.157.031v.376h-.016a.676.676 0 0 0-.156-.047.87.87 0 0 0-.22-.032.784.784 0 0 0-.593.25c-.148.168-.234.414-.265.735a1.58 1.58 0 0 1 .296-.157.973.973 0 0 1 .313-.046c.113 0 .21.011.297.03a.792.792 0 0 1 .515.438c.051.125.079.274.079.438zm-.407.015a.861.861 0 0 0-.047-.296.5.5 0 0 0-.14-.204.735.735 0 0 0-.172-.093c-.074-.008-.14-.016-.203-.016a.745.745 0 0 0-.266.047 1.272 1.272 0 0 0-.265.125v.172c0 .21.019.375.062.5.04.125.086.219.14.281.051.063.11.106.172.125a.326.326 0 0 0 .204.031c.156 0 .28-.05.375-.156.093-.113.14-.285.14-.516zm0 0"/>
    </symbol>
    <symbol id="OpAmp-Inverting-3Transistor-alt-1_svg__y" overflow="visible">
      <path d="M1.313 0H.188v-.297h.374v-2.328H.188v-.297h1.125v.297H.938v2.328h.375zm0 0"/>
    </symbol>
    <symbol id="OpAmp-Inverting-3Transistor-alt-1_svg__z" overflow="visible"/>
    <symbol id="OpAmp-Inverting-3Transistor-alt-1_svg__A" overflow="visible"/>
    <symbol id="OpAmp-Inverting-3Transistor-alt-1_svg__B" overflow="visible">
      <path d="M2.36-2.578c.113.125.203.281.265.469.05.187.082.406.094.656 0 .23-.031.445-.094.64a1.302 1.302 0 0 1-.266.47 1.146 1.146 0 0 1-.421.312 1.376 1.376 0 0 1-.516.093c-.2 0-.375-.039-.531-.109a.87.87 0 0 1-.407-.297A1.247 1.247 0 0 1 .22-.813a2.01 2.01 0 0 1-.094-.64c0-.25.031-.469.094-.656.062-.188.148-.344.265-.47a.897.897 0 0 1 .407-.296c.156-.07.332-.11.53-.11.196 0 .376.04.532.11.156.074.29.172.406.297zm-.047 1.125c0-.195-.024-.367-.063-.516a1.015 1.015 0 0 0-.453-.61 1.18 1.18 0 0 0-.75 0 .885.885 0 0 0-.281.235c-.075.106-.133.23-.172.375a1.943 1.943 0 0 0-.063.516c0 .387.082.68.25.875.156.2.367.297.64.297a.77.77 0 0 0 .641-.297c.165-.195.25-.488.25-.875zm0 0"/>
    </symbol>
    <symbol id="OpAmp-Inverting-3Transistor-alt-1_svg__C" overflow="visible">
      <path d="M1.313.063a1.27 1.27 0 0 1-.454-.079.722.722 0 0 1-.312-.187.79.79 0 0 1-.219-.375 1.719 1.719 0 0 1-.062-.516v-1.828h.39v1.828a.947.947 0 0 0 .016.328c.02.094.055.18.11.25.05.086.116.149.202.188a.78.78 0 0 0 .329.062.78.78 0 0 0 .328-.062.465.465 0 0 0 .218-.188.513.513 0 0 0 .094-.234c.02-.094.031-.207.031-.344v-1.828h.391v1.828c0 .2-.023.371-.063.516a.86.86 0 0 1-.218.375A1.08 1.08 0 0 1 1.766 0c-.125.04-.278.063-.454.063zm0 0"/>
    </symbol>
  </defs>
  <use x="393.732" y="305.756" fill="#505050" xlink:href="#OpAmp-Inverting-3Transistor-alt-1_svg__a"/>
  <use x="396.072" y="305.756" fill="#505050" xlink:href="#OpAmp-Inverting-3Transistor-alt-1_svg__b"/>
  <use x="398.472" y="305.756" fill="#505050" xlink:href="#OpAmp-Inverting-3Transistor-alt-1_svg__c"/>
  <use x="400.692" y="305.756" fill="#505050" xlink:href="#OpAmp-Inverting-3Transistor-alt-1_svg__d"/>
  <use x="402.912" y="305.756" fill="#505050" xlink:href="#OpAmp-Inverting-3Transistor-alt-1_svg__e"/>
  <use x="485.842" y="311.512" fill="#505050" xlink:href="#OpAmp-Inverting-3Transistor-alt-1_svg__a"/>
  <use x="488.182" y="311.512" fill="#505050" xlink:href="#OpAmp-Inverting-3Transistor-alt-1_svg__b"/>
  <use x="490.582" y="311.512" fill="#505050" xlink:href="#OpAmp-Inverting-3Transistor-alt-1_svg__c"/>
  <use x="492.802" y="311.512" fill="#505050" xlink:href="#OpAmp-Inverting-3Transistor-alt-1_svg__d"/>
  <use x="495.022" y="311.512" fill="#505050" xlink:href="#OpAmp-Inverting-3Transistor-alt-1_svg__e"/>
  <use x="462.239" y="302.881" fill="#505050" xlink:href="#OpAmp-Inverting-3Transistor-alt-1_svg__a"/>
  <use x="464.579" y="302.881" fill="#505050" xlink:href="#OpAmp-Inverting-3Transistor-alt-1_svg__b"/>
  <use x="466.979" y="302.881" fill="#505050" xlink:href="#OpAmp-Inverting-3Transistor-alt-1_svg__c"/>
  <use x="469.199" y="302.881" fill="#505050" xlink:href="#OpAmp-Inverting-3Transistor-alt-1_svg__c"/>
  <use x="471.419" y="302.881" fill="#505050" xlink:href="#OpAmp-Inverting-3Transistor-alt-1_svg__e"/>
  <use x="351.416" y="312.952" fill="#505050" xlink:href="#OpAmp-Inverting-3Transistor-alt-1_svg__f"/>
  <use x="353.636" y="312.952" fill="#505050" xlink:href="#OpAmp-Inverting-3Transistor-alt-1_svg__g"/>
  <use x="355.856" y="312.952" fill="#505050" xlink:href="#OpAmp-Inverting-3Transistor-alt-1_svg__g"/>
  <use x="358.076" y="312.952" fill="#505050" xlink:href="#OpAmp-Inverting-3Transistor-alt-1_svg__h"/>
  <use x="433.632" y="232.372" fill="#505050" xlink:href="#OpAmp-Inverting-3Transistor-alt-1_svg__f"/>
  <use x="435.853" y="232.372" fill="#505050" xlink:href="#OpAmp-Inverting-3Transistor-alt-1_svg__i"/>
  <use x="427.336" y="295.685" fill="#505050" xlink:href="#OpAmp-Inverting-3Transistor-alt-1_svg__e"/>
  <use x="429.556" y="295.685" fill="#505050" xlink:href="#OpAmp-Inverting-3Transistor-alt-1_svg__c"/>
  <use x="431.776" y="295.685" fill="#505050" xlink:href="#OpAmp-Inverting-3Transistor-alt-1_svg__h"/>
  <use x="379.779" y="282.736" fill="#505050" xlink:href="#OpAmp-Inverting-3Transistor-alt-1_svg__e"/>
  <use x="381.999" y="282.736" fill="#505050" xlink:href="#OpAmp-Inverting-3Transistor-alt-1_svg__j"/>
  <use x="383.199" y="282.736" fill="#505050" xlink:href="#OpAmp-Inverting-3Transistor-alt-1_svg__c"/>
  <use x="385.419" y="282.736" fill="#505050" xlink:href="#OpAmp-Inverting-3Transistor-alt-1_svg__h"/>
  <use x="402.807" y="282.736" fill="#505050" xlink:href="#OpAmp-Inverting-3Transistor-alt-1_svg__d"/>
  <use x="405.027" y="282.736" fill="#505050" xlink:href="#OpAmp-Inverting-3Transistor-alt-1_svg__j"/>
  <use x="406.227" y="282.736" fill="#505050" xlink:href="#OpAmp-Inverting-3Transistor-alt-1_svg__e"/>
  <use x="408.447" y="282.736" fill="#505050" xlink:href="#OpAmp-Inverting-3Transistor-alt-1_svg__h"/>
  <use x="475.31" y="282.736" fill="#505050" xlink:href="#OpAmp-Inverting-3Transistor-alt-1_svg__f"/>
  <use x="477.53" y="282.736" fill="#505050" xlink:href="#OpAmp-Inverting-3Transistor-alt-1_svg__h"/>
  <use x="394.348" y="345.471" fill="#505050" xlink:href="#OpAmp-Inverting-3Transistor-alt-1_svg__k"/>
  <use x="396.568" y="345.471" fill="#505050" xlink:href="#OpAmp-Inverting-3Transistor-alt-1_svg__l"/>
  <use x="399.508" y="345.471" fill="#505050" xlink:href="#OpAmp-Inverting-3Transistor-alt-1_svg__m"/>
  <use x="401.728" y="345.471" fill="#505050" xlink:href="#OpAmp-Inverting-3Transistor-alt-1_svg__j"/>
  <use x="402.928" y="345.471" fill="#505050" xlink:href="#OpAmp-Inverting-3Transistor-alt-1_svg__m"/>
  <use x="405.148" y="345.471" fill="#505050" xlink:href="#OpAmp-Inverting-3Transistor-alt-1_svg__n"/>
  <use x="328.329" y="320.148" fill="#505050" xlink:href="#OpAmp-Inverting-3Transistor-alt-1_svg__m"/>
  <use x="330.549" y="320.148" fill="#505050" xlink:href="#OpAmp-Inverting-3Transistor-alt-1_svg__m"/>
  <use x="332.768" y="320.148" fill="#505050" xlink:href="#OpAmp-Inverting-3Transistor-alt-1_svg__o"/>
  <use x="334.989" y="320.148" fill="#505050" xlink:href="#OpAmp-Inverting-3Transistor-alt-1_svg__p"/>
  <use x="506.193" y="302.881" fill="#505050" xlink:href="#OpAmp-Inverting-3Transistor-alt-1_svg__m"/>
  <use x="508.413" y="302.881" fill="#505050" xlink:href="#OpAmp-Inverting-3Transistor-alt-1_svg__j"/>
  <use x="509.613" y="302.881" fill="#505050" xlink:href="#OpAmp-Inverting-3Transistor-alt-1_svg__m"/>
  <use x="511.832" y="302.881" fill="#505050" xlink:href="#OpAmp-Inverting-3Transistor-alt-1_svg__q"/>
  <use x="514.053" y="302.881" fill="#505050" xlink:href="#OpAmp-Inverting-3Transistor-alt-1_svg__p"/>
  <use x="322.932" y="352.955" fill="#505050" xlink:href="#OpAmp-Inverting-3Transistor-alt-1_svg__r"/>
  <use x="325.632" y="352.955" fill="#505050" xlink:href="#OpAmp-Inverting-3Transistor-alt-1_svg__s"/>
  <use x="328.332" y="352.955" fill="#505050" xlink:href="#OpAmp-Inverting-3Transistor-alt-1_svg__t"/>
  <use x="507.152" y="335.688" fill="#505050" xlink:href="#OpAmp-Inverting-3Transistor-alt-1_svg__r"/>
  <use x="509.852" y="335.688" fill="#505050" xlink:href="#OpAmp-Inverting-3Transistor-alt-1_svg__s"/>
  <use x="512.552" y="335.688" fill="#505050" xlink:href="#OpAmp-Inverting-3Transistor-alt-1_svg__t"/>
  <use x="376.506" y="305.756" fill="#505050" xlink:href="#OpAmp-Inverting-3Transistor-alt-1_svg__u"/>
  <use x="378.846" y="305.756" fill="#505050" xlink:href="#OpAmp-Inverting-3Transistor-alt-1_svg__f"/>
  <use x="468.616" y="311.512" fill="#505050" xlink:href="#OpAmp-Inverting-3Transistor-alt-1_svg__u"/>
  <use x="470.956" y="311.512" fill="#505050" xlink:href="#OpAmp-Inverting-3Transistor-alt-1_svg__v"/>
  <use x="462.238" y="288.489" fill="#505050" xlink:href="#OpAmp-Inverting-3Transistor-alt-1_svg__u"/>
  <use x="464.578" y="288.489" fill="#505050" xlink:href="#OpAmp-Inverting-3Transistor-alt-1_svg__m"/>
  <use x="353.395" y="308.116" fill="#505050" xlink:href="#OpAmp-Inverting-3Transistor-alt-1_svg__w"/>
  <use x="355.915" y="308.116" fill="#505050" xlink:href="#OpAmp-Inverting-3Transistor-alt-1_svg__f"/>
  <use x="433.991" y="227.536" fill="#505050" xlink:href="#OpAmp-Inverting-3Transistor-alt-1_svg__w"/>
  <use x="436.511" y="227.536" fill="#505050" xlink:href="#OpAmp-Inverting-3Transistor-alt-1_svg__v"/>
  <use x="428.234" y="290.849" fill="#505050" xlink:href="#OpAmp-Inverting-3Transistor-alt-1_svg__w"/>
  <use x="430.755" y="290.849" fill="#505050" xlink:href="#OpAmp-Inverting-3Transistor-alt-1_svg__m"/>
  <use x="382.658" y="274.1" fill="#505050" xlink:href="#OpAmp-Inverting-3Transistor-alt-1_svg__w"/>
  <use x="385.178" y="274.1" fill="#505050" xlink:href="#OpAmp-Inverting-3Transistor-alt-1_svg__d"/>
  <use x="405.686" y="274.1" fill="#505050" xlink:href="#OpAmp-Inverting-3Transistor-alt-1_svg__w"/>
  <use x="408.206" y="274.1" fill="#505050" xlink:href="#OpAmp-Inverting-3Transistor-alt-1_svg__c"/>
  <use x="474.768" y="274.1" fill="#505050" xlink:href="#OpAmp-Inverting-3Transistor-alt-1_svg__w"/>
  <use x="477.288" y="274.1" fill="#505050" xlink:href="#OpAmp-Inverting-3Transistor-alt-1_svg__x"/>
  <use x="402.627" y="340.29" fill="#505050" xlink:href="#OpAmp-Inverting-3Transistor-alt-1_svg__t"/>
  <use x="405.327" y="340.29" fill="#505050" xlink:href="#OpAmp-Inverting-3Transistor-alt-1_svg__f"/>
  <use x="330.427" y="305.756" fill="#505050" xlink:href="#OpAmp-Inverting-3Transistor-alt-1_svg__b"/>
  <use x="332.827" y="305.756" fill="#505050" xlink:href="#OpAmp-Inverting-3Transistor-alt-1_svg__v"/>
  <use x="295.404" y="330.219" fill="#505050" xlink:href="#OpAmp-Inverting-3Transistor-alt-1_svg__y"/>
  <use x="296.904" y="330.219" fill="#505050" xlink:href="#OpAmp-Inverting-3Transistor-alt-1_svg__s"/>
  <use x="299.604" y="330.219" fill="#505050" xlink:href="#OpAmp-Inverting-3Transistor-alt-1_svg__z"/>
  <use x="293.904" y="312.952" fill="#505050" xlink:href="#OpAmp-Inverting-3Transistor-alt-1_svg__y"/>
  <use x="295.404" y="312.952" fill="#505050" xlink:href="#OpAmp-Inverting-3Transistor-alt-1_svg__s"/>
  <use x="298.104" y="312.952" fill="#505050" xlink:href="#OpAmp-Inverting-3Transistor-alt-1_svg__A"/>
  <use x="537.077" y="312.952" fill="#505050" xlink:href="#OpAmp-Inverting-3Transistor-alt-1_svg__B"/>
  <use x="539.897" y="312.952" fill="#505050" xlink:href="#OpAmp-Inverting-3Transistor-alt-1_svg__C"/>
  <use x="542.538" y="312.952" fill="#505050" xlink:href="#OpAmp-Inverting-3Transistor-alt-1_svg__u"/>
  <use x="544.877" y="312.952" fill="#505050" xlink:href="#OpAmp-Inverting-3Transistor-alt-1_svg__z"/>
  <use x="537.077" y="295.685" fill="#505050" xlink:href="#OpAmp-Inverting-3Transistor-alt-1_svg__B"/>
  <use x="539.897" y="295.685" fill="#505050" xlink:href="#OpAmp-Inverting-3Transistor-alt-1_svg__C"/>
  <use x="542.538" y="295.685" fill="#505050" xlink:href="#OpAmp-Inverting-3Transistor-alt-1_svg__u"/>
  <use x="544.877" y="295.685" fill="#505050" xlink:href="#OpAmp-Inverting-3Transistor-alt-1_svg__A"/>
  <use x="508.831" y="288.489" fill="#505050" xlink:href="#OpAmp-Inverting-3Transistor-alt-1_svg__b"/>
  <use x="511.231" y="288.489" fill="#505050" xlink:href="#OpAmp-Inverting-3Transistor-alt-1_svg__m"/>
  <use x="432.732" y="246.76" fill="#505050" xlink:href="#OpAmp-Inverting-3Transistor-alt-1_svg__n"/>
  <use x="435.132" y="246.76" fill="#505050" xlink:href="#OpAmp-Inverting-3Transistor-alt-1_svg__b"/>
  <use x="437.532" y="246.76" fill="#505050" xlink:href="#OpAmp-Inverting-3Transistor-alt-1_svg__b"/>
  <use x="409.284" y="370.222" fill="#505050" xlink:href="#OpAmp-Inverting-3Transistor-alt-1_svg__r"/>
  <use x="411.984" y="370.222" fill="#505050" xlink:href="#OpAmp-Inverting-3Transistor-alt-1_svg__s"/>
  <use x="414.684" y="370.222" fill="#505050" xlink:href="#OpAmp-Inverting-3Transistor-alt-1_svg__t"/>
  <path fill="none" stroke="maroon" stroke-linecap="round" stroke-linejoin="round" stroke-miterlimit="10" stroke-width=".36" d="M390.3 305.762l-5.64 2.816m3.18 6l1.14 2.043m0 0l-2.28.3m0 .001l1.14-2.344m2.46 2.703l-1.32-.66m0 0l-3.78-1.86"/>
  <path fill="none" stroke="maroon" stroke-linecap="round" stroke-linejoin="round" stroke-miterlimit="10" stroke-width=".72" d="M387.238 316.621l1.32-.121m.001 0l-.72-1.32"/>
  <path fill="none" stroke="maroon" stroke-linecap="round" stroke-linejoin="round" stroke-miterlimit="10" stroke-width=".6" d="M387.84 315.18l-.602 1.14m0 0h.903m-.001 0l-.3-.539"/>
  <path fill="maroon" stroke="maroon" stroke-linecap="round" stroke-linejoin="round" stroke-miterlimit="10" stroke-width=".12" d="M383.398 317.281h1.684v-11.52h-1.684zm0 0"/>
  <path fill="none" stroke="maroon" stroke-linecap="round" stroke-linejoin="round" stroke-miterlimit="10" stroke-width=".36" d="M378.781 311.52h5.758m5.761 11.52v-5.759m0-17.281v5.762"/>
  <path fill="none" stroke="maroon" stroke-linecap="round" stroke-linejoin="round" stroke-miterlimit="10" stroke-width=".9" d="M395.578 311.52a8.158 8.158 0 1 1-16.316 0 8.159 8.159 0 1 1 16.316 0zm0 0"/>
  <path fill="none" stroke="maroon" stroke-linecap="round" stroke-linejoin="round" stroke-miterlimit="10" stroke-width=".36" d="M482.398 311.52l-5.636 2.82m3.179 6l1.137 2.039m0 0l-2.277.3m-.001.001l1.141-2.34m2.457 2.7l-1.32-.661m0 0l-3.777-1.86"/>
  <path fill="none" stroke="maroon" stroke-linecap="round" stroke-linejoin="round" stroke-miterlimit="10" stroke-width=".72" d="M479.34 322.379l1.32-.117m0 0l-.719-1.32"/>
  <path fill="none" stroke="maroon" stroke-linecap="round" stroke-linejoin="round" stroke-miterlimit="10" stroke-width=".6" d="M479.941 320.941l-.601 1.137m0 0h.898m0 0l-.297-.539"/>
  <path fill="maroon" stroke="maroon" stroke-linecap="round" stroke-linejoin="round" stroke-miterlimit="10" stroke-width=".12" d="M475.5 323.04h1.68v-11.52h-1.68zm0 0"/>
  <path fill="none" stroke="maroon" stroke-linecap="round" stroke-linejoin="round" stroke-miterlimit="10" stroke-width=".36" d="M470.879 317.281h5.762m5.757 11.519v-5.76m0-17.278v5.758"/>
  <path fill="none" stroke="maroon" stroke-linecap="round" stroke-linejoin="round" stroke-miterlimit="10" stroke-width=".9" d="M487.68 317.281a8.161 8.161 0 1 1-16.323-.002 8.161 8.161 0 0 1 16.323.002zm0 0"/>
  <path fill="none" stroke="maroon" stroke-linecap="round" stroke-linejoin="round" stroke-miterlimit="10" stroke-width=".36" d="M458.34 290.46l-1.14-2.1m0 0l-2.4 2.519m0 0l3.54-.418m1.02-1.981l-1.68.961M459.36 300l-4.622-2.281"/>
  <path fill="none" stroke="maroon" stroke-linecap="round" stroke-linejoin="round" stroke-miterlimit="10" stroke-width=".6" d="M457.922 290.219l-.844-1.438m0 0l-1.738 1.739m0 0l2.281-.301m0 0l-.543-.84m0 0l-.898.543m0 0h.898"/>
  <path fill="maroon" stroke="maroon" stroke-linecap="round" stroke-linejoin="round" stroke-miterlimit="10" stroke-width=".12" d="M453.059 300h1.68v-11.52h-1.68zm0 0"/>
  <path fill="none" stroke="maroon" stroke-linecap="round" stroke-linejoin="round" stroke-miterlimit="10" stroke-width=".36" d="M447.84 294.238h5.762m5.758-11.519v5.761m0 17.282V300"/>
  <path fill="none" stroke="maroon" stroke-linecap="round" stroke-linejoin="round" stroke-miterlimit="10" stroke-width=".6" d="M464.64 294.238a8.159 8.159 0 0 1-8.16 8.16 8.161 8.161 0 1 1 8.16-8.16zm0 0"/>
  <path fill="none" stroke="maroon" stroke-linecap="round" stroke-linejoin="round" stroke-miterlimit="10" stroke-width=".36" d="M367.262 311.52H361.5m-17.281 0h5.761"/>
  <path fill="none" stroke="maroon" stroke-linecap="round" stroke-linejoin="round" stroke-miterlimit="10" stroke-width=".6" d="M349.98 313.5h11.52m0-4.02h-11.52m11.52 4.02v-4.02m-11.52 4.02v-4.02"/>
  <path fill="none" stroke="maroon" stroke-linecap="round" stroke-linejoin="round" stroke-miterlimit="10" stroke-width=".36" d="M447.84 230.941h-5.762m-17.278 0h5.759"/>
  <path fill="none" stroke="maroon" stroke-linecap="round" stroke-linejoin="round" stroke-miterlimit="10" stroke-width=".6" d="M430.559 232.922h11.52m-.001-4.024h-11.52m11.52 4.024v-4.024m-11.519 4.024v-4.024"/>
  <path fill="none" stroke="maroon" stroke-linecap="round" stroke-linejoin="round" stroke-miterlimit="10" stroke-width=".36" d="M442.078 294.238h-5.758m-17.28 0h5.76"/>
  <path fill="none" stroke="maroon" stroke-linecap="round" stroke-linejoin="round" stroke-miterlimit="10" stroke-width=".6" d="M424.8 296.281h11.52m0-4.019H424.8m11.52 4.019v-4.02m-11.52 4.02v-4.02"/>
  <path fill="none" stroke="maroon" stroke-linecap="round" stroke-linejoin="round" stroke-miterlimit="10" stroke-width=".36" d="M390.3 265.441v5.758m0 17.281v-5.761"/>
  <path fill="none" stroke="maroon" stroke-linecap="round" stroke-linejoin="round" stroke-miterlimit="10" stroke-width=".6" d="M392.281 282.719v-11.52m-4.019.001v11.519m4.019-11.519h-4.02m4.02 11.519h-4.02"/>
  <path fill="none" stroke="maroon" stroke-linecap="round" stroke-linejoin="round" stroke-miterlimit="10" stroke-width=".36" d="M413.281 265.441v5.758m0 17.281v-5.761"/>
  <path fill="none" stroke="maroon" stroke-linecap="round" stroke-linejoin="round" stroke-miterlimit="10" stroke-width=".6" d="M415.32 282.719v-11.52m-4.02.001v11.519m4.02-11.519h-4.02m4.02 11.519h-4.02"/>
  <path fill="none" stroke="maroon" stroke-linecap="round" stroke-linejoin="round" stroke-miterlimit="10" stroke-width=".36" d="M482.398 265.441v5.758m0 17.281v-5.761"/>
  <path fill="none" stroke="maroon" stroke-linecap="round" stroke-linejoin="round" stroke-miterlimit="10" stroke-width=".6" d="M484.379 282.719v-11.52m-4.019.001v11.519m4.019-11.519h-4.02m4.02 11.519h-4.02"/>
  <path fill="none" stroke="maroon" stroke-linecap="round" stroke-linejoin="round" stroke-miterlimit="10" stroke-width=".36" d="M413.281 346.02v-5.7m0-5.761v5.761"/>
  <path fill="none" stroke="maroon" stroke-linecap="round" stroke-linejoin="round" stroke-miterlimit="10" stroke-width=".6" d="M416.16 343.14l-2.879-5.699m0 0l-2.883 5.7m0-5.7h2.883m-2.883 5.699h5.762m-2.879-5.699h2.88m-.001 1.68v-1.68"/>
  <path fill="none" stroke="maroon" stroke-linecap="round" stroke-linejoin="round" stroke-miterlimit="10" stroke-width=".36" d="M326.941 311.52h4.02m7.499 0h-4.019"/>
  <path fill="maroon" stroke="maroon" stroke-linecap="round" stroke-linejoin="round" stroke-miterlimit="10" stroke-width=".12" d="M330.96 315.54h1.2v-8.04h-1.2zm2.278 0h1.203v-8.04h-1.203zm0 0"/>
  <path fill="none" stroke="maroon" stroke-linecap="round" stroke-linejoin="round" stroke-miterlimit="10" stroke-width=".6" d="M315.422 328.8h-5.762"/>
  <path fill="maroon" fill-rule="evenodd" d="M303.66 328.8l.121-.902.36-.84.597-.66.723-.476.898-.3h.903l.84.3.777.476.601.66.36.84.12.903-.12.898-.36.781-.601.72-.777.48-.84.242h-.903l-.898-.242-.723-.48-.597-.72-.36-.78-.12-.9h.538l.121-.78.301-.66.48-.54.598-.422.723-.18h.777l.66.18.66.422.481.54.3.66.122.78-.121.72-.301.66-.48.539-.66.422-.66.18h-.778l-.723-.18-.597-.422-.48-.54-.302-.66-.12-.718h-.54"/>
  <path fill="none" stroke="maroon" stroke-linecap="round" stroke-linejoin="round" stroke-miterlimit="10" stroke-width=".12" d="M303.66 328.8l.121-.902.36-.84.597-.66.723-.476.898-.3h.903l.84.3.777.476.601.66.36.84.12.903-.12.898-.36.781-.601.72-.777.48-.84.242h-.903l-.898-.242-.723-.48-.597-.72-.36-.78-.12-.9h.538l.121-.78.301-.66.48-.54.598-.422.723-.18h.777l.66.18.66.422.481.54.3.66.122.78-.121.72-.301.66-.48.539-.66.422-.66.18h-.778l-.723-.18-.597-.422-.48-.54-.302-.66-.12-.718zm0 0"/>
  <path fill="none" stroke="maroon" stroke-linecap="round" stroke-linejoin="round" stroke-miterlimit="10" stroke-width=".6" d="M315.422 311.52h-5.762"/>
  <path fill="maroon" fill-rule="evenodd" d="M303.66 311.52l.121-.899.36-.84.597-.66.723-.48.898-.243h.903l.84.243.777.48.601.66.36.84.12.899-.12.902-.36.777-.601.723-.777.476-.84.243h-.903l-.898-.243-.723-.476-.597-.723-.36-.777-.12-.902h.538l.121-.72.301-.66.48-.6.598-.36.723-.239h.777l.66.239.66.36.481.6.3.66.122.72-.121.718-.301.66-.48.543-.66.418-.66.243h-.778l-.723-.243-.597-.418-.48-.543-.302-.66-.12-.718h-.54"/>
  <path fill="none" stroke="maroon" stroke-linecap="round" stroke-linejoin="round" stroke-miterlimit="10" stroke-width=".12" d="M303.66 311.52l.121-.899.36-.84.597-.66.723-.48.898-.243h.903l.84.243.777.48.601.66.36.84.12.899-.12.902-.36.777-.601.723-.777.476-.84.243h-.903l-.898-.243-.723-.476-.597-.723-.36-.777-.12-.902h.538l.121-.72.301-.66.48-.6.598-.36.723-.239h.777l.66.239.66.36.481.6.3.66.122.72-.121.718-.301.66-.48.543-.66.418-.66.243h-.778l-.723-.243-.597-.418-.48-.543-.302-.66-.12-.718zm0 0"/>
  <path fill="none" stroke="maroon" stroke-linecap="round" stroke-linejoin="round" stroke-miterlimit="10" stroke-width=".6" d="M522.66 311.52h5.762"/>
  <path fill="maroon" fill-rule="evenodd" d="M528.18 311.52l.12-.899.36-.84.602-.66.718-.48.899-.243h.902l.84.243.777.48.602.66.36.84.12.899-.12.902-.36.777-.602.723-.777.476-.84.243h-.902l-.899-.243-.718-.476-.602-.723-.36-.777-.12-.902h.539l.12-.72.302-.66.48-.6.598-.36.722-.239h.778l.66.239.66.36.48.6.301.66.121.72-.12.718-.301.66-.48.543-.661.418-.66.243h-.778l-.722-.243-.598-.418-.48-.543-.301-.66-.121-.718h-.54"/>
  <path fill="none" stroke="maroon" stroke-linecap="round" stroke-linejoin="round" stroke-miterlimit="10" stroke-width=".12" d="M528.18 311.52l.12-.899.36-.84.602-.66.718-.48.899-.243h.902l.84.243.777.48.602.66.36.84.12.899-.12.902-.36.777-.602.723-.777.476-.84.243h-.902l-.899-.243-.718-.476-.602-.723-.36-.777-.12-.902h.539l.12-.72.302-.66.48-.6.598-.36.722-.239h.778l.66.239.66.36.48.6.301.66.121.72-.12.718-.301.66-.48.543-.661.418-.66.243h-.778l-.722-.243-.598-.418-.48-.543-.301-.66-.121-.718zm0 0"/>
  <path fill="none" stroke="maroon" stroke-linecap="round" stroke-linejoin="round" stroke-miterlimit="10" stroke-width=".6" d="M522.66 294.238h5.762"/>
  <path fill="maroon" fill-rule="evenodd" d="M528.18 294.238l.12-.898.36-.781.602-.72.718-.48.899-.238h.902l.84.238.777.48.602.72.36.78.12.9-.12.902-.36.84-.602.66-.777.48-.84.238h-.902l-.899-.238-.718-.48-.602-.66-.36-.84-.12-.903h.539l.12-.718.302-.66.48-.598.598-.364.722-.238h.778l.66.238.66.364.48.597.301.66.121.72-.12.722-.301.66-.48.598-.661.36-.66.241h-.778l-.722-.242-.598-.36-.48-.597-.301-.66-.121-.723h-.54"/>
  <path fill="none" stroke="maroon" stroke-linecap="round" stroke-linejoin="round" stroke-miterlimit="10" stroke-width=".12" d="M528.18 294.238l.12-.898.36-.781.602-.72.718-.48.899-.238h.902l.84.238.777.48.602.72.36.78.12.9-.12.902-.36.84-.602.66-.777.48-.84.238h-.902l-.899-.238-.718-.48-.602-.66-.36-.84-.12-.903h.539l.12-.718.302-.66.48-.598.598-.364.722-.238h.778l.66.238.66.364.48.597.301.66.121.72-.12.722-.301.66-.48.598-.661.36-.66.241h-.778l-.722-.242-.598-.36-.48-.597-.301-.66-.121-.723zm0 0"/>
  <use x="505.355" y="292.086" fill="maroon" xlink:href="#OpAmp-Inverting-3Transistor-alt-1_svg__A"/>
  <path fill="none" stroke="maroon" stroke-linecap="round" stroke-linejoin="round" stroke-miterlimit="10" stroke-width=".36" d="M516.898 294.238h-4.02m-7.437 0h3.72"/>
  <path fill="maroon" stroke="maroon" stroke-linecap="round" stroke-linejoin="round" stroke-miterlimit="10" stroke-width=".12" d="M511.738 298.86h1.442v-9.239h-1.442zm0 0"/>
  <path fill="none" stroke="maroon" stroke-linecap="round" stroke-linejoin="round" stroke-miterlimit="10" stroke-width=".3" d="M509.16 289.8h1.442m0 0v8.88m0 0h-1.442m0 0v-4.442m0 0v-4.437"/>
  <path fill="none" stroke="maroon" stroke-linecap="round" stroke-linejoin="round" stroke-miterlimit="10" stroke-width=".6" d="M323.219 346.02h7.5"/>
  <path fill="none" stroke="maroon" stroke-linecap="round" stroke-linejoin="round" stroke-miterlimit="10" stroke-width=".36" d="M326.941 340.32v5.7"/>
  <path fill="none" stroke="maroon" stroke-linecap="round" stroke-linejoin="round" stroke-miterlimit="10" stroke-width=".6" d="M324.66 347.219h4.621m-3.179 1.141h1.738m179.582-19.56h7.5"/>
  <path fill="none" stroke="maroon" stroke-linecap="round" stroke-linejoin="round" stroke-miterlimit="10" stroke-width=".36" d="M511.2 323.04v5.76"/>
  <path fill="none" stroke="maroon" stroke-linecap="round" stroke-linejoin="round" stroke-miterlimit="10" stroke-width=".6" d="M508.86 329.941h4.62m-3.18 1.137h1.74M439.2 252.54l-2.88-4.321m0 0l-2.879 4.32"/>
  <path fill="none" stroke="maroon" stroke-linecap="round" stroke-linejoin="round" stroke-miterlimit="10" stroke-width=".36" d="M436.32 253.98v-5.761"/>
  <path fill="none" stroke="maroon" stroke-linecap="round" stroke-linejoin="round" stroke-miterlimit="10" stroke-width=".6" d="M409.559 363.3h7.5"/>
  <path fill="none" stroke="maroon" stroke-linecap="round" stroke-linejoin="round" stroke-miterlimit="10" stroke-width=".36" d="M413.281 357.54v5.76"/>
  <path fill="none" stroke="maroon" stroke-linecap="round" stroke-linejoin="round" stroke-miterlimit="10" stroke-width=".6" d="M411 364.441h4.621m-3.18 1.199h1.739"/>
  <path fill="none" stroke="green" stroke-linecap="round" stroke-linejoin="round" stroke-miterlimit="10" stroke-width=".36" d="M326.941 340.32V328.8m0 0h-11.52m207.239-17.28H511.2m0 0v11.52m-97.919 28.741v-5.761m0 5.761v5.758"/>
  <path fill="green" fill-rule="evenodd" d="M414.422 351.781a1.14 1.14 0 1 1-2.281 0c0-.633.507-1.14 1.14-1.14.63 0 1.14.507 1.14 1.14"/>
  <path fill="none" stroke="green" stroke-linecap="round" stroke-linejoin="round" stroke-miterlimit="10" stroke-width=".12" d="M414.422 351.781a1.14 1.14 0 1 1-2.281 0c0-.633.507-1.14 1.14-1.14.63 0 1.14.507 1.14 1.14zm0 0"/>
  <path fill="none" stroke="green" stroke-linecap="round" stroke-linejoin="round" stroke-miterlimit="10" stroke-width=".36" d="M482.398 328.8v22.981m0 0h-69.117m46.079-46.019v11.52m0-.001h11.519m-57.598 17.278V328.8m-22.981-5.76v5.76m0 0h22.981m0 0v-40.32"/>
  <path fill="green" fill-rule="evenodd" d="M414.422 328.8a1.14 1.14 0 1 1-1.14-1.14c.628 0 1.14.512 1.14 1.14"/>
  <path fill="none" stroke="green" stroke-linecap="round" stroke-linejoin="round" stroke-miterlimit="10" stroke-width=".12" d="M414.422 328.8a1.14 1.14 0 1 1-1.14-1.14c.628 0 1.14.512 1.14 1.14zm0 0"/>
  <path fill="none" stroke="green" stroke-linecap="round" stroke-linejoin="round" stroke-miterlimit="10" stroke-width=".36" d="M390.3 294.238V300m0-5.762h28.74m-28.74-5.758v5.758"/>
  <path fill="green" fill-rule="evenodd" d="M391.441 294.238a1.14 1.14 0 1 1-2.279.003 1.14 1.14 0 0 1 2.28-.003"/>
  <path fill="none" stroke="green" stroke-linecap="round" stroke-linejoin="round" stroke-miterlimit="10" stroke-width=".12" d="M391.441 294.238a1.14 1.14 0 1 1-2.279.003 1.14 1.14 0 0 1 2.28-.003zm0 0"/>
  <path fill="none" stroke="green" stroke-linecap="round" stroke-linejoin="round" stroke-miterlimit="10" stroke-width=".36" d="M315.422 311.52h11.52m11.518 0h5.759m23.043 0h5.758m0 0h5.761m46.019-80.579h-51.78m0 0v80.579"/>
  <path fill="green" fill-rule="evenodd" d="M374.16 311.52a1.142 1.142 0 1 1-1.141-1.141c.63 0 1.141.512 1.141 1.14"/>
  <path fill="none" stroke="green" stroke-linecap="round" stroke-linejoin="round" stroke-miterlimit="10" stroke-width=".12" d="M374.16 311.52a1.142 1.142 0 1 1-1.141-1.141c.63 0 1.141.512 1.141 1.14zm0 0"/>
  <path fill="none" stroke="green" stroke-linecap="round" stroke-linejoin="round" stroke-miterlimit="10" stroke-width=".36" d="M447.84 294.238h-5.762m40.32 0v11.524m0-11.524h17.282m0 0h5.761m-5.761 0v-63.297m0 0h-51.84"/>
  <path fill="green" fill-rule="evenodd" d="M500.82 294.238a1.14 1.14 0 1 1-2.279.003 1.14 1.14 0 0 1 2.28-.003"/>
  <path fill="none" stroke="green" stroke-linecap="round" stroke-linejoin="round" stroke-miterlimit="10" stroke-width=".12" d="M500.82 294.238a1.14 1.14 0 1 1-2.279.003 1.14 1.14 0 0 1 2.28-.003zm0 0"/>
  <path fill="none" stroke="green" stroke-linecap="round" stroke-linejoin="round" stroke-miterlimit="10" stroke-width=".36" d="M482.398 288.48v5.758"/>
  <path fill="green" fill-rule="evenodd" d="M483.54 294.238c0 .633-.509 1.14-1.142 1.14a1.136 1.136 0 0 1-1.136-1.14c0-.629.508-1.136 1.136-1.136.633 0 1.141.507 1.141 1.136"/>
  <path fill="none" stroke="green" stroke-linecap="round" stroke-linejoin="round" stroke-miterlimit="10" stroke-width=".12" d="M483.54 294.238c0 .633-.509 1.14-1.142 1.14a1.136 1.136 0 0 1-1.136-1.14c0-.629.508-1.136 1.136-1.136.633 0 1.141.507 1.141 1.136zm0 0"/>
  <path fill="none" stroke="green" stroke-linecap="round" stroke-linejoin="round" stroke-miterlimit="10" stroke-width=".36" d="M516.898 294.238h5.762m-132.36-34.5h22.981m0 0h23.04m-.001 0h23.04m0 0h23.038m-23.038 22.981v-22.98"/>
  <path fill="green" fill-rule="evenodd" d="M460.5 259.738a1.14 1.14 0 1 1-2.279.003 1.14 1.14 0 0 1 2.279-.003"/>
  <path fill="none" stroke="green" stroke-linecap="round" stroke-linejoin="round" stroke-miterlimit="10" stroke-width=".12" d="M460.5 259.738a1.14 1.14 0 1 1-2.279.003 1.14 1.14 0 0 1 2.279-.003zm0 0"/>
  <path fill="none" stroke="green" stroke-linecap="round" stroke-linejoin="round" stroke-miterlimit="10" stroke-width=".36" d="M436.32 253.98v5.758"/>
  <path fill="green" fill-rule="evenodd" d="M437.46 259.738a1.14 1.14 0 1 1-2.278.003 1.14 1.14 0 0 1 2.279-.003"/>
  <path fill="none" stroke="green" stroke-linecap="round" stroke-linejoin="round" stroke-miterlimit="10" stroke-width=".12" d="M437.46 259.738a1.14 1.14 0 1 1-2.278.003 1.14 1.14 0 0 1 2.279-.003zm0 0"/>
  <path fill="none" stroke="green" stroke-linecap="round" stroke-linejoin="round" stroke-miterlimit="10" stroke-width=".36" d="M413.281 265.441v-5.703"/>
  <path fill="green" fill-rule="evenodd" d="M414.422 259.738a1.14 1.14 0 0 1-1.14 1.14 1.136 1.136 0 0 1-1.141-1.14c0-.629.507-1.136 1.14-1.136.63 0 1.14.507 1.14 1.136"/>
  <path fill="none" stroke="green" stroke-linecap="round" stroke-linejoin="round" stroke-miterlimit="10" stroke-width=".12" d="M414.422 259.738a1.14 1.14 0 0 1-1.14 1.14 1.136 1.136 0 0 1-1.141-1.14c0-.629.507-1.136 1.14-1.136.63 0 1.14.507 1.14 1.136zm0 0"/>
  <path fill="none" stroke="green" stroke-linecap="round" stroke-linejoin="round" stroke-miterlimit="10" stroke-width=".36" d="M390.3 259.738v5.703m92.098 0v-5.703"/>
</svg>
