<svg xmlns="http://www.w3.org/2000/svg" xmlns:xlink="http://www.w3.org/1999/xlink" width="595pt" height="560" viewBox="0 0 595 420"><defs><symbol overflow="visible" id="a"><path d="M1.063 0H.14v-.234h.312V-2.11H.141v-.235h.921v.235H.766v1.875h.296zm0 0"/></symbol><symbol overflow="visible" id="b"><path d="M1.922 0h-.36L.532-2.031V0H.233v-2.344h.454l.937 1.86v-1.86h.297zm0 0"/></symbol><symbol overflow="visible" id="e"><path d="M1.906-2.078c.082.105.149.23.203.375.051.156.079.336.079.531 0 .188-.028.36-.079.516a1.31 1.31 0 0 1-.203.39 1.037 1.037 0 0 1-.343.235c-.125.05-.266.078-.422.078C.984.047.844.02.719-.031A.724.724 0 0 1 .39-.266a1.05 1.05 0 0 1-.22-.39 1.943 1.943 0 0 1-.062-.516c0-.195.02-.375.063-.531.05-.145.125-.27.219-.375a.787.787 0 0 1 .328-.235 1.036 1.036 0 0 1 1.188.234zm-.047.906a1.76 1.76 0 0 0-.046-.422 1.916 1.916 0 0 0-.141-.297.951.951 0 0 0-.234-.187.861.861 0 0 0-.297-.047.83.83 0 0 0-.297.047.624.624 0 0 0-.219.187.885.885 0 0 0-.14.313c-.044.117-.063.25-.063.406 0 .313.066.547.203.703.125.168.297.25.516.25a.65.65 0 0 0 .53-.25c.126-.156.188-.39.188-.703zm0 0"/></symbol><symbol overflow="visible" id="f"><path d="M1.063.047C.913.047.796.03.703 0a.695.695 0 0 1-.265-.172.538.538 0 0 1-.172-.297A1.201 1.201 0 0 1 .203-.89v-1.453h.313V-.89c0 .118.007.211.03.282a.45.45 0 0 0 .079.203c.04.062.098.11.172.14a.66.66 0 0 0 .265.047.634.634 0 0 0 .25-.047.387.387 0 0 0 .188-.14.537.537 0 0 0 .078-.203c.008-.07.016-.16.016-.266v-1.469h.312V-.89c0 .168-.015.309-.047.422a.562.562 0 0 1-.171.297.76.76 0 0 1-.266.172 1.162 1.162 0 0 1-.36.047zm0 0"/></symbol><symbol overflow="visible" id="g"><path d="M.781 0v-2.078H0v-.266h1.89v.266h-.796V0zm0 0"/></symbol><symbol overflow="visible" id="h"><path d="M1.719-1.64a.782.782 0 0 1-.047.28.793.793 0 0 1-.438.423 1.231 1.231 0 0 1-.421.062H.546V0H.234v-2.344h.594c.133 0 .254.012.36.031a.777.777 0 0 1 .469.328.9.9 0 0 1 .062.344zm-.328 0a.69.69 0 0 0-.032-.204A.491.491 0 0 0 1.234-2a.534.534 0 0 0-.171-.063 2.314 2.314 0 0 0-.25-.015H.546v.937h.219c.125 0 .226-.007.312-.03a.418.418 0 0 0 .188-.11.72.72 0 0 0 .093-.157.568.568 0 0 0 .032-.203zm0 0"/></symbol><symbol overflow="visible" id="i"><path d="M2.875-2.344L2.281 0h-.344l-.484-1.953L.984 0H.641L.047-2.344h.312L.83-.39l.484-1.953h.312l.469 1.969.469-1.969zm0 0"/></symbol><symbol overflow="visible" id="j"><path d="M2.063 0h-.407l-.75-.938h-.36V0H.235v-2.344h.61c.133 0 .25.008.344.016a.68.68 0 0 1 .25.094.897.897 0 0 1 .203.218.709.709 0 0 1 .062.297c0 .18-.043.324-.125.438a.791.791 0 0 1-.36.265zM1.39-1.688a1.095 1.095 0 0 0-.047-.187.281.281 0 0 0-.11-.125.376.376 0 0 0-.156-.063 1.74 1.74 0 0 0-.219-.015H.547v.875h.281c.082 0 .16-.004.235-.016a.53.53 0 0 0 .187-.093.613.613 0 0 0 .11-.157c.007-.062.019-.133.03-.218zm0 0"/></symbol><symbol overflow="visible" id="m"><path d="M1.156.047C1 .047.86.02.734-.031a.724.724 0 0 1-.328-.235A1.045 1.045 0 0 1 .187-.64a1.6 1.6 0 0 1-.078-.53c0-.196.024-.368.079-.516a1.06 1.06 0 0 1 .203-.391.928.928 0 0 1 .343-.235c.125-.05.266-.078.422-.078.082 0 .16.008.235.016.062.012.125.027.187.047.05.012.102.027.156.047l.157.094v.374h-.032a.388.388 0 0 0-.109-.093.69.69 0 0 0-.156-.11 1.041 1.041 0 0 0-.188-.078.972.972 0 0 0-.25-.031.702.702 0 0 0-.516.234.738.738 0 0 0-.156.313c-.043.117-.062.25-.062.406 0 .156.02.293.062.406a.82.82 0 0 0 .157.297c.07.086.148.149.234.188a.885.885 0 0 0 .281.047.827.827 0 0 0 .25-.032.76.76 0 0 0 .203-.078.586.586 0 0 0 .157-.11 1 1 0 0 0 .093-.077h.032v.375a2.829 2.829 0 0 0-.141.062c-.055.024-.11.043-.172.063a1.16 1.16 0 0 1-.187.062 1.818 1.818 0 0 1-.235.016zm0 0"/></symbol><symbol overflow="visible" id="n"><path d="M.813-2.125c-.063 0-.122.008-.172.016l-.172.062a2.172 2.172 0 0 0-.234.125H.218v-.328A1 1 0 0 1 .5-2.36a1.232 1.232 0 0 1 .61-.015c.081.031.156.07.218.11a.799.799 0 0 1 .156.187.57.57 0 0 1 .047.25.485.485 0 0 1-.125.328.486.486 0 0 1-.297.188v.03l.157.048c.05.023.101.058.156.109a.68.68 0 0 1 .11.172.83.83 0 0 1 0 .547.774.774 0 0 1-.406.406 1.039 1.039 0 0 1-.33.047A1.28 1.28 0 0 1 .454 0a.83.83 0 0 1-.297-.094v-.328h.016c.062.043.148.086.266.125a.774.774 0 0 0 .343.078A.525.525 0 0 0 .97-.25a.31.31 0 0 0 .156-.11.345.345 0 0 0 .11-.156.568.568 0 0 0 .03-.203.487.487 0 0 0-.046-.219.34.34 0 0 0-.094-.125.376.376 0 0 0-.156-.062 1.65 1.65 0 0 0-.203-.016H.64v-.265h.093a.57.57 0 0 0 .344-.094.353.353 0 0 0 .14-.297.37.37 0 0 0-.03-.156.415.415 0 0 0-.219-.156c-.055-.008-.106-.016-.157-.016zm0 0"/></symbol><symbol overflow="visible" id="q"><path d="M1.5 0H.36v-.234h.42v-1.579H.36v-.218c.157 0 .274-.02.36-.063.07-.05.113-.14.125-.265h.25v2.125H1.5zm0 0"/></symbol><symbol overflow="visible" id="r"><path d="M1.625 0H.172v-.328A9.33 9.33 0 0 1 .469-.61c.094-.094.18-.188.265-.282.176-.195.301-.359.375-.484a.737.737 0 0 0 .094-.36.428.428 0 0 0-.11-.297.814.814 0 0 0-.14-.077.841.841 0 0 0-.156-.016c-.055 0-.11.008-.172.016a4.337 4.337 0 0 1-.156.062.342.342 0 0 0-.125.063 2.172 2.172 0 0 0-.11.062H.22v-.344c.062-.03.156-.062.281-.093.113-.032.223-.047.328-.047.219 0 .39.058.516.172a.66.66 0 0 1 .187.484.95.95 0 0 1-.031.25 2.037 2.037 0 0 1-.094.219c-.043.062-.09.133-.14.203-.055.074-.11.14-.172.203l-.328.328C.64-.43.539-.336.469-.266h1.156zm0 0"/></symbol><symbol overflow="visible" id="s"><path d="M1.688-.813h-.282V0H1.11v-.813H.063v-.328l1.046-1.203h.297v1.281h.282zm-.579-.25v-.921l-.796.921zm0 0"/></symbol><symbol overflow="visible" id="t"><path d="M1.594-.75a.973.973 0 0 1-.047.313.74.74 0 0 1-.156.25.61.61 0 0 1-.25.171.847.847 0 0 1-.329.063A1.8 1.8 0 0 1 .484.016a1.954 1.954 0 0 1-.28-.094v-.344h.015a.25.25 0 0 0 .11.063.74.74 0 0 0 .14.062.73.73 0 0 0 .172.047.41.41 0 0 0 .171.031A.416.416 0 0 0 1-.266a.31.31 0 0 0 .156-.109c.04-.04.07-.094.094-.156a.72.72 0 0 0 0-.422.967.967 0 0 0-.11-.14.648.648 0 0 0-.156-.079.917.917 0 0 0-.234-.031c-.086 0-.168.012-.25.031-.086.012-.152.024-.203.031v-1.203h1.281v.266H.594v.625h.11a.32.32 0 0 0 .109-.016c.113 0 .21.012.296.032a.788.788 0 0 1 .25.125c.07.054.13.125.172.218.04.086.063.2.063.344zm0 0"/></symbol><symbol overflow="visible" id="u"><path d="M1.656-.766a.961.961 0 0 1-.062.344.528.528 0 0 1-.157.25.666.666 0 0 1-.234.156A.786.786 0 0 1 .625 0a.756.756 0 0 1-.234-.172A.713.713 0 0 1 .203-.5a1.887 1.887 0 0 1-.062-.531 1.53 1.53 0 0 1 .062-.563 1.29 1.29 0 0 1 .188-.422.966.966 0 0 1 .328-.28c.133-.063.289-.095.469-.095h.156c.039.012.078.024.11.032v.296h-.016c-.024-.007-.063-.023-.125-.046a1.17 1.17 0 0 0-.172-.016.62.62 0 0 0-.47.203c-.124.125-.198.32-.218.578a.716.716 0 0 1 .234-.11.745.745 0 0 1 .266-.046c.082 0 .16.012.235.031a.88.88 0 0 1 .218.11.605.605 0 0 1 .188.25.9.9 0 0 1 .062.343zm-.312.016A.634.634 0 0 0 1.297-1a.32.32 0 0 0-.125-.156c-.043-.032-.086-.055-.125-.078C.984-1.242.926-1.25.875-1.25a.538.538 0 0 0-.219.047 1.527 1.527 0 0 0-.203.094v.14c0 .168.016.305.047.406.031.094.07.168.125.22a.29.29 0 0 0 .14.109.31.31 0 0 0 .157.03.358.358 0 0 0 .297-.14c.082-.094.125-.226.125-.406zm0 0"/></symbol><symbol overflow="visible" id="z"><path d="M.672 0H.297v-.453h.375zm0 0"/></symbol><symbol overflow="visible" id="A"><path d="M1.594 0h-.297v-.203a1.115 1.115 0 0 1-.266.187.674.674 0 0 1-.484.032.527.527 0 0 1-.188-.125.38.38 0 0 1-.109-.204.893.893 0 0 1-.047-.312v-1.14H.5v1c0 .093.004.171.016.234 0 .062.015.12.046.172.02.043.051.074.094.093.04.024.098.032.172.032.07 0 .149-.02.235-.063.082-.039.16-.094.234-.156v-1.313h.297zm0 0"/></symbol><symbol overflow="visible" id="B"><path d="M1.64-2.078H.548v.672h1.047v.281H.547V0H.234v-2.344h1.407zm0 0"/></symbol><symbol overflow="visible" id="G"><path d="M1.64-1.172c0 .418-.062.727-.187.922-.125.2-.312.297-.562.297C.629.047.437-.051.312-.25.189-.445.126-.754.126-1.172c0-.426.063-.738.188-.937.124-.196.316-.297.578-.297.25 0 .437.105.562.312.125.211.188.516.188.922zm-.406.719c.032-.082.051-.18.063-.297a6.042 6.042 0 0 0 0-.844 1.03 1.03 0 0 0-.063-.297.387.387 0 0 0-.14-.187.34.34 0 0 0-.203-.063.355.355 0 0 0-.22.063.387.387 0 0 0-.14.187 1.076 1.076 0 0 0-.062.297 4.605 4.605 0 0 0-.016.422c0 .168.004.305.016.406.008.118.031.215.062.297.031.086.07.149.125.188.063.043.14.062.235.062a.224.224 0 0 0 .203-.062.362.362 0 0 0 .14-.172zm0 0"/></symbol><symbol overflow="visible" id="H"><path d="M1.672 0h-.39L.624-.844l-.11.11V0H.22v-2.453h.297v1.437l.687-.75h.375L.86-1.03zm0 0"/></symbol><symbol overflow="visible" id="I"><path d="M2.25 0h-.313v-2.031l-.609 1.39h-.187L.53-2.03V0H.234v-2.344h.438l.578 1.297.563-1.297h.437zm0 0"/></symbol><symbol overflow="visible" id="J"><path d="M1.656-2L.625 0H.297l1.078-2.078H.156v-.266h1.5zm0 0"/></symbol><symbol overflow="visible" id="O"><path d="M1.828-.719a.796.796 0 0 1-.062.313.724.724 0 0 1-.172.219 1.164 1.164 0 0 1-.297.14A1.296 1.296 0 0 1 .907 0H.233v-2.344H.86c.164 0 .29.008.375.016a.92.92 0 0 1 .25.078.472.472 0 0 1 .188.172.634.634 0 0 1 .047.25.55.55 0 0 1-.078.297.644.644 0 0 1-.25.218.707.707 0 0 1 .328.22.61.61 0 0 1 .11.374zM1.391-1.78a.774.774 0 0 0-.016-.14.27.27 0 0 0-.094-.095.534.534 0 0 0-.172-.062H.547v.687h.36c.093 0 .163-.004.218-.015a.52.52 0 0 0 .14-.063.262.262 0 0 0 .11-.125c.008-.05.016-.113.016-.187zm.125 1.078a.433.433 0 0 0-.047-.219c-.024-.062-.074-.113-.157-.156a.676.676 0 0 0-.156-.047 2.019 2.019 0 0 0-.25-.016h-.36v.875h.266c.133 0 .239-.004.313-.015.082-.02.156-.047.219-.078A.477.477 0 0 0 1.469-.5a.924.924 0 0 0 .047-.203zm0 0"/></symbol><symbol overflow="visible" id="c"><path d="M1.281-1.094H.171v-.36h1.11zm0 0"/></symbol><symbol overflow="visible" id="d"><path d="M-1.125-2.61v.985h1v.328h-1v.984h-.313v-.984h-.984v-.328h.985v-.984zm0 0"/></symbol><symbol overflow="visible" id="k"><path d="M.047-1.156c0 .156-.027.297-.078.422a.724.724 0 0 1-.235.328 1.045 1.045 0 0 1-.375.219 1.6 1.6 0 0 1-.53.078 1.48 1.48 0 0 1-.516-.079 1.068 1.068 0 0 1-.391-.203.928.928 0 0 1-.235-.343 1.112 1.112 0 0 1-.078-.422c0-.082.008-.16.016-.235.012-.062.027-.125.047-.187a1.36 1.36 0 0 1 .047-.156l.094-.157h.374v.032a.388.388 0 0 0-.093.109.69.69 0 0 0-.11.156 1.041 1.041 0 0 0-.078.188.972.972 0 0 0-.031.25.702.702 0 0 0 .234.516.738.738 0 0 0 .313.156c.117.043.25.062.406.062.156 0 .293-.02.406-.062a.815.815 0 0 0 .297-.157.655.655 0 0 0 .188-.234.885.885 0 0 0 .047-.281.827.827 0 0 0-.032-.25.76.76 0 0 0-.078-.203.586.586 0 0 0-.11-.157 1 1 0 0 0-.077-.093v-.032h.375c.023.055.043.102.062.141.024.055.043.11.063.172.031.074.05.137.062.187.008.063.016.141.016.235zm0 0"/></symbol><symbol overflow="visible" id="l"><path d="M0-1.625v1.453h-.328A9.33 9.33 0 0 1-.61-.469a8.783 8.783 0 0 0-.282-.265 3.248 3.248 0 0 0-.484-.375.737.737 0 0 0-.36-.094.428.428 0 0 0-.297.11.814.814 0 0 0-.077.14.841.841 0 0 0-.016.156c0 .055.008.11.016.172.023.055.043.105.062.156a.342.342 0 0 0 .063.125c.023.043.043.078.062.11v.015h-.344A1.453 1.453 0 0 1-2.359-.5a1.232 1.232 0 0 1-.047-.328c0-.219.058-.39.172-.516a.66.66 0 0 1 .484-.187.95.95 0 0 1 .25.031c.086.031.156.063.219.094.062.043.133.09.203.14.074.055.14.11.203.172l.328.328c.117.125.211.227.281.297v-1.156zm0 0"/></symbol><symbol overflow="visible" id="o"><path d="M-1.172-2.094c.219 0 .414.043.578.125.18.094.313.215.406.36.075.117.126.234.157.359.023.125.031.281.031.469v.547h-2.344v-.547c0-.219.016-.39.047-.516a1.14 1.14 0 0 1 .125-.312c.106-.157.242-.274.406-.36.168-.082.368-.125.594-.125zm0 .328c-.187 0-.344.032-.469.094a.63.63 0 0 0-.296.266.979.979 0 0 0-.11.265 1.72 1.72 0 0 0-.031.344v.25h1.812v-.25c0-.133-.007-.254-.03-.36a.783.783 0 0 0-.422-.531 1.193 1.193 0 0 0-.454-.078zm0 0"/></symbol><symbol overflow="visible" id="p"><path d="M0-1.5v1.14h-.234v-.42h-1.579v.422h-.218a.813.813 0 0 0-.063-.36c-.05-.07-.14-.113-.265-.125v-.25h2.125V-1.5zm0 0"/></symbol><symbol overflow="visible" id="v"><path d="M0-.781h-2.078V0h-.266v-1.89h.266v.796H0zm0 0"/></symbol><symbol overflow="visible" id="w"><path d="M-2.125-.813c0 .063.008.122.016.172l.062.172a2.172 2.172 0 0 0 .125.234v.016h-.328A1 1 0 0 1-2.36-.5a1.232 1.232 0 0 1-.015-.61c.031-.081.07-.156.11-.218a.799.799 0 0 1 .187-.156.57.57 0 0 1 .25-.047c.125 0 .234.043.328.125a.486.486 0 0 1 .188.297h.03l.048-.157a.602.602 0 0 1 .109-.156.651.651 0 0 1 .172-.11.83.83 0 0 1 .547 0A.774.774 0 0 1 0-1.125c.031.095.047.204.047.33 0 .116-.016.23-.047.343a.83.83 0 0 1-.094.297h-.328v-.016a1.06 1.06 0 0 0 .125-.266.774.774 0 0 0 .078-.343.525.525 0 0 0-.031-.19.31.31 0 0 0-.11-.156.345.345 0 0 0-.156-.11.568.568 0 0 0-.203-.03.487.487 0 0 0-.219.046.34.34 0 0 0-.125.094.376.376 0 0 0-.062.156 1.65 1.65 0 0 0-.016.203v.125h-.265v-.093a.57.57 0 0 0-.094-.344.353.353 0 0 0-.297-.14.37.37 0 0 0-.156.03.415.415 0 0 0-.156.219c-.008.055-.016.106-.016.157zm0 0"/></symbol><symbol overflow="visible" id="x"><path d="M0-1.594v.297h-1.234a1.104 1.104 0 0 0-.172.047.411.411 0 0 0-.094.11.454.454 0 0 0 .031.39c.043.086.094.164.156.234H0v.297h-1.766v-.297h.204A.918.918 0 0 1-1.75-.78a.617.617 0 0 1-.063-.266.5.5 0 0 1 .172-.406c.118-.094.282-.14.5-.14zm0 0"/></symbol><symbol overflow="visible" id="y"><path d="M-2.078-1.64v1.093h.672v-1.047h.281v1.047H0v.313h-2.344v-1.407zm0 0"/></symbol><symbol overflow="visible" id="C"><path d="M0-1.734v1.64h-.297l-1.781-1.265v1.203h-.266v-1.547h.281L-.28-.437v-1.297zm0 0"/></symbol><symbol overflow="visible" id="D"><path d="M-1.234-2.047v1.75h-.25v-1.75zm.656 0v1.75h-.25v-1.75zm0 0"/></symbol><symbol overflow="visible" id="E"><path d="M0-.672v.375h-.453v-.375zm0 0"/></symbol><symbol overflow="visible" id="F"><path d="M-2.344-1.938L0-1.14v.344l-2.344.813v-.344l1.938-.64-1.938-.657zm0 0"/></symbol><symbol overflow="visible" id="K"><path d="M-.719-1.828c.117 0 .219.023.313.062a.724.724 0 0 1 .219.172c.062.094.109.196.14.297.031.094.047.227.047.39v.673h-2.344V-.86c0-.164.008-.29.016-.375a.92.92 0 0 1 .078-.25.472.472 0 0 1 .172-.188.634.634 0 0 1 .25-.047.55.55 0 0 1 .297.078.644.644 0 0 1 .218.25.707.707 0 0 1 .22-.328.61.61 0 0 1 .374-.11zm-1.062.437a.774.774 0 0 0-.14.016.27.27 0 0 0-.095.094.534.534 0 0 0-.062.172v.562h.687v-.36c0-.093-.004-.163-.015-.218a.52.52 0 0 0-.063-.14.262.262 0 0 0-.125-.11 1.204 1.204 0 0 0-.187-.016zm1.078-.125a.433.433 0 0 0-.219.047c-.062.024-.113.074-.156.157a.676.676 0 0 0-.047.156 2.019 2.019 0 0 0-.016.25v.36h.875v-.266a2.19 2.19 0 0 0-.015-.313 1.023 1.023 0 0 0-.078-.219.477.477 0 0 0-.141-.125.924.924 0 0 0-.203-.047zm0 0"/></symbol><symbol overflow="visible" id="L"><path d="M-.75-1.594c.117 0 .219.016.313.047a.74.74 0 0 1 .25.156.61.61 0 0 1 .171.25c.04.094.063.204.063.329 0 .117-.012.226-.031.328-.032.117-.063.21-.094.28h-.344v-.015a.25.25 0 0 0 .063-.11.795.795 0 0 0 .062-.14A.813.813 0 0 0-.25-.64a.409.409 0 0 0 .031-.171A.416.416 0 0 0-.266-1a.31.31 0 0 0-.109-.156.438.438 0 0 0-.156-.094.72.72 0 0 0-.422 0 .967.967 0 0 0-.14.11.648.648 0 0 0-.079.156.917.917 0 0 0-.031.234c0 .086.012.168.031.25.012.086.024.152.031.203h-1.203v-1.281h.266v.984h.625v-.11a.322.322 0 0 0-.016-.109c0-.113.012-.21.032-.296a.788.788 0 0 1 .125-.25.573.573 0 0 1 .218-.172c.086-.04.2-.063.344-.063zm0 0"/></symbol><symbol overflow="visible" id="M"><path d="M-.813-1.688v.282H0v.297h-.813v1.046h-.328l-1.203-1.046v-.297h1.281v-.282zm-.25.579h-.921l.921.796zm0 0"/></symbol><symbol overflow="visible" id="N"><path d="M-2-1.656L0-.625v.328l-2.078-1.078v1.219h-.266v-1.5zm0 0"/></symbol></defs><path d="M268.68 235.14h14.34m36 0h-21.598m0-7.199v7.2m0-.001H283.02m36 0h7.199m0 0V192m-14.399 14.398h-7.199m0 0v17.942m0 0v3.601M283.02 184.8h14.402m0 0v35.938m0 0H283.02m0 0v7.203m0-35.941v14.398m0-7.198V192m-14.34 14.398v21.543m0-35.941h7.199m0 0v-7.2m0 28.802h14.34m-7.199 0h-7.141M311.82 199.2h-7.199m7.199 14.402h7.2m-7.2 14.339v-14.34m7.2.001v-7.204m0 14.34v7.203m0-43.141h-7.2m0 0v7.2m0 0h-7.199m0-7.2h14.399m7.199 0h-7.2" fill="none" stroke-width="3.6" stroke-linecap="round" stroke-linejoin="round" stroke="navy" stroke-miterlimit="10"/><path d="M270.54 206.398a1.862 1.862 0 0 1-1.86 1.864 1.862 1.862 0 0 1 0-3.723 1.86 1.86 0 0 1 1.86 1.86" fill-rule="evenodd" fill="green"/><path d="M270.54 206.398a1.862 1.862 0 0 1-1.86 1.864 1.862 1.862 0 0 1 0-3.723 1.86 1.86 0 0 1 1.86 1.86zm0 0" fill="none" stroke-width=".12" stroke-linecap="round" stroke-linejoin="round" stroke="green" stroke-miterlimit="10"/><path d="M269.82 206.398a1.14 1.14 0 1 1-2.279.003 1.14 1.14 0 0 1 2.28-.003" fill-rule="evenodd" fill="#fff"/><path d="M269.82 206.398a1.14 1.14 0 1 1-2.279.003 1.14 1.14 0 0 1 2.28-.003zm0 0" fill="none" stroke-width=".06" stroke-linecap="square" stroke-linejoin="bevel" stroke="#000" stroke-miterlimit="10"/><path d="M270.54 192a1.859 1.859 0 1 1-3.719.001 1.859 1.859 0 0 1 3.718-.001" fill-rule="evenodd" fill="green"/><path d="M270.54 192a1.859 1.859 0 1 1-3.719.001 1.859 1.859 0 0 1 3.718-.001zm0 0" fill="none" stroke-width=".12" stroke-linecap="round" stroke-linejoin="round" stroke="green" stroke-miterlimit="10"/><path d="M269.82 192a1.14 1.14 0 1 1-2.282-.002 1.14 1.14 0 0 1 2.282.002" fill-rule="evenodd" fill="#fff"/><path d="M269.82 192a1.14 1.14 0 1 1-2.282-.002 1.14 1.14 0 0 1 2.282.002zm0 0" fill="none" stroke-width=".06" stroke-linecap="square" stroke-linejoin="bevel" stroke="#000" stroke-miterlimit="10"/><path d="M320.762 220.738" fill-rule="evenodd" fill="green"/><path d="M320.762 220.738zm0 0" fill="none" stroke-width=".12" stroke-linecap="round" stroke-linejoin="round" stroke="green" stroke-miterlimit="10"/><path d="M320.04 220.738c0 .567-.458 1.024-1.02 1.024a1.021 1.021 0 0 1 0-2.043c.562 0 1.02.457 1.02 1.02" fill-rule="evenodd" fill="#fff"/><path d="M320.04 220.738c0 .567-.458 1.024-1.02 1.024a1.021 1.021 0 0 1 0-2.043c.562 0 1.02.457 1.02 1.02zm0 0" fill="none" stroke-width=".06" stroke-linecap="square" stroke-linejoin="bevel" stroke="#000" stroke-miterlimit="10"/><path d="M317.281 215.34h3.48v-3.48h-3.48zm0 0" fill="green" stroke-width=".12" stroke-linecap="round" stroke-linejoin="round" stroke="green" stroke-miterlimit="10"/><path d="M320.04 213.602a1.02 1.02 0 1 1-1.02-1.024c.562 0 1.02.457 1.02 1.024" fill-rule="evenodd" fill="#fff"/><path d="M320.04 213.602a1.02 1.02 0 1 1-1.02-1.024c.562 0 1.02.457 1.02 1.024zm0 0" fill="none" stroke-width=".06" stroke-linecap="square" stroke-linejoin="bevel" stroke="#000" stroke-miterlimit="10"/><path d="M285.059 227.941a2.04 2.04 0 0 1-2.04 2.04 2.04 2.04 0 0 1 0-4.083c1.126 0 2.04.915 2.04 2.043" fill-rule="evenodd" fill="green"/><path d="M285.059 227.941a2.04 2.04 0 0 1-2.04 2.04 2.04 2.04 0 0 1 0-4.083c1.126 0 2.04.914 2.04 2.043zm0 0" fill="none" stroke-width=".12" stroke-linecap="round" stroke-linejoin="round" stroke="green" stroke-miterlimit="10"/><path d="M284.04 227.941a1.02 1.02 0 1 1-2.041-.001 1.02 1.02 0 0 1 2.04.001" fill-rule="evenodd" fill="#fff"/><path d="M284.04 227.941a1.02 1.02 0 1 1-2.041-.001 1.02 1.02 0 0 1 2.04.001zm0 0" fill="none" stroke-width=".06" stroke-linecap="square" stroke-linejoin="bevel" stroke="#000" stroke-miterlimit="10"/><path d="M285.059 235.14a2.04 2.04 0 0 1-2.04 2.04 2.038 2.038 0 1 1 2.04-2.04" fill-rule="evenodd" fill="green"/><path d="M285.059 235.14a2.04 2.04 0 0 1-2.04 2.04 2.038 2.038 0 1 1 2.04-2.04zm0 0" fill="none" stroke-width=".12" stroke-linecap="round" stroke-linejoin="round" stroke="green" stroke-miterlimit="10"/><path d="M284.04 235.14a1.02 1.02 0 1 1-2.041 0 1.02 1.02 0 0 1 2.04 0" fill-rule="evenodd" fill="#fff"/><path d="M284.04 235.14a1.02 1.02 0 1 1-2.041 0 1.02 1.02 0 0 1 2.04 0zm0 0" fill="none" stroke-width=".06" stroke-linecap="square" stroke-linejoin="bevel" stroke="#000" stroke-miterlimit="10"/><path d="M271.2 235.14a2.52 2.52 0 1 1-5.042-.002 2.52 2.52 0 0 1 5.041.003" fill-rule="evenodd" fill="green"/><path d="M271.2 235.14a2.52 2.52 0 1 1-5.042-.002 2.52 2.52 0 0 1 5.041.003zm0 0" fill="none" stroke-width=".12" stroke-linecap="round" stroke-linejoin="round" stroke="green" stroke-miterlimit="10"/><path d="M270.121 235.14a1.442 1.442 0 0 1-2.883 0c0-.796.649-1.44 1.442-1.44a1.44 1.44 0 0 1 1.441 1.44" fill-rule="evenodd" fill="#fff"/><path d="M270.121 235.14a1.442 1.442 0 0 1-2.883 0c0-.796.649-1.44 1.442-1.44a1.44 1.44 0 0 1 1.441 1.44zm0 0" fill="none" stroke-width=".06" stroke-linecap="square" stroke-linejoin="bevel" stroke="#000" stroke-miterlimit="10"/><path d="M271.2 227.941a2.52 2.52 0 1 1-5.042-.002 2.52 2.52 0 0 1 5.041.002" fill-rule="evenodd" fill="green"/><path d="M271.2 227.941a2.52 2.52 0 1 1-5.042-.002 2.52 2.52 0 0 1 5.041.002zm0 0" fill="none" stroke-width=".12" stroke-linecap="round" stroke-linejoin="round" stroke="green" stroke-miterlimit="10"/><path d="M270.121 227.941a1.442 1.442 0 0 1-2.883 0c0-.796.649-1.441 1.442-1.441a1.44 1.44 0 0 1 1.441 1.441" fill-rule="evenodd" fill="#fff"/><path d="M270.121 227.941a1.442 1.442 0 0 1-2.883 0c0-.796.649-1.441 1.442-1.441a1.44 1.44 0 0 1 1.441 1.441zm0 0" fill="none" stroke-width=".06" stroke-linecap="square" stroke-linejoin="bevel" stroke="#000" stroke-miterlimit="10"/><path d="M321.54 235.14a2.52 2.52 0 1 1-5.042-.002 2.52 2.52 0 0 1 5.041.003" fill-rule="evenodd" fill="green"/><path d="M321.54 235.14a2.52 2.52 0 1 1-5.042-.002 2.52 2.52 0 0 1 5.041.003zm0 0" fill="none" stroke-width=".12" stroke-linecap="round" stroke-linejoin="round" stroke="green" stroke-miterlimit="10"/><path d="M320.46 235.14a1.442 1.442 0 0 1-2.883 0c.001-.796.65-1.44 1.443-1.44a1.44 1.44 0 0 1 1.44 1.44" fill-rule="evenodd" fill="#fff"/><path d="M320.46 235.14a1.442 1.442 0 0 1-2.883 0c.001-.796.65-1.44 1.443-1.44a1.44 1.44 0 0 1 1.44 1.44zm0 0" fill="none" stroke-width=".06" stroke-linecap="square" stroke-linejoin="bevel" stroke="#000" stroke-miterlimit="10"/><path d="M321.54 227.941a2.52 2.52 0 1 1-5.042-.002 2.52 2.52 0 0 1 5.041.002" fill-rule="evenodd" fill="green"/><path d="M321.54 227.941a2.52 2.52 0 1 1-5.042-.002 2.52 2.52 0 0 1 5.041.002zm0 0" fill="none" stroke-width=".12" stroke-linecap="round" stroke-linejoin="round" stroke="green" stroke-miterlimit="10"/><path d="M320.46 227.941a1.442 1.442 0 0 1-2.883 0 1.445 1.445 0 0 1 1.443-1.441 1.44 1.44 0 0 1 1.44 1.441" fill-rule="evenodd" fill="#fff"/><path d="M320.46 227.941a1.442 1.442 0 0 1-2.883 0 1.445 1.445 0 0 1 1.443-1.441 1.44 1.44 0 0 1 1.44 1.441zm0 0" fill="none" stroke-width=".06" stroke-linecap="square" stroke-linejoin="bevel" stroke="#000" stroke-miterlimit="10"/><path d="M277.621 184.8a1.74 1.74 0 1 1-3.48-.004 1.74 1.74 0 0 1 3.48.005" fill-rule="evenodd" fill="green"/><path d="M277.621 184.8a1.74 1.74 0 1 1-3.48-.004 1.74 1.74 0 0 1 3.48.005zm0 0" fill="none" stroke-width=".12" stroke-linecap="round" stroke-linejoin="round" stroke="green" stroke-miterlimit="10"/><path d="M276.898 184.8a1.02 1.02 0 1 1-2.04 0 1.02 1.02 0 0 1 2.04 0" fill-rule="evenodd" fill="#fff"/><path d="M276.898 184.8a1.02 1.02 0 1 1-2.04 0 1.02 1.02 0 0 1 2.04 0zm0 0" fill="none" stroke-width=".06" stroke-linecap="square" stroke-linejoin="bevel" stroke="#000" stroke-miterlimit="10"/><path d="M277.621 213.602a1.74 1.74 0 1 1-3.48-.005 1.74 1.74 0 0 1 3.48.005" fill-rule="evenodd" fill="green"/><path d="M277.621 213.602a1.74 1.74 0 1 1-3.48-.005 1.74 1.74 0 0 1 3.48.005zm0 0" fill="none" stroke-width=".12" stroke-linecap="round" stroke-linejoin="round" stroke="green" stroke-miterlimit="10"/><path d="M276.898 213.602a1.02 1.02 0 1 1-1.02-1.024c.563 0 1.02.457 1.02 1.024" fill-rule="evenodd" fill="#fff"/><path d="M276.898 213.602a1.02 1.02 0 1 1-1.02-1.024c.563 0 1.02.457 1.02 1.024zm0 0" fill="none" stroke-width=".06" stroke-linecap="square" stroke-linejoin="bevel" stroke="#000" stroke-miterlimit="10"/><path d="M291.96 213.602a1.74 1.74 0 1 1-3.48-.005 1.74 1.74 0 0 1 3.48.005" fill-rule="evenodd" fill="green"/><path d="M291.96 213.602a1.74 1.74 0 1 1-3.48-.005 1.74 1.74 0 0 1 3.48.005zm0 0" fill="none" stroke-width=".12" stroke-linecap="round" stroke-linejoin="round" stroke="green" stroke-miterlimit="10"/><path d="M291.238 213.602a1.02 1.02 0 1 1-1.02-1.024c.563 0 1.02.457 1.02 1.024" fill-rule="evenodd" fill="#fff"/><path d="M291.238 213.602a1.02 1.02 0 1 1-1.02-1.024c.563 0 1.02.457 1.02 1.024zm0 0" fill="none" stroke-width=".06" stroke-linecap="square" stroke-linejoin="bevel" stroke="#000" stroke-miterlimit="10"/><path d="M313.559 213.602a1.74 1.74 0 1 1-1.738-1.742c.96 0 1.738.78 1.738 1.742" fill-rule="evenodd" fill="green"/><path d="M313.559 213.602a1.74 1.74 0 1 1-1.738-1.742c.96 0 1.738.78 1.738 1.742zm0 0" fill="none" stroke-width=".12" stroke-linecap="round" stroke-linejoin="round" stroke="green" stroke-miterlimit="10"/><path d="M312.84 213.602a1.02 1.02 0 1 1-1.02-1.024c.563 0 1.02.457 1.02 1.024" fill-rule="evenodd" fill="#fff"/><path d="M312.84 213.602a1.02 1.02 0 1 1-1.02-1.024c.563 0 1.02.457 1.02 1.024zm0 0" fill="none" stroke-width=".06" stroke-linecap="square" stroke-linejoin="bevel" stroke="#000" stroke-miterlimit="10"/><path d="M284.762 199.2" fill-rule="evenodd" fill="green"/><path d="M284.762 199.2zm0 0" fill="none" stroke-width=".12" stroke-linecap="round" stroke-linejoin="round" stroke="green" stroke-miterlimit="10"/><path d="M284.04 199.2a1.02 1.02 0 1 1-2.041-.002 1.02 1.02 0 0 1 2.04.001" fill-rule="evenodd" fill="#fff"/><path d="M284.04 199.2a1.02 1.02 0 1 1-2.041-.002 1.02 1.02 0 0 1 2.04.001zm0 0" fill="none" stroke-width=".06" stroke-linecap="square" stroke-linejoin="bevel" stroke="#000" stroke-miterlimit="10"/><path d="M306.36 199.2a1.74 1.74 0 1 1-3.482.003 1.74 1.74 0 0 1 3.481-.004" fill-rule="evenodd" fill="green"/><path d="M306.36 199.2a1.74 1.74 0 1 1-3.482.003 1.74 1.74 0 0 1 3.481-.004zm0 0" fill="none" stroke-width=".12" stroke-linecap="round" stroke-linejoin="round" stroke="green" stroke-miterlimit="10"/><path d="M305.64 199.2a1.02 1.02 0 1 1-2.04-.002 1.02 1.02 0 0 1 2.04.001" fill-rule="evenodd" fill="#fff"/><path d="M305.64 199.2a1.02 1.02 0 1 1-2.04-.002 1.02 1.02 0 0 1 2.04.001zm0 0" fill="none" stroke-width=".06" stroke-linecap="square" stroke-linejoin="bevel" stroke="#000" stroke-miterlimit="10"/><path d="M284.762 192a1.74 1.74 0 0 1-3.48 0 1.74 1.74 0 0 1 3.48 0" fill-rule="evenodd" fill="green"/><path d="M284.762 192a1.74 1.74 0 0 1-3.48 0 1.74 1.74 0 0 1 3.48 0zm0 0" fill="none" stroke-width=".12" stroke-linecap="round" stroke-linejoin="round" stroke="green" stroke-miterlimit="10"/><path d="M284.04 192a1.02 1.02 0 1 1-2.041-.001 1.02 1.02 0 0 1 2.04.001" fill-rule="evenodd" fill="#fff"/><path d="M284.04 192a1.02 1.02 0 1 1-2.041-.001 1.02 1.02 0 0 1 2.04.001zm0 0" fill="none" stroke-width=".06" stroke-linecap="square" stroke-linejoin="bevel" stroke="#000" stroke-miterlimit="10"/><path d="M306.36 192a1.74 1.74 0 1 1-3.48 0 1.74 1.74 0 0 1 3.48 0" fill-rule="evenodd" fill="green"/><path d="M306.36 192a1.74 1.74 0 1 1-3.48 0 1.74 1.74 0 0 1 3.48 0zm0 0" fill="none" stroke-width=".12" stroke-linecap="round" stroke-linejoin="round" stroke="green" stroke-miterlimit="10"/><path d="M305.64 192a1.02 1.02 0 1 1-2.04-.001 1.02 1.02 0 0 1 2.04.001" fill-rule="evenodd" fill="#fff"/><path d="M305.64 192a1.02 1.02 0 1 1-2.04-.001 1.02 1.02 0 0 1 2.04.001zm0 0" fill="none" stroke-width=".06" stroke-linecap="square" stroke-linejoin="bevel" stroke="#000" stroke-miterlimit="10"/><path d="M284.762 184.8a1.74 1.74 0 1 1-3.481-.004 1.74 1.74 0 0 1 3.48.005" fill-rule="evenodd" fill="green"/><path d="M284.762 184.8a1.74 1.74 0 1 1-3.481-.004 1.74 1.74 0 0 1 3.48.005zm0 0" fill="none" stroke-width=".12" stroke-linecap="round" stroke-linejoin="round" stroke="green" stroke-miterlimit="10"/><path d="M284.04 184.8a1.02 1.02 0 1 1-2.041 0 1.02 1.02 0 0 1 2.04 0" fill-rule="evenodd" fill="#fff"/><path d="M284.04 184.8a1.02 1.02 0 1 1-2.041 0 1.02 1.02 0 0 1 2.04 0zm0 0" fill="none" stroke-width=".06" stroke-linecap="square" stroke-linejoin="bevel" stroke="#000" stroke-miterlimit="10"/><path d="M306.36 184.8a1.74 1.74 0 1 1-1.738-1.742c.96 0 1.737.782 1.737 1.743" fill-rule="evenodd" fill="green"/><path d="M306.36 184.8a1.74 1.74 0 1 1-1.738-1.742c.96 0 1.737.782 1.737 1.743zm0 0" fill="none" stroke-width=".12" stroke-linecap="round" stroke-linejoin="round" stroke="green" stroke-miterlimit="10"/><path d="M305.64 184.8a1.02 1.02 0 1 1-2.04 0 1.02 1.02 0 0 1 2.04 0" fill-rule="evenodd" fill="#fff"/><path d="M305.64 184.8a1.02 1.02 0 1 1-2.04 0 1.02 1.02 0 0 1 2.04 0zm0 0" fill="none" stroke-width=".06" stroke-linecap="square" stroke-linejoin="bevel" stroke="#000" stroke-miterlimit="10"/><path d="M320.762 206.398" fill-rule="evenodd" fill="green"/><path d="M320.762 206.398zm0 0" fill="none" stroke-width=".12" stroke-linecap="round" stroke-linejoin="round" stroke="green" stroke-miterlimit="10"/><path d="M320.04 206.398c0 .567-.458 1.024-1.02 1.024a1.021 1.021 0 0 1 0-2.043c.562 0 1.02.457 1.02 1.02" fill-rule="evenodd" fill="#fff"/><path d="M320.04 206.398c0 .567-.458 1.024-1.02 1.024a1.021 1.021 0 0 1 0-2.043c.562 0 1.02.457 1.02 1.02zm0 0" fill="none" stroke-width=".06" stroke-linecap="square" stroke-linejoin="bevel" stroke="#000" stroke-miterlimit="10"/><path d="M320.762 184.8a1.74 1.74 0 1 1-3.481-.004 1.74 1.74 0 0 1 3.48.005" fill-rule="evenodd" fill="green"/><path d="M320.762 184.8a1.74 1.74 0 1 1-3.481-.004 1.74 1.74 0 0 1 3.48.005zm0 0" fill="none" stroke-width=".12" stroke-linecap="round" stroke-linejoin="round" stroke="green" stroke-miterlimit="10"/><path d="M320.04 184.8a1.02 1.02 0 1 1-2.041 0 1.02 1.02 0 0 1 2.04 0" fill-rule="evenodd" fill="#fff"/><path d="M320.04 184.8a1.02 1.02 0 1 1-2.041 0 1.02 1.02 0 0 1 2.04 0zm0 0" fill="none" stroke-width=".06" stroke-linecap="square" stroke-linejoin="bevel" stroke="#000" stroke-miterlimit="10"/><path d="M285.059 206.398a2.041 2.041 0 0 1-2.04 2.043 2.041 2.041 0 0 1 0-4.082 2.04 2.04 0 0 1 2.04 2.04" fill-rule="evenodd" fill="green"/><path d="M285.059 206.398a2.041 2.041 0 0 1-2.04 2.043 2.041 2.041 0 0 1 0-4.082 2.04 2.04 0 0 1 2.04 2.04zm0 0" fill="none" stroke-width=".12" stroke-linecap="round" stroke-linejoin="round" stroke="green" stroke-miterlimit="10"/><path d="M284.04 206.398c0 .567-.458 1.024-1.02 1.024a1.021 1.021 0 0 1 0-2.043c.562 0 1.02.457 1.02 1.02" fill-rule="evenodd" fill="#fff"/><path d="M284.04 206.398c0 .567-.458 1.024-1.02 1.024a1.021 1.021 0 0 1 0-2.043c.562 0 1.02.457 1.02 1.02zm0 0" fill="none" stroke-width=".06" stroke-linecap="square" stroke-linejoin="bevel" stroke="#000" stroke-miterlimit="10"/><path d="M285.059 220.738a2.041 2.041 0 0 1-2.04 2.043 2.041 2.041 0 0 1 0-4.082 2.04 2.04 0 0 1 2.04 2.04" fill-rule="evenodd" fill="green"/><path d="M285.059 220.738a2.041 2.041 0 0 1-2.04 2.043 2.041 2.041 0 0 1 0-4.082 2.04 2.04 0 0 1 2.04 2.04zm0 0" fill="none" stroke-width=".12" stroke-linecap="round" stroke-linejoin="round" stroke="green" stroke-miterlimit="10"/><path d="M284.04 220.738c0 .567-.458 1.024-1.02 1.024a1.021 1.021 0 0 1 0-2.043c.562 0 1.02.457 1.02 1.02" fill-rule="evenodd" fill="#fff"/><path d="M284.04 220.738c0 .567-.458 1.024-1.02 1.024a1.021 1.021 0 0 1 0-2.043c.562 0 1.02.457 1.02 1.02zm0 0" fill="none" stroke-width=".06" stroke-linecap="square" stroke-linejoin="bevel" stroke="#000" stroke-miterlimit="10"/><path d="M285.059 213.602a2.04 2.04 0 0 1-2.04 2.039 2.04 2.04 0 0 1 0-4.082c1.126 0 2.04.914 2.04 2.043" fill-rule="evenodd" fill="green"/><path d="M285.059 213.602a2.04 2.04 0 0 1-2.04 2.039 2.04 2.04 0 0 1 0-4.082c1.126 0 2.04.914 2.04 2.043zm0 0" fill="none" stroke-width=".12" stroke-linecap="round" stroke-linejoin="round" stroke="green" stroke-miterlimit="10"/><path d="M284.04 213.602a1.02 1.02 0 1 1-1.02-1.024c.562 0 1.02.457 1.02 1.024" fill-rule="evenodd" fill="#fff"/><path d="M284.04 213.602a1.02 1.02 0 1 1-1.02-1.024c.562 0 1.02.457 1.02 1.024zm0 0" fill="none" stroke-width=".06" stroke-linecap="square" stroke-linejoin="bevel" stroke="#000" stroke-miterlimit="10"/><path d="M313.86 227.941a2.038 2.038 0 1 1-4.078 0 2.039 2.039 0 1 1 4.077 0" fill-rule="evenodd" fill="green"/><path d="M313.86 227.941a2.038 2.038 0 1 1-4.078 0 2.039 2.039 0 1 1 4.077 0zm0 0" fill="none" stroke-width=".12" stroke-linecap="round" stroke-linejoin="round" stroke="green" stroke-miterlimit="10"/><path d="M312.84 227.941a1.02 1.02 0 1 1-2.04-.001 1.02 1.02 0 0 1 2.04.001" fill-rule="evenodd" fill="#fff"/><path d="M312.84 227.941a1.02 1.02 0 1 1-2.04-.001 1.02 1.02 0 0 1 2.04.001zm0 0" fill="none" stroke-width=".06" stroke-linecap="square" stroke-linejoin="bevel" stroke="#000" stroke-miterlimit="10"/><path d="M299.46 227.941a2.04 2.04 0 1 1-4.08-.003 2.04 2.04 0 0 1 4.08.003" fill-rule="evenodd" fill="green"/><path d="M299.46 227.941a2.04 2.04 0 1 1-4.08-.003 2.04 2.04 0 0 1 4.08.003zm0 0" fill="none" stroke-width=".12" stroke-linecap="round" stroke-linejoin="round" stroke="green" stroke-miterlimit="10"/><path d="M298.441 227.941a1.021 1.021 0 1 1-2.043 0 1.021 1.021 0 0 1 2.043 0" fill-rule="evenodd" fill="#fff"/><path d="M298.441 227.941a1.021 1.021 0 1 1-2.043 0 1.021 1.021 0 0 1 2.043 0zm0 0" fill="none" stroke-width=".06" stroke-linecap="square" stroke-linejoin="bevel" stroke="#000" stroke-miterlimit="10"/><path d="M306.66 227.941a2.04 2.04 0 1 1-4.08-.003 2.04 2.04 0 0 1 4.08.003" fill-rule="evenodd" fill="green"/><path d="M306.66 227.941a2.04 2.04 0 1 1-4.08-.003 2.04 2.04 0 0 1 4.08.003zm0 0" fill="none" stroke-width=".12" stroke-linecap="round" stroke-linejoin="round" stroke="green" stroke-miterlimit="10"/><path d="M305.64 227.941a1.02 1.02 0 1 1-2.04-.001 1.02 1.02 0 0 1 2.04.001" fill-rule="evenodd" fill="#fff"/><path d="M305.64 227.941a1.02 1.02 0 1 1-2.04-.001 1.02 1.02 0 0 1 2.04.001zm0 0" fill="none" stroke-width=".06" stroke-linecap="square" stroke-linejoin="bevel" stroke="#000" stroke-miterlimit="10"/><path d="M313.86 206.398a2.039 2.039 0 1 1-4.078 0 2.038 2.038 0 1 1 4.077 0" fill-rule="evenodd" fill="green"/><path d="M313.86 206.398a2.039 2.039 0 1 1-4.078 0 2.038 2.038 0 1 1 4.077 0zm0 0" fill="none" stroke-width=".12" stroke-linecap="round" stroke-linejoin="round" stroke="green" stroke-miterlimit="10"/><path d="M312.84 206.398c0 .567-.457 1.024-1.02 1.024a1.021 1.021 0 0 1 0-2.043c.563 0 1.02.457 1.02 1.02" fill-rule="evenodd" fill="#fff"/><path d="M312.84 206.398c0 .567-.457 1.024-1.02 1.024a1.021 1.021 0 0 1 0-2.043c.563 0 1.02.457 1.02 1.02zm0 0" fill="none" stroke-width=".06" stroke-linecap="square" stroke-linejoin="bevel" stroke="#000" stroke-miterlimit="10"/><path d="M313.86 192a2.04 2.04 0 1 1-4.077 0 2.04 2.04 0 0 1 4.076 0" fill-rule="evenodd" fill="green"/><path d="M313.86 192a2.04 2.04 0 1 1-4.077 0 2.04 2.04 0 0 1 4.076 0zm0 0" fill="none" stroke-width=".12" stroke-linecap="round" stroke-linejoin="round" stroke="green" stroke-miterlimit="10"/><path d="M312.84 192a1.02 1.02 0 1 1-2.04-.001 1.02 1.02 0 0 1 2.04.001" fill-rule="evenodd" fill="#fff"/><path d="M312.84 192a1.02 1.02 0 1 1-2.04-.001 1.02 1.02 0 0 1 2.04.001zm0 0" fill="none" stroke-width=".06" stroke-linecap="square" stroke-linejoin="bevel" stroke="#000" stroke-miterlimit="10"/><path d="M313.86 199.2a2.038 2.038 0 0 1-2.04 2.038 2.035 2.035 0 0 1-2.039-2.039 2.038 2.038 0 1 1 4.078 0" fill-rule="evenodd" fill="green"/><path d="M313.86 199.2a2.038 2.038 0 0 1-2.04 2.038 2.035 2.035 0 0 1-2.039-2.039 2.038 2.038 0 1 1 4.078 0zm0 0" fill="none" stroke-width=".12" stroke-linecap="round" stroke-linejoin="round" stroke="green" stroke-miterlimit="10"/><path d="M312.84 199.2a1.02 1.02 0 1 1-2.04-.002 1.02 1.02 0 0 1 2.04.001" fill-rule="evenodd" fill="#fff"/><path d="M312.84 199.2a1.02 1.02 0 1 1-2.04-.002 1.02 1.02 0 0 1 2.04.001zm0 0" fill="none" stroke-width=".06" stroke-linecap="square" stroke-linejoin="bevel" stroke="#000" stroke-miterlimit="10"/><path d="M328.738 192a2.52 2.52 0 1 1-5.037-.002 2.52 2.52 0 0 1 5.037.002" fill-rule="evenodd" fill="green"/><path d="M328.738 192a2.52 2.52 0 1 1-5.037-.002 2.52 2.52 0 0 1 5.037.002zm0 0" fill="none" stroke-width=".12" stroke-linecap="round" stroke-linejoin="round" stroke="green" stroke-miterlimit="10"/><path d="M327.66 192a1.44 1.44 0 1 1-2.88.002 1.44 1.44 0 0 1 2.88-.002" fill-rule="evenodd" fill="#fff"/><path d="M327.66 192a1.44 1.44 0 1 1-2.88.002 1.44 1.44 0 0 1 2.88-.002zm0 0" fill="none" stroke-width=".06" stroke-linecap="square" stroke-linejoin="bevel" stroke="#000" stroke-miterlimit="10"/><path d="M328.738 184.8a2.52 2.52 0 1 1-5.037-.002 2.52 2.52 0 0 1 5.037.003" fill-rule="evenodd" fill="green"/><path d="M328.738 184.8a2.52 2.52 0 1 1-5.037-.002 2.52 2.52 0 0 1 5.037.003zm0 0" fill="none" stroke-width=".12" stroke-linecap="round" stroke-linejoin="round" stroke="green" stroke-miterlimit="10"/><path d="M327.66 184.8a1.44 1.44 0 1 1-2.879-.003 1.44 1.44 0 0 1 2.88.004" fill-rule="evenodd" fill="#fff"/><path d="M327.66 184.8a1.44 1.44 0 1 1-2.879-.003 1.44 1.44 0 0 1 2.88.004zm0 0" fill="none" stroke-width=".06" stroke-linecap="square" stroke-linejoin="bevel" stroke="#000" stroke-miterlimit="10"/><path d="M270.54 206.398a1.862 1.862 0 0 1-1.86 1.864 1.862 1.862 0 0 1 0-3.723 1.86 1.86 0 0 1 1.86 1.86" fill-rule="evenodd" fill="green"/><path d="M270.54 206.398a1.862 1.862 0 0 1-1.86 1.864 1.862 1.862 0 0 1 0-3.723 1.86 1.86 0 0 1 1.86 1.86zm0 0" fill="none" stroke-width=".12" stroke-linecap="round" stroke-linejoin="round" stroke="green" stroke-miterlimit="10"/><path d="M269.82 206.398a1.14 1.14 0 1 1-2.279.003 1.14 1.14 0 0 1 2.28-.003" fill-rule="evenodd" fill="#fff"/><path d="M269.82 206.398a1.14 1.14 0 1 1-2.279.003 1.14 1.14 0 0 1 2.28-.003zm0 0" fill="none" stroke-width=".06" stroke-linecap="square" stroke-linejoin="bevel" stroke="#000" stroke-miterlimit="10"/><path d="M270.54 192a1.859 1.859 0 1 1-3.719.001 1.859 1.859 0 0 1 3.718-.001" fill-rule="evenodd" fill="green"/><path d="M270.54 192a1.859 1.859 0 1 1-3.719.001 1.859 1.859 0 0 1 3.718-.001zm0 0" fill="none" stroke-width=".12" stroke-linecap="round" stroke-linejoin="round" stroke="green" stroke-miterlimit="10"/><path d="M269.82 192a1.14 1.14 0 1 1-2.282-.002 1.14 1.14 0 0 1 2.282.002" fill-rule="evenodd" fill="#fff"/><path d="M269.82 192a1.14 1.14 0 1 1-2.282-.002 1.14 1.14 0 0 1 2.282.002zm0 0" fill="none" stroke-width=".06" stroke-linecap="square" stroke-linejoin="bevel" stroke="#000" stroke-miterlimit="10"/><path d="M320.762 220.738" fill-rule="evenodd" fill="green"/><path d="M320.762 220.738zm0 0" fill="none" stroke-width=".12" stroke-linecap="round" stroke-linejoin="round" stroke="green" stroke-miterlimit="10"/><path d="M320.04 220.738c0 .567-.458 1.024-1.02 1.024a1.021 1.021 0 0 1 0-2.043c.562 0 1.02.457 1.02 1.02" fill-rule="evenodd" fill="#fff"/><path d="M320.04 220.738c0 .567-.458 1.024-1.02 1.024a1.021 1.021 0 0 1 0-2.043c.562 0 1.02.457 1.02 1.02zm0 0" fill="none" stroke-width=".06" stroke-linecap="square" stroke-linejoin="bevel" stroke="#000" stroke-miterlimit="10"/><path d="M317.281 215.34h3.48v-3.48h-3.48zm0 0" fill="green" stroke-width=".12" stroke-linecap="round" stroke-linejoin="round" stroke="green" stroke-miterlimit="10"/><path d="M320.04 213.602a1.02 1.02 0 1 1-1.02-1.024c.562 0 1.02.457 1.02 1.024" fill-rule="evenodd" fill="#fff"/><path d="M320.04 213.602a1.02 1.02 0 1 1-1.02-1.024c.562 0 1.02.457 1.02 1.024zm0 0" fill="none" stroke-width=".06" stroke-linecap="square" stroke-linejoin="bevel" stroke="#000" stroke-miterlimit="10"/><path d="M285.059 227.941a2.04 2.04 0 0 1-2.04 2.04 2.04 2.04 0 0 1 0-4.083c1.126 0 2.04.915 2.04 2.043" fill-rule="evenodd" fill="green"/><path d="M285.059 227.941a2.04 2.04 0 0 1-2.04 2.04 2.04 2.04 0 0 1 0-4.083c1.126 0 2.04.914 2.04 2.043zm0 0" fill="none" stroke-width=".12" stroke-linecap="round" stroke-linejoin="round" stroke="green" stroke-miterlimit="10"/><path d="M284.04 227.941a1.02 1.02 0 1 1-2.041-.001 1.02 1.02 0 0 1 2.04.001" fill-rule="evenodd" fill="#fff"/><path d="M284.04 227.941a1.02 1.02 0 1 1-2.041-.001 1.02 1.02 0 0 1 2.04.001zm0 0" fill="none" stroke-width=".06" stroke-linecap="square" stroke-linejoin="bevel" stroke="#000" stroke-miterlimit="10"/><path d="M285.059 235.14a2.04 2.04 0 0 1-2.04 2.04 2.038 2.038 0 1 1 2.04-2.04" fill-rule="evenodd" fill="green"/><path d="M285.059 235.14a2.04 2.04 0 0 1-2.04 2.04 2.038 2.038 0 1 1 2.04-2.04zm0 0" fill="none" stroke-width=".12" stroke-linecap="round" stroke-linejoin="round" stroke="green" stroke-miterlimit="10"/><path d="M284.04 235.14a1.02 1.02 0 1 1-2.041 0 1.02 1.02 0 0 1 2.04 0" fill-rule="evenodd" fill="#fff"/><path d="M284.04 235.14a1.02 1.02 0 1 1-2.041 0 1.02 1.02 0 0 1 2.04 0zm0 0" fill="none" stroke-width=".06" stroke-linecap="square" stroke-linejoin="bevel" stroke="#000" stroke-miterlimit="10"/><path d="M271.2 235.14a2.52 2.52 0 1 1-5.042-.002 2.52 2.52 0 0 1 5.041.003" fill-rule="evenodd" fill="green"/><path d="M271.2 235.14a2.52 2.52 0 1 1-5.042-.002 2.52 2.52 0 0 1 5.041.003zm0 0" fill="none" stroke-width=".12" stroke-linecap="round" stroke-linejoin="round" stroke="green" stroke-miterlimit="10"/><path d="M270.121 235.14a1.442 1.442 0 0 1-2.883 0c0-.796.649-1.44 1.442-1.44a1.44 1.44 0 0 1 1.441 1.44" fill-rule="evenodd" fill="#fff"/><path d="M270.121 235.14a1.442 1.442 0 0 1-2.883 0c0-.796.649-1.44 1.442-1.44a1.44 1.44 0 0 1 1.441 1.44zm0 0" fill="none" stroke-width=".06" stroke-linecap="square" stroke-linejoin="bevel" stroke="#000" stroke-miterlimit="10"/><path d="M271.2 227.941a2.52 2.52 0 1 1-5.042-.002 2.52 2.52 0 0 1 5.041.002" fill-rule="evenodd" fill="green"/><path d="M271.2 227.941a2.52 2.52 0 1 1-5.042-.002 2.52 2.52 0 0 1 5.041.002zm0 0" fill="none" stroke-width=".12" stroke-linecap="round" stroke-linejoin="round" stroke="green" stroke-miterlimit="10"/><path d="M270.121 227.941a1.442 1.442 0 0 1-2.883 0c0-.796.649-1.441 1.442-1.441a1.44 1.44 0 0 1 1.441 1.441" fill-rule="evenodd" fill="#fff"/><path d="M270.121 227.941a1.442 1.442 0 0 1-2.883 0c0-.796.649-1.441 1.442-1.441a1.44 1.44 0 0 1 1.441 1.441zm0 0" fill="none" stroke-width=".06" stroke-linecap="square" stroke-linejoin="bevel" stroke="#000" stroke-miterlimit="10"/><path d="M321.54 235.14a2.52 2.52 0 1 1-5.042-.002 2.52 2.52 0 0 1 5.041.003" fill-rule="evenodd" fill="green"/><path d="M321.54 235.14a2.52 2.52 0 1 1-5.042-.002 2.52 2.52 0 0 1 5.041.003zm0 0" fill="none" stroke-width=".12" stroke-linecap="round" stroke-linejoin="round" stroke="green" stroke-miterlimit="10"/><path d="M320.46 235.14a1.442 1.442 0 0 1-2.883 0c.001-.796.65-1.44 1.443-1.44a1.44 1.44 0 0 1 1.44 1.44" fill-rule="evenodd" fill="#fff"/><path d="M320.46 235.14a1.442 1.442 0 0 1-2.883 0c.001-.796.65-1.44 1.443-1.44a1.44 1.44 0 0 1 1.44 1.44zm0 0" fill="none" stroke-width=".06" stroke-linecap="square" stroke-linejoin="bevel" stroke="#000" stroke-miterlimit="10"/><path d="M321.54 227.941a2.52 2.52 0 1 1-5.042-.002 2.52 2.52 0 0 1 5.041.002" fill-rule="evenodd" fill="green"/><path d="M321.54 227.941a2.52 2.52 0 1 1-5.042-.002 2.52 2.52 0 0 1 5.041.002zm0 0" fill="none" stroke-width=".12" stroke-linecap="round" stroke-linejoin="round" stroke="green" stroke-miterlimit="10"/><path d="M320.46 227.941a1.442 1.442 0 0 1-2.883 0 1.445 1.445 0 0 1 1.443-1.441 1.44 1.44 0 0 1 1.44 1.441" fill-rule="evenodd" fill="#fff"/><path d="M320.46 227.941a1.442 1.442 0 0 1-2.883 0 1.445 1.445 0 0 1 1.443-1.441 1.44 1.44 0 0 1 1.44 1.441zm0 0" fill="none" stroke-width=".06" stroke-linecap="square" stroke-linejoin="bevel" stroke="#000" stroke-miterlimit="10"/><path d="M277.621 184.8a1.74 1.74 0 1 1-3.48-.004 1.74 1.74 0 0 1 3.48.005" fill-rule="evenodd" fill="green"/><path d="M277.621 184.8a1.74 1.74 0 1 1-3.48-.004 1.74 1.74 0 0 1 3.48.005zm0 0" fill="none" stroke-width=".12" stroke-linecap="round" stroke-linejoin="round" stroke="green" stroke-miterlimit="10"/><path d="M276.898 184.8a1.02 1.02 0 1 1-2.04 0 1.02 1.02 0 0 1 2.04 0" fill-rule="evenodd" fill="#fff"/><path d="M276.898 184.8a1.02 1.02 0 1 1-2.04 0 1.02 1.02 0 0 1 2.04 0zm0 0" fill="none" stroke-width=".06" stroke-linecap="square" stroke-linejoin="bevel" stroke="#000" stroke-miterlimit="10"/><path d="M277.621 213.602a1.74 1.74 0 1 1-3.48-.005 1.74 1.74 0 0 1 3.48.005" fill-rule="evenodd" fill="green"/><path d="M277.621 213.602a1.74 1.74 0 1 1-3.48-.005 1.74 1.74 0 0 1 3.48.005zm0 0" fill="none" stroke-width=".12" stroke-linecap="round" stroke-linejoin="round" stroke="green" stroke-miterlimit="10"/><path d="M276.898 213.602a1.02 1.02 0 1 1-1.02-1.024c.563 0 1.02.457 1.02 1.024" fill-rule="evenodd" fill="#fff"/><path d="M276.898 213.602a1.02 1.02 0 1 1-1.02-1.024c.563 0 1.02.457 1.02 1.024zm0 0" fill="none" stroke-width=".06" stroke-linecap="square" stroke-linejoin="bevel" stroke="#000" stroke-miterlimit="10"/><path d="M291.96 213.602a1.74 1.74 0 1 1-3.48-.005 1.74 1.74 0 0 1 3.48.005" fill-rule="evenodd" fill="green"/><path d="M291.96 213.602a1.74 1.74 0 1 1-3.48-.005 1.74 1.74 0 0 1 3.48.005zm0 0" fill="none" stroke-width=".12" stroke-linecap="round" stroke-linejoin="round" stroke="green" stroke-miterlimit="10"/><path d="M291.238 213.602a1.02 1.02 0 1 1-1.02-1.024c.563 0 1.02.457 1.02 1.024" fill-rule="evenodd" fill="#fff"/><path d="M291.238 213.602a1.02 1.02 0 1 1-1.02-1.024c.563 0 1.02.457 1.02 1.024zm0 0" fill="none" stroke-width=".06" stroke-linecap="square" stroke-linejoin="bevel" stroke="#000" stroke-miterlimit="10"/><path d="M313.559 213.602a1.74 1.74 0 1 1-1.738-1.742c.96 0 1.738.78 1.738 1.742" fill-rule="evenodd" fill="green"/><path d="M313.559 213.602a1.74 1.74 0 1 1-1.738-1.742c.96 0 1.738.78 1.738 1.742zm0 0" fill="none" stroke-width=".12" stroke-linecap="round" stroke-linejoin="round" stroke="green" stroke-miterlimit="10"/><path d="M312.84 213.602a1.02 1.02 0 1 1-1.02-1.024c.563 0 1.02.457 1.02 1.024" fill-rule="evenodd" fill="#fff"/><path d="M312.84 213.602a1.02 1.02 0 1 1-1.02-1.024c.563 0 1.02.457 1.02 1.024zm0 0" fill="none" stroke-width=".06" stroke-linecap="square" stroke-linejoin="bevel" stroke="#000" stroke-miterlimit="10"/><path d="M284.762 199.2" fill-rule="evenodd" fill="green"/><path d="M284.762 199.2zm0 0" fill="none" stroke-width=".12" stroke-linecap="round" stroke-linejoin="round" stroke="green" stroke-miterlimit="10"/><path d="M284.04 199.2a1.02 1.02 0 1 1-2.041-.002 1.02 1.02 0 0 1 2.04.001" fill-rule="evenodd" fill="#fff"/><path d="M284.04 199.2a1.02 1.02 0 1 1-2.041-.002 1.02 1.02 0 0 1 2.04.001zm0 0" fill="none" stroke-width=".06" stroke-linecap="square" stroke-linejoin="bevel" stroke="#000" stroke-miterlimit="10"/><path d="M306.36 199.2a1.74 1.74 0 1 1-3.482.003 1.74 1.74 0 0 1 3.481-.004" fill-rule="evenodd" fill="green"/><path d="M306.36 199.2a1.74 1.74 0 1 1-3.482.003 1.74 1.74 0 0 1 3.481-.004zm0 0" fill="none" stroke-width=".12" stroke-linecap="round" stroke-linejoin="round" stroke="green" stroke-miterlimit="10"/><path d="M305.64 199.2a1.02 1.02 0 1 1-2.04-.002 1.02 1.02 0 0 1 2.04.001" fill-rule="evenodd" fill="#fff"/><path d="M305.64 199.2a1.02 1.02 0 1 1-2.04-.002 1.02 1.02 0 0 1 2.04.001zm0 0" fill="none" stroke-width=".06" stroke-linecap="square" stroke-linejoin="bevel" stroke="#000" stroke-miterlimit="10"/><path d="M284.762 192a1.74 1.74 0 0 1-3.48 0 1.74 1.74 0 0 1 3.48 0" fill-rule="evenodd" fill="green"/><path d="M284.762 192a1.74 1.74 0 0 1-3.48 0 1.74 1.74 0 0 1 3.48 0zm0 0" fill="none" stroke-width=".12" stroke-linecap="round" stroke-linejoin="round" stroke="green" stroke-miterlimit="10"/><path d="M284.04 192a1.02 1.02 0 1 1-2.041-.001 1.02 1.02 0 0 1 2.04.001" fill-rule="evenodd" fill="#fff"/><path d="M284.04 192a1.02 1.02 0 1 1-2.041-.001 1.02 1.02 0 0 1 2.04.001zm0 0" fill="none" stroke-width=".06" stroke-linecap="square" stroke-linejoin="bevel" stroke="#000" stroke-miterlimit="10"/><path d="M306.36 192a1.74 1.74 0 1 1-3.48 0 1.74 1.74 0 0 1 3.48 0" fill-rule="evenodd" fill="green"/><path d="M306.36 192a1.74 1.74 0 1 1-3.48 0 1.74 1.74 0 0 1 3.48 0zm0 0" fill="none" stroke-width=".12" stroke-linecap="round" stroke-linejoin="round" stroke="green" stroke-miterlimit="10"/><path d="M305.64 192a1.02 1.02 0 1 1-2.04-.001 1.02 1.02 0 0 1 2.04.001" fill-rule="evenodd" fill="#fff"/><path d="M305.64 192a1.02 1.02 0 1 1-2.04-.001 1.02 1.02 0 0 1 2.04.001zm0 0" fill="none" stroke-width=".06" stroke-linecap="square" stroke-linejoin="bevel" stroke="#000" stroke-miterlimit="10"/><path d="M284.762 184.8a1.74 1.74 0 1 1-3.481-.004 1.74 1.74 0 0 1 3.48.005" fill-rule="evenodd" fill="green"/><path d="M284.762 184.8a1.74 1.74 0 1 1-3.481-.004 1.74 1.74 0 0 1 3.48.005zm0 0" fill="none" stroke-width=".12" stroke-linecap="round" stroke-linejoin="round" stroke="green" stroke-miterlimit="10"/><path d="M284.04 184.8a1.02 1.02 0 1 1-2.041 0 1.02 1.02 0 0 1 2.04 0" fill-rule="evenodd" fill="#fff"/><path d="M284.04 184.8a1.02 1.02 0 1 1-2.041 0 1.02 1.02 0 0 1 2.04 0zm0 0" fill="none" stroke-width=".06" stroke-linecap="square" stroke-linejoin="bevel" stroke="#000" stroke-miterlimit="10"/><path d="M306.36 184.8a1.74 1.74 0 1 1-1.738-1.742c.96 0 1.737.782 1.737 1.743" fill-rule="evenodd" fill="green"/><path d="M306.36 184.8a1.74 1.74 0 1 1-1.738-1.742c.96 0 1.737.782 1.737 1.743zm0 0" fill="none" stroke-width=".12" stroke-linecap="round" stroke-linejoin="round" stroke="green" stroke-miterlimit="10"/><path d="M305.64 184.8a1.02 1.02 0 1 1-2.04 0 1.02 1.02 0 0 1 2.04 0" fill-rule="evenodd" fill="#fff"/><path d="M305.64 184.8a1.02 1.02 0 1 1-2.04 0 1.02 1.02 0 0 1 2.04 0zm0 0" fill="none" stroke-width=".06" stroke-linecap="square" stroke-linejoin="bevel" stroke="#000" stroke-miterlimit="10"/><path d="M320.762 206.398" fill-rule="evenodd" fill="green"/><path d="M320.762 206.398zm0 0" fill="none" stroke-width=".12" stroke-linecap="round" stroke-linejoin="round" stroke="green" stroke-miterlimit="10"/><path d="M320.04 206.398c0 .567-.458 1.024-1.02 1.024a1.021 1.021 0 0 1 0-2.043c.562 0 1.02.457 1.02 1.02" fill-rule="evenodd" fill="#fff"/><path d="M320.04 206.398c0 .567-.458 1.024-1.02 1.024a1.021 1.021 0 0 1 0-2.043c.562 0 1.02.457 1.02 1.02zm0 0" fill="none" stroke-width=".06" stroke-linecap="square" stroke-linejoin="bevel" stroke="#000" stroke-miterlimit="10"/><path d="M320.762 184.8a1.74 1.74 0 1 1-3.481-.004 1.74 1.74 0 0 1 3.48.005" fill-rule="evenodd" fill="green"/><path d="M320.762 184.8a1.74 1.74 0 1 1-3.481-.004 1.74 1.74 0 0 1 3.48.005zm0 0" fill="none" stroke-width=".12" stroke-linecap="round" stroke-linejoin="round" stroke="green" stroke-miterlimit="10"/><path d="M320.04 184.8a1.02 1.02 0 1 1-2.041 0 1.02 1.02 0 0 1 2.04 0" fill-rule="evenodd" fill="#fff"/><path d="M320.04 184.8a1.02 1.02 0 1 1-2.041 0 1.02 1.02 0 0 1 2.04 0zm0 0" fill="none" stroke-width=".06" stroke-linecap="square" stroke-linejoin="bevel" stroke="#000" stroke-miterlimit="10"/><path d="M285.059 206.398a2.041 2.041 0 0 1-2.04 2.043 2.041 2.041 0 0 1 0-4.082 2.04 2.04 0 0 1 2.04 2.04" fill-rule="evenodd" fill="green"/><path d="M285.059 206.398a2.041 2.041 0 0 1-2.04 2.043 2.041 2.041 0 0 1 0-4.082 2.04 2.04 0 0 1 2.04 2.04zm0 0" fill="none" stroke-width=".12" stroke-linecap="round" stroke-linejoin="round" stroke="green" stroke-miterlimit="10"/><path d="M284.04 206.398c0 .567-.458 1.024-1.02 1.024a1.021 1.021 0 0 1 0-2.043c.562 0 1.02.457 1.02 1.02" fill-rule="evenodd" fill="#fff"/><path d="M284.04 206.398c0 .567-.458 1.024-1.02 1.024a1.021 1.021 0 0 1 0-2.043c.562 0 1.02.457 1.02 1.02zm0 0" fill="none" stroke-width=".06" stroke-linecap="square" stroke-linejoin="bevel" stroke="#000" stroke-miterlimit="10"/><path d="M285.059 220.738a2.041 2.041 0 0 1-2.04 2.043 2.041 2.041 0 0 1 0-4.082 2.04 2.04 0 0 1 2.04 2.04" fill-rule="evenodd" fill="green"/><path d="M285.059 220.738a2.041 2.041 0 0 1-2.04 2.043 2.041 2.041 0 0 1 0-4.082 2.04 2.04 0 0 1 2.04 2.04zm0 0" fill="none" stroke-width=".12" stroke-linecap="round" stroke-linejoin="round" stroke="green" stroke-miterlimit="10"/><path d="M284.04 220.738c0 .567-.458 1.024-1.02 1.024a1.021 1.021 0 0 1 0-2.043c.562 0 1.02.457 1.02 1.02" fill-rule="evenodd" fill="#fff"/><path d="M284.04 220.738c0 .567-.458 1.024-1.02 1.024a1.021 1.021 0 0 1 0-2.043c.562 0 1.02.457 1.02 1.02zm0 0" fill="none" stroke-width=".06" stroke-linecap="square" stroke-linejoin="bevel" stroke="#000" stroke-miterlimit="10"/><path d="M285.059 213.602a2.04 2.04 0 0 1-2.04 2.039 2.04 2.04 0 0 1 0-4.082c1.126 0 2.04.914 2.04 2.043" fill-rule="evenodd" fill="green"/><path d="M285.059 213.602a2.04 2.04 0 0 1-2.04 2.039 2.04 2.04 0 0 1 0-4.082c1.126 0 2.04.914 2.04 2.043zm0 0" fill="none" stroke-width=".12" stroke-linecap="round" stroke-linejoin="round" stroke="green" stroke-miterlimit="10"/><path d="M284.04 213.602a1.02 1.02 0 1 1-1.02-1.024c.562 0 1.02.457 1.02 1.024" fill-rule="evenodd" fill="#fff"/><path d="M284.04 213.602a1.02 1.02 0 1 1-1.02-1.024c.562 0 1.02.457 1.02 1.024zm0 0" fill="none" stroke-width=".06" stroke-linecap="square" stroke-linejoin="bevel" stroke="#000" stroke-miterlimit="10"/><path d="M313.86 227.941a2.038 2.038 0 1 1-4.078 0 2.039 2.039 0 1 1 4.077 0" fill-rule="evenodd" fill="green"/><path d="M313.86 227.941a2.038 2.038 0 1 1-4.078 0 2.039 2.039 0 1 1 4.077 0zm0 0" fill="none" stroke-width=".12" stroke-linecap="round" stroke-linejoin="round" stroke="green" stroke-miterlimit="10"/><path d="M312.84 227.941a1.02 1.02 0 1 1-2.04-.001 1.02 1.02 0 0 1 2.04.001" fill-rule="evenodd" fill="#fff"/><path d="M312.84 227.941a1.02 1.02 0 1 1-2.04-.001 1.02 1.02 0 0 1 2.04.001zm0 0" fill="none" stroke-width=".06" stroke-linecap="square" stroke-linejoin="bevel" stroke="#000" stroke-miterlimit="10"/><path d="M299.46 227.941a2.04 2.04 0 1 1-4.08-.003 2.04 2.04 0 0 1 4.08.003" fill-rule="evenodd" fill="green"/><path d="M299.46 227.941a2.04 2.04 0 1 1-4.08-.003 2.04 2.04 0 0 1 4.08.003zm0 0" fill="none" stroke-width=".12" stroke-linecap="round" stroke-linejoin="round" stroke="green" stroke-miterlimit="10"/><path d="M298.441 227.941a1.021 1.021 0 1 1-2.043 0 1.021 1.021 0 0 1 2.043 0" fill-rule="evenodd" fill="#fff"/><path d="M298.441 227.941a1.021 1.021 0 1 1-2.043 0 1.021 1.021 0 0 1 2.043 0zm0 0" fill="none" stroke-width=".06" stroke-linecap="square" stroke-linejoin="bevel" stroke="#000" stroke-miterlimit="10"/><path d="M306.66 227.941a2.04 2.04 0 1 1-4.08-.003 2.04 2.04 0 0 1 4.08.003" fill-rule="evenodd" fill="green"/><path d="M306.66 227.941a2.04 2.04 0 1 1-4.08-.003 2.04 2.04 0 0 1 4.08.003zm0 0" fill="none" stroke-width=".12" stroke-linecap="round" stroke-linejoin="round" stroke="green" stroke-miterlimit="10"/><path d="M305.64 227.941a1.02 1.02 0 1 1-2.04-.001 1.02 1.02 0 0 1 2.04.001" fill-rule="evenodd" fill="#fff"/><path d="M305.64 227.941a1.02 1.02 0 1 1-2.04-.001 1.02 1.02 0 0 1 2.04.001zm0 0" fill="none" stroke-width=".06" stroke-linecap="square" stroke-linejoin="bevel" stroke="#000" stroke-miterlimit="10"/><path d="M313.86 206.398a2.039 2.039 0 1 1-4.078 0 2.038 2.038 0 1 1 4.077 0" fill-rule="evenodd" fill="green"/><path d="M313.86 206.398a2.039 2.039 0 1 1-4.078 0 2.038 2.038 0 1 1 4.077 0zm0 0" fill="none" stroke-width=".12" stroke-linecap="round" stroke-linejoin="round" stroke="green" stroke-miterlimit="10"/><path d="M312.84 206.398c0 .567-.457 1.024-1.02 1.024a1.021 1.021 0 0 1 0-2.043c.563 0 1.02.457 1.02 1.02" fill-rule="evenodd" fill="#fff"/><path d="M312.84 206.398c0 .567-.457 1.024-1.02 1.024a1.021 1.021 0 0 1 0-2.043c.563 0 1.02.457 1.02 1.02zm0 0" fill="none" stroke-width=".06" stroke-linecap="square" stroke-linejoin="bevel" stroke="#000" stroke-miterlimit="10"/><path d="M313.86 192a2.04 2.04 0 1 1-4.077 0 2.04 2.04 0 0 1 4.076 0" fill-rule="evenodd" fill="green"/><path d="M313.86 192a2.04 2.04 0 1 1-4.077 0 2.04 2.04 0 0 1 4.076 0zm0 0" fill="none" stroke-width=".12" stroke-linecap="round" stroke-linejoin="round" stroke="green" stroke-miterlimit="10"/><path d="M312.84 192a1.02 1.02 0 1 1-2.04-.001 1.02 1.02 0 0 1 2.04.001" fill-rule="evenodd" fill="#fff"/><path d="M312.84 192a1.02 1.02 0 1 1-2.04-.001 1.02 1.02 0 0 1 2.04.001zm0 0" fill="none" stroke-width=".06" stroke-linecap="square" stroke-linejoin="bevel" stroke="#000" stroke-miterlimit="10"/><path d="M313.86 199.2a2.038 2.038 0 0 1-2.04 2.038 2.035 2.035 0 0 1-2.039-2.039 2.038 2.038 0 1 1 4.078 0" fill-rule="evenodd" fill="green"/><path d="M313.86 199.2a2.038 2.038 0 0 1-2.04 2.038 2.035 2.035 0 0 1-2.039-2.039 2.038 2.038 0 1 1 4.078 0zm0 0" fill="none" stroke-width=".12" stroke-linecap="round" stroke-linejoin="round" stroke="green" stroke-miterlimit="10"/><path d="M312.84 199.2a1.02 1.02 0 1 1-2.04-.002 1.02 1.02 0 0 1 2.04.001" fill-rule="evenodd" fill="#fff"/><path d="M312.84 199.2a1.02 1.02 0 1 1-2.04-.002 1.02 1.02 0 0 1 2.04.001zm0 0" fill="none" stroke-width=".06" stroke-linecap="square" stroke-linejoin="bevel" stroke="#000" stroke-miterlimit="10"/><path d="M328.738 192a2.52 2.52 0 1 1-5.037-.002 2.52 2.52 0 0 1 5.037.002" fill-rule="evenodd" fill="green"/><path d="M328.738 192a2.52 2.52 0 1 1-5.037-.002 2.52 2.52 0 0 1 5.037.002zm0 0" fill="none" stroke-width=".12" stroke-linecap="round" stroke-linejoin="round" stroke="green" stroke-miterlimit="10"/><path d="M327.66 192a1.44 1.44 0 1 1-2.88.002 1.44 1.44 0 0 1 2.88-.002" fill-rule="evenodd" fill="#fff"/><path d="M327.66 192a1.44 1.44 0 1 1-2.88.002 1.44 1.44 0 0 1 2.88-.002zm0 0" fill="none" stroke-width=".06" stroke-linecap="square" stroke-linejoin="bevel" stroke="#000" stroke-miterlimit="10"/><path d="M328.738 184.8a2.52 2.52 0 1 1-5.037-.002 2.52 2.52 0 0 1 5.037.003" fill-rule="evenodd" fill="green"/><path d="M328.738 184.8a2.52 2.52 0 1 1-5.037-.002 2.52 2.52 0 0 1 5.037.003zm0 0" fill="none" stroke-width=".12" stroke-linecap="round" stroke-linejoin="round" stroke="green" stroke-miterlimit="10"/><path d="M327.66 184.8a1.44 1.44 0 1 1-2.879-.003 1.44 1.44 0 0 1 2.88.004" fill-rule="evenodd" fill="#fff"/><path d="M327.66 184.8a1.44 1.44 0 1 1-2.879-.003 1.44 1.44 0 0 1 2.88.004zm0 0" fill="none" stroke-width=".06" stroke-linecap="square" stroke-linejoin="bevel" stroke="#000" stroke-miterlimit="10"/><path d="M266.879 194.16v10.078m1.081-11.16h1.438m1.082 1.082l-.12-.422-.239-.36-.3-.237-.423-.063m1.082 11.16V194.16" fill="none" stroke-width=".3" stroke-linecap="round" stroke-linejoin="round" stroke="#505050" stroke-miterlimit="10"/><path d="M267.238 200.281h2.883v-.722h-2.883zm0-1.441h2.883v-.719h-2.883zm0 0" fill="#505050" stroke-width=".12" stroke-linecap="round" stroke-linejoin="round" stroke="#505050" stroke-miterlimit="10"/><path d="M267.96 193.078l-.42.063-.36.238-.239.36-.062.421m2.519 11.16h-1.437m-1.082-1.082l.062.422.239.3.36.24.42.12m1.438 0l.422-.12.301-.24.238-.3.121-.422" fill="none" stroke-width=".3" stroke-linecap="round" stroke-linejoin="round" stroke="#505050" stroke-miterlimit="10"/><path d="M322.621 213.781v.54m-.543-.001h.543m0 0v.54m0-.54h.54m1.62 2.88a5.759 5.759 0 1 1-11.52 0 5.758 5.758 0 0 1 5.759-5.759 5.761 5.761 0 0 1 5.761 5.758zm0 0" fill="none" stroke-width=".48" stroke-linecap="round" stroke-linejoin="round" stroke="#505050" stroke-miterlimit="10"/><path d="M316.738 218.578h4.563v-.719h-4.563zm0 0" fill="#505050" stroke-width=".12" stroke-linecap="round" stroke-linejoin="round" stroke="#505050" stroke-miterlimit="10"/><path d="M284.46 234.781h-2.882m0 0l1.442-2.52m0 .001l1.44 2.52m-1.44-2.52h-1.258m2.519 0h-1.261m2.878 1.617A2.88 2.88 0 1 1 283.02 231a2.88 2.88 0 0 1 2.878 2.879zm-1.617-1.617l.54.898" fill="none" stroke-width=".36" stroke-linecap="round" stroke-linejoin="round" stroke="#505050" stroke-miterlimit="10"/><use xlink:href="#a" x="266.984" y="241.743" fill="#505050"/><use xlink:href="#b" x="268.184" y="241.743" fill="#505050"/><path d="M265.078 224.34v14.398m0 0h7.203m0 0V224.34m0 0h-7.203" fill="none" stroke-width=".36" stroke-linecap="round" stroke-linejoin="round" stroke="#505050" stroke-miterlimit="10"/><use xlink:href="#c" x="262.55" y="236.589" fill="#505050"/><use xlink:href="#d" x="264.71" y="229.397" fill="#505050"/><use xlink:href="#e" x="315.888" y="241.743" fill="#505050"/><use xlink:href="#f" x="318.168" y="241.743" fill="#505050"/><use xlink:href="#g" x="320.268" y="241.743" fill="#505050"/><path d="M315.422 224.34v14.398m0 0h7.2m-.001 0V224.34m0 0h-7.2" fill="none" stroke-width=".36" stroke-linecap="round" stroke-linejoin="round" stroke="#505050" stroke-miterlimit="10"/><use xlink:href="#c" x="323.682" y="236.589" fill="#505050"/><use xlink:href="#d" x="325.842" y="229.397" fill="#505050"/><path d="M277.68 196.32l-.059-.3-.18-.239-.242-.12-.238-.06m-2.161.001l-.3.058-.238.121-.121.239-.063.3m0 5.758l.063.242.12.239.239.18.3.062m2.16-.001l.24-.062.241-.18.18-.238.059-.242" fill="none" stroke-width=".48" stroke-linecap="round" stroke-linejoin="round" stroke="#505050" stroke-miterlimit="10"/><path d="M277.68 196.32l-.059-.3-.18-.239-.242-.12-.238-.06m-2.161.001l-.3.058-.238.121-.121.239-.063.3m0 5.758l.063.242.12.239.239.18.3.062m2.16-.001l.24-.062.241-.18.18-.238.059-.242m-2.88-6.476h2.16m.72 6.476v-5.758m-3.602 5.758v-5.758m.722 6.48h2.16" fill="none" stroke-width=".48" stroke-linecap="round" stroke-linejoin="round" stroke="#505050" stroke-miterlimit="10"/><path d="M275.52 203.879h.718V202.8h-.718zm0-8.277h.718v-1.082h-.718zm0 0" fill="#505050" stroke-width=".12" stroke-linecap="round" stroke-linejoin="round" stroke="#505050" stroke-miterlimit="10"/><path d="M298.14 211.8l-.242.06-.238.12-.18.239-.058.3m0 2.161l.058.242.18.238.238.18.243.058m5.757 0l.301-.058.242-.18.118-.238.062-.242m0-2.16l-.062-.301-.118-.239-.242-.12-.3-.06" fill="none" stroke-width=".48" stroke-linecap="round" stroke-linejoin="round" stroke="#505050" stroke-miterlimit="10"/><path d="M298.14 211.8l-.242.06-.238.12-.18.239-.058.3m0 2.161l.058.242.18.238.238.18.243.058m5.757 0l.301-.058.242-.18.118-.238.062-.242m0-2.16l-.062-.301-.118-.239-.242-.12-.3-.06m-6.477 2.88v-2.16m6.476-.72h-5.757m5.757 3.598h-5.757m6.48-.718v-2.16" fill="none" stroke-width=".48" stroke-linecap="round" stroke-linejoin="round" stroke="#505050" stroke-miterlimit="10"/><path d="M304.621 213.96h1.078v-.722h-1.078zm-8.281 0h1.082v-.722h-1.082zm0 0" fill="#505050" stroke-width=".12" stroke-linecap="round" stroke-linejoin="round" stroke="#505050" stroke-miterlimit="10"/><path d="M290.941 197.398l-.242.063-.238.117-.18.242-.062.301m0 2.16l.062.239.18.242.238.18.242.058m5.759 0l.3-.059.238-.18.121-.241.063-.239m0-2.16l-.063-.3-.12-.243-.239-.117-.3-.063" fill="none" stroke-width=".48" stroke-linecap="round" stroke-linejoin="round" stroke="#505050" stroke-miterlimit="10"/><path d="M290.941 197.398l-.242.063-.238.117-.18.242-.062.301m0 2.16l.062.239.18.242.238.18.242.058m5.759 0l.3-.059.238-.18.121-.241.063-.239m0-2.16l-.063-.3-.12-.243-.239-.117-.3-.063m-6.481 2.883v-2.16m6.481-.723h-5.759M296.7 201h-5.759m6.481-.719v-2.16" fill="none" stroke-width=".48" stroke-linecap="round" stroke-linejoin="round" stroke="#505050" stroke-miterlimit="10"/><path d="M297.422 199.559h1.078v-.72h-1.078zm-8.282 0h1.079v-.72h-1.078zm0 0" fill="#505050" stroke-width=".12" stroke-linecap="round" stroke-linejoin="round" stroke="#505050" stroke-miterlimit="10"/><path d="M290.941 190.2l-.242.062-.238.18-.18.18-.062.3m0 2.156l.062.3.18.18.238.18.242.063m5.759-.001l.3-.062.238-.18.121-.18.063-.3m0-2.156l-.063-.3-.12-.18-.239-.18-.3-.063" fill="none" stroke-width=".48" stroke-linecap="round" stroke-linejoin="round" stroke="#505050" stroke-miterlimit="10"/><path d="M290.941 190.2l-.242.062-.238.18-.18.18-.062.3m0 2.156l.062.3.18.18.238.18.242.063m5.759-.001l.3-.062.238-.18.121-.18.063-.3m0-2.156l-.063-.3-.12-.18-.239-.18-.3-.063m-6.481 2.879v-2.156m6.481-.722h-5.759m5.759 3.6h-5.759m6.481-.722v-2.156" fill="none" stroke-width=".48" stroke-linecap="round" stroke-linejoin="round" stroke="#505050" stroke-miterlimit="10"/><path d="M297.422 192.36h1.078v-.72h-1.078zm-8.282 0h1.079v-.72h-1.078zm0 0" fill="#505050" stroke-width=".12" stroke-linecap="round" stroke-linejoin="round" stroke="#505050" stroke-miterlimit="10"/><path d="M290.941 183l-.242.059-.238.18-.18.241-.062.239m0 2.16l.062.3.18.243.238.117.242.063m5.759 0l.3-.063.238-.117.121-.242.063-.301m0-2.16l-.063-.239-.12-.242-.239-.18-.3-.058" fill="none" stroke-width=".48" stroke-linecap="round" stroke-linejoin="round" stroke="#505050" stroke-miterlimit="10"/><path d="M290.941 183l-.242.059-.238.18-.18.241-.062.239m0 2.16l.062.3.18.243.238.117.242.063m5.759 0l.3-.063.238-.117.121-.242.063-.301m0-2.16l-.063-.239-.12-.242-.239-.18-.3-.058m-6.481 2.879v-2.16M296.7 183h-5.759m5.759 3.602h-5.759m6.481-.723v-2.16" fill="none" stroke-width=".48" stroke-linecap="round" stroke-linejoin="round" stroke="#505050" stroke-miterlimit="10"/><path d="M297.422 185.16h1.078v-.719h-1.078zm-8.282 0h1.079v-.719h-1.078zm0 0" fill="#505050" stroke-width=".12" stroke-linecap="round" stroke-linejoin="round" stroke="#505050" stroke-miterlimit="10"/><path d="M317.219 198.48l.062.239.117.242.243.18.3.058m2.161.001l.238-.06.238-.18.184-.241.058-.239m0-5.761l-.058-.297-.184-.184-.238-.18-.238-.058m-2.161 0l-.3.059-.243.18-.117.183-.062.297" fill="none" stroke-width=".48" stroke-linecap="round" stroke-linejoin="round" stroke="#505050" stroke-miterlimit="10"/><path d="M317.219 198.48l.062.239.117.242.243.18.3.058m2.161.001l.238-.06.238-.18.184-.241.058-.239m0-5.761l-.058-.297-.184-.184-.238-.18-.238-.058m-2.161 0l-.3.059-.243.18-.117.183-.062.297m2.883 6.481h-2.16m-.723-6.481v5.761m3.601-5.761v5.761m-.718-6.48h-2.16" fill="none" stroke-width=".48" stroke-linecap="round" stroke-linejoin="round" stroke="#505050" stroke-miterlimit="10"/><path d="M318.66 192h.719v-1.082h-.719zm0 8.281h.719V199.2h-.719zm0 0" fill="#505050" stroke-width=".12" stroke-linecap="round" stroke-linejoin="round" stroke="#505050" stroke-miterlimit="10"/><path d="M278.398 207.66v11.82m7.864.899l1.136-.66 1.024-.84.84-.957.66-1.14.418-1.262.238-1.258v-1.32l-.238-1.32-.418-1.2-.66-1.14-.84-1.02-1.024-.84-1.136-.66m-3.242 14.34v-15.063m3.242.723l-1.024-.422-1.078-.238-1.14-.063m0 .001l-1.079.062-1.082.238-1.02.422m.001 0l-.781.418-.66.48m1.441 12.719l1.02.422 1.081.238 1.079.063m0 0l1.14-.063 1.078-.238 1.024-.422m-7.864-.899l.723.54.777.421m30.661 2.821h-11.88m-.898 7.918l.66 1.14.84.961 1.02.899 1.14.601 1.258.48 1.262.239h1.32l1.32-.238 1.2-.48 1.14-.602 1.02-.899.84-.96.66-1.141m-14.402-3.239h15.12m-.719 3.239l.419-1.02.242-1.082.059-1.137m0 0l-.121-1.082-.239-1.078-.36-1.02m0 .001l-.42-.782-.481-.718m-12.778 1.5l-.36 1.02-.241 1.077-.121 1.082m0 0l.062 1.137.238 1.082.422 1.02m.899-7.918l-.48.777-.419.781m18.719-19.68v-11.878m-7.922-.902l-1.137.66-.96.84-.84 1.019-.66 1.14-.481 1.2-.18 1.32v1.32l.18 1.262.48 1.258.66 1.14.84 1.02.961.84 1.137.66m3.242-14.399v15.122m-3.242-.722l1.024.42 1.078.24 1.14.062m0 0l1.078-.121 1.082-.243 1.079-.359m0 .001l.722-.419.719-.48m-1.441-12.781l-1.079-.36-1.082-.238-1.078-.121m0-.001l-1.14.06-1.078.241-1.024.418" fill="none" stroke-width=".36" stroke-linecap="round" stroke-linejoin="round" stroke="#505050" stroke-miterlimit="10"/><path d="M316.5 193.262l-.719-.543-.84-.418" fill="none" stroke-width=".36" stroke-linecap="round" stroke-linejoin="round" stroke="#505050" stroke-miterlimit="10"/><use xlink:href="#h" x="322.84" y="198.595" fill="#505050"/><use xlink:href="#i" x="324.64" y="198.595" fill="#505050"/><use xlink:href="#j" x="327.58" y="198.595" fill="#505050"/><path d="M322.621 181.2v14.402m0 0h7.2m-.001 0v-14.403m0 .001h-7.199" fill="none" stroke-width=".36" stroke-linecap="round" stroke-linejoin="round" stroke="#505050" stroke-miterlimit="10"/><use xlink:href="#c" x="330.874" y="193.44" fill="#505050"/><use xlink:href="#d" x="333.034" y="186.248" fill="#505050"/><path d="M268.68 192v6.059m0 8.339v-6.117" fill="none" stroke-width=".24" stroke-linecap="round" stroke-linejoin="round" stroke="#505050" stroke-miterlimit="10"/><path d="M319.02 213.602v1.918m0 0h-2.52m0 0v1.082m0 0h5.04m0 0v-1.082m0 0h-2.52m0 5.218v-1.918m0 0h2.52m0 0v-1.082m0 0h-5.04m0 0v1.082m0 0h2.52" fill="none" stroke-width=".48" stroke-linecap="round" stroke-linejoin="round" stroke="#505050" stroke-miterlimit="10"/><path d="M283.02 231v1.262m0 0v4.136" fill="none" stroke-width=".36" stroke-linecap="round" stroke-linejoin="round" stroke="#505050" stroke-miterlimit="10"/><path d="M283.02 230.64v-2.699" fill="none" stroke-width="1.2" stroke-linecap="round" stroke-linejoin="round" stroke="#505050" stroke-miterlimit="10"/><path d="M275.879 213.602v-9.723m0-19.079v9.72m35.941 19.082h-6.12m-15.481 0h6.12m8.282-14.402H298.5m-15.48 0h6.12m15.481-7.2H298.5m-15.48 0h6.12m15.481-7.2H298.5m-15.48 0h6.12m29.88 0v6.122m0 15.476v-6.117" fill="none" stroke-width=".72" stroke-linecap="round" stroke-linejoin="round" stroke="#505050" stroke-miterlimit="10"/><use xlink:href="#k" x="273.4" y="196.739" fill="#505050"/><use xlink:href="#l" x="273.4" y="194.819" fill="#505050"/><use xlink:href="#m" x="311.752" y="212.259" fill="#505050"/><use xlink:href="#n" x="313.672" y="212.259" fill="#505050"/><use xlink:href="#o" x="289.284" y="229.4" fill="#505050"/><use xlink:href="#p" x="289.284" y="227.18" fill="#505050"/><use xlink:href="#j" x="276.575" y="206.865" fill="#505050"/><use xlink:href="#q" x="278.615" y="206.865" fill="#505050"/><use xlink:href="#j" x="299.168" y="218.371" fill="#505050"/><use xlink:href="#r" x="301.208" y="218.371" fill="#505050"/><use xlink:href="#j" x="291.976" y="203.988" fill="#505050"/><use xlink:href="#n" x="294.016" y="203.988" fill="#505050"/><use xlink:href="#j" x="291.976" y="196.797" fill="#505050"/><use xlink:href="#s" x="294.016" y="196.797" fill="#505050"/><use xlink:href="#j" x="291.976" y="189.606" fill="#505050"/><use xlink:href="#t" x="294.016" y="189.606" fill="#505050"/><use xlink:href="#j" x="314.509" y="190.202" fill="#505050"/><use xlink:href="#u" x="316.549" y="190.202" fill="#505050"/><use xlink:href="#g" x="284.125" y="214.715" fill="#505050"/><use xlink:href="#q" x="286.045" y="214.715" fill="#505050"/><use xlink:href="#v" x="305.764" y="232.694" fill="#505050"/><use xlink:href="#l" x="305.764" y="230.774" fill="#505050"/><use xlink:href="#g" x="307.079" y="200.331" fill="#505050"/><use xlink:href="#n" x="308.999" y="200.331" fill="#505050"/><use xlink:href="#w" x="266.208" y="206.152" fill="#505050"/><use xlink:href="#w" x="266.208" y="204.412" fill="#505050"/><use xlink:href="#x" x="266.208" y="202.672" fill="#505050"/><use xlink:href="#y" x="266.208" y="200.872" fill="#505050"/><use xlink:href="#n" x="326.2" y="220.766" fill="#505050"/><use xlink:href="#z" x="327.94" y="220.766" fill="#505050"/><use xlink:href="#n" x="328.9" y="220.766" fill="#505050"/><use xlink:href="#A" x="330.64" y="220.766" fill="#505050"/><use xlink:href="#B" x="332.44" y="220.766" fill="#505050"/><use xlink:href="#C" x="277.777" y="235.94" fill="#505050"/><use xlink:href="#D" x="277.777" y="234.14" fill="#505050"/><use xlink:href="#w" x="277.777" y="231.8" fill="#505050"/><use xlink:href="#E" x="277.777" y="230.06" fill="#505050"/><use xlink:href="#w" x="277.777" y="229.1" fill="#505050"/><use xlink:href="#F" x="277.777" y="227.36" fill="#505050"/><use xlink:href="#q" x="276.575" y="193.798" fill="#505050"/><use xlink:href="#G" x="278.315" y="193.798" fill="#505050"/><use xlink:href="#G" x="280.055" y="193.798" fill="#505050"/><use xlink:href="#H" x="281.795" y="193.798" fill="#505050"/><use xlink:href="#q" x="298.928" y="214.715" fill="#505050"/><use xlink:href="#I" x="300.668" y="214.715" fill="#505050"/><use xlink:href="#J" x="291.316" y="200.332" fill="#505050"/><use xlink:href="#t" x="293.056" y="200.332" fill="#505050"/><use xlink:href="#H" x="294.796" y="200.332" fill="#505050"/><use xlink:href="#J" x="290.836" y="193.14" fill="#505050"/><use xlink:href="#z" x="292.576" y="193.14" fill="#505050"/><use xlink:href="#t" x="293.536" y="193.14" fill="#505050"/><use xlink:href="#H" x="295.276" y="193.14" fill="#505050"/><use xlink:href="#s" x="290.836" y="185.949" fill="#505050"/><use xlink:href="#z" x="292.576" y="185.949" fill="#505050"/><use xlink:href="#J" x="293.536" y="185.949" fill="#505050"/><use xlink:href="#H" x="295.276" y="185.949" fill="#505050"/><use xlink:href="#q" x="314.929" y="203.269" fill="#505050"/><use xlink:href="#H" x="316.669" y="203.269" fill="#505050"/><use xlink:href="#K" x="281.85" y="218.074" fill="#505050"/><use xlink:href="#k" x="281.85" y="216.154" fill="#505050"/><use xlink:href="#L" x="281.85" y="214.234" fill="#505050"/><use xlink:href="#M" x="281.85" y="212.494" fill="#505050"/><use xlink:href="#N" x="281.85" y="210.754" fill="#505050"/><use xlink:href="#O" x="300.124" y="226.76" fill="#505050"/><use xlink:href="#m" x="302.044" y="226.76" fill="#505050"/><use xlink:href="#t" x="303.964" y="226.76" fill="#505050"/><use xlink:href="#s" x="305.704" y="226.76" fill="#505050"/><use xlink:href="#J" x="307.444" y="226.76" fill="#505050"/><use xlink:href="#K" x="315.293" y="203.752" fill="#505050"/><use xlink:href="#k" x="315.293" y="201.832" fill="#505050"/><use xlink:href="#L" x="315.293" y="199.912" fill="#505050"/><use xlink:href="#L" x="315.293" y="198.172" fill="#505050"/><use xlink:href="#N" x="315.293" y="196.432" fill="#505050"/><path d="M261.48 242.34h71.942m0 0v-64.738m0 0H261.48m0 0v64.738" fill="none" stroke-width=".12" stroke-linecap="round" stroke-linejoin="round" stroke="#000" stroke-miterlimit="10"/></svg>