<svg xmlns:xlink="http://www.w3.org/1999/xlink" width="595pt" height="560" viewBox="0 0 595 420">
  <defs>
    <path fill="none" stroke="#000" stroke-linecap="square" stroke-linejoin="bevel" stroke-miterlimit="10" stroke-width=".06" d="M332.02 231.602a1.44 1.44 0 1 1 2.88-.003 1.44 1.44 0 0 1-2.88.003zm0 0" id="reuse-130"/>
    <path fill="#fff" fill-rule="evenodd" d="M332.02 231.602a1.44 1.44 0 1 1 2.88-.003 1.44 1.44 0 0 1-2.88.003" id="reuse-129"/>
    <path fill="none" stroke="green" stroke-linecap="round" stroke-linejoin="round" stroke-miterlimit="10" stroke-width=".12" d="M330.941 231.602a2.519 2.519 0 1 1 5.04 0 2.52 2.52 0 0 1-5.04 0zm0 0" id="reuse-128"/>
    <path fill="green" fill-rule="evenodd" d="M330.941 231.602a2.519 2.519 0 1 1 5.04 0 2.52 2.52 0 0 1-5.04 0" id="reuse-127"/>
    <path fill="none" stroke="#000" stroke-linecap="square" stroke-linejoin="bevel" stroke-miterlimit="10" stroke-width=".06" d="M332.02 224.398a1.44 1.44 0 1 1 2.879.005 1.44 1.44 0 0 1-2.88-.005zm0 0" id="reuse-126"/>
    <path fill="#fff" fill-rule="evenodd" d="M332.02 224.398a1.44 1.44 0 1 1 2.879.005 1.44 1.44 0 0 1-2.88-.005" id="reuse-125"/>
    <path fill="none" stroke="green" stroke-linecap="round" stroke-linejoin="round" stroke-miterlimit="10" stroke-width=".12" d="M330.941 224.398a2.52 2.52 0 1 1 5.037.002 2.52 2.52 0 0 1-5.037-.002zm0 0" id="reuse-124"/>
    <path fill="green" fill-rule="evenodd" d="M330.941 224.398a2.52 2.52 0 1 1 5.037.002 2.52 2.52 0 0 1-5.037-.002" id="reuse-123"/>
    <path fill="none" stroke="#000" stroke-linecap="square" stroke-linejoin="bevel" stroke-miterlimit="10" stroke-width=".06" d="M310.84 217.2a1.02 1.02 0 1 1 2.04 0 1.02 1.02 0 0 1-2.04 0zm0 0" id="reuse-122"/>
    <path fill="#fff" fill-rule="evenodd" d="M310.84 217.2a1.02 1.02 0 1 1 2.04 0 1.02 1.02 0 0 1-2.04 0" id="reuse-121"/>
    <path fill="none" stroke="green" stroke-linecap="round" stroke-linejoin="round" stroke-miterlimit="10" stroke-width=".12" d="M309.82 217.2a2.038 2.038 0 1 1 4.078 0c0 1.128-.91 2.038-2.039 2.038a2.038 2.038 0 0 1-2.039-2.039zm0 0" id="reuse-120"/>
    <path fill="green" fill-rule="evenodd" d="M309.82 217.2a2.038 2.038 0 1 1 4.078 0c0 1.128-.91 2.038-2.039 2.038a2.038 2.038 0 0 1-2.039-2.039" id="reuse-119"/>
    <path fill="none" stroke="#000" stroke-linecap="square" stroke-linejoin="bevel" stroke-miterlimit="10" stroke-width=".06" d="M310.84 224.398a1.02 1.02 0 1 1 1.02 1.024c-.563 0-1.02-.457-1.02-1.024zm0 0" id="reuse-118"/>
    <path fill="#fff" fill-rule="evenodd" d="M310.84 224.398a1.02 1.02 0 1 1 1.02 1.024c-.563 0-1.02-.457-1.02-1.024" id="reuse-117"/>
    <path fill="none" stroke="green" stroke-linecap="round" stroke-linejoin="round" stroke-miterlimit="10" stroke-width=".12" d="M309.82 224.398a2.038 2.038 0 1 1 4.078 0 2.039 2.039 0 1 1-4.078 0zm0 0" id="reuse-116"/>
    <path fill="green" fill-rule="evenodd" d="M309.82 224.398a2.038 2.038 0 1 1 4.078 0 2.039 2.039 0 1 1-4.078 0" id="reuse-115"/>
    <path fill="none" stroke="#000" stroke-linecap="square" stroke-linejoin="bevel" stroke-miterlimit="10" stroke-width=".06" d="M310.84 210a1.02 1.02 0 1 1 2.04.001 1.02 1.02 0 0 1-2.04-.001zm0 0" id="reuse-114"/>
    <path fill="#fff" fill-rule="evenodd" d="M310.84 210a1.02 1.02 0 1 1 2.04.001 1.02 1.02 0 0 1-2.04-.001" id="reuse-113"/>
    <path fill="none" stroke="green" stroke-linecap="round" stroke-linejoin="round" stroke-miterlimit="10" stroke-width=".12" d="M309.82 210a2.039 2.039 0 1 1 4.078 0 2.039 2.039 0 1 1-4.078 0zm0 0" id="reuse-112"/>
    <path fill="green" fill-rule="evenodd" d="M309.82 210a2.039 2.039 0 1 1 4.078 0 2.039 2.039 0 1 1-4.078 0" id="reuse-111"/>
    <path fill="none" stroke="#000" stroke-linecap="square" stroke-linejoin="bevel" stroke-miterlimit="10" stroke-width=".06" d="M303.64 195.66a1.02 1.02 0 1 1 2.041.002 1.02 1.02 0 0 1-2.04-.002zm0 0" id="reuse-110"/>
    <path fill="#fff" fill-rule="evenodd" d="M303.64 195.66a1.02 1.02 0 1 1 2.041.002 1.02 1.02 0 0 1-2.04-.002" id="reuse-109"/>
    <path fill="none" stroke="green" stroke-linecap="round" stroke-linejoin="round" stroke-miterlimit="10" stroke-width=".12" d="M302.621 195.66c0-1.129.91-2.039 2.04-2.039a2.038 2.038 0 1 1 0 4.078 2.038 2.038 0 0 1-2.04-2.039zm0 0" id="reuse-108"/>
    <path fill="green" fill-rule="evenodd" d="M302.621 195.66c0-1.129.91-2.039 2.04-2.039a2.038 2.038 0 1 1 0 4.078 2.038 2.038 0 0 1-2.04-2.039" id="reuse-107"/>
    <path fill="none" stroke="#000" stroke-linecap="square" stroke-linejoin="bevel" stroke-miterlimit="10" stroke-width=".06" d="M296.441 195.66a1.02 1.02 0 1 1 2.04.002 1.02 1.02 0 0 1-2.04-.002zm0 0" id="reuse-106"/>
    <path fill="#fff" fill-rule="evenodd" d="M296.441 195.66a1.02 1.02 0 1 1 2.04.002 1.02 1.02 0 0 1-2.04-.002" id="reuse-105"/>
    <path fill="none" stroke="green" stroke-linecap="round" stroke-linejoin="round" stroke-miterlimit="10" stroke-width=".12" d="M295.422 195.66c0-1.129.91-2.039 2.039-2.039a2.038 2.038 0 1 1 0 4.078 2.038 2.038 0 0 1-2.04-2.039zm0 0" id="reuse-104"/>
    <path fill="green" fill-rule="evenodd" d="M295.422 195.66c0-1.129.91-2.039 2.039-2.039a2.038 2.038 0 1 1 0 4.078 2.038 2.038 0 0 1-2.04-2.039" id="reuse-103"/>
    <path fill="none" stroke="#000" stroke-linecap="square" stroke-linejoin="bevel" stroke-miterlimit="10" stroke-width=".06" d="M310.84 195.66a1.02 1.02 0 1 1 2.04.002 1.02 1.02 0 0 1-2.04-.002zm0 0" id="reuse-102"/>
    <path fill="#fff" fill-rule="evenodd" d="M310.84 195.66a1.02 1.02 0 1 1 2.04.002 1.02 1.02 0 0 1-2.04-.002" id="reuse-101"/>
    <path fill="none" stroke="green" stroke-linecap="round" stroke-linejoin="round" stroke-miterlimit="10" stroke-width=".12" d="M309.82 195.66c0-1.129.914-2.039 2.04-2.039 1.128 0 2.038.91 2.038 2.04a2.038 2.038 0 1 1-4.078 0zm0 0" id="reuse-100"/>
    <path fill="green" fill-rule="evenodd" d="M309.82 195.66c0-1.129.914-2.039 2.04-2.039 1.128 0 2.038.91 2.038 2.04a2.038 2.038 0 1 1-4.078 0" id="reuse-99"/>
    <path fill="none" stroke="#000" stroke-linecap="square" stroke-linejoin="bevel" stroke-miterlimit="10" stroke-width=".06" d="M274.898 202.86a1.021 1.021 0 0 1 2.043 0 1.021 1.021 0 1 1-2.043 0zm0 0" id="reuse-98"/>
    <path fill="#fff" fill-rule="evenodd" d="M274.898 202.86a1.021 1.021 0 0 1 2.043 0 1.021 1.021 0 1 1-2.043 0" id="reuse-97"/>
    <path fill="none" stroke="green" stroke-linecap="round" stroke-linejoin="round" stroke-miterlimit="10" stroke-width=".12" d="M273.879 202.86a2.041 2.041 0 0 1 4.082 0 2.038 2.038 0 0 1-2.04 2.038 2.039 2.039 0 0 1-2.042-2.039zm0 0" id="reuse-96"/>
    <path fill="green" fill-rule="evenodd" d="M273.879 202.86a2.041 2.041 0 0 1 4.082 0 2.038 2.038 0 0 1-2.04 2.038 2.039 2.039 0 0 1-2.042-2.039" id="reuse-95"/>
    <path fill="none" stroke="#000" stroke-linecap="square" stroke-linejoin="bevel" stroke-miterlimit="10" stroke-width=".06" d="M274.898 195.66a1.021 1.021 0 0 1 2.043 0 1.021 1.021 0 1 1-2.043 0zm0 0" id="reuse-94"/>
    <path fill="#fff" fill-rule="evenodd" d="M274.898 195.66a1.021 1.021 0 0 1 2.043 0 1.021 1.021 0 1 1-2.043 0" id="reuse-93"/>
    <path fill="none" stroke="green" stroke-linecap="round" stroke-linejoin="round" stroke-miterlimit="10" stroke-width=".12" d="M273.879 195.66c0-1.129.914-2.039 2.043-2.039a2.038 2.038 0 1 1 0 4.078 2.041 2.041 0 0 1-2.043-2.039zm0 0" id="reuse-92"/>
    <path fill="green" fill-rule="evenodd" d="M273.879 195.66c0-1.129.914-2.039 2.043-2.039a2.038 2.038 0 1 1 0 4.078 2.041 2.041 0 0 1-2.043-2.039" id="reuse-91"/>
    <path fill="none" stroke="#000" stroke-linecap="square" stroke-linejoin="bevel" stroke-miterlimit="10" stroke-width=".06" d="M274.898 210a1.021 1.021 0 0 1 2.043 0 1.021 1.021 0 1 1-2.043 0zm0 0" id="reuse-90"/>
    <path fill="#fff" fill-rule="evenodd" d="M274.898 210a1.021 1.021 0 0 1 2.043 0 1.021 1.021 0 1 1-2.043 0" id="reuse-89"/>
    <path fill="none" stroke="green" stroke-linecap="round" stroke-linejoin="round" stroke-miterlimit="10" stroke-width=".12" d="M273.879 210a2.04 2.04 0 0 1 2.043-2.04 2.038 2.038 0 1 1 0 4.08 2.039 2.039 0 0 1-2.043-2.04zm0 0" id="reuse-88"/>
    <path fill="green" fill-rule="evenodd" d="M273.879 210a2.04 2.04 0 0 1 2.043-2.04 2.038 2.038 0 1 1 0 4.08 2.039 2.039 0 0 1-2.043-2.04" id="reuse-87"/>
    <path fill="none" stroke="#000" stroke-linecap="square" stroke-linejoin="bevel" stroke-miterlimit="10" stroke-width=".06" d="M318.04 210a1.02 1.02 0 1 1 2.04.001 1.02 1.02 0 0 1-2.04-.001zm0 0" id="reuse-86"/>
    <path fill="#fff" fill-rule="evenodd" d="M318.04 210a1.02 1.02 0 1 1 2.04.001 1.02 1.02 0 0 1-2.04-.001" id="reuse-85"/>
    <path fill="none" stroke="green" stroke-linecap="round" stroke-linejoin="round" stroke-miterlimit="10" stroke-width=".12" d="M317.32 210c0-.93.778-1.68 1.739-1.68.96 0 1.742.75 1.742 1.68 0 .93-.781 1.68-1.742 1.68s-1.739-.75-1.739-1.68zm0 0" id="reuse-84"/>
    <path fill="green" fill-rule="evenodd" d="M317.32 210c0-.93.778-1.68 1.739-1.68.96 0 1.742.75 1.742 1.68 0 .93-.781 1.68-1.742 1.68s-1.739-.75-1.739-1.68" id="reuse-83"/>
    <path fill="none" stroke="#000" stroke-linecap="square" stroke-linejoin="bevel" stroke-miterlimit="10" stroke-width=".06" d="M318.04 231.602a1.02 1.02 0 0 1 1.019-1.024 1.021 1.021 0 0 1 0 2.043 1.02 1.02 0 0 1-1.02-1.02zm0 0" id="reuse-82"/>
    <path fill="#fff" fill-rule="evenodd" d="M318.04 231.602a1.02 1.02 0 0 1 1.019-1.024 1.021 1.021 0 0 1 0 2.043 1.02 1.02 0 0 1-1.02-1.02" id="reuse-81"/>
    <path fill="none" stroke="green" stroke-linecap="round" stroke-linejoin="round" stroke-miterlimit="10" stroke-width=".12" d="M317.32 231.602c0-.93.778-1.68 1.739-1.68.96 0 1.742.75 1.742 1.68 0 .925-.781 1.68-1.742 1.68s-1.739-.755-1.739-1.68zm0 0" id="reuse-80"/>
    <path fill="green" fill-rule="evenodd" d="M317.32 231.602c0-.93.778-1.68 1.739-1.68.96 0 1.742.75 1.742 1.68 0 .925-.781 1.68-1.742 1.68s-1.739-.755-1.739-1.68" id="reuse-79"/>
    <path fill="none" stroke="#000" stroke-linecap="square" stroke-linejoin="bevel" stroke-miterlimit="10" stroke-width=".06" d="M303.52 231.602a1.14 1.14 0 1 1 2.278-.003 1.14 1.14 0 0 1-2.278.003zm0 0" id="reuse-78"/>
    <path fill="#fff" fill-rule="evenodd" d="M303.52 231.602a1.14 1.14 0 1 1 2.278-.003 1.14 1.14 0 0 1-2.278.003" id="reuse-77"/>
    <path fill="none" stroke="green" stroke-linecap="round" stroke-linejoin="round" stroke-miterlimit="10" stroke-width=".12" d="M302.8 231.602c0-1.028.833-1.864 1.86-1.864a1.862 1.862 0 0 1 0 3.723 1.859 1.859 0 0 1-1.86-1.86zm0 0" id="reuse-76"/>
    <path fill="green" fill-rule="evenodd" d="M302.8 231.602c0-1.028.833-1.864 1.86-1.864a1.862 1.862 0 0 1 0 3.723 1.859 1.859 0 0 1-1.86-1.86" id="reuse-75"/>
    <path fill="none" stroke="#000" stroke-linecap="square" stroke-linejoin="bevel" stroke-miterlimit="10" stroke-width=".06" d="M274.781 231.602c0-.633.508-1.141 1.14-1.141.63 0 1.138.508 1.138 1.14 0 .63-.508 1.137-1.137 1.137-.633 0-1.14-.508-1.14-1.136zm0 0" id="reuse-74"/>
    <path fill="#fff" fill-rule="evenodd" d="M274.781 231.602c0-.633.508-1.141 1.14-1.141.63 0 1.138.508 1.138 1.14 0 .63-.508 1.137-1.137 1.137-.633 0-1.14-.508-1.14-1.136" id="reuse-73"/>
    <path fill="none" stroke="green" stroke-linecap="round" stroke-linejoin="round" stroke-miterlimit="10" stroke-width=".12" d="M274.059 231.602c0-1.028.836-1.864 1.863-1.864a1.861 1.861 0 1 1-1.863 1.863zm0 0" id="reuse-72"/>
    <path fill="green" fill-rule="evenodd" d="M274.059 231.602c0-1.028.836-1.864 1.863-1.864a1.861 1.861 0 1 1-1.863 1.863" id="reuse-71"/>
    <path fill="none" stroke="#000" stroke-linecap="square" stroke-linejoin="bevel" stroke-miterlimit="10" stroke-width=".06" d="M274.781 224.398c0-.628.508-1.136 1.14-1.136.63 0 1.138.508 1.138 1.136 0 .633-.508 1.141-1.137 1.141-.633 0-1.14-.508-1.14-1.14zm0 0" id="reuse-70"/>
    <path fill="#fff" fill-rule="evenodd" d="M274.781 224.398c0-.628.508-1.136 1.14-1.136.63 0 1.138.508 1.138 1.136 0 .633-.508 1.141-1.137 1.141-.633 0-1.14-.508-1.14-1.14" id="reuse-69"/>
    <path fill="none" stroke="green" stroke-linecap="round" stroke-linejoin="round" stroke-miterlimit="10" stroke-width=".12" d="M274.059 224.398a1.862 1.862 0 0 1 3.722 0 1.865 1.865 0 0 1-1.86 1.864 1.865 1.865 0 0 1-1.862-1.864zm0 0" id="reuse-68"/>
    <path fill="green" fill-rule="evenodd" d="M274.059 224.398a1.862 1.862 0 0 1 3.722 0 1.865 1.865 0 0 1-1.86 1.864 1.865 1.865 0 0 1-1.862-1.864" id="reuse-67"/>
    <path fill="none" stroke="#000" stroke-linecap="square" stroke-linejoin="bevel" stroke-miterlimit="10" stroke-width=".06" d="M303.52 224.398c0-.628.511-1.136 1.14-1.136a1.139 1.139 0 1 1 0 2.277 1.14 1.14 0 0 1-1.14-1.14zm0 0" id="reuse-66"/>
    <path fill="#fff" fill-rule="evenodd" d="M303.52 224.398c0-.628.511-1.136 1.14-1.136a1.139 1.139 0 1 1 0 2.277 1.14 1.14 0 0 1-1.14-1.14" id="reuse-65"/>
    <path fill="none" stroke="green" stroke-linecap="round" stroke-linejoin="round" stroke-miterlimit="10" stroke-width=".12" d="M302.8 224.398a1.859 1.859 0 1 1 3.72 0 1.862 1.862 0 0 1-1.86 1.864 1.862 1.862 0 0 1-1.86-1.864zm0 0" id="reuse-64"/>
    <path fill="green" fill-rule="evenodd" d="M302.8 224.398a1.859 1.859 0 1 1 3.72 0 1.862 1.862 0 0 1-1.86 1.864 1.862 1.862 0 0 1-1.86-1.864" id="reuse-63"/>
    <path fill="none" stroke="#000" stroke-linecap="square" stroke-linejoin="bevel" stroke-miterlimit="10" stroke-width=".06" d="M303.52 217.2a1.141 1.141 0 1 1 2.282.002 1.141 1.141 0 0 1-2.282-.003zm0 0" id="reuse-62"/>
    <path fill="#fff" fill-rule="evenodd" d="M303.52 217.2a1.141 1.141 0 1 1 2.282.002 1.141 1.141 0 0 1-2.282-.003" id="reuse-61"/>
    <path fill="none" stroke="green" stroke-linecap="round" stroke-linejoin="round" stroke-miterlimit="10" stroke-width=".12" d="M302.8 217.2a1.859 1.859 0 1 1 3.718-.002 1.859 1.859 0 0 1-3.717.001zm0 0" id="reuse-60"/>
    <path fill="green" fill-rule="evenodd" d="M302.8 217.2a1.859 1.859 0 1 1 3.718-.002 1.859 1.859 0 0 1-3.717.001" id="reuse-59"/>
    <path fill="none" stroke="#000" stroke-linecap="square" stroke-linejoin="bevel" stroke-miterlimit="10" stroke-width=".06" d="M274.781 217.2a1.14 1.14 0 1 1 2.28-.003 1.14 1.14 0 0 1-2.28.002zm0 0" id="reuse-58"/>
    <path fill="#fff" fill-rule="evenodd" d="M274.781 217.2a1.14 1.14 0 1 1 2.28-.003 1.14 1.14 0 0 1-2.28.002" id="reuse-57"/>
    <path fill="none" stroke="green" stroke-linecap="round" stroke-linejoin="round" stroke-miterlimit="10" stroke-width=".12" d="M274.059 217.2a1.862 1.862 0 0 1 3.722 0 1.861 1.861 0 0 1-3.722 0zm0 0" id="reuse-56"/>
    <path fill="green" fill-rule="evenodd" d="M274.059 217.2a1.862 1.862 0 0 1 3.722 0 1.861 1.861 0 0 1-3.722 0" id="reuse-55"/>
    <path fill="none" stroke="#000" stroke-linecap="square" stroke-linejoin="bevel" stroke-miterlimit="10" stroke-width=".06" d="M310.719 202.86a1.141 1.141 0 1 1 2.282 0 1.141 1.141 0 0 1-2.282 0zm0 0" id="reuse-54"/>
    <path fill="#fff" fill-rule="evenodd" d="M310.719 202.86a1.141 1.141 0 1 1 2.282 0 1.141 1.141 0 0 1-2.282 0" id="reuse-53"/>
    <path fill="none" stroke="green" stroke-linecap="round" stroke-linejoin="round" stroke-miterlimit="10" stroke-width=".12" d="M310 202.86a1.859 1.859 0 1 1 3.718-.002 1.859 1.859 0 0 1-3.718.001zm0 0" id="reuse-52"/>
    <path fill="green" fill-rule="evenodd" d="M310 202.86a1.859 1.859 0 1 1 3.718-.002 1.859 1.859 0 0 1-3.718.001" id="reuse-51"/>
    <path fill="none" stroke="#000" stroke-linecap="square" stroke-linejoin="bevel" stroke-miterlimit="10" stroke-width=".06" d="M281.98 202.86a1.14 1.14 0 1 1 2.282 0 1.14 1.14 0 1 1-2.281 0zm0 0" id="reuse-50"/>
    <path fill="#fff" fill-rule="evenodd" d="M281.98 202.86a1.14 1.14 0 1 1 2.282 0 1.14 1.14 0 1 1-2.281 0" id="reuse-49"/>
    <path fill="none" stroke="green" stroke-linecap="round" stroke-linejoin="round" stroke-miterlimit="10" stroke-width=".12" d="M281.262 202.86a1.859 1.859 0 1 1 3.717-.002 1.859 1.859 0 0 1-3.717.001zm0 0" id="reuse-48"/>
    <path fill="green" fill-rule="evenodd" d="M281.262 202.86a1.859 1.859 0 1 1 3.717-.002 1.859 1.859 0 0 1-3.717.001" id="reuse-47"/>
    <path fill="none" stroke="#000" stroke-linecap="square" stroke-linejoin="bevel" stroke-miterlimit="10" stroke-width=".06" d="M267.7 202.86a1.02 1.02 0 1 1 2.04 0 1.02 1.02 0 0 1-2.04 0zm0 0" id="reuse-46"/>
    <path fill="#fff" fill-rule="evenodd" d="M267.7 202.86a1.02 1.02 0 1 1 2.04 0 1.02 1.02 0 0 1-2.04 0" id="reuse-45"/>
    <path fill="none" stroke="green" stroke-linecap="round" stroke-linejoin="round" stroke-miterlimit="10" stroke-width=".12" d="M266.98 202.86c0-.926.778-1.68 1.739-1.68.96 0 1.742.754 1.742 1.68 0 .93-.781 1.68-1.742 1.68s-1.739-.75-1.739-1.68zm0 0" id="reuse-44"/>
    <path fill="green" fill-rule="evenodd" d="M266.98 202.86c0-.926.778-1.68 1.739-1.68.96 0 1.742.754 1.742 1.68 0 .93-.781 1.68-1.742 1.68s-1.739-.75-1.739-1.68" id="reuse-43"/>
    <path fill="none" stroke="#000" stroke-linecap="square" stroke-linejoin="bevel" stroke-miterlimit="10" stroke-width=".06" d="M267.7 231.602a1.02 1.02 0 0 1 1.019-1.024 1.021 1.021 0 0 1 0 2.043 1.02 1.02 0 0 1-1.02-1.02zm0 0" id="reuse-42"/>
    <path fill="#fff" fill-rule="evenodd" d="M267.7 231.602a1.02 1.02 0 0 1 1.019-1.024 1.021 1.021 0 0 1 0 2.043 1.02 1.02 0 0 1-1.02-1.02" id="reuse-41"/>
    <path fill="none" stroke="green" stroke-linecap="round" stroke-linejoin="round" stroke-miterlimit="10" stroke-width=".12" d="M266.98 231.602c0-.93.778-1.68 1.739-1.68.96 0 1.742.75 1.742 1.68 0 .925-.781 1.68-1.742 1.68s-1.739-.755-1.739-1.68zm0 0" id="reuse-40"/>
    <path fill="green" fill-rule="evenodd" d="M266.98 231.602c0-.93.778-1.68 1.739-1.68.96 0 1.742.75 1.742 1.68 0 .925-.781 1.68-1.742 1.68s-1.739-.755-1.739-1.68" id="reuse-39"/>
    <path fill="none" stroke="#000" stroke-linecap="square" stroke-linejoin="bevel" stroke-miterlimit="10" stroke-width=".06" d="M324.82 195.66a1.44 1.44 0 1 1 2.881-.002 1.44 1.44 0 0 1-2.88.002zm0 0" id="reuse-38"/>
    <path fill="#fff" fill-rule="evenodd" d="M324.82 195.66a1.44 1.44 0 1 1 2.881-.002 1.44 1.44 0 0 1-2.88.002" id="reuse-37"/>
    <path fill="none" stroke="green" stroke-linecap="round" stroke-linejoin="round" stroke-miterlimit="10" stroke-width=".12" d="M323.738 195.66a2.521 2.521 0 0 1 5.043 0 2.52 2.52 0 0 1-5.043 0zm0 0" id="reuse-36"/>
    <path fill="green" fill-rule="evenodd" d="M323.738 195.66a2.521 2.521 0 0 1 5.043 0 2.52 2.52 0 0 1-5.043 0" id="reuse-35"/>
    <path fill="none" stroke="#000" stroke-linecap="square" stroke-linejoin="bevel" stroke-miterlimit="10" stroke-width=".06" d="M324.82 188.46a1.44 1.44 0 1 1 2.881-.001 1.44 1.44 0 0 1-2.88.002zm0 0" id="reuse-34"/>
    <path fill="#fff" fill-rule="evenodd" d="M324.82 188.46a1.44 1.44 0 1 1 2.881-.001 1.44 1.44 0 0 1-2.88.002" id="reuse-33"/>
    <path fill="none" stroke="green" stroke-linecap="round" stroke-linejoin="round" stroke-miterlimit="10" stroke-width=".12" d="M323.738 188.46a2.519 2.519 0 0 1 2.524-2.519 2.52 2.52 0 1 1-2.523 2.52zm0 0" id="reuse-32"/>
    <path fill="green" fill-rule="evenodd" d="M323.738 188.46a2.519 2.519 0 0 1 2.524-2.519 2.52 2.52 0 1 1-2.523 2.52" id="reuse-31"/>
    <path fill="none" stroke="#000" stroke-linecap="square" stroke-linejoin="bevel" stroke-miterlimit="10" stroke-width=".06" d="M260.078 195.66c0-.797.649-1.441 1.442-1.441a1.44 1.44 0 1 1-1.442 1.441zm0 0" id="reuse-30"/>
    <path fill="#fff" fill-rule="evenodd" d="M260.078 195.66c0-.797.649-1.441 1.442-1.441a1.44 1.44 0 1 1-1.442 1.441" id="reuse-29"/>
    <path fill="none" stroke="green" stroke-linecap="round" stroke-linejoin="round" stroke-miterlimit="10" stroke-width=".12" d="M259 195.66a2.52 2.52 0 0 1 5.04 0 2.52 2.52 0 0 1-5.04 0zm0 0" id="reuse-28"/>
    <path fill="green" fill-rule="evenodd" d="M259 195.66a2.52 2.52 0 0 1 5.04 0 2.52 2.52 0 0 1-5.04 0" id="reuse-27"/>
    <path fill="none" stroke="#000" stroke-linecap="square" stroke-linejoin="bevel" stroke-miterlimit="10" stroke-width=".06" d="M260.078 188.46c0-.796.649-1.44 1.442-1.44a1.44 1.44 0 1 1-1.442 1.44zm0 0" id="reuse-26"/>
    <path fill="#fff" fill-rule="evenodd" d="M260.078 188.46c0-.796.649-1.44 1.442-1.44a1.44 1.44 0 1 1-1.442 1.44" id="reuse-25"/>
    <path fill="none" stroke="green" stroke-linecap="round" stroke-linejoin="round" stroke-miterlimit="10" stroke-width=".12" d="M259 188.46a2.518 2.518 0 0 1 2.52-2.519 2.52 2.52 0 1 1-2.52 2.52zm0 0" id="reuse-24"/>
    <path fill="green" fill-rule="evenodd" d="M259 188.46a2.518 2.518 0 0 1 2.52-2.519 2.52 2.52 0 1 1-2.52 2.52" id="reuse-23"/>
    <path fill="none" stroke="#000" stroke-linecap="square" stroke-linejoin="bevel" stroke-miterlimit="10" stroke-width=".06" d="M282.102 188.46a1.02 1.02 0 1 1 2.04.002 1.02 1.02 0 0 1-2.04-.001zm0 0" id="reuse-22"/>
    <path fill="#fff" fill-rule="evenodd" d="M282.102 188.46a1.02 1.02 0 1 1 2.04.002 1.02 1.02 0 0 1-2.04-.001" id="reuse-21"/>
    <path fill="none" stroke="green" stroke-linecap="round" stroke-linejoin="round" stroke-miterlimit="10" stroke-width=".12" d="M281.078 188.46c0-1.128.914-2.038 2.043-2.038a2.038 2.038 0 1 1 0 4.078 2.041 2.041 0 0 1-2.043-2.04zm0 0" id="reuse-20"/>
    <path fill="green" fill-rule="evenodd" d="M281.078 188.46c0-1.128.914-2.038 2.043-2.038a2.038 2.038 0 1 1 0 4.078 2.041 2.041 0 0 1-2.043-2.04" id="reuse-19"/>
    <path fill="none" stroke="#000" stroke-linecap="square" stroke-linejoin="bevel" stroke-miterlimit="10" stroke-width=".06" d="M282.102 195.66a1.02 1.02 0 1 1 2.04.002 1.02 1.02 0 0 1-2.04-.002zm0 0" id="reuse-18"/>
    <path fill="#fff" fill-rule="evenodd" d="M282.102 195.66a1.02 1.02 0 1 1 2.04.002 1.02 1.02 0 0 1-2.04-.002" id="reuse-17"/>
    <path fill="none" stroke="green" stroke-linecap="round" stroke-linejoin="round" stroke-miterlimit="10" stroke-width=".12" d="M281.078 195.66c0-1.129.914-2.039 2.043-2.039a2.038 2.038 0 1 1 0 4.078 2.041 2.041 0 0 1-2.043-2.039zm0 0" id="reuse-16"/>
    <path fill="green" fill-rule="evenodd" d="M281.078 195.66c0-1.129.914-2.039 2.043-2.039a2.038 2.038 0 1 1 0 4.078 2.041 2.041 0 0 1-2.043-2.039" id="reuse-15"/>
    <path fill="none" stroke="#000" stroke-linecap="square" stroke-linejoin="bevel" stroke-miterlimit="10" stroke-width=".06" d="M318.04 202.86a1.02 1.02 0 1 1 2.04 0 1.02 1.02 0 0 1-2.04 0zm0 0" id="reuse-14"/>
    <path fill="#fff" fill-rule="evenodd" d="M318.04 202.86a1.02 1.02 0 1 1 2.04 0 1.02 1.02 0 0 1-2.04 0" id="reuse-13"/>
    <path fill="green" stroke="green" stroke-linecap="round" stroke-linejoin="round" stroke-miterlimit="10" stroke-width=".12" d="M320.86 201.18h-3.481v3.36h3.48zm0 0" id="reuse-12"/>
    <path fill="none" stroke="#000" stroke-linecap="square" stroke-linejoin="bevel" stroke-miterlimit="10" stroke-width=".06" d="M318.04 195.66a1.02 1.02 0 1 1 2.04.002 1.02 1.02 0 0 1-2.04-.002zm0 0" id="reuse-11"/>
    <path fill="#fff" fill-rule="evenodd" d="M318.04 195.66a1.02 1.02 0 1 1 2.04.002 1.02 1.02 0 0 1-2.04-.002" id="reuse-10"/>
    <path fill="none" stroke="green" stroke-linecap="round" stroke-linejoin="round" stroke-miterlimit="10" stroke-width=".12" d="M317.32 195.66c0-.93.778-1.68 1.739-1.68.96 0 1.742.75 1.742 1.68 0 .93-.781 1.68-1.742 1.68s-1.739-.75-1.739-1.68zm0 0" id="reuse-9"/>
    <path fill="green" fill-rule="evenodd" d="M317.32 195.66c0-.93.778-1.68 1.739-1.68.96 0 1.742.75 1.742 1.68 0 .93-.781 1.68-1.742 1.68s-1.739-.75-1.739-1.68" id="reuse-8"/>
    <path fill="none" stroke="#000" stroke-linecap="square" stroke-linejoin="bevel" stroke-miterlimit="10" stroke-width=".06" d="M260.379 224.398c0-.628.512-1.136 1.14-1.136a1.139 1.139 0 1 1 0 2.277 1.14 1.14 0 0 1-1.14-1.14zm0 0" id="reuse-7"/>
    <path fill="#fff" fill-rule="evenodd" d="M260.379 224.398c0-.628.512-1.136 1.14-1.136a1.139 1.139 0 1 1 0 2.277 1.14 1.14 0 0 1-1.14-1.14" id="reuse-6"/>
    <path fill="none" stroke="green" stroke-linecap="round" stroke-linejoin="round" stroke-miterlimit="10" stroke-width=".12" d="M259.66 224.398a1.859 1.859 0 1 1 3.719 0 1.862 1.862 0 0 1-1.86 1.864 1.862 1.862 0 0 1-1.859-1.864zm0 0" id="reuse-5"/>
    <path fill="green" fill-rule="evenodd" d="M259.66 224.398a1.859 1.859 0 1 1 3.719 0 1.862 1.862 0 0 1-1.86 1.864 1.862 1.862 0 0 1-1.859-1.864" id="reuse-4"/>
    <path fill="none" stroke="#000" stroke-linecap="square" stroke-linejoin="bevel" stroke-miterlimit="10" stroke-width=".06" d="M260.379 210a1.141 1.141 0 0 1 2.281 0 1.141 1.141 0 0 1-2.281 0zm0 0" id="reuse-3"/>
    <path fill="#fff" fill-rule="evenodd" d="M260.379 210a1.141 1.141 0 0 1 2.281 0 1.141 1.141 0 0 1-2.281 0" id="reuse-2"/>
    <path fill="none" stroke="green" stroke-linecap="round" stroke-linejoin="round" stroke-miterlimit="10" stroke-width=".12" d="M259.66 210a1.859 1.859 0 1 1 3.718-.001 1.859 1.859 0 0 1-3.718.001zm0 0" id="reuse-1"/>
    <path fill="green" fill-rule="evenodd" d="M259.66 210a1.859 1.859 0 1 1 3.718-.001 1.859 1.859 0 0 1-3.718.001" id="reuse-0"/>
  </defs>
  <defs>
    <symbol id="OpAmp-Inverting-3Transistor-3_svg__a" overflow="visible">
      <path d="M-1.578.594c0-.043.008-.086.016-.125.011-.043.023-.086.03-.125A.264.264 0 0 0-1.483.25a.369.369 0 0 0 .046-.078V.156h-.234a.817.817 0 0 0-.078.219c-.02.082-.031.164-.031.25 0 .07.008.14.015.203a.648.648 0 0 0 .079.156.6.6 0 0 0 .14.125c.055.02.117.032.188.032.093 0 .18-.032.25-.094A.407.407 0 0 0-.97.813h.016c.012.039.023.082.031.125.024.039.047.082.078.125a.428.428 0 0 0 .125.078.6.6 0 0 0 .203.03.822.822 0 0 0 .22-.03A.668.668 0 0 0 0 .844a.972.972 0 0 0 .031-.25 1.151 1.151 0 0 0-.11-.485h-.233v.016c.03.05.062.117.093.203a.692.692 0 0 1 .032.39.36.36 0 0 1-.188.204.806.806 0 0 1-.156.015.37.37 0 0 1-.156-.03.166.166 0 0 1-.094-.079.258.258 0 0 1-.063-.11v-.25h-.203v.079a.436.436 0 0 1-.078.265.267.267 0 0 1-.328.063.17.17 0 0 1-.078-.063.525.525 0 0 1-.047-.093V.594zm0 0"/>
    </symbol>
    <symbol id="OpAmp-Inverting-3Transistor-3_svg__b" overflow="visible">
      <path d="M0 1.188v-.22h-.922a.419.419 0 0 1-.125-.046.1.1 0 0 1-.062-.063.337.337 0 0 1-.032-.14.38.38 0 0 1 .047-.172c.032-.055.07-.11.11-.172H0V.156h-1.313v.219h.141c-.05.07-.094.14-.125.203a.444.444 0 0 0-.047.203.38.38 0 0 0 .125.297.55.55 0 0 0 .36.11zm0 0"/>
    </symbol>
    <symbol id="OpAmp-Inverting-3Transistor-3_svg__c" overflow="visible"/>
    <symbol id="OpAmp-Inverting-3Transistor-3_svg__K" overflow="visible">
      <path d="M.031.86A.796.796 0 0 0-.03.546a.536.536 0 0 0-.172-.25A.582.582 0 0 0-.484.14 1.093 1.093 0 0 0-.875.078c-.145 0-.27.02-.375.063a.749.749 0 0 0-.297.156.863.863 0 0 0-.172.25.796.796 0 0 0-.062.312c0 .063.008.118.015.172.012.051.024.098.032.14.011.04.027.079.046.11a1 1 0 0 0 .047.125h.282v-.015a.245.245 0 0 0-.063-.079 3.996 3.996 0 0 1-.078-.125c-.02-.042-.04-.09-.063-.14a1.296 1.296 0 0 1-.015-.188c0-.074.016-.14.047-.203A.584.584 0 0 1-1.406.47a.936.936 0 0 1 .234-.11.861.861 0 0 1 .297-.046c.125 0 .23.015.313.046.085.032.156.07.218.125.063.04.106.098.125.172A.444.444 0 0 1-.172.86c0 .07-.004.133-.016.188a.865.865 0 0 1-.062.156c-.031.04-.055.078-.078.11a.318.318 0 0 0-.063.078v.015h.266c.023-.043.043-.078.063-.11l.046-.124c.012-.055.02-.102.032-.14A.957.957 0 0 0 .03.858zm0 0"/>
    </symbol>
    <symbol id="OpAmp-Inverting-3Transistor-3_svg__L" overflow="visible">
      <path d="M0 1.203V.125h-.25a3.918 3.918 0 0 1-.422.422 2.747 2.747 0 0 1-.344.281.732.732 0 0 1-.28.063.712.712 0 0 1-.126-.016 1.302 1.302 0 0 0-.094-.063.525.525 0 0 1-.046-.093C-1.57.676-1.579.633-1.579.594c0-.043.008-.086.016-.125.011-.043.023-.086.03-.125a.264.264 0 0 0 .05-.094.369.369 0 0 0 .046-.078h-.25c-.019.039-.039.11-.062.203a1.02 1.02 0 0 0-.031.234.58.58 0 0 0 .125.391.46.46 0 0 0 .36.14.629.629 0 0 0 .187-.03.486.486 0 0 0 .156-.063A1.578 1.578 0 0 0-.656.813a2.68 2.68 0 0 0 .25-.25c.086-.094.152-.168.203-.22v.86zm0 0"/>
    </symbol>
    <symbol id="OpAmp-Inverting-3Transistor-3_svg__d" overflow="visible">
      <path d="M.813 2.125c-.063 0-.122-.008-.172-.016l-.172-.062a2.172 2.172 0 0 1-.234-.125H.218v.328a1 1 0 0 0 .281.11 1.232 1.232 0 0 0 .61.015c.081-.031.156-.07.218-.11a.799.799 0 0 0 .156-.187.57.57 0 0 0 .047-.25.485.485 0 0 0-.125-.328.486.486 0 0 0-.297-.188v-.03l.157-.048a.602.602 0 0 0 .156-.109.651.651 0 0 0 .11-.172.83.83 0 0 0 0-.547A.774.774 0 0 0 1.125 0a1.039 1.039 0 0 0-.33-.047C.68-.047.567-.03.454 0a.83.83 0 0 0-.297.094v.328h.016A1.06 1.06 0 0 1 .438.297.774.774 0 0 1 .78.219c.064 0 .126.008.19.031a.31.31 0 0 1 .156.11c.05.038.086.093.11.156a.58.58 0 0 1 .03.203.487.487 0 0 1-.046.219.34.34 0 0 1-.094.125.376.376 0 0 1-.156.062 1.65 1.65 0 0 1-.203.016H.64v.265h.093a.57.57 0 0 1 .344.094c.094.07.14.172.14.297a.37.37 0 0 1-.03.156.415.415 0 0 1-.219.156c-.055.008-.106.016-.157.016zm0 0"/>
    </symbol>
    <symbol id="OpAmp-Inverting-3Transistor-3_svg__e" overflow="visible">
      <path d="M.672 0H.297v.453h.375zm0 0"/>
    </symbol>
    <symbol id="OpAmp-Inverting-3Transistor-3_svg__f" overflow="visible">
      <path d="M1.594 0h-.297v.203A1.115 1.115 0 0 0 1.03.016a.674.674 0 0 0-.484-.032.527.527 0 0 0-.188.125.38.38 0 0 0-.109.204.893.893 0 0 0-.047.312v1.14H.5v-1C.5.673.504.595.516.532A.32.32 0 0 1 .562.36.183.183 0 0 1 .656.266.346.346 0 0 1 .828.234c.07 0 .149.02.235.063.082.039.16.094.234.156v1.313h.297zm0 0"/>
    </symbol>
    <symbol id="OpAmp-Inverting-3Transistor-3_svg__g" overflow="visible">
      <path d="M1.64 2.078H.548v-.672h1.047v-.281H.547V0H.234v2.344h1.407zm0 0"/>
    </symbol>
    <symbol id="OpAmp-Inverting-3Transistor-3_svg__F" overflow="visible">
      <path d="M1.828.719a.796.796 0 0 0-.062-.313.724.724 0 0 0-.172-.219 1.144 1.144 0 0 0-.297-.14A1.296 1.296 0 0 0 .907 0H.233v2.344H.86c.164 0 .29-.008.375-.016a.92.92 0 0 0 .25-.078.472.472 0 0 0 .188-.172.634.634 0 0 0 .047-.25.55.55 0 0 0-.078-.297.644.644 0 0 0-.25-.218.707.707 0 0 0 .328-.22.61.61 0 0 0 .11-.374zM1.391 1.78a.738.738 0 0 1-.016.14.27.27 0 0 1-.094.095.534.534 0 0 1-.172.062H.547V1.39h.36c.093 0 .163.004.218.015a.52.52 0 0 1 .14.063c.051.031.087.07.11.125.008.05.016.113.016.187zM1.516.703a.433.433 0 0 1-.047.219c-.024.062-.074.113-.157.156a.676.676 0 0 1-.156.047 2.019 2.019 0 0 1-.25.016h-.36V.266h.266c.133 0 .239.004.313.015.082.02.156.047.219.078A.51.51 0 0 1 1.469.5a.9.9 0 0 1 .047.203zm0 0"/>
    </symbol>
    <symbol id="OpAmp-Inverting-3Transistor-3_svg__G" overflow="visible">
      <path d="M1.156-.047C1-.047.86-.02.734.031a.724.724 0 0 0-.328.235A1.045 1.045 0 0 0 .187.64a1.6 1.6 0 0 0-.078.53c0 .196.024.368.079.516.039.145.109.274.203.391.093.102.207.18.343.235.125.05.266.078.422.078.082 0 .16-.008.235-.016.062-.012.125-.027.187-.047a1.36 1.36 0 0 0 .156-.047l.157-.094v-.374h-.032a.388.388 0 0 1-.109.093.69.69 0 0 1-.156.11 1.041 1.041 0 0 1-.188.078.972.972 0 0 1-.25.031.702.702 0 0 1-.516-.234.738.738 0 0 1-.156-.313 1.168 1.168 0 0 1-.062-.406c0-.156.02-.293.062-.406A.815.815 0 0 1 .641.469.655.655 0 0 1 .875.28a.885.885 0 0 1 .281-.047c.094 0 .176.008.25.032a.76.76 0 0 1 .203.078.586.586 0 0 1 .157.11 1 1 0 0 1 .093.077h.032V.156A2.829 2.829 0 0 1 1.75.094 1.758 1.758 0 0 0 1.578.03a1.16 1.16 0 0 0-.187-.062 1.847 1.847 0 0 0-.235-.016zm0 0"/>
    </symbol>
    <symbol id="OpAmp-Inverting-3Transistor-3_svg__H" overflow="visible">
      <path d="M1.594.75a.973.973 0 0 0-.047-.313.74.74 0 0 0-.156-.25.61.61 0 0 0-.25-.171.847.847 0 0 0-.329-.063c-.117 0-.226.012-.328.031-.117.032-.21.063-.28.094v.344h.015a.25.25 0 0 1 .11-.063.795.795 0 0 1 .14-.062A.813.813 0 0 1 .64.25.409.409 0 0 1 .812.219c.063 0 .125.015.188.047a.31.31 0 0 1 .156.109c.04.04.07.094.094.156a.72.72 0 0 1 0 .422.967.967 0 0 1-.11.14.648.648 0 0 1-.156.079.917.917 0 0 1-.234.031c-.086 0-.168-.012-.25-.031C.414 1.16.348 1.148.297 1.14v1.203h1.281v-.266H.594v-.625h.11a.32.32 0 0 1 .109.016c.113 0 .21-.012.296-.032a.788.788 0 0 0 .25-.125.573.573 0 0 0 .172-.218c.04-.086.063-.2.063-.344zm0 0"/>
    </symbol>
    <symbol id="OpAmp-Inverting-3Transistor-3_svg__I" overflow="visible">
      <path d="M1.688.813h-.282V0H1.11v.813H.063v.328l1.046 1.203h.297V1.063h.282zm-.579.25v.921l-.796-.921zm0 0"/>
    </symbol>
    <symbol id="OpAmp-Inverting-3Transistor-3_svg__J" overflow="visible">
      <path d="M1.656 2L.625 0H.297l1.078 2.078H.156v.266h1.5zm0 0"/>
    </symbol>
    <symbol id="OpAmp-Inverting-3Transistor-3_svg__S" overflow="visible">
      <path d="M.781 0v2.078H0v.266h1.89v-.266h-.796V0zm0 0"/>
    </symbol>
    <symbol id="OpAmp-Inverting-3Transistor-3_svg__T" overflow="visible">
      <path d="M1.5 0H.36v.234h.42v1.579H.36v.218c.157 0 .274.02.36.063.07.05.113.14.125.265h.25V.234H1.5zm0 0"/>
    </symbol>
    <symbol id="OpAmp-Inverting-3Transistor-3_svg__aa" overflow="visible">
      <path d="M1.719 1.64a.782.782 0 0 0-.047-.28.793.793 0 0 0-.438-.423A1.231 1.231 0 0 0 .813.875H.546V0H.234v2.344h.594c.133 0 .254-.012.36-.031a.777.777 0 0 0 .469-.328.9.9 0 0 0 .062-.344zm-.328 0a.69.69 0 0 1-.032.204.491.491 0 0 1-.125.156.534.534 0 0 1-.171.063 2.314 2.314 0 0 1-.25.015H.546v-.937h.219c.125 0 .226.007.312.03.07.02.133.056.188.11.039.051.07.102.093.157.02.05.032.117.032.203zm0 0"/>
    </symbol>
    <symbol id="OpAmp-Inverting-3Transistor-3_svg__ab" overflow="visible">
      <path d="M2.875 2.344L2.281 0h-.344l-.484 1.953L.984 0H.641L.047 2.344h.312L.83.39l.484 1.953h.312L2.094.375l.469 1.969zm0 0"/>
    </symbol>
    <symbol id="OpAmp-Inverting-3Transistor-3_svg__ac" overflow="visible">
      <path d="M2.063 0h-.407l-.75.938h-.36V0H.235v2.344h.61c.133 0 .25-.008.344-.016a.68.68 0 0 0 .25-.094.897.897 0 0 0 .203-.218.706.706 0 0 0 .062-.297.726.726 0 0 0-.125-.438.791.791 0 0 0-.36-.265zM1.39 1.688c-.012.07-.028.132-.047.187a.281.281 0 0 1-.11.125.376.376 0 0 1-.156.063 1.74 1.74 0 0 1-.219.015H.547v-.875h.281c.082 0 .16.004.235.016.07.02.132.05.187.093.04.04.078.094.11.157.007.062.019.133.03.218zm0 0"/>
    </symbol>
    <symbol id="OpAmp-Inverting-3Transistor-3_svg__h" overflow="visible">
      <path d="M0 1.734V.094h-.297l-1.781 1.265V.156h-.266v1.547h.281L-.28.437v1.297zm0 0"/>
    </symbol>
    <symbol id="OpAmp-Inverting-3Transistor-3_svg__i" overflow="visible"/>
    <symbol id="OpAmp-Inverting-3Transistor-3_svg__j" overflow="visible">
      <path d="M-2.125.813c0-.063.008-.122.016-.172l.062-.172a2.172 2.172 0 0 1 .125-.234V.218h-.328A1 1 0 0 0-2.36.5a1.232 1.232 0 0 0-.015.61c.031.081.07.156.11.218a.799.799 0 0 0 .187.156.57.57 0 0 0 .25.047.485.485 0 0 0 .328-.125.486.486 0 0 0 .188-.297h.03l.048.157c.023.05.058.101.109.156a.68.68 0 0 0 .172.11.83.83 0 0 0 .547 0A.774.774 0 0 0 0 1.125a1.06 1.06 0 0 0 .047-.33C.047.68.03.567 0 .454A.83.83 0 0 0-.094.156h-.328v.016c.043.062.086.148.125.266A.774.774 0 0 1-.219.78.525.525 0 0 1-.25.97a.31.31 0 0 1-.11.156.345.345 0 0 1-.156.11.568.568 0 0 1-.203.03.487.487 0 0 1-.219-.046.34.34 0 0 1-.125-.094.376.376 0 0 1-.062-.156 1.65 1.65 0 0 1-.016-.203V.64h-.265v.093a.57.57 0 0 1-.094.344.353.353 0 0 1-.297.14.37.37 0 0 1-.156-.03.415.415 0 0 1-.156-.219c-.008-.055-.016-.106-.016-.157zm0 0"/>
    </symbol>
    <symbol id="OpAmp-Inverting-3Transistor-3_svg__k" overflow="visible">
      <path d="M0 .672V.297h-.453v.375zm0 0"/>
    </symbol>
    <symbol id="OpAmp-Inverting-3Transistor-3_svg__l" overflow="visible"/>
    <symbol id="OpAmp-Inverting-3Transistor-3_svg__A" overflow="visible">
      <path d="M-.719 1.828a.796.796 0 0 0 .313-.062.724.724 0 0 0 .219-.172c.062-.094.109-.196.14-.297.031-.094.047-.227.047-.39V.233h-2.344V.86c0 .164.008.29.016.375a.92.92 0 0 0 .078.25.472.472 0 0 0 .172.188.634.634 0 0 0 .25.047.55.55 0 0 0 .297-.078.644.644 0 0 0 .218-.25.707.707 0 0 0 .22.328.61.61 0 0 0 .374.11zm-1.062-.437a.774.774 0 0 1-.14-.016.27.27 0 0 1-.095-.094.534.534 0 0 1-.062-.172V.547h.687v.36c0 .093-.004.163-.015.218a.52.52 0 0 1-.063.14.262.262 0 0 1-.125.11c-.05.008-.113.016-.187.016zm1.078.125a.433.433 0 0 1-.219-.047c-.062-.024-.113-.074-.156-.157a.676.676 0 0 1-.047-.156 2.019 2.019 0 0 1-.016-.25v-.36h.875v.266c0 .133-.004.239-.015.313-.02.082-.047.156-.078.219a.477.477 0 0 1-.141.125.924.924 0 0 1-.203.047zm0 0"/>
    </symbol>
    <symbol id="OpAmp-Inverting-3Transistor-3_svg__B" overflow="visible">
      <path d="M.047 1.156C.047 1 .02.86-.031.734A.724.724 0 0 0-.266.406 1.045 1.045 0 0 0-.64.187 1.6 1.6 0 0 0-1.17.11a1.48 1.48 0 0 0-.516.079 1.06 1.06 0 0 0-.391.203.928.928 0 0 0-.235.343c-.05.125-.078.266-.078.422 0 .082.008.16.016.235.012.062.027.125.047.187.012.05.027.102.047.156l.094.157h.374V1.86a.388.388 0 0 1-.093-.109.69.69 0 0 1-.11-.156 1.041 1.041 0 0 1-.078-.188.972.972 0 0 1-.031-.25.702.702 0 0 1 .234-.516.738.738 0 0 1 .313-.156c.117-.043.25-.062.406-.062.156 0 .293.02.406.062a.82.82 0 0 1 .297.157c.086.07.149.148.188.234a.885.885 0 0 1 .047.281.827.827 0 0 1-.032.25.76.76 0 0 1-.078.203.586.586 0 0 1-.11.157 1 1 0 0 1-.077.093v.032h.375c.023-.055.043-.102.062-.141.024-.055.043-.11.063-.172a1.16 1.16 0 0 0 .062-.187c.008-.063.016-.141.016-.235zm0 0"/>
    </symbol>
    <symbol id="OpAmp-Inverting-3Transistor-3_svg__C" overflow="visible">
      <path d="M-.75 1.594a.973.973 0 0 0 .313-.047.74.74 0 0 0 .25-.156.61.61 0 0 0 .171-.25.847.847 0 0 0 .063-.329A1.8 1.8 0 0 0 .016.484a1.954 1.954 0 0 0-.094-.28h-.344v.015a.25.25 0 0 1 .063.11.74.74 0 0 1 .062.14.73.73 0 0 1 .047.172.41.41 0 0 1 .031.171A.416.416 0 0 1-.266 1a.31.31 0 0 1-.109.156.438.438 0 0 1-.156.094.72.72 0 0 1-.422 0 .967.967 0 0 1-.14-.11.648.648 0 0 1-.079-.156.917.917 0 0 1-.031-.234c0-.086.012-.168.031-.25.012-.086.024-.152.031-.203h-1.203v1.281h.266V.594h.625v.11a.32.32 0 0 1-.016.109c0 .113.012.21.032.296a.788.788 0 0 0 .125.25c.054.07.125.13.218.172.086.04.2.063.344.063zm0 0"/>
    </symbol>
    <symbol id="OpAmp-Inverting-3Transistor-3_svg__D" overflow="visible"/>
    <symbol id="OpAmp-Inverting-3Transistor-3_svg__E" overflow="visible"/>
    <symbol id="OpAmp-Inverting-3Transistor-3_svg__M" overflow="visible"/>
    <symbol id="OpAmp-Inverting-3Transistor-3_svg__N" overflow="visible">
      <path d="M0 1.5V.36h-.234v.42h-1.579V.36h-.218c0 .157-.02.274-.063.36-.05.07-.14.113-.265.125v.25h2.125V1.5zm0 0"/>
    </symbol>
    <symbol id="OpAmp-Inverting-3Transistor-3_svg__U" overflow="visible">
      <path d="M0 .781h-2.078V0h-.266v1.89h.266v-.796H0zm0 0"/>
    </symbol>
    <symbol id="OpAmp-Inverting-3Transistor-3_svg__V" overflow="visible">
      <path d="M0 1.625V.172h-.328A9.33 9.33 0 0 0-.61.469c-.094.094-.188.18-.282.265a3.248 3.248 0 0 1-.484.375.737.737 0 0 1-.36.094.428.428 0 0 1-.297-.11.814.814 0 0 1-.077-.14.841.841 0 0 1-.016-.156c0-.055.008-.11.016-.172.023-.055.043-.105.062-.156a.342.342 0 0 1 .063-.125 2.76 2.76 0 0 1 .062-.11V.22h-.344a1.453 1.453 0 0 0-.092.28 1.232 1.232 0 0 0-.047.328c0 .219.058.39.172.516a.66.66 0 0 0 .484.187.95.95 0 0 0 .25-.031 2.08 2.08 0 0 0 .219-.094c.062-.043.133-.09.203-.14.074-.055.14-.11.203-.172l.328-.328C-.43.64-.336.539-.266.469v1.156zm0 0"/>
    </symbol>
    <symbol id="OpAmp-Inverting-3Transistor-3_svg__m" overflow="visible">
      <path d="M1.078 1.281v.032c0 .019.004.035.016.046 0 .008.008.016.031.016.008 0 .02-.008.031-.016a.084.084 0 0 0 .016-.046v-.25c0-.032-.008-.055-.016-.063a.044.044 0 0 0-.031-.016.036.036 0 0 0-.031.016c-.012.008-.016.023-.016.047a.313.313 0 0 1-.11.187.39.39 0 0 1-.25.079.336.336 0 0 1-.25-.094C.396 1.164.36 1.102.36 1.03.36.987.368.952.392.92A.249.249 0 0 1 .469.845.264.264 0 0 1 .563.797.462.462 0 0 1 .75.75C.875.727.96.707 1.016.687a.342.342 0 0 0 .156-.125.559.559 0 0 0 .062-.187.38.38 0 0 0-.14-.297.563.563 0 0 0-.36-.11c-.18 0-.32.052-.421.157V.062A.061.061 0 0 0 .296.017C.285.004.273 0 .266 0a.036.036 0 0 0-.032.016C.223.023.22.039.22.062v.282c0 .02.004.035.015.047.008.007.02.015.032.015.007 0 .02-.008.03-.015A.084.084 0 0 0 .314.344C.32.27.362.207.436.156A.436.436 0 0 1 .734.063a.42.42 0 0 1 .282.093c.07.063.109.133.109.219 0 .05-.012.098-.031.14A.34.34 0 0 1 .969.61L.734.656C.566.687.445.726.375.781a.307.307 0 0 0-.11.25c0 .102.04.192.126.266a.49.49 0 0 0 .328.11.574.574 0 0 0 .36-.126zm0 0"/>
    </symbol>
    <symbol id="OpAmp-Inverting-3Transistor-3_svg__n" overflow="visible">
      <path d="M.5.563v-.47h.344A.07.07 0 0 0 .89.079C.898.078.906.066.906.047.906.035.898.023.891.016.879.004.863 0 .844 0H.28C.25 0 .227.004.22.016a.036.036 0 0 0-.016.03c0 .02.004.032.016.032.007.008.03.016.06.016h.125V1.28H.281c-.031 0-.054.004-.062.016-.012 0-.016.008-.016.031 0 .008.004.02.016.031.008.008.031.016.062.016h.563a.51.51 0 0 0 .344-.125.365.365 0 0 0-.016-.563.355.355 0 0 0-.188-.093.366.366 0 0 0-.171-.031zm0 .093h.328c.07 0 .14.02.203.063.063.031.11.066.14.11.032.05.048.097.048.14 0 .082-.04.156-.11.219a.342.342 0 0 1-.25.093H.5zm0 0"/>
    </symbol>
    <symbol id="OpAmp-Inverting-3Transistor-3_svg__o" overflow="visible">
      <path d="M1.047.453H.39L.266.093h.187A.075.075 0 0 0 .5.079C.508.078.516.066.516.047.516.035.508.023.5.016.488.004.473 0 .453 0H.078C.055 0 .04.004.031.016a.036.036 0 0 0-.015.03c0 .02.004.032.015.032a.067.067 0 0 0 .047.016h.078L.594 1.28H.313c-.032 0-.055.004-.063.016-.012 0-.016.008-.016.031 0 .008.004.02.016.031.008.008.031.016.063.016h.484L1.28.094h.078a.08.08 0 0 0 .047-.016c.008 0 .016-.012.016-.031 0-.012-.008-.024-.016-.031C1.395.004 1.38 0 1.36 0H1C.969 0 .945.004.937.016a.036.036 0 0 0-.015.03c0 .02.004.032.015.032C.946.086.97.094 1 .094h.188zm-.031.11l-.282.718h-.03L.437.563zm0 0"/>
    </symbol>
    <symbol id="OpAmp-Inverting-3Transistor-3_svg__p" overflow="visible">
      <path d="M.328.094V1.28H.25c-.023 0-.04.004-.047.016-.012 0-.016.008-.016.031 0 .008.004.02.016.031a.067.067 0 0 0 .047.016h.531c.082 0 .16-.016.235-.047.062-.043.113-.086.156-.125a.813.813 0 0 0 .14-.234.738.738 0 0 0 .032-.219V.625A.763.763 0 0 0 1.28.328a.788.788 0 0 0-.234-.25A.436.436 0 0 0 .78 0H.25C.227 0 .21.004.203.016a.036.036 0 0 0-.016.03c0 .02.004.032.016.032A.067.067 0 0 0 .25.094zm.11 0h.359a.36.36 0 0 1 .234.093.67.67 0 0 1 .157.188c.039.07.062.145.062.219V.78a.47.47 0 0 1-.031.156.919.919 0 0 1-.125.204.693.693 0 0 1-.125.093.335.335 0 0 1-.172.047h-.36zm0 0"/>
    </symbol>
    <symbol id="OpAmp-Inverting-3Transistor-3_svg__q" overflow="visible">
      <path d="M.766.64V.094C.754.082.738.078.719.078a.036.036 0 0 0-.031.016C.675.102.671.117.671.14v.5H.234C.211.64.195.645.187.656.176.656.172.664.172.687c0 .008.004.02.016.032.007.008.023.015.046.015h.438v.5c0 .02.004.036.015.047.008.008.02.016.032.016.02 0 .035-.008.047-.016V.734h.437A.11.11 0 0 0 1.266.72c.007-.012.015-.024.015-.031 0-.024-.008-.032-.015-.032-.012-.011-.032-.015-.063-.015zm0 0"/>
    </symbol>
    <symbol id="OpAmp-Inverting-3Transistor-3_svg__r" overflow="visible">
      <path d="M1.219.75V.61h-1v.14zm0 0"/>
    </symbol>
    <symbol id="OpAmp-Inverting-3Transistor-3_svg__s" overflow="visible">
      <path d="M1.125 0h-.86v.172h.313v1.172H.266v.172a.61.61 0 0 1 .265.046c.051.032.082.094.094.188h.188V.172h.312zm0 0"/>
    </symbol>
    <symbol id="OpAmp-Inverting-3Transistor-3_svg__t" overflow="visible">
      <path d="M1.219.875c0-.313-.047-.543-.14-.688A.463.463 0 0 0 .655-.03a.463.463 0 0 0-.422.218C.141.333.094.564.094.875c0 .313.047.54.14.688a.47.47 0 0 0 .422.218.47.47 0 0 0 .422-.218c.094-.157.14-.387.14-.688zM.922.344c.02.05.035.125.047.219a3.248 3.248 0 0 1 0 .625 1.42 1.42 0 0 1-.047.218.42.42 0 0 1-.11.14.256.256 0 0 1-.156.048.248.248 0 0 1-.156-.047.375.375 0 0 1-.11-.14.862.862 0 0 1-.046-.22V.875a1.379 1.379 0 0 1 0-.313A.827.827 0 0 1 .39.345.234.234 0 0 1 .5.204C.531.171.582.155.656.155a.259.259 0 0 1 .156.048.42.42 0 0 1 .11.14zm0 0"/>
    </symbol>
    <symbol id="OpAmp-Inverting-3Transistor-3_svg__u" overflow="visible">
      <path d="M1.25 0H.953L.47.64.375.548V0H.156v1.828h.219V.766l.531.546h.266L.64.766zm0 0"/>
    </symbol>
    <symbol id="OpAmp-Inverting-3Transistor-3_svg__v" overflow="visible">
      <path d="M1.672 0h-.234v1.5L.984.484h-.14L.39 1.5V0H.17v1.75H.5L.938.781l.421.969h.313zm0 0"/>
    </symbol>
    <symbol id="OpAmp-Inverting-3Transistor-3_svg__w" overflow="visible">
      <path d="M1.234 1.484L.47 0H.22l.797 1.547H.109v.203h1.125zm0 0"/>
    </symbol>
    <symbol id="OpAmp-Inverting-3Transistor-3_svg__x" overflow="visible">
      <path d="M1.188.563A.522.522 0 0 0 1.14.328a.45.45 0 0 0-.11-.187.606.606 0 0 0-.422-.172c-.086 0-.168.008-.25.015A.951.951 0 0 0 .14.063v.25h.015L.234.266a.252.252 0 0 1 .11-.047.33.33 0 0 1 .14-.032A.36.36 0 0 1 .61.172a.67.67 0 0 1 .14.016c.04.019.078.05.11.093a.25.25 0 0 1 .062.11c.02.05.031.109.031.171 0 .063-.012.11-.031.141a.555.555 0 0 1-.078.11.258.258 0 0 1-.11.062 1.13 1.13 0 0 1-.171.016A1.742 1.742 0 0 1 .374.875L.219.844v.906h.953v-.203H.438v-.469H.53a.21.21 0 0 0 .078.016.738.738 0 0 0 .22-.032.549.549 0 0 0 .187-.078.742.742 0 0 0 .125-.171.57.57 0 0 0 .046-.25zm0 0"/>
    </symbol>
    <symbol id="OpAmp-Inverting-3Transistor-3_svg__y" overflow="visible">
      <path d="M.5 0H.219v.328H.5zm0 0"/>
    </symbol>
    <symbol id="OpAmp-Inverting-3Transistor-3_svg__z" overflow="visible">
      <path d="M1.25.61h-.203V0H.813v.61H.046v.234l.781.906h.219V.797h.203zM.812.796v.672L.235.797zm0 0"/>
    </symbol>
    <symbol id="OpAmp-Inverting-3Transistor-3_svg__O" overflow="visible">
      <path d="M1.531 0h-.297L.672.703H.406V0H.172v1.75h.453c.102 0 .188-.008.25-.016a.556.556 0 0 0 .203-.078.412.412 0 0 0 .14-.156.487.487 0 0 0 .048-.219.528.528 0 0 0-.094-.328.534.534 0 0 0-.266-.187zm-.5 1.25c0 .05-.011.098-.031.14a.313.313 0 0 1-.078.094.419.419 0 0 1-.125.047.841.841 0 0 1-.156.016H.406V.89H.61c.07 0 .133.004.188.015.05.008.098.035.14.078a.239.239 0 0 1 .063.11c.02.05.031.101.031.156zm0 0"/>
    </symbol>
    <symbol id="OpAmp-Inverting-3Transistor-3_svg__P" overflow="visible">
      <path d="M1.203 0H.125v.25a3.918 3.918 0 0 1 .422.422c.133.144.226.258.281.344a.71.71 0 0 1 .063.28c0 .04-.008.083-.016.126a1.302 1.302 0 0 0-.063.094.525.525 0 0 1-.093.046.713.713 0 0 1-.125.016.644.644 0 0 1-.125-.016 1.946 1.946 0 0 0-.125-.03.264.264 0 0 0-.094-.048.369.369 0 0 0-.078-.046v.25c.039.019.11.039.203.062.082.02.16.031.234.031A.579.579 0 0 0 1 1.656a.46.46 0 0 0 .14-.36.629.629 0 0 0-.03-.187.486.486 0 0 0-.063-.156A1.578 1.578 0 0 0 .813.656a2.516 2.516 0 0 0-.25-.25C.469.32.394.254.343.203h.86zm0 0"/>
    </symbol>
    <symbol id="OpAmp-Inverting-3Transistor-3_svg__Q" overflow="visible">
      <path d="M.594 1.578a.644.644 0 0 1-.125-.016 1.946 1.946 0 0 0-.125-.03.264.264 0 0 0-.094-.048.369.369 0 0 0-.078-.046H.156v.234a.812.812 0 0 0 .219.078c.082.02.164.031.25.031.07 0 .14-.008.203-.015a.648.648 0 0 0 .156-.079.6.6 0 0 0 .125-.14.554.554 0 0 0 .032-.188.369.369 0 0 0-.094-.25.407.407 0 0 0-.234-.14V.953C.852.941.894.93.938.922c.039-.024.082-.047.125-.078A.428.428 0 0 0 1.14.719a.6.6 0 0 0 .03-.203.822.822 0 0 0-.03-.22A.668.668 0 0 0 .844 0a.972.972 0 0 0-.25-.031 1.151 1.151 0 0 0-.485.11v.233h.016C.175.282.242.25.328.22a.692.692 0 0 1 .39-.032.36.36 0 0 1 .204.188C.93.416.937.47.937.532a.37.37 0 0 1-.03.156.166.166 0 0 1-.079.094.258.258 0 0 1-.11.063h-.25v.203h.079c.101 0 .191.023.265.078a.267.267 0 0 1 .063.328.17.17 0 0 1-.063.078.525.525 0 0 1-.093.047H.594zm0 0"/>
    </symbol>
    <symbol id="OpAmp-Inverting-3Transistor-3_svg__R" overflow="visible">
      <path d="M1.234.563a.692.692 0 0 0-.156-.438A.87.87 0 0 0 .891 0a.738.738 0 0 0-.422 0 .386.386 0 0 0-.172.125.575.575 0 0 0-.14.25 1.023 1.023 0 0 0-.063.39c0 .157.015.297.047.422a.872.872 0 0 0 .156.313.78.78 0 0 0 .234.203c.102.05.223.078.36.078H1c.031-.011.055-.023.078-.031v-.219c-.023.008-.055.02-.094.032-.043.007-.086.015-.125.015a.483.483 0 0 1-.359-.14A.68.68 0 0 1 .344 1c.05.031.11.055.172.078a.35.35 0 0 0 .187.047c.07-.012.133-.023.188-.031a.716.716 0 0 0 .156-.078.539.539 0 0 0 .14-.188.687.687 0 0 0 .047-.265zM1 .563C1 .633.988.69.969.734A.34.34 0 0 1 .875.86a.154.154 0 0 1-.11.047.461.461 0 0 1-.109.016A.806.806 0 0 1 .5.906 1.166 1.166 0 0 1 .344.828V.781C.332.758.332.738.344.72A.613.613 0 0 1 .375.422.47.47 0 0 1 .453.25a1.2 1.2 0 0 1 .11-.078.439.439 0 0 1 .125-.016.27.27 0 0 1 .217.094C.97.32 1 .426 1 .563zm0 0"/>
    </symbol>
    <symbol id="OpAmp-Inverting-3Transistor-3_svg__W" overflow="visible">
      <path d="M.781 0H.11v.172h.22v1.406H.11v.172h.672v-.172h-.22V.172h.22zm0 0"/>
    </symbol>
    <symbol id="OpAmp-Inverting-3Transistor-3_svg__X" overflow="visible">
      <path d="M1.422 0h-.25L.39 1.516V0H.17v1.75H.5L1.219.36v1.39h.203zm0 0"/>
    </symbol>
    <symbol id="OpAmp-Inverting-3Transistor-3_svg__ad" overflow="visible">
      <path d="M1.422 1.547a.732.732 0 0 0 .14-.281 1.2 1.2 0 0 0 .063-.391c0-.148-.016-.277-.047-.39a.869.869 0 0 0-.156-.282.67.67 0 0 0-.25-.187 1.149 1.149 0 0 0-.328-.047A.796.796 0 0 0 .53.03a.536.536 0 0 0-.25.172.802.802 0 0 0-.156.281 1.467 1.467 0 0 0-.047.391c0 .145.016.273.047.39.04.102.094.196.156.282.07.07.156.129.25.172a.847.847 0 0 0 .64 0 .92.92 0 0 0 .25-.172zM1.39.875a3.13 3.13 0 0 1-.047.313.607.607 0 0 1-.11.218.412.412 0 0 1-.156.14.87.87 0 0 1-.219.032.791.791 0 0 1-.234-.031.386.386 0 0 1-.156-.14.502.502 0 0 1-.11-.235.861.861 0 0 1-.046-.297c0-.23.05-.406.156-.531a.468.468 0 0 1 .39-.172c.157 0 .282.055.375.172.094.125.145.3.157.531zm0 0"/>
    </symbol>
    <symbol id="OpAmp-Inverting-3Transistor-3_svg__ae" overflow="visible">
      <path d="M.781-.031A1.12 1.12 0 0 0 .516 0a.586.586 0 0 0-.328.344 1.186 1.186 0 0 0-.032.312V1.75h.235V.656A.95.95 0 0 1 .406.453.29.29 0 0 1 .47.313a.227.227 0 0 1 .125-.11A.351.351 0 0 1 .78.156c.07 0 .14.016.203.047a.24.24 0 0 1 .125.11.33.33 0 0 1 .063.14 1.3 1.3 0 0 1 .016.203V1.75h.234V.656c0-.125-.012-.23-.031-.312A.586.586 0 0 0 1.062 0a1.119 1.119 0 0 0-.28-.031zm0 0"/>
    </symbol>
    <symbol id="OpAmp-Inverting-3Transistor-3_svg__af" overflow="visible">
      <path d="M.594 0v1.547H0v.203h1.406v-.203H.813V0zm0 0"/>
    </symbol>
    <symbol id="OpAmp-Inverting-3Transistor-3_svg__Y" overflow="visible">
      <path d="M1.281 1.094H.171v.36h1.11zm0 0"/>
    </symbol>
    <symbol id="OpAmp-Inverting-3Transistor-3_svg__Z" overflow="visible"/>
  </defs>
  <use x="258.816" y="217.214" fill="#505050" xlink:href="#OpAmp-Inverting-3Transistor-3_svg__a"/>
  <use x="258.816" y="218.534" fill="#505050" xlink:href="#OpAmp-Inverting-3Transistor-3_svg__a"/>
  <use x="258.816" y="219.854" fill="#505050" xlink:href="#OpAmp-Inverting-3Transistor-3_svg__b"/>
  <use x="258.816" y="221.174" fill="#505050" xlink:href="#OpAmp-Inverting-3Transistor-3_svg__c"/>
  <use x="326.309" y="201.035" fill="#505050" xlink:href="#OpAmp-Inverting-3Transistor-3_svg__d"/>
  <use x="328.049" y="201.035" fill="#505050" xlink:href="#OpAmp-Inverting-3Transistor-3_svg__e"/>
  <use x="329.009" y="201.035" fill="#505050" xlink:href="#OpAmp-Inverting-3Transistor-3_svg__d"/>
  <use x="330.749" y="201.035" fill="#505050" xlink:href="#OpAmp-Inverting-3Transistor-3_svg__f"/>
  <use x="332.549" y="201.035" fill="#505050" xlink:href="#OpAmp-Inverting-3Transistor-3_svg__g"/>
  <use x="277.879" y="187.658" fill="#505050" xlink:href="#OpAmp-Inverting-3Transistor-3_svg__h"/>
  <use x="277.879" y="189.458" fill="#505050" xlink:href="#OpAmp-Inverting-3Transistor-3_svg__i"/>
  <use x="277.879" y="191.798" fill="#505050" xlink:href="#OpAmp-Inverting-3Transistor-3_svg__j"/>
  <use x="277.879" y="193.538" fill="#505050" xlink:href="#OpAmp-Inverting-3Transistor-3_svg__k"/>
  <use x="277.879" y="194.498" fill="#505050" xlink:href="#OpAmp-Inverting-3Transistor-3_svg__j"/>
  <use x="277.879" y="196.238" fill="#505050" xlink:href="#OpAmp-Inverting-3Transistor-3_svg__l"/>
  <use x="245.737" y="191.206" fill="#505050" xlink:href="#OpAmp-Inverting-3Transistor-3_svg__m"/>
  <use x="247.177" y="191.206" fill="#505050" xlink:href="#OpAmp-Inverting-3Transistor-3_svg__n"/>
  <use x="248.617" y="191.206" fill="#505050" xlink:href="#OpAmp-Inverting-3Transistor-3_svg__o"/>
  <use x="250.057" y="191.206" fill="#505050" xlink:href="#OpAmp-Inverting-3Transistor-3_svg__p"/>
  <use x="251.497" y="191.206" fill="#505050" xlink:href="#OpAmp-Inverting-3Transistor-3_svg__q"/>
  <use x="252.937" y="191.206" fill="#505050" xlink:href="#OpAmp-Inverting-3Transistor-3_svg__r"/>
  <use x="254.377" y="191.206" fill="#505050" xlink:href="#OpAmp-Inverting-3Transistor-3_svg__r"/>
  <use x="255.817" y="191.206" fill="#505050" xlink:href="#OpAmp-Inverting-3Transistor-3_svg__q"/>
  <use x="262.887" y="210.081" fill="#505050" xlink:href="#OpAmp-Inverting-3Transistor-3_svg__s"/>
  <use x="264.207" y="210.081" fill="#505050" xlink:href="#OpAmp-Inverting-3Transistor-3_svg__t"/>
  <use x="265.526" y="210.081" fill="#505050" xlink:href="#OpAmp-Inverting-3Transistor-3_svg__t"/>
  <use x="266.846" y="210.081" fill="#505050" xlink:href="#OpAmp-Inverting-3Transistor-3_svg__u"/>
  <use x="295.978" y="201.992" fill="#505050" xlink:href="#OpAmp-Inverting-3Transistor-3_svg__s"/>
  <use x="297.298" y="201.992" fill="#505050" xlink:href="#OpAmp-Inverting-3Transistor-3_svg__v"/>
  <use x="288.424" y="216.374" fill="#505050" xlink:href="#OpAmp-Inverting-3Transistor-3_svg__w"/>
  <use x="289.744" y="216.374" fill="#505050" xlink:href="#OpAmp-Inverting-3Transistor-3_svg__x"/>
  <use x="291.065" y="216.374" fill="#505050" xlink:href="#OpAmp-Inverting-3Transistor-3_svg__u"/>
  <use x="288.065" y="223.504" fill="#505050" xlink:href="#OpAmp-Inverting-3Transistor-3_svg__w"/>
  <use x="289.385" y="223.504" fill="#505050" xlink:href="#OpAmp-Inverting-3Transistor-3_svg__y"/>
  <use x="290.105" y="223.504" fill="#505050" xlink:href="#OpAmp-Inverting-3Transistor-3_svg__x"/>
  <use x="291.425" y="223.504" fill="#505050" xlink:href="#OpAmp-Inverting-3Transistor-3_svg__u"/>
  <use x="288.065" y="230.755" fill="#505050" xlink:href="#OpAmp-Inverting-3Transistor-3_svg__z"/>
  <use x="289.385" y="230.755" fill="#505050" xlink:href="#OpAmp-Inverting-3Transistor-3_svg__y"/>
  <use x="290.105" y="230.755" fill="#505050" xlink:href="#OpAmp-Inverting-3Transistor-3_svg__w"/>
  <use x="291.425" y="230.755" fill="#505050" xlink:href="#OpAmp-Inverting-3Transistor-3_svg__u"/>
  <use x="315.877" y="213.676" fill="#505050" xlink:href="#OpAmp-Inverting-3Transistor-3_svg__s"/>
  <use x="317.197" y="213.676" fill="#505050" xlink:href="#OpAmp-Inverting-3Transistor-3_svg__u"/>
  <use x="274.761" y="198.332" fill="#505050" xlink:href="#OpAmp-Inverting-3Transistor-3_svg__A"/>
  <use x="274.761" y="200.252" fill="#505050" xlink:href="#OpAmp-Inverting-3Transistor-3_svg__B"/>
  <use x="274.761" y="202.172" fill="#505050" xlink:href="#OpAmp-Inverting-3Transistor-3_svg__C"/>
  <use x="274.761" y="203.912" fill="#505050" xlink:href="#OpAmp-Inverting-3Transistor-3_svg__D"/>
  <use x="274.761" y="205.652" fill="#505050" xlink:href="#OpAmp-Inverting-3Transistor-3_svg__E"/>
  <use x="300.23" y="196.839" fill="#505050" xlink:href="#OpAmp-Inverting-3Transistor-3_svg__F"/>
  <use x="302.15" y="196.839" fill="#505050" xlink:href="#OpAmp-Inverting-3Transistor-3_svg__G"/>
  <use x="304.07" y="196.839" fill="#505050" xlink:href="#OpAmp-Inverting-3Transistor-3_svg__H"/>
  <use x="305.81" y="196.839" fill="#505050" xlink:href="#OpAmp-Inverting-3Transistor-3_svg__I"/>
  <use x="307.55" y="196.839" fill="#505050" xlink:href="#OpAmp-Inverting-3Transistor-3_svg__J"/>
  <use x="315.401" y="212.654" fill="#505050" xlink:href="#OpAmp-Inverting-3Transistor-3_svg__A"/>
  <use x="315.401" y="214.574" fill="#505050" xlink:href="#OpAmp-Inverting-3Transistor-3_svg__B"/>
  <use x="315.401" y="216.494" fill="#505050" xlink:href="#OpAmp-Inverting-3Transistor-3_svg__C"/>
  <use x="315.401" y="218.234" fill="#505050" xlink:href="#OpAmp-Inverting-3Transistor-3_svg__C"/>
  <use x="315.401" y="219.974" fill="#505050" xlink:href="#OpAmp-Inverting-3Transistor-3_svg__E"/>
  <use x="266.069" y="220.566" fill="#505050" xlink:href="#OpAmp-Inverting-3Transistor-3_svg__K"/>
  <use x="266.069" y="222.006" fill="#505050" xlink:href="#OpAmp-Inverting-3Transistor-3_svg__L"/>
  <use x="311.86" y="205.046" fill="#505050" xlink:href="#OpAmp-Inverting-3Transistor-3_svg__G"/>
  <use x="313.78" y="205.046" fill="#505050" xlink:href="#OpAmp-Inverting-3Transistor-3_svg__d"/>
  <use x="289.388" y="194.198" fill="#505050" xlink:href="#OpAmp-Inverting-3Transistor-3_svg__M"/>
  <use x="289.388" y="196.418" fill="#505050" xlink:href="#OpAmp-Inverting-3Transistor-3_svg__N"/>
  <use x="265.227" y="222.607" fill="#505050" xlink:href="#OpAmp-Inverting-3Transistor-3_svg__O"/>
  <use x="266.727" y="222.607" fill="#505050" xlink:href="#OpAmp-Inverting-3Transistor-3_svg__s"/>
  <use x="296.098" y="205.528" fill="#505050" xlink:href="#OpAmp-Inverting-3Transistor-3_svg__O"/>
  <use x="297.598" y="205.528" fill="#505050" xlink:href="#OpAmp-Inverting-3Transistor-3_svg__P"/>
  <use x="288.905" y="219.909" fill="#505050" xlink:href="#OpAmp-Inverting-3Transistor-3_svg__O"/>
  <use x="290.405" y="219.909" fill="#505050" xlink:href="#OpAmp-Inverting-3Transistor-3_svg__Q"/>
  <use x="288.965" y="219.969" fill="#505050" xlink:href="#OpAmp-Inverting-3Transistor-3_svg__O"/>
  <use x="290.465" y="219.969" fill="#505050" xlink:href="#OpAmp-Inverting-3Transistor-3_svg__z"/>
  <use x="288.905" y="234.291" fill="#505050" xlink:href="#OpAmp-Inverting-3Transistor-3_svg__O"/>
  <use x="290.405" y="234.291" fill="#505050" xlink:href="#OpAmp-Inverting-3Transistor-3_svg__x"/>
  <use x="315.578" y="226.202" fill="#505050" xlink:href="#OpAmp-Inverting-3Transistor-3_svg__O"/>
  <use x="317.078" y="226.202" fill="#505050" xlink:href="#OpAmp-Inverting-3Transistor-3_svg__R"/>
  <use x="277.036" y="201.692" fill="#505050" xlink:href="#OpAmp-Inverting-3Transistor-3_svg__S"/>
  <use x="278.956" y="201.692" fill="#505050" xlink:href="#OpAmp-Inverting-3Transistor-3_svg__T"/>
  <use x="305.871" y="190.905" fill="#505050" xlink:href="#OpAmp-Inverting-3Transistor-3_svg__U"/>
  <use x="305.871" y="192.825" fill="#505050" xlink:href="#OpAmp-Inverting-3Transistor-3_svg__V"/>
  <use x="307.186" y="216.074" fill="#505050" xlink:href="#OpAmp-Inverting-3Transistor-3_svg__S"/>
  <use x="309.106" y="216.074" fill="#505050" xlink:href="#OpAmp-Inverting-3Transistor-3_svg__d"/>
  <path fill="none" stroke="#505050" stroke-linecap="round" stroke-linejoin="round" stroke-miterlimit="10" stroke-width=".24" d="M261.578 224.398v-6.058m0-8.34v6.121"/>
  <path fill="none" stroke="#505050" stroke-linecap="round" stroke-linejoin="round" stroke-miterlimit="10" stroke-width=".48" d="M319.121 202.86v-1.981m0 0h-2.52m.001 0V199.8m0 0h5.039m-.001 0v1.079m0 0h-2.519m0-5.219v1.918m0 0h2.52m-.001 0v1.082m0 0h-5.038m0 0v-1.082m0 0h2.52"/>
  <path fill="none" stroke="#505050" stroke-linecap="round" stroke-linejoin="round" stroke-miterlimit="10" stroke-width=".36" d="M283.18 192.602v-1.262m0 0v-4.14"/>
  <path fill="none" stroke="#505050" stroke-linecap="round" stroke-linejoin="round" stroke-miterlimit="10" stroke-width="1.2" d="M283.18 192.96v2.7"/>
  <path fill="none" stroke="#505050" stroke-linecap="round" stroke-linejoin="round" stroke-miterlimit="10" stroke-width=".72" d="M268.781 231.602v-9.723m0-19.019v9.66m43.141-9.66h-9.723m-19.019 0h9.66m11.879 14.34H295m-19.02 0h9.66m-9.66 7.198h9.66m19.079 0H295m9.719 7.204H295m-19.02 0h9.66m33.481 0v-6.122m0-15.48v6.121"/>
  <path fill="none" stroke="#505050" stroke-linecap="round" stroke-linejoin="round" stroke-miterlimit="10" stroke-width=".3" d="M259.781 222.238V212.16m1.079 11.16h1.44m1.079-1.082l-.117.422-.184.36-.36.242-.417.058m1.078-11.16v10.078"/>
  <path fill="#505050" stroke="#505050" stroke-linecap="round" stroke-linejoin="round" stroke-miterlimit="10" stroke-width=".12" d="M263.02 216.121h-2.88v.719h2.88zm0 1.438h-2.88v.722h2.88zm0 0"/>
  <path fill="none" stroke="#505050" stroke-linecap="round" stroke-linejoin="round" stroke-miterlimit="10" stroke-width=".3" d="M260.86 223.32l-.419-.058-.363-.242-.238-.36-.059-.422m2.519-11.16h-1.44m-1.079 1.082l.059-.422.238-.297.363-.242.418-.12m1.441-.001l.419.121.36.242.183.297.117.422"/>
  <path fill="none" stroke="#505050" stroke-linecap="round" stroke-linejoin="round" stroke-miterlimit="10" stroke-width=".48" d="M322.719 202.68v-.54m-.539 0h.539m0 0v-.538m0 .538h.543m-9.962-2.878a5.76 5.76 0 1 1 11.52-.004 5.76 5.76 0 0 1-11.52.004zm0 0"/>
  <path fill="#505050" stroke="#505050" stroke-linecap="round" stroke-linejoin="round" stroke-miterlimit="10" stroke-width=".12" d="M321.398 197.82h-4.558v.72h4.558zm0 0"/>
  <path fill="none" stroke="#505050" stroke-linecap="round" stroke-linejoin="round" stroke-miterlimit="10" stroke-width=".36" d="M284.621 188.82h-2.883m0 0l1.442 2.52m0 0l1.441-2.52m-1.441 2.52h-1.258m2.519 0h-1.261m-2.942-1.621a2.88 2.88 0 0 1 2.883-2.88 2.88 2.88 0 0 1 2.879 2.88 2.88 2.88 0 1 1-5.762 0zm4.203 1.621l.48-.899"/>
  <use x="260.313" y="182.396" fill="#505050" xlink:href="#OpAmp-Inverting-3Transistor-3_svg__W"/>
  <use x="261.213" y="182.396" fill="#505050" xlink:href="#OpAmp-Inverting-3Transistor-3_svg__X"/>
  <path fill="none" stroke="#505050" stroke-linecap="round" stroke-linejoin="round" stroke-miterlimit="10" stroke-width=".36" d="M257.98 199.262v-14.403m0 .001h7.2m0 0v14.402m0 0h-7.2"/>
  <use x="255.458" y="187.011" fill="#505050" xlink:href="#OpAmp-Inverting-3Transistor-3_svg__Y"/>
  <use x="257.618" y="194.202" fill="#505050" xlink:href="#OpAmp-Inverting-3Transistor-3_svg__Z"/>
  <path fill="none" stroke="#505050" stroke-linecap="round" stroke-linejoin="round" stroke-miterlimit="10" stroke-width=".36" d="M322.719 184.86h7.203m0 0v14.402m0 0h-7.203"/>
  <use x="330.984" y="187.011" fill="#505050" xlink:href="#OpAmp-Inverting-3Transistor-3_svg__Y"/>
  <use x="333.144" y="194.202" fill="#505050" xlink:href="#OpAmp-Inverting-3Transistor-3_svg__Z"/>
  <path fill="none" stroke="#505050" stroke-linecap="round" stroke-linejoin="round" stroke-miterlimit="10" stroke-width=".36" d="M322.719 199.262v-14.403"/>
  <path fill="none" stroke="#505050" stroke-linecap="round" stroke-linejoin="round" stroke-miterlimit="10" stroke-width=".48" d="M266.98 214.32l.06-.242.12-.238.238-.18.301-.058m2.161 0l.242.058.238.18.18.238.058.242m0 5.758l-.058.3-.18.243-.238.117-.243.063m-2.159-.001l-.302-.062-.238-.117-.12-.242-.06-.3"/>
  <path fill="none" stroke="#505050" stroke-linecap="round" stroke-linejoin="round" stroke-miterlimit="10" stroke-width=".48" d="M266.98 214.32l.06-.242.12-.238.238-.18.301-.058m2.161 0l.242.058.238.18.18.238.058.242m0 5.758l-.058.3-.18.243-.238.117-.243.063m-2.159-.001l-.302-.062-.238-.117-.12-.242-.06-.3m2.88-6.477h-2.16m-.72 6.476v-5.758m3.598 5.758v-5.758m-.718 6.48h-2.16"/>
  <path fill="#505050" stroke="#505050" stroke-linecap="round" stroke-linejoin="round" stroke-miterlimit="10" stroke-width=".12" d="M269.14 220.8h-.718v1.079h.719zm0-8.28h-.718v1.082h.719zm0 0"/>
  <path fill="none" stroke="#505050" stroke-linecap="round" stroke-linejoin="round" stroke-miterlimit="10" stroke-width=".48" d="M294.64 204.602h-.242l-.238-.18-.18-.242-.058-.239m0-2.16l.058-.3.18-.243.238-.18h.243m5.757.001h.301l.242.18.118.241.062.301m0 2.16l-.062.239-.118.242-.242.18h-.3"/>
  <path fill="none" stroke="#505050" stroke-linecap="round" stroke-linejoin="round" stroke-miterlimit="10" stroke-width=".48" d="M294.64 204.602h-.242l-.238-.18-.18-.242-.058-.239m0-2.16l.058-.3.18-.243.238-.18h.243m5.757.001h.301l.242.18.118.241.062.301m0 2.16l-.062.239-.118.242-.242.18h-.3m-6.477-2.821v2.16m6.476.661h-5.757m5.757-3.543h-5.757m6.48.722v2.16"/>
  <path fill="#505050" stroke="#505050" stroke-linecap="round" stroke-linejoin="round" stroke-miterlimit="10" stroke-width=".12" d="M302.2 202.5h-1.079v.719h1.078zm-8.278 0h-1.082v.719h1.082zm0 0"/>
  <path fill="none" stroke="#505050" stroke-linecap="round" stroke-linejoin="round" stroke-miterlimit="10" stroke-width=".48" d="M287.441 219l-.242-.059-.238-.12-.18-.243-.062-.297m0-2.16l.062-.242.18-.238.238-.18.242-.063m5.759 0l.3.063.238.18.121.238.063.242m0 2.16l-.063.297-.12.242-.239.121-.3.059"/>
  <path fill="none" stroke="#505050" stroke-linecap="round" stroke-linejoin="round" stroke-miterlimit="10" stroke-width=".48" d="M287.441 219l-.242-.059-.238-.12-.18-.243-.062-.297m0-2.16l.062-.242.18-.238.238-.18.242-.063m5.759 0l.3.063.238.18.121.238.063.242m0 2.16l-.063.297-.12.242-.239.121-.3.059m-6.481-2.879v2.16m6.481.719h-5.759m5.759-3.602h-5.759m6.481.723v2.16"/>
  <path fill="#505050" stroke="#505050" stroke-linecap="round" stroke-linejoin="round" stroke-miterlimit="10" stroke-width=".12" d="M295 216.84h-1.082v.719H295zm-8.281 0h-1.078v.719h1.078zm0 0"/>
  <path fill="none" stroke="#505050" stroke-linecap="round" stroke-linejoin="round" stroke-miterlimit="10" stroke-width=".48" d="M293.2 222.602l.3.058.238.18.121.238.063.242m0 2.16l-.063.301-.12.239-.239.12-.3.06m-5.759 0l-.242-.06-.238-.12-.18-.239-.062-.3m0-2.161l.062-.242.18-.238.238-.18.242-.058"/>
  <path fill="none" stroke="#505050" stroke-linecap="round" stroke-linejoin="round" stroke-miterlimit="10" stroke-width=".48" d="M293.2 222.602l.3.058.238.18.121.238.063.242m0 2.16l-.063.301-.12.239-.239.12-.3.06m-5.759 0l-.242-.06-.238-.12-.18-.239-.062-.3m0-2.161l.062-.242.18-.238.238-.18.242-.058m6.481 2.878v-2.16m-6.481-.718h5.758m-5.758 3.598h5.758m-6.48-.72v-2.16"/>
  <path fill="#505050" stroke="#505050" stroke-linecap="round" stroke-linejoin="round" stroke-miterlimit="10" stroke-width=".12" d="M286.719 224.04h-1.078v.722h1.078zm8.281 0h-1.082v.722H295zm0 0"/>
  <path fill="none" stroke="#505050" stroke-linecap="round" stroke-linejoin="round" stroke-miterlimit="10" stroke-width=".48" d="M287.441 233.398l-.242-.058-.238-.18-.18-.238-.062-.242m0-2.16l.062-.301.18-.239.238-.12.242-.06m5.759 0l.3.06.238.12.121.239.063.3m0 2.161l-.063.242-.12.238-.239.18-.3.058"/>
  <path fill="none" stroke="#505050" stroke-linecap="round" stroke-linejoin="round" stroke-miterlimit="10" stroke-width=".48" d="M287.441 233.398l-.242-.058-.238-.18-.18-.238-.062-.242m0-2.16l.062-.301.18-.239.238-.12.242-.06m5.759 0l.3.06.238.12.121.239.063.3m0 2.161l-.063.242-.12.238-.239.18-.3.058m-6.481-2.878v2.16m6.481.718h-5.759m5.759-3.598h-5.759m6.481.72v2.16"/>
  <path fill="#505050" stroke="#505050" stroke-linecap="round" stroke-linejoin="round" stroke-miterlimit="10" stroke-width=".12" d="M295 231.238h-1.082v.723H295zm-8.281 0h-1.078v.723h1.078zm0 0"/>
  <path fill="none" stroke="#505050" stroke-linecap="round" stroke-linejoin="round" stroke-miterlimit="10" stroke-width=".48" d="M317.32 217.922l.059-.242.121-.239.238-.18.301-.062m2.161.001l.3.062.18.18.18.238.062.242m0 5.758l-.063.3-.18.239-.179.12-.3.06m-2.16-.001l-.302-.058-.238-.121-.121-.239-.059-.3"/>
  <path fill="none" stroke="#505050" stroke-linecap="round" stroke-linejoin="round" stroke-miterlimit="10" stroke-width=".48" d="M317.32 217.922l.059-.242.121-.239.238-.18.301-.062m2.161.001l.3.062.18.18.18.238.062.242m0 5.758l-.063.3-.18.239-.179.12-.3.06m-2.16-.001l-.302-.058-.238-.121-.121-.239-.059-.3m2.88-6.48h-2.16m-.72 6.48v-5.758m3.602 5.758v-5.758m-.722 6.476h-2.16"/>
  <path fill="#505050" stroke="#505050" stroke-linecap="round" stroke-linejoin="round" stroke-miterlimit="10" stroke-width=".12" d="M319.48 224.398h-.718v1.082h.718zm0-8.277h-.718v1.078h.718zm0 0"/>
  <path fill="none" stroke="#505050" stroke-linecap="round" stroke-linejoin="round" stroke-miterlimit="10" stroke-width=".36" d="M271.3 208.738v-11.816m7.86-.902l1.14.66 1.02.84.84 1.02.66 1.14.418 1.199.242 1.32v1.262l-.242 1.32-.418 1.258-.66 1.14-.84.962-1.02.84-1.14.66m-3.18-14.341v15.06m3.18-.72l-1.02.419-1.081.242-1.079.058m0 .001l-1.14-.06-1.078-.241-1.024-.418m0-.001l-.777-.359-.66-.543m1.437-12.718l1.024-.418 1.078-.243 1.14-.058m0-.001l1.079.06 1.082.242 1.02.418m-7.861.902l.72-.543.78-.418m37.86 4.379h-11.879m-.902-7.918l.66-1.14.84-1.02 1.02-.84 1.14-.602 1.262-.48 1.258-.238h1.32l1.32.238 1.2.48 1.14.602 1.02.84.84 1.02.66 1.14m-14.399 3.238h15.121m-.722-3.238l.421 1.02.239 1.078.062 1.14m0 0l-.12 1.078-.24 1.082-.362 1.02m0 0l-.418.781-.48.719m-12.782-1.5l-.36-1.02-.238-1.082-.12-1.078m-.001 0l.059-1.14.242-1.079.418-1.02m.902 7.919l-.48-.781-.422-.778m18.723 12.481v11.879m-7.922.899l-1.078-.661-1.024-.84-.84-1.02-.66-1.14-.476-1.2-.18-1.32v-1.32l.18-1.258.476-1.261.66-1.141.84-1.02 1.024-.84 1.078-.66m3.242 14.403v-15.063m-3.242.661l1.082-.36 1.078-.238 1.082-.063m0 .001l1.078.062 1.078.238 1.082.36m0 0l.719.421.723.48m-1.442 12.779l-1.082.358-1.078.243-1.078.12m0 .001l-1.082-.063-1.078-.238-1.082-.422m7.922-.899l-.723.54-.777.422"/>
  <use x="330.142" y="217.81" fill="#505050" xlink:href="#OpAmp-Inverting-3Transistor-3_svg__aa"/>
  <use x="331.942" y="217.81" fill="#505050" xlink:href="#OpAmp-Inverting-3Transistor-3_svg__ab"/>
  <use x="334.882" y="217.81" fill="#505050" xlink:href="#OpAmp-Inverting-3Transistor-3_svg__ac"/>
  <path fill="none" stroke="#505050" stroke-linecap="round" stroke-linejoin="round" stroke-miterlimit="10" stroke-width=".36" d="M329.922 235.2v-14.4m0 0h7.2m-.001 0v14.4m0 0h-7.2"/>
  <use x="338.177" y="222.964" fill="#505050" xlink:href="#OpAmp-Inverting-3Transistor-3_svg__Y"/>
  <use x="340.337" y="230.155" fill="#505050" xlink:href="#OpAmp-Inverting-3Transistor-3_svg__Z"/>
  <use fill-rule="evenodd" xlink:href="#reuse-0"/>
  <use stroke-linecap="round" stroke-linejoin="round" stroke-miterlimit="10" stroke-width=".12" xlink:href="#reuse-1"/>
  <use fill-rule="evenodd" xlink:href="#reuse-2"/>
  <use stroke-linecap="square" stroke-linejoin="bevel" stroke-miterlimit="10" stroke-width=".06" xlink:href="#reuse-3"/>
  <use fill-rule="evenodd" xlink:href="#reuse-4"/>
  <use stroke-linecap="round" stroke-linejoin="round" stroke-miterlimit="10" stroke-width=".12" xlink:href="#reuse-5"/>
  <use fill-rule="evenodd" xlink:href="#reuse-6"/>
  <use stroke-linecap="square" stroke-linejoin="bevel" stroke-miterlimit="10" stroke-width=".06" xlink:href="#reuse-7"/>
  <use fill-rule="evenodd" xlink:href="#reuse-8"/>
  <use stroke-linecap="round" stroke-linejoin="round" stroke-miterlimit="10" stroke-width=".12" xlink:href="#reuse-9"/>
  <use fill-rule="evenodd" xlink:href="#reuse-10"/>
  <use stroke-linecap="square" stroke-linejoin="bevel" stroke-miterlimit="10" stroke-width=".06" xlink:href="#reuse-11"/>
  <use stroke-linecap="round" stroke-linejoin="round" stroke-miterlimit="10" stroke-width=".12" xlink:href="#reuse-12"/>
  <use fill-rule="evenodd" xlink:href="#reuse-13"/>
  <use stroke-linecap="square" stroke-linejoin="bevel" stroke-miterlimit="10" stroke-width=".06" xlink:href="#reuse-14"/>
  <use fill-rule="evenodd" xlink:href="#reuse-15"/>
  <use stroke-linecap="round" stroke-linejoin="round" stroke-miterlimit="10" stroke-width=".12" xlink:href="#reuse-16"/>
  <use fill-rule="evenodd" xlink:href="#reuse-17"/>
  <use stroke-linecap="square" stroke-linejoin="bevel" stroke-miterlimit="10" stroke-width=".06" xlink:href="#reuse-18"/>
  <use fill-rule="evenodd" xlink:href="#reuse-19"/>
  <use stroke-linecap="round" stroke-linejoin="round" stroke-miterlimit="10" stroke-width=".12" xlink:href="#reuse-20"/>
  <use fill-rule="evenodd" xlink:href="#reuse-21"/>
  <use stroke-linecap="square" stroke-linejoin="bevel" stroke-miterlimit="10" stroke-width=".06" xlink:href="#reuse-22"/>
  <use fill-rule="evenodd" xlink:href="#reuse-23"/>
  <use stroke-linecap="round" stroke-linejoin="round" stroke-miterlimit="10" stroke-width=".12" xlink:href="#reuse-24"/>
  <use fill-rule="evenodd" xlink:href="#reuse-25"/>
  <use stroke-linecap="square" stroke-linejoin="bevel" stroke-miterlimit="10" stroke-width=".06" xlink:href="#reuse-26"/>
  <use fill-rule="evenodd" xlink:href="#reuse-27"/>
  <use stroke-linecap="round" stroke-linejoin="round" stroke-miterlimit="10" stroke-width=".12" xlink:href="#reuse-28"/>
  <use fill-rule="evenodd" xlink:href="#reuse-29"/>
  <use stroke-linecap="square" stroke-linejoin="bevel" stroke-miterlimit="10" stroke-width=".06" xlink:href="#reuse-30"/>
  <use fill-rule="evenodd" xlink:href="#reuse-31"/>
  <use stroke-linecap="round" stroke-linejoin="round" stroke-miterlimit="10" stroke-width=".12" xlink:href="#reuse-32"/>
  <use fill-rule="evenodd" xlink:href="#reuse-33"/>
  <use stroke-linecap="square" stroke-linejoin="bevel" stroke-miterlimit="10" stroke-width=".06" xlink:href="#reuse-34"/>
  <use fill-rule="evenodd" xlink:href="#reuse-35"/>
  <use stroke-linecap="round" stroke-linejoin="round" stroke-miterlimit="10" stroke-width=".12" xlink:href="#reuse-36"/>
  <use fill-rule="evenodd" xlink:href="#reuse-37"/>
  <use stroke-linecap="square" stroke-linejoin="bevel" stroke-miterlimit="10" stroke-width=".06" xlink:href="#reuse-38"/>
  <use fill-rule="evenodd" xlink:href="#reuse-39"/>
  <use stroke-linecap="round" stroke-linejoin="round" stroke-miterlimit="10" stroke-width=".12" xlink:href="#reuse-40"/>
  <use fill-rule="evenodd" xlink:href="#reuse-41"/>
  <use stroke-linecap="square" stroke-linejoin="bevel" stroke-miterlimit="10" stroke-width=".06" xlink:href="#reuse-42"/>
  <use fill-rule="evenodd" xlink:href="#reuse-43"/>
  <use stroke-linecap="round" stroke-linejoin="round" stroke-miterlimit="10" stroke-width=".12" xlink:href="#reuse-44"/>
  <use fill-rule="evenodd" xlink:href="#reuse-45"/>
  <use stroke-linecap="square" stroke-linejoin="bevel" stroke-miterlimit="10" stroke-width=".06" xlink:href="#reuse-46"/>
  <use fill-rule="evenodd" xlink:href="#reuse-47"/>
  <use stroke-linecap="round" stroke-linejoin="round" stroke-miterlimit="10" stroke-width=".12" xlink:href="#reuse-48"/>
  <use fill-rule="evenodd" xlink:href="#reuse-49"/>
  <use stroke-linecap="square" stroke-linejoin="bevel" stroke-miterlimit="10" stroke-width=".06" xlink:href="#reuse-50"/>
  <use fill-rule="evenodd" xlink:href="#reuse-51"/>
  <use stroke-linecap="round" stroke-linejoin="round" stroke-miterlimit="10" stroke-width=".12" xlink:href="#reuse-52"/>
  <use fill-rule="evenodd" xlink:href="#reuse-53"/>
  <use stroke-linecap="square" stroke-linejoin="bevel" stroke-miterlimit="10" stroke-width=".06" xlink:href="#reuse-54"/>
  <use fill-rule="evenodd" xlink:href="#reuse-55"/>
  <use stroke-linecap="round" stroke-linejoin="round" stroke-miterlimit="10" stroke-width=".12" xlink:href="#reuse-56"/>
  <use fill-rule="evenodd" xlink:href="#reuse-57"/>
  <use stroke-linecap="square" stroke-linejoin="bevel" stroke-miterlimit="10" stroke-width=".06" xlink:href="#reuse-58"/>
  <use fill-rule="evenodd" xlink:href="#reuse-59"/>
  <use stroke-linecap="round" stroke-linejoin="round" stroke-miterlimit="10" stroke-width=".12" xlink:href="#reuse-60"/>
  <use fill-rule="evenodd" xlink:href="#reuse-61"/>
  <use stroke-linecap="square" stroke-linejoin="bevel" stroke-miterlimit="10" stroke-width=".06" xlink:href="#reuse-62"/>
  <use fill-rule="evenodd" xlink:href="#reuse-63"/>
  <use stroke-linecap="round" stroke-linejoin="round" stroke-miterlimit="10" stroke-width=".12" xlink:href="#reuse-64"/>
  <use fill-rule="evenodd" xlink:href="#reuse-65"/>
  <use stroke-linecap="square" stroke-linejoin="bevel" stroke-miterlimit="10" stroke-width=".06" xlink:href="#reuse-66"/>
  <use fill-rule="evenodd" xlink:href="#reuse-67"/>
  <use stroke-linecap="round" stroke-linejoin="round" stroke-miterlimit="10" stroke-width=".12" xlink:href="#reuse-68"/>
  <use fill-rule="evenodd" xlink:href="#reuse-69"/>
  <use stroke-linecap="square" stroke-linejoin="bevel" stroke-miterlimit="10" stroke-width=".06" xlink:href="#reuse-70"/>
  <use fill-rule="evenodd" xlink:href="#reuse-71"/>
  <use stroke-linecap="round" stroke-linejoin="round" stroke-miterlimit="10" stroke-width=".12" xlink:href="#reuse-72"/>
  <use fill-rule="evenodd" xlink:href="#reuse-73"/>
  <use stroke-linecap="square" stroke-linejoin="bevel" stroke-miterlimit="10" stroke-width=".06" xlink:href="#reuse-74"/>
  <use fill-rule="evenodd" xlink:href="#reuse-75"/>
  <use stroke-linecap="round" stroke-linejoin="round" stroke-miterlimit="10" stroke-width=".12" xlink:href="#reuse-76"/>
  <use fill-rule="evenodd" xlink:href="#reuse-77"/>
  <use stroke-linecap="square" stroke-linejoin="bevel" stroke-miterlimit="10" stroke-width=".06" xlink:href="#reuse-78"/>
  <use fill-rule="evenodd" xlink:href="#reuse-79"/>
  <use stroke-linecap="round" stroke-linejoin="round" stroke-miterlimit="10" stroke-width=".12" xlink:href="#reuse-80"/>
  <use fill-rule="evenodd" xlink:href="#reuse-81"/>
  <use stroke-linecap="square" stroke-linejoin="bevel" stroke-miterlimit="10" stroke-width=".06" xlink:href="#reuse-82"/>
  <use fill-rule="evenodd" xlink:href="#reuse-83"/>
  <use stroke-linecap="round" stroke-linejoin="round" stroke-miterlimit="10" stroke-width=".12" xlink:href="#reuse-84"/>
  <use fill-rule="evenodd" xlink:href="#reuse-85"/>
  <use stroke-linecap="square" stroke-linejoin="bevel" stroke-miterlimit="10" stroke-width=".06" xlink:href="#reuse-86"/>
  <use fill-rule="evenodd" xlink:href="#reuse-87"/>
  <use stroke-linecap="round" stroke-linejoin="round" stroke-miterlimit="10" stroke-width=".12" xlink:href="#reuse-88"/>
  <use fill-rule="evenodd" xlink:href="#reuse-89"/>
  <use stroke-linecap="square" stroke-linejoin="bevel" stroke-miterlimit="10" stroke-width=".06" xlink:href="#reuse-90"/>
  <use fill-rule="evenodd" xlink:href="#reuse-91"/>
  <use stroke-linecap="round" stroke-linejoin="round" stroke-miterlimit="10" stroke-width=".12" xlink:href="#reuse-92"/>
  <use fill-rule="evenodd" xlink:href="#reuse-93"/>
  <use stroke-linecap="square" stroke-linejoin="bevel" stroke-miterlimit="10" stroke-width=".06" xlink:href="#reuse-94"/>
  <use fill-rule="evenodd" xlink:href="#reuse-95"/>
  <use stroke-linecap="round" stroke-linejoin="round" stroke-miterlimit="10" stroke-width=".12" xlink:href="#reuse-96"/>
  <use fill-rule="evenodd" xlink:href="#reuse-97"/>
  <use stroke-linecap="square" stroke-linejoin="bevel" stroke-miterlimit="10" stroke-width=".06" xlink:href="#reuse-98"/>
  <use fill-rule="evenodd" xlink:href="#reuse-99"/>
  <use stroke-linecap="round" stroke-linejoin="round" stroke-miterlimit="10" stroke-width=".12" xlink:href="#reuse-100"/>
  <use fill-rule="evenodd" xlink:href="#reuse-101"/>
  <use stroke-linecap="square" stroke-linejoin="bevel" stroke-miterlimit="10" stroke-width=".06" xlink:href="#reuse-102"/>
  <use fill-rule="evenodd" xlink:href="#reuse-103"/>
  <use stroke-linecap="round" stroke-linejoin="round" stroke-miterlimit="10" stroke-width=".12" xlink:href="#reuse-104"/>
  <use fill-rule="evenodd" xlink:href="#reuse-105"/>
  <use stroke-linecap="square" stroke-linejoin="bevel" stroke-miterlimit="10" stroke-width=".06" xlink:href="#reuse-106"/>
  <use fill-rule="evenodd" xlink:href="#reuse-107"/>
  <use stroke-linecap="round" stroke-linejoin="round" stroke-miterlimit="10" stroke-width=".12" xlink:href="#reuse-108"/>
  <use fill-rule="evenodd" xlink:href="#reuse-109"/>
  <use stroke-linecap="square" stroke-linejoin="bevel" stroke-miterlimit="10" stroke-width=".06" xlink:href="#reuse-110"/>
  <use fill-rule="evenodd" xlink:href="#reuse-111"/>
  <use stroke-linecap="round" stroke-linejoin="round" stroke-miterlimit="10" stroke-width=".12" xlink:href="#reuse-112"/>
  <use fill-rule="evenodd" xlink:href="#reuse-113"/>
  <use stroke-linecap="square" stroke-linejoin="bevel" stroke-miterlimit="10" stroke-width=".06" xlink:href="#reuse-114"/>
  <use fill-rule="evenodd" xlink:href="#reuse-115"/>
  <use stroke-linecap="round" stroke-linejoin="round" stroke-miterlimit="10" stroke-width=".12" xlink:href="#reuse-116"/>
  <use fill-rule="evenodd" xlink:href="#reuse-117"/>
  <use stroke-linecap="square" stroke-linejoin="bevel" stroke-miterlimit="10" stroke-width=".06" xlink:href="#reuse-118"/>
  <use fill-rule="evenodd" xlink:href="#reuse-119"/>
  <use stroke-linecap="round" stroke-linejoin="round" stroke-miterlimit="10" stroke-width=".12" xlink:href="#reuse-120"/>
  <use fill-rule="evenodd" xlink:href="#reuse-121"/>
  <use stroke-linecap="square" stroke-linejoin="bevel" stroke-miterlimit="10" stroke-width=".06" xlink:href="#reuse-122"/>
  <use fill-rule="evenodd" xlink:href="#reuse-123"/>
  <use stroke-linecap="round" stroke-linejoin="round" stroke-miterlimit="10" stroke-width=".12" xlink:href="#reuse-124"/>
  <use fill-rule="evenodd" xlink:href="#reuse-125"/>
  <use stroke-linecap="square" stroke-linejoin="bevel" stroke-miterlimit="10" stroke-width=".06" xlink:href="#reuse-126"/>
  <use fill-rule="evenodd" xlink:href="#reuse-127"/>
  <use stroke-linecap="round" stroke-linejoin="round" stroke-miterlimit="10" stroke-width=".12" xlink:href="#reuse-128"/>
  <use fill-rule="evenodd" xlink:href="#reuse-129"/>
  <use stroke-linecap="square" stroke-linejoin="bevel" stroke-miterlimit="10" stroke-width=".06" xlink:href="#reuse-130"/>
  <path fill="none" stroke="navy" stroke-linecap="round" stroke-linejoin="round" stroke-miterlimit="10" stroke-width="3.6" d="M261.578 188.46h21.602m14.34 7.2v-7.2m0 0h-14.34m50.34 35.938v-35.937m-7.2-.001h7.2m-7.2 0h-28.8M311.922 210h-7.203m0 0v-14.34m0 35.942H290.32m0 0V195.66m0 0h-7.14m-7.2 0h7.2m-7.2 28.738V210m0 7.2v7.198M261.578 210v-14.34m0 28.738h7.203m0 0v7.204m0-28.742h14.399m-7.2 0h-7.199m43.141 14.34h-7.203m7.203-21.54v7.2m0 0h7.2m-.001 0V210m0-14.34h7.2m-50.341 35.942h35.942m0 0v-7.204m0 0h-7.203m7.203 7.204h7.2m14.398 0h-14.4"/>
  <use fill-rule="evenodd" xlink:href="#reuse-0"/>
  <use stroke-linecap="round" stroke-linejoin="round" stroke-miterlimit="10" stroke-width=".12" xlink:href="#reuse-1"/>
  <use fill-rule="evenodd" xlink:href="#reuse-2"/>
  <use stroke-linecap="square" stroke-linejoin="bevel" stroke-miterlimit="10" stroke-width=".06" xlink:href="#reuse-3"/>
  <use fill-rule="evenodd" xlink:href="#reuse-4"/>
  <use stroke-linecap="round" stroke-linejoin="round" stroke-miterlimit="10" stroke-width=".12" xlink:href="#reuse-5"/>
  <use fill-rule="evenodd" xlink:href="#reuse-6"/>
  <use stroke-linecap="square" stroke-linejoin="bevel" stroke-miterlimit="10" stroke-width=".06" xlink:href="#reuse-7"/>
  <use fill-rule="evenodd" xlink:href="#reuse-8"/>
  <use stroke-linecap="round" stroke-linejoin="round" stroke-miterlimit="10" stroke-width=".12" xlink:href="#reuse-9"/>
  <use fill-rule="evenodd" xlink:href="#reuse-10"/>
  <use stroke-linecap="square" stroke-linejoin="bevel" stroke-miterlimit="10" stroke-width=".06" xlink:href="#reuse-11"/>
  <use stroke-linecap="round" stroke-linejoin="round" stroke-miterlimit="10" stroke-width=".12" xlink:href="#reuse-12"/>
  <use fill-rule="evenodd" xlink:href="#reuse-13"/>
  <use stroke-linecap="square" stroke-linejoin="bevel" stroke-miterlimit="10" stroke-width=".06" xlink:href="#reuse-14"/>
  <use fill-rule="evenodd" xlink:href="#reuse-15"/>
  <use stroke-linecap="round" stroke-linejoin="round" stroke-miterlimit="10" stroke-width=".12" xlink:href="#reuse-16"/>
  <use fill-rule="evenodd" xlink:href="#reuse-17"/>
  <use stroke-linecap="square" stroke-linejoin="bevel" stroke-miterlimit="10" stroke-width=".06" xlink:href="#reuse-18"/>
  <use fill-rule="evenodd" xlink:href="#reuse-19"/>
  <use stroke-linecap="round" stroke-linejoin="round" stroke-miterlimit="10" stroke-width=".12" xlink:href="#reuse-20"/>
  <use fill-rule="evenodd" xlink:href="#reuse-21"/>
  <use stroke-linecap="square" stroke-linejoin="bevel" stroke-miterlimit="10" stroke-width=".06" xlink:href="#reuse-22"/>
  <use fill-rule="evenodd" xlink:href="#reuse-23"/>
  <use stroke-linecap="round" stroke-linejoin="round" stroke-miterlimit="10" stroke-width=".12" xlink:href="#reuse-24"/>
  <use fill-rule="evenodd" xlink:href="#reuse-25"/>
  <use stroke-linecap="square" stroke-linejoin="bevel" stroke-miterlimit="10" stroke-width=".06" xlink:href="#reuse-26"/>
  <use fill-rule="evenodd" xlink:href="#reuse-27"/>
  <use stroke-linecap="round" stroke-linejoin="round" stroke-miterlimit="10" stroke-width=".12" xlink:href="#reuse-28"/>
  <use fill-rule="evenodd" xlink:href="#reuse-29"/>
  <use stroke-linecap="square" stroke-linejoin="bevel" stroke-miterlimit="10" stroke-width=".06" xlink:href="#reuse-30"/>
  <use fill-rule="evenodd" xlink:href="#reuse-31"/>
  <use stroke-linecap="round" stroke-linejoin="round" stroke-miterlimit="10" stroke-width=".12" xlink:href="#reuse-32"/>
  <use fill-rule="evenodd" xlink:href="#reuse-33"/>
  <use stroke-linecap="square" stroke-linejoin="bevel" stroke-miterlimit="10" stroke-width=".06" xlink:href="#reuse-34"/>
  <use fill-rule="evenodd" xlink:href="#reuse-35"/>
  <use stroke-linecap="round" stroke-linejoin="round" stroke-miterlimit="10" stroke-width=".12" xlink:href="#reuse-36"/>
  <use fill-rule="evenodd" xlink:href="#reuse-37"/>
  <use stroke-linecap="square" stroke-linejoin="bevel" stroke-miterlimit="10" stroke-width=".06" xlink:href="#reuse-38"/>
  <use fill-rule="evenodd" xlink:href="#reuse-39"/>
  <use stroke-linecap="round" stroke-linejoin="round" stroke-miterlimit="10" stroke-width=".12" xlink:href="#reuse-40"/>
  <use fill-rule="evenodd" xlink:href="#reuse-41"/>
  <use stroke-linecap="square" stroke-linejoin="bevel" stroke-miterlimit="10" stroke-width=".06" xlink:href="#reuse-42"/>
  <use fill-rule="evenodd" xlink:href="#reuse-43"/>
  <use stroke-linecap="round" stroke-linejoin="round" stroke-miterlimit="10" stroke-width=".12" xlink:href="#reuse-44"/>
  <use fill-rule="evenodd" xlink:href="#reuse-45"/>
  <use stroke-linecap="square" stroke-linejoin="bevel" stroke-miterlimit="10" stroke-width=".06" xlink:href="#reuse-46"/>
  <use fill-rule="evenodd" xlink:href="#reuse-47"/>
  <use stroke-linecap="round" stroke-linejoin="round" stroke-miterlimit="10" stroke-width=".12" xlink:href="#reuse-48"/>
  <use fill-rule="evenodd" xlink:href="#reuse-49"/>
  <use stroke-linecap="square" stroke-linejoin="bevel" stroke-miterlimit="10" stroke-width=".06" xlink:href="#reuse-50"/>
  <use fill-rule="evenodd" xlink:href="#reuse-51"/>
  <use stroke-linecap="round" stroke-linejoin="round" stroke-miterlimit="10" stroke-width=".12" xlink:href="#reuse-52"/>
  <use fill-rule="evenodd" xlink:href="#reuse-53"/>
  <use stroke-linecap="square" stroke-linejoin="bevel" stroke-miterlimit="10" stroke-width=".06" xlink:href="#reuse-54"/>
  <use fill-rule="evenodd" xlink:href="#reuse-55"/>
  <use stroke-linecap="round" stroke-linejoin="round" stroke-miterlimit="10" stroke-width=".12" xlink:href="#reuse-56"/>
  <use fill-rule="evenodd" xlink:href="#reuse-57"/>
  <use stroke-linecap="square" stroke-linejoin="bevel" stroke-miterlimit="10" stroke-width=".06" xlink:href="#reuse-58"/>
  <use fill-rule="evenodd" xlink:href="#reuse-59"/>
  <use stroke-linecap="round" stroke-linejoin="round" stroke-miterlimit="10" stroke-width=".12" xlink:href="#reuse-60"/>
  <use fill-rule="evenodd" xlink:href="#reuse-61"/>
  <use stroke-linecap="square" stroke-linejoin="bevel" stroke-miterlimit="10" stroke-width=".06" xlink:href="#reuse-62"/>
  <use fill-rule="evenodd" xlink:href="#reuse-63"/>
  <use stroke-linecap="round" stroke-linejoin="round" stroke-miterlimit="10" stroke-width=".12" xlink:href="#reuse-64"/>
  <use fill-rule="evenodd" xlink:href="#reuse-65"/>
  <use stroke-linecap="square" stroke-linejoin="bevel" stroke-miterlimit="10" stroke-width=".06" xlink:href="#reuse-66"/>
  <use fill-rule="evenodd" xlink:href="#reuse-67"/>
  <use stroke-linecap="round" stroke-linejoin="round" stroke-miterlimit="10" stroke-width=".12" xlink:href="#reuse-68"/>
  <use fill-rule="evenodd" xlink:href="#reuse-69"/>
  <use stroke-linecap="square" stroke-linejoin="bevel" stroke-miterlimit="10" stroke-width=".06" xlink:href="#reuse-70"/>
  <use fill-rule="evenodd" xlink:href="#reuse-71"/>
  <use stroke-linecap="round" stroke-linejoin="round" stroke-miterlimit="10" stroke-width=".12" xlink:href="#reuse-72"/>
  <use fill-rule="evenodd" xlink:href="#reuse-73"/>
  <use stroke-linecap="square" stroke-linejoin="bevel" stroke-miterlimit="10" stroke-width=".06" xlink:href="#reuse-74"/>
  <use fill-rule="evenodd" xlink:href="#reuse-75"/>
  <use stroke-linecap="round" stroke-linejoin="round" stroke-miterlimit="10" stroke-width=".12" xlink:href="#reuse-76"/>
  <use fill-rule="evenodd" xlink:href="#reuse-77"/>
  <use stroke-linecap="square" stroke-linejoin="bevel" stroke-miterlimit="10" stroke-width=".06" xlink:href="#reuse-78"/>
  <use fill-rule="evenodd" xlink:href="#reuse-79"/>
  <use stroke-linecap="round" stroke-linejoin="round" stroke-miterlimit="10" stroke-width=".12" xlink:href="#reuse-80"/>
  <use fill-rule="evenodd" xlink:href="#reuse-81"/>
  <use stroke-linecap="square" stroke-linejoin="bevel" stroke-miterlimit="10" stroke-width=".06" xlink:href="#reuse-82"/>
  <use fill-rule="evenodd" xlink:href="#reuse-83"/>
  <use stroke-linecap="round" stroke-linejoin="round" stroke-miterlimit="10" stroke-width=".12" xlink:href="#reuse-84"/>
  <use fill-rule="evenodd" xlink:href="#reuse-85"/>
  <use stroke-linecap="square" stroke-linejoin="bevel" stroke-miterlimit="10" stroke-width=".06" xlink:href="#reuse-86"/>
  <use fill-rule="evenodd" xlink:href="#reuse-87"/>
  <use stroke-linecap="round" stroke-linejoin="round" stroke-miterlimit="10" stroke-width=".12" xlink:href="#reuse-88"/>
  <use fill-rule="evenodd" xlink:href="#reuse-89"/>
  <use stroke-linecap="square" stroke-linejoin="bevel" stroke-miterlimit="10" stroke-width=".06" xlink:href="#reuse-90"/>
  <use fill-rule="evenodd" xlink:href="#reuse-91"/>
  <use stroke-linecap="round" stroke-linejoin="round" stroke-miterlimit="10" stroke-width=".12" xlink:href="#reuse-92"/>
  <use fill-rule="evenodd" xlink:href="#reuse-93"/>
  <use stroke-linecap="square" stroke-linejoin="bevel" stroke-miterlimit="10" stroke-width=".06" xlink:href="#reuse-94"/>
  <use fill-rule="evenodd" xlink:href="#reuse-95"/>
  <use stroke-linecap="round" stroke-linejoin="round" stroke-miterlimit="10" stroke-width=".12" xlink:href="#reuse-96"/>
  <use fill-rule="evenodd" xlink:href="#reuse-97"/>
  <use stroke-linecap="square" stroke-linejoin="bevel" stroke-miterlimit="10" stroke-width=".06" xlink:href="#reuse-98"/>
  <use fill-rule="evenodd" xlink:href="#reuse-99"/>
  <use stroke-linecap="round" stroke-linejoin="round" stroke-miterlimit="10" stroke-width=".12" xlink:href="#reuse-100"/>
  <use fill-rule="evenodd" xlink:href="#reuse-101"/>
  <use stroke-linecap="square" stroke-linejoin="bevel" stroke-miterlimit="10" stroke-width=".06" xlink:href="#reuse-102"/>
  <use fill-rule="evenodd" xlink:href="#reuse-103"/>
  <use stroke-linecap="round" stroke-linejoin="round" stroke-miterlimit="10" stroke-width=".12" xlink:href="#reuse-104"/>
  <use fill-rule="evenodd" xlink:href="#reuse-105"/>
  <use stroke-linecap="square" stroke-linejoin="bevel" stroke-miterlimit="10" stroke-width=".06" xlink:href="#reuse-106"/>
  <use fill-rule="evenodd" xlink:href="#reuse-107"/>
  <use stroke-linecap="round" stroke-linejoin="round" stroke-miterlimit="10" stroke-width=".12" xlink:href="#reuse-108"/>
  <use fill-rule="evenodd" xlink:href="#reuse-109"/>
  <use stroke-linecap="square" stroke-linejoin="bevel" stroke-miterlimit="10" stroke-width=".06" xlink:href="#reuse-110"/>
  <use fill-rule="evenodd" xlink:href="#reuse-111"/>
  <use stroke-linecap="round" stroke-linejoin="round" stroke-miterlimit="10" stroke-width=".12" xlink:href="#reuse-112"/>
  <use fill-rule="evenodd" xlink:href="#reuse-113"/>
  <use stroke-linecap="square" stroke-linejoin="bevel" stroke-miterlimit="10" stroke-width=".06" xlink:href="#reuse-114"/>
  <use fill-rule="evenodd" xlink:href="#reuse-115"/>
  <use stroke-linecap="round" stroke-linejoin="round" stroke-miterlimit="10" stroke-width=".12" xlink:href="#reuse-116"/>
  <use fill-rule="evenodd" xlink:href="#reuse-117"/>
  <use stroke-linecap="square" stroke-linejoin="bevel" stroke-miterlimit="10" stroke-width=".06" xlink:href="#reuse-118"/>
  <use fill-rule="evenodd" xlink:href="#reuse-119"/>
  <use stroke-linecap="round" stroke-linejoin="round" stroke-miterlimit="10" stroke-width=".12" xlink:href="#reuse-120"/>
  <use fill-rule="evenodd" xlink:href="#reuse-121"/>
  <use stroke-linecap="square" stroke-linejoin="bevel" stroke-miterlimit="10" stroke-width=".06" xlink:href="#reuse-122"/>
  <use fill-rule="evenodd" xlink:href="#reuse-123"/>
  <use stroke-linecap="round" stroke-linejoin="round" stroke-miterlimit="10" stroke-width=".12" xlink:href="#reuse-124"/>
  <use fill-rule="evenodd" xlink:href="#reuse-125"/>
  <use stroke-linecap="square" stroke-linejoin="bevel" stroke-miterlimit="10" stroke-width=".06" xlink:href="#reuse-126"/>
  <use fill-rule="evenodd" xlink:href="#reuse-127"/>
  <use stroke-linecap="round" stroke-linejoin="round" stroke-miterlimit="10" stroke-width=".12" xlink:href="#reuse-128"/>
  <use fill-rule="evenodd" xlink:href="#reuse-129"/>
  <use stroke-linecap="square" stroke-linejoin="bevel" stroke-miterlimit="10" stroke-width=".06" xlink:href="#reuse-130"/>
  <use x="324.029" y="182.396" fill="#505050" xlink:href="#OpAmp-Inverting-3Transistor-3_svg__ad"/>
  <use x="325.709" y="182.396" fill="#505050" xlink:href="#OpAmp-Inverting-3Transistor-3_svg__ae"/>
  <use x="327.269" y="182.396" fill="#505050" xlink:href="#OpAmp-Inverting-3Transistor-3_svg__af"/>
  <path fill="none" stroke="#000" stroke-linecap="round" stroke-linejoin="round" stroke-miterlimit="10" stroke-width=".12" d="M254.379 181.262h86.34m0 0V238.8m0 0h-86.34m0 0v-57.538"/>
</svg>
