<svg xmlns:xlink="http://www.w3.org/1999/xlink" width="595pt" height="560" viewBox="0 0 595 420"><defs><symbol overflow="visible" id="a"><path d="M1.688.813h-.282V0H1.11v.813H.063v.328l1.046 1.203h.297V1.063h.282zm-.579.25v.921l-.796-.921zm0 0"/></symbol><symbol overflow="visible" id="b"><path d="M.672 0H.297v.453h.375zm0 0"/></symbol><symbol overflow="visible" id="c"><path d="M1.656 2L.625 0H.297l1.078 2.078H.156v.266h1.5zm0 0"/></symbol><symbol overflow="visible" id="d"><path d="M1.688.922c0-.293-.07-.524-.204-.688a.663.663 0 0 0-.53-.265.791.791 0 0 0-.438.125v-.75H.219v2.422h.297v-.188c.07.063.156.117.25.172a.63.63 0 0 0 .28.063.57.57 0 0 0 .485-.235c.102-.168.157-.387.157-.656zM1.39.89c0 .207-.032.363-.094.468a.356.356 0 0 1-.313.172.515.515 0 0 1-.25-.062.798.798 0 0 1-.218-.14v-1A.53.53 0 0 1 .719.25.862.862 0 0 1 .906.234a.44.44 0 0 1 .36.172c.082.102.125.266.125.485zm0 0"/></symbol><symbol overflow="visible" id="e"><path d="M1.64 2.078H.548v-.672h1.047v-.281H.547V0H.234v2.344h1.407zm0 0"/></symbol><symbol overflow="visible" id="f"><path d="M1.5 0H.36v.234h.42v1.579H.36v.218c.157 0 .274.02.36.063.07.05.113.14.125.265h.25V.234H1.5zm0 0"/></symbol><symbol overflow="visible" id="g"><path d="M1.594 0h-.297v1.234a1.104 1.104 0 0 1-.047.172.411.411 0 0 1-.11.094.454.454 0 0 1-.39-.031 1.066 1.066 0 0 1-.234-.156V0H.219v1.766h.297v-.204a.918.918 0 0 0 .265.188c.082.04.172.063.266.063a.5.5 0 0 0 .406-.172c.094-.118.14-.282.14-.5zm0 0"/></symbol><symbol overflow="visible" id="h"><path d="M1.594 0h-.297v.203A1.115 1.115 0 0 0 1.03.016a.674.674 0 0 0-.484-.032.527.527 0 0 0-.188.125.38.38 0 0 0-.109.204.893.893 0 0 0-.047.312v1.14H.5v-1C.5.673.504.595.516.532A.32.32 0 0 1 .562.36.183.183 0 0 1 .656.266.346.346 0 0 1 .828.234c.07 0 .149.02.235.063.082.039.16.094.234.156v1.313h.297zm0 0"/></symbol><symbol overflow="visible" id="s"><path d="M.89-.047a1.46 1.46 0 0 0-.437.063C.336.046.227.086.125.14v.39h.016C.242.437.363.363.5.312A.923.923 0 0 1 .875.234c.164 0 .297.036.39.11.083.062.126.156.126.281a.364.364 0 0 1-.063.219.483.483 0 0 1-.219.14c-.074.02-.14.036-.203.047a1.001 1.001 0 0 0-.219.063.95.95 0 0 0-.218.078.386.386 0 0 0-.172.125.38.38 0 0 0-.11.187.522.522 0 0 0-.046.235c0 .187.07.347.218.484.145.125.336.188.579.188.125 0 .242-.012.359-.032.125-.03.234-.07.328-.109v-.375h-.016a1.215 1.215 0 0 1-.296.172.889.889 0 0 1-.36.078.579.579 0 0 1-.36-.11.308.308 0 0 1-.124-.265.34.34 0 0 1 .078-.234.371.371 0 0 1 .219-.125c.07-.024.156-.043.25-.063.093-.023.171-.043.234-.062.164-.055.285-.125.36-.22a.661.661 0 0 0 .109-.374.885.885 0 0 0-.047-.282.821.821 0 0 0-.156-.22.779.779 0 0 0-.266-.155.941.941 0 0 0-.36-.063zm0 0"/></symbol><symbol overflow="visible" id="t"><path d="M1.719 1.64a.782.782 0 0 0-.047-.28.793.793 0 0 0-.438-.423A1.231 1.231 0 0 0 .813.875H.546V0H.234v2.344h.594c.133 0 .254-.012.36-.031a.777.777 0 0 0 .469-.328.9.9 0 0 0 .062-.344zm-.328 0a.69.69 0 0 1-.032.204.491.491 0 0 1-.125.156.534.534 0 0 1-.171.063 2.314 2.314 0 0 1-.25.015H.546v-.937h.219c.125 0 .226.007.312.03.07.02.133.056.188.11.039.051.07.102.093.157.02.05.032.117.032.203zm0 0"/></symbol><symbol overflow="visible" id="u"><path d="M-.016 0l.797 2.344h.375L1.953 0h-.328l-.219.656h-.89L.296 0zm1.344.922l-.36 1.11L.595.921zm0 0"/></symbol><symbol overflow="visible" id="v"><path d="M2.094 1.172c0-.219-.043-.414-.125-.578a1.049 1.049 0 0 0-.36-.406A1.211 1.211 0 0 0 1.25.03 2.651 2.651 0 0 0 .781 0H.234v2.344h.547c.219 0 .39-.016.516-.047a1.14 1.14 0 0 0 .312-.125c.157-.106.274-.242.36-.406.082-.168.125-.368.125-.594zm-.328 0c0 .187-.032.344-.094.469a.63.63 0 0 1-.266.296.979.979 0 0 1-.265.11 1.72 1.72 0 0 1-.344.031h-.25V.266h.25c.133 0 .254.007.36.03a.783.783 0 0 1 .531.422c.05.126.078.274.078.454zm0 0"/></symbol><symbol overflow="visible" id="w"><path d="M1.922 0h-.36L.532 2.031V0H.233v2.344h.454l.937-1.86v1.86h.297zm0 0"/></symbol><symbol overflow="visible" id="x"><path d="M.781 0v2.078H0v.266h1.89v-.266h-.796V0zm0 0"/></symbol><symbol overflow="visible" id="y"><path d="M1.156-.047C1-.047.86-.02.734.031a.724.724 0 0 0-.328.235A1.045 1.045 0 0 0 .187.64a1.6 1.6 0 0 0-.078.53c0 .196.024.368.079.516.039.145.109.274.203.391.093.102.207.18.343.235.125.05.266.078.422.078.082 0 .16-.008.235-.016.062-.012.125-.027.187-.047a1.36 1.36 0 0 0 .156-.047l.157-.094v-.374h-.032a.388.388 0 0 1-.109.093.69.69 0 0 1-.156.11 1.041 1.041 0 0 1-.188.078.972.972 0 0 1-.25.031.702.702 0 0 1-.516-.234.738.738 0 0 1-.156-.313 1.168 1.168 0 0 1-.062-.406c0-.156.02-.293.062-.406A.815.815 0 0 1 .641.469.655.655 0 0 1 .875.28a.885.885 0 0 1 .281-.047c.094 0 .176.008.25.032a.76.76 0 0 1 .203.078.586.586 0 0 1 .157.11 1 1 0 0 1 .093.077h.032V.156A2.829 2.829 0 0 1 1.75.094 1.758 1.758 0 0 0 1.578.03a1.16 1.16 0 0 0-.187-.062 1.847 1.847 0 0 0-.235-.016zm0 0"/></symbol><symbol overflow="visible" id="z"><path d="M1.625 0H.172v.328C.273.43.375.523.469.61c.094.094.18.188.265.282.176.195.301.359.375.484a.737.737 0 0 1 .094.36.428.428 0 0 1-.11.297.814.814 0 0 1-.14.077.841.841 0 0 1-.156.016c-.055 0-.11-.008-.172-.016a4.337 4.337 0 0 0-.156-.062.342.342 0 0 1-.125-.063 2.172 2.172 0 0 1-.11-.062H.22v.344c.062.03.156.062.281.093.113.032.223.047.328.047.219 0 .39-.058.516-.172a.66.66 0 0 0 .187-.484.95.95 0 0 0-.031-.25 2.037 2.037 0 0 0-.094-.219c-.043-.062-.09-.133-.14-.203a1.746 1.746 0 0 0-.172-.203L.766.547A12.592 12.592 0 0 1 .469.266h1.156zm0 0"/></symbol><symbol overflow="visible" id="A"><path d="M.813 2.125c-.063 0-.122-.008-.172-.016l-.172-.062a2.172 2.172 0 0 1-.234-.125H.218v.328a1 1 0 0 0 .281.11 1.232 1.232 0 0 0 .61.015c.081-.031.156-.07.218-.11a.799.799 0 0 0 .156-.187.57.57 0 0 0 .047-.25.485.485 0 0 0-.125-.328.486.486 0 0 0-.297-.188v-.03l.157-.048a.602.602 0 0 0 .156-.109.651.651 0 0 0 .11-.172.83.83 0 0 0 0-.547A.774.774 0 0 0 1.125 0a1.039 1.039 0 0 0-.33-.047C.68-.047.567-.03.454 0a.83.83 0 0 0-.297.094v.328h.016A1.06 1.06 0 0 1 .438.297.774.774 0 0 1 .78.219c.064 0 .126.008.19.031a.31.31 0 0 1 .156.11c.05.038.086.093.11.156a.58.58 0 0 1 .03.203.487.487 0 0 1-.046.219.34.34 0 0 1-.094.125.376.376 0 0 1-.156.062 1.65 1.65 0 0 1-.203.016H.64v.265h.093a.57.57 0 0 1 .344.094c.094.07.14.172.14.297a.37.37 0 0 1-.03.156.415.415 0 0 1-.219.156c-.055.008-.106.016-.157.016zm0 0"/></symbol><symbol overflow="visible" id="i"><path d="M1.984 0H.204v.406C.335.52.46.633.577.75a9.3 9.3 0 0 0 .328.344c.219.238.364.43.438.578a.911.911 0 0 1 .125.453.69.69 0 0 1-.032.203.69.69 0 0 1-.109.156.476.476 0 0 1-.156.094 1.517 1.517 0 0 1-.188.016c-.074 0-.148-.008-.218-.016l-.204-.062a1.165 1.165 0 0 0-.156-.079.671.671 0 0 0-.11-.093h-.03v.422c.082.03.195.066.343.109.133.04.266.063.391.063.27 0 .484-.075.64-.22a.793.793 0 0 0 .22-.577 1.51 1.51 0 0 0-.032-.313 2.355 2.355 0 0 0-.11-.266 3.548 3.548 0 0 0-.171-.25 4.386 4.386 0 0 0-.219-.234A3.623 3.623 0 0 0 .922.672L.578.328h1.406zm0 0"/></symbol><symbol overflow="visible" id="j"><path d="M2.047 0h-.469L.766 1.047.625.907V0h-.36v3h.36V1.25l.86.906h.452l-.89-.906zm0 0"/></symbol><symbol overflow="visible" id="k"><path d="M2.063.984h-.344V0h-.375v.984H.078v.407L1.36 2.875h.36V1.297h.343zm-.72.313v1.125L.376 1.297zm0 0"/></symbol><symbol overflow="visible" id="l"><path d="M2.016 2.438L.766 0H.359l1.313 2.531H.188v.344h1.828zm0 0"/></symbol><symbol overflow="visible" id="r"><path d="M.828 0H.36v.547h.47zm0 0"/></symbol><symbol overflow="visible" id="F"><path d="M2.516 0h-.5l-.907 1.14H.672V0H.297v2.875h.734c.164 0 .305-.012.422-.031a1.09 1.09 0 0 0 .313-.125.722.722 0 0 0 .328-.625.9.9 0 0 0-.156-.531.946.946 0 0 0-.438-.313zm-.829 2.063a.6.6 0 0 1-.046.234.32.32 0 0 1-.125.156 1.54 1.54 0 0 1-.204.078 2.497 2.497 0 0 1-.265.016H.672V1.469h.344c.101 0 .203.004.296.015.083.02.157.063.22.125.05.051.093.114.124.188.02.082.032.172.032.266zm0 0"/></symbol><symbol overflow="visible" id="G"><path d="M1.844 0H.437v.297h.516v1.922H.438v.265c.195 0 .343.024.437.079.094.05.145.16.156.328h.297V.297h.516zm0 0"/></symbol><symbol overflow="visible" id="m"><path d="M2.016 0H.219v.406l.36.36c.112.101.226.218.343.343.219.25.367.446.453.594.07.145.113.297.125.453a.487.487 0 0 1-.047.219.602.602 0 0 1-.11.156.629.629 0 0 1-.344.11.822.822 0 0 1-.218-.032.685.685 0 0 1-.203-.062 1.166 1.166 0 0 1-.156-.078C.367 2.438.328 2.41.297 2.39H.28v.406c.07.039.18.082.328.125.145.039.286.062.422.062.258 0 .469-.074.625-.218.157-.149.235-.344.235-.594a1.51 1.51 0 0 0-.032-.313 2.355 2.355 0 0 0-.109-.265 2.195 2.195 0 0 0-.188-.25 4.057 4.057 0 0 0-.203-.25 7.154 7.154 0 0 0-.42-.421 7.96 7.96 0 0 0-.36-.344h1.438zm0 0"/></symbol><symbol overflow="visible" id="n"><path d="M2.39 0h-.437L.656 2.516V0h-.36v2.922h.548L2.016.609v2.313h.375zm0 0"/></symbol><symbol overflow="visible" id="o"><path d="M1.625 1.719c0 .195-.016.36-.047.484a.918.918 0 0 1-.156.297.421.421 0 0 1-.172.125.629.629 0 0 1-.188.031.479.479 0 0 1-.39-.172c-.094-.117-.14-.28-.14-.5a.76.76 0 0 1 .046-.296.505.505 0 0 1 .156-.22.25.25 0 0 1 .157-.077 1.004 1.004 0 0 1 .484.031c.094.02.176.055.25.11v.187zm-1.5.25c0 .156.023.289.078.406.05.125.117.234.203.328.082.082.18.149.297.203a.875.875 0 0 0 .719 0 .713.713 0 0 0 .281-.187 1.21 1.21 0 0 0 .234-.422 2.01 2.01 0 0 0 .094-.656c0-.25-.031-.48-.094-.688a1.639 1.639 0 0 0-.234-.547 1.257 1.257 0 0 0-.406-.344 1.24 1.24 0 0 0-.578-.124c-.055 0-.11.007-.172.015a.358.358 0 0 0-.156.031V.36h.015A.321.321 0 0 1 .562.313.569.569 0 0 1 .766.28c.257 0 .46.082.609.25.145.164.227.406.25.719a1.549 1.549 0 0 0-.297-.14.825.825 0 0 0-.312-.063.83.83 0 0 0-.297.047.663.663 0 0 0-.266.125.745.745 0 0 0-.234.312.963.963 0 0 0-.094.438zm0 0"/></symbol><symbol overflow="visible" id="p"><path d="M1.86 0H.436v.297H.97V2.25H.438v.266c.195 0 .347.03.453.093.093.051.144.157.156.313h.297V.297h.515zm0 0"/></symbol><symbol overflow="visible" id="q"><path d="M1.594 2.234a.426.426 0 0 1-.14.329.46.46 0 0 1-.36.14.464.464 0 0 1-.344-.125.378.378 0 0 1-.14-.312c0-.094.019-.18.062-.25a.724.724 0 0 1 .219-.172.509.509 0 0 1 .187-.094.822.822 0 0 1 .219-.094.699.699 0 0 1 .234.266c.04.094.063.195.063.312zM1.64.781a.599.599 0 0 1-.063.281.934.934 0 0 1-.281.22l-.172.077a3.457 3.457 0 0 1-.25.094.694.694 0 0 1-.25-.25.873.873 0 0 1-.078-.375.555.555 0 0 1 .156-.437.494.494 0 0 1 .39-.172c.165 0 .302.05.407.156.094.094.14.227.14.406zm-.547-.844c-.149 0-.278.024-.39.063A.722.722 0 0 0 .39.188a.598.598 0 0 0-.188.28.883.883 0 0 0-.062.344.8.8 0 0 0 .125.438.947.947 0 0 0 .375.313v.015a.788.788 0 0 0-.329.266.703.703 0 0 0-.093.375c0 .219.082.398.25.547a.917.917 0 0 0 .625.218c.258 0 .472-.07.64-.203a.706.706 0 0 0 .235-.531.787.787 0 0 0-.11-.39.658.658 0 0 0-.328-.298v-.015a1.25 1.25 0 0 0 .39-.297.742.742 0 0 0 .126-.438c0-.25-.09-.46-.266-.625a.994.994 0 0 0-.687-.25zm0 0"/></symbol><symbol overflow="visible" id="E"><path d="M.984 0v2.578H0v.344h2.344v-.344h-.985V0zm0 0"/></symbol><symbol overflow="visible" id="B"><path d="M0 2.063v-.407l-.938-.75v-.36H0V.235h-2.344v.61c0 .133.008.25.016.344a.68.68 0 0 0 .094.25.897.897 0 0 0 .218.203.709.709 0 0 0 .297.062c.18 0 .324-.043.438-.125a.791.791 0 0 0 .265-.36zm-1.688-.672a1.095 1.095 0 0 1-.187-.047.281.281 0 0 1-.125-.11.376.376 0 0 1-.063-.156A1.74 1.74 0 0 1-2.078.86V.547h.875v.281c0 .082-.004.16-.016.235a.53.53 0 0 1-.093.187.613.613 0 0 1-.157.11c-.062.007-.133.019-.218.03zm0 0"/></symbol><symbol overflow="visible" id="C"><path d="M0 1.625V.172h-.328A9.33 9.33 0 0 0-.61.469c-.094.094-.188.18-.282.265a3.248 3.248 0 0 1-.484.375.737.737 0 0 1-.36.094.428.428 0 0 1-.297-.11.814.814 0 0 1-.077-.14.841.841 0 0 1-.016-.156c0-.055.008-.11.016-.172.023-.055.043-.105.062-.156a.342.342 0 0 1 .063-.125 2.76 2.76 0 0 1 .062-.11V.22h-.344a1.453 1.453 0 0 0-.092.28 1.232 1.232 0 0 0-.047.328c0 .219.058.39.172.516a.66.66 0 0 0 .484.187.95.95 0 0 0 .25-.031 2.08 2.08 0 0 0 .219-.094c.062-.043.133-.09.203-.14.074-.055.14-.11.203-.172l.328-.328C-.43.64-.336.539-.266.469v1.156zm0 0"/></symbol><symbol overflow="visible" id="D"><path d="M-2.125.813c0-.063.008-.122.016-.172l.062-.172a2.172 2.172 0 0 1 .125-.234V.218h-.328A1 1 0 0 0-2.36.5a1.232 1.232 0 0 0-.015.61c.031.081.07.156.11.218a.799.799 0 0 0 .187.156.57.57 0 0 0 .25.047.485.485 0 0 0 .328-.125.486.486 0 0 0 .188-.297h.03l.048.157c.023.05.058.101.109.156a.68.68 0 0 0 .172.11.83.83 0 0 0 .547 0A.774.774 0 0 0 0 1.125a1.06 1.06 0 0 0 .047-.33C.047.68.03.567 0 .454A.83.83 0 0 0-.094.156h-.328v.016c.043.062.086.148.125.266A.774.774 0 0 1-.219.78.525.525 0 0 1-.25.97a.31.31 0 0 1-.11.156.345.345 0 0 1-.156.11.568.568 0 0 1-.203.03.487.487 0 0 1-.219-.046.34.34 0 0 1-.125-.094.376.376 0 0 1-.062-.156 1.65 1.65 0 0 1-.016-.203V.64h-.265v.093a.57.57 0 0 1-.094.344.353.353 0 0 1-.297.14.37.37 0 0 1-.156-.03.415.415 0 0 1-.156-.219c-.008-.055-.016-.106-.016-.157zm0 0"/></symbol><symbol overflow="visible" id="H"><path d="M-.984.906V-.906h-.204V.906zm0 0"/></symbol><symbol overflow="visible" id="I"><path d="M-.906 2.11v-.797h.797v-.266h-.797V.25h-.25v.797h-.797v.266h.797v.796zm0 0"/></symbol><symbol overflow="visible" id="J"><path d="M0-.016l-2.344.797v.375L0 1.953v-.328l-.656-.219v-.89L0 .296zm-.922 1.344l-1.11-.36 1.11-.374zm0 0"/></symbol><symbol overflow="visible" id="K"><path d="M0 1.922v-.36L-2.031.532H0V.233h-2.344v.454l1.86.937h-1.86v.297zm0 0"/></symbol><symbol overflow="visible" id="L"><path d="M0 .781h-2.078V0h-.266v1.89h.266v-.796H0zm0 0"/></symbol><symbol overflow="visible" id="M"><path d="M0 1.063V.14h-.234v.312H-2.11V.141h-.235v.921h.235V.766h1.875v.296zm0 0"/></symbol><symbol overflow="visible" id="N"><path d="M-.89 1.031v-.89h-.282v.89zm0 0"/></symbol><symbol overflow="visible" id="O"><path d="M.172 0v1.75h1.094v-.203h-.86v-.484h.813V.859H.406V.203h.86V0zm0 0"/></symbol><symbol overflow="visible" id="P"><path d="M.86-.031A.796.796 0 0 0 .546.03a.536.536 0 0 0-.25.172.582.582 0 0 0-.156.281 1.093 1.093 0 0 0-.063.391c0 .145.02.27.063.375.03.113.082.21.156.297.07.07.156.129.25.172a.796.796 0 0 0 .312.062c.063 0 .118-.008.172-.015.051-.012.098-.024.14-.032a.462.462 0 0 0 .11-.046 1 1 0 0 0 .125-.047v-.282H1.39a.245.245 0 0 0-.079.063c-.03.02-.074.047-.125.078-.042.02-.09.04-.14.063a1.296 1.296 0 0 1-.188.015.444.444 0 0 1-.203-.047.584.584 0 0 1-.187-.125.936.936 0 0 1-.11-.234.861.861 0 0 1-.046-.297c0-.125.015-.23.046-.313A.667.667 0 0 1 .484.345.282.282 0 0 1 .656.219.444.444 0 0 1 .86.172c.07 0 .133.004.188.016a.873.873 0 0 1 .156.062c.04.031.078.055.11.078.03.031.054.05.078.063h.015V.125a2.173 2.173 0 0 1-.11-.063L1.173.017c-.055-.012-.102-.02-.14-.032A.957.957 0 0 0 .858-.03zm0 0"/></symbol><symbol overflow="visible" id="Q"><path d="M1.36.531a.476.476 0 0 0-.048-.219.418.418 0 0 0-.125-.171A.675.675 0 0 0 .97.03 1.028 1.028 0 0 0 .672 0h-.5v1.75H.64c.125 0 .218-.008.28-.016a.534.534 0 0 0 .173-.062.34.34 0 0 0 .14-.125.371.371 0 0 0 .047-.188.4.4 0 0 0-.062-.218.353.353 0 0 0-.188-.157V.97a.548.548 0 0 0 .25-.156.488.488 0 0 0 .08-.284zm-.313.797a.21.21 0 0 1-.031.11.1.1 0 0 1-.063.062 1 1 0 0 1-.125.047H.406V1.03h.266c.07 0 .125.004.156.016a.27.27 0 0 1 .11.047c.039.02.066.05.078.093.02.032.03.079.03.141zm.078-.797a.37.37 0 0 1-.031.156.324.324 0 0 1-.11.11A1 1 0 0 1 .86.844H.406v-.64h.188c.101 0 .187.003.25.015.05.008.101.023.156.047.04.03.07.066.094.109.02.04.031.094.031.156zm0 0"/></symbol><symbol overflow="visible" id="R"><path d="M.672-.031a.942.942 0 0 0-.328.047.792.792 0 0 0-.25.093v.282h.015A.587.587 0 0 1 .375.234.667.667 0 0 1 .656.172c.125 0 .219.023.281.078.063.05.094.125.094.219a.256.256 0 0 1-.047.156.278.278 0 0 1-.156.11.995.995 0 0 0-.156.03A1.322 1.322 0 0 0 .5.813a.41.41 0 0 0-.156.063.254.254 0 0 0-.125.094.18.18 0 0 0-.078.125.45.45 0 0 0-.032.187.46.46 0 0 0 .157.36.64.64 0 0 0 .421.14c.102 0 .196-.011.282-.031.082-.023.164-.047.25-.078V1.39h-.032a.927.927 0 0 1-.203.14.885.885 0 0 1-.28.047.446.446 0 0 1-.266-.078.244.244 0 0 1-.094-.188c0-.085.02-.148.062-.187a.347.347 0 0 1 .172-.094L.75.984A1.04 1.04 0 0 1 .938.938a.488.488 0 0 0 .265-.172A.463.463 0 0 0 1.281.5a.444.444 0 0 0-.047-.203.337.337 0 0 0-.109-.172.521.521 0 0 0-.188-.11.687.687 0 0 0-.265-.046zm0 0"/></symbol></defs><use xlink:href="#a" x="287.463" y="193.724" fill="#505050"/><use xlink:href="#b" x="289.203" y="193.724" fill="#505050"/><use xlink:href="#c" x="290.163" y="193.724" fill="#505050"/><use xlink:href="#d" x="291.903" y="193.724" fill="#505050"/><use xlink:href="#e" x="293.703" y="193.724" fill="#505050"/><use xlink:href="#f" x="311.736" y="186.535" fill="#505050"/><use xlink:href="#g" x="313.477" y="186.535" fill="#505050"/><use xlink:href="#e" x="315.277" y="186.535" fill="#505050"/><use xlink:href="#f" x="322.53" y="209.305" fill="#505050"/><use xlink:href="#h" x="324.27" y="209.305" fill="#505050"/><use xlink:href="#e" x="326.07" y="209.305" fill="#505050"/><use xlink:href="#i" x="326.017" y="217.286" fill="#505050"/><use xlink:href="#i" x="328.177" y="217.286" fill="#505050"/><use xlink:href="#j" x="330.338" y="217.286" fill="#505050"/><use xlink:href="#k" x="318.826" y="217.286" fill="#505050"/><use xlink:href="#l" x="320.986" y="217.286" fill="#505050"/><use xlink:href="#j" x="323.146" y="217.286" fill="#505050"/><use xlink:href="#m" x="311.923" y="195.645" fill="#505050"/><use xlink:href="#n" x="314.143" y="195.645" fill="#505050"/><use xlink:href="#o" x="316.843" y="195.645" fill="#505050"/><use xlink:href="#p" x="319.063" y="195.645" fill="#505050"/><use xlink:href="#q" x="321.283" y="195.645" fill="#505050"/><use xlink:href="#i" x="287.473" y="194.207" fill="#505050"/><use xlink:href="#r" x="289.633" y="194.207" fill="#505050"/><use xlink:href="#i" x="290.833" y="194.207" fill="#505050"/><use xlink:href="#s" x="268.471" y="195.645" fill="#505050"/><use xlink:href="#t" x="270.271" y="195.645" fill="#505050"/><use xlink:href="#u" x="272.071" y="195.645" fill="#505050"/><use xlink:href="#v" x="273.991" y="195.645" fill="#505050"/><use xlink:href="#s" x="268.471" y="231.593" fill="#505050"/><use xlink:href="#t" x="270.271" y="231.593" fill="#505050"/><use xlink:href="#u" x="272.071" y="231.593" fill="#505050"/><use xlink:href="#v" x="273.991" y="231.593" fill="#505050"/><use xlink:href="#u" x="269.371" y="210.024" fill="#505050"/><use xlink:href="#w" x="271.291" y="210.024" fill="#505050"/><use xlink:href="#x" x="273.451" y="210.024" fill="#505050"/><use xlink:href="#s" x="318.87" y="193.365" fill="#505050"/><use xlink:href="#t" x="320.67" y="193.365" fill="#505050"/><use xlink:href="#u" x="322.47" y="193.365" fill="#505050"/><use xlink:href="#v" x="324.39" y="193.365" fill="#505050"/><use xlink:href="#s" x="318.87" y="186.175" fill="#505050"/><use xlink:href="#t" x="320.67" y="186.175" fill="#505050"/><use xlink:href="#u" x="322.47" y="186.175" fill="#505050"/><use xlink:href="#v" x="324.39" y="186.175" fill="#505050"/><use xlink:href="#y" x="291.788" y="209.665" fill="#505050"/><use xlink:href="#z" x="293.708" y="209.665" fill="#505050"/><use xlink:href="#y" x="313.361" y="202.475" fill="#505050"/><use xlink:href="#A" x="315.281" y="202.475" fill="#505050"/><use xlink:href="#y" x="312.757" y="200.734" fill="#505050"/><use xlink:href="#a" x="314.677" y="200.734" fill="#505050"/><use xlink:href="#B" x="323.849" y="218.888" fill="#505050"/><use xlink:href="#C" x="323.849" y="220.928" fill="#505050"/><use xlink:href="#B" x="316.658" y="218.888" fill="#505050"/><use xlink:href="#D" x="316.658" y="220.928" fill="#505050"/><use xlink:href="#E" x="294.418" y="194.202" fill="#505050"/><use xlink:href="#p" x="296.758" y="194.202" fill="#505050"/><use xlink:href="#F" x="281.414" y="194.262" fill="#505050"/><use xlink:href="#G" x="283.874" y="194.262" fill="#505050"/><g fill="#505050"><use xlink:href="#H" x="269.196" y="192.05"/><use xlink:href="#H" x="269.196" y="192.05"/></g><use xlink:href="#I" x="269.196" y="226.798" fill="#505050"/><use xlink:href="#J" x="269.196" y="203.429" fill="#505050"/><use xlink:href="#K" x="269.196" y="205.349" fill="#505050"/><use xlink:href="#L" x="269.196" y="207.509" fill="#505050"/><use xlink:href="#M" x="328.164" y="196.42" fill="#505050"/><use xlink:href="#K" x="328.164" y="197.62" fill="#505050"/><use xlink:href="#I" x="328.164" y="199.78" fill="#505050"/><use xlink:href="#M" x="328.164" y="189.77" fill="#505050"/><use xlink:href="#K" x="328.164" y="190.97" fill="#505050"/><use xlink:href="#N" x="328.164" y="193.13" fill="#505050"/><path d="M293.922 199.262v2.636m0 4.5V203.7m21.598-11.641v2.64m0 4.563V196.5" fill="none" stroke-width=".48" stroke-linecap="round" stroke-linejoin="round" stroke="#505050" stroke-miterlimit="10"/><path d="M322.719 206.398h-2.34m0 0v1.98m0 .001h-.899m0 0v-3.899m0 0h.899m0 0v1.918m-4.859 0h2.34m0 0v-1.918m0 0h.84m0 0v3.899m0 0h-.84m0 0v-1.98" fill="none" stroke-width=".24" stroke-linecap="round" stroke-linejoin="round" stroke="#505050" stroke-miterlimit="10"/><path d="M322.719 228v-2.52m0-11.878v2.52M315.52 228v-2.52m0-11.878v2.52" fill="none" stroke-width=".72" stroke-linecap="round" stroke-linejoin="round" stroke="#505050" stroke-miterlimit="10"/><use xlink:href="#O" x="306.288" y="199.958" fill="#505050"/><use xlink:href="#P" x="301.855" y="203.97" fill="#505050"/><use xlink:href="#Q" x="306.168" y="203.97" fill="#505050"/><use xlink:href="#R" x="301.855" y="199.958" fill="#505050"/><path d="M286.781 197.82v-5.761" fill="none" stroke-width=".72" stroke-linecap="round" stroke-linejoin="round" stroke="#505050" stroke-miterlimit="10"/><path d="M284.98 197.82l.122.66.296.54.543.421.66.18.66-.062.598-.297.422-.543.239-.598v-.66l-.239-.602-.422-.48-.597-.3-.66-.06-.66.18-.544.422-.296.54-.122.66h.418l.063.48.3.418.36.3.48.122h.54l.418-.243.363-.359.18-.48v-.48l-.18-.477-.363-.364-.418-.238-.54-.059-.48.118-.36.3-.3.422-.063.54h-.418" fill-rule="evenodd" fill="#505050"/><path d="M284.98 197.82l.122.66.296.54.543.421.66.18.66-.062.598-.297.422-.543.239-.598v-.66l-.239-.602-.422-.48-.597-.3-.66-.06-.66.18-.544.422-.296.54-.122.66h.418l.063.48.3.418.36.3.48.122h.54l.418-.243.363-.359.18-.48v-.48l-.18-.477-.363-.364-.418-.238-.54-.059-.48.118-.36.3-.3.422-.063.54zm0 0" fill="none" stroke-width=".12" stroke-linecap="round" stroke-linejoin="round" stroke="#505050" stroke-miterlimit="10"/><path d="M284.8 197.82c0-1.058.86-1.922 1.919-1.922a1.92 1.92 0 1 1-1.918 1.922zm0 0" fill="none" stroke-width=".18" stroke-linecap="round" stroke-linejoin="round" stroke="#505050" stroke-miterlimit="10"/><path d="M296.441 206.762l-.12.718-.423.66-.539.481-.66.238-.777.063m2.519-10.024v7.864m-2.519-10.024h.656l.543.184.54.36.417.48.242.539.121.597" fill="none" stroke-width=".48" stroke-linecap="round" stroke-linejoin="round" stroke="#505050" stroke-miterlimit="10"/><path d="M295.36 203.7h-2.88m2.88-1.802h-2.88" fill="none" stroke-width=".9" stroke-linecap="round" stroke-linejoin="round" stroke="#505050" stroke-miterlimit="10"/><path d="M291.398 198.898l.18-.597.242-.54.418-.48.543-.36.54-.183h.6m-2.523 10.024v-7.864m2.524 10.024h-.602l-.539-.184-.543-.36-.418-.417-.242-.602-.18-.597m26.642-7.141l-.18.719-.36.601-.602.48-.66.298-.718.062m2.52-10.081v7.921m-2.52-10.081h.601l.598.241.48.297.422.48.3.544.118.597" fill="none" stroke-width=".48" stroke-linecap="round" stroke-linejoin="round" stroke="#505050" stroke-miterlimit="10"/><path d="M316.96 196.5h-2.882m2.882-1.8h-2.882" fill="none" stroke-width=".9" stroke-linecap="round" stroke-linejoin="round" stroke="#505050" stroke-miterlimit="10"/><path d="M313 191.7l.121-.598.3-.543.419-.48.48-.298.602-.242h.598M313 199.621V191.7m2.52 10.081l-.598-.062-.602-.18-.48-.36-.418-.417-.3-.543-.122-.598" fill="none" stroke-width=".48" stroke-linecap="round" stroke-linejoin="round" stroke="#505050" stroke-miterlimit="10"/><path d="M321.281 203.762h-.36m.001.359v-.36m0 .001h-.363m.363 0v-.364" fill="none" stroke-width=".24" stroke-linecap="round" stroke-linejoin="round" stroke="#505050" stroke-miterlimit="10"/><path d="M314.738 206.398a4.324 4.324 0 0 1 4.32-4.32 4.32 4.32 0 1 1-4.32 4.32zm0 0" fill="none" stroke-width=".36" stroke-linecap="round" stroke-linejoin="round" stroke="#505050" stroke-miterlimit="10"/><path d="M318.578 204.48h-.598v3.84h.598zm0 0" fill="#505050" stroke-width=".12" stroke-linecap="round" stroke-linejoin="round" stroke="#505050" stroke-miterlimit="10"/><path d="M286.781 225.84l-.12.781-.24.777-.48.66-.543.602-.66.418-.777.242-.781.121" fill="none" stroke-width=".36" stroke-linecap="round" stroke-linejoin="round" stroke="#505050" stroke-miterlimit="10"/><path d="M283.18 229.441l-.84-.12-.719-.243-.723-.418-.539-.601-.418-.66-.3-.778-.063-.781m7.203-2.16l-.12.78-.24.778-.48.66-.543.602-.66.422-.777.238-.781.121" fill="none" stroke-width=".36" stroke-linecap="round" stroke-linejoin="round" stroke="#505050" stroke-miterlimit="10"/><path d="M283.18 227.281l-.84-.12-.719-.24-.723-.421-.539-.602-.418-.66-.3-.777-.063-.781m7.203-2.16l-.12.78-.24.778-.48.66-.543.602-.66.422-.777.297-.781.062" fill="none" stroke-width=".36" stroke-linecap="round" stroke-linejoin="round" stroke="#505050" stroke-miterlimit="10"/><path d="M283.18 225.121l-.84-.062-.719-.297-.723-.422-.539-.602-.418-.66-.3-.777-.063-.781m7.203-2.16l-.12.84-.24.722-.48.719-.543.539-.66.422-.777.296-.781.063m0-.001l-.84-.062-.719-.296-.723-.422-.539-.54-.418-.718-.3-.723-.063-.84m7.203-2.159l-.12.84-.24.722-.48.718-.543.54-.66.421-.777.297-.781.063m0-.001l-.84-.062-.719-.297-.723-.421-.539-.54-.418-.718-.3-.723-.063-.84m7.203-2.159l-.12.839-.24.723-.48.718-.543.54-.66.421-.777.297-.781.063m0-.001l-.84-.062-.719-.297-.723-.422-.539-.539-.418-.718-.3-.723-.063-.84m7.203-2.16l-.12.84-.24.722-.48.72-.543.538-.66.422-.777.3-.781.06m0-.001l-.84-.058-.719-.3-.723-.423-.539-.539-.418-.719-.3-.722-.063-.84m0 0l.063-.777.3-.782.418-.66.54-.601.722-.418.719-.243.84-.117m3.601 3.598v-6.48m-7.203 19.441V228" fill="none" stroke-width=".36" stroke-linecap="round" stroke-linejoin="round" stroke="#505050" stroke-miterlimit="10"/><path d="M320.922 217.922l.058-.242.122-.239.238-.18.3-.062m2.16.001l.24.062.241.18.18.238.059.242m0 5.758l-.06.3-.179.239-.242.12-.238.06m-2.161-.001l-.3-.058-.238-.121-.122-.239-.058-.3" fill="none" stroke-width=".48" stroke-linecap="round" stroke-linejoin="round" stroke="#505050" stroke-miterlimit="10"/><path d="M320.922 217.922l.058-.242.122-.239.238-.18.3-.062m2.16.001l.24.062.241.18.18.238.059.242m0 5.758l-.06.3-.179.239-.242.12-.238.06m-2.161-.001l-.3-.058-.238-.121-.122-.239-.058-.3m2.878-6.48h-2.16m-.718 6.48v-5.758m3.598 5.758v-5.758m-.72 6.476h-2.16" fill="none" stroke-width=".48" stroke-linecap="round" stroke-linejoin="round" stroke="#505050" stroke-miterlimit="10"/><path d="M323.078 224.398h-.719v1.082h.72zm0-8.277h-.719v1.078h.72zm0 0" fill="#505050" stroke-width=".12" stroke-linecap="round" stroke-linejoin="round" stroke="#505050" stroke-miterlimit="10"/><path d="M313.719 217.922l.062-.242.18-.239.18-.18.3-.062m2.161.001l.296.062.18.18.184.238.058.242m0 5.758l-.058.3-.184.239-.18.12-.296.06m-2.161-.001l-.3-.058-.18-.121-.18-.239-.062-.3" fill="none" stroke-width=".48" stroke-linecap="round" stroke-linejoin="round" stroke="#505050" stroke-miterlimit="10"/><path d="M313.719 217.922l.062-.242.18-.239.18-.18.3-.062m2.161.001l.296.062.18.18.184.238.058.242m0 5.758l-.058.3-.184.239-.18.12-.296.06m-2.161-.001l-.3-.058-.18-.121-.18-.239-.062-.3m2.883-6.48h-2.16m-.723 6.48v-5.758m3.601 5.758v-5.758m-.718 6.476h-2.16" fill="none" stroke-width=".48" stroke-linecap="round" stroke-linejoin="round" stroke="#505050" stroke-miterlimit="10"/><path d="M315.879 224.398h-.719v1.082h.719zm0-8.277h-.719v1.078h.719zm0 0" fill="#505050" stroke-width=".12" stroke-linecap="round" stroke-linejoin="round" stroke="#505050" stroke-miterlimit="10"/><path d="M299.078 202.86a5.58 5.58 0 0 1 5.582-5.579 5.576 5.576 0 0 1 5.578 5.578 5.58 5.58 0 1 1-11.16 0zm0 0" fill="none" stroke-width=".36" stroke-linecap="round" stroke-linejoin="round" stroke="#505050" stroke-miterlimit="10"/><path d="M297.46 202.86a7.2 7.2 0 1 1 7.2 7.199 7.199 7.199 0 0 1-7.2-7.2zm8.161-7.38v-1.8m0 0h-1.8m-.001 0v1.8m4.621 36.301l1.86-1.8m-3.961-.001l2.398 2.399m0 0l-.957.902m0 0l-1.02.117m.001 0l-1.082.063m0-.001l-2.399-2.401m8.16-7.981l2.34 2.281m0 .001l-.062 1.081m0 0l-.117 1.02m0-.001l-.903.962m.001 0l-2.4-2.402m1.981 1.921l-1.98 2.04m-10.981-6.301L304 219m-5.82 3.54l4.68-4.68m8.218 9l-3.84 3.902m-9.66-9.962a3.48 3.48 0 1 1 6.962.002 3.48 3.48 0 0 1-6.962-.001zm0 0" fill="none" stroke-width=".36" stroke-linecap="round" stroke-linejoin="round" stroke="#505050" stroke-miterlimit="10"/><path d="M311.2 225.898l.12.48.36.302.422.12.476-.12.3-.301.122-.48-.121-.419-.3-.359-.477-.121-.422.121-.36.36-.12.417h.359l.12.301.18.18.243.062.296-.062.18-.18.063-.3-.063-.239-.18-.18-.296-.12-.243.12-.18.18-.12.238h-.36" fill-rule="evenodd" fill="#505050"/><path d="M311.2 225.898l.12.48.36.302.422.12.476-.12.3-.301.122-.48-.121-.419-.3-.359-.477-.121-.422.121-.36.36-.12.417h.359l.12.301.18.18.243.062.296-.062.18-.18.063-.3-.063-.239-.18-.18-.296-.12-.243.12-.18.18-.12.238zm0 0" fill="none" stroke-width=".12" stroke-linecap="round" stroke-linejoin="round" stroke="#505050" stroke-miterlimit="10"/><path d="M305.32 231.84l.121.48.36.301.418.117.48-.117.301-.3.121-.481-.121-.418-.3-.363-.481-.118-.418.118-.36.363-.12.418h.359l.058.3.242.18.239.059.3-.059.18-.18.063-.3-.063-.238-.18-.243-.3-.058-.239.058-.242.243-.058.238h-.36" fill-rule="evenodd" fill="#505050"/><path d="M305.32 231.84l.121.48.36.301.418.117.48-.117.301-.3.121-.481-.121-.418-.3-.363-.481-.118-.418.118-.36.363-.12.418h.359l.058.3.242.18.239.059.3-.059.18-.18.063-.3-.063-.238-.18-.243-.3-.058-.239.058-.242.243-.058.238zm0 0" fill="none" stroke-width=".12" stroke-linecap="round" stroke-linejoin="round" stroke="#505050" stroke-miterlimit="10"/><path d="M290.68 220.8c0-5.734 4.648-10.378 10.379-10.378 5.734 0 10.382 4.644 10.382 10.379 0 5.73-4.648 10.379-10.382 10.379-5.73 0-10.38-4.649-10.38-10.38zm0 0" fill="none" stroke-width=".36" stroke-linecap="round" stroke-linejoin="round" stroke="#505050" stroke-miterlimit="10"/><path d="M291.46 220.8c0-5.304 4.298-9.6 9.599-9.6a9.6 9.6 0 0 1 9.601 9.6c0 5.302-4.297 9.598-9.601 9.598a9.597 9.597 0 0 1-9.598-9.597zm-6.901-22.98a2.16 2.16 0 1 1 4.321 0 2.16 2.16 0 0 1-4.321 0zm0 0" fill="none" stroke-width=".36" stroke-linecap="round" stroke-linejoin="round" stroke="#505050" stroke-miterlimit="10"/><path d="M286.781 196.02v-.72" fill="none" stroke-width=".72" stroke-linecap="round" stroke-linejoin="round" stroke="#505050" stroke-miterlimit="10"/><path d="M295.781 198.48l-1.082-1.082h-1.558l-1.082 1.082v1.56l1.082 1.081h1.558l1.082-1.082v-1.559" fill="green"/><path d="M295.781 198.48l-1.082-1.082h-1.558l-1.082 1.082v1.56l1.082 1.081h1.558l1.082-1.082zm0 0" fill="none" stroke-width=".12" stroke-linecap="round" stroke-linejoin="round" stroke="green" stroke-miterlimit="10"/><path d="M292.719 199.262a1.14 1.14 0 1 1 2.279-.003 1.14 1.14 0 0 1-2.28.003" fill-rule="evenodd" fill="#fff"/><path d="M292.719 199.262a1.14 1.14 0 1 1 2.279-.003 1.14 1.14 0 0 1-2.28.003zm0 0" fill="none" stroke-width=".06" stroke-linecap="square" stroke-linejoin="bevel" stroke="#000" stroke-miterlimit="10"/><path d="M295.781 205.621l-1.082-1.082h-1.558l-1.082 1.082v1.559l1.082 1.082h1.558l1.082-1.082v-1.559" fill="green"/><path d="M295.781 205.621l-1.082-1.082h-1.558l-1.082 1.082v1.559l1.082 1.082h1.558l1.082-1.082zm0 0" fill="none" stroke-width=".12" stroke-linecap="round" stroke-linejoin="round" stroke="green" stroke-miterlimit="10"/><path d="M292.719 206.398c0-.628.511-1.136 1.14-1.136a1.139 1.139 0 1 1 0 2.277 1.14 1.14 0 0 1-1.14-1.14" fill-rule="evenodd" fill="#fff"/><path d="M292.719 206.398c0-.628.511-1.136 1.14-1.136a1.139 1.139 0 1 1 0 2.277 1.14 1.14 0 0 1-1.14-1.14zm0 0" fill="none" stroke-width=".06" stroke-linecap="square" stroke-linejoin="bevel" stroke="#000" stroke-miterlimit="10"/><path d="M317.379 191.281L316.3 190.2h-1.563l-1.078 1.082v1.559l1.078 1.082h1.563l1.078-1.082v-1.559" fill="green"/><path d="M317.379 191.281L316.3 190.2h-1.563l-1.078 1.082v1.559l1.078 1.082h1.563l1.078-1.082zm0 0" fill="none" stroke-width=".12" stroke-linecap="round" stroke-linejoin="round" stroke="green" stroke-miterlimit="10"/><path d="M314.32 192.059c0-.63.508-1.137 1.14-1.137a1.139 1.139 0 1 1 0 2.277 1.14 1.14 0 0 1-1.14-1.14" fill-rule="evenodd" fill="#fff"/><path d="M314.32 192.059c0-.63.508-1.137 1.14-1.137a1.139 1.139 0 1 1 0 2.277 1.14 1.14 0 0 1-1.14-1.14zm0 0" fill="none" stroke-width=".06" stroke-linecap="square" stroke-linejoin="bevel" stroke="#000" stroke-miterlimit="10"/><path d="M317.379 198.48l-1.078-1.082h-1.563l-1.078 1.082v1.56l1.078 1.081h1.563l1.078-1.082v-1.559" fill="green"/><path d="M317.379 198.48l-1.078-1.082h-1.563l-1.078 1.082v1.56l1.078 1.081h1.563l1.078-1.082zm0 0" fill="none" stroke-width=".12" stroke-linecap="round" stroke-linejoin="round" stroke="green" stroke-miterlimit="10"/><path d="M314.32 199.262c0-.633.508-1.14 1.14-1.14a1.14 1.14 0 1 1 0 2.276c-.632 0-1.14-.507-1.14-1.136" fill-rule="evenodd" fill="#fff"/><path d="M314.32 199.262c0-.633.508-1.14 1.14-1.14a1.14 1.14 0 1 1 0 2.276c-.632 0-1.14-.507-1.14-1.136zm0 0" fill="none" stroke-width=".06" stroke-linecap="square" stroke-linejoin="bevel" stroke="#000" stroke-miterlimit="10"/><path d="M317.8 205.441l-1.32-1.32h-1.921l-1.32 1.32v1.918l1.32 1.32h1.921l1.32-1.32v-1.918" fill="green"/><path d="M317.8 205.441l-1.32-1.32h-1.921l-1.32 1.32v1.918l1.32 1.32h1.921l1.32-1.32zm0 0" fill="none" stroke-width=".12" stroke-linecap="round" stroke-linejoin="round" stroke="green" stroke-miterlimit="10"/><path d="M314.32 206.398c0-.628.508-1.136 1.14-1.136a1.139 1.139 0 1 1 0 2.277c-.632 0-1.14-.508-1.14-1.14" fill-rule="evenodd" fill="#fff"/><path d="M314.32 206.398c0-.628.508-1.136 1.14-1.136a1.139 1.139 0 1 1 0 2.277c-.632 0-1.14-.508-1.14-1.14zm0 0" fill="none" stroke-width=".06" stroke-linecap="square" stroke-linejoin="bevel" stroke="#000" stroke-miterlimit="10"/><path d="M320.379 206.398a2.28 2.28 0 0 1 4.562 0 2.281 2.281 0 0 1-4.562 0" fill-rule="evenodd" fill="green"/><path d="M320.379 206.398a2.28 2.28 0 0 1 4.562 0 2.281 2.281 0 0 1-4.562 0zm0 0" fill="none" stroke-width=".12" stroke-linecap="round" stroke-linejoin="round" stroke="green" stroke-miterlimit="10"/><path d="M321.52 206.398c0-.628.511-1.136 1.14-1.136a1.139 1.139 0 1 1 0 2.277 1.14 1.14 0 0 1-1.14-1.14" fill-rule="evenodd" fill="#fff"/><path d="M321.52 206.398c0-.628.511-1.136 1.14-1.136a1.139 1.139 0 1 1 0 2.277 1.14 1.14 0 0 1-1.14-1.14zm0 0" fill="none" stroke-width=".06" stroke-linecap="square" stroke-linejoin="bevel" stroke="#000" stroke-miterlimit="10"/><path d="M288.64 205.621l-1.081-1.082H286l-1.078 1.082v1.559l1.078 1.082h1.559l1.082-1.082v-1.559" fill="green"/><path d="M288.64 205.621l-1.081-1.082H286l-1.078 1.082v1.559l1.078 1.082h1.559l1.082-1.082zm0 0" fill="none" stroke-width=".12" stroke-linecap="round" stroke-linejoin="round" stroke="green" stroke-miterlimit="10"/><path d="M285.578 206.398c0-.628.512-1.136 1.14-1.136.634 0 1.141.508 1.141 1.136a1.14 1.14 0 1 1-2.281 0" fill-rule="evenodd" fill="#fff"/><path d="M285.578 206.398c0-.628.512-1.136 1.14-1.136.634 0 1.141.508 1.141 1.136a1.14 1.14 0 1 1-2.281 0zm0 0" fill="none" stroke-width=".06" stroke-linecap="square" stroke-linejoin="bevel" stroke="#000" stroke-miterlimit="10"/><path d="M281.441 227.219l-1.082-1.078h-1.558l-1.082 1.078v1.562l1.082 1.078h1.558l1.082-1.078v-1.562" fill="green"/><path d="M281.441 227.219l-1.082-1.078h-1.558l-1.082 1.078v1.562l1.082 1.078h1.558l1.082-1.078zm0 0" fill="none" stroke-width=".12" stroke-linecap="round" stroke-linejoin="round" stroke="green" stroke-miterlimit="10"/><path d="M278.379 228a1.141 1.141 0 0 1 2.281 0 1.141 1.141 0 0 1-2.281 0" fill-rule="evenodd" fill="#fff"/><path d="M278.379 228a1.141 1.141 0 0 1 2.281 0 1.141 1.141 0 0 1-2.281 0zm0 0" fill="none" stroke-width=".06" stroke-linecap="square" stroke-linejoin="bevel" stroke="#000" stroke-miterlimit="10"/><path d="M324.578 212.82l-1.078-1.082h-1.559l-1.082 1.082v1.559l1.082 1.082h1.559l1.078-1.082v-1.559" fill="green"/><path d="M324.578 212.82l-1.078-1.082h-1.559l-1.082 1.082v1.559l1.082 1.082h1.559l1.078-1.082zm0 0" fill="none" stroke-width=".12" stroke-linecap="round" stroke-linejoin="round" stroke="green" stroke-miterlimit="10"/><path d="M321.52 213.602a1.14 1.14 0 1 1 2.278-.003 1.14 1.14 0 0 1-2.278.003" fill-rule="evenodd" fill="#fff"/><path d="M321.52 213.602a1.14 1.14 0 1 1 2.278-.003 1.14 1.14 0 0 1-2.278.003zm0 0" fill="none" stroke-width=".06" stroke-linecap="square" stroke-linejoin="bevel" stroke="#000" stroke-miterlimit="10"/><path d="M324.578 227.219l-1.078-1.078h-1.559l-1.082 1.078v1.562l1.082 1.078h1.559l1.078-1.078v-1.562" fill="green"/><path d="M324.578 227.219l-1.078-1.078h-1.559l-1.082 1.078v1.562l1.082 1.078h1.559l1.078-1.078zm0 0" fill="none" stroke-width=".12" stroke-linecap="round" stroke-linejoin="round" stroke="green" stroke-miterlimit="10"/><path d="M321.52 228a1.14 1.14 0 1 1 2.282.002 1.14 1.14 0 0 1-2.282-.002" fill-rule="evenodd" fill="#fff"/><path d="M321.52 228a1.14 1.14 0 1 1 2.282.002 1.14 1.14 0 0 1-2.282-.002zm0 0" fill="none" stroke-width=".06" stroke-linecap="square" stroke-linejoin="bevel" stroke="#000" stroke-miterlimit="10"/><path d="M317.379 212.82l-1.078-1.082h-1.563l-1.078 1.082v1.559l1.078 1.082h1.563l1.078-1.082v-1.559" fill="green"/><path d="M317.379 212.82l-1.078-1.082h-1.563l-1.078 1.082v1.559l1.078 1.082h1.563l1.078-1.082zm0 0" fill="none" stroke-width=".12" stroke-linecap="round" stroke-linejoin="round" stroke="green" stroke-miterlimit="10"/><path d="M314.32 213.602a1.14 1.14 0 1 1 1.14 1.137c-.632 0-1.14-.509-1.14-1.137" fill-rule="evenodd" fill="#fff"/><path d="M314.32 213.602a1.14 1.14 0 1 1 1.14 1.137c-.632 0-1.14-.509-1.14-1.137zm0 0" fill="none" stroke-width=".06" stroke-linecap="square" stroke-linejoin="bevel" stroke="#000" stroke-miterlimit="10"/><path d="M317.379 227.219l-1.078-1.078h-1.563l-1.078 1.078v1.562l1.078 1.078h1.563l1.078-1.078v-1.562" fill="green"/><path d="M317.379 227.219l-1.078-1.078h-1.563l-1.078 1.078v1.562l1.078 1.078h1.563l1.078-1.078zm0 0" fill="none" stroke-width=".12" stroke-linecap="round" stroke-linejoin="round" stroke="green" stroke-miterlimit="10"/><path d="M314.32 228a1.14 1.14 0 1 1 2.282 0c0 .629-.512 1.14-1.141 1.14a1.14 1.14 0 0 1-1.14-1.14" fill-rule="evenodd" fill="#fff"/><path d="M314.32 228a1.14 1.14 0 1 1 2.282 0c0 .629-.512 1.14-1.141 1.14a1.14 1.14 0 0 1-1.14-1.14zm0 0" fill="none" stroke-width=".06" stroke-linecap="square" stroke-linejoin="bevel" stroke="#000" stroke-miterlimit="10"/><path d="M310.719 198.238l-1.38-1.379h-2.038l-1.38 1.38v2.042l1.38 1.38h2.039l1.379-1.38v-2.043" fill="green"/><path d="M310.719 198.238l-1.38-1.379h-2.038l-1.38 1.38v2.042l1.38 1.38h2.039l1.379-1.38zm0 0" fill="none" stroke-width=".12" stroke-linecap="round" stroke-linejoin="round" stroke="green" stroke-miterlimit="10"/><path d="M306.82 199.262a1.44 1.44 0 1 1 2.881-.002 1.44 1.44 0 0 1-2.88.002" fill-rule="evenodd" fill="#fff"/><path d="M306.82 199.262a1.44 1.44 0 1 1 2.881-.002 1.44 1.44 0 0 1-2.88.002zm0 0" fill="none" stroke-width=".06" stroke-linecap="square" stroke-linejoin="bevel" stroke="#000" stroke-miterlimit="10"/><path d="M303.52 198.238l-1.38-1.379h-2.038l-1.383 1.38v2.042l1.383 1.38h2.039l1.379-1.38v-2.043" fill="green"/><path d="M303.52 198.238l-1.38-1.379h-2.038l-1.383 1.38v2.042l1.383 1.38h2.039l1.379-1.38zm0 0" fill="none" stroke-width=".12" stroke-linecap="round" stroke-linejoin="round" stroke="green" stroke-miterlimit="10"/><path d="M299.621 199.262a1.44 1.44 0 1 1 2.88-.004 1.44 1.44 0 0 1-2.88.004" fill-rule="evenodd" fill="#fff"/><path d="M299.621 199.262a1.44 1.44 0 1 1 2.88-.004 1.44 1.44 0 0 1-2.88.004zm0 0" fill="none" stroke-width=".06" stroke-linecap="square" stroke-linejoin="bevel" stroke="#000" stroke-miterlimit="10"/><path d="M303.52 205.379L302.14 204h-2.038l-1.383 1.379v2.043l1.383 1.379h2.039l1.379-1.38v-2.042" fill="green"/><path d="M303.52 205.379L302.14 204h-2.038l-1.383 1.379v2.043l1.383 1.379h2.039l1.379-1.38zm0 0" fill="none" stroke-width=".12" stroke-linecap="round" stroke-linejoin="round" stroke="green" stroke-miterlimit="10"/><path d="M299.621 206.398a1.439 1.439 0 1 1 2.878.003 1.439 1.439 0 0 1-2.878-.003" fill-rule="evenodd" fill="#fff"/><path d="M299.621 206.398a1.439 1.439 0 1 1 2.878.003 1.439 1.439 0 0 1-2.878-.003zm0 0" fill="none" stroke-width=".06" stroke-linecap="square" stroke-linejoin="bevel" stroke="#000" stroke-miterlimit="10"/><path d="M310.719 205.379l-1.38-1.379h-2.038l-1.38 1.379v2.043l1.38 1.379h2.039l1.379-1.38v-2.042" fill="green"/><path d="M310.719 205.379l-1.38-1.379h-2.038l-1.38 1.379v2.043l1.38 1.379h2.039l1.379-1.38zm0 0" fill="none" stroke-width=".12" stroke-linecap="round" stroke-linejoin="round" stroke="green" stroke-miterlimit="10"/><path d="M306.82 206.398a1.44 1.44 0 1 1 2.88.005 1.44 1.44 0 0 1-2.88-.005" fill-rule="evenodd" fill="#fff"/><path d="M306.82 206.398a1.44 1.44 0 1 1 2.88.005 1.44 1.44 0 0 1-2.88-.005zm0 0" fill="none" stroke-width=".06" stroke-linecap="square" stroke-linejoin="bevel" stroke="#000" stroke-miterlimit="10"/><path d="M310.66 212.64l-1.379-1.378h-1.922l-1.379 1.379v1.918l1.38 1.382h1.921l1.38-1.382v-1.918" fill="green"/><path d="M310.66 212.64l-1.379-1.378h-1.922l-1.379 1.379v1.918l1.38 1.382h1.921l1.38-1.382zm0 0" fill="none" stroke-width=".12" stroke-linecap="round" stroke-linejoin="round" stroke="green" stroke-miterlimit="10"/><path d="M306.7 213.602zm0 0" fill="none" stroke-width=".06" stroke-linecap="square" stroke-linejoin="bevel" stroke="#000" stroke-miterlimit="10"/><path d="M296.262 212.64l-1.383-1.378h-1.918l-1.383 1.379v1.918l1.383 1.382h1.918l1.383-1.382v-1.918" fill="green"/><path d="M296.262 212.64l-1.383-1.378h-1.918l-1.383 1.379v1.918l1.383 1.382h1.918l1.383-1.382zm0 0" fill="none" stroke-width=".12" stroke-linecap="round" stroke-linejoin="round" stroke="green" stroke-miterlimit="10"/><path d="M292.3 213.602a1.562 1.562 0 0 1 3.121 0 1.561 1.561 0 0 1-3.12 0" fill-rule="evenodd" fill="#fff"/><path d="M292.3 213.602a1.562 1.562 0 0 1 3.121 0 1.561 1.561 0 0 1-3.12 0zm0 0" fill="none" stroke-width=".06" stroke-linecap="square" stroke-linejoin="bevel" stroke="#000" stroke-miterlimit="10"/><path d="M296.262 227.04l-1.383-1.38h-1.918l-1.383 1.38v1.92l1.383 1.38h1.918l1.383-1.38v-1.92" fill="green"/><path d="M296.262 227.04l-1.383-1.38h-1.918l-1.383 1.38v1.92l1.383 1.38h1.918l1.383-1.38zm0 0" fill="none" stroke-width=".12" stroke-linecap="round" stroke-linejoin="round" stroke="green" stroke-miterlimit="10"/><path d="M292.3 228c0-.863.696-1.559 1.56-1.559a1.559 1.559 0 1 1 0 3.118A1.555 1.555 0 0 1 292.3 228" fill-rule="evenodd" fill="#fff"/><path d="M292.3 228c0-.863.696-1.559 1.56-1.559a1.559 1.559 0 1 1 0 3.118A1.555 1.555 0 0 1 292.3 228zm0 0" fill="none" stroke-width=".06" stroke-linecap="square" stroke-linejoin="bevel" stroke="#000" stroke-miterlimit="10"/><path d="M288.64 198.48l-1.081-1.082H286l-1.078 1.082v1.56l1.078 1.08h1.559l1.082-1.082v-1.559" fill="green"/><path d="M288.64 198.48l-1.081-1.082H286l-1.078 1.082v1.56l1.078 1.08h1.559l1.082-1.082zm0 0" fill="none" stroke-width=".12" stroke-linecap="round" stroke-linejoin="round" stroke="green" stroke-miterlimit="10"/><path d="M285.578 199.262c0-.633.512-1.14 1.14-1.14.634 0 1.141.507 1.141 1.14 0 .629-.507 1.136-1.14 1.136-.63 0-1.14-.507-1.14-1.136" fill-rule="evenodd" fill="#fff"/><path d="M285.578 199.262c0-.633.512-1.14 1.14-1.14.634 0 1.141.507 1.141 1.14 0 .629-.507 1.136-1.14 1.136-.63 0-1.14-.507-1.14-1.136zm0 0" fill="none" stroke-width=".06" stroke-linecap="square" stroke-linejoin="bevel" stroke="#000" stroke-miterlimit="10"/><path d="M288.64 191.281l-1.081-1.082H286l-1.078 1.082v1.559l1.078 1.082h1.559l1.082-1.082v-1.559" fill="green"/><path d="M288.64 191.281l-1.081-1.082H286l-1.078 1.082v1.559l1.078 1.082h1.559l1.082-1.082zm0 0" fill="none" stroke-width=".12" stroke-linecap="round" stroke-linejoin="round" stroke="green" stroke-miterlimit="10"/><path d="M285.578 192.059c0-.63.512-1.137 1.14-1.137a1.14 1.14 0 1 1-1.14 1.137" fill-rule="evenodd" fill="#fff"/><path d="M285.578 192.059c0-.63.512-1.137 1.14-1.137a1.14 1.14 0 1 1-1.14 1.137zm0 0" fill="none" stroke-width=".06" stroke-linecap="square" stroke-linejoin="bevel" stroke="#000" stroke-miterlimit="10"/><path d="M274.781 191.04l-1.383-1.38h-2.039l-1.379 1.38v2.038l1.38 1.383h2.038l1.383-1.383v-2.039" fill="green"/><path d="M274.781 191.04l-1.383-1.38h-2.039l-1.379 1.38v2.038l1.38 1.383h2.038l1.383-1.383zm0 0" fill="none" stroke-width=".12" stroke-linecap="round" stroke-linejoin="round" stroke="green" stroke-miterlimit="10"/><path d="M271.3 192.059a1.02 1.02 0 1 1 2.041.001 1.02 1.02 0 0 1-2.04-.001" fill-rule="evenodd" fill="#fff"/><path d="M271.3 192.059a1.02 1.02 0 1 1 2.041.001 1.02 1.02 0 0 1-2.04-.001zm0 0" fill="none" stroke-width=".06" stroke-linecap="square" stroke-linejoin="bevel" stroke="#000" stroke-miterlimit="10"/><path d="M274.781 226.98l-1.383-1.378h-2.039l-1.379 1.378v2.04l1.38 1.378h2.038l1.383-1.378v-2.04" fill="green"/><path d="M274.781 226.98l-1.383-1.378h-2.039l-1.379 1.378v2.04l1.38 1.378h2.038l1.383-1.378zm0 0" fill="none" stroke-width=".12" stroke-linecap="round" stroke-linejoin="round" stroke="green" stroke-miterlimit="10"/><path d="M271.3 228a1.02 1.02 0 1 1 2.041.001 1.02 1.02 0 0 1-2.04-.001" fill-rule="evenodd" fill="#fff"/><path d="M271.3 228a1.02 1.02 0 1 1 2.041.001 1.02 1.02 0 0 1-2.04-.001zm0 0" fill="none" stroke-width=".06" stroke-linecap="square" stroke-linejoin="bevel" stroke="#000" stroke-miterlimit="10"/><path d="M274.781 205.379L273.398 204h-2.039l-1.379 1.379v2.043l1.38 1.379h2.038l1.383-1.38v-2.042" fill="green"/><path d="M274.781 205.379L273.398 204h-2.039l-1.379 1.379v2.043l1.38 1.379h2.038l1.383-1.38zm0 0" fill="none" stroke-width=".12" stroke-linecap="round" stroke-linejoin="round" stroke="green" stroke-miterlimit="10"/><path d="M271.3 206.398a1.02 1.02 0 1 1 1.02 1.024c-.562 0-1.02-.457-1.02-1.024" fill-rule="evenodd" fill="#fff"/><path d="M271.3 206.398a1.02 1.02 0 1 1 1.02 1.024c-.562 0-1.02-.457-1.02-1.024zm0 0" fill="none" stroke-width=".06" stroke-linecap="square" stroke-linejoin="bevel" stroke="#000" stroke-miterlimit="10"/><path d="M325.121 198.238l-1.383-1.379H321.7l-1.379 1.38v2.042l1.38 1.38h2.038l1.383-1.38v-2.043" fill="green"/><path d="M325.121 198.238l-1.383-1.379H321.7l-1.379 1.38v2.042l1.38 1.38h2.038l1.383-1.38zm0 0" fill="none" stroke-width=".12" stroke-linecap="round" stroke-linejoin="round" stroke="green" stroke-miterlimit="10"/><path d="M321.64 199.262c0-.567.458-1.024 1.02-1.024a1.021 1.021 0 0 1 0 2.043 1.02 1.02 0 0 1-1.02-1.02" fill-rule="evenodd" fill="#fff"/><path d="M321.64 199.262c0-.567.458-1.024 1.02-1.024a1.021 1.021 0 0 1 0 2.043 1.02 1.02 0 0 1-1.02-1.02zm0 0" fill="none" stroke-width=".06" stroke-linecap="square" stroke-linejoin="bevel" stroke="#000" stroke-miterlimit="10"/><path d="M325.121 191.04l-1.383-1.38H321.7l-1.379 1.38v2.038l1.38 1.383h2.038l1.383-1.383v-2.039" fill="green"/><path d="M325.121 191.04l-1.383-1.38H321.7l-1.379 1.38v2.038l1.38 1.383h2.038l1.383-1.383zm0 0" fill="none" stroke-width=".12" stroke-linecap="round" stroke-linejoin="round" stroke="green" stroke-miterlimit="10"/><path d="M321.64 192.059a1.02 1.02 0 1 1 2.041.001 1.02 1.02 0 0 1-2.04-.001" fill-rule="evenodd" fill="#fff"/><path d="M321.64 192.059a1.02 1.02 0 1 1 2.041.001 1.02 1.02 0 0 1-2.04-.001zm0 0" fill="none" stroke-width=".06" stroke-linecap="square" stroke-linejoin="bevel" stroke="#000" stroke-miterlimit="10"/><path d="M301.121 199.262h-7.2m.001 0h-7.14m21.538 0h-7.199m14.399 14.34v-7.204m0-7.136v7.136m0 0h-7.2m14.399 7.204v-7.204m0-7.136v7.136m-7.199-14.339h-28.74m.001 0H272.38m50.339 0h-7.2m7.2 35.941h-7.2m-35.941 0h-7.2m21.544 0h-14.344m14.344 0h21.598m-28.739-21.602h7.14m7.2 0h-7.2m-21.542 0h14.402m7.141 0v7.204" fill="none" stroke-width="3.6" stroke-linecap="round" stroke-linejoin="round" stroke="navy" stroke-miterlimit="10"/><path d="M295.781 198.48l-1.082-1.082h-1.558l-1.082 1.082v1.56l1.082 1.081h1.558l1.082-1.082v-1.559" fill="green"/><path d="M295.781 198.48l-1.082-1.082h-1.558l-1.082 1.082v1.56l1.082 1.081h1.558l1.082-1.082zm0 0" fill="none" stroke-width=".12" stroke-linecap="round" stroke-linejoin="round" stroke="green" stroke-miterlimit="10"/><path d="M292.719 199.262a1.14 1.14 0 1 1 2.279-.003 1.14 1.14 0 0 1-2.28.003" fill-rule="evenodd" fill="#fff"/><path d="M292.719 199.262a1.14 1.14 0 1 1 2.279-.003 1.14 1.14 0 0 1-2.28.003zm0 0" fill="none" stroke-width=".06" stroke-linecap="square" stroke-linejoin="bevel" stroke="#000" stroke-miterlimit="10"/><path d="M295.781 205.621l-1.082-1.082h-1.558l-1.082 1.082v1.559l1.082 1.082h1.558l1.082-1.082v-1.559" fill="green"/><path d="M295.781 205.621l-1.082-1.082h-1.558l-1.082 1.082v1.559l1.082 1.082h1.558l1.082-1.082zm0 0" fill="none" stroke-width=".12" stroke-linecap="round" stroke-linejoin="round" stroke="green" stroke-miterlimit="10"/><path d="M292.719 206.398c0-.628.511-1.136 1.14-1.136a1.139 1.139 0 1 1 0 2.277 1.14 1.14 0 0 1-1.14-1.14" fill-rule="evenodd" fill="#fff"/><path d="M292.719 206.398c0-.628.511-1.136 1.14-1.136a1.139 1.139 0 1 1 0 2.277 1.14 1.14 0 0 1-1.14-1.14zm0 0" fill="none" stroke-width=".06" stroke-linecap="square" stroke-linejoin="bevel" stroke="#000" stroke-miterlimit="10"/><path d="M317.379 191.281L316.3 190.2h-1.563l-1.078 1.082v1.559l1.078 1.082h1.563l1.078-1.082v-1.559" fill="green"/><path d="M317.379 191.281L316.3 190.2h-1.563l-1.078 1.082v1.559l1.078 1.082h1.563l1.078-1.082zm0 0" fill="none" stroke-width=".12" stroke-linecap="round" stroke-linejoin="round" stroke="green" stroke-miterlimit="10"/><path d="M314.32 192.059c0-.63.508-1.137 1.14-1.137a1.139 1.139 0 1 1 0 2.277 1.14 1.14 0 0 1-1.14-1.14" fill-rule="evenodd" fill="#fff"/><path d="M314.32 192.059c0-.63.508-1.137 1.14-1.137a1.139 1.139 0 1 1 0 2.277 1.14 1.14 0 0 1-1.14-1.14zm0 0" fill="none" stroke-width=".06" stroke-linecap="square" stroke-linejoin="bevel" stroke="#000" stroke-miterlimit="10"/><path d="M317.379 198.48l-1.078-1.082h-1.563l-1.078 1.082v1.56l1.078 1.081h1.563l1.078-1.082v-1.559" fill="green"/><path d="M317.379 198.48l-1.078-1.082h-1.563l-1.078 1.082v1.56l1.078 1.081h1.563l1.078-1.082zm0 0" fill="none" stroke-width=".12" stroke-linecap="round" stroke-linejoin="round" stroke="green" stroke-miterlimit="10"/><path d="M314.32 199.262c0-.633.508-1.14 1.14-1.14a1.14 1.14 0 1 1 0 2.276c-.632 0-1.14-.507-1.14-1.136" fill-rule="evenodd" fill="#fff"/><path d="M314.32 199.262c0-.633.508-1.14 1.14-1.14a1.14 1.14 0 1 1 0 2.276c-.632 0-1.14-.507-1.14-1.136zm0 0" fill="none" stroke-width=".06" stroke-linecap="square" stroke-linejoin="bevel" stroke="#000" stroke-miterlimit="10"/><path d="M317.8 205.441l-1.32-1.32h-1.921l-1.32 1.32v1.918l1.32 1.32h1.921l1.32-1.32v-1.918" fill="green"/><path d="M317.8 205.441l-1.32-1.32h-1.921l-1.32 1.32v1.918l1.32 1.32h1.921l1.32-1.32zm0 0" fill="none" stroke-width=".12" stroke-linecap="round" stroke-linejoin="round" stroke="green" stroke-miterlimit="10"/><path d="M314.32 206.398c0-.628.508-1.136 1.14-1.136a1.139 1.139 0 1 1 0 2.277c-.632 0-1.14-.508-1.14-1.14" fill-rule="evenodd" fill="#fff"/><path d="M314.32 206.398c0-.628.508-1.136 1.14-1.136a1.139 1.139 0 1 1 0 2.277c-.632 0-1.14-.508-1.14-1.14zm0 0" fill="none" stroke-width=".06" stroke-linecap="square" stroke-linejoin="bevel" stroke="#000" stroke-miterlimit="10"/><path d="M320.379 206.398a2.28 2.28 0 0 1 4.562 0 2.281 2.281 0 0 1-4.562 0" fill-rule="evenodd" fill="green"/><path d="M320.379 206.398a2.28 2.28 0 0 1 4.562 0 2.281 2.281 0 0 1-4.562 0zm0 0" fill="none" stroke-width=".12" stroke-linecap="round" stroke-linejoin="round" stroke="green" stroke-miterlimit="10"/><path d="M321.52 206.398c0-.628.511-1.136 1.14-1.136a1.139 1.139 0 1 1 0 2.277 1.14 1.14 0 0 1-1.14-1.14" fill-rule="evenodd" fill="#fff"/><path d="M321.52 206.398c0-.628.511-1.136 1.14-1.136a1.139 1.139 0 1 1 0 2.277 1.14 1.14 0 0 1-1.14-1.14zm0 0" fill="none" stroke-width=".06" stroke-linecap="square" stroke-linejoin="bevel" stroke="#000" stroke-miterlimit="10"/><path d="M288.64 205.621l-1.081-1.082H286l-1.078 1.082v1.559l1.078 1.082h1.559l1.082-1.082v-1.559" fill="green"/><path d="M288.64 205.621l-1.081-1.082H286l-1.078 1.082v1.559l1.078 1.082h1.559l1.082-1.082zm0 0" fill="none" stroke-width=".12" stroke-linecap="round" stroke-linejoin="round" stroke="green" stroke-miterlimit="10"/><path d="M285.578 206.398c0-.628.512-1.136 1.14-1.136.634 0 1.141.508 1.141 1.136a1.14 1.14 0 1 1-2.281 0" fill-rule="evenodd" fill="#fff"/><path d="M285.578 206.398c0-.628.512-1.136 1.14-1.136.634 0 1.141.508 1.141 1.136a1.14 1.14 0 1 1-2.281 0zm0 0" fill="none" stroke-width=".06" stroke-linecap="square" stroke-linejoin="bevel" stroke="#000" stroke-miterlimit="10"/><path d="M281.441 227.219l-1.082-1.078h-1.558l-1.082 1.078v1.562l1.082 1.078h1.558l1.082-1.078v-1.562" fill="green"/><path d="M281.441 227.219l-1.082-1.078h-1.558l-1.082 1.078v1.562l1.082 1.078h1.558l1.082-1.078zm0 0" fill="none" stroke-width=".12" stroke-linecap="round" stroke-linejoin="round" stroke="green" stroke-miterlimit="10"/><path d="M278.379 228a1.141 1.141 0 0 1 2.281 0 1.141 1.141 0 0 1-2.281 0" fill-rule="evenodd" fill="#fff"/><path d="M278.379 228a1.141 1.141 0 0 1 2.281 0 1.141 1.141 0 0 1-2.281 0zm0 0" fill="none" stroke-width=".06" stroke-linecap="square" stroke-linejoin="bevel" stroke="#000" stroke-miterlimit="10"/><path d="M324.578 212.82l-1.078-1.082h-1.559l-1.082 1.082v1.559l1.082 1.082h1.559l1.078-1.082v-1.559" fill="green"/><path d="M324.578 212.82l-1.078-1.082h-1.559l-1.082 1.082v1.559l1.082 1.082h1.559l1.078-1.082zm0 0" fill="none" stroke-width=".12" stroke-linecap="round" stroke-linejoin="round" stroke="green" stroke-miterlimit="10"/><path d="M321.52 213.602a1.14 1.14 0 1 1 2.278-.003 1.14 1.14 0 0 1-2.278.003" fill-rule="evenodd" fill="#fff"/><path d="M321.52 213.602a1.14 1.14 0 1 1 2.278-.003 1.14 1.14 0 0 1-2.278.003zm0 0" fill="none" stroke-width=".06" stroke-linecap="square" stroke-linejoin="bevel" stroke="#000" stroke-miterlimit="10"/><path d="M324.578 227.219l-1.078-1.078h-1.559l-1.082 1.078v1.562l1.082 1.078h1.559l1.078-1.078v-1.562" fill="green"/><path d="M324.578 227.219l-1.078-1.078h-1.559l-1.082 1.078v1.562l1.082 1.078h1.559l1.078-1.078zm0 0" fill="none" stroke-width=".12" stroke-linecap="round" stroke-linejoin="round" stroke="green" stroke-miterlimit="10"/><path d="M321.52 228a1.14 1.14 0 1 1 2.282.002 1.14 1.14 0 0 1-2.282-.002" fill-rule="evenodd" fill="#fff"/><path d="M321.52 228a1.14 1.14 0 1 1 2.282.002 1.14 1.14 0 0 1-2.282-.002zm0 0" fill="none" stroke-width=".06" stroke-linecap="square" stroke-linejoin="bevel" stroke="#000" stroke-miterlimit="10"/><path d="M317.379 212.82l-1.078-1.082h-1.563l-1.078 1.082v1.559l1.078 1.082h1.563l1.078-1.082v-1.559" fill="green"/><path d="M317.379 212.82l-1.078-1.082h-1.563l-1.078 1.082v1.559l1.078 1.082h1.563l1.078-1.082zm0 0" fill="none" stroke-width=".12" stroke-linecap="round" stroke-linejoin="round" stroke="green" stroke-miterlimit="10"/><path d="M314.32 213.602a1.14 1.14 0 1 1 1.14 1.137c-.632 0-1.14-.509-1.14-1.137" fill-rule="evenodd" fill="#fff"/><path d="M314.32 213.602a1.14 1.14 0 1 1 1.14 1.137c-.632 0-1.14-.509-1.14-1.137zm0 0" fill="none" stroke-width=".06" stroke-linecap="square" stroke-linejoin="bevel" stroke="#000" stroke-miterlimit="10"/><path d="M317.379 227.219l-1.078-1.078h-1.563l-1.078 1.078v1.562l1.078 1.078h1.563l1.078-1.078v-1.562" fill="green"/><path d="M317.379 227.219l-1.078-1.078h-1.563l-1.078 1.078v1.562l1.078 1.078h1.563l1.078-1.078zm0 0" fill="none" stroke-width=".12" stroke-linecap="round" stroke-linejoin="round" stroke="green" stroke-miterlimit="10"/><path d="M314.32 228a1.14 1.14 0 1 1 2.282 0c0 .629-.512 1.14-1.141 1.14a1.14 1.14 0 0 1-1.14-1.14" fill-rule="evenodd" fill="#fff"/><path d="M314.32 228a1.14 1.14 0 1 1 2.282 0c0 .629-.512 1.14-1.141 1.14a1.14 1.14 0 0 1-1.14-1.14zm0 0" fill="none" stroke-width=".06" stroke-linecap="square" stroke-linejoin="bevel" stroke="#000" stroke-miterlimit="10"/><path d="M310.719 198.238l-1.38-1.379h-2.038l-1.38 1.38v2.042l1.38 1.38h2.039l1.379-1.38v-2.043" fill="green"/><path d="M310.719 198.238l-1.38-1.379h-2.038l-1.38 1.38v2.042l1.38 1.38h2.039l1.379-1.38zm0 0" fill="none" stroke-width=".12" stroke-linecap="round" stroke-linejoin="round" stroke="green" stroke-miterlimit="10"/><path d="M306.82 199.262a1.44 1.44 0 1 1 2.881-.002 1.44 1.44 0 0 1-2.88.002" fill-rule="evenodd" fill="#fff"/><path d="M306.82 199.262a1.44 1.44 0 1 1 2.881-.002 1.44 1.44 0 0 1-2.88.002zm0 0" fill="none" stroke-width=".06" stroke-linecap="square" stroke-linejoin="bevel" stroke="#000" stroke-miterlimit="10"/><path d="M303.52 198.238l-1.38-1.379h-2.038l-1.383 1.38v2.042l1.383 1.38h2.039l1.379-1.38v-2.043" fill="green"/><path d="M303.52 198.238l-1.38-1.379h-2.038l-1.383 1.38v2.042l1.383 1.38h2.039l1.379-1.38zm0 0" fill="none" stroke-width=".12" stroke-linecap="round" stroke-linejoin="round" stroke="green" stroke-miterlimit="10"/><path d="M299.621 199.262a1.44 1.44 0 1 1 2.88-.004 1.44 1.44 0 0 1-2.88.004" fill-rule="evenodd" fill="#fff"/><path d="M299.621 199.262a1.44 1.44 0 1 1 2.88-.004 1.44 1.44 0 0 1-2.88.004zm0 0" fill="none" stroke-width=".06" stroke-linecap="square" stroke-linejoin="bevel" stroke="#000" stroke-miterlimit="10"/><path d="M303.52 205.379L302.14 204h-2.038l-1.383 1.379v2.043l1.383 1.379h2.039l1.379-1.38v-2.042" fill="green"/><path d="M303.52 205.379L302.14 204h-2.038l-1.383 1.379v2.043l1.383 1.379h2.039l1.379-1.38zm0 0" fill="none" stroke-width=".12" stroke-linecap="round" stroke-linejoin="round" stroke="green" stroke-miterlimit="10"/><path d="M299.621 206.398a1.439 1.439 0 1 1 2.878.003 1.439 1.439 0 0 1-2.878-.003" fill-rule="evenodd" fill="#fff"/><path d="M299.621 206.398a1.439 1.439 0 1 1 2.878.003 1.439 1.439 0 0 1-2.878-.003zm0 0" fill="none" stroke-width=".06" stroke-linecap="square" stroke-linejoin="bevel" stroke="#000" stroke-miterlimit="10"/><path d="M310.719 205.379l-1.38-1.379h-2.038l-1.38 1.379v2.043l1.38 1.379h2.039l1.379-1.38v-2.042" fill="green"/><path d="M310.719 205.379l-1.38-1.379h-2.038l-1.38 1.379v2.043l1.38 1.379h2.039l1.379-1.38zm0 0" fill="none" stroke-width=".12" stroke-linecap="round" stroke-linejoin="round" stroke="green" stroke-miterlimit="10"/><path d="M306.82 206.398a1.44 1.44 0 1 1 2.88.005 1.44 1.44 0 0 1-2.88-.005" fill-rule="evenodd" fill="#fff"/><path d="M306.82 206.398a1.44 1.44 0 1 1 2.88.005 1.44 1.44 0 0 1-2.88-.005zm0 0" fill="none" stroke-width=".06" stroke-linecap="square" stroke-linejoin="bevel" stroke="#000" stroke-miterlimit="10"/><path d="M310.66 212.64l-1.379-1.378h-1.922l-1.379 1.379v1.918l1.38 1.382h1.921l1.38-1.382v-1.918" fill="green"/><path d="M310.66 212.64l-1.379-1.378h-1.922l-1.379 1.379v1.918l1.38 1.382h1.921l1.38-1.382zm0 0" fill="none" stroke-width=".12" stroke-linecap="round" stroke-linejoin="round" stroke="green" stroke-miterlimit="10"/><path d="M306.7 213.602zm0 0" fill="none" stroke-width=".06" stroke-linecap="square" stroke-linejoin="bevel" stroke="#000" stroke-miterlimit="10"/><path d="M296.262 212.64l-1.383-1.378h-1.918l-1.383 1.379v1.918l1.383 1.382h1.918l1.383-1.382v-1.918" fill="green"/><path d="M296.262 212.64l-1.383-1.378h-1.918l-1.383 1.379v1.918l1.383 1.382h1.918l1.383-1.382zm0 0" fill="none" stroke-width=".12" stroke-linecap="round" stroke-linejoin="round" stroke="green" stroke-miterlimit="10"/><path d="M292.3 213.602a1.562 1.562 0 0 1 3.121 0 1.561 1.561 0 0 1-3.12 0" fill-rule="evenodd" fill="#fff"/><path d="M292.3 213.602a1.562 1.562 0 0 1 3.121 0 1.561 1.561 0 0 1-3.12 0zm0 0" fill="none" stroke-width=".06" stroke-linecap="square" stroke-linejoin="bevel" stroke="#000" stroke-miterlimit="10"/><path d="M296.262 227.04l-1.383-1.38h-1.918l-1.383 1.38v1.92l1.383 1.38h1.918l1.383-1.38v-1.92" fill="green"/><path d="M296.262 227.04l-1.383-1.38h-1.918l-1.383 1.38v1.92l1.383 1.38h1.918l1.383-1.38zm0 0" fill="none" stroke-width=".12" stroke-linecap="round" stroke-linejoin="round" stroke="green" stroke-miterlimit="10"/><path d="M292.3 228c0-.863.696-1.559 1.56-1.559a1.559 1.559 0 1 1 0 3.118A1.555 1.555 0 0 1 292.3 228" fill-rule="evenodd" fill="#fff"/><path d="M292.3 228c0-.863.696-1.559 1.56-1.559a1.559 1.559 0 1 1 0 3.118A1.555 1.555 0 0 1 292.3 228zm0 0" fill="none" stroke-width=".06" stroke-linecap="square" stroke-linejoin="bevel" stroke="#000" stroke-miterlimit="10"/><path d="M288.64 198.48l-1.081-1.082H286l-1.078 1.082v1.56l1.078 1.08h1.559l1.082-1.082v-1.559" fill="green"/><path d="M288.64 198.48l-1.081-1.082H286l-1.078 1.082v1.56l1.078 1.08h1.559l1.082-1.082zm0 0" fill="none" stroke-width=".12" stroke-linecap="round" stroke-linejoin="round" stroke="green" stroke-miterlimit="10"/><path d="M285.578 199.262c0-.633.512-1.14 1.14-1.14.634 0 1.141.507 1.141 1.14 0 .629-.507 1.136-1.14 1.136-.63 0-1.14-.507-1.14-1.136" fill-rule="evenodd" fill="#fff"/><path d="M285.578 199.262c0-.633.512-1.14 1.14-1.14.634 0 1.141.507 1.141 1.14 0 .629-.507 1.136-1.14 1.136-.63 0-1.14-.507-1.14-1.136zm0 0" fill="none" stroke-width=".06" stroke-linecap="square" stroke-linejoin="bevel" stroke="#000" stroke-miterlimit="10"/><path d="M288.64 191.281l-1.081-1.082H286l-1.078 1.082v1.559l1.078 1.082h1.559l1.082-1.082v-1.559" fill="green"/><path d="M288.64 191.281l-1.081-1.082H286l-1.078 1.082v1.559l1.078 1.082h1.559l1.082-1.082zm0 0" fill="none" stroke-width=".12" stroke-linecap="round" stroke-linejoin="round" stroke="green" stroke-miterlimit="10"/><path d="M285.578 192.059c0-.63.512-1.137 1.14-1.137a1.14 1.14 0 1 1-1.14 1.137" fill-rule="evenodd" fill="#fff"/><path d="M285.578 192.059c0-.63.512-1.137 1.14-1.137a1.14 1.14 0 1 1-1.14 1.137zm0 0" fill="none" stroke-width=".06" stroke-linecap="square" stroke-linejoin="bevel" stroke="#000" stroke-miterlimit="10"/><path d="M274.781 191.04l-1.383-1.38h-2.039l-1.379 1.38v2.038l1.38 1.383h2.038l1.383-1.383v-2.039" fill="green"/><path d="M274.781 191.04l-1.383-1.38h-2.039l-1.379 1.38v2.038l1.38 1.383h2.038l1.383-1.383zm0 0" fill="none" stroke-width=".12" stroke-linecap="round" stroke-linejoin="round" stroke="green" stroke-miterlimit="10"/><path d="M271.3 192.059a1.02 1.02 0 1 1 2.041.001 1.02 1.02 0 0 1-2.04-.001" fill-rule="evenodd" fill="#fff"/><path d="M271.3 192.059a1.02 1.02 0 1 1 2.041.001 1.02 1.02 0 0 1-2.04-.001zm0 0" fill="none" stroke-width=".06" stroke-linecap="square" stroke-linejoin="bevel" stroke="#000" stroke-miterlimit="10"/><path d="M274.781 226.98l-1.383-1.378h-2.039l-1.379 1.378v2.04l1.38 1.378h2.038l1.383-1.378v-2.04" fill="green"/><path d="M274.781 226.98l-1.383-1.378h-2.039l-1.379 1.378v2.04l1.38 1.378h2.038l1.383-1.378zm0 0" fill="none" stroke-width=".12" stroke-linecap="round" stroke-linejoin="round" stroke="green" stroke-miterlimit="10"/><path d="M271.3 228a1.02 1.02 0 1 1 2.041.001 1.02 1.02 0 0 1-2.04-.001" fill-rule="evenodd" fill="#fff"/><path d="M271.3 228a1.02 1.02 0 1 1 2.041.001 1.02 1.02 0 0 1-2.04-.001zm0 0" fill="none" stroke-width=".06" stroke-linecap="square" stroke-linejoin="bevel" stroke="#000" stroke-miterlimit="10"/><path d="M274.781 205.379L273.398 204h-2.039l-1.379 1.379v2.043l1.38 1.379h2.038l1.383-1.38v-2.042" fill="green"/><path d="M274.781 205.379L273.398 204h-2.039l-1.379 1.379v2.043l1.38 1.379h2.038l1.383-1.38zm0 0" fill="none" stroke-width=".12" stroke-linecap="round" stroke-linejoin="round" stroke="green" stroke-miterlimit="10"/><path d="M271.3 206.398a1.02 1.02 0 1 1 1.02 1.024c-.562 0-1.02-.457-1.02-1.024" fill-rule="evenodd" fill="#fff"/><path d="M271.3 206.398a1.02 1.02 0 1 1 1.02 1.024c-.562 0-1.02-.457-1.02-1.024zm0 0" fill="none" stroke-width=".06" stroke-linecap="square" stroke-linejoin="bevel" stroke="#000" stroke-miterlimit="10"/><path d="M325.121 198.238l-1.383-1.379H321.7l-1.379 1.38v2.042l1.38 1.38h2.038l1.383-1.38v-2.043" fill="green"/><path d="M325.121 198.238l-1.383-1.379H321.7l-1.379 1.38v2.042l1.38 1.38h2.038l1.383-1.38zm0 0" fill="none" stroke-width=".12" stroke-linecap="round" stroke-linejoin="round" stroke="green" stroke-miterlimit="10"/><path d="M321.64 199.262c0-.567.458-1.024 1.02-1.024a1.021 1.021 0 0 1 0 2.043 1.02 1.02 0 0 1-1.02-1.02" fill-rule="evenodd" fill="#fff"/><path d="M321.64 199.262c0-.567.458-1.024 1.02-1.024a1.021 1.021 0 0 1 0 2.043 1.02 1.02 0 0 1-1.02-1.02zm0 0" fill="none" stroke-width=".06" stroke-linecap="square" stroke-linejoin="bevel" stroke="#000" stroke-miterlimit="10"/><path d="M325.121 191.04l-1.383-1.38H321.7l-1.379 1.38v2.038l1.38 1.383h2.038l1.383-1.383v-2.039" fill="green"/><path d="M325.121 191.04l-1.383-1.38H321.7l-1.379 1.38v2.038l1.38 1.383h2.038l1.383-1.383zm0 0" fill="none" stroke-width=".12" stroke-linecap="round" stroke-linejoin="round" stroke="green" stroke-miterlimit="10"/><path d="M321.64 192.059a1.02 1.02 0 1 1 2.041.001 1.02 1.02 0 0 1-2.04-.001" fill-rule="evenodd" fill="#fff"/><path d="M321.64 192.059a1.02 1.02 0 1 1 2.041.001 1.02 1.02 0 0 1-2.04-.001zm0 0" fill="none" stroke-width=".06" stroke-linecap="square" stroke-linejoin="bevel" stroke="#000" stroke-miterlimit="10"/><path d="M265.18 184.86h64.68m0 0v50.34m0 0h-64.68m0 0v-50.34" fill="none" stroke-width=".12" stroke-linecap="round" stroke-linejoin="round" stroke="#000" stroke-miterlimit="10"/></svg>