<svg xmlns="http://www.w3.org/2000/svg" xmlns:xlink="http://www.w3.org/1999/xlink" width="842pt" height="595pt" viewBox="0 0 842 595"><defs><symbol overflow="visible" id="a"><path d="M2.094-1H1.75v1h-.375v-1H.078v-.422l1.313-1.5h.359v1.61h.344zm-.719-.313v-1.14l-.984 1.14zm0 0"/></symbol><symbol overflow="visible" id="b"><path d="M.844 0H.375v-.563h.469zm0 0"/></symbol><symbol overflow="visible" id="c"><path d="M2.047-2.484L.78 0H.36l1.344-2.578H.187v-.344h1.86zm0 0"/></symbol><symbol overflow="visible" id="d"><path d="M2.11-1.156c0 .367-.09.656-.266.875-.18.219-.399.328-.657.328A.83.83 0 0 1 .891 0a.74.74 0 0 1-.25-.11v.922H.266v-3H.64v.235c.082-.082.18-.156.296-.219a.907.907 0 0 1 .375-.078c.25 0 .442.102.579.297.144.2.218.465.218.797zm-.391.047c0-.25-.04-.442-.11-.579a.425.425 0 0 0-.39-.218c-.106.011-.211.039-.313.078a1.143 1.143 0 0 0-.265.172v1.25c.093.043.175.074.25.094.062.023.14.03.234.03.188 0 .332-.07.438-.218.101-.133.156-.336.156-.61zm0 0"/></symbol><symbol overflow="visible" id="e"><path d="M2.047-2.578H.687v.828h1.297v.344H.688V0H.296v-2.922h1.75zm0 0"/></symbol><symbol overflow="visible" id="f"><path d="M1.86 0H.436v-.297H.97V-2.25H.438v-.266c.195 0 .347-.03.453-.093.093-.051.144-.157.156-.313h.297v2.625h.515zm0 0"/></symbol><symbol overflow="visible" id="g"><path d="M1.984 0h-.359v-1.25c0-.094-.008-.188-.016-.281a.566.566 0 0 0-.062-.203.382.382 0 0 0-.125-.125 1.042 1.042 0 0 0-.219-.047.589.589 0 0 0-.281.078c-.106.055-.2.117-.281.187V0H.266v-2.188H.64v.235a1.42 1.42 0 0 1 .312-.219.831.831 0 0 1 .344-.078c.219 0 .39.07.516.203.113.149.171.356.171.625zm0 0"/></symbol><symbol overflow="visible" id="h"><path d="M2.078 0h-.484L.78-1.063l-.14.141V0H.266v-3.047H.64v1.781l.859-.921h.453l-.89.906zm0 0"/></symbol><symbol overflow="visible" id="i"><path d="M1-2.64a.671.671 0 0 0-.203.03.873.873 0 0 0-.219.063.582.582 0 0 0-.156.078c-.055.031-.094.059-.125.078H.266v-.406a2.29 2.29 0 0 1 .359-.125c.133-.039.27-.062.406-.062.133 0 .25.015.344.046a.62.62 0 0 1 .266.126c.093.062.16.136.203.218.039.094.062.2.062.313a.612.612 0 0 1-.156.422.669.669 0 0 1-.375.234v.031a.919.919 0 0 1 .39.188c.051.062.098.136.141.218.04.086.063.196.063.329A.875.875 0 0 1 1.89-.5a.803.803 0 0 1-.188.297.745.745 0 0 1-.312.187c-.118.051-.25.079-.407.079C.836.063.691.046.547.015a1.814 1.814 0 0 1-.36-.141v-.406H.22C.3-.47.41-.411.547-.36a1.094 1.094 0 0 0 .656.046.559.559 0 0 0 .203-.124c.051-.063.094-.126.125-.188.02-.07.032-.16.032-.266a.687.687 0 0 0-.047-.265.491.491 0 0 0-.125-.157.446.446 0 0 0-.188-.078 1.123 1.123 0 0 0-.25-.03H.781v-.329h.14c.165 0 .306-.04.423-.125a.419.419 0 0 0 .172-.36.371.371 0 0 0-.047-.187.493.493 0 0 0-.11-.125 1.15 1.15 0 0 0-.171-.078A1.296 1.296 0 0 0 1-2.641zm0 0"/></symbol><symbol overflow="visible" id="p"><path d="M2.063-.953c0 .156-.028.297-.079.422-.054.125-.12.23-.203.312a.723.723 0 0 1-.297.203.78.78 0 0 1-.343.079C1.004.063.883.038.78 0a.891.891 0 0 1-.297-.203A1.194 1.194 0 0 1 .25-.625a2.253 2.253 0 0 1-.078-.656c0-.25.023-.477.078-.688.05-.207.129-.383.234-.531.102-.145.239-.258.407-.344.164-.082.359-.125.578-.125h.187c.063.012.114.024.157.031v.376h-.016a.676.676 0 0 0-.156-.047.87.87 0 0 0-.22-.032.784.784 0 0 0-.593.25c-.148.168-.234.414-.265.735.093-.063.19-.114.296-.157a.973.973 0 0 1 .313-.046c.113 0 .21.011.297.03a.792.792 0 0 1 .515.438c.051.125.079.274.079.438zm-.407.015a.861.861 0 0 0-.047-.296.5.5 0 0 0-.14-.204.735.735 0 0 0-.172-.093c-.074-.008-.14-.016-.203-.016a.745.745 0 0 0-.266.047 1.272 1.272 0 0 0-.265.125v.172c0 .21.019.375.062.5.04.125.086.219.14.281.051.063.11.106.172.125a.326.326 0 0 0 .204.031c.156 0 .28-.05.375-.156.093-.113.14-.285.14-.516zm0 0"/></symbol><symbol overflow="visible" id="q"><path d="M1.281-1.094H.171v-.36h1.11zm0 0"/></symbol><symbol overflow="visible" id="r"><path d="M1.984-.922c0 .137-.023.266-.062.39a1.304 1.304 0 0 1-.203.313.757.757 0 0 1-.297.203c-.125.051-.262.079-.406.079C.867.063.726.046.594.015A1.216 1.216 0 0 1 .25-.11v-.407h.016c.03.024.078.047.14.079.051.023.114.046.188.078.07.023.14.043.203.062.062.012.133.016.219.016.07 0 .148-.016.234-.047a.389.389 0 0 0 .188-.125.604.604 0 0 0 .109-.203c.02-.07.031-.164.031-.281a.868.868 0 0 0-.031-.25.491.491 0 0 0-.125-.157.644.644 0 0 0-.203-.11 1.265 1.265 0 0 0-.282-.03c-.105 0-.21.007-.312.015-.117.024-.203.04-.266.047v-1.5h1.61v.344H.734v.781c.051-.008.098-.016.141-.016H1c.156 0 .285.012.39.032.094.031.192.078.298.14a.782.782 0 0 1 .218.282c.051.117.078.261.078.437zm0 0"/></symbol><symbol overflow="visible" id="s"><path d="M2.031-1.453c0 .523-.078.902-.234 1.14-.149.25-.383.376-.703.376C.77.063.535-.064.39-.314.234-.563.156-.94.156-1.452c0-.531.078-.914.235-1.156.156-.25.39-.375.703-.375.32 0 .554.132.703.39.156.25.234.633.234 1.14zm-.5.875a2.32 2.32 0 0 0 .078-.36 9.314 9.314 0 0 0 0-1.046 2.427 2.427 0 0 0-.078-.36.573.573 0 0 0-.172-.234.414.414 0 0 0-.265-.078.446.446 0 0 0-.266.078.512.512 0 0 0-.172.234 1.997 1.997 0 0 0-.078.375 6.995 6.995 0 0 0-.015.516c0 .2.003.371.015.516.008.136.035.257.078.359.04.105.098.183.172.234.063.055.149.078.266.078a.436.436 0 0 0 .265-.078.525.525 0 0 0 .172-.234zm0 0"/></symbol><symbol overflow="visible" id="t"><path d="M2.016 0H.219v-.406l.36-.36c.112-.101.226-.218.343-.343.219-.25.367-.446.453-.594.07-.145.113-.297.125-.453a.487.487 0 0 0-.047-.219.602.602 0 0 0-.11-.156.629.629 0 0 0-.344-.11.822.822 0 0 0-.218.032.685.685 0 0 0-.203.062 1.166 1.166 0 0 0-.156.078c-.055.031-.094.059-.125.078H.28v-.406c.07-.039.18-.082.328-.125.145-.039.286-.062.422-.062.258 0 .469.074.625.218.157.149.235.344.235.594 0 .117-.012.219-.032.313-.03.093-.07.183-.109.265a2.195 2.195 0 0 1-.188.25 4.057 4.057 0 0 1-.203.25 7.154 7.154 0 0 1-.421.422 7.96 7.96 0 0 1-.36.344h1.438zm0 0"/></symbol><symbol overflow="visible" id="u"><path d="M2.281-.89a.703.703 0 0 1-.094.374.72.72 0 0 1-.218.282.865.865 0 0 1-.344.172A1.62 1.62 0 0 1 1.141 0H.297v-2.922h.781c.195 0 .352.008.469.016.094.023.191.058.297.11a.588.588 0 0 1 .297.53c0 .149-.04.274-.11.375a.778.778 0 0 1-.297.25v.016c.164.055.301.14.407.266a.76.76 0 0 1 .14.468zm-.547-1.313a.554.554 0 0 0-.03-.188.281.281 0 0 0-.11-.125.977.977 0 0 0-.219-.062 2.985 2.985 0 0 0-.313-.016H.688v.86h.438c.125 0 .21-.004.266-.016a.429.429 0 0 0 .187-.078.452.452 0 0 0 .125-.156.634.634 0 0 0 .031-.22zm.141 1.328a.73.73 0 0 0-.047-.281.355.355 0 0 0-.187-.172.722.722 0 0 0-.204-.063 2.985 2.985 0 0 0-.312-.015H.687v1.078H1c.164 0 .3-.008.406-.031a.478.478 0 0 0 .25-.094c.07-.05.13-.11.172-.172a.56.56 0 0 0 .047-.25zm0 0"/></symbol><symbol overflow="visible" id="v"><path d="M1.438.047a1.212 1.212 0 0 1-.532-.094A1.087 1.087 0 0 1 .5-.328a1.388 1.388 0 0 1-.281-.469 2.147 2.147 0 0 1-.094-.656c0-.25.031-.461.094-.64C.28-2.27.375-2.43.5-2.579c.113-.125.25-.223.406-.297.156-.063.332-.094.531-.094.102 0 .196.008.282.016.082.023.16.043.234.062.063.024.129.043.203.063.063.031.125.07.188.11v.468h-.031c-.032-.031-.075-.07-.126-.125-.062-.04-.132-.082-.203-.125a2.15 2.15 0 0 0-.234-.11 1.54 1.54 0 0 0-.313-.03.767.767 0 0 0-.343.078.876.876 0 0 0-.297.218.997.997 0 0 0-.188.375 1.552 1.552 0 0 0-.078.516c0 .2.024.371.078.516a.83.83 0 0 0 .188.359c.082.105.18.18.297.219a.718.718 0 0 0 .343.078.99.99 0 0 0 .313-.047A.83.83 0 0 0 2-.422a1.42 1.42 0 0 0 .313-.234h.03v.453a2.274 2.274 0 0 0-.171.094 1.023 1.023 0 0 1-.219.078C1.867 0 1.79.019 1.72.03a2.627 2.627 0 0 1-.282.016zm0 0"/></symbol><symbol overflow="visible" id="w"><path d="M1.969 0h-.36v-.25a1.526 1.526 0 0 1-.328.234.78.78 0 0 1-.61.032.505.505 0 0 1-.218-.157.685.685 0 0 1-.156-.25A1.29 1.29 0 0 1 .25-.766v-1.421h.375v1.25c0 .117.004.21.016.28 0 .087.015.153.046.204.032.062.07.105.125.125a.78.78 0 0 0 .516-.031 1.41 1.41 0 0 0 .281-.204v-1.625h.36zm0 0"/></symbol><symbol overflow="visible" id="x"><path d="M2.422 0h-.39v-1.422H.686V0h-.39v-2.922h.39v1.14h1.344v-1.14h.39zm0 0"/></symbol><symbol overflow="visible" id="y"><path d="M2.563 0h-.516l-.922-1.156H.687V0h-.39v-2.922h.75c.164 0 .305.012.422.031.113.024.222.063.328.125a.8.8 0 0 1 .234.25.751.751 0 0 1 .094.391c0 .219-.059.398-.172.531a.913.913 0 0 1-.437.328zm-.844-2.094a.598.598 0 0 0-.047-.234.412.412 0 0 0-.14-.156.446.446 0 0 0-.188-.079c-.074-.007-.168-.019-.282-.03H.688v1.109h.344c.102 0 .203-.008.297-.032a.459.459 0 0 0 .219-.125.38.38 0 0 0 .125-.187.66.66 0 0 0 .047-.266zm0 0"/></symbol><symbol overflow="visible" id="z"><path d="M2.61-1.125h-.985v1h-.328v-1H.313v-.313h.984v-.984h.328v.985h.984zm0 0"/></symbol><symbol overflow="visible" id="A"><path d="M1.625-1.719c0-.195-.016-.36-.047-.484a.918.918 0 0 0-.156-.297.421.421 0 0 0-.172-.125.629.629 0 0 0-.188-.031.479.479 0 0 0-.39.172c-.094.117-.14.28-.14.5a.76.76 0 0 0 .046.296.505.505 0 0 0 .156.22.25.25 0 0 0 .157.077 1.004 1.004 0 0 0 .484-.031.627.627 0 0 0 .25-.11v-.077-.11zm-1.5-.25c0-.156.023-.289.078-.406a1.08 1.08 0 0 1 .203-.328c.082-.082.18-.149.297-.203a.875.875 0 0 1 .719 0 .713.713 0 0 1 .281.187c.102.117.18.258.234.422.063.18.094.399.094.656 0 .25-.031.48-.094.688a1.639 1.639 0 0 1-.234.547c-.117.148-.25.261-.406.344a1.24 1.24 0 0 1-.578.124C.664.063.609.056.547.048A.358.358 0 0 1 .39.016V-.36h.015c.031.023.082.039.156.046a.569.569 0 0 0 .204.032c.257 0 .46-.082.609-.25.145-.164.227-.406.25-.719-.105.063-.203.11-.297.14a.825.825 0 0 1-.312.063.83.83 0 0 1-.297-.047.663.663 0 0 1-.266-.125.745.745 0 0 1-.234-.312.963.963 0 0 1-.094-.438zm0 0"/></symbol><symbol overflow="visible" id="B"><path d="M2.406-2.922L1.406 0H.984l-1-2.922h.422L1.203-.5l.813-2.422zm0 0"/></symbol><symbol overflow="visible" id="C"><path d="M1.516.063c-.211 0-.399-.032-.563-.094a.962.962 0 0 1-.437-.297 1.177 1.177 0 0 1-.282-.469 1.894 1.894 0 0 1-.109-.672c0-.226.035-.437.11-.625a1.33 1.33 0 0 1 .28-.484c.114-.125.258-.223.438-.297.176-.063.363-.094.563-.094.101 0 .195.008.28.016.095.023.18.043.266.062.063.024.133.047.22.079a.829.829 0 0 1 .187.093v.469h-.031c-.043-.04-.09-.082-.141-.125a1.311 1.311 0 0 0-.219-.125c-.086-.04-.18-.07-.281-.094a1.039 1.039 0 0 0-.328-.047.798.798 0 0 0-.672.329c-.18.21-.266.492-.266.843 0 .188.024.36.078.516a.83.83 0 0 0 .188.36.745.745 0 0 0 .312.234.884.884 0 0 0 .391.078c.113 0 .223-.004.328-.016.102-.02.195-.047.281-.078v-.75h-.687v-.344h1.062v1.282c-.054.023-.117.046-.187.078-.094.03-.172.058-.235.078-.105.031-.195.05-.265.062-.074.02-.168.032-.281.032zm0 0"/></symbol><symbol overflow="visible" id="D"><path d="M2.39 0h-.437L.656-2.516V0h-.36v-2.922h.548L2.016-.609v-2.313h.375zm0 0"/></symbol><symbol overflow="visible" id="E"><path d="M2.594-1.453c0 .262-.055.5-.156.719-.106.218-.25.386-.438.5a1.33 1.33 0 0 1-.453.187A2.89 2.89 0 0 1 .969 0H.297v-2.922h.656c.281 0 .5.024.656.063.157.043.286.101.391.171.188.126.332.293.438.5.101.211.156.454.156.735zm-.406-.016c0-.218-.04-.41-.11-.578a.813.813 0 0 0-.328-.36 1.342 1.342 0 0 0-.328-.14 1.832 1.832 0 0 0-.438-.047H.688v2.266h.296c.164 0 .317-.016.454-.047a1.016 1.016 0 0 0 .656-.516c.062-.156.094-.347.094-.578zm0 0"/></symbol><symbol overflow="visible" id="J"><path d="M.984 0v-2.578H0v-.344h2.344v.344h-.985V0zm0 0"/></symbol><symbol overflow="visible" id="K"><path d="M1.984 0H.297v-2.922h.39v2.578h1.297zm0 0"/></symbol><symbol overflow="visible" id="j"><path d="M2.125.078c-.293 0-.559-.043-.797-.125a1.578 1.578 0 0 1-.61-.406 1.856 1.856 0 0 1-.405-.672 3.043 3.043 0 0 1-.126-.922c0-.332.047-.629.141-.89.082-.258.211-.485.39-.672.165-.176.368-.317.61-.422.25-.094.52-.14.813-.14.132 0 .265.01.39.03.125.024.242.047.36.079.093.03.195.07.312.109.113.055.207.094.281.125v.656h-.046a2.22 2.22 0 0 1-.22-.172 2.536 2.536 0 0 0-.688-.313 2.175 2.175 0 0 0-.452-.046c-.398 0-.719.148-.969.437-.242.305-.359.7-.359 1.188 0 .281.031.527.094.734.062.211.156.383.281.516.113.148.254.258.422.328.164.074.351.11.562.11.157 0 .305-.008.454-.032.156-.02.285-.05.39-.094v-1.062h-.937v-.484H3.5v1.796c-.074.032-.168.07-.281.11a1.69 1.69 0 0 1-.328.11c-.137.042-.258.07-.36.093-.117.02-.25.031-.406.031zm0 0"/></symbol><symbol overflow="visible" id="k"><path d="M3.344 0h-.61L.922-3.531V0h-.5v-4.094h.766L2.843-.859v-3.235h.5zm0 0"/></symbol><symbol overflow="visible" id="l"><path d="M3.656-2.047c0 .375-.078.715-.234 1.016a1.8 1.8 0 0 1-1.235.968A4.441 4.441 0 0 1 1.36 0H.422v-4.094h.922c.383 0 .691.028.922.078.207.063.39.141.546.235.27.18.477.414.626.703.144.293.218.637.218 1.031zm-.578 0c0-.32-.055-.594-.156-.812a1.194 1.194 0 0 0-.469-.532A2.058 2.058 0 0 0 2-3.578a3.486 3.486 0 0 0-.625-.047H.969v3.156h.406c.238 0 .453-.02.64-.062a1.29 1.29 0 0 0 .5-.203c.188-.133.329-.305.422-.516a2.02 2.02 0 0 0 .141-.797zm0 0"/></symbol><symbol overflow="visible" id="m"><path d="M3.672-1.578h-1.39v1.39h-.454v-1.39H.438v-.438h1.39v-1.39h.453v1.39h1.39zm0 0"/></symbol><symbol overflow="visible" id="n"><path d="M1.844.078c-.242 0-.45-.031-.625-.094a1.296 1.296 0 0 1-.469-.28 1.16 1.16 0 0 1-.297-.516 2.451 2.451 0 0 1-.094-.735v-2.547h.547v2.547c0 .2.016.36.047.484.02.125.067.243.14.344a.6.6 0 0 0 .298.25.997.997 0 0 0 .453.094c.176 0 .328-.031.453-.094a.62.62 0 0 0 .312-.25.89.89 0 0 0 .141-.344c.02-.125.031-.28.031-.468v-2.563h.547v2.547c0 .293-.027.54-.078.734-.063.211-.168.383-.313.516a1.202 1.202 0 0 1-.453.281c-.18.07-.39.102-.64.094zm0 0"/></symbol><symbol overflow="visible" id="o"><path d="M3.203-1.266c0 .211-.043.391-.125.547-.074.156-.18.29-.312.39-.149.118-.309.2-.485.25-.18.056-.406.079-.687.079H.422v-4.094H1.5c.29 0 .508.008.656.016.145.023.285.07.422.14a.904.904 0 0 1 .328.313c.063.125.094.277.094.453 0 .188-.047.36-.14.516a.997.997 0 0 1-.438.36v.015c.25.074.441.195.578.36.133.179.203.398.203.655zm-.765-1.828a.687.687 0 0 0-.047-.265.389.389 0 0 0-.157-.172.823.823 0 0 0-.296-.094 6.61 6.61 0 0 0-.454-.016H.97v1.204h.61c.175 0 .3-.008.374-.032a.565.565 0 0 0 .438-.312.893.893 0 0 0 .046-.313zm.187 1.86a1.12 1.12 0 0 0-.063-.391c-.042-.094-.132-.176-.265-.25-.086-.04-.18-.07-.281-.094a5.837 5.837 0 0 0-.438-.015h-.61V-.47h.438c.239 0 .426-.008.563-.031a.827.827 0 0 0 .593-.39.806.806 0 0 0 .063-.344zm0 0"/></symbol><symbol overflow="visible" id="F"><path d="M-.016 0l.797-2.344h.375L1.953 0h-.328l-.219-.656h-.89L.296 0zm1.344-.922l-.36-1.11-.374 1.11zm0 0"/></symbol><symbol overflow="visible" id="G"><path d="M1.922 0h-.36L.532-2.031V0H.233v-2.344h.454l.937 1.86v-1.86h.297zm0 0"/></symbol><symbol overflow="visible" id="H"><path d="M.781 0v-2.078H0v-.266h1.89v.266h-.796V0zm0 0"/></symbol><symbol overflow="visible" id="I"><path d="M1.5 0H.36v-.234H.78v-1.579H.36v-.218c.157 0 .274-.02.36-.063.07-.05.113-.14.125-.265h.25v2.125H1.5zm0 0"/></symbol></defs><use xlink:href="#a" x="424.129" y="303.061" fill="#505050"/><use xlink:href="#b" x="426.349" y="303.061" fill="#505050"/><use xlink:href="#c" x="427.549" y="303.061" fill="#505050"/><use xlink:href="#d" x="429.769" y="303.061" fill="#505050"/><use xlink:href="#e" x="431.989" y="303.061" fill="#505050"/><use xlink:href="#f" x="358.475" y="331.842" fill="#505050"/><use xlink:href="#g" x="360.695" y="331.842" fill="#505050"/><use xlink:href="#e" x="362.915" y="331.842" fill="#505050"/><use xlink:href="#a" x="322.858" y="277.158" fill="#505050"/><use xlink:href="#b" x="325.078" y="277.158" fill="#505050"/><use xlink:href="#c" x="326.278" y="277.158" fill="#505050"/><use xlink:href="#h" x="328.498" y="277.158" fill="#505050"/><use xlink:href="#i" x="358.595" y="277.158" fill="#505050"/><use xlink:href="#i" x="360.815" y="277.158" fill="#505050"/><use xlink:href="#h" x="363.035" y="277.158" fill="#505050"/><use xlink:href="#j" x="396.674" y="386.524" fill="#505050"/><use xlink:href="#k" x="400.454" y="386.524" fill="#505050"/><use xlink:href="#l" x="404.234" y="386.524" fill="#505050"/><use xlink:href="#m" x="398.113" y="212.399" fill="#505050"/><use xlink:href="#n" x="402.193" y="212.399" fill="#505050"/><use xlink:href="#o" x="405.913" y="212.399" fill="#505050"/><use xlink:href="#m" x="507.48" y="298.742" fill="#505050"/><use xlink:href="#n" x="511.56" y="298.742" fill="#505050"/><use xlink:href="#o" x="515.28" y="298.742" fill="#505050"/><use xlink:href="#j" x="506.041" y="363.499" fill="#505050"/><use xlink:href="#k" x="509.821" y="363.499" fill="#505050"/><use xlink:href="#l" x="513.601" y="363.499" fill="#505050"/><use xlink:href="#f" x="413.932" y="271.402" fill="#505050"/><use xlink:href="#b" x="416.152" y="271.402" fill="#505050"/><use xlink:href="#p" x="417.352" y="271.402" fill="#505050"/><use xlink:href="#q" x="419.572" y="271.402" fill="#505050"/><use xlink:href="#f" x="421.012" y="271.402" fill="#505050"/><use xlink:href="#r" x="423.232" y="271.402" fill="#505050"/><use xlink:href="#d" x="425.452" y="271.402" fill="#505050"/><use xlink:href="#e" x="427.672" y="271.402" fill="#505050"/><use xlink:href="#a" x="393.912" y="340.476" fill="#505050"/><use xlink:href="#b" x="396.132" y="340.476" fill="#505050"/><use xlink:href="#c" x="397.332" y="340.476" fill="#505050"/><use xlink:href="#i" x="345.165" y="309.105" fill="#505050"/><use xlink:href="#i" x="347.385" y="309.105" fill="#505050"/><use xlink:href="#s" x="349.605" y="309.105" fill="#505050"/><use xlink:href="#g" x="351.825" y="309.105" fill="#505050"/><use xlink:href="#e" x="354.045" y="309.105" fill="#505050"/><use xlink:href="#t" x="500.159" y="334.72" fill="#505050"/><use xlink:href="#t" x="502.379" y="334.72" fill="#505050"/><use xlink:href="#g" x="504.599" y="334.72" fill="#505050"/><use xlink:href="#e" x="506.819" y="334.72" fill="#505050"/><use xlink:href="#u" x="405.884" y="294.425" fill="#505050"/><use xlink:href="#v" x="408.224" y="294.425" fill="#505050"/><use xlink:href="#r" x="410.624" y="294.425" fill="#505050"/><use xlink:href="#a" x="412.844" y="294.425" fill="#505050"/><use xlink:href="#c" x="415.064" y="294.425" fill="#505050"/><use xlink:href="#f" x="389.534" y="271.402" fill="#505050"/><use xlink:href="#w" x="391.754" y="271.402" fill="#505050"/><use xlink:href="#x" x="393.974" y="271.402" fill="#505050"/><use xlink:href="#v" x="429.469" y="294.425" fill="#505050"/><use xlink:href="#t" x="431.869" y="294.425" fill="#505050"/><use xlink:href="#v" x="360.395" y="323.206" fill="#505050"/><use xlink:href="#i" x="362.795" y="323.206" fill="#505050"/><use xlink:href="#y" x="325.738" y="268.522" fill="#505050"/><use xlink:href="#t" x="328.258" y="268.522" fill="#505050"/><use xlink:href="#y" x="360.275" y="268.522" fill="#505050"/><use xlink:href="#i" x="362.795" y="268.522" fill="#505050"/><use xlink:href="#v" x="425.152" y="257.01" fill="#505050"/><use xlink:href="#f" x="427.552" y="257.01" fill="#505050"/><use xlink:href="#y" x="394.812" y="331.84" fill="#505050"/><use xlink:href="#f" x="397.332" y="331.84" fill="#505050"/><use xlink:href="#v" x="348.345" y="294.137" fill="#505050"/><use xlink:href="#a" x="350.745" y="294.137" fill="#505050"/><use xlink:href="#z" x="472.578" y="318.889" fill="#505050"/><use xlink:href="#A" x="475.518" y="318.889" fill="#505050"/><use xlink:href="#B" x="477.738" y="318.889" fill="#505050"/><use xlink:href="#C" x="472.038" y="341.914" fill="#505050"/><use xlink:href="#D" x="474.738" y="341.914" fill="#505050"/><use xlink:href="#E" x="477.438" y="341.914" fill="#505050"/><use xlink:href="#F" x="467.664" y="218.444" fill="#505050"/><use xlink:href="#G" x="469.584" y="218.444" fill="#505050"/><use xlink:href="#H" x="471.744" y="218.444" fill="#505050"/><use xlink:href="#I" x="473.664" y="218.444" fill="#505050"/><use xlink:href="#v" x="504.299" y="326.084" fill="#505050"/><use xlink:href="#r" x="506.699" y="326.084" fill="#505050"/><use xlink:href="#J" x="388.66" y="294.425" fill="#505050"/><use xlink:href="#f" x="391" y="294.425" fill="#505050"/><use xlink:href="#K" x="392.474" y="257.01" fill="#505050"/><use xlink:href="#t" x="394.454" y="257.01" fill="#505050"/><path d="M436.98 303.059v-4.02M436.98 291.54v4.019" fill="none" stroke-width=".36000000000000004" stroke-linecap="round" stroke-linejoin="round" stroke="maroon" stroke-miterlimit="10"/><path d="M432.96 299.04H441v-1.2h-8.04zm0 0M432.96 296.762H441v-1.203h-8.04zm0 0" fill="maroon" stroke-width=".12" stroke-linecap="round" stroke-linejoin="round" stroke="maroon" stroke-miterlimit="10"/><path d="M367.922 331.86v-4.02M367.922 320.34v4.02" fill="none" stroke-width=".36000000000000004" stroke-linecap="round" stroke-linejoin="round" stroke="maroon" stroke-miterlimit="10"/><path d="M363.898 327.84h8.043v-1.2h-8.043zm0 0M363.898 325.559h8.043v-1.2h-8.043zm0 0" fill="maroon" stroke-width=".12" stroke-linecap="round" stroke-linejoin="round" stroke="maroon" stroke-miterlimit="10"/><path d="M333.36 259.86v5.761M333.36 282.898v-5.757" fill="none" stroke-width=".36000000000000004" stroke-linecap="round" stroke-linejoin="round" stroke="maroon" stroke-miterlimit="10"/><path d="M335.398 277.14v-11.519M331.32 265.621v11.52M335.398 265.621h-4.078M335.398 277.14h-4.078" fill="none" stroke-width=".6000000000000001" stroke-linecap="round" stroke-linejoin="round" stroke="maroon" stroke-miterlimit="10"/><path d="M367.922 259.86v5.761M367.922 282.898v-5.757" fill="none" stroke-width=".36000000000000004" stroke-linecap="round" stroke-linejoin="round" stroke="maroon" stroke-miterlimit="10"/><path d="M369.898 277.14v-11.519M365.879 265.621v11.52M369.898 265.621h-4.02M369.898 277.14h-4.02M398.102 380.762h8.636" fill="none" stroke-width=".6000000000000001" stroke-linecap="round" stroke-linejoin="round" stroke="maroon" stroke-miterlimit="10"/><path d="M402.422 375v5.762M400.98 216.719h2.88M402.422 218.16v-2.879" fill="none" stroke-width=".36000000000000004" stroke-linecap="round" stroke-linejoin="round" stroke="maroon" stroke-miterlimit="10"/><path d="M399.238 216.719l.184-.899.36-.84.597-.66.723-.48.898-.238h.898l.84.238.782.48.601.66.36.84.12.899-.12.902-.36.777-.601.723-.782.48-.84.239H402l-.898-.238-.723-.48-.598-.724-.36-.777-.183-.902h.602l.12-.719.302-.66.476-.602.602-.36.719-.237h.722l.719.238.602.36.476.6.363.661.059.719-.059.722-.363.66-.476.598-.602.36-.719.242h-.722l-.72-.242-.6-.36-.477-.597-.301-.66-.121-.723h-.602" fill-rule="evenodd" fill="maroon"/><path d="M399.238 216.719l.184-.899.36-.84.597-.66.723-.48.898-.238h.898l.84.238.782.48.601.66.36.84.12.899-.12.902-.36.777-.601.723-.782.48-.84.239H402l-.898-.238-.723-.48-.598-.724-.36-.777-.183-.902h.602l.12-.719.302-.66.476-.602.602-.36.719-.237h.722l.719.238.602.36.476.6.363.661.059.719-.059.722-.363.66-.476.598-.602.36-.719.242h-.722l-.72-.242-.6-.36-.477-.597-.301-.66-.121-.723zm0 0" fill="none" stroke-width=".12" stroke-linecap="round" stroke-linejoin="round" stroke="maroon" stroke-miterlimit="10"/><path d="M402.422 225.36v-5.758M510.36 303.059h2.878M511.8 304.5v-2.879" fill="none" stroke-width=".36000000000000004" stroke-linecap="round" stroke-linejoin="round" stroke="maroon" stroke-miterlimit="10"/><path d="M508.621 303.059l.117-.899.422-.84.54-.66.78-.48.84-.239h.899l.902.239.719.48.601.66.418.84.121.899-.12.902-.419.84-.601.66-.719.48-.902.239h-.899l-.84-.239-.78-.48-.54-.66-.422-.84-.117-.902h.598l.12-.72.302-.66.48-.6.598-.36.722-.239h.72l.718.239.601.36.48.6.302.66.117.72-.117.722-.301.66-.48.598-.602.36-.719.242h-.719l-.722-.243-.598-.359-.48-.598-.301-.66-.121-.722h-.598" fill-rule="evenodd" fill="maroon"/><path d="M508.621 303.059l.117-.899.422-.84.54-.66.78-.48.84-.239h.899l.902.239.719.48.601.66.418.84.121.899-.12.902-.419.84-.601.66-.719.48-.902.239h-.899l-.84-.239-.78-.48-.54-.66-.422-.84-.117-.902h.598l.12-.72.302-.66.48-.6.598-.36.722-.239h.72l.718.239.601.36.48.6.302.66.117.72-.117.722-.301.66-.48.598-.602.36-.719.242h-.719l-.722-.243-.598-.359-.48-.598-.301-.66-.121-.722zm0 0" fill="none" stroke-width=".12" stroke-linecap="round" stroke-linejoin="round" stroke="maroon" stroke-miterlimit="10"/><path d="M511.8 311.7v-5.759" fill="none" stroke-width=".36000000000000004" stroke-linecap="round" stroke-linejoin="round" stroke="maroon" stroke-miterlimit="10"/><path d="M507.48 357.719h8.641" fill="none" stroke-width=".6000000000000001" stroke-linecap="round" stroke-linejoin="round" stroke="maroon" stroke-miterlimit="10"/><path d="M511.8 351.96v5.759M335.64 326.64h-4.562M335.64 324.66h-2.28M333.36 324.66h-2.282M333.36 324.66v-1.738" fill="none" stroke-width=".36000000000000004" stroke-linecap="round" stroke-linejoin="round" stroke="maroon" stroke-miterlimit="10"/><path d="M339.121 326.102a5.761 5.761 0 0 1-5.762 5.757 5.758 5.758 0 0 1-5.757-5.757 5.759 5.759 0 1 1 11.52 0zm0 0" fill="none" stroke-width=".6000000000000001" stroke-linecap="round" stroke-linejoin="round" stroke="maroon" stroke-miterlimit="10"/><path d="M327 331.86h1.2v-11.52H327zm0 0" fill="maroon" stroke-width=".12" stroke-linecap="round" stroke-linejoin="round" stroke="maroon" stroke-miterlimit="10"/><path d="M333.36 314.578v5.762M333.36 337.621v-5.762M335.64 325.5h-4.562M335.64 325.5v-.84M331.078 325.5v-.84M335.64 327.238h-2.28M333.36 327.238h-2.282M335.64 327.238v-.597M333.36 329.52v-2.282M331.078 327.238v-.597" fill="none" stroke-width=".36000000000000004" stroke-linecap="round" stroke-linejoin="round" stroke="maroon" stroke-miterlimit="10"/><path d="M331.078 327.238h4.563v-.597h-4.563zm0 0" fill="maroon" stroke-width=".12" stroke-linecap="round" stroke-linejoin="round" stroke="maroon" stroke-miterlimit="10"/><path d="M436.98 268.5v-4.02M436.98 256.98v4.079" fill="none" stroke-width=".36000000000000004" stroke-linecap="round" stroke-linejoin="round" stroke="maroon" stroke-miterlimit="10"/><path d="M440.398 266.82l-8.636-8.64M430.078 259.86l1.684-1.68M431.762 258.18l1.738-1.739" fill="none" stroke-width=".7200000000000001" stroke-linecap="round" stroke-linejoin="round" stroke="maroon" stroke-miterlimit="10"/><path d="M430.078 267.36v-5.16M430.078 262.2l-.598 1.741M430.078 262.2l.543 1.741" fill="none" stroke-width=".36000000000000004" stroke-linecap="round" stroke-linejoin="round" stroke="maroon" stroke-miterlimit="10"/><path d="M432.36 264.54h9.242v-1.2h-9.243zm0 0M432.36 262.2h9.242V261h-9.243zm0 0" fill="maroon" stroke-width=".12" stroke-linecap="round" stroke-linejoin="round" stroke="maroon" stroke-miterlimit="10"/><path d="M402.422 323.219v5.761M402.422 346.262V340.5" fill="none" stroke-width=".36000000000000004" stroke-linecap="round" stroke-linejoin="round" stroke="maroon" stroke-miterlimit="10"/><path d="M404.46 340.5v-11.52M400.441 328.98v11.52M404.46 328.98h-4.019M404.46 340.5h-4.019" fill="none" stroke-width=".6000000000000001" stroke-linecap="round" stroke-linejoin="round" stroke="maroon" stroke-miterlimit="10"/><path d="M356.398 300.18h-4.02M344.879 300.18h4.02" fill="none" stroke-width=".36000000000000004" stroke-linecap="round" stroke-linejoin="round" stroke="maroon" stroke-miterlimit="10"/><path d="M351.18 304.2h1.199v-8.04h-1.2zm0 0M348.898 304.2h1.204v-8.04h-1.204zm0 0" fill="maroon" stroke-width=".12" stroke-linecap="round" stroke-linejoin="round" stroke="maroon" stroke-miterlimit="10"/><path d="M494.52 317.46h-5.758" fill="none" stroke-width=".6000000000000001" stroke-linecap="round" stroke-linejoin="round" stroke="maroon" stroke-miterlimit="10"/><path d="M482.7 317.46l.179-.901.36-.84.6-.66.72-.48.902-.24h.898l.84.24.781.48.598.66.363.84.118.902-.118.898-.363.782-.598.718-.78.48-.84.24h-.9l-.901-.24-.72-.48-.6-.718-.36-.782-.18-.898h.602l.12-.723.298-.718.48-.54.602-.359.719-.242h.718l.723.242.66.36.48.539.297.718.063.723-.063.719-.296.66-.48.539-.661.422-.723.238h-.718l-.72-.238-.6-.422-.481-.54-.297-.66-.121-.718h-.602" fill-rule="evenodd" fill="maroon"/><path d="M482.7 317.46l.179-.901.36-.84.6-.66.72-.48.902-.24h.898l.84.24.781.48.598.66.363.84.118.902-.118.898-.363.782-.598.718-.78.48-.84.24h-.9l-.901-.24-.72-.48-.6-.718-.36-.782-.18-.898h.602l.12-.723.298-.718.48-.54.602-.359.719-.242h.718l.723.242.66.36.48.539.297.718.063.723-.063.719-.296.66-.48.539-.661.422-.723.238h-.718l-.72-.238-.6-.422-.481-.54-.297-.66-.121-.718zm0 0" fill="none" stroke-width=".12" stroke-linecap="round" stroke-linejoin="round" stroke="maroon" stroke-miterlimit="10"/><path d="M494.52 340.5h-5.758" fill="none" stroke-width=".6000000000000001" stroke-linecap="round" stroke-linejoin="round" stroke="maroon" stroke-miterlimit="10"/><path d="M482.7 340.5l.179-.898.36-.84.6-.66.72-.48.902-.302h.898l.84.301.781.48.598.66.363.84.118.899-.118.84-.363.84-.598.66-.78.539-.84.242h-.9l-.901-.242-.72-.54-.6-.66-.36-.84-.18-.839h.602l.12-.781.298-.66.48-.54.602-.417.719-.18h.718l.723.18.66.418.48.539.297.66.063.781-.063.719-.296.66-.48.543-.661.418-.723.18h-.718l-.72-.18-.6-.418-.481-.543-.297-.66-.121-.719h-.602" fill-rule="evenodd" fill="maroon"/><path d="M482.7 340.5l.179-.898.36-.84.6-.66.72-.48.902-.302h.898l.84.301.781.48.598.66.363.84.118.899-.118.84-.363.84-.598.66-.78.539-.84.242h-.9l-.901-.242-.72-.54-.6-.66-.36-.84-.18-.839h.602l.12-.781.298-.66.48-.54.602-.417.719-.18h.718l.723.18.66.418.48.539.297.66.063.781-.063.719-.296.66-.48.543-.661.418-.723.18h-.718l-.72-.18-.6-.418-.481-.543-.297-.66-.121-.719zm0 0" fill="none" stroke-width=".12" stroke-linecap="round" stroke-linejoin="round" stroke="maroon" stroke-miterlimit="10"/><path d="M465.719 219.602h5.761M477.238 219.602l-5.758 5.757M471.48 225.36l-5.761-5.758M471.48 219.602v5.757M471.48 219.602h5.758" fill="none" stroke-width=".6000000000000001" stroke-linecap="round" stroke-linejoin="round" stroke="maroon" stroke-miterlimit="10"/><path d="M471.48 231.121v-5.762M511.8 334.738v-4.078M511.8 323.219v4.02" fill="none" stroke-width=".36000000000000004" stroke-linecap="round" stroke-linejoin="round" stroke="maroon" stroke-miterlimit="10"/><path d="M507.781 330.719h8.04v-1.2h-8.04zm0 0M507.781 328.441h8.04v-1.203h-8.04zm0 0" fill="maroon" stroke-width=".12" stroke-linecap="round" stroke-linejoin="round" stroke="maroon" stroke-miterlimit="10"/><path d="M402.422 294.422l-5.582 2.816M399.96 303.3l1.2 1.981M401.16 305.281l-2.34.297M398.82 305.578l1.14-2.277M402.422 305.941l-1.262-.66M401.16 305.281l-3.781-1.86" fill="none" stroke-width=".36000000000000004" stroke-linecap="round" stroke-linejoin="round" stroke="maroon" stroke-miterlimit="10"/><path d="M399.422 305.281l1.258-.12M400.68 305.16l-.72-1.32" fill="none" stroke-width=".7200000000000001" stroke-linecap="round" stroke-linejoin="round" stroke="maroon" stroke-miterlimit="10"/><path d="M399.96 303.84l-.538 1.14M399.422 304.98h.84M400.262 304.98l-.301-.539" fill="none" stroke-width=".6000000000000001" stroke-linecap="round" stroke-linejoin="round" stroke="maroon" stroke-miterlimit="10"/><path d="M395.52 305.941h1.68v-11.52h-1.68zm0 0" fill="maroon" stroke-width=".12" stroke-linecap="round" stroke-linejoin="round" stroke="maroon" stroke-miterlimit="10"/><path d="M390.898 300.18h5.762M402.422 311.7v-5.759M402.422 288.66v5.762" fill="none" stroke-width=".36000000000000004" stroke-linecap="round" stroke-linejoin="round" stroke="maroon" stroke-miterlimit="10"/><path d="M407.7 300.18a8.159 8.159 0 0 1-8.16 8.16 8.159 8.159 0 0 1-8.161-8.16 8.159 8.159 0 0 1 8.16-8.16 8.159 8.159 0 0 1 8.16 8.16zm0 0" fill="none" stroke-width=".9" stroke-linecap="round" stroke-linejoin="round" stroke="maroon" stroke-miterlimit="10"/><path d="M399.54 268.5l.12.781.3.66.419.598.601.48.72.301.722.059M402.422 265.621l-.723.117-.719.301-.601.422-.418.598-.3.722-.122.719" fill="none" stroke-width=".6000000000000001" stroke-linecap="round" stroke-linejoin="round" stroke="maroon" stroke-miterlimit="10"/><path d="M399.54 262.738l.12.782.3.66.419.601.601.48.72.298.722.062M402.422 259.86l-.723.12-.719.301-.601.48-.418.54-.3.719-.122.718" fill="none" stroke-width=".6000000000000001" stroke-linecap="round" stroke-linejoin="round" stroke="maroon" stroke-miterlimit="10"/><path d="M399.54 256.98l.12.782.3.66.419.598.601.48.72.3.722.06M402.422 254.16l-.723.059-.719.3-.601.481-.418.602-.3.66-.122.718M402.422 251.281v2.88M402.422 274.262v-2.883" fill="none" stroke-width=".6000000000000001" stroke-linecap="round" stroke-linejoin="round" stroke="maroon" stroke-miterlimit="10"/><path d="M436.98 303.059v14.402M436.98 317.46h-34.558M402.422 323.219v-5.758" fill="none" stroke-width=".36000000000000004" stroke-linecap="round" stroke-linejoin="round" stroke="green" stroke-miterlimit="10"/><path d="M403.559 317.46a1.139 1.139 0 1 1-2.278 0c0-.632.508-1.14 1.14-1.14.63 0 1.138.508 1.138 1.14" fill-rule="evenodd" fill="green"/><path d="M403.559 317.46a1.139 1.139 0 1 1-2.278 0c0-.632.508-1.14 1.14-1.14.63 0 1.138.508 1.138 1.14zm0 0" fill="none" stroke-width=".12" stroke-linecap="round" stroke-linejoin="round" stroke="green" stroke-miterlimit="10"/><path d="M402.422 317.46v-5.76M367.922 282.898v17.282M367.922 300.18v20.16M367.922 300.18h22.976" fill="none" stroke-width=".36000000000000004" stroke-linecap="round" stroke-linejoin="round" stroke="green" stroke-miterlimit="10"/><path d="M369.059 300.18a1.139 1.139 0 1 1-2.278 0 1.14 1.14 0 1 1 2.278 0" fill-rule="evenodd" fill="green"/><path d="M369.059 300.18a1.139 1.139 0 1 1-2.278 0 1.14 1.14 0 1 1 2.278 0zm0 0" fill="none" stroke-width=".12" stroke-linecap="round" stroke-linejoin="round" stroke="green" stroke-miterlimit="10"/><path d="M356.398 300.18h11.524M333.36 300.18v-17.282M344.879 300.18h-11.52M333.36 300.18v14.398" fill="none" stroke-width=".36000000000000004" stroke-linecap="round" stroke-linejoin="round" stroke="green" stroke-miterlimit="10"/><path d="M334.5 300.18c0 .629-.512 1.14-1.14 1.14-.63 0-1.141-.511-1.141-1.14 0-.63.511-1.14 1.14-1.14.63 0 1.141.51 1.141 1.14" fill-rule="evenodd" fill="green"/><path d="M334.5 300.18c0 .629-.512 1.14-1.14 1.14-.63 0-1.141-.511-1.141-1.14 0-.63.511-1.14 1.14-1.14.63 0 1.141.51 1.141 1.14zm0 0" fill="none" stroke-width=".12" stroke-linecap="round" stroke-linejoin="round" stroke="green" stroke-miterlimit="10"/><path d="M402.422 346.262v5.699M402.422 351.96h-34.5M333.36 351.96h34.562M367.922 351.96v-20.1" fill="none" stroke-width=".36000000000000004" stroke-linecap="round" stroke-linejoin="round" stroke="green" stroke-miterlimit="10"/><path d="M369.059 351.96a1.139 1.139 0 1 1-2.278 0c0-.632.508-1.14 1.14-1.14.63 0 1.138.508 1.138 1.14" fill-rule="evenodd" fill="green"/><path d="M369.059 351.96a1.139 1.139 0 1 1-2.278 0c0-.632.508-1.14 1.14-1.14.63 0 1.138.508 1.138 1.14zm0 0" fill="none" stroke-width=".12" stroke-linecap="round" stroke-linejoin="round" stroke="green" stroke-miterlimit="10"/><path d="M402.422 351.96V375" fill="none" stroke-width=".36000000000000004" stroke-linecap="round" stroke-linejoin="round" stroke="green" stroke-miterlimit="10"/><path d="M403.559 351.96a1.139 1.139 0 1 1-2.278 0c0-.632.508-1.14 1.14-1.14.63 0 1.138.508 1.138 1.14" fill-rule="evenodd" fill="green"/><path d="M403.559 351.96a1.139 1.139 0 1 1-2.278 0c0-.632.508-1.14 1.14-1.14.63 0 1.138.508 1.138 1.14zm0 0" fill="none" stroke-width=".12" stroke-linecap="round" stroke-linejoin="round" stroke="green" stroke-miterlimit="10"/><path d="M333.36 337.621v14.34M494.52 340.5h17.28M511.8 340.5v11.46M511.8 334.738v5.762" fill="none" stroke-width=".36000000000000004" stroke-linecap="round" stroke-linejoin="round" stroke="green" stroke-miterlimit="10"/><path d="M512.941 340.5c0 .629-.511 1.14-1.14 1.14-.63 0-1.14-.511-1.14-1.14 0-.629.51-1.14 1.14-1.14.629 0 1.14.511 1.14 1.14" fill-rule="evenodd" fill="green"/><path d="M512.941 340.5c0 .629-.511 1.14-1.14 1.14-.63 0-1.14-.511-1.14-1.14 0-.629.51-1.14 1.14-1.14.629 0 1.14.511 1.14 1.14zm0 0" fill="none" stroke-width=".12" stroke-linecap="round" stroke-linejoin="round" stroke="green" stroke-miterlimit="10"/><path d="M367.922 259.86v-17.22M367.922 242.64h34.5" fill="none" stroke-width=".36000000000000004" stroke-linecap="round" stroke-linejoin="round" stroke="green" stroke-miterlimit="10"/><path d="M403.559 242.64a1.139 1.139 0 1 1-2.278 0 1.14 1.14 0 1 1 2.278 0" fill-rule="evenodd" fill="green"/><path d="M403.559 242.64a1.139 1.139 0 1 1-2.278 0 1.14 1.14 0 1 1 2.278 0zm0 0" fill="none" stroke-width=".12" stroke-linecap="round" stroke-linejoin="round" stroke="green" stroke-miterlimit="10"/><path d="M333.36 259.86v-17.22M333.36 242.64h34.562" fill="none" stroke-width=".36000000000000004" stroke-linecap="round" stroke-linejoin="round" stroke="green" stroke-miterlimit="10"/><path d="M369.059 242.64a1.139 1.139 0 1 1-2.278 0 1.14 1.14 0 1 1 2.278 0" fill-rule="evenodd" fill="green"/><path d="M369.059 242.64a1.139 1.139 0 1 1-2.278 0 1.14 1.14 0 1 1 2.278 0zm0 0" fill="none" stroke-width=".12" stroke-linecap="round" stroke-linejoin="round" stroke="green" stroke-miterlimit="10"/><path d="M436.98 242.64h-34.558M402.422 242.64v-17.28M436.98 256.98v-14.34M402.422 242.64v8.641M494.52 317.46h17.28M511.8 317.46v-5.76" fill="none" stroke-width=".36000000000000004" stroke-linecap="round" stroke-linejoin="round" stroke="green" stroke-miterlimit="10"/><path d="M512.941 317.46c0 .63-.511 1.142-1.14 1.142-.63 0-1.14-.512-1.14-1.141a1.14 1.14 0 1 1 2.28 0" fill-rule="evenodd" fill="green"/><path d="M512.941 317.46c0 .63-.511 1.142-1.14 1.142-.63 0-1.14-.512-1.14-1.141a1.14 1.14 0 1 1 2.28 0zm0 0" fill="none" stroke-width=".12" stroke-linecap="round" stroke-linejoin="round" stroke="green" stroke-miterlimit="10"/><path d="M511.8 317.46v5.759M402.422 274.262v8.636M402.422 282.898v5.762M402.422 282.898h34.558" fill="none" stroke-width=".36000000000000004" stroke-linecap="round" stroke-linejoin="round" stroke="green" stroke-miterlimit="10"/><path d="M403.559 282.898c0 .633-.508 1.141-1.137 1.141-.633 0-1.14-.508-1.14-1.14 0-.63.507-1.137 1.14-1.137.629 0 1.137.508 1.137 1.136" fill-rule="evenodd" fill="green"/><path d="M403.559 282.898c0 .633-.508 1.141-1.137 1.141-.633 0-1.14-.508-1.14-1.14 0-.63.507-1.137 1.14-1.137.629 0 1.137.508 1.137 1.136zm0 0" fill="none" stroke-width=".12" stroke-linecap="round" stroke-linejoin="round" stroke="green" stroke-miterlimit="10"/><path d="M436.98 282.898v8.641" fill="none" stroke-width=".36000000000000004" stroke-linecap="round" stroke-linejoin="round" stroke="green" stroke-miterlimit="10"/><path d="M438.121 282.898a1.14 1.14 0 1 1-2.279.003 1.14 1.14 0 0 1 2.28-.003" fill-rule="evenodd" fill="green"/><path d="M438.121 282.898a1.14 1.14 0 1 1-2.279.003 1.14 1.14 0 0 1 2.28-.003zm0 0" fill="none" stroke-width=".12" stroke-linecap="round" stroke-linejoin="round" stroke="green" stroke-miterlimit="10"/><path d="M436.98 282.898h34.5M471.48 282.898v-51.777M436.98 268.5v14.398" fill="none" stroke-width=".36000000000000004" stroke-linecap="round" stroke-linejoin="round" stroke="green" stroke-miterlimit="10"/></svg>