<svg xmlns="http://www.w3.org/2000/svg" xmlns:xlink="http://www.w3.org/1999/xlink" width="595pt" height="560" viewBox="0 0 595 420"><defs><symbol overflow="visible" id="a"><path d="M.86.031A.796.796 0 0 1 .546-.03a.536.536 0 0 1-.25-.172.582.582 0 0 1-.156-.281 1.093 1.093 0 0 1-.063-.391c0-.145.02-.27.063-.375a.749.749 0 0 1 .156-.297.863.863 0 0 1 .25-.172.796.796 0 0 1 .312-.062c.063 0 .118.008.172.015.051.012.098.024.14.032.04.011.079.027.11.046a1 1 0 0 1 .125.047v.282h-.015a.245.245 0 0 1-.079-.063c-.03-.02-.074-.047-.125-.078-.042-.02-.09-.04-.14-.063a1.296 1.296 0 0 0-.188-.015.444.444 0 0 0-.203.047.584.584 0 0 0-.187.125.936.936 0 0 0-.11.234.861.861 0 0 0-.046.297c0 .125.015.23.046.313.032.085.07.156.125.218.04.063.098.106.172.125a.444.444 0 0 0 .203.047c.07 0 .133-.004.188-.016a.865.865 0 0 0 .156-.062c.04-.031.078-.055.11-.078a.318.318 0 0 1 .078-.063h.015v.266a2.173 2.173 0 0 0-.11.063l-.124.046c-.055.012-.102.02-.14.032A.957.957 0 0 1 .858.03zm0 0"/></symbol><symbol overflow="visible" id="b"><path d="M1.203 0H.125v-.25a3.918 3.918 0 0 0 .422-.422C.68-.816.773-.93.828-1.016a.732.732 0 0 0 .063-.28c0-.04-.008-.083-.016-.126a1.302 1.302 0 0 1-.063-.094.525.525 0 0 0-.093-.046C.676-1.57.633-1.579.594-1.579a.644.644 0 0 0-.125.016 1.946 1.946 0 0 1-.125.03.264.264 0 0 1-.094.048.369.369 0 0 1-.078.046v-.25c.039-.019.11-.039.203-.062.082-.02.16-.031.234-.031.164 0 .297.043.391.125a.46.46 0 0 1 .14.36.629.629 0 0 1-.03.187.486.486 0 0 1-.063.156 1.578 1.578 0 0 1-.234.297 2.516 2.516 0 0 1-.25.25c-.094.086-.168.152-.22.203h.86zm0 0"/></symbol><symbol overflow="visible" id="c"><path d="M.594-1.578a.644.644 0 0 0-.125.016 1.946 1.946 0 0 1-.125.03.264.264 0 0 1-.094.048.369.369 0 0 1-.078.046H.156v-.234a.817.817 0 0 1 .219-.078c.082-.02.164-.031.25-.031.07 0 .14.008.203.015a.648.648 0 0 1 .156.079.6.6 0 0 1 .125.14c.02.055.032.117.032.188 0 .093-.032.18-.094.25a.407.407 0 0 1-.234.14v.016c.039.012.082.023.125.031.039.024.082.047.125.078a.428.428 0 0 1 .078.125.6.6 0 0 1 .03.203.822.822 0 0 1-.03.22A.668.668 0 0 1 .844 0a.972.972 0 0 1-.25.031 1.151 1.151 0 0 1-.485-.11v-.233h.016c.05.03.117.062.203.093a.692.692 0 0 0 .39.032.36.36 0 0 0 .204-.188.806.806 0 0 0 .015-.156.37.37 0 0 0-.03-.156.166.166 0 0 0-.079-.094.258.258 0 0 0-.11-.063h-.25v-.203h.079a.436.436 0 0 0 .265-.078.267.267 0 0 0 .063-.328.17.17 0 0 0-.063-.078.525.525 0 0 0-.093-.047H.594zm0 0"/></symbol><symbol overflow="visible" id="f"><path d="M.594 0v-1.547H0v-.203h1.406v.203H.813V0zm0 0"/></symbol><symbol overflow="visible" id="g"><path d="M1.125 0h-.86v-.172h.313v-1.172H.266v-.172a.61.61 0 0 0 .265-.046c.051-.032.082-.094.094-.188h.188v1.578h.312zm0 0"/></symbol><symbol overflow="visible" id="x"><path d="M1.188-.563a.522.522 0 0 1-.047.235.45.45 0 0 1-.11.187.606.606 0 0 1-.422.172C.523.031.441.023.36.016a.951.951 0 0 1-.218-.079v-.25h.015l.078.047c.032.024.067.04.11.047a.33.33 0 0 0 .14.032.36.36 0 0 0 .125.015.67.67 0 0 0 .141-.016c.04-.019.078-.05.11-.093a.237.237 0 0 0 .062-.11.48.48 0 0 0 .031-.171.268.268 0 0 0-.031-.141.555.555 0 0 0-.078-.11.258.258 0 0 0-.11-.062C.68-.883.625-.891.563-.891.5-.89.438-.883.374-.875l-.156.031v-.906h.953v.203H.438v.469H.53a.212.212 0 0 1 .078-.016c.082 0 .157.012.22.032.062.011.124.039.187.078.05.054.093.109.125.171a.57.57 0 0 1 .046.25zm0 0"/></symbol><symbol overflow="visible" id="y"><path d="M1.25-.61h-.203V0H.813v-.61H.046v-.234l.781-.906h.219v.953h.203zM.812-.796v-.672l-.578.672zm0 0"/></symbol><symbol overflow="visible" id="z"><path d="M.5 0H.219v-.328H.5zm0 0"/></symbol><symbol overflow="visible" id="A"><path d="M1.234-1.484L.47 0h-.25l.797-1.547H.109v-.203h1.125zm0 0"/></symbol><symbol overflow="visible" id="B"><path d="M1.266-.688c0 .22-.055.391-.157.516a.49.49 0 0 1-.406.203A.48.48 0 0 1 .531 0a.41.41 0 0 1-.156-.063v.547H.156v-1.796h.219v.14c.063-.05.125-.094.188-.125a.476.476 0 0 1 .218-.047c.156 0 .274.059.36.172.082.125.125.29.125.484zm-.235.016a.831.831 0 0 0-.062-.344.267.267 0 0 0-.235-.125.416.416 0 0 0-.187.047c-.063.032-.121.07-.172.11v.734a.644.644 0 0 0 .156.063c.04.011.086.015.14.015.114 0 .204-.039.266-.125.063-.082.094-.207.094-.375zm0 0"/></symbol><symbol overflow="visible" id="C"><path d="M1.219-1.547H.406v.5h.781v.203h-.78V0H.171v-1.75h1.047zm0 0"/></symbol><symbol overflow="visible" id="D"><path d="M1.188 0h-.22v-.75-.172a.419.419 0 0 0-.046-.125.1.1 0 0 0-.063-.062.337.337 0 0 0-.14-.032.38.38 0 0 0-.172.047c-.055.032-.11.07-.172.11V0H.156v-1.313h.219v.141c.07-.05.14-.094.203-.125a.444.444 0 0 1 .203-.047.38.38 0 0 1 .297.125c.07.086.11.203.11.36zm0 0"/></symbol><symbol overflow="visible" id="d"><path d="M1.984 0H.297v-2.922h.39v2.578h1.297zm0 0"/></symbol><symbol overflow="visible" id="e"><path d="M1.86 0H.436v-.297H.97V-2.25H.438v-.266c.195 0 .347-.03.453-.093.093-.051.144-.157.156-.313h.297v2.625h.515zm0 0"/></symbol><symbol overflow="visible" id="j"><path d="M2.563 0h-.516l-.922-1.156H.687V0h-.39v-2.922h.75c.164 0 .305.012.422.031.113.024.222.063.328.125a.8.8 0 0 1 .234.25.751.751 0 0 1 .094.391c0 .219-.059.398-.172.531a.913.913 0 0 1-.437.328zm-.844-2.094a.598.598 0 0 0-.047-.234.412.412 0 0 0-.14-.156.446.446 0 0 0-.188-.079c-.074-.007-.168-.019-.282-.03H.688v1.109h.344c.102 0 .203-.008.297-.032a.459.459 0 0 0 .219-.125.38.38 0 0 0 .125-.187.66.66 0 0 0 .047-.266zm0 0"/></symbol><symbol overflow="visible" id="h"><path d="M1.156.047C1 .047.86.02.734-.031a.724.724 0 0 1-.328-.235A1.045 1.045 0 0 1 .187-.64a1.6 1.6 0 0 1-.078-.53c0-.196.024-.368.079-.516.039-.145.109-.274.203-.391a.928.928 0 0 1 .343-.235c.125-.05.266-.078.422-.078.082 0 .16.008.235.016.062.012.125.027.187.047.05.012.102.027.156.047l.157.094v.374h-.032a.388.388 0 0 0-.109-.093.69.69 0 0 0-.156-.11 1.041 1.041 0 0 0-.188-.078.972.972 0 0 0-.25-.031.702.702 0 0 0-.516.234.738.738 0 0 0-.156.313c-.043.117-.062.25-.062.406 0 .156.02.293.062.406.04.125.094.227.157.297.07.086.148.149.234.188a.885.885 0 0 0 .281.047.827.827 0 0 0 .25-.032.76.76 0 0 0 .203-.078.586.586 0 0 0 .157-.11c.039-.03.07-.054.093-.077h.032v.375c-.055.023-.102.043-.141.062-.055.024-.11.043-.172.063a1.16 1.16 0 0 1-.187.062c-.063.008-.141.016-.235.016zm0 0"/></symbol><symbol overflow="visible" id="i"><path d="M1.5 0H.36v-.234H.78v-1.579H.36v-.218c.157 0 .274-.02.36-.063.07-.05.113-.14.125-.265h.25v2.125H1.5zm0 0"/></symbol><symbol overflow="visible" id="E"><path d="M1.594 0h-.297v-.203a1.115 1.115 0 0 1-.266.187.674.674 0 0 1-.484.032.527.527 0 0 1-.188-.125.38.38 0 0 1-.109-.204.893.893 0 0 1-.047-.312v-1.14H.5v1c0 .093.004.171.016.234 0 .062.015.12.046.172.02.043.051.074.094.093.04.024.098.032.172.032.07 0 .149-.02.235-.063.082-.039.16-.094.234-.156v-1.313h.297zm0 0"/></symbol><symbol overflow="visible" id="F"><path d="M1.953 0h-.312v-1.156H.547V0H.234v-2.344h.313v.922H1.64v-.922h.312zm0 0"/></symbol><symbol overflow="visible" id="J"><path d="M.672 0H.297v-.453h.375zm0 0"/></symbol><symbol overflow="visible" id="K"><path d="M1.594-.75a.973.973 0 0 1-.047.313.74.74 0 0 1-.156.25.61.61 0 0 1-.25.171.847.847 0 0 1-.329.063C.696.047.587.035.484.016a1.954 1.954 0 0 1-.28-.094v-.344h.015a.25.25 0 0 0 .11.063c.038.023.085.043.14.062.062.024.117.04.172.047.05.023.109.031.171.031A.416.416 0 0 0 1-.266a.31.31 0 0 0 .156-.109c.04-.04.07-.094.094-.156a.72.72 0 0 0 0-.422.967.967 0 0 0-.11-.14.648.648 0 0 0-.156-.079.917.917 0 0 0-.234-.031c-.086 0-.168.012-.25.031-.086.012-.152.024-.203.031v-1.203h1.281v.266H.594v.625h.11c.038 0 .077-.004.109-.016.113 0 .21.012.296.032a.788.788 0 0 1 .25.125c.07.054.13.125.172.218.04.086.063.2.063.344zm0 0"/></symbol><symbol overflow="visible" id="L"><path d="M1.031-.89h-.89v-.282h.89zm0 0"/></symbol><symbol overflow="visible" id="M"><path d="M1.656-.766a.961.961 0 0 1-.062.344.528.528 0 0 1-.157.25.666.666 0 0 1-.234.156A.786.786 0 0 1 .625 0a.756.756 0 0 1-.234-.172A.713.713 0 0 1 .203-.5a1.887 1.887 0 0 1-.062-.531 1.53 1.53 0 0 1 .062-.563 1.29 1.29 0 0 1 .188-.422.966.966 0 0 1 .328-.28c.133-.063.289-.095.469-.095h.156c.039.012.078.024.11.032v.296h-.016c-.024-.007-.063-.023-.125-.046a1.17 1.17 0 0 0-.172-.016.62.62 0 0 0-.47.203c-.124.125-.198.32-.218.578a.716.716 0 0 1 .234-.11.745.745 0 0 1 .266-.046c.082 0 .16.012.235.031a.88.88 0 0 1 .218.11.605.605 0 0 1 .188.25.9.9 0 0 1 .062.343zm-.312.016A.634.634 0 0 0 1.297-1a.32.32 0 0 0-.125-.156c-.043-.032-.086-.055-.125-.078C.984-1.242.926-1.25.875-1.25a.538.538 0 0 0-.219.047 1.527 1.527 0 0 0-.203.094v.14c0 .168.016.305.047.406.031.094.07.168.125.22a.29.29 0 0 0 .14.109.31.31 0 0 0 .157.03.358.358 0 0 0 .297-.14c.082-.094.125-.226.125-.406zm0 0"/></symbol><symbol overflow="visible" id="N"><path d="M1.688-.922c0 .293-.07.524-.204.688a.663.663 0 0 1-.53.265.791.791 0 0 1-.438-.125v.75H.219v-2.422h.297v.188c.07-.063.156-.117.25-.172a.647.647 0 0 1 .28-.063.57.57 0 0 1 .485.235c.102.168.157.387.157.656zM1.39-.89c0-.207-.032-.363-.094-.468a.356.356 0 0 0-.313-.172.515.515 0 0 0-.25.062.798.798 0 0 0-.218.14v1c.07.044.14.071.203.079.05.012.113.016.187.016a.438.438 0 0 0 .36-.172c.082-.102.125-.266.125-.485zm0 0"/></symbol><symbol overflow="visible" id="O"><path d="M1.64-2.078H.548v.672h1.047v.281H.547V0H.234v-2.344h1.407zm0 0"/></symbol><symbol overflow="visible" id="P"><path d="M1.64-1.172c0 .418-.062.727-.187.922-.125.2-.312.297-.562.297C.629.047.437-.051.312-.25.189-.445.126-.754.126-1.172c0-.426.063-.738.188-.937.124-.196.316-.297.578-.297.25 0 .437.105.562.312.125.211.188.516.188.922zm-.406.719c.032-.082.051-.18.063-.297.008-.125.016-.266.016-.422 0-.164-.008-.305-.016-.422a1.03 1.03 0 0 0-.063-.297.387.387 0 0 0-.14-.187.34.34 0 0 0-.203-.063.355.355 0 0 0-.22.063.387.387 0 0 0-.14.187 1.076 1.076 0 0 0-.062.297 4.605 4.605 0 0 0-.016.422c0 .168.004.305.016.406.008.118.031.215.062.297.031.086.07.149.125.188.063.043.14.062.235.062a.224.224 0 0 0 .203-.062.362.362 0 0 0 .14-.172zm0 0"/></symbol><symbol overflow="visible" id="k"><path d="M.031-.86a.796.796 0 0 1-.062.313.536.536 0 0 1-.172.25.582.582 0 0 1-.281.156 1.093 1.093 0 0 1-.391.063.993.993 0 0 1-.375-.063.749.749 0 0 1-.297-.156.863.863 0 0 1-.172-.25.796.796 0 0 1-.062-.312c0-.063.008-.118.015-.172.012-.051.024-.098.032-.14a.462.462 0 0 1 .046-.11 1 1 0 0 1 .047-.125h.282v.015a.245.245 0 0 1-.063.079c-.02.03-.047.074-.078.125-.02.042-.04.09-.063.14a1.296 1.296 0 0 0-.015.188c0 .074.016.14.047.203a.584.584 0 0 0 .125.187c.062.043.14.078.234.11a.861.861 0 0 0 .297.046c.125 0 .23-.015.313-.046a.667.667 0 0 0 .218-.125.282.282 0 0 0 .125-.172.444.444 0 0 0 .047-.203.909.909 0 0 0-.016-.188.865.865 0 0 0-.062-.156c-.031-.04-.055-.078-.078-.11a.318.318 0 0 1-.063-.078v-.015h.266c.023.043.043.078.063.11l.046.124c.012.055.02.102.032.14a.957.957 0 0 1 .015.173zm0 0"/></symbol><symbol overflow="visible" id="l"><path d="M-.61-1.25v.203H0v.234h-.61v.766h-.234l-.906-.781v-.219h.953v-.203zm-.187.438h-.672l.672.578zm0 0"/></symbol><symbol overflow="visible" id="G"><path d="M-.531-1.36c.086 0 .156.016.219.048a.418.418 0 0 1 .171.125c.055.074.09.148.11.218.023.074.031.172.031.297v.5h-1.75V-.64c0-.125.008-.218.016-.28a.534.534 0 0 1 .062-.173.34.34 0 0 1 .125-.14.371.371 0 0 1 .188-.047.4.4 0 0 1 .218.062.353.353 0 0 1 .157.188h.015a.548.548 0 0 1 .156-.25.488.488 0 0 1 .282-.078zm-.797.313a.21.21 0 0 0-.11.031.1.1 0 0 0-.062.063 1 1 0 0 0-.047.125v.422h.516v-.266a.515.515 0 0 0-.016-.156.274.274 0 0 0-.047-.11.145.145 0 0 0-.093-.078.268.268 0 0 0-.141-.03zm.797-.078a.37.37 0 0 0-.156.031.324.324 0 0 0-.11.11 1 1 0 0 0-.047.125v.453h.64v-.188c0-.101-.003-.187-.015-.25A.642.642 0 0 0-.266-1a.359.359 0 0 0-.109-.094.358.358 0 0 0-.156-.031zm0 0"/></symbol><symbol overflow="visible" id="H"><path d="M-.563-1.188c.094 0 .172.016.235.047a.45.45 0 0 1 .187.11.606.606 0 0 1 .172.422c0 .086-.008.168-.015.25a.951.951 0 0 1-.079.218h-.25v-.015l.047-.078a.252.252 0 0 0 .047-.11.33.33 0 0 0 .032-.14.36.36 0 0 0 .015-.125.67.67 0 0 0-.016-.141.306.306 0 0 0-.093-.11.237.237 0 0 0-.11-.062.48.48 0 0 0-.171-.031.268.268 0 0 0-.141.031.555.555 0 0 0-.11.078.258.258 0 0 0-.062.11c-.008.054-.016.109-.016.171 0 .063.008.125.016.188l.031.156h-.906v-.953h.203v.734h.469V-.53a.212.212 0 0 1-.016-.078c0-.082.012-.157.032-.22a.549.549 0 0 1 .078-.187.742.742 0 0 1 .171-.125.57.57 0 0 1 .25-.046zm0 0"/></symbol><symbol overflow="visible" id="I"><path d="M-1.484-1.234L0-.47v.25l-1.547-.797v.907h-.203v-1.125zm0 0"/></symbol><symbol overflow="visible" id="Q"><path d="M0-1.125v.86h-.172v-.313h-1.172v.312h-.172a.61.61 0 0 0-.046-.265c-.032-.051-.094-.082-.188-.094v-.188h1.578v-.312zm0 0"/></symbol><symbol overflow="visible" id="R"><path d="M0-1.188v.22h-.14c.054.073.093.14.124.202a.456.456 0 0 1 .047.204.806.806 0 0 1-.015.156.343.343 0 0 1-.094.14.616.616 0 0 1-.375.11h-.86v-.219H-.39c.043-.008.086-.02.125-.031a.135.135 0 0 0 .063-.078c.023-.032.031-.079.031-.141 0-.05-.016-.11-.047-.172a.985.985 0 0 0-.11-.172h-.984v-.219zm0 0"/></symbol><symbol overflow="visible" id="S"><path d="M-1.547-1.219v.813h.5v-.781h.203v.78H0v.235h-1.75v-1.047zm0 0"/></symbol><symbol overflow="visible" id="T"><path d="M-.875-1.219c.313 0 .543.047.688.14a.463.463 0 0 1 .218.423c0 .187-.07.328-.218.422-.145.093-.376.14-.688.14-.313 0-.54-.047-.688-.14a.47.47 0 0 1-.218-.422.47.47 0 0 1 .218-.422c.157-.094.387-.14.688-.14zm.531.297a.987.987 0 0 0-.219-.047 3.248 3.248 0 0 0-.625 0 1.42 1.42 0 0 0-.218.047.42.42 0 0 0-.14.11.256.256 0 0 0-.048.156c0 .062.016.117.047.156a.375.375 0 0 0 .14.11c.063.023.137.038.22.046h.312c.125.012.23.012.313 0A.827.827 0 0 0-.345-.39.234.234 0 0 0-.204-.5c.032-.031.048-.082.048-.156a.256.256 0 0 0-.047-.156.42.42 0 0 0-.14-.11zm0 0"/></symbol><symbol overflow="visible" id="U"><path d="M0-1.25v.297l-.64.484.093.094H0v.219h-1.828v-.219h1.062l-.546-.531v-.266l.546.531zm0 0"/></symbol><symbol overflow="visible" id="m"><path d="M-.906-2.11v.797h.797v.266h-.797v.797h-.25v-.797h-.797v-.266h.797v-.796zm0 0"/></symbol><symbol overflow="visible" id="n"><path d="M-.984-.906V.906h-.204V-.906zm0 0"/></symbol><symbol overflow="visible" id="o"><path d="M0 .016l-2.344-.797v-.375L0-1.953v.328l-.656.219v.89L0-.296zm-.922-1.344l-1.11.36 1.11.374zm0 0"/></symbol><symbol overflow="visible" id="p"><path d="M0-1.922v.36l-2.031 1.03H0v.298h-2.344v-.454l1.86-.937h-1.86v-.297zm0 0"/></symbol><symbol overflow="visible" id="q"><path d="M0-.781h-2.078V0h-.266v-1.89h.266v.796H0zm0 0"/></symbol><symbol overflow="visible" id="r"><path d="M-.89-1.031v.89h-.282v-.89zm0 0"/></symbol><symbol overflow="visible" id="s"><path d="M0-1.063v.922h-.234v-.312H-2.11v.312h-.235v-.921h.235v.296h1.875v-.296zm0 0"/></symbol><symbol overflow="visible" id="t"><path d="M.047-1.219c0 .168-.027.32-.078.453a.956.956 0 0 1-.235.36 1.045 1.045 0 0 1-.375.219 1.6 1.6 0 0 1-.53.078c-.196 0-.368-.024-.516-.079a1.323 1.323 0 0 1-.391-.218 1.103 1.103 0 0 1-.235-.36 1.266 1.266 0 0 1-.078-.453c0-.082.008-.16.016-.234.012-.07.027-.14.047-.203.023-.051.043-.114.062-.188.032-.062.059-.113.079-.156h.374v.031a.809.809 0 0 1-.109.125c-.02.043-.05.102-.094.172a1.29 1.29 0 0 0-.078.219c-.02.086-.031.172-.031.266 0 .23.086.414.25.546.18.149.406.22.688.22.156 0 .292-.02.406-.063A.715.715 0 0 0-.47-.641.998.998 0 0 0-.28-.89a.732.732 0 0 0 .062-.312.99.99 0 0 0-.031-.266.706.706 0 0 0-.047-.218h-.61v.53h-.28V-2h1.03a.865.865 0 0 1 .063.156.87.87 0 0 1 .063.188c.031.074.05.14.062.203.008.062.016.14.016.234zm0 0"/></symbol><symbol overflow="visible" id="u"><path d="M-1.172-2.094c.219 0 .414.043.578.125.18.094.313.215.406.36.075.117.126.234.157.359.023.125.031.281.031.469v.547h-2.344v-.547c0-.219.016-.39.047-.516.031-.125.074-.226.125-.312.106-.157.242-.274.406-.36.168-.082.368-.125.594-.125zm0 .328c-.187 0-.344.032-.469.094a.63.63 0 0 0-.296.266.979.979 0 0 0-.11.265 1.72 1.72 0 0 0-.031.344v.25h1.812v-.25c0-.133-.007-.254-.03-.36a.783.783 0 0 0-.422-.531 1.193 1.193 0 0 0-.454-.078zm0 0"/></symbol><symbol overflow="visible" id="v"><path d="M0-2.563v.516l-1.156.922v.438H0v.39h-2.922v-.75c0-.164.012-.305.031-.422.024-.113.063-.222.125-.328a.8.8 0 0 1 .25-.234.751.751 0 0 1 .391-.094c.219 0 .398.059.531.172.149.105.258.25.328.437zm-2.094.844a.598.598 0 0 0-.234.047.412.412 0 0 0-.156.14.446.446 0 0 0-.079.188c-.007.074-.019.168-.03.282v.375h1.109v-.344c0-.102-.008-.203-.032-.297a.459.459 0 0 0-.125-.219.38.38 0 0 0-.187-.125.66.66 0 0 0-.266-.047zm0 0"/></symbol><symbol overflow="visible" id="w"><path d="M0-2.016v1.797h-.406l-.36-.36a5.702 5.702 0 0 0-.343-.343 4.127 4.127 0 0 0-.594-.453 1.247 1.247 0 0 0-.453-.125.487.487 0 0 0-.219.047.602.602 0 0 0-.156.11.629.629 0 0 0-.11.344c0 .073.012.147.032.218.011.074.03.14.062.203.024.055.047.105.078.156.031.055.059.094.078.125v.016h-.406c-.039-.07-.082-.18-.125-.328a1.623 1.623 0 0 1-.062-.422c0-.258.074-.469.218-.625.149-.157.344-.235.594-.235.117 0 .219.012.313.032.093.03.183.07.265.109.086.055.168.117.25.188.086.062.168.132.25.203.137.125.278.265.422.421.149.149.262.266.344.36v-1.438zm0 0"/></symbol></defs><path d="M301.02 210h-7.2M293.82 210h14.399M301.02 210v-7.2M301.02 210h21.601M301.02 224.34h-7.2M301.02 224.34h14.402M315.422 224.34v-7.2M293.82 224.34h14.399M286.68 217.14H272.28M272.281 217.14h35.938M272.281 231.54h14.399M315.422 231.54H293.82M315.422 231.54h7.2M293.82 231.54h-7.14M286.68 188.398H272.28M286.68 188.398h14.34M301.02 188.398h21.601M272.281 224.34h7.2" fill="none" stroke-width="3.6" stroke-linecap="round" stroke-linejoin="round" stroke="navy" stroke-miterlimit="10"/><path d="M302.879 225.121L301.8 226.2h-1.563l-1.078-1.078v-1.562l1.078-1.079h1.563l1.078 1.079v1.562" fill="green"/><path d="M302.879 225.121L301.8 226.2h-1.563l-1.078-1.078v-1.562l1.078-1.079h1.563l1.078 1.079zm0 0" fill="none" stroke-width=".12" stroke-linecap="round" stroke-linejoin="round" stroke="green" stroke-miterlimit="10"/><path d="M302.16 224.34c0 .629-.512 1.14-1.14 1.14-.63 0-1.141-.511-1.141-1.14 0-.63.512-1.14 1.14-1.14.63 0 1.141.51 1.141 1.14" fill-rule="evenodd" fill="#fff"/><path d="M302.16 224.34c0 .629-.512 1.14-1.14 1.14-.63 0-1.141-.511-1.141-1.14 0-.63.512-1.14 1.14-1.14.63 0 1.141.51 1.141 1.14zm0 0" fill="none" stroke-width=".06" stroke-linecap="square" stroke-linejoin="bevel" stroke="#000" stroke-miterlimit="10"/><path d="M302.879 210.781l-1.078 1.078h-1.563l-1.078-1.078v-1.562l1.078-1.078h1.563l1.078 1.078v1.562" fill="green"/><path d="M302.879 210.781l-1.078 1.078h-1.563l-1.078-1.078v-1.562l1.078-1.078h1.563l1.078 1.078zm0 0" fill="none" stroke-width=".12" stroke-linecap="round" stroke-linejoin="round" stroke="green" stroke-miterlimit="10"/><path d="M302.16 210c0 .629-.512 1.14-1.14 1.14-.63 0-1.141-.511-1.141-1.14 0-.629.512-1.14 1.14-1.14.63 0 1.141.511 1.141 1.14" fill-rule="evenodd" fill="#fff"/><path d="M302.16 210c0 .629-.512 1.14-1.14 1.14-.63 0-1.141-.511-1.141-1.14 0-.629.512-1.14 1.14-1.14.63 0 1.141.511 1.141 1.14zm0 0" fill="none" stroke-width=".06" stroke-linecap="square" stroke-linejoin="bevel" stroke="#000" stroke-miterlimit="10"/><path d="M288.54 232.32l-1.08 1.078h-1.562l-1.078-1.078v-1.558l1.078-1.082h1.563l1.078 1.082v1.558" fill="green"/><path d="M288.54 232.32l-1.08 1.078h-1.562l-1.078-1.078v-1.558l1.078-1.082h1.563l1.078 1.082zm0 0" fill="none" stroke-width=".12" stroke-linecap="round" stroke-linejoin="round" stroke="green" stroke-miterlimit="10"/><path d="M287.82 231.54a1.14 1.14 0 1 1-2.28 0c0-.63.51-1.142 1.14-1.142.629 0 1.14.512 1.14 1.141" fill-rule="evenodd" fill="#fff"/><path d="M287.82 231.54a1.14 1.14 0 1 1-2.28 0c0-.63.51-1.142 1.14-1.142.629 0 1.14.512 1.14 1.141zm0 0" fill="none" stroke-width=".06" stroke-linecap="square" stroke-linejoin="bevel" stroke="#000" stroke-miterlimit="10"/><path d="M288.54 217.922L287.46 219h-1.562l-1.078-1.078v-1.563l1.078-1.078h1.563l1.078 1.078v1.563" fill="green"/><path d="M288.54 217.922L287.46 219h-1.562l-1.078-1.078v-1.563l1.078-1.078h1.563l1.078 1.078zm0 0" fill="none" stroke-width=".12" stroke-linecap="round" stroke-linejoin="round" stroke="green" stroke-miterlimit="10"/><path d="M287.82 217.14c0 .63-.511 1.141-1.14 1.141-.63 0-1.14-.511-1.14-1.14 0-.63.51-1.141 1.14-1.141.629 0 1.14.512 1.14 1.14" fill-rule="evenodd" fill="#fff"/><path d="M287.82 217.14c0 .63-.511 1.141-1.14 1.141-.63 0-1.14-.511-1.14-1.14 0-.63.51-1.141 1.14-1.141.629 0 1.14.512 1.14 1.14zm0 0" fill="none" stroke-width=".06" stroke-linecap="square" stroke-linejoin="bevel" stroke="#000" stroke-miterlimit="10"/><path d="M295.68 210a1.859 1.859 0 1 1-3.718.001 1.859 1.859 0 0 1 3.718-.001" fill-rule="evenodd" fill="green"/><path d="M295.68 210a1.859 1.859 0 1 1-3.718.001 1.859 1.859 0 0 1 3.718-.001zm0 0" fill="none" stroke-width=".12" stroke-linecap="round" stroke-linejoin="round" stroke="green" stroke-miterlimit="10"/><path d="M294.96 210c0 .629-.51 1.14-1.14 1.14-.629 0-1.14-.511-1.14-1.14 0-.629.511-1.14 1.14-1.14.63 0 1.14.511 1.14 1.14" fill-rule="evenodd" fill="#fff"/><path d="M294.96 210c0 .629-.51 1.14-1.14 1.14-.629 0-1.14-.511-1.14-1.14 0-.629.511-1.14 1.14-1.14.63 0 1.14.511 1.14 1.14zm0 0" fill="none" stroke-width=".06" stroke-linecap="square" stroke-linejoin="bevel" stroke="#000" stroke-miterlimit="10"/><path d="M288.54 188.398a1.862 1.862 0 0 1-1.86 1.864 1.862 1.862 0 0 1 0-3.723c1.027 0 1.86.832 1.86 1.86" fill-rule="evenodd" fill="green"/><path d="M288.54 188.398a1.862 1.862 0 0 1-1.86 1.864 1.862 1.862 0 0 1 0-3.723c1.027 0 1.86.832 1.86 1.86zm0 0" fill="none" stroke-width=".12" stroke-linecap="round" stroke-linejoin="round" stroke="green" stroke-miterlimit="10"/><path d="M287.82 188.398a1.14 1.14 0 1 1-2.279.003 1.14 1.14 0 0 1 2.28-.003" fill-rule="evenodd" fill="#fff"/><path d="M287.82 188.398a1.14 1.14 0 1 1-2.279.003 1.14 1.14 0 0 1 2.28-.003zm0 0" fill="none" stroke-width=".06" stroke-linecap="square" stroke-linejoin="bevel" stroke="#000" stroke-miterlimit="10"/><path d="M310.262 210c0 1.129-.914 2.04-2.043 2.04a2.038 2.038 0 1 1 0-4.08c1.129 0 2.043.911 2.043 2.04" fill-rule="evenodd" fill="green"/><path d="M310.262 210c0 1.129-.914 2.04-2.043 2.04a2.038 2.038 0 1 1 0-4.08c1.129 0 2.043.911 2.043 2.04zm0 0" fill="none" stroke-width=".12" stroke-linecap="round" stroke-linejoin="round" stroke="green" stroke-miterlimit="10"/><path d="M309.238 210a1.02 1.02 0 1 1-2.04-.001 1.02 1.02 0 0 1 2.04.001" fill-rule="evenodd" fill="#fff"/><path d="M309.238 210a1.02 1.02 0 1 1-2.04-.001 1.02 1.02 0 0 1 2.04.001zm0 0" fill="none" stroke-width=".06" stroke-linecap="square" stroke-linejoin="bevel" stroke="#000" stroke-miterlimit="10"/><path d="M310.262 224.34c0 1.129-.914 2.039-2.043 2.039a2.038 2.038 0 1 1 0-4.078c1.129 0 2.043.914 2.043 2.039" fill-rule="evenodd" fill="green"/><path d="M310.262 224.34c0 1.129-.914 2.039-2.043 2.039a2.038 2.038 0 1 1 0-4.078c1.129 0 2.043.914 2.043 2.039zm0 0" fill="none" stroke-width=".12" stroke-linecap="round" stroke-linejoin="round" stroke="green" stroke-miterlimit="10"/><path d="M309.238 224.34a1.02 1.02 0 1 1-2.04-.002 1.02 1.02 0 0 1 2.04.002" fill-rule="evenodd" fill="#fff"/><path d="M309.238 224.34a1.02 1.02 0 1 1-2.04-.002 1.02 1.02 0 0 1 2.04.002zm0 0" fill="none" stroke-width=".06" stroke-linecap="square" stroke-linejoin="bevel" stroke="#000" stroke-miterlimit="10"/><path d="M310.262 217.14a2.041 2.041 0 0 1-4.082 0c0-1.128.914-2.038 2.039-2.038 1.129 0 2.043.91 2.043 2.039" fill-rule="evenodd" fill="green"/><path d="M310.262 217.14a2.041 2.041 0 0 1-4.082 0c0-1.128.914-2.038 2.039-2.038 1.129 0 2.043.91 2.043 2.039zm0 0" fill="none" stroke-width=".12" stroke-linecap="round" stroke-linejoin="round" stroke="green" stroke-miterlimit="10"/><path d="M309.238 217.14a1.02 1.02 0 1 1-2.04 0 1.02 1.02 0 0 1 2.04 0" fill-rule="evenodd" fill="#fff"/><path d="M309.238 217.14a1.02 1.02 0 1 1-2.04 0 1.02 1.02 0 0 1 2.04 0zm0 0" fill="none" stroke-width=".06" stroke-linecap="square" stroke-linejoin="bevel" stroke="#000" stroke-miterlimit="10"/><path d="M300.059 200.46h1.921l1.38 1.38v1.922l-1.38 1.379h-1.921l-1.38-1.38v-1.921l1.38-1.38" fill="green"/><path d="M300.059 200.46h1.921l1.38 1.38v1.922l-1.38 1.379h-1.921l-1.38-1.38v-1.921zm0 0" fill="none" stroke-width=".12" stroke-linecap="round" stroke-linejoin="round" stroke="green" stroke-miterlimit="10"/><path d="M302.578 202.8a1.558 1.558 0 1 1-3.117 0 1.559 1.559 0 1 1 3.117 0" fill-rule="evenodd" fill="#fff"/><path d="M302.578 202.8a1.558 1.558 0 1 1-3.117 0 1.559 1.559 0 1 1 3.117 0zm0 0" fill="none" stroke-width=".06" stroke-linecap="square" stroke-linejoin="bevel" stroke="#000" stroke-miterlimit="10"/><path d="M314.46 200.46h1.919l1.383 1.38v1.922l-1.383 1.379h-1.918l-1.383-1.38v-1.921l1.383-1.38" fill="green"/><path d="M314.46 200.46h1.919l1.383 1.38v1.922l-1.383 1.379h-1.918l-1.383-1.38v-1.921zm0 0" fill="none" stroke-width=".12" stroke-linecap="round" stroke-linejoin="round" stroke="green" stroke-miterlimit="10"/><path d="M316.98 202.8a1.56 1.56 0 1 1-3.12-.003 1.56 1.56 0 0 1 3.12.004" fill-rule="evenodd" fill="#fff"/><path d="M316.98 202.8a1.56 1.56 0 1 1-3.12-.003 1.56 1.56 0 0 1 3.12.004zm0 0" fill="none" stroke-width=".06" stroke-linecap="square" stroke-linejoin="bevel" stroke="#000" stroke-miterlimit="10"/><path d="M300.121 186.238h1.8l1.259 1.262v1.8l-1.258 1.259h-1.8l-1.263-1.258V187.5l1.262-1.262" fill="green"/><path d="M300.121 186.238h1.8l1.259 1.262v1.8l-1.258 1.259h-1.8l-1.263-1.258V187.5zm0 0" fill="none" stroke-width=".12" stroke-linecap="round" stroke-linejoin="round" stroke="green" stroke-miterlimit="10"/><path d="M302.46 188.398a1.44 1.44 0 1 1-2.88.003 1.44 1.44 0 0 1 2.88-.003" fill-rule="evenodd" fill="#fff"/><path d="M302.46 188.398a1.44 1.44 0 1 1-2.88.003 1.44 1.44 0 0 1 2.88-.003zm0 0" fill="none" stroke-width=".06" stroke-linecap="square" stroke-linejoin="bevel" stroke="#000" stroke-miterlimit="10"/><path d="M295.68 224.34a1.859 1.859 0 1 1-3.718.001 1.859 1.859 0 0 1 3.718-.001" fill-rule="evenodd" fill="green"/><path d="M295.68 224.34a1.859 1.859 0 1 1-3.718.001 1.859 1.859 0 0 1 3.718-.001zm0 0" fill="none" stroke-width=".12" stroke-linecap="round" stroke-linejoin="round" stroke="green" stroke-miterlimit="10"/><path d="M294.96 224.34c0 .629-.51 1.14-1.14 1.14-.629 0-1.14-.511-1.14-1.14 0-.63.511-1.14 1.14-1.14.63 0 1.14.51 1.14 1.14" fill-rule="evenodd" fill="#fff"/><path d="M294.96 224.34c0 .629-.51 1.14-1.14 1.14-.629 0-1.14-.511-1.14-1.14 0-.63.511-1.14 1.14-1.14.63 0 1.14.51 1.14 1.14zm0 0" fill="none" stroke-width=".06" stroke-linecap="square" stroke-linejoin="bevel" stroke="#000" stroke-miterlimit="10"/><path d="M295.68 231.54a1.859 1.859 0 1 1-3.718 0 1.859 1.859 0 0 1 3.718 0" fill-rule="evenodd" fill="green"/><path d="M295.68 231.54a1.859 1.859 0 1 1-3.718 0 1.859 1.859 0 0 1 3.718 0zm0 0" fill="none" stroke-width=".12" stroke-linecap="round" stroke-linejoin="round" stroke="green" stroke-miterlimit="10"/><path d="M294.96 231.54a1.14 1.14 0 1 1-2.28 0c0-.63.511-1.142 1.14-1.142.63 0 1.14.512 1.14 1.141" fill-rule="evenodd" fill="#fff"/><path d="M294.96 231.54a1.14 1.14 0 1 1-2.28 0c0-.63.511-1.142 1.14-1.142.63 0 1.14.512 1.14 1.141zm0 0" fill="none" stroke-width=".06" stroke-linecap="square" stroke-linejoin="bevel" stroke="#000" stroke-miterlimit="10"/><path d="M281.34 217.922L280.262 219h-1.563l-1.078-1.078v-1.563l1.078-1.078h1.563l1.078 1.078v1.563" fill="green"/><path d="M281.34 217.922L280.262 219h-1.563l-1.078-1.078v-1.563l1.078-1.078h1.563l1.078 1.078zm0 0" fill="none" stroke-width=".12" stroke-linecap="round" stroke-linejoin="round" stroke="green" stroke-miterlimit="10"/><path d="M280.621 217.14c0 .63-.512 1.141-1.14 1.141-.63 0-1.141-.511-1.141-1.14 0-.63.512-1.141 1.14-1.141.63 0 1.141.512 1.141 1.14" fill-rule="evenodd" fill="#fff"/><path d="M280.621 217.14c0 .63-.512 1.141-1.14 1.141-.63 0-1.141-.511-1.141-1.14 0-.63.512-1.141 1.14-1.141.63 0 1.141.512 1.141 1.14zm0 0" fill="none" stroke-width=".06" stroke-linecap="square" stroke-linejoin="bevel" stroke="#000" stroke-miterlimit="10"/><path d="M281.34 224.34a1.859 1.859 0 1 1-3.718.001 1.859 1.859 0 0 1 3.718-.001" fill-rule="evenodd" fill="green"/><path d="M281.34 224.34a1.859 1.859 0 1 1-3.718.001 1.859 1.859 0 0 1 3.718-.001zm0 0" fill="none" stroke-width=".12" stroke-linecap="round" stroke-linejoin="round" stroke="green" stroke-miterlimit="10"/><path d="M280.621 224.34c0 .629-.512 1.14-1.14 1.14-.63 0-1.141-.511-1.141-1.14 0-.63.512-1.14 1.14-1.14.63 0 1.141.51 1.141 1.14" fill-rule="evenodd" fill="#fff"/><path d="M280.621 224.34c0 .629-.512 1.14-1.14 1.14-.63 0-1.141-.511-1.141-1.14 0-.63.512-1.14 1.14-1.14.63 0 1.141.51 1.141 1.14zm0 0" fill="none" stroke-width=".06" stroke-linecap="square" stroke-linejoin="bevel" stroke="#000" stroke-miterlimit="10"/><path d="M325.02 189.422l-1.38 1.379h-2.038l-1.383-1.38v-2.042l1.383-1.379h2.039l1.379 1.379v2.043" fill="green"/><path d="M325.02 189.422l-1.38 1.379h-2.038l-1.383-1.38v-2.042l1.383-1.379h2.039l1.379 1.379zm0 0" fill="none" stroke-width=".12" stroke-linecap="round" stroke-linejoin="round" stroke="green" stroke-miterlimit="10"/><path d="M323.64 188.398c0 .567-.456 1.024-1.019 1.024a1.021 1.021 0 0 1 0-2.043c.563 0 1.02.457 1.02 1.02" fill-rule="evenodd" fill="#fff"/><path d="M323.64 188.398c0 .567-.456 1.024-1.019 1.024a1.021 1.021 0 0 1 0-2.043c.563 0 1.02.457 1.02 1.02zm0 0" fill="none" stroke-width=".06" stroke-linecap="square" stroke-linejoin="bevel" stroke="#000" stroke-miterlimit="10"/><path d="M325.02 232.559l-1.38 1.382h-2.038l-1.383-1.382v-2.04l1.383-1.378h2.039l1.379 1.379v2.039" fill="green"/><path d="M325.02 232.559l-1.38 1.382h-2.038l-1.383-1.382v-2.04l1.383-1.378h2.039l1.379 1.379zm0 0" fill="none" stroke-width=".12" stroke-linecap="round" stroke-linejoin="round" stroke="green" stroke-miterlimit="10"/><path d="M323.64 231.54a1.02 1.02 0 1 1-2.04-.002 1.02 1.02 0 0 1 2.04.001" fill-rule="evenodd" fill="#fff"/><path d="M323.64 231.54a1.02 1.02 0 1 1-2.04-.002 1.02 1.02 0 0 1 2.04.001zm0 0" fill="none" stroke-width=".06" stroke-linecap="square" stroke-linejoin="bevel" stroke="#000" stroke-miterlimit="10"/><path d="M325.02 211.02l-1.38 1.378h-2.038l-1.383-1.378v-2.04l1.383-1.378h2.039l1.379 1.378v2.04" fill="green"/><path d="M325.02 211.02l-1.38 1.378h-2.038l-1.383-1.378v-2.04l1.383-1.378h2.039l1.379 1.378zm0 0" fill="none" stroke-width=".12" stroke-linecap="round" stroke-linejoin="round" stroke="green" stroke-miterlimit="10"/><path d="M323.64 210a1.02 1.02 0 1 1-2.04-.001 1.02 1.02 0 0 1 2.04.001" fill-rule="evenodd" fill="#fff"/><path d="M323.64 210a1.02 1.02 0 1 1-2.04-.001 1.02 1.02 0 0 1 2.04.001zm0 0" fill="none" stroke-width=".06" stroke-linecap="square" stroke-linejoin="bevel" stroke="#000" stroke-miterlimit="10"/><path d="M274.68 225.36l-1.38 1.378h-2.038l-1.383-1.379v-2.039l1.383-1.379h2.039l1.379 1.38v2.038" fill="green"/><path d="M274.68 225.36l-1.38 1.378h-2.038l-1.383-1.379v-2.039l1.383-1.379h2.039l1.379 1.38zm0 0" fill="none" stroke-width=".12" stroke-linecap="round" stroke-linejoin="round" stroke="green" stroke-miterlimit="10"/><path d="M273.3 224.34a1.02 1.02 0 1 1-2.04-.002 1.02 1.02 0 0 1 2.04.002" fill-rule="evenodd" fill="#fff"/><path d="M273.3 224.34a1.02 1.02 0 1 1-2.04-.002 1.02 1.02 0 0 1 2.04.002zm0 0" fill="none" stroke-width=".06" stroke-linecap="square" stroke-linejoin="bevel" stroke="#000" stroke-miterlimit="10"/><path d="M274.68 232.559l-1.38 1.382h-2.038l-1.383-1.382v-2.04l1.383-1.378h2.039l1.379 1.379v2.039" fill="green"/><path d="M274.68 232.559l-1.38 1.382h-2.038l-1.383-1.382v-2.04l1.383-1.378h2.039l1.379 1.379zm0 0" fill="none" stroke-width=".12" stroke-linecap="round" stroke-linejoin="round" stroke="green" stroke-miterlimit="10"/><path d="M273.3 231.54a1.02 1.02 0 1 1-2.04-.002 1.02 1.02 0 0 1 2.04.001" fill-rule="evenodd" fill="#fff"/><path d="M273.3 231.54a1.02 1.02 0 1 1-2.04-.002 1.02 1.02 0 0 1 2.04.001zm0 0" fill="none" stroke-width=".06" stroke-linecap="square" stroke-linejoin="bevel" stroke="#000" stroke-miterlimit="10"/><path d="M274.14 217.14a1.859 1.859 0 1 1-3.717.002 1.859 1.859 0 0 1 3.718-.001" fill-rule="evenodd" fill="green"/><path d="M274.14 217.14a1.859 1.859 0 1 1-3.717.002 1.859 1.859 0 0 1 3.718-.001zm0 0" fill="none" stroke-width=".12" stroke-linecap="round" stroke-linejoin="round" stroke="green" stroke-miterlimit="10"/><path d="M273.422 217.14a1.14 1.14 0 1 1-1.14-1.14c.628 0 1.14.512 1.14 1.14" fill-rule="evenodd" fill="#fff"/><path d="M273.422 217.14a1.14 1.14 0 1 1-1.14-1.14c.628 0 1.14.512 1.14 1.14zm0 0" fill="none" stroke-width=".06" stroke-linecap="square" stroke-linejoin="bevel" stroke="#000" stroke-miterlimit="10"/><path d="M274.14 188.398a1.862 1.862 0 0 1-1.859 1.864 1.862 1.862 0 0 1 0-3.723c1.028 0 1.86.832 1.86 1.86" fill-rule="evenodd" fill="green"/><path d="M274.14 188.398a1.862 1.862 0 0 1-1.859 1.864 1.862 1.862 0 0 1 0-3.723c1.028 0 1.86.832 1.86 1.86zm0 0" fill="none" stroke-width=".12" stroke-linecap="round" stroke-linejoin="round" stroke="green" stroke-miterlimit="10"/><path d="M273.422 188.398a1.14 1.14 0 0 1-1.14 1.141c-.634 0-1.141-.508-1.141-1.14 0-.63.507-1.137 1.14-1.137.63 0 1.14.508 1.14 1.136" fill-rule="evenodd" fill="#fff"/><path d="M273.422 188.398a1.14 1.14 0 0 1-1.14 1.141c-.634 0-1.141-.508-1.141-1.14 0-.63.507-1.137 1.14-1.137.63 0 1.14.508 1.14 1.136zm0 0" fill="none" stroke-width=".06" stroke-linecap="square" stroke-linejoin="bevel" stroke="#000" stroke-miterlimit="10"/><path d="M317.281 232.32l-1.082 1.078h-1.558l-1.082-1.078v-1.558l1.082-1.082h1.558l1.082 1.082v1.558" fill="green"/><path d="M317.281 232.32l-1.082 1.078h-1.558l-1.082-1.078v-1.558l1.082-1.082h1.558l1.082 1.082zm0 0" fill="none" stroke-width=".12" stroke-linecap="round" stroke-linejoin="round" stroke="green" stroke-miterlimit="10"/><path d="M316.559 231.54c0 .632-.508 1.14-1.137 1.14-.633 0-1.14-.508-1.14-1.14a1.14 1.14 0 1 1 2.277 0" fill-rule="evenodd" fill="#fff"/><path d="M316.559 231.54c0 .632-.508 1.14-1.137 1.14-.633 0-1.14-.508-1.14-1.14a1.14 1.14 0 1 1 2.277 0zm0 0" fill="none" stroke-width=".06" stroke-linecap="square" stroke-linejoin="bevel" stroke="#000" stroke-miterlimit="10"/><path d="M317.281 217.922L316.2 219h-1.558l-1.082-1.078v-1.563l1.082-1.078h1.558l1.082 1.078v1.563" fill="green"/><path d="M317.281 217.922L316.2 219h-1.558l-1.082-1.078v-1.563l1.082-1.078h1.558l1.082 1.078zm0 0" fill="none" stroke-width=".12" stroke-linecap="round" stroke-linejoin="round" stroke="green" stroke-miterlimit="10"/><path d="M316.559 217.14a1.139 1.139 0 1 1-2.278 0 1.14 1.14 0 1 1 2.278 0" fill-rule="evenodd" fill="#fff"/><path d="M316.559 217.14a1.139 1.139 0 1 1-2.278 0 1.14 1.14 0 1 1 2.278 0zm0 0" fill="none" stroke-width=".06" stroke-linecap="square" stroke-linejoin="bevel" stroke="#000" stroke-miterlimit="10"/><path d="M302.879 225.121L301.8 226.2h-1.563l-1.078-1.078v-1.562l1.078-1.079h1.563l1.078 1.079v1.562" fill="green"/><path d="M302.879 225.121L301.8 226.2h-1.563l-1.078-1.078v-1.562l1.078-1.079h1.563l1.078 1.079zm0 0" fill="none" stroke-width=".12" stroke-linecap="round" stroke-linejoin="round" stroke="green" stroke-miterlimit="10"/><path d="M302.16 224.34c0 .629-.512 1.14-1.14 1.14-.63 0-1.141-.511-1.141-1.14 0-.63.512-1.14 1.14-1.14.63 0 1.141.51 1.141 1.14" fill-rule="evenodd" fill="#fff"/><path d="M302.16 224.34c0 .629-.512 1.14-1.14 1.14-.63 0-1.141-.511-1.141-1.14 0-.63.512-1.14 1.14-1.14.63 0 1.141.51 1.141 1.14zm0 0" fill="none" stroke-width=".06" stroke-linecap="square" stroke-linejoin="bevel" stroke="#000" stroke-miterlimit="10"/><path d="M302.879 210.781l-1.078 1.078h-1.563l-1.078-1.078v-1.562l1.078-1.078h1.563l1.078 1.078v1.562" fill="green"/><path d="M302.879 210.781l-1.078 1.078h-1.563l-1.078-1.078v-1.562l1.078-1.078h1.563l1.078 1.078zm0 0" fill="none" stroke-width=".12" stroke-linecap="round" stroke-linejoin="round" stroke="green" stroke-miterlimit="10"/><path d="M302.16 210c0 .629-.512 1.14-1.14 1.14-.63 0-1.141-.511-1.141-1.14 0-.629.512-1.14 1.14-1.14.63 0 1.141.511 1.141 1.14" fill-rule="evenodd" fill="#fff"/><path d="M302.16 210c0 .629-.512 1.14-1.14 1.14-.63 0-1.141-.511-1.141-1.14 0-.629.512-1.14 1.14-1.14.63 0 1.141.511 1.141 1.14zm0 0" fill="none" stroke-width=".06" stroke-linecap="square" stroke-linejoin="bevel" stroke="#000" stroke-miterlimit="10"/><path d="M288.54 232.32l-1.08 1.078h-1.562l-1.078-1.078v-1.558l1.078-1.082h1.563l1.078 1.082v1.558" fill="green"/><path d="M288.54 232.32l-1.08 1.078h-1.562l-1.078-1.078v-1.558l1.078-1.082h1.563l1.078 1.082zm0 0" fill="none" stroke-width=".12" stroke-linecap="round" stroke-linejoin="round" stroke="green" stroke-miterlimit="10"/><path d="M287.82 231.54a1.14 1.14 0 1 1-2.28 0c0-.63.51-1.142 1.14-1.142.629 0 1.14.512 1.14 1.141" fill-rule="evenodd" fill="#fff"/><path d="M287.82 231.54a1.14 1.14 0 1 1-2.28 0c0-.63.51-1.142 1.14-1.142.629 0 1.14.512 1.14 1.141zm0 0" fill="none" stroke-width=".06" stroke-linecap="square" stroke-linejoin="bevel" stroke="#000" stroke-miterlimit="10"/><path d="M288.54 217.922L287.46 219h-1.562l-1.078-1.078v-1.563l1.078-1.078h1.563l1.078 1.078v1.563" fill="green"/><path d="M288.54 217.922L287.46 219h-1.562l-1.078-1.078v-1.563l1.078-1.078h1.563l1.078 1.078zm0 0" fill="none" stroke-width=".12" stroke-linecap="round" stroke-linejoin="round" stroke="green" stroke-miterlimit="10"/><path d="M287.82 217.14c0 .63-.511 1.141-1.14 1.141-.63 0-1.14-.511-1.14-1.14 0-.63.51-1.141 1.14-1.141.629 0 1.14.512 1.14 1.14" fill-rule="evenodd" fill="#fff"/><path d="M287.82 217.14c0 .63-.511 1.141-1.14 1.141-.63 0-1.14-.511-1.14-1.14 0-.63.51-1.141 1.14-1.141.629 0 1.14.512 1.14 1.14zm0 0" fill="none" stroke-width=".06" stroke-linecap="square" stroke-linejoin="bevel" stroke="#000" stroke-miterlimit="10"/><path d="M295.68 210a1.859 1.859 0 1 1-3.718.001 1.859 1.859 0 0 1 3.718-.001" fill-rule="evenodd" fill="green"/><path d="M295.68 210a1.859 1.859 0 1 1-3.718.001 1.859 1.859 0 0 1 3.718-.001zm0 0" fill="none" stroke-width=".12" stroke-linecap="round" stroke-linejoin="round" stroke="green" stroke-miterlimit="10"/><path d="M294.96 210c0 .629-.51 1.14-1.14 1.14-.629 0-1.14-.511-1.14-1.14 0-.629.511-1.14 1.14-1.14.63 0 1.14.511 1.14 1.14" fill-rule="evenodd" fill="#fff"/><path d="M294.96 210c0 .629-.51 1.14-1.14 1.14-.629 0-1.14-.511-1.14-1.14 0-.629.511-1.14 1.14-1.14.63 0 1.14.511 1.14 1.14zm0 0" fill="none" stroke-width=".06" stroke-linecap="square" stroke-linejoin="bevel" stroke="#000" stroke-miterlimit="10"/><path d="M288.54 188.398a1.862 1.862 0 0 1-1.86 1.864 1.862 1.862 0 0 1 0-3.723c1.027 0 1.86.832 1.86 1.86" fill-rule="evenodd" fill="green"/><path d="M288.54 188.398a1.862 1.862 0 0 1-1.86 1.864 1.862 1.862 0 0 1 0-3.723c1.027 0 1.86.832 1.86 1.86zm0 0" fill="none" stroke-width=".12" stroke-linecap="round" stroke-linejoin="round" stroke="green" stroke-miterlimit="10"/><path d="M287.82 188.398a1.14 1.14 0 1 1-2.279.003 1.14 1.14 0 0 1 2.28-.003" fill-rule="evenodd" fill="#fff"/><path d="M287.82 188.398a1.14 1.14 0 1 1-2.279.003 1.14 1.14 0 0 1 2.28-.003zm0 0" fill="none" stroke-width=".06" stroke-linecap="square" stroke-linejoin="bevel" stroke="#000" stroke-miterlimit="10"/><path d="M310.262 210c0 1.129-.914 2.04-2.043 2.04a2.038 2.038 0 1 1 0-4.08c1.129 0 2.043.911 2.043 2.04" fill-rule="evenodd" fill="green"/><path d="M310.262 210c0 1.129-.914 2.04-2.043 2.04a2.038 2.038 0 1 1 0-4.08c1.129 0 2.043.911 2.043 2.04zm0 0" fill="none" stroke-width=".12" stroke-linecap="round" stroke-linejoin="round" stroke="green" stroke-miterlimit="10"/><path d="M309.238 210a1.02 1.02 0 1 1-2.04-.001 1.02 1.02 0 0 1 2.04.001" fill-rule="evenodd" fill="#fff"/><path d="M309.238 210a1.02 1.02 0 1 1-2.04-.001 1.02 1.02 0 0 1 2.04.001zm0 0" fill="none" stroke-width=".06" stroke-linecap="square" stroke-linejoin="bevel" stroke="#000" stroke-miterlimit="10"/><path d="M310.262 224.34c0 1.129-.914 2.039-2.043 2.039a2.038 2.038 0 1 1 0-4.078c1.129 0 2.043.914 2.043 2.039" fill-rule="evenodd" fill="green"/><path d="M310.262 224.34c0 1.129-.914 2.039-2.043 2.039a2.038 2.038 0 1 1 0-4.078c1.129 0 2.043.914 2.043 2.039zm0 0" fill="none" stroke-width=".12" stroke-linecap="round" stroke-linejoin="round" stroke="green" stroke-miterlimit="10"/><path d="M309.238 224.34a1.02 1.02 0 1 1-2.04-.002 1.02 1.02 0 0 1 2.04.002" fill-rule="evenodd" fill="#fff"/><path d="M309.238 224.34a1.02 1.02 0 1 1-2.04-.002 1.02 1.02 0 0 1 2.04.002zm0 0" fill="none" stroke-width=".06" stroke-linecap="square" stroke-linejoin="bevel" stroke="#000" stroke-miterlimit="10"/><path d="M310.262 217.14a2.041 2.041 0 0 1-4.082 0c0-1.128.914-2.038 2.039-2.038 1.129 0 2.043.91 2.043 2.039" fill-rule="evenodd" fill="green"/><path d="M310.262 217.14a2.041 2.041 0 0 1-4.082 0c0-1.128.914-2.038 2.039-2.038 1.129 0 2.043.91 2.043 2.039zm0 0" fill="none" stroke-width=".12" stroke-linecap="round" stroke-linejoin="round" stroke="green" stroke-miterlimit="10"/><path d="M309.238 217.14a1.02 1.02 0 1 1-2.04 0 1.02 1.02 0 0 1 2.04 0" fill-rule="evenodd" fill="#fff"/><path d="M309.238 217.14a1.02 1.02 0 1 1-2.04 0 1.02 1.02 0 0 1 2.04 0zm0 0" fill="none" stroke-width=".06" stroke-linecap="square" stroke-linejoin="bevel" stroke="#000" stroke-miterlimit="10"/><path d="M300.059 200.46h1.921l1.38 1.38v1.922l-1.38 1.379h-1.921l-1.38-1.38v-1.921l1.38-1.38" fill="green"/><path d="M300.059 200.46h1.921l1.38 1.38v1.922l-1.38 1.379h-1.921l-1.38-1.38v-1.921zm0 0" fill="none" stroke-width=".12" stroke-linecap="round" stroke-linejoin="round" stroke="green" stroke-miterlimit="10"/><path d="M302.578 202.8a1.558 1.558 0 1 1-3.117 0 1.559 1.559 0 1 1 3.117 0" fill-rule="evenodd" fill="#fff"/><path d="M302.578 202.8a1.558 1.558 0 1 1-3.117 0 1.559 1.559 0 1 1 3.117 0zm0 0" fill="none" stroke-width=".06" stroke-linecap="square" stroke-linejoin="bevel" stroke="#000" stroke-miterlimit="10"/><path d="M314.46 200.46h1.919l1.383 1.38v1.922l-1.383 1.379h-1.918l-1.383-1.38v-1.921l1.383-1.38" fill="green"/><path d="M314.46 200.46h1.919l1.383 1.38v1.922l-1.383 1.379h-1.918l-1.383-1.38v-1.921zm0 0" fill="none" stroke-width=".12" stroke-linecap="round" stroke-linejoin="round" stroke="green" stroke-miterlimit="10"/><path d="M316.98 202.8a1.56 1.56 0 1 1-3.12-.003 1.56 1.56 0 0 1 3.12.004" fill-rule="evenodd" fill="#fff"/><path d="M316.98 202.8a1.56 1.56 0 1 1-3.12-.003 1.56 1.56 0 0 1 3.12.004zm0 0" fill="none" stroke-width=".06" stroke-linecap="square" stroke-linejoin="bevel" stroke="#000" stroke-miterlimit="10"/><path d="M300.121 186.238h1.8l1.259 1.262v1.8l-1.258 1.259h-1.8l-1.263-1.258V187.5l1.262-1.262" fill="green"/><path d="M300.121 186.238h1.8l1.259 1.262v1.8l-1.258 1.259h-1.8l-1.263-1.258V187.5zm0 0" fill="none" stroke-width=".12" stroke-linecap="round" stroke-linejoin="round" stroke="green" stroke-miterlimit="10"/><path d="M302.46 188.398a1.44 1.44 0 1 1-2.88.003 1.44 1.44 0 0 1 2.88-.003" fill-rule="evenodd" fill="#fff"/><path d="M302.46 188.398a1.44 1.44 0 1 1-2.88.003 1.44 1.44 0 0 1 2.88-.003zm0 0" fill="none" stroke-width=".06" stroke-linecap="square" stroke-linejoin="bevel" stroke="#000" stroke-miterlimit="10"/><path d="M295.68 224.34a1.859 1.859 0 1 1-3.718.001 1.859 1.859 0 0 1 3.718-.001" fill-rule="evenodd" fill="green"/><path d="M295.68 224.34a1.859 1.859 0 1 1-3.718.001 1.859 1.859 0 0 1 3.718-.001zm0 0" fill="none" stroke-width=".12" stroke-linecap="round" stroke-linejoin="round" stroke="green" stroke-miterlimit="10"/><path d="M294.96 224.34c0 .629-.51 1.14-1.14 1.14-.629 0-1.14-.511-1.14-1.14 0-.63.511-1.14 1.14-1.14.63 0 1.14.51 1.14 1.14" fill-rule="evenodd" fill="#fff"/><path d="M294.96 224.34c0 .629-.51 1.14-1.14 1.14-.629 0-1.14-.511-1.14-1.14 0-.63.511-1.14 1.14-1.14.63 0 1.14.51 1.14 1.14zm0 0" fill="none" stroke-width=".06" stroke-linecap="square" stroke-linejoin="bevel" stroke="#000" stroke-miterlimit="10"/><path d="M295.68 231.54a1.859 1.859 0 1 1-3.718 0 1.859 1.859 0 0 1 3.718 0" fill-rule="evenodd" fill="green"/><path d="M295.68 231.54a1.859 1.859 0 1 1-3.718 0 1.859 1.859 0 0 1 3.718 0zm0 0" fill="none" stroke-width=".12" stroke-linecap="round" stroke-linejoin="round" stroke="green" stroke-miterlimit="10"/><path d="M294.96 231.54a1.14 1.14 0 1 1-2.28 0c0-.63.511-1.142 1.14-1.142.63 0 1.14.512 1.14 1.141" fill-rule="evenodd" fill="#fff"/><path d="M294.96 231.54a1.14 1.14 0 1 1-2.28 0c0-.63.511-1.142 1.14-1.142.63 0 1.14.512 1.14 1.141zm0 0" fill="none" stroke-width=".06" stroke-linecap="square" stroke-linejoin="bevel" stroke="#000" stroke-miterlimit="10"/><path d="M281.34 217.922L280.262 219h-1.563l-1.078-1.078v-1.563l1.078-1.078h1.563l1.078 1.078v1.563" fill="green"/><path d="M281.34 217.922L280.262 219h-1.563l-1.078-1.078v-1.563l1.078-1.078h1.563l1.078 1.078zm0 0" fill="none" stroke-width=".12" stroke-linecap="round" stroke-linejoin="round" stroke="green" stroke-miterlimit="10"/><path d="M280.621 217.14c0 .63-.512 1.141-1.14 1.141-.63 0-1.141-.511-1.141-1.14 0-.63.512-1.141 1.14-1.141.63 0 1.141.512 1.141 1.14" fill-rule="evenodd" fill="#fff"/><path d="M280.621 217.14c0 .63-.512 1.141-1.14 1.141-.63 0-1.141-.511-1.141-1.14 0-.63.512-1.141 1.14-1.141.63 0 1.141.512 1.141 1.14zm0 0" fill="none" stroke-width=".06" stroke-linecap="square" stroke-linejoin="bevel" stroke="#000" stroke-miterlimit="10"/><path d="M281.34 224.34a1.859 1.859 0 1 1-3.718.001 1.859 1.859 0 0 1 3.718-.001" fill-rule="evenodd" fill="green"/><path d="M281.34 224.34a1.859 1.859 0 1 1-3.718.001 1.859 1.859 0 0 1 3.718-.001zm0 0" fill="none" stroke-width=".12" stroke-linecap="round" stroke-linejoin="round" stroke="green" stroke-miterlimit="10"/><path d="M280.621 224.34c0 .629-.512 1.14-1.14 1.14-.63 0-1.141-.511-1.141-1.14 0-.63.512-1.14 1.14-1.14.63 0 1.141.51 1.141 1.14" fill-rule="evenodd" fill="#fff"/><path d="M280.621 224.34c0 .629-.512 1.14-1.14 1.14-.63 0-1.141-.511-1.141-1.14 0-.63.512-1.14 1.14-1.14.63 0 1.141.51 1.141 1.14zm0 0" fill="none" stroke-width=".06" stroke-linecap="square" stroke-linejoin="bevel" stroke="#000" stroke-miterlimit="10"/><path d="M325.02 189.422l-1.38 1.379h-2.038l-1.383-1.38v-2.042l1.383-1.379h2.039l1.379 1.379v2.043" fill="green"/><path d="M325.02 189.422l-1.38 1.379h-2.038l-1.383-1.38v-2.042l1.383-1.379h2.039l1.379 1.379zm0 0" fill="none" stroke-width=".12" stroke-linecap="round" stroke-linejoin="round" stroke="green" stroke-miterlimit="10"/><path d="M323.64 188.398c0 .567-.456 1.024-1.019 1.024a1.021 1.021 0 0 1 0-2.043c.563 0 1.02.457 1.02 1.02" fill-rule="evenodd" fill="#fff"/><path d="M323.64 188.398c0 .567-.456 1.024-1.019 1.024a1.021 1.021 0 0 1 0-2.043c.563 0 1.02.457 1.02 1.02zm0 0" fill="none" stroke-width=".06" stroke-linecap="square" stroke-linejoin="bevel" stroke="#000" stroke-miterlimit="10"/><path d="M325.02 232.559l-1.38 1.382h-2.038l-1.383-1.382v-2.04l1.383-1.378h2.039l1.379 1.379v2.039" fill="green"/><path d="M325.02 232.559l-1.38 1.382h-2.038l-1.383-1.382v-2.04l1.383-1.378h2.039l1.379 1.379zm0 0" fill="none" stroke-width=".12" stroke-linecap="round" stroke-linejoin="round" stroke="green" stroke-miterlimit="10"/><path d="M323.64 231.54a1.02 1.02 0 1 1-2.04-.002 1.02 1.02 0 0 1 2.04.001" fill-rule="evenodd" fill="#fff"/><path d="M323.64 231.54a1.02 1.02 0 1 1-2.04-.002 1.02 1.02 0 0 1 2.04.001zm0 0" fill="none" stroke-width=".06" stroke-linecap="square" stroke-linejoin="bevel" stroke="#000" stroke-miterlimit="10"/><path d="M325.02 211.02l-1.38 1.378h-2.038l-1.383-1.378v-2.04l1.383-1.378h2.039l1.379 1.378v2.04" fill="green"/><path d="M325.02 211.02l-1.38 1.378h-2.038l-1.383-1.378v-2.04l1.383-1.378h2.039l1.379 1.378zm0 0" fill="none" stroke-width=".12" stroke-linecap="round" stroke-linejoin="round" stroke="green" stroke-miterlimit="10"/><path d="M323.64 210a1.02 1.02 0 1 1-2.04-.001 1.02 1.02 0 0 1 2.04.001" fill-rule="evenodd" fill="#fff"/><path d="M323.64 210a1.02 1.02 0 1 1-2.04-.001 1.02 1.02 0 0 1 2.04.001zm0 0" fill="none" stroke-width=".06" stroke-linecap="square" stroke-linejoin="bevel" stroke="#000" stroke-miterlimit="10"/><path d="M274.68 225.36l-1.38 1.378h-2.038l-1.383-1.379v-2.039l1.383-1.379h2.039l1.379 1.38v2.038" fill="green"/><path d="M274.68 225.36l-1.38 1.378h-2.038l-1.383-1.379v-2.039l1.383-1.379h2.039l1.379 1.38zm0 0" fill="none" stroke-width=".12" stroke-linecap="round" stroke-linejoin="round" stroke="green" stroke-miterlimit="10"/><path d="M273.3 224.34a1.02 1.02 0 1 1-2.04-.002 1.02 1.02 0 0 1 2.04.002" fill-rule="evenodd" fill="#fff"/><path d="M273.3 224.34a1.02 1.02 0 1 1-2.04-.002 1.02 1.02 0 0 1 2.04.002zm0 0" fill="none" stroke-width=".06" stroke-linecap="square" stroke-linejoin="bevel" stroke="#000" stroke-miterlimit="10"/><path d="M274.68 232.559l-1.38 1.382h-2.038l-1.383-1.382v-2.04l1.383-1.378h2.039l1.379 1.379v2.039" fill="green"/><path d="M274.68 232.559l-1.38 1.382h-2.038l-1.383-1.382v-2.04l1.383-1.378h2.039l1.379 1.379zm0 0" fill="none" stroke-width=".12" stroke-linecap="round" stroke-linejoin="round" stroke="green" stroke-miterlimit="10"/><path d="M273.3 231.54a1.02 1.02 0 1 1-2.04-.002 1.02 1.02 0 0 1 2.04.001" fill-rule="evenodd" fill="#fff"/><path d="M273.3 231.54a1.02 1.02 0 1 1-2.04-.002 1.02 1.02 0 0 1 2.04.001zm0 0" fill="none" stroke-width=".06" stroke-linecap="square" stroke-linejoin="bevel" stroke="#000" stroke-miterlimit="10"/><path d="M274.14 217.14a1.859 1.859 0 1 1-3.717.002 1.859 1.859 0 0 1 3.718-.001" fill-rule="evenodd" fill="green"/><path d="M274.14 217.14a1.859 1.859 0 1 1-3.717.002 1.859 1.859 0 0 1 3.718-.001zm0 0" fill="none" stroke-width=".12" stroke-linecap="round" stroke-linejoin="round" stroke="green" stroke-miterlimit="10"/><path d="M273.422 217.14a1.14 1.14 0 1 1-1.14-1.14c.628 0 1.14.512 1.14 1.14" fill-rule="evenodd" fill="#fff"/><path d="M273.422 217.14a1.14 1.14 0 1 1-1.14-1.14c.628 0 1.14.512 1.14 1.14zm0 0" fill="none" stroke-width=".06" stroke-linecap="square" stroke-linejoin="bevel" stroke="#000" stroke-miterlimit="10"/><path d="M274.14 188.398a1.862 1.862 0 0 1-1.859 1.864 1.862 1.862 0 0 1 0-3.723c1.028 0 1.86.832 1.86 1.86" fill-rule="evenodd" fill="green"/><path d="M274.14 188.398a1.862 1.862 0 0 1-1.859 1.864 1.862 1.862 0 0 1 0-3.723c1.028 0 1.86.832 1.86 1.86zm0 0" fill="none" stroke-width=".12" stroke-linecap="round" stroke-linejoin="round" stroke="green" stroke-miterlimit="10"/><path d="M273.422 188.398a1.14 1.14 0 0 1-1.14 1.141c-.634 0-1.141-.508-1.141-1.14 0-.63.507-1.137 1.14-1.137.63 0 1.14.508 1.14 1.136" fill-rule="evenodd" fill="#fff"/><path d="M273.422 188.398a1.14 1.14 0 0 1-1.14 1.141c-.634 0-1.141-.508-1.141-1.14 0-.63.507-1.137 1.14-1.137.63 0 1.14.508 1.14 1.136zm0 0" fill="none" stroke-width=".06" stroke-linecap="square" stroke-linejoin="bevel" stroke="#000" stroke-miterlimit="10"/><path d="M317.281 232.32l-1.082 1.078h-1.558l-1.082-1.078v-1.558l1.082-1.082h1.558l1.082 1.082v1.558" fill="green"/><path d="M317.281 232.32l-1.082 1.078h-1.558l-1.082-1.078v-1.558l1.082-1.082h1.558l1.082 1.082zm0 0" fill="none" stroke-width=".12" stroke-linecap="round" stroke-linejoin="round" stroke="green" stroke-miterlimit="10"/><path d="M316.559 231.54c0 .632-.508 1.14-1.137 1.14-.633 0-1.14-.508-1.14-1.14a1.14 1.14 0 1 1 2.277 0" fill-rule="evenodd" fill="#fff"/><path d="M316.559 231.54c0 .632-.508 1.14-1.137 1.14-.633 0-1.14-.508-1.14-1.14a1.14 1.14 0 1 1 2.277 0zm0 0" fill="none" stroke-width=".06" stroke-linecap="square" stroke-linejoin="bevel" stroke="#000" stroke-miterlimit="10"/><path d="M317.281 217.922L316.2 219h-1.558l-1.082-1.078v-1.563l1.082-1.078h1.558l1.082 1.078v1.563" fill="green"/><path d="M317.281 217.922L316.2 219h-1.558l-1.082-1.078v-1.563l1.082-1.078h1.558l1.082 1.078zm0 0" fill="none" stroke-width=".12" stroke-linecap="round" stroke-linejoin="round" stroke="green" stroke-miterlimit="10"/><path d="M316.559 217.14a1.139 1.139 0 1 1-2.278 0 1.14 1.14 0 1 1 2.278 0" fill-rule="evenodd" fill="#fff"/><path d="M316.559 217.14a1.139 1.139 0 1 1-2.278 0 1.14 1.14 0 1 1 2.278 0zm0 0" fill="none" stroke-width=".06" stroke-linecap="square" stroke-linejoin="bevel" stroke="#000" stroke-miterlimit="10"/><path d="M302.82 214.68l-.058-.602-.242-.476-.418-.422-.48-.239-.602-.062M302.82 219.66v-4.98M301.02 221.46l.601-.062.48-.238.419-.422.242-.476.058-.602M299.219 219.66l.12.602.24.476.421.422.48.238.54.063M299.219 214.68v4.98M301.02 212.879l-.54.062-.48.239-.422.422-.238.476-.121.602" fill="none" stroke-width=".36000000000000004" stroke-linecap="round" stroke-linejoin="round" stroke="#505050" stroke-miterlimit="10"/><path d="M299.941 216.96h2.16v-.358h-2.16zm0 0" fill="#505050" stroke-width=".12" stroke-linecap="round" stroke-linejoin="round" stroke="#505050" stroke-miterlimit="10"/><path d="M302.82 214.68l-.058-.602-.242-.476-.418-.422-.48-.239-.602-.062" fill="none" stroke-width=".36000000000000004" stroke-linecap="round" stroke-linejoin="round" stroke="#505050" stroke-miterlimit="10"/><path d="M300.96 216.602h.118v-2.282h-.117zm0 0M299.941 217.738h2.16v-.36h-2.16zm0 0M300.96 220.02h.118v-2.282h-.117zm0 0" fill="#505050" stroke-width=".12" stroke-linecap="round" stroke-linejoin="round" stroke="#505050" stroke-miterlimit="10"/><path d="M288.48 221.82l-.12-.539-.239-.48-.422-.422-.48-.238-.54-.121M288.48 226.86v-5.04M286.68 228.66l.539-.058.48-.243.422-.418.238-.48.121-.602M284.879 226.86l.062.6.239.481.422.418.476.243.602.058M284.879 221.82v5.04" fill="none" stroke-width=".36000000000000004" stroke-linecap="round" stroke-linejoin="round" stroke="#505050" stroke-miterlimit="10"/><path d="M286.68 220.02l-.602.12-.476.239-.422.422-.239.48-.062.54" fill="none" stroke-width=".36000000000000004" stroke-linecap="round" stroke-linejoin="round" stroke="#505050" stroke-miterlimit="10"/><path d="M288.48 221.82l-.12-.539-.239-.48-.422-.422-.48-.238-.54-.121" fill="none" stroke-width=".36000000000000004" stroke-linecap="round" stroke-linejoin="round" stroke="#505050" stroke-miterlimit="10"/><path d="M285.602 224.16h2.16v-.36h-2.16zm0 0" fill="#505050" stroke-width=".12" stroke-linecap="round" stroke-linejoin="round" stroke="#505050" stroke-miterlimit="10"/><path d="M286.621 223.8h.117v-2.28h-.117zm0 0M285.602 224.941h2.16v-.359h-2.16zm0 0M286.621 227.219h.117v-2.278h-.117zm0 0" fill="#505050" stroke-width=".12" stroke-linecap="round" stroke-linejoin="round" stroke="#505050" stroke-miterlimit="10"/><path d="M293.82 192.719l-.058-.778-.301-.78-.422-.661-.539-.602-.719-.418-.722-.242-.84-.117M290.219 189.121l-.778.117-.78.242-.661.418-.54.602-.48.66-.242.781-.058.778M293.82 194.879l-.058-.777-.301-.782-.422-.66-.539-.601-.719-.418-.722-.243-.84-.117M290.219 191.281l-.778.117-.78.243-.661.418-.54.601-.48.66-.242.782-.058.777M293.82 197.04l-.058-.778-.301-.782-.422-.66-.539-.601-.719-.418-.722-.242-.84-.118M290.219 193.441l-.778.118-.78.242-.661.418-.54.601-.48.66-.242.782-.058.777M293.82 199.2l-.058-.778-.301-.781-.422-.66-.539-.602-.719-.418-.722-.3-.84-.06M290.219 195.602l-.778.058-.78.3-.661.419-.54.601-.48.66-.242.782-.058.777M293.82 201.36l-.058-.84-.301-.72-.422-.722-.539-.539-.719-.418-.722-.3-.84-.06M290.219 197.762l-.778.058-.78.301-.661.418-.54.54-.48.722-.242.719-.058.84M293.82 203.52l-.058-.84-.301-.72-.422-.722-.539-.539-.719-.418-.722-.3-.84-.06M290.219 199.922l-.778.058-.78.301-.661.418-.54.54-.48.722-.242.719-.058.84M293.82 205.68l-.058-.84-.301-.719-.422-.723-.539-.539-.719-.418-.722-.3-.84-.063M290.219 202.078l-.778.063-.78.3-.661.418-.54.54-.48.722-.242.719-.058.84M286.68 205.68l.058.78.242.778.48.66.54.602.66.422.781.238.778.121M293.82 205.68V210M286.68 192.719v-4.32M303.54 211.262v11.816M311.46 223.98l1.142-.66.957-.84.84-1.02.66-1.14.48-1.199.18-1.32v-1.262l-.18-1.32-.48-1.258-.66-1.082-.84-1.02-.957-.84-1.141-.66M308.219 224.7v-15.06M311.46 210.36l-1.019-.419-1.082-.242-1.14-.058M308.219 209.64l-1.078.06-1.082.241-1.02.418M305.04 210.36l-.778.359-.723.543M305.04 223.98l1.019.418 1.082.243 1.078.058M308.219 224.7l1.14-.06 1.082-.242 1.02-.418M303.54 223.078l.722.543.84.418M303.422 204.48l1.258.598 1.379.363 1.382.239h1.438l1.441-.239 1.32-.363 1.32-.598M299.34 190.86l-.602 1.261-.36 1.379-.237 1.441v1.38l.238 1.44.36 1.317.6 1.32M317.04 200.398l.6-1.378.419-1.442.18-1.5-.06-1.558-.3-1.442-.48-1.437-.72-1.38-.898-1.202-1.02-1.079-1.261-.902-1.32-.656-1.442-.543-1.5-.238-1.5-.063-1.5.184-1.437.418-1.38.601" fill="none" stroke-width=".36000000000000004" stroke-linecap="round" stroke-linejoin="round" stroke="#505050" stroke-miterlimit="10"/><path d="M311.82 195.602a3.6 3.6 0 1 1-7.198-.004 3.6 3.6 0 0 1 7.198.004zm0 0" fill="none" stroke-width=".48" stroke-linecap="round" stroke-linejoin="round" stroke="#505050" stroke-miterlimit="10"/><path d="M307.32 199.078H309v-6.957h-1.68zm0 0" fill="#505050" stroke-width=".12" stroke-linecap="round" stroke-linejoin="round" stroke="#505050" stroke-miterlimit="10"/><path d="M316.14 195.602a7.92 7.92 0 1 1-15.839-.005 7.92 7.92 0 0 1 15.84.005zm0 0M295.98 225.781c0 1.192-.968 2.16-2.16 2.16a2.16 2.16 0 1 1 2.16-2.16zm0 0" fill="none" stroke-width=".36000000000000004" stroke-linecap="round" stroke-linejoin="round" stroke="#505050" stroke-miterlimit="10"/><path d="M293.82 227.578v.723" fill="none" stroke-width=".7200000000000001" stroke-linecap="round" stroke-linejoin="round" stroke="#505050" stroke-miterlimit="10"/><path d="M276.781 222.898v-.359M277.14 222.54h-.359M276.781 222.54v-.36M276.781 222.54h-.36" fill="none" stroke-width=".24" stroke-linecap="round" stroke-linejoin="round" stroke="#505050" stroke-miterlimit="10"/><path d="M283.8 220.738a4.32 4.32 0 0 1-4.32 4.32 4.32 4.32 0 1 1 4.32-4.32zm0 0" fill="none" stroke-width=".36000000000000004" stroke-linecap="round" stroke-linejoin="round" stroke="#505050" stroke-miterlimit="10"/><path d="M277.559 220.262h3.84v-.602h-3.84zm0 0" fill="#505050" stroke-width=".12" stroke-linecap="round" stroke-linejoin="round" stroke="#505050" stroke-miterlimit="10"/><path d="M269.398 209.281l.063.239.117.242.242.18.301.058M274.441 210l.239-.059.242-.18.18-.241.058-.239M275.16 196.32l-.058-.3-.18-.239-.242-.12-.239-.06M270.121 195.602l-.3.058-.243.121-.117.239-.063.3" fill="none" stroke-width=".48" stroke-linecap="round" stroke-linejoin="round" stroke="#505050" stroke-miterlimit="10"/><path d="M271.559 195.602H273v-1.082h-1.441zm0 0M271.559 211.078H273V210h-1.441zm0 0" fill="#505050" stroke-width=".12" stroke-linecap="round" stroke-linejoin="round" stroke="#505050" stroke-miterlimit="10"/><path d="M269.398 209.281l.063.239.117.242.242.18.301.058M274.441 210l.239-.059.242-.18.18-.241.058-.239M275.16 196.32l-.058-.3-.18-.239-.242-.12-.239-.06M270.121 195.602l-.3.058-.243.121-.117.239-.063.3M274.441 210h-4.32M269.398 209.281V208.2M269.762 207.84l-.364.36M275.16 209.281V208.2M274.8 207.84l.36.36M269.762 197.762l-.364-.364M269.762 197.762v10.078M274.8 197.762l.36-.364M274.8 197.762v10.078M269.398 196.32v1.078M275.16 196.32v1.078M274.441 195.602h-4.32" fill="none" stroke-width=".48" stroke-linecap="round" stroke-linejoin="round" stroke="#505050" stroke-miterlimit="10"/><path d="M271.559 195.602H273v-1.082h-1.441zm0 0M271.559 211.078H273V210h-1.441zm0 0" fill="#505050" stroke-width=".12" stroke-linecap="round" stroke-linejoin="round" stroke="#505050" stroke-miterlimit="10"/><path d="M317.219 221.82l-.117-.539-.243-.48-.359-.422-.54-.238-.538-.121M317.219 226.86v-5.04M315.422 228.66l.539-.058.539-.243.36-.418.242-.48.117-.602M313.621 226.86l.059.6.3.481.36.418.539.243.543.058M313.621 221.82v5.04" fill="none" stroke-width=".36000000000000004" stroke-linecap="round" stroke-linejoin="round" stroke="#505050" stroke-miterlimit="10"/><path d="M315.422 220.02l-.543.12-.54.239-.359.422-.3.48-.059.54" fill="none" stroke-width=".36000000000000004" stroke-linecap="round" stroke-linejoin="round" stroke="#505050" stroke-miterlimit="10"/><path d="M317.219 221.82l-.117-.539-.243-.48-.359-.422-.54-.238-.538-.121" fill="none" stroke-width=".36000000000000004" stroke-linecap="round" stroke-linejoin="round" stroke="#505050" stroke-miterlimit="10"/><path d="M314.34 224.16h2.16v-.36h-2.16zm0 0" fill="#505050" stroke-width=".12" stroke-linecap="round" stroke-linejoin="round" stroke="#505050" stroke-miterlimit="10"/><path d="M315.36 223.8h.12v-2.28h-.12zm0 0M314.34 224.941h2.16v-.359h-2.16zm0 0M315.36 227.219h.12v-2.278h-.12zm0 0" fill="#505050" stroke-width=".12" stroke-linecap="round" stroke-linejoin="round" stroke="#505050" stroke-miterlimit="10"/><path d="M301.02 224.34v-2.82M301.02 210v2.879M286.68 231.54v-2.821M286.68 217.14v2.88" fill="none" stroke-width=".36000000000000004" stroke-linecap="round" stroke-linejoin="round" stroke="#505050" stroke-miterlimit="10"/><path d="M293.82 225.781v5.758" fill="none" stroke-width=".7200000000000001" stroke-linecap="round" stroke-linejoin="round" stroke="#505050" stroke-miterlimit="10"/><path d="M295.262 225.781a1.442 1.442 0 0 1-2.883 0 1.44 1.44 0 1 1 2.883 0zm0 0" fill="none" stroke-width=".18000000000000002" stroke-linecap="round" stroke-linejoin="round" stroke="#505050" stroke-miterlimit="10"/><path d="M279.48 224.34V222M279.48 222h1.98M281.46 222v-.84M281.46 221.16h-3.96M277.5 221.16v.84M277.5 222h1.98M279.48 217.14v2.34M279.48 219.48h-1.98M277.5 219.48v.899M277.5 220.379h3.96M281.46 220.379v-.899M281.46 219.48h-1.98" fill="none" stroke-width=".24" stroke-linecap="round" stroke-linejoin="round" stroke="#505050" stroke-miterlimit="10"/><path d="M272.281 188.398v6.122M272.281 217.14v-6.062" fill="none" stroke-width="1.4400000000000002" stroke-linecap="round" stroke-linejoin="round" stroke="#505050" stroke-miterlimit="10"/><path d="M315.422 231.54v-2.821M315.422 217.14v2.88" fill="none" stroke-width=".36000000000000004" stroke-linecap="round" stroke-linejoin="round" stroke="#505050" stroke-miterlimit="10"/><use xlink:href="#a" x="295.399" y="216.211" fill="#505050"/><use xlink:href="#b" x="296.839" y="216.211" fill="#505050"/><use xlink:href="#a" x="289.53" y="223.461" fill="#505050"/><use xlink:href="#c" x="290.97" y="223.461" fill="#505050"/><use xlink:href="#d" x="283.172" y="211.418" fill="#505050"/><use xlink:href="#e" x="285.153" y="211.418" fill="#505050"/><use xlink:href="#f" x="309.783" y="218.009" fill="#505050"/><use xlink:href="#g" x="311.163" y="218.009" fill="#505050"/><use xlink:href="#h" x="297.44" y="184.811" fill="#505050"/><use xlink:href="#i" x="299.36" y="184.811" fill="#505050"/><use xlink:href="#j" x="286.228" y="227.956" fill="#505050"/><use xlink:href="#e" x="288.748" y="227.956" fill="#505050"/><use xlink:href="#k" x="286.236" y="224.359" fill="#505050"/><use xlink:href="#l" x="286.236" y="222.919" fill="#505050"/><use xlink:href="#m" x="328.064" y="189.547" fill="#505050"/><g fill="#505050"><use xlink:href="#n" x="328.064" y="231.55"/><use xlink:href="#n" x="328.064" y="231.55"/></g><use xlink:href="#o" x="328.064" y="212.978" fill="#505050"/><use xlink:href="#p" x="328.064" y="211.058" fill="#505050"/><use xlink:href="#q" x="328.064" y="208.898" fill="#505050"/><use xlink:href="#o" x="269.096" y="227.599" fill="#505050"/><use xlink:href="#r" x="269.096" y="225.679" fill="#505050"/><use xlink:href="#s" x="269.096" y="224.479" fill="#505050"/><use xlink:href="#p" x="269.096" y="223.279" fill="#505050"/><use xlink:href="#t" x="269.096" y="234.85" fill="#505050"/><use xlink:href="#p" x="269.096" y="232.689" fill="#505050"/><use xlink:href="#u" x="269.096" y="230.53" fill="#505050"/><use xlink:href="#v" x="278.818" y="200.337" fill="#505050"/><use xlink:href="#w" x="278.818" y="197.817" fill="#505050"/><use xlink:href="#v" x="278.818" y="200.337" fill="#505050"/><use xlink:href="#w" x="278.818" y="197.817" fill="#505050"/><use xlink:href="#a" x="318.295" y="223.461" fill="#505050"/><use xlink:href="#x" x="319.735" y="223.461" fill="#505050"/><use xlink:href="#y" x="292.22" y="219.866" fill="#505050"/><use xlink:href="#z" x="293.54" y="219.866" fill="#505050"/><use xlink:href="#A" x="294.26" y="219.866" fill="#505050"/><use xlink:href="#B" x="295.58" y="219.866" fill="#505050"/><use xlink:href="#C" x="296.9" y="219.866" fill="#505050"/><use xlink:href="#g" x="289.531" y="226.996" fill="#505050"/><use xlink:href="#D" x="290.85" y="226.996" fill="#505050"/><use xlink:href="#C" x="292.17" y="226.996" fill="#505050"/><use xlink:href="#i" x="281.673" y="214.713" fill="#505050"/><use xlink:href="#E" x="283.413" y="214.713" fill="#505050"/><use xlink:href="#F" x="285.213" y="214.713" fill="#505050"/><use xlink:href="#G" x="306.73" y="220.589" fill="#505050"/><use xlink:href="#k" x="306.73" y="219.149" fill="#505050"/><use xlink:href="#H" x="306.73" y="217.709" fill="#505050"/><use xlink:href="#l" x="306.73" y="216.389" fill="#505050"/><use xlink:href="#I" x="306.73" y="215.069" fill="#505050"/><use xlink:href="#i" x="305.695" y="184.811" fill="#505050"/><use xlink:href="#J" x="307.435" y="184.811" fill="#505050"/><use xlink:href="#K" x="308.395" y="184.811" fill="#505050"/><use xlink:href="#L" x="310.135" y="184.811" fill="#505050"/><use xlink:href="#i" x="311.335" y="184.811" fill="#505050"/><use xlink:href="#M" x="313.075" y="184.811" fill="#505050"/><use xlink:href="#N" x="314.815" y="184.811" fill="#505050"/><use xlink:href="#O" x="316.615" y="184.811" fill="#505050"/><use xlink:href="#i" x="285.748" y="230.532" fill="#505050"/><use xlink:href="#P" x="287.489" y="230.532" fill="#505050"/><use xlink:href="#P" x="289.229" y="230.532" fill="#505050"/><use xlink:href="#Q" x="274.429" y="224.359" fill="#505050"/><use xlink:href="#R" x="274.429" y="223.039" fill="#505050"/><use xlink:href="#S" x="274.429" y="221.719" fill="#505050"/><use xlink:href="#Q" x="273.112" y="204.707" fill="#505050"/><use xlink:href="#T" x="273.112" y="203.387" fill="#505050"/><use xlink:href="#U" x="273.112" y="202.068" fill="#505050"/><use xlink:href="#g" x="318.295" y="226.996" fill="#505050"/><use xlink:href="#D" x="319.615" y="226.996" fill="#505050"/><use xlink:href="#C" x="320.935" y="226.996" fill="#505050"/><path d="M265.078 238.738h64.684M329.762 238.738V181.2M329.762 181.2h-64.684M265.078 181.2v57.538" fill="none" stroke-width=".12" stroke-linecap="round" stroke-linejoin="round" stroke="#000" stroke-miterlimit="10"/></svg>