<svg xmlns="http://www.w3.org/2000/svg" xmlns:xlink="http://www.w3.org/1999/xlink" width="560" height="595pt" viewBox="0 0 420 595"><defs><symbol overflow="visible" id="a"><path d="M.813-1.688v.282H0v.297h.813v1.046h.328l1.203-1.046v-.297H1.063v-.282zm.25.579h.921l-.921.796zm0 0"/></symbol><symbol overflow="visible" id="b"><path d="M0-.672v.375h.453v-.375zm0 0"/></symbol><symbol overflow="visible" id="c"><path d="M2-1.656L0-.625v.328l2.078-1.078v1.219h.266v-1.5zm0 0"/></symbol><symbol overflow="visible" id="d"><path d="M.922-1.688c-.293 0-.524.07-.688.204a.663.663 0 0 0-.265.53.791.791 0 0 0 .125.438h-.75v.297h2.422v-.297h-.188c.063-.07.117-.156.172-.25a.647.647 0 0 0 .063-.28.57.57 0 0 0-.235-.485c-.168-.102-.387-.157-.656-.157zM.89-1.39c.207 0 .363.032.468.094.114.074.172.18.172.313 0 .093-.023.18-.062.25a.798.798 0 0 1-.14.218h-1A.53.53 0 0 1 .25-.719a.862.862 0 0 1-.016-.187c0-.145.055-.266.172-.36.102-.082.266-.125.485-.125zm0 0"/></symbol><symbol overflow="visible" id="e"><path d="M2.078-1.64v1.093h-.672v-1.047h-.281v1.047H0v.313h2.344v-1.407zm0 0"/></symbol><symbol overflow="visible" id="f"><path d="M0-1.5v1.14h.234V-.78h1.579v.422h.218c0-.157.02-.274.063-.36.05-.07.14-.113.265-.125v-.25H.234V-1.5zm0 0"/></symbol><symbol overflow="visible" id="g"><path d="M0-1.594v.297h1.234c.063.012.118.027.172.047.04.031.07.07.094.11a.454.454 0 0 1-.031.39 1.066 1.066 0 0 1-.156.234H0v.297h1.766v-.297h-.204A.918.918 0 0 0 1.75-.78a.617.617 0 0 0 .063-.266.5.5 0 0 0-.172-.406c-.118-.094-.282-.14-.5-.14zm0 0"/></symbol><symbol overflow="visible" id="h"><path d="M1.25.61h-.203V0H.813v.61H.046v.234l.781.906h.219V.797h.203zM.812.796v.672L.235.797zm0 0"/></symbol><symbol overflow="visible" id="i"><path d="M1.234 1.484L.47 0h-.25l.797 1.547H.109v.203h1.125zm0 0"/></symbol><symbol overflow="visible" id="j"><path d="M1.25 0H.953L.47.64.375.548V0H.156v1.828h.219V.766l.531.546h.266L.64.766zm0 0"/></symbol><symbol overflow="visible" id="k"><path d="M1.125 0h-.86v.172h.313v1.172H.266v.172a.61.61 0 0 1 .265.046c.051.032.082.094.094.188h.188V.172h.312zm0 0"/></symbol><symbol overflow="visible" id="l"><path d="M1.219.875c0-.313-.047-.543-.14-.688A.463.463 0 0 0 .655-.03a.463.463 0 0 0-.422.218C.141.333.094.564.094.875c0 .313.047.54.14.688a.47.47 0 0 0 .422.218.47.47 0 0 0 .422-.218c.094-.157.14-.387.14-.688zM.922.344c.02.05.035.125.047.219a3.248 3.248 0 0 1 0 .625 1.42 1.42 0 0 1-.047.218.42.42 0 0 1-.11.14.256.256 0 0 1-.156.048.248.248 0 0 1-.156-.047.375.375 0 0 1-.11-.14.862.862 0 0 1-.046-.22V.875a1.379 1.379 0 0 1 0-.313A.827.827 0 0 1 .39.345.234.234 0 0 1 .5.204C.531.171.582.155.656.155.72.156.77.172.812.203a.42.42 0 0 1 .11.14zm0 0"/></symbol><symbol overflow="visible" id="m"><path d="M1.5 0H.36v.234H.78v1.579H.36v.218c.157 0 .274.02.36.063.07.05.113.14.125.265h.25V.234H1.5zm0 0"/></symbol><symbol overflow="visible" id="n"><path d="M.672 0H.297v.453h.375zm0 0"/></symbol><symbol overflow="visible" id="o"><path d="M1.656.766a.961.961 0 0 0-.062-.344.528.528 0 0 0-.157-.25.666.666 0 0 0-.234-.156A.786.786 0 0 0 .625 0a.756.756 0 0 0-.234.172A.713.713 0 0 0 .203.5C.16.645.141.82.141 1.031a1.53 1.53 0 0 0 .062.563c.04.156.102.297.188.422a.966.966 0 0 0 .328.28c.133.063.289.095.469.095h.156c.039-.012.078-.024.11-.032v-.296h-.016c-.024.007-.063.023-.125.046a1.17 1.17 0 0 1-.172.016.62.62 0 0 1-.47-.203c-.124-.125-.198-.32-.218-.578.07.05.149.086.234.11a.745.745 0 0 0 .266.046c.082 0 .16-.012.235-.031a.88.88 0 0 0 .218-.11.605.605 0 0 0 .188-.25.9.9 0 0 0 .062-.343zM1.344.75a.634.634 0 0 1-.047.25.32.32 0 0 1-.125.156c-.043.032-.086.055-.125.078-.063.008-.121.016-.172.016a.538.538 0 0 1-.219-.047 1.527 1.527 0 0 1-.203-.094v-.062-.078C.453.8.47.664.5.563a.513.513 0 0 1 .125-.22.29.29 0 0 1 .14-.109.31.31 0 0 1 .157-.03c.125 0 .223.046.297.14.082.094.125.226.125.406zm0 0"/></symbol><symbol overflow="visible" id="p"><path d="M1.031.89h-.89v.282h.89zm0 0"/></symbol><symbol overflow="visible" id="q"><path d="M1.5 0H.36v.234H.78v1.579H.36v.218c.157 0 .274.02.36.063.07.05.113.14.125.265h.25V.234H1.5zm0 0"/></symbol><symbol overflow="visible" id="r"><path d="M1.594.75a.973.973 0 0 0-.047-.313.74.74 0 0 0-.156-.25.61.61 0 0 0-.25-.171.847.847 0 0 0-.329-.063c-.117 0-.226.012-.328.031-.117.032-.21.063-.28.094v.344h.015a.25.25 0 0 1 .11-.063.795.795 0 0 1 .14-.062A.813.813 0 0 1 .64.25.409.409 0 0 1 .812.219c.063 0 .125.015.188.047a.31.31 0 0 1 .156.109c.04.04.07.094.094.156a.72.72 0 0 1 0 .422.967.967 0 0 1-.11.14.648.648 0 0 1-.156.079.917.917 0 0 1-.234.031c-.086 0-.168-.012-.25-.031C.414 1.16.348 1.148.297 1.14v1.203h1.281v-.266H.594v-.625h.11c.038 0 .077.004.109.016.113 0 .21-.012.296-.032a.788.788 0 0 0 .25-.125.573.573 0 0 0 .172-.218c.04-.086.063-.2.063-.344zm0 0"/></symbol><symbol overflow="visible" id="s"><path d="M1.688.922c0-.293-.07-.524-.204-.688a.663.663 0 0 0-.53-.265.791.791 0 0 0-.438.125v-.75H.219v2.422h.297v-.188c.07.063.156.117.25.172.082.04.175.063.28.063a.57.57 0 0 0 .485-.235c.102-.168.157-.387.157-.656zM1.39.89c0 .207-.032.363-.094.468a.356.356 0 0 1-.313.172.515.515 0 0 1-.25-.062.798.798 0 0 1-.218-.14v-1A.53.53 0 0 1 .719.25.862.862 0 0 1 .906.234c.145 0 .266.055.36.172.082.102.125.266.125.485zm0 0"/></symbol><symbol overflow="visible" id="t"><path d="M1.64 2.078H.548v-.672h1.047v-.281H.547V0H.234v2.344h1.407zm0 0"/></symbol><symbol overflow="visible" id="w"><path d="M1.625 0H.172v.328C.273.43.375.523.469.61c.094.094.18.188.265.282.176.195.301.359.375.484a.737.737 0 0 1 .094.36.428.428 0 0 1-.11.297.814.814 0 0 1-.14.077.841.841 0 0 1-.156.016c-.055 0-.11-.008-.172-.016a4.337 4.337 0 0 0-.156-.062.342.342 0 0 1-.125-.063 2.172 2.172 0 0 1-.11-.062H.22v.344c.062.03.156.062.281.093.113.032.223.047.328.047.219 0 .39-.058.516-.172a.66.66 0 0 0 .187-.484.95.95 0 0 0-.031-.25 2.037 2.037 0 0 0-.094-.219c-.043-.062-.09-.133-.14-.203a1.746 1.746 0 0 0-.172-.203L.766.547C.64.43.539.336.469.266h1.156zm0 0"/></symbol><symbol overflow="visible" id="x"><path d="M.89-.047c-.167 0-.312.024-.437.063C.336.046.227.086.125.14v.39h.016C.242.437.363.363.5.312A.923.923 0 0 1 .875.234c.164 0 .297.036.39.11.083.062.126.156.126.281a.364.364 0 0 1-.063.219.483.483 0 0 1-.219.14c-.074.02-.14.036-.203.047a1.001 1.001 0 0 0-.219.063.95.95 0 0 0-.218.078.386.386 0 0 0-.172.125.38.38 0 0 0-.11.187.522.522 0 0 0-.046.235c0 .187.07.347.218.484.145.125.336.188.579.188.125 0 .242-.012.359-.032.125-.03.234-.07.328-.109v-.375h-.016a1.215 1.215 0 0 1-.296.172.889.889 0 0 1-.36.078.579.579 0 0 1-.36-.11.308.308 0 0 1-.124-.265.34.34 0 0 1 .078-.234.371.371 0 0 1 .219-.125c.07-.024.156-.043.25-.063.093-.023.171-.043.234-.062.164-.055.285-.125.36-.22.07-.105.109-.23.109-.374A.885.885 0 0 0 1.672.39a.821.821 0 0 0-.156-.22.779.779 0 0 0-.266-.155.941.941 0 0 0-.36-.063zm0 0"/></symbol><symbol overflow="visible" id="y"><path d="M1.156-.047C1-.047.86-.02.734.031a.724.724 0 0 0-.328.235A1.045 1.045 0 0 0 .187.64a1.6 1.6 0 0 0-.078.53c0 .196.024.368.079.516.039.145.109.274.203.391.093.102.207.18.343.235.125.05.266.078.422.078.082 0 .16-.008.235-.016.062-.012.125-.027.187-.047.05-.012.102-.027.156-.047l.157-.094v-.374h-.032a.388.388 0 0 1-.109.093.69.69 0 0 1-.156.11 1.041 1.041 0 0 1-.188.078.972.972 0 0 1-.25.031.702.702 0 0 1-.516-.234.738.738 0 0 1-.156-.313 1.168 1.168 0 0 1-.062-.406c0-.156.02-.293.062-.406A.815.815 0 0 1 .641.469.655.655 0 0 1 .875.28a.885.885 0 0 1 .281-.047c.094 0 .176.008.25.032a.76.76 0 0 1 .203.078.586.586 0 0 1 .157.11c.039.03.07.054.093.077h.032V.156C1.836.133 1.789.113 1.75.094A1.758 1.758 0 0 0 1.578.03a1.16 1.16 0 0 0-.187-.062 1.847 1.847 0 0 0-.235-.016zm0 0"/></symbol><symbol overflow="visible" id="z"><path d="M1.313 1.39c0 .157-.016.286-.047.391a.74.74 0 0 1-.125.235.552.552 0 0 1-.141.093.37.37 0 0 1-.156.032A.353.353 0 0 1 .547 2C.46 1.906.422 1.77.422 1.594c0-.094.016-.172.047-.235a.282.282 0 0 1 .125-.171.212.212 0 0 1 .125-.063.816.816 0 0 1 .39.016c.07.02.141.05.204.093v.157zm-1.204.204c0 .113.02.222.063.328a.628.628 0 0 0 .156.25.702.702 0 0 0 .813.172.793.793 0 0 0 .234-.156.828.828 0 0 0 .188-.344c.039-.137.062-.313.062-.532 0-.187-.023-.37-.063-.546a1.222 1.222 0 0 0-.187-.438.93.93 0 0 0-.328-.281 1.044 1.044 0 0 0-.469-.094c-.043 0-.09.008-.14.016a.644.644 0 0 0-.126.015v.297h.016A.37.37 0 0 1 .453.25.409.409 0 0 1 .625.219c.195 0 .36.066.484.203.114.144.18.344.204.594a.714.714 0 0 0-.25-.125.634.634 0 0 0-.25-.047.74.74 0 0 0-.454.14.526.526 0 0 0-.187.25.86.86 0 0 0-.063.36zm0 0"/></symbol><symbol overflow="visible" id="A"><path d="M1.64 1.172c0-.418-.062-.727-.187-.922-.125-.2-.312-.297-.562-.297-.262 0-.454.098-.579.297-.124.195-.187.504-.187.922 0 .426.063.738.188.937.124.196.316.297.578.297.25 0 .437-.105.562-.312.125-.211.188-.516.188-.922zM1.235.453c.032.082.051.18.063.297.008.125.016.266.016.422 0 .164-.008.305-.016.422a1.03 1.03 0 0 1-.063.297.387.387 0 0 1-.14.187.34.34 0 0 1-.203.063.355.355 0 0 1-.22-.063.387.387 0 0 1-.14-.187 1.076 1.076 0 0 1-.062-.297 4.605 4.605 0 0 1-.016-.422c0-.168.004-.305.016-.406C.477.648.5.55.53.469A.378.378 0 0 1 .656.28.404.404 0 0 1 .891.22a.224.224 0 0 1 .203.062c.062.04.11.098.14.172zm0 0"/></symbol><symbol overflow="visible" id="B"><path d="M1.688.813h-.282V0H1.11v.813H.063v.328l1.046 1.203h.297V1.063h.282zm-.579.25v.921l-.796-.921zm0 0"/></symbol><symbol overflow="visible" id="C"><path d="M1.594 0h-.297v.203A1.115 1.115 0 0 0 1.03.016a.674.674 0 0 0-.484-.032.527.527 0 0 0-.188.125.38.38 0 0 0-.109.204.893.893 0 0 0-.047.312v1.14H.5v-1C.5.673.504.595.516.532.516.47.53.411.562.36A.183.183 0 0 1 .656.266.346.346 0 0 1 .828.234c.07 0 .149.02.235.063.082.039.16.094.234.156v1.313h.297zm0 0"/></symbol><symbol overflow="visible" id="D"><path d="M1.953 0h-.312v1.156H.547V0H.234v2.344h.313v-.922H1.64v.922h.312zm0 0"/></symbol><symbol overflow="visible" id="K"><path d="M1.594 0h-.297v1.234a1.104 1.104 0 0 1-.047.172.411.411 0 0 1-.11.094.454.454 0 0 1-.39-.031 1.066 1.066 0 0 1-.234-.156V0H.219v1.766h.297v-.204a.918.918 0 0 0 .265.188c.082.04.172.063.266.063a.5.5 0 0 0 .406-.172c.094-.118.14-.282.14-.5zm0 0"/></symbol><symbol overflow="visible" id="u"><path d="M1.125 0h-.86v.172h.313v1.172H.266v.172a.61.61 0 0 1 .265.046c.051.032.082.094.094.188h.188V.172h.312zm0 0"/></symbol><symbol overflow="visible" id="v"><path d="M1.219.875c0-.313-.047-.543-.14-.688A.463.463 0 0 0 .655-.03a.463.463 0 0 0-.422.218C.141.333.094.564.094.875c0 .313.047.54.14.688a.47.47 0 0 0 .422.218.47.47 0 0 0 .422-.218c.094-.157.14-.387.14-.688zM.922.344c.02.05.035.125.047.219a3.248 3.248 0 0 1 0 .625 1.42 1.42 0 0 1-.047.218.42.42 0 0 1-.11.14.256.256 0 0 1-.156.048.248.248 0 0 1-.156-.047.375.375 0 0 1-.11-.14.862.862 0 0 1-.046-.22V.875a1.379 1.379 0 0 1 0-.313A.827.827 0 0 1 .39.345.234.234 0 0 1 .5.204C.531.171.582.155.656.155.72.156.77.172.812.203a.42.42 0 0 1 .11.14zm0 0"/></symbol><symbol overflow="visible" id="L"><path d="M1.25.61h-.203V0H.813v.61H.046v.234l.781.906h.219V.797h.203zM.812.796v.672L.235.797zm0 0"/></symbol><symbol overflow="visible" id="M"><path d="M1.234 1.484L.47 0h-.25l.797 1.547H.109v.203h1.125zm0 0"/></symbol><symbol overflow="visible" id="N"><path d="M1.25 0H.953L.47.64.375.548V0H.156v1.828h.219V.766l.531.546h.266L.64.766zm0 0"/></symbol><symbol overflow="visible" id="E"><path d="M-.047-1.156c0 .156.027.297.078.422.051.136.13.246.235.328.101.094.226.168.375.219a1.6 1.6 0 0 0 .53.078c.196 0 .368-.024.516-.079.145-.039.274-.109.391-.203a.928.928 0 0 0 .235-.343c.05-.125.078-.266.078-.422 0-.082-.008-.16-.016-.235a1.644 1.644 0 0 0-.047-.187 1.395 1.395 0 0 0-.047-.156 5.507 5.507 0 0 1-.094-.157h-.374v.032a.388.388 0 0 1 .093.109.69.69 0 0 1 .11.156c.03.055.054.117.078.188.02.074.031.156.031.25a.702.702 0 0 1-.234.516.738.738 0 0 1-.313.156c-.117.043-.25.062-.406.062-.156 0-.293-.02-.406-.062a.815.815 0 0 1-.297-.157.655.655 0 0 1-.188-.234.885.885 0 0 1-.047-.281c0-.094.008-.176.032-.25a.76.76 0 0 1 .078-.203.586.586 0 0 1 .11-.157c.03-.039.054-.07.077-.093v-.032H.156c-.023.055-.043.102-.062.141-.024.055-.043.11-.063.172a1.16 1.16 0 0 0-.062.187c-.008.063-.016.141-.016.235zm0 0"/></symbol><symbol overflow="visible" id="F"><path d="M2.078-1.906a1.428 1.428 0 0 0-.375-.203 1.726 1.726 0 0 0-.531-.079c-.188 0-.36.028-.516.079a1.31 1.31 0 0 0-.39.203 1.037 1.037 0 0 0-.235.343c-.05.125-.078.266-.078.422 0 .157.027.297.078.422.051.137.13.246.235.328.101.094.234.168.39.22.156.042.328.062.516.062.195 0 .375-.02.531-.063.145-.05.27-.125.375-.219a.787.787 0 0 0 .235-.328 1.036 1.036 0 0 0-.234-1.188zm-.906.047c.156 0 .297.015.422.046.113.043.21.09.297.141.07.063.132.14.187.234a.861.861 0 0 1 .047.297.83.83 0 0 1-.047.297.624.624 0 0 1-.187.219.885.885 0 0 1-.313.14c-.117.044-.25.063-.406.063-.313 0-.547-.066-.703-.203a.606.606 0 0 1-.25-.516.65.65 0 0 1 .25-.53c.156-.126.39-.188.703-.188zm0 0"/></symbol><symbol overflow="visible" id="G"><path d="M0-1.922v.36l2.031 1.03H0v.298h2.344v-.454l-1.86-.937h1.86v-.297zm0 0"/></symbol><symbol overflow="visible" id="H"><path d="M.89-1.031v.89h.282v-.89zm0 0"/></symbol><symbol overflow="visible" id="I"><path d="M2.125-.813c0 .063-.008.122-.016.172l-.062.172a2.172 2.172 0 0 1-.125.234v.016h.328A1 1 0 0 0 2.36-.5a1.232 1.232 0 0 0 .015-.61 1.269 1.269 0 0 0-.11-.218.799.799 0 0 0-.187-.156.57.57 0 0 0-.25-.047.485.485 0 0 0-.328.125.486.486 0 0 0-.188.297h-.03l-.048-.157a.602.602 0 0 0-.109-.156.651.651 0 0 0-.172-.11.83.83 0 0 0-.547 0A.774.774 0 0 0 0-1.125a1.039 1.039 0 0 0-.047.33c0 .116.016.23.047.343a.83.83 0 0 0 .094.297h.328v-.016a1.06 1.06 0 0 1-.125-.266.774.774 0 0 1-.078-.343c0-.063.008-.125.031-.188a.31.31 0 0 1 .11-.156.345.345 0 0 1 .156-.11.568.568 0 0 1 .203-.03c.082 0 .156.015.219.046a.34.34 0 0 1 .125.094c.03.043.05.094.062.156.008.063.016.133.016.203v.125h.265v-.093a.57.57 0 0 1 .094-.344.353.353 0 0 1 .297-.14.37.37 0 0 1 .156.03.415.415 0 0 1 .156.219c.008.055.016.106.016.157zm0 0"/></symbol><symbol overflow="visible" id="J"><path d="M1.64-1.719c-.105 0-.199.016-.28.047a.793.793 0 0 0-.423.438 1.231 1.231 0 0 0-.062.421v.266H0v.313h2.344v-.594c0-.133-.012-.254-.031-.36a.777.777 0 0 0-.328-.469.9.9 0 0 0-.344-.062zm0 .328c.07 0 .141.012.204.032A.491.491 0 0 1 2-1.234c.031.054.05.109.063.171.007.075.015.157.015.25v.266h-.937v-.219c0-.125.007-.226.03-.312a.418.418 0 0 1 .11-.188.72.72 0 0 1 .157-.093.568.568 0 0 1 .203-.032zm0 0"/></symbol><symbol overflow="visible" id="O"><path d="M.094 0v.875H.64v-.11H.203V.532H.61v-.11H.203V.11h.438V0zm0 0"/></symbol><symbol overflow="visible" id="P"><path d="M.688.266a.2.2 0 0 0-.032-.11C.633.125.613.098.594.078a.223.223 0 0 0-.11-.062A.535.535 0 0 0 .344 0h-.25v.875h.374A.295.295 0 0 1 .548.844C.578.82.602.8.625.78a.461.461 0 0 0 .016-.11.2.2 0 0 0-.032-.109.265.265 0 0 0-.093-.078A.222.222 0 0 0 .64.406C.67.375.687.328.687.266zm-.172.39V.72C.504.727.488.739.469.75a.11.11 0 0 1-.063.016.291.291 0 0 1-.094.015H.204V.516h.14C.376.516.399.52.423.53c.008 0 .023.004.047.016.02.008.035.023.047.047v.062zm.046-.39a.231.231 0 0 1-.015.078.233.233 0 0 1-.063.062.093.093 0 0 0-.046.016H.203V.094h.093c.05 0 .094.004.125.015A.1.1 0 0 1 .5.141c.02.007.035.023.047.047.008.019.015.046.015.078zm0 0"/></symbol><symbol overflow="visible" id="Q"><path d="M.438-.016a.48.48 0 0 0-.172.032.371.371 0 0 0-.11.078.343.343 0 0 0-.093.14.569.569 0 0 0-.032.203c0 .07.008.133.032.188.019.05.046.098.078.14.039.04.082.07.125.094.05.02.109.032.171.032h.079A.155.155 0 0 1 .594.875.09.09 0 0 1 .64.844.311.311 0 0 1 .703.813V.671H.688a.119.119 0 0 0-.032.031.519.519 0 0 1-.062.047C.57.758.547.77.516.781.492.79.469.797.437.797A.2.2 0 0 1 .329.766.262.262 0 0 1 .234.703a.274.274 0 0 1-.047-.11.385.385 0 0 1-.03-.155.31.31 0 0 1 .03-.157.252.252 0 0 1 .047-.11A.22.22 0 0 1 .328.11a.172.172 0 0 1 .11-.03C.468.078.5.081.53.093c.02.008.04.02.063.031a.2.2 0 0 1 .062.047c.02.008.031.02.031.031h.016v-.14A.188.188 0 0 1 .656.03.134.134 0 0 0 .594.016C.563.004.535-.004.516-.016H.437zm0 0"/></symbol></defs><use xlink:href="#a" x="190.126" y="290.651" fill="#505050"/><use xlink:href="#b" x="190.126" y="288.911" fill="#505050"/><use xlink:href="#c" x="190.126" y="287.951" fill="#505050"/><use xlink:href="#d" x="190.126" y="286.211" fill="#505050"/><use xlink:href="#e" x="190.126" y="284.411" fill="#505050"/><use xlink:href="#f" x="197.317" y="309.53" fill="#505050"/><use xlink:href="#g" x="197.317" y="307.79" fill="#505050"/><use xlink:href="#e" x="197.317" y="305.99" fill="#505050"/><use xlink:href="#h" x="215.296" y="326.488" fill="#505050"/><use xlink:href="#i" x="216.616" y="326.488" fill="#505050"/><use xlink:href="#j" x="217.936" y="326.488" fill="#505050"/><use xlink:href="#k" x="215.296" y="312.042" fill="#505050"/><use xlink:href="#l" x="216.616" y="312.042" fill="#505050"/><use xlink:href="#j" x="217.936" y="312.042" fill="#505050"/><use xlink:href="#m" x="218.107" y="291.363" fill="#505050"/><use xlink:href="#n" x="219.847" y="291.363" fill="#505050"/><use xlink:href="#o" x="220.807" y="291.363" fill="#505050"/><use xlink:href="#p" x="222.547" y="291.363" fill="#505050"/><use xlink:href="#q" x="223.747" y="291.363" fill="#505050"/><use xlink:href="#r" x="225.487" y="291.363" fill="#505050"/><use xlink:href="#s" x="227.227" y="291.363" fill="#505050"/><use xlink:href="#t" x="229.027" y="291.363" fill="#505050"/><use xlink:href="#u" x="186.006" y="270.431" fill="#505050"/><use xlink:href="#v" x="187.326" y="270.431" fill="#505050"/><use xlink:href="#v" x="188.646" y="270.431" fill="#505050"/><use xlink:href="#u" x="186.006" y="270.431" fill="#505050"/><use xlink:href="#v" x="187.326" y="270.431" fill="#505050"/><use xlink:href="#v" x="188.646" y="270.431" fill="#505050"/><use xlink:href="#w" x="195.642" y="282.012" fill="#505050"/><use xlink:href="#x" x="197.382" y="282.012" fill="#505050"/><use xlink:href="#y" x="199.182" y="282.012" fill="#505050"/><use xlink:href="#z" x="201.102" y="282.012" fill="#505050"/><use xlink:href="#A" x="202.842" y="282.012" fill="#505050"/><use xlink:href="#q" x="204.582" y="282.012" fill="#505050"/><use xlink:href="#B" x="206.322" y="282.012" fill="#505050"/><use xlink:href="#q" x="217.991" y="281.591" fill="#505050"/><use xlink:href="#C" x="219.732" y="281.591" fill="#505050"/><use xlink:href="#D" x="221.532" y="281.591" fill="#505050"/><use xlink:href="#E" x="204.149" y="332.74" fill="#505050"/><use xlink:href="#F" x="204.149" y="330.82" fill="#505050"/><use xlink:href="#G" x="204.149" y="328.54" fill="#505050"/><use xlink:href="#G" x="204.149" y="326.38" fill="#505050"/><use xlink:href="#H" x="204.149" y="324.22" fill="#505050"/><use xlink:href="#I" x="204.149" y="323.02" fill="#505050"/><use xlink:href="#J" x="204.149" y="321.28" fill="#505050"/><use xlink:href="#H" x="204.149" y="319.48" fill="#505050"/><use xlink:href="#I" x="204.149" y="318.28" fill="#505050"/><use xlink:href="#J" x="204.149" y="316.54" fill="#505050"/><use xlink:href="#q" x="213.736" y="315.553" fill="#505050"/><use xlink:href="#A" x="215.476" y="315.553" fill="#505050"/><use xlink:href="#K" x="217.216" y="315.553" fill="#505050"/><use xlink:href="#t" x="219.016" y="315.553" fill="#505050"/><use xlink:href="#L" x="215.296" y="333.681" fill="#505050"/><use xlink:href="#M" x="216.616" y="333.681" fill="#505050"/><use xlink:href="#N" x="217.936" y="333.681" fill="#505050"/><path d="M196.379 284.16h1.742M202.14 284.16h-1.8M203.578 305.762h1.742M209.281 305.762h-1.8" fill="none" stroke-width=".24" stroke-linecap="round" stroke-linejoin="round" stroke="#505050" stroke-miterlimit="10"/><path d="M231.602 327.3h-6.122M202.86 327.3h6.062M202.86 312.96h6.062M231.602 312.96h-6.122" fill="none" stroke-width="1.4400000000000002" stroke-linecap="round" stroke-linejoin="round" stroke="#505050" stroke-miterlimit="10"/><path d="M195.66 279.54a2.52 2.52 0 0 1 0-5.04 2.52 2.52 0 0 1 0 5.04zm0 0" fill="none" stroke-width=".48" stroke-linecap="round" stroke-linejoin="round" stroke="#505050" stroke-miterlimit="10"/><path d="M195.66 278.82a1.801 1.801 0 1 1 .001-3.6 1.801 1.801 0 0 1 0 3.6zm0 0" fill="none" stroke-width=".18000000000000002" stroke-linecap="round" stroke-linejoin="round" stroke="#505050" stroke-miterlimit="10"/><path d="M195.66 276.96h-7.2" fill="none" stroke-width="1.4400000000000002" stroke-linecap="round" stroke-linejoin="round" stroke="#505050" stroke-miterlimit="10"/><path d="M195.66 279.54a2.52 2.52 0 0 1 0-5.04 2.52 2.52 0 0 1 0 5.04zm0 0" fill="none" stroke-width=".48" stroke-linecap="round" stroke-linejoin="round" stroke="#505050" stroke-miterlimit="10"/><path d="M195.66 278.82a1.801 1.801 0 1 1 .001-3.6 1.801 1.801 0 0 1 0 3.6zm0 0" fill="none" stroke-width=".18000000000000002" stroke-linecap="round" stroke-linejoin="round" stroke="#505050" stroke-miterlimit="10"/><path d="M206.04 291h-6.419M196.02 294.602l-.418-1.141-.243-1.262-.058-1.199M195.3 291l.122-.96.238-.962.36-.957M198.84 291h-3.54M209.64 288.121l.36.957.238.961.121.961M210.36 291v1.2l-.239 1.26-.48 1.142M210.36 291h-3.54" fill="none" stroke-width=".36000000000000004" stroke-linecap="round" stroke-linejoin="round" stroke="#505050" stroke-miterlimit="10"/><path d="M224.398 320.16h-6.058M210 320.16h6.121" fill="none" stroke-width=".24" stroke-linecap="round" stroke-linejoin="round" stroke="#505050" stroke-miterlimit="10"/><path d="M231.602 334.5h-6.122M202.86 334.5h6.062" fill="none" stroke-width="1.4400000000000002" stroke-linecap="round" stroke-linejoin="round" stroke="#505050" stroke-miterlimit="10"/><path d="M201.781 282.36l.48.12.419.301.3.418.18.48.059.481M196.738 282.36h5.043M195.3 284.16v-.48l.18-.48.301-.419.418-.3.54-.122M196.738 285.96l-.539-.12-.418-.3-.3-.36-.18-.48v-.54M201.781 285.96h-5.043M203.219 284.16l-.059.54-.18.48-.3.36-.418.3-.48.12" fill="none" stroke-width=".36000000000000004" stroke-linecap="round" stroke-linejoin="round" stroke="#505050" stroke-miterlimit="10"/><path d="M199.441 283.078v2.16h.48v-2.16zm0 0M198.54 283.078v2.16h.48v-2.16zm0 0" fill="#505050" stroke-width=".12" stroke-linecap="round" stroke-linejoin="round" stroke="#505050" stroke-miterlimit="10"/><path d="M208.922 303.96l.539.118.418.3.3.36.18.48v.544M203.941 303.96h4.98M202.5 305.762v-.543l.18-.48.3-.36.418-.3.543-.118M203.941 307.559l-.543-.118-.418-.3-.3-.422-.18-.48v-.477M208.922 307.559h-4.98M210.36 305.762v.476l-.18.48-.301.423-.418.3-.54.118" fill="none" stroke-width=".36000000000000004" stroke-linecap="round" stroke-linejoin="round" stroke="#505050" stroke-miterlimit="10"/><path d="M206.64 304.68v2.16h.481v-2.16zm0 0M205.738 304.68v2.16h.48v-2.16zm0 0" fill="#505050" stroke-width=".12" stroke-linecap="round" stroke-linejoin="round" stroke="#505050" stroke-miterlimit="10"/><path d="M210.719 330.18h-.239l-.242-.18-.18-.238-.058-.301M210 325.14l.059-.242.18-.238.241-.18h.239M223.68 324.48h.3l.239.18.12.238.06.243M224.398 329.46l-.058.302-.121.238-.239.18h-.3" fill="none" stroke-width=".48" stroke-linecap="round" stroke-linejoin="round" stroke="#505050" stroke-miterlimit="10"/><path d="M224.398 326.578v1.442h1.082v-1.442zm0 0M208.922 326.578v1.442H210v-1.442zm0 0" fill="#505050" stroke-width=".12" stroke-linecap="round" stroke-linejoin="round" stroke="#505050" stroke-miterlimit="10"/><path d="M210.719 330.18h-.239l-.242-.18-.18-.238-.058-.301M210 325.14l.059-.242.18-.238.241-.18h.239M223.68 324.48h.3l.239.18.12.238.06.243M224.398 329.46l-.058.302-.121.238-.239.18h-.3M210 325.14v4.32M210.719 330.18h1.082M212.16 329.82l-.36.36M210.719 324.48h1.082M212.16 324.84l-.36-.36M222.238 329.82l.364.36M222.238 329.82H212.16M222.238 324.84l.364-.36M222.238 324.84H212.16M223.68 330.18h-1.078M223.68 324.48h-1.078M224.398 325.14v4.32" fill="none" stroke-width=".48" stroke-linecap="round" stroke-linejoin="round" stroke="#505050" stroke-miterlimit="10"/><path d="M224.398 326.578v1.442h1.082v-1.442zm0 0M208.922 326.578v1.442H210v-1.442zm0 0" fill="#505050" stroke-width=".12" stroke-linecap="round" stroke-linejoin="round" stroke="#505050" stroke-miterlimit="10"/><path d="M223.68 310.078l.3.063.239.12.12.239.06.3M224.398 315.121l-.058.238-.121.243-.239.18-.3.058M210.719 315.84l-.239-.059-.242-.18-.18-.242-.058-.238M210 310.8l.059-.3.18-.238.241-.121.239-.063" fill="none" stroke-width=".48" stroke-linecap="round" stroke-linejoin="round" stroke="#505050" stroke-miterlimit="10"/><path d="M208.922 312.238v1.442H210v-1.442zm0 0M224.398 312.238v1.442h1.082v-1.442zm0 0" fill="#505050" stroke-width=".12" stroke-linecap="round" stroke-linejoin="round" stroke="#505050" stroke-miterlimit="10"/><path d="M223.68 310.078l.3.063.239.12.12.239.06.3M224.398 315.121l-.058.238-.121.243-.239.18-.3.058M210.719 315.84l-.239-.059-.242-.18-.18-.242-.058-.238M210 310.8l.059-.3.18-.238.241-.121.239-.063M224.398 315.121v-4.32M223.68 310.078h-1.078M222.238 310.441l.364-.363M223.68 315.84h-1.078M222.238 315.48l.364.36M212.16 310.441l-.36-.363M212.16 310.441h10.078M212.16 315.48l-.36.36M212.16 315.48h10.078M210.719 310.078h1.082M210.719 315.84h1.082M210 315.121v-4.32" fill="none" stroke-width=".48" stroke-linecap="round" stroke-linejoin="round" stroke="#505050" stroke-miterlimit="10"/><path d="M208.922 312.238v1.442H210v-1.442zm0 0M224.398 312.238v1.442h1.082v-1.442zm0 0" fill="#505050" stroke-width=".12" stroke-linecap="round" stroke-linejoin="round" stroke="#505050" stroke-miterlimit="10"/><path d="M217.078 287.578l-1.797 1.8M219.238 289.379l-2.398-2.399M216.84 286.98l.898-.902M217.738 286.078l1.082-.117M218.82 285.96l1.02-.062M219.84 285.898l2.46 2.403M214.078 296.281L211.801 294M211.8 294l.06-1.078M211.86 292.922l.062-1.024M211.922 291.898l.898-.957M212.82 290.941l2.461 2.399M213.238 291.422l2.043-2.043M226.2 295.68l-4.68 4.68M227.34 296.82l-4.68 4.68M214.441 292.5l3.899-3.898M224.398 302.102a3.478 3.478 0 0 1-3.476-3.48 3.478 3.478 0 1 1 6.957 0 3.48 3.48 0 0 1-3.48 3.48zm0 0" fill="none" stroke-width=".36000000000000004" stroke-linecap="round" stroke-linejoin="round" stroke="#505050" stroke-miterlimit="10"/><path d="M213.422 294.36l.418-.122.36-.36.12-.417-.12-.48-.36-.301-.418-.121-.48.12-.301.301-.121.48.12.419.301.36.48.12V294l.24-.059.237-.242.063-.238-.063-.3-.238-.18-.238-.06-.3.06-.18.18-.063.3.062.238.18.242.3.059v.36" fill-rule="evenodd" fill="#505050"/><path d="M213.422 294.36l.418-.122.36-.36.12-.417-.12-.48-.36-.301-.418-.121-.48.12-.301.301-.121.48.12.419.301.36.48.12V294l.24-.059.237-.242.063-.238-.063-.3-.238-.18-.238-.06-.3.06-.18.18-.063.3.062.238.18.242.3.059zm0 0" fill="none" stroke-width=".12" stroke-linecap="round" stroke-linejoin="round" stroke="#505050" stroke-miterlimit="10"/><path d="M219.3 288.422l.481-.121.297-.36.121-.421-.12-.48-.298-.302-.48-.117-.422.117-.36.301-.12.48.12.422.36.36.422.12v-.362l.3-.059.18-.238.059-.242-.059-.301-.18-.18-.3-.059-.242.06-.239.179-.058.3.058.243.239.238.242.059v.363" fill-rule="evenodd" fill="#505050"/><path d="M219.3 288.422l.481-.121.297-.36.121-.421-.12-.48-.298-.302-.48-.117-.422.117-.36.301-.12.48.12.422.36.36.422.12v-.362l.3-.059.18-.238.059-.242-.059-.301-.18-.18-.3-.059-.242.06-.239.179-.058.3.058.243.239.238.242.059zm0 0" fill="none" stroke-width=".12" stroke-linecap="round" stroke-linejoin="round" stroke="#505050" stroke-miterlimit="10"/><path d="M224.398 309c-5.73 0-10.378-4.648-10.378-10.379 0-5.734 4.648-10.383 10.378-10.383 5.735 0 10.383 4.649 10.383 10.383 0 5.73-4.648 10.379-10.383 10.379zm0 0" fill="none" stroke-width=".36000000000000004" stroke-linecap="round" stroke-linejoin="round" stroke="#505050" stroke-miterlimit="10"/><path d="M224.398 308.219a9.597 9.597 0 0 1-9.597-9.598c0-5.305 4.297-9.601 9.597-9.601A9.6 9.6 0 0 1 234 298.62c0 5.3-4.297 9.598-9.602 9.598zm0 0" fill="none" stroke-width=".36000000000000004" stroke-linecap="round" stroke-linejoin="round" stroke="#505050" stroke-miterlimit="10"/><path d="M192.422 276.96h-.723" fill="none" stroke-width="1.4400000000000002" stroke-linecap="round" stroke-linejoin="round" stroke="#505050" stroke-miterlimit="10"/><path d="M229.262 258.48h1.078M229.8 259.02v-1.079M230.879 257.941l.242-.242M231.121 257.7h.54M231.66 257.7l.3.241M231.96 257.941v1.079M231.96 259.02l-.3.242M231.66 259.262h-.539M231.121 259.262l-.242-.242M230.879 259.02v-.239M230.879 258.781l.242-.3M231.121 258.48h.84M232.441 259.262v-1.024M232.441 258.238l.54-.539M232.98 257.7l.54.538M233.52 258.238v1.024M187.2 259.02l-.24.242M186.96 259.262h-.538M186.422 259.262l-.3-.242M186.121 259.02v-1.079M186.121 257.941l.3-.242M186.422 257.7h.539M186.96 257.7l.24.241M187.2 257.941v.54M187.2 258.48h-.54M187.738 257.7v1.562M187.738 259.262l1.024-1.563M188.762 257.7v1.562M189.3 259.262v-1.563M189.3 257.7h.778M190.078 257.7l.3.241M190.379 257.941v1.079M190.379 259.02l-.3.242M190.078 259.262h-.777M207.719 257.7v1.081M207.719 258.781l.543.48M208.262 259.262l.476-.48M208.738 258.781V257.7M207.719 258.48h1.02M209.281 257.7v1.562M209.281 259.262l1.078-1.563M210.36 257.7v1.562M211.441 257.7v1.562M210.898 259.262h1.024" fill="none" stroke-width=".18000000000000002" stroke-linecap="round" stroke-linejoin="round" stroke="#505050" stroke-miterlimit="10"/><path d="M196.922 286.68h11.816M209.64 294.602l-.66 1.136-.84.961-.96.84-1.14.66-1.259.48-1.32.18h-1.262l-1.32-.18-1.2-.48-1.14-.66-1.02-.84-.84-.96-.66-1.137M196.02 288.121l.359-.723.543-.718M199.621 291h-.781M206.82 291h-.78M208.738 286.68l.543.718.418.84" fill="none" stroke-width=".36000000000000004" stroke-linecap="round" stroke-linejoin="round" stroke="#505050" stroke-miterlimit="10"/><use xlink:href="#O" x="197.08" y="287.766" fill="#505050"/><use xlink:href="#P" x="204.271" y="287.766" fill="#505050"/><use xlink:href="#Q" x="211.462" y="287.766" fill="#505050"/><path d="M227.281 273.36l.778.12.78.239.661.422.602.597.418.66.242.782.117.78M230.879 276.96l-.117.84-.242.72-.418.718-.602.543-.66.418-.781.301-.778.059M225.121 273.36l.777.12.782.239.66.422.601.597.418.66.301.782.059.78M228.719 276.96l-.059.84-.3.72-.419.718-.601.543-.66.418-.782.301-.777.059M222.96 273.36l.778.12.782.239.718.422.543.597.418.66.301.782.059.78M226.559 276.96l-.059.84-.3.72-.419.718-.543.543-.718.418-.782.301-.777.059M220.8 273.36l.84.12.72.239.718.422.543.597.418.66.3.782.06.78M224.398 276.96l-.058.84-.3.72-.419.718-.543.543-.719.418-.718.301-.84.059M218.64 273.36l.84.12.72.239.722.422.539.597.418.66.3.782.06.78M222.238 276.96l-.058.84-.301.72-.418.718-.54.543-.722.418-.719.301-.84.059M216.48 273.36l.84.12.72.239.722.422.539.597.418.66.3.782.06.78M220.078 276.96l-.058.84-.301.72-.418.718-.54.543-.722.418-.719.301-.84.059M214.32 273.36l.84.12.719.239.723.422.539.597.418.66.3.782.063.78M217.922 276.96l-.063.84-.3.72-.418.718-.54.543-.722.418-.719.301-.84.059M214.32 280.559l-.78-.059-.778-.3-.66-.419-.602-.543-.422-.718-.238-.72-.121-.84M190.262 314.762h10.797M201.059 314.762v25.136M201.059 339.898h-10.797M190.262 339.898v-25.136M214.68 321.96l-.54-.12-.48-.238-.422-.422-.238-.48-.121-.54M219.719 321.96h-5.04M221.52 320.16l-.06.54-.3.48-.36.422-.538.238-.543.12M219.719 318.36l.543.062.539.238.36.418.3.48.059.602M214.68 318.36h5.039" fill="none" stroke-width=".36000000000000004" stroke-linecap="round" stroke-linejoin="round" stroke="#505050" stroke-miterlimit="10"/><path d="M212.879 320.16l.121-.601.238-.48.422-.419.48-.238.54-.063" fill="none" stroke-width=".36000000000000004" stroke-linecap="round" stroke-linejoin="round" stroke="#505050" stroke-miterlimit="10"/><path d="M216.121 318.719v2.883h.719v-2.883zm0 0M217.559 318.719v2.883h.722v-2.883zm0 0" fill="#505050" stroke-width=".12" stroke-linecap="round" stroke-linejoin="round" stroke="#505050" stroke-miterlimit="10"/><path d="M214.68 321.96l-.54-.12-.48-.238-.422-.422-.238-.48-.121-.54" fill="none" stroke-width=".36000000000000004" stroke-linecap="round" stroke-linejoin="round" stroke="#505050" stroke-miterlimit="10"/><path d="M210.719 337.379l-.239-.059-.242-.12-.18-.24-.058-.3M210 332.34l.059-.238.18-.243.241-.18.239-.058M223.68 331.621l.3.059.239.18.12.242.06.238M224.398 336.66l-.058.3-.121.24-.239.12-.3.059" fill="none" stroke-width=".48" stroke-linecap="round" stroke-linejoin="round" stroke="#505050" stroke-miterlimit="10"/><path d="M224.398 333.781v1.438h1.082v-1.438zm0 0M208.922 333.781v1.438H210v-1.438zm0 0" fill="#505050" stroke-width=".12" stroke-linecap="round" stroke-linejoin="round" stroke="#505050" stroke-miterlimit="10"/><path d="M210.719 337.379l-.239-.059-.242-.12-.18-.24-.058-.3M210 332.34l.059-.238.18-.243.241-.18.239-.058M223.68 331.621l.3.059.239.18.12.242.06.238M224.398 336.66l-.058.3-.121.24-.239.12-.3.059M210 332.34v4.32M210.719 337.379h1.082M212.16 337.02l-.36.359M210.719 331.621h1.082M212.16 331.98l-.36-.359M222.238 337.02l.364.359M222.238 337.02H212.16M222.238 331.98l.364-.359M222.238 331.98H212.16M223.68 337.379h-1.078M223.68 331.621h-1.078M224.398 332.34v4.32" fill="none" stroke-width=".48" stroke-linecap="round" stroke-linejoin="round" stroke="#505050" stroke-miterlimit="10"/><path d="M224.398 333.781v1.438h1.082v-1.438zm0 0M208.922 333.781v1.438H210v-1.438zm0 0" fill="#505050" stroke-width=".12" stroke-linecap="round" stroke-linejoin="round" stroke="#505050" stroke-miterlimit="10"/><path d="M195.66 286.078a1.859 1.859 0 1 1-.001-3.717 1.859 1.859 0 0 1 .001 3.717" fill-rule="evenodd" fill="green"/><path d="M195.66 286.078a1.859 1.859 0 1 1-.001-3.718 1.859 1.859 0 0 1 .001 3.718zm0 0" fill="none" stroke-width=".12" stroke-linecap="round" stroke-linejoin="round" stroke="green" stroke-miterlimit="10"/><path d="M195.66 285.36a1.14 1.14 0 1 1 0-2.282 1.14 1.14 0 1 1 0 2.281" fill-rule="evenodd" fill="#fff"/><path d="M195.66 285.36a1.14 1.14 0 1 1 0-2.282 1.14 1.14 0 1 1 0 2.281zm0 0" fill="none" stroke-width=".06" stroke-linecap="square" stroke-linejoin="bevel" stroke="#000" stroke-miterlimit="10"/><path d="M202.86 286.078a1.859 1.859 0 1 1-.002-3.717 1.859 1.859 0 0 1 .001 3.717" fill-rule="evenodd" fill="green"/><path d="M202.86 286.078a1.859 1.859 0 1 1-.002-3.718 1.859 1.859 0 0 1 .001 3.718zm0 0" fill="none" stroke-width=".12" stroke-linecap="round" stroke-linejoin="round" stroke="green" stroke-miterlimit="10"/><path d="M202.86 285.36a1.14 1.14 0 1 1 0-2.282 1.14 1.14 0 1 1 0 2.281" fill-rule="evenodd" fill="#fff"/><path d="M202.86 285.36a1.14 1.14 0 1 1 0-2.282 1.14 1.14 0 1 1 0 2.281zm0 0" fill="none" stroke-width=".06" stroke-linecap="square" stroke-linejoin="bevel" stroke="#000" stroke-miterlimit="10"/><path d="M202.86 307.68a1.859 1.859 0 1 1-.002-3.718 1.859 1.859 0 0 1 .001 3.718" fill-rule="evenodd" fill="green"/><path d="M202.86 307.68a1.859 1.859 0 1 1-.002-3.718 1.859 1.859 0 0 1 .001 3.718zm0 0" fill="none" stroke-width=".12" stroke-linecap="round" stroke-linejoin="round" stroke="green" stroke-miterlimit="10"/><path d="M202.86 306.96c-.63 0-1.141-.51-1.141-1.14 0-.629.511-1.14 1.14-1.14.63 0 1.141.511 1.141 1.14 0 .63-.512 1.14-1.14 1.14" fill-rule="evenodd" fill="#fff"/><path d="M202.86 306.96c-.63 0-1.141-.51-1.141-1.14 0-.629.511-1.14 1.14-1.14.63 0 1.141.511 1.141 1.14 0 .63-.512 1.14-1.14 1.14zm0 0" fill="none" stroke-width=".06" stroke-linecap="square" stroke-linejoin="bevel" stroke="#000" stroke-miterlimit="10"/><path d="M210 307.68a1.859 1.859 0 1 1-.001-3.718 1.859 1.859 0 0 1 .001 3.718" fill-rule="evenodd" fill="green"/><path d="M210 307.68a1.859 1.859 0 1 1-.001-3.718 1.859 1.859 0 0 1 .001 3.718zm0 0" fill="none" stroke-width=".12" stroke-linecap="round" stroke-linejoin="round" stroke="green" stroke-miterlimit="10"/><path d="M210 306.96c-.629 0-1.14-.51-1.14-1.14 0-.629.511-1.14 1.14-1.14.629 0 1.14.511 1.14 1.14 0 .63-.511 1.14-1.14 1.14" fill-rule="evenodd" fill="#fff"/><path d="M210 306.96c-.629 0-1.14-.51-1.14-1.14 0-.629.511-1.14 1.14-1.14.629 0 1.14.511 1.14 1.14 0 .63-.511 1.14-1.14 1.14zm0 0" fill="none" stroke-width=".06" stroke-linecap="square" stroke-linejoin="bevel" stroke="#000" stroke-miterlimit="10"/><path d="M202.86 329.219a1.859 1.859 0 1 1-.002-3.718 1.859 1.859 0 0 1 .001 3.718" fill-rule="evenodd" fill="green"/><path d="M202.86 329.219a1.859 1.859 0 1 1-.002-3.718 1.859 1.859 0 0 1 .001 3.718zm0 0" fill="none" stroke-width=".12" stroke-linecap="round" stroke-linejoin="round" stroke="green" stroke-miterlimit="10"/><path d="M202.86 328.5c-.63 0-1.141-.512-1.141-1.14 0-.63.511-1.141 1.14-1.141.63 0 1.141.511 1.141 1.14 0 .63-.512 1.141-1.14 1.141" fill-rule="evenodd" fill="#fff"/><path d="M202.86 328.5c-.63 0-1.141-.512-1.141-1.14 0-.63.511-1.141 1.14-1.141.63 0 1.141.511 1.141 1.14 0 .63-.512 1.141-1.14 1.141zm0 0" fill="none" stroke-width=".06" stroke-linecap="square" stroke-linejoin="bevel" stroke="#000" stroke-miterlimit="10"/><path d="M231.602 329.219a1.862 1.862 0 0 1-1.864-1.86 1.862 1.862 0 0 1 3.723 0c0 1.028-.832 1.86-1.86 1.86" fill-rule="evenodd" fill="green"/><path d="M231.602 329.219a1.862 1.862 0 0 1-1.864-1.86 1.862 1.862 0 0 1 3.723 0c0 1.028-.832 1.86-1.86 1.86zm0 0" fill="none" stroke-width=".12" stroke-linecap="round" stroke-linejoin="round" stroke="green" stroke-miterlimit="10"/><path d="M231.602 328.5a1.14 1.14 0 1 1-.003-2.279 1.14 1.14 0 0 1 .003 2.279" fill-rule="evenodd" fill="#fff"/><path d="M231.602 328.5a1.14 1.14 0 1 1-.003-2.279 1.14 1.14 0 0 1 .003 2.279zm0 0" fill="none" stroke-width=".06" stroke-linecap="square" stroke-linejoin="bevel" stroke="#000" stroke-miterlimit="10"/><path d="M231.602 314.879a1.862 1.862 0 0 1-1.864-1.86 1.862 1.862 0 0 1 3.723 0c0 1.028-.832 1.86-1.86 1.86" fill-rule="evenodd" fill="green"/><path d="M231.602 314.879a1.862 1.862 0 0 1-1.864-1.86 1.862 1.862 0 0 1 3.723 0c0 1.028-.832 1.86-1.86 1.86zm0 0" fill="none" stroke-width=".12" stroke-linecap="round" stroke-linejoin="round" stroke="green" stroke-miterlimit="10"/><path d="M231.602 314.16a1.14 1.14 0 1 1-.003-2.279 1.14 1.14 0 0 1 .003 2.28" fill-rule="evenodd" fill="#fff"/><path d="M231.602 314.16a1.14 1.14 0 1 1-.003-2.279 1.14 1.14 0 0 1 .003 2.28zm0 0" fill="none" stroke-width=".06" stroke-linecap="square" stroke-linejoin="bevel" stroke="#000" stroke-miterlimit="10"/><path d="M202.86 314.879a1.859 1.859 0 1 1-.002-3.718 1.859 1.859 0 0 1 .001 3.718" fill-rule="evenodd" fill="green"/><path d="M202.86 314.879a1.859 1.859 0 1 1-.002-3.718 1.859 1.859 0 0 1 .001 3.718zm0 0" fill="none" stroke-width=".12" stroke-linecap="round" stroke-linejoin="round" stroke="green" stroke-miterlimit="10"/><path d="M202.86 314.16c-.63 0-1.141-.512-1.141-1.14 0-.63.511-1.141 1.14-1.141.63 0 1.141.512 1.141 1.14 0 .63-.512 1.141-1.14 1.141" fill-rule="evenodd" fill="#fff"/><path d="M202.86 314.16c-.63 0-1.141-.512-1.141-1.14 0-.63.511-1.141 1.14-1.141.63 0 1.141.512 1.141 1.14 0 .63-.512 1.141-1.14 1.141zm0 0" fill="none" stroke-width=".06" stroke-linecap="square" stroke-linejoin="bevel" stroke="#000" stroke-miterlimit="10"/><path d="M216.238 303.422l-1.379 1.379v1.918l1.38 1.383h1.921l1.38-1.383V304.8l-1.38-1.38h-1.922" fill="green"/><path d="M216.238 303.422l-1.379 1.379v1.918l1.38 1.383h1.921l1.38-1.383V304.8l-1.38-1.38zm0 0" fill="none" stroke-width=".12" stroke-linecap="round" stroke-linejoin="round" stroke="green" stroke-miterlimit="10"/><path d="M217.2 307.379a1.558 1.558 0 1 1 0-3.117 1.559 1.559 0 0 1 0 3.117" fill-rule="evenodd" fill="#fff"/><path d="M217.2 307.379a1.558 1.558 0 1 1 0-3.117 1.559 1.559 0 0 1 0 3.117zm0 0" fill="none" stroke-width=".06" stroke-linecap="square" stroke-linejoin="bevel" stroke="#000" stroke-miterlimit="10"/><path d="M216.238 289.02l-1.379 1.378v1.922l1.38 1.38h1.921l1.38-1.38v-1.922l-1.38-1.378h-1.922" fill="green"/><path d="M216.238 289.02l-1.379 1.378v1.922l1.38 1.38h1.921l1.38-1.38v-1.922l-1.38-1.378zm0 0" fill="none" stroke-width=".12" stroke-linecap="round" stroke-linejoin="round" stroke="green" stroke-miterlimit="10"/><path d="M217.2 292.98a1.56 1.56 0 1 1 .003-3.12 1.56 1.56 0 0 1-.004 3.12" fill-rule="evenodd" fill="#fff"/><path d="M217.2 292.98a1.56 1.56 0 1 1 .003-3.12 1.56 1.56 0 0 1-.004 3.12zm0 0" fill="none" stroke-width=".06" stroke-linecap="square" stroke-linejoin="bevel" stroke="#000" stroke-miterlimit="10"/><path d="M230.64 289.02l-1.378 1.378v1.922l1.379 1.38h1.918l1.382-1.38v-1.922l-1.382-1.378h-1.918" fill="green"/><path d="M230.64 289.02l-1.378 1.378v1.922l1.379 1.38h1.918l1.382-1.38v-1.922l-1.382-1.378zm0 0" fill="none" stroke-width=".12" stroke-linecap="round" stroke-linejoin="round" stroke="green" stroke-miterlimit="10"/><path d="M231.602 292.98a1.561 1.561 0 1 1-.003-3.122 1.561 1.561 0 0 1 .003 3.122" fill-rule="evenodd" fill="#fff"/><path d="M231.602 292.98a1.561 1.561 0 1 1-.003-3.122 1.561 1.561 0 0 1 .003 3.122zm0 0" fill="none" stroke-width=".06" stroke-linecap="square" stroke-linejoin="bevel" stroke="#000" stroke-miterlimit="10"/><path d="M195.66 278.879a1.859 1.859 0 1 1-.001-3.718 1.859 1.859 0 0 1 .001 3.718" fill-rule="evenodd" fill="green"/><path d="M195.66 278.879a1.859 1.859 0 1 1-.001-3.718 1.859 1.859 0 0 1 .001 3.718zm0 0" fill="none" stroke-width=".12" stroke-linecap="round" stroke-linejoin="round" stroke="green" stroke-miterlimit="10"/><path d="M195.66 278.16c-.629 0-1.14-.512-1.14-1.14 0-.63.511-1.141 1.14-1.141.63 0 1.14.512 1.14 1.14 0 .63-.51 1.141-1.14 1.141" fill-rule="evenodd" fill="#fff"/><path d="M195.66 278.16c-.629 0-1.14-.512-1.14-1.14 0-.63.511-1.141 1.14-1.141.63 0 1.14.512 1.14 1.14 0 .63-.51 1.141-1.14 1.141zm0 0" fill="none" stroke-width=".06" stroke-linecap="square" stroke-linejoin="bevel" stroke="#000" stroke-miterlimit="10"/><path d="M188.46 278.879a1.859 1.859 0 1 1 0-3.718 1.859 1.859 0 0 1 0 3.718" fill-rule="evenodd" fill="green"/><path d="M188.46 278.879a1.859 1.859 0 1 1 0-3.718 1.859 1.859 0 0 1 0 3.718zm0 0" fill="none" stroke-width=".12" stroke-linecap="round" stroke-linejoin="round" stroke="green" stroke-miterlimit="10"/><path d="M188.46 278.16a1.14 1.14 0 1 1 0-2.281c.63 0 1.142.512 1.142 1.14 0 .63-.512 1.141-1.141 1.141" fill-rule="evenodd" fill="#fff"/><path d="M188.46 278.16a1.14 1.14 0 1 1 0-2.281c.63 0 1.142.512 1.142 1.14 0 .63-.512 1.141-1.141 1.141zm0 0" fill="none" stroke-width=".06" stroke-linecap="square" stroke-linejoin="bevel" stroke="#000" stroke-miterlimit="10"/><path d="M231.602 265.441a2.762 2.762 0 0 1-2.762-2.761 2.758 2.758 0 0 1 2.762-2.758 2.76 2.76 0 0 1 0 5.52" fill-rule="evenodd" fill="green"/><path d="M231.602 265.441a2.762 2.762 0 0 1-2.762-2.761 2.758 2.758 0 0 1 2.762-2.758 2.76 2.76 0 0 1 0 5.52zm0 0" fill="none" stroke-width=".12" stroke-linecap="round" stroke-linejoin="round" stroke="green" stroke-miterlimit="10"/><path d="M231.602 264.121a1.44 1.44 0 1 1-.003-2.88 1.44 1.44 0 0 1 .003 2.88" fill-rule="evenodd" fill="#fff"/><path d="M231.602 264.121a1.44 1.44 0 1 1-.003-2.88 1.44 1.44 0 0 1 .003 2.88zm0 0" fill="none" stroke-width=".06" stroke-linecap="square" stroke-linejoin="bevel" stroke="#000" stroke-miterlimit="10"/><path d="M188.46 265.441a2.764 2.764 0 0 1-2.76-2.761 2.76 2.76 0 0 1 5.519 0 2.76 2.76 0 0 1-2.758 2.761" fill-rule="evenodd" fill="green"/><path d="M188.46 265.441a2.764 2.764 0 0 1-2.76-2.761 2.76 2.76 0 0 1 5.519 0 2.76 2.76 0 0 1-2.758 2.761zm0 0" fill="none" stroke-width=".12" stroke-linecap="round" stroke-linejoin="round" stroke="green" stroke-miterlimit="10"/><path d="M188.46 264.121a1.44 1.44 0 1 1-.001-2.88 1.44 1.44 0 0 1 .002 2.88" fill-rule="evenodd" fill="#fff"/><path d="M188.46 264.121a1.44 1.44 0 1 1-.001-2.88 1.44 1.44 0 0 1 .002 2.88zm0 0" fill="none" stroke-width=".06" stroke-linecap="square" stroke-linejoin="bevel" stroke="#000" stroke-miterlimit="10"/><path d="M210 265.441a2.764 2.764 0 0 1-2.762-2.761 2.76 2.76 0 0 1 2.762-2.758 2.76 2.76 0 0 1 2.762 2.758A2.764 2.764 0 0 1 210 265.44" fill-rule="evenodd" fill="green"/><path d="M210 265.441a2.764 2.764 0 0 1-2.762-2.761 2.76 2.76 0 0 1 2.762-2.758 2.76 2.76 0 0 1 2.762 2.758A2.764 2.764 0 0 1 210 265.44zm0 0" fill="none" stroke-width=".12" stroke-linecap="round" stroke-linejoin="round" stroke="green" stroke-miterlimit="10"/><path d="M210 264.121a1.44 1.44 0 1 1-.002-2.88 1.44 1.44 0 0 1 .002 2.88" fill-rule="evenodd" fill="#fff"/><path d="M210 264.121a1.44 1.44 0 1 1-.002-2.88 1.44 1.44 0 0 1 .002 2.88zm0 0" fill="none" stroke-width=".06" stroke-linecap="square" stroke-linejoin="bevel" stroke="#000" stroke-miterlimit="10"/><path d="M209.219 289.5l-1.078 1.078v1.563l1.078 1.078h1.562l1.078-1.078v-1.563l-1.078-1.078h-1.562" fill="green"/><path d="M209.219 289.5l-1.078 1.078v1.563l1.078 1.078h1.562l1.078-1.078v-1.563l-1.078-1.078zm0 0" fill="none" stroke-width=".12" stroke-linecap="round" stroke-linejoin="round" stroke="green" stroke-miterlimit="10"/><path d="M210 292.559a1.139 1.139 0 1 1 0-2.278 1.14 1.14 0 1 1 0 2.278" fill-rule="evenodd" fill="#fff"/><path d="M210 292.559a1.139 1.139 0 1 1 0-2.278 1.14 1.14 0 1 1 0 2.278zm0 0" fill="none" stroke-width=".06" stroke-linecap="square" stroke-linejoin="bevel" stroke="#000" stroke-miterlimit="10"/><path d="M194.879 289.5l-1.078 1.078v1.563l1.078 1.078h1.562l1.079-1.078v-1.563l-1.079-1.078h-1.562" fill="green"/><path d="M194.879 289.5l-1.078 1.078v1.563l1.078 1.078h1.562l1.079-1.078v-1.563l-1.079-1.078zm0 0" fill="none" stroke-width=".12" stroke-linecap="round" stroke-linejoin="round" stroke="green" stroke-miterlimit="10"/><path d="M195.66 292.559a1.139 1.139 0 1 1 0-2.278 1.14 1.14 0 1 1 0 2.278" fill-rule="evenodd" fill="#fff"/><path d="M195.66 292.559a1.139 1.139 0 1 1 0-2.278 1.14 1.14 0 1 1 0 2.278zm0 0" fill="none" stroke-width=".06" stroke-linecap="square" stroke-linejoin="bevel" stroke="#000" stroke-miterlimit="10"/><path d="M202.078 289.5L201 290.578v1.563l1.078 1.078h1.563l1.078-1.078v-1.563l-1.078-1.078h-1.563" fill="green"/><path d="M202.078 289.5L201 290.578v1.563l1.078 1.078h1.563l1.078-1.078v-1.563l-1.078-1.078zm0 0" fill="none" stroke-width=".12" stroke-linecap="round" stroke-linejoin="round" stroke="green" stroke-miterlimit="10"/><path d="M202.86 292.559a1.139 1.139 0 1 1 0-2.278 1.14 1.14 0 1 1 0 2.278" fill-rule="evenodd" fill="#fff"/><path d="M202.86 292.559a1.139 1.139 0 1 1 0-2.278 1.14 1.14 0 1 1 0 2.278zm0 0" fill="none" stroke-width=".06" stroke-linecap="square" stroke-linejoin="bevel" stroke="#000" stroke-miterlimit="10"/><path d="M210 278.879a1.859 1.859 0 1 1-.001-3.718 1.859 1.859 0 0 1 .001 3.718" fill-rule="evenodd" fill="green"/><path d="M210 278.879a1.859 1.859 0 1 1-.001-3.718 1.859 1.859 0 0 1 .001 3.718zm0 0" fill="none" stroke-width=".12" stroke-linecap="round" stroke-linejoin="round" stroke="green" stroke-miterlimit="10"/><path d="M210 278.16c-.629 0-1.14-.512-1.14-1.14 0-.63.511-1.141 1.14-1.141.629 0 1.14.512 1.14 1.14 0 .63-.511 1.141-1.14 1.141" fill-rule="evenodd" fill="#fff"/><path d="M210 278.16c-.629 0-1.14-.512-1.14-1.14 0-.63.511-1.141 1.14-1.141.629 0 1.14.512 1.14 1.14 0 .63-.511 1.141-1.14 1.141zm0 0" fill="none" stroke-width=".06" stroke-linecap="square" stroke-linejoin="bevel" stroke="#000" stroke-miterlimit="10"/><path d="M231.602 278.879a1.862 1.862 0 0 1-1.864-1.86 1.862 1.862 0 0 1 3.723 0c0 1.028-.832 1.86-1.86 1.86" fill-rule="evenodd" fill="green"/><path d="M231.602 278.879a1.862 1.862 0 0 1-1.864-1.86 1.862 1.862 0 0 1 3.723 0c0 1.028-.832 1.86-1.86 1.86zm0 0" fill="none" stroke-width=".12" stroke-linecap="round" stroke-linejoin="round" stroke="green" stroke-miterlimit="10"/><path d="M231.602 278.16a1.14 1.14 0 1 1-.003-2.279 1.14 1.14 0 0 1 .003 2.28" fill-rule="evenodd" fill="#fff"/><path d="M231.602 278.16a1.14 1.14 0 1 1-.003-2.279 1.14 1.14 0 0 1 .003 2.28zm0 0" fill="none" stroke-width=".06" stroke-linecap="square" stroke-linejoin="bevel" stroke="#000" stroke-miterlimit="10"/><path d="M194.64 331.98l-1.5 1.5v2.04l1.5 1.5h2.04l1.5-1.5v-2.04l-1.5-1.5h-2.04" fill="green"/><path d="M194.64 331.98l-1.5 1.5v2.04l1.5 1.5h2.04l1.5-1.5v-2.04l-1.5-1.5zm0 0" fill="none" stroke-width=".12" stroke-linecap="round" stroke-linejoin="round" stroke="green" stroke-miterlimit="10"/><path d="M195.66 335.82a1.26 1.26 0 0 1 0-2.52 1.26 1.26 0 1 1 0 2.52" fill-rule="evenodd" fill="#fff"/><path d="M195.66 335.82a1.26 1.26 0 0 1 0-2.52 1.26 1.26 0 1 1 0 2.52zm0 0" fill="none" stroke-width=".06" stroke-linecap="square" stroke-linejoin="bevel" stroke="#000" stroke-miterlimit="10"/><path d="M194.64 324.781l-1.5 1.5v2.04l1.5 1.5h2.04l1.5-1.5v-2.04l-1.5-1.5h-2.04" fill="green"/><path d="M194.64 324.781l-1.5 1.5v2.04l1.5 1.5h2.04l1.5-1.5v-2.04l-1.5-1.5zm0 0" fill="none" stroke-width=".12" stroke-linecap="round" stroke-linejoin="round" stroke="green" stroke-miterlimit="10"/><path d="M195.66 328.621a1.26 1.26 0 0 1 0-2.52 1.26 1.26 0 1 1 0 2.52" fill-rule="evenodd" fill="#fff"/><path d="M195.66 328.621a1.26 1.26 0 0 1 0-2.52 1.26 1.26 0 1 1 0 2.52zm0 0" fill="none" stroke-width=".06" stroke-linecap="square" stroke-linejoin="bevel" stroke="#000" stroke-miterlimit="10"/><path d="M193.14 317.64v5.04h5.04v-5.04zm0 0" fill="green" stroke-width=".12" stroke-linecap="round" stroke-linejoin="round" stroke="green" stroke-miterlimit="10"/><path d="M195.66 321.48a1.26 1.26 0 0 1 0-2.52 1.26 1.26 0 1 1 0 2.52" fill-rule="evenodd" fill="#fff"/><path d="M195.66 321.48a1.26 1.26 0 0 1 0-2.52 1.26 1.26 0 1 1 0 2.52zm0 0" fill="none" stroke-width=".06" stroke-linecap="square" stroke-linejoin="bevel" stroke="#000" stroke-miterlimit="10"/><path d="M224.398 322.078a1.859 1.859 0 1 1 0-3.719c1.028 0 1.864.832 1.864 1.86 0 1.027-.836 1.86-1.864 1.86" fill-rule="evenodd" fill="green"/><path d="M224.398 322.078a1.859 1.859 0 1 1 0-3.719c1.028 0 1.864.832 1.864 1.86 0 1.027-.836 1.86-1.864 1.86zm0 0" fill="none" stroke-width=".12" stroke-linecap="round" stroke-linejoin="round" stroke="green" stroke-miterlimit="10"/><path d="M224.398 321.36a1.136 1.136 0 0 1-1.136-1.141 1.139 1.139 0 1 1 2.277 0c0 .633-.508 1.14-1.14 1.14" fill-rule="evenodd" fill="#fff"/><path d="M224.398 321.36a1.136 1.136 0 0 1-1.136-1.141 1.139 1.139 0 1 1 2.277 0c0 .633-.508 1.14-1.14 1.14zm0 0" fill="none" stroke-width=".06" stroke-linecap="square" stroke-linejoin="bevel" stroke="#000" stroke-miterlimit="10"/><path d="M210 322.078a1.859 1.859 0 1 1-.001-3.717 1.859 1.859 0 0 1 .001 3.717" fill-rule="evenodd" fill="green"/><path d="M210 322.078a1.859 1.859 0 1 1-.001-3.718 1.859 1.859 0 0 1 .001 3.718zm0 0" fill="none" stroke-width=".12" stroke-linecap="round" stroke-linejoin="round" stroke="green" stroke-miterlimit="10"/><path d="M210 321.36a1.14 1.14 0 1 1 0-2.282 1.14 1.14 0 1 1 0 2.281" fill-rule="evenodd" fill="#fff"/><path d="M210 321.36a1.14 1.14 0 1 1 0-2.282 1.14 1.14 0 1 1 0 2.281zm0 0" fill="none" stroke-width=".06" stroke-linecap="square" stroke-linejoin="bevel" stroke="#000" stroke-miterlimit="10"/><path d="M202.86 336.422a1.862 1.862 0 0 1 0-3.723 1.862 1.862 0 0 1 0 3.723" fill-rule="evenodd" fill="green"/><path d="M202.86 336.422a1.862 1.862 0 0 1 0-3.723 1.862 1.862 0 0 1 0 3.723zm0 0" fill="none" stroke-width=".12" stroke-linecap="round" stroke-linejoin="round" stroke="green" stroke-miterlimit="10"/><path d="M202.86 335.7a1.139 1.139 0 1 1 0-2.277 1.139 1.139 0 1 1 0 2.276" fill-rule="evenodd" fill="#fff"/><path d="M202.86 335.7a1.139 1.139 0 1 1 0-2.277 1.139 1.139 0 1 1 0 2.276zm0 0" fill="none" stroke-width=".06" stroke-linecap="square" stroke-linejoin="bevel" stroke="#000" stroke-miterlimit="10"/><path d="M231.602 336.422a1.865 1.865 0 0 1-1.864-1.863 1.862 1.862 0 1 1 1.864 1.863" fill-rule="evenodd" fill="green"/><path d="M231.602 336.422a1.865 1.865 0 0 1-1.864-1.863 1.862 1.862 0 1 1 1.864 1.863zm0 0" fill="none" stroke-width=".12" stroke-linecap="round" stroke-linejoin="round" stroke="green" stroke-miterlimit="10"/><path d="M231.602 335.7a1.14 1.14 0 1 1-.003-2.28 1.14 1.14 0 0 1 .003 2.28" fill-rule="evenodd" fill="#fff"/><path d="M231.602 335.7a1.14 1.14 0 1 1-.003-2.28 1.14 1.14 0 0 1 .003 2.28zm0 0" fill="none" stroke-width=".06" stroke-linecap="square" stroke-linejoin="bevel" stroke="#000" stroke-miterlimit="10"/><path d="M195.66 291.36v-7.2M195.66 276.96v7.2M202.86 305.762v-14.403M202.86 312.96H210M210 312.96v7.2M202.86 305.762v7.199M195.66 327.3h-7.2M188.46 262.621v14.34M188.46 276.96v50.34M210 305.762h21.602M231.602 305.762v-43.14M231.602 312.96v-7.198M210 262.621v21.54M210 291.36v-7.2M210 284.16h-7.14M210 291.36h7.2M195.66 320.16h7.2M202.86 320.16v7.14M231.602 320.16h-7.204M231.602 320.16v7.14M231.602 327.3v7.2M195.66 334.5h7.2" fill="none" stroke-width="3.6" stroke-linecap="round" stroke-linejoin="round" stroke="navy" stroke-miterlimit="10"/><path d="M195.66 286.078a1.859 1.859 0 1 1-.001-3.717 1.859 1.859 0 0 1 .001 3.717" fill-rule="evenodd" fill="green"/><path d="M195.66 286.078a1.859 1.859 0 1 1-.001-3.718 1.859 1.859 0 0 1 .001 3.718zm0 0" fill="none" stroke-width=".12" stroke-linecap="round" stroke-linejoin="round" stroke="green" stroke-miterlimit="10"/><path d="M195.66 285.36a1.14 1.14 0 1 1 0-2.282 1.14 1.14 0 1 1 0 2.281" fill-rule="evenodd" fill="#fff"/><path d="M195.66 285.36a1.14 1.14 0 1 1 0-2.282 1.14 1.14 0 1 1 0 2.281zm0 0" fill="none" stroke-width=".06" stroke-linecap="square" stroke-linejoin="bevel" stroke="#000" stroke-miterlimit="10"/><path d="M202.86 286.078a1.859 1.859 0 1 1-.002-3.717 1.859 1.859 0 0 1 .001 3.717" fill-rule="evenodd" fill="green"/><path d="M202.86 286.078a1.859 1.859 0 1 1-.002-3.718 1.859 1.859 0 0 1 .001 3.718zm0 0" fill="none" stroke-width=".12" stroke-linecap="round" stroke-linejoin="round" stroke="green" stroke-miterlimit="10"/><path d="M202.86 285.36a1.14 1.14 0 1 1 0-2.282 1.14 1.14 0 1 1 0 2.281" fill-rule="evenodd" fill="#fff"/><path d="M202.86 285.36a1.14 1.14 0 1 1 0-2.282 1.14 1.14 0 1 1 0 2.281zm0 0" fill="none" stroke-width=".06" stroke-linecap="square" stroke-linejoin="bevel" stroke="#000" stroke-miterlimit="10"/><path d="M202.86 307.68a1.859 1.859 0 1 1-.002-3.718 1.859 1.859 0 0 1 .001 3.718" fill-rule="evenodd" fill="green"/><path d="M202.86 307.68a1.859 1.859 0 1 1-.002-3.718 1.859 1.859 0 0 1 .001 3.718zm0 0" fill="none" stroke-width=".12" stroke-linecap="round" stroke-linejoin="round" stroke="green" stroke-miterlimit="10"/><path d="M202.86 306.96c-.63 0-1.141-.51-1.141-1.14 0-.629.511-1.14 1.14-1.14.63 0 1.141.511 1.141 1.14 0 .63-.512 1.14-1.14 1.14" fill-rule="evenodd" fill="#fff"/><path d="M202.86 306.96c-.63 0-1.141-.51-1.141-1.14 0-.629.511-1.14 1.14-1.14.63 0 1.141.511 1.141 1.14 0 .63-.512 1.14-1.14 1.14zm0 0" fill="none" stroke-width=".06" stroke-linecap="square" stroke-linejoin="bevel" stroke="#000" stroke-miterlimit="10"/><path d="M210 307.68a1.859 1.859 0 1 1-.001-3.718 1.859 1.859 0 0 1 .001 3.718" fill-rule="evenodd" fill="green"/><path d="M210 307.68a1.859 1.859 0 1 1-.001-3.718 1.859 1.859 0 0 1 .001 3.718zm0 0" fill="none" stroke-width=".12" stroke-linecap="round" stroke-linejoin="round" stroke="green" stroke-miterlimit="10"/><path d="M210 306.96c-.629 0-1.14-.51-1.14-1.14 0-.629.511-1.14 1.14-1.14.629 0 1.14.511 1.14 1.14 0 .63-.511 1.14-1.14 1.14" fill-rule="evenodd" fill="#fff"/><path d="M210 306.96c-.629 0-1.14-.51-1.14-1.14 0-.629.511-1.14 1.14-1.14.629 0 1.14.511 1.14 1.14 0 .63-.511 1.14-1.14 1.14zm0 0" fill="none" stroke-width=".06" stroke-linecap="square" stroke-linejoin="bevel" stroke="#000" stroke-miterlimit="10"/><path d="M202.86 329.219a1.859 1.859 0 1 1-.002-3.718 1.859 1.859 0 0 1 .001 3.718" fill-rule="evenodd" fill="green"/><path d="M202.86 329.219a1.859 1.859 0 1 1-.002-3.718 1.859 1.859 0 0 1 .001 3.718zm0 0" fill="none" stroke-width=".12" stroke-linecap="round" stroke-linejoin="round" stroke="green" stroke-miterlimit="10"/><path d="M202.86 328.5c-.63 0-1.141-.512-1.141-1.14 0-.63.511-1.141 1.14-1.141.63 0 1.141.511 1.141 1.14 0 .63-.512 1.141-1.14 1.141" fill-rule="evenodd" fill="#fff"/><path d="M202.86 328.5c-.63 0-1.141-.512-1.141-1.14 0-.63.511-1.141 1.14-1.141.63 0 1.141.511 1.141 1.14 0 .63-.512 1.141-1.14 1.141zm0 0" fill="none" stroke-width=".06" stroke-linecap="square" stroke-linejoin="bevel" stroke="#000" stroke-miterlimit="10"/><path d="M231.602 329.219a1.862 1.862 0 0 1-1.864-1.86 1.862 1.862 0 0 1 3.723 0c0 1.028-.832 1.86-1.86 1.86" fill-rule="evenodd" fill="green"/><path d="M231.602 329.219a1.862 1.862 0 0 1-1.864-1.86 1.862 1.862 0 0 1 3.723 0c0 1.028-.832 1.86-1.86 1.86zm0 0" fill="none" stroke-width=".12" stroke-linecap="round" stroke-linejoin="round" stroke="green" stroke-miterlimit="10"/><path d="M231.602 328.5a1.14 1.14 0 1 1-.003-2.279 1.14 1.14 0 0 1 .003 2.279" fill-rule="evenodd" fill="#fff"/><path d="M231.602 328.5a1.14 1.14 0 1 1-.003-2.279 1.14 1.14 0 0 1 .003 2.279zm0 0" fill="none" stroke-width=".06" stroke-linecap="square" stroke-linejoin="bevel" stroke="#000" stroke-miterlimit="10"/><path d="M231.602 314.879a1.862 1.862 0 0 1-1.864-1.86 1.862 1.862 0 0 1 3.723 0c0 1.028-.832 1.86-1.86 1.86" fill-rule="evenodd" fill="green"/><path d="M231.602 314.879a1.862 1.862 0 0 1-1.864-1.86 1.862 1.862 0 0 1 3.723 0c0 1.028-.832 1.86-1.86 1.86zm0 0" fill="none" stroke-width=".12" stroke-linecap="round" stroke-linejoin="round" stroke="green" stroke-miterlimit="10"/><path d="M231.602 314.16a1.14 1.14 0 1 1-.003-2.279 1.14 1.14 0 0 1 .003 2.28" fill-rule="evenodd" fill="#fff"/><path d="M231.602 314.16a1.14 1.14 0 1 1-.003-2.279 1.14 1.14 0 0 1 .003 2.28zm0 0" fill="none" stroke-width=".06" stroke-linecap="square" stroke-linejoin="bevel" stroke="#000" stroke-miterlimit="10"/><path d="M202.86 314.879a1.859 1.859 0 1 1-.002-3.718 1.859 1.859 0 0 1 .001 3.718" fill-rule="evenodd" fill="green"/><path d="M202.86 314.879a1.859 1.859 0 1 1-.002-3.718 1.859 1.859 0 0 1 .001 3.718zm0 0" fill="none" stroke-width=".12" stroke-linecap="round" stroke-linejoin="round" stroke="green" stroke-miterlimit="10"/><path d="M202.86 314.16c-.63 0-1.141-.512-1.141-1.14 0-.63.511-1.141 1.14-1.141.63 0 1.141.512 1.141 1.14 0 .63-.512 1.141-1.14 1.141" fill-rule="evenodd" fill="#fff"/><path d="M202.86 314.16c-.63 0-1.141-.512-1.141-1.14 0-.63.511-1.141 1.14-1.141.63 0 1.141.512 1.141 1.14 0 .63-.512 1.141-1.14 1.141zm0 0" fill="none" stroke-width=".06" stroke-linecap="square" stroke-linejoin="bevel" stroke="#000" stroke-miterlimit="10"/><path d="M216.238 303.422l-1.379 1.379v1.918l1.38 1.383h1.921l1.38-1.383V304.8l-1.38-1.38h-1.922" fill="green"/><path d="M216.238 303.422l-1.379 1.379v1.918l1.38 1.383h1.921l1.38-1.383V304.8l-1.38-1.38zm0 0" fill="none" stroke-width=".12" stroke-linecap="round" stroke-linejoin="round" stroke="green" stroke-miterlimit="10"/><path d="M217.2 307.379a1.558 1.558 0 1 1 0-3.117 1.559 1.559 0 0 1 0 3.117" fill-rule="evenodd" fill="#fff"/><path d="M217.2 307.379a1.558 1.558 0 1 1 0-3.117 1.559 1.559 0 0 1 0 3.117zm0 0" fill="none" stroke-width=".06" stroke-linecap="square" stroke-linejoin="bevel" stroke="#000" stroke-miterlimit="10"/><path d="M216.238 289.02l-1.379 1.378v1.922l1.38 1.38h1.921l1.38-1.38v-1.922l-1.38-1.378h-1.922" fill="green"/><path d="M216.238 289.02l-1.379 1.378v1.922l1.38 1.38h1.921l1.38-1.38v-1.922l-1.38-1.378zm0 0" fill="none" stroke-width=".12" stroke-linecap="round" stroke-linejoin="round" stroke="green" stroke-miterlimit="10"/><path d="M217.2 292.98a1.56 1.56 0 1 1 .003-3.12 1.56 1.56 0 0 1-.004 3.12" fill-rule="evenodd" fill="#fff"/><path d="M217.2 292.98a1.56 1.56 0 1 1 .003-3.12 1.56 1.56 0 0 1-.004 3.12zm0 0" fill="none" stroke-width=".06" stroke-linecap="square" stroke-linejoin="bevel" stroke="#000" stroke-miterlimit="10"/><path d="M230.64 289.02l-1.378 1.378v1.922l1.379 1.38h1.918l1.382-1.38v-1.922l-1.382-1.378h-1.918" fill="green"/><path d="M230.64 289.02l-1.378 1.378v1.922l1.379 1.38h1.918l1.382-1.38v-1.922l-1.382-1.378zm0 0" fill="none" stroke-width=".12" stroke-linecap="round" stroke-linejoin="round" stroke="green" stroke-miterlimit="10"/><path d="M231.602 292.98a1.561 1.561 0 1 1-.003-3.122 1.561 1.561 0 0 1 .003 3.122" fill-rule="evenodd" fill="#fff"/><path d="M231.602 292.98a1.561 1.561 0 1 1-.003-3.122 1.561 1.561 0 0 1 .003 3.122zm0 0" fill="none" stroke-width=".06" stroke-linecap="square" stroke-linejoin="bevel" stroke="#000" stroke-miterlimit="10"/><path d="M195.66 278.879a1.859 1.859 0 1 1-.001-3.718 1.859 1.859 0 0 1 .001 3.718" fill-rule="evenodd" fill="green"/><path d="M195.66 278.879a1.859 1.859 0 1 1-.001-3.718 1.859 1.859 0 0 1 .001 3.718zm0 0" fill="none" stroke-width=".12" stroke-linecap="round" stroke-linejoin="round" stroke="green" stroke-miterlimit="10"/><path d="M195.66 278.16c-.629 0-1.14-.512-1.14-1.14 0-.63.511-1.141 1.14-1.141.63 0 1.14.512 1.14 1.14 0 .63-.51 1.141-1.14 1.141" fill-rule="evenodd" fill="#fff"/><path d="M195.66 278.16c-.629 0-1.14-.512-1.14-1.14 0-.63.511-1.141 1.14-1.141.63 0 1.14.512 1.14 1.14 0 .63-.51 1.141-1.14 1.141zm0 0" fill="none" stroke-width=".06" stroke-linecap="square" stroke-linejoin="bevel" stroke="#000" stroke-miterlimit="10"/><path d="M188.46 278.879a1.859 1.859 0 1 1 0-3.718 1.859 1.859 0 0 1 0 3.718" fill-rule="evenodd" fill="green"/><path d="M188.46 278.879a1.859 1.859 0 1 1 0-3.718 1.859 1.859 0 0 1 0 3.718zm0 0" fill="none" stroke-width=".12" stroke-linecap="round" stroke-linejoin="round" stroke="green" stroke-miterlimit="10"/><path d="M188.46 278.16a1.14 1.14 0 1 1 0-2.281c.63 0 1.142.512 1.142 1.14 0 .63-.512 1.141-1.141 1.141" fill-rule="evenodd" fill="#fff"/><path d="M188.46 278.16a1.14 1.14 0 1 1 0-2.281c.63 0 1.142.512 1.142 1.14 0 .63-.512 1.141-1.141 1.141zm0 0" fill="none" stroke-width=".06" stroke-linecap="square" stroke-linejoin="bevel" stroke="#000" stroke-miterlimit="10"/><path d="M231.602 265.441a2.762 2.762 0 0 1-2.762-2.761 2.758 2.758 0 0 1 2.762-2.758 2.76 2.76 0 0 1 0 5.52" fill-rule="evenodd" fill="green"/><path d="M231.602 265.441a2.762 2.762 0 0 1-2.762-2.761 2.758 2.758 0 0 1 2.762-2.758 2.76 2.76 0 0 1 0 5.52zm0 0" fill="none" stroke-width=".12" stroke-linecap="round" stroke-linejoin="round" stroke="green" stroke-miterlimit="10"/><path d="M231.602 264.121a1.44 1.44 0 1 1-.003-2.88 1.44 1.44 0 0 1 .003 2.88" fill-rule="evenodd" fill="#fff"/><path d="M231.602 264.121a1.44 1.44 0 1 1-.003-2.88 1.44 1.44 0 0 1 .003 2.88zm0 0" fill="none" stroke-width=".06" stroke-linecap="square" stroke-linejoin="bevel" stroke="#000" stroke-miterlimit="10"/><path d="M188.46 265.441a2.764 2.764 0 0 1-2.76-2.761 2.76 2.76 0 0 1 5.519 0 2.76 2.76 0 0 1-2.758 2.761" fill-rule="evenodd" fill="green"/><path d="M188.46 265.441a2.764 2.764 0 0 1-2.76-2.761 2.76 2.76 0 0 1 5.519 0 2.76 2.76 0 0 1-2.758 2.761zm0 0" fill="none" stroke-width=".12" stroke-linecap="round" stroke-linejoin="round" stroke="green" stroke-miterlimit="10"/><path d="M188.46 264.121a1.44 1.44 0 1 1-.001-2.88 1.44 1.44 0 0 1 .002 2.88" fill-rule="evenodd" fill="#fff"/><path d="M188.46 264.121a1.44 1.44 0 1 1-.001-2.88 1.44 1.44 0 0 1 .002 2.88zm0 0" fill="none" stroke-width=".06" stroke-linecap="square" stroke-linejoin="bevel" stroke="#000" stroke-miterlimit="10"/><path d="M210 265.441a2.764 2.764 0 0 1-2.762-2.761 2.76 2.76 0 0 1 2.762-2.758 2.76 2.76 0 0 1 2.762 2.758A2.764 2.764 0 0 1 210 265.44" fill-rule="evenodd" fill="green"/><path d="M210 265.441a2.764 2.764 0 0 1-2.762-2.761 2.76 2.76 0 0 1 2.762-2.758 2.76 2.76 0 0 1 2.762 2.758A2.764 2.764 0 0 1 210 265.44zm0 0" fill="none" stroke-width=".12" stroke-linecap="round" stroke-linejoin="round" stroke="green" stroke-miterlimit="10"/><path d="M210 264.121a1.44 1.44 0 1 1-.002-2.88 1.44 1.44 0 0 1 .002 2.88" fill-rule="evenodd" fill="#fff"/><path d="M210 264.121a1.44 1.44 0 1 1-.002-2.88 1.44 1.44 0 0 1 .002 2.88zm0 0" fill="none" stroke-width=".06" stroke-linecap="square" stroke-linejoin="bevel" stroke="#000" stroke-miterlimit="10"/><path d="M209.219 289.5l-1.078 1.078v1.563l1.078 1.078h1.562l1.078-1.078v-1.563l-1.078-1.078h-1.562" fill="green"/><path d="M209.219 289.5l-1.078 1.078v1.563l1.078 1.078h1.562l1.078-1.078v-1.563l-1.078-1.078zm0 0" fill="none" stroke-width=".12" stroke-linecap="round" stroke-linejoin="round" stroke="green" stroke-miterlimit="10"/><path d="M210 292.559a1.139 1.139 0 1 1 0-2.278 1.14 1.14 0 1 1 0 2.278" fill-rule="evenodd" fill="#fff"/><path d="M210 292.559a1.139 1.139 0 1 1 0-2.278 1.14 1.14 0 1 1 0 2.278zm0 0" fill="none" stroke-width=".06" stroke-linecap="square" stroke-linejoin="bevel" stroke="#000" stroke-miterlimit="10"/><path d="M194.879 289.5l-1.078 1.078v1.563l1.078 1.078h1.562l1.079-1.078v-1.563l-1.079-1.078h-1.562" fill="green"/><path d="M194.879 289.5l-1.078 1.078v1.563l1.078 1.078h1.562l1.079-1.078v-1.563l-1.079-1.078zm0 0" fill="none" stroke-width=".12" stroke-linecap="round" stroke-linejoin="round" stroke="green" stroke-miterlimit="10"/><path d="M195.66 292.559a1.139 1.139 0 1 1 0-2.278 1.14 1.14 0 1 1 0 2.278" fill-rule="evenodd" fill="#fff"/><path d="M195.66 292.559a1.139 1.139 0 1 1 0-2.278 1.14 1.14 0 1 1 0 2.278zm0 0" fill="none" stroke-width=".06" stroke-linecap="square" stroke-linejoin="bevel" stroke="#000" stroke-miterlimit="10"/><path d="M202.078 289.5L201 290.578v1.563l1.078 1.078h1.563l1.078-1.078v-1.563l-1.078-1.078h-1.563" fill="green"/><path d="M202.078 289.5L201 290.578v1.563l1.078 1.078h1.563l1.078-1.078v-1.563l-1.078-1.078zm0 0" fill="none" stroke-width=".12" stroke-linecap="round" stroke-linejoin="round" stroke="green" stroke-miterlimit="10"/><path d="M202.86 292.559a1.139 1.139 0 1 1 0-2.278 1.14 1.14 0 1 1 0 2.278" fill-rule="evenodd" fill="#fff"/><path d="M202.86 292.559a1.139 1.139 0 1 1 0-2.278 1.14 1.14 0 1 1 0 2.278zm0 0" fill="none" stroke-width=".06" stroke-linecap="square" stroke-linejoin="bevel" stroke="#000" stroke-miterlimit="10"/><path d="M210 278.879a1.859 1.859 0 1 1-.001-3.718 1.859 1.859 0 0 1 .001 3.718" fill-rule="evenodd" fill="green"/><path d="M210 278.879a1.859 1.859 0 1 1-.001-3.718 1.859 1.859 0 0 1 .001 3.718zm0 0" fill="none" stroke-width=".12" stroke-linecap="round" stroke-linejoin="round" stroke="green" stroke-miterlimit="10"/><path d="M210 278.16c-.629 0-1.14-.512-1.14-1.14 0-.63.511-1.141 1.14-1.141.629 0 1.14.512 1.14 1.14 0 .63-.511 1.141-1.14 1.141" fill-rule="evenodd" fill="#fff"/><path d="M210 278.16c-.629 0-1.14-.512-1.14-1.14 0-.63.511-1.141 1.14-1.141.629 0 1.14.512 1.14 1.14 0 .63-.511 1.141-1.14 1.141zm0 0" fill="none" stroke-width=".06" stroke-linecap="square" stroke-linejoin="bevel" stroke="#000" stroke-miterlimit="10"/><path d="M231.602 278.879a1.862 1.862 0 0 1-1.864-1.86 1.862 1.862 0 0 1 3.723 0c0 1.028-.832 1.86-1.86 1.86" fill-rule="evenodd" fill="green"/><path d="M231.602 278.879a1.862 1.862 0 0 1-1.864-1.86 1.862 1.862 0 0 1 3.723 0c0 1.028-.832 1.86-1.86 1.86zm0 0" fill="none" stroke-width=".12" stroke-linecap="round" stroke-linejoin="round" stroke="green" stroke-miterlimit="10"/><path d="M231.602 278.16a1.14 1.14 0 1 1-.003-2.279 1.14 1.14 0 0 1 .003 2.28" fill-rule="evenodd" fill="#fff"/><path d="M231.602 278.16a1.14 1.14 0 1 1-.003-2.279 1.14 1.14 0 0 1 .003 2.28zm0 0" fill="none" stroke-width=".06" stroke-linecap="square" stroke-linejoin="bevel" stroke="#000" stroke-miterlimit="10"/><path d="M194.64 331.98l-1.5 1.5v2.04l1.5 1.5h2.04l1.5-1.5v-2.04l-1.5-1.5h-2.04" fill="green"/><path d="M194.64 331.98l-1.5 1.5v2.04l1.5 1.5h2.04l1.5-1.5v-2.04l-1.5-1.5zm0 0" fill="none" stroke-width=".12" stroke-linecap="round" stroke-linejoin="round" stroke="green" stroke-miterlimit="10"/><path d="M195.66 335.82a1.26 1.26 0 0 1 0-2.52 1.26 1.26 0 1 1 0 2.52" fill-rule="evenodd" fill="#fff"/><path d="M195.66 335.82a1.26 1.26 0 0 1 0-2.52 1.26 1.26 0 1 1 0 2.52zm0 0" fill="none" stroke-width=".06" stroke-linecap="square" stroke-linejoin="bevel" stroke="#000" stroke-miterlimit="10"/><path d="M194.64 324.781l-1.5 1.5v2.04l1.5 1.5h2.04l1.5-1.5v-2.04l-1.5-1.5h-2.04" fill="green"/><path d="M194.64 324.781l-1.5 1.5v2.04l1.5 1.5h2.04l1.5-1.5v-2.04l-1.5-1.5zm0 0" fill="none" stroke-width=".12" stroke-linecap="round" stroke-linejoin="round" stroke="green" stroke-miterlimit="10"/><path d="M195.66 328.621a1.26 1.26 0 0 1 0-2.52 1.26 1.26 0 1 1 0 2.52" fill-rule="evenodd" fill="#fff"/><path d="M195.66 328.621a1.26 1.26 0 0 1 0-2.52 1.26 1.26 0 1 1 0 2.52zm0 0" fill="none" stroke-width=".06" stroke-linecap="square" stroke-linejoin="bevel" stroke="#000" stroke-miterlimit="10"/><path d="M193.14 317.64v5.04h5.04v-5.04zm0 0" fill="green" stroke-width=".12" stroke-linecap="round" stroke-linejoin="round" stroke="green" stroke-miterlimit="10"/><path d="M195.66 321.48a1.26 1.26 0 0 1 0-2.52 1.26 1.26 0 1 1 0 2.52" fill-rule="evenodd" fill="#fff"/><path d="M195.66 321.48a1.26 1.26 0 0 1 0-2.52 1.26 1.26 0 1 1 0 2.52zm0 0" fill="none" stroke-width=".06" stroke-linecap="square" stroke-linejoin="bevel" stroke="#000" stroke-miterlimit="10"/><path d="M224.398 322.078a1.859 1.859 0 1 1 0-3.719c1.028 0 1.864.832 1.864 1.86 0 1.027-.836 1.86-1.864 1.86" fill-rule="evenodd" fill="green"/><path d="M224.398 322.078a1.859 1.859 0 1 1 0-3.719c1.028 0 1.864.832 1.864 1.86 0 1.027-.836 1.86-1.864 1.86zm0 0" fill="none" stroke-width=".12" stroke-linecap="round" stroke-linejoin="round" stroke="green" stroke-miterlimit="10"/><path d="M224.398 321.36a1.136 1.136 0 0 1-1.136-1.141 1.139 1.139 0 1 1 2.277 0c0 .633-.508 1.14-1.14 1.14" fill-rule="evenodd" fill="#fff"/><path d="M224.398 321.36a1.136 1.136 0 0 1-1.136-1.141 1.139 1.139 0 1 1 2.277 0c0 .633-.508 1.14-1.14 1.14zm0 0" fill="none" stroke-width=".06" stroke-linecap="square" stroke-linejoin="bevel" stroke="#000" stroke-miterlimit="10"/><path d="M210 322.078a1.859 1.859 0 1 1-.001-3.717 1.859 1.859 0 0 1 .001 3.717" fill-rule="evenodd" fill="green"/><path d="M210 322.078a1.859 1.859 0 1 1-.001-3.718 1.859 1.859 0 0 1 .001 3.718zm0 0" fill="none" stroke-width=".12" stroke-linecap="round" stroke-linejoin="round" stroke="green" stroke-miterlimit="10"/><path d="M210 321.36a1.14 1.14 0 1 1 0-2.282 1.14 1.14 0 1 1 0 2.281" fill-rule="evenodd" fill="#fff"/><path d="M210 321.36a1.14 1.14 0 1 1 0-2.282 1.14 1.14 0 1 1 0 2.281zm0 0" fill="none" stroke-width=".06" stroke-linecap="square" stroke-linejoin="bevel" stroke="#000" stroke-miterlimit="10"/><path d="M202.86 336.422a1.862 1.862 0 0 1 0-3.723 1.862 1.862 0 0 1 0 3.723" fill-rule="evenodd" fill="green"/><path d="M202.86 336.422a1.862 1.862 0 0 1 0-3.723 1.862 1.862 0 0 1 0 3.723zm0 0" fill="none" stroke-width=".12" stroke-linecap="round" stroke-linejoin="round" stroke="green" stroke-miterlimit="10"/><path d="M202.86 335.7a1.139 1.139 0 1 1 0-2.277 1.139 1.139 0 1 1 0 2.276" fill-rule="evenodd" fill="#fff"/><path d="M202.86 335.7a1.139 1.139 0 1 1 0-2.277 1.139 1.139 0 1 1 0 2.276zm0 0" fill="none" stroke-width=".06" stroke-linecap="square" stroke-linejoin="bevel" stroke="#000" stroke-miterlimit="10"/><path d="M231.602 336.422a1.865 1.865 0 0 1-1.864-1.863 1.862 1.862 0 1 1 1.864 1.863" fill-rule="evenodd" fill="green"/><path d="M231.602 336.422a1.865 1.865 0 0 1-1.864-1.863 1.862 1.862 0 1 1 1.864 1.863zm0 0" fill="none" stroke-width=".12" stroke-linecap="round" stroke-linejoin="round" stroke="green" stroke-miterlimit="10"/><path d="M231.602 335.7a1.14 1.14 0 1 1-.003-2.28 1.14 1.14 0 0 1 .003 2.28" fill-rule="evenodd" fill="#fff"/><path d="M231.602 335.7a1.14 1.14 0 1 1-.003-2.28 1.14 1.14 0 0 1 .003 2.28zm0 0" fill="none" stroke-width=".06" stroke-linecap="square" stroke-linejoin="bevel" stroke="#000" stroke-miterlimit="10"/><path d="M231.602 291.36v-14.4M231.602 262.621v14.34M210 262.621v14.34" fill="none" stroke-width=".12" stroke-linecap="round" stroke-linejoin="round" stroke="olive" stroke-miterlimit="10"/><path d="M181.262 255.422v86.277M181.262 341.7H238.8M238.8 341.7v-86.278M238.8 255.422h-57.538" fill="none" stroke-width=".12" stroke-linecap="round" stroke-linejoin="round" stroke="#000" stroke-miterlimit="10"/></svg>