<svg xmlns="http://www.w3.org/2000/svg" xmlns:xlink="http://www.w3.org/1999/xlink" width="560" height="595pt" viewBox="0 0 420 595"><defs><symbol overflow="visible" id="a"><path d="M1.688-.813h-.282V0H1.11v-.813H.063v-.328l1.046-1.203h.297v1.281h.282zm-.579-.25v-.921l-.796.921zm0 0"/></symbol><symbol overflow="visible" id="b"><path d="M.672 0H.297v-.453h.375zm0 0"/></symbol><symbol overflow="visible" id="c"><path d="M1.656-2L.625 0H.297l1.078-2.078H.156v-.266h1.5zm0 0"/></symbol><symbol overflow="visible" id="d"><path d="M1.688-.922c0 .293-.07.524-.204.688a.663.663 0 0 1-.53.265.791.791 0 0 1-.438-.125v.75H.219v-2.422h.297v.188c.07-.063.156-.117.25-.172a.647.647 0 0 1 .28-.063.57.57 0 0 1 .485.235c.102.168.157.387.157.656zM1.39-.89c0-.207-.032-.363-.094-.468a.356.356 0 0 0-.313-.172.515.515 0 0 0-.25.062.798.798 0 0 0-.218.14v1c.07.044.14.071.203.079.05.012.113.016.187.016a.438.438 0 0 0 .36-.172c.082-.102.125-.266.125-.485zm0 0"/></symbol><symbol overflow="visible" id="e"><path d="M1.64-2.078H.548v.672h1.047v.281H.547V0H.234v-2.344h1.407zm0 0"/></symbol><symbol overflow="visible" id="f"><path d="M0 1.125v-.86h.172v.313h1.172V.266h.172a.61.61 0 0 0 .046.265c.032.051.094.082.188.094v.188H.172v.312zm0 0"/></symbol><symbol overflow="visible" id="g"><path d="M0 1.188v-.22h.922a.419.419 0 0 0 .125-.046.1.1 0 0 0 .062-.063.337.337 0 0 0 .032-.14.38.38 0 0 0-.047-.172c-.032-.055-.07-.11-.11-.172H0V.156h1.313v.219h-.141c.05.07.094.14.125.203a.444.444 0 0 1 .047.203.38.38 0 0 1-.125.297.548.548 0 0 1-.36.11zm0 0"/></symbol><symbol overflow="visible" id="h"><path d="M1.547 1.219V.406h-.5v.781H.844v-.78H0V.171h1.75v1.047zm0 0"/></symbol><symbol overflow="visible" id="i"><path d="M1.25-.61h-.203V0H.813v-.61H.046v-.234l.781-.906h.219v.953h.203zM.812-.796v-.672l-.578.672zm0 0"/></symbol><symbol overflow="visible" id="j"><path d="M.5 0H.219v-.328H.5zm0 0"/></symbol><symbol overflow="visible" id="k"><path d="M1.234-1.484L.47 0H.22l.797-1.547H.109v-.203h1.125zm0 0"/></symbol><symbol overflow="visible" id="l"><path d="M1.25 0H.953L.47-.64l-.094.093V0h-.22v-1.828h.219v1.062l.531-.546h.266L.64-.766zm0 0"/></symbol><symbol overflow="visible" id="m"><path d="M.594-1.578a.644.644 0 0 0-.125.016 1.946 1.946 0 0 1-.125.03.264.264 0 0 1-.094.048.369.369 0 0 1-.078.046H.156v-.234a.817.817 0 0 1 .219-.078c.082-.02.164-.031.25-.031.07 0 .14.008.203.015a.648.648 0 0 1 .156.079.6.6 0 0 1 .125.14c.02.055.032.117.032.188 0 .093-.032.18-.094.25a.407.407 0 0 1-.234.14v.016c.039.012.082.023.125.031.039.024.082.047.125.078a.428.428 0 0 1 .078.125.6.6 0 0 1 .03.203.822.822 0 0 1-.03.22A.668.668 0 0 1 .844 0a.972.972 0 0 1-.25.031 1.151 1.151 0 0 1-.485-.11v-.233h.016c.05.03.117.062.203.093a.692.692 0 0 0 .39.032.36.36 0 0 0 .204-.188.806.806 0 0 0 .015-.156.37.37 0 0 0-.03-.156.166.166 0 0 0-.079-.094.258.258 0 0 0-.11-.063h-.25v-.203h.079a.436.436 0 0 0 .265-.078.267.267 0 0 0 .063-.328.17.17 0 0 0-.063-.078.525.525 0 0 0-.093-.047H.594zm0 0"/></symbol><symbol overflow="visible" id="n"><path d="M0 .234h2.344v1.47h-.266V.546h-.656v1.078h-.266V.547H.281v1.156H0zm0 0"/></symbol><symbol overflow="visible" id="o"><path d="M-.047 1.156C-.047 1-.02.86.031.734A.724.724 0 0 1 .266.406 1.04 1.04 0 0 1 .64.187 1.6 1.6 0 0 1 1.17.11c.196 0 .368.024.516.079.145.039.274.109.391.203.102.093.18.207.235.343.05.125.078.266.078.422 0 .082-.008.16-.016.235a1.644 1.644 0 0 1-.047.187 1.36 1.36 0 0 1-.047.156l-.094.157h-.374V1.86a.388.388 0 0 0 .093-.109.69.69 0 0 0 .11-.156c.03-.055.054-.117.078-.188a.972.972 0 0 0 .031-.25.702.702 0 0 0-.234-.516.738.738 0 0 0-.313-.156 1.168 1.168 0 0 0-.406-.062c-.156 0-.293.02-.406.062a.815.815 0 0 0-.297.157.655.655 0 0 0-.188.234.885.885 0 0 0-.047.281c0 .094.008.176.032.25a.76.76 0 0 0 .078.203.586.586 0 0 0 .11.157 1 1 0 0 0 .077.093v.032H.156a2.534 2.534 0 0 0-.062-.142 1.758 1.758 0 0 1-.063-.172 1.16 1.16 0 0 1-.062-.187 1.847 1.847 0 0 1-.016-.235zm0 0"/></symbol><symbol overflow="visible" id="p"><path d="M0 2.25v-.313h2.031l-1.39-.609v-.187L2.03.53H0V.234h2.344v.438l-1.297.578 1.297.563v.437zm0 0"/></symbol><symbol overflow="visible" id="q"><path d="M.89 1.031v-.89h.282v.89zm0 0"/></symbol><symbol overflow="visible" id="r"><path d="M.813 1.688v-.282H0V1.11h.813V.063h.328l1.203 1.046v.297H1.063v.282zm.25-.579h.921L1.063.313zm0 0"/></symbol><symbol overflow="visible" id="N"><path d="M0 1.5V.36h.234v.42h1.579V.36h.218c0 .157.02.274.063.36.05.07.14.113.265.125v.25H.234V1.5zm0 0"/></symbol><symbol overflow="visible" id="O"><path d="M0 1.594v-.297h.203a1.115 1.115 0 0 1-.187-.266.674.674 0 0 1-.032-.484A.527.527 0 0 1 .11.359.38.38 0 0 1 .313.25.893.893 0 0 1 .625.203h1.14V.5h-1C.673.5.595.504.532.516A.325.325 0 0 0 .36.562a.183.183 0 0 0-.093.094.346.346 0 0 0-.032.172c0 .07.02.149.063.235.039.082.094.16.156.234h1.313v.297zm0 0"/></symbol><symbol overflow="visible" id="P"><path d="M0 1.953v-.312h1.156V.547H0V.234h2.344v.313h-.922V1.64h.922v.312zm0 0"/></symbol><symbol overflow="visible" id="s"><path d="M1.5 0H.36v-.234h.42v-1.579H.36v-.218c.157 0 .274-.02.36-.063.07-.05.113-.14.125-.265h.25v2.125H1.5zm0 0"/></symbol><symbol overflow="visible" id="t"><path d="M.672 0H.297v-.453h.375zm0 0"/></symbol><symbol overflow="visible" id="u"><path d="M1.656-.766a.961.961 0 0 1-.062.344.528.528 0 0 1-.157.25.666.666 0 0 1-.234.156A.786.786 0 0 1 .625 0a.756.756 0 0 1-.234-.172A.713.713 0 0 1 .203-.5a1.887 1.887 0 0 1-.062-.531 1.53 1.53 0 0 1 .062-.563 1.29 1.29 0 0 1 .188-.422.966.966 0 0 1 .328-.28c.133-.063.289-.095.469-.095h.156c.039.012.078.024.11.032v.296h-.016c-.024-.007-.063-.023-.125-.046a1.17 1.17 0 0 0-.172-.016.62.62 0 0 0-.47.203c-.124.125-.198.32-.218.578a.716.716 0 0 1 .234-.11.745.745 0 0 1 .266-.046c.082 0 .16.012.235.031a.88.88 0 0 1 .218.11.605.605 0 0 1 .188.25.9.9 0 0 1 .062.343zm-.312.016A.634.634 0 0 0 1.297-1a.32.32 0 0 0-.125-.156c-.043-.032-.086-.055-.125-.078C.984-1.242.926-1.25.875-1.25a.538.538 0 0 0-.219.047 1.527 1.527 0 0 0-.203.094v.14c0 .168.016.305.047.406.031.094.07.168.125.22a.29.29 0 0 0 .14.109.31.31 0 0 0 .157.03.358.358 0 0 0 .297-.14c.082-.094.125-.226.125-.406zm0 0"/></symbol><symbol overflow="visible" id="v"><path d="M1.031-.89h-.89v-.282h.89zm0 0"/></symbol><symbol overflow="visible" id="w"><path d="M1.594-.75a.973.973 0 0 1-.047.313.74.74 0 0 1-.156.25.61.61 0 0 1-.25.171.847.847 0 0 1-.329.063A1.8 1.8 0 0 1 .484.016a1.954 1.954 0 0 1-.28-.094v-.344h.015a.25.25 0 0 0 .11.063.74.74 0 0 0 .14.062.73.73 0 0 0 .172.047.41.41 0 0 0 .171.031A.416.416 0 0 0 1-.266a.31.31 0 0 0 .156-.109c.04-.04.07-.094.094-.156a.72.72 0 0 0 0-.422.967.967 0 0 0-.11-.14.648.648 0 0 0-.156-.079.917.917 0 0 0-.234-.031c-.086 0-.168.012-.25.031-.086.012-.152.024-.203.031v-1.203h1.281v.266H.594v.625h.11a.32.32 0 0 0 .109-.016c.113 0 .21.012.296.032a.788.788 0 0 1 .25.125c.07.054.13.125.172.218.04.086.063.2.063.344zm0 0"/></symbol><symbol overflow="visible" id="x"><path d="M1.688-.922c0 .293-.07.524-.204.688a.663.663 0 0 1-.53.265.791.791 0 0 1-.438-.125v.75H.219v-2.422h.297v.188c.07-.063.156-.117.25-.172a.647.647 0 0 1 .28-.063.57.57 0 0 1 .485.235c.102.168.157.387.157.656zM1.39-.89c0-.207-.032-.363-.094-.468a.356.356 0 0 0-.313-.172.515.515 0 0 0-.25.062.798.798 0 0 0-.218.14v1c.07.044.14.071.203.079.05.012.113.016.187.016a.438.438 0 0 0 .36-.172c.082-.102.125-.266.125-.485zm0 0"/></symbol><symbol overflow="visible" id="y"><path d="M1.64-2.078H.548v.672h1.047v.281H.547V0H.234v-2.344h1.407zm0 0"/></symbol><symbol overflow="visible" id="J"><path d="M1.828-.719a.796.796 0 0 1-.062.313.724.724 0 0 1-.172.219 1.164 1.164 0 0 1-.297.14A1.296 1.296 0 0 1 .907 0H.233v-2.344H.86c.164 0 .29.008.375.016a.92.92 0 0 1 .25.078.472.472 0 0 1 .188.172.634.634 0 0 1 .047.25.55.55 0 0 1-.078.297.644.644 0 0 1-.25.218.707.707 0 0 1 .328.22.61.61 0 0 1 .11.374zM1.391-1.78a.774.774 0 0 0-.016-.14.27.27 0 0 0-.094-.095.534.534 0 0 0-.172-.062H.547v.687h.36c.093 0 .163-.004.218-.015a.52.52 0 0 0 .14-.063.262.262 0 0 0 .11-.125c.008-.05.016-.113.016-.187zm.125 1.078a.433.433 0 0 0-.047-.219c-.024-.062-.074-.113-.157-.156a.676.676 0 0 0-.156-.047 2.019 2.019 0 0 0-.25-.016h-.36v.875h.266c.133 0 .239-.004.313-.015.082-.02.156-.047.219-.078A.477.477 0 0 0 1.469-.5a.924.924 0 0 0 .047-.203zm0 0"/></symbol><symbol overflow="visible" id="K"><path d="M1.156.047C1 .047.86.02.734-.031a.724.724 0 0 1-.328-.235A1.045 1.045 0 0 1 .187-.64a1.6 1.6 0 0 1-.078-.53c0-.196.024-.368.079-.516a1.06 1.06 0 0 1 .203-.391.928.928 0 0 1 .343-.235c.125-.05.266-.078.422-.078.082 0 .16.008.235.016.062.012.125.027.187.047.05.012.102.027.156.047l.157.094v.374h-.032a.388.388 0 0 0-.109-.093.69.69 0 0 0-.156-.11 1.041 1.041 0 0 0-.188-.078.972.972 0 0 0-.25-.031.702.702 0 0 0-.516.234.738.738 0 0 0-.156.313c-.043.117-.062.25-.062.406 0 .156.02.293.062.406a.82.82 0 0 0 .157.297c.07.086.148.149.234.188a.885.885 0 0 0 .281.047.827.827 0 0 0 .25-.032.76.76 0 0 0 .203-.078.586.586 0 0 0 .157-.11 1 1 0 0 0 .093-.077h.032v.375a2.829 2.829 0 0 0-.141.062c-.055.024-.11.043-.172.063a1.16 1.16 0 0 1-.187.062 1.818 1.818 0 0 1-.235.016zm0 0"/></symbol><symbol overflow="visible" id="L"><path d="M1.688-.813h-.282V0H1.11v-.813H.063v-.328l1.046-1.203h.297v1.281h.282zm-.579-.25v-.921l-.796.921zm0 0"/></symbol><symbol overflow="visible" id="M"><path d="M1.656-2L.625 0H.297l1.078-2.078H.156v-.266h1.5zm0 0"/></symbol><symbol overflow="visible" id="z"><path d="M.61 1.25v-.203H0V.813h.61V.046h.234l.906.781v.219H.797v.203zM.796.812h.672L.797.235zm0 0"/></symbol><symbol overflow="visible" id="A"><path d="M0 .5V.219h.328V.5zm0 0"/></symbol><symbol overflow="visible" id="B"><path d="M1.484 1.234L0 .47V.22l1.547.797V.109h.203v1.125zm0 0"/></symbol><symbol overflow="visible" id="C"><path d="M1.578.594a.644.644 0 0 0-.016-.125 1.946 1.946 0 0 1-.03-.125.264.264 0 0 1-.048-.094.369.369 0 0 1-.046-.078V.156h.234a.812.812 0 0 1 .078.219c.02.082.031.164.031.25 0 .07-.008.14-.015.203a.648.648 0 0 1-.079.156.6.6 0 0 1-.14.125.554.554 0 0 1-.188.032.369.369 0 0 1-.25-.094.407.407 0 0 1-.14-.234H.953a1.087 1.087 0 0 0-.031.125c-.024.039-.047.082-.078.125a.428.428 0 0 1-.125.078.6.6 0 0 1-.203.03.822.822 0 0 1-.22-.03A.668.668 0 0 1 0 .844a.972.972 0 0 1-.031-.25 1.151 1.151 0 0 1 .11-.485h.233v.016C.282.175.25.242.22.328a.692.692 0 0 0-.032.39.36.36 0 0 0 .188.204C.416.93.47.937.532.937a.37.37 0 0 0 .156-.03c.04-.012.07-.04.094-.079a.258.258 0 0 0 .063-.11v-.25h.203v.079c0 .101.023.191.078.265a.267.267 0 0 0 .328.063.17.17 0 0 0 .078-.063.525.525 0 0 0 .047-.093V.594zm0 0"/></symbol><symbol overflow="visible" id="D"><path d="M.875 1.219c-.313 0-.543-.047-.688-.14A.463.463 0 0 1-.03.655c0-.187.07-.328.218-.422C.333.14.564.093.876.093c.313 0 .54.047.688.14a.47.47 0 0 1 .218.422.47.47 0 0 1-.218.422c-.157.094-.387.14-.688.14zM.344.922c.05.02.125.035.219.047a3.248 3.248 0 0 0 .625 0 1.42 1.42 0 0 0 .218-.047.42.42 0 0 0 .14-.11.256.256 0 0 0 .048-.156A.248.248 0 0 0 1.547.5a.375.375 0 0 0-.14-.11.862.862 0 0 0-.22-.046H.875a1.379 1.379 0 0 0-.313 0A.827.827 0 0 0 .345.39.234.234 0 0 0 .204.5C.171.531.155.582.155.656c0 .063.016.114.047.156a.42.42 0 0 0 .14.11zm0 0"/></symbol><symbol overflow="visible" id="E"><path d="M0 1.188v-.22h.922a.419.419 0 0 0 .125-.046.1.1 0 0 0 .062-.063.337.337 0 0 0 .032-.14.38.38 0 0 0-.047-.172c-.032-.055-.07-.11-.11-.172H0V.156h1.313v.219h-.141c.05.07.094.14.125.203a.444.444 0 0 1 .047.203.38.38 0 0 1-.125.297.548.548 0 0 1-.36.11zm0 0"/></symbol><symbol overflow="visible" id="F"><path d="M1.547 1.219V.406h-.5v.781H.844v-.78H0V.171h1.75v1.047zm0 0"/></symbol><symbol overflow="visible" id="G"><path d="M1.203 0H.125v-.25a3.918 3.918 0 0 0 .422-.422C.68-.816.773-.93.828-1.016a.732.732 0 0 0 .063-.28.712.712 0 0 0-.016-.126 1.302 1.302 0 0 1-.063-.094.525.525 0 0 0-.093-.046C.676-1.57.633-1.579.594-1.579a.644.644 0 0 0-.125.016 1.946 1.946 0 0 1-.125.03.264.264 0 0 1-.094.048.369.369 0 0 1-.078.046v-.25c.039-.019.11-.039.203-.062a.992.992 0 0 1 .234-.031.58.58 0 0 1 .391.125.46.46 0 0 1 .14.36.629.629 0 0 1-.03.187.486.486 0 0 1-.063.156 1.578 1.578 0 0 1-.234.297 2.516 2.516 0 0 1-.25.25c-.094.086-.168.152-.22.203h.86zm0 0"/></symbol><symbol overflow="visible" id="H"><path d="M1.188 0h-.22V-.922a.419.419 0 0 0-.046-.125.1.1 0 0 0-.063-.062.337.337 0 0 0-.14-.032.38.38 0 0 0-.172.047c-.055.032-.11.07-.172.11V0H.156v-1.313h.219v.141c.07-.05.14-.094.203-.125a.444.444 0 0 1 .203-.047.38.38 0 0 1 .297.125.55.55 0 0 1 .11.36zm0 0"/></symbol><symbol overflow="visible" id="I"><path d="M1.219-1.547H.406v.5h.781v.203h-.78V0H.171v-1.75h1.047zm0 0"/></symbol></defs><path d="M188.46 315.422v-7.203m0 0h7.2m7.2-14.399v14.399m-7.2-14.399h7.2m0 0H210m0 0v-7.14m-7.14-14.399v7.2m0-.001H210m-14.34 21.54h-7.2m0 0v-14.34m0 0v-7.2m0 0h7.2m-7.2 0v-7.199m7.2 7.199v-7.199m21.54 21.539h14.402m0 0v-7.14M210 301.02h7.2m0 0v-7.2m14.402-14.34v7.2m0 7.14v14.399m0 14.402V308.22m0-21.54v-14.4m-28.742 50.341v-7.2m0 .001H210m0-7.203v7.203m0 0h-7.14m7.14-7.203h7.2m-7.2 0v7.203" fill="none" stroke-width="3.6" stroke-linecap="round" stroke-linejoin="round" stroke="navy" stroke-miterlimit="10"/><path d="M188.46 317.281a1.861 1.861 0 0 1 0-3.722 1.862 1.862 0 0 1 0 3.722" fill-rule="evenodd" fill="green"/><path d="M188.46 317.281a1.861 1.861 0 0 1 0-3.722 1.862 1.862 0 0 1 0 3.722zm0 0" fill="none" stroke-width=".12" stroke-linecap="round" stroke-linejoin="round" stroke="green" stroke-miterlimit="10"/><path d="M188.46 316.559c-.632 0-1.14-.508-1.14-1.137 0-.633.508-1.14 1.14-1.14a1.14 1.14 0 1 1 0 2.277" fill-rule="evenodd" fill="#fff"/><path d="M188.46 316.559c-.632 0-1.14-.508-1.14-1.137 0-.633.508-1.14 1.14-1.14a1.14 1.14 0 1 1 0 2.277zm0 0" fill="none" stroke-width=".06" stroke-linecap="square" stroke-linejoin="bevel" stroke="#000" stroke-miterlimit="10"/><path d="M202.86 317.281a1.861 1.861 0 0 1 0-3.722 1.862 1.862 0 0 1 0 3.722" fill-rule="evenodd" fill="green"/><path d="M202.86 317.281a1.861 1.861 0 0 1 0-3.722 1.862 1.862 0 0 1 0 3.722zm0 0" fill="none" stroke-width=".12" stroke-linecap="round" stroke-linejoin="round" stroke="green" stroke-miterlimit="10"/><path d="M202.86 316.559a1.139 1.139 0 1 1 0-2.278 1.14 1.14 0 1 1 0 2.278" fill-rule="evenodd" fill="#fff"/><path d="M202.86 316.559a1.139 1.139 0 1 1 0-2.278 1.14 1.14 0 1 1 0 2.278zm0 0" fill="none" stroke-width=".06" stroke-linecap="square" stroke-linejoin="bevel" stroke="#000" stroke-miterlimit="10"/><path d="M195.66 281.34a1.859 1.859 0 1 1-.001-3.718 1.859 1.859 0 0 1 .001 3.718" fill-rule="evenodd" fill="green"/><path d="M195.66 281.34a1.859 1.859 0 1 1-.001-3.718 1.859 1.859 0 0 1 .001 3.718zm0 0" fill="none" stroke-width=".12" stroke-linecap="round" stroke-linejoin="round" stroke="green" stroke-miterlimit="10"/><path d="M195.66 280.621a1.141 1.141 0 0 1 0-2.281 1.14 1.14 0 0 1 0 2.281" fill-rule="evenodd" fill="#fff"/><path d="M195.66 280.621a1.141 1.141 0 0 1 0-2.281 1.14 1.14 0 0 1 0 2.281zm0 0" fill="none" stroke-width=".06" stroke-linecap="square" stroke-linejoin="bevel" stroke="#000" stroke-miterlimit="10"/><path d="M195.66 295.68a1.859 1.859 0 1 1-.001-3.718 1.859 1.859 0 0 1 .001 3.718" fill-rule="evenodd" fill="green"/><path d="M195.66 295.68a1.859 1.859 0 1 1-.001-3.718 1.859 1.859 0 0 1 .001 3.718zm0 0" fill="none" stroke-width=".12" stroke-linecap="round" stroke-linejoin="round" stroke="green" stroke-miterlimit="10"/><path d="M195.66 294.96a1.14 1.14 0 1 1 0-2.28 1.14 1.14 0 0 1 0 2.28" fill-rule="evenodd" fill="#fff"/><path d="M195.66 294.96a1.14 1.14 0 1 1 0-2.28 1.14 1.14 0 0 1 0 2.28zm0 0" fill="none" stroke-width=".06" stroke-linecap="square" stroke-linejoin="bevel" stroke="#000" stroke-miterlimit="10"/><path d="M231.602 281.34a1.862 1.862 0 0 1-1.864-1.86 1.862 1.862 0 0 1 3.723 0c0 1.028-.832 1.86-1.86 1.86" fill-rule="evenodd" fill="green"/><path d="M231.602 281.34a1.862 1.862 0 0 1-1.864-1.86 1.862 1.862 0 0 1 3.723 0c0 1.028-.832 1.86-1.86 1.86zm0 0" fill="none" stroke-width=".12" stroke-linecap="round" stroke-linejoin="round" stroke="green" stroke-miterlimit="10"/><path d="M231.602 280.621a1.14 1.14 0 1 1-.003-2.279 1.14 1.14 0 0 1 .003 2.28" fill-rule="evenodd" fill="#fff"/><path d="M231.602 280.621a1.14 1.14 0 1 1-.003-2.279 1.14 1.14 0 0 1 .003 2.28zm0 0" fill="none" stroke-width=".06" stroke-linecap="square" stroke-linejoin="bevel" stroke="#000" stroke-miterlimit="10"/><path d="M210 281.34a1.859 1.859 0 1 1-.001-3.718 1.859 1.859 0 0 1 .001 3.718" fill-rule="evenodd" fill="green"/><path d="M210 281.34a1.859 1.859 0 1 1-.001-3.718 1.859 1.859 0 0 1 .001 3.718zm0 0" fill="none" stroke-width=".12" stroke-linecap="round" stroke-linejoin="round" stroke="green" stroke-miterlimit="10"/><path d="M210 280.621a1.141 1.141 0 0 1 0-2.281 1.141 1.141 0 0 1 0 2.281" fill-rule="evenodd" fill="#fff"/><path d="M210 280.621a1.141 1.141 0 0 1 0-2.281 1.141 1.141 0 0 1 0 2.281zm0 0" fill="none" stroke-width=".06" stroke-linecap="square" stroke-linejoin="bevel" stroke="#000" stroke-miterlimit="10"/><path d="M231.602 288.54a1.862 1.862 0 0 1-1.864-1.86 1.862 1.862 0 0 1 3.723 0 1.86 1.86 0 0 1-1.86 1.86" fill-rule="evenodd" fill="green"/><path d="M231.602 288.54a1.862 1.862 0 0 1-1.864-1.86 1.862 1.862 0 0 1 3.723 0 1.86 1.86 0 0 1-1.86 1.86zm0 0" fill="none" stroke-width=".12" stroke-linecap="round" stroke-linejoin="round" stroke="green" stroke-miterlimit="10"/><path d="M231.602 287.82a1.14 1.14 0 1 1-.003-2.279 1.14 1.14 0 0 1 .003 2.28" fill-rule="evenodd" fill="#fff"/><path d="M231.602 287.82a1.14 1.14 0 1 1-.003-2.279 1.14 1.14 0 0 1 .003 2.28zm0 0" fill="none" stroke-width=".06" stroke-linecap="square" stroke-linejoin="bevel" stroke="#000" stroke-miterlimit="10"/><path d="M210 288.54a1.859 1.859 0 1 1-.001-3.719 1.859 1.859 0 0 1 .001 3.718" fill-rule="evenodd" fill="green"/><path d="M210 288.54a1.859 1.859 0 1 1-.001-3.719 1.859 1.859 0 0 1 .001 3.718zm0 0" fill="none" stroke-width=".12" stroke-linecap="round" stroke-linejoin="round" stroke="green" stroke-miterlimit="10"/><path d="M210 287.82a1.14 1.14 0 1 1 .002-2.282 1.14 1.14 0 0 1-.002 2.282" fill-rule="evenodd" fill="#fff"/><path d="M210 287.82a1.14 1.14 0 1 1 .002-2.282 1.14 1.14 0 0 1-.002 2.282zm0 0" fill="none" stroke-width=".06" stroke-linecap="square" stroke-linejoin="bevel" stroke="#000" stroke-miterlimit="10"/><path d="M195.66 274.02c-.93 0-1.68-.778-1.68-1.739 0-.96.75-1.742 1.68-1.742.93 0 1.68.781 1.68 1.742s-.75 1.739-1.68 1.739" fill-rule="evenodd" fill="green"/><path d="M195.66 274.02c-.93 0-1.68-.778-1.68-1.739 0-.96.75-1.742 1.68-1.742.93 0 1.68.781 1.68 1.742s-.75 1.739-1.68 1.739zm0 0" fill="none" stroke-width=".12" stroke-linecap="round" stroke-linejoin="round" stroke="green" stroke-miterlimit="10"/><path d="M195.66 273.3a1.02 1.02 0 1 1 .002-2.04 1.02 1.02 0 0 1-.002 2.04" fill-rule="evenodd" fill="#fff"/><path d="M195.66 273.3a1.02 1.02 0 1 1 .002-2.04 1.02 1.02 0 0 1-.002 2.04zm0 0" fill="none" stroke-width=".06" stroke-linecap="square" stroke-linejoin="bevel" stroke="#000" stroke-miterlimit="10"/><path d="M202.14 274.02l-1.019-1.02v-1.441l1.02-1.02h1.437l1.024 1.02V273l-1.024 1.02h-1.437" fill="green"/><path d="M202.14 274.02l-1.019-1.02v-1.441l1.02-1.02h1.437l1.024 1.02V273l-1.024 1.02zm0 0" fill="none" stroke-width=".12" stroke-linecap="round" stroke-linejoin="round" stroke="green" stroke-miterlimit="10"/><path d="M202.86 273.3a1.02 1.02 0 1 1 0-2.04 1.02 1.02 0 0 1 0 2.04" fill-rule="evenodd" fill="#fff"/><path d="M202.86 273.3a1.02 1.02 0 1 1 0-2.04 1.02 1.02 0 0 1 0 2.04zm0 0" fill="none" stroke-width=".06" stroke-linecap="square" stroke-linejoin="bevel" stroke="#000" stroke-miterlimit="10"/><path d="M216.238 296.16l-1.379-1.379v-1.922l1.38-1.379h1.921l1.38 1.38v1.921l-1.38 1.38h-1.922" fill="green"/><path d="M216.238 296.16l-1.379-1.379v-1.922l1.38-1.379h1.921l1.38 1.38v1.921l-1.38 1.38zm0 0" fill="none" stroke-width=".12" stroke-linecap="round" stroke-linejoin="round" stroke="green" stroke-miterlimit="10"/><path d="M217.2 295.379a1.558 1.558 0 1 1 0-3.117 1.559 1.559 0 0 1 0 3.117" fill-rule="evenodd" fill="#fff"/><path d="M217.2 295.379a1.558 1.558 0 1 1 0-3.117 1.559 1.559 0 0 1 0 3.117zm0 0" fill="none" stroke-width=".06" stroke-linecap="square" stroke-linejoin="bevel" stroke="#000" stroke-miterlimit="10"/><path d="M216.238 310.559l-1.379-1.38v-1.917l1.38-1.383h1.921l1.38 1.383v1.918l-1.38 1.379h-1.922" fill="green"/><path d="M216.238 310.559l-1.379-1.38v-1.917l1.38-1.383h1.921l1.38 1.383v1.918l-1.38 1.379zm0 0" fill="none" stroke-width=".12" stroke-linecap="round" stroke-linejoin="round" stroke="green" stroke-miterlimit="10"/><path d="M217.2 309.781a1.561 1.561 0 1 1 .005-3.122 1.561 1.561 0 0 1-.006 3.122" fill-rule="evenodd" fill="#fff"/><path d="M217.2 309.781a1.561 1.561 0 1 1 .005-3.122 1.561 1.561 0 0 1-.006 3.122zm0 0" fill="none" stroke-width=".06" stroke-linecap="square" stroke-linejoin="bevel" stroke="#000" stroke-miterlimit="10"/><path d="M230.64 310.559l-1.378-1.38v-1.917l1.379-1.383h1.918l1.382 1.383v1.918l-1.382 1.379h-1.918" fill="green"/><path d="M230.64 310.559l-1.378-1.38v-1.917l1.379-1.383h1.918l1.382 1.383v1.918l-1.382 1.379zm0 0" fill="none" stroke-width=".12" stroke-linecap="round" stroke-linejoin="round" stroke="green" stroke-miterlimit="10"/><path d="M231.602 309.781" fill-rule="evenodd" fill="#fff"/><path d="M231.602 309.781zm0 0" fill="none" stroke-width=".06" stroke-linecap="square" stroke-linejoin="bevel" stroke="#000" stroke-miterlimit="10"/><path d="M188.46 310.078a1.859 1.859 0 1 1 0-3.718 1.859 1.859 0 0 1 0 3.718" fill-rule="evenodd" fill="green"/><path d="M188.46 310.078a1.859 1.859 0 1 1 0-3.718 1.859 1.859 0 0 1 0 3.718zm0 0" fill="none" stroke-width=".12" stroke-linecap="round" stroke-linejoin="round" stroke="green" stroke-miterlimit="10"/><path d="M188.46 309.36c-.632 0-1.14-.508-1.14-1.141a1.14 1.14 0 1 1 2.282 0 1.14 1.14 0 0 1-1.141 1.14" fill-rule="evenodd" fill="#fff"/><path d="M188.46 309.36c-.632 0-1.14-.508-1.14-1.141a1.14 1.14 0 1 1 2.282 0 1.14 1.14 0 0 1-1.141 1.14zm0 0" fill="none" stroke-width=".06" stroke-linecap="square" stroke-linejoin="bevel" stroke="#000" stroke-miterlimit="10"/><path d="M188.46 288.54a1.859 1.859 0 1 1 0-3.719 1.859 1.859 0 0 1 0 3.718" fill-rule="evenodd" fill="green"/><path d="M188.46 288.54a1.859 1.859 0 1 1 0-3.719 1.859 1.859 0 0 1 0 3.718zm0 0" fill="none" stroke-width=".12" stroke-linecap="round" stroke-linejoin="round" stroke="green" stroke-miterlimit="10"/><path d="M188.46 287.82a1.14 1.14 0 1 1 0-2.28 1.141 1.141 0 1 1 .001 2.28" fill-rule="evenodd" fill="#fff"/><path d="M188.46 287.82a1.14 1.14 0 1 1 0-2.28 1.141 1.141 0 1 1 .001 2.28zm0 0" fill="none" stroke-width=".06" stroke-linecap="square" stroke-linejoin="bevel" stroke="#000" stroke-miterlimit="10"/><path d="M202.86 295.68a1.859 1.859 0 1 1-.002-3.718 1.859 1.859 0 0 1 .001 3.718" fill-rule="evenodd" fill="green"/><path d="M202.86 295.68a1.859 1.859 0 1 1-.002-3.718 1.859 1.859 0 0 1 .001 3.718zm0 0" fill="none" stroke-width=".12" stroke-linecap="round" stroke-linejoin="round" stroke="green" stroke-miterlimit="10"/><path d="M202.86 294.96a1.14 1.14 0 1 1-.001-2.28 1.14 1.14 0 0 1 .001 2.28" fill-rule="evenodd" fill="#fff"/><path d="M202.86 294.96a1.14 1.14 0 1 1-.001-2.28 1.14 1.14 0 0 1 .001 2.28zm0 0" fill="none" stroke-width=".06" stroke-linecap="square" stroke-linejoin="bevel" stroke="#000" stroke-miterlimit="10"/><path d="M202.86 281.34a1.859 1.859 0 1 1-.002-3.718 1.859 1.859 0 0 1 .001 3.718" fill-rule="evenodd" fill="green"/><path d="M202.86 281.34a1.859 1.859 0 1 1-.002-3.718 1.859 1.859 0 0 1 .001 3.718zm0 0" fill="none" stroke-width=".12" stroke-linecap="round" stroke-linejoin="round" stroke="green" stroke-miterlimit="10"/><path d="M202.86 280.621a1.142 1.142 0 0 1-.001-2.281 1.142 1.142 0 0 1 .001 2.281" fill-rule="evenodd" fill="#fff"/><path d="M202.86 280.621a1.142 1.142 0 0 1-.001-2.281 1.142 1.142 0 0 1 .001 2.281zm0 0" fill="none" stroke-width=".06" stroke-linecap="square" stroke-linejoin="bevel" stroke="#000" stroke-miterlimit="10"/><path d="M231.602 274.8a2.519 2.519 0 1 1 0-5.04 2.52 2.52 0 0 1 0 5.04" fill-rule="evenodd" fill="green"/><path d="M231.602 274.8a2.519 2.519 0 1 1 0-5.04 2.52 2.52 0 0 1 0 5.04zm0 0" fill="none" stroke-width=".12" stroke-linecap="round" stroke-linejoin="round" stroke="green" stroke-miterlimit="10"/><path d="M231.602 273.719a1.44 1.44 0 1 1-.004-2.88 1.44 1.44 0 0 1 .004 2.88" fill-rule="evenodd" fill="#fff"/><path d="M231.602 273.719a1.44 1.44 0 1 1-.004-2.88 1.44 1.44 0 0 1 .004 2.88zm0 0" fill="none" stroke-width=".06" stroke-linecap="square" stroke-linejoin="bevel" stroke="#000" stroke-miterlimit="10"/><path d="M188.46 274.8a2.518 2.518 0 0 1-2.519-2.519 2.516 2.516 0 0 1 2.52-2.52 2.52 2.52 0 0 1 0 5.04" fill-rule="evenodd" fill="green"/><path d="M188.46 274.8a2.518 2.518 0 0 1-2.519-2.519 2.516 2.516 0 0 1 2.52-2.52 2.52 2.52 0 0 1 0 5.04zm0 0" fill="none" stroke-width=".12" stroke-linecap="round" stroke-linejoin="round" stroke="green" stroke-miterlimit="10"/><path d="M188.46 273.719a1.44 1.44 0 1 1-.003-2.88 1.44 1.44 0 0 1 .004 2.88" fill-rule="evenodd" fill="#fff"/><path d="M188.46 273.719a1.44 1.44 0 1 1-.003-2.88 1.44 1.44 0 0 1 .004 2.88zm0 0" fill="none" stroke-width=".06" stroke-linecap="square" stroke-linejoin="bevel" stroke="#000" stroke-miterlimit="10"/><path d="M202.86 325.14a2.52 2.52 0 1 1 .002-5.04 2.52 2.52 0 0 1-.003 5.04" fill-rule="evenodd" fill="green"/><path d="M202.86 325.14a2.52 2.52 0 1 1 .002-5.04 2.52 2.52 0 0 1-.003 5.04zm0 0" fill="none" stroke-width=".12" stroke-linecap="round" stroke-linejoin="round" stroke="green" stroke-miterlimit="10"/><path d="M202.86 324.059a1.439 1.439 0 1 1 .002-2.878 1.439 1.439 0 0 1-.003 2.878" fill-rule="evenodd" fill="#fff"/><path d="M202.86 324.059a1.439 1.439 0 1 1 .002-2.878 1.439 1.439 0 0 1-.003 2.878zm0 0" fill="none" stroke-width=".06" stroke-linecap="square" stroke-linejoin="bevel" stroke="#000" stroke-miterlimit="10"/><path d="M195.66 302.879a1.859 1.859 0 1 1-.001-3.718 1.859 1.859 0 0 1 .001 3.718" fill-rule="evenodd" fill="green"/><path d="M195.66 302.879a1.859 1.859 0 1 1-.001-3.718 1.859 1.859 0 0 1 .001 3.718zm0 0" fill="none" stroke-width=".12" stroke-linecap="round" stroke-linejoin="round" stroke="green" stroke-miterlimit="10"/><path d="M195.66 302.16a1.141 1.141 0 0 1 0-2.281 1.14 1.14 0 0 1 0 2.281" fill-rule="evenodd" fill="#fff"/><path d="M195.66 302.16a1.141 1.141 0 0 1 0-2.281 1.14 1.14 0 0 1 0 2.281zm0 0" fill="none" stroke-width=".06" stroke-linecap="square" stroke-linejoin="bevel" stroke="#000" stroke-miterlimit="10"/><path d="M210 302.879a1.859 1.859 0 1 1-.001-3.718 1.859 1.859 0 0 1 .001 3.718" fill-rule="evenodd" fill="green"/><path d="M210 302.879a1.859 1.859 0 1 1-.001-3.718 1.859 1.859 0 0 1 .001 3.718zm0 0" fill="none" stroke-width=".12" stroke-linecap="round" stroke-linejoin="round" stroke="green" stroke-miterlimit="10"/><path d="M210 302.16a1.141 1.141 0 0 1 0-2.281 1.141 1.141 0 0 1 0 2.281" fill-rule="evenodd" fill="#fff"/><path d="M210 302.16a1.141 1.141 0 0 1 0-2.281 1.141 1.141 0 0 1 0 2.281zm0 0" fill="none" stroke-width=".06" stroke-linecap="square" stroke-linejoin="bevel" stroke="#000" stroke-miterlimit="10"/><path d="M210 310.262a2.039 2.039 0 0 1-2.04-2.043 2.038 2.038 0 1 1 4.08 0 2.04 2.04 0 0 1-2.04 2.043" fill-rule="evenodd" fill="green"/><path d="M210 310.262a2.039 2.039 0 0 1-2.04-2.043 2.038 2.038 0 1 1 4.08 0 2.04 2.04 0 0 1-2.04 2.043zm0 0" fill="none" stroke-width=".12" stroke-linecap="round" stroke-linejoin="round" stroke="green" stroke-miterlimit="10"/><path d="M210 309.238a1.02 1.02 0 1 1 .001-2.04 1.02 1.02 0 0 1-.001 2.04" fill-rule="evenodd" fill="#fff"/><path d="M210 309.238a1.02 1.02 0 1 1 .001-2.04 1.02 1.02 0 0 1-.001 2.04zm0 0" fill="none" stroke-width=".06" stroke-linecap="square" stroke-linejoin="bevel" stroke="#000" stroke-miterlimit="10"/><path d="M195.66 310.262a2.039 2.039 0 0 1-2.039-2.043 2.038 2.038 0 1 1 4.078 0 2.041 2.041 0 0 1-2.039 2.043" fill-rule="evenodd" fill="green"/><path d="M195.66 310.262a2.039 2.039 0 0 1-2.039-2.043 2.038 2.038 0 1 1 4.078 0 2.041 2.041 0 0 1-2.039 2.043zm0 0" fill="none" stroke-width=".12" stroke-linecap="round" stroke-linejoin="round" stroke="green" stroke-miterlimit="10"/><path d="M195.66 309.238a1.02 1.02 0 1 1 .002-2.04 1.02 1.02 0 0 1-.002 2.04" fill-rule="evenodd" fill="#fff"/><path d="M195.66 309.238a1.02 1.02 0 1 1 .002-2.04 1.02 1.02 0 0 1-.002 2.04zm0 0" fill="none" stroke-width=".06" stroke-linecap="square" stroke-linejoin="bevel" stroke="#000" stroke-miterlimit="10"/><path d="M202.86 310.262a2.041 2.041 0 0 1 0-4.082c1.128 0 2.038.914 2.038 2.039 0 1.129-.91 2.043-2.039 2.043" fill-rule="evenodd" fill="green"/><path d="M202.86 310.262a2.041 2.041 0 0 1 0-4.082c1.128 0 2.038.914 2.038 2.039 0 1.129-.91 2.043-2.039 2.043zm0 0" fill="none" stroke-width=".12" stroke-linecap="round" stroke-linejoin="round" stroke="green" stroke-miterlimit="10"/><path d="M202.86 309.238a1.02 1.02 0 1 1 0-2.04 1.02 1.02 0 0 1 0 2.04" fill-rule="evenodd" fill="#fff"/><path d="M202.86 309.238a1.02 1.02 0 1 1 0-2.04 1.02 1.02 0 0 1 0 2.04zm0 0" fill="none" stroke-width=".06" stroke-linecap="square" stroke-linejoin="bevel" stroke="#000" stroke-miterlimit="10"/><path d="M210 317.281a1.861 1.861 0 0 1 0-3.722 1.862 1.862 0 0 1 0 3.722" fill-rule="evenodd" fill="green"/><path d="M210 317.281a1.861 1.861 0 0 1 0-3.722 1.862 1.862 0 0 1 0 3.722zm0 0" fill="none" stroke-width=".12" stroke-linecap="round" stroke-linejoin="round" stroke="green" stroke-miterlimit="10"/><path d="M210 316.559a1.139 1.139 0 1 1 0-2.278 1.14 1.14 0 1 1 0 2.278" fill-rule="evenodd" fill="#fff"/><path d="M210 316.559a1.139 1.139 0 1 1 0-2.278 1.14 1.14 0 1 1 0 2.278zm0 0" fill="none" stroke-width=".06" stroke-linecap="square" stroke-linejoin="bevel" stroke="#000" stroke-miterlimit="10"/><path d="M231.602 324.48a1.862 1.862 0 0 1-1.864-1.859 1.862 1.862 0 0 1 3.723 0 1.86 1.86 0 0 1-1.86 1.86" fill-rule="evenodd" fill="green"/><path d="M231.602 324.48a1.862 1.862 0 0 1-1.864-1.859 1.862 1.862 0 0 1 3.723 0 1.86 1.86 0 0 1-1.86 1.86zm0 0" fill="none" stroke-width=".12" stroke-linecap="round" stroke-linejoin="round" stroke="green" stroke-miterlimit="10"/><path d="M231.602 323.762a1.14 1.14 0 0 1-1.141-1.14 1.137 1.137 0 1 1 2.277-.001c0 .629-.508 1.14-1.136 1.14" fill-rule="evenodd" fill="#fff"/><path d="M231.602 323.762a1.14 1.14 0 0 1-1.141-1.14 1.137 1.137 0 1 1 2.277-.001c0 .629-.508 1.14-1.136 1.14zm0 0" fill="none" stroke-width=".06" stroke-linecap="square" stroke-linejoin="bevel" stroke="#000" stroke-miterlimit="10"/><path d="M188.46 317.281a1.861 1.861 0 0 1 0-3.722 1.862 1.862 0 0 1 0 3.722" fill-rule="evenodd" fill="green"/><path d="M188.46 317.281a1.861 1.861 0 0 1 0-3.722 1.862 1.862 0 0 1 0 3.722zm0 0" fill="none" stroke-width=".12" stroke-linecap="round" stroke-linejoin="round" stroke="green" stroke-miterlimit="10"/><path d="M188.46 316.559c-.632 0-1.14-.508-1.14-1.137 0-.633.508-1.14 1.14-1.14a1.14 1.14 0 1 1 0 2.277" fill-rule="evenodd" fill="#fff"/><path d="M188.46 316.559c-.632 0-1.14-.508-1.14-1.137 0-.633.508-1.14 1.14-1.14a1.14 1.14 0 1 1 0 2.277zm0 0" fill="none" stroke-width=".06" stroke-linecap="square" stroke-linejoin="bevel" stroke="#000" stroke-miterlimit="10"/><path d="M202.86 317.281a1.861 1.861 0 0 1 0-3.722 1.862 1.862 0 0 1 0 3.722" fill-rule="evenodd" fill="green"/><path d="M202.86 317.281a1.861 1.861 0 0 1 0-3.722 1.862 1.862 0 0 1 0 3.722zm0 0" fill="none" stroke-width=".12" stroke-linecap="round" stroke-linejoin="round" stroke="green" stroke-miterlimit="10"/><path d="M202.86 316.559a1.139 1.139 0 1 1 0-2.278 1.14 1.14 0 1 1 0 2.278" fill-rule="evenodd" fill="#fff"/><path d="M202.86 316.559a1.139 1.139 0 1 1 0-2.278 1.14 1.14 0 1 1 0 2.278zm0 0" fill="none" stroke-width=".06" stroke-linecap="square" stroke-linejoin="bevel" stroke="#000" stroke-miterlimit="10"/><path d="M195.66 281.34a1.859 1.859 0 1 1-.001-3.718 1.859 1.859 0 0 1 .001 3.718" fill-rule="evenodd" fill="green"/><path d="M195.66 281.34a1.859 1.859 0 1 1-.001-3.718 1.859 1.859 0 0 1 .001 3.718zm0 0" fill="none" stroke-width=".12" stroke-linecap="round" stroke-linejoin="round" stroke="green" stroke-miterlimit="10"/><path d="M195.66 280.621a1.141 1.141 0 0 1 0-2.281 1.14 1.14 0 0 1 0 2.281" fill-rule="evenodd" fill="#fff"/><path d="M195.66 280.621a1.141 1.141 0 0 1 0-2.281 1.14 1.14 0 0 1 0 2.281zm0 0" fill="none" stroke-width=".06" stroke-linecap="square" stroke-linejoin="bevel" stroke="#000" stroke-miterlimit="10"/><path d="M195.66 295.68a1.859 1.859 0 1 1-.001-3.718 1.859 1.859 0 0 1 .001 3.718" fill-rule="evenodd" fill="green"/><path d="M195.66 295.68a1.859 1.859 0 1 1-.001-3.718 1.859 1.859 0 0 1 .001 3.718zm0 0" fill="none" stroke-width=".12" stroke-linecap="round" stroke-linejoin="round" stroke="green" stroke-miterlimit="10"/><path d="M195.66 294.96a1.14 1.14 0 1 1 0-2.28 1.14 1.14 0 0 1 0 2.28" fill-rule="evenodd" fill="#fff"/><path d="M195.66 294.96a1.14 1.14 0 1 1 0-2.28 1.14 1.14 0 0 1 0 2.28zm0 0" fill="none" stroke-width=".06" stroke-linecap="square" stroke-linejoin="bevel" stroke="#000" stroke-miterlimit="10"/><path d="M231.602 281.34a1.862 1.862 0 0 1-1.864-1.86 1.862 1.862 0 0 1 3.723 0c0 1.028-.832 1.86-1.86 1.86" fill-rule="evenodd" fill="green"/><path d="M231.602 281.34a1.862 1.862 0 0 1-1.864-1.86 1.862 1.862 0 0 1 3.723 0c0 1.028-.832 1.86-1.86 1.86zm0 0" fill="none" stroke-width=".12" stroke-linecap="round" stroke-linejoin="round" stroke="green" stroke-miterlimit="10"/><path d="M231.602 280.621a1.14 1.14 0 1 1-.003-2.279 1.14 1.14 0 0 1 .003 2.28" fill-rule="evenodd" fill="#fff"/><path d="M231.602 280.621a1.14 1.14 0 1 1-.003-2.279 1.14 1.14 0 0 1 .003 2.28zm0 0" fill="none" stroke-width=".06" stroke-linecap="square" stroke-linejoin="bevel" stroke="#000" stroke-miterlimit="10"/><path d="M210 281.34a1.859 1.859 0 1 1-.001-3.718 1.859 1.859 0 0 1 .001 3.718" fill-rule="evenodd" fill="green"/><path d="M210 281.34a1.859 1.859 0 1 1-.001-3.718 1.859 1.859 0 0 1 .001 3.718zm0 0" fill="none" stroke-width=".12" stroke-linecap="round" stroke-linejoin="round" stroke="green" stroke-miterlimit="10"/><path d="M210 280.621a1.141 1.141 0 0 1 0-2.281 1.141 1.141 0 0 1 0 2.281" fill-rule="evenodd" fill="#fff"/><path d="M210 280.621a1.141 1.141 0 0 1 0-2.281 1.141 1.141 0 0 1 0 2.281zm0 0" fill="none" stroke-width=".06" stroke-linecap="square" stroke-linejoin="bevel" stroke="#000" stroke-miterlimit="10"/><path d="M231.602 288.54a1.862 1.862 0 0 1-1.864-1.86 1.862 1.862 0 0 1 3.723 0 1.86 1.86 0 0 1-1.86 1.86" fill-rule="evenodd" fill="green"/><path d="M231.602 288.54a1.862 1.862 0 0 1-1.864-1.86 1.862 1.862 0 0 1 3.723 0 1.86 1.86 0 0 1-1.86 1.86zm0 0" fill="none" stroke-width=".12" stroke-linecap="round" stroke-linejoin="round" stroke="green" stroke-miterlimit="10"/><path d="M231.602 287.82a1.14 1.14 0 1 1-.003-2.279 1.14 1.14 0 0 1 .003 2.28" fill-rule="evenodd" fill="#fff"/><path d="M231.602 287.82a1.14 1.14 0 1 1-.003-2.279 1.14 1.14 0 0 1 .003 2.28zm0 0" fill="none" stroke-width=".06" stroke-linecap="square" stroke-linejoin="bevel" stroke="#000" stroke-miterlimit="10"/><path d="M210 288.54a1.859 1.859 0 1 1-.001-3.719 1.859 1.859 0 0 1 .001 3.718" fill-rule="evenodd" fill="green"/><path d="M210 288.54a1.859 1.859 0 1 1-.001-3.719 1.859 1.859 0 0 1 .001 3.718zm0 0" fill="none" stroke-width=".12" stroke-linecap="round" stroke-linejoin="round" stroke="green" stroke-miterlimit="10"/><path d="M210 287.82a1.14 1.14 0 1 1 .002-2.282 1.14 1.14 0 0 1-.002 2.282" fill-rule="evenodd" fill="#fff"/><path d="M210 287.82a1.14 1.14 0 1 1 .002-2.282 1.14 1.14 0 0 1-.002 2.282zm0 0" fill="none" stroke-width=".06" stroke-linecap="square" stroke-linejoin="bevel" stroke="#000" stroke-miterlimit="10"/><path d="M195.66 274.02c-.93 0-1.68-.778-1.68-1.739 0-.96.75-1.742 1.68-1.742.93 0 1.68.781 1.68 1.742s-.75 1.739-1.68 1.739" fill-rule="evenodd" fill="green"/><path d="M195.66 274.02c-.93 0-1.68-.778-1.68-1.739 0-.96.75-1.742 1.68-1.742.93 0 1.68.781 1.68 1.742s-.75 1.739-1.68 1.739zm0 0" fill="none" stroke-width=".12" stroke-linecap="round" stroke-linejoin="round" stroke="green" stroke-miterlimit="10"/><path d="M195.66 273.3a1.02 1.02 0 1 1 .002-2.04 1.02 1.02 0 0 1-.002 2.04" fill-rule="evenodd" fill="#fff"/><path d="M195.66 273.3a1.02 1.02 0 1 1 .002-2.04 1.02 1.02 0 0 1-.002 2.04zm0 0" fill="none" stroke-width=".06" stroke-linecap="square" stroke-linejoin="bevel" stroke="#000" stroke-miterlimit="10"/><path d="M202.14 274.02l-1.019-1.02v-1.441l1.02-1.02h1.437l1.024 1.02V273l-1.024 1.02h-1.437" fill="green"/><path d="M202.14 274.02l-1.019-1.02v-1.441l1.02-1.02h1.437l1.024 1.02V273l-1.024 1.02zm0 0" fill="none" stroke-width=".12" stroke-linecap="round" stroke-linejoin="round" stroke="green" stroke-miterlimit="10"/><path d="M202.86 273.3a1.02 1.02 0 1 1 0-2.04 1.02 1.02 0 0 1 0 2.04" fill-rule="evenodd" fill="#fff"/><path d="M202.86 273.3a1.02 1.02 0 1 1 0-2.04 1.02 1.02 0 0 1 0 2.04zm0 0" fill="none" stroke-width=".06" stroke-linecap="square" stroke-linejoin="bevel" stroke="#000" stroke-miterlimit="10"/><path d="M216.238 296.16l-1.379-1.379v-1.922l1.38-1.379h1.921l1.38 1.38v1.921l-1.38 1.38h-1.922" fill="green"/><path d="M216.238 296.16l-1.379-1.379v-1.922l1.38-1.379h1.921l1.38 1.38v1.921l-1.38 1.38zm0 0" fill="none" stroke-width=".12" stroke-linecap="round" stroke-linejoin="round" stroke="green" stroke-miterlimit="10"/><path d="M217.2 295.379a1.558 1.558 0 1 1 0-3.117 1.559 1.559 0 0 1 0 3.117" fill-rule="evenodd" fill="#fff"/><path d="M217.2 295.379a1.558 1.558 0 1 1 0-3.117 1.559 1.559 0 0 1 0 3.117zm0 0" fill="none" stroke-width=".06" stroke-linecap="square" stroke-linejoin="bevel" stroke="#000" stroke-miterlimit="10"/><path d="M216.238 310.559l-1.379-1.38v-1.917l1.38-1.383h1.921l1.38 1.383v1.918l-1.38 1.379h-1.922" fill="green"/><path d="M216.238 310.559l-1.379-1.38v-1.917l1.38-1.383h1.921l1.38 1.383v1.918l-1.38 1.379zm0 0" fill="none" stroke-width=".12" stroke-linecap="round" stroke-linejoin="round" stroke="green" stroke-miterlimit="10"/><path d="M217.2 309.781a1.561 1.561 0 1 1 .005-3.122 1.561 1.561 0 0 1-.006 3.122" fill-rule="evenodd" fill="#fff"/><path d="M217.2 309.781a1.561 1.561 0 1 1 .005-3.122 1.561 1.561 0 0 1-.006 3.122zm0 0" fill="none" stroke-width=".06" stroke-linecap="square" stroke-linejoin="bevel" stroke="#000" stroke-miterlimit="10"/><path d="M230.64 310.559l-1.378-1.38v-1.917l1.379-1.383h1.918l1.382 1.383v1.918l-1.382 1.379h-1.918" fill="green"/><path d="M230.64 310.559l-1.378-1.38v-1.917l1.379-1.383h1.918l1.382 1.383v1.918l-1.382 1.379zm0 0" fill="none" stroke-width=".12" stroke-linecap="round" stroke-linejoin="round" stroke="green" stroke-miterlimit="10"/><path d="M231.602 309.781" fill-rule="evenodd" fill="#fff"/><path d="M231.602 309.781zm0 0" fill="none" stroke-width=".06" stroke-linecap="square" stroke-linejoin="bevel" stroke="#000" stroke-miterlimit="10"/><path d="M188.46 310.078a1.859 1.859 0 1 1 0-3.718 1.859 1.859 0 0 1 0 3.718" fill-rule="evenodd" fill="green"/><path d="M188.46 310.078a1.859 1.859 0 1 1 0-3.718 1.859 1.859 0 0 1 0 3.718zm0 0" fill="none" stroke-width=".12" stroke-linecap="round" stroke-linejoin="round" stroke="green" stroke-miterlimit="10"/><path d="M188.46 309.36c-.632 0-1.14-.508-1.14-1.141a1.14 1.14 0 1 1 2.282 0 1.14 1.14 0 0 1-1.141 1.14" fill-rule="evenodd" fill="#fff"/><path d="M188.46 309.36c-.632 0-1.14-.508-1.14-1.141a1.14 1.14 0 1 1 2.282 0 1.14 1.14 0 0 1-1.141 1.14zm0 0" fill="none" stroke-width=".06" stroke-linecap="square" stroke-linejoin="bevel" stroke="#000" stroke-miterlimit="10"/><path d="M188.46 288.54a1.859 1.859 0 1 1 0-3.719 1.859 1.859 0 0 1 0 3.718" fill-rule="evenodd" fill="green"/><path d="M188.46 288.54a1.859 1.859 0 1 1 0-3.719 1.859 1.859 0 0 1 0 3.718zm0 0" fill="none" stroke-width=".12" stroke-linecap="round" stroke-linejoin="round" stroke="green" stroke-miterlimit="10"/><path d="M188.46 287.82a1.14 1.14 0 1 1 0-2.28 1.141 1.141 0 1 1 .001 2.28" fill-rule="evenodd" fill="#fff"/><path d="M188.46 287.82a1.14 1.14 0 1 1 0-2.28 1.141 1.141 0 1 1 .001 2.28zm0 0" fill="none" stroke-width=".06" stroke-linecap="square" stroke-linejoin="bevel" stroke="#000" stroke-miterlimit="10"/><path d="M202.86 295.68a1.859 1.859 0 1 1-.002-3.718 1.859 1.859 0 0 1 .001 3.718" fill-rule="evenodd" fill="green"/><path d="M202.86 295.68a1.859 1.859 0 1 1-.002-3.718 1.859 1.859 0 0 1 .001 3.718zm0 0" fill="none" stroke-width=".12" stroke-linecap="round" stroke-linejoin="round" stroke="green" stroke-miterlimit="10"/><path d="M202.86 294.96a1.14 1.14 0 1 1-.001-2.28 1.14 1.14 0 0 1 .001 2.28" fill-rule="evenodd" fill="#fff"/><path d="M202.86 294.96a1.14 1.14 0 1 1-.001-2.28 1.14 1.14 0 0 1 .001 2.28zm0 0" fill="none" stroke-width=".06" stroke-linecap="square" stroke-linejoin="bevel" stroke="#000" stroke-miterlimit="10"/><path d="M202.86 281.34a1.859 1.859 0 1 1-.002-3.718 1.859 1.859 0 0 1 .001 3.718" fill-rule="evenodd" fill="green"/><path d="M202.86 281.34a1.859 1.859 0 1 1-.002-3.718 1.859 1.859 0 0 1 .001 3.718zm0 0" fill="none" stroke-width=".12" stroke-linecap="round" stroke-linejoin="round" stroke="green" stroke-miterlimit="10"/><path d="M202.86 280.621a1.142 1.142 0 0 1-.001-2.281 1.142 1.142 0 0 1 .001 2.281" fill-rule="evenodd" fill="#fff"/><path d="M202.86 280.621a1.142 1.142 0 0 1-.001-2.281 1.142 1.142 0 0 1 .001 2.281zm0 0" fill="none" stroke-width=".06" stroke-linecap="square" stroke-linejoin="bevel" stroke="#000" stroke-miterlimit="10"/><path d="M231.602 274.8a2.519 2.519 0 1 1 0-5.04 2.52 2.52 0 0 1 0 5.04" fill-rule="evenodd" fill="green"/><path d="M231.602 274.8a2.519 2.519 0 1 1 0-5.04 2.52 2.52 0 0 1 0 5.04zm0 0" fill="none" stroke-width=".12" stroke-linecap="round" stroke-linejoin="round" stroke="green" stroke-miterlimit="10"/><path d="M231.602 273.719a1.44 1.44 0 1 1-.004-2.88 1.44 1.44 0 0 1 .004 2.88" fill-rule="evenodd" fill="#fff"/><path d="M231.602 273.719a1.44 1.44 0 1 1-.004-2.88 1.44 1.44 0 0 1 .004 2.88zm0 0" fill="none" stroke-width=".06" stroke-linecap="square" stroke-linejoin="bevel" stroke="#000" stroke-miterlimit="10"/><path d="M188.46 274.8a2.518 2.518 0 0 1-2.519-2.519 2.516 2.516 0 0 1 2.52-2.52 2.52 2.52 0 0 1 0 5.04" fill-rule="evenodd" fill="green"/><path d="M188.46 274.8a2.518 2.518 0 0 1-2.519-2.519 2.516 2.516 0 0 1 2.52-2.52 2.52 2.52 0 0 1 0 5.04zm0 0" fill="none" stroke-width=".12" stroke-linecap="round" stroke-linejoin="round" stroke="green" stroke-miterlimit="10"/><path d="M188.46 273.719a1.44 1.44 0 1 1-.003-2.88 1.44 1.44 0 0 1 .004 2.88" fill-rule="evenodd" fill="#fff"/><path d="M188.46 273.719a1.44 1.44 0 1 1-.003-2.88 1.44 1.44 0 0 1 .004 2.88zm0 0" fill="none" stroke-width=".06" stroke-linecap="square" stroke-linejoin="bevel" stroke="#000" stroke-miterlimit="10"/><path d="M202.86 325.14a2.52 2.52 0 1 1 .002-5.04 2.52 2.52 0 0 1-.003 5.04" fill-rule="evenodd" fill="green"/><path d="M202.86 325.14a2.52 2.52 0 1 1 .002-5.04 2.52 2.52 0 0 1-.003 5.04zm0 0" fill="none" stroke-width=".12" stroke-linecap="round" stroke-linejoin="round" stroke="green" stroke-miterlimit="10"/><path d="M202.86 324.059a1.439 1.439 0 1 1 .002-2.878 1.439 1.439 0 0 1-.003 2.878" fill-rule="evenodd" fill="#fff"/><path d="M202.86 324.059a1.439 1.439 0 1 1 .002-2.878 1.439 1.439 0 0 1-.003 2.878zm0 0" fill="none" stroke-width=".06" stroke-linecap="square" stroke-linejoin="bevel" stroke="#000" stroke-miterlimit="10"/><path d="M195.66 302.879a1.859 1.859 0 1 1-.001-3.718 1.859 1.859 0 0 1 .001 3.718" fill-rule="evenodd" fill="green"/><path d="M195.66 302.879a1.859 1.859 0 1 1-.001-3.718 1.859 1.859 0 0 1 .001 3.718zm0 0" fill="none" stroke-width=".12" stroke-linecap="round" stroke-linejoin="round" stroke="green" stroke-miterlimit="10"/><path d="M195.66 302.16a1.141 1.141 0 0 1 0-2.281 1.14 1.14 0 0 1 0 2.281" fill-rule="evenodd" fill="#fff"/><path d="M195.66 302.16a1.141 1.141 0 0 1 0-2.281 1.14 1.14 0 0 1 0 2.281zm0 0" fill="none" stroke-width=".06" stroke-linecap="square" stroke-linejoin="bevel" stroke="#000" stroke-miterlimit="10"/><path d="M210 302.879a1.859 1.859 0 1 1-.001-3.718 1.859 1.859 0 0 1 .001 3.718" fill-rule="evenodd" fill="green"/><path d="M210 302.879a1.859 1.859 0 1 1-.001-3.718 1.859 1.859 0 0 1 .001 3.718zm0 0" fill="none" stroke-width=".12" stroke-linecap="round" stroke-linejoin="round" stroke="green" stroke-miterlimit="10"/><path d="M210 302.16a1.141 1.141 0 0 1 0-2.281 1.141 1.141 0 0 1 0 2.281" fill-rule="evenodd" fill="#fff"/><path d="M210 302.16a1.141 1.141 0 0 1 0-2.281 1.141 1.141 0 0 1 0 2.281zm0 0" fill="none" stroke-width=".06" stroke-linecap="square" stroke-linejoin="bevel" stroke="#000" stroke-miterlimit="10"/><path d="M210 310.262a2.039 2.039 0 0 1-2.04-2.043 2.038 2.038 0 1 1 4.08 0 2.04 2.04 0 0 1-2.04 2.043" fill-rule="evenodd" fill="green"/><path d="M210 310.262a2.039 2.039 0 0 1-2.04-2.043 2.038 2.038 0 1 1 4.08 0 2.04 2.04 0 0 1-2.04 2.043zm0 0" fill="none" stroke-width=".12" stroke-linecap="round" stroke-linejoin="round" stroke="green" stroke-miterlimit="10"/><path d="M210 309.238a1.02 1.02 0 1 1 .001-2.04 1.02 1.02 0 0 1-.001 2.04" fill-rule="evenodd" fill="#fff"/><path d="M210 309.238a1.02 1.02 0 1 1 .001-2.04 1.02 1.02 0 0 1-.001 2.04zm0 0" fill="none" stroke-width=".06" stroke-linecap="square" stroke-linejoin="bevel" stroke="#000" stroke-miterlimit="10"/><path d="M195.66 310.262a2.039 2.039 0 0 1-2.039-2.043 2.038 2.038 0 1 1 4.078 0 2.041 2.041 0 0 1-2.039 2.043" fill-rule="evenodd" fill="green"/><path d="M195.66 310.262a2.039 2.039 0 0 1-2.039-2.043 2.038 2.038 0 1 1 4.078 0 2.041 2.041 0 0 1-2.039 2.043zm0 0" fill="none" stroke-width=".12" stroke-linecap="round" stroke-linejoin="round" stroke="green" stroke-miterlimit="10"/><path d="M195.66 309.238a1.02 1.02 0 1 1 .002-2.04 1.02 1.02 0 0 1-.002 2.04" fill-rule="evenodd" fill="#fff"/><path d="M195.66 309.238a1.02 1.02 0 1 1 .002-2.04 1.02 1.02 0 0 1-.002 2.04zm0 0" fill="none" stroke-width=".06" stroke-linecap="square" stroke-linejoin="bevel" stroke="#000" stroke-miterlimit="10"/><path d="M202.86 310.262a2.041 2.041 0 0 1 0-4.082c1.128 0 2.038.914 2.038 2.039 0 1.129-.91 2.043-2.039 2.043" fill-rule="evenodd" fill="green"/><path d="M202.86 310.262a2.041 2.041 0 0 1 0-4.082c1.128 0 2.038.914 2.038 2.039 0 1.129-.91 2.043-2.039 2.043zm0 0" fill="none" stroke-width=".12" stroke-linecap="round" stroke-linejoin="round" stroke="green" stroke-miterlimit="10"/><path d="M202.86 309.238a1.02 1.02 0 1 1 0-2.04 1.02 1.02 0 0 1 0 2.04" fill-rule="evenodd" fill="#fff"/><path d="M202.86 309.238a1.02 1.02 0 1 1 0-2.04 1.02 1.02 0 0 1 0 2.04zm0 0" fill="none" stroke-width=".06" stroke-linecap="square" stroke-linejoin="bevel" stroke="#000" stroke-miterlimit="10"/><path d="M210 317.281a1.861 1.861 0 0 1 0-3.722 1.862 1.862 0 0 1 0 3.722" fill-rule="evenodd" fill="green"/><path d="M210 317.281a1.861 1.861 0 0 1 0-3.722 1.862 1.862 0 0 1 0 3.722zm0 0" fill="none" stroke-width=".12" stroke-linecap="round" stroke-linejoin="round" stroke="green" stroke-miterlimit="10"/><path d="M210 316.559a1.139 1.139 0 1 1 0-2.278 1.14 1.14 0 1 1 0 2.278" fill-rule="evenodd" fill="#fff"/><path d="M210 316.559a1.139 1.139 0 1 1 0-2.278 1.14 1.14 0 1 1 0 2.278zm0 0" fill="none" stroke-width=".06" stroke-linecap="square" stroke-linejoin="bevel" stroke="#000" stroke-miterlimit="10"/><path d="M231.602 324.48a1.862 1.862 0 0 1-1.864-1.859 1.862 1.862 0 0 1 3.723 0 1.86 1.86 0 0 1-1.86 1.86" fill-rule="evenodd" fill="green"/><path d="M231.602 324.48a1.862 1.862 0 0 1-1.864-1.859 1.862 1.862 0 0 1 3.723 0 1.86 1.86 0 0 1-1.86 1.86zm0 0" fill="none" stroke-width=".12" stroke-linecap="round" stroke-linejoin="round" stroke="green" stroke-miterlimit="10"/><path d="M231.602 323.762a1.14 1.14 0 0 1-1.141-1.14 1.137 1.137 0 1 1 2.277-.001c0 .629-.508 1.14-1.136 1.14" fill-rule="evenodd" fill="#fff"/><path d="M231.602 323.762a1.14 1.14 0 0 1-1.141-1.14 1.137 1.137 0 1 1 2.277-.001c0 .629-.508 1.14-1.136 1.14zm0 0" fill="none" stroke-width=".06" stroke-linecap="square" stroke-linejoin="bevel" stroke="#000" stroke-miterlimit="10"/><path d="M198.18 317.219l.539-.117.48-.243.422-.359.238-.54.121-.538m-6.84 1.797h5.04m-6.84-1.797l.058.539.301.539.36.36.48.242.602.117m-.001-3.598l-.6.117-.481.242-.36.36-.3.539-.06.543m6.841-1.801h-5.04" fill="none" stroke-width=".36" stroke-linecap="round" stroke-linejoin="round" stroke="#505050" stroke-miterlimit="10"/><path d="M199.98 315.422l-.12-.543-.239-.54-.422-.359-.48-.242-.54-.117" fill="none" stroke-width=".36" stroke-linecap="round" stroke-linejoin="round" stroke="#505050" stroke-miterlimit="10"/><path d="M196.02 313.98v2.88h.718v-2.88zm-1.442 0v2.88h.723v-2.88zm0 0" fill="#505050" stroke-width=".12" stroke-linecap="round" stroke-linejoin="round" stroke="#505050" stroke-miterlimit="10"/><path d="M198.18 317.219l.539-.117.48-.243.422-.359.238-.54.121-.538m-6.12-26.222l.062.538.238.48.418.423.48.238.602.062m-1.8-6.781v5.04m1.8-6.84l-.601.062-.48.238-.419.418-.238.48-.063.602m3.601 0l-.12-.601-.238-.48-.422-.419-.48-.238-.54-.063m1.8 6.841v-5.04m-1.8 6.781l.54-.062.48-.238.422-.422.238-.48.12-.54" fill="none" stroke-width=".36" stroke-linecap="round" stroke-linejoin="round" stroke="#505050" stroke-miterlimit="10"/><path d="M194.219 287.04v.722h2.883v-.723zm0-1.438v.718h2.883v-.718zm0 0" fill="#505050" stroke-width=".12" stroke-linecap="round" stroke-linejoin="round" stroke="#505050" stroke-miterlimit="10"/><path d="M193.86 289.2l.062.538.238.48.418.423.48.238.602.062" fill="none" stroke-width=".36" stroke-linecap="round" stroke-linejoin="round" stroke="#505050" stroke-miterlimit="10"/><path d="M227.281 282.36l.297-.06.184-.179.18-.242.058-.238m0-4.321l-.059-.3-.18-.239-.183-.12-.297-.06m-12.961.001l-.242.058-.238.121-.18.239-.058.3m0 4.32l.058.239.18.242.238.18.242.058" fill="none" stroke-width=".48" stroke-linecap="round" stroke-linejoin="round" stroke="#505050" stroke-miterlimit="10"/><path d="M212.52 278.762v1.437h1.082v-1.437zm15.48 0v1.437h1.082v-1.437zm0 0" fill="#505050" stroke-width=".12" stroke-linecap="round" stroke-linejoin="round" stroke="#505050" stroke-miterlimit="10"/><path d="M227.281 282.36l.297-.06.184-.179.18-.242.058-.238m0-4.321l-.059-.3-.18-.239-.183-.12-.297-.06m-12.961.001l-.242.058-.238.121-.18.239-.058.3m0 4.32l.058.239.18.242.238.18.242.058M228 277.32v4.32m-.719.72H226.2m-.36-.36l.36.36m1.081-5.758H226.2m-.36.358l.36-.358M215.762 282l-.364.36m.364-.36h10.078m-10.078-5.04l-.364-.358m.364.358h10.078m-11.52 5.4h1.078m-1.078-5.758h1.078m-1.796.718v4.32" fill="none" stroke-width=".48" stroke-linecap="round" stroke-linejoin="round" stroke="#505050" stroke-miterlimit="10"/><path d="M212.52 278.762v1.437h1.082v-1.437zm15.48 0v1.437h1.082v-1.437zm0 0" fill="#505050" stroke-width=".12" stroke-linecap="round" stroke-linejoin="round" stroke="#505050" stroke-miterlimit="10"/><path d="M227.281 289.559l.297-.059.184-.18.18-.242.058-.238m0-4.32l-.059-.301-.18-.239-.183-.12-.297-.06m-12.961 0l-.242.06-.238.12-.18.239-.058.3m0 4.321l.058.238.18.242.238.18.242.059" fill="none" stroke-width=".48" stroke-linecap="round" stroke-linejoin="round" stroke="#505050" stroke-miterlimit="10"/><path d="M212.52 285.96v1.438h1.082v-1.437zm15.48 0v1.438h1.082v-1.437zm0 0" fill="#505050" stroke-width=".12" stroke-linecap="round" stroke-linejoin="round" stroke="#505050" stroke-miterlimit="10"/><path d="M227.281 289.559l.297-.059.184-.18.18-.242.058-.238m0-4.32l-.059-.301-.18-.239-.183-.12-.297-.06m-12.961 0l-.242.06-.238.12-.18.239-.058.3m0 4.321l.058.238.18.242.238.18.242.059M228 284.52v4.32m-.719.719H226.2m-.36-.359l.36.359m1.081-5.759H226.2m-.36.36l.36-.36m-10.438 5.4l-.364.359m.364-.359h10.078m-10.078-5.04l-.364-.36m.364.36h10.078m-11.52 5.399h1.078m-1.078-5.759h1.078m-1.796.72v4.32" fill="none" stroke-width=".48" stroke-linecap="round" stroke-linejoin="round" stroke="#505050" stroke-miterlimit="10"/><path d="M212.52 285.96v1.438h1.082v-1.437zm15.48 0v1.438h1.082v-1.437zm0 0" fill="#505050" stroke-width=".12" stroke-linecap="round" stroke-linejoin="round" stroke="#505050" stroke-miterlimit="10"/><path d="M199.262 278.04a5.76 5.76 0 1 1-.004-11.52 5.76 5.76 0 0 1 .004 11.52zm0 0" fill="none" stroke-width=".36" stroke-linecap="round" stroke-linejoin="round" stroke="#505050" stroke-miterlimit="10"/><path d="M202.86 275.398a.595.595 0 0 1-.598-.597.598.598 0 1 1 1.199 0c0 .332-.27.597-.602.597" fill-rule="evenodd" fill="#505050"/><path d="M202.86 275.398a.595.595 0 0 1-.598-.597.598.598 0 1 1 1.199 0c0 .332-.27.597-.602.597zm0 0" fill="none" stroke-width=".12" stroke-linecap="round" stroke-linejoin="round" stroke="#505050" stroke-miterlimit="10"/><path d="M217.078 312l-1.797-1.8m3.957 0l-2.457 2.402m0 0l.957.898m0 0l1.082.121m0 0l1.02.059m0 0l2.46-2.399m-8.222-7.981l-2.277 2.278m-.001 0l.06 1.082m0 0l.062 1.078m0 0l.898.903m0-.001l2.461-2.402m-2.043 1.922l2.043 2.04m10.919-6.302l-4.68-4.68m5.82 3.544l-4.68-4.684m-8.219 9l3.899 3.902m6.058-6.48a3.478 3.478 0 0 1-3.476-3.48 3.478 3.478 0 1 1 6.957 0 3.48 3.48 0 0 1-3.48 3.48zm0 0" fill="none" stroke-width=".36" stroke-linecap="round" stroke-linejoin="round" stroke="#505050" stroke-miterlimit="10"/><path d="M213.422 305.219l.418.12.36.36.12.422-.12.48-.36.297-.418.122-.48-.122-.301-.296-.121-.48.12-.423.301-.36.48-.12v.36l.24.12.237.18.063.242-.063.3-.238.18-.238.06-.3-.06-.18-.18-.063-.3.062-.242.18-.18.3-.12v-.36" fill-rule="evenodd" fill="#505050"/><path d="M213.422 305.219l.418.12.36.36.12.422-.12.48-.36.297-.418.122-.48-.122-.301-.296-.121-.48.12-.423.301-.36.48-.12v.36l.24.12.237.18.063.242-.063.3-.238.18-.238.06-.3-.06-.18-.18-.063-.3.062-.242.18-.18.3-.12zm0 0" fill="none" stroke-width=".12" stroke-linecap="round" stroke-linejoin="round" stroke="#505050" stroke-miterlimit="10"/><path d="M219.3 311.16l.481.121.297.36.121.418-.12.48-.298.3-.48.122-.422-.121-.36-.3-.12-.481.12-.418.36-.36.422-.12v.359l.3.12.18.18.059.239-.059.3-.18.18-.3.063-.242-.063-.239-.18-.058-.3.058-.239.239-.18.242-.12v-.36" fill-rule="evenodd" fill="#505050"/><path d="M219.3 311.16l.481.121.297.36.121.418-.12.48-.298.3-.48.122-.422-.121-.36-.3-.12-.481.12-.418.36-.36.422-.12v.359l.3.12.18.18.059.239-.059.3-.18.18-.3.063-.242-.063-.239-.18-.058-.3.058-.239.239-.18.242-.12zm0 0" fill="none" stroke-width=".12" stroke-linecap="round" stroke-linejoin="round" stroke="#505050" stroke-miterlimit="10"/><path d="M224.398 311.398c-5.73 0-10.378-4.644-10.378-10.378 0-5.735 4.648-10.38 10.378-10.38 5.735 0 10.383 4.645 10.383 10.38 0 5.734-4.648 10.378-10.383 10.378zm0 0" fill="none" stroke-width=".36" stroke-linecap="round" stroke-linejoin="round" stroke="#505050" stroke-miterlimit="10"/><path d="M224.398 310.621c-5.3 0-9.597-4.3-9.597-9.601 0-5.301 4.297-9.598 9.597-9.598 5.305 0 9.602 4.297 9.602 9.598 0 5.3-4.297 9.601-9.602 9.601zm0 0" fill="none" stroke-width=".36" stroke-linecap="round" stroke-linejoin="round" stroke="#505050" stroke-miterlimit="10"/><path d="M185.578 303.898l.063.301.12.242.239.118.3.062m4.321 0l.238-.062.243-.118.18-.242.058-.3m0-12.958l-.059-.242-.18-.238-.242-.18-.238-.062m-4.321 0l-.3.062-.238.18-.121.238-.063.242" fill="none" stroke-width=".48" stroke-linecap="round" stroke-linejoin="round" stroke="#505050" stroke-miterlimit="10"/><path d="M187.738 289.2v1.081h1.442V289.2zm0 15.421v1.078h1.442v-1.078zm0 0" fill="#505050" stroke-width=".12" stroke-linecap="round" stroke-linejoin="round" stroke="#505050" stroke-miterlimit="10"/><path d="M185.578 303.898l.063.301.12.242.239.118.3.062m4.321 0l.238-.062.243-.118.18-.242.058-.3m0-12.958l-.059-.242-.18-.238-.242-.18-.238-.062m-4.321 0l-.3.062-.238.18-.121.238-.063.242m5.043 13.68h-4.32m-.723-.723v-1.078m.363-.36l-.363.36m5.762 1.078v-1.078m-.36-.36l.36.36m-5.399-10.441l-.363-.36m.363.36v10.082m5.039-10.082l.36-.36m-.36.36v10.082m-5.402-11.52v1.079m5.762-1.079v1.079m-.719-1.801h-4.32" fill="none" stroke-width=".48" stroke-linecap="round" stroke-linejoin="round" stroke="#505050" stroke-miterlimit="10"/><path d="M187.738 289.2v1.081h1.442V289.2zm0 15.421v1.078h1.442v-1.078zm0 0" fill="#505050" stroke-width=".12" stroke-linecap="round" stroke-linejoin="round" stroke="#505050" stroke-miterlimit="10"/><path d="M201.059 281.64v10.02m1.081-11.101h1.438m1.024 1.081l-.063-.421-.238-.36-.36-.238-.363-.062m1.024 11.101v-10.02" fill="none" stroke-width=".3" stroke-linecap="round" stroke-linejoin="round" stroke="#505050" stroke-miterlimit="10"/><path d="M201.422 287.04v.722h2.879v-.723zm0-1.438v.718h2.879v-.718zm0 0" fill="#505050" stroke-width=".12" stroke-linecap="round" stroke-linejoin="round" stroke="#505050" stroke-miterlimit="10"/><path d="M202.14 280.559l-.421.062-.36.238-.238.36-.062.422m2.519 11.097h-1.437m-1.082-1.078l.062.418.238.363.36.239.422.058m1.437 0l.363-.058.36-.239.238-.363.063-.418" fill="none" stroke-width=".3" stroke-linecap="round" stroke-linejoin="round" stroke="#505050" stroke-miterlimit="10"/><path d="M229.262 268.379h1.078m-.54-.539v1.02m1.079 0l.242.3m0 0h.54m-.001 0l.238-.3m0 0v-1.02m0 0l-.238-.3m0 0h-.539m0 0l-.242.3m0 0v.238m0 0l.242.3m0 .001h.777m.543-.839v1.081m0 0l.54.54m-.001-.001l.54-.539m0 0v-1.082m-46.32.301l-.24-.3m0 0h-.538m0 0l-.3.3m-.001 0v1.02m0 0l.3.3m.001 0h.539m-.001 0l.24-.3m0 0v-.481m0 0h-.54m1.078.781v-1.62m0 0l1.024 1.62m0 0v-1.62m.538 0v1.62m0 0h.778m0 0l.3-.3m.001 0v-1.02m0 0l-.3-.3m-.001 0h-.777m10.437 59.76v-1.019m0 0l.543-.543m0 0l.48.543m.001 0v1.02m-1.024-.781h1.024m.538.78v-1.562m0 0l1.079 1.563m0-.001v-1.562m1.081 1.562v-1.562m-.538 0h1.02m.538.543l.54-.543m0 0v1.563m-.54-.001h1.079" fill="none" stroke-width=".18" stroke-linecap="round" stroke-linejoin="round" stroke="#505050" stroke-miterlimit="10"/><path d="M205.32 302.82l.602-.058.476-.242.422-.418.239-.48.062-.602m-6.781 1.8h4.98m-6.78-1.8l.062.601.238.48.422.419.476.242.602.058m0-3.601l-.602.12-.476.24-.422.421-.238.48-.063.54m6.781-1.801h-4.98m6.781 1.801l-.062-.54-.239-.48-.422-.422-.476-.238-.602-.121" fill="none" stroke-width=".36" stroke-linecap="round" stroke-linejoin="round" stroke="#505050" stroke-miterlimit="10"/><path d="M203.219 299.578v2.883h.722v-2.883zm-1.438 0v2.883h.719v-2.883zm0 0" fill="#505050" stroke-width=".12" stroke-linecap="round" stroke-linejoin="round" stroke="#505050" stroke-miterlimit="10"/><path d="M205.32 302.82l.602-.058.476-.242.422-.418.239-.48.062-.602m1.617 2.52h-11.816m-.902 7.92l.66 1.142.84.957 1.02.84 1.14.66 1.199.48 1.32.242h1.262l1.32-.242 1.258-.48 1.14-.66.962-.84.84-.957.66-1.141m-14.341-3.242h15.06m-.72 3.241l.419-1.019.242-1.082.058-1.14m.001 0l-.06-1.078-.241-1.082-.418-1.02m-.001.001l-.359-.778-.543-.723m-12.718 1.501l-.418 1.019-.243 1.082-.058 1.078m-.001 0l.06 1.14.242 1.082.418 1.02m.902-7.921l-.543.722-.418.84m34.918 13.918l-.117-.782-.242-.777-.418-.66-.602-.602-.66-.418-.781-.242-.778-.117m0 7.199l.778-.121.78-.238.661-.422.602-.602.418-.66.242-.777.117-.781m-2.16 0l-.117-.782-.243-.777-.418-.66-.601-.602-.66-.418-.782-.242-.777-.117m0 7.199l.777-.121.782-.238.66-.422.601-.602.418-.66.243-.777.117-.781m-2.16 0l-.059-.782-.3-.777-.419-.66-.601-.602-.66-.418-.782-.242-.777-.117m-.001 7.199l.778-.121.782-.238.66-.422.601-.602.418-.66.301-.777.059-.781m-2.161 0l-.058-.782-.3-.777-.419-.66-.543-.602-.719-.418-.78-.242-.778-.117m-.001 7.199l.778-.121.781-.238.72-.422.542-.602.418-.66.3-.777.06-.781m-2.161 0l-.058-.782-.301-.777-.418-.66-.54-.602-.722-.418-.719-.242-.84-.117m0 7.199l.84-.121.72-.238.722-.422.539-.602.418-.66.3-.777.06-.781m-2.161 0l-.058-.782-.301-.777-.418-.66-.54-.602-.722-.418-.719-.242-.84-.117m0 7.199l.84-.121.72-.238.722-.422.539-.602.418-.66.3-.777.06-.781m-2.157 0l-.063-.782-.3-.777-.418-.66-.54-.602-.722-.418-.719-.242-.84-.117m0 7.199l.84-.121.719-.238.723-.422.539-.602.418-.66.3-.777.063-.781m-7.203 0l.12.78.24.778.421.66.602.602.66.422.777.238.781.121m0-7.199H210m17.281 7.199h4.32" fill="none" stroke-width=".36" stroke-linecap="round" stroke-linejoin="round" stroke="#505050" stroke-miterlimit="10"/><path d="M188.46 315.422h6.06m8.34 0h-6.122m-1.078-35.942v6.06m0 8.28v-6.058" fill="none" stroke-width=".24" stroke-linecap="round" stroke-linejoin="round" stroke="#505050" stroke-miterlimit="10"/><path d="M210 279.48h2.52m19.082 0h-2.524M210 286.68h2.52m19.082 0h-2.524m-40.618 0v2.52m0 19.019v-2.52" fill="none" stroke-width="1.44" stroke-linecap="round" stroke-linejoin="round" stroke="#505050" stroke-miterlimit="10"/><path d="M202.86 279.48v6.06m0 8.28v-6.058m-7.2 13.258h6.059m8.281 0h-6.059" fill="none" stroke-width=".24" stroke-linecap="round" stroke-linejoin="round" stroke="#505050" stroke-miterlimit="10"/><use xlink:href="#a" x="190.598" y="312.846" fill="#505050"/><use xlink:href="#b" x="192.338" y="312.846" fill="#505050"/><use xlink:href="#c" x="193.298" y="312.846" fill="#505050"/><use xlink:href="#d" x="195.038" y="312.846" fill="#505050"/><use xlink:href="#e" x="196.838" y="312.846" fill="#505050"/><use xlink:href="#f" x="191.564" y="282.035" fill="#505050"/><use xlink:href="#g" x="191.564" y="283.355" fill="#505050"/><use xlink:href="#h" x="191.564" y="284.675" fill="#505050"/><use xlink:href="#i" x="218.529" y="280.363" fill="#505050"/><use xlink:href="#j" x="219.849" y="280.363" fill="#505050"/><use xlink:href="#k" x="220.569" y="280.363" fill="#505050"/><use xlink:href="#l" x="221.889" y="280.363" fill="#505050"/><use xlink:href="#m" x="218.889" y="287.554" fill="#505050"/><use xlink:href="#m" x="220.209" y="287.554" fill="#505050"/><use xlink:href="#l" x="221.529" y="287.554" fill="#505050"/><use xlink:href="#n" x="190.485" y="267.711" fill="#505050"/><use xlink:href="#o" x="190.485" y="269.511" fill="#505050"/><use xlink:href="#p" x="190.485" y="271.431" fill="#505050"/><use xlink:href="#q" x="190.485" y="273.951" fill="#505050"/><use xlink:href="#r" x="190.485" y="275.151" fill="#505050"/><use xlink:href="#s" x="218.105" y="308.229" fill="#505050"/><use xlink:href="#t" x="219.845" y="308.229" fill="#505050"/><use xlink:href="#u" x="220.805" y="308.229" fill="#505050"/><use xlink:href="#v" x="222.545" y="308.229" fill="#505050"/><use xlink:href="#s" x="223.745" y="308.229" fill="#505050"/><use xlink:href="#w" x="225.485" y="308.229" fill="#505050"/><use xlink:href="#x" x="227.225" y="308.229" fill="#505050"/><use xlink:href="#y" x="229.025" y="308.229" fill="#505050"/><use xlink:href="#z" x="188.077" y="298.684" fill="#505050"/><use xlink:href="#A" x="188.077" y="300.004" fill="#505050"/><use xlink:href="#B" x="188.077" y="300.724" fill="#505050"/><use xlink:href="#z" x="188.077" y="298.684" fill="#505050"/><use xlink:href="#A" x="188.077" y="300.004" fill="#505050"/><use xlink:href="#B" x="188.077" y="300.724" fill="#505050"/><use xlink:href="#C" x="198.337" y="280.115" fill="#505050"/><use xlink:href="#C" x="198.337" y="281.434" fill="#505050"/><use xlink:href="#D" x="198.337" y="282.754" fill="#505050"/><use xlink:href="#E" x="198.337" y="284.074" fill="#505050"/><use xlink:href="#F" x="198.337" y="285.394" fill="#505050"/><use xlink:href="#G" x="200.192" y="298.736" fill="#505050"/><use xlink:href="#G" x="201.512" y="298.736" fill="#505050"/><use xlink:href="#H" x="202.832" y="298.736" fill="#505050"/><use xlink:href="#I" x="204.152" y="298.736" fill="#505050"/><use xlink:href="#J" x="198.332" y="298.52" fill="#505050"/><use xlink:href="#K" x="200.252" y="298.52" fill="#505050"/><use xlink:href="#w" x="202.172" y="298.52" fill="#505050"/><use xlink:href="#L" x="203.912" y="298.52" fill="#505050"/><use xlink:href="#M" x="205.652" y="298.52" fill="#505050"/><use xlink:href="#N" x="205.288" y="321.892" fill="#505050"/><use xlink:href="#O" x="205.288" y="323.632" fill="#505050"/><use xlink:href="#P" x="205.288" y="325.432" fill="#505050"/><path d="M181.262 329.82v-64.742m0 0H238.8m0 0v64.742m0 0h-57.538" fill="none" stroke-width=".12" stroke-linecap="round" stroke-linejoin="round" stroke="#000" stroke-miterlimit="10"/></svg>