<svg xmlns:xlink="http://www.w3.org/1999/xlink" width="842pt" height="595pt" viewBox="0 0 842 595"><defs><symbol overflow="visible" id="a"><path d="M2.625 0h-2v-.422h.734v-2.75H.625v-.375c.281 0 .488-.035.625-.11.125-.081.195-.234.219-.452h.422v3.687h.734zm0 0"/></symbol><symbol overflow="visible" id="b"><path d="M2.922 0H2.25L1.094-1.484l-.203.203V0H.375v-4.281h.516v2.5l1.218-1.297h.641L1.484-1.797zm0 0"/></symbol><symbol overflow="visible" id="c"><path d="M3.203-1.266c0 .211-.043.391-.125.547a1.05 1.05 0 0 1-.312.39c-.149.118-.309.2-.485.25-.18.056-.406.079-.687.079H.422v-4.094H1.5c.29 0 .508.008.656.016.145.023.285.07.422.14a.904.904 0 0 1 .328.313A1 1 0 0 1 3-3.172a.99.99 0 0 1-.14.516.997.997 0 0 1-.438.36v.015c.25.074.441.195.578.36.133.179.203.398.203.655zm-.765-1.828a.687.687 0 0 0-.047-.265.389.389 0 0 0-.157-.172.823.823 0 0 0-.296-.094 6.61 6.61 0 0 0-.454-.016H.97v1.204h.61c.175 0 .3-.008.374-.032a.565.565 0 0 0 .438-.312.893.893 0 0 0 .046-.313zm.187 1.86a1.12 1.12 0 0 0-.063-.391c-.042-.094-.132-.176-.265-.25-.086-.04-.18-.07-.281-.094a5.837 5.837 0 0 0-.438-.015h-.61V-.47h.438c.239 0 .426-.008.563-.031a.827.827 0 0 0 .593-.39.806.806 0 0 0 .063-.344zm0 0"/></symbol><symbol overflow="visible" id="d"><path d="M2.016.078c-.274 0-.516-.047-.735-.14A1.315 1.315 0 0 1 .703-.47a1.823 1.823 0 0 1-.39-.656 2.536 2.536 0 0 1-.126-.922c0-.344.04-.64.126-.89.082-.258.207-.485.374-.672a1.56 1.56 0 0 1 .594-.422c.219-.094.469-.14.75-.14.133 0 .266.01.39.03.114.024.224.047.329.079.082.023.172.054.266.093.093.043.187.09.28.14v.657H3.25a2.466 2.466 0 0 1-.188-.156 2.232 2.232 0 0 0-.265-.188 3.144 3.144 0 0 0-.344-.14 1.832 1.832 0 0 0-.437-.047 1.28 1.28 0 0 0-.485.094 1.086 1.086 0 0 0-.422.328 1.4 1.4 0 0 0-.265.515c-.063.22-.094.461-.094.72 0 .28.031.523.094.718.07.21.164.383.281.516.113.136.25.242.406.312.157.074.317.11.485.11.156 0 .3-.02.437-.063.133-.04.254-.086.36-.14a2.47 2.47 0 0 0 .265-.188c.07-.051.129-.098.172-.14h.047v.64c-.094.043-.18.086-.25.125a1.631 1.631 0 0 1-.297.11c-.125.042-.234.07-.328.093a2.25 2.25 0 0 1-.406.031zm0 0"/></symbol><symbol overflow="visible" id="e"><path d="M1.406-3.703c-.093 0-.195.012-.297.031a2.575 2.575 0 0 0-.296.094 1.1 1.1 0 0 0-.22.11c-.073.042-.136.077-.187.109H.375v-.579c.125-.062.29-.117.5-.171.195-.051.39-.079.578-.079.188 0 .348.024.484.063.133.031.258.09.375.172.126.094.22.2.282.312a.974.974 0 0 1 .094.438c0 .23-.079.43-.235.594a.891.891 0 0 1-.531.328v.047c.082.011.176.039.281.078a.97.97 0 0 1 .266.187.994.994 0 0 1 .219.297c.039.125.066.277.078.453 0 .188-.032.36-.094.516a1.448 1.448 0 0 1-.281.406 1.113 1.113 0 0 1-.422.281 1.73 1.73 0 0 1-.578.094C1.18.078.977.055.78.016a2.052 2.052 0 0 1-.515-.188V-.75h.046a1.748 1.748 0 0 0 1.047.36c.102 0 .211-.02.329-.063a.553.553 0 0 0 .28-.172.8.8 0 0 0 .173-.266.927.927 0 0 0 .062-.359c0-.145-.023-.27-.062-.375a.513.513 0 0 0-.188-.219.62.62 0 0 0-.266-.125c-.117-.008-.23-.02-.343-.031h-.235v-.453h.172c.25 0 .453-.055.61-.172.156-.113.234-.285.234-.516a.567.567 0 0 0-.063-.265.553.553 0 0 0-.156-.172.8.8 0 0 0-.234-.11c-.086-.007-.172-.015-.266-.015zm0 0"/></symbol><symbol overflow="visible" id="f"><path d="M2.875-3.484L1.109 0H.516L2.39-3.625H.266v-.469h2.609zm0 0"/></symbol><symbol overflow="visible" id="g"><path d="M.422 0v-4.094h2.562v.485H.97V-2.5h1.875v.484H.969v1.532h2.015V0zm0 0"/></symbol><symbol overflow="visible" id="h"><path d="M2.844-2.047c0 .73-.106 1.266-.313 1.61-.219.343-.547.515-.984.515-.461 0-.793-.172-1-.515C.328-.79.223-1.329.234-2.048c0-.738.102-1.281.313-1.625.219-.344.55-.515 1-.515.445 0 .773.18.984.53.207.356.313.891.313 1.61zM2.14-.797c.05-.133.093-.305.125-.515.02-.208.03-.454.03-.735 0-.281-.01-.523-.03-.734a2.625 2.625 0 0 0-.125-.516.735.735 0 0 0-.22-.328.662.662 0 0 0-.374-.11.61.61 0 0 0-.375.11.65.65 0 0 0-.234.328 1.8 1.8 0 0 0-.125.531c-.024.211-.032.45-.032.72 0 .292.008.53.031.718.02.2.055.371.11.516a.62.62 0 0 0 .234.328c.094.074.223.109.39.109a.505.505 0 0 0 .376-.11.703.703 0 0 0 .219-.312zm0 0"/></symbol><symbol overflow="visible" id="i"><path d="M1.188 0H.515v-.781h.671zm0 0"/></symbol><symbol overflow="visible" id="j"><path d="M2.766 0H2.25v-.344c-.156.149-.309.25-.453.313a.895.895 0 0 1-.484.11A1.16 1.16 0 0 1 .938.015a.8.8 0 0 1-.313-.204.995.995 0 0 1-.203-.359 1.887 1.887 0 0 1-.063-.531v-2h.516v1.75c0 .168.004.305.016.406a.604.604 0 0 0 .078.281.318.318 0 0 0 .172.172.61.61 0 0 0 .312.063.907.907 0 0 0 .406-.11c.145-.07.274-.16.391-.265v-2.297h.516zm0 0"/></symbol><symbol overflow="visible" id="k"><path d="M2.875-3.61H.969v1.157h1.828v.484H.969V0H.422v-4.094h2.453zm0 0"/></symbol><symbol overflow="visible" id="o"><path d="M2-4.281L.406.89h-.469l1.594-5.172zm0 0"/></symbol><symbol overflow="visible" id="p"><path d="M5.016-4.094L3.984 0h-.609l-.844-3.406L1.72 0h-.594L.078-4.094h.547l.828 3.407.828-3.407h.547l.828 3.438.828-3.438zm0 0"/></symbol><symbol overflow="visible" id="t"><path d="M2.125.078c-.293 0-.559-.043-.797-.125a1.578 1.578 0 0 1-.61-.406 1.856 1.856 0 0 1-.405-.672 3.043 3.043 0 0 1-.126-.922c0-.332.047-.629.141-.89.082-.258.211-.485.39-.672.165-.176.368-.317.61-.422a2.494 2.494 0 0 1 1.203-.11c.125.024.242.047.36.079.093.03.195.07.312.109.113.055.207.094.281.125v.656h-.046a2.22 2.22 0 0 1-.22-.172 2.536 2.536 0 0 0-.688-.313 2.175 2.175 0 0 0-.452-.046c-.398 0-.719.148-.969.437-.242.305-.359.7-.359 1.188 0 .281.031.527.094.734.062.211.156.383.281.516.113.148.254.258.422.328.164.074.351.11.562.11.157 0 .305-.008.454-.032.156-.02.285-.05.39-.094v-1.062h-.937v-.484H3.5v1.796c-.074.032-.168.07-.281.11a1.69 1.69 0 0 1-.328.11c-.137.042-.258.07-.36.093-.117.02-.25.031-.406.031zm0 0"/></symbol><symbol overflow="visible" id="u"><path d="M3.344 0h-.61L.922-3.531V0h-.5v-4.094h.766L2.843-.859v-3.235h.5zm0 0"/></symbol><symbol overflow="visible" id="v"><path d="M3.656-2.047c0 .375-.078.715-.234 1.016a1.8 1.8 0 0 1-1.235.968A4.441 4.441 0 0 1 1.36 0H.422v-4.094h.922c.383 0 .691.028.922.078.207.063.39.141.546.235.27.18.477.414.626.703.144.293.218.637.218 1.031zm-.578 0c0-.32-.055-.594-.156-.812a1.194 1.194 0 0 0-.469-.532A2.058 2.058 0 0 0 2-3.578a3.486 3.486 0 0 0-.625-.047H.969v3.156h.406c.238 0 .453-.02.64-.062a1.29 1.29 0 0 0 .5-.203c.188-.133.329-.305.422-.516a2.02 2.02 0 0 0 .141-.797zm0 0"/></symbol><symbol overflow="visible" id="w"><path d="M1.844 0H.25v-.422h.531v-3.265H.25v-.407h1.594v.407h-.516v3.265h.516zm0 0"/></symbol><symbol overflow="visible" id="F"><path d="M3.594 0H2.89L1.578-1.625h-.61V0H.423v-4.094H1.47c.238 0 .437.012.593.032.157.023.305.078.454.171.144.094.257.215.343.36.082.148.125.328.125.547 0 .304-.078.554-.234.75a1.32 1.32 0 0 1-.625.453zM2.406-2.953a.81.81 0 0 0-.062-.313.61.61 0 0 0-.188-.234 2.726 2.726 0 0 0-.265-.11 5.133 5.133 0 0 0-.391-.015H.969v1.547h.469c.156 0 .296-.016.421-.047a.738.738 0 0 0 .329-.172.764.764 0 0 0 .171-.281 1.29 1.29 0 0 0 .047-.375zm0 0"/></symbol><symbol overflow="visible" id="G"><path d="M2.938-1.406h-.485V0h-.531v-1.406H.109v-.578l1.829-2.11h.515v2.25h.485zm-1.016-.438v-1.61L.547-1.843zm0 0"/></symbol><symbol overflow="visible" id="L"><path d="M1.844.078c-.242 0-.45-.031-.625-.094a1.296 1.296 0 0 1-.469-.28 1.16 1.16 0 0 1-.297-.516 2.451 2.451 0 0 1-.094-.735v-2.547h.547v2.547c0 .2.016.36.047.484.02.125.067.243.14.344a.6.6 0 0 0 .298.25.997.997 0 0 0 .453.094 1 1 0 0 0 .453-.094.62.62 0 0 0 .312-.25.89.89 0 0 0 .141-.344c.02-.125.031-.28.031-.468v-2.563h.547v2.547c0 .293-.027.54-.078.734a1.118 1.118 0 0 1-.313.516 1.202 1.202 0 0 1-.453.281c-.18.07-.39.102-.64.094zm0 0"/></symbol><symbol overflow="visible" id="M"><path d="M2.828-1.047a.89.89 0 0 1-.312.688A1.35 1.35 0 0 1 1.734 0v1h-.312V.016c-.2 0-.402-.024-.61-.079a1.97 1.97 0 0 1-.515-.171v-.563h.031c.145.117.313.203.5.266.176.074.375.12.594.14v-1.203c-.055-.008-.11-.02-.172-.031a.586.586 0 0 1-.172-.047c-.273-.07-.469-.187-.594-.344-.117-.144-.171-.332-.171-.562 0-.258.097-.485.296-.672.207-.195.477-.313.813-.344v-.75h.312v.75c.164 0 .336.024.516.063.176.043.32.09.438.14v.547H2.64a1.834 1.834 0 0 0-.422-.234 1.875 1.875 0 0 0-.485-.125v1.187c.063.024.118.04.172.047.051.012.094.024.125.032.25.062.442.164.578.296a.965.965 0 0 1 .22.594zm-1.406-1v-1.14A.72.72 0 0 0 1-3.031a.473.473 0 0 0-.172.39c0 .157.04.282.125.375.082.094.238.168.469.22zm.875 1.078c0-.176-.043-.304-.125-.39-.094-.082-.242-.145-.438-.188v1.14c.188-.019.329-.077.422-.171.094-.082.14-.211.14-.39zm0 0"/></symbol><symbol overflow="visible" id="P"><path d="M2.828 0H.297v-.578c.176-.164.348-.332.516-.5a7.82 7.82 0 0 0 .468-.484c.313-.344.524-.618.64-.829.114-.207.173-.421.173-.64a.861.861 0 0 0-.047-.297.89.89 0 0 0-.156-.219.799.799 0 0 0-.22-.125 1.265 1.265 0 0 0-.562 0 9.15 9.15 0 0 0-.296.094 2.284 2.284 0 0 0-.391.219H.39v-.579c.101-.062.257-.117.468-.171a2.31 2.31 0 0 1 .579-.079c.382 0 .68.102.89.297.219.211.328.485.328.829 0 .167-.015.32-.047.453a2.038 2.038 0 0 1-.156.375 5.518 5.518 0 0 1-.25.359 8.59 8.59 0 0 1-.297.344A23.384 23.384 0 0 1 .812-.468h2.016zm0 0"/></symbol><symbol overflow="visible" id="l"><path d="M0-2.828v2.531h-.578a20.864 20.864 0 0 0-.5-.516 7.82 7.82 0 0 0-.484-.468c-.344-.313-.618-.524-.829-.64a1.325 1.325 0 0 0-.64-.173.861.861 0 0 0-.297.047.89.89 0 0 0-.219.156.799.799 0 0 0-.125.22 1.265 1.265 0 0 0 0 .562c.031.105.063.203.094.296a2.284 2.284 0 0 0 .219.391v.031h-.579a1.814 1.814 0 0 1-.171-.468 2.31 2.31 0 0 1-.079-.579c0-.382.102-.68.297-.89.211-.219.485-.328.829-.328.167 0 .32.015.453.047.136.043.261.093.375.156.117.074.234.156.359.25.117.094.23.195.344.297A23.384 23.384 0 0 1-.468-.812v-2.016zm0 0"/></symbol><symbol overflow="visible" id="m"><path d="M0-1.188v.672h-.781v-.671zm0 0"/></symbol><symbol overflow="visible" id="n"><path d="M0-2.922v.672l-1.484 1.156.203.203H0v.516h-4.281v-.516h2.5l-1.297-1.218v-.641l1.281 1.266zm0 0"/></symbol><symbol overflow="visible" id="q"><path d="M-1.406-2.938v.485H0v.531h-1.406v1.813h-.578l-2.11-1.829v-.515h2.25v-.485zm-.438 1.016h-1.61l1.61 1.375zm0 0"/></symbol><symbol overflow="visible" id="r"><path d="M-3.484-2.875L0-1.109v.593L-3.625-2.39v2.125h-.469v-2.609zm0 0"/></symbol><symbol overflow="visible" id="s"><path d="M-2.047-2.844c.73 0 1.266.106 1.61.313.343.219.515.547.515.984 0 .461-.172.793-.515 1-.352.219-.891.324-1.61.313-.738 0-1.281-.102-1.625-.313-.344-.219-.515-.55-.515-1 0-.445.18-.773.53-.984.356-.207.891-.313 1.61-.313zm1.25.703a2.491 2.491 0 0 0-.515-.125 7.904 7.904 0 0 0-.735-.03c-.281 0-.523.01-.734.03a2.625 2.625 0 0 0-.516.125.735.735 0 0 0-.328.22.662.662 0 0 0-.11.374c0 .156.04.281.11.375a.65.65 0 0 0 .328.234 1.8 1.8 0 0 0 .531.125c.211.024.45.032.72.032.292 0 .53-.008.718-.031.2-.02.371-.055.516-.11a.618.618 0 0 0 .328-.234c.074-.094.109-.223.109-.39a.505.505 0 0 0-.11-.376.703.703 0 0 0-.312-.219zm0 0"/></symbol><symbol overflow="visible" id="N"><path d="M0-3.594v.703l-1.625 1.313v.61H0v.546h-4.094v-1.047c0-.238.012-.437.032-.593a1.16 1.16 0 0 1 .171-.454c.094-.144.215-.257.36-.343a1.11 1.11 0 0 1 .547-.125c.304 0 .554.078.75.234.21.156.359.367.453.625zm-2.953 1.188a.81.81 0 0 0-.313.062.61.61 0 0 0-.234.188c-.04.086-.078.172-.11.265a5.133 5.133 0 0 0-.015.391v.531h1.547v-.469c0-.156-.016-.296-.047-.421a.738.738 0 0 0-.172-.329.764.764 0 0 0-.281-.171 1.29 1.29 0 0 0-.375-.047zm0 0"/></symbol><symbol overflow="visible" id="O"><path d="M-3.703-1.406c0 .093.012.195.031.297.024.093.055.195.094.296a1.1 1.1 0 0 0 .11.22c.042.073.077.136.109.187v.031h-.579a2.612 2.612 0 0 1-.171-.5 2.31 2.31 0 0 1-.079-.578c0-.188.024-.348.063-.484a1.08 1.08 0 0 1 .172-.375.999.999 0 0 1 .312-.282.974.974 0 0 1 .438-.094c.23 0 .43.079.594.235.18.148.289.324.328.531h.047a1.41 1.41 0 0 1 .078-.281.973.973 0 0 1 .187-.266.994.994 0 0 1 .297-.219c.125-.039.277-.066.453-.078.188 0 .36.032.516.094.156.074.293.168.406.281.125.118.219.258.281.422.063.18.094.371.094.578 0 .211-.023.414-.062.61-.051.21-.114.383-.188.515H-.75v-.046A1.748 1.748 0 0 0-.39-1.36a.958.958 0 0 0-.063-.329.553.553 0 0 0-.172-.28.8.8 0 0 0-.266-.173.927.927 0 0 0-.359-.062c-.145 0-.27.023-.375.062a.513.513 0 0 0-.219.188.62.62 0 0 0-.125.266c-.008.117-.02.23-.031.343v.235h-.453v-.172c0-.25-.055-.453-.172-.61-.113-.156-.285-.234-.516-.234a.567.567 0 0 0-.265.063.553.553 0 0 0-.172.156.8.8 0 0 0-.11.234c-.007.086-.015.172-.015.266zm0 0"/></symbol><symbol overflow="visible" id="x"><path d="M-.031 0l1.203-3.531h.578L2.938 0h-.5l-.313-.984H.765L.454 0zm2.015-1.39l-.546-1.657L.905-1.39zm0 0"/></symbol><symbol overflow="visible" id="y"><path d="M3.14-1.766c0 .325-.062.618-.187.875a1.594 1.594 0 0 1-.531.61c-.18.117-.36.187-.547.219-.18.042-.414.062-.703.062H.359v-3.531h.797c.332 0 .598.027.797.078.176.043.332.11.469.203.226.148.406.344.531.594s.188.547.188.89zm-.484 0c0-.27-.047-.504-.14-.703a1.068 1.068 0 0 0-.391-.453 1.806 1.806 0 0 0-.406-.156 2.604 2.604 0 0 0-.532-.047H.829v2.719h.36c.207 0 .39-.016.546-.047a1.03 1.03 0 0 0 .422-.188.982.982 0 0 0 .375-.437c.082-.188.125-.414.125-.688zm0 0"/></symbol><symbol overflow="visible" id="z"><path d="M1.688-.922c0 .313-.094.555-.282.719-.187.168-.445.25-.765.25C.566.047.469.039.344.03a3.002 3.002 0 0 1-.328-.047V-.47h.03c.063.024.145.047.25.078.095.024.188.032.282.032.145 0 .266-.016.36-.047a.387.387 0 0 0 .187-.14.572.572 0 0 0 .078-.235c.008-.082.016-.188.016-.313v-2.062h-.75v-.375h1.219zm0 0"/></symbol><symbol overflow="visible" id="A"><path d="M1.594 0H.219v-.36h.453v-2.812H.219v-.36h1.375v.36H1.14v2.813h.453zm0 0"/></symbol><symbol overflow="visible" id="B"><path d="M2.89 0h-.53L.796-3.047V0H.359v-3.531h.672L2.453-.734v-2.797h.438zm0 0"/></symbol><symbol overflow="visible" id="C"><path d="M2.86-3.125c.132.156.238.352.312.578.07.23.11.492.11.781 0 .293-.04.555-.11.782-.074.23-.18.421-.313.578a1.258 1.258 0 0 1-.5.36 1.689 1.689 0 0 1-.64.124c-.242 0-.453-.043-.64-.125a1.295 1.295 0 0 1-.5-.36 1.552 1.552 0 0 1-.313-.577 2.517 2.517 0 0 1-.11-.782c0-.289.035-.55.11-.78.07-.227.175-.423.312-.579.133-.156.3-.273.5-.36.188-.081.399-.124.64-.124.239 0 .458.043.657.125.188.086.348.203.484.359zm-.063 1.36a2.4 2.4 0 0 0-.078-.626 1.312 1.312 0 0 0-.219-.437.93.93 0 0 0-.328-.281 1.081 1.081 0 0 0-.453-.094.963.963 0 0 0-.438.094.884.884 0 0 0-.343.28 1.226 1.226 0 0 0-.22.454c-.054.18-.077.383-.077.61 0 .468.097.824.296 1.062.196.25.458.375.782.375.332 0 .593-.125.781-.375.195-.238.297-.594.297-1.063zm0 0"/></symbol><symbol overflow="visible" id="D"><path d="M1.594.078a1.45 1.45 0 0 1-.547-.094.935.935 0 0 1-.39-.234A1.034 1.034 0 0 1 .39-.688a2.193 2.193 0 0 1-.079-.64v-2.203h.47v2.203c0 .168.007.305.03.406.02.117.063.219.125.313a.5.5 0 0 0 .266.203.829.829 0 0 0 .39.078.907.907 0 0 0 .391-.078.516.516 0 0 0 .266-.203.848.848 0 0 0 .125-.313 2.13 2.13 0 0 0 .031-.39v-2.22h.469v2.204c0 .242-.027.45-.078.625a1.05 1.05 0 0 1-.266.453 1.417 1.417 0 0 1-.39.25c-.149.05-.329.078-.547.078zm0 0"/></symbol><symbol overflow="visible" id="E"><path d="M1.188 0v-3.11H0v-.421h2.844v.422H1.656V0zm0 0"/></symbol><symbol overflow="visible" id="H"><path d="M2.266 0H.53v-.36h.64v-2.374H.53v-.313c.239 0 .422-.035.547-.11.113-.062.176-.19.188-.39h.359v3.188h.64zm0 0"/></symbol><symbol overflow="visible" id="K"><path d="M.36 0v-3.531h2.203v.422H.827v.968h1.625v.407H.828v1.312h1.735V0zm0 0"/></symbol><symbol overflow="visible" id="I"><path d="M0-2.266V-.53h-.36v-.64h-2.374v.64h-.313c0-.239-.035-.422-.11-.547-.062-.113-.19-.176-.39-.188v-.359h3.188v-.64zm0 0"/></symbol><symbol overflow="visible" id="J"><path d="M.063-1.344c0 .262-.028.48-.079.657-.05.18-.117.343-.203.5h-.578V-.22c.149-.156.258-.332.328-.531.086-.188.125-.375.125-.563 0-.257-.05-.453-.156-.578a.55.55 0 0 0-.438-.203A.612.612 0 0 0-1.28-2a.701.701 0 0 0-.188.344c-.031.105-.054.203-.078.297-.02.093-.05.21-.094.343a2.485 2.485 0 0 1-.109.329.83.83 0 0 1-.203.25.695.695 0 0 1-.266.171.966.966 0 0 1-.375.063.915.915 0 0 1-.719-.344c-.187-.219-.28-.5-.28-.844 0-.195.023-.382.062-.562.043-.176.094-.344.156-.5h.563v.047c-.094.105-.18.246-.266.422-.07.18-.11.367-.11.562 0 .219.047.39.141.516a.437.437 0 0 0 .406.203c.157 0 .278-.035.36-.11a.67.67 0 0 0 .203-.343c.023-.102.047-.227.078-.375.043-.133.078-.254.11-.36.074-.238.183-.414.327-.53.157-.102.344-.161.563-.173.137.012.273.043.406.094.137.055.25.133.344.234.105.118.184.246.234.391.051.148.079.324.079.531zm0 0"/></symbol><symbol overflow="visible" id="Q"><path d="M1.469 0H.203v-.328h.422v-2.61H.203v-.328H1.47v.329h-.407v2.609h.407zm0 0"/></symbol><symbol overflow="visible" id="R"><path d="M2.672 0h-.485L.734-2.828V0H.328v-3.266h.625L2.266-.687v-2.579h.406zm0 0"/></symbol><symbol overflow="visible" id="S"><path d="M2.922-1.25h-1.11v1.11h-.359v-1.11H.343v-.36h1.11v-1.109h.36v1.11h1.109zm0 0"/></symbol><symbol overflow="visible" id="T"><path d="M1.438-1.234H.202v-.391h1.234zm0 0"/></symbol><symbol overflow="visible" id="U"><path d="M2.547-1a.93.93 0 0 1-.344.734 1.068 1.068 0 0 1-.39.204A1.944 1.944 0 0 1 1.265 0H.328v-3.266h.875c.227 0 .399.008.516.016.113.023.226.059.343.11a.616.616 0 0 1 .25.25.816.816 0 0 1 .079.359.76.76 0 0 1-.11.406.878.878 0 0 1-.344.297v.016a.853.853 0 0 1 .454.28.917.917 0 0 1 .156.532zm-.61-1.469a.6.6 0 0 0-.03-.203.34.34 0 0 0-.126-.14.721.721 0 0 0-.234-.079 4.263 4.263 0 0 0-.36-.015H.766v.969h.5a.947.947 0 0 0 .296-.032.554.554 0 0 0 .204-.078.362.362 0 0 0 .14-.172.849.849 0 0 0 .032-.25zm.157 1.485a.908.908 0 0 0-.047-.313.485.485 0 0 0-.219-.203.718.718 0 0 0-.219-.063 3.713 3.713 0 0 0-.343-.015h-.5v1.203h.359c.188 0 .336-.004.453-.016a.7.7 0 0 0 .281-.125.538.538 0 0 0 .188-.187.702.702 0 0 0 .047-.281zm0 0"/></symbol><symbol overflow="visible" id="Y"><path d="M-1.125-2.61v.985h1v.328h-1v.984h-.313v-.984h-.984v-.328h.985v-.984zm0 0"/></symbol><clipPath id="V"><path d="M404 221.7h2V240h-2zm0 0"/></clipPath><clipPath id="W"><path d="M381 221.7h25v1.3h-25zm0 0"/></clipPath><clipPath id="X"><path d="M381 221.7h2V240h-2zm0 0"/></clipPath></defs><use xlink:href="#a" x="442.689" y="284.936" fill="#505050"/><use xlink:href="#b" x="445.749" y="284.936" fill="#505050"/><use xlink:href="#c" x="375.68" y="320.052" fill="#505050"/><use xlink:href="#d" x="378.98" y="320.052" fill="#505050"/><use xlink:href="#e" x="382.339" y="320.052" fill="#505050"/><use xlink:href="#e" x="385.4" y="320.052" fill="#505050"/><use xlink:href="#f" x="388.459" y="320.052" fill="#505050"/><use xlink:href="#d" x="391.519" y="320.052" fill="#505050"/><use xlink:href="#c" x="394.88" y="320.052" fill="#505050"/><use xlink:href="#g" x="398.18" y="320.052" fill="#505050"/><use xlink:href="#h" x="384.376" y="333.346" fill="#505050"/><use xlink:href="#i" x="387.435" y="333.346" fill="#505050"/><use xlink:href="#a" x="389.116" y="333.346" fill="#505050"/><use xlink:href="#j" x="392.176" y="333.346" fill="#505050"/><use xlink:href="#k" x="395.296" y="333.346" fill="#505050"/><use xlink:href="#l" x="496.93" y="288.397" fill="#505050"/><use xlink:href="#m" x="496.93" y="285.337" fill="#505050"/><use xlink:href="#l" x="496.93" y="283.657" fill="#505050"/><use xlink:href="#n" x="496.93" y="280.597" fill="#505050"/><use xlink:href="#a" x="436.479" y="356.309" fill="#505050"/><use xlink:href="#o" x="439.539" y="356.309" fill="#505050"/><use xlink:href="#a" x="441.699" y="356.309" fill="#505050"/><use xlink:href="#p" x="444.759" y="356.309" fill="#505050"/><use xlink:href="#q" x="496.93" y="265.376" fill="#505050"/><use xlink:href="#r" x="496.93" y="262.316" fill="#505050"/><use xlink:href="#s" x="496.93" y="259.256" fill="#505050"/><use xlink:href="#h" x="344.075" y="333.346" fill="#505050"/><use xlink:href="#i" x="347.135" y="333.346" fill="#505050"/><use xlink:href="#a" x="348.815" y="333.346" fill="#505050"/><use xlink:href="#j" x="351.875" y="333.346" fill="#505050"/><use xlink:href="#k" x="354.995" y="333.346" fill="#505050"/><use xlink:href="#t" x="376.028" y="371.849" fill="#505050"/><use xlink:href="#u" x="379.808" y="371.849" fill="#505050"/><use xlink:href="#v" x="383.588" y="371.849" fill="#505050"/><use xlink:href="#w" x="399.057" y="245.233" fill="#505050"/><use xlink:href="#d" x="401.157" y="245.233" fill="#505050"/><use xlink:href="#a" x="404.517" y="245.233" fill="#505050"/><use xlink:href="#x" x="388.694" y="237.751" fill="#505050"/><use xlink:href="#y" x="391.634" y="237.751" fill="#505050"/><use xlink:href="#z" x="394.934" y="237.751" fill="#505050"/><use xlink:href="#A" x="383.225" y="229.406" fill="#505050"/><use xlink:href="#B" x="385.025" y="229.406" fill="#505050"/><use xlink:href="#C" x="393.587" y="229.406" fill="#505050"/><use xlink:href="#D" x="397.007" y="229.406" fill="#505050"/><use xlink:href="#E" x="400.187" y="229.406" fill="#505050"/><use xlink:href="#F" x="446.059" y="290.115" fill="#505050"/><use xlink:href="#G" x="449.539" y="290.115" fill="#505050"/><use xlink:href="#H" x="452.83" y="267.448" fill="#505050"/><use xlink:href="#x" x="455.47" y="267.448" fill="#505050"/><use xlink:href="#I" x="438.552" y="263.42" fill="#505050"/><use xlink:href="#J" x="438.552" y="260.78" fill="#505050"/><use xlink:href="#H" x="427.455" y="267.448" fill="#505050"/><use xlink:href="#K" x="430.095" y="267.448" fill="#505050"/><use xlink:href="#L" x="414.026" y="320.051" fill="#505050"/><use xlink:href="#M" x="417.746" y="320.051" fill="#505050"/><use xlink:href="#a" x="420.806" y="320.051" fill="#505050"/><use xlink:href="#d" x="384.377" y="321.835" fill="#505050"/><use xlink:href="#a" x="387.736" y="321.835" fill="#505050"/><use xlink:href="#N" x="489.436" y="300.693" fill="#505050"/><use xlink:href="#l" x="489.436" y="297.213" fill="#505050"/><use xlink:href="#F" x="436.479" y="345.432" fill="#505050"/><use xlink:href="#a" x="439.959" y="345.432" fill="#505050"/><use xlink:href="#N" x="489.436" y="277.671" fill="#505050"/><use xlink:href="#O" x="489.436" y="274.191" fill="#505050"/><use xlink:href="#d" x="344.075" y="321.835" fill="#505050"/><use xlink:href="#P" x="347.435" y="321.835" fill="#505050"/><use xlink:href="#Q" x="296.082" y="229.587" fill="#505050"/><use xlink:href="#R" x="297.762" y="229.587" fill="#505050"/><use xlink:href="#S" x="300.762" y="229.587" fill="#505050"/><use xlink:href="#Q" x="300.641" y="350.447" fill="#505050"/><use xlink:href="#R" x="302.321" y="350.447" fill="#505050"/><use xlink:href="#T" x="305.321" y="350.447" fill="#505050"/><use xlink:href="#U" x="540.11" y="269.874" fill="#505050"/><use xlink:href="#S" x="542.75" y="269.874" fill="#505050"/><use xlink:href="#U" x="540.11" y="327.426" fill="#505050"/><use xlink:href="#T" x="542.75" y="327.426" fill="#505050"/><path d="M381.781 239.46h23.04" fill="none" stroke-width=".96" stroke-linecap="round" stroke-linejoin="round" stroke="maroon" stroke-miterlimit="10"/><g clip-path="url(#V)"><path d="M404.82 239.46v-17.222" fill="none" stroke-width=".96" stroke-linecap="round" stroke-linejoin="round" stroke="maroon" stroke-miterlimit="10"/></g><g clip-path="url(#W)"><path d="M404.82 222.238h-23.039" fill="none" stroke-width=".96" stroke-linecap="round" stroke-linejoin="round" stroke="maroon" stroke-miterlimit="10"/></g><g clip-path="url(#X)"><path d="M381.781 222.238v17.223" fill="none" stroke-width=".96" stroke-linecap="round" stroke-linejoin="round" stroke="maroon" stroke-miterlimit="10"/></g><path d="M376.02 227.941h5.761m11.519 17.278v-5.758m17.278-11.52h-5.758m34.559 36.297l8.64 8.64m.001.001l-1.2 1.14m-7.441-15.539v5.758" fill="none" stroke-width=".36" stroke-linecap="round" stroke-linejoin="round" stroke="maroon" stroke-miterlimit="10"/><path d="M437.64 270.238h11.52m0-4.019h-11.52m11.52 4.019v-1.976m0 0v-2.043m-11.52 4.019v-1.976m0 0v-2.043" fill="none" stroke-width=".6" stroke-linecap="round" stroke-linejoin="round" stroke="maroon" stroke-miterlimit="10"/><path d="M448.02 272.879l1.14-1.2m1.738-3.417h-1.738m-15.539 0h4.02M404.82 320.04l5.578 2.82m-3.117 6.062l-1.203 1.976m0 0l2.344.301m0 .001l-1.14-2.278m-2.462 2.637l1.258-.66m0-.001l3.781-1.859" fill="none" stroke-width=".36" stroke-linecap="round" stroke-linejoin="round" stroke="maroon" stroke-miterlimit="10"/><path d="M407.82 330.898l-1.261-.117m0 0l.722-1.32" fill="none" stroke-width=".72" stroke-linecap="round" stroke-linejoin="round" stroke="maroon" stroke-miterlimit="10"/><path d="M407.281 329.46l.54 1.142m-.001 0h-.84m0 0l.301-.543" fill="none" stroke-width=".6" stroke-linecap="round" stroke-linejoin="round" stroke="maroon" stroke-miterlimit="10"/><path d="M410.04 331.559h1.679v-11.52h-1.68zm0 0" fill="maroon" stroke-width=".12" stroke-linecap="round" stroke-linejoin="round" stroke="maroon" stroke-miterlimit="10"/><path d="M416.34 325.8h-5.762m-5.758 11.52v-5.761m0-17.278v5.758" fill="none" stroke-width=".36" stroke-linecap="round" stroke-linejoin="round" stroke="maroon" stroke-miterlimit="10"/><path d="M415.86 325.8a8.159 8.159 0 0 1-8.16 8.16 8.159 8.159 0 0 1-8.16-8.16 8.159 8.159 0 0 1 8.16-8.16 8.159 8.159 0 0 1 8.16 8.16zm0 0" fill="none" stroke-width=".9" stroke-linecap="round" stroke-linejoin="round" stroke="maroon" stroke-miterlimit="10"/><path d="M378.36 324.96h6.902m0 0v-2.038m-6.902 0v2.039m0-2.039h6.902" fill="none" stroke-width=".6" stroke-linecap="round" stroke-linejoin="round" stroke="maroon" stroke-miterlimit="10"/><use xlink:href="#Y" x="380.461" y="322.008" fill="maroon"/><path d="M378.059 328.68h7.441v-2.04h-7.441zm0 0" fill="maroon" stroke-width=".12" stroke-linecap="round" stroke-linejoin="round" stroke="maroon" stroke-miterlimit="10"/><path d="M381.781 334.441v-5.761m0-11.52v5.762M479.64 291.3h5.758m17.282 0h-5.758" fill="none" stroke-width=".36" stroke-linecap="round" stroke-linejoin="round" stroke="maroon" stroke-miterlimit="10"/><path d="M496.922 289.262h-11.524m0 4.019h11.524m-11.524-4.019v4.02m11.524-4.02v4.02m-57.543 57.538h11.52m-.001-4.02h-11.52m11.52 4.02v-4.02m-11.519 4.02v-4.02" fill="none" stroke-width=".6" stroke-linecap="round" stroke-linejoin="round" stroke="maroon" stroke-miterlimit="10"/><path d="M456.602 348.84h-5.704m-17.277 0h5.758m40.261-80.578h5.758m17.282 0h-5.758" fill="none" stroke-width=".36" stroke-linecap="round" stroke-linejoin="round" stroke="maroon" stroke-miterlimit="10"/><path d="M496.922 266.219h-11.524m0 4.019h11.524m-11.524-4.019v4.02m11.524-4.02v4.02M338.04 324.96h6.901m0 0v-2.038m-6.901 0v2.039m0-2.039h6.901" fill="none" stroke-width=".6" stroke-linecap="round" stroke-linejoin="round" stroke="maroon" stroke-miterlimit="10"/><use xlink:href="#Y" x="340.16" y="322.008" fill="maroon"/><path d="M337.738 328.68h7.442v-2.04h-7.442zm0 0" fill="maroon" stroke-width=".12" stroke-linecap="round" stroke-linejoin="round" stroke="maroon" stroke-miterlimit="10"/><path d="M341.46 334.441v-5.761m0-11.52v5.762" fill="none" stroke-width=".36" stroke-linecap="round" stroke-linejoin="round" stroke="maroon" stroke-miterlimit="10"/><path d="M377.46 366.121h8.642" fill="none" stroke-width=".6" stroke-linecap="round" stroke-linejoin="round" stroke="maroon" stroke-miterlimit="10"/><path d="M381.781 360.36v5.761" fill="none" stroke-width=".36" stroke-linecap="round" stroke-linejoin="round" stroke="maroon" stroke-miterlimit="10"/><path d="M318.48 227.941h-5.761" fill="none" stroke-width=".6" stroke-linecap="round" stroke-linejoin="round" stroke="maroon" stroke-miterlimit="10"/><path d="M306.66 227.941l.121-.84.36-.84.597-.66.782-.542.84-.239h.902l.898.239.719.543.601.66.36.84.12.84-.12.898-.36.84-.601.66-.719.48-.898.301h-.903l-.84-.3-.78-.481-.598-.66-.36-.84-.12-.899h.538l.121-.722.301-.66.48-.54.66-.417.72-.18h.718l.723.18.598.418.48.539.3.66.122.722-.121.778-.301.66-.48.543-.598.418-.723.18h-.719l-.718-.18-.66-.418-.48-.543-.302-.66-.12-.778h-.54" fill-rule="evenodd" fill="maroon"/><path d="M306.66 227.941l.121-.84.36-.84.597-.66.782-.542.84-.239h.902l.898.239.719.543.601.66.36.84.12.84-.12.898-.36.84-.601.66-.719.48-.898.301h-.903l-.84-.3-.78-.481-.598-.66-.36-.84-.12-.899h.538l.121-.722.301-.66.48-.54.66-.417.72-.18h.718l.723.18.598.418.48.539.3.66.122.722-.121.778-.301.66-.48.543-.598.418-.723.18h-.719l-.718-.18-.66-.418-.48-.543-.302-.66-.12-.778zm0 0" fill="none" stroke-width=".12" stroke-linecap="round" stroke-linejoin="round" stroke="maroon" stroke-miterlimit="10"/><path d="M321.36 348.84h-5.758" fill="none" stroke-width=".6" stroke-linecap="round" stroke-linejoin="round" stroke="maroon" stroke-miterlimit="10"/><path d="M309.54 348.84l.12-.899.36-.84.601-.66.777-.48.84-.242h.903l.898.242.723.48.597.66.36.84.12.899-.12.898-.36.782-.597.718-.723.48-.898.243h-.903l-.84-.242-.777-.48-.601-.72-.36-.78-.12-.9h.538l.121-.718.301-.723.48-.539.66-.359.66-.238h.778l.723.238.597.36.48.538.302.723.12.719-.12.719-.301.66-.48.543-.598.418-.723.242h-.777l-.66-.242-.66-.418-.481-.543-.3-.66-.122-.72h-.539" fill-rule="evenodd" fill="maroon"/><path d="M309.54 348.84l.12-.899.36-.84.601-.66.777-.48.84-.242h.903l.898.242.723.48.597.66.36.84.12.899-.12.898-.36.782-.597.718-.723.48-.898.243h-.903l-.84-.242-.777-.48-.601-.72-.36-.78-.12-.9h.538l.121-.718.301-.723.48-.539.66-.359.66-.238h.778l.723.238.597.36.48.538.302.723.12.719-.12.719-.301.66-.48.543-.598.418-.723.242h-.777l-.66-.242-.66-.418-.481-.543-.3-.66-.122-.72zm0 0" fill="none" stroke-width=".12" stroke-linecap="round" stroke-linejoin="round" stroke="maroon" stroke-miterlimit="10"/><path d="M525.719 268.262h5.761" fill="none" stroke-width=".6" stroke-linecap="round" stroke-linejoin="round" stroke="maroon" stroke-miterlimit="10"/><path d="M531.18 268.262l.12-.903.36-.84.602-.66.777-.48.84-.238h.902l.899.238.718.48.602.66.422.84.117.903-.117.898-.422.781-.602.72-.718.48-.899.238h-.902l-.84-.238-.777-.48-.602-.72-.36-.78-.12-.9h.601l.059-.722.36-.66.48-.598.601-.36.719-.241h.719l.722.242.598.36.48.597.301.66.121.723-.12.718-.301.66-.48.598-.599.364-.722.238H534l-.719-.238-.601-.364-.48-.597-.36-.66-.059-.72h-.601" fill-rule="evenodd" fill="maroon"/><path d="M531.18 268.262l.12-.903.36-.84.602-.66.777-.48.84-.238h.902l.899.238.718.48.602.66.422.84.117.903-.117.898-.422.781-.602.72-.718.48-.899.238h-.902l-.84-.238-.777-.48-.602-.72-.36-.78-.12-.9h.601l.059-.722.36-.66.48-.598.601-.36.719-.241h.719l.722.242.598.36.48.597.301.66.121.723-.12.718-.301.66-.48.598-.599.364-.722.238H534l-.719-.238-.601-.364-.48-.597-.36-.66-.059-.72zm0 0" fill="none" stroke-width=".12" stroke-linecap="round" stroke-linejoin="round" stroke="maroon" stroke-miterlimit="10"/><path d="M525.719 325.8h5.761" fill="none" stroke-width=".6" stroke-linecap="round" stroke-linejoin="round" stroke="maroon" stroke-miterlimit="10"/><path d="M531.18 325.8l.12-.902.36-.777.602-.723.777-.476.84-.242h.902l.899.242.718.476.602.723.422.777.117.903-.117.898-.422.84-.602.66-.718.48-.899.243h-.902l-.84-.242-.777-.48-.602-.66-.36-.84-.12-.9h.601l.059-.722.36-.656.48-.602.601-.36.719-.241h.719l.722.242.598.36.48.6.301.657.121.723-.12.719-.301.66-.48.601-.599.36-.722.238H534l-.719-.238-.601-.36-.48-.601-.36-.66-.059-.72h-.601" fill-rule="evenodd" fill="maroon"/><path d="M531.18 325.8l.12-.902.36-.777.602-.723.777-.476.84-.242h.902l.899.242.718.476.602.723.422.777.117.903-.117.898-.422.84-.602.66-.718.48-.899.243h-.902l-.84-.242-.777-.48-.602-.66-.36-.84-.12-.9h.601l.059-.722.36-.656.48-.602.601-.36.719-.241h.719l.722.242.598.36.48.6.301.657.121.723-.12.719-.301.66-.48.601-.599.36-.722.238H534l-.719-.238-.601-.36-.48-.601-.36-.66-.059-.72zm0 0" fill="none" stroke-width=".12" stroke-linecap="round" stroke-linejoin="round" stroke="maroon" stroke-miterlimit="10"/><path d="M381.781 334.441v14.399m0 0v11.52m23.039-23.04v11.52" fill="none" stroke-width=".36" stroke-linecap="round" stroke-linejoin="round" stroke="green" stroke-miterlimit="10"/><path d="M382.922 348.84a1.14 1.14 0 1 1-1.14-1.14c.628 0 1.14.51 1.14 1.14" fill-rule="evenodd" fill="green"/><path d="M382.922 348.84a1.14 1.14 0 1 1-1.14-1.14c.628 0 1.14.51 1.14 1.14zm0 0" fill="none" stroke-width=".12" stroke-linecap="round" stroke-linejoin="round" stroke="green" stroke-miterlimit="10"/><path d="M404.82 348.84h-23.039m0 0h-40.32m-.001 0v-14.4m63.36 14.4h28.801m-112.261 0h20.1" fill="none" stroke-width=".36" stroke-linecap="round" stroke-linejoin="round" stroke="green" stroke-miterlimit="10"/><path d="M342.602 348.84c0 .629-.512 1.14-1.141 1.14a1.14 1.14 0 1 1 0-2.28c.629 0 1.14.51 1.14 1.14" fill-rule="evenodd" fill="green"/><path d="M342.602 348.84c0 .629-.512 1.14-1.141 1.14a1.14 1.14 0 1 1 0-2.28c.629 0 1.14.51 1.14 1.14zm0 0" fill="none" stroke-width=".12" stroke-linecap="round" stroke-linejoin="round" stroke="green" stroke-miterlimit="10"/><path d="M405.96 348.84a1.14 1.14 0 1 1-2.28 0 1.14 1.14 0 0 1 2.28 0" fill-rule="evenodd" fill="green"/><path d="M405.96 348.84a1.14 1.14 0 1 1-2.28 0 1.14 1.14 0 0 1 2.28 0zm0 0" fill="none" stroke-width=".12" stroke-linecap="round" stroke-linejoin="round" stroke="green" stroke-miterlimit="10"/><path d="M456.602 348.84h17.277m0 0V325.8m0 0h-57.54m86.341-34.5h5.761" fill="none" stroke-width=".36" stroke-linecap="round" stroke-linejoin="round" stroke="green" stroke-miterlimit="10"/><path d="M475.02 325.8a1.14 1.14 0 1 1-2.282 0 1.14 1.14 0 1 1 2.281 0" fill-rule="evenodd" fill="green"/><path d="M475.02 325.8a1.14 1.14 0 1 1-2.282 0 1.14 1.14 0 1 1 2.281 0zm0 0" fill="none" stroke-width=".12" stroke-linecap="round" stroke-linejoin="round" stroke="green" stroke-miterlimit="10"/><path d="M508.441 325.8H473.88m51.839 0H508.44m.001 0v-34.5" fill="none" stroke-width=".36" stroke-linecap="round" stroke-linejoin="round" stroke="green" stroke-miterlimit="10"/><path d="M509.578 325.8a1.139 1.139 0 1 1-2.277 0 1.139 1.139 0 0 1 2.277 0" fill-rule="evenodd" fill="green"/><path d="M509.578 325.8a1.139 1.139 0 1 1-2.277 0 1.139 1.139 0 0 1 2.277 0zm0 0" fill="none" stroke-width=".12" stroke-linecap="round" stroke-linejoin="round" stroke="green" stroke-miterlimit="10"/><path d="M479.64 291.3h-57.538m0 0v-23.038m0 0h11.52m5.757-9.782v-1.742m0 0h34.5m0 0v11.524m0 0h5.762" fill="none" stroke-width=".36" stroke-linecap="round" stroke-linejoin="round" stroke="green" stroke-miterlimit="10"/><path d="M440.52 256.738c0 .633-.508 1.14-1.141 1.14a1.14 1.14 0 1 1 0-2.276c.633 0 1.14.507 1.14 1.136" fill-rule="evenodd" fill="green"/><path d="M440.52 256.738c0 .633-.508 1.14-1.141 1.14a1.14 1.14 0 1 1 0-2.276c.633 0 1.14.507 1.14 1.136zm0 0" fill="none" stroke-width=".12" stroke-linecap="round" stroke-linejoin="round" stroke="green" stroke-miterlimit="10"/><path d="M439.379 256.738H393.3m0 0v-11.52m0 11.52v46.024m0 0h-11.519" fill="none" stroke-width=".36" stroke-linecap="round" stroke-linejoin="round" stroke="green" stroke-miterlimit="10"/><path d="M394.441 256.738a1.14 1.14 0 1 1-2.279.003 1.14 1.14 0 0 1 2.28-.003" fill-rule="evenodd" fill="green"/><path d="M394.441 256.738a1.14 1.14 0 1 1-2.279.003 1.14 1.14 0 0 1 2.28-.003zm0 0" fill="none" stroke-width=".12" stroke-linecap="round" stroke-linejoin="round" stroke="green" stroke-miterlimit="10"/><path d="M381.781 302.762v14.398m11.519-14.398h11.52m0 0v11.52" fill="none" stroke-width=".36" stroke-linecap="round" stroke-linejoin="round" stroke="green" stroke-miterlimit="10"/><path d="M394.441 302.762c0 .629-.511 1.136-1.14 1.136a1.139 1.139 0 1 1 0-2.277c.629 0 1.14.508 1.14 1.14" fill-rule="evenodd" fill="green"/><path d="M394.441 302.762c0 .629-.511 1.136-1.14 1.136a1.139 1.139 0 1 1 0-2.277c.629 0 1.14.508 1.14 1.14zm0 0" fill="none" stroke-width=".12" stroke-linecap="round" stroke-linejoin="round" stroke="green" stroke-miterlimit="10"/><path d="M475.02 268.262c0 .629-.508 1.136-1.141 1.136a1.139 1.139 0 1 1 0-2.277c.633 0 1.14.508 1.14 1.14" fill-rule="evenodd" fill="green"/><path d="M475.02 268.262c0 .629-.508 1.136-1.141 1.136a1.139 1.139 0 1 1 0-2.277c.633 0 1.14.508 1.14 1.14zm0 0" fill="none" stroke-width=".12" stroke-linecap="round" stroke-linejoin="round" stroke="green" stroke-miterlimit="10"/><path d="M450.898 268.262h22.98m28.802 0h5.761m0 0v-40.32m0-.001h-97.863m115.141 40.321H508.44" fill="none" stroke-width=".36" stroke-linecap="round" stroke-linejoin="round" stroke="green" stroke-miterlimit="10"/><path d="M509.578 268.262a1.139 1.139 0 1 1-1.137-1.14c.63 0 1.137.507 1.137 1.14" fill-rule="evenodd" fill="green"/><path d="M509.578 268.262a1.139 1.139 0 1 1-1.137-1.14c.63 0 1.137.507 1.137 1.14zm0 0" fill="none" stroke-width=".12" stroke-linecap="round" stroke-linejoin="round" stroke="green" stroke-miterlimit="10"/><path d="M341.46 317.16v-89.219m0 0h34.56m-57.54 0h22.98" fill="none" stroke-width=".36" stroke-linecap="round" stroke-linejoin="round" stroke="green" stroke-miterlimit="10"/><path d="M342.602 227.941c0 .63-.512 1.137-1.141 1.137a1.14 1.14 0 1 1 1.14-1.137" fill-rule="evenodd" fill="green"/><path d="M342.602 227.941c0 .63-.512 1.137-1.141 1.137a1.14 1.14 0 1 1 1.14-1.137zm0 0" fill="none" stroke-width=".12" stroke-linecap="round" stroke-linejoin="round" stroke="green" stroke-miterlimit="10"/></svg>