<svg xmlns="http://www.w3.org/2000/svg" xmlns:xlink="http://www.w3.org/1999/xlink" width="842pt" height="595pt" viewBox="0 0 842 595"><defs><symbol overflow="visible" id="a"><path d="M3.656-2.047c0 .375-.078.715-.234 1.016a1.8 1.8 0 0 1-1.235.968A4.441 4.441 0 0 1 1.36 0H.422v-4.094h.922c.383 0 .691.028.922.078.207.063.39.141.546.235.27.18.477.414.626.703.144.293.218.637.218 1.031zm-.578 0c0-.32-.055-.594-.156-.812a1.194 1.194 0 0 0-.469-.532A2.058 2.058 0 0 0 2-3.578a3.486 3.486 0 0 0-.625-.047H.969v3.156h.406c.238 0 .453-.02.64-.062a1.29 1.29 0 0 0 .5-.203c.188-.133.329-.305.422-.516a2.02 2.02 0 0 0 .141-.797zm0 0"/></symbol><symbol overflow="visible" id="b"><path d="M1.563.078c-.305 0-.56-.031-.766-.094A3.082 3.082 0 0 1 .219-.25v-.672H.25a1.9 1.9 0 0 0 .61.39c.226.095.445.141.656.141.3 0 .53-.066.687-.203a.56.56 0 0 0 .235-.484.64.64 0 0 0-.126-.406.716.716 0 0 0-.39-.22 4.737 4.737 0 0 0-.344-.093 4.868 4.868 0 0 1-.39-.094 1.717 1.717 0 0 1-.375-.14 1.038 1.038 0 0 1-.297-.235.681.681 0 0 1-.204-.312A1.294 1.294 0 0 1 .25-3c0-.332.125-.613.375-.844.258-.219.594-.328 1-.328.227 0 .445.024.656.063.196.054.383.12.563.203v.64h-.047a1.93 1.93 0 0 0-.5-.312 1.747 1.747 0 0 0-.64-.125c-.25 0-.454.058-.61.172a.577.577 0 0 0-.234.469c0 .18.046.32.14.421.082.106.211.18.39.22.114.03.255.07.423.108l.421.11c.282.086.489.215.626.39.124.18.187.391.187.641 0 .168-.031.328-.094.484a.95.95 0 0 1-.281.391 1.237 1.237 0 0 1-.438.281 1.8 1.8 0 0 1-.624.094zm0 0"/></symbol><symbol overflow="visible" id="c"><path d="M2.125.078c-.293 0-.559-.043-.797-.125a1.578 1.578 0 0 1-.61-.406 1.856 1.856 0 0 1-.405-.672 3.043 3.043 0 0 1-.126-.922c0-.332.047-.629.141-.89.082-.258.211-.485.39-.672.165-.176.368-.317.61-.422a2.494 2.494 0 0 1 1.203-.11c.125.024.242.047.36.079.093.03.195.07.312.109.113.055.207.094.281.125v.656h-.046a2.22 2.22 0 0 1-.22-.172 2.536 2.536 0 0 0-.688-.313 2.175 2.175 0 0 0-.452-.046c-.398 0-.719.148-.969.437-.242.305-.359.7-.359 1.188 0 .281.031.527.094.734.062.211.156.383.281.516.113.148.254.258.422.328.164.074.351.11.562.11.157 0 .305-.008.454-.032.156-.02.285-.05.39-.094v-1.062h-.937v-.484H3.5v1.796c-.074.032-.168.07-.281.11a1.69 1.69 0 0 1-.328.11c-.137.042-.258.07-.36.093-.117.02-.25.031-.406.031zm0 0"/></symbol><symbol overflow="visible" id="d"><path d="M3.203-1.266c0 .211-.043.391-.125.547a1.05 1.05 0 0 1-.312.39c-.149.118-.309.2-.485.25-.18.056-.406.079-.687.079H.422v-4.094H1.5c.29 0 .508.008.656.016.145.023.285.07.422.14a.904.904 0 0 1 .328.313A1 1 0 0 1 3-3.172a.99.99 0 0 1-.14.516.997.997 0 0 1-.438.36v.015c.25.074.441.195.578.36.133.179.203.398.203.655zm-.765-1.828a.687.687 0 0 0-.047-.265.389.389 0 0 0-.157-.172.823.823 0 0 0-.296-.094 6.61 6.61 0 0 0-.454-.016H.97v1.204h.61c.175 0 .3-.008.374-.032a.565.565 0 0 0 .438-.312.893.893 0 0 0 .046-.313zm.187 1.86a1.12 1.12 0 0 0-.063-.391c-.042-.094-.132-.176-.265-.25-.086-.04-.18-.07-.281-.094a5.837 5.837 0 0 0-.438-.015h-.61V-.47h.438c.239 0 .426-.008.563-.031a.827.827 0 0 0 .593-.39.806.806 0 0 0 .063-.344zm0 0"/></symbol><symbol overflow="visible" id="e"><path d="M2.875-3.61H.969v1.157h1.828v.484H.969V0H.422v-4.094h2.453zm0 0"/></symbol><symbol overflow="visible" id="f"><path d="M2.828 0H.297v-.578c.176-.164.348-.332.516-.5a7.82 7.82 0 0 0 .468-.484c.313-.344.524-.618.64-.829.114-.207.173-.421.173-.64a.861.861 0 0 0-.047-.297.89.89 0 0 0-.156-.219.799.799 0 0 0-.22-.125 1.265 1.265 0 0 0-.562 0 9.15 9.15 0 0 0-.296.094 2.284 2.284 0 0 0-.391.219H.39v-.579c.101-.062.257-.117.468-.171a2.31 2.31 0 0 1 .579-.079c.382 0 .68.102.89.297.219.211.328.485.328.829 0 .167-.015.32-.047.453a2.038 2.038 0 0 1-.156.375 5.518 5.518 0 0 1-.25.359 8.59 8.59 0 0 1-.297.344A23.384 23.384 0 0 1 .812-.468h2.016zm0 0"/></symbol><symbol overflow="visible" id="g"><path d="M2.938-1.406h-.485V0h-.531v-1.406H.109v-.578l1.829-2.11h.515v2.25h.485zm-1.016-.438v-1.61L.547-1.843zm0 0"/></symbol><symbol overflow="visible" id="h"><path d="M2.781-1.313c0 .211-.031.399-.094.563A1.25 1.25 0 0 1 2-.016a1.72 1.72 0 0 1-.577.094c-.2 0-.39-.023-.578-.062a1.7 1.7 0 0 1-.5-.172v-.578h.031c.04.03.102.07.188.109.07.043.16.078.265.11.102.042.203.074.297.093.082.024.18.031.297.031a.86.86 0 0 0 .328-.062.662.662 0 0 0 .266-.188.766.766 0 0 0 .156-.28c.031-.102.047-.235.047-.391 0-.145-.016-.266-.047-.36A.573.573 0 0 0 2-1.89a.802.802 0 0 0-.297-.156 1.508 1.508 0 0 0-.39-.047c-.149 0-.293.016-.438.047a4.888 4.888 0 0 0-.36.063v-2.11h2.25v.469H1.048v1.094c.062-.008.125-.016.187-.016h.172c.207 0 .383.016.532.047.144.043.285.11.421.203.133.106.239.235.313.39.07.157.11.356.11.595zm0 0"/></symbol><symbol overflow="visible" id="z"><path d="M3.828 1c-.105.031-.21.05-.312.063-.118.007-.227.015-.329.015-.312 0-.562-.086-.75-.25-.199-.18-.304-.43-.312-.75H2c-.281 0-.531-.047-.75-.14A1.494 1.494 0 0 1 .672-.47a1.944 1.944 0 0 1-.36-.672 2.474 2.474 0 0 1-.124-.906c0-.344.039-.644.124-.906a1.98 1.98 0 0 1 .36-.672 1.45 1.45 0 0 1 .578-.422c.219-.094.469-.14.75-.14.27 0 .52.046.75.14.219.106.406.246.563.422.156.18.273.402.359.672.094.262.14.562.14.906 0 .531-.105.969-.312 1.313-.21.343-.496.578-.86.703.008.101.032.195.063.281.02.082.05.145.094.188a.38.38 0 0 0 .187.124.816.816 0 0 0 .547 0A1.35 1.35 0 0 0 3.75.5h.078zm-.594-3.047c0-.27-.027-.508-.078-.719a1.913 1.913 0 0 0-.25-.53 1.339 1.339 0 0 0-.39-.313A1.244 1.244 0 0 0 2-3.72c-.2 0-.371.04-.516.11a.977.977 0 0 0-.406.312 1.537 1.537 0 0 0-.234.531c-.063.211-.094.45-.094.72 0 .542.113.952.344 1.233.218.282.52.422.906.422.375 0 .676-.14.906-.421.219-.282.328-.692.328-1.235zm0 0"/></symbol><symbol overflow="visible" id="A"><path d="M2.625 0h-2v-.422h.734v-2.75H.625v-.375c.281 0 .488-.035.625-.11.125-.081.195-.234.219-.452h.422v3.687h.734zm0 0"/></symbol><symbol overflow="visible" id="i"><path d="M1.86 0H.436v-.297H.97V-2.25H.438v-.266c.195 0 .347-.03.453-.093.093-.051.144-.157.156-.313h.297v2.625h.515zm0 0"/></symbol><symbol overflow="visible" id="j"><path d="M1.984-.922c0 .137-.023.266-.062.39a1.304 1.304 0 0 1-.203.313.757.757 0 0 1-.297.203 1.072 1.072 0 0 1-.406.079C.867.063.726.046.594.015A1.216 1.216 0 0 1 .25-.11v-.407h.016c.03.024.078.047.14.079.051.023.114.046.188.078.07.023.14.043.203.062.062.012.133.016.219.016.07 0 .148-.016.234-.047a.389.389 0 0 0 .188-.125.604.604 0 0 0 .109-.203c.02-.07.031-.164.031-.281a.868.868 0 0 0-.031-.25.491.491 0 0 0-.125-.157.644.644 0 0 0-.203-.11 1.265 1.265 0 0 0-.282-.03 4 4 0 0 0-.312.015c-.117.024-.203.04-.266.047v-1.5h1.61v.344H.734v.781c.051-.008.098-.016.141-.016H1c.156 0 .285.012.39.032.094.031.192.078.298.14a.782.782 0 0 1 .218.282c.051.117.078.261.078.437zm0 0"/></symbol><symbol overflow="visible" id="k"><path d="M2.11-1.156c0 .367-.09.656-.266.875-.18.219-.399.328-.657.328A.83.83 0 0 1 .891 0a.74.74 0 0 1-.25-.11v.922H.266v-3H.64v.235c.082-.082.18-.156.296-.219a.907.907 0 0 1 .375-.078.67.67 0 0 1 .579.297c.144.2.218.465.218.797zm-.391.047c0-.25-.04-.442-.11-.579a.425.425 0 0 0-.39-.218 1.238 1.238 0 0 0-.313.078 1.143 1.143 0 0 0-.265.172v1.25c.093.043.175.074.25.094a.69.69 0 0 0 .234.03c.188 0 .332-.07.438-.218.101-.133.156-.336.156-.61zm0 0"/></symbol><symbol overflow="visible" id="l"><path d="M1.984 0h-.359v-1.25c0-.094-.008-.188-.016-.281a.566.566 0 0 0-.062-.203.382.382 0 0 0-.125-.125 1.042 1.042 0 0 0-.219-.047.589.589 0 0 0-.281.078c-.106.055-.2.117-.281.187V0H.266v-2.188H.64v.235a1.42 1.42 0 0 1 .312-.219.831.831 0 0 1 .344-.078c.219 0 .39.07.516.203.113.149.171.356.171.625zm0 0"/></symbol><symbol overflow="visible" id="m"><path d="M2.078 0h-.484L.78-1.063l-.14.141V0H.266v-3.047H.64v1.781l.859-.921h.453l-.89.906zm0 0"/></symbol><symbol overflow="visible" id="n"><path d="M1.516.063c-.211 0-.399-.032-.563-.094a.962.962 0 0 1-.437-.297 1.177 1.177 0 0 1-.282-.469 1.894 1.894 0 0 1-.109-.672c0-.226.035-.437.11-.625a1.33 1.33 0 0 1 .28-.484c.114-.125.258-.223.438-.297.176-.063.363-.094.563-.094.101 0 .195.008.28.016.095.023.18.043.266.062.063.024.133.047.22.079a.829.829 0 0 1 .187.093v.469h-.031a3.862 3.862 0 0 0-.141-.125 1.311 1.311 0 0 0-.219-.125c-.086-.04-.18-.07-.281-.094a1.039 1.039 0 0 0-.328-.047.798.798 0 0 0-.672.329c-.18.21-.266.492-.266.843 0 .188.024.36.078.516a.83.83 0 0 0 .188.36.745.745 0 0 0 .312.234.884.884 0 0 0 .391.078c.113 0 .223-.004.328-.016.102-.02.195-.047.281-.078v-.75h-.687v-.344h1.062v1.282c-.054.023-.117.046-.187.078-.094.03-.172.058-.235.078-.105.031-.195.05-.265.062-.074.02-.168.032-.281.032zm0 0"/></symbol><symbol overflow="visible" id="o"><path d="M2.39 0h-.437L.656-2.516V0h-.36v-2.922h.548L2.016-.609v-2.313h.375zm0 0"/></symbol><symbol overflow="visible" id="p"><path d="M2.594-1.453c0 .262-.055.5-.156.719-.106.218-.25.386-.438.5a1.33 1.33 0 0 1-.453.187A2.89 2.89 0 0 1 .969 0H.297v-2.922h.656c.281 0 .5.024.656.063.157.043.286.101.391.171.188.126.332.293.438.5.101.211.156.454.156.735zm-.406-.016c0-.218-.04-.41-.11-.578a.813.813 0 0 0-.328-.36 1.342 1.342 0 0 0-.328-.14 1.832 1.832 0 0 0-.438-.047H.688v2.266h.296c.164 0 .317-.016.454-.047a1.016 1.016 0 0 0 .656-.516c.062-.156.094-.347.094-.578zm0 0"/></symbol><symbol overflow="visible" id="q"><path d="M1-2.64a.671.671 0 0 0-.203.03.873.873 0 0 0-.219.063.582.582 0 0 0-.156.078c-.055.031-.094.059-.125.078H.266v-.406a2.29 2.29 0 0 1 .359-.125c.133-.039.27-.062.406-.062.133 0 .25.015.344.046a.62.62 0 0 1 .266.126c.093.062.16.136.203.218.039.094.062.2.062.313a.612.612 0 0 1-.156.422.669.669 0 0 1-.375.234v.031a.919.919 0 0 1 .39.188c.051.062.098.136.141.218a.78.78 0 0 1 .063.329.875.875 0 0 1-.079.359.803.803 0 0 1-.188.297.745.745 0 0 1-.312.187c-.118.051-.25.079-.407.079C.836.063.691.046.547.015a1.814 1.814 0 0 1-.36-.141v-.406H.22c.08.062.19.121.327.172a1.094 1.094 0 0 0 .656.046.559.559 0 0 0 .203-.124c.051-.063.094-.126.125-.188.02-.07.032-.16.032-.266a.687.687 0 0 0-.047-.265.491.491 0 0 0-.125-.157.446.446 0 0 0-.188-.078 1.123 1.123 0 0 0-.25-.03H.781v-.329h.14c.165 0 .306-.04.423-.125a.419.419 0 0 0 .172-.36.371.371 0 0 0-.047-.187.493.493 0 0 0-.11-.125 1.15 1.15 0 0 0-.171-.078A1.296 1.296 0 0 0 1-2.641zm0 0"/></symbol><symbol overflow="visible" id="r"><path d="M.844 0H.375v-.563h.469zm0 0"/></symbol><symbol overflow="visible" id="s"><path d="M1.969 0h-.36v-.25a1.526 1.526 0 0 1-.328.234.78.78 0 0 1-.61.032.505.505 0 0 1-.218-.157.685.685 0 0 1-.156-.25A1.29 1.29 0 0 1 .25-.766v-1.421h.375v1.25c0 .117.004.21.016.28 0 .087.015.153.046.204.032.062.07.105.125.125a.78.78 0 0 0 .516-.031 1.41 1.41 0 0 0 .281-.204v-1.625h.36zm0 0"/></symbol><symbol overflow="visible" id="t"><path d="M2.422 0h-.39v-1.422H.686V0h-.39v-2.922h.39v1.14H2.03v-1.14h.39zm0 0"/></symbol><symbol overflow="visible" id="u"><path d="M2.094-1H1.75v1h-.375v-1H.078v-.422l1.313-1.5h.359v1.61h.344zm-.719-.313v-1.14l-.984 1.14zm0 0"/></symbol><symbol overflow="visible" id="v"><path d="M2.047-2.484L.78 0H.36l1.344-2.578H.187v-.344h1.86zm0 0"/></symbol><symbol overflow="visible" id="w"><path d="M2.047-2.578H.687v.828h1.297v.344H.688V0H.296v-2.922h1.75zm0 0"/></symbol><symbol overflow="visible" id="x"><path d="M2.031-1.453c0 .523-.078.902-.234 1.14-.149.25-.383.376-.703.376C.77.063.535-.064.39-.314.234-.563.156-.94.156-1.452c0-.531.078-.914.235-1.156.156-.25.39-.375.703-.375.32 0 .554.132.703.39.156.25.234.633.234 1.14zm-.5.875a2.32 2.32 0 0 0 .078-.36 9.314 9.314 0 0 0 0-1.046 2.427 2.427 0 0 0-.078-.36.573.573 0 0 0-.172-.234.414.414 0 0 0-.265-.078.446.446 0 0 0-.266.078.512.512 0 0 0-.172.234 1.997 1.997 0 0 0-.078.375 6.995 6.995 0 0 0-.015.516c0 .2.003.371.015.516.008.136.035.257.078.359.04.105.098.183.172.234.063.055.149.078.266.078a.436.436 0 0 0 .265-.078.525.525 0 0 0 .172-.234zm0 0"/></symbol><symbol overflow="visible" id="y"><path d="M2.016 0H.219v-.406l.36-.36c.112-.101.226-.218.343-.343.219-.25.367-.446.453-.594.07-.145.113-.297.125-.453a.487.487 0 0 0-.047-.219.602.602 0 0 0-.11-.156.629.629 0 0 0-.344-.11.822.822 0 0 0-.218.032.685.685 0 0 0-.203.062 1.166 1.166 0 0 0-.156.078c-.055.031-.094.059-.125.078H.28v-.406c.07-.039.18-.082.328-.125.145-.039.286-.062.422-.062.258 0 .469.074.625.218.157.149.235.344.235.594 0 .117-.012.219-.032.313a2.19 2.19 0 0 1-.109.265 2.195 2.195 0 0 1-.188.25 4.057 4.057 0 0 1-.203.25 7.154 7.154 0 0 1-.421.422 7.96 7.96 0 0 1-.36.344h1.438zm0 0"/></symbol><symbol overflow="visible" id="B"><path d="M1.438.047a1.212 1.212 0 0 1-.532-.094A1.087 1.087 0 0 1 .5-.328a1.388 1.388 0 0 1-.281-.469 2.147 2.147 0 0 1-.094-.656c0-.25.031-.461.094-.64C.28-2.27.375-2.43.5-2.579a1.28 1.28 0 0 1 .406-.297c.156-.063.332-.094.531-.094.102 0 .196.008.282.016.082.023.16.043.234.062.063.024.129.043.203.063.063.031.125.07.188.11v.468h-.031c-.032-.031-.075-.07-.126-.125-.062-.04-.132-.082-.203-.125a2.15 2.15 0 0 0-.234-.11 1.54 1.54 0 0 0-.313-.03.767.767 0 0 0-.343.078.876.876 0 0 0-.297.218.997.997 0 0 0-.188.375 1.552 1.552 0 0 0-.078.516c0 .2.024.371.078.516a.83.83 0 0 0 .188.359c.082.105.18.18.297.219a.718.718 0 0 0 .343.078.99.99 0 0 0 .313-.047A.83.83 0 0 0 2-.422a1.42 1.42 0 0 0 .313-.234h.03v.453a2.274 2.274 0 0 0-.171.094 1.023 1.023 0 0 1-.219.078C1.867 0 1.79.019 1.72.03a2.627 2.627 0 0 1-.282.016zm0 0"/></symbol><symbol overflow="visible" id="C"><path d="M2.563 0h-.516l-.922-1.156H.687V0h-.39v-2.922h.75c.164 0 .305.012.422.031.113.024.222.063.328.125a.8.8 0 0 1 .234.25.751.751 0 0 1 .094.391.797.797 0 0 1-.172.531.913.913 0 0 1-.437.328zm-.844-2.094a.598.598 0 0 0-.047-.234.412.412 0 0 0-.14-.156.446.446 0 0 0-.188-.079c-.074-.007-.168-.019-.282-.03H.688v1.109h.344c.102 0 .203-.008.297-.032a.459.459 0 0 0 .219-.125.38.38 0 0 0 .125-.187.66.66 0 0 0 .047-.266zm0 0"/></symbol><symbol overflow="visible" id="J"><path d="M1.984 0H.297v-2.922h.39v2.578h1.297zm0 0"/></symbol><symbol overflow="visible" id="K"><path d="M2.063-.953c0 .156-.028.297-.079.422a.974.974 0 0 1-.203.312.723.723 0 0 1-.297.203.78.78 0 0 1-.343.079A1.04 1.04 0 0 1 .78 0a.891.891 0 0 1-.297-.203A1.194 1.194 0 0 1 .25-.625a2.253 2.253 0 0 1-.078-.656c0-.25.023-.477.078-.688.05-.207.129-.383.234-.531.102-.145.239-.258.407-.344.164-.082.359-.125.578-.125h.187c.063.012.114.024.157.031v.376h-.016a.676.676 0 0 0-.156-.047.87.87 0 0 0-.22-.032.784.784 0 0 0-.593.25c-.148.168-.234.414-.265.735a1.58 1.58 0 0 1 .296-.157.973.973 0 0 1 .313-.046c.113 0 .21.011.297.03a.792.792 0 0 1 .515.438c.051.125.079.274.079.438zm-.407.015a.861.861 0 0 0-.047-.296.5.5 0 0 0-.14-.204.735.735 0 0 0-.172-.093c-.074-.008-.14-.016-.203-.016a.745.745 0 0 0-.266.047 1.272 1.272 0 0 0-.265.125v.172c0 .21.019.375.062.5.04.125.086.219.14.281.051.063.11.106.172.125a.326.326 0 0 0 .204.031c.156 0 .28-.05.375-.156.093-.113.14-.285.14-.516zm0 0"/></symbol><symbol overflow="visible" id="L"><path d="M-.016 0L.97-2.922h.469L2.421 0h-.406L1.75-.813H.64L.376 0zm1.657-1.14l-.454-1.391-.437 1.39zm0 0"/></symbol><symbol overflow="visible" id="M"><path d="M2.36-2.578c.113.125.203.281.265.469.05.187.082.406.094.656 0 .23-.031.445-.094.64a1.302 1.302 0 0 1-.266.47 1.146 1.146 0 0 1-.421.312 1.376 1.376 0 0 1-.516.093c-.2 0-.375-.039-.531-.109a.87.87 0 0 1-.407-.297A1.247 1.247 0 0 1 .22-.813a2.01 2.01 0 0 1-.094-.64c0-.25.031-.469.094-.656.062-.188.148-.344.265-.47a.897.897 0 0 1 .407-.296c.156-.07.332-.11.53-.11.196 0 .376.04.532.11.156.074.29.172.406.297zm-.047 1.125c0-.195-.024-.367-.063-.516a1.015 1.015 0 0 0-.453-.61 1.18 1.18 0 0 0-.75 0 .885.885 0 0 0-.281.235c-.075.106-.133.23-.172.375a1.943 1.943 0 0 0-.063.516c0 .387.082.68.25.875.156.2.367.297.64.297a.77.77 0 0 0 .641-.297c.165-.195.25-.488.25-.875zm0 0"/></symbol><symbol overflow="visible" id="N"><path d="M1.313.063a1.27 1.27 0 0 1-.454-.079.722.722 0 0 1-.312-.187.79.79 0 0 1-.219-.375 1.719 1.719 0 0 1-.062-.516v-1.828h.39v1.828a.947.947 0 0 0 .016.328c.02.094.055.18.11.25.05.086.116.149.202.188a.78.78 0 0 0 .329.062.78.78 0 0 0 .328-.062.465.465 0 0 0 .218-.188.513.513 0 0 0 .094-.234c.02-.094.031-.207.031-.344v-1.828h.391v1.828c0 .2-.023.371-.063.516a.86.86 0 0 1-.218.375A1.08 1.08 0 0 1 1.766 0c-.125.04-.278.063-.454.063zm0 0"/></symbol><symbol overflow="visible" id="O"><path d="M.984 0v-2.578H0v-.344h2.344v.344h-.985V0zm0 0"/></symbol><symbol overflow="visible" id="P"><path d="M2.61-1.125h-.985v1h-.328v-1H.313v-.313h.984v-.984h.328v.985h.984zm0 0"/></symbol><symbol overflow="visible" id="Q"><path d="M1.625-1.719c0-.195-.016-.36-.047-.484a.918.918 0 0 0-.156-.297.421.421 0 0 0-.172-.125.629.629 0 0 0-.188-.031.479.479 0 0 0-.39.172c-.094.117-.14.28-.14.5a.76.76 0 0 0 .046.296.505.505 0 0 0 .156.22.25.25 0 0 0 .157.077 1.004 1.004 0 0 0 .484-.031.627.627 0 0 0 .25-.11v-.187zm-1.5-.25c0-.156.023-.289.078-.406a1.08 1.08 0 0 1 .203-.328c.082-.082.18-.149.297-.203a.875.875 0 0 1 .719 0 .713.713 0 0 1 .281.187c.102.117.18.258.234.422a2 2 0 0 1 .094.656c0 .25-.031.48-.094.688a1.639 1.639 0 0 1-.234.547c-.117.148-.25.261-.406.344a1.24 1.24 0 0 1-.578.124A1.182 1.182 0 0 1 .547.048.358.358 0 0 1 .39.016V-.36h.015a.317.317 0 0 0 .156.046.569.569 0 0 0 .204.032c.257 0 .46-.082.609-.25.145-.164.227-.406.25-.719-.105.063-.203.11-.297.14a.825.825 0 0 1-.312.063.83.83 0 0 1-.297-.047.663.663 0 0 1-.266-.125.745.745 0 0 1-.234-.312.963.963 0 0 1-.094-.438zm0 0"/></symbol><symbol overflow="visible" id="R"><path d="M2.406-2.922L1.406 0H.984l-1-2.922h.422L1.203-.5l.813-2.422zm0 0"/></symbol><symbol overflow="visible" id="S"><path d="M1.281-1.094H.171v-.36h1.11zm0 0"/></symbol><symbol overflow="visible" id="E"><path d="M-.016 0l.797-2.344h.375L1.953 0h-.328l-.219-.656h-.89L.296 0zm1.344-.922l-.36-1.11-.374 1.11zm0 0"/></symbol><symbol overflow="visible" id="G"><path d="M1.922 0h-.36L.532-2.031V0H.233v-2.344h.454l.937 1.86v-1.86h.297zm0 0"/></symbol><symbol overflow="visible" id="I"><path d="M.781 0v-2.078H0v-.266h1.89v.266h-.796V0zm0 0"/></symbol><clipPath id="D"><path d="M363 230.102h3V234h-3zm0 0"/></clipPath><clipPath id="F"><path d="M365 230.102h3V234h-3zm0 0"/></clipPath><clipPath id="H"><path d="M367 230.102h3V234h-3zm0 0"/></clipPath></defs><path d="M418.5 355.32v2.64m0 0h1.738m.902-1.741l.9-.899m0 0v2.64m-.9 0h1.801m3.481-1.32h1.797m3.543-1.32h1.738m0 0v.418m0 0l-1.738 1.801m0 .001v.42m5.698-2.222v1.801m0 .001l.481.42m-.901-1.741h.901m.899 0v1.32m0 .001l.422.42m0 0h1.316m0 0v-1.741m.902 1.741v-1.741m0 .84l.84-.84m0 0h.48m.9 1.741v-1.741m0 0h1.32m0 0l.421.422m0-.001v1.32m.899 0h1.32m0 0l.418-.42m0 0l-.418-.481m0 0h-.898m0 0l-.422-.418m0-.001l.422-.421m0 0h1.316m3.962 0h.901m0 0l.48.422m.001-.001v1.32m0 0h-1.383m.001 0l-.419-.42m0 0l.418-.481m.001 0h1.382m.84.901v-1.741m0 .84l.898-.84m0 0h.418m1.32 1.741h.903m-.001 0l.481-.42m0 0v-.9m0 0l-.48-.421m-.001 0h-.902m0 0l-.418.422m0-.001v.9m0 0l.418.42m2.223-1.741v1.32m0 .001l.48.42m.001 0h1.32m0 0v-1.741m.84 1.741v-1.741m0 0h1.379m-.001 0l.419.422m0-.001v1.32m2.641-2.64v2.64m0 0h-1.321m0 0l-.418-.42m-.001 0v-.9m0 0l.419-.421m0 0h1.32m5.281-.899h-1.742m0 0v1.32m0 0l.903-.421m-.001 0h.419m0 0l.421.422m0-.001v.9m0 0l-.421.42m0 0h-.899m0 0l-.422-.42m2.641.42l1.8-2.64m.841.899l.902-.899m0 0v2.64m-.902 0h1.8m2.64-2.64l-.901.418m0 0l-.899.903m0-.001v.9m0 0l.48.42m0 0h.9m0 0l.42-.42m0 0v-.481m0 0l-.42-.418m0-.001h-1.38m5.34-1.32v2.64m0 0h1.32m0 0l.418-.42m0 0v-.9m0 0l-.418-.421m0 0H483m3.059 1.741h.902m-.001 0l.419-.42m0 0v-.9m0 0l-.418-.421m-.001 0h-.901m0 0l-.418.422m-.001-.001v.9m0 0l.419.42m2.222-2.64h.48m.001 0v2.64m-.481 0h.899m1.32-2.222v1.801m0 .001l.422.42m-.844-1.741h.844m.898 2.641l.899-.9m0 0v-.42m0 0h-.48m-.001 0v.42m0 0h.48m3.962-2.222v1.801m0 .001l.422.42m-.84-1.741h.84m1.378 0h.84m0 0l.48.422m0-.001v1.32m0 0h-1.32m0 0l-.48-.42m0 0l.48-.481m0 0h1.32m.84 1.801v-2.641m0 0h1.32m0 0l.481.422m0-.001v.9m0 0l-.48.42m-.001 0h-1.32m5.758-1.741h.903m-.001 0l.419.422m0-.001v1.32m0 0h-1.32m-.001 0l-.418-.42m0 0l.418-.481m0 0h1.32m1.322-1.321v1.801m0 .001l.48.42m-.899-1.741h.899m5.28 1.741H513m0 0l1.8-1.741m0 0v-.48m0-.001l-.421-.418m0 0h-.899m0 0l-.48.418m2.7 2.222v-1.741m0 0h1.32m0 0l.421.422m0-.001v1.32m2.637-2.64v2.64m0 0h-1.316m0 0l-.422-.42m0 0v-.9m0 0l.422-.421m0 0h1.316m4.024-.481v1.801m0 .001l.418.42m-.899-1.741h.899m.902 0v1.32m0 .001l.418.42m0 0h1.32m0 0v-1.741m.899 1.741v-1.741m0 .84l.902-.84m-.001 0h.419m.902 1.741v-1.741m0 0h1.32m.001 0l.418.422m0-.001v1.32m-113.52 3.118v2.64m0 .001h1.738m2.703 0h-1.8m-.001 0l1.801-1.797m0 0v-.422m0 0l-.48-.422m-.001 0h-.901m0 0l-.418.422m5.281.898h1.797m5.281 1.321h-1.738m0 0l1.738-1.797m0 0v-.422m0 0l-.422-.422m0 0h-.898m0 0l-.418.422m4.378-.422l-.84.422m0 0l-.902.898m0 0v.84m0 0l.422.48m0 .001h.899m0 0l.422-.48m-.001-.001v-.418m0 0l-.421-.422m0 0h-1.32m5.761-.898v1.738m0 0l.418.48m-.898-1.796h.898m.902 0v1.316m0 0l.418.48m0 .001h1.32m.001 0v-1.797m.902 1.797v-1.797m0 .898l.899-.898m0 0h.421m.899 1.797v-1.797m0 0h1.32m0 0l.418.476m0 0v1.32m.902.001h1.32m0 0l.419-.48m0-.001l-.418-.418m-.001 0h-.902m0 0l-.418-.422m0 0l.418-.476m0 0h1.32m4.02 1.797h.84m0 0l.48-.48m.001-.001v-.84m0 0l-.48-.476m-.001 0h-.84m0 0l-.476.476m0 0v.84m0 0l.476.48m2.641.001V361.5m0 0l.422-.422m-.903 1.32h.903m3.539 1.321v-1.797m0 0l.898-.844m0 0l.903.844m-.001 0v1.797m-1.8-1.321h1.8m.84-1.32v2.64m0 .001l.899-.899m0 0l.902.899m0 0v-2.64m2.641.421l-.48-.422m-.001 0h-.84m.001 0l-.48.422m-.001 0v1.738m0 0l.48.48m.001.001h.84m-.001 0l.48-.48m.001-.001v-.84m0 0h-.902m4.44-.898l.419-.422m0 0h.902m0 0l.418.422m.001 0v.422m0 0l-.419.476m0 0h-.48m.48 0l.418.422m.001 0v.418m0 0l-.419.48m0 .001h-.902m0 0l-.418-.48m2.641-.001V361.5m0 0l.418-.422m0 0h.902m0 0l.418.422m0 0v1.738m0 0l-.418.48m0 .001h-.902m0 0l-.418-.48m0-.001l1.738-1.738m4.02.422h.84m0 0l.48.476m0 0v1.32m0 .001h-1.32m0 0l-.481-.48m0-.001l.48-.418m.001 0h1.32m.84.899v-1.797m0 .898l.902-.898m0 0h.476m1.321 1.797h.84m0 0l.48-.48m.001-.001v-.84m0 0l-.481-.476m0 0h-.84m0 0l-.48.476m-.001 0v.84m0 0l.48.48m2.161-1.796v1.316m0 0l.48.48m.001.001h1.32m0 0v-1.797m.898 1.797v-1.797m0 0h1.32m0 0l.422.476m0 0v1.32m2.64-2.64v2.64m0 .001h-1.32m0 0l-.421-.48m0-.001v-.84m0 0l.422-.476m-.001 0h1.32m3.54-.422l.48-.422m0 0h.84m0 0l.48.422m0 0v.422m0 0l-.48.476m0 0l.48.422m0 0v.418m0 0l-.48.48m0 .001h-.84m0 0l-.48-.48m0-.001v-.418m0 0l.48-.422m0 0l-.48-.476m0 0v-.422m.48.898h.84m1.32 1.321v-1.797m0 0h.481m0 0l.418.476m.001 0v1.32m0-1.32l.42-.476m0 0l.481.476m0 0v1.32m.899.001v-1.797m0 0h.422m0 0l.418.476m0 0v1.32m0-1.32l.48-.476m0 0l.418.476m0 0v1.32m3.962.001V361.5m0 0l.48-.422m-.899 1.32h.899m1.32 1.321h.84m0 0l.48-.48m0-.001v-.84m0 0l-.48-.476m0 0h-.84m0 0l-.48.476m0 0v.84m0 0l.48.48m2.16.001v-1.797m0 .898l.898-.898m0 0h.48m.841 1.797v-1.797m0 0h.48m.001 0l.421.476m0 0v1.32m0-1.32l.418-.476m.001 0l.48.476m0 0v1.32" fill="none" stroke-width=".24" stroke-linecap="round" stroke-linejoin="round" stroke="#505050" stroke-miterlimit="10"/><use xlink:href="#a" x="404.943" y="275.785" fill="#505050"/><use xlink:href="#b" x="428.332" y="276.36" fill="#505050"/><use xlink:href="#c" x="411.719" y="287.292" fill="#505050"/><use xlink:href="#d" x="424.134" y="290.169" fill="#505050"/><use xlink:href="#e" x="427.434" y="290.169" fill="#505050"/><use xlink:href="#f" x="430.375" y="290.169" fill="#505050"/><use xlink:href="#g" x="433.434" y="290.169" fill="#505050"/><use xlink:href="#h" x="436.495" y="290.169" fill="#505050"/><use xlink:href="#d" x="439.555" y="290.169" fill="#505050"/><use xlink:href="#i" x="387.25" y="286.149" fill="#505050"/><use xlink:href="#j" x="389.47" y="286.149" fill="#505050"/><use xlink:href="#k" x="391.689" y="286.149" fill="#505050"/><use xlink:href="#i" x="348.716" y="298.523" fill="#505050"/><use xlink:href="#l" x="350.936" y="298.523" fill="#505050"/><use xlink:href="#i" x="322.063" y="260.257" fill="#505050"/><use xlink:href="#m" x="324.283" y="260.257" fill="#505050"/><use xlink:href="#n" x="328" y="333.334" fill="#505050"/><use xlink:href="#o" x="330.7" y="333.334" fill="#505050"/><use xlink:href="#p" x="333.4" y="333.334" fill="#505050"/><use xlink:href="#n" x="414.357" y="333.334" fill="#505050"/><use xlink:href="#o" x="417.057" y="333.334" fill="#505050"/><use xlink:href="#p" x="419.757" y="333.334" fill="#505050"/><use xlink:href="#q" x="453.397" y="277.522" fill="#505050"/><use xlink:href="#r" x="455.618" y="277.522" fill="#505050"/><use xlink:href="#q" x="456.818" y="277.522" fill="#505050"/><use xlink:href="#s" x="459.037" y="277.522" fill="#505050"/><use xlink:href="#t" x="461.257" y="277.522" fill="#505050"/><use xlink:href="#u" x="413.397" y="254.507" fill="#505050"/><use xlink:href="#r" x="415.617" y="254.507" fill="#505050"/><use xlink:href="#v" x="416.817" y="254.507" fill="#505050"/><use xlink:href="#k" x="419.037" y="254.507" fill="#505050"/><use xlink:href="#w" x="421.257" y="254.507" fill="#505050"/><use xlink:href="#i" x="471.256" y="298.523" fill="#505050"/><use xlink:href="#x" x="473.476" y="298.523" fill="#505050"/><use xlink:href="#m" x="475.696" y="298.523" fill="#505050"/><use xlink:href="#u" x="498.402" y="298.523" fill="#505050"/><use xlink:href="#r" x="500.622" y="298.523" fill="#505050"/><use xlink:href="#v" x="501.822" y="298.523" fill="#505050"/><use xlink:href="#l" x="504.042" y="298.523" fill="#505050"/><use xlink:href="#i" x="506.052" y="277.522" fill="#505050"/><use xlink:href="#x" x="508.272" y="277.522" fill="#505050"/><use xlink:href="#x" x="510.492" y="277.522" fill="#505050"/><use xlink:href="#l" x="512.712" y="277.522" fill="#505050"/><use xlink:href="#n" x="489.2" y="333.334" fill="#505050"/><use xlink:href="#o" x="491.9" y="333.334" fill="#505050"/><use xlink:href="#p" x="494.6" y="333.334" fill="#505050"/><use xlink:href="#n" x="523.743" y="333.334" fill="#505050"/><use xlink:href="#o" x="526.443" y="333.334" fill="#505050"/><use xlink:href="#p" x="529.143" y="333.334" fill="#505050"/><use xlink:href="#n" x="304.911" y="333.334" fill="#505050"/><use xlink:href="#o" x="307.611" y="333.334" fill="#505050"/><use xlink:href="#p" x="310.311" y="333.334" fill="#505050"/><use xlink:href="#x" x="371.717" y="277.522" fill="#505050"/><use xlink:href="#r" x="373.937" y="277.522" fill="#505050"/><use xlink:href="#y" x="375.137" y="277.522" fill="#505050"/><use xlink:href="#y" x="377.357" y="277.522" fill="#505050"/><use xlink:href="#s" x="379.577" y="277.522" fill="#505050"/><use xlink:href="#t" x="381.797" y="277.522" fill="#505050"/><use xlink:href="#x" x="371.717" y="277.522" fill="#505050"/><use xlink:href="#r" x="373.937" y="277.522" fill="#505050"/><use xlink:href="#y" x="375.137" y="277.522" fill="#505050"/><use xlink:href="#y" x="377.357" y="277.522" fill="#505050"/><use xlink:href="#s" x="379.577" y="277.522" fill="#505050"/><use xlink:href="#t" x="381.797" y="277.522" fill="#505050"/><use xlink:href="#z" x="424.134" y="284.415" fill="#505050"/><use xlink:href="#A" x="428.155" y="284.415" fill="#505050"/><use xlink:href="#B" x="389.29" y="300.537" fill="#505050"/><use xlink:href="#q" x="391.69" y="300.537" fill="#505050"/><use xlink:href="#B" x="348.716" y="288.163" fill="#505050"/><use xlink:href="#i" x="351.116" y="288.163" fill="#505050"/><use xlink:href="#C" x="321.523" y="280.399" fill="#505050"/><use xlink:href="#i" x="324.043" y="280.399" fill="#505050"/><g clip-path="url(#D)"><use xlink:href="#E" x="363.563" y="233.214" fill="#505050"/></g><g clip-path="url(#F)"><use xlink:href="#G" x="365.483" y="233.214" fill="#505050"/></g><g clip-path="url(#H)"><use xlink:href="#I" x="367.643" y="233.214" fill="#505050"/></g><use xlink:href="#J" x="456.577" y="266.011" fill="#505050"/><use xlink:href="#y" x="458.557" y="266.011" fill="#505050"/><use xlink:href="#B" x="416.097" y="240.119" fill="#505050"/><use xlink:href="#u" x="418.497" y="240.119" fill="#505050"/><use xlink:href="#C" x="472.936" y="288.163" fill="#505050"/><use xlink:href="#y" x="475.456" y="288.163" fill="#505050"/><use xlink:href="#B" x="498.402" y="288.163" fill="#505050"/><use xlink:href="#j" x="500.802" y="288.163" fill="#505050"/><use xlink:href="#B" x="508.152" y="263.134" fill="#505050"/><use xlink:href="#K" x="510.552" y="263.134" fill="#505050"/><use xlink:href="#L" x="547.913" y="270.328" fill="#505050"/><use xlink:href="#M" x="550.313" y="270.328" fill="#505050"/><use xlink:href="#N" x="553.133" y="270.328" fill="#505050"/><use xlink:href="#O" x="555.773" y="270.328" fill="#505050"/><use xlink:href="#P" x="558.113" y="270.328" fill="#505050"/><use xlink:href="#Q" x="284.221" y="247.312" fill="#505050"/><use xlink:href="#R" x="286.441" y="247.312" fill="#505050"/><use xlink:href="#L" x="547.913" y="287.589" fill="#505050"/><use xlink:href="#M" x="550.313" y="287.589" fill="#505050"/><use xlink:href="#N" x="553.133" y="287.589" fill="#505050"/><use xlink:href="#O" x="555.773" y="287.589" fill="#505050"/><use xlink:href="#S" x="558.113" y="287.589" fill="#505050"/><use xlink:href="#n" x="280.741" y="287.589" fill="#505050"/><use xlink:href="#o" x="283.441" y="287.589" fill="#505050"/><use xlink:href="#p" x="286.141" y="287.589" fill="#505050"/><use xlink:href="#J" x="375.977" y="263.134" fill="#505050"/><use xlink:href="#i" x="377.957" y="263.134" fill="#505050"/><use xlink:href="#J" x="375.977" y="263.134" fill="#505050"/><use xlink:href="#i" x="377.957" y="263.134" fill="#505050"/><path d="M418.379 276.781v.18m0-.001v.302m0 0v.117m0 0v3M415.5 268.86v7.562m5.762.058v-7.62m-8.641 0h2.879m5.762 0h2.879m-5.762 17.28v-5.761M406.86 268.86h5.761m17.277 0h-5.757" fill="none" stroke-width=".36" stroke-linecap="round" stroke-linejoin="round" stroke="maroon" stroke-miterlimit="10"/><path d="M426.54 272.941a8.161 8.161 0 1 1-16.323-.002 8.161 8.161 0 0 1 16.322.002zm0 0" fill="none" stroke-width=".9" stroke-linecap="round" stroke-linejoin="round" stroke="maroon" stroke-miterlimit="10"/><path d="M413.762 276.96H423v-1.198h-9.238zm0 0" fill="maroon" stroke-width=".12" stroke-linecap="round" stroke-linejoin="round" stroke="maroon" stroke-miterlimit="10"/><path d="M418.379 276.96l1.14 1.142m-2.281 0l1.14-1.141m1.142 1.141h-2.282m.422-.122h1.442m0 0l-.723-.718m0 0l-.598.539m0-.001l-.12.18m.12-.18h.18m-.001 0h.84m0 0l-.421-.421m0 0l-.418.422m-16.859 8.339v4.02m0 7.5v-4.02" fill="none" stroke-width=".36" stroke-linecap="round" stroke-linejoin="round" stroke="maroon" stroke-miterlimit="10"/><path d="M404.578 287.879l-8.637 8.64m-1.741-1.738l1.741 1.739m0 0l1.739 1.742" fill="none" stroke-width=".72" stroke-linecap="round" stroke-linejoin="round" stroke="maroon" stroke-miterlimit="10"/><path d="M394.2 287.281v5.219m0 0l-.598-1.738m.598 1.738l.6-1.738" fill="none" stroke-width=".36" stroke-linecap="round" stroke-linejoin="round" stroke="maroon" stroke-miterlimit="10"/><path d="M396.48 291.36h9.239v-1.2h-9.239zm0 2.28h9.239v-1.199h-9.239zm0 0" fill="maroon" stroke-width=".12" stroke-linecap="round" stroke-linejoin="round" stroke="maroon" stroke-miterlimit="10"/><path d="M343.559 297.66v-4.02m0-7.5v4.02" fill="none" stroke-width=".36" stroke-linecap="round" stroke-linejoin="round" stroke="maroon" stroke-miterlimit="10"/><path d="M338.941 293.64h9.239v-1.199h-9.239zm0-2.28h9.239v-1.2h-9.239zm0 0" fill="maroon" stroke-width=".12" stroke-linecap="round" stroke-linejoin="round" stroke="maroon" stroke-miterlimit="10"/><path d="M330.3 263.16v11.461m3.419 0v-11.46" fill="none" stroke-width=".6" stroke-linecap="round" stroke-linejoin="round" stroke="maroon" stroke-miterlimit="10"/><path d="M337.8 268.86h-2.038" fill="none" stroke-width=".36" stroke-linecap="round" stroke-linejoin="round" stroke="maroon" stroke-miterlimit="10"/><path d="M333.719 263.16H330.3m0 11.461h3.419" fill="none" stroke-width=".6" stroke-linecap="round" stroke-linejoin="round" stroke="maroon" stroke-miterlimit="10"/><path d="M326.281 274.621v-4.562m0 0l-1.14 2.28m1.14-2.28l1.14 2.28m4.619 8.04v-5.758m0-17.223v5.762m3.722 5.7l-7.98-3.962m-.661 1.082l-2.34-2.64m0 0l3.36.48m-1.02 2.16l1.02-2.16" fill="none" stroke-width=".36" stroke-linecap="round" stroke-linejoin="round" stroke="maroon" stroke-miterlimit="10"/><path d="M328.262 326.398h7.5" fill="none" stroke-width=".6" stroke-linecap="round" stroke-linejoin="round" stroke="maroon" stroke-miterlimit="10"/><path d="M332.04 320.7v5.698" fill="none" stroke-width=".36" stroke-linecap="round" stroke-linejoin="round" stroke="maroon" stroke-miterlimit="10"/><path d="M329.7 327.602h4.62m-3.18 1.136h1.739m81.781-2.34h7.442" fill="none" stroke-width=".6" stroke-linecap="round" stroke-linejoin="round" stroke="maroon" stroke-miterlimit="10"/><path d="M418.379 320.7v5.698" fill="none" stroke-width=".36" stroke-linecap="round" stroke-linejoin="round" stroke="maroon" stroke-miterlimit="10"/><path d="M416.102 327.602h4.558m-3.12 1.136h1.679m-58.438-94.378h5.758m5.761 0l-5.76 5.761m0 0l-5.759-5.762m5.759.001v5.761m0-5.761h5.76" fill="none" stroke-width=".6" stroke-linecap="round" stroke-linejoin="round" stroke="maroon" stroke-miterlimit="10"/><path d="M366.54 245.879v-5.758" fill="none" stroke-width=".36" stroke-linecap="round" stroke-linejoin="round" stroke="maroon" stroke-miterlimit="10"/><path d="M467.34 271.738l.719-.058.722-.301.54-.48.48-.598.3-.66.118-.782" fill="none" stroke-width=".6" stroke-linecap="round" stroke-linejoin="round" stroke="maroon" stroke-miterlimit="10"/><path d="M464.46 268.86l.06.78.3.66.48.598.598.48.66.302.782.058" fill="none" stroke-width=".6" stroke-linecap="round" stroke-linejoin="round" stroke="maroon" stroke-miterlimit="10"/><path d="M461.578 271.738l.723-.058.719-.301.601-.48.418-.598.3-.66.122-.782" fill="none" stroke-width=".6" stroke-linecap="round" stroke-linejoin="round" stroke="maroon" stroke-miterlimit="10"/><path d="M458.7 268.86l.062.78.297.66.48.598.602.48.66.302.777.058m-5.758 0l.72-.058.722-.301.597-.48.422-.598.297-.66.121-.782M452.941 268.86l.059.78.3.66.481.598.598.48.66.302.781.058m-5.761 0l.722-.058.719-.301.602-.48.418-.598.3-.66.121-.782m-5.761.001l.058.78.301.66.48.598.602.48.66.302.778.058" fill="none" stroke-width=".6" stroke-linecap="round" stroke-linejoin="round" stroke="maroon" stroke-miterlimit="10"/><path d="M441.422 268.86h5.758m28.742 0h-5.703m-46.079-22.981h-4.019m-7.5 0h4.02" fill="none" stroke-width=".36" stroke-linecap="round" stroke-linejoin="round" stroke="maroon" stroke-miterlimit="10"/><path d="M418.922 250.5h1.2v-9.238h-1.2zm-2.282 0h1.2v-9.238h-1.2zm0 0" fill="maroon" stroke-width=".12" stroke-linecap="round" stroke-linejoin="round" stroke="maroon" stroke-miterlimit="10"/><path d="M481.68 280.379v5.762m0 17.281v-5.762" fill="none" stroke-width=".36" stroke-linecap="round" stroke-linejoin="round" stroke="maroon" stroke-miterlimit="10"/><path d="M483.719 297.66v-11.52m-4.019 0v11.52m4.019-11.52h-4.02m4.02 11.52h-4.02" fill="none" stroke-width=".6" stroke-linecap="round" stroke-linejoin="round" stroke="maroon" stroke-miterlimit="10"/><path d="M493.2 297.66v-4.02m0-7.5v4.02" fill="none" stroke-width=".36" stroke-linecap="round" stroke-linejoin="round" stroke="maroon" stroke-miterlimit="10"/><path d="M488.578 293.64h9.242v-1.199h-9.242zm0-2.28h9.242v-1.2h-9.242zm0 0" fill="maroon" stroke-width=".12" stroke-linecap="round" stroke-linejoin="round" stroke="maroon" stroke-miterlimit="10"/><path d="M516.238 268.86h-4.02m-7.499 0h4.02" fill="none" stroke-width=".36" stroke-linecap="round" stroke-linejoin="round" stroke="maroon" stroke-miterlimit="10"/><path d="M511.02 273.48h1.199v-9.242h-1.2zm-2.282 0h1.203v-9.242h-1.203zm0 0" fill="maroon" stroke-width=".12" stroke-linecap="round" stroke-linejoin="round" stroke="maroon" stroke-miterlimit="10"/><path d="M533.52 268.86h5.761" fill="none" stroke-width=".6" stroke-linecap="round" stroke-linejoin="round" stroke="maroon" stroke-miterlimit="10"/><path d="M538.98 268.86l.122-.84.418-.84.539-.66.78-.54.84-.242h.9l.901.242.72.54.6.66.419.84.12.84-.12.902-.418.84-.602.66-.719.476-.902.301h-.898l-.84-.3-.781-.477-.54-.66-.417-.84-.122-.903h.598l.121-.718.301-.66.48-.54.598-.421.723-.18h.719l.718.18.602.421.48.54.301.66.117.718-.117.782-.3.66-.481.539-.602.422-.718.18h-.72l-.722-.18-.598-.422-.48-.54-.3-.66-.122-.78h-.598" fill-rule="evenodd" fill="maroon"/><path d="M538.98 268.86l.122-.84.418-.84.539-.66.78-.54.84-.242h.9l.901.242.72.54.6.66.419.84.12.84-.12.902-.418.84-.602.66-.719.476-.902.301h-.898l-.84-.3-.781-.477-.54-.66-.417-.84-.122-.903h.598l.121-.718.301-.66.48-.54.598-.421.723-.18h.719l.718.18.602.421.48.54.301.66.117.718-.117.782-.3.66-.481.539-.602.422-.718.18h-.72l-.722-.18-.598-.422-.48-.54-.3-.66-.122-.78zm0 0" fill="none" stroke-width=".12" stroke-linecap="round" stroke-linejoin="round" stroke="maroon" stroke-miterlimit="10"/><path d="M489.48 326.398h7.5" fill="none" stroke-width=".6" stroke-linecap="round" stroke-linejoin="round" stroke="maroon" stroke-miterlimit="10"/><path d="M493.2 320.7v5.698" fill="none" stroke-width=".36" stroke-linecap="round" stroke-linejoin="round" stroke="maroon" stroke-miterlimit="10"/><path d="M490.922 327.602h4.617m-3.179 1.136h1.742m-190.864-82.859h-5.758" fill="none" stroke-width=".6" stroke-linecap="round" stroke-linejoin="round" stroke="maroon" stroke-miterlimit="10"/><path d="M291.422 245.879l.117-.899.422-.84.539-.66.781-.48.84-.238h.899l.902.238.777.48.54.66.421.84.121.899-.12.902-.423.778-.539.722-.777.48-.902.239h-.899l-.84-.238-.781-.48-.54-.723-.42-.778-.118-.902h.598l.12-.719.301-.66.48-.602.599-.359.718-.238h.723l.719.238.601.36.48.601.298.66.12.719-.12.723-.297.66-.48.539-.602.418-.72.242h-.722l-.718-.242-.598-.418-.48-.54-.301-.66-.121-.722h-.598" fill-rule="evenodd" fill="maroon"/><path d="M291.422 245.879l.117-.899.422-.84.539-.66.781-.48.84-.238h.899l.902.238.777.48.54.66.421.84.121.899-.12.902-.423.778-.539.722-.777.48-.902.239h-.899l-.84-.238-.781-.48-.54-.723-.42-.778-.118-.902h.598l.12-.719.301-.66.48-.602.599-.359.718-.238h.723l.719.238.601.36.48.601.298.66.12.719-.12.723-.297.66-.48.539-.602.418-.72.242h-.722l-.718-.242-.598-.418-.48-.54-.301-.66-.121-.722zm0 0" fill="none" stroke-width=".12" stroke-linecap="round" stroke-linejoin="round" stroke="maroon" stroke-miterlimit="10"/><path d="M533.52 286.14h5.761" fill="none" stroke-width=".6" stroke-linecap="round" stroke-linejoin="round" stroke="maroon" stroke-miterlimit="10"/><path d="M538.98 286.14l.122-.902.418-.777.539-.723.78-.476.84-.242h.9l.901.242.72.476.6.723.419.777.12.903-.12.898-.418.84-.602.66-.719.48-.902.243h-.898l-.84-.242-.781-.48-.54-.661-.417-.84-.122-.898h.598l.121-.72.301-.66.48-.542.598-.418.723-.242h.719l.718.242.602.418.48.543.301.66.117.719-.117.718-.3.66-.481.602-.602.36-.718.238h-.72l-.722-.239-.598-.359-.48-.601-.3-.66-.122-.72h-.598" fill-rule="evenodd" fill="maroon"/><path d="M538.98 286.14l.122-.902.418-.777.539-.723.78-.476.84-.242h.9l.901.242.72.476.6.723.419.777.12.903-.12.898-.418.84-.602.66-.719.48-.902.243h-.898l-.84-.242-.781-.48-.54-.661-.417-.84-.122-.898h.598l.121-.72.301-.66.48-.542.598-.418.723-.242h.719l.718.242.602.418.48.543.301.66.117.719-.117.718-.3.66-.481.602-.602.36-.718.238h-.72l-.722-.239-.598-.359-.48-.601-.3-.66-.122-.72zm0 0" fill="none" stroke-width=".12" stroke-linecap="round" stroke-linejoin="round" stroke="maroon" stroke-miterlimit="10"/><path d="M524.04 326.398h7.44" fill="none" stroke-width=".6" stroke-linecap="round" stroke-linejoin="round" stroke="maroon" stroke-miterlimit="10"/><path d="M527.762 320.7v5.698" fill="none" stroke-width=".36" stroke-linecap="round" stroke-linejoin="round" stroke="maroon" stroke-miterlimit="10"/><path d="M525.48 327.602h4.56m-3.118 1.136h1.68M303.238 286.14h-5.758" fill="none" stroke-width=".6" stroke-linecap="round" stroke-linejoin="round" stroke="maroon" stroke-miterlimit="10"/><path d="M291.422 286.14l.117-.902.422-.777.539-.723.781-.476.84-.242h.899l.902.242.777.476.54.723.421.777.121.903-.12.898-.423.84-.539.66-.777.48-.902.243h-.899l-.84-.242-.781-.48-.54-.661-.42-.84-.118-.898h.598l.12-.72.301-.66.48-.542.599-.418.718-.242h.723l.719.242.601.418.48.543.298.66.12.719-.12.718-.297.66-.48.602-.602.36-.72.238h-.722l-.718-.239-.598-.359-.48-.601-.301-.66-.121-.72h-.598" fill-rule="evenodd" fill="maroon"/><path d="M291.422 286.14l.117-.902.422-.777.539-.723.781-.476.84-.242h.899l.902.242.777.476.54.723.421.777.121.903-.12.898-.423.84-.539.66-.777.48-.902.243h-.899l-.84-.242-.781-.48-.54-.661-.42-.84-.118-.898h.598l.12-.72.301-.66.48-.542.599-.418.718-.242h.723l.719.242.601.418.48.543.298.66.12.719-.12.718-.297.66-.48.602-.602.36-.72.238h-.722l-.718-.239-.598-.359-.48-.601-.301-.66-.121-.72zm0 0" fill="none" stroke-width=".12" stroke-linecap="round" stroke-linejoin="round" stroke="maroon" stroke-miterlimit="10"/><path d="M312.719 326.398h-7.5" fill="none" stroke-width=".6" stroke-linecap="round" stroke-linejoin="round" stroke="maroon" stroke-miterlimit="10"/><path d="M309 320.7v5.698" fill="none" stroke-width=".36" stroke-linecap="round" stroke-linejoin="round" stroke="maroon" stroke-miterlimit="10"/><path d="M311.281 327.602h-4.62m3.179 1.136h-1.738m72.839-57l.778-.058.66-.301.601-.48.48-.598.302-.66.058-.782m-5.761.001l.12.78.301.66.418.598.602.48.719.302.722.058m-5.761 0l.78-.058.661-.301.598-.48.48-.598.301-.66.059-.782" fill="none" stroke-width=".6" stroke-linecap="round" stroke-linejoin="round" stroke="maroon" stroke-miterlimit="10"/><path d="M372.3 268.86l.122.78.297.66.422.598.597.48.723.302.719.058" fill="none" stroke-width=".6" stroke-linecap="round" stroke-linejoin="round" stroke="maroon" stroke-miterlimit="10"/><path d="M369.422 271.738l.777-.058.66-.301.602-.48.48-.598.297-.66.063-.782m-5.761.001l.12.78.3.66.419.598.601.48.72.302.722.058m-5.762 0l.781-.058.66-.301.598-.48.48-.598.301-.66.06-.782" fill="none" stroke-width=".6" stroke-linecap="round" stroke-linejoin="round" stroke="maroon" stroke-miterlimit="10"/><path d="M360.781 268.86l.117.78.301.66.422.598.598.48.722.302.72.058" fill="none" stroke-width=".6" stroke-linecap="round" stroke-linejoin="round" stroke="maroon" stroke-miterlimit="10"/><path d="M389.578 268.86h-5.758m-28.8 0h5.761" fill="none" stroke-width=".36" stroke-linecap="round" stroke-linejoin="round" stroke="maroon" stroke-miterlimit="10"/><path d="M365.762 268.86l.117-.419.36-.242.421-.12.418.241.242.36v.422l-.242.359-.418.18-.422-.063-.36-.238-.116-.48h.297l.062-.239.238-.18.301-.062.238.121.122.238v.301l-.122.242-.238.117-.3-.058-.239-.18-.062-.3h-.297" fill-rule="evenodd" fill="maroon"/><path d="M365.762 268.86l.117-.419.36-.242.421-.12.418.241.242.36v.422l-.242.359-.418.18-.422-.063-.36-.238-.116-.48h.297l.062-.239.238-.18.301-.062.238.121.122.238v.301l-.122.242-.238.117-.3-.058-.239-.18-.062-.3zm0 0" fill="none" stroke-width=".12" stroke-linecap="round" stroke-linejoin="round" stroke="maroon" stroke-miterlimit="10"/><path d="M366 268.86l.121-.301.36-.239.359.121.238.239v.422l-.238.238-.36.058-.359-.18-.121-.359h.3l.06-.12.18-.118.179.059.062.12v.18l-.062.122-.18.058-.18-.12-.058-.18H366" fill-rule="evenodd" fill="maroon"/><path d="M366 268.86l.121-.301.36-.239.359.121.238.239v.422l-.238.238-.36.058-.359-.18-.121-.359h.3l.06-.12.18-.118.179.059.062.12v.18l-.062.122-.18.058-.18-.12-.058-.18zm0 0" fill="none" stroke-width=".12" stroke-linecap="round" stroke-linejoin="round" stroke="maroon" stroke-miterlimit="10"/><path d="M366.18 268.86l.12-.239.24-.121.3.121.12.238-.12.301-.3.121-.24-.12-.12-.302h.3v-.058h.122l.058.058-.058.063-.063.058-.059-.058v-.063h-.3" fill-rule="evenodd" fill="maroon"/><path d="M366.18 268.86l.12-.239.24-.121.3.121.12.238-.12.301-.3.121-.24-.12-.12-.302h.3v-.058h.122l.058.058-.058.063-.063.058-.059-.058v-.063zm0 0" fill="none" stroke-width=".12" stroke-linecap="round" stroke-linejoin="round" stroke="maroon" stroke-miterlimit="10"/><path d="M366.3 268.86l.06-.18.18-.059.179.059.12.18-.12.242-.18.058-.18-.058-.058-.243" fill-rule="evenodd" fill="maroon"/><path d="M366.3 268.86l.06-.18.18-.059.179.059.12.18-.12.242-.18.058-.18-.058zm0 0" fill="none" stroke-width=".12" stroke-linecap="round" stroke-linejoin="round" stroke="maroon" stroke-miterlimit="10"/><path d="M365.64 268.86l.122-.419.297-.363.48-.117.48.117.36.363.121.418-.121.48-.36.36-.48.121-.48-.12-.297-.36-.121-.48h.238l.121-.301.238-.239.301-.12.36.12.242.239.058.3-.058.36-.243.242-.359.059-.3-.06-.239-.241-.121-.36h-.238" fill-rule="evenodd" fill="maroon"/><path d="M365.64 268.86l.122-.419.297-.363.48-.117.48.117.36.363.121.418-.121.48-.36.36-.48.121-.48-.12-.297-.36-.121-.48h.238l.121-.301.238-.239.301-.12.36.12.242.239.058.3-.058.36-.243.242-.359.059-.3-.06-.239-.241-.121-.36zm0 0" fill="none" stroke-width=".12" stroke-linecap="round" stroke-linejoin="round" stroke="maroon" stroke-miterlimit="10"/><path d="M380.941 271.738l.778-.058.66-.301.601-.48.48-.598.302-.66.058-.782m-5.761.001l.12.78.301.66.418.598.602.48.719.302.722.058m-5.761 0l.78-.058.661-.301.598-.48.48-.598.301-.66.059-.782" fill="none" stroke-width=".6" stroke-linecap="round" stroke-linejoin="round" stroke="maroon" stroke-miterlimit="10"/><path d="M372.3 268.86l.122.78.297.66.422.598.597.48.723.302.719.058" fill="none" stroke-width=".6" stroke-linecap="round" stroke-linejoin="round" stroke="maroon" stroke-miterlimit="10"/><path d="M369.422 271.738l.777-.058.66-.301.602-.48.48-.598.297-.66.063-.782m-5.761.001l.12.78.3.66.419.598.601.48.72.302.722.058m-5.762 0l.781-.058.66-.301.598-.48.48-.598.301-.66.06-.782" fill="none" stroke-width=".6" stroke-linecap="round" stroke-linejoin="round" stroke="maroon" stroke-miterlimit="10"/><path d="M360.781 268.86l.117.78.301.66.422.598.598.48.722.302.72.058" fill="none" stroke-width=".6" stroke-linecap="round" stroke-linejoin="round" stroke="maroon" stroke-miterlimit="10"/><path d="M365.762 268.86l.117-.419.36-.242.421-.12.418.241.242.36v.422l-.242.359-.418.18-.422-.063-.36-.238-.116-.48h.297l.062-.239.238-.18.301-.062.238.121.122.238v.301l-.122.242-.238.117-.3-.058-.239-.18-.062-.3h-.297" fill-rule="evenodd" fill="maroon"/><path d="M365.762 268.86l.117-.419.36-.242.421-.12.418.241.242.36v.422l-.242.359-.418.18-.422-.063-.36-.238-.116-.48h.297l.062-.239.238-.18.301-.062.238.121.122.238v.301l-.122.242-.238.117-.3-.058-.239-.18-.062-.3zm0 0" fill="none" stroke-width=".12" stroke-linecap="round" stroke-linejoin="round" stroke="maroon" stroke-miterlimit="10"/><path d="M366 268.86l.121-.301.36-.239.359.121.238.239v.422l-.238.238-.36.058-.359-.18-.121-.359h.3l.06-.12.18-.118.179.059.062.12v.18l-.062.122-.18.058-.18-.12-.058-.18H366" fill-rule="evenodd" fill="maroon"/><path d="M366 268.86l.121-.301.36-.239.359.121.238.239v.422l-.238.238-.36.058-.359-.18-.121-.359h.3l.06-.12.18-.118.179.059.062.12v.18l-.062.122-.18.058-.18-.12-.058-.18zm0 0" fill="none" stroke-width=".12" stroke-linecap="round" stroke-linejoin="round" stroke="maroon" stroke-miterlimit="10"/><path d="M366.18 268.86l.12-.239.24-.121.3.121.12.238-.12.301-.3.121-.24-.12-.12-.302h.3v-.058h.122l.058.058-.058.063-.063.058-.059-.058v-.063h-.3" fill-rule="evenodd" fill="maroon"/><path d="M366.18 268.86l.12-.239.24-.121.3.121.12.238-.12.301-.3.121-.24-.12-.12-.302h.3v-.058h.122l.058.058-.058.063-.063.058-.059-.058v-.063zm0 0" fill="none" stroke-width=".12" stroke-linecap="round" stroke-linejoin="round" stroke="maroon" stroke-miterlimit="10"/><path d="M366.3 268.86l.06-.18.18-.059.179.059.12.18-.12.242-.18.058-.18-.058-.058-.243" fill-rule="evenodd" fill="maroon"/><path d="M366.3 268.86l.06-.18.18-.059.179.059.12.18-.12.242-.18.058-.18-.058zm0 0" fill="none" stroke-width=".12" stroke-linecap="round" stroke-linejoin="round" stroke="maroon" stroke-miterlimit="10"/><path d="M365.64 268.86l.122-.419.297-.363.48-.117.48.117.36.363.121.418-.121.48-.36.36-.48.121-.48-.12-.297-.36-.121-.48h.238l.121-.301.238-.239.301-.12.36.12.242.239.058.3-.058.36-.243.242-.359.059-.3-.06-.239-.241-.121-.36h-.238" fill-rule="evenodd" fill="maroon"/><path d="M365.64 268.86l.122-.419.297-.363.48-.117.48.117.36.363.121.418-.121.48-.36.36-.48.121-.48-.12-.297-.36-.121-.48h.238l.121-.301.238-.239.301-.12.36.12.242.239.058.3-.058.36-.243.242-.359.059-.3-.06-.239-.241-.121-.36zm0 0" fill="none" stroke-width=".12" stroke-linecap="round" stroke-linejoin="round" stroke="maroon" stroke-miterlimit="10"/><path d="M418.379 286.14v28.801m0 0v5.758m0-5.758h-17.277" fill="none" stroke-width=".36" stroke-linecap="round" stroke-linejoin="round" stroke="green" stroke-miterlimit="10"/><path d="M419.52 314.941c0 .63-.508 1.137-1.141 1.137a1.139 1.139 0 1 1 0-2.277c.633 0 1.14.508 1.14 1.14" fill-rule="evenodd" fill="green"/><path d="M419.52 314.941c0 .63-.508 1.137-1.141 1.137a1.139 1.139 0 1 1 0-2.277c.633 0 1.14.508 1.14 1.14zm0 0" fill="none" stroke-width=".12" stroke-linecap="round" stroke-linejoin="round" stroke="green" stroke-miterlimit="10"/><path d="M401.102 297.66v17.281m-57.543-17.281v17.281m0 0h-11.52m.001 0v5.758m0-40.32v34.562" fill="none" stroke-width=".36" stroke-linecap="round" stroke-linejoin="round" stroke="green" stroke-miterlimit="10"/><path d="M333.18 314.941c0 .63-.508 1.137-1.14 1.137a1.139 1.139 0 1 1 0-2.277c.632 0 1.14.508 1.14 1.14" fill-rule="evenodd" fill="green"/><path d="M333.18 314.941c0 .63-.508 1.137-1.14 1.137a1.139 1.139 0 1 1 0-2.277c.632 0 1.14.508 1.14 1.14zm0 0" fill="none" stroke-width=".12" stroke-linecap="round" stroke-linejoin="round" stroke="green" stroke-miterlimit="10"/><path d="M481.68 303.422v11.52m0-.001h11.52m0 0v-17.28m0 23.039v-5.759" fill="none" stroke-width=".36" stroke-linecap="round" stroke-linejoin="round" stroke="green" stroke-miterlimit="10"/><path d="M494.34 314.941c0 .63-.512 1.137-1.14 1.137a1.139 1.139 0 1 1 0-2.277c.628 0 1.14.508 1.14 1.14" fill-rule="evenodd" fill="green"/><path d="M494.34 314.941c0 .63-.512 1.137-1.14 1.137a1.139 1.139 0 1 1 0-2.277c.628 0 1.14.508 1.14 1.14zm0 0" fill="none" stroke-width=".12" stroke-linecap="round" stroke-linejoin="round" stroke="green" stroke-miterlimit="10"/><path d="M527.762 320.7v-34.56m0 0h5.758M309 320.7v-34.56m0 0h-5.762m97.864-17.28h5.757m-17.281 0h11.524" fill="none" stroke-width=".36" stroke-linecap="round" stroke-linejoin="round" stroke="green" stroke-miterlimit="10"/><path d="M402.238 268.86a1.139 1.139 0 1 1-2.277 0 1.14 1.14 0 1 1 2.277 0" fill-rule="evenodd" fill="green"/><path d="M402.238 268.86a1.139 1.139 0 1 1-2.277 0 1.14 1.14 0 1 1 2.277 0zm0 0" fill="none" stroke-width=".12" stroke-linecap="round" stroke-linejoin="round" stroke="green" stroke-miterlimit="10"/><path d="M401.102 268.86v-22.981m0 0h11.52m-11.52 22.981v17.28m-46.082-17.28h-11.461m0 0v17.28m-5.759-17.28h5.759" fill="none" stroke-width=".36" stroke-linecap="round" stroke-linejoin="round" stroke="green" stroke-miterlimit="10"/><path d="M344.7 268.86a1.139 1.139 0 1 1-2.277 0 1.139 1.139 0 1 1 2.276 0" fill-rule="evenodd" fill="green"/><path d="M344.7 268.86a1.139 1.139 0 1 1-2.277 0 1.139 1.139 0 1 1 2.276 0zm0 0" fill="none" stroke-width=".12" stroke-linecap="round" stroke-linejoin="round" stroke="green" stroke-miterlimit="10"/><path d="M366.54 268.86v-22.981m57.6 0h11.52m0 0v22.98m0 .001h-5.762m5.762 0h5.762" fill="none" stroke-width=".36" stroke-linecap="round" stroke-linejoin="round" stroke="green" stroke-miterlimit="10"/><path d="M436.8 268.86a1.14 1.14 0 1 1-2.282 0 1.14 1.14 0 0 1 2.282-.001" fill-rule="evenodd" fill="green"/><path d="M436.8 268.86a1.14 1.14 0 1 1-2.282 0 1.14 1.14 0 0 1 2.282-.001zm0 0" fill="none" stroke-width=".12" stroke-linecap="round" stroke-linejoin="round" stroke="green" stroke-miterlimit="10"/><path d="M475.922 268.86h5.758m0 0v11.519m0-11.519h11.52m0 0v17.28" fill="none" stroke-width=".36" stroke-linecap="round" stroke-linejoin="round" stroke="green" stroke-miterlimit="10"/><path d="M482.82 268.86a1.14 1.14 0 1 1-2.278 0 1.14 1.14 0 0 1 2.278-.001" fill-rule="evenodd" fill="green"/><path d="M482.82 268.86a1.14 1.14 0 1 1-2.278 0 1.14 1.14 0 0 1 2.278-.001zm0 0" fill="none" stroke-width=".12" stroke-linecap="round" stroke-linejoin="round" stroke="green" stroke-miterlimit="10"/><path d="M504.719 268.86h-11.52" fill="none" stroke-width=".36" stroke-linecap="round" stroke-linejoin="round" stroke="green" stroke-miterlimit="10"/><path d="M494.34 268.86a1.142 1.142 0 1 1-1.141-1.141c.63 0 1.14.511 1.14 1.14" fill-rule="evenodd" fill="green"/><path d="M494.34 268.86a1.142 1.142 0 1 1-1.141-1.141c.63 0 1.14.511 1.14 1.14zm0 0" fill="none" stroke-width=".12" stroke-linecap="round" stroke-linejoin="round" stroke="green" stroke-miterlimit="10"/><path d="M533.52 268.86h-17.282m-213-22.981h28.801m.001 0v11.52" fill="none" stroke-width=".36" stroke-linecap="round" stroke-linejoin="round" stroke="green" stroke-miterlimit="10"/></svg>