<svg xmlns="http://www.w3.org/2000/svg" xmlns:xlink="http://www.w3.org/1999/xlink" width="595pt" height="560" viewBox="0 0 595 420"><defs><symbol overflow="visible" id="a"><path d="M.563 0H.124v-.094h.172v-.578H.125V-.75c.063 0 .11-.008.14-.031.032-.02.047-.051.047-.094h.094v.781h.156zm0 0"/></symbol><symbol overflow="visible" id="b"><path d="M1.438.047a1.212 1.212 0 0 1-.532-.094A1.087 1.087 0 0 1 .5-.328a1.388 1.388 0 0 1-.281-.469 2.147 2.147 0 0 1-.094-.656c0-.25.031-.461.094-.64C.28-2.27.375-2.43.5-2.579a1.28 1.28 0 0 1 .406-.297c.156-.063.332-.094.531-.094.102 0 .196.008.282.016.082.023.16.043.234.062.063.024.129.043.203.063.063.031.125.07.188.11v.468h-.031c-.032-.031-.075-.07-.126-.125-.062-.04-.132-.082-.203-.125a2.15 2.15 0 0 0-.234-.11 1.54 1.54 0 0 0-.313-.03.767.767 0 0 0-.343.078.876.876 0 0 0-.297.218.997.997 0 0 0-.188.375 1.552 1.552 0 0 0-.078.516c0 .2.024.371.078.516a.83.83 0 0 0 .188.359c.082.105.18.18.297.219a.718.718 0 0 0 .343.078.99.99 0 0 0 .313-.047A.83.83 0 0 0 2-.422a1.42 1.42 0 0 0 .313-.234h.03v.453a2.274 2.274 0 0 0-.171.094 1.023 1.023 0 0 1-.219.078C1.867 0 1.79.019 1.72.03a2.627 2.627 0 0 1-.282.016zm0 0"/></symbol><symbol overflow="visible" id="c"><path d="M1.86 0H.436v-.297H.97V-2.25H.438v-.266c.195 0 .347-.03.453-.093.093-.051.144-.157.156-.313h.297v2.625h.515zm0 0"/></symbol><symbol overflow="visible" id="f"><path d="M2.094-1H1.75v1h-.375v-1H.078v-.422l1.313-1.5h.359v1.61h.344zm-.719-.313v-1.14l-.984 1.14zm0 0"/></symbol><symbol overflow="visible" id="g"><path d="M1.984-.922c0 .137-.023.266-.062.39a1.304 1.304 0 0 1-.203.313.757.757 0 0 1-.297.203 1.072 1.072 0 0 1-.406.079C.867.063.726.046.594.015A1.216 1.216 0 0 1 .25-.11v-.407h.016c.03.024.078.047.14.079.051.023.114.046.188.078.07.023.14.043.203.062.062.012.133.016.219.016.07 0 .148-.016.234-.047a.389.389 0 0 0 .188-.125.604.604 0 0 0 .109-.203c.02-.07.031-.164.031-.281a.868.868 0 0 0-.031-.25.491.491 0 0 0-.125-.157.644.644 0 0 0-.203-.11 1.265 1.265 0 0 0-.282-.03 4 4 0 0 0-.312.015c-.117.024-.203.04-.266.047v-1.5h1.61v.344H.734v.781c.051-.008.098-.016.141-.016H1c.156 0 .285.012.39.032.094.031.192.078.298.14a.782.782 0 0 1 .218.282c.051.117.078.261.078.437zm0 0"/></symbol><symbol overflow="visible" id="h"><path d="M2.063-.953c0 .156-.028.297-.079.422a.974.974 0 0 1-.203.312.723.723 0 0 1-.297.203.78.78 0 0 1-.343.079A1.04 1.04 0 0 1 .78 0a.891.891 0 0 1-.297-.203A1.194 1.194 0 0 1 .25-.625a2.253 2.253 0 0 1-.078-.656c0-.25.023-.477.078-.688.05-.207.129-.383.234-.531.102-.145.239-.258.407-.344.164-.082.359-.125.578-.125h.187c.063.012.114.024.157.031v.376h-.016a.676.676 0 0 0-.156-.047.87.87 0 0 0-.22-.032.784.784 0 0 0-.593.25c-.148.168-.234.414-.265.735a1.58 1.58 0 0 1 .296-.157.973.973 0 0 1 .313-.046c.113 0 .21.011.297.03a.792.792 0 0 1 .515.438c.051.125.079.274.079.438zm-.407.015a.861.861 0 0 0-.047-.296.5.5 0 0 0-.14-.204.735.735 0 0 0-.172-.093c-.074-.008-.14-.016-.203-.016a.745.745 0 0 0-.266.047 1.272 1.272 0 0 0-.265.125v.172c0 .21.019.375.062.5.04.125.086.219.14.281.051.063.11.106.172.125a.326.326 0 0 0 .204.031c.156 0 .28-.05.375-.156.093-.113.14-.285.14-.516zm0 0"/></symbol><symbol overflow="visible" id="i"><path d="M2.719.719C2.645.727 2.57.739 2.5.75c-.086.008-.164.016-.234.016-.22 0-.399-.063-.532-.188-.136-.117-.21-.289-.218-.515h-.094c-.2 0-.375-.04-.531-.11a.87.87 0 0 1-.407-.297A1.247 1.247 0 0 1 .22-.813a2.01 2.01 0 0 1-.094-.64c0-.25.031-.469.094-.656.062-.188.148-.344.265-.47a.897.897 0 0 1 .407-.296c.156-.07.332-.11.53-.11.196 0 .376.04.532.11.156.074.29.172.406.297.114.125.204.281.266.469.05.187.082.406.094.656-.012.375-.09.683-.235.922-.148.25-.343.418-.593.5 0 .082.007.148.03.203A.34.34 0 0 0 2 .312c.031.04.07.07.125.094a1.3 1.3 0 0 0 .203.016.46.46 0 0 0 .188-.016 2.74 2.74 0 0 1 .156-.047h.047zm-.406-2.172c0-.195-.024-.367-.063-.516a1.015 1.015 0 0 0-.453-.61 1.18 1.18 0 0 0-.75 0 .885.885 0 0 0-.281.235c-.075.106-.133.23-.172.375a1.943 1.943 0 0 0-.063.516c0 .375.082.668.25.875.156.21.367.312.64.312.27 0 .485-.101.641-.312.165-.207.25-.5.25-.875zm0 0"/></symbol><symbol overflow="visible" id="l"><path d="M2.563 0h-.516l-.922-1.156H.687V0h-.39v-2.922h.75c.164 0 .305.012.422.031.113.024.222.063.328.125a.8.8 0 0 1 .234.25.751.751 0 0 1 .094.391.797.797 0 0 1-.172.531.913.913 0 0 1-.437.328zm-.844-2.094a.598.598 0 0 0-.047-.234.412.412 0 0 0-.14-.156.446.446 0 0 0-.188-.079c-.074-.007-.168-.019-.282-.03H.688v1.109h.344c.102 0 .203-.008.297-.032a.459.459 0 0 0 .219-.125.38.38 0 0 0 .125-.187.66.66 0 0 0 .047-.266zm0 0"/></symbol><symbol overflow="visible" id="m"><path d="M2.016 0H.219v-.406l.36-.36c.112-.101.226-.218.343-.343.219-.25.367-.446.453-.594.07-.145.113-.297.125-.453a.487.487 0 0 0-.047-.219.602.602 0 0 0-.11-.156.629.629 0 0 0-.344-.11.822.822 0 0 0-.218.032.685.685 0 0 0-.203.062 1.166 1.166 0 0 0-.156.078c-.055.031-.094.059-.125.078H.28v-.406c.07-.039.18-.082.328-.125.145-.039.286-.062.422-.062.258 0 .469.074.625.218.157.149.235.344.235.594 0 .117-.012.219-.032.313a2.19 2.19 0 0 1-.109.265 2.195 2.195 0 0 1-.188.25 4.057 4.057 0 0 1-.203.25 7.154 7.154 0 0 1-.421.422 7.96 7.96 0 0 1-.36.344h1.438zm0 0"/></symbol><symbol overflow="visible" id="d"><path d="M.047-1.438c.008.188-.024.368-.094.532A1.087 1.087 0 0 1-.328-.5c-.125.117-.281.21-.469.281a2.147 2.147 0 0 1-.656.094c-.25 0-.461-.031-.64-.094A1.555 1.555 0 0 1-2.579-.5a1.284 1.284 0 0 1-.297-.406 1.416 1.416 0 0 1-.094-.531c0-.102.008-.196.016-.282.023-.082.043-.16.062-.234.024-.063.043-.129.063-.203.031-.063.07-.125.11-.188h.468v.031c-.031.032-.07.075-.125.126-.04.062-.082.132-.125.203a2.15 2.15 0 0 0-.11.234c-.019.094-.03.2-.03.313 0 .125.027.242.078.343a.876.876 0 0 0 .218.297c.106.086.23.149.375.188.157.054.328.078.516.078.2 0 .371-.024.516-.078a.83.83 0 0 0 .359-.188.624.624 0 0 0 .219-.297.718.718 0 0 0 .078-.343.99.99 0 0 0-.047-.313A.83.83 0 0 0-.422-2a1.42 1.42 0 0 0-.234-.313v-.03h.453c.031.062.062.12.094.171.03.063.058.137.078.219.031.086.05.164.062.234.008.074.016.168.016.282zm0 0"/></symbol><symbol overflow="visible" id="e"><path d="M-2.64-1c0 .074.011.14.03.203a.873.873 0 0 0 .063.219.582.582 0 0 0 .078.156c.031.055.059.094.078.125v.031h-.406a2.29 2.29 0 0 1-.125-.359 1.444 1.444 0 0 1-.062-.406c0-.133.015-.25.046-.344a.62.62 0 0 1 .126-.266.596.596 0 0 1 .218-.203.81.81 0 0 1 .313-.062.61.61 0 0 1 .422.156c.125.105.203.23.234.375h.031a.919.919 0 0 1 .188-.39 1.28 1.28 0 0 1 .218-.141.875.875 0 0 1 .688.016.803.803 0 0 1 .297.187.745.745 0 0 1 .187.312c.051.118.079.25.079.407 0 .148-.016.293-.047.437-.04.137-.086.258-.141.36h-.406V-.22c.061-.08.12-.19.171-.327a1.094 1.094 0 0 0 .046-.656.559.559 0 0 0-.124-.203 1.043 1.043 0 0 0-.188-.125 1.01 1.01 0 0 0-.266-.032.687.687 0 0 0-.265.047.491.491 0 0 0-.157.125.446.446 0 0 0-.078.188c-.02.086-.03.168-.03.25v.172h-.329v-.14a.691.691 0 0 0-.125-.423.419.419 0 0 0-.36-.172.371.371 0 0 0-.187.047.493.493 0 0 0-.125.11 1.15 1.15 0 0 0-.078.171A1.296 1.296 0 0 0-2.641-1zm0 0"/></symbol><symbol overflow="visible" id="j"><path d="M0-3.219v.64l-1.453 1.157v.563H0v.484h-3.672v-.938c0-.207.012-.382.031-.53.032-.145.09-.282.172-.407.086-.125.188-.227.313-.313.136-.07.297-.109.484-.109.274 0 .496.07.672.203.188.149.324.336.406.563zm-2.64 1.063a.817.817 0 0 0-.282.047.548.548 0 0 0-.203.187.814.814 0 0 0-.094.234 1.72 1.72 0 0 0-.031.344v.485h1.39v-.422c0-.145-.015-.274-.046-.39a.537.537 0 0 0-.157-.282.54.54 0 0 0-.234-.156 1.09 1.09 0 0 0-.344-.047zm0 0"/></symbol><symbol overflow="visible" id="k"><path d="M0-2.344v1.781h-.375v-.656h-2.453v.657h-.344c0-.25-.035-.43-.11-.547-.062-.125-.195-.192-.405-.204v-.39h3.312v-.64zm0 0"/></symbol><symbol overflow="visible" id="B"><path d="M0-2.61v.594L-1.328-.984l.172.187H0v.469h-3.828v-.469h2.234L-2.75-1.89v-.578l1.14 1.14zm0 0"/></symbol><symbol overflow="visible" id="n"><path d="M1.5 0H.36v-.234h.42v-1.579H.36v-.218c.157 0 .274-.02.36-.063.07-.05.113-.14.125-.265h.25v2.125H1.5zm0 0"/></symbol><symbol overflow="visible" id="o"><path d="M1.594 0h-.297v-1.234a1.104 1.104 0 0 0-.047-.172.411.411 0 0 0-.11-.094.454.454 0 0 0-.39.031 1.066 1.066 0 0 0-.234.156V0H.219v-1.766h.297v.204A.918.918 0 0 1 .78-1.75a.617.617 0 0 1 .266-.063.5.5 0 0 1 .406.172c.094.118.14.282.14.5zm0 0"/></symbol><symbol overflow="visible" id="s"><path d="M1.688-.813h-.282V0H1.11v-.813H.063v-.328l1.046-1.203h.297v1.281h.282zm-.579-.25v-.921l-.796.921zm0 0"/></symbol><symbol overflow="visible" id="t"><path d="M1.656-2L.625 0H.297l1.078-2.078H.156v-.266h1.5zm0 0"/></symbol><symbol overflow="visible" id="u"><path d="M1.688-.922c0 .293-.07.524-.204.688a.663.663 0 0 1-.53.265.791.791 0 0 1-.438-.125v.75H.219v-2.422h.297v.188c.07-.063.156-.117.25-.172a.647.647 0 0 1 .28-.063.57.57 0 0 1 .485.235c.102.168.157.387.157.656zM1.39-.89c0-.207-.032-.363-.094-.468a.356.356 0 0 0-.313-.172.515.515 0 0 0-.25.062.798.798 0 0 0-.218.14v1c.07.044.14.071.203.079.05.012.113.016.187.016a.438.438 0 0 0 .36-.172c.082-.102.125-.266.125-.485zm0 0"/></symbol><symbol overflow="visible" id="v"><path d="M.672 0H.297v-.453h.375zm0 0"/></symbol><symbol overflow="visible" id="w"><path d="M1.64-1.172c0 .418-.062.727-.187.922-.125.2-.312.297-.562.297C.629.047.437-.051.312-.25.189-.445.126-.754.126-1.172c0-.426.063-.738.188-.937.124-.196.316-.297.578-.297.25 0 .437.105.562.312.125.211.188.516.188.922zm-.406.719c.032-.082.051-.18.063-.297a6.042 6.042 0 0 0 0-.844 1.03 1.03 0 0 0-.063-.297.387.387 0 0 0-.14-.187.34.34 0 0 0-.203-.063.355.355 0 0 0-.22.063.387.387 0 0 0-.14.187 1.076 1.076 0 0 0-.062.297 4.605 4.605 0 0 0-.016.422c0 .168.004.305.016.406.008.118.031.215.062.297.031.086.07.149.125.188.063.043.14.062.235.062a.224.224 0 0 0 .203-.062.362.362 0 0 0 .14-.172zm0 0"/></symbol><symbol overflow="visible" id="x"><path d="M1.828-.719a.796.796 0 0 1-.062.313.724.724 0 0 1-.172.219 1.164 1.164 0 0 1-.297.14A1.296 1.296 0 0 1 .907 0H.233v-2.344H.86c.164 0 .29.008.375.016a.92.92 0 0 1 .25.078.472.472 0 0 1 .188.172.634.634 0 0 1 .047.25.55.55 0 0 1-.078.297.644.644 0 0 1-.25.218.707.707 0 0 1 .328.22.61.61 0 0 1 .11.374zM1.391-1.78a.774.774 0 0 0-.016-.14.27.27 0 0 0-.094-.095.534.534 0 0 0-.172-.062H.547v.687h.36c.093 0 .163-.004.218-.015a.52.52 0 0 0 .14-.063.262.262 0 0 0 .11-.125c.008-.05.016-.113.016-.187zm.125 1.078a.433.433 0 0 0-.047-.219c-.024-.062-.074-.113-.157-.156a.676.676 0 0 0-.156-.047 2.019 2.019 0 0 0-.25-.016h-.36v.875h.266c.133 0 .239-.004.313-.015.082-.02.156-.047.219-.078A.477.477 0 0 0 1.469-.5a.924.924 0 0 0 .047-.203zm0 0"/></symbol><symbol overflow="visible" id="y"><path d="M1.64-2.078H.548v.672h1.047v.281H.547V0H.234v-2.344h1.407zm0 0"/></symbol><symbol overflow="visible" id="z"><path d="M1.625 0H.172v-.328A9.33 9.33 0 0 1 .469-.61c.094-.094.18-.188.265-.282.176-.195.301-.359.375-.484a.737.737 0 0 0 .094-.36.428.428 0 0 0-.11-.297.814.814 0 0 0-.14-.077.841.841 0 0 0-.156-.016c-.055 0-.11.008-.172.016a4.337 4.337 0 0 1-.156.062.342.342 0 0 0-.125.063 2.172 2.172 0 0 0-.11.062H.22v-.344c.062-.03.156-.062.281-.093.113-.032.223-.047.328-.047.219 0 .39.058.516.172a.66.66 0 0 1 .187.484.95.95 0 0 1-.031.25 2.037 2.037 0 0 1-.094.219c-.043.062-.09.133-.14.203-.055.074-.11.14-.172.203l-.328.328C.64-.43.539-.336.469-.266h1.156zm0 0"/></symbol><symbol overflow="visible" id="A"><path d="M1.594-.75a.973.973 0 0 1-.047.313.74.74 0 0 1-.156.25.61.61 0 0 1-.25.171.847.847 0 0 1-.329.063A1.8 1.8 0 0 1 .484.016a1.954 1.954 0 0 1-.28-.094v-.344h.015a.25.25 0 0 0 .11.063.74.74 0 0 0 .14.062.73.73 0 0 0 .172.047.41.41 0 0 0 .171.031A.416.416 0 0 0 1-.266a.31.31 0 0 0 .156-.109c.04-.04.07-.094.094-.156a.72.72 0 0 0 0-.422.967.967 0 0 0-.11-.14.648.648 0 0 0-.156-.079.917.917 0 0 0-.234-.031c-.086 0-.168.012-.25.031-.086.012-.152.024-.203.031v-1.203h1.281v.266H.594v.625h.11a.32.32 0 0 0 .109-.016c.113 0 .21.012.296.032a.788.788 0 0 1 .25.125c.07.054.13.125.172.218.04.086.063.2.063.344zm0 0"/></symbol><symbol overflow="visible" id="C"><path d="M1.672 0h-.39L.624-.844l-.11.11V0H.22v-2.453h.297v1.437l.687-.75h.375L.86-1.03zm0 0"/></symbol><symbol overflow="visible" id="p"><path d="M0-1.5v1.14h-.234v-.42h-1.579v.422h-.218a.813.813 0 0 0-.063-.36c-.05-.07-.14-.113-.265-.125v-.25h2.125V-1.5zm0 0"/></symbol><symbol overflow="visible" id="q"><path d="M-.75-1.594c.117 0 .219.016.313.047a.74.74 0 0 1 .25.156.61.61 0 0 1 .171.25c.04.094.063.204.063.329 0 .117-.012.226-.031.328-.032.117-.063.21-.094.28h-.344v-.015a.25.25 0 0 0 .063-.11.795.795 0 0 0 .062-.14A.813.813 0 0 0-.25-.64a.409.409 0 0 0 .031-.171A.416.416 0 0 0-.266-1a.31.31 0 0 0-.109-.156.438.438 0 0 0-.156-.094.72.72 0 0 0-.422 0 .967.967 0 0 0-.14.11.648.648 0 0 0-.079.156.917.917 0 0 0-.031.234c0 .086.012.168.031.25.012.086.024.152.031.203h-1.203v-1.281h.266v.984h.625v-.11a.322.322 0 0 0-.016-.109c0-.113.012-.21.032-.296a.788.788 0 0 1 .125-.25.573.573 0 0 1 .218-.172c.086-.04.2-.063.344-.063zm0 0"/></symbol><symbol overflow="visible" id="r"><path d="M-.922-1.688c.293 0 .524.07.688.204a.66.66 0 0 1 .265.53.791.791 0 0 1-.125.438h.75v.297h-2.422v-.297h.188a1.558 1.558 0 0 1-.172-.25.647.647 0 0 1-.063-.28.57.57 0 0 1 .235-.485c.168-.102.387-.157.656-.157zm.031.297c-.207 0-.363.032-.468.094a.356.356 0 0 0-.172.313c0 .093.023.18.062.25a.798.798 0 0 0 .14.218h1A.53.53 0 0 0-.25-.719a.862.862 0 0 0 .016-.187.438.438 0 0 0-.172-.36c-.102-.082-.266-.125-.485-.125zm0 0"/></symbol></defs><path d="M328.379 198.121l.781-.121.781-.238.66-.422.598-.602.422-.66.238-.777.121-.781m-7.199 3.601l.778-.121.78-.238.661-.422.602-.602.418-.66.242-.777.117-.781m-7.199 3.601l.78-.121.778-.238.66-.422.602-.602.422-.66.238-.777.121-.781m7.199 3.601l.782-.121.777-.238.66-.422.602-.602.418-.66.242-.777.117-.781m-18 0l.063.78.3.778.418.66.602.602.66.422.777.238.782.121" fill="none" stroke-width=".36" stroke-linecap="round" stroke-linejoin="round" stroke="#505050" stroke-miterlimit="10"/><path d="M283.02 230.46h21.601m0-7.198v7.199m0-14.402v-14.34m0 14.34v7.203m0 0h7.2m-43.141 7.198h7.199m7.141 0h-7.141m-28.801 0h21.602m79.14 0h-43.199m-14.402-28.741h-7.2m.001 0h7.199m0 0v-7.2m-7.199 21.54h7.199m0 0v-14.34m0 0h-7.2m-28.738 21.543h21.598m0 0v-21.543m0 0H261.48m-13.921-14.399l21.601-.12m0 0l-.48 7.32m-21.121-7.2h6.722m57.539 7.2h-7.199m0 0h-7.2m.001 0v7.199m28.797 21.543h7.203m0 0v-7.203m0 0v-7.137m0 0V194.52m0 0h7.2m7.198 14.402v7.137m-79.14 0h-21.602" fill="none" stroke-width="3.6" stroke-linecap="round" stroke-linejoin="round" stroke="navy" stroke-miterlimit="10"/><path d="M256.8 187.32a2.52 2.52 0 1 1-5.04-.002 2.52 2.52 0 0 1 5.04.002" fill-rule="evenodd" fill="green"/><path d="M256.8 187.32a2.52 2.52 0 1 1-5.04-.002 2.52 2.52 0 0 1 5.04.002zm0 0" fill="none" stroke-width=".12" stroke-linecap="round" stroke-linejoin="round" stroke="green" stroke-miterlimit="10"/><path d="M255.719 187.32c0 .793-.645 1.442-1.438 1.442a1.44 1.44 0 1 1 1.438-1.441" fill-rule="evenodd" fill="#fff"/><path d="M255.719 187.32c0 .793-.645 1.442-1.438 1.442a1.44 1.44 0 1 1 1.438-1.441zm0 0" fill="none" stroke-width=".06" stroke-linecap="square" stroke-linejoin="bevel" stroke="#000" stroke-miterlimit="10"/><path d="M350.34 216.059a2.518 2.518 0 0 1-2.52 2.52 2.52 2.52 0 1 1 2.52-2.52" fill-rule="evenodd" fill="green"/><path d="M350.34 216.059a2.518 2.518 0 0 1-2.52 2.52 2.52 2.52 0 1 1 2.52-2.52zm0 0" fill="none" stroke-width=".12" stroke-linecap="round" stroke-linejoin="round" stroke="green" stroke-miterlimit="10"/><path d="M349.262 216.059c0 .796-.649 1.441-1.442 1.441a1.44 1.44 0 1 1 1.442-1.441" fill-rule="evenodd" fill="#fff"/><path d="M349.262 216.059c0 .796-.649 1.441-1.442 1.441a1.44 1.44 0 1 1 1.442-1.441zm0 0" fill="none" stroke-width=".06" stroke-linecap="square" stroke-linejoin="bevel" stroke="#000" stroke-miterlimit="10"/><path d="M277.738 230.46a1.859 1.859 0 1 1-3.717.002 1.859 1.859 0 0 1 3.717-.001" fill-rule="evenodd" fill="green"/><path d="M277.738 230.46a1.859 1.859 0 1 1-3.717.002 1.859 1.859 0 0 1 3.717-.001zm0 0" fill="none" stroke-width=".12" stroke-linecap="round" stroke-linejoin="round" stroke="green" stroke-miterlimit="10"/><path d="M277.02 230.46a1.14 1.14 0 1 1-2.282 0c0-.632.512-1.14 1.14-1.14.634 0 1.142.508 1.142 1.14" fill-rule="evenodd" fill="#fff"/><path d="M277.02 230.46a1.14 1.14 0 1 1-2.282 0c0-.632.512-1.14 1.14-1.14.634 0 1.142.508 1.142 1.14zm0 0" fill="none" stroke-width=".06" stroke-linecap="square" stroke-linejoin="bevel" stroke="#000" stroke-miterlimit="10"/><path d="M277.738 223.262c0 1.023-.832 1.86-1.86 1.86a1.861 1.861 0 0 1 0-3.724c1.028 0 1.86.836 1.86 1.864" fill-rule="evenodd" fill="green"/><path d="M277.738 223.262c0 1.023-.832 1.86-1.86 1.86a1.861 1.861 0 0 1 0-3.724c1.028 0 1.86.836 1.86 1.864zm0 0" fill="none" stroke-width=".12" stroke-linecap="round" stroke-linejoin="round" stroke="green" stroke-miterlimit="10"/><path d="M277.02 223.262c0 .629-.508 1.136-1.141 1.136a1.139 1.139 0 1 1 0-2.277c.633 0 1.14.508 1.14 1.14" fill-rule="evenodd" fill="#fff"/><path d="M277.02 223.262c0 .629-.508 1.136-1.141 1.136a1.139 1.139 0 1 1 0-2.277c.633 0 1.14.508 1.14 1.14zm0 0" fill="none" stroke-width=".06" stroke-linecap="square" stroke-linejoin="bevel" stroke="#000" stroke-miterlimit="10"/><path d="M299.762 217.02l-1.383 1.378h-1.918l-1.383-1.378v-1.918l1.383-1.383h1.918l1.383 1.383v1.918" fill="green"/><path d="M299.762 217.02l-1.383 1.378h-1.918l-1.383-1.378v-1.918l1.383-1.383h1.918l1.383 1.383zm0 0" fill="none" stroke-width=".12" stroke-linecap="round" stroke-linejoin="round" stroke="green" stroke-miterlimit="10"/><path d="M298.98 216.059a1.561 1.561 0 1 1-3.122.002 1.561 1.561 0 0 1 3.122-.002" fill-rule="evenodd" fill="#fff"/><path d="M298.98 216.059a1.561 1.561 0 1 1-3.122.002 1.561 1.561 0 0 1 3.122-.002zm0 0" fill="none" stroke-width=".06" stroke-linecap="square" stroke-linejoin="bevel" stroke="#000" stroke-miterlimit="10"/><path d="M285.36 217.02l-1.38 1.378h-1.921l-1.38-1.378v-1.918l1.38-1.383h1.921l1.38 1.383v1.918" fill="green"/><path d="M285.36 217.02l-1.38 1.378h-1.921l-1.38-1.378v-1.918l1.38-1.383h1.921l1.38 1.383zm0 0" fill="none" stroke-width=".12" stroke-linecap="round" stroke-linejoin="round" stroke="green" stroke-miterlimit="10"/><path d="M284.578 216.059a1.559 1.559 0 1 1-3.117 0 1.558 1.558 0 1 1 3.117 0" fill-rule="evenodd" fill="#fff"/><path d="M284.578 216.059a1.559 1.559 0 1 1-3.117 0 1.558 1.558 0 1 1 3.117 0zm0 0" fill="none" stroke-width=".06" stroke-linecap="square" stroke-linejoin="bevel" stroke="#000" stroke-miterlimit="10"/><path d="M285.36 231.422l-1.38 1.379h-1.921l-1.38-1.38V229.5l1.38-1.379h1.921l1.38 1.379v1.922" fill="green"/><path d="M285.36 231.422l-1.38 1.379h-1.921l-1.38-1.38V229.5l1.38-1.379h1.921l1.38 1.379zm0 0" fill="none" stroke-width=".12" stroke-linecap="round" stroke-linejoin="round" stroke="green" stroke-miterlimit="10"/><path d="M284.578 230.46a1.558 1.558 0 1 1-3.117 0 1.559 1.559 0 1 1 3.117 0" fill-rule="evenodd" fill="#fff"/><path d="M284.578 230.46a1.558 1.558 0 1 1-3.117 0 1.559 1.559 0 1 1 3.117 0zm0 0" fill="none" stroke-width=".06" stroke-linecap="square" stroke-linejoin="bevel" stroke="#000" stroke-miterlimit="10"/><path d="M306.48 194.52a1.859 1.859 0 1 1-3.717 0 1.859 1.859 0 0 1 3.717 0" fill-rule="evenodd" fill="green"/><path d="M306.48 194.52a1.859 1.859 0 1 1-3.717 0 1.859 1.859 0 0 1 3.717 0zm0 0" fill="none" stroke-width=".12" stroke-linecap="round" stroke-linejoin="round" stroke="green" stroke-miterlimit="10"/><path d="M305.762 194.52a1.14 1.14 0 1 1-1.14-1.14 1.14 1.14 0 0 1 1.14 1.14" fill-rule="evenodd" fill="#fff"/><path d="M305.762 194.52a1.14 1.14 0 1 1-1.14-1.14 1.14 1.14 0 0 1 1.14 1.14zm0 0" fill="none" stroke-width=".06" stroke-linecap="square" stroke-linejoin="bevel" stroke="#000" stroke-miterlimit="10"/><path d="M292.078 194.52a1.859 1.859 0 1 1-3.717 0 1.859 1.859 0 0 1 3.717 0" fill-rule="evenodd" fill="green"/><path d="M292.078 194.52a1.859 1.859 0 1 1-3.718 0 1.859 1.859 0 0 1 3.718 0zm0 0" fill="none" stroke-width=".12" stroke-linecap="round" stroke-linejoin="round" stroke="green" stroke-miterlimit="10"/><path d="M291.36 194.52a1.14 1.14 0 1 1-2.282 0 1.14 1.14 0 1 1 2.281 0" fill-rule="evenodd" fill="#fff"/><path d="M291.36 194.52a1.14 1.14 0 1 1-2.282 0 1.14 1.14 0 1 1 2.281 0zm0 0" fill="none" stroke-width=".06" stroke-linecap="square" stroke-linejoin="bevel" stroke="#000" stroke-miterlimit="10"/><path d="M313.68 223.262c0 1.023-.832 1.86-1.86 1.86a1.861 1.861 0 0 1 0-3.724c1.028 0 1.86.836 1.86 1.864" fill-rule="evenodd" fill="green"/><path d="M313.68 223.262c0 1.023-.832 1.86-1.86 1.86a1.861 1.861 0 0 1 0-3.724c1.028 0 1.86.836 1.86 1.864zm0 0" fill="none" stroke-width=".12" stroke-linecap="round" stroke-linejoin="round" stroke="green" stroke-miterlimit="10"/><path d="M312.96 223.262c0 .629-.51 1.136-1.14 1.136a1.139 1.139 0 1 1 0-2.277c.63 0 1.14.508 1.14 1.14" fill-rule="evenodd" fill="#fff"/><path d="M312.96 223.262c0 .629-.51 1.136-1.14 1.136a1.139 1.139 0 1 1 0-2.277c.63 0 1.14.508 1.14 1.14zm0 0" fill="none" stroke-width=".06" stroke-linecap="square" stroke-linejoin="bevel" stroke="#000" stroke-miterlimit="10"/><path d="M328.078 223.262c0 1.023-.832 1.86-1.86 1.86a1.861 1.861 0 0 1 0-3.724c1.028 0 1.86.836 1.86 1.864" fill-rule="evenodd" fill="green"/><path d="M328.078 223.262c0 1.023-.832 1.86-1.86 1.86a1.861 1.861 0 0 1 0-3.724c1.028 0 1.86.836 1.86 1.864zm0 0" fill="none" stroke-width=".12" stroke-linecap="round" stroke-linejoin="round" stroke="green" stroke-miterlimit="10"/><path d="M327.36 223.262c0 .629-.508 1.136-1.141 1.136a1.139 1.139 0 1 1 0-2.277c.633 0 1.14.508 1.14 1.14" fill-rule="evenodd" fill="#fff"/><path d="M327.36 223.262c0 .629-.508 1.136-1.141 1.136a1.139 1.139 0 1 1 0-2.277c.633 0 1.14.508 1.14 1.14zm0 0" fill="none" stroke-width=".06" stroke-linecap="square" stroke-linejoin="bevel" stroke="#000" stroke-miterlimit="10"/><path d="M335.281 208.922c0 1.023-.836 1.86-1.86 1.86a1.865 1.865 0 0 1-1.862-1.86c0-1.027.836-1.863 1.863-1.863 1.023 0 1.86.836 1.86 1.863" fill-rule="evenodd" fill="green"/><path d="M335.281 208.922c0 1.023-.836 1.86-1.86 1.86a1.865 1.865 0 0 1-1.862-1.86c0-1.027.836-1.863 1.863-1.863 1.023 0 1.86.836 1.86 1.863zm0 0" fill="none" stroke-width=".12" stroke-linecap="round" stroke-linejoin="round" stroke="green" stroke-miterlimit="10"/><path d="M334.559 208.922c0 .629-.508 1.137-1.137 1.137-.633 0-1.14-.508-1.14-1.137 0-.633.507-1.14 1.14-1.14.629 0 1.137.507 1.137 1.14" fill-rule="evenodd" fill="#fff"/><path d="M334.559 208.922c0 .629-.508 1.137-1.137 1.137-.633 0-1.14-.508-1.14-1.137 0-.633.507-1.14 1.14-1.14.629 0 1.137.507 1.137 1.14zm0 0" fill="none" stroke-width=".06" stroke-linecap="square" stroke-linejoin="bevel" stroke="#000" stroke-miterlimit="10"/><path d="M349.68 208.922c0 1.023-.832 1.86-1.86 1.86a1.861 1.861 0 0 1 0-3.723c1.028 0 1.86.836 1.86 1.863" fill-rule="evenodd" fill="green"/><path d="M349.68 208.922c0 1.023-.832 1.86-1.86 1.86a1.861 1.861 0 0 1 0-3.723c1.028 0 1.86.836 1.86 1.863zm0 0" fill="none" stroke-width=".12" stroke-linecap="round" stroke-linejoin="round" stroke="green" stroke-miterlimit="10"/><path d="M348.96 208.922c0 .629-.51 1.137-1.14 1.137a1.139 1.139 0 1 1 0-2.278c.63 0 1.14.508 1.14 1.14" fill-rule="evenodd" fill="#fff"/><path d="M348.96 208.922c0 .629-.51 1.137-1.14 1.137a1.139 1.139 0 1 1 0-2.278c.63 0 1.14.508 1.14 1.14zm0 0" fill="none" stroke-width=".06" stroke-linecap="square" stroke-linejoin="bevel" stroke="#000" stroke-miterlimit="10"/><path d="M284.879 201.719a1.859 1.859 0 1 1-3.718 0 1.859 1.859 0 0 1 3.718 0" fill-rule="evenodd" fill="green"/><path d="M284.879 201.719a1.859 1.859 0 1 1-3.718 0 1.859 1.859 0 0 1 3.718 0zm0 0" fill="none" stroke-width=".12" stroke-linecap="round" stroke-linejoin="round" stroke="green" stroke-miterlimit="10"/><path d="M284.16 201.719a1.14 1.14 0 1 1-2.281 0 1.14 1.14 0 0 1 2.281 0" fill-rule="evenodd" fill="#fff"/><path d="M284.16 201.719a1.14 1.14 0 1 1-2.281 0 1.14 1.14 0 0 1 2.281 0zm0 0" fill="none" stroke-width=".06" stroke-linecap="square" stroke-linejoin="bevel" stroke="#000" stroke-miterlimit="10"/><path d="M263.34 201.719a1.859 1.859 0 1 1-3.718 0 1.859 1.859 0 0 1 3.718 0" fill-rule="evenodd" fill="green"/><path d="M263.34 201.719a1.859 1.859 0 1 1-3.718 0 1.859 1.859 0 0 1 3.718 0zm0 0" fill="none" stroke-width=".12" stroke-linecap="round" stroke-linejoin="round" stroke="green" stroke-miterlimit="10"/><path d="M262.621 201.719a1.14 1.14 0 1 1-2.281 0 1.14 1.14 0 0 1 2.281 0" fill-rule="evenodd" fill="#fff"/><path d="M262.621 201.719a1.14 1.14 0 1 1-2.281 0 1.14 1.14 0 0 1 2.281 0zm0 0" fill="none" stroke-width=".06" stroke-linecap="square" stroke-linejoin="bevel" stroke="#000" stroke-miterlimit="10"/><path d="M270.54 194.52a1.859 1.859 0 1 1-3.719 0 1.859 1.859 0 0 1 3.718 0" fill-rule="evenodd" fill="green"/><path d="M270.54 194.52a1.859 1.859 0 1 1-3.719 0 1.859 1.859 0 0 1 3.718 0zm0 0" fill="none" stroke-width=".12" stroke-linecap="round" stroke-linejoin="round" stroke="green" stroke-miterlimit="10"/><path d="M269.82 194.52a1.14 1.14 0 1 1-2.278 0 1.14 1.14 0 0 1 2.278-.001" fill-rule="evenodd" fill="#fff"/><path d="M269.82 194.52a1.14 1.14 0 1 1-2.278 0 1.14 1.14 0 0 1 2.278-.001zm0 0" fill="none" stroke-width=".06" stroke-linecap="square" stroke-linejoin="bevel" stroke="#000" stroke-miterlimit="10"/><path d="M313.68 194.52a1.859 1.859 0 1 1-3.718 0 1.859 1.859 0 0 1 3.718 0" fill-rule="evenodd" fill="green"/><path d="M313.68 194.52a1.859 1.859 0 1 1-3.718 0 1.859 1.859 0 0 1 3.718 0zm0 0" fill="none" stroke-width=".12" stroke-linecap="round" stroke-linejoin="round" stroke="green" stroke-miterlimit="10"/><path d="M312.96 194.52a1.14 1.14 0 1 1-2.282 0 1.14 1.14 0 0 1 2.282-.001" fill-rule="evenodd" fill="#fff"/><path d="M312.96 194.52a1.14 1.14 0 1 1-2.282 0 1.14 1.14 0 0 1 2.282-.001zm0 0" fill="none" stroke-width=".06" stroke-linecap="square" stroke-linejoin="bevel" stroke="#000" stroke-miterlimit="10"/><path d="M342.48 194.52a1.859 1.859 0 1 1-3.717 0 1.859 1.859 0 0 1 3.717 0" fill-rule="evenodd" fill="green"/><path d="M342.48 194.52a1.859 1.859 0 1 1-3.717 0 1.859 1.859 0 0 1 3.717 0zm0 0" fill="none" stroke-width=".12" stroke-linecap="round" stroke-linejoin="round" stroke="green" stroke-miterlimit="10"/><path d="M341.762 194.52a1.14 1.14 0 1 1-1.14-1.14 1.14 1.14 0 0 1 1.14 1.14" fill-rule="evenodd" fill="#fff"/><path d="M341.762 194.52a1.14 1.14 0 1 1-1.14-1.14 1.14 1.14 0 0 1 1.14 1.14zm0 0" fill="none" stroke-width=".06" stroke-linecap="square" stroke-linejoin="bevel" stroke="#000" stroke-miterlimit="10"/><path d="M292.078 202.5L291 203.578h-1.559l-1.082-1.078v-1.559l1.082-1.082H291l1.078 1.082v1.559" fill="green"/><path d="M292.078 202.5L291 203.578h-1.559l-1.082-1.078v-1.559l1.082-1.082H291l1.078 1.082zm0 0" fill="none" stroke-width=".12" stroke-linecap="round" stroke-linejoin="round" stroke="green" stroke-miterlimit="10"/><path d="M291.36 201.719c0 .633-.508 1.14-1.141 1.14a1.14 1.14 0 1 1 0-2.28c.633 0 1.14.51 1.14 1.14" fill-rule="evenodd" fill="#fff"/><path d="M291.36 201.719c0 .633-.508 1.14-1.141 1.14a1.14 1.14 0 1 1 0-2.28c.633 0 1.14.51 1.14 1.14zm0 0" fill="none" stroke-width=".06" stroke-linecap="square" stroke-linejoin="bevel" stroke="#000" stroke-miterlimit="10"/><path d="M306.48 202.5l-1.082 1.078h-1.558l-1.078-1.078v-1.559l1.078-1.082h1.558l1.082 1.082v1.559" fill="green"/><path d="M306.48 202.5l-1.082 1.078h-1.558l-1.078-1.078v-1.559l1.078-1.082h1.558l1.082 1.082zm0 0" fill="none" stroke-width=".12" stroke-linecap="round" stroke-linejoin="round" stroke="green" stroke-miterlimit="10"/><path d="M305.762 201.719a1.14 1.14 0 0 1-1.14 1.14 1.14 1.14 0 1 1 1.14-1.14" fill-rule="evenodd" fill="#fff"/><path d="M305.762 201.719a1.14 1.14 0 0 1-1.14 1.14 1.14 1.14 0 1 1 1.14-1.14zm0 0" fill="none" stroke-width=".06" stroke-linecap="square" stroke-linejoin="bevel" stroke="#000" stroke-miterlimit="10"/><path d="M299.281 202.5l-1.082 1.078h-1.558l-1.082-1.078v-1.559l1.082-1.082h1.558l1.082 1.082v1.559" fill="green"/><path d="M299.281 202.5l-1.082 1.078h-1.558l-1.082-1.078v-1.559l1.082-1.082h1.558l1.082 1.082zm0 0" fill="none" stroke-width=".12" stroke-linecap="round" stroke-linejoin="round" stroke="green" stroke-miterlimit="10"/><path d="M298.559 201.719c0 .633-.508 1.14-1.137 1.14-.633 0-1.14-.507-1.14-1.14a1.14 1.14 0 1 1 2.277 0" fill-rule="evenodd" fill="#fff"/><path d="M298.559 201.719c0 .633-.508 1.14-1.137 1.14-.633 0-1.14-.507-1.14-1.14a1.14 1.14 0 1 1 2.277 0zm0 0" fill="none" stroke-width=".06" stroke-linecap="square" stroke-linejoin="bevel" stroke="#000" stroke-miterlimit="10"/><path d="M257.04 223.262a2.76 2.76 0 1 1-2.758-2.762 2.758 2.758 0 0 1 2.757 2.762" fill-rule="evenodd" fill="green"/><path d="M257.04 223.262a2.76 2.76 0 1 1-2.758-2.762 2.758 2.758 0 0 1 2.757 2.762zm0 0" fill="none" stroke-width=".12" stroke-linecap="round" stroke-linejoin="round" stroke="green" stroke-miterlimit="10"/><path d="M255.719 223.262a1.439 1.439 0 1 1-2.878-.003 1.439 1.439 0 0 1 2.878.003" fill-rule="evenodd" fill="#fff"/><path d="M255.719 223.262a1.439 1.439 0 1 1-2.878-.003 1.439 1.439 0 0 1 2.878.003zm0 0" fill="none" stroke-width=".06" stroke-linecap="square" stroke-linejoin="bevel" stroke="#000" stroke-miterlimit="10"/><path d="M271.441 230.46a2.76 2.76 0 0 1-5.52 0 2.76 2.76 0 0 1 2.759-2.76 2.764 2.764 0 0 1 2.761 2.76" fill-rule="evenodd" fill="green"/><path d="M271.441 230.46a2.76 2.76 0 0 1-5.52 0 2.76 2.76 0 0 1 2.759-2.76 2.764 2.764 0 0 1 2.761 2.76zm0 0" fill="none" stroke-width=".12" stroke-linecap="round" stroke-linejoin="round" stroke="green" stroke-miterlimit="10"/><path d="M270.121 230.46a1.442 1.442 0 0 1-2.883 0c0-.796.649-1.44 1.442-1.44a1.44 1.44 0 0 1 1.441 1.44" fill-rule="evenodd" fill="#fff"/><path d="M270.121 230.46a1.442 1.442 0 0 1-2.883 0c0-.796.649-1.44 1.442-1.44a1.44 1.44 0 0 1 1.441 1.44zm0 0" fill="none" stroke-width=".06" stroke-linecap="square" stroke-linejoin="bevel" stroke="#000" stroke-miterlimit="10"/><path d="M271.441 216.059a2.762 2.762 0 0 1-2.761 2.761 2.758 2.758 0 0 1-2.758-2.761 2.76 2.76 0 0 1 5.52 0" fill-rule="evenodd" fill="green"/><path d="M271.441 216.059a2.762 2.762 0 0 1-2.761 2.761 2.758 2.758 0 0 1-2.758-2.761 2.76 2.76 0 0 1 5.52 0zm0 0" fill="none" stroke-width=".12" stroke-linecap="round" stroke-linejoin="round" stroke="green" stroke-miterlimit="10"/><path d="M270.121 216.059a1.44 1.44 0 1 1-2.88.002 1.44 1.44 0 0 1 2.88-.002" fill-rule="evenodd" fill="#fff"/><path d="M270.121 216.059a1.44 1.44 0 1 1-2.88.002 1.44 1.44 0 0 1 2.88-.002zm0 0" fill="none" stroke-width=".06" stroke-linecap="square" stroke-linejoin="bevel" stroke="#000" stroke-miterlimit="10"/><path d="M306.48 216.059a1.862 1.862 0 0 1-1.859 1.863 1.862 1.862 0 0 1 0-3.723 1.86 1.86 0 0 1 1.86 1.86" fill-rule="evenodd" fill="green"/><path d="M306.48 216.059a1.862 1.862 0 0 1-1.859 1.863 1.862 1.862 0 0 1 0-3.723 1.86 1.86 0 0 1 1.86 1.86zm0 0" fill="none" stroke-width=".12" stroke-linecap="round" stroke-linejoin="round" stroke="green" stroke-miterlimit="10"/><path d="M305.762 216.059a1.14 1.14 0 1 1-2.284.002 1.14 1.14 0 0 1 2.284-.002" fill-rule="evenodd" fill="#fff"/><path d="M305.762 216.059a1.14 1.14 0 1 1-2.284.002 1.14 1.14 0 0 1 2.284-.002zm0 0" fill="none" stroke-width=".06" stroke-linecap="square" stroke-linejoin="bevel" stroke="#000" stroke-miterlimit="10"/><path d="M335.281 216.059a1.865 1.865 0 0 1-1.86 1.863 1.865 1.865 0 0 1-1.862-1.863 1.862 1.862 0 0 1 3.722 0" fill-rule="evenodd" fill="green"/><path d="M335.281 216.059a1.865 1.865 0 0 1-1.86 1.863 1.865 1.865 0 0 1-1.862-1.863 1.862 1.862 0 0 1 3.722 0zm0 0" fill="none" stroke-width=".12" stroke-linecap="round" stroke-linejoin="round" stroke="green" stroke-miterlimit="10"/><path d="M334.559 216.059a1.139 1.139 0 1 1-2.278.004 1.139 1.139 0 0 1 2.278-.004" fill-rule="evenodd" fill="#fff"/><path d="M334.559 216.059a1.139 1.139 0 1 1-2.278.004 1.139 1.139 0 0 1 2.278-.004zm0 0" fill="none" stroke-width=".06" stroke-linecap="square" stroke-linejoin="bevel" stroke="#000" stroke-miterlimit="10"/><path d="M249.602 216.059a2.519 2.519 0 0 1-2.524 2.52 2.52 2.52 0 1 1 2.523-2.52" fill-rule="evenodd" fill="green"/><path d="M249.602 216.059a2.519 2.519 0 0 1-2.524 2.52 2.52 2.52 0 1 1 2.523-2.52zm0 0" fill="none" stroke-width=".12" stroke-linecap="round" stroke-linejoin="round" stroke="green" stroke-miterlimit="10"/><path d="M248.52 216.059a1.44 1.44 0 1 1-2.881.002 1.44 1.44 0 0 1 2.88-.002" fill-rule="evenodd" fill="#fff"/><path d="M248.52 216.059a1.44 1.44 0 1 1-2.881.002 1.44 1.44 0 0 1 2.88-.002zm0 0" fill="none" stroke-width=".06" stroke-linecap="square" stroke-linejoin="bevel" stroke="#000" stroke-miterlimit="10"/><path d="M350.34 230.46a2.52 2.52 0 1 1-5.041-.001 2.52 2.52 0 0 1 5.04.002" fill-rule="evenodd" fill="green"/><path d="M350.34 230.46a2.52 2.52 0 1 1-5.041-.001 2.52 2.52 0 0 1 5.04.002zm0 0" fill="none" stroke-width=".12" stroke-linecap="round" stroke-linejoin="round" stroke="green" stroke-miterlimit="10"/><path d="M349.262 230.46a1.442 1.442 0 0 1-2.883 0 1.44 1.44 0 1 1 2.883 0" fill-rule="evenodd" fill="#fff"/><path d="M349.262 230.46a1.442 1.442 0 0 1-2.883 0 1.44 1.44 0 1 1 2.883 0zm0 0" fill="none" stroke-width=".06" stroke-linecap="square" stroke-linejoin="bevel" stroke="#000" stroke-miterlimit="10"/><path d="M249.602 230.46a2.521 2.521 0 0 1-5.043 0 2.518 2.518 0 0 1 2.52-2.519 2.519 2.519 0 0 1 2.523 2.52" fill-rule="evenodd" fill="green"/><path d="M249.602 230.46a2.521 2.521 0 0 1-5.043 0 2.518 2.518 0 0 1 2.52-2.519 2.519 2.519 0 0 1 2.523 2.52zm0 0" fill="none" stroke-width=".12" stroke-linecap="round" stroke-linejoin="round" stroke="green" stroke-miterlimit="10"/><path d="M248.52 230.46a1.44 1.44 0 1 1-2.88-.003 1.44 1.44 0 0 1 2.88.004" fill-rule="evenodd" fill="#fff"/><path d="M248.52 230.46a1.44 1.44 0 1 1-2.88-.003 1.44 1.44 0 0 1 2.88.004zm0 0" fill="none" stroke-width=".06" stroke-linecap="square" stroke-linejoin="bevel" stroke="#000" stroke-miterlimit="10"/><path d="M256.8 187.32a2.52 2.52 0 1 1-5.04-.002 2.52 2.52 0 0 1 5.04.002" fill-rule="evenodd" fill="green"/><path d="M256.8 187.32a2.52 2.52 0 1 1-5.04-.002 2.52 2.52 0 0 1 5.04.002zm0 0" fill="none" stroke-width=".12" stroke-linecap="round" stroke-linejoin="round" stroke="green" stroke-miterlimit="10"/><path d="M255.719 187.32c0 .793-.645 1.442-1.438 1.442a1.44 1.44 0 1 1 1.438-1.441" fill-rule="evenodd" fill="#fff"/><path d="M255.719 187.32c0 .793-.645 1.442-1.438 1.442a1.44 1.44 0 1 1 1.438-1.441zm0 0" fill="none" stroke-width=".06" stroke-linecap="square" stroke-linejoin="bevel" stroke="#000" stroke-miterlimit="10"/><path d="M350.34 216.059a2.518 2.518 0 0 1-2.52 2.52 2.52 2.52 0 1 1 2.52-2.52" fill-rule="evenodd" fill="green"/><path d="M350.34 216.059a2.518 2.518 0 0 1-2.52 2.52 2.52 2.52 0 1 1 2.52-2.52zm0 0" fill="none" stroke-width=".12" stroke-linecap="round" stroke-linejoin="round" stroke="green" stroke-miterlimit="10"/><path d="M349.262 216.059c0 .796-.649 1.441-1.442 1.441a1.44 1.44 0 1 1 1.442-1.441" fill-rule="evenodd" fill="#fff"/><path d="M349.262 216.059c0 .796-.649 1.441-1.442 1.441a1.44 1.44 0 1 1 1.442-1.441zm0 0" fill="none" stroke-width=".06" stroke-linecap="square" stroke-linejoin="bevel" stroke="#000" stroke-miterlimit="10"/><path d="M277.738 230.46a1.859 1.859 0 1 1-3.717.002 1.859 1.859 0 0 1 3.717-.001" fill-rule="evenodd" fill="green"/><path d="M277.738 230.46a1.859 1.859 0 1 1-3.717.002 1.859 1.859 0 0 1 3.717-.001zm0 0" fill="none" stroke-width=".12" stroke-linecap="round" stroke-linejoin="round" stroke="green" stroke-miterlimit="10"/><path d="M277.02 230.46a1.14 1.14 0 1 1-2.282 0c0-.632.512-1.14 1.14-1.14.634 0 1.142.508 1.142 1.14" fill-rule="evenodd" fill="#fff"/><path d="M277.02 230.46a1.14 1.14 0 1 1-2.282 0c0-.632.512-1.14 1.14-1.14.634 0 1.142.508 1.142 1.14zm0 0" fill="none" stroke-width=".06" stroke-linecap="square" stroke-linejoin="bevel" stroke="#000" stroke-miterlimit="10"/><path d="M277.738 223.262c0 1.023-.832 1.86-1.86 1.86a1.861 1.861 0 0 1 0-3.724c1.028 0 1.86.836 1.86 1.864" fill-rule="evenodd" fill="green"/><path d="M277.738 223.262c0 1.023-.832 1.86-1.86 1.86a1.861 1.861 0 0 1 0-3.724c1.028 0 1.86.836 1.86 1.864zm0 0" fill="none" stroke-width=".12" stroke-linecap="round" stroke-linejoin="round" stroke="green" stroke-miterlimit="10"/><path d="M277.02 223.262c0 .629-.508 1.136-1.141 1.136a1.139 1.139 0 1 1 0-2.277c.633 0 1.14.508 1.14 1.14" fill-rule="evenodd" fill="#fff"/><path d="M277.02 223.262c0 .629-.508 1.136-1.141 1.136a1.139 1.139 0 1 1 0-2.277c.633 0 1.14.508 1.14 1.14zm0 0" fill="none" stroke-width=".06" stroke-linecap="square" stroke-linejoin="bevel" stroke="#000" stroke-miterlimit="10"/><path d="M299.762 217.02l-1.383 1.378h-1.918l-1.383-1.378v-1.918l1.383-1.383h1.918l1.383 1.383v1.918" fill="green"/><path d="M299.762 217.02l-1.383 1.378h-1.918l-1.383-1.378v-1.918l1.383-1.383h1.918l1.383 1.383zm0 0" fill="none" stroke-width=".12" stroke-linecap="round" stroke-linejoin="round" stroke="green" stroke-miterlimit="10"/><path d="M298.98 216.059a1.561 1.561 0 1 1-3.122.002 1.561 1.561 0 0 1 3.122-.002" fill-rule="evenodd" fill="#fff"/><path d="M298.98 216.059a1.561 1.561 0 1 1-3.122.002 1.561 1.561 0 0 1 3.122-.002zm0 0" fill="none" stroke-width=".06" stroke-linecap="square" stroke-linejoin="bevel" stroke="#000" stroke-miterlimit="10"/><path d="M285.36 217.02l-1.38 1.378h-1.921l-1.38-1.378v-1.918l1.38-1.383h1.921l1.38 1.383v1.918" fill="green"/><path d="M285.36 217.02l-1.38 1.378h-1.921l-1.38-1.378v-1.918l1.38-1.383h1.921l1.38 1.383zm0 0" fill="none" stroke-width=".12" stroke-linecap="round" stroke-linejoin="round" stroke="green" stroke-miterlimit="10"/><path d="M284.578 216.059a1.559 1.559 0 1 1-3.117 0 1.558 1.558 0 1 1 3.117 0" fill-rule="evenodd" fill="#fff"/><path d="M284.578 216.059a1.559 1.559 0 1 1-3.117 0 1.558 1.558 0 1 1 3.117 0zm0 0" fill="none" stroke-width=".06" stroke-linecap="square" stroke-linejoin="bevel" stroke="#000" stroke-miterlimit="10"/><path d="M285.36 231.422l-1.38 1.379h-1.921l-1.38-1.38V229.5l1.38-1.379h1.921l1.38 1.379v1.922" fill="green"/><path d="M285.36 231.422l-1.38 1.379h-1.921l-1.38-1.38V229.5l1.38-1.379h1.921l1.38 1.379zm0 0" fill="none" stroke-width=".12" stroke-linecap="round" stroke-linejoin="round" stroke="green" stroke-miterlimit="10"/><path d="M284.578 230.46a1.558 1.558 0 1 1-3.117 0 1.559 1.559 0 1 1 3.117 0" fill-rule="evenodd" fill="#fff"/><path d="M284.578 230.46a1.558 1.558 0 1 1-3.117 0 1.559 1.559 0 1 1 3.117 0zm0 0" fill="none" stroke-width=".06" stroke-linecap="square" stroke-linejoin="bevel" stroke="#000" stroke-miterlimit="10"/><path d="M306.48 194.52a1.859 1.859 0 1 1-3.717 0 1.859 1.859 0 0 1 3.717 0" fill-rule="evenodd" fill="green"/><path d="M306.48 194.52a1.859 1.859 0 1 1-3.717 0 1.859 1.859 0 0 1 3.717 0zm0 0" fill="none" stroke-width=".12" stroke-linecap="round" stroke-linejoin="round" stroke="green" stroke-miterlimit="10"/><path d="M305.762 194.52a1.14 1.14 0 1 1-1.14-1.14 1.14 1.14 0 0 1 1.14 1.14" fill-rule="evenodd" fill="#fff"/><path d="M305.762 194.52a1.14 1.14 0 1 1-1.14-1.14 1.14 1.14 0 0 1 1.14 1.14zm0 0" fill="none" stroke-width=".06" stroke-linecap="square" stroke-linejoin="bevel" stroke="#000" stroke-miterlimit="10"/><path d="M292.078 194.52a1.859 1.859 0 1 1-3.717 0 1.859 1.859 0 0 1 3.717 0" fill-rule="evenodd" fill="green"/><path d="M292.078 194.52a1.859 1.859 0 1 1-3.718 0 1.859 1.859 0 0 1 3.718 0zm0 0" fill="none" stroke-width=".12" stroke-linecap="round" stroke-linejoin="round" stroke="green" stroke-miterlimit="10"/><path d="M291.36 194.52a1.14 1.14 0 1 1-2.282 0 1.14 1.14 0 1 1 2.281 0" fill-rule="evenodd" fill="#fff"/><path d="M291.36 194.52a1.14 1.14 0 1 1-2.282 0 1.14 1.14 0 1 1 2.281 0zm0 0" fill="none" stroke-width=".06" stroke-linecap="square" stroke-linejoin="bevel" stroke="#000" stroke-miterlimit="10"/><path d="M313.68 223.262c0 1.023-.832 1.86-1.86 1.86a1.861 1.861 0 0 1 0-3.724c1.028 0 1.86.836 1.86 1.864" fill-rule="evenodd" fill="green"/><path d="M313.68 223.262c0 1.023-.832 1.86-1.86 1.86a1.861 1.861 0 0 1 0-3.724c1.028 0 1.86.836 1.86 1.864zm0 0" fill="none" stroke-width=".12" stroke-linecap="round" stroke-linejoin="round" stroke="green" stroke-miterlimit="10"/><path d="M312.96 223.262c0 .629-.51 1.136-1.14 1.136a1.139 1.139 0 1 1 0-2.277c.63 0 1.14.508 1.14 1.14" fill-rule="evenodd" fill="#fff"/><path d="M312.96 223.262c0 .629-.51 1.136-1.14 1.136a1.139 1.139 0 1 1 0-2.277c.63 0 1.14.508 1.14 1.14zm0 0" fill="none" stroke-width=".06" stroke-linecap="square" stroke-linejoin="bevel" stroke="#000" stroke-miterlimit="10"/><path d="M328.078 223.262c0 1.023-.832 1.86-1.86 1.86a1.861 1.861 0 0 1 0-3.724c1.028 0 1.86.836 1.86 1.864" fill-rule="evenodd" fill="green"/><path d="M328.078 223.262c0 1.023-.832 1.86-1.86 1.86a1.861 1.861 0 0 1 0-3.724c1.028 0 1.86.836 1.86 1.864zm0 0" fill="none" stroke-width=".12" stroke-linecap="round" stroke-linejoin="round" stroke="green" stroke-miterlimit="10"/><path d="M327.36 223.262c0 .629-.508 1.136-1.141 1.136a1.139 1.139 0 1 1 0-2.277c.633 0 1.14.508 1.14 1.14" fill-rule="evenodd" fill="#fff"/><path d="M327.36 223.262c0 .629-.508 1.136-1.141 1.136a1.139 1.139 0 1 1 0-2.277c.633 0 1.14.508 1.14 1.14zm0 0" fill="none" stroke-width=".06" stroke-linecap="square" stroke-linejoin="bevel" stroke="#000" stroke-miterlimit="10"/><path d="M335.281 208.922c0 1.023-.836 1.86-1.86 1.86a1.865 1.865 0 0 1-1.862-1.86c0-1.027.836-1.863 1.863-1.863 1.023 0 1.86.836 1.86 1.863" fill-rule="evenodd" fill="green"/><path d="M335.281 208.922c0 1.023-.836 1.86-1.86 1.86a1.865 1.865 0 0 1-1.862-1.86c0-1.027.836-1.863 1.863-1.863 1.023 0 1.86.836 1.86 1.863zm0 0" fill="none" stroke-width=".12" stroke-linecap="round" stroke-linejoin="round" stroke="green" stroke-miterlimit="10"/><path d="M334.559 208.922c0 .629-.508 1.137-1.137 1.137-.633 0-1.14-.508-1.14-1.137 0-.633.507-1.14 1.14-1.14.629 0 1.137.507 1.137 1.14" fill-rule="evenodd" fill="#fff"/><path d="M334.559 208.922c0 .629-.508 1.137-1.137 1.137-.633 0-1.14-.508-1.14-1.137 0-.633.507-1.14 1.14-1.14.629 0 1.137.507 1.137 1.14zm0 0" fill="none" stroke-width=".06" stroke-linecap="square" stroke-linejoin="bevel" stroke="#000" stroke-miterlimit="10"/><path d="M349.68 208.922c0 1.023-.832 1.86-1.86 1.86a1.861 1.861 0 0 1 0-3.723c1.028 0 1.86.836 1.86 1.863" fill-rule="evenodd" fill="green"/><path d="M349.68 208.922c0 1.023-.832 1.86-1.86 1.86a1.861 1.861 0 0 1 0-3.723c1.028 0 1.86.836 1.86 1.863zm0 0" fill="none" stroke-width=".12" stroke-linecap="round" stroke-linejoin="round" stroke="green" stroke-miterlimit="10"/><path d="M348.96 208.922c0 .629-.51 1.137-1.14 1.137a1.139 1.139 0 1 1 0-2.278c.63 0 1.14.508 1.14 1.14" fill-rule="evenodd" fill="#fff"/><path d="M348.96 208.922c0 .629-.51 1.137-1.14 1.137a1.139 1.139 0 1 1 0-2.278c.63 0 1.14.508 1.14 1.14zm0 0" fill="none" stroke-width=".06" stroke-linecap="square" stroke-linejoin="bevel" stroke="#000" stroke-miterlimit="10"/><path d="M284.879 201.719a1.859 1.859 0 1 1-3.718 0 1.859 1.859 0 0 1 3.718 0" fill-rule="evenodd" fill="green"/><path d="M284.879 201.719a1.859 1.859 0 1 1-3.718 0 1.859 1.859 0 0 1 3.718 0zm0 0" fill="none" stroke-width=".12" stroke-linecap="round" stroke-linejoin="round" stroke="green" stroke-miterlimit="10"/><path d="M284.16 201.719a1.14 1.14 0 1 1-2.281 0 1.14 1.14 0 0 1 2.281 0" fill-rule="evenodd" fill="#fff"/><path d="M284.16 201.719a1.14 1.14 0 1 1-2.281 0 1.14 1.14 0 0 1 2.281 0zm0 0" fill="none" stroke-width=".06" stroke-linecap="square" stroke-linejoin="bevel" stroke="#000" stroke-miterlimit="10"/><path d="M263.34 201.719a1.859 1.859 0 1 1-3.718 0 1.859 1.859 0 0 1 3.718 0" fill-rule="evenodd" fill="green"/><path d="M263.34 201.719a1.859 1.859 0 1 1-3.718 0 1.859 1.859 0 0 1 3.718 0zm0 0" fill="none" stroke-width=".12" stroke-linecap="round" stroke-linejoin="round" stroke="green" stroke-miterlimit="10"/><path d="M262.621 201.719a1.14 1.14 0 1 1-2.281 0 1.14 1.14 0 0 1 2.281 0" fill-rule="evenodd" fill="#fff"/><path d="M262.621 201.719a1.14 1.14 0 1 1-2.281 0 1.14 1.14 0 0 1 2.281 0zm0 0" fill="none" stroke-width=".06" stroke-linecap="square" stroke-linejoin="bevel" stroke="#000" stroke-miterlimit="10"/><path d="M270.54 194.52a1.859 1.859 0 1 1-3.719 0 1.859 1.859 0 0 1 3.718 0" fill-rule="evenodd" fill="green"/><path d="M270.54 194.52a1.859 1.859 0 1 1-3.719 0 1.859 1.859 0 0 1 3.718 0zm0 0" fill="none" stroke-width=".12" stroke-linecap="round" stroke-linejoin="round" stroke="green" stroke-miterlimit="10"/><path d="M269.82 194.52a1.14 1.14 0 1 1-2.278 0 1.14 1.14 0 0 1 2.278-.001" fill-rule="evenodd" fill="#fff"/><path d="M269.82 194.52a1.14 1.14 0 1 1-2.278 0 1.14 1.14 0 0 1 2.278-.001zm0 0" fill="none" stroke-width=".06" stroke-linecap="square" stroke-linejoin="bevel" stroke="#000" stroke-miterlimit="10"/><path d="M313.68 194.52a1.859 1.859 0 1 1-3.718 0 1.859 1.859 0 0 1 3.718 0" fill-rule="evenodd" fill="green"/><path d="M313.68 194.52a1.859 1.859 0 1 1-3.718 0 1.859 1.859 0 0 1 3.718 0zm0 0" fill="none" stroke-width=".12" stroke-linecap="round" stroke-linejoin="round" stroke="green" stroke-miterlimit="10"/><path d="M312.96 194.52a1.14 1.14 0 1 1-2.282 0 1.14 1.14 0 0 1 2.282-.001" fill-rule="evenodd" fill="#fff"/><path d="M312.96 194.52a1.14 1.14 0 1 1-2.282 0 1.14 1.14 0 0 1 2.282-.001zm0 0" fill="none" stroke-width=".06" stroke-linecap="square" stroke-linejoin="bevel" stroke="#000" stroke-miterlimit="10"/><path d="M342.48 194.52a1.859 1.859 0 1 1-3.717 0 1.859 1.859 0 0 1 3.717 0" fill-rule="evenodd" fill="green"/><path d="M342.48 194.52a1.859 1.859 0 1 1-3.717 0 1.859 1.859 0 0 1 3.717 0zm0 0" fill="none" stroke-width=".12" stroke-linecap="round" stroke-linejoin="round" stroke="green" stroke-miterlimit="10"/><path d="M341.762 194.52a1.14 1.14 0 1 1-1.14-1.14 1.14 1.14 0 0 1 1.14 1.14" fill-rule="evenodd" fill="#fff"/><path d="M341.762 194.52a1.14 1.14 0 1 1-1.14-1.14 1.14 1.14 0 0 1 1.14 1.14zm0 0" fill="none" stroke-width=".06" stroke-linecap="square" stroke-linejoin="bevel" stroke="#000" stroke-miterlimit="10"/><path d="M292.078 202.5L291 203.578h-1.559l-1.082-1.078v-1.559l1.082-1.082H291l1.078 1.082v1.559" fill="green"/><path d="M292.078 202.5L291 203.578h-1.559l-1.082-1.078v-1.559l1.082-1.082H291l1.078 1.082zm0 0" fill="none" stroke-width=".12" stroke-linecap="round" stroke-linejoin="round" stroke="green" stroke-miterlimit="10"/><path d="M291.36 201.719c0 .633-.508 1.14-1.141 1.14a1.14 1.14 0 1 1 0-2.28c.633 0 1.14.51 1.14 1.14" fill-rule="evenodd" fill="#fff"/><path d="M291.36 201.719c0 .633-.508 1.14-1.141 1.14a1.14 1.14 0 1 1 0-2.28c.633 0 1.14.51 1.14 1.14zm0 0" fill="none" stroke-width=".06" stroke-linecap="square" stroke-linejoin="bevel" stroke="#000" stroke-miterlimit="10"/><path d="M306.48 202.5l-1.082 1.078h-1.558l-1.078-1.078v-1.559l1.078-1.082h1.558l1.082 1.082v1.559" fill="green"/><path d="M306.48 202.5l-1.082 1.078h-1.558l-1.078-1.078v-1.559l1.078-1.082h1.558l1.082 1.082zm0 0" fill="none" stroke-width=".12" stroke-linecap="round" stroke-linejoin="round" stroke="green" stroke-miterlimit="10"/><path d="M305.762 201.719a1.14 1.14 0 0 1-1.14 1.14 1.14 1.14 0 1 1 1.14-1.14" fill-rule="evenodd" fill="#fff"/><path d="M305.762 201.719a1.14 1.14 0 0 1-1.14 1.14 1.14 1.14 0 1 1 1.14-1.14zm0 0" fill="none" stroke-width=".06" stroke-linecap="square" stroke-linejoin="bevel" stroke="#000" stroke-miterlimit="10"/><path d="M299.281 202.5l-1.082 1.078h-1.558l-1.082-1.078v-1.559l1.082-1.082h1.558l1.082 1.082v1.559" fill="green"/><path d="M299.281 202.5l-1.082 1.078h-1.558l-1.082-1.078v-1.559l1.082-1.082h1.558l1.082 1.082zm0 0" fill="none" stroke-width=".12" stroke-linecap="round" stroke-linejoin="round" stroke="green" stroke-miterlimit="10"/><path d="M298.559 201.719c0 .633-.508 1.14-1.137 1.14-.633 0-1.14-.507-1.14-1.14a1.14 1.14 0 1 1 2.277 0" fill-rule="evenodd" fill="#fff"/><path d="M298.559 201.719c0 .633-.508 1.14-1.137 1.14-.633 0-1.14-.507-1.14-1.14a1.14 1.14 0 1 1 2.277 0zm0 0" fill="none" stroke-width=".06" stroke-linecap="square" stroke-linejoin="bevel" stroke="#000" stroke-miterlimit="10"/><path d="M257.04 223.262a2.76 2.76 0 1 1-2.758-2.762 2.758 2.758 0 0 1 2.757 2.762" fill-rule="evenodd" fill="green"/><path d="M257.04 223.262a2.76 2.76 0 1 1-2.758-2.762 2.758 2.758 0 0 1 2.757 2.762zm0 0" fill="none" stroke-width=".12" stroke-linecap="round" stroke-linejoin="round" stroke="green" stroke-miterlimit="10"/><path d="M255.719 223.262a1.439 1.439 0 1 1-2.878-.003 1.439 1.439 0 0 1 2.878.003" fill-rule="evenodd" fill="#fff"/><path d="M255.719 223.262a1.439 1.439 0 1 1-2.878-.003 1.439 1.439 0 0 1 2.878.003zm0 0" fill="none" stroke-width=".06" stroke-linecap="square" stroke-linejoin="bevel" stroke="#000" stroke-miterlimit="10"/><path d="M271.441 230.46a2.76 2.76 0 0 1-5.52 0 2.76 2.76 0 0 1 2.759-2.76 2.764 2.764 0 0 1 2.761 2.76" fill-rule="evenodd" fill="green"/><path d="M271.441 230.46a2.76 2.76 0 0 1-5.52 0 2.76 2.76 0 0 1 2.759-2.76 2.764 2.764 0 0 1 2.761 2.76zm0 0" fill="none" stroke-width=".12" stroke-linecap="round" stroke-linejoin="round" stroke="green" stroke-miterlimit="10"/><path d="M270.121 230.46a1.442 1.442 0 0 1-2.883 0c0-.796.649-1.44 1.442-1.44a1.44 1.44 0 0 1 1.441 1.44" fill-rule="evenodd" fill="#fff"/><path d="M270.121 230.46a1.442 1.442 0 0 1-2.883 0c0-.796.649-1.44 1.442-1.44a1.44 1.44 0 0 1 1.441 1.44zm0 0" fill="none" stroke-width=".06" stroke-linecap="square" stroke-linejoin="bevel" stroke="#000" stroke-miterlimit="10"/><path d="M271.441 216.059a2.762 2.762 0 0 1-2.761 2.761 2.758 2.758 0 0 1-2.758-2.761 2.76 2.76 0 0 1 5.52 0" fill-rule="evenodd" fill="green"/><path d="M271.441 216.059a2.762 2.762 0 0 1-2.761 2.761 2.758 2.758 0 0 1-2.758-2.761 2.76 2.76 0 0 1 5.52 0zm0 0" fill="none" stroke-width=".12" stroke-linecap="round" stroke-linejoin="round" stroke="green" stroke-miterlimit="10"/><path d="M270.121 216.059a1.44 1.44 0 1 1-2.88.002 1.44 1.44 0 0 1 2.88-.002" fill-rule="evenodd" fill="#fff"/><path d="M270.121 216.059a1.44 1.44 0 1 1-2.88.002 1.44 1.44 0 0 1 2.88-.002zm0 0" fill="none" stroke-width=".06" stroke-linecap="square" stroke-linejoin="bevel" stroke="#000" stroke-miterlimit="10"/><path d="M306.48 216.059a1.862 1.862 0 0 1-1.859 1.863 1.862 1.862 0 0 1 0-3.723 1.86 1.86 0 0 1 1.86 1.86" fill-rule="evenodd" fill="green"/><path d="M306.48 216.059a1.862 1.862 0 0 1-1.859 1.863 1.862 1.862 0 0 1 0-3.723 1.86 1.86 0 0 1 1.86 1.86zm0 0" fill="none" stroke-width=".12" stroke-linecap="round" stroke-linejoin="round" stroke="green" stroke-miterlimit="10"/><path d="M305.762 216.059a1.14 1.14 0 1 1-2.284.002 1.14 1.14 0 0 1 2.284-.002" fill-rule="evenodd" fill="#fff"/><path d="M305.762 216.059a1.14 1.14 0 1 1-2.284.002 1.14 1.14 0 0 1 2.284-.002zm0 0" fill="none" stroke-width=".06" stroke-linecap="square" stroke-linejoin="bevel" stroke="#000" stroke-miterlimit="10"/><path d="M335.281 216.059a1.865 1.865 0 0 1-1.86 1.863 1.865 1.865 0 0 1-1.862-1.863 1.862 1.862 0 0 1 3.722 0" fill-rule="evenodd" fill="green"/><path d="M335.281 216.059a1.865 1.865 0 0 1-1.86 1.863 1.865 1.865 0 0 1-1.862-1.863 1.862 1.862 0 0 1 3.722 0zm0 0" fill="none" stroke-width=".12" stroke-linecap="round" stroke-linejoin="round" stroke="green" stroke-miterlimit="10"/><path d="M334.559 216.059a1.139 1.139 0 1 1-2.278.004 1.139 1.139 0 0 1 2.278-.004" fill-rule="evenodd" fill="#fff"/><path d="M334.559 216.059a1.139 1.139 0 1 1-2.278.004 1.139 1.139 0 0 1 2.278-.004zm0 0" fill="none" stroke-width=".06" stroke-linecap="square" stroke-linejoin="bevel" stroke="#000" stroke-miterlimit="10"/><path d="M249.602 216.059a2.519 2.519 0 0 1-2.524 2.52 2.52 2.52 0 1 1 2.523-2.52" fill-rule="evenodd" fill="green"/><path d="M249.602 216.059a2.519 2.519 0 0 1-2.524 2.52 2.52 2.52 0 1 1 2.523-2.52zm0 0" fill="none" stroke-width=".12" stroke-linecap="round" stroke-linejoin="round" stroke="green" stroke-miterlimit="10"/><path d="M248.52 216.059a1.44 1.44 0 1 1-2.881.002 1.44 1.44 0 0 1 2.88-.002" fill-rule="evenodd" fill="#fff"/><path d="M248.52 216.059a1.44 1.44 0 1 1-2.881.002 1.44 1.44 0 0 1 2.88-.002zm0 0" fill="none" stroke-width=".06" stroke-linecap="square" stroke-linejoin="bevel" stroke="#000" stroke-miterlimit="10"/><path d="M350.34 230.46a2.52 2.52 0 1 1-5.041-.001 2.52 2.52 0 0 1 5.04.002" fill-rule="evenodd" fill="green"/><path d="M350.34 230.46a2.52 2.52 0 1 1-5.041-.001 2.52 2.52 0 0 1 5.04.002zm0 0" fill="none" stroke-width=".12" stroke-linecap="round" stroke-linejoin="round" stroke="green" stroke-miterlimit="10"/><path d="M349.262 230.46a1.442 1.442 0 0 1-2.883 0 1.44 1.44 0 1 1 2.883 0" fill-rule="evenodd" fill="#fff"/><path d="M349.262 230.46a1.442 1.442 0 0 1-2.883 0 1.44 1.44 0 1 1 2.883 0zm0 0" fill="none" stroke-width=".06" stroke-linecap="square" stroke-linejoin="bevel" stroke="#000" stroke-miterlimit="10"/><path d="M249.602 230.46a2.521 2.521 0 0 1-5.043 0 2.518 2.518 0 0 1 2.52-2.519 2.519 2.519 0 0 1 2.523 2.52" fill-rule="evenodd" fill="green"/><path d="M249.602 230.46a2.521 2.521 0 0 1-5.043 0 2.518 2.518 0 0 1 2.52-2.519 2.519 2.519 0 0 1 2.523 2.52zm0 0" fill="none" stroke-width=".12" stroke-linecap="round" stroke-linejoin="round" stroke="green" stroke-miterlimit="10"/><path d="M248.52 230.46a1.44 1.44 0 1 1-2.88-.003 1.44 1.44 0 0 1 2.88.004" fill-rule="evenodd" fill="#fff"/><path d="M248.52 230.46a1.44 1.44 0 1 1-2.88-.003 1.44 1.44 0 0 1 2.88.004zm0 0" fill="none" stroke-width=".06" stroke-linecap="square" stroke-linejoin="bevel" stroke="#000" stroke-miterlimit="10"/><path d="M250.98 189.66h-1.082m0 0l-.539-.539m.001 0l.538-.543m0 0h1.082m-.84 1.082v-1.082m.84-.538h-1.62m0 0l1.62-1.02m0 0h-1.62m1.62-1.079h-1.62m0 .539v-1.082m95.1 34.562h-1.019m0 0l-.543-.48m0 0l.543-.539m0 0h1.02m-.781 1.019v-1.019m-.782-1.32v.54m0-.001l.243.238m-.001 0h1.079m0 0l.242-.238m-.001 0v-.539m0 0l-.241-.3m0-.001h-1.078m-.001 0l-.242.301m0-.84h1.32m.001 0l.242-.242m-.001.001V216m0 0l-.241-.238m0 0h-1.32m1.561-1.082h-1.562m0 .539v-1.078m.782-.481v-1.082m-.54.543h1.079" fill="none" stroke-width=".18" stroke-linecap="round" stroke-linejoin="round" stroke="#505050" stroke-miterlimit="10"/><path d="M277.621 224.34l-.121-.48-.238-.419-.422-.3-.48-.18-.481-.063m1.742 6.481v-5.04m-1.742 6.481h.48l.48-.18.423-.359.238-.422.121-.48m-3.543 0l.121.48.242.422.418.36.48.18h.54m-1.801-6.481v5.039" fill="none" stroke-width=".36" stroke-linecap="round" stroke-linejoin="round" stroke="#505050" stroke-miterlimit="10"/><path d="M275.879 222.898l-.54.063-.48.18-.418.3-.242.418-.12.48" fill="none" stroke-width=".36" stroke-linecap="round" stroke-linejoin="round" stroke="#505050" stroke-miterlimit="10"/><path d="M274.8 226.68h2.16v-.48h-2.16zm0 .898h2.16v-.476h-2.16zm0 0" fill="#505050" stroke-width=".12" stroke-linecap="round" stroke-linejoin="round" stroke="#505050" stroke-miterlimit="10"/><path d="M279.238 215.941l1.864-1.8m0 3.961l-2.461-2.403m-.001.001l-.902.902m0 0l-.058 1.078m0 0l-.121 1.02m0 0l2.46 2.46m7.981-8.219l-2.34-2.28m0-.001l-1.02.059m0 0l-1.081.062m0 0l-.899.957m0 0l2.399 2.403m-1.981-1.981l-1.976 1.98m6.238 10.919l4.68-4.68m-3.54 5.821l4.739-4.68m-9.059-8.22l-3.898 3.9m13.438 6.062a3.478 3.478 0 0 1-3.481 3.476 3.478 3.478 0 1 1 0-6.957 3.48 3.48 0 0 1 3.48 3.48zm0 0" fill="none" stroke-width=".36" stroke-linecap="round" stroke-linejoin="round" stroke="#505050" stroke-miterlimit="10"/><path d="M284.219 212.281l.12-.422.36-.359.422-.121.48.121.297.36.122.421-.122.48-.296.298-.48.12-.423-.12-.36-.297-.12-.48h.36l.062-.243.238-.238.242-.063.3.063.18.238.06.242-.06.297-.18.184-.3.058-.242-.058-.238-.184-.063-.297h-.36" fill-rule="evenodd" fill="#505050"/><path d="M284.219 212.281l.12-.422.36-.359.422-.121.48.121.297.36.122.421-.122.48-.296.298-.48.12-.423-.12-.36-.297-.12-.48h.36l.062-.243.238-.238.242-.063.3.063.18.238.06.242-.06.297-.18.184-.3.058-.242-.058-.238-.184-.063-.297zm0 0" fill="none" stroke-width=".12" stroke-linecap="round" stroke-linejoin="round" stroke="#505050" stroke-miterlimit="10"/><path d="M278.281 218.16l.117-.422.364-.36.418-.116.48.117.3.36.118.421-.117.48-.3.301-.481.118-.418-.118-.364-.3-.117-.48h.36l.058-.24.242-.183.239-.117.3.117.18.184.059.238-.059.3-.18.18-.3.06-.239-.06-.242-.18-.058-.3h-.36" fill-rule="evenodd" fill="#505050"/><path d="M278.281 218.16l.117-.422.364-.36.418-.116.48.117.3.36.118.421-.117.48-.3.301-.481.118-.418-.118-.364-.3-.117-.48h.36l.058-.24.242-.183.239-.117.3.117.18.184.059.238-.059.3-.18.18-.3.06-.239-.06-.242-.18-.058-.3zm0 0" fill="none" stroke-width=".12" stroke-linecap="round" stroke-linejoin="round" stroke="#505050" stroke-miterlimit="10"/><path d="M300.602 223.262c0 5.73-4.649 10.379-10.383 10.379-5.73 0-10.38-4.649-10.38-10.38 0-5.734 4.65-10.382 10.38-10.382 5.734 0 10.383 4.648 10.383 10.383zm0 0" fill="none" stroke-width=".36" stroke-linecap="round" stroke-linejoin="round" stroke="#505050" stroke-miterlimit="10"/><path d="M299.82 223.262c0 5.3-4.297 9.597-9.601 9.597a9.597 9.597 0 0 1-9.598-9.597c0-5.305 4.297-9.602 9.598-9.602a9.6 9.6 0 0 1 9.601 9.602zm-4.922-30.543l-.539.062-.48.297-.418.363-.242.54-.117.539m6.839-1.801h-5.043m6.84 1.801l-.058-.54-.301-.539-.36-.363-.539-.297-.539-.062m0 3.601l.54-.12.539-.24.359-.358.3-.543.06-.54m-6.841 1.801h5.043m-6.839-1.8l.117.539.242.543.418.359.48.238.54.121" fill="none" stroke-width=".36" stroke-linecap="round" stroke-linejoin="round" stroke="#505050" stroke-miterlimit="10"/><path d="M296.34 195.96h.719v-2.882h-.72zm1.441 0h.719v-2.882h-.719zm0 0" fill="#505050" stroke-width=".12" stroke-linecap="round" stroke-linejoin="round" stroke="#505050" stroke-miterlimit="10"/><path d="M294.898 192.719l-.539.062-.48.297-.418.363-.242.54-.117.539m28.438 30.539l.538-.059.543-.238.36-.422.238-.48.12-.598m-6.839 1.797h5.04m-6.84-1.797l.062.597.297.48.363.423.539.238.539.059m0-3.599l-.54.118-.538.242-.363.418-.297.48-.063.544m6.841-1.802h-5.04m6.84 1.802l-.121-.543-.239-.48-.359-.419-.543-.242-.539-.117" fill="none" stroke-width=".36" stroke-linecap="round" stroke-linejoin="round" stroke="#505050" stroke-miterlimit="10"/><path d="M319.379 224.7h.723v-2.88h-.723zm-1.438 0h.72v-2.88h-.72zm0 0" fill="#505050" stroke-width=".12" stroke-linecap="round" stroke-linejoin="round" stroke="#505050" stroke-miterlimit="10"/><path d="M321.54 225.059l.538-.059.543-.238.36-.422.238-.48.12-.598" fill="none" stroke-width=".36" stroke-linecap="round" stroke-linejoin="round" stroke="#505050" stroke-miterlimit="10"/><path d="M335.941 205.68l-.48.058-.36.184-.363.36-.18.359-.058.48m0 3.598l.059.422.18.418.363.3.359.18.48.121m9.359-6.48h-9.359m9.359 6.48h-9.359m10.797-5.039l-.117-.48-.18-.36-.3-.36-.422-.183-.418-.058m-.001 6.48l.419-.12.422-.18.3-.301.18-.418.117-.422" fill="none" stroke-width=".48" stroke-linecap="round" stroke-linejoin="round" stroke="#505050" stroke-miterlimit="10"/><path d="M339.719 206.762v2.16m0 0v2.156m1.801-4.316v2.16m0 0v2.156" fill="none" stroke-width=".9" stroke-linecap="round" stroke-linejoin="round" stroke="#505050" stroke-miterlimit="10"/><path d="M344.219 208.922h-2.7m-4.499 0h2.699" fill="none" stroke-width=".48" stroke-linecap="round" stroke-linejoin="round" stroke="#505050" stroke-miterlimit="10"/><path d="M267.059 199.738l-.66.063-.54.3-.418.419-.3.601-.063.598" fill="none" stroke-width=".36" stroke-linecap="round" stroke-linejoin="round" stroke="#505050" stroke-miterlimit="10"/><path d="M265.078 201.719l.121.543.301.539.422.418.539.242.598.059m1.621-3.782l-.66.063-.54.3-.421.419-.297.601-.063.598m.001 0l.12.601.36.54.48.359.54.242.66.059m1.62-3.782l-.66.063-.601.238-.48.48-.298.54-.12.66m-.001 0l.121.601.36.54.48.359.54.242.66.059m8.757-3.782l-.597.063-.54.3-.421.419-.301.601-.059.598M277.32 201.719l.121.543.239.539.48.418.54.242.538.059m0 0v-1.622m1.442-.179v-.54l-.121-.538-.36-.422-.418-.297-.543-.184m1.442 1.981h2.34m-21.54 0h3.598m7.203-1.981l-.66.063-.543.3-.418.419-.3.601-.06.598m0 0l.122.601.36.54.48.359.539.242.66.059m1.617-3.782l-.656.063-.602.238-.48.48-.3.54-.118.66m0 0l.117.601.36.54.48.359.543.242.656.059m1.801-3.782l-.66.063-.54.3-.417.419-.301.601-.063.598M273.898 201.719l.122.601.359.54.48.359.54.242.66.059m1.562-3.782l-.601.063-.598.238-.48.48-.301.54-.121.66m0 0l.12.601.36.54.48.359.54.242.601.059m-8.941-3.782v-5.218m63.3 0l-.12-.782-.239-.777-.422-.66-.597-.602-.66-.418-.782-.3-.781-.06m0 3.599l-.117-.782-.242-.777-.418-.66-.602-.602-.66-.418-.781-.3-.778-.06m0 3.599l-.12-.782-.24-.777-.421-.66-.602-.602-.66-.418-.777-.3-.781-.06m14.398 3.599l-.117-.782-.242-.777-.418-.66-.602-.602-.66-.418-.777-.3-.782-.06m-10.8.001v3.598m-3.602 0h-5.758m28.801 0h-4.32m-32.941 2.52h-11.88m-.902 7.858l.66 1.141.84 1.02 1.024.84 1.136.66 1.262.421 1.262.239h1.316l1.32-.239 1.204-.421 1.136-.66 1.024-.84.84-1.02.66-1.14m-14.402-3.539h15.12m-.718 3.538l.418-1.136.242-1.203.058-1.2" fill="none" stroke-width=".36" stroke-linecap="round" stroke-linejoin="round" stroke="#505050" stroke-miterlimit="10"/><path d="M304.98 201.36l-.12-1.02-.239-.961-.36-.899m.001 0l-.422-.718-.48-.723m-12.782 1.441l-.36.899-.238.96-.12 1.02m0 .001l.062 1.199.238 1.203.418 1.136m.902-7.858l-.48.722-.422.777" fill="none" stroke-width=".36" stroke-linecap="round" stroke-linejoin="round" stroke="#505050" stroke-miterlimit="10"/><use xlink:href="#a" x="302.17" y="200.747" fill="#505050"/><path d="M260.762 223.98h-1.801m-.001 0v-1.44m0 0h1.802m0 0v-1.802m0 0h1.437m.001 0v1.801m0 .001h1.8m0 0v1.44m0 0h-1.8m0 0v1.801m0 0h-1.438m0 0v-1.8m-10.082-10.379v7.136m13.32 5.043l1.441 1.438M264 220.738l1.441-1.437m-3.961 9.359v-1.441m0-7.919v-1.44m-2.878 8.28l-.723.72m.723-6.481l-.723-.719m14.402-1.082v9.363m0-14.339l-.12-.422-.24-.36-.362-.242-.36-.058m-19.437 0l-.422.058-.36.242-.242.36-.058.422m0 19.378l.058.418.242.364.36.238.422.059m19.438 0l.359-.059.363-.238.238-.364.121-.418m-21.601 0v-7.199m15.12-13.261h-14.038m0 21.539H265.8m46.74-20.821h-.302l-.18.184-.18.238-.058.238m0 4.321l.059.3.18.243.18.117.3.062m12.961 0l.238-.062.242-.117.18-.242.059-.301m0-4.321l-.059-.238-.18-.238-.242-.184h-.238" fill="none" stroke-width=".48" stroke-linecap="round" stroke-linejoin="round" stroke="#505050" stroke-miterlimit="10"/><path d="M326.219 216.781h1.082v-1.441h-1.082zm-15.481 0h1.082v-1.441h-1.082zm0 0" fill="#505050" stroke-width=".12" stroke-linecap="round" stroke-linejoin="round" stroke="#505050" stroke-miterlimit="10"/><path d="M312.54 213.238h-.302l-.18.184-.18.238-.058.238m0 4.321l.059.3.18.243.18.117.3.062m12.961 0l.238-.062.242-.117.18-.242.059-.301m0-4.321l-.059-.238-.18-.238-.242-.184h-.238m-13.68 4.981v-4.32m.72-.661h1.081m.359.364l-.359-.364m-1.081 5.703h1.081m.359-.363l-.359.363m10.438-5.339l.363-.364m-.363.364H313.98m10.079 4.976l.363.363m-.363-.363H313.98m11.52-5.34h-1.078m1.078 5.703h-1.078m1.797-.722v-4.32" fill="none" stroke-width=".48" stroke-linecap="round" stroke-linejoin="round" stroke="#505050" stroke-miterlimit="10"/><path d="M326.219 216.781h1.082v-1.441h-1.082zm-15.481 0h1.082v-1.441h-1.082zm0 0" fill="#505050" stroke-width=".12" stroke-linecap="round" stroke-linejoin="round" stroke="#505050" stroke-miterlimit="10"/><path d="M243.48 217.621l.301-.3m0-.001v-.48m0 0l-.3-.3m-.001 0h-1.02m0 0l-.3.3m0 0v.48m0 0l.3.301m0 0h.24m0 0l.3-.3m0-.001v-.78m-.84-.54h1.078m0 0l.543-.54m0 0l-.543-.48m0 0h-1.078m102.3 19.38h-1.019m0 0l-.543-.54m0 0l.543-.48m0 0h1.02m-.781 1.02v-1.02m-.782-1.38v.54m0 0l.243.3m-.001 0h1.079m0 0l.242-.3m-.001 0v-.54m0 0l-.241-.241m0 0h-1.078m-.001 0l-.242.242m0-.781h1.32m.001 0l.242-.239m-.001 0v-.543m0 0l-.241-.238m0 0h-1.32m1.561-1.082h-1.562m0 .543v-1.082m.782-.539v-1.02m-101.22 4.739l-.3.242m0-.001v.54m0 0l.3.3m0 0h1.02m0 0l.301-.3m0 0v-.54m0 0l-.3-.241m-.001 0H243m0 0v.543m.781-1.082h-1.62m-.001 0l1.621-1.02m0 0h-1.62m-.001-.539h1.621m0 0v-.781m0 0l-.3-.3m-.001 0h-1.02m0 0l-.3.3m0 0v.781" fill="none" stroke-width=".18" stroke-linecap="round" stroke-linejoin="round" stroke="#505050" stroke-miterlimit="10"/><path d="M275.879 229.738V228m0-4.02v1.801m28.742-31.261h-6.062m-8.34 0h6.12m15.481 28.742h6.059m8.34 0h-6.117" fill="none" stroke-width=".24" stroke-linecap="round" stroke-linejoin="round" stroke="#505050" stroke-miterlimit="10"/><path d="M334.5 210.719v-3.598m12.238 3.598v-3.598" fill="none" stroke-width=".48" stroke-linecap="round" stroke-linejoin="round" stroke="#505050" stroke-miterlimit="10"/><path d="M346.738 210h1.082v-2.16h-1.082zm-13.316 0h1.078v-2.16h-1.078zm0 0" fill="#505050" stroke-width=".12" stroke-linecap="round" stroke-linejoin="round" stroke="#505050" stroke-miterlimit="10"/><path d="M250.68 220.738v5.043m6.84-2.519h-1.442m16.203-9.66v4.976m0 9.363v5.04M265.8 212.52h5.4m0 21.539h-5.4m1.438-10.797a5.758 5.758 0 0 1-5.758 5.758 5.761 5.761 0 0 1-5.761-5.758 5.759 5.759 0 1 1 11.52 0zm0 0" fill="none" stroke-width=".48" stroke-linecap="round" stroke-linejoin="round" stroke="#505050" stroke-miterlimit="10"/><path d="M265.078 223.262a3.598 3.598 0 0 1-3.598 3.597 3.602 3.602 0 0 1-3.601-3.597 3.6 3.6 0 1 1 7.2 0zm0 0" fill="none" stroke-width=".48" stroke-linecap="round" stroke-linejoin="round" stroke="#505050" stroke-miterlimit="10"/><path d="M270.121 217.86h2.16v-3.598h-2.16zm0 0" fill="#505050" stroke-width=".12" stroke-linecap="round" stroke-linejoin="round" stroke="#505050" stroke-miterlimit="10"/><path d="M333.422 216.059H327.3m-22.679 0h6.117" fill="none" stroke-width="1.44" stroke-linecap="round" stroke-linejoin="round" stroke="#505050" stroke-miterlimit="10"/><use xlink:href="#b" x="268.354" y="228.314" fill="#505050"/><use xlink:href="#c" x="270.754" y="228.314" fill="#505050"/><use xlink:href="#d" x="297.434" y="225.618" fill="#505050"/><use xlink:href="#e" x="297.434" y="223.218" fill="#505050"/><use xlink:href="#b" x="292.039" y="192.177" fill="#505050"/><use xlink:href="#f" x="294.439" y="192.177" fill="#505050"/><use xlink:href="#b" x="319.793" y="228.495" fill="#505050"/><use xlink:href="#g" x="322.193" y="228.495" fill="#505050"/><use xlink:href="#b" x="338.32" y="204.582" fill="#505050"/><use xlink:href="#h" x="340.72" y="204.582" fill="#505050"/><use xlink:href="#i" x="283.402" y="206.383" fill="#505050"/><use xlink:href="#c" x="286.222" y="206.383" fill="#505050"/><use xlink:href="#j" x="249.592" y="230.469" fill="#505050"/><use xlink:href="#k" x="249.592" y="227.349" fill="#505050"/><use xlink:href="#l" x="311.823" y="212.42" fill="#505050"/><use xlink:href="#m" x="314.343" y="212.42" fill="#505050"/><use xlink:href="#l" x="311.823" y="212.42" fill="#505050"/><use xlink:href="#m" x="314.343" y="212.42" fill="#505050"/><use xlink:href="#n" x="273.751" y="235.985" fill="#505050"/><use xlink:href="#o" x="275.491" y="235.985" fill="#505050"/><use xlink:href="#p" x="285.326" y="225.918" fill="#505050"/><use xlink:href="#q" x="285.326" y="224.178" fill="#505050"/><use xlink:href="#r" x="285.326" y="222.438" fill="#505050"/><use xlink:href="#s" x="298.27" y="199.131" fill="#505050"/><use xlink:href="#t" x="300.01" y="199.131" fill="#505050"/><use xlink:href="#u" x="301.75" y="199.131" fill="#505050"/><use xlink:href="#s" x="312.902" y="220.941" fill="#505050"/><use xlink:href="#v" x="314.642" y="220.941" fill="#505050"/><use xlink:href="#t" x="315.602" y="220.941" fill="#505050"/><use xlink:href="#o" x="317.342" y="220.941" fill="#505050"/><use xlink:href="#n" x="337.12" y="215.49" fill="#505050"/><use xlink:href="#w" x="338.861" y="215.49" fill="#505050"/><use xlink:href="#w" x="340.6" y="215.49" fill="#505050"/><use xlink:href="#o" x="342.34" y="215.49" fill="#505050"/><use xlink:href="#x" x="277.702" y="200.389" fill="#505050"/><use xlink:href="#y" x="279.622" y="200.389" fill="#505050"/><use xlink:href="#z" x="281.302" y="200.389" fill="#505050"/><use xlink:href="#s" x="283.042" y="200.389" fill="#505050"/><use xlink:href="#A" x="284.782" y="200.389" fill="#505050"/><use xlink:href="#x" x="286.522" y="200.389" fill="#505050"/><use xlink:href="#k" x="276.93" y="234.064" fill="#505050"/><use xlink:href="#B" x="276.93" y="231.304" fill="#505050"/><use xlink:href="#n" x="314.413" y="217.454" fill="#505050"/><use xlink:href="#w" x="316.153" y="217.454" fill="#505050"/><use xlink:href="#C" x="317.893" y="217.454" fill="#505050"/><use xlink:href="#n" x="314.413" y="217.454" fill="#505050"/><use xlink:href="#w" x="316.153" y="217.454" fill="#505050"/><use xlink:href="#C" x="317.893" y="217.454" fill="#505050"/><path d="M239.879 237.66H354.96m0 0v-57.539m0 0H239.88m-.001 0v57.54" fill="none" stroke-width=".12" stroke-linecap="round" stroke-linejoin="round" stroke="#000" stroke-miterlimit="10"/></svg>