<svg xmlns="http://www.w3.org/2000/svg" xmlns:xlink="http://www.w3.org/1999/xlink" width="842pt" height="595pt" viewBox="0 0 842 595"><defs><symbol overflow="visible" id="a"><path d="M.89-1.438v-.453a.1.1 0 0 1 .032-.078c.008-.008.023-.015.047-.015.02 0 .035.007.047.015a.231.231 0 0 1 .015.078v.454l.438-.141c.008-.008.023-.016.047-.016.007 0 .02.012.03.032.02.011.032.027.032.046-.012.012-.016.024-.016.032a.132.132 0 0 1-.062.03l-.422.141.266.375c.008.024.015.04.015.047 0 .024-.007.04-.015.047-.012.024-.028.031-.047.031-.024 0-.043-.015-.063-.046L.97-1.234.703-.86c-.031.03-.058.046-.078.046-.012 0-.027-.007-.047-.03C.566-.853.563-.868.563-.892c0-.007.007-.023.03-.046l.266-.375-.437-.141c-.031-.008-.047-.02-.047-.031a.036.036 0 0 1-.016-.032c0-.02.004-.035.016-.046a.047.047 0 0 1 .047-.032c.008 0 .023.008.047.016zm0 0"/></symbol><symbol overflow="visible" id="b"><path d="M1.031-1.719v1.594h.344c.031 0 .055.008.078.016a.084.084 0 0 1 .016.046c0 .024-.008.04-.016.047A.165.165 0 0 1 1.375 0H.562a.155.155 0 0 1-.078-.016C.473-.023.47-.039.47-.062c0-.02.004-.036.015-.047a.212.212 0 0 1 .079-.016h.343v-1.594H.36v.469c0 .031-.007.055-.015.063-.012.023-.028.027-.047.015-.024.012-.04.008-.047-.016C.228-1.195.22-1.218.22-1.25v-.594h1.5v.594a.22.22 0 0 1-.032.063c-.011.023-.027.027-.046.015-.024.012-.04.008-.047-.016-.012-.007-.016-.03-.016-.062v-.469zm0 0"/></symbol><symbol overflow="visible" id="c"><path d="M.531-1.984v.812a.973.973 0 0 1 .25-.187.9.9 0 0 1 .25-.063c.102 0 .192.024.266.063.07.043.133.101.187.171a.5.5 0 0 1 .063.235v.828h.156a.11.11 0 0 1 .063.016c.02.011.03.027.03.046 0 .024-.01.04-.03.047-.012.012-.032.016-.063.016h-.437c-.032 0-.055-.004-.063-.016-.023-.007-.027-.023-.016-.046-.011-.02-.007-.036.016-.047.008-.008.031-.016.063-.016h.156v-.828a.304.304 0 0 0-.11-.235c-.062-.062-.156-.093-.28-.093a.463.463 0 0 0-.25.062 2.406 2.406 0 0 0-.25.25v.844h.155a.11.11 0 0 1 .063.016.084.084 0 0 1 .016.046c0 .024-.008.04-.016.047C.738-.004.719 0 .687 0H.25C.219 0 .195-.004.187-.016.165-.023.158-.039.158-.062c0-.02.007-.036.03-.047C.196-.117.22-.125.25-.125h.156v-1.719H.22c-.032 0-.055-.004-.063-.015C.133-1.88.13-1.9.141-1.922c-.012-.008-.008-.023.015-.047.008-.008.032-.015.063-.015zm0 0"/></symbol><symbol overflow="visible" id="d"><path d="M1.688-.656H.343c.02.18.086.32.203.422A.673.673 0 0 0 1-.078c.094 0 .195-.016.313-.047a.752.752 0 0 0 .265-.14c.02-.008.035-.016.047-.016a.09.09 0 0 1 .047.015c.008.024.016.04.016.047 0 .024-.008.04-.016.047a.591.591 0 0 1-.281.156A1.29 1.29 0 0 1 1 .047a.747.747 0 0 1-.563-.219.715.715 0 0 1-.234-.547.63.63 0 0 1 .219-.484.786.786 0 0 1 .531-.219.844.844 0 0 1 .531.219.789.789 0 0 1 .204.547zm-.141-.125a.57.57 0 0 0-.203-.36.608.608 0 0 0-.39-.14.62.62 0 0 0-.407.14.497.497 0 0 0-.203.36zm0 0"/></symbol><symbol overflow="visible" id="e"><path d="M1.36 0v-.188a.997.997 0 0 1-.626.235.61.61 0 0 1-.375-.11.333.333 0 0 1-.125-.296C.223-.492.281-.61.406-.703c.114-.094.285-.14.516-.14.062 0 .129.007.203.015.063 0 .14.012.234.031v-.219c0-.07-.039-.132-.109-.187a.514.514 0 0 0-.297-.078c-.105 0-.25.031-.437.093a.223.223 0 0 1-.063.016c-.023 0-.039-.004-.047-.016a.093.093 0 0 1-.015-.046c0-.02.004-.036.015-.047.008-.02.067-.04.172-.063.164-.05.29-.078.375-.078.164 0 .297.043.39.125.095.086.141.18.141.281v.891h.172a.22.22 0 0 1 .078.016.084.084 0 0 1 .016.046c0 .024-.008.04-.016.047A.165.165 0 0 1 1.656 0zm0-.656a1.547 1.547 0 0 0-.204-.047c-.074 0-.148-.004-.218-.016-.2 0-.352.043-.454.125a.276.276 0 0 0-.125.235c0 .074.032.14.094.203.063.054.156.078.281.078a.61.61 0 0 0 .313-.078.934.934 0 0 0 .312-.219zm0 0"/></symbol><symbol overflow="visible" id="f"><path d="M.547-1.375v.203a.844.844 0 0 1 .25-.187.515.515 0 0 1 .25-.063.98.98 0 0 1 .281.078.66.66 0 0 1 .156.157c.04.074.063.148.063.218v.844h.125a.11.11 0 0 1 .062.016.084.084 0 0 1 .016.046c0 .024-.008.04-.016.047-.011.012-.03.016-.062.016h-.36a.155.155 0 0 1-.078-.016c-.011-.007-.015-.023-.015-.046 0-.02.004-.036.015-.047a.212.212 0 0 1 .079-.016h.109v-.828c0-.082-.04-.16-.11-.235a.361.361 0 0 0-.265-.093.522.522 0 0 0-.234.047 1.641 1.641 0 0 0-.266.265v.844h.14c.032 0 .055.008.079.016a.084.084 0 0 1 .015.046c0 .024-.008.04-.015.047A.165.165 0 0 1 .687 0h-.42a.155.155 0 0 1-.079-.016C.176-.023.172-.039.172-.062c0-.02.004-.036.016-.047a.212.212 0 0 1 .078-.016h.14v-1.11h-.11c-.03 0-.054-.003-.062-.015-.023-.008-.03-.023-.03-.047 0-.02.007-.035.03-.047.008-.02.032-.031.063-.031zm0 0"/></symbol><symbol overflow="visible" id="g"><path d="M.703-1.375h.719c.031 0 .05.012.062.031a.084.084 0 0 1 .016.047c0 .024-.008.04-.016.047-.011.012-.03.016-.062.016H.703v.89c0 .074.031.137.094.188.062.054.148.078.265.078.094 0 .192-.016.297-.047a.64.64 0 0 0 .235-.094c.02-.008.035-.015.047-.015.02 0 .035.007.046.015.008.024.016.04.016.047 0 .024-.008.04-.016.047-.03.043-.117.078-.25.11a1.255 1.255 0 0 1-.359.062.61.61 0 0 1-.375-.11.334.334 0 0 1-.14-.28v-.891h-.25c-.032 0-.055-.004-.063-.016-.012-.008-.016-.023-.016-.047 0-.02.004-.035.016-.047.008-.02.031-.031.063-.031h.25v-.39c0-.032.003-.051.015-.063.02-.008.035-.016.047-.016.02 0 .035.008.047.016.02.012.031.031.031.062zm0 0"/></symbol><symbol overflow="visible" id="h"><path d="M1.531-1.234v-.047c0-.032.004-.051.016-.063a.047.047 0 0 1 .047-.031c.02 0 .035.012.047.031a.11.11 0 0 1 .015.063v.297c0 .043-.008.07-.015.078-.012.011-.028.015-.047.015-.024 0-.04-.004-.047-.015-.012-.008-.016-.031-.016-.063-.011-.07-.062-.144-.156-.219A.666.666 0 0 0 1-1.28c-.2 0-.344.062-.438.187a.635.635 0 0 0-.156.422c0 .18.055.32.172.422.102.117.25.172.438.172.093 0 .195-.02.312-.063a.638.638 0 0 0 .281-.187c.02-.008.04-.02.063-.031.02.011.035.023.047.03a.084.084 0 0 1 .015.048c0 .043-.054.101-.156.172-.18.105-.371.156-.578.156a.686.686 0 0 1-.516-.203.657.657 0 0 1-.218-.516.72.72 0 0 1 .218-.531.777.777 0 0 1 1.047-.031zm0 0"/></symbol><symbol overflow="visible" id="i"><path d="M1.719-.688a.827.827 0 0 1-.219.532.753.753 0 0 1-.531.203.657.657 0 0 1-.516-.219.657.657 0 0 1-.219-.516c0-.195.07-.367.22-.515a.67.67 0 0 1 .515-.219c.207 0 .383.074.531.219a.83.83 0 0 1 .219.516zm-.14 0a.614.614 0 0 0-.173-.421.638.638 0 0 0-.437-.172.574.574 0 0 0-.422.172.583.583 0 0 0 0 .859.56.56 0 0 0 .422.172.62.62 0 0 0 .437-.172.63.63 0 0 0 .172-.438zm0 0"/></symbol><symbol overflow="visible" id="j"><path d="M1.031-2.047v.344H.844v-.344zm.016.672v1.25h.516a.11.11 0 0 1 .062.016c.02.011.031.027.031.046 0 .024-.011.04-.031.047-.012.012-.031.016-.063.016H.391a.155.155 0 0 1-.079-.016C.301-.023.297-.039.297-.062c0-.02.004-.036.016-.047A.212.212 0 0 1 .39-.125h.515v-1.11h-.39c-.032 0-.055-.003-.063-.015-.012-.008-.016-.023-.016-.047-.011-.02-.007-.035.016-.047.008-.02.031-.031.063-.031zm0 0"/></symbol><symbol overflow="visible" id="k"><path d="M1.031-1.984v1.859h.532a.11.11 0 0 1 .062.016c.02.011.031.027.031.046 0 .024-.011.04-.031.047-.012.012-.031.016-.063.016H.391a.155.155 0 0 1-.079-.016C.301-.023.297-.039.297-.062c0-.02.004-.036.016-.047A.212.212 0 0 1 .39-.125h.515v-1.719h-.39c-.032 0-.055-.004-.063-.015a.115.115 0 0 1-.016-.063c0-.008.004-.023.016-.047.008-.008.031-.015.063-.015zm0 0"/></symbol><symbol overflow="visible" id="l"><path d="M1.406-1.281c0-.032.004-.051.016-.063.02-.02.035-.031.047-.031.02 0 .039.012.062.031a.11.11 0 0 1 .016.063v.234c0 .031-.008.055-.016.063-.023.023-.043.027-.062.015a.036.036 0 0 1-.032-.015c-.023-.008-.03-.024-.03-.047a.262.262 0 0 0-.095-.157.57.57 0 0 0-.343-.093.554.554 0 0 0-.344.093c-.063.043-.094.09-.094.141 0 .074.035.133.11.172.05.031.144.055.28.063.188.023.317.042.391.062a.63.63 0 0 1 .235.156.41.41 0 0 1 .062.219.373.373 0 0 1-.156.297C1.336.004 1.176.047.97.047.758.047.586-.003.453-.11v.078c0 .011-.008.015-.016.015A.134.134 0 0 1 .376 0a.036.036 0 0 1-.031-.016.155.155 0 0 1-.016-.078v-.265c0-.032.004-.051.016-.063A.047.047 0 0 1 .39-.453c.02 0 .035.008.046.016.02.023.032.042.032.062 0 .055.008.094.031.125a.424.424 0 0 0 .172.125.83.83 0 0 0 .297.047c.176 0 .304-.031.39-.094.082-.062.125-.129.125-.203 0-.082-.043-.148-.125-.203a.94.94 0 0 0-.375-.094A1.356 1.356 0 0 1 .625-.75a.294.294 0 0 1-.172-.11.326.326 0 0 1-.062-.187c0-.113.054-.203.171-.266a.76.76 0 0 1 .407-.109c.176 0 .32.047.437.14zm0 0"/></symbol><symbol overflow="visible" id="m"><path d="M.36-1.375v.14c.113-.124.226-.187.343-.187.07 0 .133.024.188.063.05.03.093.086.125.156a.663.663 0 0 1 .187-.156c.05-.04.11-.063.172-.063a.452.452 0 0 1 .234.094.42.42 0 0 1 .11.266v.937h.11a.11.11 0 0 1 .062.016c.02.011.03.027.03.046 0 .024-.01.04-.03.047-.012.012-.032.016-.063.016h-.25v-1.047a.335.335 0 0 0-.047-.172.225.225 0 0 0-.156-.062.273.273 0 0 0-.14.047.723.723 0 0 0-.188.218v.891h.11a.11.11 0 0 1 .062.016c.02.011.031.027.031.046 0 .024-.012.04-.031.047-.012.012-.032.016-.063.016h-.25v-1.031a.318.318 0 0 0-.062-.188.21.21 0 0 0-.14-.062.273.273 0 0 0-.141.047.864.864 0 0 0-.204.218v.891h.125a.11.11 0 0 1 .063.016.084.084 0 0 1 .015.046c0 .024-.007.04-.015.047C.535-.004.516 0 .484 0H.125a.155.155 0 0 1-.078-.016C.035-.023.03-.039.03-.062c0-.02.004-.036.016-.047a.212.212 0 0 1 .078-.016h.11v-1.11h-.11a.155.155 0 0 1-.078-.015C.035-1.258.03-1.273.03-1.297c0-.02.004-.035.016-.047a.11.11 0 0 1 .078-.031zm0 0"/></symbol><symbol overflow="visible" id="n"><path d="M.469-1.375v.25c.082-.094.164-.164.25-.219a.68.68 0 0 1 .328-.078c.125 0 .242.031.36.094a.668.668 0 0 1 .265.266.78.78 0 0 1 .078.343c0 .188-.07.352-.203.485a.68.68 0 0 1-.5.203.676.676 0 0 1-.578-.297v.812h.328c.031 0 .05.004.062.016.008.008.016.023.016.047 0 .02-.008.035-.016.047a.11.11 0 0 1-.062.015h-.64C.124.61.101.602.093.594.07.582.066.566.078.547.066.523.07.507.094.5.102.488.125.484.156.484h.188v-1.718H.156c-.031 0-.054-.004-.062-.016-.024-.008-.028-.023-.016-.047-.012-.02-.008-.035.016-.047.008-.02.031-.031.062-.031zm1.156.656a.565.565 0 0 0-.172-.406.6.6 0 0 0-.406-.156.558.558 0 0 0-.406.172.5.5 0 0 0-.172.39c0 .149.054.278.172.39.113.106.25.157.406.157a.58.58 0 0 0 .406-.156.537.537 0 0 0 .172-.39zm0 0"/></symbol><symbol overflow="visible" id="o"><path d="M1.625-1.984v1.859h.172a.11.11 0 0 1 .062.016c.02.011.032.027.032.046 0 .024-.012.04-.032.047-.011.012-.03.016-.062.016h-.313v-.266c-.156.211-.351.313-.578.313a.65.65 0 0 1-.344-.094.623.623 0 0 1-.265-.266.832.832 0 0 1-.094-.374c0-.125.031-.243.094-.36a.645.645 0 0 1 .266-.266.6.6 0 0 1 .343-.109c.227.012.422.121.578.328v-.75h-.171a.155.155 0 0 1-.079-.015.115.115 0 0 1-.015-.063c0-.008.004-.023.015-.047a.213.213 0 0 1 .079-.015zm-.14 1.296a.587.587 0 0 0-.579-.593.558.558 0 0 0-.406.172.572.572 0 0 0-.172.421c0 .18.055.325.172.438.113.117.25.172.406.172a.592.592 0 0 0 .578-.61zm0 0"/></symbol><symbol overflow="visible" id="p"><path d="M.89-1.234v1.109h.579a.11.11 0 0 1 .062.016.084.084 0 0 1 .016.046c0 .024-.008.04-.016.047C1.52-.004 1.5 0 1.47 0H.422C.39 0 .367-.004.359-.016.348-.023.344-.039.344-.062c0-.02.004-.036.015-.047.008-.008.032-.016.063-.016H.75v-1.11H.469c-.043 0-.07-.003-.078-.015-.012-.008-.016-.023-.016-.047 0-.02.004-.035.016-.047.007-.02.035-.031.078-.031H.75v-.188a.39.39 0 0 1 .14-.296.493.493 0 0 1 .36-.125c.125 0 .254.011.39.03a1.4 1.4 0 0 1 .11.032.084.084 0 0 1 .016.047c0 .023-.012.04-.032.047-.011.012-.027.016-.046.016H1.64a3.352 3.352 0 0 0-.391-.032c-.125 0-.215.028-.266.078a.288.288 0 0 0-.093.204v.187h.61c.031 0 .055.012.078.031a.084.084 0 0 1 .016.047c0 .024-.008.04-.016.047a.165.165 0 0 1-.078.016zm0 0"/></symbol><symbol overflow="visible" id="q"><path d="M1.094 0H.859L.313-1.234H.186A.155.155 0 0 1 .11-1.25c-.011-.008-.015-.023-.015-.047 0-.02.004-.035.015-.047a.11.11 0 0 1 .079-.031h.484c.031 0 .055.012.078.031a.084.084 0 0 1 .016.047c0 .024-.008.04-.016.047a.165.165 0 0 1-.078.016h-.22l.5 1.109H1l.484-1.11h-.218a.155.155 0 0 1-.079-.015c-.011-.008-.015-.023-.015-.047 0-.02.004-.035.016-.047a.11.11 0 0 1 .078-.031h.5c.03 0 .05.012.062.031a.084.084 0 0 1 .016.047c0 .024-.008.04-.016.047-.012.012-.031.016-.062.016h-.141zm0 0"/></symbol><symbol overflow="visible" id="r"><path d="M1.422 0v-.188a.864.864 0 0 1-.578.235C.707.047.609.016.547-.047a.45.45 0 0 1-.14-.328v-.86H.233c-.03 0-.054-.003-.062-.015C.148-1.258.14-1.273.14-1.297c0-.02.007-.035.03-.047.009-.02.032-.031.063-.031h.313v1c0 .086.023.152.078.203.05.063.117.094.203.094.219 0 .414-.098.594-.297v-.86h-.234c-.043 0-.07-.003-.079-.015-.011-.008-.015-.023-.015-.047 0-.02.004-.035.015-.047.008-.02.036-.031.079-.031h.375v1.25h.109a.11.11 0 0 1 .062.016.084.084 0 0 1 .016.046c0 .024-.008.04-.016.047-.011.012-.03.016-.062.016zm0 0"/></symbol><symbol overflow="visible" id="s"><path d="M.813-1.375v.344c.164-.157.296-.254.39-.297a.452.452 0 0 1 .234-.078.34.34 0 0 1 .22.078c.07.062.109.105.109.125a.048.048 0 0 1-.032.047c-.011.023-.027.031-.046.031a.036.036 0 0 1-.032-.016s-.011-.007-.031-.03a.542.542 0 0 1-.094-.079c-.031-.008-.062-.016-.093-.016a.51.51 0 0 0-.204.063 3.79 3.79 0 0 0-.421.344v.734h.593a.11.11 0 0 1 .063.016.084.084 0 0 1 .015.046c0 .024-.007.04-.015.047-.012.012-.032.016-.063.016H.36C.33 0 .305-.004.297-.016.273-.023.266-.039.266-.062c0-.02.007-.036.03-.047.009-.008.032-.016.063-.016h.313v-1.11H.437A.155.155 0 0 1 .36-1.25c-.011-.008-.015-.023-.015-.047 0-.02.004-.035.015-.047a.11.11 0 0 1 .079-.031zm0 0"/></symbol><symbol overflow="visible" id="t"><path d="M1.422 0h-.156L.969-.844.688 0H.516L.234-1.234H.172c-.031 0-.055-.004-.063-.016-.011-.008-.015-.023-.015-.047 0-.02.004-.035.015-.047.008-.02.032-.031.063-.031h.375c.031 0 .05.012.062.031a.084.084 0 0 1 .016.047c0 .024-.008.04-.016.047-.011.012-.03.016-.062.016H.375L.609-.188l.282-.828h.156l.297.829.218-1.047h-.171c-.032 0-.055-.004-.063-.016-.012-.008-.016-.023-.016-.047 0-.02.004-.035.016-.047.008-.02.031-.031.063-.031h.375c.03 0 .05.012.062.031a.084.084 0 0 1 .016.047c0 .024-.008.04-.016.047-.012.012-.031.016-.062.016h-.063zm0 0"/></symbol><symbol overflow="visible" id="u"><path d="M1.406-.625H.531l-.172.5h.25a.11.11 0 0 1 .063.016c.02.011.031.027.031.046 0 .024-.012.04-.031.047C.66-.004.64 0 .609 0h-.5C.08 0 .055-.004.047-.016.035-.023.03-.039.03-.062c0-.02.004-.036.016-.047.008-.008.031-.016.062-.016h.11l.578-1.594h-.39c-.032 0-.055-.004-.063-.015-.012-.008-.016-.024-.016-.047 0-.02.004-.035.016-.047.008-.008.031-.016.062-.016h.672l.656 1.719h.094a.11.11 0 0 1 .063.016c.02.011.03.027.03.046 0 .024-.01.04-.03.047-.012.012-.032.016-.063.016h-.484c-.043 0-.07-.004-.078-.016-.012-.007-.016-.023-.016-.046 0-.02.004-.036.016-.047.007-.008.035-.016.078-.016h.25zM1.36-.75l-.375-.969H.938l-.36.969zm0 0"/></symbol><symbol overflow="visible" id="v"><path d="M1.547 0h-.203L.969-1.313.594 0H.39L.203-1.719H.141c-.032 0-.055-.004-.063-.015-.012-.008-.015-.024-.015-.047 0-.02.003-.035.015-.047.008-.008.031-.016.063-.016h.5a.11.11 0 0 1 .062.016c.02.012.031.027.031.047 0 .023-.011.039-.03.047-.013.011-.032.015-.063.015H.328L.5-.156l.36-1.282h.203l.375 1.282.171-1.563h-.312c-.031 0-.055-.004-.063-.015-.023-.008-.03-.024-.03-.047 0-.02.007-.035.03-.047.008-.008.032-.016.063-.016h.484a.22.22 0 0 1 .078.016.084.084 0 0 1 .016.047.067.067 0 0 1-.016.047.165.165 0 0 1-.078.015h-.047zm0 0"/></symbol><symbol overflow="visible" id="w"><path d="M1.688-.688v.579a2.027 2.027 0 0 1-.297.125c-.106.02-.204.03-.297.03a1.022 1.022 0 0 1-.375-.061.674.674 0 0 1-.281-.171.734.734 0 0 1-.172-.25.86.86 0 0 1-.063-.36v-.25A.871.871 0 0 1 .61-1.78a.811.811 0 0 1 .407-.11.91.91 0 0 1 .546.172v-.093c0-.008.004-.02.016-.032h.047c.02 0 .035.008.047.016a.11.11 0 0 1 .016.062v.313c0 .031-.008.055-.016.062-.012.012-.027.016-.047.016-.023 0-.04-.004-.047-.016-.012-.007-.016-.03-.016-.062-.011-.094-.07-.164-.171-.219a.889.889 0 0 0-.36-.078.68.68 0 0 0-.328.078.717.717 0 0 0-.281.297.578.578 0 0 0-.094.328v.25c0 .219.067.39.203.516.133.136.32.203.563.203a.63.63 0 0 0 .218-.031.858.858 0 0 0 .25-.079v-.5h-.468c-.032 0-.055-.003-.063-.015-.011-.008-.015-.024-.015-.047 0-.02.004-.035.015-.047.008-.008.032-.015.063-.015h.64c.032 0 .055.007.079.015a.084.084 0 0 1 .015.047c0 .012-.008.023-.016.031l-.03.031h-.095zm0 0"/></symbol><symbol overflow="visible" id="x"><path d="M1.031-2.016v1.891h.453c.032 0 .055.008.079.016a.084.084 0 0 1 .015.046c0 .024-.008.04-.016.047A.165.165 0 0 1 1.484 0H.454a.155.155 0 0 1-.079-.016C.363-.023.359-.039.359-.062c0-.02.004-.036.016-.047a.212.212 0 0 1 .078-.016h.453v-1.703l-.437.14H.422c-.012.012-.027.008-.047-.015-.012-.008-.016-.024-.016-.047 0-.008.004-.023.016-.047a.123.123 0 0 0 .047-.016zm0 0"/></symbol><symbol overflow="visible" id="y"><path d="M1.25-1.031a.678.678 0 0 1 .25.218.558.558 0 0 1-.094.688.62.62 0 0 1-.437.172.56.56 0 0 1-.422-.172.532.532 0 0 1-.188-.406c0-.102.032-.196.094-.281a.636.636 0 0 1 .25-.22.724.724 0 0 1-.219-.171.485.485 0 0 1 .078-.656.565.565 0 0 1 .813 0c.113.105.172.23.172.375a.444.444 0 0 1-.094.28.569.569 0 0 1-.203.173zm.156-.453a.417.417 0 0 0-.125-.297.475.475 0 0 0-.312-.11.427.427 0 0 0-.313.125.352.352 0 0 0-.125.282c0 .105.04.195.125.265a.412.412 0 0 0 .313.125.417.417 0 0 0 .312-.125.339.339 0 0 0 .125-.265zm.032.953a.417.417 0 0 0-.125-.297.472.472 0 0 0-.344-.14.414.414 0 0 0-.328.14.399.399 0 0 0 0 .61c.082.093.191.14.328.14.133 0 .25-.047.344-.14a.427.427 0 0 0 .125-.313zm0 0"/></symbol><symbol overflow="visible" id="z"><path d="M1.563-2.078L.5.203C.477.243.453.266.422.266.41.266.398.258.39.25.367.238.359.223.359.203A.103.103 0 0 1 .375.156L1.438-2.14a.091.091 0 0 1 .046-.046h.032c.02 0 .035.007.046.015a.084.084 0 0 1 .016.047c0 .012-.008.027-.016.047zm0 0"/></symbol><symbol overflow="visible" id="A"><path d="M1.219-.547H.344v-.156l.734-1.281h.281v1.296h.11a.11.11 0 0 1 .062.016.084.084 0 0 1 .016.047c0 .023-.008.04-.016.047-.011.023-.031.031-.062.031h-.11v.422h.11a.11.11 0 0 1 .062.016.084.084 0 0 1 .016.046c0 .024-.008.04-.016.047C1.52-.004 1.5 0 1.47 0h-.5C.938 0 .914-.004.906-.016.883-.023.875-.039.875-.062c0-.02.008-.036.031-.047.008-.008.031-.016.063-.016h.25zm0-.14v-1.157H1.14L.484-.687zm0 0"/></symbol><symbol overflow="visible" id="B"><path d="M.422-1.953h.422l-.11.766a.21.21 0 0 1-.046.093c-.012.012-.032.016-.063.016a.115.115 0 0 1-.063-.016c-.023-.02-.03-.05-.03-.093zm.672 0h.422l-.11.766a.851.851 0 0 1-.031.093.134.134 0 0 1-.063.016c-.03 0-.054-.004-.062-.016a.153.153 0 0 1-.047-.093zm0 0"/></symbol><symbol overflow="visible" id="C"><path d="M.938-.375H1a.22.22 0 0 1 .156.063.21.21 0 0 1 .063.14.218.218 0 0 1-.063.156A.225.225 0 0 1 1 .047H.937a.196.196 0 0 1-.14-.063.147.147 0 0 1-.063-.156c0-.05.02-.098.063-.14a.196.196 0 0 1 .14-.063zm0 0"/></symbol><symbol overflow="visible" id="D"><path d="M1.422-1.125v-.25h.312c.032 0 .051.012.063.031a.084.084 0 0 1 .016.047c0 .024-.008.04-.016.047-.012.012-.031.016-.063.016h-.187V.094A.6.6 0 0 1 1.5.328a.48.48 0 0 1-.14.14.602.602 0 0 1-.157.11.554.554 0 0 1-.187.031H.64A.213.213 0 0 1 .562.594C.551.582.547.566.547.547.547.523.55.507.562.5A.1.1 0 0 1 .641.469l.375.015c.07 0 .144-.023.218-.062a.618.618 0 0 0 .141-.188.256.256 0 0 0 .047-.156v-.406a.674.674 0 0 1-.563.297.63.63 0 0 1-.468-.203.685.685 0 0 1-.188-.485c0-.195.063-.363.188-.5a.733.733 0 0 1 .468-.203c.227 0 .414.102.563.297zm0 .406a.565.565 0 0 0-.172-.406.526.526 0 0 0-.375-.156.57.57 0 0 0-.39.156.583.583 0 0 0-.157.406c0 .156.05.29.156.39a.552.552 0 0 0 .391.157.51.51 0 0 0 .375-.156.506.506 0 0 0 .172-.39zm0 0"/></symbol><symbol overflow="visible" id="E"><path d="M1.64-1.016v.204H.298v-.204zm0 0"/></symbol><symbol overflow="visible" id="F"><path d="M.703-.484h.438L.67.39C.642.44.602.469.563.469A.164.164 0 0 1 .5.453.1.1 0 0 1 .469.375c0-.012.004-.023.015-.031zm0 0"/></symbol><symbol overflow="visible" id="G"><path d="M.984 0L.36-1.234H.33a.155.155 0 0 1-.08-.016c-.012-.008-.016-.023-.016-.047 0-.008.004-.023.016-.047 0-.008.004-.015.016-.015.007-.008.03-.016.062-.016h.36c.03 0 .05.012.062.031.02.012.031.028.031.047 0 .024-.011.04-.031.047-.012.012-.031.016-.063.016H.516l.53 1.093.532-1.093h-.172c-.031 0-.054-.004-.062-.016-.024-.008-.032-.023-.032-.047 0-.02.008-.035.032-.047.008-.02.031-.031.062-.031h.36c.03 0 .054.012.078.031a.084.084 0 0 1 .015.047.044.044 0 0 1-.015.031l-.032.032h-.078L.891.484h.203c.031 0 .05.004.062.016.02.008.032.023.032.047 0 .02-.012.035-.032.047a.11.11 0 0 1-.062.015H.328C.297.61.273.602.266.594.242.582.234.566.234.547.234.523.242.507.266.5.273.488.296.484.328.484H.75zm0 0"/></symbol><symbol overflow="visible" id="H"><path d="M.469-1.984v.875c.156-.207.347-.313.578-.313.195 0 .363.074.5.219.133.148.203.32.203.516 0 .21-.07.386-.203.53a.713.713 0 0 1-.5.204c-.23 0-.422-.102-.578-.313V0H.156C.125 0 .102-.004.094-.016.07-.023.066-.039.078-.062.066-.083.07-.099.094-.11c.008-.008.031-.016.062-.016h.188v-1.719H.156c-.031 0-.054-.004-.062-.015C.07-1.88.066-1.9.078-1.922.066-1.93.07-1.945.094-1.969c.008-.008.031-.015.062-.015zM1.625-.688a.587.587 0 0 0-.578-.593.558.558 0 0 0-.406.172.572.572 0 0 0-.172.421c0 .18.054.325.172.438.113.117.25.172.406.172a.592.592 0 0 0 .578-.61zm0 0"/></symbol><symbol overflow="visible" id="I"><path d="M.406-.125h1.016v-.063c0-.03.004-.05.016-.062.007-.008.023-.016.046-.016a.08.08 0 0 1 .047.016.11.11 0 0 1 .016.063V0H.266v-.203c.27-.238.535-.484.796-.734a3.54 3.54 0 0 0 .235-.25.72.72 0 0 0 .094-.157.227.227 0 0 0 .03-.125.39.39 0 0 0-.14-.297.485.485 0 0 0-.328-.125.545.545 0 0 0-.312.094.384.384 0 0 0-.172.25.188.188 0 0 1-.031.047c-.012.012-.028.016-.047.016A.036.036 0 0 1 .359-1.5c-.023-.008-.03-.023-.03-.047 0-.05.03-.117.093-.203a.611.611 0 0 1 .219-.203.698.698 0 0 1 .312-.078c.156 0 .297.058.422.172a.55.55 0 0 1 .172.39.48.48 0 0 1-.031.172c-.024.055-.055.11-.094.172l-.266.266c-.312.312-.562.554-.75.718zm0 0"/></symbol><symbol overflow="visible" id="J"><path d="M.703-.594V0H.391C.359 0 .336-.004.328-.016.305-.023.297-.039.297-.062c0-.02.008-.036.031-.047.008-.008.031-.016.063-.016h.171v-1.719H.391c-.032 0-.055-.004-.063-.015a.079.079 0 0 1-.031-.063c0-.008.008-.023.031-.047.008-.008.031-.015.063-.015h.312v1.218l.563-.468h-.063a.155.155 0 0 1-.078-.016c-.012-.008-.016-.023-.016-.047 0-.02.004-.035.016-.047a.11.11 0 0 1 .078-.031h.422c.031 0 .05.012.063.031.019.012.03.028.03.047 0 .024-.011.04-.03.047-.012.012-.032.016-.063.016h-.156l-.516.437.656.672h.157a.11.11 0 0 1 .062.016.084.084 0 0 1 .016.046c0 .024-.008.04-.016.047-.012.012-.031.016-.062.016h-.438c-.031 0-.055-.004-.062-.016-.024-.007-.032-.023-.032-.046 0-.02.008-.036.032-.047.007-.008.03-.016.062-.016h.094L.859-.719zm0 0"/></symbol><symbol overflow="visible" id="K"><path d="M2.094-1.172c0 .219-.043.414-.125.578a1.04 1.04 0 0 1-.36.406 1.211 1.211 0 0 1-.359.157A2.651 2.651 0 0 1 .781 0H.234v-2.344h.547c.219 0 .39.016.516.047.125.031.226.074.312.125.157.106.274.242.36.406.082.168.125.368.125.594zm-.328 0c0-.187-.032-.344-.094-.469a.63.63 0 0 0-.266-.296.979.979 0 0 0-.265-.11 1.72 1.72 0 0 0-.344-.031h-.25v1.812h.25c.133 0 .254-.007.36-.03a.783.783 0 0 0 .531-.422c.05-.126.078-.274.078-.454zm0 0"/></symbol><symbol overflow="visible" id="L"><path d="M.89.047C.724.047.579.023.454-.016A1.501 1.501 0 0 1 .125-.14v-.39h.016c.101.094.222.168.359.219.125.054.25.078.375.078.164 0 .297-.036.39-.11.083-.062.126-.156.126-.281a.364.364 0 0 0-.063-.219.483.483 0 0 0-.219-.14 2.905 2.905 0 0 0-.203-.047 1.001 1.001 0 0 1-.219-.063.95.95 0 0 1-.218-.078.386.386 0 0 1-.172-.125.38.38 0 0 1-.11-.187.522.522 0 0 1-.046-.235c0-.187.07-.347.218-.484.145-.125.336-.188.579-.188.125 0 .242.012.359.032.125.03.234.07.328.109v.375h-.016a1.215 1.215 0 0 0-.296-.172.889.889 0 0 0-.36-.078.579.579 0 0 0-.36.11.308.308 0 0 0-.124.265.34.34 0 0 0 .078.234c.05.063.125.106.219.125.07.024.156.043.25.063.093.023.171.043.234.062.164.055.285.125.36.22.07.105.109.23.109.374a.885.885 0 0 1-.047.281.821.821 0 0 1-.156.22.779.779 0 0 1-.266.155.941.941 0 0 1-.36.063zm0 0"/></symbol><symbol overflow="visible" id="M"><path d="M1.219.047C1.05.047.899.02.766-.031a.956.956 0 0 1-.36-.235A1.045 1.045 0 0 1 .187-.64a1.6 1.6 0 0 1-.078-.53c0-.196.024-.368.079-.516.05-.145.124-.274.218-.391.094-.094.211-.172.36-.235a1.28 1.28 0 0 1 .453-.078c.082 0 .16.008.234.016.07.012.14.027.203.047.051.023.114.043.188.062.062.032.113.059.156.079v.374h-.031a.809.809 0 0 1-.125-.109 1.678 1.678 0 0 1-.172-.094 1.29 1.29 0 0 0-.219-.078 1.178 1.178 0 0 0-.266-.031.67.67 0 0 0-.546.25c-.149.18-.22.406-.22.688 0 .156.02.292.063.406.032.125.082.23.157.312a1 1 0 0 0 .25.188.732.732 0 0 0 .312.062.99.99 0 0 0 .266-.031.706.706 0 0 0 .218-.047v-.61h-.53v-.28H2v1.03a.865.865 0 0 1-.156.063.87.87 0 0 1-.188.063.988.988 0 0 1-.203.062c-.062.008-.14.016-.234.016zm0 0"/></symbol><symbol overflow="visible" id="an"><path d="M-.016 0l.797-2.344h.375L1.953 0h-.328l-.219-.656h-.89L.296 0zm1.344-.922l-.36-1.11-.374 1.11zm0 0"/></symbol><symbol overflow="visible" id="ao"><path d="M1.922 0h-.36L.532-2.031V0H.233v-2.344h.454l.937 1.86v-1.86h.297zm0 0"/></symbol><symbol overflow="visible" id="ap"><path d="M.781 0v-2.078H0v-.266h1.89v.266h-.796V0zm0 0"/></symbol><symbol overflow="visible" id="aq"><path d="M1.5 0H.36v-.234h.42v-1.579H.36v-.218c.157 0 .274-.02.36-.063.07-.05.113-.14.125-.265h.25v2.125H1.5zm0 0"/></symbol><symbol overflow="visible" id="N"><path d="M1.969-1.734l-.125.203-.64-.422.015.719h-.25l.015-.72-.64.438-.125-.218.687-.407-.687-.406.125-.219.64.438-.015-.719h.25l-.016.719.64-.438.126.22-.688.405zm0 0"/></symbol><symbol overflow="visible" id="P"><path d="M2.281-.89a.703.703 0 0 1-.094.374.72.72 0 0 1-.218.282.865.865 0 0 1-.344.172A1.62 1.62 0 0 1 1.141 0H.297v-2.922h.781c.195 0 .352.008.469.016.094.023.191.058.297.11a.588.588 0 0 1 .297.53c0 .149-.04.274-.11.375a.778.778 0 0 1-.297.25v.016c.164.055.301.14.407.266a.76.76 0 0 1 .14.468zm-.547-1.313a.554.554 0 0 0-.03-.188.281.281 0 0 0-.11-.125.977.977 0 0 0-.219-.062 2.985 2.985 0 0 0-.313-.016H.688v.86h.438c.125 0 .21-.004.266-.016a.429.429 0 0 0 .187-.078.452.452 0 0 0 .125-.156.634.634 0 0 0 .031-.22zm.141 1.328a.73.73 0 0 0-.047-.281.355.355 0 0 0-.187-.172.722.722 0 0 0-.204-.063 2.985 2.985 0 0 0-.312-.015H.687v1.078H1c.164 0 .3-.008.406-.031a.478.478 0 0 0 .25-.094c.07-.05.13-.11.172-.172a.56.56 0 0 0 .047-.25zm0 0"/></symbol><symbol overflow="visible" id="Q"><path d="M2.047-2.578H.687v.828h1.297v.344H.688V0H.296v-2.922h1.75zm0 0"/></symbol><symbol overflow="visible" id="R"><path d="M2.016 0H.219v-.406l.36-.36c.112-.101.226-.218.343-.343.219-.25.367-.446.453-.594.07-.145.113-.297.125-.453a.487.487 0 0 0-.047-.219.602.602 0 0 0-.11-.156.629.629 0 0 0-.344-.11.822.822 0 0 0-.218.032.685.685 0 0 0-.203.062 1.166 1.166 0 0 0-.156.078c-.055.031-.094.059-.125.078H.28v-.406c.07-.039.18-.082.328-.125.145-.039.286-.062.422-.062.258 0 .469.074.625.218.157.149.235.344.235.594 0 .117-.012.219-.032.313a2.19 2.19 0 0 1-.109.265 2.195 2.195 0 0 1-.188.25 4.057 4.057 0 0 1-.203.25 7.154 7.154 0 0 1-.421.422 7.96 7.96 0 0 1-.36.344h1.438zm0 0"/></symbol><symbol overflow="visible" id="S"><path d="M2.094-1H1.75v1h-.375v-1H.078v-.422l1.313-1.5h.359v1.61h.344zm-.719-.313v-1.14l-.984 1.14zm0 0"/></symbol><symbol overflow="visible" id="T"><path d="M1.984-.922c0 .137-.023.266-.062.39a1.304 1.304 0 0 1-.203.313.757.757 0 0 1-.297.203 1.072 1.072 0 0 1-.406.079C.867.063.726.046.594.015A1.216 1.216 0 0 1 .25-.11v-.407h.016c.03.024.078.047.14.079.051.023.114.046.188.078.07.023.14.043.203.062.062.012.133.016.219.016.07 0 .148-.016.234-.047a.389.389 0 0 0 .188-.125.604.604 0 0 0 .109-.203c.02-.07.031-.164.031-.281a.868.868 0 0 0-.031-.25.491.491 0 0 0-.125-.157.644.644 0 0 0-.203-.11 1.265 1.265 0 0 0-.282-.03 4 4 0 0 0-.312.015c-.117.024-.203.04-.266.047v-1.5h1.61v.344H.734v.781c.051-.008.098-.016.141-.016H1c.156 0 .285.012.39.032.094.031.192.078.298.14a.782.782 0 0 1 .218.282c.051.117.078.261.078.437zm0 0"/></symbol><symbol overflow="visible" id="U"><path d="M-.016 0L.97-2.922h.469L2.421 0h-.406L1.75-.813H.64L.376 0zm1.657-1.14l-.454-1.391-.437 1.39zm0 0"/></symbol><symbol overflow="visible" id="V"><path d="M2.031-1.453c0 .523-.078.902-.234 1.14-.149.25-.383.376-.703.376C.77.063.535-.064.39-.314.234-.563.156-.94.156-1.452c0-.531.078-.914.235-1.156.156-.25.39-.375.703-.375.32 0 .554.132.703.39.156.25.234.633.234 1.14zm-.5.875a2.32 2.32 0 0 0 .078-.36 9.314 9.314 0 0 0 0-1.046 2.427 2.427 0 0 0-.078-.36.573.573 0 0 0-.172-.234.414.414 0 0 0-.265-.078.446.446 0 0 0-.266.078.512.512 0 0 0-.172.234 1.997 1.997 0 0 0-.078.375 6.995 6.995 0 0 0-.015.516c0 .2.003.371.015.516.008.136.035.257.078.359.04.105.098.183.172.234.063.055.149.078.266.078a.436.436 0 0 0 .265-.078.525.525 0 0 0 .172-.234zm0 0"/></symbol><symbol overflow="visible" id="W"><path d="M2.11-1.156c0 .367-.09.656-.266.875-.18.219-.399.328-.657.328A.83.83 0 0 1 .891 0a.74.74 0 0 1-.25-.11v.922H.266v-3H.64v.235c.082-.082.18-.156.296-.219a.907.907 0 0 1 .375-.078.67.67 0 0 1 .579.297c.144.2.218.465.218.797zm-.391.047c0-.25-.04-.442-.11-.579a.425.425 0 0 0-.39-.218 1.238 1.238 0 0 0-.313.078 1.143 1.143 0 0 0-.265.172v1.25c.093.043.175.074.25.094a.69.69 0 0 0 .234.03c.188 0 .332-.07.438-.218.101-.133.156-.336.156-.61zm0 0"/></symbol><symbol overflow="visible" id="X"><path d="M1.86 0H.436v-.297H.97V-2.25H.438v-.266c.195 0 .347-.03.453-.093.093-.051.144-.157.156-.313h.297v2.625h.515zm0 0"/></symbol><symbol overflow="visible" id="Y"><path d="M1.516.063c-.211 0-.399-.032-.563-.094a.962.962 0 0 1-.437-.297 1.177 1.177 0 0 1-.282-.469 1.894 1.894 0 0 1-.109-.672c0-.226.035-.437.11-.625a1.33 1.33 0 0 1 .28-.484c.114-.125.258-.223.438-.297.176-.063.363-.094.563-.094.101 0 .195.008.28.016.095.023.18.043.266.062.063.024.133.047.22.079a.829.829 0 0 1 .187.093v.469h-.031a3.862 3.862 0 0 0-.141-.125 1.311 1.311 0 0 0-.219-.125c-.086-.04-.18-.07-.281-.094a1.039 1.039 0 0 0-.328-.047.798.798 0 0 0-.672.329c-.18.21-.266.492-.266.843 0 .188.024.36.078.516a.83.83 0 0 0 .188.36.745.745 0 0 0 .312.234.884.884 0 0 0 .391.078c.113 0 .223-.004.328-.016.102-.02.195-.047.281-.078v-.75h-.687v-.344h1.062v1.282c-.054.023-.117.046-.187.078-.094.03-.172.058-.235.078-.105.031-.195.05-.265.062-.074.02-.168.032-.281.032zm0 0"/></symbol><symbol overflow="visible" id="Z"><path d="M2.39 0h-.437L.656-2.516V0h-.36v-2.922h.548L2.016-.609v-2.313h.375zm0 0"/></symbol><symbol overflow="visible" id="aa"><path d="M2.594-1.453c0 .262-.055.5-.156.719-.106.218-.25.386-.438.5a1.33 1.33 0 0 1-.453.187A2.89 2.89 0 0 1 .969 0H.297v-2.922h.656c.281 0 .5.024.656.063.157.043.286.101.391.171.188.126.332.293.438.5.101.211.156.454.156.735zm-.406-.016c0-.218-.04-.41-.11-.578a.813.813 0 0 0-.328-.36 1.342 1.342 0 0 0-.328-.14 1.832 1.832 0 0 0-.438-.047H.688v2.266h.296c.164 0 .317-.016.454-.047a1.016 1.016 0 0 0 .656-.516c.062-.156.094-.347.094-.578zm0 0"/></symbol><symbol overflow="visible" id="ab"><path d="M1.594-2.234a.426.426 0 0 0-.14-.329.46.46 0 0 0-.36-.14.464.464 0 0 0-.344.125.378.378 0 0 0-.14.312c0 .094.019.18.062.25a.71.71 0 0 0 .219.172.509.509 0 0 0 .187.094c.07.043.145.074.219.094a.699.699 0 0 0 .234-.266.796.796 0 0 0 .063-.312zM1.64-.781a.599.599 0 0 0-.063-.281.934.934 0 0 0-.281-.22l-.172-.077a3.457 3.457 0 0 0-.25-.094.694.694 0 0 0-.25.25.873.873 0 0 0-.078.375.555.555 0 0 0 .156.437.494.494 0 0 0 .39.172c.165 0 .302-.05.407-.156.094-.094.14-.227.14-.406zm-.547.844A1.2 1.2 0 0 1 .704 0 .722.722 0 0 1 .39-.188a.598.598 0 0 1-.188-.28.883.883 0 0 1-.062-.344.8.8 0 0 1 .125-.438.947.947 0 0 1 .375-.313v-.015a.788.788 0 0 1-.329-.266.703.703 0 0 1-.093-.375c0-.219.082-.398.25-.547a.917.917 0 0 1 .625-.218c.258 0 .472.07.64.203a.706.706 0 0 1 .235.531c0 .137-.04.266-.11.39a.658.658 0 0 1-.328.298v.015c.164.086.297.184.39.297a.742.742 0 0 1 .126.438c0 .25-.09.46-.266.625a.994.994 0 0 1-.687.25zm0 0"/></symbol><symbol overflow="visible" id="ac"><path d="M.844 0H.375v-.563h.469zm0 0"/></symbol><symbol overflow="visible" id="ad"><path d="M1.969 0h-.36v-.25a1.526 1.526 0 0 1-.328.234.78.78 0 0 1-.61.032.505.505 0 0 1-.218-.157.685.685 0 0 1-.156-.25A1.29 1.29 0 0 1 .25-.766v-1.421h.375v1.25c0 .117.004.21.016.28 0 .087.015.153.046.204.032.062.07.105.125.125a.78.78 0 0 0 .516-.031 1.41 1.41 0 0 0 .281-.204v-1.625h.36zm0 0"/></symbol><symbol overflow="visible" id="ae"><path d="M2.422 0h-.39v-1.422H.686V0h-.39v-2.922h.39v1.14H2.03v-1.14h.39zm0 0"/></symbol><symbol overflow="visible" id="af"><path d="M2.078 0h-.484L.78-1.063l-.14.141V0H.266v-3.047H.64v1.781l.859-.921h.453l-.89.906zm0 0"/></symbol><symbol overflow="visible" id="ag"><path d="M2.047-2.484L.78 0H.36l1.344-2.578H.187v-.344h1.86zm0 0"/></symbol><symbol overflow="visible" id="ah"><path d="M1.984 0h-.359v-1.25c0-.094-.008-.188-.016-.281a.566.566 0 0 0-.062-.203.382.382 0 0 0-.125-.125 1.042 1.042 0 0 0-.219-.047.589.589 0 0 0-.281.078c-.106.055-.2.117-.281.187V0H.266v-2.188H.64v.235a1.42 1.42 0 0 1 .312-.219.831.831 0 0 1 .344-.078c.219 0 .39.07.516.203.113.149.171.356.171.625zm0 0"/></symbol><symbol overflow="visible" id="ai"><path d="M1.281-1.094H.171v-.36h1.11zm0 0"/></symbol><symbol overflow="visible" id="aj"><path d="M2.063-.953c0 .156-.028.297-.079.422a.974.974 0 0 1-.203.312.723.723 0 0 1-.297.203.78.78 0 0 1-.343.079A1.04 1.04 0 0 1 .78 0a.891.891 0 0 1-.297-.203A1.194 1.194 0 0 1 .25-.625a2.253 2.253 0 0 1-.078-.656c0-.25.023-.477.078-.688.05-.207.129-.383.234-.531.102-.145.239-.258.407-.344.164-.082.359-.125.578-.125h.187c.063.012.114.024.157.031v.376h-.016a.676.676 0 0 0-.156-.047.87.87 0 0 0-.22-.032.784.784 0 0 0-.593.25c-.148.168-.234.414-.265.735a1.58 1.58 0 0 1 .296-.157.973.973 0 0 1 .313-.046c.113 0 .21.011.297.03a.792.792 0 0 1 .515.438c.051.125.079.274.079.438zm-.407.015a.861.861 0 0 0-.047-.296.5.5 0 0 0-.14-.204.735.735 0 0 0-.172-.093c-.074-.008-.14-.016-.203-.016a.745.745 0 0 0-.266.047 1.272 1.272 0 0 0-.265.125v.172c0 .21.019.375.062.5.04.125.086.219.14.281.051.063.11.106.172.125a.326.326 0 0 0 .204.031c.156 0 .28-.05.375-.156.093-.113.14-.285.14-.516zm0 0"/></symbol><symbol overflow="visible" id="ak"><path d="M1.984 0H.297v-2.922h.39v2.578h1.297zm0 0"/></symbol><symbol overflow="visible" id="al"><path d="M.984 0v-2.578H0v-.344h2.344v.344h-.985V0zm0 0"/></symbol><symbol overflow="visible" id="am"><path d="M1.438.047a1.212 1.212 0 0 1-.532-.094A1.087 1.087 0 0 1 .5-.328a1.388 1.388 0 0 1-.281-.469 2.147 2.147 0 0 1-.094-.656c0-.25.031-.461.094-.64C.28-2.27.375-2.43.5-2.579a1.28 1.28 0 0 1 .406-.297c.156-.063.332-.094.531-.094.102 0 .196.008.282.016.082.023.16.043.234.062.063.024.129.043.203.063.063.031.125.07.188.11v.468h-.031c-.032-.031-.075-.07-.126-.125-.062-.04-.132-.082-.203-.125a2.15 2.15 0 0 0-.234-.11 1.54 1.54 0 0 0-.313-.03.767.767 0 0 0-.343.078.876.876 0 0 0-.297.218.997.997 0 0 0-.188.375 1.552 1.552 0 0 0-.078.516c0 .2.024.371.078.516a.83.83 0 0 0 .188.359c.082.105.18.18.297.219a.718.718 0 0 0 .343.078.99.99 0 0 0 .313-.047A.83.83 0 0 0 2-.422a1.42 1.42 0 0 0 .313-.234h.03v.453a2.274 2.274 0 0 0-.171.094 1.023 1.023 0 0 1-.219.078C1.867 0 1.79.019 1.72.03a2.627 2.627 0 0 1-.282.016zm0 0"/></symbol><symbol overflow="visible" id="ar"><path d="M2.563 0h-.516l-.922-1.156H.687V0h-.39v-2.922h.75c.164 0 .305.012.422.031.113.024.222.063.328.125a.8.8 0 0 1 .234.25.751.751 0 0 1 .094.391.797.797 0 0 1-.172.531.913.913 0 0 1-.437.328zm-.844-2.094a.598.598 0 0 0-.047-.234.412.412 0 0 0-.14-.156.446.446 0 0 0-.188-.079c-.074-.007-.168-.019-.282-.03H.688v1.109h.344c.102 0 .203-.008.297-.032a.459.459 0 0 0 .219-.125.38.38 0 0 0 .125-.187.66.66 0 0 0 .047-.266zm0 0"/></symbol><symbol overflow="visible" id="as"><path d="M2.61-1.125h-.985v1h-.328v-1H.313v-.313h.984v-.984h.328v.985h.984zm0 0"/></symbol><symbol overflow="visible" id="av"><path d="M2.719.719C2.645.727 2.57.739 2.5.75c-.086.008-.164.016-.234.016-.22 0-.399-.063-.532-.188-.136-.117-.21-.289-.218-.515h-.094c-.2 0-.375-.04-.531-.11a.87.87 0 0 1-.407-.297A1.247 1.247 0 0 1 .22-.813a2.01 2.01 0 0 1-.094-.64c0-.25.031-.469.094-.656.062-.188.148-.344.265-.47a.897.897 0 0 1 .407-.296c.156-.07.332-.11.53-.11.196 0 .376.04.532.11.156.074.29.172.406.297.114.125.204.281.266.469.05.187.082.406.094.656-.012.375-.09.683-.235.922-.148.25-.343.418-.593.5 0 .082.007.148.03.203A.34.34 0 0 0 2 .312c.031.04.07.07.125.094a1.3 1.3 0 0 0 .203.016.46.46 0 0 0 .188-.016 2.74 2.74 0 0 1 .156-.047h.047zm-.406-2.172c0-.195-.024-.367-.063-.516a1.015 1.015 0 0 0-.453-.61 1.18 1.18 0 0 0-.75 0 .885.885 0 0 0-.281.235c-.075.106-.133.23-.172.375a1.943 1.943 0 0 0-.063.516c0 .375.082.668.25.875.156.21.367.312.64.312.27 0 .485-.101.641-.312.165-.207.25-.5.25-.875zm0 0"/></symbol><symbol overflow="visible" id="aw"><path d="M1.313.063a1.27 1.27 0 0 1-.454-.079.722.722 0 0 1-.312-.187.79.79 0 0 1-.219-.375 1.719 1.719 0 0 1-.062-.516v-1.828h.39v1.828a.947.947 0 0 0 .016.328c.02.094.055.18.11.25.05.086.116.149.202.188a.78.78 0 0 0 .329.062.78.78 0 0 0 .328-.062.465.465 0 0 0 .218-.188.513.513 0 0 0 .094-.234c.02-.094.031-.207.031-.344v-1.828h.391v1.828c0 .2-.023.371-.063.516a.86.86 0 0 1-.218.375A1.08 1.08 0 0 1 1.766 0c-.125.04-.278.063-.454.063zm0 0"/></symbol><symbol overflow="visible" id="ax"><path d="M.297 0v-2.922h1.828v.344H.687v.797h1.344v.36H.687v1.077h1.438V0zm0 0"/></symbol><symbol overflow="visible" id="O"><path d="M-1.734-1.969l.203.125-.422.64.719-.015v.25l-.72-.015.438.64-.218.125-.407-.687-.406.687-.219-.125.438-.64-.719.015v-.25l.719.016-.438-.64.22-.126.405.688zm0 0"/></symbol><symbol overflow="visible" id="at"><path d="M3.39-4.094L1.985 0h-.593L-.016-4.094h.579l1.14 3.39 1.125-3.39zm0 0"/></symbol><symbol overflow="visible" id="au"><path d="M2.016.078c-.274 0-.516-.047-.735-.14A1.315 1.315 0 0 1 .703-.47a1.823 1.823 0 0 1-.39-.656 2.536 2.536 0 0 1-.126-.922c0-.344.04-.64.126-.89.082-.258.207-.485.374-.672a1.56 1.56 0 0 1 .594-.422c.219-.094.469-.14.75-.14.133 0 .266.01.39.03.114.024.224.047.329.079.082.023.172.054.266.093.093.043.187.09.28.14v.657H3.25a2.466 2.466 0 0 1-.188-.156 2.232 2.232 0 0 0-.265-.188 3.144 3.144 0 0 0-.344-.14 1.832 1.832 0 0 0-.437-.047 1.28 1.28 0 0 0-.485.094 1.086 1.086 0 0 0-.422.328 1.4 1.4 0 0 0-.265.515c-.063.22-.094.461-.094.72 0 .28.031.523.094.718.07.21.164.383.281.516.113.136.25.242.406.312.157.074.317.11.485.11.156 0 .3-.02.437-.063.133-.04.254-.086.36-.14a2.47 2.47 0 0 0 .265-.188c.07-.051.129-.098.172-.14h.047v.64c-.094.043-.18.086-.25.125a1.631 1.631 0 0 1-.297.11c-.125.042-.234.07-.328.093a2.25 2.25 0 0 1-.406.031zm0 0"/></symbol></defs><use xlink:href="#a" x="408.908" y="265.381" fill="#505050"/><use xlink:href="#b" x="410.828" y="265.381" fill="#505050"/><use xlink:href="#b" x="412.748" y="265.381" fill="#505050"/><use xlink:href="#c" x="414.668" y="265.381" fill="#505050"/><use xlink:href="#d" x="416.588" y="265.381" fill="#505050"/><use xlink:href="#b" x="418.508" y="265.381" fill="#505050"/><use xlink:href="#e" x="420.428" y="265.381" fill="#505050"/><use xlink:href="#f" x="422.348" y="265.381" fill="#505050"/><use xlink:href="#g" x="424.268" y="265.381" fill="#505050"/><use xlink:href="#d" x="426.188" y="265.381" fill="#505050"/><use xlink:href="#f" x="428.108" y="265.381" fill="#505050"/><use xlink:href="#f" x="430.028" y="265.381" fill="#505050"/><use xlink:href="#e" x="431.948" y="265.381" fill="#505050"/><use xlink:href="#b" x="433.868" y="265.381" fill="#505050"/><use xlink:href="#h" x="435.788" y="265.381" fill="#505050"/><use xlink:href="#i" x="437.708" y="265.381" fill="#505050"/><use xlink:href="#j" x="439.628" y="265.381" fill="#505050"/><use xlink:href="#k" x="441.548" y="265.381" fill="#505050"/><use xlink:href="#b" x="443.468" y="265.381" fill="#505050"/><use xlink:href="#j" x="445.388" y="265.381" fill="#505050"/><use xlink:href="#l" x="447.308" y="265.381" fill="#505050"/><use xlink:href="#b" x="449.228" y="265.381" fill="#505050"/><use xlink:href="#h" x="451.148" y="265.381" fill="#505050"/><use xlink:href="#i" x="453.068" y="265.381" fill="#505050"/><use xlink:href="#m" x="454.988" y="265.381" fill="#505050"/><use xlink:href="#n" x="456.908" y="265.381" fill="#505050"/><use xlink:href="#i" x="458.828" y="265.381" fill="#505050"/><use xlink:href="#l" x="460.748" y="265.381" fill="#505050"/><use xlink:href="#d" x="462.668" y="265.381" fill="#505050"/><use xlink:href="#o" x="464.588" y="265.381" fill="#505050"/><use xlink:href="#b" x="466.508" y="265.381" fill="#505050"/><use xlink:href="#i" x="468.428" y="265.381" fill="#505050"/><use xlink:href="#p" x="470.348" y="265.381" fill="#505050"/><use xlink:href="#b" x="472.268" y="265.381" fill="#505050"/><use xlink:href="#p" x="474.188" y="265.381" fill="#505050"/><use xlink:href="#j" x="476.108" y="265.381" fill="#505050"/><use xlink:href="#q" x="478.029" y="265.381" fill="#505050"/><use xlink:href="#d" x="479.948" y="265.381" fill="#505050"/><use xlink:href="#b" x="481.868" y="265.381" fill="#505050"/><use xlink:href="#g" x="483.788" y="265.381" fill="#505050"/><use xlink:href="#r" x="485.708" y="265.381" fill="#505050"/><use xlink:href="#s" x="487.629" y="265.381" fill="#505050"/><use xlink:href="#f" x="489.548" y="265.381" fill="#505050"/><use xlink:href="#l" x="491.468" y="265.381" fill="#505050"/><use xlink:href="#b" x="493.388" y="265.381" fill="#505050"/><use xlink:href="#i" x="495.308" y="265.381" fill="#505050"/><use xlink:href="#p" x="497.229" y="265.381" fill="#505050"/><use xlink:href="#b" x="499.149" y="265.381" fill="#505050"/><use xlink:href="#l" x="501.068" y="265.381" fill="#505050"/><use xlink:href="#n" x="502.988" y="265.381" fill="#505050"/><use xlink:href="#e" x="504.908" y="265.381" fill="#505050"/><use xlink:href="#h" x="506.828" y="265.381" fill="#505050"/><use xlink:href="#d" x="508.748" y="265.381" fill="#505050"/><use xlink:href="#b" x="510.668" y="265.381" fill="#505050"/><use xlink:href="#t" x="512.588" y="265.381" fill="#505050"/><use xlink:href="#i" x="514.508" y="265.381" fill="#505050"/><use xlink:href="#r" x="516.428" y="265.381" fill="#505050"/><use xlink:href="#f" x="518.348" y="265.381" fill="#505050"/><use xlink:href="#o" x="520.268" y="265.381" fill="#505050"/><use xlink:href="#b" x="522.188" y="265.381" fill="#505050"/><use xlink:href="#u" x="524.108" y="265.381" fill="#505050"/><use xlink:href="#v" x="526.028" y="265.381" fill="#505050"/><use xlink:href="#w" x="527.948" y="265.381" fill="#505050"/><use xlink:href="#b" x="529.868" y="265.381" fill="#505050"/><use xlink:href="#x" x="531.788" y="265.381" fill="#505050"/><use xlink:href="#y" x="533.708" y="265.381" fill="#505050"/><use xlink:href="#b" x="535.628" y="265.381" fill="#505050"/><use xlink:href="#t" x="537.548" y="265.381" fill="#505050"/><use xlink:href="#j" x="539.468" y="265.381" fill="#505050"/><use xlink:href="#s" x="541.388" y="265.381" fill="#505050"/><use xlink:href="#d" x="543.308" y="265.381" fill="#505050"/><use xlink:href="#b" x="545.228" y="265.381" fill="#505050"/><use xlink:href="#i" x="547.148" y="265.381" fill="#505050"/><use xlink:href="#f" x="549.068" y="265.381" fill="#505050"/><use xlink:href="#b" x="550.988" y="265.381" fill="#505050"/><use xlink:href="#e" x="552.908" y="265.381" fill="#505050"/><use xlink:href="#b" x="554.828" y="265.381" fill="#505050"/><use xlink:href="#x" x="556.748" y="265.381" fill="#505050"/><use xlink:href="#z" x="558.668" y="265.381" fill="#505050"/><use xlink:href="#A" x="560.588" y="265.381" fill="#505050"/><use xlink:href="#B" x="562.508" y="265.381" fill="#505050"/><use xlink:href="#b" x="564.428" y="265.381" fill="#505050"/><use xlink:href="#p" x="566.348" y="265.381" fill="#505050"/><use xlink:href="#i" x="568.268" y="265.381" fill="#505050"/><use xlink:href="#s" x="570.188" y="265.381" fill="#505050"/><use xlink:href="#m" x="572.108" y="265.381" fill="#505050"/><use xlink:href="#C" x="574.029" y="265.381" fill="#505050"/><use xlink:href="#b" x="408.908" y="268.861" fill="#505050"/><use xlink:href="#b" x="410.828" y="268.861" fill="#505050"/><use xlink:href="#b" x="412.748" y="268.861" fill="#505050"/><use xlink:href="#c" x="414.668" y="268.861" fill="#505050"/><use xlink:href="#d" x="416.588" y="268.861" fill="#505050"/><use xlink:href="#b" x="418.508" y="268.861" fill="#505050"/><use xlink:href="#t" x="420.428" y="268.861" fill="#505050"/><use xlink:href="#j" x="422.348" y="268.861" fill="#505050"/><use xlink:href="#f" x="424.268" y="268.861" fill="#505050"/><use xlink:href="#o" x="426.188" y="268.861" fill="#505050"/><use xlink:href="#j" x="428.108" y="268.861" fill="#505050"/><use xlink:href="#f" x="430.028" y="268.861" fill="#505050"/><use xlink:href="#D" x="431.948" y="268.861" fill="#505050"/><use xlink:href="#l" x="433.868" y="268.861" fill="#505050"/><use xlink:href="#b" x="435.788" y="268.861" fill="#505050"/><use xlink:href="#e" x="437.708" y="268.861" fill="#505050"/><use xlink:href="#s" x="439.628" y="268.861" fill="#505050"/><use xlink:href="#d" x="441.548" y="268.861" fill="#505050"/><use xlink:href="#b" x="443.468" y="268.861" fill="#505050"/><use xlink:href="#l" x="445.388" y="268.861" fill="#505050"/><use xlink:href="#n" x="447.308" y="268.861" fill="#505050"/><use xlink:href="#e" x="449.228" y="268.861" fill="#505050"/><use xlink:href="#h" x="451.148" y="268.861" fill="#505050"/><use xlink:href="#d" x="453.068" y="268.861" fill="#505050"/><use xlink:href="#o" x="454.988" y="268.861" fill="#505050"/><use xlink:href="#b" x="456.908" y="268.861" fill="#505050"/><use xlink:href="#i" x="458.828" y="268.861" fill="#505050"/><use xlink:href="#f" x="460.748" y="268.861" fill="#505050"/><use xlink:href="#d" x="462.668" y="268.861" fill="#505050"/><use xlink:href="#b" x="464.588" y="268.861" fill="#505050"/><use xlink:href="#t" x="466.508" y="268.861" fill="#505050"/><use xlink:href="#j" x="468.428" y="268.861" fill="#505050"/><use xlink:href="#s" x="470.348" y="268.861" fill="#505050"/><use xlink:href="#d" x="472.268" y="268.861" fill="#505050"/><use xlink:href="#E" x="474.188" y="268.861" fill="#505050"/><use xlink:href="#t" x="476.108" y="268.861" fill="#505050"/><use xlink:href="#j" x="478.029" y="268.861" fill="#505050"/><use xlink:href="#o" x="479.948" y="268.861" fill="#505050"/><use xlink:href="#g" x="481.868" y="268.861" fill="#505050"/><use xlink:href="#c" x="483.788" y="268.861" fill="#505050"/><use xlink:href="#b" x="485.708" y="268.861" fill="#505050"/><use xlink:href="#e" x="487.629" y="268.861" fill="#505050"/><use xlink:href="#n" x="489.548" y="268.861" fill="#505050"/><use xlink:href="#e" x="491.468" y="268.861" fill="#505050"/><use xlink:href="#s" x="493.388" y="268.861" fill="#505050"/><use xlink:href="#g" x="495.308" y="268.861" fill="#505050"/><use xlink:href="#F" x="497.229" y="268.861" fill="#505050"/><use xlink:href="#b" x="499.149" y="268.861" fill="#505050"/><use xlink:href="#l" x="501.068" y="268.861" fill="#505050"/><use xlink:href="#i" x="502.988" y="268.861" fill="#505050"/><use xlink:href="#b" x="504.908" y="268.861" fill="#505050"/><use xlink:href="#G" x="506.828" y="268.861" fill="#505050"/><use xlink:href="#i" x="508.748" y="268.861" fill="#505050"/><use xlink:href="#r" x="510.668" y="268.861" fill="#505050"/><use xlink:href="#b" x="512.588" y="268.861" fill="#505050"/><use xlink:href="#h" x="514.508" y="268.861" fill="#505050"/><use xlink:href="#e" x="516.428" y="268.861" fill="#505050"/><use xlink:href="#f" x="518.348" y="268.861" fill="#505050"/><use xlink:href="#b" x="520.268" y="268.861" fill="#505050"/><use xlink:href="#h" x="522.188" y="268.861" fill="#505050"/><use xlink:href="#k" x="524.108" y="268.861" fill="#505050"/><use xlink:href="#i" x="526.028" y="268.861" fill="#505050"/><use xlink:href="#l" x="527.948" y="268.861" fill="#505050"/><use xlink:href="#d" x="529.868" y="268.861" fill="#505050"/><use xlink:href="#E" x="531.788" y="268.861" fill="#505050"/><use xlink:href="#t" x="533.708" y="268.861" fill="#505050"/><use xlink:href="#j" x="535.628" y="268.861" fill="#505050"/><use xlink:href="#f" x="537.548" y="268.861" fill="#505050"/><use xlink:href="#o" x="539.468" y="268.861" fill="#505050"/><use xlink:href="#b" x="541.388" y="268.861" fill="#505050"/><use xlink:href="#g" x="543.308" y="268.861" fill="#505050"/><use xlink:href="#t" x="545.228" y="268.861" fill="#505050"/><use xlink:href="#i" x="547.148" y="268.861" fill="#505050"/><use xlink:href="#b" x="549.068" y="268.861" fill="#505050"/><use xlink:href="#t" x="550.988" y="268.861" fill="#505050"/><use xlink:href="#j" x="552.908" y="268.861" fill="#505050"/><use xlink:href="#f" x="554.828" y="268.861" fill="#505050"/><use xlink:href="#o" x="556.748" y="268.861" fill="#505050"/><use xlink:href="#j" x="558.668" y="268.861" fill="#505050"/><use xlink:href="#f" x="560.588" y="268.861" fill="#505050"/><use xlink:href="#D" x="562.508" y="268.861" fill="#505050"/><use xlink:href="#l" x="564.428" y="268.861" fill="#505050"/><use xlink:href="#b" x="566.348" y="268.861" fill="#505050"/><use xlink:href="#i" x="568.268" y="268.861" fill="#505050"/><use xlink:href="#f" x="570.188" y="268.861" fill="#505050"/><use xlink:href="#b" x="408.908" y="272.341" fill="#505050"/><use xlink:href="#b" x="410.828" y="272.341" fill="#505050"/><use xlink:href="#g" x="412.748" y="272.341" fill="#505050"/><use xlink:href="#c" x="414.668" y="272.341" fill="#505050"/><use xlink:href="#d" x="416.588" y="272.341" fill="#505050"/><use xlink:href="#b" x="418.508" y="272.341" fill="#505050"/><use xlink:href="#p" x="420.428" y="272.341" fill="#505050"/><use xlink:href="#i" x="422.348" y="272.341" fill="#505050"/><use xlink:href="#s" x="424.268" y="272.341" fill="#505050"/><use xlink:href="#m" x="426.188" y="272.341" fill="#505050"/><use xlink:href="#b" x="428.108" y="272.341" fill="#505050"/><use xlink:href="#e" x="430.028" y="272.341" fill="#505050"/><use xlink:href="#f" x="431.948" y="272.341" fill="#505050"/><use xlink:href="#o" x="433.868" y="272.341" fill="#505050"/><use xlink:href="#b" x="435.788" y="272.341" fill="#505050"/><use xlink:href="#g" x="437.708" y="272.341" fill="#505050"/><use xlink:href="#c" x="439.628" y="272.341" fill="#505050"/><use xlink:href="#d" x="441.548" y="272.341" fill="#505050"/><use xlink:href="#f" x="443.468" y="272.341" fill="#505050"/><use xlink:href="#b" x="445.388" y="272.341" fill="#505050"/><use xlink:href="#s" x="447.308" y="272.341" fill="#505050"/><use xlink:href="#d" x="449.228" y="272.341" fill="#505050"/><use xlink:href="#m" x="451.148" y="272.341" fill="#505050"/><use xlink:href="#i" x="453.068" y="272.341" fill="#505050"/><use xlink:href="#q" x="454.988" y="272.341" fill="#505050"/><use xlink:href="#d" x="456.908" y="272.341" fill="#505050"/><use xlink:href="#b" x="458.828" y="272.341" fill="#505050"/><use xlink:href="#i" x="460.748" y="272.341" fill="#505050"/><use xlink:href="#f" x="462.668" y="272.341" fill="#505050"/><use xlink:href="#d" x="464.588" y="272.341" fill="#505050"/><use xlink:href="#b" x="466.508" y="272.341" fill="#505050"/><use xlink:href="#i" x="468.428" y="272.341" fill="#505050"/><use xlink:href="#p" x="470.348" y="272.341" fill="#505050"/><use xlink:href="#b" x="472.268" y="272.341" fill="#505050"/><use xlink:href="#g" x="474.188" y="272.341" fill="#505050"/><use xlink:href="#c" x="476.108" y="272.341" fill="#505050"/><use xlink:href="#d" x="478.029" y="272.341" fill="#505050"/><use xlink:href="#m" x="479.948" y="272.341" fill="#505050"/><use xlink:href="#C" x="481.868" y="272.341" fill="#505050"/><use xlink:href="#v" x="483.788" y="272.341" fill="#505050"/><use xlink:href="#c" x="485.708" y="272.341" fill="#505050"/><use xlink:href="#d" x="487.629" y="272.341" fill="#505050"/><use xlink:href="#f" x="489.548" y="272.341" fill="#505050"/><use xlink:href="#b" x="491.468" y="272.341" fill="#505050"/><use xlink:href="#p" x="493.388" y="272.341" fill="#505050"/><use xlink:href="#i" x="495.308" y="272.341" fill="#505050"/><use xlink:href="#s" x="497.229" y="272.341" fill="#505050"/><use xlink:href="#m" x="499.149" y="272.341" fill="#505050"/><use xlink:href="#d" x="501.068" y="272.341" fill="#505050"/><use xlink:href="#o" x="502.988" y="272.341" fill="#505050"/><use xlink:href="#F" x="504.908" y="272.341" fill="#505050"/><use xlink:href="#b" x="506.828" y="272.341" fill="#505050"/><use xlink:href="#g" x="508.748" y="272.341" fill="#505050"/><use xlink:href="#c" x="510.668" y="272.341" fill="#505050"/><use xlink:href="#d" x="512.588" y="272.341" fill="#505050"/><use xlink:href="#b" x="514.508" y="272.341" fill="#505050"/><use xlink:href="#h" x="516.428" y="272.341" fill="#505050"/><use xlink:href="#i" x="518.348" y="272.341" fill="#505050"/><use xlink:href="#j" x="520.268" y="272.341" fill="#505050"/><use xlink:href="#k" x="522.188" y="272.341" fill="#505050"/><use xlink:href="#b" x="524.108" y="272.341" fill="#505050"/><use xlink:href="#h" x="526.028" y="272.341" fill="#505050"/><use xlink:href="#e" x="527.948" y="272.341" fill="#505050"/><use xlink:href="#f" x="529.868" y="272.341" fill="#505050"/><use xlink:href="#b" x="531.788" y="272.341" fill="#505050"/><use xlink:href="#H" x="533.708" y="272.341" fill="#505050"/><use xlink:href="#d" x="535.628" y="272.341" fill="#505050"/><use xlink:href="#b" x="537.548" y="272.341" fill="#505050"/><use xlink:href="#s" x="539.468" y="272.341" fill="#505050"/><use xlink:href="#d" x="541.388" y="272.341" fill="#505050"/><use xlink:href="#m" x="543.308" y="272.341" fill="#505050"/><use xlink:href="#i" x="545.228" y="272.341" fill="#505050"/><use xlink:href="#q" x="547.148" y="272.341" fill="#505050"/><use xlink:href="#d" x="549.068" y="272.341" fill="#505050"/><use xlink:href="#o" x="550.988" y="272.341" fill="#505050"/><use xlink:href="#b" x="552.908" y="272.341" fill="#505050"/><use xlink:href="#p" x="554.828" y="272.341" fill="#505050"/><use xlink:href="#s" x="556.748" y="272.341" fill="#505050"/><use xlink:href="#i" x="558.668" y="272.341" fill="#505050"/><use xlink:href="#m" x="560.588" y="272.341" fill="#505050"/><use xlink:href="#b" x="562.508" y="272.341" fill="#505050"/><use xlink:href="#g" x="564.428" y="272.341" fill="#505050"/><use xlink:href="#c" x="566.348" y="272.341" fill="#505050"/><use xlink:href="#d" x="568.268" y="272.341" fill="#505050"/><use xlink:href="#b" x="570.188" y="272.341" fill="#505050"/><use xlink:href="#p" x="572.108" y="272.341" fill="#505050"/><use xlink:href="#i" x="574.029" y="272.341" fill="#505050"/><use xlink:href="#s" x="575.948" y="272.341" fill="#505050"/><use xlink:href="#m" x="577.868" y="272.341" fill="#505050"/><use xlink:href="#C" x="579.788" y="272.341" fill="#505050"/><use xlink:href="#b" x="408.908" y="275.821" fill="#505050"/><use xlink:href="#b" x="410.828" y="275.821" fill="#505050"/><use xlink:href="#b" x="412.748" y="275.821" fill="#505050"/><use xlink:href="#c" x="414.668" y="275.821" fill="#505050"/><use xlink:href="#d" x="416.588" y="275.821" fill="#505050"/><use xlink:href="#b" x="418.508" y="275.821" fill="#505050"/><use xlink:href="#h" x="420.428" y="275.821" fill="#505050"/><use xlink:href="#i" x="422.348" y="275.821" fill="#505050"/><use xlink:href="#j" x="424.268" y="275.821" fill="#505050"/><use xlink:href="#k" x="426.188" y="275.821" fill="#505050"/><use xlink:href="#b" x="428.108" y="275.821" fill="#505050"/><use xlink:href="#j" x="430.028" y="275.821" fill="#505050"/><use xlink:href="#l" x="431.948" y="275.821" fill="#505050"/><use xlink:href="#b" x="433.868" y="275.821" fill="#505050"/><use xlink:href="#g" x="435.788" y="275.821" fill="#505050"/><use xlink:href="#e" x="437.708" y="275.821" fill="#505050"/><use xlink:href="#n" x="439.628" y="275.821" fill="#505050"/><use xlink:href="#n" x="441.548" y="275.821" fill="#505050"/><use xlink:href="#d" x="443.468" y="275.821" fill="#505050"/><use xlink:href="#o" x="445.388" y="275.821" fill="#505050"/><use xlink:href="#b" x="447.308" y="275.821" fill="#505050"/><use xlink:href="#i" x="449.228" y="275.821" fill="#505050"/><use xlink:href="#f" x="451.148" y="275.821" fill="#505050"/><use xlink:href="#d" x="453.068" y="275.821" fill="#505050"/><use xlink:href="#b" x="454.988" y="275.821" fill="#505050"/><use xlink:href="#c" x="456.908" y="275.821" fill="#505050"/><use xlink:href="#e" x="458.828" y="275.821" fill="#505050"/><use xlink:href="#k" x="460.748" y="275.821" fill="#505050"/><use xlink:href="#p" x="462.668" y="275.821" fill="#505050"/><use xlink:href="#b" x="464.588" y="275.821" fill="#505050"/><use xlink:href="#g" x="466.508" y="275.821" fill="#505050"/><use xlink:href="#r" x="468.428" y="275.821" fill="#505050"/><use xlink:href="#s" x="470.348" y="275.821" fill="#505050"/><use xlink:href="#f" x="472.268" y="275.821" fill="#505050"/><use xlink:href="#b" x="474.188" y="275.821" fill="#505050"/><use xlink:href="#p" x="476.108" y="275.821" fill="#505050"/><use xlink:href="#s" x="478.029" y="275.821" fill="#505050"/><use xlink:href="#i" x="479.948" y="275.821" fill="#505050"/><use xlink:href="#m" x="481.868" y="275.821" fill="#505050"/><use xlink:href="#b" x="483.788" y="275.821" fill="#505050"/><use xlink:href="#g" x="485.708" y="275.821" fill="#505050"/><use xlink:href="#c" x="487.629" y="275.821" fill="#505050"/><use xlink:href="#d" x="489.548" y="275.821" fill="#505050"/><use xlink:href="#b" x="491.468" y="275.821" fill="#505050"/><use xlink:href="#b" x="493.388" y="275.821" fill="#505050"/><use xlink:href="#x" x="495.308" y="275.821" fill="#505050"/><use xlink:href="#I" x="497.229" y="275.821" fill="#505050"/><use xlink:href="#b" x="499.149" y="275.821" fill="#505050"/><use xlink:href="#q" x="501.068" y="275.821" fill="#505050"/><use xlink:href="#i" x="502.988" y="275.821" fill="#505050"/><use xlink:href="#k" x="504.908" y="275.821" fill="#505050"/><use xlink:href="#g" x="506.828" y="275.821" fill="#505050"/><use xlink:href="#b" x="508.748" y="275.821" fill="#505050"/><use xlink:href="#l" x="510.668" y="275.821" fill="#505050"/><use xlink:href="#r" x="512.588" y="275.821" fill="#505050"/><use xlink:href="#n" x="514.508" y="275.821" fill="#505050"/><use xlink:href="#n" x="516.428" y="275.821" fill="#505050"/><use xlink:href="#k" x="518.348" y="275.821" fill="#505050"/><use xlink:href="#G" x="520.268" y="275.821" fill="#505050"/><use xlink:href="#b" x="522.188" y="275.821" fill="#505050"/><use xlink:href="#l" x="524.108" y="275.821" fill="#505050"/><use xlink:href="#j" x="526.028" y="275.821" fill="#505050"/><use xlink:href="#o" x="527.948" y="275.821" fill="#505050"/><use xlink:href="#d" x="529.868" y="275.821" fill="#505050"/><use xlink:href="#b" x="531.788" y="275.821" fill="#505050"/><use xlink:href="#g" x="533.708" y="275.821" fill="#505050"/><use xlink:href="#i" x="535.628" y="275.821" fill="#505050"/><use xlink:href="#b" x="537.548" y="275.821" fill="#505050"/><use xlink:href="#m" x="539.468" y="275.821" fill="#505050"/><use xlink:href="#e" x="541.388" y="275.821" fill="#505050"/><use xlink:href="#J" x="543.308" y="275.821" fill="#505050"/><use xlink:href="#d" x="545.228" y="275.821" fill="#505050"/><use xlink:href="#b" x="547.148" y="275.821" fill="#505050"/><use xlink:href="#e" x="549.068" y="275.821" fill="#505050"/><use xlink:href="#b" x="550.988" y="275.821" fill="#505050"/><use xlink:href="#h" x="552.908" y="275.821" fill="#505050"/><use xlink:href="#i" x="554.828" y="275.821" fill="#505050"/><use xlink:href="#f" x="556.748" y="275.821" fill="#505050"/><use xlink:href="#f" x="558.668" y="275.821" fill="#505050"/><use xlink:href="#d" x="560.588" y="275.821" fill="#505050"/><use xlink:href="#h" x="562.508" y="275.821" fill="#505050"/><use xlink:href="#g" x="564.428" y="275.821" fill="#505050"/><use xlink:href="#j" x="566.348" y="275.821" fill="#505050"/><use xlink:href="#i" x="568.268" y="275.821" fill="#505050"/><use xlink:href="#f" x="570.188" y="275.821" fill="#505050"/><use xlink:href="#b" x="572.108" y="275.821" fill="#505050"/><use xlink:href="#p" x="574.029" y="275.821" fill="#505050"/><use xlink:href="#i" x="575.948" y="275.821" fill="#505050"/><use xlink:href="#s" x="577.868" y="275.821" fill="#505050"/><use xlink:href="#b" x="408.908" y="279.301" fill="#505050"/><use xlink:href="#b" x="410.828" y="279.301" fill="#505050"/><use xlink:href="#g" x="412.748" y="279.301" fill="#505050"/><use xlink:href="#c" x="414.668" y="279.301" fill="#505050"/><use xlink:href="#d" x="416.588" y="279.301" fill="#505050"/><use xlink:href="#b" x="418.508" y="279.301" fill="#505050"/><use xlink:href="#e" x="420.428" y="279.301" fill="#505050"/><use xlink:href="#f" x="422.348" y="279.301" fill="#505050"/><use xlink:href="#g" x="424.268" y="279.301" fill="#505050"/><use xlink:href="#d" x="426.188" y="279.301" fill="#505050"/><use xlink:href="#f" x="428.108" y="279.301" fill="#505050"/><use xlink:href="#f" x="430.028" y="279.301" fill="#505050"/><use xlink:href="#e" x="431.948" y="279.301" fill="#505050"/><use xlink:href="#K" x="353.131" y="271.138" fill="#505050"/><use xlink:href="#L" x="353.311" y="291.865" fill="#505050"/><use xlink:href="#M" x="341.617" y="278.635" fill="#505050"/><use xlink:href="#N" x="394.514" y="240.073" fill="#505050"/><use xlink:href="#O" x="385.878" y="235.454" fill="#505050"/><use xlink:href="#P" x="359.969" y="289.01" fill="#505050"/><use xlink:href="#Q" x="362.309" y="289.01" fill="#505050"/><use xlink:href="#R" x="364.409" y="289.01" fill="#505050"/><use xlink:href="#S" x="366.629" y="289.01" fill="#505050"/><use xlink:href="#T" x="368.849" y="289.01" fill="#505050"/><use xlink:href="#U" x="371.069" y="289.01" fill="#505050"/><use xlink:href="#R" x="359.969" y="234.315" fill="#505050"/><use xlink:href="#V" x="362.189" y="234.315" fill="#505050"/><use xlink:href="#W" x="364.409" y="234.315" fill="#505050"/><use xlink:href="#Q" x="366.629" y="234.315" fill="#505050"/><use xlink:href="#X" x="394.514" y="286.132" fill="#505050"/><use xlink:href="#V" x="396.734" y="286.132" fill="#505050"/><use xlink:href="#W" x="398.954" y="286.132" fill="#505050"/><use xlink:href="#Q" x="401.174" y="286.132" fill="#505050"/><use xlink:href="#Y" x="330.04" y="304.555" fill="#505050"/><use xlink:href="#Z" x="332.74" y="304.555" fill="#505050"/><use xlink:href="#aa" x="335.44" y="304.555" fill="#505050"/><use xlink:href="#ab" x="359.969" y="329.312" fill="#505050"/><use xlink:href="#ac" x="362.189" y="329.312" fill="#505050"/><use xlink:href="#R" x="363.389" y="329.312" fill="#505050"/><use xlink:href="#ad" x="365.609" y="329.312" fill="#505050"/><use xlink:href="#ae" x="367.829" y="329.312" fill="#505050"/><use xlink:href="#X" x="359.969" y="384.006" fill="#505050"/><use xlink:href="#V" x="362.189" y="384.006" fill="#505050"/><use xlink:href="#af" x="364.409" y="384.006" fill="#505050"/><use xlink:href="#X" x="371.123" y="367.252" fill="#505050"/><use xlink:href="#R" x="373.343" y="367.252" fill="#505050"/><use xlink:href="#af" x="375.563" y="367.252" fill="#505050"/><use xlink:href="#R" x="325.424" y="384.006" fill="#505050"/><use xlink:href="#ac" x="327.644" y="384.006" fill="#505050"/><use xlink:href="#ag" x="328.844" y="384.006" fill="#505050"/><use xlink:href="#ah" x="331.064" y="384.006" fill="#505050"/><use xlink:href="#Q" x="333.284" y="384.006" fill="#505050"/><use xlink:href="#X" x="394.514" y="384.006" fill="#505050"/><use xlink:href="#V" x="396.734" y="384.006" fill="#505050"/><use xlink:href="#ah" x="398.954" y="384.006" fill="#505050"/><use xlink:href="#Q" x="401.175" y="384.006" fill="#505050"/><use xlink:href="#X" x="403.448" y="369.613" fill="#505050"/><use xlink:href="#V" x="405.668" y="369.613" fill="#505050"/><use xlink:href="#V" x="407.888" y="369.613" fill="#505050"/><use xlink:href="#ah" x="410.108" y="369.613" fill="#505050"/><use xlink:href="#Q" x="412.328" y="369.613" fill="#505050"/><use xlink:href="#Y" x="416.403" y="413.945" fill="#505050"/><use xlink:href="#Z" x="419.103" y="413.945" fill="#505050"/><use xlink:href="#aa" x="421.803" y="413.945" fill="#505050"/><use xlink:href="#V" x="296.988" y="277.496" fill="#505050"/><use xlink:href="#ac" x="299.208" y="277.496" fill="#505050"/><use xlink:href="#V" x="300.408" y="277.496" fill="#505050"/><use xlink:href="#S" x="302.628" y="277.496" fill="#505050"/><use xlink:href="#aj" x="304.849" y="277.496" fill="#505050"/><use xlink:href="#ai" x="306.108" y="277.496" fill="#505050"/><use xlink:href="#aj" x="307.549" y="277.496" fill="#505050"/><use xlink:href="#aj" x="308.808" y="277.496" fill="#505050"/><use xlink:href="#W" x="311.028" y="277.496" fill="#505050"/><use xlink:href="#Q" x="313.249" y="277.496" fill="#505050"/><use xlink:href="#Y" x="295.495" y="413.945" fill="#505050"/><use xlink:href="#Z" x="298.195" y="413.945" fill="#505050"/><use xlink:href="#aa" x="300.895" y="413.945" fill="#505050"/><use xlink:href="#ak" x="394.515" y="219.921" fill="#505050"/><use xlink:href="#X" x="396.495" y="219.921" fill="#505050"/><use xlink:href="#al" x="359.969" y="274.615" fill="#505050"/><use xlink:href="#X" x="362.309" y="274.615" fill="#505050"/><use xlink:href="#am" x="359.969" y="225.678" fill="#505050"/><use xlink:href="#X" x="362.369" y="225.678" fill="#505050"/><use xlink:href="#am" x="394.515" y="277.494" fill="#505050"/><use xlink:href="#R" x="396.915" y="277.494" fill="#505050"/><use xlink:href="#an" x="405.068" y="192.861" fill="#505050"/><use xlink:href="#ao" x="406.988" y="192.861" fill="#505050"/><use xlink:href="#ap" x="409.149" y="192.861" fill="#505050"/><use xlink:href="#aq" x="411.068" y="192.861" fill="#505050"/><use xlink:href="#ak" x="359.969" y="314.917" fill="#505050"/><use xlink:href="#R" x="361.949" y="314.917" fill="#505050"/><use xlink:href="#ar" x="359.969" y="375.369" fill="#505050"/><use xlink:href="#X" x="362.489" y="375.369" fill="#505050"/><use xlink:href="#ar" x="372.023" y="357.579" fill="#505050"/><use xlink:href="#R" x="374.543" y="357.579" fill="#505050"/><use xlink:href="#am" x="325.424" y="375.369" fill="#505050"/><use xlink:href="#S" x="327.824" y="375.369" fill="#505050"/><use xlink:href="#am" x="394.515" y="375.369" fill="#505050"/><use xlink:href="#T" x="396.915" y="375.369" fill="#505050"/><use xlink:href="#am" x="406.629" y="355.218" fill="#505050"/><use xlink:href="#aj" x="409.029" y="355.218" fill="#505050"/><use xlink:href="#U" x="440.575" y="385.445" fill="#505050"/><use xlink:href="#Q" x="442.975" y="385.445" fill="#505050"/><use xlink:href="#ai" x="445.075" y="385.445" fill="#505050"/><use xlink:href="#U" x="440.575" y="362.416" fill="#505050"/><use xlink:href="#Q" x="442.975" y="362.416" fill="#505050"/><use xlink:href="#as" x="445.075" y="362.416" fill="#505050"/><use xlink:href="#am" x="310.728" y="263.101" fill="#505050"/><use xlink:href="#ag" x="313.128" y="263.101" fill="#505050"/><use xlink:href="#at" x="352.05" y="185.377" fill="#505050"/><use xlink:href="#au" x="355.41" y="185.377" fill="#505050"/><use xlink:href="#au" x="358.77" y="185.377" fill="#505050"/><use xlink:href="#Y" x="353.07" y="413.945" fill="#505050"/><use xlink:href="#Z" x="355.77" y="413.945" fill="#505050"/><use xlink:href="#aa" x="358.47" y="413.945" fill="#505050"/><use xlink:href="#av" x="256.626" y="362.416" fill="#505050"/><use xlink:href="#aw" x="259.446" y="362.416" fill="#505050"/><use xlink:href="#ax" x="262.086" y="362.416" fill="#505050"/><use xlink:href="#Z" x="264.366" y="362.416" fill="#505050"/><use xlink:href="#am" x="267.066" y="362.416" fill="#505050"/><use xlink:href="#ae" x="269.466" y="362.416" fill="#505050"/><use xlink:href="#ai" x="272.166" y="362.416" fill="#505050"/><use xlink:href="#av" x="255.126" y="345.144" fill="#505050"/><use xlink:href="#aw" x="257.946" y="345.144" fill="#505050"/><use xlink:href="#ax" x="260.586" y="345.144" fill="#505050"/><use xlink:href="#Z" x="262.866" y="345.144" fill="#505050"/><use xlink:href="#am" x="265.566" y="345.144" fill="#505050"/><use xlink:href="#ae" x="267.966" y="345.144" fill="#505050"/><use xlink:href="#as" x="270.666" y="345.144" fill="#505050"/><path d="M388.738 237.18l.121.78.301.661.418.598.602.48.718.301.723.059m0-5.759l-.723.122-.718.297-.602.422-.418.597-.3.723-.122.719" fill="none" stroke-width=".6" stroke-linecap="round" stroke-linejoin="round" stroke="maroon" stroke-miterlimit="10"/><path d="M388.738 231.422l.121.777.301.66.418.602.602.48.718.297.723.063m0-5.761l-.723.12-.718.3-.602.419-.418.601-.3.72-.122.722m0-5.762l.121.781.301.66.418.598.602.48.718.301.723.06" fill="none" stroke-width=".6" stroke-linecap="round" stroke-linejoin="round" stroke="maroon" stroke-miterlimit="10"/><path d="M391.621 222.781l-.723.117-.718.301-.602.422-.418.598-.3.722-.122.72m0-5.763l.121.782.301.66.418.601.602.48.718.298.723.062m0-5.761l-.723.12-.718.301-.602.418-.418.602-.3.719-.122.718" fill="none" stroke-width=".6" stroke-linecap="round" stroke-linejoin="round" stroke="maroon" stroke-miterlimit="10"/><path d="M391.621 245.82v-5.761m0-28.797v5.758" fill="none" stroke-width=".36" stroke-linecap="round" stroke-linejoin="round" stroke="maroon" stroke-miterlimit="10"/><path d="M390.84 222.781l.12-.422.36-.3.418-.059.422.18.238.422v.418l-.238.359-.422.18-.418-.059-.36-.3-.12-.419h.3l.06-.242.241-.18.239-.058.3.12.122.24v.3l-.122.238-.3.121-.239-.058-.242-.184-.058-.297h-.301" fill-rule="evenodd" fill="maroon"/><path d="M390.84 222.781l.12-.422.36-.3.418-.059.422.18.238.422v.418l-.238.359-.422.18-.418-.059-.36-.3-.12-.419h.3l.06-.242.241-.18.239-.058.3.12.122.24v.3l-.122.238-.3.121-.239-.058-.242-.184-.058-.297zm0 0" fill="none" stroke-width=".12" stroke-linecap="round" stroke-linejoin="round" stroke="maroon" stroke-miterlimit="10"/><path d="M391.078 222.781l.121-.36.36-.183.363.063.238.3v.36l-.238.3-.363.06-.36-.18-.12-.36h.3l.062-.12.18-.122.117.063.121.117v.18l-.12.12-.118.06-.18-.118-.062-.18h-.3" fill-rule="evenodd" fill="maroon"/><path d="M391.078 222.781l.121-.36.36-.183.363.063.238.3v.36l-.238.3-.363.06-.36-.18-.12-.36h.3l.062-.12.18-.122.117.063.121.117v.18l-.12.12-.118.06-.18-.118-.062-.18zm0 0" fill="none" stroke-width=".12" stroke-linecap="round" stroke-linejoin="round" stroke="maroon" stroke-miterlimit="10"/><path d="M391.262 222.781l.117-.242.242-.117.3.117.06.242-.06.297-.3.121-.242-.12-.117-.298h.297v-.062h.12l.06.062-.118.117-.062-.058v-.059h-.297" fill-rule="evenodd" fill="maroon"/><path d="M391.262 222.781l.117-.242.242-.117.3.117.06.242-.06.297-.3.121-.242-.12-.117-.298h.297v-.062h.12l.06.062-.118.117-.062-.058v-.059zm0 0" fill="none" stroke-width=".12" stroke-linecap="round" stroke-linejoin="round" stroke="maroon" stroke-miterlimit="10"/><path d="M391.379 222.781l.062-.18.18-.062.18.063.12.18-.12.179-.18.117-.18-.117-.062-.18" fill-rule="evenodd" fill="maroon"/><path d="M391.379 222.781l.062-.18.18-.062.18.063.12.18-.12.179-.18.117-.18-.117zm0 0" fill="none" stroke-width=".12" stroke-linecap="round" stroke-linejoin="round" stroke="maroon" stroke-miterlimit="10"/><path d="M390.66 222.781l.18-.48.3-.301.481-.18.48.18.36.3.117.481-.117.48-.36.36-.48.117-.48-.117-.301-.36-.18-.48h.3l.118-.3.242-.243.301-.117.36.117.238.242.062.301-.062.36-.239.238-.359.062-.3-.062-.243-.238-.117-.36h-.3" fill-rule="evenodd" fill="maroon"/><path d="M390.66 222.781l.18-.48.3-.301.481-.18.48.18.36.3.117.481-.117.48-.36.36-.48.117-.48-.117-.301-.36-.18-.48h.3l.118-.3.242-.243.301-.117.36.117.238.242.062.301-.062.36-.239.238-.359.062-.3-.062-.243-.238-.117-.36zm0 0" fill="none" stroke-width=".12" stroke-linecap="round" stroke-linejoin="round" stroke="maroon" stroke-miterlimit="10"/><path d="M388.738 237.18l.121.78.301.661.418.598.602.48.718.301.723.059m0-5.759l-.723.122-.718.297-.602.422-.418.597-.3.723-.122.719" fill="none" stroke-width=".6" stroke-linecap="round" stroke-linejoin="round" stroke="maroon" stroke-miterlimit="10"/><path d="M388.738 231.422l.121.777.301.66.418.602.602.48.718.297.723.063m0-5.761l-.723.12-.718.3-.602.419-.418.601-.3.72-.122.722m0-5.762l.121.781.301.66.418.598.602.48.718.301.723.06" fill="none" stroke-width=".6" stroke-linecap="round" stroke-linejoin="round" stroke="maroon" stroke-miterlimit="10"/><path d="M391.621 222.781l-.723.117-.718.301-.602.422-.418.598-.3.722-.122.72m0-5.763l.121.782.301.66.418.601.602.48.718.298.723.062m0-5.761l-.723.12-.718.301-.602.418-.418.602-.3.719-.122.718" fill="none" stroke-width=".6" stroke-linecap="round" stroke-linejoin="round" stroke="maroon" stroke-miterlimit="10"/><path d="M390.84 222.781l.12-.422.36-.3.418-.059.422.18.238.422v.418l-.238.359-.422.18-.418-.059-.36-.3-.12-.419h.3l.06-.242.241-.18.239-.058.3.12.122.24v.3l-.122.238-.3.121-.239-.058-.242-.184-.058-.297h-.301" fill-rule="evenodd" fill="maroon"/><path d="M390.84 222.781l.12-.422.36-.3.418-.059.422.18.238.422v.418l-.238.359-.422.18-.418-.059-.36-.3-.12-.419h.3l.06-.242.241-.18.239-.058.3.12.122.24v.3l-.122.238-.3.121-.239-.058-.242-.184-.058-.297zm0 0" fill="none" stroke-width=".12" stroke-linecap="round" stroke-linejoin="round" stroke="maroon" stroke-miterlimit="10"/><path d="M391.078 222.781l.121-.36.36-.183.363.063.238.3v.36l-.238.3-.363.06-.36-.18-.12-.36h.3l.062-.12.18-.122.117.063.121.117v.18l-.12.12-.118.06-.18-.118-.062-.18h-.3" fill-rule="evenodd" fill="maroon"/><path d="M391.078 222.781l.121-.36.36-.183.363.063.238.3v.36l-.238.3-.363.06-.36-.18-.12-.36h.3l.062-.12.18-.122.117.063.121.117v.18l-.12.12-.118.06-.18-.118-.062-.18zm0 0" fill="none" stroke-width=".12" stroke-linecap="round" stroke-linejoin="round" stroke="maroon" stroke-miterlimit="10"/><path d="M391.262 222.781l.117-.242.242-.117.3.117.06.242-.06.297-.3.121-.242-.12-.117-.298h.297v-.062h.12l.06.062-.118.117-.062-.058v-.059h-.297" fill-rule="evenodd" fill="maroon"/><path d="M391.262 222.781l.117-.242.242-.117.3.117.06.242-.06.297-.3.121-.242-.12-.117-.298h.297v-.062h.12l.06.062-.118.117-.062-.058v-.059zm0 0" fill="none" stroke-width=".12" stroke-linecap="round" stroke-linejoin="round" stroke="maroon" stroke-miterlimit="10"/><path d="M391.379 222.781l.062-.18.18-.062.18.063.12.18-.12.179-.18.117-.18-.117-.062-.18" fill-rule="evenodd" fill="maroon"/><path d="M391.379 222.781l.062-.18.18-.062.18.063.12.18-.12.179-.18.117-.18-.117zm0 0" fill="none" stroke-width=".12" stroke-linecap="round" stroke-linejoin="round" stroke="maroon" stroke-miterlimit="10"/><path d="M390.66 222.781l.18-.48.3-.301.481-.18.48.18.36.3.117.481-.117.48-.36.36-.48.117-.48-.117-.301-.36-.18-.48h.3l.118-.3.242-.243.301-.117.36.117.238.242.062.301-.062.36-.239.238-.359.062-.3-.062-.243-.238-.117-.36h-.3" fill-rule="evenodd" fill="maroon"/><path d="M390.66 222.781l.18-.48.3-.301.481-.18.48.18.36.3.117.481-.117.48-.36.36-.48.117-.48-.117-.301-.36-.18-.48h.3l.118-.3.242-.243.301-.117.36.117.238.242.062.301-.062.36-.239.238-.359.062-.3-.062-.243-.238-.117-.36zm0 0" fill="none" stroke-width=".12" stroke-linecap="round" stroke-linejoin="round" stroke="maroon" stroke-miterlimit="10"/><path d="M349.2 280.379h-.18m0 0h-.301m0 0h-.117m0 0h-3m11.519-2.879h-7.562m-.059 5.762h7.621m0-8.641v2.879m0 5.762v2.879m-17.281-5.762h5.762m11.519-11.519v5.761m0 17.277v-5.757" fill="none" stroke-width=".36" stroke-linecap="round" stroke-linejoin="round" stroke="maroon" stroke-miterlimit="10"/><path d="M361.2 280.379a8.159 8.159 0 0 1-8.16 8.16 8.159 8.159 0 0 1-8.161-8.16 8.159 8.159 0 0 1 8.16-8.16 8.159 8.159 0 0 1 8.16 8.16zm0 0" fill="none" stroke-width=".9" stroke-linecap="round" stroke-linejoin="round" stroke="maroon" stroke-miterlimit="10"/><path d="M349.02 285h1.199v-9.238h-1.2zm0 0" fill="maroon" stroke-width=".12" stroke-linecap="round" stroke-linejoin="round" stroke="maroon" stroke-miterlimit="10"/><path d="M349.02 280.379l-1.141 1.14m0-2.281l1.14 1.14m-1.14 1.142v-2.282m.121.422v1.442m0 0l.719-.723m0 0l-.54-.598m.001 0l-.18-.12m.18.12v.18m0-.001v.84m0 0l.422-.421m0 0l-.422-.418m8.941-45.661v-4.019m0-7.5v4.02" fill="none" stroke-width=".36" stroke-linecap="round" stroke-linejoin="round" stroke="maroon" stroke-miterlimit="10"/><path d="M353.102 230.281h8.039v-1.203h-8.04zm0-2.281h8.039v-1.2h-8.04zm0 0" fill="maroon" stroke-width=".12" stroke-linecap="round" stroke-linejoin="round" stroke="maroon" stroke-miterlimit="10"/><path d="M391.621 286.14v-4.019m0-7.5v4.02" fill="none" stroke-width=".36" stroke-linecap="round" stroke-linejoin="round" stroke="maroon" stroke-miterlimit="10"/><path d="M387.602 282.121h8.039v-1.2h-8.04zm0-2.281h8.039v-1.2h-8.04zm0 0" fill="maroon" stroke-width=".12" stroke-linecap="round" stroke-linejoin="round" stroke="maroon" stroke-miterlimit="10"/><path d="M330.3 297.66h7.5" fill="none" stroke-width=".6" stroke-linecap="round" stroke-linejoin="round" stroke="maroon" stroke-miterlimit="10"/><path d="M334.078 291.898v5.762" fill="none" stroke-width=".36" stroke-linecap="round" stroke-linejoin="round" stroke="maroon" stroke-miterlimit="10"/><path d="M331.738 298.8h4.621m-3.179 1.141h1.742M403.14 194.04h5.758m5.762 0l-5.762 5.76m0 0l-5.757-5.76m5.757 0v5.76m0-5.76h5.762" fill="none" stroke-width=".6" stroke-linecap="round" stroke-linejoin="round" stroke="maroon" stroke-miterlimit="10"/><path d="M408.898 205.5v-5.7" fill="none" stroke-width=".36" stroke-linecap="round" stroke-linejoin="round" stroke="maroon" stroke-miterlimit="10"/><path d="M357.121 309.18l-.781.058-.66.301-.602.48-.476.602-.301.66-.063.778m0 0l.063.722.3.719.477.602.602.418.66.3.781.121m0 0l-.781.059-.66.3-.602.481-.476.598-.301.66-.063.781" fill="none" stroke-width=".6" stroke-linecap="round" stroke-linejoin="round" stroke="maroon" stroke-miterlimit="10"/><path d="M354.238 317.82l.063.72.3.722.477.597.602.422.66.297.781.121m0 .001l-.781.062-.66.297-.602.48-.476.602-.301.66-.063.777" fill="none" stroke-width=".6" stroke-linecap="round" stroke-linejoin="round" stroke="maroon" stroke-miterlimit="10"/><path d="M354.238 323.578l.063.723.3.719.477.539.602.48.66.3.781.122" fill="none" stroke-width=".6" stroke-linecap="round" stroke-linejoin="round" stroke="maroon" stroke-miterlimit="10"/><path d="M357.121 326.46l-.781.06-.66.3-.602.48-.476.598-.301.66-.063.782" fill="none" stroke-width=".6" stroke-linecap="round" stroke-linejoin="round" stroke="maroon" stroke-miterlimit="10"/><path d="M354.238 329.34l.063.719.3.66.477.601.602.48.66.302.781.058" fill="none" stroke-width=".6" stroke-linecap="round" stroke-linejoin="round" stroke="maroon" stroke-miterlimit="10"/><path d="M357.121 337.922v-5.762m0-28.738v5.758m0 57.539v5.761m0 17.282V384" fill="none" stroke-width=".36" stroke-linecap="round" stroke-linejoin="round" stroke="maroon" stroke-miterlimit="10"/><path d="M355.078 384v-11.52m4.024 0V384m-4.024-11.52h4.024M355.078 384h4.024" fill="none" stroke-width=".6" stroke-linecap="round" stroke-linejoin="round" stroke="maroon" stroke-miterlimit="10"/><path d="M385.86 360.96h-5.758m-17.282 0h5.758" fill="none" stroke-width=".36" stroke-linecap="round" stroke-linejoin="round" stroke="maroon" stroke-miterlimit="10"/><path d="M368.578 363h11.524m0-4.02h-11.524m11.524 4.02v-4.02M368.578 363v-4.02" fill="none" stroke-width=".6" stroke-linecap="round" stroke-linejoin="round" stroke="maroon" stroke-miterlimit="10"/><path d="M322.559 384v-4.02m0-7.5v4.02" fill="none" stroke-width=".36" stroke-linecap="round" stroke-linejoin="round" stroke="maroon" stroke-miterlimit="10"/><path d="M318.54 379.98h8.042v-1.199h-8.043zm0-2.28h8.042v-1.2h-8.043zm0 0" fill="maroon" stroke-width=".12" stroke-linecap="round" stroke-linejoin="round" stroke="maroon" stroke-miterlimit="10"/><path d="M391.621 384v-4.02m0-7.5v4.02" fill="none" stroke-width=".36" stroke-linecap="round" stroke-linejoin="round" stroke="maroon" stroke-miterlimit="10"/><path d="M387.602 379.98h8.039v-1.199h-8.04zm0-2.28h8.039v-1.2h-8.04zm0 0" fill="maroon" stroke-width=".12" stroke-linecap="round" stroke-linejoin="round" stroke="maroon" stroke-miterlimit="10"/><path d="M414.66 360.96h-4.02m-7.5 0h4.02" fill="none" stroke-width=".36" stroke-linecap="round" stroke-linejoin="round" stroke="maroon" stroke-miterlimit="10"/><path d="M409.441 364.98h1.2v-8.039h-1.2zm-2.281 0h1.2v-8.039h-1.2zm0 0" fill="maroon" stroke-width=".12" stroke-linecap="round" stroke-linejoin="round" stroke="maroon" stroke-miterlimit="10"/><path d="M426.18 384h5.761" fill="none" stroke-width=".6" stroke-linecap="round" stroke-linejoin="round" stroke="maroon" stroke-miterlimit="10"/><path d="M431.64 384l.122-.898.418-.782.539-.718.781-.48.84-.243h.898l.903.242.78.48.54.72.418.78.121.899-.121.898-.418.84-.54.66-.78.48-.903.243h-.898l-.84-.242-.781-.48-.54-.66-.417-.84-.121-.899h.597l.121-.719.301-.66.48-.601.598-.36.723-.238h.719l.718.238.602.36.48.601.301.66.117.719-.117.719-.3.66-.481.601-.602.36-.718.238h-.72l-.722-.238-.597-.36-.48-.601-.302-.66-.12-.719h-.598" fill-rule="evenodd" fill="maroon"/><path d="M431.64 384l.122-.898.418-.782.539-.718.781-.48.84-.243h.898l.903.242.78.48.54.72.418.78.121.899-.121.898-.418.84-.54.66-.78.48-.903.243h-.898l-.84-.242-.781-.48-.54-.66-.417-.84-.121-.899h.597l.121-.719.301-.66.48-.601.598-.36.723-.238h.719l.718.238.602.36.48.601.301.66.117.719-.117.719-.3.66-.481.601-.602.36-.718.238h-.72l-.722-.238-.597-.36-.48-.601-.302-.66-.12-.719zm0 0" fill="none" stroke-width=".12" stroke-linecap="round" stroke-linejoin="round" stroke="maroon" stroke-miterlimit="10"/><path d="M426.18 360.96h5.761" fill="none" stroke-width=".6" stroke-linecap="round" stroke-linejoin="round" stroke="maroon" stroke-miterlimit="10"/><path d="M431.64 360.96l.122-.901.418-.778.539-.722.781-.48.84-.24h.898l.903.24.78.48.54.722.418.778.121.902-.121.898-.418.84-.54.66-.78.48-.903.302h-.898l-.84-.301-.781-.48-.54-.66-.417-.84-.121-.9h.597l.121-.722.301-.66.48-.539.598-.418.723-.18h.719l.718.18.602.418.48.54.301.66.117.722-.117.719-.3.718-.481.543-.602.418-.718.18h-.72l-.722-.18-.597-.418-.48-.543-.302-.718-.12-.72h-.598" fill-rule="evenodd" fill="maroon"/><path d="M431.64 360.96l.122-.901.418-.778.539-.722.781-.48.84-.24h.898l.903.24.78.48.54.722.418.778.121.902-.121.898-.418.84-.54.66-.78.48-.903.302h-.898l-.84-.301-.781-.48-.54-.66-.417-.84-.121-.9h.597l.121-.722.301-.66.48-.539.598-.418.723-.18h.719l.718.18.602.418.48.54.301.66.117.722-.117.719-.3.718-.481.543-.602.418-.718.18h-.72l-.722-.18-.597-.418-.48-.543-.302-.718-.12-.72zm0 0" fill="none" stroke-width=".12" stroke-linecap="round" stroke-linejoin="round" stroke="maroon" stroke-miterlimit="10"/><path d="M416.7 407.04h7.44" fill="none" stroke-width=".6" stroke-linecap="round" stroke-linejoin="round" stroke="maroon" stroke-miterlimit="10"/><path d="M420.422 401.281v5.758" fill="none" stroke-width=".36" stroke-linecap="round" stroke-linejoin="round" stroke="maroon" stroke-miterlimit="10"/><path d="M418.14 408.18h4.56m-3.122 1.14h1.684" fill="none" stroke-width=".6" stroke-linecap="round" stroke-linejoin="round" stroke="maroon" stroke-miterlimit="10"/><path d="M322.559 274.621v-4.02m0-7.499v4.02" fill="none" stroke-width=".36" stroke-linecap="round" stroke-linejoin="round" stroke="maroon" stroke-miterlimit="10"/><path d="M325.98 272.879l-8.64-8.64m-1.68 1.741l1.68-1.742m0 0l1.738-1.738" fill="none" stroke-width=".72" stroke-linecap="round" stroke-linejoin="round" stroke="maroon" stroke-miterlimit="10"/><path d="M315.66 273.48v-5.218m0 0l-.6 1.738m.6-1.738l.54 1.738" fill="none" stroke-width=".36" stroke-linecap="round" stroke-linejoin="round" stroke="maroon" stroke-miterlimit="10"/><path d="M317.941 270.602h9.239v-1.204h-9.239zm0-2.282h9.239v-1.199h-9.239zm0 0" fill="maroon" stroke-width=".12" stroke-linecap="round" stroke-linejoin="round" stroke="maroon" stroke-miterlimit="10"/><path d="M359.941 192.602l-2.82-4.32m0-.001l-2.883 4.32" fill="none" stroke-width=".6" stroke-linecap="round" stroke-linejoin="round" stroke="maroon" stroke-miterlimit="10"/><path d="M357.121 194.04v-5.759" fill="none" stroke-width=".36" stroke-linecap="round" stroke-linejoin="round" stroke="maroon" stroke-miterlimit="10"/><path d="M353.34 407.04h7.5" fill="none" stroke-width=".6" stroke-linecap="round" stroke-linejoin="round" stroke="maroon" stroke-miterlimit="10"/><path d="M357.121 401.281v5.758" fill="none" stroke-width=".36" stroke-linecap="round" stroke-linejoin="round" stroke="maroon" stroke-miterlimit="10"/><path d="M354.781 408.18h4.617m-3.179 1.14h1.742M288 360.96h-5.762" fill="none" stroke-width=".6" stroke-linecap="round" stroke-linejoin="round" stroke="maroon" stroke-miterlimit="10"/><path d="M276.18 360.96l.12-.901.419-.778.543-.722.777-.48.902-.24h.899l.84.24.78.48.54.722.422.778.117.902-.117.898-.422.84-.54.66-.78.48-.84.302h-.899l-.902-.301-.777-.48-.543-.66-.418-.84-.121-.9h.601l.117-.722.301-.66.48-.539.602-.418.719-.18h.719l.722.18.598.418.48.54.301.66.121.722-.12.719-.301.718-.48.543-.599.418-.722.18H279l-.719-.18-.601-.418-.48-.543-.302-.718-.117-.72h-.601" fill-rule="evenodd" fill="maroon"/><path d="M276.18 360.96l.12-.901.419-.778.543-.722.777-.48.902-.24h.899l.84.24.78.48.54.722.422.778.117.902-.117.898-.422.84-.54.66-.78.48-.84.302h-.899l-.902-.301-.777-.48-.543-.66-.418-.84-.121-.9h.601l.117-.722.301-.66.48-.539.602-.418.719-.18h.719l.722.18.598.418.48.54.301.66.121.722-.12.719-.301.718-.48.543-.599.418-.722.18H279l-.719-.18-.601-.418-.48-.543-.302-.718-.117-.72zm0 0" fill="none" stroke-width=".12" stroke-linecap="round" stroke-linejoin="round" stroke="maroon" stroke-miterlimit="10"/><path d="M288 343.68h-5.762" fill="none" stroke-width=".6" stroke-linecap="round" stroke-linejoin="round" stroke="maroon" stroke-miterlimit="10"/><path d="M276.18 343.68l.12-.84.419-.84.543-.66.777-.54.902-.241h.899l.84.242.78.539.54.66.422.84.117.84-.117.898-.422.844-.54.656-.78.48-.84.301h-.899l-.902-.3-.777-.48-.543-.657-.418-.844-.121-.898h.601l.117-.72.301-.66.48-.538.602-.422.719-.18h.719l.722.18.598.422.48.539.301.66.121.719-.12.78-.301.661-.48.54-.599.417-.722.184H279l-.719-.184-.601-.418-.48-.539-.302-.66-.117-.781h-.601" fill-rule="evenodd" fill="maroon"/><path d="M276.18 343.68l.12-.84.419-.84.543-.66.777-.54.902-.241h.899l.84.242.78.539.54.66.422.84.117.84-.117.898-.422.844-.54.656-.78.48-.84.301h-.899l-.902-.3-.777-.48-.543-.657-.418-.844-.121-.898h.601l.117-.72.301-.66.48-.538.602-.422.719-.18h.719l.722.18.598.422.48.539.301.66.121.719-.12.78-.301.661-.48.54-.599.417-.722.184H279l-.719-.184-.601-.418-.48-.539-.302-.66-.117-.781zm0 0" fill="none" stroke-width=".12" stroke-linecap="round" stroke-linejoin="round" stroke="maroon" stroke-miterlimit="10"/><path d="M295.8 407.04h7.438" fill="none" stroke-width=".6" stroke-linecap="round" stroke-linejoin="round" stroke="maroon" stroke-miterlimit="10"/><path d="M299.52 401.281v5.758" fill="none" stroke-width=".36" stroke-linecap="round" stroke-linejoin="round" stroke="maroon" stroke-miterlimit="10"/><path d="M297.238 408.18h4.563m-3.121 1.14h1.68" fill="none" stroke-width=".6" stroke-linecap="round" stroke-linejoin="round" stroke="maroon" stroke-miterlimit="10"/><path d="M391.621 274.621v-11.52m0 .001h-34.5m0 0v5.757m34.5-23.039v5.758m0 0h-34.5m0 0v-17.277m0 17.277H322.56" fill="none" stroke-width=".36" stroke-linecap="round" stroke-linejoin="round" stroke="green" stroke-miterlimit="10"/><path d="M358.262 251.578a1.14 1.14 0 0 1-1.14 1.14 1.137 1.137 0 0 1-1.142-1.14c0-.629.508-1.137 1.141-1.137.629 0 1.14.508 1.14 1.137" fill-rule="evenodd" fill="green"/><path d="M358.262 251.578a1.14 1.14 0 0 1-1.14 1.14 1.137 1.137 0 0 1-1.142-1.14c0-.629.508-1.137 1.141-1.137.629 0 1.14.508 1.14 1.137zm0 0" fill="none" stroke-width=".12" stroke-linecap="round" stroke-linejoin="round" stroke="green" stroke-miterlimit="10"/><path d="M357.121 263.102v-11.524" fill="none" stroke-width=".36" stroke-linecap="round" stroke-linejoin="round" stroke="green" stroke-miterlimit="10"/><path d="M358.262 263.102c0 .628-.512 1.136-1.14 1.136a1.137 1.137 0 1 1-.001-2.277c.629 0 1.14.508 1.14 1.14" fill-rule="evenodd" fill="green"/><path d="M358.262 263.102c0 .628-.512 1.136-1.14 1.136a1.137 1.137 0 1 1-.001-2.277c.629 0 1.14.508 1.14 1.14zm0 0" fill="none" stroke-width=".12" stroke-linecap="round" stroke-linejoin="round" stroke="green" stroke-miterlimit="10"/><path d="M322.559 263.102v-11.524m69.062-28.797h17.277m0 0V205.5m-51.777 86.398v5.762m0 0h34.5m0 0v-11.52m-34.5 17.282v-5.762" fill="none" stroke-width=".36" stroke-linecap="round" stroke-linejoin="round" stroke="green" stroke-miterlimit="10"/><path d="M358.262 297.66a1.14 1.14 0 1 1-1.14-1.14c.628 0 1.14.511 1.14 1.14" fill-rule="evenodd" fill="green"/><path d="M358.262 297.66a1.14 1.14 0 1 1-1.14-1.14c.628 0 1.14.511 1.14 1.14zm0 0" fill="none" stroke-width=".12" stroke-linecap="round" stroke-linejoin="round" stroke="green" stroke-miterlimit="10"/><path d="M339.84 280.379h-5.762m0 0v5.762m0-.001v5.758m0-5.758h-11.52" fill="none" stroke-width=".36" stroke-linecap="round" stroke-linejoin="round" stroke="green" stroke-miterlimit="10"/><path d="M335.219 286.14a1.14 1.14 0 1 1-2.28.003 1.14 1.14 0 0 1 2.28-.002" fill-rule="evenodd" fill="green"/><path d="M335.219 286.14a1.14 1.14 0 1 1-2.28.003 1.14 1.14 0 0 1 2.28-.002zm0 0" fill="none" stroke-width=".12" stroke-linecap="round" stroke-linejoin="round" stroke="green" stroke-miterlimit="10"/><path d="M322.559 274.621v11.52m97.863 115.14V384m0 0h5.758m-103.621 0v11.52m0 0h34.562m0 0v-5.758m0 5.758h34.5" fill="none" stroke-width=".36" stroke-linecap="round" stroke-linejoin="round" stroke="green" stroke-miterlimit="10"/><path d="M358.262 395.52a1.14 1.14 0 1 1-1.14-1.14 1.14 1.14 0 0 1 1.14 1.14" fill-rule="evenodd" fill="green"/><path d="M358.262 395.52a1.14 1.14 0 1 1-1.14-1.14 1.14 1.14 0 0 1 1.14 1.14zm0 0" fill="none" stroke-width=".12" stroke-linecap="round" stroke-linejoin="round" stroke="green" stroke-miterlimit="10"/><path d="M391.621 384v11.52m-34.5 5.761v-5.761m-57.601 5.761v-40.32m0-.001H288m34.559 0v11.52m0-11.52h34.562m0 0h5.7m-5.7-23.038v5.758" fill="none" stroke-width=".36" stroke-linecap="round" stroke-linejoin="round" stroke="green" stroke-miterlimit="10"/><path d="M358.262 360.96a1.14 1.14 0 1 1-2.281 0c0-.632.507-1.14 1.14-1.14.629 0 1.14.508 1.14 1.14" fill-rule="evenodd" fill="green"/><path d="M358.262 360.96a1.14 1.14 0 1 1-2.281 0c0-.632.507-1.14 1.14-1.14.629 0 1.14.508 1.14 1.14zm0 0" fill="none" stroke-width=".12" stroke-linecap="round" stroke-linejoin="round" stroke="green" stroke-miterlimit="10"/><path d="M357.121 343.68v17.28m0 5.759v-5.758M288 343.68h69.121" fill="none" stroke-width=".36" stroke-linecap="round" stroke-linejoin="round" stroke="green" stroke-miterlimit="10"/><path d="M358.262 343.68a1.14 1.14 0 1 1-1.14-1.14c.628 0 1.14.51 1.14 1.14" fill-rule="evenodd" fill="green"/><path d="M358.262 343.68a1.14 1.14 0 1 1-1.14-1.14c.628 0 1.14.51 1.14 1.14zm0 0" fill="none" stroke-width=".12" stroke-linecap="round" stroke-linejoin="round" stroke="green" stroke-miterlimit="10"/><path d="M385.86 360.96h5.761m0 11.52v-11.52m11.519 0h-11.519" fill="none" stroke-width=".36" stroke-linecap="round" stroke-linejoin="round" stroke="green" stroke-miterlimit="10"/><path d="M392.762 360.96a1.14 1.14 0 1 1-2.281 0c0-.632.507-1.14 1.14-1.14.629 0 1.14.508 1.14 1.14" fill-rule="evenodd" fill="green"/><path d="M392.762 360.96a1.14 1.14 0 1 1-2.281 0c0-.632.507-1.14 1.14-1.14.629 0 1.14.508 1.14 1.14zm0 0" fill="none" stroke-width=".12" stroke-linecap="round" stroke-linejoin="round" stroke="green" stroke-miterlimit="10"/><path d="M414.66 360.96h11.52m-69.059-138.179V205.5m0 0h34.5m0 0v5.762m-34.5-17.222v11.46" fill="none" stroke-width=".36" stroke-linecap="round" stroke-linejoin="round" stroke="green" stroke-miterlimit="10"/><path d="M358.262 205.5a1.14 1.14 0 1 1-1.14-1.14c.628 0 1.14.511 1.14 1.14" fill-rule="evenodd" fill="green"/><path d="M358.262 205.5a1.14 1.14 0 1 1-1.14-1.14c.628 0 1.14.511 1.14 1.14zm0 0" fill="none" stroke-width=".12" stroke-linecap="round" stroke-linejoin="round" stroke="green" stroke-miterlimit="10"/></svg>