<svg xmlns="http://www.w3.org/2000/svg" xmlns:xlink="http://www.w3.org/1999/xlink" width="595pt" height="560" viewBox="0 0 595 420"><defs><symbol overflow="visible" id="a"><path d="M.563 0H.124v-.094h.172v-.578H.125V-.75c.063 0 .11-.008.14-.031.032-.02.047-.051.047-.094h.094v.781h.156zm0 0"/></symbol><symbol overflow="visible" id="b"><path d="M1.438.047a1.212 1.212 0 0 1-.532-.094A1.087 1.087 0 0 1 .5-.328a1.388 1.388 0 0 1-.281-.469 2.147 2.147 0 0 1-.094-.656c0-.25.031-.461.094-.64C.28-2.27.375-2.43.5-2.579c.113-.125.25-.223.406-.297.156-.063.332-.094.531-.094.102 0 .196.008.282.016.082.023.16.043.234.062.063.024.129.043.203.063.063.031.125.07.188.11v.468h-.031c-.032-.031-.075-.07-.126-.125-.062-.04-.132-.082-.203-.125a2.15 2.15 0 0 0-.234-.11 1.54 1.54 0 0 0-.313-.03.767.767 0 0 0-.343.078.876.876 0 0 0-.297.218.997.997 0 0 0-.188.375 1.552 1.552 0 0 0-.078.516c0 .2.024.371.078.516a.83.83 0 0 0 .188.359c.082.105.18.18.297.219a.718.718 0 0 0 .343.078.99.99 0 0 0 .313-.047A.83.83 0 0 0 2-.422a1.42 1.42 0 0 0 .313-.234h.03v.453a2.274 2.274 0 0 0-.171.094 1.023 1.023 0 0 1-.219.078C1.867 0 1.79.019 1.72.03a2.627 2.627 0 0 1-.282.016zm0 0"/></symbol><symbol overflow="visible" id="c"><path d="M1.86 0H.436v-.297H.97V-2.25H.438v-.266c.195 0 .347-.03.453-.093.093-.051.144-.157.156-.313h.297v2.625h.515zm0 0"/></symbol><symbol overflow="visible" id="d"><path d="M2.016 0H.219v-.406l.36-.36c.112-.101.226-.218.343-.343.219-.25.367-.446.453-.594.07-.145.113-.297.125-.453a.487.487 0 0 0-.047-.219.602.602 0 0 0-.11-.156.629.629 0 0 0-.344-.11.822.822 0 0 0-.218.032.685.685 0 0 0-.203.062 1.166 1.166 0 0 0-.156.078c-.055.031-.094.059-.125.078H.28v-.406c.07-.039.18-.082.328-.125.145-.039.286-.062.422-.062.258 0 .469.074.625.218.157.149.235.344.235.594 0 .117-.012.219-.032.313-.03.093-.07.183-.109.265a2.195 2.195 0 0 1-.188.25 4.057 4.057 0 0 1-.203.25 7.154 7.154 0 0 1-.421.422 7.96 7.96 0 0 1-.36.344h1.438zm0 0"/></symbol><symbol overflow="visible" id="p"><path d="M2.719.719C2.645.727 2.57.739 2.5.75c-.086.008-.164.016-.234.016-.22 0-.399-.063-.532-.188-.136-.117-.21-.289-.218-.515h-.094c-.2 0-.375-.04-.531-.11a.87.87 0 0 1-.407-.297A1.247 1.247 0 0 1 .22-.813a2.01 2.01 0 0 1-.094-.64c0-.25.031-.469.094-.656.062-.188.148-.344.265-.47a.897.897 0 0 1 .407-.296c.156-.07.332-.11.53-.11.196 0 .376.04.532.11.156.074.29.172.406.297.114.125.204.281.266.469.05.187.082.406.094.656-.012.375-.09.683-.235.922-.148.25-.343.418-.593.5 0 .082.007.148.03.203A.34.34 0 0 0 2 .312c.031.04.07.07.125.094a1.3 1.3 0 0 0 .203.016c.05.008.113.004.188-.016.07-.023.125-.039.156-.047h.047zm-.406-2.172c0-.195-.024-.367-.063-.516a1.015 1.015 0 0 0-.453-.61 1.18 1.18 0 0 0-.75 0 .885.885 0 0 0-.281.235c-.075.106-.133.23-.172.375a1.943 1.943 0 0 0-.063.516c0 .375.082.668.25.875.156.21.367.312.64.312.27 0 .485-.101.641-.312.165-.207.25-.5.25-.875zm0 0"/></symbol><symbol overflow="visible" id="q"><path d="M2.563 0h-.516l-.922-1.156H.687V0h-.39v-2.922h.75c.164 0 .305.012.422.031.113.024.222.063.328.125a.8.8 0 0 1 .234.25.751.751 0 0 1 .094.391c0 .219-.059.398-.172.531a.913.913 0 0 1-.437.328zm-.844-2.094a.598.598 0 0 0-.047-.234.412.412 0 0 0-.14-.156.446.446 0 0 0-.188-.079c-.074-.007-.168-.019-.282-.03H.688v1.109h.344c.102 0 .203-.008.297-.032a.459.459 0 0 0 .219-.125.38.38 0 0 0 .125-.187.66.66 0 0 0 .047-.266zm0 0"/></symbol><symbol overflow="visible" id="r"><path d="M1-2.64a.671.671 0 0 0-.203.03.873.873 0 0 0-.219.063.582.582 0 0 0-.156.078c-.055.031-.094.059-.125.078H.266v-.406a2.29 2.29 0 0 1 .359-.125c.133-.039.27-.062.406-.062.133 0 .25.015.344.046a.62.62 0 0 1 .266.126c.093.062.16.136.203.218.039.094.062.2.062.313a.612.612 0 0 1-.156.422.669.669 0 0 1-.375.234v.031a.919.919 0 0 1 .39.188c.051.062.098.136.141.218.04.086.063.196.063.329A.875.875 0 0 1 1.89-.5a.803.803 0 0 1-.188.297.745.745 0 0 1-.312.187c-.118.051-.25.079-.407.079C.836.063.691.046.547.015a1.814 1.814 0 0 1-.36-.141v-.406H.22C.3-.47.41-.411.547-.36a1.094 1.094 0 0 0 .656.046.559.559 0 0 0 .203-.124c.051-.063.094-.126.125-.188.02-.07.032-.16.032-.266a.687.687 0 0 0-.047-.265.491.491 0 0 0-.125-.157.446.446 0 0 0-.188-.078 1.123 1.123 0 0 0-.25-.03H.781v-.329h.14c.165 0 .306-.04.423-.125a.419.419 0 0 0 .172-.36.371.371 0 0 0-.047-.187.493.493 0 0 0-.11-.125 1.15 1.15 0 0 0-.171-.078A1.296 1.296 0 0 0 1-2.641zm0 0"/></symbol><symbol overflow="visible" id="s"><path d="M2.094-1H1.75v1h-.375v-1H.078v-.422l1.313-1.5h.359v1.61h.344zm-.719-.313v-1.14l-.984 1.14zm0 0"/></symbol><symbol overflow="visible" id="e"><path d="M1.156.047C1 .047.86.02.734-.031a.724.724 0 0 1-.328-.235A1.045 1.045 0 0 1 .187-.64a1.6 1.6 0 0 1-.078-.53c0-.196.024-.368.079-.516.039-.145.109-.274.203-.391a.928.928 0 0 1 .343-.235c.125-.05.266-.078.422-.078.082 0 .16.008.235.016.062.012.125.027.187.047.05.012.102.027.156.047l.157.094v.374h-.032a.388.388 0 0 0-.109-.093.69.69 0 0 0-.156-.11 1.041 1.041 0 0 0-.188-.078.972.972 0 0 0-.25-.031.702.702 0 0 0-.516.234.738.738 0 0 0-.156.313c-.043.117-.062.25-.062.406 0 .156.02.293.062.406.04.125.094.227.157.297.07.086.148.149.234.188a.885.885 0 0 0 .281.047.827.827 0 0 0 .25-.032.76.76 0 0 0 .203-.078.586.586 0 0 0 .157-.11c.039-.03.07-.054.093-.077h.032v.375c-.055.023-.102.043-.141.062-.055.024-.11.043-.172.063a1.16 1.16 0 0 1-.187.062c-.063.008-.141.016-.235.016zm0 0"/></symbol><symbol overflow="visible" id="f"><path d="M.813-2.125c-.063 0-.122.008-.172.016l-.172.062a2.172 2.172 0 0 0-.234.125H.218v-.328A1 1 0 0 1 .5-2.36a1.232 1.232 0 0 1 .61-.015c.081.031.156.07.218.11a.799.799 0 0 1 .156.187.57.57 0 0 1 .047.25.485.485 0 0 1-.125.328.486.486 0 0 1-.297.188v.03l.157.048c.05.023.101.058.156.109.039.043.078.102.11.172a.83.83 0 0 1 0 .547.774.774 0 0 1-.406.406 1.039 1.039 0 0 1-.33.047A1.28 1.28 0 0 1 .454 0a.83.83 0 0 1-.297-.094v-.328h.016c.062.043.148.086.266.125a.774.774 0 0 0 .343.078A.525.525 0 0 0 .97-.25a.31.31 0 0 0 .156-.11.345.345 0 0 0 .11-.156.568.568 0 0 0 .03-.203.487.487 0 0 0-.046-.219.34.34 0 0 0-.094-.125.376.376 0 0 0-.156-.062 1.65 1.65 0 0 0-.203-.016H.64v-.265h.093a.57.57 0 0 0 .344-.094.353.353 0 0 0 .14-.297.37.37 0 0 0-.03-.156.415.415 0 0 0-.219-.156c-.055-.008-.106-.016-.157-.016zm0 0"/></symbol><symbol overflow="visible" id="m"><path d="M1.594 0H.234v-2.344h.313V-.28h1.047zm0 0"/></symbol><symbol overflow="visible" id="n"><path d="M1.625 0H.172v-.328A9.33 9.33 0 0 1 .469-.61c.094-.094.18-.188.265-.282.176-.195.301-.359.375-.484a.737.737 0 0 0 .094-.36.428.428 0 0 0-.11-.297.814.814 0 0 0-.14-.077.841.841 0 0 0-.156-.016c-.055 0-.11.008-.172.016a4.337 4.337 0 0 1-.156.062.342.342 0 0 0-.125.063 2.172 2.172 0 0 0-.11.062H.22v-.344c.062-.03.156-.062.281-.093.113-.032.223-.047.328-.047.219 0 .39.058.516.172a.66.66 0 0 1 .187.484.95.95 0 0 1-.031.25 2.037 2.037 0 0 1-.094.219c-.043.062-.09.133-.14.203-.055.074-.11.14-.172.203l-.328.328C.64-.43.539-.336.469-.266h1.156zm0 0"/></symbol><symbol overflow="visible" id="u"><path d="M1.5 0H.36v-.234H.78v-1.579H.36v-.218c.157 0 .274-.02.36-.063.07-.05.113-.14.125-.265h.25v2.125H1.5zm0 0"/></symbol><symbol overflow="visible" id="v"><path d="M1.594-.75a.973.973 0 0 1-.047.313.74.74 0 0 1-.156.25.61.61 0 0 1-.25.171.847.847 0 0 1-.329.063C.696.047.587.035.484.016a1.954 1.954 0 0 1-.28-.094v-.344h.015a.25.25 0 0 0 .11.063c.038.023.085.043.14.062.062.024.117.04.172.047.05.023.109.031.171.031A.416.416 0 0 0 1-.266a.31.31 0 0 0 .156-.109c.04-.04.07-.094.094-.156a.72.72 0 0 0 0-.422.967.967 0 0 0-.11-.14.648.648 0 0 0-.156-.079.917.917 0 0 0-.234-.031c-.086 0-.168.012-.25.031-.086.012-.152.024-.203.031v-1.203h1.281v.266H.594v.625h.11c.038 0 .077-.004.109-.016.113 0 .21.012.296.032a.788.788 0 0 1 .25.125c.07.054.13.125.172.218.04.086.063.2.063.344zm0 0"/></symbol><symbol overflow="visible" id="w"><path d="M1.688-.922c0 .293-.07.524-.204.688a.663.663 0 0 1-.53.265.791.791 0 0 1-.438-.125v.75H.219v-2.422h.297v.188c.07-.063.156-.117.25-.172a.647.647 0 0 1 .28-.063.57.57 0 0 1 .485.235c.102.168.157.387.157.656zM1.39-.89c0-.207-.032-.363-.094-.468a.356.356 0 0 0-.313-.172.515.515 0 0 0-.25.062.798.798 0 0 0-.218.14v1c.07.044.14.071.203.079.05.012.113.016.187.016a.438.438 0 0 0 .36-.172c.082-.102.125-.266.125-.485zm0 0"/></symbol><symbol overflow="visible" id="x"><path d="M1.656-.766a.961.961 0 0 1-.062.344.528.528 0 0 1-.157.25.666.666 0 0 1-.234.156A.786.786 0 0 1 .625 0a.756.756 0 0 1-.234-.172A.713.713 0 0 1 .203-.5a1.887 1.887 0 0 1-.062-.531 1.53 1.53 0 0 1 .062-.563 1.29 1.29 0 0 1 .188-.422.966.966 0 0 1 .328-.28c.133-.063.289-.095.469-.095h.156c.039.012.078.024.11.032v.296h-.016c-.024-.007-.063-.023-.125-.046a1.17 1.17 0 0 0-.172-.016.62.62 0 0 0-.47.203c-.124.125-.198.32-.218.578a.716.716 0 0 1 .234-.11.745.745 0 0 1 .266-.046c.082 0 .16.012.235.031a.88.88 0 0 1 .218.11.605.605 0 0 1 .188.25.9.9 0 0 1 .062.343zm-.312.016A.634.634 0 0 0 1.297-1a.32.32 0 0 0-.125-.156c-.043-.032-.086-.055-.125-.078C.984-1.242.926-1.25.875-1.25a.538.538 0 0 0-.219.047 1.527 1.527 0 0 0-.203.094v.14c0 .168.016.305.047.406.031.094.07.168.125.22a.29.29 0 0 0 .14.109.31.31 0 0 0 .157.03.358.358 0 0 0 .297-.14c.082-.094.125-.226.125-.406zm0 0"/></symbol><symbol overflow="visible" id="y"><path d="M.672 0H.297v-.453h.375zm0 0"/></symbol><symbol overflow="visible" id="z"><path d="M1.281-1.797a.379.379 0 0 0-.11-.266.414.414 0 0 0-.296-.109.408.408 0 0 0-.281.094.312.312 0 0 0-.11.25c0 .086.02.152.063.203a.357.357 0 0 0 .172.14c.031.024.078.048.14.079.07.031.133.058.188.078a.558.558 0 0 0 .187-.219.62.62 0 0 0 .047-.25zm.047 1.172a.435.435 0 0 0-.062-.234.607.607 0 0 0-.22-.172.849.849 0 0 0-.14-.063 1.94 1.94 0 0 1-.203-.078.63.63 0 0 0-.203.203.71.71 0 0 0-.063.297c0 .149.04.262.126.344.082.094.19.14.328.14a.456.456 0 0 0 .312-.109.445.445 0 0 0 .125-.328zM.891.047C.766.047.656.03.562 0a.602.602 0 0 1-.25-.156.586.586 0 0 1-.14-.219.596.596 0 0 1-.063-.281A.58.58 0 0 1 .22-1a.783.783 0 0 1 .297-.25v-.016a.754.754 0 0 1-.266-.218.518.518 0 0 1-.078-.297c0-.176.066-.328.203-.453a.768.768 0 0 1 .516-.172.72.72 0 0 1 .5.172.548.548 0 0 1 .109.734.683.683 0 0 1-.266.25c.133.074.239.152.313.234.07.094.11.215.11.36 0 .199-.075.367-.22.5a.805.805 0 0 1-.546.203zm0 0"/></symbol><symbol overflow="visible" id="A"><path d="M1.594 0h-.297v-1-.234a1.104 1.104 0 0 0-.047-.172.411.411 0 0 0-.11-.094.454.454 0 0 0-.39.031 1.066 1.066 0 0 0-.234.156V0H.219v-1.766h.297v.204A.918.918 0 0 1 .78-1.75a.617.617 0 0 1 .266-.063.5.5 0 0 1 .406.172c.094.118.14.282.14.5zm0 0"/></symbol><symbol overflow="visible" id="S"><path d="M1.828-.719a.796.796 0 0 1-.062.313.724.724 0 0 1-.172.219c-.094.062-.196.109-.297.14A1.296 1.296 0 0 1 .907 0H.233v-2.344H.86c.164 0 .29.008.375.016a.92.92 0 0 1 .25.078.472.472 0 0 1 .188.172.634.634 0 0 1 .047.25.55.55 0 0 1-.078.297.644.644 0 0 1-.25.218.707.707 0 0 1 .328.22.61.61 0 0 1 .11.374zM1.391-1.78a.774.774 0 0 0-.016-.14.27.27 0 0 0-.094-.095.534.534 0 0 0-.172-.062H.547v.687h.36c.093 0 .163-.004.218-.015a.52.52 0 0 0 .14-.063.262.262 0 0 0 .11-.125c.008-.05.016-.113.016-.187zm.125 1.078a.433.433 0 0 0-.047-.219c-.024-.062-.074-.113-.157-.156a.676.676 0 0 0-.156-.047 2.019 2.019 0 0 0-.25-.016h-.36v.875h.266c.133 0 .239-.004.313-.015.082-.02.156-.047.219-.078A.477.477 0 0 0 1.469-.5a.924.924 0 0 0 .047-.203zm0 0"/></symbol><symbol overflow="visible" id="T"><path d="M1.64-2.078H.548v.672h1.047v.281H.547V0H.234v-2.344h1.407zm0 0"/></symbol><symbol overflow="visible" id="U"><path d="M1.672 0h-.39L.624-.844l-.11.11V0H.22v-2.453h.297v1.437l.687-.75h.375L.86-1.03zm0 0"/></symbol><symbol overflow="visible" id="V"><path d="M1.64-1.172c0 .418-.062.727-.187.922-.125.2-.312.297-.562.297C.629.047.437-.051.312-.25.189-.445.126-.754.126-1.172c0-.426.063-.738.188-.937.124-.196.316-.297.578-.297.25 0 .437.105.562.312.125.211.188.516.188.922zm-.406.719c.032-.082.051-.18.063-.297.008-.125.016-.266.016-.422 0-.164-.008-.305-.016-.422a1.03 1.03 0 0 0-.063-.297.387.387 0 0 0-.14-.187.34.34 0 0 0-.203-.063.355.355 0 0 0-.22.063.387.387 0 0 0-.14.187 1.076 1.076 0 0 0-.062.297 4.605 4.605 0 0 0-.016.422c0 .168.004.305.016.406.008.118.031.215.062.297.031.086.07.149.125.188.063.043.14.062.235.062a.224.224 0 0 0 .203-.062.362.362 0 0 0 .14-.172zm0 0"/></symbol><symbol overflow="visible" id="g"><path d="M.047-1.438c.008.188-.024.368-.094.532A1.087 1.087 0 0 1-.328-.5c-.125.117-.281.21-.469.281a2.147 2.147 0 0 1-.656.094c-.25 0-.461-.031-.64-.094A1.555 1.555 0 0 1-2.579-.5a1.284 1.284 0 0 1-.297-.406 1.416 1.416 0 0 1-.094-.531c0-.102.008-.196.016-.282.023-.082.043-.16.062-.234.024-.063.043-.129.063-.203.031-.063.07-.125.11-.188h.468v.031c-.031.032-.07.075-.125.126-.04.062-.082.132-.125.203a2.15 2.15 0 0 0-.11.234c-.019.094-.03.2-.03.313 0 .125.027.242.078.343a.876.876 0 0 0 .218.297c.106.086.23.149.375.188.157.054.328.078.516.078.2 0 .371-.024.516-.078a.83.83 0 0 0 .359-.188.624.624 0 0 0 .219-.297.718.718 0 0 0 .078-.343.99.99 0 0 0-.047-.313A.83.83 0 0 0-.422-2a1.42 1.42 0 0 0-.234-.313v-.03h.453c.031.062.062.12.094.171.03.063.058.137.078.219.031.086.05.164.062.234.008.074.016.168.016.282zm0 0"/></symbol><symbol overflow="visible" id="h"><path d="M-1-2.094v.344h1v.375h-1v1.297h-.422l-1.5-1.313v-.359h1.61v-.344zm-.313.719h-1.14l1.14.984zm0 0"/></symbol><symbol overflow="visible" id="i"><path d="M-.922-1.984c.137 0 .266.023.39.062.118.055.22.121.313.203a.757.757 0 0 1 .203.297c.051.125.079.262.079.406 0 .149-.016.29-.047.422-.032.137-.07.25-.125.344h-.407v-.016c.024-.03.047-.078.079-.14.023-.051.046-.114.078-.188.023-.07.043-.14.062-.203.012-.062.016-.133.016-.219a.693.693 0 0 0-.047-.234.389.389 0 0 0-.125-.188.604.604 0 0 0-.203-.109 1.075 1.075 0 0 0-.281-.031.868.868 0 0 0-.25.031.491.491 0 0 0-.157.125.644.644 0 0 0-.11.203c-.019.086-.03.18-.03.282 0 .105.007.21.015.312.024.117.04.203.047.266h-1.5v-1.61h.344v1.235h.781c-.008-.051-.016-.098-.016-.141V-1c0-.156.012-.285.032-.39.031-.094.078-.192.14-.298a.782.782 0 0 1 .282-.218c.117-.051.261-.078.437-.078zm0 0"/></symbol><symbol overflow="visible" id="j"><path d="M-2.047-2.14c.137 0 .258.023.36.062.117.055.214.117.296.187.106.106.18.227.22.36.054.136.077.308.077.515v.329H0v.39h-2.922v-.734c0-.164.016-.313.047-.438s.078-.234.14-.328a.866.866 0 0 1 .282-.25.843.843 0 0 1 .406-.094zm.016.406a.76.76 0 0 0-.266.046.553.553 0 0 0-.172.157.859.859 0 0 0-.094.218c-.019.086-.03.188-.03.313v.313h1.171v-.266c0-.156-.008-.281-.031-.375a.752.752 0 0 0-.14-.25 1.043 1.043 0 0 0-.188-.125.95.95 0 0 0-.25-.031zm0 0"/></symbol><symbol overflow="visible" id="t"><path d="M0-2.563v.516l-1.156.922v.438H0v.39h-2.922v-.75c0-.164.012-.305.031-.422.024-.113.063-.222.125-.328a.8.8 0 0 1 .25-.234.751.751 0 0 1 .391-.094c.219 0 .398.059.531.172.149.105.258.25.328.437zm-2.094.844a.598.598 0 0 0-.234.047.412.412 0 0 0-.156.14.446.446 0 0 0-.079.188c-.007.074-.019.168-.03.282v.375h1.109v-.344c0-.102-.008-.203-.032-.297a.459.459 0 0 0-.125-.219.38.38 0 0 0-.187-.125.66.66 0 0 0-.266-.047zm0 0"/></symbol><symbol overflow="visible" id="F"><path d="M0-.844v.469h-.563v-.469zm0 0"/></symbol><symbol overflow="visible" id="G"><path d="M-2.484-2.047L0-.78v.422l-2.578-1.344v1.516h-.344v-1.86zm0 0"/></symbol><symbol overflow="visible" id="H"><path d="M0-1.984v.359h-1.25c-.094 0-.188.008-.281.016a.566.566 0 0 0-.203.062.382.382 0 0 0-.125.125c-.02.055-.036.125-.047.219 0 .094.027.187.078.281.055.106.117.2.187.281H0v.375h-2.188V-.64h.235a1.42 1.42 0 0 1-.219-.312.831.831 0 0 1-.078-.344c0-.219.07-.39.203-.516.149-.113.356-.171.625-.171zm0 0"/></symbol><symbol overflow="visible" id="k"><path d="M0-1.188v1.016h-1.75v-.234h1.547v-.781zm0 0"/></symbol><symbol overflow="visible" id="l"><path d="M0-1.125v.86h-.172v-.313h-1.172v.312h-.172a.61.61 0 0 0-.046-.265c-.032-.051-.094-.082-.188-.094v-.188h1.578v-.312zm0 0"/></symbol><symbol overflow="visible" id="o"><path d="M-1.578-.594c0 .043.008.086.016.125.011.043.023.086.03.125.024.031.04.063.048.094.023.031.039.059.046.078v.016h-.234a.817.817 0 0 1-.078-.219 1.069 1.069 0 0 1-.031-.25c0-.07.008-.14.015-.203a.648.648 0 0 1 .079-.156.6.6 0 0 1 .14-.125.554.554 0 0 1 .188-.032c.093 0 .18.032.25.094.074.063.12.14.14.234h.016c.012-.039.023-.082.031-.125.024-.039.047-.082.078-.125a.428.428 0 0 1 .125-.078.6.6 0 0 1 .203-.03c.075 0 .149.01.22.03A.668.668 0 0 1 0-.844c.02.074.031.156.031.25a1.151 1.151 0 0 1-.11.485h-.233v-.016c.03-.05.062-.117.093-.203a.692.692 0 0 0 .032-.39.36.36 0 0 0-.188-.204.806.806 0 0 0-.156-.015.37.37 0 0 0-.156.03.166.166 0 0 0-.094.079.258.258 0 0 0-.063.11v.25h-.203v-.079a.436.436 0 0 0-.078-.265.267.267 0 0 0-.328-.063.17.17 0 0 0-.078.063.525.525 0 0 0-.047.093v.125zm0 0"/></symbol><symbol overflow="visible" id="I"><path d="M-.875-1.219c.313 0 .543.047.688.14a.463.463 0 0 1 .218.423c0 .187-.07.328-.218.422-.145.093-.376.14-.688.14-.313 0-.54-.047-.688-.14a.47.47 0 0 1-.218-.422.47.47 0 0 1 .218-.422c.157-.094.387-.14.688-.14zm.531.297a.987.987 0 0 0-.219-.047 3.248 3.248 0 0 0-.625 0 1.42 1.42 0 0 0-.218.047.42.42 0 0 0-.14.11.256.256 0 0 0-.048.156c0 .062.016.117.047.156a.375.375 0 0 0 .14.11c.063.023.137.038.22.046h.312c.125.012.23.012.313 0A.827.827 0 0 0-.345-.39.234.234 0 0 0-.204-.5c.032-.031.048-.082.048-.156a.256.256 0 0 0-.047-.156.42.42 0 0 0-.14-.11zm0 0"/></symbol><symbol overflow="visible" id="J"><path d="M-.61-1.25v.203H0v.234h-.61v.766h-.234l-.906-.781v-.219h.953v-.203zm-.187.438h-.672l.672.578zm0 0"/></symbol><symbol overflow="visible" id="K"><path d="M-1.828-.86l2.203.688v.203l-2.203-.687zm0 0"/></symbol><symbol overflow="visible" id="L"><path d="M-1.484-1.234L0-.47v.25l-1.547-.797v.907h-.203v-1.125zm0 0"/></symbol><symbol overflow="visible" id="N"><path d="M.031-.563c0 .125-.035.22-.11.282-.07.074-.179.11-.327.11h-.719v.14h-.188v-.14h-.375v-.22h.375v-.406h.188v.406h.781A.88.88 0 0 0-.25-.42a.085.085 0 0 0 .063-.063.36.36 0 0 0 .015-.125.408.408 0 0 0-.016-.11C-.195-.75-.203-.769-.203-.78v-.016h.187c.012.043.02.086.032.125.007.043.015.078.015.11zm0 0"/></symbol><symbol overflow="visible" id="O"><path d="M0-1.188v.22h-.14c.054.073.093.14.124.202a.456.456 0 0 1 .047.204.806.806 0 0 1-.015.156.343.343 0 0 1-.094.14.616.616 0 0 1-.375.11h-.86v-.219H-.39c.043-.008.086-.02.125-.031a.135.135 0 0 0 .063-.078c.023-.032.031-.079.031-.141 0-.05-.016-.11-.047-.172a.985.985 0 0 0-.11-.172h-.984v-.219zm0 0"/></symbol><symbol overflow="visible" id="P"><path d="M-1.078-.86V-.718c0 .055.012.11.031.172.031.063.07.121.11.172H0v.219h-1.313v-.219h.188a1.423 1.423 0 0 1-.14-.219.38.38 0 0 1-.048-.172v-.046-.047zm0 0"/></symbol><symbol overflow="visible" id="Q"><path d="M0-1.188v.22H-.922a.419.419 0 0 0-.125.046.1.1 0 0 0-.062.063.337.337 0 0 0-.032.14c0 .055.016.11.047.172.032.055.07.11.11.172H0v.219h-1.313v-.219h.141a1.51 1.51 0 0 1-.125-.203.444.444 0 0 1-.047-.203.38.38 0 0 1 .125-.297.548.548 0 0 1 .36-.11zm0 0"/></symbol><symbol overflow="visible" id="R"><path d="M.031-.516A.95.95 0 0 1 0-.266a.694.694 0 0 1-.078.188h-.25v-.016a.14.14 0 0 0 .047-.062.25.25 0 0 0 .062-.11.262.262 0 0 0 .047-.125.476.476 0 0 0 0-.25.1.1 0 0 0-.031-.078A.088.088 0 0 0-.25-.78a.255.255 0 0 0-.094-.016.237.237 0 0 0-.125.031.845.845 0 0 0-.062.157A2.67 2.67 0 0 1-.562-.5a.576.576 0 0 1-.032.125c-.02.105-.062.18-.125.219a.314.314 0 0 1-.219.078.358.358 0 0 1-.296-.14.579.579 0 0 1-.11-.36.87.87 0 0 1 .032-.219c.023-.07.042-.133.062-.187h.234v.015c-.039.055-.078.117-.109.188a.87.87 0 0 0-.031.219c0 .074.015.132.047.171.03.055.078.079.14.079A.165.165 0 0 0-.844-.36C-.82-.38-.8-.426-.78-.5a.308.308 0 0 0 .015-.11c.012-.038.024-.081.032-.124a.586.586 0 0 1 .125-.22.333.333 0 0 1 .234-.077c.055 0 .105.011.156.031a.262.262 0 0 1 .125.11A.373.373 0 0 1 0-.735c.02.062.031.136.031.218zm0 0"/></symbol><symbol overflow="visible" id="B"><path d="M0-1.5v1.14h-.234V-.78h-1.579v.422h-.218a.813.813 0 0 0-.063-.36c-.05-.07-.14-.113-.265-.125v-.25h2.125V-1.5zm0 0"/></symbol><symbol overflow="visible" id="C"><path d="M-1.172-1.64c.418 0 .727.062.922.187.2.125.297.312.297.562 0 .262-.098.454-.297.579-.195.124-.504.187-.922.187-.426 0-.738-.063-.937-.188-.196-.124-.297-.316-.297-.578 0-.25.105-.437.312-.562.211-.125.516-.188.922-.188zm.719.406a1.163 1.163 0 0 0-.297-.063 6.185 6.185 0 0 0-.844 0 1.03 1.03 0 0 0-.297.063.387.387 0 0 0-.187.14.34.34 0 0 0-.063.203c0 .094.024.168.063.22.043.062.105.109.187.14.086.031.184.054.297.062.125.012.266.016.422.016.168 0 .305-.004.406-.016.118-.008.215-.031.297-.062A.378.378 0 0 0-.28-.656.404.404 0 0 0-.22-.891a.224.224 0 0 0-.062-.203.362.362 0 0 0-.172-.14zm0 0"/></symbol><symbol overflow="visible" id="D"><path d="M0-1.594v.297h-.203c.086.094.148.184.187.266a.674.674 0 0 1 .032.484.527.527 0 0 1-.125.188.38.38 0 0 1-.204.109.893.893 0 0 1-.312.047h-1.14V-.5h1c.093 0 .171-.004.234-.016A.325.325 0 0 0-.36-.562a.183.183 0 0 0 .093-.094.346.346 0 0 0 .032-.172c0-.07-.02-.149-.063-.235a1.114 1.114 0 0 0-.156-.234h-1.313v-.297zm0 0"/></symbol><symbol overflow="visible" id="E"><path d="M0-1.594v.297h-1.234a1.104 1.104 0 0 0-.172.047.411.411 0 0 0-.094.11.454.454 0 0 0 .031.39c.043.086.094.164.156.234H0v.297h-1.766v-.297h.204A.918.918 0 0 1-1.75-.78a.617.617 0 0 1-.063-.266.5.5 0 0 1 .172-.406c.118-.094.282-.14.5-.14zm0 0"/></symbol><symbol overflow="visible" id="W"><path d="M-.75-1.594c.117 0 .219.016.313.047a.74.74 0 0 1 .25.156.61.61 0 0 1 .171.25c.04.094.063.204.063.329 0 .117-.012.226-.031.328-.032.117-.063.21-.094.28h-.344v-.015a.25.25 0 0 0 .063-.11.795.795 0 0 0 .062-.14A.813.813 0 0 0-.25-.64a.409.409 0 0 0 .031-.171A.416.416 0 0 0-.266-1a.31.31 0 0 0-.109-.156.438.438 0 0 0-.156-.094.72.72 0 0 0-.422 0 .967.967 0 0 0-.14.11.648.648 0 0 0-.079.156.917.917 0 0 0-.031.234c0 .086.012.168.031.25.012.086.024.152.031.203h-1.203v-1.281h.266v.984h.625v-.11a.322.322 0 0 0-.016-.109c0-.113.012-.21.032-.296a.788.788 0 0 1 .125-.25.573.573 0 0 1 .218-.172c.086-.04.2-.063.344-.063zm0 0"/></symbol></defs><path d="M291.66 234.238l-.781.121-.777.243-.66.418-.544.601-.476.66-.242.778-.121.78M295.262 234.238l-.782.121-.78.243-.66.418-.599.601-.421.66-.239.778-.12.78M298.86 234.238l-.782.121-.777.243-.66.418-.602.601-.418.66-.242.778-.117.78M288.059 234.238l-.778.121-.781.243-.66.418-.54.601-.48.66-.242.778-.117.78" fill="none" stroke-width=".36000000000000004" stroke-linecap="round" stroke-linejoin="round" stroke="#505050" stroke-miterlimit="10"/><path d="M302.46 237.84l-.062-.781-.296-.778-.422-.66-.54-.601-.718-.418-.723-.243-.84-.12" fill="none" stroke-width=".36000000000000004" stroke-linecap="round" stroke-linejoin="round" stroke="#505050" stroke-miterlimit="10"/><path d="M308.219 209.102v-7.204M337.02 237.84h-28.801M308.219 237.84v-7.2M308.219 230.64v-21.538M322.621 216.238H308.22M308.219 216.238v14.403M337.02 216.238H322.62M293.82 223.441h-7.199M293.82 216.238v7.203M293.82 216.238v-7.136M322.621 223.441v7.2M322.621 230.64h14.399M279.48 209.102l7.141-14.403M286.621 209.102h-7.14M265.078 209.102v14.34M265.078 223.441h7.203M272.281 194.7l-7.203 14.402M257.879 237.84h10.8M315.422 209.102v-7.204M315.422 209.102V180.3M315.422 180.3h7.2M315.422 180.3l-25.203 7.2M337.02 209.102H322.62M301.02 209.102l3.601-21.602" fill="none" stroke-width="3.6" stroke-linecap="round" stroke-linejoin="round" stroke="navy" stroke-miterlimit="10"/><path d="M339.54 209.102a2.52 2.52 0 1 1-5.042-.003 2.52 2.52 0 0 1 5.041.003" fill-rule="evenodd" fill="green"/><path d="M339.54 209.102a2.52 2.52 0 1 1-5.042-.003 2.52 2.52 0 0 1 5.041.003zm0 0" fill="none" stroke-width=".12" stroke-linecap="round" stroke-linejoin="round" stroke="green" stroke-miterlimit="10"/><path d="M338.46 209.102a1.442 1.442 0 0 1-2.883 0c.001-.797.65-1.442 1.443-1.442a1.44 1.44 0 0 1 1.44 1.442" fill-rule="evenodd" fill="#fff"/><path d="M338.46 209.102a1.442 1.442 0 0 1-2.883 0c.001-.797.65-1.442 1.443-1.442a1.44 1.44 0 0 1 1.44 1.442zm0 0" fill="none" stroke-width=".06" stroke-linecap="square" stroke-linejoin="bevel" stroke="#000" stroke-miterlimit="10"/><path d="M339.54 230.64a2.52 2.52 0 1 1-5.042-.002 2.52 2.52 0 0 1 5.041.003" fill-rule="evenodd" fill="green"/><path d="M339.54 230.64a2.52 2.52 0 1 1-5.042-.002 2.52 2.52 0 0 1 5.041.003zm0 0" fill="none" stroke-width=".12" stroke-linecap="round" stroke-linejoin="round" stroke="green" stroke-miterlimit="10"/><path d="M338.46 230.64a1.442 1.442 0 0 1-2.883 0c.001-.796.65-1.44 1.443-1.44a1.44 1.44 0 0 1 1.44 1.44" fill-rule="evenodd" fill="#fff"/><path d="M338.46 230.64a1.442 1.442 0 0 1-2.883 0c.001-.796.65-1.44 1.443-1.44a1.44 1.44 0 0 1 1.44 1.44zm0 0" fill="none" stroke-width=".06" stroke-linecap="square" stroke-linejoin="bevel" stroke="#000" stroke-miterlimit="10"/><path d="M339.54 237.84a2.52 2.52 0 0 1-5.04 0 2.52 2.52 0 0 1 5.04 0" fill-rule="evenodd" fill="green"/><path d="M339.54 237.84a2.52 2.52 0 0 1-5.04 0 2.52 2.52 0 0 1 5.04 0zm0 0" fill="none" stroke-width=".12" stroke-linecap="round" stroke-linejoin="round" stroke="green" stroke-miterlimit="10"/><path d="M338.46 237.84a1.44 1.44 0 1 1-2.88.002 1.44 1.44 0 0 1 2.88-.002" fill-rule="evenodd" fill="#fff"/><path d="M338.46 237.84a1.44 1.44 0 1 1-2.88.002 1.44 1.44 0 0 1 2.88-.002zm0 0" fill="none" stroke-width=".06" stroke-linecap="square" stroke-linejoin="bevel" stroke="#000" stroke-miterlimit="10"/><path d="M260.398 237.84a2.52 2.52 0 1 1-5.037-.002 2.52 2.52 0 0 1 5.037.002" fill-rule="evenodd" fill="green"/><path d="M260.398 237.84a2.52 2.52 0 1 1-5.037-.002 2.52 2.52 0 0 1 5.037.002zm0 0" fill="none" stroke-width=".12" stroke-linecap="round" stroke-linejoin="round" stroke="green" stroke-miterlimit="10"/><path d="M259.32 237.84a1.44 1.44 0 1 1-2.88.002 1.44 1.44 0 0 1 2.88-.002" fill-rule="evenodd" fill="#fff"/><path d="M259.32 237.84a1.44 1.44 0 1 1-2.88.002 1.44 1.44 0 0 1 2.88-.002zm0 0" fill="none" stroke-width=".06" stroke-linecap="square" stroke-linejoin="bevel" stroke="#000" stroke-miterlimit="10"/><path d="M270.54 237.84a1.859 1.859 0 1 1-3.719.001 1.859 1.859 0 0 1 3.718-.001" fill-rule="evenodd" fill="green"/><path d="M270.54 237.84a1.859 1.859 0 1 1-3.719.001 1.859 1.859 0 0 1 3.718-.001zm0 0" fill="none" stroke-width=".12" stroke-linecap="round" stroke-linejoin="round" stroke="green" stroke-miterlimit="10"/><path d="M269.82 237.84c0 .629-.511 1.14-1.14 1.14-.63 0-1.14-.511-1.14-1.14 0-.63.51-1.14 1.14-1.14.629 0 1.14.51 1.14 1.14" fill-rule="evenodd" fill="#fff"/><path d="M269.82 237.84c0 .629-.511 1.14-1.14 1.14-.63 0-1.14-.511-1.14-1.14 0-.63.51-1.14 1.14-1.14.629 0 1.14.51 1.14 1.14zm0 0" fill="none" stroke-width=".06" stroke-linecap="square" stroke-linejoin="bevel" stroke="#000" stroke-miterlimit="10"/><path d="M270.54 230.64a1.859 1.859 0 1 1-3.719.002 1.859 1.859 0 0 1 3.718-.001" fill-rule="evenodd" fill="green"/><path d="M270.54 230.64a1.859 1.859 0 1 1-3.719.002 1.859 1.859 0 0 1 3.718-.001zm0 0" fill="none" stroke-width=".12" stroke-linecap="round" stroke-linejoin="round" stroke="green" stroke-miterlimit="10"/><path d="M269.82 230.64c0 .63-.511 1.141-1.14 1.141-.63 0-1.14-.511-1.14-1.14 0-.63.51-1.141 1.14-1.141.629 0 1.14.512 1.14 1.14" fill-rule="evenodd" fill="#fff"/><path d="M269.82 230.64c0 .63-.511 1.141-1.14 1.141-.63 0-1.14-.511-1.14-1.14 0-.63.51-1.141 1.14-1.141.629 0 1.14.512 1.14 1.14zm0 0" fill="none" stroke-width=".06" stroke-linecap="square" stroke-linejoin="bevel" stroke="#000" stroke-miterlimit="10"/><path d="M274.621 181.262l-1.383 1.379h-1.918l-1.379-1.38v-1.921l1.38-1.38h1.917l1.383 1.38v1.922" fill="green"/><path d="M274.621 181.262l-1.383 1.379h-1.918l-1.379-1.38v-1.921l1.38-1.38h1.917l1.383 1.38zm0 0" fill="none" stroke-width=".12" stroke-linecap="round" stroke-linejoin="round" stroke="green" stroke-miterlimit="10"/><path d="M273.84 180.3a1.56 1.56 0 1 1-3.121-.003 1.56 1.56 0 0 1 3.12.004" fill-rule="evenodd" fill="#fff"/><path d="M273.84 180.3a1.56 1.56 0 1 1-3.121-.003 1.56 1.56 0 0 1 3.12.004zm0 0" fill="none" stroke-width=".06" stroke-linecap="square" stroke-linejoin="bevel" stroke="#000" stroke-miterlimit="10"/><path d="M274.621 195.66l-1.383 1.38h-1.918l-1.379-1.38v-1.922l1.38-1.379h1.917l1.383 1.38v1.921" fill="green"/><path d="M274.621 195.66l-1.383 1.38h-1.918l-1.379-1.38v-1.922l1.38-1.379h1.917l1.383 1.38zm0 0" fill="none" stroke-width=".12" stroke-linecap="round" stroke-linejoin="round" stroke="green" stroke-miterlimit="10"/><path d="M273.84 194.7a1.561 1.561 0 1 1-3.123.002 1.561 1.561 0 0 1 3.123-.003" fill-rule="evenodd" fill="#fff"/><path d="M273.84 194.7a1.561 1.561 0 1 1-3.123.002 1.561 1.561 0 0 1 3.123-.003zm0 0" fill="none" stroke-width=".06" stroke-linecap="square" stroke-linejoin="bevel" stroke="#000" stroke-miterlimit="10"/><path d="M288.96 195.66l-1.382 1.38h-1.918l-1.379-1.38v-1.922l1.38-1.379h1.917l1.383 1.38v1.921" fill="green"/><path d="M288.96 195.66l-1.382 1.38h-1.918l-1.379-1.38v-1.922l1.38-1.379h1.917l1.383 1.38zm0 0" fill="none" stroke-width=".12" stroke-linecap="round" stroke-linejoin="round" stroke="green" stroke-miterlimit="10"/><path d="M288.18 194.7a1.561 1.561 0 1 1-3.123.002 1.561 1.561 0 0 1 3.123-.003" fill-rule="evenodd" fill="#fff"/><path d="M288.18 194.7a1.561 1.561 0 1 1-3.123.002 1.561 1.561 0 0 1 3.123-.003zm0 0" fill="none" stroke-width=".06" stroke-linecap="square" stroke-linejoin="bevel" stroke="#000" stroke-miterlimit="10"/><path d="M310.078 230.64a1.859 1.859 0 1 1-3.717.002 1.859 1.859 0 0 1 3.717-.001" fill-rule="evenodd" fill="green"/><path d="M310.078 230.64a1.859 1.859 0 1 1-3.718.002 1.859 1.859 0 0 1 3.718-.001zm0 0" fill="none" stroke-width=".12" stroke-linecap="round" stroke-linejoin="round" stroke="green" stroke-miterlimit="10"/><path d="M309.36 230.64a1.14 1.14 0 1 1-2.282 0 1.14 1.14 0 1 1 2.281 0" fill-rule="evenodd" fill="#fff"/><path d="M309.36 230.64a1.14 1.14 0 1 1-2.282 0 1.14 1.14 0 1 1 2.281 0zm0 0" fill="none" stroke-width=".06" stroke-linecap="square" stroke-linejoin="bevel" stroke="#000" stroke-miterlimit="10"/><path d="M324.48 230.64a1.859 1.859 0 1 1-3.717.002 1.859 1.859 0 0 1 3.717-.001" fill-rule="evenodd" fill="green"/><path d="M324.48 230.64a1.859 1.859 0 1 1-3.717.002 1.859 1.859 0 0 1 3.717-.001zm0 0" fill="none" stroke-width=".12" stroke-linecap="round" stroke-linejoin="round" stroke="green" stroke-miterlimit="10"/><path d="M323.762 230.64a1.14 1.14 0 1 1-1.14-1.14c.628 0 1.14.512 1.14 1.14" fill-rule="evenodd" fill="#fff"/><path d="M323.762 230.64a1.14 1.14 0 1 1-1.14-1.14c.628 0 1.14.512 1.14 1.14zm0 0" fill="none" stroke-width=".06" stroke-linecap="square" stroke-linejoin="bevel" stroke="#000" stroke-miterlimit="10"/><path d="M309.96 201.898a1.74 1.74 0 1 1 0 0" fill-rule="evenodd" fill="green"/><path d="M309.96 201.898a1.74 1.74 0 1 1 0 0zm0 0" fill="none" stroke-width=".12" stroke-linecap="round" stroke-linejoin="round" stroke="green" stroke-miterlimit="10"/><path d="M309.238 201.898c0 .567-.457 1.024-1.02 1.024a1.021 1.021 0 0 1 0-2.043c.563 0 1.02.457 1.02 1.02" fill-rule="evenodd" fill="#fff"/><path d="M309.238 201.898c0 .567-.457 1.024-1.02 1.024a1.021 1.021 0 0 1 0-2.043c.563 0 1.02.457 1.02 1.02zm0 0" fill="none" stroke-width=".06" stroke-linecap="square" stroke-linejoin="bevel" stroke="#000" stroke-miterlimit="10"/><path d="M313.68 203.64h3.48v-3.48h-3.48zm0 0" fill="green" stroke-width=".12" stroke-linecap="round" stroke-linejoin="round" stroke="green" stroke-miterlimit="10"/><path d="M316.441 201.898a1.021 1.021 0 1 1-2.042.005 1.021 1.021 0 0 1 2.042-.005" fill-rule="evenodd" fill="#fff"/><path d="M316.441 201.898a1.021 1.021 0 1 1-2.042.005 1.021 1.021 0 0 1 2.042-.005zm0 0" fill="none" stroke-width=".06" stroke-linecap="square" stroke-linejoin="bevel" stroke="#000" stroke-miterlimit="10"/><path d="M310.078 209.102a1.859 1.859 0 1 1-3.719 0c0-1.028.832-1.864 1.86-1.864 1.027 0 1.86.836 1.86 1.864" fill-rule="evenodd" fill="green"/><path d="M310.078 209.102a1.859 1.859 0 1 1-3.719 0c0-1.028.832-1.864 1.86-1.864 1.027 0 1.86.836 1.86 1.864zm0 0" fill="none" stroke-width=".12" stroke-linecap="round" stroke-linejoin="round" stroke="green" stroke-miterlimit="10"/><path d="M309.36 209.102c0 .628-.508 1.136-1.141 1.136a1.139 1.139 0 1 1 0-2.277c.633 0 1.14.508 1.14 1.14" fill-rule="evenodd" fill="#fff"/><path d="M309.36 209.102c0 .628-.508 1.136-1.141 1.136a1.139 1.139 0 1 1 0-2.277c.633 0 1.14.508 1.14 1.14zm0 0" fill="none" stroke-width=".06" stroke-linecap="square" stroke-linejoin="bevel" stroke="#000" stroke-miterlimit="10"/><path d="M317.281 209.102a1.861 1.861 0 1 1-3.722-.004 1.861 1.861 0 0 1 3.722.004" fill-rule="evenodd" fill="green"/><path d="M317.281 209.102a1.861 1.861 0 1 1-3.722-.004 1.861 1.861 0 0 1 3.722.004zm0 0" fill="none" stroke-width=".12" stroke-linecap="round" stroke-linejoin="round" stroke="green" stroke-miterlimit="10"/><path d="M316.559 209.102c0 .628-.508 1.136-1.137 1.136-.633 0-1.14-.508-1.14-1.136 0-.633.507-1.141 1.14-1.141.629 0 1.137.508 1.137 1.14" fill-rule="evenodd" fill="#fff"/><path d="M316.559 209.102c0 .628-.508 1.136-1.137 1.136-.633 0-1.14-.508-1.14-1.136 0-.633.507-1.141 1.14-1.141.629 0 1.137.508 1.137 1.14zm0 0" fill="none" stroke-width=".06" stroke-linecap="square" stroke-linejoin="bevel" stroke="#000" stroke-miterlimit="10"/><path d="M274.14 223.441a1.859 1.859 0 1 1-3.718 0c0-1.027.832-1.863 1.86-1.863 1.027 0 1.859.836 1.859 1.863" fill-rule="evenodd" fill="green"/><path d="M274.14 223.441a1.859 1.859 0 1 1-3.718 0c0-1.027.832-1.863 1.86-1.863 1.027 0 1.859.836 1.859 1.863zm0 0" fill="none" stroke-width=".12" stroke-linecap="round" stroke-linejoin="round" stroke="green" stroke-miterlimit="10"/><path d="M273.422 223.441c0 .63-.512 1.137-1.14 1.137a1.14 1.14 0 1 1 1.14-1.137" fill-rule="evenodd" fill="#fff"/><path d="M273.422 223.441c0 .63-.512 1.137-1.14 1.137a1.14 1.14 0 1 1 1.14-1.137zm0 0" fill="none" stroke-width=".06" stroke-linecap="square" stroke-linejoin="bevel" stroke="#000" stroke-miterlimit="10"/><path d="M288.48 223.441a1.859 1.859 0 1 1-3.718 0c0-1.027.832-1.863 1.86-1.863 1.026 0 1.858.836 1.858 1.863" fill-rule="evenodd" fill="green"/><path d="M288.48 223.441a1.859 1.859 0 1 1-3.718 0c0-1.027.832-1.863 1.86-1.863 1.026 0 1.858.836 1.858 1.863zm0 0" fill="none" stroke-width=".12" stroke-linecap="round" stroke-linejoin="round" stroke="green" stroke-miterlimit="10"/><path d="M287.762 223.441c0 .63-.512 1.137-1.14 1.137a1.14 1.14 0 1 1 1.14-1.137" fill-rule="evenodd" fill="#fff"/><path d="M287.762 223.441c0 .63-.512 1.137-1.14 1.137a1.14 1.14 0 1 1 1.14-1.137zm0 0" fill="none" stroke-width=".06" stroke-linecap="square" stroke-linejoin="bevel" stroke="#000" stroke-miterlimit="10"/><path d="M281.34 209.102a1.859 1.859 0 1 1-3.719 0c0-1.028.832-1.864 1.86-1.864 1.027 0 1.859.836 1.859 1.864" fill-rule="evenodd" fill="green"/><path d="M281.34 209.102a1.859 1.859 0 1 1-3.719 0c0-1.028.832-1.864 1.86-1.864 1.027 0 1.859.836 1.859 1.864zm0 0" fill="none" stroke-width=".12" stroke-linecap="round" stroke-linejoin="round" stroke="green" stroke-miterlimit="10"/><path d="M280.621 209.102c0 .628-.512 1.136-1.14 1.136a1.139 1.139 0 1 1 0-2.277c.628 0 1.14.508 1.14 1.14" fill-rule="evenodd" fill="#fff"/><path d="M280.621 209.102c0 .628-.512 1.136-1.14 1.136a1.139 1.139 0 1 1 0-2.277c.628 0 1.14.508 1.14 1.14zm0 0" fill="none" stroke-width=".06" stroke-linecap="square" stroke-linejoin="bevel" stroke="#000" stroke-miterlimit="10"/><path d="M266.941 209.102a1.862 1.862 0 0 1-3.722 0c0-1.028.836-1.864 1.86-1.864 1.026 0 1.862.836 1.862 1.864" fill-rule="evenodd" fill="green"/><path d="M266.941 209.102a1.862 1.862 0 0 1-3.722 0c0-1.028.836-1.864 1.86-1.864 1.026 0 1.862.836 1.862 1.864zm0 0" fill="none" stroke-width=".12" stroke-linecap="round" stroke-linejoin="round" stroke="green" stroke-miterlimit="10"/><path d="M266.219 209.102c0 .628-.508 1.136-1.14 1.136a1.135 1.135 0 0 1-1.138-1.136c0-.633.508-1.141 1.137-1.141.633 0 1.14.508 1.14 1.14" fill-rule="evenodd" fill="#fff"/><path d="M266.219 209.102c0 .628-.508 1.136-1.14 1.136a1.135 1.135 0 0 1-1.138-1.136c0-.633.508-1.141 1.137-1.141.633 0 1.14.508 1.14 1.14zm0 0" fill="none" stroke-width=".06" stroke-linecap="square" stroke-linejoin="bevel" stroke="#000" stroke-miterlimit="10"/><path d="M310.078 237.84a1.859 1.859 0 1 1-3.717.001 1.859 1.859 0 0 1 3.717-.001" fill-rule="evenodd" fill="green"/><path d="M310.078 237.84a1.859 1.859 0 1 1-3.718.001 1.859 1.859 0 0 1 3.718-.001zm0 0" fill="none" stroke-width=".12" stroke-linecap="round" stroke-linejoin="round" stroke="green" stroke-miterlimit="10"/><path d="M309.36 237.84a1.14 1.14 0 1 1-2.282 0 1.14 1.14 0 1 1 2.281 0" fill-rule="evenodd" fill="#fff"/><path d="M309.36 237.84a1.14 1.14 0 1 1-2.282 0 1.14 1.14 0 1 1 2.281 0zm0 0" fill="none" stroke-width=".06" stroke-linecap="square" stroke-linejoin="bevel" stroke="#000" stroke-miterlimit="10"/><path d="M281.34 237.84a1.859 1.859 0 1 1-3.718.001 1.859 1.859 0 0 1 3.718-.001" fill-rule="evenodd" fill="green"/><path d="M281.34 237.84a1.859 1.859 0 1 1-3.718.001 1.859 1.859 0 0 1 3.718-.001zm0 0" fill="none" stroke-width=".12" stroke-linecap="round" stroke-linejoin="round" stroke="green" stroke-miterlimit="10"/><path d="M280.621 237.84c0 .629-.512 1.14-1.14 1.14-.63 0-1.141-.511-1.141-1.14 0-.63.512-1.14 1.14-1.14.63 0 1.141.51 1.141 1.14" fill-rule="evenodd" fill="#fff"/><path d="M280.621 237.84c0 .629-.512 1.14-1.14 1.14-.63 0-1.141-.511-1.141-1.14 0-.63.512-1.14 1.14-1.14.63 0 1.141.51 1.141 1.14zm0 0" fill="none" stroke-width=".06" stroke-linecap="square" stroke-linejoin="bevel" stroke="#000" stroke-miterlimit="10"/><path d="M292.078 187.5a1.859 1.859 0 1 1-3.717.001 1.859 1.859 0 0 1 3.717-.001" fill-rule="evenodd" fill="green"/><path d="M292.078 187.5a1.859 1.859 0 1 1-3.718.001 1.859 1.859 0 0 1 3.718-.001zm0 0" fill="none" stroke-width=".12" stroke-linecap="round" stroke-linejoin="round" stroke="green" stroke-miterlimit="10"/><path d="M291.36 187.5a1.14 1.14 0 1 1-2.282 0 1.14 1.14 0 1 1 2.281 0" fill-rule="evenodd" fill="#fff"/><path d="M291.36 187.5a1.14 1.14 0 1 1-2.282 0 1.14 1.14 0 1 1 2.281 0zm0 0" fill="none" stroke-width=".06" stroke-linecap="square" stroke-linejoin="bevel" stroke="#000" stroke-miterlimit="10"/><path d="M306.48 187.5a1.859 1.859 0 1 1-3.717.001 1.859 1.859 0 0 1 3.717-.001" fill-rule="evenodd" fill="green"/><path d="M306.48 187.5a1.859 1.859 0 1 1-3.717.001 1.859 1.859 0 0 1 3.717-.001zm0 0" fill="none" stroke-width=".12" stroke-linecap="round" stroke-linejoin="round" stroke="green" stroke-miterlimit="10"/><path d="M305.762 187.5a1.14 1.14 0 1 1-1.14-1.14c.628 0 1.14.511 1.14 1.14" fill-rule="evenodd" fill="#fff"/><path d="M305.762 187.5a1.14 1.14 0 1 1-1.14-1.14c.628 0 1.14.511 1.14 1.14zm0 0" fill="none" stroke-width=".06" stroke-linecap="square" stroke-linejoin="bevel" stroke="#000" stroke-miterlimit="10"/><path d="M302.879 209.879l-1.078 1.082h-1.563l-1.078-1.082v-1.559l1.078-1.082h1.563l1.078 1.082v1.559" fill="green"/><path d="M302.879 209.879l-1.078 1.082h-1.563l-1.078-1.082v-1.559l1.078-1.082h1.563l1.078 1.082zm0 0" fill="none" stroke-width=".12" stroke-linecap="round" stroke-linejoin="round" stroke="green" stroke-miterlimit="10"/><path d="M302.16 209.102c0 .628-.512 1.136-1.14 1.136a1.139 1.139 0 1 1 0-2.277c.628 0 1.14.508 1.14 1.14" fill-rule="evenodd" fill="#fff"/><path d="M302.16 209.102c0 .628-.512 1.136-1.14 1.136a1.139 1.139 0 1 1 0-2.277c.628 0 1.14.508 1.14 1.14zm0 0" fill="none" stroke-width=".06" stroke-linecap="square" stroke-linejoin="bevel" stroke="#000" stroke-miterlimit="10"/><path d="M288.48 209.879l-1.082 1.082h-1.558l-1.078-1.082v-1.559l1.078-1.082h1.558l1.082 1.082v1.559" fill="green"/><path d="M288.48 209.879l-1.082 1.082h-1.558l-1.078-1.082v-1.559l1.078-1.082h1.558l1.082 1.082zm0 0" fill="none" stroke-width=".12" stroke-linecap="round" stroke-linejoin="round" stroke="green" stroke-miterlimit="10"/><path d="M287.762 209.102c0 .628-.512 1.136-1.14 1.136-.634 0-1.142-.508-1.142-1.136 0-.633.508-1.141 1.141-1.141.629 0 1.14.508 1.14 1.14" fill-rule="evenodd" fill="#fff"/><path d="M287.762 209.102c0 .628-.512 1.136-1.14 1.136-.634 0-1.142-.508-1.142-1.136 0-.633.508-1.141 1.141-1.141.629 0 1.14.508 1.14 1.14zm0 0" fill="none" stroke-width=".06" stroke-linecap="square" stroke-linejoin="bevel" stroke="#000" stroke-miterlimit="10"/><path d="M295.68 209.879l-1.078 1.082h-1.563l-1.078-1.082v-1.559l1.078-1.082h1.563l1.078 1.082v1.559" fill="green"/><path d="M295.68 209.879l-1.078 1.082h-1.563l-1.078-1.082v-1.559l1.078-1.082h1.563l1.078 1.082zm0 0" fill="none" stroke-width=".12" stroke-linecap="round" stroke-linejoin="round" stroke="green" stroke-miterlimit="10"/><path d="M294.96 209.102c0 .628-.51 1.136-1.14 1.136a1.139 1.139 0 1 1 0-2.277c.63 0 1.14.508 1.14 1.14" fill-rule="evenodd" fill="#fff"/><path d="M294.96 209.102c0 .628-.51 1.136-1.14 1.136a1.139 1.139 0 1 1 0-2.277c.63 0 1.14.508 1.14 1.14zm0 0" fill="none" stroke-width=".06" stroke-linecap="square" stroke-linejoin="bevel" stroke="#000" stroke-miterlimit="10"/><path d="M324.48 216.238a1.862 1.862 0 0 1-1.859 1.864 1.862 1.862 0 0 1 0-3.723c1.027 0 1.86.836 1.86 1.86" fill-rule="evenodd" fill="green"/><path d="M324.48 216.238a1.862 1.862 0 0 1-1.859 1.864 1.862 1.862 0 0 1 0-3.723c1.027 0 1.86.836 1.86 1.86zm0 0" fill="none" stroke-width=".12" stroke-linecap="round" stroke-linejoin="round" stroke="green" stroke-miterlimit="10"/><path d="M323.762 216.238a1.14 1.14 0 0 1-1.14 1.14c-.634 0-1.142-.507-1.142-1.14 0-.629.508-1.136 1.141-1.136.629 0 1.14.507 1.14 1.136" fill-rule="evenodd" fill="#fff"/><path d="M323.762 216.238a1.14 1.14 0 0 1-1.14 1.14c-.634 0-1.142-.507-1.142-1.14 0-.629.508-1.136 1.141-1.136.629 0 1.14.507 1.14 1.136zm0 0" fill="none" stroke-width=".06" stroke-linecap="square" stroke-linejoin="bevel" stroke="#000" stroke-miterlimit="10"/><path d="M295.68 216.238a1.862 1.862 0 0 1-1.86 1.864 1.862 1.862 0 0 1 0-3.723c1.028 0 1.86.836 1.86 1.86" fill-rule="evenodd" fill="green"/><path d="M295.68 216.238a1.862 1.862 0 0 1-1.86 1.864 1.862 1.862 0 0 1 0-3.723c1.028 0 1.86.836 1.86 1.86zm0 0" fill="none" stroke-width=".12" stroke-linecap="round" stroke-linejoin="round" stroke="green" stroke-miterlimit="10"/><path d="M294.96 216.238a1.14 1.14 0 1 1-2.278.003 1.14 1.14 0 0 1 2.279-.003" fill-rule="evenodd" fill="#fff"/><path d="M294.96 216.238a1.14 1.14 0 1 1-2.278.003 1.14 1.14 0 0 1 2.279-.003zm0 0" fill="none" stroke-width=".06" stroke-linecap="square" stroke-linejoin="bevel" stroke="#000" stroke-miterlimit="10"/><path d="M295.68 223.441a1.859 1.859 0 1 1-3.72 0c0-1.027.833-1.863 1.86-1.863 1.028 0 1.86.836 1.86 1.863" fill-rule="evenodd" fill="green"/><path d="M295.68 223.441a1.859 1.859 0 1 1-3.72 0c0-1.027.833-1.863 1.86-1.863 1.028 0 1.86.836 1.86 1.863zm0 0" fill="none" stroke-width=".12" stroke-linecap="round" stroke-linejoin="round" stroke="green" stroke-miterlimit="10"/><path d="M294.96 223.441c0 .63-.51 1.137-1.14 1.137a1.139 1.139 0 1 1 0-2.277c.63 0 1.14.512 1.14 1.14" fill-rule="evenodd" fill="#fff"/><path d="M294.96 223.441c0 .63-.51 1.137-1.14 1.137a1.139 1.139 0 1 1 0-2.277c.63 0 1.14.511 1.14 1.14zm0 0" fill="none" stroke-width=".06" stroke-linecap="square" stroke-linejoin="bevel" stroke="#000" stroke-miterlimit="10"/><path d="M324.48 223.441a1.859 1.859 0 1 1-3.718 0c0-1.027.832-1.863 1.86-1.863 1.026 0 1.858.836 1.858 1.863" fill-rule="evenodd" fill="green"/><path d="M324.48 223.441a1.859 1.859 0 1 1-3.718 0c0-1.027.832-1.863 1.86-1.863 1.026 0 1.858.836 1.858 1.863zm0 0" fill="none" stroke-width=".12" stroke-linecap="round" stroke-linejoin="round" stroke="green" stroke-miterlimit="10"/><path d="M323.762 223.441c0 .63-.512 1.137-1.14 1.137a1.14 1.14 0 1 1 1.14-1.137" fill-rule="evenodd" fill="#fff"/><path d="M323.762 223.441c0 .63-.512 1.137-1.14 1.137a1.14 1.14 0 1 1 1.14-1.137zm0 0" fill="none" stroke-width=".06" stroke-linecap="square" stroke-linejoin="bevel" stroke="#000" stroke-miterlimit="10"/><path d="M324.48 180.3a1.859 1.859 0 1 1-3.717.002 1.859 1.859 0 0 1 3.717-.001" fill-rule="evenodd" fill="green"/><path d="M324.48 180.3a1.859 1.859 0 1 1-3.717.002 1.859 1.859 0 0 1 3.717-.001zm0 0" fill="none" stroke-width=".12" stroke-linecap="round" stroke-linejoin="round" stroke="green" stroke-miterlimit="10"/><path d="M323.762 180.3a1.14 1.14 0 1 1-1.14-1.14c.628 0 1.14.512 1.14 1.14" fill-rule="evenodd" fill="#fff"/><path d="M323.762 180.3a1.14 1.14 0 1 1-1.14-1.14c.628 0 1.14.512 1.14 1.14zm0 0" fill="none" stroke-width=".06" stroke-linecap="square" stroke-linejoin="bevel" stroke="#000" stroke-miterlimit="10"/><path d="M324.48 209.102a1.859 1.859 0 1 1-3.718 0c0-1.028.832-1.864 1.86-1.864 1.026 0 1.858.836 1.858 1.864" fill-rule="evenodd" fill="green"/><path d="M324.48 209.102a1.859 1.859 0 1 1-3.718 0c0-1.028.832-1.864 1.86-1.864 1.026 0 1.858.836 1.858 1.864zm0 0" fill="none" stroke-width=".12" stroke-linecap="round" stroke-linejoin="round" stroke="green" stroke-miterlimit="10"/><path d="M323.762 209.102c0 .628-.512 1.136-1.14 1.136-.634 0-1.142-.508-1.142-1.136 0-.633.508-1.141 1.141-1.141.629 0 1.14.508 1.14 1.14" fill-rule="evenodd" fill="#fff"/><path d="M323.762 209.102c0 .628-.512 1.136-1.14 1.136-.634 0-1.142-.508-1.142-1.136 0-.633.508-1.141 1.141-1.141.629 0 1.14.508 1.14 1.14zm0 0" fill="none" stroke-width=".06" stroke-linecap="square" stroke-linejoin="bevel" stroke="#000" stroke-miterlimit="10"/><path d="M339.54 216.238a2.521 2.521 0 0 1-2.52 2.524 2.521 2.521 0 0 1 0-5.043 2.52 2.52 0 0 1 2.52 2.52" fill-rule="evenodd" fill="green"/><path d="M339.54 216.238a2.521 2.521 0 0 1-2.52 2.524 2.521 2.521 0 0 1 0-5.043 2.52 2.52 0 0 1 2.52 2.52zm0 0" fill="none" stroke-width=".12" stroke-linecap="round" stroke-linejoin="round" stroke="green" stroke-miterlimit="10"/><path d="M338.46 216.238a1.44 1.44 0 1 1-2.88.002 1.44 1.44 0 0 1 2.88-.002" fill-rule="evenodd" fill="#fff"/><path d="M338.46 216.238a1.44 1.44 0 1 1-2.88.002 1.44 1.44 0 0 1 2.88-.002zm0 0" fill="none" stroke-width=".06" stroke-linecap="square" stroke-linejoin="bevel" stroke="#000" stroke-miterlimit="10"/><path d="M339.54 209.102a2.52 2.52 0 1 1-5.042-.003 2.52 2.52 0 0 1 5.041.003" fill-rule="evenodd" fill="green"/><path d="M339.54 209.102a2.52 2.52 0 1 1-5.042-.003 2.52 2.52 0 0 1 5.041.003zm0 0" fill="none" stroke-width=".12" stroke-linecap="round" stroke-linejoin="round" stroke="green" stroke-miterlimit="10"/><path d="M338.46 209.102a1.442 1.442 0 0 1-2.883 0c.001-.797.65-1.442 1.443-1.442a1.44 1.44 0 0 1 1.44 1.442" fill-rule="evenodd" fill="#fff"/><path d="M338.46 209.102a1.442 1.442 0 0 1-2.883 0c.001-.797.65-1.442 1.443-1.442a1.44 1.44 0 0 1 1.44 1.442zm0 0" fill="none" stroke-width=".06" stroke-linecap="square" stroke-linejoin="bevel" stroke="#000" stroke-miterlimit="10"/><path d="M339.54 230.64a2.52 2.52 0 1 1-5.042-.002 2.52 2.52 0 0 1 5.041.003" fill-rule="evenodd" fill="green"/><path d="M339.54 230.64a2.52 2.52 0 1 1-5.042-.002 2.52 2.52 0 0 1 5.041.003zm0 0" fill="none" stroke-width=".12" stroke-linecap="round" stroke-linejoin="round" stroke="green" stroke-miterlimit="10"/><path d="M338.46 230.64a1.442 1.442 0 0 1-2.883 0c.001-.796.65-1.44 1.443-1.44a1.44 1.44 0 0 1 1.44 1.44" fill-rule="evenodd" fill="#fff"/><path d="M338.46 230.64a1.442 1.442 0 0 1-2.883 0c.001-.796.65-1.44 1.443-1.44a1.44 1.44 0 0 1 1.44 1.44zm0 0" fill="none" stroke-width=".06" stroke-linecap="square" stroke-linejoin="bevel" stroke="#000" stroke-miterlimit="10"/><path d="M339.54 237.84a2.52 2.52 0 0 1-5.04 0 2.52 2.52 0 0 1 5.04 0" fill-rule="evenodd" fill="green"/><path d="M339.54 237.84a2.52 2.52 0 0 1-5.04 0 2.52 2.52 0 0 1 5.04 0zm0 0" fill="none" stroke-width=".12" stroke-linecap="round" stroke-linejoin="round" stroke="green" stroke-miterlimit="10"/><path d="M338.46 237.84a1.44 1.44 0 1 1-2.88.002 1.44 1.44 0 0 1 2.88-.002" fill-rule="evenodd" fill="#fff"/><path d="M338.46 237.84a1.44 1.44 0 1 1-2.88.002 1.44 1.44 0 0 1 2.88-.002zm0 0" fill="none" stroke-width=".06" stroke-linecap="square" stroke-linejoin="bevel" stroke="#000" stroke-miterlimit="10"/><path d="M260.398 237.84a2.52 2.52 0 1 1-5.037-.002 2.52 2.52 0 0 1 5.037.002" fill-rule="evenodd" fill="green"/><path d="M260.398 237.84a2.52 2.52 0 1 1-5.037-.002 2.52 2.52 0 0 1 5.037.002zm0 0" fill="none" stroke-width=".12" stroke-linecap="round" stroke-linejoin="round" stroke="green" stroke-miterlimit="10"/><path d="M259.32 237.84a1.44 1.44 0 1 1-2.88.002 1.44 1.44 0 0 1 2.88-.002" fill-rule="evenodd" fill="#fff"/><path d="M259.32 237.84a1.44 1.44 0 1 1-2.88.002 1.44 1.44 0 0 1 2.88-.002zm0 0" fill="none" stroke-width=".06" stroke-linecap="square" stroke-linejoin="bevel" stroke="#000" stroke-miterlimit="10"/><path d="M270.54 237.84a1.859 1.859 0 1 1-3.719.001 1.859 1.859 0 0 1 3.718-.001" fill-rule="evenodd" fill="green"/><path d="M270.54 237.84a1.859 1.859 0 1 1-3.719.001 1.859 1.859 0 0 1 3.718-.001zm0 0" fill="none" stroke-width=".12" stroke-linecap="round" stroke-linejoin="round" stroke="green" stroke-miterlimit="10"/><path d="M269.82 237.84c0 .629-.511 1.14-1.14 1.14-.63 0-1.14-.511-1.14-1.14 0-.63.51-1.14 1.14-1.14.629 0 1.14.51 1.14 1.14" fill-rule="evenodd" fill="#fff"/><path d="M269.82 237.84c0 .629-.511 1.14-1.14 1.14-.63 0-1.14-.511-1.14-1.14 0-.63.51-1.14 1.14-1.14.629 0 1.14.51 1.14 1.14zm0 0" fill="none" stroke-width=".06" stroke-linecap="square" stroke-linejoin="bevel" stroke="#000" stroke-miterlimit="10"/><path d="M270.54 230.64a1.859 1.859 0 1 1-3.719.002 1.859 1.859 0 0 1 3.718-.001" fill-rule="evenodd" fill="green"/><path d="M270.54 230.64a1.859 1.859 0 1 1-3.719.002 1.859 1.859 0 0 1 3.718-.001zm0 0" fill="none" stroke-width=".12" stroke-linecap="round" stroke-linejoin="round" stroke="green" stroke-miterlimit="10"/><path d="M269.82 230.64c0 .63-.511 1.141-1.14 1.141-.63 0-1.14-.511-1.14-1.14 0-.63.51-1.141 1.14-1.141.629 0 1.14.512 1.14 1.14" fill-rule="evenodd" fill="#fff"/><path d="M269.82 230.64c0 .63-.511 1.141-1.14 1.141-.63 0-1.14-.511-1.14-1.14 0-.63.51-1.141 1.14-1.141.629 0 1.14.512 1.14 1.14zm0 0" fill="none" stroke-width=".06" stroke-linecap="square" stroke-linejoin="bevel" stroke="#000" stroke-miterlimit="10"/><path d="M274.621 181.262l-1.383 1.379h-1.918l-1.379-1.38v-1.921l1.38-1.38h1.917l1.383 1.38v1.922" fill="green"/><path d="M274.621 181.262l-1.383 1.379h-1.918l-1.379-1.38v-1.921l1.38-1.38h1.917l1.383 1.38zm0 0" fill="none" stroke-width=".12" stroke-linecap="round" stroke-linejoin="round" stroke="green" stroke-miterlimit="10"/><path d="M273.84 180.3a1.56 1.56 0 1 1-3.121-.003 1.56 1.56 0 0 1 3.12.004" fill-rule="evenodd" fill="#fff"/><path d="M273.84 180.3a1.56 1.56 0 1 1-3.121-.003 1.56 1.56 0 0 1 3.12.004zm0 0" fill="none" stroke-width=".06" stroke-linecap="square" stroke-linejoin="bevel" stroke="#000" stroke-miterlimit="10"/><path d="M274.621 195.66l-1.383 1.38h-1.918l-1.379-1.38v-1.922l1.38-1.379h1.917l1.383 1.38v1.921" fill="green"/><path d="M274.621 195.66l-1.383 1.38h-1.918l-1.379-1.38v-1.922l1.38-1.379h1.917l1.383 1.38zm0 0" fill="none" stroke-width=".12" stroke-linecap="round" stroke-linejoin="round" stroke="green" stroke-miterlimit="10"/><path d="M273.84 194.7a1.561 1.561 0 1 1-3.123.002 1.561 1.561 0 0 1 3.123-.003" fill-rule="evenodd" fill="#fff"/><path d="M273.84 194.7a1.561 1.561 0 1 1-3.123.002 1.561 1.561 0 0 1 3.123-.003zm0 0" fill="none" stroke-width=".06" stroke-linecap="square" stroke-linejoin="bevel" stroke="#000" stroke-miterlimit="10"/><path d="M288.96 195.66l-1.382 1.38h-1.918l-1.379-1.38v-1.922l1.38-1.379h1.917l1.383 1.38v1.921" fill="green"/><path d="M288.96 195.66l-1.382 1.38h-1.918l-1.379-1.38v-1.922l1.38-1.379h1.917l1.383 1.38zm0 0" fill="none" stroke-width=".12" stroke-linecap="round" stroke-linejoin="round" stroke="green" stroke-miterlimit="10"/><path d="M288.18 194.7a1.561 1.561 0 1 1-3.123.002 1.561 1.561 0 0 1 3.123-.003" fill-rule="evenodd" fill="#fff"/><path d="M288.18 194.7a1.561 1.561 0 1 1-3.123.002 1.561 1.561 0 0 1 3.123-.003zm0 0" fill="none" stroke-width=".06" stroke-linecap="square" stroke-linejoin="bevel" stroke="#000" stroke-miterlimit="10"/><path d="M310.078 230.64a1.859 1.859 0 1 1-3.717.002 1.859 1.859 0 0 1 3.717-.001" fill-rule="evenodd" fill="green"/><path d="M310.078 230.64a1.859 1.859 0 1 1-3.718.002 1.859 1.859 0 0 1 3.718-.001zm0 0" fill="none" stroke-width=".12" stroke-linecap="round" stroke-linejoin="round" stroke="green" stroke-miterlimit="10"/><path d="M309.36 230.64a1.14 1.14 0 1 1-2.282 0 1.14 1.14 0 1 1 2.281 0" fill-rule="evenodd" fill="#fff"/><path d="M309.36 230.64a1.14 1.14 0 1 1-2.282 0 1.14 1.14 0 1 1 2.281 0zm0 0" fill="none" stroke-width=".06" stroke-linecap="square" stroke-linejoin="bevel" stroke="#000" stroke-miterlimit="10"/><path d="M324.48 230.64a1.859 1.859 0 1 1-3.717.002 1.859 1.859 0 0 1 3.717-.001" fill-rule="evenodd" fill="green"/><path d="M324.48 230.64a1.859 1.859 0 1 1-3.717.002 1.859 1.859 0 0 1 3.717-.001zm0 0" fill="none" stroke-width=".12" stroke-linecap="round" stroke-linejoin="round" stroke="green" stroke-miterlimit="10"/><path d="M323.762 230.64a1.14 1.14 0 1 1-1.14-1.14c.628 0 1.14.512 1.14 1.14" fill-rule="evenodd" fill="#fff"/><path d="M323.762 230.64a1.14 1.14 0 1 1-1.14-1.14c.628 0 1.14.512 1.14 1.14zm0 0" fill="none" stroke-width=".06" stroke-linecap="square" stroke-linejoin="bevel" stroke="#000" stroke-miterlimit="10"/><path d="M309.96 201.898a1.74 1.74 0 1 1 0 0" fill-rule="evenodd" fill="green"/><path d="M309.96 201.898a1.74 1.74 0 1 1 0 0zm0 0" fill="none" stroke-width=".12" stroke-linecap="round" stroke-linejoin="round" stroke="green" stroke-miterlimit="10"/><path d="M309.238 201.898c0 .567-.457 1.024-1.02 1.024a1.021 1.021 0 0 1 0-2.043c.563 0 1.02.457 1.02 1.02" fill-rule="evenodd" fill="#fff"/><path d="M309.238 201.898c0 .567-.457 1.024-1.02 1.024a1.021 1.021 0 0 1 0-2.043c.563 0 1.02.457 1.02 1.02zm0 0" fill="none" stroke-width=".06" stroke-linecap="square" stroke-linejoin="bevel" stroke="#000" stroke-miterlimit="10"/><path d="M313.68 203.64h3.48v-3.48h-3.48zm0 0" fill="green" stroke-width=".12" stroke-linecap="round" stroke-linejoin="round" stroke="green" stroke-miterlimit="10"/><path d="M316.441 201.898a1.021 1.021 0 1 1-2.042.005 1.021 1.021 0 0 1 2.042-.005" fill-rule="evenodd" fill="#fff"/><path d="M316.441 201.898a1.021 1.021 0 1 1-2.042.005 1.021 1.021 0 0 1 2.042-.005zm0 0" fill="none" stroke-width=".06" stroke-linecap="square" stroke-linejoin="bevel" stroke="#000" stroke-miterlimit="10"/><path d="M310.078 209.102a1.859 1.859 0 1 1-3.719 0c0-1.028.832-1.864 1.86-1.864 1.027 0 1.86.836 1.86 1.864" fill-rule="evenodd" fill="green"/><path d="M310.078 209.102a1.859 1.859 0 1 1-3.719 0c0-1.028.832-1.864 1.86-1.864 1.027 0 1.86.836 1.86 1.864zm0 0" fill="none" stroke-width=".12" stroke-linecap="round" stroke-linejoin="round" stroke="green" stroke-miterlimit="10"/><path d="M309.36 209.102c0 .628-.508 1.136-1.141 1.136a1.139 1.139 0 1 1 0-2.277c.633 0 1.14.508 1.14 1.14" fill-rule="evenodd" fill="#fff"/><path d="M309.36 209.102c0 .628-.508 1.136-1.141 1.136a1.139 1.139 0 1 1 0-2.277c.633 0 1.14.508 1.14 1.14zm0 0" fill="none" stroke-width=".06" stroke-linecap="square" stroke-linejoin="bevel" stroke="#000" stroke-miterlimit="10"/><path d="M317.281 209.102a1.861 1.861 0 1 1-3.722-.004 1.861 1.861 0 0 1 3.722.004" fill-rule="evenodd" fill="green"/><path d="M317.281 209.102a1.861 1.861 0 1 1-3.722-.004 1.861 1.861 0 0 1 3.722.004zm0 0" fill="none" stroke-width=".12" stroke-linecap="round" stroke-linejoin="round" stroke="green" stroke-miterlimit="10"/><path d="M316.559 209.102c0 .628-.508 1.136-1.137 1.136-.633 0-1.14-.508-1.14-1.136 0-.633.507-1.141 1.14-1.141.629 0 1.137.508 1.137 1.14" fill-rule="evenodd" fill="#fff"/><path d="M316.559 209.102c0 .628-.508 1.136-1.137 1.136-.633 0-1.14-.508-1.14-1.136 0-.633.507-1.141 1.14-1.141.629 0 1.137.508 1.137 1.14zm0 0" fill="none" stroke-width=".06" stroke-linecap="square" stroke-linejoin="bevel" stroke="#000" stroke-miterlimit="10"/><path d="M274.14 223.441a1.859 1.859 0 1 1-3.718 0c0-1.027.832-1.863 1.86-1.863 1.027 0 1.859.836 1.859 1.863" fill-rule="evenodd" fill="green"/><path d="M274.14 223.441a1.859 1.859 0 1 1-3.718 0c0-1.027.832-1.863 1.86-1.863 1.027 0 1.859.836 1.859 1.863zm0 0" fill="none" stroke-width=".12" stroke-linecap="round" stroke-linejoin="round" stroke="green" stroke-miterlimit="10"/><path d="M273.422 223.441c0 .63-.512 1.137-1.14 1.137a1.14 1.14 0 1 1 1.14-1.137" fill-rule="evenodd" fill="#fff"/><path d="M273.422 223.441c0 .63-.512 1.137-1.14 1.137a1.14 1.14 0 1 1 1.14-1.137zm0 0" fill="none" stroke-width=".06" stroke-linecap="square" stroke-linejoin="bevel" stroke="#000" stroke-miterlimit="10"/><path d="M288.48 223.441a1.859 1.859 0 1 1-3.718 0c0-1.027.832-1.863 1.86-1.863 1.026 0 1.858.836 1.858 1.863" fill-rule="evenodd" fill="green"/><path d="M288.48 223.441a1.859 1.859 0 1 1-3.718 0c0-1.027.832-1.863 1.86-1.863 1.026 0 1.858.836 1.858 1.863zm0 0" fill="none" stroke-width=".12" stroke-linecap="round" stroke-linejoin="round" stroke="green" stroke-miterlimit="10"/><path d="M287.762 223.441c0 .63-.512 1.137-1.14 1.137a1.14 1.14 0 1 1 1.14-1.137" fill-rule="evenodd" fill="#fff"/><path d="M287.762 223.441c0 .63-.512 1.137-1.14 1.137a1.14 1.14 0 1 1 1.14-1.137zm0 0" fill="none" stroke-width=".06" stroke-linecap="square" stroke-linejoin="bevel" stroke="#000" stroke-miterlimit="10"/><path d="M281.34 209.102a1.859 1.859 0 1 1-3.719 0c0-1.028.832-1.864 1.86-1.864 1.027 0 1.859.836 1.859 1.864" fill-rule="evenodd" fill="green"/><path d="M281.34 209.102a1.859 1.859 0 1 1-3.719 0c0-1.028.832-1.864 1.86-1.864 1.027 0 1.859.836 1.859 1.864zm0 0" fill="none" stroke-width=".12" stroke-linecap="round" stroke-linejoin="round" stroke="green" stroke-miterlimit="10"/><path d="M280.621 209.102c0 .628-.512 1.136-1.14 1.136a1.139 1.139 0 1 1 0-2.277c.628 0 1.14.508 1.14 1.14" fill-rule="evenodd" fill="#fff"/><path d="M280.621 209.102c0 .628-.512 1.136-1.14 1.136a1.139 1.139 0 1 1 0-2.277c.628 0 1.14.508 1.14 1.14zm0 0" fill="none" stroke-width=".06" stroke-linecap="square" stroke-linejoin="bevel" stroke="#000" stroke-miterlimit="10"/><path d="M266.941 209.102a1.862 1.862 0 0 1-3.722 0c0-1.028.836-1.864 1.86-1.864 1.026 0 1.862.836 1.862 1.864" fill-rule="evenodd" fill="green"/><path d="M266.941 209.102a1.862 1.862 0 0 1-3.722 0c0-1.028.836-1.864 1.86-1.864 1.026 0 1.862.836 1.862 1.864zm0 0" fill="none" stroke-width=".12" stroke-linecap="round" stroke-linejoin="round" stroke="green" stroke-miterlimit="10"/><path d="M266.219 209.102c0 .628-.508 1.136-1.14 1.136a1.135 1.135 0 0 1-1.138-1.136c0-.633.508-1.141 1.137-1.141.633 0 1.14.508 1.14 1.14" fill-rule="evenodd" fill="#fff"/><path d="M266.219 209.102c0 .628-.508 1.136-1.14 1.136a1.135 1.135 0 0 1-1.138-1.136c0-.633.508-1.141 1.137-1.141.633 0 1.14.508 1.14 1.14zm0 0" fill="none" stroke-width=".06" stroke-linecap="square" stroke-linejoin="bevel" stroke="#000" stroke-miterlimit="10"/><path d="M310.078 237.84a1.859 1.859 0 1 1-3.717.001 1.859 1.859 0 0 1 3.717-.001" fill-rule="evenodd" fill="green"/><path d="M310.078 237.84a1.859 1.859 0 1 1-3.718.001 1.859 1.859 0 0 1 3.718-.001zm0 0" fill="none" stroke-width=".12" stroke-linecap="round" stroke-linejoin="round" stroke="green" stroke-miterlimit="10"/><path d="M309.36 237.84a1.14 1.14 0 1 1-2.282 0 1.14 1.14 0 1 1 2.281 0" fill-rule="evenodd" fill="#fff"/><path d="M309.36 237.84a1.14 1.14 0 1 1-2.282 0 1.14 1.14 0 1 1 2.281 0zm0 0" fill="none" stroke-width=".06" stroke-linecap="square" stroke-linejoin="bevel" stroke="#000" stroke-miterlimit="10"/><path d="M281.34 237.84a1.859 1.859 0 1 1-3.718.001 1.859 1.859 0 0 1 3.718-.001" fill-rule="evenodd" fill="green"/><path d="M281.34 237.84a1.859 1.859 0 1 1-3.718.001 1.859 1.859 0 0 1 3.718-.001zm0 0" fill="none" stroke-width=".12" stroke-linecap="round" stroke-linejoin="round" stroke="green" stroke-miterlimit="10"/><path d="M280.621 237.84c0 .629-.512 1.14-1.14 1.14-.63 0-1.141-.511-1.141-1.14 0-.63.512-1.14 1.14-1.14.63 0 1.141.51 1.141 1.14" fill-rule="evenodd" fill="#fff"/><path d="M280.621 237.84c0 .629-.512 1.14-1.14 1.14-.63 0-1.141-.511-1.141-1.14 0-.63.512-1.14 1.14-1.14.63 0 1.141.51 1.141 1.14zm0 0" fill="none" stroke-width=".06" stroke-linecap="square" stroke-linejoin="bevel" stroke="#000" stroke-miterlimit="10"/><path d="M292.078 187.5a1.859 1.859 0 1 1-3.717.001 1.859 1.859 0 0 1 3.717-.001" fill-rule="evenodd" fill="green"/><path d="M292.078 187.5a1.859 1.859 0 1 1-3.718.001 1.859 1.859 0 0 1 3.718-.001zm0 0" fill="none" stroke-width=".12" stroke-linecap="round" stroke-linejoin="round" stroke="green" stroke-miterlimit="10"/><path d="M291.36 187.5a1.14 1.14 0 1 1-2.282 0 1.14 1.14 0 1 1 2.281 0" fill-rule="evenodd" fill="#fff"/><path d="M291.36 187.5a1.14 1.14 0 1 1-2.282 0 1.14 1.14 0 1 1 2.281 0zm0 0" fill="none" stroke-width=".06" stroke-linecap="square" stroke-linejoin="bevel" stroke="#000" stroke-miterlimit="10"/><path d="M306.48 187.5a1.859 1.859 0 1 1-3.717.001 1.859 1.859 0 0 1 3.717-.001" fill-rule="evenodd" fill="green"/><path d="M306.48 187.5a1.859 1.859 0 1 1-3.717.001 1.859 1.859 0 0 1 3.717-.001zm0 0" fill="none" stroke-width=".12" stroke-linecap="round" stroke-linejoin="round" stroke="green" stroke-miterlimit="10"/><path d="M305.762 187.5a1.14 1.14 0 1 1-1.14-1.14c.628 0 1.14.511 1.14 1.14" fill-rule="evenodd" fill="#fff"/><path d="M305.762 187.5a1.14 1.14 0 1 1-1.14-1.14c.628 0 1.14.511 1.14 1.14zm0 0" fill="none" stroke-width=".06" stroke-linecap="square" stroke-linejoin="bevel" stroke="#000" stroke-miterlimit="10"/><path d="M302.879 209.879l-1.078 1.082h-1.563l-1.078-1.082v-1.559l1.078-1.082h1.563l1.078 1.082v1.559" fill="green"/><path d="M302.879 209.879l-1.078 1.082h-1.563l-1.078-1.082v-1.559l1.078-1.082h1.563l1.078 1.082zm0 0" fill="none" stroke-width=".12" stroke-linecap="round" stroke-linejoin="round" stroke="green" stroke-miterlimit="10"/><path d="M302.16 209.102c0 .628-.512 1.136-1.14 1.136a1.139 1.139 0 1 1 0-2.277c.628 0 1.14.508 1.14 1.14" fill-rule="evenodd" fill="#fff"/><path d="M302.16 209.102c0 .628-.512 1.136-1.14 1.136a1.139 1.139 0 1 1 0-2.277c.628 0 1.14.508 1.14 1.14zm0 0" fill="none" stroke-width=".06" stroke-linecap="square" stroke-linejoin="bevel" stroke="#000" stroke-miterlimit="10"/><path d="M288.48 209.879l-1.082 1.082h-1.558l-1.078-1.082v-1.559l1.078-1.082h1.558l1.082 1.082v1.559" fill="green"/><path d="M288.48 209.879l-1.082 1.082h-1.558l-1.078-1.082v-1.559l1.078-1.082h1.558l1.082 1.082zm0 0" fill="none" stroke-width=".12" stroke-linecap="round" stroke-linejoin="round" stroke="green" stroke-miterlimit="10"/><path d="M287.762 209.102c0 .628-.512 1.136-1.14 1.136-.634 0-1.142-.508-1.142-1.136 0-.633.508-1.141 1.141-1.141.629 0 1.14.508 1.14 1.14" fill-rule="evenodd" fill="#fff"/><path d="M287.762 209.102c0 .628-.512 1.136-1.14 1.136-.634 0-1.142-.508-1.142-1.136 0-.633.508-1.141 1.141-1.141.629 0 1.14.508 1.14 1.14zm0 0" fill="none" stroke-width=".06" stroke-linecap="square" stroke-linejoin="bevel" stroke="#000" stroke-miterlimit="10"/><path d="M295.68 209.879l-1.078 1.082h-1.563l-1.078-1.082v-1.559l1.078-1.082h1.563l1.078 1.082v1.559" fill="green"/><path d="M295.68 209.879l-1.078 1.082h-1.563l-1.078-1.082v-1.559l1.078-1.082h1.563l1.078 1.082zm0 0" fill="none" stroke-width=".12" stroke-linecap="round" stroke-linejoin="round" stroke="green" stroke-miterlimit="10"/><path d="M294.96 209.102c0 .628-.51 1.136-1.14 1.136a1.139 1.139 0 1 1 0-2.277c.63 0 1.14.508 1.14 1.14" fill-rule="evenodd" fill="#fff"/><path d="M294.96 209.102c0 .628-.51 1.136-1.14 1.136a1.139 1.139 0 1 1 0-2.277c.63 0 1.14.508 1.14 1.14zm0 0" fill="none" stroke-width=".06" stroke-linecap="square" stroke-linejoin="bevel" stroke="#000" stroke-miterlimit="10"/><path d="M324.48 216.238a1.862 1.862 0 0 1-1.859 1.864 1.862 1.862 0 0 1 0-3.723c1.027 0 1.86.836 1.86 1.86" fill-rule="evenodd" fill="green"/><path d="M324.48 216.238a1.862 1.862 0 0 1-1.859 1.864 1.862 1.862 0 0 1 0-3.723c1.027 0 1.86.836 1.86 1.86zm0 0" fill="none" stroke-width=".12" stroke-linecap="round" stroke-linejoin="round" stroke="green" stroke-miterlimit="10"/><path d="M323.762 216.238a1.14 1.14 0 0 1-1.14 1.14c-.634 0-1.142-.507-1.142-1.14 0-.629.508-1.136 1.141-1.136.629 0 1.14.507 1.14 1.136" fill-rule="evenodd" fill="#fff"/><path d="M323.762 216.238a1.14 1.14 0 0 1-1.14 1.14c-.634 0-1.142-.507-1.142-1.14 0-.629.508-1.136 1.141-1.136.629 0 1.14.507 1.14 1.136zm0 0" fill="none" stroke-width=".06" stroke-linecap="square" stroke-linejoin="bevel" stroke="#000" stroke-miterlimit="10"/><path d="M295.68 216.238a1.862 1.862 0 0 1-1.86 1.864 1.862 1.862 0 0 1 0-3.723c1.028 0 1.86.836 1.86 1.86" fill-rule="evenodd" fill="green"/><path d="M295.68 216.238a1.862 1.862 0 0 1-1.86 1.864 1.862 1.862 0 0 1 0-3.723c1.028 0 1.86.836 1.86 1.86zm0 0" fill="none" stroke-width=".12" stroke-linecap="round" stroke-linejoin="round" stroke="green" stroke-miterlimit="10"/><path d="M294.96 216.238a1.14 1.14 0 1 1-2.278.003 1.14 1.14 0 0 1 2.279-.003" fill-rule="evenodd" fill="#fff"/><path d="M294.96 216.238a1.14 1.14 0 1 1-2.278.003 1.14 1.14 0 0 1 2.279-.003zm0 0" fill="none" stroke-width=".06" stroke-linecap="square" stroke-linejoin="bevel" stroke="#000" stroke-miterlimit="10"/><path d="M295.68 223.441a1.859 1.859 0 1 1-3.72 0c0-1.027.833-1.863 1.86-1.863 1.028 0 1.86.836 1.86 1.863" fill-rule="evenodd" fill="green"/><path d="M295.68 223.441a1.859 1.859 0 1 1-3.72 0c0-1.027.833-1.863 1.86-1.863 1.028 0 1.86.836 1.86 1.863zm0 0" fill="none" stroke-width=".12" stroke-linecap="round" stroke-linejoin="round" stroke="green" stroke-miterlimit="10"/><path d="M294.96 223.441c0 .63-.51 1.137-1.14 1.137a1.139 1.139 0 1 1 0-2.277c.63 0 1.14.512 1.14 1.14" fill-rule="evenodd" fill="#fff"/><path d="M294.96 223.441c0 .63-.51 1.137-1.14 1.137a1.139 1.139 0 1 1 0-2.277c.63 0 1.14.511 1.14 1.14zm0 0" fill="none" stroke-width=".06" stroke-linecap="square" stroke-linejoin="bevel" stroke="#000" stroke-miterlimit="10"/><path d="M324.48 223.441a1.859 1.859 0 1 1-3.718 0c0-1.027.832-1.863 1.86-1.863 1.026 0 1.858.836 1.858 1.863" fill-rule="evenodd" fill="green"/><path d="M324.48 223.441a1.859 1.859 0 1 1-3.718 0c0-1.027.832-1.863 1.86-1.863 1.026 0 1.858.836 1.858 1.863zm0 0" fill="none" stroke-width=".12" stroke-linecap="round" stroke-linejoin="round" stroke="green" stroke-miterlimit="10"/><path d="M323.762 223.441c0 .63-.512 1.137-1.14 1.137a1.14 1.14 0 1 1 1.14-1.137" fill-rule="evenodd" fill="#fff"/><path d="M323.762 223.441c0 .63-.512 1.137-1.14 1.137a1.14 1.14 0 1 1 1.14-1.137zm0 0" fill="none" stroke-width=".06" stroke-linecap="square" stroke-linejoin="bevel" stroke="#000" stroke-miterlimit="10"/><path d="M324.48 180.3a1.859 1.859 0 1 1-3.717.002 1.859 1.859 0 0 1 3.717-.001" fill-rule="evenodd" fill="green"/><path d="M324.48 180.3a1.859 1.859 0 1 1-3.717.002 1.859 1.859 0 0 1 3.717-.001zm0 0" fill="none" stroke-width=".12" stroke-linecap="round" stroke-linejoin="round" stroke="green" stroke-miterlimit="10"/><path d="M323.762 180.3a1.14 1.14 0 1 1-1.14-1.14c.628 0 1.14.512 1.14 1.14" fill-rule="evenodd" fill="#fff"/><path d="M323.762 180.3a1.14 1.14 0 1 1-1.14-1.14c.628 0 1.14.512 1.14 1.14zm0 0" fill="none" stroke-width=".06" stroke-linecap="square" stroke-linejoin="bevel" stroke="#000" stroke-miterlimit="10"/><path d="M324.48 209.102a1.859 1.859 0 1 1-3.718 0c0-1.028.832-1.864 1.86-1.864 1.026 0 1.858.836 1.858 1.864" fill-rule="evenodd" fill="green"/><path d="M324.48 209.102a1.859 1.859 0 1 1-3.718 0c0-1.028.832-1.864 1.86-1.864 1.026 0 1.858.836 1.858 1.864zm0 0" fill="none" stroke-width=".12" stroke-linecap="round" stroke-linejoin="round" stroke="green" stroke-miterlimit="10"/><path d="M323.762 209.102c0 .628-.512 1.136-1.14 1.136-.634 0-1.142-.508-1.142-1.136 0-.633.508-1.141 1.141-1.141.629 0 1.14.508 1.14 1.14" fill-rule="evenodd" fill="#fff"/><path d="M323.762 209.102c0 .628-.512 1.136-1.14 1.136-.634 0-1.142-.508-1.142-1.136 0-.633.508-1.141 1.141-1.141.629 0 1.14.508 1.14 1.14zm0 0" fill="none" stroke-width=".06" stroke-linecap="square" stroke-linejoin="bevel" stroke="#000" stroke-miterlimit="10"/><path d="M339.54 216.238a2.521 2.521 0 0 1-2.52 2.524 2.521 2.521 0 0 1 0-5.043 2.52 2.52 0 0 1 2.52 2.52" fill-rule="evenodd" fill="green"/><path d="M339.54 216.238a2.521 2.521 0 0 1-2.52 2.524 2.521 2.521 0 0 1 0-5.043 2.52 2.52 0 0 1 2.52 2.52zm0 0" fill="none" stroke-width=".12" stroke-linecap="round" stroke-linejoin="round" stroke="green" stroke-miterlimit="10"/><path d="M338.46 216.238a1.44 1.44 0 1 1-2.88.002 1.44 1.44 0 0 1 2.88-.002" fill-rule="evenodd" fill="#fff"/><path d="M338.46 216.238a1.44 1.44 0 1 1-2.88.002 1.44 1.44 0 0 1 2.88-.002zm0 0" fill="none" stroke-width=".06" stroke-linecap="square" stroke-linejoin="bevel" stroke="#000" stroke-miterlimit="10"/><path d="M341.102 211.379v-1.02M340.559 210.84h1.082M341.64 209.82l.239-.3M341.879 209.52v-.54M341.879 208.98l-.238-.242M341.64 208.738h-1.081M340.559 208.738l-.239.242M340.32 208.98v.54M340.32 209.52l.239.3M340.559 209.82h.3M340.86 209.82l.242-.3M341.102 209.52v-.782M340.32 208.2h1.02M341.34 208.2l.539-.54M341.879 207.66l-.54-.48M341.34 207.18h-1.02M341.879 232.98h-1.02M340.86 232.98l-.54-.539M340.32 232.441l.54-.543M340.86 231.898h1.019M341.102 232.98v-1.082M341.879 231.36h-1.559M340.32 231.36v-1.02M341.102 231.36v-.54M341.102 229.8v-1.081M340.559 229.262h1.082M341.879 240.18h-1.02M340.86 240.18l-.54-.54M340.32 239.64l.54-.538M340.86 239.102h1.019M341.102 240.18v-1.078M341.879 238.559h-1.559M340.32 238.559v-1.02M341.102 238.559v-.54M341.102 237v-1.078M254.578 240.96H253.5M253.5 240.96l-.54-.538M252.96 240.422l.54-.543M253.5 239.879h1.078M253.8 240.96v-1.081M254.578 239.34h-1.617M252.96 239.34l1.618-1.02M254.578 238.32h-1.617M254.578 237.238h-1.617M252.96 237.781V236.7M253.5 236.16l-.54-.48M252.96 235.68h1.618M254.578 236.16v-1.02" fill="none" stroke-width=".18000000000000002" stroke-linecap="round" stroke-linejoin="round" stroke="#505050" stroke-miterlimit="10"/><path d="M270.48 231.719l-.18-.48-.241-.419-.418-.3-.48-.18-.481-.059M270.48 236.762v-5.043M268.68 238.2h.48l.48-.18.419-.36.242-.422.18-.476" fill="none" stroke-width=".36000000000000004" stroke-linecap="round" stroke-linejoin="round" stroke="#505050" stroke-miterlimit="10"/><path d="M266.879 236.762l.121.476.3.422.36.36.48.18h.54M266.879 231.719v5.043M268.68 230.281l-.54.059-.48.18-.36.3-.3.418-.121.48" fill="none" stroke-width=".36000000000000004" stroke-linecap="round" stroke-linejoin="round" stroke="#505050" stroke-miterlimit="10"/><path d="M267.602 234.059h2.16v-.48h-2.16zm0 0M267.602 234.96h2.16v-.48h-2.16zm0 0" fill="#505050" stroke-width=".12" stroke-linecap="round" stroke-linejoin="round" stroke="#505050" stroke-miterlimit="10"/><path d="M272.16 198.48l-1.86-1.859M274.262 196.68l-2.403 2.398M271.86 199.078l.902.902M272.762 199.98l1.078.122M273.84 200.102l1.082.058M274.922 200.16l2.398-2.398M269.102 189.781l-2.282 2.278M266.82 192.059l.059 1.082M266.879 193.14l.062 1.02M266.941 194.16l.957.961M267.898 195.121l2.403-2.402M268.32 194.64l1.98 1.981M281.219 190.379l-4.68-4.68M282.422 189.238l-4.684-4.68M269.46 193.559l3.9 3.902M282.96 187.5a3.48 3.48 0 1 1-6.96 0 3.48 3.48 0 0 1 6.96 0zm0 0" fill="none" stroke-width=".36000000000000004" stroke-linecap="round" stroke-linejoin="round" stroke="#505050" stroke-miterlimit="10"/><path d="M267.54 192.602l.12-.422.36-.36.421-.12.48.12.298.36.12.422-.12.476-.297.3-.48.122-.422-.121-.36-.3-.12-.477h.358l.122-.243.18-.238.241-.062.297.062.184.238.058.243-.058.296-.184.18-.297.063-.242-.063-.18-.18-.12-.296h-.36" fill-rule="evenodd" fill="#505050"/><path d="M267.54 192.602l.12-.422.36-.36.421-.12.48.12.298.36.12.422-.12.476-.297.3-.48.122-.422-.121-.36-.3-.12-.477h.358l.122-.243.18-.238.241-.062.297.062.184.238.058.243-.058.296-.184.18-.297.063-.242-.063-.18-.18-.12-.296zm0 0" fill="none" stroke-width=".12" stroke-linecap="round" stroke-linejoin="round" stroke="#505050" stroke-miterlimit="10"/><path d="M273.48 198.54l.122-.419.296-.36.48-.12.423.12.36.36.12.418-.12.48-.36.301-.422.121-.48-.12-.297-.301-.122-.48h.36l.058-.24.18-.241.3-.059.243.059.18.242.12.238-.12.3-.18.18-.242.06-.3-.06-.18-.18-.06-.3h-.359" fill-rule="evenodd" fill="#505050"/><path d="M273.48 198.54l.122-.419.296-.36.48-.12.423.12.36.36.12.418-.12.48-.36.301-.422.121-.48-.12-.297-.301-.122-.48h.36l.058-.24.18-.241.3-.059.243.059.18.242.12.238-.12.3-.18.18-.242.06-.3-.06-.18-.18-.06-.3zm0 0" fill="none" stroke-width=".12" stroke-linecap="round" stroke-linejoin="round" stroke="#505050" stroke-miterlimit="10"/><path d="M289.86 187.5a10.376 10.376 0 0 1-10.38 10.379 10.376 10.376 0 0 1-10.378-10.379 10.376 10.376 0 0 1 10.378-10.379 10.376 10.376 0 0 1 10.38 10.379zm0 0" fill="none" stroke-width=".36000000000000004" stroke-linecap="round" stroke-linejoin="round" stroke="#505050" stroke-miterlimit="10"/><path d="M289.078 187.5c0 5.3-4.297 9.602-9.598 9.602-5.3 0-9.601-4.301-9.601-9.602 0-5.3 4.3-9.602 9.601-9.602 5.301 0 9.598 4.301 9.598 9.602zm0 0M317.941 232.441l.54-.062.539-.3.359-.36.242-.48.117-.598M312.898 232.441h5.043M311.102 230.64l.117.598.242.48.36.36.538.3.54.063" fill="none" stroke-width=".36000000000000004" stroke-linecap="round" stroke-linejoin="round" stroke="#505050" stroke-miterlimit="10"/><path d="M312.898 228.84l-.539.12-.539.24-.36.421-.241.48-.117.54M317.941 228.84h-5.043M319.738 230.64l-.117-.538-.242-.48-.36-.423-.539-.238-.539-.121" fill="none" stroke-width=".36000000000000004" stroke-linecap="round" stroke-linejoin="round" stroke="#505050" stroke-miterlimit="10"/><path d="M315.781 232.078h.719V229.2h-.719zm0 0M314.34 232.078h.719V229.2h-.72zm0 0" fill="#505050" stroke-width=".12" stroke-linecap="round" stroke-linejoin="round" stroke="#505050" stroke-miterlimit="10"/><path d="M317.941 232.441l.54-.062.539-.3.359-.36.242-.48.117-.598" fill="none" stroke-width=".36000000000000004" stroke-linecap="round" stroke-linejoin="round" stroke="#505050" stroke-miterlimit="10"/><path d="M315.238 205.5h-.539M314.7 204.96v.54M314.7 205.5h-.54M314.7 205.5v.54M317.578 201.898a5.759 5.759 0 1 1-11.52 0 5.761 5.761 0 0 1 5.762-5.757 5.758 5.758 0 0 1 5.758 5.757zm0 0" fill="none" stroke-width=".48" stroke-linecap="round" stroke-linejoin="round" stroke="#505050" stroke-miterlimit="10"/><path d="M310.379 204.18h.723v-4.559h-.723zm0 0" fill="#505050" stroke-width=".12" stroke-linecap="round" stroke-linejoin="round" stroke="#505050" stroke-miterlimit="10"/><path d="M314.34 210.898l.48-.18.418-.238.364-.421.18-.48v-.477M309.3 210.898h5.04M307.86 209.102l.062.476.18.48.296.422.422.239.48.18M309.3 207.3l-.48.122-.422.297-.296.36-.18.48-.063.543M314.34 207.3h-5.04M315.781 209.102v-.543l-.18-.48-.363-.36-.418-.297-.48-.121" fill="none" stroke-width=".36000000000000004" stroke-linecap="round" stroke-linejoin="round" stroke="#505050" stroke-miterlimit="10"/><path d="M312.059 210.18h.48v-2.16h-.48zm0 0M311.16 210.18h.48v-2.16h-.48zm0 0" fill="#505050" stroke-width=".12" stroke-linecap="round" stroke-linejoin="round" stroke="#505050" stroke-miterlimit="10"/><path d="M282 225.238l.54-.058.48-.239.421-.421.239-.48.058-.599M276.96 225.238H282M275.16 223.441l.059.598.242.48.418.422.48.239.602.058M276.96 221.64l-.6.122-.481.238-.418.422-.242.476-.059.543M282 221.64h-5.04M283.738 223.441l-.058-.543-.239-.476-.421-.422-.48-.238-.54-.121" fill="none" stroke-width=".36000000000000004" stroke-linecap="round" stroke-linejoin="round" stroke="#505050" stroke-miterlimit="10"/><path d="M279.84 224.879h.719V222h-.72zm0 0M278.398 224.879h.723V222h-.723zm0 0" fill="#505050" stroke-width=".12" stroke-linecap="round" stroke-linejoin="round" stroke="#505050" stroke-miterlimit="10"/><path d="M282 225.238l.54-.058.48-.239.421-.421.239-.48.058-.599M267.238 203.7l-1.078.062-1.02.36-.902.48-.84.66-.66.84-.476.898-.301 1.02-.121 1.082M261.84 209.102l.12 1.02.302 1.019.476.96.66.778.84.66.903.54 1.02.3 1.077.121M269.762 203.7h-1.024l-.957.241-.902.418-.777.54-.723.722-.54.84-.3.898-.18 1.02M264.36 208.379v1.082l.3 1.14.48 1.02.66.899.778.78.961.598 1.082.364 1.14.238M272.281 203.7l-1.082.062-1.02.36-.898.48-.84.66-.66.84-.48.898-.36 1.02-.062 1.082M266.879 209.102l.062 1.02.36 1.019.48.96.66.778.84.66.899.54 1.02.3 1.081.121M274.8 203.7l-1.081.062-1.02.36-.898.48-.84.66-.66.84-.48.898-.36 1.02-.063 1.082M269.398 209.102l.063 1.02.36 1.019.48.96.66.778.84.66.898.54 1.02.3 1.082.121M280.2 209.102l-.122-1.082-.297-1.02-.543-.898-.66-.84-.777-.66-.961-.48-1.02-.36-1.02-.063M288.059 237.84l.12.781.243.777.476.66.543.602.66.418.778.3.781.063M291.66 237.84l.121.781.239.777.421.66.598.602.66.418.781.3.782.063M295.262 237.84l.117.781.242.777.418.66.602.602.66.418.777.3.781.063M284.46 237.84l.118.781.242.777.48.66.54.602.66.418.781.3.778.063M298.86 241.441v-3.601M302.46 237.84h5.759M279.48 237.84h4.258M302.46 192.898l1.08-.117 1.019-.3.902-.481.84-.66.66-.84.48-.96.297-1.02.121-1.02M307.86 187.5l-.122-1.078-.297-.961-.48-.961-.66-.84-.84-.66-.902-.48-1.02-.301-1.078-.117M299.941 192.898l1.02-.058.96-.18.9-.422.78-.539.72-.719.48-.84.36-.96.179-.961M305.34 188.219l-.059-1.14-.242-1.079-.48-1.02-.66-.96-.778-.72-1.02-.6-1.023-.419-1.137-.18M297.422 192.898l1.078-.117 1.02-.3.902-.481.84-.66.66-.84.476-.96.301-1.02.121-1.02M302.82 187.5l-.12-1.078-.302-.961-.476-.961-.66-.84-.84-.66-.902-.48-1.02-.301-1.078-.117M294.898 192.898l1.082-.117 1.02-.3.898-.481.84-.66.66-.84.48-.96.36-1.02.063-1.02M300.3 187.5l-.062-1.078-.36-.961-.48-.961-.66-.84-.84-.66-.898-.48-1.02-.301-1.082-.117" fill="none" stroke-width=".36000000000000004" stroke-linecap="round" stroke-linejoin="round" stroke="#505050" stroke-miterlimit="10"/><path d="M289.5 187.5l.121 1.02.3 1.02.54.96.66.84.777.66.961.48 1.02.301 1.02.117M287.879 213.781h11.883M300.66 205.86l-.66-1.141-.84-1.02-1.02-.84-1.14-.66-1.2-.418-1.32-.242h-1.32l-1.262.242-1.257.418-1.141.66-.96.84-.9 1.02-.66 1.14M301.379 209.46H286.32M286.98 205.86l-.421 1.14-.239 1.2v1.26M286.32 209.46l.059.962.242.957.36.902M286.98 212.281l.418.778.48.722M300.66 212.281l.36-.902.242-.957.117-.961M301.379 209.46l-.059-1.26-.242-1.2-.418-1.14M299.762 213.781l.539-.781.418-.781" fill="none" stroke-width=".36000000000000004" stroke-linecap="round" stroke-linejoin="round" stroke="#505050" stroke-miterlimit="10"/><use xlink:href="#a" x="288.445" y="210.874" fill="#505050"/><path d="M314.7 219.121h.3l.18-.18.18-.242.062-.3M315.422 214.14l-.063-.3-.18-.238-.179-.18h-.3M301.738 213.422h-.238l-.238.18-.184.238-.058.3M301.02 218.398l.058.301.184.242.238.18h.238" fill="none" stroke-width=".48" stroke-linecap="round" stroke-linejoin="round" stroke="#505050" stroke-miterlimit="10"/><path d="M299.941 216.96h1.079v-1.44h-1.079zm0 0M315.422 216.96h1.078v-1.44h-1.078zm0 0" fill="#505050" stroke-width=".12" stroke-linecap="round" stroke-linejoin="round" stroke="#505050" stroke-miterlimit="10"/><path d="M314.7 219.121h.3l.18-.18.18-.242.062-.3M315.422 214.14l-.063-.3-.18-.238-.179-.18h-.3M301.738 213.422h-.238l-.238.18-.184.238-.058.3M301.02 218.398l.058.301.184.242.238.18h.238M315.422 214.14v4.258M314.7 219.121h-1.079M313.262 218.762l.36.36M314.7 213.422h-1.079M313.262 213.781l.36-.36M303.18 218.762l-.36.36M303.18 218.762h10.082M303.18 213.781l-.36-.36M303.18 213.781h10.082M301.738 219.121h1.082M301.738 213.422h1.082M301.02 214.14v4.258" fill="none" stroke-width=".48" stroke-linecap="round" stroke-linejoin="round" stroke="#505050" stroke-miterlimit="10"/><path d="M299.941 216.96h1.079v-1.44h-1.079zm0 0M315.422 216.96h1.078v-1.44h-1.078zm0 0" fill="#505050" stroke-width=".12" stroke-linecap="round" stroke-linejoin="round" stroke="#505050" stroke-miterlimit="10"/><path d="M301.738 220.559l-.238.062-.238.18-.184.238-.058.242M301.02 225.602l.058.296.184.243.238.12.238.06M314.7 226.32l.3-.058.18-.121.18-.243.062-.296M315.422 221.281l-.063-.242-.18-.238-.179-.18-.3-.062" fill="none" stroke-width=".48" stroke-linecap="round" stroke-linejoin="round" stroke="#505050" stroke-miterlimit="10"/><path d="M315.422 224.16h1.078v-1.441h-1.078zm0 0M299.941 224.16h1.079v-1.441h-1.079zm0 0" fill="#505050" stroke-width=".12" stroke-linecap="round" stroke-linejoin="round" stroke="#505050" stroke-miterlimit="10"/><path d="M301.738 220.559l-.238.062-.238.18-.184.238-.058.242M301.02 225.602l.058.296.184.243.238.12.238.06M314.7 226.32l.3-.058.18-.121.18-.243.062-.296M315.422 221.281l-.063-.242-.18-.238-.179-.18-.3-.062M301.02 225.602v-4.32M301.738 220.559h1.082M303.18 220.922l-.36-.363M301.738 226.32h1.082M303.18 225.96l-.36.36M313.262 220.922l.36-.363M313.262 220.922H303.18M313.262 225.96l.36.36M313.262 225.96H303.18M314.7 220.559h-1.079M314.7 226.32h-1.079M315.422 225.602v-4.32" fill="none" stroke-width=".48" stroke-linecap="round" stroke-linejoin="round" stroke="#505050" stroke-miterlimit="10"/><path d="M315.422 224.16h1.078v-1.441h-1.078zm0 0M299.941 224.16h1.079v-1.441h-1.079zm0 0" fill="#505050" stroke-width=".12" stroke-linecap="round" stroke-linejoin="round" stroke="#505050" stroke-miterlimit="10"/><path d="M325.5 188.219l-.059-.297-.18-.242-.241-.121-.239-.059M320.46 187.5l-.3.059-.238.12-.121.243-.063.297M319.738 201.18l.063.242.12.238.24.18.3.058M324.781 201.898l.239-.058.242-.18.18-.238.058-.242" fill="none" stroke-width=".48" stroke-linecap="round" stroke-linejoin="round" stroke="#505050" stroke-miterlimit="10"/><path d="M321.898 202.98h1.442v-1.082h-1.442zm0 0M321.898 187.5h1.442v-1.082h-1.442zm0 0" fill="#505050" stroke-width=".12" stroke-linecap="round" stroke-linejoin="round" stroke="#505050" stroke-miterlimit="10"/><path d="M325.5 188.219l-.059-.297-.18-.242-.241-.121-.239-.059M320.46 187.5l-.3.059-.238.12-.121.243-.063.297M319.738 201.18l.063.242.12.238.24.18.3.058M324.781 201.898l.239-.058.242-.18.18-.238.058-.242M320.46 187.5h4.321M325.5 188.219v1.082M325.14 189.66l.36-.36M319.738 188.219v1.082M320.102 189.66l-.364-.36M325.14 199.738l.36.364M325.14 199.738V189.66M320.102 199.738l-.364.364M320.102 199.738V189.66M325.5 201.18v-1.078M319.738 201.18v-1.078M320.46 201.898h4.321" fill="none" stroke-width=".48" stroke-linecap="round" stroke-linejoin="round" stroke="#505050" stroke-miterlimit="10"/><path d="M321.898 202.98h1.442v-1.082h-1.442zm0 0M321.898 187.5h1.442v-1.082h-1.442zm0 0" fill="#505050" stroke-width=".12" stroke-linecap="round" stroke-linejoin="round" stroke="#505050" stroke-miterlimit="10"/><path d="M340.559 217.5l-.239.3M340.32 217.8v.54M340.32 218.34l.239.238M340.559 218.578h1.082M341.64 218.578l.239-.238M341.879 218.34v-.54M341.879 217.8l-.238-.3M341.64 217.5h-.538M341.102 217.5v.54M341.879 217.02h-1.559M340.32 217.02l1.559-1.079M341.879 215.941h-1.559M340.32 215.398h1.559M341.879 215.398v-.777M341.879 214.621l-.238-.3M341.64 214.32h-1.081M340.559 214.32l-.239.301M340.32 214.621v.777" fill="none" stroke-width=".18000000000000002" stroke-linecap="round" stroke-linejoin="round" stroke="#505050" stroke-miterlimit="10"/><path d="M268.68 237.121v-1.742M268.68 231.36v1.8M308.219 230.64h6.062M322.621 230.64H316.5" fill="none" stroke-width=".24" stroke-linecap="round" stroke-linejoin="round" stroke="#505050" stroke-miterlimit="10"/><path d="M315.422 201.898H313.5M313.5 201.898v-2.52M313.5 199.379h-1.078M312.422 199.379v5.043M312.422 204.422h1.078M313.5 204.422v-2.524M308.219 201.898h1.922M310.14 201.898v2.524M310.14 204.422h1.079M311.219 204.422v-5.043M311.219 199.379h-1.078M310.14 199.379v2.52" fill="none" stroke-width=".48" stroke-linecap="round" stroke-linejoin="round" stroke="#505050" stroke-miterlimit="10"/><path d="M308.941 209.102h1.739M314.7 209.102h-1.802M272.281 223.441h6.059M286.621 223.441h-6.062" fill="none" stroke-width=".24" stroke-linecap="round" stroke-linejoin="round" stroke="#505050" stroke-miterlimit="10"/><path d="M293.82 216.238h6.121M322.621 216.238H316.5M322.621 223.441H316.5M293.82 223.441h6.121M322.621 209.102v-6.122M322.621 180.3v6.122" fill="none" stroke-width="1.4400000000000002" stroke-linecap="round" stroke-linejoin="round" stroke="#505050" stroke-miterlimit="10"/><use xlink:href="#b" x="261.166" y="235.691" fill="#505050"/><use xlink:href="#c" x="263.566" y="235.691" fill="#505050"/><use xlink:href="#b" x="277.173" y="183.185" fill="#505050"/><use xlink:href="#d" x="279.573" y="183.185" fill="#505050"/><use xlink:href="#e" x="316.139" y="235.272" fill="#505050"/><use xlink:href="#f" x="318.059" y="235.272" fill="#505050"/><use xlink:href="#g" x="319.019" y="197.208" fill="#505050"/><use xlink:href="#h" x="319.019" y="194.808" fill="#505050"/><use xlink:href="#g" x="313.263" y="206.199" fill="#505050"/><use xlink:href="#i" x="313.263" y="203.799" fill="#505050"/><use xlink:href="#g" x="280.893" y="230.959" fill="#505050"/><use xlink:href="#j" x="280.893" y="228.559" fill="#505050"/><use xlink:href="#k" x="270.102" y="218.429" fill="#505050"/><use xlink:href="#l" x="270.102" y="217.229" fill="#505050"/><use xlink:href="#m" x="292.16" y="245.522" fill="#505050"/><use xlink:href="#n" x="293.78" y="245.522" fill="#505050"/><use xlink:href="#k" x="301.335" y="180.664" fill="#505050"/><use xlink:href="#o" x="301.335" y="179.464" fill="#505050"/><use xlink:href="#p" x="291.32" y="219.149" fill="#505050"/><use xlink:href="#c" x="294.14" y="219.149" fill="#505050"/><use xlink:href="#q" x="310.68" y="222.817" fill="#505050"/><use xlink:href="#r" x="313.2" y="222.817" fill="#505050"/><use xlink:href="#q" x="310.68" y="222.817" fill="#505050"/><use xlink:href="#r" x="313.2" y="222.817" fill="#505050"/><use xlink:href="#q" x="301.033" y="219.794" fill="#505050"/><use xlink:href="#s" x="303.553" y="219.794" fill="#505050"/><use xlink:href="#q" x="301.033" y="219.794" fill="#505050"/><use xlink:href="#s" x="303.553" y="219.794" fill="#505050"/><use xlink:href="#t" x="329.162" y="192.237" fill="#505050"/><use xlink:href="#i" x="329.162" y="189.717" fill="#505050"/><use xlink:href="#t" x="329.162" y="192.237" fill="#505050"/><use xlink:href="#i" x="329.162" y="189.717" fill="#505050"/><use xlink:href="#u" x="264.822" y="243.364" fill="#505050"/><use xlink:href="#v" x="266.562" y="243.364" fill="#505050"/><use xlink:href="#w" x="268.302" y="243.364" fill="#505050"/><use xlink:href="#u" x="276.813" y="194.69" fill="#505050"/><use xlink:href="#v" x="278.554" y="194.69" fill="#505050"/><use xlink:href="#w" x="280.293" y="194.69" fill="#505050"/><use xlink:href="#x" x="308.461" y="235.272" fill="#505050"/><use xlink:href="#y" x="310.201" y="235.272" fill="#505050"/><use xlink:href="#z" x="311.161" y="235.272" fill="#505050"/><use xlink:href="#A" x="312.901" y="235.272" fill="#505050"/><use xlink:href="#B" x="305.889" y="210.701" fill="#505050"/><use xlink:href="#C" x="305.889" y="208.961" fill="#505050"/><use xlink:href="#C" x="305.889" y="207.221" fill="#505050"/><use xlink:href="#D" x="305.889" y="205.481" fill="#505050"/><use xlink:href="#B" x="304.99" y="210.514" fill="#505050"/><use xlink:href="#C" x="304.99" y="208.774" fill="#505050"/><use xlink:href="#C" x="304.99" y="207.034" fill="#505050"/><use xlink:href="#E" x="304.99" y="205.294" fill="#505050"/><use xlink:href="#h" x="280.894" y="220.584" fill="#505050"/><use xlink:href="#F" x="280.894" y="218.364" fill="#505050"/><use xlink:href="#G" x="280.894" y="217.164" fill="#505050"/><use xlink:href="#H" x="280.894" y="214.944" fill="#505050"/><use xlink:href="#k" x="276.158" y="221.969" fill="#505050"/><use xlink:href="#I" x="276.158" y="220.769" fill="#505050"/><use xlink:href="#J" x="276.158" y="219.449" fill="#505050"/><use xlink:href="#K" x="276.158" y="218.129" fill="#505050"/><use xlink:href="#L" x="276.158" y="217.229" fill="#505050"/><use xlink:href="#J" x="295.279" y="180.664" fill="#505050"/><use xlink:href="#M" x="295.279" y="179.344" fill="#505050"/><use xlink:href="#N" x="295.279" y="178.564" fill="#505050"/><use xlink:href="#O" x="295.279" y="177.784" fill="#505050"/><use xlink:href="#P" x="295.279" y="176.464" fill="#505050"/><use xlink:href="#Q" x="295.279" y="175.624" fill="#505050"/><use xlink:href="#R" x="295.279" y="174.304" fill="#505050"/><use xlink:href="#S" x="288.5" y="198.287" fill="#505050"/><use xlink:href="#T" x="290.42" y="198.287" fill="#505050"/><use xlink:href="#n" x="292.1" y="198.287" fill="#505050"/><use xlink:href="#v" x="293.84" y="198.287" fill="#505050"/><use xlink:href="#x" x="295.58" y="198.287" fill="#505050"/><use xlink:href="#S" x="297.32" y="198.287" fill="#505050"/><use xlink:href="#f" x="306.77" y="217.182" fill="#505050"/><use xlink:href="#y" x="308.511" y="217.182" fill="#505050"/><use xlink:href="#f" x="309.47" y="217.182" fill="#505050"/><use xlink:href="#U" x="311.211" y="217.182" fill="#505050"/><use xlink:href="#f" x="306.77" y="217.182" fill="#505050"/><use xlink:href="#y" x="308.511" y="217.182" fill="#505050"/><use xlink:href="#f" x="309.47" y="217.182" fill="#505050"/><use xlink:href="#U" x="311.211" y="217.182" fill="#505050"/><use xlink:href="#u" x="303.623" y="224.828" fill="#505050"/><use xlink:href="#V" x="305.363" y="224.828" fill="#505050"/><use xlink:href="#U" x="307.103" y="224.828" fill="#505050"/><use xlink:href="#u" x="303.623" y="224.828" fill="#505050"/><use xlink:href="#V" x="305.363" y="224.828" fill="#505050"/><use xlink:href="#U" x="307.103" y="224.828" fill="#505050"/><use xlink:href="#B" x="323.527" y="195.307" fill="#505050"/><use xlink:href="#W" x="323.527" y="193.567" fill="#505050"/><use xlink:href="#C" x="323.527" y="191.827" fill="#505050"/><use xlink:href="#B" x="323.527" y="195.307" fill="#505050"/><use xlink:href="#W" x="323.527" y="193.567" fill="#505050"/><use xlink:href="#C" x="323.527" y="191.827" fill="#505050"/><path d="M322.621 230.64v-7.199M268.68 230.64l3.601-7.199M279.48 237.84l-10.8-7.2" fill="none" stroke-width=".12" stroke-linecap="round" stroke-linejoin="round" stroke="olive" stroke-miterlimit="10"/><path d="M250.68 245.04h93.539M344.219 245.04v-71.938M344.219 173.102h-93.54M250.68 173.102v71.937" fill="none" stroke-width=".12" stroke-linecap="round" stroke-linejoin="round" stroke="#000" stroke-miterlimit="10"/></svg>