<svg xmlns="http://www.w3.org/2000/svg" xmlns:xlink="http://www.w3.org/1999/xlink" width="842pt" height="595pt" viewBox="0 0 842 595"><defs><symbol overflow="visible" id="a"><path d="M1.75-.766H.672l-.235.594h.329c.03.012.054.024.078.031.02.012.031.032.031.063 0 .023-.012.039-.031.047A.1.1 0 0 1 .766 0H.14C.098 0 .07-.008.063-.031.038-.04.03-.055.03-.078c0-.031.008-.05.032-.063A.23.23 0 0 1 .14-.17h.125L1-2.126H.516c-.043 0-.075-.008-.094-.031C.41-2.164.406-2.187.406-2.22c0-.02.004-.035.016-.047.02-.02.05-.03.094-.03h.828L2.14-.173h.125l.093.031a.11.11 0 0 1 .016.063c0 .023-.008.039-.016.047-.023.023-.054.031-.093.031h-.61c-.043 0-.07-.008-.078-.031-.023-.008-.031-.024-.031-.047 0-.031.008-.05.031-.063a.23.23 0 0 1 .078-.03h.313zm-.063-.171l-.453-1.188h-.062L.734-.937zm0 0"/></symbol><symbol overflow="visible" id="b"><path d="M.672-1.11v.938h1.265v-.484c0-.031.004-.055.016-.078.02-.02.04-.032.063-.032.03 0 .05.012.062.032a.231.231 0 0 1 .016.078V0H.28C.238 0 .211-.008.203-.031.18-.04.172-.055.172-.078c0-.031.008-.05.031-.063a.23.23 0 0 1 .078-.03H.5v-1.954H.281c-.043 0-.07-.008-.078-.031C.18-2.164.172-2.187.172-2.22c0-.02.008-.035.031-.047.008-.02.035-.03.078-.03h1.735v.562c0 .043-.012.074-.032.093-.011.024-.027.028-.046.016-.032.012-.055.008-.063-.016-.023-.02-.031-.05-.031-.093v-.391H.672v.86h.594v-.188c0-.04.004-.07.015-.094.008-.008.032-.016.063-.016.02 0 .039.008.062.016a.291.291 0 0 1 .016.094v.531c0 .043-.008.07-.016.078-.023.024-.043.031-.062.031-.032 0-.055-.007-.063-.03-.011-.009-.015-.036-.015-.079v-.187zm0 0"/></symbol><symbol overflow="visible" id="c"><path d="M2.094-1H1.75v1h-.375v-1H.078v-.422l1.313-1.5h.359v1.61h.344zm-.719-.313v-1.14l-.984 1.14zm0 0"/></symbol><symbol overflow="visible" id="d"><path d="M.844 0H.375v-.563h.469zm0 0"/></symbol><symbol overflow="visible" id="e"><path d="M2.047-2.484L.78 0H.36l1.344-2.578H.187v-.344h1.86zm0 0"/></symbol><symbol overflow="visible" id="f"><path d="M2.078 0h-.484L.78-1.063l-.14.141V0H.266v-3.047H.64v1.781l.859-.921h.453l-.89.906zm0 0"/></symbol><symbol overflow="visible" id="g"><path d="M2.016 0H.219v-.406l.36-.36c.112-.101.226-.218.343-.343.219-.25.367-.446.453-.594.07-.145.113-.297.125-.453a.487.487 0 0 0-.047-.219.602.602 0 0 0-.11-.156.629.629 0 0 0-.344-.11.822.822 0 0 0-.218.032.685.685 0 0 0-.203.062 1.166 1.166 0 0 0-.156.078c-.055.031-.094.059-.125.078H.28v-.406c.07-.039.18-.082.328-.125.145-.039.286-.062.422-.062.258 0 .469.074.625.218.157.149.235.344.235.594 0 .117-.012.219-.032.313-.03.093-.07.183-.109.265a2.195 2.195 0 0 1-.188.25 4.057 4.057 0 0 1-.203.25 7.154 7.154 0 0 1-.421.422 7.96 7.96 0 0 1-.36.344h1.438zm0 0"/></symbol><symbol overflow="visible" id="h"><path d="M1.86 0H.436v-.297H.97V-2.25H.438v-.266c.195 0 .347-.03.453-.093.093-.051.144-.157.156-.313h.297v2.625h.515zm0 0"/></symbol><symbol overflow="visible" id="i"><path d="M2.031-1.453c0 .523-.078.902-.234 1.14-.149.25-.383.376-.703.376C.77.063.535-.064.39-.314.234-.563.156-.94.156-1.452c0-.531.078-.914.235-1.156.156-.25.39-.375.703-.375.32 0 .554.132.703.39.156.25.234.633.234 1.14zm-.5.875a2.32 2.32 0 0 0 .078-.36 9.314 9.314 0 0 0 0-1.046 2.427 2.427 0 0 0-.078-.36.573.573 0 0 0-.172-.234.414.414 0 0 0-.265-.078.446.446 0 0 0-.266.078.512.512 0 0 0-.172.234 1.997 1.997 0 0 0-.078.375 6.995 6.995 0 0 0-.015.516c0 .2.003.371.015.516.008.136.035.257.078.359.04.105.098.183.172.234.063.055.149.078.266.078a.436.436 0 0 0 .265-.078.525.525 0 0 0 .172-.234zm0 0"/></symbol><symbol overflow="visible" id="j"><path d="M1-2.64a.671.671 0 0 0-.203.03.873.873 0 0 0-.219.063.582.582 0 0 0-.156.078c-.055.031-.094.059-.125.078H.266v-.406a2.29 2.29 0 0 1 .359-.125c.133-.039.27-.062.406-.062.133 0 .25.015.344.046a.62.62 0 0 1 .266.126c.093.062.16.136.203.218.039.094.062.2.062.313a.612.612 0 0 1-.156.422.669.669 0 0 1-.375.234v.031a.919.919 0 0 1 .39.188c.051.062.098.136.141.218.04.086.063.196.063.329A.875.875 0 0 1 1.89-.5a.803.803 0 0 1-.188.297.745.745 0 0 1-.312.187c-.118.051-.25.079-.407.079C.836.063.691.046.547.015a1.814 1.814 0 0 1-.36-.141v-.406H.22C.3-.47.41-.411.547-.36a1.094 1.094 0 0 0 .656.046.559.559 0 0 0 .203-.124c.051-.063.094-.126.125-.188.02-.07.032-.16.032-.266a.687.687 0 0 0-.047-.265.491.491 0 0 0-.125-.157.446.446 0 0 0-.188-.078 1.123 1.123 0 0 0-.25-.03H.781v-.329h.14c.165 0 .306-.04.423-.125a.419.419 0 0 0 .172-.36.371.371 0 0 0-.047-.187.493.493 0 0 0-.11-.125 1.15 1.15 0 0 0-.171-.078A1.296 1.296 0 0 0 1-2.641zm0 0"/></symbol><symbol overflow="visible" id="k"><path d="M1.969 0h-.36v-.25a1.526 1.526 0 0 1-.328.234.78.78 0 0 1-.61.032.505.505 0 0 1-.218-.157.685.685 0 0 1-.156-.25A1.29 1.29 0 0 1 .25-.766v-1.421h.375v1.25c0 .117.004.21.016.28 0 .087.015.153.046.204.032.062.07.105.125.125a.78.78 0 0 0 .516-.031 1.41 1.41 0 0 0 .281-.204v-1.625h.36zm0 0"/></symbol><symbol overflow="visible" id="l"><path d="M2.047-2.578H.687v.828h1.297v.344H.688V0H.296v-2.922h1.75zm0 0"/></symbol><symbol overflow="visible" id="m"><path d="M2.281-.89a.703.703 0 0 1-.094.374.72.72 0 0 1-.218.282.865.865 0 0 1-.344.172A1.62 1.62 0 0 1 1.141 0H.297v-2.922h.781c.195 0 .352.008.469.016.094.023.191.058.297.11a.588.588 0 0 1 .297.53c0 .149-.04.274-.11.375a.778.778 0 0 1-.297.25v.016c.164.055.301.14.407.266a.76.76 0 0 1 .14.468zm-.547-1.313a.554.554 0 0 0-.03-.188.281.281 0 0 0-.11-.125.977.977 0 0 0-.219-.062 2.985 2.985 0 0 0-.313-.016H.688v.86h.438c.125 0 .21-.004.266-.016a.429.429 0 0 0 .187-.078.452.452 0 0 0 .125-.156.634.634 0 0 0 .031-.22zm.141 1.328a.73.73 0 0 0-.047-.281.355.355 0 0 0-.187-.172.722.722 0 0 0-.204-.063 2.985 2.985 0 0 0-.312-.015H.687v1.078H1c.164 0 .3-.008.406-.031a.478.478 0 0 0 .25-.094c.07-.05.13-.11.172-.172a.56.56 0 0 0 .047-.25zm0 0"/></symbol><symbol overflow="visible" id="n"><path d="M1.438.047a1.212 1.212 0 0 1-.532-.094A1.087 1.087 0 0 1 .5-.328a1.388 1.388 0 0 1-.281-.469 2.147 2.147 0 0 1-.094-.656c0-.25.031-.461.094-.64C.28-2.27.375-2.43.5-2.579c.113-.125.25-.223.406-.297.156-.063.332-.094.531-.094.102 0 .196.008.282.016.082.023.16.043.234.062.063.024.129.043.203.063.063.031.125.07.188.11v.468h-.031c-.032-.031-.075-.07-.126-.125-.062-.04-.132-.082-.203-.125a2.15 2.15 0 0 0-.234-.11 1.54 1.54 0 0 0-.313-.03.767.767 0 0 0-.343.078.876.876 0 0 0-.297.218.997.997 0 0 0-.188.375 1.552 1.552 0 0 0-.078.516c0 .2.024.371.078.516a.83.83 0 0 0 .188.359c.082.105.18.18.297.219a.718.718 0 0 0 .343.078.99.99 0 0 0 .313-.047A.83.83 0 0 0 2-.422a1.42 1.42 0 0 0 .313-.234h.03v.453a2.274 2.274 0 0 0-.171.094 1.023 1.023 0 0 1-.219.078C1.867 0 1.79.019 1.72.03a2.627 2.627 0 0 1-.282.016zm0 0"/></symbol><symbol overflow="visible" id="o"><path d="M1.984-.922c0 .137-.023.266-.062.39a1.304 1.304 0 0 1-.203.313.757.757 0 0 1-.297.203c-.125.051-.262.079-.406.079C.867.063.726.046.594.015A1.216 1.216 0 0 1 .25-.11v-.407h.016c.03.024.078.047.14.079.051.023.114.046.188.078.07.023.14.043.203.062.062.012.133.016.219.016.07 0 .148-.016.234-.047a.389.389 0 0 0 .188-.125.604.604 0 0 0 .109-.203c.02-.07.031-.164.031-.281a.868.868 0 0 0-.031-.25.491.491 0 0 0-.125-.157.644.644 0 0 0-.203-.11 1.265 1.265 0 0 0-.282-.03c-.105 0-.21.007-.312.015-.117.024-.203.04-.266.047v-1.5h1.61v.344H.734v.781c.051-.008.098-.016.141-.016H1c.156 0 .285.012.39.032.094.031.192.078.298.14a.782.782 0 0 1 .218.282c.051.117.078.261.078.437zm0 0"/></symbol><symbol overflow="visible" id="p"><path d="M1.984 0h-.359v-1.25c0-.094-.008-.188-.016-.281a.566.566 0 0 0-.062-.203.382.382 0 0 0-.125-.125 1.042 1.042 0 0 0-.219-.047.589.589 0 0 0-.281.078c-.106.055-.2.117-.281.187V0H.266v-2.188H.64v.235a1.42 1.42 0 0 1 .312-.219.831.831 0 0 1 .344-.078c.219 0 .39.07.516.203.113.149.171.356.171.625zm0 0"/></symbol><symbol overflow="visible" id="q"><path d="M1.516.063c-.211 0-.399-.032-.563-.094a.962.962 0 0 1-.437-.297 1.177 1.177 0 0 1-.282-.469 1.894 1.894 0 0 1-.109-.672c0-.226.035-.437.11-.625a1.33 1.33 0 0 1 .28-.484c.114-.125.258-.223.438-.297.176-.063.363-.094.563-.094.101 0 .195.008.28.016.095.023.18.043.266.062.063.024.133.047.22.079a.829.829 0 0 1 .187.093v.469h-.031c-.043-.04-.09-.082-.141-.125a1.311 1.311 0 0 0-.219-.125c-.086-.04-.18-.07-.281-.094a1.039 1.039 0 0 0-.328-.047.798.798 0 0 0-.672.329c-.18.21-.266.492-.266.843 0 .188.024.36.078.516a.83.83 0 0 0 .188.36.745.745 0 0 0 .312.234.884.884 0 0 0 .391.078c.113 0 .223-.004.328-.016.102-.02.195-.047.281-.078v-.75h-.687v-.344h1.062v1.282c-.054.023-.117.046-.187.078-.094.03-.172.058-.235.078-.105.031-.195.05-.265.062-.074.02-.168.032-.281.032zm0 0"/></symbol><symbol overflow="visible" id="r"><path d="M2.39 0h-.437L.656-2.516V0h-.36v-2.922h.548L2.016-.609v-2.313h.375zm0 0"/></symbol><symbol overflow="visible" id="s"><path d="M2.594-1.453c0 .262-.055.5-.156.719-.106.218-.25.386-.438.5a1.33 1.33 0 0 1-.453.187A2.89 2.89 0 0 1 .969 0H.297v-2.922h.656c.281 0 .5.024.656.063.157.043.286.101.391.171.188.126.332.293.438.5.101.211.156.454.156.735zm-.406-.016c0-.218-.04-.41-.11-.578a.813.813 0 0 0-.328-.36 1.342 1.342 0 0 0-.328-.14 1.832 1.832 0 0 0-.438-.047H.688v2.266h.296c.164 0 .317-.016.454-.047a1.016 1.016 0 0 0 .656-.516c.062-.156.094-.347.094-.578zm0 0"/></symbol><symbol overflow="visible" id="t"><path d="M2.563 0h-.516l-.922-1.156H.687V0h-.39v-2.922h.75c.164 0 .305.012.422.031.113.024.222.063.328.125a.8.8 0 0 1 .234.25.751.751 0 0 1 .094.391c0 .219-.059.398-.172.531a.913.913 0 0 1-.437.328zm-.844-2.094a.598.598 0 0 0-.047-.234.412.412 0 0 0-.14-.156.446.446 0 0 0-.188-.079c-.074-.007-.168-.019-.282-.03H.688v1.109h.344c.102 0 .203-.008.297-.032a.459.459 0 0 0 .219-.125.38.38 0 0 0 .125-.187.66.66 0 0 0 .047-.266zm0 0"/></symbol><symbol overflow="visible" id="u"><path d="M2.063-.953c0 .156-.028.297-.079.422-.054.125-.12.23-.203.312a.723.723 0 0 1-.297.203.78.78 0 0 1-.343.079C1.004.063.883.038.78 0a.891.891 0 0 1-.297-.203A1.194 1.194 0 0 1 .25-.625a2.253 2.253 0 0 1-.078-.656c0-.25.023-.477.078-.688.05-.207.129-.383.234-.531.102-.145.239-.258.407-.344.164-.082.359-.125.578-.125h.187c.063.012.114.024.157.031v.376h-.016a.676.676 0 0 0-.156-.047.87.87 0 0 0-.22-.032.784.784 0 0 0-.593.25c-.148.168-.234.414-.265.735.093-.063.19-.114.296-.157a.973.973 0 0 1 .313-.046c.113 0 .21.011.297.03a.792.792 0 0 1 .515.438c.051.125.079.274.079.438zm-.407.015a.861.861 0 0 0-.047-.296.5.5 0 0 0-.14-.204.735.735 0 0 0-.172-.093c-.074-.008-.14-.016-.203-.016a.745.745 0 0 0-.266.047 1.272 1.272 0 0 0-.265.125v.172c0 .21.019.375.062.5.04.125.086.219.14.281.051.063.11.106.172.125a.326.326 0 0 0 .204.031c.156 0 .28-.05.375-.156.093-.113.14-.285.14-.516zm0 0"/></symbol><symbol overflow="visible" id="v"><path d="M1.594-2.234a.426.426 0 0 0-.14-.329.46.46 0 0 0-.36-.14.464.464 0 0 0-.344.125.378.378 0 0 0-.14.312c0 .094.019.18.062.25.05.063.125.121.219.172a.509.509 0 0 0 .187.094c.07.043.145.074.219.094a.699.699 0 0 0 .234-.266.796.796 0 0 0 .063-.312zM1.64-.781a.599.599 0 0 0-.063-.281.934.934 0 0 0-.281-.22l-.172-.077a3.457 3.457 0 0 0-.25-.094.694.694 0 0 0-.25.25.873.873 0 0 0-.078.375.555.555 0 0 0 .156.437.494.494 0 0 0 .39.172c.165 0 .302-.05.407-.156.094-.094.14-.227.14-.406zm-.547.844C.945.063.816.038.704 0A.722.722 0 0 1 .39-.188a.598.598 0 0 1-.188-.28.883.883 0 0 1-.062-.344.8.8 0 0 1 .125-.438.947.947 0 0 1 .375-.313v-.015a.788.788 0 0 1-.329-.266.703.703 0 0 1-.093-.375c0-.219.082-.398.25-.547a.917.917 0 0 1 .625-.218c.258 0 .472.07.64.203a.706.706 0 0 1 .235.531c0 .137-.04.266-.11.39a.658.658 0 0 1-.328.298v.015c.164.086.297.184.39.297a.742.742 0 0 1 .126.438c0 .25-.09.46-.266.625a.994.994 0 0 1-.687.25zm0 0"/></symbol><symbol overflow="visible" id="w"><path d="M.984 0v-2.578H0v-.344h2.344v.344h-.985V0zm0 0"/></symbol><symbol overflow="visible" id="x"><path d="M2.406-2.922L1.406 0H.984l-1-2.922h.422L1.203-.5l.813-2.422zm0 0"/></symbol><symbol overflow="visible" id="y"><path d="M1.625-1.719c0-.195-.016-.36-.047-.484a.918.918 0 0 0-.156-.297.421.421 0 0 0-.172-.125.629.629 0 0 0-.188-.031.479.479 0 0 0-.39.172c-.094.117-.14.28-.14.5a.76.76 0 0 0 .046.296.505.505 0 0 0 .156.22.25.25 0 0 0 .157.077 1.004 1.004 0 0 0 .484-.031.627.627 0 0 0 .25-.11v-.077-.11zm-1.5-.25c0-.156.023-.289.078-.406a1.08 1.08 0 0 1 .203-.328c.082-.082.18-.149.297-.203a.875.875 0 0 1 .719 0 .713.713 0 0 1 .281.187c.102.117.18.258.234.422.063.18.094.399.094.656 0 .25-.031.48-.094.688a1.639 1.639 0 0 1-.234.547c-.117.148-.25.261-.406.344a1.24 1.24 0 0 1-.578.124C.664.063.609.056.547.048A.358.358 0 0 1 .39.016V-.36h.015c.031.023.082.039.156.046a.569.569 0 0 0 .204.032c.257 0 .46-.082.609-.25.145-.164.227-.406.25-.719-.105.063-.203.11-.297.14a.825.825 0 0 1-.312.063.83.83 0 0 1-.297-.047.663.663 0 0 1-.266-.125.745.745 0 0 1-.234-.312.963.963 0 0 1-.094-.438zm0 0"/></symbol><symbol overflow="visible" id="z"><path d="M1.313 0H.188v-.297h.374v-2.328H.188v-.297h1.125v.297H.938v2.328h.375zm0 0"/></symbol><symbol overflow="visible" id="A"><path d="M1.281-1.094H.171v-.36h1.11zm0 0"/></symbol><symbol overflow="visible" id="B"><path d="M2.61-1.125h-.985v1h-.328v-1H.313v-.313h.984v-.984h.328v.985h.984zm0 0"/></symbol><symbol overflow="visible" id="C"><path d="M2.36-2.578c.113.125.203.281.265.469.05.187.082.406.094.656 0 .23-.031.445-.094.64a1.302 1.302 0 0 1-.266.47 1.146 1.146 0 0 1-.421.312 1.376 1.376 0 0 1-.516.093c-.2 0-.375-.039-.531-.109a.87.87 0 0 1-.407-.297A1.247 1.247 0 0 1 .22-.813a2.01 2.01 0 0 1-.094-.64c0-.25.031-.469.094-.656.062-.188.148-.344.265-.47a.897.897 0 0 1 .407-.296c.156-.07.332-.11.53-.11.196 0 .376.04.532.11.156.074.29.172.406.297zm-.047 1.125c0-.195-.024-.367-.063-.516a1.015 1.015 0 0 0-.453-.61 1.18 1.18 0 0 0-.75 0 .885.885 0 0 0-.281.235c-.075.106-.133.23-.172.375a1.943 1.943 0 0 0-.063.516c0 .387.082.68.25.875.156.2.367.297.64.297a.77.77 0 0 0 .641-.297c.165-.195.25-.488.25-.875zm0 0"/></symbol><symbol overflow="visible" id="D"><path d="M1.313.063c-.168 0-.32-.028-.454-.079a.722.722 0 0 1-.312-.187.79.79 0 0 1-.219-.375 1.719 1.719 0 0 1-.062-.516v-1.828h.39v1.828a.947.947 0 0 0 .016.328c.02.094.055.18.11.25.05.086.116.149.202.188a.78.78 0 0 0 .329.062.78.78 0 0 0 .328-.062.465.465 0 0 0 .218-.188.513.513 0 0 0 .094-.234c.02-.094.031-.207.031-.344v-1.828h.391v1.828c0 .2-.023.371-.063.516a.86.86 0 0 1-.218.375A1.08 1.08 0 0 1 1.766 0c-.125.04-.278.063-.454.063zm0 0"/></symbol></defs><use xlink:href="#a" x="376.211" y="267.224" fill="#505050"/><use xlink:href="#b" x="390.604" y="267.224" fill="#505050"/><use xlink:href="#a" x="376.211" y="359.294" fill="#505050"/><use xlink:href="#b" x="390.604" y="359.294" fill="#505050"/><use xlink:href="#a" x="510.067" y="316.136" fill="#505050"/><use xlink:href="#b" x="510.067" y="293.118" fill="#505050"/><use xlink:href="#c" x="346.224" y="264.347" fill="#505050"/><use xlink:href="#d" x="348.444" y="264.347" fill="#505050"/><use xlink:href="#e" x="349.644" y="264.347" fill="#505050"/><use xlink:href="#f" x="351.864" y="264.347" fill="#505050"/><use xlink:href="#c" x="415.311" y="264.347" fill="#505050"/><use xlink:href="#d" x="417.531" y="264.347" fill="#505050"/><use xlink:href="#e" x="418.731" y="264.347" fill="#505050"/><use xlink:href="#f" x="420.951" y="264.347" fill="#505050"/><use xlink:href="#g" x="374.109" y="308.945" fill="#505050"/><use xlink:href="#d" x="376.329" y="308.945" fill="#505050"/><use xlink:href="#g" x="377.529" y="308.945" fill="#505050"/><use xlink:href="#f" x="379.749" y="308.945" fill="#505050"/><use xlink:href="#h" x="377.529" y="343.471" fill="#505050"/><use xlink:href="#f" x="379.749" y="343.471" fill="#505050"/><use xlink:href="#h" x="393.244" y="258.591" fill="#505050"/><use xlink:href="#i" x="395.464" y="258.591" fill="#505050"/><use xlink:href="#i" x="397.684" y="258.591" fill="#505050"/><use xlink:href="#f" x="399.904" y="258.591" fill="#505050"/><use xlink:href="#j" x="318.4" y="294.555" fill="#505050"/><use xlink:href="#d" x="320.619" y="294.555" fill="#505050"/><use xlink:href="#j" x="321.819" y="294.555" fill="#505050"/><use xlink:href="#k" x="324.039" y="294.555" fill="#505050"/><use xlink:href="#l" x="326.259" y="294.555" fill="#505050"/><use xlink:href="#j" x="450.817" y="260.029" fill="#505050"/><use xlink:href="#d" x="453.036" y="260.029" fill="#505050"/><use xlink:href="#j" x="454.236" y="260.029" fill="#505050"/><use xlink:href="#k" x="456.456" y="260.029" fill="#505050"/><use xlink:href="#l" x="458.677" y="260.029" fill="#505050"/><use xlink:href="#j" x="447.934" y="297.436" fill="#505050"/><use xlink:href="#j" x="450.154" y="297.436" fill="#505050"/><use xlink:href="#i" x="452.374" y="297.436" fill="#505050"/><use xlink:href="#f" x="454.594" y="297.436" fill="#505050"/><use xlink:href="#j" x="502.632" y="260.029" fill="#505050"/><use xlink:href="#d" x="504.852" y="260.029" fill="#505050"/><use xlink:href="#j" x="506.052" y="260.029" fill="#505050"/><use xlink:href="#k" x="508.272" y="260.029" fill="#505050"/><use xlink:href="#l" x="510.492" y="260.029" fill="#505050"/><use xlink:href="#h" x="393.244" y="367.927" fill="#505050"/><use xlink:href="#i" x="395.464" y="367.927" fill="#505050"/><use xlink:href="#i" x="397.684" y="367.927" fill="#505050"/><use xlink:href="#f" x="399.904" y="367.927" fill="#505050"/><use xlink:href="#h" x="417.052" y="321.891" fill="#505050"/><use xlink:href="#f" x="419.271" y="321.891" fill="#505050"/><use xlink:href="#m" x="485.936" y="314.696" fill="#505050"/><use xlink:href="#n" x="488.276" y="314.696" fill="#505050"/><use xlink:href="#o" x="490.676" y="314.696" fill="#505050"/><use xlink:href="#c" x="492.896" y="314.696" fill="#505050"/><use xlink:href="#e" x="495.116" y="314.696" fill="#505050"/><use xlink:href="#g" x="522.782" y="300.313" fill="#505050"/><use xlink:href="#i" x="525.002" y="300.313" fill="#505050"/><use xlink:href="#f" x="527.222" y="300.313" fill="#505050"/><use xlink:href="#h" x="353.477" y="280.173" fill="#505050"/><use xlink:href="#i" x="355.697" y="280.173" fill="#505050"/><use xlink:href="#i" x="357.917" y="280.173" fill="#505050"/><use xlink:href="#p" x="360.137" y="280.173" fill="#505050"/><use xlink:href="#l" x="362.357" y="280.173" fill="#505050"/><use xlink:href="#h" x="388.021" y="280.173" fill="#505050"/><use xlink:href="#i" x="390.241" y="280.173" fill="#505050"/><use xlink:href="#i" x="392.461" y="280.173" fill="#505050"/><use xlink:href="#p" x="394.681" y="280.173" fill="#505050"/><use xlink:href="#l" x="396.901" y="280.173" fill="#505050"/><use xlink:href="#q" x="305.743" y="333.113" fill="#505050"/><use xlink:href="#r" x="308.443" y="333.113" fill="#505050"/><use xlink:href="#s" x="311.143" y="333.113" fill="#505050"/><use xlink:href="#q" x="530.276" y="338.868" fill="#505050"/><use xlink:href="#r" x="532.976" y="338.868" fill="#505050"/><use xlink:href="#s" x="535.676" y="338.868" fill="#505050"/><use xlink:href="#t" x="347.724" y="259.512" fill="#505050"/><use xlink:href="#h" x="350.245" y="259.512" fill="#505050"/><use xlink:href="#t" x="416.812" y="259.512" fill="#505050"/><use xlink:href="#g" x="419.332" y="259.512" fill="#505050"/><use xlink:href="#t" x="376.99" y="300.31" fill="#505050"/><use xlink:href="#j" x="379.51" y="300.31" fill="#505050"/><use xlink:href="#t" x="376.99" y="334.837" fill="#505050"/><use xlink:href="#c" x="379.51" y="334.837" fill="#505050"/><use xlink:href="#t" x="372.672" y="258.591" fill="#505050"/><use xlink:href="#o" x="375.192" y="258.591" fill="#505050"/><use xlink:href="#n" x="308.022" y="294.556" fill="#505050"/><use xlink:href="#h" x="310.422" y="294.556" fill="#505050"/><use xlink:href="#n" x="388.624" y="317.573" fill="#505050"/><use xlink:href="#g" x="391.024" y="317.573" fill="#505050"/><use xlink:href="#n" x="440.439" y="260.03" fill="#505050"/><use xlink:href="#j" x="442.839" y="260.03" fill="#505050"/><use xlink:href="#t" x="451.834" y="288.801" fill="#505050"/><use xlink:href="#u" x="454.354" y="288.801" fill="#505050"/><use xlink:href="#n" x="492.255" y="260.03" fill="#505050"/><use xlink:href="#c" x="494.655" y="260.03" fill="#505050"/><use xlink:href="#t" x="372.672" y="367.928" fill="#505050"/><use xlink:href="#e" x="375.192" y="367.928" fill="#505050"/><use xlink:href="#t" x="416.812" y="317.056" fill="#505050"/><use xlink:href="#v" x="419.332" y="317.056" fill="#505050"/><use xlink:href="#w" x="468.71" y="314.697" fill="#505050"/><use xlink:href="#h" x="471.05" y="314.697" fill="#505050"/><use xlink:href="#x" x="478.882" y="229.819" fill="#505050"/><use xlink:href="#n" x="481.282" y="229.819" fill="#505050"/><use xlink:href="#n" x="483.682" y="229.819" fill="#505050"/><use xlink:href="#q" x="478.462" y="367.639" fill="#505050"/><use xlink:href="#r" x="481.162" y="367.639" fill="#505050"/><use xlink:href="#s" x="483.862" y="367.639" fill="#505050"/><use xlink:href="#t" x="522.782" y="308.942" fill="#505050"/><use xlink:href="#y" x="525.303" y="308.942" fill="#505050"/><use xlink:href="#z" x="278.216" y="316.136" fill="#505050"/><use xlink:href="#r" x="279.716" y="316.136" fill="#505050"/><use xlink:href="#A" x="282.416" y="316.136" fill="#505050"/><use xlink:href="#z" x="276.716" y="298.873" fill="#505050"/><use xlink:href="#r" x="278.216" y="298.873" fill="#505050"/><use xlink:href="#B" x="280.916" y="298.873" fill="#505050"/><use xlink:href="#n" x="359.838" y="271.538" fill="#505050"/><use xlink:href="#o" x="362.238" y="271.538" fill="#505050"/><use xlink:href="#n" x="394.382" y="271.538" fill="#505050"/><use xlink:href="#u" x="396.782" y="271.538" fill="#505050"/><use xlink:href="#C" x="554.448" y="321.89" fill="#505050"/><use xlink:href="#D" x="557.268" y="321.89" fill="#505050"/><use xlink:href="#w" x="559.908" y="321.89" fill="#505050"/><use xlink:href="#A" x="562.248" y="321.89" fill="#505050"/><use xlink:href="#C" x="554.448" y="304.628" fill="#505050"/><use xlink:href="#D" x="557.268" y="304.628" fill="#505050"/><use xlink:href="#w" x="559.908" y="304.628" fill="#505050"/><use xlink:href="#B" x="562.248" y="304.628" fill="#505050"/><path d="M361.559 262.922H355.8M338.52 262.922h5.761" fill="none" stroke-width=".36000000000000004" stroke-linecap="round" stroke-linejoin="round" stroke="maroon" stroke-miterlimit="10"/><path d="M344.281 264.898h11.52M355.8 260.879h-11.519M355.8 264.898v-4.02M344.281 264.898v-4.02" fill="none" stroke-width=".6000000000000001" stroke-linecap="round" stroke-linejoin="round" stroke="maroon" stroke-miterlimit="10"/><path d="M430.68 262.922h-5.758M407.64 262.922h5.758" fill="none" stroke-width=".36000000000000004" stroke-linecap="round" stroke-linejoin="round" stroke="maroon" stroke-miterlimit="10"/><path d="M413.398 264.898h11.524M424.922 260.879h-11.524M424.922 264.898v-4.02M413.398 264.898v-4.02" fill="none" stroke-width=".6000000000000001" stroke-linecap="round" stroke-linejoin="round" stroke="maroon" stroke-miterlimit="10"/><path d="M384.602 291.66v5.762M384.602 314.7v-5.759" fill="none" stroke-width=".36000000000000004" stroke-linecap="round" stroke-linejoin="round" stroke="maroon" stroke-miterlimit="10"/><path d="M386.64 308.941v-11.52M382.621 297.422v11.52M386.64 297.422h-4.019M386.64 308.941h-4.019" fill="none" stroke-width=".6000000000000001" stroke-linecap="round" stroke-linejoin="round" stroke="maroon" stroke-miterlimit="10"/><path d="M384.602 326.219v5.761M384.602 349.2v-5.759" fill="none" stroke-width=".36000000000000004" stroke-linecap="round" stroke-linejoin="round" stroke="maroon" stroke-miterlimit="10"/><path d="M386.64 343.441v-11.46M382.621 331.98v11.461M386.64 331.98h-4.019M386.64 343.441h-4.019M378.84 261.18h11.52M390.36 264.66h-11.52" fill="none" stroke-width=".6000000000000001" stroke-linecap="round" stroke-linejoin="round" stroke="maroon" stroke-miterlimit="10"/><path d="M384.602 268.68v-2.04" fill="none" stroke-width=".36000000000000004" stroke-linecap="round" stroke-linejoin="round" stroke="maroon" stroke-miterlimit="10"/><path d="M378.84 264.66v-3.48M390.36 261.18v3.48" fill="none" stroke-width=".6000000000000001" stroke-linecap="round" stroke-linejoin="round" stroke="maroon" stroke-miterlimit="10"/><path d="M390.36 257.16h-4.622M385.738 257.16l2.34-1.14M385.738 257.16l2.34 1.14M396.121 262.922h-5.762M373.078 262.922h5.762M384.602 266.64l-3.961-7.98M381.66 258l-2.582-2.34M379.078 255.66l.48 3.418M381.66 258l-2.101 1.078" fill="none" stroke-width=".36000000000000004" stroke-linecap="round" stroke-linejoin="round" stroke="maroon" stroke-miterlimit="10"/><use xlink:href="#B" x="309.702" y="302.471" fill="maroon"/><path d="M321.3 297.422h-4.081M309.781 297.422h3.719" fill="none" stroke-width=".36000000000000004" stroke-linecap="round" stroke-linejoin="round" stroke="maroon" stroke-miterlimit="10"/><path d="M316.078 302.04h1.442v-9.24h-1.442zm0 0" fill="maroon" stroke-width=".12" stroke-linecap="round" stroke-linejoin="round" stroke="maroon" stroke-miterlimit="10"/><path d="M313.5 301.922h1.441M314.941 301.922v-8.942M314.941 292.98H313.5M313.5 292.98v4.442M313.5 297.422v4.5" fill="none" stroke-width=".30000000000000004" stroke-linecap="round" stroke-linejoin="round" stroke="maroon" stroke-miterlimit="10"/><use xlink:href="#B" x="390.304" y="325.488" fill="maroon"/><path d="M401.879 320.46h-4.02M390.36 320.46h3.718" fill="none" stroke-width=".36000000000000004" stroke-linecap="round" stroke-linejoin="round" stroke="maroon" stroke-miterlimit="10"/><path d="M396.719 325.078h1.441v-9.238h-1.441zm0 0" fill="maroon" stroke-width=".12" stroke-linecap="round" stroke-linejoin="round" stroke="maroon" stroke-miterlimit="10"/><path d="M394.078 324.898h1.442M395.52 324.898v-8.878M395.52 316.02h-1.442M394.078 316.02v4.44M394.078 320.46v4.438" fill="none" stroke-width=".30000000000000004" stroke-linecap="round" stroke-linejoin="round" stroke="maroon" stroke-miterlimit="10"/><use xlink:href="#B" x="442.119" y="267.945" fill="maroon"/><path d="M453.719 262.922h-4.078M442.2 262.922h3.722" fill="none" stroke-width=".36000000000000004" stroke-linecap="round" stroke-linejoin="round" stroke="maroon" stroke-miterlimit="10"/><path d="M448.5 267.54h1.441v-9.24H448.5zm0 0" fill="maroon" stroke-width=".12" stroke-linecap="round" stroke-linejoin="round" stroke="maroon" stroke-miterlimit="10"/><path d="M445.922 267.36h1.437M447.36 267.36v-8.938M447.36 258.422h-1.438M445.922 258.422v4.5M445.922 262.922v4.437" fill="none" stroke-width=".30000000000000004" stroke-linecap="round" stroke-linejoin="round" stroke="maroon" stroke-miterlimit="10"/><path d="M459.48 280.14v5.758M459.48 303.18v-5.758" fill="none" stroke-width=".36000000000000004" stroke-linecap="round" stroke-linejoin="round" stroke="maroon" stroke-miterlimit="10"/><path d="M461.46 297.422v-11.524M457.441 285.898v11.524M461.46 285.898h-4.019M461.46 297.422h-4.019" fill="none" stroke-width=".6000000000000001" stroke-linecap="round" stroke-linejoin="round" stroke="maroon" stroke-miterlimit="10"/><use xlink:href="#B" x="493.934" y="267.945" fill="maroon"/><path d="M505.5 262.922h-4.02M493.98 262.922h3.782" fill="none" stroke-width=".36000000000000004" stroke-linecap="round" stroke-linejoin="round" stroke="maroon" stroke-miterlimit="10"/><path d="M500.34 267.54h1.441v-9.24h-1.441zm0 0" fill="maroon" stroke-width=".12" stroke-linecap="round" stroke-linejoin="round" stroke="maroon" stroke-miterlimit="10"/><path d="M497.762 267.36h1.437M499.2 267.36v-8.938M499.2 258.422h-1.438M497.762 258.422v4.5M497.762 262.922v4.437" fill="none" stroke-width=".30000000000000004" stroke-linecap="round" stroke-linejoin="round" stroke="maroon" stroke-miterlimit="10"/><path d="M378.84 362.46h11.52M390.36 358.98h-11.52" fill="none" stroke-width=".6000000000000001" stroke-linecap="round" stroke-linejoin="round" stroke="maroon" stroke-miterlimit="10"/><path d="M384.602 354.96V357" fill="none" stroke-width=".36000000000000004" stroke-linecap="round" stroke-linejoin="round" stroke="maroon" stroke-miterlimit="10"/><path d="M378.84 358.98v3.48M390.36 362.46v-3.48" fill="none" stroke-width=".6000000000000001" stroke-linecap="round" stroke-linejoin="round" stroke="maroon" stroke-miterlimit="10"/><path d="M390.36 366.48h-4.622M385.738 366.48l2.34 1.141M385.738 366.48l2.34-1.14M396.121 360.719h-5.762M373.078 360.719h5.762M384.602 357l-3.961 7.98M381.66 365.64l-2.582 2.34M379.078 367.98l.48-3.421M381.66 365.64l-2.101-1.081M430.68 320.46h-5.758M407.64 320.46h5.758" fill="none" stroke-width=".36000000000000004" stroke-linecap="round" stroke-linejoin="round" stroke="maroon" stroke-miterlimit="10"/><path d="M413.398 322.441h11.524M424.922 318.422h-11.524M424.922 322.441v-4.02M413.398 322.441v-4.02" fill="none" stroke-width=".6000000000000001" stroke-linecap="round" stroke-linejoin="round" stroke="maroon" stroke-miterlimit="10"/><path d="M482.46 314.7l-5.581 2.82M480.059 323.52l1.14 2.039M481.2 325.559l-2.34.3M478.86 325.86l1.199-2.34M482.46 326.219l-1.26-.66M481.2 325.559l-3.778-1.86" fill="none" stroke-width=".36000000000000004" stroke-linecap="round" stroke-linejoin="round" stroke="maroon" stroke-miterlimit="10"/><path d="M479.46 325.559l1.321-.118M480.781 325.441l-.722-1.32" fill="none" stroke-width=".7200000000000001" stroke-linecap="round" stroke-linejoin="round" stroke="maroon" stroke-miterlimit="10"/><path d="M480.059 324.121l-.598 1.14M479.46 325.262h.84M480.3 325.262l-.241-.543" fill="none" stroke-width=".6000000000000001" stroke-linecap="round" stroke-linejoin="round" stroke="maroon" stroke-miterlimit="10"/><path d="M475.621 326.219h1.68v-11.52h-1.68zm0 0" fill="maroon" stroke-width=".12" stroke-linecap="round" stroke-linejoin="round" stroke="maroon" stroke-miterlimit="10"/><path d="M470.941 320.46h5.758M482.46 331.98v-5.761M482.46 308.941v5.758" fill="none" stroke-width=".36000000000000004" stroke-linecap="round" stroke-linejoin="round" stroke="maroon" stroke-miterlimit="10"/><path d="M487.738 320.46a8.159 8.159 0 1 1-16.316 0 8.158 8.158 0 1 1 16.316 0zm0 0" fill="none" stroke-width=".9" stroke-linecap="round" stroke-linejoin="round" stroke="maroon" stroke-miterlimit="10"/><path d="M485.34 235.559l-2.88-4.32M482.46 231.238l-2.882 4.32" fill="none" stroke-width=".6000000000000001" stroke-linecap="round" stroke-linejoin="round" stroke="maroon" stroke-miterlimit="10"/><path d="M482.46 237v-5.762" fill="none" stroke-width=".36000000000000004" stroke-linecap="round" stroke-linejoin="round" stroke="maroon" stroke-miterlimit="10"/><path d="M478.738 360.719h7.5" fill="none" stroke-width=".6000000000000001" stroke-linecap="round" stroke-linejoin="round" stroke="maroon" stroke-miterlimit="10"/><path d="M482.46 354.96v5.759" fill="none" stroke-width=".36000000000000004" stroke-linecap="round" stroke-linejoin="round" stroke="maroon" stroke-miterlimit="10"/><path d="M480.18 361.86h4.62M481.621 363.059h1.738M515.281 308.941v-11.52M518.762 297.422v11.52" fill="none" stroke-width=".6000000000000001" stroke-linecap="round" stroke-linejoin="round" stroke="maroon" stroke-miterlimit="10"/><path d="M522.781 303.18h-2.043" fill="none" stroke-width=".36000000000000004" stroke-linecap="round" stroke-linejoin="round" stroke="maroon" stroke-miterlimit="10"/><path d="M518.762 308.941h-3.48M515.281 297.422h3.48" fill="none" stroke-width=".6000000000000001" stroke-linecap="round" stroke-linejoin="round" stroke="maroon" stroke-miterlimit="10"/><path d="M511.262 297.422v4.617M511.262 302.04l-1.14-2.278M511.262 302.04l1.136-2.278M517.02 291.66v5.762M517.02 314.7v-5.759M520.738 303.18l-7.976 3.96M512.102 306.121l-2.34 2.64M509.762 308.762l3.418-.48M512.102 306.121l1.078 2.16" fill="none" stroke-width=".36000000000000004" stroke-linecap="round" stroke-linejoin="round" stroke="maroon" stroke-miterlimit="10"/><path d="M298.262 314.7H292.5" fill="none" stroke-width=".6000000000000001" stroke-linecap="round" stroke-linejoin="round" stroke="maroon" stroke-miterlimit="10"/><path d="M286.441 314.7l.118-.9.363-.84.598-.66.78-.48.84-.242h.9l.901.242.72.48.6.66.419.84.12.9-.12.902-.418.777-.602.723-.719.476-.902.242h-.898l-.84-.242-.781-.476-.598-.723-.363-.777-.118-.903h.598l.063-.719.359-.66.48-.601.598-.36.723-.238h.718l.72.238.6.36.481.601.297.66.121.72-.12.722-.298.656-.48.602-.602.36-.719.241h-.718l-.723-.242-.598-.36-.48-.6-.36-.657-.062-.723h-.598" fill-rule="evenodd" fill="maroon"/><path d="M286.441 314.7l.118-.9.363-.84.598-.66.78-.48.84-.242h.9l.901.242.72.48.6.66.419.84.12.9-.12.902-.418.777-.602.723-.719.476-.902.242h-.898l-.84-.242-.781-.476-.598-.723-.363-.777-.118-.903h.598l.063-.719.359-.66.48-.601.598-.36.723-.238h.718l.72.238.6.36.481.601.297.66.121.72-.12.722-.298.656-.48.602-.602.36-.719.241h-.718l-.723-.242-.598-.36-.48-.6-.36-.657-.062-.723zm0 0" fill="none" stroke-width=".12" stroke-linecap="round" stroke-linejoin="round" stroke="maroon" stroke-miterlimit="10"/><path d="M298.262 297.422H292.5" fill="none" stroke-width=".6000000000000001" stroke-linecap="round" stroke-linejoin="round" stroke="maroon" stroke-miterlimit="10"/><path d="M286.441 297.422l.118-.902.363-.782.598-.718.78-.48.84-.24h.9l.901.24.72.48.6.718.419.782.12.902-.12.898-.418.84-.602.66-.719.48-.902.24h-.898l-.84-.24-.781-.48-.598-.66-.363-.84-.118-.898h.598l.063-.723.359-.66.48-.539.598-.422.723-.238h.718l.72.238.6.422.481.54.297.66.121.722-.12.719-.298.718-.48.54-.602.363-.719.238h-.718l-.723-.238-.598-.364-.48-.539-.36-.718-.062-.72h-.598" fill-rule="evenodd" fill="maroon"/><path d="M286.441 297.422l.118-.902.363-.782.598-.718.78-.48.84-.24h.9l.901.24.72.48.6.718.419.782.12.902-.12.898-.418.84-.602.66-.719.48-.902.24h-.898l-.84-.24-.781-.48-.598-.66-.363-.84-.118-.898h.598l.063-.723.359-.66.48-.539.598-.422.723-.238h.718l.72.238.6.422.481.54.297.66.121.722-.12.719-.298.718-.48.54-.602.363-.719.238h-.718l-.723-.238-.598-.364-.48-.539-.36-.718-.062-.72zm0 0" fill="none" stroke-width=".12" stroke-linecap="round" stroke-linejoin="round" stroke="maroon" stroke-miterlimit="10"/><path d="M367.32 280.14v-4.019M367.32 268.68v4.02" fill="none" stroke-width=".36000000000000004" stroke-linecap="round" stroke-linejoin="round" stroke="maroon" stroke-miterlimit="10"/><path d="M363.3 276.18h8.04v-1.2h-8.04zm0 0M363.3 273.84h8.04v-1.2h-8.04zm0 0" fill="maroon" stroke-width=".12" stroke-linecap="round" stroke-linejoin="round" stroke="maroon" stroke-miterlimit="10"/><path d="M401.879 280.14v-4.019M401.879 268.68v4.02" fill="none" stroke-width=".36000000000000004" stroke-linecap="round" stroke-linejoin="round" stroke="maroon" stroke-miterlimit="10"/><path d="M397.86 276.18h8.038v-1.2h-8.039zm0 0M397.86 273.84h8.038v-1.2h-8.039zm0 0" fill="maroon" stroke-width=".12" stroke-linecap="round" stroke-linejoin="round" stroke="maroon" stroke-miterlimit="10"/><path d="M540.059 320.46h5.761" fill="none" stroke-width=".6000000000000001" stroke-linecap="round" stroke-linejoin="round" stroke="maroon" stroke-miterlimit="10"/><path d="M545.52 320.46l.12-.901.36-.84.602-.66.777-.48.84-.24h.902l.899.24.718.48.602.66.36.84.179.902-.18.898-.36.782-.6.718-.72.48-.898.24h-.902l-.84-.24-.777-.48-.602-.718-.36-.782-.12-.898h.601l.059-.723.36-.66.48-.598.601-.359.719-.242h.719l.722.242.598.36.48.597.301.66.121.723-.12.719-.302.66-.48.539-.598.422-.722.238h-.72l-.718-.238-.601-.422-.48-.54-.36-.66-.059-.718h-.601" fill-rule="evenodd" fill="maroon"/><path d="M545.52 320.46l.12-.901.36-.84.602-.66.777-.48.84-.24h.902l.899.24.718.48.602.66.36.84.179.902-.18.898-.36.782-.6.718-.72.48-.898.24h-.902l-.84-.24-.777-.48-.602-.718-.36-.782-.12-.898h.601l.059-.723.36-.66.48-.598.601-.359.719-.242h.719l.722.242.598.36.48.597.301.66.121.723-.12.719-.302.66-.48.539-.598.422-.722.238h-.72l-.718-.238-.601-.422-.48-.54-.36-.66-.059-.718zm0 0" fill="none" stroke-width=".12" stroke-linecap="round" stroke-linejoin="round" stroke="maroon" stroke-miterlimit="10"/><path d="M540.059 303.18h5.761" fill="none" stroke-width=".6000000000000001" stroke-linecap="round" stroke-linejoin="round" stroke="maroon" stroke-miterlimit="10"/><path d="M545.52 303.18l.12-.899.36-.781.602-.719.777-.48.84-.242h.902l.899.242.718.48.602.719.36.781.179.899-.18.898-.36.844-.6.656-.72.48-.898.243h-.902l-.84-.242-.777-.48-.602-.657-.36-.844-.12-.898h.601l.059-.72.36-.66.48-.538.601-.422.719-.238h.719l.722.238.598.422.48.539.301.66.121.719-.12.718-.302.66-.48.602-.598.36-.722.242h-.72l-.718-.242-.601-.36-.48-.601-.36-.66-.059-.72h-.601" fill-rule="evenodd" fill="maroon"/><path d="M545.52 303.18l.12-.899.36-.781.602-.719.777-.48.84-.242h.902l.899.242.718.48.602.719.36.781.179.899-.18.898-.36.844-.6.656-.72.48-.898.243h-.902l-.84-.242-.777-.48-.602-.657-.36-.844-.12-.898h.601l.059-.72.36-.66.48-.538.601-.422.719-.238h.719l.722.238.598.422.48.539.301.66.121.719-.12.718-.302.66-.48.602-.598.36-.722.242h-.72l-.718-.242-.601-.36-.48-.601-.36-.66-.059-.72zm0 0" fill="none" stroke-width=".12" stroke-linecap="round" stroke-linejoin="round" stroke="maroon" stroke-miterlimit="10"/><path d="M306 326.219h7.5" fill="none" stroke-width=".6000000000000001" stroke-linecap="round" stroke-linejoin="round" stroke="maroon" stroke-miterlimit="10"/><path d="M309.781 320.46v5.759" fill="none" stroke-width=".36000000000000004" stroke-linecap="round" stroke-linejoin="round" stroke="maroon" stroke-miterlimit="10"/><path d="M307.441 327.36h4.618M308.879 328.5h1.742M530.578 331.98h7.442" fill="none" stroke-width=".6000000000000001" stroke-linecap="round" stroke-linejoin="round" stroke="maroon" stroke-miterlimit="10"/><path d="M534.3 326.219v5.761" fill="none" stroke-width=".36000000000000004" stroke-linecap="round" stroke-linejoin="round" stroke="maroon" stroke-miterlimit="10"/><path d="M532.02 333.121h4.558M533.46 334.262h1.68" fill="none" stroke-width=".6000000000000001" stroke-linecap="round" stroke-linejoin="round" stroke="maroon" stroke-miterlimit="10"/><path d="M361.559 262.922h5.761M367.32 262.922h5.758M367.32 268.68v-5.758" fill="none" stroke-width=".36000000000000004" stroke-linecap="round" stroke-linejoin="round" stroke="green" stroke-miterlimit="10"/><path d="M368.46 262.922c0 .629-.51 1.137-1.14 1.137a1.139 1.139 0 1 1 0-2.278c.63 0 1.14.508 1.14 1.14" fill-rule="evenodd" fill="green"/><path d="M368.46 262.922c0 .629-.51 1.137-1.14 1.137a1.139 1.139 0 1 1 0-2.278c.63 0 1.14.508 1.14 1.14zm0 0" fill="none" stroke-width=".12" stroke-linecap="round" stroke-linejoin="round" stroke="green" stroke-miterlimit="10"/><path d="M396.121 262.922h5.758M401.879 262.922h5.762M401.879 268.68v-5.758" fill="none" stroke-width=".36000000000000004" stroke-linecap="round" stroke-linejoin="round" stroke="green" stroke-miterlimit="10"/><path d="M403.02 262.922c0 .629-.508 1.137-1.141 1.137a1.139 1.139 0 1 1 0-2.278c.633 0 1.14.508 1.14 1.14" fill-rule="evenodd" fill="green"/><path d="M403.02 262.922c0 .629-.508 1.137-1.141 1.137a1.139 1.139 0 1 1 0-2.278c.633 0 1.14.508 1.14 1.14zm0 0" fill="none" stroke-width=".12" stroke-linecap="round" stroke-linejoin="round" stroke="green" stroke-miterlimit="10"/><path d="M384.602 268.68v17.218M384.602 285.898v5.762M367.32 280.14v5.758M367.32 285.898h17.282" fill="none" stroke-width=".36000000000000004" stroke-linecap="round" stroke-linejoin="round" stroke="green" stroke-miterlimit="10"/><path d="M385.738 285.898c0 .633-.508 1.141-1.136 1.141-.633 0-1.141-.508-1.141-1.14 0-.63.508-1.137 1.14-1.137.63 0 1.137.508 1.137 1.136" fill-rule="evenodd" fill="green"/><path d="M385.738 285.898c0 .633-.508 1.141-1.136 1.141-.633 0-1.141-.508-1.141-1.14 0-.63.508-1.137 1.14-1.137.63 0 1.137.508 1.137 1.136zm0 0" fill="none" stroke-width=".12" stroke-linecap="round" stroke-linejoin="round" stroke="green" stroke-miterlimit="10"/><path d="M401.879 280.14v5.758M401.879 285.898h-17.277M384.602 314.7v5.76M384.602 320.46v5.759M390.36 320.46h-5.758" fill="none" stroke-width=".36000000000000004" stroke-linecap="round" stroke-linejoin="round" stroke="green" stroke-miterlimit="10"/><path d="M385.738 320.46a1.139 1.139 0 1 1-2.277 0c0-.632.508-1.14 1.14-1.14.63 0 1.137.508 1.137 1.14" fill-rule="evenodd" fill="green"/><path d="M385.738 320.46a1.139 1.139 0 1 1-2.277 0c0-.632.508-1.14 1.14-1.14.63 0 1.137.508 1.137 1.14zm0 0" fill="none" stroke-width=".12" stroke-linecap="round" stroke-linejoin="round" stroke="green" stroke-miterlimit="10"/><path d="M384.602 349.2v5.76M401.879 320.46h5.762M396.121 360.719h40.32M436.441 360.719v-97.797M436.441 262.922h5.758M430.68 262.922h5.761" fill="none" stroke-width=".36000000000000004" stroke-linecap="round" stroke-linejoin="round" stroke="green" stroke-miterlimit="10"/><path d="M437.578 262.922a1.139 1.139 0 1 1-1.137-1.14c.63 0 1.137.507 1.137 1.14" fill-rule="evenodd" fill="green"/><path d="M437.578 262.922a1.139 1.139 0 1 1-1.137-1.14c.63 0 1.137.507 1.137 1.14zm0 0" fill="none" stroke-width=".12" stroke-linecap="round" stroke-linejoin="round" stroke="green" stroke-miterlimit="10"/><path d="M430.68 320.46h28.8M459.48 320.46h11.461M459.48 303.18v17.28" fill="none" stroke-width=".36000000000000004" stroke-linecap="round" stroke-linejoin="round" stroke="green" stroke-miterlimit="10"/><path d="M460.621 320.46c0 .63-.512 1.142-1.14 1.142-.63 0-1.141-.512-1.141-1.141a1.14 1.14 0 1 1 2.281 0" fill-rule="evenodd" fill="green"/><path d="M460.621 320.46c0 .63-.512 1.142-1.14 1.142-.63 0-1.141-.512-1.141-1.141a1.14 1.14 0 1 1 2.281 0zm0 0" fill="none" stroke-width=".12" stroke-linecap="round" stroke-linejoin="round" stroke="green" stroke-miterlimit="10"/><path d="M482.46 331.98v11.461M482.46 343.441v11.52M482.46 343.441h34.56M517.02 343.441V314.7" fill="none" stroke-width=".36000000000000004" stroke-linecap="round" stroke-linejoin="round" stroke="green" stroke-miterlimit="10"/><path d="M483.602 343.441c0 .63-.512 1.137-1.141 1.137-.633 0-1.14-.508-1.14-1.137 0-.632.507-1.14 1.14-1.14.629 0 1.14.508 1.14 1.14" fill-rule="evenodd" fill="green"/><path d="M483.602 343.441c0 .63-.512 1.137-1.141 1.137-.633 0-1.14-.508-1.14-1.137 0-.632.507-1.14 1.14-1.14.629 0 1.14.508 1.14 1.14zm0 0" fill="none" stroke-width=".12" stroke-linecap="round" stroke-linejoin="round" stroke="green" stroke-miterlimit="10"/><path d="M309.781 320.46v-5.76M309.781 314.7h-11.52M534.3 326.219v-5.758M534.3 320.46h5.759M517.02 291.66v-28.738M517.02 262.922H505.5M453.719 262.922h5.761M459.48 262.922h22.98M482.46 262.922h11.52M459.48 262.922v17.219" fill="none" stroke-width=".36000000000000004" stroke-linecap="round" stroke-linejoin="round" stroke="green" stroke-miterlimit="10"/><path d="M460.621 262.922c0 .629-.512 1.137-1.14 1.137a1.139 1.139 0 1 1 0-2.278c.628 0 1.14.508 1.14 1.14" fill-rule="evenodd" fill="green"/><path d="M460.621 262.922c0 .629-.512 1.137-1.14 1.137a1.139 1.139 0 1 1 0-2.278c.628 0 1.14.508 1.14 1.14zm0 0" fill="none" stroke-width=".12" stroke-linecap="round" stroke-linejoin="round" stroke="green" stroke-miterlimit="10"/><path d="M482.46 237v25.922" fill="none" stroke-width=".36000000000000004" stroke-linecap="round" stroke-linejoin="round" stroke="green" stroke-miterlimit="10"/><path d="M483.602 262.922c0 .629-.512 1.137-1.141 1.137-.633 0-1.14-.508-1.14-1.137 0-.633.507-1.14 1.14-1.14.629 0 1.14.507 1.14 1.14" fill-rule="evenodd" fill="green"/><path d="M483.602 262.922c0 .629-.512 1.137-1.141 1.137-.633 0-1.14-.508-1.14-1.137 0-.633.507-1.14 1.14-1.14.629 0 1.14.507 1.14 1.14zm0 0" fill="none" stroke-width=".12" stroke-linecap="round" stroke-linejoin="round" stroke="green" stroke-miterlimit="10"/><path d="M482.46 262.922v46.02M338.52 262.922h-5.7M332.82 262.922v34.5M332.82 297.422H321.3M332.82 297.422v63.297" fill="none" stroke-width=".36000000000000004" stroke-linecap="round" stroke-linejoin="round" stroke="green" stroke-miterlimit="10"/><path d="M333.96 297.422c0 .629-.51 1.137-1.14 1.137a1.139 1.139 0 1 1 0-2.278c.63 0 1.14.508 1.14 1.14" fill-rule="evenodd" fill="green"/><path d="M333.96 297.422c0 .629-.51 1.137-1.14 1.137a1.139 1.139 0 1 1 0-2.278c.63 0 1.14.508 1.14 1.14zm0 0" fill="none" stroke-width=".12" stroke-linecap="round" stroke-linejoin="round" stroke="green" stroke-miterlimit="10"/><path d="M332.82 360.719h40.258M309.781 297.422h-11.52M540.059 303.18H522.78" fill="none" stroke-width=".36000000000000004" stroke-linecap="round" stroke-linejoin="round" stroke="green" stroke-miterlimit="10"/></svg>