<svg xmlns="http://www.w3.org/2000/svg" xmlns:xlink="http://www.w3.org/1999/xlink" width="842pt" height="595pt" viewBox="0 0 842 595"><defs><symbol overflow="visible" id="a"><path d="M2.094-1H1.75v1h-.375v-1H.078v-.422l1.313-1.5h.359v1.61h.344zm-.719-.313v-1.14l-.984 1.14zm0 0"/></symbol><symbol overflow="visible" id="b"><path d="M.844 0H.375v-.563h.469zm0 0"/></symbol><symbol overflow="visible" id="c"><path d="M2.047-2.484L.78 0H.36l1.344-2.578H.187v-.344h1.86zm0 0"/></symbol><symbol overflow="visible" id="d"><path d="M2.11-1.156c0 .367-.09.656-.266.875-.18.219-.399.328-.657.328A.83.83 0 0 1 .891 0a.74.74 0 0 1-.25-.11v.922H.266v-3H.64v.235c.082-.082.18-.156.296-.219a.907.907 0 0 1 .375-.078c.25 0 .442.102.579.297.144.2.218.465.218.797zm-.391.047c0-.25-.04-.442-.11-.579a.425.425 0 0 0-.39-.218c-.106.011-.211.039-.313.078a1.143 1.143 0 0 0-.265.172v1.25c.093.043.175.074.25.094.062.023.14.03.234.03.188 0 .332-.07.438-.218.101-.133.156-.336.156-.61zm0 0"/></symbol><symbol overflow="visible" id="e"><path d="M2.047-2.578H.687v.828h1.297v.344H.688V0H.296v-2.922h1.75zm0 0"/></symbol><symbol overflow="visible" id="f"><path d="M1.86 0H.436v-.297H.97V-2.25H.438v-.266c.195 0 .347-.03.453-.093.093-.051.144-.157.156-.313h.297v2.625h.515zm0 0"/></symbol><symbol overflow="visible" id="g"><path d="M1.984 0h-.359v-1.25c0-.094-.008-.188-.016-.281a.566.566 0 0 0-.062-.203.382.382 0 0 0-.125-.125 1.042 1.042 0 0 0-.219-.047.589.589 0 0 0-.281.078c-.106.055-.2.117-.281.187V0H.266v-2.188H.64v.235a1.42 1.42 0 0 1 .312-.219.831.831 0 0 1 .344-.078c.219 0 .39.07.516.203.113.149.171.356.171.625zm0 0"/></symbol><symbol overflow="visible" id="h"><path d="M2.078 0h-.484L.78-1.063l-.14.141V0H.266v-3.047H.64v1.781l.859-.921h.453l-.89.906zm0 0"/></symbol><symbol overflow="visible" id="i"><path d="M2.031-1.453c0 .523-.078.902-.234 1.14-.149.25-.383.376-.703.376C.77.063.535-.064.39-.314.234-.563.156-.94.156-1.452c0-.531.078-.914.235-1.156.156-.25.39-.375.703-.375.32 0 .554.132.703.39.156.25.234.633.234 1.14zm-.5.875a2.32 2.32 0 0 0 .078-.36 9.314 9.314 0 0 0 0-1.046 2.427 2.427 0 0 0-.078-.36.573.573 0 0 0-.172-.234.414.414 0 0 0-.265-.078.446.446 0 0 0-.266.078.512.512 0 0 0-.172.234 1.997 1.997 0 0 0-.078.375 6.995 6.995 0 0 0-.015.516c0 .2.003.371.015.516.008.136.035.257.078.359.04.105.098.183.172.234.063.055.149.078.266.078a.436.436 0 0 0 .265-.078.525.525 0 0 0 .172-.234zm0 0"/></symbol><symbol overflow="visible" id="p"><path d="M2.063-.953c0 .156-.028.297-.079.422-.054.125-.12.23-.203.312a.723.723 0 0 1-.297.203.78.78 0 0 1-.343.079C1.004.063.883.038.78 0a.891.891 0 0 1-.297-.203A1.194 1.194 0 0 1 .25-.625a2.253 2.253 0 0 1-.078-.656c0-.25.023-.477.078-.688.05-.207.129-.383.234-.531.102-.145.239-.258.407-.344.164-.082.359-.125.578-.125h.187c.063.012.114.024.157.031v.376h-.016a.676.676 0 0 0-.156-.047.87.87 0 0 0-.22-.032.784.784 0 0 0-.593.25c-.148.168-.234.414-.265.735.093-.063.19-.114.296-.157a.973.973 0 0 1 .313-.046c.113 0 .21.011.297.03a.792.792 0 0 1 .515.438c.051.125.079.274.079.438zm-.407.015a.861.861 0 0 0-.047-.296.5.5 0 0 0-.14-.204.735.735 0 0 0-.172-.093c-.074-.008-.14-.016-.203-.016a.745.745 0 0 0-.266.047 1.272 1.272 0 0 0-.265.125v.172c0 .21.019.375.062.5.04.125.086.219.14.281.051.063.11.106.172.125a.326.326 0 0 0 .204.031c.156 0 .28-.05.375-.156.093-.113.14-.285.14-.516zm0 0"/></symbol><symbol overflow="visible" id="q"><path d="M1.281-1.094H.171v-.36h1.11zm0 0"/></symbol><symbol overflow="visible" id="r"><path d="M1.984-.922c0 .137-.023.266-.062.39a1.304 1.304 0 0 1-.203.313.757.757 0 0 1-.297.203c-.125.051-.262.079-.406.079C.867.063.726.046.594.015A1.216 1.216 0 0 1 .25-.11v-.407h.016c.03.024.078.047.14.079.051.023.114.046.188.078.07.023.14.043.203.062.062.012.133.016.219.016.07 0 .148-.016.234-.047a.389.389 0 0 0 .188-.125.604.604 0 0 0 .109-.203c.02-.07.031-.164.031-.281a.868.868 0 0 0-.031-.25.491.491 0 0 0-.125-.157.644.644 0 0 0-.203-.11 1.265 1.265 0 0 0-.282-.03c-.105 0-.21.007-.312.015-.117.024-.203.04-.266.047v-1.5h1.61v.344H.734v.781c.051-.008.098-.016.141-.016H1c.156 0 .285.012.39.032.094.031.192.078.298.14a.782.782 0 0 1 .218.282c.051.117.078.261.078.437zm0 0"/></symbol><symbol overflow="visible" id="s"><path d="M2.016 0H.219v-.406l.36-.36c.112-.101.226-.218.343-.343.219-.25.367-.446.453-.594.07-.145.113-.297.125-.453a.487.487 0 0 0-.047-.219.602.602 0 0 0-.11-.156.629.629 0 0 0-.344-.11.822.822 0 0 0-.218.032.685.685 0 0 0-.203.062 1.166 1.166 0 0 0-.156.078c-.055.031-.094.059-.125.078H.28v-.406c.07-.039.18-.082.328-.125.145-.039.286-.062.422-.062.258 0 .469.074.625.218.157.149.235.344.235.594 0 .117-.012.219-.032.313-.03.093-.07.183-.109.265a2.195 2.195 0 0 1-.188.25 4.057 4.057 0 0 1-.203.25 7.154 7.154 0 0 1-.421.422 7.96 7.96 0 0 1-.36.344h1.438zm0 0"/></symbol><symbol overflow="visible" id="t"><path d="M1.11.047a1.449 1.449 0 0 1-.532-.063 2.058 2.058 0 0 1-.422-.156v-.484h.016c.133.117.281.21.437.281.164.063.32.094.47.094.218 0 .378-.047.484-.14a.4.4 0 0 0 .171-.345.489.489 0 0 0-.093-.296.604.604 0 0 0-.266-.157c-.094-.02-.18-.039-.25-.062a5.878 5.878 0 0 0-.281-.063 1.134 1.134 0 0 1-.266-.11.743.743 0 0 1-.219-.155.588.588 0 0 1-.14-.235.83.83 0 0 1-.047-.297c0-.226.094-.425.281-.593.176-.157.41-.235.703-.235.157 0 .313.016.469.047.145.031.281.078.406.14v.47H2a1.788 1.788 0 0 0-.36-.235 1.148 1.148 0 0 0-.452-.094c-.188 0-.336.043-.438.125a.4.4 0 0 0-.172.344c0 .125.031.227.094.297a.518.518 0 0 0 .281.156c.082.024.188.047.313.078.113.024.21.047.296.079.196.062.344.152.438.265a.76.76 0 0 1 .14.469.725.725 0 0 1-.078.328.661.661 0 0 1-.187.281.83.83 0 0 1-.313.203c-.125.04-.277.063-.453.063zm0 0"/></symbol><symbol overflow="visible" id="u"><path d="M1.438.047a1.212 1.212 0 0 1-.532-.094A1.087 1.087 0 0 1 .5-.328a1.388 1.388 0 0 1-.281-.469 2.147 2.147 0 0 1-.094-.656c0-.25.031-.461.094-.64C.28-2.27.375-2.43.5-2.579c.113-.125.25-.223.406-.297.156-.063.332-.094.531-.094.102 0 .196.008.282.016.082.023.16.043.234.062.063.024.129.043.203.063.063.031.125.07.188.11v.468h-.031c-.032-.031-.075-.07-.126-.125-.062-.04-.132-.082-.203-.125a2.15 2.15 0 0 0-.234-.11 1.54 1.54 0 0 0-.313-.03.767.767 0 0 0-.343.078.876.876 0 0 0-.297.218.997.997 0 0 0-.188.375 1.552 1.552 0 0 0-.078.516c0 .2.024.371.078.516a.83.83 0 0 0 .188.359c.082.105.18.18.297.219a.718.718 0 0 0 .343.078.99.99 0 0 0 .313-.047A.83.83 0 0 0 2-.422a1.42 1.42 0 0 0 .313-.234h.03v.453a2.274 2.274 0 0 0-.171.094 1.023 1.023 0 0 1-.219.078C1.867 0 1.79.019 1.72.03a2.627 2.627 0 0 1-.282.016zm0 0"/></symbol><symbol overflow="visible" id="v"><path d="M1.625-1.719c0-.195-.016-.36-.047-.484a.918.918 0 0 0-.156-.297.421.421 0 0 0-.172-.125.629.629 0 0 0-.188-.031.479.479 0 0 0-.39.172c-.094.117-.14.28-.14.5a.76.76 0 0 0 .046.296.505.505 0 0 0 .156.22.25.25 0 0 0 .157.077 1.004 1.004 0 0 0 .484-.031.627.627 0 0 0 .25-.11v-.077-.11zm-1.5-.25c0-.156.023-.289.078-.406a1.08 1.08 0 0 1 .203-.328c.082-.082.18-.149.297-.203a.875.875 0 0 1 .719 0 .713.713 0 0 1 .281.187c.102.117.18.258.234.422.063.18.094.399.094.656 0 .25-.031.48-.094.688a1.639 1.639 0 0 1-.234.547c-.117.148-.25.261-.406.344a1.24 1.24 0 0 1-.578.124C.664.063.609.056.547.048A.358.358 0 0 1 .39.016V-.36h.015c.031.023.082.039.156.046a.569.569 0 0 0 .204.032c.257 0 .46-.082.609-.25.145-.164.227-.406.25-.719-.105.063-.203.11-.297.14a.825.825 0 0 1-.312.063.83.83 0 0 1-.297-.047.663.663 0 0 1-.266-.125.745.745 0 0 1-.234-.312.963.963 0 0 1-.094-.438zm0 0"/></symbol><symbol overflow="visible" id="w"><path d="M1.969 0h-.36v-.25a1.526 1.526 0 0 1-.328.234.78.78 0 0 1-.61.032.505.505 0 0 1-.218-.157.685.685 0 0 1-.156-.25A1.29 1.29 0 0 1 .25-.766v-1.421h.375v1.25c0 .117.004.21.016.28 0 .087.015.153.046.204.032.062.07.105.125.125a.78.78 0 0 0 .516-.031 1.41 1.41 0 0 0 .281-.204v-1.625h.36zm0 0"/></symbol><symbol overflow="visible" id="x"><path d="M2.422 0h-.39v-1.422H.686V0h-.39v-2.922h.39v1.14h1.344v-1.14h.39zm0 0"/></symbol><symbol overflow="visible" id="C"><path d="M1-2.64a.671.671 0 0 0-.203.03.873.873 0 0 0-.219.063.582.582 0 0 0-.156.078c-.055.031-.094.059-.125.078H.266v-.406a2.29 2.29 0 0 1 .359-.125c.133-.039.27-.062.406-.062.133 0 .25.015.344.046a.62.62 0 0 1 .266.126c.093.062.16.136.203.218.039.094.062.2.062.313a.612.612 0 0 1-.156.422.669.669 0 0 1-.375.234v.031a.919.919 0 0 1 .39.188c.051.062.098.136.141.218.04.086.063.196.063.329A.875.875 0 0 1 1.89-.5a.803.803 0 0 1-.188.297.745.745 0 0 1-.312.187c-.118.051-.25.079-.407.079C.836.063.691.046.547.015a1.814 1.814 0 0 1-.36-.141v-.406H.22C.3-.47.41-.411.547-.36a1.094 1.094 0 0 0 .656.046.559.559 0 0 0 .203-.124c.051-.063.094-.126.125-.188.02-.07.032-.16.032-.266a.687.687 0 0 0-.047-.265.491.491 0 0 0-.125-.157.446.446 0 0 0-.188-.078 1.123 1.123 0 0 0-.25-.03H.781v-.329h.14c.165 0 .306-.04.423-.125a.419.419 0 0 0 .172-.36.371.371 0 0 0-.047-.187.493.493 0 0 0-.11-.125 1.15 1.15 0 0 0-.171-.078A1.296 1.296 0 0 0 1-2.641zm0 0"/></symbol><symbol overflow="visible" id="D"><path d="M2.563 0h-.516l-.922-1.156H.687V0h-.39v-2.922h.75c.164 0 .305.012.422.031.113.024.222.063.328.125a.8.8 0 0 1 .234.25.751.751 0 0 1 .094.391c0 .219-.059.398-.172.531a.913.913 0 0 1-.437.328zm-.844-2.094a.598.598 0 0 0-.047-.234.412.412 0 0 0-.14-.156.446.446 0 0 0-.188-.079c-.074-.007-.168-.019-.282-.03H.688v1.109h.344c.102 0 .203-.008.297-.032a.459.459 0 0 0 .219-.125.38.38 0 0 0 .125-.187.66.66 0 0 0 .047-.266zm0 0"/></symbol><symbol overflow="visible" id="E"><path d="M2.61-1.125h-.985v1h-.328v-1H.313v-.313h.984v-.984h.328v.985h.984zm0 0"/></symbol><symbol overflow="visible" id="F"><path d="M2.406-2.922L1.406 0H.984l-1-2.922h.422L1.203-.5l.813-2.422zm0 0"/></symbol><symbol overflow="visible" id="G"><path d="M1.516.063c-.211 0-.399-.032-.563-.094a.962.962 0 0 1-.437-.297 1.177 1.177 0 0 1-.282-.469 1.894 1.894 0 0 1-.109-.672c0-.226.035-.437.11-.625a1.33 1.33 0 0 1 .28-.484c.114-.125.258-.223.438-.297.176-.063.363-.094.563-.094.101 0 .195.008.28.016.095.023.18.043.266.062.063.024.133.047.22.079a.829.829 0 0 1 .187.093v.469h-.031c-.043-.04-.09-.082-.141-.125a1.311 1.311 0 0 0-.219-.125c-.086-.04-.18-.07-.281-.094a1.039 1.039 0 0 0-.328-.047.798.798 0 0 0-.672.329c-.18.21-.266.492-.266.843 0 .188.024.36.078.516a.83.83 0 0 0 .188.36.745.745 0 0 0 .312.234.884.884 0 0 0 .391.078c.113 0 .223-.004.328-.016.102-.02.195-.047.281-.078v-.75h-.687v-.344h1.062v1.282c-.054.023-.117.046-.187.078-.094.03-.172.058-.235.078-.105.031-.195.05-.265.062-.074.02-.168.032-.281.032zm0 0"/></symbol><symbol overflow="visible" id="H"><path d="M2.39 0h-.437L.656-2.516V0h-.36v-2.922h.548L2.016-.609v-2.313h.375zm0 0"/></symbol><symbol overflow="visible" id="I"><path d="M2.594-1.453c0 .262-.055.5-.156.719-.106.218-.25.386-.438.5a1.33 1.33 0 0 1-.453.187A2.89 2.89 0 0 1 .969 0H.297v-2.922h.656c.281 0 .5.024.656.063.157.043.286.101.391.171.188.126.332.293.438.5.101.211.156.454.156.735zm-.406-.016c0-.218-.04-.41-.11-.578a.813.813 0 0 0-.328-.36 1.342 1.342 0 0 0-.328-.14 1.832 1.832 0 0 0-.438-.047H.688v2.266h.296c.164 0 .317-.016.454-.047a1.016 1.016 0 0 0 .656-.516c.062-.156.094-.347.094-.578zm0 0"/></symbol><symbol overflow="visible" id="M"><path d="M.984 0v-2.578H0v-.344h2.344v.344h-.985V0zm0 0"/></symbol><symbol overflow="visible" id="N"><path d="M1.984 0H.297v-2.922h.39v2.578h1.297zm0 0"/></symbol><symbol overflow="visible" id="j"><path d="M2.125.078c-.293 0-.559-.043-.797-.125a1.578 1.578 0 0 1-.61-.406 1.856 1.856 0 0 1-.405-.672 3.043 3.043 0 0 1-.126-.922c0-.332.047-.629.141-.89.082-.258.211-.485.39-.672.165-.176.368-.317.61-.422.25-.094.52-.14.813-.14.132 0 .265.01.39.03.125.024.242.047.36.079.093.03.195.07.312.109.113.055.207.094.281.125v.656h-.046a2.22 2.22 0 0 1-.22-.172 2.536 2.536 0 0 0-.688-.313 2.175 2.175 0 0 0-.452-.046c-.398 0-.719.148-.969.437-.242.305-.359.7-.359 1.188 0 .281.031.527.094.734.062.211.156.383.281.516.113.148.254.258.422.328.164.074.351.11.562.11.157 0 .305-.008.454-.032.156-.02.285-.05.39-.094v-1.062h-.937v-.484H3.5v1.796c-.074.032-.168.07-.281.11a1.69 1.69 0 0 1-.328.11c-.137.042-.258.07-.36.093-.117.02-.25.031-.406.031zm0 0"/></symbol><symbol overflow="visible" id="k"><path d="M3.344 0h-.61L.922-3.531V0h-.5v-4.094h.766L2.843-.859v-3.235h.5zm0 0"/></symbol><symbol overflow="visible" id="l"><path d="M3.656-2.047c0 .375-.078.715-.234 1.016a1.8 1.8 0 0 1-1.235.968A4.441 4.441 0 0 1 1.36 0H.422v-4.094h.922c.383 0 .691.028.922.078.207.063.39.141.546.235.27.18.477.414.626.703.144.293.218.637.218 1.031zm-.578 0c0-.32-.055-.594-.156-.812a1.194 1.194 0 0 0-.469-.532A2.058 2.058 0 0 0 2-3.578a3.486 3.486 0 0 0-.625-.047H.969v3.156h.406c.238 0 .453-.02.64-.062a1.29 1.29 0 0 0 .5-.203c.188-.133.329-.305.422-.516a2.02 2.02 0 0 0 .141-.797zm0 0"/></symbol><symbol overflow="visible" id="m"><path d="M3.672-1.578h-1.39v1.39h-.454v-1.39H.438v-.438h1.39v-1.39h.453v1.39h1.39zm0 0"/></symbol><symbol overflow="visible" id="n"><path d="M1.844.078c-.242 0-.45-.031-.625-.094a1.296 1.296 0 0 1-.469-.28 1.16 1.16 0 0 1-.297-.516 2.451 2.451 0 0 1-.094-.735v-2.547h.547v2.547c0 .2.016.36.047.484.02.125.067.243.14.344a.6.6 0 0 0 .298.25.997.997 0 0 0 .453.094c.176 0 .328-.031.453-.094a.62.62 0 0 0 .312-.25.89.89 0 0 0 .141-.344c.02-.125.031-.28.031-.468v-2.563h.547v2.547c0 .293-.027.54-.078.734-.063.211-.168.383-.313.516a1.202 1.202 0 0 1-.453.281c-.18.07-.39.102-.64.094zm0 0"/></symbol><symbol overflow="visible" id="o"><path d="M3.203-1.266c0 .211-.043.391-.125.547-.074.156-.18.29-.312.39-.149.118-.309.2-.485.25-.18.056-.406.079-.687.079H.422v-4.094H1.5c.29 0 .508.008.656.016.145.023.285.07.422.14a.904.904 0 0 1 .328.313c.063.125.094.277.094.453 0 .188-.047.36-.14.516a.997.997 0 0 1-.438.36v.015c.25.074.441.195.578.36.133.179.203.398.203.655zm-.765-1.828a.687.687 0 0 0-.047-.265.389.389 0 0 0-.157-.172.823.823 0 0 0-.296-.094 6.61 6.61 0 0 0-.454-.016H.97v1.204h.61c.175 0 .3-.008.374-.032a.565.565 0 0 0 .438-.312.893.893 0 0 0 .046-.313zm.187 1.86a1.12 1.12 0 0 0-.063-.391c-.042-.094-.132-.176-.265-.25-.086-.04-.18-.07-.281-.094a5.837 5.837 0 0 0-.438-.015h-.61V-.47h.438c.239 0 .426-.008.563-.031a.827.827 0 0 0 .593-.39.806.806 0 0 0 .063-.344zm0 0"/></symbol><symbol overflow="visible" id="y"><path d="M0-1.86v1.423h-.297V-.97H-2.25v.531h-.266c0-.195-.03-.347-.093-.453-.051-.093-.157-.144-.313-.156v-.297h2.625v-.515zm0 0"/></symbol><symbol overflow="visible" id="z"><path d="M-1.453-2.031c.523 0 .902.078 1.14.234.25.149.376.383.376.703 0 .324-.126.559-.376.703-.25.157-.628.235-1.14.235-.531 0-.914-.078-1.156-.235-.25-.156-.375-.39-.375-.703 0-.32.132-.554.39-.703.25-.156.633-.234 1.14-.234zm.875.5a2.32 2.32 0 0 0-.36-.078 9.314 9.314 0 0 0-1.046 0 2.427 2.427 0 0 0-.36.078.573.573 0 0 0-.234.172.414.414 0 0 0-.078.265c0 .106.027.196.078.266a.512.512 0 0 0 .234.172c.094.031.219.058.375.078.157.012.328.015.516.015.2 0 .371-.003.516-.015.136-.008.257-.035.359-.078a.474.474 0 0 0 .234-.172c.055-.063.078-.149.078-.266a.436.436 0 0 0-.078-.265.525.525 0 0 0-.234-.172zm0 0"/></symbol><symbol overflow="visible" id="A"><path d="M0-1.984v.359h-1.25c-.094 0-.188.008-.281.016a.566.566 0 0 0-.203.062.382.382 0 0 0-.125.125c-.02.055-.036.125-.047.219 0 .094.027.187.078.281.055.106.117.2.187.281H0v.375h-2.188V-.64h.235a1.42 1.42 0 0 1-.219-.312.831.831 0 0 1-.078-.344c0-.219.07-.39.203-.516.149-.113.356-.171.625-.171zm0 0"/></symbol><symbol overflow="visible" id="B"><path d="M-2.578-2.047v1.36h.828v-1.297h.344v1.296H0v.391h-2.922v-1.75zm0 0"/></symbol><symbol overflow="visible" id="T"><path d="M.047-1.438c.008.188-.024.368-.094.532A1.087 1.087 0 0 1-.328-.5c-.125.117-.281.21-.469.281a2.147 2.147 0 0 1-.656.094c-.25 0-.461-.031-.64-.094A1.555 1.555 0 0 1-2.579-.5a1.284 1.284 0 0 1-.297-.406 1.416 1.416 0 0 1-.094-.531c0-.102.008-.196.016-.282.023-.082.043-.16.062-.234.024-.063.043-.129.063-.203.031-.063.07-.125.11-.188h.468v.031c-.031.032-.07.075-.125.126-.04.062-.082.132-.125.203a2.15 2.15 0 0 0-.11.234c-.019.094-.03.2-.03.313 0 .125.027.242.078.343a.876.876 0 0 0 .218.297c.106.086.23.149.375.188.157.054.328.078.516.078.2 0 .371-.024.516-.078a.83.83 0 0 0 .359-.188.624.624 0 0 0 .219-.297.718.718 0 0 0 .078-.343.99.99 0 0 0-.047-.313A.83.83 0 0 0-.422-2a1.42 1.42 0 0 0-.234-.313v-.03h.453c.031.062.062.12.094.171.03.063.058.137.078.219.031.086.05.164.062.234.008.074.016.168.016.282zm0 0"/></symbol><symbol overflow="visible" id="U"><path d="M-1-2.094v.344h1v.375h-1v1.297h-.422l-1.5-1.313v-.359h1.61v-.344zm-.313.719h-1.14l1.14.984zm0 0"/></symbol><symbol overflow="visible" id="J"><path d="M-.016 0l.797-2.344h.375L1.953 0h-.328l-.219-.656h-.89L.296 0zm1.344-.922l-.36-1.11-.374 1.11zm0 0"/></symbol><symbol overflow="visible" id="K"><path d="M1.922 0h-.36L.532-2.031V0H.233v-2.344h.454l.937 1.86v-1.86h.297zm0 0"/></symbol><symbol overflow="visible" id="L"><path d="M.781 0v-2.078H0v-.266h1.89v.266h-.796V0zm0 0"/></symbol><symbol overflow="visible" id="R"><path d="M1.125-.61c0 .212-.063.368-.188.47C.813-.024.641.03.422.03.379.031.316.023.234.016a.634.634 0 0 1-.218-.032v-.296H.03a.41.41 0 0 0 .157.046.569.569 0 0 0 .203.032.681.681 0 0 0 .234-.032c.05-.02.094-.05.125-.093a.621.621 0 0 0 .047-.157c.008-.062.015-.132.015-.218V-2.11h-.5v-.235h.813zm0 0"/></symbol><symbol overflow="visible" id="S"><path d="M1.5 0H.36v-.234H.78v-1.579H.36v-.218c.157 0 .274-.02.36-.063.07-.05.113-.14.125-.265h.25v2.125H1.5zm0 0"/></symbol><symbol overflow="visible" id="O"><path d="M2.438 0H.265v-.5C.41-.645.555-.785.703-.922c.133-.133.27-.273.406-.422.27-.3.454-.539.547-.718.102-.176.157-.36.157-.547a.76.76 0 0 0-.047-.266.478.478 0 0 0-.125-.172.644.644 0 0 0-.204-.11.598.598 0 0 0-.234-.046c-.086 0-.168.012-.25.031-.094.031-.18.063-.25.094a.877.877 0 0 0-.203.094.87.87 0 0 1-.14.093H.327v-.5c.102-.05.242-.097.422-.14a1.65 1.65 0 0 1 .484-.078c.332 0 .594.09.782.265a.93.93 0 0 1 .28.703c0 .149-.015.278-.046.391-.043.117-.09.227-.14.328a2.003 2.003 0 0 1-.22.297c-.085.105-.167.203-.25.297-.156.168-.324.34-.5.516-.187.167-.335.304-.437.406h1.735zm0 0"/></symbol><symbol overflow="visible" id="P"><path d="M2.266 0H.53v-.36h.64v-2.374h-.64v-.313c.239 0 .422-.035.547-.11.113-.062.176-.19.188-.39h.359v3.188h.64zm0 0"/></symbol><symbol overflow="visible" id="Q"><path d="M1.219-3.203c-.094 0-.184.012-.266.031-.086.031-.168.063-.25.094-.074.031-.14.062-.203.094a1.097 1.097 0 0 0-.14.093H.327v-.5c.102-.05.242-.101.422-.156.176-.039.344-.062.5-.062.156 0 .297.015.422.046.113.032.223.086.328.157a.92.92 0 0 1 .234.281c.051.105.079.23.079.375 0 .188-.07.355-.204.5a.737.737 0 0 1-.453.281v.047c.07.012.149.031.235.063.082.043.16.093.234.156.07.074.133.164.188.266.039.105.062.234.062.39s-.027.305-.078.438a1.06 1.06 0 0 1-.235.359.984.984 0 0 1-.374.234 1.23 1.23 0 0 1-.485.094C1.016.078.836.055.672.016a1.616 1.616 0 0 1-.438-.157v-.5h.032c.093.075.226.141.406.204.156.062.32.093.5.093a.885.885 0 0 0 .281-.047.423.423 0 0 0 .25-.14.721.721 0 0 0 .14-.235.893.893 0 0 0 .048-.312.908.908 0 0 0-.047-.313.686.686 0 0 0-.157-.203 1.223 1.223 0 0 0-.234-.093 1.471 1.471 0 0 0-.297-.032H.953v-.39h.156c.207 0 .38-.051.516-.157a.524.524 0 0 0 .203-.437.598.598 0 0 0-.047-.235.783.783 0 0 0-.14-.156 1.565 1.565 0 0 0-.204-.078.87.87 0 0 0-.218-.031zm0 0"/></symbol><symbol overflow="visible" id="V"><path d="M0-2.438v2.172h-.5C-.645-.41-.785-.555-.922-.703c-.133-.133-.273-.27-.422-.406-.3-.27-.539-.454-.718-.547a1.087 1.087 0 0 0-.547-.157.76.76 0 0 0-.266.047.478.478 0 0 0-.172.125.644.644 0 0 0-.11.204.598.598 0 0 0-.046.234c0 .086.012.168.031.25.031.094.063.18.094.25.023.074.055.14.094.203a.87.87 0 0 1 .093.14v.032h-.5a2.029 2.029 0 0 1-.14-.422 1.65 1.65 0 0 1-.078-.484c0-.332.09-.594.265-.782a.93.93 0 0 1 .703-.28c.149 0 .278.015.391.046.117.043.227.09.328.14.106.063.203.137.297.22.105.085.203.167.297.25.168.156.34.324.516.5.167.187.304.335.406.437v-1.735zm0 0"/></symbol><symbol overflow="visible" id="W"><path d="M0-2.266V-.53h-.36v-.64h-2.374v.64h-.313c0-.239-.035-.422-.11-.547-.062-.113-.19-.176-.39-.188v-.359h3.188v-.64zm0 0"/></symbol><symbol overflow="visible" id="X"><path d="M-.61-1.125c.212 0 .368.063.47.188.117.125.171.296.171.515 0 .043-.008.106-.015.188a.634.634 0 0 1-.032.218h-.296V-.03a.41.41 0 0 0 .046-.157.569.569 0 0 0 .032-.203.681.681 0 0 0-.032-.234.273.273 0 0 0-.093-.125.621.621 0 0 0-.157-.047 1.686 1.686 0 0 0-.218-.015H-2.11v.5h-.235v-.813zm0 0"/></symbol><symbol overflow="visible" id="Y"><path d="M-1.64-1.719c.105 0 .199.016.28.047a.793.793 0 0 1 .423.438c.042.117.062.257.062.421v.266H0v.313h-2.344v-.594c0-.133.012-.254.031-.36a.777.777 0 0 1 .328-.469.9.9 0 0 1 .344-.062zm0 .328a.69.69 0 0 0-.204.032.491.491 0 0 0-.156.125.534.534 0 0 0-.063.171 2.314 2.314 0 0 0-.015.25v.266h.937v-.219c0-.125-.007-.226-.03-.312a.418.418 0 0 0-.11-.188.72.72 0 0 0-.157-.093.568.568 0 0 0-.203-.032zm0 0"/></symbol><symbol overflow="visible" id="Z"><path d="M0-1.5v1.14h-.234V-.78h-1.579v.422h-.218a.813.813 0 0 0-.063-.36c-.05-.07-.14-.113-.265-.125v-.25h2.125V-1.5zm0 0"/></symbol></defs><use xlink:href="#a" x="479.377" y="301.043" fill="#505050"/><use xlink:href="#b" x="481.597" y="301.043" fill="#505050"/><use xlink:href="#c" x="482.797" y="301.043" fill="#505050"/><use xlink:href="#d" x="485.017" y="301.043" fill="#505050"/><use xlink:href="#e" x="487.237" y="301.043" fill="#505050"/><use xlink:href="#f" x="413.716" y="326.947" fill="#505050"/><use xlink:href="#g" x="415.936" y="326.947" fill="#505050"/><use xlink:href="#e" x="418.156" y="326.947" fill="#505050"/><use xlink:href="#a" x="370.387" y="349.626" fill="#505050"/><use xlink:href="#c" x="372.607" y="349.626" fill="#505050"/><use xlink:href="#h" x="374.827" y="349.626" fill="#505050"/><use xlink:href="#f" x="416.139" y="274.276" fill="#505050"/><use xlink:href="#i" x="418.359" y="274.276" fill="#505050"/><use xlink:href="#h" x="420.579" y="274.276" fill="#505050"/><use xlink:href="#j" x="454.221" y="383.644" fill="#505050"/><use xlink:href="#k" x="458.001" y="383.644" fill="#505050"/><use xlink:href="#l" x="461.781" y="383.644" fill="#505050"/><use xlink:href="#m" x="455.66" y="209.516" fill="#505050"/><use xlink:href="#n" x="459.74" y="209.516" fill="#505050"/><use xlink:href="#o" x="463.46" y="209.516" fill="#505050"/><use xlink:href="#m" x="524.741" y="324.642" fill="#505050"/><use xlink:href="#n" x="528.821" y="324.642" fill="#505050"/><use xlink:href="#o" x="532.541" y="324.642" fill="#505050"/><use xlink:href="#j" x="523.302" y="389.4" fill="#505050"/><use xlink:href="#k" x="527.082" y="389.4" fill="#505050"/><use xlink:href="#l" x="530.862" y="389.4" fill="#505050"/><use xlink:href="#f" x="471.482" y="268.52" fill="#505050"/><use xlink:href="#b" x="473.703" y="268.52" fill="#505050"/><use xlink:href="#p" x="474.903" y="268.52" fill="#505050"/><use xlink:href="#q" x="477.122" y="268.52" fill="#505050"/><use xlink:href="#f" x="478.562" y="268.52" fill="#505050"/><use xlink:href="#r" x="480.782" y="268.52" fill="#505050"/><use xlink:href="#d" x="483.002" y="268.52" fill="#505050"/><use xlink:href="#e" x="485.222" y="268.52" fill="#505050"/><use xlink:href="#f" x="450.44" y="337.596" fill="#505050"/><use xlink:href="#i" x="452.66" y="337.596" fill="#505050"/><use xlink:href="#i" x="454.879" y="337.596" fill="#505050"/><use xlink:href="#s" x="463.432" y="291.544" fill="#505050"/><use xlink:href="#t" x="465.652" y="291.544" fill="#505050"/><use xlink:href="#u" x="467.872" y="291.544" fill="#505050"/><use xlink:href="#v" x="470.272" y="291.544" fill="#505050"/><use xlink:href="#i" x="472.492" y="291.544" fill="#505050"/><use xlink:href="#f" x="474.712" y="291.544" fill="#505050"/><use xlink:href="#a" x="476.932" y="291.544" fill="#505050"/><use xlink:href="#f" x="447.081" y="268.521" fill="#505050"/><use xlink:href="#w" x="449.301" y="268.521" fill="#505050"/><use xlink:href="#x" x="451.521" y="268.521" fill="#505050"/><use xlink:href="#y" x="410.182" y="292.118" fill="#505050"/><use xlink:href="#z" x="410.182" y="289.898" fill="#505050"/><use xlink:href="#A" x="410.182" y="287.678" fill="#505050"/><use xlink:href="#B" x="410.182" y="285.458" fill="#505050"/><use xlink:href="#a" x="370.387" y="361.138" fill="#505050"/><use xlink:href="#c" x="372.607" y="361.138" fill="#505050"/><use xlink:href="#h" x="374.827" y="361.138" fill="#505050"/><use xlink:href="#j" x="350.6" y="383.644" fill="#505050"/><use xlink:href="#k" x="354.38" y="383.644" fill="#505050"/><use xlink:href="#l" x="358.16" y="383.644" fill="#505050"/><use xlink:href="#a" x="305.561" y="274.276" fill="#505050"/><use xlink:href="#b" x="307.781" y="274.276" fill="#505050"/><use xlink:href="#c" x="308.981" y="274.276" fill="#505050"/><use xlink:href="#h" x="311.201" y="274.276" fill="#505050"/><use xlink:href="#j" x="310.303" y="343.349" fill="#505050"/><use xlink:href="#k" x="314.083" y="343.349" fill="#505050"/><use xlink:href="#l" x="317.863" y="343.349" fill="#505050"/><use xlink:href="#u" x="484.717" y="290.679" fill="#505050"/><use xlink:href="#s" x="487.117" y="290.679" fill="#505050"/><use xlink:href="#u" x="415.636" y="316.582" fill="#505050"/><use xlink:href="#C" x="418.036" y="316.582" fill="#505050"/><use xlink:href="#D" x="371.287" y="339.953" fill="#505050"/><use xlink:href="#s" x="373.807" y="339.953" fill="#505050"/><use xlink:href="#D" x="417.819" y="265.639" fill="#505050"/><use xlink:href="#C" x="420.339" y="265.639" fill="#505050"/><use xlink:href="#u" x="482.702" y="254.127" fill="#505050"/><use xlink:href="#f" x="485.102" y="254.127" fill="#505050"/><use xlink:href="#D" x="452.359" y="328.959" fill="#505050"/><use xlink:href="#f" x="454.879" y="328.959" fill="#505050"/><use xlink:href="#E" x="489.836" y="344.789" fill="#505050"/><use xlink:href="#v" x="492.776" y="344.789" fill="#505050"/><use xlink:href="#F" x="494.996" y="344.789" fill="#505050"/><use xlink:href="#G" x="489.296" y="367.815" fill="#505050"/><use xlink:href="#H" x="491.996" y="367.815" fill="#505050"/><use xlink:href="#I" x="494.696" y="367.815" fill="#505050"/><use xlink:href="#J" x="526.058" y="215.56" fill="#505050"/><use xlink:href="#K" x="527.978" y="215.56" fill="#505050"/><use xlink:href="#L" x="530.138" y="215.56" fill="#505050"/><use xlink:href="#M" x="446.207" y="291.543" fill="#505050"/><use xlink:href="#f" x="448.547" y="291.543" fill="#505050"/><use xlink:href="#N" x="450.021" y="254.127" fill="#505050"/><use xlink:href="#s" x="452.001" y="254.127" fill="#505050"/><use xlink:href="#O" x="339.785" y="350.859" fill="#505050"/><use xlink:href="#O" x="348.527" y="348.3" fill="#505050"/><use xlink:href="#P" x="339.785" y="345.102" fill="#505050"/><use xlink:href="#P" x="348.527" y="342.543" fill="#505050"/><use xlink:href="#Q" x="339.785" y="356.615" fill="#505050"/><use xlink:href="#Q" x="348.527" y="354.056" fill="#505050"/><use xlink:href="#R" x="341.783" y="339.032" fill="#505050"/><use xlink:href="#S" x="343.103" y="339.032" fill="#505050"/><use xlink:href="#T" x="420.545" y="292.118" fill="#505050"/><use xlink:href="#U" x="420.545" y="289.718" fill="#505050"/><use xlink:href="#D" x="371.287" y="351.466" fill="#505050"/><use xlink:href="#a" x="373.807" y="351.466" fill="#505050"/><use xlink:href="#V" x="398.406" y="286.247" fill="#505050"/><use xlink:href="#V" x="395.847" y="294.988" fill="#505050"/><use xlink:href="#W" x="392.649" y="286.247" fill="#505050"/><use xlink:href="#W" x="390.09" y="294.988" fill="#505050"/><use xlink:href="#X" x="386.579" y="288.665" fill="#505050"/><use xlink:href="#Y" x="386.579" y="287.345" fill="#505050"/><use xlink:href="#Z" x="386.579" y="285.545" fill="#505050"/><use xlink:href="#D" x="308.441" y="265.639" fill="#505050"/><use xlink:href="#r" x="310.961" y="265.639" fill="#505050"/><path d="M494.52 300.18v-4.02M494.52 288.66v4.02" fill="none" stroke-width=".36000000000000004" stroke-linecap="round" stroke-linejoin="round" stroke="maroon" stroke-miterlimit="10"/><path d="M489.898 296.16h9.243v-1.2h-9.243zm0 0M489.898 293.879h9.243v-1.2h-9.243zm0 0" fill="maroon" stroke-width=".12" stroke-linecap="round" stroke-linejoin="round" stroke="maroon" stroke-miterlimit="10"/><path d="M425.46 326.102v-4.024M425.46 314.578v4.024" fill="none" stroke-width=".36000000000000004" stroke-linecap="round" stroke-linejoin="round" stroke="maroon" stroke-miterlimit="10"/><path d="M420.84 322.078h9.242v-1.2h-9.242zm0 0M420.84 319.8h9.242v-1.198h-9.242zm0 0" fill="maroon" stroke-width=".12" stroke-linecap="round" stroke-linejoin="round" stroke="maroon" stroke-miterlimit="10"/><path d="M385.14 343.32h-5.761M362.102 343.32h5.757" fill="none" stroke-width=".36000000000000004" stroke-linecap="round" stroke-linejoin="round" stroke="maroon" stroke-miterlimit="10"/><path d="M367.86 345.36h11.519M379.379 341.34h-11.52M379.379 345.36v-4.02M367.86 345.36v-4.02" fill="none" stroke-width=".6000000000000001" stroke-linecap="round" stroke-linejoin="round" stroke="maroon" stroke-miterlimit="10"/><path d="M425.46 256.98v5.758M425.46 280.02v-5.758" fill="none" stroke-width=".36000000000000004" stroke-linecap="round" stroke-linejoin="round" stroke="maroon" stroke-miterlimit="10"/><path d="M427.441 274.262v-11.524M423.422 262.738v11.524M427.441 262.738h-4.02M427.441 274.262h-4.02M455.64 377.879h8.641" fill="none" stroke-width=".6000000000000001" stroke-linecap="round" stroke-linejoin="round" stroke="maroon" stroke-miterlimit="10"/><path d="M459.96 372.121v5.758M458.52 213.84h2.878M459.96 215.281v-2.883" fill="none" stroke-width=".36000000000000004" stroke-linecap="round" stroke-linejoin="round" stroke="maroon" stroke-miterlimit="10"/><path d="M456.84 213.84l.12-.899.36-.84.602-.66.719-.48.898-.242h.902l.84.242.778.48.601.66.36.84.12.899-.12.898-.36.782-.601.718-.778.48-.84.243h-.902l-.898-.242-.72-.48-.6-.72-.36-.78-.121-.9h.539l.121-.718.3-.66.481-.602.598-.359.723-.238h.718l.72.238.66.36.48.6.3.661.06.719-.06.719-.3.66-.48.601-.66.36-.72.242h-.718l-.723-.242-.598-.36-.48-.601-.301-.66-.121-.72h-.54" fill-rule="evenodd" fill="maroon"/><path d="M456.84 213.84l.12-.899.36-.84.602-.66.719-.48.898-.242h.902l.84.242.778.48.601.66.36.84.12.899-.12.898-.36.782-.601.718-.778.48-.84.243h-.902l-.898-.242-.72-.48-.6-.72-.36-.78-.121-.9h.539l.121-.718.3-.66.481-.602.598-.359.723-.238h.718l.72.238.66.36.48.6.3.661.06.719-.06.719-.3.66-.48.601-.66.36-.72.242h-.718l-.723-.242-.598-.36-.48-.601-.301-.66-.121-.72zm0 0" fill="none" stroke-width=".12" stroke-linecap="round" stroke-linejoin="round" stroke="maroon" stroke-miterlimit="10"/><path d="M459.96 222.48v-5.761M527.64 328.98h2.88M529.078 330.422v-2.883" fill="none" stroke-width=".36000000000000004" stroke-linecap="round" stroke-linejoin="round" stroke="maroon" stroke-miterlimit="10"/><path d="M525.898 328.98l.122-.902.359-.84.601-.66.782-.476.84-.301h.898l.898.3.723.477.598.66.36.84.12.902-.12.899-.36.781-.598.719-.723.48-.898.243h-.898l-.84-.243-.782-.48-.601-.719-.36-.781-.12-.899h.542l.118-.78.3-.66.48-.54.661-.422.66-.18h.781l.72.18.6.422.477.54.301.66.121.78-.12.72-.302.66-.476.538-.602.422-.719.18h-.78l-.661-.18-.66-.422-.48-.539-.301-.66-.118-.719h-.543" fill-rule="evenodd" fill="maroon"/><path d="M525.898 328.98l.122-.902.359-.84.601-.66.782-.476.84-.301h.898l.898.3.723.477.598.66.36.84.12.902-.12.899-.36.781-.598.719-.723.48-.898.243h-.898l-.84-.243-.782-.48-.601-.719-.36-.781-.12-.899h.542l.118-.78.3-.66.48-.54.661-.422.66-.18h.781l.72.18.6.422.477.54.301.66.121.78-.12.72-.302.66-.476.538-.602.422-.719.18h-.78l-.661-.18-.66-.422-.48-.539-.301-.66-.118-.719zm0 0" fill="none" stroke-width=".12" stroke-linecap="round" stroke-linejoin="round" stroke="maroon" stroke-miterlimit="10"/><path d="M529.078 337.621v-5.762" fill="none" stroke-width=".36000000000000004" stroke-linecap="round" stroke-linejoin="round" stroke="maroon" stroke-miterlimit="10"/><path d="M524.762 383.64h8.636" fill="none" stroke-width=".6000000000000001" stroke-linecap="round" stroke-linejoin="round" stroke="maroon" stroke-miterlimit="10"/><path d="M529.078 377.879v5.762M494.52 265.621v-4.02M494.52 254.102v4.078" fill="none" stroke-width=".36000000000000004" stroke-linecap="round" stroke-linejoin="round" stroke="maroon" stroke-miterlimit="10"/><path d="M498 263.941l-8.64-8.64M487.621 256.98l1.738-1.68M489.36 255.3l1.68-1.741" fill="none" stroke-width=".7200000000000001" stroke-linecap="round" stroke-linejoin="round" stroke="maroon" stroke-miterlimit="10"/><path d="M487.621 264.48v-5.16M487.621 259.32l-.601 1.739M487.621 259.32l.54 1.739" fill="none" stroke-width=".36000000000000004" stroke-linecap="round" stroke-linejoin="round" stroke="maroon" stroke-miterlimit="10"/><path d="M489.898 261.66h9.243v-1.2h-9.243zm0 0M489.898 259.32h9.243v-1.199h-9.243zm0 0" fill="maroon" stroke-width=".12" stroke-linecap="round" stroke-linejoin="round" stroke="maroon" stroke-miterlimit="10"/><path d="M459.96 320.34v5.762M459.96 343.32v-5.699" fill="none" stroke-width=".36000000000000004" stroke-linecap="round" stroke-linejoin="round" stroke="maroon" stroke-miterlimit="10"/><path d="M462 337.621v-11.52M457.98 326.102v11.52M462 326.102h-4.02M462 337.621h-4.02M511.8 343.32h-5.76" fill="none" stroke-width=".6000000000000001" stroke-linecap="round" stroke-linejoin="round" stroke="maroon" stroke-miterlimit="10"/><path d="M499.98 343.32l.122-.84.359-.84.598-.66.78-.539.84-.242h.9l.901.242.72.54.6.66.419.84.12.84-.12.898-.418.84-.602.66-.719.48-.902.301h-.898l-.84-.3-.781-.481-.598-.66-.36-.84-.12-.899h.597l.063-.718.359-.66.48-.544.598-.418.723-.18h.719l.718.18.602.418.48.543.301.66.117.72-.117.78-.3.66-.481.54-.602.418-.718.18h-.72l-.722-.18-.598-.418-.48-.54-.36-.66-.062-.78h-.598" fill-rule="evenodd" fill="maroon"/><path d="M499.98 343.32l.122-.84.359-.84.598-.66.78-.539.84-.242h.9l.901.242.72.54.6.66.419.84.12.84-.12.898-.418.84-.602.66-.719.48-.902.301h-.898l-.84-.3-.781-.481-.598-.66-.36-.84-.12-.899h.597l.063-.718.359-.66.48-.544.598-.418.723-.18h.719l.718.18.602.418.48.543.301.66.117.72-.117.78-.3.66-.481.54-.602.418-.718.18h-.72l-.722-.18-.598-.418-.48-.54-.36-.66-.062-.78zm0 0" fill="none" stroke-width=".12" stroke-linecap="round" stroke-linejoin="round" stroke="maroon" stroke-miterlimit="10"/><path d="M511.8 366.36h-5.76" fill="none" stroke-width=".6000000000000001" stroke-linecap="round" stroke-linejoin="round" stroke="maroon" stroke-miterlimit="10"/><path d="M499.98 366.36l.122-.9.359-.78.598-.72.78-.48.84-.242h.9l.901.242.72.48.6.72.419.78.12.9-.12.902-.418.84-.602.66-.719.476-.902.242h-.898l-.84-.242-.781-.476-.598-.66-.36-.84-.12-.903h.597l.063-.718.359-.66.48-.54.598-.421.723-.18h.719l.718.18.602.421.48.54.301.66.117.718-.117.72-.3.722-.481.539-.602.422-.718.18h-.72l-.722-.18-.598-.422-.48-.54-.36-.722-.062-.719h-.598" fill-rule="evenodd" fill="maroon"/><path d="M499.98 366.36l.122-.9.359-.78.598-.72.78-.48.84-.242h.9l.901.242.72.48.6.72.419.78.12.9-.12.902-.418.84-.602.66-.719.476-.902.242h-.898l-.84-.242-.781-.476-.598-.66-.36-.84-.12-.903h.597l.063-.718.359-.66.48-.54.598-.421.723-.18h.719l.718.18.602.421.48.54.301.66.117.718-.117.72-.3.722-.481.539-.602.422-.718.18h-.72l-.722-.18-.598-.422-.48-.54-.36-.722-.062-.719zm0 0" fill="none" stroke-width=".12" stroke-linecap="round" stroke-linejoin="round" stroke="maroon" stroke-miterlimit="10"/><path d="M523.32 216.719h5.758M534.84 216.719l-5.762 5.761M529.078 222.48l-5.758-5.761M529.078 216.719v5.761M529.078 216.719h5.762" fill="none" stroke-width=".6000000000000001" stroke-linecap="round" stroke-linejoin="round" stroke="maroon" stroke-miterlimit="10"/><path d="M529.078 228.238v-5.758M459.96 291.54l-5.581 2.82M457.559 300.422l1.14 1.976M458.7 302.398l-2.34.301M456.36 302.7l1.199-2.278M459.96 303.059l-1.26-.66M458.7 302.398l-3.778-1.859" fill="none" stroke-width=".36000000000000004" stroke-linecap="round" stroke-linejoin="round" stroke="maroon" stroke-miterlimit="10"/><path d="M456.96 302.398l1.321-.117M458.281 302.281l-.722-1.32" fill="none" stroke-width=".7200000000000001" stroke-linecap="round" stroke-linejoin="round" stroke="maroon" stroke-miterlimit="10"/><path d="M457.559 300.96l-.598 1.142M456.96 302.102h.84M457.8 302.102l-.241-.543" fill="none" stroke-width=".6000000000000001" stroke-linecap="round" stroke-linejoin="round" stroke="maroon" stroke-miterlimit="10"/><path d="M453.121 303.059h1.68v-11.52h-1.68zm0 0" fill="maroon" stroke-width=".12" stroke-linecap="round" stroke-linejoin="round" stroke="maroon" stroke-miterlimit="10"/><path d="M448.441 297.3h5.758M459.96 308.82v-5.761M459.96 285.781v5.758" fill="none" stroke-width=".36000000000000004" stroke-linecap="round" stroke-linejoin="round" stroke="maroon" stroke-miterlimit="10"/><path d="M465.238 297.3a8.159 8.159 0 1 1-16.316 0 8.158 8.158 0 1 1 16.316 0zm0 0" fill="none" stroke-width=".9" stroke-linecap="round" stroke-linejoin="round" stroke="maroon" stroke-miterlimit="10"/><path d="M457.078 265.621l.121.777.301.66.422.602.598.48.718.301.723.059M459.96 262.738l-.722.121-.718.301-.598.418-.422.602-.3.718-.122.723M457.078 259.86l.121.78.301.66.422.598.598.48.718.302.723.058M459.96 256.98l-.722.122-.718.296-.598.422-.422.602-.3.719-.122.718" fill="none" stroke-width=".6000000000000001" stroke-linecap="round" stroke-linejoin="round" stroke="maroon" stroke-miterlimit="10"/><path d="M457.078 254.102l.121.777.301.66.422.602.598.48.718.3.723.06M459.96 251.219l-.722.12-.718.302-.598.48-.422.54-.3.718-.122.723M459.96 248.398v2.82M459.96 271.379V268.5M344.82 357.719v-2.88M344.82 354.84v-5.762M344.82 349.078v-5.758M344.82 343.32v-2.82M344.82 340.5h-8.64M336.18 340.5v17.219M336.18 357.719h8.64" fill="none" stroke-width=".6000000000000001" stroke-linecap="round" stroke-linejoin="round" stroke="maroon" stroke-miterlimit="10"/><path d="M347.7 349.078h-2.88M347.7 343.32h-2.88M347.7 354.84h-2.88" fill="none" stroke-width=".30000000000000004" stroke-linecap="round" stroke-linejoin="round" stroke="maroon" stroke-miterlimit="10"/><path d="M408.18 297.3h4.02M419.7 297.3h-4.02" fill="none" stroke-width=".36000000000000004" stroke-linecap="round" stroke-linejoin="round" stroke="maroon" stroke-miterlimit="10"/><path d="M412.2 301.922h1.198v-9.242H412.2zm0 0M414.48 301.922h1.2v-9.242h-1.2zm0 0" fill="maroon" stroke-width=".12" stroke-linecap="round" stroke-linejoin="round" stroke="maroon" stroke-miterlimit="10"/><path d="M385.14 354.84h-5.761M362.102 354.84h5.757" fill="none" stroke-width=".36000000000000004" stroke-linecap="round" stroke-linejoin="round" stroke="maroon" stroke-miterlimit="10"/><path d="M367.86 356.879h11.519M379.379 352.86h-11.52M379.379 356.879v-4.02M367.86 356.879v-4.02M352.02 377.879h8.64" fill="none" stroke-width=".6000000000000001" stroke-linecap="round" stroke-linejoin="round" stroke="maroon" stroke-miterlimit="10"/><path d="M356.34 372.121v5.758" fill="none" stroke-width=".36000000000000004" stroke-linecap="round" stroke-linejoin="round" stroke="maroon" stroke-miterlimit="10"/><path d="M399.54 288.66h-2.88M396.66 288.66h-5.762M390.898 288.66h-2.878M388.02 288.66v-8.64M388.02 280.02h11.52M399.54 280.02v8.64" fill="none" stroke-width=".6000000000000001" stroke-linecap="round" stroke-linejoin="round" stroke="maroon" stroke-miterlimit="10"/><path d="M396.66 291.54v-2.88M390.898 291.54v-2.88" fill="none" stroke-width=".30000000000000004" stroke-linecap="round" stroke-linejoin="round" stroke="maroon" stroke-miterlimit="10"/><path d="M316.078 256.98v5.758M316.078 280.02v-5.758" fill="none" stroke-width=".36000000000000004" stroke-linecap="round" stroke-linejoin="round" stroke="maroon" stroke-miterlimit="10"/><path d="M318.059 274.262v-11.524M314.04 262.738v11.524M318.059 262.738h-4.02M318.059 274.262h-4.02M311.762 337.621h8.636" fill="none" stroke-width=".6000000000000001" stroke-linecap="round" stroke-linejoin="round" stroke="maroon" stroke-miterlimit="10"/><path d="M316.078 331.86v5.761M318.36 315.121h-4.622M318.36 313.14h-2.282M316.078 313.14h-2.34M316.078 313.14v-1.742" fill="none" stroke-width=".36000000000000004" stroke-linecap="round" stroke-linejoin="round" stroke="maroon" stroke-miterlimit="10"/><path d="M321.84 314.578a5.76 5.76 0 1 1-11.52.004 5.76 5.76 0 0 1 11.52-.004zm0 0" fill="none" stroke-width=".6000000000000001" stroke-linecap="round" stroke-linejoin="round" stroke="maroon" stroke-miterlimit="10"/><path d="M309.719 320.34h1.203v-11.52h-1.203zm0 0" fill="maroon" stroke-width=".12" stroke-linecap="round" stroke-linejoin="round" stroke="maroon" stroke-miterlimit="10"/><path d="M316.078 303.059v5.761M316.078 326.102v-5.762M318.36 313.98h-4.622M318.36 313.98v-.84M313.738 313.98v-.84M318.36 315.719h-2.282M316.078 315.719h-2.34M318.36 315.719v-.598M316.078 318v-2.281M313.738 315.719v-.598" fill="none" stroke-width=".36000000000000004" stroke-linecap="round" stroke-linejoin="round" stroke="maroon" stroke-miterlimit="10"/><path d="M313.8 315.719h4.56v-.598h-4.56zm0 0" fill="maroon" stroke-width=".12" stroke-linecap="round" stroke-linejoin="round" stroke="maroon" stroke-miterlimit="10"/><path d="M494.52 300.18v14.398M494.52 314.578h-34.56M459.96 314.578v-5.758M459.96 320.34v-5.762" fill="none" stroke-width=".36000000000000004" stroke-linecap="round" stroke-linejoin="round" stroke="green" stroke-miterlimit="10"/><path d="M461.102 314.578a1.14 1.14 0 0 1-1.141 1.14c-.633 0-1.14-.507-1.14-1.14 0-.629.507-1.137 1.14-1.137.629 0 1.14.508 1.14 1.137" fill-rule="evenodd" fill="green"/><path d="M461.102 314.578a1.14 1.14 0 0 1-1.141 1.14c-.633 0-1.14-.507-1.14-1.14 0-.629.507-1.137 1.14-1.137.629 0 1.14.508 1.14 1.137zm0 0" fill="none" stroke-width=".12" stroke-linecap="round" stroke-linejoin="round" stroke="green" stroke-miterlimit="10"/><path d="M419.7 297.3h5.76M425.46 297.3h22.981M425.46 280.02v17.28" fill="none" stroke-width=".36000000000000004" stroke-linecap="round" stroke-linejoin="round" stroke="green" stroke-miterlimit="10"/><path d="M426.602 297.3c0 .63-.512 1.141-1.141 1.141a1.14 1.14 0 1 1 0-2.28c.629 0 1.14.51 1.14 1.14" fill-rule="evenodd" fill="green"/><path d="M426.602 297.3c0 .63-.512 1.141-1.141 1.141a1.14 1.14 0 1 1 0-2.28c.629 0 1.14.51 1.14 1.14zm0 0" fill="none" stroke-width=".12" stroke-linecap="round" stroke-linejoin="round" stroke="green" stroke-miterlimit="10"/><path d="M425.46 297.3v17.278M511.8 366.36h17.278M529.078 366.36v11.519M347.7 349.078h8.64M356.34 349.078v23.043M459.96 343.32v17.282M459.96 360.602v11.52M425.46 326.102v34.5M425.46 360.602h34.5" fill="none" stroke-width=".36000000000000004" stroke-linecap="round" stroke-linejoin="round" stroke="green" stroke-miterlimit="10"/><path d="M461.102 360.602c0 .628-.512 1.136-1.141 1.136-.633 0-1.14-.508-1.14-1.136a1.14 1.14 0 1 1 2.281 0" fill-rule="evenodd" fill="green"/><path d="M461.102 360.602c0 .628-.512 1.136-1.141 1.136-.633 0-1.14-.508-1.14-1.136a1.14 1.14 0 1 1 2.281 0zm0 0" fill="none" stroke-width=".12" stroke-linecap="round" stroke-linejoin="round" stroke="green" stroke-miterlimit="10"/><path d="M316.078 331.86v-5.758" fill="none" stroke-width=".36000000000000004" stroke-linecap="round" stroke-linejoin="round" stroke="green" stroke-miterlimit="10"/><path d="M461.102 239.762c0 .629-.512 1.136-1.141 1.136-.633 0-1.14-.507-1.14-1.136 0-.633.507-1.14 1.14-1.14.629 0 1.14.507 1.14 1.14" fill-rule="evenodd" fill="green"/><path d="M461.102 239.762c0 .629-.512 1.136-1.141 1.136-.633 0-1.14-.507-1.14-1.136 0-.633.507-1.14 1.14-1.14.629 0 1.14.507 1.14 1.14zm0 0" fill="none" stroke-width=".12" stroke-linecap="round" stroke-linejoin="round" stroke="green" stroke-miterlimit="10"/><path d="M425.46 239.762h34.5M494.52 239.762h-34.56M459.96 239.762V222.48M494.52 254.102v-14.34M459.96 239.762v8.636M425.46 256.98v-17.218M425.46 239.762H316.079M316.078 239.762v17.218" fill="none" stroke-width=".36000000000000004" stroke-linecap="round" stroke-linejoin="round" stroke="green" stroke-miterlimit="10"/><path d="M426.602 239.762c0 .629-.512 1.136-1.141 1.136-.633 0-1.14-.507-1.14-1.136 0-.633.507-1.14 1.14-1.14.629 0 1.14.507 1.14 1.14" fill-rule="evenodd" fill="green"/><path d="M426.602 239.762c0 .629-.512 1.136-1.141 1.136-.633 0-1.14-.507-1.14-1.136 0-.633.507-1.14 1.14-1.14.629 0 1.14.507 1.14 1.14zm0 0" fill="none" stroke-width=".12" stroke-linecap="round" stroke-linejoin="round" stroke="green" stroke-miterlimit="10"/><path d="M511.8 343.32h17.278M529.078 343.32v-5.699M459.96 271.379v8.64M459.96 280.02v5.761M459.96 280.02h34.56" fill="none" stroke-width=".36000000000000004" stroke-linecap="round" stroke-linejoin="round" stroke="green" stroke-miterlimit="10"/><path d="M461.102 280.02c0 .628-.512 1.14-1.141 1.14a1.14 1.14 0 1 1 0-2.281c.629 0 1.14.512 1.14 1.14" fill-rule="evenodd" fill="green"/><path d="M461.102 280.02c0 .628-.512 1.14-1.141 1.14a1.14 1.14 0 1 1 0-2.281c.629 0 1.14.512 1.14 1.14zm0 0" fill="none" stroke-width=".12" stroke-linecap="round" stroke-linejoin="round" stroke="green" stroke-miterlimit="10"/><path d="M494.52 280.02v8.64" fill="none" stroke-width=".36000000000000004" stroke-linecap="round" stroke-linejoin="round" stroke="green" stroke-miterlimit="10"/><path d="M495.66 280.02c0 .628-.512 1.14-1.14 1.14-.63 0-1.141-.512-1.141-1.14 0-.63.512-1.141 1.14-1.141.63 0 1.141.512 1.141 1.14" fill-rule="evenodd" fill="green"/><path d="M495.66 280.02c0 .628-.512 1.14-1.14 1.14-.63 0-1.141-.512-1.141-1.14 0-.63.512-1.141 1.14-1.141.63 0 1.141.512 1.141 1.14zm0 0" fill="none" stroke-width=".12" stroke-linecap="round" stroke-linejoin="round" stroke="green" stroke-miterlimit="10"/><path d="M494.52 280.02h34.558M529.078 280.02v-51.782M494.52 265.621v14.399M347.7 343.32h14.402M385.14 343.32h5.758M390.898 343.32v5.758M390.898 349.078h5.762M396.66 349.078v-51.777M396.66 297.3h11.52" fill="none" stroke-width=".36000000000000004" stroke-linecap="round" stroke-linejoin="round" stroke="green" stroke-miterlimit="10"/><path d="M392.04 349.078c0 .633-.509 1.14-1.142 1.14a1.136 1.136 0 0 1-1.136-1.14c0-.629.508-1.137 1.136-1.137.633 0 1.141.508 1.141 1.137" fill-rule="evenodd" fill="green"/><path d="M392.04 349.078c0 .633-.509 1.14-1.142 1.14a1.136 1.136 0 0 1-1.136-1.14c0-.629.508-1.137 1.136-1.137.633 0 1.141.508 1.141 1.137zm0 0" fill="none" stroke-width=".12" stroke-linecap="round" stroke-linejoin="round" stroke="green" stroke-miterlimit="10"/><path d="M385.14 354.84h5.758M390.898 354.84v-5.762M396.66 291.54v5.76" fill="none" stroke-width=".36000000000000004" stroke-linecap="round" stroke-linejoin="round" stroke="green" stroke-miterlimit="10"/><path d="M397.8 297.3c0 .63-.51 1.141-1.14 1.141-.629 0-1.14-.511-1.14-1.14 0-.63.511-1.14 1.14-1.14.63 0 1.14.51 1.14 1.14" fill-rule="evenodd" fill="green"/><path d="M397.8 297.3c0 .63-.51 1.141-1.14 1.141-.629 0-1.14-.511-1.14-1.14 0-.63.511-1.14 1.14-1.14.63 0 1.14.51 1.14 1.14zm0 0" fill="none" stroke-width=".12" stroke-linecap="round" stroke-linejoin="round" stroke="green" stroke-miterlimit="10"/><path d="M347.7 354.84h14.402M316.078 280.02v17.28M390.898 291.54v5.76M390.898 297.3h-74.82" fill="none" stroke-width=".36000000000000004" stroke-linecap="round" stroke-linejoin="round" stroke="green" stroke-miterlimit="10"/><path d="M317.219 297.3a1.14 1.14 0 1 1-2.28.003 1.14 1.14 0 0 1 2.28-.002" fill-rule="evenodd" fill="green"/><path d="M317.219 297.3a1.14 1.14 0 1 1-2.28.003 1.14 1.14 0 0 1 2.28-.002zm0 0" fill="none" stroke-width=".12" stroke-linecap="round" stroke-linejoin="round" stroke="green" stroke-miterlimit="10"/><path d="M316.078 297.3v5.759" fill="none" stroke-width=".36000000000000004" stroke-linecap="round" stroke-linejoin="round" stroke="green" stroke-miterlimit="10"/></svg>