<svg xmlns="http://www.w3.org/2000/svg" xmlns:xlink="http://www.w3.org/1999/xlink" width="595pt" height="560" viewBox="0 0 595 420"><defs><symbol overflow="visible" id="a"><path d="M1.438.047a1.212 1.212 0 0 1-.532-.094A1.087 1.087 0 0 1 .5-.328a1.388 1.388 0 0 1-.281-.469 2.147 2.147 0 0 1-.094-.656c0-.25.031-.461.094-.64C.28-2.27.375-2.43.5-2.579a1.28 1.28 0 0 1 .406-.297c.156-.063.332-.094.531-.094.102 0 .196.008.282.016.082.023.16.043.234.062.063.024.129.043.203.063.063.031.125.07.188.11v.468h-.031c-.032-.031-.075-.07-.126-.125-.062-.04-.132-.082-.203-.125a2.15 2.15 0 0 0-.234-.11 1.54 1.54 0 0 0-.313-.03.767.767 0 0 0-.343.078.876.876 0 0 0-.297.218.997.997 0 0 0-.188.375 1.552 1.552 0 0 0-.078.516c0 .2.024.371.078.516a.83.83 0 0 0 .188.359c.082.105.18.18.297.219a.718.718 0 0 0 .343.078.99.99 0 0 0 .313-.047A.83.83 0 0 0 2-.422a1.42 1.42 0 0 0 .313-.234h.03v.453a2.274 2.274 0 0 0-.171.094 1.023 1.023 0 0 1-.219.078C1.867 0 1.79.019 1.72.03a2.627 2.627 0 0 1-.282.016zm0 0"/></symbol><symbol overflow="visible" id="b"><path d="M1.625-1.719c0-.195-.016-.36-.047-.484a.918.918 0 0 0-.156-.297.421.421 0 0 0-.172-.125.629.629 0 0 0-.188-.031.479.479 0 0 0-.39.172c-.094.117-.14.28-.14.5a.76.76 0 0 0 .046.296.505.505 0 0 0 .156.22.25.25 0 0 0 .157.077 1.004 1.004 0 0 0 .484-.031.627.627 0 0 0 .25-.11v-.187zm-1.5-.25c0-.156.023-.289.078-.406a1.08 1.08 0 0 1 .203-.328c.082-.082.18-.149.297-.203a.875.875 0 0 1 .719 0 .713.713 0 0 1 .281.187c.102.117.18.258.234.422a2 2 0 0 1 .094.656c0 .25-.031.48-.094.688a1.639 1.639 0 0 1-.234.547c-.117.148-.25.261-.406.344a1.24 1.24 0 0 1-.578.124A1.182 1.182 0 0 1 .547.048.358.358 0 0 1 .39.016V-.36h.015a.317.317 0 0 0 .156.046.569.569 0 0 0 .204.032c.257 0 .46-.082.609-.25.145-.164.227-.406.25-.719-.105.063-.203.11-.297.14a.825.825 0 0 1-.312.063.83.83 0 0 1-.297-.047.663.663 0 0 1-.266-.125.745.745 0 0 1-.234-.312.963.963 0 0 1-.094-.438zm0 0"/></symbol><symbol overflow="visible" id="c"><path d="M2.594-1.453c0 .262-.055.5-.156.719-.106.218-.25.386-.438.5a1.33 1.33 0 0 1-.453.187A2.89 2.89 0 0 1 .969 0H.297v-2.922h.656c.281 0 .5.024.656.063.157.043.286.101.391.171.188.126.332.293.438.5.101.211.156.454.156.735zm-.406-.016c0-.218-.04-.41-.11-.578a.813.813 0 0 0-.328-.36 1.342 1.342 0 0 0-.328-.14 1.832 1.832 0 0 0-.438-.047H.688v2.266h.296c.164 0 .317-.016.454-.047a1.016 1.016 0 0 0 .656-.516c.062-.156.094-.347.094-.578zm0 0"/></symbol><symbol overflow="visible" id="d"><path d="M1-2.64a.671.671 0 0 0-.203.03.873.873 0 0 0-.219.063.582.582 0 0 0-.156.078c-.055.031-.094.059-.125.078H.266v-.406a2.29 2.29 0 0 1 .359-.125c.133-.039.27-.062.406-.062.133 0 .25.015.344.046a.62.62 0 0 1 .266.126c.093.062.16.136.203.218.039.094.062.2.062.313a.612.612 0 0 1-.156.422.669.669 0 0 1-.375.234v.031a.919.919 0 0 1 .39.188c.051.062.098.136.141.218a.78.78 0 0 1 .063.329.875.875 0 0 1-.079.359.803.803 0 0 1-.188.297.745.745 0 0 1-.312.187c-.118.051-.25.079-.407.079C.836.063.691.046.547.015a1.814 1.814 0 0 1-.36-.141v-.406H.22c.08.062.19.121.327.172a1.094 1.094 0 0 0 .656.046.559.559 0 0 0 .203-.124c.051-.063.094-.126.125-.188.02-.07.032-.16.032-.266a.687.687 0 0 0-.047-.265.491.491 0 0 0-.125-.157.446.446 0 0 0-.188-.078 1.123 1.123 0 0 0-.25-.03H.781v-.329h.14c.165 0 .306-.04.423-.125a.419.419 0 0 0 .172-.36.371.371 0 0 0-.047-.187.493.493 0 0 0-.11-.125 1.15 1.15 0 0 0-.171-.078A1.296 1.296 0 0 0 1-2.641zm0 0"/></symbol><symbol overflow="visible" id="e"><path d="M2.094-1H1.75v1h-.375v-1H.078v-.422l1.313-1.5h.359v1.61h.344zm-.719-.313v-1.14l-.984 1.14zm0 0"/></symbol><symbol overflow="visible" id="f"><path d="M1.313 0H.188v-.297h.374v-2.328H.188v-.297h1.125v.297H.938v2.328h.375zm0 0"/></symbol><symbol overflow="visible" id="g"><path d="M1.86 0H.436v-.297H.97V-2.25H.438v-.266c.195 0 .347-.03.453-.093.093-.051.144-.157.156-.313h.297v2.625h.515zm0 0"/></symbol><symbol overflow="visible" id="m"><path d="M2.563 0h-.516l-.922-1.156H.687V0h-.39v-2.922h.75c.164 0 .305.012.422.031.113.024.222.063.328.125a.8.8 0 0 1 .234.25.751.751 0 0 1 .094.391.797.797 0 0 1-.172.531.913.913 0 0 1-.437.328zm-.844-2.094a.598.598 0 0 0-.047-.234.412.412 0 0 0-.14-.156.446.446 0 0 0-.188-.079c-.074-.007-.168-.019-.282-.03H.688v1.109h.344c.102 0 .203-.008.297-.032a.459.459 0 0 0 .219-.125.38.38 0 0 0 .125-.187.66.66 0 0 0 .047-.266zm0 0"/></symbol><symbol overflow="visible" id="n"><path d="M2.063-.953c0 .156-.028.297-.079.422a.974.974 0 0 1-.203.312.723.723 0 0 1-.297.203.78.78 0 0 1-.343.079A1.04 1.04 0 0 1 .78 0a.891.891 0 0 1-.297-.203A1.194 1.194 0 0 1 .25-.625a2.253 2.253 0 0 1-.078-.656c0-.25.023-.477.078-.688.05-.207.129-.383.234-.531.102-.145.239-.258.407-.344.164-.082.359-.125.578-.125h.187c.063.012.114.024.157.031v.376h-.016a.676.676 0 0 0-.156-.047.87.87 0 0 0-.22-.032.784.784 0 0 0-.593.25c-.148.168-.234.414-.265.735a1.58 1.58 0 0 1 .296-.157.973.973 0 0 1 .313-.046c.113 0 .21.011.297.03a.792.792 0 0 1 .515.438c.051.125.079.274.079.438zm-.407.015a.861.861 0 0 0-.047-.296.5.5 0 0 0-.14-.204.735.735 0 0 0-.172-.093c-.074-.008-.14-.016-.203-.016a.745.745 0 0 0-.266.047 1.272 1.272 0 0 0-.265.125v.172c0 .21.019.375.062.5.04.125.086.219.14.281.051.063.11.106.172.125a.326.326 0 0 0 .204.031c.156 0 .28-.05.375-.156.093-.113.14-.285.14-.516zm0 0"/></symbol><symbol overflow="visible" id="o"><path d="M2.047-2.484L.78 0H.36l1.344-2.578H.187v-.344h1.86zm0 0"/></symbol><symbol overflow="visible" id="p"><path d="M1.594-2.234a.426.426 0 0 0-.14-.329.46.46 0 0 0-.36-.14.464.464 0 0 0-.344.125.378.378 0 0 0-.14.312c0 .094.019.18.062.25a.71.71 0 0 0 .219.172.509.509 0 0 0 .187.094c.07.043.145.074.219.094a.699.699 0 0 0 .234-.266.796.796 0 0 0 .063-.312zM1.64-.781a.599.599 0 0 0-.063-.281.934.934 0 0 0-.281-.22l-.172-.077a3.457 3.457 0 0 0-.25-.094.694.694 0 0 0-.25.25.873.873 0 0 0-.078.375.555.555 0 0 0 .156.437.494.494 0 0 0 .39.172c.165 0 .302-.05.407-.156.094-.094.14-.227.14-.406zm-.547.844A1.2 1.2 0 0 1 .704 0 .722.722 0 0 1 .39-.188a.598.598 0 0 1-.188-.28.883.883 0 0 1-.062-.344.8.8 0 0 1 .125-.438.947.947 0 0 1 .375-.313v-.015a.788.788 0 0 1-.329-.266.703.703 0 0 1-.093-.375c0-.219.082-.398.25-.547a.917.917 0 0 1 .625-.218c.258 0 .472.07.64.203a.706.706 0 0 1 .235.531c0 .137-.04.266-.11.39a.658.658 0 0 1-.328.298v.015c.164.086.297.184.39.297a.742.742 0 0 1 .126.438c0 .25-.09.46-.266.625a.994.994 0 0 1-.687.25zm0 0"/></symbol><symbol overflow="visible" id="q"><path d="M2.016 0H.219v-.406l.36-.36c.112-.101.226-.218.343-.343.219-.25.367-.446.453-.594.07-.145.113-.297.125-.453a.487.487 0 0 0-.047-.219.602.602 0 0 0-.11-.156.629.629 0 0 0-.344-.11.822.822 0 0 0-.218.032.685.685 0 0 0-.203.062 1.166 1.166 0 0 0-.156.078c-.055.031-.094.059-.125.078H.28v-.406c.07-.039.18-.082.328-.125.145-.039.286-.062.422-.062.258 0 .469.074.625.218.157.149.235.344.235.594 0 .117-.012.219-.032.313a2.19 2.19 0 0 1-.109.265 2.195 2.195 0 0 1-.188.25 4.057 4.057 0 0 1-.203.25 7.154 7.154 0 0 1-.421.422 7.96 7.96 0 0 1-.36.344h1.438zm0 0"/></symbol><symbol overflow="visible" id="r"><path d="M2.031-1.453c0 .523-.078.902-.234 1.14-.149.25-.383.376-.703.376C.77.063.535-.064.39-.314.234-.563.156-.94.156-1.452c0-.531.078-.914.235-1.156.156-.25.39-.375.703-.375.32 0 .554.132.703.39.156.25.234.633.234 1.14zm-.5.875a2.32 2.32 0 0 0 .078-.36 9.314 9.314 0 0 0 0-1.046 2.427 2.427 0 0 0-.078-.36.573.573 0 0 0-.172-.234.414.414 0 0 0-.265-.078.446.446 0 0 0-.266.078.512.512 0 0 0-.172.234 1.997 1.997 0 0 0-.078.375 6.995 6.995 0 0 0-.015.516c0 .2.003.371.015.516.008.136.035.257.078.359.04.105.098.183.172.234.063.055.149.078.266.078a.436.436 0 0 0 .265-.078.525.525 0 0 0 .172-.234zm0 0"/></symbol><symbol overflow="visible" id="h"><path d="M1.594 0H.234v-2.344h.313V-.28h1.047zm0 0"/></symbol><symbol overflow="visible" id="i"><path d="M.234 0v-2.344h1.47v.266H.546v.656h1.078v.266H.547v.875h1.156V0zm0 0"/></symbol><symbol overflow="visible" id="j"><path d="M2.094-1.172c0 .219-.043.414-.125.578a1.04 1.04 0 0 1-.36.406 1.211 1.211 0 0 1-.359.157A2.651 2.651 0 0 1 .781 0H.234v-2.344h.547c.219 0 .39.016.516.047.125.031.226.074.312.125.157.106.274.242.36.406.082.168.125.368.125.594zm-.328 0c0-.187-.032-.344-.094-.469a.63.63 0 0 0-.266-.296.979.979 0 0 0-.265-.11 1.72 1.72 0 0 0-.344-.031h-.25v1.812h.25c.133 0 .254-.007.36-.03a.783.783 0 0 0 .531-.422c.05-.126.078-.274.078-.454zm0 0"/></symbol><symbol overflow="visible" id="k"><path d="M1.5 0H.36v-.234h.42v-1.579H.36v-.218c.157 0 .274-.02.36-.063.07-.05.113-.14.125-.265h.25v2.125H1.5zm0 0"/></symbol><symbol overflow="visible" id="l"><path d="M1.625 0H.172v-.328A9.33 9.33 0 0 1 .469-.61c.094-.094.18-.188.265-.282.176-.195.301-.359.375-.484a.737.737 0 0 0 .094-.36.428.428 0 0 0-.11-.297.814.814 0 0 0-.14-.077.841.841 0 0 0-.156-.016c-.055 0-.11.008-.172.016a4.337 4.337 0 0 1-.156.062.342.342 0 0 0-.125.063 2.172 2.172 0 0 0-.11.062H.22v-.344c.062-.03.156-.062.281-.093.113-.032.223-.047.328-.047.219 0 .39.058.516.172a.66.66 0 0 1 .187.484.95.95 0 0 1-.031.25 2.037 2.037 0 0 1-.094.219c-.043.062-.09.133-.14.203-.055.074-.11.14-.172.203l-.328.328C.64-.43.539-.336.469-.266h1.156zm0 0"/></symbol><symbol overflow="visible" id="s"><path d="M1.594 0h-.297v-.203a1.115 1.115 0 0 1-.266.187.674.674 0 0 1-.484.032.527.527 0 0 1-.188-.125.38.38 0 0 1-.109-.204.893.893 0 0 1-.047-.312v-1.14H.5v1c0 .093.004.171.016.234 0 .062.015.12.046.172.02.043.051.074.094.093.04.024.098.032.172.032.07 0 .149-.02.235-.063.082-.039.16-.094.234-.156v-1.313h.297zm0 0"/></symbol><symbol overflow="visible" id="t"><path d="M1.64-2.078H.548v.672h1.047v.281H.547V0H.234v-2.344h1.407zm0 0"/></symbol><symbol overflow="visible" id="u"><path d="M1.922 0h-.36L.532-2.031V0H.233v-2.344h.454l.937 1.86v-1.86h.297zm0 0"/></symbol><symbol overflow="visible" id="v"><path d="M1.688-.813h-.282V0H1.11v-.813H.063v-.328l1.046-1.203h.297v1.281h.282zm-.579-.25v-.921l-.796.921zm0 0"/></symbol><symbol overflow="visible" id="w"><path d="M1.281-1.797a.379.379 0 0 0-.11-.266.414.414 0 0 0-.296-.109.408.408 0 0 0-.281.094.312.312 0 0 0-.11.25.3.3 0 0 0 .063.203.357.357 0 0 0 .172.14.925.925 0 0 0 .14.079c.07.031.133.058.188.078a.558.558 0 0 0 .187-.219.62.62 0 0 0 .047-.25zm.047 1.172a.435.435 0 0 0-.062-.234.607.607 0 0 0-.22-.172.849.849 0 0 0-.14-.063 1.94 1.94 0 0 1-.203-.078.63.63 0 0 0-.203.203.71.71 0 0 0-.063.297c0 .149.04.262.126.344.082.094.19.14.328.14a.456.456 0 0 0 .312-.109.445.445 0 0 0 .125-.328zM.891.047C.766.047.656.03.562 0a.602.602 0 0 1-.25-.156.586.586 0 0 1-.14-.219.596.596 0 0 1-.063-.281A.58.58 0 0 1 .22-1a.783.783 0 0 1 .297-.25v-.016a.754.754 0 0 1-.266-.218.518.518 0 0 1-.078-.297.59.59 0 0 1 .203-.453.768.768 0 0 1 .516-.172.72.72 0 0 1 .5.172.548.548 0 0 1 .109.734.683.683 0 0 1-.266.25c.133.074.239.152.313.234a.59.59 0 0 1 .11.36.654.654 0 0 1-.22.5.805.805 0 0 1-.546.203zm0 0"/></symbol><symbol overflow="visible" id="x"><path d="M2.25 0h-.313v-2.031l-.609 1.39h-.187L.53-2.03V0H.234v-2.344h.438l.578 1.297.563-1.297h.437zm0 0"/></symbol><symbol overflow="visible" id="y"><path d="M.813-2.125c-.063 0-.122.008-.172.016l-.172.062a2.172 2.172 0 0 0-.234.125H.218v-.328A1 1 0 0 1 .5-2.36a1.232 1.232 0 0 1 .61-.015c.081.031.156.07.218.11a.799.799 0 0 1 .156.187.57.57 0 0 1 .047.25.485.485 0 0 1-.125.328.486.486 0 0 1-.297.188v.03l.157.048c.05.023.101.058.156.109a.68.68 0 0 1 .11.172.83.83 0 0 1 0 .547.774.774 0 0 1-.406.406 1.039 1.039 0 0 1-.33.047A1.28 1.28 0 0 1 .454 0a.83.83 0 0 1-.297-.094v-.328h.016c.062.043.148.086.266.125a.774.774 0 0 0 .343.078A.525.525 0 0 0 .97-.25a.31.31 0 0 0 .156-.11.345.345 0 0 0 .11-.156.568.568 0 0 0 .03-.203.487.487 0 0 0-.046-.219.34.34 0 0 0-.094-.125.376.376 0 0 0-.156-.062 1.65 1.65 0 0 0-.203-.016H.64v-.265h.093a.57.57 0 0 0 .344-.094.353.353 0 0 0 .14-.297.37.37 0 0 0-.03-.156.415.415 0 0 0-.219-.156c-.055-.008-.106-.016-.157-.016zm0 0"/></symbol><symbol overflow="visible" id="z"><path d="M1.656-2L.625 0H.297l1.078-2.078H.156v-.266h1.5zm0 0"/></symbol><symbol overflow="visible" id="A"><path d="M1.672 0h-.39L.624-.844l-.11.11V0H.22v-2.453h.297v1.437l.687-.75h.375L.86-1.03zm0 0"/></symbol><symbol overflow="visible" id="B"><path d="M.672 0H.297v-.453h.375zm0 0"/></symbol><symbol overflow="visible" id="F"><path d="M1.64-1.172c0 .418-.062.727-.187.922-.125.2-.312.297-.562.297C.629.047.437-.051.312-.25.189-.445.126-.754.126-1.172c0-.426.063-.738.188-.937.124-.196.316-.297.578-.297.25 0 .437.105.562.312.125.211.188.516.188.922zm-.406.719c.032-.082.051-.18.063-.297a6.042 6.042 0 0 0 0-.844 1.03 1.03 0 0 0-.063-.297.387.387 0 0 0-.14-.187.34.34 0 0 0-.203-.063.355.355 0 0 0-.22.063.387.387 0 0 0-.14.187 1.076 1.076 0 0 0-.062.297 4.605 4.605 0 0 0-.016.422c0 .168.004.305.016.406.008.118.031.215.062.297.031.086.07.149.125.188.063.043.14.062.235.062a.224.224 0 0 0 .203-.062.362.362 0 0 0 .14-.172zm0 0"/></symbol><symbol overflow="visible" id="G"><path d="M1.594 0h-.297v-1.234a1.104 1.104 0 0 0-.047-.172.411.411 0 0 0-.11-.094.454.454 0 0 0-.39.031 1.066 1.066 0 0 0-.234.156V0H.219v-1.766h.297v.204A.918.918 0 0 1 .78-1.75a.617.617 0 0 1 .266-.063.5.5 0 0 1 .406.172c.094.118.14.282.14.5zm0 0"/></symbol><symbol overflow="visible" id="C"><path d="M2.344 0H.563v-.375h.656v-2.453H.562v-.344c.25 0 .43-.035.547-.11.125-.062.192-.195.204-.405h.39v3.312h.64zm0 0"/></symbol><symbol overflow="visible" id="D"><path d="M2.547-1.828c0 .656-.094 1.137-.281 1.437-.2.313-.496.47-.891.47-.406 0-.703-.157-.89-.47C.296-.703.202-1.18.202-1.828c0-.664.098-1.149.297-1.453.188-.313.477-.469.875-.469.406 0 .703.164.89.484.188.313.282.793.282 1.438zm-.625 1.11c.039-.114.07-.266.094-.454.02-.187.03-.406.03-.656 0-.258-.01-.477-.03-.656a2.744 2.744 0 0 0-.094-.47.69.69 0 0 0-.203-.28.564.564 0 0 0-.344-.11.489.489 0 0 0-.328.11.598.598 0 0 0-.219.28 1.31 1.31 0 0 0-.094.47 5.8 5.8 0 0 0-.03.656c0 .25.007.465.03.64.008.18.04.336.094.47.05.124.117.218.203.28.082.075.196.11.344.11.133 0 .25-.031.344-.094a.814.814 0 0 0 .203-.297zm0 0"/></symbol><symbol overflow="visible" id="E"><path d="M2.61 0h-.594L.984-1.328l-.187.172V0H.328v-3.828h.469v2.234L1.89-2.75h.578l-1.14 1.14zm0 0"/></symbol></defs><path d="M322.621 186.602V201m0-14.398v-14.403M308.219 201h14.402m7.199-28.8h-7.199m-28.801 0V201m-7.14 0h7.14m21.602-14.398v-14.403m0 .001h-7.203m0 0h-7.2m-7.199 0h-14.34m14.34 0h14.399m-21.539 50.34h-14.4m.001 0h7.2m-7.2-21.54h7.2m-7.2-14.398V201m7.199 0v7.2m0 0h7.2m28.742 28.741v7.2m14.398-7.2v7.2m-50.34-7.2h7.2m0 0v7.2m0-.001v7.2m0 0h35.941m0 0v-7.2m-21.601-7.199v7.2m0-.001h-7.2m21.602-28.742h-7.203m7.203 0h14.398m0 0h-7.199m-57.543 0v14.34m0 0h43.14m14.403 0H308.22m-.001 0v-7.199m-43.141-7.141v-28.796m0 0V201m14.402 43.14h-7.199m-7.203 3.598v-10.797m43.141-28.741h7.203m-7.203 0h-7.2m.001 0v7.198m0 0h-14.34m35.941-7.198h-7.2" fill="none" stroke-width="3.6" stroke-linecap="round" stroke-linejoin="round" stroke="navy" stroke-miterlimit="10"/><path d="M324.48 215.398a1.862 1.862 0 0 1-1.859 1.864 1.862 1.862 0 0 1 0-3.723 1.86 1.86 0 0 1 1.86 1.86" fill-rule="evenodd" fill="green"/><path d="M324.48 215.398a1.862 1.862 0 0 1-1.859 1.864 1.862 1.862 0 0 1 0-3.723 1.86 1.86 0 0 1 1.86 1.86zm0 0" fill="none" stroke-width=".12" stroke-linecap="round" stroke-linejoin="round" stroke="green" stroke-miterlimit="10"/><path d="M323.762 215.398a1.14 1.14 0 0 1-1.14 1.141 1.137 1.137 0 1 1-.001-2.277c.629 0 1.14.508 1.14 1.136" fill-rule="evenodd" fill="#fff"/><path d="M323.762 215.398a1.14 1.14 0 0 1-1.14 1.141 1.137 1.137 0 1 1-.001-2.277c.629 0 1.14.508 1.14 1.136zm0 0" fill="none" stroke-width=".06" stroke-linecap="square" stroke-linejoin="bevel" stroke="#000" stroke-miterlimit="10"/><path d="M324.48 229.738a1.862 1.862 0 0 1-1.859 1.864 1.862 1.862 0 0 1 0-3.723c1.027 0 1.86.836 1.86 1.86" fill-rule="evenodd" fill="green"/><path d="M324.48 229.738a1.862 1.862 0 0 1-1.859 1.864 1.862 1.862 0 0 1 0-3.723c1.027 0 1.86.836 1.86 1.86zm0 0" fill="none" stroke-width=".12" stroke-linecap="round" stroke-linejoin="round" stroke="green" stroke-miterlimit="10"/><path d="M323.762 229.738a1.14 1.14 0 0 1-1.14 1.14 1.137 1.137 0 0 1-1.142-1.14c0-.629.508-1.136 1.141-1.136.629 0 1.14.507 1.14 1.136" fill-rule="evenodd" fill="#fff"/><path d="M323.762 229.738a1.14 1.14 0 0 1-1.14 1.14 1.137 1.137 0 0 1-1.142-1.14c0-.629.508-1.136 1.141-1.136.629 0 1.14.507 1.14 1.136zm0 0" fill="none" stroke-width=".06" stroke-linecap="square" stroke-linejoin="bevel" stroke="#000" stroke-miterlimit="10"/><path d="M317.281 215.398a1.865 1.865 0 0 1-1.86 1.864 1.865 1.865 0 0 1-1.862-1.864 1.862 1.862 0 0 1 3.722 0" fill-rule="evenodd" fill="green"/><path d="M317.281 215.398a1.865 1.865 0 0 1-1.86 1.864 1.865 1.865 0 0 1-1.862-1.864 1.862 1.862 0 0 1 3.722 0zm0 0" fill="none" stroke-width=".12" stroke-linecap="round" stroke-linejoin="round" stroke="green" stroke-miterlimit="10"/><path d="M316.559 215.398c0 .633-.508 1.141-1.137 1.141-.633 0-1.14-.508-1.14-1.14 0-.63.507-1.137 1.14-1.137.629 0 1.137.508 1.137 1.136" fill-rule="evenodd" fill="#fff"/><path d="M316.559 215.398c0 .633-.508 1.141-1.137 1.141-.633 0-1.14-.508-1.14-1.14 0-.63.507-1.137 1.14-1.137.629 0 1.137.508 1.137 1.136zm0 0" fill="none" stroke-width=".06" stroke-linecap="square" stroke-linejoin="bevel" stroke="#000" stroke-miterlimit="10"/><path d="M317.281 236.941a1.861 1.861 0 1 1-3.722-.003 1.861 1.861 0 0 1 3.722.003" fill-rule="evenodd" fill="green"/><path d="M317.281 236.941a1.861 1.861 0 1 1-3.722-.003 1.861 1.861 0 0 1 3.722.003zm0 0" fill="none" stroke-width=".12" stroke-linecap="round" stroke-linejoin="round" stroke="green" stroke-miterlimit="10"/><path d="M316.559 236.941c0 .63-.508 1.137-1.137 1.137a1.14 1.14 0 1 1 1.137-1.137" fill-rule="evenodd" fill="#fff"/><path d="M316.559 236.941c0 .63-.508 1.137-1.137 1.137a1.14 1.14 0 1 1 1.137-1.137zm0 0" fill="none" stroke-width=".06" stroke-linecap="square" stroke-linejoin="bevel" stroke="#000" stroke-miterlimit="10"/><path d="M331.68 236.941a1.859 1.859 0 1 1-3.72 0c0-1.027.833-1.863 1.86-1.863 1.028 0 1.86.836 1.86 1.863" fill-rule="evenodd" fill="green"/><path d="M331.68 236.941a1.859 1.859 0 1 1-3.72 0c0-1.027.833-1.863 1.86-1.863 1.028 0 1.86.836 1.86 1.863zm0 0" fill="none" stroke-width=".12" stroke-linecap="round" stroke-linejoin="round" stroke="green" stroke-miterlimit="10"/><path d="M330.96 236.941c0 .63-.51 1.137-1.14 1.137a1.139 1.139 0 1 1 0-2.277c.63 0 1.14.512 1.14 1.14" fill-rule="evenodd" fill="#fff"/><path d="M330.96 236.941c0 .63-.51 1.137-1.14 1.137a1.139 1.139 0 1 1 0-2.277c.63 0 1.14.511 1.14 1.14zm0 0" fill="none" stroke-width=".06" stroke-linecap="square" stroke-linejoin="bevel" stroke="#000" stroke-miterlimit="10"/><path d="M331.68 215.398a1.862 1.862 0 0 1-1.86 1.864 1.862 1.862 0 0 1 0-3.723c1.028 0 1.86.832 1.86 1.86" fill-rule="evenodd" fill="green"/><path d="M331.68 215.398a1.862 1.862 0 0 1-1.86 1.864 1.862 1.862 0 0 1 0-3.723c1.028 0 1.86.832 1.86 1.86zm0 0" fill="none" stroke-width=".12" stroke-linecap="round" stroke-linejoin="round" stroke="green" stroke-miterlimit="10"/><path d="M330.96 215.398a1.14 1.14 0 1 1-2.278.003 1.14 1.14 0 0 1 2.279-.003" fill-rule="evenodd" fill="#fff"/><path d="M330.96 215.398a1.14 1.14 0 1 1-2.278.003 1.14 1.14 0 0 1 2.279-.003zm0 0" fill="none" stroke-width=".06" stroke-linecap="square" stroke-linejoin="bevel" stroke="#000" stroke-miterlimit="10"/><path d="M284.82 179.398h3.66" fill="none" stroke-width="3.72" stroke-linecap="round" stroke-linejoin="round" stroke="green" stroke-miterlimit="10"/><path d="M287.82 179.398a1.14 1.14 0 1 1-2.279.003 1.14 1.14 0 0 1 2.28-.003" fill-rule="evenodd" fill="#fff"/><path d="M287.82 179.398a1.14 1.14 0 1 1-2.279.003 1.14 1.14 0 0 1 2.28-.003zm0 0" fill="none" stroke-width=".06" stroke-linecap="square" stroke-linejoin="bevel" stroke="#000" stroke-miterlimit="10"/><path d="M284.82 186.602h3.66" fill="none" stroke-width="3.72" stroke-linecap="round" stroke-linejoin="round" stroke="green" stroke-miterlimit="10"/><path d="M287.82 186.602c0 .628-.511 1.136-1.14 1.136a1.139 1.139 0 1 1 0-2.277c.629 0 1.14.508 1.14 1.14" fill-rule="evenodd" fill="#fff"/><path d="M287.82 186.602c0 .628-.511 1.136-1.14 1.136a1.139 1.139 0 1 1 0-2.277c.629 0 1.14.508 1.14 1.14zm0 0" fill="none" stroke-width=".06" stroke-linecap="square" stroke-linejoin="bevel" stroke="#000" stroke-miterlimit="10"/><path d="M284.82 222.54h3.66" fill="none" stroke-width="3.72" stroke-linecap="round" stroke-linejoin="round" stroke="green" stroke-miterlimit="10"/><path d="M287.82 222.54a1.14 1.14 0 1 1-2.28 0 1.141 1.141 0 1 1 2.28-.001" fill-rule="evenodd" fill="#fff"/><path d="M287.82 222.54a1.14 1.14 0 1 1-2.28 0 1.141 1.141 0 1 1 2.28-.001zm0 0" fill="none" stroke-width=".06" stroke-linecap="square" stroke-linejoin="bevel" stroke="#000" stroke-miterlimit="10"/><path d="M306.36 222.54h3.718" fill="none" stroke-width="3.72" stroke-linecap="round" stroke-linejoin="round" stroke="green" stroke-miterlimit="10"/><path d="M309.36 222.54c0 .632-.508 1.14-1.141 1.14a1.14 1.14 0 1 1 0-2.282c.633 0 1.14.512 1.14 1.141" fill-rule="evenodd" fill="#fff"/><path d="M309.36 222.54c0 .632-.508 1.14-1.141 1.14a1.14 1.14 0 1 1 0-2.282c.633 0 1.14.512 1.14 1.141zm0 0" fill="none" stroke-width=".06" stroke-linecap="square" stroke-linejoin="bevel" stroke="#000" stroke-miterlimit="10"/><path d="M284.82 193.8h3.66" fill="none" stroke-width="3.72" stroke-linecap="round" stroke-linejoin="round" stroke="green" stroke-miterlimit="10"/><path d="M287.82 193.8a1.141 1.141 0 1 1-2.282-.002 1.141 1.141 0 0 1 2.282.003" fill-rule="evenodd" fill="#fff"/><path d="M287.82 193.8a1.141 1.141 0 1 1-2.282-.002 1.141 1.141 0 0 1 2.282.003zm0 0" fill="none" stroke-width=".06" stroke-linecap="square" stroke-linejoin="bevel" stroke="#000" stroke-miterlimit="10"/><path d="M284.82 201h3.66" fill="none" stroke-width="3.72" stroke-linecap="round" stroke-linejoin="round" stroke="green" stroke-miterlimit="10"/><path d="M287.82 201a1.14 1.14 0 1 1-2.282-.002 1.14 1.14 0 0 1 2.282.002" fill-rule="evenodd" fill="#fff"/><path d="M287.82 201a1.14 1.14 0 1 1-2.282-.002 1.14 1.14 0 0 1 2.282.002zm0 0" fill="none" stroke-width=".06" stroke-linecap="square" stroke-linejoin="bevel" stroke="#000" stroke-miterlimit="10"/><path d="M284.82 215.398h3.66" fill="none" stroke-width="3.72" stroke-linecap="round" stroke-linejoin="round" stroke="green" stroke-miterlimit="10"/><path d="M287.82 215.398a1.14 1.14 0 1 1-2.279.003 1.14 1.14 0 0 1 2.28-.003" fill-rule="evenodd" fill="#fff"/><path d="M287.82 215.398a1.14 1.14 0 1 1-2.279.003 1.14 1.14 0 0 1 2.28-.003zm0 0" fill="none" stroke-width=".06" stroke-linecap="square" stroke-linejoin="bevel" stroke="#000" stroke-miterlimit="10"/><path d="M284.82 208.2h3.66" fill="none" stroke-width="3.72" stroke-linecap="round" stroke-linejoin="round" stroke="green" stroke-miterlimit="10"/><path d="M287.82 208.2a1.14 1.14 0 1 1-2.278 0 1.14 1.14 0 0 1 2.278-.001" fill-rule="evenodd" fill="#fff"/><path d="M287.82 208.2a1.14 1.14 0 1 1-2.278 0 1.14 1.14 0 0 1 2.278-.001zm0 0" fill="none" stroke-width=".06" stroke-linecap="square" stroke-linejoin="bevel" stroke="#000" stroke-miterlimit="10"/><path d="M306.36 215.398h3.718" fill="none" stroke-width="3.72" stroke-linecap="round" stroke-linejoin="round" stroke="green" stroke-miterlimit="10"/><path d="M309.36 215.398c0 .633-.508 1.141-1.141 1.141a1.14 1.14 0 1 1 0-2.277c.633 0 1.14.508 1.14 1.136" fill-rule="evenodd" fill="#fff"/><path d="M309.36 215.398c0 .633-.508 1.141-1.141 1.141a1.14 1.14 0 1 1 0-2.277c.633 0 1.14.508 1.14 1.136zm0 0" fill="none" stroke-width=".06" stroke-linecap="square" stroke-linejoin="bevel" stroke="#000" stroke-miterlimit="10"/><path d="M306.36 208.2h3.718" fill="none" stroke-width="3.72" stroke-linecap="round" stroke-linejoin="round" stroke="green" stroke-miterlimit="10"/><path d="M309.36 208.2a1.14 1.14 0 1 1-2.282 0 1.14 1.14 0 1 1 2.281 0" fill-rule="evenodd" fill="#fff"/><path d="M309.36 208.2a1.14 1.14 0 1 1-2.282 0 1.14 1.14 0 1 1 2.281 0zm0 0" fill="none" stroke-width=".06" stroke-linecap="square" stroke-linejoin="bevel" stroke="#000" stroke-miterlimit="10"/><path d="M306.36 201h3.718" fill="none" stroke-width="3.72" stroke-linecap="round" stroke-linejoin="round" stroke="green" stroke-miterlimit="10"/><path d="M309.36 201a1.14 1.14 0 1 1-2.282 0 1.14 1.14 0 1 1 2.281 0" fill-rule="evenodd" fill="#fff"/><path d="M309.36 201a1.14 1.14 0 1 1-2.282 0 1.14 1.14 0 1 1 2.281 0zm0 0" fill="none" stroke-width=".06" stroke-linecap="square" stroke-linejoin="bevel" stroke="#000" stroke-miterlimit="10"/><path d="M306.36 193.8h3.718" fill="none" stroke-width="3.72" stroke-linecap="round" stroke-linejoin="round" stroke="green" stroke-miterlimit="10"/><path d="M309.36 193.8a1.14 1.14 0 1 1-2.282 0 1.14 1.14 0 1 1 2.281 0" fill-rule="evenodd" fill="#fff"/><path d="M309.36 193.8a1.14 1.14 0 1 1-2.282 0 1.14 1.14 0 1 1 2.281 0zm0 0" fill="none" stroke-width=".06" stroke-linecap="square" stroke-linejoin="bevel" stroke="#000" stroke-miterlimit="10"/><path d="M306.36 186.602h3.718" fill="none" stroke-width="3.72" stroke-linecap="round" stroke-linejoin="round" stroke="green" stroke-miterlimit="10"/><path d="M309.36 186.602c0 .628-.508 1.136-1.141 1.136a1.139 1.139 0 1 1 0-2.277c.633 0 1.14.508 1.14 1.14" fill-rule="evenodd" fill="#fff"/><path d="M309.36 186.602c0 .628-.508 1.136-1.141 1.136a1.139 1.139 0 1 1 0-2.277c.633 0 1.14.508 1.14 1.14zm0 0" fill="none" stroke-width=".06" stroke-linecap="square" stroke-linejoin="bevel" stroke="#000" stroke-miterlimit="10"/><path d="M306.36 179.398h3.718" fill="none" stroke-width="3.72" stroke-linecap="round" stroke-linejoin="round" stroke="green" stroke-miterlimit="10"/><path d="M309.36 179.398c0 .633-.508 1.141-1.141 1.141a1.14 1.14 0 1 1 0-2.277c.633 0 1.14.508 1.14 1.136" fill-rule="evenodd" fill="#fff"/><path d="M309.36 179.398c0 .633-.508 1.141-1.141 1.141a1.14 1.14 0 1 1 0-2.277c.633 0 1.14.508 1.14 1.136zm0 0" fill="none" stroke-width=".06" stroke-linecap="square" stroke-linejoin="bevel" stroke="#000" stroke-miterlimit="10"/><path d="M274.14 187.379l-1.081 1.082H271.5l-1.078-1.082v-1.559l1.078-1.082h1.559l1.082 1.082v1.559" fill="green"/><path d="M274.14 187.379l-1.081 1.082H271.5l-1.078-1.082v-1.559l1.078-1.082h1.559l1.082 1.082zm0 0" fill="none" stroke-width=".12" stroke-linecap="round" stroke-linejoin="round" stroke="green" stroke-miterlimit="10"/><path d="M273.422 186.602c0 .628-.512 1.136-1.14 1.136a1.136 1.136 0 0 1-1.141-1.136 1.14 1.14 0 1 1 2.281 0" fill-rule="evenodd" fill="#fff"/><path d="M273.422 186.602c0 .628-.512 1.136-1.14 1.136a1.136 1.136 0 0 1-1.141-1.136 1.14 1.14 0 1 1 2.281 0zm0 0" fill="none" stroke-width=".06" stroke-linecap="square" stroke-linejoin="bevel" stroke="#000" stroke-miterlimit="10"/><path d="M266.941 187.379l-1.082 1.082h-1.558l-1.082-1.082v-1.559l1.082-1.082h1.558l1.082 1.082v1.559" fill="green"/><path d="M266.941 187.379l-1.082 1.082h-1.558l-1.082-1.082v-1.559l1.082-1.082h1.558l1.082 1.082zm0 0" fill="none" stroke-width=".12" stroke-linecap="round" stroke-linejoin="round" stroke="green" stroke-miterlimit="10"/><path d="M266.219 186.602c0 .628-.508 1.136-1.14 1.136a1.135 1.135 0 0 1-1.138-1.136c0-.633.508-1.141 1.137-1.141.633 0 1.14.508 1.14 1.14" fill-rule="evenodd" fill="#fff"/><path d="M266.219 186.602c0 .628-.508 1.136-1.14 1.136a1.135 1.135 0 0 1-1.138-1.136c0-.633.508-1.141 1.137-1.141.633 0 1.14.508 1.14 1.14zm0 0" fill="none" stroke-width=".06" stroke-linecap="square" stroke-linejoin="bevel" stroke="#000" stroke-miterlimit="10"/><path d="M266.941 201.781l-1.082 1.078h-1.558l-1.082-1.078v-1.562l1.082-1.078h1.558l1.082 1.078v1.562" fill="green"/><path d="M266.941 201.781l-1.082 1.078h-1.558l-1.082-1.078v-1.562l1.082-1.078h1.558l1.082 1.078zm0 0" fill="none" stroke-width=".12" stroke-linecap="round" stroke-linejoin="round" stroke="green" stroke-miterlimit="10"/><path d="M266.219 201a1.14 1.14 0 1 1-2.28.002 1.14 1.14 0 0 1 2.28-.002" fill-rule="evenodd" fill="#fff"/><path d="M266.219 201a1.14 1.14 0 1 1-2.28.002 1.14 1.14 0 0 1 2.28-.002zm0 0" fill="none" stroke-width=".06" stroke-linecap="square" stroke-linejoin="bevel" stroke="#000" stroke-miterlimit="10"/><path d="M274.14 201.781l-1.081 1.078H271.5l-1.078-1.078v-1.562l1.078-1.078h1.559l1.082 1.078v1.562" fill="green"/><path d="M274.14 201.781l-1.081 1.078H271.5l-1.078-1.078v-1.562l1.078-1.078h1.559l1.082 1.078zm0 0" fill="none" stroke-width=".12" stroke-linecap="round" stroke-linejoin="round" stroke="green" stroke-miterlimit="10"/><path d="M273.422 201a1.14 1.14 0 1 1-1.14-1.14c.628 0 1.14.511 1.14 1.14" fill-rule="evenodd" fill="#fff"/><path d="M273.422 201a1.14 1.14 0 1 1-1.14-1.14c.628 0 1.14.511 1.14 1.14zm0 0" fill="none" stroke-width=".06" stroke-linecap="square" stroke-linejoin="bevel" stroke="#000" stroke-miterlimit="10"/><path d="M281.219 201a1.74 1.74 0 1 1-3.48 0 1.74 1.74 0 0 1 3.48 0" fill-rule="evenodd" fill="green"/><path d="M281.219 201a1.74 1.74 0 1 1-3.48 0 1.74 1.74 0 0 1 3.48 0zm0 0" fill="none" stroke-width=".12" stroke-linecap="round" stroke-linejoin="round" stroke="green" stroke-miterlimit="10"/><path d="M280.5 201a1.02 1.02 0 1 1-2.04-.001 1.02 1.02 0 0 1 2.04.001" fill-rule="evenodd" fill="#fff"/><path d="M280.5 201a1.02 1.02 0 1 1-2.04-.001 1.02 1.02 0 0 1 2.04.001zm0 0" fill="none" stroke-width=".06" stroke-linecap="square" stroke-linejoin="bevel" stroke="#000" stroke-miterlimit="10"/><path d="M281.219 222.54a1.74 1.74 0 1 1-3.481.003 1.74 1.74 0 0 1 3.48-.004" fill-rule="evenodd" fill="green"/><path d="M281.219 222.54a1.74 1.74 0 1 1-3.481.003 1.74 1.74 0 0 1 3.48-.004zm0 0" fill="none" stroke-width=".12" stroke-linecap="round" stroke-linejoin="round" stroke="green" stroke-miterlimit="10"/><path d="M280.5 222.54a1.02 1.02 0 1 1-2.04-.002 1.02 1.02 0 0 1 2.04.001" fill-rule="evenodd" fill="#fff"/><path d="M280.5 222.54a1.02 1.02 0 1 1-2.04-.002 1.02 1.02 0 0 1 2.04.001zm0 0" fill="none" stroke-width=".06" stroke-linecap="square" stroke-linejoin="bevel" stroke="#000" stroke-miterlimit="10"/><path d="M302.762 236.941a1.74 1.74 0 1 1-3.481-.004 1.74 1.74 0 0 1 3.48.004" fill-rule="evenodd" fill="green"/><path d="M302.762 236.941a1.74 1.74 0 1 1-3.481-.004 1.74 1.74 0 0 1 3.48.004zm0 0" fill="none" stroke-width=".12" stroke-linecap="round" stroke-linejoin="round" stroke="green" stroke-miterlimit="10"/><path d="M302.04 236.941a1.02 1.02 0 1 1-2.041-.001 1.02 1.02 0 0 1 2.04.001" fill-rule="evenodd" fill="#fff"/><path d="M302.04 236.941a1.02 1.02 0 1 1-2.041-.001 1.02 1.02 0 0 1 2.04.001zm0 0" fill="none" stroke-width=".06" stroke-linecap="square" stroke-linejoin="bevel" stroke="#000" stroke-miterlimit="10"/><path d="M281.219 236.941a1.74 1.74 0 1 1-1.738-1.742c.96 0 1.738.781 1.738 1.742" fill-rule="evenodd" fill="green"/><path d="M281.219 236.941a1.74 1.74 0 1 1-1.738-1.742c.96 0 1.738.781 1.738 1.742zm0 0" fill="none" stroke-width=".12" stroke-linecap="round" stroke-linejoin="round" stroke="green" stroke-miterlimit="10"/><path d="M280.5 236.941a1.02 1.02 0 1 1-2.04-.001 1.02 1.02 0 0 1 2.04.001" fill-rule="evenodd" fill="#fff"/><path d="M280.5 236.941a1.02 1.02 0 1 1-2.04-.001 1.02 1.02 0 0 1 2.04.001zm0 0" fill="none" stroke-width=".06" stroke-linecap="square" stroke-linejoin="bevel" stroke="#000" stroke-miterlimit="10"/><path d="M282.238 244.14a2.76 2.76 0 0 1-5.52 0 2.764 2.764 0 0 1 2.762-2.761 2.76 2.76 0 0 1 2.758 2.762" fill-rule="evenodd" fill="green"/><path d="M282.238 244.14a2.76 2.76 0 0 1-5.52 0 2.764 2.764 0 0 1 2.762-2.761 2.76 2.76 0 0 1 2.758 2.762zm0 0" fill="none" stroke-width=".12" stroke-linecap="round" stroke-linejoin="round" stroke="green" stroke-miterlimit="10"/><path d="M280.922 244.14a1.442 1.442 0 0 1-2.883 0 1.44 1.44 0 1 1 2.883 0" fill-rule="evenodd" fill="#fff"/><path d="M280.922 244.14a1.442 1.442 0 0 1-2.883 0 1.44 1.44 0 1 1 2.883 0zm0 0" fill="none" stroke-width=".06" stroke-linecap="square" stroke-linejoin="bevel" stroke="#000" stroke-miterlimit="10"/><path d="M289.441 244.14a2.76 2.76 0 0 1-5.52 0 2.76 2.76 0 0 1 2.759-2.761 2.764 2.764 0 0 1 2.761 2.762" fill-rule="evenodd" fill="green"/><path d="M289.441 244.14a2.76 2.76 0 0 1-5.52 0 2.76 2.76 0 0 1 2.759-2.761 2.764 2.764 0 0 1 2.761 2.762zm0 0" fill="none" stroke-width=".12" stroke-linecap="round" stroke-linejoin="round" stroke="green" stroke-miterlimit="10"/><path d="M288.121 244.14a1.442 1.442 0 0 1-2.883 0c0-.796.649-1.44 1.442-1.44a1.44 1.44 0 0 1 1.441 1.44" fill-rule="evenodd" fill="#fff"/><path d="M288.121 244.14a1.442 1.442 0 0 1-2.883 0c0-.796.649-1.44 1.442-1.44a1.44 1.44 0 0 1 1.441 1.44zm0 0" fill="none" stroke-width=".06" stroke-linecap="square" stroke-linejoin="bevel" stroke="#000" stroke-miterlimit="10"/><path d="M296.578 244.14a2.76 2.76 0 0 1-5.52 0 2.764 2.764 0 0 1 2.762-2.761 2.76 2.76 0 0 1 2.758 2.762" fill-rule="evenodd" fill="green"/><path d="M296.578 244.14a2.76 2.76 0 0 1-5.52 0 2.764 2.764 0 0 1 2.762-2.761 2.76 2.76 0 0 1 2.758 2.762zm0 0" fill="none" stroke-width=".12" stroke-linecap="round" stroke-linejoin="round" stroke="green" stroke-miterlimit="10"/><path d="M295.262 244.14a1.442 1.442 0 0 1-2.883 0 1.44 1.44 0 1 1 2.883 0" fill-rule="evenodd" fill="#fff"/><path d="M295.262 244.14a1.442 1.442 0 0 1-2.883 0 1.44 1.44 0 1 1 2.883 0zm0 0" fill="none" stroke-width=".06" stroke-linecap="square" stroke-linejoin="bevel" stroke="#000" stroke-miterlimit="10"/><path d="M274.02 222.54a1.74 1.74 0 1 1-3.481.003 1.74 1.74 0 0 1 3.48-.004" fill-rule="evenodd" fill="green"/><path d="M274.02 222.54a1.74 1.74 0 1 1-3.481.003 1.74 1.74 0 0 1 3.48-.004zm0 0" fill="none" stroke-width=".12" stroke-linecap="round" stroke-linejoin="round" stroke="green" stroke-miterlimit="10"/><path d="M273.3 222.54a1.02 1.02 0 1 1-2.04-.002 1.02 1.02 0 0 1 2.04.001" fill-rule="evenodd" fill="#fff"/><path d="M273.3 222.54a1.02 1.02 0 1 1-2.04-.002 1.02 1.02 0 0 1 2.04.001zm0 0" fill="none" stroke-width=".06" stroke-linecap="square" stroke-linejoin="bevel" stroke="#000" stroke-miterlimit="10"/><path d="M274.02 244.14a1.74 1.74 0 1 1-1.738-1.742c.96 0 1.738.782 1.738 1.743" fill-rule="evenodd" fill="green"/><path d="M274.02 244.14a1.74 1.74 0 1 1-1.738-1.742c.96 0 1.738.782 1.738 1.743zm0 0" fill="none" stroke-width=".12" stroke-linecap="round" stroke-linejoin="round" stroke="green" stroke-miterlimit="10"/><path d="M273.3 244.14a1.02 1.02 0 1 1-2.04 0 1.02 1.02 0 0 1 2.04 0" fill-rule="evenodd" fill="#fff"/><path d="M273.3 244.14a1.02 1.02 0 1 1-2.04 0 1.02 1.02 0 0 1 2.04 0zm0 0" fill="none" stroke-width=".06" stroke-linecap="square" stroke-linejoin="bevel" stroke="#000" stroke-miterlimit="10"/><path d="M318.18 244.14a2.757 2.757 0 0 1-2.758 2.758 2.758 2.758 0 0 1-2.762-2.757 2.76 2.76 0 0 1 5.52 0" fill-rule="evenodd" fill="green"/><path d="M318.18 244.14a2.757 2.757 0 0 1-2.758 2.758 2.758 2.758 0 0 1-2.762-2.757 2.76 2.76 0 0 1 5.52 0zm0 0" fill="none" stroke-width=".12" stroke-linecap="round" stroke-linejoin="round" stroke="green" stroke-miterlimit="10"/><path d="M316.86 244.14a1.439 1.439 0 1 1-2.878-.002 1.439 1.439 0 0 1 2.877.003" fill-rule="evenodd" fill="#fff"/><path d="M316.86 244.14a1.439 1.439 0 1 1-2.878-.002 1.439 1.439 0 0 1 2.877.003zm0 0" fill="none" stroke-width=".06" stroke-linecap="square" stroke-linejoin="bevel" stroke="#000" stroke-miterlimit="10"/><path d="M325.379 244.14a2.76 2.76 0 0 1-5.52 0 2.764 2.764 0 0 1 2.762-2.761 2.76 2.76 0 0 1 2.758 2.762" fill-rule="evenodd" fill="green"/><path d="M325.379 244.14a2.76 2.76 0 0 1-5.52 0 2.764 2.764 0 0 1 2.762-2.761 2.76 2.76 0 0 1 2.758 2.762zm0 0" fill="none" stroke-width=".12" stroke-linecap="round" stroke-linejoin="round" stroke="green" stroke-miterlimit="10"/><path d="M324.059 244.14a1.439 1.439 0 1 1-2.878-.002 1.439 1.439 0 0 1 2.878.003" fill-rule="evenodd" fill="#fff"/><path d="M324.059 244.14a1.439 1.439 0 1 1-2.878-.002 1.439 1.439 0 0 1 2.878.003zm0 0" fill="none" stroke-width=".06" stroke-linecap="square" stroke-linejoin="bevel" stroke="#000" stroke-miterlimit="10"/><path d="M332.578 244.14a2.76 2.76 0 0 1-5.52 0 2.764 2.764 0 0 1 2.762-2.761 2.76 2.76 0 0 1 2.758 2.762" fill-rule="evenodd" fill="green"/><path d="M332.578 244.14a2.76 2.76 0 0 1-5.52 0 2.764 2.764 0 0 1 2.762-2.761 2.76 2.76 0 0 1 2.758 2.762zm0 0" fill="none" stroke-width=".12" stroke-linecap="round" stroke-linejoin="round" stroke="green" stroke-miterlimit="10"/><path d="M331.262 244.14a1.442 1.442 0 0 1-2.883 0 1.44 1.44 0 1 1 2.883 0" fill-rule="evenodd" fill="#fff"/><path d="M331.262 244.14a1.442 1.442 0 0 1-2.883 0 1.44 1.44 0 1 1 2.883 0zm0 0" fill="none" stroke-width=".06" stroke-linecap="square" stroke-linejoin="bevel" stroke="#000" stroke-miterlimit="10"/><path d="M317.16 208.2a1.74 1.74 0 1 1-3.48.003 1.74 1.74 0 0 1 3.48-.004" fill-rule="evenodd" fill="green"/><path d="M317.16 208.2a1.74 1.74 0 1 1-3.48.003 1.74 1.74 0 0 1 3.48-.004zm0 0" fill="none" stroke-width=".12" stroke-linecap="round" stroke-linejoin="round" stroke="green" stroke-miterlimit="10"/><path d="M316.441 208.2a1.021 1.021 0 1 1-2.043 0 1.021 1.021 0 0 1 2.043 0" fill-rule="evenodd" fill="#fff"/><path d="M316.441 208.2a1.021 1.021 0 1 1-2.043 0 1.021 1.021 0 0 1 2.043 0zm0 0" fill="none" stroke-width=".06" stroke-linecap="square" stroke-linejoin="bevel" stroke="#000" stroke-miterlimit="10"/><path d="M317.16 186.602a1.74 1.74 0 1 1-1.738-1.742c.96 0 1.738.78 1.738 1.742" fill-rule="evenodd" fill="green"/><path d="M317.16 186.602a1.74 1.74 0 1 1-1.738-1.742c.96 0 1.738.78 1.738 1.742zm0 0" fill="none" stroke-width=".12" stroke-linecap="round" stroke-linejoin="round" stroke="green" stroke-miterlimit="10"/><path d="M316.441 186.602a1.021 1.021 0 1 1-1.02-1.023c.563 0 1.02.456 1.02 1.023" fill-rule="evenodd" fill="#fff"/><path d="M316.441 186.602a1.021 1.021 0 1 1-1.02-1.023c.563 0 1.02.456 1.02 1.023zm0 0" fill="none" stroke-width=".06" stroke-linecap="square" stroke-linejoin="bevel" stroke="#000" stroke-miterlimit="10"/><path d="M324.36 186.602a1.74 1.74 0 1 1-1.738-1.742c.96 0 1.737.78 1.737 1.742" fill-rule="evenodd" fill="green"/><path d="M324.36 186.602a1.74 1.74 0 1 1-1.738-1.742c.96 0 1.737.78 1.737 1.742zm0 0" fill="none" stroke-width=".12" stroke-linecap="round" stroke-linejoin="round" stroke="green" stroke-miterlimit="10"/><path d="M323.64 186.602a1.02 1.02 0 1 1-1.019-1.024c.563 0 1.02.457 1.02 1.024" fill-rule="evenodd" fill="#fff"/><path d="M323.64 186.602a1.02 1.02 0 1 1-1.019-1.024c.563 0 1.02.457 1.02 1.024zm0 0" fill="none" stroke-width=".06" stroke-linecap="square" stroke-linejoin="bevel" stroke="#000" stroke-miterlimit="10"/><path d="M324.36 208.2a1.74 1.74 0 1 1-3.482.003 1.74 1.74 0 0 1 3.481-.004" fill-rule="evenodd" fill="green"/><path d="M324.36 208.2a1.74 1.74 0 1 1-3.482.003 1.74 1.74 0 0 1 3.481-.004zm0 0" fill="none" stroke-width=".12" stroke-linecap="round" stroke-linejoin="round" stroke="green" stroke-miterlimit="10"/><path d="M323.64 208.2a1.02 1.02 0 1 1-2.04-.002 1.02 1.02 0 0 1 2.04.001" fill-rule="evenodd" fill="#fff"/><path d="M323.64 208.2a1.02 1.02 0 1 1-2.04-.002 1.02 1.02 0 0 1 2.04.001zm0 0" fill="none" stroke-width=".06" stroke-linecap="square" stroke-linejoin="bevel" stroke="#000" stroke-miterlimit="10"/><path d="M266.82 236.941a1.74 1.74 0 1 1-3.48-.004 1.74 1.74 0 0 1 3.48.004" fill-rule="evenodd" fill="green"/><path d="M266.82 236.941a1.74 1.74 0 1 1-3.48-.004 1.74 1.74 0 0 1 3.48.004zm0 0" fill="none" stroke-width=".12" stroke-linecap="round" stroke-linejoin="round" stroke="green" stroke-miterlimit="10"/><path d="M266.102 236.941a1.021 1.021 0 0 1-2.043 0 1.021 1.021 0 1 1 2.043 0" fill-rule="evenodd" fill="#fff"/><path d="M266.102 236.941a1.021 1.021 0 0 1-2.043 0 1.021 1.021 0 1 1 2.043 0zm0 0" fill="none" stroke-width=".06" stroke-linecap="square" stroke-linejoin="bevel" stroke="#000" stroke-miterlimit="10"/><path d="M266.82 215.398" fill-rule="evenodd" fill="green"/><path d="M266.82 215.398zm0 0" fill="none" stroke-width=".12" stroke-linecap="round" stroke-linejoin="round" stroke="green" stroke-miterlimit="10"/><path d="M266.102 215.398a1.022 1.022 0 1 1-2.044.003 1.022 1.022 0 0 1 2.044-.003" fill-rule="evenodd" fill="#fff"/><path d="M266.102 215.398a1.022 1.022 0 1 1-2.044.003 1.022 1.022 0 0 1 2.044-.003zm0 0" fill="none" stroke-width=".06" stroke-linecap="square" stroke-linejoin="bevel" stroke="#000" stroke-miterlimit="10"/><path d="M267.84 247.738a2.759 2.759 0 1 1-5.52 0 2.757 2.757 0 0 1 2.758-2.758 2.758 2.758 0 0 1 2.762 2.758" fill-rule="evenodd" fill="green"/><path d="M267.84 247.738a2.759 2.759 0 1 1-5.52 0 2.757 2.757 0 0 1 2.758-2.758 2.758 2.758 0 0 1 2.762 2.758zm0 0" fill="none" stroke-width=".12" stroke-linecap="round" stroke-linejoin="round" stroke="green" stroke-miterlimit="10"/><path d="M266.52 247.738a1.44 1.44 0 1 1-2.881.002 1.44 1.44 0 0 1 2.88-.002" fill-rule="evenodd" fill="#fff"/><path d="M266.52 247.738a1.44 1.44 0 1 1-2.881.002 1.44 1.44 0 0 1 2.88-.002zm0 0" fill="none" stroke-width=".06" stroke-linecap="square" stroke-linejoin="bevel" stroke="#000" stroke-miterlimit="10"/><path d="M332.578 172.2a2.76 2.76 0 0 1-2.758 2.76 2.764 2.764 0 0 1-2.761-2.76 2.76 2.76 0 0 1 5.52 0" fill-rule="evenodd" fill="green"/><path d="M332.578 172.2a2.76 2.76 0 0 1-2.758 2.76 2.764 2.764 0 0 1-2.761-2.76 2.76 2.76 0 0 1 5.52 0zm0 0" fill="none" stroke-width=".12" stroke-linecap="round" stroke-linejoin="round" stroke="green" stroke-miterlimit="10"/><path d="M331.262 172.2c0 .796-.649 1.44-1.442 1.44a1.44 1.44 0 1 1 1.442-1.44" fill-rule="evenodd" fill="#fff"/><path d="M331.262 172.2c0 .796-.649 1.44-1.442 1.44a1.44 1.44 0 1 1 1.442-1.44zm0 0" fill="none" stroke-width=".06" stroke-linecap="square" stroke-linejoin="bevel" stroke="#000" stroke-miterlimit="10"/><path d="M282.238 172.2a2.76 2.76 0 0 1-2.758 2.76 2.764 2.764 0 0 1-2.761-2.76 2.76 2.76 0 0 1 5.52 0" fill-rule="evenodd" fill="green"/><path d="M282.238 172.2a2.76 2.76 0 0 1-2.758 2.76 2.764 2.764 0 0 1-2.761-2.76 2.76 2.76 0 0 1 5.52 0zm0 0" fill="none" stroke-width=".12" stroke-linecap="round" stroke-linejoin="round" stroke="green" stroke-miterlimit="10"/><path d="M280.922 172.2c0 .796-.649 1.44-1.442 1.44a1.44 1.44 0 1 1 1.442-1.44" fill-rule="evenodd" fill="#fff"/><path d="M280.922 172.2c0 .796-.649 1.44-1.442 1.44a1.44 1.44 0 1 1 1.442-1.44zm0 0" fill="none" stroke-width=".06" stroke-linecap="square" stroke-linejoin="bevel" stroke="#000" stroke-miterlimit="10"/><path d="M324.48 172.2a1.859 1.859 0 1 1-3.717 0 1.859 1.859 0 0 1 3.717 0" fill-rule="evenodd" fill="green"/><path d="M324.48 172.2a1.859 1.859 0 1 1-3.717 0 1.859 1.859 0 0 1 3.717 0zm0 0" fill="none" stroke-width=".12" stroke-linecap="round" stroke-linejoin="round" stroke="green" stroke-miterlimit="10"/><path d="M323.762 172.2a1.14 1.14 0 1 1-1.14-1.14 1.14 1.14 0 0 1 1.14 1.14" fill-rule="evenodd" fill="#fff"/><path d="M323.762 172.2a1.14 1.14 0 1 1-1.14-1.14 1.14 1.14 0 0 1 1.14 1.14zm0 0" fill="none" stroke-width=".06" stroke-linecap="square" stroke-linejoin="bevel" stroke="#000" stroke-miterlimit="10"/><path d="M310.078 172.2a1.859 1.859 0 1 1-3.718 0 1.859 1.859 0 0 1 3.718 0" fill-rule="evenodd" fill="green"/><path d="M310.078 172.2a1.859 1.859 0 1 1-3.718 0 1.859 1.859 0 0 1 3.718 0zm0 0" fill="none" stroke-width=".12" stroke-linecap="round" stroke-linejoin="round" stroke="green" stroke-miterlimit="10"/><path d="M309.36 172.2a1.14 1.14 0 1 1-2.282 0 1.14 1.14 0 1 1 2.281 0" fill-rule="evenodd" fill="#fff"/><path d="M309.36 172.2a1.14 1.14 0 1 1-2.282 0 1.14 1.14 0 1 1 2.281 0zm0 0" fill="none" stroke-width=".06" stroke-linecap="square" stroke-linejoin="bevel" stroke="#000" stroke-miterlimit="10"/><path d="M324.48 215.398a1.862 1.862 0 0 1-1.859 1.864 1.862 1.862 0 0 1 0-3.723 1.86 1.86 0 0 1 1.86 1.86" fill-rule="evenodd" fill="green"/><path d="M324.48 215.398a1.862 1.862 0 0 1-1.859 1.864 1.862 1.862 0 0 1 0-3.723 1.86 1.86 0 0 1 1.86 1.86zm0 0" fill="none" stroke-width=".12" stroke-linecap="round" stroke-linejoin="round" stroke="green" stroke-miterlimit="10"/><path d="M323.762 215.398a1.14 1.14 0 0 1-1.14 1.141 1.137 1.137 0 1 1-.001-2.277c.629 0 1.14.508 1.14 1.136" fill-rule="evenodd" fill="#fff"/><path d="M323.762 215.398a1.14 1.14 0 0 1-1.14 1.141 1.137 1.137 0 1 1-.001-2.277c.629 0 1.14.508 1.14 1.136zm0 0" fill="none" stroke-width=".06" stroke-linecap="square" stroke-linejoin="bevel" stroke="#000" stroke-miterlimit="10"/><path d="M324.48 229.738a1.862 1.862 0 0 1-1.859 1.864 1.862 1.862 0 0 1 0-3.723c1.027 0 1.86.836 1.86 1.86" fill-rule="evenodd" fill="green"/><path d="M324.48 229.738a1.862 1.862 0 0 1-1.859 1.864 1.862 1.862 0 0 1 0-3.723c1.027 0 1.86.836 1.86 1.86zm0 0" fill="none" stroke-width=".12" stroke-linecap="round" stroke-linejoin="round" stroke="green" stroke-miterlimit="10"/><path d="M323.762 229.738a1.14 1.14 0 0 1-1.14 1.14 1.137 1.137 0 0 1-1.142-1.14c0-.629.508-1.136 1.141-1.136.629 0 1.14.507 1.14 1.136" fill-rule="evenodd" fill="#fff"/><path d="M323.762 229.738a1.14 1.14 0 0 1-1.14 1.14 1.137 1.137 0 0 1-1.142-1.14c0-.629.508-1.136 1.141-1.136.629 0 1.14.507 1.14 1.136zm0 0" fill="none" stroke-width=".06" stroke-linecap="square" stroke-linejoin="bevel" stroke="#000" stroke-miterlimit="10"/><path d="M317.281 215.398a1.865 1.865 0 0 1-1.86 1.864 1.865 1.865 0 0 1-1.862-1.864 1.862 1.862 0 0 1 3.722 0" fill-rule="evenodd" fill="green"/><path d="M317.281 215.398a1.865 1.865 0 0 1-1.86 1.864 1.865 1.865 0 0 1-1.862-1.864 1.862 1.862 0 0 1 3.722 0zm0 0" fill="none" stroke-width=".12" stroke-linecap="round" stroke-linejoin="round" stroke="green" stroke-miterlimit="10"/><path d="M316.559 215.398c0 .633-.508 1.141-1.137 1.141-.633 0-1.14-.508-1.14-1.14 0-.63.507-1.137 1.14-1.137.629 0 1.137.508 1.137 1.136" fill-rule="evenodd" fill="#fff"/><path d="M316.559 215.398c0 .633-.508 1.141-1.137 1.141-.633 0-1.14-.508-1.14-1.14 0-.63.507-1.137 1.14-1.137.629 0 1.137.508 1.137 1.136zm0 0" fill="none" stroke-width=".06" stroke-linecap="square" stroke-linejoin="bevel" stroke="#000" stroke-miterlimit="10"/><path d="M317.281 236.941a1.861 1.861 0 1 1-3.722-.003 1.861 1.861 0 0 1 3.722.003" fill-rule="evenodd" fill="green"/><path d="M317.281 236.941a1.861 1.861 0 1 1-3.722-.003 1.861 1.861 0 0 1 3.722.003zm0 0" fill="none" stroke-width=".12" stroke-linecap="round" stroke-linejoin="round" stroke="green" stroke-miterlimit="10"/><path d="M316.559 236.941c0 .63-.508 1.137-1.137 1.137a1.14 1.14 0 1 1 1.137-1.137" fill-rule="evenodd" fill="#fff"/><path d="M316.559 236.941c0 .63-.508 1.137-1.137 1.137a1.14 1.14 0 1 1 1.137-1.137zm0 0" fill="none" stroke-width=".06" stroke-linecap="square" stroke-linejoin="bevel" stroke="#000" stroke-miterlimit="10"/><path d="M331.68 236.941a1.859 1.859 0 1 1-3.72 0c0-1.027.833-1.863 1.86-1.863 1.028 0 1.86.836 1.86 1.863" fill-rule="evenodd" fill="green"/><path d="M331.68 236.941a1.859 1.859 0 1 1-3.72 0c0-1.027.833-1.863 1.86-1.863 1.028 0 1.86.836 1.86 1.863zm0 0" fill="none" stroke-width=".12" stroke-linecap="round" stroke-linejoin="round" stroke="green" stroke-miterlimit="10"/><path d="M330.96 236.941c0 .63-.51 1.137-1.14 1.137a1.139 1.139 0 1 1 0-2.277c.63 0 1.14.512 1.14 1.14" fill-rule="evenodd" fill="#fff"/><path d="M330.96 236.941c0 .63-.51 1.137-1.14 1.137a1.139 1.139 0 1 1 0-2.277c.63 0 1.14.511 1.14 1.14zm0 0" fill="none" stroke-width=".06" stroke-linecap="square" stroke-linejoin="bevel" stroke="#000" stroke-miterlimit="10"/><path d="M331.68 215.398a1.862 1.862 0 0 1-1.86 1.864 1.862 1.862 0 0 1 0-3.723c1.028 0 1.86.832 1.86 1.86" fill-rule="evenodd" fill="green"/><path d="M331.68 215.398a1.862 1.862 0 0 1-1.86 1.864 1.862 1.862 0 0 1 0-3.723c1.028 0 1.86.832 1.86 1.86zm0 0" fill="none" stroke-width=".12" stroke-linecap="round" stroke-linejoin="round" stroke="green" stroke-miterlimit="10"/><path d="M330.96 215.398a1.14 1.14 0 1 1-2.278.003 1.14 1.14 0 0 1 2.279-.003" fill-rule="evenodd" fill="#fff"/><path d="M330.96 215.398a1.14 1.14 0 1 1-2.278.003 1.14 1.14 0 0 1 2.279-.003zm0 0" fill="none" stroke-width=".06" stroke-linecap="square" stroke-linejoin="bevel" stroke="#000" stroke-miterlimit="10"/><path d="M284.82 179.398h3.66" fill="none" stroke-width="3.72" stroke-linecap="round" stroke-linejoin="round" stroke="green" stroke-miterlimit="10"/><path d="M287.82 179.398a1.14 1.14 0 1 1-2.279.003 1.14 1.14 0 0 1 2.28-.003" fill-rule="evenodd" fill="#fff"/><path d="M287.82 179.398a1.14 1.14 0 1 1-2.279.003 1.14 1.14 0 0 1 2.28-.003zm0 0" fill="none" stroke-width=".06" stroke-linecap="square" stroke-linejoin="bevel" stroke="#000" stroke-miterlimit="10"/><path d="M284.82 186.602h3.66" fill="none" stroke-width="3.72" stroke-linecap="round" stroke-linejoin="round" stroke="green" stroke-miterlimit="10"/><path d="M287.82 186.602c0 .628-.511 1.136-1.14 1.136a1.139 1.139 0 1 1 0-2.277c.629 0 1.14.508 1.14 1.14" fill-rule="evenodd" fill="#fff"/><path d="M287.82 186.602c0 .628-.511 1.136-1.14 1.136a1.139 1.139 0 1 1 0-2.277c.629 0 1.14.508 1.14 1.14zm0 0" fill="none" stroke-width=".06" stroke-linecap="square" stroke-linejoin="bevel" stroke="#000" stroke-miterlimit="10"/><path d="M284.82 222.54h3.66" fill="none" stroke-width="3.72" stroke-linecap="round" stroke-linejoin="round" stroke="green" stroke-miterlimit="10"/><path d="M287.82 222.54a1.14 1.14 0 1 1-2.28 0 1.141 1.141 0 1 1 2.28-.001" fill-rule="evenodd" fill="#fff"/><path d="M287.82 222.54a1.14 1.14 0 1 1-2.28 0 1.141 1.141 0 1 1 2.28-.001zm0 0" fill="none" stroke-width=".06" stroke-linecap="square" stroke-linejoin="bevel" stroke="#000" stroke-miterlimit="10"/><path d="M306.36 222.54h3.718" fill="none" stroke-width="3.72" stroke-linecap="round" stroke-linejoin="round" stroke="green" stroke-miterlimit="10"/><path d="M309.36 222.54c0 .632-.508 1.14-1.141 1.14a1.14 1.14 0 1 1 0-2.282c.633 0 1.14.512 1.14 1.141" fill-rule="evenodd" fill="#fff"/><path d="M309.36 222.54c0 .632-.508 1.14-1.141 1.14a1.14 1.14 0 1 1 0-2.282c.633 0 1.14.512 1.14 1.141zm0 0" fill="none" stroke-width=".06" stroke-linecap="square" stroke-linejoin="bevel" stroke="#000" stroke-miterlimit="10"/><path d="M284.82 193.8h3.66" fill="none" stroke-width="3.72" stroke-linecap="round" stroke-linejoin="round" stroke="green" stroke-miterlimit="10"/><path d="M287.82 193.8a1.141 1.141 0 1 1-2.282-.002 1.141 1.141 0 0 1 2.282.003" fill-rule="evenodd" fill="#fff"/><path d="M287.82 193.8a1.141 1.141 0 1 1-2.282-.002 1.141 1.141 0 0 1 2.282.003zm0 0" fill="none" stroke-width=".06" stroke-linecap="square" stroke-linejoin="bevel" stroke="#000" stroke-miterlimit="10"/><path d="M284.82 201h3.66" fill="none" stroke-width="3.72" stroke-linecap="round" stroke-linejoin="round" stroke="green" stroke-miterlimit="10"/><path d="M287.82 201a1.14 1.14 0 1 1-2.282-.002 1.14 1.14 0 0 1 2.282.002" fill-rule="evenodd" fill="#fff"/><path d="M287.82 201a1.14 1.14 0 1 1-2.282-.002 1.14 1.14 0 0 1 2.282.002zm0 0" fill="none" stroke-width=".06" stroke-linecap="square" stroke-linejoin="bevel" stroke="#000" stroke-miterlimit="10"/><path d="M284.82 215.398h3.66" fill="none" stroke-width="3.72" stroke-linecap="round" stroke-linejoin="round" stroke="green" stroke-miterlimit="10"/><path d="M287.82 215.398a1.14 1.14 0 1 1-2.279.003 1.14 1.14 0 0 1 2.28-.003" fill-rule="evenodd" fill="#fff"/><path d="M287.82 215.398a1.14 1.14 0 1 1-2.279.003 1.14 1.14 0 0 1 2.28-.003zm0 0" fill="none" stroke-width=".06" stroke-linecap="square" stroke-linejoin="bevel" stroke="#000" stroke-miterlimit="10"/><path d="M284.82 208.2h3.66" fill="none" stroke-width="3.72" stroke-linecap="round" stroke-linejoin="round" stroke="green" stroke-miterlimit="10"/><path d="M287.82 208.2a1.14 1.14 0 1 1-2.278 0 1.14 1.14 0 0 1 2.278-.001" fill-rule="evenodd" fill="#fff"/><path d="M287.82 208.2a1.14 1.14 0 1 1-2.278 0 1.14 1.14 0 0 1 2.278-.001zm0 0" fill="none" stroke-width=".06" stroke-linecap="square" stroke-linejoin="bevel" stroke="#000" stroke-miterlimit="10"/><path d="M306.36 215.398h3.718" fill="none" stroke-width="3.72" stroke-linecap="round" stroke-linejoin="round" stroke="green" stroke-miterlimit="10"/><path d="M309.36 215.398c0 .633-.508 1.141-1.141 1.141a1.14 1.14 0 1 1 0-2.277c.633 0 1.14.508 1.14 1.136" fill-rule="evenodd" fill="#fff"/><path d="M309.36 215.398c0 .633-.508 1.141-1.141 1.141a1.14 1.14 0 1 1 0-2.277c.633 0 1.14.508 1.14 1.136zm0 0" fill="none" stroke-width=".06" stroke-linecap="square" stroke-linejoin="bevel" stroke="#000" stroke-miterlimit="10"/><path d="M306.36 208.2h3.718" fill="none" stroke-width="3.72" stroke-linecap="round" stroke-linejoin="round" stroke="green" stroke-miterlimit="10"/><path d="M309.36 208.2a1.14 1.14 0 1 1-2.282 0 1.14 1.14 0 1 1 2.281 0" fill-rule="evenodd" fill="#fff"/><path d="M309.36 208.2a1.14 1.14 0 1 1-2.282 0 1.14 1.14 0 1 1 2.281 0zm0 0" fill="none" stroke-width=".06" stroke-linecap="square" stroke-linejoin="bevel" stroke="#000" stroke-miterlimit="10"/><path d="M306.36 201h3.718" fill="none" stroke-width="3.72" stroke-linecap="round" stroke-linejoin="round" stroke="green" stroke-miterlimit="10"/><path d="M309.36 201a1.14 1.14 0 1 1-2.282 0 1.14 1.14 0 1 1 2.281 0" fill-rule="evenodd" fill="#fff"/><path d="M309.36 201a1.14 1.14 0 1 1-2.282 0 1.14 1.14 0 1 1 2.281 0zm0 0" fill="none" stroke-width=".06" stroke-linecap="square" stroke-linejoin="bevel" stroke="#000" stroke-miterlimit="10"/><path d="M306.36 193.8h3.718" fill="none" stroke-width="3.72" stroke-linecap="round" stroke-linejoin="round" stroke="green" stroke-miterlimit="10"/><path d="M309.36 193.8a1.14 1.14 0 1 1-2.282 0 1.14 1.14 0 1 1 2.281 0" fill-rule="evenodd" fill="#fff"/><path d="M309.36 193.8a1.14 1.14 0 1 1-2.282 0 1.14 1.14 0 1 1 2.281 0zm0 0" fill="none" stroke-width=".06" stroke-linecap="square" stroke-linejoin="bevel" stroke="#000" stroke-miterlimit="10"/><path d="M306.36 186.602h3.718" fill="none" stroke-width="3.72" stroke-linecap="round" stroke-linejoin="round" stroke="green" stroke-miterlimit="10"/><path d="M309.36 186.602c0 .628-.508 1.136-1.141 1.136a1.139 1.139 0 1 1 0-2.277c.633 0 1.14.508 1.14 1.14" fill-rule="evenodd" fill="#fff"/><path d="M309.36 186.602c0 .628-.508 1.136-1.141 1.136a1.139 1.139 0 1 1 0-2.277c.633 0 1.14.508 1.14 1.14zm0 0" fill="none" stroke-width=".06" stroke-linecap="square" stroke-linejoin="bevel" stroke="#000" stroke-miterlimit="10"/><path d="M306.36 179.398h3.718" fill="none" stroke-width="3.72" stroke-linecap="round" stroke-linejoin="round" stroke="green" stroke-miterlimit="10"/><path d="M309.36 179.398c0 .633-.508 1.141-1.141 1.141a1.14 1.14 0 1 1 0-2.277c.633 0 1.14.508 1.14 1.136" fill-rule="evenodd" fill="#fff"/><path d="M309.36 179.398c0 .633-.508 1.141-1.141 1.141a1.14 1.14 0 1 1 0-2.277c.633 0 1.14.508 1.14 1.136zm0 0" fill="none" stroke-width=".06" stroke-linecap="square" stroke-linejoin="bevel" stroke="#000" stroke-miterlimit="10"/><path d="M274.14 187.379l-1.081 1.082H271.5l-1.078-1.082v-1.559l1.078-1.082h1.559l1.082 1.082v1.559" fill="green"/><path d="M274.14 187.379l-1.081 1.082H271.5l-1.078-1.082v-1.559l1.078-1.082h1.559l1.082 1.082zm0 0" fill="none" stroke-width=".12" stroke-linecap="round" stroke-linejoin="round" stroke="green" stroke-miterlimit="10"/><path d="M273.422 186.602c0 .628-.512 1.136-1.14 1.136a1.136 1.136 0 0 1-1.141-1.136 1.14 1.14 0 1 1 2.281 0" fill-rule="evenodd" fill="#fff"/><path d="M273.422 186.602c0 .628-.512 1.136-1.14 1.136a1.136 1.136 0 0 1-1.141-1.136 1.14 1.14 0 1 1 2.281 0zm0 0" fill="none" stroke-width=".06" stroke-linecap="square" stroke-linejoin="bevel" stroke="#000" stroke-miterlimit="10"/><path d="M266.941 187.379l-1.082 1.082h-1.558l-1.082-1.082v-1.559l1.082-1.082h1.558l1.082 1.082v1.559" fill="green"/><path d="M266.941 187.379l-1.082 1.082h-1.558l-1.082-1.082v-1.559l1.082-1.082h1.558l1.082 1.082zm0 0" fill="none" stroke-width=".12" stroke-linecap="round" stroke-linejoin="round" stroke="green" stroke-miterlimit="10"/><path d="M266.219 186.602c0 .628-.508 1.136-1.14 1.136a1.135 1.135 0 0 1-1.138-1.136c0-.633.508-1.141 1.137-1.141.633 0 1.14.508 1.14 1.14" fill-rule="evenodd" fill="#fff"/><path d="M266.219 186.602c0 .628-.508 1.136-1.14 1.136a1.135 1.135 0 0 1-1.138-1.136c0-.633.508-1.141 1.137-1.141.633 0 1.14.508 1.14 1.14zm0 0" fill="none" stroke-width=".06" stroke-linecap="square" stroke-linejoin="bevel" stroke="#000" stroke-miterlimit="10"/><path d="M266.941 201.781l-1.082 1.078h-1.558l-1.082-1.078v-1.562l1.082-1.078h1.558l1.082 1.078v1.562" fill="green"/><path d="M266.941 201.781l-1.082 1.078h-1.558l-1.082-1.078v-1.562l1.082-1.078h1.558l1.082 1.078zm0 0" fill="none" stroke-width=".12" stroke-linecap="round" stroke-linejoin="round" stroke="green" stroke-miterlimit="10"/><path d="M266.219 201a1.14 1.14 0 1 1-2.28.002 1.14 1.14 0 0 1 2.28-.002" fill-rule="evenodd" fill="#fff"/><path d="M266.219 201a1.14 1.14 0 1 1-2.28.002 1.14 1.14 0 0 1 2.28-.002zm0 0" fill="none" stroke-width=".06" stroke-linecap="square" stroke-linejoin="bevel" stroke="#000" stroke-miterlimit="10"/><path d="M274.14 201.781l-1.081 1.078H271.5l-1.078-1.078v-1.562l1.078-1.078h1.559l1.082 1.078v1.562" fill="green"/><path d="M274.14 201.781l-1.081 1.078H271.5l-1.078-1.078v-1.562l1.078-1.078h1.559l1.082 1.078zm0 0" fill="none" stroke-width=".12" stroke-linecap="round" stroke-linejoin="round" stroke="green" stroke-miterlimit="10"/><path d="M273.422 201a1.14 1.14 0 1 1-1.14-1.14c.628 0 1.14.511 1.14 1.14" fill-rule="evenodd" fill="#fff"/><path d="M273.422 201a1.14 1.14 0 1 1-1.14-1.14c.628 0 1.14.511 1.14 1.14zm0 0" fill="none" stroke-width=".06" stroke-linecap="square" stroke-linejoin="bevel" stroke="#000" stroke-miterlimit="10"/><path d="M281.219 201a1.74 1.74 0 1 1-3.48 0 1.74 1.74 0 0 1 3.48 0" fill-rule="evenodd" fill="green"/><path d="M281.219 201a1.74 1.74 0 1 1-3.48 0 1.74 1.74 0 0 1 3.48 0zm0 0" fill="none" stroke-width=".12" stroke-linecap="round" stroke-linejoin="round" stroke="green" stroke-miterlimit="10"/><path d="M280.5 201a1.02 1.02 0 1 1-2.04-.001 1.02 1.02 0 0 1 2.04.001" fill-rule="evenodd" fill="#fff"/><path d="M280.5 201a1.02 1.02 0 1 1-2.04-.001 1.02 1.02 0 0 1 2.04.001zm0 0" fill="none" stroke-width=".06" stroke-linecap="square" stroke-linejoin="bevel" stroke="#000" stroke-miterlimit="10"/><path d="M281.219 222.54a1.74 1.74 0 1 1-3.481.003 1.74 1.74 0 0 1 3.48-.004" fill-rule="evenodd" fill="green"/><path d="M281.219 222.54a1.74 1.74 0 1 1-3.481.003 1.74 1.74 0 0 1 3.48-.004zm0 0" fill="none" stroke-width=".12" stroke-linecap="round" stroke-linejoin="round" stroke="green" stroke-miterlimit="10"/><path d="M280.5 222.54a1.02 1.02 0 1 1-2.04-.002 1.02 1.02 0 0 1 2.04.001" fill-rule="evenodd" fill="#fff"/><path d="M280.5 222.54a1.02 1.02 0 1 1-2.04-.002 1.02 1.02 0 0 1 2.04.001zm0 0" fill="none" stroke-width=".06" stroke-linecap="square" stroke-linejoin="bevel" stroke="#000" stroke-miterlimit="10"/><path d="M302.762 236.941a1.74 1.74 0 1 1-3.481-.004 1.74 1.74 0 0 1 3.48.004" fill-rule="evenodd" fill="green"/><path d="M302.762 236.941a1.74 1.74 0 1 1-3.481-.004 1.74 1.74 0 0 1 3.48.004zm0 0" fill="none" stroke-width=".12" stroke-linecap="round" stroke-linejoin="round" stroke="green" stroke-miterlimit="10"/><path d="M302.04 236.941a1.02 1.02 0 1 1-2.041-.001 1.02 1.02 0 0 1 2.04.001" fill-rule="evenodd" fill="#fff"/><path d="M302.04 236.941a1.02 1.02 0 1 1-2.041-.001 1.02 1.02 0 0 1 2.04.001zm0 0" fill="none" stroke-width=".06" stroke-linecap="square" stroke-linejoin="bevel" stroke="#000" stroke-miterlimit="10"/><path d="M281.219 236.941a1.74 1.74 0 1 1-1.738-1.742c.96 0 1.738.781 1.738 1.742" fill-rule="evenodd" fill="green"/><path d="M281.219 236.941a1.74 1.74 0 1 1-1.738-1.742c.96 0 1.738.781 1.738 1.742zm0 0" fill="none" stroke-width=".12" stroke-linecap="round" stroke-linejoin="round" stroke="green" stroke-miterlimit="10"/><path d="M280.5 236.941a1.02 1.02 0 1 1-2.04-.001 1.02 1.02 0 0 1 2.04.001" fill-rule="evenodd" fill="#fff"/><path d="M280.5 236.941a1.02 1.02 0 1 1-2.04-.001 1.02 1.02 0 0 1 2.04.001zm0 0" fill="none" stroke-width=".06" stroke-linecap="square" stroke-linejoin="bevel" stroke="#000" stroke-miterlimit="10"/><path d="M282.238 244.14a2.76 2.76 0 0 1-5.52 0 2.764 2.764 0 0 1 2.762-2.761 2.76 2.76 0 0 1 2.758 2.762" fill-rule="evenodd" fill="green"/><path d="M282.238 244.14a2.76 2.76 0 0 1-5.52 0 2.764 2.764 0 0 1 2.762-2.761 2.76 2.76 0 0 1 2.758 2.762zm0 0" fill="none" stroke-width=".12" stroke-linecap="round" stroke-linejoin="round" stroke="green" stroke-miterlimit="10"/><path d="M280.922 244.14a1.442 1.442 0 0 1-2.883 0 1.44 1.44 0 1 1 2.883 0" fill-rule="evenodd" fill="#fff"/><path d="M280.922 244.14a1.442 1.442 0 0 1-2.883 0 1.44 1.44 0 1 1 2.883 0zm0 0" fill="none" stroke-width=".06" stroke-linecap="square" stroke-linejoin="bevel" stroke="#000" stroke-miterlimit="10"/><path d="M289.441 244.14a2.76 2.76 0 0 1-5.52 0 2.76 2.76 0 0 1 2.759-2.761 2.764 2.764 0 0 1 2.761 2.762" fill-rule="evenodd" fill="green"/><path d="M289.441 244.14a2.76 2.76 0 0 1-5.52 0 2.76 2.76 0 0 1 2.759-2.761 2.764 2.764 0 0 1 2.761 2.762zm0 0" fill="none" stroke-width=".12" stroke-linecap="round" stroke-linejoin="round" stroke="green" stroke-miterlimit="10"/><path d="M288.121 244.14a1.442 1.442 0 0 1-2.883 0c0-.796.649-1.44 1.442-1.44a1.44 1.44 0 0 1 1.441 1.44" fill-rule="evenodd" fill="#fff"/><path d="M288.121 244.14a1.442 1.442 0 0 1-2.883 0c0-.796.649-1.44 1.442-1.44a1.44 1.44 0 0 1 1.441 1.44zm0 0" fill="none" stroke-width=".06" stroke-linecap="square" stroke-linejoin="bevel" stroke="#000" stroke-miterlimit="10"/><path d="M296.578 244.14a2.76 2.76 0 0 1-5.52 0 2.764 2.764 0 0 1 2.762-2.761 2.76 2.76 0 0 1 2.758 2.762" fill-rule="evenodd" fill="green"/><path d="M296.578 244.14a2.76 2.76 0 0 1-5.52 0 2.764 2.764 0 0 1 2.762-2.761 2.76 2.76 0 0 1 2.758 2.762zm0 0" fill="none" stroke-width=".12" stroke-linecap="round" stroke-linejoin="round" stroke="green" stroke-miterlimit="10"/><path d="M295.262 244.14a1.442 1.442 0 0 1-2.883 0 1.44 1.44 0 1 1 2.883 0" fill-rule="evenodd" fill="#fff"/><path d="M295.262 244.14a1.442 1.442 0 0 1-2.883 0 1.44 1.44 0 1 1 2.883 0zm0 0" fill="none" stroke-width=".06" stroke-linecap="square" stroke-linejoin="bevel" stroke="#000" stroke-miterlimit="10"/><path d="M274.02 222.54a1.74 1.74 0 1 1-3.481.003 1.74 1.74 0 0 1 3.48-.004" fill-rule="evenodd" fill="green"/><path d="M274.02 222.54a1.74 1.74 0 1 1-3.481.003 1.74 1.74 0 0 1 3.48-.004zm0 0" fill="none" stroke-width=".12" stroke-linecap="round" stroke-linejoin="round" stroke="green" stroke-miterlimit="10"/><path d="M273.3 222.54a1.02 1.02 0 1 1-2.04-.002 1.02 1.02 0 0 1 2.04.001" fill-rule="evenodd" fill="#fff"/><path d="M273.3 222.54a1.02 1.02 0 1 1-2.04-.002 1.02 1.02 0 0 1 2.04.001zm0 0" fill="none" stroke-width=".06" stroke-linecap="square" stroke-linejoin="bevel" stroke="#000" stroke-miterlimit="10"/><path d="M274.02 244.14a1.74 1.74 0 1 1-1.738-1.742c.96 0 1.738.782 1.738 1.743" fill-rule="evenodd" fill="green"/><path d="M274.02 244.14a1.74 1.74 0 1 1-1.738-1.742c.96 0 1.738.782 1.738 1.743zm0 0" fill="none" stroke-width=".12" stroke-linecap="round" stroke-linejoin="round" stroke="green" stroke-miterlimit="10"/><path d="M273.3 244.14a1.02 1.02 0 1 1-2.04 0 1.02 1.02 0 0 1 2.04 0" fill-rule="evenodd" fill="#fff"/><path d="M273.3 244.14a1.02 1.02 0 1 1-2.04 0 1.02 1.02 0 0 1 2.04 0zm0 0" fill="none" stroke-width=".06" stroke-linecap="square" stroke-linejoin="bevel" stroke="#000" stroke-miterlimit="10"/><path d="M318.18 244.14a2.757 2.757 0 0 1-2.758 2.758 2.758 2.758 0 0 1-2.762-2.757 2.76 2.76 0 0 1 5.52 0" fill-rule="evenodd" fill="green"/><path d="M318.18 244.14a2.757 2.757 0 0 1-2.758 2.758 2.758 2.758 0 0 1-2.762-2.757 2.76 2.76 0 0 1 5.52 0zm0 0" fill="none" stroke-width=".12" stroke-linecap="round" stroke-linejoin="round" stroke="green" stroke-miterlimit="10"/><path d="M316.86 244.14a1.439 1.439 0 1 1-2.878-.002 1.439 1.439 0 0 1 2.877.003" fill-rule="evenodd" fill="#fff"/><path d="M316.86 244.14a1.439 1.439 0 1 1-2.878-.002 1.439 1.439 0 0 1 2.877.003zm0 0" fill="none" stroke-width=".06" stroke-linecap="square" stroke-linejoin="bevel" stroke="#000" stroke-miterlimit="10"/><path d="M325.379 244.14a2.76 2.76 0 0 1-5.52 0 2.764 2.764 0 0 1 2.762-2.761 2.76 2.76 0 0 1 2.758 2.762" fill-rule="evenodd" fill="green"/><path d="M325.379 244.14a2.76 2.76 0 0 1-5.52 0 2.764 2.764 0 0 1 2.762-2.761 2.76 2.76 0 0 1 2.758 2.762zm0 0" fill="none" stroke-width=".12" stroke-linecap="round" stroke-linejoin="round" stroke="green" stroke-miterlimit="10"/><path d="M324.059 244.14a1.439 1.439 0 1 1-2.878-.002 1.439 1.439 0 0 1 2.878.003" fill-rule="evenodd" fill="#fff"/><path d="M324.059 244.14a1.439 1.439 0 1 1-2.878-.002 1.439 1.439 0 0 1 2.878.003zm0 0" fill="none" stroke-width=".06" stroke-linecap="square" stroke-linejoin="bevel" stroke="#000" stroke-miterlimit="10"/><path d="M332.578 244.14a2.76 2.76 0 0 1-5.52 0 2.764 2.764 0 0 1 2.762-2.761 2.76 2.76 0 0 1 2.758 2.762" fill-rule="evenodd" fill="green"/><path d="M332.578 244.14a2.76 2.76 0 0 1-5.52 0 2.764 2.764 0 0 1 2.762-2.761 2.76 2.76 0 0 1 2.758 2.762zm0 0" fill="none" stroke-width=".12" stroke-linecap="round" stroke-linejoin="round" stroke="green" stroke-miterlimit="10"/><path d="M331.262 244.14a1.442 1.442 0 0 1-2.883 0 1.44 1.44 0 1 1 2.883 0" fill-rule="evenodd" fill="#fff"/><path d="M331.262 244.14a1.442 1.442 0 0 1-2.883 0 1.44 1.44 0 1 1 2.883 0zm0 0" fill="none" stroke-width=".06" stroke-linecap="square" stroke-linejoin="bevel" stroke="#000" stroke-miterlimit="10"/><path d="M317.16 208.2a1.74 1.74 0 1 1-3.48.003 1.74 1.74 0 0 1 3.48-.004" fill-rule="evenodd" fill="green"/><path d="M317.16 208.2a1.74 1.74 0 1 1-3.48.003 1.74 1.74 0 0 1 3.48-.004zm0 0" fill="none" stroke-width=".12" stroke-linecap="round" stroke-linejoin="round" stroke="green" stroke-miterlimit="10"/><path d="M316.441 208.2a1.021 1.021 0 1 1-2.043 0 1.021 1.021 0 0 1 2.043 0" fill-rule="evenodd" fill="#fff"/><path d="M316.441 208.2a1.021 1.021 0 1 1-2.043 0 1.021 1.021 0 0 1 2.043 0zm0 0" fill="none" stroke-width=".06" stroke-linecap="square" stroke-linejoin="bevel" stroke="#000" stroke-miterlimit="10"/><path d="M317.16 186.602a1.74 1.74 0 1 1-1.738-1.742c.96 0 1.738.78 1.738 1.742" fill-rule="evenodd" fill="green"/><path d="M317.16 186.602a1.74 1.74 0 1 1-1.738-1.742c.96 0 1.738.78 1.738 1.742zm0 0" fill="none" stroke-width=".12" stroke-linecap="round" stroke-linejoin="round" stroke="green" stroke-miterlimit="10"/><path d="M316.441 186.602a1.021 1.021 0 1 1-1.02-1.023c.563 0 1.02.456 1.02 1.023" fill-rule="evenodd" fill="#fff"/><path d="M316.441 186.602a1.021 1.021 0 1 1-1.02-1.023c.563 0 1.02.456 1.02 1.023zm0 0" fill="none" stroke-width=".06" stroke-linecap="square" stroke-linejoin="bevel" stroke="#000" stroke-miterlimit="10"/><path d="M324.36 186.602a1.74 1.74 0 1 1-1.738-1.742c.96 0 1.737.78 1.737 1.742" fill-rule="evenodd" fill="green"/><path d="M324.36 186.602a1.74 1.74 0 1 1-1.738-1.742c.96 0 1.737.78 1.737 1.742zm0 0" fill="none" stroke-width=".12" stroke-linecap="round" stroke-linejoin="round" stroke="green" stroke-miterlimit="10"/><path d="M323.64 186.602a1.02 1.02 0 1 1-1.019-1.024c.563 0 1.02.457 1.02 1.024" fill-rule="evenodd" fill="#fff"/><path d="M323.64 186.602a1.02 1.02 0 1 1-1.019-1.024c.563 0 1.02.457 1.02 1.024zm0 0" fill="none" stroke-width=".06" stroke-linecap="square" stroke-linejoin="bevel" stroke="#000" stroke-miterlimit="10"/><path d="M324.36 208.2a1.74 1.74 0 1 1-3.482.003 1.74 1.74 0 0 1 3.481-.004" fill-rule="evenodd" fill="green"/><path d="M324.36 208.2a1.74 1.74 0 1 1-3.482.003 1.74 1.74 0 0 1 3.481-.004zm0 0" fill="none" stroke-width=".12" stroke-linecap="round" stroke-linejoin="round" stroke="green" stroke-miterlimit="10"/><path d="M323.64 208.2a1.02 1.02 0 1 1-2.04-.002 1.02 1.02 0 0 1 2.04.001" fill-rule="evenodd" fill="#fff"/><path d="M323.64 208.2a1.02 1.02 0 1 1-2.04-.002 1.02 1.02 0 0 1 2.04.001zm0 0" fill="none" stroke-width=".06" stroke-linecap="square" stroke-linejoin="bevel" stroke="#000" stroke-miterlimit="10"/><path d="M266.82 236.941a1.74 1.74 0 1 1-3.48-.004 1.74 1.74 0 0 1 3.48.004" fill-rule="evenodd" fill="green"/><path d="M266.82 236.941a1.74 1.74 0 1 1-3.48-.004 1.74 1.74 0 0 1 3.48.004zm0 0" fill="none" stroke-width=".12" stroke-linecap="round" stroke-linejoin="round" stroke="green" stroke-miterlimit="10"/><path d="M266.102 236.941a1.021 1.021 0 0 1-2.043 0 1.021 1.021 0 1 1 2.043 0" fill-rule="evenodd" fill="#fff"/><path d="M266.102 236.941a1.021 1.021 0 0 1-2.043 0 1.021 1.021 0 1 1 2.043 0zm0 0" fill="none" stroke-width=".06" stroke-linecap="square" stroke-linejoin="bevel" stroke="#000" stroke-miterlimit="10"/><path d="M266.82 215.398" fill-rule="evenodd" fill="green"/><path d="M266.82 215.398zm0 0" fill="none" stroke-width=".12" stroke-linecap="round" stroke-linejoin="round" stroke="green" stroke-miterlimit="10"/><path d="M266.102 215.398a1.022 1.022 0 1 1-2.044.003 1.022 1.022 0 0 1 2.044-.003" fill-rule="evenodd" fill="#fff"/><path d="M266.102 215.398a1.022 1.022 0 1 1-2.044.003 1.022 1.022 0 0 1 2.044-.003zm0 0" fill="none" stroke-width=".06" stroke-linecap="square" stroke-linejoin="bevel" stroke="#000" stroke-miterlimit="10"/><path d="M267.84 247.738a2.759 2.759 0 1 1-5.52 0 2.757 2.757 0 0 1 2.758-2.758 2.758 2.758 0 0 1 2.762 2.758" fill-rule="evenodd" fill="green"/><path d="M267.84 247.738a2.759 2.759 0 1 1-5.52 0 2.757 2.757 0 0 1 2.758-2.758 2.758 2.758 0 0 1 2.762 2.758zm0 0" fill="none" stroke-width=".12" stroke-linecap="round" stroke-linejoin="round" stroke="green" stroke-miterlimit="10"/><path d="M266.52 247.738a1.44 1.44 0 1 1-2.881.002 1.44 1.44 0 0 1 2.88-.002" fill-rule="evenodd" fill="#fff"/><path d="M266.52 247.738a1.44 1.44 0 1 1-2.881.002 1.44 1.44 0 0 1 2.88-.002zm0 0" fill="none" stroke-width=".06" stroke-linecap="square" stroke-linejoin="bevel" stroke="#000" stroke-miterlimit="10"/><path d="M332.578 172.2a2.76 2.76 0 0 1-2.758 2.76 2.764 2.764 0 0 1-2.761-2.76 2.76 2.76 0 0 1 5.52 0" fill-rule="evenodd" fill="green"/><path d="M332.578 172.2a2.76 2.76 0 0 1-2.758 2.76 2.764 2.764 0 0 1-2.761-2.76 2.76 2.76 0 0 1 5.52 0zm0 0" fill="none" stroke-width=".12" stroke-linecap="round" stroke-linejoin="round" stroke="green" stroke-miterlimit="10"/><path d="M331.262 172.2c0 .796-.649 1.44-1.442 1.44a1.44 1.44 0 1 1 1.442-1.44" fill-rule="evenodd" fill="#fff"/><path d="M331.262 172.2c0 .796-.649 1.44-1.442 1.44a1.44 1.44 0 1 1 1.442-1.44zm0 0" fill="none" stroke-width=".06" stroke-linecap="square" stroke-linejoin="bevel" stroke="#000" stroke-miterlimit="10"/><path d="M282.238 172.2a2.76 2.76 0 0 1-2.758 2.76 2.764 2.764 0 0 1-2.761-2.76 2.76 2.76 0 0 1 5.52 0" fill-rule="evenodd" fill="green"/><path d="M282.238 172.2a2.76 2.76 0 0 1-2.758 2.76 2.764 2.764 0 0 1-2.761-2.76 2.76 2.76 0 0 1 5.52 0zm0 0" fill="none" stroke-width=".12" stroke-linecap="round" stroke-linejoin="round" stroke="green" stroke-miterlimit="10"/><path d="M280.922 172.2c0 .796-.649 1.44-1.442 1.44a1.44 1.44 0 1 1 1.442-1.44" fill-rule="evenodd" fill="#fff"/><path d="M280.922 172.2c0 .796-.649 1.44-1.442 1.44a1.44 1.44 0 1 1 1.442-1.44zm0 0" fill="none" stroke-width=".06" stroke-linecap="square" stroke-linejoin="bevel" stroke="#000" stroke-miterlimit="10"/><path d="M324.48 172.2a1.859 1.859 0 1 1-3.717 0 1.859 1.859 0 0 1 3.717 0" fill-rule="evenodd" fill="green"/><path d="M324.48 172.2a1.859 1.859 0 1 1-3.717 0 1.859 1.859 0 0 1 3.717 0zm0 0" fill="none" stroke-width=".12" stroke-linecap="round" stroke-linejoin="round" stroke="green" stroke-miterlimit="10"/><path d="M323.762 172.2a1.14 1.14 0 1 1-1.14-1.14 1.14 1.14 0 0 1 1.14 1.14" fill-rule="evenodd" fill="#fff"/><path d="M323.762 172.2a1.14 1.14 0 1 1-1.14-1.14 1.14 1.14 0 0 1 1.14 1.14zm0 0" fill="none" stroke-width=".06" stroke-linecap="square" stroke-linejoin="bevel" stroke="#000" stroke-miterlimit="10"/><path d="M310.078 172.2a1.859 1.859 0 1 1-3.718 0 1.859 1.859 0 0 1 3.718 0" fill-rule="evenodd" fill="green"/><path d="M310.078 172.2a1.859 1.859 0 1 1-3.718 0 1.859 1.859 0 0 1 3.718 0zm0 0" fill="none" stroke-width=".12" stroke-linecap="round" stroke-linejoin="round" stroke="green" stroke-miterlimit="10"/><path d="M309.36 172.2a1.14 1.14 0 1 1-2.282 0 1.14 1.14 0 1 1 2.281 0" fill-rule="evenodd" fill="#fff"/><path d="M309.36 172.2a1.14 1.14 0 1 1-2.282 0 1.14 1.14 0 1 1 2.281 0zm0 0" fill="none" stroke-width=".06" stroke-linecap="square" stroke-linejoin="bevel" stroke="#000" stroke-miterlimit="10"/><path d="M325.86 217.922l-.06-.48-.241-.422-.297-.301-.422-.18-.418-.059m-3.602 0l-.422.06-.418.179-.3.3-.239.422-.062.48m6.481 9.298v-9.297m-6.481 9.297v-9.297m5.043 10.738l.418-.058.422-.18.297-.3.242-.423.058-.48m-6.48 0l.062.48.239.422.3.3.418.18.422.06" fill="none" stroke-width=".48" stroke-linecap="round" stroke-linejoin="round" stroke="#505050" stroke-miterlimit="10"/><path d="M324.781 221.7h-2.16m0 0h-2.16m4.32 1.8h-2.16m0 0h-2.16" fill="none" stroke-width=".9" stroke-linecap="round" stroke-linejoin="round" stroke="#505050" stroke-miterlimit="10"/><path d="M322.621 226.14v-2.64m0-4.5v2.7" fill="none" stroke-width=".48" stroke-linecap="round" stroke-linejoin="round" stroke="#505050" stroke-miterlimit="10"/><path d="M315.422 236.941v-1.8" fill="none" stroke-width=".36" stroke-linecap="round" stroke-linejoin="round" stroke="#505050" stroke-miterlimit="10"/><path d="M315.121 235.078h.598v-5.16h-.598zm0 0" fill="#505050" stroke-width=".12" stroke-linecap="round" stroke-linejoin="round" stroke="#505050" stroke-miterlimit="10"/><path d="M317.219 223.98l-.059-.421-.238-.418-.3-.301-.423-.18-.418-.12m-.722 0l-.418.12-.422.18-.297.3-.242.419-.059.421m0 4.32l.059.481.242.418.297.301.422.18.418.058m.722 0l.418-.058.422-.18.3-.3.24-.419.058-.48m-2.16-5.761h.722m1.438 5.76v-4.32m-3.598 4.32v-4.32m1.438 5.758h.722" fill="none" stroke-width=".3" stroke-linecap="round" stroke-linejoin="round" stroke="#505050" stroke-miterlimit="10"/><path d="M315.422 225.238v.723m1.078 1.98h-2.16m0 0l1.082-1.98m0-.001v2.7m0-2.7l1.078 1.981m0-1.981h-1.078m0 0h-1.082" fill="none" stroke-width=".24" stroke-linecap="round" stroke-linejoin="round" stroke="#505050" stroke-miterlimit="10"/><path d="M313.621 224.52h3.598v-.72h-3.598zm0 0" fill="#505050" stroke-width=".12" stroke-linecap="round" stroke-linejoin="round" stroke="#505050" stroke-miterlimit="10"/><path d="M315.422 215.398v1.801" fill="none" stroke-width=".36" stroke-linecap="round" stroke-linejoin="round" stroke="#505050" stroke-miterlimit="10"/><path d="M315.121 222.422h.598v-5.16h-.598zm0 0" fill="#505050" stroke-width=".12" stroke-linecap="round" stroke-linejoin="round" stroke="#505050" stroke-miterlimit="10"/><path d="M329.82 215.398v1.801" fill="none" stroke-width=".36" stroke-linecap="round" stroke-linejoin="round" stroke="#505050" stroke-miterlimit="10"/><path d="M329.52 222.422h.601v-5.16h-.601zm0 0" fill="#505050" stroke-width=".12" stroke-linecap="round" stroke-linejoin="round" stroke="#505050" stroke-miterlimit="10"/><path d="M328.02 228.3l.058.481.184.418.36.301.358.18.48.058m.72 0l.422-.058.418-.18.3-.3.239-.419.062-.48m0-4.321l-.062-.421-.239-.418-.3-.301-.418-.18-.422-.12m-.72 0l-.48.12-.359.18-.36.3-.183.419-.058.421m2.16 5.758h-.72m-1.44-5.758v4.32m3.601-4.32v4.32m-1.441-5.76h-.72" fill="none" stroke-width=".3" stroke-linecap="round" stroke-linejoin="round" stroke="#505050" stroke-miterlimit="10"/><path d="M329.82 227.04v-.72m-1.082-1.98h2.16m0 0l-1.078 1.98m0 0v-2.699m0 2.699l-1.082-1.98m0 1.98h1.082m0 0h1.078" fill="none" stroke-width=".24" stroke-linecap="round" stroke-linejoin="round" stroke="#505050" stroke-miterlimit="10"/><path d="M328.02 228.48h3.601v-.718h-3.601zm0 0" fill="#505050" stroke-width=".12" stroke-linecap="round" stroke-linejoin="round" stroke="#505050" stroke-miterlimit="10"/><path d="M329.82 236.941v-1.8" fill="none" stroke-width=".36" stroke-linecap="round" stroke-linejoin="round" stroke="#505050" stroke-miterlimit="10"/><path d="M329.52 235.078h.601v-5.16h-.601zm0 0" fill="#505050" stroke-width=".12" stroke-linecap="round" stroke-linejoin="round" stroke="#505050" stroke-miterlimit="10"/><path d="M305.7 226.14V175.8m-16.5 0v50.34m16.5 0h-16.5m16.5-50.34h-5.4m-11.1 0h5.34m0 0l.12.84.36.72.539.6.66.481.84.239h.78l.782-.239.719-.48.539-.602.3-.718.122-.84m-35.161 13.32l.54.598.66.543.719.36.78.237.84.063m.001 0l.96-.121.962-.36.84-.543.66-.718m-3.422-6.899l-.961.117-.957.301-.782.54-.718.722M272.102 183.96l-.723-.722-.84-.539-.898-.3-.961-.118" fill="none" stroke-width=".48" stroke-linecap="round" stroke-linejoin="round" stroke="#505050" stroke-miterlimit="10"/><path d="M264.238 190.262l.723.718.84.598.898.422.961.238 1.02.121m0 .001l1.02-.122 1.019-.238.902-.48.84-.598.719-.723.539-.898m-5.039-8.461l-1.02.12-.96.24-.9.421-.84.54-.66.718m9.36.84l-.539-.778-.723-.722-.84-.598-.898-.422-.96-.238-1.02-.121" fill="none" stroke-width=".72" stroke-linecap="round" stroke-linejoin="round" stroke="#505050" stroke-miterlimit="10"/><path d="M272.16 198.48l-.539-.601-.601-.54-.72-.359-.84-.242-.78-.058m0 0l-1.02.12-.898.302-.84.597-.723.723m3.481 6.898l.96-.12.9-.36.839-.48.723-.72m-6.84 0l.718.72.782.48.957.36.96.12" fill="none" stroke-width=".48" stroke-linecap="round" stroke-linejoin="round" stroke="#505050" stroke-miterlimit="10"/><path d="M273.121 197.281l-.723-.66-.84-.601-.898-.418-.96-.301-1.02-.063m0 0l-1.02.063-1.02.3-.902.477-.84.602-.718.718-.602.903m5.102 8.461l.96-.121 1.02-.243.899-.418.78-.539.72-.722m-9.359-.899l.538.84.723.719.84.601.898.418.961.243 1.02.12" fill="none" stroke-width=".72" stroke-linecap="round" stroke-linejoin="round" stroke="#505050" stroke-miterlimit="10"/><path d="M281.281 208.922l-.062-.3-.18-.243-.238-.117-.242-.063m-2.161.001l-.296.062-.243.117-.12.242-.06.3m.001 5.759l.058.242.121.238.243.18.296.058m2.161 0l.242-.058.238-.18.18-.238.062-.242" fill="none" stroke-width=".48" stroke-linecap="round" stroke-linejoin="round" stroke="#505050" stroke-miterlimit="10"/><path d="M281.281 208.922l-.062-.3-.18-.243-.238-.117-.242-.063m-2.161.001l-.296.062-.243.117-.12.242-.06.3m.001 5.759l.058.242.121.238.243.18.296.058m2.161 0l.242-.058.238-.18.18-.238.062-.242m-2.883-6.48h2.16m.723 6.48v-5.758m-3.601 5.758v-5.758m.718 6.476h2.16" fill="none" stroke-width=".48" stroke-linecap="round" stroke-linejoin="round" stroke="#505050" stroke-miterlimit="10"/><path d="M279.121 216.48h.719v-1.082h-.719zm0-8.28h.719v-1.079h-.719zm0 0" fill="#505050" stroke-width=".12" stroke-linecap="round" stroke-linejoin="round" stroke="#505050" stroke-miterlimit="10"/><path d="M293.102 238.738l.296-.058.243-.121.18-.239v-.3m-.001-2.16v-.239l-.18-.242-.242-.18-.296-.058m-5.704-.001l-.296.06-.243.179-.18.242v.238m.001 2.161v.3l.18.239.242.12.296.06" fill="none" stroke-width=".48" stroke-linecap="round" stroke-linejoin="round" stroke="#505050" stroke-miterlimit="10"/><path d="M293.102 238.738l.296-.058.243-.121.18-.239v-.3m-.001-2.16v-.239l-.18-.242-.242-.18-.296-.058m-5.704-.001l-.296.06-.243.179-.18.242v.238m.001 2.161v.3l.18.239.242.12.296.06m6.422-2.879v2.16m-6.422.718h5.704m-5.704-3.598h5.704m-6.422.72v2.16" fill="none" stroke-width=".48" stroke-linecap="round" stroke-linejoin="round" stroke="#505050" stroke-miterlimit="10"/><path d="M285.602 237.3h1.078v-.722h-1.078zm8.218 0h1.078v-.722h-1.078zm0 0" fill="#505050" stroke-width=".12" stroke-linecap="round" stroke-linejoin="round" stroke="#505050" stroke-miterlimit="10"/><path d="M273.781 251.04h25.739m-25.739 5.64h3.117m-3.117-5.64v5.64m3.117 0v-5.34m-3.117-2.399h25.739m-15.66 13.321v9.898m5.64 0v-9.898m-7.078-10.922v10.082m0 0l1.437.84m5.641 0l1.379-.84m0 0V251.34m-7.019 10.922h5.64m-5.64 9.898h5.64m-15.719-21.12v-11.161m25.739 11.161v-11.161m-16.801 20.581l7.86-1.5m-7.86.06l7.86-1.5m-7.86.12l7.86-1.5m-7.86.06l7.86-1.5m-7.86.062l7.86-1.442m-7.86.059l7.86-1.5m-7.259 9.902l7.258-1.5m-16.797-20.402h25.739" fill="none" stroke-width=".6" stroke-linecap="round" stroke-linejoin="round" stroke="#505050" stroke-miterlimit="10"/><path d="M274.078 230.46l-.058-.241-.18-.239-.238-.18-.243-.062m-2.159 0l-.302.063-.238.18-.12.238-.06.242m0 5.758l.06.3.12.243.238.117.301.062m2.161 0l.242-.062.238-.117.18-.242.058-.301" fill="none" stroke-width=".48" stroke-linecap="round" stroke-linejoin="round" stroke="#505050" stroke-miterlimit="10"/><path d="M274.078 230.46l-.058-.241-.18-.239-.238-.18-.243-.062m-2.159 0l-.302.063-.238.18-.12.238-.06.242m0 5.758l.06.3.12.243.238.117.301.062m2.161 0l.242-.062.238-.117.18-.242.058-.301m-2.878-6.481h2.16m.718 6.481v-5.758m-3.598 5.758v-5.758m.72 6.48h2.16" fill="none" stroke-width=".48" stroke-linecap="round" stroke-linejoin="round" stroke="#505050" stroke-miterlimit="10"/><path d="M271.922 238.02h.719v-1.079h-.72zm0-8.282h.719v-1.078h-.72zm0 0" fill="#505050" stroke-width=".12" stroke-linecap="round" stroke-linejoin="round" stroke="#505050" stroke-miterlimit="10"/><path d="M309.781 251.04h25.68m-25.68 5.64h3.117m-3.117-5.64v5.64m3.117 0v-5.34m-3.117-2.399h25.68M319.8 262.262v9.898m5.641 0v-9.898m-7.081-10.922v10.082m0 0l1.44.84m5.641 0l1.438-.84m0 0V251.34m-7.079 10.922h5.641m-5.641 9.898h5.641m-15.66-21.12v-11.161m25.679 11.161v-11.161m-16.8 20.581l7.918-1.5m-7.918.06l7.918-1.5m-7.918.12l7.918-1.5m-7.918.06l7.918-1.5m-7.918.062l7.918-1.442m-7.918.059l7.918-1.5m-7.258 9.902l7.258-1.5m-16.797-20.402h25.68" fill="none" stroke-width=".6" stroke-linecap="round" stroke-linejoin="round" stroke="#505050" stroke-miterlimit="10"/><path d="M313.621 200.281l.059.239.18.242.242.18.238.058m2.16 0l.3-.059.24-.18.12-.241.059-.239m0-5.761l-.059-.301-.12-.239-.24-.12-.3-.06m-2.16 0l-.238.06-.243.12-.18.239-.058.3" fill="none" stroke-width=".48" stroke-linecap="round" stroke-linejoin="round" stroke="#505050" stroke-miterlimit="10"/><path d="M313.621 200.281l.059.239.18.242.242.18.238.058m2.16 0l.3-.059.24-.18.12-.241.059-.239m0-5.761l-.059-.301-.12-.239-.24-.12-.3-.06m-2.16 0l-.238.06-.243.12-.18.239-.058.3M316.5 201h-2.16m-.719-6.48v5.761m3.598-5.761v5.761m-.719-6.481h-2.16" fill="none" stroke-width=".48" stroke-linecap="round" stroke-linejoin="round" stroke="#505050" stroke-miterlimit="10"/><path d="M315.059 193.8h.722v-1.081h-.722zm0 8.278h.722V201h-.722zm0 0" fill="#505050" stroke-width=".12" stroke-linecap="round" stroke-linejoin="round" stroke="#505050" stroke-miterlimit="10"/><path d="M324.422 194.52l-.063-.301-.18-.239-.179-.12-.3-.06m-2.16 0l-.302.06-.18.12-.18.239-.058.3m0 5.762l.059.239.18.242.18.18.3.058m2.161 0l.3-.059.18-.18.18-.241.062-.239" fill="none" stroke-width=".48" stroke-linecap="round" stroke-linejoin="round" stroke="#505050" stroke-miterlimit="10"/><path d="M324.422 194.52l-.063-.301-.18-.239-.179-.12-.3-.06m-2.16 0l-.302.06-.18.12-.18.239-.058.3m0 5.762l.059.239.18.242.18.18.3.058m2.161 0l.3-.059.18-.18.18-.241.062-.239m-2.882-6.481h2.16m.722 6.481v-5.761m-3.602 5.761v-5.761m.72 6.48h2.16" fill="none" stroke-width=".48" stroke-linecap="round" stroke-linejoin="round" stroke="#505050" stroke-miterlimit="10"/><path d="M322.262 202.078h.718V201h-.718zm0-8.278h.718v-1.081h-.718zm0 0" fill="#505050" stroke-width=".12" stroke-linecap="round" stroke-linejoin="round" stroke="#505050" stroke-miterlimit="10"/><path d="M263.281 229.02l.059.3.12.239.24.12.3.06m2.16-.001l.3-.058.18-.121.18-.239.059-.3m0-5.758l-.059-.242-.18-.239-.18-.18-.3-.062m-2.16.001l-.3.062-.24.18-.12.238-.059.242" fill="none" stroke-width=".48" stroke-linecap="round" stroke-linejoin="round" stroke="#505050" stroke-miterlimit="10"/><path d="M263.281 229.02l.059.3.12.239.24.12.3.06m2.16-.001l.3-.058.18-.121.18-.239.059-.3m0-5.758l-.059-.242-.18-.239-.18-.18-.3-.062m-2.16.001l-.3.062-.24.18-.12.238-.059.242m2.879 6.476H264m-.719-6.476v5.758m3.598-5.758v5.758m-.719-6.48H264" fill="none" stroke-width=".48" stroke-linecap="round" stroke-linejoin="round" stroke="#505050" stroke-miterlimit="10"/><path d="M264.719 222.602h.722v-1.082h-.722zm0 8.218h.722v-1.082h-.722zm0 0" fill="#505050" stroke-width=".12" stroke-linecap="round" stroke-linejoin="round" stroke="#505050" stroke-miterlimit="10"/><path d="M260.398 252.66v-1.62m-.538 0h1.019m.543 1.62v-1.62m0 0h.84m0 0l.238.3m0 0v.48m0 0l-.238.301m0 0h-.84m.538 0l.54.54m.54-.001h.538m-.297 0v-1.62m-.241 0h.538m.481 1.858h1.082m1.319-1.858h-.538m0 0l-.242.3m0 0v1.02m0 0l.242.3m0 0h.539m-.001 0l.302-.3m0 0v-1.02m0 0l-.301-.3m.777 0v1.32m0 0l.301.3m.001 0h.538m0 0l.242-.3m0 0v-1.32m1.078 1.62v-1.62m-.538 0h1.081m58.618-75.24l-.239-.3m0 0h-.539m0 0l-.3.3m-.001 0v1.02m0 0l.301.301m0 0h.54m-.001 0l.239-.3m0-.001v-.48m0 0h-.54m1.083.781V175.5m0 0l1.02 1.621m-.001 0V175.5m.539 0v1.621m0 0h.781m0 0l.297-.3m0-.001v-1.02m0 0l-.297-.3m0 0h-.78m-53.521.84h1.079m-.539-.54v1.02m2.101-1.32h-1.02m.001 0v.84m0 0l.476-.3m0 0h.301m.001 0l.241.3m0 0v.48m0 0l-.242.301m.001 0H279m0 0l-.238-.3m1.558-1.321v1.078m0 0l.54.543m0 0l.538-.543m0 0V175.5" fill="none" stroke-width=".18" stroke-linecap="round" stroke-linejoin="round" stroke="#505050" stroke-miterlimit="10"/><path d="M312.898 170.398l-.539.122-.48.242-.418.418-.242.48-.117.54m6.839-1.802h-5.043m6.84 1.802l-.058-.54-.301-.48-.36-.418-.539-.242-.539-.122m0 3.602l.54-.059.539-.242.359-.418.3-.48.06-.602M312.898 174h5.043m-6.839-1.8l.117.6.242.481.418.418.48.242.54.059" fill="none" stroke-width=".36" stroke-linecap="round" stroke-linejoin="round" stroke="#505050" stroke-miterlimit="10"/><path d="M314.34 173.64h.719v-2.878h-.72zm1.441 0h.719v-2.878h-.719zm0 0" fill="#505050" stroke-width=".12" stroke-linecap="round" stroke-linejoin="round" stroke="#505050" stroke-miterlimit="10"/><path d="M312.898 170.398l-.539.122-.48.242-.418.418-.242.48-.117.54" fill="none" stroke-width=".36" stroke-linecap="round" stroke-linejoin="round" stroke="#505050" stroke-miterlimit="10"/><path d="M320.82 216.48h3.602m-3.602 12.18h3.602" fill="none" stroke-width=".48" stroke-linecap="round" stroke-linejoin="round" stroke="#505050" stroke-miterlimit="10"/><path d="M321.54 229.738h2.16v-1.078h-2.16zm0-13.258h2.16v-1.082h-2.16zm0 0" fill="#505050" stroke-width=".12" stroke-linecap="round" stroke-linejoin="round" stroke="#505050" stroke-miterlimit="10"/><path d="M264.238 183v7.2" fill="none" stroke-width=".72" stroke-linecap="round" stroke-linejoin="round" stroke="#505050" stroke-miterlimit="10"/><path d="M271.98 189.36l.54-.84.359-.899.121-1.02" fill="none" stroke-width=".48" stroke-linecap="round" stroke-linejoin="round" stroke="#505050" stroke-miterlimit="10"/><path d="M273 186.602l-.059-.782-.242-.78-.36-.661-.417-.66m-7.562 2.883l.062.777.18.723.359.718.418.602m0-5.582l-.54.84-.359.96-.12.962m4.32 1.796l.539-.058.48-.3.422-.36.238-.54.121-.538m-1.8 2.878l.718-.12.723-.239.598-.48.422-.602.3-.719.118-.718m-2.879-1.802l-.54.122-.538.238-.364.36-.297.539-.062.543m1.801-2.883l-.782.12-.66.302-.597.418-.48.601-.24.719-.12.723" fill="none" stroke-width=".48" stroke-linecap="round" stroke-linejoin="round" stroke="#505050" stroke-miterlimit="10"/><path d="M273.719 189.36l.422-.9.18-.901.12-.957m0 0l-.12-1.024-.301-1.02-.418-.956m-.481 21v-7.204" fill="none" stroke-width=".72" stroke-linecap="round" stroke-linejoin="round" stroke="#505050" stroke-miterlimit="10"/><path d="M265.379 198.238l-.54.84-.359.902-.12 1.02m0 0l.062.781.238.719.3.719.481.66M273 201l-.059-.781-.242-.719-.3-.719-.477-.601m.058 5.582l.54-.84.359-.961L273 201m-4.32-1.8l-.54.062-.538.297-.364.363-.297.539-.062.539m1.801-2.879l-.782.117-.66.242-.597.48-.48.599-.24.66-.12.781m2.879 1.8l.539-.12.48-.239.422-.421.238-.48.121-.54m-1.8 2.879l.718-.117.723-.301.598-.422.422-.598.3-.722.118-.719" fill="none" stroke-width=".48" stroke-linecap="round" stroke-linejoin="round" stroke="#505050" stroke-miterlimit="10"/><path d="M263.578 198.238l-.36.903-.238.898-.058.961m0 0l.117 1.02.242 1.02.48.96m15.719 18.54v-6.06m0-15.48v6.121m0 29.82h6.122m15.418 0h-6.122m-22.617 7.199v-6.12m0-15.48v6.12m43.141-42.058v6.117m0 15.481v-6.122m7.199 6.122v-6.122m0-15.476v6.117m-57.543 22.679v6.122m0 15.421v-6.12" fill="none" stroke-width=".72" stroke-linecap="round" stroke-linejoin="round" stroke="#505050" stroke-miterlimit="10"/><path d="M322.621 172.2h-6.062m-8.34 0h6.12" fill="none" stroke-width=".24" stroke-linecap="round" stroke-linejoin="round" stroke="#505050" stroke-miterlimit="10"/><use xlink:href="#a" x="315.121" y="216.096" fill="#505050"/><use xlink:href="#b" x="317.521" y="216.096" fill="#505050"/><use xlink:href="#c" x="309.786" y="234.442" fill="#505050"/><use xlink:href="#d" x="312.486" y="234.442" fill="#505050"/><use xlink:href="#c" x="330.53" y="220.772" fill="#505050"/><use xlink:href="#e" x="333.23" y="220.772" fill="#505050"/><use xlink:href="#f" x="288.812" y="174.734" fill="#505050"/><use xlink:href="#a" x="290.312" y="174.734" fill="#505050"/><use xlink:href="#g" x="292.712" y="174.734" fill="#505050"/><use xlink:href="#h" x="274.067" y="180.489" fill="#505050"/><use xlink:href="#i" x="275.687" y="180.489" fill="#505050"/><use xlink:href="#j" x="277.487" y="180.489" fill="#505050"/><use xlink:href="#k" x="279.707" y="180.489" fill="#505050"/><use xlink:href="#h" x="273.347" y="194.876" fill="#505050"/><use xlink:href="#i" x="274.967" y="194.876" fill="#505050"/><use xlink:href="#j" x="276.767" y="194.876" fill="#505050"/><use xlink:href="#l" x="278.987" y="194.876" fill="#505050"/><use xlink:href="#m" x="280.181" y="220.055" fill="#505050"/><use xlink:href="#g" x="282.701" y="220.055" fill="#505050"/><use xlink:href="#n" x="284.921" y="220.055" fill="#505050"/><use xlink:href="#m" x="286.771" y="234.439" fill="#505050"/><use xlink:href="#g" x="289.29" y="234.439" fill="#505050"/><use xlink:href="#o" x="291.51" y="234.439" fill="#505050"/><use xlink:href="#m" x="273.707" y="238.036" fill="#505050"/><use xlink:href="#g" x="276.227" y="238.036" fill="#505050"/><use xlink:href="#p" x="278.447" y="238.036" fill="#505050"/><use xlink:href="#m" x="272.988" y="241.635" fill="#505050"/><use xlink:href="#g" x="275.508" y="241.635" fill="#505050"/><use xlink:href="#b" x="277.728" y="241.635" fill="#505050"/><use xlink:href="#m" x="309.671" y="238.036" fill="#505050"/><use xlink:href="#q" x="312.191" y="238.036" fill="#505050"/><use xlink:href="#r" x="314.411" y="238.036" fill="#505050"/><use xlink:href="#m" x="307.746" y="191.998" fill="#505050"/><use xlink:href="#q" x="310.266" y="191.998" fill="#505050"/><use xlink:href="#g" x="312.486" y="191.998" fill="#505050"/><use xlink:href="#m" x="323.337" y="205.668" fill="#505050"/><use xlink:href="#q" x="325.857" y="205.668" fill="#505050"/><use xlink:href="#q" x="328.077" y="205.668" fill="#505050"/><use xlink:href="#m" x="257.397" y="220.772" fill="#505050"/><use xlink:href="#q" x="259.917" y="220.772" fill="#505050"/><use xlink:href="#d" x="262.137" y="220.772" fill="#505050"/><use xlink:href="#a" x="310.031" y="169.879" fill="#505050"/><use xlink:href="#g" x="312.431" y="169.879" fill="#505050"/><use xlink:href="#g" x="314.651" y="169.879" fill="#505050"/><use xlink:href="#k" x="314.521" y="231.324" fill="#505050"/><use xlink:href="#s" x="316.261" y="231.324" fill="#505050"/><use xlink:href="#t" x="318.061" y="231.324" fill="#505050"/><use xlink:href="#k" x="303.846" y="220.772" fill="#505050"/><use xlink:href="#u" x="305.586" y="220.772" fill="#505050"/><use xlink:href="#v" x="307.746" y="220.772" fill="#505050"/><use xlink:href="#k" x="309.486" y="220.772" fill="#505050"/><use xlink:href="#v" x="311.226" y="220.772" fill="#505050"/><use xlink:href="#w" x="312.966" y="220.772" fill="#505050"/><use xlink:href="#k" x="330.53" y="233.842" fill="#505050"/><use xlink:href="#u" x="332.27" y="233.842" fill="#505050"/><use xlink:href="#v" x="334.43" y="233.842" fill="#505050"/><use xlink:href="#k" x="336.17" y="233.842" fill="#505050"/><use xlink:href="#v" x="337.91" y="233.842" fill="#505050"/><use xlink:href="#w" x="339.65" y="233.842" fill="#505050"/><use xlink:href="#h" x="292.763" y="202.13" fill="#505050"/><use xlink:href="#x" x="294.383" y="202.13" fill="#505050"/><use xlink:href="#y" x="296.903" y="202.13" fill="#505050"/><use xlink:href="#l" x="298.643" y="202.13" fill="#505050"/><use xlink:href="#v" x="300.383" y="202.13" fill="#505050"/><use xlink:href="#v" x="280.181" y="206.385" fill="#505050"/><use xlink:href="#z" x="281.921" y="206.385" fill="#505050"/><use xlink:href="#A" x="283.661" y="206.385" fill="#505050"/><use xlink:href="#v" x="287.191" y="238.097" fill="#505050"/><use xlink:href="#B" x="288.931" y="238.097" fill="#505050"/><use xlink:href="#z" x="289.891" y="238.097" fill="#505050"/><use xlink:href="#A" x="291.631" y="238.097" fill="#505050"/><use xlink:href="#C" x="292.408" y="256.023" fill="#505050"/><use xlink:href="#D" x="295.168" y="256.023" fill="#505050"/><use xlink:href="#E" x="297.928" y="256.023" fill="#505050"/><use xlink:href="#v" x="272.988" y="227.965" fill="#505050"/><use xlink:href="#B" x="274.728" y="227.965" fill="#505050"/><use xlink:href="#z" x="275.688" y="227.965" fill="#505050"/><use xlink:href="#A" x="277.428" y="227.965" fill="#505050"/><use xlink:href="#C" x="328.372" y="256.023" fill="#505050"/><use xlink:href="#D" x="331.132" y="256.023" fill="#505050"/><use xlink:href="#D" x="333.892" y="256.023" fill="#505050"/><use xlink:href="#E" x="336.652" y="256.023" fill="#505050"/><use xlink:href="#k" x="307.866" y="205.068" fill="#505050"/><use xlink:href="#F" x="309.606" y="205.068" fill="#505050"/><use xlink:href="#F" x="311.346" y="205.068" fill="#505050"/><use xlink:href="#A" x="313.086" y="205.068" fill="#505050"/><use xlink:href="#k" x="323.337" y="191.998" fill="#505050"/><use xlink:href="#F" x="325.077" y="191.998" fill="#505050"/><use xlink:href="#F" x="326.817" y="191.998" fill="#505050"/><use xlink:href="#A" x="328.557" y="191.998" fill="#505050"/><use xlink:href="#k" x="260.997" y="233.842" fill="#505050"/><use xlink:href="#A" x="262.737" y="233.842" fill="#505050"/><use xlink:href="#k" x="312.839" y="176.834" fill="#505050"/><use xlink:href="#F" x="314.579" y="176.834" fill="#505050"/><use xlink:href="#F" x="316.319" y="176.834" fill="#505050"/><use xlink:href="#G" x="318.059" y="176.834" fill="#505050"/><use xlink:href="#t" x="319.859" y="176.834" fill="#505050"/><path d="M261.48 254.941h71.88m0 0v-86.34m0 .001h-71.88m0 0v86.34" fill="none" stroke-width=".12" stroke-linecap="round" stroke-linejoin="round" stroke="#000" stroke-miterlimit="10"/></svg>