<svg xmlns:xlink="http://www.w3.org/1999/xlink" width="595pt" height="560" viewBox="0 0 595 420"><defs><symbol overflow="visible" id="a"><path d="M1.86 0H.436v.297H.97V2.25H.438v.266c.195 0 .347.03.453.093.093.051.144.157.156.313h.297V.297h.515zm0 0"/></symbol><symbol overflow="visible" id="b"><path d="M1.969 0h-.36v.25a1.526 1.526 0 0 0-.328-.234.78.78 0 0 0-.61-.032.505.505 0 0 0-.218.157.685.685 0 0 0-.156.25A1.29 1.29 0 0 0 .25.766v1.421h.375V.938c0-.117.004-.21.016-.28A.381.381 0 0 1 .687.452C.72.391.758.348.813.328a.78.78 0 0 1 .516.031c.094.051.188.118.281.204v1.625h.36zm0 0"/></symbol><symbol overflow="visible" id="c"><path d="M2.047 2.578H.687V1.75h1.297v-.344H.688V0H.296v2.922h1.75zm0 0"/></symbol><symbol overflow="visible" id="w"><path d="M1.438-.047a1.212 1.212 0 0 0-.532.094A1.087 1.087 0 0 0 .5.328C.383.453.29.61.219.797a2.147 2.147 0 0 0-.094.656c0 .25.031.461.094.64.062.177.156.337.281.485.113.125.25.223.406.297.156.063.332.094.531.094.102 0 .196-.008.282-.016.082-.023.16-.043.234-.062.063-.024.129-.043.203-.063.063-.031.125-.07.188-.11V2.25h-.031c-.032.031-.075.07-.126.125-.062.04-.132.082-.203.125a2.15 2.15 0 0 1-.234.11c-.094.019-.2.03-.313.03a.767.767 0 0 1-.343-.078.876.876 0 0 1-.297-.218.997.997 0 0 1-.188-.375 1.552 1.552 0 0 1-.078-.516c0-.2.024-.371.078-.516A.83.83 0 0 1 .797.579.624.624 0 0 1 1.094.36a.718.718 0 0 1 .343-.078.99.99 0 0 1 .313.047.83.83 0 0 1 .25.094 1.42 1.42 0 0 1 .313.234h.03V.203a2.274 2.274 0 0 1-.17-.093 1.023 1.023 0 0 0-.219-.078A1.319 1.319 0 0 0 1.72-.03a2.627 2.627 0 0 0-.282-.016zm0 0"/></symbol><symbol overflow="visible" id="x"><path d="M1.625 1.719c0 .195-.016.36-.047.484a.918.918 0 0 1-.156.297.421.421 0 0 1-.172.125.629.629 0 0 1-.188.031.479.479 0 0 1-.39-.172c-.094-.117-.14-.28-.14-.5a.76.76 0 0 1 .046-.296.505.505 0 0 1 .156-.22.25.25 0 0 1 .157-.077 1.004 1.004 0 0 1 .484.031c.094.02.176.055.25.11v.187zm-1.5.25c0 .156.023.289.078.406.05.125.117.234.203.328.082.082.18.149.297.203a.875.875 0 0 0 .719 0 .713.713 0 0 0 .281-.187 1.21 1.21 0 0 0 .234-.422 2.01 2.01 0 0 0 .094-.656c0-.25-.031-.48-.094-.688a1.639 1.639 0 0 0-.234-.547 1.257 1.257 0 0 0-.406-.344 1.24 1.24 0 0 0-.578-.124c-.055 0-.11.007-.172.015a.358.358 0 0 0-.156.031V.36h.015A.321.321 0 0 1 .562.313.569.569 0 0 1 .766.28c.257 0 .46.082.609.25.145.164.227.406.25.719a1.549 1.549 0 0 0-.297-.14.825.825 0 0 0-.312-.063.83.83 0 0 0-.297.047.663.663 0 0 0-.266.125.745.745 0 0 0-.234.312.963.963 0 0 0-.094.438zm0 0"/></symbol><symbol overflow="visible" id="y"><path d="M2.594 1.453c0-.262-.055-.5-.156-.719A1.145 1.145 0 0 0 2 .234a1.33 1.33 0 0 0-.453-.187A2.89 2.89 0 0 0 .969 0H.297v2.922h.656c.281 0 .5-.024.656-.063.157-.043.286-.101.391-.171.188-.126.332-.293.438-.5.101-.211.156-.454.156-.735zm-.406.016c0 .218-.04.41-.11.578a.813.813 0 0 1-.328.36 1.345 1.345 0 0 1-.328.14 1.832 1.832 0 0 1-.438.047H.688V.328h.296c.164 0 .317.016.454.047a1.016 1.016 0 0 1 .656.516c.062.156.094.347.094.578zm0 0"/></symbol><symbol overflow="visible" id="z"><path d="M1 2.64a.671.671 0 0 1-.203-.03.873.873 0 0 1-.219-.063.582.582 0 0 1-.156-.078C.367 2.438.328 2.41.297 2.39H.266v.406c.082.039.203.082.359.125.133.039.27.062.406.062.133 0 .25-.015.344-.046a.62.62 0 0 0 .266-.126.596.596 0 0 0 .203-.218.81.81 0 0 0 .062-.313.612.612 0 0 0-.156-.422.669.669 0 0 0-.375-.234v-.031a.919.919 0 0 0 .39-.188 1.28 1.28 0 0 0 .141-.218A.875.875 0 0 0 1.89.5a.803.803 0 0 0-.187-.297.745.745 0 0 0-.312-.187 1.005 1.005 0 0 0-.407-.079c-.148 0-.293.016-.437.047C.41.024.289.07.187.125v.406H.22C.3.47.41.411.547.36a1.094 1.094 0 0 1 .656-.046c.082.03.149.07.203.124.051.063.094.126.125.188.02.07.032.16.032.266a.687.687 0 0 1-.047.265.491.491 0 0 1-.125.157.446.446 0 0 1-.188.078c-.086.02-.168.03-.25.03H.781v.329h.14c.165 0 .306.04.423.125a.419.419 0 0 1 .172.36c0 .07-.016.132-.047.187a.493.493 0 0 1-.11.125 1.15 1.15 0 0 1-.171.078A1.296 1.296 0 0 1 1 2.641zm0 0"/></symbol><symbol overflow="visible" id="A"><path d="M2.094 1H1.75V0h-.375v1H.078v.422l1.313 1.5h.359v-1.61h.344zm-.719.313v1.14l-.984-1.14zm0 0"/></symbol><symbol overflow="visible" id="F"><path d="M2.563 0h-.516l-.922 1.156H.687V0h-.39v2.922h.75c.164 0 .305-.012.422-.031.113-.024.222-.063.328-.125a.8.8 0 0 0 .234-.25.751.751 0 0 0 .094-.391.797.797 0 0 0-.172-.531.913.913 0 0 0-.437-.328zm-.844 2.094a.6.6 0 0 1-.047.234.412.412 0 0 1-.14.156.446.446 0 0 1-.188.079c-.074.007-.168.019-.282.03H.688V1.485h.344c.102 0 .203.008.297.032.082.02.156.062.219.125a.38.38 0 0 1 .125.187.66.66 0 0 1 .047.266zm0 0"/></symbol><symbol overflow="visible" id="G"><path d="M1.86 0H.436v.297H.97V2.25H.438v.266c.195 0 .347.03.453.093.093.051.144.157.156.313h.297V.297h.515zm0 0"/></symbol><symbol overflow="visible" id="H"><path d="M2.063.953a1.11 1.11 0 0 0-.079-.422A1.006 1.006 0 0 0 1.781.22a.723.723 0 0 0-.297-.203.78.78 0 0 0-.343-.079c-.137 0-.258.024-.36.063a.891.891 0 0 0-.297.203A1.194 1.194 0 0 0 .25.625a2.253 2.253 0 0 0-.078.656c0 .25.023.477.078.688.05.207.129.383.234.531.102.145.239.258.407.344.164.082.359.125.578.125h.187c.063-.012.114-.024.157-.031v-.376h-.016a.676.676 0 0 1-.156.047.87.87 0 0 1-.22.032.784.784 0 0 1-.593-.25C.68 2.223.594 1.977.563 1.656c.093.063.19.114.296.157a.973.973 0 0 0 .313.046c.113 0 .21-.011.297-.03a.792.792 0 0 0 .515-.438c.051-.125.079-.274.079-.438zM1.655.938a.84.84 0 0 1-.047.296.5.5 0 0 1-.14.204.735.735 0 0 1-.172.093c-.074.008-.14.016-.203.016A.745.745 0 0 1 .828 1.5a1.272 1.272 0 0 1-.265-.125v-.172c0-.21.019-.375.062-.5a.783.783 0 0 1 .14-.281.368.368 0 0 1 .172-.125.326.326 0 0 1 .204-.031c.156 0 .28.05.375.156.093.113.14.285.14.516zm0 0"/></symbol><symbol overflow="visible" id="I"><path d="M2.047 2.484L.78 0H.36l1.344 2.578H.187v.344h1.86zm0 0"/></symbol><symbol overflow="visible" id="J"><path d="M1.594 2.234a.426.426 0 0 1-.14.329.46.46 0 0 1-.36.14.464.464 0 0 1-.344-.125.378.378 0 0 1-.14-.312c0-.094.019-.18.062-.25a.724.724 0 0 1 .219-.172.509.509 0 0 1 .187-.094.822.822 0 0 1 .219-.094.699.699 0 0 1 .234.266c.04.094.063.195.063.312zM1.64.781a.599.599 0 0 1-.063.281.934.934 0 0 1-.281.22l-.172.077a3.457 3.457 0 0 1-.25.094.694.694 0 0 1-.25-.25.873.873 0 0 1-.078-.375.555.555 0 0 1 .156-.437.494.494 0 0 1 .39-.172c.165 0 .302.05.407.156.094.094.14.227.14.406zm-.547-.844c-.149 0-.278.024-.39.063A.722.722 0 0 0 .39.188a.598.598 0 0 0-.188.28.883.883 0 0 0-.062.344.8.8 0 0 0 .125.438.947.947 0 0 0 .375.313v.015a.788.788 0 0 0-.329.266.703.703 0 0 0-.093.375c0 .219.082.398.25.547a.917.917 0 0 0 .625.218c.258 0 .472-.07.64-.203a.706.706 0 0 0 .235-.531.787.787 0 0 0-.11-.39.658.658 0 0 0-.328-.298v-.015a1.25 1.25 0 0 0 .39-.297.742.742 0 0 0 .126-.438c0-.25-.09-.46-.266-.625a.994.994 0 0 0-.687-.25zm0 0"/></symbol><symbol overflow="visible" id="K"><path d="M2.016 0H.219v.406l.36.36c.112.101.226.218.343.343.219.25.367.446.453.594.07.145.113.297.125.453a.487.487 0 0 1-.047.219.602.602 0 0 1-.11.156.629.629 0 0 1-.344.11.822.822 0 0 1-.218-.032.685.685 0 0 1-.203-.062 1.166 1.166 0 0 1-.156-.078C.367 2.438.328 2.41.297 2.39H.28v.406c.07.039.18.082.328.125.145.039.286.062.422.062.258 0 .469-.074.625-.218.157-.149.235-.344.235-.594a1.51 1.51 0 0 0-.032-.313 2.355 2.355 0 0 0-.109-.265 2.195 2.195 0 0 0-.188-.25 4.057 4.057 0 0 0-.203-.25 7.154 7.154 0 0 0-.42-.421 7.96 7.96 0 0 0-.36-.344h1.438zm0 0"/></symbol><symbol overflow="visible" id="L"><path d="M2.031 1.453c0-.523-.078-.902-.234-1.14-.149-.25-.383-.376-.703-.376C.77-.063.535.064.39.314.234.563.156.94.156 1.452c0 .531.078.914.235 1.156.156.25.39.375.703.375.32 0 .554-.132.703-.39.156-.25.234-.633.234-1.14zm-.5-.875c.032.094.055.211.078.36a9.314 9.314 0 0 1 0 1.046 2.427 2.427 0 0 1-.078.36.573.573 0 0 1-.172.234.414.414 0 0 1-.265.078.446.446 0 0 1-.266-.078.512.512 0 0 1-.172-.234 1.997 1.997 0 0 1-.078-.375 6.995 6.995 0 0 1-.015-.516c0-.2.003-.371.015-.516A1.08 1.08 0 0 1 .656.579.474.474 0 0 1 .828.344C.891.289.977.266 1.094.266c.101 0 .191.023.265.078.07.05.13.129.172.234zm0 0"/></symbol><symbol overflow="visible" id="M"><path d="M1.313 0H.188v.297h.374v2.328H.188v.297h1.125v-.297H.938V.297h.375zm0 0"/></symbol><symbol overflow="visible" id="d"><path d="M1.5 0H.36v.234h.42v1.579H.36v.218c.157 0 .274.02.36.063.07.05.113.14.125.265h.25V.234H1.5zm0 0"/></symbol><symbol overflow="visible" id="e"><path d="M1.922 0h-.36L.532 2.031V0H.233v2.344h.454l.937-1.86v1.86h.297zm0 0"/></symbol><symbol overflow="visible" id="f"><path d="M1.688.813h-.282V0H1.11v.813H.063v.328l1.046 1.203h.297V1.063h.282zm-.579.25v.921l-.796-.921zm0 0"/></symbol><symbol overflow="visible" id="g"><path d="M1.281 1.797a.38.38 0 0 1-.11.266.414.414 0 0 1-.296.109.408.408 0 0 1-.281-.094.312.312 0 0 1-.11-.25.3.3 0 0 1 .063-.203.357.357 0 0 1 .172-.14.925.925 0 0 1 .14-.079c.07-.031.133-.058.188-.078.094.07.156.145.187.219a.62.62 0 0 1 .047.25zM1.328.625a.435.435 0 0 1-.062.234.607.607 0 0 1-.22.172.849.849 0 0 1-.14.063 1.94 1.94 0 0 0-.203.078A.63.63 0 0 1 .5.969.71.71 0 0 1 .437.672c0-.149.04-.262.126-.344A.414.414 0 0 1 .89.188c.125 0 .226.035.312.109a.445.445 0 0 1 .125.328zM.891-.047C.766-.047.656-.03.562 0a.602.602 0 0 0-.25.156.586.586 0 0 0-.14.219.596.596 0 0 0-.063.281A.58.58 0 0 0 .22 1c.07.102.172.188.297.25v.016a.754.754 0 0 0-.266.218.518.518 0 0 0-.078.297.59.59 0 0 0 .203.453.768.768 0 0 0 .516.172.72.72 0 0 0 .5-.172A.548.548 0 0 0 1.5 1.5a.683.683 0 0 0-.266-.25 1.22 1.22 0 0 0 .313-.234.587.587 0 0 0 .11-.36.654.654 0 0 0-.22-.5.805.805 0 0 0-.546-.203zm0 0"/></symbol><symbol overflow="visible" id="h"><path d="M1.656 2L.625 0H.297l1.078 2.078H.156v.266h1.5zm0 0"/></symbol><symbol overflow="visible" id="i"><path d="M1.672 0h-.39L.624.844l-.11-.11V0H.22v2.453h.297V1.016l.687.75h.375L.86 1.03zm0 0"/></symbol><symbol overflow="visible" id="j"><path d="M.672 0H.297v.453h.375zm0 0"/></symbol><symbol overflow="visible" id="n"><path d="M1.64 1.172c0-.418-.062-.727-.187-.922-.125-.2-.312-.297-.562-.297-.262 0-.454.098-.579.297-.124.195-.187.504-.187.922 0 .426.063.738.188.937.124.196.316.297.578.297.25 0 .437-.105.562-.312.125-.211.188-.516.188-.922zM1.235.453c.032.082.051.18.063.297a6.042 6.042 0 0 1 0 .844 1.03 1.03 0 0 1-.063.297.387.387 0 0 1-.14.187.34.34 0 0 1-.203.063.355.355 0 0 1-.22-.063.387.387 0 0 1-.14-.187 1.076 1.076 0 0 1-.062-.297 4.605 4.605 0 0 1-.016-.422c0-.168.004-.305.016-.406C.477.648.5.55.53.469A.378.378 0 0 1 .656.28.404.404 0 0 1 .891.22a.224.224 0 0 1 .203.062c.062.04.11.098.14.172zm0 0"/></symbol><symbol overflow="visible" id="o"><path d="M1.594 0h-.297v1.234a1.104 1.104 0 0 1-.047.172.411.411 0 0 1-.11.094.454.454 0 0 1-.39-.031 1.066 1.066 0 0 1-.234-.156V0H.219v1.766h.297v-.204a.918.918 0 0 0 .265.188c.082.04.172.063.266.063a.5.5 0 0 0 .406-.172c.094-.118.14-.282.14-.5zm0 0"/></symbol><symbol overflow="visible" id="p"><path d="M1.64 2.078H.548v-.672h1.047v-.281H.547V0H.234v2.344h1.407zm0 0"/></symbol><symbol overflow="visible" id="B"><path d="M1.594 0H.234v2.344h.313V.28h1.047zm0 0"/></symbol><symbol overflow="visible" id="C"><path d="M.234 0v2.344h1.47v-.266H.546v-.656h1.078v-.266H.547V.281h1.156V0zm0 0"/></symbol><symbol overflow="visible" id="D"><path d="M2.094 1.172c0-.219-.043-.414-.125-.578a1.049 1.049 0 0 0-.36-.406A1.211 1.211 0 0 0 1.25.03 2.651 2.651 0 0 0 .781 0H.234v2.344h.547c.219 0 .39-.016.516-.047a1.14 1.14 0 0 0 .312-.125c.157-.106.274-.242.36-.406.082-.168.125-.368.125-.594zm-.328 0c0 .187-.032.344-.094.469a.63.63 0 0 1-.266.296.979.979 0 0 1-.265.11 1.72 1.72 0 0 1-.344.031h-.25V.266h.25c.133 0 .254.007.36.03a.783.783 0 0 1 .531.422c.05.126.078.274.078.454zm0 0"/></symbol><symbol overflow="visible" id="E"><path d="M1.625 0H.172v.328C.273.43.375.523.469.61c.094.094.18.188.265.282.176.195.301.359.375.484a.737.737 0 0 1 .094.36.428.428 0 0 1-.11.297.814.814 0 0 1-.14.077.841.841 0 0 1-.156.016c-.055 0-.11-.008-.172-.016a4.337 4.337 0 0 0-.156-.062.342.342 0 0 1-.125-.063 2.172 2.172 0 0 1-.11-.062H.22v.344c.062.03.156.062.281.093.113.032.223.047.328.047.219 0 .39-.058.516-.172a.66.66 0 0 0 .187-.484.95.95 0 0 0-.031-.25 2.037 2.037 0 0 0-.094-.219c-.043-.062-.09-.133-.14-.203a1.746 1.746 0 0 0-.172-.203L.766.547A12.592 12.592 0 0 1 .469.266h1.156zm0 0"/></symbol><symbol overflow="visible" id="k"><path d="M2.344 0H.563v.375h.656v2.453H.562v.344c.25 0 .43.035.547.11.125.062.192.195.204.405h.39V.376h.64zm0 0"/></symbol><symbol overflow="visible" id="l"><path d="M2.547 1.828c0-.656-.094-1.137-.281-1.437-.2-.313-.496-.47-.891-.47-.406 0-.703.157-.89.47C.296.703.202 1.18.202 1.828c0 .664.098 1.149.297 1.453.188.313.477.469.875.469.406 0 .703-.164.89-.484.188-.313.282-.793.282-1.438zM1.922.718c.039.114.07.266.094.454.02.187.03.406.03.656 0 .258-.01.477-.03.656a2.744 2.744 0 0 1-.094.47.69.69 0 0 1-.203.28.564.564 0 0 1-.344.11.489.489 0 0 1-.328-.11.598.598 0 0 1-.219-.28 1.31 1.31 0 0 1-.094-.47 5.688 5.688 0 0 1-.03-.656c0-.25.007-.465.03-.64.008-.18.04-.336.094-.47a.626.626 0 0 1 .203-.28c.082-.075.196-.11.344-.11.133 0 .25.031.344.094.082.07.148.172.203.297zm0 0"/></symbol><symbol overflow="visible" id="m"><path d="M2.61 0h-.594L.984 1.328l-.187-.172V0H.328v3.828h.469V1.594L1.89 2.75h.578l-1.14-1.14zm0 0"/></symbol><symbol overflow="visible" id="q"><path d="M0 1.594V.234h-2.344v.313H-.28v1.047zm0 0"/></symbol><symbol overflow="visible" id="r"><path d="M0 2.25v-.313h-2.031l1.39-.609v-.187L-2.03.53H0V.234h-2.344v.438l1.297.578-1.297.563v.437zm0 0"/></symbol><symbol overflow="visible" id="s"><path d="M-2.125.813c0-.063.008-.122.016-.172l.062-.172a2.172 2.172 0 0 1 .125-.234V.218h-.328A1 1 0 0 0-2.36.5a1.232 1.232 0 0 0-.015.61c.031.081.07.156.11.218a.799.799 0 0 0 .187.156.57.57 0 0 0 .25.047.485.485 0 0 0 .328-.125.486.486 0 0 0 .188-.297h.03l.048.157c.023.05.058.101.109.156a.68.68 0 0 0 .172.11.83.83 0 0 0 .547 0A.774.774 0 0 0 0 1.125a1.06 1.06 0 0 0 .047-.33C.047.68.03.567 0 .454A.83.83 0 0 0-.094.156h-.328v.016c.043.062.086.148.125.266A.774.774 0 0 1-.219.78.525.525 0 0 1-.25.97a.31.31 0 0 1-.11.156.345.345 0 0 1-.156.11.568.568 0 0 1-.203.03.487.487 0 0 1-.219-.046.34.34 0 0 1-.125-.094.376.376 0 0 1-.062-.156 1.65 1.65 0 0 1-.016-.203V.64h-.265v.093a.57.57 0 0 1-.094.344.353.353 0 0 1-.297.14.37.37 0 0 1-.156-.03.415.415 0 0 1-.156-.219c-.008-.055-.016-.106-.016-.157zm0 0"/></symbol><symbol overflow="visible" id="t"><path d="M-.75 1.594a.973.973 0 0 0 .313-.047.74.74 0 0 0 .25-.156.61.61 0 0 0 .171-.25.847.847 0 0 0 .063-.329A1.8 1.8 0 0 0 .016.484a1.954 1.954 0 0 0-.094-.28h-.344v.015a.25.25 0 0 1 .063.11.74.74 0 0 1 .062.14.73.73 0 0 1 .047.172.41.41 0 0 1 .031.171A.416.416 0 0 1-.266 1a.31.31 0 0 1-.109.156.438.438 0 0 1-.156.094.72.72 0 0 1-.422 0 .967.967 0 0 1-.14-.11.648.648 0 0 1-.079-.156.917.917 0 0 1-.031-.234c0-.086.012-.168.031-.25.012-.086.024-.152.031-.203h-1.203v1.281h.266V.594h.625v.11a.32.32 0 0 1-.016.109c0 .113.012.21.032.296a.788.788 0 0 0 .125.25c.054.07.125.13.218.172.086.04.2.063.344.063zm0 0"/></symbol><symbol overflow="visible" id="u"><path d="M-1.797 1.281a.379.379 0 0 1-.266-.11.414.414 0 0 1-.109-.296c0-.117.031-.21.094-.281a.312.312 0 0 1 .25-.11.3.3 0 0 1 .203.063.357.357 0 0 1 .14.172.925.925 0 0 1 .079.14c.031.07.058.133.078.188a.558.558 0 0 1-.219.187.62.62 0 0 1-.25.047zm1.172.047a.435.435 0 0 1-.234-.062.607.607 0 0 1-.172-.22.849.849 0 0 1-.063-.14 1.94 1.94 0 0 0-.078-.203A.63.63 0 0 1-.969.5.71.71 0 0 1-.672.437c.149 0 .262.04.344.126.094.082.14.19.14.328a.456.456 0 0 1-.109.312.445.445 0 0 1-.328.125zM.047.891C.047.766.03.656 0 .562a.602.602 0 0 0-.156-.25.586.586 0 0 0-.219-.14.596.596 0 0 0-.281-.063A.58.58 0 0 0-1 .22a.783.783 0 0 0-.25.297h-.016A.754.754 0 0 0-1.484.25a.518.518 0 0 0-.297-.078.592.592 0 0 0-.453.203.768.768 0 0 0-.172.516.72.72 0 0 0 .172.5.548.548 0 0 0 .734.109.683.683 0 0 0 .25-.266c.074.133.152.239.234.313a.59.59 0 0 0 .36.11.654.654 0 0 0 .5-.22.805.805 0 0 0 .203-.546zm0 0"/></symbol><symbol overflow="visible" id="v"><path d="M0 1.922v-.36L-2.031.532H0V.233h-2.344v.454l1.86.937h-1.86v.297zm0 0"/></symbol><clipPath id="N"><path d="M272 146.16h2V157h-2zm0 0"/></clipPath><clipPath id="O"><path d="M278 146.16h2V157h-2zm0 0"/></clipPath><clipPath id="P"><path d="M272 146.16h8v.84h-8zm0 0"/></clipPath><clipPath id="Q"><path d="M316 146.16h1V157h-1zm0 0"/></clipPath><clipPath id="R"><path d="M321 146.16h2V157h-2zm0 0"/></clipPath><clipPath id="S"><path d="M316 146.16h7v.84h-7zm0 0"/></clipPath></defs><use xlink:href="#a" x="316.898" y="209.062" fill="#505050"/><use xlink:href="#b" x="319.118" y="209.062" fill="#505050"/><use xlink:href="#c" x="321.338" y="209.062" fill="#505050"/><use xlink:href="#d" x="299.632" y="193.239" fill="#505050"/><use xlink:href="#e" x="301.372" y="193.239" fill="#505050"/><use xlink:href="#f" x="303.532" y="193.239" fill="#505050"/><use xlink:href="#d" x="305.272" y="193.239" fill="#505050"/><use xlink:href="#f" x="307.012" y="193.239" fill="#505050"/><use xlink:href="#g" x="308.752" y="193.239" fill="#505050"/><use xlink:href="#d" x="327.754" y="182.327" fill="#505050"/><use xlink:href="#e" x="329.493" y="182.327" fill="#505050"/><use xlink:href="#f" x="331.654" y="182.327" fill="#505050"/><use xlink:href="#d" x="333.393" y="182.327" fill="#505050"/><use xlink:href="#f" x="335.134" y="182.327" fill="#505050"/><use xlink:href="#g" x="336.873" y="182.327" fill="#505050"/><use xlink:href="#f" x="276.688" y="219.493" fill="#505050"/><use xlink:href="#h" x="278.428" y="219.493" fill="#505050"/><use xlink:href="#i" x="280.168" y="219.493" fill="#505050"/><use xlink:href="#f" x="283.697" y="180.59" fill="#505050"/><use xlink:href="#j" x="285.437" y="180.59" fill="#505050"/><use xlink:href="#h" x="286.397" y="180.59" fill="#505050"/><use xlink:href="#i" x="288.137" y="180.59" fill="#505050"/><use xlink:href="#k" x="281.723" y="162.664" fill="#505050"/><use xlink:href="#l" x="284.483" y="162.664" fill="#505050"/><use xlink:href="#m" x="287.243" y="162.664" fill="#505050"/><use xlink:href="#f" x="269.496" y="197.914" fill="#505050"/><use xlink:href="#j" x="271.236" y="197.914" fill="#505050"/><use xlink:href="#h" x="272.196" y="197.914" fill="#505050"/><use xlink:href="#i" x="273.936" y="197.914" fill="#505050"/><use xlink:href="#k" x="324.877" y="162.664" fill="#505050"/><use xlink:href="#l" x="327.637" y="162.664" fill="#505050"/><use xlink:href="#l" x="330.397" y="162.664" fill="#505050"/><use xlink:href="#m" x="333.157" y="162.664" fill="#505050"/><use xlink:href="#d" x="283.88" y="219.493" fill="#505050"/><use xlink:href="#n" x="285.62" y="219.493" fill="#505050"/><use xlink:href="#n" x="287.361" y="219.493" fill="#505050"/><use xlink:href="#i" x="289.1" y="219.493" fill="#505050"/><use xlink:href="#d" x="319.842" y="233.88" fill="#505050"/><use xlink:href="#n" x="321.582" y="233.88" fill="#505050"/><use xlink:href="#n" x="323.322" y="233.88" fill="#505050"/><use xlink:href="#i" x="325.062" y="233.88" fill="#505050"/><use xlink:href="#d" x="267.096" y="238.134" fill="#505050"/><use xlink:href="#i" x="268.837" y="238.134" fill="#505050"/><use xlink:href="#d" x="302.152" y="227.464" fill="#505050"/><use xlink:href="#n" x="303.891" y="227.464" fill="#505050"/><use xlink:href="#n" x="305.632" y="227.464" fill="#505050"/><use xlink:href="#o" x="307.372" y="227.464" fill="#505050"/><use xlink:href="#p" x="309.172" y="227.464" fill="#505050"/><use xlink:href="#q" x="302.939" y="204.028" fill="#505050"/><use xlink:href="#r" x="302.939" y="205.648" fill="#505050"/><use xlink:href="#s" x="302.939" y="208.168" fill="#505050"/><use xlink:href="#t" x="302.939" y="209.908" fill="#505050"/><use xlink:href="#u" x="302.939" y="211.648" fill="#505050"/><use xlink:href="#v" x="302.939" y="213.388" fill="#505050"/><use xlink:href="#w" x="329.191" y="209.062" fill="#505050"/><use xlink:href="#x" x="331.591" y="209.062" fill="#505050"/><use xlink:href="#y" x="305.931" y="181.727" fill="#505050"/><use xlink:href="#z" x="308.631" y="181.727" fill="#505050"/><use xlink:href="#y" x="327.393" y="193.238" fill="#505050"/><use xlink:href="#A" x="330.093" y="193.238" fill="#505050"/><use xlink:href="#B" x="274.17" y="231.002" fill="#505050"/><use xlink:href="#C" x="275.79" y="231.002" fill="#505050"/><use xlink:href="#D" x="277.59" y="231.002" fill="#505050"/><use xlink:href="#d" x="279.81" y="231.002" fill="#505050"/><use xlink:href="#B" x="269.855" y="216.616" fill="#505050"/><use xlink:href="#C" x="271.475" y="216.616" fill="#505050"/><use xlink:href="#D" x="273.275" y="216.616" fill="#505050"/><use xlink:href="#E" x="275.494" y="216.616" fill="#505050"/><use xlink:href="#F" x="276.687" y="205.824" fill="#505050"/><use xlink:href="#G" x="279.207" y="205.824" fill="#505050"/><use xlink:href="#H" x="281.427" y="205.824" fill="#505050"/><use xlink:href="#F" x="283.277" y="184.247" fill="#505050"/><use xlink:href="#G" x="285.796" y="184.247" fill="#505050"/><use xlink:href="#I" x="288.016" y="184.247" fill="#505050"/><use xlink:href="#F" x="263.022" y="180.651" fill="#505050"/><use xlink:href="#G" x="265.542" y="180.651" fill="#505050"/><use xlink:href="#J" x="267.762" y="180.651" fill="#505050"/><use xlink:href="#F" x="269.495" y="184.244" fill="#505050"/><use xlink:href="#G" x="272.015" y="184.244" fill="#505050"/><use xlink:href="#x" x="274.235" y="184.244" fill="#505050"/><use xlink:href="#F" x="306.176" y="180.651" fill="#505050"/><use xlink:href="#K" x="308.696" y="180.651" fill="#505050"/><use xlink:href="#L" x="310.916" y="180.651" fill="#505050"/><use xlink:href="#F" x="283.88" y="205.824" fill="#505050"/><use xlink:href="#K" x="286.4" y="205.824" fill="#505050"/><use xlink:href="#G" x="288.62" y="205.824" fill="#505050"/><use xlink:href="#F" x="319.841" y="220.21" fill="#505050"/><use xlink:href="#K" x="322.361" y="220.21" fill="#505050"/><use xlink:href="#K" x="324.581" y="220.21" fill="#505050"/><use xlink:href="#F" x="272.372" y="234.596" fill="#505050"/><use xlink:href="#K" x="274.892" y="234.596" fill="#505050"/><use xlink:href="#z" x="277.112" y="234.596" fill="#505050"/><use xlink:href="#w" x="299.343" y="234.419" fill="#505050"/><use xlink:href="#G" x="301.743" y="234.419" fill="#505050"/><use xlink:href="#G" x="303.963" y="234.419" fill="#505050"/><use xlink:href="#M" x="303.292" y="196.113" fill="#505050"/><use xlink:href="#w" x="304.792" y="196.113" fill="#505050"/><use xlink:href="#K" x="307.192" y="196.113" fill="#505050"/><path d="M326.32 203.281v6.117m0 8.282v-6.121" fill="none" stroke-width=".24" stroke-linecap="round" stroke-linejoin="round" stroke="#505050" stroke-miterlimit="10"/><path d="M260.738 228.48v-7.199" fill="none" stroke-width=".72" stroke-linecap="round" stroke-linejoin="round" stroke="#505050" stroke-miterlimit="10"/><path d="M268.48 222.121l.54.84.359.96.121.958" fill="none" stroke-width=".48" stroke-linecap="round" stroke-linejoin="round" stroke="#505050" stroke-miterlimit="10"/><path d="M269.5 224.879l-.059.781-.242.781-.3.66-.477.66m-7.562-2.882l.062-.777.238-.723.3-.66.419-.66" fill="none" stroke-width=".48" stroke-linecap="round" stroke-linejoin="round" stroke="#505050" stroke-miterlimit="10"/><path d="M261.879 227.64l-.54-.84-.359-.902-.12-1.02m4.32-1.8l.539.121.543.242.36.418.3.48.058.54m-1.8-2.879l.718.121.723.3.598.419.48.601.242.72.118.718m-2.879 1.801l-.54-.059-.538-.3-.364-.36-.297-.54-.062-.542m1.801 2.883l-.72-.121-.722-.243-.597-.476-.48-.602-.24-.66-.12-.781" fill="none" stroke-width=".48" stroke-linecap="round" stroke-linejoin="round" stroke="#505050" stroke-miterlimit="10"/><path d="M270.219 222.18l.422.84.238.902.062.957m0 0l-.12 1.082-.301 1.02-.418.898m-.481-21v7.2" fill="none" stroke-width=".72" stroke-linecap="round" stroke-linejoin="round" stroke="#505050" stroke-miterlimit="10"/><path d="M261.879 213.238l-.54-.777-.359-.961-.12-1.02m0 0l.062-.78.238-.72.3-.718.481-.602m7.559 2.82l-.059.782-.242.718-.3.72-.419.6m0-5.581l.54.84.359.96.121.961m-4.32 1.801l-.54-.062-.538-.239-.364-.421-.297-.48-.062-.599m1.801 2.88l-.72-.06-.722-.3-.597-.48-.48-.598-.24-.66-.12-.782m2.879-1.8l.539.12.543.24.36.42.3.481.058.54m-1.8-2.879l.718.117.723.3.598.422.48.598.242.723.118.718" fill="none" stroke-width=".48" stroke-linecap="round" stroke-linejoin="round" stroke="#505050" stroke-miterlimit="10"/><path d="M260.14 213.238l-.421-.898-.239-.899-.058-.96m0-.001l.117-1.02.3-1.019.423-.96m15.718-4.2v6.117m0 15.481v-6.117m0-37.024h6.122m15.418 0h-6.06m-22.679 0v6.121m0 15.422v-6.062m14.399 6.062v6.117m0 15.481v-6.117m35.941-1.082v6.12m0 15.481v-6.12m-57.543 6.12h2.524m11.878 0h-2.52" fill="none" stroke-width=".72" stroke-linecap="round" stroke-linejoin="round" stroke="#505050" stroke-miterlimit="10"/><path d="M311.922 232.078h-6.063m-8.339 0h6.12" fill="none" stroke-width=".24" stroke-linecap="round" stroke-linejoin="round" stroke="#505050" stroke-miterlimit="10"/><path d="M328.121 213l-.121.602-.238.476-.364.422-.539.238-.539.063m1.801-6.841V213m-1.801-6.84l.54.121.538.239.364.421.238.48.121.54m-3.601-.001l.058-.538.3-.48.36-.422.543-.239.54-.12M324.52 213v-5.04m1.8 6.84l-.539-.062-.543-.238-.36-.422-.3-.476-.058-.602" fill="none" stroke-width=".36" stroke-linecap="round" stroke-linejoin="round" stroke="#505050" stroke-miterlimit="10"/><path d="M327.762 210.84h-2.883v.719h2.883zm0-1.442h-2.883v.723h2.883zm0 0" fill="#505050" stroke-width=".12" stroke-linecap="round" stroke-linejoin="round" stroke="#505050" stroke-miterlimit="10"/><path d="M328.121 213l-.121.602-.238.476-.364.422-.539.238-.539.063m-14.398-33.063v1.801" fill="none" stroke-width=".36" stroke-linecap="round" stroke-linejoin="round" stroke="#505050" stroke-miterlimit="10"/><path d="M313.719 191.102l-.059.418-.18.421-.359.297-.36.184-.48.117m-.722.001l-.418-.118-.422-.184-.297-.297-.242-.421-.059-.418m0-4.321l.059-.48.242-.36.297-.363.422-.18.418-.058m.722 0l.48.058.36.18.36.363.18.36.058.48m-2.16 5.759h.722m1.438-5.759v4.32m-3.598-4.32v4.32m1.438-5.761h.722" fill="none" stroke-width=".3" stroke-linecap="round" stroke-linejoin="round" stroke="#505050" stroke-miterlimit="10"/><path d="M311.922 189.84v-.719M313 187.14h-2.16m0 0l1.082 1.981m0 0v-2.7m0 2.7l1.078-1.98m0 1.98h-1.078m0 0h-1.082" fill="none" stroke-width=".24" stroke-linecap="round" stroke-linejoin="round" stroke="#505050" stroke-miterlimit="10"/><path d="M313.719 190.559h-3.598v.722h3.598zm0 0" fill="#505050" stroke-width=".12" stroke-linecap="round" stroke-linejoin="round" stroke="#505050" stroke-miterlimit="10"/><path d="M311.922 196.14v-1.8" fill="none" stroke-width=".36" stroke-linecap="round" stroke-linejoin="round" stroke="#505050" stroke-miterlimit="10"/><path d="M312.219 192.66h-.598v1.559h.598zm0-9.058h-.598v1.558h.598zm0 0" fill="#505050" stroke-width=".12" stroke-linecap="round" stroke-linejoin="round" stroke="#505050" stroke-miterlimit="10"/><path d="M326.32 196.14v-1.8" fill="none" stroke-width=".36" stroke-linecap="round" stroke-linejoin="round" stroke="#505050" stroke-miterlimit="10"/><path d="M324.52 186.781l.058-.48.242-.36.301-.363.418-.18.422-.058m.719 0l.422.058.418.18.3.363.239.36.062.48m0 4.321l-.062.418-.239.421-.3.297-.418.184-.422.117m-.72.001l-.42-.118-.419-.184-.3-.297-.243-.421-.058-.418m2.16-5.762h-.72m-1.44 5.762v-4.32m3.601 4.32v-4.32m-1.441 5.758h-.72" fill="none" stroke-width=".3" stroke-linecap="round" stroke-linejoin="round" stroke="#505050" stroke-miterlimit="10"/><path d="M326.32 188.04v.722m-1.082 1.976h2.16m0 0l-1.078-1.976m0 0v2.699m0-2.699l-1.082 1.976m0-1.976h1.082m0 0h1.078" fill="none" stroke-width=".24" stroke-linecap="round" stroke-linejoin="round" stroke="#505050" stroke-miterlimit="10"/><path d="M328.121 186.602h-3.601v.718h3.601zm0 0" fill="#505050" stroke-width=".12" stroke-linecap="round" stroke-linejoin="round" stroke="#505050" stroke-miterlimit="10"/><path d="M326.32 181.738v1.801" fill="none" stroke-width=".36" stroke-linecap="round" stroke-linejoin="round" stroke="#505050" stroke-miterlimit="10"/><path d="M326.621 183.602h-.601v1.558h.601zm0 9.058h-.601v1.559h.601zm0 0" fill="#505050" stroke-width=".12" stroke-linecap="round" stroke-linejoin="round" stroke="#505050" stroke-miterlimit="10"/><path d="M261.64 222.36l.54-.598.66-.48.719-.423.78-.18.84-.12m.001 0l1.02.12.902.36.84.54.718.722m-3.48 6.899l-.961-.122-.957-.297-.782-.543-.718-.718m6.84 0l-.723.718-.777.543-.961.297-.961.121" fill="none" stroke-width=".48" stroke-linecap="round" stroke-linejoin="round" stroke="#505050" stroke-miterlimit="10"/><path d="M260.738 221.219l.723-.719.84-.602.898-.418.961-.242 1.02-.117m0 0l1.02.117 1.019.242.902.48.84.599.719.78.601.84m-5.101 8.461l-1.02-.062-.96-.297-.9-.422-.78-.539-.72-.718m9.36-.84l-.539.84-.723.66-.84.597-.898.422-.96.297-1.02.063" fill="none" stroke-width=".72" stroke-linecap="round" stroke-linejoin="round" stroke="#505050" stroke-miterlimit="10"/><path d="M268.719 213l-.54.602-.66.539-.718.359-.781.238-.84.063m0-.001l-1.02-.12-.898-.301-.84-.54-.723-.718m3.481-6.961l.96.121.962.36.777.539.723.66m-6.84 0l.718-.66.782-.54.957-.359.96-.12" fill="none" stroke-width=".48" stroke-linecap="round" stroke-linejoin="round" stroke="#505050" stroke-miterlimit="10"/><path d="M269.621 214.2l-.723.722-.84.539-.898.418-.96.3-1.02.06m0-.001l-1.02-.058-1.02-.301-.902-.418-.84-.66-.718-.723-.602-.898m5.102-8.461l1.02.12.96.24.899.421.78.602.72.66m-9.359.898l.538-.84.723-.718.84-.602.898-.422.961-.238 1.02-.121" fill="none" stroke-width=".72" stroke-linecap="round" stroke-linejoin="round" stroke="#505050" stroke-miterlimit="10"/><path d="M277.781 216.96l-.062.302-.18.238-.238.121-.242.059m-2.161 0l-.296-.059-.243-.121-.12-.238-.06-.301m.001-5.761l.058-.24.121-.241.243-.18.296-.059m2.161 0l.242.06.238.179.18.242.062.238" fill="none" stroke-width=".48" stroke-linecap="round" stroke-linejoin="round" stroke="#505050" stroke-miterlimit="10"/><path d="M277.781 216.96l-.062.302-.18.238-.238.121-.242.059m-2.161 0l-.296-.059-.243-.121-.12-.238-.06-.301m.001-5.761l.058-.24.121-.241.243-.18.296-.059m2.161 0l.242.06.238.179.18.242.062.238m-2.883 6.481h2.16m.723-6.48v5.76m-3.601-5.76v5.76m.718-6.48h2.16" fill="none" stroke-width=".48" stroke-linecap="round" stroke-linejoin="round" stroke="#505050" stroke-miterlimit="10"/><path d="M276.34 209.398h-.719v1.082h.719zm0 8.282h-.719v1.082h.719zm0 0" fill="#505050" stroke-width=".12" stroke-linecap="round" stroke-linejoin="round" stroke="#505050" stroke-miterlimit="10"/><path d="M289.66 179.941l.238.059.243.121.18.238.058.301m0 2.16l-.059.239-.18.242-.242.18-.238.058m-5.762.001l-.296-.06-.243-.18-.12-.241-.06-.239m.001-2.16l.058-.3.121-.239.243-.121.296-.059" fill="none" stroke-width=".48" stroke-linecap="round" stroke-linejoin="round" stroke="#505050" stroke-miterlimit="10"/><path d="M289.66 179.941l.238.059.243.121.18.238.058.301m0 2.16l-.059.239-.18.242-.242.18-.238.058m-5.762.001l-.296-.06-.243-.18-.12-.241-.06-.239m.001-2.16l.058-.3.121-.239.243-.121.296-.059m6.481 2.879v-2.16m-6.481-.719h5.762m-5.762 3.599h5.762m-6.48-.72v-2.16" fill="none" stroke-width=".48" stroke-linecap="round" stroke-linejoin="round" stroke="#505050" stroke-miterlimit="10"/><path d="M283.18 181.379h-1.078v.723h1.078zm8.28 0h-1.081v.723h1.082zm0 0" fill="#505050" stroke-width=".12" stroke-linecap="round" stroke-linejoin="round" stroke="#505050" stroke-miterlimit="10"/><path d="M263.14 167.64h25.68M263.14 162h3.06m-3.06 5.64V162m3.06 0v5.398m-3.06 2.34h25.68" fill="none" stroke-width=".6" stroke-linecap="round" stroke-linejoin="round" stroke="#505050" stroke-miterlimit="10"/><g clip-path="url(#N)"><path d="M273.16 156.422v-9.902" fill="none" stroke-width=".6" stroke-linecap="round" stroke-linejoin="round" stroke="#505050" stroke-miterlimit="10"/></g><g clip-path="url(#O)"><path d="M278.8 146.52v9.902" fill="none" stroke-width=".6" stroke-linecap="round" stroke-linejoin="round" stroke="#505050" stroke-miterlimit="10"/></g><path d="M271.719 167.398V157.32m0 0l1.441-.898m5.64 0l1.38.898m0 0v10.078m-7.02-10.976h5.64" fill="none" stroke-width=".6" stroke-linecap="round" stroke-linejoin="round" stroke="#505050" stroke-miterlimit="10"/><g clip-path="url(#P)"><path d="M273.16 146.52h5.64" fill="none" stroke-width=".6" stroke-linecap="round" stroke-linejoin="round" stroke="#505050" stroke-miterlimit="10"/></g><path d="M263.14 167.64v11.16m25.68-11.16v11.16m-16.8-20.581l7.921 1.5m-7.921-.059l7.921 1.5m-7.921-.058l7.921 1.437m-7.921-.059l7.921 1.5m-7.921-.058l7.921 1.437m-7.921-.059l7.921 1.5m-7.261-9.84l7.261 1.438M263.14 178.8h25.68" fill="none" stroke-width=".6" stroke-linecap="round" stroke-linejoin="round" stroke="#505050" stroke-miterlimit="10"/><path d="M270.578 195.422l-.058.238-.18.238-.18.18-.3.063m-2.16-.001l-.302-.062-.238-.18-.12-.238-.06-.238m0-5.762l.06-.3.12-.239.238-.121.301-.059m2.161 0l.3.059.18.121.18.238.058.301" fill="none" stroke-width=".48" stroke-linecap="round" stroke-linejoin="round" stroke="#505050" stroke-miterlimit="10"/><path d="M270.578 195.422l-.058.238-.18.238-.18.18-.3.063m-2.16-.001l-.302-.062-.238-.18-.12-.238-.06-.238m0-5.762l.06-.3.12-.239.238-.121.301-.059m2.161 0l.3.059.18.121.18.238.058.301m-2.878 6.48h2.16m.718-6.48v5.762m-3.598-5.762v5.762m.72-6.481h2.16" fill="none" stroke-width=".48" stroke-linecap="round" stroke-linejoin="round" stroke="#505050" stroke-miterlimit="10"/><path d="M269.14 187.86h-.718v1.081h.719zm0 8.28h-.718v1.079h.719zm0 0" fill="#505050" stroke-width=".12" stroke-linecap="round" stroke-linejoin="round" stroke="#505050" stroke-miterlimit="10"/><path d="M306.281 167.64h25.68m-25.68-5.64h3.117m-3.117 5.64V162m3.117 0v5.398m-3.117 2.34h25.68" fill="none" stroke-width=".6" stroke-linecap="round" stroke-linejoin="round" stroke="#505050" stroke-miterlimit="10"/><g clip-path="url(#Q)"><path d="M316.3 156.422v-9.902" fill="none" stroke-width=".6" stroke-linecap="round" stroke-linejoin="round" stroke="#505050" stroke-miterlimit="10"/></g><g clip-path="url(#R)"><path d="M321.941 146.52v9.902" fill="none" stroke-width=".6" stroke-linecap="round" stroke-linejoin="round" stroke="#505050" stroke-miterlimit="10"/></g><path d="M314.86 167.398V157.32m0 0l1.44-.898m5.641 0l1.438.898m0 0v10.078m-7.079-10.976h5.641" fill="none" stroke-width=".6" stroke-linecap="round" stroke-linejoin="round" stroke="#505050" stroke-miterlimit="10"/><g clip-path="url(#S)"><path d="M316.3 146.52h5.641" fill="none" stroke-width=".6" stroke-linecap="round" stroke-linejoin="round" stroke="#505050" stroke-miterlimit="10"/></g><path d="M306.281 167.64v11.16m25.679-11.16v11.16m-16.8-20.581l7.918 1.5m-7.918-.059l7.918 1.5m-7.918-.058l7.918 1.437m-7.918-.059l7.918 1.5m-7.918-.058l7.918 1.437m-7.918-.059l7.918 1.5m-7.258-9.84l7.258 1.438M306.281 178.8h25.68" fill="none" stroke-width=".6" stroke-linecap="round" stroke-linejoin="round" stroke="#505050" stroke-miterlimit="10"/><path d="M284.98 216.96l-.058.302-.184.238-.238.121-.238.059m-2.16 0l-.301-.059-.242-.121-.118-.238-.062-.301m0-5.761l.062-.24.118-.241.242-.18.3-.059m2.161 0l.238.06.238.179.184.242.058.238" fill="none" stroke-width=".48" stroke-linecap="round" stroke-linejoin="round" stroke="#505050" stroke-miterlimit="10"/><path d="M284.98 216.96l-.058.302-.184.238-.238.121-.238.059m-2.16 0l-.301-.059-.242-.121-.118-.238-.062-.301m0-5.761l.062-.24.118-.241.242-.18.3-.059m2.161 0l.238.06.238.179.184.242.058.238m-2.878 6.481h2.16m.718-6.48v5.76m-3.601-5.76v5.76m.723-6.48h2.16" fill="none" stroke-width=".48" stroke-linecap="round" stroke-linejoin="round" stroke="#505050" stroke-miterlimit="10"/><path d="M283.54 209.398h-.72v1.082h.72zm0 8.282h-.72v1.082h.72zm0 0" fill="#505050" stroke-width=".12" stroke-linecap="round" stroke-linejoin="round" stroke="#505050" stroke-miterlimit="10"/><path d="M320.922 231.36l-.063.3-.18.238-.179.122-.3.058m-2.16 0l-.302-.058-.18-.122-.18-.238-.058-.3m0-5.758l.059-.243.18-.238.18-.18.3-.062m2.161 0l.3.062.18.18.18.238.062.243" fill="none" stroke-width=".48" stroke-linecap="round" stroke-linejoin="round" stroke="#505050" stroke-miterlimit="10"/><path d="M320.922 231.36l-.063.3-.18.238-.179.122-.3.058m-2.16 0l-.302-.058-.18-.122-.18-.238-.058-.3m0-5.758l.059-.243.18-.238.18-.18.3-.062m2.161 0l.3.062.18.18.18.238.062.243m-2.882 6.476h2.16m.722-6.476v5.757m-3.602-5.757v5.757m.72-6.48h2.16" fill="none" stroke-width=".48" stroke-linecap="round" stroke-linejoin="round" stroke="#505050" stroke-miterlimit="10"/><path d="M319.48 223.8h-.718v1.079h.718zm0 8.278h-.718v1.082h.718zm0 0" fill="#505050" stroke-width=".12" stroke-linecap="round" stroke-linejoin="round" stroke="#505050" stroke-miterlimit="10"/><path d="M272.379 240.36l-.059.242-.18.238-.242.18-.238.058m-5.762 0l-.296-.058-.18-.18-.184-.238-.058-.243m6.48-2.879l.238.06.243.12.18.238.058.301m-7.199.001l.058-.302.184-.238.18-.12.296-.06m6.481 2.88v-2.16m-6.481-.72h5.762m-5.762 3.598h5.762m-6.48-.718v-2.16" fill="none" stroke-width=".36" stroke-linecap="round" stroke-linejoin="round" stroke="#505050" stroke-miterlimit="10"/><path d="M265.18 238.922h-1.078v.719h1.078zm8.28 0h-1.081v.719h1.082zm0 0" fill="#505050" stroke-width=".12" stroke-linecap="round" stroke-linejoin="round" stroke="#505050" stroke-miterlimit="10"/><path d="M270.46 241.559v1.62m-.538.001H271m.54-1.621v1.62m0 .001h.78m0 0l.301-.301m0 0v-.54m0 .001l-.3-.238m-.001 0h-.78m.538 0l.543-.543m.481 0h.539m-.243 0v1.62m-.296.001h.539m.539-1.86h1.082m1.316 1.86h-.539m.001 0l-.24-.301m0 0v-1.02m0 .001l.24-.301m0 0h.538m0 0l.242.3m0 .001v1.019m0 0l-.242.3m.782.001v-1.32m0 0l.242-.301m0 0h.539m-.001 0l.301.3m0 .001v1.32m1.019-1.621v1.62m-.48.001H280m.54-.84h1.081m-.543.539v-1.02m29.582 1.02l-.238.3m0 .001h-.543m0 0l-.238-.301m-.001 0v-1.02m0 .001l.239-.301m0 0h.543m0 0l.238.3m0 .001v.48m0 0h-.539m1.079-.781v1.62m0 .001l1.081-1.621m0 0v1.62m.539.001v-1.621m0 0h.782m0 0l.238.3m0 .001v1.019m0 0l-.238.3m0 .001h-.782m-17.582-.84h1.024m-.481.539v-1.02m2.098 1.321H296.8m0 0v-.84m0 0l.54.3m0 0h.3m0 0l.239-.3m0 0v-.48m0 0l-.238-.301m-.001 0h-.538m0 0l-.301.3m1.621 1.321v-1.078m0 0l.539-.543m-.001 0l.481.543m0 0v1.078" fill="none" stroke-width=".18" stroke-linecap="round" stroke-linejoin="round" stroke="#505050" stroke-miterlimit="10"/><path d="M302.2 233.879l-.54-.059-.48-.3-.418-.36-.242-.539-.122-.543m6.84 1.801H302.2m6.84-1.801l-.06.543-.3.54-.36.359-.48.3-.602.059m0-3.598l.602.117.48.243.36.359.3.54.06.538m-6.84-1.797h5.038m-6.84 1.797l.122-.539.242-.539.418-.36.48-.242.54-.117" fill="none" stroke-width=".36" stroke-linecap="round" stroke-linejoin="round" stroke="#505050" stroke-miterlimit="10"/><path d="M304.36 230.64h-.72v2.88h.72zm1.44 0h-.722v2.88h.723zm0 0" fill="#505050" stroke-width=".12" stroke-linecap="round" stroke-linejoin="round" stroke="#505050" stroke-miterlimit="10"/><path d="M302.2 233.879l-.54-.059-.48-.3-.418-.36-.242-.539-.122-.543" fill="none" stroke-width=".36" stroke-linecap="round" stroke-linejoin="round" stroke="#505050" stroke-miterlimit="10"/><path d="M292.898 228.48v-28.742m16.5 0v28.742m-16.5 0h16.5m-16.5-28.742h5.34m11.16 0H304m0 0l-.121.782-.3.718-.54.66-.719.422-.78.239h-.778l-.84-.239-.66-.422-.543-.66-.36-.718-.12-.782" fill="none" stroke-width=".48" stroke-linecap="round" stroke-linejoin="round" stroke="#505050" stroke-miterlimit="10"/><path d="M290.379 232.078H268.78m50.341-35.938v14.34m-14.402 28.801h-21.54" fill="none" stroke-width="2.34" stroke-linecap="round" stroke-linejoin="round" stroke="maroon" stroke-miterlimit="10"/><path d="M324.398 203.281a1.862 1.862 0 0 1 3.723 0 1.861 1.861 0 0 1-3.723 0" fill-rule="evenodd" fill="green"/><path d="M324.398 203.281a1.862 1.862 0 0 1 3.723 0 1.861 1.861 0 0 1-3.723 0zm0 0" fill="none" stroke-width=".12" stroke-linecap="round" stroke-linejoin="round" stroke="green" stroke-miterlimit="10"/><path d="M325.121 203.281c0-.633.508-1.14 1.14-1.14.63 0 1.137.507 1.137 1.14a1.139 1.139 0 1 1-2.277 0" fill-rule="evenodd" fill="#fff"/><path d="M325.121 203.281c0-.633.508-1.14 1.14-1.14.63 0 1.137.507 1.137 1.14a1.139 1.139 0 1 1-2.277 0zm0 0" fill="none" stroke-width=".06" stroke-linecap="square" stroke-linejoin="bevel" stroke="#000" stroke-miterlimit="10"/><path d="M324.398 217.68a1.862 1.862 0 0 1 3.723 0 1.861 1.861 0 0 1-3.723 0" fill-rule="evenodd" fill="green"/><path d="M324.398 217.68a1.862 1.862 0 0 1 3.723 0 1.861 1.861 0 0 1-3.723 0zm0 0" fill="none" stroke-width=".12" stroke-linecap="round" stroke-linejoin="round" stroke="green" stroke-miterlimit="10"/><path d="M325.121 217.68a1.14 1.14 0 1 1 2.279-.003 1.14 1.14 0 0 1-2.279.003" fill-rule="evenodd" fill="#fff"/><path d="M325.121 217.68a1.14 1.14 0 1 1 2.279-.003 1.14 1.14 0 0 1-2.279.003zm0 0" fill="none" stroke-width=".06" stroke-linecap="square" stroke-linejoin="bevel" stroke="#000" stroke-miterlimit="10"/><path d="M310 196.14a1.859 1.859 0 1 1 3.718 0 1.859 1.859 0 0 1-3.718 0" fill-rule="evenodd" fill="green"/><path d="M310 196.14a1.859 1.859 0 1 1 3.718 0 1.859 1.859 0 0 1-3.718 0zm0 0" fill="none" stroke-width=".12" stroke-linecap="round" stroke-linejoin="round" stroke="green" stroke-miterlimit="10"/><path d="M310.719 196.14a1.141 1.141 0 0 1 2.281 0 1.142 1.142 0 0 1-2.281.001" fill-rule="evenodd" fill="#fff"/><path d="M310.719 196.14a1.141 1.141 0 0 1 2.281 0 1.142 1.142 0 0 1-2.281.001zm0 0" fill="none" stroke-width=".06" stroke-linecap="square" stroke-linejoin="bevel" stroke="#000" stroke-miterlimit="10"/><path d="M310 181.738c0-1.023.832-1.86 1.86-1.86a1.861 1.861 0 0 1 0 3.724 1.862 1.862 0 0 1-1.86-1.864" fill-rule="evenodd" fill="green"/><path d="M310 181.738c0-1.023.832-1.86 1.86-1.86a1.861 1.861 0 0 1 0 3.724 1.862 1.862 0 0 1-1.86-1.864zm0 0" fill="none" stroke-width=".12" stroke-linecap="round" stroke-linejoin="round" stroke="green" stroke-miterlimit="10"/><path d="M310.719 181.738c0-.629.511-1.136 1.14-1.136a1.139 1.139 0 1 1 0 2.277 1.14 1.14 0 0 1-1.14-1.14" fill-rule="evenodd" fill="#fff"/><path d="M310.719 181.738c0-.629.511-1.136 1.14-1.136a1.139 1.139 0 1 1 0 2.277 1.14 1.14 0 0 1-1.14-1.14zm0 0" fill="none" stroke-width=".06" stroke-linecap="square" stroke-linejoin="bevel" stroke="#000" stroke-miterlimit="10"/><path d="M324.398 181.738c0-1.023.836-1.86 1.864-1.86 1.023 0 1.86.837 1.86 1.86a1.865 1.865 0 0 1-1.86 1.864 1.865 1.865 0 0 1-1.864-1.864" fill-rule="evenodd" fill="green"/><path d="M324.398 181.738c0-1.023.836-1.86 1.864-1.86 1.023 0 1.86.837 1.86 1.86a1.865 1.865 0 0 1-1.86 1.864 1.865 1.865 0 0 1-1.864-1.864zm0 0" fill="none" stroke-width=".12" stroke-linecap="round" stroke-linejoin="round" stroke="green" stroke-miterlimit="10"/><path d="M325.121 181.738c0-.629.508-1.136 1.14-1.136.63 0 1.137.507 1.137 1.136 0 .633-.507 1.14-1.136 1.14-.633 0-1.14-.507-1.14-1.14" fill-rule="evenodd" fill="#fff"/><path d="M325.121 181.738c0-.629.508-1.136 1.14-1.136.63 0 1.137.507 1.137 1.136 0 .633-.507 1.14-1.136 1.14-.633 0-1.14-.507-1.14-1.14zm0 0" fill="none" stroke-width=".06" stroke-linecap="square" stroke-linejoin="bevel" stroke="#000" stroke-miterlimit="10"/><path d="M324.398 196.14a1.862 1.862 0 0 1 3.723 0 1.861 1.861 0 0 1-3.723 0" fill-rule="evenodd" fill="green"/><path d="M324.398 196.14a1.862 1.862 0 0 1 3.723 0 1.861 1.861 0 0 1-3.723 0zm0 0" fill="none" stroke-width=".12" stroke-linecap="round" stroke-linejoin="round" stroke="green" stroke-miterlimit="10"/><path d="M325.121 196.14a1.14 1.14 0 1 1 2.279-.002 1.14 1.14 0 0 1-2.279.003" fill-rule="evenodd" fill="#fff"/><path d="M325.121 196.14a1.14 1.14 0 1 1 2.279-.002 1.14 1.14 0 0 1-2.279.003zm0 0" fill="none" stroke-width=".06" stroke-linecap="square" stroke-linejoin="bevel" stroke="#000" stroke-miterlimit="10"/><path d="M270.64 224.102l-1.081-1.082H268l-1.078 1.082v1.558l1.078 1.078h1.559l1.082-1.078v-1.558" fill="green"/><path d="M270.64 224.102l-1.081-1.082H268l-1.078 1.082v1.558l1.078 1.078h1.559l1.082-1.078zm0 0" fill="none" stroke-width=".12" stroke-linecap="round" stroke-linejoin="round" stroke="green" stroke-miterlimit="10"/><path d="M267.578 224.879a1.14 1.14 0 1 1 2.281 0c0 .633-.507 1.14-1.14 1.14a1.14 1.14 0 0 1-1.14-1.14" fill-rule="evenodd" fill="#fff"/><path d="M267.578 224.879a1.14 1.14 0 1 1 2.281 0c0 .633-.507 1.14-1.14 1.14a1.14 1.14 0 0 1-1.14-1.14zm0 0" fill="none" stroke-width=".06" stroke-linecap="square" stroke-linejoin="bevel" stroke="#000" stroke-miterlimit="10"/><path d="M263.441 224.102l-1.082-1.082h-1.558l-1.082 1.082v1.558l1.082 1.078h1.558l1.082-1.078v-1.558" fill="green"/><path d="M263.441 224.102l-1.082-1.082h-1.558l-1.082 1.082v1.558l1.082 1.078h1.558l1.082-1.078zm0 0" fill="none" stroke-width=".12" stroke-linecap="round" stroke-linejoin="round" stroke="green" stroke-miterlimit="10"/><path d="M260.379 224.879c0-.629.512-1.14 1.14-1.14a1.14 1.14 0 1 1-1.14 1.14" fill-rule="evenodd" fill="#fff"/><path d="M260.379 224.879c0-.629.512-1.14 1.14-1.14a1.14 1.14 0 1 1-1.14 1.14zm0 0" fill="none" stroke-width=".06" stroke-linecap="square" stroke-linejoin="bevel" stroke="#000" stroke-miterlimit="10"/><path d="M263.441 209.7l-1.082-1.079h-1.558l-1.082 1.078v1.563l1.082 1.078h1.558l1.082-1.078v-1.563" fill="green"/><path d="M263.441 209.7l-1.082-1.079h-1.558l-1.082 1.078v1.563l1.082 1.078h1.558l1.082-1.078zm0 0" fill="none" stroke-width=".12" stroke-linecap="round" stroke-linejoin="round" stroke="green" stroke-miterlimit="10"/><path d="M260.379 210.48a1.142 1.142 0 1 1 1.141 1.141c-.63 0-1.141-.512-1.141-1.14" fill-rule="evenodd" fill="#fff"/><path d="M260.379 210.48a1.142 1.142 0 1 1 1.141 1.141c-.63 0-1.141-.512-1.141-1.14zm0 0" fill="none" stroke-width=".06" stroke-linecap="square" stroke-linejoin="bevel" stroke="#000" stroke-miterlimit="10"/><path d="M270.64 209.7l-1.081-1.079H268l-1.078 1.078v1.563L268 212.34h1.559l1.082-1.078v-1.563" fill="green"/><path d="M270.64 209.7l-1.081-1.079H268l-1.078 1.078v1.563L268 212.34h1.559l1.082-1.078zm0 0" fill="none" stroke-width=".12" stroke-linecap="round" stroke-linejoin="round" stroke="green" stroke-miterlimit="10"/><path d="M267.578 210.48a1.14 1.14 0 1 1 1.14 1.14 1.14 1.14 0 0 1-1.14-1.14" fill-rule="evenodd" fill="#fff"/><path d="M267.578 210.48a1.14 1.14 0 1 1 1.14 1.14 1.14 1.14 0 0 1-1.14-1.14zm0 0" fill="none" stroke-width=".06" stroke-linecap="square" stroke-linejoin="bevel" stroke="#000" stroke-miterlimit="10"/><path d="M274.18 224.879a1.74 1.74 0 1 1 3.48.004 1.74 1.74 0 0 1-3.48-.004" fill-rule="evenodd" fill="green"/><path d="M274.18 224.879a1.74 1.74 0 1 1 3.48.004 1.74 1.74 0 0 1-3.48-.004zm0 0" fill="none" stroke-width=".12" stroke-linecap="round" stroke-linejoin="round" stroke="green" stroke-miterlimit="10"/><path d="M274.898 224.879a1.021 1.021 0 0 1 2.043 0 1.021 1.021 0 1 1-2.043 0" fill-rule="evenodd" fill="#fff"/><path d="M274.898 224.879a1.021 1.021 0 0 1 2.043 0 1.021 1.021 0 1 1-2.043 0zm0 0" fill="none" stroke-width=".06" stroke-linecap="square" stroke-linejoin="bevel" stroke="#000" stroke-miterlimit="10"/><path d="M274.18 203.281zm0 0" fill="none" stroke-width=".12" stroke-linecap="round" stroke-linejoin="round" stroke="green" stroke-miterlimit="10"/><path d="M274.898 203.281a1.021 1.021 0 0 1 2.043 0 1.021 1.021 0 1 1-2.043 0" fill-rule="evenodd" fill="#fff"/><path d="M274.898 203.281a1.021 1.021 0 0 1 2.043 0 1.021 1.021 0 1 1-2.043 0zm0 0" fill="none" stroke-width=".06" stroke-linecap="square" stroke-linejoin="bevel" stroke="#000" stroke-miterlimit="10"/><path d="M295.719 181.738a1.74 1.74 0 1 1 3.48.005 1.74 1.74 0 0 1-3.48-.005" fill-rule="evenodd" fill="green"/><path d="M295.719 181.738a1.74 1.74 0 1 1 3.48.005 1.74 1.74 0 0 1-3.48-.005zm0 0" fill="none" stroke-width=".12" stroke-linecap="round" stroke-linejoin="round" stroke="green" stroke-miterlimit="10"/><path d="M296.441 181.738a1.02 1.02 0 1 1 1.02 1.024c-.563 0-1.02-.457-1.02-1.024" fill-rule="evenodd" fill="#fff"/><path d="M296.441 181.738a1.02 1.02 0 1 1 1.02 1.024c-.563 0-1.02-.457-1.02-1.024zm0 0" fill="none" stroke-width=".06" stroke-linecap="square" stroke-linejoin="bevel" stroke="#000" stroke-miterlimit="10"/><path d="M274.18 181.738a1.74 1.74 0 1 1 3.48.005 1.74 1.74 0 0 1-3.48-.005" fill-rule="evenodd" fill="green"/><path d="M274.18 181.738a1.74 1.74 0 1 1 3.48.005 1.74 1.74 0 0 1-3.48-.005zm0 0" fill="none" stroke-width=".12" stroke-linecap="round" stroke-linejoin="round" stroke="green" stroke-miterlimit="10"/><path d="M274.898 181.738a1.021 1.021 0 1 1 2.043.003 1.021 1.021 0 0 1-2.043-.003" fill-rule="evenodd" fill="#fff"/><path d="M274.898 181.738a1.021 1.021 0 1 1 2.043.003 1.021 1.021 0 0 1-2.043-.003zm0 0" fill="none" stroke-width=".06" stroke-linecap="square" stroke-linejoin="bevel" stroke="#000" stroke-miterlimit="10"/><path d="M265.96 174.54a2.76 2.76 0 0 1 5.52 0 2.764 2.764 0 0 1-2.761 2.76 2.76 2.76 0 0 1-2.758-2.76" fill-rule="evenodd" fill="green"/><path d="M265.96 174.54a2.76 2.76 0 0 1 5.52 0 2.764 2.764 0 0 1-2.761 2.76 2.76 2.76 0 0 1-2.758-2.76zm0 0" fill="none" stroke-width=".12" stroke-linecap="round" stroke-linejoin="round" stroke="green" stroke-miterlimit="10"/><path d="M267.281 174.54a1.439 1.439 0 1 1 2.878.001 1.439 1.439 0 0 1-2.878-.002" fill-rule="evenodd" fill="#fff"/><path d="M267.281 174.54a1.439 1.439 0 1 1 2.878.001 1.439 1.439 0 0 1-2.878-.002zm0 0" fill="none" stroke-width=".06" stroke-linecap="square" stroke-linejoin="bevel" stroke="#000" stroke-miterlimit="10"/><path d="M273.16 174.54a2.758 2.758 0 0 1 2.762-2.759 2.76 2.76 0 1 1-2.762 2.758" fill-rule="evenodd" fill="green"/><path d="M273.16 174.54a2.758 2.758 0 0 1 2.762-2.759 2.76 2.76 0 1 1-2.762 2.758zm0 0" fill="none" stroke-width=".12" stroke-linecap="round" stroke-linejoin="round" stroke="green" stroke-miterlimit="10"/><path d="M274.48 174.54a1.44 1.44 0 1 1 2.88.003 1.44 1.44 0 0 1-2.88-.004" fill-rule="evenodd" fill="#fff"/><path d="M274.48 174.54a1.44 1.44 0 1 1 2.88.003 1.44 1.44 0 0 1-2.88-.004zm0 0" fill="none" stroke-width=".06" stroke-linecap="square" stroke-linejoin="bevel" stroke="#000" stroke-miterlimit="10"/><path d="M280.36 174.54a2.76 2.76 0 0 1 5.519 0 2.76 2.76 0 0 1-2.758 2.76 2.764 2.764 0 0 1-2.762-2.76" fill-rule="evenodd" fill="green"/><path d="M280.36 174.54a2.76 2.76 0 0 1 5.519 0 2.76 2.76 0 0 1-2.758 2.76 2.764 2.764 0 0 1-2.762-2.76zm0 0" fill="none" stroke-width=".12" stroke-linecap="round" stroke-linejoin="round" stroke="green" stroke-miterlimit="10"/><path d="M281.68 174.54a1.44 1.44 0 1 1 2.879.003 1.44 1.44 0 0 1-2.88-.004" fill-rule="evenodd" fill="#fff"/><path d="M281.68 174.54a1.44 1.44 0 1 1 2.879.003 1.44 1.44 0 0 1-2.88-.004zm0 0" fill="none" stroke-width=".06" stroke-linecap="square" stroke-linejoin="bevel" stroke="#000" stroke-miterlimit="10"/><path d="M266.98 203.281a1.74 1.74 0 1 1 3.481-.003 1.74 1.74 0 0 1-3.48.003" fill-rule="evenodd" fill="green"/><path d="M266.98 203.281a1.74 1.74 0 1 1 3.481-.003 1.74 1.74 0 0 1-3.48.003zm0 0" fill="none" stroke-width=".12" stroke-linecap="round" stroke-linejoin="round" stroke="green" stroke-miterlimit="10"/><path d="M267.7 203.281a1.02 1.02 0 1 1 2.04.002 1.02 1.02 0 0 1-2.04-.002" fill-rule="evenodd" fill="#fff"/><path d="M267.7 203.281a1.02 1.02 0 1 1 2.04.002 1.02 1.02 0 0 1-2.04-.002zm0 0" fill="none" stroke-width=".06" stroke-linecap="square" stroke-linejoin="bevel" stroke="#000" stroke-miterlimit="10"/><path d="M266.98 181.738a1.74 1.74 0 1 1 1.738 1.742 1.74 1.74 0 0 1-1.738-1.742" fill-rule="evenodd" fill="green"/><path d="M266.98 181.738a1.74 1.74 0 1 1 1.738 1.742 1.74 1.74 0 0 1-1.738-1.742zm0 0" fill="none" stroke-width=".12" stroke-linecap="round" stroke-linejoin="round" stroke="green" stroke-miterlimit="10"/><path d="M267.7 181.738a1.02 1.02 0 1 1 1.019 1.024c-.563 0-1.02-.457-1.02-1.024" fill-rule="evenodd" fill="#fff"/><path d="M267.7 181.738a1.02 1.02 0 1 1 1.019 1.024c-.563 0-1.02-.457-1.02-1.024zm0 0" fill="none" stroke-width=".06" stroke-linecap="square" stroke-linejoin="bevel" stroke="#000" stroke-miterlimit="10"/><path d="M309.102 174.54a2.76 2.76 0 0 1 5.52 0 2.764 2.764 0 0 1-2.763 2.76 2.76 2.76 0 0 1-2.757-2.76" fill-rule="evenodd" fill="green"/><path d="M309.102 174.54a2.76 2.76 0 0 1 5.52 0 2.764 2.764 0 0 1-2.763 2.76 2.76 2.76 0 0 1-2.757-2.76zm0 0" fill="none" stroke-width=".12" stroke-linecap="round" stroke-linejoin="round" stroke="green" stroke-miterlimit="10"/><path d="M310.422 174.54a1.439 1.439 0 1 1 2.877.001 1.439 1.439 0 0 1-2.877-.002" fill-rule="evenodd" fill="#fff"/><path d="M310.422 174.54a1.439 1.439 0 1 1 2.877.001 1.439 1.439 0 0 1-2.877-.002zm0 0" fill="none" stroke-width=".06" stroke-linecap="square" stroke-linejoin="bevel" stroke="#000" stroke-miterlimit="10"/><path d="M316.3 174.54a2.757 2.757 0 0 1 2.759-2.759 2.758 2.758 0 0 1 2.761 2.758 2.76 2.76 0 0 1-5.52 0" fill-rule="evenodd" fill="green"/><path d="M316.3 174.54a2.757 2.757 0 0 1 2.759-2.759 2.758 2.758 0 0 1 2.761 2.758 2.76 2.76 0 0 1-5.52 0zm0 0" fill="none" stroke-width=".12" stroke-linecap="round" stroke-linejoin="round" stroke="green" stroke-miterlimit="10"/><path d="M317.621 174.54a1.439 1.439 0 1 1 2.878.001 1.439 1.439 0 0 1-2.878-.002" fill-rule="evenodd" fill="#fff"/><path d="M317.621 174.54a1.439 1.439 0 1 1 2.878.001 1.439 1.439 0 0 1-2.878-.002zm0 0" fill="none" stroke-width=".06" stroke-linecap="square" stroke-linejoin="bevel" stroke="#000" stroke-miterlimit="10"/><path d="M323.5 174.54a2.758 2.758 0 0 1 2.762-2.759 2.76 2.76 0 1 1-2.762 2.758" fill-rule="evenodd" fill="green"/><path d="M323.5 174.54a2.758 2.758 0 0 1 2.762-2.759 2.76 2.76 0 1 1-2.762 2.758zm0 0" fill="none" stroke-width=".12" stroke-linecap="round" stroke-linejoin="round" stroke="green" stroke-miterlimit="10"/><path d="M324.82 174.54a1.44 1.44 0 1 1 2.88.003 1.44 1.44 0 0 1-2.88-.004" fill-rule="evenodd" fill="#fff"/><path d="M324.82 174.54a1.44 1.44 0 1 1 2.88.003 1.44 1.44 0 0 1-2.88-.004zm0 0" fill="none" stroke-width=".06" stroke-linecap="square" stroke-linejoin="bevel" stroke="#000" stroke-miterlimit="10"/><path d="M281.379 224.879a1.74 1.74 0 1 1 3.48.004 1.74 1.74 0 0 1-3.48-.004" fill-rule="evenodd" fill="green"/><path d="M281.379 224.879a1.74 1.74 0 1 1 3.48.004 1.74 1.74 0 0 1-3.48-.004zm0 0" fill="none" stroke-width=".12" stroke-linecap="round" stroke-linejoin="round" stroke="green" stroke-miterlimit="10"/><path d="M282.102 224.879a1.02 1.02 0 1 1 2.04.001 1.02 1.02 0 0 1-2.04-.001" fill-rule="evenodd" fill="#fff"/><path d="M282.102 224.879a1.02 1.02 0 1 1 2.04.001 1.02 1.02 0 0 1-2.04-.001zm0 0" fill="none" stroke-width=".06" stroke-linecap="square" stroke-linejoin="bevel" stroke="#000" stroke-miterlimit="10"/><path d="M281.379 203.281zm0 0" fill="none" stroke-width=".12" stroke-linecap="round" stroke-linejoin="round" stroke="green" stroke-miterlimit="10"/><path d="M282.102 203.281a1.02 1.02 0 1 1 2.04.002 1.02 1.02 0 0 1-2.04-.002" fill-rule="evenodd" fill="#fff"/><path d="M282.102 203.281a1.02 1.02 0 1 1 2.04.002 1.02 1.02 0 0 1-2.04-.002zm0 0" fill="none" stroke-width=".06" stroke-linecap="square" stroke-linejoin="bevel" stroke="#000" stroke-miterlimit="10"/><path d="M317.32 239.281a1.74 1.74 0 1 1 3.481-.003 1.74 1.74 0 0 1-3.48.003" fill-rule="evenodd" fill="green"/><path d="M317.32 239.281a1.74 1.74 0 1 1 3.481-.003 1.74 1.74 0 0 1-3.48.003zm0 0" fill="none" stroke-width=".12" stroke-linecap="round" stroke-linejoin="round" stroke="green" stroke-miterlimit="10"/><path d="M318.04 239.281a1.02 1.02 0 1 1 2.04.002 1.02 1.02 0 0 1-2.04-.002" fill-rule="evenodd" fill="#fff"/><path d="M318.04 239.281a1.02 1.02 0 1 1 2.04.002 1.02 1.02 0 0 1-2.04-.002zm0 0" fill="none" stroke-width=".06" stroke-linecap="square" stroke-linejoin="bevel" stroke="#000" stroke-miterlimit="10"/><path d="M317.32 217.68a1.74 1.74 0 1 1 1.738 1.742 1.74 1.74 0 0 1-1.738-1.742" fill-rule="evenodd" fill="green"/><path d="M317.32 217.68a1.74 1.74 0 1 1 1.738 1.742 1.74 1.74 0 0 1-1.738-1.742zm0 0" fill="none" stroke-width=".12" stroke-linecap="round" stroke-linejoin="round" stroke="green" stroke-miterlimit="10"/><path d="M318.04 217.68a1.02 1.02 0 1 1 2.04.001 1.02 1.02 0 0 1-2.04-.001" fill-rule="evenodd" fill="#fff"/><path d="M318.04 217.68a1.02 1.02 0 1 1 2.04.001 1.02 1.02 0 0 1-2.04-.001zm0 0" fill="none" stroke-width=".06" stroke-linecap="square" stroke-linejoin="bevel" stroke="#000" stroke-miterlimit="10"/><path d="M274.059 239.281a1.862 1.862 0 0 1 3.722 0 1.861 1.861 0 0 1-3.722 0" fill-rule="evenodd" fill="green"/><path d="M274.059 239.281a1.862 1.862 0 0 1 3.722 0 1.861 1.861 0 0 1-3.722 0zm0 0" fill="none" stroke-width=".12" stroke-linecap="round" stroke-linejoin="round" stroke="green" stroke-miterlimit="10"/><path d="M274.781 239.281c0-.633.508-1.14 1.14-1.14.63 0 1.138.507 1.138 1.14a1.139 1.139 0 1 1-2.278 0" fill-rule="evenodd" fill="#fff"/><path d="M274.781 239.281c0-.633.508-1.14 1.14-1.14.63 0 1.138.507 1.138 1.14a1.139 1.139 0 1 1-2.278 0zm0 0" fill="none" stroke-width=".06" stroke-linecap="square" stroke-linejoin="bevel" stroke="#000" stroke-miterlimit="10"/><path d="M259.66 239.281a1.859 1.859 0 1 1 3.718 0 1.859 1.859 0 0 1-3.718 0" fill-rule="evenodd" fill="green"/><path d="M259.66 239.281a1.859 1.859 0 1 1 3.718 0 1.859 1.859 0 0 1-3.718 0zm0 0" fill="none" stroke-width=".12" stroke-linecap="round" stroke-linejoin="round" stroke="green" stroke-miterlimit="10"/><path d="M260.379 239.281a1.14 1.14 0 1 1 2.281 0 1.14 1.14 0 0 1-2.281 0" fill-rule="evenodd" fill="#fff"/><path d="M260.379 239.281a1.14 1.14 0 1 1 2.281 0 1.14 1.14 0 0 1-2.281 0zm0 0" fill="none" stroke-width=".06" stroke-linecap="square" stroke-linejoin="bevel" stroke="#000" stroke-miterlimit="10"/><path d="M273.16 246.48zm0 0" fill="none" stroke-width=".12" stroke-linecap="round" stroke-linejoin="round" stroke="green" stroke-miterlimit="10"/><path d="M274.48 246.48a1.44 1.44 0 1 1 2.881-.002 1.44 1.44 0 0 1-2.88.002" fill-rule="evenodd" fill="#fff"/><path d="M274.48 246.48a1.44 1.44 0 1 1 2.881-.002 1.44 1.44 0 0 1-2.88.002zm0 0" fill="none" stroke-width=".06" stroke-linecap="square" stroke-linejoin="bevel" stroke="#000" stroke-miterlimit="10"/><path d="M309.102 246.48a2.76 2.76 0 0 1 2.757-2.761 2.764 2.764 0 0 1 2.762 2.761 2.76 2.76 0 0 1-5.52 0" fill-rule="evenodd" fill="green"/><path d="M309.102 246.48a2.76 2.76 0 0 1 2.757-2.761 2.764 2.764 0 0 1 2.762 2.761 2.76 2.76 0 0 1-5.52 0zm0 0" fill="none" stroke-width=".12" stroke-linecap="round" stroke-linejoin="round" stroke="green" stroke-miterlimit="10"/><path d="M310.422 246.48a1.44 1.44 0 1 1 2.879 0c0 .793-.645 1.442-1.442 1.442a1.442 1.442 0 0 1-1.437-1.442" fill-rule="evenodd" fill="#fff"/><path d="M310.422 246.48a1.44 1.44 0 1 1 2.879 0c0 .793-.645 1.442-1.442 1.442a1.442 1.442 0 0 1-1.437-1.442zm0 0" fill="none" stroke-width=".06" stroke-linecap="square" stroke-linejoin="bevel" stroke="#000" stroke-miterlimit="10"/><path d="M294.7 246.48a2.764 2.764 0 0 1 2.76-2.761 2.76 2.76 0 0 1 0 5.52 2.76 2.76 0 0 1-2.76-2.759" fill-rule="evenodd" fill="green"/><path d="M294.7 246.48a2.764 2.764 0 0 1 2.76-2.761 2.76 2.76 0 0 1 0 5.52 2.76 2.76 0 0 1-2.76-2.759zm0 0" fill="none" stroke-width=".12" stroke-linecap="round" stroke-linejoin="round" stroke="green" stroke-miterlimit="10"/><path d="M296.02 246.48a1.44 1.44 0 1 1 2.88-.002 1.44 1.44 0 0 1-2.88.002" fill-rule="evenodd" fill="#fff"/><path d="M296.02 246.48a1.44 1.44 0 1 1 2.88-.002 1.44 1.44 0 0 1-2.88.002zm0 0" fill="none" stroke-width=".06" stroke-linecap="square" stroke-linejoin="bevel" stroke="#000" stroke-miterlimit="10"/><path d="M310 232.078c0-1.023.832-1.86 1.86-1.86a1.861 1.861 0 0 1 0 3.723 1.862 1.862 0 0 1-1.86-1.863" fill-rule="evenodd" fill="green"/><path d="M310 232.078c0-1.023.832-1.86 1.86-1.86a1.861 1.861 0 0 1 0 3.723 1.862 1.862 0 0 1-1.86-1.863zm0 0" fill="none" stroke-width=".12" stroke-linecap="round" stroke-linejoin="round" stroke="green" stroke-miterlimit="10"/><path d="M310.719 232.078c0-.629.511-1.137 1.14-1.137a1.139 1.139 0 1 1 0 2.278 1.14 1.14 0 0 1-1.14-1.14" fill-rule="evenodd" fill="#fff"/><path d="M310.719 232.078c0-.629.511-1.137 1.14-1.137a1.139 1.139 0 1 1 0 2.278 1.14 1.14 0 0 1-1.14-1.14zm0 0" fill="none" stroke-width=".06" stroke-linecap="square" stroke-linejoin="bevel" stroke="#000" stroke-miterlimit="10"/><path d="M295.602 232.078c0-1.023.832-1.86 1.859-1.86a1.861 1.861 0 0 1 0 3.723 1.862 1.862 0 0 1-1.86-1.863" fill-rule="evenodd" fill="green"/><path d="M295.602 232.078c0-1.023.832-1.86 1.859-1.86a1.861 1.861 0 0 1 0 3.723 1.862 1.862 0 0 1-1.86-1.863zm0 0" fill="none" stroke-width=".12" stroke-linecap="round" stroke-linejoin="round" stroke="green" stroke-miterlimit="10"/><path d="M296.32 232.078c0-.629.508-1.137 1.14-1.137a1.139 1.139 0 1 1 0 2.278c-.632 0-1.14-.508-1.14-1.14" fill-rule="evenodd" fill="#fff"/><path d="M296.32 232.078c0-.629.508-1.137 1.14-1.137a1.139 1.139 0 1 1 0 2.278c-.632 0-1.14-.508-1.14-1.14zm0 0" fill="none" stroke-width=".06" stroke-linecap="square" stroke-linejoin="bevel" stroke="#000" stroke-miterlimit="10"/><path d="M310 203.281a1.859 1.859 0 1 1 3.718 0 1.859 1.859 0 0 1-3.718 0" fill-rule="evenodd" fill="green"/><path d="M310 203.281a1.859 1.859 0 1 1 3.718 0 1.859 1.859 0 0 1-3.718 0zm0 0" fill="none" stroke-width=".12" stroke-linecap="round" stroke-linejoin="round" stroke="green" stroke-miterlimit="10"/><path d="M310.719 203.281a1.14 1.14 0 1 1 2.281 0 1.14 1.14 0 0 1-2.281 0" fill-rule="evenodd" fill="#fff"/><path d="M310.719 203.281a1.14 1.14 0 1 1 2.281 0 1.14 1.14 0 0 1-2.281 0zm0 0" fill="none" stroke-width=".06" stroke-linecap="square" stroke-linejoin="bevel" stroke="#000" stroke-miterlimit="10"/><path d="M310 210.48a1.859 1.859 0 1 1 3.718 0 1.859 1.859 0 0 1-3.718 0" fill-rule="evenodd" fill="green"/><path d="M310 210.48a1.859 1.859 0 1 1 3.718 0 1.859 1.859 0 0 1-3.718 0zm0 0" fill="none" stroke-width=".12" stroke-linecap="round" stroke-linejoin="round" stroke="green" stroke-miterlimit="10"/><path d="M310.719 210.48a1.141 1.141 0 0 1 2.281 0 1.142 1.142 0 0 1-2.281.001" fill-rule="evenodd" fill="#fff"/><path d="M310.719 210.48a1.141 1.141 0 0 1 2.281 0 1.142 1.142 0 0 1-2.281.001zm0 0" fill="none" stroke-width=".06" stroke-linecap="square" stroke-linejoin="bevel" stroke="#000" stroke-miterlimit="10"/><path d="M288.46 210.48a1.859 1.859 0 1 1 3.719 0 1.859 1.859 0 0 1-3.718 0" fill-rule="evenodd" fill="green"/><path d="M288.46 210.48a1.859 1.859 0 1 1 3.719 0 1.859 1.859 0 0 1-3.718 0zm0 0" fill="none" stroke-width=".12" stroke-linecap="round" stroke-linejoin="round" stroke="green" stroke-miterlimit="10"/><path d="M289.18 210.48a1.14 1.14 0 1 1 2.278 0 1.14 1.14 0 0 1-2.278.001" fill-rule="evenodd" fill="#fff"/><path d="M289.18 210.48a1.14 1.14 0 1 1 2.278 0 1.14 1.14 0 0 1-2.278.001zm0 0" fill="none" stroke-width=".06" stroke-linecap="square" stroke-linejoin="bevel" stroke="#000" stroke-miterlimit="10"/><path d="M288.46 203.281a1.859 1.859 0 1 1 3.719 0 1.859 1.859 0 0 1-3.718 0" fill-rule="evenodd" fill="green"/><path d="M288.46 203.281a1.859 1.859 0 1 1 3.719 0 1.859 1.859 0 0 1-3.718 0zm0 0" fill="none" stroke-width=".12" stroke-linecap="round" stroke-linejoin="round" stroke="green" stroke-miterlimit="10"/><path d="M289.18 203.281a1.14 1.14 0 1 1 2.28 0 1.14 1.14 0 1 1-2.28 0" fill-rule="evenodd" fill="#fff"/><path d="M289.18 203.281a1.14 1.14 0 1 1 2.28 0 1.14 1.14 0 1 1-2.28 0zm0 0" fill="none" stroke-width=".06" stroke-linecap="square" stroke-linejoin="bevel" stroke="#000" stroke-miterlimit="10"/><path d="M310 217.68a1.859 1.859 0 1 1 3.718-.001 1.859 1.859 0 0 1-3.718 0" fill-rule="evenodd" fill="green"/><path d="M310 217.68a1.859 1.859 0 1 1 3.718-.001 1.859 1.859 0 0 1-3.718 0zm0 0" fill="none" stroke-width=".12" stroke-linecap="round" stroke-linejoin="round" stroke="green" stroke-miterlimit="10"/><path d="M310.719 217.68a1.14 1.14 0 1 1 2.28 0 1.14 1.14 0 0 1-2.28 0" fill-rule="evenodd" fill="#fff"/><path d="M310.719 217.68a1.14 1.14 0 1 1 2.28 0 1.14 1.14 0 0 1-2.28 0zm0 0" fill="none" stroke-width=".06" stroke-linecap="square" stroke-linejoin="bevel" stroke="#000" stroke-miterlimit="10"/><path d="M310 224.879a1.859 1.859 0 1 1 3.718-.001 1.859 1.859 0 0 1-3.718 0" fill-rule="evenodd" fill="green"/><path d="M310 224.879a1.859 1.859 0 1 1 3.718-.001 1.859 1.859 0 0 1-3.718 0zm0 0" fill="none" stroke-width=".12" stroke-linecap="round" stroke-linejoin="round" stroke="green" stroke-miterlimit="10"/><path d="M310.719 224.879c0-.629.511-1.14 1.14-1.14a1.14 1.14 0 1 1-1.14 1.14" fill-rule="evenodd" fill="#fff"/><path d="M310.719 224.879c0-.629.511-1.14 1.14-1.14a1.14 1.14 0 1 1-1.14 1.14zm0 0" fill="none" stroke-width=".06" stroke-linecap="square" stroke-linejoin="bevel" stroke="#000" stroke-miterlimit="10"/><path d="M288.46 217.68a1.859 1.859 0 1 1 3.719-.001 1.859 1.859 0 0 1-3.718 0" fill-rule="evenodd" fill="green"/><path d="M288.46 217.68a1.859 1.859 0 1 1 3.719-.001 1.859 1.859 0 0 1-3.718 0zm0 0" fill="none" stroke-width=".12" stroke-linecap="round" stroke-linejoin="round" stroke="green" stroke-miterlimit="10"/><path d="M289.18 217.68a1.14 1.14 0 1 1 2.28 0 1.14 1.14 0 0 1-2.28 0" fill-rule="evenodd" fill="#fff"/><path d="M289.18 217.68a1.14 1.14 0 1 1 2.28 0 1.14 1.14 0 0 1-2.28 0zm0 0" fill="none" stroke-width=".06" stroke-linecap="square" stroke-linejoin="bevel" stroke="#000" stroke-miterlimit="10"/><path d="M288.46 224.879a1.859 1.859 0 1 1 3.719-.001 1.859 1.859 0 0 1-3.718 0" fill-rule="evenodd" fill="green"/><path d="M288.46 224.879a1.859 1.859 0 1 1 3.719-.001 1.859 1.859 0 0 1-3.718 0zm0 0" fill="none" stroke-width=".12" stroke-linecap="round" stroke-linejoin="round" stroke="green" stroke-miterlimit="10"/><path d="M289.18 224.879c0-.629.511-1.14 1.14-1.14a1.14 1.14 0 1 1-1.14 1.14" fill-rule="evenodd" fill="#fff"/><path d="M289.18 224.879c0-.629.511-1.14 1.14-1.14a1.14 1.14 0 1 1-1.14 1.14zm0 0" fill="none" stroke-width=".06" stroke-linecap="square" stroke-linejoin="bevel" stroke="#000" stroke-miterlimit="10"/><path d="M291.82 230.64h-2.879v2.88h2.88zm0 0" fill="green" stroke-width=".12" stroke-linecap="round" stroke-linejoin="round" stroke="green" stroke-miterlimit="10"/><path d="M289.48 232.078a.841.841 0 1 1 1.683.003.841.841 0 0 1-1.683-.003" fill-rule="evenodd" fill="#fff"/><path d="M289.48 232.078a.841.841 0 1 1 1.683.003.841.841 0 0 1-1.683-.003zm0 0" fill="none" stroke-width=".06" stroke-linecap="square" stroke-linejoin="bevel" stroke="#000" stroke-miterlimit="10"/><path d="M270.219 230.64h-2.88v2.88h2.88zm0 0" fill="green" stroke-width=".12" stroke-linecap="round" stroke-linejoin="round" stroke="green" stroke-miterlimit="10"/><path d="M267.879 232.078c0-.46.379-.84.84-.84a.841.841 0 0 1 0 1.684.844.844 0 0 1-.84-.844" fill-rule="evenodd" fill="#fff"/><path d="M267.879 232.078c0-.46.379-.84.84-.84a.841.841 0 0 1 0 1.684.844.844 0 0 1-.84-.844zm0 0" fill="none" stroke-width=".06" stroke-linecap="square" stroke-linejoin="bevel" stroke="#000" stroke-miterlimit="10"/><path d="M284.621 180.3h-2.883v2.88h2.883zm0 0" fill="green" stroke-width=".12" stroke-linecap="round" stroke-linejoin="round" stroke="green" stroke-miterlimit="10"/><path d="M282.281 181.738a.841.841 0 1 1 1.682.003.841.841 0 0 1-1.682-.003" fill-rule="evenodd" fill="#fff"/><path d="M282.281 181.738a.841.841 0 1 1 1.682.003.841.841 0 0 1-1.682-.003zm0 0" fill="none" stroke-width=".06" stroke-linecap="square" stroke-linejoin="bevel" stroke="#000" stroke-miterlimit="10"/><path d="M320.559 194.7h-2.88v2.882h2.88zm0 0" fill="green" stroke-width=".12" stroke-linecap="round" stroke-linejoin="round" stroke="green" stroke-miterlimit="10"/><path d="M318.219 196.14a.841.841 0 1 1 1.682.003.841.841 0 0 1-1.682-.002" fill-rule="evenodd" fill="#fff"/><path d="M318.219 196.14a.841.841 0 1 1 1.682.003.841.841 0 0 1-1.682-.002zm0 0" fill="none" stroke-width=".06" stroke-linecap="square" stroke-linejoin="bevel" stroke="#000" stroke-miterlimit="10"/><path d="M320.559 209.04h-2.88v2.882h2.88zm0 0" fill="green" stroke-width=".12" stroke-linecap="round" stroke-linejoin="round" stroke="green" stroke-miterlimit="10"/><path d="M318.219 210.48a.841.841 0 1 1 1.682.003.841.841 0 0 1-1.682-.003" fill-rule="evenodd" fill="#fff"/><path d="M318.219 210.48a.841.841 0 1 1 1.682.003.841.841 0 0 1-1.682-.003zm0 0" fill="none" stroke-width=".06" stroke-linecap="square" stroke-linejoin="bevel" stroke="#000" stroke-miterlimit="10"/><path d="M306.16 237.84h-2.879v2.879h2.88zm0 0" fill="green" stroke-width=".12" stroke-linecap="round" stroke-linejoin="round" stroke="green" stroke-miterlimit="10"/><path d="M303.82 239.281c0-.465.375-.84.84-.84a.841.841 0 1 1-.84.84" fill-rule="evenodd" fill="#fff"/><path d="M303.82 239.281c0-.465.375-.84.84-.84a.841.841 0 1 1-.84.84zm0 0" fill="none" stroke-width=".06" stroke-linecap="square" stroke-linejoin="bevel" stroke="#000" stroke-miterlimit="10"/><path d="M284.621 237.84h-2.883v2.879h2.883zm0 0" fill="green" stroke-width=".12" stroke-linecap="round" stroke-linejoin="round" stroke="green" stroke-miterlimit="10"/><path d="M282.281 239.281c0-.465.375-.84.84-.84a.841.841 0 1 1-.84.84" fill-rule="evenodd" fill="#fff"/><path d="M282.281 239.281c0-.465.375-.84.84-.84a.841.841 0 1 1-.84.84zm0 0" fill="none" stroke-width=".06" stroke-linecap="square" stroke-linejoin="bevel" stroke="#000" stroke-miterlimit="10"/><path d="M319.121 239.281h-7.2m.001 0v-7.203m0-7.199v7.2m0-.001v14.402m-14.402 0v-14.402m-7.141-28.797h-7.2m7.2 0h7.14m.001 0v28.797m-28.739-28.797h7.2m-.001 0v7.2m0-.001h14.399m0 14.399v7.2m-21.598-.001v-7.2m7.199.001h-7.199m0 0V210.48m43.141-28.742v-7.199m14.398 7.199v-7.199m-50.34 7.199v-7.199m0 .001v14.401m0 0h43.141m0 0V174.54m-21.601 7.198h-14.34m0 0v-7.199m43.14 21.601h-7.199m-7.199 0h7.2m-7.2 14.34h7.2m-.001 0h7.2m-.001 0v7.2m-21.601-21.54v7.141m0 0h7.203m0 0h14.398m-64.742-7.141h43.14m-43.14 14.34v-14.34m0 43.141V224.88m0-.001V210.48m7.203-35.94v7.198m7.199 57.543v7.2m35.942-28.801h7.2m-7.2 0h-7.203m0 0v21.601m-21.539-14.402v-7.2m0 .001h7.199m-7.199 7.199v14.402" fill="none" stroke-width="3.6" stroke-linecap="round" stroke-linejoin="round" stroke="navy" stroke-miterlimit="10"/><path d="M324.398 203.281a1.862 1.862 0 0 1 3.723 0 1.861 1.861 0 0 1-3.723 0" fill-rule="evenodd" fill="green"/><path d="M324.398 203.281a1.862 1.862 0 0 1 3.723 0 1.861 1.861 0 0 1-3.723 0zm0 0" fill="none" stroke-width=".12" stroke-linecap="round" stroke-linejoin="round" stroke="green" stroke-miterlimit="10"/><path d="M325.121 203.281c0-.633.508-1.14 1.14-1.14.63 0 1.137.507 1.137 1.14a1.139 1.139 0 1 1-2.277 0" fill-rule="evenodd" fill="#fff"/><path d="M325.121 203.281c0-.633.508-1.14 1.14-1.14.63 0 1.137.507 1.137 1.14a1.139 1.139 0 1 1-2.277 0zm0 0" fill="none" stroke-width=".06" stroke-linecap="square" stroke-linejoin="bevel" stroke="#000" stroke-miterlimit="10"/><path d="M324.398 217.68a1.862 1.862 0 0 1 3.723 0 1.861 1.861 0 0 1-3.723 0" fill-rule="evenodd" fill="green"/><path d="M324.398 217.68a1.862 1.862 0 0 1 3.723 0 1.861 1.861 0 0 1-3.723 0zm0 0" fill="none" stroke-width=".12" stroke-linecap="round" stroke-linejoin="round" stroke="green" stroke-miterlimit="10"/><path d="M325.121 217.68a1.14 1.14 0 1 1 2.279-.003 1.14 1.14 0 0 1-2.279.003" fill-rule="evenodd" fill="#fff"/><path d="M325.121 217.68a1.14 1.14 0 1 1 2.279-.003 1.14 1.14 0 0 1-2.279.003zm0 0" fill="none" stroke-width=".06" stroke-linecap="square" stroke-linejoin="bevel" stroke="#000" stroke-miterlimit="10"/><path d="M310 196.14a1.859 1.859 0 1 1 3.718 0 1.859 1.859 0 0 1-3.718 0" fill-rule="evenodd" fill="green"/><path d="M310 196.14a1.859 1.859 0 1 1 3.718 0 1.859 1.859 0 0 1-3.718 0zm0 0" fill="none" stroke-width=".12" stroke-linecap="round" stroke-linejoin="round" stroke="green" stroke-miterlimit="10"/><path d="M310.719 196.14a1.141 1.141 0 0 1 2.281 0 1.142 1.142 0 0 1-2.281.001" fill-rule="evenodd" fill="#fff"/><path d="M310.719 196.14a1.141 1.141 0 0 1 2.281 0 1.142 1.142 0 0 1-2.281.001zm0 0" fill="none" stroke-width=".06" stroke-linecap="square" stroke-linejoin="bevel" stroke="#000" stroke-miterlimit="10"/><path d="M310 181.738c0-1.023.832-1.86 1.86-1.86a1.861 1.861 0 0 1 0 3.724 1.862 1.862 0 0 1-1.86-1.864" fill-rule="evenodd" fill="green"/><path d="M310 181.738c0-1.023.832-1.86 1.86-1.86a1.861 1.861 0 0 1 0 3.724 1.862 1.862 0 0 1-1.86-1.864zm0 0" fill="none" stroke-width=".12" stroke-linecap="round" stroke-linejoin="round" stroke="green" stroke-miterlimit="10"/><path d="M310.719 181.738c0-.629.511-1.136 1.14-1.136a1.139 1.139 0 1 1 0 2.277 1.14 1.14 0 0 1-1.14-1.14" fill-rule="evenodd" fill="#fff"/><path d="M310.719 181.738c0-.629.511-1.136 1.14-1.136a1.139 1.139 0 1 1 0 2.277 1.14 1.14 0 0 1-1.14-1.14zm0 0" fill="none" stroke-width=".06" stroke-linecap="square" stroke-linejoin="bevel" stroke="#000" stroke-miterlimit="10"/><path d="M324.398 181.738c0-1.023.836-1.86 1.864-1.86 1.023 0 1.86.837 1.86 1.86a1.865 1.865 0 0 1-1.86 1.864 1.865 1.865 0 0 1-1.864-1.864" fill-rule="evenodd" fill="green"/><path d="M324.398 181.738c0-1.023.836-1.86 1.864-1.86 1.023 0 1.86.837 1.86 1.86a1.865 1.865 0 0 1-1.86 1.864 1.865 1.865 0 0 1-1.864-1.864zm0 0" fill="none" stroke-width=".12" stroke-linecap="round" stroke-linejoin="round" stroke="green" stroke-miterlimit="10"/><path d="M325.121 181.738c0-.629.508-1.136 1.14-1.136.63 0 1.137.507 1.137 1.136 0 .633-.507 1.14-1.136 1.14-.633 0-1.14-.507-1.14-1.14" fill-rule="evenodd" fill="#fff"/><path d="M325.121 181.738c0-.629.508-1.136 1.14-1.136.63 0 1.137.507 1.137 1.136 0 .633-.507 1.14-1.136 1.14-.633 0-1.14-.507-1.14-1.14zm0 0" fill="none" stroke-width=".06" stroke-linecap="square" stroke-linejoin="bevel" stroke="#000" stroke-miterlimit="10"/><path d="M324.398 196.14a1.862 1.862 0 0 1 3.723 0 1.861 1.861 0 0 1-3.723 0" fill-rule="evenodd" fill="green"/><path d="M324.398 196.14a1.862 1.862 0 0 1 3.723 0 1.861 1.861 0 0 1-3.723 0zm0 0" fill="none" stroke-width=".12" stroke-linecap="round" stroke-linejoin="round" stroke="green" stroke-miterlimit="10"/><path d="M325.121 196.14a1.14 1.14 0 1 1 2.279-.002 1.14 1.14 0 0 1-2.279.003" fill-rule="evenodd" fill="#fff"/><path d="M325.121 196.14a1.14 1.14 0 1 1 2.279-.002 1.14 1.14 0 0 1-2.279.003zm0 0" fill="none" stroke-width=".06" stroke-linecap="square" stroke-linejoin="bevel" stroke="#000" stroke-miterlimit="10"/><path d="M270.64 224.102l-1.081-1.082H268l-1.078 1.082v1.558l1.078 1.078h1.559l1.082-1.078v-1.558" fill="green"/><path d="M270.64 224.102l-1.081-1.082H268l-1.078 1.082v1.558l1.078 1.078h1.559l1.082-1.078zm0 0" fill="none" stroke-width=".12" stroke-linecap="round" stroke-linejoin="round" stroke="green" stroke-miterlimit="10"/><path d="M267.578 224.879a1.14 1.14 0 1 1 2.281 0c0 .633-.507 1.14-1.14 1.14a1.14 1.14 0 0 1-1.14-1.14" fill-rule="evenodd" fill="#fff"/><path d="M267.578 224.879a1.14 1.14 0 1 1 2.281 0c0 .633-.507 1.14-1.14 1.14a1.14 1.14 0 0 1-1.14-1.14zm0 0" fill="none" stroke-width=".06" stroke-linecap="square" stroke-linejoin="bevel" stroke="#000" stroke-miterlimit="10"/><path d="M263.441 224.102l-1.082-1.082h-1.558l-1.082 1.082v1.558l1.082 1.078h1.558l1.082-1.078v-1.558" fill="green"/><path d="M263.441 224.102l-1.082-1.082h-1.558l-1.082 1.082v1.558l1.082 1.078h1.558l1.082-1.078zm0 0" fill="none" stroke-width=".12" stroke-linecap="round" stroke-linejoin="round" stroke="green" stroke-miterlimit="10"/><path d="M260.379 224.879c0-.629.512-1.14 1.14-1.14a1.14 1.14 0 1 1-1.14 1.14" fill-rule="evenodd" fill="#fff"/><path d="M260.379 224.879c0-.629.512-1.14 1.14-1.14a1.14 1.14 0 1 1-1.14 1.14zm0 0" fill="none" stroke-width=".06" stroke-linecap="square" stroke-linejoin="bevel" stroke="#000" stroke-miterlimit="10"/><path d="M263.441 209.7l-1.082-1.079h-1.558l-1.082 1.078v1.563l1.082 1.078h1.558l1.082-1.078v-1.563" fill="green"/><path d="M263.441 209.7l-1.082-1.079h-1.558l-1.082 1.078v1.563l1.082 1.078h1.558l1.082-1.078zm0 0" fill="none" stroke-width=".12" stroke-linecap="round" stroke-linejoin="round" stroke="green" stroke-miterlimit="10"/><path d="M260.379 210.48a1.142 1.142 0 1 1 1.141 1.141c-.63 0-1.141-.512-1.141-1.14" fill-rule="evenodd" fill="#fff"/><path d="M260.379 210.48a1.142 1.142 0 1 1 1.141 1.141c-.63 0-1.141-.512-1.141-1.14zm0 0" fill="none" stroke-width=".06" stroke-linecap="square" stroke-linejoin="bevel" stroke="#000" stroke-miterlimit="10"/><path d="M270.64 209.7l-1.081-1.079H268l-1.078 1.078v1.563L268 212.34h1.559l1.082-1.078v-1.563" fill="green"/><path d="M270.64 209.7l-1.081-1.079H268l-1.078 1.078v1.563L268 212.34h1.559l1.082-1.078zm0 0" fill="none" stroke-width=".12" stroke-linecap="round" stroke-linejoin="round" stroke="green" stroke-miterlimit="10"/><path d="M267.578 210.48a1.14 1.14 0 1 1 1.14 1.14 1.14 1.14 0 0 1-1.14-1.14" fill-rule="evenodd" fill="#fff"/><path d="M267.578 210.48a1.14 1.14 0 1 1 1.14 1.14 1.14 1.14 0 0 1-1.14-1.14zm0 0" fill="none" stroke-width=".06" stroke-linecap="square" stroke-linejoin="bevel" stroke="#000" stroke-miterlimit="10"/><path d="M274.18 224.879a1.74 1.74 0 1 1 3.48.004 1.74 1.74 0 0 1-3.48-.004" fill-rule="evenodd" fill="green"/><path d="M274.18 224.879a1.74 1.74 0 1 1 3.48.004 1.74 1.74 0 0 1-3.48-.004zm0 0" fill="none" stroke-width=".12" stroke-linecap="round" stroke-linejoin="round" stroke="green" stroke-miterlimit="10"/><path d="M274.898 224.879a1.021 1.021 0 0 1 2.043 0 1.021 1.021 0 1 1-2.043 0" fill-rule="evenodd" fill="#fff"/><path d="M274.898 224.879a1.021 1.021 0 0 1 2.043 0 1.021 1.021 0 1 1-2.043 0zm0 0" fill="none" stroke-width=".06" stroke-linecap="square" stroke-linejoin="bevel" stroke="#000" stroke-miterlimit="10"/><path d="M274.18 203.281zm0 0" fill="none" stroke-width=".12" stroke-linecap="round" stroke-linejoin="round" stroke="green" stroke-miterlimit="10"/><path d="M274.898 203.281a1.021 1.021 0 0 1 2.043 0 1.021 1.021 0 1 1-2.043 0" fill-rule="evenodd" fill="#fff"/><path d="M274.898 203.281a1.021 1.021 0 0 1 2.043 0 1.021 1.021 0 1 1-2.043 0zm0 0" fill="none" stroke-width=".06" stroke-linecap="square" stroke-linejoin="bevel" stroke="#000" stroke-miterlimit="10"/><path d="M295.719 181.738a1.74 1.74 0 1 1 3.48.005 1.74 1.74 0 0 1-3.48-.005" fill-rule="evenodd" fill="green"/><path d="M295.719 181.738a1.74 1.74 0 1 1 3.48.005 1.74 1.74 0 0 1-3.48-.005zm0 0" fill="none" stroke-width=".12" stroke-linecap="round" stroke-linejoin="round" stroke="green" stroke-miterlimit="10"/><path d="M296.441 181.738a1.02 1.02 0 1 1 1.02 1.024c-.563 0-1.02-.457-1.02-1.024" fill-rule="evenodd" fill="#fff"/><path d="M296.441 181.738a1.02 1.02 0 1 1 1.02 1.024c-.563 0-1.02-.457-1.02-1.024zm0 0" fill="none" stroke-width=".06" stroke-linecap="square" stroke-linejoin="bevel" stroke="#000" stroke-miterlimit="10"/><path d="M274.18 181.738a1.74 1.74 0 1 1 3.48.005 1.74 1.74 0 0 1-3.48-.005" fill-rule="evenodd" fill="green"/><path d="M274.18 181.738a1.74 1.74 0 1 1 3.48.005 1.74 1.74 0 0 1-3.48-.005zm0 0" fill="none" stroke-width=".12" stroke-linecap="round" stroke-linejoin="round" stroke="green" stroke-miterlimit="10"/><path d="M274.898 181.738a1.021 1.021 0 1 1 2.043.003 1.021 1.021 0 0 1-2.043-.003" fill-rule="evenodd" fill="#fff"/><path d="M274.898 181.738a1.021 1.021 0 1 1 2.043.003 1.021 1.021 0 0 1-2.043-.003zm0 0" fill="none" stroke-width=".06" stroke-linecap="square" stroke-linejoin="bevel" stroke="#000" stroke-miterlimit="10"/><path d="M265.96 174.54a2.76 2.76 0 0 1 5.52 0 2.764 2.764 0 0 1-2.761 2.76 2.76 2.76 0 0 1-2.758-2.76" fill-rule="evenodd" fill="green"/><path d="M265.96 174.54a2.76 2.76 0 0 1 5.52 0 2.764 2.764 0 0 1-2.761 2.76 2.76 2.76 0 0 1-2.758-2.76zm0 0" fill="none" stroke-width=".12" stroke-linecap="round" stroke-linejoin="round" stroke="green" stroke-miterlimit="10"/><path d="M267.281 174.54a1.439 1.439 0 1 1 2.878.001 1.439 1.439 0 0 1-2.878-.002" fill-rule="evenodd" fill="#fff"/><path d="M267.281 174.54a1.439 1.439 0 1 1 2.878.001 1.439 1.439 0 0 1-2.878-.002zm0 0" fill="none" stroke-width=".06" stroke-linecap="square" stroke-linejoin="bevel" stroke="#000" stroke-miterlimit="10"/><path d="M273.16 174.54a2.758 2.758 0 0 1 2.762-2.759 2.76 2.76 0 1 1-2.762 2.758" fill-rule="evenodd" fill="green"/><path d="M273.16 174.54a2.758 2.758 0 0 1 2.762-2.759 2.76 2.76 0 1 1-2.762 2.758zm0 0" fill="none" stroke-width=".12" stroke-linecap="round" stroke-linejoin="round" stroke="green" stroke-miterlimit="10"/><path d="M274.48 174.54a1.44 1.44 0 1 1 2.88.003 1.44 1.44 0 0 1-2.88-.004" fill-rule="evenodd" fill="#fff"/><path d="M274.48 174.54a1.44 1.44 0 1 1 2.88.003 1.44 1.44 0 0 1-2.88-.004zm0 0" fill="none" stroke-width=".06" stroke-linecap="square" stroke-linejoin="bevel" stroke="#000" stroke-miterlimit="10"/><path d="M280.36 174.54a2.76 2.76 0 0 1 5.519 0 2.76 2.76 0 0 1-2.758 2.76 2.764 2.764 0 0 1-2.762-2.76" fill-rule="evenodd" fill="green"/><path d="M280.36 174.54a2.76 2.76 0 0 1 5.519 0 2.76 2.76 0 0 1-2.758 2.76 2.764 2.764 0 0 1-2.762-2.76zm0 0" fill="none" stroke-width=".12" stroke-linecap="round" stroke-linejoin="round" stroke="green" stroke-miterlimit="10"/><path d="M281.68 174.54a1.44 1.44 0 1 1 2.879.003 1.44 1.44 0 0 1-2.88-.004" fill-rule="evenodd" fill="#fff"/><path d="M281.68 174.54a1.44 1.44 0 1 1 2.879.003 1.44 1.44 0 0 1-2.88-.004zm0 0" fill="none" stroke-width=".06" stroke-linecap="square" stroke-linejoin="bevel" stroke="#000" stroke-miterlimit="10"/><path d="M266.98 203.281a1.74 1.74 0 1 1 3.481-.003 1.74 1.74 0 0 1-3.48.003" fill-rule="evenodd" fill="green"/><path d="M266.98 203.281a1.74 1.74 0 1 1 3.481-.003 1.74 1.74 0 0 1-3.48.003zm0 0" fill="none" stroke-width=".12" stroke-linecap="round" stroke-linejoin="round" stroke="green" stroke-miterlimit="10"/><path d="M267.7 203.281a1.02 1.02 0 1 1 2.04.002 1.02 1.02 0 0 1-2.04-.002" fill-rule="evenodd" fill="#fff"/><path d="M267.7 203.281a1.02 1.02 0 1 1 2.04.002 1.02 1.02 0 0 1-2.04-.002zm0 0" fill="none" stroke-width=".06" stroke-linecap="square" stroke-linejoin="bevel" stroke="#000" stroke-miterlimit="10"/><path d="M266.98 181.738a1.74 1.74 0 1 1 1.738 1.742 1.74 1.74 0 0 1-1.738-1.742" fill-rule="evenodd" fill="green"/><path d="M266.98 181.738a1.74 1.74 0 1 1 1.738 1.742 1.74 1.74 0 0 1-1.738-1.742zm0 0" fill="none" stroke-width=".12" stroke-linecap="round" stroke-linejoin="round" stroke="green" stroke-miterlimit="10"/><path d="M267.7 181.738a1.02 1.02 0 1 1 1.019 1.024c-.563 0-1.02-.457-1.02-1.024" fill-rule="evenodd" fill="#fff"/><path d="M267.7 181.738a1.02 1.02 0 1 1 1.019 1.024c-.563 0-1.02-.457-1.02-1.024zm0 0" fill="none" stroke-width=".06" stroke-linecap="square" stroke-linejoin="bevel" stroke="#000" stroke-miterlimit="10"/><path d="M309.102 174.54a2.76 2.76 0 0 1 5.52 0 2.764 2.764 0 0 1-2.763 2.76 2.76 2.76 0 0 1-2.757-2.76" fill-rule="evenodd" fill="green"/><path d="M309.102 174.54a2.76 2.76 0 0 1 5.52 0 2.764 2.764 0 0 1-2.763 2.76 2.76 2.76 0 0 1-2.757-2.76zm0 0" fill="none" stroke-width=".12" stroke-linecap="round" stroke-linejoin="round" stroke="green" stroke-miterlimit="10"/><path d="M310.422 174.54a1.439 1.439 0 1 1 2.877.001 1.439 1.439 0 0 1-2.877-.002" fill-rule="evenodd" fill="#fff"/><path d="M310.422 174.54a1.439 1.439 0 1 1 2.877.001 1.439 1.439 0 0 1-2.877-.002zm0 0" fill="none" stroke-width=".06" stroke-linecap="square" stroke-linejoin="bevel" stroke="#000" stroke-miterlimit="10"/><path d="M316.3 174.54a2.757 2.757 0 0 1 2.759-2.759 2.758 2.758 0 0 1 2.761 2.758 2.76 2.76 0 0 1-5.52 0" fill-rule="evenodd" fill="green"/><path d="M316.3 174.54a2.757 2.757 0 0 1 2.759-2.759 2.758 2.758 0 0 1 2.761 2.758 2.76 2.76 0 0 1-5.52 0zm0 0" fill="none" stroke-width=".12" stroke-linecap="round" stroke-linejoin="round" stroke="green" stroke-miterlimit="10"/><path d="M317.621 174.54a1.439 1.439 0 1 1 2.878.001 1.439 1.439 0 0 1-2.878-.002" fill-rule="evenodd" fill="#fff"/><path d="M317.621 174.54a1.439 1.439 0 1 1 2.878.001 1.439 1.439 0 0 1-2.878-.002zm0 0" fill="none" stroke-width=".06" stroke-linecap="square" stroke-linejoin="bevel" stroke="#000" stroke-miterlimit="10"/><path d="M323.5 174.54a2.758 2.758 0 0 1 2.762-2.759 2.76 2.76 0 1 1-2.762 2.758" fill-rule="evenodd" fill="green"/><path d="M323.5 174.54a2.758 2.758 0 0 1 2.762-2.759 2.76 2.76 0 1 1-2.762 2.758zm0 0" fill="none" stroke-width=".12" stroke-linecap="round" stroke-linejoin="round" stroke="green" stroke-miterlimit="10"/><path d="M324.82 174.54a1.44 1.44 0 1 1 2.88.003 1.44 1.44 0 0 1-2.88-.004" fill-rule="evenodd" fill="#fff"/><path d="M324.82 174.54a1.44 1.44 0 1 1 2.88.003 1.44 1.44 0 0 1-2.88-.004zm0 0" fill="none" stroke-width=".06" stroke-linecap="square" stroke-linejoin="bevel" stroke="#000" stroke-miterlimit="10"/><path d="M281.379 224.879a1.74 1.74 0 1 1 3.48.004 1.74 1.74 0 0 1-3.48-.004" fill-rule="evenodd" fill="green"/><path d="M281.379 224.879a1.74 1.74 0 1 1 3.48.004 1.74 1.74 0 0 1-3.48-.004zm0 0" fill="none" stroke-width=".12" stroke-linecap="round" stroke-linejoin="round" stroke="green" stroke-miterlimit="10"/><path d="M282.102 224.879a1.02 1.02 0 1 1 2.04.001 1.02 1.02 0 0 1-2.04-.001" fill-rule="evenodd" fill="#fff"/><path d="M282.102 224.879a1.02 1.02 0 1 1 2.04.001 1.02 1.02 0 0 1-2.04-.001zm0 0" fill="none" stroke-width=".06" stroke-linecap="square" stroke-linejoin="bevel" stroke="#000" stroke-miterlimit="10"/><path d="M281.379 203.281zm0 0" fill="none" stroke-width=".12" stroke-linecap="round" stroke-linejoin="round" stroke="green" stroke-miterlimit="10"/><path d="M282.102 203.281a1.02 1.02 0 1 1 2.04.002 1.02 1.02 0 0 1-2.04-.002" fill-rule="evenodd" fill="#fff"/><path d="M282.102 203.281a1.02 1.02 0 1 1 2.04.002 1.02 1.02 0 0 1-2.04-.002zm0 0" fill="none" stroke-width=".06" stroke-linecap="square" stroke-linejoin="bevel" stroke="#000" stroke-miterlimit="10"/><path d="M317.32 239.281a1.74 1.74 0 1 1 3.481-.003 1.74 1.74 0 0 1-3.48.003" fill-rule="evenodd" fill="green"/><path d="M317.32 239.281a1.74 1.74 0 1 1 3.481-.003 1.74 1.74 0 0 1-3.48.003zm0 0" fill="none" stroke-width=".12" stroke-linecap="round" stroke-linejoin="round" stroke="green" stroke-miterlimit="10"/><path d="M318.04 239.281a1.02 1.02 0 1 1 2.04.002 1.02 1.02 0 0 1-2.04-.002" fill-rule="evenodd" fill="#fff"/><path d="M318.04 239.281a1.02 1.02 0 1 1 2.04.002 1.02 1.02 0 0 1-2.04-.002zm0 0" fill="none" stroke-width=".06" stroke-linecap="square" stroke-linejoin="bevel" stroke="#000" stroke-miterlimit="10"/><path d="M317.32 217.68a1.74 1.74 0 1 1 1.738 1.742 1.74 1.74 0 0 1-1.738-1.742" fill-rule="evenodd" fill="green"/><path d="M317.32 217.68a1.74 1.74 0 1 1 1.738 1.742 1.74 1.74 0 0 1-1.738-1.742zm0 0" fill="none" stroke-width=".12" stroke-linecap="round" stroke-linejoin="round" stroke="green" stroke-miterlimit="10"/><path d="M318.04 217.68a1.02 1.02 0 1 1 2.04.001 1.02 1.02 0 0 1-2.04-.001" fill-rule="evenodd" fill="#fff"/><path d="M318.04 217.68a1.02 1.02 0 1 1 2.04.001 1.02 1.02 0 0 1-2.04-.001zm0 0" fill="none" stroke-width=".06" stroke-linecap="square" stroke-linejoin="bevel" stroke="#000" stroke-miterlimit="10"/><path d="M274.059 239.281a1.862 1.862 0 0 1 3.722 0 1.861 1.861 0 0 1-3.722 0" fill-rule="evenodd" fill="green"/><path d="M274.059 239.281a1.862 1.862 0 0 1 3.722 0 1.861 1.861 0 0 1-3.722 0zm0 0" fill="none" stroke-width=".12" stroke-linecap="round" stroke-linejoin="round" stroke="green" stroke-miterlimit="10"/><path d="M274.781 239.281c0-.633.508-1.14 1.14-1.14.63 0 1.138.507 1.138 1.14a1.139 1.139 0 1 1-2.278 0" fill-rule="evenodd" fill="#fff"/><path d="M274.781 239.281c0-.633.508-1.14 1.14-1.14.63 0 1.138.507 1.138 1.14a1.139 1.139 0 1 1-2.278 0zm0 0" fill="none" stroke-width=".06" stroke-linecap="square" stroke-linejoin="bevel" stroke="#000" stroke-miterlimit="10"/><path d="M259.66 239.281a1.859 1.859 0 1 1 3.718 0 1.859 1.859 0 0 1-3.718 0" fill-rule="evenodd" fill="green"/><path d="M259.66 239.281a1.859 1.859 0 1 1 3.718 0 1.859 1.859 0 0 1-3.718 0zm0 0" fill="none" stroke-width=".12" stroke-linecap="round" stroke-linejoin="round" stroke="green" stroke-miterlimit="10"/><path d="M260.379 239.281a1.14 1.14 0 1 1 2.281 0 1.14 1.14 0 0 1-2.281 0" fill-rule="evenodd" fill="#fff"/><path d="M260.379 239.281a1.14 1.14 0 1 1 2.281 0 1.14 1.14 0 0 1-2.281 0zm0 0" fill="none" stroke-width=".06" stroke-linecap="square" stroke-linejoin="bevel" stroke="#000" stroke-miterlimit="10"/><path d="M273.16 246.48zm0 0" fill="none" stroke-width=".12" stroke-linecap="round" stroke-linejoin="round" stroke="green" stroke-miterlimit="10"/><path d="M274.48 246.48a1.44 1.44 0 1 1 2.881-.002 1.44 1.44 0 0 1-2.88.002" fill-rule="evenodd" fill="#fff"/><path d="M274.48 246.48a1.44 1.44 0 1 1 2.881-.002 1.44 1.44 0 0 1-2.88.002zm0 0" fill="none" stroke-width=".06" stroke-linecap="square" stroke-linejoin="bevel" stroke="#000" stroke-miterlimit="10"/><path d="M309.102 246.48a2.76 2.76 0 0 1 2.757-2.761 2.764 2.764 0 0 1 2.762 2.761 2.76 2.76 0 0 1-5.52 0" fill-rule="evenodd" fill="green"/><path d="M309.102 246.48a2.76 2.76 0 0 1 2.757-2.761 2.764 2.764 0 0 1 2.762 2.761 2.76 2.76 0 0 1-5.52 0zm0 0" fill="none" stroke-width=".12" stroke-linecap="round" stroke-linejoin="round" stroke="green" stroke-miterlimit="10"/><path d="M310.422 246.48a1.44 1.44 0 1 1 2.879 0c0 .793-.645 1.442-1.442 1.442a1.442 1.442 0 0 1-1.437-1.442" fill-rule="evenodd" fill="#fff"/><path d="M310.422 246.48a1.44 1.44 0 1 1 2.879 0c0 .793-.645 1.442-1.442 1.442a1.442 1.442 0 0 1-1.437-1.442zm0 0" fill="none" stroke-width=".06" stroke-linecap="square" stroke-linejoin="bevel" stroke="#000" stroke-miterlimit="10"/><path d="M294.7 246.48a2.764 2.764 0 0 1 2.76-2.761 2.76 2.76 0 0 1 0 5.52 2.76 2.76 0 0 1-2.76-2.759" fill-rule="evenodd" fill="green"/><path d="M294.7 246.48a2.764 2.764 0 0 1 2.76-2.761 2.76 2.76 0 0 1 0 5.52 2.76 2.76 0 0 1-2.76-2.759zm0 0" fill="none" stroke-width=".12" stroke-linecap="round" stroke-linejoin="round" stroke="green" stroke-miterlimit="10"/><path d="M296.02 246.48a1.44 1.44 0 1 1 2.88-.002 1.44 1.44 0 0 1-2.88.002" fill-rule="evenodd" fill="#fff"/><path d="M296.02 246.48a1.44 1.44 0 1 1 2.88-.002 1.44 1.44 0 0 1-2.88.002zm0 0" fill="none" stroke-width=".06" stroke-linecap="square" stroke-linejoin="bevel" stroke="#000" stroke-miterlimit="10"/><path d="M310 232.078c0-1.023.832-1.86 1.86-1.86a1.861 1.861 0 0 1 0 3.723 1.862 1.862 0 0 1-1.86-1.863" fill-rule="evenodd" fill="green"/><path d="M310 232.078c0-1.023.832-1.86 1.86-1.86a1.861 1.861 0 0 1 0 3.723 1.862 1.862 0 0 1-1.86-1.863zm0 0" fill="none" stroke-width=".12" stroke-linecap="round" stroke-linejoin="round" stroke="green" stroke-miterlimit="10"/><path d="M310.719 232.078c0-.629.511-1.137 1.14-1.137a1.139 1.139 0 1 1 0 2.278 1.14 1.14 0 0 1-1.14-1.14" fill-rule="evenodd" fill="#fff"/><path d="M310.719 232.078c0-.629.511-1.137 1.14-1.137a1.139 1.139 0 1 1 0 2.278 1.14 1.14 0 0 1-1.14-1.14zm0 0" fill="none" stroke-width=".06" stroke-linecap="square" stroke-linejoin="bevel" stroke="#000" stroke-miterlimit="10"/><path d="M295.602 232.078c0-1.023.832-1.86 1.859-1.86a1.861 1.861 0 0 1 0 3.723 1.862 1.862 0 0 1-1.86-1.863" fill-rule="evenodd" fill="green"/><path d="M295.602 232.078c0-1.023.832-1.86 1.859-1.86a1.861 1.861 0 0 1 0 3.723 1.862 1.862 0 0 1-1.86-1.863zm0 0" fill="none" stroke-width=".12" stroke-linecap="round" stroke-linejoin="round" stroke="green" stroke-miterlimit="10"/><path d="M296.32 232.078c0-.629.508-1.137 1.14-1.137a1.139 1.139 0 1 1 0 2.278c-.632 0-1.14-.508-1.14-1.14" fill-rule="evenodd" fill="#fff"/><path d="M296.32 232.078c0-.629.508-1.137 1.14-1.137a1.139 1.139 0 1 1 0 2.278c-.632 0-1.14-.508-1.14-1.14zm0 0" fill="none" stroke-width=".06" stroke-linecap="square" stroke-linejoin="bevel" stroke="#000" stroke-miterlimit="10"/><path d="M310 203.281a1.859 1.859 0 1 1 3.718 0 1.859 1.859 0 0 1-3.718 0" fill-rule="evenodd" fill="green"/><path d="M310 203.281a1.859 1.859 0 1 1 3.718 0 1.859 1.859 0 0 1-3.718 0zm0 0" fill="none" stroke-width=".12" stroke-linecap="round" stroke-linejoin="round" stroke="green" stroke-miterlimit="10"/><path d="M310.719 203.281a1.14 1.14 0 1 1 2.281 0 1.14 1.14 0 0 1-2.281 0" fill-rule="evenodd" fill="#fff"/><path d="M310.719 203.281a1.14 1.14 0 1 1 2.281 0 1.14 1.14 0 0 1-2.281 0zm0 0" fill="none" stroke-width=".06" stroke-linecap="square" stroke-linejoin="bevel" stroke="#000" stroke-miterlimit="10"/><path d="M310 210.48a1.859 1.859 0 1 1 3.718 0 1.859 1.859 0 0 1-3.718 0" fill-rule="evenodd" fill="green"/><path d="M310 210.48a1.859 1.859 0 1 1 3.718 0 1.859 1.859 0 0 1-3.718 0zm0 0" fill="none" stroke-width=".12" stroke-linecap="round" stroke-linejoin="round" stroke="green" stroke-miterlimit="10"/><path d="M310.719 210.48a1.141 1.141 0 0 1 2.281 0 1.142 1.142 0 0 1-2.281.001" fill-rule="evenodd" fill="#fff"/><path d="M310.719 210.48a1.141 1.141 0 0 1 2.281 0 1.142 1.142 0 0 1-2.281.001zm0 0" fill="none" stroke-width=".06" stroke-linecap="square" stroke-linejoin="bevel" stroke="#000" stroke-miterlimit="10"/><path d="M288.46 210.48a1.859 1.859 0 1 1 3.719 0 1.859 1.859 0 0 1-3.718 0" fill-rule="evenodd" fill="green"/><path d="M288.46 210.48a1.859 1.859 0 1 1 3.719 0 1.859 1.859 0 0 1-3.718 0zm0 0" fill="none" stroke-width=".12" stroke-linecap="round" stroke-linejoin="round" stroke="green" stroke-miterlimit="10"/><path d="M289.18 210.48a1.14 1.14 0 1 1 2.278 0 1.14 1.14 0 0 1-2.278.001" fill-rule="evenodd" fill="#fff"/><path d="M289.18 210.48a1.14 1.14 0 1 1 2.278 0 1.14 1.14 0 0 1-2.278.001zm0 0" fill="none" stroke-width=".06" stroke-linecap="square" stroke-linejoin="bevel" stroke="#000" stroke-miterlimit="10"/><path d="M288.46 203.281a1.859 1.859 0 1 1 3.719 0 1.859 1.859 0 0 1-3.718 0" fill-rule="evenodd" fill="green"/><path d="M288.46 203.281a1.859 1.859 0 1 1 3.719 0 1.859 1.859 0 0 1-3.718 0zm0 0" fill="none" stroke-width=".12" stroke-linecap="round" stroke-linejoin="round" stroke="green" stroke-miterlimit="10"/><path d="M289.18 203.281a1.14 1.14 0 1 1 2.28 0 1.14 1.14 0 1 1-2.28 0" fill-rule="evenodd" fill="#fff"/><path d="M289.18 203.281a1.14 1.14 0 1 1 2.28 0 1.14 1.14 0 1 1-2.28 0zm0 0" fill="none" stroke-width=".06" stroke-linecap="square" stroke-linejoin="bevel" stroke="#000" stroke-miterlimit="10"/><path d="M310 217.68a1.859 1.859 0 1 1 3.718-.001 1.859 1.859 0 0 1-3.718 0" fill-rule="evenodd" fill="green"/><path d="M310 217.68a1.859 1.859 0 1 1 3.718-.001 1.859 1.859 0 0 1-3.718 0zm0 0" fill="none" stroke-width=".12" stroke-linecap="round" stroke-linejoin="round" stroke="green" stroke-miterlimit="10"/><path d="M310.719 217.68a1.14 1.14 0 1 1 2.28 0 1.14 1.14 0 0 1-2.28 0" fill-rule="evenodd" fill="#fff"/><path d="M310.719 217.68a1.14 1.14 0 1 1 2.28 0 1.14 1.14 0 0 1-2.28 0zm0 0" fill="none" stroke-width=".06" stroke-linecap="square" stroke-linejoin="bevel" stroke="#000" stroke-miterlimit="10"/><path d="M310 224.879a1.859 1.859 0 1 1 3.718-.001 1.859 1.859 0 0 1-3.718 0" fill-rule="evenodd" fill="green"/><path d="M310 224.879a1.859 1.859 0 1 1 3.718-.001 1.859 1.859 0 0 1-3.718 0zm0 0" fill="none" stroke-width=".12" stroke-linecap="round" stroke-linejoin="round" stroke="green" stroke-miterlimit="10"/><path d="M310.719 224.879c0-.629.511-1.14 1.14-1.14a1.14 1.14 0 1 1-1.14 1.14" fill-rule="evenodd" fill="#fff"/><path d="M310.719 224.879c0-.629.511-1.14 1.14-1.14a1.14 1.14 0 1 1-1.14 1.14zm0 0" fill="none" stroke-width=".06" stroke-linecap="square" stroke-linejoin="bevel" stroke="#000" stroke-miterlimit="10"/><path d="M288.46 217.68a1.859 1.859 0 1 1 3.719-.001 1.859 1.859 0 0 1-3.718 0" fill-rule="evenodd" fill="green"/><path d="M288.46 217.68a1.859 1.859 0 1 1 3.719-.001 1.859 1.859 0 0 1-3.718 0zm0 0" fill="none" stroke-width=".12" stroke-linecap="round" stroke-linejoin="round" stroke="green" stroke-miterlimit="10"/><path d="M289.18 217.68a1.14 1.14 0 1 1 2.28 0 1.14 1.14 0 0 1-2.28 0" fill-rule="evenodd" fill="#fff"/><path d="M289.18 217.68a1.14 1.14 0 1 1 2.28 0 1.14 1.14 0 0 1-2.28 0zm0 0" fill="none" stroke-width=".06" stroke-linecap="square" stroke-linejoin="bevel" stroke="#000" stroke-miterlimit="10"/><path d="M288.46 224.879a1.859 1.859 0 1 1 3.719-.001 1.859 1.859 0 0 1-3.718 0" fill-rule="evenodd" fill="green"/><path d="M288.46 224.879a1.859 1.859 0 1 1 3.719-.001 1.859 1.859 0 0 1-3.718 0zm0 0" fill="none" stroke-width=".12" stroke-linecap="round" stroke-linejoin="round" stroke="green" stroke-miterlimit="10"/><path d="M289.18 224.879c0-.629.511-1.14 1.14-1.14a1.14 1.14 0 1 1-1.14 1.14" fill-rule="evenodd" fill="#fff"/><path d="M289.18 224.879c0-.629.511-1.14 1.14-1.14a1.14 1.14 0 1 1-1.14 1.14zm0 0" fill="none" stroke-width=".06" stroke-linecap="square" stroke-linejoin="bevel" stroke="#000" stroke-miterlimit="10"/><path d="M291.82 230.64h-2.879v2.88h2.88zm0 0" fill="green" stroke-width=".12" stroke-linecap="round" stroke-linejoin="round" stroke="green" stroke-miterlimit="10"/><path d="M289.48 232.078a.841.841 0 1 1 1.683.003.841.841 0 0 1-1.683-.003" fill-rule="evenodd" fill="#fff"/><path d="M289.48 232.078a.841.841 0 1 1 1.683.003.841.841 0 0 1-1.683-.003zm0 0" fill="none" stroke-width=".06" stroke-linecap="square" stroke-linejoin="bevel" stroke="#000" stroke-miterlimit="10"/><path d="M270.219 230.64h-2.88v2.88h2.88zm0 0" fill="green" stroke-width=".12" stroke-linecap="round" stroke-linejoin="round" stroke="green" stroke-miterlimit="10"/><path d="M267.879 232.078c0-.46.379-.84.84-.84a.841.841 0 0 1 0 1.684.844.844 0 0 1-.84-.844" fill-rule="evenodd" fill="#fff"/><path d="M267.879 232.078c0-.46.379-.84.84-.84a.841.841 0 0 1 0 1.684.844.844 0 0 1-.84-.844zm0 0" fill="none" stroke-width=".06" stroke-linecap="square" stroke-linejoin="bevel" stroke="#000" stroke-miterlimit="10"/><path d="M284.621 180.3h-2.883v2.88h2.883zm0 0" fill="green" stroke-width=".12" stroke-linecap="round" stroke-linejoin="round" stroke="green" stroke-miterlimit="10"/><path d="M282.281 181.738a.841.841 0 1 1 1.682.003.841.841 0 0 1-1.682-.003" fill-rule="evenodd" fill="#fff"/><path d="M282.281 181.738a.841.841 0 1 1 1.682.003.841.841 0 0 1-1.682-.003zm0 0" fill="none" stroke-width=".06" stroke-linecap="square" stroke-linejoin="bevel" stroke="#000" stroke-miterlimit="10"/><path d="M320.559 194.7h-2.88v2.882h2.88zm0 0" fill="green" stroke-width=".12" stroke-linecap="round" stroke-linejoin="round" stroke="green" stroke-miterlimit="10"/><path d="M318.219 196.14a.841.841 0 1 1 1.682.003.841.841 0 0 1-1.682-.002" fill-rule="evenodd" fill="#fff"/><path d="M318.219 196.14a.841.841 0 1 1 1.682.003.841.841 0 0 1-1.682-.002zm0 0" fill="none" stroke-width=".06" stroke-linecap="square" stroke-linejoin="bevel" stroke="#000" stroke-miterlimit="10"/><path d="M320.559 209.04h-2.88v2.882h2.88zm0 0" fill="green" stroke-width=".12" stroke-linecap="round" stroke-linejoin="round" stroke="green" stroke-miterlimit="10"/><path d="M318.219 210.48a.841.841 0 1 1 1.682.003.841.841 0 0 1-1.682-.003" fill-rule="evenodd" fill="#fff"/><path d="M318.219 210.48a.841.841 0 1 1 1.682.003.841.841 0 0 1-1.682-.003zm0 0" fill="none" stroke-width=".06" stroke-linecap="square" stroke-linejoin="bevel" stroke="#000" stroke-miterlimit="10"/><path d="M306.16 237.84h-2.879v2.879h2.88zm0 0" fill="green" stroke-width=".12" stroke-linecap="round" stroke-linejoin="round" stroke="green" stroke-miterlimit="10"/><path d="M303.82 239.281c0-.465.375-.84.84-.84a.841.841 0 1 1-.84.84" fill-rule="evenodd" fill="#fff"/><path d="M303.82 239.281c0-.465.375-.84.84-.84a.841.841 0 1 1-.84.84zm0 0" fill="none" stroke-width=".06" stroke-linecap="square" stroke-linejoin="bevel" stroke="#000" stroke-miterlimit="10"/><path d="M284.621 237.84h-2.883v2.879h2.883zm0 0" fill="green" stroke-width=".12" stroke-linecap="round" stroke-linejoin="round" stroke="green" stroke-miterlimit="10"/><path d="M282.281 239.281c0-.465.375-.84.84-.84a.841.841 0 1 1-.84.84" fill-rule="evenodd" fill="#fff"/><path d="M282.281 239.281c0-.465.375-.84.84-.84a.841.841 0 1 1-.84.84zm0 0" fill="none" stroke-width=".06" stroke-linecap="square" stroke-linejoin="bevel" stroke="#000" stroke-miterlimit="10"/><path d="M257.98 163.738h71.88m0 0v86.34m0 0h-71.88m0 0v-86.34" fill="none" stroke-width=".12" stroke-linecap="round" stroke-linejoin="round" stroke="#000" stroke-miterlimit="10"/></svg>