%
M48
M72
T01C0.02362
T02C0.02756
%
T01
X81600Y91600
X111600Y91600
T02
X21600Y21600
X21600Y31600
X21600Y41600
X21600Y51600
X21600Y61600
X21600Y71600
X21600Y81600
X31600Y91600
X31600Y101600
X21600Y101600
X21600Y121600
X31600Y121600
X11600Y121600
X51600Y91600
X51600Y81600
X51600Y71600
X51600Y61600
X51600Y51600
X51600Y41600
X51600Y31600
X51600Y21600
X61600Y21600
X61600Y31600
X71600Y31600
X81600Y31600
X81600Y21600
X81600Y41600
X81600Y61600
X81600Y71600
X91600Y71600
X101600Y71600
X101600Y61600
X101600Y51600
X101600Y41600
X101600Y31600
X101600Y21600
X131600Y21600
X131600Y31600
X131600Y41600
X131600Y51600
X131600Y61600
X131600Y71600
X131600Y81600
X121600Y91600
X121600Y101600
X131600Y111600
X121600Y111915
X121600Y121600
X131600Y121600
X111600Y121600
X111600Y111600
X101600Y101600
X91600Y111600
X81600Y101600
X71600Y111600
X61600Y101600
X61600Y81600
X71600Y71600
X101600Y81600
X81600Y121600
X71600Y121600
X61600Y121600
X141600Y101600
X141600Y91600
M30
