G75*
%MOIN*%
%OFA0B0*%
%FSLAX25Y25*%
%IPPOS*%
%LPD*%
%AMOC8*
5,1,8,0,0,1.08239X$1,22.5*
%
%ADD10C,0.00600*%
%ADD11C,0.00200*%
%ADD12R,0.01000X0.06400*%
%ADD13C,0.00400*%
%ADD14R,0.01000X0.04000*%
%ADD15C,0.00300*%
%ADD16R,0.04000X0.01000*%
%ADD17C,0.00500*%
%ADD18C,0.00800*%
%ADD19C,0.01000*%
%ADD20R,0.02000X0.01500*%
D10*
X0024500Y0018831D02*
X0047500Y0018831D01*
X0047500Y0088831D01*
X0040000Y0088831D01*
X0039998Y0088705D01*
X0039992Y0088580D01*
X0039982Y0088455D01*
X0039968Y0088330D01*
X0039951Y0088205D01*
X0039929Y0088081D01*
X0039904Y0087958D01*
X0039874Y0087836D01*
X0039841Y0087715D01*
X0039804Y0087595D01*
X0039764Y0087476D01*
X0039719Y0087359D01*
X0039671Y0087242D01*
X0039619Y0087128D01*
X0039564Y0087015D01*
X0039505Y0086904D01*
X0039443Y0086795D01*
X0039377Y0086688D01*
X0039308Y0086583D01*
X0039236Y0086480D01*
X0039161Y0086379D01*
X0039082Y0086281D01*
X0039000Y0086186D01*
X0038916Y0086093D01*
X0038828Y0086003D01*
X0038738Y0085915D01*
X0038645Y0085831D01*
X0038550Y0085749D01*
X0038452Y0085670D01*
X0038351Y0085595D01*
X0038248Y0085523D01*
X0038143Y0085454D01*
X0038036Y0085388D01*
X0037927Y0085326D01*
X0037816Y0085267D01*
X0037703Y0085212D01*
X0037589Y0085160D01*
X0037472Y0085112D01*
X0037355Y0085067D01*
X0037236Y0085027D01*
X0037116Y0084990D01*
X0036995Y0084957D01*
X0036873Y0084927D01*
X0036750Y0084902D01*
X0036626Y0084880D01*
X0036501Y0084863D01*
X0036376Y0084849D01*
X0036251Y0084839D01*
X0036126Y0084833D01*
X0036000Y0084831D01*
X0035874Y0084833D01*
X0035749Y0084839D01*
X0035624Y0084849D01*
X0035499Y0084863D01*
X0035374Y0084880D01*
X0035250Y0084902D01*
X0035127Y0084927D01*
X0035005Y0084957D01*
X0034884Y0084990D01*
X0034764Y0085027D01*
X0034645Y0085067D01*
X0034528Y0085112D01*
X0034411Y0085160D01*
X0034297Y0085212D01*
X0034184Y0085267D01*
X0034073Y0085326D01*
X0033964Y0085388D01*
X0033857Y0085454D01*
X0033752Y0085523D01*
X0033649Y0085595D01*
X0033548Y0085670D01*
X0033450Y0085749D01*
X0033355Y0085831D01*
X0033262Y0085915D01*
X0033172Y0086003D01*
X0033084Y0086093D01*
X0033000Y0086186D01*
X0032918Y0086281D01*
X0032839Y0086379D01*
X0032764Y0086480D01*
X0032692Y0086583D01*
X0032623Y0086688D01*
X0032557Y0086795D01*
X0032495Y0086904D01*
X0032436Y0087015D01*
X0032381Y0087128D01*
X0032329Y0087242D01*
X0032281Y0087359D01*
X0032236Y0087476D01*
X0032196Y0087595D01*
X0032159Y0087715D01*
X0032126Y0087836D01*
X0032096Y0087958D01*
X0032071Y0088081D01*
X0032049Y0088205D01*
X0032032Y0088330D01*
X0032018Y0088455D01*
X0032008Y0088580D01*
X0032002Y0088705D01*
X0032000Y0088831D01*
X0024500Y0088831D01*
X0024500Y0018831D01*
X0067000Y0044831D02*
X0067000Y0046331D01*
X0067500Y0046831D01*
X0067500Y0060831D01*
X0067000Y0061331D01*
X0067000Y0062831D01*
X0067002Y0062891D01*
X0067007Y0062952D01*
X0067016Y0063011D01*
X0067029Y0063070D01*
X0067045Y0063129D01*
X0067065Y0063186D01*
X0067088Y0063241D01*
X0067115Y0063296D01*
X0067144Y0063348D01*
X0067177Y0063399D01*
X0067213Y0063448D01*
X0067251Y0063494D01*
X0067293Y0063538D01*
X0067337Y0063580D01*
X0067383Y0063618D01*
X0067432Y0063654D01*
X0067483Y0063687D01*
X0067535Y0063716D01*
X0067590Y0063743D01*
X0067645Y0063766D01*
X0067702Y0063786D01*
X0067761Y0063802D01*
X0067820Y0063815D01*
X0067879Y0063824D01*
X0067940Y0063829D01*
X0068000Y0063831D01*
X0074000Y0063831D01*
X0074060Y0063829D01*
X0074121Y0063824D01*
X0074180Y0063815D01*
X0074239Y0063802D01*
X0074298Y0063786D01*
X0074355Y0063766D01*
X0074410Y0063743D01*
X0074465Y0063716D01*
X0074517Y0063687D01*
X0074568Y0063654D01*
X0074617Y0063618D01*
X0074663Y0063580D01*
X0074707Y0063538D01*
X0074749Y0063494D01*
X0074787Y0063448D01*
X0074823Y0063399D01*
X0074856Y0063348D01*
X0074885Y0063296D01*
X0074912Y0063241D01*
X0074935Y0063186D01*
X0074955Y0063129D01*
X0074971Y0063070D01*
X0074984Y0063011D01*
X0074993Y0062952D01*
X0074998Y0062891D01*
X0075000Y0062831D01*
X0075000Y0061331D01*
X0074500Y0060831D01*
X0074500Y0046831D01*
X0075000Y0046331D01*
X0075000Y0044831D01*
X0074998Y0044771D01*
X0074993Y0044710D01*
X0074984Y0044651D01*
X0074971Y0044592D01*
X0074955Y0044533D01*
X0074935Y0044476D01*
X0074912Y0044421D01*
X0074885Y0044366D01*
X0074856Y0044314D01*
X0074823Y0044263D01*
X0074787Y0044214D01*
X0074749Y0044168D01*
X0074707Y0044124D01*
X0074663Y0044082D01*
X0074617Y0044044D01*
X0074568Y0044008D01*
X0074517Y0043975D01*
X0074465Y0043946D01*
X0074410Y0043919D01*
X0074355Y0043896D01*
X0074298Y0043876D01*
X0074239Y0043860D01*
X0074180Y0043847D01*
X0074121Y0043838D01*
X0074060Y0043833D01*
X0074000Y0043831D01*
X0068000Y0043831D01*
X0067940Y0043833D01*
X0067879Y0043838D01*
X0067820Y0043847D01*
X0067761Y0043860D01*
X0067702Y0043876D01*
X0067645Y0043896D01*
X0067590Y0043919D01*
X0067535Y0043946D01*
X0067483Y0043975D01*
X0067432Y0044008D01*
X0067383Y0044044D01*
X0067337Y0044082D01*
X0067293Y0044124D01*
X0067251Y0044168D01*
X0067213Y0044214D01*
X0067177Y0044263D01*
X0067144Y0044314D01*
X0067115Y0044366D01*
X0067088Y0044421D01*
X0067065Y0044476D01*
X0067045Y0044533D01*
X0067029Y0044592D01*
X0067016Y0044651D01*
X0067007Y0044710D01*
X0067002Y0044771D01*
X0067000Y0044831D01*
X0067002Y0044771D01*
X0067007Y0044710D01*
X0067016Y0044651D01*
X0067029Y0044592D01*
X0067045Y0044533D01*
X0067065Y0044476D01*
X0067088Y0044421D01*
X0067115Y0044366D01*
X0067144Y0044314D01*
X0067177Y0044263D01*
X0067213Y0044214D01*
X0067251Y0044168D01*
X0067293Y0044124D01*
X0067337Y0044082D01*
X0067383Y0044044D01*
X0067432Y0044008D01*
X0067483Y0043975D01*
X0067535Y0043946D01*
X0067590Y0043919D01*
X0067645Y0043896D01*
X0067702Y0043876D01*
X0067761Y0043860D01*
X0067820Y0043847D01*
X0067879Y0043838D01*
X0067940Y0043833D01*
X0068000Y0043831D01*
X0074000Y0043831D02*
X0074060Y0043833D01*
X0074121Y0043838D01*
X0074180Y0043847D01*
X0074239Y0043860D01*
X0074298Y0043876D01*
X0074355Y0043896D01*
X0074410Y0043919D01*
X0074465Y0043946D01*
X0074517Y0043975D01*
X0074568Y0044008D01*
X0074617Y0044044D01*
X0074663Y0044082D01*
X0074707Y0044124D01*
X0074749Y0044168D01*
X0074787Y0044214D01*
X0074823Y0044263D01*
X0074856Y0044314D01*
X0074885Y0044366D01*
X0074912Y0044421D01*
X0074935Y0044476D01*
X0074955Y0044533D01*
X0074971Y0044592D01*
X0074984Y0044651D01*
X0074993Y0044710D01*
X0074998Y0044771D01*
X0075000Y0044831D01*
X0075000Y0062831D02*
X0074998Y0062891D01*
X0074993Y0062952D01*
X0074984Y0063011D01*
X0074971Y0063070D01*
X0074955Y0063129D01*
X0074935Y0063186D01*
X0074912Y0063241D01*
X0074885Y0063296D01*
X0074856Y0063348D01*
X0074823Y0063399D01*
X0074787Y0063448D01*
X0074749Y0063494D01*
X0074707Y0063538D01*
X0074663Y0063580D01*
X0074617Y0063618D01*
X0074568Y0063654D01*
X0074517Y0063687D01*
X0074465Y0063716D01*
X0074410Y0063743D01*
X0074355Y0063766D01*
X0074298Y0063786D01*
X0074239Y0063802D01*
X0074180Y0063815D01*
X0074121Y0063824D01*
X0074060Y0063829D01*
X0074000Y0063831D01*
X0068000Y0063831D02*
X0067940Y0063829D01*
X0067879Y0063824D01*
X0067820Y0063815D01*
X0067761Y0063802D01*
X0067702Y0063786D01*
X0067645Y0063766D01*
X0067590Y0063743D01*
X0067535Y0063716D01*
X0067483Y0063687D01*
X0067432Y0063654D01*
X0067383Y0063618D01*
X0067337Y0063580D01*
X0067293Y0063538D01*
X0067251Y0063494D01*
X0067213Y0063448D01*
X0067177Y0063399D01*
X0067144Y0063348D01*
X0067115Y0063296D01*
X0067088Y0063241D01*
X0067065Y0063186D01*
X0067045Y0063129D01*
X0067029Y0063070D01*
X0067016Y0063011D01*
X0067007Y0062952D01*
X0067002Y0062891D01*
X0067000Y0062831D01*
X0104500Y0088831D02*
X0112000Y0088831D01*
X0112002Y0088705D01*
X0112008Y0088580D01*
X0112018Y0088455D01*
X0112032Y0088330D01*
X0112049Y0088205D01*
X0112071Y0088081D01*
X0112096Y0087958D01*
X0112126Y0087836D01*
X0112159Y0087715D01*
X0112196Y0087595D01*
X0112236Y0087476D01*
X0112281Y0087359D01*
X0112329Y0087242D01*
X0112381Y0087128D01*
X0112436Y0087015D01*
X0112495Y0086904D01*
X0112557Y0086795D01*
X0112623Y0086688D01*
X0112692Y0086583D01*
X0112764Y0086480D01*
X0112839Y0086379D01*
X0112918Y0086281D01*
X0113000Y0086186D01*
X0113084Y0086093D01*
X0113172Y0086003D01*
X0113262Y0085915D01*
X0113355Y0085831D01*
X0113450Y0085749D01*
X0113548Y0085670D01*
X0113649Y0085595D01*
X0113752Y0085523D01*
X0113857Y0085454D01*
X0113964Y0085388D01*
X0114073Y0085326D01*
X0114184Y0085267D01*
X0114297Y0085212D01*
X0114411Y0085160D01*
X0114528Y0085112D01*
X0114645Y0085067D01*
X0114764Y0085027D01*
X0114884Y0084990D01*
X0115005Y0084957D01*
X0115127Y0084927D01*
X0115250Y0084902D01*
X0115374Y0084880D01*
X0115499Y0084863D01*
X0115624Y0084849D01*
X0115749Y0084839D01*
X0115874Y0084833D01*
X0116000Y0084831D01*
X0116126Y0084833D01*
X0116251Y0084839D01*
X0116376Y0084849D01*
X0116501Y0084863D01*
X0116626Y0084880D01*
X0116750Y0084902D01*
X0116873Y0084927D01*
X0116995Y0084957D01*
X0117116Y0084990D01*
X0117236Y0085027D01*
X0117355Y0085067D01*
X0117472Y0085112D01*
X0117589Y0085160D01*
X0117703Y0085212D01*
X0117816Y0085267D01*
X0117927Y0085326D01*
X0118036Y0085388D01*
X0118143Y0085454D01*
X0118248Y0085523D01*
X0118351Y0085595D01*
X0118452Y0085670D01*
X0118550Y0085749D01*
X0118645Y0085831D01*
X0118738Y0085915D01*
X0118828Y0086003D01*
X0118916Y0086093D01*
X0119000Y0086186D01*
X0119082Y0086281D01*
X0119161Y0086379D01*
X0119236Y0086480D01*
X0119308Y0086583D01*
X0119377Y0086688D01*
X0119443Y0086795D01*
X0119505Y0086904D01*
X0119564Y0087015D01*
X0119619Y0087128D01*
X0119671Y0087242D01*
X0119719Y0087359D01*
X0119764Y0087476D01*
X0119804Y0087595D01*
X0119841Y0087715D01*
X0119874Y0087836D01*
X0119904Y0087958D01*
X0119929Y0088081D01*
X0119951Y0088205D01*
X0119968Y0088330D01*
X0119982Y0088455D01*
X0119992Y0088580D01*
X0119998Y0088705D01*
X0120000Y0088831D01*
X0127500Y0088831D01*
X0127500Y0018831D01*
X0104500Y0018831D01*
X0104500Y0088831D01*
X0018000Y0103831D02*
X0018002Y0104027D01*
X0018010Y0104224D01*
X0018022Y0104420D01*
X0018039Y0104615D01*
X0018060Y0104810D01*
X0018087Y0105005D01*
X0018118Y0105199D01*
X0018154Y0105392D01*
X0018194Y0105584D01*
X0018240Y0105775D01*
X0018290Y0105965D01*
X0018344Y0106153D01*
X0018404Y0106340D01*
X0018468Y0106526D01*
X0018536Y0106710D01*
X0018609Y0106892D01*
X0018686Y0107073D01*
X0018768Y0107251D01*
X0018854Y0107428D01*
X0018945Y0107602D01*
X0019039Y0107774D01*
X0019138Y0107944D01*
X0019241Y0108111D01*
X0019348Y0108276D01*
X0019459Y0108437D01*
X0019574Y0108597D01*
X0019693Y0108753D01*
X0019816Y0108906D01*
X0019942Y0109056D01*
X0020072Y0109203D01*
X0020206Y0109347D01*
X0020343Y0109488D01*
X0020484Y0109625D01*
X0020628Y0109759D01*
X0020775Y0109889D01*
X0020925Y0110015D01*
X0021078Y0110138D01*
X0021234Y0110257D01*
X0021394Y0110372D01*
X0021555Y0110483D01*
X0021720Y0110590D01*
X0021887Y0110693D01*
X0022057Y0110792D01*
X0022229Y0110886D01*
X0022403Y0110977D01*
X0022580Y0111063D01*
X0022758Y0111145D01*
X0022939Y0111222D01*
X0023121Y0111295D01*
X0023305Y0111363D01*
X0023491Y0111427D01*
X0023678Y0111487D01*
X0023866Y0111541D01*
X0024056Y0111591D01*
X0024247Y0111637D01*
X0024439Y0111677D01*
X0024632Y0111713D01*
X0024826Y0111744D01*
X0025021Y0111771D01*
X0025216Y0111792D01*
X0025411Y0111809D01*
X0025607Y0111821D01*
X0025804Y0111829D01*
X0026000Y0111831D01*
X0026196Y0111829D01*
X0026393Y0111821D01*
X0026589Y0111809D01*
X0026784Y0111792D01*
X0026979Y0111771D01*
X0027174Y0111744D01*
X0027368Y0111713D01*
X0027561Y0111677D01*
X0027753Y0111637D01*
X0027944Y0111591D01*
X0028134Y0111541D01*
X0028322Y0111487D01*
X0028509Y0111427D01*
X0028695Y0111363D01*
X0028879Y0111295D01*
X0029061Y0111222D01*
X0029242Y0111145D01*
X0029420Y0111063D01*
X0029597Y0110977D01*
X0029771Y0110886D01*
X0029943Y0110792D01*
X0030113Y0110693D01*
X0030280Y0110590D01*
X0030445Y0110483D01*
X0030606Y0110372D01*
X0030766Y0110257D01*
X0030922Y0110138D01*
X0031075Y0110015D01*
X0031225Y0109889D01*
X0031372Y0109759D01*
X0031516Y0109625D01*
X0031657Y0109488D01*
X0031794Y0109347D01*
X0031928Y0109203D01*
X0032058Y0109056D01*
X0032184Y0108906D01*
X0032307Y0108753D01*
X0032426Y0108597D01*
X0032541Y0108437D01*
X0032652Y0108276D01*
X0032759Y0108111D01*
X0032862Y0107944D01*
X0032961Y0107774D01*
X0033055Y0107602D01*
X0033146Y0107428D01*
X0033232Y0107251D01*
X0033314Y0107073D01*
X0033391Y0106892D01*
X0033464Y0106710D01*
X0033532Y0106526D01*
X0033596Y0106340D01*
X0033656Y0106153D01*
X0033710Y0105965D01*
X0033760Y0105775D01*
X0033806Y0105584D01*
X0033846Y0105392D01*
X0033882Y0105199D01*
X0033913Y0105005D01*
X0033940Y0104810D01*
X0033961Y0104615D01*
X0033978Y0104420D01*
X0033990Y0104224D01*
X0033998Y0104027D01*
X0034000Y0103831D01*
X0033998Y0103635D01*
X0033990Y0103438D01*
X0033978Y0103242D01*
X0033961Y0103047D01*
X0033940Y0102852D01*
X0033913Y0102657D01*
X0033882Y0102463D01*
X0033846Y0102270D01*
X0033806Y0102078D01*
X0033760Y0101887D01*
X0033710Y0101697D01*
X0033656Y0101509D01*
X0033596Y0101322D01*
X0033532Y0101136D01*
X0033464Y0100952D01*
X0033391Y0100770D01*
X0033314Y0100589D01*
X0033232Y0100411D01*
X0033146Y0100234D01*
X0033055Y0100060D01*
X0032961Y0099888D01*
X0032862Y0099718D01*
X0032759Y0099551D01*
X0032652Y0099386D01*
X0032541Y0099225D01*
X0032426Y0099065D01*
X0032307Y0098909D01*
X0032184Y0098756D01*
X0032058Y0098606D01*
X0031928Y0098459D01*
X0031794Y0098315D01*
X0031657Y0098174D01*
X0031516Y0098037D01*
X0031372Y0097903D01*
X0031225Y0097773D01*
X0031075Y0097647D01*
X0030922Y0097524D01*
X0030766Y0097405D01*
X0030606Y0097290D01*
X0030445Y0097179D01*
X0030280Y0097072D01*
X0030113Y0096969D01*
X0029943Y0096870D01*
X0029771Y0096776D01*
X0029597Y0096685D01*
X0029420Y0096599D01*
X0029242Y0096517D01*
X0029061Y0096440D01*
X0028879Y0096367D01*
X0028695Y0096299D01*
X0028509Y0096235D01*
X0028322Y0096175D01*
X0028134Y0096121D01*
X0027944Y0096071D01*
X0027753Y0096025D01*
X0027561Y0095985D01*
X0027368Y0095949D01*
X0027174Y0095918D01*
X0026979Y0095891D01*
X0026784Y0095870D01*
X0026589Y0095853D01*
X0026393Y0095841D01*
X0026196Y0095833D01*
X0026000Y0095831D01*
X0025804Y0095833D01*
X0025607Y0095841D01*
X0025411Y0095853D01*
X0025216Y0095870D01*
X0025021Y0095891D01*
X0024826Y0095918D01*
X0024632Y0095949D01*
X0024439Y0095985D01*
X0024247Y0096025D01*
X0024056Y0096071D01*
X0023866Y0096121D01*
X0023678Y0096175D01*
X0023491Y0096235D01*
X0023305Y0096299D01*
X0023121Y0096367D01*
X0022939Y0096440D01*
X0022758Y0096517D01*
X0022580Y0096599D01*
X0022403Y0096685D01*
X0022229Y0096776D01*
X0022057Y0096870D01*
X0021887Y0096969D01*
X0021720Y0097072D01*
X0021555Y0097179D01*
X0021394Y0097290D01*
X0021234Y0097405D01*
X0021078Y0097524D01*
X0020925Y0097647D01*
X0020775Y0097773D01*
X0020628Y0097903D01*
X0020484Y0098037D01*
X0020343Y0098174D01*
X0020206Y0098315D01*
X0020072Y0098459D01*
X0019942Y0098606D01*
X0019816Y0098756D01*
X0019693Y0098909D01*
X0019574Y0099065D01*
X0019459Y0099225D01*
X0019348Y0099386D01*
X0019241Y0099551D01*
X0019138Y0099718D01*
X0019039Y0099888D01*
X0018945Y0100060D01*
X0018854Y0100234D01*
X0018768Y0100411D01*
X0018686Y0100589D01*
X0018609Y0100770D01*
X0018536Y0100952D01*
X0018468Y0101136D01*
X0018404Y0101322D01*
X0018344Y0101509D01*
X0018290Y0101697D01*
X0018240Y0101887D01*
X0018194Y0102078D01*
X0018154Y0102270D01*
X0018118Y0102463D01*
X0018087Y0102657D01*
X0018060Y0102852D01*
X0018039Y0103047D01*
X0018022Y0103242D01*
X0018010Y0103438D01*
X0018002Y0103635D01*
X0018000Y0103831D01*
X0022000Y0108081D02*
X0022000Y0108831D01*
X0022000Y0109581D01*
X0022000Y0108831D02*
X0022750Y0108831D01*
X0022000Y0108831D02*
X0021250Y0108831D01*
D11*
X0028050Y0110931D02*
X0029518Y0112032D01*
X0028050Y0113133D01*
X0030260Y0113133D02*
X0030260Y0110931D01*
X0031728Y0110931D02*
X0030260Y0113133D01*
X0031728Y0113133D02*
X0031728Y0110931D01*
X0032470Y0110931D02*
X0032470Y0112399D01*
X0033204Y0113133D01*
X0033938Y0112399D01*
X0033938Y0110931D01*
X0034680Y0110931D02*
X0034680Y0113133D01*
X0035414Y0112399D01*
X0036148Y0113133D01*
X0036148Y0110931D01*
X0036890Y0110931D02*
X0036890Y0113133D01*
X0038358Y0113133D01*
X0037624Y0112032D02*
X0036890Y0112032D01*
X0036890Y0110931D02*
X0038358Y0110931D01*
X0042878Y0110931D02*
X0044346Y0112032D01*
X0042878Y0113133D01*
X0045088Y0113133D02*
X0045088Y0111665D01*
X0045822Y0110931D01*
X0046556Y0111665D01*
X0046556Y0113133D01*
X0047298Y0112399D02*
X0048032Y0113133D01*
X0048766Y0112399D01*
X0048766Y0110931D01*
X0049507Y0110931D02*
X0049507Y0113133D01*
X0048766Y0112032D02*
X0047298Y0112032D01*
X0047298Y0112399D02*
X0047298Y0110931D01*
X0049507Y0110931D02*
X0050975Y0110931D01*
X0051717Y0111298D02*
X0051717Y0113133D01*
X0053185Y0113133D02*
X0053185Y0111298D01*
X0052818Y0110931D01*
X0052084Y0110931D01*
X0051717Y0111298D01*
X0053927Y0110931D02*
X0053927Y0113133D01*
X0055395Y0113133D01*
X0054661Y0112032D02*
X0053927Y0112032D01*
X0053927Y0110931D02*
X0055395Y0110931D01*
X0054890Y0104733D02*
X0054890Y0102531D01*
X0056358Y0102531D01*
X0055624Y0103632D02*
X0054890Y0103632D01*
X0054890Y0104733D02*
X0056358Y0104733D01*
X0054148Y0104733D02*
X0054148Y0102531D01*
X0052680Y0102531D02*
X0052680Y0104733D01*
X0053414Y0103999D01*
X0054148Y0104733D01*
X0051938Y0103999D02*
X0051938Y0102531D01*
X0051938Y0103632D02*
X0050470Y0103632D01*
X0050470Y0103999D02*
X0051204Y0104733D01*
X0051938Y0103999D01*
X0050470Y0103999D02*
X0050470Y0102531D01*
X0049728Y0102531D02*
X0049728Y0104733D01*
X0048260Y0104733D02*
X0048260Y0102531D01*
X0047518Y0103632D02*
X0046050Y0102531D01*
X0047518Y0103632D02*
X0046050Y0104733D01*
X0048260Y0104733D02*
X0049728Y0102531D01*
X0040358Y0089933D02*
X0038890Y0089933D01*
X0038890Y0087731D01*
X0040358Y0087731D01*
X0039624Y0088832D02*
X0038890Y0088832D01*
X0038148Y0088098D02*
X0038148Y0089933D01*
X0036680Y0089933D02*
X0036680Y0088098D01*
X0037047Y0087731D01*
X0037781Y0087731D01*
X0038148Y0088098D01*
X0035938Y0087731D02*
X0034470Y0087731D01*
X0034470Y0089933D01*
X0033728Y0089199D02*
X0033728Y0087731D01*
X0033728Y0088832D02*
X0032260Y0088832D01*
X0032260Y0089199D02*
X0032994Y0089933D01*
X0033728Y0089199D01*
X0032260Y0089199D02*
X0032260Y0087731D01*
X0031518Y0088465D02*
X0031518Y0089933D01*
X0030050Y0089933D02*
X0030050Y0088465D01*
X0030784Y0087731D01*
X0031518Y0088465D01*
X0029308Y0088832D02*
X0027841Y0087731D01*
X0029308Y0088832D02*
X0027841Y0089933D01*
X0021900Y0090091D02*
X0019698Y0090091D01*
X0021900Y0091559D01*
X0019698Y0091559D01*
X0020432Y0092301D02*
X0019698Y0093035D01*
X0020432Y0093769D01*
X0021900Y0093769D01*
X0021900Y0094511D02*
X0019698Y0094511D01*
X0020432Y0095245D01*
X0019698Y0095979D01*
X0021900Y0095979D01*
X0021900Y0096721D02*
X0021900Y0098189D01*
X0020799Y0097455D02*
X0020799Y0096721D01*
X0019698Y0096721D02*
X0021900Y0096721D01*
X0019698Y0096721D02*
X0019698Y0098189D01*
X0020799Y0093769D02*
X0020799Y0092301D01*
X0020432Y0092301D02*
X0021900Y0092301D01*
X0020799Y0089349D02*
X0021900Y0087881D01*
X0020799Y0089349D02*
X0019698Y0087881D01*
X0032470Y0112032D02*
X0033938Y0112032D01*
X0067841Y0109933D02*
X0069308Y0108832D01*
X0067841Y0107731D01*
X0070050Y0108465D02*
X0070784Y0107731D01*
X0071518Y0108465D01*
X0071518Y0109933D01*
X0072260Y0109199D02*
X0072260Y0107731D01*
X0072260Y0108832D02*
X0073728Y0108832D01*
X0073728Y0109199D02*
X0073728Y0107731D01*
X0074470Y0107731D02*
X0075938Y0107731D01*
X0076680Y0108098D02*
X0076680Y0109933D01*
X0078148Y0109933D02*
X0078148Y0108098D01*
X0077781Y0107731D01*
X0077047Y0107731D01*
X0076680Y0108098D01*
X0077100Y0106226D02*
X0077100Y0104758D01*
X0074898Y0104758D01*
X0074898Y0106226D01*
X0075999Y0105492D02*
X0075999Y0104758D01*
X0076733Y0104016D02*
X0074898Y0104016D01*
X0074898Y0102548D02*
X0076733Y0102548D01*
X0077100Y0102915D01*
X0077100Y0103649D01*
X0076733Y0104016D01*
X0077100Y0101806D02*
X0077100Y0100338D01*
X0074898Y0100338D01*
X0074588Y0099933D02*
X0076056Y0097731D01*
X0076056Y0099933D01*
X0075999Y0099596D02*
X0075999Y0098129D01*
X0075632Y0098129D02*
X0074898Y0098862D01*
X0075632Y0099596D01*
X0077100Y0099596D01*
X0076798Y0099199D02*
X0077532Y0099933D01*
X0078266Y0099199D01*
X0078266Y0097731D01*
X0079007Y0097731D02*
X0079007Y0099933D01*
X0079741Y0099199D01*
X0080475Y0099933D01*
X0080475Y0097731D01*
X0081217Y0097731D02*
X0082685Y0097731D01*
X0081951Y0098832D02*
X0081217Y0098832D01*
X0081217Y0099933D02*
X0081217Y0097731D01*
X0081217Y0099933D02*
X0082685Y0099933D01*
X0078266Y0098832D02*
X0076798Y0098832D01*
X0076798Y0099199D02*
X0076798Y0097731D01*
X0077100Y0098129D02*
X0075632Y0098129D01*
X0076366Y0097387D02*
X0074898Y0097387D01*
X0074588Y0097731D02*
X0074588Y0099933D01*
X0073846Y0098832D02*
X0072378Y0097731D01*
X0073846Y0098832D02*
X0072378Y0099933D01*
X0076366Y0097387D02*
X0077100Y0096653D01*
X0076366Y0095919D01*
X0074898Y0095919D01*
X0075999Y0095177D02*
X0074898Y0093709D01*
X0075999Y0095177D02*
X0077100Y0093709D01*
X0088550Y0097731D02*
X0090018Y0098832D01*
X0088550Y0099933D01*
X0090760Y0099933D02*
X0090760Y0097731D01*
X0092228Y0097731D02*
X0090760Y0099933D01*
X0092228Y0099933D02*
X0092228Y0097731D01*
X0092970Y0097731D02*
X0092970Y0099199D01*
X0093704Y0099933D01*
X0094438Y0099199D01*
X0094438Y0097731D01*
X0095180Y0097731D02*
X0095180Y0099933D01*
X0095914Y0099199D01*
X0096648Y0099933D01*
X0096648Y0097731D01*
X0097390Y0097731D02*
X0097390Y0099933D01*
X0098858Y0099933D01*
X0098124Y0098832D02*
X0097390Y0098832D01*
X0097390Y0097731D02*
X0098858Y0097731D01*
X0094438Y0098832D02*
X0092970Y0098832D01*
X0092878Y0110931D02*
X0094346Y0112032D01*
X0092878Y0113133D01*
X0095088Y0113133D02*
X0095088Y0111665D01*
X0095822Y0110931D01*
X0096556Y0111665D01*
X0096556Y0113133D01*
X0097298Y0112399D02*
X0097298Y0110931D01*
X0097298Y0112032D02*
X0098766Y0112032D01*
X0098766Y0112399D02*
X0098766Y0110931D01*
X0099507Y0110931D02*
X0099507Y0113133D01*
X0098766Y0112399D02*
X0098032Y0113133D01*
X0097298Y0112399D01*
X0099507Y0110931D02*
X0100975Y0110931D01*
X0101717Y0111298D02*
X0102084Y0110931D01*
X0102818Y0110931D01*
X0103185Y0111298D01*
X0103185Y0113133D01*
X0103927Y0113133D02*
X0103927Y0110931D01*
X0105395Y0110931D01*
X0104661Y0112032D02*
X0103927Y0112032D01*
X0103927Y0113133D02*
X0105395Y0113133D01*
X0101717Y0113133D02*
X0101717Y0111298D01*
X0112378Y0117731D02*
X0113846Y0118832D01*
X0112378Y0119933D01*
X0114588Y0119933D02*
X0116056Y0117731D01*
X0116056Y0119933D01*
X0116798Y0119199D02*
X0117532Y0119933D01*
X0118266Y0119199D01*
X0118266Y0117731D01*
X0119007Y0117731D02*
X0119007Y0119933D01*
X0119741Y0119199D01*
X0120475Y0119933D01*
X0120475Y0117731D01*
X0121217Y0117731D02*
X0122685Y0117731D01*
X0121951Y0118832D02*
X0121217Y0118832D01*
X0121217Y0119933D02*
X0121217Y0117731D01*
X0118266Y0118832D02*
X0116798Y0118832D01*
X0116798Y0119199D02*
X0116798Y0117731D01*
X0114588Y0117731D02*
X0114588Y0119933D01*
X0121217Y0119933D02*
X0122685Y0119933D01*
X0130878Y0109933D02*
X0132346Y0108832D01*
X0130878Y0107731D01*
X0133088Y0108465D02*
X0133822Y0107731D01*
X0134556Y0108465D01*
X0134556Y0109933D01*
X0135298Y0109199D02*
X0136032Y0109933D01*
X0136766Y0109199D01*
X0136766Y0107731D01*
X0137507Y0107731D02*
X0137507Y0109933D01*
X0136766Y0108832D02*
X0135298Y0108832D01*
X0135298Y0109199D02*
X0135298Y0107731D01*
X0133088Y0108465D02*
X0133088Y0109933D01*
X0137507Y0107731D02*
X0138975Y0107731D01*
X0139717Y0108098D02*
X0140084Y0107731D01*
X0140818Y0107731D01*
X0141185Y0108098D01*
X0141185Y0109933D01*
X0141927Y0109933D02*
X0141927Y0107731D01*
X0143395Y0107731D01*
X0142661Y0108832D02*
X0141927Y0108832D01*
X0141927Y0109933D02*
X0143395Y0109933D01*
X0139717Y0109933D02*
X0139717Y0108098D01*
X0138358Y0101633D02*
X0136890Y0101633D01*
X0136890Y0099431D01*
X0138358Y0099431D01*
X0137624Y0100532D02*
X0136890Y0100532D01*
X0136148Y0101633D02*
X0136148Y0099431D01*
X0134680Y0099431D02*
X0134680Y0101633D01*
X0135414Y0100899D01*
X0136148Y0101633D01*
X0133938Y0100899D02*
X0133938Y0099431D01*
X0133938Y0100532D02*
X0132470Y0100532D01*
X0132470Y0100899D02*
X0133204Y0101633D01*
X0133938Y0100899D01*
X0132470Y0100899D02*
X0132470Y0099431D01*
X0131728Y0099431D02*
X0131728Y0101633D01*
X0130260Y0101633D02*
X0130260Y0099431D01*
X0129518Y0100532D02*
X0128050Y0101633D01*
X0129518Y0100532D02*
X0128050Y0099431D01*
X0130260Y0101633D02*
X0131728Y0099431D01*
X0139698Y0137709D02*
X0140799Y0139177D01*
X0141900Y0137709D01*
X0141900Y0139919D02*
X0139698Y0139919D01*
X0141900Y0141387D01*
X0139698Y0141387D01*
X0140432Y0142129D02*
X0139698Y0142862D01*
X0140432Y0143596D01*
X0141900Y0143596D01*
X0141900Y0144338D02*
X0139698Y0144338D01*
X0140432Y0145072D01*
X0139698Y0145806D01*
X0141900Y0145806D01*
X0141900Y0146548D02*
X0139698Y0146548D01*
X0139698Y0148016D01*
X0139698Y0147709D02*
X0140799Y0149177D01*
X0141900Y0147709D01*
X0141900Y0148016D02*
X0141900Y0146548D01*
X0140799Y0146548D02*
X0140799Y0147282D01*
X0139698Y0149919D02*
X0141900Y0151387D01*
X0139698Y0151387D01*
X0140432Y0152129D02*
X0139698Y0152862D01*
X0140432Y0153596D01*
X0141900Y0153596D01*
X0141900Y0154338D02*
X0139698Y0154338D01*
X0140432Y0155072D01*
X0139698Y0155806D01*
X0141900Y0155806D01*
X0141900Y0156548D02*
X0139698Y0156548D01*
X0139698Y0158016D01*
X0140799Y0157282D02*
X0140799Y0156548D01*
X0141900Y0156548D02*
X0141900Y0158016D01*
X0140799Y0153596D02*
X0140799Y0152129D01*
X0140432Y0152129D02*
X0141900Y0152129D01*
X0141900Y0149919D02*
X0139698Y0149919D01*
X0140799Y0143596D02*
X0140799Y0142129D01*
X0140432Y0142129D02*
X0141900Y0142129D01*
X0112358Y0141233D02*
X0110890Y0141233D01*
X0110890Y0139031D01*
X0112358Y0139031D01*
X0111624Y0140132D02*
X0110890Y0140132D01*
X0110148Y0139398D02*
X0109781Y0139031D01*
X0109047Y0139031D01*
X0108680Y0139398D01*
X0108680Y0141233D01*
X0110148Y0141233D02*
X0110148Y0139398D01*
X0107938Y0139031D02*
X0106470Y0139031D01*
X0106470Y0141233D01*
X0105728Y0140499D02*
X0105728Y0139031D01*
X0105728Y0140132D02*
X0104260Y0140132D01*
X0104260Y0140499D02*
X0104994Y0141233D01*
X0105728Y0140499D01*
X0104260Y0140499D02*
X0104260Y0139031D01*
X0103518Y0139765D02*
X0103518Y0141233D01*
X0102050Y0141233D02*
X0102050Y0139765D01*
X0102784Y0139031D01*
X0103518Y0139765D01*
X0101308Y0140132D02*
X0099841Y0139031D01*
X0101308Y0140132D02*
X0099841Y0141233D01*
X0084300Y0127226D02*
X0084300Y0125758D01*
X0082098Y0125758D01*
X0082098Y0127226D01*
X0083199Y0126492D02*
X0083199Y0125758D01*
X0083933Y0125016D02*
X0082098Y0125016D01*
X0082098Y0123548D02*
X0083933Y0123548D01*
X0084300Y0123915D01*
X0084300Y0124649D01*
X0083933Y0125016D01*
X0084300Y0122806D02*
X0084300Y0121338D01*
X0082098Y0121338D01*
X0082832Y0120596D02*
X0084300Y0120596D01*
X0083199Y0120596D02*
X0083199Y0119129D01*
X0082832Y0119129D02*
X0084300Y0119129D01*
X0083566Y0118387D02*
X0082098Y0118387D01*
X0082832Y0119129D02*
X0082098Y0119862D01*
X0082832Y0120596D01*
X0083566Y0118387D02*
X0084300Y0117653D01*
X0083566Y0116919D01*
X0082098Y0116919D01*
X0083199Y0116177D02*
X0084300Y0114709D01*
X0084680Y0113133D02*
X0085414Y0112399D01*
X0086148Y0113133D01*
X0086148Y0110931D01*
X0086890Y0110931D02*
X0088358Y0110931D01*
X0087624Y0112032D02*
X0086890Y0112032D01*
X0086890Y0113133D02*
X0086890Y0110931D01*
X0086890Y0113133D02*
X0088358Y0113133D01*
X0084680Y0113133D02*
X0084680Y0110931D01*
X0083938Y0110931D02*
X0083938Y0112399D01*
X0083204Y0113133D01*
X0082470Y0112399D01*
X0082470Y0110931D01*
X0081728Y0110931D02*
X0081728Y0113133D01*
X0082470Y0112032D02*
X0083938Y0112032D01*
X0081728Y0110931D02*
X0080260Y0113133D01*
X0080260Y0110931D01*
X0080358Y0109933D02*
X0078890Y0109933D01*
X0078890Y0107731D01*
X0080358Y0107731D01*
X0079624Y0108832D02*
X0078890Y0108832D01*
X0078050Y0110931D02*
X0079518Y0112032D01*
X0078050Y0113133D01*
X0074470Y0109933D02*
X0074470Y0107731D01*
X0073728Y0109199D02*
X0072994Y0109933D01*
X0072260Y0109199D01*
X0070050Y0109933D02*
X0070050Y0108465D01*
X0082098Y0114709D02*
X0083199Y0116177D01*
X0087698Y0072189D02*
X0087698Y0070721D01*
X0089900Y0070721D01*
X0089900Y0072189D01*
X0088799Y0071455D02*
X0088799Y0070721D01*
X0087698Y0069979D02*
X0089900Y0069979D01*
X0089900Y0068511D02*
X0087698Y0068511D01*
X0088432Y0069245D01*
X0087698Y0069979D01*
X0088432Y0067769D02*
X0089900Y0067769D01*
X0088799Y0067769D02*
X0088799Y0066301D01*
X0088432Y0066301D02*
X0087698Y0067035D01*
X0088432Y0067769D01*
X0088432Y0066301D02*
X0089900Y0066301D01*
X0089900Y0065559D02*
X0087698Y0065559D01*
X0087698Y0064091D02*
X0089900Y0065559D01*
X0089900Y0064091D02*
X0087698Y0064091D01*
X0088799Y0063349D02*
X0089900Y0061881D01*
X0088799Y0063349D02*
X0087698Y0061881D01*
X0087100Y0061689D02*
X0087100Y0060221D01*
X0084898Y0060221D01*
X0084898Y0061689D01*
X0085999Y0060955D02*
X0085999Y0060221D01*
X0084898Y0059479D02*
X0087100Y0059479D01*
X0087100Y0058011D02*
X0084898Y0058011D01*
X0085632Y0058745D01*
X0084898Y0059479D01*
X0085632Y0057269D02*
X0087100Y0057269D01*
X0085999Y0057269D02*
X0085999Y0055801D01*
X0085632Y0055801D02*
X0084898Y0056535D01*
X0085632Y0057269D01*
X0085632Y0055801D02*
X0087100Y0055801D01*
X0087100Y0055059D02*
X0084898Y0055059D01*
X0084898Y0053591D02*
X0087100Y0055059D01*
X0087100Y0053591D02*
X0084898Y0053591D01*
X0085999Y0052849D02*
X0087100Y0051381D01*
X0085999Y0052849D02*
X0084898Y0051381D01*
X0087473Y0049468D02*
X0087473Y0048267D01*
X0089275Y0048267D01*
X0089275Y0049468D01*
X0088374Y0048868D02*
X0088374Y0048267D01*
X0087473Y0047627D02*
X0089275Y0047627D01*
X0089275Y0046426D02*
X0087473Y0046426D01*
X0088074Y0047026D01*
X0087473Y0047627D01*
X0088074Y0045785D02*
X0087473Y0045185D01*
X0088074Y0044584D01*
X0089275Y0044584D01*
X0089275Y0043944D02*
X0087473Y0043944D01*
X0088374Y0044584D02*
X0088374Y0045785D01*
X0088074Y0045785D02*
X0089275Y0045785D01*
X0089275Y0043944D02*
X0087473Y0042743D01*
X0089275Y0042743D01*
X0088374Y0042102D02*
X0089275Y0040901D01*
X0088374Y0042102D02*
X0087473Y0040901D01*
X0069275Y0040901D02*
X0068374Y0042102D01*
X0067473Y0040901D01*
X0067473Y0042743D02*
X0069275Y0043944D01*
X0067473Y0043944D01*
X0068074Y0044584D02*
X0067473Y0045185D01*
X0068074Y0045785D01*
X0069275Y0045785D01*
X0069275Y0046426D02*
X0067473Y0046426D01*
X0068074Y0047026D01*
X0067473Y0047627D01*
X0069275Y0047627D01*
X0069275Y0048267D02*
X0069275Y0049468D01*
X0068374Y0048868D02*
X0068374Y0048267D01*
X0067473Y0048267D02*
X0069275Y0048267D01*
X0067473Y0048267D02*
X0067473Y0049468D01*
X0068374Y0045785D02*
X0068374Y0044584D01*
X0068074Y0044584D02*
X0069275Y0044584D01*
X0069275Y0042743D02*
X0067473Y0042743D01*
X0067858Y0070031D02*
X0066390Y0070031D01*
X0066390Y0072233D01*
X0067858Y0072233D01*
X0067124Y0071132D02*
X0066390Y0071132D01*
X0065648Y0072233D02*
X0065648Y0070031D01*
X0064180Y0070031D02*
X0064180Y0072233D01*
X0064914Y0071499D01*
X0065648Y0072233D01*
X0063438Y0071499D02*
X0063438Y0070031D01*
X0063438Y0071132D02*
X0061970Y0071132D01*
X0061970Y0071499D02*
X0062704Y0072233D01*
X0063438Y0071499D01*
X0061970Y0071499D02*
X0061970Y0070031D01*
X0061228Y0070031D02*
X0061228Y0072233D01*
X0059760Y0072233D02*
X0059760Y0070031D01*
X0059018Y0071132D02*
X0057550Y0072233D01*
X0059018Y0071132D02*
X0057550Y0070031D01*
X0059760Y0072233D02*
X0061228Y0070031D01*
X0038150Y0148709D02*
X0037049Y0150177D01*
X0035948Y0148709D01*
X0035948Y0150919D02*
X0037416Y0150919D01*
X0038150Y0151653D01*
X0037416Y0152387D01*
X0035948Y0152387D01*
X0036682Y0153129D02*
X0035948Y0153862D01*
X0036682Y0154596D01*
X0038150Y0154596D01*
X0038150Y0155338D02*
X0038150Y0156806D01*
X0037783Y0157548D02*
X0038150Y0157915D01*
X0038150Y0158649D01*
X0037783Y0159016D01*
X0035948Y0159016D01*
X0035948Y0159758D02*
X0038150Y0159758D01*
X0038150Y0161226D01*
X0037049Y0160492D02*
X0037049Y0159758D01*
X0035948Y0159758D02*
X0035948Y0161226D01*
X0035948Y0157548D02*
X0037783Y0157548D01*
X0038150Y0155338D02*
X0035948Y0155338D01*
X0037049Y0154596D02*
X0037049Y0153129D01*
X0036682Y0153129D02*
X0038150Y0153129D01*
D12*
X0027500Y0103831D03*
D13*
X0034000Y0096331D02*
X0048000Y0096331D01*
X0048076Y0096329D01*
X0048152Y0096323D01*
X0048227Y0096314D01*
X0048302Y0096300D01*
X0048376Y0096283D01*
X0048449Y0096262D01*
X0048521Y0096238D01*
X0048592Y0096209D01*
X0048661Y0096178D01*
X0048728Y0096143D01*
X0048793Y0096104D01*
X0048857Y0096062D01*
X0048918Y0096017D01*
X0048977Y0095969D01*
X0049033Y0095918D01*
X0049087Y0095864D01*
X0049138Y0095808D01*
X0049186Y0095749D01*
X0049231Y0095688D01*
X0049273Y0095624D01*
X0049312Y0095559D01*
X0049347Y0095492D01*
X0049378Y0095423D01*
X0049407Y0095352D01*
X0049431Y0095280D01*
X0049452Y0095207D01*
X0049469Y0095133D01*
X0049483Y0095058D01*
X0049492Y0094983D01*
X0049498Y0094907D01*
X0049500Y0094831D01*
X0049500Y0092831D01*
X0049498Y0092755D01*
X0049492Y0092679D01*
X0049483Y0092604D01*
X0049469Y0092529D01*
X0049452Y0092455D01*
X0049431Y0092382D01*
X0049407Y0092310D01*
X0049378Y0092239D01*
X0049347Y0092170D01*
X0049312Y0092103D01*
X0049273Y0092038D01*
X0049231Y0091974D01*
X0049186Y0091913D01*
X0049138Y0091854D01*
X0049087Y0091798D01*
X0049033Y0091744D01*
X0048977Y0091693D01*
X0048918Y0091645D01*
X0048857Y0091600D01*
X0048793Y0091558D01*
X0048728Y0091519D01*
X0048661Y0091484D01*
X0048592Y0091453D01*
X0048521Y0091424D01*
X0048449Y0091400D01*
X0048376Y0091379D01*
X0048302Y0091362D01*
X0048227Y0091348D01*
X0048152Y0091339D01*
X0048076Y0091333D01*
X0048000Y0091331D01*
X0034000Y0091331D01*
X0033924Y0091333D01*
X0033848Y0091339D01*
X0033773Y0091348D01*
X0033698Y0091362D01*
X0033624Y0091379D01*
X0033551Y0091400D01*
X0033479Y0091424D01*
X0033408Y0091453D01*
X0033339Y0091484D01*
X0033272Y0091519D01*
X0033207Y0091558D01*
X0033143Y0091600D01*
X0033082Y0091645D01*
X0033023Y0091693D01*
X0032967Y0091744D01*
X0032913Y0091798D01*
X0032862Y0091854D01*
X0032814Y0091913D01*
X0032769Y0091974D01*
X0032727Y0092038D01*
X0032688Y0092103D01*
X0032653Y0092170D01*
X0032622Y0092239D01*
X0032593Y0092310D01*
X0032569Y0092382D01*
X0032548Y0092455D01*
X0032531Y0092529D01*
X0032517Y0092604D01*
X0032508Y0092679D01*
X0032502Y0092755D01*
X0032500Y0092831D01*
X0032500Y0094831D01*
X0032502Y0094907D01*
X0032508Y0094983D01*
X0032517Y0095058D01*
X0032531Y0095133D01*
X0032548Y0095207D01*
X0032569Y0095280D01*
X0032593Y0095352D01*
X0032622Y0095423D01*
X0032653Y0095492D01*
X0032688Y0095559D01*
X0032727Y0095624D01*
X0032769Y0095688D01*
X0032814Y0095749D01*
X0032862Y0095808D01*
X0032913Y0095864D01*
X0032967Y0095918D01*
X0033023Y0095969D01*
X0033082Y0096017D01*
X0033143Y0096062D01*
X0033207Y0096104D01*
X0033272Y0096143D01*
X0033339Y0096178D01*
X0033408Y0096209D01*
X0033479Y0096238D01*
X0033551Y0096262D01*
X0033624Y0096283D01*
X0033698Y0096300D01*
X0033773Y0096314D01*
X0033848Y0096323D01*
X0033924Y0096329D01*
X0034000Y0096331D01*
X0058500Y0100831D02*
X0058500Y0086831D01*
X0058502Y0086755D01*
X0058508Y0086679D01*
X0058517Y0086604D01*
X0058531Y0086529D01*
X0058548Y0086455D01*
X0058569Y0086382D01*
X0058593Y0086310D01*
X0058622Y0086239D01*
X0058653Y0086170D01*
X0058688Y0086103D01*
X0058727Y0086038D01*
X0058769Y0085974D01*
X0058814Y0085913D01*
X0058862Y0085854D01*
X0058913Y0085798D01*
X0058967Y0085744D01*
X0059023Y0085693D01*
X0059082Y0085645D01*
X0059143Y0085600D01*
X0059207Y0085558D01*
X0059272Y0085519D01*
X0059339Y0085484D01*
X0059408Y0085453D01*
X0059479Y0085424D01*
X0059551Y0085400D01*
X0059624Y0085379D01*
X0059698Y0085362D01*
X0059773Y0085348D01*
X0059848Y0085339D01*
X0059924Y0085333D01*
X0060000Y0085331D01*
X0062000Y0085331D01*
X0062076Y0085333D01*
X0062152Y0085339D01*
X0062227Y0085348D01*
X0062302Y0085362D01*
X0062376Y0085379D01*
X0062449Y0085400D01*
X0062521Y0085424D01*
X0062592Y0085453D01*
X0062661Y0085484D01*
X0062728Y0085519D01*
X0062793Y0085558D01*
X0062857Y0085600D01*
X0062918Y0085645D01*
X0062977Y0085693D01*
X0063033Y0085744D01*
X0063087Y0085798D01*
X0063138Y0085854D01*
X0063186Y0085913D01*
X0063231Y0085974D01*
X0063273Y0086038D01*
X0063312Y0086103D01*
X0063347Y0086170D01*
X0063378Y0086239D01*
X0063407Y0086310D01*
X0063431Y0086382D01*
X0063452Y0086455D01*
X0063469Y0086529D01*
X0063483Y0086604D01*
X0063492Y0086679D01*
X0063498Y0086755D01*
X0063500Y0086831D01*
X0063500Y0100831D01*
X0063498Y0100907D01*
X0063492Y0100983D01*
X0063483Y0101058D01*
X0063469Y0101133D01*
X0063452Y0101207D01*
X0063431Y0101280D01*
X0063407Y0101352D01*
X0063378Y0101423D01*
X0063347Y0101492D01*
X0063312Y0101559D01*
X0063273Y0101624D01*
X0063231Y0101688D01*
X0063186Y0101749D01*
X0063138Y0101808D01*
X0063087Y0101864D01*
X0063033Y0101918D01*
X0062977Y0101969D01*
X0062918Y0102017D01*
X0062857Y0102062D01*
X0062793Y0102104D01*
X0062728Y0102143D01*
X0062661Y0102178D01*
X0062592Y0102209D01*
X0062521Y0102238D01*
X0062449Y0102262D01*
X0062376Y0102283D01*
X0062302Y0102300D01*
X0062227Y0102314D01*
X0062152Y0102323D01*
X0062076Y0102329D01*
X0062000Y0102331D01*
X0060000Y0102331D01*
X0059924Y0102329D01*
X0059848Y0102323D01*
X0059773Y0102314D01*
X0059698Y0102300D01*
X0059624Y0102283D01*
X0059551Y0102262D01*
X0059479Y0102238D01*
X0059408Y0102209D01*
X0059339Y0102178D01*
X0059272Y0102143D01*
X0059207Y0102104D01*
X0059143Y0102062D01*
X0059082Y0102017D01*
X0059023Y0101969D01*
X0058967Y0101918D01*
X0058913Y0101864D01*
X0058862Y0101808D01*
X0058814Y0101749D01*
X0058769Y0101688D01*
X0058727Y0101624D01*
X0058688Y0101559D01*
X0058653Y0101492D01*
X0058622Y0101423D01*
X0058593Y0101352D01*
X0058569Y0101280D01*
X0058548Y0101207D01*
X0058531Y0101133D01*
X0058517Y0101058D01*
X0058508Y0100983D01*
X0058502Y0100907D01*
X0058500Y0100831D01*
X0072500Y0112831D02*
X0072500Y0114831D01*
X0072502Y0114907D01*
X0072508Y0114983D01*
X0072517Y0115058D01*
X0072531Y0115133D01*
X0072548Y0115207D01*
X0072569Y0115280D01*
X0072593Y0115352D01*
X0072622Y0115423D01*
X0072653Y0115492D01*
X0072688Y0115559D01*
X0072727Y0115624D01*
X0072769Y0115688D01*
X0072814Y0115749D01*
X0072862Y0115808D01*
X0072913Y0115864D01*
X0072967Y0115918D01*
X0073023Y0115969D01*
X0073082Y0116017D01*
X0073143Y0116062D01*
X0073207Y0116104D01*
X0073272Y0116143D01*
X0073339Y0116178D01*
X0073408Y0116209D01*
X0073479Y0116238D01*
X0073551Y0116262D01*
X0073624Y0116283D01*
X0073698Y0116300D01*
X0073773Y0116314D01*
X0073848Y0116323D01*
X0073924Y0116329D01*
X0074000Y0116331D01*
X0088000Y0116331D01*
X0088076Y0116329D01*
X0088152Y0116323D01*
X0088227Y0116314D01*
X0088302Y0116300D01*
X0088376Y0116283D01*
X0088449Y0116262D01*
X0088521Y0116238D01*
X0088592Y0116209D01*
X0088661Y0116178D01*
X0088728Y0116143D01*
X0088793Y0116104D01*
X0088857Y0116062D01*
X0088918Y0116017D01*
X0088977Y0115969D01*
X0089033Y0115918D01*
X0089087Y0115864D01*
X0089138Y0115808D01*
X0089186Y0115749D01*
X0089231Y0115688D01*
X0089273Y0115624D01*
X0089312Y0115559D01*
X0089347Y0115492D01*
X0089378Y0115423D01*
X0089407Y0115352D01*
X0089431Y0115280D01*
X0089452Y0115207D01*
X0089469Y0115133D01*
X0089483Y0115058D01*
X0089492Y0114983D01*
X0089498Y0114907D01*
X0089500Y0114831D01*
X0089500Y0112831D01*
X0089498Y0112755D01*
X0089492Y0112679D01*
X0089483Y0112604D01*
X0089469Y0112529D01*
X0089452Y0112455D01*
X0089431Y0112382D01*
X0089407Y0112310D01*
X0089378Y0112239D01*
X0089347Y0112170D01*
X0089312Y0112103D01*
X0089273Y0112038D01*
X0089231Y0111974D01*
X0089186Y0111913D01*
X0089138Y0111854D01*
X0089087Y0111798D01*
X0089033Y0111744D01*
X0088977Y0111693D01*
X0088918Y0111645D01*
X0088857Y0111600D01*
X0088793Y0111558D01*
X0088728Y0111519D01*
X0088661Y0111484D01*
X0088592Y0111453D01*
X0088521Y0111424D01*
X0088449Y0111400D01*
X0088376Y0111379D01*
X0088302Y0111362D01*
X0088227Y0111348D01*
X0088152Y0111339D01*
X0088076Y0111333D01*
X0088000Y0111331D01*
X0074000Y0111331D01*
X0073924Y0111333D01*
X0073848Y0111339D01*
X0073773Y0111348D01*
X0073698Y0111362D01*
X0073624Y0111379D01*
X0073551Y0111400D01*
X0073479Y0111424D01*
X0073408Y0111453D01*
X0073339Y0111484D01*
X0073272Y0111519D01*
X0073207Y0111558D01*
X0073143Y0111600D01*
X0073082Y0111645D01*
X0073023Y0111693D01*
X0072967Y0111744D01*
X0072913Y0111798D01*
X0072862Y0111854D01*
X0072814Y0111913D01*
X0072769Y0111974D01*
X0072727Y0112038D01*
X0072688Y0112103D01*
X0072653Y0112170D01*
X0072622Y0112239D01*
X0072593Y0112310D01*
X0072569Y0112382D01*
X0072548Y0112455D01*
X0072531Y0112529D01*
X0072517Y0112604D01*
X0072508Y0112679D01*
X0072502Y0112755D01*
X0072500Y0112831D01*
X0082500Y0104831D02*
X0082500Y0102831D01*
X0082502Y0102755D01*
X0082508Y0102679D01*
X0082517Y0102604D01*
X0082531Y0102529D01*
X0082548Y0102455D01*
X0082569Y0102382D01*
X0082593Y0102310D01*
X0082622Y0102239D01*
X0082653Y0102170D01*
X0082688Y0102103D01*
X0082727Y0102038D01*
X0082769Y0101974D01*
X0082814Y0101913D01*
X0082862Y0101854D01*
X0082913Y0101798D01*
X0082967Y0101744D01*
X0083023Y0101693D01*
X0083082Y0101645D01*
X0083143Y0101600D01*
X0083207Y0101558D01*
X0083272Y0101519D01*
X0083339Y0101484D01*
X0083408Y0101453D01*
X0083479Y0101424D01*
X0083551Y0101400D01*
X0083624Y0101379D01*
X0083698Y0101362D01*
X0083773Y0101348D01*
X0083848Y0101339D01*
X0083924Y0101333D01*
X0084000Y0101331D01*
X0098000Y0101331D01*
X0098076Y0101333D01*
X0098152Y0101339D01*
X0098227Y0101348D01*
X0098302Y0101362D01*
X0098376Y0101379D01*
X0098449Y0101400D01*
X0098521Y0101424D01*
X0098592Y0101453D01*
X0098661Y0101484D01*
X0098728Y0101519D01*
X0098793Y0101558D01*
X0098857Y0101600D01*
X0098918Y0101645D01*
X0098977Y0101693D01*
X0099033Y0101744D01*
X0099087Y0101798D01*
X0099138Y0101854D01*
X0099186Y0101913D01*
X0099231Y0101974D01*
X0099273Y0102038D01*
X0099312Y0102103D01*
X0099347Y0102170D01*
X0099378Y0102239D01*
X0099407Y0102310D01*
X0099431Y0102382D01*
X0099452Y0102455D01*
X0099469Y0102529D01*
X0099483Y0102604D01*
X0099492Y0102679D01*
X0099498Y0102755D01*
X0099500Y0102831D01*
X0099500Y0104831D01*
X0099498Y0104907D01*
X0099492Y0104983D01*
X0099483Y0105058D01*
X0099469Y0105133D01*
X0099452Y0105207D01*
X0099431Y0105280D01*
X0099407Y0105352D01*
X0099378Y0105423D01*
X0099347Y0105492D01*
X0099312Y0105559D01*
X0099273Y0105624D01*
X0099231Y0105688D01*
X0099186Y0105749D01*
X0099138Y0105808D01*
X0099087Y0105864D01*
X0099033Y0105918D01*
X0098977Y0105969D01*
X0098918Y0106017D01*
X0098857Y0106062D01*
X0098793Y0106104D01*
X0098728Y0106143D01*
X0098661Y0106178D01*
X0098592Y0106209D01*
X0098521Y0106238D01*
X0098449Y0106262D01*
X0098376Y0106283D01*
X0098302Y0106300D01*
X0098227Y0106314D01*
X0098152Y0106323D01*
X0098076Y0106329D01*
X0098000Y0106331D01*
X0084000Y0106331D01*
X0083924Y0106329D01*
X0083848Y0106323D01*
X0083773Y0106314D01*
X0083698Y0106300D01*
X0083624Y0106283D01*
X0083551Y0106262D01*
X0083479Y0106238D01*
X0083408Y0106209D01*
X0083339Y0106178D01*
X0083272Y0106143D01*
X0083207Y0106104D01*
X0083143Y0106062D01*
X0083082Y0106017D01*
X0083023Y0105969D01*
X0082967Y0105918D01*
X0082913Y0105864D01*
X0082862Y0105808D01*
X0082814Y0105749D01*
X0082769Y0105688D01*
X0082727Y0105624D01*
X0082688Y0105559D01*
X0082653Y0105492D01*
X0082622Y0105423D01*
X0082593Y0105352D01*
X0082569Y0105280D01*
X0082548Y0105207D01*
X0082531Y0105133D01*
X0082517Y0105058D01*
X0082508Y0104983D01*
X0082502Y0104907D01*
X0082500Y0104831D01*
X0090497Y0100134D02*
X0092899Y0098332D01*
X0090497Y0096531D01*
X0094180Y0096531D02*
X0094180Y0100134D01*
X0096582Y0096531D01*
X0096582Y0100134D01*
X0097863Y0098933D02*
X0099064Y0100134D01*
X0100265Y0098933D01*
X0100265Y0096531D01*
X0101546Y0096531D02*
X0101546Y0100134D01*
X0102747Y0098933D01*
X0103948Y0100134D01*
X0103948Y0096531D01*
X0105229Y0096531D02*
X0107631Y0096531D01*
X0106430Y0098332D02*
X0105229Y0098332D01*
X0105229Y0096531D02*
X0105229Y0100134D01*
X0107631Y0100134D01*
X0100265Y0098332D02*
X0097863Y0098332D01*
X0097863Y0098933D02*
X0097863Y0096531D01*
X0122500Y0094831D02*
X0122500Y0092831D01*
X0122502Y0092755D01*
X0122508Y0092679D01*
X0122517Y0092604D01*
X0122531Y0092529D01*
X0122548Y0092455D01*
X0122569Y0092382D01*
X0122593Y0092310D01*
X0122622Y0092239D01*
X0122653Y0092170D01*
X0122688Y0092103D01*
X0122727Y0092038D01*
X0122769Y0091974D01*
X0122814Y0091913D01*
X0122862Y0091854D01*
X0122913Y0091798D01*
X0122967Y0091744D01*
X0123023Y0091693D01*
X0123082Y0091645D01*
X0123143Y0091600D01*
X0123207Y0091558D01*
X0123272Y0091519D01*
X0123339Y0091484D01*
X0123408Y0091453D01*
X0123479Y0091424D01*
X0123551Y0091400D01*
X0123624Y0091379D01*
X0123698Y0091362D01*
X0123773Y0091348D01*
X0123848Y0091339D01*
X0123924Y0091333D01*
X0124000Y0091331D01*
X0138000Y0091331D01*
X0138076Y0091333D01*
X0138152Y0091339D01*
X0138227Y0091348D01*
X0138302Y0091362D01*
X0138376Y0091379D01*
X0138449Y0091400D01*
X0138521Y0091424D01*
X0138592Y0091453D01*
X0138661Y0091484D01*
X0138728Y0091519D01*
X0138793Y0091558D01*
X0138857Y0091600D01*
X0138918Y0091645D01*
X0138977Y0091693D01*
X0139033Y0091744D01*
X0139087Y0091798D01*
X0139138Y0091854D01*
X0139186Y0091913D01*
X0139231Y0091974D01*
X0139273Y0092038D01*
X0139312Y0092103D01*
X0139347Y0092170D01*
X0139378Y0092239D01*
X0139407Y0092310D01*
X0139431Y0092382D01*
X0139452Y0092455D01*
X0139469Y0092529D01*
X0139483Y0092604D01*
X0139492Y0092679D01*
X0139498Y0092755D01*
X0139500Y0092831D01*
X0139500Y0094831D01*
X0139498Y0094907D01*
X0139492Y0094983D01*
X0139483Y0095058D01*
X0139469Y0095133D01*
X0139452Y0095207D01*
X0139431Y0095280D01*
X0139407Y0095352D01*
X0139378Y0095423D01*
X0139347Y0095492D01*
X0139312Y0095559D01*
X0139273Y0095624D01*
X0139231Y0095688D01*
X0139186Y0095749D01*
X0139138Y0095808D01*
X0139087Y0095864D01*
X0139033Y0095918D01*
X0138977Y0095969D01*
X0138918Y0096017D01*
X0138857Y0096062D01*
X0138793Y0096104D01*
X0138728Y0096143D01*
X0138661Y0096178D01*
X0138592Y0096209D01*
X0138521Y0096238D01*
X0138449Y0096262D01*
X0138376Y0096283D01*
X0138302Y0096300D01*
X0138227Y0096314D01*
X0138152Y0096323D01*
X0138076Y0096329D01*
X0138000Y0096331D01*
X0124000Y0096331D01*
X0123924Y0096329D01*
X0123848Y0096323D01*
X0123773Y0096314D01*
X0123698Y0096300D01*
X0123624Y0096283D01*
X0123551Y0096262D01*
X0123479Y0096238D01*
X0123408Y0096209D01*
X0123339Y0096178D01*
X0123272Y0096143D01*
X0123207Y0096104D01*
X0123143Y0096062D01*
X0123082Y0096017D01*
X0123023Y0095969D01*
X0122967Y0095918D01*
X0122913Y0095864D01*
X0122862Y0095808D01*
X0122814Y0095749D01*
X0122769Y0095688D01*
X0122727Y0095624D01*
X0122688Y0095559D01*
X0122653Y0095492D01*
X0122622Y0095423D01*
X0122593Y0095352D01*
X0122569Y0095280D01*
X0122548Y0095207D01*
X0122531Y0095133D01*
X0122517Y0095058D01*
X0122508Y0094983D01*
X0122502Y0094907D01*
X0122500Y0094831D01*
X0124000Y0101331D02*
X0138000Y0101331D01*
X0138076Y0101333D01*
X0138152Y0101339D01*
X0138227Y0101348D01*
X0138302Y0101362D01*
X0138376Y0101379D01*
X0138449Y0101400D01*
X0138521Y0101424D01*
X0138592Y0101453D01*
X0138661Y0101484D01*
X0138728Y0101519D01*
X0138793Y0101558D01*
X0138857Y0101600D01*
X0138918Y0101645D01*
X0138977Y0101693D01*
X0139033Y0101744D01*
X0139087Y0101798D01*
X0139138Y0101854D01*
X0139186Y0101913D01*
X0139231Y0101974D01*
X0139273Y0102038D01*
X0139312Y0102103D01*
X0139347Y0102170D01*
X0139378Y0102239D01*
X0139407Y0102310D01*
X0139431Y0102382D01*
X0139452Y0102455D01*
X0139469Y0102529D01*
X0139483Y0102604D01*
X0139492Y0102679D01*
X0139498Y0102755D01*
X0139500Y0102831D01*
X0139500Y0104831D01*
X0139498Y0104907D01*
X0139492Y0104983D01*
X0139483Y0105058D01*
X0139469Y0105133D01*
X0139452Y0105207D01*
X0139431Y0105280D01*
X0139407Y0105352D01*
X0139378Y0105423D01*
X0139347Y0105492D01*
X0139312Y0105559D01*
X0139273Y0105624D01*
X0139231Y0105688D01*
X0139186Y0105749D01*
X0139138Y0105808D01*
X0139087Y0105864D01*
X0139033Y0105918D01*
X0138977Y0105969D01*
X0138918Y0106017D01*
X0138857Y0106062D01*
X0138793Y0106104D01*
X0138728Y0106143D01*
X0138661Y0106178D01*
X0138592Y0106209D01*
X0138521Y0106238D01*
X0138449Y0106262D01*
X0138376Y0106283D01*
X0138302Y0106300D01*
X0138227Y0106314D01*
X0138152Y0106323D01*
X0138076Y0106329D01*
X0138000Y0106331D01*
X0124000Y0106331D01*
X0123924Y0106329D01*
X0123848Y0106323D01*
X0123773Y0106314D01*
X0123698Y0106300D01*
X0123624Y0106283D01*
X0123551Y0106262D01*
X0123479Y0106238D01*
X0123408Y0106209D01*
X0123339Y0106178D01*
X0123272Y0106143D01*
X0123207Y0106104D01*
X0123143Y0106062D01*
X0123082Y0106017D01*
X0123023Y0105969D01*
X0122967Y0105918D01*
X0122913Y0105864D01*
X0122862Y0105808D01*
X0122814Y0105749D01*
X0122769Y0105688D01*
X0122727Y0105624D01*
X0122688Y0105559D01*
X0122653Y0105492D01*
X0122622Y0105423D01*
X0122593Y0105352D01*
X0122569Y0105280D01*
X0122548Y0105207D01*
X0122531Y0105133D01*
X0122517Y0105058D01*
X0122508Y0104983D01*
X0122502Y0104907D01*
X0122500Y0104831D01*
X0122500Y0102831D01*
X0122502Y0102755D01*
X0122508Y0102679D01*
X0122517Y0102604D01*
X0122531Y0102529D01*
X0122548Y0102455D01*
X0122569Y0102382D01*
X0122593Y0102310D01*
X0122622Y0102239D01*
X0122653Y0102170D01*
X0122688Y0102103D01*
X0122727Y0102038D01*
X0122769Y0101974D01*
X0122814Y0101913D01*
X0122862Y0101854D01*
X0122913Y0101798D01*
X0122967Y0101744D01*
X0123023Y0101693D01*
X0123082Y0101645D01*
X0123143Y0101600D01*
X0123207Y0101558D01*
X0123272Y0101519D01*
X0123339Y0101484D01*
X0123408Y0101453D01*
X0123479Y0101424D01*
X0123551Y0101400D01*
X0123624Y0101379D01*
X0123698Y0101362D01*
X0123773Y0101348D01*
X0123848Y0101339D01*
X0123924Y0101333D01*
X0124000Y0101331D01*
X0170497Y0100134D02*
X0172899Y0098332D01*
X0170497Y0096531D01*
X0174180Y0096531D02*
X0174180Y0100134D01*
X0176582Y0096531D01*
X0176582Y0100134D01*
X0177863Y0098933D02*
X0179064Y0100134D01*
X0180265Y0098933D01*
X0180265Y0096531D01*
X0181546Y0096531D02*
X0181546Y0100134D01*
X0182747Y0098933D01*
X0183948Y0100134D01*
X0183948Y0096531D01*
X0185229Y0096531D02*
X0187631Y0096531D01*
X0186430Y0098332D02*
X0185229Y0098332D01*
X0185229Y0096531D02*
X0185229Y0100134D01*
X0187631Y0100134D01*
X0180265Y0098332D02*
X0177863Y0098332D01*
X0177863Y0098933D02*
X0177863Y0096531D01*
X0083500Y0060831D02*
X0083500Y0046831D01*
X0083498Y0046755D01*
X0083492Y0046679D01*
X0083483Y0046604D01*
X0083469Y0046529D01*
X0083452Y0046455D01*
X0083431Y0046382D01*
X0083407Y0046310D01*
X0083378Y0046239D01*
X0083347Y0046170D01*
X0083312Y0046103D01*
X0083273Y0046038D01*
X0083231Y0045974D01*
X0083186Y0045913D01*
X0083138Y0045854D01*
X0083087Y0045798D01*
X0083033Y0045744D01*
X0082977Y0045693D01*
X0082918Y0045645D01*
X0082857Y0045600D01*
X0082793Y0045558D01*
X0082728Y0045519D01*
X0082661Y0045484D01*
X0082592Y0045453D01*
X0082521Y0045424D01*
X0082449Y0045400D01*
X0082376Y0045379D01*
X0082302Y0045362D01*
X0082227Y0045348D01*
X0082152Y0045339D01*
X0082076Y0045333D01*
X0082000Y0045331D01*
X0080000Y0045331D01*
X0079924Y0045333D01*
X0079848Y0045339D01*
X0079773Y0045348D01*
X0079698Y0045362D01*
X0079624Y0045379D01*
X0079551Y0045400D01*
X0079479Y0045424D01*
X0079408Y0045453D01*
X0079339Y0045484D01*
X0079272Y0045519D01*
X0079207Y0045558D01*
X0079143Y0045600D01*
X0079082Y0045645D01*
X0079023Y0045693D01*
X0078967Y0045744D01*
X0078913Y0045798D01*
X0078862Y0045854D01*
X0078814Y0045913D01*
X0078769Y0045974D01*
X0078727Y0046038D01*
X0078688Y0046103D01*
X0078653Y0046170D01*
X0078622Y0046239D01*
X0078593Y0046310D01*
X0078569Y0046382D01*
X0078548Y0046455D01*
X0078531Y0046529D01*
X0078517Y0046604D01*
X0078508Y0046679D01*
X0078502Y0046755D01*
X0078500Y0046831D01*
X0078500Y0060831D01*
X0078502Y0060907D01*
X0078508Y0060983D01*
X0078517Y0061058D01*
X0078531Y0061133D01*
X0078548Y0061207D01*
X0078569Y0061280D01*
X0078593Y0061352D01*
X0078622Y0061423D01*
X0078653Y0061492D01*
X0078688Y0061559D01*
X0078727Y0061624D01*
X0078769Y0061688D01*
X0078814Y0061749D01*
X0078862Y0061808D01*
X0078913Y0061864D01*
X0078967Y0061918D01*
X0079023Y0061969D01*
X0079082Y0062017D01*
X0079143Y0062062D01*
X0079207Y0062104D01*
X0079272Y0062143D01*
X0079339Y0062178D01*
X0079408Y0062209D01*
X0079479Y0062238D01*
X0079551Y0062262D01*
X0079624Y0062283D01*
X0079698Y0062300D01*
X0079773Y0062314D01*
X0079848Y0062323D01*
X0079924Y0062329D01*
X0080000Y0062331D01*
X0082000Y0062331D01*
X0082076Y0062329D01*
X0082152Y0062323D01*
X0082227Y0062314D01*
X0082302Y0062300D01*
X0082376Y0062283D01*
X0082449Y0062262D01*
X0082521Y0062238D01*
X0082592Y0062209D01*
X0082661Y0062178D01*
X0082728Y0062143D01*
X0082793Y0062104D01*
X0082857Y0062062D01*
X0082918Y0062017D01*
X0082977Y0061969D01*
X0083033Y0061918D01*
X0083087Y0061864D01*
X0083138Y0061808D01*
X0083186Y0061749D01*
X0083231Y0061688D01*
X0083273Y0061624D01*
X0083312Y0061559D01*
X0083347Y0061492D01*
X0083378Y0061423D01*
X0083407Y0061352D01*
X0083431Y0061280D01*
X0083452Y0061207D01*
X0083469Y0061133D01*
X0083483Y0061058D01*
X0083492Y0060983D01*
X0083498Y0060907D01*
X0083500Y0060831D01*
D14*
X0090000Y0103831D03*
X0092000Y0103831D03*
X0082000Y0113831D03*
X0080000Y0113831D03*
X0042000Y0093831D03*
X0040000Y0093831D03*
X0130000Y0093831D03*
X0132000Y0093831D03*
X0132000Y0103831D03*
X0130000Y0103831D03*
D15*
X0148829Y0094883D02*
X0150764Y0093432D01*
X0148829Y0091981D01*
X0151776Y0092948D02*
X0152743Y0091981D01*
X0153711Y0092948D01*
X0153711Y0094883D01*
X0154722Y0093916D02*
X0154722Y0091981D01*
X0154722Y0093432D02*
X0156657Y0093432D01*
X0156657Y0093916D02*
X0156657Y0091981D01*
X0157669Y0091981D02*
X0159604Y0091981D01*
X0160615Y0092465D02*
X0161099Y0091981D01*
X0162066Y0091981D01*
X0162550Y0092465D01*
X0162550Y0094883D01*
X0163562Y0094883D02*
X0163562Y0091981D01*
X0165497Y0091981D01*
X0164529Y0093432D02*
X0163562Y0093432D01*
X0163562Y0094883D02*
X0165497Y0094883D01*
X0160615Y0094883D02*
X0160615Y0092465D01*
X0157669Y0091981D02*
X0157669Y0094883D01*
X0156657Y0093916D02*
X0155690Y0094883D01*
X0154722Y0093916D01*
X0151776Y0094883D02*
X0151776Y0092948D01*
X0151776Y0084883D02*
X0151776Y0082948D01*
X0152743Y0081981D01*
X0153711Y0082948D01*
X0153711Y0084883D01*
X0154722Y0083916D02*
X0155690Y0084883D01*
X0156657Y0083916D01*
X0156657Y0081981D01*
X0157669Y0081981D02*
X0159604Y0081981D01*
X0160615Y0082465D02*
X0161099Y0081981D01*
X0162066Y0081981D01*
X0162550Y0082465D01*
X0162550Y0084883D01*
X0163562Y0084883D02*
X0163562Y0081981D01*
X0165497Y0081981D01*
X0164529Y0083432D02*
X0163562Y0083432D01*
X0163562Y0084883D02*
X0165497Y0084883D01*
X0160615Y0084883D02*
X0160615Y0082465D01*
X0157669Y0081981D02*
X0157669Y0084883D01*
X0156657Y0083432D02*
X0154722Y0083432D01*
X0154722Y0083916D02*
X0154722Y0081981D01*
X0150764Y0083432D02*
X0148829Y0081981D01*
X0150764Y0083432D02*
X0148829Y0084883D01*
X0148562Y0055283D02*
X0148562Y0052381D01*
X0150497Y0052381D01*
X0149529Y0053832D02*
X0148562Y0053832D01*
X0147550Y0052865D02*
X0147066Y0052381D01*
X0146099Y0052381D01*
X0145615Y0052865D01*
X0145615Y0055283D01*
X0147550Y0055283D02*
X0147550Y0052865D01*
X0148562Y0055283D02*
X0150497Y0055283D01*
X0144604Y0052381D02*
X0142669Y0052381D01*
X0142669Y0055283D01*
X0141657Y0054316D02*
X0141657Y0052381D01*
X0141657Y0053832D02*
X0139722Y0053832D01*
X0139722Y0054316D02*
X0139722Y0052381D01*
X0138711Y0053348D02*
X0138711Y0055283D01*
X0139722Y0054316D02*
X0140690Y0055283D01*
X0141657Y0054316D01*
X0138711Y0053348D02*
X0137743Y0052381D01*
X0136776Y0053348D01*
X0136776Y0055283D01*
X0135764Y0053832D02*
X0133829Y0052381D01*
X0135764Y0053832D02*
X0133829Y0055283D01*
X0089375Y0035831D02*
X0087375Y0035831D01*
X0088375Y0034831D02*
X0088375Y0036831D01*
X0088375Y0023081D02*
X0088375Y0021081D01*
X0069375Y0035831D02*
X0067375Y0035831D01*
X0068375Y0034831D02*
X0068375Y0036831D01*
X0068375Y0023081D02*
X0068375Y0021081D01*
X0068562Y0052381D02*
X0070497Y0052381D01*
X0069529Y0053832D02*
X0068562Y0053832D01*
X0067550Y0052865D02*
X0067550Y0055283D01*
X0068562Y0055283D02*
X0068562Y0052381D01*
X0067550Y0052865D02*
X0067066Y0052381D01*
X0066099Y0052381D01*
X0065615Y0052865D01*
X0065615Y0055283D01*
X0068562Y0055283D02*
X0070497Y0055283D01*
X0064604Y0052381D02*
X0062669Y0052381D01*
X0062669Y0055283D01*
X0061657Y0054316D02*
X0061657Y0052381D01*
X0061657Y0053832D02*
X0059722Y0053832D01*
X0059722Y0054316D02*
X0059722Y0052381D01*
X0058711Y0053348D02*
X0058711Y0055283D01*
X0059722Y0054316D02*
X0060690Y0055283D01*
X0061657Y0054316D01*
X0058711Y0053348D02*
X0057743Y0052381D01*
X0056776Y0053348D01*
X0056776Y0055283D01*
X0055764Y0053832D02*
X0053829Y0052381D01*
X0055764Y0053832D02*
X0053829Y0055283D01*
X0069548Y0071660D02*
X0070999Y0073595D01*
X0072450Y0071660D01*
X0071483Y0074607D02*
X0069548Y0074607D01*
X0071483Y0074607D02*
X0072450Y0075574D01*
X0071483Y0076542D01*
X0069548Y0076542D01*
X0070515Y0077553D02*
X0069548Y0078521D01*
X0070515Y0079488D01*
X0072450Y0079488D01*
X0072450Y0080500D02*
X0072450Y0082435D01*
X0071966Y0083446D02*
X0072450Y0083930D01*
X0072450Y0084897D01*
X0071966Y0085381D01*
X0069548Y0085381D01*
X0069548Y0086393D02*
X0072450Y0086393D01*
X0072450Y0088328D01*
X0070999Y0087360D02*
X0070999Y0086393D01*
X0069548Y0086393D02*
X0069548Y0088328D01*
X0069548Y0083446D02*
X0071966Y0083446D01*
X0072450Y0080500D02*
X0069548Y0080500D01*
X0070999Y0079488D02*
X0070999Y0077553D01*
X0070515Y0077553D02*
X0072450Y0077553D01*
X0072850Y0111660D02*
X0071399Y0113595D01*
X0069948Y0111660D01*
X0069948Y0114607D02*
X0071883Y0114607D01*
X0072850Y0115574D01*
X0071883Y0116542D01*
X0069948Y0116542D01*
X0070915Y0117553D02*
X0069948Y0118521D01*
X0070915Y0119488D01*
X0072850Y0119488D01*
X0072850Y0120500D02*
X0072850Y0122435D01*
X0072366Y0123446D02*
X0072850Y0123930D01*
X0072850Y0124897D01*
X0072366Y0125381D01*
X0069948Y0125381D01*
X0069948Y0126393D02*
X0072850Y0126393D01*
X0072850Y0128328D01*
X0071399Y0127360D02*
X0071399Y0126393D01*
X0069948Y0126393D02*
X0069948Y0128328D01*
X0069948Y0123446D02*
X0072366Y0123446D01*
X0072850Y0120500D02*
X0069948Y0120500D01*
X0071399Y0119488D02*
X0071399Y0117553D01*
X0070915Y0117553D02*
X0072850Y0117553D01*
D16*
X0061000Y0094831D03*
X0061000Y0092831D03*
X0081000Y0054831D03*
X0081000Y0052831D03*
D17*
X0076000Y0038831D02*
X0076000Y0018831D01*
X0086000Y0018831D01*
X0086000Y0038831D01*
X0076000Y0038831D01*
X0066000Y0038831D02*
X0056000Y0038831D01*
X0056000Y0018831D01*
X0066000Y0018831D01*
X0066000Y0038831D01*
X0086000Y0073831D02*
X0086002Y0073940D01*
X0086008Y0074049D01*
X0086018Y0074157D01*
X0086032Y0074265D01*
X0086049Y0074373D01*
X0086071Y0074480D01*
X0086096Y0074586D01*
X0086126Y0074690D01*
X0086159Y0074794D01*
X0086196Y0074897D01*
X0086236Y0074998D01*
X0086280Y0075097D01*
X0086328Y0075195D01*
X0086380Y0075292D01*
X0086434Y0075386D01*
X0086492Y0075478D01*
X0086554Y0075568D01*
X0086619Y0075655D01*
X0086686Y0075741D01*
X0086757Y0075824D01*
X0086831Y0075904D01*
X0086908Y0075981D01*
X0086987Y0076056D01*
X0087069Y0076127D01*
X0087154Y0076196D01*
X0087241Y0076261D01*
X0087330Y0076324D01*
X0087422Y0076382D01*
X0087516Y0076438D01*
X0087611Y0076490D01*
X0087709Y0076539D01*
X0087808Y0076584D01*
X0087909Y0076626D01*
X0088011Y0076663D01*
X0088114Y0076697D01*
X0088219Y0076728D01*
X0088325Y0076754D01*
X0088431Y0076777D01*
X0088539Y0076795D01*
X0088647Y0076810D01*
X0088755Y0076821D01*
X0088864Y0076828D01*
X0088973Y0076831D01*
X0089082Y0076830D01*
X0089191Y0076825D01*
X0089299Y0076816D01*
X0089407Y0076803D01*
X0089515Y0076786D01*
X0089622Y0076766D01*
X0089728Y0076741D01*
X0089833Y0076713D01*
X0089937Y0076681D01*
X0090040Y0076645D01*
X0090142Y0076605D01*
X0090242Y0076562D01*
X0090340Y0076515D01*
X0090437Y0076465D01*
X0090531Y0076411D01*
X0090624Y0076353D01*
X0090715Y0076293D01*
X0090803Y0076229D01*
X0090889Y0076162D01*
X0090972Y0076092D01*
X0091053Y0076019D01*
X0091131Y0075943D01*
X0091206Y0075864D01*
X0091279Y0075782D01*
X0091348Y0075698D01*
X0091414Y0075612D01*
X0091477Y0075523D01*
X0091537Y0075432D01*
X0091594Y0075339D01*
X0091647Y0075244D01*
X0091696Y0075147D01*
X0091742Y0075048D01*
X0091784Y0074948D01*
X0091823Y0074846D01*
X0091858Y0074742D01*
X0091889Y0074638D01*
X0091917Y0074533D01*
X0091940Y0074426D01*
X0091960Y0074319D01*
X0091976Y0074211D01*
X0091988Y0074103D01*
X0091996Y0073994D01*
X0092000Y0073885D01*
X0092000Y0073777D01*
X0091996Y0073668D01*
X0091988Y0073559D01*
X0091976Y0073451D01*
X0091960Y0073343D01*
X0091940Y0073236D01*
X0091917Y0073129D01*
X0091889Y0073024D01*
X0091858Y0072920D01*
X0091823Y0072816D01*
X0091784Y0072714D01*
X0091742Y0072614D01*
X0091696Y0072515D01*
X0091647Y0072418D01*
X0091594Y0072323D01*
X0091537Y0072230D01*
X0091477Y0072139D01*
X0091414Y0072050D01*
X0091348Y0071964D01*
X0091279Y0071880D01*
X0091206Y0071798D01*
X0091131Y0071719D01*
X0091053Y0071643D01*
X0090972Y0071570D01*
X0090889Y0071500D01*
X0090803Y0071433D01*
X0090715Y0071369D01*
X0090624Y0071309D01*
X0090531Y0071251D01*
X0090437Y0071197D01*
X0090340Y0071147D01*
X0090242Y0071100D01*
X0090142Y0071057D01*
X0090040Y0071017D01*
X0089937Y0070981D01*
X0089833Y0070949D01*
X0089728Y0070921D01*
X0089622Y0070896D01*
X0089515Y0070876D01*
X0089407Y0070859D01*
X0089299Y0070846D01*
X0089191Y0070837D01*
X0089082Y0070832D01*
X0088973Y0070831D01*
X0088864Y0070834D01*
X0088755Y0070841D01*
X0088647Y0070852D01*
X0088539Y0070867D01*
X0088431Y0070885D01*
X0088325Y0070908D01*
X0088219Y0070934D01*
X0088114Y0070965D01*
X0088011Y0070999D01*
X0087909Y0071036D01*
X0087808Y0071078D01*
X0087709Y0071123D01*
X0087611Y0071172D01*
X0087516Y0071224D01*
X0087422Y0071280D01*
X0087330Y0071338D01*
X0087241Y0071401D01*
X0087154Y0071466D01*
X0087069Y0071535D01*
X0086987Y0071606D01*
X0086908Y0071681D01*
X0086831Y0071758D01*
X0086757Y0071838D01*
X0086686Y0071921D01*
X0086619Y0072007D01*
X0086554Y0072094D01*
X0086492Y0072184D01*
X0086434Y0072276D01*
X0086380Y0072370D01*
X0086328Y0072467D01*
X0086280Y0072565D01*
X0086236Y0072664D01*
X0086196Y0072765D01*
X0086159Y0072868D01*
X0086126Y0072972D01*
X0086096Y0073076D01*
X0086071Y0073182D01*
X0086049Y0073289D01*
X0086032Y0073397D01*
X0086018Y0073505D01*
X0086008Y0073613D01*
X0086002Y0073722D01*
X0086000Y0073831D01*
D18*
X0103126Y0107910D02*
X0138874Y0107910D01*
X0138874Y0133398D01*
X0138874Y0141272D01*
X0134543Y0141272D01*
X0134543Y0133792D01*
X0138874Y0133398D02*
X0103126Y0133398D01*
X0103126Y0107910D01*
X0088874Y0117910D02*
X0053126Y0117910D01*
X0053126Y0133398D01*
X0088874Y0133398D01*
X0088874Y0117910D01*
X0088874Y0130524D02*
X0053126Y0130524D01*
X0065114Y0133792D02*
X0065114Y0147807D01*
X0067083Y0148988D01*
X0074917Y0148988D01*
X0076886Y0147807D01*
X0076886Y0133792D01*
X0076492Y0136646D02*
X0065508Y0134579D01*
X0065508Y0136547D02*
X0076492Y0138614D01*
X0076492Y0140583D02*
X0065508Y0138516D01*
X0065508Y0140484D02*
X0076492Y0142551D01*
X0076492Y0144520D02*
X0065508Y0142453D01*
X0065508Y0144421D02*
X0076492Y0146488D01*
X0075606Y0148299D02*
X0065508Y0146233D01*
X0067083Y0148988D02*
X0067083Y0162768D01*
X0074917Y0162768D01*
X0074917Y0148988D01*
X0084543Y0141272D02*
X0084543Y0133792D01*
X0088874Y0133398D02*
X0088874Y0141272D01*
X0084543Y0141272D01*
X0103126Y0130524D02*
X0138874Y0130524D01*
X0126886Y0133792D02*
X0126886Y0147807D01*
X0124917Y0148988D01*
X0117083Y0148988D01*
X0115114Y0147807D01*
X0115114Y0133792D01*
X0115508Y0134579D02*
X0126492Y0136646D01*
X0126492Y0138614D02*
X0115508Y0136547D01*
X0115508Y0138516D02*
X0126492Y0140583D01*
X0126492Y0142551D02*
X0115508Y0140484D01*
X0115508Y0142453D02*
X0126492Y0144520D01*
X0126492Y0146488D02*
X0115508Y0144421D01*
X0115508Y0146233D02*
X0125606Y0148299D01*
X0124917Y0148988D02*
X0124917Y0162768D01*
X0117083Y0162768D01*
X0117083Y0148988D01*
X0038874Y0141272D02*
X0038874Y0133398D01*
X0038874Y0117910D01*
X0003126Y0117910D01*
X0003126Y0133398D01*
X0038874Y0133398D01*
X0038874Y0130524D02*
X0003126Y0130524D01*
X0015114Y0133792D02*
X0015114Y0147807D01*
X0017083Y0148988D01*
X0024917Y0148988D01*
X0026886Y0147807D01*
X0026886Y0133792D01*
X0026492Y0136646D02*
X0015508Y0134579D01*
X0015508Y0136547D02*
X0026492Y0138614D01*
X0026492Y0140583D02*
X0015508Y0138516D01*
X0015508Y0140484D02*
X0026492Y0142551D01*
X0026492Y0144520D02*
X0015508Y0142453D01*
X0015508Y0144421D02*
X0026492Y0146488D01*
X0025606Y0148299D02*
X0015508Y0146233D01*
X0017083Y0148988D02*
X0017083Y0162768D01*
X0024917Y0162768D01*
X0024917Y0148988D01*
X0034543Y0141272D02*
X0034543Y0133792D01*
X0034543Y0141272D02*
X0038874Y0141272D01*
D19*
X0085500Y0073831D02*
X0086500Y0073831D01*
D20*
X0071000Y0064581D03*
X0071000Y0064581D03*
X0071000Y0043081D03*
X0071000Y0043081D03*
M02*
