G75*
%MOIN*%
%OFA0B0*%
%FSLAX25Y25*%
%IPPOS*%
%LPD*%
%AMOC8*
5,1,8,0,0,1.08239X$1,22.5*
%
%ADD10C,0.07000*%
%ADD11C,0.05000*%
%ADD12R,0.03962X0.03962*%
D10*
X0023500Y0023500D03*
X0023500Y0033500D03*
X0023500Y0043500D03*
X0023500Y0053500D03*
X0023500Y0063500D03*
X0023500Y0073500D03*
X0023500Y0083500D03*
X0033500Y0093500D03*
X0033500Y0103500D03*
X0023500Y0103500D03*
X0023500Y0123500D03*
X0013500Y0123500D03*
X0033500Y0123500D03*
X0053500Y0093500D03*
X0063500Y0103500D03*
X0073500Y0113500D03*
X0073500Y0123500D03*
X0063500Y0123500D03*
X0083500Y0123500D03*
X0093500Y0113500D03*
X0083500Y0103500D03*
X0103500Y0103500D03*
X0113500Y0113500D03*
X0113500Y0123500D03*
X0123500Y0123500D03*
X0123500Y0113815D03*
X0123500Y0103500D03*
X0123500Y0093500D03*
X0133500Y0083500D03*
X0133500Y0073500D03*
X0133500Y0063500D03*
X0133500Y0053500D03*
X0133500Y0043500D03*
X0133500Y0033500D03*
X0133500Y0023500D03*
X0103500Y0023500D03*
X0103500Y0033500D03*
X0103500Y0043500D03*
X0103500Y0053500D03*
X0103500Y0063500D03*
X0103500Y0073500D03*
X0103500Y0083500D03*
X0093500Y0073500D03*
X0083500Y0073500D03*
X0083500Y0063500D03*
X0073500Y0073500D03*
X0063500Y0083500D03*
X0053500Y0083500D03*
X0053500Y0073500D03*
X0053500Y0063500D03*
X0053500Y0053500D03*
X0053500Y0043500D03*
X0053500Y0033500D03*
X0053500Y0023500D03*
X0063500Y0023500D03*
X0063500Y0033500D03*
X0073500Y0033500D03*
X0083500Y0033500D03*
X0083500Y0023500D03*
X0083500Y0043500D03*
X0143500Y0093500D03*
X0143500Y0103500D03*
X0133500Y0113500D03*
X0133500Y0123500D03*
D11*
X0153500Y0003500D02*
X0003500Y0003500D01*
X0003500Y0118821D01*
X0003500Y0071511D01*
X0005022Y0067835D01*
X0007835Y0065022D01*
X0011511Y0063500D01*
X0012500Y0063500D01*
X0012500Y0062052D01*
X0013250Y0059254D01*
X0013685Y0058500D01*
X0013250Y0057746D01*
X0012500Y0054948D01*
X0012500Y0052052D01*
X0013250Y0049254D01*
X0013685Y0048500D01*
X0013250Y0047746D01*
X0012500Y0044948D01*
X0012500Y0042052D01*
X0013250Y0039254D01*
X0013685Y0038500D01*
X0013250Y0037746D01*
X0012500Y0034948D01*
X0012500Y0032052D01*
X0013250Y0029254D01*
X0014698Y0026746D01*
X0016615Y0024829D01*
X0016500Y0023959D01*
X0016500Y0023500D01*
X0018820Y0023500D01*
X0018821Y0023500D01*
X0016500Y0023500D01*
X0016500Y0023041D01*
X0016620Y0022131D01*
X0016857Y0021245D01*
X0017208Y0020397D01*
X0017667Y0019603D01*
X0018226Y0018875D01*
X0018875Y0018226D01*
X0019603Y0017667D01*
X0020397Y0017208D01*
X0021245Y0016857D01*
X0022131Y0016620D01*
X0023041Y0016500D01*
X0023500Y0016500D01*
X0023959Y0016500D01*
X0024869Y0016620D01*
X0025755Y0016857D01*
X0026603Y0017208D01*
X0027397Y0017667D01*
X0028125Y0018226D01*
X0028774Y0018875D01*
X0029333Y0019603D01*
X0029792Y0020397D01*
X0030143Y0021245D01*
X0030380Y0022131D01*
X0030500Y0023041D01*
X0030500Y0023500D01*
X0030500Y0023959D01*
X0030385Y0024829D01*
X0032302Y0026746D01*
X0033750Y0029254D01*
X0034500Y0032052D01*
X0034500Y0034948D01*
X0033750Y0037746D01*
X0033315Y0038500D01*
X0033750Y0039254D01*
X0034500Y0042052D01*
X0034500Y0043500D01*
X0035489Y0043500D01*
X0039165Y0045022D01*
X0041978Y0047835D01*
X0042981Y0050257D01*
X0043250Y0049254D01*
X0043685Y0048500D01*
X0043250Y0047746D01*
X0042500Y0044948D01*
X0042500Y0042052D01*
X0043250Y0039254D01*
X0043685Y0038500D01*
X0043250Y0037746D01*
X0042500Y0034948D01*
X0042500Y0032052D01*
X0043250Y0029254D01*
X0043685Y0028500D01*
X0043250Y0027746D01*
X0042500Y0024948D01*
X0042500Y0022052D01*
X0043250Y0019254D01*
X0044698Y0016746D01*
X0046746Y0014698D01*
X0049254Y0013250D01*
X0052052Y0012500D01*
X0054948Y0012500D01*
X0057746Y0013250D01*
X0060254Y0014698D01*
X0062171Y0016615D01*
X0063041Y0016500D01*
X0063500Y0016500D01*
X0063959Y0016500D01*
X0064869Y0016620D01*
X0065755Y0016857D01*
X0066603Y0017208D01*
X0067397Y0017667D01*
X0068125Y0018226D01*
X0068774Y0018875D01*
X0069333Y0019603D01*
X0069792Y0020397D01*
X0070143Y0021245D01*
X0070380Y0022131D01*
X0070484Y0022920D01*
X0072052Y0022500D01*
X0074948Y0022500D01*
X0076516Y0022920D01*
X0076620Y0022131D01*
X0076857Y0021245D01*
X0077208Y0020397D01*
X0077667Y0019603D01*
X0078226Y0018875D01*
X0078875Y0018226D01*
X0079603Y0017667D01*
X0080397Y0017208D01*
X0081245Y0016857D01*
X0082131Y0016620D01*
X0083041Y0016500D01*
X0083500Y0016500D01*
X0083959Y0016500D01*
X0084869Y0016620D01*
X0085755Y0016857D01*
X0086603Y0017208D01*
X0087397Y0017667D01*
X0088125Y0018226D01*
X0088774Y0018875D01*
X0089333Y0019603D01*
X0089792Y0020397D01*
X0090143Y0021245D01*
X0090380Y0022131D01*
X0090500Y0023041D01*
X0090500Y0023500D01*
X0090500Y0023959D01*
X0090385Y0024829D01*
X0092302Y0026746D01*
X0093500Y0028821D01*
X0094698Y0026746D01*
X0096615Y0024829D01*
X0096500Y0023959D01*
X0096500Y0023500D01*
X0098820Y0023500D01*
X0098821Y0023500D01*
X0096500Y0023500D01*
X0096500Y0023041D01*
X0096620Y0022131D01*
X0096857Y0021245D01*
X0097208Y0020397D01*
X0097667Y0019603D01*
X0098226Y0018875D01*
X0098875Y0018226D01*
X0099603Y0017667D01*
X0100397Y0017208D01*
X0101245Y0016857D01*
X0102131Y0016620D01*
X0103041Y0016500D01*
X0103500Y0016500D01*
X0103959Y0016500D01*
X0104869Y0016620D01*
X0105755Y0016857D01*
X0106603Y0017208D01*
X0107397Y0017667D01*
X0108125Y0018226D01*
X0108774Y0018875D01*
X0109333Y0019603D01*
X0109792Y0020397D01*
X0110143Y0021245D01*
X0110380Y0022131D01*
X0110500Y0023041D01*
X0110500Y0023500D01*
X0110500Y0023959D01*
X0110385Y0024829D01*
X0112302Y0026746D01*
X0113750Y0029254D01*
X0114500Y0032052D01*
X0114500Y0034948D01*
X0113750Y0037746D01*
X0113315Y0038500D01*
X0113750Y0039254D01*
X0114500Y0042052D01*
X0114500Y0044948D01*
X0113750Y0047746D01*
X0113315Y0048500D01*
X0113750Y0049254D01*
X0114500Y0052052D01*
X0114500Y0054948D01*
X0113750Y0057746D01*
X0113315Y0058500D01*
X0113750Y0059254D01*
X0114500Y0062052D01*
X0114500Y0064948D01*
X0113750Y0067746D01*
X0113315Y0068500D01*
X0113750Y0069254D01*
X0114500Y0072052D01*
X0114500Y0074948D01*
X0113750Y0077746D01*
X0113315Y0078500D01*
X0113750Y0079254D01*
X0114500Y0082052D01*
X0114500Y0083500D01*
X0118820Y0083500D01*
X0119254Y0083250D01*
X0122052Y0082500D01*
X0122500Y0082500D01*
X0122500Y0082052D01*
X0123250Y0079254D01*
X0123685Y0078500D01*
X0123250Y0077746D01*
X0122500Y0074948D01*
X0122500Y0072052D01*
X0123250Y0069254D01*
X0123685Y0068500D01*
X0123250Y0067746D01*
X0122500Y0064948D01*
X0122500Y0062052D01*
X0123250Y0059254D01*
X0123685Y0058500D01*
X0123250Y0057746D01*
X0122500Y0054948D01*
X0122500Y0052052D01*
X0123250Y0049254D01*
X0123685Y0048500D01*
X0123250Y0047746D01*
X0122500Y0044948D01*
X0122500Y0042052D01*
X0123250Y0039254D01*
X0123685Y0038500D01*
X0123250Y0037746D01*
X0122500Y0034948D01*
X0122500Y0032052D01*
X0123250Y0029254D01*
X0123685Y0028500D01*
X0123250Y0027746D01*
X0122500Y0024948D01*
X0122500Y0022052D01*
X0123250Y0019254D01*
X0124698Y0016746D01*
X0126746Y0014698D01*
X0129254Y0013250D01*
X0132052Y0012500D01*
X0134948Y0012500D01*
X0137746Y0013250D01*
X0140254Y0014698D01*
X0142302Y0016746D01*
X0143750Y0019254D01*
X0144500Y0022052D01*
X0144500Y0024948D01*
X0143750Y0027746D01*
X0143315Y0028500D01*
X0143750Y0029254D01*
X0144500Y0032052D01*
X0144500Y0034948D01*
X0143750Y0037746D01*
X0143315Y0038500D01*
X0143750Y0039254D01*
X0144500Y0042052D01*
X0144500Y0044948D01*
X0143750Y0047746D01*
X0143315Y0048500D01*
X0143750Y0049254D01*
X0144500Y0052052D01*
X0144500Y0054948D01*
X0143750Y0057746D01*
X0143315Y0058500D01*
X0143750Y0059254D01*
X0144500Y0062052D01*
X0144500Y0064948D01*
X0143750Y0067746D01*
X0143315Y0068500D01*
X0143750Y0069254D01*
X0144500Y0072052D01*
X0144500Y0074948D01*
X0143750Y0077746D01*
X0143315Y0078500D01*
X0143750Y0079254D01*
X0144500Y0082052D01*
X0144500Y0084948D01*
X0144080Y0086516D01*
X0144869Y0086620D01*
X0145755Y0086857D01*
X0146603Y0087208D01*
X0147397Y0087667D01*
X0148125Y0088226D01*
X0148774Y0088875D01*
X0149333Y0089603D01*
X0149792Y0090397D01*
X0150143Y0091245D01*
X0150380Y0092131D01*
X0150500Y0093041D01*
X0150500Y0093500D01*
X0150500Y0093959D01*
X0150380Y0094869D01*
X0150143Y0095755D01*
X0149792Y0096603D01*
X0149333Y0097397D01*
X0148774Y0098125D01*
X0148399Y0098500D01*
X0148774Y0098875D01*
X0149333Y0099603D01*
X0149792Y0100397D01*
X0150143Y0101245D01*
X0150380Y0102131D01*
X0150500Y0103041D01*
X0150500Y0103500D01*
X0150500Y0103959D01*
X0150380Y0104869D01*
X0150143Y0105755D01*
X0149792Y0106603D01*
X0149333Y0107397D01*
X0148774Y0108125D01*
X0148125Y0108774D01*
X0147397Y0109333D01*
X0146603Y0109792D01*
X0145755Y0110143D01*
X0144869Y0110380D01*
X0144080Y0110484D01*
X0144500Y0112052D01*
X0144500Y0114948D01*
X0143750Y0117746D01*
X0143315Y0118500D01*
X0143750Y0119254D01*
X0144500Y0122052D01*
X0144500Y0124948D01*
X0143750Y0127746D01*
X0142302Y0130254D01*
X0140254Y0132302D01*
X0137746Y0133750D01*
X0134948Y0134500D01*
X0132052Y0134500D01*
X0129254Y0133750D01*
X0128500Y0133315D01*
X0127746Y0133750D01*
X0124948Y0134500D01*
X0122052Y0134500D01*
X0119254Y0133750D01*
X0118500Y0133315D01*
X0117746Y0133750D01*
X0114948Y0134500D01*
X0112052Y0134500D01*
X0109254Y0133750D01*
X0108821Y0133500D01*
X0091511Y0133500D01*
X0089571Y0132697D01*
X0087746Y0133750D01*
X0084948Y0134500D01*
X0082052Y0134500D01*
X0079254Y0133750D01*
X0078820Y0133500D01*
X0078179Y0133500D01*
X0077746Y0133750D01*
X0074948Y0134500D01*
X0072052Y0134500D01*
X0069254Y0133750D01*
X0066746Y0132302D01*
X0064829Y0130385D01*
X0063959Y0130500D01*
X0063500Y0130500D01*
X0063500Y0128180D01*
X0063500Y0128179D01*
X0063500Y0130500D01*
X0063041Y0130500D01*
X0062131Y0130380D01*
X0061245Y0130143D01*
X0060397Y0129792D01*
X0059603Y0129333D01*
X0058875Y0128774D01*
X0058226Y0128125D01*
X0057667Y0127397D01*
X0057208Y0126603D01*
X0056857Y0125755D01*
X0056620Y0124869D01*
X0056500Y0123959D01*
X0056500Y0123500D01*
X0062500Y0123500D01*
X0062500Y0123500D01*
X0056500Y0123500D01*
X0056500Y0123041D01*
X0056620Y0122131D01*
X0056857Y0121245D01*
X0057208Y0120397D01*
X0057667Y0119603D01*
X0058226Y0118875D01*
X0058875Y0118226D01*
X0059603Y0117667D01*
X0060397Y0117208D01*
X0061245Y0116857D01*
X0062131Y0116620D01*
X0062920Y0116516D01*
X0062500Y0114948D01*
X0062500Y0112052D01*
X0062920Y0110484D01*
X0062131Y0110380D01*
X0061245Y0110143D01*
X0060397Y0109792D01*
X0059603Y0109333D01*
X0058875Y0108774D01*
X0058226Y0108125D01*
X0057667Y0107397D01*
X0057208Y0106603D01*
X0056857Y0105755D01*
X0056620Y0104869D01*
X0056516Y0104080D01*
X0054948Y0104500D01*
X0052052Y0104500D01*
X0049254Y0103750D01*
X0046746Y0102302D01*
X0044698Y0100254D01*
X0043500Y0098179D01*
X0042302Y0100254D01*
X0040385Y0102171D01*
X0040500Y0103041D01*
X0040500Y0103500D01*
X0040500Y0103959D01*
X0040380Y0104869D01*
X0040143Y0105755D01*
X0039792Y0106603D01*
X0039333Y0107397D01*
X0038774Y0108125D01*
X0038125Y0108774D01*
X0037397Y0109333D01*
X0036603Y0109792D01*
X0035755Y0110143D01*
X0034869Y0110380D01*
X0033959Y0110500D01*
X0033500Y0110500D01*
X0033500Y0108179D01*
X0033500Y0108179D01*
X0033500Y0112500D01*
X0034948Y0112500D01*
X0037746Y0113250D01*
X0040254Y0114698D01*
X0042302Y0116746D01*
X0043750Y0119254D01*
X0044500Y0122052D01*
X0044500Y0124948D01*
X0043750Y0127746D01*
X0042302Y0130254D01*
X0040254Y0132302D01*
X0037746Y0133750D01*
X0034948Y0134500D01*
X0032052Y0134500D01*
X0029254Y0133750D01*
X0028820Y0133500D01*
X0028179Y0133500D01*
X0027746Y0133750D01*
X0024948Y0134500D01*
X0022052Y0134500D01*
X0019254Y0133750D01*
X0018500Y0133315D01*
X0017746Y0133750D01*
X0014948Y0134500D01*
X0012052Y0134500D01*
X0009254Y0133750D01*
X0006746Y0132302D01*
X0004698Y0130254D01*
X0003500Y0128179D01*
X0003500Y0143500D01*
X0153500Y0143500D01*
X0153500Y0003500D01*
X0003500Y0003500D01*
X0003500Y0008499D02*
X0153500Y0008499D01*
X0153500Y0013497D02*
X0138174Y0013497D01*
X0143500Y0013500D02*
X0143500Y0093500D01*
X0143500Y0103500D01*
X0150500Y0103500D01*
X0143500Y0103500D01*
X0143500Y0103500D01*
X0143500Y0093500D01*
X0150500Y0093500D01*
X0143500Y0093500D01*
X0143500Y0093500D01*
X0143500Y0095489D01*
X0143500Y0095489D01*
X0143500Y0100500D01*
X0143500Y0103500D01*
X0143500Y0103500D01*
X0143500Y0103470D02*
X0143500Y0103470D01*
X0143500Y0098472D02*
X0143500Y0098472D01*
X0148428Y0098472D02*
X0153500Y0098472D01*
X0153500Y0103470D02*
X0150500Y0103470D01*
X0148431Y0108469D02*
X0153500Y0108469D01*
X0153500Y0113467D02*
X0144500Y0113467D01*
X0143335Y0118466D02*
X0153500Y0118466D01*
X0153500Y0123464D02*
X0144500Y0123464D01*
X0143336Y0128463D02*
X0153500Y0128463D01*
X0153500Y0133461D02*
X0138247Y0133461D01*
X0128753Y0133461D02*
X0128247Y0133461D01*
X0118753Y0133461D02*
X0118247Y0133461D01*
X0113500Y0123500D02*
X0093500Y0123500D01*
X0093500Y0073500D01*
X0093500Y0113500D01*
X0103500Y0113500D02*
X0103500Y0103500D01*
X0103500Y0083500D01*
X0103500Y0073500D02*
X0093500Y0073500D01*
X0083500Y0073500D02*
X0083500Y0063500D01*
X0103500Y0063500D01*
X0103500Y0053500D02*
X0083500Y0053500D01*
X0083500Y0043500D01*
X0083500Y0033500D01*
X0073500Y0033500D01*
X0063500Y0033500D02*
X0063500Y0083500D01*
X0053500Y0083500D01*
X0063500Y0083500D02*
X0083500Y0083500D01*
X0083500Y0093500D01*
X0083500Y0103500D02*
X0073500Y0103500D01*
X0073500Y0113500D01*
X0073500Y0123500D01*
X0083500Y0123500D01*
X0088247Y0133461D02*
X0091417Y0133461D01*
X0103500Y0113500D02*
X0113500Y0113500D01*
X0123500Y0113500D02*
X0123500Y0103500D01*
X0123500Y0093500D02*
X0113500Y0093500D01*
X0123500Y0093500D02*
X0133500Y0093500D01*
X0133500Y0083500D01*
X0143328Y0078478D02*
X0153500Y0078478D01*
X0153500Y0083476D02*
X0144500Y0083476D01*
X0148374Y0088475D02*
X0153500Y0088475D01*
X0153500Y0093473D02*
X0150500Y0093473D01*
X0143500Y0093500D02*
X0143500Y0093500D01*
X0144500Y0073479D02*
X0153500Y0073479D01*
X0153500Y0068481D02*
X0143326Y0068481D01*
X0144500Y0063482D02*
X0153500Y0063482D01*
X0153500Y0058484D02*
X0143324Y0058484D01*
X0144500Y0053485D02*
X0153500Y0053485D01*
X0153500Y0048487D02*
X0143323Y0048487D01*
X0144500Y0043488D02*
X0153500Y0043488D01*
X0153500Y0038490D02*
X0143321Y0038490D01*
X0144500Y0033491D02*
X0153500Y0033491D01*
X0153500Y0028493D02*
X0143319Y0028493D01*
X0144500Y0023494D02*
X0153500Y0023494D01*
X0153500Y0018496D02*
X0143312Y0018496D01*
X0143500Y0013500D02*
X0103500Y0013500D01*
X0083500Y0013500D01*
X0083500Y0023500D01*
X0083500Y0022500D02*
X0083500Y0016500D01*
X0083500Y0022500D01*
X0083500Y0022500D01*
X0083500Y0018496D02*
X0083500Y0018496D01*
X0088395Y0018496D02*
X0098605Y0018496D01*
X0103500Y0018496D02*
X0103500Y0018496D01*
X0103500Y0016500D02*
X0103500Y0022500D01*
X0103500Y0022500D01*
X0103500Y0016500D01*
X0103500Y0013500D02*
X0103500Y0023500D01*
X0108179Y0023500D02*
X0108180Y0023500D01*
X0110500Y0023500D01*
X0108179Y0023500D01*
X0110500Y0023494D02*
X0122500Y0023494D01*
X0123681Y0028493D02*
X0113311Y0028493D01*
X0114500Y0033491D02*
X0122500Y0033491D01*
X0123679Y0038490D02*
X0113321Y0038490D01*
X0114500Y0043488D02*
X0122500Y0043488D01*
X0123677Y0048487D02*
X0113323Y0048487D01*
X0114500Y0053485D02*
X0122500Y0053485D01*
X0123676Y0058484D02*
X0113324Y0058484D01*
X0114500Y0063482D02*
X0122500Y0063482D01*
X0123674Y0068481D02*
X0113326Y0068481D01*
X0114500Y0073479D02*
X0122500Y0073479D01*
X0123672Y0078478D02*
X0113328Y0078478D01*
X0114500Y0083476D02*
X0118862Y0083476D01*
X0123500Y0113500D02*
X0123500Y0123500D01*
X0153500Y0138460D02*
X0003500Y0138460D01*
X0003500Y0143458D02*
X0153500Y0143458D01*
X0083500Y0073500D02*
X0073500Y0073500D01*
X0073500Y0093500D02*
X0053500Y0093500D01*
X0048769Y0103470D02*
X0040500Y0103470D01*
X0040500Y0103500D02*
X0038180Y0103500D01*
X0038179Y0103500D01*
X0040500Y0103500D01*
X0043500Y0103500D02*
X0043500Y0013500D01*
X0023500Y0013500D01*
X0023500Y0023500D01*
X0023500Y0022500D02*
X0023500Y0016500D01*
X0023500Y0022500D01*
X0023500Y0022500D01*
X0023500Y0018496D02*
X0023500Y0018496D01*
X0018605Y0018496D02*
X0003500Y0018496D01*
X0003500Y0023494D02*
X0016500Y0023494D01*
X0013689Y0028493D02*
X0003500Y0028493D01*
X0003500Y0033491D02*
X0012500Y0033491D01*
X0013679Y0038490D02*
X0003500Y0038490D01*
X0003500Y0043488D02*
X0012500Y0043488D01*
X0013677Y0048487D02*
X0003500Y0048487D01*
X0003500Y0053485D02*
X0012500Y0053485D01*
X0013676Y0058484D02*
X0003500Y0058484D01*
X0003500Y0063482D02*
X0012500Y0063482D01*
X0004755Y0068481D02*
X0003500Y0068481D01*
X0013500Y0073500D02*
X0023500Y0073500D01*
X0023500Y0063500D01*
X0023500Y0053500D02*
X0033500Y0053500D01*
X0033500Y0093500D01*
X0033500Y0103500D02*
X0043500Y0103500D01*
X0063500Y0103500D01*
X0063500Y0123500D01*
X0063500Y0128463D02*
X0063500Y0128463D01*
X0058563Y0128463D02*
X0043336Y0128463D01*
X0044500Y0123464D02*
X0056500Y0123464D01*
X0058635Y0118466D02*
X0043295Y0118466D01*
X0038123Y0113467D02*
X0062500Y0113467D01*
X0058569Y0108469D02*
X0038431Y0108469D01*
X0033500Y0108469D02*
X0033500Y0108469D01*
X0043331Y0098472D02*
X0043669Y0098472D01*
X0023500Y0093500D02*
X0023500Y0103500D01*
X0023500Y0083500D01*
X0013500Y0073500D02*
X0013500Y0123500D01*
X0023500Y0123500D02*
X0023500Y0103500D01*
X0023500Y0123500D02*
X0033500Y0123500D01*
X0038247Y0133461D02*
X0068753Y0133461D01*
X0073500Y0113500D02*
X0073500Y0093500D01*
X0043677Y0048487D02*
X0042247Y0048487D01*
X0042500Y0043488D02*
X0034500Y0043488D01*
X0033321Y0038490D02*
X0043679Y0038490D01*
X0042500Y0033491D02*
X0034500Y0033491D01*
X0033311Y0028493D02*
X0043681Y0028493D01*
X0042500Y0023494D02*
X0030500Y0023494D01*
X0030500Y0023500D02*
X0028179Y0023500D01*
X0028180Y0023500D01*
X0030500Y0023500D01*
X0028395Y0018496D02*
X0043688Y0018496D01*
X0043500Y0013500D02*
X0063500Y0013500D01*
X0083500Y0013500D01*
X0078605Y0018496D02*
X0068395Y0018496D01*
X0063500Y0018496D02*
X0063500Y0018496D01*
X0063500Y0018820D02*
X0063500Y0018821D01*
X0063500Y0016500D01*
X0063500Y0018820D01*
X0063500Y0023500D02*
X0063500Y0013500D01*
X0058174Y0013497D02*
X0128826Y0013497D01*
X0123688Y0018496D02*
X0108395Y0018496D01*
X0096500Y0023494D02*
X0090500Y0023494D01*
X0090500Y0023500D02*
X0088179Y0023500D01*
X0088180Y0023500D01*
X0090500Y0023500D01*
X0093311Y0028493D02*
X0093689Y0028493D01*
X0048826Y0013497D02*
X0003500Y0013497D01*
X0003500Y0128463D02*
X0003664Y0128463D01*
X0003500Y0133461D02*
X0008753Y0133461D01*
X0018247Y0133461D02*
X0018753Y0133461D01*
D12*
X0083500Y0093500D03*
X0113500Y0093500D03*
M02*
