%
M48
M72
T01C0.02362
T02C0.02756
%
T01
X9483Y10982
X12483Y10982
T02
X3483Y3982
X3483Y4982
X3483Y5982
X3483Y6982
X3483Y7982
X3483Y8982
X3483Y9982
X4483Y10982
X4483Y11982
X3483Y11982
X3483Y13982
X4483Y13982
X2483Y13982
X6483Y10982
X6483Y9982
X7483Y9982
X6483Y8982
X6483Y7982
X6483Y6982
X6483Y5982
X6483Y4982
X6483Y3982
X7483Y3982
X7483Y4982
X8483Y4982
X9483Y4982
X9483Y3982
X11483Y3982
X11483Y4982
X11483Y5982
X11483Y6982
X11483Y7982
X11483Y8982
X10483Y8982
X9483Y8982
X8483Y8982
X9483Y7982
X9483Y5982
X11483Y9982
X13483Y10982
X14483Y9982
X15483Y10982
X15483Y11982
X14483Y12982
X14483Y13982
X13483Y13982
X13483Y13013
X12483Y12982
X12483Y13982
X10483Y12982
X9483Y13982
X8483Y13982
X7483Y13982
X8483Y12982
X7483Y11982
X9483Y11982
X11483Y11982
X13483Y11982
X14483Y8982
X14483Y7982
X14483Y6982
X14483Y5982
X14483Y4982
X14483Y3982
M30
