G75*
%MOIN*%
%OFA0B0*%
%FSLAX25Y25*%
%IPPOS*%
%LPD*%
%AMOC8*
5,1,8,0,0,1.08239X$1,22.5*
%
%ADD10C,0.07000*%
%ADD11C,0.05000*%
%ADD12R,0.03962X0.03962*%
D10*
X0021600Y0021600D03*
X0021600Y0031600D03*
X0021600Y0041600D03*
X0021600Y0051600D03*
X0021600Y0061600D03*
X0021600Y0071600D03*
X0021600Y0081600D03*
X0031600Y0091600D03*
X0031600Y0101600D03*
X0021600Y0101600D03*
X0021600Y0121600D03*
X0031600Y0121600D03*
X0011600Y0121600D03*
X0051600Y0091600D03*
X0051600Y0081600D03*
X0051600Y0071600D03*
X0051600Y0061600D03*
X0051600Y0051600D03*
X0051600Y0041600D03*
X0051600Y0031600D03*
X0051600Y0021600D03*
X0061600Y0021600D03*
X0061600Y0031600D03*
X0071600Y0031600D03*
X0081600Y0031600D03*
X0081600Y0021600D03*
X0081600Y0041600D03*
X0081600Y0061600D03*
X0081600Y0071600D03*
X0091600Y0071600D03*
X0101600Y0071600D03*
X0101600Y0061600D03*
X0101600Y0051600D03*
X0101600Y0041600D03*
X0101600Y0031600D03*
X0101600Y0021600D03*
X0131600Y0021600D03*
X0131600Y0031600D03*
X0131600Y0041600D03*
X0131600Y0051600D03*
X0131600Y0061600D03*
X0131600Y0071600D03*
X0131600Y0081600D03*
X0121600Y0091600D03*
X0121600Y0101600D03*
X0131600Y0111600D03*
X0121600Y0111915D03*
X0121600Y0121600D03*
X0131600Y0121600D03*
X0111600Y0121600D03*
X0111600Y0111600D03*
X0101600Y0101600D03*
X0091600Y0111600D03*
X0081600Y0101600D03*
X0071600Y0111600D03*
X0061600Y0101600D03*
X0061600Y0081600D03*
X0071600Y0071600D03*
X0101600Y0081600D03*
X0081600Y0121600D03*
X0071600Y0121600D03*
X0061600Y0121600D03*
X0141600Y0101600D03*
X0141600Y0091600D03*
D11*
X0111600Y0091600D02*
X0081600Y0091600D01*
D12*
X0081600Y0091600D03*
X0111600Y0091600D03*
M02*
