G75*
%MOIN*%
%OFA0B0*%
%FSLAX25Y25*%
%IPPOS*%
%LPD*%
%AMOC8*
5,1,8,0,0,1.08239X$1,22.5*
%
%ADD10C,0.00600*%
%ADD11C,0.00200*%
%ADD12R,0.01000X0.06400*%
%ADD13C,0.00400*%
%ADD14R,0.01000X0.04000*%
%ADD15C,0.00300*%
%ADD16R,0.04000X0.01000*%
%ADD17C,0.00500*%
%ADD18C,0.00800*%
%ADD19C,0.01000*%
%ADD20R,0.02000X0.01500*%
D10*
X0038337Y0034823D02*
X0061337Y0034823D01*
X0061337Y0104823D01*
X0053837Y0104823D01*
X0053835Y0104697D01*
X0053829Y0104572D01*
X0053819Y0104447D01*
X0053805Y0104322D01*
X0053788Y0104197D01*
X0053766Y0104073D01*
X0053741Y0103950D01*
X0053711Y0103828D01*
X0053678Y0103707D01*
X0053641Y0103587D01*
X0053601Y0103468D01*
X0053556Y0103351D01*
X0053508Y0103234D01*
X0053456Y0103120D01*
X0053401Y0103007D01*
X0053342Y0102896D01*
X0053280Y0102787D01*
X0053214Y0102680D01*
X0053145Y0102575D01*
X0053073Y0102472D01*
X0052998Y0102371D01*
X0052919Y0102273D01*
X0052837Y0102178D01*
X0052753Y0102085D01*
X0052665Y0101995D01*
X0052575Y0101907D01*
X0052482Y0101823D01*
X0052387Y0101741D01*
X0052289Y0101662D01*
X0052188Y0101587D01*
X0052085Y0101515D01*
X0051980Y0101446D01*
X0051873Y0101380D01*
X0051764Y0101318D01*
X0051653Y0101259D01*
X0051540Y0101204D01*
X0051426Y0101152D01*
X0051309Y0101104D01*
X0051192Y0101059D01*
X0051073Y0101019D01*
X0050953Y0100982D01*
X0050832Y0100949D01*
X0050710Y0100919D01*
X0050587Y0100894D01*
X0050463Y0100872D01*
X0050338Y0100855D01*
X0050213Y0100841D01*
X0050088Y0100831D01*
X0049963Y0100825D01*
X0049837Y0100823D01*
X0049711Y0100825D01*
X0049586Y0100831D01*
X0049461Y0100841D01*
X0049336Y0100855D01*
X0049211Y0100872D01*
X0049087Y0100894D01*
X0048964Y0100919D01*
X0048842Y0100949D01*
X0048721Y0100982D01*
X0048601Y0101019D01*
X0048482Y0101059D01*
X0048365Y0101104D01*
X0048248Y0101152D01*
X0048134Y0101204D01*
X0048021Y0101259D01*
X0047910Y0101318D01*
X0047801Y0101380D01*
X0047694Y0101446D01*
X0047589Y0101515D01*
X0047486Y0101587D01*
X0047385Y0101662D01*
X0047287Y0101741D01*
X0047192Y0101823D01*
X0047099Y0101907D01*
X0047009Y0101995D01*
X0046921Y0102085D01*
X0046837Y0102178D01*
X0046755Y0102273D01*
X0046676Y0102371D01*
X0046601Y0102472D01*
X0046529Y0102575D01*
X0046460Y0102680D01*
X0046394Y0102787D01*
X0046332Y0102896D01*
X0046273Y0103007D01*
X0046218Y0103120D01*
X0046166Y0103234D01*
X0046118Y0103351D01*
X0046073Y0103468D01*
X0046033Y0103587D01*
X0045996Y0103707D01*
X0045963Y0103828D01*
X0045933Y0103950D01*
X0045908Y0104073D01*
X0045886Y0104197D01*
X0045869Y0104322D01*
X0045855Y0104447D01*
X0045845Y0104572D01*
X0045839Y0104697D01*
X0045837Y0104823D01*
X0038337Y0104823D01*
X0038337Y0034823D01*
X0080837Y0060823D02*
X0080837Y0062323D01*
X0081337Y0062823D01*
X0081337Y0076823D01*
X0080837Y0077323D01*
X0080837Y0078823D01*
X0080839Y0078883D01*
X0080844Y0078944D01*
X0080853Y0079003D01*
X0080866Y0079062D01*
X0080882Y0079121D01*
X0080902Y0079178D01*
X0080925Y0079233D01*
X0080952Y0079288D01*
X0080981Y0079340D01*
X0081014Y0079391D01*
X0081050Y0079440D01*
X0081088Y0079486D01*
X0081130Y0079530D01*
X0081174Y0079572D01*
X0081220Y0079610D01*
X0081269Y0079646D01*
X0081320Y0079679D01*
X0081372Y0079708D01*
X0081427Y0079735D01*
X0081482Y0079758D01*
X0081539Y0079778D01*
X0081598Y0079794D01*
X0081657Y0079807D01*
X0081716Y0079816D01*
X0081777Y0079821D01*
X0081837Y0079823D01*
X0087837Y0079823D01*
X0087897Y0079821D01*
X0087958Y0079816D01*
X0088017Y0079807D01*
X0088076Y0079794D01*
X0088135Y0079778D01*
X0088192Y0079758D01*
X0088247Y0079735D01*
X0088302Y0079708D01*
X0088354Y0079679D01*
X0088405Y0079646D01*
X0088454Y0079610D01*
X0088500Y0079572D01*
X0088544Y0079530D01*
X0088586Y0079486D01*
X0088624Y0079440D01*
X0088660Y0079391D01*
X0088693Y0079340D01*
X0088722Y0079288D01*
X0088749Y0079233D01*
X0088772Y0079178D01*
X0088792Y0079121D01*
X0088808Y0079062D01*
X0088821Y0079003D01*
X0088830Y0078944D01*
X0088835Y0078883D01*
X0088837Y0078823D01*
X0088837Y0077323D01*
X0088337Y0076823D01*
X0088337Y0062823D01*
X0088837Y0062323D01*
X0088837Y0060823D01*
X0088835Y0060763D01*
X0088830Y0060702D01*
X0088821Y0060643D01*
X0088808Y0060584D01*
X0088792Y0060525D01*
X0088772Y0060468D01*
X0088749Y0060413D01*
X0088722Y0060358D01*
X0088693Y0060306D01*
X0088660Y0060255D01*
X0088624Y0060206D01*
X0088586Y0060160D01*
X0088544Y0060116D01*
X0088500Y0060074D01*
X0088454Y0060036D01*
X0088405Y0060000D01*
X0088354Y0059967D01*
X0088302Y0059938D01*
X0088247Y0059911D01*
X0088192Y0059888D01*
X0088135Y0059868D01*
X0088076Y0059852D01*
X0088017Y0059839D01*
X0087958Y0059830D01*
X0087897Y0059825D01*
X0087837Y0059823D01*
X0081837Y0059823D01*
X0081777Y0059825D01*
X0081716Y0059830D01*
X0081657Y0059839D01*
X0081598Y0059852D01*
X0081539Y0059868D01*
X0081482Y0059888D01*
X0081427Y0059911D01*
X0081372Y0059938D01*
X0081320Y0059967D01*
X0081269Y0060000D01*
X0081220Y0060036D01*
X0081174Y0060074D01*
X0081130Y0060116D01*
X0081088Y0060160D01*
X0081050Y0060206D01*
X0081014Y0060255D01*
X0080981Y0060306D01*
X0080952Y0060358D01*
X0080925Y0060413D01*
X0080902Y0060468D01*
X0080882Y0060525D01*
X0080866Y0060584D01*
X0080853Y0060643D01*
X0080844Y0060702D01*
X0080839Y0060763D01*
X0080837Y0060823D01*
X0080839Y0060763D01*
X0080844Y0060702D01*
X0080853Y0060643D01*
X0080866Y0060584D01*
X0080882Y0060525D01*
X0080902Y0060468D01*
X0080925Y0060413D01*
X0080952Y0060358D01*
X0080981Y0060306D01*
X0081014Y0060255D01*
X0081050Y0060206D01*
X0081088Y0060160D01*
X0081130Y0060116D01*
X0081174Y0060074D01*
X0081220Y0060036D01*
X0081269Y0060000D01*
X0081320Y0059967D01*
X0081372Y0059938D01*
X0081427Y0059911D01*
X0081482Y0059888D01*
X0081539Y0059868D01*
X0081598Y0059852D01*
X0081657Y0059839D01*
X0081716Y0059830D01*
X0081777Y0059825D01*
X0081837Y0059823D01*
X0087837Y0059823D02*
X0087897Y0059825D01*
X0087958Y0059830D01*
X0088017Y0059839D01*
X0088076Y0059852D01*
X0088135Y0059868D01*
X0088192Y0059888D01*
X0088247Y0059911D01*
X0088302Y0059938D01*
X0088354Y0059967D01*
X0088405Y0060000D01*
X0088454Y0060036D01*
X0088500Y0060074D01*
X0088544Y0060116D01*
X0088586Y0060160D01*
X0088624Y0060206D01*
X0088660Y0060255D01*
X0088693Y0060306D01*
X0088722Y0060358D01*
X0088749Y0060413D01*
X0088772Y0060468D01*
X0088792Y0060525D01*
X0088808Y0060584D01*
X0088821Y0060643D01*
X0088830Y0060702D01*
X0088835Y0060763D01*
X0088837Y0060823D01*
X0088837Y0078823D02*
X0088835Y0078883D01*
X0088830Y0078944D01*
X0088821Y0079003D01*
X0088808Y0079062D01*
X0088792Y0079121D01*
X0088772Y0079178D01*
X0088749Y0079233D01*
X0088722Y0079288D01*
X0088693Y0079340D01*
X0088660Y0079391D01*
X0088624Y0079440D01*
X0088586Y0079486D01*
X0088544Y0079530D01*
X0088500Y0079572D01*
X0088454Y0079610D01*
X0088405Y0079646D01*
X0088354Y0079679D01*
X0088302Y0079708D01*
X0088247Y0079735D01*
X0088192Y0079758D01*
X0088135Y0079778D01*
X0088076Y0079794D01*
X0088017Y0079807D01*
X0087958Y0079816D01*
X0087897Y0079821D01*
X0087837Y0079823D01*
X0081837Y0079823D02*
X0081777Y0079821D01*
X0081716Y0079816D01*
X0081657Y0079807D01*
X0081598Y0079794D01*
X0081539Y0079778D01*
X0081482Y0079758D01*
X0081427Y0079735D01*
X0081372Y0079708D01*
X0081320Y0079679D01*
X0081269Y0079646D01*
X0081220Y0079610D01*
X0081174Y0079572D01*
X0081130Y0079530D01*
X0081088Y0079486D01*
X0081050Y0079440D01*
X0081014Y0079391D01*
X0080981Y0079340D01*
X0080952Y0079288D01*
X0080925Y0079233D01*
X0080902Y0079178D01*
X0080882Y0079121D01*
X0080866Y0079062D01*
X0080853Y0079003D01*
X0080844Y0078944D01*
X0080839Y0078883D01*
X0080837Y0078823D01*
X0118337Y0104823D02*
X0125837Y0104823D01*
X0125839Y0104697D01*
X0125845Y0104572D01*
X0125855Y0104447D01*
X0125869Y0104322D01*
X0125886Y0104197D01*
X0125908Y0104073D01*
X0125933Y0103950D01*
X0125963Y0103828D01*
X0125996Y0103707D01*
X0126033Y0103587D01*
X0126073Y0103468D01*
X0126118Y0103351D01*
X0126166Y0103234D01*
X0126218Y0103120D01*
X0126273Y0103007D01*
X0126332Y0102896D01*
X0126394Y0102787D01*
X0126460Y0102680D01*
X0126529Y0102575D01*
X0126601Y0102472D01*
X0126676Y0102371D01*
X0126755Y0102273D01*
X0126837Y0102178D01*
X0126921Y0102085D01*
X0127009Y0101995D01*
X0127099Y0101907D01*
X0127192Y0101823D01*
X0127287Y0101741D01*
X0127385Y0101662D01*
X0127486Y0101587D01*
X0127589Y0101515D01*
X0127694Y0101446D01*
X0127801Y0101380D01*
X0127910Y0101318D01*
X0128021Y0101259D01*
X0128134Y0101204D01*
X0128248Y0101152D01*
X0128365Y0101104D01*
X0128482Y0101059D01*
X0128601Y0101019D01*
X0128721Y0100982D01*
X0128842Y0100949D01*
X0128964Y0100919D01*
X0129087Y0100894D01*
X0129211Y0100872D01*
X0129336Y0100855D01*
X0129461Y0100841D01*
X0129586Y0100831D01*
X0129711Y0100825D01*
X0129837Y0100823D01*
X0129963Y0100825D01*
X0130088Y0100831D01*
X0130213Y0100841D01*
X0130338Y0100855D01*
X0130463Y0100872D01*
X0130587Y0100894D01*
X0130710Y0100919D01*
X0130832Y0100949D01*
X0130953Y0100982D01*
X0131073Y0101019D01*
X0131192Y0101059D01*
X0131309Y0101104D01*
X0131426Y0101152D01*
X0131540Y0101204D01*
X0131653Y0101259D01*
X0131764Y0101318D01*
X0131873Y0101380D01*
X0131980Y0101446D01*
X0132085Y0101515D01*
X0132188Y0101587D01*
X0132289Y0101662D01*
X0132387Y0101741D01*
X0132482Y0101823D01*
X0132575Y0101907D01*
X0132665Y0101995D01*
X0132753Y0102085D01*
X0132837Y0102178D01*
X0132919Y0102273D01*
X0132998Y0102371D01*
X0133073Y0102472D01*
X0133145Y0102575D01*
X0133214Y0102680D01*
X0133280Y0102787D01*
X0133342Y0102896D01*
X0133401Y0103007D01*
X0133456Y0103120D01*
X0133508Y0103234D01*
X0133556Y0103351D01*
X0133601Y0103468D01*
X0133641Y0103587D01*
X0133678Y0103707D01*
X0133711Y0103828D01*
X0133741Y0103950D01*
X0133766Y0104073D01*
X0133788Y0104197D01*
X0133805Y0104322D01*
X0133819Y0104447D01*
X0133829Y0104572D01*
X0133835Y0104697D01*
X0133837Y0104823D01*
X0141337Y0104823D01*
X0141337Y0034823D01*
X0118337Y0034823D01*
X0118337Y0104823D01*
X0031837Y0119823D02*
X0031839Y0120019D01*
X0031847Y0120216D01*
X0031859Y0120412D01*
X0031876Y0120607D01*
X0031897Y0120802D01*
X0031924Y0120997D01*
X0031955Y0121191D01*
X0031991Y0121384D01*
X0032031Y0121576D01*
X0032077Y0121767D01*
X0032127Y0121957D01*
X0032181Y0122145D01*
X0032241Y0122332D01*
X0032305Y0122518D01*
X0032373Y0122702D01*
X0032446Y0122884D01*
X0032523Y0123065D01*
X0032605Y0123243D01*
X0032691Y0123420D01*
X0032782Y0123594D01*
X0032876Y0123766D01*
X0032975Y0123936D01*
X0033078Y0124103D01*
X0033185Y0124268D01*
X0033296Y0124429D01*
X0033411Y0124589D01*
X0033530Y0124745D01*
X0033653Y0124898D01*
X0033779Y0125048D01*
X0033909Y0125195D01*
X0034043Y0125339D01*
X0034180Y0125480D01*
X0034321Y0125617D01*
X0034465Y0125751D01*
X0034612Y0125881D01*
X0034762Y0126007D01*
X0034915Y0126130D01*
X0035071Y0126249D01*
X0035231Y0126364D01*
X0035392Y0126475D01*
X0035557Y0126582D01*
X0035724Y0126685D01*
X0035894Y0126784D01*
X0036066Y0126878D01*
X0036240Y0126969D01*
X0036417Y0127055D01*
X0036595Y0127137D01*
X0036776Y0127214D01*
X0036958Y0127287D01*
X0037142Y0127355D01*
X0037328Y0127419D01*
X0037515Y0127479D01*
X0037703Y0127533D01*
X0037893Y0127583D01*
X0038084Y0127629D01*
X0038276Y0127669D01*
X0038469Y0127705D01*
X0038663Y0127736D01*
X0038858Y0127763D01*
X0039053Y0127784D01*
X0039248Y0127801D01*
X0039444Y0127813D01*
X0039641Y0127821D01*
X0039837Y0127823D01*
X0040033Y0127821D01*
X0040230Y0127813D01*
X0040426Y0127801D01*
X0040621Y0127784D01*
X0040816Y0127763D01*
X0041011Y0127736D01*
X0041205Y0127705D01*
X0041398Y0127669D01*
X0041590Y0127629D01*
X0041781Y0127583D01*
X0041971Y0127533D01*
X0042159Y0127479D01*
X0042346Y0127419D01*
X0042532Y0127355D01*
X0042716Y0127287D01*
X0042898Y0127214D01*
X0043079Y0127137D01*
X0043257Y0127055D01*
X0043434Y0126969D01*
X0043608Y0126878D01*
X0043780Y0126784D01*
X0043950Y0126685D01*
X0044117Y0126582D01*
X0044282Y0126475D01*
X0044443Y0126364D01*
X0044603Y0126249D01*
X0044759Y0126130D01*
X0044912Y0126007D01*
X0045062Y0125881D01*
X0045209Y0125751D01*
X0045353Y0125617D01*
X0045494Y0125480D01*
X0045631Y0125339D01*
X0045765Y0125195D01*
X0045895Y0125048D01*
X0046021Y0124898D01*
X0046144Y0124745D01*
X0046263Y0124589D01*
X0046378Y0124429D01*
X0046489Y0124268D01*
X0046596Y0124103D01*
X0046699Y0123936D01*
X0046798Y0123766D01*
X0046892Y0123594D01*
X0046983Y0123420D01*
X0047069Y0123243D01*
X0047151Y0123065D01*
X0047228Y0122884D01*
X0047301Y0122702D01*
X0047369Y0122518D01*
X0047433Y0122332D01*
X0047493Y0122145D01*
X0047547Y0121957D01*
X0047597Y0121767D01*
X0047643Y0121576D01*
X0047683Y0121384D01*
X0047719Y0121191D01*
X0047750Y0120997D01*
X0047777Y0120802D01*
X0047798Y0120607D01*
X0047815Y0120412D01*
X0047827Y0120216D01*
X0047835Y0120019D01*
X0047837Y0119823D01*
X0047835Y0119627D01*
X0047827Y0119430D01*
X0047815Y0119234D01*
X0047798Y0119039D01*
X0047777Y0118844D01*
X0047750Y0118649D01*
X0047719Y0118455D01*
X0047683Y0118262D01*
X0047643Y0118070D01*
X0047597Y0117879D01*
X0047547Y0117689D01*
X0047493Y0117501D01*
X0047433Y0117314D01*
X0047369Y0117128D01*
X0047301Y0116944D01*
X0047228Y0116762D01*
X0047151Y0116581D01*
X0047069Y0116403D01*
X0046983Y0116226D01*
X0046892Y0116052D01*
X0046798Y0115880D01*
X0046699Y0115710D01*
X0046596Y0115543D01*
X0046489Y0115378D01*
X0046378Y0115217D01*
X0046263Y0115057D01*
X0046144Y0114901D01*
X0046021Y0114748D01*
X0045895Y0114598D01*
X0045765Y0114451D01*
X0045631Y0114307D01*
X0045494Y0114166D01*
X0045353Y0114029D01*
X0045209Y0113895D01*
X0045062Y0113765D01*
X0044912Y0113639D01*
X0044759Y0113516D01*
X0044603Y0113397D01*
X0044443Y0113282D01*
X0044282Y0113171D01*
X0044117Y0113064D01*
X0043950Y0112961D01*
X0043780Y0112862D01*
X0043608Y0112768D01*
X0043434Y0112677D01*
X0043257Y0112591D01*
X0043079Y0112509D01*
X0042898Y0112432D01*
X0042716Y0112359D01*
X0042532Y0112291D01*
X0042346Y0112227D01*
X0042159Y0112167D01*
X0041971Y0112113D01*
X0041781Y0112063D01*
X0041590Y0112017D01*
X0041398Y0111977D01*
X0041205Y0111941D01*
X0041011Y0111910D01*
X0040816Y0111883D01*
X0040621Y0111862D01*
X0040426Y0111845D01*
X0040230Y0111833D01*
X0040033Y0111825D01*
X0039837Y0111823D01*
X0039641Y0111825D01*
X0039444Y0111833D01*
X0039248Y0111845D01*
X0039053Y0111862D01*
X0038858Y0111883D01*
X0038663Y0111910D01*
X0038469Y0111941D01*
X0038276Y0111977D01*
X0038084Y0112017D01*
X0037893Y0112063D01*
X0037703Y0112113D01*
X0037515Y0112167D01*
X0037328Y0112227D01*
X0037142Y0112291D01*
X0036958Y0112359D01*
X0036776Y0112432D01*
X0036595Y0112509D01*
X0036417Y0112591D01*
X0036240Y0112677D01*
X0036066Y0112768D01*
X0035894Y0112862D01*
X0035724Y0112961D01*
X0035557Y0113064D01*
X0035392Y0113171D01*
X0035231Y0113282D01*
X0035071Y0113397D01*
X0034915Y0113516D01*
X0034762Y0113639D01*
X0034612Y0113765D01*
X0034465Y0113895D01*
X0034321Y0114029D01*
X0034180Y0114166D01*
X0034043Y0114307D01*
X0033909Y0114451D01*
X0033779Y0114598D01*
X0033653Y0114748D01*
X0033530Y0114901D01*
X0033411Y0115057D01*
X0033296Y0115217D01*
X0033185Y0115378D01*
X0033078Y0115543D01*
X0032975Y0115710D01*
X0032876Y0115880D01*
X0032782Y0116052D01*
X0032691Y0116226D01*
X0032605Y0116403D01*
X0032523Y0116581D01*
X0032446Y0116762D01*
X0032373Y0116944D01*
X0032305Y0117128D01*
X0032241Y0117314D01*
X0032181Y0117501D01*
X0032127Y0117689D01*
X0032077Y0117879D01*
X0032031Y0118070D01*
X0031991Y0118262D01*
X0031955Y0118455D01*
X0031924Y0118649D01*
X0031897Y0118844D01*
X0031876Y0119039D01*
X0031859Y0119234D01*
X0031847Y0119430D01*
X0031839Y0119627D01*
X0031837Y0119823D01*
X0035837Y0124073D02*
X0035837Y0124823D01*
X0035837Y0125573D01*
X0035837Y0124823D02*
X0036587Y0124823D01*
X0035837Y0124823D02*
X0035087Y0124823D01*
D11*
X0041888Y0126923D02*
X0043356Y0128024D01*
X0041888Y0129125D01*
X0044098Y0129125D02*
X0044098Y0126923D01*
X0045566Y0126923D02*
X0044098Y0129125D01*
X0045566Y0129125D02*
X0045566Y0126923D01*
X0046307Y0126923D02*
X0046307Y0128391D01*
X0047041Y0129125D01*
X0047775Y0128391D01*
X0047775Y0126923D01*
X0048517Y0126923D02*
X0048517Y0129125D01*
X0049251Y0128391D01*
X0049985Y0129125D01*
X0049985Y0126923D01*
X0050727Y0126923D02*
X0052195Y0126923D01*
X0051461Y0128024D02*
X0050727Y0128024D01*
X0050727Y0129125D02*
X0050727Y0126923D01*
X0050727Y0129125D02*
X0052195Y0129125D01*
X0056715Y0129125D02*
X0058183Y0128024D01*
X0056715Y0126923D01*
X0058925Y0127657D02*
X0058925Y0129125D01*
X0058925Y0127657D02*
X0059659Y0126923D01*
X0060393Y0127657D01*
X0060393Y0129125D01*
X0061135Y0128391D02*
X0061869Y0129125D01*
X0062603Y0128391D01*
X0062603Y0126923D01*
X0063345Y0126923D02*
X0064813Y0126923D01*
X0065555Y0127290D02*
X0065922Y0126923D01*
X0066656Y0126923D01*
X0067023Y0127290D01*
X0067023Y0129125D01*
X0067765Y0129125D02*
X0067765Y0126923D01*
X0069232Y0126923D01*
X0068499Y0128024D02*
X0067765Y0128024D01*
X0067765Y0129125D02*
X0069232Y0129125D01*
X0065555Y0129125D02*
X0065555Y0127290D01*
X0063345Y0126923D02*
X0063345Y0129125D01*
X0062603Y0128024D02*
X0061135Y0128024D01*
X0061135Y0128391D02*
X0061135Y0126923D01*
X0062098Y0120725D02*
X0063566Y0118523D01*
X0063566Y0120725D01*
X0064307Y0119991D02*
X0065041Y0120725D01*
X0065775Y0119991D01*
X0065775Y0118523D01*
X0066517Y0118523D02*
X0066517Y0120725D01*
X0067251Y0119991D01*
X0067985Y0120725D01*
X0067985Y0118523D01*
X0068727Y0118523D02*
X0070195Y0118523D01*
X0069461Y0119624D02*
X0068727Y0119624D01*
X0068727Y0120725D02*
X0068727Y0118523D01*
X0065775Y0119624D02*
X0064307Y0119624D01*
X0064307Y0119991D02*
X0064307Y0118523D01*
X0062098Y0118523D02*
X0062098Y0120725D01*
X0061356Y0119624D02*
X0059888Y0118523D01*
X0061356Y0119624D02*
X0059888Y0120725D01*
X0068727Y0120725D02*
X0070195Y0120725D01*
X0081678Y0123723D02*
X0083146Y0124824D01*
X0081678Y0125925D01*
X0083888Y0125925D02*
X0083888Y0124457D01*
X0084622Y0123723D01*
X0085356Y0124457D01*
X0085356Y0125925D01*
X0086098Y0125191D02*
X0086098Y0123723D01*
X0086098Y0124824D02*
X0087566Y0124824D01*
X0087566Y0125191D02*
X0087566Y0123723D01*
X0088307Y0123723D02*
X0088307Y0125925D01*
X0087566Y0125191D02*
X0086832Y0125925D01*
X0086098Y0125191D01*
X0088307Y0123723D02*
X0089775Y0123723D01*
X0090517Y0124090D02*
X0090517Y0125925D01*
X0091985Y0125925D02*
X0091985Y0124090D01*
X0091618Y0123723D01*
X0090884Y0123723D01*
X0090517Y0124090D01*
X0090937Y0122218D02*
X0090937Y0120750D01*
X0088735Y0120750D01*
X0088735Y0122218D01*
X0089836Y0121484D02*
X0089836Y0120750D01*
X0090570Y0120009D02*
X0088735Y0120009D01*
X0088735Y0118541D02*
X0090570Y0118541D01*
X0090937Y0118908D01*
X0090937Y0119642D01*
X0090570Y0120009D01*
X0090937Y0117799D02*
X0090937Y0116331D01*
X0088735Y0116331D01*
X0088425Y0115925D02*
X0089893Y0113723D01*
X0089893Y0115925D01*
X0089836Y0115589D02*
X0089836Y0114121D01*
X0089469Y0114121D02*
X0088735Y0114855D01*
X0089469Y0115589D01*
X0090937Y0115589D01*
X0090635Y0115191D02*
X0091369Y0115925D01*
X0092103Y0115191D01*
X0092103Y0113723D01*
X0092845Y0113723D02*
X0092845Y0115925D01*
X0093579Y0115191D01*
X0094313Y0115925D01*
X0094313Y0113723D01*
X0095055Y0113723D02*
X0096523Y0113723D01*
X0095789Y0114824D02*
X0095055Y0114824D01*
X0095055Y0115925D02*
X0095055Y0113723D01*
X0095055Y0115925D02*
X0096523Y0115925D01*
X0102388Y0115925D02*
X0103856Y0114824D01*
X0102388Y0113723D01*
X0104598Y0113723D02*
X0104598Y0115925D01*
X0106066Y0113723D01*
X0106066Y0115925D01*
X0106807Y0115191D02*
X0107541Y0115925D01*
X0108275Y0115191D01*
X0108275Y0113723D01*
X0109017Y0113723D02*
X0109017Y0115925D01*
X0109751Y0115191D01*
X0110485Y0115925D01*
X0110485Y0113723D01*
X0111227Y0113723D02*
X0111227Y0115925D01*
X0112695Y0115925D01*
X0111961Y0114824D02*
X0111227Y0114824D01*
X0111227Y0113723D02*
X0112695Y0113723D01*
X0108275Y0114824D02*
X0106807Y0114824D01*
X0106807Y0115191D02*
X0106807Y0113723D01*
X0106715Y0126923D02*
X0108183Y0128024D01*
X0106715Y0129125D01*
X0108925Y0129125D02*
X0108925Y0127657D01*
X0109659Y0126923D01*
X0110393Y0127657D01*
X0110393Y0129125D01*
X0111135Y0128391D02*
X0111135Y0126923D01*
X0111135Y0128024D02*
X0112603Y0128024D01*
X0112603Y0128391D02*
X0112603Y0126923D01*
X0113345Y0126923D02*
X0113345Y0129125D01*
X0112603Y0128391D02*
X0111869Y0129125D01*
X0111135Y0128391D01*
X0113345Y0126923D02*
X0114813Y0126923D01*
X0115555Y0127290D02*
X0115922Y0126923D01*
X0116656Y0126923D01*
X0117023Y0127290D01*
X0117023Y0129125D01*
X0117765Y0129125D02*
X0117765Y0126923D01*
X0119232Y0126923D01*
X0118499Y0128024D02*
X0117765Y0128024D01*
X0117765Y0129125D02*
X0119232Y0129125D01*
X0115555Y0129125D02*
X0115555Y0127290D01*
X0126215Y0133723D02*
X0127683Y0134824D01*
X0126215Y0135925D01*
X0128425Y0135925D02*
X0128425Y0133723D01*
X0129893Y0133723D02*
X0128425Y0135925D01*
X0129893Y0135925D02*
X0129893Y0133723D01*
X0130635Y0133723D02*
X0130635Y0135191D01*
X0131369Y0135925D01*
X0132103Y0135191D01*
X0132103Y0133723D01*
X0132845Y0133723D02*
X0132845Y0135925D01*
X0133579Y0135191D01*
X0134313Y0135925D01*
X0134313Y0133723D01*
X0135055Y0133723D02*
X0136523Y0133723D01*
X0135789Y0134824D02*
X0135055Y0134824D01*
X0135055Y0135925D02*
X0135055Y0133723D01*
X0135055Y0135925D02*
X0136523Y0135925D01*
X0132103Y0134824D02*
X0130635Y0134824D01*
X0144715Y0125925D02*
X0146183Y0124824D01*
X0144715Y0123723D01*
X0146925Y0124457D02*
X0147659Y0123723D01*
X0148393Y0124457D01*
X0148393Y0125925D01*
X0149135Y0125191D02*
X0149869Y0125925D01*
X0150603Y0125191D01*
X0150603Y0123723D01*
X0151345Y0123723D02*
X0152813Y0123723D01*
X0153555Y0124090D02*
X0153922Y0123723D01*
X0154656Y0123723D01*
X0155023Y0124090D01*
X0155023Y0125925D01*
X0155765Y0125925D02*
X0155765Y0123723D01*
X0157232Y0123723D01*
X0156499Y0124824D02*
X0155765Y0124824D01*
X0155765Y0125925D02*
X0157232Y0125925D01*
X0153555Y0125925D02*
X0153555Y0124090D01*
X0151345Y0123723D02*
X0151345Y0125925D01*
X0150603Y0124824D02*
X0149135Y0124824D01*
X0149135Y0125191D02*
X0149135Y0123723D01*
X0146925Y0124457D02*
X0146925Y0125925D01*
X0147041Y0117625D02*
X0147775Y0116891D01*
X0147775Y0115423D01*
X0148517Y0115423D02*
X0148517Y0117625D01*
X0149251Y0116891D01*
X0149985Y0117625D01*
X0149985Y0115423D01*
X0150727Y0115423D02*
X0152195Y0115423D01*
X0151461Y0116524D02*
X0150727Y0116524D01*
X0150727Y0117625D02*
X0150727Y0115423D01*
X0150727Y0117625D02*
X0152195Y0117625D01*
X0147775Y0116524D02*
X0146307Y0116524D01*
X0146307Y0116891D02*
X0147041Y0117625D01*
X0146307Y0116891D02*
X0146307Y0115423D01*
X0145566Y0115423D02*
X0145566Y0117625D01*
X0144098Y0117625D02*
X0144098Y0115423D01*
X0143356Y0116524D02*
X0141888Y0117625D01*
X0143356Y0116524D02*
X0141888Y0115423D01*
X0144098Y0117625D02*
X0145566Y0115423D01*
X0153535Y0153701D02*
X0154636Y0155169D01*
X0155737Y0153701D01*
X0155737Y0155911D02*
X0153535Y0155911D01*
X0155737Y0157379D01*
X0153535Y0157379D01*
X0154269Y0158121D02*
X0153535Y0158855D01*
X0154269Y0159589D01*
X0155737Y0159589D01*
X0155737Y0160331D02*
X0153535Y0160331D01*
X0154269Y0161065D01*
X0153535Y0161799D01*
X0155737Y0161799D01*
X0155737Y0162541D02*
X0155737Y0164009D01*
X0155737Y0163701D02*
X0154636Y0165169D01*
X0153535Y0163701D01*
X0153535Y0164009D02*
X0153535Y0162541D01*
X0155737Y0162541D01*
X0154636Y0162541D02*
X0154636Y0163275D01*
X0153535Y0165911D02*
X0155737Y0167379D01*
X0153535Y0167379D01*
X0154269Y0168121D02*
X0153535Y0168855D01*
X0154269Y0169589D01*
X0155737Y0169589D01*
X0155737Y0170331D02*
X0153535Y0170331D01*
X0154269Y0171065D01*
X0153535Y0171799D01*
X0155737Y0171799D01*
X0155737Y0172541D02*
X0155737Y0174009D01*
X0154636Y0173275D02*
X0154636Y0172541D01*
X0153535Y0172541D02*
X0153535Y0174009D01*
X0153535Y0172541D02*
X0155737Y0172541D01*
X0154636Y0169589D02*
X0154636Y0168121D01*
X0154269Y0168121D02*
X0155737Y0168121D01*
X0155737Y0165911D02*
X0153535Y0165911D01*
X0154636Y0159589D02*
X0154636Y0158121D01*
X0154269Y0158121D02*
X0155737Y0158121D01*
X0126195Y0157225D02*
X0124727Y0157225D01*
X0124727Y0155023D01*
X0126195Y0155023D01*
X0125461Y0156124D02*
X0124727Y0156124D01*
X0123985Y0155390D02*
X0123985Y0157225D01*
X0122517Y0157225D02*
X0122517Y0155390D01*
X0122884Y0155023D01*
X0123618Y0155023D01*
X0123985Y0155390D01*
X0121775Y0155023D02*
X0120307Y0155023D01*
X0120307Y0157225D01*
X0119566Y0156491D02*
X0118832Y0157225D01*
X0118098Y0156491D01*
X0118098Y0155023D01*
X0117356Y0155757D02*
X0117356Y0157225D01*
X0118098Y0156124D02*
X0119566Y0156124D01*
X0119566Y0156491D02*
X0119566Y0155023D01*
X0117356Y0155757D02*
X0116622Y0155023D01*
X0115888Y0155757D01*
X0115888Y0157225D01*
X0115146Y0156124D02*
X0113678Y0155023D01*
X0115146Y0156124D02*
X0113678Y0157225D01*
X0098137Y0143218D02*
X0098137Y0141750D01*
X0095935Y0141750D01*
X0095935Y0143218D01*
X0097036Y0142484D02*
X0097036Y0141750D01*
X0097770Y0141009D02*
X0095935Y0141009D01*
X0095935Y0139541D02*
X0097770Y0139541D01*
X0098137Y0139908D01*
X0098137Y0140642D01*
X0097770Y0141009D01*
X0098137Y0138799D02*
X0098137Y0137331D01*
X0095935Y0137331D01*
X0096669Y0136589D02*
X0095935Y0135855D01*
X0096669Y0135121D01*
X0098137Y0135121D01*
X0097403Y0134379D02*
X0095935Y0134379D01*
X0097036Y0135121D02*
X0097036Y0136589D01*
X0096669Y0136589D02*
X0098137Y0136589D01*
X0097403Y0134379D02*
X0098137Y0133645D01*
X0097403Y0132911D01*
X0095935Y0132911D01*
X0097036Y0132169D02*
X0095935Y0130701D01*
X0095566Y0129125D02*
X0095566Y0126923D01*
X0094098Y0129125D01*
X0094098Y0126923D01*
X0094195Y0125925D02*
X0092727Y0125925D01*
X0092727Y0123723D01*
X0094195Y0123723D01*
X0093461Y0124824D02*
X0092727Y0124824D01*
X0091888Y0126923D02*
X0093356Y0128024D01*
X0091888Y0129125D01*
X0096307Y0128391D02*
X0096307Y0126923D01*
X0096307Y0128024D02*
X0097775Y0128024D01*
X0097775Y0128391D02*
X0097775Y0126923D01*
X0098517Y0126923D02*
X0098517Y0129125D01*
X0099251Y0128391D01*
X0099985Y0129125D01*
X0099985Y0126923D01*
X0100727Y0126923D02*
X0100727Y0129125D01*
X0102195Y0129125D01*
X0101461Y0128024D02*
X0100727Y0128024D01*
X0100727Y0126923D02*
X0102195Y0126923D01*
X0097775Y0128391D02*
X0097041Y0129125D01*
X0096307Y0128391D01*
X0098137Y0130701D02*
X0097036Y0132169D01*
X0088425Y0115925D02*
X0088425Y0113723D01*
X0088735Y0113379D02*
X0090203Y0113379D01*
X0090937Y0112645D01*
X0090203Y0111911D01*
X0088735Y0111911D01*
X0089836Y0111169D02*
X0090937Y0109701D01*
X0089836Y0111169D02*
X0088735Y0109701D01*
X0090635Y0113723D02*
X0090635Y0115191D01*
X0090635Y0114824D02*
X0092103Y0114824D01*
X0090937Y0114121D02*
X0089469Y0114121D01*
X0087683Y0114824D02*
X0086215Y0115925D01*
X0087683Y0114824D02*
X0086215Y0113723D01*
X0081695Y0088225D02*
X0080227Y0088225D01*
X0080227Y0086023D01*
X0081695Y0086023D01*
X0080961Y0087124D02*
X0080227Y0087124D01*
X0079485Y0088225D02*
X0079485Y0086023D01*
X0078017Y0086023D02*
X0078017Y0088225D01*
X0078751Y0087491D01*
X0079485Y0088225D01*
X0077275Y0087491D02*
X0077275Y0086023D01*
X0077275Y0087124D02*
X0075807Y0087124D01*
X0075807Y0087491D02*
X0076541Y0088225D01*
X0077275Y0087491D01*
X0075807Y0087491D02*
X0075807Y0086023D01*
X0075066Y0086023D02*
X0075066Y0088225D01*
X0073598Y0088225D02*
X0073598Y0086023D01*
X0072856Y0087124D02*
X0071388Y0088225D01*
X0072856Y0087124D02*
X0071388Y0086023D01*
X0073598Y0088225D02*
X0075066Y0086023D01*
X0054195Y0103723D02*
X0052727Y0103723D01*
X0052727Y0105925D01*
X0054195Y0105925D01*
X0053461Y0104824D02*
X0052727Y0104824D01*
X0051985Y0104090D02*
X0051985Y0105925D01*
X0050517Y0105925D02*
X0050517Y0104090D01*
X0050884Y0103723D01*
X0051618Y0103723D01*
X0051985Y0104090D01*
X0049775Y0103723D02*
X0048307Y0103723D01*
X0048307Y0105925D01*
X0047566Y0105191D02*
X0047566Y0103723D01*
X0047566Y0104824D02*
X0046098Y0104824D01*
X0046098Y0105191D02*
X0046832Y0105925D01*
X0047566Y0105191D01*
X0046098Y0105191D02*
X0046098Y0103723D01*
X0045356Y0104457D02*
X0045356Y0105925D01*
X0045356Y0104457D02*
X0044622Y0103723D01*
X0043888Y0104457D01*
X0043888Y0105925D01*
X0043146Y0104824D02*
X0041678Y0103723D01*
X0043146Y0104824D02*
X0041678Y0105925D01*
X0035737Y0106084D02*
X0033535Y0106084D01*
X0035737Y0107551D01*
X0033535Y0107551D01*
X0034269Y0108293D02*
X0033535Y0109027D01*
X0034269Y0109761D01*
X0035737Y0109761D01*
X0035737Y0110503D02*
X0033535Y0110503D01*
X0034269Y0111237D01*
X0033535Y0111971D01*
X0035737Y0111971D01*
X0035737Y0112713D02*
X0035737Y0114181D01*
X0034636Y0113447D02*
X0034636Y0112713D01*
X0033535Y0112713D02*
X0035737Y0112713D01*
X0033535Y0112713D02*
X0033535Y0114181D01*
X0034636Y0109761D02*
X0034636Y0108293D01*
X0034269Y0108293D02*
X0035737Y0108293D01*
X0034636Y0105342D02*
X0035737Y0103874D01*
X0034636Y0105342D02*
X0033535Y0103874D01*
X0046307Y0128024D02*
X0047775Y0128024D01*
X0049785Y0164701D02*
X0050886Y0166169D01*
X0051987Y0164701D01*
X0051253Y0166911D02*
X0049785Y0166911D01*
X0049785Y0168379D02*
X0051253Y0168379D01*
X0051987Y0167645D01*
X0051253Y0166911D01*
X0050886Y0169121D02*
X0050886Y0170589D01*
X0050519Y0170589D02*
X0051987Y0170589D01*
X0051987Y0171331D02*
X0049785Y0171331D01*
X0050519Y0170589D02*
X0049785Y0169855D01*
X0050519Y0169121D01*
X0051987Y0169121D01*
X0051987Y0171331D02*
X0051987Y0172799D01*
X0051620Y0173541D02*
X0049785Y0173541D01*
X0049785Y0175009D02*
X0051620Y0175009D01*
X0051987Y0174642D01*
X0051987Y0173908D01*
X0051620Y0173541D01*
X0051987Y0175750D02*
X0049785Y0175750D01*
X0049785Y0177218D01*
X0050886Y0176484D02*
X0050886Y0175750D01*
X0051987Y0175750D02*
X0051987Y0177218D01*
X0101535Y0088181D02*
X0101535Y0086713D01*
X0103737Y0086713D01*
X0103737Y0088181D01*
X0102636Y0087447D02*
X0102636Y0086713D01*
X0101535Y0085971D02*
X0103737Y0085971D01*
X0103737Y0084503D02*
X0101535Y0084503D01*
X0102269Y0085237D01*
X0101535Y0085971D01*
X0102269Y0083761D02*
X0103737Y0083761D01*
X0102636Y0083761D02*
X0102636Y0082293D01*
X0102269Y0082293D02*
X0103737Y0082293D01*
X0103737Y0081551D02*
X0101535Y0081551D01*
X0102269Y0082293D02*
X0101535Y0083027D01*
X0102269Y0083761D01*
X0103737Y0081551D02*
X0101535Y0080084D01*
X0103737Y0080084D01*
X0102636Y0079342D02*
X0103737Y0077874D01*
X0102636Y0079342D02*
X0101535Y0077874D01*
X0100937Y0077681D02*
X0100937Y0076213D01*
X0098735Y0076213D01*
X0098735Y0077681D01*
X0099836Y0076947D02*
X0099836Y0076213D01*
X0098735Y0075471D02*
X0100937Y0075471D01*
X0100937Y0074003D02*
X0098735Y0074003D01*
X0099469Y0074737D01*
X0098735Y0075471D01*
X0099469Y0073261D02*
X0100937Y0073261D01*
X0099836Y0073261D02*
X0099836Y0071793D01*
X0099469Y0071793D02*
X0098735Y0072527D01*
X0099469Y0073261D01*
X0099469Y0071793D02*
X0100937Y0071793D01*
X0100937Y0071051D02*
X0098735Y0071051D01*
X0098735Y0069584D02*
X0100937Y0071051D01*
X0100937Y0069584D02*
X0098735Y0069584D01*
X0099836Y0068842D02*
X0100937Y0067374D01*
X0099836Y0068842D02*
X0098735Y0067374D01*
X0101311Y0065461D02*
X0101311Y0064260D01*
X0103112Y0064260D01*
X0103112Y0065461D01*
X0102212Y0064860D02*
X0102212Y0064260D01*
X0103112Y0063619D02*
X0101311Y0063619D01*
X0101911Y0063019D01*
X0101311Y0062418D01*
X0103112Y0062418D01*
X0103112Y0061778D02*
X0101911Y0061778D01*
X0101311Y0061177D01*
X0101911Y0060577D01*
X0103112Y0060577D01*
X0103112Y0059936D02*
X0101311Y0059936D01*
X0102212Y0060577D02*
X0102212Y0061778D01*
X0103112Y0059936D02*
X0101311Y0058735D01*
X0103112Y0058735D01*
X0102212Y0058094D02*
X0101311Y0056893D01*
X0102212Y0058094D02*
X0103112Y0056893D01*
X0083112Y0056893D02*
X0082212Y0058094D01*
X0081311Y0056893D01*
X0081311Y0058735D02*
X0083112Y0059936D01*
X0081311Y0059936D01*
X0081911Y0060577D02*
X0081311Y0061177D01*
X0081911Y0061778D01*
X0083112Y0061778D01*
X0083112Y0062418D02*
X0081311Y0062418D01*
X0081911Y0063019D01*
X0081311Y0063619D01*
X0083112Y0063619D01*
X0083112Y0064260D02*
X0083112Y0065461D01*
X0082212Y0064860D02*
X0082212Y0064260D01*
X0083112Y0064260D02*
X0081311Y0064260D01*
X0081311Y0065461D01*
X0082212Y0061778D02*
X0082212Y0060577D01*
X0081911Y0060577D02*
X0083112Y0060577D01*
X0083112Y0058735D02*
X0081311Y0058735D01*
D12*
X0041337Y0119823D03*
D13*
X0047837Y0112323D02*
X0061837Y0112323D01*
X0061913Y0112321D01*
X0061989Y0112315D01*
X0062064Y0112306D01*
X0062139Y0112292D01*
X0062213Y0112275D01*
X0062286Y0112254D01*
X0062358Y0112230D01*
X0062429Y0112201D01*
X0062498Y0112170D01*
X0062565Y0112135D01*
X0062630Y0112096D01*
X0062694Y0112054D01*
X0062755Y0112009D01*
X0062814Y0111961D01*
X0062870Y0111910D01*
X0062924Y0111856D01*
X0062975Y0111800D01*
X0063023Y0111741D01*
X0063068Y0111680D01*
X0063110Y0111616D01*
X0063149Y0111551D01*
X0063184Y0111484D01*
X0063215Y0111415D01*
X0063244Y0111344D01*
X0063268Y0111272D01*
X0063289Y0111199D01*
X0063306Y0111125D01*
X0063320Y0111050D01*
X0063329Y0110975D01*
X0063335Y0110899D01*
X0063337Y0110823D01*
X0063337Y0108823D01*
X0063335Y0108747D01*
X0063329Y0108671D01*
X0063320Y0108596D01*
X0063306Y0108521D01*
X0063289Y0108447D01*
X0063268Y0108374D01*
X0063244Y0108302D01*
X0063215Y0108231D01*
X0063184Y0108162D01*
X0063149Y0108095D01*
X0063110Y0108030D01*
X0063068Y0107966D01*
X0063023Y0107905D01*
X0062975Y0107846D01*
X0062924Y0107790D01*
X0062870Y0107736D01*
X0062814Y0107685D01*
X0062755Y0107637D01*
X0062694Y0107592D01*
X0062630Y0107550D01*
X0062565Y0107511D01*
X0062498Y0107476D01*
X0062429Y0107445D01*
X0062358Y0107416D01*
X0062286Y0107392D01*
X0062213Y0107371D01*
X0062139Y0107354D01*
X0062064Y0107340D01*
X0061989Y0107331D01*
X0061913Y0107325D01*
X0061837Y0107323D01*
X0047837Y0107323D01*
X0047761Y0107325D01*
X0047685Y0107331D01*
X0047610Y0107340D01*
X0047535Y0107354D01*
X0047461Y0107371D01*
X0047388Y0107392D01*
X0047316Y0107416D01*
X0047245Y0107445D01*
X0047176Y0107476D01*
X0047109Y0107511D01*
X0047044Y0107550D01*
X0046980Y0107592D01*
X0046919Y0107637D01*
X0046860Y0107685D01*
X0046804Y0107736D01*
X0046750Y0107790D01*
X0046699Y0107846D01*
X0046651Y0107905D01*
X0046606Y0107966D01*
X0046564Y0108030D01*
X0046525Y0108095D01*
X0046490Y0108162D01*
X0046459Y0108231D01*
X0046430Y0108302D01*
X0046406Y0108374D01*
X0046385Y0108447D01*
X0046368Y0108521D01*
X0046354Y0108596D01*
X0046345Y0108671D01*
X0046339Y0108747D01*
X0046337Y0108823D01*
X0046337Y0110823D01*
X0046339Y0110899D01*
X0046345Y0110975D01*
X0046354Y0111050D01*
X0046368Y0111125D01*
X0046385Y0111199D01*
X0046406Y0111272D01*
X0046430Y0111344D01*
X0046459Y0111415D01*
X0046490Y0111484D01*
X0046525Y0111551D01*
X0046564Y0111616D01*
X0046606Y0111680D01*
X0046651Y0111741D01*
X0046699Y0111800D01*
X0046750Y0111856D01*
X0046804Y0111910D01*
X0046860Y0111961D01*
X0046919Y0112009D01*
X0046980Y0112054D01*
X0047044Y0112096D01*
X0047109Y0112135D01*
X0047176Y0112170D01*
X0047245Y0112201D01*
X0047316Y0112230D01*
X0047388Y0112254D01*
X0047461Y0112275D01*
X0047535Y0112292D01*
X0047610Y0112306D01*
X0047685Y0112315D01*
X0047761Y0112321D01*
X0047837Y0112323D01*
X0072337Y0116823D02*
X0072337Y0102823D01*
X0072339Y0102747D01*
X0072345Y0102671D01*
X0072354Y0102596D01*
X0072368Y0102521D01*
X0072385Y0102447D01*
X0072406Y0102374D01*
X0072430Y0102302D01*
X0072459Y0102231D01*
X0072490Y0102162D01*
X0072525Y0102095D01*
X0072564Y0102030D01*
X0072606Y0101966D01*
X0072651Y0101905D01*
X0072699Y0101846D01*
X0072750Y0101790D01*
X0072804Y0101736D01*
X0072860Y0101685D01*
X0072919Y0101637D01*
X0072980Y0101592D01*
X0073044Y0101550D01*
X0073109Y0101511D01*
X0073176Y0101476D01*
X0073245Y0101445D01*
X0073316Y0101416D01*
X0073388Y0101392D01*
X0073461Y0101371D01*
X0073535Y0101354D01*
X0073610Y0101340D01*
X0073685Y0101331D01*
X0073761Y0101325D01*
X0073837Y0101323D01*
X0075837Y0101323D01*
X0075913Y0101325D01*
X0075989Y0101331D01*
X0076064Y0101340D01*
X0076139Y0101354D01*
X0076213Y0101371D01*
X0076286Y0101392D01*
X0076358Y0101416D01*
X0076429Y0101445D01*
X0076498Y0101476D01*
X0076565Y0101511D01*
X0076630Y0101550D01*
X0076694Y0101592D01*
X0076755Y0101637D01*
X0076814Y0101685D01*
X0076870Y0101736D01*
X0076924Y0101790D01*
X0076975Y0101846D01*
X0077023Y0101905D01*
X0077068Y0101966D01*
X0077110Y0102030D01*
X0077149Y0102095D01*
X0077184Y0102162D01*
X0077215Y0102231D01*
X0077244Y0102302D01*
X0077268Y0102374D01*
X0077289Y0102447D01*
X0077306Y0102521D01*
X0077320Y0102596D01*
X0077329Y0102671D01*
X0077335Y0102747D01*
X0077337Y0102823D01*
X0077337Y0116823D01*
X0077335Y0116899D01*
X0077329Y0116975D01*
X0077320Y0117050D01*
X0077306Y0117125D01*
X0077289Y0117199D01*
X0077268Y0117272D01*
X0077244Y0117344D01*
X0077215Y0117415D01*
X0077184Y0117484D01*
X0077149Y0117551D01*
X0077110Y0117616D01*
X0077068Y0117680D01*
X0077023Y0117741D01*
X0076975Y0117800D01*
X0076924Y0117856D01*
X0076870Y0117910D01*
X0076814Y0117961D01*
X0076755Y0118009D01*
X0076694Y0118054D01*
X0076630Y0118096D01*
X0076565Y0118135D01*
X0076498Y0118170D01*
X0076429Y0118201D01*
X0076358Y0118230D01*
X0076286Y0118254D01*
X0076213Y0118275D01*
X0076139Y0118292D01*
X0076064Y0118306D01*
X0075989Y0118315D01*
X0075913Y0118321D01*
X0075837Y0118323D01*
X0073837Y0118323D01*
X0073761Y0118321D01*
X0073685Y0118315D01*
X0073610Y0118306D01*
X0073535Y0118292D01*
X0073461Y0118275D01*
X0073388Y0118254D01*
X0073316Y0118230D01*
X0073245Y0118201D01*
X0073176Y0118170D01*
X0073109Y0118135D01*
X0073044Y0118096D01*
X0072980Y0118054D01*
X0072919Y0118009D01*
X0072860Y0117961D01*
X0072804Y0117910D01*
X0072750Y0117856D01*
X0072699Y0117800D01*
X0072651Y0117741D01*
X0072606Y0117680D01*
X0072564Y0117616D01*
X0072525Y0117551D01*
X0072490Y0117484D01*
X0072459Y0117415D01*
X0072430Y0117344D01*
X0072406Y0117272D01*
X0072385Y0117199D01*
X0072368Y0117125D01*
X0072354Y0117050D01*
X0072345Y0116975D01*
X0072339Y0116899D01*
X0072337Y0116823D01*
X0086337Y0128823D02*
X0086337Y0130823D01*
X0086339Y0130899D01*
X0086345Y0130975D01*
X0086354Y0131050D01*
X0086368Y0131125D01*
X0086385Y0131199D01*
X0086406Y0131272D01*
X0086430Y0131344D01*
X0086459Y0131415D01*
X0086490Y0131484D01*
X0086525Y0131551D01*
X0086564Y0131616D01*
X0086606Y0131680D01*
X0086651Y0131741D01*
X0086699Y0131800D01*
X0086750Y0131856D01*
X0086804Y0131910D01*
X0086860Y0131961D01*
X0086919Y0132009D01*
X0086980Y0132054D01*
X0087044Y0132096D01*
X0087109Y0132135D01*
X0087176Y0132170D01*
X0087245Y0132201D01*
X0087316Y0132230D01*
X0087388Y0132254D01*
X0087461Y0132275D01*
X0087535Y0132292D01*
X0087610Y0132306D01*
X0087685Y0132315D01*
X0087761Y0132321D01*
X0087837Y0132323D01*
X0101837Y0132323D01*
X0101913Y0132321D01*
X0101989Y0132315D01*
X0102064Y0132306D01*
X0102139Y0132292D01*
X0102213Y0132275D01*
X0102286Y0132254D01*
X0102358Y0132230D01*
X0102429Y0132201D01*
X0102498Y0132170D01*
X0102565Y0132135D01*
X0102630Y0132096D01*
X0102694Y0132054D01*
X0102755Y0132009D01*
X0102814Y0131961D01*
X0102870Y0131910D01*
X0102924Y0131856D01*
X0102975Y0131800D01*
X0103023Y0131741D01*
X0103068Y0131680D01*
X0103110Y0131616D01*
X0103149Y0131551D01*
X0103184Y0131484D01*
X0103215Y0131415D01*
X0103244Y0131344D01*
X0103268Y0131272D01*
X0103289Y0131199D01*
X0103306Y0131125D01*
X0103320Y0131050D01*
X0103329Y0130975D01*
X0103335Y0130899D01*
X0103337Y0130823D01*
X0103337Y0128823D01*
X0103335Y0128747D01*
X0103329Y0128671D01*
X0103320Y0128596D01*
X0103306Y0128521D01*
X0103289Y0128447D01*
X0103268Y0128374D01*
X0103244Y0128302D01*
X0103215Y0128231D01*
X0103184Y0128162D01*
X0103149Y0128095D01*
X0103110Y0128030D01*
X0103068Y0127966D01*
X0103023Y0127905D01*
X0102975Y0127846D01*
X0102924Y0127790D01*
X0102870Y0127736D01*
X0102814Y0127685D01*
X0102755Y0127637D01*
X0102694Y0127592D01*
X0102630Y0127550D01*
X0102565Y0127511D01*
X0102498Y0127476D01*
X0102429Y0127445D01*
X0102358Y0127416D01*
X0102286Y0127392D01*
X0102213Y0127371D01*
X0102139Y0127354D01*
X0102064Y0127340D01*
X0101989Y0127331D01*
X0101913Y0127325D01*
X0101837Y0127323D01*
X0087837Y0127323D01*
X0087761Y0127325D01*
X0087685Y0127331D01*
X0087610Y0127340D01*
X0087535Y0127354D01*
X0087461Y0127371D01*
X0087388Y0127392D01*
X0087316Y0127416D01*
X0087245Y0127445D01*
X0087176Y0127476D01*
X0087109Y0127511D01*
X0087044Y0127550D01*
X0086980Y0127592D01*
X0086919Y0127637D01*
X0086860Y0127685D01*
X0086804Y0127736D01*
X0086750Y0127790D01*
X0086699Y0127846D01*
X0086651Y0127905D01*
X0086606Y0127966D01*
X0086564Y0128030D01*
X0086525Y0128095D01*
X0086490Y0128162D01*
X0086459Y0128231D01*
X0086430Y0128302D01*
X0086406Y0128374D01*
X0086385Y0128447D01*
X0086368Y0128521D01*
X0086354Y0128596D01*
X0086345Y0128671D01*
X0086339Y0128747D01*
X0086337Y0128823D01*
X0096337Y0120823D02*
X0096337Y0118823D01*
X0096339Y0118747D01*
X0096345Y0118671D01*
X0096354Y0118596D01*
X0096368Y0118521D01*
X0096385Y0118447D01*
X0096406Y0118374D01*
X0096430Y0118302D01*
X0096459Y0118231D01*
X0096490Y0118162D01*
X0096525Y0118095D01*
X0096564Y0118030D01*
X0096606Y0117966D01*
X0096651Y0117905D01*
X0096699Y0117846D01*
X0096750Y0117790D01*
X0096804Y0117736D01*
X0096860Y0117685D01*
X0096919Y0117637D01*
X0096980Y0117592D01*
X0097044Y0117550D01*
X0097109Y0117511D01*
X0097176Y0117476D01*
X0097245Y0117445D01*
X0097316Y0117416D01*
X0097388Y0117392D01*
X0097461Y0117371D01*
X0097535Y0117354D01*
X0097610Y0117340D01*
X0097685Y0117331D01*
X0097761Y0117325D01*
X0097837Y0117323D01*
X0111837Y0117323D01*
X0111913Y0117325D01*
X0111989Y0117331D01*
X0112064Y0117340D01*
X0112139Y0117354D01*
X0112213Y0117371D01*
X0112286Y0117392D01*
X0112358Y0117416D01*
X0112429Y0117445D01*
X0112498Y0117476D01*
X0112565Y0117511D01*
X0112630Y0117550D01*
X0112694Y0117592D01*
X0112755Y0117637D01*
X0112814Y0117685D01*
X0112870Y0117736D01*
X0112924Y0117790D01*
X0112975Y0117846D01*
X0113023Y0117905D01*
X0113068Y0117966D01*
X0113110Y0118030D01*
X0113149Y0118095D01*
X0113184Y0118162D01*
X0113215Y0118231D01*
X0113244Y0118302D01*
X0113268Y0118374D01*
X0113289Y0118447D01*
X0113306Y0118521D01*
X0113320Y0118596D01*
X0113329Y0118671D01*
X0113335Y0118747D01*
X0113337Y0118823D01*
X0113337Y0120823D01*
X0113335Y0120899D01*
X0113329Y0120975D01*
X0113320Y0121050D01*
X0113306Y0121125D01*
X0113289Y0121199D01*
X0113268Y0121272D01*
X0113244Y0121344D01*
X0113215Y0121415D01*
X0113184Y0121484D01*
X0113149Y0121551D01*
X0113110Y0121616D01*
X0113068Y0121680D01*
X0113023Y0121741D01*
X0112975Y0121800D01*
X0112924Y0121856D01*
X0112870Y0121910D01*
X0112814Y0121961D01*
X0112755Y0122009D01*
X0112694Y0122054D01*
X0112630Y0122096D01*
X0112565Y0122135D01*
X0112498Y0122170D01*
X0112429Y0122201D01*
X0112358Y0122230D01*
X0112286Y0122254D01*
X0112213Y0122275D01*
X0112139Y0122292D01*
X0112064Y0122306D01*
X0111989Y0122315D01*
X0111913Y0122321D01*
X0111837Y0122323D01*
X0097837Y0122323D01*
X0097761Y0122321D01*
X0097685Y0122315D01*
X0097610Y0122306D01*
X0097535Y0122292D01*
X0097461Y0122275D01*
X0097388Y0122254D01*
X0097316Y0122230D01*
X0097245Y0122201D01*
X0097176Y0122170D01*
X0097109Y0122135D01*
X0097044Y0122096D01*
X0096980Y0122054D01*
X0096919Y0122009D01*
X0096860Y0121961D01*
X0096804Y0121910D01*
X0096750Y0121856D01*
X0096699Y0121800D01*
X0096651Y0121741D01*
X0096606Y0121680D01*
X0096564Y0121616D01*
X0096525Y0121551D01*
X0096490Y0121484D01*
X0096459Y0121415D01*
X0096430Y0121344D01*
X0096406Y0121272D01*
X0096385Y0121199D01*
X0096368Y0121125D01*
X0096354Y0121050D01*
X0096345Y0120975D01*
X0096339Y0120899D01*
X0096337Y0120823D01*
X0104334Y0116126D02*
X0106736Y0114325D01*
X0104334Y0112523D01*
X0108017Y0112523D02*
X0108017Y0116126D01*
X0110419Y0112523D01*
X0110419Y0116126D01*
X0111700Y0114925D02*
X0112901Y0116126D01*
X0114102Y0114925D01*
X0114102Y0112523D01*
X0115383Y0112523D02*
X0115383Y0116126D01*
X0116584Y0114925D01*
X0117785Y0116126D01*
X0117785Y0112523D01*
X0119067Y0112523D02*
X0121469Y0112523D01*
X0120268Y0114325D02*
X0119067Y0114325D01*
X0119067Y0116126D02*
X0119067Y0112523D01*
X0119067Y0116126D02*
X0121469Y0116126D01*
X0114102Y0114325D02*
X0111700Y0114325D01*
X0111700Y0114925D02*
X0111700Y0112523D01*
X0136337Y0110823D02*
X0136337Y0108823D01*
X0136339Y0108747D01*
X0136345Y0108671D01*
X0136354Y0108596D01*
X0136368Y0108521D01*
X0136385Y0108447D01*
X0136406Y0108374D01*
X0136430Y0108302D01*
X0136459Y0108231D01*
X0136490Y0108162D01*
X0136525Y0108095D01*
X0136564Y0108030D01*
X0136606Y0107966D01*
X0136651Y0107905D01*
X0136699Y0107846D01*
X0136750Y0107790D01*
X0136804Y0107736D01*
X0136860Y0107685D01*
X0136919Y0107637D01*
X0136980Y0107592D01*
X0137044Y0107550D01*
X0137109Y0107511D01*
X0137176Y0107476D01*
X0137245Y0107445D01*
X0137316Y0107416D01*
X0137388Y0107392D01*
X0137461Y0107371D01*
X0137535Y0107354D01*
X0137610Y0107340D01*
X0137685Y0107331D01*
X0137761Y0107325D01*
X0137837Y0107323D01*
X0151837Y0107323D01*
X0151913Y0107325D01*
X0151989Y0107331D01*
X0152064Y0107340D01*
X0152139Y0107354D01*
X0152213Y0107371D01*
X0152286Y0107392D01*
X0152358Y0107416D01*
X0152429Y0107445D01*
X0152498Y0107476D01*
X0152565Y0107511D01*
X0152630Y0107550D01*
X0152694Y0107592D01*
X0152755Y0107637D01*
X0152814Y0107685D01*
X0152870Y0107736D01*
X0152924Y0107790D01*
X0152975Y0107846D01*
X0153023Y0107905D01*
X0153068Y0107966D01*
X0153110Y0108030D01*
X0153149Y0108095D01*
X0153184Y0108162D01*
X0153215Y0108231D01*
X0153244Y0108302D01*
X0153268Y0108374D01*
X0153289Y0108447D01*
X0153306Y0108521D01*
X0153320Y0108596D01*
X0153329Y0108671D01*
X0153335Y0108747D01*
X0153337Y0108823D01*
X0153337Y0110823D01*
X0153335Y0110899D01*
X0153329Y0110975D01*
X0153320Y0111050D01*
X0153306Y0111125D01*
X0153289Y0111199D01*
X0153268Y0111272D01*
X0153244Y0111344D01*
X0153215Y0111415D01*
X0153184Y0111484D01*
X0153149Y0111551D01*
X0153110Y0111616D01*
X0153068Y0111680D01*
X0153023Y0111741D01*
X0152975Y0111800D01*
X0152924Y0111856D01*
X0152870Y0111910D01*
X0152814Y0111961D01*
X0152755Y0112009D01*
X0152694Y0112054D01*
X0152630Y0112096D01*
X0152565Y0112135D01*
X0152498Y0112170D01*
X0152429Y0112201D01*
X0152358Y0112230D01*
X0152286Y0112254D01*
X0152213Y0112275D01*
X0152139Y0112292D01*
X0152064Y0112306D01*
X0151989Y0112315D01*
X0151913Y0112321D01*
X0151837Y0112323D01*
X0137837Y0112323D01*
X0137761Y0112321D01*
X0137685Y0112315D01*
X0137610Y0112306D01*
X0137535Y0112292D01*
X0137461Y0112275D01*
X0137388Y0112254D01*
X0137316Y0112230D01*
X0137245Y0112201D01*
X0137176Y0112170D01*
X0137109Y0112135D01*
X0137044Y0112096D01*
X0136980Y0112054D01*
X0136919Y0112009D01*
X0136860Y0111961D01*
X0136804Y0111910D01*
X0136750Y0111856D01*
X0136699Y0111800D01*
X0136651Y0111741D01*
X0136606Y0111680D01*
X0136564Y0111616D01*
X0136525Y0111551D01*
X0136490Y0111484D01*
X0136459Y0111415D01*
X0136430Y0111344D01*
X0136406Y0111272D01*
X0136385Y0111199D01*
X0136368Y0111125D01*
X0136354Y0111050D01*
X0136345Y0110975D01*
X0136339Y0110899D01*
X0136337Y0110823D01*
X0137837Y0117323D02*
X0151837Y0117323D01*
X0151913Y0117325D01*
X0151989Y0117331D01*
X0152064Y0117340D01*
X0152139Y0117354D01*
X0152213Y0117371D01*
X0152286Y0117392D01*
X0152358Y0117416D01*
X0152429Y0117445D01*
X0152498Y0117476D01*
X0152565Y0117511D01*
X0152630Y0117550D01*
X0152694Y0117592D01*
X0152755Y0117637D01*
X0152814Y0117685D01*
X0152870Y0117736D01*
X0152924Y0117790D01*
X0152975Y0117846D01*
X0153023Y0117905D01*
X0153068Y0117966D01*
X0153110Y0118030D01*
X0153149Y0118095D01*
X0153184Y0118162D01*
X0153215Y0118231D01*
X0153244Y0118302D01*
X0153268Y0118374D01*
X0153289Y0118447D01*
X0153306Y0118521D01*
X0153320Y0118596D01*
X0153329Y0118671D01*
X0153335Y0118747D01*
X0153337Y0118823D01*
X0153337Y0120823D01*
X0153335Y0120899D01*
X0153329Y0120975D01*
X0153320Y0121050D01*
X0153306Y0121125D01*
X0153289Y0121199D01*
X0153268Y0121272D01*
X0153244Y0121344D01*
X0153215Y0121415D01*
X0153184Y0121484D01*
X0153149Y0121551D01*
X0153110Y0121616D01*
X0153068Y0121680D01*
X0153023Y0121741D01*
X0152975Y0121800D01*
X0152924Y0121856D01*
X0152870Y0121910D01*
X0152814Y0121961D01*
X0152755Y0122009D01*
X0152694Y0122054D01*
X0152630Y0122096D01*
X0152565Y0122135D01*
X0152498Y0122170D01*
X0152429Y0122201D01*
X0152358Y0122230D01*
X0152286Y0122254D01*
X0152213Y0122275D01*
X0152139Y0122292D01*
X0152064Y0122306D01*
X0151989Y0122315D01*
X0151913Y0122321D01*
X0151837Y0122323D01*
X0137837Y0122323D01*
X0137761Y0122321D01*
X0137685Y0122315D01*
X0137610Y0122306D01*
X0137535Y0122292D01*
X0137461Y0122275D01*
X0137388Y0122254D01*
X0137316Y0122230D01*
X0137245Y0122201D01*
X0137176Y0122170D01*
X0137109Y0122135D01*
X0137044Y0122096D01*
X0136980Y0122054D01*
X0136919Y0122009D01*
X0136860Y0121961D01*
X0136804Y0121910D01*
X0136750Y0121856D01*
X0136699Y0121800D01*
X0136651Y0121741D01*
X0136606Y0121680D01*
X0136564Y0121616D01*
X0136525Y0121551D01*
X0136490Y0121484D01*
X0136459Y0121415D01*
X0136430Y0121344D01*
X0136406Y0121272D01*
X0136385Y0121199D01*
X0136368Y0121125D01*
X0136354Y0121050D01*
X0136345Y0120975D01*
X0136339Y0120899D01*
X0136337Y0120823D01*
X0136337Y0118823D01*
X0136339Y0118747D01*
X0136345Y0118671D01*
X0136354Y0118596D01*
X0136368Y0118521D01*
X0136385Y0118447D01*
X0136406Y0118374D01*
X0136430Y0118302D01*
X0136459Y0118231D01*
X0136490Y0118162D01*
X0136525Y0118095D01*
X0136564Y0118030D01*
X0136606Y0117966D01*
X0136651Y0117905D01*
X0136699Y0117846D01*
X0136750Y0117790D01*
X0136804Y0117736D01*
X0136860Y0117685D01*
X0136919Y0117637D01*
X0136980Y0117592D01*
X0137044Y0117550D01*
X0137109Y0117511D01*
X0137176Y0117476D01*
X0137245Y0117445D01*
X0137316Y0117416D01*
X0137388Y0117392D01*
X0137461Y0117371D01*
X0137535Y0117354D01*
X0137610Y0117340D01*
X0137685Y0117331D01*
X0137761Y0117325D01*
X0137837Y0117323D01*
X0184334Y0116126D02*
X0186736Y0114325D01*
X0184334Y0112523D01*
X0188017Y0112523D02*
X0188017Y0116126D01*
X0190419Y0112523D01*
X0190419Y0116126D01*
X0191700Y0114925D02*
X0192901Y0116126D01*
X0194102Y0114925D01*
X0194102Y0112523D01*
X0195383Y0112523D02*
X0195383Y0116126D01*
X0196584Y0114925D01*
X0197785Y0116126D01*
X0197785Y0112523D01*
X0199067Y0112523D02*
X0201469Y0112523D01*
X0200268Y0114325D02*
X0199067Y0114325D01*
X0199067Y0116126D02*
X0199067Y0112523D01*
X0199067Y0116126D02*
X0201469Y0116126D01*
X0194102Y0114325D02*
X0191700Y0114325D01*
X0191700Y0114925D02*
X0191700Y0112523D01*
X0097337Y0076823D02*
X0097337Y0062823D01*
X0097335Y0062747D01*
X0097329Y0062671D01*
X0097320Y0062596D01*
X0097306Y0062521D01*
X0097289Y0062447D01*
X0097268Y0062374D01*
X0097244Y0062302D01*
X0097215Y0062231D01*
X0097184Y0062162D01*
X0097149Y0062095D01*
X0097110Y0062030D01*
X0097068Y0061966D01*
X0097023Y0061905D01*
X0096975Y0061846D01*
X0096924Y0061790D01*
X0096870Y0061736D01*
X0096814Y0061685D01*
X0096755Y0061637D01*
X0096694Y0061592D01*
X0096630Y0061550D01*
X0096565Y0061511D01*
X0096498Y0061476D01*
X0096429Y0061445D01*
X0096358Y0061416D01*
X0096286Y0061392D01*
X0096213Y0061371D01*
X0096139Y0061354D01*
X0096064Y0061340D01*
X0095989Y0061331D01*
X0095913Y0061325D01*
X0095837Y0061323D01*
X0093837Y0061323D01*
X0093761Y0061325D01*
X0093685Y0061331D01*
X0093610Y0061340D01*
X0093535Y0061354D01*
X0093461Y0061371D01*
X0093388Y0061392D01*
X0093316Y0061416D01*
X0093245Y0061445D01*
X0093176Y0061476D01*
X0093109Y0061511D01*
X0093044Y0061550D01*
X0092980Y0061592D01*
X0092919Y0061637D01*
X0092860Y0061685D01*
X0092804Y0061736D01*
X0092750Y0061790D01*
X0092699Y0061846D01*
X0092651Y0061905D01*
X0092606Y0061966D01*
X0092564Y0062030D01*
X0092525Y0062095D01*
X0092490Y0062162D01*
X0092459Y0062231D01*
X0092430Y0062302D01*
X0092406Y0062374D01*
X0092385Y0062447D01*
X0092368Y0062521D01*
X0092354Y0062596D01*
X0092345Y0062671D01*
X0092339Y0062747D01*
X0092337Y0062823D01*
X0092337Y0076823D01*
X0092339Y0076899D01*
X0092345Y0076975D01*
X0092354Y0077050D01*
X0092368Y0077125D01*
X0092385Y0077199D01*
X0092406Y0077272D01*
X0092430Y0077344D01*
X0092459Y0077415D01*
X0092490Y0077484D01*
X0092525Y0077551D01*
X0092564Y0077616D01*
X0092606Y0077680D01*
X0092651Y0077741D01*
X0092699Y0077800D01*
X0092750Y0077856D01*
X0092804Y0077910D01*
X0092860Y0077961D01*
X0092919Y0078009D01*
X0092980Y0078054D01*
X0093044Y0078096D01*
X0093109Y0078135D01*
X0093176Y0078170D01*
X0093245Y0078201D01*
X0093316Y0078230D01*
X0093388Y0078254D01*
X0093461Y0078275D01*
X0093535Y0078292D01*
X0093610Y0078306D01*
X0093685Y0078315D01*
X0093761Y0078321D01*
X0093837Y0078323D01*
X0095837Y0078323D01*
X0095913Y0078321D01*
X0095989Y0078315D01*
X0096064Y0078306D01*
X0096139Y0078292D01*
X0096213Y0078275D01*
X0096286Y0078254D01*
X0096358Y0078230D01*
X0096429Y0078201D01*
X0096498Y0078170D01*
X0096565Y0078135D01*
X0096630Y0078096D01*
X0096694Y0078054D01*
X0096755Y0078009D01*
X0096814Y0077961D01*
X0096870Y0077910D01*
X0096924Y0077856D01*
X0096975Y0077800D01*
X0097023Y0077741D01*
X0097068Y0077680D01*
X0097110Y0077616D01*
X0097149Y0077551D01*
X0097184Y0077484D01*
X0097215Y0077415D01*
X0097244Y0077344D01*
X0097268Y0077272D01*
X0097289Y0077199D01*
X0097306Y0077125D01*
X0097320Y0077050D01*
X0097329Y0076975D01*
X0097335Y0076899D01*
X0097337Y0076823D01*
D14*
X0055837Y0109823D03*
X0053837Y0109823D03*
X0093837Y0129823D03*
X0095837Y0129823D03*
X0103837Y0119823D03*
X0105837Y0119823D03*
X0143837Y0119823D03*
X0145837Y0119823D03*
X0145837Y0109823D03*
X0143837Y0109823D03*
D15*
X0162666Y0110876D02*
X0164601Y0109424D01*
X0162666Y0107973D01*
X0165613Y0108941D02*
X0166580Y0107973D01*
X0167548Y0108941D01*
X0167548Y0110876D01*
X0168559Y0109908D02*
X0169527Y0110876D01*
X0170494Y0109908D01*
X0170494Y0107973D01*
X0171506Y0107973D02*
X0173441Y0107973D01*
X0174453Y0108457D02*
X0174936Y0107973D01*
X0175904Y0107973D01*
X0176387Y0108457D01*
X0176387Y0110876D01*
X0177399Y0110876D02*
X0177399Y0107973D01*
X0179334Y0107973D01*
X0178367Y0109424D02*
X0177399Y0109424D01*
X0177399Y0110876D02*
X0179334Y0110876D01*
X0174453Y0110876D02*
X0174453Y0108457D01*
X0171506Y0107973D02*
X0171506Y0110876D01*
X0170494Y0109424D02*
X0168559Y0109424D01*
X0168559Y0109908D02*
X0168559Y0107973D01*
X0165613Y0108941D02*
X0165613Y0110876D01*
X0165613Y0100876D02*
X0165613Y0098941D01*
X0166580Y0097973D01*
X0167548Y0098941D01*
X0167548Y0100876D01*
X0168559Y0099908D02*
X0168559Y0097973D01*
X0168559Y0099424D02*
X0170494Y0099424D01*
X0170494Y0099908D02*
X0170494Y0097973D01*
X0171506Y0097973D02*
X0173441Y0097973D01*
X0174453Y0098457D02*
X0174453Y0100876D01*
X0176387Y0100876D02*
X0176387Y0098457D01*
X0175904Y0097973D01*
X0174936Y0097973D01*
X0174453Y0098457D01*
X0177399Y0097973D02*
X0177399Y0100876D01*
X0179334Y0100876D01*
X0178367Y0099424D02*
X0177399Y0099424D01*
X0177399Y0097973D02*
X0179334Y0097973D01*
X0171506Y0097973D02*
X0171506Y0100876D01*
X0170494Y0099908D02*
X0169527Y0100876D01*
X0168559Y0099908D01*
X0164601Y0099424D02*
X0162666Y0097973D01*
X0164601Y0099424D02*
X0162666Y0100876D01*
X0162399Y0071276D02*
X0162399Y0068373D01*
X0164334Y0068373D01*
X0163367Y0069824D02*
X0162399Y0069824D01*
X0161387Y0068857D02*
X0160904Y0068373D01*
X0159936Y0068373D01*
X0159453Y0068857D01*
X0159453Y0071276D01*
X0161387Y0071276D02*
X0161387Y0068857D01*
X0162399Y0071276D02*
X0164334Y0071276D01*
X0158441Y0068373D02*
X0156506Y0068373D01*
X0156506Y0071276D01*
X0155494Y0070308D02*
X0155494Y0068373D01*
X0155494Y0069824D02*
X0153559Y0069824D01*
X0153559Y0070308D02*
X0153559Y0068373D01*
X0152548Y0069341D02*
X0152548Y0071276D01*
X0153559Y0070308D02*
X0154527Y0071276D01*
X0155494Y0070308D01*
X0152548Y0069341D02*
X0151580Y0068373D01*
X0150613Y0069341D01*
X0150613Y0071276D01*
X0149601Y0069824D02*
X0147666Y0068373D01*
X0149601Y0069824D02*
X0147666Y0071276D01*
X0103212Y0051823D02*
X0101212Y0051823D01*
X0102212Y0050823D02*
X0102212Y0052823D01*
X0102212Y0039073D02*
X0102212Y0037073D01*
X0082212Y0037073D02*
X0082212Y0039073D01*
X0082212Y0050823D02*
X0082212Y0052823D01*
X0081212Y0051823D02*
X0083212Y0051823D01*
X0082399Y0068373D02*
X0084334Y0068373D01*
X0083367Y0069824D02*
X0082399Y0069824D01*
X0081387Y0068857D02*
X0080904Y0068373D01*
X0079936Y0068373D01*
X0079453Y0068857D01*
X0079453Y0071276D01*
X0081387Y0071276D02*
X0081387Y0068857D01*
X0082399Y0068373D02*
X0082399Y0071276D01*
X0084334Y0071276D01*
X0078441Y0068373D02*
X0076506Y0068373D01*
X0076506Y0071276D01*
X0075494Y0070308D02*
X0075494Y0068373D01*
X0075494Y0069824D02*
X0073559Y0069824D01*
X0073559Y0070308D02*
X0073559Y0068373D01*
X0072548Y0069341D02*
X0072548Y0071276D01*
X0073559Y0070308D02*
X0074527Y0071276D01*
X0075494Y0070308D01*
X0072548Y0069341D02*
X0071580Y0068373D01*
X0070613Y0069341D01*
X0070613Y0071276D01*
X0069601Y0069824D02*
X0067666Y0068373D01*
X0069601Y0069824D02*
X0067666Y0071276D01*
X0083385Y0087652D02*
X0084836Y0089587D01*
X0086287Y0087652D01*
X0085320Y0090599D02*
X0083385Y0090599D01*
X0083385Y0092534D02*
X0085320Y0092534D01*
X0086287Y0091566D01*
X0085320Y0090599D01*
X0084836Y0093545D02*
X0084836Y0095480D01*
X0084352Y0095480D02*
X0086287Y0095480D01*
X0086287Y0096492D02*
X0086287Y0098427D01*
X0085804Y0099438D02*
X0086287Y0099922D01*
X0086287Y0100890D01*
X0085804Y0101373D01*
X0083385Y0101373D01*
X0083385Y0102385D02*
X0086287Y0102385D01*
X0086287Y0104320D01*
X0084836Y0103352D02*
X0084836Y0102385D01*
X0083385Y0102385D02*
X0083385Y0104320D01*
X0083385Y0099438D02*
X0085804Y0099438D01*
X0086287Y0096492D02*
X0083385Y0096492D01*
X0084352Y0095480D02*
X0083385Y0094513D01*
X0084352Y0093545D01*
X0086287Y0093545D01*
X0086687Y0127652D02*
X0085236Y0129587D01*
X0083785Y0127652D01*
X0083785Y0130599D02*
X0085720Y0130599D01*
X0086687Y0131566D01*
X0085720Y0132534D01*
X0083785Y0132534D01*
X0084752Y0133545D02*
X0083785Y0134513D01*
X0084752Y0135480D01*
X0086687Y0135480D01*
X0086687Y0136492D02*
X0086687Y0138427D01*
X0086204Y0139438D02*
X0086687Y0139922D01*
X0086687Y0140890D01*
X0086204Y0141373D01*
X0083785Y0141373D01*
X0083785Y0142385D02*
X0086687Y0142385D01*
X0086687Y0144320D01*
X0085236Y0143352D02*
X0085236Y0142385D01*
X0083785Y0142385D02*
X0083785Y0144320D01*
X0083785Y0139438D02*
X0086204Y0139438D01*
X0086687Y0136492D02*
X0083785Y0136492D01*
X0085236Y0135480D02*
X0085236Y0133545D01*
X0084752Y0133545D02*
X0086687Y0133545D01*
D16*
X0074837Y0110823D03*
X0074837Y0108823D03*
X0094837Y0070823D03*
X0094837Y0068823D03*
D17*
X0089837Y0054823D02*
X0089837Y0034823D01*
X0099837Y0034823D01*
X0099837Y0054823D01*
X0089837Y0054823D01*
X0079837Y0054823D02*
X0069837Y0054823D01*
X0069837Y0034823D01*
X0079837Y0034823D01*
X0079837Y0054823D01*
X0099837Y0089823D02*
X0099839Y0089932D01*
X0099845Y0090041D01*
X0099855Y0090149D01*
X0099869Y0090257D01*
X0099886Y0090365D01*
X0099908Y0090472D01*
X0099933Y0090578D01*
X0099963Y0090682D01*
X0099996Y0090786D01*
X0100033Y0090889D01*
X0100073Y0090990D01*
X0100117Y0091089D01*
X0100165Y0091187D01*
X0100217Y0091284D01*
X0100271Y0091378D01*
X0100329Y0091470D01*
X0100391Y0091560D01*
X0100456Y0091647D01*
X0100523Y0091733D01*
X0100594Y0091816D01*
X0100668Y0091896D01*
X0100745Y0091973D01*
X0100824Y0092048D01*
X0100906Y0092119D01*
X0100991Y0092188D01*
X0101078Y0092253D01*
X0101167Y0092316D01*
X0101259Y0092374D01*
X0101353Y0092430D01*
X0101448Y0092482D01*
X0101546Y0092531D01*
X0101645Y0092576D01*
X0101746Y0092618D01*
X0101848Y0092655D01*
X0101951Y0092689D01*
X0102056Y0092720D01*
X0102162Y0092746D01*
X0102268Y0092769D01*
X0102376Y0092787D01*
X0102484Y0092802D01*
X0102592Y0092813D01*
X0102701Y0092820D01*
X0102810Y0092823D01*
X0102919Y0092822D01*
X0103028Y0092817D01*
X0103136Y0092808D01*
X0103244Y0092795D01*
X0103352Y0092778D01*
X0103459Y0092758D01*
X0103565Y0092733D01*
X0103670Y0092705D01*
X0103774Y0092673D01*
X0103877Y0092637D01*
X0103979Y0092597D01*
X0104079Y0092554D01*
X0104177Y0092507D01*
X0104274Y0092457D01*
X0104368Y0092403D01*
X0104461Y0092345D01*
X0104552Y0092285D01*
X0104640Y0092221D01*
X0104726Y0092154D01*
X0104809Y0092084D01*
X0104890Y0092011D01*
X0104968Y0091935D01*
X0105043Y0091856D01*
X0105116Y0091774D01*
X0105185Y0091690D01*
X0105251Y0091604D01*
X0105314Y0091515D01*
X0105374Y0091424D01*
X0105431Y0091331D01*
X0105484Y0091236D01*
X0105533Y0091139D01*
X0105579Y0091040D01*
X0105621Y0090940D01*
X0105660Y0090838D01*
X0105695Y0090734D01*
X0105726Y0090630D01*
X0105754Y0090525D01*
X0105777Y0090418D01*
X0105797Y0090311D01*
X0105813Y0090203D01*
X0105825Y0090095D01*
X0105833Y0089986D01*
X0105837Y0089877D01*
X0105837Y0089769D01*
X0105833Y0089660D01*
X0105825Y0089551D01*
X0105813Y0089443D01*
X0105797Y0089335D01*
X0105777Y0089228D01*
X0105754Y0089121D01*
X0105726Y0089016D01*
X0105695Y0088912D01*
X0105660Y0088808D01*
X0105621Y0088706D01*
X0105579Y0088606D01*
X0105533Y0088507D01*
X0105484Y0088410D01*
X0105431Y0088315D01*
X0105374Y0088222D01*
X0105314Y0088131D01*
X0105251Y0088042D01*
X0105185Y0087956D01*
X0105116Y0087872D01*
X0105043Y0087790D01*
X0104968Y0087711D01*
X0104890Y0087635D01*
X0104809Y0087562D01*
X0104726Y0087492D01*
X0104640Y0087425D01*
X0104552Y0087361D01*
X0104461Y0087301D01*
X0104368Y0087243D01*
X0104274Y0087189D01*
X0104177Y0087139D01*
X0104079Y0087092D01*
X0103979Y0087049D01*
X0103877Y0087009D01*
X0103774Y0086973D01*
X0103670Y0086941D01*
X0103565Y0086913D01*
X0103459Y0086888D01*
X0103352Y0086868D01*
X0103244Y0086851D01*
X0103136Y0086838D01*
X0103028Y0086829D01*
X0102919Y0086824D01*
X0102810Y0086823D01*
X0102701Y0086826D01*
X0102592Y0086833D01*
X0102484Y0086844D01*
X0102376Y0086859D01*
X0102268Y0086877D01*
X0102162Y0086900D01*
X0102056Y0086926D01*
X0101951Y0086957D01*
X0101848Y0086991D01*
X0101746Y0087028D01*
X0101645Y0087070D01*
X0101546Y0087115D01*
X0101448Y0087164D01*
X0101353Y0087216D01*
X0101259Y0087272D01*
X0101167Y0087330D01*
X0101078Y0087393D01*
X0100991Y0087458D01*
X0100906Y0087527D01*
X0100824Y0087598D01*
X0100745Y0087673D01*
X0100668Y0087750D01*
X0100594Y0087830D01*
X0100523Y0087913D01*
X0100456Y0087999D01*
X0100391Y0088086D01*
X0100329Y0088176D01*
X0100271Y0088268D01*
X0100217Y0088362D01*
X0100165Y0088459D01*
X0100117Y0088557D01*
X0100073Y0088656D01*
X0100033Y0088757D01*
X0099996Y0088860D01*
X0099963Y0088964D01*
X0099933Y0089068D01*
X0099908Y0089174D01*
X0099886Y0089281D01*
X0099869Y0089389D01*
X0099855Y0089497D01*
X0099845Y0089605D01*
X0099839Y0089714D01*
X0099837Y0089823D01*
D18*
X0116963Y0123902D02*
X0152711Y0123902D01*
X0152711Y0149390D01*
X0152711Y0157264D01*
X0148381Y0157264D01*
X0148381Y0149784D01*
X0152711Y0149390D02*
X0116963Y0149390D01*
X0116963Y0123902D01*
X0102711Y0133902D02*
X0066963Y0133902D01*
X0066963Y0149390D01*
X0102711Y0149390D01*
X0102711Y0133902D01*
X0102711Y0146516D02*
X0066963Y0146516D01*
X0078952Y0149784D02*
X0078952Y0163800D01*
X0080920Y0164981D01*
X0088755Y0164981D01*
X0090723Y0163800D01*
X0090723Y0149784D01*
X0090329Y0152638D02*
X0079345Y0150571D01*
X0079345Y0152540D02*
X0090329Y0154607D01*
X0090329Y0156575D02*
X0079345Y0154508D01*
X0079345Y0156477D02*
X0090329Y0158544D01*
X0090329Y0160512D02*
X0079345Y0158445D01*
X0079345Y0160414D02*
X0090329Y0162481D01*
X0089444Y0164292D02*
X0079345Y0162225D01*
X0080920Y0164981D02*
X0080920Y0178760D01*
X0088755Y0178760D01*
X0088755Y0164981D01*
X0098381Y0157264D02*
X0098381Y0149784D01*
X0102711Y0149390D02*
X0102711Y0157264D01*
X0098381Y0157264D01*
X0116963Y0146516D02*
X0152711Y0146516D01*
X0140723Y0149784D02*
X0140723Y0163800D01*
X0138755Y0164981D01*
X0130920Y0164981D01*
X0128952Y0163800D01*
X0128952Y0149784D01*
X0129345Y0150571D02*
X0140329Y0152638D01*
X0140329Y0154607D02*
X0129345Y0152540D01*
X0129345Y0154508D02*
X0140329Y0156575D01*
X0140329Y0158544D02*
X0129345Y0156477D01*
X0129345Y0158445D02*
X0140329Y0160512D01*
X0140329Y0162481D02*
X0129345Y0160414D01*
X0129345Y0162225D02*
X0139444Y0164292D01*
X0138755Y0164981D02*
X0138755Y0178760D01*
X0130920Y0178760D01*
X0130920Y0164981D01*
X0052711Y0157264D02*
X0052711Y0149390D01*
X0052711Y0133902D01*
X0016963Y0133902D01*
X0016963Y0149390D01*
X0052711Y0149390D01*
X0052711Y0146516D02*
X0016963Y0146516D01*
X0028952Y0149784D02*
X0028952Y0163800D01*
X0030920Y0164981D01*
X0038755Y0164981D01*
X0040723Y0163800D01*
X0040723Y0149784D01*
X0040329Y0152638D02*
X0029345Y0150571D01*
X0029345Y0152540D02*
X0040329Y0154607D01*
X0040329Y0156575D02*
X0029345Y0154508D01*
X0029345Y0156477D02*
X0040329Y0158544D01*
X0040329Y0160512D02*
X0029345Y0158445D01*
X0029345Y0160414D02*
X0040329Y0162481D01*
X0039444Y0164292D02*
X0029345Y0162225D01*
X0030920Y0164981D02*
X0030920Y0178760D01*
X0038755Y0178760D01*
X0038755Y0164981D01*
X0048381Y0157264D02*
X0048381Y0149784D01*
X0048381Y0157264D02*
X0052711Y0157264D01*
D19*
X0099337Y0089823D02*
X0100337Y0089823D01*
D20*
X0084837Y0080573D03*
X0084837Y0080573D03*
X0084837Y0059073D03*
X0084837Y0059073D03*
M02*
