G75*
%MOIN*%
%OFA0B0*%
%FSLAX25Y25*%
%IPPOS*%
%LPD*%
%AMOC8*
5,1,8,0,0,1.08239X$1,22.5*
%
%ADD10C,0.00400*%
%ADD11R,0.01000X0.04000*%
%ADD12C,0.00200*%
%ADD13R,0.00800X0.07200*%
%ADD14C,0.00300*%
%ADD15R,0.05000X0.01000*%
%ADD16C,0.00600*%
%ADD17R,0.08000X0.02000*%
%ADD18R,0.02000X0.08000*%
%ADD19R,0.02000X0.01500*%
%ADD20R,0.01500X0.02000*%
%ADD21C,0.00500*%
%ADD22R,0.00800X0.06100*%
%ADD23R,0.01000X0.05000*%
%ADD24R,0.06100X0.00800*%
%ADD25C,0.01200*%
D10*
X0110450Y0068500D02*
X0116450Y0068500D01*
X0116537Y0068502D01*
X0116624Y0068508D01*
X0116711Y0068517D01*
X0116797Y0068530D01*
X0116883Y0068547D01*
X0116968Y0068568D01*
X0117051Y0068593D01*
X0117134Y0068621D01*
X0117215Y0068652D01*
X0117295Y0068687D01*
X0117373Y0068726D01*
X0117450Y0068768D01*
X0117525Y0068813D01*
X0117597Y0068862D01*
X0117668Y0068913D01*
X0117736Y0068968D01*
X0117801Y0069025D01*
X0117864Y0069086D01*
X0117925Y0069149D01*
X0117982Y0069214D01*
X0118037Y0069282D01*
X0118088Y0069353D01*
X0118137Y0069425D01*
X0118182Y0069500D01*
X0118224Y0069577D01*
X0118263Y0069655D01*
X0118298Y0069735D01*
X0118329Y0069816D01*
X0118357Y0069899D01*
X0118382Y0069982D01*
X0118403Y0070067D01*
X0118420Y0070153D01*
X0118433Y0070239D01*
X0118442Y0070326D01*
X0118448Y0070413D01*
X0118450Y0070500D01*
X0118450Y0071500D01*
X0118448Y0071587D01*
X0118442Y0071674D01*
X0118433Y0071761D01*
X0118420Y0071847D01*
X0118403Y0071933D01*
X0118382Y0072018D01*
X0118357Y0072101D01*
X0118329Y0072184D01*
X0118298Y0072265D01*
X0118263Y0072345D01*
X0118224Y0072423D01*
X0118182Y0072500D01*
X0118137Y0072575D01*
X0118088Y0072647D01*
X0118037Y0072718D01*
X0117982Y0072786D01*
X0117925Y0072851D01*
X0117864Y0072914D01*
X0117801Y0072975D01*
X0117736Y0073032D01*
X0117668Y0073087D01*
X0117597Y0073138D01*
X0117525Y0073187D01*
X0117450Y0073232D01*
X0117373Y0073274D01*
X0117295Y0073313D01*
X0117215Y0073348D01*
X0117134Y0073379D01*
X0117051Y0073407D01*
X0116968Y0073432D01*
X0116883Y0073453D01*
X0116797Y0073470D01*
X0116711Y0073483D01*
X0116624Y0073492D01*
X0116537Y0073498D01*
X0116450Y0073500D01*
X0110450Y0073500D01*
X0110363Y0073498D01*
X0110276Y0073492D01*
X0110189Y0073483D01*
X0110103Y0073470D01*
X0110017Y0073453D01*
X0109932Y0073432D01*
X0109849Y0073407D01*
X0109766Y0073379D01*
X0109685Y0073348D01*
X0109605Y0073313D01*
X0109527Y0073274D01*
X0109450Y0073232D01*
X0109375Y0073187D01*
X0109303Y0073138D01*
X0109232Y0073087D01*
X0109164Y0073032D01*
X0109099Y0072975D01*
X0109036Y0072914D01*
X0108975Y0072851D01*
X0108918Y0072786D01*
X0108863Y0072718D01*
X0108812Y0072647D01*
X0108763Y0072575D01*
X0108718Y0072500D01*
X0108676Y0072423D01*
X0108637Y0072345D01*
X0108602Y0072265D01*
X0108571Y0072184D01*
X0108543Y0072101D01*
X0108518Y0072018D01*
X0108497Y0071933D01*
X0108480Y0071847D01*
X0108467Y0071761D01*
X0108458Y0071674D01*
X0108452Y0071587D01*
X0108450Y0071500D01*
X0108450Y0070500D01*
X0108452Y0070413D01*
X0108458Y0070326D01*
X0108467Y0070239D01*
X0108480Y0070153D01*
X0108497Y0070067D01*
X0108518Y0069982D01*
X0108543Y0069899D01*
X0108571Y0069816D01*
X0108602Y0069735D01*
X0108637Y0069655D01*
X0108676Y0069577D01*
X0108718Y0069500D01*
X0108763Y0069425D01*
X0108812Y0069353D01*
X0108863Y0069282D01*
X0108918Y0069214D01*
X0108975Y0069149D01*
X0109036Y0069086D01*
X0109099Y0069025D01*
X0109164Y0068968D01*
X0109232Y0068913D01*
X0109303Y0068862D01*
X0109375Y0068813D01*
X0109450Y0068768D01*
X0109527Y0068726D01*
X0109605Y0068687D01*
X0109685Y0068652D01*
X0109766Y0068621D01*
X0109849Y0068593D01*
X0109932Y0068568D01*
X0110017Y0068547D01*
X0110103Y0068530D01*
X0110189Y0068517D01*
X0110276Y0068508D01*
X0110363Y0068502D01*
X0110450Y0068500D01*
X0185950Y0083000D02*
X0185950Y0089000D01*
X0185952Y0089087D01*
X0185958Y0089174D01*
X0185967Y0089261D01*
X0185980Y0089347D01*
X0185997Y0089433D01*
X0186018Y0089518D01*
X0186043Y0089601D01*
X0186071Y0089684D01*
X0186102Y0089765D01*
X0186137Y0089845D01*
X0186176Y0089923D01*
X0186218Y0090000D01*
X0186263Y0090075D01*
X0186312Y0090147D01*
X0186363Y0090218D01*
X0186418Y0090286D01*
X0186475Y0090351D01*
X0186536Y0090414D01*
X0186599Y0090475D01*
X0186664Y0090532D01*
X0186732Y0090587D01*
X0186803Y0090638D01*
X0186875Y0090687D01*
X0186950Y0090732D01*
X0187027Y0090774D01*
X0187105Y0090813D01*
X0187185Y0090848D01*
X0187266Y0090879D01*
X0187349Y0090907D01*
X0187432Y0090932D01*
X0187517Y0090953D01*
X0187603Y0090970D01*
X0187689Y0090983D01*
X0187776Y0090992D01*
X0187863Y0090998D01*
X0187950Y0091000D01*
X0188950Y0091000D01*
X0189037Y0090998D01*
X0189124Y0090992D01*
X0189211Y0090983D01*
X0189297Y0090970D01*
X0189383Y0090953D01*
X0189468Y0090932D01*
X0189551Y0090907D01*
X0189634Y0090879D01*
X0189715Y0090848D01*
X0189795Y0090813D01*
X0189873Y0090774D01*
X0189950Y0090732D01*
X0190025Y0090687D01*
X0190097Y0090638D01*
X0190168Y0090587D01*
X0190236Y0090532D01*
X0190301Y0090475D01*
X0190364Y0090414D01*
X0190425Y0090351D01*
X0190482Y0090286D01*
X0190537Y0090218D01*
X0190588Y0090147D01*
X0190637Y0090075D01*
X0190682Y0090000D01*
X0190724Y0089923D01*
X0190763Y0089845D01*
X0190798Y0089765D01*
X0190829Y0089684D01*
X0190857Y0089601D01*
X0190882Y0089518D01*
X0190903Y0089433D01*
X0190920Y0089347D01*
X0190933Y0089261D01*
X0190942Y0089174D01*
X0190948Y0089087D01*
X0190950Y0089000D01*
X0190950Y0083000D01*
X0190948Y0082913D01*
X0190942Y0082826D01*
X0190933Y0082739D01*
X0190920Y0082653D01*
X0190903Y0082567D01*
X0190882Y0082482D01*
X0190857Y0082399D01*
X0190829Y0082316D01*
X0190798Y0082235D01*
X0190763Y0082155D01*
X0190724Y0082077D01*
X0190682Y0082000D01*
X0190637Y0081925D01*
X0190588Y0081853D01*
X0190537Y0081782D01*
X0190482Y0081714D01*
X0190425Y0081649D01*
X0190364Y0081586D01*
X0190301Y0081525D01*
X0190236Y0081468D01*
X0190168Y0081413D01*
X0190097Y0081362D01*
X0190025Y0081313D01*
X0189950Y0081268D01*
X0189873Y0081226D01*
X0189795Y0081187D01*
X0189715Y0081152D01*
X0189634Y0081121D01*
X0189551Y0081093D01*
X0189468Y0081068D01*
X0189383Y0081047D01*
X0189297Y0081030D01*
X0189211Y0081017D01*
X0189124Y0081008D01*
X0189037Y0081002D01*
X0188950Y0081000D01*
X0187950Y0081000D01*
X0187863Y0081002D01*
X0187776Y0081008D01*
X0187689Y0081017D01*
X0187603Y0081030D01*
X0187517Y0081047D01*
X0187432Y0081068D01*
X0187349Y0081093D01*
X0187266Y0081121D01*
X0187185Y0081152D01*
X0187105Y0081187D01*
X0187027Y0081226D01*
X0186950Y0081268D01*
X0186875Y0081313D01*
X0186803Y0081362D01*
X0186732Y0081413D01*
X0186664Y0081468D01*
X0186599Y0081525D01*
X0186536Y0081586D01*
X0186475Y0081649D01*
X0186418Y0081714D01*
X0186363Y0081782D01*
X0186312Y0081853D01*
X0186263Y0081925D01*
X0186218Y0082000D01*
X0186176Y0082077D01*
X0186137Y0082155D01*
X0186102Y0082235D01*
X0186071Y0082316D01*
X0186043Y0082399D01*
X0186018Y0082482D01*
X0185997Y0082567D01*
X0185980Y0082653D01*
X0185967Y0082739D01*
X0185958Y0082826D01*
X0185952Y0082913D01*
X0185950Y0083000D01*
X0191450Y0128500D02*
X0205450Y0128500D01*
X0205526Y0128502D01*
X0205602Y0128508D01*
X0205677Y0128517D01*
X0205752Y0128531D01*
X0205826Y0128548D01*
X0205899Y0128569D01*
X0205971Y0128593D01*
X0206042Y0128622D01*
X0206111Y0128653D01*
X0206178Y0128688D01*
X0206243Y0128727D01*
X0206307Y0128769D01*
X0206368Y0128814D01*
X0206427Y0128862D01*
X0206483Y0128913D01*
X0206537Y0128967D01*
X0206588Y0129023D01*
X0206636Y0129082D01*
X0206681Y0129143D01*
X0206723Y0129207D01*
X0206762Y0129272D01*
X0206797Y0129339D01*
X0206828Y0129408D01*
X0206857Y0129479D01*
X0206881Y0129551D01*
X0206902Y0129624D01*
X0206919Y0129698D01*
X0206933Y0129773D01*
X0206942Y0129848D01*
X0206948Y0129924D01*
X0206950Y0130000D01*
X0206950Y0132000D01*
X0206948Y0132076D01*
X0206942Y0132152D01*
X0206933Y0132227D01*
X0206919Y0132302D01*
X0206902Y0132376D01*
X0206881Y0132449D01*
X0206857Y0132521D01*
X0206828Y0132592D01*
X0206797Y0132661D01*
X0206762Y0132728D01*
X0206723Y0132793D01*
X0206681Y0132857D01*
X0206636Y0132918D01*
X0206588Y0132977D01*
X0206537Y0133033D01*
X0206483Y0133087D01*
X0206427Y0133138D01*
X0206368Y0133186D01*
X0206307Y0133231D01*
X0206243Y0133273D01*
X0206178Y0133312D01*
X0206111Y0133347D01*
X0206042Y0133378D01*
X0205971Y0133407D01*
X0205899Y0133431D01*
X0205826Y0133452D01*
X0205752Y0133469D01*
X0205677Y0133483D01*
X0205602Y0133492D01*
X0205526Y0133498D01*
X0205450Y0133500D01*
X0191450Y0133500D01*
X0191374Y0133498D01*
X0191298Y0133492D01*
X0191223Y0133483D01*
X0191148Y0133469D01*
X0191074Y0133452D01*
X0191001Y0133431D01*
X0190929Y0133407D01*
X0190858Y0133378D01*
X0190789Y0133347D01*
X0190722Y0133312D01*
X0190657Y0133273D01*
X0190593Y0133231D01*
X0190532Y0133186D01*
X0190473Y0133138D01*
X0190417Y0133087D01*
X0190363Y0133033D01*
X0190312Y0132977D01*
X0190264Y0132918D01*
X0190219Y0132857D01*
X0190177Y0132793D01*
X0190138Y0132728D01*
X0190103Y0132661D01*
X0190072Y0132592D01*
X0190043Y0132521D01*
X0190019Y0132449D01*
X0189998Y0132376D01*
X0189981Y0132302D01*
X0189967Y0132227D01*
X0189958Y0132152D01*
X0189952Y0132076D01*
X0189950Y0132000D01*
X0189950Y0130000D01*
X0189952Y0129924D01*
X0189958Y0129848D01*
X0189967Y0129773D01*
X0189981Y0129698D01*
X0189998Y0129624D01*
X0190019Y0129551D01*
X0190043Y0129479D01*
X0190072Y0129408D01*
X0190103Y0129339D01*
X0190138Y0129272D01*
X0190177Y0129207D01*
X0190219Y0129143D01*
X0190264Y0129082D01*
X0190312Y0129023D01*
X0190363Y0128967D01*
X0190417Y0128913D01*
X0190473Y0128862D01*
X0190532Y0128814D01*
X0190593Y0128769D01*
X0190657Y0128727D01*
X0190722Y0128688D01*
X0190789Y0128653D01*
X0190858Y0128622D01*
X0190929Y0128593D01*
X0191001Y0128569D01*
X0191074Y0128548D01*
X0191148Y0128531D01*
X0191223Y0128517D01*
X0191298Y0128508D01*
X0191374Y0128502D01*
X0191450Y0128500D01*
X0295950Y0079000D02*
X0295950Y0073000D01*
X0295952Y0072913D01*
X0295958Y0072826D01*
X0295967Y0072739D01*
X0295980Y0072653D01*
X0295997Y0072567D01*
X0296018Y0072482D01*
X0296043Y0072399D01*
X0296071Y0072316D01*
X0296102Y0072235D01*
X0296137Y0072155D01*
X0296176Y0072077D01*
X0296218Y0072000D01*
X0296263Y0071925D01*
X0296312Y0071853D01*
X0296363Y0071782D01*
X0296418Y0071714D01*
X0296475Y0071649D01*
X0296536Y0071586D01*
X0296599Y0071525D01*
X0296664Y0071468D01*
X0296732Y0071413D01*
X0296803Y0071362D01*
X0296875Y0071313D01*
X0296950Y0071268D01*
X0297027Y0071226D01*
X0297105Y0071187D01*
X0297185Y0071152D01*
X0297266Y0071121D01*
X0297349Y0071093D01*
X0297432Y0071068D01*
X0297517Y0071047D01*
X0297603Y0071030D01*
X0297689Y0071017D01*
X0297776Y0071008D01*
X0297863Y0071002D01*
X0297950Y0071000D01*
X0298950Y0071000D01*
X0299037Y0071002D01*
X0299124Y0071008D01*
X0299211Y0071017D01*
X0299297Y0071030D01*
X0299383Y0071047D01*
X0299468Y0071068D01*
X0299551Y0071093D01*
X0299634Y0071121D01*
X0299715Y0071152D01*
X0299795Y0071187D01*
X0299873Y0071226D01*
X0299950Y0071268D01*
X0300025Y0071313D01*
X0300097Y0071362D01*
X0300168Y0071413D01*
X0300236Y0071468D01*
X0300301Y0071525D01*
X0300364Y0071586D01*
X0300425Y0071649D01*
X0300482Y0071714D01*
X0300537Y0071782D01*
X0300588Y0071853D01*
X0300637Y0071925D01*
X0300682Y0072000D01*
X0300724Y0072077D01*
X0300763Y0072155D01*
X0300798Y0072235D01*
X0300829Y0072316D01*
X0300857Y0072399D01*
X0300882Y0072482D01*
X0300903Y0072567D01*
X0300920Y0072653D01*
X0300933Y0072739D01*
X0300942Y0072826D01*
X0300948Y0072913D01*
X0300950Y0073000D01*
X0300950Y0079000D01*
X0300948Y0079087D01*
X0300942Y0079174D01*
X0300933Y0079261D01*
X0300920Y0079347D01*
X0300903Y0079433D01*
X0300882Y0079518D01*
X0300857Y0079601D01*
X0300829Y0079684D01*
X0300798Y0079765D01*
X0300763Y0079845D01*
X0300724Y0079923D01*
X0300682Y0080000D01*
X0300637Y0080075D01*
X0300588Y0080147D01*
X0300537Y0080218D01*
X0300482Y0080286D01*
X0300425Y0080351D01*
X0300364Y0080414D01*
X0300301Y0080475D01*
X0300236Y0080532D01*
X0300168Y0080587D01*
X0300097Y0080638D01*
X0300025Y0080687D01*
X0299950Y0080732D01*
X0299873Y0080774D01*
X0299795Y0080813D01*
X0299715Y0080848D01*
X0299634Y0080879D01*
X0299551Y0080907D01*
X0299468Y0080932D01*
X0299383Y0080953D01*
X0299297Y0080970D01*
X0299211Y0080983D01*
X0299124Y0080992D01*
X0299037Y0080998D01*
X0298950Y0081000D01*
X0297950Y0081000D01*
X0297863Y0080998D01*
X0297776Y0080992D01*
X0297689Y0080983D01*
X0297603Y0080970D01*
X0297517Y0080953D01*
X0297432Y0080932D01*
X0297349Y0080907D01*
X0297266Y0080879D01*
X0297185Y0080848D01*
X0297105Y0080813D01*
X0297027Y0080774D01*
X0296950Y0080732D01*
X0296875Y0080687D01*
X0296803Y0080638D01*
X0296732Y0080587D01*
X0296664Y0080532D01*
X0296599Y0080475D01*
X0296536Y0080414D01*
X0296475Y0080351D01*
X0296418Y0080286D01*
X0296363Y0080218D01*
X0296312Y0080147D01*
X0296263Y0080075D01*
X0296218Y0080000D01*
X0296176Y0079923D01*
X0296137Y0079845D01*
X0296102Y0079765D01*
X0296071Y0079684D01*
X0296043Y0079601D01*
X0296018Y0079518D01*
X0295997Y0079433D01*
X0295980Y0079347D01*
X0295967Y0079261D01*
X0295958Y0079174D01*
X0295952Y0079087D01*
X0295950Y0079000D01*
X0307950Y0101000D02*
X0308950Y0101000D01*
X0309037Y0101002D01*
X0309124Y0101008D01*
X0309211Y0101017D01*
X0309297Y0101030D01*
X0309383Y0101047D01*
X0309468Y0101068D01*
X0309551Y0101093D01*
X0309634Y0101121D01*
X0309715Y0101152D01*
X0309795Y0101187D01*
X0309873Y0101226D01*
X0309950Y0101268D01*
X0310025Y0101313D01*
X0310097Y0101362D01*
X0310168Y0101413D01*
X0310236Y0101468D01*
X0310301Y0101525D01*
X0310364Y0101586D01*
X0310425Y0101649D01*
X0310482Y0101714D01*
X0310537Y0101782D01*
X0310588Y0101853D01*
X0310637Y0101925D01*
X0310682Y0102000D01*
X0310724Y0102077D01*
X0310763Y0102155D01*
X0310798Y0102235D01*
X0310829Y0102316D01*
X0310857Y0102399D01*
X0310882Y0102482D01*
X0310903Y0102567D01*
X0310920Y0102653D01*
X0310933Y0102739D01*
X0310942Y0102826D01*
X0310948Y0102913D01*
X0310950Y0103000D01*
X0310950Y0109000D01*
X0310948Y0109087D01*
X0310942Y0109174D01*
X0310933Y0109261D01*
X0310920Y0109347D01*
X0310903Y0109433D01*
X0310882Y0109518D01*
X0310857Y0109601D01*
X0310829Y0109684D01*
X0310798Y0109765D01*
X0310763Y0109845D01*
X0310724Y0109923D01*
X0310682Y0110000D01*
X0310637Y0110075D01*
X0310588Y0110147D01*
X0310537Y0110218D01*
X0310482Y0110286D01*
X0310425Y0110351D01*
X0310364Y0110414D01*
X0310301Y0110475D01*
X0310236Y0110532D01*
X0310168Y0110587D01*
X0310097Y0110638D01*
X0310025Y0110687D01*
X0309950Y0110732D01*
X0309873Y0110774D01*
X0309795Y0110813D01*
X0309715Y0110848D01*
X0309634Y0110879D01*
X0309551Y0110907D01*
X0309468Y0110932D01*
X0309383Y0110953D01*
X0309297Y0110970D01*
X0309211Y0110983D01*
X0309124Y0110992D01*
X0309037Y0110998D01*
X0308950Y0111000D01*
X0307950Y0111000D01*
X0307863Y0110998D01*
X0307776Y0110992D01*
X0307689Y0110983D01*
X0307603Y0110970D01*
X0307517Y0110953D01*
X0307432Y0110932D01*
X0307349Y0110907D01*
X0307266Y0110879D01*
X0307185Y0110848D01*
X0307105Y0110813D01*
X0307027Y0110774D01*
X0306950Y0110732D01*
X0306875Y0110687D01*
X0306803Y0110638D01*
X0306732Y0110587D01*
X0306664Y0110532D01*
X0306599Y0110475D01*
X0306536Y0110414D01*
X0306475Y0110351D01*
X0306418Y0110286D01*
X0306363Y0110218D01*
X0306312Y0110147D01*
X0306263Y0110075D01*
X0306218Y0110000D01*
X0306176Y0109923D01*
X0306137Y0109845D01*
X0306102Y0109765D01*
X0306071Y0109684D01*
X0306043Y0109601D01*
X0306018Y0109518D01*
X0305997Y0109433D01*
X0305980Y0109347D01*
X0305967Y0109261D01*
X0305958Y0109174D01*
X0305952Y0109087D01*
X0305950Y0109000D01*
X0305950Y0103000D01*
X0305952Y0102913D01*
X0305958Y0102826D01*
X0305967Y0102739D01*
X0305980Y0102653D01*
X0305997Y0102567D01*
X0306018Y0102482D01*
X0306043Y0102399D01*
X0306071Y0102316D01*
X0306102Y0102235D01*
X0306137Y0102155D01*
X0306176Y0102077D01*
X0306218Y0102000D01*
X0306263Y0101925D01*
X0306312Y0101853D01*
X0306363Y0101782D01*
X0306418Y0101714D01*
X0306475Y0101649D01*
X0306536Y0101586D01*
X0306599Y0101525D01*
X0306664Y0101468D01*
X0306732Y0101413D01*
X0306803Y0101362D01*
X0306875Y0101313D01*
X0306950Y0101268D01*
X0307027Y0101226D01*
X0307105Y0101187D01*
X0307185Y0101152D01*
X0307266Y0101121D01*
X0307349Y0101093D01*
X0307432Y0101068D01*
X0307517Y0101047D01*
X0307603Y0101030D01*
X0307689Y0101017D01*
X0307776Y0101008D01*
X0307863Y0101002D01*
X0307950Y0101000D01*
X0405950Y0123000D02*
X0405950Y0129000D01*
X0405952Y0129087D01*
X0405958Y0129174D01*
X0405967Y0129261D01*
X0405980Y0129347D01*
X0405997Y0129433D01*
X0406018Y0129518D01*
X0406043Y0129601D01*
X0406071Y0129684D01*
X0406102Y0129765D01*
X0406137Y0129845D01*
X0406176Y0129923D01*
X0406218Y0130000D01*
X0406263Y0130075D01*
X0406312Y0130147D01*
X0406363Y0130218D01*
X0406418Y0130286D01*
X0406475Y0130351D01*
X0406536Y0130414D01*
X0406599Y0130475D01*
X0406664Y0130532D01*
X0406732Y0130587D01*
X0406803Y0130638D01*
X0406875Y0130687D01*
X0406950Y0130732D01*
X0407027Y0130774D01*
X0407105Y0130813D01*
X0407185Y0130848D01*
X0407266Y0130879D01*
X0407349Y0130907D01*
X0407432Y0130932D01*
X0407517Y0130953D01*
X0407603Y0130970D01*
X0407689Y0130983D01*
X0407776Y0130992D01*
X0407863Y0130998D01*
X0407950Y0131000D01*
X0408950Y0131000D01*
X0409037Y0130998D01*
X0409124Y0130992D01*
X0409211Y0130983D01*
X0409297Y0130970D01*
X0409383Y0130953D01*
X0409468Y0130932D01*
X0409551Y0130907D01*
X0409634Y0130879D01*
X0409715Y0130848D01*
X0409795Y0130813D01*
X0409873Y0130774D01*
X0409950Y0130732D01*
X0410025Y0130687D01*
X0410097Y0130638D01*
X0410168Y0130587D01*
X0410236Y0130532D01*
X0410301Y0130475D01*
X0410364Y0130414D01*
X0410425Y0130351D01*
X0410482Y0130286D01*
X0410537Y0130218D01*
X0410588Y0130147D01*
X0410637Y0130075D01*
X0410682Y0130000D01*
X0410724Y0129923D01*
X0410763Y0129845D01*
X0410798Y0129765D01*
X0410829Y0129684D01*
X0410857Y0129601D01*
X0410882Y0129518D01*
X0410903Y0129433D01*
X0410920Y0129347D01*
X0410933Y0129261D01*
X0410942Y0129174D01*
X0410948Y0129087D01*
X0410950Y0129000D01*
X0410950Y0123000D01*
X0410948Y0122913D01*
X0410942Y0122826D01*
X0410933Y0122739D01*
X0410920Y0122653D01*
X0410903Y0122567D01*
X0410882Y0122482D01*
X0410857Y0122399D01*
X0410829Y0122316D01*
X0410798Y0122235D01*
X0410763Y0122155D01*
X0410724Y0122077D01*
X0410682Y0122000D01*
X0410637Y0121925D01*
X0410588Y0121853D01*
X0410537Y0121782D01*
X0410482Y0121714D01*
X0410425Y0121649D01*
X0410364Y0121586D01*
X0410301Y0121525D01*
X0410236Y0121468D01*
X0410168Y0121413D01*
X0410097Y0121362D01*
X0410025Y0121313D01*
X0409950Y0121268D01*
X0409873Y0121226D01*
X0409795Y0121187D01*
X0409715Y0121152D01*
X0409634Y0121121D01*
X0409551Y0121093D01*
X0409468Y0121068D01*
X0409383Y0121047D01*
X0409297Y0121030D01*
X0409211Y0121017D01*
X0409124Y0121008D01*
X0409037Y0121002D01*
X0408950Y0121000D01*
X0407950Y0121000D01*
X0407863Y0121002D01*
X0407776Y0121008D01*
X0407689Y0121017D01*
X0407603Y0121030D01*
X0407517Y0121047D01*
X0407432Y0121068D01*
X0407349Y0121093D01*
X0407266Y0121121D01*
X0407185Y0121152D01*
X0407105Y0121187D01*
X0407027Y0121226D01*
X0406950Y0121268D01*
X0406875Y0121313D01*
X0406803Y0121362D01*
X0406732Y0121413D01*
X0406664Y0121468D01*
X0406599Y0121525D01*
X0406536Y0121586D01*
X0406475Y0121649D01*
X0406418Y0121714D01*
X0406363Y0121782D01*
X0406312Y0121853D01*
X0406263Y0121925D01*
X0406218Y0122000D01*
X0406176Y0122077D01*
X0406137Y0122155D01*
X0406102Y0122235D01*
X0406071Y0122316D01*
X0406043Y0122399D01*
X0406018Y0122482D01*
X0405997Y0122567D01*
X0405980Y0122653D01*
X0405967Y0122739D01*
X0405958Y0122826D01*
X0405952Y0122913D01*
X0405950Y0123000D01*
X0380191Y0167700D02*
X0377789Y0167700D01*
X0378990Y0167700D02*
X0378990Y0171303D01*
X0377789Y0170102D01*
X0376507Y0170703D02*
X0375907Y0171303D01*
X0374706Y0171303D01*
X0374105Y0170703D01*
X0374105Y0168301D01*
X0374706Y0167700D01*
X0375907Y0167700D01*
X0376507Y0168301D01*
X0372851Y0167700D02*
X0371650Y0167700D01*
X0372251Y0167700D02*
X0372251Y0171303D01*
X0372851Y0171303D02*
X0371650Y0171303D01*
X0491650Y0161303D02*
X0492851Y0161303D01*
X0492251Y0161303D02*
X0492251Y0157700D01*
X0492851Y0157700D02*
X0491650Y0157700D01*
X0494105Y0158301D02*
X0494105Y0160703D01*
X0494706Y0161303D01*
X0495907Y0161303D01*
X0496507Y0160703D01*
X0497789Y0160703D02*
X0498389Y0161303D01*
X0499590Y0161303D01*
X0500191Y0160703D01*
X0500191Y0160102D01*
X0497789Y0157700D01*
X0500191Y0157700D01*
X0496507Y0158301D02*
X0495907Y0157700D01*
X0494706Y0157700D01*
X0494105Y0158301D01*
D11*
X0199450Y0131000D03*
X0197450Y0131000D03*
D12*
X0195231Y0127102D02*
X0195598Y0126735D01*
X0194130Y0125267D01*
X0194497Y0124900D01*
X0195231Y0124900D01*
X0195598Y0125267D01*
X0195598Y0126735D01*
X0195231Y0127102D02*
X0194497Y0127102D01*
X0194130Y0126735D01*
X0194130Y0125267D01*
X0193388Y0124900D02*
X0191920Y0124900D01*
X0192654Y0124900D02*
X0192654Y0127102D01*
X0191920Y0126368D01*
X0196340Y0126368D02*
X0197441Y0126368D01*
X0197808Y0126001D01*
X0197808Y0124900D01*
X0196340Y0124900D02*
X0196340Y0126368D01*
X0193728Y0134900D02*
X0192260Y0134900D01*
X0192994Y0134900D02*
X0192994Y0137102D01*
X0192260Y0136368D01*
X0191518Y0136735D02*
X0191151Y0137102D01*
X0190417Y0137102D01*
X0190050Y0136735D01*
X0190050Y0135267D01*
X0190417Y0134900D01*
X0191151Y0134900D01*
X0191518Y0135267D01*
X0178449Y0156312D02*
X0178449Y0157780D01*
X0179183Y0158522D02*
X0179183Y0158889D01*
X0179550Y0158889D01*
X0179550Y0158522D01*
X0179183Y0158522D01*
X0179183Y0159627D02*
X0177715Y0161095D01*
X0177348Y0161095D01*
X0177348Y0159627D01*
X0179183Y0159627D02*
X0179550Y0159627D01*
X0179550Y0161837D02*
X0177348Y0161837D01*
X0178082Y0162938D02*
X0178816Y0161837D01*
X0179550Y0162938D01*
X0179550Y0163678D02*
X0179550Y0164045D01*
X0178816Y0164045D01*
X0178449Y0163678D01*
X0177715Y0163678D01*
X0177348Y0164045D01*
X0177348Y0164779D01*
X0177715Y0165146D01*
X0178449Y0165146D01*
X0178816Y0164779D01*
X0179550Y0164779D01*
X0179550Y0165146D01*
X0179550Y0157413D02*
X0177348Y0157413D01*
X0178449Y0156312D01*
X0153350Y0162600D02*
X0151148Y0162600D01*
X0151148Y0163701D01*
X0151515Y0164068D01*
X0152249Y0164068D01*
X0152616Y0163701D01*
X0152616Y0162600D01*
X0152616Y0163334D02*
X0153350Y0164068D01*
X0152983Y0164810D02*
X0153350Y0165177D01*
X0153350Y0165911D01*
X0152983Y0166278D01*
X0152616Y0166278D01*
X0152249Y0165911D01*
X0152249Y0164810D01*
X0152983Y0164810D01*
X0152249Y0164810D02*
X0151515Y0165544D01*
X0151148Y0166278D01*
X0149550Y0155146D02*
X0149550Y0154779D01*
X0148816Y0154779D01*
X0148449Y0155146D01*
X0147715Y0155146D01*
X0147348Y0154779D01*
X0147348Y0154045D01*
X0147715Y0153678D01*
X0148449Y0153678D01*
X0148816Y0154045D01*
X0149550Y0154045D01*
X0149550Y0153678D01*
X0149550Y0152938D02*
X0148816Y0151837D01*
X0148082Y0152938D01*
X0147348Y0151837D02*
X0149550Y0151837D01*
X0147715Y0151095D02*
X0149183Y0149627D01*
X0149550Y0149627D01*
X0149550Y0148889D02*
X0149550Y0148522D01*
X0149183Y0148522D01*
X0149183Y0148889D01*
X0149550Y0148889D01*
X0149550Y0147413D02*
X0147348Y0147413D01*
X0148449Y0146312D01*
X0148449Y0147780D01*
X0147348Y0149627D02*
X0147348Y0151095D01*
X0147715Y0151095D01*
X0121123Y0151001D02*
X0120756Y0150634D01*
X0120756Y0149900D01*
X0121123Y0149900D01*
X0121123Y0151001D02*
X0121123Y0151735D01*
X0120756Y0152102D01*
X0120022Y0152102D01*
X0119655Y0151735D01*
X0119655Y0151001D01*
X0120022Y0150634D01*
X0120022Y0149900D01*
X0119655Y0149900D01*
X0118913Y0149900D02*
X0118913Y0152102D01*
X0118179Y0151368D01*
X0117445Y0152102D01*
X0117445Y0149900D01*
X0116703Y0149900D02*
X0115235Y0149900D01*
X0115969Y0149900D02*
X0115969Y0152102D01*
X0115235Y0151368D01*
X0106308Y0154067D02*
X0105941Y0153700D01*
X0105207Y0153700D01*
X0104840Y0154067D01*
X0104840Y0154801D02*
X0105574Y0155168D01*
X0105941Y0155168D01*
X0106308Y0154801D01*
X0106308Y0154067D01*
X0104840Y0154801D02*
X0104840Y0155902D01*
X0106308Y0155902D01*
X0104098Y0155535D02*
X0104098Y0154801D01*
X0103731Y0154434D01*
X0102630Y0154434D01*
X0102630Y0153700D02*
X0102630Y0155902D01*
X0103731Y0155902D01*
X0104098Y0155535D01*
X0103364Y0154434D02*
X0104098Y0153700D01*
X0141630Y0115802D02*
X0142731Y0115802D01*
X0143098Y0115435D01*
X0143098Y0114701D01*
X0142731Y0114334D01*
X0141630Y0114334D01*
X0141630Y0113600D02*
X0141630Y0115802D01*
X0142364Y0114334D02*
X0143098Y0113600D01*
X0143840Y0114701D02*
X0145308Y0114701D01*
X0144941Y0115802D02*
X0143840Y0114701D01*
X0144941Y0113600D02*
X0144941Y0115802D01*
X0125284Y0102102D02*
X0125284Y0099900D01*
X0124550Y0099900D02*
X0126018Y0099900D01*
X0124550Y0101368D02*
X0125284Y0102102D01*
X0123808Y0102102D02*
X0122340Y0102102D01*
X0123074Y0102102D02*
X0123074Y0099900D01*
X0115050Y0100362D02*
X0114683Y0099995D01*
X0115050Y0100362D02*
X0115050Y0101096D01*
X0114683Y0101463D01*
X0113949Y0101463D01*
X0113582Y0101096D01*
X0113582Y0100729D01*
X0113949Y0099995D01*
X0112848Y0099995D01*
X0112848Y0101463D01*
X0113949Y0102205D02*
X0113949Y0103673D01*
X0114683Y0104415D02*
X0115050Y0104415D01*
X0114683Y0104415D02*
X0113215Y0105883D01*
X0112848Y0105883D01*
X0112848Y0104415D01*
X0112848Y0103306D02*
X0113949Y0102205D01*
X0115050Y0103306D02*
X0112848Y0103306D01*
X0113215Y0099253D02*
X0112848Y0098886D01*
X0112848Y0098152D01*
X0113215Y0097785D01*
X0114683Y0097785D01*
X0115050Y0098152D01*
X0115050Y0098886D01*
X0114683Y0099253D01*
X0114683Y0097043D02*
X0115050Y0096676D01*
X0115050Y0095575D01*
X0112848Y0095575D01*
X0112848Y0096676D01*
X0113215Y0097043D01*
X0113582Y0097043D01*
X0113949Y0096676D01*
X0113949Y0095575D01*
X0113949Y0096676D02*
X0114316Y0097043D01*
X0114683Y0097043D01*
X0082044Y0099900D02*
X0081677Y0099900D01*
X0081677Y0100634D01*
X0082044Y0101001D01*
X0082044Y0101735D01*
X0081677Y0102102D01*
X0080943Y0102102D01*
X0080576Y0101735D01*
X0080576Y0101001D01*
X0080943Y0100634D01*
X0080943Y0099900D01*
X0080576Y0099900D01*
X0079835Y0099900D02*
X0078734Y0100634D01*
X0079835Y0101368D01*
X0078734Y0102102D02*
X0078734Y0099900D01*
X0077992Y0100267D02*
X0077625Y0099900D01*
X0076891Y0099900D01*
X0076524Y0100267D01*
X0077992Y0101735D01*
X0077992Y0100267D01*
X0076524Y0100267D02*
X0076524Y0101735D01*
X0076891Y0102102D01*
X0077625Y0102102D01*
X0077992Y0101735D01*
X0075782Y0099900D02*
X0074314Y0099900D01*
X0075048Y0099900D02*
X0075048Y0102102D01*
X0074314Y0101368D01*
X0066308Y0104067D02*
X0065941Y0103700D01*
X0065207Y0103700D01*
X0064840Y0104067D01*
X0064098Y0103700D02*
X0063364Y0104434D01*
X0063731Y0104434D02*
X0062630Y0104434D01*
X0062630Y0103700D02*
X0062630Y0105902D01*
X0063731Y0105902D01*
X0064098Y0105535D01*
X0064098Y0104801D01*
X0063731Y0104434D01*
X0064840Y0105535D02*
X0065207Y0105902D01*
X0065941Y0105902D01*
X0066308Y0105535D01*
X0066308Y0105168D01*
X0065941Y0104801D01*
X0066308Y0104434D01*
X0066308Y0104067D01*
X0065941Y0104801D02*
X0065574Y0104801D01*
X0004100Y0104042D02*
X0003733Y0104409D01*
X0002999Y0104409D01*
X0002999Y0103676D01*
X0002265Y0104409D02*
X0001898Y0104042D01*
X0001898Y0103309D01*
X0002265Y0102942D01*
X0003733Y0102942D01*
X0004100Y0103309D01*
X0004100Y0104042D01*
X0004100Y0102202D02*
X0004100Y0101468D01*
X0004100Y0101835D02*
X0001898Y0101835D01*
X0001898Y0101468D02*
X0001898Y0102202D01*
X0002265Y0100726D02*
X0002999Y0100726D01*
X0003366Y0100359D01*
X0003366Y0099258D01*
X0004100Y0099258D02*
X0001898Y0099258D01*
X0001898Y0100359D01*
X0002265Y0100726D01*
X0003366Y0099992D02*
X0004100Y0100726D01*
X0004100Y0097782D02*
X0001898Y0097782D01*
X0001898Y0097049D02*
X0001898Y0098516D01*
X0162848Y0085883D02*
X0163215Y0085883D01*
X0164683Y0084415D01*
X0165050Y0084415D01*
X0165050Y0083306D02*
X0162848Y0083306D01*
X0163949Y0082205D01*
X0163949Y0083673D01*
X0162848Y0084415D02*
X0162848Y0085883D01*
X0162848Y0081463D02*
X0162848Y0079995D01*
X0163949Y0079995D01*
X0163582Y0080729D01*
X0163582Y0081096D01*
X0163949Y0081463D01*
X0164683Y0081463D01*
X0165050Y0081096D01*
X0165050Y0080362D01*
X0164683Y0079995D01*
X0164683Y0079253D02*
X0165050Y0078886D01*
X0165050Y0078152D01*
X0164683Y0077785D01*
X0163215Y0077785D01*
X0162848Y0078152D01*
X0162848Y0078886D01*
X0163215Y0079253D01*
X0163215Y0077043D02*
X0163582Y0077043D01*
X0163949Y0076676D01*
X0163949Y0075575D01*
X0162848Y0075575D02*
X0162848Y0076676D01*
X0163215Y0077043D01*
X0163949Y0076676D02*
X0164316Y0077043D01*
X0164683Y0077043D01*
X0165050Y0076676D01*
X0165050Y0075575D01*
X0162848Y0075575D01*
X0173074Y0079900D02*
X0173074Y0082102D01*
X0172340Y0082102D02*
X0173808Y0082102D01*
X0174550Y0081735D02*
X0174917Y0082102D01*
X0175651Y0082102D01*
X0176018Y0081735D01*
X0176018Y0081368D01*
X0174550Y0079900D01*
X0176018Y0079900D01*
X0220420Y0103700D02*
X0220420Y0105902D01*
X0221521Y0105902D01*
X0221888Y0105535D01*
X0221888Y0104801D01*
X0221521Y0104434D01*
X0220420Y0104434D01*
X0221154Y0104434D02*
X0221888Y0103700D01*
X0222630Y0103700D02*
X0224098Y0103700D01*
X0223364Y0103700D02*
X0223364Y0105902D01*
X0222630Y0105168D01*
X0224840Y0104801D02*
X0225574Y0105168D01*
X0225941Y0105168D01*
X0226308Y0104801D01*
X0226308Y0104067D01*
X0225941Y0103700D01*
X0225207Y0103700D01*
X0224840Y0104067D01*
X0224840Y0104801D02*
X0224840Y0105902D01*
X0226308Y0105902D01*
X0234314Y0101368D02*
X0235048Y0102102D01*
X0235048Y0099900D01*
X0234314Y0099900D02*
X0235782Y0099900D01*
X0236524Y0100267D02*
X0237992Y0101735D01*
X0237992Y0100267D01*
X0237625Y0099900D01*
X0236891Y0099900D01*
X0236524Y0100267D01*
X0236524Y0101735D01*
X0236891Y0102102D01*
X0237625Y0102102D01*
X0237992Y0101735D01*
X0238734Y0102102D02*
X0238734Y0099900D01*
X0238734Y0100634D02*
X0239835Y0101368D01*
X0240576Y0101735D02*
X0240943Y0102102D01*
X0241677Y0102102D01*
X0242044Y0101735D01*
X0242044Y0101001D01*
X0241677Y0100634D01*
X0241677Y0099900D01*
X0242044Y0099900D01*
X0240943Y0099900D02*
X0240943Y0100634D01*
X0240576Y0101001D01*
X0240576Y0101735D01*
X0240576Y0099900D02*
X0240943Y0099900D01*
X0239835Y0099900D02*
X0238734Y0100634D01*
X0272848Y0099995D02*
X0273949Y0099995D01*
X0273582Y0100729D01*
X0273582Y0101096D01*
X0273949Y0101463D01*
X0274683Y0101463D01*
X0275050Y0101096D01*
X0275050Y0100362D01*
X0274683Y0099995D01*
X0274683Y0099253D02*
X0275050Y0098886D01*
X0275050Y0098152D01*
X0274683Y0097785D01*
X0273215Y0097785D01*
X0272848Y0098152D01*
X0272848Y0098886D01*
X0273215Y0099253D01*
X0272848Y0099995D02*
X0272848Y0101463D01*
X0273949Y0102205D02*
X0273949Y0103673D01*
X0274683Y0104415D02*
X0273215Y0105883D01*
X0272848Y0105883D01*
X0272848Y0104415D01*
X0272848Y0103306D02*
X0273949Y0102205D01*
X0275050Y0103306D02*
X0272848Y0103306D01*
X0274683Y0104415D02*
X0275050Y0104415D01*
X0282340Y0102102D02*
X0283808Y0102102D01*
X0283074Y0102102D02*
X0283074Y0099900D01*
X0284550Y0100267D02*
X0284917Y0099900D01*
X0285651Y0099900D01*
X0286018Y0100267D01*
X0286018Y0100634D01*
X0285651Y0101001D01*
X0285284Y0101001D01*
X0285651Y0101001D02*
X0286018Y0101368D01*
X0286018Y0101735D01*
X0285651Y0102102D01*
X0284917Y0102102D01*
X0284550Y0101735D01*
X0275050Y0096676D02*
X0274683Y0097043D01*
X0274316Y0097043D01*
X0273949Y0096676D01*
X0273949Y0095575D01*
X0272848Y0095575D02*
X0272848Y0096676D01*
X0273215Y0097043D01*
X0273582Y0097043D01*
X0273949Y0096676D01*
X0275050Y0096676D02*
X0275050Y0095575D01*
X0272848Y0095575D01*
X0328507Y0100767D02*
X0329975Y0102235D01*
X0329975Y0102602D01*
X0329608Y0102969D01*
X0328874Y0102969D01*
X0328507Y0102602D01*
X0328507Y0100767D02*
X0329975Y0100767D01*
X0330717Y0100767D02*
X0331084Y0100767D01*
X0331084Y0101134D01*
X0330717Y0101134D01*
X0330717Y0100767D01*
X0331822Y0100767D02*
X0333290Y0102235D01*
X0333290Y0102602D01*
X0332923Y0102969D01*
X0332189Y0102969D01*
X0331822Y0102602D01*
X0331822Y0100767D02*
X0333290Y0100767D01*
X0334032Y0100767D02*
X0334032Y0102969D01*
X0334766Y0102235D01*
X0335500Y0102969D01*
X0335500Y0100767D01*
X0336242Y0100767D02*
X0336609Y0100767D01*
X0336609Y0101501D01*
X0336242Y0101868D01*
X0336242Y0102602D01*
X0336609Y0102969D01*
X0337343Y0102969D01*
X0337710Y0102602D01*
X0337710Y0101868D01*
X0337343Y0101501D01*
X0337343Y0100767D01*
X0337710Y0100767D01*
X0337343Y0094347D02*
X0336609Y0094347D01*
X0336242Y0093980D01*
X0335500Y0093980D02*
X0335500Y0093246D01*
X0335133Y0092879D01*
X0334032Y0092879D01*
X0334766Y0092879D02*
X0335500Y0092145D01*
X0336242Y0092145D02*
X0337710Y0093613D01*
X0337710Y0093980D01*
X0337343Y0094347D01*
X0335500Y0093980D02*
X0335133Y0094347D01*
X0334032Y0094347D01*
X0334032Y0092145D01*
X0336242Y0092145D02*
X0337710Y0092145D01*
X0357348Y0107047D02*
X0357715Y0106680D01*
X0357348Y0107047D02*
X0357348Y0107781D01*
X0357715Y0108148D01*
X0358082Y0108148D01*
X0359550Y0106680D01*
X0359550Y0108148D01*
X0359550Y0108890D02*
X0358082Y0110358D01*
X0357715Y0110358D01*
X0357348Y0109991D01*
X0357348Y0109257D01*
X0357715Y0108890D01*
X0359550Y0108890D02*
X0359550Y0110358D01*
X0359183Y0111100D02*
X0357715Y0112568D01*
X0359183Y0112568D01*
X0359550Y0112201D01*
X0359550Y0111467D01*
X0359183Y0111100D01*
X0357715Y0111100D01*
X0357348Y0111467D01*
X0357348Y0112201D01*
X0357715Y0112568D01*
X0357715Y0113310D02*
X0357348Y0113677D01*
X0357348Y0114411D01*
X0357715Y0114778D01*
X0358449Y0114778D01*
X0358816Y0114411D01*
X0359550Y0114411D01*
X0359550Y0114778D01*
X0359550Y0113677D02*
X0358816Y0113677D01*
X0358449Y0113310D01*
X0357715Y0113310D01*
X0359550Y0113310D02*
X0359550Y0113677D01*
X0349550Y0116680D02*
X0348082Y0118148D01*
X0347715Y0118148D01*
X0347348Y0117781D01*
X0347348Y0117047D01*
X0347715Y0116680D01*
X0349550Y0116680D02*
X0349550Y0118148D01*
X0349550Y0118890D02*
X0348082Y0120358D01*
X0347715Y0120358D01*
X0347348Y0119991D01*
X0347348Y0119257D01*
X0347715Y0118890D01*
X0349550Y0118890D02*
X0349550Y0120358D01*
X0349183Y0121100D02*
X0347715Y0122568D01*
X0349183Y0122568D01*
X0349550Y0122201D01*
X0349550Y0121467D01*
X0349183Y0121100D01*
X0347715Y0121100D01*
X0347348Y0121467D01*
X0347348Y0122201D01*
X0347715Y0122568D01*
X0347715Y0123310D02*
X0347348Y0123677D01*
X0347348Y0124411D01*
X0347715Y0124778D01*
X0348449Y0124778D01*
X0348816Y0124411D01*
X0349550Y0124411D01*
X0349550Y0124778D01*
X0349550Y0123677D02*
X0348816Y0123677D01*
X0348449Y0123310D01*
X0347715Y0123310D01*
X0349550Y0123310D02*
X0349550Y0123677D01*
X0361148Y0123701D02*
X0361515Y0124068D01*
X0362249Y0124068D01*
X0362616Y0123701D01*
X0362616Y0122600D01*
X0362616Y0123334D02*
X0363350Y0124068D01*
X0362983Y0124810D02*
X0363350Y0125177D01*
X0363350Y0125911D01*
X0362983Y0126278D01*
X0361515Y0126278D01*
X0361148Y0125911D01*
X0361148Y0125177D01*
X0361515Y0124810D01*
X0361882Y0124810D01*
X0362249Y0125177D01*
X0362249Y0126278D01*
X0361148Y0123701D02*
X0361148Y0122600D01*
X0363350Y0122600D01*
X0353350Y0132600D02*
X0351148Y0132600D01*
X0351148Y0133701D01*
X0351515Y0134068D01*
X0352249Y0134068D01*
X0352616Y0133701D01*
X0352616Y0132600D01*
X0352616Y0133334D02*
X0353350Y0134068D01*
X0353350Y0134810D02*
X0353350Y0136278D01*
X0353350Y0135544D02*
X0351148Y0135544D01*
X0351882Y0134810D01*
X0351515Y0137020D02*
X0351148Y0137387D01*
X0351148Y0138121D01*
X0351515Y0138488D01*
X0352983Y0137020D01*
X0353350Y0137387D01*
X0353350Y0138121D01*
X0352983Y0138488D01*
X0351515Y0138488D01*
X0351515Y0137020D02*
X0352983Y0137020D01*
X0337710Y0132602D02*
X0337710Y0131868D01*
X0337343Y0131501D01*
X0337343Y0130767D01*
X0337710Y0130767D01*
X0336609Y0130767D02*
X0336609Y0131501D01*
X0336242Y0131868D01*
X0336242Y0132602D01*
X0336609Y0132969D01*
X0337343Y0132969D01*
X0337710Y0132602D01*
X0336609Y0130767D02*
X0336242Y0130767D01*
X0335500Y0130767D02*
X0335500Y0132969D01*
X0334766Y0132235D01*
X0334032Y0132969D01*
X0334032Y0130767D01*
X0333290Y0130767D02*
X0331822Y0130767D01*
X0333290Y0132235D01*
X0333290Y0132602D01*
X0332923Y0132969D01*
X0332189Y0132969D01*
X0331822Y0132602D01*
X0331084Y0131134D02*
X0331084Y0130767D01*
X0330717Y0130767D01*
X0330717Y0131134D01*
X0331084Y0131134D01*
X0329975Y0130767D02*
X0328507Y0130767D01*
X0329975Y0132235D01*
X0329975Y0132602D01*
X0329608Y0132969D01*
X0328874Y0132969D01*
X0328507Y0132602D01*
X0308449Y0156312D02*
X0307348Y0157413D01*
X0309550Y0157413D01*
X0309550Y0158522D02*
X0309550Y0158889D01*
X0309183Y0158889D01*
X0309183Y0158522D01*
X0309550Y0158522D01*
X0309550Y0159627D02*
X0309183Y0159627D01*
X0307715Y0161095D01*
X0307348Y0161095D01*
X0307348Y0159627D01*
X0308449Y0157780D02*
X0308449Y0156312D01*
X0308816Y0161837D02*
X0308082Y0162938D01*
X0307715Y0163678D02*
X0307348Y0164045D01*
X0307348Y0164779D01*
X0307715Y0165146D01*
X0308449Y0165146D01*
X0308816Y0164779D01*
X0309550Y0164779D01*
X0309550Y0165146D01*
X0309550Y0164045D02*
X0308816Y0164045D01*
X0308449Y0163678D01*
X0307715Y0163678D01*
X0309550Y0163678D02*
X0309550Y0164045D01*
X0309550Y0162938D02*
X0308816Y0161837D01*
X0309550Y0161837D02*
X0307348Y0161837D01*
X0311148Y0172600D02*
X0311148Y0173701D01*
X0311515Y0174068D01*
X0312249Y0174068D01*
X0312616Y0173701D01*
X0312616Y0172600D01*
X0312616Y0173334D02*
X0313350Y0174068D01*
X0312983Y0174810D02*
X0312616Y0174810D01*
X0312249Y0175177D01*
X0312249Y0175911D01*
X0312616Y0176278D01*
X0312983Y0176278D01*
X0313350Y0175911D01*
X0313350Y0175177D01*
X0312983Y0174810D01*
X0312249Y0175177D02*
X0311882Y0174810D01*
X0311515Y0174810D01*
X0311148Y0175177D01*
X0311148Y0175911D01*
X0311515Y0176278D01*
X0311882Y0176278D01*
X0312249Y0175911D01*
X0313350Y0172600D02*
X0311148Y0172600D01*
X0417348Y0144779D02*
X0417715Y0145146D01*
X0418449Y0145146D01*
X0418816Y0144779D01*
X0419550Y0144779D01*
X0419550Y0145146D01*
X0419550Y0144045D02*
X0418816Y0144045D01*
X0418449Y0143678D01*
X0417715Y0143678D01*
X0417348Y0144045D01*
X0417348Y0144779D01*
X0418082Y0142938D02*
X0418816Y0141837D01*
X0419550Y0142938D01*
X0419550Y0143678D02*
X0419550Y0144045D01*
X0419550Y0141837D02*
X0417348Y0141837D01*
X0417348Y0141095D02*
X0417715Y0141095D01*
X0419183Y0139627D01*
X0419550Y0139627D01*
X0419550Y0138889D02*
X0419550Y0138522D01*
X0419183Y0138522D01*
X0419183Y0138889D01*
X0419550Y0138889D01*
X0419550Y0137413D02*
X0417348Y0137413D01*
X0418449Y0136312D01*
X0418449Y0137780D01*
X0417348Y0139627D02*
X0417348Y0141095D01*
X0421148Y0152600D02*
X0421148Y0153701D01*
X0421515Y0154068D01*
X0422249Y0154068D01*
X0422616Y0153701D01*
X0422616Y0152600D01*
X0422616Y0153334D02*
X0423350Y0154068D01*
X0423350Y0154810D02*
X0423350Y0156278D01*
X0423350Y0155544D02*
X0421148Y0155544D01*
X0421882Y0154810D01*
X0422249Y0157020D02*
X0422249Y0158488D01*
X0421148Y0158121D02*
X0422249Y0157020D01*
X0423350Y0158121D02*
X0421148Y0158121D01*
X0421148Y0152600D02*
X0423350Y0152600D01*
X0431795Y0127086D02*
X0431795Y0125618D01*
X0431795Y0126352D02*
X0429593Y0126352D01*
X0430327Y0125618D01*
X0431795Y0124876D02*
X0431795Y0123408D01*
X0431795Y0124142D02*
X0429593Y0124142D01*
X0430327Y0123408D01*
X0430694Y0122666D02*
X0431061Y0122299D01*
X0431061Y0121198D01*
X0431795Y0121198D02*
X0429593Y0121198D01*
X0429593Y0122299D01*
X0429960Y0122666D01*
X0430694Y0122666D01*
X0431061Y0121932D02*
X0431795Y0122666D01*
X0468215Y0121932D02*
X0468949Y0121198D01*
X0468215Y0121932D02*
X0470417Y0121932D01*
X0470417Y0121198D02*
X0470417Y0122666D01*
X0470050Y0123408D02*
X0468582Y0124876D01*
X0470050Y0124876D01*
X0470417Y0124509D01*
X0470417Y0123775D01*
X0470050Y0123408D01*
X0468582Y0123408D01*
X0468215Y0123775D01*
X0468215Y0124509D01*
X0468582Y0124876D01*
X0468215Y0125618D02*
X0470417Y0125618D01*
X0469683Y0125618D02*
X0470417Y0126719D01*
X0470417Y0127460D02*
X0470417Y0127827D01*
X0469683Y0127827D01*
X0469316Y0127460D01*
X0468582Y0127460D01*
X0468215Y0127827D01*
X0468215Y0128561D01*
X0468582Y0128928D01*
X0469316Y0128928D01*
X0469683Y0128561D01*
X0470417Y0128561D01*
X0470417Y0128928D01*
X0468949Y0126719D02*
X0469683Y0125618D01*
X0485050Y0109302D02*
X0484683Y0108935D01*
X0485050Y0109302D02*
X0485784Y0109302D01*
X0486151Y0108935D01*
X0486151Y0108568D01*
X0484683Y0107100D01*
X0486151Y0107100D01*
X0486893Y0107100D02*
X0487260Y0107100D01*
X0487260Y0107467D01*
X0486893Y0107467D01*
X0486893Y0107100D01*
X0487998Y0107100D02*
X0489465Y0108568D01*
X0489465Y0108935D01*
X0489098Y0109302D01*
X0488364Y0109302D01*
X0487998Y0108935D01*
X0487998Y0107100D02*
X0489465Y0107100D01*
X0490207Y0107100D02*
X0490207Y0108568D01*
X0491308Y0108568D01*
X0491675Y0108201D01*
X0491675Y0107100D01*
X0476938Y0106934D02*
X0476938Y0106567D01*
X0476571Y0106200D01*
X0475837Y0106200D01*
X0475470Y0106567D01*
X0474728Y0106200D02*
X0473260Y0106200D01*
X0473994Y0106200D02*
X0473994Y0108402D01*
X0473260Y0107668D01*
X0472518Y0108035D02*
X0472518Y0107301D01*
X0472151Y0106934D01*
X0471050Y0106934D01*
X0471784Y0106934D02*
X0472518Y0106200D01*
X0471050Y0106200D02*
X0471050Y0108402D01*
X0472151Y0108402D01*
X0472518Y0108035D01*
X0475470Y0108035D02*
X0475837Y0108402D01*
X0476571Y0108402D01*
X0476938Y0108035D01*
X0476938Y0107668D01*
X0476571Y0107301D01*
X0476938Y0106934D01*
X0476571Y0107301D02*
X0476204Y0107301D01*
X0450417Y0100401D02*
X0450417Y0100034D01*
X0449683Y0100034D01*
X0449316Y0100401D01*
X0448582Y0100401D01*
X0448215Y0100034D01*
X0448215Y0099300D01*
X0448582Y0098933D01*
X0449316Y0098933D01*
X0449683Y0099300D01*
X0450417Y0099300D01*
X0450417Y0098933D01*
X0450417Y0098191D02*
X0448215Y0098191D01*
X0448949Y0097457D01*
X0448215Y0096723D01*
X0450417Y0096723D01*
X0450417Y0095981D02*
X0450417Y0094513D01*
X0448949Y0095981D01*
X0448582Y0095981D01*
X0448215Y0095614D01*
X0448215Y0094880D01*
X0448582Y0094513D01*
X0450050Y0093775D02*
X0450417Y0093775D01*
X0450417Y0093408D01*
X0450050Y0093408D01*
X0450050Y0093775D01*
X0450417Y0092666D02*
X0450417Y0091198D01*
X0448949Y0092666D01*
X0448582Y0092666D01*
X0448215Y0092299D01*
X0448215Y0091565D01*
X0448582Y0091198D01*
X0486340Y0074535D02*
X0486340Y0073067D01*
X0486707Y0072700D01*
X0487441Y0072700D01*
X0487808Y0073067D01*
X0488550Y0073067D02*
X0488917Y0072700D01*
X0489651Y0072700D01*
X0490018Y0073067D01*
X0490018Y0073434D01*
X0489651Y0073801D01*
X0489284Y0073801D01*
X0489651Y0073801D02*
X0490018Y0074168D01*
X0490018Y0074535D01*
X0489651Y0074902D01*
X0488917Y0074902D01*
X0488550Y0074535D01*
X0487808Y0074535D02*
X0487441Y0074902D01*
X0486707Y0074902D01*
X0486340Y0074535D01*
X0411795Y0091198D02*
X0409593Y0091198D01*
X0409593Y0092299D01*
X0409960Y0092666D01*
X0410694Y0092666D01*
X0411061Y0092299D01*
X0411061Y0091198D01*
X0411061Y0091932D02*
X0411795Y0092666D01*
X0411795Y0093408D02*
X0411795Y0094876D01*
X0411795Y0094142D02*
X0409593Y0094142D01*
X0410327Y0093408D01*
X0409960Y0095618D02*
X0409593Y0095985D01*
X0409593Y0096719D01*
X0409960Y0097086D01*
X0410327Y0097086D01*
X0411795Y0095618D01*
X0411795Y0097086D01*
X0384917Y0095198D02*
X0384917Y0093730D01*
X0384183Y0092988D02*
X0384550Y0092621D01*
X0384550Y0091887D01*
X0384183Y0091520D01*
X0382715Y0091520D01*
X0382348Y0091887D01*
X0382348Y0092621D01*
X0382715Y0092988D01*
X0382715Y0090778D02*
X0382348Y0090411D01*
X0382348Y0089677D01*
X0382715Y0089310D01*
X0384183Y0089310D01*
X0384550Y0089677D01*
X0384550Y0090411D01*
X0384183Y0090778D01*
X0383816Y0088568D02*
X0382348Y0088568D01*
X0382348Y0087100D02*
X0383816Y0087100D01*
X0384550Y0087834D01*
X0383816Y0088568D01*
X0384183Y0095940D02*
X0384550Y0096306D01*
X0384550Y0097040D01*
X0384183Y0097407D01*
X0383449Y0097407D01*
X0383449Y0096673D01*
X0382715Y0095940D02*
X0384183Y0095940D01*
X0382715Y0095940D02*
X0382348Y0096306D01*
X0382348Y0097040D01*
X0382715Y0097407D01*
X0382348Y0098149D02*
X0384550Y0099617D01*
X0382348Y0099617D01*
X0382348Y0100359D02*
X0382348Y0101460D01*
X0382715Y0101827D01*
X0384183Y0101827D01*
X0384550Y0101460D01*
X0384550Y0100359D01*
X0382348Y0100359D01*
X0382348Y0098149D02*
X0384550Y0098149D01*
X0384550Y0102569D02*
X0384550Y0104037D01*
X0384550Y0102569D02*
X0382348Y0102569D01*
X0372350Y0082568D02*
X0372350Y0081100D01*
X0370882Y0082568D01*
X0370515Y0082568D01*
X0370148Y0082201D01*
X0370148Y0081467D01*
X0370515Y0081100D01*
X0370515Y0080358D02*
X0370148Y0079991D01*
X0370148Y0079257D01*
X0370515Y0078890D01*
X0370882Y0078890D01*
X0371249Y0079257D01*
X0371249Y0079991D01*
X0371616Y0080358D01*
X0371983Y0080358D01*
X0372350Y0079991D01*
X0372350Y0079257D01*
X0371983Y0078890D01*
X0336976Y0064347D02*
X0336976Y0062145D01*
X0336242Y0062145D02*
X0337710Y0062145D01*
X0336242Y0063613D02*
X0336976Y0064347D01*
X0335500Y0063980D02*
X0335500Y0063246D01*
X0335133Y0062879D01*
X0334032Y0062879D01*
X0334766Y0062879D02*
X0335500Y0062145D01*
X0334032Y0062145D02*
X0334032Y0064347D01*
X0335133Y0064347D01*
X0335500Y0063980D01*
X0183350Y0172600D02*
X0181148Y0172600D01*
X0181148Y0173701D01*
X0181515Y0174068D01*
X0182249Y0174068D01*
X0182616Y0173701D01*
X0182616Y0172600D01*
X0182616Y0173334D02*
X0183350Y0174068D01*
X0183350Y0174810D02*
X0182983Y0174810D01*
X0181515Y0176278D01*
X0181148Y0176278D01*
X0181148Y0174810D01*
X0541898Y0153673D02*
X0541898Y0152205D01*
X0541898Y0152939D02*
X0544100Y0152939D01*
X0543733Y0151463D02*
X0541898Y0151463D01*
X0541898Y0149995D02*
X0543733Y0149995D01*
X0544100Y0150362D01*
X0544100Y0151096D01*
X0543733Y0151463D01*
X0543733Y0149253D02*
X0542265Y0149253D01*
X0541898Y0148886D01*
X0541898Y0148152D01*
X0542265Y0147785D01*
X0543733Y0147785D01*
X0544100Y0148152D01*
X0544100Y0148886D01*
X0543733Y0149253D01*
D13*
X0308450Y0114800D03*
X0308450Y0097200D03*
X0298450Y0084800D03*
X0298450Y0067200D03*
D14*
X0102898Y0062708D02*
X0102898Y0061257D01*
X0105800Y0061257D01*
X0105800Y0062708D01*
X0105316Y0063192D01*
X0103381Y0063192D01*
X0102898Y0062708D01*
X0104349Y0064203D02*
X0104349Y0066138D01*
X0105800Y0065655D02*
X0102898Y0065655D01*
X0104349Y0064203D01*
X0113200Y0069500D02*
X0113200Y0071000D01*
X0113200Y0072500D01*
X0113200Y0071000D02*
X0115950Y0072500D01*
X0115950Y0069500D01*
X0113200Y0071000D01*
X0146998Y0095986D02*
X0147481Y0095503D01*
X0146998Y0095986D02*
X0146998Y0096954D01*
X0147481Y0097437D01*
X0147965Y0097437D01*
X0149900Y0095503D01*
X0149900Y0097437D01*
X0149900Y0098449D02*
X0147965Y0100384D01*
X0147481Y0100384D01*
X0146998Y0099900D01*
X0146998Y0098933D01*
X0147481Y0098449D01*
X0149900Y0098449D02*
X0149900Y0100384D01*
X0149900Y0101396D02*
X0146998Y0101396D01*
X0147965Y0102847D02*
X0148933Y0101396D01*
X0149900Y0102847D01*
X0149900Y0103851D02*
X0149900Y0104335D01*
X0148933Y0104335D01*
X0148449Y0103851D01*
X0147481Y0103851D01*
X0146998Y0104335D01*
X0146998Y0105302D01*
X0147481Y0105786D01*
X0148449Y0105786D01*
X0148933Y0105302D01*
X0149900Y0105302D01*
X0149900Y0105786D01*
X0178707Y0096552D02*
X0180158Y0096552D01*
X0180642Y0096069D01*
X0180642Y0094134D01*
X0180158Y0093650D01*
X0178707Y0093650D01*
X0178707Y0096552D01*
X0181653Y0096069D02*
X0182137Y0096552D01*
X0183105Y0096552D01*
X0183588Y0096069D01*
X0183588Y0095585D01*
X0183105Y0095101D01*
X0183588Y0094617D01*
X0183588Y0094134D01*
X0183105Y0093650D01*
X0182137Y0093650D01*
X0181653Y0094134D01*
X0182621Y0095101D02*
X0183105Y0095101D01*
X0186950Y0086250D02*
X0188450Y0086250D01*
X0189950Y0086250D01*
X0188450Y0086250D02*
X0189950Y0083500D01*
X0186950Y0083500D01*
X0188450Y0086250D01*
X0296950Y0078500D02*
X0298450Y0075750D01*
X0299950Y0075750D01*
X0298450Y0075750D02*
X0296950Y0075750D01*
X0298450Y0075750D02*
X0299950Y0078500D01*
X0296950Y0078500D01*
X0301598Y0082650D02*
X0301598Y0084101D01*
X0302081Y0084585D01*
X0304016Y0084585D01*
X0304500Y0084101D01*
X0304500Y0082650D01*
X0301598Y0082650D01*
X0302565Y0085597D02*
X0301598Y0086564D01*
X0304500Y0086564D01*
X0304500Y0085597D02*
X0304500Y0087531D01*
X0306950Y0105750D02*
X0308450Y0105750D01*
X0309950Y0105750D01*
X0308450Y0105750D02*
X0306950Y0108500D01*
X0309950Y0108500D01*
X0308450Y0105750D01*
X0311598Y0112650D02*
X0311598Y0114101D01*
X0312081Y0114585D01*
X0314016Y0114585D01*
X0314500Y0114101D01*
X0314500Y0112650D01*
X0311598Y0112650D01*
X0312081Y0115597D02*
X0311598Y0116080D01*
X0311598Y0117048D01*
X0312081Y0117531D01*
X0312565Y0117531D01*
X0314500Y0115597D01*
X0314500Y0117531D01*
X0377707Y0144550D02*
X0377707Y0145034D01*
X0379642Y0146969D01*
X0379642Y0147452D01*
X0377707Y0147452D01*
X0380653Y0147452D02*
X0380653Y0146001D01*
X0381621Y0146485D01*
X0382105Y0146485D01*
X0382588Y0146001D01*
X0382588Y0145034D01*
X0382105Y0144550D01*
X0381137Y0144550D01*
X0380653Y0145034D01*
X0380653Y0147452D02*
X0382588Y0147452D01*
X0383600Y0147452D02*
X0383600Y0146001D01*
X0384567Y0146485D01*
X0385051Y0146485D01*
X0385535Y0146001D01*
X0385535Y0145034D01*
X0385051Y0144550D01*
X0384084Y0144550D01*
X0383600Y0145034D01*
X0383600Y0147452D02*
X0385535Y0147452D01*
X0386547Y0147452D02*
X0386547Y0146001D01*
X0387514Y0146485D01*
X0387998Y0146485D01*
X0388481Y0146001D01*
X0388481Y0145034D01*
X0387998Y0144550D01*
X0387030Y0144550D01*
X0386547Y0145034D01*
X0386547Y0147452D02*
X0388481Y0147452D01*
X0406950Y0128500D02*
X0408450Y0125750D01*
X0409950Y0125750D01*
X0408450Y0125750D02*
X0406950Y0125750D01*
X0408450Y0125750D02*
X0409950Y0128500D01*
X0406950Y0128500D01*
X0412600Y0118352D02*
X0414051Y0118352D01*
X0414535Y0117869D01*
X0414535Y0115934D01*
X0414051Y0115450D01*
X0412600Y0115450D01*
X0412600Y0118352D01*
X0415547Y0118352D02*
X0415547Y0116901D01*
X0416514Y0117385D01*
X0416998Y0117385D01*
X0417481Y0116901D01*
X0417481Y0115934D01*
X0416998Y0115450D01*
X0416030Y0115450D01*
X0415547Y0115934D01*
X0415547Y0118352D02*
X0417481Y0118352D01*
X0387993Y0089736D02*
X0387993Y0087267D01*
X0389227Y0088502D02*
X0386758Y0088502D01*
X0378448Y0089277D02*
X0378448Y0086808D01*
X0466998Y0115741D02*
X0467481Y0115257D01*
X0466998Y0115741D02*
X0466998Y0116708D01*
X0467481Y0117192D01*
X0467965Y0117192D01*
X0469900Y0115257D01*
X0469900Y0117192D01*
X0469900Y0118203D02*
X0467965Y0120138D01*
X0467481Y0120138D01*
X0466998Y0119655D01*
X0466998Y0118687D01*
X0467481Y0118203D01*
X0469900Y0118203D02*
X0469900Y0120138D01*
X0469416Y0121150D02*
X0467481Y0123085D01*
X0469416Y0123085D01*
X0469900Y0122601D01*
X0469900Y0121634D01*
X0469416Y0121150D01*
X0467481Y0121150D01*
X0466998Y0121634D01*
X0466998Y0122601D01*
X0467481Y0123085D01*
X0467481Y0124097D02*
X0466998Y0124580D01*
X0466998Y0125548D01*
X0467481Y0126031D01*
X0468449Y0126031D01*
X0468933Y0125548D01*
X0469900Y0125548D01*
X0469900Y0126031D01*
X0469900Y0124580D02*
X0468933Y0124580D01*
X0468449Y0124097D01*
X0467481Y0124097D01*
X0469900Y0124097D02*
X0469900Y0124580D01*
X0494760Y0134550D02*
X0494760Y0137452D01*
X0494760Y0134550D02*
X0496695Y0134550D01*
X0497707Y0134550D02*
X0497707Y0137452D01*
X0498674Y0136485D01*
X0499642Y0137452D01*
X0499642Y0134550D01*
X0500653Y0135034D02*
X0501137Y0134550D01*
X0502105Y0134550D01*
X0502588Y0135034D01*
X0502588Y0135517D01*
X0502105Y0136001D01*
X0501621Y0136001D01*
X0502105Y0136001D02*
X0502588Y0136485D01*
X0502588Y0136969D01*
X0502105Y0137452D01*
X0501137Y0137452D01*
X0500653Y0136969D01*
X0503600Y0137452D02*
X0503600Y0136001D01*
X0504567Y0136485D01*
X0505051Y0136485D01*
X0505535Y0136001D01*
X0505535Y0135034D01*
X0505051Y0134550D01*
X0504084Y0134550D01*
X0503600Y0135034D01*
X0503600Y0137452D02*
X0505535Y0137452D01*
X0506547Y0136969D02*
X0507030Y0137452D01*
X0507998Y0137452D01*
X0508481Y0136969D01*
X0508481Y0136485D01*
X0507998Y0136001D01*
X0507030Y0136001D01*
X0506547Y0136485D01*
X0506547Y0136969D01*
X0507030Y0136001D02*
X0506547Y0135517D01*
X0506547Y0135034D01*
X0507030Y0134550D01*
X0507998Y0134550D01*
X0508481Y0135034D01*
X0508481Y0135517D01*
X0507998Y0136001D01*
X0509493Y0134550D02*
X0509493Y0137452D01*
X0511428Y0134550D01*
X0511428Y0137452D01*
D15*
X0408450Y0123250D03*
X0308450Y0103250D03*
X0298450Y0073250D03*
X0188450Y0088750D03*
D16*
X0152450Y0092000D02*
X0152450Y0093500D01*
X0151950Y0094000D01*
X0151950Y0108000D01*
X0152450Y0108500D01*
X0152450Y0110000D01*
X0152448Y0110060D01*
X0152443Y0110121D01*
X0152434Y0110180D01*
X0152421Y0110239D01*
X0152405Y0110298D01*
X0152385Y0110355D01*
X0152362Y0110410D01*
X0152335Y0110465D01*
X0152306Y0110517D01*
X0152273Y0110568D01*
X0152237Y0110617D01*
X0152199Y0110663D01*
X0152157Y0110707D01*
X0152113Y0110749D01*
X0152067Y0110787D01*
X0152018Y0110823D01*
X0151967Y0110856D01*
X0151915Y0110885D01*
X0151860Y0110912D01*
X0151805Y0110935D01*
X0151748Y0110955D01*
X0151689Y0110971D01*
X0151630Y0110984D01*
X0151571Y0110993D01*
X0151510Y0110998D01*
X0151450Y0111000D01*
X0145450Y0111000D01*
X0145390Y0110998D01*
X0145329Y0110993D01*
X0145270Y0110984D01*
X0145211Y0110971D01*
X0145152Y0110955D01*
X0145095Y0110935D01*
X0145040Y0110912D01*
X0144985Y0110885D01*
X0144933Y0110856D01*
X0144882Y0110823D01*
X0144833Y0110787D01*
X0144787Y0110749D01*
X0144743Y0110707D01*
X0144701Y0110663D01*
X0144663Y0110617D01*
X0144627Y0110568D01*
X0144594Y0110517D01*
X0144565Y0110465D01*
X0144538Y0110410D01*
X0144515Y0110355D01*
X0144495Y0110298D01*
X0144479Y0110239D01*
X0144466Y0110180D01*
X0144457Y0110121D01*
X0144452Y0110060D01*
X0144450Y0110000D01*
X0144450Y0108500D01*
X0144950Y0108000D01*
X0144950Y0094000D01*
X0144450Y0093500D01*
X0144450Y0092000D01*
X0144452Y0091940D01*
X0144457Y0091879D01*
X0144466Y0091820D01*
X0144479Y0091761D01*
X0144495Y0091702D01*
X0144515Y0091645D01*
X0144538Y0091590D01*
X0144565Y0091535D01*
X0144594Y0091483D01*
X0144627Y0091432D01*
X0144663Y0091383D01*
X0144701Y0091337D01*
X0144743Y0091293D01*
X0144787Y0091251D01*
X0144833Y0091213D01*
X0144882Y0091177D01*
X0144933Y0091144D01*
X0144985Y0091115D01*
X0145040Y0091088D01*
X0145095Y0091065D01*
X0145152Y0091045D01*
X0145211Y0091029D01*
X0145270Y0091016D01*
X0145329Y0091007D01*
X0145390Y0091002D01*
X0145450Y0091000D01*
X0151450Y0091000D01*
X0151510Y0091002D01*
X0151571Y0091007D01*
X0151630Y0091016D01*
X0151689Y0091029D01*
X0151748Y0091045D01*
X0151805Y0091065D01*
X0151860Y0091088D01*
X0151915Y0091115D01*
X0151967Y0091144D01*
X0152018Y0091177D01*
X0152067Y0091213D01*
X0152113Y0091251D01*
X0152157Y0091293D01*
X0152199Y0091337D01*
X0152237Y0091383D01*
X0152273Y0091432D01*
X0152306Y0091483D01*
X0152335Y0091535D01*
X0152362Y0091590D01*
X0152385Y0091645D01*
X0152405Y0091702D01*
X0152421Y0091761D01*
X0152434Y0091820D01*
X0152443Y0091879D01*
X0152448Y0091940D01*
X0152450Y0092000D01*
X0152448Y0091940D01*
X0152443Y0091879D01*
X0152434Y0091820D01*
X0152421Y0091761D01*
X0152405Y0091702D01*
X0152385Y0091645D01*
X0152362Y0091590D01*
X0152335Y0091535D01*
X0152306Y0091483D01*
X0152273Y0091432D01*
X0152237Y0091383D01*
X0152199Y0091337D01*
X0152157Y0091293D01*
X0152113Y0091251D01*
X0152067Y0091213D01*
X0152018Y0091177D01*
X0151967Y0091144D01*
X0151915Y0091115D01*
X0151860Y0091088D01*
X0151805Y0091065D01*
X0151748Y0091045D01*
X0151689Y0091029D01*
X0151630Y0091016D01*
X0151571Y0091007D01*
X0151510Y0091002D01*
X0151450Y0091000D01*
X0145450Y0091000D02*
X0145390Y0091002D01*
X0145329Y0091007D01*
X0145270Y0091016D01*
X0145211Y0091029D01*
X0145152Y0091045D01*
X0145095Y0091065D01*
X0145040Y0091088D01*
X0144985Y0091115D01*
X0144933Y0091144D01*
X0144882Y0091177D01*
X0144833Y0091213D01*
X0144787Y0091251D01*
X0144743Y0091293D01*
X0144701Y0091337D01*
X0144663Y0091383D01*
X0144627Y0091432D01*
X0144594Y0091483D01*
X0144565Y0091535D01*
X0144538Y0091590D01*
X0144515Y0091645D01*
X0144495Y0091702D01*
X0144479Y0091761D01*
X0144466Y0091820D01*
X0144457Y0091879D01*
X0144452Y0091940D01*
X0144450Y0092000D01*
X0144450Y0110000D02*
X0144452Y0110060D01*
X0144457Y0110121D01*
X0144466Y0110180D01*
X0144479Y0110239D01*
X0144495Y0110298D01*
X0144515Y0110355D01*
X0144538Y0110410D01*
X0144565Y0110465D01*
X0144594Y0110517D01*
X0144627Y0110568D01*
X0144663Y0110617D01*
X0144701Y0110663D01*
X0144743Y0110707D01*
X0144787Y0110749D01*
X0144833Y0110787D01*
X0144882Y0110823D01*
X0144933Y0110856D01*
X0144985Y0110885D01*
X0145040Y0110912D01*
X0145095Y0110935D01*
X0145152Y0110955D01*
X0145211Y0110971D01*
X0145270Y0110984D01*
X0145329Y0110993D01*
X0145390Y0110998D01*
X0145450Y0111000D01*
X0151450Y0111000D02*
X0151510Y0110998D01*
X0151571Y0110993D01*
X0151630Y0110984D01*
X0151689Y0110971D01*
X0151748Y0110955D01*
X0151805Y0110935D01*
X0151860Y0110912D01*
X0151915Y0110885D01*
X0151967Y0110856D01*
X0152018Y0110823D01*
X0152067Y0110787D01*
X0152113Y0110749D01*
X0152157Y0110707D01*
X0152199Y0110663D01*
X0152237Y0110617D01*
X0152273Y0110568D01*
X0152306Y0110517D01*
X0152335Y0110465D01*
X0152362Y0110410D01*
X0152385Y0110355D01*
X0152405Y0110298D01*
X0152421Y0110239D01*
X0152434Y0110180D01*
X0152443Y0110121D01*
X0152448Y0110060D01*
X0152450Y0110000D01*
X0151450Y0141000D02*
X0145450Y0141000D01*
X0145390Y0141002D01*
X0145329Y0141007D01*
X0145270Y0141016D01*
X0145211Y0141029D01*
X0145152Y0141045D01*
X0145095Y0141065D01*
X0145040Y0141088D01*
X0144985Y0141115D01*
X0144933Y0141144D01*
X0144882Y0141177D01*
X0144833Y0141213D01*
X0144787Y0141251D01*
X0144743Y0141293D01*
X0144701Y0141337D01*
X0144663Y0141383D01*
X0144627Y0141432D01*
X0144594Y0141483D01*
X0144565Y0141535D01*
X0144538Y0141590D01*
X0144515Y0141645D01*
X0144495Y0141702D01*
X0144479Y0141761D01*
X0144466Y0141820D01*
X0144457Y0141879D01*
X0144452Y0141940D01*
X0144450Y0142000D01*
X0144450Y0143500D01*
X0144950Y0144000D01*
X0144950Y0158000D01*
X0144450Y0158500D01*
X0144450Y0160000D01*
X0144452Y0160060D01*
X0144457Y0160121D01*
X0144466Y0160180D01*
X0144479Y0160239D01*
X0144495Y0160298D01*
X0144515Y0160355D01*
X0144538Y0160410D01*
X0144565Y0160465D01*
X0144594Y0160517D01*
X0144627Y0160568D01*
X0144663Y0160617D01*
X0144701Y0160663D01*
X0144743Y0160707D01*
X0144787Y0160749D01*
X0144833Y0160787D01*
X0144882Y0160823D01*
X0144933Y0160856D01*
X0144985Y0160885D01*
X0145040Y0160912D01*
X0145095Y0160935D01*
X0145152Y0160955D01*
X0145211Y0160971D01*
X0145270Y0160984D01*
X0145329Y0160993D01*
X0145390Y0160998D01*
X0145450Y0161000D01*
X0151450Y0161000D01*
X0151510Y0160998D01*
X0151571Y0160993D01*
X0151630Y0160984D01*
X0151689Y0160971D01*
X0151748Y0160955D01*
X0151805Y0160935D01*
X0151860Y0160912D01*
X0151915Y0160885D01*
X0151967Y0160856D01*
X0152018Y0160823D01*
X0152067Y0160787D01*
X0152113Y0160749D01*
X0152157Y0160707D01*
X0152199Y0160663D01*
X0152237Y0160617D01*
X0152273Y0160568D01*
X0152306Y0160517D01*
X0152335Y0160465D01*
X0152362Y0160410D01*
X0152385Y0160355D01*
X0152405Y0160298D01*
X0152421Y0160239D01*
X0152434Y0160180D01*
X0152443Y0160121D01*
X0152448Y0160060D01*
X0152450Y0160000D01*
X0152450Y0158500D01*
X0151950Y0158000D01*
X0151950Y0144000D01*
X0152450Y0143500D01*
X0152450Y0142000D01*
X0152448Y0141940D01*
X0152443Y0141879D01*
X0152434Y0141820D01*
X0152421Y0141761D01*
X0152405Y0141702D01*
X0152385Y0141645D01*
X0152362Y0141590D01*
X0152335Y0141535D01*
X0152306Y0141483D01*
X0152273Y0141432D01*
X0152237Y0141383D01*
X0152199Y0141337D01*
X0152157Y0141293D01*
X0152113Y0141251D01*
X0152067Y0141213D01*
X0152018Y0141177D01*
X0151967Y0141144D01*
X0151915Y0141115D01*
X0151860Y0141088D01*
X0151805Y0141065D01*
X0151748Y0141045D01*
X0151689Y0141029D01*
X0151630Y0141016D01*
X0151571Y0141007D01*
X0151510Y0141002D01*
X0151450Y0141000D01*
X0151510Y0141002D01*
X0151571Y0141007D01*
X0151630Y0141016D01*
X0151689Y0141029D01*
X0151748Y0141045D01*
X0151805Y0141065D01*
X0151860Y0141088D01*
X0151915Y0141115D01*
X0151967Y0141144D01*
X0152018Y0141177D01*
X0152067Y0141213D01*
X0152113Y0141251D01*
X0152157Y0141293D01*
X0152199Y0141337D01*
X0152237Y0141383D01*
X0152273Y0141432D01*
X0152306Y0141483D01*
X0152335Y0141535D01*
X0152362Y0141590D01*
X0152385Y0141645D01*
X0152405Y0141702D01*
X0152421Y0141761D01*
X0152434Y0141820D01*
X0152443Y0141879D01*
X0152448Y0141940D01*
X0152450Y0142000D01*
X0145450Y0141000D02*
X0145390Y0141002D01*
X0145329Y0141007D01*
X0145270Y0141016D01*
X0145211Y0141029D01*
X0145152Y0141045D01*
X0145095Y0141065D01*
X0145040Y0141088D01*
X0144985Y0141115D01*
X0144933Y0141144D01*
X0144882Y0141177D01*
X0144833Y0141213D01*
X0144787Y0141251D01*
X0144743Y0141293D01*
X0144701Y0141337D01*
X0144663Y0141383D01*
X0144627Y0141432D01*
X0144594Y0141483D01*
X0144565Y0141535D01*
X0144538Y0141590D01*
X0144515Y0141645D01*
X0144495Y0141702D01*
X0144479Y0141761D01*
X0144466Y0141820D01*
X0144457Y0141879D01*
X0144452Y0141940D01*
X0144450Y0142000D01*
X0128450Y0148000D02*
X0128450Y0154000D01*
X0128448Y0154060D01*
X0128443Y0154121D01*
X0128434Y0154180D01*
X0128421Y0154239D01*
X0128405Y0154298D01*
X0128385Y0154355D01*
X0128362Y0154410D01*
X0128335Y0154465D01*
X0128306Y0154517D01*
X0128273Y0154568D01*
X0128237Y0154617D01*
X0128199Y0154663D01*
X0128157Y0154707D01*
X0128113Y0154749D01*
X0128067Y0154787D01*
X0128018Y0154823D01*
X0127967Y0154856D01*
X0127915Y0154885D01*
X0127860Y0154912D01*
X0127805Y0154935D01*
X0127748Y0154955D01*
X0127689Y0154971D01*
X0127630Y0154984D01*
X0127571Y0154993D01*
X0127510Y0154998D01*
X0127450Y0155000D01*
X0125950Y0155000D01*
X0125450Y0154500D01*
X0111450Y0154500D01*
X0110950Y0155000D01*
X0109450Y0155000D01*
X0109390Y0154998D01*
X0109329Y0154993D01*
X0109270Y0154984D01*
X0109211Y0154971D01*
X0109152Y0154955D01*
X0109095Y0154935D01*
X0109040Y0154912D01*
X0108985Y0154885D01*
X0108933Y0154856D01*
X0108882Y0154823D01*
X0108833Y0154787D01*
X0108787Y0154749D01*
X0108743Y0154707D01*
X0108701Y0154663D01*
X0108663Y0154617D01*
X0108627Y0154568D01*
X0108594Y0154517D01*
X0108565Y0154465D01*
X0108538Y0154410D01*
X0108515Y0154355D01*
X0108495Y0154298D01*
X0108479Y0154239D01*
X0108466Y0154180D01*
X0108457Y0154121D01*
X0108452Y0154060D01*
X0108450Y0154000D01*
X0108450Y0148000D01*
X0108452Y0147940D01*
X0108457Y0147879D01*
X0108466Y0147820D01*
X0108479Y0147761D01*
X0108495Y0147702D01*
X0108515Y0147645D01*
X0108538Y0147590D01*
X0108565Y0147535D01*
X0108594Y0147483D01*
X0108627Y0147432D01*
X0108663Y0147383D01*
X0108701Y0147337D01*
X0108743Y0147293D01*
X0108787Y0147251D01*
X0108833Y0147213D01*
X0108882Y0147177D01*
X0108933Y0147144D01*
X0108985Y0147115D01*
X0109040Y0147088D01*
X0109095Y0147065D01*
X0109152Y0147045D01*
X0109211Y0147029D01*
X0109270Y0147016D01*
X0109329Y0147007D01*
X0109390Y0147002D01*
X0109450Y0147000D01*
X0110950Y0147000D01*
X0111450Y0147500D01*
X0125450Y0147500D01*
X0125950Y0147000D01*
X0127450Y0147000D01*
X0127510Y0147002D01*
X0127571Y0147007D01*
X0127630Y0147016D01*
X0127689Y0147029D01*
X0127748Y0147045D01*
X0127805Y0147065D01*
X0127860Y0147088D01*
X0127915Y0147115D01*
X0127967Y0147144D01*
X0128018Y0147177D01*
X0128067Y0147213D01*
X0128113Y0147251D01*
X0128157Y0147293D01*
X0128199Y0147337D01*
X0128237Y0147383D01*
X0128273Y0147432D01*
X0128306Y0147483D01*
X0128335Y0147535D01*
X0128362Y0147590D01*
X0128385Y0147645D01*
X0128405Y0147702D01*
X0128421Y0147761D01*
X0128434Y0147820D01*
X0128443Y0147879D01*
X0128448Y0147940D01*
X0128450Y0148000D01*
X0128448Y0147940D01*
X0128443Y0147879D01*
X0128434Y0147820D01*
X0128421Y0147761D01*
X0128405Y0147702D01*
X0128385Y0147645D01*
X0128362Y0147590D01*
X0128335Y0147535D01*
X0128306Y0147483D01*
X0128273Y0147432D01*
X0128237Y0147383D01*
X0128199Y0147337D01*
X0128157Y0147293D01*
X0128113Y0147251D01*
X0128067Y0147213D01*
X0128018Y0147177D01*
X0127967Y0147144D01*
X0127915Y0147115D01*
X0127860Y0147088D01*
X0127805Y0147065D01*
X0127748Y0147045D01*
X0127689Y0147029D01*
X0127630Y0147016D01*
X0127571Y0147007D01*
X0127510Y0147002D01*
X0127450Y0147000D01*
X0128450Y0154000D02*
X0128448Y0154060D01*
X0128443Y0154121D01*
X0128434Y0154180D01*
X0128421Y0154239D01*
X0128405Y0154298D01*
X0128385Y0154355D01*
X0128362Y0154410D01*
X0128335Y0154465D01*
X0128306Y0154517D01*
X0128273Y0154568D01*
X0128237Y0154617D01*
X0128199Y0154663D01*
X0128157Y0154707D01*
X0128113Y0154749D01*
X0128067Y0154787D01*
X0128018Y0154823D01*
X0127967Y0154856D01*
X0127915Y0154885D01*
X0127860Y0154912D01*
X0127805Y0154935D01*
X0127748Y0154955D01*
X0127689Y0154971D01*
X0127630Y0154984D01*
X0127571Y0154993D01*
X0127510Y0154998D01*
X0127450Y0155000D01*
X0109450Y0155000D02*
X0109390Y0154998D01*
X0109329Y0154993D01*
X0109270Y0154984D01*
X0109211Y0154971D01*
X0109152Y0154955D01*
X0109095Y0154935D01*
X0109040Y0154912D01*
X0108985Y0154885D01*
X0108933Y0154856D01*
X0108882Y0154823D01*
X0108833Y0154787D01*
X0108787Y0154749D01*
X0108743Y0154707D01*
X0108701Y0154663D01*
X0108663Y0154617D01*
X0108627Y0154568D01*
X0108594Y0154517D01*
X0108565Y0154465D01*
X0108538Y0154410D01*
X0108515Y0154355D01*
X0108495Y0154298D01*
X0108479Y0154239D01*
X0108466Y0154180D01*
X0108457Y0154121D01*
X0108452Y0154060D01*
X0108450Y0154000D01*
X0108450Y0148000D02*
X0108452Y0147940D01*
X0108457Y0147879D01*
X0108466Y0147820D01*
X0108479Y0147761D01*
X0108495Y0147702D01*
X0108515Y0147645D01*
X0108538Y0147590D01*
X0108565Y0147535D01*
X0108594Y0147483D01*
X0108627Y0147432D01*
X0108663Y0147383D01*
X0108701Y0147337D01*
X0108743Y0147293D01*
X0108787Y0147251D01*
X0108833Y0147213D01*
X0108882Y0147177D01*
X0108933Y0147144D01*
X0108985Y0147115D01*
X0109040Y0147088D01*
X0109095Y0147065D01*
X0109152Y0147045D01*
X0109211Y0147029D01*
X0109270Y0147016D01*
X0109329Y0147007D01*
X0109390Y0147002D01*
X0109450Y0147000D01*
X0144450Y0160000D02*
X0144452Y0160060D01*
X0144457Y0160121D01*
X0144466Y0160180D01*
X0144479Y0160239D01*
X0144495Y0160298D01*
X0144515Y0160355D01*
X0144538Y0160410D01*
X0144565Y0160465D01*
X0144594Y0160517D01*
X0144627Y0160568D01*
X0144663Y0160617D01*
X0144701Y0160663D01*
X0144743Y0160707D01*
X0144787Y0160749D01*
X0144833Y0160787D01*
X0144882Y0160823D01*
X0144933Y0160856D01*
X0144985Y0160885D01*
X0145040Y0160912D01*
X0145095Y0160935D01*
X0145152Y0160955D01*
X0145211Y0160971D01*
X0145270Y0160984D01*
X0145329Y0160993D01*
X0145390Y0160998D01*
X0145450Y0161000D01*
X0151450Y0161000D02*
X0151510Y0160998D01*
X0151571Y0160993D01*
X0151630Y0160984D01*
X0151689Y0160971D01*
X0151748Y0160955D01*
X0151805Y0160935D01*
X0151860Y0160912D01*
X0151915Y0160885D01*
X0151967Y0160856D01*
X0152018Y0160823D01*
X0152067Y0160787D01*
X0152113Y0160749D01*
X0152157Y0160707D01*
X0152199Y0160663D01*
X0152237Y0160617D01*
X0152273Y0160568D01*
X0152306Y0160517D01*
X0152335Y0160465D01*
X0152362Y0160410D01*
X0152385Y0160355D01*
X0152405Y0160298D01*
X0152421Y0160239D01*
X0152434Y0160180D01*
X0152443Y0160121D01*
X0152448Y0160060D01*
X0152450Y0160000D01*
X0174450Y0153500D02*
X0174450Y0152000D01*
X0174452Y0151940D01*
X0174457Y0151879D01*
X0174466Y0151820D01*
X0174479Y0151761D01*
X0174495Y0151702D01*
X0174515Y0151645D01*
X0174538Y0151590D01*
X0174565Y0151535D01*
X0174594Y0151483D01*
X0174627Y0151432D01*
X0174663Y0151383D01*
X0174701Y0151337D01*
X0174743Y0151293D01*
X0174787Y0151251D01*
X0174833Y0151213D01*
X0174882Y0151177D01*
X0174933Y0151144D01*
X0174985Y0151115D01*
X0175040Y0151088D01*
X0175095Y0151065D01*
X0175152Y0151045D01*
X0175211Y0151029D01*
X0175270Y0151016D01*
X0175329Y0151007D01*
X0175390Y0151002D01*
X0175450Y0151000D01*
X0181450Y0151000D01*
X0181510Y0151002D01*
X0181571Y0151007D01*
X0181630Y0151016D01*
X0181689Y0151029D01*
X0181748Y0151045D01*
X0181805Y0151065D01*
X0181860Y0151088D01*
X0181915Y0151115D01*
X0181967Y0151144D01*
X0182018Y0151177D01*
X0182067Y0151213D01*
X0182113Y0151251D01*
X0182157Y0151293D01*
X0182199Y0151337D01*
X0182237Y0151383D01*
X0182273Y0151432D01*
X0182306Y0151483D01*
X0182335Y0151535D01*
X0182362Y0151590D01*
X0182385Y0151645D01*
X0182405Y0151702D01*
X0182421Y0151761D01*
X0182434Y0151820D01*
X0182443Y0151879D01*
X0182448Y0151940D01*
X0182450Y0152000D01*
X0182450Y0153500D01*
X0181950Y0154000D01*
X0181950Y0168000D01*
X0182450Y0168500D01*
X0182450Y0170000D01*
X0182448Y0170060D01*
X0182443Y0170121D01*
X0182434Y0170180D01*
X0182421Y0170239D01*
X0182405Y0170298D01*
X0182385Y0170355D01*
X0182362Y0170410D01*
X0182335Y0170465D01*
X0182306Y0170517D01*
X0182273Y0170568D01*
X0182237Y0170617D01*
X0182199Y0170663D01*
X0182157Y0170707D01*
X0182113Y0170749D01*
X0182067Y0170787D01*
X0182018Y0170823D01*
X0181967Y0170856D01*
X0181915Y0170885D01*
X0181860Y0170912D01*
X0181805Y0170935D01*
X0181748Y0170955D01*
X0181689Y0170971D01*
X0181630Y0170984D01*
X0181571Y0170993D01*
X0181510Y0170998D01*
X0181450Y0171000D01*
X0175450Y0171000D01*
X0175390Y0170998D01*
X0175329Y0170993D01*
X0175270Y0170984D01*
X0175211Y0170971D01*
X0175152Y0170955D01*
X0175095Y0170935D01*
X0175040Y0170912D01*
X0174985Y0170885D01*
X0174933Y0170856D01*
X0174882Y0170823D01*
X0174833Y0170787D01*
X0174787Y0170749D01*
X0174743Y0170707D01*
X0174701Y0170663D01*
X0174663Y0170617D01*
X0174627Y0170568D01*
X0174594Y0170517D01*
X0174565Y0170465D01*
X0174538Y0170410D01*
X0174515Y0170355D01*
X0174495Y0170298D01*
X0174479Y0170239D01*
X0174466Y0170180D01*
X0174457Y0170121D01*
X0174452Y0170060D01*
X0174450Y0170000D01*
X0174450Y0168500D01*
X0174950Y0168000D01*
X0174950Y0154000D01*
X0174450Y0153500D01*
X0174450Y0152000D02*
X0174452Y0151940D01*
X0174457Y0151879D01*
X0174466Y0151820D01*
X0174479Y0151761D01*
X0174495Y0151702D01*
X0174515Y0151645D01*
X0174538Y0151590D01*
X0174565Y0151535D01*
X0174594Y0151483D01*
X0174627Y0151432D01*
X0174663Y0151383D01*
X0174701Y0151337D01*
X0174743Y0151293D01*
X0174787Y0151251D01*
X0174833Y0151213D01*
X0174882Y0151177D01*
X0174933Y0151144D01*
X0174985Y0151115D01*
X0175040Y0151088D01*
X0175095Y0151065D01*
X0175152Y0151045D01*
X0175211Y0151029D01*
X0175270Y0151016D01*
X0175329Y0151007D01*
X0175390Y0151002D01*
X0175450Y0151000D01*
X0181450Y0151000D02*
X0181510Y0151002D01*
X0181571Y0151007D01*
X0181630Y0151016D01*
X0181689Y0151029D01*
X0181748Y0151045D01*
X0181805Y0151065D01*
X0181860Y0151088D01*
X0181915Y0151115D01*
X0181967Y0151144D01*
X0182018Y0151177D01*
X0182067Y0151213D01*
X0182113Y0151251D01*
X0182157Y0151293D01*
X0182199Y0151337D01*
X0182237Y0151383D01*
X0182273Y0151432D01*
X0182306Y0151483D01*
X0182335Y0151535D01*
X0182362Y0151590D01*
X0182385Y0151645D01*
X0182405Y0151702D01*
X0182421Y0151761D01*
X0182434Y0151820D01*
X0182443Y0151879D01*
X0182448Y0151940D01*
X0182450Y0152000D01*
X0182450Y0170000D02*
X0182448Y0170060D01*
X0182443Y0170121D01*
X0182434Y0170180D01*
X0182421Y0170239D01*
X0182405Y0170298D01*
X0182385Y0170355D01*
X0182362Y0170410D01*
X0182335Y0170465D01*
X0182306Y0170517D01*
X0182273Y0170568D01*
X0182237Y0170617D01*
X0182199Y0170663D01*
X0182157Y0170707D01*
X0182113Y0170749D01*
X0182067Y0170787D01*
X0182018Y0170823D01*
X0181967Y0170856D01*
X0181915Y0170885D01*
X0181860Y0170912D01*
X0181805Y0170935D01*
X0181748Y0170955D01*
X0181689Y0170971D01*
X0181630Y0170984D01*
X0181571Y0170993D01*
X0181510Y0170998D01*
X0181450Y0171000D01*
X0175450Y0171000D02*
X0175390Y0170998D01*
X0175329Y0170993D01*
X0175270Y0170984D01*
X0175211Y0170971D01*
X0175152Y0170955D01*
X0175095Y0170935D01*
X0175040Y0170912D01*
X0174985Y0170885D01*
X0174933Y0170856D01*
X0174882Y0170823D01*
X0174833Y0170787D01*
X0174787Y0170749D01*
X0174743Y0170707D01*
X0174701Y0170663D01*
X0174663Y0170617D01*
X0174627Y0170568D01*
X0174594Y0170517D01*
X0174565Y0170465D01*
X0174538Y0170410D01*
X0174515Y0170355D01*
X0174495Y0170298D01*
X0174479Y0170239D01*
X0174466Y0170180D01*
X0174457Y0170121D01*
X0174452Y0170060D01*
X0174450Y0170000D01*
X0229450Y0105000D02*
X0230950Y0105000D01*
X0231450Y0104500D01*
X0245450Y0104500D01*
X0245950Y0105000D01*
X0247450Y0105000D01*
X0247510Y0104998D01*
X0247571Y0104993D01*
X0247630Y0104984D01*
X0247689Y0104971D01*
X0247748Y0104955D01*
X0247805Y0104935D01*
X0247860Y0104912D01*
X0247915Y0104885D01*
X0247967Y0104856D01*
X0248018Y0104823D01*
X0248067Y0104787D01*
X0248113Y0104749D01*
X0248157Y0104707D01*
X0248199Y0104663D01*
X0248237Y0104617D01*
X0248273Y0104568D01*
X0248306Y0104517D01*
X0248335Y0104465D01*
X0248362Y0104410D01*
X0248385Y0104355D01*
X0248405Y0104298D01*
X0248421Y0104239D01*
X0248434Y0104180D01*
X0248443Y0104121D01*
X0248448Y0104060D01*
X0248450Y0104000D01*
X0248450Y0098000D01*
X0248448Y0097940D01*
X0248443Y0097879D01*
X0248434Y0097820D01*
X0248421Y0097761D01*
X0248405Y0097702D01*
X0248385Y0097645D01*
X0248362Y0097590D01*
X0248335Y0097535D01*
X0248306Y0097483D01*
X0248273Y0097432D01*
X0248237Y0097383D01*
X0248199Y0097337D01*
X0248157Y0097293D01*
X0248113Y0097251D01*
X0248067Y0097213D01*
X0248018Y0097177D01*
X0247967Y0097144D01*
X0247915Y0097115D01*
X0247860Y0097088D01*
X0247805Y0097065D01*
X0247748Y0097045D01*
X0247689Y0097029D01*
X0247630Y0097016D01*
X0247571Y0097007D01*
X0247510Y0097002D01*
X0247450Y0097000D01*
X0245950Y0097000D01*
X0245450Y0097500D01*
X0231450Y0097500D01*
X0230950Y0097000D01*
X0229450Y0097000D01*
X0229390Y0097002D01*
X0229329Y0097007D01*
X0229270Y0097016D01*
X0229211Y0097029D01*
X0229152Y0097045D01*
X0229095Y0097065D01*
X0229040Y0097088D01*
X0228985Y0097115D01*
X0228933Y0097144D01*
X0228882Y0097177D01*
X0228833Y0097213D01*
X0228787Y0097251D01*
X0228743Y0097293D01*
X0228701Y0097337D01*
X0228663Y0097383D01*
X0228627Y0097432D01*
X0228594Y0097483D01*
X0228565Y0097535D01*
X0228538Y0097590D01*
X0228515Y0097645D01*
X0228495Y0097702D01*
X0228479Y0097761D01*
X0228466Y0097820D01*
X0228457Y0097879D01*
X0228452Y0097940D01*
X0228450Y0098000D01*
X0228450Y0104000D01*
X0228452Y0104060D01*
X0228457Y0104121D01*
X0228466Y0104180D01*
X0228479Y0104239D01*
X0228495Y0104298D01*
X0228515Y0104355D01*
X0228538Y0104410D01*
X0228565Y0104465D01*
X0228594Y0104517D01*
X0228627Y0104568D01*
X0228663Y0104617D01*
X0228701Y0104663D01*
X0228743Y0104707D01*
X0228787Y0104749D01*
X0228833Y0104787D01*
X0228882Y0104823D01*
X0228933Y0104856D01*
X0228985Y0104885D01*
X0229040Y0104912D01*
X0229095Y0104935D01*
X0229152Y0104955D01*
X0229211Y0104971D01*
X0229270Y0104984D01*
X0229329Y0104993D01*
X0229390Y0104998D01*
X0229450Y0105000D01*
X0229390Y0104998D01*
X0229329Y0104993D01*
X0229270Y0104984D01*
X0229211Y0104971D01*
X0229152Y0104955D01*
X0229095Y0104935D01*
X0229040Y0104912D01*
X0228985Y0104885D01*
X0228933Y0104856D01*
X0228882Y0104823D01*
X0228833Y0104787D01*
X0228787Y0104749D01*
X0228743Y0104707D01*
X0228701Y0104663D01*
X0228663Y0104617D01*
X0228627Y0104568D01*
X0228594Y0104517D01*
X0228565Y0104465D01*
X0228538Y0104410D01*
X0228515Y0104355D01*
X0228495Y0104298D01*
X0228479Y0104239D01*
X0228466Y0104180D01*
X0228457Y0104121D01*
X0228452Y0104060D01*
X0228450Y0104000D01*
X0228450Y0098000D02*
X0228452Y0097940D01*
X0228457Y0097879D01*
X0228466Y0097820D01*
X0228479Y0097761D01*
X0228495Y0097702D01*
X0228515Y0097645D01*
X0228538Y0097590D01*
X0228565Y0097535D01*
X0228594Y0097483D01*
X0228627Y0097432D01*
X0228663Y0097383D01*
X0228701Y0097337D01*
X0228743Y0097293D01*
X0228787Y0097251D01*
X0228833Y0097213D01*
X0228882Y0097177D01*
X0228933Y0097144D01*
X0228985Y0097115D01*
X0229040Y0097088D01*
X0229095Y0097065D01*
X0229152Y0097045D01*
X0229211Y0097029D01*
X0229270Y0097016D01*
X0229329Y0097007D01*
X0229390Y0097002D01*
X0229450Y0097000D01*
X0247450Y0097000D02*
X0247510Y0097002D01*
X0247571Y0097007D01*
X0247630Y0097016D01*
X0247689Y0097029D01*
X0247748Y0097045D01*
X0247805Y0097065D01*
X0247860Y0097088D01*
X0247915Y0097115D01*
X0247967Y0097144D01*
X0248018Y0097177D01*
X0248067Y0097213D01*
X0248113Y0097251D01*
X0248157Y0097293D01*
X0248199Y0097337D01*
X0248237Y0097383D01*
X0248273Y0097432D01*
X0248306Y0097483D01*
X0248335Y0097535D01*
X0248362Y0097590D01*
X0248385Y0097645D01*
X0248405Y0097702D01*
X0248421Y0097761D01*
X0248434Y0097820D01*
X0248443Y0097879D01*
X0248448Y0097940D01*
X0248450Y0098000D01*
X0248450Y0104000D02*
X0248448Y0104060D01*
X0248443Y0104121D01*
X0248434Y0104180D01*
X0248421Y0104239D01*
X0248405Y0104298D01*
X0248385Y0104355D01*
X0248362Y0104410D01*
X0248335Y0104465D01*
X0248306Y0104517D01*
X0248273Y0104568D01*
X0248237Y0104617D01*
X0248199Y0104663D01*
X0248157Y0104707D01*
X0248113Y0104749D01*
X0248067Y0104787D01*
X0248018Y0104823D01*
X0247967Y0104856D01*
X0247915Y0104885D01*
X0247860Y0104912D01*
X0247805Y0104935D01*
X0247748Y0104955D01*
X0247689Y0104971D01*
X0247630Y0104984D01*
X0247571Y0104993D01*
X0247510Y0104998D01*
X0247450Y0105000D01*
X0322860Y0111000D02*
X0322862Y0111149D01*
X0322868Y0111299D01*
X0322878Y0111448D01*
X0322892Y0111597D01*
X0322910Y0111745D01*
X0322932Y0111893D01*
X0322958Y0112040D01*
X0322987Y0112187D01*
X0323021Y0112332D01*
X0323059Y0112477D01*
X0323100Y0112620D01*
X0323145Y0112763D01*
X0323194Y0112904D01*
X0323247Y0113044D01*
X0323304Y0113182D01*
X0323364Y0113319D01*
X0323428Y0113454D01*
X0323495Y0113588D01*
X0323566Y0113719D01*
X0323640Y0113849D01*
X0323718Y0113976D01*
X0323799Y0114102D01*
X0323884Y0114225D01*
X0323972Y0114346D01*
X0324063Y0114464D01*
X0324157Y0114580D01*
X0324254Y0114694D01*
X0324355Y0114805D01*
X0324458Y0114913D01*
X0324564Y0115018D01*
X0324673Y0115121D01*
X0324784Y0115220D01*
X0324898Y0115317D01*
X0325015Y0115410D01*
X0325134Y0115500D01*
X0325256Y0115587D01*
X0325379Y0115671D01*
X0325505Y0115752D01*
X0325633Y0115829D01*
X0325764Y0115902D01*
X0325896Y0115972D01*
X0326029Y0116039D01*
X0326165Y0116102D01*
X0326302Y0116161D01*
X0326441Y0116216D01*
X0326581Y0116268D01*
X0326723Y0116316D01*
X0326865Y0116361D01*
X0327009Y0116401D01*
X0327154Y0116438D01*
X0327300Y0116470D01*
X0327447Y0116499D01*
X0327594Y0116524D01*
X0327742Y0116545D01*
X0327890Y0116562D01*
X0328039Y0116575D01*
X0328189Y0116584D01*
X0328338Y0116589D01*
X0328487Y0116590D01*
X0328637Y0116587D01*
X0328786Y0116580D01*
X0328935Y0116569D01*
X0329084Y0116554D01*
X0329232Y0116535D01*
X0329380Y0116512D01*
X0329527Y0116485D01*
X0329673Y0116455D01*
X0329818Y0116420D01*
X0329963Y0116381D01*
X0330106Y0116339D01*
X0330248Y0116293D01*
X0330389Y0116243D01*
X0330529Y0116189D01*
X0330667Y0116132D01*
X0330803Y0116071D01*
X0330938Y0116006D01*
X0331071Y0115938D01*
X0331202Y0115866D01*
X0331331Y0115790D01*
X0331458Y0115712D01*
X0331583Y0115630D01*
X0331705Y0115544D01*
X0331826Y0115456D01*
X0331944Y0115364D01*
X0332059Y0115269D01*
X0332172Y0115171D01*
X0332282Y0115070D01*
X0332389Y0114966D01*
X0332494Y0114859D01*
X0332596Y0114750D01*
X0332695Y0114638D01*
X0332790Y0114523D01*
X0332883Y0114405D01*
X0332972Y0114286D01*
X0333059Y0114164D01*
X0333142Y0114039D01*
X0333221Y0113913D01*
X0333297Y0113784D01*
X0333370Y0113654D01*
X0333439Y0113521D01*
X0333505Y0113387D01*
X0333567Y0113251D01*
X0333625Y0113113D01*
X0333680Y0112974D01*
X0333731Y0112834D01*
X0333778Y0112692D01*
X0333821Y0112549D01*
X0333861Y0112405D01*
X0333896Y0112259D01*
X0333928Y0112113D01*
X0333956Y0111967D01*
X0333980Y0111819D01*
X0334000Y0111671D01*
X0334016Y0111522D01*
X0334028Y0111373D01*
X0334036Y0111224D01*
X0334040Y0111075D01*
X0334040Y0110925D01*
X0334036Y0110776D01*
X0334028Y0110627D01*
X0334016Y0110478D01*
X0334000Y0110329D01*
X0333980Y0110181D01*
X0333956Y0110033D01*
X0333928Y0109887D01*
X0333896Y0109741D01*
X0333861Y0109595D01*
X0333821Y0109451D01*
X0333778Y0109308D01*
X0333731Y0109166D01*
X0333680Y0109026D01*
X0333625Y0108887D01*
X0333567Y0108749D01*
X0333505Y0108613D01*
X0333439Y0108479D01*
X0333370Y0108346D01*
X0333297Y0108216D01*
X0333221Y0108087D01*
X0333142Y0107961D01*
X0333059Y0107836D01*
X0332972Y0107714D01*
X0332883Y0107595D01*
X0332790Y0107477D01*
X0332695Y0107362D01*
X0332596Y0107250D01*
X0332494Y0107141D01*
X0332389Y0107034D01*
X0332282Y0106930D01*
X0332172Y0106829D01*
X0332059Y0106731D01*
X0331944Y0106636D01*
X0331826Y0106544D01*
X0331705Y0106456D01*
X0331583Y0106370D01*
X0331458Y0106288D01*
X0331331Y0106210D01*
X0331202Y0106134D01*
X0331071Y0106062D01*
X0330938Y0105994D01*
X0330803Y0105929D01*
X0330667Y0105868D01*
X0330529Y0105811D01*
X0330389Y0105757D01*
X0330248Y0105707D01*
X0330106Y0105661D01*
X0329963Y0105619D01*
X0329818Y0105580D01*
X0329673Y0105545D01*
X0329527Y0105515D01*
X0329380Y0105488D01*
X0329232Y0105465D01*
X0329084Y0105446D01*
X0328935Y0105431D01*
X0328786Y0105420D01*
X0328637Y0105413D01*
X0328487Y0105410D01*
X0328338Y0105411D01*
X0328189Y0105416D01*
X0328039Y0105425D01*
X0327890Y0105438D01*
X0327742Y0105455D01*
X0327594Y0105476D01*
X0327447Y0105501D01*
X0327300Y0105530D01*
X0327154Y0105562D01*
X0327009Y0105599D01*
X0326865Y0105639D01*
X0326723Y0105684D01*
X0326581Y0105732D01*
X0326441Y0105784D01*
X0326302Y0105839D01*
X0326165Y0105898D01*
X0326029Y0105961D01*
X0325896Y0106028D01*
X0325764Y0106098D01*
X0325633Y0106171D01*
X0325505Y0106248D01*
X0325379Y0106329D01*
X0325256Y0106413D01*
X0325134Y0106500D01*
X0325015Y0106590D01*
X0324898Y0106683D01*
X0324784Y0106780D01*
X0324673Y0106879D01*
X0324564Y0106982D01*
X0324458Y0107087D01*
X0324355Y0107195D01*
X0324254Y0107306D01*
X0324157Y0107420D01*
X0324063Y0107536D01*
X0323972Y0107654D01*
X0323884Y0107775D01*
X0323799Y0107898D01*
X0323718Y0108024D01*
X0323640Y0108151D01*
X0323566Y0108281D01*
X0323495Y0108412D01*
X0323428Y0108546D01*
X0323364Y0108681D01*
X0323304Y0108818D01*
X0323247Y0108956D01*
X0323194Y0109096D01*
X0323145Y0109237D01*
X0323100Y0109380D01*
X0323059Y0109523D01*
X0323021Y0109668D01*
X0322987Y0109813D01*
X0322958Y0109960D01*
X0322932Y0110107D01*
X0322910Y0110255D01*
X0322892Y0110403D01*
X0322878Y0110552D01*
X0322868Y0110701D01*
X0322862Y0110851D01*
X0322860Y0111000D01*
X0313450Y0111000D02*
X0313455Y0111368D01*
X0313468Y0111736D01*
X0313491Y0112103D01*
X0313522Y0112470D01*
X0313563Y0112836D01*
X0313612Y0113201D01*
X0313671Y0113564D01*
X0313738Y0113926D01*
X0313814Y0114287D01*
X0313900Y0114645D01*
X0313993Y0115001D01*
X0314096Y0115354D01*
X0314207Y0115705D01*
X0314327Y0116053D01*
X0314455Y0116398D01*
X0314592Y0116740D01*
X0314737Y0117079D01*
X0314890Y0117413D01*
X0315052Y0117744D01*
X0315221Y0118071D01*
X0315399Y0118393D01*
X0315584Y0118712D01*
X0315777Y0119025D01*
X0315978Y0119334D01*
X0316186Y0119637D01*
X0316402Y0119935D01*
X0316625Y0120228D01*
X0316855Y0120516D01*
X0317092Y0120798D01*
X0317336Y0121073D01*
X0317586Y0121343D01*
X0317843Y0121607D01*
X0318107Y0121864D01*
X0318377Y0122114D01*
X0318652Y0122358D01*
X0318934Y0122595D01*
X0319222Y0122825D01*
X0319515Y0123048D01*
X0319813Y0123264D01*
X0320116Y0123472D01*
X0320425Y0123673D01*
X0320738Y0123866D01*
X0321057Y0124051D01*
X0321379Y0124229D01*
X0321706Y0124398D01*
X0322037Y0124560D01*
X0322371Y0124713D01*
X0322710Y0124858D01*
X0323052Y0124995D01*
X0323397Y0125123D01*
X0323745Y0125243D01*
X0324096Y0125354D01*
X0324449Y0125457D01*
X0324805Y0125550D01*
X0325163Y0125636D01*
X0325524Y0125712D01*
X0325886Y0125779D01*
X0326249Y0125838D01*
X0326614Y0125887D01*
X0326980Y0125928D01*
X0327347Y0125959D01*
X0327714Y0125982D01*
X0328082Y0125995D01*
X0328450Y0126000D01*
X0328818Y0125995D01*
X0329186Y0125982D01*
X0329553Y0125959D01*
X0329920Y0125928D01*
X0330286Y0125887D01*
X0330651Y0125838D01*
X0331014Y0125779D01*
X0331376Y0125712D01*
X0331737Y0125636D01*
X0332095Y0125550D01*
X0332451Y0125457D01*
X0332804Y0125354D01*
X0333155Y0125243D01*
X0333503Y0125123D01*
X0333848Y0124995D01*
X0334190Y0124858D01*
X0334529Y0124713D01*
X0334863Y0124560D01*
X0335194Y0124398D01*
X0335521Y0124229D01*
X0335843Y0124051D01*
X0336162Y0123866D01*
X0336475Y0123673D01*
X0336784Y0123472D01*
X0337087Y0123264D01*
X0337385Y0123048D01*
X0337678Y0122825D01*
X0337966Y0122595D01*
X0338248Y0122358D01*
X0338523Y0122114D01*
X0338793Y0121864D01*
X0339057Y0121607D01*
X0339314Y0121343D01*
X0339564Y0121073D01*
X0339808Y0120798D01*
X0340045Y0120516D01*
X0340275Y0120228D01*
X0340498Y0119935D01*
X0340714Y0119637D01*
X0340922Y0119334D01*
X0341123Y0119025D01*
X0341316Y0118712D01*
X0341501Y0118393D01*
X0341679Y0118071D01*
X0341848Y0117744D01*
X0342010Y0117413D01*
X0342163Y0117079D01*
X0342308Y0116740D01*
X0342445Y0116398D01*
X0342573Y0116053D01*
X0342693Y0115705D01*
X0342804Y0115354D01*
X0342907Y0115001D01*
X0343000Y0114645D01*
X0343086Y0114287D01*
X0343162Y0113926D01*
X0343229Y0113564D01*
X0343288Y0113201D01*
X0343337Y0112836D01*
X0343378Y0112470D01*
X0343409Y0112103D01*
X0343432Y0111736D01*
X0343445Y0111368D01*
X0343450Y0111000D01*
X0343445Y0110632D01*
X0343432Y0110264D01*
X0343409Y0109897D01*
X0343378Y0109530D01*
X0343337Y0109164D01*
X0343288Y0108799D01*
X0343229Y0108436D01*
X0343162Y0108074D01*
X0343086Y0107713D01*
X0343000Y0107355D01*
X0342907Y0106999D01*
X0342804Y0106646D01*
X0342693Y0106295D01*
X0342573Y0105947D01*
X0342445Y0105602D01*
X0342308Y0105260D01*
X0342163Y0104921D01*
X0342010Y0104587D01*
X0341848Y0104256D01*
X0341679Y0103929D01*
X0341501Y0103607D01*
X0341316Y0103288D01*
X0341123Y0102975D01*
X0340922Y0102666D01*
X0340714Y0102363D01*
X0340498Y0102065D01*
X0340275Y0101772D01*
X0340045Y0101484D01*
X0339808Y0101202D01*
X0339564Y0100927D01*
X0339314Y0100657D01*
X0339057Y0100393D01*
X0338793Y0100136D01*
X0338523Y0099886D01*
X0338248Y0099642D01*
X0337966Y0099405D01*
X0337678Y0099175D01*
X0337385Y0098952D01*
X0337087Y0098736D01*
X0336784Y0098528D01*
X0336475Y0098327D01*
X0336162Y0098134D01*
X0335843Y0097949D01*
X0335521Y0097771D01*
X0335194Y0097602D01*
X0334863Y0097440D01*
X0334529Y0097287D01*
X0334190Y0097142D01*
X0333848Y0097005D01*
X0333503Y0096877D01*
X0333155Y0096757D01*
X0332804Y0096646D01*
X0332451Y0096543D01*
X0332095Y0096450D01*
X0331737Y0096364D01*
X0331376Y0096288D01*
X0331014Y0096221D01*
X0330651Y0096162D01*
X0330286Y0096113D01*
X0329920Y0096072D01*
X0329553Y0096041D01*
X0329186Y0096018D01*
X0328818Y0096005D01*
X0328450Y0096000D01*
X0328082Y0096005D01*
X0327714Y0096018D01*
X0327347Y0096041D01*
X0326980Y0096072D01*
X0326614Y0096113D01*
X0326249Y0096162D01*
X0325886Y0096221D01*
X0325524Y0096288D01*
X0325163Y0096364D01*
X0324805Y0096450D01*
X0324449Y0096543D01*
X0324096Y0096646D01*
X0323745Y0096757D01*
X0323397Y0096877D01*
X0323052Y0097005D01*
X0322710Y0097142D01*
X0322371Y0097287D01*
X0322037Y0097440D01*
X0321706Y0097602D01*
X0321379Y0097771D01*
X0321057Y0097949D01*
X0320738Y0098134D01*
X0320425Y0098327D01*
X0320116Y0098528D01*
X0319813Y0098736D01*
X0319515Y0098952D01*
X0319222Y0099175D01*
X0318934Y0099405D01*
X0318652Y0099642D01*
X0318377Y0099886D01*
X0318107Y0100136D01*
X0317843Y0100393D01*
X0317586Y0100657D01*
X0317336Y0100927D01*
X0317092Y0101202D01*
X0316855Y0101484D01*
X0316625Y0101772D01*
X0316402Y0102065D01*
X0316186Y0102363D01*
X0315978Y0102666D01*
X0315777Y0102975D01*
X0315584Y0103288D01*
X0315399Y0103607D01*
X0315221Y0103929D01*
X0315052Y0104256D01*
X0314890Y0104587D01*
X0314737Y0104921D01*
X0314592Y0105260D01*
X0314455Y0105602D01*
X0314327Y0105947D01*
X0314207Y0106295D01*
X0314096Y0106646D01*
X0313993Y0106999D01*
X0313900Y0107355D01*
X0313814Y0107713D01*
X0313738Y0108074D01*
X0313671Y0108436D01*
X0313612Y0108799D01*
X0313563Y0109164D01*
X0313522Y0109530D01*
X0313491Y0109897D01*
X0313468Y0110264D01*
X0313455Y0110632D01*
X0313450Y0111000D01*
X0344450Y0112000D02*
X0344450Y0113500D01*
X0344950Y0114000D01*
X0344950Y0128000D01*
X0344450Y0128500D01*
X0344450Y0130000D01*
X0344452Y0130060D01*
X0344457Y0130121D01*
X0344466Y0130180D01*
X0344479Y0130239D01*
X0344495Y0130298D01*
X0344515Y0130355D01*
X0344538Y0130410D01*
X0344565Y0130465D01*
X0344594Y0130517D01*
X0344627Y0130568D01*
X0344663Y0130617D01*
X0344701Y0130663D01*
X0344743Y0130707D01*
X0344787Y0130749D01*
X0344833Y0130787D01*
X0344882Y0130823D01*
X0344933Y0130856D01*
X0344985Y0130885D01*
X0345040Y0130912D01*
X0345095Y0130935D01*
X0345152Y0130955D01*
X0345211Y0130971D01*
X0345270Y0130984D01*
X0345329Y0130993D01*
X0345390Y0130998D01*
X0345450Y0131000D01*
X0351450Y0131000D01*
X0351510Y0130998D01*
X0351571Y0130993D01*
X0351630Y0130984D01*
X0351689Y0130971D01*
X0351748Y0130955D01*
X0351805Y0130935D01*
X0351860Y0130912D01*
X0351915Y0130885D01*
X0351967Y0130856D01*
X0352018Y0130823D01*
X0352067Y0130787D01*
X0352113Y0130749D01*
X0352157Y0130707D01*
X0352199Y0130663D01*
X0352237Y0130617D01*
X0352273Y0130568D01*
X0352306Y0130517D01*
X0352335Y0130465D01*
X0352362Y0130410D01*
X0352385Y0130355D01*
X0352405Y0130298D01*
X0352421Y0130239D01*
X0352434Y0130180D01*
X0352443Y0130121D01*
X0352448Y0130060D01*
X0352450Y0130000D01*
X0352450Y0128500D01*
X0351950Y0128000D01*
X0351950Y0114000D01*
X0352450Y0113500D01*
X0352450Y0112000D01*
X0352448Y0111940D01*
X0352443Y0111879D01*
X0352434Y0111820D01*
X0352421Y0111761D01*
X0352405Y0111702D01*
X0352385Y0111645D01*
X0352362Y0111590D01*
X0352335Y0111535D01*
X0352306Y0111483D01*
X0352273Y0111432D01*
X0352237Y0111383D01*
X0352199Y0111337D01*
X0352157Y0111293D01*
X0352113Y0111251D01*
X0352067Y0111213D01*
X0352018Y0111177D01*
X0351967Y0111144D01*
X0351915Y0111115D01*
X0351860Y0111088D01*
X0351805Y0111065D01*
X0351748Y0111045D01*
X0351689Y0111029D01*
X0351630Y0111016D01*
X0351571Y0111007D01*
X0351510Y0111002D01*
X0351450Y0111000D01*
X0345450Y0111000D01*
X0345390Y0111002D01*
X0345329Y0111007D01*
X0345270Y0111016D01*
X0345211Y0111029D01*
X0345152Y0111045D01*
X0345095Y0111065D01*
X0345040Y0111088D01*
X0344985Y0111115D01*
X0344933Y0111144D01*
X0344882Y0111177D01*
X0344833Y0111213D01*
X0344787Y0111251D01*
X0344743Y0111293D01*
X0344701Y0111337D01*
X0344663Y0111383D01*
X0344627Y0111432D01*
X0344594Y0111483D01*
X0344565Y0111535D01*
X0344538Y0111590D01*
X0344515Y0111645D01*
X0344495Y0111702D01*
X0344479Y0111761D01*
X0344466Y0111820D01*
X0344457Y0111879D01*
X0344452Y0111940D01*
X0344450Y0112000D01*
X0344452Y0111940D01*
X0344457Y0111879D01*
X0344466Y0111820D01*
X0344479Y0111761D01*
X0344495Y0111702D01*
X0344515Y0111645D01*
X0344538Y0111590D01*
X0344565Y0111535D01*
X0344594Y0111483D01*
X0344627Y0111432D01*
X0344663Y0111383D01*
X0344701Y0111337D01*
X0344743Y0111293D01*
X0344787Y0111251D01*
X0344833Y0111213D01*
X0344882Y0111177D01*
X0344933Y0111144D01*
X0344985Y0111115D01*
X0345040Y0111088D01*
X0345095Y0111065D01*
X0345152Y0111045D01*
X0345211Y0111029D01*
X0345270Y0111016D01*
X0345329Y0111007D01*
X0345390Y0111002D01*
X0345450Y0111000D01*
X0351450Y0111000D02*
X0351510Y0111002D01*
X0351571Y0111007D01*
X0351630Y0111016D01*
X0351689Y0111029D01*
X0351748Y0111045D01*
X0351805Y0111065D01*
X0351860Y0111088D01*
X0351915Y0111115D01*
X0351967Y0111144D01*
X0352018Y0111177D01*
X0352067Y0111213D01*
X0352113Y0111251D01*
X0352157Y0111293D01*
X0352199Y0111337D01*
X0352237Y0111383D01*
X0352273Y0111432D01*
X0352306Y0111483D01*
X0352335Y0111535D01*
X0352362Y0111590D01*
X0352385Y0111645D01*
X0352405Y0111702D01*
X0352421Y0111761D01*
X0352434Y0111820D01*
X0352443Y0111879D01*
X0352448Y0111940D01*
X0352450Y0112000D01*
X0354950Y0118000D02*
X0354950Y0104000D01*
X0354450Y0103500D01*
X0354450Y0102000D01*
X0354452Y0101940D01*
X0354457Y0101879D01*
X0354466Y0101820D01*
X0354479Y0101761D01*
X0354495Y0101702D01*
X0354515Y0101645D01*
X0354538Y0101590D01*
X0354565Y0101535D01*
X0354594Y0101483D01*
X0354627Y0101432D01*
X0354663Y0101383D01*
X0354701Y0101337D01*
X0354743Y0101293D01*
X0354787Y0101251D01*
X0354833Y0101213D01*
X0354882Y0101177D01*
X0354933Y0101144D01*
X0354985Y0101115D01*
X0355040Y0101088D01*
X0355095Y0101065D01*
X0355152Y0101045D01*
X0355211Y0101029D01*
X0355270Y0101016D01*
X0355329Y0101007D01*
X0355390Y0101002D01*
X0355450Y0101000D01*
X0361450Y0101000D01*
X0361510Y0101002D01*
X0361571Y0101007D01*
X0361630Y0101016D01*
X0361689Y0101029D01*
X0361748Y0101045D01*
X0361805Y0101065D01*
X0361860Y0101088D01*
X0361915Y0101115D01*
X0361967Y0101144D01*
X0362018Y0101177D01*
X0362067Y0101213D01*
X0362113Y0101251D01*
X0362157Y0101293D01*
X0362199Y0101337D01*
X0362237Y0101383D01*
X0362273Y0101432D01*
X0362306Y0101483D01*
X0362335Y0101535D01*
X0362362Y0101590D01*
X0362385Y0101645D01*
X0362405Y0101702D01*
X0362421Y0101761D01*
X0362434Y0101820D01*
X0362443Y0101879D01*
X0362448Y0101940D01*
X0362450Y0102000D01*
X0362450Y0103500D01*
X0361950Y0104000D01*
X0361950Y0118000D01*
X0362450Y0118500D01*
X0362450Y0120000D01*
X0362448Y0120060D01*
X0362443Y0120121D01*
X0362434Y0120180D01*
X0362421Y0120239D01*
X0362405Y0120298D01*
X0362385Y0120355D01*
X0362362Y0120410D01*
X0362335Y0120465D01*
X0362306Y0120517D01*
X0362273Y0120568D01*
X0362237Y0120617D01*
X0362199Y0120663D01*
X0362157Y0120707D01*
X0362113Y0120749D01*
X0362067Y0120787D01*
X0362018Y0120823D01*
X0361967Y0120856D01*
X0361915Y0120885D01*
X0361860Y0120912D01*
X0361805Y0120935D01*
X0361748Y0120955D01*
X0361689Y0120971D01*
X0361630Y0120984D01*
X0361571Y0120993D01*
X0361510Y0120998D01*
X0361450Y0121000D01*
X0355450Y0121000D01*
X0355390Y0120998D01*
X0355329Y0120993D01*
X0355270Y0120984D01*
X0355211Y0120971D01*
X0355152Y0120955D01*
X0355095Y0120935D01*
X0355040Y0120912D01*
X0354985Y0120885D01*
X0354933Y0120856D01*
X0354882Y0120823D01*
X0354833Y0120787D01*
X0354787Y0120749D01*
X0354743Y0120707D01*
X0354701Y0120663D01*
X0354663Y0120617D01*
X0354627Y0120568D01*
X0354594Y0120517D01*
X0354565Y0120465D01*
X0354538Y0120410D01*
X0354515Y0120355D01*
X0354495Y0120298D01*
X0354479Y0120239D01*
X0354466Y0120180D01*
X0354457Y0120121D01*
X0354452Y0120060D01*
X0354450Y0120000D01*
X0354450Y0118500D01*
X0354950Y0118000D01*
X0354450Y0120000D02*
X0354452Y0120060D01*
X0354457Y0120121D01*
X0354466Y0120180D01*
X0354479Y0120239D01*
X0354495Y0120298D01*
X0354515Y0120355D01*
X0354538Y0120410D01*
X0354565Y0120465D01*
X0354594Y0120517D01*
X0354627Y0120568D01*
X0354663Y0120617D01*
X0354701Y0120663D01*
X0354743Y0120707D01*
X0354787Y0120749D01*
X0354833Y0120787D01*
X0354882Y0120823D01*
X0354933Y0120856D01*
X0354985Y0120885D01*
X0355040Y0120912D01*
X0355095Y0120935D01*
X0355152Y0120955D01*
X0355211Y0120971D01*
X0355270Y0120984D01*
X0355329Y0120993D01*
X0355390Y0120998D01*
X0355450Y0121000D01*
X0361450Y0121000D02*
X0361510Y0120998D01*
X0361571Y0120993D01*
X0361630Y0120984D01*
X0361689Y0120971D01*
X0361748Y0120955D01*
X0361805Y0120935D01*
X0361860Y0120912D01*
X0361915Y0120885D01*
X0361967Y0120856D01*
X0362018Y0120823D01*
X0362067Y0120787D01*
X0362113Y0120749D01*
X0362157Y0120707D01*
X0362199Y0120663D01*
X0362237Y0120617D01*
X0362273Y0120568D01*
X0362306Y0120517D01*
X0362335Y0120465D01*
X0362362Y0120410D01*
X0362385Y0120355D01*
X0362405Y0120298D01*
X0362421Y0120239D01*
X0362434Y0120180D01*
X0362443Y0120121D01*
X0362448Y0120060D01*
X0362450Y0120000D01*
X0371950Y0126000D02*
X0394950Y0126000D01*
X0394950Y0166000D01*
X0387450Y0166000D01*
X0387448Y0165874D01*
X0387442Y0165749D01*
X0387432Y0165624D01*
X0387418Y0165499D01*
X0387401Y0165374D01*
X0387379Y0165250D01*
X0387354Y0165127D01*
X0387324Y0165005D01*
X0387291Y0164884D01*
X0387254Y0164764D01*
X0387214Y0164645D01*
X0387169Y0164528D01*
X0387121Y0164411D01*
X0387069Y0164297D01*
X0387014Y0164184D01*
X0386955Y0164073D01*
X0386893Y0163964D01*
X0386827Y0163857D01*
X0386758Y0163752D01*
X0386686Y0163649D01*
X0386611Y0163548D01*
X0386532Y0163450D01*
X0386450Y0163355D01*
X0386366Y0163262D01*
X0386278Y0163172D01*
X0386188Y0163084D01*
X0386095Y0163000D01*
X0386000Y0162918D01*
X0385902Y0162839D01*
X0385801Y0162764D01*
X0385698Y0162692D01*
X0385593Y0162623D01*
X0385486Y0162557D01*
X0385377Y0162495D01*
X0385266Y0162436D01*
X0385153Y0162381D01*
X0385039Y0162329D01*
X0384922Y0162281D01*
X0384805Y0162236D01*
X0384686Y0162196D01*
X0384566Y0162159D01*
X0384445Y0162126D01*
X0384323Y0162096D01*
X0384200Y0162071D01*
X0384076Y0162049D01*
X0383951Y0162032D01*
X0383826Y0162018D01*
X0383701Y0162008D01*
X0383576Y0162002D01*
X0383450Y0162000D01*
X0383324Y0162002D01*
X0383199Y0162008D01*
X0383074Y0162018D01*
X0382949Y0162032D01*
X0382824Y0162049D01*
X0382700Y0162071D01*
X0382577Y0162096D01*
X0382455Y0162126D01*
X0382334Y0162159D01*
X0382214Y0162196D01*
X0382095Y0162236D01*
X0381978Y0162281D01*
X0381861Y0162329D01*
X0381747Y0162381D01*
X0381634Y0162436D01*
X0381523Y0162495D01*
X0381414Y0162557D01*
X0381307Y0162623D01*
X0381202Y0162692D01*
X0381099Y0162764D01*
X0380998Y0162839D01*
X0380900Y0162918D01*
X0380805Y0163000D01*
X0380712Y0163084D01*
X0380622Y0163172D01*
X0380534Y0163262D01*
X0380450Y0163355D01*
X0380368Y0163450D01*
X0380289Y0163548D01*
X0380214Y0163649D01*
X0380142Y0163752D01*
X0380073Y0163857D01*
X0380007Y0163964D01*
X0379945Y0164073D01*
X0379886Y0164184D01*
X0379831Y0164297D01*
X0379779Y0164411D01*
X0379731Y0164528D01*
X0379686Y0164645D01*
X0379646Y0164764D01*
X0379609Y0164884D01*
X0379576Y0165005D01*
X0379546Y0165127D01*
X0379521Y0165250D01*
X0379499Y0165374D01*
X0379482Y0165499D01*
X0379468Y0165624D01*
X0379458Y0165749D01*
X0379452Y0165874D01*
X0379450Y0166000D01*
X0371950Y0166000D01*
X0371950Y0126000D01*
X0352450Y0130000D02*
X0352448Y0130060D01*
X0352443Y0130121D01*
X0352434Y0130180D01*
X0352421Y0130239D01*
X0352405Y0130298D01*
X0352385Y0130355D01*
X0352362Y0130410D01*
X0352335Y0130465D01*
X0352306Y0130517D01*
X0352273Y0130568D01*
X0352237Y0130617D01*
X0352199Y0130663D01*
X0352157Y0130707D01*
X0352113Y0130749D01*
X0352067Y0130787D01*
X0352018Y0130823D01*
X0351967Y0130856D01*
X0351915Y0130885D01*
X0351860Y0130912D01*
X0351805Y0130935D01*
X0351748Y0130955D01*
X0351689Y0130971D01*
X0351630Y0130984D01*
X0351571Y0130993D01*
X0351510Y0130998D01*
X0351450Y0131000D01*
X0345450Y0131000D02*
X0345390Y0130998D01*
X0345329Y0130993D01*
X0345270Y0130984D01*
X0345211Y0130971D01*
X0345152Y0130955D01*
X0345095Y0130935D01*
X0345040Y0130912D01*
X0344985Y0130885D01*
X0344933Y0130856D01*
X0344882Y0130823D01*
X0344833Y0130787D01*
X0344787Y0130749D01*
X0344743Y0130707D01*
X0344701Y0130663D01*
X0344663Y0130617D01*
X0344627Y0130568D01*
X0344594Y0130517D01*
X0344565Y0130465D01*
X0344538Y0130410D01*
X0344515Y0130355D01*
X0344495Y0130298D01*
X0344479Y0130239D01*
X0344466Y0130180D01*
X0344457Y0130121D01*
X0344452Y0130060D01*
X0344450Y0130000D01*
X0312450Y0152000D02*
X0312450Y0153500D01*
X0311950Y0154000D01*
X0311950Y0168000D01*
X0312450Y0168500D01*
X0312450Y0170000D01*
X0312448Y0170060D01*
X0312443Y0170121D01*
X0312434Y0170180D01*
X0312421Y0170239D01*
X0312405Y0170298D01*
X0312385Y0170355D01*
X0312362Y0170410D01*
X0312335Y0170465D01*
X0312306Y0170517D01*
X0312273Y0170568D01*
X0312237Y0170617D01*
X0312199Y0170663D01*
X0312157Y0170707D01*
X0312113Y0170749D01*
X0312067Y0170787D01*
X0312018Y0170823D01*
X0311967Y0170856D01*
X0311915Y0170885D01*
X0311860Y0170912D01*
X0311805Y0170935D01*
X0311748Y0170955D01*
X0311689Y0170971D01*
X0311630Y0170984D01*
X0311571Y0170993D01*
X0311510Y0170998D01*
X0311450Y0171000D01*
X0305450Y0171000D01*
X0305390Y0170998D01*
X0305329Y0170993D01*
X0305270Y0170984D01*
X0305211Y0170971D01*
X0305152Y0170955D01*
X0305095Y0170935D01*
X0305040Y0170912D01*
X0304985Y0170885D01*
X0304933Y0170856D01*
X0304882Y0170823D01*
X0304833Y0170787D01*
X0304787Y0170749D01*
X0304743Y0170707D01*
X0304701Y0170663D01*
X0304663Y0170617D01*
X0304627Y0170568D01*
X0304594Y0170517D01*
X0304565Y0170465D01*
X0304538Y0170410D01*
X0304515Y0170355D01*
X0304495Y0170298D01*
X0304479Y0170239D01*
X0304466Y0170180D01*
X0304457Y0170121D01*
X0304452Y0170060D01*
X0304450Y0170000D01*
X0304450Y0168500D01*
X0304950Y0168000D01*
X0304950Y0154000D01*
X0304450Y0153500D01*
X0304450Y0152000D01*
X0304452Y0151940D01*
X0304457Y0151879D01*
X0304466Y0151820D01*
X0304479Y0151761D01*
X0304495Y0151702D01*
X0304515Y0151645D01*
X0304538Y0151590D01*
X0304565Y0151535D01*
X0304594Y0151483D01*
X0304627Y0151432D01*
X0304663Y0151383D01*
X0304701Y0151337D01*
X0304743Y0151293D01*
X0304787Y0151251D01*
X0304833Y0151213D01*
X0304882Y0151177D01*
X0304933Y0151144D01*
X0304985Y0151115D01*
X0305040Y0151088D01*
X0305095Y0151065D01*
X0305152Y0151045D01*
X0305211Y0151029D01*
X0305270Y0151016D01*
X0305329Y0151007D01*
X0305390Y0151002D01*
X0305450Y0151000D01*
X0311450Y0151000D01*
X0311510Y0151002D01*
X0311571Y0151007D01*
X0311630Y0151016D01*
X0311689Y0151029D01*
X0311748Y0151045D01*
X0311805Y0151065D01*
X0311860Y0151088D01*
X0311915Y0151115D01*
X0311967Y0151144D01*
X0312018Y0151177D01*
X0312067Y0151213D01*
X0312113Y0151251D01*
X0312157Y0151293D01*
X0312199Y0151337D01*
X0312237Y0151383D01*
X0312273Y0151432D01*
X0312306Y0151483D01*
X0312335Y0151535D01*
X0312362Y0151590D01*
X0312385Y0151645D01*
X0312405Y0151702D01*
X0312421Y0151761D01*
X0312434Y0151820D01*
X0312443Y0151879D01*
X0312448Y0151940D01*
X0312450Y0152000D01*
X0312448Y0151940D01*
X0312443Y0151879D01*
X0312434Y0151820D01*
X0312421Y0151761D01*
X0312405Y0151702D01*
X0312385Y0151645D01*
X0312362Y0151590D01*
X0312335Y0151535D01*
X0312306Y0151483D01*
X0312273Y0151432D01*
X0312237Y0151383D01*
X0312199Y0151337D01*
X0312157Y0151293D01*
X0312113Y0151251D01*
X0312067Y0151213D01*
X0312018Y0151177D01*
X0311967Y0151144D01*
X0311915Y0151115D01*
X0311860Y0151088D01*
X0311805Y0151065D01*
X0311748Y0151045D01*
X0311689Y0151029D01*
X0311630Y0151016D01*
X0311571Y0151007D01*
X0311510Y0151002D01*
X0311450Y0151000D01*
X0305450Y0151000D02*
X0305390Y0151002D01*
X0305329Y0151007D01*
X0305270Y0151016D01*
X0305211Y0151029D01*
X0305152Y0151045D01*
X0305095Y0151065D01*
X0305040Y0151088D01*
X0304985Y0151115D01*
X0304933Y0151144D01*
X0304882Y0151177D01*
X0304833Y0151213D01*
X0304787Y0151251D01*
X0304743Y0151293D01*
X0304701Y0151337D01*
X0304663Y0151383D01*
X0304627Y0151432D01*
X0304594Y0151483D01*
X0304565Y0151535D01*
X0304538Y0151590D01*
X0304515Y0151645D01*
X0304495Y0151702D01*
X0304479Y0151761D01*
X0304466Y0151820D01*
X0304457Y0151879D01*
X0304452Y0151940D01*
X0304450Y0152000D01*
X0304450Y0170000D02*
X0304452Y0170060D01*
X0304457Y0170121D01*
X0304466Y0170180D01*
X0304479Y0170239D01*
X0304495Y0170298D01*
X0304515Y0170355D01*
X0304538Y0170410D01*
X0304565Y0170465D01*
X0304594Y0170517D01*
X0304627Y0170568D01*
X0304663Y0170617D01*
X0304701Y0170663D01*
X0304743Y0170707D01*
X0304787Y0170749D01*
X0304833Y0170787D01*
X0304882Y0170823D01*
X0304933Y0170856D01*
X0304985Y0170885D01*
X0305040Y0170912D01*
X0305095Y0170935D01*
X0305152Y0170955D01*
X0305211Y0170971D01*
X0305270Y0170984D01*
X0305329Y0170993D01*
X0305390Y0170998D01*
X0305450Y0171000D01*
X0311450Y0171000D02*
X0311510Y0170998D01*
X0311571Y0170993D01*
X0311630Y0170984D01*
X0311689Y0170971D01*
X0311748Y0170955D01*
X0311805Y0170935D01*
X0311860Y0170912D01*
X0311915Y0170885D01*
X0311967Y0170856D01*
X0312018Y0170823D01*
X0312067Y0170787D01*
X0312113Y0170749D01*
X0312157Y0170707D01*
X0312199Y0170663D01*
X0312237Y0170617D01*
X0312273Y0170568D01*
X0312306Y0170517D01*
X0312335Y0170465D01*
X0312362Y0170410D01*
X0312385Y0170355D01*
X0312405Y0170298D01*
X0312421Y0170239D01*
X0312434Y0170180D01*
X0312443Y0170121D01*
X0312448Y0170060D01*
X0312450Y0170000D01*
X0414450Y0150000D02*
X0414450Y0148500D01*
X0414950Y0148000D01*
X0414950Y0134000D01*
X0414450Y0133500D01*
X0414450Y0132000D01*
X0414452Y0131940D01*
X0414457Y0131879D01*
X0414466Y0131820D01*
X0414479Y0131761D01*
X0414495Y0131702D01*
X0414515Y0131645D01*
X0414538Y0131590D01*
X0414565Y0131535D01*
X0414594Y0131483D01*
X0414627Y0131432D01*
X0414663Y0131383D01*
X0414701Y0131337D01*
X0414743Y0131293D01*
X0414787Y0131251D01*
X0414833Y0131213D01*
X0414882Y0131177D01*
X0414933Y0131144D01*
X0414985Y0131115D01*
X0415040Y0131088D01*
X0415095Y0131065D01*
X0415152Y0131045D01*
X0415211Y0131029D01*
X0415270Y0131016D01*
X0415329Y0131007D01*
X0415390Y0131002D01*
X0415450Y0131000D01*
X0421450Y0131000D01*
X0421510Y0131002D01*
X0421571Y0131007D01*
X0421630Y0131016D01*
X0421689Y0131029D01*
X0421748Y0131045D01*
X0421805Y0131065D01*
X0421860Y0131088D01*
X0421915Y0131115D01*
X0421967Y0131144D01*
X0422018Y0131177D01*
X0422067Y0131213D01*
X0422113Y0131251D01*
X0422157Y0131293D01*
X0422199Y0131337D01*
X0422237Y0131383D01*
X0422273Y0131432D01*
X0422306Y0131483D01*
X0422335Y0131535D01*
X0422362Y0131590D01*
X0422385Y0131645D01*
X0422405Y0131702D01*
X0422421Y0131761D01*
X0422434Y0131820D01*
X0422443Y0131879D01*
X0422448Y0131940D01*
X0422450Y0132000D01*
X0422450Y0133500D01*
X0421950Y0134000D01*
X0421950Y0148000D01*
X0422450Y0148500D01*
X0422450Y0150000D01*
X0422448Y0150060D01*
X0422443Y0150121D01*
X0422434Y0150180D01*
X0422421Y0150239D01*
X0422405Y0150298D01*
X0422385Y0150355D01*
X0422362Y0150410D01*
X0422335Y0150465D01*
X0422306Y0150517D01*
X0422273Y0150568D01*
X0422237Y0150617D01*
X0422199Y0150663D01*
X0422157Y0150707D01*
X0422113Y0150749D01*
X0422067Y0150787D01*
X0422018Y0150823D01*
X0421967Y0150856D01*
X0421915Y0150885D01*
X0421860Y0150912D01*
X0421805Y0150935D01*
X0421748Y0150955D01*
X0421689Y0150971D01*
X0421630Y0150984D01*
X0421571Y0150993D01*
X0421510Y0150998D01*
X0421450Y0151000D01*
X0415450Y0151000D01*
X0415390Y0150998D01*
X0415329Y0150993D01*
X0415270Y0150984D01*
X0415211Y0150971D01*
X0415152Y0150955D01*
X0415095Y0150935D01*
X0415040Y0150912D01*
X0414985Y0150885D01*
X0414933Y0150856D01*
X0414882Y0150823D01*
X0414833Y0150787D01*
X0414787Y0150749D01*
X0414743Y0150707D01*
X0414701Y0150663D01*
X0414663Y0150617D01*
X0414627Y0150568D01*
X0414594Y0150517D01*
X0414565Y0150465D01*
X0414538Y0150410D01*
X0414515Y0150355D01*
X0414495Y0150298D01*
X0414479Y0150239D01*
X0414466Y0150180D01*
X0414457Y0150121D01*
X0414452Y0150060D01*
X0414450Y0150000D01*
X0414452Y0150060D01*
X0414457Y0150121D01*
X0414466Y0150180D01*
X0414479Y0150239D01*
X0414495Y0150298D01*
X0414515Y0150355D01*
X0414538Y0150410D01*
X0414565Y0150465D01*
X0414594Y0150517D01*
X0414627Y0150568D01*
X0414663Y0150617D01*
X0414701Y0150663D01*
X0414743Y0150707D01*
X0414787Y0150749D01*
X0414833Y0150787D01*
X0414882Y0150823D01*
X0414933Y0150856D01*
X0414985Y0150885D01*
X0415040Y0150912D01*
X0415095Y0150935D01*
X0415152Y0150955D01*
X0415211Y0150971D01*
X0415270Y0150984D01*
X0415329Y0150993D01*
X0415390Y0150998D01*
X0415450Y0151000D01*
X0421450Y0151000D02*
X0421510Y0150998D01*
X0421571Y0150993D01*
X0421630Y0150984D01*
X0421689Y0150971D01*
X0421748Y0150955D01*
X0421805Y0150935D01*
X0421860Y0150912D01*
X0421915Y0150885D01*
X0421967Y0150856D01*
X0422018Y0150823D01*
X0422067Y0150787D01*
X0422113Y0150749D01*
X0422157Y0150707D01*
X0422199Y0150663D01*
X0422237Y0150617D01*
X0422273Y0150568D01*
X0422306Y0150517D01*
X0422335Y0150465D01*
X0422362Y0150410D01*
X0422385Y0150355D01*
X0422405Y0150298D01*
X0422421Y0150239D01*
X0422434Y0150180D01*
X0422443Y0150121D01*
X0422448Y0150060D01*
X0422450Y0150000D01*
X0422450Y0132000D02*
X0422448Y0131940D01*
X0422443Y0131879D01*
X0422434Y0131820D01*
X0422421Y0131761D01*
X0422405Y0131702D01*
X0422385Y0131645D01*
X0422362Y0131590D01*
X0422335Y0131535D01*
X0422306Y0131483D01*
X0422273Y0131432D01*
X0422237Y0131383D01*
X0422199Y0131337D01*
X0422157Y0131293D01*
X0422113Y0131251D01*
X0422067Y0131213D01*
X0422018Y0131177D01*
X0421967Y0131144D01*
X0421915Y0131115D01*
X0421860Y0131088D01*
X0421805Y0131065D01*
X0421748Y0131045D01*
X0421689Y0131029D01*
X0421630Y0131016D01*
X0421571Y0131007D01*
X0421510Y0131002D01*
X0421450Y0131000D01*
X0415450Y0131000D02*
X0415390Y0131002D01*
X0415329Y0131007D01*
X0415270Y0131016D01*
X0415211Y0131029D01*
X0415152Y0131045D01*
X0415095Y0131065D01*
X0415040Y0131088D01*
X0414985Y0131115D01*
X0414933Y0131144D01*
X0414882Y0131177D01*
X0414833Y0131213D01*
X0414787Y0131251D01*
X0414743Y0131293D01*
X0414701Y0131337D01*
X0414663Y0131383D01*
X0414627Y0131432D01*
X0414594Y0131483D01*
X0414565Y0131535D01*
X0414538Y0131590D01*
X0414515Y0131645D01*
X0414495Y0131702D01*
X0414479Y0131761D01*
X0414466Y0131820D01*
X0414457Y0131879D01*
X0414452Y0131940D01*
X0414450Y0132000D01*
X0442860Y0131000D02*
X0442862Y0131149D01*
X0442868Y0131299D01*
X0442878Y0131448D01*
X0442892Y0131597D01*
X0442910Y0131745D01*
X0442932Y0131893D01*
X0442958Y0132040D01*
X0442987Y0132187D01*
X0443021Y0132332D01*
X0443059Y0132477D01*
X0443100Y0132620D01*
X0443145Y0132763D01*
X0443194Y0132904D01*
X0443247Y0133044D01*
X0443304Y0133182D01*
X0443364Y0133319D01*
X0443428Y0133454D01*
X0443495Y0133588D01*
X0443566Y0133719D01*
X0443640Y0133849D01*
X0443718Y0133976D01*
X0443799Y0134102D01*
X0443884Y0134225D01*
X0443972Y0134346D01*
X0444063Y0134464D01*
X0444157Y0134580D01*
X0444254Y0134694D01*
X0444355Y0134805D01*
X0444458Y0134913D01*
X0444564Y0135018D01*
X0444673Y0135121D01*
X0444784Y0135220D01*
X0444898Y0135317D01*
X0445015Y0135410D01*
X0445134Y0135500D01*
X0445256Y0135587D01*
X0445379Y0135671D01*
X0445505Y0135752D01*
X0445633Y0135829D01*
X0445764Y0135902D01*
X0445896Y0135972D01*
X0446029Y0136039D01*
X0446165Y0136102D01*
X0446302Y0136161D01*
X0446441Y0136216D01*
X0446581Y0136268D01*
X0446723Y0136316D01*
X0446865Y0136361D01*
X0447009Y0136401D01*
X0447154Y0136438D01*
X0447300Y0136470D01*
X0447447Y0136499D01*
X0447594Y0136524D01*
X0447742Y0136545D01*
X0447890Y0136562D01*
X0448039Y0136575D01*
X0448189Y0136584D01*
X0448338Y0136589D01*
X0448487Y0136590D01*
X0448637Y0136587D01*
X0448786Y0136580D01*
X0448935Y0136569D01*
X0449084Y0136554D01*
X0449232Y0136535D01*
X0449380Y0136512D01*
X0449527Y0136485D01*
X0449673Y0136455D01*
X0449818Y0136420D01*
X0449963Y0136381D01*
X0450106Y0136339D01*
X0450248Y0136293D01*
X0450389Y0136243D01*
X0450529Y0136189D01*
X0450667Y0136132D01*
X0450803Y0136071D01*
X0450938Y0136006D01*
X0451071Y0135938D01*
X0451202Y0135866D01*
X0451331Y0135790D01*
X0451458Y0135712D01*
X0451583Y0135630D01*
X0451705Y0135544D01*
X0451826Y0135456D01*
X0451944Y0135364D01*
X0452059Y0135269D01*
X0452172Y0135171D01*
X0452282Y0135070D01*
X0452389Y0134966D01*
X0452494Y0134859D01*
X0452596Y0134750D01*
X0452695Y0134638D01*
X0452790Y0134523D01*
X0452883Y0134405D01*
X0452972Y0134286D01*
X0453059Y0134164D01*
X0453142Y0134039D01*
X0453221Y0133913D01*
X0453297Y0133784D01*
X0453370Y0133654D01*
X0453439Y0133521D01*
X0453505Y0133387D01*
X0453567Y0133251D01*
X0453625Y0133113D01*
X0453680Y0132974D01*
X0453731Y0132834D01*
X0453778Y0132692D01*
X0453821Y0132549D01*
X0453861Y0132405D01*
X0453896Y0132259D01*
X0453928Y0132113D01*
X0453956Y0131967D01*
X0453980Y0131819D01*
X0454000Y0131671D01*
X0454016Y0131522D01*
X0454028Y0131373D01*
X0454036Y0131224D01*
X0454040Y0131075D01*
X0454040Y0130925D01*
X0454036Y0130776D01*
X0454028Y0130627D01*
X0454016Y0130478D01*
X0454000Y0130329D01*
X0453980Y0130181D01*
X0453956Y0130033D01*
X0453928Y0129887D01*
X0453896Y0129741D01*
X0453861Y0129595D01*
X0453821Y0129451D01*
X0453778Y0129308D01*
X0453731Y0129166D01*
X0453680Y0129026D01*
X0453625Y0128887D01*
X0453567Y0128749D01*
X0453505Y0128613D01*
X0453439Y0128479D01*
X0453370Y0128346D01*
X0453297Y0128216D01*
X0453221Y0128087D01*
X0453142Y0127961D01*
X0453059Y0127836D01*
X0452972Y0127714D01*
X0452883Y0127595D01*
X0452790Y0127477D01*
X0452695Y0127362D01*
X0452596Y0127250D01*
X0452494Y0127141D01*
X0452389Y0127034D01*
X0452282Y0126930D01*
X0452172Y0126829D01*
X0452059Y0126731D01*
X0451944Y0126636D01*
X0451826Y0126544D01*
X0451705Y0126456D01*
X0451583Y0126370D01*
X0451458Y0126288D01*
X0451331Y0126210D01*
X0451202Y0126134D01*
X0451071Y0126062D01*
X0450938Y0125994D01*
X0450803Y0125929D01*
X0450667Y0125868D01*
X0450529Y0125811D01*
X0450389Y0125757D01*
X0450248Y0125707D01*
X0450106Y0125661D01*
X0449963Y0125619D01*
X0449818Y0125580D01*
X0449673Y0125545D01*
X0449527Y0125515D01*
X0449380Y0125488D01*
X0449232Y0125465D01*
X0449084Y0125446D01*
X0448935Y0125431D01*
X0448786Y0125420D01*
X0448637Y0125413D01*
X0448487Y0125410D01*
X0448338Y0125411D01*
X0448189Y0125416D01*
X0448039Y0125425D01*
X0447890Y0125438D01*
X0447742Y0125455D01*
X0447594Y0125476D01*
X0447447Y0125501D01*
X0447300Y0125530D01*
X0447154Y0125562D01*
X0447009Y0125599D01*
X0446865Y0125639D01*
X0446723Y0125684D01*
X0446581Y0125732D01*
X0446441Y0125784D01*
X0446302Y0125839D01*
X0446165Y0125898D01*
X0446029Y0125961D01*
X0445896Y0126028D01*
X0445764Y0126098D01*
X0445633Y0126171D01*
X0445505Y0126248D01*
X0445379Y0126329D01*
X0445256Y0126413D01*
X0445134Y0126500D01*
X0445015Y0126590D01*
X0444898Y0126683D01*
X0444784Y0126780D01*
X0444673Y0126879D01*
X0444564Y0126982D01*
X0444458Y0127087D01*
X0444355Y0127195D01*
X0444254Y0127306D01*
X0444157Y0127420D01*
X0444063Y0127536D01*
X0443972Y0127654D01*
X0443884Y0127775D01*
X0443799Y0127898D01*
X0443718Y0128024D01*
X0443640Y0128151D01*
X0443566Y0128281D01*
X0443495Y0128412D01*
X0443428Y0128546D01*
X0443364Y0128681D01*
X0443304Y0128818D01*
X0443247Y0128956D01*
X0443194Y0129096D01*
X0443145Y0129237D01*
X0443100Y0129380D01*
X0443059Y0129523D01*
X0443021Y0129668D01*
X0442987Y0129813D01*
X0442958Y0129960D01*
X0442932Y0130107D01*
X0442910Y0130255D01*
X0442892Y0130403D01*
X0442878Y0130552D01*
X0442868Y0130701D01*
X0442862Y0130851D01*
X0442860Y0131000D01*
X0433450Y0131000D02*
X0433455Y0131368D01*
X0433468Y0131736D01*
X0433491Y0132103D01*
X0433522Y0132470D01*
X0433563Y0132836D01*
X0433612Y0133201D01*
X0433671Y0133564D01*
X0433738Y0133926D01*
X0433814Y0134287D01*
X0433900Y0134645D01*
X0433993Y0135001D01*
X0434096Y0135354D01*
X0434207Y0135705D01*
X0434327Y0136053D01*
X0434455Y0136398D01*
X0434592Y0136740D01*
X0434737Y0137079D01*
X0434890Y0137413D01*
X0435052Y0137744D01*
X0435221Y0138071D01*
X0435399Y0138393D01*
X0435584Y0138712D01*
X0435777Y0139025D01*
X0435978Y0139334D01*
X0436186Y0139637D01*
X0436402Y0139935D01*
X0436625Y0140228D01*
X0436855Y0140516D01*
X0437092Y0140798D01*
X0437336Y0141073D01*
X0437586Y0141343D01*
X0437843Y0141607D01*
X0438107Y0141864D01*
X0438377Y0142114D01*
X0438652Y0142358D01*
X0438934Y0142595D01*
X0439222Y0142825D01*
X0439515Y0143048D01*
X0439813Y0143264D01*
X0440116Y0143472D01*
X0440425Y0143673D01*
X0440738Y0143866D01*
X0441057Y0144051D01*
X0441379Y0144229D01*
X0441706Y0144398D01*
X0442037Y0144560D01*
X0442371Y0144713D01*
X0442710Y0144858D01*
X0443052Y0144995D01*
X0443397Y0145123D01*
X0443745Y0145243D01*
X0444096Y0145354D01*
X0444449Y0145457D01*
X0444805Y0145550D01*
X0445163Y0145636D01*
X0445524Y0145712D01*
X0445886Y0145779D01*
X0446249Y0145838D01*
X0446614Y0145887D01*
X0446980Y0145928D01*
X0447347Y0145959D01*
X0447714Y0145982D01*
X0448082Y0145995D01*
X0448450Y0146000D01*
X0448818Y0145995D01*
X0449186Y0145982D01*
X0449553Y0145959D01*
X0449920Y0145928D01*
X0450286Y0145887D01*
X0450651Y0145838D01*
X0451014Y0145779D01*
X0451376Y0145712D01*
X0451737Y0145636D01*
X0452095Y0145550D01*
X0452451Y0145457D01*
X0452804Y0145354D01*
X0453155Y0145243D01*
X0453503Y0145123D01*
X0453848Y0144995D01*
X0454190Y0144858D01*
X0454529Y0144713D01*
X0454863Y0144560D01*
X0455194Y0144398D01*
X0455521Y0144229D01*
X0455843Y0144051D01*
X0456162Y0143866D01*
X0456475Y0143673D01*
X0456784Y0143472D01*
X0457087Y0143264D01*
X0457385Y0143048D01*
X0457678Y0142825D01*
X0457966Y0142595D01*
X0458248Y0142358D01*
X0458523Y0142114D01*
X0458793Y0141864D01*
X0459057Y0141607D01*
X0459314Y0141343D01*
X0459564Y0141073D01*
X0459808Y0140798D01*
X0460045Y0140516D01*
X0460275Y0140228D01*
X0460498Y0139935D01*
X0460714Y0139637D01*
X0460922Y0139334D01*
X0461123Y0139025D01*
X0461316Y0138712D01*
X0461501Y0138393D01*
X0461679Y0138071D01*
X0461848Y0137744D01*
X0462010Y0137413D01*
X0462163Y0137079D01*
X0462308Y0136740D01*
X0462445Y0136398D01*
X0462573Y0136053D01*
X0462693Y0135705D01*
X0462804Y0135354D01*
X0462907Y0135001D01*
X0463000Y0134645D01*
X0463086Y0134287D01*
X0463162Y0133926D01*
X0463229Y0133564D01*
X0463288Y0133201D01*
X0463337Y0132836D01*
X0463378Y0132470D01*
X0463409Y0132103D01*
X0463432Y0131736D01*
X0463445Y0131368D01*
X0463450Y0131000D01*
X0463445Y0130632D01*
X0463432Y0130264D01*
X0463409Y0129897D01*
X0463378Y0129530D01*
X0463337Y0129164D01*
X0463288Y0128799D01*
X0463229Y0128436D01*
X0463162Y0128074D01*
X0463086Y0127713D01*
X0463000Y0127355D01*
X0462907Y0126999D01*
X0462804Y0126646D01*
X0462693Y0126295D01*
X0462573Y0125947D01*
X0462445Y0125602D01*
X0462308Y0125260D01*
X0462163Y0124921D01*
X0462010Y0124587D01*
X0461848Y0124256D01*
X0461679Y0123929D01*
X0461501Y0123607D01*
X0461316Y0123288D01*
X0461123Y0122975D01*
X0460922Y0122666D01*
X0460714Y0122363D01*
X0460498Y0122065D01*
X0460275Y0121772D01*
X0460045Y0121484D01*
X0459808Y0121202D01*
X0459564Y0120927D01*
X0459314Y0120657D01*
X0459057Y0120393D01*
X0458793Y0120136D01*
X0458523Y0119886D01*
X0458248Y0119642D01*
X0457966Y0119405D01*
X0457678Y0119175D01*
X0457385Y0118952D01*
X0457087Y0118736D01*
X0456784Y0118528D01*
X0456475Y0118327D01*
X0456162Y0118134D01*
X0455843Y0117949D01*
X0455521Y0117771D01*
X0455194Y0117602D01*
X0454863Y0117440D01*
X0454529Y0117287D01*
X0454190Y0117142D01*
X0453848Y0117005D01*
X0453503Y0116877D01*
X0453155Y0116757D01*
X0452804Y0116646D01*
X0452451Y0116543D01*
X0452095Y0116450D01*
X0451737Y0116364D01*
X0451376Y0116288D01*
X0451014Y0116221D01*
X0450651Y0116162D01*
X0450286Y0116113D01*
X0449920Y0116072D01*
X0449553Y0116041D01*
X0449186Y0116018D01*
X0448818Y0116005D01*
X0448450Y0116000D01*
X0448082Y0116005D01*
X0447714Y0116018D01*
X0447347Y0116041D01*
X0446980Y0116072D01*
X0446614Y0116113D01*
X0446249Y0116162D01*
X0445886Y0116221D01*
X0445524Y0116288D01*
X0445163Y0116364D01*
X0444805Y0116450D01*
X0444449Y0116543D01*
X0444096Y0116646D01*
X0443745Y0116757D01*
X0443397Y0116877D01*
X0443052Y0117005D01*
X0442710Y0117142D01*
X0442371Y0117287D01*
X0442037Y0117440D01*
X0441706Y0117602D01*
X0441379Y0117771D01*
X0441057Y0117949D01*
X0440738Y0118134D01*
X0440425Y0118327D01*
X0440116Y0118528D01*
X0439813Y0118736D01*
X0439515Y0118952D01*
X0439222Y0119175D01*
X0438934Y0119405D01*
X0438652Y0119642D01*
X0438377Y0119886D01*
X0438107Y0120136D01*
X0437843Y0120393D01*
X0437586Y0120657D01*
X0437336Y0120927D01*
X0437092Y0121202D01*
X0436855Y0121484D01*
X0436625Y0121772D01*
X0436402Y0122065D01*
X0436186Y0122363D01*
X0435978Y0122666D01*
X0435777Y0122975D01*
X0435584Y0123288D01*
X0435399Y0123607D01*
X0435221Y0123929D01*
X0435052Y0124256D01*
X0434890Y0124587D01*
X0434737Y0124921D01*
X0434592Y0125260D01*
X0434455Y0125602D01*
X0434327Y0125947D01*
X0434207Y0126295D01*
X0434096Y0126646D01*
X0433993Y0126999D01*
X0433900Y0127355D01*
X0433814Y0127713D01*
X0433738Y0128074D01*
X0433671Y0128436D01*
X0433612Y0128799D01*
X0433563Y0129164D01*
X0433522Y0129530D01*
X0433491Y0129897D01*
X0433468Y0130264D01*
X0433455Y0130632D01*
X0433450Y0131000D01*
X0464450Y0130000D02*
X0464450Y0128500D01*
X0464950Y0128000D01*
X0464950Y0114000D01*
X0464450Y0113500D01*
X0464450Y0112000D01*
X0464452Y0111940D01*
X0464457Y0111879D01*
X0464466Y0111820D01*
X0464479Y0111761D01*
X0464495Y0111702D01*
X0464515Y0111645D01*
X0464538Y0111590D01*
X0464565Y0111535D01*
X0464594Y0111483D01*
X0464627Y0111432D01*
X0464663Y0111383D01*
X0464701Y0111337D01*
X0464743Y0111293D01*
X0464787Y0111251D01*
X0464833Y0111213D01*
X0464882Y0111177D01*
X0464933Y0111144D01*
X0464985Y0111115D01*
X0465040Y0111088D01*
X0465095Y0111065D01*
X0465152Y0111045D01*
X0465211Y0111029D01*
X0465270Y0111016D01*
X0465329Y0111007D01*
X0465390Y0111002D01*
X0465450Y0111000D01*
X0471450Y0111000D01*
X0471510Y0111002D01*
X0471571Y0111007D01*
X0471630Y0111016D01*
X0471689Y0111029D01*
X0471748Y0111045D01*
X0471805Y0111065D01*
X0471860Y0111088D01*
X0471915Y0111115D01*
X0471967Y0111144D01*
X0472018Y0111177D01*
X0472067Y0111213D01*
X0472113Y0111251D01*
X0472157Y0111293D01*
X0472199Y0111337D01*
X0472237Y0111383D01*
X0472273Y0111432D01*
X0472306Y0111483D01*
X0472335Y0111535D01*
X0472362Y0111590D01*
X0472385Y0111645D01*
X0472405Y0111702D01*
X0472421Y0111761D01*
X0472434Y0111820D01*
X0472443Y0111879D01*
X0472448Y0111940D01*
X0472450Y0112000D01*
X0472450Y0113500D01*
X0471950Y0114000D01*
X0471950Y0128000D01*
X0472450Y0128500D01*
X0472450Y0130000D01*
X0472448Y0130060D01*
X0472443Y0130121D01*
X0472434Y0130180D01*
X0472421Y0130239D01*
X0472405Y0130298D01*
X0472385Y0130355D01*
X0472362Y0130410D01*
X0472335Y0130465D01*
X0472306Y0130517D01*
X0472273Y0130568D01*
X0472237Y0130617D01*
X0472199Y0130663D01*
X0472157Y0130707D01*
X0472113Y0130749D01*
X0472067Y0130787D01*
X0472018Y0130823D01*
X0471967Y0130856D01*
X0471915Y0130885D01*
X0471860Y0130912D01*
X0471805Y0130935D01*
X0471748Y0130955D01*
X0471689Y0130971D01*
X0471630Y0130984D01*
X0471571Y0130993D01*
X0471510Y0130998D01*
X0471450Y0131000D01*
X0465450Y0131000D01*
X0465390Y0130998D01*
X0465329Y0130993D01*
X0465270Y0130984D01*
X0465211Y0130971D01*
X0465152Y0130955D01*
X0465095Y0130935D01*
X0465040Y0130912D01*
X0464985Y0130885D01*
X0464933Y0130856D01*
X0464882Y0130823D01*
X0464833Y0130787D01*
X0464787Y0130749D01*
X0464743Y0130707D01*
X0464701Y0130663D01*
X0464663Y0130617D01*
X0464627Y0130568D01*
X0464594Y0130517D01*
X0464565Y0130465D01*
X0464538Y0130410D01*
X0464515Y0130355D01*
X0464495Y0130298D01*
X0464479Y0130239D01*
X0464466Y0130180D01*
X0464457Y0130121D01*
X0464452Y0130060D01*
X0464450Y0130000D01*
X0464452Y0130060D01*
X0464457Y0130121D01*
X0464466Y0130180D01*
X0464479Y0130239D01*
X0464495Y0130298D01*
X0464515Y0130355D01*
X0464538Y0130410D01*
X0464565Y0130465D01*
X0464594Y0130517D01*
X0464627Y0130568D01*
X0464663Y0130617D01*
X0464701Y0130663D01*
X0464743Y0130707D01*
X0464787Y0130749D01*
X0464833Y0130787D01*
X0464882Y0130823D01*
X0464933Y0130856D01*
X0464985Y0130885D01*
X0465040Y0130912D01*
X0465095Y0130935D01*
X0465152Y0130955D01*
X0465211Y0130971D01*
X0465270Y0130984D01*
X0465329Y0130993D01*
X0465390Y0130998D01*
X0465450Y0131000D01*
X0471450Y0131000D02*
X0471510Y0130998D01*
X0471571Y0130993D01*
X0471630Y0130984D01*
X0471689Y0130971D01*
X0471748Y0130955D01*
X0471805Y0130935D01*
X0471860Y0130912D01*
X0471915Y0130885D01*
X0471967Y0130856D01*
X0472018Y0130823D01*
X0472067Y0130787D01*
X0472113Y0130749D01*
X0472157Y0130707D01*
X0472199Y0130663D01*
X0472237Y0130617D01*
X0472273Y0130568D01*
X0472306Y0130517D01*
X0472335Y0130465D01*
X0472362Y0130410D01*
X0472385Y0130355D01*
X0472405Y0130298D01*
X0472421Y0130239D01*
X0472434Y0130180D01*
X0472443Y0130121D01*
X0472448Y0130060D01*
X0472450Y0130000D01*
X0491950Y0116000D02*
X0514950Y0116000D01*
X0514950Y0156000D01*
X0507450Y0156000D01*
X0507448Y0155874D01*
X0507442Y0155749D01*
X0507432Y0155624D01*
X0507418Y0155499D01*
X0507401Y0155374D01*
X0507379Y0155250D01*
X0507354Y0155127D01*
X0507324Y0155005D01*
X0507291Y0154884D01*
X0507254Y0154764D01*
X0507214Y0154645D01*
X0507169Y0154528D01*
X0507121Y0154411D01*
X0507069Y0154297D01*
X0507014Y0154184D01*
X0506955Y0154073D01*
X0506893Y0153964D01*
X0506827Y0153857D01*
X0506758Y0153752D01*
X0506686Y0153649D01*
X0506611Y0153548D01*
X0506532Y0153450D01*
X0506450Y0153355D01*
X0506366Y0153262D01*
X0506278Y0153172D01*
X0506188Y0153084D01*
X0506095Y0153000D01*
X0506000Y0152918D01*
X0505902Y0152839D01*
X0505801Y0152764D01*
X0505698Y0152692D01*
X0505593Y0152623D01*
X0505486Y0152557D01*
X0505377Y0152495D01*
X0505266Y0152436D01*
X0505153Y0152381D01*
X0505039Y0152329D01*
X0504922Y0152281D01*
X0504805Y0152236D01*
X0504686Y0152196D01*
X0504566Y0152159D01*
X0504445Y0152126D01*
X0504323Y0152096D01*
X0504200Y0152071D01*
X0504076Y0152049D01*
X0503951Y0152032D01*
X0503826Y0152018D01*
X0503701Y0152008D01*
X0503576Y0152002D01*
X0503450Y0152000D01*
X0503324Y0152002D01*
X0503199Y0152008D01*
X0503074Y0152018D01*
X0502949Y0152032D01*
X0502824Y0152049D01*
X0502700Y0152071D01*
X0502577Y0152096D01*
X0502455Y0152126D01*
X0502334Y0152159D01*
X0502214Y0152196D01*
X0502095Y0152236D01*
X0501978Y0152281D01*
X0501861Y0152329D01*
X0501747Y0152381D01*
X0501634Y0152436D01*
X0501523Y0152495D01*
X0501414Y0152557D01*
X0501307Y0152623D01*
X0501202Y0152692D01*
X0501099Y0152764D01*
X0500998Y0152839D01*
X0500900Y0152918D01*
X0500805Y0153000D01*
X0500712Y0153084D01*
X0500622Y0153172D01*
X0500534Y0153262D01*
X0500450Y0153355D01*
X0500368Y0153450D01*
X0500289Y0153548D01*
X0500214Y0153649D01*
X0500142Y0153752D01*
X0500073Y0153857D01*
X0500007Y0153964D01*
X0499945Y0154073D01*
X0499886Y0154184D01*
X0499831Y0154297D01*
X0499779Y0154411D01*
X0499731Y0154528D01*
X0499686Y0154645D01*
X0499646Y0154764D01*
X0499609Y0154884D01*
X0499576Y0155005D01*
X0499546Y0155127D01*
X0499521Y0155250D01*
X0499499Y0155374D01*
X0499482Y0155499D01*
X0499468Y0155624D01*
X0499458Y0155749D01*
X0499452Y0155874D01*
X0499450Y0156000D01*
X0491950Y0156000D01*
X0491950Y0116000D01*
X0472450Y0112000D02*
X0472448Y0111940D01*
X0472443Y0111879D01*
X0472434Y0111820D01*
X0472421Y0111761D01*
X0472405Y0111702D01*
X0472385Y0111645D01*
X0472362Y0111590D01*
X0472335Y0111535D01*
X0472306Y0111483D01*
X0472273Y0111432D01*
X0472237Y0111383D01*
X0472199Y0111337D01*
X0472157Y0111293D01*
X0472113Y0111251D01*
X0472067Y0111213D01*
X0472018Y0111177D01*
X0471967Y0111144D01*
X0471915Y0111115D01*
X0471860Y0111088D01*
X0471805Y0111065D01*
X0471748Y0111045D01*
X0471689Y0111029D01*
X0471630Y0111016D01*
X0471571Y0111007D01*
X0471510Y0111002D01*
X0471450Y0111000D01*
X0465450Y0111000D02*
X0465390Y0111002D01*
X0465329Y0111007D01*
X0465270Y0111016D01*
X0465211Y0111029D01*
X0465152Y0111045D01*
X0465095Y0111065D01*
X0465040Y0111088D01*
X0464985Y0111115D01*
X0464933Y0111144D01*
X0464882Y0111177D01*
X0464833Y0111213D01*
X0464787Y0111251D01*
X0464743Y0111293D01*
X0464701Y0111337D01*
X0464663Y0111383D01*
X0464627Y0111432D01*
X0464594Y0111483D01*
X0464565Y0111535D01*
X0464538Y0111590D01*
X0464515Y0111645D01*
X0464495Y0111702D01*
X0464479Y0111761D01*
X0464466Y0111820D01*
X0464457Y0111879D01*
X0464452Y0111940D01*
X0464450Y0112000D01*
X0483450Y0104500D02*
X0483450Y0077500D01*
X0483452Y0077440D01*
X0483457Y0077379D01*
X0483466Y0077320D01*
X0483479Y0077261D01*
X0483495Y0077202D01*
X0483515Y0077145D01*
X0483538Y0077090D01*
X0483565Y0077035D01*
X0483594Y0076983D01*
X0483627Y0076932D01*
X0483663Y0076883D01*
X0483701Y0076837D01*
X0483743Y0076793D01*
X0483787Y0076751D01*
X0483833Y0076713D01*
X0483882Y0076677D01*
X0483933Y0076644D01*
X0483985Y0076615D01*
X0484040Y0076588D01*
X0484095Y0076565D01*
X0484152Y0076545D01*
X0484211Y0076529D01*
X0484270Y0076516D01*
X0484329Y0076507D01*
X0484390Y0076502D01*
X0484450Y0076500D01*
X0492450Y0076500D01*
X0492510Y0076502D01*
X0492571Y0076507D01*
X0492630Y0076516D01*
X0492689Y0076529D01*
X0492748Y0076545D01*
X0492805Y0076565D01*
X0492860Y0076588D01*
X0492915Y0076615D01*
X0492967Y0076644D01*
X0493018Y0076677D01*
X0493067Y0076713D01*
X0493113Y0076751D01*
X0493157Y0076793D01*
X0493199Y0076837D01*
X0493237Y0076883D01*
X0493273Y0076932D01*
X0493306Y0076983D01*
X0493335Y0077035D01*
X0493362Y0077090D01*
X0493385Y0077145D01*
X0493405Y0077202D01*
X0493421Y0077261D01*
X0493434Y0077320D01*
X0493443Y0077379D01*
X0493448Y0077440D01*
X0493450Y0077500D01*
X0493450Y0104500D01*
X0493448Y0104560D01*
X0493443Y0104621D01*
X0493434Y0104680D01*
X0493421Y0104739D01*
X0493405Y0104798D01*
X0493385Y0104855D01*
X0493362Y0104910D01*
X0493335Y0104965D01*
X0493306Y0105017D01*
X0493273Y0105068D01*
X0493237Y0105117D01*
X0493199Y0105163D01*
X0493157Y0105207D01*
X0493113Y0105249D01*
X0493067Y0105287D01*
X0493018Y0105323D01*
X0492967Y0105356D01*
X0492915Y0105385D01*
X0492860Y0105412D01*
X0492805Y0105435D01*
X0492748Y0105455D01*
X0492689Y0105471D01*
X0492630Y0105484D01*
X0492571Y0105493D01*
X0492510Y0105498D01*
X0492450Y0105500D01*
X0484450Y0105500D01*
X0484390Y0105498D01*
X0484329Y0105493D01*
X0484270Y0105484D01*
X0484211Y0105471D01*
X0484152Y0105455D01*
X0484095Y0105435D01*
X0484040Y0105412D01*
X0483985Y0105385D01*
X0483933Y0105356D01*
X0483882Y0105323D01*
X0483833Y0105287D01*
X0483787Y0105249D01*
X0483743Y0105207D01*
X0483701Y0105163D01*
X0483663Y0105117D01*
X0483627Y0105068D01*
X0483594Y0105017D01*
X0483565Y0104965D01*
X0483538Y0104910D01*
X0483515Y0104855D01*
X0483495Y0104798D01*
X0483479Y0104739D01*
X0483466Y0104680D01*
X0483457Y0104621D01*
X0483452Y0104560D01*
X0483450Y0104500D01*
X0488450Y0097000D02*
X0488450Y0092300D01*
X0488450Y0089800D02*
X0488450Y0085000D01*
X0422860Y0101000D02*
X0422862Y0101149D01*
X0422868Y0101299D01*
X0422878Y0101448D01*
X0422892Y0101597D01*
X0422910Y0101745D01*
X0422932Y0101893D01*
X0422958Y0102040D01*
X0422987Y0102187D01*
X0423021Y0102332D01*
X0423059Y0102477D01*
X0423100Y0102620D01*
X0423145Y0102763D01*
X0423194Y0102904D01*
X0423247Y0103044D01*
X0423304Y0103182D01*
X0423364Y0103319D01*
X0423428Y0103454D01*
X0423495Y0103588D01*
X0423566Y0103719D01*
X0423640Y0103849D01*
X0423718Y0103976D01*
X0423799Y0104102D01*
X0423884Y0104225D01*
X0423972Y0104346D01*
X0424063Y0104464D01*
X0424157Y0104580D01*
X0424254Y0104694D01*
X0424355Y0104805D01*
X0424458Y0104913D01*
X0424564Y0105018D01*
X0424673Y0105121D01*
X0424784Y0105220D01*
X0424898Y0105317D01*
X0425015Y0105410D01*
X0425134Y0105500D01*
X0425256Y0105587D01*
X0425379Y0105671D01*
X0425505Y0105752D01*
X0425633Y0105829D01*
X0425764Y0105902D01*
X0425896Y0105972D01*
X0426029Y0106039D01*
X0426165Y0106102D01*
X0426302Y0106161D01*
X0426441Y0106216D01*
X0426581Y0106268D01*
X0426723Y0106316D01*
X0426865Y0106361D01*
X0427009Y0106401D01*
X0427154Y0106438D01*
X0427300Y0106470D01*
X0427447Y0106499D01*
X0427594Y0106524D01*
X0427742Y0106545D01*
X0427890Y0106562D01*
X0428039Y0106575D01*
X0428189Y0106584D01*
X0428338Y0106589D01*
X0428487Y0106590D01*
X0428637Y0106587D01*
X0428786Y0106580D01*
X0428935Y0106569D01*
X0429084Y0106554D01*
X0429232Y0106535D01*
X0429380Y0106512D01*
X0429527Y0106485D01*
X0429673Y0106455D01*
X0429818Y0106420D01*
X0429963Y0106381D01*
X0430106Y0106339D01*
X0430248Y0106293D01*
X0430389Y0106243D01*
X0430529Y0106189D01*
X0430667Y0106132D01*
X0430803Y0106071D01*
X0430938Y0106006D01*
X0431071Y0105938D01*
X0431202Y0105866D01*
X0431331Y0105790D01*
X0431458Y0105712D01*
X0431583Y0105630D01*
X0431705Y0105544D01*
X0431826Y0105456D01*
X0431944Y0105364D01*
X0432059Y0105269D01*
X0432172Y0105171D01*
X0432282Y0105070D01*
X0432389Y0104966D01*
X0432494Y0104859D01*
X0432596Y0104750D01*
X0432695Y0104638D01*
X0432790Y0104523D01*
X0432883Y0104405D01*
X0432972Y0104286D01*
X0433059Y0104164D01*
X0433142Y0104039D01*
X0433221Y0103913D01*
X0433297Y0103784D01*
X0433370Y0103654D01*
X0433439Y0103521D01*
X0433505Y0103387D01*
X0433567Y0103251D01*
X0433625Y0103113D01*
X0433680Y0102974D01*
X0433731Y0102834D01*
X0433778Y0102692D01*
X0433821Y0102549D01*
X0433861Y0102405D01*
X0433896Y0102259D01*
X0433928Y0102113D01*
X0433956Y0101967D01*
X0433980Y0101819D01*
X0434000Y0101671D01*
X0434016Y0101522D01*
X0434028Y0101373D01*
X0434036Y0101224D01*
X0434040Y0101075D01*
X0434040Y0100925D01*
X0434036Y0100776D01*
X0434028Y0100627D01*
X0434016Y0100478D01*
X0434000Y0100329D01*
X0433980Y0100181D01*
X0433956Y0100033D01*
X0433928Y0099887D01*
X0433896Y0099741D01*
X0433861Y0099595D01*
X0433821Y0099451D01*
X0433778Y0099308D01*
X0433731Y0099166D01*
X0433680Y0099026D01*
X0433625Y0098887D01*
X0433567Y0098749D01*
X0433505Y0098613D01*
X0433439Y0098479D01*
X0433370Y0098346D01*
X0433297Y0098216D01*
X0433221Y0098087D01*
X0433142Y0097961D01*
X0433059Y0097836D01*
X0432972Y0097714D01*
X0432883Y0097595D01*
X0432790Y0097477D01*
X0432695Y0097362D01*
X0432596Y0097250D01*
X0432494Y0097141D01*
X0432389Y0097034D01*
X0432282Y0096930D01*
X0432172Y0096829D01*
X0432059Y0096731D01*
X0431944Y0096636D01*
X0431826Y0096544D01*
X0431705Y0096456D01*
X0431583Y0096370D01*
X0431458Y0096288D01*
X0431331Y0096210D01*
X0431202Y0096134D01*
X0431071Y0096062D01*
X0430938Y0095994D01*
X0430803Y0095929D01*
X0430667Y0095868D01*
X0430529Y0095811D01*
X0430389Y0095757D01*
X0430248Y0095707D01*
X0430106Y0095661D01*
X0429963Y0095619D01*
X0429818Y0095580D01*
X0429673Y0095545D01*
X0429527Y0095515D01*
X0429380Y0095488D01*
X0429232Y0095465D01*
X0429084Y0095446D01*
X0428935Y0095431D01*
X0428786Y0095420D01*
X0428637Y0095413D01*
X0428487Y0095410D01*
X0428338Y0095411D01*
X0428189Y0095416D01*
X0428039Y0095425D01*
X0427890Y0095438D01*
X0427742Y0095455D01*
X0427594Y0095476D01*
X0427447Y0095501D01*
X0427300Y0095530D01*
X0427154Y0095562D01*
X0427009Y0095599D01*
X0426865Y0095639D01*
X0426723Y0095684D01*
X0426581Y0095732D01*
X0426441Y0095784D01*
X0426302Y0095839D01*
X0426165Y0095898D01*
X0426029Y0095961D01*
X0425896Y0096028D01*
X0425764Y0096098D01*
X0425633Y0096171D01*
X0425505Y0096248D01*
X0425379Y0096329D01*
X0425256Y0096413D01*
X0425134Y0096500D01*
X0425015Y0096590D01*
X0424898Y0096683D01*
X0424784Y0096780D01*
X0424673Y0096879D01*
X0424564Y0096982D01*
X0424458Y0097087D01*
X0424355Y0097195D01*
X0424254Y0097306D01*
X0424157Y0097420D01*
X0424063Y0097536D01*
X0423972Y0097654D01*
X0423884Y0097775D01*
X0423799Y0097898D01*
X0423718Y0098024D01*
X0423640Y0098151D01*
X0423566Y0098281D01*
X0423495Y0098412D01*
X0423428Y0098546D01*
X0423364Y0098681D01*
X0423304Y0098818D01*
X0423247Y0098956D01*
X0423194Y0099096D01*
X0423145Y0099237D01*
X0423100Y0099380D01*
X0423059Y0099523D01*
X0423021Y0099668D01*
X0422987Y0099813D01*
X0422958Y0099960D01*
X0422932Y0100107D01*
X0422910Y0100255D01*
X0422892Y0100403D01*
X0422878Y0100552D01*
X0422868Y0100701D01*
X0422862Y0100851D01*
X0422860Y0101000D01*
X0413450Y0101000D02*
X0413455Y0101368D01*
X0413468Y0101736D01*
X0413491Y0102103D01*
X0413522Y0102470D01*
X0413563Y0102836D01*
X0413612Y0103201D01*
X0413671Y0103564D01*
X0413738Y0103926D01*
X0413814Y0104287D01*
X0413900Y0104645D01*
X0413993Y0105001D01*
X0414096Y0105354D01*
X0414207Y0105705D01*
X0414327Y0106053D01*
X0414455Y0106398D01*
X0414592Y0106740D01*
X0414737Y0107079D01*
X0414890Y0107413D01*
X0415052Y0107744D01*
X0415221Y0108071D01*
X0415399Y0108393D01*
X0415584Y0108712D01*
X0415777Y0109025D01*
X0415978Y0109334D01*
X0416186Y0109637D01*
X0416402Y0109935D01*
X0416625Y0110228D01*
X0416855Y0110516D01*
X0417092Y0110798D01*
X0417336Y0111073D01*
X0417586Y0111343D01*
X0417843Y0111607D01*
X0418107Y0111864D01*
X0418377Y0112114D01*
X0418652Y0112358D01*
X0418934Y0112595D01*
X0419222Y0112825D01*
X0419515Y0113048D01*
X0419813Y0113264D01*
X0420116Y0113472D01*
X0420425Y0113673D01*
X0420738Y0113866D01*
X0421057Y0114051D01*
X0421379Y0114229D01*
X0421706Y0114398D01*
X0422037Y0114560D01*
X0422371Y0114713D01*
X0422710Y0114858D01*
X0423052Y0114995D01*
X0423397Y0115123D01*
X0423745Y0115243D01*
X0424096Y0115354D01*
X0424449Y0115457D01*
X0424805Y0115550D01*
X0425163Y0115636D01*
X0425524Y0115712D01*
X0425886Y0115779D01*
X0426249Y0115838D01*
X0426614Y0115887D01*
X0426980Y0115928D01*
X0427347Y0115959D01*
X0427714Y0115982D01*
X0428082Y0115995D01*
X0428450Y0116000D01*
X0428818Y0115995D01*
X0429186Y0115982D01*
X0429553Y0115959D01*
X0429920Y0115928D01*
X0430286Y0115887D01*
X0430651Y0115838D01*
X0431014Y0115779D01*
X0431376Y0115712D01*
X0431737Y0115636D01*
X0432095Y0115550D01*
X0432451Y0115457D01*
X0432804Y0115354D01*
X0433155Y0115243D01*
X0433503Y0115123D01*
X0433848Y0114995D01*
X0434190Y0114858D01*
X0434529Y0114713D01*
X0434863Y0114560D01*
X0435194Y0114398D01*
X0435521Y0114229D01*
X0435843Y0114051D01*
X0436162Y0113866D01*
X0436475Y0113673D01*
X0436784Y0113472D01*
X0437087Y0113264D01*
X0437385Y0113048D01*
X0437678Y0112825D01*
X0437966Y0112595D01*
X0438248Y0112358D01*
X0438523Y0112114D01*
X0438793Y0111864D01*
X0439057Y0111607D01*
X0439314Y0111343D01*
X0439564Y0111073D01*
X0439808Y0110798D01*
X0440045Y0110516D01*
X0440275Y0110228D01*
X0440498Y0109935D01*
X0440714Y0109637D01*
X0440922Y0109334D01*
X0441123Y0109025D01*
X0441316Y0108712D01*
X0441501Y0108393D01*
X0441679Y0108071D01*
X0441848Y0107744D01*
X0442010Y0107413D01*
X0442163Y0107079D01*
X0442308Y0106740D01*
X0442445Y0106398D01*
X0442573Y0106053D01*
X0442693Y0105705D01*
X0442804Y0105354D01*
X0442907Y0105001D01*
X0443000Y0104645D01*
X0443086Y0104287D01*
X0443162Y0103926D01*
X0443229Y0103564D01*
X0443288Y0103201D01*
X0443337Y0102836D01*
X0443378Y0102470D01*
X0443409Y0102103D01*
X0443432Y0101736D01*
X0443445Y0101368D01*
X0443450Y0101000D01*
X0443445Y0100632D01*
X0443432Y0100264D01*
X0443409Y0099897D01*
X0443378Y0099530D01*
X0443337Y0099164D01*
X0443288Y0098799D01*
X0443229Y0098436D01*
X0443162Y0098074D01*
X0443086Y0097713D01*
X0443000Y0097355D01*
X0442907Y0096999D01*
X0442804Y0096646D01*
X0442693Y0096295D01*
X0442573Y0095947D01*
X0442445Y0095602D01*
X0442308Y0095260D01*
X0442163Y0094921D01*
X0442010Y0094587D01*
X0441848Y0094256D01*
X0441679Y0093929D01*
X0441501Y0093607D01*
X0441316Y0093288D01*
X0441123Y0092975D01*
X0440922Y0092666D01*
X0440714Y0092363D01*
X0440498Y0092065D01*
X0440275Y0091772D01*
X0440045Y0091484D01*
X0439808Y0091202D01*
X0439564Y0090927D01*
X0439314Y0090657D01*
X0439057Y0090393D01*
X0438793Y0090136D01*
X0438523Y0089886D01*
X0438248Y0089642D01*
X0437966Y0089405D01*
X0437678Y0089175D01*
X0437385Y0088952D01*
X0437087Y0088736D01*
X0436784Y0088528D01*
X0436475Y0088327D01*
X0436162Y0088134D01*
X0435843Y0087949D01*
X0435521Y0087771D01*
X0435194Y0087602D01*
X0434863Y0087440D01*
X0434529Y0087287D01*
X0434190Y0087142D01*
X0433848Y0087005D01*
X0433503Y0086877D01*
X0433155Y0086757D01*
X0432804Y0086646D01*
X0432451Y0086543D01*
X0432095Y0086450D01*
X0431737Y0086364D01*
X0431376Y0086288D01*
X0431014Y0086221D01*
X0430651Y0086162D01*
X0430286Y0086113D01*
X0429920Y0086072D01*
X0429553Y0086041D01*
X0429186Y0086018D01*
X0428818Y0086005D01*
X0428450Y0086000D01*
X0428082Y0086005D01*
X0427714Y0086018D01*
X0427347Y0086041D01*
X0426980Y0086072D01*
X0426614Y0086113D01*
X0426249Y0086162D01*
X0425886Y0086221D01*
X0425524Y0086288D01*
X0425163Y0086364D01*
X0424805Y0086450D01*
X0424449Y0086543D01*
X0424096Y0086646D01*
X0423745Y0086757D01*
X0423397Y0086877D01*
X0423052Y0087005D01*
X0422710Y0087142D01*
X0422371Y0087287D01*
X0422037Y0087440D01*
X0421706Y0087602D01*
X0421379Y0087771D01*
X0421057Y0087949D01*
X0420738Y0088134D01*
X0420425Y0088327D01*
X0420116Y0088528D01*
X0419813Y0088736D01*
X0419515Y0088952D01*
X0419222Y0089175D01*
X0418934Y0089405D01*
X0418652Y0089642D01*
X0418377Y0089886D01*
X0418107Y0090136D01*
X0417843Y0090393D01*
X0417586Y0090657D01*
X0417336Y0090927D01*
X0417092Y0091202D01*
X0416855Y0091484D01*
X0416625Y0091772D01*
X0416402Y0092065D01*
X0416186Y0092363D01*
X0415978Y0092666D01*
X0415777Y0092975D01*
X0415584Y0093288D01*
X0415399Y0093607D01*
X0415221Y0093929D01*
X0415052Y0094256D01*
X0414890Y0094587D01*
X0414737Y0094921D01*
X0414592Y0095260D01*
X0414455Y0095602D01*
X0414327Y0095947D01*
X0414207Y0096295D01*
X0414096Y0096646D01*
X0413993Y0096999D01*
X0413900Y0097355D01*
X0413814Y0097713D01*
X0413738Y0098074D01*
X0413671Y0098436D01*
X0413612Y0098799D01*
X0413563Y0099164D01*
X0413522Y0099530D01*
X0413491Y0099897D01*
X0413468Y0100264D01*
X0413455Y0100632D01*
X0413450Y0101000D01*
X0362450Y0102000D02*
X0362448Y0101940D01*
X0362443Y0101879D01*
X0362434Y0101820D01*
X0362421Y0101761D01*
X0362405Y0101702D01*
X0362385Y0101645D01*
X0362362Y0101590D01*
X0362335Y0101535D01*
X0362306Y0101483D01*
X0362273Y0101432D01*
X0362237Y0101383D01*
X0362199Y0101337D01*
X0362157Y0101293D01*
X0362113Y0101251D01*
X0362067Y0101213D01*
X0362018Y0101177D01*
X0361967Y0101144D01*
X0361915Y0101115D01*
X0361860Y0101088D01*
X0361805Y0101065D01*
X0361748Y0101045D01*
X0361689Y0101029D01*
X0361630Y0101016D01*
X0361571Y0101007D01*
X0361510Y0101002D01*
X0361450Y0101000D01*
X0355450Y0101000D02*
X0355390Y0101002D01*
X0355329Y0101007D01*
X0355270Y0101016D01*
X0355211Y0101029D01*
X0355152Y0101045D01*
X0355095Y0101065D01*
X0355040Y0101088D01*
X0354985Y0101115D01*
X0354933Y0101144D01*
X0354882Y0101177D01*
X0354833Y0101213D01*
X0354787Y0101251D01*
X0354743Y0101293D01*
X0354701Y0101337D01*
X0354663Y0101383D01*
X0354627Y0101432D01*
X0354594Y0101483D01*
X0354565Y0101535D01*
X0354538Y0101590D01*
X0354515Y0101645D01*
X0354495Y0101702D01*
X0354479Y0101761D01*
X0354466Y0101820D01*
X0354457Y0101879D01*
X0354452Y0101940D01*
X0354450Y0102000D01*
X0322860Y0081000D02*
X0322862Y0081149D01*
X0322868Y0081299D01*
X0322878Y0081448D01*
X0322892Y0081597D01*
X0322910Y0081745D01*
X0322932Y0081893D01*
X0322958Y0082040D01*
X0322987Y0082187D01*
X0323021Y0082332D01*
X0323059Y0082477D01*
X0323100Y0082620D01*
X0323145Y0082763D01*
X0323194Y0082904D01*
X0323247Y0083044D01*
X0323304Y0083182D01*
X0323364Y0083319D01*
X0323428Y0083454D01*
X0323495Y0083588D01*
X0323566Y0083719D01*
X0323640Y0083849D01*
X0323718Y0083976D01*
X0323799Y0084102D01*
X0323884Y0084225D01*
X0323972Y0084346D01*
X0324063Y0084464D01*
X0324157Y0084580D01*
X0324254Y0084694D01*
X0324355Y0084805D01*
X0324458Y0084913D01*
X0324564Y0085018D01*
X0324673Y0085121D01*
X0324784Y0085220D01*
X0324898Y0085317D01*
X0325015Y0085410D01*
X0325134Y0085500D01*
X0325256Y0085587D01*
X0325379Y0085671D01*
X0325505Y0085752D01*
X0325633Y0085829D01*
X0325764Y0085902D01*
X0325896Y0085972D01*
X0326029Y0086039D01*
X0326165Y0086102D01*
X0326302Y0086161D01*
X0326441Y0086216D01*
X0326581Y0086268D01*
X0326723Y0086316D01*
X0326865Y0086361D01*
X0327009Y0086401D01*
X0327154Y0086438D01*
X0327300Y0086470D01*
X0327447Y0086499D01*
X0327594Y0086524D01*
X0327742Y0086545D01*
X0327890Y0086562D01*
X0328039Y0086575D01*
X0328189Y0086584D01*
X0328338Y0086589D01*
X0328487Y0086590D01*
X0328637Y0086587D01*
X0328786Y0086580D01*
X0328935Y0086569D01*
X0329084Y0086554D01*
X0329232Y0086535D01*
X0329380Y0086512D01*
X0329527Y0086485D01*
X0329673Y0086455D01*
X0329818Y0086420D01*
X0329963Y0086381D01*
X0330106Y0086339D01*
X0330248Y0086293D01*
X0330389Y0086243D01*
X0330529Y0086189D01*
X0330667Y0086132D01*
X0330803Y0086071D01*
X0330938Y0086006D01*
X0331071Y0085938D01*
X0331202Y0085866D01*
X0331331Y0085790D01*
X0331458Y0085712D01*
X0331583Y0085630D01*
X0331705Y0085544D01*
X0331826Y0085456D01*
X0331944Y0085364D01*
X0332059Y0085269D01*
X0332172Y0085171D01*
X0332282Y0085070D01*
X0332389Y0084966D01*
X0332494Y0084859D01*
X0332596Y0084750D01*
X0332695Y0084638D01*
X0332790Y0084523D01*
X0332883Y0084405D01*
X0332972Y0084286D01*
X0333059Y0084164D01*
X0333142Y0084039D01*
X0333221Y0083913D01*
X0333297Y0083784D01*
X0333370Y0083654D01*
X0333439Y0083521D01*
X0333505Y0083387D01*
X0333567Y0083251D01*
X0333625Y0083113D01*
X0333680Y0082974D01*
X0333731Y0082834D01*
X0333778Y0082692D01*
X0333821Y0082549D01*
X0333861Y0082405D01*
X0333896Y0082259D01*
X0333928Y0082113D01*
X0333956Y0081967D01*
X0333980Y0081819D01*
X0334000Y0081671D01*
X0334016Y0081522D01*
X0334028Y0081373D01*
X0334036Y0081224D01*
X0334040Y0081075D01*
X0334040Y0080925D01*
X0334036Y0080776D01*
X0334028Y0080627D01*
X0334016Y0080478D01*
X0334000Y0080329D01*
X0333980Y0080181D01*
X0333956Y0080033D01*
X0333928Y0079887D01*
X0333896Y0079741D01*
X0333861Y0079595D01*
X0333821Y0079451D01*
X0333778Y0079308D01*
X0333731Y0079166D01*
X0333680Y0079026D01*
X0333625Y0078887D01*
X0333567Y0078749D01*
X0333505Y0078613D01*
X0333439Y0078479D01*
X0333370Y0078346D01*
X0333297Y0078216D01*
X0333221Y0078087D01*
X0333142Y0077961D01*
X0333059Y0077836D01*
X0332972Y0077714D01*
X0332883Y0077595D01*
X0332790Y0077477D01*
X0332695Y0077362D01*
X0332596Y0077250D01*
X0332494Y0077141D01*
X0332389Y0077034D01*
X0332282Y0076930D01*
X0332172Y0076829D01*
X0332059Y0076731D01*
X0331944Y0076636D01*
X0331826Y0076544D01*
X0331705Y0076456D01*
X0331583Y0076370D01*
X0331458Y0076288D01*
X0331331Y0076210D01*
X0331202Y0076134D01*
X0331071Y0076062D01*
X0330938Y0075994D01*
X0330803Y0075929D01*
X0330667Y0075868D01*
X0330529Y0075811D01*
X0330389Y0075757D01*
X0330248Y0075707D01*
X0330106Y0075661D01*
X0329963Y0075619D01*
X0329818Y0075580D01*
X0329673Y0075545D01*
X0329527Y0075515D01*
X0329380Y0075488D01*
X0329232Y0075465D01*
X0329084Y0075446D01*
X0328935Y0075431D01*
X0328786Y0075420D01*
X0328637Y0075413D01*
X0328487Y0075410D01*
X0328338Y0075411D01*
X0328189Y0075416D01*
X0328039Y0075425D01*
X0327890Y0075438D01*
X0327742Y0075455D01*
X0327594Y0075476D01*
X0327447Y0075501D01*
X0327300Y0075530D01*
X0327154Y0075562D01*
X0327009Y0075599D01*
X0326865Y0075639D01*
X0326723Y0075684D01*
X0326581Y0075732D01*
X0326441Y0075784D01*
X0326302Y0075839D01*
X0326165Y0075898D01*
X0326029Y0075961D01*
X0325896Y0076028D01*
X0325764Y0076098D01*
X0325633Y0076171D01*
X0325505Y0076248D01*
X0325379Y0076329D01*
X0325256Y0076413D01*
X0325134Y0076500D01*
X0325015Y0076590D01*
X0324898Y0076683D01*
X0324784Y0076780D01*
X0324673Y0076879D01*
X0324564Y0076982D01*
X0324458Y0077087D01*
X0324355Y0077195D01*
X0324254Y0077306D01*
X0324157Y0077420D01*
X0324063Y0077536D01*
X0323972Y0077654D01*
X0323884Y0077775D01*
X0323799Y0077898D01*
X0323718Y0078024D01*
X0323640Y0078151D01*
X0323566Y0078281D01*
X0323495Y0078412D01*
X0323428Y0078546D01*
X0323364Y0078681D01*
X0323304Y0078818D01*
X0323247Y0078956D01*
X0323194Y0079096D01*
X0323145Y0079237D01*
X0323100Y0079380D01*
X0323059Y0079523D01*
X0323021Y0079668D01*
X0322987Y0079813D01*
X0322958Y0079960D01*
X0322932Y0080107D01*
X0322910Y0080255D01*
X0322892Y0080403D01*
X0322878Y0080552D01*
X0322868Y0080701D01*
X0322862Y0080851D01*
X0322860Y0081000D01*
X0313450Y0081000D02*
X0313455Y0081368D01*
X0313468Y0081736D01*
X0313491Y0082103D01*
X0313522Y0082470D01*
X0313563Y0082836D01*
X0313612Y0083201D01*
X0313671Y0083564D01*
X0313738Y0083926D01*
X0313814Y0084287D01*
X0313900Y0084645D01*
X0313993Y0085001D01*
X0314096Y0085354D01*
X0314207Y0085705D01*
X0314327Y0086053D01*
X0314455Y0086398D01*
X0314592Y0086740D01*
X0314737Y0087079D01*
X0314890Y0087413D01*
X0315052Y0087744D01*
X0315221Y0088071D01*
X0315399Y0088393D01*
X0315584Y0088712D01*
X0315777Y0089025D01*
X0315978Y0089334D01*
X0316186Y0089637D01*
X0316402Y0089935D01*
X0316625Y0090228D01*
X0316855Y0090516D01*
X0317092Y0090798D01*
X0317336Y0091073D01*
X0317586Y0091343D01*
X0317843Y0091607D01*
X0318107Y0091864D01*
X0318377Y0092114D01*
X0318652Y0092358D01*
X0318934Y0092595D01*
X0319222Y0092825D01*
X0319515Y0093048D01*
X0319813Y0093264D01*
X0320116Y0093472D01*
X0320425Y0093673D01*
X0320738Y0093866D01*
X0321057Y0094051D01*
X0321379Y0094229D01*
X0321706Y0094398D01*
X0322037Y0094560D01*
X0322371Y0094713D01*
X0322710Y0094858D01*
X0323052Y0094995D01*
X0323397Y0095123D01*
X0323745Y0095243D01*
X0324096Y0095354D01*
X0324449Y0095457D01*
X0324805Y0095550D01*
X0325163Y0095636D01*
X0325524Y0095712D01*
X0325886Y0095779D01*
X0326249Y0095838D01*
X0326614Y0095887D01*
X0326980Y0095928D01*
X0327347Y0095959D01*
X0327714Y0095982D01*
X0328082Y0095995D01*
X0328450Y0096000D01*
X0328818Y0095995D01*
X0329186Y0095982D01*
X0329553Y0095959D01*
X0329920Y0095928D01*
X0330286Y0095887D01*
X0330651Y0095838D01*
X0331014Y0095779D01*
X0331376Y0095712D01*
X0331737Y0095636D01*
X0332095Y0095550D01*
X0332451Y0095457D01*
X0332804Y0095354D01*
X0333155Y0095243D01*
X0333503Y0095123D01*
X0333848Y0094995D01*
X0334190Y0094858D01*
X0334529Y0094713D01*
X0334863Y0094560D01*
X0335194Y0094398D01*
X0335521Y0094229D01*
X0335843Y0094051D01*
X0336162Y0093866D01*
X0336475Y0093673D01*
X0336784Y0093472D01*
X0337087Y0093264D01*
X0337385Y0093048D01*
X0337678Y0092825D01*
X0337966Y0092595D01*
X0338248Y0092358D01*
X0338523Y0092114D01*
X0338793Y0091864D01*
X0339057Y0091607D01*
X0339314Y0091343D01*
X0339564Y0091073D01*
X0339808Y0090798D01*
X0340045Y0090516D01*
X0340275Y0090228D01*
X0340498Y0089935D01*
X0340714Y0089637D01*
X0340922Y0089334D01*
X0341123Y0089025D01*
X0341316Y0088712D01*
X0341501Y0088393D01*
X0341679Y0088071D01*
X0341848Y0087744D01*
X0342010Y0087413D01*
X0342163Y0087079D01*
X0342308Y0086740D01*
X0342445Y0086398D01*
X0342573Y0086053D01*
X0342693Y0085705D01*
X0342804Y0085354D01*
X0342907Y0085001D01*
X0343000Y0084645D01*
X0343086Y0084287D01*
X0343162Y0083926D01*
X0343229Y0083564D01*
X0343288Y0083201D01*
X0343337Y0082836D01*
X0343378Y0082470D01*
X0343409Y0082103D01*
X0343432Y0081736D01*
X0343445Y0081368D01*
X0343450Y0081000D01*
X0343445Y0080632D01*
X0343432Y0080264D01*
X0343409Y0079897D01*
X0343378Y0079530D01*
X0343337Y0079164D01*
X0343288Y0078799D01*
X0343229Y0078436D01*
X0343162Y0078074D01*
X0343086Y0077713D01*
X0343000Y0077355D01*
X0342907Y0076999D01*
X0342804Y0076646D01*
X0342693Y0076295D01*
X0342573Y0075947D01*
X0342445Y0075602D01*
X0342308Y0075260D01*
X0342163Y0074921D01*
X0342010Y0074587D01*
X0341848Y0074256D01*
X0341679Y0073929D01*
X0341501Y0073607D01*
X0341316Y0073288D01*
X0341123Y0072975D01*
X0340922Y0072666D01*
X0340714Y0072363D01*
X0340498Y0072065D01*
X0340275Y0071772D01*
X0340045Y0071484D01*
X0339808Y0071202D01*
X0339564Y0070927D01*
X0339314Y0070657D01*
X0339057Y0070393D01*
X0338793Y0070136D01*
X0338523Y0069886D01*
X0338248Y0069642D01*
X0337966Y0069405D01*
X0337678Y0069175D01*
X0337385Y0068952D01*
X0337087Y0068736D01*
X0336784Y0068528D01*
X0336475Y0068327D01*
X0336162Y0068134D01*
X0335843Y0067949D01*
X0335521Y0067771D01*
X0335194Y0067602D01*
X0334863Y0067440D01*
X0334529Y0067287D01*
X0334190Y0067142D01*
X0333848Y0067005D01*
X0333503Y0066877D01*
X0333155Y0066757D01*
X0332804Y0066646D01*
X0332451Y0066543D01*
X0332095Y0066450D01*
X0331737Y0066364D01*
X0331376Y0066288D01*
X0331014Y0066221D01*
X0330651Y0066162D01*
X0330286Y0066113D01*
X0329920Y0066072D01*
X0329553Y0066041D01*
X0329186Y0066018D01*
X0328818Y0066005D01*
X0328450Y0066000D01*
X0328082Y0066005D01*
X0327714Y0066018D01*
X0327347Y0066041D01*
X0326980Y0066072D01*
X0326614Y0066113D01*
X0326249Y0066162D01*
X0325886Y0066221D01*
X0325524Y0066288D01*
X0325163Y0066364D01*
X0324805Y0066450D01*
X0324449Y0066543D01*
X0324096Y0066646D01*
X0323745Y0066757D01*
X0323397Y0066877D01*
X0323052Y0067005D01*
X0322710Y0067142D01*
X0322371Y0067287D01*
X0322037Y0067440D01*
X0321706Y0067602D01*
X0321379Y0067771D01*
X0321057Y0067949D01*
X0320738Y0068134D01*
X0320425Y0068327D01*
X0320116Y0068528D01*
X0319813Y0068736D01*
X0319515Y0068952D01*
X0319222Y0069175D01*
X0318934Y0069405D01*
X0318652Y0069642D01*
X0318377Y0069886D01*
X0318107Y0070136D01*
X0317843Y0070393D01*
X0317586Y0070657D01*
X0317336Y0070927D01*
X0317092Y0071202D01*
X0316855Y0071484D01*
X0316625Y0071772D01*
X0316402Y0072065D01*
X0316186Y0072363D01*
X0315978Y0072666D01*
X0315777Y0072975D01*
X0315584Y0073288D01*
X0315399Y0073607D01*
X0315221Y0073929D01*
X0315052Y0074256D01*
X0314890Y0074587D01*
X0314737Y0074921D01*
X0314592Y0075260D01*
X0314455Y0075602D01*
X0314327Y0075947D01*
X0314207Y0076295D01*
X0314096Y0076646D01*
X0313993Y0076999D01*
X0313900Y0077355D01*
X0313814Y0077713D01*
X0313738Y0078074D01*
X0313671Y0078436D01*
X0313612Y0078799D01*
X0313563Y0079164D01*
X0313522Y0079530D01*
X0313491Y0079897D01*
X0313468Y0080264D01*
X0313455Y0080632D01*
X0313450Y0081000D01*
X0088450Y0098000D02*
X0088450Y0104000D01*
X0088448Y0104060D01*
X0088443Y0104121D01*
X0088434Y0104180D01*
X0088421Y0104239D01*
X0088405Y0104298D01*
X0088385Y0104355D01*
X0088362Y0104410D01*
X0088335Y0104465D01*
X0088306Y0104517D01*
X0088273Y0104568D01*
X0088237Y0104617D01*
X0088199Y0104663D01*
X0088157Y0104707D01*
X0088113Y0104749D01*
X0088067Y0104787D01*
X0088018Y0104823D01*
X0087967Y0104856D01*
X0087915Y0104885D01*
X0087860Y0104912D01*
X0087805Y0104935D01*
X0087748Y0104955D01*
X0087689Y0104971D01*
X0087630Y0104984D01*
X0087571Y0104993D01*
X0087510Y0104998D01*
X0087450Y0105000D01*
X0085950Y0105000D01*
X0085450Y0104500D01*
X0071450Y0104500D01*
X0070950Y0105000D01*
X0069450Y0105000D01*
X0069390Y0104998D01*
X0069329Y0104993D01*
X0069270Y0104984D01*
X0069211Y0104971D01*
X0069152Y0104955D01*
X0069095Y0104935D01*
X0069040Y0104912D01*
X0068985Y0104885D01*
X0068933Y0104856D01*
X0068882Y0104823D01*
X0068833Y0104787D01*
X0068787Y0104749D01*
X0068743Y0104707D01*
X0068701Y0104663D01*
X0068663Y0104617D01*
X0068627Y0104568D01*
X0068594Y0104517D01*
X0068565Y0104465D01*
X0068538Y0104410D01*
X0068515Y0104355D01*
X0068495Y0104298D01*
X0068479Y0104239D01*
X0068466Y0104180D01*
X0068457Y0104121D01*
X0068452Y0104060D01*
X0068450Y0104000D01*
X0068450Y0098000D01*
X0068452Y0097940D01*
X0068457Y0097879D01*
X0068466Y0097820D01*
X0068479Y0097761D01*
X0068495Y0097702D01*
X0068515Y0097645D01*
X0068538Y0097590D01*
X0068565Y0097535D01*
X0068594Y0097483D01*
X0068627Y0097432D01*
X0068663Y0097383D01*
X0068701Y0097337D01*
X0068743Y0097293D01*
X0068787Y0097251D01*
X0068833Y0097213D01*
X0068882Y0097177D01*
X0068933Y0097144D01*
X0068985Y0097115D01*
X0069040Y0097088D01*
X0069095Y0097065D01*
X0069152Y0097045D01*
X0069211Y0097029D01*
X0069270Y0097016D01*
X0069329Y0097007D01*
X0069390Y0097002D01*
X0069450Y0097000D01*
X0070950Y0097000D01*
X0071450Y0097500D01*
X0085450Y0097500D01*
X0085950Y0097000D01*
X0087450Y0097000D01*
X0087510Y0097002D01*
X0087571Y0097007D01*
X0087630Y0097016D01*
X0087689Y0097029D01*
X0087748Y0097045D01*
X0087805Y0097065D01*
X0087860Y0097088D01*
X0087915Y0097115D01*
X0087967Y0097144D01*
X0088018Y0097177D01*
X0088067Y0097213D01*
X0088113Y0097251D01*
X0088157Y0097293D01*
X0088199Y0097337D01*
X0088237Y0097383D01*
X0088273Y0097432D01*
X0088306Y0097483D01*
X0088335Y0097535D01*
X0088362Y0097590D01*
X0088385Y0097645D01*
X0088405Y0097702D01*
X0088421Y0097761D01*
X0088434Y0097820D01*
X0088443Y0097879D01*
X0088448Y0097940D01*
X0088450Y0098000D01*
X0088448Y0097940D01*
X0088443Y0097879D01*
X0088434Y0097820D01*
X0088421Y0097761D01*
X0088405Y0097702D01*
X0088385Y0097645D01*
X0088362Y0097590D01*
X0088335Y0097535D01*
X0088306Y0097483D01*
X0088273Y0097432D01*
X0088237Y0097383D01*
X0088199Y0097337D01*
X0088157Y0097293D01*
X0088113Y0097251D01*
X0088067Y0097213D01*
X0088018Y0097177D01*
X0087967Y0097144D01*
X0087915Y0097115D01*
X0087860Y0097088D01*
X0087805Y0097065D01*
X0087748Y0097045D01*
X0087689Y0097029D01*
X0087630Y0097016D01*
X0087571Y0097007D01*
X0087510Y0097002D01*
X0087450Y0097000D01*
X0088450Y0104000D02*
X0088448Y0104060D01*
X0088443Y0104121D01*
X0088434Y0104180D01*
X0088421Y0104239D01*
X0088405Y0104298D01*
X0088385Y0104355D01*
X0088362Y0104410D01*
X0088335Y0104465D01*
X0088306Y0104517D01*
X0088273Y0104568D01*
X0088237Y0104617D01*
X0088199Y0104663D01*
X0088157Y0104707D01*
X0088113Y0104749D01*
X0088067Y0104787D01*
X0088018Y0104823D01*
X0087967Y0104856D01*
X0087915Y0104885D01*
X0087860Y0104912D01*
X0087805Y0104935D01*
X0087748Y0104955D01*
X0087689Y0104971D01*
X0087630Y0104984D01*
X0087571Y0104993D01*
X0087510Y0104998D01*
X0087450Y0105000D01*
X0069450Y0105000D02*
X0069390Y0104998D01*
X0069329Y0104993D01*
X0069270Y0104984D01*
X0069211Y0104971D01*
X0069152Y0104955D01*
X0069095Y0104935D01*
X0069040Y0104912D01*
X0068985Y0104885D01*
X0068933Y0104856D01*
X0068882Y0104823D01*
X0068833Y0104787D01*
X0068787Y0104749D01*
X0068743Y0104707D01*
X0068701Y0104663D01*
X0068663Y0104617D01*
X0068627Y0104568D01*
X0068594Y0104517D01*
X0068565Y0104465D01*
X0068538Y0104410D01*
X0068515Y0104355D01*
X0068495Y0104298D01*
X0068479Y0104239D01*
X0068466Y0104180D01*
X0068457Y0104121D01*
X0068452Y0104060D01*
X0068450Y0104000D01*
X0068450Y0098000D02*
X0068452Y0097940D01*
X0068457Y0097879D01*
X0068466Y0097820D01*
X0068479Y0097761D01*
X0068495Y0097702D01*
X0068515Y0097645D01*
X0068538Y0097590D01*
X0068565Y0097535D01*
X0068594Y0097483D01*
X0068627Y0097432D01*
X0068663Y0097383D01*
X0068701Y0097337D01*
X0068743Y0097293D01*
X0068787Y0097251D01*
X0068833Y0097213D01*
X0068882Y0097177D01*
X0068933Y0097144D01*
X0068985Y0097115D01*
X0069040Y0097088D01*
X0069095Y0097065D01*
X0069152Y0097045D01*
X0069211Y0097029D01*
X0069270Y0097016D01*
X0069329Y0097007D01*
X0069390Y0097002D01*
X0069450Y0097000D01*
D17*
X0328450Y0111000D03*
X0328450Y0081000D03*
X0428450Y0101000D03*
X0448450Y0131000D03*
D18*
X0448450Y0131000D03*
X0428450Y0101000D03*
X0328450Y0111000D03*
X0328450Y0081000D03*
D19*
X0358450Y0100250D03*
X0358450Y0100250D03*
X0348450Y0110250D03*
X0348450Y0110250D03*
X0358450Y0121750D03*
X0358450Y0121750D03*
X0348450Y0131750D03*
X0348450Y0131750D03*
X0308450Y0150250D03*
X0308450Y0150250D03*
X0308450Y0171750D03*
X0308450Y0171750D03*
X0418450Y0151750D03*
X0418450Y0151750D03*
X0418450Y0130250D03*
X0418450Y0130250D03*
X0468450Y0131750D03*
X0468450Y0131750D03*
X0468450Y0110250D03*
X0468450Y0110250D03*
X0178450Y0150250D03*
X0178450Y0150250D03*
X0148450Y0140250D03*
X0148450Y0140250D03*
X0148450Y0161750D03*
X0148450Y0161750D03*
X0178450Y0171750D03*
X0178450Y0171750D03*
X0148450Y0111750D03*
X0148450Y0111750D03*
X0148450Y0090250D03*
X0148450Y0090250D03*
D20*
X0089200Y0101000D03*
X0089200Y0101000D03*
X0067700Y0101000D03*
X0067700Y0101000D03*
X0107700Y0151000D03*
X0107700Y0151000D03*
X0129200Y0151000D03*
X0129200Y0151000D03*
X0227700Y0101000D03*
X0227700Y0101000D03*
X0249200Y0101000D03*
X0249200Y0101000D03*
D21*
X0271950Y0109248D02*
X0271950Y0092752D01*
X0278450Y0090512D02*
X0278450Y0111488D01*
X0273978Y0091500D02*
X0274243Y0091387D01*
X0274511Y0091281D01*
X0274781Y0091182D01*
X0275054Y0091089D01*
X0275329Y0091003D01*
X0275606Y0090924D01*
X0275884Y0090851D01*
X0276165Y0090786D01*
X0276447Y0090727D01*
X0276730Y0090675D01*
X0277015Y0090630D01*
X0277301Y0090593D01*
X0277587Y0090562D01*
X0277874Y0090538D01*
X0278162Y0090521D01*
X0278450Y0090512D01*
X0273978Y0110500D02*
X0274243Y0110613D01*
X0274511Y0110719D01*
X0274781Y0110818D01*
X0275054Y0110911D01*
X0275329Y0110997D01*
X0275606Y0111076D01*
X0275884Y0111149D01*
X0276165Y0111214D01*
X0276447Y0111273D01*
X0276730Y0111325D01*
X0277015Y0111370D01*
X0277301Y0111407D01*
X0277587Y0111438D01*
X0277874Y0111462D01*
X0278162Y0111479D01*
X0278450Y0111488D01*
X0278682Y0111491D01*
X0278913Y0111489D01*
X0279144Y0111481D01*
X0279375Y0111467D01*
X0279605Y0111448D01*
X0279835Y0111423D01*
X0280064Y0111392D01*
X0280293Y0111356D01*
X0280520Y0111315D01*
X0280747Y0111268D01*
X0280972Y0111215D01*
X0281196Y0111157D01*
X0281418Y0111093D01*
X0281639Y0111024D01*
X0281858Y0110950D01*
X0282075Y0110870D01*
X0282290Y0110785D01*
X0282503Y0110695D01*
X0282714Y0110600D01*
X0282922Y0110500D01*
X0273978Y0110502D02*
X0273763Y0110398D01*
X0273550Y0110289D01*
X0273340Y0110175D01*
X0273133Y0110056D01*
X0272928Y0109933D01*
X0272726Y0109805D01*
X0272527Y0109672D01*
X0272332Y0109535D01*
X0272139Y0109394D01*
X0271950Y0109248D01*
X0282922Y0110500D02*
X0283152Y0110388D01*
X0283379Y0110271D01*
X0283603Y0110149D01*
X0283824Y0110021D01*
X0284041Y0109887D01*
X0284256Y0109749D01*
X0284467Y0109605D01*
X0284674Y0109456D01*
X0284878Y0109302D01*
X0285078Y0109144D01*
X0285274Y0108980D01*
X0285466Y0108812D01*
X0285654Y0108639D01*
X0285838Y0108461D01*
X0286017Y0108280D01*
X0286192Y0108093D01*
X0286362Y0107903D01*
X0286527Y0107709D01*
X0286688Y0107510D01*
X0286844Y0107308D01*
X0286995Y0107102D01*
X0287141Y0106892D01*
X0287281Y0106679D01*
X0287417Y0106463D01*
X0287547Y0106243D01*
X0287672Y0106020D01*
X0287791Y0105795D01*
X0287905Y0105566D01*
X0288013Y0105335D01*
X0288116Y0105101D01*
X0288213Y0104865D01*
X0288304Y0104626D01*
X0288389Y0104386D01*
X0288469Y0104143D01*
X0288542Y0103898D01*
X0288610Y0103652D01*
X0288671Y0103404D01*
X0288726Y0103155D01*
X0288776Y0102905D01*
X0288819Y0102653D01*
X0288856Y0102400D01*
X0288887Y0102147D01*
X0288912Y0101893D01*
X0288931Y0101638D01*
X0288943Y0101383D01*
X0288949Y0101128D01*
X0288949Y0100872D01*
X0288943Y0100617D01*
X0288931Y0100362D01*
X0288912Y0100107D01*
X0288887Y0099853D01*
X0288856Y0099600D01*
X0288819Y0099347D01*
X0288776Y0099095D01*
X0288726Y0098845D01*
X0288671Y0098596D01*
X0288610Y0098348D01*
X0288542Y0098102D01*
X0288469Y0097857D01*
X0288389Y0097614D01*
X0288304Y0097374D01*
X0288213Y0097135D01*
X0288116Y0096899D01*
X0288013Y0096665D01*
X0287905Y0096434D01*
X0287791Y0096205D01*
X0287672Y0095980D01*
X0287547Y0095757D01*
X0287417Y0095537D01*
X0287281Y0095321D01*
X0287141Y0095108D01*
X0286995Y0094898D01*
X0286844Y0094692D01*
X0286688Y0094490D01*
X0286527Y0094291D01*
X0286362Y0094097D01*
X0286192Y0093907D01*
X0286017Y0093720D01*
X0285838Y0093539D01*
X0285654Y0093361D01*
X0285466Y0093188D01*
X0285274Y0093020D01*
X0285078Y0092856D01*
X0284878Y0092698D01*
X0284674Y0092544D01*
X0284467Y0092395D01*
X0284256Y0092251D01*
X0284041Y0092113D01*
X0283824Y0091979D01*
X0283603Y0091851D01*
X0283379Y0091729D01*
X0283152Y0091612D01*
X0282922Y0091500D01*
X0282714Y0091400D01*
X0282503Y0091305D01*
X0282290Y0091215D01*
X0282075Y0091130D01*
X0281858Y0091050D01*
X0281639Y0090976D01*
X0281418Y0090907D01*
X0281196Y0090843D01*
X0280972Y0090785D01*
X0280747Y0090732D01*
X0280520Y0090685D01*
X0280293Y0090644D01*
X0280064Y0090608D01*
X0279835Y0090577D01*
X0279605Y0090552D01*
X0279375Y0090533D01*
X0279144Y0090519D01*
X0278913Y0090511D01*
X0278682Y0090509D01*
X0278450Y0090512D01*
X0274072Y0091454D02*
X0273847Y0091561D01*
X0273624Y0091673D01*
X0273404Y0091790D01*
X0273187Y0091912D01*
X0272972Y0092040D01*
X0272761Y0092173D01*
X0272553Y0092310D01*
X0272349Y0092453D01*
X0272147Y0092600D01*
X0271950Y0092752D01*
X0373450Y0086000D02*
X0373450Y0076000D01*
X0393450Y0076000D01*
X0393450Y0086000D01*
X0373450Y0086000D01*
X0168450Y0070512D02*
X0168162Y0070521D01*
X0167874Y0070538D01*
X0167587Y0070562D01*
X0167301Y0070593D01*
X0167015Y0070630D01*
X0166730Y0070675D01*
X0166447Y0070727D01*
X0166165Y0070786D01*
X0165884Y0070851D01*
X0165606Y0070924D01*
X0165329Y0071003D01*
X0165054Y0071089D01*
X0164781Y0071182D01*
X0164511Y0071281D01*
X0164243Y0071387D01*
X0163978Y0071500D01*
X0161950Y0072752D02*
X0161950Y0089248D01*
X0168450Y0091488D02*
X0168450Y0070512D01*
X0163978Y0090500D02*
X0164243Y0090613D01*
X0164511Y0090719D01*
X0164781Y0090818D01*
X0165054Y0090911D01*
X0165329Y0090997D01*
X0165606Y0091076D01*
X0165884Y0091149D01*
X0166165Y0091214D01*
X0166447Y0091273D01*
X0166730Y0091325D01*
X0167015Y0091370D01*
X0167301Y0091407D01*
X0167587Y0091438D01*
X0167874Y0091462D01*
X0168162Y0091479D01*
X0168450Y0091488D01*
X0168682Y0091491D01*
X0168913Y0091489D01*
X0169144Y0091481D01*
X0169375Y0091467D01*
X0169605Y0091448D01*
X0169835Y0091423D01*
X0170064Y0091392D01*
X0170293Y0091356D01*
X0170520Y0091315D01*
X0170747Y0091268D01*
X0170972Y0091215D01*
X0171196Y0091157D01*
X0171418Y0091093D01*
X0171639Y0091024D01*
X0171858Y0090950D01*
X0172075Y0090870D01*
X0172290Y0090785D01*
X0172503Y0090695D01*
X0172714Y0090600D01*
X0172922Y0090500D01*
X0163978Y0090502D02*
X0163763Y0090398D01*
X0163550Y0090289D01*
X0163340Y0090175D01*
X0163133Y0090056D01*
X0162928Y0089933D01*
X0162726Y0089805D01*
X0162527Y0089672D01*
X0162332Y0089535D01*
X0162139Y0089394D01*
X0161950Y0089248D01*
X0172922Y0090500D02*
X0173152Y0090388D01*
X0173379Y0090271D01*
X0173603Y0090149D01*
X0173824Y0090021D01*
X0174041Y0089887D01*
X0174256Y0089749D01*
X0174467Y0089605D01*
X0174674Y0089456D01*
X0174878Y0089302D01*
X0175078Y0089144D01*
X0175274Y0088980D01*
X0175466Y0088812D01*
X0175654Y0088639D01*
X0175838Y0088461D01*
X0176017Y0088280D01*
X0176192Y0088093D01*
X0176362Y0087903D01*
X0176527Y0087709D01*
X0176688Y0087510D01*
X0176844Y0087308D01*
X0176995Y0087102D01*
X0177141Y0086892D01*
X0177281Y0086679D01*
X0177417Y0086463D01*
X0177547Y0086243D01*
X0177672Y0086020D01*
X0177791Y0085795D01*
X0177905Y0085566D01*
X0178013Y0085335D01*
X0178116Y0085101D01*
X0178213Y0084865D01*
X0178304Y0084626D01*
X0178389Y0084386D01*
X0178469Y0084143D01*
X0178542Y0083898D01*
X0178610Y0083652D01*
X0178671Y0083404D01*
X0178726Y0083155D01*
X0178776Y0082905D01*
X0178819Y0082653D01*
X0178856Y0082400D01*
X0178887Y0082147D01*
X0178912Y0081893D01*
X0178931Y0081638D01*
X0178943Y0081383D01*
X0178949Y0081128D01*
X0178949Y0080872D01*
X0178943Y0080617D01*
X0178931Y0080362D01*
X0178912Y0080107D01*
X0178887Y0079853D01*
X0178856Y0079600D01*
X0178819Y0079347D01*
X0178776Y0079095D01*
X0178726Y0078845D01*
X0178671Y0078596D01*
X0178610Y0078348D01*
X0178542Y0078102D01*
X0178469Y0077857D01*
X0178389Y0077614D01*
X0178304Y0077374D01*
X0178213Y0077135D01*
X0178116Y0076899D01*
X0178013Y0076665D01*
X0177905Y0076434D01*
X0177791Y0076205D01*
X0177672Y0075980D01*
X0177547Y0075757D01*
X0177417Y0075537D01*
X0177281Y0075321D01*
X0177141Y0075108D01*
X0176995Y0074898D01*
X0176844Y0074692D01*
X0176688Y0074490D01*
X0176527Y0074291D01*
X0176362Y0074097D01*
X0176192Y0073907D01*
X0176017Y0073720D01*
X0175838Y0073539D01*
X0175654Y0073361D01*
X0175466Y0073188D01*
X0175274Y0073020D01*
X0175078Y0072856D01*
X0174878Y0072698D01*
X0174674Y0072544D01*
X0174467Y0072395D01*
X0174256Y0072251D01*
X0174041Y0072113D01*
X0173824Y0071979D01*
X0173603Y0071851D01*
X0173379Y0071729D01*
X0173152Y0071612D01*
X0172922Y0071500D01*
X0172714Y0071400D01*
X0172503Y0071305D01*
X0172290Y0071215D01*
X0172075Y0071130D01*
X0171858Y0071050D01*
X0171639Y0070976D01*
X0171418Y0070907D01*
X0171196Y0070843D01*
X0170972Y0070785D01*
X0170747Y0070732D01*
X0170520Y0070685D01*
X0170293Y0070644D01*
X0170064Y0070608D01*
X0169835Y0070577D01*
X0169605Y0070552D01*
X0169375Y0070533D01*
X0169144Y0070519D01*
X0168913Y0070511D01*
X0168682Y0070509D01*
X0168450Y0070512D01*
X0164072Y0071454D02*
X0163847Y0071561D01*
X0163624Y0071673D01*
X0163404Y0071790D01*
X0163187Y0071912D01*
X0162972Y0072040D01*
X0162761Y0072173D01*
X0162553Y0072310D01*
X0162349Y0072453D01*
X0162147Y0072600D01*
X0161950Y0072752D01*
X0118450Y0090512D02*
X0118450Y0111488D01*
X0111950Y0109248D02*
X0111950Y0092752D01*
X0113978Y0110500D02*
X0114243Y0110613D01*
X0114511Y0110719D01*
X0114781Y0110818D01*
X0115054Y0110911D01*
X0115329Y0110997D01*
X0115606Y0111076D01*
X0115884Y0111149D01*
X0116165Y0111214D01*
X0116447Y0111273D01*
X0116730Y0111325D01*
X0117015Y0111370D01*
X0117301Y0111407D01*
X0117587Y0111438D01*
X0117874Y0111462D01*
X0118162Y0111479D01*
X0118450Y0111488D01*
X0113978Y0091500D02*
X0114243Y0091387D01*
X0114511Y0091281D01*
X0114781Y0091182D01*
X0115054Y0091089D01*
X0115329Y0091003D01*
X0115606Y0090924D01*
X0115884Y0090851D01*
X0116165Y0090786D01*
X0116447Y0090727D01*
X0116730Y0090675D01*
X0117015Y0090630D01*
X0117301Y0090593D01*
X0117587Y0090562D01*
X0117874Y0090538D01*
X0118162Y0090521D01*
X0118450Y0090512D01*
X0118682Y0090509D01*
X0118913Y0090511D01*
X0119144Y0090519D01*
X0119375Y0090533D01*
X0119605Y0090552D01*
X0119835Y0090577D01*
X0120064Y0090608D01*
X0120293Y0090644D01*
X0120520Y0090685D01*
X0120747Y0090732D01*
X0120972Y0090785D01*
X0121196Y0090843D01*
X0121418Y0090907D01*
X0121639Y0090976D01*
X0121858Y0091050D01*
X0122075Y0091130D01*
X0122290Y0091215D01*
X0122503Y0091305D01*
X0122714Y0091400D01*
X0122922Y0091500D01*
X0114072Y0091454D02*
X0113847Y0091561D01*
X0113624Y0091673D01*
X0113404Y0091790D01*
X0113187Y0091912D01*
X0112972Y0092040D01*
X0112761Y0092173D01*
X0112553Y0092310D01*
X0112349Y0092453D01*
X0112147Y0092600D01*
X0111950Y0092752D01*
X0122922Y0091500D02*
X0123152Y0091612D01*
X0123379Y0091729D01*
X0123603Y0091851D01*
X0123824Y0091979D01*
X0124041Y0092113D01*
X0124256Y0092251D01*
X0124467Y0092395D01*
X0124674Y0092544D01*
X0124878Y0092698D01*
X0125078Y0092856D01*
X0125274Y0093020D01*
X0125466Y0093188D01*
X0125654Y0093361D01*
X0125838Y0093539D01*
X0126017Y0093720D01*
X0126192Y0093907D01*
X0126362Y0094097D01*
X0126527Y0094291D01*
X0126688Y0094490D01*
X0126844Y0094692D01*
X0126995Y0094898D01*
X0127141Y0095108D01*
X0127281Y0095321D01*
X0127417Y0095537D01*
X0127547Y0095757D01*
X0127672Y0095980D01*
X0127791Y0096205D01*
X0127905Y0096434D01*
X0128013Y0096665D01*
X0128116Y0096899D01*
X0128213Y0097135D01*
X0128304Y0097374D01*
X0128389Y0097614D01*
X0128469Y0097857D01*
X0128542Y0098102D01*
X0128610Y0098348D01*
X0128671Y0098596D01*
X0128726Y0098845D01*
X0128776Y0099095D01*
X0128819Y0099347D01*
X0128856Y0099600D01*
X0128887Y0099853D01*
X0128912Y0100107D01*
X0128931Y0100362D01*
X0128943Y0100617D01*
X0128949Y0100872D01*
X0128949Y0101128D01*
X0128943Y0101383D01*
X0128931Y0101638D01*
X0128912Y0101893D01*
X0128887Y0102147D01*
X0128856Y0102400D01*
X0128819Y0102653D01*
X0128776Y0102905D01*
X0128726Y0103155D01*
X0128671Y0103404D01*
X0128610Y0103652D01*
X0128542Y0103898D01*
X0128469Y0104143D01*
X0128389Y0104386D01*
X0128304Y0104626D01*
X0128213Y0104865D01*
X0128116Y0105101D01*
X0128013Y0105335D01*
X0127905Y0105566D01*
X0127791Y0105795D01*
X0127672Y0106020D01*
X0127547Y0106243D01*
X0127417Y0106463D01*
X0127281Y0106679D01*
X0127141Y0106892D01*
X0126995Y0107102D01*
X0126844Y0107308D01*
X0126688Y0107510D01*
X0126527Y0107709D01*
X0126362Y0107903D01*
X0126192Y0108093D01*
X0126017Y0108280D01*
X0125838Y0108461D01*
X0125654Y0108639D01*
X0125466Y0108812D01*
X0125274Y0108980D01*
X0125078Y0109144D01*
X0124878Y0109302D01*
X0124674Y0109456D01*
X0124467Y0109605D01*
X0124256Y0109749D01*
X0124041Y0109887D01*
X0123824Y0110021D01*
X0123603Y0110149D01*
X0123379Y0110271D01*
X0123152Y0110388D01*
X0122922Y0110500D01*
X0122714Y0110600D01*
X0122503Y0110695D01*
X0122290Y0110785D01*
X0122075Y0110870D01*
X0121858Y0110950D01*
X0121639Y0111024D01*
X0121418Y0111093D01*
X0121196Y0111157D01*
X0120972Y0111215D01*
X0120747Y0111268D01*
X0120520Y0111315D01*
X0120293Y0111356D01*
X0120064Y0111392D01*
X0119835Y0111423D01*
X0119605Y0111448D01*
X0119375Y0111467D01*
X0119144Y0111481D01*
X0118913Y0111489D01*
X0118682Y0111491D01*
X0118450Y0111488D01*
X0113978Y0110502D02*
X0113763Y0110398D01*
X0113550Y0110289D01*
X0113340Y0110175D01*
X0113133Y0110056D01*
X0112928Y0109933D01*
X0112726Y0109805D01*
X0112527Y0109672D01*
X0112332Y0109535D01*
X0112139Y0109394D01*
X0111950Y0109248D01*
D22*
X0188450Y0094250D03*
X0188450Y0077750D03*
X0408450Y0117750D03*
X0408450Y0134250D03*
D23*
X0110700Y0071000D03*
D24*
X0105200Y0071000D03*
X0121700Y0071000D03*
D25*
X0485950Y0089800D02*
X0488450Y0089800D01*
X0490950Y0089800D01*
X0490950Y0092300D02*
X0488450Y0092300D01*
X0485950Y0092300D01*
M02*
