%
M48
M72
T01C0.01500
T02C0.03125
T03C0.03150
T04C0.03543
%
T01
X3100Y4100
X4100Y3100
X6100Y3100
X3100Y7100
X2100Y6100
X2100Y8100
T02
X8100Y7100
X8100Y2100
T03
X7100Y4100
X7100Y5100
X7100Y6100
X7100Y7100
X4100Y7100
X4100Y6100
X4100Y5100
X4100Y4100
T04
X2100Y4100
X2100Y5100
X2100Y9100
X3100Y11100
X4100Y9100
X5100Y9100
X9100Y9100
X9100Y6100
X7100Y3100
X7100Y1100
X9100Y2100
X10100Y2100
X10100Y1100
M30
