%
M48
M72
T01C0.02362
T02C0.02756
T03C0.03150
T04C0.03543
T05C0.04331
%
T01
X6033Y5469
X9033Y5469
T02
X5033Y8469
X6033Y10469
T03
X10033Y10469
X10033Y9469
X10033Y8469
X10033Y7469
X10033Y6469
X10033Y5469
X10033Y4469
X13033Y4469
X13033Y5469
X13033Y6469
X13033Y7469
X13033Y8469
X13033Y9469
X13033Y10469
T04
X4033Y4469
X5033Y4469
X6033Y4469
X5033Y6469
X6033Y8469
X7033Y8469
X7033Y10469
X7033Y12469
X7033Y13469
X5033Y13469
X5033Y12469
X9033Y8469
X9033Y6469
X10033Y11469
X11033Y13469
X12033Y13469
X12033Y11469
T05
X3033Y11469
X3033Y12469
X3033Y13469
X2033Y13469
X2033Y12469
X2033Y11469
X2033Y10469
X3033Y10469
X3033Y9469
X2033Y9469
X2033Y8469
X3033Y8469
M30
