G75*
%MOIN*%
%OFA0B0*%
%FSLAX25Y25*%
%IPPOS*%
%LPD*%
%AMOC8*
5,1,8,0,0,1.08239X$1,22.5*
%
%ADD10C,0.05543*%
%ADD11C,0.07000*%
%ADD12C,0.00300*%
%ADD13C,0.00200*%
%ADD14C,0.05150*%
%ADD15C,0.05000*%
%ADD16C,0.03100*%
%ADD17C,0.06600*%
D10*
X0071000Y0011000D03*
X0071000Y0031000D03*
X0091000Y0021000D03*
X0091000Y0061000D03*
X0091000Y0091000D03*
X0051000Y0091000D03*
D11*
X0041000Y0091000D03*
X0031000Y0111000D03*
X0021000Y0091000D03*
X0021000Y0051000D03*
X0021000Y0041000D03*
X0101000Y0021000D03*
X0101000Y0011000D03*
D12*
X0107498Y0009277D02*
X0107498Y0006808D01*
X0107498Y0022308D02*
X0107498Y0024777D01*
X0106264Y0023543D02*
X0108733Y0023543D01*
X0015733Y0052543D02*
X0013264Y0052543D01*
X0014498Y0051308D02*
X0014498Y0053777D01*
X0014498Y0038777D02*
X0014498Y0036308D01*
D13*
X0013765Y0042785D02*
X0015233Y0042785D01*
X0015600Y0043152D01*
X0015600Y0043886D01*
X0015233Y0044253D01*
X0013765Y0044253D01*
X0013398Y0043886D01*
X0013398Y0043152D01*
X0013765Y0042785D01*
X0013398Y0044995D02*
X0015233Y0044995D01*
X0015600Y0045362D01*
X0015600Y0046096D01*
X0015233Y0046463D01*
X0013398Y0046463D01*
X0013398Y0047205D02*
X0013398Y0048673D01*
X0013398Y0047939D02*
X0015600Y0047939D01*
X0106398Y0018306D02*
X0106398Y0017205D01*
X0108600Y0017205D01*
X0107866Y0017205D02*
X0107866Y0018306D01*
X0107499Y0018673D01*
X0106765Y0018673D01*
X0106398Y0018306D01*
X0107866Y0017939D02*
X0108600Y0018673D01*
X0108600Y0016463D02*
X0106398Y0016463D01*
X0106398Y0014995D02*
X0108600Y0014995D01*
X0107866Y0015729D01*
X0108600Y0016463D01*
X0107499Y0014253D02*
X0107866Y0013886D01*
X0107866Y0012785D01*
X0108600Y0012785D02*
X0106398Y0012785D01*
X0106398Y0013886D01*
X0106765Y0014253D01*
X0107499Y0014253D01*
D14*
X0073575Y0041000D02*
X0068425Y0041000D01*
X0068425Y0051000D02*
X0073575Y0051000D01*
X0073575Y0061000D02*
X0068425Y0061000D01*
X0068425Y0071000D02*
X0073575Y0071000D01*
X0043575Y0071000D02*
X0038425Y0071000D01*
X0038425Y0061000D02*
X0043575Y0061000D01*
X0043575Y0051000D02*
X0038425Y0051000D01*
X0038425Y0041000D02*
X0043575Y0041000D01*
D15*
X0021000Y0011000D02*
X0071000Y0011000D01*
X0101000Y0011000D01*
X0101000Y0021000D02*
X0091000Y0021000D01*
X0081000Y0021000D01*
X0051000Y0021000D01*
X0051000Y0041000D01*
X0041000Y0041000D01*
X0041000Y0031000D02*
X0041000Y0021000D01*
X0031000Y0041000D02*
X0021000Y0041000D01*
X0021000Y0021000D01*
X0021000Y0011000D01*
X0021000Y0051000D02*
X0041000Y0051000D01*
X0041000Y0061000D02*
X0021000Y0061000D01*
X0031000Y0071000D02*
X0041000Y0071000D01*
X0041000Y0061000D02*
X0061000Y0061000D01*
X0061000Y0051000D01*
X0061000Y0031000D01*
X0071000Y0031000D02*
X0071000Y0041000D01*
X0071000Y0051000D02*
X0061000Y0051000D01*
X0071000Y0061000D02*
X0091000Y0061000D01*
X0091000Y0091000D01*
X0081000Y0071000D02*
X0071000Y0071000D01*
X0051000Y0091000D02*
X0041000Y0091000D01*
X0021000Y0091000D02*
X0031000Y0111000D01*
X0021000Y0091000D02*
X0021000Y0081000D01*
D16*
X0021000Y0081000D03*
X0031000Y0071000D03*
X0021000Y0061000D03*
X0031000Y0041000D03*
X0041000Y0031000D03*
X0061000Y0031000D03*
D17*
X0081000Y0021000D03*
X0081000Y0071000D03*
M02*
