G75*
%MOIN*%
%OFA0B0*%
%FSLAX25Y25*%
%IPPOS*%
%LPD*%
%AMOC8*
5,1,8,0,0,1.08239X$1,22.5*
%
%ADD10C,0.00000*%
%ADD11C,0.05543*%
%ADD12R,0.04756X0.04756*%
%ADD13C,0.05150*%
%ADD14OC8,0.07000*%
%ADD15R,0.07000X0.07000*%
%ADD16OC8,0.06496*%
%ADD17C,0.07000*%
%ADD18C,0.05000*%
%ADD19R,0.03962X0.03962*%
D10*
X0010333Y0034690D02*
X0010333Y0154690D01*
X0150333Y0154690D01*
X0150333Y0034690D01*
X0010333Y0034690D01*
D11*
X0050333Y0064690D03*
X0060333Y0084690D03*
X0070333Y0084690D03*
X0070333Y0104690D03*
X0070333Y0124690D03*
X0070333Y0134690D03*
X0050333Y0134690D03*
X0050333Y0124690D03*
X0090333Y0084690D03*
X0090333Y0064690D03*
X0100333Y0114690D03*
X0120333Y0114690D03*
D12*
X0060333Y0104690D03*
X0050333Y0084690D03*
D13*
X0097759Y0084690D02*
X0102908Y0084690D01*
X0102908Y0094690D02*
X0097759Y0094690D01*
X0097759Y0104690D02*
X0102908Y0104690D01*
X0127759Y0104690D02*
X0132908Y0104690D01*
X0132908Y0094690D02*
X0127759Y0094690D01*
X0127759Y0084690D02*
X0132908Y0084690D01*
X0132908Y0074690D02*
X0127759Y0074690D01*
X0127759Y0064690D02*
X0132908Y0064690D01*
X0132908Y0054690D02*
X0127759Y0054690D01*
X0127759Y0044690D02*
X0132908Y0044690D01*
X0102908Y0044690D02*
X0097759Y0044690D01*
X0097759Y0054690D02*
X0102908Y0054690D01*
X0102908Y0064690D02*
X0097759Y0064690D01*
X0097759Y0074690D02*
X0102908Y0074690D01*
D14*
X0050333Y0044690D03*
X0040333Y0044690D03*
D15*
X0060333Y0044690D03*
D16*
X0030333Y0084690D03*
X0030333Y0094690D03*
X0030333Y0104690D03*
X0030333Y0114690D03*
X0030333Y0124690D03*
X0030333Y0134690D03*
X0020333Y0134690D03*
X0020333Y0124690D03*
X0020333Y0114690D03*
X0020333Y0104690D03*
X0020333Y0094690D03*
X0020333Y0084690D03*
D17*
X0110333Y0134690D03*
X0120333Y0134690D03*
D18*
X0090333Y0054690D02*
X0060333Y0054690D01*
D19*
X0060333Y0054690D03*
X0090333Y0054690D03*
M02*
