%
M48
M72
T01C0.03150
T02C0.03543
%
T01
X36845Y13100
X36845Y14100
X36845Y15100
X36845Y16100
X39845Y16100
X39845Y15100
X39845Y14100
X39845Y13100
X48845Y13100
X48845Y12100
X51845Y12100
X51845Y13100
X51845Y14100
X51845Y15100
X48845Y15100
X48845Y14100
T02
X9845Y7100
X12845Y7100
X14845Y8100
X16845Y8100
X16845Y7100
X18845Y7100
X16845Y9100
X18845Y10100
X21845Y10100
X25845Y10100
X27845Y10100
X27845Y9100
X29845Y9100
X30845Y9100
X32845Y9100
X31845Y8100
X33845Y8100
X35845Y9100
X34845Y10100
X33845Y11100
X32845Y12100
X31845Y11100
X30845Y12100
X27845Y11100
X30845Y14100
X34845Y14100
X35845Y13100
X37845Y11100
X39845Y11100
X40845Y11100
X41845Y12100
X42845Y11100
X43845Y10100
X42845Y9100
X38845Y8100
X37845Y8100
X44845Y12100
X45845Y13100
X44845Y14100
X46845Y14100
X41845Y16100
X40845Y14100
X46845Y10100
X48845Y10100
X48845Y8100
X54845Y15100
X30845Y18100
X20845Y13100
X18845Y13100
X17845Y14100
X14845Y13100
X14845Y12100
X11845Y11100
X11845Y10100
X11845Y9100
X9845Y10100
X5845Y10100
X845Y10100
X9845Y15100
X13845Y15100
X14845Y17100
X17845Y18100
X29845Y6100
M30
