G75*
%MOIN*%
%OFA0B0*%
%FSLAX25Y25*%
%IPPOS*%
%LPD*%
%AMOC8*
5,1,8,0,0,1.08239X$1,22.5*
%
%ADD10C,0.00200*%
%ADD11C,0.00600*%
%ADD12C,0.00300*%
%ADD13R,0.06400X0.01000*%
%ADD14C,0.01200*%
%ADD15R,0.07200X0.00800*%
%ADD16C,0.00400*%
%ADD17R,0.01000X0.05000*%
%ADD18R,0.05000X0.01000*%
%ADD19R,0.00800X0.13400*%
%ADD20R,0.02000X0.01500*%
%ADD21R,0.01500X0.02000*%
%ADD22C,0.00500*%
%ADD23C,0.02400*%
D10*
X0009745Y0004567D02*
X0010112Y0004200D01*
X0010846Y0004200D01*
X0011213Y0004567D01*
X0011213Y0005301D01*
X0010479Y0005301D01*
X0011213Y0006035D02*
X0010846Y0006402D01*
X0010112Y0006402D01*
X0009745Y0006035D01*
X0009745Y0004567D01*
X0011955Y0004200D02*
X0011955Y0006402D01*
X0013423Y0004200D01*
X0013423Y0006402D01*
X0014165Y0006402D02*
X0015266Y0006402D01*
X0015633Y0006035D01*
X0015633Y0004567D01*
X0015266Y0004200D01*
X0014165Y0004200D01*
X0014165Y0006402D01*
X0127358Y0025575D02*
X0127358Y0026676D01*
X0127725Y0027043D01*
X0128092Y0027043D01*
X0128459Y0026676D01*
X0128459Y0025575D01*
X0129560Y0025575D02*
X0129560Y0026676D01*
X0129193Y0027043D01*
X0128826Y0027043D01*
X0128459Y0026676D01*
X0129560Y0025575D02*
X0127358Y0025575D01*
X0127725Y0027785D02*
X0129193Y0027785D01*
X0129560Y0028152D01*
X0129560Y0028886D01*
X0129193Y0029253D01*
X0129193Y0029995D02*
X0129560Y0030362D01*
X0129560Y0031096D01*
X0129193Y0031463D01*
X0128826Y0031463D01*
X0128459Y0031096D01*
X0128459Y0030729D01*
X0128459Y0031096D02*
X0128092Y0031463D01*
X0127725Y0031463D01*
X0127358Y0031096D01*
X0127358Y0030362D01*
X0127725Y0029995D01*
X0127725Y0029253D02*
X0127358Y0028886D01*
X0127358Y0028152D01*
X0127725Y0027785D01*
X0136850Y0032102D02*
X0138318Y0032102D01*
X0137584Y0032102D02*
X0137584Y0029900D01*
X0139060Y0029900D02*
X0140528Y0029900D01*
X0139794Y0029900D02*
X0139794Y0032102D01*
X0139060Y0031368D01*
X0129560Y0032572D02*
X0129193Y0032205D01*
X0129560Y0032572D02*
X0129560Y0033306D01*
X0129193Y0033673D01*
X0128826Y0033673D01*
X0128459Y0033306D01*
X0128459Y0032939D01*
X0128459Y0033306D02*
X0128092Y0033673D01*
X0127725Y0033673D01*
X0127358Y0033306D01*
X0127358Y0032572D01*
X0127725Y0032205D01*
X0127358Y0034415D02*
X0127358Y0035883D01*
X0127725Y0035883D01*
X0129193Y0034415D01*
X0129560Y0034415D01*
X0131858Y0062890D02*
X0131858Y0064358D01*
X0131858Y0063624D02*
X0134060Y0063624D01*
X0134060Y0065100D02*
X0132592Y0066568D01*
X0132225Y0066568D01*
X0131858Y0066201D01*
X0131858Y0065467D01*
X0132225Y0065100D01*
X0134060Y0065100D02*
X0134060Y0066568D01*
X0134532Y0074400D02*
X0134165Y0074767D01*
X0134532Y0074400D02*
X0135266Y0074400D01*
X0135633Y0074767D01*
X0135633Y0075134D01*
X0135266Y0075501D01*
X0134899Y0075501D01*
X0135266Y0075501D02*
X0135633Y0075868D01*
X0135633Y0076235D01*
X0135266Y0076602D01*
X0134532Y0076602D01*
X0134165Y0076235D01*
X0133423Y0076235D02*
X0133423Y0075868D01*
X0133056Y0075501D01*
X0133423Y0075134D01*
X0133423Y0074767D01*
X0133056Y0074400D01*
X0132322Y0074400D01*
X0131955Y0074767D01*
X0131213Y0074767D02*
X0130846Y0074400D01*
X0130112Y0074400D01*
X0129745Y0074767D01*
X0129745Y0076235D01*
X0130112Y0076602D01*
X0130846Y0076602D01*
X0131213Y0076235D01*
X0131955Y0076235D02*
X0132322Y0076602D01*
X0133056Y0076602D01*
X0133423Y0076235D01*
X0133056Y0075501D02*
X0132689Y0075501D01*
X0136374Y0074767D02*
X0136374Y0074400D01*
X0136374Y0074767D02*
X0137842Y0076235D01*
X0137842Y0076602D01*
X0136374Y0076602D01*
X0129003Y0076235D02*
X0129003Y0075868D01*
X0128636Y0075501D01*
X0127535Y0075501D01*
X0127535Y0076602D02*
X0128636Y0076602D01*
X0129003Y0076235D01*
X0128636Y0075501D02*
X0129003Y0075134D01*
X0129003Y0074767D01*
X0128636Y0074400D01*
X0127535Y0074400D01*
X0127535Y0076602D01*
X0198640Y0086701D02*
X0200108Y0086701D01*
X0200850Y0087068D02*
X0201584Y0087802D01*
X0201584Y0085600D01*
X0200850Y0085600D02*
X0202318Y0085600D01*
X0203060Y0085600D02*
X0204528Y0087068D01*
X0204528Y0087435D01*
X0204161Y0087802D01*
X0203427Y0087802D01*
X0203060Y0087435D01*
X0205270Y0087802D02*
X0205270Y0086334D01*
X0206004Y0085600D01*
X0206737Y0086334D01*
X0206737Y0087802D01*
X0204528Y0085600D02*
X0203060Y0085600D01*
X0199374Y0085967D02*
X0199374Y0087435D01*
X0015633Y0087802D02*
X0015633Y0086334D01*
X0014899Y0085600D01*
X0014165Y0086334D01*
X0014165Y0087802D01*
X0013423Y0087802D02*
X0011955Y0087802D01*
X0011955Y0086701D01*
X0012689Y0087068D01*
X0013056Y0087068D01*
X0013423Y0086701D01*
X0013423Y0085967D01*
X0013056Y0085600D01*
X0012322Y0085600D01*
X0011955Y0085967D01*
X0011213Y0086701D02*
X0009745Y0086701D01*
X0010479Y0087435D02*
X0010479Y0085967D01*
X0198640Y0006035D02*
X0198640Y0004567D01*
X0199007Y0004200D01*
X0199741Y0004200D01*
X0200108Y0004567D01*
X0200108Y0005301D01*
X0199374Y0005301D01*
X0200108Y0006035D02*
X0199741Y0006402D01*
X0199007Y0006402D01*
X0198640Y0006035D01*
X0200850Y0006402D02*
X0202318Y0004200D01*
X0202318Y0006402D01*
X0203060Y0006402D02*
X0204161Y0006402D01*
X0204528Y0006035D01*
X0204528Y0004567D01*
X0204161Y0004200D01*
X0203060Y0004200D01*
X0203060Y0006402D01*
X0200850Y0006402D02*
X0200850Y0004200D01*
X0205270Y0004200D02*
X0206737Y0005668D01*
X0206737Y0006035D01*
X0206370Y0006402D01*
X0205637Y0006402D01*
X0205270Y0006035D01*
X0205270Y0004200D02*
X0206737Y0004200D01*
D11*
X0167960Y0007500D02*
X0167960Y0034500D01*
X0167958Y0034560D01*
X0167953Y0034621D01*
X0167944Y0034680D01*
X0167931Y0034739D01*
X0167915Y0034798D01*
X0167895Y0034855D01*
X0167872Y0034910D01*
X0167845Y0034965D01*
X0167816Y0035017D01*
X0167783Y0035068D01*
X0167747Y0035117D01*
X0167709Y0035163D01*
X0167667Y0035207D01*
X0167623Y0035249D01*
X0167577Y0035287D01*
X0167528Y0035323D01*
X0167477Y0035356D01*
X0167425Y0035385D01*
X0167370Y0035412D01*
X0167315Y0035435D01*
X0167258Y0035455D01*
X0167199Y0035471D01*
X0167140Y0035484D01*
X0167081Y0035493D01*
X0167020Y0035498D01*
X0166960Y0035500D01*
X0158960Y0035500D01*
X0158900Y0035498D01*
X0158839Y0035493D01*
X0158780Y0035484D01*
X0158721Y0035471D01*
X0158662Y0035455D01*
X0158605Y0035435D01*
X0158550Y0035412D01*
X0158495Y0035385D01*
X0158443Y0035356D01*
X0158392Y0035323D01*
X0158343Y0035287D01*
X0158297Y0035249D01*
X0158253Y0035207D01*
X0158211Y0035163D01*
X0158173Y0035117D01*
X0158137Y0035068D01*
X0158104Y0035017D01*
X0158075Y0034965D01*
X0158048Y0034910D01*
X0158025Y0034855D01*
X0158005Y0034798D01*
X0157989Y0034739D01*
X0157976Y0034680D01*
X0157967Y0034621D01*
X0157962Y0034560D01*
X0157960Y0034500D01*
X0157960Y0007500D01*
X0157962Y0007440D01*
X0157967Y0007379D01*
X0157976Y0007320D01*
X0157989Y0007261D01*
X0158005Y0007202D01*
X0158025Y0007145D01*
X0158048Y0007090D01*
X0158075Y0007035D01*
X0158104Y0006983D01*
X0158137Y0006932D01*
X0158173Y0006883D01*
X0158211Y0006837D01*
X0158253Y0006793D01*
X0158297Y0006751D01*
X0158343Y0006713D01*
X0158392Y0006677D01*
X0158443Y0006644D01*
X0158495Y0006615D01*
X0158550Y0006588D01*
X0158605Y0006565D01*
X0158662Y0006545D01*
X0158721Y0006529D01*
X0158780Y0006516D01*
X0158839Y0006507D01*
X0158900Y0006502D01*
X0158960Y0006500D01*
X0166960Y0006500D01*
X0167020Y0006502D01*
X0167081Y0006507D01*
X0167140Y0006516D01*
X0167199Y0006529D01*
X0167258Y0006545D01*
X0167315Y0006565D01*
X0167370Y0006588D01*
X0167425Y0006615D01*
X0167477Y0006644D01*
X0167528Y0006677D01*
X0167577Y0006713D01*
X0167623Y0006751D01*
X0167667Y0006793D01*
X0167709Y0006837D01*
X0167747Y0006883D01*
X0167783Y0006932D01*
X0167816Y0006983D01*
X0167845Y0007035D01*
X0167872Y0007090D01*
X0167895Y0007145D01*
X0167915Y0007202D01*
X0167931Y0007261D01*
X0167944Y0007320D01*
X0167953Y0007379D01*
X0167958Y0007440D01*
X0167960Y0007500D01*
X0162960Y0015000D02*
X0162960Y0019700D01*
X0162960Y0022200D02*
X0162960Y0027000D01*
X0116960Y0023500D02*
X0116960Y0022000D01*
X0116958Y0021940D01*
X0116953Y0021879D01*
X0116944Y0021820D01*
X0116931Y0021761D01*
X0116915Y0021702D01*
X0116895Y0021645D01*
X0116872Y0021590D01*
X0116845Y0021535D01*
X0116816Y0021483D01*
X0116783Y0021432D01*
X0116747Y0021383D01*
X0116709Y0021337D01*
X0116667Y0021293D01*
X0116623Y0021251D01*
X0116577Y0021213D01*
X0116528Y0021177D01*
X0116477Y0021144D01*
X0116425Y0021115D01*
X0116370Y0021088D01*
X0116315Y0021065D01*
X0116258Y0021045D01*
X0116199Y0021029D01*
X0116140Y0021016D01*
X0116081Y0021007D01*
X0116020Y0021002D01*
X0115960Y0021000D01*
X0109960Y0021000D01*
X0109900Y0021002D01*
X0109839Y0021007D01*
X0109780Y0021016D01*
X0109721Y0021029D01*
X0109662Y0021045D01*
X0109605Y0021065D01*
X0109550Y0021088D01*
X0109495Y0021115D01*
X0109443Y0021144D01*
X0109392Y0021177D01*
X0109343Y0021213D01*
X0109297Y0021251D01*
X0109253Y0021293D01*
X0109211Y0021337D01*
X0109173Y0021383D01*
X0109137Y0021432D01*
X0109104Y0021483D01*
X0109075Y0021535D01*
X0109048Y0021590D01*
X0109025Y0021645D01*
X0109005Y0021702D01*
X0108989Y0021761D01*
X0108976Y0021820D01*
X0108967Y0021879D01*
X0108962Y0021940D01*
X0108960Y0022000D01*
X0108960Y0023500D01*
X0109460Y0024000D01*
X0109460Y0038000D01*
X0108960Y0038500D01*
X0108960Y0040000D01*
X0108962Y0040060D01*
X0108967Y0040121D01*
X0108976Y0040180D01*
X0108989Y0040239D01*
X0109005Y0040298D01*
X0109025Y0040355D01*
X0109048Y0040410D01*
X0109075Y0040465D01*
X0109104Y0040517D01*
X0109137Y0040568D01*
X0109173Y0040617D01*
X0109211Y0040663D01*
X0109253Y0040707D01*
X0109297Y0040749D01*
X0109343Y0040787D01*
X0109392Y0040823D01*
X0109443Y0040856D01*
X0109495Y0040885D01*
X0109550Y0040912D01*
X0109605Y0040935D01*
X0109662Y0040955D01*
X0109721Y0040971D01*
X0109780Y0040984D01*
X0109839Y0040993D01*
X0109900Y0040998D01*
X0109960Y0041000D01*
X0115960Y0041000D01*
X0116020Y0040998D01*
X0116081Y0040993D01*
X0116140Y0040984D01*
X0116199Y0040971D01*
X0116258Y0040955D01*
X0116315Y0040935D01*
X0116370Y0040912D01*
X0116425Y0040885D01*
X0116477Y0040856D01*
X0116528Y0040823D01*
X0116577Y0040787D01*
X0116623Y0040749D01*
X0116667Y0040707D01*
X0116709Y0040663D01*
X0116747Y0040617D01*
X0116783Y0040568D01*
X0116816Y0040517D01*
X0116845Y0040465D01*
X0116872Y0040410D01*
X0116895Y0040355D01*
X0116915Y0040298D01*
X0116931Y0040239D01*
X0116944Y0040180D01*
X0116953Y0040121D01*
X0116958Y0040060D01*
X0116960Y0040000D01*
X0116960Y0038500D01*
X0116460Y0038000D01*
X0116460Y0024000D01*
X0116960Y0023500D01*
X0116960Y0022000D02*
X0116958Y0021940D01*
X0116953Y0021879D01*
X0116944Y0021820D01*
X0116931Y0021761D01*
X0116915Y0021702D01*
X0116895Y0021645D01*
X0116872Y0021590D01*
X0116845Y0021535D01*
X0116816Y0021483D01*
X0116783Y0021432D01*
X0116747Y0021383D01*
X0116709Y0021337D01*
X0116667Y0021293D01*
X0116623Y0021251D01*
X0116577Y0021213D01*
X0116528Y0021177D01*
X0116477Y0021144D01*
X0116425Y0021115D01*
X0116370Y0021088D01*
X0116315Y0021065D01*
X0116258Y0021045D01*
X0116199Y0021029D01*
X0116140Y0021016D01*
X0116081Y0021007D01*
X0116020Y0021002D01*
X0115960Y0021000D01*
X0109960Y0021000D02*
X0109900Y0021002D01*
X0109839Y0021007D01*
X0109780Y0021016D01*
X0109721Y0021029D01*
X0109662Y0021045D01*
X0109605Y0021065D01*
X0109550Y0021088D01*
X0109495Y0021115D01*
X0109443Y0021144D01*
X0109392Y0021177D01*
X0109343Y0021213D01*
X0109297Y0021251D01*
X0109253Y0021293D01*
X0109211Y0021337D01*
X0109173Y0021383D01*
X0109137Y0021432D01*
X0109104Y0021483D01*
X0109075Y0021535D01*
X0109048Y0021590D01*
X0109025Y0021645D01*
X0109005Y0021702D01*
X0108989Y0021761D01*
X0108976Y0021820D01*
X0108967Y0021879D01*
X0108962Y0021940D01*
X0108960Y0022000D01*
X0108960Y0040000D02*
X0108962Y0040060D01*
X0108967Y0040121D01*
X0108976Y0040180D01*
X0108989Y0040239D01*
X0109005Y0040298D01*
X0109025Y0040355D01*
X0109048Y0040410D01*
X0109075Y0040465D01*
X0109104Y0040517D01*
X0109137Y0040568D01*
X0109173Y0040617D01*
X0109211Y0040663D01*
X0109253Y0040707D01*
X0109297Y0040749D01*
X0109343Y0040787D01*
X0109392Y0040823D01*
X0109443Y0040856D01*
X0109495Y0040885D01*
X0109550Y0040912D01*
X0109605Y0040935D01*
X0109662Y0040955D01*
X0109721Y0040971D01*
X0109780Y0040984D01*
X0109839Y0040993D01*
X0109900Y0040998D01*
X0109960Y0041000D01*
X0106960Y0042000D02*
X0106960Y0043500D01*
X0106460Y0044000D01*
X0106460Y0058000D01*
X0106960Y0058500D01*
X0106960Y0060000D01*
X0106958Y0060060D01*
X0106953Y0060121D01*
X0106944Y0060180D01*
X0106931Y0060239D01*
X0106915Y0060298D01*
X0106895Y0060355D01*
X0106872Y0060410D01*
X0106845Y0060465D01*
X0106816Y0060517D01*
X0106783Y0060568D01*
X0106747Y0060617D01*
X0106709Y0060663D01*
X0106667Y0060707D01*
X0106623Y0060749D01*
X0106577Y0060787D01*
X0106528Y0060823D01*
X0106477Y0060856D01*
X0106425Y0060885D01*
X0106370Y0060912D01*
X0106315Y0060935D01*
X0106258Y0060955D01*
X0106199Y0060971D01*
X0106140Y0060984D01*
X0106081Y0060993D01*
X0106020Y0060998D01*
X0105960Y0061000D01*
X0099960Y0061000D01*
X0099900Y0060998D01*
X0099839Y0060993D01*
X0099780Y0060984D01*
X0099721Y0060971D01*
X0099662Y0060955D01*
X0099605Y0060935D01*
X0099550Y0060912D01*
X0099495Y0060885D01*
X0099443Y0060856D01*
X0099392Y0060823D01*
X0099343Y0060787D01*
X0099297Y0060749D01*
X0099253Y0060707D01*
X0099211Y0060663D01*
X0099173Y0060617D01*
X0099137Y0060568D01*
X0099104Y0060517D01*
X0099075Y0060465D01*
X0099048Y0060410D01*
X0099025Y0060355D01*
X0099005Y0060298D01*
X0098989Y0060239D01*
X0098976Y0060180D01*
X0098967Y0060121D01*
X0098962Y0060060D01*
X0098960Y0060000D01*
X0098960Y0058500D01*
X0099460Y0058000D01*
X0099460Y0044000D01*
X0098960Y0043500D01*
X0098960Y0042000D01*
X0098962Y0041940D01*
X0098967Y0041879D01*
X0098976Y0041820D01*
X0098989Y0041761D01*
X0099005Y0041702D01*
X0099025Y0041645D01*
X0099048Y0041590D01*
X0099075Y0041535D01*
X0099104Y0041483D01*
X0099137Y0041432D01*
X0099173Y0041383D01*
X0099211Y0041337D01*
X0099253Y0041293D01*
X0099297Y0041251D01*
X0099343Y0041213D01*
X0099392Y0041177D01*
X0099443Y0041144D01*
X0099495Y0041115D01*
X0099550Y0041088D01*
X0099605Y0041065D01*
X0099662Y0041045D01*
X0099721Y0041029D01*
X0099780Y0041016D01*
X0099839Y0041007D01*
X0099900Y0041002D01*
X0099960Y0041000D01*
X0105960Y0041000D01*
X0106020Y0041002D01*
X0106081Y0041007D01*
X0106140Y0041016D01*
X0106199Y0041029D01*
X0106258Y0041045D01*
X0106315Y0041065D01*
X0106370Y0041088D01*
X0106425Y0041115D01*
X0106477Y0041144D01*
X0106528Y0041177D01*
X0106577Y0041213D01*
X0106623Y0041251D01*
X0106667Y0041293D01*
X0106709Y0041337D01*
X0106747Y0041383D01*
X0106783Y0041432D01*
X0106816Y0041483D01*
X0106845Y0041535D01*
X0106872Y0041590D01*
X0106895Y0041645D01*
X0106915Y0041702D01*
X0106931Y0041761D01*
X0106944Y0041820D01*
X0106953Y0041879D01*
X0106958Y0041940D01*
X0106960Y0042000D01*
X0106958Y0041940D01*
X0106953Y0041879D01*
X0106944Y0041820D01*
X0106931Y0041761D01*
X0106915Y0041702D01*
X0106895Y0041645D01*
X0106872Y0041590D01*
X0106845Y0041535D01*
X0106816Y0041483D01*
X0106783Y0041432D01*
X0106747Y0041383D01*
X0106709Y0041337D01*
X0106667Y0041293D01*
X0106623Y0041251D01*
X0106577Y0041213D01*
X0106528Y0041177D01*
X0106477Y0041144D01*
X0106425Y0041115D01*
X0106370Y0041088D01*
X0106315Y0041065D01*
X0106258Y0041045D01*
X0106199Y0041029D01*
X0106140Y0041016D01*
X0106081Y0041007D01*
X0106020Y0041002D01*
X0105960Y0041000D01*
X0099960Y0041000D02*
X0099900Y0041002D01*
X0099839Y0041007D01*
X0099780Y0041016D01*
X0099721Y0041029D01*
X0099662Y0041045D01*
X0099605Y0041065D01*
X0099550Y0041088D01*
X0099495Y0041115D01*
X0099443Y0041144D01*
X0099392Y0041177D01*
X0099343Y0041213D01*
X0099297Y0041251D01*
X0099253Y0041293D01*
X0099211Y0041337D01*
X0099173Y0041383D01*
X0099137Y0041432D01*
X0099104Y0041483D01*
X0099075Y0041535D01*
X0099048Y0041590D01*
X0099025Y0041645D01*
X0099005Y0041702D01*
X0098989Y0041761D01*
X0098976Y0041820D01*
X0098967Y0041879D01*
X0098962Y0041940D01*
X0098960Y0042000D01*
X0115960Y0041000D02*
X0116020Y0040998D01*
X0116081Y0040993D01*
X0116140Y0040984D01*
X0116199Y0040971D01*
X0116258Y0040955D01*
X0116315Y0040935D01*
X0116370Y0040912D01*
X0116425Y0040885D01*
X0116477Y0040856D01*
X0116528Y0040823D01*
X0116577Y0040787D01*
X0116623Y0040749D01*
X0116667Y0040707D01*
X0116709Y0040663D01*
X0116747Y0040617D01*
X0116783Y0040568D01*
X0116816Y0040517D01*
X0116845Y0040465D01*
X0116872Y0040410D01*
X0116895Y0040355D01*
X0116915Y0040298D01*
X0116931Y0040239D01*
X0116944Y0040180D01*
X0116953Y0040121D01*
X0116958Y0040060D01*
X0116960Y0040000D01*
X0133960Y0047000D02*
X0135460Y0047000D01*
X0135960Y0047500D01*
X0149960Y0047500D01*
X0150460Y0047000D01*
X0151960Y0047000D01*
X0152020Y0047002D01*
X0152081Y0047007D01*
X0152140Y0047016D01*
X0152199Y0047029D01*
X0152258Y0047045D01*
X0152315Y0047065D01*
X0152370Y0047088D01*
X0152425Y0047115D01*
X0152477Y0047144D01*
X0152528Y0047177D01*
X0152577Y0047213D01*
X0152623Y0047251D01*
X0152667Y0047293D01*
X0152709Y0047337D01*
X0152747Y0047383D01*
X0152783Y0047432D01*
X0152816Y0047483D01*
X0152845Y0047535D01*
X0152872Y0047590D01*
X0152895Y0047645D01*
X0152915Y0047702D01*
X0152931Y0047761D01*
X0152944Y0047820D01*
X0152953Y0047879D01*
X0152958Y0047940D01*
X0152960Y0048000D01*
X0152960Y0054000D01*
X0152958Y0054060D01*
X0152953Y0054121D01*
X0152944Y0054180D01*
X0152931Y0054239D01*
X0152915Y0054298D01*
X0152895Y0054355D01*
X0152872Y0054410D01*
X0152845Y0054465D01*
X0152816Y0054517D01*
X0152783Y0054568D01*
X0152747Y0054617D01*
X0152709Y0054663D01*
X0152667Y0054707D01*
X0152623Y0054749D01*
X0152577Y0054787D01*
X0152528Y0054823D01*
X0152477Y0054856D01*
X0152425Y0054885D01*
X0152370Y0054912D01*
X0152315Y0054935D01*
X0152258Y0054955D01*
X0152199Y0054971D01*
X0152140Y0054984D01*
X0152081Y0054993D01*
X0152020Y0054998D01*
X0151960Y0055000D01*
X0150460Y0055000D01*
X0149960Y0054500D01*
X0135960Y0054500D01*
X0135460Y0055000D01*
X0133960Y0055000D01*
X0133900Y0054998D01*
X0133839Y0054993D01*
X0133780Y0054984D01*
X0133721Y0054971D01*
X0133662Y0054955D01*
X0133605Y0054935D01*
X0133550Y0054912D01*
X0133495Y0054885D01*
X0133443Y0054856D01*
X0133392Y0054823D01*
X0133343Y0054787D01*
X0133297Y0054749D01*
X0133253Y0054707D01*
X0133211Y0054663D01*
X0133173Y0054617D01*
X0133137Y0054568D01*
X0133104Y0054517D01*
X0133075Y0054465D01*
X0133048Y0054410D01*
X0133025Y0054355D01*
X0133005Y0054298D01*
X0132989Y0054239D01*
X0132976Y0054180D01*
X0132967Y0054121D01*
X0132962Y0054060D01*
X0132960Y0054000D01*
X0132960Y0048000D01*
X0132962Y0047940D01*
X0132967Y0047879D01*
X0132976Y0047820D01*
X0132989Y0047761D01*
X0133005Y0047702D01*
X0133025Y0047645D01*
X0133048Y0047590D01*
X0133075Y0047535D01*
X0133104Y0047483D01*
X0133137Y0047432D01*
X0133173Y0047383D01*
X0133211Y0047337D01*
X0133253Y0047293D01*
X0133297Y0047251D01*
X0133343Y0047213D01*
X0133392Y0047177D01*
X0133443Y0047144D01*
X0133495Y0047115D01*
X0133550Y0047088D01*
X0133605Y0047065D01*
X0133662Y0047045D01*
X0133721Y0047029D01*
X0133780Y0047016D01*
X0133839Y0047007D01*
X0133900Y0047002D01*
X0133960Y0047000D01*
X0133900Y0047002D01*
X0133839Y0047007D01*
X0133780Y0047016D01*
X0133721Y0047029D01*
X0133662Y0047045D01*
X0133605Y0047065D01*
X0133550Y0047088D01*
X0133495Y0047115D01*
X0133443Y0047144D01*
X0133392Y0047177D01*
X0133343Y0047213D01*
X0133297Y0047251D01*
X0133253Y0047293D01*
X0133211Y0047337D01*
X0133173Y0047383D01*
X0133137Y0047432D01*
X0133104Y0047483D01*
X0133075Y0047535D01*
X0133048Y0047590D01*
X0133025Y0047645D01*
X0133005Y0047702D01*
X0132989Y0047761D01*
X0132976Y0047820D01*
X0132967Y0047879D01*
X0132962Y0047940D01*
X0132960Y0048000D01*
X0132960Y0054000D02*
X0132962Y0054060D01*
X0132967Y0054121D01*
X0132976Y0054180D01*
X0132989Y0054239D01*
X0133005Y0054298D01*
X0133025Y0054355D01*
X0133048Y0054410D01*
X0133075Y0054465D01*
X0133104Y0054517D01*
X0133137Y0054568D01*
X0133173Y0054617D01*
X0133211Y0054663D01*
X0133253Y0054707D01*
X0133297Y0054749D01*
X0133343Y0054787D01*
X0133392Y0054823D01*
X0133443Y0054856D01*
X0133495Y0054885D01*
X0133550Y0054912D01*
X0133605Y0054935D01*
X0133662Y0054955D01*
X0133721Y0054971D01*
X0133780Y0054984D01*
X0133839Y0054993D01*
X0133900Y0054998D01*
X0133960Y0055000D01*
X0151960Y0055000D02*
X0152020Y0054998D01*
X0152081Y0054993D01*
X0152140Y0054984D01*
X0152199Y0054971D01*
X0152258Y0054955D01*
X0152315Y0054935D01*
X0152370Y0054912D01*
X0152425Y0054885D01*
X0152477Y0054856D01*
X0152528Y0054823D01*
X0152577Y0054787D01*
X0152623Y0054749D01*
X0152667Y0054707D01*
X0152709Y0054663D01*
X0152747Y0054617D01*
X0152783Y0054568D01*
X0152816Y0054517D01*
X0152845Y0054465D01*
X0152872Y0054410D01*
X0152895Y0054355D01*
X0152915Y0054298D01*
X0152931Y0054239D01*
X0152944Y0054180D01*
X0152953Y0054121D01*
X0152958Y0054060D01*
X0152960Y0054000D01*
X0152960Y0048000D02*
X0152958Y0047940D01*
X0152953Y0047879D01*
X0152944Y0047820D01*
X0152931Y0047761D01*
X0152915Y0047702D01*
X0152895Y0047645D01*
X0152872Y0047590D01*
X0152845Y0047535D01*
X0152816Y0047483D01*
X0152783Y0047432D01*
X0152747Y0047383D01*
X0152709Y0047337D01*
X0152667Y0047293D01*
X0152623Y0047251D01*
X0152577Y0047213D01*
X0152528Y0047177D01*
X0152477Y0047144D01*
X0152425Y0047115D01*
X0152370Y0047088D01*
X0152315Y0047065D01*
X0152258Y0047045D01*
X0152199Y0047029D01*
X0152140Y0047016D01*
X0152081Y0047007D01*
X0152020Y0047002D01*
X0151960Y0047000D01*
X0184960Y0056000D02*
X0184962Y0056196D01*
X0184970Y0056393D01*
X0184982Y0056589D01*
X0184999Y0056784D01*
X0185020Y0056979D01*
X0185047Y0057174D01*
X0185078Y0057368D01*
X0185114Y0057561D01*
X0185154Y0057753D01*
X0185200Y0057944D01*
X0185250Y0058134D01*
X0185304Y0058322D01*
X0185364Y0058509D01*
X0185428Y0058695D01*
X0185496Y0058879D01*
X0185569Y0059061D01*
X0185646Y0059242D01*
X0185728Y0059420D01*
X0185814Y0059597D01*
X0185905Y0059771D01*
X0185999Y0059943D01*
X0186098Y0060113D01*
X0186201Y0060280D01*
X0186308Y0060445D01*
X0186419Y0060606D01*
X0186534Y0060766D01*
X0186653Y0060922D01*
X0186776Y0061075D01*
X0186902Y0061225D01*
X0187032Y0061372D01*
X0187166Y0061516D01*
X0187303Y0061657D01*
X0187444Y0061794D01*
X0187588Y0061928D01*
X0187735Y0062058D01*
X0187885Y0062184D01*
X0188038Y0062307D01*
X0188194Y0062426D01*
X0188354Y0062541D01*
X0188515Y0062652D01*
X0188680Y0062759D01*
X0188847Y0062862D01*
X0189017Y0062961D01*
X0189189Y0063055D01*
X0189363Y0063146D01*
X0189540Y0063232D01*
X0189718Y0063314D01*
X0189899Y0063391D01*
X0190081Y0063464D01*
X0190265Y0063532D01*
X0190451Y0063596D01*
X0190638Y0063656D01*
X0190826Y0063710D01*
X0191016Y0063760D01*
X0191207Y0063806D01*
X0191399Y0063846D01*
X0191592Y0063882D01*
X0191786Y0063913D01*
X0191981Y0063940D01*
X0192176Y0063961D01*
X0192371Y0063978D01*
X0192567Y0063990D01*
X0192764Y0063998D01*
X0192960Y0064000D01*
X0193156Y0063998D01*
X0193353Y0063990D01*
X0193549Y0063978D01*
X0193744Y0063961D01*
X0193939Y0063940D01*
X0194134Y0063913D01*
X0194328Y0063882D01*
X0194521Y0063846D01*
X0194713Y0063806D01*
X0194904Y0063760D01*
X0195094Y0063710D01*
X0195282Y0063656D01*
X0195469Y0063596D01*
X0195655Y0063532D01*
X0195839Y0063464D01*
X0196021Y0063391D01*
X0196202Y0063314D01*
X0196380Y0063232D01*
X0196557Y0063146D01*
X0196731Y0063055D01*
X0196903Y0062961D01*
X0197073Y0062862D01*
X0197240Y0062759D01*
X0197405Y0062652D01*
X0197566Y0062541D01*
X0197726Y0062426D01*
X0197882Y0062307D01*
X0198035Y0062184D01*
X0198185Y0062058D01*
X0198332Y0061928D01*
X0198476Y0061794D01*
X0198617Y0061657D01*
X0198754Y0061516D01*
X0198888Y0061372D01*
X0199018Y0061225D01*
X0199144Y0061075D01*
X0199267Y0060922D01*
X0199386Y0060766D01*
X0199501Y0060606D01*
X0199612Y0060445D01*
X0199719Y0060280D01*
X0199822Y0060113D01*
X0199921Y0059943D01*
X0200015Y0059771D01*
X0200106Y0059597D01*
X0200192Y0059420D01*
X0200274Y0059242D01*
X0200351Y0059061D01*
X0200424Y0058879D01*
X0200492Y0058695D01*
X0200556Y0058509D01*
X0200616Y0058322D01*
X0200670Y0058134D01*
X0200720Y0057944D01*
X0200766Y0057753D01*
X0200806Y0057561D01*
X0200842Y0057368D01*
X0200873Y0057174D01*
X0200900Y0056979D01*
X0200921Y0056784D01*
X0200938Y0056589D01*
X0200950Y0056393D01*
X0200958Y0056196D01*
X0200960Y0056000D01*
X0200958Y0055804D01*
X0200950Y0055607D01*
X0200938Y0055411D01*
X0200921Y0055216D01*
X0200900Y0055021D01*
X0200873Y0054826D01*
X0200842Y0054632D01*
X0200806Y0054439D01*
X0200766Y0054247D01*
X0200720Y0054056D01*
X0200670Y0053866D01*
X0200616Y0053678D01*
X0200556Y0053491D01*
X0200492Y0053305D01*
X0200424Y0053121D01*
X0200351Y0052939D01*
X0200274Y0052758D01*
X0200192Y0052580D01*
X0200106Y0052403D01*
X0200015Y0052229D01*
X0199921Y0052057D01*
X0199822Y0051887D01*
X0199719Y0051720D01*
X0199612Y0051555D01*
X0199501Y0051394D01*
X0199386Y0051234D01*
X0199267Y0051078D01*
X0199144Y0050925D01*
X0199018Y0050775D01*
X0198888Y0050628D01*
X0198754Y0050484D01*
X0198617Y0050343D01*
X0198476Y0050206D01*
X0198332Y0050072D01*
X0198185Y0049942D01*
X0198035Y0049816D01*
X0197882Y0049693D01*
X0197726Y0049574D01*
X0197566Y0049459D01*
X0197405Y0049348D01*
X0197240Y0049241D01*
X0197073Y0049138D01*
X0196903Y0049039D01*
X0196731Y0048945D01*
X0196557Y0048854D01*
X0196380Y0048768D01*
X0196202Y0048686D01*
X0196021Y0048609D01*
X0195839Y0048536D01*
X0195655Y0048468D01*
X0195469Y0048404D01*
X0195282Y0048344D01*
X0195094Y0048290D01*
X0194904Y0048240D01*
X0194713Y0048194D01*
X0194521Y0048154D01*
X0194328Y0048118D01*
X0194134Y0048087D01*
X0193939Y0048060D01*
X0193744Y0048039D01*
X0193549Y0048022D01*
X0193353Y0048010D01*
X0193156Y0048002D01*
X0192960Y0048000D01*
X0192764Y0048002D01*
X0192567Y0048010D01*
X0192371Y0048022D01*
X0192176Y0048039D01*
X0191981Y0048060D01*
X0191786Y0048087D01*
X0191592Y0048118D01*
X0191399Y0048154D01*
X0191207Y0048194D01*
X0191016Y0048240D01*
X0190826Y0048290D01*
X0190638Y0048344D01*
X0190451Y0048404D01*
X0190265Y0048468D01*
X0190081Y0048536D01*
X0189899Y0048609D01*
X0189718Y0048686D01*
X0189540Y0048768D01*
X0189363Y0048854D01*
X0189189Y0048945D01*
X0189017Y0049039D01*
X0188847Y0049138D01*
X0188680Y0049241D01*
X0188515Y0049348D01*
X0188354Y0049459D01*
X0188194Y0049574D01*
X0188038Y0049693D01*
X0187885Y0049816D01*
X0187735Y0049942D01*
X0187588Y0050072D01*
X0187444Y0050206D01*
X0187303Y0050343D01*
X0187166Y0050484D01*
X0187032Y0050628D01*
X0186902Y0050775D01*
X0186776Y0050925D01*
X0186653Y0051078D01*
X0186534Y0051234D01*
X0186419Y0051394D01*
X0186308Y0051555D01*
X0186201Y0051720D01*
X0186098Y0051887D01*
X0185999Y0052057D01*
X0185905Y0052229D01*
X0185814Y0052403D01*
X0185728Y0052580D01*
X0185646Y0052758D01*
X0185569Y0052939D01*
X0185496Y0053121D01*
X0185428Y0053305D01*
X0185364Y0053491D01*
X0185304Y0053678D01*
X0185250Y0053866D01*
X0185200Y0054056D01*
X0185154Y0054247D01*
X0185114Y0054439D01*
X0185078Y0054632D01*
X0185047Y0054826D01*
X0185020Y0055021D01*
X0184999Y0055216D01*
X0184982Y0055411D01*
X0184970Y0055607D01*
X0184962Y0055804D01*
X0184960Y0056000D01*
X0197210Y0060000D02*
X0197960Y0060000D01*
X0198710Y0060000D01*
X0197960Y0060000D02*
X0197960Y0059250D01*
X0197960Y0060000D02*
X0197960Y0060750D01*
X0106960Y0060000D02*
X0106958Y0060060D01*
X0106953Y0060121D01*
X0106944Y0060180D01*
X0106931Y0060239D01*
X0106915Y0060298D01*
X0106895Y0060355D01*
X0106872Y0060410D01*
X0106845Y0060465D01*
X0106816Y0060517D01*
X0106783Y0060568D01*
X0106747Y0060617D01*
X0106709Y0060663D01*
X0106667Y0060707D01*
X0106623Y0060749D01*
X0106577Y0060787D01*
X0106528Y0060823D01*
X0106477Y0060856D01*
X0106425Y0060885D01*
X0106370Y0060912D01*
X0106315Y0060935D01*
X0106258Y0060955D01*
X0106199Y0060971D01*
X0106140Y0060984D01*
X0106081Y0060993D01*
X0106020Y0060998D01*
X0105960Y0061000D01*
X0099960Y0061000D02*
X0099900Y0060998D01*
X0099839Y0060993D01*
X0099780Y0060984D01*
X0099721Y0060971D01*
X0099662Y0060955D01*
X0099605Y0060935D01*
X0099550Y0060912D01*
X0099495Y0060885D01*
X0099443Y0060856D01*
X0099392Y0060823D01*
X0099343Y0060787D01*
X0099297Y0060749D01*
X0099253Y0060707D01*
X0099211Y0060663D01*
X0099173Y0060617D01*
X0099137Y0060568D01*
X0099104Y0060517D01*
X0099075Y0060465D01*
X0099048Y0060410D01*
X0099025Y0060355D01*
X0099005Y0060298D01*
X0098989Y0060239D01*
X0098976Y0060180D01*
X0098967Y0060121D01*
X0098962Y0060060D01*
X0098960Y0060000D01*
X0096460Y0054000D02*
X0096460Y0068000D01*
X0096960Y0068500D01*
X0096960Y0070000D01*
X0096958Y0070060D01*
X0096953Y0070121D01*
X0096944Y0070180D01*
X0096931Y0070239D01*
X0096915Y0070298D01*
X0096895Y0070355D01*
X0096872Y0070410D01*
X0096845Y0070465D01*
X0096816Y0070517D01*
X0096783Y0070568D01*
X0096747Y0070617D01*
X0096709Y0070663D01*
X0096667Y0070707D01*
X0096623Y0070749D01*
X0096577Y0070787D01*
X0096528Y0070823D01*
X0096477Y0070856D01*
X0096425Y0070885D01*
X0096370Y0070912D01*
X0096315Y0070935D01*
X0096258Y0070955D01*
X0096199Y0070971D01*
X0096140Y0070984D01*
X0096081Y0070993D01*
X0096020Y0070998D01*
X0095960Y0071000D01*
X0089960Y0071000D01*
X0089900Y0070998D01*
X0089839Y0070993D01*
X0089780Y0070984D01*
X0089721Y0070971D01*
X0089662Y0070955D01*
X0089605Y0070935D01*
X0089550Y0070912D01*
X0089495Y0070885D01*
X0089443Y0070856D01*
X0089392Y0070823D01*
X0089343Y0070787D01*
X0089297Y0070749D01*
X0089253Y0070707D01*
X0089211Y0070663D01*
X0089173Y0070617D01*
X0089137Y0070568D01*
X0089104Y0070517D01*
X0089075Y0070465D01*
X0089048Y0070410D01*
X0089025Y0070355D01*
X0089005Y0070298D01*
X0088989Y0070239D01*
X0088976Y0070180D01*
X0088967Y0070121D01*
X0088962Y0070060D01*
X0088960Y0070000D01*
X0088960Y0068500D01*
X0089460Y0068000D01*
X0089460Y0054000D01*
X0088960Y0053500D01*
X0088960Y0052000D01*
X0088962Y0051940D01*
X0088967Y0051879D01*
X0088976Y0051820D01*
X0088989Y0051761D01*
X0089005Y0051702D01*
X0089025Y0051645D01*
X0089048Y0051590D01*
X0089075Y0051535D01*
X0089104Y0051483D01*
X0089137Y0051432D01*
X0089173Y0051383D01*
X0089211Y0051337D01*
X0089253Y0051293D01*
X0089297Y0051251D01*
X0089343Y0051213D01*
X0089392Y0051177D01*
X0089443Y0051144D01*
X0089495Y0051115D01*
X0089550Y0051088D01*
X0089605Y0051065D01*
X0089662Y0051045D01*
X0089721Y0051029D01*
X0089780Y0051016D01*
X0089839Y0051007D01*
X0089900Y0051002D01*
X0089960Y0051000D01*
X0095960Y0051000D01*
X0096020Y0051002D01*
X0096081Y0051007D01*
X0096140Y0051016D01*
X0096199Y0051029D01*
X0096258Y0051045D01*
X0096315Y0051065D01*
X0096370Y0051088D01*
X0096425Y0051115D01*
X0096477Y0051144D01*
X0096528Y0051177D01*
X0096577Y0051213D01*
X0096623Y0051251D01*
X0096667Y0051293D01*
X0096709Y0051337D01*
X0096747Y0051383D01*
X0096783Y0051432D01*
X0096816Y0051483D01*
X0096845Y0051535D01*
X0096872Y0051590D01*
X0096895Y0051645D01*
X0096915Y0051702D01*
X0096931Y0051761D01*
X0096944Y0051820D01*
X0096953Y0051879D01*
X0096958Y0051940D01*
X0096960Y0052000D01*
X0096960Y0053500D01*
X0096460Y0054000D01*
X0096960Y0052000D02*
X0096958Y0051940D01*
X0096953Y0051879D01*
X0096944Y0051820D01*
X0096931Y0051761D01*
X0096915Y0051702D01*
X0096895Y0051645D01*
X0096872Y0051590D01*
X0096845Y0051535D01*
X0096816Y0051483D01*
X0096783Y0051432D01*
X0096747Y0051383D01*
X0096709Y0051337D01*
X0096667Y0051293D01*
X0096623Y0051251D01*
X0096577Y0051213D01*
X0096528Y0051177D01*
X0096477Y0051144D01*
X0096425Y0051115D01*
X0096370Y0051088D01*
X0096315Y0051065D01*
X0096258Y0051045D01*
X0096199Y0051029D01*
X0096140Y0051016D01*
X0096081Y0051007D01*
X0096020Y0051002D01*
X0095960Y0051000D01*
X0089960Y0051000D02*
X0089900Y0051002D01*
X0089839Y0051007D01*
X0089780Y0051016D01*
X0089721Y0051029D01*
X0089662Y0051045D01*
X0089605Y0051065D01*
X0089550Y0051088D01*
X0089495Y0051115D01*
X0089443Y0051144D01*
X0089392Y0051177D01*
X0089343Y0051213D01*
X0089297Y0051251D01*
X0089253Y0051293D01*
X0089211Y0051337D01*
X0089173Y0051383D01*
X0089137Y0051432D01*
X0089104Y0051483D01*
X0089075Y0051535D01*
X0089048Y0051590D01*
X0089025Y0051645D01*
X0089005Y0051702D01*
X0088989Y0051761D01*
X0088976Y0051820D01*
X0088967Y0051879D01*
X0088962Y0051940D01*
X0088960Y0052000D01*
X0024070Y0051969D02*
X0024225Y0052674D01*
X0024397Y0053376D01*
X0024586Y0054073D01*
X0024792Y0054765D01*
X0025015Y0055452D01*
X0025255Y0056133D01*
X0025511Y0056808D01*
X0025784Y0057477D01*
X0026073Y0058139D01*
X0026378Y0058793D01*
X0026700Y0059440D01*
X0027036Y0060079D01*
X0027389Y0060709D01*
X0027757Y0061331D01*
X0028139Y0061943D01*
X0028537Y0062546D01*
X0028950Y0063139D01*
X0029376Y0063722D01*
X0029817Y0064294D01*
X0030272Y0064855D01*
X0030740Y0065404D01*
X0031222Y0065943D01*
X0031717Y0066469D01*
X0032224Y0066983D01*
X0032744Y0067484D01*
X0033276Y0067972D01*
X0033820Y0068448D01*
X0034375Y0068910D01*
X0034941Y0069358D01*
X0035519Y0069792D01*
X0036106Y0070212D01*
X0036704Y0070617D01*
X0037311Y0071007D01*
X0037928Y0071383D01*
X0038554Y0071743D01*
X0039189Y0072088D01*
X0039831Y0072418D01*
X0040482Y0072731D01*
X0041140Y0073029D01*
X0041805Y0073310D01*
X0042477Y0073575D01*
X0043155Y0073823D01*
X0043839Y0074055D01*
X0044529Y0074270D01*
X0045223Y0074467D01*
X0045923Y0074648D01*
X0046626Y0074812D01*
X0047333Y0074958D01*
X0048044Y0075087D01*
X0048757Y0075199D01*
X0049473Y0075293D01*
X0050192Y0075370D01*
X0050911Y0075429D01*
X0051632Y0075470D01*
X0052354Y0075494D01*
X0053076Y0075500D01*
X0053798Y0075488D01*
X0054520Y0075459D01*
X0055241Y0075412D01*
X0055960Y0075347D01*
X0056678Y0075265D01*
X0057393Y0075165D01*
X0058105Y0075048D01*
X0058815Y0074913D01*
X0059521Y0074761D01*
X0060223Y0074592D01*
X0060921Y0074406D01*
X0061614Y0074202D01*
X0062302Y0073982D01*
X0062984Y0073745D01*
X0063660Y0073491D01*
X0064330Y0073221D01*
X0064993Y0072934D01*
X0065648Y0072632D01*
X0066297Y0072313D01*
X0066937Y0071979D01*
X0067568Y0071629D01*
X0068191Y0071264D01*
X0068805Y0070883D01*
X0069410Y0070488D01*
X0070004Y0070078D01*
X0070589Y0069653D01*
X0071162Y0069215D01*
X0071725Y0068762D01*
X0072277Y0068296D01*
X0072817Y0067817D01*
X0073345Y0067324D01*
X0073861Y0066818D01*
X0074364Y0066301D01*
X0074855Y0065771D01*
X0075332Y0065229D01*
X0075796Y0064675D01*
X0076246Y0064111D01*
X0076683Y0063535D01*
X0077105Y0062949D01*
X0077513Y0062353D01*
X0077906Y0061747D01*
X0078284Y0061132D01*
X0078646Y0060507D01*
X0078994Y0059874D01*
X0079326Y0059233D01*
X0079642Y0058583D01*
X0079942Y0057926D01*
X0080226Y0057262D01*
X0080493Y0056591D01*
X0080744Y0055914D01*
X0080978Y0055231D01*
X0081196Y0054543D01*
X0081397Y0053849D01*
X0081580Y0053150D01*
X0081747Y0052448D01*
X0081896Y0051741D01*
X0082028Y0051031D01*
X0082142Y0050318D01*
X0082239Y0049602D01*
X0082319Y0048884D01*
X0082380Y0048165D01*
X0082425Y0047444D01*
X0082451Y0046722D01*
X0082460Y0046000D01*
X0082451Y0045278D01*
X0082425Y0044556D01*
X0082380Y0043835D01*
X0082319Y0043116D01*
X0082239Y0042398D01*
X0082142Y0041682D01*
X0082028Y0040969D01*
X0081896Y0040259D01*
X0081747Y0039552D01*
X0081580Y0038850D01*
X0081397Y0038151D01*
X0081196Y0037457D01*
X0080978Y0036769D01*
X0080744Y0036086D01*
X0080493Y0035409D01*
X0080226Y0034738D01*
X0079942Y0034074D01*
X0079642Y0033417D01*
X0079326Y0032767D01*
X0078994Y0032126D01*
X0078646Y0031493D01*
X0078284Y0030868D01*
X0077906Y0030253D01*
X0077513Y0029647D01*
X0077105Y0029051D01*
X0076683Y0028465D01*
X0076246Y0027889D01*
X0075796Y0027325D01*
X0075332Y0026771D01*
X0074855Y0026229D01*
X0074364Y0025699D01*
X0073861Y0025182D01*
X0073345Y0024676D01*
X0072817Y0024183D01*
X0072277Y0023704D01*
X0071725Y0023238D01*
X0071162Y0022785D01*
X0070589Y0022347D01*
X0070004Y0021922D01*
X0069410Y0021512D01*
X0068805Y0021117D01*
X0068191Y0020736D01*
X0067568Y0020371D01*
X0066937Y0020021D01*
X0066297Y0019687D01*
X0065648Y0019368D01*
X0064993Y0019066D01*
X0064330Y0018779D01*
X0063660Y0018509D01*
X0062984Y0018255D01*
X0062302Y0018018D01*
X0061614Y0017798D01*
X0060921Y0017594D01*
X0060223Y0017408D01*
X0059521Y0017239D01*
X0058815Y0017087D01*
X0058105Y0016952D01*
X0057393Y0016835D01*
X0056678Y0016735D01*
X0055960Y0016653D01*
X0055241Y0016588D01*
X0054520Y0016541D01*
X0053798Y0016512D01*
X0053076Y0016500D01*
X0052354Y0016506D01*
X0051632Y0016530D01*
X0050911Y0016571D01*
X0050192Y0016630D01*
X0049473Y0016707D01*
X0048757Y0016801D01*
X0048044Y0016913D01*
X0047333Y0017042D01*
X0046626Y0017188D01*
X0045923Y0017352D01*
X0045223Y0017533D01*
X0044529Y0017730D01*
X0043839Y0017945D01*
X0043155Y0018177D01*
X0042477Y0018425D01*
X0041805Y0018690D01*
X0041140Y0018971D01*
X0040482Y0019269D01*
X0039831Y0019582D01*
X0039189Y0019912D01*
X0038554Y0020257D01*
X0037928Y0020617D01*
X0037311Y0020993D01*
X0036704Y0021383D01*
X0036106Y0021788D01*
X0035519Y0022208D01*
X0034941Y0022642D01*
X0034375Y0023090D01*
X0033820Y0023552D01*
X0033276Y0024028D01*
X0032744Y0024516D01*
X0032224Y0025017D01*
X0031717Y0025531D01*
X0031222Y0026057D01*
X0030740Y0026596D01*
X0030272Y0027145D01*
X0029817Y0027706D01*
X0029376Y0028278D01*
X0028950Y0028861D01*
X0028537Y0029454D01*
X0028139Y0030057D01*
X0027757Y0030669D01*
X0027389Y0031291D01*
X0027036Y0031921D01*
X0026700Y0032560D01*
X0026378Y0033207D01*
X0026073Y0033861D01*
X0025784Y0034523D01*
X0025511Y0035192D01*
X0025255Y0035867D01*
X0025015Y0036548D01*
X0024792Y0037235D01*
X0024586Y0037927D01*
X0024397Y0038624D01*
X0024225Y0039326D01*
X0024070Y0040031D01*
X0004960Y0046000D02*
X0004962Y0046196D01*
X0004970Y0046393D01*
X0004982Y0046589D01*
X0004999Y0046784D01*
X0005020Y0046979D01*
X0005047Y0047174D01*
X0005078Y0047368D01*
X0005114Y0047561D01*
X0005154Y0047753D01*
X0005200Y0047944D01*
X0005250Y0048134D01*
X0005304Y0048322D01*
X0005364Y0048509D01*
X0005428Y0048695D01*
X0005496Y0048879D01*
X0005569Y0049061D01*
X0005646Y0049242D01*
X0005728Y0049420D01*
X0005814Y0049597D01*
X0005905Y0049771D01*
X0005999Y0049943D01*
X0006098Y0050113D01*
X0006201Y0050280D01*
X0006308Y0050445D01*
X0006419Y0050606D01*
X0006534Y0050766D01*
X0006653Y0050922D01*
X0006776Y0051075D01*
X0006902Y0051225D01*
X0007032Y0051372D01*
X0007166Y0051516D01*
X0007303Y0051657D01*
X0007444Y0051794D01*
X0007588Y0051928D01*
X0007735Y0052058D01*
X0007885Y0052184D01*
X0008038Y0052307D01*
X0008194Y0052426D01*
X0008354Y0052541D01*
X0008515Y0052652D01*
X0008680Y0052759D01*
X0008847Y0052862D01*
X0009017Y0052961D01*
X0009189Y0053055D01*
X0009363Y0053146D01*
X0009540Y0053232D01*
X0009718Y0053314D01*
X0009899Y0053391D01*
X0010081Y0053464D01*
X0010265Y0053532D01*
X0010451Y0053596D01*
X0010638Y0053656D01*
X0010826Y0053710D01*
X0011016Y0053760D01*
X0011207Y0053806D01*
X0011399Y0053846D01*
X0011592Y0053882D01*
X0011786Y0053913D01*
X0011981Y0053940D01*
X0012176Y0053961D01*
X0012371Y0053978D01*
X0012567Y0053990D01*
X0012764Y0053998D01*
X0012960Y0054000D01*
X0013156Y0053998D01*
X0013353Y0053990D01*
X0013549Y0053978D01*
X0013744Y0053961D01*
X0013939Y0053940D01*
X0014134Y0053913D01*
X0014328Y0053882D01*
X0014521Y0053846D01*
X0014713Y0053806D01*
X0014904Y0053760D01*
X0015094Y0053710D01*
X0015282Y0053656D01*
X0015469Y0053596D01*
X0015655Y0053532D01*
X0015839Y0053464D01*
X0016021Y0053391D01*
X0016202Y0053314D01*
X0016380Y0053232D01*
X0016557Y0053146D01*
X0016731Y0053055D01*
X0016903Y0052961D01*
X0017073Y0052862D01*
X0017240Y0052759D01*
X0017405Y0052652D01*
X0017566Y0052541D01*
X0017726Y0052426D01*
X0017882Y0052307D01*
X0018035Y0052184D01*
X0018185Y0052058D01*
X0018332Y0051928D01*
X0018476Y0051794D01*
X0018617Y0051657D01*
X0018754Y0051516D01*
X0018888Y0051372D01*
X0019018Y0051225D01*
X0019144Y0051075D01*
X0019267Y0050922D01*
X0019386Y0050766D01*
X0019501Y0050606D01*
X0019612Y0050445D01*
X0019719Y0050280D01*
X0019822Y0050113D01*
X0019921Y0049943D01*
X0020015Y0049771D01*
X0020106Y0049597D01*
X0020192Y0049420D01*
X0020274Y0049242D01*
X0020351Y0049061D01*
X0020424Y0048879D01*
X0020492Y0048695D01*
X0020556Y0048509D01*
X0020616Y0048322D01*
X0020670Y0048134D01*
X0020720Y0047944D01*
X0020766Y0047753D01*
X0020806Y0047561D01*
X0020842Y0047368D01*
X0020873Y0047174D01*
X0020900Y0046979D01*
X0020921Y0046784D01*
X0020938Y0046589D01*
X0020950Y0046393D01*
X0020958Y0046196D01*
X0020960Y0046000D01*
X0020958Y0045804D01*
X0020950Y0045607D01*
X0020938Y0045411D01*
X0020921Y0045216D01*
X0020900Y0045021D01*
X0020873Y0044826D01*
X0020842Y0044632D01*
X0020806Y0044439D01*
X0020766Y0044247D01*
X0020720Y0044056D01*
X0020670Y0043866D01*
X0020616Y0043678D01*
X0020556Y0043491D01*
X0020492Y0043305D01*
X0020424Y0043121D01*
X0020351Y0042939D01*
X0020274Y0042758D01*
X0020192Y0042580D01*
X0020106Y0042403D01*
X0020015Y0042229D01*
X0019921Y0042057D01*
X0019822Y0041887D01*
X0019719Y0041720D01*
X0019612Y0041555D01*
X0019501Y0041394D01*
X0019386Y0041234D01*
X0019267Y0041078D01*
X0019144Y0040925D01*
X0019018Y0040775D01*
X0018888Y0040628D01*
X0018754Y0040484D01*
X0018617Y0040343D01*
X0018476Y0040206D01*
X0018332Y0040072D01*
X0018185Y0039942D01*
X0018035Y0039816D01*
X0017882Y0039693D01*
X0017726Y0039574D01*
X0017566Y0039459D01*
X0017405Y0039348D01*
X0017240Y0039241D01*
X0017073Y0039138D01*
X0016903Y0039039D01*
X0016731Y0038945D01*
X0016557Y0038854D01*
X0016380Y0038768D01*
X0016202Y0038686D01*
X0016021Y0038609D01*
X0015839Y0038536D01*
X0015655Y0038468D01*
X0015469Y0038404D01*
X0015282Y0038344D01*
X0015094Y0038290D01*
X0014904Y0038240D01*
X0014713Y0038194D01*
X0014521Y0038154D01*
X0014328Y0038118D01*
X0014134Y0038087D01*
X0013939Y0038060D01*
X0013744Y0038039D01*
X0013549Y0038022D01*
X0013353Y0038010D01*
X0013156Y0038002D01*
X0012960Y0038000D01*
X0012764Y0038002D01*
X0012567Y0038010D01*
X0012371Y0038022D01*
X0012176Y0038039D01*
X0011981Y0038060D01*
X0011786Y0038087D01*
X0011592Y0038118D01*
X0011399Y0038154D01*
X0011207Y0038194D01*
X0011016Y0038240D01*
X0010826Y0038290D01*
X0010638Y0038344D01*
X0010451Y0038404D01*
X0010265Y0038468D01*
X0010081Y0038536D01*
X0009899Y0038609D01*
X0009718Y0038686D01*
X0009540Y0038768D01*
X0009363Y0038854D01*
X0009189Y0038945D01*
X0009017Y0039039D01*
X0008847Y0039138D01*
X0008680Y0039241D01*
X0008515Y0039348D01*
X0008354Y0039459D01*
X0008194Y0039574D01*
X0008038Y0039693D01*
X0007885Y0039816D01*
X0007735Y0039942D01*
X0007588Y0040072D01*
X0007444Y0040206D01*
X0007303Y0040343D01*
X0007166Y0040484D01*
X0007032Y0040628D01*
X0006902Y0040775D01*
X0006776Y0040925D01*
X0006653Y0041078D01*
X0006534Y0041234D01*
X0006419Y0041394D01*
X0006308Y0041555D01*
X0006201Y0041720D01*
X0006098Y0041887D01*
X0005999Y0042057D01*
X0005905Y0042229D01*
X0005814Y0042403D01*
X0005728Y0042580D01*
X0005646Y0042758D01*
X0005569Y0042939D01*
X0005496Y0043121D01*
X0005428Y0043305D01*
X0005364Y0043491D01*
X0005304Y0043678D01*
X0005250Y0043866D01*
X0005200Y0044056D01*
X0005154Y0044247D01*
X0005114Y0044439D01*
X0005078Y0044632D01*
X0005047Y0044826D01*
X0005020Y0045021D01*
X0004999Y0045216D01*
X0004982Y0045411D01*
X0004970Y0045607D01*
X0004962Y0045804D01*
X0004960Y0046000D01*
X0017210Y0050000D02*
X0017960Y0050000D01*
X0018710Y0050000D01*
X0017960Y0050000D02*
X0017960Y0049250D01*
X0017960Y0050000D02*
X0017960Y0050750D01*
X0035433Y0051920D02*
X0035583Y0052348D01*
X0035744Y0052771D01*
X0035915Y0053191D01*
X0036096Y0053606D01*
X0036287Y0054017D01*
X0036488Y0054422D01*
X0036700Y0054823D01*
X0036920Y0055219D01*
X0037151Y0055609D01*
X0037391Y0055993D01*
X0037640Y0056371D01*
X0037899Y0056743D01*
X0038166Y0057108D01*
X0038443Y0057467D01*
X0038728Y0057819D01*
X0039021Y0058164D01*
X0039323Y0058502D01*
X0039634Y0058832D01*
X0039952Y0059154D01*
X0040278Y0059469D01*
X0040611Y0059775D01*
X0040952Y0060074D01*
X0041300Y0060363D01*
X0041656Y0060644D01*
X0042017Y0060917D01*
X0042386Y0061180D01*
X0042761Y0061435D01*
X0043142Y0061680D01*
X0043529Y0061915D01*
X0043921Y0062141D01*
X0044319Y0062358D01*
X0044722Y0062565D01*
X0045130Y0062761D01*
X0045543Y0062948D01*
X0045960Y0063125D01*
X0046381Y0063291D01*
X0046807Y0063447D01*
X0047236Y0063592D01*
X0047668Y0063727D01*
X0048104Y0063851D01*
X0048542Y0063965D01*
X0048983Y0064068D01*
X0049427Y0064159D01*
X0049872Y0064241D01*
X0050320Y0064311D01*
X0050769Y0064370D01*
X0051219Y0064418D01*
X0051671Y0064455D01*
X0052123Y0064481D01*
X0052576Y0064496D01*
X0053029Y0064500D01*
X0053482Y0064493D01*
X0053934Y0064474D01*
X0054386Y0064445D01*
X0054838Y0064404D01*
X0055288Y0064353D01*
X0055736Y0064291D01*
X0056183Y0064217D01*
X0056628Y0064133D01*
X0057071Y0064037D01*
X0057511Y0063931D01*
X0057949Y0063815D01*
X0058384Y0063687D01*
X0058815Y0063549D01*
X0059243Y0063400D01*
X0059667Y0063241D01*
X0060087Y0063072D01*
X0060503Y0062892D01*
X0060914Y0062703D01*
X0061321Y0062503D01*
X0061723Y0062293D01*
X0062119Y0062074D01*
X0062510Y0061845D01*
X0062895Y0061606D01*
X0063274Y0061358D01*
X0063647Y0061101D01*
X0064013Y0060835D01*
X0064373Y0060560D01*
X0064726Y0060276D01*
X0065072Y0059984D01*
X0065411Y0059683D01*
X0065742Y0059374D01*
X0066066Y0059057D01*
X0066382Y0058732D01*
X0066689Y0058400D01*
X0066989Y0058060D01*
X0067280Y0057713D01*
X0067562Y0057359D01*
X0067836Y0056998D01*
X0068101Y0056630D01*
X0068357Y0056257D01*
X0068603Y0055877D01*
X0068840Y0055491D01*
X0069068Y0055099D01*
X0069286Y0054702D01*
X0069494Y0054300D01*
X0069692Y0053892D01*
X0069880Y0053480D01*
X0070058Y0053064D01*
X0070226Y0052643D01*
X0070384Y0052218D01*
X0070531Y0051790D01*
X0070667Y0051358D01*
X0070793Y0050923D01*
X0070908Y0050485D01*
X0071013Y0050044D01*
X0071106Y0049601D01*
X0071189Y0049155D01*
X0071261Y0048708D01*
X0071322Y0048259D01*
X0071371Y0047809D01*
X0071410Y0047358D01*
X0071438Y0046906D01*
X0071454Y0046453D01*
X0071460Y0046000D01*
X0071454Y0045547D01*
X0071438Y0045094D01*
X0071410Y0044642D01*
X0071371Y0044191D01*
X0071322Y0043741D01*
X0071261Y0043292D01*
X0071189Y0042845D01*
X0071106Y0042399D01*
X0071013Y0041956D01*
X0070908Y0041515D01*
X0070793Y0041077D01*
X0070667Y0040642D01*
X0070531Y0040210D01*
X0070384Y0039782D01*
X0070226Y0039357D01*
X0070058Y0038936D01*
X0069880Y0038520D01*
X0069692Y0038108D01*
X0069494Y0037700D01*
X0069286Y0037298D01*
X0069068Y0036901D01*
X0068840Y0036509D01*
X0068603Y0036123D01*
X0068357Y0035743D01*
X0068101Y0035370D01*
X0067836Y0035002D01*
X0067562Y0034641D01*
X0067280Y0034287D01*
X0066989Y0033940D01*
X0066689Y0033600D01*
X0066382Y0033268D01*
X0066066Y0032943D01*
X0065742Y0032626D01*
X0065411Y0032317D01*
X0065072Y0032016D01*
X0064726Y0031724D01*
X0064373Y0031440D01*
X0064013Y0031165D01*
X0063647Y0030899D01*
X0063274Y0030642D01*
X0062895Y0030394D01*
X0062510Y0030155D01*
X0062119Y0029926D01*
X0061723Y0029707D01*
X0061321Y0029497D01*
X0060914Y0029297D01*
X0060503Y0029108D01*
X0060087Y0028928D01*
X0059667Y0028759D01*
X0059243Y0028600D01*
X0058815Y0028451D01*
X0058384Y0028313D01*
X0057949Y0028185D01*
X0057511Y0028069D01*
X0057071Y0027963D01*
X0056628Y0027867D01*
X0056183Y0027783D01*
X0055736Y0027709D01*
X0055288Y0027647D01*
X0054838Y0027596D01*
X0054386Y0027555D01*
X0053934Y0027526D01*
X0053482Y0027507D01*
X0053029Y0027500D01*
X0052576Y0027504D01*
X0052123Y0027519D01*
X0051671Y0027545D01*
X0051219Y0027582D01*
X0050769Y0027630D01*
X0050320Y0027689D01*
X0049872Y0027759D01*
X0049427Y0027841D01*
X0048983Y0027932D01*
X0048542Y0028035D01*
X0048104Y0028149D01*
X0047668Y0028273D01*
X0047236Y0028408D01*
X0046807Y0028553D01*
X0046381Y0028709D01*
X0045960Y0028875D01*
X0045543Y0029052D01*
X0045130Y0029239D01*
X0044722Y0029435D01*
X0044319Y0029642D01*
X0043921Y0029859D01*
X0043529Y0030085D01*
X0043142Y0030320D01*
X0042761Y0030565D01*
X0042386Y0030820D01*
X0042017Y0031083D01*
X0041656Y0031356D01*
X0041300Y0031637D01*
X0040952Y0031926D01*
X0040611Y0032225D01*
X0040278Y0032531D01*
X0039952Y0032846D01*
X0039634Y0033168D01*
X0039323Y0033498D01*
X0039021Y0033836D01*
X0038728Y0034181D01*
X0038443Y0034533D01*
X0038166Y0034892D01*
X0037899Y0035257D01*
X0037640Y0035629D01*
X0037391Y0036007D01*
X0037151Y0036391D01*
X0036920Y0036781D01*
X0036700Y0037177D01*
X0036488Y0037578D01*
X0036287Y0037983D01*
X0036096Y0038394D01*
X0035915Y0038809D01*
X0035744Y0039229D01*
X0035583Y0039652D01*
X0035433Y0040080D01*
X0088960Y0070000D02*
X0088962Y0070060D01*
X0088967Y0070121D01*
X0088976Y0070180D01*
X0088989Y0070239D01*
X0089005Y0070298D01*
X0089025Y0070355D01*
X0089048Y0070410D01*
X0089075Y0070465D01*
X0089104Y0070517D01*
X0089137Y0070568D01*
X0089173Y0070617D01*
X0089211Y0070663D01*
X0089253Y0070707D01*
X0089297Y0070749D01*
X0089343Y0070787D01*
X0089392Y0070823D01*
X0089443Y0070856D01*
X0089495Y0070885D01*
X0089550Y0070912D01*
X0089605Y0070935D01*
X0089662Y0070955D01*
X0089721Y0070971D01*
X0089780Y0070984D01*
X0089839Y0070993D01*
X0089900Y0070998D01*
X0089960Y0071000D01*
X0095960Y0071000D02*
X0096020Y0070998D01*
X0096081Y0070993D01*
X0096140Y0070984D01*
X0096199Y0070971D01*
X0096258Y0070955D01*
X0096315Y0070935D01*
X0096370Y0070912D01*
X0096425Y0070885D01*
X0096477Y0070856D01*
X0096528Y0070823D01*
X0096577Y0070787D01*
X0096623Y0070749D01*
X0096667Y0070707D01*
X0096709Y0070663D01*
X0096747Y0070617D01*
X0096783Y0070568D01*
X0096816Y0070517D01*
X0096845Y0070465D01*
X0096872Y0070410D01*
X0096895Y0070355D01*
X0096915Y0070298D01*
X0096931Y0070239D01*
X0096944Y0070180D01*
X0096953Y0070121D01*
X0096958Y0070060D01*
X0096960Y0070000D01*
D12*
X0098207Y0069171D02*
X0101110Y0069171D01*
X0098207Y0069171D01*
X0099175Y0068203D01*
X0098207Y0069171D01*
X0098691Y0067192D02*
X0099658Y0067192D01*
X0100142Y0066708D01*
X0100142Y0065257D01*
X0100142Y0066708D01*
X0099658Y0067192D01*
X0098691Y0067192D01*
X0098207Y0066708D01*
X0098207Y0065257D01*
X0101110Y0065257D01*
X0098207Y0065257D01*
X0098207Y0066708D01*
X0098691Y0067192D01*
X0100142Y0066224D02*
X0101110Y0067192D01*
X0100142Y0066224D01*
X0094110Y0066055D02*
X0094110Y0066538D01*
X0094110Y0066055D01*
X0093142Y0066055D01*
X0092658Y0066538D01*
X0091691Y0066538D01*
X0091207Y0066055D01*
X0091207Y0065087D01*
X0091691Y0064603D01*
X0092658Y0064603D01*
X0093142Y0065087D01*
X0094110Y0065087D01*
X0094110Y0064603D01*
X0094110Y0065087D01*
X0093142Y0065087D01*
X0092658Y0064603D01*
X0091691Y0064603D01*
X0091207Y0065087D01*
X0091207Y0066055D01*
X0091691Y0066538D01*
X0092658Y0066538D01*
X0093142Y0066055D01*
X0094110Y0066055D01*
X0094110Y0063599D02*
X0093142Y0062148D01*
X0092175Y0063599D01*
X0093142Y0062148D01*
X0094110Y0063599D01*
X0094110Y0062148D02*
X0091207Y0062148D01*
X0094110Y0062148D01*
X0093626Y0061137D02*
X0094110Y0060653D01*
X0094110Y0059685D01*
X0093626Y0059202D01*
X0091691Y0061137D01*
X0093626Y0061137D01*
X0094110Y0060653D01*
X0094110Y0059685D01*
X0093626Y0059202D01*
X0091691Y0059202D01*
X0091207Y0059685D01*
X0091207Y0060653D01*
X0091691Y0061137D01*
X0093626Y0059202D01*
X0091691Y0059202D01*
X0091207Y0059685D01*
X0091207Y0060653D01*
X0091691Y0061137D01*
X0093626Y0061137D01*
X0094110Y0058190D02*
X0094110Y0056255D01*
X0094110Y0058190D01*
X0094110Y0057223D02*
X0091207Y0057223D01*
X0092175Y0056255D01*
X0091207Y0057223D01*
X0094110Y0057223D01*
X0101807Y0054550D02*
X0102291Y0055033D01*
X0103258Y0055033D01*
X0103742Y0054550D01*
X0104710Y0054550D01*
X0104710Y0055033D01*
X0104710Y0054550D01*
X0103742Y0054550D01*
X0103258Y0055033D01*
X0102291Y0055033D01*
X0101807Y0054550D01*
X0101807Y0053582D01*
X0102291Y0053098D01*
X0103258Y0053098D01*
X0103742Y0053582D01*
X0104710Y0053582D01*
X0104710Y0053098D01*
X0104710Y0053582D01*
X0103742Y0053582D01*
X0103258Y0053098D01*
X0102291Y0053098D01*
X0101807Y0053582D01*
X0101807Y0054550D01*
X0102775Y0052094D02*
X0103742Y0050643D01*
X0104710Y0052094D01*
X0103742Y0050643D01*
X0102775Y0052094D01*
X0101807Y0050643D02*
X0104710Y0050643D01*
X0101807Y0050643D01*
X0101807Y0049631D02*
X0101807Y0047697D01*
X0103258Y0047697D01*
X0102775Y0048664D01*
X0102775Y0049148D01*
X0103258Y0049631D01*
X0104226Y0049631D01*
X0104710Y0049148D01*
X0104710Y0048180D01*
X0104226Y0047697D01*
X0104710Y0048180D01*
X0104710Y0049148D01*
X0104226Y0049631D01*
X0103258Y0049631D01*
X0102775Y0049148D01*
X0102775Y0048664D01*
X0103258Y0047697D01*
X0101807Y0047697D01*
X0101807Y0049631D01*
X0104710Y0046685D02*
X0104710Y0044750D01*
X0104710Y0046685D01*
X0104710Y0045717D02*
X0101807Y0045717D01*
X0102775Y0044750D01*
X0101807Y0045717D01*
X0104710Y0045717D01*
X0097710Y0045548D02*
X0094807Y0045548D01*
X0096258Y0044097D01*
X0096258Y0046031D01*
X0096258Y0044097D01*
X0094807Y0045548D01*
X0097710Y0045548D01*
X0097710Y0043085D02*
X0096742Y0042117D01*
X0097710Y0043085D01*
X0096742Y0042601D02*
X0096742Y0041150D01*
X0096742Y0042601D01*
X0096258Y0043085D01*
X0095291Y0043085D01*
X0094807Y0042601D01*
X0094807Y0041150D01*
X0097710Y0041150D01*
X0094807Y0041150D01*
X0094807Y0042601D01*
X0095291Y0043085D01*
X0096258Y0043085D01*
X0096742Y0042601D01*
X0111807Y0033568D02*
X0112291Y0034051D01*
X0113258Y0034051D01*
X0113742Y0033568D01*
X0114710Y0033568D01*
X0114710Y0034051D01*
X0114710Y0033568D01*
X0113742Y0033568D01*
X0113258Y0034051D01*
X0112291Y0034051D01*
X0111807Y0033568D01*
X0111807Y0032600D01*
X0112291Y0032116D01*
X0113258Y0032116D01*
X0113742Y0032600D01*
X0114710Y0032600D01*
X0114710Y0032116D01*
X0114710Y0032600D01*
X0113742Y0032600D01*
X0113258Y0032116D01*
X0112291Y0032116D01*
X0111807Y0032600D01*
X0111807Y0033568D01*
X0112291Y0031105D02*
X0111807Y0030621D01*
X0111807Y0029654D01*
X0112291Y0029170D01*
X0112775Y0029170D01*
X0113258Y0029654D01*
X0113258Y0030621D01*
X0113742Y0031105D01*
X0114226Y0031105D01*
X0114710Y0030621D01*
X0114710Y0029654D01*
X0114226Y0029170D01*
X0113742Y0029170D01*
X0113258Y0029654D01*
X0113258Y0030621D01*
X0112775Y0031105D01*
X0112291Y0031105D01*
X0112775Y0031105D01*
X0113258Y0030621D01*
X0113742Y0031105D01*
X0114226Y0031105D01*
X0114710Y0030621D01*
X0114710Y0029654D01*
X0114226Y0029170D01*
X0113742Y0029170D01*
X0113258Y0029654D01*
X0112775Y0029170D01*
X0112291Y0029170D01*
X0111807Y0029654D01*
X0111807Y0030621D01*
X0112291Y0031105D01*
X0114226Y0028180D02*
X0114710Y0028180D01*
X0114710Y0027697D01*
X0114226Y0027697D01*
X0114226Y0028180D01*
X0114710Y0028180D01*
X0114710Y0027697D01*
X0114226Y0027697D01*
X0114226Y0028180D01*
X0114226Y0026685D02*
X0113742Y0026685D01*
X0113258Y0026201D01*
X0113258Y0024750D01*
X0114226Y0024750D01*
X0114710Y0025234D01*
X0114710Y0026201D01*
X0114226Y0026685D01*
X0113742Y0026685D01*
X0113258Y0026201D01*
X0113258Y0024750D01*
X0112291Y0025717D01*
X0111807Y0026685D01*
X0112291Y0025717D01*
X0113258Y0024750D01*
X0114226Y0024750D01*
X0114710Y0025234D01*
X0114710Y0026201D01*
X0114226Y0026685D01*
X0107710Y0026031D02*
X0107710Y0024097D01*
X0105775Y0026031D01*
X0105291Y0026031D01*
X0104807Y0025548D01*
X0104807Y0024580D01*
X0105291Y0024097D01*
X0104807Y0024580D01*
X0104807Y0025548D01*
X0105291Y0026031D01*
X0105775Y0026031D01*
X0107710Y0024097D01*
X0107710Y0026031D01*
X0107710Y0023085D02*
X0106742Y0022117D01*
X0107710Y0023085D01*
X0106742Y0022601D02*
X0106742Y0021150D01*
X0106742Y0022601D01*
X0106258Y0023085D01*
X0105291Y0023085D01*
X0104807Y0022601D01*
X0104807Y0021150D01*
X0107710Y0021150D01*
X0104807Y0021150D01*
X0104807Y0022601D01*
X0105291Y0023085D01*
X0106258Y0023085D01*
X0106742Y0022601D01*
X0158110Y0037634D02*
X0158593Y0037150D01*
X0159561Y0037150D01*
X0160045Y0037634D01*
X0161056Y0037150D02*
X0162991Y0039085D01*
X0162991Y0039569D01*
X0162507Y0040052D01*
X0161540Y0040052D01*
X0161056Y0039569D01*
X0160045Y0039569D02*
X0159561Y0040052D01*
X0158593Y0040052D01*
X0158110Y0039569D01*
X0158110Y0037634D01*
X0161056Y0037150D02*
X0162991Y0037150D01*
X0166217Y0040950D02*
X0167668Y0040950D01*
X0168152Y0041434D01*
X0168152Y0043369D01*
X0167668Y0043852D01*
X0166217Y0043852D01*
X0166217Y0040950D01*
X0169163Y0040950D02*
X0171098Y0042885D01*
X0171098Y0043369D01*
X0170614Y0043852D01*
X0169647Y0043852D01*
X0169163Y0043369D01*
X0169163Y0040950D02*
X0171098Y0040950D01*
X0171460Y0048500D02*
X0172960Y0051250D01*
X0171460Y0051250D01*
X0172960Y0051250D02*
X0174460Y0051250D01*
X0174460Y0050000D01*
X0174460Y0048500D02*
X0172960Y0051250D01*
X0174460Y0048500D02*
X0171460Y0048500D01*
X0171098Y0058650D02*
X0171098Y0061552D01*
X0169163Y0061552D02*
X0169163Y0058650D01*
X0170131Y0059617D01*
X0171098Y0058650D01*
X0168152Y0058650D02*
X0168152Y0060101D01*
X0167668Y0060585D01*
X0167184Y0060101D01*
X0167184Y0058650D01*
X0166217Y0058650D02*
X0166217Y0060585D01*
X0166700Y0060585D01*
X0167184Y0060101D01*
X0165205Y0059134D02*
X0164721Y0058650D01*
X0163754Y0058650D01*
X0163270Y0059134D01*
X0165205Y0061069D01*
X0165205Y0059134D01*
X0163270Y0059134D02*
X0163270Y0061069D01*
X0163754Y0061552D01*
X0164721Y0061552D01*
X0165205Y0061069D01*
X0162259Y0061069D02*
X0160324Y0059134D01*
X0160807Y0058650D01*
X0161775Y0058650D01*
X0162259Y0059134D01*
X0162259Y0061069D01*
X0161775Y0061552D01*
X0160807Y0061552D01*
X0160324Y0061069D01*
X0160324Y0059134D01*
X0159312Y0060101D02*
X0157377Y0060101D01*
X0158828Y0061552D01*
X0158828Y0058650D01*
X0156366Y0061552D02*
X0154431Y0058650D01*
X0153419Y0059617D02*
X0153419Y0061552D01*
X0151484Y0061552D02*
X0151484Y0059617D01*
X0152452Y0058650D01*
X0153419Y0059617D01*
X0150473Y0059134D02*
X0150473Y0061069D01*
X0148538Y0059134D01*
X0149021Y0058650D01*
X0149989Y0058650D01*
X0150473Y0059134D01*
X0148538Y0059134D02*
X0148538Y0061069D01*
X0149021Y0061552D01*
X0149989Y0061552D01*
X0150473Y0061069D01*
X0147548Y0059134D02*
X0147548Y0058650D01*
X0147064Y0058650D01*
X0147064Y0059134D01*
X0147548Y0059134D01*
X0146053Y0059134D02*
X0145569Y0058650D01*
X0144602Y0058650D01*
X0144118Y0059134D01*
X0143106Y0058650D02*
X0141171Y0058650D01*
X0142139Y0058650D02*
X0142139Y0061552D01*
X0141171Y0060585D01*
X0140160Y0060585D02*
X0138225Y0060585D01*
X0138225Y0059617D02*
X0140160Y0059617D01*
X0137991Y0058669D02*
X0137991Y0058185D01*
X0137507Y0057701D01*
X0137991Y0057217D01*
X0137991Y0056734D01*
X0137507Y0056250D01*
X0136540Y0056250D01*
X0136056Y0056734D01*
X0136540Y0056250D01*
X0137507Y0056250D01*
X0137991Y0056734D01*
X0137991Y0057217D01*
X0137507Y0057701D01*
X0137024Y0057701D01*
X0137507Y0057701D01*
X0137991Y0058185D01*
X0137991Y0058669D01*
X0137507Y0059152D01*
X0136540Y0059152D01*
X0136056Y0058669D01*
X0136540Y0059152D01*
X0137507Y0059152D01*
X0137991Y0058669D01*
X0137213Y0058650D02*
X0135278Y0058650D01*
X0135278Y0059134D01*
X0137213Y0061069D01*
X0137213Y0061552D01*
X0135278Y0061552D01*
X0134561Y0059152D02*
X0135045Y0058669D01*
X0135045Y0057701D01*
X0134561Y0057217D01*
X0133110Y0057217D01*
X0134561Y0057217D01*
X0135045Y0057701D01*
X0135045Y0058669D01*
X0134561Y0059152D01*
X0133110Y0059152D01*
X0133110Y0056250D01*
X0133110Y0059152D01*
X0134561Y0059152D01*
X0134077Y0057217D02*
X0135045Y0056250D01*
X0134077Y0057217D01*
X0144118Y0061069D02*
X0144602Y0061552D01*
X0145569Y0061552D01*
X0146053Y0061069D01*
X0146053Y0060585D01*
X0145569Y0060101D01*
X0146053Y0059617D01*
X0146053Y0059134D01*
X0145569Y0060101D02*
X0145085Y0060101D01*
X0143563Y0052152D02*
X0144047Y0051669D01*
X0144047Y0050701D01*
X0143563Y0050217D01*
X0143563Y0049250D01*
X0144047Y0049250D01*
X0143563Y0049250D01*
X0143563Y0050217D01*
X0144047Y0050701D01*
X0144047Y0051669D01*
X0143563Y0052152D01*
X0142595Y0052152D01*
X0142112Y0051669D01*
X0142112Y0050701D01*
X0142595Y0050217D01*
X0142595Y0049250D01*
X0142112Y0049250D01*
X0142595Y0049250D01*
X0142595Y0050217D01*
X0142112Y0050701D01*
X0142112Y0051669D01*
X0142595Y0052152D01*
X0143563Y0052152D01*
X0141107Y0051185D02*
X0139656Y0050217D01*
X0141107Y0049250D01*
X0139656Y0050217D01*
X0141107Y0051185D01*
X0139656Y0052152D02*
X0139656Y0049250D01*
X0139656Y0052152D01*
X0137677Y0052152D02*
X0137677Y0049250D01*
X0137677Y0052152D01*
X0136710Y0051185D01*
X0137677Y0052152D01*
X0136710Y0049250D02*
X0138645Y0049250D01*
X0136710Y0049250D01*
X0182217Y0063434D02*
X0182700Y0062950D01*
X0183668Y0062950D01*
X0184152Y0063434D01*
X0185163Y0063434D02*
X0185647Y0062950D01*
X0186614Y0062950D01*
X0187098Y0063434D01*
X0187098Y0063917D01*
X0186614Y0064401D01*
X0186131Y0064401D01*
X0186614Y0064401D02*
X0187098Y0064885D01*
X0187098Y0065369D01*
X0186614Y0065852D01*
X0185647Y0065852D01*
X0185163Y0065369D01*
X0184152Y0065369D02*
X0183668Y0065852D01*
X0182700Y0065852D01*
X0182217Y0065369D01*
X0182217Y0063434D01*
X0203110Y0053085D02*
X0204077Y0054052D01*
X0204077Y0051150D01*
X0203110Y0051150D02*
X0205045Y0051150D01*
X0206056Y0051634D02*
X0207991Y0053569D01*
X0207991Y0051634D01*
X0207507Y0051150D01*
X0206540Y0051150D01*
X0206056Y0051634D01*
X0206056Y0053569D01*
X0206540Y0054052D01*
X0207507Y0054052D01*
X0207991Y0053569D01*
X0209486Y0052601D02*
X0209486Y0051634D01*
X0209486Y0050666D01*
X0209003Y0050183D01*
X0209970Y0051150D02*
X0210454Y0051150D01*
X0210938Y0051634D01*
X0210938Y0052601D01*
X0211949Y0052601D02*
X0212917Y0052601D01*
X0211949Y0051150D02*
X0211949Y0054052D01*
X0213884Y0054052D01*
X0216831Y0054052D02*
X0214896Y0051150D01*
X0217842Y0051150D02*
X0219777Y0053085D01*
X0219777Y0053569D01*
X0219294Y0054052D01*
X0218326Y0054052D01*
X0217842Y0053569D01*
X0220789Y0054052D02*
X0220789Y0052601D01*
X0221756Y0053085D01*
X0222240Y0053085D01*
X0222724Y0052601D01*
X0222724Y0051634D01*
X0222240Y0051150D01*
X0221273Y0051150D01*
X0220789Y0051634D01*
X0219777Y0051150D02*
X0217842Y0051150D01*
X0223735Y0052117D02*
X0224703Y0051150D01*
X0225670Y0052117D01*
X0225670Y0054052D01*
X0223735Y0054052D02*
X0223735Y0052117D01*
X0222724Y0054052D02*
X0220789Y0054052D01*
X0209970Y0051150D02*
X0209486Y0051634D01*
X0165938Y0075559D02*
X0165454Y0075075D01*
X0164486Y0075075D01*
X0164003Y0075559D01*
X0164003Y0076042D01*
X0164486Y0076526D01*
X0165454Y0076526D01*
X0165938Y0076042D01*
X0165938Y0075559D01*
X0165454Y0076526D02*
X0165938Y0077010D01*
X0165938Y0077494D01*
X0165454Y0077977D01*
X0164486Y0077977D01*
X0164003Y0077494D01*
X0164003Y0077010D01*
X0164486Y0076526D01*
X0162991Y0076526D02*
X0161056Y0076526D01*
X0162507Y0077977D01*
X0162507Y0075075D01*
X0160045Y0075075D02*
X0158110Y0075075D01*
X0159077Y0075075D02*
X0159077Y0077977D01*
X0158110Y0077010D01*
X0157098Y0076526D02*
X0155163Y0076526D01*
X0156614Y0077977D01*
X0156614Y0075075D01*
X0154152Y0075075D02*
X0154152Y0077977D01*
X0152217Y0077977D02*
X0154152Y0075075D01*
X0152217Y0075075D02*
X0152217Y0077977D01*
X0150238Y0077977D02*
X0149270Y0077010D01*
X0150238Y0077977D02*
X0150238Y0075075D01*
X0151205Y0075075D02*
X0149270Y0075075D01*
X0155460Y0079500D02*
X0158210Y0081000D01*
X0158210Y0082500D01*
X0158210Y0081000D02*
X0158210Y0079500D01*
X0155460Y0079500D02*
X0155460Y0082500D01*
X0158210Y0081000D01*
X0150598Y0084150D02*
X0148663Y0084150D01*
X0149631Y0084150D02*
X0149631Y0087052D01*
X0148663Y0086085D01*
X0147652Y0086569D02*
X0147168Y0087052D01*
X0145717Y0087052D01*
X0145717Y0084150D01*
X0147168Y0084150D01*
X0147652Y0084634D01*
X0147652Y0086569D01*
X0101110Y0070138D02*
X0101110Y0068203D01*
X0101110Y0070138D01*
X0052098Y0078650D02*
X0050163Y0078650D01*
X0051131Y0078650D02*
X0051131Y0081552D01*
X0050163Y0080585D01*
X0047217Y0081552D02*
X0047217Y0078650D01*
X0049152Y0078650D01*
X0006131Y0055852D02*
X0006131Y0052950D01*
X0007098Y0052950D02*
X0005163Y0052950D01*
X0004152Y0053434D02*
X0003668Y0052950D01*
X0002700Y0052950D01*
X0002217Y0053434D01*
X0002217Y0055369D01*
X0002700Y0055852D01*
X0003668Y0055852D01*
X0004152Y0055369D01*
X0005163Y0054885D02*
X0006131Y0055852D01*
X0023110Y0042601D02*
X0024561Y0044052D01*
X0024561Y0041150D01*
X0026056Y0041150D02*
X0026056Y0041634D01*
X0027991Y0043569D01*
X0027991Y0044052D01*
X0026056Y0044052D01*
X0025045Y0042601D02*
X0023110Y0042601D01*
X0029003Y0040183D02*
X0029486Y0040666D01*
X0029486Y0041634D01*
X0029970Y0041150D01*
X0030454Y0041150D01*
X0030938Y0041634D01*
X0030938Y0042601D01*
X0031949Y0042601D02*
X0032917Y0042601D01*
X0031949Y0041150D02*
X0031949Y0044052D01*
X0033884Y0044052D01*
X0036831Y0044052D02*
X0034896Y0041150D01*
X0037842Y0041150D02*
X0039777Y0041150D01*
X0038810Y0041150D02*
X0038810Y0044052D01*
X0037842Y0043085D01*
X0040789Y0042601D02*
X0040789Y0041634D01*
X0041273Y0041150D01*
X0042240Y0041150D01*
X0042724Y0041634D01*
X0042724Y0042117D01*
X0042240Y0042601D01*
X0040789Y0042601D01*
X0041756Y0043569D01*
X0042724Y0044052D01*
X0043735Y0044052D02*
X0043735Y0042117D01*
X0044703Y0041150D01*
X0045670Y0042117D01*
X0045670Y0044052D01*
X0029486Y0042601D02*
X0029486Y0041634D01*
D13*
X0012960Y0044500D03*
X0192960Y0054500D03*
D14*
X0165460Y0022200D02*
X0162960Y0022200D01*
X0160460Y0022200D01*
X0160460Y0019700D02*
X0162960Y0019700D01*
X0165460Y0019700D01*
D15*
X0166760Y0081000D03*
X0149160Y0081000D03*
D16*
X0152960Y0081500D02*
X0152960Y0080500D01*
X0152962Y0080413D01*
X0152968Y0080326D01*
X0152977Y0080239D01*
X0152990Y0080153D01*
X0153007Y0080067D01*
X0153028Y0079982D01*
X0153053Y0079899D01*
X0153081Y0079816D01*
X0153112Y0079735D01*
X0153147Y0079655D01*
X0153186Y0079577D01*
X0153228Y0079500D01*
X0153273Y0079425D01*
X0153322Y0079353D01*
X0153373Y0079282D01*
X0153428Y0079214D01*
X0153485Y0079149D01*
X0153546Y0079086D01*
X0153609Y0079025D01*
X0153674Y0078968D01*
X0153742Y0078913D01*
X0153813Y0078862D01*
X0153885Y0078813D01*
X0153960Y0078768D01*
X0154037Y0078726D01*
X0154115Y0078687D01*
X0154195Y0078652D01*
X0154276Y0078621D01*
X0154359Y0078593D01*
X0154442Y0078568D01*
X0154527Y0078547D01*
X0154613Y0078530D01*
X0154699Y0078517D01*
X0154786Y0078508D01*
X0154873Y0078502D01*
X0154960Y0078500D01*
X0160960Y0078500D01*
X0161047Y0078502D01*
X0161134Y0078508D01*
X0161221Y0078517D01*
X0161307Y0078530D01*
X0161393Y0078547D01*
X0161478Y0078568D01*
X0161561Y0078593D01*
X0161644Y0078621D01*
X0161725Y0078652D01*
X0161805Y0078687D01*
X0161883Y0078726D01*
X0161960Y0078768D01*
X0162035Y0078813D01*
X0162107Y0078862D01*
X0162178Y0078913D01*
X0162246Y0078968D01*
X0162311Y0079025D01*
X0162374Y0079086D01*
X0162435Y0079149D01*
X0162492Y0079214D01*
X0162547Y0079282D01*
X0162598Y0079353D01*
X0162647Y0079425D01*
X0162692Y0079500D01*
X0162734Y0079577D01*
X0162773Y0079655D01*
X0162808Y0079735D01*
X0162839Y0079816D01*
X0162867Y0079899D01*
X0162892Y0079982D01*
X0162913Y0080067D01*
X0162930Y0080153D01*
X0162943Y0080239D01*
X0162952Y0080326D01*
X0162958Y0080413D01*
X0162960Y0080500D01*
X0162960Y0081500D01*
X0162958Y0081587D01*
X0162952Y0081674D01*
X0162943Y0081761D01*
X0162930Y0081847D01*
X0162913Y0081933D01*
X0162892Y0082018D01*
X0162867Y0082101D01*
X0162839Y0082184D01*
X0162808Y0082265D01*
X0162773Y0082345D01*
X0162734Y0082423D01*
X0162692Y0082500D01*
X0162647Y0082575D01*
X0162598Y0082647D01*
X0162547Y0082718D01*
X0162492Y0082786D01*
X0162435Y0082851D01*
X0162374Y0082914D01*
X0162311Y0082975D01*
X0162246Y0083032D01*
X0162178Y0083087D01*
X0162107Y0083138D01*
X0162035Y0083187D01*
X0161960Y0083232D01*
X0161883Y0083274D01*
X0161805Y0083313D01*
X0161725Y0083348D01*
X0161644Y0083379D01*
X0161561Y0083407D01*
X0161478Y0083432D01*
X0161393Y0083453D01*
X0161307Y0083470D01*
X0161221Y0083483D01*
X0161134Y0083492D01*
X0161047Y0083498D01*
X0160960Y0083500D01*
X0154960Y0083500D01*
X0154873Y0083498D01*
X0154786Y0083492D01*
X0154699Y0083483D01*
X0154613Y0083470D01*
X0154527Y0083453D01*
X0154442Y0083432D01*
X0154359Y0083407D01*
X0154276Y0083379D01*
X0154195Y0083348D01*
X0154115Y0083313D01*
X0154037Y0083274D01*
X0153960Y0083232D01*
X0153885Y0083187D01*
X0153813Y0083138D01*
X0153742Y0083087D01*
X0153674Y0083032D01*
X0153609Y0082975D01*
X0153546Y0082914D01*
X0153485Y0082851D01*
X0153428Y0082786D01*
X0153373Y0082718D01*
X0153322Y0082647D01*
X0153273Y0082575D01*
X0153228Y0082500D01*
X0153186Y0082423D01*
X0153147Y0082345D01*
X0153112Y0082265D01*
X0153081Y0082184D01*
X0153053Y0082101D01*
X0153028Y0082018D01*
X0153007Y0081933D01*
X0152990Y0081847D01*
X0152977Y0081761D01*
X0152968Y0081674D01*
X0152962Y0081587D01*
X0152960Y0081500D01*
X0172460Y0056000D02*
X0173460Y0056000D01*
X0173547Y0055998D01*
X0173634Y0055992D01*
X0173721Y0055983D01*
X0173807Y0055970D01*
X0173893Y0055953D01*
X0173978Y0055932D01*
X0174061Y0055907D01*
X0174144Y0055879D01*
X0174225Y0055848D01*
X0174305Y0055813D01*
X0174383Y0055774D01*
X0174460Y0055732D01*
X0174535Y0055687D01*
X0174607Y0055638D01*
X0174678Y0055587D01*
X0174746Y0055532D01*
X0174811Y0055475D01*
X0174874Y0055414D01*
X0174935Y0055351D01*
X0174992Y0055286D01*
X0175047Y0055218D01*
X0175098Y0055147D01*
X0175147Y0055075D01*
X0175192Y0055000D01*
X0175234Y0054923D01*
X0175273Y0054845D01*
X0175308Y0054765D01*
X0175339Y0054684D01*
X0175367Y0054601D01*
X0175392Y0054518D01*
X0175413Y0054433D01*
X0175430Y0054347D01*
X0175443Y0054261D01*
X0175452Y0054174D01*
X0175458Y0054087D01*
X0175460Y0054000D01*
X0175460Y0048000D01*
X0175458Y0047913D01*
X0175452Y0047826D01*
X0175443Y0047739D01*
X0175430Y0047653D01*
X0175413Y0047567D01*
X0175392Y0047482D01*
X0175367Y0047399D01*
X0175339Y0047316D01*
X0175308Y0047235D01*
X0175273Y0047155D01*
X0175234Y0047077D01*
X0175192Y0047000D01*
X0175147Y0046925D01*
X0175098Y0046853D01*
X0175047Y0046782D01*
X0174992Y0046714D01*
X0174935Y0046649D01*
X0174874Y0046586D01*
X0174811Y0046525D01*
X0174746Y0046468D01*
X0174678Y0046413D01*
X0174607Y0046362D01*
X0174535Y0046313D01*
X0174460Y0046268D01*
X0174383Y0046226D01*
X0174305Y0046187D01*
X0174225Y0046152D01*
X0174144Y0046121D01*
X0174061Y0046093D01*
X0173978Y0046068D01*
X0173893Y0046047D01*
X0173807Y0046030D01*
X0173721Y0046017D01*
X0173634Y0046008D01*
X0173547Y0046002D01*
X0173460Y0046000D01*
X0172460Y0046000D01*
X0172373Y0046002D01*
X0172286Y0046008D01*
X0172199Y0046017D01*
X0172113Y0046030D01*
X0172027Y0046047D01*
X0171942Y0046068D01*
X0171859Y0046093D01*
X0171776Y0046121D01*
X0171695Y0046152D01*
X0171615Y0046187D01*
X0171537Y0046226D01*
X0171460Y0046268D01*
X0171385Y0046313D01*
X0171313Y0046362D01*
X0171242Y0046413D01*
X0171174Y0046468D01*
X0171109Y0046525D01*
X0171046Y0046586D01*
X0170985Y0046649D01*
X0170928Y0046714D01*
X0170873Y0046782D01*
X0170822Y0046853D01*
X0170773Y0046925D01*
X0170728Y0047000D01*
X0170686Y0047077D01*
X0170647Y0047155D01*
X0170612Y0047235D01*
X0170581Y0047316D01*
X0170553Y0047399D01*
X0170528Y0047482D01*
X0170507Y0047567D01*
X0170490Y0047653D01*
X0170477Y0047739D01*
X0170468Y0047826D01*
X0170462Y0047913D01*
X0170460Y0048000D01*
X0170460Y0054000D01*
X0170462Y0054087D01*
X0170468Y0054174D01*
X0170477Y0054261D01*
X0170490Y0054347D01*
X0170507Y0054433D01*
X0170528Y0054518D01*
X0170553Y0054601D01*
X0170581Y0054684D01*
X0170612Y0054765D01*
X0170647Y0054845D01*
X0170686Y0054923D01*
X0170728Y0055000D01*
X0170773Y0055075D01*
X0170822Y0055147D01*
X0170873Y0055218D01*
X0170928Y0055286D01*
X0170985Y0055351D01*
X0171046Y0055414D01*
X0171109Y0055475D01*
X0171174Y0055532D01*
X0171242Y0055587D01*
X0171313Y0055638D01*
X0171385Y0055687D01*
X0171460Y0055732D01*
X0171537Y0055774D01*
X0171615Y0055813D01*
X0171695Y0055848D01*
X0171776Y0055879D01*
X0171859Y0055907D01*
X0171942Y0055932D01*
X0172027Y0055953D01*
X0172113Y0055970D01*
X0172199Y0055983D01*
X0172286Y0055992D01*
X0172373Y0055998D01*
X0172460Y0056000D01*
D17*
X0160710Y0081000D03*
D18*
X0172960Y0053750D03*
D19*
X0172860Y0062700D03*
X0173060Y0039300D03*
D20*
X0112960Y0041750D03*
X0112960Y0041750D03*
X0102960Y0040250D03*
X0102960Y0040250D03*
X0092960Y0050250D03*
X0092960Y0050250D03*
X0102960Y0061750D03*
X0102960Y0061750D03*
X0092960Y0071750D03*
X0092960Y0071750D03*
X0112960Y0020250D03*
X0112960Y0020250D03*
D21*
X0132210Y0051000D03*
X0132210Y0051000D03*
X0153710Y0051000D03*
X0153710Y0051000D03*
D22*
X0132960Y0041488D02*
X0132960Y0020512D01*
X0126460Y0022752D02*
X0126460Y0039248D01*
X0128488Y0021500D02*
X0128753Y0021387D01*
X0129021Y0021281D01*
X0129291Y0021182D01*
X0129564Y0021089D01*
X0129839Y0021003D01*
X0130116Y0020924D01*
X0130394Y0020851D01*
X0130675Y0020786D01*
X0130957Y0020727D01*
X0131240Y0020675D01*
X0131525Y0020630D01*
X0131811Y0020593D01*
X0132097Y0020562D01*
X0132384Y0020538D01*
X0132672Y0020521D01*
X0132960Y0020512D01*
X0128488Y0040500D02*
X0128753Y0040613D01*
X0129021Y0040719D01*
X0129291Y0040818D01*
X0129564Y0040911D01*
X0129839Y0040997D01*
X0130116Y0041076D01*
X0130394Y0041149D01*
X0130675Y0041214D01*
X0130957Y0041273D01*
X0131240Y0041325D01*
X0131525Y0041370D01*
X0131811Y0041407D01*
X0132097Y0041438D01*
X0132384Y0041462D01*
X0132672Y0041479D01*
X0132960Y0041488D01*
X0132959Y0041488D02*
X0133191Y0041491D01*
X0133422Y0041489D01*
X0133653Y0041481D01*
X0133884Y0041467D01*
X0134114Y0041448D01*
X0134344Y0041423D01*
X0134573Y0041392D01*
X0134802Y0041356D01*
X0135029Y0041315D01*
X0135256Y0041268D01*
X0135481Y0041215D01*
X0135705Y0041157D01*
X0135927Y0041093D01*
X0136148Y0041024D01*
X0136367Y0040950D01*
X0136584Y0040870D01*
X0136799Y0040785D01*
X0137012Y0040695D01*
X0137223Y0040600D01*
X0137431Y0040500D01*
X0128488Y0040502D02*
X0128273Y0040398D01*
X0128060Y0040289D01*
X0127850Y0040175D01*
X0127643Y0040056D01*
X0127438Y0039933D01*
X0127236Y0039805D01*
X0127037Y0039672D01*
X0126842Y0039535D01*
X0126649Y0039394D01*
X0126460Y0039248D01*
X0137432Y0040500D02*
X0137662Y0040388D01*
X0137889Y0040271D01*
X0138113Y0040149D01*
X0138334Y0040021D01*
X0138551Y0039887D01*
X0138766Y0039749D01*
X0138977Y0039605D01*
X0139184Y0039456D01*
X0139388Y0039302D01*
X0139588Y0039144D01*
X0139784Y0038980D01*
X0139976Y0038812D01*
X0140164Y0038639D01*
X0140348Y0038461D01*
X0140527Y0038280D01*
X0140702Y0038093D01*
X0140872Y0037903D01*
X0141037Y0037709D01*
X0141198Y0037510D01*
X0141354Y0037308D01*
X0141505Y0037102D01*
X0141651Y0036892D01*
X0141791Y0036679D01*
X0141927Y0036463D01*
X0142057Y0036243D01*
X0142182Y0036020D01*
X0142301Y0035795D01*
X0142415Y0035566D01*
X0142523Y0035335D01*
X0142626Y0035101D01*
X0142723Y0034865D01*
X0142814Y0034626D01*
X0142899Y0034386D01*
X0142979Y0034143D01*
X0143052Y0033898D01*
X0143120Y0033652D01*
X0143181Y0033404D01*
X0143236Y0033155D01*
X0143286Y0032905D01*
X0143329Y0032653D01*
X0143366Y0032400D01*
X0143397Y0032147D01*
X0143422Y0031893D01*
X0143441Y0031638D01*
X0143453Y0031383D01*
X0143459Y0031128D01*
X0143459Y0030872D01*
X0143453Y0030617D01*
X0143441Y0030362D01*
X0143422Y0030107D01*
X0143397Y0029853D01*
X0143366Y0029600D01*
X0143329Y0029347D01*
X0143286Y0029095D01*
X0143236Y0028845D01*
X0143181Y0028596D01*
X0143120Y0028348D01*
X0143052Y0028102D01*
X0142979Y0027857D01*
X0142899Y0027614D01*
X0142814Y0027374D01*
X0142723Y0027135D01*
X0142626Y0026899D01*
X0142523Y0026665D01*
X0142415Y0026434D01*
X0142301Y0026205D01*
X0142182Y0025980D01*
X0142057Y0025757D01*
X0141927Y0025537D01*
X0141791Y0025321D01*
X0141651Y0025108D01*
X0141505Y0024898D01*
X0141354Y0024692D01*
X0141198Y0024490D01*
X0141037Y0024291D01*
X0140872Y0024097D01*
X0140702Y0023907D01*
X0140527Y0023720D01*
X0140348Y0023539D01*
X0140164Y0023361D01*
X0139976Y0023188D01*
X0139784Y0023020D01*
X0139588Y0022856D01*
X0139388Y0022698D01*
X0139184Y0022544D01*
X0138977Y0022395D01*
X0138766Y0022251D01*
X0138551Y0022113D01*
X0138334Y0021979D01*
X0138113Y0021851D01*
X0137889Y0021729D01*
X0137662Y0021612D01*
X0137432Y0021500D01*
X0137431Y0021500D02*
X0137223Y0021400D01*
X0137012Y0021305D01*
X0136799Y0021215D01*
X0136584Y0021130D01*
X0136367Y0021050D01*
X0136148Y0020976D01*
X0135927Y0020907D01*
X0135705Y0020843D01*
X0135481Y0020785D01*
X0135256Y0020732D01*
X0135029Y0020685D01*
X0134802Y0020644D01*
X0134573Y0020608D01*
X0134344Y0020577D01*
X0134114Y0020552D01*
X0133884Y0020533D01*
X0133653Y0020519D01*
X0133422Y0020511D01*
X0133191Y0020509D01*
X0132959Y0020512D01*
X0128582Y0021454D02*
X0128357Y0021561D01*
X0128134Y0021673D01*
X0127914Y0021790D01*
X0127697Y0021912D01*
X0127482Y0022040D01*
X0127271Y0022173D01*
X0127063Y0022310D01*
X0126859Y0022453D01*
X0126657Y0022600D01*
X0126460Y0022752D01*
X0143448Y0071000D02*
X0143439Y0071288D01*
X0143422Y0071576D01*
X0143398Y0071863D01*
X0143367Y0072149D01*
X0143330Y0072435D01*
X0143285Y0072720D01*
X0143233Y0073003D01*
X0143174Y0073285D01*
X0143109Y0073566D01*
X0143036Y0073844D01*
X0142957Y0074121D01*
X0142871Y0074396D01*
X0142778Y0074669D01*
X0142679Y0074939D01*
X0142573Y0075207D01*
X0142460Y0075472D01*
X0141208Y0077500D02*
X0124712Y0077500D01*
X0122472Y0071000D02*
X0143448Y0071000D01*
X0123460Y0075472D02*
X0123347Y0075207D01*
X0123241Y0074939D01*
X0123142Y0074669D01*
X0123049Y0074396D01*
X0122963Y0074121D01*
X0122884Y0073844D01*
X0122811Y0073566D01*
X0122746Y0073285D01*
X0122687Y0073003D01*
X0122635Y0072720D01*
X0122590Y0072435D01*
X0122553Y0072149D01*
X0122522Y0071863D01*
X0122498Y0071576D01*
X0122481Y0071288D01*
X0122472Y0071000D01*
X0122469Y0070768D01*
X0122471Y0070537D01*
X0122479Y0070306D01*
X0122493Y0070075D01*
X0122512Y0069845D01*
X0122537Y0069615D01*
X0122568Y0069386D01*
X0122604Y0069157D01*
X0122645Y0068930D01*
X0122692Y0068703D01*
X0122745Y0068478D01*
X0122803Y0068254D01*
X0122867Y0068032D01*
X0122936Y0067811D01*
X0123010Y0067592D01*
X0123090Y0067375D01*
X0123175Y0067160D01*
X0123265Y0066947D01*
X0123360Y0066736D01*
X0123460Y0066528D01*
X0142460Y0066528D02*
X0142560Y0066736D01*
X0142655Y0066947D01*
X0142745Y0067160D01*
X0142830Y0067375D01*
X0142910Y0067592D01*
X0142984Y0067811D01*
X0143053Y0068032D01*
X0143117Y0068254D01*
X0143175Y0068478D01*
X0143228Y0068703D01*
X0143275Y0068930D01*
X0143316Y0069157D01*
X0143352Y0069386D01*
X0143383Y0069615D01*
X0143408Y0069845D01*
X0143427Y0070075D01*
X0143441Y0070306D01*
X0143449Y0070537D01*
X0143451Y0070768D01*
X0143448Y0071000D01*
X0142462Y0075472D02*
X0142358Y0075687D01*
X0142249Y0075900D01*
X0142135Y0076110D01*
X0142016Y0076317D01*
X0141893Y0076522D01*
X0141765Y0076724D01*
X0141632Y0076923D01*
X0141495Y0077118D01*
X0141354Y0077311D01*
X0141208Y0077500D01*
X0142460Y0066528D02*
X0142348Y0066298D01*
X0142231Y0066071D01*
X0142109Y0065847D01*
X0141981Y0065626D01*
X0141847Y0065409D01*
X0141709Y0065194D01*
X0141565Y0064983D01*
X0141416Y0064776D01*
X0141262Y0064572D01*
X0141104Y0064372D01*
X0140940Y0064176D01*
X0140772Y0063984D01*
X0140599Y0063796D01*
X0140421Y0063612D01*
X0140240Y0063433D01*
X0140053Y0063258D01*
X0139863Y0063088D01*
X0139669Y0062923D01*
X0139470Y0062762D01*
X0139268Y0062606D01*
X0139062Y0062455D01*
X0138852Y0062309D01*
X0138639Y0062169D01*
X0138423Y0062033D01*
X0138203Y0061903D01*
X0137980Y0061778D01*
X0137755Y0061659D01*
X0137526Y0061545D01*
X0137295Y0061437D01*
X0137061Y0061334D01*
X0136825Y0061237D01*
X0136586Y0061146D01*
X0136346Y0061061D01*
X0136103Y0060981D01*
X0135858Y0060908D01*
X0135612Y0060840D01*
X0135364Y0060779D01*
X0135115Y0060724D01*
X0134865Y0060674D01*
X0134613Y0060631D01*
X0134360Y0060594D01*
X0134107Y0060563D01*
X0133853Y0060538D01*
X0133598Y0060519D01*
X0133343Y0060507D01*
X0133088Y0060501D01*
X0132832Y0060501D01*
X0132577Y0060507D01*
X0132322Y0060519D01*
X0132067Y0060538D01*
X0131813Y0060563D01*
X0131560Y0060594D01*
X0131307Y0060631D01*
X0131055Y0060674D01*
X0130805Y0060724D01*
X0130556Y0060779D01*
X0130308Y0060840D01*
X0130062Y0060908D01*
X0129817Y0060981D01*
X0129574Y0061061D01*
X0129334Y0061146D01*
X0129095Y0061237D01*
X0128859Y0061334D01*
X0128625Y0061437D01*
X0128394Y0061545D01*
X0128165Y0061659D01*
X0127940Y0061778D01*
X0127717Y0061903D01*
X0127497Y0062033D01*
X0127281Y0062169D01*
X0127068Y0062309D01*
X0126858Y0062455D01*
X0126652Y0062606D01*
X0126450Y0062762D01*
X0126251Y0062923D01*
X0126057Y0063088D01*
X0125867Y0063258D01*
X0125680Y0063433D01*
X0125499Y0063612D01*
X0125321Y0063796D01*
X0125148Y0063984D01*
X0124980Y0064176D01*
X0124816Y0064372D01*
X0124658Y0064572D01*
X0124504Y0064776D01*
X0124355Y0064983D01*
X0124211Y0065194D01*
X0124073Y0065409D01*
X0123939Y0065626D01*
X0123811Y0065847D01*
X0123689Y0066071D01*
X0123572Y0066298D01*
X0123460Y0066528D01*
X0123414Y0075378D02*
X0123521Y0075603D01*
X0123633Y0075826D01*
X0123750Y0076046D01*
X0123872Y0076263D01*
X0124000Y0076478D01*
X0124133Y0076689D01*
X0124270Y0076897D01*
X0124413Y0077101D01*
X0124560Y0077303D01*
X0124712Y0077500D01*
D23*
X0079960Y0060500D02*
X0068460Y0054500D01*
X0066460Y0057000D02*
X0076960Y0065000D01*
X0073460Y0068500D02*
X0064460Y0059000D01*
X0062460Y0060500D02*
X0069460Y0071500D01*
X0064960Y0074000D02*
X0059960Y0062000D01*
X0057460Y0063000D02*
X0059960Y0075500D01*
X0054960Y0076500D02*
X0054460Y0063500D01*
X0051460Y0063500D02*
X0049460Y0076000D01*
X0043960Y0075000D02*
X0048460Y0063000D01*
X0045960Y0062000D02*
X0039960Y0073500D01*
X0035960Y0071000D02*
X0043460Y0060500D01*
X0040960Y0058500D02*
X0031960Y0068000D01*
X0028460Y0064000D02*
X0038960Y0056000D01*
X0037460Y0053500D02*
X0025960Y0059500D01*
X0069960Y0051500D02*
X0081960Y0056000D01*
X0082960Y0051000D02*
X0070460Y0048500D01*
X0070460Y0045500D02*
X0083460Y0045500D01*
X0082960Y0039500D02*
X0070460Y0042500D01*
X0069460Y0039500D02*
X0080960Y0034000D01*
X0078460Y0029500D02*
X0067960Y0036500D01*
X0065960Y0034000D02*
X0075460Y0025500D01*
X0071960Y0022000D02*
X0063460Y0032000D01*
X0060960Y0030500D02*
X0067460Y0019000D01*
X0062460Y0017000D02*
X0057960Y0029000D01*
X0054460Y0028500D02*
X0056460Y0016000D01*
X0050960Y0015500D02*
X0051460Y0028500D01*
X0048460Y0029000D02*
X0045960Y0016500D01*
X0040960Y0018000D02*
X0045960Y0030000D01*
X0042960Y0031500D02*
X0035960Y0020500D01*
X0031960Y0023500D02*
X0040460Y0033500D01*
X0038460Y0036000D02*
X0028460Y0027500D01*
X0025960Y0031500D02*
X0036960Y0038500D01*
M02*
