%
M48
M72
T01C0.02756
T02C0.03543
T03C0.04000
%
T01
X1296Y5100
X19296Y6100
T02
X1296Y1100
X1296Y4100
X9296Y4100
X10296Y3100
X13296Y3100
X13296Y2100
X11296Y1100
X16296Y1100
X20296Y1100
X17296Y3100
X16296Y3100
X13296Y4100
X12296Y5100
X11296Y5100
X12296Y7100
X13296Y7100
X14296Y7100
X14296Y8100
X17296Y8100
X17296Y7100
X20296Y8100
X19296Y5100
X16296Y5100
X10296Y7100
X9296Y8100
X1296Y8100
T03
X5296Y7100
X5296Y3100
M30
