%
M48
M72
T01C0.02756
T02C0.03543
T03C0.04000
%
T01
X2226Y3324
X24226Y5324
T02
X1226Y3324
X1226Y5324
X1226Y6324
X9226Y6324
X10226Y6324
X10226Y7324
X16226Y6324
X17226Y6324
X17226Y7324
X20226Y6324
X21226Y6324
X22226Y6324
X22226Y7324
X21226Y5324
X20226Y5324
X20226Y4324
X21226Y4324
X24226Y4324
X26226Y4324
X26226Y5324
X21226Y3324
X20226Y3324
X17226Y3324
X14226Y3324
X12226Y3324
X9226Y3324
X11226Y4324
X11226Y5324
X10226Y5324
X15226Y5324
X16226Y5324
X16226Y4324
X15226Y4324
X22226Y2324
T03
X5226Y3324
X5226Y7324
M30
