G75*
%MOIN*%
%OFA0B0*%
%FSLAX25Y25*%
%IPPOS*%
%LPD*%
%AMOC8*
5,1,8,0,0,1.08239X$1,22.5*
%
%ADD10C,0.00200*%
D10*
X0107782Y0024047D02*
X0109250Y0025148D01*
X0107782Y0026249D01*
X0109992Y0026249D02*
X0111460Y0024047D01*
X0111460Y0026249D01*
X0112202Y0025515D02*
X0112936Y0026249D01*
X0113670Y0025515D01*
X0113670Y0024047D01*
X0114412Y0024047D02*
X0114412Y0026249D01*
X0115146Y0025515D01*
X0115880Y0026249D01*
X0115880Y0024047D01*
X0116622Y0024047D02*
X0116622Y0026249D01*
X0118089Y0026249D01*
X0117355Y0025148D02*
X0116622Y0025148D01*
X0116622Y0024047D02*
X0118089Y0024047D01*
X0113670Y0025148D02*
X0112202Y0025148D01*
X0112202Y0025515D02*
X0112202Y0024047D01*
X0109992Y0024047D02*
X0109992Y0026249D01*
X0088089Y0113487D02*
X0086622Y0113487D01*
X0086622Y0115689D01*
X0088089Y0115689D01*
X0087355Y0114588D02*
X0086622Y0114588D01*
X0085880Y0115689D02*
X0085880Y0113487D01*
X0084412Y0113487D02*
X0084412Y0115689D01*
X0085146Y0114955D01*
X0085880Y0115689D01*
X0083670Y0114955D02*
X0083670Y0113487D01*
X0083670Y0114588D02*
X0082202Y0114588D01*
X0082202Y0114955D02*
X0082936Y0115689D01*
X0083670Y0114955D01*
X0082202Y0114955D02*
X0082202Y0113487D01*
X0081460Y0113487D02*
X0081460Y0115689D01*
X0079992Y0115689D02*
X0081460Y0113487D01*
X0079992Y0113487D02*
X0079992Y0115689D01*
X0079250Y0114588D02*
X0077782Y0113487D01*
X0079250Y0114588D02*
X0077782Y0115689D01*
M02*
