G75*
%MOIN*%
%OFA0B0*%
%FSLAX25Y25*%
%IPPOS*%
%LPD*%
%AMOC8*
5,1,8,0,0,1.08239X$1,22.5*
%
%ADD10C,0.00300*%
%ADD11C,0.07000*%
%ADD12C,0.05543*%
%ADD13R,0.04756X0.04756*%
%ADD14C,0.05150*%
%ADD15R,0.07000X0.07000*%
%ADD16C,0.05000*%
%ADD17R,0.03962X0.03962*%
D10*
X0040521Y0033417D02*
X0042456Y0033417D01*
X0041489Y0033417D02*
X0041489Y0036319D01*
X0040521Y0035352D01*
X0040521Y0043417D02*
X0042456Y0045352D01*
X0042456Y0045835D01*
X0041973Y0046319D01*
X0041005Y0046319D01*
X0040521Y0045835D01*
X0040521Y0043417D02*
X0042456Y0043417D01*
X0041973Y0053417D02*
X0041005Y0053417D01*
X0040521Y0053900D01*
X0041489Y0054868D02*
X0041973Y0054868D01*
X0042456Y0054384D01*
X0042456Y0053900D01*
X0041973Y0053417D01*
X0041973Y0054868D02*
X0042456Y0055352D01*
X0042456Y0055835D01*
X0041973Y0056319D01*
X0041005Y0056319D01*
X0040521Y0055835D01*
X0041973Y0063417D02*
X0041973Y0066319D01*
X0040521Y0064868D01*
X0042456Y0064868D01*
X0041973Y0073417D02*
X0041005Y0073417D01*
X0040521Y0073900D01*
X0040521Y0074868D02*
X0041489Y0075352D01*
X0041973Y0075352D01*
X0042456Y0074868D01*
X0042456Y0073900D01*
X0041973Y0073417D01*
X0040521Y0074868D02*
X0040521Y0076319D01*
X0042456Y0076319D01*
X0041973Y0083417D02*
X0041005Y0083417D01*
X0040521Y0083900D01*
X0040521Y0084868D01*
X0041973Y0084868D01*
X0042456Y0084384D01*
X0042456Y0083900D01*
X0041973Y0083417D01*
X0040521Y0084868D02*
X0041489Y0085835D01*
X0042456Y0086319D01*
X0040521Y0093417D02*
X0040521Y0093900D01*
X0042456Y0095835D01*
X0042456Y0096319D01*
X0040521Y0096319D01*
X0041005Y0103417D02*
X0040521Y0103900D01*
X0040521Y0104384D01*
X0041005Y0104868D01*
X0041973Y0104868D01*
X0042456Y0104384D01*
X0042456Y0103900D01*
X0041973Y0103417D01*
X0041005Y0103417D01*
X0041005Y0104868D02*
X0040521Y0105352D01*
X0040521Y0105835D01*
X0041005Y0106319D01*
X0041973Y0106319D01*
X0042456Y0105835D01*
X0042456Y0105352D01*
X0041973Y0104868D01*
X0041973Y0113417D02*
X0041005Y0113417D01*
X0040521Y0113900D01*
X0041005Y0114868D02*
X0042456Y0114868D01*
X0042456Y0115835D02*
X0042456Y0113900D01*
X0041973Y0113417D01*
X0041005Y0114868D02*
X0040521Y0115352D01*
X0040521Y0115835D01*
X0041005Y0116319D01*
X0041973Y0116319D01*
X0042456Y0115835D01*
X0041973Y0123417D02*
X0041005Y0123417D01*
X0040521Y0123900D01*
X0042456Y0125835D01*
X0042456Y0123900D01*
X0041973Y0123417D01*
X0040521Y0123900D02*
X0040521Y0125835D01*
X0041005Y0126319D01*
X0041973Y0126319D01*
X0042456Y0125835D01*
X0039510Y0123417D02*
X0037575Y0123417D01*
X0038542Y0123417D02*
X0038542Y0126319D01*
X0037575Y0125352D01*
X0037575Y0133417D02*
X0039510Y0133417D01*
X0038542Y0133417D02*
X0038542Y0136319D01*
X0037575Y0135352D01*
X0040521Y0135352D02*
X0041489Y0136319D01*
X0041489Y0133417D01*
X0042456Y0133417D02*
X0040521Y0133417D01*
X0040521Y0143417D02*
X0042456Y0145352D01*
X0042456Y0145835D01*
X0041973Y0146319D01*
X0041005Y0146319D01*
X0040521Y0145835D01*
X0038542Y0146319D02*
X0037575Y0145352D01*
X0038542Y0146319D02*
X0038542Y0143417D01*
X0037575Y0143417D02*
X0039510Y0143417D01*
X0040521Y0143417D02*
X0042456Y0143417D01*
X0080641Y0009919D02*
X0080641Y0007017D01*
X0079674Y0007017D02*
X0081609Y0007017D01*
X0079674Y0008952D02*
X0080641Y0009919D01*
X0089674Y0009435D02*
X0090158Y0009919D01*
X0091125Y0009919D01*
X0091609Y0009435D01*
X0091609Y0008952D01*
X0089674Y0007017D01*
X0091609Y0007017D01*
X0099674Y0007500D02*
X0100158Y0007017D01*
X0101125Y0007017D01*
X0101609Y0007500D01*
X0101609Y0007984D01*
X0101125Y0008468D01*
X0100641Y0008468D01*
X0101125Y0008468D02*
X0101609Y0008952D01*
X0101609Y0009435D01*
X0101125Y0009919D01*
X0100158Y0009919D01*
X0099674Y0009435D01*
X0109674Y0008468D02*
X0111609Y0008468D01*
X0111125Y0009919D02*
X0109674Y0008468D01*
X0111125Y0007017D02*
X0111125Y0009919D01*
X0119674Y0009919D02*
X0119674Y0008468D01*
X0120641Y0008952D01*
X0121125Y0008952D01*
X0121609Y0008468D01*
X0121609Y0007500D01*
X0121125Y0007017D01*
X0120158Y0007017D01*
X0119674Y0007500D01*
X0119674Y0009919D02*
X0121609Y0009919D01*
X0129674Y0008468D02*
X0129674Y0007500D01*
X0130158Y0007017D01*
X0131125Y0007017D01*
X0131609Y0007500D01*
X0131609Y0007984D01*
X0131125Y0008468D01*
X0129674Y0008468D01*
X0130641Y0009435D01*
X0131609Y0009919D01*
X0139674Y0009919D02*
X0141609Y0009919D01*
X0141609Y0009435D01*
X0139674Y0007500D01*
X0139674Y0007017D01*
X0149674Y0007500D02*
X0149674Y0007984D01*
X0150158Y0008468D01*
X0151125Y0008468D01*
X0151609Y0007984D01*
X0151609Y0007500D01*
X0151125Y0007017D01*
X0150158Y0007017D01*
X0149674Y0007500D01*
X0150158Y0008468D02*
X0149674Y0008952D01*
X0149674Y0009435D01*
X0150158Y0009919D01*
X0151125Y0009919D01*
X0151609Y0009435D01*
X0151609Y0008952D01*
X0151125Y0008468D01*
X0159674Y0008952D02*
X0160158Y0008468D01*
X0161609Y0008468D01*
X0161609Y0009435D02*
X0161125Y0009919D01*
X0160158Y0009919D01*
X0159674Y0009435D01*
X0159674Y0008952D01*
X0159674Y0007500D02*
X0160158Y0007017D01*
X0161125Y0007017D01*
X0161609Y0007500D01*
X0161609Y0009435D01*
X0168201Y0008952D02*
X0169168Y0009919D01*
X0169168Y0007017D01*
X0168201Y0007017D02*
X0170135Y0007017D01*
X0171147Y0007500D02*
X0171147Y0009435D01*
X0171631Y0009919D01*
X0172598Y0009919D01*
X0173082Y0009435D01*
X0171147Y0007500D01*
X0171631Y0007017D01*
X0172598Y0007017D01*
X0173082Y0007500D01*
X0173082Y0009435D01*
X0178201Y0008952D02*
X0179168Y0009919D01*
X0179168Y0007017D01*
X0178201Y0007017D02*
X0180135Y0007017D01*
X0181147Y0007017D02*
X0183082Y0007017D01*
X0182115Y0007017D02*
X0182115Y0009919D01*
X0181147Y0008952D01*
X0188201Y0008952D02*
X0189168Y0009919D01*
X0189168Y0007017D01*
X0188201Y0007017D02*
X0190135Y0007017D01*
X0191147Y0007017D02*
X0193082Y0008952D01*
X0193082Y0009435D01*
X0192598Y0009919D01*
X0191631Y0009919D01*
X0191147Y0009435D01*
X0191147Y0007017D02*
X0193082Y0007017D01*
D11*
X0093318Y0034867D03*
X0093318Y0044867D03*
X0063318Y0094867D03*
X0063318Y0104867D03*
X0063318Y0124867D03*
X0063318Y0144867D03*
D12*
X0133318Y0134867D03*
X0163318Y0134867D03*
X0113318Y0094867D03*
X0083318Y0094867D03*
X0073318Y0074867D03*
X0073318Y0064867D03*
X0113318Y0064867D03*
X0123318Y0044867D03*
X0113318Y0034867D03*
X0073318Y0034867D03*
X0153318Y0044867D03*
X0173318Y0034867D03*
D13*
X0173318Y0044867D03*
X0073318Y0084867D03*
D14*
X0130743Y0084867D02*
X0135893Y0084867D01*
X0135893Y0094867D02*
X0130743Y0094867D01*
X0130743Y0104867D02*
X0135893Y0104867D01*
X0135893Y0114867D02*
X0130743Y0114867D01*
X0130743Y0124867D02*
X0135893Y0124867D01*
X0160743Y0124867D02*
X0165893Y0124867D01*
X0165893Y0114867D02*
X0160743Y0114867D01*
X0160743Y0104867D02*
X0165893Y0104867D01*
X0165893Y0094867D02*
X0160743Y0094867D01*
X0160743Y0084867D02*
X0165893Y0084867D01*
X0165893Y0074867D02*
X0160743Y0074867D01*
X0160743Y0064867D02*
X0165893Y0064867D01*
X0165893Y0054867D02*
X0160743Y0054867D01*
X0135893Y0054867D02*
X0130743Y0054867D01*
X0130743Y0064867D02*
X0135893Y0064867D01*
X0135893Y0074867D02*
X0130743Y0074867D01*
D15*
X0063318Y0134867D03*
D16*
X0123318Y0114867D02*
X0123318Y0054867D01*
X0103318Y0034867D02*
X0103318Y0079867D01*
X0173318Y0074867D02*
X0173318Y0144867D01*
D17*
X0173318Y0144867D03*
X0123318Y0114867D03*
X0103318Y0079867D03*
X0123318Y0054867D03*
X0103318Y0034867D03*
X0173318Y0074867D03*
M02*
