%
M48
M72
T01C0.02756
T02C0.03150
T03C0.03543
%
T01
X8286Y16100
T02
X6286Y16100
X5286Y8100
X5286Y7100
X5286Y6100
X5286Y5100
X5286Y4100
X5286Y3100
X5286Y2100
X5286Y1100
X8286Y1100
X8286Y2100
X8286Y3100
X8286Y4100
X8286Y5100
X8286Y6100
X8286Y7100
X8286Y8100
T03
X786Y600
X2286Y600
X3786Y600
X3786Y4600
X2286Y4600
X786Y4600
X7286Y10100
X8786Y10100
X5286Y10600
X5286Y11600
X5286Y12600
X2786Y11600
X1286Y11600
X1286Y10600
X2786Y10600
X7286Y14100
X8786Y14100
X8286Y15100
X5286Y16100
M30
