%
M48
M72
T01C0.02756
T02C0.03150
T03C0.03543
T04C0.03937
T05C0.04331
%
T01
X12889Y5933
X14889Y4933
X15889Y3933
X16889Y3933
X17889Y3933
X17889Y4933
X15889Y5933
T02
X14889Y6933
X14889Y7933
X14889Y8933
X14889Y9933
X14889Y10933
X14889Y11933
X14889Y12933
X17889Y12933
X17889Y11933
X17889Y10933
X17889Y9933
X17889Y8933
X17889Y7933
X17889Y6933
T03
X6889Y3933
X7889Y3933
X9889Y4933
X7889Y5933
X6889Y6933
X9889Y6933
X10889Y6933
X11889Y5933
X11889Y4933
X11889Y3933
X14889Y3933
X18889Y3933
X20889Y3933
X20889Y4933
X19889Y5933
X18889Y6933
X18889Y7933
X19889Y8933
X20889Y7933
X20889Y9933
X19889Y10933
X18889Y10933
X19889Y11933
X20889Y11933
X20889Y13933
X12889Y13933
X10889Y13933
X9889Y13933
X8889Y12933
X7889Y13933
X6889Y13933
X6889Y10933
X12889Y10933
X12889Y9933
X12889Y7933
T04
X8889Y7933
T05
X8889Y9933
X6889Y9933
X17889Y13933
X18889Y13933
X19889Y13933
M30
