G75*
%MOIN*%
%OFA0B0*%
%FSLAX25Y25*%
%IPPOS*%
%LPD*%
%AMOC8*
5,1,8,0,0,1.08239X$1,22.5*
%
%ADD10C,0.07000*%
%ADD11C,0.01299*%
%ADD12C,0.01187*%
%ADD13R,0.05543X0.05543*%
%ADD14R,0.07000X0.07000*%
%ADD15C,0.04756*%
%ADD16C,0.08600*%
%ADD17C,0.05543*%
%ADD18C,0.05150*%
%ADD19C,0.05000*%
%ADD20R,0.04356X0.04356*%
D10*
X0068897Y0039337D03*
X0078897Y0039337D03*
X0098897Y0049337D03*
X0078897Y0059337D03*
X0068897Y0069337D03*
X0098897Y0069337D03*
X0108897Y0069337D03*
X0118897Y0059337D03*
X0118897Y0039337D03*
X0148897Y0039337D03*
X0188897Y0039337D03*
X0208897Y0049337D03*
X0198897Y0059337D03*
X0188897Y0069337D03*
X0188897Y0079337D03*
X0198897Y0089337D03*
X0208897Y0079337D03*
X0208897Y0099337D03*
X0188897Y0109337D03*
X0198897Y0119337D03*
X0208897Y0119337D03*
X0208897Y0139337D03*
X0128897Y0139337D03*
X0108897Y0139337D03*
X0098897Y0139337D03*
X0078897Y0139337D03*
X0068897Y0139337D03*
X0128897Y0109337D03*
X0128897Y0079337D03*
D11*
X0089323Y0097390D02*
X0089973Y0096740D01*
X0087821Y0096740D01*
X0086300Y0098261D01*
X0086300Y0100413D01*
X0087821Y0101934D01*
X0089973Y0101934D01*
X0091494Y0100413D01*
X0091494Y0098261D01*
X0089973Y0096740D01*
X0089570Y0097714D01*
X0088224Y0097714D01*
X0087274Y0098664D01*
X0087274Y0100010D01*
X0088224Y0100960D01*
X0089570Y0100960D01*
X0090520Y0100010D01*
X0090520Y0098664D01*
X0089570Y0097714D01*
X0089165Y0098688D01*
X0088629Y0098688D01*
X0088248Y0099069D01*
X0088248Y0099605D01*
X0088629Y0099986D01*
X0089165Y0099986D01*
X0089546Y0099605D01*
X0089546Y0099069D01*
X0089165Y0098688D01*
X0069323Y0097390D02*
X0069973Y0096740D01*
X0067821Y0096740D01*
X0066300Y0098261D01*
X0066300Y0100413D01*
X0067821Y0101934D01*
X0069973Y0101934D01*
X0071494Y0100413D01*
X0071494Y0098261D01*
X0069973Y0096740D01*
X0069570Y0097714D01*
X0068224Y0097714D01*
X0067274Y0098664D01*
X0067274Y0100010D01*
X0068224Y0100960D01*
X0069570Y0100960D01*
X0070520Y0100010D01*
X0070520Y0098664D01*
X0069570Y0097714D01*
X0069165Y0098688D01*
X0068629Y0098688D01*
X0068248Y0099069D01*
X0068248Y0099605D01*
X0068629Y0099986D01*
X0069165Y0099986D01*
X0069546Y0099605D01*
X0069546Y0099069D01*
X0069165Y0098688D01*
D12*
X0089287Y0077557D02*
X0089881Y0076963D01*
X0087913Y0076963D01*
X0086523Y0078353D01*
X0086523Y0080321D01*
X0087913Y0081711D01*
X0089881Y0081711D01*
X0091271Y0080321D01*
X0091271Y0078353D01*
X0089881Y0076963D01*
X0089512Y0077854D01*
X0088282Y0077854D01*
X0087414Y0078722D01*
X0087414Y0079952D01*
X0088282Y0080820D01*
X0089512Y0080820D01*
X0090380Y0079952D01*
X0090380Y0078722D01*
X0089512Y0077854D01*
X0089143Y0078745D01*
X0088651Y0078745D01*
X0088305Y0079091D01*
X0088305Y0079583D01*
X0088651Y0079929D01*
X0089143Y0079929D01*
X0089489Y0079583D01*
X0089489Y0079091D01*
X0089143Y0078745D01*
D13*
X0118897Y0049337D03*
X0198897Y0109337D03*
X0208897Y0039337D03*
D14*
X0128897Y0099337D03*
D15*
X0158897Y0041715D02*
X0158897Y0036959D01*
X0168897Y0036959D02*
X0168897Y0041715D01*
X0178897Y0041715D02*
X0178897Y0036959D01*
D16*
X0178897Y0139337D03*
X0188897Y0139337D03*
X0198897Y0139337D03*
D17*
X0088897Y0129337D03*
X0068897Y0109337D03*
D18*
X0146323Y0109337D02*
X0151472Y0109337D01*
X0151472Y0099337D02*
X0146323Y0099337D01*
X0146323Y0089337D02*
X0151472Y0089337D01*
X0151472Y0079337D02*
X0146323Y0079337D01*
X0146323Y0069337D02*
X0151472Y0069337D01*
X0176323Y0069337D02*
X0181472Y0069337D01*
X0181472Y0079337D02*
X0176323Y0079337D01*
X0176323Y0089337D02*
X0181472Y0089337D01*
X0181472Y0099337D02*
X0176323Y0099337D01*
X0176323Y0109337D02*
X0181472Y0109337D01*
X0181472Y0119337D02*
X0176323Y0119337D01*
X0176323Y0129337D02*
X0181472Y0129337D01*
X0151472Y0129337D02*
X0146323Y0129337D01*
X0146323Y0119337D02*
X0151472Y0119337D01*
D19*
X0128897Y0109337D02*
X0118897Y0109337D01*
X0118897Y0089337D01*
X0118897Y0069337D01*
X0108897Y0069337D01*
X0098897Y0069337D01*
X0098897Y0059337D02*
X0098897Y0049337D01*
X0098897Y0039337D01*
X0078897Y0039337D01*
X0068897Y0039337D01*
X0068897Y0059337D02*
X0078897Y0059337D01*
X0068897Y0059337D02*
X0068897Y0069337D01*
X0068897Y0099337D01*
X0068897Y0109337D01*
X0088897Y0099337D02*
X0088897Y0139337D01*
X0098897Y0139337D01*
X0108897Y0139337D01*
X0128897Y0139337D02*
X0138897Y0139337D01*
X0138897Y0099337D01*
X0128897Y0099337D01*
X0148897Y0099337D01*
X0158897Y0099337D02*
X0178897Y0099337D01*
X0208897Y0099337D01*
X0208897Y0119337D01*
X0198897Y0119337D01*
X0198897Y0109337D02*
X0188897Y0109337D01*
X0178897Y0089337D02*
X0168897Y0089337D01*
X0168897Y0039337D01*
X0158897Y0039337D02*
X0148897Y0039337D01*
X0138897Y0039337D01*
X0138897Y0079337D01*
X0148897Y0079337D01*
X0148897Y0089337D02*
X0118897Y0089337D01*
X0128897Y0079337D02*
X0128897Y0059337D01*
X0118897Y0059337D01*
X0108897Y0059337D01*
X0118897Y0059337D02*
X0098897Y0059337D01*
X0118897Y0049337D02*
X0118897Y0039337D01*
X0148897Y0049337D02*
X0148897Y0069337D01*
X0158897Y0059337D02*
X0158897Y0099337D01*
X0178897Y0079337D02*
X0188897Y0079337D01*
X0198897Y0079337D01*
X0198897Y0089337D01*
X0208897Y0079337D02*
X0208897Y0049337D01*
X0208897Y0039337D02*
X0188897Y0039337D01*
X0178897Y0039337D02*
X0178897Y0049337D01*
X0198897Y0059337D02*
X0198897Y0069337D01*
X0188897Y0069337D01*
X0178897Y0069337D01*
X0188897Y0139337D02*
X0138897Y0139337D01*
X0078897Y0139337D02*
X0068897Y0139337D01*
X0198897Y0139337D02*
X0208897Y0139337D01*
D20*
X0158897Y0059337D03*
X0148897Y0049337D03*
X0128897Y0059337D03*
X0178897Y0049337D03*
M02*
