G75*
%MOIN*%
%OFA0B0*%
%FSLAX25Y25*%
%IPPOS*%
%LPD*%
%AMOC8*
5,1,8,0,0,1.08239X$1,22.5*
%
%ADD10C,0.00200*%
%ADD11C,0.00500*%
%ADD12C,0.00600*%
%ADD13C,0.00300*%
%ADD14R,0.02400X0.09600*%
%ADD15C,0.01200*%
%ADD16R,0.01000X0.04000*%
%ADD17R,0.06400X0.01000*%
%ADD18R,0.05400X0.00900*%
%ADD19R,0.08000X0.02000*%
%ADD20C,0.01600*%
%ADD21R,0.14000X0.03000*%
%ADD22R,0.01600X0.14200*%
%ADD23C,0.01000*%
%ADD24R,0.01000X0.01500*%
%ADD25C,0.00800*%
%ADD26R,0.01500X0.01000*%
%ADD27R,0.10000X0.02000*%
%ADD28C,0.00400*%
D10*
X0054738Y0040937D02*
X0056206Y0042038D01*
X0054738Y0043139D01*
X0056948Y0043139D02*
X0056948Y0041671D01*
X0057682Y0040937D01*
X0058416Y0041671D01*
X0058416Y0043139D01*
X0059158Y0042405D02*
X0059892Y0043139D01*
X0060626Y0042405D01*
X0060626Y0040937D01*
X0061368Y0040937D02*
X0062835Y0040937D01*
X0063577Y0041304D02*
X0063944Y0040937D01*
X0064678Y0040937D01*
X0065045Y0041304D01*
X0065045Y0043139D01*
X0065787Y0043139D02*
X0065787Y0040937D01*
X0067255Y0040937D01*
X0066521Y0042038D02*
X0065787Y0042038D01*
X0065787Y0043139D02*
X0067255Y0043139D01*
X0063577Y0043139D02*
X0063577Y0041304D01*
X0061368Y0040937D02*
X0061368Y0043139D01*
X0060626Y0042038D02*
X0059158Y0042038D01*
X0059158Y0042405D02*
X0059158Y0040937D01*
X0081738Y0044437D02*
X0083206Y0045538D01*
X0081738Y0046639D01*
X0083948Y0046639D02*
X0083948Y0045171D01*
X0084682Y0044437D01*
X0085416Y0045171D01*
X0085416Y0046639D01*
X0086158Y0045905D02*
X0086892Y0046639D01*
X0087626Y0045905D01*
X0087626Y0044437D01*
X0088368Y0044437D02*
X0089835Y0044437D01*
X0090577Y0044804D02*
X0090944Y0044437D01*
X0091678Y0044437D01*
X0092045Y0044804D01*
X0092045Y0046639D01*
X0092787Y0046639D02*
X0092787Y0044437D01*
X0094255Y0044437D01*
X0093521Y0045538D02*
X0092787Y0045538D01*
X0092787Y0046639D02*
X0094255Y0046639D01*
X0090577Y0046639D02*
X0090577Y0044804D01*
X0088368Y0044437D02*
X0088368Y0046639D01*
X0087626Y0045538D02*
X0086158Y0045538D01*
X0086158Y0045905D02*
X0086158Y0044437D01*
X0092257Y0029639D02*
X0093724Y0028538D01*
X0092257Y0027437D01*
X0094466Y0028171D02*
X0095200Y0027437D01*
X0095934Y0028171D01*
X0095934Y0029639D01*
X0096676Y0028905D02*
X0097410Y0029639D01*
X0098144Y0028905D01*
X0098144Y0027437D01*
X0098886Y0027437D02*
X0100354Y0027437D01*
X0101096Y0027804D02*
X0101463Y0027437D01*
X0102197Y0027437D01*
X0102564Y0027804D01*
X0102564Y0029639D01*
X0103306Y0029639D02*
X0103306Y0027437D01*
X0104774Y0027437D01*
X0104040Y0028538D02*
X0103306Y0028538D01*
X0103306Y0029639D02*
X0104774Y0029639D01*
X0101096Y0029639D02*
X0101096Y0027804D01*
X0098886Y0027437D02*
X0098886Y0029639D01*
X0098144Y0028538D02*
X0096676Y0028538D01*
X0096676Y0028905D02*
X0096676Y0027437D01*
X0094466Y0028171D02*
X0094466Y0029639D01*
X0100738Y0064287D02*
X0102206Y0065388D01*
X0100738Y0066489D01*
X0102948Y0066489D02*
X0102948Y0065021D01*
X0103682Y0064287D01*
X0104416Y0065021D01*
X0104416Y0066489D01*
X0105158Y0065755D02*
X0105892Y0066489D01*
X0106626Y0065755D01*
X0106626Y0064287D01*
X0107368Y0064287D02*
X0108835Y0064287D01*
X0109577Y0064654D02*
X0109944Y0064287D01*
X0110678Y0064287D01*
X0111045Y0064654D01*
X0111045Y0066489D01*
X0111787Y0066489D02*
X0111787Y0064287D01*
X0113255Y0064287D01*
X0112521Y0065388D02*
X0111787Y0065388D01*
X0111787Y0066489D02*
X0113255Y0066489D01*
X0109577Y0066489D02*
X0109577Y0064654D01*
X0107368Y0064287D02*
X0107368Y0066489D01*
X0106626Y0065388D02*
X0105158Y0065388D01*
X0105158Y0065755D02*
X0105158Y0064287D01*
X0103669Y0069037D02*
X0102201Y0069037D01*
X0102201Y0071239D01*
X0103669Y0071239D01*
X0102935Y0070138D02*
X0102201Y0070138D01*
X0101459Y0071239D02*
X0101459Y0069037D01*
X0099991Y0069037D02*
X0099991Y0071239D01*
X0100725Y0070505D01*
X0101459Y0071239D01*
X0099249Y0070505D02*
X0099249Y0069037D01*
X0099249Y0070138D02*
X0097781Y0070138D01*
X0097781Y0070505D02*
X0098515Y0071239D01*
X0099249Y0070505D01*
X0097781Y0070505D02*
X0097781Y0069037D01*
X0097039Y0069037D02*
X0097039Y0071239D01*
X0095571Y0071239D02*
X0097039Y0069037D01*
X0095571Y0069037D02*
X0095571Y0071239D01*
X0094829Y0070138D02*
X0093362Y0069037D01*
X0094829Y0070138D02*
X0093362Y0071239D01*
X0092787Y0072037D02*
X0094255Y0072037D01*
X0093521Y0073138D02*
X0092787Y0073138D01*
X0092787Y0074239D02*
X0092787Y0072037D01*
X0092045Y0072037D02*
X0092045Y0074239D01*
X0091311Y0073505D01*
X0090577Y0074239D01*
X0090577Y0072037D01*
X0089835Y0072037D02*
X0089835Y0073505D01*
X0089102Y0074239D01*
X0088368Y0073505D01*
X0088368Y0072037D01*
X0087626Y0072037D02*
X0087626Y0074239D01*
X0088368Y0073138D02*
X0089835Y0073138D01*
X0087626Y0072037D02*
X0086158Y0074239D01*
X0086158Y0072037D01*
X0085416Y0073138D02*
X0083948Y0074239D01*
X0085416Y0073138D02*
X0083948Y0072037D01*
X0092787Y0074239D02*
X0094255Y0074239D01*
X0067255Y0067739D02*
X0065787Y0067739D01*
X0065787Y0065537D01*
X0067255Y0065537D01*
X0066521Y0066638D02*
X0065787Y0066638D01*
X0065045Y0067739D02*
X0064311Y0067005D01*
X0063577Y0067739D01*
X0063577Y0065537D01*
X0062835Y0065537D02*
X0062835Y0067005D01*
X0062102Y0067739D01*
X0061368Y0067005D01*
X0061368Y0065537D01*
X0060626Y0065537D02*
X0060626Y0067739D01*
X0061368Y0066638D02*
X0062835Y0066638D01*
X0060626Y0065537D02*
X0059158Y0067739D01*
X0059158Y0065537D01*
X0058416Y0066638D02*
X0056948Y0065537D01*
X0058416Y0066638D02*
X0056948Y0067739D01*
X0065045Y0067739D02*
X0065045Y0065537D01*
X0114738Y0110937D02*
X0116206Y0112038D01*
X0114738Y0113139D01*
X0116948Y0113139D02*
X0116948Y0111671D01*
X0117682Y0110937D01*
X0118416Y0111671D01*
X0118416Y0113139D01*
X0119158Y0112405D02*
X0119158Y0110937D01*
X0119158Y0112038D02*
X0120626Y0112038D01*
X0120626Y0112405D02*
X0120626Y0110937D01*
X0121368Y0110937D02*
X0121368Y0113139D01*
X0120626Y0112405D02*
X0119892Y0113139D01*
X0119158Y0112405D01*
X0121368Y0110937D02*
X0122835Y0110937D01*
X0123577Y0111304D02*
X0123577Y0113139D01*
X0125045Y0113139D02*
X0125045Y0111304D01*
X0124678Y0110937D01*
X0123944Y0110937D01*
X0123577Y0111304D01*
X0125787Y0110937D02*
X0125787Y0113139D01*
X0127255Y0113139D01*
X0126521Y0112038D02*
X0125787Y0112038D01*
X0125787Y0110937D02*
X0127255Y0110937D01*
X0114774Y0130187D02*
X0113306Y0130187D01*
X0113306Y0132389D01*
X0114774Y0132389D01*
X0114040Y0131288D02*
X0113306Y0131288D01*
X0112564Y0130554D02*
X0112564Y0132389D01*
X0111096Y0132389D02*
X0111096Y0130554D01*
X0111463Y0130187D01*
X0112197Y0130187D01*
X0112564Y0130554D01*
X0110354Y0130187D02*
X0108886Y0130187D01*
X0108886Y0132389D01*
X0108144Y0131655D02*
X0107410Y0132389D01*
X0106676Y0131655D01*
X0106676Y0130187D01*
X0105934Y0130921D02*
X0105934Y0132389D01*
X0106676Y0131288D02*
X0108144Y0131288D01*
X0108144Y0131655D02*
X0108144Y0130187D01*
X0105934Y0130921D02*
X0105200Y0130187D01*
X0104466Y0130921D01*
X0104466Y0132389D01*
X0103724Y0131288D02*
X0102257Y0130187D01*
X0103724Y0131288D02*
X0102257Y0132389D01*
X0116948Y0135537D02*
X0118416Y0136638D01*
X0116948Y0137739D01*
X0119158Y0137739D02*
X0120626Y0135537D01*
X0120626Y0137739D01*
X0121368Y0137005D02*
X0122102Y0137739D01*
X0122835Y0137005D01*
X0122835Y0135537D01*
X0123577Y0135537D02*
X0123577Y0137739D01*
X0124311Y0137005D01*
X0125045Y0137739D01*
X0125045Y0135537D01*
X0125787Y0135537D02*
X0125787Y0137739D01*
X0127255Y0137739D01*
X0126521Y0136638D02*
X0125787Y0136638D01*
X0125787Y0135537D02*
X0127255Y0135537D01*
X0122835Y0136638D02*
X0121368Y0136638D01*
X0121368Y0137005D02*
X0121368Y0135537D01*
X0119158Y0135537D02*
X0119158Y0137739D01*
X0106669Y0146287D02*
X0105201Y0146287D01*
X0105201Y0148489D01*
X0106669Y0148489D01*
X0105935Y0147388D02*
X0105201Y0147388D01*
X0104459Y0148489D02*
X0104459Y0146287D01*
X0102991Y0146287D02*
X0102991Y0148489D01*
X0103725Y0147755D01*
X0104459Y0148489D01*
X0102249Y0147755D02*
X0102249Y0146287D01*
X0102249Y0147388D02*
X0100781Y0147388D01*
X0100781Y0147755D02*
X0101515Y0148489D01*
X0102249Y0147755D01*
X0100781Y0147755D02*
X0100781Y0146287D01*
X0100039Y0146287D02*
X0100039Y0148489D01*
X0098571Y0148489D02*
X0098571Y0146287D01*
X0097829Y0147388D02*
X0096362Y0148489D01*
X0097829Y0147388D02*
X0096362Y0146287D01*
X0098571Y0148489D02*
X0100039Y0146287D01*
X0062027Y0153801D02*
X0060926Y0155269D01*
X0059826Y0153801D01*
X0059826Y0156011D02*
X0062027Y0157479D01*
X0059826Y0157479D01*
X0060559Y0158221D02*
X0059826Y0158955D01*
X0060559Y0159689D01*
X0062027Y0159689D01*
X0062027Y0160431D02*
X0059826Y0160431D01*
X0060559Y0161165D01*
X0059826Y0161899D01*
X0062027Y0161899D01*
X0062027Y0162641D02*
X0062027Y0164109D01*
X0060926Y0163375D02*
X0060926Y0162641D01*
X0059826Y0162641D02*
X0062027Y0162641D01*
X0059826Y0162641D02*
X0059826Y0164109D01*
X0060926Y0159689D02*
X0060926Y0158221D01*
X0060559Y0158221D02*
X0062027Y0158221D01*
X0062027Y0156011D02*
X0059826Y0156011D01*
X0173775Y0104239D02*
X0175243Y0103138D01*
X0173775Y0102037D01*
X0175985Y0102037D02*
X0175985Y0104239D01*
X0177453Y0102037D01*
X0177453Y0104239D01*
X0178195Y0103505D02*
X0178929Y0104239D01*
X0179663Y0103505D01*
X0179663Y0102037D01*
X0180405Y0102037D02*
X0180405Y0104239D01*
X0181139Y0103505D01*
X0181873Y0104239D01*
X0181873Y0102037D01*
X0182615Y0102037D02*
X0184083Y0102037D01*
X0183349Y0103138D02*
X0182615Y0103138D01*
X0182615Y0104239D02*
X0182615Y0102037D01*
X0182615Y0104239D02*
X0184083Y0104239D01*
X0179663Y0103138D02*
X0178195Y0103138D01*
X0178195Y0103505D02*
X0178195Y0102037D01*
X0186948Y0087739D02*
X0188416Y0086638D01*
X0186948Y0085537D01*
X0189158Y0085537D02*
X0189158Y0087739D01*
X0190626Y0085537D01*
X0190626Y0087739D01*
X0191368Y0087005D02*
X0192102Y0087739D01*
X0192835Y0087005D01*
X0192835Y0085537D01*
X0193577Y0085537D02*
X0193577Y0087739D01*
X0194311Y0087005D01*
X0195045Y0087739D01*
X0195045Y0085537D01*
X0195787Y0085537D02*
X0197255Y0085537D01*
X0196521Y0086638D02*
X0195787Y0086638D01*
X0195787Y0087739D02*
X0195787Y0085537D01*
X0192835Y0086638D02*
X0191368Y0086638D01*
X0191368Y0087005D02*
X0191368Y0085537D01*
X0195787Y0087739D02*
X0197255Y0087739D01*
X0187293Y0077639D02*
X0185825Y0077639D01*
X0185825Y0075437D01*
X0187293Y0075437D01*
X0186559Y0076538D02*
X0185825Y0076538D01*
X0185083Y0075804D02*
X0184716Y0075437D01*
X0183982Y0075437D01*
X0183615Y0075804D01*
X0183615Y0077639D01*
X0185083Y0077639D02*
X0185083Y0075804D01*
X0182873Y0075437D02*
X0181405Y0075437D01*
X0181405Y0077639D01*
X0180663Y0076905D02*
X0180663Y0075437D01*
X0180663Y0076538D02*
X0179195Y0076538D01*
X0179195Y0076905D02*
X0179929Y0077639D01*
X0180663Y0076905D01*
X0179195Y0076905D02*
X0179195Y0075437D01*
X0178453Y0076171D02*
X0178453Y0077639D01*
X0176985Y0077639D02*
X0176985Y0076171D01*
X0177719Y0075437D01*
X0178453Y0076171D01*
X0176243Y0076538D02*
X0174775Y0075437D01*
X0176243Y0076538D02*
X0174775Y0077639D01*
X0176948Y0067739D02*
X0178416Y0066638D01*
X0176948Y0065537D01*
X0179158Y0065537D02*
X0179158Y0067739D01*
X0180626Y0065537D01*
X0180626Y0067739D01*
X0181368Y0067005D02*
X0182102Y0067739D01*
X0182835Y0067005D01*
X0182835Y0065537D01*
X0183577Y0065537D02*
X0183577Y0067739D01*
X0184311Y0067005D01*
X0185045Y0067739D01*
X0185045Y0065537D01*
X0185787Y0065537D02*
X0187255Y0065537D01*
X0186521Y0066638D02*
X0185787Y0066638D01*
X0185787Y0067739D02*
X0185787Y0065537D01*
X0184738Y0063139D02*
X0186206Y0062038D01*
X0184738Y0060937D01*
X0186948Y0061671D02*
X0187682Y0060937D01*
X0188416Y0061671D01*
X0188416Y0063139D01*
X0189158Y0062405D02*
X0189892Y0063139D01*
X0190626Y0062405D01*
X0190626Y0060937D01*
X0191368Y0060937D02*
X0192835Y0060937D01*
X0193577Y0061304D02*
X0193944Y0060937D01*
X0194678Y0060937D01*
X0195045Y0061304D01*
X0195045Y0063139D01*
X0195787Y0063139D02*
X0195787Y0060937D01*
X0197255Y0060937D01*
X0196521Y0062038D02*
X0195787Y0062038D01*
X0195787Y0063139D02*
X0197255Y0063139D01*
X0193577Y0063139D02*
X0193577Y0061304D01*
X0191368Y0060937D02*
X0191368Y0063139D01*
X0190626Y0062038D02*
X0189158Y0062038D01*
X0189158Y0062405D02*
X0189158Y0060937D01*
X0186948Y0061671D02*
X0186948Y0063139D01*
X0182835Y0066638D02*
X0181368Y0066638D01*
X0181368Y0067005D02*
X0181368Y0065537D01*
X0185787Y0067739D02*
X0187255Y0067739D01*
X0192448Y0059239D02*
X0193916Y0058138D01*
X0192448Y0057037D01*
X0194658Y0057037D02*
X0194658Y0059239D01*
X0196126Y0057037D01*
X0196126Y0059239D01*
X0196868Y0058505D02*
X0196868Y0057037D01*
X0196868Y0058138D02*
X0198335Y0058138D01*
X0198335Y0058505D02*
X0198335Y0057037D01*
X0199077Y0057037D02*
X0199077Y0059239D01*
X0199811Y0058505D01*
X0200545Y0059239D01*
X0200545Y0057037D01*
X0201287Y0057037D02*
X0202755Y0057037D01*
X0202021Y0058138D02*
X0201287Y0058138D01*
X0201287Y0059239D02*
X0201287Y0057037D01*
X0201429Y0055239D02*
X0202163Y0054505D01*
X0202163Y0053037D01*
X0202905Y0053037D02*
X0202905Y0055239D01*
X0203639Y0054505D01*
X0204373Y0055239D01*
X0204373Y0053037D01*
X0205115Y0053037D02*
X0206583Y0053037D01*
X0205849Y0054138D02*
X0205115Y0054138D01*
X0205115Y0055239D02*
X0205115Y0053037D01*
X0205115Y0055239D02*
X0206583Y0055239D01*
X0202163Y0054138D02*
X0200695Y0054138D01*
X0200695Y0054505D02*
X0200695Y0053037D01*
X0199953Y0053037D02*
X0199953Y0055239D01*
X0200695Y0054505D02*
X0201429Y0055239D01*
X0199953Y0053037D02*
X0198485Y0055239D01*
X0198485Y0053037D01*
X0197743Y0054138D02*
X0196275Y0053037D01*
X0197743Y0054138D02*
X0196275Y0055239D01*
X0196868Y0058505D02*
X0197602Y0059239D01*
X0198335Y0058505D01*
X0201287Y0059239D02*
X0202755Y0059239D01*
X0187255Y0043139D02*
X0185787Y0043139D01*
X0185787Y0040937D01*
X0187255Y0040937D01*
X0186521Y0042038D02*
X0185787Y0042038D01*
X0185045Y0041304D02*
X0185045Y0043139D01*
X0183577Y0043139D02*
X0183577Y0041304D01*
X0183944Y0040937D01*
X0184678Y0040937D01*
X0185045Y0041304D01*
X0182835Y0040937D02*
X0181368Y0040937D01*
X0181368Y0043139D01*
X0180626Y0042405D02*
X0180626Y0040937D01*
X0180626Y0042038D02*
X0179158Y0042038D01*
X0179158Y0042405D02*
X0179892Y0043139D01*
X0180626Y0042405D01*
X0179158Y0042405D02*
X0179158Y0040937D01*
X0178416Y0041671D02*
X0178416Y0043139D01*
X0178416Y0041671D02*
X0177682Y0040937D01*
X0176948Y0041671D01*
X0176948Y0043139D01*
X0176206Y0042038D02*
X0174738Y0040937D01*
X0176206Y0042038D02*
X0174738Y0043139D01*
X0174083Y0048037D02*
X0172615Y0048037D01*
X0172615Y0050239D01*
X0174083Y0050239D01*
X0173349Y0049138D02*
X0172615Y0049138D01*
X0171873Y0050239D02*
X0171873Y0048037D01*
X0170405Y0048037D02*
X0170405Y0050239D01*
X0171139Y0049505D01*
X0171873Y0050239D01*
X0169663Y0049505D02*
X0169663Y0048037D01*
X0169663Y0049138D02*
X0168195Y0049138D01*
X0168195Y0049505D02*
X0168929Y0050239D01*
X0169663Y0049505D01*
X0168195Y0049505D02*
X0168195Y0048037D01*
X0167453Y0048037D02*
X0167453Y0050239D01*
X0165985Y0050239D02*
X0167453Y0048037D01*
X0165985Y0048037D02*
X0165985Y0050239D01*
X0165243Y0049138D02*
X0163775Y0048037D01*
X0165243Y0049138D02*
X0163775Y0050239D01*
X0159774Y0040439D02*
X0158306Y0040439D01*
X0158306Y0038237D01*
X0159774Y0038237D01*
X0159040Y0039338D02*
X0158306Y0039338D01*
X0157564Y0038604D02*
X0157564Y0040439D01*
X0156096Y0040439D02*
X0156096Y0038604D01*
X0156463Y0038237D01*
X0157197Y0038237D01*
X0157564Y0038604D01*
X0155354Y0038237D02*
X0153886Y0038237D01*
X0153886Y0040439D01*
X0153144Y0039705D02*
X0153144Y0038237D01*
X0153144Y0039338D02*
X0151676Y0039338D01*
X0151676Y0039705D02*
X0151676Y0038237D01*
X0150934Y0038971D02*
X0150934Y0040439D01*
X0151676Y0039705D02*
X0152410Y0040439D01*
X0153144Y0039705D01*
X0150934Y0038971D02*
X0150200Y0038237D01*
X0149466Y0038971D01*
X0149466Y0040439D01*
X0148724Y0039338D02*
X0147257Y0038237D01*
X0148724Y0039338D02*
X0147257Y0040439D01*
X0148362Y0035439D02*
X0149829Y0034338D01*
X0148362Y0033237D01*
X0150571Y0033237D02*
X0150571Y0035439D01*
X0152039Y0033237D01*
X0152039Y0035439D01*
X0152781Y0034705D02*
X0153515Y0035439D01*
X0154249Y0034705D01*
X0154249Y0033237D01*
X0154991Y0033237D02*
X0154991Y0035439D01*
X0155725Y0034705D01*
X0156459Y0035439D01*
X0156459Y0033237D01*
X0157201Y0033237D02*
X0158669Y0033237D01*
X0157935Y0034338D02*
X0157201Y0034338D01*
X0157201Y0035439D02*
X0157201Y0033237D01*
X0157201Y0035439D02*
X0158669Y0035439D01*
X0154249Y0034338D02*
X0152781Y0034338D01*
X0152781Y0034705D02*
X0152781Y0033237D01*
X0190238Y0031139D02*
X0191706Y0030038D01*
X0190238Y0028937D01*
X0192448Y0029671D02*
X0192448Y0031139D01*
X0193916Y0031139D02*
X0193916Y0029671D01*
X0193182Y0028937D01*
X0192448Y0029671D01*
X0194658Y0030038D02*
X0196126Y0030038D01*
X0196126Y0030405D02*
X0196126Y0028937D01*
X0196868Y0028937D02*
X0196868Y0031139D01*
X0196126Y0030405D02*
X0195392Y0031139D01*
X0194658Y0030405D01*
X0194658Y0028937D01*
X0196868Y0028937D02*
X0198335Y0028937D01*
X0199077Y0029304D02*
X0199444Y0028937D01*
X0200178Y0028937D01*
X0200545Y0029304D01*
X0200545Y0031139D01*
X0201287Y0031139D02*
X0201287Y0028937D01*
X0202755Y0028937D01*
X0202021Y0030038D02*
X0201287Y0030038D01*
X0201287Y0031139D02*
X0202755Y0031139D01*
X0199077Y0031139D02*
X0199077Y0029304D01*
X0216275Y0025639D02*
X0217743Y0024538D01*
X0216275Y0023437D01*
X0218485Y0024171D02*
X0218485Y0025639D01*
X0219953Y0025639D02*
X0219953Y0024171D01*
X0219219Y0023437D01*
X0218485Y0024171D01*
X0220695Y0024538D02*
X0222163Y0024538D01*
X0222163Y0024905D02*
X0222163Y0023437D01*
X0222905Y0023437D02*
X0222905Y0025639D01*
X0222163Y0024905D02*
X0221429Y0025639D01*
X0220695Y0024905D01*
X0220695Y0023437D01*
X0222905Y0023437D02*
X0224373Y0023437D01*
X0225115Y0023804D02*
X0225482Y0023437D01*
X0226216Y0023437D01*
X0226583Y0023804D01*
X0226583Y0025639D01*
X0227325Y0025639D02*
X0227325Y0023437D01*
X0228793Y0023437D01*
X0228059Y0024538D02*
X0227325Y0024538D01*
X0227325Y0025639D02*
X0228793Y0025639D01*
X0225115Y0025639D02*
X0225115Y0023804D01*
X0229775Y0080937D02*
X0231243Y0082038D01*
X0229775Y0083139D01*
X0231985Y0083139D02*
X0231985Y0080937D01*
X0233453Y0080937D02*
X0231985Y0083139D01*
X0233453Y0083139D02*
X0233453Y0080937D01*
X0234195Y0080937D02*
X0234195Y0082405D01*
X0234929Y0083139D01*
X0235663Y0082405D01*
X0235663Y0080937D01*
X0236405Y0080937D02*
X0236405Y0083139D01*
X0237139Y0082405D01*
X0237873Y0083139D01*
X0237873Y0080937D01*
X0238615Y0080937D02*
X0240083Y0080937D01*
X0239349Y0082038D02*
X0238615Y0082038D01*
X0238615Y0083139D02*
X0238615Y0080937D01*
X0238615Y0083139D02*
X0240083Y0083139D01*
X0235663Y0082038D02*
X0234195Y0082038D01*
X0217967Y0093801D02*
X0216866Y0095269D01*
X0215766Y0093801D01*
X0215766Y0096011D02*
X0217967Y0097479D01*
X0215766Y0097479D01*
X0216499Y0098221D02*
X0215766Y0098955D01*
X0216499Y0099689D01*
X0217967Y0099689D01*
X0217967Y0100431D02*
X0215766Y0100431D01*
X0216499Y0101165D01*
X0215766Y0101899D01*
X0217967Y0101899D01*
X0217967Y0102641D02*
X0217967Y0104109D01*
X0216866Y0103375D02*
X0216866Y0102641D01*
X0215766Y0102641D02*
X0217967Y0102641D01*
X0215766Y0102641D02*
X0215766Y0104109D01*
X0216866Y0099689D02*
X0216866Y0098221D01*
X0216499Y0098221D02*
X0217967Y0098221D01*
X0217967Y0096011D02*
X0215766Y0096011D01*
X0229775Y0105537D02*
X0231243Y0106638D01*
X0229775Y0107739D01*
X0231985Y0107739D02*
X0231985Y0106271D01*
X0232719Y0105537D01*
X0233453Y0106271D01*
X0233453Y0107739D01*
X0234195Y0107005D02*
X0234929Y0107739D01*
X0235663Y0107005D01*
X0235663Y0105537D01*
X0236405Y0105537D02*
X0237873Y0105537D01*
X0238615Y0105904D02*
X0238982Y0105537D01*
X0239716Y0105537D01*
X0240083Y0105904D01*
X0240083Y0107739D01*
X0240825Y0107739D02*
X0240825Y0105537D01*
X0242293Y0105537D01*
X0242775Y0105639D02*
X0244243Y0104538D01*
X0242775Y0103437D01*
X0244985Y0103437D02*
X0244985Y0105639D01*
X0246453Y0103437D01*
X0246453Y0105639D01*
X0247195Y0104905D02*
X0247929Y0105639D01*
X0248663Y0104905D01*
X0248663Y0103437D01*
X0249405Y0103437D02*
X0249405Y0105639D01*
X0250139Y0104905D01*
X0250873Y0105639D01*
X0250873Y0103437D01*
X0251615Y0103437D02*
X0253083Y0103437D01*
X0252349Y0104538D02*
X0251615Y0104538D01*
X0251615Y0105639D02*
X0251615Y0103437D01*
X0251615Y0105639D02*
X0253083Y0105639D01*
X0248663Y0104538D02*
X0247195Y0104538D01*
X0247195Y0104905D02*
X0247195Y0103437D01*
X0236405Y0105537D02*
X0236405Y0107739D01*
X0235663Y0106638D02*
X0234195Y0106638D01*
X0234195Y0107005D02*
X0234195Y0105537D01*
X0238615Y0105904D02*
X0238615Y0107739D01*
X0240825Y0107739D02*
X0242293Y0107739D01*
X0241559Y0106638D02*
X0240825Y0106638D01*
X0217967Y0113801D02*
X0216866Y0115269D01*
X0215766Y0113801D01*
X0215766Y0116011D02*
X0217967Y0117479D01*
X0215766Y0117479D01*
X0216499Y0118221D02*
X0215766Y0118955D01*
X0216499Y0119689D01*
X0217967Y0119689D01*
X0217967Y0120431D02*
X0215766Y0120431D01*
X0216499Y0121165D01*
X0215766Y0121899D01*
X0217967Y0121899D01*
X0217967Y0122641D02*
X0217967Y0124109D01*
X0216866Y0123375D02*
X0216866Y0122641D01*
X0215766Y0122641D02*
X0217967Y0122641D01*
X0215766Y0122641D02*
X0215766Y0124109D01*
X0216866Y0119689D02*
X0216866Y0118221D01*
X0216499Y0118221D02*
X0217967Y0118221D01*
X0217967Y0116011D02*
X0215766Y0116011D01*
X0194255Y0123037D02*
X0192787Y0123037D01*
X0192787Y0125239D01*
X0194255Y0125239D01*
X0193521Y0124138D02*
X0192787Y0124138D01*
X0192045Y0123404D02*
X0192045Y0125239D01*
X0190577Y0125239D02*
X0190577Y0123404D01*
X0190944Y0123037D01*
X0191678Y0123037D01*
X0192045Y0123404D01*
X0189835Y0123037D02*
X0188368Y0123037D01*
X0188368Y0125239D01*
X0187626Y0124505D02*
X0187626Y0123037D01*
X0187626Y0124138D02*
X0186158Y0124138D01*
X0186158Y0124505D02*
X0186892Y0125239D01*
X0187626Y0124505D01*
X0186158Y0124505D02*
X0186158Y0123037D01*
X0185416Y0123771D02*
X0185416Y0125239D01*
X0185416Y0123771D02*
X0184682Y0123037D01*
X0183948Y0123771D01*
X0183948Y0125239D01*
X0183206Y0124138D02*
X0181738Y0123037D01*
X0183206Y0124138D02*
X0181738Y0125239D01*
X0215766Y0133801D02*
X0216866Y0135269D01*
X0217967Y0133801D01*
X0217967Y0136011D02*
X0215766Y0136011D01*
X0217967Y0137479D01*
X0215766Y0137479D01*
X0216499Y0138221D02*
X0215766Y0138955D01*
X0216499Y0139689D01*
X0217967Y0139689D01*
X0217967Y0140431D02*
X0215766Y0140431D01*
X0216499Y0141165D01*
X0215766Y0141899D01*
X0217967Y0141899D01*
X0217967Y0142641D02*
X0217967Y0144109D01*
X0216866Y0143375D02*
X0216866Y0142641D01*
X0215766Y0142641D02*
X0217967Y0142641D01*
X0215766Y0142641D02*
X0215766Y0144109D01*
X0216866Y0139689D02*
X0216866Y0138221D01*
X0216499Y0138221D02*
X0217967Y0138221D01*
X0217967Y0153801D02*
X0216866Y0155269D01*
X0215766Y0153801D01*
X0215766Y0156011D02*
X0217967Y0157479D01*
X0215766Y0157479D01*
X0216499Y0158221D02*
X0215766Y0158955D01*
X0216499Y0159689D01*
X0217967Y0159689D01*
X0217967Y0160431D02*
X0215766Y0160431D01*
X0216499Y0161165D01*
X0215766Y0161899D01*
X0217967Y0161899D01*
X0217967Y0162641D02*
X0217967Y0164109D01*
X0216866Y0163375D02*
X0216866Y0162641D01*
X0215766Y0162641D02*
X0217967Y0162641D01*
X0215766Y0162641D02*
X0215766Y0164109D01*
X0216866Y0159689D02*
X0216866Y0158221D01*
X0216499Y0158221D02*
X0217967Y0158221D01*
X0217967Y0156011D02*
X0215766Y0156011D01*
D11*
X0192897Y0114337D02*
X0192899Y0114491D01*
X0192905Y0114646D01*
X0192915Y0114800D01*
X0192929Y0114954D01*
X0192947Y0115107D01*
X0192968Y0115260D01*
X0192994Y0115413D01*
X0193024Y0115564D01*
X0193057Y0115715D01*
X0193095Y0115865D01*
X0193136Y0116014D01*
X0193181Y0116162D01*
X0193230Y0116308D01*
X0193283Y0116454D01*
X0193339Y0116597D01*
X0193399Y0116740D01*
X0193463Y0116880D01*
X0193530Y0117020D01*
X0193601Y0117157D01*
X0193675Y0117292D01*
X0193753Y0117426D01*
X0193834Y0117557D01*
X0193919Y0117686D01*
X0194007Y0117814D01*
X0194098Y0117938D01*
X0194192Y0118061D01*
X0194290Y0118181D01*
X0194390Y0118298D01*
X0194494Y0118413D01*
X0194600Y0118525D01*
X0194709Y0118634D01*
X0194821Y0118740D01*
X0194936Y0118844D01*
X0195053Y0118944D01*
X0195173Y0119042D01*
X0195296Y0119136D01*
X0195420Y0119227D01*
X0195548Y0119315D01*
X0195677Y0119400D01*
X0195808Y0119481D01*
X0195942Y0119559D01*
X0196077Y0119633D01*
X0196214Y0119704D01*
X0196354Y0119771D01*
X0196494Y0119835D01*
X0196637Y0119895D01*
X0196780Y0119951D01*
X0196926Y0120004D01*
X0197072Y0120053D01*
X0197220Y0120098D01*
X0197369Y0120139D01*
X0197519Y0120177D01*
X0197670Y0120210D01*
X0197821Y0120240D01*
X0197974Y0120266D01*
X0198127Y0120287D01*
X0198280Y0120305D01*
X0198434Y0120319D01*
X0198588Y0120329D01*
X0198743Y0120335D01*
X0198897Y0120337D01*
X0199051Y0120335D01*
X0199206Y0120329D01*
X0199360Y0120319D01*
X0199514Y0120305D01*
X0199667Y0120287D01*
X0199820Y0120266D01*
X0199973Y0120240D01*
X0200124Y0120210D01*
X0200275Y0120177D01*
X0200425Y0120139D01*
X0200574Y0120098D01*
X0200722Y0120053D01*
X0200868Y0120004D01*
X0201014Y0119951D01*
X0201157Y0119895D01*
X0201300Y0119835D01*
X0201440Y0119771D01*
X0201580Y0119704D01*
X0201717Y0119633D01*
X0201852Y0119559D01*
X0201986Y0119481D01*
X0202117Y0119400D01*
X0202246Y0119315D01*
X0202374Y0119227D01*
X0202498Y0119136D01*
X0202621Y0119042D01*
X0202741Y0118944D01*
X0202858Y0118844D01*
X0202973Y0118740D01*
X0203085Y0118634D01*
X0203194Y0118525D01*
X0203300Y0118413D01*
X0203404Y0118298D01*
X0203504Y0118181D01*
X0203602Y0118061D01*
X0203696Y0117938D01*
X0203787Y0117814D01*
X0203875Y0117686D01*
X0203960Y0117557D01*
X0204041Y0117426D01*
X0204119Y0117292D01*
X0204193Y0117157D01*
X0204264Y0117020D01*
X0204331Y0116880D01*
X0204395Y0116740D01*
X0204455Y0116597D01*
X0204511Y0116454D01*
X0204564Y0116308D01*
X0204613Y0116162D01*
X0204658Y0116014D01*
X0204699Y0115865D01*
X0204737Y0115715D01*
X0204770Y0115564D01*
X0204800Y0115413D01*
X0204826Y0115260D01*
X0204847Y0115107D01*
X0204865Y0114954D01*
X0204879Y0114800D01*
X0204889Y0114646D01*
X0204895Y0114491D01*
X0204897Y0114337D01*
X0204895Y0114183D01*
X0204889Y0114028D01*
X0204879Y0113874D01*
X0204865Y0113720D01*
X0204847Y0113567D01*
X0204826Y0113414D01*
X0204800Y0113261D01*
X0204770Y0113110D01*
X0204737Y0112959D01*
X0204699Y0112809D01*
X0204658Y0112660D01*
X0204613Y0112512D01*
X0204564Y0112366D01*
X0204511Y0112220D01*
X0204455Y0112077D01*
X0204395Y0111934D01*
X0204331Y0111794D01*
X0204264Y0111654D01*
X0204193Y0111517D01*
X0204119Y0111382D01*
X0204041Y0111248D01*
X0203960Y0111117D01*
X0203875Y0110988D01*
X0203787Y0110860D01*
X0203696Y0110736D01*
X0203602Y0110613D01*
X0203504Y0110493D01*
X0203404Y0110376D01*
X0203300Y0110261D01*
X0203194Y0110149D01*
X0203085Y0110040D01*
X0202973Y0109934D01*
X0202858Y0109830D01*
X0202741Y0109730D01*
X0202621Y0109632D01*
X0202498Y0109538D01*
X0202374Y0109447D01*
X0202246Y0109359D01*
X0202117Y0109274D01*
X0201986Y0109193D01*
X0201852Y0109115D01*
X0201717Y0109041D01*
X0201580Y0108970D01*
X0201440Y0108903D01*
X0201300Y0108839D01*
X0201157Y0108779D01*
X0201014Y0108723D01*
X0200868Y0108670D01*
X0200722Y0108621D01*
X0200574Y0108576D01*
X0200425Y0108535D01*
X0200275Y0108497D01*
X0200124Y0108464D01*
X0199973Y0108434D01*
X0199820Y0108408D01*
X0199667Y0108387D01*
X0199514Y0108369D01*
X0199360Y0108355D01*
X0199206Y0108345D01*
X0199051Y0108339D01*
X0198897Y0108337D01*
X0198743Y0108339D01*
X0198588Y0108345D01*
X0198434Y0108355D01*
X0198280Y0108369D01*
X0198127Y0108387D01*
X0197974Y0108408D01*
X0197821Y0108434D01*
X0197670Y0108464D01*
X0197519Y0108497D01*
X0197369Y0108535D01*
X0197220Y0108576D01*
X0197072Y0108621D01*
X0196926Y0108670D01*
X0196780Y0108723D01*
X0196637Y0108779D01*
X0196494Y0108839D01*
X0196354Y0108903D01*
X0196214Y0108970D01*
X0196077Y0109041D01*
X0195942Y0109115D01*
X0195808Y0109193D01*
X0195677Y0109274D01*
X0195548Y0109359D01*
X0195420Y0109447D01*
X0195296Y0109538D01*
X0195173Y0109632D01*
X0195053Y0109730D01*
X0194936Y0109830D01*
X0194821Y0109934D01*
X0194709Y0110040D01*
X0194600Y0110149D01*
X0194494Y0110261D01*
X0194390Y0110376D01*
X0194290Y0110493D01*
X0194192Y0110613D01*
X0194098Y0110736D01*
X0194007Y0110860D01*
X0193919Y0110988D01*
X0193834Y0111117D01*
X0193753Y0111248D01*
X0193675Y0111382D01*
X0193601Y0111517D01*
X0193530Y0111654D01*
X0193463Y0111794D01*
X0193399Y0111934D01*
X0193339Y0112077D01*
X0193283Y0112220D01*
X0193230Y0112366D01*
X0193181Y0112512D01*
X0193136Y0112660D01*
X0193095Y0112809D01*
X0193057Y0112959D01*
X0193024Y0113110D01*
X0192994Y0113261D01*
X0192968Y0113414D01*
X0192947Y0113567D01*
X0192929Y0113720D01*
X0192915Y0113874D01*
X0192905Y0114028D01*
X0192899Y0114183D01*
X0192897Y0114337D01*
X0115897Y0114337D02*
X0115897Y0094337D01*
X0115895Y0094168D01*
X0115889Y0093999D01*
X0115879Y0093830D01*
X0115864Y0093661D01*
X0115846Y0093493D01*
X0115824Y0093326D01*
X0115797Y0093159D01*
X0115767Y0092992D01*
X0115732Y0092827D01*
X0115694Y0092662D01*
X0115651Y0092498D01*
X0115605Y0092335D01*
X0115554Y0092174D01*
X0115500Y0092014D01*
X0115442Y0091855D01*
X0115380Y0091697D01*
X0115315Y0091541D01*
X0115245Y0091387D01*
X0115172Y0091235D01*
X0115095Y0091084D01*
X0115015Y0090935D01*
X0114931Y0090788D01*
X0114843Y0090644D01*
X0114752Y0090501D01*
X0114658Y0090361D01*
X0114560Y0090223D01*
X0114459Y0090087D01*
X0114355Y0089954D01*
X0114247Y0089823D01*
X0114137Y0089695D01*
X0114023Y0089570D01*
X0113906Y0089447D01*
X0113787Y0089328D01*
X0113664Y0089211D01*
X0113539Y0089097D01*
X0113411Y0088987D01*
X0113280Y0088879D01*
X0113147Y0088775D01*
X0113011Y0088674D01*
X0112873Y0088576D01*
X0112733Y0088482D01*
X0112590Y0088391D01*
X0112446Y0088303D01*
X0112299Y0088219D01*
X0112150Y0088139D01*
X0111999Y0088062D01*
X0111847Y0087989D01*
X0111693Y0087919D01*
X0111537Y0087854D01*
X0111379Y0087792D01*
X0111220Y0087734D01*
X0111060Y0087680D01*
X0110899Y0087629D01*
X0110736Y0087583D01*
X0110572Y0087540D01*
X0110407Y0087502D01*
X0110242Y0087467D01*
X0110075Y0087437D01*
X0109908Y0087410D01*
X0109741Y0087388D01*
X0109573Y0087370D01*
X0109404Y0087355D01*
X0109235Y0087345D01*
X0109066Y0087339D01*
X0108897Y0087337D01*
X0108728Y0087339D01*
X0108559Y0087345D01*
X0108390Y0087355D01*
X0108221Y0087370D01*
X0108053Y0087388D01*
X0107886Y0087410D01*
X0107719Y0087437D01*
X0107552Y0087467D01*
X0107387Y0087502D01*
X0107222Y0087540D01*
X0107058Y0087583D01*
X0106895Y0087629D01*
X0106734Y0087680D01*
X0106574Y0087734D01*
X0106415Y0087792D01*
X0106257Y0087854D01*
X0106101Y0087919D01*
X0105947Y0087989D01*
X0105795Y0088062D01*
X0105644Y0088139D01*
X0105495Y0088219D01*
X0105348Y0088303D01*
X0105204Y0088391D01*
X0105061Y0088482D01*
X0104921Y0088576D01*
X0104783Y0088674D01*
X0104647Y0088775D01*
X0104514Y0088879D01*
X0104383Y0088987D01*
X0104255Y0089097D01*
X0104130Y0089211D01*
X0104007Y0089328D01*
X0103888Y0089447D01*
X0103771Y0089570D01*
X0103657Y0089695D01*
X0103547Y0089823D01*
X0103439Y0089954D01*
X0103335Y0090087D01*
X0103234Y0090223D01*
X0103136Y0090361D01*
X0103042Y0090501D01*
X0102951Y0090644D01*
X0102863Y0090788D01*
X0102779Y0090935D01*
X0102699Y0091084D01*
X0102622Y0091235D01*
X0102549Y0091387D01*
X0102479Y0091541D01*
X0102414Y0091697D01*
X0102352Y0091855D01*
X0102294Y0092014D01*
X0102240Y0092174D01*
X0102189Y0092335D01*
X0102143Y0092498D01*
X0102100Y0092662D01*
X0102062Y0092827D01*
X0102027Y0092992D01*
X0101997Y0093159D01*
X0101970Y0093326D01*
X0101948Y0093493D01*
X0101930Y0093661D01*
X0101915Y0093830D01*
X0101905Y0093999D01*
X0101899Y0094168D01*
X0101897Y0094337D01*
X0101897Y0114337D01*
X0101899Y0114506D01*
X0101905Y0114675D01*
X0101915Y0114844D01*
X0101930Y0115013D01*
X0101948Y0115181D01*
X0101970Y0115348D01*
X0101997Y0115515D01*
X0102027Y0115682D01*
X0102062Y0115847D01*
X0102100Y0116012D01*
X0102143Y0116176D01*
X0102189Y0116339D01*
X0102240Y0116500D01*
X0102294Y0116660D01*
X0102352Y0116819D01*
X0102414Y0116977D01*
X0102479Y0117133D01*
X0102549Y0117287D01*
X0102622Y0117439D01*
X0102699Y0117590D01*
X0102779Y0117739D01*
X0102863Y0117886D01*
X0102951Y0118030D01*
X0103042Y0118173D01*
X0103136Y0118313D01*
X0103234Y0118451D01*
X0103335Y0118587D01*
X0103439Y0118720D01*
X0103547Y0118851D01*
X0103657Y0118979D01*
X0103771Y0119104D01*
X0103888Y0119227D01*
X0104007Y0119346D01*
X0104130Y0119463D01*
X0104255Y0119577D01*
X0104383Y0119687D01*
X0104514Y0119795D01*
X0104647Y0119899D01*
X0104783Y0120000D01*
X0104921Y0120098D01*
X0105061Y0120192D01*
X0105204Y0120283D01*
X0105348Y0120371D01*
X0105495Y0120455D01*
X0105644Y0120535D01*
X0105795Y0120612D01*
X0105947Y0120685D01*
X0106101Y0120755D01*
X0106257Y0120820D01*
X0106415Y0120882D01*
X0106574Y0120940D01*
X0106734Y0120994D01*
X0106895Y0121045D01*
X0107058Y0121091D01*
X0107222Y0121134D01*
X0107387Y0121172D01*
X0107552Y0121207D01*
X0107719Y0121237D01*
X0107886Y0121264D01*
X0108053Y0121286D01*
X0108221Y0121304D01*
X0108390Y0121319D01*
X0108559Y0121329D01*
X0108728Y0121335D01*
X0108897Y0121337D01*
X0109066Y0121335D01*
X0109235Y0121329D01*
X0109404Y0121319D01*
X0109573Y0121304D01*
X0109741Y0121286D01*
X0109908Y0121264D01*
X0110075Y0121237D01*
X0110242Y0121207D01*
X0110407Y0121172D01*
X0110572Y0121134D01*
X0110736Y0121091D01*
X0110899Y0121045D01*
X0111060Y0120994D01*
X0111220Y0120940D01*
X0111379Y0120882D01*
X0111537Y0120820D01*
X0111693Y0120755D01*
X0111847Y0120685D01*
X0111999Y0120612D01*
X0112150Y0120535D01*
X0112299Y0120455D01*
X0112446Y0120371D01*
X0112590Y0120283D01*
X0112733Y0120192D01*
X0112873Y0120098D01*
X0113011Y0120000D01*
X0113147Y0119899D01*
X0113280Y0119795D01*
X0113411Y0119687D01*
X0113539Y0119577D01*
X0113664Y0119463D01*
X0113787Y0119346D01*
X0113906Y0119227D01*
X0114023Y0119104D01*
X0114137Y0118979D01*
X0114247Y0118851D01*
X0114355Y0118720D01*
X0114459Y0118587D01*
X0114560Y0118451D01*
X0114658Y0118313D01*
X0114752Y0118173D01*
X0114843Y0118030D01*
X0114931Y0117886D01*
X0115015Y0117739D01*
X0115095Y0117590D01*
X0115172Y0117439D01*
X0115245Y0117287D01*
X0115315Y0117133D01*
X0115380Y0116977D01*
X0115442Y0116819D01*
X0115500Y0116660D01*
X0115554Y0116500D01*
X0115605Y0116339D01*
X0115651Y0116176D01*
X0115694Y0116012D01*
X0115732Y0115847D01*
X0115767Y0115682D01*
X0115797Y0115515D01*
X0115824Y0115348D01*
X0115846Y0115181D01*
X0115864Y0115013D01*
X0115879Y0114844D01*
X0115889Y0114675D01*
X0115895Y0114506D01*
X0115897Y0114337D01*
X0088897Y0124337D02*
X0088897Y0129337D01*
X0088897Y0124337D02*
X0083897Y0124337D01*
X0088897Y0119337D02*
X0088895Y0119197D01*
X0088889Y0119057D01*
X0088879Y0118917D01*
X0088866Y0118777D01*
X0088848Y0118638D01*
X0088826Y0118499D01*
X0088801Y0118362D01*
X0088772Y0118224D01*
X0088739Y0118088D01*
X0088702Y0117953D01*
X0088661Y0117819D01*
X0088616Y0117686D01*
X0088568Y0117554D01*
X0088516Y0117424D01*
X0088461Y0117295D01*
X0088402Y0117168D01*
X0088339Y0117042D01*
X0088273Y0116918D01*
X0088204Y0116797D01*
X0088131Y0116677D01*
X0088054Y0116559D01*
X0087975Y0116444D01*
X0087892Y0116330D01*
X0087806Y0116220D01*
X0087717Y0116111D01*
X0087625Y0116005D01*
X0087530Y0115902D01*
X0087433Y0115801D01*
X0087332Y0115704D01*
X0087229Y0115609D01*
X0087123Y0115517D01*
X0087014Y0115428D01*
X0086904Y0115342D01*
X0086790Y0115259D01*
X0086675Y0115180D01*
X0086557Y0115103D01*
X0086437Y0115030D01*
X0086316Y0114961D01*
X0086192Y0114895D01*
X0086066Y0114832D01*
X0085939Y0114773D01*
X0085810Y0114718D01*
X0085680Y0114666D01*
X0085548Y0114618D01*
X0085415Y0114573D01*
X0085281Y0114532D01*
X0085146Y0114495D01*
X0085010Y0114462D01*
X0084872Y0114433D01*
X0084735Y0114408D01*
X0084596Y0114386D01*
X0084457Y0114368D01*
X0084317Y0114355D01*
X0084177Y0114345D01*
X0084037Y0114339D01*
X0083897Y0114337D01*
X0083757Y0114339D01*
X0083617Y0114345D01*
X0083477Y0114355D01*
X0083337Y0114368D01*
X0083198Y0114386D01*
X0083059Y0114408D01*
X0082922Y0114433D01*
X0082784Y0114462D01*
X0082648Y0114495D01*
X0082513Y0114532D01*
X0082379Y0114573D01*
X0082246Y0114618D01*
X0082114Y0114666D01*
X0081984Y0114718D01*
X0081855Y0114773D01*
X0081728Y0114832D01*
X0081602Y0114895D01*
X0081478Y0114961D01*
X0081357Y0115030D01*
X0081237Y0115103D01*
X0081119Y0115180D01*
X0081004Y0115259D01*
X0080890Y0115342D01*
X0080780Y0115428D01*
X0080671Y0115517D01*
X0080565Y0115609D01*
X0080462Y0115704D01*
X0080361Y0115801D01*
X0080264Y0115902D01*
X0080169Y0116005D01*
X0080077Y0116111D01*
X0079988Y0116220D01*
X0079902Y0116330D01*
X0079819Y0116444D01*
X0079740Y0116559D01*
X0079663Y0116677D01*
X0079590Y0116797D01*
X0079521Y0116918D01*
X0079455Y0117042D01*
X0079392Y0117168D01*
X0079333Y0117295D01*
X0079278Y0117424D01*
X0079226Y0117554D01*
X0079178Y0117686D01*
X0079133Y0117819D01*
X0079092Y0117953D01*
X0079055Y0118088D01*
X0079022Y0118224D01*
X0078993Y0118362D01*
X0078968Y0118499D01*
X0078946Y0118638D01*
X0078928Y0118777D01*
X0078915Y0118917D01*
X0078905Y0119057D01*
X0078899Y0119197D01*
X0078897Y0119337D01*
X0077897Y0114337D02*
X0077757Y0114339D01*
X0077617Y0114345D01*
X0077477Y0114355D01*
X0077337Y0114368D01*
X0077198Y0114386D01*
X0077059Y0114408D01*
X0076922Y0114433D01*
X0076784Y0114462D01*
X0076648Y0114495D01*
X0076513Y0114532D01*
X0076379Y0114573D01*
X0076246Y0114618D01*
X0076114Y0114666D01*
X0075984Y0114718D01*
X0075855Y0114773D01*
X0075728Y0114832D01*
X0075602Y0114895D01*
X0075478Y0114961D01*
X0075357Y0115030D01*
X0075237Y0115103D01*
X0075119Y0115180D01*
X0075004Y0115259D01*
X0074890Y0115342D01*
X0074780Y0115428D01*
X0074671Y0115517D01*
X0074565Y0115609D01*
X0074462Y0115704D01*
X0074361Y0115801D01*
X0074264Y0115902D01*
X0074169Y0116005D01*
X0074077Y0116111D01*
X0073988Y0116220D01*
X0073902Y0116330D01*
X0073819Y0116444D01*
X0073740Y0116559D01*
X0073663Y0116677D01*
X0073590Y0116797D01*
X0073521Y0116918D01*
X0073455Y0117042D01*
X0073392Y0117168D01*
X0073333Y0117295D01*
X0073278Y0117424D01*
X0073226Y0117554D01*
X0073178Y0117686D01*
X0073133Y0117819D01*
X0073092Y0117953D01*
X0073055Y0118088D01*
X0073022Y0118224D01*
X0072993Y0118362D01*
X0072968Y0118499D01*
X0072946Y0118638D01*
X0072928Y0118777D01*
X0072915Y0118917D01*
X0072905Y0119057D01*
X0072899Y0119197D01*
X0072897Y0119337D01*
X0069897Y0119337D02*
X0069899Y0119197D01*
X0069905Y0119057D01*
X0069915Y0118917D01*
X0069928Y0118777D01*
X0069946Y0118638D01*
X0069968Y0118499D01*
X0069993Y0118362D01*
X0070022Y0118224D01*
X0070055Y0118088D01*
X0070092Y0117953D01*
X0070133Y0117819D01*
X0070178Y0117686D01*
X0070226Y0117554D01*
X0070278Y0117424D01*
X0070333Y0117295D01*
X0070392Y0117168D01*
X0070455Y0117042D01*
X0070521Y0116918D01*
X0070590Y0116797D01*
X0070663Y0116677D01*
X0070740Y0116559D01*
X0070819Y0116444D01*
X0070902Y0116330D01*
X0070988Y0116220D01*
X0071077Y0116111D01*
X0071169Y0116005D01*
X0071264Y0115902D01*
X0071361Y0115801D01*
X0071462Y0115704D01*
X0071565Y0115609D01*
X0071671Y0115517D01*
X0071780Y0115428D01*
X0071890Y0115342D01*
X0072004Y0115259D01*
X0072119Y0115180D01*
X0072237Y0115103D01*
X0072357Y0115030D01*
X0072478Y0114961D01*
X0072602Y0114895D01*
X0072728Y0114832D01*
X0072855Y0114773D01*
X0072984Y0114718D01*
X0073114Y0114666D01*
X0073246Y0114618D01*
X0073379Y0114573D01*
X0073513Y0114532D01*
X0073648Y0114495D01*
X0073784Y0114462D01*
X0073922Y0114433D01*
X0074059Y0114408D01*
X0074198Y0114386D01*
X0074337Y0114368D01*
X0074477Y0114355D01*
X0074617Y0114345D01*
X0074757Y0114339D01*
X0074897Y0114337D01*
X0068897Y0114337D01*
X0068897Y0109337D01*
X0069897Y0119337D02*
X0069899Y0119477D01*
X0069905Y0119617D01*
X0069915Y0119757D01*
X0069928Y0119897D01*
X0069946Y0120036D01*
X0069968Y0120175D01*
X0069993Y0120312D01*
X0070022Y0120450D01*
X0070055Y0120586D01*
X0070092Y0120721D01*
X0070133Y0120855D01*
X0070178Y0120988D01*
X0070226Y0121120D01*
X0070278Y0121250D01*
X0070333Y0121379D01*
X0070392Y0121506D01*
X0070455Y0121632D01*
X0070521Y0121756D01*
X0070590Y0121877D01*
X0070663Y0121997D01*
X0070740Y0122115D01*
X0070819Y0122230D01*
X0070902Y0122344D01*
X0070988Y0122454D01*
X0071077Y0122563D01*
X0071169Y0122669D01*
X0071264Y0122772D01*
X0071361Y0122873D01*
X0071462Y0122970D01*
X0071565Y0123065D01*
X0071671Y0123157D01*
X0071780Y0123246D01*
X0071890Y0123332D01*
X0072004Y0123415D01*
X0072119Y0123494D01*
X0072237Y0123571D01*
X0072357Y0123644D01*
X0072478Y0123713D01*
X0072602Y0123779D01*
X0072728Y0123842D01*
X0072855Y0123901D01*
X0072984Y0123956D01*
X0073114Y0124008D01*
X0073246Y0124056D01*
X0073379Y0124101D01*
X0073513Y0124142D01*
X0073648Y0124179D01*
X0073784Y0124212D01*
X0073922Y0124241D01*
X0074059Y0124266D01*
X0074198Y0124288D01*
X0074337Y0124306D01*
X0074477Y0124319D01*
X0074617Y0124329D01*
X0074757Y0124335D01*
X0074897Y0124337D01*
X0077897Y0124337D02*
X0077757Y0124335D01*
X0077617Y0124329D01*
X0077477Y0124319D01*
X0077337Y0124306D01*
X0077198Y0124288D01*
X0077059Y0124266D01*
X0076922Y0124241D01*
X0076784Y0124212D01*
X0076648Y0124179D01*
X0076513Y0124142D01*
X0076379Y0124101D01*
X0076246Y0124056D01*
X0076114Y0124008D01*
X0075984Y0123956D01*
X0075855Y0123901D01*
X0075728Y0123842D01*
X0075602Y0123779D01*
X0075478Y0123713D01*
X0075357Y0123644D01*
X0075237Y0123571D01*
X0075119Y0123494D01*
X0075004Y0123415D01*
X0074890Y0123332D01*
X0074780Y0123246D01*
X0074671Y0123157D01*
X0074565Y0123065D01*
X0074462Y0122970D01*
X0074361Y0122873D01*
X0074264Y0122772D01*
X0074169Y0122669D01*
X0074077Y0122563D01*
X0073988Y0122454D01*
X0073902Y0122344D01*
X0073819Y0122230D01*
X0073740Y0122115D01*
X0073663Y0121997D01*
X0073590Y0121877D01*
X0073521Y0121756D01*
X0073455Y0121632D01*
X0073392Y0121506D01*
X0073333Y0121379D01*
X0073278Y0121250D01*
X0073226Y0121120D01*
X0073178Y0120988D01*
X0073133Y0120855D01*
X0073092Y0120721D01*
X0073055Y0120586D01*
X0073022Y0120450D01*
X0072993Y0120312D01*
X0072968Y0120175D01*
X0072946Y0120036D01*
X0072928Y0119897D01*
X0072915Y0119757D01*
X0072905Y0119617D01*
X0072899Y0119477D01*
X0072897Y0119337D01*
X0075897Y0119337D02*
X0075899Y0119197D01*
X0075905Y0119057D01*
X0075915Y0118917D01*
X0075928Y0118777D01*
X0075946Y0118638D01*
X0075968Y0118499D01*
X0075993Y0118362D01*
X0076022Y0118224D01*
X0076055Y0118088D01*
X0076092Y0117953D01*
X0076133Y0117819D01*
X0076178Y0117686D01*
X0076226Y0117554D01*
X0076278Y0117424D01*
X0076333Y0117295D01*
X0076392Y0117168D01*
X0076455Y0117042D01*
X0076521Y0116918D01*
X0076590Y0116797D01*
X0076663Y0116677D01*
X0076740Y0116559D01*
X0076819Y0116444D01*
X0076902Y0116330D01*
X0076988Y0116220D01*
X0077077Y0116111D01*
X0077169Y0116005D01*
X0077264Y0115902D01*
X0077361Y0115801D01*
X0077462Y0115704D01*
X0077565Y0115609D01*
X0077671Y0115517D01*
X0077780Y0115428D01*
X0077890Y0115342D01*
X0078004Y0115259D01*
X0078119Y0115180D01*
X0078237Y0115103D01*
X0078357Y0115030D01*
X0078478Y0114961D01*
X0078602Y0114895D01*
X0078728Y0114832D01*
X0078855Y0114773D01*
X0078984Y0114718D01*
X0079114Y0114666D01*
X0079246Y0114618D01*
X0079379Y0114573D01*
X0079513Y0114532D01*
X0079648Y0114495D01*
X0079784Y0114462D01*
X0079922Y0114433D01*
X0080059Y0114408D01*
X0080198Y0114386D01*
X0080337Y0114368D01*
X0080477Y0114355D01*
X0080617Y0114345D01*
X0080757Y0114339D01*
X0080897Y0114337D01*
X0075897Y0119337D02*
X0075899Y0119477D01*
X0075905Y0119617D01*
X0075915Y0119757D01*
X0075928Y0119897D01*
X0075946Y0120036D01*
X0075968Y0120175D01*
X0075993Y0120312D01*
X0076022Y0120450D01*
X0076055Y0120586D01*
X0076092Y0120721D01*
X0076133Y0120855D01*
X0076178Y0120988D01*
X0076226Y0121120D01*
X0076278Y0121250D01*
X0076333Y0121379D01*
X0076392Y0121506D01*
X0076455Y0121632D01*
X0076521Y0121756D01*
X0076590Y0121877D01*
X0076663Y0121997D01*
X0076740Y0122115D01*
X0076819Y0122230D01*
X0076902Y0122344D01*
X0076988Y0122454D01*
X0077077Y0122563D01*
X0077169Y0122669D01*
X0077264Y0122772D01*
X0077361Y0122873D01*
X0077462Y0122970D01*
X0077565Y0123065D01*
X0077671Y0123157D01*
X0077780Y0123246D01*
X0077890Y0123332D01*
X0078004Y0123415D01*
X0078119Y0123494D01*
X0078237Y0123571D01*
X0078357Y0123644D01*
X0078478Y0123713D01*
X0078602Y0123779D01*
X0078728Y0123842D01*
X0078855Y0123901D01*
X0078984Y0123956D01*
X0079114Y0124008D01*
X0079246Y0124056D01*
X0079379Y0124101D01*
X0079513Y0124142D01*
X0079648Y0124179D01*
X0079784Y0124212D01*
X0079922Y0124241D01*
X0080059Y0124266D01*
X0080198Y0124288D01*
X0080337Y0124306D01*
X0080477Y0124319D01*
X0080617Y0124329D01*
X0080757Y0124335D01*
X0080897Y0124337D01*
X0083897Y0124337D02*
X0083757Y0124335D01*
X0083617Y0124329D01*
X0083477Y0124319D01*
X0083337Y0124306D01*
X0083198Y0124288D01*
X0083059Y0124266D01*
X0082922Y0124241D01*
X0082784Y0124212D01*
X0082648Y0124179D01*
X0082513Y0124142D01*
X0082379Y0124101D01*
X0082246Y0124056D01*
X0082114Y0124008D01*
X0081984Y0123956D01*
X0081855Y0123901D01*
X0081728Y0123842D01*
X0081602Y0123779D01*
X0081478Y0123713D01*
X0081357Y0123644D01*
X0081237Y0123571D01*
X0081119Y0123494D01*
X0081004Y0123415D01*
X0080890Y0123332D01*
X0080780Y0123246D01*
X0080671Y0123157D01*
X0080565Y0123065D01*
X0080462Y0122970D01*
X0080361Y0122873D01*
X0080264Y0122772D01*
X0080169Y0122669D01*
X0080077Y0122563D01*
X0079988Y0122454D01*
X0079902Y0122344D01*
X0079819Y0122230D01*
X0079740Y0122115D01*
X0079663Y0121997D01*
X0079590Y0121877D01*
X0079521Y0121756D01*
X0079455Y0121632D01*
X0079392Y0121506D01*
X0079333Y0121379D01*
X0079278Y0121250D01*
X0079226Y0121120D01*
X0079178Y0120988D01*
X0079133Y0120855D01*
X0079092Y0120721D01*
X0079055Y0120586D01*
X0079022Y0120450D01*
X0078993Y0120312D01*
X0078968Y0120175D01*
X0078946Y0120036D01*
X0078928Y0119897D01*
X0078915Y0119757D01*
X0078905Y0119617D01*
X0078899Y0119477D01*
X0078897Y0119337D01*
X0091265Y0096020D02*
X0091422Y0095720D01*
X0091572Y0095418D01*
X0091714Y0095111D01*
X0091849Y0094801D01*
X0091977Y0094488D01*
X0092097Y0094173D01*
X0092209Y0093854D01*
X0092313Y0093533D01*
X0092410Y0093209D01*
X0092498Y0092883D01*
X0092579Y0092555D01*
X0092652Y0092225D01*
X0092717Y0091893D01*
X0092774Y0091560D01*
X0092823Y0091226D01*
X0092863Y0090890D01*
X0092896Y0090554D01*
X0092920Y0090217D01*
X0092937Y0089880D01*
X0092945Y0089542D01*
X0092945Y0089204D01*
X0092937Y0088866D01*
X0092920Y0088529D01*
X0092896Y0088192D01*
X0092863Y0087856D01*
X0092823Y0087520D01*
X0092774Y0087186D01*
X0092717Y0086853D01*
X0092652Y0086521D01*
X0092579Y0086191D01*
X0092498Y0085863D01*
X0092410Y0085537D01*
X0092313Y0085213D01*
X0092209Y0084892D01*
X0092097Y0084573D01*
X0091977Y0084258D01*
X0091849Y0083945D01*
X0091714Y0083635D01*
X0091572Y0083328D01*
X0091422Y0083026D01*
X0091265Y0082726D01*
X0085609Y0101676D02*
X0085309Y0101833D01*
X0085007Y0101983D01*
X0084700Y0102125D01*
X0084390Y0102260D01*
X0084077Y0102388D01*
X0083762Y0102508D01*
X0083443Y0102620D01*
X0083122Y0102724D01*
X0082798Y0102821D01*
X0082472Y0102909D01*
X0082144Y0102990D01*
X0081814Y0103063D01*
X0081482Y0103128D01*
X0081149Y0103185D01*
X0080815Y0103234D01*
X0080479Y0103274D01*
X0080143Y0103307D01*
X0079806Y0103331D01*
X0079469Y0103348D01*
X0079131Y0103356D01*
X0078793Y0103356D01*
X0078455Y0103348D01*
X0078118Y0103331D01*
X0077781Y0103307D01*
X0077445Y0103274D01*
X0077109Y0103234D01*
X0076775Y0103185D01*
X0076442Y0103128D01*
X0076110Y0103063D01*
X0075780Y0102990D01*
X0075452Y0102909D01*
X0075126Y0102821D01*
X0074802Y0102724D01*
X0074481Y0102620D01*
X0074162Y0102508D01*
X0073847Y0102388D01*
X0073534Y0102260D01*
X0073224Y0102125D01*
X0072917Y0101983D01*
X0072615Y0101833D01*
X0072315Y0101676D01*
X0066659Y0096020D02*
X0066500Y0095718D01*
X0066349Y0095412D01*
X0066206Y0095102D01*
X0066070Y0094789D01*
X0065941Y0094473D01*
X0065821Y0094154D01*
X0065708Y0093832D01*
X0065603Y0093508D01*
X0065506Y0093181D01*
X0065417Y0092851D01*
X0065337Y0092520D01*
X0065264Y0092187D01*
X0065199Y0091852D01*
X0065143Y0091515D01*
X0065095Y0091177D01*
X0065055Y0090839D01*
X0065023Y0090499D01*
X0065000Y0090159D01*
X0064985Y0089818D01*
X0064978Y0089477D01*
X0064980Y0089136D01*
X0064990Y0088795D01*
X0065008Y0088454D01*
X0065035Y0088114D01*
X0065070Y0087775D01*
X0065113Y0087436D01*
X0065164Y0087099D01*
X0065224Y0086763D01*
X0065291Y0086429D01*
X0065367Y0086096D01*
X0065451Y0085766D01*
X0065543Y0085437D01*
X0065643Y0085111D01*
X0065751Y0084787D01*
X0065867Y0084466D01*
X0065991Y0084149D01*
X0066122Y0083834D01*
X0066261Y0083522D01*
X0066407Y0083214D01*
X0066561Y0082910D01*
X0066723Y0082609D01*
X0066891Y0082313D01*
X0067067Y0082020D01*
X0067250Y0081732D01*
X0067440Y0081449D01*
X0067637Y0081170D01*
X0067840Y0080896D01*
X0068050Y0080628D01*
X0068267Y0080364D01*
X0068490Y0080106D01*
X0068719Y0079853D01*
X0068954Y0079606D01*
X0069195Y0079365D01*
X0069442Y0079130D01*
X0069695Y0078901D01*
X0069953Y0078678D01*
X0070217Y0078461D01*
X0070485Y0078251D01*
X0070759Y0078048D01*
X0071038Y0077851D01*
X0071321Y0077661D01*
X0071609Y0077478D01*
X0071902Y0077302D01*
X0072198Y0077134D01*
X0072499Y0076972D01*
X0072803Y0076818D01*
X0073111Y0076672D01*
X0073423Y0076533D01*
X0073738Y0076402D01*
X0074055Y0076278D01*
X0074376Y0076162D01*
X0074700Y0076054D01*
X0075026Y0075954D01*
X0075355Y0075862D01*
X0075685Y0075778D01*
X0076018Y0075702D01*
X0076352Y0075635D01*
X0076688Y0075575D01*
X0077025Y0075524D01*
X0077364Y0075481D01*
X0077703Y0075446D01*
X0078043Y0075419D01*
X0078384Y0075401D01*
X0078725Y0075391D01*
X0079066Y0075389D01*
X0079407Y0075396D01*
X0079748Y0075411D01*
X0080088Y0075434D01*
X0080428Y0075466D01*
X0080766Y0075506D01*
X0081104Y0075554D01*
X0081441Y0075610D01*
X0081776Y0075675D01*
X0082109Y0075748D01*
X0082440Y0075828D01*
X0082770Y0075917D01*
X0083097Y0076014D01*
X0083421Y0076119D01*
X0083743Y0076232D01*
X0084062Y0076352D01*
X0084378Y0076481D01*
X0084691Y0076617D01*
X0085001Y0076760D01*
X0085307Y0076911D01*
X0085609Y0077070D01*
X0067897Y0089337D02*
X0067900Y0089607D01*
X0067910Y0089877D01*
X0067927Y0090146D01*
X0067950Y0090415D01*
X0067980Y0090684D01*
X0068016Y0090951D01*
X0068059Y0091218D01*
X0068108Y0091483D01*
X0068164Y0091747D01*
X0068227Y0092010D01*
X0068295Y0092271D01*
X0068371Y0092530D01*
X0068452Y0092787D01*
X0068540Y0093043D01*
X0068634Y0093296D01*
X0068734Y0093547D01*
X0068841Y0093795D01*
X0068953Y0094040D01*
X0069072Y0094283D01*
X0069196Y0094522D01*
X0069326Y0094759D01*
X0069462Y0094992D01*
X0069604Y0095222D01*
X0069751Y0095448D01*
X0069904Y0095671D01*
X0070062Y0095890D01*
X0070225Y0096105D01*
X0070394Y0096315D01*
X0070568Y0096522D01*
X0070747Y0096724D01*
X0070930Y0096922D01*
X0071119Y0097115D01*
X0071312Y0097304D01*
X0071510Y0097487D01*
X0071712Y0097666D01*
X0071919Y0097840D01*
X0072129Y0098009D01*
X0072344Y0098172D01*
X0072563Y0098330D01*
X0072786Y0098483D01*
X0073012Y0098630D01*
X0073242Y0098772D01*
X0073475Y0098908D01*
X0073712Y0099038D01*
X0073951Y0099162D01*
X0074194Y0099281D01*
X0074439Y0099393D01*
X0074687Y0099500D01*
X0074938Y0099600D01*
X0075191Y0099694D01*
X0075447Y0099782D01*
X0075704Y0099863D01*
X0075963Y0099939D01*
X0076224Y0100007D01*
X0076487Y0100070D01*
X0076751Y0100126D01*
X0077016Y0100175D01*
X0077283Y0100218D01*
X0077550Y0100254D01*
X0077819Y0100284D01*
X0078088Y0100307D01*
X0078357Y0100324D01*
X0078627Y0100334D01*
X0078897Y0100337D01*
X0079167Y0100334D01*
X0079437Y0100324D01*
X0079706Y0100307D01*
X0079975Y0100284D01*
X0080244Y0100254D01*
X0080511Y0100218D01*
X0080778Y0100175D01*
X0081043Y0100126D01*
X0081307Y0100070D01*
X0081570Y0100007D01*
X0081831Y0099939D01*
X0082090Y0099863D01*
X0082347Y0099782D01*
X0082603Y0099694D01*
X0082856Y0099600D01*
X0083107Y0099500D01*
X0083355Y0099393D01*
X0083600Y0099281D01*
X0083843Y0099162D01*
X0084082Y0099038D01*
X0084319Y0098908D01*
X0084552Y0098772D01*
X0084782Y0098630D01*
X0085008Y0098483D01*
X0085231Y0098330D01*
X0085450Y0098172D01*
X0085665Y0098009D01*
X0085875Y0097840D01*
X0086082Y0097666D01*
X0086284Y0097487D01*
X0086482Y0097304D01*
X0086675Y0097115D01*
X0086864Y0096922D01*
X0087047Y0096724D01*
X0087226Y0096522D01*
X0087400Y0096315D01*
X0087569Y0096105D01*
X0087732Y0095890D01*
X0087890Y0095671D01*
X0088043Y0095448D01*
X0088190Y0095222D01*
X0088332Y0094992D01*
X0088468Y0094759D01*
X0088598Y0094522D01*
X0088722Y0094283D01*
X0088841Y0094040D01*
X0088953Y0093795D01*
X0089060Y0093547D01*
X0089160Y0093296D01*
X0089254Y0093043D01*
X0089342Y0092787D01*
X0089423Y0092530D01*
X0089499Y0092271D01*
X0089567Y0092010D01*
X0089630Y0091747D01*
X0089686Y0091483D01*
X0089735Y0091218D01*
X0089778Y0090951D01*
X0089814Y0090684D01*
X0089844Y0090415D01*
X0089867Y0090146D01*
X0089884Y0089877D01*
X0089894Y0089607D01*
X0089897Y0089337D01*
X0089894Y0089067D01*
X0089884Y0088797D01*
X0089867Y0088528D01*
X0089844Y0088259D01*
X0089814Y0087990D01*
X0089778Y0087723D01*
X0089735Y0087456D01*
X0089686Y0087191D01*
X0089630Y0086927D01*
X0089567Y0086664D01*
X0089499Y0086403D01*
X0089423Y0086144D01*
X0089342Y0085887D01*
X0089254Y0085631D01*
X0089160Y0085378D01*
X0089060Y0085127D01*
X0088953Y0084879D01*
X0088841Y0084634D01*
X0088722Y0084391D01*
X0088598Y0084152D01*
X0088468Y0083915D01*
X0088332Y0083682D01*
X0088190Y0083452D01*
X0088043Y0083226D01*
X0087890Y0083003D01*
X0087732Y0082784D01*
X0087569Y0082569D01*
X0087400Y0082359D01*
X0087226Y0082152D01*
X0087047Y0081950D01*
X0086864Y0081752D01*
X0086675Y0081559D01*
X0086482Y0081370D01*
X0086284Y0081187D01*
X0086082Y0081008D01*
X0085875Y0080834D01*
X0085665Y0080665D01*
X0085450Y0080502D01*
X0085231Y0080344D01*
X0085008Y0080191D01*
X0084782Y0080044D01*
X0084552Y0079902D01*
X0084319Y0079766D01*
X0084082Y0079636D01*
X0083843Y0079512D01*
X0083600Y0079393D01*
X0083355Y0079281D01*
X0083107Y0079174D01*
X0082856Y0079074D01*
X0082603Y0078980D01*
X0082347Y0078892D01*
X0082090Y0078811D01*
X0081831Y0078735D01*
X0081570Y0078667D01*
X0081307Y0078604D01*
X0081043Y0078548D01*
X0080778Y0078499D01*
X0080511Y0078456D01*
X0080244Y0078420D01*
X0079975Y0078390D01*
X0079706Y0078367D01*
X0079437Y0078350D01*
X0079167Y0078340D01*
X0078897Y0078337D01*
X0078627Y0078340D01*
X0078357Y0078350D01*
X0078088Y0078367D01*
X0077819Y0078390D01*
X0077550Y0078420D01*
X0077283Y0078456D01*
X0077016Y0078499D01*
X0076751Y0078548D01*
X0076487Y0078604D01*
X0076224Y0078667D01*
X0075963Y0078735D01*
X0075704Y0078811D01*
X0075447Y0078892D01*
X0075191Y0078980D01*
X0074938Y0079074D01*
X0074687Y0079174D01*
X0074439Y0079281D01*
X0074194Y0079393D01*
X0073951Y0079512D01*
X0073712Y0079636D01*
X0073475Y0079766D01*
X0073242Y0079902D01*
X0073012Y0080044D01*
X0072786Y0080191D01*
X0072563Y0080344D01*
X0072344Y0080502D01*
X0072129Y0080665D01*
X0071919Y0080834D01*
X0071712Y0081008D01*
X0071510Y0081187D01*
X0071312Y0081370D01*
X0071119Y0081559D01*
X0070930Y0081752D01*
X0070747Y0081950D01*
X0070568Y0082152D01*
X0070394Y0082359D01*
X0070225Y0082569D01*
X0070062Y0082784D01*
X0069904Y0083003D01*
X0069751Y0083226D01*
X0069604Y0083452D01*
X0069462Y0083682D01*
X0069326Y0083915D01*
X0069196Y0084152D01*
X0069072Y0084391D01*
X0068953Y0084634D01*
X0068841Y0084879D01*
X0068734Y0085127D01*
X0068634Y0085378D01*
X0068540Y0085631D01*
X0068452Y0085887D01*
X0068371Y0086144D01*
X0068295Y0086403D01*
X0068227Y0086664D01*
X0068164Y0086927D01*
X0068108Y0087191D01*
X0068059Y0087456D01*
X0068016Y0087723D01*
X0067980Y0087990D01*
X0067950Y0088259D01*
X0067927Y0088528D01*
X0067910Y0088797D01*
X0067900Y0089067D01*
X0067897Y0089337D01*
D12*
X0073893Y0089337D02*
X0073895Y0089478D01*
X0073901Y0089619D01*
X0073911Y0089759D01*
X0073925Y0089900D01*
X0073943Y0090040D01*
X0073964Y0090179D01*
X0073990Y0090318D01*
X0074020Y0090455D01*
X0074053Y0090592D01*
X0074090Y0090728D01*
X0074131Y0090863D01*
X0074176Y0090997D01*
X0074225Y0091129D01*
X0074277Y0091260D01*
X0074333Y0091389D01*
X0074393Y0091517D01*
X0074456Y0091643D01*
X0074523Y0091767D01*
X0074593Y0091890D01*
X0074667Y0092010D01*
X0074744Y0092128D01*
X0074824Y0092244D01*
X0074907Y0092358D01*
X0074994Y0092469D01*
X0075084Y0092577D01*
X0075177Y0092684D01*
X0075272Y0092787D01*
X0075371Y0092888D01*
X0075473Y0092986D01*
X0075577Y0093081D01*
X0075683Y0093173D01*
X0075793Y0093262D01*
X0075905Y0093348D01*
X0076019Y0093430D01*
X0076135Y0093510D01*
X0076254Y0093586D01*
X0076375Y0093659D01*
X0076497Y0093728D01*
X0076622Y0093794D01*
X0076749Y0093856D01*
X0076877Y0093915D01*
X0077007Y0093970D01*
X0077138Y0094022D01*
X0077270Y0094069D01*
X0077404Y0094113D01*
X0077540Y0094153D01*
X0077676Y0094190D01*
X0077813Y0094222D01*
X0077951Y0094251D01*
X0078090Y0094275D01*
X0078229Y0094296D01*
X0078369Y0094313D01*
X0078510Y0094326D01*
X0078650Y0094335D01*
X0078791Y0094340D01*
X0078932Y0094341D01*
X0079073Y0094338D01*
X0079214Y0094331D01*
X0079355Y0094320D01*
X0079495Y0094305D01*
X0079635Y0094286D01*
X0079774Y0094264D01*
X0079912Y0094237D01*
X0080050Y0094206D01*
X0080186Y0094172D01*
X0080322Y0094134D01*
X0080457Y0094092D01*
X0080590Y0094046D01*
X0080722Y0093996D01*
X0080853Y0093943D01*
X0080982Y0093886D01*
X0081109Y0093826D01*
X0081234Y0093762D01*
X0081358Y0093694D01*
X0081480Y0093623D01*
X0081600Y0093548D01*
X0081717Y0093471D01*
X0081833Y0093389D01*
X0081946Y0093305D01*
X0082056Y0093218D01*
X0082164Y0093127D01*
X0082270Y0093034D01*
X0082373Y0092937D01*
X0082473Y0092838D01*
X0082570Y0092736D01*
X0082664Y0092631D01*
X0082755Y0092523D01*
X0082844Y0092413D01*
X0082929Y0092301D01*
X0083011Y0092186D01*
X0083089Y0092069D01*
X0083165Y0091950D01*
X0083236Y0091829D01*
X0083305Y0091706D01*
X0083370Y0091580D01*
X0083431Y0091454D01*
X0083489Y0091325D01*
X0083543Y0091195D01*
X0083594Y0091063D01*
X0083641Y0090930D01*
X0083684Y0090796D01*
X0083723Y0090660D01*
X0083758Y0090524D01*
X0083790Y0090387D01*
X0083817Y0090248D01*
X0083841Y0090109D01*
X0083861Y0089970D01*
X0083877Y0089830D01*
X0083889Y0089689D01*
X0083897Y0089548D01*
X0083901Y0089407D01*
X0083901Y0089267D01*
X0083897Y0089126D01*
X0083889Y0088985D01*
X0083877Y0088844D01*
X0083861Y0088704D01*
X0083841Y0088565D01*
X0083817Y0088426D01*
X0083790Y0088287D01*
X0083758Y0088150D01*
X0083723Y0088014D01*
X0083684Y0087878D01*
X0083641Y0087744D01*
X0083594Y0087611D01*
X0083543Y0087479D01*
X0083489Y0087349D01*
X0083431Y0087220D01*
X0083370Y0087094D01*
X0083305Y0086968D01*
X0083236Y0086845D01*
X0083165Y0086724D01*
X0083089Y0086605D01*
X0083011Y0086488D01*
X0082929Y0086373D01*
X0082844Y0086261D01*
X0082755Y0086151D01*
X0082664Y0086043D01*
X0082570Y0085938D01*
X0082473Y0085836D01*
X0082373Y0085737D01*
X0082270Y0085640D01*
X0082164Y0085547D01*
X0082056Y0085456D01*
X0081946Y0085369D01*
X0081833Y0085285D01*
X0081717Y0085203D01*
X0081600Y0085126D01*
X0081480Y0085051D01*
X0081358Y0084980D01*
X0081234Y0084912D01*
X0081109Y0084848D01*
X0080982Y0084788D01*
X0080853Y0084731D01*
X0080722Y0084678D01*
X0080590Y0084628D01*
X0080457Y0084582D01*
X0080322Y0084540D01*
X0080186Y0084502D01*
X0080050Y0084468D01*
X0079912Y0084437D01*
X0079774Y0084410D01*
X0079635Y0084388D01*
X0079495Y0084369D01*
X0079355Y0084354D01*
X0079214Y0084343D01*
X0079073Y0084336D01*
X0078932Y0084333D01*
X0078791Y0084334D01*
X0078650Y0084339D01*
X0078510Y0084348D01*
X0078369Y0084361D01*
X0078229Y0084378D01*
X0078090Y0084399D01*
X0077951Y0084423D01*
X0077813Y0084452D01*
X0077676Y0084484D01*
X0077540Y0084521D01*
X0077404Y0084561D01*
X0077270Y0084605D01*
X0077138Y0084652D01*
X0077007Y0084704D01*
X0076877Y0084759D01*
X0076749Y0084818D01*
X0076622Y0084880D01*
X0076497Y0084946D01*
X0076375Y0085015D01*
X0076254Y0085088D01*
X0076135Y0085164D01*
X0076019Y0085244D01*
X0075905Y0085326D01*
X0075793Y0085412D01*
X0075683Y0085501D01*
X0075577Y0085593D01*
X0075473Y0085688D01*
X0075371Y0085786D01*
X0075272Y0085887D01*
X0075177Y0085990D01*
X0075084Y0086097D01*
X0074994Y0086205D01*
X0074907Y0086316D01*
X0074824Y0086430D01*
X0074744Y0086546D01*
X0074667Y0086664D01*
X0074593Y0086784D01*
X0074523Y0086907D01*
X0074456Y0087031D01*
X0074393Y0087157D01*
X0074333Y0087285D01*
X0074277Y0087414D01*
X0074225Y0087545D01*
X0074176Y0087677D01*
X0074131Y0087811D01*
X0074090Y0087946D01*
X0074053Y0088082D01*
X0074020Y0088219D01*
X0073990Y0088356D01*
X0073964Y0088495D01*
X0073943Y0088634D01*
X0073925Y0088774D01*
X0073911Y0088915D01*
X0073901Y0089055D01*
X0073895Y0089196D01*
X0073893Y0089337D01*
X0096397Y0067837D02*
X0101397Y0067837D01*
X0101484Y0067835D01*
X0101571Y0067829D01*
X0101658Y0067820D01*
X0101744Y0067807D01*
X0101830Y0067790D01*
X0101915Y0067769D01*
X0101998Y0067744D01*
X0102081Y0067716D01*
X0102162Y0067685D01*
X0102242Y0067650D01*
X0102320Y0067611D01*
X0102397Y0067569D01*
X0102472Y0067524D01*
X0102544Y0067475D01*
X0102615Y0067424D01*
X0102683Y0067369D01*
X0102748Y0067312D01*
X0102811Y0067251D01*
X0102872Y0067188D01*
X0102929Y0067123D01*
X0102984Y0067055D01*
X0103035Y0066984D01*
X0103084Y0066912D01*
X0103129Y0066837D01*
X0103171Y0066760D01*
X0103210Y0066682D01*
X0103245Y0066602D01*
X0103276Y0066521D01*
X0103304Y0066438D01*
X0103329Y0066355D01*
X0103350Y0066270D01*
X0103367Y0066184D01*
X0103380Y0066098D01*
X0103389Y0066011D01*
X0103395Y0065924D01*
X0103397Y0065837D01*
X0103397Y0052837D01*
X0103395Y0052750D01*
X0103389Y0052663D01*
X0103380Y0052576D01*
X0103367Y0052490D01*
X0103350Y0052404D01*
X0103329Y0052319D01*
X0103304Y0052236D01*
X0103276Y0052153D01*
X0103245Y0052072D01*
X0103210Y0051992D01*
X0103171Y0051914D01*
X0103129Y0051837D01*
X0103084Y0051762D01*
X0103035Y0051690D01*
X0102984Y0051619D01*
X0102929Y0051551D01*
X0102872Y0051486D01*
X0102811Y0051423D01*
X0102748Y0051362D01*
X0102683Y0051305D01*
X0102615Y0051250D01*
X0102544Y0051199D01*
X0102472Y0051150D01*
X0102397Y0051105D01*
X0102320Y0051063D01*
X0102242Y0051024D01*
X0102162Y0050989D01*
X0102081Y0050958D01*
X0101998Y0050930D01*
X0101915Y0050905D01*
X0101830Y0050884D01*
X0101744Y0050867D01*
X0101658Y0050854D01*
X0101571Y0050845D01*
X0101484Y0050839D01*
X0101397Y0050837D01*
X0096397Y0050837D01*
X0096310Y0050839D01*
X0096223Y0050845D01*
X0096136Y0050854D01*
X0096050Y0050867D01*
X0095964Y0050884D01*
X0095879Y0050905D01*
X0095796Y0050930D01*
X0095713Y0050958D01*
X0095632Y0050989D01*
X0095552Y0051024D01*
X0095474Y0051063D01*
X0095397Y0051105D01*
X0095322Y0051150D01*
X0095250Y0051199D01*
X0095179Y0051250D01*
X0095111Y0051305D01*
X0095046Y0051362D01*
X0094983Y0051423D01*
X0094922Y0051486D01*
X0094865Y0051551D01*
X0094810Y0051619D01*
X0094759Y0051690D01*
X0094710Y0051762D01*
X0094665Y0051837D01*
X0094623Y0051914D01*
X0094584Y0051992D01*
X0094549Y0052072D01*
X0094518Y0052153D01*
X0094490Y0052236D01*
X0094465Y0052319D01*
X0094444Y0052404D01*
X0094427Y0052490D01*
X0094414Y0052576D01*
X0094405Y0052663D01*
X0094399Y0052750D01*
X0094397Y0052837D01*
X0094397Y0065837D01*
X0094399Y0065924D01*
X0094405Y0066011D01*
X0094414Y0066098D01*
X0094427Y0066184D01*
X0094444Y0066270D01*
X0094465Y0066355D01*
X0094490Y0066438D01*
X0094518Y0066521D01*
X0094549Y0066602D01*
X0094584Y0066682D01*
X0094623Y0066760D01*
X0094665Y0066837D01*
X0094710Y0066912D01*
X0094759Y0066984D01*
X0094810Y0067055D01*
X0094865Y0067123D01*
X0094922Y0067188D01*
X0094983Y0067251D01*
X0095046Y0067312D01*
X0095111Y0067369D01*
X0095179Y0067424D01*
X0095250Y0067475D01*
X0095322Y0067524D01*
X0095397Y0067569D01*
X0095474Y0067611D01*
X0095552Y0067650D01*
X0095632Y0067685D01*
X0095713Y0067716D01*
X0095796Y0067744D01*
X0095879Y0067769D01*
X0095964Y0067790D01*
X0096050Y0067807D01*
X0096136Y0067820D01*
X0096223Y0067829D01*
X0096310Y0067835D01*
X0096397Y0067837D01*
X0098897Y0064337D02*
X0098897Y0060537D01*
X0098897Y0058037D02*
X0098897Y0054337D01*
X0113147Y0050337D02*
X0113897Y0050337D01*
X0113897Y0051087D01*
X0113897Y0050337D02*
X0114647Y0050337D01*
X0113897Y0050337D02*
X0113897Y0049587D01*
X0115397Y0052037D02*
X0118897Y0052037D01*
X0122397Y0052037D01*
X0122397Y0053537D01*
X0115397Y0053537D01*
X0115397Y0052037D01*
X0115397Y0055137D02*
X0122397Y0055137D01*
X0122397Y0056637D01*
X0118897Y0056637D01*
X0115397Y0056637D01*
X0115397Y0055137D01*
X0110897Y0054337D02*
X0110899Y0054533D01*
X0110907Y0054730D01*
X0110919Y0054926D01*
X0110936Y0055121D01*
X0110957Y0055316D01*
X0110984Y0055511D01*
X0111015Y0055705D01*
X0111051Y0055898D01*
X0111091Y0056090D01*
X0111137Y0056281D01*
X0111187Y0056471D01*
X0111241Y0056659D01*
X0111301Y0056846D01*
X0111365Y0057032D01*
X0111433Y0057216D01*
X0111506Y0057398D01*
X0111583Y0057579D01*
X0111665Y0057757D01*
X0111751Y0057934D01*
X0111842Y0058108D01*
X0111936Y0058280D01*
X0112035Y0058450D01*
X0112138Y0058617D01*
X0112245Y0058782D01*
X0112356Y0058943D01*
X0112471Y0059103D01*
X0112590Y0059259D01*
X0112713Y0059412D01*
X0112839Y0059562D01*
X0112969Y0059709D01*
X0113103Y0059853D01*
X0113240Y0059994D01*
X0113381Y0060131D01*
X0113525Y0060265D01*
X0113672Y0060395D01*
X0113822Y0060521D01*
X0113975Y0060644D01*
X0114131Y0060763D01*
X0114291Y0060878D01*
X0114452Y0060989D01*
X0114617Y0061096D01*
X0114784Y0061199D01*
X0114954Y0061298D01*
X0115126Y0061392D01*
X0115300Y0061483D01*
X0115477Y0061569D01*
X0115655Y0061651D01*
X0115836Y0061728D01*
X0116018Y0061801D01*
X0116202Y0061869D01*
X0116388Y0061933D01*
X0116575Y0061993D01*
X0116763Y0062047D01*
X0116953Y0062097D01*
X0117144Y0062143D01*
X0117336Y0062183D01*
X0117529Y0062219D01*
X0117723Y0062250D01*
X0117918Y0062277D01*
X0118113Y0062298D01*
X0118308Y0062315D01*
X0118504Y0062327D01*
X0118701Y0062335D01*
X0118897Y0062337D01*
X0119093Y0062335D01*
X0119290Y0062327D01*
X0119486Y0062315D01*
X0119681Y0062298D01*
X0119876Y0062277D01*
X0120071Y0062250D01*
X0120265Y0062219D01*
X0120458Y0062183D01*
X0120650Y0062143D01*
X0120841Y0062097D01*
X0121031Y0062047D01*
X0121219Y0061993D01*
X0121406Y0061933D01*
X0121592Y0061869D01*
X0121776Y0061801D01*
X0121958Y0061728D01*
X0122139Y0061651D01*
X0122317Y0061569D01*
X0122494Y0061483D01*
X0122668Y0061392D01*
X0122840Y0061298D01*
X0123010Y0061199D01*
X0123177Y0061096D01*
X0123342Y0060989D01*
X0123503Y0060878D01*
X0123663Y0060763D01*
X0123819Y0060644D01*
X0123972Y0060521D01*
X0124122Y0060395D01*
X0124269Y0060265D01*
X0124413Y0060131D01*
X0124554Y0059994D01*
X0124691Y0059853D01*
X0124825Y0059709D01*
X0124955Y0059562D01*
X0125081Y0059412D01*
X0125204Y0059259D01*
X0125323Y0059103D01*
X0125438Y0058943D01*
X0125549Y0058782D01*
X0125656Y0058617D01*
X0125759Y0058450D01*
X0125858Y0058280D01*
X0125952Y0058108D01*
X0126043Y0057934D01*
X0126129Y0057757D01*
X0126211Y0057579D01*
X0126288Y0057398D01*
X0126361Y0057216D01*
X0126429Y0057032D01*
X0126493Y0056846D01*
X0126553Y0056659D01*
X0126607Y0056471D01*
X0126657Y0056281D01*
X0126703Y0056090D01*
X0126743Y0055898D01*
X0126779Y0055705D01*
X0126810Y0055511D01*
X0126837Y0055316D01*
X0126858Y0055121D01*
X0126875Y0054926D01*
X0126887Y0054730D01*
X0126895Y0054533D01*
X0126897Y0054337D01*
X0126895Y0054141D01*
X0126887Y0053944D01*
X0126875Y0053748D01*
X0126858Y0053553D01*
X0126837Y0053358D01*
X0126810Y0053163D01*
X0126779Y0052969D01*
X0126743Y0052776D01*
X0126703Y0052584D01*
X0126657Y0052393D01*
X0126607Y0052203D01*
X0126553Y0052015D01*
X0126493Y0051828D01*
X0126429Y0051642D01*
X0126361Y0051458D01*
X0126288Y0051276D01*
X0126211Y0051095D01*
X0126129Y0050917D01*
X0126043Y0050740D01*
X0125952Y0050566D01*
X0125858Y0050394D01*
X0125759Y0050224D01*
X0125656Y0050057D01*
X0125549Y0049892D01*
X0125438Y0049731D01*
X0125323Y0049571D01*
X0125204Y0049415D01*
X0125081Y0049262D01*
X0124955Y0049112D01*
X0124825Y0048965D01*
X0124691Y0048821D01*
X0124554Y0048680D01*
X0124413Y0048543D01*
X0124269Y0048409D01*
X0124122Y0048279D01*
X0123972Y0048153D01*
X0123819Y0048030D01*
X0123663Y0047911D01*
X0123503Y0047796D01*
X0123342Y0047685D01*
X0123177Y0047578D01*
X0123010Y0047475D01*
X0122840Y0047376D01*
X0122668Y0047282D01*
X0122494Y0047191D01*
X0122317Y0047105D01*
X0122139Y0047023D01*
X0121958Y0046946D01*
X0121776Y0046873D01*
X0121592Y0046805D01*
X0121406Y0046741D01*
X0121219Y0046681D01*
X0121031Y0046627D01*
X0120841Y0046577D01*
X0120650Y0046531D01*
X0120458Y0046491D01*
X0120265Y0046455D01*
X0120071Y0046424D01*
X0119876Y0046397D01*
X0119681Y0046376D01*
X0119486Y0046359D01*
X0119290Y0046347D01*
X0119093Y0046339D01*
X0118897Y0046337D01*
X0118701Y0046339D01*
X0118504Y0046347D01*
X0118308Y0046359D01*
X0118113Y0046376D01*
X0117918Y0046397D01*
X0117723Y0046424D01*
X0117529Y0046455D01*
X0117336Y0046491D01*
X0117144Y0046531D01*
X0116953Y0046577D01*
X0116763Y0046627D01*
X0116575Y0046681D01*
X0116388Y0046741D01*
X0116202Y0046805D01*
X0116018Y0046873D01*
X0115836Y0046946D01*
X0115655Y0047023D01*
X0115477Y0047105D01*
X0115300Y0047191D01*
X0115126Y0047282D01*
X0114954Y0047376D01*
X0114784Y0047475D01*
X0114617Y0047578D01*
X0114452Y0047685D01*
X0114291Y0047796D01*
X0114131Y0047911D01*
X0113975Y0048030D01*
X0113822Y0048153D01*
X0113672Y0048279D01*
X0113525Y0048409D01*
X0113381Y0048543D01*
X0113240Y0048680D01*
X0113103Y0048821D01*
X0112969Y0048965D01*
X0112839Y0049112D01*
X0112713Y0049262D01*
X0112590Y0049415D01*
X0112471Y0049571D01*
X0112356Y0049731D01*
X0112245Y0049892D01*
X0112138Y0050057D01*
X0112035Y0050224D01*
X0111936Y0050394D01*
X0111842Y0050566D01*
X0111751Y0050740D01*
X0111665Y0050917D01*
X0111583Y0051095D01*
X0111506Y0051276D01*
X0111433Y0051458D01*
X0111365Y0051642D01*
X0111301Y0051828D01*
X0111241Y0052015D01*
X0111187Y0052203D01*
X0111137Y0052393D01*
X0111091Y0052584D01*
X0111051Y0052776D01*
X0111015Y0052969D01*
X0110984Y0053163D01*
X0110957Y0053358D01*
X0110936Y0053553D01*
X0110919Y0053748D01*
X0110907Y0053944D01*
X0110899Y0054141D01*
X0110897Y0054337D01*
X0118897Y0052037D02*
X0118897Y0049337D01*
X0129897Y0041837D02*
X0137897Y0041837D01*
X0137957Y0041835D01*
X0138018Y0041830D01*
X0138077Y0041821D01*
X0138136Y0041808D01*
X0138195Y0041792D01*
X0138252Y0041772D01*
X0138307Y0041749D01*
X0138362Y0041722D01*
X0138414Y0041693D01*
X0138465Y0041660D01*
X0138514Y0041624D01*
X0138560Y0041586D01*
X0138604Y0041544D01*
X0138646Y0041500D01*
X0138684Y0041454D01*
X0138720Y0041405D01*
X0138753Y0041354D01*
X0138782Y0041302D01*
X0138809Y0041247D01*
X0138832Y0041192D01*
X0138852Y0041135D01*
X0138868Y0041076D01*
X0138881Y0041017D01*
X0138890Y0040958D01*
X0138895Y0040897D01*
X0138897Y0040837D01*
X0138897Y0037837D01*
X0138895Y0037777D01*
X0138890Y0037716D01*
X0138881Y0037657D01*
X0138868Y0037598D01*
X0138852Y0037539D01*
X0138832Y0037482D01*
X0138809Y0037427D01*
X0138782Y0037372D01*
X0138753Y0037320D01*
X0138720Y0037269D01*
X0138684Y0037220D01*
X0138646Y0037174D01*
X0138604Y0037130D01*
X0138560Y0037088D01*
X0138514Y0037050D01*
X0138465Y0037014D01*
X0138414Y0036981D01*
X0138362Y0036952D01*
X0138307Y0036925D01*
X0138252Y0036902D01*
X0138195Y0036882D01*
X0138136Y0036866D01*
X0138077Y0036853D01*
X0138018Y0036844D01*
X0137957Y0036839D01*
X0137897Y0036837D01*
X0129897Y0036837D01*
X0129837Y0036839D01*
X0129776Y0036844D01*
X0129717Y0036853D01*
X0129658Y0036866D01*
X0129599Y0036882D01*
X0129542Y0036902D01*
X0129487Y0036925D01*
X0129432Y0036952D01*
X0129380Y0036981D01*
X0129329Y0037014D01*
X0129280Y0037050D01*
X0129234Y0037088D01*
X0129190Y0037130D01*
X0129148Y0037174D01*
X0129110Y0037220D01*
X0129074Y0037269D01*
X0129041Y0037320D01*
X0129012Y0037372D01*
X0128985Y0037427D01*
X0128962Y0037482D01*
X0128942Y0037539D01*
X0128926Y0037598D01*
X0128913Y0037657D01*
X0128904Y0037716D01*
X0128899Y0037777D01*
X0128897Y0037837D01*
X0128897Y0040837D01*
X0128899Y0040897D01*
X0128904Y0040958D01*
X0128913Y0041017D01*
X0128926Y0041076D01*
X0128942Y0041135D01*
X0128962Y0041192D01*
X0128985Y0041247D01*
X0129012Y0041302D01*
X0129041Y0041354D01*
X0129074Y0041405D01*
X0129110Y0041454D01*
X0129148Y0041500D01*
X0129190Y0041544D01*
X0129234Y0041586D01*
X0129280Y0041624D01*
X0129329Y0041660D01*
X0129380Y0041693D01*
X0129432Y0041722D01*
X0129487Y0041749D01*
X0129542Y0041772D01*
X0129599Y0041792D01*
X0129658Y0041808D01*
X0129717Y0041821D01*
X0129776Y0041830D01*
X0129837Y0041835D01*
X0129897Y0041837D01*
X0129837Y0041835D01*
X0129776Y0041830D01*
X0129717Y0041821D01*
X0129658Y0041808D01*
X0129599Y0041792D01*
X0129542Y0041772D01*
X0129487Y0041749D01*
X0129432Y0041722D01*
X0129380Y0041693D01*
X0129329Y0041660D01*
X0129280Y0041624D01*
X0129234Y0041586D01*
X0129190Y0041544D01*
X0129148Y0041500D01*
X0129110Y0041454D01*
X0129074Y0041405D01*
X0129041Y0041354D01*
X0129012Y0041302D01*
X0128985Y0041247D01*
X0128962Y0041192D01*
X0128942Y0041135D01*
X0128926Y0041076D01*
X0128913Y0041017D01*
X0128904Y0040958D01*
X0128899Y0040897D01*
X0128897Y0040837D01*
X0128897Y0037837D02*
X0128899Y0037777D01*
X0128904Y0037716D01*
X0128913Y0037657D01*
X0128926Y0037598D01*
X0128942Y0037539D01*
X0128962Y0037482D01*
X0128985Y0037427D01*
X0129012Y0037372D01*
X0129041Y0037320D01*
X0129074Y0037269D01*
X0129110Y0037220D01*
X0129148Y0037174D01*
X0129190Y0037130D01*
X0129234Y0037088D01*
X0129280Y0037050D01*
X0129329Y0037014D01*
X0129380Y0036981D01*
X0129432Y0036952D01*
X0129487Y0036925D01*
X0129542Y0036902D01*
X0129599Y0036882D01*
X0129658Y0036866D01*
X0129717Y0036853D01*
X0129776Y0036844D01*
X0129837Y0036839D01*
X0129897Y0036837D01*
X0137897Y0036837D02*
X0137957Y0036839D01*
X0138018Y0036844D01*
X0138077Y0036853D01*
X0138136Y0036866D01*
X0138195Y0036882D01*
X0138252Y0036902D01*
X0138307Y0036925D01*
X0138362Y0036952D01*
X0138414Y0036981D01*
X0138465Y0037014D01*
X0138514Y0037050D01*
X0138560Y0037088D01*
X0138604Y0037130D01*
X0138646Y0037174D01*
X0138684Y0037220D01*
X0138720Y0037269D01*
X0138753Y0037320D01*
X0138782Y0037372D01*
X0138809Y0037427D01*
X0138832Y0037482D01*
X0138852Y0037539D01*
X0138868Y0037598D01*
X0138881Y0037657D01*
X0138890Y0037716D01*
X0138895Y0037777D01*
X0138897Y0037837D01*
X0138897Y0040837D02*
X0138895Y0040897D01*
X0138890Y0040958D01*
X0138881Y0041017D01*
X0138868Y0041076D01*
X0138852Y0041135D01*
X0138832Y0041192D01*
X0138809Y0041247D01*
X0138782Y0041302D01*
X0138753Y0041354D01*
X0138720Y0041405D01*
X0138684Y0041454D01*
X0138646Y0041500D01*
X0138604Y0041544D01*
X0138560Y0041586D01*
X0138514Y0041624D01*
X0138465Y0041660D01*
X0138414Y0041693D01*
X0138362Y0041722D01*
X0138307Y0041749D01*
X0138252Y0041772D01*
X0138195Y0041792D01*
X0138136Y0041808D01*
X0138077Y0041821D01*
X0138018Y0041830D01*
X0137957Y0041835D01*
X0137897Y0041837D01*
X0156397Y0047337D02*
X0156397Y0030637D01*
X0181397Y0030637D01*
X0181397Y0047337D01*
X0156397Y0047337D01*
X0163397Y0035837D02*
X0163397Y0031837D01*
X0163897Y0032337D01*
X0163897Y0033837D01*
X0163897Y0035337D01*
X0163397Y0035837D01*
X0163897Y0035337D02*
X0164397Y0034837D01*
X0164897Y0034337D01*
X0164897Y0033337D01*
X0164397Y0032837D01*
X0163897Y0032337D01*
X0164397Y0032837D02*
X0164397Y0034837D01*
X0164897Y0034337D02*
X0165397Y0033837D01*
X0163897Y0033837D01*
X0157897Y0033837D01*
X0164897Y0033337D02*
X0165397Y0033837D01*
X0186397Y0050337D02*
X0186397Y0058337D01*
X0186399Y0058397D01*
X0186404Y0058458D01*
X0186413Y0058517D01*
X0186426Y0058576D01*
X0186442Y0058635D01*
X0186462Y0058692D01*
X0186485Y0058747D01*
X0186512Y0058802D01*
X0186541Y0058854D01*
X0186574Y0058905D01*
X0186610Y0058954D01*
X0186648Y0059000D01*
X0186690Y0059044D01*
X0186734Y0059086D01*
X0186780Y0059124D01*
X0186829Y0059160D01*
X0186880Y0059193D01*
X0186932Y0059222D01*
X0186987Y0059249D01*
X0187042Y0059272D01*
X0187099Y0059292D01*
X0187158Y0059308D01*
X0187217Y0059321D01*
X0187276Y0059330D01*
X0187337Y0059335D01*
X0187397Y0059337D01*
X0190397Y0059337D01*
X0190457Y0059335D01*
X0190518Y0059330D01*
X0190577Y0059321D01*
X0190636Y0059308D01*
X0190695Y0059292D01*
X0190752Y0059272D01*
X0190807Y0059249D01*
X0190862Y0059222D01*
X0190914Y0059193D01*
X0190965Y0059160D01*
X0191014Y0059124D01*
X0191060Y0059086D01*
X0191104Y0059044D01*
X0191146Y0059000D01*
X0191184Y0058954D01*
X0191220Y0058905D01*
X0191253Y0058854D01*
X0191282Y0058802D01*
X0191309Y0058747D01*
X0191332Y0058692D01*
X0191352Y0058635D01*
X0191368Y0058576D01*
X0191381Y0058517D01*
X0191390Y0058458D01*
X0191395Y0058397D01*
X0191397Y0058337D01*
X0191397Y0050337D01*
X0191395Y0050277D01*
X0191390Y0050216D01*
X0191381Y0050157D01*
X0191368Y0050098D01*
X0191352Y0050039D01*
X0191332Y0049982D01*
X0191309Y0049927D01*
X0191282Y0049872D01*
X0191253Y0049820D01*
X0191220Y0049769D01*
X0191184Y0049720D01*
X0191146Y0049674D01*
X0191104Y0049630D01*
X0191060Y0049588D01*
X0191014Y0049550D01*
X0190965Y0049514D01*
X0190914Y0049481D01*
X0190862Y0049452D01*
X0190807Y0049425D01*
X0190752Y0049402D01*
X0190695Y0049382D01*
X0190636Y0049366D01*
X0190577Y0049353D01*
X0190518Y0049344D01*
X0190457Y0049339D01*
X0190397Y0049337D01*
X0187397Y0049337D01*
X0187337Y0049339D01*
X0187276Y0049344D01*
X0187217Y0049353D01*
X0187158Y0049366D01*
X0187099Y0049382D01*
X0187042Y0049402D01*
X0186987Y0049425D01*
X0186932Y0049452D01*
X0186880Y0049481D01*
X0186829Y0049514D01*
X0186780Y0049550D01*
X0186734Y0049588D01*
X0186690Y0049630D01*
X0186648Y0049674D01*
X0186610Y0049720D01*
X0186574Y0049769D01*
X0186541Y0049820D01*
X0186512Y0049872D01*
X0186485Y0049927D01*
X0186462Y0049982D01*
X0186442Y0050039D01*
X0186426Y0050098D01*
X0186413Y0050157D01*
X0186404Y0050216D01*
X0186399Y0050277D01*
X0186397Y0050337D01*
X0186399Y0050277D01*
X0186404Y0050216D01*
X0186413Y0050157D01*
X0186426Y0050098D01*
X0186442Y0050039D01*
X0186462Y0049982D01*
X0186485Y0049927D01*
X0186512Y0049872D01*
X0186541Y0049820D01*
X0186574Y0049769D01*
X0186610Y0049720D01*
X0186648Y0049674D01*
X0186690Y0049630D01*
X0186734Y0049588D01*
X0186780Y0049550D01*
X0186829Y0049514D01*
X0186880Y0049481D01*
X0186932Y0049452D01*
X0186987Y0049425D01*
X0187042Y0049402D01*
X0187099Y0049382D01*
X0187158Y0049366D01*
X0187217Y0049353D01*
X0187276Y0049344D01*
X0187337Y0049339D01*
X0187397Y0049337D01*
X0190397Y0049337D02*
X0190457Y0049339D01*
X0190518Y0049344D01*
X0190577Y0049353D01*
X0190636Y0049366D01*
X0190695Y0049382D01*
X0190752Y0049402D01*
X0190807Y0049425D01*
X0190862Y0049452D01*
X0190914Y0049481D01*
X0190965Y0049514D01*
X0191014Y0049550D01*
X0191060Y0049588D01*
X0191104Y0049630D01*
X0191146Y0049674D01*
X0191184Y0049720D01*
X0191220Y0049769D01*
X0191253Y0049820D01*
X0191282Y0049872D01*
X0191309Y0049927D01*
X0191332Y0049982D01*
X0191352Y0050039D01*
X0191368Y0050098D01*
X0191381Y0050157D01*
X0191390Y0050216D01*
X0191395Y0050277D01*
X0191397Y0050337D01*
X0191397Y0058337D02*
X0191395Y0058397D01*
X0191390Y0058458D01*
X0191381Y0058517D01*
X0191368Y0058576D01*
X0191352Y0058635D01*
X0191332Y0058692D01*
X0191309Y0058747D01*
X0191282Y0058802D01*
X0191253Y0058854D01*
X0191220Y0058905D01*
X0191184Y0058954D01*
X0191146Y0059000D01*
X0191104Y0059044D01*
X0191060Y0059086D01*
X0191014Y0059124D01*
X0190965Y0059160D01*
X0190914Y0059193D01*
X0190862Y0059222D01*
X0190807Y0059249D01*
X0190752Y0059272D01*
X0190695Y0059292D01*
X0190636Y0059308D01*
X0190577Y0059321D01*
X0190518Y0059330D01*
X0190457Y0059335D01*
X0190397Y0059337D01*
X0187397Y0059337D02*
X0187337Y0059335D01*
X0187276Y0059330D01*
X0187217Y0059321D01*
X0187158Y0059308D01*
X0187099Y0059292D01*
X0187042Y0059272D01*
X0186987Y0059249D01*
X0186932Y0059222D01*
X0186880Y0059193D01*
X0186829Y0059160D01*
X0186780Y0059124D01*
X0186734Y0059086D01*
X0186690Y0059044D01*
X0186648Y0059000D01*
X0186610Y0058954D01*
X0186574Y0058905D01*
X0186541Y0058854D01*
X0186512Y0058802D01*
X0186485Y0058747D01*
X0186462Y0058692D01*
X0186442Y0058635D01*
X0186426Y0058576D01*
X0186413Y0058517D01*
X0186404Y0058458D01*
X0186399Y0058397D01*
X0186397Y0058337D01*
X0175397Y0064337D02*
X0152397Y0064337D01*
X0152397Y0134337D01*
X0159897Y0134337D01*
X0159899Y0134211D01*
X0159905Y0134086D01*
X0159915Y0133961D01*
X0159929Y0133836D01*
X0159946Y0133711D01*
X0159968Y0133587D01*
X0159993Y0133464D01*
X0160023Y0133342D01*
X0160056Y0133221D01*
X0160093Y0133101D01*
X0160133Y0132982D01*
X0160178Y0132865D01*
X0160226Y0132748D01*
X0160278Y0132634D01*
X0160333Y0132521D01*
X0160392Y0132410D01*
X0160454Y0132301D01*
X0160520Y0132194D01*
X0160589Y0132089D01*
X0160661Y0131986D01*
X0160736Y0131885D01*
X0160815Y0131787D01*
X0160897Y0131692D01*
X0160981Y0131599D01*
X0161069Y0131509D01*
X0161159Y0131421D01*
X0161252Y0131337D01*
X0161347Y0131255D01*
X0161445Y0131176D01*
X0161546Y0131101D01*
X0161649Y0131029D01*
X0161754Y0130960D01*
X0161861Y0130894D01*
X0161970Y0130832D01*
X0162081Y0130773D01*
X0162194Y0130718D01*
X0162308Y0130666D01*
X0162425Y0130618D01*
X0162542Y0130573D01*
X0162661Y0130533D01*
X0162781Y0130496D01*
X0162902Y0130463D01*
X0163024Y0130433D01*
X0163147Y0130408D01*
X0163271Y0130386D01*
X0163396Y0130369D01*
X0163521Y0130355D01*
X0163646Y0130345D01*
X0163771Y0130339D01*
X0163897Y0130337D01*
X0164023Y0130339D01*
X0164148Y0130345D01*
X0164273Y0130355D01*
X0164398Y0130369D01*
X0164523Y0130386D01*
X0164647Y0130408D01*
X0164770Y0130433D01*
X0164892Y0130463D01*
X0165013Y0130496D01*
X0165133Y0130533D01*
X0165252Y0130573D01*
X0165369Y0130618D01*
X0165486Y0130666D01*
X0165600Y0130718D01*
X0165713Y0130773D01*
X0165824Y0130832D01*
X0165933Y0130894D01*
X0166040Y0130960D01*
X0166145Y0131029D01*
X0166248Y0131101D01*
X0166349Y0131176D01*
X0166447Y0131255D01*
X0166542Y0131337D01*
X0166635Y0131421D01*
X0166725Y0131509D01*
X0166813Y0131599D01*
X0166897Y0131692D01*
X0166979Y0131787D01*
X0167058Y0131885D01*
X0167133Y0131986D01*
X0167205Y0132089D01*
X0167274Y0132194D01*
X0167340Y0132301D01*
X0167402Y0132410D01*
X0167461Y0132521D01*
X0167516Y0132634D01*
X0167568Y0132748D01*
X0167616Y0132865D01*
X0167661Y0132982D01*
X0167701Y0133101D01*
X0167738Y0133221D01*
X0167771Y0133342D01*
X0167801Y0133464D01*
X0167826Y0133587D01*
X0167848Y0133711D01*
X0167865Y0133836D01*
X0167879Y0133961D01*
X0167889Y0134086D01*
X0167895Y0134211D01*
X0167897Y0134337D01*
X0175397Y0134337D01*
X0175397Y0064337D01*
X0196397Y0070337D02*
X0196397Y0078337D01*
X0196399Y0078397D01*
X0196404Y0078458D01*
X0196413Y0078517D01*
X0196426Y0078576D01*
X0196442Y0078635D01*
X0196462Y0078692D01*
X0196485Y0078747D01*
X0196512Y0078802D01*
X0196541Y0078854D01*
X0196574Y0078905D01*
X0196610Y0078954D01*
X0196648Y0079000D01*
X0196690Y0079044D01*
X0196734Y0079086D01*
X0196780Y0079124D01*
X0196829Y0079160D01*
X0196880Y0079193D01*
X0196932Y0079222D01*
X0196987Y0079249D01*
X0197042Y0079272D01*
X0197099Y0079292D01*
X0197158Y0079308D01*
X0197217Y0079321D01*
X0197276Y0079330D01*
X0197337Y0079335D01*
X0197397Y0079337D01*
X0200397Y0079337D01*
X0200457Y0079335D01*
X0200518Y0079330D01*
X0200577Y0079321D01*
X0200636Y0079308D01*
X0200695Y0079292D01*
X0200752Y0079272D01*
X0200807Y0079249D01*
X0200862Y0079222D01*
X0200914Y0079193D01*
X0200965Y0079160D01*
X0201014Y0079124D01*
X0201060Y0079086D01*
X0201104Y0079044D01*
X0201146Y0079000D01*
X0201184Y0078954D01*
X0201220Y0078905D01*
X0201253Y0078854D01*
X0201282Y0078802D01*
X0201309Y0078747D01*
X0201332Y0078692D01*
X0201352Y0078635D01*
X0201368Y0078576D01*
X0201381Y0078517D01*
X0201390Y0078458D01*
X0201395Y0078397D01*
X0201397Y0078337D01*
X0201397Y0070337D01*
X0201395Y0070277D01*
X0201390Y0070216D01*
X0201381Y0070157D01*
X0201368Y0070098D01*
X0201352Y0070039D01*
X0201332Y0069982D01*
X0201309Y0069927D01*
X0201282Y0069872D01*
X0201253Y0069820D01*
X0201220Y0069769D01*
X0201184Y0069720D01*
X0201146Y0069674D01*
X0201104Y0069630D01*
X0201060Y0069588D01*
X0201014Y0069550D01*
X0200965Y0069514D01*
X0200914Y0069481D01*
X0200862Y0069452D01*
X0200807Y0069425D01*
X0200752Y0069402D01*
X0200695Y0069382D01*
X0200636Y0069366D01*
X0200577Y0069353D01*
X0200518Y0069344D01*
X0200457Y0069339D01*
X0200397Y0069337D01*
X0197397Y0069337D01*
X0197337Y0069339D01*
X0197276Y0069344D01*
X0197217Y0069353D01*
X0197158Y0069366D01*
X0197099Y0069382D01*
X0197042Y0069402D01*
X0196987Y0069425D01*
X0196932Y0069452D01*
X0196880Y0069481D01*
X0196829Y0069514D01*
X0196780Y0069550D01*
X0196734Y0069588D01*
X0196690Y0069630D01*
X0196648Y0069674D01*
X0196610Y0069720D01*
X0196574Y0069769D01*
X0196541Y0069820D01*
X0196512Y0069872D01*
X0196485Y0069927D01*
X0196462Y0069982D01*
X0196442Y0070039D01*
X0196426Y0070098D01*
X0196413Y0070157D01*
X0196404Y0070216D01*
X0196399Y0070277D01*
X0196397Y0070337D01*
X0196399Y0070277D01*
X0196404Y0070216D01*
X0196413Y0070157D01*
X0196426Y0070098D01*
X0196442Y0070039D01*
X0196462Y0069982D01*
X0196485Y0069927D01*
X0196512Y0069872D01*
X0196541Y0069820D01*
X0196574Y0069769D01*
X0196610Y0069720D01*
X0196648Y0069674D01*
X0196690Y0069630D01*
X0196734Y0069588D01*
X0196780Y0069550D01*
X0196829Y0069514D01*
X0196880Y0069481D01*
X0196932Y0069452D01*
X0196987Y0069425D01*
X0197042Y0069402D01*
X0197099Y0069382D01*
X0197158Y0069366D01*
X0197217Y0069353D01*
X0197276Y0069344D01*
X0197337Y0069339D01*
X0197397Y0069337D01*
X0200397Y0069337D02*
X0200457Y0069339D01*
X0200518Y0069344D01*
X0200577Y0069353D01*
X0200636Y0069366D01*
X0200695Y0069382D01*
X0200752Y0069402D01*
X0200807Y0069425D01*
X0200862Y0069452D01*
X0200914Y0069481D01*
X0200965Y0069514D01*
X0201014Y0069550D01*
X0201060Y0069588D01*
X0201104Y0069630D01*
X0201146Y0069674D01*
X0201184Y0069720D01*
X0201220Y0069769D01*
X0201253Y0069820D01*
X0201282Y0069872D01*
X0201309Y0069927D01*
X0201332Y0069982D01*
X0201352Y0070039D01*
X0201368Y0070098D01*
X0201381Y0070157D01*
X0201390Y0070216D01*
X0201395Y0070277D01*
X0201397Y0070337D01*
X0201397Y0078337D02*
X0201395Y0078397D01*
X0201390Y0078458D01*
X0201381Y0078517D01*
X0201368Y0078576D01*
X0201352Y0078635D01*
X0201332Y0078692D01*
X0201309Y0078747D01*
X0201282Y0078802D01*
X0201253Y0078854D01*
X0201220Y0078905D01*
X0201184Y0078954D01*
X0201146Y0079000D01*
X0201104Y0079044D01*
X0201060Y0079086D01*
X0201014Y0079124D01*
X0200965Y0079160D01*
X0200914Y0079193D01*
X0200862Y0079222D01*
X0200807Y0079249D01*
X0200752Y0079272D01*
X0200695Y0079292D01*
X0200636Y0079308D01*
X0200577Y0079321D01*
X0200518Y0079330D01*
X0200457Y0079335D01*
X0200397Y0079337D01*
X0197397Y0079337D02*
X0197337Y0079335D01*
X0197276Y0079330D01*
X0197217Y0079321D01*
X0197158Y0079308D01*
X0197099Y0079292D01*
X0197042Y0079272D01*
X0196987Y0079249D01*
X0196932Y0079222D01*
X0196880Y0079193D01*
X0196829Y0079160D01*
X0196780Y0079124D01*
X0196734Y0079086D01*
X0196690Y0079044D01*
X0196648Y0079000D01*
X0196610Y0078954D01*
X0196574Y0078905D01*
X0196541Y0078854D01*
X0196512Y0078802D01*
X0196485Y0078747D01*
X0196462Y0078692D01*
X0196442Y0078635D01*
X0196426Y0078576D01*
X0196413Y0078517D01*
X0196404Y0078458D01*
X0196399Y0078397D01*
X0196397Y0078337D01*
X0190397Y0089337D02*
X0187397Y0089337D01*
X0187337Y0089339D01*
X0187276Y0089344D01*
X0187217Y0089353D01*
X0187158Y0089366D01*
X0187099Y0089382D01*
X0187042Y0089402D01*
X0186987Y0089425D01*
X0186932Y0089452D01*
X0186880Y0089481D01*
X0186829Y0089514D01*
X0186780Y0089550D01*
X0186734Y0089588D01*
X0186690Y0089630D01*
X0186648Y0089674D01*
X0186610Y0089720D01*
X0186574Y0089769D01*
X0186541Y0089820D01*
X0186512Y0089872D01*
X0186485Y0089927D01*
X0186462Y0089982D01*
X0186442Y0090039D01*
X0186426Y0090098D01*
X0186413Y0090157D01*
X0186404Y0090216D01*
X0186399Y0090277D01*
X0186397Y0090337D01*
X0186397Y0098337D01*
X0186399Y0098397D01*
X0186404Y0098458D01*
X0186413Y0098517D01*
X0186426Y0098576D01*
X0186442Y0098635D01*
X0186462Y0098692D01*
X0186485Y0098747D01*
X0186512Y0098802D01*
X0186541Y0098854D01*
X0186574Y0098905D01*
X0186610Y0098954D01*
X0186648Y0099000D01*
X0186690Y0099044D01*
X0186734Y0099086D01*
X0186780Y0099124D01*
X0186829Y0099160D01*
X0186880Y0099193D01*
X0186932Y0099222D01*
X0186987Y0099249D01*
X0187042Y0099272D01*
X0187099Y0099292D01*
X0187158Y0099308D01*
X0187217Y0099321D01*
X0187276Y0099330D01*
X0187337Y0099335D01*
X0187397Y0099337D01*
X0190397Y0099337D01*
X0190457Y0099335D01*
X0190518Y0099330D01*
X0190577Y0099321D01*
X0190636Y0099308D01*
X0190695Y0099292D01*
X0190752Y0099272D01*
X0190807Y0099249D01*
X0190862Y0099222D01*
X0190914Y0099193D01*
X0190965Y0099160D01*
X0191014Y0099124D01*
X0191060Y0099086D01*
X0191104Y0099044D01*
X0191146Y0099000D01*
X0191184Y0098954D01*
X0191220Y0098905D01*
X0191253Y0098854D01*
X0191282Y0098802D01*
X0191309Y0098747D01*
X0191332Y0098692D01*
X0191352Y0098635D01*
X0191368Y0098576D01*
X0191381Y0098517D01*
X0191390Y0098458D01*
X0191395Y0098397D01*
X0191397Y0098337D01*
X0191397Y0090337D01*
X0191395Y0090277D01*
X0191390Y0090216D01*
X0191381Y0090157D01*
X0191368Y0090098D01*
X0191352Y0090039D01*
X0191332Y0089982D01*
X0191309Y0089927D01*
X0191282Y0089872D01*
X0191253Y0089820D01*
X0191220Y0089769D01*
X0191184Y0089720D01*
X0191146Y0089674D01*
X0191104Y0089630D01*
X0191060Y0089588D01*
X0191014Y0089550D01*
X0190965Y0089514D01*
X0190914Y0089481D01*
X0190862Y0089452D01*
X0190807Y0089425D01*
X0190752Y0089402D01*
X0190695Y0089382D01*
X0190636Y0089366D01*
X0190577Y0089353D01*
X0190518Y0089344D01*
X0190457Y0089339D01*
X0190397Y0089337D01*
X0190457Y0089339D01*
X0190518Y0089344D01*
X0190577Y0089353D01*
X0190636Y0089366D01*
X0190695Y0089382D01*
X0190752Y0089402D01*
X0190807Y0089425D01*
X0190862Y0089452D01*
X0190914Y0089481D01*
X0190965Y0089514D01*
X0191014Y0089550D01*
X0191060Y0089588D01*
X0191104Y0089630D01*
X0191146Y0089674D01*
X0191184Y0089720D01*
X0191220Y0089769D01*
X0191253Y0089820D01*
X0191282Y0089872D01*
X0191309Y0089927D01*
X0191332Y0089982D01*
X0191352Y0090039D01*
X0191368Y0090098D01*
X0191381Y0090157D01*
X0191390Y0090216D01*
X0191395Y0090277D01*
X0191397Y0090337D01*
X0187397Y0089337D02*
X0187337Y0089339D01*
X0187276Y0089344D01*
X0187217Y0089353D01*
X0187158Y0089366D01*
X0187099Y0089382D01*
X0187042Y0089402D01*
X0186987Y0089425D01*
X0186932Y0089452D01*
X0186880Y0089481D01*
X0186829Y0089514D01*
X0186780Y0089550D01*
X0186734Y0089588D01*
X0186690Y0089630D01*
X0186648Y0089674D01*
X0186610Y0089720D01*
X0186574Y0089769D01*
X0186541Y0089820D01*
X0186512Y0089872D01*
X0186485Y0089927D01*
X0186462Y0089982D01*
X0186442Y0090039D01*
X0186426Y0090098D01*
X0186413Y0090157D01*
X0186404Y0090216D01*
X0186399Y0090277D01*
X0186397Y0090337D01*
X0186397Y0098337D02*
X0186399Y0098397D01*
X0186404Y0098458D01*
X0186413Y0098517D01*
X0186426Y0098576D01*
X0186442Y0098635D01*
X0186462Y0098692D01*
X0186485Y0098747D01*
X0186512Y0098802D01*
X0186541Y0098854D01*
X0186574Y0098905D01*
X0186610Y0098954D01*
X0186648Y0099000D01*
X0186690Y0099044D01*
X0186734Y0099086D01*
X0186780Y0099124D01*
X0186829Y0099160D01*
X0186880Y0099193D01*
X0186932Y0099222D01*
X0186987Y0099249D01*
X0187042Y0099272D01*
X0187099Y0099292D01*
X0187158Y0099308D01*
X0187217Y0099321D01*
X0187276Y0099330D01*
X0187337Y0099335D01*
X0187397Y0099337D01*
X0190397Y0099337D02*
X0190457Y0099335D01*
X0190518Y0099330D01*
X0190577Y0099321D01*
X0190636Y0099308D01*
X0190695Y0099292D01*
X0190752Y0099272D01*
X0190807Y0099249D01*
X0190862Y0099222D01*
X0190914Y0099193D01*
X0190965Y0099160D01*
X0191014Y0099124D01*
X0191060Y0099086D01*
X0191104Y0099044D01*
X0191146Y0099000D01*
X0191184Y0098954D01*
X0191220Y0098905D01*
X0191253Y0098854D01*
X0191282Y0098802D01*
X0191309Y0098747D01*
X0191332Y0098692D01*
X0191352Y0098635D01*
X0191368Y0098576D01*
X0191381Y0098517D01*
X0191390Y0098458D01*
X0191395Y0098397D01*
X0191397Y0098337D01*
X0205897Y0133337D02*
X0171897Y0133337D01*
X0171897Y0145337D01*
X0205897Y0145337D01*
X0205897Y0133337D01*
X0197897Y0145337D02*
X0195897Y0145337D01*
X0193897Y0145337D01*
X0191897Y0145337D01*
X0189897Y0145337D01*
X0189897Y0153337D01*
X0191897Y0153337D01*
X0193897Y0153337D01*
X0193897Y0145337D01*
X0191897Y0145337D02*
X0191897Y0153337D01*
X0193897Y0153337D02*
X0195897Y0153337D01*
X0197897Y0153337D01*
X0197897Y0145337D01*
X0195897Y0145337D02*
X0195897Y0153337D01*
X0131397Y0128337D02*
X0131397Y0120337D01*
X0131395Y0120277D01*
X0131390Y0120216D01*
X0131381Y0120157D01*
X0131368Y0120098D01*
X0131352Y0120039D01*
X0131332Y0119982D01*
X0131309Y0119927D01*
X0131282Y0119872D01*
X0131253Y0119820D01*
X0131220Y0119769D01*
X0131184Y0119720D01*
X0131146Y0119674D01*
X0131104Y0119630D01*
X0131060Y0119588D01*
X0131014Y0119550D01*
X0130965Y0119514D01*
X0130914Y0119481D01*
X0130862Y0119452D01*
X0130807Y0119425D01*
X0130752Y0119402D01*
X0130695Y0119382D01*
X0130636Y0119366D01*
X0130577Y0119353D01*
X0130518Y0119344D01*
X0130457Y0119339D01*
X0130397Y0119337D01*
X0127397Y0119337D01*
X0127337Y0119339D01*
X0127276Y0119344D01*
X0127217Y0119353D01*
X0127158Y0119366D01*
X0127099Y0119382D01*
X0127042Y0119402D01*
X0126987Y0119425D01*
X0126932Y0119452D01*
X0126880Y0119481D01*
X0126829Y0119514D01*
X0126780Y0119550D01*
X0126734Y0119588D01*
X0126690Y0119630D01*
X0126648Y0119674D01*
X0126610Y0119720D01*
X0126574Y0119769D01*
X0126541Y0119820D01*
X0126512Y0119872D01*
X0126485Y0119927D01*
X0126462Y0119982D01*
X0126442Y0120039D01*
X0126426Y0120098D01*
X0126413Y0120157D01*
X0126404Y0120216D01*
X0126399Y0120277D01*
X0126397Y0120337D01*
X0126397Y0128337D01*
X0126399Y0128397D01*
X0126404Y0128458D01*
X0126413Y0128517D01*
X0126426Y0128576D01*
X0126442Y0128635D01*
X0126462Y0128692D01*
X0126485Y0128747D01*
X0126512Y0128802D01*
X0126541Y0128854D01*
X0126574Y0128905D01*
X0126610Y0128954D01*
X0126648Y0129000D01*
X0126690Y0129044D01*
X0126734Y0129086D01*
X0126780Y0129124D01*
X0126829Y0129160D01*
X0126880Y0129193D01*
X0126932Y0129222D01*
X0126987Y0129249D01*
X0127042Y0129272D01*
X0127099Y0129292D01*
X0127158Y0129308D01*
X0127217Y0129321D01*
X0127276Y0129330D01*
X0127337Y0129335D01*
X0127397Y0129337D01*
X0130397Y0129337D01*
X0130457Y0129335D01*
X0130518Y0129330D01*
X0130577Y0129321D01*
X0130636Y0129308D01*
X0130695Y0129292D01*
X0130752Y0129272D01*
X0130807Y0129249D01*
X0130862Y0129222D01*
X0130914Y0129193D01*
X0130965Y0129160D01*
X0131014Y0129124D01*
X0131060Y0129086D01*
X0131104Y0129044D01*
X0131146Y0129000D01*
X0131184Y0128954D01*
X0131220Y0128905D01*
X0131253Y0128854D01*
X0131282Y0128802D01*
X0131309Y0128747D01*
X0131332Y0128692D01*
X0131352Y0128635D01*
X0131368Y0128576D01*
X0131381Y0128517D01*
X0131390Y0128458D01*
X0131395Y0128397D01*
X0131397Y0128337D01*
X0131395Y0128397D01*
X0131390Y0128458D01*
X0131381Y0128517D01*
X0131368Y0128576D01*
X0131352Y0128635D01*
X0131332Y0128692D01*
X0131309Y0128747D01*
X0131282Y0128802D01*
X0131253Y0128854D01*
X0131220Y0128905D01*
X0131184Y0128954D01*
X0131146Y0129000D01*
X0131104Y0129044D01*
X0131060Y0129086D01*
X0131014Y0129124D01*
X0130965Y0129160D01*
X0130914Y0129193D01*
X0130862Y0129222D01*
X0130807Y0129249D01*
X0130752Y0129272D01*
X0130695Y0129292D01*
X0130636Y0129308D01*
X0130577Y0129321D01*
X0130518Y0129330D01*
X0130457Y0129335D01*
X0130397Y0129337D01*
X0127397Y0129337D02*
X0127337Y0129335D01*
X0127276Y0129330D01*
X0127217Y0129321D01*
X0127158Y0129308D01*
X0127099Y0129292D01*
X0127042Y0129272D01*
X0126987Y0129249D01*
X0126932Y0129222D01*
X0126880Y0129193D01*
X0126829Y0129160D01*
X0126780Y0129124D01*
X0126734Y0129086D01*
X0126690Y0129044D01*
X0126648Y0129000D01*
X0126610Y0128954D01*
X0126574Y0128905D01*
X0126541Y0128854D01*
X0126512Y0128802D01*
X0126485Y0128747D01*
X0126462Y0128692D01*
X0126442Y0128635D01*
X0126426Y0128576D01*
X0126413Y0128517D01*
X0126404Y0128458D01*
X0126399Y0128397D01*
X0126397Y0128337D01*
X0126397Y0120337D02*
X0126399Y0120277D01*
X0126404Y0120216D01*
X0126413Y0120157D01*
X0126426Y0120098D01*
X0126442Y0120039D01*
X0126462Y0119982D01*
X0126485Y0119927D01*
X0126512Y0119872D01*
X0126541Y0119820D01*
X0126574Y0119769D01*
X0126610Y0119720D01*
X0126648Y0119674D01*
X0126690Y0119630D01*
X0126734Y0119588D01*
X0126780Y0119550D01*
X0126829Y0119514D01*
X0126880Y0119481D01*
X0126932Y0119452D01*
X0126987Y0119425D01*
X0127042Y0119402D01*
X0127099Y0119382D01*
X0127158Y0119366D01*
X0127217Y0119353D01*
X0127276Y0119344D01*
X0127337Y0119339D01*
X0127397Y0119337D01*
X0130397Y0119337D02*
X0130457Y0119339D01*
X0130518Y0119344D01*
X0130577Y0119353D01*
X0130636Y0119366D01*
X0130695Y0119382D01*
X0130752Y0119402D01*
X0130807Y0119425D01*
X0130862Y0119452D01*
X0130914Y0119481D01*
X0130965Y0119514D01*
X0131014Y0119550D01*
X0131060Y0119588D01*
X0131104Y0119630D01*
X0131146Y0119674D01*
X0131184Y0119720D01*
X0131220Y0119769D01*
X0131253Y0119820D01*
X0131282Y0119872D01*
X0131309Y0119927D01*
X0131332Y0119982D01*
X0131352Y0120039D01*
X0131368Y0120098D01*
X0131381Y0120157D01*
X0131390Y0120216D01*
X0131395Y0120277D01*
X0131397Y0120337D01*
X0131397Y0095337D02*
X0131397Y0093337D01*
X0130397Y0094337D02*
X0132397Y0094337D01*
X0128897Y0094837D02*
X0128897Y0092337D01*
X0132897Y0092337D01*
X0132897Y0090337D01*
X0124897Y0090337D01*
X0124897Y0092337D01*
X0128897Y0092337D01*
X0123609Y0080850D02*
X0123816Y0080724D01*
X0124026Y0080604D01*
X0124239Y0080488D01*
X0124455Y0080378D01*
X0124673Y0080273D01*
X0124894Y0080173D01*
X0125117Y0080079D01*
X0125342Y0079990D01*
X0125570Y0079907D01*
X0125799Y0079829D01*
X0126031Y0079757D01*
X0126263Y0079690D01*
X0126498Y0079629D01*
X0126734Y0079574D01*
X0126971Y0079524D01*
X0127209Y0079480D01*
X0127448Y0079442D01*
X0127689Y0079410D01*
X0127929Y0079384D01*
X0128171Y0079363D01*
X0128413Y0079349D01*
X0128655Y0079340D01*
X0128897Y0079337D01*
X0129139Y0079340D01*
X0129381Y0079349D01*
X0129623Y0079363D01*
X0129865Y0079384D01*
X0130105Y0079410D01*
X0130346Y0079442D01*
X0130585Y0079480D01*
X0130823Y0079524D01*
X0131060Y0079574D01*
X0131296Y0079629D01*
X0131531Y0079690D01*
X0131763Y0079757D01*
X0131995Y0079829D01*
X0132224Y0079907D01*
X0132452Y0079990D01*
X0132677Y0080079D01*
X0132900Y0080173D01*
X0133121Y0080273D01*
X0133339Y0080378D01*
X0133555Y0080488D01*
X0133768Y0080604D01*
X0133978Y0080724D01*
X0134185Y0080850D01*
X0128897Y0083837D02*
X0128897Y0086837D01*
X0134185Y0097824D02*
X0133978Y0097950D01*
X0133768Y0098070D01*
X0133555Y0098186D01*
X0133339Y0098296D01*
X0133121Y0098401D01*
X0132900Y0098501D01*
X0132677Y0098595D01*
X0132452Y0098684D01*
X0132224Y0098767D01*
X0131995Y0098845D01*
X0131763Y0098917D01*
X0131531Y0098984D01*
X0131296Y0099045D01*
X0131060Y0099100D01*
X0130823Y0099150D01*
X0130585Y0099194D01*
X0130346Y0099232D01*
X0130105Y0099264D01*
X0129865Y0099290D01*
X0129623Y0099311D01*
X0129381Y0099325D01*
X0129139Y0099334D01*
X0128897Y0099337D01*
X0128655Y0099334D01*
X0128413Y0099325D01*
X0128171Y0099311D01*
X0127929Y0099290D01*
X0127689Y0099264D01*
X0127448Y0099232D01*
X0127209Y0099194D01*
X0126971Y0099150D01*
X0126734Y0099100D01*
X0126498Y0099045D01*
X0126263Y0098984D01*
X0126031Y0098917D01*
X0125799Y0098845D01*
X0125570Y0098767D01*
X0125342Y0098684D01*
X0125117Y0098595D01*
X0124894Y0098501D01*
X0124673Y0098401D01*
X0124455Y0098296D01*
X0124239Y0098186D01*
X0124026Y0098070D01*
X0123816Y0097950D01*
X0123609Y0097824D01*
X0123403Y0097693D01*
X0123201Y0097556D01*
X0123002Y0097414D01*
X0122806Y0097268D01*
X0122614Y0097117D01*
X0122426Y0096961D01*
X0122242Y0096801D01*
X0122062Y0096636D01*
X0121885Y0096467D01*
X0121713Y0096294D01*
X0121546Y0096116D01*
X0121382Y0095935D01*
X0121223Y0095749D01*
X0121069Y0095560D01*
X0120919Y0095367D01*
X0120775Y0095170D01*
X0120634Y0094970D01*
X0120499Y0094767D01*
X0120369Y0094560D01*
X0120244Y0094350D01*
X0120124Y0094137D01*
X0120010Y0093922D01*
X0119901Y0093703D01*
X0119797Y0093482D01*
X0119698Y0093259D01*
X0119605Y0093033D01*
X0119518Y0092805D01*
X0119436Y0092575D01*
X0119359Y0092343D01*
X0119289Y0092109D01*
X0119224Y0091873D01*
X0119165Y0091636D01*
X0119112Y0091398D01*
X0119064Y0091159D01*
X0119023Y0090918D01*
X0118987Y0090676D01*
X0118957Y0090434D01*
X0118934Y0090191D01*
X0118916Y0089947D01*
X0118904Y0089703D01*
X0118898Y0089459D01*
X0118898Y0089215D01*
X0118904Y0088971D01*
X0118916Y0088727D01*
X0118934Y0088483D01*
X0118957Y0088240D01*
X0118987Y0087998D01*
X0119023Y0087756D01*
X0119064Y0087515D01*
X0119112Y0087276D01*
X0119165Y0087038D01*
X0119224Y0086801D01*
X0119289Y0086565D01*
X0119359Y0086331D01*
X0119436Y0086099D01*
X0119518Y0085869D01*
X0119605Y0085641D01*
X0119698Y0085415D01*
X0119797Y0085192D01*
X0119901Y0084971D01*
X0120010Y0084752D01*
X0120124Y0084537D01*
X0120244Y0084324D01*
X0120369Y0084114D01*
X0120499Y0083907D01*
X0120634Y0083704D01*
X0120775Y0083504D01*
X0120919Y0083307D01*
X0121069Y0083114D01*
X0121223Y0082925D01*
X0121382Y0082739D01*
X0121546Y0082558D01*
X0121713Y0082380D01*
X0121885Y0082207D01*
X0122062Y0082038D01*
X0122242Y0081873D01*
X0122426Y0081713D01*
X0122614Y0081557D01*
X0122806Y0081406D01*
X0123002Y0081260D01*
X0123201Y0081118D01*
X0123403Y0080981D01*
X0123609Y0080850D01*
X0134185Y0080850D02*
X0134391Y0080981D01*
X0134593Y0081118D01*
X0134792Y0081260D01*
X0134988Y0081406D01*
X0135180Y0081557D01*
X0135368Y0081713D01*
X0135552Y0081873D01*
X0135732Y0082038D01*
X0135909Y0082207D01*
X0136081Y0082380D01*
X0136248Y0082558D01*
X0136412Y0082739D01*
X0136571Y0082925D01*
X0136725Y0083114D01*
X0136875Y0083307D01*
X0137019Y0083504D01*
X0137160Y0083704D01*
X0137295Y0083907D01*
X0137425Y0084114D01*
X0137550Y0084324D01*
X0137670Y0084537D01*
X0137784Y0084752D01*
X0137893Y0084971D01*
X0137997Y0085192D01*
X0138096Y0085415D01*
X0138189Y0085641D01*
X0138276Y0085869D01*
X0138358Y0086099D01*
X0138435Y0086331D01*
X0138505Y0086565D01*
X0138570Y0086801D01*
X0138629Y0087038D01*
X0138682Y0087276D01*
X0138730Y0087515D01*
X0138771Y0087756D01*
X0138807Y0087998D01*
X0138837Y0088240D01*
X0138860Y0088483D01*
X0138878Y0088727D01*
X0138890Y0088971D01*
X0138896Y0089215D01*
X0138896Y0089459D01*
X0138890Y0089703D01*
X0138878Y0089947D01*
X0138860Y0090191D01*
X0138837Y0090434D01*
X0138807Y0090676D01*
X0138771Y0090918D01*
X0138730Y0091159D01*
X0138682Y0091398D01*
X0138629Y0091636D01*
X0138570Y0091873D01*
X0138505Y0092109D01*
X0138435Y0092343D01*
X0138358Y0092575D01*
X0138276Y0092805D01*
X0138189Y0093033D01*
X0138096Y0093259D01*
X0137997Y0093482D01*
X0137893Y0093703D01*
X0137784Y0093922D01*
X0137670Y0094137D01*
X0137550Y0094350D01*
X0137425Y0094560D01*
X0137295Y0094767D01*
X0137160Y0094970D01*
X0137019Y0095170D01*
X0136875Y0095367D01*
X0136725Y0095560D01*
X0136571Y0095749D01*
X0136412Y0095935D01*
X0136248Y0096116D01*
X0136081Y0096294D01*
X0135909Y0096467D01*
X0135732Y0096636D01*
X0135552Y0096801D01*
X0135368Y0096961D01*
X0135180Y0097117D01*
X0134988Y0097268D01*
X0134792Y0097414D01*
X0134593Y0097556D01*
X0134391Y0097693D01*
X0134185Y0097824D01*
X0083897Y0062837D02*
X0083897Y0035837D01*
X0083895Y0035777D01*
X0083890Y0035716D01*
X0083881Y0035657D01*
X0083868Y0035598D01*
X0083852Y0035539D01*
X0083832Y0035482D01*
X0083809Y0035427D01*
X0083782Y0035372D01*
X0083753Y0035320D01*
X0083720Y0035269D01*
X0083684Y0035220D01*
X0083646Y0035174D01*
X0083604Y0035130D01*
X0083560Y0035088D01*
X0083514Y0035050D01*
X0083465Y0035014D01*
X0083414Y0034981D01*
X0083362Y0034952D01*
X0083307Y0034925D01*
X0083252Y0034902D01*
X0083195Y0034882D01*
X0083136Y0034866D01*
X0083077Y0034853D01*
X0083018Y0034844D01*
X0082957Y0034839D01*
X0082897Y0034837D01*
X0074897Y0034837D01*
X0074837Y0034839D01*
X0074776Y0034844D01*
X0074717Y0034853D01*
X0074658Y0034866D01*
X0074599Y0034882D01*
X0074542Y0034902D01*
X0074487Y0034925D01*
X0074432Y0034952D01*
X0074380Y0034981D01*
X0074329Y0035014D01*
X0074280Y0035050D01*
X0074234Y0035088D01*
X0074190Y0035130D01*
X0074148Y0035174D01*
X0074110Y0035220D01*
X0074074Y0035269D01*
X0074041Y0035320D01*
X0074012Y0035372D01*
X0073985Y0035427D01*
X0073962Y0035482D01*
X0073942Y0035539D01*
X0073926Y0035598D01*
X0073913Y0035657D01*
X0073904Y0035716D01*
X0073899Y0035777D01*
X0073897Y0035837D01*
X0073897Y0062837D01*
X0073899Y0062897D01*
X0073904Y0062958D01*
X0073913Y0063017D01*
X0073926Y0063076D01*
X0073942Y0063135D01*
X0073962Y0063192D01*
X0073985Y0063247D01*
X0074012Y0063302D01*
X0074041Y0063354D01*
X0074074Y0063405D01*
X0074110Y0063454D01*
X0074148Y0063500D01*
X0074190Y0063544D01*
X0074234Y0063586D01*
X0074280Y0063624D01*
X0074329Y0063660D01*
X0074380Y0063693D01*
X0074432Y0063722D01*
X0074487Y0063749D01*
X0074542Y0063772D01*
X0074599Y0063792D01*
X0074658Y0063808D01*
X0074717Y0063821D01*
X0074776Y0063830D01*
X0074837Y0063835D01*
X0074897Y0063837D01*
X0082897Y0063837D01*
X0082957Y0063835D01*
X0083018Y0063830D01*
X0083077Y0063821D01*
X0083136Y0063808D01*
X0083195Y0063792D01*
X0083252Y0063772D01*
X0083307Y0063749D01*
X0083362Y0063722D01*
X0083414Y0063693D01*
X0083465Y0063660D01*
X0083514Y0063624D01*
X0083560Y0063586D01*
X0083604Y0063544D01*
X0083646Y0063500D01*
X0083684Y0063454D01*
X0083720Y0063405D01*
X0083753Y0063354D01*
X0083782Y0063302D01*
X0083809Y0063247D01*
X0083832Y0063192D01*
X0083852Y0063135D01*
X0083868Y0063076D01*
X0083881Y0063017D01*
X0083890Y0062958D01*
X0083895Y0062897D01*
X0083897Y0062837D01*
X0078897Y0055337D02*
X0078897Y0050537D01*
X0078897Y0048037D02*
X0078897Y0043337D01*
X0071397Y0050337D02*
X0071397Y0058337D01*
X0071395Y0058397D01*
X0071390Y0058458D01*
X0071381Y0058517D01*
X0071368Y0058576D01*
X0071352Y0058635D01*
X0071332Y0058692D01*
X0071309Y0058747D01*
X0071282Y0058802D01*
X0071253Y0058854D01*
X0071220Y0058905D01*
X0071184Y0058954D01*
X0071146Y0059000D01*
X0071104Y0059044D01*
X0071060Y0059086D01*
X0071014Y0059124D01*
X0070965Y0059160D01*
X0070914Y0059193D01*
X0070862Y0059222D01*
X0070807Y0059249D01*
X0070752Y0059272D01*
X0070695Y0059292D01*
X0070636Y0059308D01*
X0070577Y0059321D01*
X0070518Y0059330D01*
X0070457Y0059335D01*
X0070397Y0059337D01*
X0067397Y0059337D01*
X0067337Y0059335D01*
X0067276Y0059330D01*
X0067217Y0059321D01*
X0067158Y0059308D01*
X0067099Y0059292D01*
X0067042Y0059272D01*
X0066987Y0059249D01*
X0066932Y0059222D01*
X0066880Y0059193D01*
X0066829Y0059160D01*
X0066780Y0059124D01*
X0066734Y0059086D01*
X0066690Y0059044D01*
X0066648Y0059000D01*
X0066610Y0058954D01*
X0066574Y0058905D01*
X0066541Y0058854D01*
X0066512Y0058802D01*
X0066485Y0058747D01*
X0066462Y0058692D01*
X0066442Y0058635D01*
X0066426Y0058576D01*
X0066413Y0058517D01*
X0066404Y0058458D01*
X0066399Y0058397D01*
X0066397Y0058337D01*
X0066397Y0050337D01*
X0066399Y0050277D01*
X0066404Y0050216D01*
X0066413Y0050157D01*
X0066426Y0050098D01*
X0066442Y0050039D01*
X0066462Y0049982D01*
X0066485Y0049927D01*
X0066512Y0049872D01*
X0066541Y0049820D01*
X0066574Y0049769D01*
X0066610Y0049720D01*
X0066648Y0049674D01*
X0066690Y0049630D01*
X0066734Y0049588D01*
X0066780Y0049550D01*
X0066829Y0049514D01*
X0066880Y0049481D01*
X0066932Y0049452D01*
X0066987Y0049425D01*
X0067042Y0049402D01*
X0067099Y0049382D01*
X0067158Y0049366D01*
X0067217Y0049353D01*
X0067276Y0049344D01*
X0067337Y0049339D01*
X0067397Y0049337D01*
X0070397Y0049337D01*
X0070457Y0049339D01*
X0070518Y0049344D01*
X0070577Y0049353D01*
X0070636Y0049366D01*
X0070695Y0049382D01*
X0070752Y0049402D01*
X0070807Y0049425D01*
X0070862Y0049452D01*
X0070914Y0049481D01*
X0070965Y0049514D01*
X0071014Y0049550D01*
X0071060Y0049588D01*
X0071104Y0049630D01*
X0071146Y0049674D01*
X0071184Y0049720D01*
X0071220Y0049769D01*
X0071253Y0049820D01*
X0071282Y0049872D01*
X0071309Y0049927D01*
X0071332Y0049982D01*
X0071352Y0050039D01*
X0071368Y0050098D01*
X0071381Y0050157D01*
X0071390Y0050216D01*
X0071395Y0050277D01*
X0071397Y0050337D01*
X0071395Y0050277D01*
X0071390Y0050216D01*
X0071381Y0050157D01*
X0071368Y0050098D01*
X0071352Y0050039D01*
X0071332Y0049982D01*
X0071309Y0049927D01*
X0071282Y0049872D01*
X0071253Y0049820D01*
X0071220Y0049769D01*
X0071184Y0049720D01*
X0071146Y0049674D01*
X0071104Y0049630D01*
X0071060Y0049588D01*
X0071014Y0049550D01*
X0070965Y0049514D01*
X0070914Y0049481D01*
X0070862Y0049452D01*
X0070807Y0049425D01*
X0070752Y0049402D01*
X0070695Y0049382D01*
X0070636Y0049366D01*
X0070577Y0049353D01*
X0070518Y0049344D01*
X0070457Y0049339D01*
X0070397Y0049337D01*
X0067397Y0049337D02*
X0067337Y0049339D01*
X0067276Y0049344D01*
X0067217Y0049353D01*
X0067158Y0049366D01*
X0067099Y0049382D01*
X0067042Y0049402D01*
X0066987Y0049425D01*
X0066932Y0049452D01*
X0066880Y0049481D01*
X0066829Y0049514D01*
X0066780Y0049550D01*
X0066734Y0049588D01*
X0066690Y0049630D01*
X0066648Y0049674D01*
X0066610Y0049720D01*
X0066574Y0049769D01*
X0066541Y0049820D01*
X0066512Y0049872D01*
X0066485Y0049927D01*
X0066462Y0049982D01*
X0066442Y0050039D01*
X0066426Y0050098D01*
X0066413Y0050157D01*
X0066404Y0050216D01*
X0066399Y0050277D01*
X0066397Y0050337D01*
X0066397Y0058337D02*
X0066399Y0058397D01*
X0066404Y0058458D01*
X0066413Y0058517D01*
X0066426Y0058576D01*
X0066442Y0058635D01*
X0066462Y0058692D01*
X0066485Y0058747D01*
X0066512Y0058802D01*
X0066541Y0058854D01*
X0066574Y0058905D01*
X0066610Y0058954D01*
X0066648Y0059000D01*
X0066690Y0059044D01*
X0066734Y0059086D01*
X0066780Y0059124D01*
X0066829Y0059160D01*
X0066880Y0059193D01*
X0066932Y0059222D01*
X0066987Y0059249D01*
X0067042Y0059272D01*
X0067099Y0059292D01*
X0067158Y0059308D01*
X0067217Y0059321D01*
X0067276Y0059330D01*
X0067337Y0059335D01*
X0067397Y0059337D01*
X0070397Y0059337D02*
X0070457Y0059335D01*
X0070518Y0059330D01*
X0070577Y0059321D01*
X0070636Y0059308D01*
X0070695Y0059292D01*
X0070752Y0059272D01*
X0070807Y0059249D01*
X0070862Y0059222D01*
X0070914Y0059193D01*
X0070965Y0059160D01*
X0071014Y0059124D01*
X0071060Y0059086D01*
X0071104Y0059044D01*
X0071146Y0059000D01*
X0071184Y0058954D01*
X0071220Y0058905D01*
X0071253Y0058854D01*
X0071282Y0058802D01*
X0071309Y0058747D01*
X0071332Y0058692D01*
X0071352Y0058635D01*
X0071368Y0058576D01*
X0071381Y0058517D01*
X0071390Y0058458D01*
X0071395Y0058397D01*
X0071397Y0058337D01*
X0118897Y0059337D02*
X0118897Y0056637D01*
X0202897Y0038837D02*
X0203897Y0038837D01*
X0203897Y0039837D01*
X0203897Y0038837D02*
X0204897Y0038837D01*
X0203897Y0038837D02*
X0203897Y0037837D01*
X0208897Y0037837D02*
X0208897Y0041337D01*
X0203897Y0041337D01*
X0203897Y0043337D01*
X0213897Y0043337D01*
X0213897Y0041337D01*
X0208897Y0041337D01*
X0198897Y0044337D02*
X0198900Y0044582D01*
X0198909Y0044828D01*
X0198924Y0045073D01*
X0198945Y0045317D01*
X0198972Y0045561D01*
X0199005Y0045804D01*
X0199044Y0046047D01*
X0199089Y0046288D01*
X0199140Y0046528D01*
X0199197Y0046767D01*
X0199259Y0047004D01*
X0199328Y0047240D01*
X0199402Y0047474D01*
X0199482Y0047706D01*
X0199567Y0047936D01*
X0199658Y0048164D01*
X0199755Y0048389D01*
X0199857Y0048613D01*
X0199965Y0048833D01*
X0200078Y0049051D01*
X0200196Y0049266D01*
X0200320Y0049478D01*
X0200448Y0049687D01*
X0200582Y0049893D01*
X0200721Y0050095D01*
X0200865Y0050294D01*
X0201014Y0050489D01*
X0201167Y0050681D01*
X0201325Y0050869D01*
X0201487Y0051053D01*
X0201655Y0051232D01*
X0201826Y0051408D01*
X0202002Y0051579D01*
X0202181Y0051747D01*
X0202365Y0051909D01*
X0202553Y0052067D01*
X0202745Y0052220D01*
X0202940Y0052369D01*
X0203139Y0052513D01*
X0203341Y0052652D01*
X0203547Y0052786D01*
X0203756Y0052914D01*
X0203968Y0053038D01*
X0204183Y0053156D01*
X0204401Y0053269D01*
X0204621Y0053377D01*
X0204845Y0053479D01*
X0205070Y0053576D01*
X0205298Y0053667D01*
X0205528Y0053752D01*
X0205760Y0053832D01*
X0205994Y0053906D01*
X0206230Y0053975D01*
X0206467Y0054037D01*
X0206706Y0054094D01*
X0206946Y0054145D01*
X0207187Y0054190D01*
X0207430Y0054229D01*
X0207673Y0054262D01*
X0207917Y0054289D01*
X0208161Y0054310D01*
X0208406Y0054325D01*
X0208652Y0054334D01*
X0208897Y0054337D01*
X0209142Y0054334D01*
X0209388Y0054325D01*
X0209633Y0054310D01*
X0209877Y0054289D01*
X0210121Y0054262D01*
X0210364Y0054229D01*
X0210607Y0054190D01*
X0210848Y0054145D01*
X0211088Y0054094D01*
X0211327Y0054037D01*
X0211564Y0053975D01*
X0211800Y0053906D01*
X0212034Y0053832D01*
X0212266Y0053752D01*
X0212496Y0053667D01*
X0212724Y0053576D01*
X0212949Y0053479D01*
X0213173Y0053377D01*
X0213393Y0053269D01*
X0213611Y0053156D01*
X0213826Y0053038D01*
X0214038Y0052914D01*
X0214247Y0052786D01*
X0214453Y0052652D01*
X0214655Y0052513D01*
X0214854Y0052369D01*
X0215049Y0052220D01*
X0215241Y0052067D01*
X0215429Y0051909D01*
X0215613Y0051747D01*
X0215792Y0051579D01*
X0215968Y0051408D01*
X0216139Y0051232D01*
X0216307Y0051053D01*
X0216469Y0050869D01*
X0216627Y0050681D01*
X0216780Y0050489D01*
X0216929Y0050294D01*
X0217073Y0050095D01*
X0217212Y0049893D01*
X0217346Y0049687D01*
X0217474Y0049478D01*
X0217598Y0049266D01*
X0217716Y0049051D01*
X0217829Y0048833D01*
X0217937Y0048613D01*
X0218039Y0048389D01*
X0218136Y0048164D01*
X0218227Y0047936D01*
X0218312Y0047706D01*
X0218392Y0047474D01*
X0218466Y0047240D01*
X0218535Y0047004D01*
X0218597Y0046767D01*
X0218654Y0046528D01*
X0218705Y0046288D01*
X0218750Y0046047D01*
X0218789Y0045804D01*
X0218822Y0045561D01*
X0218849Y0045317D01*
X0218870Y0045073D01*
X0218885Y0044828D01*
X0218894Y0044582D01*
X0218897Y0044337D01*
X0218894Y0044092D01*
X0218885Y0043846D01*
X0218870Y0043601D01*
X0218849Y0043357D01*
X0218822Y0043113D01*
X0218789Y0042870D01*
X0218750Y0042627D01*
X0218705Y0042386D01*
X0218654Y0042146D01*
X0218597Y0041907D01*
X0218535Y0041670D01*
X0218466Y0041434D01*
X0218392Y0041200D01*
X0218312Y0040968D01*
X0218227Y0040738D01*
X0218136Y0040510D01*
X0218039Y0040285D01*
X0217937Y0040061D01*
X0217829Y0039841D01*
X0217716Y0039623D01*
X0217598Y0039408D01*
X0217474Y0039196D01*
X0217346Y0038987D01*
X0217212Y0038781D01*
X0217073Y0038579D01*
X0216929Y0038380D01*
X0216780Y0038185D01*
X0216627Y0037993D01*
X0216469Y0037805D01*
X0216307Y0037621D01*
X0216139Y0037442D01*
X0215968Y0037266D01*
X0215792Y0037095D01*
X0215613Y0036927D01*
X0215429Y0036765D01*
X0215241Y0036607D01*
X0215049Y0036454D01*
X0214854Y0036305D01*
X0214655Y0036161D01*
X0214453Y0036022D01*
X0214247Y0035888D01*
X0214038Y0035760D01*
X0213826Y0035636D01*
X0213611Y0035518D01*
X0213393Y0035405D01*
X0213173Y0035297D01*
X0212949Y0035195D01*
X0212724Y0035098D01*
X0212496Y0035007D01*
X0212266Y0034922D01*
X0212034Y0034842D01*
X0211800Y0034768D01*
X0211564Y0034699D01*
X0211327Y0034637D01*
X0211088Y0034580D01*
X0210848Y0034529D01*
X0210607Y0034484D01*
X0210364Y0034445D01*
X0210121Y0034412D01*
X0209877Y0034385D01*
X0209633Y0034364D01*
X0209388Y0034349D01*
X0209142Y0034340D01*
X0208897Y0034337D01*
X0208652Y0034340D01*
X0208406Y0034349D01*
X0208161Y0034364D01*
X0207917Y0034385D01*
X0207673Y0034412D01*
X0207430Y0034445D01*
X0207187Y0034484D01*
X0206946Y0034529D01*
X0206706Y0034580D01*
X0206467Y0034637D01*
X0206230Y0034699D01*
X0205994Y0034768D01*
X0205760Y0034842D01*
X0205528Y0034922D01*
X0205298Y0035007D01*
X0205070Y0035098D01*
X0204845Y0035195D01*
X0204621Y0035297D01*
X0204401Y0035405D01*
X0204183Y0035518D01*
X0203968Y0035636D01*
X0203756Y0035760D01*
X0203547Y0035888D01*
X0203341Y0036022D01*
X0203139Y0036161D01*
X0202940Y0036305D01*
X0202745Y0036454D01*
X0202553Y0036607D01*
X0202365Y0036765D01*
X0202181Y0036927D01*
X0202002Y0037095D01*
X0201826Y0037266D01*
X0201655Y0037442D01*
X0201487Y0037621D01*
X0201325Y0037805D01*
X0201167Y0037993D01*
X0201014Y0038185D01*
X0200865Y0038380D01*
X0200721Y0038579D01*
X0200582Y0038781D01*
X0200448Y0038987D01*
X0200320Y0039196D01*
X0200196Y0039408D01*
X0200078Y0039623D01*
X0199965Y0039841D01*
X0199857Y0040061D01*
X0199755Y0040285D01*
X0199658Y0040510D01*
X0199567Y0040738D01*
X0199482Y0040968D01*
X0199402Y0041200D01*
X0199328Y0041434D01*
X0199259Y0041670D01*
X0199197Y0041907D01*
X0199140Y0042146D01*
X0199089Y0042386D01*
X0199044Y0042627D01*
X0199005Y0042870D01*
X0198972Y0043113D01*
X0198945Y0043357D01*
X0198924Y0043601D01*
X0198909Y0043846D01*
X0198900Y0044092D01*
X0198897Y0044337D01*
X0208897Y0046837D02*
X0208897Y0050837D01*
D13*
X0187036Y0083787D02*
X0186552Y0083787D01*
X0186552Y0084754D01*
X0187036Y0085238D01*
X0187036Y0086206D01*
X0186552Y0086689D01*
X0185585Y0086689D01*
X0185101Y0086206D01*
X0185101Y0085238D01*
X0185585Y0084754D01*
X0185585Y0083787D01*
X0185101Y0083787D01*
X0184097Y0083787D02*
X0182645Y0084754D01*
X0184097Y0085722D01*
X0182645Y0086689D02*
X0182645Y0083787D01*
X0181634Y0084271D02*
X0181150Y0083787D01*
X0180183Y0083787D01*
X0179699Y0084271D01*
X0178709Y0084271D02*
X0178709Y0083787D01*
X0178226Y0083787D01*
X0178226Y0084271D01*
X0178709Y0084271D01*
X0177214Y0084271D02*
X0176730Y0083787D01*
X0175763Y0083787D01*
X0175279Y0084271D01*
X0176247Y0085238D02*
X0176730Y0085238D01*
X0177214Y0084754D01*
X0177214Y0084271D01*
X0176730Y0085238D02*
X0177214Y0085722D01*
X0177214Y0086206D01*
X0176730Y0086689D01*
X0175763Y0086689D01*
X0175279Y0086206D01*
X0179699Y0086206D02*
X0180183Y0086689D01*
X0181150Y0086689D01*
X0181634Y0086206D01*
X0181634Y0085722D01*
X0181150Y0085238D01*
X0181634Y0084754D01*
X0181634Y0084271D01*
X0181150Y0085238D02*
X0180666Y0085238D01*
X0181727Y0097887D02*
X0183661Y0099338D01*
X0181727Y0100789D01*
X0182154Y0101987D02*
X0182154Y0104889D01*
X0183606Y0104889D01*
X0184089Y0104406D01*
X0184089Y0103438D01*
X0183606Y0102954D01*
X0182154Y0102954D01*
X0183122Y0102954D02*
X0184089Y0101987D01*
X0184673Y0100789D02*
X0184673Y0098854D01*
X0185641Y0097887D01*
X0186608Y0098854D01*
X0186608Y0100789D01*
X0186552Y0101987D02*
X0186552Y0104889D01*
X0185101Y0103438D01*
X0187036Y0103438D01*
X0188587Y0100789D02*
X0189555Y0099822D01*
X0189555Y0097887D01*
X0190566Y0097887D02*
X0192501Y0097887D01*
X0193513Y0098371D02*
X0193996Y0097887D01*
X0194964Y0097887D01*
X0195448Y0098371D01*
X0195448Y0100789D01*
X0196459Y0100789D02*
X0196459Y0097887D01*
X0198394Y0097887D01*
X0197427Y0099338D02*
X0196459Y0099338D01*
X0196459Y0100789D02*
X0198394Y0100789D01*
X0193513Y0100789D02*
X0193513Y0098371D01*
X0190566Y0097887D02*
X0190566Y0100789D01*
X0189555Y0099338D02*
X0187620Y0099338D01*
X0187620Y0099822D02*
X0188587Y0100789D01*
X0187620Y0099822D02*
X0187620Y0097887D01*
X0198897Y0109337D02*
X0198897Y0112587D01*
X0196147Y0112587D01*
X0196147Y0113787D01*
X0201647Y0113787D01*
X0201647Y0112587D01*
X0198897Y0112587D01*
X0195647Y0111837D02*
X0195147Y0111837D01*
X0194647Y0111837D01*
X0195147Y0111837D02*
X0195147Y0112337D01*
X0195147Y0111837D02*
X0195147Y0111337D01*
X0196147Y0114887D02*
X0201647Y0114887D01*
X0201647Y0116087D01*
X0198897Y0116087D01*
X0196147Y0116087D01*
X0196147Y0114887D01*
X0198897Y0116087D02*
X0198897Y0119337D01*
X0238344Y0152487D02*
X0240813Y0154339D01*
X0238344Y0156190D01*
X0242027Y0156190D02*
X0244496Y0152487D01*
X0244496Y0156190D01*
X0245710Y0154956D02*
X0246945Y0156190D01*
X0248179Y0154956D01*
X0248179Y0152487D01*
X0249393Y0152487D02*
X0249393Y0156190D01*
X0250628Y0154956D01*
X0251862Y0156190D01*
X0251862Y0152487D01*
X0253077Y0152487D02*
X0255545Y0152487D01*
X0254311Y0154339D02*
X0253077Y0154339D01*
X0253077Y0156190D02*
X0253077Y0152487D01*
X0248179Y0154339D02*
X0245710Y0154339D01*
X0245710Y0154956D02*
X0245710Y0152487D01*
X0242027Y0152487D02*
X0242027Y0156190D01*
X0253077Y0156190D02*
X0255545Y0156190D01*
X0143394Y0094389D02*
X0141459Y0094389D01*
X0141459Y0091487D01*
X0143394Y0091487D01*
X0142427Y0092938D02*
X0141459Y0092938D01*
X0140448Y0091971D02*
X0140448Y0094389D01*
X0138513Y0094389D02*
X0138513Y0091971D01*
X0138996Y0091487D01*
X0139964Y0091487D01*
X0140448Y0091971D01*
X0137501Y0091487D02*
X0135566Y0091487D01*
X0135566Y0094389D01*
X0134555Y0093422D02*
X0134555Y0091487D01*
X0134555Y0092938D02*
X0132620Y0092938D01*
X0132620Y0093422D02*
X0133587Y0094389D01*
X0134555Y0093422D01*
X0132620Y0093422D02*
X0132620Y0091487D01*
X0131608Y0092454D02*
X0130641Y0091487D01*
X0129673Y0092454D01*
X0129673Y0094389D01*
X0128661Y0092938D02*
X0126727Y0091487D01*
X0128661Y0092938D02*
X0126727Y0094389D01*
X0131608Y0094389D02*
X0131608Y0092454D01*
X0113394Y0104987D02*
X0111459Y0104987D01*
X0111459Y0107889D01*
X0113394Y0107889D01*
X0112427Y0106438D02*
X0111459Y0106438D01*
X0110448Y0105471D02*
X0110448Y0107889D01*
X0108513Y0107889D02*
X0108513Y0105471D01*
X0108996Y0104987D01*
X0109964Y0104987D01*
X0110448Y0105471D01*
X0107501Y0104987D02*
X0105566Y0104987D01*
X0105566Y0107889D01*
X0104555Y0106922D02*
X0104555Y0104987D01*
X0104555Y0106438D02*
X0102620Y0106438D01*
X0102620Y0106922D02*
X0103587Y0107889D01*
X0104555Y0106922D01*
X0102620Y0106922D02*
X0102620Y0104987D01*
X0101608Y0105954D02*
X0101608Y0107889D01*
X0101608Y0105954D02*
X0100641Y0104987D01*
X0099673Y0105954D01*
X0099673Y0107889D01*
X0098661Y0106438D02*
X0096727Y0104987D01*
X0098661Y0106438D02*
X0096727Y0107889D01*
X0102988Y0131987D02*
X0105457Y0133839D01*
X0102988Y0135690D01*
X0106671Y0135690D02*
X0109140Y0131987D01*
X0109140Y0135690D01*
X0110354Y0134456D02*
X0111588Y0135690D01*
X0112823Y0134456D01*
X0112823Y0131987D01*
X0114037Y0131987D02*
X0114037Y0135690D01*
X0115272Y0134456D01*
X0116506Y0135690D01*
X0116506Y0131987D01*
X0117720Y0131987D02*
X0120189Y0131987D01*
X0117720Y0131987D02*
X0117720Y0135690D01*
X0120189Y0135690D01*
X0118955Y0133839D02*
X0117720Y0133839D01*
X0112823Y0133839D02*
X0110354Y0133839D01*
X0110354Y0134456D02*
X0110354Y0131987D01*
X0106671Y0131987D02*
X0106671Y0135690D01*
X0098897Y0139337D02*
X0090447Y0139337D01*
X0092397Y0136837D02*
X0092495Y0136839D01*
X0092593Y0136845D01*
X0092691Y0136854D01*
X0092788Y0136868D01*
X0092885Y0136885D01*
X0092981Y0136906D01*
X0093076Y0136931D01*
X0093170Y0136959D01*
X0093262Y0136992D01*
X0093354Y0137027D01*
X0093444Y0137067D01*
X0093532Y0137109D01*
X0093619Y0137156D01*
X0093703Y0137205D01*
X0093786Y0137258D01*
X0093866Y0137314D01*
X0093945Y0137374D01*
X0094021Y0137436D01*
X0094094Y0137501D01*
X0094165Y0137569D01*
X0094233Y0137640D01*
X0094298Y0137713D01*
X0094360Y0137789D01*
X0094420Y0137868D01*
X0094476Y0137948D01*
X0094529Y0138031D01*
X0094578Y0138115D01*
X0094625Y0138202D01*
X0094667Y0138290D01*
X0094707Y0138380D01*
X0094742Y0138472D01*
X0094775Y0138564D01*
X0094803Y0138658D01*
X0094828Y0138753D01*
X0094849Y0138849D01*
X0094866Y0138946D01*
X0094880Y0139043D01*
X0094889Y0139141D01*
X0094895Y0139239D01*
X0094897Y0139337D01*
X0094895Y0139435D01*
X0094889Y0139533D01*
X0094880Y0139631D01*
X0094866Y0139728D01*
X0094849Y0139825D01*
X0094828Y0139921D01*
X0094803Y0140016D01*
X0094775Y0140110D01*
X0094742Y0140202D01*
X0094707Y0140294D01*
X0094667Y0140384D01*
X0094625Y0140472D01*
X0094578Y0140559D01*
X0094529Y0140643D01*
X0094476Y0140726D01*
X0094420Y0140806D01*
X0094360Y0140885D01*
X0094298Y0140961D01*
X0094233Y0141034D01*
X0094165Y0141105D01*
X0094094Y0141173D01*
X0094021Y0141238D01*
X0093945Y0141300D01*
X0093866Y0141360D01*
X0093786Y0141416D01*
X0093703Y0141469D01*
X0093619Y0141518D01*
X0093532Y0141565D01*
X0093444Y0141607D01*
X0093354Y0141647D01*
X0093262Y0141682D01*
X0093170Y0141715D01*
X0093076Y0141743D01*
X0092981Y0141768D01*
X0092885Y0141789D01*
X0092788Y0141806D01*
X0092691Y0141820D01*
X0092593Y0141829D01*
X0092495Y0141835D01*
X0092397Y0141837D01*
X0085397Y0141837D01*
X0085299Y0141835D01*
X0085201Y0141829D01*
X0085103Y0141820D01*
X0085006Y0141806D01*
X0084909Y0141789D01*
X0084813Y0141768D01*
X0084718Y0141743D01*
X0084624Y0141715D01*
X0084532Y0141682D01*
X0084440Y0141647D01*
X0084350Y0141607D01*
X0084262Y0141565D01*
X0084175Y0141518D01*
X0084091Y0141469D01*
X0084008Y0141416D01*
X0083928Y0141360D01*
X0083849Y0141300D01*
X0083773Y0141238D01*
X0083700Y0141173D01*
X0083629Y0141105D01*
X0083561Y0141034D01*
X0083496Y0140961D01*
X0083434Y0140885D01*
X0083374Y0140806D01*
X0083318Y0140726D01*
X0083265Y0140643D01*
X0083216Y0140559D01*
X0083169Y0140472D01*
X0083127Y0140384D01*
X0083087Y0140294D01*
X0083052Y0140202D01*
X0083019Y0140110D01*
X0082991Y0140016D01*
X0082966Y0139921D01*
X0082945Y0139825D01*
X0082928Y0139728D01*
X0082914Y0139631D01*
X0082905Y0139533D01*
X0082899Y0139435D01*
X0082897Y0139337D01*
X0078897Y0139337D02*
X0087397Y0139337D01*
X0085397Y0136837D02*
X0085299Y0136839D01*
X0085201Y0136845D01*
X0085103Y0136854D01*
X0085006Y0136868D01*
X0084909Y0136885D01*
X0084813Y0136906D01*
X0084718Y0136931D01*
X0084624Y0136959D01*
X0084532Y0136992D01*
X0084440Y0137027D01*
X0084350Y0137067D01*
X0084262Y0137109D01*
X0084175Y0137156D01*
X0084091Y0137205D01*
X0084008Y0137258D01*
X0083928Y0137314D01*
X0083849Y0137374D01*
X0083773Y0137436D01*
X0083700Y0137501D01*
X0083629Y0137569D01*
X0083561Y0137640D01*
X0083496Y0137713D01*
X0083434Y0137789D01*
X0083374Y0137868D01*
X0083318Y0137948D01*
X0083265Y0138031D01*
X0083216Y0138115D01*
X0083169Y0138202D01*
X0083127Y0138290D01*
X0083087Y0138380D01*
X0083052Y0138472D01*
X0083019Y0138564D01*
X0082991Y0138658D01*
X0082966Y0138753D01*
X0082945Y0138849D01*
X0082928Y0138946D01*
X0082914Y0139043D01*
X0082905Y0139141D01*
X0082899Y0139239D01*
X0082897Y0139337D01*
X0082899Y0139435D01*
X0082905Y0139533D01*
X0082914Y0139631D01*
X0082928Y0139728D01*
X0082945Y0139825D01*
X0082966Y0139921D01*
X0082991Y0140016D01*
X0083019Y0140110D01*
X0083052Y0140202D01*
X0083087Y0140294D01*
X0083127Y0140384D01*
X0083169Y0140472D01*
X0083216Y0140559D01*
X0083265Y0140643D01*
X0083318Y0140726D01*
X0083374Y0140806D01*
X0083434Y0140885D01*
X0083496Y0140961D01*
X0083561Y0141034D01*
X0083629Y0141105D01*
X0083700Y0141173D01*
X0083773Y0141238D01*
X0083849Y0141300D01*
X0083928Y0141360D01*
X0084008Y0141416D01*
X0084091Y0141469D01*
X0084175Y0141518D01*
X0084262Y0141565D01*
X0084350Y0141607D01*
X0084440Y0141647D01*
X0084532Y0141682D01*
X0084624Y0141715D01*
X0084718Y0141743D01*
X0084813Y0141768D01*
X0084909Y0141789D01*
X0085006Y0141806D01*
X0085103Y0141820D01*
X0085201Y0141829D01*
X0085299Y0141835D01*
X0085397Y0141837D01*
X0085397Y0136837D02*
X0092397Y0136837D01*
X0128200Y0112189D02*
X0130135Y0110738D01*
X0128200Y0109287D01*
X0131146Y0109287D02*
X0131146Y0112189D01*
X0133081Y0109287D01*
X0133081Y0112189D01*
X0134093Y0111222D02*
X0135060Y0112189D01*
X0136028Y0111222D01*
X0136028Y0109287D01*
X0137039Y0109287D02*
X0137039Y0112189D01*
X0138007Y0111222D01*
X0138974Y0112189D01*
X0138974Y0109287D01*
X0139986Y0109287D02*
X0139986Y0112189D01*
X0141921Y0112189D01*
X0140953Y0110738D02*
X0139986Y0110738D01*
X0139986Y0109287D02*
X0141921Y0109287D01*
X0136028Y0110738D02*
X0134093Y0110738D01*
X0134093Y0111222D02*
X0134093Y0109287D01*
X0134752Y0069389D02*
X0132817Y0069389D01*
X0132817Y0066487D01*
X0134752Y0066487D01*
X0133785Y0067938D02*
X0132817Y0067938D01*
X0131806Y0066971D02*
X0131806Y0069389D01*
X0129871Y0069389D02*
X0129871Y0066971D01*
X0130355Y0066487D01*
X0131322Y0066487D01*
X0131806Y0066971D01*
X0128859Y0066487D02*
X0126924Y0066487D01*
X0126924Y0069389D01*
X0125913Y0068422D02*
X0125913Y0066487D01*
X0125913Y0067938D02*
X0123978Y0067938D01*
X0123978Y0068422D02*
X0124945Y0069389D01*
X0125913Y0068422D01*
X0123978Y0068422D02*
X0123978Y0066487D01*
X0122966Y0067454D02*
X0122966Y0069389D01*
X0121031Y0069389D02*
X0121031Y0067454D01*
X0121999Y0066487D01*
X0122966Y0067454D01*
X0120020Y0067938D02*
X0118085Y0066487D01*
X0120020Y0067938D02*
X0118085Y0069389D01*
X0092833Y0068190D02*
X0090364Y0068190D01*
X0090364Y0064487D01*
X0092833Y0064487D01*
X0091599Y0066339D02*
X0090364Y0066339D01*
X0089150Y0068190D02*
X0089150Y0064487D01*
X0086681Y0064487D02*
X0086681Y0068190D01*
X0087915Y0066956D01*
X0089150Y0068190D01*
X0085467Y0066956D02*
X0085467Y0064487D01*
X0085467Y0066339D02*
X0082998Y0066339D01*
X0082998Y0066956D02*
X0084232Y0068190D01*
X0085467Y0066956D01*
X0082998Y0066956D02*
X0082998Y0064487D01*
X0081784Y0064487D02*
X0081784Y0068190D01*
X0079315Y0068190D02*
X0081784Y0064487D01*
X0079315Y0064487D02*
X0079315Y0068190D01*
X0078100Y0066339D02*
X0075632Y0064487D01*
X0078100Y0066339D02*
X0075632Y0068190D01*
D14*
X0078962Y0089373D03*
D15*
X0095897Y0060537D02*
X0098897Y0060537D01*
X0101897Y0060537D01*
X0101897Y0058037D02*
X0098897Y0058037D01*
X0095897Y0058037D01*
X0081397Y0050537D02*
X0078897Y0050537D01*
X0076397Y0050537D01*
X0076397Y0048037D02*
X0078897Y0048037D01*
X0081397Y0048037D01*
D16*
X0087897Y0139337D03*
X0089897Y0139337D03*
D17*
X0118897Y0055837D03*
D18*
X0198897Y0115487D03*
D19*
X0128897Y0087337D03*
D20*
X0108897Y0074437D02*
X0108897Y0069337D01*
X0108897Y0134237D02*
X0108897Y0139337D01*
D21*
X0108897Y0112837D03*
D22*
X0108897Y0128437D03*
X0108897Y0080237D03*
D23*
X0068897Y0069337D02*
X0068897Y0060837D01*
X0068897Y0047837D02*
X0068897Y0039337D01*
X0118897Y0039337D02*
X0127397Y0039337D01*
X0140397Y0039337D02*
X0148897Y0039337D01*
X0188897Y0039337D02*
X0188897Y0047837D01*
X0198897Y0059337D02*
X0198897Y0067837D01*
X0188897Y0069337D02*
X0188897Y0060837D01*
X0188897Y0079337D02*
X0188897Y0087837D01*
X0198897Y0089337D02*
X0198897Y0080837D01*
X0188897Y0100837D02*
X0188897Y0109337D01*
X0128897Y0109337D02*
X0128897Y0117837D01*
X0128897Y0130837D02*
X0128897Y0139337D01*
D24*
X0128897Y0130087D03*
X0128897Y0118587D03*
X0188897Y0100087D03*
X0188897Y0088587D03*
X0198897Y0080087D03*
X0198897Y0068587D03*
X0188897Y0060087D03*
X0188897Y0048587D03*
X0068897Y0048587D03*
X0068897Y0060087D03*
D25*
X0163012Y0030376D02*
X0163012Y0016361D01*
X0164980Y0015180D01*
X0172815Y0015180D01*
X0174783Y0016361D01*
X0174783Y0030376D01*
X0174390Y0029589D02*
X0163405Y0027522D01*
X0163405Y0025554D02*
X0174390Y0027620D01*
X0174390Y0025652D02*
X0163405Y0023585D01*
X0163405Y0021617D02*
X0174390Y0023683D01*
X0174390Y0021715D02*
X0163405Y0019648D01*
X0163405Y0017680D02*
X0174390Y0019746D01*
X0174390Y0017935D02*
X0164291Y0015869D01*
X0164980Y0015180D02*
X0164980Y0001400D01*
X0172815Y0001400D01*
X0172815Y0015180D01*
D26*
X0139647Y0039337D03*
X0128147Y0039337D03*
D27*
X0208897Y0046337D03*
D28*
X0218394Y0142037D02*
X0220796Y0143839D01*
X0218394Y0145640D01*
X0222077Y0145640D02*
X0224479Y0142037D01*
X0224479Y0145640D01*
X0225760Y0144439D02*
X0226961Y0145640D01*
X0228162Y0144439D01*
X0228162Y0142037D01*
X0229443Y0142037D02*
X0229443Y0145640D01*
X0230644Y0144439D01*
X0231845Y0145640D01*
X0231845Y0142037D01*
X0233127Y0142037D02*
X0235529Y0142037D01*
X0234328Y0143839D02*
X0233127Y0143839D01*
X0233127Y0145640D02*
X0233127Y0142037D01*
X0233127Y0145640D02*
X0235529Y0145640D01*
X0228162Y0143839D02*
X0225760Y0143839D01*
X0225760Y0144439D02*
X0225760Y0142037D01*
X0222077Y0142037D02*
X0222077Y0145640D01*
M02*
