%
M48
M72
T01C0.02362
T02C0.02756
T03C0.03150
T04C0.03200
T05C0.03543
T06C0.04331
T07C0.04400
%
T01
X10943Y14593
X12943Y15593
X15943Y14593
X17943Y15593
T02
X19943Y9593
X19943Y8593
X19943Y6593
X19943Y5593
X3943Y16593
T03
X6943Y15593
X7943Y11593
T04
X4943Y8593
X6943Y8593
X6943Y10593
X8943Y10593
X8943Y11593
X9943Y11593
X10943Y12593
X9943Y14593
X8943Y15593
X5943Y15593
X5943Y16593
X4943Y11593
X8943Y8593
X10943Y9593
X12943Y9593
X12943Y7593
X14943Y7593
X15943Y9593
X16943Y9593
X17943Y9593
X17943Y6593
X15943Y5593
X10943Y7593
X16943Y12593
X19943Y15593
X19943Y16593
X19943Y17593
T05
X15943Y13593
X15943Y12593
X15943Y11593
X15943Y10593
X14943Y8593
X12943Y8593
X12943Y10593
X12943Y11593
X12943Y12593
X12943Y13593
X10943Y8593
X15943Y6593
T06
X5943Y12593
X3943Y12593
X5943Y14593
T07
X19943Y13593
X19943Y12593
X19943Y11593
M30
