%
M48
M72
T01C0.02756
%
T01
X1100Y1100
X2100Y2100
X3100Y2100
X5100Y2100
X6100Y2100
X6100Y1100
X7100Y1100
X7100Y3100
X6100Y3100
X7100Y4100
X8100Y3100
X9100Y4100
X10100Y3100
X10100Y2100
X10100Y1100
X12100Y1100
X13100Y1100
X15100Y1100
X13100Y3100
X12100Y3100
X12100Y4100
X12100Y5100
X9100Y6100
X8100Y5100
X6100Y6100
X7100Y8100
X8100Y8100
X9100Y8100
X12100Y8100
X15100Y8100
X15100Y5100
X15100Y4100
X4100Y4100
X2100Y5100
X1100Y5100
X1100Y4100
X1100Y7100
X1100Y8100
M30
