%
M48
M72
T01C0.03543
%
T01
X1290Y1233
X1290Y2233
X3290Y2233
X4290Y2233
X5290Y2233
X7290Y3233
X8290Y3233
X9290Y3233
X8290Y4233
X8290Y5233
X9290Y5233
X9290Y6233
X8290Y6233
X6290Y6233
X5290Y6233
X4290Y6233
X3290Y6233
X2290Y5233
X2290Y4233
X3290Y4233
X4290Y4233
X5290Y4233
X6290Y4233
X3290Y3233
X2290Y3233
X8290Y2233
X8290Y1233
X12290Y1233
X12290Y2233
X14290Y1233
X15290Y1233
X11290Y3233
X11290Y5233
X13290Y5233
X13290Y6233
X15290Y6233
X15290Y5233
X15290Y5233
M30
