G75*
%MOIN*%
%OFA0B0*%
%FSLAX25Y25*%
%IPPOS*%
%LPD*%
%AMOC8*
5,1,8,0,0,1.08239X$1,22.5*
%
%ADD10C,0.00600*%
%ADD11C,0.00200*%
%ADD12R,0.06400X0.01000*%
%ADD13C,0.00400*%
%ADD14R,0.01000X0.04000*%
%ADD15C,0.00300*%
%ADD16C,0.00500*%
%ADD17R,0.01500X0.02000*%
%ADD18C,0.00800*%
%ADD19C,0.01600*%
%ADD20R,0.02000X0.01500*%
D10*
X0073627Y0051337D02*
X0073627Y0052837D01*
X0074127Y0053337D01*
X0074127Y0067337D01*
X0073627Y0067837D01*
X0073627Y0069337D01*
X0073629Y0069397D01*
X0073634Y0069458D01*
X0073643Y0069517D01*
X0073656Y0069576D01*
X0073672Y0069635D01*
X0073692Y0069692D01*
X0073715Y0069747D01*
X0073742Y0069802D01*
X0073771Y0069854D01*
X0073804Y0069905D01*
X0073840Y0069954D01*
X0073878Y0070000D01*
X0073920Y0070044D01*
X0073964Y0070086D01*
X0074010Y0070124D01*
X0074059Y0070160D01*
X0074110Y0070193D01*
X0074162Y0070222D01*
X0074217Y0070249D01*
X0074272Y0070272D01*
X0074329Y0070292D01*
X0074388Y0070308D01*
X0074447Y0070321D01*
X0074506Y0070330D01*
X0074567Y0070335D01*
X0074627Y0070337D01*
X0080627Y0070337D01*
X0080687Y0070335D01*
X0080748Y0070330D01*
X0080807Y0070321D01*
X0080866Y0070308D01*
X0080925Y0070292D01*
X0080982Y0070272D01*
X0081037Y0070249D01*
X0081092Y0070222D01*
X0081144Y0070193D01*
X0081195Y0070160D01*
X0081244Y0070124D01*
X0081290Y0070086D01*
X0081334Y0070044D01*
X0081376Y0070000D01*
X0081414Y0069954D01*
X0081450Y0069905D01*
X0081483Y0069854D01*
X0081512Y0069802D01*
X0081539Y0069747D01*
X0081562Y0069692D01*
X0081582Y0069635D01*
X0081598Y0069576D01*
X0081611Y0069517D01*
X0081620Y0069458D01*
X0081625Y0069397D01*
X0081627Y0069337D01*
X0081627Y0067837D01*
X0081127Y0067337D01*
X0081127Y0053337D01*
X0081627Y0052837D01*
X0081627Y0051337D01*
X0081625Y0051277D01*
X0081620Y0051216D01*
X0081611Y0051157D01*
X0081598Y0051098D01*
X0081582Y0051039D01*
X0081562Y0050982D01*
X0081539Y0050927D01*
X0081512Y0050872D01*
X0081483Y0050820D01*
X0081450Y0050769D01*
X0081414Y0050720D01*
X0081376Y0050674D01*
X0081334Y0050630D01*
X0081290Y0050588D01*
X0081244Y0050550D01*
X0081195Y0050514D01*
X0081144Y0050481D01*
X0081092Y0050452D01*
X0081037Y0050425D01*
X0080982Y0050402D01*
X0080925Y0050382D01*
X0080866Y0050366D01*
X0080807Y0050353D01*
X0080748Y0050344D01*
X0080687Y0050339D01*
X0080627Y0050337D01*
X0074627Y0050337D01*
X0074567Y0050339D01*
X0074506Y0050344D01*
X0074447Y0050353D01*
X0074388Y0050366D01*
X0074329Y0050382D01*
X0074272Y0050402D01*
X0074217Y0050425D01*
X0074162Y0050452D01*
X0074110Y0050481D01*
X0074059Y0050514D01*
X0074010Y0050550D01*
X0073964Y0050588D01*
X0073920Y0050630D01*
X0073878Y0050674D01*
X0073840Y0050720D01*
X0073804Y0050769D01*
X0073771Y0050820D01*
X0073742Y0050872D01*
X0073715Y0050927D01*
X0073692Y0050982D01*
X0073672Y0051039D01*
X0073656Y0051098D01*
X0073643Y0051157D01*
X0073634Y0051216D01*
X0073629Y0051277D01*
X0073627Y0051337D01*
X0073629Y0051277D01*
X0073634Y0051216D01*
X0073643Y0051157D01*
X0073656Y0051098D01*
X0073672Y0051039D01*
X0073692Y0050982D01*
X0073715Y0050927D01*
X0073742Y0050872D01*
X0073771Y0050820D01*
X0073804Y0050769D01*
X0073840Y0050720D01*
X0073878Y0050674D01*
X0073920Y0050630D01*
X0073964Y0050588D01*
X0074010Y0050550D01*
X0074059Y0050514D01*
X0074110Y0050481D01*
X0074162Y0050452D01*
X0074217Y0050425D01*
X0074272Y0050402D01*
X0074329Y0050382D01*
X0074388Y0050366D01*
X0074447Y0050353D01*
X0074506Y0050344D01*
X0074567Y0050339D01*
X0074627Y0050337D01*
X0080627Y0050337D02*
X0080687Y0050339D01*
X0080748Y0050344D01*
X0080807Y0050353D01*
X0080866Y0050366D01*
X0080925Y0050382D01*
X0080982Y0050402D01*
X0081037Y0050425D01*
X0081092Y0050452D01*
X0081144Y0050481D01*
X0081195Y0050514D01*
X0081244Y0050550D01*
X0081290Y0050588D01*
X0081334Y0050630D01*
X0081376Y0050674D01*
X0081414Y0050720D01*
X0081450Y0050769D01*
X0081483Y0050820D01*
X0081512Y0050872D01*
X0081539Y0050927D01*
X0081562Y0050982D01*
X0081582Y0051039D01*
X0081598Y0051098D01*
X0081611Y0051157D01*
X0081620Y0051216D01*
X0081625Y0051277D01*
X0081627Y0051337D01*
X0084627Y0060337D02*
X0090627Y0060337D01*
X0090687Y0060339D01*
X0090748Y0060344D01*
X0090807Y0060353D01*
X0090866Y0060366D01*
X0090925Y0060382D01*
X0090982Y0060402D01*
X0091037Y0060425D01*
X0091092Y0060452D01*
X0091144Y0060481D01*
X0091195Y0060514D01*
X0091244Y0060550D01*
X0091290Y0060588D01*
X0091334Y0060630D01*
X0091376Y0060674D01*
X0091414Y0060720D01*
X0091450Y0060769D01*
X0091483Y0060820D01*
X0091512Y0060872D01*
X0091539Y0060927D01*
X0091562Y0060982D01*
X0091582Y0061039D01*
X0091598Y0061098D01*
X0091611Y0061157D01*
X0091620Y0061216D01*
X0091625Y0061277D01*
X0091627Y0061337D01*
X0091627Y0062837D01*
X0091127Y0063337D01*
X0091127Y0077337D01*
X0091627Y0077837D01*
X0091627Y0079337D01*
X0091625Y0079397D01*
X0091620Y0079458D01*
X0091611Y0079517D01*
X0091598Y0079576D01*
X0091582Y0079635D01*
X0091562Y0079692D01*
X0091539Y0079747D01*
X0091512Y0079802D01*
X0091483Y0079854D01*
X0091450Y0079905D01*
X0091414Y0079954D01*
X0091376Y0080000D01*
X0091334Y0080044D01*
X0091290Y0080086D01*
X0091244Y0080124D01*
X0091195Y0080160D01*
X0091144Y0080193D01*
X0091092Y0080222D01*
X0091037Y0080249D01*
X0090982Y0080272D01*
X0090925Y0080292D01*
X0090866Y0080308D01*
X0090807Y0080321D01*
X0090748Y0080330D01*
X0090687Y0080335D01*
X0090627Y0080337D01*
X0084627Y0080337D01*
X0084567Y0080335D01*
X0084506Y0080330D01*
X0084447Y0080321D01*
X0084388Y0080308D01*
X0084329Y0080292D01*
X0084272Y0080272D01*
X0084217Y0080249D01*
X0084162Y0080222D01*
X0084110Y0080193D01*
X0084059Y0080160D01*
X0084010Y0080124D01*
X0083964Y0080086D01*
X0083920Y0080044D01*
X0083878Y0080000D01*
X0083840Y0079954D01*
X0083804Y0079905D01*
X0083771Y0079854D01*
X0083742Y0079802D01*
X0083715Y0079747D01*
X0083692Y0079692D01*
X0083672Y0079635D01*
X0083656Y0079576D01*
X0083643Y0079517D01*
X0083634Y0079458D01*
X0083629Y0079397D01*
X0083627Y0079337D01*
X0083627Y0077837D01*
X0084127Y0077337D01*
X0084127Y0063337D01*
X0083627Y0062837D01*
X0083627Y0061337D01*
X0083629Y0061277D01*
X0083634Y0061216D01*
X0083643Y0061157D01*
X0083656Y0061098D01*
X0083672Y0061039D01*
X0083692Y0060982D01*
X0083715Y0060927D01*
X0083742Y0060872D01*
X0083771Y0060820D01*
X0083804Y0060769D01*
X0083840Y0060720D01*
X0083878Y0060674D01*
X0083920Y0060630D01*
X0083964Y0060588D01*
X0084010Y0060550D01*
X0084059Y0060514D01*
X0084110Y0060481D01*
X0084162Y0060452D01*
X0084217Y0060425D01*
X0084272Y0060402D01*
X0084329Y0060382D01*
X0084388Y0060366D01*
X0084447Y0060353D01*
X0084506Y0060344D01*
X0084567Y0060339D01*
X0084627Y0060337D01*
X0084567Y0060339D01*
X0084506Y0060344D01*
X0084447Y0060353D01*
X0084388Y0060366D01*
X0084329Y0060382D01*
X0084272Y0060402D01*
X0084217Y0060425D01*
X0084162Y0060452D01*
X0084110Y0060481D01*
X0084059Y0060514D01*
X0084010Y0060550D01*
X0083964Y0060588D01*
X0083920Y0060630D01*
X0083878Y0060674D01*
X0083840Y0060720D01*
X0083804Y0060769D01*
X0083771Y0060820D01*
X0083742Y0060872D01*
X0083715Y0060927D01*
X0083692Y0060982D01*
X0083672Y0061039D01*
X0083656Y0061098D01*
X0083643Y0061157D01*
X0083634Y0061216D01*
X0083629Y0061277D01*
X0083627Y0061337D01*
X0090627Y0060337D02*
X0090687Y0060339D01*
X0090748Y0060344D01*
X0090807Y0060353D01*
X0090866Y0060366D01*
X0090925Y0060382D01*
X0090982Y0060402D01*
X0091037Y0060425D01*
X0091092Y0060452D01*
X0091144Y0060481D01*
X0091195Y0060514D01*
X0091244Y0060550D01*
X0091290Y0060588D01*
X0091334Y0060630D01*
X0091376Y0060674D01*
X0091414Y0060720D01*
X0091450Y0060769D01*
X0091483Y0060820D01*
X0091512Y0060872D01*
X0091539Y0060927D01*
X0091562Y0060982D01*
X0091582Y0061039D01*
X0091598Y0061098D01*
X0091611Y0061157D01*
X0091620Y0061216D01*
X0091625Y0061277D01*
X0091627Y0061337D01*
X0101127Y0055337D02*
X0124127Y0055337D01*
X0124127Y0095337D01*
X0116627Y0095337D01*
X0116625Y0095211D01*
X0116619Y0095086D01*
X0116609Y0094961D01*
X0116595Y0094836D01*
X0116578Y0094711D01*
X0116556Y0094587D01*
X0116531Y0094464D01*
X0116501Y0094342D01*
X0116468Y0094221D01*
X0116431Y0094101D01*
X0116391Y0093982D01*
X0116346Y0093865D01*
X0116298Y0093748D01*
X0116246Y0093634D01*
X0116191Y0093521D01*
X0116132Y0093410D01*
X0116070Y0093301D01*
X0116004Y0093194D01*
X0115935Y0093089D01*
X0115863Y0092986D01*
X0115788Y0092885D01*
X0115709Y0092787D01*
X0115627Y0092692D01*
X0115543Y0092599D01*
X0115455Y0092509D01*
X0115365Y0092421D01*
X0115272Y0092337D01*
X0115177Y0092255D01*
X0115079Y0092176D01*
X0114978Y0092101D01*
X0114875Y0092029D01*
X0114770Y0091960D01*
X0114663Y0091894D01*
X0114554Y0091832D01*
X0114443Y0091773D01*
X0114330Y0091718D01*
X0114216Y0091666D01*
X0114099Y0091618D01*
X0113982Y0091573D01*
X0113863Y0091533D01*
X0113743Y0091496D01*
X0113622Y0091463D01*
X0113500Y0091433D01*
X0113377Y0091408D01*
X0113253Y0091386D01*
X0113128Y0091369D01*
X0113003Y0091355D01*
X0112878Y0091345D01*
X0112753Y0091339D01*
X0112627Y0091337D01*
X0112501Y0091339D01*
X0112376Y0091345D01*
X0112251Y0091355D01*
X0112126Y0091369D01*
X0112001Y0091386D01*
X0111877Y0091408D01*
X0111754Y0091433D01*
X0111632Y0091463D01*
X0111511Y0091496D01*
X0111391Y0091533D01*
X0111272Y0091573D01*
X0111155Y0091618D01*
X0111038Y0091666D01*
X0110924Y0091718D01*
X0110811Y0091773D01*
X0110700Y0091832D01*
X0110591Y0091894D01*
X0110484Y0091960D01*
X0110379Y0092029D01*
X0110276Y0092101D01*
X0110175Y0092176D01*
X0110077Y0092255D01*
X0109982Y0092337D01*
X0109889Y0092421D01*
X0109799Y0092509D01*
X0109711Y0092599D01*
X0109627Y0092692D01*
X0109545Y0092787D01*
X0109466Y0092885D01*
X0109391Y0092986D01*
X0109319Y0093089D01*
X0109250Y0093194D01*
X0109184Y0093301D01*
X0109122Y0093410D01*
X0109063Y0093521D01*
X0109008Y0093634D01*
X0108956Y0093748D01*
X0108908Y0093865D01*
X0108863Y0093982D01*
X0108823Y0094101D01*
X0108786Y0094221D01*
X0108753Y0094342D01*
X0108723Y0094464D01*
X0108698Y0094587D01*
X0108676Y0094711D01*
X0108659Y0094836D01*
X0108645Y0094961D01*
X0108635Y0095086D01*
X0108629Y0095211D01*
X0108627Y0095337D01*
X0101127Y0095337D01*
X0101127Y0055337D01*
X0081627Y0069337D02*
X0081625Y0069397D01*
X0081620Y0069458D01*
X0081611Y0069517D01*
X0081598Y0069576D01*
X0081582Y0069635D01*
X0081562Y0069692D01*
X0081539Y0069747D01*
X0081512Y0069802D01*
X0081483Y0069854D01*
X0081450Y0069905D01*
X0081414Y0069954D01*
X0081376Y0070000D01*
X0081334Y0070044D01*
X0081290Y0070086D01*
X0081244Y0070124D01*
X0081195Y0070160D01*
X0081144Y0070193D01*
X0081092Y0070222D01*
X0081037Y0070249D01*
X0080982Y0070272D01*
X0080925Y0070292D01*
X0080866Y0070308D01*
X0080807Y0070321D01*
X0080748Y0070330D01*
X0080687Y0070335D01*
X0080627Y0070337D01*
X0074627Y0070337D02*
X0074567Y0070335D01*
X0074506Y0070330D01*
X0074447Y0070321D01*
X0074388Y0070308D01*
X0074329Y0070292D01*
X0074272Y0070272D01*
X0074217Y0070249D01*
X0074162Y0070222D01*
X0074110Y0070193D01*
X0074059Y0070160D01*
X0074010Y0070124D01*
X0073964Y0070086D01*
X0073920Y0070044D01*
X0073878Y0070000D01*
X0073840Y0069954D01*
X0073804Y0069905D01*
X0073771Y0069854D01*
X0073742Y0069802D01*
X0073715Y0069747D01*
X0073692Y0069692D01*
X0073672Y0069635D01*
X0073656Y0069576D01*
X0073643Y0069517D01*
X0073634Y0069458D01*
X0073629Y0069397D01*
X0073627Y0069337D01*
X0063377Y0069337D02*
X0062627Y0069337D01*
X0062627Y0068587D01*
X0062627Y0069337D02*
X0061877Y0069337D01*
X0062627Y0069337D02*
X0062627Y0070087D01*
X0049627Y0065337D02*
X0049629Y0065533D01*
X0049637Y0065730D01*
X0049649Y0065926D01*
X0049666Y0066121D01*
X0049687Y0066316D01*
X0049714Y0066511D01*
X0049745Y0066705D01*
X0049781Y0066898D01*
X0049821Y0067090D01*
X0049867Y0067281D01*
X0049917Y0067471D01*
X0049971Y0067659D01*
X0050031Y0067846D01*
X0050095Y0068032D01*
X0050163Y0068216D01*
X0050236Y0068398D01*
X0050313Y0068579D01*
X0050395Y0068757D01*
X0050481Y0068934D01*
X0050572Y0069108D01*
X0050666Y0069280D01*
X0050765Y0069450D01*
X0050868Y0069617D01*
X0050975Y0069782D01*
X0051086Y0069943D01*
X0051201Y0070103D01*
X0051320Y0070259D01*
X0051443Y0070412D01*
X0051569Y0070562D01*
X0051699Y0070709D01*
X0051833Y0070853D01*
X0051970Y0070994D01*
X0052111Y0071131D01*
X0052255Y0071265D01*
X0052402Y0071395D01*
X0052552Y0071521D01*
X0052705Y0071644D01*
X0052861Y0071763D01*
X0053021Y0071878D01*
X0053182Y0071989D01*
X0053347Y0072096D01*
X0053514Y0072199D01*
X0053684Y0072298D01*
X0053856Y0072392D01*
X0054030Y0072483D01*
X0054207Y0072569D01*
X0054385Y0072651D01*
X0054566Y0072728D01*
X0054748Y0072801D01*
X0054932Y0072869D01*
X0055118Y0072933D01*
X0055305Y0072993D01*
X0055493Y0073047D01*
X0055683Y0073097D01*
X0055874Y0073143D01*
X0056066Y0073183D01*
X0056259Y0073219D01*
X0056453Y0073250D01*
X0056648Y0073277D01*
X0056843Y0073298D01*
X0057038Y0073315D01*
X0057234Y0073327D01*
X0057431Y0073335D01*
X0057627Y0073337D01*
X0057823Y0073335D01*
X0058020Y0073327D01*
X0058216Y0073315D01*
X0058411Y0073298D01*
X0058606Y0073277D01*
X0058801Y0073250D01*
X0058995Y0073219D01*
X0059188Y0073183D01*
X0059380Y0073143D01*
X0059571Y0073097D01*
X0059761Y0073047D01*
X0059949Y0072993D01*
X0060136Y0072933D01*
X0060322Y0072869D01*
X0060506Y0072801D01*
X0060688Y0072728D01*
X0060869Y0072651D01*
X0061047Y0072569D01*
X0061224Y0072483D01*
X0061398Y0072392D01*
X0061570Y0072298D01*
X0061740Y0072199D01*
X0061907Y0072096D01*
X0062072Y0071989D01*
X0062233Y0071878D01*
X0062393Y0071763D01*
X0062549Y0071644D01*
X0062702Y0071521D01*
X0062852Y0071395D01*
X0062999Y0071265D01*
X0063143Y0071131D01*
X0063284Y0070994D01*
X0063421Y0070853D01*
X0063555Y0070709D01*
X0063685Y0070562D01*
X0063811Y0070412D01*
X0063934Y0070259D01*
X0064053Y0070103D01*
X0064168Y0069943D01*
X0064279Y0069782D01*
X0064386Y0069617D01*
X0064489Y0069450D01*
X0064588Y0069280D01*
X0064682Y0069108D01*
X0064773Y0068934D01*
X0064859Y0068757D01*
X0064941Y0068579D01*
X0065018Y0068398D01*
X0065091Y0068216D01*
X0065159Y0068032D01*
X0065223Y0067846D01*
X0065283Y0067659D01*
X0065337Y0067471D01*
X0065387Y0067281D01*
X0065433Y0067090D01*
X0065473Y0066898D01*
X0065509Y0066705D01*
X0065540Y0066511D01*
X0065567Y0066316D01*
X0065588Y0066121D01*
X0065605Y0065926D01*
X0065617Y0065730D01*
X0065625Y0065533D01*
X0065627Y0065337D01*
X0065625Y0065141D01*
X0065617Y0064944D01*
X0065605Y0064748D01*
X0065588Y0064553D01*
X0065567Y0064358D01*
X0065540Y0064163D01*
X0065509Y0063969D01*
X0065473Y0063776D01*
X0065433Y0063584D01*
X0065387Y0063393D01*
X0065337Y0063203D01*
X0065283Y0063015D01*
X0065223Y0062828D01*
X0065159Y0062642D01*
X0065091Y0062458D01*
X0065018Y0062276D01*
X0064941Y0062095D01*
X0064859Y0061917D01*
X0064773Y0061740D01*
X0064682Y0061566D01*
X0064588Y0061394D01*
X0064489Y0061224D01*
X0064386Y0061057D01*
X0064279Y0060892D01*
X0064168Y0060731D01*
X0064053Y0060571D01*
X0063934Y0060415D01*
X0063811Y0060262D01*
X0063685Y0060112D01*
X0063555Y0059965D01*
X0063421Y0059821D01*
X0063284Y0059680D01*
X0063143Y0059543D01*
X0062999Y0059409D01*
X0062852Y0059279D01*
X0062702Y0059153D01*
X0062549Y0059030D01*
X0062393Y0058911D01*
X0062233Y0058796D01*
X0062072Y0058685D01*
X0061907Y0058578D01*
X0061740Y0058475D01*
X0061570Y0058376D01*
X0061398Y0058282D01*
X0061224Y0058191D01*
X0061047Y0058105D01*
X0060869Y0058023D01*
X0060688Y0057946D01*
X0060506Y0057873D01*
X0060322Y0057805D01*
X0060136Y0057741D01*
X0059949Y0057681D01*
X0059761Y0057627D01*
X0059571Y0057577D01*
X0059380Y0057531D01*
X0059188Y0057491D01*
X0058995Y0057455D01*
X0058801Y0057424D01*
X0058606Y0057397D01*
X0058411Y0057376D01*
X0058216Y0057359D01*
X0058020Y0057347D01*
X0057823Y0057339D01*
X0057627Y0057337D01*
X0057431Y0057339D01*
X0057234Y0057347D01*
X0057038Y0057359D01*
X0056843Y0057376D01*
X0056648Y0057397D01*
X0056453Y0057424D01*
X0056259Y0057455D01*
X0056066Y0057491D01*
X0055874Y0057531D01*
X0055683Y0057577D01*
X0055493Y0057627D01*
X0055305Y0057681D01*
X0055118Y0057741D01*
X0054932Y0057805D01*
X0054748Y0057873D01*
X0054566Y0057946D01*
X0054385Y0058023D01*
X0054207Y0058105D01*
X0054030Y0058191D01*
X0053856Y0058282D01*
X0053684Y0058376D01*
X0053514Y0058475D01*
X0053347Y0058578D01*
X0053182Y0058685D01*
X0053021Y0058796D01*
X0052861Y0058911D01*
X0052705Y0059030D01*
X0052552Y0059153D01*
X0052402Y0059279D01*
X0052255Y0059409D01*
X0052111Y0059543D01*
X0051970Y0059680D01*
X0051833Y0059821D01*
X0051699Y0059965D01*
X0051569Y0060112D01*
X0051443Y0060262D01*
X0051320Y0060415D01*
X0051201Y0060571D01*
X0051086Y0060731D01*
X0050975Y0060892D01*
X0050868Y0061057D01*
X0050765Y0061224D01*
X0050666Y0061394D01*
X0050572Y0061566D01*
X0050481Y0061740D01*
X0050395Y0061917D01*
X0050313Y0062095D01*
X0050236Y0062276D01*
X0050163Y0062458D01*
X0050095Y0062642D01*
X0050031Y0062828D01*
X0049971Y0063015D01*
X0049917Y0063203D01*
X0049867Y0063393D01*
X0049821Y0063584D01*
X0049781Y0063776D01*
X0049745Y0063969D01*
X0049714Y0064163D01*
X0049687Y0064358D01*
X0049666Y0064553D01*
X0049649Y0064748D01*
X0049637Y0064944D01*
X0049629Y0065141D01*
X0049627Y0065337D01*
X0059627Y0085337D02*
X0059629Y0085533D01*
X0059637Y0085730D01*
X0059649Y0085926D01*
X0059666Y0086121D01*
X0059687Y0086316D01*
X0059714Y0086511D01*
X0059745Y0086705D01*
X0059781Y0086898D01*
X0059821Y0087090D01*
X0059867Y0087281D01*
X0059917Y0087471D01*
X0059971Y0087659D01*
X0060031Y0087846D01*
X0060095Y0088032D01*
X0060163Y0088216D01*
X0060236Y0088398D01*
X0060313Y0088579D01*
X0060395Y0088757D01*
X0060481Y0088934D01*
X0060572Y0089108D01*
X0060666Y0089280D01*
X0060765Y0089450D01*
X0060868Y0089617D01*
X0060975Y0089782D01*
X0061086Y0089943D01*
X0061201Y0090103D01*
X0061320Y0090259D01*
X0061443Y0090412D01*
X0061569Y0090562D01*
X0061699Y0090709D01*
X0061833Y0090853D01*
X0061970Y0090994D01*
X0062111Y0091131D01*
X0062255Y0091265D01*
X0062402Y0091395D01*
X0062552Y0091521D01*
X0062705Y0091644D01*
X0062861Y0091763D01*
X0063021Y0091878D01*
X0063182Y0091989D01*
X0063347Y0092096D01*
X0063514Y0092199D01*
X0063684Y0092298D01*
X0063856Y0092392D01*
X0064030Y0092483D01*
X0064207Y0092569D01*
X0064385Y0092651D01*
X0064566Y0092728D01*
X0064748Y0092801D01*
X0064932Y0092869D01*
X0065118Y0092933D01*
X0065305Y0092993D01*
X0065493Y0093047D01*
X0065683Y0093097D01*
X0065874Y0093143D01*
X0066066Y0093183D01*
X0066259Y0093219D01*
X0066453Y0093250D01*
X0066648Y0093277D01*
X0066843Y0093298D01*
X0067038Y0093315D01*
X0067234Y0093327D01*
X0067431Y0093335D01*
X0067627Y0093337D01*
X0067823Y0093335D01*
X0068020Y0093327D01*
X0068216Y0093315D01*
X0068411Y0093298D01*
X0068606Y0093277D01*
X0068801Y0093250D01*
X0068995Y0093219D01*
X0069188Y0093183D01*
X0069380Y0093143D01*
X0069571Y0093097D01*
X0069761Y0093047D01*
X0069949Y0092993D01*
X0070136Y0092933D01*
X0070322Y0092869D01*
X0070506Y0092801D01*
X0070688Y0092728D01*
X0070869Y0092651D01*
X0071047Y0092569D01*
X0071224Y0092483D01*
X0071398Y0092392D01*
X0071570Y0092298D01*
X0071740Y0092199D01*
X0071907Y0092096D01*
X0072072Y0091989D01*
X0072233Y0091878D01*
X0072393Y0091763D01*
X0072549Y0091644D01*
X0072702Y0091521D01*
X0072852Y0091395D01*
X0072999Y0091265D01*
X0073143Y0091131D01*
X0073284Y0090994D01*
X0073421Y0090853D01*
X0073555Y0090709D01*
X0073685Y0090562D01*
X0073811Y0090412D01*
X0073934Y0090259D01*
X0074053Y0090103D01*
X0074168Y0089943D01*
X0074279Y0089782D01*
X0074386Y0089617D01*
X0074489Y0089450D01*
X0074588Y0089280D01*
X0074682Y0089108D01*
X0074773Y0088934D01*
X0074859Y0088757D01*
X0074941Y0088579D01*
X0075018Y0088398D01*
X0075091Y0088216D01*
X0075159Y0088032D01*
X0075223Y0087846D01*
X0075283Y0087659D01*
X0075337Y0087471D01*
X0075387Y0087281D01*
X0075433Y0087090D01*
X0075473Y0086898D01*
X0075509Y0086705D01*
X0075540Y0086511D01*
X0075567Y0086316D01*
X0075588Y0086121D01*
X0075605Y0085926D01*
X0075617Y0085730D01*
X0075625Y0085533D01*
X0075627Y0085337D01*
X0075625Y0085141D01*
X0075617Y0084944D01*
X0075605Y0084748D01*
X0075588Y0084553D01*
X0075567Y0084358D01*
X0075540Y0084163D01*
X0075509Y0083969D01*
X0075473Y0083776D01*
X0075433Y0083584D01*
X0075387Y0083393D01*
X0075337Y0083203D01*
X0075283Y0083015D01*
X0075223Y0082828D01*
X0075159Y0082642D01*
X0075091Y0082458D01*
X0075018Y0082276D01*
X0074941Y0082095D01*
X0074859Y0081917D01*
X0074773Y0081740D01*
X0074682Y0081566D01*
X0074588Y0081394D01*
X0074489Y0081224D01*
X0074386Y0081057D01*
X0074279Y0080892D01*
X0074168Y0080731D01*
X0074053Y0080571D01*
X0073934Y0080415D01*
X0073811Y0080262D01*
X0073685Y0080112D01*
X0073555Y0079965D01*
X0073421Y0079821D01*
X0073284Y0079680D01*
X0073143Y0079543D01*
X0072999Y0079409D01*
X0072852Y0079279D01*
X0072702Y0079153D01*
X0072549Y0079030D01*
X0072393Y0078911D01*
X0072233Y0078796D01*
X0072072Y0078685D01*
X0071907Y0078578D01*
X0071740Y0078475D01*
X0071570Y0078376D01*
X0071398Y0078282D01*
X0071224Y0078191D01*
X0071047Y0078105D01*
X0070869Y0078023D01*
X0070688Y0077946D01*
X0070506Y0077873D01*
X0070322Y0077805D01*
X0070136Y0077741D01*
X0069949Y0077681D01*
X0069761Y0077627D01*
X0069571Y0077577D01*
X0069380Y0077531D01*
X0069188Y0077491D01*
X0068995Y0077455D01*
X0068801Y0077424D01*
X0068606Y0077397D01*
X0068411Y0077376D01*
X0068216Y0077359D01*
X0068020Y0077347D01*
X0067823Y0077339D01*
X0067627Y0077337D01*
X0067431Y0077339D01*
X0067234Y0077347D01*
X0067038Y0077359D01*
X0066843Y0077376D01*
X0066648Y0077397D01*
X0066453Y0077424D01*
X0066259Y0077455D01*
X0066066Y0077491D01*
X0065874Y0077531D01*
X0065683Y0077577D01*
X0065493Y0077627D01*
X0065305Y0077681D01*
X0065118Y0077741D01*
X0064932Y0077805D01*
X0064748Y0077873D01*
X0064566Y0077946D01*
X0064385Y0078023D01*
X0064207Y0078105D01*
X0064030Y0078191D01*
X0063856Y0078282D01*
X0063684Y0078376D01*
X0063514Y0078475D01*
X0063347Y0078578D01*
X0063182Y0078685D01*
X0063021Y0078796D01*
X0062861Y0078911D01*
X0062705Y0079030D01*
X0062552Y0079153D01*
X0062402Y0079279D01*
X0062255Y0079409D01*
X0062111Y0079543D01*
X0061970Y0079680D01*
X0061833Y0079821D01*
X0061699Y0079965D01*
X0061569Y0080112D01*
X0061443Y0080262D01*
X0061320Y0080415D01*
X0061201Y0080571D01*
X0061086Y0080731D01*
X0060975Y0080892D01*
X0060868Y0081057D01*
X0060765Y0081224D01*
X0060666Y0081394D01*
X0060572Y0081566D01*
X0060481Y0081740D01*
X0060395Y0081917D01*
X0060313Y0082095D01*
X0060236Y0082276D01*
X0060163Y0082458D01*
X0060095Y0082642D01*
X0060031Y0082828D01*
X0059971Y0083015D01*
X0059917Y0083203D01*
X0059867Y0083393D01*
X0059821Y0083584D01*
X0059781Y0083776D01*
X0059745Y0083969D01*
X0059714Y0084163D01*
X0059687Y0084358D01*
X0059666Y0084553D01*
X0059649Y0084748D01*
X0059637Y0084944D01*
X0059629Y0085141D01*
X0059627Y0085337D01*
X0062627Y0088587D02*
X0062627Y0089337D01*
X0063377Y0089337D01*
X0062627Y0089337D02*
X0062627Y0090087D01*
X0062627Y0089337D02*
X0061877Y0089337D01*
X0068627Y0096337D02*
X0070127Y0096337D01*
X0070627Y0096837D01*
X0084627Y0096837D01*
X0085127Y0096337D01*
X0086627Y0096337D01*
X0086687Y0096339D01*
X0086748Y0096344D01*
X0086807Y0096353D01*
X0086866Y0096366D01*
X0086925Y0096382D01*
X0086982Y0096402D01*
X0087037Y0096425D01*
X0087092Y0096452D01*
X0087144Y0096481D01*
X0087195Y0096514D01*
X0087244Y0096550D01*
X0087290Y0096588D01*
X0087334Y0096630D01*
X0087376Y0096674D01*
X0087414Y0096720D01*
X0087450Y0096769D01*
X0087483Y0096820D01*
X0087512Y0096872D01*
X0087539Y0096927D01*
X0087562Y0096982D01*
X0087582Y0097039D01*
X0087598Y0097098D01*
X0087611Y0097157D01*
X0087620Y0097216D01*
X0087625Y0097277D01*
X0087627Y0097337D01*
X0087627Y0103337D01*
X0087625Y0103397D01*
X0087620Y0103458D01*
X0087611Y0103517D01*
X0087598Y0103576D01*
X0087582Y0103635D01*
X0087562Y0103692D01*
X0087539Y0103747D01*
X0087512Y0103802D01*
X0087483Y0103854D01*
X0087450Y0103905D01*
X0087414Y0103954D01*
X0087376Y0104000D01*
X0087334Y0104044D01*
X0087290Y0104086D01*
X0087244Y0104124D01*
X0087195Y0104160D01*
X0087144Y0104193D01*
X0087092Y0104222D01*
X0087037Y0104249D01*
X0086982Y0104272D01*
X0086925Y0104292D01*
X0086866Y0104308D01*
X0086807Y0104321D01*
X0086748Y0104330D01*
X0086687Y0104335D01*
X0086627Y0104337D01*
X0085127Y0104337D01*
X0084627Y0103837D01*
X0070627Y0103837D01*
X0070127Y0104337D01*
X0068627Y0104337D01*
X0068567Y0104335D01*
X0068506Y0104330D01*
X0068447Y0104321D01*
X0068388Y0104308D01*
X0068329Y0104292D01*
X0068272Y0104272D01*
X0068217Y0104249D01*
X0068162Y0104222D01*
X0068110Y0104193D01*
X0068059Y0104160D01*
X0068010Y0104124D01*
X0067964Y0104086D01*
X0067920Y0104044D01*
X0067878Y0104000D01*
X0067840Y0103954D01*
X0067804Y0103905D01*
X0067771Y0103854D01*
X0067742Y0103802D01*
X0067715Y0103747D01*
X0067692Y0103692D01*
X0067672Y0103635D01*
X0067656Y0103576D01*
X0067643Y0103517D01*
X0067634Y0103458D01*
X0067629Y0103397D01*
X0067627Y0103337D01*
X0067627Y0097337D01*
X0067629Y0097277D01*
X0067634Y0097216D01*
X0067643Y0097157D01*
X0067656Y0097098D01*
X0067672Y0097039D01*
X0067692Y0096982D01*
X0067715Y0096927D01*
X0067742Y0096872D01*
X0067771Y0096820D01*
X0067804Y0096769D01*
X0067840Y0096720D01*
X0067878Y0096674D01*
X0067920Y0096630D01*
X0067964Y0096588D01*
X0068010Y0096550D01*
X0068059Y0096514D01*
X0068110Y0096481D01*
X0068162Y0096452D01*
X0068217Y0096425D01*
X0068272Y0096402D01*
X0068329Y0096382D01*
X0068388Y0096366D01*
X0068447Y0096353D01*
X0068506Y0096344D01*
X0068567Y0096339D01*
X0068627Y0096337D01*
X0068567Y0096339D01*
X0068506Y0096344D01*
X0068447Y0096353D01*
X0068388Y0096366D01*
X0068329Y0096382D01*
X0068272Y0096402D01*
X0068217Y0096425D01*
X0068162Y0096452D01*
X0068110Y0096481D01*
X0068059Y0096514D01*
X0068010Y0096550D01*
X0067964Y0096588D01*
X0067920Y0096630D01*
X0067878Y0096674D01*
X0067840Y0096720D01*
X0067804Y0096769D01*
X0067771Y0096820D01*
X0067742Y0096872D01*
X0067715Y0096927D01*
X0067692Y0096982D01*
X0067672Y0097039D01*
X0067656Y0097098D01*
X0067643Y0097157D01*
X0067634Y0097216D01*
X0067629Y0097277D01*
X0067627Y0097337D01*
X0067627Y0103337D02*
X0067629Y0103397D01*
X0067634Y0103458D01*
X0067643Y0103517D01*
X0067656Y0103576D01*
X0067672Y0103635D01*
X0067692Y0103692D01*
X0067715Y0103747D01*
X0067742Y0103802D01*
X0067771Y0103854D01*
X0067804Y0103905D01*
X0067840Y0103954D01*
X0067878Y0104000D01*
X0067920Y0104044D01*
X0067964Y0104086D01*
X0068010Y0104124D01*
X0068059Y0104160D01*
X0068110Y0104193D01*
X0068162Y0104222D01*
X0068217Y0104249D01*
X0068272Y0104272D01*
X0068329Y0104292D01*
X0068388Y0104308D01*
X0068447Y0104321D01*
X0068506Y0104330D01*
X0068567Y0104335D01*
X0068627Y0104337D01*
X0086627Y0104337D02*
X0086687Y0104335D01*
X0086748Y0104330D01*
X0086807Y0104321D01*
X0086866Y0104308D01*
X0086925Y0104292D01*
X0086982Y0104272D01*
X0087037Y0104249D01*
X0087092Y0104222D01*
X0087144Y0104193D01*
X0087195Y0104160D01*
X0087244Y0104124D01*
X0087290Y0104086D01*
X0087334Y0104044D01*
X0087376Y0104000D01*
X0087414Y0103954D01*
X0087450Y0103905D01*
X0087483Y0103854D01*
X0087512Y0103802D01*
X0087539Y0103747D01*
X0087562Y0103692D01*
X0087582Y0103635D01*
X0087598Y0103576D01*
X0087611Y0103517D01*
X0087620Y0103458D01*
X0087625Y0103397D01*
X0087627Y0103337D01*
X0088627Y0106337D02*
X0090127Y0106337D01*
X0090627Y0106837D01*
X0104627Y0106837D01*
X0105127Y0106337D01*
X0106627Y0106337D01*
X0106687Y0106339D01*
X0106748Y0106344D01*
X0106807Y0106353D01*
X0106866Y0106366D01*
X0106925Y0106382D01*
X0106982Y0106402D01*
X0107037Y0106425D01*
X0107092Y0106452D01*
X0107144Y0106481D01*
X0107195Y0106514D01*
X0107244Y0106550D01*
X0107290Y0106588D01*
X0107334Y0106630D01*
X0107376Y0106674D01*
X0107414Y0106720D01*
X0107450Y0106769D01*
X0107483Y0106820D01*
X0107512Y0106872D01*
X0107539Y0106927D01*
X0107562Y0106982D01*
X0107582Y0107039D01*
X0107598Y0107098D01*
X0107611Y0107157D01*
X0107620Y0107216D01*
X0107625Y0107277D01*
X0107627Y0107337D01*
X0107627Y0113337D01*
X0107625Y0113397D01*
X0107620Y0113458D01*
X0107611Y0113517D01*
X0107598Y0113576D01*
X0107582Y0113635D01*
X0107562Y0113692D01*
X0107539Y0113747D01*
X0107512Y0113802D01*
X0107483Y0113854D01*
X0107450Y0113905D01*
X0107414Y0113954D01*
X0107376Y0114000D01*
X0107334Y0114044D01*
X0107290Y0114086D01*
X0107244Y0114124D01*
X0107195Y0114160D01*
X0107144Y0114193D01*
X0107092Y0114222D01*
X0107037Y0114249D01*
X0106982Y0114272D01*
X0106925Y0114292D01*
X0106866Y0114308D01*
X0106807Y0114321D01*
X0106748Y0114330D01*
X0106687Y0114335D01*
X0106627Y0114337D01*
X0105127Y0114337D01*
X0104627Y0113837D01*
X0090627Y0113837D01*
X0090127Y0114337D01*
X0088627Y0114337D01*
X0088567Y0114335D01*
X0088506Y0114330D01*
X0088447Y0114321D01*
X0088388Y0114308D01*
X0088329Y0114292D01*
X0088272Y0114272D01*
X0088217Y0114249D01*
X0088162Y0114222D01*
X0088110Y0114193D01*
X0088059Y0114160D01*
X0088010Y0114124D01*
X0087964Y0114086D01*
X0087920Y0114044D01*
X0087878Y0114000D01*
X0087840Y0113954D01*
X0087804Y0113905D01*
X0087771Y0113854D01*
X0087742Y0113802D01*
X0087715Y0113747D01*
X0087692Y0113692D01*
X0087672Y0113635D01*
X0087656Y0113576D01*
X0087643Y0113517D01*
X0087634Y0113458D01*
X0087629Y0113397D01*
X0087627Y0113337D01*
X0087627Y0107337D01*
X0087629Y0107277D01*
X0087634Y0107216D01*
X0087643Y0107157D01*
X0087656Y0107098D01*
X0087672Y0107039D01*
X0087692Y0106982D01*
X0087715Y0106927D01*
X0087742Y0106872D01*
X0087771Y0106820D01*
X0087804Y0106769D01*
X0087840Y0106720D01*
X0087878Y0106674D01*
X0087920Y0106630D01*
X0087964Y0106588D01*
X0088010Y0106550D01*
X0088059Y0106514D01*
X0088110Y0106481D01*
X0088162Y0106452D01*
X0088217Y0106425D01*
X0088272Y0106402D01*
X0088329Y0106382D01*
X0088388Y0106366D01*
X0088447Y0106353D01*
X0088506Y0106344D01*
X0088567Y0106339D01*
X0088627Y0106337D01*
X0088567Y0106339D01*
X0088506Y0106344D01*
X0088447Y0106353D01*
X0088388Y0106366D01*
X0088329Y0106382D01*
X0088272Y0106402D01*
X0088217Y0106425D01*
X0088162Y0106452D01*
X0088110Y0106481D01*
X0088059Y0106514D01*
X0088010Y0106550D01*
X0087964Y0106588D01*
X0087920Y0106630D01*
X0087878Y0106674D01*
X0087840Y0106720D01*
X0087804Y0106769D01*
X0087771Y0106820D01*
X0087742Y0106872D01*
X0087715Y0106927D01*
X0087692Y0106982D01*
X0087672Y0107039D01*
X0087656Y0107098D01*
X0087643Y0107157D01*
X0087634Y0107216D01*
X0087629Y0107277D01*
X0087627Y0107337D01*
X0087627Y0113337D02*
X0087629Y0113397D01*
X0087634Y0113458D01*
X0087643Y0113517D01*
X0087656Y0113576D01*
X0087672Y0113635D01*
X0087692Y0113692D01*
X0087715Y0113747D01*
X0087742Y0113802D01*
X0087771Y0113854D01*
X0087804Y0113905D01*
X0087840Y0113954D01*
X0087878Y0114000D01*
X0087920Y0114044D01*
X0087964Y0114086D01*
X0088010Y0114124D01*
X0088059Y0114160D01*
X0088110Y0114193D01*
X0088162Y0114222D01*
X0088217Y0114249D01*
X0088272Y0114272D01*
X0088329Y0114292D01*
X0088388Y0114308D01*
X0088447Y0114321D01*
X0088506Y0114330D01*
X0088567Y0114335D01*
X0088627Y0114337D01*
X0106627Y0114337D02*
X0106687Y0114335D01*
X0106748Y0114330D01*
X0106807Y0114321D01*
X0106866Y0114308D01*
X0106925Y0114292D01*
X0106982Y0114272D01*
X0107037Y0114249D01*
X0107092Y0114222D01*
X0107144Y0114193D01*
X0107195Y0114160D01*
X0107244Y0114124D01*
X0107290Y0114086D01*
X0107334Y0114044D01*
X0107376Y0114000D01*
X0107414Y0113954D01*
X0107450Y0113905D01*
X0107483Y0113854D01*
X0107512Y0113802D01*
X0107539Y0113747D01*
X0107562Y0113692D01*
X0107582Y0113635D01*
X0107598Y0113576D01*
X0107611Y0113517D01*
X0107620Y0113458D01*
X0107625Y0113397D01*
X0107627Y0113337D01*
X0107627Y0107337D02*
X0107625Y0107277D01*
X0107620Y0107216D01*
X0107611Y0107157D01*
X0107598Y0107098D01*
X0107582Y0107039D01*
X0107562Y0106982D01*
X0107539Y0106927D01*
X0107512Y0106872D01*
X0107483Y0106820D01*
X0107450Y0106769D01*
X0107414Y0106720D01*
X0107376Y0106674D01*
X0107334Y0106630D01*
X0107290Y0106588D01*
X0107244Y0106550D01*
X0107195Y0106514D01*
X0107144Y0106481D01*
X0107092Y0106452D01*
X0107037Y0106425D01*
X0106982Y0106402D01*
X0106925Y0106382D01*
X0106866Y0106366D01*
X0106807Y0106353D01*
X0106748Y0106344D01*
X0106687Y0106339D01*
X0106627Y0106337D01*
X0087627Y0097337D02*
X0087625Y0097277D01*
X0087620Y0097216D01*
X0087611Y0097157D01*
X0087598Y0097098D01*
X0087582Y0097039D01*
X0087562Y0096982D01*
X0087539Y0096927D01*
X0087512Y0096872D01*
X0087483Y0096820D01*
X0087450Y0096769D01*
X0087414Y0096720D01*
X0087376Y0096674D01*
X0087334Y0096630D01*
X0087290Y0096588D01*
X0087244Y0096550D01*
X0087195Y0096514D01*
X0087144Y0096481D01*
X0087092Y0096452D01*
X0087037Y0096425D01*
X0086982Y0096402D01*
X0086925Y0096382D01*
X0086866Y0096366D01*
X0086807Y0096353D01*
X0086748Y0096344D01*
X0086687Y0096339D01*
X0086627Y0096337D01*
X0084627Y0080337D02*
X0084567Y0080335D01*
X0084506Y0080330D01*
X0084447Y0080321D01*
X0084388Y0080308D01*
X0084329Y0080292D01*
X0084272Y0080272D01*
X0084217Y0080249D01*
X0084162Y0080222D01*
X0084110Y0080193D01*
X0084059Y0080160D01*
X0084010Y0080124D01*
X0083964Y0080086D01*
X0083920Y0080044D01*
X0083878Y0080000D01*
X0083840Y0079954D01*
X0083804Y0079905D01*
X0083771Y0079854D01*
X0083742Y0079802D01*
X0083715Y0079747D01*
X0083692Y0079692D01*
X0083672Y0079635D01*
X0083656Y0079576D01*
X0083643Y0079517D01*
X0083634Y0079458D01*
X0083629Y0079397D01*
X0083627Y0079337D01*
X0090627Y0080337D02*
X0090687Y0080335D01*
X0090748Y0080330D01*
X0090807Y0080321D01*
X0090866Y0080308D01*
X0090925Y0080292D01*
X0090982Y0080272D01*
X0091037Y0080249D01*
X0091092Y0080222D01*
X0091144Y0080193D01*
X0091195Y0080160D01*
X0091244Y0080124D01*
X0091290Y0080086D01*
X0091334Y0080044D01*
X0091376Y0080000D01*
X0091414Y0079954D01*
X0091450Y0079905D01*
X0091483Y0079854D01*
X0091512Y0079802D01*
X0091539Y0079747D01*
X0091562Y0079692D01*
X0091582Y0079635D01*
X0091598Y0079576D01*
X0091611Y0079517D01*
X0091620Y0079458D01*
X0091625Y0079397D01*
X0091627Y0079337D01*
X0131877Y0109337D02*
X0132627Y0109337D01*
X0133377Y0109337D01*
X0132627Y0109337D02*
X0132627Y0108587D01*
X0132627Y0109337D02*
X0132627Y0110087D01*
X0129627Y0105337D02*
X0129629Y0105533D01*
X0129637Y0105730D01*
X0129649Y0105926D01*
X0129666Y0106121D01*
X0129687Y0106316D01*
X0129714Y0106511D01*
X0129745Y0106705D01*
X0129781Y0106898D01*
X0129821Y0107090D01*
X0129867Y0107281D01*
X0129917Y0107471D01*
X0129971Y0107659D01*
X0130031Y0107846D01*
X0130095Y0108032D01*
X0130163Y0108216D01*
X0130236Y0108398D01*
X0130313Y0108579D01*
X0130395Y0108757D01*
X0130481Y0108934D01*
X0130572Y0109108D01*
X0130666Y0109280D01*
X0130765Y0109450D01*
X0130868Y0109617D01*
X0130975Y0109782D01*
X0131086Y0109943D01*
X0131201Y0110103D01*
X0131320Y0110259D01*
X0131443Y0110412D01*
X0131569Y0110562D01*
X0131699Y0110709D01*
X0131833Y0110853D01*
X0131970Y0110994D01*
X0132111Y0111131D01*
X0132255Y0111265D01*
X0132402Y0111395D01*
X0132552Y0111521D01*
X0132705Y0111644D01*
X0132861Y0111763D01*
X0133021Y0111878D01*
X0133182Y0111989D01*
X0133347Y0112096D01*
X0133514Y0112199D01*
X0133684Y0112298D01*
X0133856Y0112392D01*
X0134030Y0112483D01*
X0134207Y0112569D01*
X0134385Y0112651D01*
X0134566Y0112728D01*
X0134748Y0112801D01*
X0134932Y0112869D01*
X0135118Y0112933D01*
X0135305Y0112993D01*
X0135493Y0113047D01*
X0135683Y0113097D01*
X0135874Y0113143D01*
X0136066Y0113183D01*
X0136259Y0113219D01*
X0136453Y0113250D01*
X0136648Y0113277D01*
X0136843Y0113298D01*
X0137038Y0113315D01*
X0137234Y0113327D01*
X0137431Y0113335D01*
X0137627Y0113337D01*
X0137823Y0113335D01*
X0138020Y0113327D01*
X0138216Y0113315D01*
X0138411Y0113298D01*
X0138606Y0113277D01*
X0138801Y0113250D01*
X0138995Y0113219D01*
X0139188Y0113183D01*
X0139380Y0113143D01*
X0139571Y0113097D01*
X0139761Y0113047D01*
X0139949Y0112993D01*
X0140136Y0112933D01*
X0140322Y0112869D01*
X0140506Y0112801D01*
X0140688Y0112728D01*
X0140869Y0112651D01*
X0141047Y0112569D01*
X0141224Y0112483D01*
X0141398Y0112392D01*
X0141570Y0112298D01*
X0141740Y0112199D01*
X0141907Y0112096D01*
X0142072Y0111989D01*
X0142233Y0111878D01*
X0142393Y0111763D01*
X0142549Y0111644D01*
X0142702Y0111521D01*
X0142852Y0111395D01*
X0142999Y0111265D01*
X0143143Y0111131D01*
X0143284Y0110994D01*
X0143421Y0110853D01*
X0143555Y0110709D01*
X0143685Y0110562D01*
X0143811Y0110412D01*
X0143934Y0110259D01*
X0144053Y0110103D01*
X0144168Y0109943D01*
X0144279Y0109782D01*
X0144386Y0109617D01*
X0144489Y0109450D01*
X0144588Y0109280D01*
X0144682Y0109108D01*
X0144773Y0108934D01*
X0144859Y0108757D01*
X0144941Y0108579D01*
X0145018Y0108398D01*
X0145091Y0108216D01*
X0145159Y0108032D01*
X0145223Y0107846D01*
X0145283Y0107659D01*
X0145337Y0107471D01*
X0145387Y0107281D01*
X0145433Y0107090D01*
X0145473Y0106898D01*
X0145509Y0106705D01*
X0145540Y0106511D01*
X0145567Y0106316D01*
X0145588Y0106121D01*
X0145605Y0105926D01*
X0145617Y0105730D01*
X0145625Y0105533D01*
X0145627Y0105337D01*
X0145625Y0105141D01*
X0145617Y0104944D01*
X0145605Y0104748D01*
X0145588Y0104553D01*
X0145567Y0104358D01*
X0145540Y0104163D01*
X0145509Y0103969D01*
X0145473Y0103776D01*
X0145433Y0103584D01*
X0145387Y0103393D01*
X0145337Y0103203D01*
X0145283Y0103015D01*
X0145223Y0102828D01*
X0145159Y0102642D01*
X0145091Y0102458D01*
X0145018Y0102276D01*
X0144941Y0102095D01*
X0144859Y0101917D01*
X0144773Y0101740D01*
X0144682Y0101566D01*
X0144588Y0101394D01*
X0144489Y0101224D01*
X0144386Y0101057D01*
X0144279Y0100892D01*
X0144168Y0100731D01*
X0144053Y0100571D01*
X0143934Y0100415D01*
X0143811Y0100262D01*
X0143685Y0100112D01*
X0143555Y0099965D01*
X0143421Y0099821D01*
X0143284Y0099680D01*
X0143143Y0099543D01*
X0142999Y0099409D01*
X0142852Y0099279D01*
X0142702Y0099153D01*
X0142549Y0099030D01*
X0142393Y0098911D01*
X0142233Y0098796D01*
X0142072Y0098685D01*
X0141907Y0098578D01*
X0141740Y0098475D01*
X0141570Y0098376D01*
X0141398Y0098282D01*
X0141224Y0098191D01*
X0141047Y0098105D01*
X0140869Y0098023D01*
X0140688Y0097946D01*
X0140506Y0097873D01*
X0140322Y0097805D01*
X0140136Y0097741D01*
X0139949Y0097681D01*
X0139761Y0097627D01*
X0139571Y0097577D01*
X0139380Y0097531D01*
X0139188Y0097491D01*
X0138995Y0097455D01*
X0138801Y0097424D01*
X0138606Y0097397D01*
X0138411Y0097376D01*
X0138216Y0097359D01*
X0138020Y0097347D01*
X0137823Y0097339D01*
X0137627Y0097337D01*
X0137431Y0097339D01*
X0137234Y0097347D01*
X0137038Y0097359D01*
X0136843Y0097376D01*
X0136648Y0097397D01*
X0136453Y0097424D01*
X0136259Y0097455D01*
X0136066Y0097491D01*
X0135874Y0097531D01*
X0135683Y0097577D01*
X0135493Y0097627D01*
X0135305Y0097681D01*
X0135118Y0097741D01*
X0134932Y0097805D01*
X0134748Y0097873D01*
X0134566Y0097946D01*
X0134385Y0098023D01*
X0134207Y0098105D01*
X0134030Y0098191D01*
X0133856Y0098282D01*
X0133684Y0098376D01*
X0133514Y0098475D01*
X0133347Y0098578D01*
X0133182Y0098685D01*
X0133021Y0098796D01*
X0132861Y0098911D01*
X0132705Y0099030D01*
X0132552Y0099153D01*
X0132402Y0099279D01*
X0132255Y0099409D01*
X0132111Y0099543D01*
X0131970Y0099680D01*
X0131833Y0099821D01*
X0131699Y0099965D01*
X0131569Y0100112D01*
X0131443Y0100262D01*
X0131320Y0100415D01*
X0131201Y0100571D01*
X0131086Y0100731D01*
X0130975Y0100892D01*
X0130868Y0101057D01*
X0130765Y0101224D01*
X0130666Y0101394D01*
X0130572Y0101566D01*
X0130481Y0101740D01*
X0130395Y0101917D01*
X0130313Y0102095D01*
X0130236Y0102276D01*
X0130163Y0102458D01*
X0130095Y0102642D01*
X0130031Y0102828D01*
X0129971Y0103015D01*
X0129917Y0103203D01*
X0129867Y0103393D01*
X0129821Y0103584D01*
X0129781Y0103776D01*
X0129745Y0103969D01*
X0129714Y0104163D01*
X0129687Y0104358D01*
X0129666Y0104553D01*
X0129649Y0104748D01*
X0129637Y0104944D01*
X0129629Y0105141D01*
X0129627Y0105337D01*
X0152627Y0070087D02*
X0152627Y0069337D01*
X0153377Y0069337D01*
X0152627Y0069337D02*
X0152627Y0068587D01*
X0152627Y0069337D02*
X0151877Y0069337D01*
X0149627Y0065337D02*
X0149629Y0065533D01*
X0149637Y0065730D01*
X0149649Y0065926D01*
X0149666Y0066121D01*
X0149687Y0066316D01*
X0149714Y0066511D01*
X0149745Y0066705D01*
X0149781Y0066898D01*
X0149821Y0067090D01*
X0149867Y0067281D01*
X0149917Y0067471D01*
X0149971Y0067659D01*
X0150031Y0067846D01*
X0150095Y0068032D01*
X0150163Y0068216D01*
X0150236Y0068398D01*
X0150313Y0068579D01*
X0150395Y0068757D01*
X0150481Y0068934D01*
X0150572Y0069108D01*
X0150666Y0069280D01*
X0150765Y0069450D01*
X0150868Y0069617D01*
X0150975Y0069782D01*
X0151086Y0069943D01*
X0151201Y0070103D01*
X0151320Y0070259D01*
X0151443Y0070412D01*
X0151569Y0070562D01*
X0151699Y0070709D01*
X0151833Y0070853D01*
X0151970Y0070994D01*
X0152111Y0071131D01*
X0152255Y0071265D01*
X0152402Y0071395D01*
X0152552Y0071521D01*
X0152705Y0071644D01*
X0152861Y0071763D01*
X0153021Y0071878D01*
X0153182Y0071989D01*
X0153347Y0072096D01*
X0153514Y0072199D01*
X0153684Y0072298D01*
X0153856Y0072392D01*
X0154030Y0072483D01*
X0154207Y0072569D01*
X0154385Y0072651D01*
X0154566Y0072728D01*
X0154748Y0072801D01*
X0154932Y0072869D01*
X0155118Y0072933D01*
X0155305Y0072993D01*
X0155493Y0073047D01*
X0155683Y0073097D01*
X0155874Y0073143D01*
X0156066Y0073183D01*
X0156259Y0073219D01*
X0156453Y0073250D01*
X0156648Y0073277D01*
X0156843Y0073298D01*
X0157038Y0073315D01*
X0157234Y0073327D01*
X0157431Y0073335D01*
X0157627Y0073337D01*
X0157823Y0073335D01*
X0158020Y0073327D01*
X0158216Y0073315D01*
X0158411Y0073298D01*
X0158606Y0073277D01*
X0158801Y0073250D01*
X0158995Y0073219D01*
X0159188Y0073183D01*
X0159380Y0073143D01*
X0159571Y0073097D01*
X0159761Y0073047D01*
X0159949Y0072993D01*
X0160136Y0072933D01*
X0160322Y0072869D01*
X0160506Y0072801D01*
X0160688Y0072728D01*
X0160869Y0072651D01*
X0161047Y0072569D01*
X0161224Y0072483D01*
X0161398Y0072392D01*
X0161570Y0072298D01*
X0161740Y0072199D01*
X0161907Y0072096D01*
X0162072Y0071989D01*
X0162233Y0071878D01*
X0162393Y0071763D01*
X0162549Y0071644D01*
X0162702Y0071521D01*
X0162852Y0071395D01*
X0162999Y0071265D01*
X0163143Y0071131D01*
X0163284Y0070994D01*
X0163421Y0070853D01*
X0163555Y0070709D01*
X0163685Y0070562D01*
X0163811Y0070412D01*
X0163934Y0070259D01*
X0164053Y0070103D01*
X0164168Y0069943D01*
X0164279Y0069782D01*
X0164386Y0069617D01*
X0164489Y0069450D01*
X0164588Y0069280D01*
X0164682Y0069108D01*
X0164773Y0068934D01*
X0164859Y0068757D01*
X0164941Y0068579D01*
X0165018Y0068398D01*
X0165091Y0068216D01*
X0165159Y0068032D01*
X0165223Y0067846D01*
X0165283Y0067659D01*
X0165337Y0067471D01*
X0165387Y0067281D01*
X0165433Y0067090D01*
X0165473Y0066898D01*
X0165509Y0066705D01*
X0165540Y0066511D01*
X0165567Y0066316D01*
X0165588Y0066121D01*
X0165605Y0065926D01*
X0165617Y0065730D01*
X0165625Y0065533D01*
X0165627Y0065337D01*
X0165625Y0065141D01*
X0165617Y0064944D01*
X0165605Y0064748D01*
X0165588Y0064553D01*
X0165567Y0064358D01*
X0165540Y0064163D01*
X0165509Y0063969D01*
X0165473Y0063776D01*
X0165433Y0063584D01*
X0165387Y0063393D01*
X0165337Y0063203D01*
X0165283Y0063015D01*
X0165223Y0062828D01*
X0165159Y0062642D01*
X0165091Y0062458D01*
X0165018Y0062276D01*
X0164941Y0062095D01*
X0164859Y0061917D01*
X0164773Y0061740D01*
X0164682Y0061566D01*
X0164588Y0061394D01*
X0164489Y0061224D01*
X0164386Y0061057D01*
X0164279Y0060892D01*
X0164168Y0060731D01*
X0164053Y0060571D01*
X0163934Y0060415D01*
X0163811Y0060262D01*
X0163685Y0060112D01*
X0163555Y0059965D01*
X0163421Y0059821D01*
X0163284Y0059680D01*
X0163143Y0059543D01*
X0162999Y0059409D01*
X0162852Y0059279D01*
X0162702Y0059153D01*
X0162549Y0059030D01*
X0162393Y0058911D01*
X0162233Y0058796D01*
X0162072Y0058685D01*
X0161907Y0058578D01*
X0161740Y0058475D01*
X0161570Y0058376D01*
X0161398Y0058282D01*
X0161224Y0058191D01*
X0161047Y0058105D01*
X0160869Y0058023D01*
X0160688Y0057946D01*
X0160506Y0057873D01*
X0160322Y0057805D01*
X0160136Y0057741D01*
X0159949Y0057681D01*
X0159761Y0057627D01*
X0159571Y0057577D01*
X0159380Y0057531D01*
X0159188Y0057491D01*
X0158995Y0057455D01*
X0158801Y0057424D01*
X0158606Y0057397D01*
X0158411Y0057376D01*
X0158216Y0057359D01*
X0158020Y0057347D01*
X0157823Y0057339D01*
X0157627Y0057337D01*
X0157431Y0057339D01*
X0157234Y0057347D01*
X0157038Y0057359D01*
X0156843Y0057376D01*
X0156648Y0057397D01*
X0156453Y0057424D01*
X0156259Y0057455D01*
X0156066Y0057491D01*
X0155874Y0057531D01*
X0155683Y0057577D01*
X0155493Y0057627D01*
X0155305Y0057681D01*
X0155118Y0057741D01*
X0154932Y0057805D01*
X0154748Y0057873D01*
X0154566Y0057946D01*
X0154385Y0058023D01*
X0154207Y0058105D01*
X0154030Y0058191D01*
X0153856Y0058282D01*
X0153684Y0058376D01*
X0153514Y0058475D01*
X0153347Y0058578D01*
X0153182Y0058685D01*
X0153021Y0058796D01*
X0152861Y0058911D01*
X0152705Y0059030D01*
X0152552Y0059153D01*
X0152402Y0059279D01*
X0152255Y0059409D01*
X0152111Y0059543D01*
X0151970Y0059680D01*
X0151833Y0059821D01*
X0151699Y0059965D01*
X0151569Y0060112D01*
X0151443Y0060262D01*
X0151320Y0060415D01*
X0151201Y0060571D01*
X0151086Y0060731D01*
X0150975Y0060892D01*
X0150868Y0061057D01*
X0150765Y0061224D01*
X0150666Y0061394D01*
X0150572Y0061566D01*
X0150481Y0061740D01*
X0150395Y0061917D01*
X0150313Y0062095D01*
X0150236Y0062276D01*
X0150163Y0062458D01*
X0150095Y0062642D01*
X0150031Y0062828D01*
X0149971Y0063015D01*
X0149917Y0063203D01*
X0149867Y0063393D01*
X0149821Y0063584D01*
X0149781Y0063776D01*
X0149745Y0063969D01*
X0149714Y0064163D01*
X0149687Y0064358D01*
X0149666Y0064553D01*
X0149649Y0064748D01*
X0149637Y0064944D01*
X0149629Y0065141D01*
X0149627Y0065337D01*
D11*
X0147927Y0058195D02*
X0147927Y0056727D01*
X0145726Y0056727D01*
X0145726Y0058195D01*
X0146827Y0057461D02*
X0146827Y0056727D01*
X0147927Y0055985D02*
X0145726Y0055985D01*
X0146460Y0055251D01*
X0145726Y0054517D01*
X0147927Y0054517D01*
X0147927Y0053775D02*
X0146460Y0053775D01*
X0145726Y0053041D01*
X0146460Y0052307D01*
X0147927Y0052307D01*
X0147927Y0051565D02*
X0145726Y0051565D01*
X0146827Y0052307D02*
X0146827Y0053775D01*
X0147927Y0051565D02*
X0145726Y0050097D01*
X0147927Y0050097D01*
X0146827Y0049355D02*
X0147927Y0047887D01*
X0146827Y0049355D02*
X0145726Y0047887D01*
X0142399Y0039439D02*
X0140931Y0039439D01*
X0140931Y0037237D01*
X0142399Y0037237D01*
X0141665Y0038338D02*
X0140931Y0038338D01*
X0140189Y0039439D02*
X0140189Y0037237D01*
X0138721Y0037237D02*
X0138721Y0039439D01*
X0139455Y0038705D01*
X0140189Y0039439D01*
X0137979Y0038705D02*
X0137979Y0037237D01*
X0137979Y0038338D02*
X0136511Y0038338D01*
X0136511Y0038705D02*
X0137245Y0039439D01*
X0137979Y0038705D01*
X0136511Y0038705D02*
X0136511Y0037237D01*
X0135769Y0037237D02*
X0135769Y0039439D01*
X0134301Y0039439D02*
X0135769Y0037237D01*
X0134301Y0037237D02*
X0134301Y0039439D01*
X0133559Y0038338D02*
X0132092Y0037237D01*
X0133559Y0038338D02*
X0132092Y0039439D01*
X0120023Y0064037D02*
X0118555Y0064037D01*
X0118555Y0066239D01*
X0120023Y0066239D01*
X0119289Y0065138D02*
X0118555Y0065138D01*
X0117813Y0064404D02*
X0117813Y0066239D01*
X0116345Y0066239D02*
X0116345Y0064404D01*
X0116712Y0064037D01*
X0117446Y0064037D01*
X0117813Y0064404D01*
X0115603Y0064037D02*
X0114135Y0064037D01*
X0114135Y0066239D01*
X0113393Y0065505D02*
X0113393Y0064037D01*
X0113393Y0065138D02*
X0111925Y0065138D01*
X0111925Y0065505D02*
X0112659Y0066239D01*
X0113393Y0065505D01*
X0111925Y0065505D02*
X0111925Y0064037D01*
X0111183Y0064771D02*
X0111183Y0066239D01*
X0109715Y0066239D02*
X0109715Y0064771D01*
X0110449Y0064037D01*
X0111183Y0064771D01*
X0108973Y0065138D02*
X0107505Y0064037D01*
X0108973Y0065138D02*
X0107505Y0066239D01*
X0088727Y0083696D02*
X0087627Y0085164D01*
X0086526Y0083696D01*
X0086526Y0085906D02*
X0087993Y0085906D01*
X0088727Y0086640D01*
X0087993Y0087374D01*
X0086526Y0087374D01*
X0087260Y0088116D02*
X0086526Y0088850D01*
X0087260Y0089584D01*
X0088727Y0089584D01*
X0088727Y0090326D02*
X0088727Y0091794D01*
X0088360Y0092536D02*
X0088727Y0092903D01*
X0088727Y0093637D01*
X0088360Y0094004D01*
X0086526Y0094004D01*
X0086526Y0094746D02*
X0088727Y0094746D01*
X0088727Y0096213D01*
X0087627Y0095480D02*
X0087627Y0094746D01*
X0086526Y0094746D02*
X0086526Y0096213D01*
X0086526Y0092536D02*
X0088360Y0092536D01*
X0088727Y0090326D02*
X0086526Y0090326D01*
X0087627Y0089584D02*
X0087627Y0088116D01*
X0087260Y0088116D02*
X0088727Y0088116D01*
X0084485Y0088739D02*
X0083017Y0088739D01*
X0083017Y0086537D01*
X0084485Y0086537D01*
X0083751Y0087638D02*
X0083017Y0087638D01*
X0082275Y0088739D02*
X0082275Y0086537D01*
X0080807Y0086537D02*
X0080807Y0088739D01*
X0081541Y0088005D01*
X0082275Y0088739D01*
X0080066Y0088005D02*
X0080066Y0086537D01*
X0080066Y0087638D02*
X0078598Y0087638D01*
X0078598Y0088005D02*
X0078598Y0086537D01*
X0078727Y0086213D02*
X0078727Y0084746D01*
X0076526Y0084746D01*
X0076526Y0086213D01*
X0076388Y0086537D02*
X0076388Y0088739D01*
X0077856Y0086537D01*
X0077856Y0088739D01*
X0078598Y0088005D02*
X0079332Y0088739D01*
X0080066Y0088005D01*
X0077627Y0085480D02*
X0077627Y0084746D01*
X0078360Y0084004D02*
X0076526Y0084004D01*
X0076526Y0082536D02*
X0078360Y0082536D01*
X0078727Y0082903D01*
X0078727Y0083637D01*
X0078360Y0084004D01*
X0078727Y0081794D02*
X0078727Y0080326D01*
X0076526Y0080326D01*
X0077260Y0079584D02*
X0076526Y0078850D01*
X0077260Y0078116D01*
X0078727Y0078116D01*
X0077993Y0077374D02*
X0076526Y0077374D01*
X0077627Y0078116D02*
X0077627Y0079584D01*
X0077260Y0079584D02*
X0078727Y0079584D01*
X0077993Y0077374D02*
X0078727Y0076640D01*
X0077993Y0075906D01*
X0076526Y0075906D01*
X0077627Y0075164D02*
X0076526Y0073696D01*
X0077627Y0075164D02*
X0078727Y0073696D01*
X0074485Y0076537D02*
X0073017Y0076537D01*
X0073017Y0078739D01*
X0074485Y0078739D01*
X0073751Y0077638D02*
X0073017Y0077638D01*
X0072275Y0078739D02*
X0072275Y0076537D01*
X0070807Y0076537D02*
X0070807Y0078739D01*
X0071541Y0078005D01*
X0072275Y0078739D01*
X0070066Y0078005D02*
X0070066Y0076537D01*
X0070066Y0077638D02*
X0068598Y0077638D01*
X0068598Y0078005D02*
X0069332Y0078739D01*
X0070066Y0078005D01*
X0068598Y0078005D02*
X0068598Y0076537D01*
X0067856Y0076537D02*
X0067856Y0078739D01*
X0066388Y0078739D02*
X0066388Y0076537D01*
X0065646Y0077638D02*
X0064178Y0076537D01*
X0065646Y0077638D02*
X0064178Y0078739D01*
X0066388Y0078739D02*
X0067856Y0076537D01*
X0057927Y0076727D02*
X0057927Y0078195D01*
X0056827Y0077461D02*
X0056827Y0076727D01*
X0057927Y0076727D02*
X0055726Y0076727D01*
X0055726Y0078195D01*
X0055726Y0075985D02*
X0057927Y0075985D01*
X0057927Y0074517D02*
X0055726Y0074517D01*
X0056460Y0075251D01*
X0055726Y0075985D01*
X0056460Y0073775D02*
X0057927Y0073775D01*
X0056827Y0073775D02*
X0056827Y0072307D01*
X0056460Y0072307D02*
X0057927Y0072307D01*
X0057927Y0071565D02*
X0055726Y0071565D01*
X0056460Y0072307D02*
X0055726Y0073041D01*
X0056460Y0073775D01*
X0057927Y0071565D02*
X0055726Y0070097D01*
X0057927Y0070097D01*
X0056827Y0069355D02*
X0057927Y0067887D01*
X0056827Y0069355D02*
X0055726Y0067887D01*
X0051985Y0069437D02*
X0050517Y0069437D01*
X0050517Y0071639D01*
X0051985Y0071639D01*
X0051251Y0070538D02*
X0050517Y0070538D01*
X0049775Y0071639D02*
X0049041Y0070905D01*
X0048307Y0071639D01*
X0048307Y0069437D01*
X0047566Y0069437D02*
X0047566Y0070905D01*
X0046832Y0071639D01*
X0046098Y0070905D01*
X0046098Y0069437D01*
X0045356Y0069437D02*
X0045356Y0071639D01*
X0046098Y0070538D02*
X0047566Y0070538D01*
X0049775Y0071639D02*
X0049775Y0069437D01*
X0045356Y0069437D02*
X0043888Y0071639D01*
X0043888Y0069437D01*
X0043146Y0070538D02*
X0041678Y0069437D01*
X0043146Y0070538D02*
X0041678Y0071639D01*
X0074178Y0086537D02*
X0075646Y0087638D01*
X0074178Y0088739D01*
X0106726Y0089065D02*
X0108927Y0089065D01*
X0106726Y0087597D01*
X0108927Y0087597D01*
X0107827Y0086855D02*
X0108927Y0085387D01*
X0107827Y0086855D02*
X0106726Y0085387D01*
X0107460Y0089807D02*
X0106726Y0090541D01*
X0107460Y0091275D01*
X0108927Y0091275D01*
X0108927Y0092017D02*
X0106726Y0092017D01*
X0107460Y0092751D01*
X0106726Y0093485D01*
X0108927Y0093485D01*
X0108927Y0094227D02*
X0108927Y0095695D01*
X0107827Y0094961D02*
X0107827Y0094227D01*
X0108927Y0094227D02*
X0106726Y0094227D01*
X0106726Y0095695D01*
X0107827Y0091275D02*
X0107827Y0089807D01*
X0107460Y0089807D02*
X0108927Y0089807D01*
X0111105Y0102137D02*
X0112573Y0103238D01*
X0111105Y0104339D01*
X0112573Y0103238D01*
X0111105Y0102137D01*
X0113315Y0102871D02*
X0114049Y0102137D01*
X0114783Y0102871D01*
X0114783Y0104339D01*
X0114783Y0102871D01*
X0114049Y0102137D01*
X0113315Y0102871D01*
X0113315Y0104339D01*
X0113315Y0102871D01*
X0115525Y0103238D02*
X0116993Y0103238D01*
X0115525Y0103238D01*
X0115525Y0103605D02*
X0116259Y0104339D01*
X0116993Y0103605D01*
X0116993Y0102137D01*
X0116993Y0103605D01*
X0116259Y0104339D01*
X0115525Y0103605D01*
X0115525Y0102137D01*
X0115525Y0103605D01*
X0117735Y0104339D02*
X0117735Y0102137D01*
X0119203Y0102137D01*
X0117735Y0102137D01*
X0117735Y0104339D01*
X0119945Y0104339D02*
X0119945Y0102504D01*
X0120312Y0102137D01*
X0121046Y0102137D01*
X0121413Y0102504D01*
X0121413Y0104339D01*
X0121413Y0102504D01*
X0121046Y0102137D01*
X0120312Y0102137D01*
X0119945Y0102504D01*
X0119945Y0104339D01*
X0122155Y0104339D02*
X0122155Y0102137D01*
X0123623Y0102137D01*
X0122155Y0102137D01*
X0122155Y0104339D01*
X0123623Y0104339D01*
X0122155Y0104339D01*
X0122155Y0103238D02*
X0122889Y0103238D01*
X0122155Y0103238D01*
X0125726Y0098195D02*
X0125726Y0096727D01*
X0127927Y0096727D01*
X0127927Y0098195D01*
X0126827Y0097461D02*
X0126827Y0096727D01*
X0127927Y0095985D02*
X0125726Y0095985D01*
X0126460Y0095251D01*
X0125726Y0094517D01*
X0127927Y0094517D01*
X0127927Y0093775D02*
X0126460Y0093775D01*
X0125726Y0093041D01*
X0126460Y0092307D01*
X0127927Y0092307D01*
X0127927Y0091565D02*
X0125726Y0091565D01*
X0126827Y0092307D02*
X0126827Y0093775D01*
X0127927Y0091565D02*
X0125726Y0090097D01*
X0127927Y0090097D01*
X0126827Y0089355D02*
X0127927Y0087887D01*
X0126827Y0089355D02*
X0125726Y0087887D01*
X0117813Y0109137D02*
X0116345Y0109137D01*
X0116345Y0111339D01*
X0117813Y0111339D01*
X0116345Y0111339D01*
X0116345Y0109137D01*
X0117813Y0109137D01*
X0117079Y0110238D02*
X0116345Y0110238D01*
X0117079Y0110238D01*
X0115603Y0111339D02*
X0115603Y0109137D01*
X0115603Y0111339D01*
X0114869Y0110605D01*
X0114135Y0111339D01*
X0114135Y0109137D01*
X0114135Y0111339D01*
X0114869Y0110605D01*
X0115603Y0111339D01*
X0113393Y0110605D02*
X0113393Y0109137D01*
X0113393Y0110605D01*
X0112659Y0111339D01*
X0111925Y0110605D01*
X0111925Y0109137D01*
X0111925Y0110605D01*
X0112659Y0111339D01*
X0113393Y0110605D01*
X0113393Y0110238D02*
X0111925Y0110238D01*
X0113393Y0110238D01*
X0111183Y0109137D02*
X0111183Y0111339D01*
X0111183Y0109137D01*
X0109715Y0111339D01*
X0109715Y0109137D01*
X0109715Y0111339D01*
X0111183Y0109137D01*
X0108973Y0110238D02*
X0107505Y0111339D01*
X0108973Y0110238D01*
X0107505Y0109137D01*
X0108973Y0110238D01*
X0127505Y0119137D02*
X0128973Y0120238D01*
X0127505Y0121339D01*
X0128973Y0120238D01*
X0127505Y0119137D01*
X0129715Y0119137D02*
X0129715Y0121339D01*
X0131183Y0119137D01*
X0131183Y0121339D01*
X0131183Y0119137D01*
X0129715Y0121339D01*
X0129715Y0119137D01*
X0131925Y0119137D02*
X0131925Y0120605D01*
X0132659Y0121339D01*
X0133393Y0120605D01*
X0133393Y0119137D01*
X0133393Y0120605D01*
X0132659Y0121339D01*
X0131925Y0120605D01*
X0131925Y0119137D01*
X0131925Y0120238D02*
X0133393Y0120238D01*
X0131925Y0120238D01*
X0134135Y0121339D02*
X0134869Y0120605D01*
X0135603Y0121339D01*
X0135603Y0119137D01*
X0135603Y0121339D01*
X0134869Y0120605D01*
X0134135Y0121339D01*
X0134135Y0119137D01*
X0134135Y0121339D01*
X0136345Y0121339D02*
X0136345Y0119137D01*
X0137813Y0119137D01*
X0136345Y0119137D01*
X0136345Y0121339D01*
X0137813Y0121339D01*
X0136345Y0121339D01*
X0136345Y0120238D02*
X0137079Y0120238D01*
X0136345Y0120238D01*
X0136259Y0114339D02*
X0136993Y0113605D01*
X0136993Y0112137D01*
X0136993Y0113605D01*
X0136259Y0114339D01*
X0135525Y0113605D01*
X0135525Y0112137D01*
X0135525Y0113605D01*
X0136259Y0114339D01*
X0135525Y0113238D02*
X0136993Y0113238D01*
X0135525Y0113238D01*
X0134783Y0112871D02*
X0134783Y0114339D01*
X0134783Y0112871D01*
X0134049Y0112137D01*
X0133315Y0112871D01*
X0133315Y0114339D01*
X0133315Y0112871D01*
X0134049Y0112137D01*
X0134783Y0112871D01*
X0132573Y0113238D02*
X0131105Y0112137D01*
X0132573Y0113238D01*
X0131105Y0114339D01*
X0132573Y0113238D01*
X0137735Y0114339D02*
X0137735Y0112137D01*
X0139203Y0112137D01*
X0137735Y0112137D01*
X0137735Y0114339D01*
X0139945Y0114339D02*
X0139945Y0112504D01*
X0140312Y0112137D01*
X0141046Y0112137D01*
X0141413Y0112504D01*
X0141413Y0114339D01*
X0141413Y0112504D01*
X0141046Y0112137D01*
X0140312Y0112137D01*
X0139945Y0112504D01*
X0139945Y0114339D01*
X0142155Y0114339D02*
X0142155Y0112137D01*
X0143623Y0112137D01*
X0142155Y0112137D01*
X0142155Y0114339D01*
X0143623Y0114339D01*
X0142155Y0114339D01*
X0142155Y0113238D02*
X0142889Y0113238D01*
X0142155Y0113238D01*
X0169576Y0112869D02*
X0170310Y0113603D01*
X0171777Y0113603D01*
X0171777Y0114344D02*
X0169576Y0114344D01*
X0170677Y0113603D02*
X0170677Y0112135D01*
X0170310Y0112135D02*
X0169576Y0112869D01*
X0170310Y0112135D02*
X0171777Y0112135D01*
X0171043Y0111393D02*
X0169576Y0111393D01*
X0171043Y0111393D02*
X0171777Y0110659D01*
X0171043Y0109925D01*
X0169576Y0109925D01*
X0170677Y0109183D02*
X0169576Y0107715D01*
X0170677Y0109183D02*
X0171777Y0107715D01*
X0171777Y0114344D02*
X0171777Y0115812D01*
X0171410Y0116554D02*
X0171777Y0116921D01*
X0171777Y0117655D01*
X0171410Y0118022D01*
X0169576Y0118022D01*
X0169576Y0118764D02*
X0171777Y0118764D01*
X0171777Y0120232D01*
X0170677Y0119498D02*
X0170677Y0118764D01*
X0169576Y0118764D02*
X0169576Y0120232D01*
X0169576Y0116554D02*
X0171410Y0116554D01*
X0151777Y0147715D02*
X0150677Y0149183D01*
X0149576Y0147715D01*
X0149576Y0149925D02*
X0151043Y0149925D01*
X0151777Y0150659D01*
X0151043Y0151393D01*
X0149576Y0151393D01*
X0150310Y0152135D02*
X0149576Y0152869D01*
X0150310Y0153603D01*
X0151777Y0153603D01*
X0151777Y0154344D02*
X0151777Y0155812D01*
X0151410Y0156554D02*
X0149576Y0156554D01*
X0149576Y0158022D02*
X0151410Y0158022D01*
X0151777Y0157655D01*
X0151777Y0156921D01*
X0151410Y0156554D01*
X0151777Y0158764D02*
X0149576Y0158764D01*
X0149576Y0160232D01*
X0150677Y0159498D02*
X0150677Y0158764D01*
X0151777Y0158764D02*
X0151777Y0160232D01*
X0151777Y0154344D02*
X0149576Y0154344D01*
X0150677Y0153603D02*
X0150677Y0152135D01*
X0150310Y0152135D02*
X0151777Y0152135D01*
X0128527Y0152312D02*
X0128527Y0150844D01*
X0126326Y0150844D01*
X0127060Y0150103D02*
X0128527Y0150103D01*
X0127427Y0150103D02*
X0127427Y0148635D01*
X0127060Y0148635D02*
X0126326Y0149369D01*
X0127060Y0150103D01*
X0127060Y0148635D02*
X0128527Y0148635D01*
X0127793Y0147893D02*
X0126326Y0147893D01*
X0127793Y0147893D02*
X0128527Y0147159D01*
X0127793Y0146425D01*
X0126326Y0146425D01*
X0127427Y0145683D02*
X0128527Y0144215D01*
X0127427Y0145683D02*
X0126326Y0144215D01*
X0126326Y0153054D02*
X0128160Y0153054D01*
X0128527Y0153421D01*
X0128527Y0154155D01*
X0128160Y0154522D01*
X0126326Y0154522D01*
X0126326Y0155264D02*
X0128527Y0155264D01*
X0128527Y0156732D01*
X0127427Y0155998D02*
X0127427Y0155264D01*
X0126326Y0155264D02*
X0126326Y0156732D01*
X0081777Y0140232D02*
X0081777Y0138764D01*
X0079576Y0138764D01*
X0079576Y0140232D01*
X0080677Y0139498D02*
X0080677Y0138764D01*
X0081410Y0138022D02*
X0079576Y0138022D01*
X0079576Y0136554D02*
X0081410Y0136554D01*
X0081777Y0136921D01*
X0081777Y0137655D01*
X0081410Y0138022D01*
X0081777Y0135812D02*
X0081777Y0134344D01*
X0079576Y0134344D01*
X0080310Y0133603D02*
X0081777Y0133603D01*
X0080677Y0133603D02*
X0080677Y0132135D01*
X0080310Y0132135D02*
X0079576Y0132869D01*
X0080310Y0133603D01*
X0080310Y0132135D02*
X0081777Y0132135D01*
X0081043Y0131393D02*
X0079576Y0131393D01*
X0081043Y0131393D02*
X0081777Y0130659D01*
X0081043Y0129925D01*
X0079576Y0129925D01*
X0080677Y0129183D02*
X0081777Y0127715D01*
X0080677Y0129183D02*
X0079576Y0127715D01*
X0165505Y0025139D02*
X0166973Y0024038D01*
X0165505Y0022937D01*
X0167715Y0023671D02*
X0167715Y0025139D01*
X0167715Y0023671D02*
X0168449Y0022937D01*
X0169183Y0023671D01*
X0169183Y0025139D01*
X0169925Y0024405D02*
X0170659Y0025139D01*
X0171393Y0024405D01*
X0171393Y0022937D01*
X0172135Y0022937D02*
X0172135Y0025139D01*
X0171393Y0024038D02*
X0169925Y0024038D01*
X0169925Y0024405D02*
X0169925Y0022937D01*
X0172135Y0022937D02*
X0173603Y0022937D01*
X0174345Y0023304D02*
X0174345Y0025139D01*
X0175813Y0025139D02*
X0175813Y0023304D01*
X0175446Y0022937D01*
X0174712Y0022937D01*
X0174345Y0023304D01*
X0176555Y0022937D02*
X0176555Y0025139D01*
X0178023Y0025139D01*
X0177289Y0024038D02*
X0176555Y0024038D01*
X0176555Y0022937D02*
X0178023Y0022937D01*
D12*
X0157627Y0063837D03*
X0137627Y0103837D03*
X0067627Y0083837D03*
X0057627Y0063837D03*
D13*
X0109127Y0099337D02*
X0109127Y0101337D01*
X0109129Y0101413D01*
X0109135Y0101489D01*
X0109144Y0101564D01*
X0109158Y0101639D01*
X0109175Y0101713D01*
X0109196Y0101786D01*
X0109220Y0101858D01*
X0109249Y0101929D01*
X0109280Y0101998D01*
X0109315Y0102065D01*
X0109354Y0102130D01*
X0109396Y0102194D01*
X0109441Y0102255D01*
X0109489Y0102314D01*
X0109540Y0102370D01*
X0109594Y0102424D01*
X0109650Y0102475D01*
X0109709Y0102523D01*
X0109770Y0102568D01*
X0109834Y0102610D01*
X0109899Y0102649D01*
X0109966Y0102684D01*
X0110035Y0102715D01*
X0110106Y0102744D01*
X0110178Y0102768D01*
X0110251Y0102789D01*
X0110325Y0102806D01*
X0110400Y0102820D01*
X0110475Y0102829D01*
X0110551Y0102835D01*
X0110627Y0102837D01*
X0124627Y0102837D01*
X0124703Y0102835D01*
X0124779Y0102829D01*
X0124854Y0102820D01*
X0124929Y0102806D01*
X0125003Y0102789D01*
X0125076Y0102768D01*
X0125148Y0102744D01*
X0125219Y0102715D01*
X0125288Y0102684D01*
X0125355Y0102649D01*
X0125420Y0102610D01*
X0125484Y0102568D01*
X0125545Y0102523D01*
X0125604Y0102475D01*
X0125660Y0102424D01*
X0125714Y0102370D01*
X0125765Y0102314D01*
X0125813Y0102255D01*
X0125858Y0102194D01*
X0125900Y0102130D01*
X0125939Y0102065D01*
X0125974Y0101998D01*
X0126005Y0101929D01*
X0126034Y0101858D01*
X0126058Y0101786D01*
X0126079Y0101713D01*
X0126096Y0101639D01*
X0126110Y0101564D01*
X0126119Y0101489D01*
X0126125Y0101413D01*
X0126127Y0101337D01*
X0126127Y0099337D01*
X0126125Y0099261D01*
X0126119Y0099185D01*
X0126110Y0099110D01*
X0126096Y0099035D01*
X0126079Y0098961D01*
X0126058Y0098888D01*
X0126034Y0098816D01*
X0126005Y0098745D01*
X0125974Y0098676D01*
X0125939Y0098609D01*
X0125900Y0098544D01*
X0125858Y0098480D01*
X0125813Y0098419D01*
X0125765Y0098360D01*
X0125714Y0098304D01*
X0125660Y0098250D01*
X0125604Y0098199D01*
X0125545Y0098151D01*
X0125484Y0098106D01*
X0125420Y0098064D01*
X0125355Y0098025D01*
X0125288Y0097990D01*
X0125219Y0097959D01*
X0125148Y0097930D01*
X0125076Y0097906D01*
X0125003Y0097885D01*
X0124929Y0097868D01*
X0124854Y0097854D01*
X0124779Y0097845D01*
X0124703Y0097839D01*
X0124627Y0097837D01*
X0110627Y0097837D01*
X0110551Y0097839D01*
X0110475Y0097845D01*
X0110400Y0097854D01*
X0110325Y0097868D01*
X0110251Y0097885D01*
X0110178Y0097906D01*
X0110106Y0097930D01*
X0110035Y0097959D01*
X0109966Y0097990D01*
X0109899Y0098025D01*
X0109834Y0098064D01*
X0109770Y0098106D01*
X0109709Y0098151D01*
X0109650Y0098199D01*
X0109594Y0098250D01*
X0109540Y0098304D01*
X0109489Y0098360D01*
X0109441Y0098419D01*
X0109396Y0098480D01*
X0109354Y0098544D01*
X0109315Y0098609D01*
X0109280Y0098676D01*
X0109249Y0098745D01*
X0109220Y0098816D01*
X0109196Y0098888D01*
X0109175Y0098961D01*
X0109158Y0099035D01*
X0109144Y0099110D01*
X0109135Y0099185D01*
X0109129Y0099261D01*
X0109127Y0099337D01*
X0167624Y0102537D02*
X0170026Y0104339D01*
X0167624Y0106140D01*
X0171307Y0106140D02*
X0171307Y0102537D01*
X0173709Y0102537D02*
X0173709Y0106140D01*
X0174990Y0104939D02*
X0176191Y0106140D01*
X0177392Y0104939D01*
X0177392Y0102537D01*
X0178673Y0102537D02*
X0178673Y0106140D01*
X0179874Y0104939D01*
X0181076Y0106140D01*
X0181076Y0102537D01*
X0182357Y0102537D02*
X0184759Y0102537D01*
X0183558Y0104339D02*
X0182357Y0104339D01*
X0182357Y0106140D02*
X0182357Y0102537D01*
X0182357Y0106140D02*
X0184759Y0106140D01*
X0177392Y0104339D02*
X0174990Y0104339D01*
X0174990Y0104939D02*
X0174990Y0102537D01*
X0173709Y0102537D02*
X0171307Y0106140D01*
D14*
X0118627Y0100337D03*
X0116627Y0100337D03*
D15*
X0117977Y0088475D02*
X0117977Y0086540D01*
X0115075Y0086540D01*
X0115075Y0088475D01*
X0116526Y0087508D02*
X0116526Y0086540D01*
X0117494Y0085529D02*
X0115075Y0085529D01*
X0115075Y0083594D02*
X0117494Y0083594D01*
X0117977Y0084078D01*
X0117977Y0085045D01*
X0117494Y0085529D01*
X0117977Y0082582D02*
X0117977Y0080647D01*
X0115075Y0080647D01*
X0116042Y0079636D02*
X0115075Y0078668D01*
X0116042Y0077701D01*
X0117977Y0077701D01*
X0117010Y0076689D02*
X0117977Y0075722D01*
X0117010Y0074754D01*
X0115075Y0074754D01*
X0116526Y0073743D02*
X0115075Y0071808D01*
X0116526Y0073743D02*
X0117977Y0071808D01*
X0117010Y0076689D02*
X0115075Y0076689D01*
X0116526Y0077701D02*
X0116526Y0079636D01*
X0116042Y0079636D02*
X0117977Y0079636D01*
X0163891Y0083028D02*
X0166360Y0083028D01*
X0165126Y0081794D02*
X0165126Y0084262D01*
X0176930Y0087927D02*
X0178865Y0089378D01*
X0176930Y0090829D01*
X0179876Y0090829D02*
X0179876Y0087927D01*
X0181811Y0087927D02*
X0179876Y0090829D01*
X0181811Y0090829D02*
X0181811Y0087927D01*
X0182823Y0087927D02*
X0182823Y0089862D01*
X0183790Y0090829D01*
X0184758Y0089862D01*
X0184758Y0087927D01*
X0185769Y0087927D02*
X0185769Y0090829D01*
X0186737Y0089862D01*
X0187704Y0090829D01*
X0187704Y0087927D01*
X0188716Y0087927D02*
X0188716Y0090829D01*
X0190651Y0090829D01*
X0189683Y0089378D02*
X0188716Y0089378D01*
X0188716Y0087927D02*
X0190651Y0087927D01*
X0184758Y0089378D02*
X0182823Y0089378D01*
X0184053Y0100339D02*
X0181584Y0100339D01*
X0150126Y0141794D02*
X0150126Y0144262D01*
X0148891Y0143028D02*
X0151360Y0143028D01*
X0051360Y0083028D02*
X0048891Y0083028D01*
X0050126Y0081794D02*
X0050126Y0084262D01*
X0081584Y0040339D02*
X0084053Y0040339D01*
X0083790Y0030829D02*
X0082823Y0029862D01*
X0082823Y0027927D01*
X0081811Y0027927D02*
X0081811Y0030829D01*
X0082823Y0029378D02*
X0084758Y0029378D01*
X0084758Y0029862D02*
X0084758Y0027927D01*
X0085769Y0027927D02*
X0085769Y0030829D01*
X0086737Y0029862D01*
X0087704Y0030829D01*
X0087704Y0027927D01*
X0088716Y0027927D02*
X0090651Y0027927D01*
X0089683Y0029378D02*
X0088716Y0029378D01*
X0088716Y0030829D02*
X0088716Y0027927D01*
X0088716Y0030829D02*
X0090651Y0030829D01*
X0084758Y0029862D02*
X0083790Y0030829D01*
X0081811Y0027927D02*
X0079876Y0030829D01*
X0079876Y0027927D01*
X0078865Y0029378D02*
X0076930Y0027927D01*
X0078865Y0029378D02*
X0076930Y0030829D01*
X0176930Y0030829D02*
X0178865Y0029378D01*
X0176930Y0027927D01*
X0179876Y0027927D02*
X0179876Y0030829D01*
X0181811Y0027927D01*
X0181811Y0030829D01*
X0182823Y0029862D02*
X0182823Y0027927D01*
X0182823Y0029378D02*
X0184758Y0029378D01*
X0184758Y0029862D02*
X0184758Y0027927D01*
X0185769Y0027927D02*
X0185769Y0030829D01*
X0186737Y0029862D01*
X0187704Y0030829D01*
X0187704Y0027927D01*
X0188716Y0027927D02*
X0188716Y0030829D01*
X0190651Y0030829D01*
X0189683Y0029378D02*
X0188716Y0029378D01*
X0188716Y0027927D02*
X0190651Y0027927D01*
X0184758Y0029862D02*
X0183790Y0030829D01*
X0182823Y0029862D01*
X0196584Y0040339D02*
X0199053Y0040339D01*
D16*
X0062627Y0035337D02*
X0052627Y0035337D01*
X0052627Y0055337D01*
X0062627Y0055337D01*
X0062627Y0035337D01*
X0152627Y0035337D02*
X0162627Y0035337D01*
X0162627Y0055337D01*
X0152627Y0055337D01*
X0152627Y0035337D01*
X0152627Y0095337D02*
X0162627Y0095337D01*
X0162627Y0115337D01*
X0152627Y0115337D01*
X0152627Y0095337D01*
D17*
X0108377Y0110337D03*
X0108377Y0110337D03*
X0088377Y0100337D03*
X0088377Y0100337D03*
X0086877Y0110337D03*
X0086877Y0110337D03*
X0066877Y0100337D03*
X0066877Y0100337D03*
D18*
X0099753Y0043258D02*
X0135501Y0043258D01*
X0135501Y0030770D01*
X0099753Y0030770D01*
X0099753Y0043258D01*
X0099753Y0033644D02*
X0135501Y0033644D01*
X0123513Y0030376D02*
X0123513Y0016361D01*
X0121545Y0015180D01*
X0113710Y0015180D01*
X0111742Y0016361D01*
X0111742Y0030376D01*
X0112135Y0027522D02*
X0123120Y0029589D01*
X0123120Y0027620D02*
X0112135Y0025554D01*
X0112135Y0023585D02*
X0123120Y0025652D01*
X0123120Y0023683D02*
X0112135Y0021617D01*
X0112135Y0019648D02*
X0123120Y0021715D01*
X0123120Y0019746D02*
X0112135Y0017680D01*
X0113021Y0015869D02*
X0123120Y0017935D01*
X0121545Y0015180D02*
X0121545Y0001400D01*
X0113710Y0001400D01*
X0113710Y0015180D01*
X0104084Y0022896D02*
X0104084Y0030376D01*
X0099753Y0030770D02*
X0099753Y0022896D01*
X0104084Y0022896D01*
D19*
X0107627Y0043337D02*
X0102627Y0050337D01*
X0097627Y0050337D01*
X0117627Y0050337D02*
X0117627Y0043337D01*
X0127627Y0043337D02*
X0132627Y0050337D01*
X0137627Y0050337D01*
D20*
X0087627Y0059587D03*
X0087627Y0059587D03*
X0077627Y0049587D03*
X0077627Y0049587D03*
X0077627Y0071087D03*
X0077627Y0071087D03*
X0087627Y0081087D03*
X0087627Y0081087D03*
M02*
