G75*
%MOIN*%
%OFA0B0*%
%FSLAX25Y25*%
%IPPOS*%
%LPD*%
%AMOC8*
5,1,8,0,0,1.08239X$1,22.5*
%
%ADD10C,0.00000*%
%ADD11C,0.05543*%
%ADD12R,0.04756X0.04756*%
%ADD13C,0.07000*%
%ADD14R,0.06300X0.06300*%
%ADD15R,0.03962X0.03962*%
%ADD16C,0.05000*%
D10*
X0047627Y0030337D02*
X0047627Y0120337D01*
X0167627Y0120337D01*
X0167627Y0030337D01*
X0047627Y0030337D01*
D11*
X0077627Y0040337D03*
X0087627Y0050337D03*
X0057627Y0060337D03*
X0077627Y0080337D03*
X0087627Y0090337D03*
X0097627Y0100337D03*
X0107627Y0100337D03*
X0117627Y0110337D03*
X0127627Y0100337D03*
X0077627Y0110337D03*
X0057627Y0100337D03*
D12*
X0057627Y0070337D03*
D13*
X0067627Y0080337D03*
X0097627Y0080337D03*
X0097627Y0070337D03*
X0097627Y0060337D03*
X0097627Y0050337D03*
X0117627Y0050337D03*
X0127627Y0060337D03*
X0127627Y0070337D03*
X0127627Y0080337D03*
X0127627Y0090337D03*
X0137627Y0100337D03*
X0157627Y0100337D03*
X0157627Y0110337D03*
X0097627Y0090337D03*
X0057627Y0050337D03*
X0057627Y0040337D03*
X0137627Y0050337D03*
X0157627Y0050337D03*
X0157627Y0040337D03*
X0157627Y0060337D03*
D14*
X0157627Y0070337D03*
X0137627Y0110337D03*
X0067627Y0090337D03*
D15*
X0147627Y0100337D03*
X0147627Y0040337D03*
D16*
X0147627Y0100337D01*
M02*
