%
M48
M72
T01C0.02362
T02C0.02756
T03C0.03150
T04C0.03543
%
T01
X12867Y4033
X12867Y10033
T02
X3867Y7033
T03
X4867Y9033
X11867Y11033
X13867Y7033
T04
X3867Y4033
X3867Y5033
X3867Y6033
X4867Y8033
X5867Y8033
X6867Y9033
X7867Y9033
X7867Y8033
X7867Y7033
X7867Y6033
X7867Y5033
X6867Y5033
X5867Y4033
X9867Y5033
X10867Y6033
X10867Y7033
X10867Y8033
X10867Y9033
X10867Y10033
X11867Y10033
X13867Y10033
X13867Y11033
X9867Y11033
X8867Y10033
X7867Y10033
X5867Y11033
X3867Y10033
X11867Y5033
X13867Y5033
X13867Y4033
X13867Y6033
M30
