G75*
%MOIN*%
%OFA0B0*%
%FSLAX25Y25*%
%IPPOS*%
%LPD*%
%AMOC8*
5,1,8,0,0,1.08239X$1,22.5*
%
%ADD10C,0.05543*%
%ADD11R,0.04756X0.04756*%
%ADD12C,0.07000*%
%ADD13R,0.06300X0.06300*%
%ADD14C,0.05000*%
%ADD15R,0.03962X0.03962*%
D10*
X0058676Y0040337D03*
X0068676Y0050337D03*
X0038676Y0060337D03*
X0058676Y0080337D03*
X0068676Y0090337D03*
X0078676Y0100337D03*
X0088676Y0100337D03*
X0098676Y0110337D03*
X0108676Y0100337D03*
X0058676Y0110337D03*
X0038676Y0100337D03*
D11*
X0038676Y0070337D03*
D12*
X0038676Y0040337D03*
X0038676Y0050337D03*
X0048676Y0080337D03*
X0078676Y0080337D03*
X0078676Y0070337D03*
X0078676Y0060337D03*
X0078676Y0050337D03*
X0098676Y0050337D03*
X0108676Y0060337D03*
X0108676Y0070337D03*
X0108676Y0080337D03*
X0108676Y0090337D03*
X0118676Y0100337D03*
X0138676Y0100337D03*
X0138676Y0110337D03*
X0138676Y0060337D03*
X0138676Y0050337D03*
X0138676Y0040337D03*
X0118676Y0050337D03*
X0078676Y0090337D03*
D13*
X0048676Y0090337D03*
X0118676Y0110337D03*
X0138676Y0070337D03*
D14*
X0098676Y0070337D01*
X0098676Y0050337D01*
X0118676Y0050337D01*
X0128676Y0040337D02*
X0138676Y0040337D01*
X0138676Y0045337D01*
X0138676Y0050337D02*
X0138676Y0060337D01*
X0128676Y0040337D02*
X0088676Y0040337D01*
X0088676Y0060337D01*
X0078676Y0060337D01*
X0078676Y0050337D02*
X0068676Y0050337D01*
X0058676Y0040337D02*
X0088676Y0040337D01*
X0058676Y0040337D02*
X0048676Y0040337D01*
X0048676Y0080337D01*
X0058676Y0080337D02*
X0058676Y0070337D01*
X0078676Y0070337D01*
X0078676Y0080337D02*
X0068676Y0080337D01*
X0068676Y0090337D01*
X0068676Y0100337D01*
X0078676Y0100337D01*
X0088676Y0100337D02*
X0088676Y0090337D01*
X0088676Y0080337D01*
X0108676Y0080337D01*
X0108676Y0100337D02*
X0118676Y0100337D01*
X0128676Y0100337D01*
X0138676Y0100337D01*
X0138676Y0110337D02*
X0118676Y0110337D01*
X0098676Y0110337D01*
X0088676Y0110337D01*
X0088676Y0100337D01*
X0058676Y0090337D02*
X0058676Y0080337D01*
X0058676Y0110337D01*
X0038676Y0100337D02*
X0038676Y0070337D01*
X0038676Y0060337D02*
X0038676Y0050337D01*
X0038676Y0040337D02*
X0058676Y0040337D01*
X0058676Y0090337D02*
X0048676Y0090337D01*
D15*
X0128676Y0100337D03*
X0128676Y0040337D03*
M02*
