%
M48
M72
T01C0.03150
T02C0.03543
T03C0.04331
%
T01
X5100Y1100
X5100Y2100
X5100Y3100
X8100Y3100
X8100Y2100
X8100Y1100
X14100Y1100
X14100Y2100
X14100Y3100
X15100Y3100
X15100Y4100
X15100Y5100
X14100Y5100
X14100Y6100
X14100Y7100
X17100Y5100
X2100Y8100
T02
X3100Y2100
X4100Y2100
X6100Y2100
X7100Y2100
X9100Y3100
X8100Y4100
X7100Y5100
X6100Y4100
X5100Y4100
X4100Y5100
X3100Y4100
X2100Y4100
X2100Y3100
X2100Y6100
X4100Y6100
X4100Y7100
X5100Y7100
X4100Y8100
X7100Y8100
X7100Y7100
X8100Y7100
X9100Y7100
X7100Y6100
X9100Y5100
X10100Y5100
X11100Y5100
X12100Y4100
X13100Y4100
X14100Y4100
X17100Y3100
X17100Y2100
X17100Y1100
X15100Y1100
X11100Y2100
X10100Y2100
X12100Y6100
X12100Y7100
X17100Y8100
T03
X16100Y8100
X15100Y8100
X14100Y8100
M30
