G75*
%MOIN*%
%OFA0B0*%
%FSLAX25Y25*%
%IPPOS*%
%LPD*%
%AMOC8*
5,1,8,0,0,1.08239X$1,22.5*
%
%ADD10C,0.00000*%
%ADD11C,0.05543*%
%ADD12R,0.04756X0.04756*%
%ADD13C,0.07000*%
%ADD14R,0.06300X0.06300*%
%ADD15R,0.03962X0.03962*%
%ADD16C,0.05000*%
D10*
X0028676Y0030337D02*
X0028676Y0120337D01*
X0148676Y0120337D01*
X0148676Y0030337D01*
X0028676Y0030337D01*
D11*
X0058676Y0040337D03*
X0068676Y0050337D03*
X0038676Y0060337D03*
X0058676Y0080337D03*
X0068676Y0090337D03*
X0078676Y0100337D03*
X0088676Y0100337D03*
X0098676Y0110337D03*
X0108676Y0100337D03*
X0058676Y0110337D03*
X0038676Y0100337D03*
D12*
X0038676Y0070337D03*
D13*
X0048676Y0080337D03*
X0078676Y0080337D03*
X0078676Y0070337D03*
X0078676Y0060337D03*
X0078676Y0050337D03*
X0098676Y0050337D03*
X0108676Y0060337D03*
X0108676Y0070337D03*
X0108676Y0080337D03*
X0108676Y0090337D03*
X0118676Y0100337D03*
X0138676Y0100337D03*
X0138676Y0110337D03*
X0138676Y0060337D03*
X0138676Y0050337D03*
X0138676Y0040337D03*
X0118676Y0050337D03*
X0078676Y0090337D03*
X0038676Y0050337D03*
X0038676Y0040337D03*
D14*
X0048676Y0090337D03*
X0118676Y0110337D03*
X0138676Y0070337D03*
D15*
X0128676Y0040337D03*
X0128676Y0100337D03*
D16*
X0128676Y0040337D01*
M02*
