G75*
%MOIN*%
%OFA0B0*%
%FSLAX25Y25*%
%IPPOS*%
%LPD*%
%AMOC8*
5,1,8,0,0,1.08239X$1,22.5*
%
%ADD10C,0.00200*%
D10*
X0015944Y0022700D02*
X0015944Y0024168D01*
X0016678Y0024902D01*
X0017412Y0024168D01*
X0017412Y0022700D01*
X0018153Y0023067D02*
X0018520Y0022700D01*
X0019254Y0022700D01*
X0019621Y0023067D01*
X0019621Y0024902D01*
X0020363Y0024902D02*
X0021464Y0024902D01*
X0021831Y0024535D01*
X0021831Y0023067D01*
X0021464Y0022700D01*
X0020363Y0022700D01*
X0020363Y0024902D01*
X0022573Y0024902D02*
X0023307Y0024902D01*
X0022940Y0024902D02*
X0022940Y0022700D01*
X0022573Y0022700D02*
X0023307Y0022700D01*
X0024046Y0023067D02*
X0024413Y0022700D01*
X0025147Y0022700D01*
X0025514Y0023067D01*
X0025514Y0024535D01*
X0025147Y0024902D01*
X0024413Y0024902D01*
X0024046Y0024535D01*
X0024046Y0023067D01*
X0018153Y0023067D02*
X0018153Y0024902D01*
X0017412Y0023801D02*
X0015944Y0023801D01*
X0166680Y0004535D02*
X0166680Y0004168D01*
X0167047Y0003801D01*
X0167781Y0003801D01*
X0168148Y0003434D01*
X0168148Y0003067D01*
X0167781Y0002700D01*
X0167047Y0002700D01*
X0166680Y0003067D01*
X0166680Y0004535D02*
X0167047Y0004902D01*
X0167781Y0004902D01*
X0168148Y0004535D01*
X0168890Y0004902D02*
X0169991Y0004902D01*
X0170358Y0004535D01*
X0170358Y0003801D01*
X0169991Y0003434D01*
X0168890Y0003434D01*
X0168890Y0002700D02*
X0168890Y0004902D01*
X0171100Y0004902D02*
X0171100Y0002700D01*
X0171100Y0003434D02*
X0172568Y0004902D01*
X0173310Y0004902D02*
X0174411Y0004902D01*
X0174778Y0004535D01*
X0174778Y0003801D01*
X0174411Y0003434D01*
X0173310Y0003434D01*
X0174044Y0003434D02*
X0174778Y0002700D01*
X0173310Y0002700D02*
X0173310Y0004902D01*
X0171467Y0003801D02*
X0172568Y0002700D01*
M02*
