%
M48
M72
T01C0.03543
T02C0.04331
%
T01
X5226Y1100
X9226Y2100
X10226Y2100
X10226Y3100
X10226Y4100
X9226Y4100
X8226Y4100
X7226Y4100
X8226Y5100
X10226Y5100
X10226Y6100
X13226Y5100
X14226Y6100
X15226Y7100
X15226Y8100
X15226Y9100
X14226Y9100
X10226Y9100
X9226Y8100
X8226Y9100
X4226Y7100
X1226Y8100
X1226Y9100
X4226Y5100
X4226Y4100
X5226Y4100
X12226Y3100
X12226Y2100
X13226Y1100
X14226Y1100
X16226Y1100
X16226Y2100
X14226Y3100
X14226Y4100
X16226Y4100
T02
X1226Y1100
X3226Y1100
X3226Y3100
M30
