G75*
%MOIN*%
%OFA0B0*%
%FSLAX25Y25*%
%IPPOS*%
%LPD*%
%AMOC8*
5,1,8,0,0,1.08239X$1,22.5*
%
%ADD10R,0.02356X0.01254*%
%ADD11R,0.01254X0.02356*%
%ADD12R,0.03600X0.03100*%
D10*
X0091000Y0079386D03*
X0091000Y0081945D03*
X0091000Y0084504D03*
X0098087Y0084504D03*
X0098087Y0081945D03*
X0098087Y0079386D03*
X0098087Y0099858D03*
X0098087Y0102417D03*
X0098087Y0104976D03*
X0091000Y0104976D03*
X0091000Y0102417D03*
X0091000Y0099858D03*
X0061866Y0120331D03*
X0061866Y0122890D03*
X0061866Y0125449D03*
X0054780Y0125449D03*
X0054780Y0122890D03*
X0054780Y0120331D03*
D11*
X0077024Y0120134D03*
X0079583Y0120134D03*
X0082142Y0120134D03*
X0082142Y0127220D03*
X0079583Y0127220D03*
X0077024Y0127220D03*
X0097496Y0127220D03*
X0100055Y0127220D03*
X0102614Y0127220D03*
X0102614Y0120134D03*
X0100055Y0120134D03*
X0097496Y0120134D03*
X0117969Y0120134D03*
X0120528Y0120134D03*
X0123087Y0120134D03*
X0123087Y0127220D03*
X0120528Y0127220D03*
X0117969Y0127220D03*
X0118362Y0105567D03*
X0115803Y0105567D03*
X0113244Y0105567D03*
X0113244Y0098480D03*
X0115803Y0098480D03*
X0118362Y0098480D03*
X0133717Y0098480D03*
X0136276Y0098480D03*
X0138835Y0098480D03*
X0138835Y0105567D03*
X0136276Y0105567D03*
X0133717Y0105567D03*
X0075843Y0091787D03*
X0073283Y0091787D03*
X0070724Y0091787D03*
X0070724Y0084701D03*
X0073283Y0084701D03*
X0075843Y0084701D03*
D12*
X0054780Y0098378D03*
X0054780Y0104882D03*
X0133520Y0083228D03*
X0133520Y0076724D03*
M02*
