%
M48
M72
T01C0.03543
%
T01
X2123Y1123
X1123Y3123
X4123Y3123
X4123Y4123
X6123Y3123
X7123Y4123
X8123Y4123
X8123Y3123
X8123Y2123
X9123Y2123
X10123Y2123
X10123Y4123
X10123Y5123
X9123Y5123
X9123Y7123
X8123Y7123
X7123Y8123
X6123Y9123
X6123Y11123
X4123Y11123
X4123Y10123
X4123Y9123
X3123Y10123
X2123Y10123
X1123Y10123
X1123Y8123
X4123Y1123
X10123Y7123
X10123Y9123
X10123Y10123
X8123Y11123
M30
