G75*
%MOIN*%
%OFA0B0*%
%FSLAX25Y25*%
%IPPOS*%
%LPD*%
%AMOC8*
5,1,8,0,0,1.08239X$1,22.5*
%
%ADD10C,0.00472*%
%ADD11R,0.07000X0.07000*%
%ADD12C,0.07000*%
%ADD13C,0.01600*%
%ADD14C,0.04000*%
D10*
X0001236Y0001236D02*
X0121236Y0001236D01*
X0121236Y0101236D01*
X0001236Y0101236D01*
X0001236Y0001236D01*
D11*
X0011236Y0011236D03*
X0011236Y0031236D03*
X0051236Y0011236D03*
D12*
X0041236Y0011236D03*
X0031236Y0011236D03*
X0011236Y0021236D03*
X0011236Y0041236D03*
X0011236Y0051236D03*
X0031236Y0041236D03*
X0041236Y0041236D03*
X0051236Y0031236D03*
X0051236Y0021236D03*
X0061236Y0021236D03*
X0071236Y0021236D03*
X0081236Y0021236D03*
X0081236Y0011236D03*
X0061236Y0011236D03*
X0061236Y0041236D03*
X0071236Y0041236D03*
X0081236Y0041236D03*
X0081236Y0051236D03*
X0071236Y0061236D03*
X0051236Y0061236D03*
X0031236Y0061236D03*
X0031236Y0081236D03*
X0021236Y0091236D03*
X0011236Y0091236D03*
X0051236Y0081236D03*
X0061236Y0091236D03*
X0071236Y0091236D03*
X0111236Y0091236D03*
D13*
X0021236Y0031236D02*
X0021236Y0011236D01*
D14*
X0021236Y0011236D03*
X0021236Y0031236D03*
M02*
