%
M48
M72
T01C0.03543
T02C0.04331
%
T01
X2100Y3100
X2100Y4100
X2100Y5100
X3100Y8100
X4100Y8100
X2100Y9100
X2100Y10100
X4100Y10100
X2100Y12100
X6100Y12100
X8100Y11100
X8100Y8100
X8100Y7100
X8100Y6100
X8100Y5100
X8100Y4100
X10100Y4100
X12100Y4100
X13100Y4100
X14100Y4100
X14100Y6100
X14100Y7100
X12100Y6100
X10100Y6100
X10100Y7100
X10100Y8100
X12100Y8100
X14100Y12100
T02
X6100Y6100
X4100Y6100
X6100Y4100
M30
