G75*
%MOIN*%
%OFA0B0*%
%FSLAX25Y25*%
%IPPOS*%
%LPD*%
%AMOC8*
5,1,8,0,0,1.08239X$1,22.5*
%
%ADD10C,0.00600*%
%ADD11R,0.02000X0.10000*%
%ADD12C,0.00200*%
%ADD13C,0.00500*%
%ADD14C,0.00300*%
%ADD15C,0.01200*%
%ADD16C,0.00400*%
%ADD17C,0.00100*%
%ADD18R,0.01000X0.04000*%
%ADD19C,0.01000*%
%ADD20R,0.01000X0.01500*%
%ADD21R,0.01500X0.02000*%
D10*
X0109500Y0096500D02*
X0122500Y0096500D01*
X0122587Y0096502D01*
X0122674Y0096508D01*
X0122761Y0096517D01*
X0122847Y0096530D01*
X0122933Y0096547D01*
X0123018Y0096568D01*
X0123101Y0096593D01*
X0123184Y0096621D01*
X0123265Y0096652D01*
X0123345Y0096687D01*
X0123423Y0096726D01*
X0123500Y0096768D01*
X0123575Y0096813D01*
X0123647Y0096862D01*
X0123718Y0096913D01*
X0123786Y0096968D01*
X0123851Y0097025D01*
X0123914Y0097086D01*
X0123975Y0097149D01*
X0124032Y0097214D01*
X0124087Y0097282D01*
X0124138Y0097353D01*
X0124187Y0097425D01*
X0124232Y0097500D01*
X0124274Y0097577D01*
X0124313Y0097655D01*
X0124348Y0097735D01*
X0124379Y0097816D01*
X0124407Y0097899D01*
X0124432Y0097982D01*
X0124453Y0098067D01*
X0124470Y0098153D01*
X0124483Y0098239D01*
X0124492Y0098326D01*
X0124498Y0098413D01*
X0124500Y0098500D01*
X0124500Y0103500D01*
X0124498Y0103587D01*
X0124492Y0103674D01*
X0124483Y0103761D01*
X0124470Y0103847D01*
X0124453Y0103933D01*
X0124432Y0104018D01*
X0124407Y0104101D01*
X0124379Y0104184D01*
X0124348Y0104265D01*
X0124313Y0104345D01*
X0124274Y0104423D01*
X0124232Y0104500D01*
X0124187Y0104575D01*
X0124138Y0104647D01*
X0124087Y0104718D01*
X0124032Y0104786D01*
X0123975Y0104851D01*
X0123914Y0104914D01*
X0123851Y0104975D01*
X0123786Y0105032D01*
X0123718Y0105087D01*
X0123647Y0105138D01*
X0123575Y0105187D01*
X0123500Y0105232D01*
X0123423Y0105274D01*
X0123345Y0105313D01*
X0123265Y0105348D01*
X0123184Y0105379D01*
X0123101Y0105407D01*
X0123018Y0105432D01*
X0122933Y0105453D01*
X0122847Y0105470D01*
X0122761Y0105483D01*
X0122674Y0105492D01*
X0122587Y0105498D01*
X0122500Y0105500D01*
X0109500Y0105500D01*
X0109413Y0105498D01*
X0109326Y0105492D01*
X0109239Y0105483D01*
X0109153Y0105470D01*
X0109067Y0105453D01*
X0108982Y0105432D01*
X0108899Y0105407D01*
X0108816Y0105379D01*
X0108735Y0105348D01*
X0108655Y0105313D01*
X0108577Y0105274D01*
X0108500Y0105232D01*
X0108425Y0105187D01*
X0108353Y0105138D01*
X0108282Y0105087D01*
X0108214Y0105032D01*
X0108149Y0104975D01*
X0108086Y0104914D01*
X0108025Y0104851D01*
X0107968Y0104786D01*
X0107913Y0104718D01*
X0107862Y0104647D01*
X0107813Y0104575D01*
X0107768Y0104500D01*
X0107726Y0104423D01*
X0107687Y0104345D01*
X0107652Y0104265D01*
X0107621Y0104184D01*
X0107593Y0104101D01*
X0107568Y0104018D01*
X0107547Y0103933D01*
X0107530Y0103847D01*
X0107517Y0103761D01*
X0107508Y0103674D01*
X0107502Y0103587D01*
X0107500Y0103500D01*
X0107500Y0098500D01*
X0107502Y0098413D01*
X0107508Y0098326D01*
X0107517Y0098239D01*
X0107530Y0098153D01*
X0107547Y0098067D01*
X0107568Y0097982D01*
X0107593Y0097899D01*
X0107621Y0097816D01*
X0107652Y0097735D01*
X0107687Y0097655D01*
X0107726Y0097577D01*
X0107768Y0097500D01*
X0107813Y0097425D01*
X0107862Y0097353D01*
X0107913Y0097282D01*
X0107968Y0097214D01*
X0108025Y0097149D01*
X0108086Y0097086D01*
X0108149Y0097025D01*
X0108214Y0096968D01*
X0108282Y0096913D01*
X0108353Y0096862D01*
X0108425Y0096813D01*
X0108500Y0096768D01*
X0108577Y0096726D01*
X0108655Y0096687D01*
X0108735Y0096652D01*
X0108816Y0096621D01*
X0108899Y0096593D01*
X0108982Y0096568D01*
X0109067Y0096547D01*
X0109153Y0096530D01*
X0109239Y0096517D01*
X0109326Y0096508D01*
X0109413Y0096502D01*
X0109500Y0096500D01*
X0111000Y0101000D02*
X0114700Y0101000D01*
X0117200Y0101000D02*
X0121000Y0101000D01*
X0171000Y0104000D02*
X0171000Y0098000D01*
X0171002Y0097940D01*
X0171007Y0097879D01*
X0171016Y0097820D01*
X0171029Y0097761D01*
X0171045Y0097702D01*
X0171065Y0097645D01*
X0171088Y0097590D01*
X0171115Y0097535D01*
X0171144Y0097483D01*
X0171177Y0097432D01*
X0171213Y0097383D01*
X0171251Y0097337D01*
X0171293Y0097293D01*
X0171337Y0097251D01*
X0171383Y0097213D01*
X0171432Y0097177D01*
X0171483Y0097144D01*
X0171535Y0097115D01*
X0171590Y0097088D01*
X0171645Y0097065D01*
X0171702Y0097045D01*
X0171761Y0097029D01*
X0171820Y0097016D01*
X0171879Y0097007D01*
X0171940Y0097002D01*
X0172000Y0097000D01*
X0173500Y0097000D01*
X0174000Y0097500D01*
X0188000Y0097500D01*
X0188500Y0097000D01*
X0190000Y0097000D01*
X0190060Y0097002D01*
X0190121Y0097007D01*
X0190180Y0097016D01*
X0190239Y0097029D01*
X0190298Y0097045D01*
X0190355Y0097065D01*
X0190410Y0097088D01*
X0190465Y0097115D01*
X0190517Y0097144D01*
X0190568Y0097177D01*
X0190617Y0097213D01*
X0190663Y0097251D01*
X0190707Y0097293D01*
X0190749Y0097337D01*
X0190787Y0097383D01*
X0190823Y0097432D01*
X0190856Y0097483D01*
X0190885Y0097535D01*
X0190912Y0097590D01*
X0190935Y0097645D01*
X0190955Y0097702D01*
X0190971Y0097761D01*
X0190984Y0097820D01*
X0190993Y0097879D01*
X0190998Y0097940D01*
X0191000Y0098000D01*
X0191000Y0104000D01*
X0190998Y0104060D01*
X0190993Y0104121D01*
X0190984Y0104180D01*
X0190971Y0104239D01*
X0190955Y0104298D01*
X0190935Y0104355D01*
X0190912Y0104410D01*
X0190885Y0104465D01*
X0190856Y0104517D01*
X0190823Y0104568D01*
X0190787Y0104617D01*
X0190749Y0104663D01*
X0190707Y0104707D01*
X0190663Y0104749D01*
X0190617Y0104787D01*
X0190568Y0104823D01*
X0190517Y0104856D01*
X0190465Y0104885D01*
X0190410Y0104912D01*
X0190355Y0104935D01*
X0190298Y0104955D01*
X0190239Y0104971D01*
X0190180Y0104984D01*
X0190121Y0104993D01*
X0190060Y0104998D01*
X0190000Y0105000D01*
X0188500Y0105000D01*
X0188000Y0104500D01*
X0174000Y0104500D01*
X0173500Y0105000D01*
X0172000Y0105000D01*
X0171940Y0104998D01*
X0171879Y0104993D01*
X0171820Y0104984D01*
X0171761Y0104971D01*
X0171702Y0104955D01*
X0171645Y0104935D01*
X0171590Y0104912D01*
X0171535Y0104885D01*
X0171483Y0104856D01*
X0171432Y0104823D01*
X0171383Y0104787D01*
X0171337Y0104749D01*
X0171293Y0104707D01*
X0171251Y0104663D01*
X0171213Y0104617D01*
X0171177Y0104568D01*
X0171144Y0104517D01*
X0171115Y0104465D01*
X0171088Y0104410D01*
X0171065Y0104355D01*
X0171045Y0104298D01*
X0171029Y0104239D01*
X0171016Y0104180D01*
X0171007Y0104121D01*
X0171002Y0104060D01*
X0171000Y0104000D01*
X0171002Y0104060D01*
X0171007Y0104121D01*
X0171016Y0104180D01*
X0171029Y0104239D01*
X0171045Y0104298D01*
X0171065Y0104355D01*
X0171088Y0104410D01*
X0171115Y0104465D01*
X0171144Y0104517D01*
X0171177Y0104568D01*
X0171213Y0104617D01*
X0171251Y0104663D01*
X0171293Y0104707D01*
X0171337Y0104749D01*
X0171383Y0104787D01*
X0171432Y0104823D01*
X0171483Y0104856D01*
X0171535Y0104885D01*
X0171590Y0104912D01*
X0171645Y0104935D01*
X0171702Y0104955D01*
X0171761Y0104971D01*
X0171820Y0104984D01*
X0171879Y0104993D01*
X0171940Y0104998D01*
X0172000Y0105000D01*
X0171000Y0098000D02*
X0171002Y0097940D01*
X0171007Y0097879D01*
X0171016Y0097820D01*
X0171029Y0097761D01*
X0171045Y0097702D01*
X0171065Y0097645D01*
X0171088Y0097590D01*
X0171115Y0097535D01*
X0171144Y0097483D01*
X0171177Y0097432D01*
X0171213Y0097383D01*
X0171251Y0097337D01*
X0171293Y0097293D01*
X0171337Y0097251D01*
X0171383Y0097213D01*
X0171432Y0097177D01*
X0171483Y0097144D01*
X0171535Y0097115D01*
X0171590Y0097088D01*
X0171645Y0097065D01*
X0171702Y0097045D01*
X0171761Y0097029D01*
X0171820Y0097016D01*
X0171879Y0097007D01*
X0171940Y0097002D01*
X0172000Y0097000D01*
X0190000Y0097000D02*
X0190060Y0097002D01*
X0190121Y0097007D01*
X0190180Y0097016D01*
X0190239Y0097029D01*
X0190298Y0097045D01*
X0190355Y0097065D01*
X0190410Y0097088D01*
X0190465Y0097115D01*
X0190517Y0097144D01*
X0190568Y0097177D01*
X0190617Y0097213D01*
X0190663Y0097251D01*
X0190707Y0097293D01*
X0190749Y0097337D01*
X0190787Y0097383D01*
X0190823Y0097432D01*
X0190856Y0097483D01*
X0190885Y0097535D01*
X0190912Y0097590D01*
X0190935Y0097645D01*
X0190955Y0097702D01*
X0190971Y0097761D01*
X0190984Y0097820D01*
X0190993Y0097879D01*
X0190998Y0097940D01*
X0191000Y0098000D01*
X0191000Y0104000D02*
X0190998Y0104060D01*
X0190993Y0104121D01*
X0190984Y0104180D01*
X0190971Y0104239D01*
X0190955Y0104298D01*
X0190935Y0104355D01*
X0190912Y0104410D01*
X0190885Y0104465D01*
X0190856Y0104517D01*
X0190823Y0104568D01*
X0190787Y0104617D01*
X0190749Y0104663D01*
X0190707Y0104707D01*
X0190663Y0104749D01*
X0190617Y0104787D01*
X0190568Y0104823D01*
X0190517Y0104856D01*
X0190465Y0104885D01*
X0190410Y0104912D01*
X0190355Y0104935D01*
X0190298Y0104955D01*
X0190239Y0104971D01*
X0190180Y0104984D01*
X0190121Y0104993D01*
X0190060Y0104998D01*
X0190000Y0105000D01*
X0197000Y0116000D02*
X0199000Y0116000D01*
X0199000Y0121000D01*
X0199000Y0126000D01*
X0197000Y0126000D01*
X0197000Y0116000D01*
X0200500Y0116000D02*
X0201500Y0116000D01*
X0201500Y0115000D01*
X0201500Y0116000D02*
X0201500Y0117000D01*
X0201500Y0116000D02*
X0202500Y0116000D01*
X0202500Y0121000D02*
X0199000Y0121000D01*
X0186000Y0121000D02*
X0186003Y0121245D01*
X0186012Y0121491D01*
X0186027Y0121736D01*
X0186048Y0121980D01*
X0186075Y0122224D01*
X0186108Y0122467D01*
X0186147Y0122710D01*
X0186192Y0122951D01*
X0186243Y0123191D01*
X0186300Y0123430D01*
X0186362Y0123667D01*
X0186431Y0123903D01*
X0186505Y0124137D01*
X0186585Y0124369D01*
X0186670Y0124599D01*
X0186761Y0124827D01*
X0186858Y0125052D01*
X0186960Y0125276D01*
X0187068Y0125496D01*
X0187181Y0125714D01*
X0187299Y0125929D01*
X0187423Y0126141D01*
X0187551Y0126350D01*
X0187685Y0126556D01*
X0187824Y0126758D01*
X0187968Y0126957D01*
X0188117Y0127152D01*
X0188270Y0127344D01*
X0188428Y0127532D01*
X0188590Y0127716D01*
X0188758Y0127895D01*
X0188929Y0128071D01*
X0189105Y0128242D01*
X0189284Y0128410D01*
X0189468Y0128572D01*
X0189656Y0128730D01*
X0189848Y0128883D01*
X0190043Y0129032D01*
X0190242Y0129176D01*
X0190444Y0129315D01*
X0190650Y0129449D01*
X0190859Y0129577D01*
X0191071Y0129701D01*
X0191286Y0129819D01*
X0191504Y0129932D01*
X0191724Y0130040D01*
X0191948Y0130142D01*
X0192173Y0130239D01*
X0192401Y0130330D01*
X0192631Y0130415D01*
X0192863Y0130495D01*
X0193097Y0130569D01*
X0193333Y0130638D01*
X0193570Y0130700D01*
X0193809Y0130757D01*
X0194049Y0130808D01*
X0194290Y0130853D01*
X0194533Y0130892D01*
X0194776Y0130925D01*
X0195020Y0130952D01*
X0195264Y0130973D01*
X0195509Y0130988D01*
X0195755Y0130997D01*
X0196000Y0131000D01*
X0196245Y0130997D01*
X0196491Y0130988D01*
X0196736Y0130973D01*
X0196980Y0130952D01*
X0197224Y0130925D01*
X0197467Y0130892D01*
X0197710Y0130853D01*
X0197951Y0130808D01*
X0198191Y0130757D01*
X0198430Y0130700D01*
X0198667Y0130638D01*
X0198903Y0130569D01*
X0199137Y0130495D01*
X0199369Y0130415D01*
X0199599Y0130330D01*
X0199827Y0130239D01*
X0200052Y0130142D01*
X0200276Y0130040D01*
X0200496Y0129932D01*
X0200714Y0129819D01*
X0200929Y0129701D01*
X0201141Y0129577D01*
X0201350Y0129449D01*
X0201556Y0129315D01*
X0201758Y0129176D01*
X0201957Y0129032D01*
X0202152Y0128883D01*
X0202344Y0128730D01*
X0202532Y0128572D01*
X0202716Y0128410D01*
X0202895Y0128242D01*
X0203071Y0128071D01*
X0203242Y0127895D01*
X0203410Y0127716D01*
X0203572Y0127532D01*
X0203730Y0127344D01*
X0203883Y0127152D01*
X0204032Y0126957D01*
X0204176Y0126758D01*
X0204315Y0126556D01*
X0204449Y0126350D01*
X0204577Y0126141D01*
X0204701Y0125929D01*
X0204819Y0125714D01*
X0204932Y0125496D01*
X0205040Y0125276D01*
X0205142Y0125052D01*
X0205239Y0124827D01*
X0205330Y0124599D01*
X0205415Y0124369D01*
X0205495Y0124137D01*
X0205569Y0123903D01*
X0205638Y0123667D01*
X0205700Y0123430D01*
X0205757Y0123191D01*
X0205808Y0122951D01*
X0205853Y0122710D01*
X0205892Y0122467D01*
X0205925Y0122224D01*
X0205952Y0121980D01*
X0205973Y0121736D01*
X0205988Y0121491D01*
X0205997Y0121245D01*
X0206000Y0121000D01*
X0205997Y0120755D01*
X0205988Y0120509D01*
X0205973Y0120264D01*
X0205952Y0120020D01*
X0205925Y0119776D01*
X0205892Y0119533D01*
X0205853Y0119290D01*
X0205808Y0119049D01*
X0205757Y0118809D01*
X0205700Y0118570D01*
X0205638Y0118333D01*
X0205569Y0118097D01*
X0205495Y0117863D01*
X0205415Y0117631D01*
X0205330Y0117401D01*
X0205239Y0117173D01*
X0205142Y0116948D01*
X0205040Y0116724D01*
X0204932Y0116504D01*
X0204819Y0116286D01*
X0204701Y0116071D01*
X0204577Y0115859D01*
X0204449Y0115650D01*
X0204315Y0115444D01*
X0204176Y0115242D01*
X0204032Y0115043D01*
X0203883Y0114848D01*
X0203730Y0114656D01*
X0203572Y0114468D01*
X0203410Y0114284D01*
X0203242Y0114105D01*
X0203071Y0113929D01*
X0202895Y0113758D01*
X0202716Y0113590D01*
X0202532Y0113428D01*
X0202344Y0113270D01*
X0202152Y0113117D01*
X0201957Y0112968D01*
X0201758Y0112824D01*
X0201556Y0112685D01*
X0201350Y0112551D01*
X0201141Y0112423D01*
X0200929Y0112299D01*
X0200714Y0112181D01*
X0200496Y0112068D01*
X0200276Y0111960D01*
X0200052Y0111858D01*
X0199827Y0111761D01*
X0199599Y0111670D01*
X0199369Y0111585D01*
X0199137Y0111505D01*
X0198903Y0111431D01*
X0198667Y0111362D01*
X0198430Y0111300D01*
X0198191Y0111243D01*
X0197951Y0111192D01*
X0197710Y0111147D01*
X0197467Y0111108D01*
X0197224Y0111075D01*
X0196980Y0111048D01*
X0196736Y0111027D01*
X0196491Y0111012D01*
X0196245Y0111003D01*
X0196000Y0111000D01*
X0195755Y0111003D01*
X0195509Y0111012D01*
X0195264Y0111027D01*
X0195020Y0111048D01*
X0194776Y0111075D01*
X0194533Y0111108D01*
X0194290Y0111147D01*
X0194049Y0111192D01*
X0193809Y0111243D01*
X0193570Y0111300D01*
X0193333Y0111362D01*
X0193097Y0111431D01*
X0192863Y0111505D01*
X0192631Y0111585D01*
X0192401Y0111670D01*
X0192173Y0111761D01*
X0191948Y0111858D01*
X0191724Y0111960D01*
X0191504Y0112068D01*
X0191286Y0112181D01*
X0191071Y0112299D01*
X0190859Y0112423D01*
X0190650Y0112551D01*
X0190444Y0112685D01*
X0190242Y0112824D01*
X0190043Y0112968D01*
X0189848Y0113117D01*
X0189656Y0113270D01*
X0189468Y0113428D01*
X0189284Y0113590D01*
X0189105Y0113758D01*
X0188929Y0113929D01*
X0188758Y0114105D01*
X0188590Y0114284D01*
X0188428Y0114468D01*
X0188270Y0114656D01*
X0188117Y0114848D01*
X0187968Y0115043D01*
X0187824Y0115242D01*
X0187685Y0115444D01*
X0187551Y0115650D01*
X0187423Y0115859D01*
X0187299Y0116071D01*
X0187181Y0116286D01*
X0187068Y0116504D01*
X0186960Y0116724D01*
X0186858Y0116948D01*
X0186761Y0117173D01*
X0186670Y0117401D01*
X0186585Y0117631D01*
X0186505Y0117863D01*
X0186431Y0118097D01*
X0186362Y0118333D01*
X0186300Y0118570D01*
X0186243Y0118809D01*
X0186192Y0119049D01*
X0186147Y0119290D01*
X0186108Y0119533D01*
X0186075Y0119776D01*
X0186048Y0120020D01*
X0186027Y0120264D01*
X0186012Y0120509D01*
X0186003Y0120755D01*
X0186000Y0121000D01*
X0189500Y0121000D02*
X0193500Y0121000D01*
X0123500Y0142000D02*
X0123500Y0150000D01*
X0123498Y0150060D01*
X0123493Y0150121D01*
X0123484Y0150180D01*
X0123471Y0150239D01*
X0123455Y0150298D01*
X0123435Y0150355D01*
X0123412Y0150410D01*
X0123385Y0150465D01*
X0123356Y0150517D01*
X0123323Y0150568D01*
X0123287Y0150617D01*
X0123249Y0150663D01*
X0123207Y0150707D01*
X0123163Y0150749D01*
X0123117Y0150787D01*
X0123068Y0150823D01*
X0123017Y0150856D01*
X0122965Y0150885D01*
X0122910Y0150912D01*
X0122855Y0150935D01*
X0122798Y0150955D01*
X0122739Y0150971D01*
X0122680Y0150984D01*
X0122621Y0150993D01*
X0122560Y0150998D01*
X0122500Y0151000D01*
X0119500Y0151000D01*
X0119440Y0150998D01*
X0119379Y0150993D01*
X0119320Y0150984D01*
X0119261Y0150971D01*
X0119202Y0150955D01*
X0119145Y0150935D01*
X0119090Y0150912D01*
X0119035Y0150885D01*
X0118983Y0150856D01*
X0118932Y0150823D01*
X0118883Y0150787D01*
X0118837Y0150749D01*
X0118793Y0150707D01*
X0118751Y0150663D01*
X0118713Y0150617D01*
X0118677Y0150568D01*
X0118644Y0150517D01*
X0118615Y0150465D01*
X0118588Y0150410D01*
X0118565Y0150355D01*
X0118545Y0150298D01*
X0118529Y0150239D01*
X0118516Y0150180D01*
X0118507Y0150121D01*
X0118502Y0150060D01*
X0118500Y0150000D01*
X0118500Y0142000D01*
X0118502Y0141940D01*
X0118507Y0141879D01*
X0118516Y0141820D01*
X0118529Y0141761D01*
X0118545Y0141702D01*
X0118565Y0141645D01*
X0118588Y0141590D01*
X0118615Y0141535D01*
X0118644Y0141483D01*
X0118677Y0141432D01*
X0118713Y0141383D01*
X0118751Y0141337D01*
X0118793Y0141293D01*
X0118837Y0141251D01*
X0118883Y0141213D01*
X0118932Y0141177D01*
X0118983Y0141144D01*
X0119035Y0141115D01*
X0119090Y0141088D01*
X0119145Y0141065D01*
X0119202Y0141045D01*
X0119261Y0141029D01*
X0119320Y0141016D01*
X0119379Y0141007D01*
X0119440Y0141002D01*
X0119500Y0141000D01*
X0122500Y0141000D01*
X0122560Y0141002D01*
X0122621Y0141007D01*
X0122680Y0141016D01*
X0122739Y0141029D01*
X0122798Y0141045D01*
X0122855Y0141065D01*
X0122910Y0141088D01*
X0122965Y0141115D01*
X0123017Y0141144D01*
X0123068Y0141177D01*
X0123117Y0141213D01*
X0123163Y0141251D01*
X0123207Y0141293D01*
X0123249Y0141337D01*
X0123287Y0141383D01*
X0123323Y0141432D01*
X0123356Y0141483D01*
X0123385Y0141535D01*
X0123412Y0141590D01*
X0123435Y0141645D01*
X0123455Y0141702D01*
X0123471Y0141761D01*
X0123484Y0141820D01*
X0123493Y0141879D01*
X0123498Y0141940D01*
X0123500Y0142000D01*
X0123498Y0141940D01*
X0123493Y0141879D01*
X0123484Y0141820D01*
X0123471Y0141761D01*
X0123455Y0141702D01*
X0123435Y0141645D01*
X0123412Y0141590D01*
X0123385Y0141535D01*
X0123356Y0141483D01*
X0123323Y0141432D01*
X0123287Y0141383D01*
X0123249Y0141337D01*
X0123207Y0141293D01*
X0123163Y0141251D01*
X0123117Y0141213D01*
X0123068Y0141177D01*
X0123017Y0141144D01*
X0122965Y0141115D01*
X0122910Y0141088D01*
X0122855Y0141065D01*
X0122798Y0141045D01*
X0122739Y0141029D01*
X0122680Y0141016D01*
X0122621Y0141007D01*
X0122560Y0141002D01*
X0122500Y0141000D01*
X0119500Y0141000D02*
X0119440Y0141002D01*
X0119379Y0141007D01*
X0119320Y0141016D01*
X0119261Y0141029D01*
X0119202Y0141045D01*
X0119145Y0141065D01*
X0119090Y0141088D01*
X0119035Y0141115D01*
X0118983Y0141144D01*
X0118932Y0141177D01*
X0118883Y0141213D01*
X0118837Y0141251D01*
X0118793Y0141293D01*
X0118751Y0141337D01*
X0118713Y0141383D01*
X0118677Y0141432D01*
X0118644Y0141483D01*
X0118615Y0141535D01*
X0118588Y0141590D01*
X0118565Y0141645D01*
X0118545Y0141702D01*
X0118529Y0141761D01*
X0118516Y0141820D01*
X0118507Y0141879D01*
X0118502Y0141940D01*
X0118500Y0142000D01*
X0118500Y0150000D02*
X0118502Y0150060D01*
X0118507Y0150121D01*
X0118516Y0150180D01*
X0118529Y0150239D01*
X0118545Y0150298D01*
X0118565Y0150355D01*
X0118588Y0150410D01*
X0118615Y0150465D01*
X0118644Y0150517D01*
X0118677Y0150568D01*
X0118713Y0150617D01*
X0118751Y0150663D01*
X0118793Y0150707D01*
X0118837Y0150749D01*
X0118883Y0150787D01*
X0118932Y0150823D01*
X0118983Y0150856D01*
X0119035Y0150885D01*
X0119090Y0150912D01*
X0119145Y0150935D01*
X0119202Y0150955D01*
X0119261Y0150971D01*
X0119320Y0150984D01*
X0119379Y0150993D01*
X0119440Y0150998D01*
X0119500Y0151000D01*
X0122500Y0151000D02*
X0122560Y0150998D01*
X0122621Y0150993D01*
X0122680Y0150984D01*
X0122739Y0150971D01*
X0122798Y0150955D01*
X0122855Y0150935D01*
X0122910Y0150912D01*
X0122965Y0150885D01*
X0123017Y0150856D01*
X0123068Y0150823D01*
X0123117Y0150787D01*
X0123163Y0150749D01*
X0123207Y0150707D01*
X0123249Y0150663D01*
X0123287Y0150617D01*
X0123323Y0150568D01*
X0123356Y0150517D01*
X0123385Y0150465D01*
X0123412Y0150410D01*
X0123435Y0150355D01*
X0123455Y0150298D01*
X0123471Y0150239D01*
X0123484Y0150180D01*
X0123493Y0150121D01*
X0123498Y0150060D01*
X0123500Y0150000D01*
D11*
X0194000Y0121000D03*
D12*
X0124650Y0046834D02*
X0122448Y0046834D01*
X0123182Y0046100D01*
X0124650Y0046100D02*
X0124650Y0047568D01*
X0124283Y0048310D02*
X0122815Y0049778D01*
X0124283Y0049778D01*
X0124650Y0049411D01*
X0124650Y0048677D01*
X0124283Y0048310D01*
X0122815Y0048310D01*
X0122448Y0048677D01*
X0122448Y0049411D01*
X0122815Y0049778D01*
X0122448Y0050520D02*
X0124650Y0050520D01*
X0123916Y0050520D02*
X0123182Y0051621D01*
X0122815Y0052361D02*
X0122448Y0052728D01*
X0122448Y0053462D01*
X0122815Y0053829D01*
X0123549Y0053829D01*
X0123916Y0053462D01*
X0124650Y0053462D01*
X0124650Y0053829D01*
X0124650Y0052728D02*
X0123916Y0052728D01*
X0123549Y0052361D01*
X0122815Y0052361D01*
X0124650Y0052361D02*
X0124650Y0052728D01*
X0124650Y0051621D02*
X0123916Y0050520D01*
X0157348Y0050938D02*
X0158816Y0050938D01*
X0159550Y0050204D01*
X0158816Y0049470D01*
X0157348Y0049470D01*
X0157348Y0051680D02*
X0157348Y0052781D01*
X0157715Y0053148D01*
X0158449Y0053148D01*
X0158816Y0052781D01*
X0158816Y0051680D01*
X0159550Y0051680D02*
X0157348Y0051680D01*
X0158816Y0052414D02*
X0159550Y0053148D01*
X0159550Y0053890D02*
X0159550Y0055358D01*
X0159550Y0054624D02*
X0157348Y0054624D01*
X0158082Y0053890D01*
X0174258Y0057475D02*
X0174258Y0058676D01*
X0174859Y0059277D01*
X0175459Y0058676D01*
X0175459Y0057475D01*
X0176100Y0057475D02*
X0176100Y0059277D01*
X0177301Y0059277D01*
X0176701Y0058376D02*
X0176100Y0058376D01*
X0175459Y0058376D02*
X0174258Y0058376D01*
X0122358Y0093200D02*
X0120890Y0093200D01*
X0122358Y0094668D01*
X0122358Y0095035D01*
X0121991Y0095402D01*
X0121257Y0095402D01*
X0120890Y0095035D01*
X0120148Y0095035D02*
X0119781Y0095402D01*
X0119047Y0095402D01*
X0118680Y0095035D01*
X0118680Y0093567D01*
X0119047Y0093200D01*
X0119781Y0093200D01*
X0120148Y0093567D01*
X0120148Y0109200D02*
X0120148Y0110301D01*
X0119781Y0110668D01*
X0118680Y0110668D01*
X0118680Y0109200D01*
X0117938Y0109567D02*
X0117571Y0109200D01*
X0116837Y0109200D01*
X0116470Y0109567D01*
X0117938Y0111035D01*
X0117938Y0109567D01*
X0116470Y0109567D02*
X0116470Y0111035D01*
X0116837Y0111402D01*
X0117571Y0111402D01*
X0117938Y0111035D01*
X0115728Y0111035D02*
X0115728Y0109567D01*
X0115361Y0109200D01*
X0114627Y0109200D01*
X0114260Y0109567D01*
X0115728Y0111035D01*
X0115361Y0111402D01*
X0114627Y0111402D01*
X0114260Y0111035D01*
X0114260Y0109567D01*
X0113518Y0109200D02*
X0112051Y0109200D01*
X0112785Y0109200D02*
X0112785Y0111402D01*
X0112051Y0110668D01*
X0118890Y0115867D02*
X0119257Y0115500D01*
X0119991Y0115500D01*
X0120358Y0115867D01*
X0121100Y0115867D02*
X0121467Y0115500D01*
X0122201Y0115500D01*
X0122568Y0115867D01*
X0122568Y0116601D01*
X0122201Y0116968D01*
X0121834Y0116968D01*
X0121100Y0116601D01*
X0121100Y0117702D01*
X0122568Y0117702D01*
X0120358Y0117335D02*
X0119991Y0117702D01*
X0119257Y0117702D01*
X0118890Y0117335D01*
X0118890Y0115867D01*
X0120890Y0111402D02*
X0122358Y0111402D01*
X0121624Y0110301D02*
X0120890Y0110301D01*
X0120890Y0109200D02*
X0120890Y0111402D01*
X0120910Y0124300D02*
X0119443Y0124300D01*
X0120910Y0125768D01*
X0120910Y0126135D01*
X0120544Y0126502D01*
X0119810Y0126502D01*
X0119443Y0126135D01*
X0118705Y0124667D02*
X0118705Y0124300D01*
X0118338Y0124300D01*
X0118338Y0124667D01*
X0118705Y0124667D01*
X0117596Y0124300D02*
X0116128Y0124300D01*
X0117596Y0125768D01*
X0117596Y0126135D01*
X0117229Y0126502D01*
X0116495Y0126502D01*
X0116128Y0126135D01*
X0121652Y0125768D02*
X0121652Y0124300D01*
X0121652Y0125768D02*
X0122753Y0125768D01*
X0123120Y0125401D01*
X0123120Y0124300D01*
X0123862Y0124300D02*
X0123862Y0126502D01*
X0125330Y0126502D01*
X0124596Y0125401D02*
X0123862Y0125401D01*
X0119358Y0136200D02*
X0118991Y0136200D01*
X0118991Y0136934D01*
X0119358Y0137301D01*
X0119358Y0138035D01*
X0118991Y0138402D01*
X0118257Y0138402D01*
X0117890Y0138035D01*
X0117890Y0137301D01*
X0118257Y0136934D01*
X0118257Y0136200D01*
X0117890Y0136200D01*
X0117149Y0136200D02*
X0116049Y0136934D01*
X0117149Y0137668D01*
X0116049Y0138402D02*
X0116049Y0136200D01*
X0115307Y0136200D02*
X0113839Y0136200D01*
X0114573Y0136200D02*
X0114573Y0138402D01*
X0113839Y0137668D01*
X0107927Y0135968D02*
X0107694Y0136201D01*
X0107227Y0136201D01*
X0106993Y0135968D01*
X0106993Y0135034D01*
X0107227Y0134800D01*
X0107694Y0134800D01*
X0107927Y0135034D01*
X0106454Y0135034D02*
X0106220Y0134800D01*
X0105520Y0134800D01*
X0105520Y0136201D01*
X0106220Y0136201D01*
X0106454Y0135968D01*
X0106454Y0135734D01*
X0106220Y0135501D01*
X0105520Y0135501D01*
X0106220Y0135501D02*
X0106454Y0135267D01*
X0106454Y0135034D01*
X0104981Y0134800D02*
X0104046Y0134800D01*
X0104046Y0136201D01*
X0104981Y0136201D01*
X0104514Y0135501D02*
X0104046Y0135501D01*
X0103507Y0135501D02*
X0102573Y0135501D01*
X0102034Y0135734D02*
X0102034Y0135968D01*
X0101801Y0136201D01*
X0101333Y0136201D01*
X0101100Y0135968D01*
X0100561Y0135968D02*
X0100327Y0136201D01*
X0099860Y0136201D01*
X0099627Y0135968D01*
X0099088Y0135968D02*
X0098854Y0136201D01*
X0098387Y0136201D01*
X0098153Y0135968D01*
X0097614Y0135968D02*
X0097381Y0136201D01*
X0096914Y0136201D01*
X0096680Y0135968D01*
X0096141Y0136201D02*
X0096141Y0134800D01*
X0095207Y0136201D01*
X0095207Y0134800D01*
X0094668Y0134800D02*
X0093734Y0134800D01*
X0094668Y0135734D01*
X0094668Y0135968D01*
X0094434Y0136201D01*
X0093967Y0136201D01*
X0093734Y0135968D01*
X0096680Y0134800D02*
X0097614Y0135734D01*
X0097614Y0135968D01*
X0097614Y0134800D02*
X0096680Y0134800D01*
X0098153Y0134800D02*
X0099088Y0135734D01*
X0099088Y0135968D01*
X0099088Y0134800D02*
X0098153Y0134800D01*
X0099627Y0134800D02*
X0100561Y0135734D01*
X0100561Y0135968D01*
X0100561Y0134800D02*
X0099627Y0134800D01*
X0101100Y0134800D02*
X0102034Y0135734D01*
X0102034Y0134800D02*
X0101100Y0134800D01*
X0101467Y0127102D02*
X0101100Y0126735D01*
X0101467Y0127102D02*
X0102201Y0127102D01*
X0102568Y0126735D01*
X0102568Y0126368D01*
X0101100Y0124900D01*
X0102568Y0124900D01*
X0099624Y0124900D02*
X0099624Y0127102D01*
X0098890Y0127102D02*
X0100358Y0127102D01*
X0067927Y0126968D02*
X0067694Y0127201D01*
X0067227Y0127201D01*
X0066993Y0126968D01*
X0066993Y0126034D01*
X0067227Y0125800D01*
X0067694Y0125800D01*
X0067927Y0126034D01*
X0066454Y0126034D02*
X0066220Y0125800D01*
X0065520Y0125800D01*
X0065520Y0127201D01*
X0066220Y0127201D01*
X0066454Y0126968D01*
X0066454Y0126734D01*
X0066220Y0126501D01*
X0065520Y0126501D01*
X0066220Y0126501D02*
X0066454Y0126267D01*
X0066454Y0126034D01*
X0064981Y0125800D02*
X0064046Y0125800D01*
X0064046Y0127201D01*
X0064981Y0127201D01*
X0064514Y0126501D02*
X0064046Y0126501D01*
X0063507Y0126501D02*
X0062573Y0126501D01*
X0062034Y0126734D02*
X0062034Y0126968D01*
X0061801Y0127201D01*
X0061334Y0127201D01*
X0061100Y0126968D01*
X0060561Y0126968D02*
X0060327Y0127201D01*
X0059860Y0127201D01*
X0059627Y0126968D01*
X0059088Y0126968D02*
X0058854Y0127201D01*
X0058387Y0127201D01*
X0058153Y0126968D01*
X0057614Y0126968D02*
X0057381Y0127201D01*
X0056914Y0127201D01*
X0056680Y0126968D01*
X0056141Y0127201D02*
X0056141Y0125800D01*
X0055207Y0127201D01*
X0055207Y0125800D01*
X0054668Y0125800D02*
X0053734Y0125800D01*
X0054668Y0126734D01*
X0054668Y0126968D01*
X0054434Y0127201D01*
X0053967Y0127201D01*
X0053734Y0126968D01*
X0056680Y0125800D02*
X0057614Y0126734D01*
X0057614Y0126968D01*
X0057614Y0125800D02*
X0056680Y0125800D01*
X0058153Y0125800D02*
X0059088Y0126734D01*
X0059088Y0126968D01*
X0059088Y0125800D02*
X0058153Y0125800D01*
X0059627Y0125800D02*
X0060561Y0126734D01*
X0060561Y0126968D01*
X0060561Y0125800D02*
X0059627Y0125800D01*
X0061100Y0125800D02*
X0062034Y0126734D01*
X0062034Y0125800D02*
X0061100Y0125800D01*
X0061100Y0134900D02*
X0062568Y0134900D01*
X0061834Y0134900D02*
X0061834Y0137102D01*
X0061100Y0136368D01*
X0060358Y0137102D02*
X0058890Y0137102D01*
X0059624Y0137102D02*
X0059624Y0134900D01*
X0026650Y0132939D02*
X0024448Y0132939D01*
X0024448Y0132205D02*
X0024448Y0133673D01*
X0024448Y0131463D02*
X0026650Y0131463D01*
X0024448Y0129995D01*
X0026650Y0129995D01*
X0026650Y0129253D02*
X0025182Y0129253D01*
X0024448Y0128519D01*
X0025182Y0127785D01*
X0026650Y0127785D01*
X0025549Y0127785D02*
X0025549Y0129253D01*
X0019525Y0163338D02*
X0017723Y0163338D01*
X0017723Y0164238D01*
X0018024Y0164539D01*
X0018324Y0164539D01*
X0018624Y0164238D01*
X0018624Y0163338D01*
X0018624Y0164238D02*
X0018924Y0164539D01*
X0019225Y0164539D01*
X0019525Y0164238D01*
X0019525Y0163338D01*
X0019525Y0165179D02*
X0018324Y0165179D01*
X0017723Y0165780D01*
X0018324Y0166380D01*
X0019525Y0166380D01*
X0018624Y0166380D02*
X0018624Y0165179D01*
X0017723Y0167021D02*
X0017723Y0168222D01*
X0017723Y0167621D02*
X0019525Y0167621D01*
X0115680Y0155802D02*
X0115680Y0153600D01*
X0115680Y0154334D02*
X0116781Y0154334D01*
X0117148Y0154701D01*
X0117148Y0155435D01*
X0116781Y0155802D01*
X0115680Y0155802D01*
X0116414Y0154334D02*
X0117148Y0153600D01*
X0117890Y0153600D02*
X0119358Y0153600D01*
X0118624Y0153600D02*
X0118624Y0155802D01*
X0117890Y0155068D01*
X0162600Y0126735D02*
X0162600Y0125267D01*
X0162967Y0124900D01*
X0163701Y0124900D01*
X0164068Y0125267D01*
X0164810Y0126001D02*
X0166278Y0126001D01*
X0165911Y0124900D02*
X0165911Y0127102D01*
X0164810Y0126001D01*
X0164068Y0126735D02*
X0163701Y0127102D01*
X0162967Y0127102D01*
X0162600Y0126735D01*
X0162627Y0117102D02*
X0162260Y0116735D01*
X0162627Y0117102D02*
X0163361Y0117102D01*
X0163728Y0116735D01*
X0163728Y0116368D01*
X0162260Y0114900D01*
X0163728Y0114900D01*
X0164470Y0115267D02*
X0165938Y0116735D01*
X0165938Y0115267D01*
X0165571Y0114900D01*
X0164837Y0114900D01*
X0164470Y0115267D01*
X0164470Y0116735D01*
X0164837Y0117102D01*
X0165571Y0117102D01*
X0165938Y0116735D01*
X0166680Y0116368D02*
X0167781Y0116368D01*
X0168148Y0116001D01*
X0168148Y0114900D01*
X0168890Y0114900D02*
X0168890Y0117102D01*
X0170358Y0117102D01*
X0169624Y0116001D02*
X0168890Y0116001D01*
X0166680Y0116368D02*
X0166680Y0114900D01*
X0161518Y0114900D02*
X0160051Y0114900D01*
X0161518Y0116368D01*
X0161518Y0116735D01*
X0161152Y0117102D01*
X0160418Y0117102D01*
X0160051Y0116735D01*
X0184698Y0114124D02*
X0186900Y0114124D01*
X0186900Y0113390D02*
X0186900Y0114858D01*
X0185432Y0113390D02*
X0184698Y0114124D01*
X0185065Y0112648D02*
X0184698Y0112281D01*
X0184698Y0111547D01*
X0185065Y0111180D01*
X0186533Y0111180D01*
X0186900Y0111547D01*
X0186900Y0112281D01*
X0186533Y0112648D01*
X0193598Y0106911D02*
X0193598Y0106177D01*
X0193965Y0105810D01*
X0193965Y0105068D02*
X0194699Y0105068D01*
X0195066Y0104701D01*
X0195066Y0103600D01*
X0195066Y0104334D02*
X0195800Y0105068D01*
X0195800Y0105810D02*
X0194332Y0107278D01*
X0193965Y0107278D01*
X0193598Y0106911D01*
X0193965Y0105068D02*
X0193598Y0104701D01*
X0193598Y0103600D01*
X0195800Y0103600D01*
X0195800Y0105810D02*
X0195800Y0107278D01*
X0205598Y0107127D02*
X0205598Y0107861D01*
X0205965Y0108228D01*
X0207433Y0106760D01*
X0207800Y0107127D01*
X0207800Y0107861D01*
X0207433Y0108228D01*
X0205965Y0108228D01*
X0205965Y0108970D02*
X0205598Y0109337D01*
X0205598Y0110071D01*
X0205965Y0110438D01*
X0207433Y0108970D01*
X0207800Y0109337D01*
X0207800Y0110071D01*
X0207433Y0110438D01*
X0205965Y0110438D01*
X0206699Y0111547D02*
X0207433Y0111547D01*
X0208167Y0111547D01*
X0208534Y0111180D01*
X0207800Y0111914D02*
X0207800Y0112281D01*
X0207433Y0112648D01*
X0206699Y0112648D01*
X0206699Y0113390D02*
X0206699Y0114124D01*
X0205598Y0113390D02*
X0205598Y0114858D01*
X0205598Y0113390D02*
X0207800Y0113390D01*
X0207800Y0111914D02*
X0207433Y0111547D01*
X0207433Y0108970D02*
X0205965Y0108970D01*
X0205598Y0107127D02*
X0205965Y0106760D01*
X0207433Y0106760D01*
X0207800Y0106018D02*
X0207800Y0104551D01*
X0207800Y0105285D02*
X0205598Y0105285D01*
X0206332Y0104551D01*
D13*
X0186000Y0056000D02*
X0166000Y0056000D01*
X0166000Y0046000D01*
X0186000Y0046000D01*
X0186000Y0056000D01*
X0156000Y0056000D02*
X0156000Y0046000D01*
X0126000Y0046000D01*
X0126000Y0056000D01*
X0156000Y0056000D01*
X0102000Y0101000D02*
X0101998Y0101140D01*
X0101992Y0101280D01*
X0101982Y0101420D01*
X0101969Y0101560D01*
X0101951Y0101699D01*
X0101929Y0101838D01*
X0101904Y0101975D01*
X0101875Y0102113D01*
X0101842Y0102249D01*
X0101805Y0102384D01*
X0101764Y0102518D01*
X0101719Y0102651D01*
X0101671Y0102783D01*
X0101619Y0102913D01*
X0101564Y0103042D01*
X0101505Y0103169D01*
X0101442Y0103295D01*
X0101376Y0103419D01*
X0101307Y0103540D01*
X0101234Y0103660D01*
X0101157Y0103778D01*
X0101078Y0103893D01*
X0100995Y0104007D01*
X0100909Y0104117D01*
X0100820Y0104226D01*
X0100728Y0104332D01*
X0100633Y0104435D01*
X0100536Y0104536D01*
X0100435Y0104633D01*
X0100332Y0104728D01*
X0100226Y0104820D01*
X0100117Y0104909D01*
X0100007Y0104995D01*
X0099893Y0105078D01*
X0099778Y0105157D01*
X0099660Y0105234D01*
X0099540Y0105307D01*
X0099419Y0105376D01*
X0099295Y0105442D01*
X0099169Y0105505D01*
X0099042Y0105564D01*
X0098913Y0105619D01*
X0098783Y0105671D01*
X0098651Y0105719D01*
X0098518Y0105764D01*
X0098384Y0105805D01*
X0098249Y0105842D01*
X0098113Y0105875D01*
X0097975Y0105904D01*
X0097838Y0105929D01*
X0097699Y0105951D01*
X0097560Y0105969D01*
X0097420Y0105982D01*
X0097280Y0105992D01*
X0097140Y0105998D01*
X0097000Y0106000D01*
X0102000Y0101000D02*
X0101998Y0100860D01*
X0101992Y0100720D01*
X0101982Y0100580D01*
X0101969Y0100440D01*
X0101951Y0100301D01*
X0101929Y0100162D01*
X0101904Y0100025D01*
X0101875Y0099887D01*
X0101842Y0099751D01*
X0101805Y0099616D01*
X0101764Y0099482D01*
X0101719Y0099349D01*
X0101671Y0099217D01*
X0101619Y0099087D01*
X0101564Y0098958D01*
X0101505Y0098831D01*
X0101442Y0098705D01*
X0101376Y0098581D01*
X0101307Y0098460D01*
X0101234Y0098340D01*
X0101157Y0098222D01*
X0101078Y0098107D01*
X0100995Y0097993D01*
X0100909Y0097883D01*
X0100820Y0097774D01*
X0100728Y0097668D01*
X0100633Y0097565D01*
X0100536Y0097464D01*
X0100435Y0097367D01*
X0100332Y0097272D01*
X0100226Y0097180D01*
X0100117Y0097091D01*
X0100007Y0097005D01*
X0099893Y0096922D01*
X0099778Y0096843D01*
X0099660Y0096766D01*
X0099540Y0096693D01*
X0099419Y0096624D01*
X0099295Y0096558D01*
X0099169Y0096495D01*
X0099042Y0096436D01*
X0098913Y0096381D01*
X0098783Y0096329D01*
X0098651Y0096281D01*
X0098518Y0096236D01*
X0098384Y0096195D01*
X0098249Y0096158D01*
X0098113Y0096125D01*
X0097975Y0096096D01*
X0097838Y0096071D01*
X0097699Y0096049D01*
X0097560Y0096031D01*
X0097420Y0096018D01*
X0097280Y0096008D01*
X0097140Y0096002D01*
X0097000Y0096000D01*
X0099000Y0101000D02*
X0098998Y0101140D01*
X0098992Y0101280D01*
X0098982Y0101420D01*
X0098969Y0101560D01*
X0098951Y0101699D01*
X0098929Y0101838D01*
X0098904Y0101975D01*
X0098875Y0102113D01*
X0098842Y0102249D01*
X0098805Y0102384D01*
X0098764Y0102518D01*
X0098719Y0102651D01*
X0098671Y0102783D01*
X0098619Y0102913D01*
X0098564Y0103042D01*
X0098505Y0103169D01*
X0098442Y0103295D01*
X0098376Y0103419D01*
X0098307Y0103540D01*
X0098234Y0103660D01*
X0098157Y0103778D01*
X0098078Y0103893D01*
X0097995Y0104007D01*
X0097909Y0104117D01*
X0097820Y0104226D01*
X0097728Y0104332D01*
X0097633Y0104435D01*
X0097536Y0104536D01*
X0097435Y0104633D01*
X0097332Y0104728D01*
X0097226Y0104820D01*
X0097117Y0104909D01*
X0097007Y0104995D01*
X0096893Y0105078D01*
X0096778Y0105157D01*
X0096660Y0105234D01*
X0096540Y0105307D01*
X0096419Y0105376D01*
X0096295Y0105442D01*
X0096169Y0105505D01*
X0096042Y0105564D01*
X0095913Y0105619D01*
X0095783Y0105671D01*
X0095651Y0105719D01*
X0095518Y0105764D01*
X0095384Y0105805D01*
X0095249Y0105842D01*
X0095113Y0105875D01*
X0094975Y0105904D01*
X0094838Y0105929D01*
X0094699Y0105951D01*
X0094560Y0105969D01*
X0094420Y0105982D01*
X0094280Y0105992D01*
X0094140Y0105998D01*
X0094000Y0106000D01*
X0099000Y0101000D02*
X0098998Y0100860D01*
X0098992Y0100720D01*
X0098982Y0100580D01*
X0098969Y0100440D01*
X0098951Y0100301D01*
X0098929Y0100162D01*
X0098904Y0100025D01*
X0098875Y0099887D01*
X0098842Y0099751D01*
X0098805Y0099616D01*
X0098764Y0099482D01*
X0098719Y0099349D01*
X0098671Y0099217D01*
X0098619Y0099087D01*
X0098564Y0098958D01*
X0098505Y0098831D01*
X0098442Y0098705D01*
X0098376Y0098581D01*
X0098307Y0098460D01*
X0098234Y0098340D01*
X0098157Y0098222D01*
X0098078Y0098107D01*
X0097995Y0097993D01*
X0097909Y0097883D01*
X0097820Y0097774D01*
X0097728Y0097668D01*
X0097633Y0097565D01*
X0097536Y0097464D01*
X0097435Y0097367D01*
X0097332Y0097272D01*
X0097226Y0097180D01*
X0097117Y0097091D01*
X0097007Y0097005D01*
X0096893Y0096922D01*
X0096778Y0096843D01*
X0096660Y0096766D01*
X0096540Y0096693D01*
X0096419Y0096624D01*
X0096295Y0096558D01*
X0096169Y0096495D01*
X0096042Y0096436D01*
X0095913Y0096381D01*
X0095783Y0096329D01*
X0095651Y0096281D01*
X0095518Y0096236D01*
X0095384Y0096195D01*
X0095249Y0096158D01*
X0095113Y0096125D01*
X0094975Y0096096D01*
X0094838Y0096071D01*
X0094699Y0096049D01*
X0094560Y0096031D01*
X0094420Y0096018D01*
X0094280Y0096008D01*
X0094140Y0096002D01*
X0094000Y0096000D01*
X0096000Y0101000D02*
X0095998Y0101140D01*
X0095992Y0101280D01*
X0095982Y0101420D01*
X0095969Y0101560D01*
X0095951Y0101699D01*
X0095929Y0101838D01*
X0095904Y0101975D01*
X0095875Y0102113D01*
X0095842Y0102249D01*
X0095805Y0102384D01*
X0095764Y0102518D01*
X0095719Y0102651D01*
X0095671Y0102783D01*
X0095619Y0102913D01*
X0095564Y0103042D01*
X0095505Y0103169D01*
X0095442Y0103295D01*
X0095376Y0103419D01*
X0095307Y0103540D01*
X0095234Y0103660D01*
X0095157Y0103778D01*
X0095078Y0103893D01*
X0094995Y0104007D01*
X0094909Y0104117D01*
X0094820Y0104226D01*
X0094728Y0104332D01*
X0094633Y0104435D01*
X0094536Y0104536D01*
X0094435Y0104633D01*
X0094332Y0104728D01*
X0094226Y0104820D01*
X0094117Y0104909D01*
X0094007Y0104995D01*
X0093893Y0105078D01*
X0093778Y0105157D01*
X0093660Y0105234D01*
X0093540Y0105307D01*
X0093419Y0105376D01*
X0093295Y0105442D01*
X0093169Y0105505D01*
X0093042Y0105564D01*
X0092913Y0105619D01*
X0092783Y0105671D01*
X0092651Y0105719D01*
X0092518Y0105764D01*
X0092384Y0105805D01*
X0092249Y0105842D01*
X0092113Y0105875D01*
X0091975Y0105904D01*
X0091838Y0105929D01*
X0091699Y0105951D01*
X0091560Y0105969D01*
X0091420Y0105982D01*
X0091280Y0105992D01*
X0091140Y0105998D01*
X0091000Y0106000D01*
X0096000Y0101000D02*
X0095998Y0100860D01*
X0095992Y0100720D01*
X0095982Y0100580D01*
X0095969Y0100440D01*
X0095951Y0100301D01*
X0095929Y0100162D01*
X0095904Y0100025D01*
X0095875Y0099887D01*
X0095842Y0099751D01*
X0095805Y0099616D01*
X0095764Y0099482D01*
X0095719Y0099349D01*
X0095671Y0099217D01*
X0095619Y0099087D01*
X0095564Y0098958D01*
X0095505Y0098831D01*
X0095442Y0098705D01*
X0095376Y0098581D01*
X0095307Y0098460D01*
X0095234Y0098340D01*
X0095157Y0098222D01*
X0095078Y0098107D01*
X0094995Y0097993D01*
X0094909Y0097883D01*
X0094820Y0097774D01*
X0094728Y0097668D01*
X0094633Y0097565D01*
X0094536Y0097464D01*
X0094435Y0097367D01*
X0094332Y0097272D01*
X0094226Y0097180D01*
X0094117Y0097091D01*
X0094007Y0097005D01*
X0093893Y0096922D01*
X0093778Y0096843D01*
X0093660Y0096766D01*
X0093540Y0096693D01*
X0093419Y0096624D01*
X0093295Y0096558D01*
X0093169Y0096495D01*
X0093042Y0096436D01*
X0092913Y0096381D01*
X0092783Y0096329D01*
X0092651Y0096281D01*
X0092518Y0096236D01*
X0092384Y0096195D01*
X0092249Y0096158D01*
X0092113Y0096125D01*
X0091975Y0096096D01*
X0091838Y0096071D01*
X0091699Y0096049D01*
X0091560Y0096031D01*
X0091420Y0096018D01*
X0091280Y0096008D01*
X0091140Y0096002D01*
X0091000Y0096000D01*
X0093000Y0101000D02*
X0092998Y0101140D01*
X0092992Y0101280D01*
X0092982Y0101420D01*
X0092969Y0101560D01*
X0092951Y0101699D01*
X0092929Y0101838D01*
X0092904Y0101975D01*
X0092875Y0102113D01*
X0092842Y0102249D01*
X0092805Y0102384D01*
X0092764Y0102518D01*
X0092719Y0102651D01*
X0092671Y0102783D01*
X0092619Y0102913D01*
X0092564Y0103042D01*
X0092505Y0103169D01*
X0092442Y0103295D01*
X0092376Y0103419D01*
X0092307Y0103540D01*
X0092234Y0103660D01*
X0092157Y0103778D01*
X0092078Y0103893D01*
X0091995Y0104007D01*
X0091909Y0104117D01*
X0091820Y0104226D01*
X0091728Y0104332D01*
X0091633Y0104435D01*
X0091536Y0104536D01*
X0091435Y0104633D01*
X0091332Y0104728D01*
X0091226Y0104820D01*
X0091117Y0104909D01*
X0091007Y0104995D01*
X0090893Y0105078D01*
X0090778Y0105157D01*
X0090660Y0105234D01*
X0090540Y0105307D01*
X0090419Y0105376D01*
X0090295Y0105442D01*
X0090169Y0105505D01*
X0090042Y0105564D01*
X0089913Y0105619D01*
X0089783Y0105671D01*
X0089651Y0105719D01*
X0089518Y0105764D01*
X0089384Y0105805D01*
X0089249Y0105842D01*
X0089113Y0105875D01*
X0088975Y0105904D01*
X0088838Y0105929D01*
X0088699Y0105951D01*
X0088560Y0105969D01*
X0088420Y0105982D01*
X0088280Y0105992D01*
X0088140Y0105998D01*
X0088000Y0106000D01*
X0093000Y0101000D02*
X0092998Y0100860D01*
X0092992Y0100720D01*
X0092982Y0100580D01*
X0092969Y0100440D01*
X0092951Y0100301D01*
X0092929Y0100162D01*
X0092904Y0100025D01*
X0092875Y0099887D01*
X0092842Y0099751D01*
X0092805Y0099616D01*
X0092764Y0099482D01*
X0092719Y0099349D01*
X0092671Y0099217D01*
X0092619Y0099087D01*
X0092564Y0098958D01*
X0092505Y0098831D01*
X0092442Y0098705D01*
X0092376Y0098581D01*
X0092307Y0098460D01*
X0092234Y0098340D01*
X0092157Y0098222D01*
X0092078Y0098107D01*
X0091995Y0097993D01*
X0091909Y0097883D01*
X0091820Y0097774D01*
X0091728Y0097668D01*
X0091633Y0097565D01*
X0091536Y0097464D01*
X0091435Y0097367D01*
X0091332Y0097272D01*
X0091226Y0097180D01*
X0091117Y0097091D01*
X0091007Y0097005D01*
X0090893Y0096922D01*
X0090778Y0096843D01*
X0090660Y0096766D01*
X0090540Y0096693D01*
X0090419Y0096624D01*
X0090295Y0096558D01*
X0090169Y0096495D01*
X0090042Y0096436D01*
X0089913Y0096381D01*
X0089783Y0096329D01*
X0089651Y0096281D01*
X0089518Y0096236D01*
X0089384Y0096195D01*
X0089249Y0096158D01*
X0089113Y0096125D01*
X0088975Y0096096D01*
X0088838Y0096071D01*
X0088699Y0096049D01*
X0088560Y0096031D01*
X0088420Y0096018D01*
X0088280Y0096008D01*
X0088140Y0096002D01*
X0088000Y0096000D01*
X0090000Y0101000D02*
X0089998Y0101140D01*
X0089992Y0101280D01*
X0089982Y0101420D01*
X0089969Y0101560D01*
X0089951Y0101699D01*
X0089929Y0101838D01*
X0089904Y0101975D01*
X0089875Y0102113D01*
X0089842Y0102249D01*
X0089805Y0102384D01*
X0089764Y0102518D01*
X0089719Y0102651D01*
X0089671Y0102783D01*
X0089619Y0102913D01*
X0089564Y0103042D01*
X0089505Y0103169D01*
X0089442Y0103295D01*
X0089376Y0103419D01*
X0089307Y0103540D01*
X0089234Y0103660D01*
X0089157Y0103778D01*
X0089078Y0103893D01*
X0088995Y0104007D01*
X0088909Y0104117D01*
X0088820Y0104226D01*
X0088728Y0104332D01*
X0088633Y0104435D01*
X0088536Y0104536D01*
X0088435Y0104633D01*
X0088332Y0104728D01*
X0088226Y0104820D01*
X0088117Y0104909D01*
X0088007Y0104995D01*
X0087893Y0105078D01*
X0087778Y0105157D01*
X0087660Y0105234D01*
X0087540Y0105307D01*
X0087419Y0105376D01*
X0087295Y0105442D01*
X0087169Y0105505D01*
X0087042Y0105564D01*
X0086913Y0105619D01*
X0086783Y0105671D01*
X0086651Y0105719D01*
X0086518Y0105764D01*
X0086384Y0105805D01*
X0086249Y0105842D01*
X0086113Y0105875D01*
X0085975Y0105904D01*
X0085838Y0105929D01*
X0085699Y0105951D01*
X0085560Y0105969D01*
X0085420Y0105982D01*
X0085280Y0105992D01*
X0085140Y0105998D01*
X0085000Y0106000D01*
X0090000Y0101000D02*
X0089998Y0100860D01*
X0089992Y0100720D01*
X0089982Y0100580D01*
X0089969Y0100440D01*
X0089951Y0100301D01*
X0089929Y0100162D01*
X0089904Y0100025D01*
X0089875Y0099887D01*
X0089842Y0099751D01*
X0089805Y0099616D01*
X0089764Y0099482D01*
X0089719Y0099349D01*
X0089671Y0099217D01*
X0089619Y0099087D01*
X0089564Y0098958D01*
X0089505Y0098831D01*
X0089442Y0098705D01*
X0089376Y0098581D01*
X0089307Y0098460D01*
X0089234Y0098340D01*
X0089157Y0098222D01*
X0089078Y0098107D01*
X0088995Y0097993D01*
X0088909Y0097883D01*
X0088820Y0097774D01*
X0088728Y0097668D01*
X0088633Y0097565D01*
X0088536Y0097464D01*
X0088435Y0097367D01*
X0088332Y0097272D01*
X0088226Y0097180D01*
X0088117Y0097091D01*
X0088007Y0097005D01*
X0087893Y0096922D01*
X0087778Y0096843D01*
X0087660Y0096766D01*
X0087540Y0096693D01*
X0087419Y0096624D01*
X0087295Y0096558D01*
X0087169Y0096495D01*
X0087042Y0096436D01*
X0086913Y0096381D01*
X0086783Y0096329D01*
X0086651Y0096281D01*
X0086518Y0096236D01*
X0086384Y0096195D01*
X0086249Y0096158D01*
X0086113Y0096125D01*
X0085975Y0096096D01*
X0085838Y0096071D01*
X0085699Y0096049D01*
X0085560Y0096031D01*
X0085420Y0096018D01*
X0085280Y0096008D01*
X0085140Y0096002D01*
X0085000Y0096000D01*
X0087000Y0101000D02*
X0086998Y0101140D01*
X0086992Y0101280D01*
X0086982Y0101420D01*
X0086969Y0101560D01*
X0086951Y0101699D01*
X0086929Y0101838D01*
X0086904Y0101975D01*
X0086875Y0102113D01*
X0086842Y0102249D01*
X0086805Y0102384D01*
X0086764Y0102518D01*
X0086719Y0102651D01*
X0086671Y0102783D01*
X0086619Y0102913D01*
X0086564Y0103042D01*
X0086505Y0103169D01*
X0086442Y0103295D01*
X0086376Y0103419D01*
X0086307Y0103540D01*
X0086234Y0103660D01*
X0086157Y0103778D01*
X0086078Y0103893D01*
X0085995Y0104007D01*
X0085909Y0104117D01*
X0085820Y0104226D01*
X0085728Y0104332D01*
X0085633Y0104435D01*
X0085536Y0104536D01*
X0085435Y0104633D01*
X0085332Y0104728D01*
X0085226Y0104820D01*
X0085117Y0104909D01*
X0085007Y0104995D01*
X0084893Y0105078D01*
X0084778Y0105157D01*
X0084660Y0105234D01*
X0084540Y0105307D01*
X0084419Y0105376D01*
X0084295Y0105442D01*
X0084169Y0105505D01*
X0084042Y0105564D01*
X0083913Y0105619D01*
X0083783Y0105671D01*
X0083651Y0105719D01*
X0083518Y0105764D01*
X0083384Y0105805D01*
X0083249Y0105842D01*
X0083113Y0105875D01*
X0082975Y0105904D01*
X0082838Y0105929D01*
X0082699Y0105951D01*
X0082560Y0105969D01*
X0082420Y0105982D01*
X0082280Y0105992D01*
X0082140Y0105998D01*
X0082000Y0106000D01*
X0087000Y0101000D02*
X0086998Y0100860D01*
X0086992Y0100720D01*
X0086982Y0100580D01*
X0086969Y0100440D01*
X0086951Y0100301D01*
X0086929Y0100162D01*
X0086904Y0100025D01*
X0086875Y0099887D01*
X0086842Y0099751D01*
X0086805Y0099616D01*
X0086764Y0099482D01*
X0086719Y0099349D01*
X0086671Y0099217D01*
X0086619Y0099087D01*
X0086564Y0098958D01*
X0086505Y0098831D01*
X0086442Y0098705D01*
X0086376Y0098581D01*
X0086307Y0098460D01*
X0086234Y0098340D01*
X0086157Y0098222D01*
X0086078Y0098107D01*
X0085995Y0097993D01*
X0085909Y0097883D01*
X0085820Y0097774D01*
X0085728Y0097668D01*
X0085633Y0097565D01*
X0085536Y0097464D01*
X0085435Y0097367D01*
X0085332Y0097272D01*
X0085226Y0097180D01*
X0085117Y0097091D01*
X0085007Y0097005D01*
X0084893Y0096922D01*
X0084778Y0096843D01*
X0084660Y0096766D01*
X0084540Y0096693D01*
X0084419Y0096624D01*
X0084295Y0096558D01*
X0084169Y0096495D01*
X0084042Y0096436D01*
X0083913Y0096381D01*
X0083783Y0096329D01*
X0083651Y0096281D01*
X0083518Y0096236D01*
X0083384Y0096195D01*
X0083249Y0096158D01*
X0083113Y0096125D01*
X0082975Y0096096D01*
X0082838Y0096071D01*
X0082699Y0096049D01*
X0082560Y0096031D01*
X0082420Y0096018D01*
X0082280Y0096008D01*
X0082140Y0096002D01*
X0082000Y0096000D01*
X0084000Y0101000D02*
X0083998Y0101140D01*
X0083992Y0101280D01*
X0083982Y0101420D01*
X0083969Y0101560D01*
X0083951Y0101699D01*
X0083929Y0101838D01*
X0083904Y0101975D01*
X0083875Y0102113D01*
X0083842Y0102249D01*
X0083805Y0102384D01*
X0083764Y0102518D01*
X0083719Y0102651D01*
X0083671Y0102783D01*
X0083619Y0102913D01*
X0083564Y0103042D01*
X0083505Y0103169D01*
X0083442Y0103295D01*
X0083376Y0103419D01*
X0083307Y0103540D01*
X0083234Y0103660D01*
X0083157Y0103778D01*
X0083078Y0103893D01*
X0082995Y0104007D01*
X0082909Y0104117D01*
X0082820Y0104226D01*
X0082728Y0104332D01*
X0082633Y0104435D01*
X0082536Y0104536D01*
X0082435Y0104633D01*
X0082332Y0104728D01*
X0082226Y0104820D01*
X0082117Y0104909D01*
X0082007Y0104995D01*
X0081893Y0105078D01*
X0081778Y0105157D01*
X0081660Y0105234D01*
X0081540Y0105307D01*
X0081419Y0105376D01*
X0081295Y0105442D01*
X0081169Y0105505D01*
X0081042Y0105564D01*
X0080913Y0105619D01*
X0080783Y0105671D01*
X0080651Y0105719D01*
X0080518Y0105764D01*
X0080384Y0105805D01*
X0080249Y0105842D01*
X0080113Y0105875D01*
X0079975Y0105904D01*
X0079838Y0105929D01*
X0079699Y0105951D01*
X0079560Y0105969D01*
X0079420Y0105982D01*
X0079280Y0105992D01*
X0079140Y0105998D01*
X0079000Y0106000D01*
X0084000Y0101000D02*
X0083998Y0100860D01*
X0083992Y0100720D01*
X0083982Y0100580D01*
X0083969Y0100440D01*
X0083951Y0100301D01*
X0083929Y0100162D01*
X0083904Y0100025D01*
X0083875Y0099887D01*
X0083842Y0099751D01*
X0083805Y0099616D01*
X0083764Y0099482D01*
X0083719Y0099349D01*
X0083671Y0099217D01*
X0083619Y0099087D01*
X0083564Y0098958D01*
X0083505Y0098831D01*
X0083442Y0098705D01*
X0083376Y0098581D01*
X0083307Y0098460D01*
X0083234Y0098340D01*
X0083157Y0098222D01*
X0083078Y0098107D01*
X0082995Y0097993D01*
X0082909Y0097883D01*
X0082820Y0097774D01*
X0082728Y0097668D01*
X0082633Y0097565D01*
X0082536Y0097464D01*
X0082435Y0097367D01*
X0082332Y0097272D01*
X0082226Y0097180D01*
X0082117Y0097091D01*
X0082007Y0097005D01*
X0081893Y0096922D01*
X0081778Y0096843D01*
X0081660Y0096766D01*
X0081540Y0096693D01*
X0081419Y0096624D01*
X0081295Y0096558D01*
X0081169Y0096495D01*
X0081042Y0096436D01*
X0080913Y0096381D01*
X0080783Y0096329D01*
X0080651Y0096281D01*
X0080518Y0096236D01*
X0080384Y0096195D01*
X0080249Y0096158D01*
X0080113Y0096125D01*
X0079975Y0096096D01*
X0079838Y0096071D01*
X0079699Y0096049D01*
X0079560Y0096031D01*
X0079420Y0096018D01*
X0079280Y0096008D01*
X0079140Y0096002D01*
X0079000Y0096000D01*
X0081000Y0101000D02*
X0080998Y0101140D01*
X0080992Y0101280D01*
X0080982Y0101420D01*
X0080969Y0101560D01*
X0080951Y0101699D01*
X0080929Y0101838D01*
X0080904Y0101975D01*
X0080875Y0102113D01*
X0080842Y0102249D01*
X0080805Y0102384D01*
X0080764Y0102518D01*
X0080719Y0102651D01*
X0080671Y0102783D01*
X0080619Y0102913D01*
X0080564Y0103042D01*
X0080505Y0103169D01*
X0080442Y0103295D01*
X0080376Y0103419D01*
X0080307Y0103540D01*
X0080234Y0103660D01*
X0080157Y0103778D01*
X0080078Y0103893D01*
X0079995Y0104007D01*
X0079909Y0104117D01*
X0079820Y0104226D01*
X0079728Y0104332D01*
X0079633Y0104435D01*
X0079536Y0104536D01*
X0079435Y0104633D01*
X0079332Y0104728D01*
X0079226Y0104820D01*
X0079117Y0104909D01*
X0079007Y0104995D01*
X0078893Y0105078D01*
X0078778Y0105157D01*
X0078660Y0105234D01*
X0078540Y0105307D01*
X0078419Y0105376D01*
X0078295Y0105442D01*
X0078169Y0105505D01*
X0078042Y0105564D01*
X0077913Y0105619D01*
X0077783Y0105671D01*
X0077651Y0105719D01*
X0077518Y0105764D01*
X0077384Y0105805D01*
X0077249Y0105842D01*
X0077113Y0105875D01*
X0076975Y0105904D01*
X0076838Y0105929D01*
X0076699Y0105951D01*
X0076560Y0105969D01*
X0076420Y0105982D01*
X0076280Y0105992D01*
X0076140Y0105998D01*
X0076000Y0106000D01*
X0081000Y0101000D02*
X0080998Y0100860D01*
X0080992Y0100720D01*
X0080982Y0100580D01*
X0080969Y0100440D01*
X0080951Y0100301D01*
X0080929Y0100162D01*
X0080904Y0100025D01*
X0080875Y0099887D01*
X0080842Y0099751D01*
X0080805Y0099616D01*
X0080764Y0099482D01*
X0080719Y0099349D01*
X0080671Y0099217D01*
X0080619Y0099087D01*
X0080564Y0098958D01*
X0080505Y0098831D01*
X0080442Y0098705D01*
X0080376Y0098581D01*
X0080307Y0098460D01*
X0080234Y0098340D01*
X0080157Y0098222D01*
X0080078Y0098107D01*
X0079995Y0097993D01*
X0079909Y0097883D01*
X0079820Y0097774D01*
X0079728Y0097668D01*
X0079633Y0097565D01*
X0079536Y0097464D01*
X0079435Y0097367D01*
X0079332Y0097272D01*
X0079226Y0097180D01*
X0079117Y0097091D01*
X0079007Y0097005D01*
X0078893Y0096922D01*
X0078778Y0096843D01*
X0078660Y0096766D01*
X0078540Y0096693D01*
X0078419Y0096624D01*
X0078295Y0096558D01*
X0078169Y0096495D01*
X0078042Y0096436D01*
X0077913Y0096381D01*
X0077783Y0096329D01*
X0077651Y0096281D01*
X0077518Y0096236D01*
X0077384Y0096195D01*
X0077249Y0096158D01*
X0077113Y0096125D01*
X0076975Y0096096D01*
X0076838Y0096071D01*
X0076699Y0096049D01*
X0076560Y0096031D01*
X0076420Y0096018D01*
X0076280Y0096008D01*
X0076140Y0096002D01*
X0076000Y0096000D01*
X0078000Y0101000D02*
X0077998Y0101140D01*
X0077992Y0101280D01*
X0077982Y0101420D01*
X0077969Y0101560D01*
X0077951Y0101699D01*
X0077929Y0101838D01*
X0077904Y0101975D01*
X0077875Y0102113D01*
X0077842Y0102249D01*
X0077805Y0102384D01*
X0077764Y0102518D01*
X0077719Y0102651D01*
X0077671Y0102783D01*
X0077619Y0102913D01*
X0077564Y0103042D01*
X0077505Y0103169D01*
X0077442Y0103295D01*
X0077376Y0103419D01*
X0077307Y0103540D01*
X0077234Y0103660D01*
X0077157Y0103778D01*
X0077078Y0103893D01*
X0076995Y0104007D01*
X0076909Y0104117D01*
X0076820Y0104226D01*
X0076728Y0104332D01*
X0076633Y0104435D01*
X0076536Y0104536D01*
X0076435Y0104633D01*
X0076332Y0104728D01*
X0076226Y0104820D01*
X0076117Y0104909D01*
X0076007Y0104995D01*
X0075893Y0105078D01*
X0075778Y0105157D01*
X0075660Y0105234D01*
X0075540Y0105307D01*
X0075419Y0105376D01*
X0075295Y0105442D01*
X0075169Y0105505D01*
X0075042Y0105564D01*
X0074913Y0105619D01*
X0074783Y0105671D01*
X0074651Y0105719D01*
X0074518Y0105764D01*
X0074384Y0105805D01*
X0074249Y0105842D01*
X0074113Y0105875D01*
X0073975Y0105904D01*
X0073838Y0105929D01*
X0073699Y0105951D01*
X0073560Y0105969D01*
X0073420Y0105982D01*
X0073280Y0105992D01*
X0073140Y0105998D01*
X0073000Y0106000D01*
X0078000Y0101000D02*
X0077998Y0100860D01*
X0077992Y0100720D01*
X0077982Y0100580D01*
X0077969Y0100440D01*
X0077951Y0100301D01*
X0077929Y0100162D01*
X0077904Y0100025D01*
X0077875Y0099887D01*
X0077842Y0099751D01*
X0077805Y0099616D01*
X0077764Y0099482D01*
X0077719Y0099349D01*
X0077671Y0099217D01*
X0077619Y0099087D01*
X0077564Y0098958D01*
X0077505Y0098831D01*
X0077442Y0098705D01*
X0077376Y0098581D01*
X0077307Y0098460D01*
X0077234Y0098340D01*
X0077157Y0098222D01*
X0077078Y0098107D01*
X0076995Y0097993D01*
X0076909Y0097883D01*
X0076820Y0097774D01*
X0076728Y0097668D01*
X0076633Y0097565D01*
X0076536Y0097464D01*
X0076435Y0097367D01*
X0076332Y0097272D01*
X0076226Y0097180D01*
X0076117Y0097091D01*
X0076007Y0097005D01*
X0075893Y0096922D01*
X0075778Y0096843D01*
X0075660Y0096766D01*
X0075540Y0096693D01*
X0075419Y0096624D01*
X0075295Y0096558D01*
X0075169Y0096495D01*
X0075042Y0096436D01*
X0074913Y0096381D01*
X0074783Y0096329D01*
X0074651Y0096281D01*
X0074518Y0096236D01*
X0074384Y0096195D01*
X0074249Y0096158D01*
X0074113Y0096125D01*
X0073975Y0096096D01*
X0073838Y0096071D01*
X0073699Y0096049D01*
X0073560Y0096031D01*
X0073420Y0096018D01*
X0073280Y0096008D01*
X0073140Y0096002D01*
X0073000Y0096000D01*
X0075000Y0101000D02*
X0074998Y0101140D01*
X0074992Y0101280D01*
X0074982Y0101420D01*
X0074969Y0101560D01*
X0074951Y0101699D01*
X0074929Y0101838D01*
X0074904Y0101975D01*
X0074875Y0102113D01*
X0074842Y0102249D01*
X0074805Y0102384D01*
X0074764Y0102518D01*
X0074719Y0102651D01*
X0074671Y0102783D01*
X0074619Y0102913D01*
X0074564Y0103042D01*
X0074505Y0103169D01*
X0074442Y0103295D01*
X0074376Y0103419D01*
X0074307Y0103540D01*
X0074234Y0103660D01*
X0074157Y0103778D01*
X0074078Y0103893D01*
X0073995Y0104007D01*
X0073909Y0104117D01*
X0073820Y0104226D01*
X0073728Y0104332D01*
X0073633Y0104435D01*
X0073536Y0104536D01*
X0073435Y0104633D01*
X0073332Y0104728D01*
X0073226Y0104820D01*
X0073117Y0104909D01*
X0073007Y0104995D01*
X0072893Y0105078D01*
X0072778Y0105157D01*
X0072660Y0105234D01*
X0072540Y0105307D01*
X0072419Y0105376D01*
X0072295Y0105442D01*
X0072169Y0105505D01*
X0072042Y0105564D01*
X0071913Y0105619D01*
X0071783Y0105671D01*
X0071651Y0105719D01*
X0071518Y0105764D01*
X0071384Y0105805D01*
X0071249Y0105842D01*
X0071113Y0105875D01*
X0070975Y0105904D01*
X0070838Y0105929D01*
X0070699Y0105951D01*
X0070560Y0105969D01*
X0070420Y0105982D01*
X0070280Y0105992D01*
X0070140Y0105998D01*
X0070000Y0106000D01*
X0075000Y0101000D02*
X0074998Y0100860D01*
X0074992Y0100720D01*
X0074982Y0100580D01*
X0074969Y0100440D01*
X0074951Y0100301D01*
X0074929Y0100162D01*
X0074904Y0100025D01*
X0074875Y0099887D01*
X0074842Y0099751D01*
X0074805Y0099616D01*
X0074764Y0099482D01*
X0074719Y0099349D01*
X0074671Y0099217D01*
X0074619Y0099087D01*
X0074564Y0098958D01*
X0074505Y0098831D01*
X0074442Y0098705D01*
X0074376Y0098581D01*
X0074307Y0098460D01*
X0074234Y0098340D01*
X0074157Y0098222D01*
X0074078Y0098107D01*
X0073995Y0097993D01*
X0073909Y0097883D01*
X0073820Y0097774D01*
X0073728Y0097668D01*
X0073633Y0097565D01*
X0073536Y0097464D01*
X0073435Y0097367D01*
X0073332Y0097272D01*
X0073226Y0097180D01*
X0073117Y0097091D01*
X0073007Y0097005D01*
X0072893Y0096922D01*
X0072778Y0096843D01*
X0072660Y0096766D01*
X0072540Y0096693D01*
X0072419Y0096624D01*
X0072295Y0096558D01*
X0072169Y0096495D01*
X0072042Y0096436D01*
X0071913Y0096381D01*
X0071783Y0096329D01*
X0071651Y0096281D01*
X0071518Y0096236D01*
X0071384Y0096195D01*
X0071249Y0096158D01*
X0071113Y0096125D01*
X0070975Y0096096D01*
X0070838Y0096071D01*
X0070699Y0096049D01*
X0070560Y0096031D01*
X0070420Y0096018D01*
X0070280Y0096008D01*
X0070140Y0096002D01*
X0070000Y0096000D01*
X0062000Y0101000D02*
X0062002Y0101140D01*
X0062008Y0101280D01*
X0062018Y0101420D01*
X0062031Y0101560D01*
X0062049Y0101699D01*
X0062071Y0101838D01*
X0062096Y0101975D01*
X0062125Y0102113D01*
X0062158Y0102249D01*
X0062195Y0102384D01*
X0062236Y0102518D01*
X0062281Y0102651D01*
X0062329Y0102783D01*
X0062381Y0102913D01*
X0062436Y0103042D01*
X0062495Y0103169D01*
X0062558Y0103295D01*
X0062624Y0103419D01*
X0062693Y0103540D01*
X0062766Y0103660D01*
X0062843Y0103778D01*
X0062922Y0103893D01*
X0063005Y0104007D01*
X0063091Y0104117D01*
X0063180Y0104226D01*
X0063272Y0104332D01*
X0063367Y0104435D01*
X0063464Y0104536D01*
X0063565Y0104633D01*
X0063668Y0104728D01*
X0063774Y0104820D01*
X0063883Y0104909D01*
X0063993Y0104995D01*
X0064107Y0105078D01*
X0064222Y0105157D01*
X0064340Y0105234D01*
X0064460Y0105307D01*
X0064581Y0105376D01*
X0064705Y0105442D01*
X0064831Y0105505D01*
X0064958Y0105564D01*
X0065087Y0105619D01*
X0065217Y0105671D01*
X0065349Y0105719D01*
X0065482Y0105764D01*
X0065616Y0105805D01*
X0065751Y0105842D01*
X0065887Y0105875D01*
X0066025Y0105904D01*
X0066162Y0105929D01*
X0066301Y0105951D01*
X0066440Y0105969D01*
X0066580Y0105982D01*
X0066720Y0105992D01*
X0066860Y0105998D01*
X0067000Y0106000D01*
X0067140Y0105998D01*
X0067280Y0105992D01*
X0067420Y0105982D01*
X0067560Y0105969D01*
X0067699Y0105951D01*
X0067838Y0105929D01*
X0067975Y0105904D01*
X0068113Y0105875D01*
X0068249Y0105842D01*
X0068384Y0105805D01*
X0068518Y0105764D01*
X0068651Y0105719D01*
X0068783Y0105671D01*
X0068913Y0105619D01*
X0069042Y0105564D01*
X0069169Y0105505D01*
X0069295Y0105442D01*
X0069419Y0105376D01*
X0069540Y0105307D01*
X0069660Y0105234D01*
X0069778Y0105157D01*
X0069893Y0105078D01*
X0070007Y0104995D01*
X0070117Y0104909D01*
X0070226Y0104820D01*
X0070332Y0104728D01*
X0070435Y0104633D01*
X0070536Y0104536D01*
X0070633Y0104435D01*
X0070728Y0104332D01*
X0070820Y0104226D01*
X0070909Y0104117D01*
X0070995Y0104007D01*
X0071078Y0103893D01*
X0071157Y0103778D01*
X0071234Y0103660D01*
X0071307Y0103540D01*
X0071376Y0103419D01*
X0071442Y0103295D01*
X0071505Y0103169D01*
X0071564Y0103042D01*
X0071619Y0102913D01*
X0071671Y0102783D01*
X0071719Y0102651D01*
X0071764Y0102518D01*
X0071805Y0102384D01*
X0071842Y0102249D01*
X0071875Y0102113D01*
X0071904Y0101975D01*
X0071929Y0101838D01*
X0071951Y0101699D01*
X0071969Y0101560D01*
X0071982Y0101420D01*
X0071992Y0101280D01*
X0071998Y0101140D01*
X0072000Y0101000D01*
X0071998Y0100860D01*
X0071992Y0100720D01*
X0071982Y0100580D01*
X0071969Y0100440D01*
X0071951Y0100301D01*
X0071929Y0100162D01*
X0071904Y0100025D01*
X0071875Y0099887D01*
X0071842Y0099751D01*
X0071805Y0099616D01*
X0071764Y0099482D01*
X0071719Y0099349D01*
X0071671Y0099217D01*
X0071619Y0099087D01*
X0071564Y0098958D01*
X0071505Y0098831D01*
X0071442Y0098705D01*
X0071376Y0098581D01*
X0071307Y0098460D01*
X0071234Y0098340D01*
X0071157Y0098222D01*
X0071078Y0098107D01*
X0070995Y0097993D01*
X0070909Y0097883D01*
X0070820Y0097774D01*
X0070728Y0097668D01*
X0070633Y0097565D01*
X0070536Y0097464D01*
X0070435Y0097367D01*
X0070332Y0097272D01*
X0070226Y0097180D01*
X0070117Y0097091D01*
X0070007Y0097005D01*
X0069893Y0096922D01*
X0069778Y0096843D01*
X0069660Y0096766D01*
X0069540Y0096693D01*
X0069419Y0096624D01*
X0069295Y0096558D01*
X0069169Y0096495D01*
X0069042Y0096436D01*
X0068913Y0096381D01*
X0068783Y0096329D01*
X0068651Y0096281D01*
X0068518Y0096236D01*
X0068384Y0096195D01*
X0068249Y0096158D01*
X0068113Y0096125D01*
X0067975Y0096096D01*
X0067838Y0096071D01*
X0067699Y0096049D01*
X0067560Y0096031D01*
X0067420Y0096018D01*
X0067280Y0096008D01*
X0067140Y0096002D01*
X0067000Y0096000D01*
X0045012Y0108343D02*
X0038503Y0114852D01*
X0036899Y0113247D02*
X0043407Y0106739D01*
X0027665Y0110843D02*
X0027669Y0111170D01*
X0027681Y0111497D01*
X0027701Y0111824D01*
X0027729Y0112150D01*
X0027765Y0112475D01*
X0027809Y0112800D01*
X0027861Y0113123D01*
X0027921Y0113445D01*
X0027989Y0113765D01*
X0028065Y0114083D01*
X0028148Y0114400D01*
X0028239Y0114714D01*
X0028338Y0115026D01*
X0028445Y0115335D01*
X0028559Y0115642D01*
X0028680Y0115946D01*
X0028809Y0116247D01*
X0028945Y0116544D01*
X0029089Y0116839D01*
X0029240Y0117129D01*
X0029397Y0117416D01*
X0029562Y0117699D01*
X0029734Y0117977D01*
X0029912Y0118252D01*
X0030098Y0118521D01*
X0030289Y0118787D01*
X0030487Y0119047D01*
X0030692Y0119303D01*
X0030903Y0119553D01*
X0031119Y0119798D01*
X0031342Y0120038D01*
X0031571Y0120272D01*
X0031805Y0120501D01*
X0032045Y0120724D01*
X0032290Y0120940D01*
X0032540Y0121151D01*
X0032796Y0121356D01*
X0033056Y0121554D01*
X0033322Y0121745D01*
X0033591Y0121931D01*
X0033866Y0122109D01*
X0034144Y0122281D01*
X0034427Y0122446D01*
X0034714Y0122603D01*
X0035004Y0122754D01*
X0035299Y0122898D01*
X0035596Y0123034D01*
X0035897Y0123163D01*
X0036201Y0123284D01*
X0036508Y0123398D01*
X0036817Y0123505D01*
X0037129Y0123604D01*
X0037443Y0123695D01*
X0037760Y0123778D01*
X0038078Y0123854D01*
X0038398Y0123922D01*
X0038720Y0123982D01*
X0039043Y0124034D01*
X0039368Y0124078D01*
X0039693Y0124114D01*
X0040019Y0124142D01*
X0040346Y0124162D01*
X0040673Y0124174D01*
X0041000Y0124178D01*
X0041327Y0124174D01*
X0041654Y0124162D01*
X0041981Y0124142D01*
X0042307Y0124114D01*
X0042632Y0124078D01*
X0042957Y0124034D01*
X0043280Y0123982D01*
X0043602Y0123922D01*
X0043922Y0123854D01*
X0044240Y0123778D01*
X0044557Y0123695D01*
X0044871Y0123604D01*
X0045183Y0123505D01*
X0045492Y0123398D01*
X0045799Y0123284D01*
X0046103Y0123163D01*
X0046404Y0123034D01*
X0046701Y0122898D01*
X0046996Y0122754D01*
X0047286Y0122603D01*
X0047573Y0122446D01*
X0047856Y0122281D01*
X0048134Y0122109D01*
X0048409Y0121931D01*
X0048678Y0121745D01*
X0048944Y0121554D01*
X0049204Y0121356D01*
X0049460Y0121151D01*
X0049710Y0120940D01*
X0049955Y0120724D01*
X0050195Y0120501D01*
X0050429Y0120272D01*
X0050658Y0120038D01*
X0050881Y0119798D01*
X0051097Y0119553D01*
X0051308Y0119303D01*
X0051513Y0119047D01*
X0051711Y0118787D01*
X0051902Y0118521D01*
X0052088Y0118252D01*
X0052266Y0117977D01*
X0052438Y0117699D01*
X0052603Y0117416D01*
X0052760Y0117129D01*
X0052911Y0116839D01*
X0053055Y0116544D01*
X0053191Y0116247D01*
X0053320Y0115946D01*
X0053441Y0115642D01*
X0053555Y0115335D01*
X0053662Y0115026D01*
X0053761Y0114714D01*
X0053852Y0114400D01*
X0053935Y0114083D01*
X0054011Y0113765D01*
X0054079Y0113445D01*
X0054139Y0113123D01*
X0054191Y0112800D01*
X0054235Y0112475D01*
X0054271Y0112150D01*
X0054299Y0111824D01*
X0054319Y0111497D01*
X0054331Y0111170D01*
X0054335Y0110843D01*
X0054331Y0110516D01*
X0054319Y0110189D01*
X0054299Y0109862D01*
X0054271Y0109536D01*
X0054235Y0109211D01*
X0054191Y0108886D01*
X0054139Y0108563D01*
X0054079Y0108241D01*
X0054011Y0107921D01*
X0053935Y0107603D01*
X0053852Y0107286D01*
X0053761Y0106972D01*
X0053662Y0106660D01*
X0053555Y0106351D01*
X0053441Y0106044D01*
X0053320Y0105740D01*
X0053191Y0105439D01*
X0053055Y0105142D01*
X0052911Y0104847D01*
X0052760Y0104557D01*
X0052603Y0104270D01*
X0052438Y0103987D01*
X0052266Y0103709D01*
X0052088Y0103434D01*
X0051902Y0103165D01*
X0051711Y0102899D01*
X0051513Y0102639D01*
X0051308Y0102383D01*
X0051097Y0102133D01*
X0050881Y0101888D01*
X0050658Y0101648D01*
X0050429Y0101414D01*
X0050195Y0101185D01*
X0049955Y0100962D01*
X0049710Y0100746D01*
X0049460Y0100535D01*
X0049204Y0100330D01*
X0048944Y0100132D01*
X0048678Y0099941D01*
X0048409Y0099755D01*
X0048134Y0099577D01*
X0047856Y0099405D01*
X0047573Y0099240D01*
X0047286Y0099083D01*
X0046996Y0098932D01*
X0046701Y0098788D01*
X0046404Y0098652D01*
X0046103Y0098523D01*
X0045799Y0098402D01*
X0045492Y0098288D01*
X0045183Y0098181D01*
X0044871Y0098082D01*
X0044557Y0097991D01*
X0044240Y0097908D01*
X0043922Y0097832D01*
X0043602Y0097764D01*
X0043280Y0097704D01*
X0042957Y0097652D01*
X0042632Y0097608D01*
X0042307Y0097572D01*
X0041981Y0097544D01*
X0041654Y0097524D01*
X0041327Y0097512D01*
X0041000Y0097508D01*
X0040673Y0097512D01*
X0040346Y0097524D01*
X0040019Y0097544D01*
X0039693Y0097572D01*
X0039368Y0097608D01*
X0039043Y0097652D01*
X0038720Y0097704D01*
X0038398Y0097764D01*
X0038078Y0097832D01*
X0037760Y0097908D01*
X0037443Y0097991D01*
X0037129Y0098082D01*
X0036817Y0098181D01*
X0036508Y0098288D01*
X0036201Y0098402D01*
X0035897Y0098523D01*
X0035596Y0098652D01*
X0035299Y0098788D01*
X0035004Y0098932D01*
X0034714Y0099083D01*
X0034427Y0099240D01*
X0034144Y0099405D01*
X0033866Y0099577D01*
X0033591Y0099755D01*
X0033322Y0099941D01*
X0033056Y0100132D01*
X0032796Y0100330D01*
X0032540Y0100535D01*
X0032290Y0100746D01*
X0032045Y0100962D01*
X0031805Y0101185D01*
X0031571Y0101414D01*
X0031342Y0101648D01*
X0031119Y0101888D01*
X0030903Y0102133D01*
X0030692Y0102383D01*
X0030487Y0102639D01*
X0030289Y0102899D01*
X0030098Y0103165D01*
X0029912Y0103434D01*
X0029734Y0103709D01*
X0029562Y0103987D01*
X0029397Y0104270D01*
X0029240Y0104557D01*
X0029089Y0104847D01*
X0028945Y0105142D01*
X0028809Y0105439D01*
X0028680Y0105740D01*
X0028559Y0106044D01*
X0028445Y0106351D01*
X0028338Y0106660D01*
X0028239Y0106972D01*
X0028148Y0107286D01*
X0028065Y0107603D01*
X0027989Y0107921D01*
X0027921Y0108241D01*
X0027861Y0108563D01*
X0027809Y0108886D01*
X0027765Y0109211D01*
X0027729Y0109536D01*
X0027701Y0109862D01*
X0027681Y0110189D01*
X0027669Y0110516D01*
X0027665Y0110843D01*
X0026556Y0110843D02*
X0026560Y0111197D01*
X0026573Y0111552D01*
X0026595Y0111906D01*
X0026626Y0112259D01*
X0026665Y0112611D01*
X0026712Y0112962D01*
X0026769Y0113312D01*
X0026834Y0113661D01*
X0026907Y0114008D01*
X0026989Y0114353D01*
X0027079Y0114695D01*
X0027178Y0115036D01*
X0027285Y0115374D01*
X0027400Y0115709D01*
X0027524Y0116041D01*
X0027655Y0116370D01*
X0027795Y0116696D01*
X0027943Y0117019D01*
X0028098Y0117337D01*
X0028262Y0117652D01*
X0028432Y0117962D01*
X0028611Y0118269D01*
X0028797Y0118571D01*
X0028990Y0118868D01*
X0029191Y0119160D01*
X0029398Y0119447D01*
X0029613Y0119729D01*
X0029835Y0120006D01*
X0030063Y0120277D01*
X0030298Y0120543D01*
X0030539Y0120803D01*
X0030787Y0121056D01*
X0031040Y0121304D01*
X0031300Y0121545D01*
X0031566Y0121780D01*
X0031837Y0122008D01*
X0032114Y0122230D01*
X0032396Y0122445D01*
X0032683Y0122652D01*
X0032975Y0122853D01*
X0033272Y0123046D01*
X0033574Y0123232D01*
X0033881Y0123411D01*
X0034191Y0123581D01*
X0034506Y0123745D01*
X0034824Y0123900D01*
X0035147Y0124048D01*
X0035473Y0124188D01*
X0035802Y0124319D01*
X0036134Y0124443D01*
X0036469Y0124558D01*
X0036807Y0124665D01*
X0037148Y0124764D01*
X0037490Y0124854D01*
X0037835Y0124936D01*
X0038182Y0125009D01*
X0038531Y0125074D01*
X0038881Y0125131D01*
X0039232Y0125178D01*
X0039584Y0125217D01*
X0039937Y0125248D01*
X0040291Y0125270D01*
X0040646Y0125283D01*
X0041000Y0125287D01*
X0041354Y0125283D01*
X0041709Y0125270D01*
X0042063Y0125248D01*
X0042416Y0125217D01*
X0042768Y0125178D01*
X0043119Y0125131D01*
X0043469Y0125074D01*
X0043818Y0125009D01*
X0044165Y0124936D01*
X0044510Y0124854D01*
X0044852Y0124764D01*
X0045193Y0124665D01*
X0045531Y0124558D01*
X0045866Y0124443D01*
X0046198Y0124319D01*
X0046527Y0124188D01*
X0046853Y0124048D01*
X0047176Y0123900D01*
X0047494Y0123745D01*
X0047809Y0123581D01*
X0048119Y0123411D01*
X0048426Y0123232D01*
X0048728Y0123046D01*
X0049025Y0122853D01*
X0049317Y0122652D01*
X0049604Y0122445D01*
X0049886Y0122230D01*
X0050163Y0122008D01*
X0050434Y0121780D01*
X0050700Y0121545D01*
X0050960Y0121304D01*
X0051213Y0121056D01*
X0051461Y0120803D01*
X0051702Y0120543D01*
X0051937Y0120277D01*
X0052165Y0120006D01*
X0052387Y0119729D01*
X0052602Y0119447D01*
X0052809Y0119160D01*
X0053010Y0118868D01*
X0053203Y0118571D01*
X0053389Y0118269D01*
X0053568Y0117962D01*
X0053738Y0117652D01*
X0053902Y0117337D01*
X0054057Y0117019D01*
X0054205Y0116696D01*
X0054345Y0116370D01*
X0054476Y0116041D01*
X0054600Y0115709D01*
X0054715Y0115374D01*
X0054822Y0115036D01*
X0054921Y0114695D01*
X0055011Y0114353D01*
X0055093Y0114008D01*
X0055166Y0113661D01*
X0055231Y0113312D01*
X0055288Y0112962D01*
X0055335Y0112611D01*
X0055374Y0112259D01*
X0055405Y0111906D01*
X0055427Y0111552D01*
X0055440Y0111197D01*
X0055444Y0110843D01*
X0055440Y0110489D01*
X0055427Y0110134D01*
X0055405Y0109780D01*
X0055374Y0109427D01*
X0055335Y0109075D01*
X0055288Y0108724D01*
X0055231Y0108374D01*
X0055166Y0108025D01*
X0055093Y0107678D01*
X0055011Y0107333D01*
X0054921Y0106991D01*
X0054822Y0106650D01*
X0054715Y0106312D01*
X0054600Y0105977D01*
X0054476Y0105645D01*
X0054345Y0105316D01*
X0054205Y0104990D01*
X0054057Y0104667D01*
X0053902Y0104349D01*
X0053738Y0104034D01*
X0053568Y0103724D01*
X0053389Y0103417D01*
X0053203Y0103115D01*
X0053010Y0102818D01*
X0052809Y0102526D01*
X0052602Y0102239D01*
X0052387Y0101957D01*
X0052165Y0101680D01*
X0051937Y0101409D01*
X0051702Y0101143D01*
X0051461Y0100883D01*
X0051213Y0100630D01*
X0050960Y0100382D01*
X0050700Y0100141D01*
X0050434Y0099906D01*
X0050163Y0099678D01*
X0049886Y0099456D01*
X0049604Y0099241D01*
X0049317Y0099034D01*
X0049025Y0098833D01*
X0048728Y0098640D01*
X0048426Y0098454D01*
X0048119Y0098275D01*
X0047809Y0098105D01*
X0047494Y0097941D01*
X0047176Y0097786D01*
X0046853Y0097638D01*
X0046527Y0097498D01*
X0046198Y0097367D01*
X0045866Y0097243D01*
X0045531Y0097128D01*
X0045193Y0097021D01*
X0044852Y0096922D01*
X0044510Y0096832D01*
X0044165Y0096750D01*
X0043818Y0096677D01*
X0043469Y0096612D01*
X0043119Y0096555D01*
X0042768Y0096508D01*
X0042416Y0096469D01*
X0042063Y0096438D01*
X0041709Y0096416D01*
X0041354Y0096403D01*
X0041000Y0096399D01*
X0040646Y0096403D01*
X0040291Y0096416D01*
X0039937Y0096438D01*
X0039584Y0096469D01*
X0039232Y0096508D01*
X0038881Y0096555D01*
X0038531Y0096612D01*
X0038182Y0096677D01*
X0037835Y0096750D01*
X0037490Y0096832D01*
X0037148Y0096922D01*
X0036807Y0097021D01*
X0036469Y0097128D01*
X0036134Y0097243D01*
X0035802Y0097367D01*
X0035473Y0097498D01*
X0035147Y0097638D01*
X0034824Y0097786D01*
X0034506Y0097941D01*
X0034191Y0098105D01*
X0033881Y0098275D01*
X0033574Y0098454D01*
X0033272Y0098640D01*
X0032975Y0098833D01*
X0032683Y0099034D01*
X0032396Y0099241D01*
X0032114Y0099456D01*
X0031837Y0099678D01*
X0031566Y0099906D01*
X0031300Y0100141D01*
X0031040Y0100382D01*
X0030787Y0100630D01*
X0030539Y0100883D01*
X0030298Y0101143D01*
X0030063Y0101409D01*
X0029835Y0101680D01*
X0029613Y0101957D01*
X0029398Y0102239D01*
X0029191Y0102526D01*
X0028990Y0102818D01*
X0028797Y0103115D01*
X0028611Y0103417D01*
X0028432Y0103724D01*
X0028262Y0104034D01*
X0028098Y0104349D01*
X0027943Y0104667D01*
X0027795Y0104990D01*
X0027655Y0105316D01*
X0027524Y0105645D01*
X0027400Y0105977D01*
X0027285Y0106312D01*
X0027178Y0106650D01*
X0027079Y0106991D01*
X0026989Y0107333D01*
X0026907Y0107678D01*
X0026834Y0108025D01*
X0026769Y0108374D01*
X0026712Y0108724D01*
X0026665Y0109075D01*
X0026626Y0109427D01*
X0026595Y0109780D01*
X0026573Y0110134D01*
X0026560Y0110489D01*
X0026556Y0110843D01*
X0036200Y0110843D02*
X0036202Y0110981D01*
X0036208Y0111120D01*
X0036218Y0111258D01*
X0036232Y0111395D01*
X0036250Y0111532D01*
X0036272Y0111669D01*
X0036297Y0111805D01*
X0036327Y0111940D01*
X0036361Y0112074D01*
X0036398Y0112207D01*
X0036439Y0112339D01*
X0036484Y0112470D01*
X0036533Y0112600D01*
X0036585Y0112728D01*
X0036642Y0112854D01*
X0036701Y0112979D01*
X0036765Y0113102D01*
X0036832Y0113223D01*
X0036902Y0113342D01*
X0036976Y0113459D01*
X0037053Y0113574D01*
X0037133Y0113687D01*
X0037217Y0113797D01*
X0037303Y0113905D01*
X0037393Y0114010D01*
X0037486Y0114113D01*
X0037582Y0114213D01*
X0037680Y0114310D01*
X0037781Y0114404D01*
X0037885Y0114495D01*
X0037992Y0114583D01*
X0038101Y0114669D01*
X0038212Y0114751D01*
X0038326Y0114829D01*
X0038442Y0114905D01*
X0038560Y0114977D01*
X0038680Y0115045D01*
X0038802Y0115110D01*
X0038926Y0115172D01*
X0039052Y0115230D01*
X0039179Y0115284D01*
X0039308Y0115335D01*
X0039438Y0115382D01*
X0039569Y0115425D01*
X0039702Y0115464D01*
X0039836Y0115500D01*
X0039970Y0115531D01*
X0040106Y0115559D01*
X0040242Y0115583D01*
X0040379Y0115603D01*
X0040517Y0115619D01*
X0040654Y0115631D01*
X0040793Y0115639D01*
X0040931Y0115643D01*
X0041069Y0115643D01*
X0041207Y0115639D01*
X0041346Y0115631D01*
X0041483Y0115619D01*
X0041621Y0115603D01*
X0041758Y0115583D01*
X0041894Y0115559D01*
X0042030Y0115531D01*
X0042164Y0115500D01*
X0042298Y0115464D01*
X0042431Y0115425D01*
X0042562Y0115382D01*
X0042692Y0115335D01*
X0042821Y0115284D01*
X0042948Y0115230D01*
X0043074Y0115172D01*
X0043198Y0115110D01*
X0043320Y0115045D01*
X0043440Y0114977D01*
X0043558Y0114905D01*
X0043674Y0114829D01*
X0043788Y0114751D01*
X0043899Y0114669D01*
X0044008Y0114583D01*
X0044115Y0114495D01*
X0044219Y0114404D01*
X0044320Y0114310D01*
X0044418Y0114213D01*
X0044514Y0114113D01*
X0044607Y0114010D01*
X0044697Y0113905D01*
X0044783Y0113797D01*
X0044867Y0113687D01*
X0044947Y0113574D01*
X0045024Y0113459D01*
X0045098Y0113342D01*
X0045168Y0113223D01*
X0045235Y0113102D01*
X0045299Y0112979D01*
X0045358Y0112854D01*
X0045415Y0112728D01*
X0045467Y0112600D01*
X0045516Y0112470D01*
X0045561Y0112339D01*
X0045602Y0112207D01*
X0045639Y0112074D01*
X0045673Y0111940D01*
X0045703Y0111805D01*
X0045728Y0111669D01*
X0045750Y0111532D01*
X0045768Y0111395D01*
X0045782Y0111258D01*
X0045792Y0111120D01*
X0045798Y0110981D01*
X0045800Y0110843D01*
X0045798Y0110705D01*
X0045792Y0110566D01*
X0045782Y0110428D01*
X0045768Y0110291D01*
X0045750Y0110154D01*
X0045728Y0110017D01*
X0045703Y0109881D01*
X0045673Y0109746D01*
X0045639Y0109612D01*
X0045602Y0109479D01*
X0045561Y0109347D01*
X0045516Y0109216D01*
X0045467Y0109086D01*
X0045415Y0108958D01*
X0045358Y0108832D01*
X0045299Y0108707D01*
X0045235Y0108584D01*
X0045168Y0108463D01*
X0045098Y0108344D01*
X0045024Y0108227D01*
X0044947Y0108112D01*
X0044867Y0107999D01*
X0044783Y0107889D01*
X0044697Y0107781D01*
X0044607Y0107676D01*
X0044514Y0107573D01*
X0044418Y0107473D01*
X0044320Y0107376D01*
X0044219Y0107282D01*
X0044115Y0107191D01*
X0044008Y0107103D01*
X0043899Y0107017D01*
X0043788Y0106935D01*
X0043674Y0106857D01*
X0043558Y0106781D01*
X0043440Y0106709D01*
X0043320Y0106641D01*
X0043198Y0106576D01*
X0043074Y0106514D01*
X0042948Y0106456D01*
X0042821Y0106402D01*
X0042692Y0106351D01*
X0042562Y0106304D01*
X0042431Y0106261D01*
X0042298Y0106222D01*
X0042164Y0106186D01*
X0042030Y0106155D01*
X0041894Y0106127D01*
X0041758Y0106103D01*
X0041621Y0106083D01*
X0041483Y0106067D01*
X0041346Y0106055D01*
X0041207Y0106047D01*
X0041069Y0106043D01*
X0040931Y0106043D01*
X0040793Y0106047D01*
X0040654Y0106055D01*
X0040517Y0106067D01*
X0040379Y0106083D01*
X0040242Y0106103D01*
X0040106Y0106127D01*
X0039970Y0106155D01*
X0039836Y0106186D01*
X0039702Y0106222D01*
X0039569Y0106261D01*
X0039438Y0106304D01*
X0039308Y0106351D01*
X0039179Y0106402D01*
X0039052Y0106456D01*
X0038926Y0106514D01*
X0038802Y0106576D01*
X0038680Y0106641D01*
X0038560Y0106709D01*
X0038442Y0106781D01*
X0038326Y0106857D01*
X0038212Y0106935D01*
X0038101Y0107017D01*
X0037992Y0107103D01*
X0037885Y0107191D01*
X0037781Y0107282D01*
X0037680Y0107376D01*
X0037582Y0107473D01*
X0037486Y0107573D01*
X0037393Y0107676D01*
X0037303Y0107781D01*
X0037217Y0107889D01*
X0037133Y0107999D01*
X0037053Y0108112D01*
X0036976Y0108227D01*
X0036902Y0108344D01*
X0036832Y0108463D01*
X0036765Y0108584D01*
X0036701Y0108707D01*
X0036642Y0108832D01*
X0036585Y0108958D01*
X0036533Y0109086D01*
X0036484Y0109216D01*
X0036439Y0109347D01*
X0036398Y0109479D01*
X0036361Y0109612D01*
X0036327Y0109746D01*
X0036297Y0109881D01*
X0036272Y0110017D01*
X0036250Y0110154D01*
X0036232Y0110291D01*
X0036218Y0110428D01*
X0036208Y0110566D01*
X0036202Y0110705D01*
X0036200Y0110843D01*
X0053725Y0118072D02*
X0057072Y0121419D01*
X0058355Y0120136D01*
X0058462Y0118665D01*
X0058569Y0117194D01*
X0055360Y0113985D01*
X0055280Y0117949D02*
X0055282Y0118012D01*
X0055288Y0118074D01*
X0055298Y0118136D01*
X0055311Y0118198D01*
X0055329Y0118258D01*
X0055350Y0118317D01*
X0055375Y0118375D01*
X0055404Y0118431D01*
X0055436Y0118485D01*
X0055471Y0118537D01*
X0055509Y0118586D01*
X0055551Y0118634D01*
X0055595Y0118678D01*
X0055643Y0118720D01*
X0055692Y0118758D01*
X0055744Y0118793D01*
X0055798Y0118825D01*
X0055854Y0118854D01*
X0055912Y0118879D01*
X0055971Y0118900D01*
X0056031Y0118918D01*
X0056093Y0118931D01*
X0056155Y0118941D01*
X0056217Y0118947D01*
X0056280Y0118949D01*
X0056343Y0118947D01*
X0056405Y0118941D01*
X0056467Y0118931D01*
X0056529Y0118918D01*
X0056589Y0118900D01*
X0056648Y0118879D01*
X0056706Y0118854D01*
X0056762Y0118825D01*
X0056816Y0118793D01*
X0056868Y0118758D01*
X0056917Y0118720D01*
X0056965Y0118678D01*
X0057009Y0118634D01*
X0057051Y0118586D01*
X0057089Y0118537D01*
X0057124Y0118485D01*
X0057156Y0118431D01*
X0057185Y0118375D01*
X0057210Y0118317D01*
X0057231Y0118258D01*
X0057249Y0118198D01*
X0057262Y0118136D01*
X0057272Y0118074D01*
X0057278Y0118012D01*
X0057280Y0117949D01*
X0057278Y0117886D01*
X0057272Y0117824D01*
X0057262Y0117762D01*
X0057249Y0117700D01*
X0057231Y0117640D01*
X0057210Y0117581D01*
X0057185Y0117523D01*
X0057156Y0117467D01*
X0057124Y0117413D01*
X0057089Y0117361D01*
X0057051Y0117312D01*
X0057009Y0117264D01*
X0056965Y0117220D01*
X0056917Y0117178D01*
X0056868Y0117140D01*
X0056816Y0117105D01*
X0056762Y0117073D01*
X0056706Y0117044D01*
X0056648Y0117019D01*
X0056589Y0116998D01*
X0056529Y0116980D01*
X0056467Y0116967D01*
X0056405Y0116957D01*
X0056343Y0116951D01*
X0056280Y0116949D01*
X0056217Y0116951D01*
X0056155Y0116957D01*
X0056093Y0116967D01*
X0056031Y0116980D01*
X0055971Y0116998D01*
X0055912Y0117019D01*
X0055854Y0117044D01*
X0055798Y0117073D01*
X0055744Y0117105D01*
X0055692Y0117140D01*
X0055643Y0117178D01*
X0055595Y0117220D01*
X0055551Y0117264D01*
X0055509Y0117312D01*
X0055471Y0117361D01*
X0055436Y0117413D01*
X0055404Y0117467D01*
X0055375Y0117523D01*
X0055350Y0117581D01*
X0055329Y0117640D01*
X0055311Y0117700D01*
X0055298Y0117762D01*
X0055288Y0117824D01*
X0055282Y0117886D01*
X0055280Y0117949D01*
X0054868Y0119285D02*
X0049461Y0124692D01*
X0048216Y0123582D02*
X0051563Y0126928D01*
X0050279Y0128212D01*
X0048803Y0128325D01*
X0047326Y0128437D01*
X0043958Y0125069D01*
X0047082Y0126203D02*
X0047084Y0126266D01*
X0047090Y0126328D01*
X0047100Y0126390D01*
X0047113Y0126452D01*
X0047131Y0126512D01*
X0047152Y0126571D01*
X0047177Y0126629D01*
X0047206Y0126685D01*
X0047238Y0126739D01*
X0047273Y0126791D01*
X0047311Y0126840D01*
X0047353Y0126888D01*
X0047397Y0126932D01*
X0047445Y0126974D01*
X0047494Y0127012D01*
X0047546Y0127047D01*
X0047600Y0127079D01*
X0047656Y0127108D01*
X0047714Y0127133D01*
X0047773Y0127154D01*
X0047833Y0127172D01*
X0047895Y0127185D01*
X0047957Y0127195D01*
X0048019Y0127201D01*
X0048082Y0127203D01*
X0048145Y0127201D01*
X0048207Y0127195D01*
X0048269Y0127185D01*
X0048331Y0127172D01*
X0048391Y0127154D01*
X0048450Y0127133D01*
X0048508Y0127108D01*
X0048564Y0127079D01*
X0048618Y0127047D01*
X0048670Y0127012D01*
X0048719Y0126974D01*
X0048767Y0126932D01*
X0048811Y0126888D01*
X0048853Y0126840D01*
X0048891Y0126791D01*
X0048926Y0126739D01*
X0048958Y0126685D01*
X0048987Y0126629D01*
X0049012Y0126571D01*
X0049033Y0126512D01*
X0049051Y0126452D01*
X0049064Y0126390D01*
X0049074Y0126328D01*
X0049080Y0126266D01*
X0049082Y0126203D01*
X0049080Y0126140D01*
X0049074Y0126078D01*
X0049064Y0126016D01*
X0049051Y0125954D01*
X0049033Y0125894D01*
X0049012Y0125835D01*
X0048987Y0125777D01*
X0048958Y0125721D01*
X0048926Y0125667D01*
X0048891Y0125615D01*
X0048853Y0125566D01*
X0048811Y0125518D01*
X0048767Y0125474D01*
X0048719Y0125432D01*
X0048670Y0125394D01*
X0048618Y0125359D01*
X0048564Y0125327D01*
X0048508Y0125298D01*
X0048450Y0125273D01*
X0048391Y0125252D01*
X0048331Y0125234D01*
X0048269Y0125221D01*
X0048207Y0125211D01*
X0048145Y0125205D01*
X0048082Y0125203D01*
X0048019Y0125205D01*
X0047957Y0125211D01*
X0047895Y0125221D01*
X0047833Y0125234D01*
X0047773Y0125252D01*
X0047714Y0125273D01*
X0047656Y0125298D01*
X0047600Y0125327D01*
X0047546Y0125359D01*
X0047494Y0125394D01*
X0047445Y0125432D01*
X0047397Y0125474D01*
X0047353Y0125518D01*
X0047311Y0125566D01*
X0047273Y0125615D01*
X0047238Y0125667D01*
X0047206Y0125721D01*
X0047177Y0125777D01*
X0047152Y0125835D01*
X0047131Y0125894D01*
X0047113Y0125954D01*
X0047100Y0126016D01*
X0047090Y0126078D01*
X0047084Y0126140D01*
X0047082Y0126203D01*
X0051177Y0126095D02*
X0053708Y0123564D01*
X0056489Y0120783D01*
X0052752Y0124500D02*
X0069248Y0124500D01*
X0071488Y0130500D02*
X0050512Y0130500D01*
X0051498Y0126528D02*
X0051602Y0126313D01*
X0051711Y0126100D01*
X0051825Y0125890D01*
X0051944Y0125683D01*
X0052067Y0125478D01*
X0052195Y0125276D01*
X0052328Y0125077D01*
X0052465Y0124882D01*
X0052606Y0124689D01*
X0052752Y0124500D01*
X0050512Y0130500D02*
X0050503Y0130756D01*
X0050500Y0131012D01*
X0050503Y0131268D01*
X0050513Y0131524D01*
X0050529Y0131779D01*
X0050551Y0132034D01*
X0050579Y0132289D01*
X0050614Y0132542D01*
X0050655Y0132795D01*
X0050701Y0133047D01*
X0050754Y0133297D01*
X0050813Y0133546D01*
X0050879Y0133794D01*
X0050950Y0134040D01*
X0051027Y0134284D01*
X0051110Y0134526D01*
X0051199Y0134766D01*
X0051293Y0135004D01*
X0051394Y0135239D01*
X0051500Y0135472D01*
X0050512Y0130500D02*
X0050527Y0130243D01*
X0050549Y0129986D01*
X0050577Y0129730D01*
X0050611Y0129475D01*
X0050652Y0129221D01*
X0050699Y0128968D01*
X0050752Y0128716D01*
X0050811Y0128465D01*
X0050876Y0128216D01*
X0050947Y0127969D01*
X0051024Y0127723D01*
X0051108Y0127479D01*
X0051197Y0127238D01*
X0051292Y0126999D01*
X0051393Y0126762D01*
X0051500Y0126528D01*
X0071488Y0130500D02*
X0071497Y0130756D01*
X0071500Y0131012D01*
X0071497Y0131268D01*
X0071487Y0131524D01*
X0071471Y0131779D01*
X0071449Y0132034D01*
X0071421Y0132289D01*
X0071386Y0132542D01*
X0071345Y0132795D01*
X0071299Y0133047D01*
X0071246Y0133297D01*
X0071187Y0133546D01*
X0071121Y0133794D01*
X0071050Y0134040D01*
X0070973Y0134284D01*
X0070890Y0134526D01*
X0070801Y0134766D01*
X0070707Y0135004D01*
X0070606Y0135239D01*
X0070500Y0135472D01*
X0070546Y0126622D02*
X0070439Y0126397D01*
X0070327Y0126174D01*
X0070210Y0125954D01*
X0070088Y0125737D01*
X0069960Y0125522D01*
X0069827Y0125311D01*
X0069690Y0125103D01*
X0069547Y0124899D01*
X0069400Y0124697D01*
X0069248Y0124500D01*
X0070500Y0135472D02*
X0070388Y0135702D01*
X0070271Y0135929D01*
X0070149Y0136153D01*
X0070021Y0136374D01*
X0069887Y0136591D01*
X0069749Y0136806D01*
X0069605Y0137017D01*
X0069456Y0137224D01*
X0069302Y0137428D01*
X0069144Y0137628D01*
X0068980Y0137824D01*
X0068812Y0138016D01*
X0068639Y0138204D01*
X0068461Y0138388D01*
X0068280Y0138567D01*
X0068093Y0138742D01*
X0067903Y0138912D01*
X0067709Y0139077D01*
X0067510Y0139238D01*
X0067308Y0139394D01*
X0067102Y0139545D01*
X0066892Y0139691D01*
X0066679Y0139831D01*
X0066463Y0139967D01*
X0066243Y0140097D01*
X0066020Y0140222D01*
X0065795Y0140341D01*
X0065566Y0140455D01*
X0065335Y0140563D01*
X0065101Y0140666D01*
X0064865Y0140763D01*
X0064626Y0140854D01*
X0064386Y0140939D01*
X0064143Y0141019D01*
X0063898Y0141092D01*
X0063652Y0141160D01*
X0063404Y0141221D01*
X0063155Y0141276D01*
X0062905Y0141326D01*
X0062653Y0141369D01*
X0062400Y0141406D01*
X0062147Y0141437D01*
X0061893Y0141462D01*
X0061638Y0141481D01*
X0061383Y0141493D01*
X0061128Y0141499D01*
X0060872Y0141499D01*
X0060617Y0141493D01*
X0060362Y0141481D01*
X0060107Y0141462D01*
X0059853Y0141437D01*
X0059600Y0141406D01*
X0059347Y0141369D01*
X0059095Y0141326D01*
X0058845Y0141276D01*
X0058596Y0141221D01*
X0058348Y0141160D01*
X0058102Y0141092D01*
X0057857Y0141019D01*
X0057614Y0140939D01*
X0057374Y0140854D01*
X0057135Y0140763D01*
X0056899Y0140666D01*
X0056665Y0140563D01*
X0056434Y0140455D01*
X0056205Y0140341D01*
X0055980Y0140222D01*
X0055757Y0140097D01*
X0055537Y0139967D01*
X0055321Y0139831D01*
X0055108Y0139691D01*
X0054898Y0139545D01*
X0054692Y0139394D01*
X0054490Y0139238D01*
X0054291Y0139077D01*
X0054097Y0138912D01*
X0053907Y0138742D01*
X0053720Y0138567D01*
X0053539Y0138388D01*
X0053361Y0138204D01*
X0053188Y0138016D01*
X0053020Y0137824D01*
X0052856Y0137628D01*
X0052698Y0137428D01*
X0052544Y0137224D01*
X0052395Y0137017D01*
X0052251Y0136806D01*
X0052113Y0136591D01*
X0051979Y0136374D01*
X0051851Y0136153D01*
X0051729Y0135929D01*
X0051612Y0135702D01*
X0051500Y0135472D01*
X0071488Y0130500D02*
X0071473Y0130243D01*
X0071451Y0129986D01*
X0071423Y0129730D01*
X0071389Y0129475D01*
X0071348Y0129221D01*
X0071301Y0128968D01*
X0071248Y0128716D01*
X0071189Y0128465D01*
X0071124Y0128216D01*
X0071053Y0127969D01*
X0070976Y0127723D01*
X0070892Y0127479D01*
X0070803Y0127238D01*
X0070708Y0126999D01*
X0070607Y0126762D01*
X0070500Y0126528D01*
X0090512Y0131500D02*
X0111488Y0131500D01*
X0109248Y0137500D02*
X0092752Y0137500D01*
X0092600Y0137303D01*
X0092453Y0137101D01*
X0092310Y0136897D01*
X0092173Y0136689D01*
X0092040Y0136478D01*
X0091912Y0136263D01*
X0091790Y0136046D01*
X0091673Y0135826D01*
X0091561Y0135603D01*
X0091454Y0135378D01*
X0090512Y0131500D02*
X0090503Y0131244D01*
X0090500Y0130988D01*
X0090503Y0130732D01*
X0090513Y0130476D01*
X0090529Y0130221D01*
X0090551Y0129966D01*
X0090579Y0129711D01*
X0090614Y0129458D01*
X0090655Y0129205D01*
X0090701Y0128953D01*
X0090754Y0128703D01*
X0090813Y0128454D01*
X0090879Y0128206D01*
X0090950Y0127960D01*
X0091027Y0127716D01*
X0091110Y0127474D01*
X0091199Y0127234D01*
X0091293Y0126996D01*
X0091394Y0126761D01*
X0091500Y0126528D01*
X0090512Y0131500D02*
X0090527Y0131757D01*
X0090549Y0132014D01*
X0090577Y0132270D01*
X0090611Y0132525D01*
X0090652Y0132779D01*
X0090699Y0133032D01*
X0090752Y0133284D01*
X0090811Y0133535D01*
X0090876Y0133784D01*
X0090947Y0134031D01*
X0091024Y0134277D01*
X0091108Y0134521D01*
X0091197Y0134762D01*
X0091292Y0135001D01*
X0091393Y0135238D01*
X0091500Y0135472D01*
X0111488Y0131500D02*
X0111497Y0131244D01*
X0111500Y0130988D01*
X0111497Y0130732D01*
X0111487Y0130476D01*
X0111471Y0130221D01*
X0111449Y0129966D01*
X0111421Y0129711D01*
X0111386Y0129458D01*
X0111345Y0129205D01*
X0111299Y0128953D01*
X0111246Y0128703D01*
X0111187Y0128454D01*
X0111121Y0128206D01*
X0111050Y0127960D01*
X0110973Y0127716D01*
X0110890Y0127474D01*
X0110801Y0127234D01*
X0110707Y0126996D01*
X0110606Y0126761D01*
X0110500Y0126528D01*
X0117500Y0123500D02*
X0124500Y0123500D01*
X0127000Y0121000D02*
X0126998Y0120902D01*
X0126992Y0120804D01*
X0126983Y0120706D01*
X0126969Y0120609D01*
X0126952Y0120512D01*
X0126931Y0120416D01*
X0126906Y0120321D01*
X0126878Y0120227D01*
X0126845Y0120135D01*
X0126810Y0120043D01*
X0126770Y0119953D01*
X0126728Y0119865D01*
X0126681Y0119778D01*
X0126632Y0119694D01*
X0126579Y0119611D01*
X0126523Y0119531D01*
X0126463Y0119452D01*
X0126401Y0119376D01*
X0126336Y0119303D01*
X0126268Y0119232D01*
X0126197Y0119164D01*
X0126124Y0119099D01*
X0126048Y0119037D01*
X0125969Y0118977D01*
X0125889Y0118921D01*
X0125806Y0118868D01*
X0125722Y0118819D01*
X0125635Y0118772D01*
X0125547Y0118730D01*
X0125457Y0118690D01*
X0125365Y0118655D01*
X0125273Y0118622D01*
X0125179Y0118594D01*
X0125084Y0118569D01*
X0124988Y0118548D01*
X0124891Y0118531D01*
X0124794Y0118517D01*
X0124696Y0118508D01*
X0124598Y0118502D01*
X0124500Y0118500D01*
X0117500Y0118500D01*
X0115000Y0121000D02*
X0115002Y0121098D01*
X0115008Y0121196D01*
X0115017Y0121294D01*
X0115031Y0121391D01*
X0115048Y0121488D01*
X0115069Y0121584D01*
X0115094Y0121679D01*
X0115122Y0121773D01*
X0115155Y0121865D01*
X0115190Y0121957D01*
X0115230Y0122047D01*
X0115272Y0122135D01*
X0115319Y0122222D01*
X0115368Y0122306D01*
X0115421Y0122389D01*
X0115477Y0122469D01*
X0115537Y0122548D01*
X0115599Y0122624D01*
X0115664Y0122697D01*
X0115732Y0122768D01*
X0115803Y0122836D01*
X0115876Y0122901D01*
X0115952Y0122963D01*
X0116031Y0123023D01*
X0116111Y0123079D01*
X0116194Y0123132D01*
X0116278Y0123181D01*
X0116365Y0123228D01*
X0116453Y0123270D01*
X0116543Y0123310D01*
X0116635Y0123345D01*
X0116727Y0123378D01*
X0116821Y0123406D01*
X0116916Y0123431D01*
X0117012Y0123452D01*
X0117109Y0123469D01*
X0117206Y0123483D01*
X0117304Y0123492D01*
X0117402Y0123498D01*
X0117500Y0123500D01*
X0115000Y0121000D02*
X0115002Y0120902D01*
X0115008Y0120804D01*
X0115017Y0120706D01*
X0115031Y0120609D01*
X0115048Y0120512D01*
X0115069Y0120416D01*
X0115094Y0120321D01*
X0115122Y0120227D01*
X0115155Y0120135D01*
X0115190Y0120043D01*
X0115230Y0119953D01*
X0115272Y0119865D01*
X0115319Y0119778D01*
X0115368Y0119694D01*
X0115421Y0119611D01*
X0115477Y0119531D01*
X0115537Y0119452D01*
X0115599Y0119376D01*
X0115664Y0119303D01*
X0115732Y0119232D01*
X0115803Y0119164D01*
X0115876Y0119099D01*
X0115952Y0119037D01*
X0116031Y0118977D01*
X0116111Y0118921D01*
X0116194Y0118868D01*
X0116278Y0118819D01*
X0116365Y0118772D01*
X0116453Y0118730D01*
X0116543Y0118690D01*
X0116635Y0118655D01*
X0116727Y0118622D01*
X0116821Y0118594D01*
X0116916Y0118569D01*
X0117012Y0118548D01*
X0117109Y0118531D01*
X0117206Y0118517D01*
X0117304Y0118508D01*
X0117402Y0118502D01*
X0117500Y0118500D01*
X0124500Y0123500D02*
X0124598Y0123498D01*
X0124696Y0123492D01*
X0124794Y0123483D01*
X0124891Y0123469D01*
X0124988Y0123452D01*
X0125084Y0123431D01*
X0125179Y0123406D01*
X0125273Y0123378D01*
X0125365Y0123345D01*
X0125457Y0123310D01*
X0125547Y0123270D01*
X0125635Y0123228D01*
X0125722Y0123181D01*
X0125806Y0123132D01*
X0125889Y0123079D01*
X0125969Y0123023D01*
X0126048Y0122963D01*
X0126124Y0122901D01*
X0126197Y0122836D01*
X0126268Y0122768D01*
X0126336Y0122697D01*
X0126401Y0122624D01*
X0126463Y0122548D01*
X0126523Y0122469D01*
X0126579Y0122389D01*
X0126632Y0122306D01*
X0126681Y0122222D01*
X0126728Y0122135D01*
X0126770Y0122047D01*
X0126810Y0121957D01*
X0126845Y0121865D01*
X0126878Y0121773D01*
X0126906Y0121679D01*
X0126931Y0121584D01*
X0126952Y0121488D01*
X0126969Y0121391D01*
X0126983Y0121294D01*
X0126992Y0121196D01*
X0126998Y0121098D01*
X0127000Y0121000D01*
X0126998Y0120902D01*
X0126992Y0120804D01*
X0126983Y0120706D01*
X0126969Y0120609D01*
X0126952Y0120512D01*
X0126931Y0120416D01*
X0126906Y0120321D01*
X0126878Y0120227D01*
X0126845Y0120135D01*
X0126810Y0120043D01*
X0126770Y0119953D01*
X0126728Y0119865D01*
X0126681Y0119778D01*
X0126632Y0119694D01*
X0126579Y0119611D01*
X0126523Y0119531D01*
X0126463Y0119452D01*
X0126401Y0119376D01*
X0126336Y0119303D01*
X0126268Y0119232D01*
X0126197Y0119164D01*
X0126124Y0119099D01*
X0126048Y0119037D01*
X0125969Y0118977D01*
X0125889Y0118921D01*
X0125806Y0118868D01*
X0125722Y0118819D01*
X0125635Y0118772D01*
X0125547Y0118730D01*
X0125457Y0118690D01*
X0125365Y0118655D01*
X0125273Y0118622D01*
X0125179Y0118594D01*
X0125084Y0118569D01*
X0124988Y0118548D01*
X0124891Y0118531D01*
X0124794Y0118517D01*
X0124696Y0118508D01*
X0124598Y0118502D01*
X0124500Y0118500D01*
X0110502Y0135472D02*
X0110398Y0135687D01*
X0110289Y0135900D01*
X0110175Y0136110D01*
X0110056Y0136317D01*
X0109933Y0136522D01*
X0109805Y0136724D01*
X0109672Y0136923D01*
X0109535Y0137118D01*
X0109394Y0137311D01*
X0109248Y0137500D01*
X0110500Y0126528D02*
X0110388Y0126298D01*
X0110271Y0126071D01*
X0110149Y0125847D01*
X0110021Y0125626D01*
X0109887Y0125409D01*
X0109749Y0125194D01*
X0109605Y0124983D01*
X0109456Y0124776D01*
X0109302Y0124572D01*
X0109144Y0124372D01*
X0108980Y0124176D01*
X0108812Y0123984D01*
X0108639Y0123796D01*
X0108461Y0123612D01*
X0108280Y0123433D01*
X0108093Y0123258D01*
X0107903Y0123088D01*
X0107709Y0122923D01*
X0107510Y0122762D01*
X0107308Y0122606D01*
X0107102Y0122455D01*
X0106892Y0122309D01*
X0106679Y0122169D01*
X0106463Y0122033D01*
X0106243Y0121903D01*
X0106020Y0121778D01*
X0105795Y0121659D01*
X0105566Y0121545D01*
X0105335Y0121437D01*
X0105101Y0121334D01*
X0104865Y0121237D01*
X0104626Y0121146D01*
X0104386Y0121061D01*
X0104143Y0120981D01*
X0103898Y0120908D01*
X0103652Y0120840D01*
X0103404Y0120779D01*
X0103155Y0120724D01*
X0102905Y0120674D01*
X0102653Y0120631D01*
X0102400Y0120594D01*
X0102147Y0120563D01*
X0101893Y0120538D01*
X0101638Y0120519D01*
X0101383Y0120507D01*
X0101128Y0120501D01*
X0100872Y0120501D01*
X0100617Y0120507D01*
X0100362Y0120519D01*
X0100107Y0120538D01*
X0099853Y0120563D01*
X0099600Y0120594D01*
X0099347Y0120631D01*
X0099095Y0120674D01*
X0098845Y0120724D01*
X0098596Y0120779D01*
X0098348Y0120840D01*
X0098102Y0120908D01*
X0097857Y0120981D01*
X0097614Y0121061D01*
X0097374Y0121146D01*
X0097135Y0121237D01*
X0096899Y0121334D01*
X0096665Y0121437D01*
X0096434Y0121545D01*
X0096205Y0121659D01*
X0095980Y0121778D01*
X0095757Y0121903D01*
X0095537Y0122033D01*
X0095321Y0122169D01*
X0095108Y0122309D01*
X0094898Y0122455D01*
X0094692Y0122606D01*
X0094490Y0122762D01*
X0094291Y0122923D01*
X0094097Y0123088D01*
X0093907Y0123258D01*
X0093720Y0123433D01*
X0093539Y0123612D01*
X0093361Y0123796D01*
X0093188Y0123984D01*
X0093020Y0124176D01*
X0092856Y0124372D01*
X0092698Y0124572D01*
X0092544Y0124776D01*
X0092395Y0124983D01*
X0092251Y0125194D01*
X0092113Y0125409D01*
X0091979Y0125626D01*
X0091851Y0125847D01*
X0091729Y0126071D01*
X0091612Y0126298D01*
X0091500Y0126528D01*
X0111488Y0131500D02*
X0111473Y0131757D01*
X0111451Y0132014D01*
X0111423Y0132270D01*
X0111389Y0132525D01*
X0111348Y0132779D01*
X0111301Y0133032D01*
X0111248Y0133284D01*
X0111189Y0133535D01*
X0111124Y0133784D01*
X0111053Y0134031D01*
X0110976Y0134277D01*
X0110892Y0134521D01*
X0110803Y0134762D01*
X0110708Y0135001D01*
X0110607Y0135238D01*
X0110500Y0135472D01*
X0016000Y0156000D02*
X0016000Y0176000D01*
X0006000Y0176000D01*
X0006000Y0156000D01*
X0016000Y0156000D01*
D14*
X0018625Y0158000D02*
X0018625Y0160000D01*
X0019625Y0159000D02*
X0017625Y0159000D01*
X0018625Y0171750D02*
X0018625Y0173750D01*
X0029848Y0120695D02*
X0029364Y0120211D01*
X0029848Y0120695D02*
X0030815Y0120695D01*
X0031299Y0120211D01*
X0031299Y0119727D01*
X0029364Y0117793D01*
X0031299Y0117793D01*
X0035257Y0119244D02*
X0037192Y0119244D01*
X0041150Y0120211D02*
X0041634Y0120695D01*
X0042601Y0120695D01*
X0043085Y0120211D01*
X0043085Y0119727D01*
X0041150Y0117793D01*
X0043085Y0117793D01*
X0044097Y0118276D02*
X0046031Y0120211D01*
X0046031Y0118276D01*
X0045548Y0117793D01*
X0044580Y0117793D01*
X0044097Y0118276D01*
X0044097Y0120211D01*
X0044580Y0120695D01*
X0045548Y0120695D01*
X0046031Y0120211D01*
X0047043Y0119727D02*
X0048494Y0119727D01*
X0048978Y0119244D01*
X0048978Y0118276D01*
X0048494Y0117793D01*
X0047043Y0117793D01*
X0047043Y0116825D02*
X0047043Y0119727D01*
X0049990Y0119244D02*
X0050957Y0119244D01*
X0049990Y0117793D02*
X0049990Y0120695D01*
X0051925Y0120695D01*
X0068784Y0109969D02*
X0069267Y0110452D01*
X0070235Y0110452D01*
X0070719Y0109969D01*
X0070719Y0109485D01*
X0068784Y0107550D01*
X0070719Y0107550D01*
X0071730Y0108034D02*
X0073665Y0109969D01*
X0073665Y0108034D01*
X0073181Y0107550D01*
X0072214Y0107550D01*
X0071730Y0108034D01*
X0071730Y0109969D01*
X0072214Y0110452D01*
X0073181Y0110452D01*
X0073665Y0109969D01*
X0074677Y0109969D02*
X0075160Y0110452D01*
X0076128Y0110452D01*
X0076612Y0109969D01*
X0074677Y0108034D01*
X0075160Y0107550D01*
X0076128Y0107550D01*
X0076612Y0108034D01*
X0076612Y0109969D01*
X0077623Y0109485D02*
X0079074Y0109485D01*
X0079558Y0109001D01*
X0079558Y0107550D01*
X0080570Y0107550D02*
X0080570Y0110452D01*
X0080570Y0109001D02*
X0082505Y0109001D01*
X0082505Y0110452D02*
X0082505Y0107550D01*
X0077623Y0107550D02*
X0077623Y0109485D01*
X0074677Y0109969D02*
X0074677Y0108034D01*
X0073203Y0094452D02*
X0073203Y0091550D01*
X0075138Y0091550D01*
X0076150Y0091550D02*
X0078085Y0091550D01*
X0077117Y0091550D02*
X0077117Y0094452D01*
X0076150Y0093485D01*
X0043619Y0101610D02*
X0043002Y0100993D01*
X0041767Y0100993D01*
X0041150Y0101610D01*
X0039936Y0101610D02*
X0039318Y0100993D01*
X0038084Y0100993D01*
X0037467Y0101610D01*
X0037467Y0104078D01*
X0038084Y0104696D01*
X0039318Y0104696D01*
X0039936Y0104078D01*
X0041150Y0104078D02*
X0041767Y0104696D01*
X0043002Y0104696D01*
X0043619Y0104078D01*
X0043619Y0103461D01*
X0043002Y0102844D01*
X0043619Y0102227D01*
X0043619Y0101610D01*
X0043002Y0102844D02*
X0042384Y0102844D01*
X0111000Y0121000D02*
X0119450Y0121000D01*
X0122500Y0121000D02*
X0131000Y0121000D01*
X0175503Y0101485D02*
X0176470Y0102452D01*
X0176470Y0099550D01*
X0175503Y0099550D02*
X0177437Y0099550D01*
X0178449Y0100034D02*
X0180384Y0101969D01*
X0180384Y0100034D01*
X0179900Y0099550D01*
X0178933Y0099550D01*
X0178449Y0100034D01*
X0178449Y0101969D01*
X0178933Y0102452D01*
X0179900Y0102452D01*
X0180384Y0101969D01*
X0181396Y0102452D02*
X0181396Y0099550D01*
X0181396Y0100517D02*
X0182847Y0099550D01*
X0183851Y0099550D02*
X0184335Y0099550D01*
X0184335Y0100517D01*
X0183851Y0101001D01*
X0183851Y0101969D01*
X0184335Y0102452D01*
X0185302Y0102452D01*
X0185786Y0101969D01*
X0185786Y0101001D01*
X0185302Y0100517D01*
X0185302Y0099550D01*
X0185786Y0099550D01*
X0182847Y0101485D02*
X0181396Y0100517D01*
X0181750Y0058375D02*
X0183750Y0058375D01*
X0170000Y0058375D02*
X0168000Y0058375D01*
X0169000Y0057375D02*
X0169000Y0059375D01*
D15*
X0117200Y0098000D02*
X0117200Y0104000D01*
X0114700Y0104000D02*
X0114700Y0098000D01*
X0161000Y0101000D02*
X0169500Y0101000D01*
X0192500Y0101000D02*
X0201000Y0101000D01*
D16*
X0179500Y0120000D02*
X0179500Y0122000D01*
X0179498Y0122076D01*
X0179492Y0122152D01*
X0179483Y0122227D01*
X0179469Y0122302D01*
X0179452Y0122376D01*
X0179431Y0122449D01*
X0179407Y0122521D01*
X0179378Y0122592D01*
X0179347Y0122661D01*
X0179312Y0122728D01*
X0179273Y0122793D01*
X0179231Y0122857D01*
X0179186Y0122918D01*
X0179138Y0122977D01*
X0179087Y0123033D01*
X0179033Y0123087D01*
X0178977Y0123138D01*
X0178918Y0123186D01*
X0178857Y0123231D01*
X0178793Y0123273D01*
X0178728Y0123312D01*
X0178661Y0123347D01*
X0178592Y0123378D01*
X0178521Y0123407D01*
X0178449Y0123431D01*
X0178376Y0123452D01*
X0178302Y0123469D01*
X0178227Y0123483D01*
X0178152Y0123492D01*
X0178076Y0123498D01*
X0178000Y0123500D01*
X0164000Y0123500D01*
X0163924Y0123498D01*
X0163848Y0123492D01*
X0163773Y0123483D01*
X0163698Y0123469D01*
X0163624Y0123452D01*
X0163551Y0123431D01*
X0163479Y0123407D01*
X0163408Y0123378D01*
X0163339Y0123347D01*
X0163272Y0123312D01*
X0163207Y0123273D01*
X0163143Y0123231D01*
X0163082Y0123186D01*
X0163023Y0123138D01*
X0162967Y0123087D01*
X0162913Y0123033D01*
X0162862Y0122977D01*
X0162814Y0122918D01*
X0162769Y0122857D01*
X0162727Y0122793D01*
X0162688Y0122728D01*
X0162653Y0122661D01*
X0162622Y0122592D01*
X0162593Y0122521D01*
X0162569Y0122449D01*
X0162548Y0122376D01*
X0162531Y0122302D01*
X0162517Y0122227D01*
X0162508Y0122152D01*
X0162502Y0122076D01*
X0162500Y0122000D01*
X0162500Y0120000D01*
X0162502Y0119924D01*
X0162508Y0119848D01*
X0162517Y0119773D01*
X0162531Y0119698D01*
X0162548Y0119624D01*
X0162569Y0119551D01*
X0162593Y0119479D01*
X0162622Y0119408D01*
X0162653Y0119339D01*
X0162688Y0119272D01*
X0162727Y0119207D01*
X0162769Y0119143D01*
X0162814Y0119082D01*
X0162862Y0119023D01*
X0162913Y0118967D01*
X0162967Y0118913D01*
X0163023Y0118862D01*
X0163082Y0118814D01*
X0163143Y0118769D01*
X0163207Y0118727D01*
X0163272Y0118688D01*
X0163339Y0118653D01*
X0163408Y0118622D01*
X0163479Y0118593D01*
X0163551Y0118569D01*
X0163624Y0118548D01*
X0163698Y0118531D01*
X0163773Y0118517D01*
X0163848Y0118508D01*
X0163924Y0118502D01*
X0164000Y0118500D01*
X0178000Y0118500D01*
X0178076Y0118502D01*
X0178152Y0118508D01*
X0178227Y0118517D01*
X0178302Y0118531D01*
X0178376Y0118548D01*
X0178449Y0118569D01*
X0178521Y0118593D01*
X0178592Y0118622D01*
X0178661Y0118653D01*
X0178728Y0118688D01*
X0178793Y0118727D01*
X0178857Y0118769D01*
X0178918Y0118814D01*
X0178977Y0118862D01*
X0179033Y0118913D01*
X0179087Y0118967D01*
X0179138Y0119023D01*
X0179186Y0119082D01*
X0179231Y0119143D01*
X0179273Y0119207D01*
X0179312Y0119272D01*
X0179347Y0119339D01*
X0179378Y0119408D01*
X0179407Y0119479D01*
X0179431Y0119551D01*
X0179452Y0119624D01*
X0179469Y0119698D01*
X0179483Y0119773D01*
X0179492Y0119848D01*
X0179498Y0119924D01*
X0179500Y0120000D01*
D17*
X0181000Y0121000D02*
X0172500Y0121000D01*
X0169450Y0121000D02*
X0161000Y0121000D01*
D18*
X0170000Y0121000D03*
X0172000Y0121000D03*
X0122000Y0121000D03*
X0120000Y0121000D03*
D19*
X0121000Y0131000D02*
X0121000Y0139500D01*
X0121000Y0152500D02*
X0121000Y0161000D01*
D20*
X0121000Y0151750D03*
X0121000Y0140250D03*
D21*
X0170250Y0101000D03*
X0170250Y0101000D03*
X0191750Y0101000D03*
X0191750Y0101000D03*
M02*
