G75*
%MOIN*%
%OFA0B0*%
%FSLAX25Y25*%
%IPPOS*%
%LPD*%
%AMOC8*
5,1,8,0,0,1.08239X$1,22.5*
%
%ADD10R,0.07000X0.07000*%
%ADD11C,0.07000*%
%ADD12C,0.02400*%
D10*
X0011000Y0011000D03*
X0121000Y0011000D03*
X0121000Y0041000D03*
D11*
X0111000Y0041000D03*
X0101000Y0041000D03*
X0091000Y0031000D03*
X0081000Y0021000D03*
X0071000Y0011000D03*
X0061000Y0021000D03*
X0071000Y0031000D03*
X0081000Y0041000D03*
X0101000Y0061000D03*
X0121000Y0061000D03*
X0121000Y0081000D03*
X0101000Y0081000D03*
X0091000Y0081000D03*
X0051000Y0081000D03*
X0041000Y0081000D03*
X0031000Y0061000D03*
X0021000Y0061000D03*
X0011000Y0081000D03*
X0011000Y0041000D03*
X0021000Y0041000D03*
X0031000Y0041000D03*
X0041000Y0041000D03*
X0050843Y0031000D03*
X0041157Y0011000D03*
X0011000Y0021000D03*
X0091000Y0011000D03*
X0121000Y0021000D03*
D12*
X0111000Y0021000D01*
X0111000Y0041000D01*
X0121000Y0041000D02*
X0121000Y0061000D01*
X0121000Y0081000D01*
X0101000Y0081000D02*
X0091000Y0081000D01*
X0041000Y0081000D01*
X0051000Y0081000D01*
X0051000Y0021000D01*
X0050843Y0031000D01*
X0051000Y0021000D02*
X0061000Y0021000D01*
X0071000Y0011000D02*
X0091000Y0011000D01*
X0101000Y0011000D01*
X0121000Y0011000D01*
X0101000Y0011000D02*
X0101000Y0041000D01*
X0101000Y0061000D01*
X0091000Y0081000D02*
X0091000Y0031000D01*
X0081000Y0031000D02*
X0071000Y0031000D01*
X0081000Y0031000D02*
X0081000Y0021000D01*
X0081000Y0031000D02*
X0081000Y0041000D01*
X0041000Y0041000D02*
X0031000Y0041000D01*
X0031000Y0061000D01*
X0031000Y0081000D01*
X0011000Y0081000D01*
X0021000Y0061000D02*
X0021000Y0041000D01*
X0021157Y0010843D01*
X0041157Y0011000D01*
X0011000Y0011000D01*
X0011000Y0021000D02*
X0011000Y0041000D01*
X0041157Y0011000D02*
X0071000Y0011000D01*
M02*
