G75*
%MOIN*%
%OFA0B0*%
%FSLAX25Y25*%
%IPPOS*%
%LPD*%
%AMOC8*
5,1,8,0,0,1.08239X$1,22.5*
%
%ADD10C,0.00500*%
%ADD11C,0.00300*%
%ADD12C,0.00200*%
%ADD13C,0.00400*%
%ADD14C,0.00100*%
%ADD15R,0.01000X0.04000*%
%ADD16C,0.01000*%
%ADD17C,0.00800*%
%ADD18C,0.00600*%
%ADD19R,0.01500X0.02000*%
%ADD20C,0.01200*%
%ADD21R,0.10000X0.02000*%
%ADD22R,0.02000X0.01500*%
D10*
X0006000Y0006000D02*
X0016000Y0006000D01*
X0016000Y0026000D01*
X0006000Y0026000D01*
X0006000Y0006000D01*
X0034143Y0016640D02*
X0037352Y0013431D01*
X0038822Y0013538D01*
X0040293Y0013645D01*
X0041577Y0014928D01*
X0038230Y0018275D01*
X0039443Y0017132D02*
X0044850Y0022539D01*
X0043739Y0023784D02*
X0047086Y0020437D01*
X0048370Y0021721D01*
X0048482Y0023197D01*
X0048595Y0024674D01*
X0045227Y0028042D01*
X0045360Y0023918D02*
X0045362Y0023981D01*
X0045368Y0024043D01*
X0045378Y0024105D01*
X0045391Y0024167D01*
X0045409Y0024227D01*
X0045430Y0024286D01*
X0045455Y0024344D01*
X0045484Y0024400D01*
X0045516Y0024454D01*
X0045551Y0024506D01*
X0045589Y0024555D01*
X0045631Y0024603D01*
X0045675Y0024647D01*
X0045723Y0024689D01*
X0045772Y0024727D01*
X0045824Y0024762D01*
X0045878Y0024794D01*
X0045934Y0024823D01*
X0045992Y0024848D01*
X0046051Y0024869D01*
X0046111Y0024887D01*
X0046173Y0024900D01*
X0046235Y0024910D01*
X0046297Y0024916D01*
X0046360Y0024918D01*
X0046423Y0024916D01*
X0046485Y0024910D01*
X0046547Y0024900D01*
X0046609Y0024887D01*
X0046669Y0024869D01*
X0046728Y0024848D01*
X0046786Y0024823D01*
X0046842Y0024794D01*
X0046896Y0024762D01*
X0046948Y0024727D01*
X0046997Y0024689D01*
X0047045Y0024647D01*
X0047089Y0024603D01*
X0047131Y0024555D01*
X0047169Y0024506D01*
X0047204Y0024454D01*
X0047236Y0024400D01*
X0047265Y0024344D01*
X0047290Y0024286D01*
X0047311Y0024227D01*
X0047329Y0024167D01*
X0047342Y0024105D01*
X0047352Y0024043D01*
X0047358Y0023981D01*
X0047360Y0023918D01*
X0047358Y0023855D01*
X0047352Y0023793D01*
X0047342Y0023731D01*
X0047329Y0023669D01*
X0047311Y0023609D01*
X0047290Y0023550D01*
X0047265Y0023492D01*
X0047236Y0023436D01*
X0047204Y0023382D01*
X0047169Y0023330D01*
X0047131Y0023281D01*
X0047089Y0023233D01*
X0047045Y0023189D01*
X0046997Y0023147D01*
X0046948Y0023109D01*
X0046896Y0023074D01*
X0046842Y0023042D01*
X0046786Y0023013D01*
X0046728Y0022988D01*
X0046669Y0022967D01*
X0046609Y0022949D01*
X0046547Y0022936D01*
X0046485Y0022926D01*
X0046423Y0022920D01*
X0046360Y0022918D01*
X0046297Y0022920D01*
X0046235Y0022926D01*
X0046173Y0022936D01*
X0046111Y0022949D01*
X0046051Y0022967D01*
X0045992Y0022988D01*
X0045934Y0023013D01*
X0045878Y0023042D01*
X0045824Y0023074D01*
X0045772Y0023109D01*
X0045723Y0023147D01*
X0045675Y0023189D01*
X0045631Y0023233D01*
X0045589Y0023281D01*
X0045551Y0023330D01*
X0045516Y0023382D01*
X0045484Y0023436D01*
X0045455Y0023492D01*
X0045430Y0023550D01*
X0045409Y0023609D01*
X0045391Y0023669D01*
X0045378Y0023731D01*
X0045368Y0023793D01*
X0045362Y0023855D01*
X0045360Y0023918D01*
X0046253Y0020823D02*
X0043722Y0018292D01*
X0043721Y0018292D02*
X0040940Y0015511D01*
X0037107Y0015720D02*
X0037109Y0015783D01*
X0037115Y0015845D01*
X0037125Y0015907D01*
X0037138Y0015969D01*
X0037156Y0016029D01*
X0037177Y0016088D01*
X0037202Y0016146D01*
X0037231Y0016202D01*
X0037263Y0016256D01*
X0037298Y0016308D01*
X0037336Y0016357D01*
X0037378Y0016405D01*
X0037422Y0016449D01*
X0037470Y0016491D01*
X0037519Y0016529D01*
X0037571Y0016564D01*
X0037625Y0016596D01*
X0037681Y0016625D01*
X0037739Y0016650D01*
X0037798Y0016671D01*
X0037858Y0016689D01*
X0037920Y0016702D01*
X0037982Y0016712D01*
X0038044Y0016718D01*
X0038107Y0016720D01*
X0038170Y0016718D01*
X0038232Y0016712D01*
X0038294Y0016702D01*
X0038356Y0016689D01*
X0038416Y0016671D01*
X0038475Y0016650D01*
X0038533Y0016625D01*
X0038589Y0016596D01*
X0038643Y0016564D01*
X0038695Y0016529D01*
X0038744Y0016491D01*
X0038792Y0016449D01*
X0038836Y0016405D01*
X0038878Y0016357D01*
X0038916Y0016308D01*
X0038951Y0016256D01*
X0038983Y0016202D01*
X0039012Y0016146D01*
X0039037Y0016088D01*
X0039058Y0016029D01*
X0039076Y0015969D01*
X0039089Y0015907D01*
X0039099Y0015845D01*
X0039105Y0015783D01*
X0039107Y0015720D01*
X0039105Y0015657D01*
X0039099Y0015595D01*
X0039089Y0015533D01*
X0039076Y0015471D01*
X0039058Y0015411D01*
X0039037Y0015352D01*
X0039012Y0015294D01*
X0038983Y0015238D01*
X0038951Y0015184D01*
X0038916Y0015132D01*
X0038878Y0015083D01*
X0038836Y0015035D01*
X0038792Y0014991D01*
X0038744Y0014949D01*
X0038695Y0014911D01*
X0038643Y0014876D01*
X0038589Y0014844D01*
X0038533Y0014815D01*
X0038475Y0014790D01*
X0038416Y0014769D01*
X0038356Y0014751D01*
X0038294Y0014738D01*
X0038232Y0014728D01*
X0038170Y0014722D01*
X0038107Y0014720D01*
X0038044Y0014722D01*
X0037982Y0014728D01*
X0037920Y0014738D01*
X0037858Y0014751D01*
X0037798Y0014769D01*
X0037739Y0014790D01*
X0037681Y0014815D01*
X0037625Y0014844D01*
X0037571Y0014876D01*
X0037519Y0014911D01*
X0037470Y0014949D01*
X0037422Y0014991D01*
X0037378Y0015035D01*
X0037336Y0015083D01*
X0037298Y0015132D01*
X0037263Y0015184D01*
X0037231Y0015238D01*
X0037202Y0015294D01*
X0037177Y0015352D01*
X0037156Y0015411D01*
X0037138Y0015471D01*
X0037125Y0015533D01*
X0037115Y0015595D01*
X0037109Y0015657D01*
X0037107Y0015720D01*
X0028501Y0026988D02*
X0035009Y0033497D01*
X0033405Y0035101D02*
X0026896Y0028593D01*
X0017665Y0031000D02*
X0017669Y0031327D01*
X0017681Y0031654D01*
X0017701Y0031981D01*
X0017729Y0032307D01*
X0017765Y0032632D01*
X0017809Y0032957D01*
X0017861Y0033280D01*
X0017921Y0033602D01*
X0017989Y0033922D01*
X0018065Y0034240D01*
X0018148Y0034557D01*
X0018239Y0034871D01*
X0018338Y0035183D01*
X0018445Y0035492D01*
X0018559Y0035799D01*
X0018680Y0036103D01*
X0018809Y0036404D01*
X0018945Y0036701D01*
X0019089Y0036996D01*
X0019240Y0037286D01*
X0019397Y0037573D01*
X0019562Y0037856D01*
X0019734Y0038134D01*
X0019912Y0038409D01*
X0020098Y0038678D01*
X0020289Y0038944D01*
X0020487Y0039204D01*
X0020692Y0039460D01*
X0020903Y0039710D01*
X0021119Y0039955D01*
X0021342Y0040195D01*
X0021571Y0040429D01*
X0021805Y0040658D01*
X0022045Y0040881D01*
X0022290Y0041097D01*
X0022540Y0041308D01*
X0022796Y0041513D01*
X0023056Y0041711D01*
X0023322Y0041902D01*
X0023591Y0042088D01*
X0023866Y0042266D01*
X0024144Y0042438D01*
X0024427Y0042603D01*
X0024714Y0042760D01*
X0025004Y0042911D01*
X0025299Y0043055D01*
X0025596Y0043191D01*
X0025897Y0043320D01*
X0026201Y0043441D01*
X0026508Y0043555D01*
X0026817Y0043662D01*
X0027129Y0043761D01*
X0027443Y0043852D01*
X0027760Y0043935D01*
X0028078Y0044011D01*
X0028398Y0044079D01*
X0028720Y0044139D01*
X0029043Y0044191D01*
X0029368Y0044235D01*
X0029693Y0044271D01*
X0030019Y0044299D01*
X0030346Y0044319D01*
X0030673Y0044331D01*
X0031000Y0044335D01*
X0031327Y0044331D01*
X0031654Y0044319D01*
X0031981Y0044299D01*
X0032307Y0044271D01*
X0032632Y0044235D01*
X0032957Y0044191D01*
X0033280Y0044139D01*
X0033602Y0044079D01*
X0033922Y0044011D01*
X0034240Y0043935D01*
X0034557Y0043852D01*
X0034871Y0043761D01*
X0035183Y0043662D01*
X0035492Y0043555D01*
X0035799Y0043441D01*
X0036103Y0043320D01*
X0036404Y0043191D01*
X0036701Y0043055D01*
X0036996Y0042911D01*
X0037286Y0042760D01*
X0037573Y0042603D01*
X0037856Y0042438D01*
X0038134Y0042266D01*
X0038409Y0042088D01*
X0038678Y0041902D01*
X0038944Y0041711D01*
X0039204Y0041513D01*
X0039460Y0041308D01*
X0039710Y0041097D01*
X0039955Y0040881D01*
X0040195Y0040658D01*
X0040429Y0040429D01*
X0040658Y0040195D01*
X0040881Y0039955D01*
X0041097Y0039710D01*
X0041308Y0039460D01*
X0041513Y0039204D01*
X0041711Y0038944D01*
X0041902Y0038678D01*
X0042088Y0038409D01*
X0042266Y0038134D01*
X0042438Y0037856D01*
X0042603Y0037573D01*
X0042760Y0037286D01*
X0042911Y0036996D01*
X0043055Y0036701D01*
X0043191Y0036404D01*
X0043320Y0036103D01*
X0043441Y0035799D01*
X0043555Y0035492D01*
X0043662Y0035183D01*
X0043761Y0034871D01*
X0043852Y0034557D01*
X0043935Y0034240D01*
X0044011Y0033922D01*
X0044079Y0033602D01*
X0044139Y0033280D01*
X0044191Y0032957D01*
X0044235Y0032632D01*
X0044271Y0032307D01*
X0044299Y0031981D01*
X0044319Y0031654D01*
X0044331Y0031327D01*
X0044335Y0031000D01*
X0044331Y0030673D01*
X0044319Y0030346D01*
X0044299Y0030019D01*
X0044271Y0029693D01*
X0044235Y0029368D01*
X0044191Y0029043D01*
X0044139Y0028720D01*
X0044079Y0028398D01*
X0044011Y0028078D01*
X0043935Y0027760D01*
X0043852Y0027443D01*
X0043761Y0027129D01*
X0043662Y0026817D01*
X0043555Y0026508D01*
X0043441Y0026201D01*
X0043320Y0025897D01*
X0043191Y0025596D01*
X0043055Y0025299D01*
X0042911Y0025004D01*
X0042760Y0024714D01*
X0042603Y0024427D01*
X0042438Y0024144D01*
X0042266Y0023866D01*
X0042088Y0023591D01*
X0041902Y0023322D01*
X0041711Y0023056D01*
X0041513Y0022796D01*
X0041308Y0022540D01*
X0041097Y0022290D01*
X0040881Y0022045D01*
X0040658Y0021805D01*
X0040429Y0021571D01*
X0040195Y0021342D01*
X0039955Y0021119D01*
X0039710Y0020903D01*
X0039460Y0020692D01*
X0039204Y0020487D01*
X0038944Y0020289D01*
X0038678Y0020098D01*
X0038409Y0019912D01*
X0038134Y0019734D01*
X0037856Y0019562D01*
X0037573Y0019397D01*
X0037286Y0019240D01*
X0036996Y0019089D01*
X0036701Y0018945D01*
X0036404Y0018809D01*
X0036103Y0018680D01*
X0035799Y0018559D01*
X0035492Y0018445D01*
X0035183Y0018338D01*
X0034871Y0018239D01*
X0034557Y0018148D01*
X0034240Y0018065D01*
X0033922Y0017989D01*
X0033602Y0017921D01*
X0033280Y0017861D01*
X0032957Y0017809D01*
X0032632Y0017765D01*
X0032307Y0017729D01*
X0031981Y0017701D01*
X0031654Y0017681D01*
X0031327Y0017669D01*
X0031000Y0017665D01*
X0030673Y0017669D01*
X0030346Y0017681D01*
X0030019Y0017701D01*
X0029693Y0017729D01*
X0029368Y0017765D01*
X0029043Y0017809D01*
X0028720Y0017861D01*
X0028398Y0017921D01*
X0028078Y0017989D01*
X0027760Y0018065D01*
X0027443Y0018148D01*
X0027129Y0018239D01*
X0026817Y0018338D01*
X0026508Y0018445D01*
X0026201Y0018559D01*
X0025897Y0018680D01*
X0025596Y0018809D01*
X0025299Y0018945D01*
X0025004Y0019089D01*
X0024714Y0019240D01*
X0024427Y0019397D01*
X0024144Y0019562D01*
X0023866Y0019734D01*
X0023591Y0019912D01*
X0023322Y0020098D01*
X0023056Y0020289D01*
X0022796Y0020487D01*
X0022540Y0020692D01*
X0022290Y0020903D01*
X0022045Y0021119D01*
X0021805Y0021342D01*
X0021571Y0021571D01*
X0021342Y0021805D01*
X0021119Y0022045D01*
X0020903Y0022290D01*
X0020692Y0022540D01*
X0020487Y0022796D01*
X0020289Y0023056D01*
X0020098Y0023322D01*
X0019912Y0023591D01*
X0019734Y0023866D01*
X0019562Y0024144D01*
X0019397Y0024427D01*
X0019240Y0024714D01*
X0019089Y0025004D01*
X0018945Y0025299D01*
X0018809Y0025596D01*
X0018680Y0025897D01*
X0018559Y0026201D01*
X0018445Y0026508D01*
X0018338Y0026817D01*
X0018239Y0027129D01*
X0018148Y0027443D01*
X0018065Y0027760D01*
X0017989Y0028078D01*
X0017921Y0028398D01*
X0017861Y0028720D01*
X0017809Y0029043D01*
X0017765Y0029368D01*
X0017729Y0029693D01*
X0017701Y0030019D01*
X0017681Y0030346D01*
X0017669Y0030673D01*
X0017665Y0031000D01*
X0016556Y0031000D02*
X0016560Y0031354D01*
X0016573Y0031709D01*
X0016595Y0032063D01*
X0016626Y0032416D01*
X0016665Y0032768D01*
X0016712Y0033119D01*
X0016769Y0033469D01*
X0016834Y0033818D01*
X0016907Y0034165D01*
X0016989Y0034510D01*
X0017079Y0034852D01*
X0017178Y0035193D01*
X0017285Y0035531D01*
X0017400Y0035866D01*
X0017524Y0036198D01*
X0017655Y0036527D01*
X0017795Y0036853D01*
X0017943Y0037176D01*
X0018098Y0037494D01*
X0018262Y0037809D01*
X0018432Y0038119D01*
X0018611Y0038426D01*
X0018797Y0038728D01*
X0018990Y0039025D01*
X0019191Y0039317D01*
X0019398Y0039604D01*
X0019613Y0039886D01*
X0019835Y0040163D01*
X0020063Y0040434D01*
X0020298Y0040700D01*
X0020539Y0040960D01*
X0020787Y0041213D01*
X0021040Y0041461D01*
X0021300Y0041702D01*
X0021566Y0041937D01*
X0021837Y0042165D01*
X0022114Y0042387D01*
X0022396Y0042602D01*
X0022683Y0042809D01*
X0022975Y0043010D01*
X0023272Y0043203D01*
X0023574Y0043389D01*
X0023881Y0043568D01*
X0024191Y0043738D01*
X0024506Y0043902D01*
X0024824Y0044057D01*
X0025147Y0044205D01*
X0025473Y0044345D01*
X0025802Y0044476D01*
X0026134Y0044600D01*
X0026469Y0044715D01*
X0026807Y0044822D01*
X0027148Y0044921D01*
X0027490Y0045011D01*
X0027835Y0045093D01*
X0028182Y0045166D01*
X0028531Y0045231D01*
X0028881Y0045288D01*
X0029232Y0045335D01*
X0029584Y0045374D01*
X0029937Y0045405D01*
X0030291Y0045427D01*
X0030646Y0045440D01*
X0031000Y0045444D01*
X0031354Y0045440D01*
X0031709Y0045427D01*
X0032063Y0045405D01*
X0032416Y0045374D01*
X0032768Y0045335D01*
X0033119Y0045288D01*
X0033469Y0045231D01*
X0033818Y0045166D01*
X0034165Y0045093D01*
X0034510Y0045011D01*
X0034852Y0044921D01*
X0035193Y0044822D01*
X0035531Y0044715D01*
X0035866Y0044600D01*
X0036198Y0044476D01*
X0036527Y0044345D01*
X0036853Y0044205D01*
X0037176Y0044057D01*
X0037494Y0043902D01*
X0037809Y0043738D01*
X0038119Y0043568D01*
X0038426Y0043389D01*
X0038728Y0043203D01*
X0039025Y0043010D01*
X0039317Y0042809D01*
X0039604Y0042602D01*
X0039886Y0042387D01*
X0040163Y0042165D01*
X0040434Y0041937D01*
X0040700Y0041702D01*
X0040960Y0041461D01*
X0041213Y0041213D01*
X0041461Y0040960D01*
X0041702Y0040700D01*
X0041937Y0040434D01*
X0042165Y0040163D01*
X0042387Y0039886D01*
X0042602Y0039604D01*
X0042809Y0039317D01*
X0043010Y0039025D01*
X0043203Y0038728D01*
X0043389Y0038426D01*
X0043568Y0038119D01*
X0043738Y0037809D01*
X0043902Y0037494D01*
X0044057Y0037176D01*
X0044205Y0036853D01*
X0044345Y0036527D01*
X0044476Y0036198D01*
X0044600Y0035866D01*
X0044715Y0035531D01*
X0044822Y0035193D01*
X0044921Y0034852D01*
X0045011Y0034510D01*
X0045093Y0034165D01*
X0045166Y0033818D01*
X0045231Y0033469D01*
X0045288Y0033119D01*
X0045335Y0032768D01*
X0045374Y0032416D01*
X0045405Y0032063D01*
X0045427Y0031709D01*
X0045440Y0031354D01*
X0045444Y0031000D01*
X0045440Y0030646D01*
X0045427Y0030291D01*
X0045405Y0029937D01*
X0045374Y0029584D01*
X0045335Y0029232D01*
X0045288Y0028881D01*
X0045231Y0028531D01*
X0045166Y0028182D01*
X0045093Y0027835D01*
X0045011Y0027490D01*
X0044921Y0027148D01*
X0044822Y0026807D01*
X0044715Y0026469D01*
X0044600Y0026134D01*
X0044476Y0025802D01*
X0044345Y0025473D01*
X0044205Y0025147D01*
X0044057Y0024824D01*
X0043902Y0024506D01*
X0043738Y0024191D01*
X0043568Y0023881D01*
X0043389Y0023574D01*
X0043203Y0023272D01*
X0043010Y0022975D01*
X0042809Y0022683D01*
X0042602Y0022396D01*
X0042387Y0022114D01*
X0042165Y0021837D01*
X0041937Y0021566D01*
X0041702Y0021300D01*
X0041461Y0021040D01*
X0041213Y0020787D01*
X0040960Y0020539D01*
X0040700Y0020298D01*
X0040434Y0020063D01*
X0040163Y0019835D01*
X0039886Y0019613D01*
X0039604Y0019398D01*
X0039317Y0019191D01*
X0039025Y0018990D01*
X0038728Y0018797D01*
X0038426Y0018611D01*
X0038119Y0018432D01*
X0037809Y0018262D01*
X0037494Y0018098D01*
X0037176Y0017943D01*
X0036853Y0017795D01*
X0036527Y0017655D01*
X0036198Y0017524D01*
X0035866Y0017400D01*
X0035531Y0017285D01*
X0035193Y0017178D01*
X0034852Y0017079D01*
X0034510Y0016989D01*
X0034165Y0016907D01*
X0033818Y0016834D01*
X0033469Y0016769D01*
X0033119Y0016712D01*
X0032768Y0016665D01*
X0032416Y0016626D01*
X0032063Y0016595D01*
X0031709Y0016573D01*
X0031354Y0016560D01*
X0031000Y0016556D01*
X0030646Y0016560D01*
X0030291Y0016573D01*
X0029937Y0016595D01*
X0029584Y0016626D01*
X0029232Y0016665D01*
X0028881Y0016712D01*
X0028531Y0016769D01*
X0028182Y0016834D01*
X0027835Y0016907D01*
X0027490Y0016989D01*
X0027148Y0017079D01*
X0026807Y0017178D01*
X0026469Y0017285D01*
X0026134Y0017400D01*
X0025802Y0017524D01*
X0025473Y0017655D01*
X0025147Y0017795D01*
X0024824Y0017943D01*
X0024506Y0018098D01*
X0024191Y0018262D01*
X0023881Y0018432D01*
X0023574Y0018611D01*
X0023272Y0018797D01*
X0022975Y0018990D01*
X0022683Y0019191D01*
X0022396Y0019398D01*
X0022114Y0019613D01*
X0021837Y0019835D01*
X0021566Y0020063D01*
X0021300Y0020298D01*
X0021040Y0020539D01*
X0020787Y0020787D01*
X0020539Y0021040D01*
X0020298Y0021300D01*
X0020063Y0021566D01*
X0019835Y0021837D01*
X0019613Y0022114D01*
X0019398Y0022396D01*
X0019191Y0022683D01*
X0018990Y0022975D01*
X0018797Y0023272D01*
X0018611Y0023574D01*
X0018432Y0023881D01*
X0018262Y0024191D01*
X0018098Y0024506D01*
X0017943Y0024824D01*
X0017795Y0025147D01*
X0017655Y0025473D01*
X0017524Y0025802D01*
X0017400Y0026134D01*
X0017285Y0026469D01*
X0017178Y0026807D01*
X0017079Y0027148D01*
X0016989Y0027490D01*
X0016907Y0027835D01*
X0016834Y0028182D01*
X0016769Y0028531D01*
X0016712Y0028881D01*
X0016665Y0029232D01*
X0016626Y0029584D01*
X0016595Y0029937D01*
X0016573Y0030291D01*
X0016560Y0030646D01*
X0016556Y0031000D01*
X0026200Y0031000D02*
X0026202Y0031138D01*
X0026208Y0031277D01*
X0026218Y0031415D01*
X0026232Y0031552D01*
X0026250Y0031689D01*
X0026272Y0031826D01*
X0026297Y0031962D01*
X0026327Y0032097D01*
X0026361Y0032231D01*
X0026398Y0032364D01*
X0026439Y0032496D01*
X0026484Y0032627D01*
X0026533Y0032757D01*
X0026585Y0032885D01*
X0026642Y0033011D01*
X0026701Y0033136D01*
X0026765Y0033259D01*
X0026832Y0033380D01*
X0026902Y0033499D01*
X0026976Y0033616D01*
X0027053Y0033731D01*
X0027133Y0033844D01*
X0027217Y0033954D01*
X0027303Y0034062D01*
X0027393Y0034167D01*
X0027486Y0034270D01*
X0027582Y0034370D01*
X0027680Y0034467D01*
X0027781Y0034561D01*
X0027885Y0034652D01*
X0027992Y0034740D01*
X0028101Y0034826D01*
X0028212Y0034908D01*
X0028326Y0034986D01*
X0028442Y0035062D01*
X0028560Y0035134D01*
X0028680Y0035202D01*
X0028802Y0035267D01*
X0028926Y0035329D01*
X0029052Y0035387D01*
X0029179Y0035441D01*
X0029308Y0035492D01*
X0029438Y0035539D01*
X0029569Y0035582D01*
X0029702Y0035621D01*
X0029836Y0035657D01*
X0029970Y0035688D01*
X0030106Y0035716D01*
X0030242Y0035740D01*
X0030379Y0035760D01*
X0030517Y0035776D01*
X0030654Y0035788D01*
X0030793Y0035796D01*
X0030931Y0035800D01*
X0031069Y0035800D01*
X0031207Y0035796D01*
X0031346Y0035788D01*
X0031483Y0035776D01*
X0031621Y0035760D01*
X0031758Y0035740D01*
X0031894Y0035716D01*
X0032030Y0035688D01*
X0032164Y0035657D01*
X0032298Y0035621D01*
X0032431Y0035582D01*
X0032562Y0035539D01*
X0032692Y0035492D01*
X0032821Y0035441D01*
X0032948Y0035387D01*
X0033074Y0035329D01*
X0033198Y0035267D01*
X0033320Y0035202D01*
X0033440Y0035134D01*
X0033558Y0035062D01*
X0033674Y0034986D01*
X0033788Y0034908D01*
X0033899Y0034826D01*
X0034008Y0034740D01*
X0034115Y0034652D01*
X0034219Y0034561D01*
X0034320Y0034467D01*
X0034418Y0034370D01*
X0034514Y0034270D01*
X0034607Y0034167D01*
X0034697Y0034062D01*
X0034783Y0033954D01*
X0034867Y0033844D01*
X0034947Y0033731D01*
X0035024Y0033616D01*
X0035098Y0033499D01*
X0035168Y0033380D01*
X0035235Y0033259D01*
X0035299Y0033136D01*
X0035358Y0033011D01*
X0035415Y0032885D01*
X0035467Y0032757D01*
X0035516Y0032627D01*
X0035561Y0032496D01*
X0035602Y0032364D01*
X0035639Y0032231D01*
X0035673Y0032097D01*
X0035703Y0031962D01*
X0035728Y0031826D01*
X0035750Y0031689D01*
X0035768Y0031552D01*
X0035782Y0031415D01*
X0035792Y0031277D01*
X0035798Y0031138D01*
X0035800Y0031000D01*
X0035798Y0030862D01*
X0035792Y0030723D01*
X0035782Y0030585D01*
X0035768Y0030448D01*
X0035750Y0030311D01*
X0035728Y0030174D01*
X0035703Y0030038D01*
X0035673Y0029903D01*
X0035639Y0029769D01*
X0035602Y0029636D01*
X0035561Y0029504D01*
X0035516Y0029373D01*
X0035467Y0029243D01*
X0035415Y0029115D01*
X0035358Y0028989D01*
X0035299Y0028864D01*
X0035235Y0028741D01*
X0035168Y0028620D01*
X0035098Y0028501D01*
X0035024Y0028384D01*
X0034947Y0028269D01*
X0034867Y0028156D01*
X0034783Y0028046D01*
X0034697Y0027938D01*
X0034607Y0027833D01*
X0034514Y0027730D01*
X0034418Y0027630D01*
X0034320Y0027533D01*
X0034219Y0027439D01*
X0034115Y0027348D01*
X0034008Y0027260D01*
X0033899Y0027174D01*
X0033788Y0027092D01*
X0033674Y0027014D01*
X0033558Y0026938D01*
X0033440Y0026866D01*
X0033320Y0026798D01*
X0033198Y0026733D01*
X0033074Y0026671D01*
X0032948Y0026613D01*
X0032821Y0026559D01*
X0032692Y0026508D01*
X0032562Y0026461D01*
X0032431Y0026418D01*
X0032298Y0026379D01*
X0032164Y0026343D01*
X0032030Y0026312D01*
X0031894Y0026284D01*
X0031758Y0026260D01*
X0031621Y0026240D01*
X0031483Y0026224D01*
X0031346Y0026212D01*
X0031207Y0026204D01*
X0031069Y0026200D01*
X0030931Y0026200D01*
X0030793Y0026204D01*
X0030654Y0026212D01*
X0030517Y0026224D01*
X0030379Y0026240D01*
X0030242Y0026260D01*
X0030106Y0026284D01*
X0029970Y0026312D01*
X0029836Y0026343D01*
X0029702Y0026379D01*
X0029569Y0026418D01*
X0029438Y0026461D01*
X0029308Y0026508D01*
X0029179Y0026559D01*
X0029052Y0026613D01*
X0028926Y0026671D01*
X0028802Y0026733D01*
X0028680Y0026798D01*
X0028560Y0026866D01*
X0028442Y0026938D01*
X0028326Y0027014D01*
X0028212Y0027092D01*
X0028101Y0027174D01*
X0027992Y0027260D01*
X0027885Y0027348D01*
X0027781Y0027439D01*
X0027680Y0027533D01*
X0027582Y0027630D01*
X0027486Y0027730D01*
X0027393Y0027833D01*
X0027303Y0027938D01*
X0027217Y0028046D01*
X0027133Y0028156D01*
X0027053Y0028269D01*
X0026976Y0028384D01*
X0026902Y0028501D01*
X0026832Y0028620D01*
X0026765Y0028741D01*
X0026701Y0028864D01*
X0026642Y0028989D01*
X0026585Y0029115D01*
X0026533Y0029243D01*
X0026484Y0029373D01*
X0026439Y0029504D01*
X0026398Y0029636D01*
X0026361Y0029769D01*
X0026327Y0029903D01*
X0026297Y0030038D01*
X0026272Y0030174D01*
X0026250Y0030311D01*
X0026232Y0030448D01*
X0026218Y0030585D01*
X0026208Y0030723D01*
X0026202Y0030862D01*
X0026200Y0031000D01*
X0027500Y0048500D02*
X0034500Y0048500D01*
X0034598Y0048502D01*
X0034696Y0048508D01*
X0034794Y0048517D01*
X0034891Y0048531D01*
X0034988Y0048548D01*
X0035084Y0048569D01*
X0035179Y0048594D01*
X0035273Y0048622D01*
X0035365Y0048655D01*
X0035457Y0048690D01*
X0035547Y0048730D01*
X0035635Y0048772D01*
X0035722Y0048819D01*
X0035806Y0048868D01*
X0035889Y0048921D01*
X0035969Y0048977D01*
X0036048Y0049037D01*
X0036124Y0049099D01*
X0036197Y0049164D01*
X0036268Y0049232D01*
X0036336Y0049303D01*
X0036401Y0049376D01*
X0036463Y0049452D01*
X0036523Y0049531D01*
X0036579Y0049611D01*
X0036632Y0049694D01*
X0036681Y0049778D01*
X0036728Y0049865D01*
X0036770Y0049953D01*
X0036810Y0050043D01*
X0036845Y0050135D01*
X0036878Y0050227D01*
X0036906Y0050321D01*
X0036931Y0050416D01*
X0036952Y0050512D01*
X0036969Y0050609D01*
X0036983Y0050706D01*
X0036992Y0050804D01*
X0036998Y0050902D01*
X0037000Y0051000D01*
X0036998Y0051098D01*
X0036992Y0051196D01*
X0036983Y0051294D01*
X0036969Y0051391D01*
X0036952Y0051488D01*
X0036931Y0051584D01*
X0036906Y0051679D01*
X0036878Y0051773D01*
X0036845Y0051865D01*
X0036810Y0051957D01*
X0036770Y0052047D01*
X0036728Y0052135D01*
X0036681Y0052222D01*
X0036632Y0052306D01*
X0036579Y0052389D01*
X0036523Y0052469D01*
X0036463Y0052548D01*
X0036401Y0052624D01*
X0036336Y0052697D01*
X0036268Y0052768D01*
X0036197Y0052836D01*
X0036124Y0052901D01*
X0036048Y0052963D01*
X0035969Y0053023D01*
X0035889Y0053079D01*
X0035806Y0053132D01*
X0035722Y0053181D01*
X0035635Y0053228D01*
X0035547Y0053270D01*
X0035457Y0053310D01*
X0035365Y0053345D01*
X0035273Y0053378D01*
X0035179Y0053406D01*
X0035084Y0053431D01*
X0034988Y0053452D01*
X0034891Y0053469D01*
X0034794Y0053483D01*
X0034696Y0053492D01*
X0034598Y0053498D01*
X0034500Y0053500D01*
X0027500Y0053500D01*
X0027402Y0053498D01*
X0027304Y0053492D01*
X0027206Y0053483D01*
X0027109Y0053469D01*
X0027012Y0053452D01*
X0026916Y0053431D01*
X0026821Y0053406D01*
X0026727Y0053378D01*
X0026635Y0053345D01*
X0026543Y0053310D01*
X0026453Y0053270D01*
X0026365Y0053228D01*
X0026278Y0053181D01*
X0026194Y0053132D01*
X0026111Y0053079D01*
X0026031Y0053023D01*
X0025952Y0052963D01*
X0025876Y0052901D01*
X0025803Y0052836D01*
X0025732Y0052768D01*
X0025664Y0052697D01*
X0025599Y0052624D01*
X0025537Y0052548D01*
X0025477Y0052469D01*
X0025421Y0052389D01*
X0025368Y0052306D01*
X0025319Y0052222D01*
X0025272Y0052135D01*
X0025230Y0052047D01*
X0025190Y0051957D01*
X0025155Y0051865D01*
X0025122Y0051773D01*
X0025094Y0051679D01*
X0025069Y0051584D01*
X0025048Y0051488D01*
X0025031Y0051391D01*
X0025017Y0051294D01*
X0025008Y0051196D01*
X0025002Y0051098D01*
X0025000Y0051000D01*
X0025002Y0050902D01*
X0025008Y0050804D01*
X0025017Y0050706D01*
X0025031Y0050609D01*
X0025048Y0050512D01*
X0025069Y0050416D01*
X0025094Y0050321D01*
X0025122Y0050227D01*
X0025155Y0050135D01*
X0025190Y0050043D01*
X0025230Y0049953D01*
X0025272Y0049865D01*
X0025319Y0049778D01*
X0025368Y0049694D01*
X0025421Y0049611D01*
X0025477Y0049531D01*
X0025537Y0049452D01*
X0025599Y0049376D01*
X0025664Y0049303D01*
X0025732Y0049232D01*
X0025803Y0049164D01*
X0025876Y0049099D01*
X0025952Y0049037D01*
X0026031Y0048977D01*
X0026111Y0048921D01*
X0026194Y0048868D01*
X0026278Y0048819D01*
X0026365Y0048772D01*
X0026453Y0048730D01*
X0026543Y0048690D01*
X0026635Y0048655D01*
X0026727Y0048622D01*
X0026821Y0048594D01*
X0026916Y0048569D01*
X0027012Y0048548D01*
X0027109Y0048531D01*
X0027206Y0048517D01*
X0027304Y0048508D01*
X0027402Y0048502D01*
X0027500Y0048500D01*
X0025000Y0051000D02*
X0025002Y0051098D01*
X0025008Y0051196D01*
X0025017Y0051294D01*
X0025031Y0051391D01*
X0025048Y0051488D01*
X0025069Y0051584D01*
X0025094Y0051679D01*
X0025122Y0051773D01*
X0025155Y0051865D01*
X0025190Y0051957D01*
X0025230Y0052047D01*
X0025272Y0052135D01*
X0025319Y0052222D01*
X0025368Y0052306D01*
X0025421Y0052389D01*
X0025477Y0052469D01*
X0025537Y0052548D01*
X0025599Y0052624D01*
X0025664Y0052697D01*
X0025732Y0052768D01*
X0025803Y0052836D01*
X0025876Y0052901D01*
X0025952Y0052963D01*
X0026031Y0053023D01*
X0026111Y0053079D01*
X0026194Y0053132D01*
X0026278Y0053181D01*
X0026365Y0053228D01*
X0026453Y0053270D01*
X0026543Y0053310D01*
X0026635Y0053345D01*
X0026727Y0053378D01*
X0026821Y0053406D01*
X0026916Y0053431D01*
X0027012Y0053452D01*
X0027109Y0053469D01*
X0027206Y0053483D01*
X0027304Y0053492D01*
X0027402Y0053498D01*
X0027500Y0053500D01*
X0061500Y0031488D02*
X0061500Y0010512D01*
X0067500Y0012752D02*
X0067500Y0029248D01*
X0067303Y0029400D01*
X0067101Y0029547D01*
X0066897Y0029690D01*
X0066689Y0029827D01*
X0066478Y0029960D01*
X0066263Y0030088D01*
X0066046Y0030210D01*
X0065826Y0030327D01*
X0065603Y0030439D01*
X0065378Y0030546D01*
X0061500Y0031488D02*
X0061244Y0031497D01*
X0060988Y0031500D01*
X0060732Y0031497D01*
X0060476Y0031487D01*
X0060221Y0031471D01*
X0059966Y0031449D01*
X0059711Y0031421D01*
X0059458Y0031386D01*
X0059205Y0031345D01*
X0058953Y0031299D01*
X0058703Y0031246D01*
X0058454Y0031187D01*
X0058206Y0031121D01*
X0057960Y0031050D01*
X0057716Y0030973D01*
X0057474Y0030890D01*
X0057234Y0030801D01*
X0056996Y0030707D01*
X0056761Y0030606D01*
X0056528Y0030500D01*
X0061500Y0031488D02*
X0061757Y0031473D01*
X0062014Y0031451D01*
X0062270Y0031423D01*
X0062525Y0031389D01*
X0062779Y0031348D01*
X0063032Y0031301D01*
X0063284Y0031248D01*
X0063535Y0031189D01*
X0063784Y0031124D01*
X0064031Y0031053D01*
X0064277Y0030976D01*
X0064521Y0030892D01*
X0064762Y0030803D01*
X0065001Y0030708D01*
X0065238Y0030607D01*
X0065472Y0030500D01*
X0061500Y0010512D02*
X0061244Y0010503D01*
X0060988Y0010500D01*
X0060732Y0010503D01*
X0060476Y0010513D01*
X0060221Y0010529D01*
X0059966Y0010551D01*
X0059711Y0010579D01*
X0059458Y0010614D01*
X0059205Y0010655D01*
X0058953Y0010701D01*
X0058703Y0010754D01*
X0058454Y0010813D01*
X0058206Y0010879D01*
X0057960Y0010950D01*
X0057716Y0011027D01*
X0057474Y0011110D01*
X0057234Y0011199D01*
X0056996Y0011293D01*
X0056761Y0011394D01*
X0056528Y0011500D01*
X0065472Y0011498D02*
X0065687Y0011602D01*
X0065900Y0011711D01*
X0066110Y0011825D01*
X0066317Y0011944D01*
X0066522Y0012067D01*
X0066724Y0012195D01*
X0066923Y0012328D01*
X0067118Y0012465D01*
X0067311Y0012606D01*
X0067500Y0012752D01*
X0056528Y0011500D02*
X0056298Y0011612D01*
X0056071Y0011729D01*
X0055847Y0011851D01*
X0055626Y0011979D01*
X0055409Y0012113D01*
X0055194Y0012251D01*
X0054983Y0012395D01*
X0054776Y0012544D01*
X0054572Y0012698D01*
X0054372Y0012856D01*
X0054176Y0013020D01*
X0053984Y0013188D01*
X0053796Y0013361D01*
X0053612Y0013539D01*
X0053433Y0013720D01*
X0053258Y0013907D01*
X0053088Y0014097D01*
X0052923Y0014291D01*
X0052762Y0014490D01*
X0052606Y0014692D01*
X0052455Y0014898D01*
X0052309Y0015108D01*
X0052169Y0015321D01*
X0052033Y0015537D01*
X0051903Y0015757D01*
X0051778Y0015980D01*
X0051659Y0016205D01*
X0051545Y0016434D01*
X0051437Y0016665D01*
X0051334Y0016899D01*
X0051237Y0017135D01*
X0051146Y0017374D01*
X0051061Y0017614D01*
X0050981Y0017857D01*
X0050908Y0018102D01*
X0050840Y0018348D01*
X0050779Y0018596D01*
X0050724Y0018845D01*
X0050674Y0019095D01*
X0050631Y0019347D01*
X0050594Y0019600D01*
X0050563Y0019853D01*
X0050538Y0020107D01*
X0050519Y0020362D01*
X0050507Y0020617D01*
X0050501Y0020872D01*
X0050501Y0021128D01*
X0050507Y0021383D01*
X0050519Y0021638D01*
X0050538Y0021893D01*
X0050563Y0022147D01*
X0050594Y0022400D01*
X0050631Y0022653D01*
X0050674Y0022905D01*
X0050724Y0023155D01*
X0050779Y0023404D01*
X0050840Y0023652D01*
X0050908Y0023898D01*
X0050981Y0024143D01*
X0051061Y0024386D01*
X0051146Y0024626D01*
X0051237Y0024865D01*
X0051334Y0025101D01*
X0051437Y0025335D01*
X0051545Y0025566D01*
X0051659Y0025795D01*
X0051778Y0026020D01*
X0051903Y0026243D01*
X0052033Y0026463D01*
X0052169Y0026679D01*
X0052309Y0026892D01*
X0052455Y0027102D01*
X0052606Y0027308D01*
X0052762Y0027510D01*
X0052923Y0027709D01*
X0053088Y0027903D01*
X0053258Y0028093D01*
X0053433Y0028280D01*
X0053612Y0028461D01*
X0053796Y0028639D01*
X0053984Y0028812D01*
X0054176Y0028980D01*
X0054372Y0029144D01*
X0054572Y0029302D01*
X0054776Y0029456D01*
X0054983Y0029605D01*
X0055194Y0029749D01*
X0055409Y0029887D01*
X0055626Y0030021D01*
X0055847Y0030149D01*
X0056071Y0030271D01*
X0056298Y0030388D01*
X0056528Y0030500D01*
X0061500Y0010512D02*
X0061757Y0010527D01*
X0062014Y0010549D01*
X0062270Y0010577D01*
X0062525Y0010611D01*
X0062779Y0010652D01*
X0063032Y0010699D01*
X0063284Y0010752D01*
X0063535Y0010811D01*
X0063784Y0010876D01*
X0064031Y0010947D01*
X0064277Y0011024D01*
X0064521Y0011108D01*
X0064762Y0011197D01*
X0065001Y0011292D01*
X0065238Y0011393D01*
X0065472Y0011500D01*
X0095000Y0011000D02*
X0095002Y0011098D01*
X0095008Y0011196D01*
X0095017Y0011294D01*
X0095031Y0011391D01*
X0095048Y0011488D01*
X0095069Y0011584D01*
X0095094Y0011679D01*
X0095122Y0011773D01*
X0095155Y0011865D01*
X0095190Y0011957D01*
X0095230Y0012047D01*
X0095272Y0012135D01*
X0095319Y0012222D01*
X0095368Y0012306D01*
X0095421Y0012389D01*
X0095477Y0012469D01*
X0095537Y0012548D01*
X0095599Y0012624D01*
X0095664Y0012697D01*
X0095732Y0012768D01*
X0095803Y0012836D01*
X0095876Y0012901D01*
X0095952Y0012963D01*
X0096031Y0013023D01*
X0096111Y0013079D01*
X0096194Y0013132D01*
X0096278Y0013181D01*
X0096365Y0013228D01*
X0096453Y0013270D01*
X0096543Y0013310D01*
X0096635Y0013345D01*
X0096727Y0013378D01*
X0096821Y0013406D01*
X0096916Y0013431D01*
X0097012Y0013452D01*
X0097109Y0013469D01*
X0097206Y0013483D01*
X0097304Y0013492D01*
X0097402Y0013498D01*
X0097500Y0013500D01*
X0104500Y0013500D01*
X0107000Y0011000D02*
X0106998Y0010902D01*
X0106992Y0010804D01*
X0106983Y0010706D01*
X0106969Y0010609D01*
X0106952Y0010512D01*
X0106931Y0010416D01*
X0106906Y0010321D01*
X0106878Y0010227D01*
X0106845Y0010135D01*
X0106810Y0010043D01*
X0106770Y0009953D01*
X0106728Y0009865D01*
X0106681Y0009778D01*
X0106632Y0009694D01*
X0106579Y0009611D01*
X0106523Y0009531D01*
X0106463Y0009452D01*
X0106401Y0009376D01*
X0106336Y0009303D01*
X0106268Y0009232D01*
X0106197Y0009164D01*
X0106124Y0009099D01*
X0106048Y0009037D01*
X0105969Y0008977D01*
X0105889Y0008921D01*
X0105806Y0008868D01*
X0105722Y0008819D01*
X0105635Y0008772D01*
X0105547Y0008730D01*
X0105457Y0008690D01*
X0105365Y0008655D01*
X0105273Y0008622D01*
X0105179Y0008594D01*
X0105084Y0008569D01*
X0104988Y0008548D01*
X0104891Y0008531D01*
X0104794Y0008517D01*
X0104696Y0008508D01*
X0104598Y0008502D01*
X0104500Y0008500D01*
X0097500Y0008500D01*
X0097402Y0008502D01*
X0097304Y0008508D01*
X0097206Y0008517D01*
X0097109Y0008531D01*
X0097012Y0008548D01*
X0096916Y0008569D01*
X0096821Y0008594D01*
X0096727Y0008622D01*
X0096635Y0008655D01*
X0096543Y0008690D01*
X0096453Y0008730D01*
X0096365Y0008772D01*
X0096278Y0008819D01*
X0096194Y0008868D01*
X0096111Y0008921D01*
X0096031Y0008977D01*
X0095952Y0009037D01*
X0095876Y0009099D01*
X0095803Y0009164D01*
X0095732Y0009232D01*
X0095664Y0009303D01*
X0095599Y0009376D01*
X0095537Y0009452D01*
X0095477Y0009531D01*
X0095421Y0009611D01*
X0095368Y0009694D01*
X0095319Y0009778D01*
X0095272Y0009865D01*
X0095230Y0009953D01*
X0095190Y0010043D01*
X0095155Y0010135D01*
X0095122Y0010227D01*
X0095094Y0010321D01*
X0095069Y0010416D01*
X0095048Y0010512D01*
X0095031Y0010609D01*
X0095017Y0010706D01*
X0095008Y0010804D01*
X0095002Y0010902D01*
X0095000Y0011000D01*
X0104500Y0013500D02*
X0104598Y0013498D01*
X0104696Y0013492D01*
X0104794Y0013483D01*
X0104891Y0013469D01*
X0104988Y0013452D01*
X0105084Y0013431D01*
X0105179Y0013406D01*
X0105273Y0013378D01*
X0105365Y0013345D01*
X0105457Y0013310D01*
X0105547Y0013270D01*
X0105635Y0013228D01*
X0105722Y0013181D01*
X0105806Y0013132D01*
X0105889Y0013079D01*
X0105969Y0013023D01*
X0106048Y0012963D01*
X0106124Y0012901D01*
X0106197Y0012836D01*
X0106268Y0012768D01*
X0106336Y0012697D01*
X0106401Y0012624D01*
X0106463Y0012548D01*
X0106523Y0012469D01*
X0106579Y0012389D01*
X0106632Y0012306D01*
X0106681Y0012222D01*
X0106728Y0012135D01*
X0106770Y0012047D01*
X0106810Y0011957D01*
X0106845Y0011865D01*
X0106878Y0011773D01*
X0106906Y0011679D01*
X0106931Y0011584D01*
X0106952Y0011488D01*
X0106969Y0011391D01*
X0106983Y0011294D01*
X0106992Y0011196D01*
X0106998Y0011098D01*
X0107000Y0011000D01*
X0106998Y0010902D01*
X0106992Y0010804D01*
X0106983Y0010706D01*
X0106969Y0010609D01*
X0106952Y0010512D01*
X0106931Y0010416D01*
X0106906Y0010321D01*
X0106878Y0010227D01*
X0106845Y0010135D01*
X0106810Y0010043D01*
X0106770Y0009953D01*
X0106728Y0009865D01*
X0106681Y0009778D01*
X0106632Y0009694D01*
X0106579Y0009611D01*
X0106523Y0009531D01*
X0106463Y0009452D01*
X0106401Y0009376D01*
X0106336Y0009303D01*
X0106268Y0009232D01*
X0106197Y0009164D01*
X0106124Y0009099D01*
X0106048Y0009037D01*
X0105969Y0008977D01*
X0105889Y0008921D01*
X0105806Y0008868D01*
X0105722Y0008819D01*
X0105635Y0008772D01*
X0105547Y0008730D01*
X0105457Y0008690D01*
X0105365Y0008655D01*
X0105273Y0008622D01*
X0105179Y0008594D01*
X0105084Y0008569D01*
X0104988Y0008548D01*
X0104891Y0008531D01*
X0104794Y0008517D01*
X0104696Y0008508D01*
X0104598Y0008502D01*
X0104500Y0008500D01*
X0090502Y0045472D02*
X0090398Y0045687D01*
X0090289Y0045900D01*
X0090175Y0046110D01*
X0090056Y0046317D01*
X0089933Y0046522D01*
X0089805Y0046724D01*
X0089672Y0046923D01*
X0089535Y0047118D01*
X0089394Y0047311D01*
X0089248Y0047500D01*
X0072752Y0047500D01*
X0070512Y0041500D02*
X0091488Y0041500D01*
X0091497Y0041244D01*
X0091500Y0040988D01*
X0091497Y0040732D01*
X0091487Y0040476D01*
X0091471Y0040221D01*
X0091449Y0039966D01*
X0091421Y0039711D01*
X0091386Y0039458D01*
X0091345Y0039205D01*
X0091299Y0038953D01*
X0091246Y0038703D01*
X0091187Y0038454D01*
X0091121Y0038206D01*
X0091050Y0037960D01*
X0090973Y0037716D01*
X0090890Y0037474D01*
X0090801Y0037234D01*
X0090707Y0036996D01*
X0090606Y0036761D01*
X0090500Y0036528D01*
X0091488Y0041500D02*
X0091473Y0041757D01*
X0091451Y0042014D01*
X0091423Y0042270D01*
X0091389Y0042525D01*
X0091348Y0042779D01*
X0091301Y0043032D01*
X0091248Y0043284D01*
X0091189Y0043535D01*
X0091124Y0043784D01*
X0091053Y0044031D01*
X0090976Y0044277D01*
X0090892Y0044521D01*
X0090803Y0044762D01*
X0090708Y0045001D01*
X0090607Y0045238D01*
X0090500Y0045472D01*
X0070512Y0041500D02*
X0070503Y0041244D01*
X0070500Y0040988D01*
X0070503Y0040732D01*
X0070513Y0040476D01*
X0070529Y0040221D01*
X0070551Y0039966D01*
X0070579Y0039711D01*
X0070614Y0039458D01*
X0070655Y0039205D01*
X0070701Y0038953D01*
X0070754Y0038703D01*
X0070813Y0038454D01*
X0070879Y0038206D01*
X0070950Y0037960D01*
X0071027Y0037716D01*
X0071110Y0037474D01*
X0071199Y0037234D01*
X0071293Y0036996D01*
X0071394Y0036761D01*
X0071500Y0036528D01*
X0071454Y0045378D02*
X0071561Y0045603D01*
X0071673Y0045826D01*
X0071790Y0046046D01*
X0071912Y0046263D01*
X0072040Y0046478D01*
X0072173Y0046689D01*
X0072310Y0046897D01*
X0072453Y0047101D01*
X0072600Y0047303D01*
X0072752Y0047500D01*
X0071500Y0036528D02*
X0071612Y0036298D01*
X0071729Y0036071D01*
X0071851Y0035847D01*
X0071979Y0035626D01*
X0072113Y0035409D01*
X0072251Y0035194D01*
X0072395Y0034983D01*
X0072544Y0034776D01*
X0072698Y0034572D01*
X0072856Y0034372D01*
X0073020Y0034176D01*
X0073188Y0033984D01*
X0073361Y0033796D01*
X0073539Y0033612D01*
X0073720Y0033433D01*
X0073907Y0033258D01*
X0074097Y0033088D01*
X0074291Y0032923D01*
X0074490Y0032762D01*
X0074692Y0032606D01*
X0074898Y0032455D01*
X0075108Y0032309D01*
X0075321Y0032169D01*
X0075537Y0032033D01*
X0075757Y0031903D01*
X0075980Y0031778D01*
X0076205Y0031659D01*
X0076434Y0031545D01*
X0076665Y0031437D01*
X0076899Y0031334D01*
X0077135Y0031237D01*
X0077374Y0031146D01*
X0077614Y0031061D01*
X0077857Y0030981D01*
X0078102Y0030908D01*
X0078348Y0030840D01*
X0078596Y0030779D01*
X0078845Y0030724D01*
X0079095Y0030674D01*
X0079347Y0030631D01*
X0079600Y0030594D01*
X0079853Y0030563D01*
X0080107Y0030538D01*
X0080362Y0030519D01*
X0080617Y0030507D01*
X0080872Y0030501D01*
X0081128Y0030501D01*
X0081383Y0030507D01*
X0081638Y0030519D01*
X0081893Y0030538D01*
X0082147Y0030563D01*
X0082400Y0030594D01*
X0082653Y0030631D01*
X0082905Y0030674D01*
X0083155Y0030724D01*
X0083404Y0030779D01*
X0083652Y0030840D01*
X0083898Y0030908D01*
X0084143Y0030981D01*
X0084386Y0031061D01*
X0084626Y0031146D01*
X0084865Y0031237D01*
X0085101Y0031334D01*
X0085335Y0031437D01*
X0085566Y0031545D01*
X0085795Y0031659D01*
X0086020Y0031778D01*
X0086243Y0031903D01*
X0086463Y0032033D01*
X0086679Y0032169D01*
X0086892Y0032309D01*
X0087102Y0032455D01*
X0087308Y0032606D01*
X0087510Y0032762D01*
X0087709Y0032923D01*
X0087903Y0033088D01*
X0088093Y0033258D01*
X0088280Y0033433D01*
X0088461Y0033612D01*
X0088639Y0033796D01*
X0088812Y0033984D01*
X0088980Y0034176D01*
X0089144Y0034372D01*
X0089302Y0034572D01*
X0089456Y0034776D01*
X0089605Y0034983D01*
X0089749Y0035194D01*
X0089887Y0035409D01*
X0090021Y0035626D01*
X0090149Y0035847D01*
X0090271Y0036071D01*
X0090388Y0036298D01*
X0090500Y0036528D01*
X0070512Y0041500D02*
X0070527Y0041757D01*
X0070549Y0042014D01*
X0070577Y0042270D01*
X0070611Y0042525D01*
X0070652Y0042779D01*
X0070699Y0043032D01*
X0070752Y0043284D01*
X0070811Y0043535D01*
X0070876Y0043784D01*
X0070947Y0044031D01*
X0071024Y0044277D01*
X0071108Y0044521D01*
X0071197Y0044762D01*
X0071292Y0045001D01*
X0071393Y0045238D01*
X0071500Y0045472D01*
X0116000Y0046000D02*
X0116000Y0066000D01*
X0126000Y0066000D01*
X0126000Y0046000D01*
X0116000Y0046000D01*
D11*
X0128375Y0048250D02*
X0128375Y0050250D01*
X0128375Y0062000D02*
X0128375Y0064000D01*
X0127375Y0063000D02*
X0129375Y0063000D01*
X0041000Y0051000D02*
X0032550Y0051000D01*
X0029500Y0051000D02*
X0021000Y0051000D01*
X0012450Y0051374D02*
X0011483Y0049922D01*
X0010515Y0051374D01*
X0010031Y0052378D02*
X0009548Y0052861D01*
X0009548Y0053829D01*
X0010031Y0054313D01*
X0010999Y0054313D01*
X0011483Y0053829D01*
X0012450Y0053829D01*
X0012450Y0054313D01*
X0012450Y0052861D02*
X0011483Y0052861D01*
X0010999Y0052378D01*
X0010031Y0052378D01*
X0012450Y0052378D02*
X0012450Y0052861D01*
X0012450Y0049922D02*
X0009548Y0049922D01*
X0009548Y0047943D02*
X0012450Y0047943D01*
X0012450Y0046976D02*
X0012450Y0048911D01*
X0010515Y0046976D02*
X0009548Y0047943D01*
X0021764Y0033619D02*
X0022381Y0033619D01*
X0022998Y0033002D01*
X0023616Y0033619D01*
X0024233Y0033619D01*
X0024850Y0033002D01*
X0024850Y0031767D01*
X0024233Y0031150D01*
X0024233Y0029936D02*
X0024850Y0029318D01*
X0024850Y0028084D01*
X0024233Y0027467D01*
X0021764Y0027467D01*
X0021147Y0028084D01*
X0021147Y0029318D01*
X0021764Y0029936D01*
X0021764Y0031150D02*
X0021147Y0031767D01*
X0021147Y0033002D01*
X0021764Y0033619D01*
X0022998Y0033002D02*
X0022998Y0032384D01*
X0037948Y0032601D02*
X0037948Y0031634D01*
X0038431Y0031150D01*
X0037948Y0032601D02*
X0038431Y0033085D01*
X0038915Y0033085D01*
X0040850Y0031150D01*
X0040850Y0033085D01*
X0040366Y0034097D02*
X0038431Y0034097D01*
X0037948Y0034580D01*
X0037948Y0035548D01*
X0038431Y0036031D01*
X0040366Y0034097D01*
X0040850Y0034580D01*
X0040850Y0035548D01*
X0040366Y0036031D01*
X0038431Y0036031D01*
X0038915Y0037043D02*
X0038915Y0038494D01*
X0039399Y0038978D01*
X0040366Y0038978D01*
X0040850Y0038494D01*
X0040850Y0037043D01*
X0041817Y0037043D02*
X0038915Y0037043D01*
X0039399Y0039990D02*
X0039399Y0040957D01*
X0040850Y0039990D02*
X0037948Y0039990D01*
X0037948Y0041925D01*
X0039399Y0027192D02*
X0039399Y0025257D01*
X0038915Y0021299D02*
X0038431Y0021299D01*
X0037948Y0020815D01*
X0037948Y0019848D01*
X0038431Y0019364D01*
X0038915Y0021299D02*
X0040850Y0019364D01*
X0040850Y0021299D01*
X0004375Y0023000D02*
X0002375Y0023000D01*
X0003375Y0022000D02*
X0003375Y0024000D01*
X0003375Y0010250D02*
X0003375Y0008250D01*
X0091000Y0011000D02*
X0099450Y0011000D01*
X0102500Y0011000D02*
X0111000Y0011000D01*
X0035786Y0079550D02*
X0035302Y0079550D01*
X0035302Y0080517D01*
X0035786Y0081001D01*
X0035786Y0081969D01*
X0035302Y0082452D01*
X0034335Y0082452D01*
X0033851Y0081969D01*
X0033851Y0081001D01*
X0034335Y0080517D01*
X0034335Y0079550D01*
X0033851Y0079550D01*
X0032847Y0079550D02*
X0031396Y0080517D01*
X0032847Y0081485D01*
X0031396Y0082452D02*
X0031396Y0079550D01*
X0030384Y0080034D02*
X0029900Y0079550D01*
X0028933Y0079550D01*
X0028449Y0080034D01*
X0030384Y0081969D01*
X0030384Y0080034D01*
X0028449Y0080034D02*
X0028449Y0081969D01*
X0028933Y0082452D01*
X0029900Y0082452D01*
X0030384Y0081969D01*
X0026470Y0082452D02*
X0026470Y0079550D01*
X0025503Y0079550D02*
X0027437Y0079550D01*
X0025503Y0081485D02*
X0026470Y0082452D01*
D12*
X0026680Y0087350D02*
X0026680Y0089552D01*
X0027781Y0089552D01*
X0028148Y0089185D01*
X0028148Y0088451D01*
X0027781Y0088084D01*
X0026680Y0088084D01*
X0027414Y0088084D02*
X0028148Y0087350D01*
X0028890Y0087350D02*
X0030358Y0088818D01*
X0030358Y0089185D01*
X0029991Y0089552D01*
X0029257Y0089552D01*
X0028890Y0089185D01*
X0028890Y0087350D02*
X0030358Y0087350D01*
X0024124Y0077302D02*
X0024124Y0075100D01*
X0023390Y0075100D02*
X0024858Y0075100D01*
X0022648Y0075467D02*
X0022281Y0075100D01*
X0021547Y0075100D01*
X0021180Y0075467D01*
X0021180Y0076935D01*
X0021547Y0077302D01*
X0022281Y0077302D01*
X0022648Y0076935D01*
X0023390Y0076568D02*
X0024124Y0077302D01*
X0023390Y0056402D02*
X0024858Y0056402D01*
X0024124Y0055301D02*
X0023390Y0055301D01*
X0022648Y0055301D02*
X0022648Y0054567D01*
X0022281Y0054200D01*
X0021914Y0054200D01*
X0021547Y0054567D01*
X0021547Y0053833D01*
X0021180Y0053466D01*
X0021547Y0054567D02*
X0021547Y0055301D01*
X0020438Y0056035D02*
X0020438Y0054567D01*
X0020071Y0054200D01*
X0019337Y0054200D01*
X0018970Y0054567D01*
X0020438Y0056035D01*
X0020071Y0056402D01*
X0019337Y0056402D01*
X0018970Y0056035D01*
X0018970Y0054567D01*
X0018228Y0054567D02*
X0017861Y0054200D01*
X0017127Y0054200D01*
X0016760Y0054567D01*
X0018228Y0056035D01*
X0018228Y0054567D01*
X0016760Y0054567D02*
X0016760Y0056035D01*
X0017127Y0056402D01*
X0017861Y0056402D01*
X0018228Y0056035D01*
X0016018Y0054200D02*
X0014551Y0054200D01*
X0015285Y0054200D02*
X0015285Y0056402D01*
X0014551Y0055668D01*
X0023390Y0056402D02*
X0023390Y0054200D01*
X0028890Y0054667D02*
X0028890Y0056135D01*
X0029257Y0056502D01*
X0029991Y0056502D01*
X0030358Y0056135D01*
X0031100Y0056135D02*
X0031467Y0056502D01*
X0032201Y0056502D01*
X0032568Y0056135D01*
X0032568Y0055768D01*
X0031100Y0054300D01*
X0032568Y0054300D01*
X0030358Y0054667D02*
X0029991Y0054300D01*
X0029257Y0054300D01*
X0028890Y0054667D01*
X0028886Y0047702D02*
X0029253Y0047335D01*
X0027785Y0045867D01*
X0028152Y0045500D01*
X0028886Y0045500D01*
X0029253Y0045867D01*
X0029253Y0047335D01*
X0028886Y0047702D02*
X0028152Y0047702D01*
X0027785Y0047335D01*
X0027785Y0045867D01*
X0027043Y0045500D02*
X0025575Y0045500D01*
X0026309Y0045500D02*
X0026309Y0047702D01*
X0025575Y0046968D01*
X0029995Y0047335D02*
X0029995Y0045867D01*
X0031463Y0047335D01*
X0031463Y0045867D01*
X0031096Y0045500D01*
X0030362Y0045500D01*
X0029995Y0045867D01*
X0032205Y0045500D02*
X0032205Y0046968D01*
X0033306Y0046968D01*
X0033673Y0046601D01*
X0033673Y0045500D01*
X0034415Y0045500D02*
X0034415Y0047702D01*
X0035883Y0047702D01*
X0035149Y0046601D02*
X0034415Y0046601D01*
X0031463Y0047335D02*
X0031096Y0047702D01*
X0030362Y0047702D01*
X0029995Y0047335D01*
X0004650Y0046680D02*
X0002448Y0046680D01*
X0002448Y0047781D01*
X0002815Y0048148D01*
X0003549Y0048148D01*
X0003916Y0047781D01*
X0003916Y0046680D01*
X0003916Y0047414D02*
X0004650Y0048148D01*
X0004650Y0048890D02*
X0004650Y0050358D01*
X0004650Y0049624D02*
X0002448Y0049624D01*
X0003182Y0048890D01*
X0053148Y0021834D02*
X0055350Y0021834D01*
X0055350Y0021100D02*
X0055350Y0022568D01*
X0056648Y0022201D02*
X0056648Y0021467D01*
X0057015Y0021100D01*
X0057015Y0020358D02*
X0056648Y0019991D01*
X0056648Y0019257D01*
X0057015Y0018890D01*
X0056648Y0018148D02*
X0058850Y0018148D01*
X0056648Y0016680D01*
X0058850Y0016680D01*
X0058850Y0015938D02*
X0058850Y0014470D01*
X0057382Y0015938D01*
X0057015Y0015938D01*
X0056648Y0015571D01*
X0056648Y0014837D01*
X0057015Y0014470D01*
X0058850Y0018890D02*
X0057382Y0020358D01*
X0057015Y0020358D01*
X0055350Y0019624D02*
X0053148Y0019624D01*
X0053148Y0018890D02*
X0053148Y0020358D01*
X0053882Y0021100D02*
X0053148Y0021834D01*
X0056648Y0022201D02*
X0057015Y0022568D01*
X0057382Y0022568D01*
X0058850Y0021100D01*
X0058850Y0022568D01*
X0058850Y0023310D02*
X0057382Y0024778D01*
X0057015Y0024778D01*
X0056648Y0024411D01*
X0056648Y0023677D01*
X0057015Y0023310D01*
X0058850Y0023310D02*
X0058850Y0024778D01*
X0058850Y0025520D02*
X0057382Y0026988D01*
X0057015Y0026988D01*
X0056648Y0026621D01*
X0056648Y0025887D01*
X0057015Y0025520D01*
X0058850Y0025520D02*
X0058850Y0026988D01*
X0058850Y0020358D02*
X0058850Y0018890D01*
X0080051Y0016735D02*
X0080418Y0017102D01*
X0081152Y0017102D01*
X0081518Y0016735D01*
X0081518Y0016368D01*
X0080051Y0014900D01*
X0081518Y0014900D01*
X0082260Y0014900D02*
X0083728Y0016368D01*
X0083728Y0016735D01*
X0083361Y0017102D01*
X0082627Y0017102D01*
X0082260Y0016735D01*
X0082260Y0014900D02*
X0083728Y0014900D01*
X0084470Y0015267D02*
X0085938Y0016735D01*
X0085938Y0015267D01*
X0085571Y0014900D01*
X0084837Y0014900D01*
X0084470Y0015267D01*
X0084470Y0016735D01*
X0084837Y0017102D01*
X0085571Y0017102D01*
X0085938Y0016735D01*
X0086680Y0016368D02*
X0087781Y0016368D01*
X0088148Y0016001D01*
X0088148Y0014900D01*
X0088890Y0014900D02*
X0088890Y0017102D01*
X0090358Y0017102D01*
X0089624Y0016001D02*
X0088890Y0016001D01*
X0086680Y0016368D02*
X0086680Y0014900D01*
X0096128Y0014300D02*
X0097596Y0015768D01*
X0097596Y0016135D01*
X0097229Y0016502D01*
X0096495Y0016502D01*
X0096128Y0016135D01*
X0096128Y0014300D02*
X0097596Y0014300D01*
X0098338Y0014300D02*
X0098705Y0014300D01*
X0098705Y0014667D01*
X0098338Y0014667D01*
X0098338Y0014300D01*
X0099443Y0014300D02*
X0100910Y0015768D01*
X0100910Y0016135D01*
X0100544Y0016502D01*
X0099810Y0016502D01*
X0099443Y0016135D01*
X0099443Y0014300D02*
X0100910Y0014300D01*
X0101652Y0014300D02*
X0101652Y0015768D01*
X0102753Y0015768D01*
X0103120Y0015401D01*
X0103120Y0014300D01*
X0103862Y0014300D02*
X0103862Y0016502D01*
X0105330Y0016502D01*
X0104596Y0015401D02*
X0103862Y0015401D01*
X0102568Y0007702D02*
X0101100Y0007702D01*
X0101100Y0006601D01*
X0101834Y0006968D01*
X0102201Y0006968D01*
X0102568Y0006601D01*
X0102568Y0005867D01*
X0102201Y0005500D01*
X0101467Y0005500D01*
X0101100Y0005867D01*
X0100358Y0005867D02*
X0099991Y0005500D01*
X0099257Y0005500D01*
X0098890Y0005867D01*
X0098890Y0007335D01*
X0099257Y0007702D01*
X0099991Y0007702D01*
X0100358Y0007335D01*
X0111698Y0006411D02*
X0112065Y0006778D01*
X0112432Y0006778D01*
X0112799Y0006411D01*
X0113166Y0006778D01*
X0113533Y0006778D01*
X0113900Y0006411D01*
X0113900Y0005677D01*
X0113533Y0005310D01*
X0113900Y0004568D02*
X0113166Y0003834D01*
X0113166Y0004201D02*
X0113166Y0003100D01*
X0113900Y0003100D02*
X0111698Y0003100D01*
X0111698Y0004201D01*
X0112065Y0004568D01*
X0112799Y0004568D01*
X0113166Y0004201D01*
X0112065Y0005310D02*
X0111698Y0005677D01*
X0111698Y0006411D01*
X0112799Y0006411D02*
X0112799Y0006044D01*
X0085911Y0024900D02*
X0085911Y0027102D01*
X0084810Y0026001D01*
X0086278Y0026001D01*
X0084068Y0026735D02*
X0083701Y0027102D01*
X0082967Y0027102D01*
X0082600Y0026735D01*
X0082600Y0025267D01*
X0082967Y0024900D01*
X0083701Y0024900D01*
X0084068Y0025267D01*
X0082568Y0033150D02*
X0081100Y0033150D01*
X0082568Y0034618D01*
X0082568Y0034985D01*
X0082201Y0035352D01*
X0081467Y0035352D01*
X0081100Y0034985D01*
X0080358Y0035352D02*
X0078890Y0035352D01*
X0079624Y0035352D02*
X0079624Y0033150D01*
X0078890Y0036650D02*
X0080358Y0038118D01*
X0080358Y0038485D01*
X0079991Y0038852D01*
X0079257Y0038852D01*
X0078890Y0038485D01*
X0078148Y0038852D02*
X0078148Y0036650D01*
X0076680Y0038852D01*
X0076680Y0036650D01*
X0075938Y0036650D02*
X0074470Y0036650D01*
X0075938Y0038118D01*
X0075938Y0038485D01*
X0075571Y0038852D01*
X0074837Y0038852D01*
X0074470Y0038485D01*
X0078890Y0036650D02*
X0080358Y0036650D01*
X0081100Y0036650D02*
X0082568Y0038118D01*
X0082568Y0038485D01*
X0082201Y0038852D01*
X0081467Y0038852D01*
X0081100Y0038485D01*
X0083310Y0038485D02*
X0083677Y0038852D01*
X0084411Y0038852D01*
X0084778Y0038485D01*
X0084778Y0038118D01*
X0083310Y0036650D01*
X0084778Y0036650D01*
X0085520Y0036650D02*
X0086988Y0038118D01*
X0086988Y0038485D01*
X0086621Y0038852D01*
X0085887Y0038852D01*
X0085520Y0038485D01*
X0085520Y0036650D02*
X0086988Y0036650D01*
X0082568Y0036650D02*
X0081100Y0036650D01*
X0111698Y0037257D02*
X0111698Y0037991D01*
X0112065Y0038358D01*
X0112799Y0038358D01*
X0113166Y0037991D01*
X0113900Y0037991D01*
X0113900Y0038358D01*
X0113900Y0037257D02*
X0113166Y0037257D01*
X0112799Y0036890D01*
X0112065Y0036890D01*
X0111698Y0037257D01*
X0112432Y0036149D02*
X0113166Y0035049D01*
X0113900Y0036149D01*
X0113900Y0036890D02*
X0113900Y0037257D01*
X0113900Y0035049D02*
X0111698Y0035049D01*
X0112065Y0034307D02*
X0113533Y0032839D01*
X0113900Y0033206D01*
X0113900Y0033940D01*
X0113533Y0034307D01*
X0112065Y0034307D01*
X0111698Y0033940D01*
X0111698Y0033206D01*
X0112065Y0032839D01*
X0113533Y0032839D01*
X0113900Y0032097D02*
X0113900Y0030629D01*
X0113900Y0031363D02*
X0111698Y0031363D01*
X0112432Y0030629D01*
X0128074Y0054258D02*
X0127473Y0054859D01*
X0128074Y0055459D01*
X0129275Y0055459D01*
X0129275Y0056100D02*
X0127473Y0056100D01*
X0127473Y0057301D01*
X0128374Y0056701D02*
X0128374Y0056100D01*
X0128374Y0055459D02*
X0128374Y0054258D01*
X0128074Y0054258D02*
X0129275Y0054258D01*
X0122939Y0085350D02*
X0122939Y0087552D01*
X0122205Y0087552D02*
X0123673Y0087552D01*
X0121463Y0087552D02*
X0121463Y0085350D01*
X0119995Y0087552D01*
X0119995Y0085350D01*
X0119253Y0085350D02*
X0119253Y0086818D01*
X0118519Y0087552D01*
X0117785Y0086818D01*
X0117785Y0085350D01*
X0117785Y0086451D02*
X0119253Y0086451D01*
X0004275Y0017621D02*
X0002473Y0017621D01*
X0002473Y0017021D02*
X0002473Y0018222D01*
X0003074Y0016380D02*
X0004275Y0016380D01*
X0003374Y0016380D02*
X0003374Y0015179D01*
X0003074Y0015179D02*
X0004275Y0015179D01*
X0003975Y0014539D02*
X0004275Y0014238D01*
X0004275Y0013338D01*
X0002473Y0013338D01*
X0002473Y0014238D01*
X0002774Y0014539D01*
X0003074Y0014539D01*
X0003374Y0014238D01*
X0003374Y0013338D01*
X0003374Y0014238D02*
X0003674Y0014539D01*
X0003975Y0014539D01*
X0003074Y0015179D02*
X0002473Y0015780D01*
X0003074Y0016380D01*
D13*
X0082500Y0020000D02*
X0082500Y0022000D01*
X0082502Y0022076D01*
X0082508Y0022152D01*
X0082517Y0022227D01*
X0082531Y0022302D01*
X0082548Y0022376D01*
X0082569Y0022449D01*
X0082593Y0022521D01*
X0082622Y0022592D01*
X0082653Y0022661D01*
X0082688Y0022728D01*
X0082727Y0022793D01*
X0082769Y0022857D01*
X0082814Y0022918D01*
X0082862Y0022977D01*
X0082913Y0023033D01*
X0082967Y0023087D01*
X0083023Y0023138D01*
X0083082Y0023186D01*
X0083143Y0023231D01*
X0083207Y0023273D01*
X0083272Y0023312D01*
X0083339Y0023347D01*
X0083408Y0023378D01*
X0083479Y0023407D01*
X0083551Y0023431D01*
X0083624Y0023452D01*
X0083698Y0023469D01*
X0083773Y0023483D01*
X0083848Y0023492D01*
X0083924Y0023498D01*
X0084000Y0023500D01*
X0098000Y0023500D01*
X0098076Y0023498D01*
X0098152Y0023492D01*
X0098227Y0023483D01*
X0098302Y0023469D01*
X0098376Y0023452D01*
X0098449Y0023431D01*
X0098521Y0023407D01*
X0098592Y0023378D01*
X0098661Y0023347D01*
X0098728Y0023312D01*
X0098793Y0023273D01*
X0098857Y0023231D01*
X0098918Y0023186D01*
X0098977Y0023138D01*
X0099033Y0023087D01*
X0099087Y0023033D01*
X0099138Y0022977D01*
X0099186Y0022918D01*
X0099231Y0022857D01*
X0099273Y0022793D01*
X0099312Y0022728D01*
X0099347Y0022661D01*
X0099378Y0022592D01*
X0099407Y0022521D01*
X0099431Y0022449D01*
X0099452Y0022376D01*
X0099469Y0022302D01*
X0099483Y0022227D01*
X0099492Y0022152D01*
X0099498Y0022076D01*
X0099500Y0022000D01*
X0099500Y0020000D01*
X0099498Y0019924D01*
X0099492Y0019848D01*
X0099483Y0019773D01*
X0099469Y0019698D01*
X0099452Y0019624D01*
X0099431Y0019551D01*
X0099407Y0019479D01*
X0099378Y0019408D01*
X0099347Y0019339D01*
X0099312Y0019272D01*
X0099273Y0019207D01*
X0099231Y0019143D01*
X0099186Y0019082D01*
X0099138Y0019023D01*
X0099087Y0018967D01*
X0099033Y0018913D01*
X0098977Y0018862D01*
X0098918Y0018814D01*
X0098857Y0018769D01*
X0098793Y0018727D01*
X0098728Y0018688D01*
X0098661Y0018653D01*
X0098592Y0018622D01*
X0098521Y0018593D01*
X0098449Y0018569D01*
X0098376Y0018548D01*
X0098302Y0018531D01*
X0098227Y0018517D01*
X0098152Y0018508D01*
X0098076Y0018502D01*
X0098000Y0018500D01*
X0084000Y0018500D01*
X0083924Y0018502D01*
X0083848Y0018508D01*
X0083773Y0018517D01*
X0083698Y0018531D01*
X0083624Y0018548D01*
X0083551Y0018569D01*
X0083479Y0018593D01*
X0083408Y0018622D01*
X0083339Y0018653D01*
X0083272Y0018688D01*
X0083207Y0018727D01*
X0083143Y0018769D01*
X0083082Y0018814D01*
X0083023Y0018862D01*
X0082967Y0018913D01*
X0082913Y0018967D01*
X0082862Y0019023D01*
X0082814Y0019082D01*
X0082769Y0019143D01*
X0082727Y0019207D01*
X0082688Y0019272D01*
X0082653Y0019339D01*
X0082622Y0019408D01*
X0082593Y0019479D01*
X0082569Y0019551D01*
X0082548Y0019624D01*
X0082531Y0019698D01*
X0082517Y0019773D01*
X0082508Y0019848D01*
X0082502Y0019924D01*
X0082500Y0020000D01*
D14*
X0081000Y0021000D02*
X0089450Y0021000D01*
X0092500Y0021000D02*
X0101000Y0021000D01*
X0064284Y0013550D02*
X0063550Y0013550D01*
X0063917Y0013550D02*
X0063917Y0014651D01*
X0063550Y0014284D01*
X0087716Y0043550D02*
X0087349Y0043917D01*
X0088450Y0043917D01*
X0088450Y0043550D02*
X0088450Y0044284D01*
D15*
X0090000Y0021000D03*
X0092000Y0021000D03*
X0100000Y0011000D03*
X0102000Y0011000D03*
X0032000Y0051000D03*
X0030000Y0051000D03*
D16*
X0062250Y0051000D02*
X0064750Y0081000D01*
X0067250Y0051000D01*
X0069750Y0081000D01*
X0072250Y0051000D01*
X0074750Y0081000D01*
X0077250Y0051000D01*
X0079750Y0081000D01*
X0082250Y0051000D01*
X0084750Y0081000D01*
X0087250Y0051000D01*
X0089750Y0081000D01*
X0092250Y0051000D01*
X0094750Y0081000D01*
X0097250Y0051000D01*
X0099750Y0081000D01*
D17*
X0115079Y0038874D02*
X0115079Y0003126D01*
X0130567Y0003126D01*
X0138441Y0003126D01*
X0138441Y0007457D01*
X0130961Y0007457D01*
X0130567Y0003126D02*
X0130567Y0038874D01*
X0115079Y0038874D01*
X0127693Y0038874D02*
X0127693Y0003126D01*
X0130961Y0015114D02*
X0144976Y0015114D01*
X0146157Y0017083D01*
X0146157Y0024917D01*
X0144976Y0026886D01*
X0130961Y0026886D01*
X0131748Y0026492D02*
X0133815Y0015508D01*
X0135783Y0015508D02*
X0133717Y0026492D01*
X0135685Y0026492D02*
X0137752Y0015508D01*
X0139720Y0015508D02*
X0137654Y0026492D01*
X0139622Y0026492D02*
X0141689Y0015508D01*
X0143657Y0015508D02*
X0141591Y0026492D01*
X0143402Y0026492D02*
X0145469Y0016394D01*
X0146157Y0017083D02*
X0159937Y0017083D01*
X0159937Y0024917D01*
X0146157Y0024917D01*
D18*
X0041000Y0078000D02*
X0041000Y0084000D01*
X0040998Y0084060D01*
X0040993Y0084121D01*
X0040984Y0084180D01*
X0040971Y0084239D01*
X0040955Y0084298D01*
X0040935Y0084355D01*
X0040912Y0084410D01*
X0040885Y0084465D01*
X0040856Y0084517D01*
X0040823Y0084568D01*
X0040787Y0084617D01*
X0040749Y0084663D01*
X0040707Y0084707D01*
X0040663Y0084749D01*
X0040617Y0084787D01*
X0040568Y0084823D01*
X0040517Y0084856D01*
X0040465Y0084885D01*
X0040410Y0084912D01*
X0040355Y0084935D01*
X0040298Y0084955D01*
X0040239Y0084971D01*
X0040180Y0084984D01*
X0040121Y0084993D01*
X0040060Y0084998D01*
X0040000Y0085000D01*
X0038500Y0085000D01*
X0038000Y0084500D01*
X0024000Y0084500D01*
X0023500Y0085000D01*
X0022000Y0085000D01*
X0021940Y0084998D01*
X0021879Y0084993D01*
X0021820Y0084984D01*
X0021761Y0084971D01*
X0021702Y0084955D01*
X0021645Y0084935D01*
X0021590Y0084912D01*
X0021535Y0084885D01*
X0021483Y0084856D01*
X0021432Y0084823D01*
X0021383Y0084787D01*
X0021337Y0084749D01*
X0021293Y0084707D01*
X0021251Y0084663D01*
X0021213Y0084617D01*
X0021177Y0084568D01*
X0021144Y0084517D01*
X0021115Y0084465D01*
X0021088Y0084410D01*
X0021065Y0084355D01*
X0021045Y0084298D01*
X0021029Y0084239D01*
X0021016Y0084180D01*
X0021007Y0084121D01*
X0021002Y0084060D01*
X0021000Y0084000D01*
X0021000Y0078000D01*
X0021002Y0077940D01*
X0021007Y0077879D01*
X0021016Y0077820D01*
X0021029Y0077761D01*
X0021045Y0077702D01*
X0021065Y0077645D01*
X0021088Y0077590D01*
X0021115Y0077535D01*
X0021144Y0077483D01*
X0021177Y0077432D01*
X0021213Y0077383D01*
X0021251Y0077337D01*
X0021293Y0077293D01*
X0021337Y0077251D01*
X0021383Y0077213D01*
X0021432Y0077177D01*
X0021483Y0077144D01*
X0021535Y0077115D01*
X0021590Y0077088D01*
X0021645Y0077065D01*
X0021702Y0077045D01*
X0021761Y0077029D01*
X0021820Y0077016D01*
X0021879Y0077007D01*
X0021940Y0077002D01*
X0022000Y0077000D01*
X0023500Y0077000D01*
X0024000Y0077500D01*
X0038000Y0077500D01*
X0038500Y0077000D01*
X0040000Y0077000D01*
X0040060Y0077002D01*
X0040121Y0077007D01*
X0040180Y0077016D01*
X0040239Y0077029D01*
X0040298Y0077045D01*
X0040355Y0077065D01*
X0040410Y0077088D01*
X0040465Y0077115D01*
X0040517Y0077144D01*
X0040568Y0077177D01*
X0040617Y0077213D01*
X0040663Y0077251D01*
X0040707Y0077293D01*
X0040749Y0077337D01*
X0040787Y0077383D01*
X0040823Y0077432D01*
X0040856Y0077483D01*
X0040885Y0077535D01*
X0040912Y0077590D01*
X0040935Y0077645D01*
X0040955Y0077702D01*
X0040971Y0077761D01*
X0040984Y0077820D01*
X0040993Y0077879D01*
X0040998Y0077940D01*
X0041000Y0078000D01*
X0040998Y0077940D01*
X0040993Y0077879D01*
X0040984Y0077820D01*
X0040971Y0077761D01*
X0040955Y0077702D01*
X0040935Y0077645D01*
X0040912Y0077590D01*
X0040885Y0077535D01*
X0040856Y0077483D01*
X0040823Y0077432D01*
X0040787Y0077383D01*
X0040749Y0077337D01*
X0040707Y0077293D01*
X0040663Y0077251D01*
X0040617Y0077213D01*
X0040568Y0077177D01*
X0040517Y0077144D01*
X0040465Y0077115D01*
X0040410Y0077088D01*
X0040355Y0077065D01*
X0040298Y0077045D01*
X0040239Y0077029D01*
X0040180Y0077016D01*
X0040121Y0077007D01*
X0040060Y0077002D01*
X0040000Y0077000D01*
X0031000Y0072500D02*
X0031000Y0068500D01*
X0021000Y0066000D02*
X0021003Y0066245D01*
X0021012Y0066491D01*
X0021027Y0066736D01*
X0021048Y0066980D01*
X0021075Y0067224D01*
X0021108Y0067467D01*
X0021147Y0067710D01*
X0021192Y0067951D01*
X0021243Y0068191D01*
X0021300Y0068430D01*
X0021362Y0068667D01*
X0021431Y0068903D01*
X0021505Y0069137D01*
X0021585Y0069369D01*
X0021670Y0069599D01*
X0021761Y0069827D01*
X0021858Y0070052D01*
X0021960Y0070276D01*
X0022068Y0070496D01*
X0022181Y0070714D01*
X0022299Y0070929D01*
X0022423Y0071141D01*
X0022551Y0071350D01*
X0022685Y0071556D01*
X0022824Y0071758D01*
X0022968Y0071957D01*
X0023117Y0072152D01*
X0023270Y0072344D01*
X0023428Y0072532D01*
X0023590Y0072716D01*
X0023758Y0072895D01*
X0023929Y0073071D01*
X0024105Y0073242D01*
X0024284Y0073410D01*
X0024468Y0073572D01*
X0024656Y0073730D01*
X0024848Y0073883D01*
X0025043Y0074032D01*
X0025242Y0074176D01*
X0025444Y0074315D01*
X0025650Y0074449D01*
X0025859Y0074577D01*
X0026071Y0074701D01*
X0026286Y0074819D01*
X0026504Y0074932D01*
X0026724Y0075040D01*
X0026948Y0075142D01*
X0027173Y0075239D01*
X0027401Y0075330D01*
X0027631Y0075415D01*
X0027863Y0075495D01*
X0028097Y0075569D01*
X0028333Y0075638D01*
X0028570Y0075700D01*
X0028809Y0075757D01*
X0029049Y0075808D01*
X0029290Y0075853D01*
X0029533Y0075892D01*
X0029776Y0075925D01*
X0030020Y0075952D01*
X0030264Y0075973D01*
X0030509Y0075988D01*
X0030755Y0075997D01*
X0031000Y0076000D01*
X0031245Y0075997D01*
X0031491Y0075988D01*
X0031736Y0075973D01*
X0031980Y0075952D01*
X0032224Y0075925D01*
X0032467Y0075892D01*
X0032710Y0075853D01*
X0032951Y0075808D01*
X0033191Y0075757D01*
X0033430Y0075700D01*
X0033667Y0075638D01*
X0033903Y0075569D01*
X0034137Y0075495D01*
X0034369Y0075415D01*
X0034599Y0075330D01*
X0034827Y0075239D01*
X0035052Y0075142D01*
X0035276Y0075040D01*
X0035496Y0074932D01*
X0035714Y0074819D01*
X0035929Y0074701D01*
X0036141Y0074577D01*
X0036350Y0074449D01*
X0036556Y0074315D01*
X0036758Y0074176D01*
X0036957Y0074032D01*
X0037152Y0073883D01*
X0037344Y0073730D01*
X0037532Y0073572D01*
X0037716Y0073410D01*
X0037895Y0073242D01*
X0038071Y0073071D01*
X0038242Y0072895D01*
X0038410Y0072716D01*
X0038572Y0072532D01*
X0038730Y0072344D01*
X0038883Y0072152D01*
X0039032Y0071957D01*
X0039176Y0071758D01*
X0039315Y0071556D01*
X0039449Y0071350D01*
X0039577Y0071141D01*
X0039701Y0070929D01*
X0039819Y0070714D01*
X0039932Y0070496D01*
X0040040Y0070276D01*
X0040142Y0070052D01*
X0040239Y0069827D01*
X0040330Y0069599D01*
X0040415Y0069369D01*
X0040495Y0069137D01*
X0040569Y0068903D01*
X0040638Y0068667D01*
X0040700Y0068430D01*
X0040757Y0068191D01*
X0040808Y0067951D01*
X0040853Y0067710D01*
X0040892Y0067467D01*
X0040925Y0067224D01*
X0040952Y0066980D01*
X0040973Y0066736D01*
X0040988Y0066491D01*
X0040997Y0066245D01*
X0041000Y0066000D01*
X0040997Y0065755D01*
X0040988Y0065509D01*
X0040973Y0065264D01*
X0040952Y0065020D01*
X0040925Y0064776D01*
X0040892Y0064533D01*
X0040853Y0064290D01*
X0040808Y0064049D01*
X0040757Y0063809D01*
X0040700Y0063570D01*
X0040638Y0063333D01*
X0040569Y0063097D01*
X0040495Y0062863D01*
X0040415Y0062631D01*
X0040330Y0062401D01*
X0040239Y0062173D01*
X0040142Y0061948D01*
X0040040Y0061724D01*
X0039932Y0061504D01*
X0039819Y0061286D01*
X0039701Y0061071D01*
X0039577Y0060859D01*
X0039449Y0060650D01*
X0039315Y0060444D01*
X0039176Y0060242D01*
X0039032Y0060043D01*
X0038883Y0059848D01*
X0038730Y0059656D01*
X0038572Y0059468D01*
X0038410Y0059284D01*
X0038242Y0059105D01*
X0038071Y0058929D01*
X0037895Y0058758D01*
X0037716Y0058590D01*
X0037532Y0058428D01*
X0037344Y0058270D01*
X0037152Y0058117D01*
X0036957Y0057968D01*
X0036758Y0057824D01*
X0036556Y0057685D01*
X0036350Y0057551D01*
X0036141Y0057423D01*
X0035929Y0057299D01*
X0035714Y0057181D01*
X0035496Y0057068D01*
X0035276Y0056960D01*
X0035052Y0056858D01*
X0034827Y0056761D01*
X0034599Y0056670D01*
X0034369Y0056585D01*
X0034137Y0056505D01*
X0033903Y0056431D01*
X0033667Y0056362D01*
X0033430Y0056300D01*
X0033191Y0056243D01*
X0032951Y0056192D01*
X0032710Y0056147D01*
X0032467Y0056108D01*
X0032224Y0056075D01*
X0031980Y0056048D01*
X0031736Y0056027D01*
X0031491Y0056012D01*
X0031245Y0056003D01*
X0031000Y0056000D01*
X0030755Y0056003D01*
X0030509Y0056012D01*
X0030264Y0056027D01*
X0030020Y0056048D01*
X0029776Y0056075D01*
X0029533Y0056108D01*
X0029290Y0056147D01*
X0029049Y0056192D01*
X0028809Y0056243D01*
X0028570Y0056300D01*
X0028333Y0056362D01*
X0028097Y0056431D01*
X0027863Y0056505D01*
X0027631Y0056585D01*
X0027401Y0056670D01*
X0027173Y0056761D01*
X0026948Y0056858D01*
X0026724Y0056960D01*
X0026504Y0057068D01*
X0026286Y0057181D01*
X0026071Y0057299D01*
X0025859Y0057423D01*
X0025650Y0057551D01*
X0025444Y0057685D01*
X0025242Y0057824D01*
X0025043Y0057968D01*
X0024848Y0058117D01*
X0024656Y0058270D01*
X0024468Y0058428D01*
X0024284Y0058590D01*
X0024105Y0058758D01*
X0023929Y0058929D01*
X0023758Y0059105D01*
X0023590Y0059284D01*
X0023428Y0059468D01*
X0023270Y0059656D01*
X0023117Y0059848D01*
X0022968Y0060043D01*
X0022824Y0060242D01*
X0022685Y0060444D01*
X0022551Y0060650D01*
X0022423Y0060859D01*
X0022299Y0061071D01*
X0022181Y0061286D01*
X0022068Y0061504D01*
X0021960Y0061724D01*
X0021858Y0061948D01*
X0021761Y0062173D01*
X0021670Y0062401D01*
X0021585Y0062631D01*
X0021505Y0062863D01*
X0021431Y0063097D01*
X0021362Y0063333D01*
X0021300Y0063570D01*
X0021243Y0063809D01*
X0021192Y0064049D01*
X0021147Y0064290D01*
X0021108Y0064533D01*
X0021075Y0064776D01*
X0021048Y0065020D01*
X0021027Y0065264D01*
X0021012Y0065509D01*
X0021003Y0065755D01*
X0021000Y0066000D01*
X0026000Y0065000D02*
X0026000Y0063000D01*
X0031000Y0063000D01*
X0036000Y0063000D01*
X0036000Y0065000D01*
X0026000Y0065000D01*
X0031000Y0063000D02*
X0031000Y0059500D01*
X0027000Y0060500D02*
X0026000Y0060500D01*
X0025000Y0060500D01*
X0026000Y0060500D02*
X0026000Y0059500D01*
X0026000Y0060500D02*
X0026000Y0061500D01*
X0015000Y0060000D02*
X0015000Y0058500D01*
X0014500Y0058000D01*
X0014500Y0044000D01*
X0015000Y0043500D01*
X0015000Y0042000D01*
X0014998Y0041940D01*
X0014993Y0041879D01*
X0014984Y0041820D01*
X0014971Y0041761D01*
X0014955Y0041702D01*
X0014935Y0041645D01*
X0014912Y0041590D01*
X0014885Y0041535D01*
X0014856Y0041483D01*
X0014823Y0041432D01*
X0014787Y0041383D01*
X0014749Y0041337D01*
X0014707Y0041293D01*
X0014663Y0041251D01*
X0014617Y0041213D01*
X0014568Y0041177D01*
X0014517Y0041144D01*
X0014465Y0041115D01*
X0014410Y0041088D01*
X0014355Y0041065D01*
X0014298Y0041045D01*
X0014239Y0041029D01*
X0014180Y0041016D01*
X0014121Y0041007D01*
X0014060Y0041002D01*
X0014000Y0041000D01*
X0008000Y0041000D01*
X0007940Y0041002D01*
X0007879Y0041007D01*
X0007820Y0041016D01*
X0007761Y0041029D01*
X0007702Y0041045D01*
X0007645Y0041065D01*
X0007590Y0041088D01*
X0007535Y0041115D01*
X0007483Y0041144D01*
X0007432Y0041177D01*
X0007383Y0041213D01*
X0007337Y0041251D01*
X0007293Y0041293D01*
X0007251Y0041337D01*
X0007213Y0041383D01*
X0007177Y0041432D01*
X0007144Y0041483D01*
X0007115Y0041535D01*
X0007088Y0041590D01*
X0007065Y0041645D01*
X0007045Y0041702D01*
X0007029Y0041761D01*
X0007016Y0041820D01*
X0007007Y0041879D01*
X0007002Y0041940D01*
X0007000Y0042000D01*
X0007000Y0043500D01*
X0007500Y0044000D01*
X0007500Y0058000D01*
X0007000Y0058500D01*
X0007000Y0060000D01*
X0007002Y0060060D01*
X0007007Y0060121D01*
X0007016Y0060180D01*
X0007029Y0060239D01*
X0007045Y0060298D01*
X0007065Y0060355D01*
X0007088Y0060410D01*
X0007115Y0060465D01*
X0007144Y0060517D01*
X0007177Y0060568D01*
X0007213Y0060617D01*
X0007251Y0060663D01*
X0007293Y0060707D01*
X0007337Y0060749D01*
X0007383Y0060787D01*
X0007432Y0060823D01*
X0007483Y0060856D01*
X0007535Y0060885D01*
X0007590Y0060912D01*
X0007645Y0060935D01*
X0007702Y0060955D01*
X0007761Y0060971D01*
X0007820Y0060984D01*
X0007879Y0060993D01*
X0007940Y0060998D01*
X0008000Y0061000D01*
X0014000Y0061000D01*
X0014060Y0060998D01*
X0014121Y0060993D01*
X0014180Y0060984D01*
X0014239Y0060971D01*
X0014298Y0060955D01*
X0014355Y0060935D01*
X0014410Y0060912D01*
X0014465Y0060885D01*
X0014517Y0060856D01*
X0014568Y0060823D01*
X0014617Y0060787D01*
X0014663Y0060749D01*
X0014707Y0060707D01*
X0014749Y0060663D01*
X0014787Y0060617D01*
X0014823Y0060568D01*
X0014856Y0060517D01*
X0014885Y0060465D01*
X0014912Y0060410D01*
X0014935Y0060355D01*
X0014955Y0060298D01*
X0014971Y0060239D01*
X0014984Y0060180D01*
X0014993Y0060121D01*
X0014998Y0060060D01*
X0015000Y0060000D01*
X0014998Y0060060D01*
X0014993Y0060121D01*
X0014984Y0060180D01*
X0014971Y0060239D01*
X0014955Y0060298D01*
X0014935Y0060355D01*
X0014912Y0060410D01*
X0014885Y0060465D01*
X0014856Y0060517D01*
X0014823Y0060568D01*
X0014787Y0060617D01*
X0014749Y0060663D01*
X0014707Y0060707D01*
X0014663Y0060749D01*
X0014617Y0060787D01*
X0014568Y0060823D01*
X0014517Y0060856D01*
X0014465Y0060885D01*
X0014410Y0060912D01*
X0014355Y0060935D01*
X0014298Y0060955D01*
X0014239Y0060971D01*
X0014180Y0060984D01*
X0014121Y0060993D01*
X0014060Y0060998D01*
X0014000Y0061000D01*
X0008000Y0061000D02*
X0007940Y0060998D01*
X0007879Y0060993D01*
X0007820Y0060984D01*
X0007761Y0060971D01*
X0007702Y0060955D01*
X0007645Y0060935D01*
X0007590Y0060912D01*
X0007535Y0060885D01*
X0007483Y0060856D01*
X0007432Y0060823D01*
X0007383Y0060787D01*
X0007337Y0060749D01*
X0007293Y0060707D01*
X0007251Y0060663D01*
X0007213Y0060617D01*
X0007177Y0060568D01*
X0007144Y0060517D01*
X0007115Y0060465D01*
X0007088Y0060410D01*
X0007065Y0060355D01*
X0007045Y0060298D01*
X0007029Y0060239D01*
X0007016Y0060180D01*
X0007007Y0060121D01*
X0007002Y0060060D01*
X0007000Y0060000D01*
X0022000Y0077000D02*
X0021940Y0077002D01*
X0021879Y0077007D01*
X0021820Y0077016D01*
X0021761Y0077029D01*
X0021702Y0077045D01*
X0021645Y0077065D01*
X0021590Y0077088D01*
X0021535Y0077115D01*
X0021483Y0077144D01*
X0021432Y0077177D01*
X0021383Y0077213D01*
X0021337Y0077251D01*
X0021293Y0077293D01*
X0021251Y0077337D01*
X0021213Y0077383D01*
X0021177Y0077432D01*
X0021144Y0077483D01*
X0021115Y0077535D01*
X0021088Y0077590D01*
X0021065Y0077645D01*
X0021045Y0077702D01*
X0021029Y0077761D01*
X0021016Y0077820D01*
X0021007Y0077879D01*
X0021002Y0077940D01*
X0021000Y0078000D01*
X0021000Y0084000D02*
X0021002Y0084060D01*
X0021007Y0084121D01*
X0021016Y0084180D01*
X0021029Y0084239D01*
X0021045Y0084298D01*
X0021065Y0084355D01*
X0021088Y0084410D01*
X0021115Y0084465D01*
X0021144Y0084517D01*
X0021177Y0084568D01*
X0021213Y0084617D01*
X0021251Y0084663D01*
X0021293Y0084707D01*
X0021337Y0084749D01*
X0021383Y0084787D01*
X0021432Y0084823D01*
X0021483Y0084856D01*
X0021535Y0084885D01*
X0021590Y0084912D01*
X0021645Y0084935D01*
X0021702Y0084955D01*
X0021761Y0084971D01*
X0021820Y0084984D01*
X0021879Y0084993D01*
X0021940Y0084998D01*
X0022000Y0085000D01*
X0040000Y0085000D02*
X0040060Y0084998D01*
X0040121Y0084993D01*
X0040180Y0084984D01*
X0040239Y0084971D01*
X0040298Y0084955D01*
X0040355Y0084935D01*
X0040410Y0084912D01*
X0040465Y0084885D01*
X0040517Y0084856D01*
X0040568Y0084823D01*
X0040617Y0084787D01*
X0040663Y0084749D01*
X0040707Y0084707D01*
X0040749Y0084663D01*
X0040787Y0084617D01*
X0040823Y0084568D01*
X0040856Y0084517D01*
X0040885Y0084465D01*
X0040912Y0084410D01*
X0040935Y0084355D01*
X0040955Y0084298D01*
X0040971Y0084239D01*
X0040984Y0084180D01*
X0040993Y0084121D01*
X0040998Y0084060D01*
X0041000Y0084000D01*
X0015000Y0042000D02*
X0014998Y0041940D01*
X0014993Y0041879D01*
X0014984Y0041820D01*
X0014971Y0041761D01*
X0014955Y0041702D01*
X0014935Y0041645D01*
X0014912Y0041590D01*
X0014885Y0041535D01*
X0014856Y0041483D01*
X0014823Y0041432D01*
X0014787Y0041383D01*
X0014749Y0041337D01*
X0014707Y0041293D01*
X0014663Y0041251D01*
X0014617Y0041213D01*
X0014568Y0041177D01*
X0014517Y0041144D01*
X0014465Y0041115D01*
X0014410Y0041088D01*
X0014355Y0041065D01*
X0014298Y0041045D01*
X0014239Y0041029D01*
X0014180Y0041016D01*
X0014121Y0041007D01*
X0014060Y0041002D01*
X0014000Y0041000D01*
X0008000Y0041000D02*
X0007940Y0041002D01*
X0007879Y0041007D01*
X0007820Y0041016D01*
X0007761Y0041029D01*
X0007702Y0041045D01*
X0007645Y0041065D01*
X0007590Y0041088D01*
X0007535Y0041115D01*
X0007483Y0041144D01*
X0007432Y0041177D01*
X0007383Y0041213D01*
X0007337Y0041251D01*
X0007293Y0041293D01*
X0007251Y0041337D01*
X0007213Y0041383D01*
X0007177Y0041432D01*
X0007144Y0041483D01*
X0007115Y0041535D01*
X0007088Y0041590D01*
X0007065Y0041645D01*
X0007045Y0041702D01*
X0007029Y0041761D01*
X0007016Y0041820D01*
X0007007Y0041879D01*
X0007002Y0041940D01*
X0007000Y0042000D01*
D19*
X0020250Y0081000D03*
X0020250Y0081000D03*
X0041750Y0081000D03*
X0041750Y0081000D03*
D20*
X0042500Y0081000D02*
X0051000Y0081000D01*
X0019500Y0081000D02*
X0011000Y0081000D01*
X0011000Y0071000D02*
X0011000Y0062500D01*
X0011000Y0039500D02*
X0011000Y0031000D01*
D21*
X0031000Y0068000D03*
D22*
X0011000Y0061750D03*
X0011000Y0061750D03*
X0011000Y0040250D03*
X0011000Y0040250D03*
M02*
