%
M48
M72
T01C0.01500
T02C0.03543
%
T01
X13100Y6100
X14100Y7100
X13100Y8100
X15100Y8100
X17100Y7100
X18100Y6100
X15100Y10100
X16100Y11400
X18100Y13100
X19100Y14100
X15100Y14100
X13100Y13100
X11100Y14100
X10100Y14100
X7100Y14100
X6100Y13850
X5100Y14100
X3100Y13850
X6100Y12100
X9100Y12100
X9100Y11400
X12100Y10850
X13100Y10100
X20100Y10850
X19100Y17100
X15100Y17100
X11100Y17100
X5100Y17100
T02
X13100Y5100
X14100Y5100
X15100Y5100
X17100Y5100
X18100Y5100
X16100Y10100
X16100Y12100
X18100Y12100
X19100Y12100
X20100Y12100
X20100Y10100
X13100Y12100
X12100Y13100
X11100Y13100
X10100Y13100
X9100Y13100
X11100Y12100
X11100Y10100
X10100Y10100
X12100Y10100
X7100Y13100
X6100Y13100
X5100Y13100
X5100Y12084
X3100Y12084
X3100Y13100
X5100Y10084
X6100Y10100
X1100Y16100
X1100Y17100
X12100Y16100
M30
