%
M48
M72
T01C0.03543
%
T01
X1123Y2123
X1123Y3123
X1123Y4123
X1123Y5123
X3123Y4123
X3123Y3123
X4123Y3123
X5123Y3123
X5123Y4123
X4123Y6123
X3123Y6123
X1123Y8123
X5123Y8123
X7123Y8123
X7123Y7123
X7123Y6123
X9123Y6123
X9123Y5123
X9123Y4123
X9123Y3123
X9123Y1123
X10123Y1123
X7123Y1123
X5123Y1123
X4123Y1123
X3123Y1123
X4123Y2123
X9123Y7123
X9123Y9123
X11123Y9123
X13123Y5123
M30
