%
M48
M72
T01C0.01500
T02C0.03543
T03C0.04331
%
T01
X11100Y2100
X11100Y6100
T02
X1100Y1100
X1100Y2100
X1100Y3100
X2100Y5100
X3100Y6100
X3100Y7100
X5100Y8100
X1100Y8100
X1100Y7100
X4100Y5100
X6100Y5100
X7100Y4100
X8100Y4100
X9100Y4100
X12100Y3100
X12100Y2100
X12100Y1100
X11100Y1100
X10100Y2100
X9100Y1100
X8100Y2100
X6100Y2100
X6100Y1100
X6100Y3100
X12100Y5100
X12100Y6100
X12100Y8100
X10100Y8100
T03
X4100Y4100
X4100Y2100
X2100Y2100
M30
