G75*
%MOIN*%
%OFA0B0*%
%FSLAX25Y25*%
%IPPOS*%
%LPD*%
%AMOC8*
5,1,8,0,0,1.08239X$1,22.5*
%
%ADD10R,0.07000X0.07000*%
%ADD11C,0.07000*%
%ADD12R,0.03543X0.03543*%
%ADD13OC8,0.04331*%
%ADD14C,0.01299*%
D10*
X0153240Y0089673D03*
X0243240Y0049673D03*
X0253240Y0079673D03*
D11*
X0023240Y0029673D03*
X0043240Y0029673D03*
X0053240Y0029673D03*
X0093240Y0029673D03*
X0093240Y0039673D03*
X0103240Y0039673D03*
X0123240Y0049673D03*
X0123240Y0059673D03*
X0123240Y0069673D03*
X0103240Y0069673D03*
X0083240Y0069673D03*
X0093240Y0079673D03*
X0103240Y0079673D03*
X0143240Y0079673D03*
X0153240Y0079673D03*
X0153240Y0069673D03*
X0163240Y0069673D03*
X0183240Y0059673D03*
X0173240Y0049673D03*
X0173240Y0039673D03*
X0183240Y0039673D03*
X0203240Y0039673D03*
X0213240Y0039673D03*
X0233240Y0039673D03*
X0243240Y0039673D03*
X0233240Y0029673D03*
X0223240Y0029673D03*
X0203240Y0029673D03*
X0193240Y0029673D03*
X0173240Y0029673D03*
X0163240Y0029673D03*
X0173240Y0019673D03*
X0203240Y0019673D03*
X0233240Y0019673D03*
X0243240Y0019673D03*
X0203240Y0049673D03*
X0213240Y0059673D03*
X0223240Y0069673D03*
X0243240Y0059673D03*
X0243240Y0079673D03*
X0223240Y0089673D03*
X0203240Y0089673D03*
X0173240Y0089673D03*
X0193240Y0069673D03*
X0153240Y0039673D03*
X0133240Y0039673D03*
X0133240Y0029673D03*
X0043083Y0049673D03*
X0023398Y0049673D03*
D12*
X0223240Y0079673D03*
D13*
X0043240Y0069673D03*
X0023240Y0069673D03*
X0023240Y0089673D03*
D14*
X0023240Y0069673D02*
X0023398Y0049673D01*
X0023240Y0029673D01*
X0043240Y0029673D02*
X0053240Y0029673D01*
X0093240Y0029673D01*
X0093240Y0039673D01*
X0103240Y0039673D01*
X0110041Y0049673D02*
X0090041Y0069673D01*
X0083240Y0069673D01*
X0043240Y0069673D01*
X0043083Y0049673D01*
X0103240Y0069673D02*
X0113240Y0069673D01*
X0123240Y0059673D01*
X0123240Y0049673D02*
X0110041Y0049673D01*
X0133240Y0039673D02*
X0133240Y0029673D01*
X0146098Y0034404D02*
X0160828Y0019673D01*
X0173240Y0019673D01*
X0203240Y0019673D01*
X0233240Y0019673D01*
X0243240Y0019673D01*
X0243240Y0027610D01*
X0253240Y0037610D01*
X0253240Y0074673D01*
X0253240Y0079673D01*
X0253240Y0084673D01*
X0248240Y0089673D01*
X0223240Y0089673D01*
X0213240Y0079673D02*
X0203240Y0089673D01*
X0173240Y0089673D01*
X0153240Y0089673D01*
X0103240Y0089673D01*
X0093240Y0079673D01*
X0103240Y0079673D02*
X0103240Y0069673D01*
X0123240Y0069673D02*
X0153240Y0069673D01*
X0153240Y0051941D01*
X0146098Y0044798D01*
X0146098Y0034404D01*
X0153240Y0032458D02*
X0153240Y0039673D01*
X0153240Y0032458D02*
X0156025Y0029673D01*
X0163240Y0029673D01*
X0173240Y0029673D01*
X0190199Y0039673D02*
X0193240Y0036632D01*
X0193240Y0029673D01*
X0203240Y0029673D01*
X0213240Y0032222D02*
X0213240Y0039673D01*
X0203240Y0039673D02*
X0203240Y0049673D01*
X0203240Y0057767D01*
X0205146Y0059673D01*
X0213240Y0059673D01*
X0206577Y0059673D01*
X0196577Y0069673D01*
X0193240Y0069673D01*
X0183240Y0059673D02*
X0183240Y0053358D01*
X0179556Y0049673D01*
X0173240Y0049673D01*
X0173240Y0059673D01*
X0163240Y0069673D01*
X0153240Y0079673D02*
X0143240Y0079673D01*
X0213240Y0079673D02*
X0223240Y0079673D01*
X0243240Y0079673D01*
X0243240Y0059673D01*
X0233240Y0049673D02*
X0223240Y0059673D01*
X0223240Y0069673D01*
X0233240Y0049673D02*
X0243240Y0049673D01*
X0243240Y0039673D01*
X0233240Y0039673D01*
X0215789Y0029673D02*
X0213240Y0032222D01*
X0215789Y0029673D02*
X0223240Y0029673D01*
X0233240Y0029673D01*
X0190199Y0039673D02*
X0183240Y0039673D01*
X0173240Y0039673D02*
X0173240Y0049673D01*
M02*
