%
M48
M72
T01C0.03543
T02C0.04331
%
T01
X1100Y3033
X1100Y4033
X1100Y6033
X3100Y6033
X3100Y7033
X3100Y8033
X4100Y9033
X5100Y7033
X5100Y6033
X5100Y5033
X8100Y5033
X8100Y4033
X9100Y4033
X10100Y4033
X10100Y6033
X10100Y7033
X8100Y7033
X10100Y12033
X4100Y12033
X1100Y10033
T02
X6100Y9033
X6100Y11033
X8100Y9033
M30
