G75*
%MOIN*%
%OFA0B0*%
%FSLAX25Y25*%
%IPPOS*%
%LPD*%
%AMOC8*
5,1,8,0,0,1.08239X$1,22.5*
%
%ADD10C,0.00000*%
%ADD11C,0.07000*%
%ADD12R,0.07000X0.07000*%
%ADD13C,0.01600*%
%ADD14C,0.03100*%
D10*
X0001000Y0001000D02*
X0001000Y0181000D01*
X0301000Y0181000D01*
X0301000Y0001000D01*
X0001000Y0001000D01*
D11*
X0131000Y0051000D03*
X0141000Y0051000D03*
X0171000Y0051000D03*
X0161000Y0101000D03*
X0161000Y0121000D03*
X0181000Y0121000D03*
X0191000Y0121000D03*
X0201000Y0121000D03*
X0201000Y0101000D03*
X0131000Y0121000D03*
X0121000Y0131000D03*
X0111000Y0131000D03*
X0101000Y0131000D03*
X0091000Y0131000D03*
X0111000Y0121000D03*
X0111000Y0101000D03*
X0101000Y0101000D03*
X0121000Y0101000D03*
X0071000Y0131000D03*
X0061000Y0131000D03*
X0051000Y0131000D03*
X0051000Y0120843D03*
X0031000Y0120843D03*
X0031000Y0131000D03*
X0051000Y0100843D03*
X0061000Y0101000D03*
X0011000Y0161000D03*
X0121000Y0161000D03*
D12*
X0011000Y0171000D03*
X0151000Y0051000D03*
X0181000Y0051000D03*
D13*
X0181000Y0061000D02*
X0131000Y0061000D01*
X0141000Y0071000D02*
X0171000Y0071000D01*
X0151000Y0081000D02*
X0131000Y0101000D01*
X0121000Y0108500D02*
X0201000Y0108500D01*
X0181000Y0131000D02*
X0131000Y0131000D01*
X0111000Y0141000D02*
X0111000Y0171000D01*
X0151000Y0171000D02*
X0151000Y0141000D01*
X0191000Y0141000D02*
X0191000Y0171000D01*
X0101000Y0141000D02*
X0071000Y0141000D01*
X0061000Y0138500D02*
X0031000Y0138500D01*
X0051000Y0141000D02*
X0051000Y0171000D01*
X0061000Y0121000D02*
X0091000Y0121000D01*
X0091000Y0114000D02*
X0161000Y0114000D01*
X0151000Y0101000D02*
X0131000Y0081000D01*
D14*
X0131000Y0081000D03*
X0141000Y0071000D03*
X0151000Y0081000D03*
X0171000Y0071000D03*
X0181000Y0061000D03*
X0131000Y0061000D03*
X0131000Y0101000D03*
X0121000Y0108500D03*
X0091000Y0114000D03*
X0091000Y0121000D03*
X0061000Y0121000D03*
X0061000Y0138500D03*
X0071000Y0141000D03*
X0051000Y0141000D03*
X0031000Y0138500D03*
X0051000Y0171000D03*
X0101000Y0141000D03*
X0111000Y0141000D03*
X0131000Y0131000D03*
X0151000Y0141000D03*
X0181000Y0131000D03*
X0191000Y0141000D03*
X0161000Y0114000D03*
X0151000Y0101000D03*
X0201000Y0108500D03*
X0191000Y0171000D03*
X0151000Y0171000D03*
X0111000Y0171000D03*
M02*
