G75*
%MOIN*%
%OFA0B0*%
%FSLAX25Y25*%
%IPPOS*%
%LPD*%
%AMOC8*
5,1,8,0,0,1.08239X$1,22.5*
%
%ADD10C,0.07800*%
%ADD11R,0.07800X0.07800*%
%ADD12C,0.03900*%
D10*
X0131000Y0051000D03*
X0141000Y0051000D03*
X0121000Y0101000D03*
X0111000Y0101000D03*
X0101000Y0101000D03*
X0111000Y0121000D03*
X0111000Y0131000D03*
X0101000Y0131000D03*
X0091000Y0131000D03*
X0071000Y0131000D03*
X0061000Y0131000D03*
X0051000Y0131000D03*
X0051000Y0120843D03*
X0031000Y0120843D03*
X0051000Y0100843D03*
X0061000Y0101000D03*
X0121000Y0131000D03*
X0131000Y0121000D03*
X0161000Y0121000D03*
X0181000Y0121000D03*
X0191000Y0121000D03*
X0201000Y0121000D03*
X0201000Y0101000D03*
X0161000Y0101000D03*
X0121000Y0161000D03*
D11*
X0151000Y0051000D03*
D12*
X0131000Y0061000D03*
X0141000Y0071000D03*
X0131000Y0081000D03*
X0151000Y0081000D03*
X0171000Y0071000D03*
X0181000Y0061000D03*
X0151000Y0101000D03*
X0161000Y0114000D03*
X0181000Y0131000D03*
X0191000Y0141000D03*
X0151000Y0141000D03*
X0131000Y0131000D03*
X0111000Y0141000D03*
X0101000Y0141000D03*
X0071000Y0141000D03*
X0061000Y0138500D03*
X0051000Y0141000D03*
X0031000Y0138500D03*
X0061000Y0121000D03*
X0091000Y0121000D03*
X0091000Y0114000D03*
X0121000Y0108500D03*
X0131000Y0101000D03*
X0201000Y0108500D03*
X0191000Y0171000D03*
X0151000Y0171000D03*
X0111000Y0171000D03*
X0051000Y0171000D03*
M02*
