G75*
%MOIN*%
%OFA0B0*%
%FSLAX25Y25*%
%IPPOS*%
%LPD*%
%AMOC8*
5,1,8,0,0,1.08239X$1,22.5*
%
%ADD10C,0.00500*%
%ADD11C,0.00300*%
%ADD12C,0.00200*%
%ADD13C,0.00600*%
%ADD14R,0.02000X0.10000*%
%ADD15R,0.01000X0.04000*%
%ADD16C,0.00400*%
%ADD17C,0.00100*%
%ADD18R,0.04000X0.01000*%
%ADD19C,0.01000*%
%ADD20R,0.01500X0.02000*%
%ADD21C,0.01200*%
D10*
X0006236Y0016236D02*
X0016236Y0016236D01*
X0016236Y0036236D01*
X0016236Y0056236D01*
X0006236Y0056236D01*
X0006236Y0036236D01*
X0016236Y0036236D01*
X0006236Y0036236D01*
X0006236Y0016236D01*
X0028736Y0017736D02*
X0028736Y0024736D01*
X0031236Y0027236D02*
X0031334Y0027234D01*
X0031432Y0027228D01*
X0031530Y0027219D01*
X0031627Y0027205D01*
X0031724Y0027188D01*
X0031820Y0027167D01*
X0031915Y0027142D01*
X0032009Y0027114D01*
X0032101Y0027081D01*
X0032193Y0027046D01*
X0032283Y0027006D01*
X0032371Y0026964D01*
X0032458Y0026917D01*
X0032542Y0026868D01*
X0032625Y0026815D01*
X0032705Y0026759D01*
X0032784Y0026699D01*
X0032860Y0026637D01*
X0032933Y0026572D01*
X0033004Y0026504D01*
X0033072Y0026433D01*
X0033137Y0026360D01*
X0033199Y0026284D01*
X0033259Y0026205D01*
X0033315Y0026125D01*
X0033368Y0026042D01*
X0033417Y0025958D01*
X0033464Y0025871D01*
X0033506Y0025783D01*
X0033546Y0025693D01*
X0033581Y0025601D01*
X0033614Y0025509D01*
X0033642Y0025415D01*
X0033667Y0025320D01*
X0033688Y0025224D01*
X0033705Y0025127D01*
X0033719Y0025030D01*
X0033728Y0024932D01*
X0033734Y0024834D01*
X0033736Y0024736D01*
X0033736Y0017736D01*
X0031236Y0015236D02*
X0031138Y0015238D01*
X0031040Y0015244D01*
X0030942Y0015253D01*
X0030845Y0015267D01*
X0030748Y0015284D01*
X0030652Y0015305D01*
X0030557Y0015330D01*
X0030463Y0015358D01*
X0030371Y0015391D01*
X0030279Y0015426D01*
X0030189Y0015466D01*
X0030101Y0015508D01*
X0030014Y0015555D01*
X0029930Y0015604D01*
X0029847Y0015657D01*
X0029767Y0015713D01*
X0029688Y0015773D01*
X0029612Y0015835D01*
X0029539Y0015900D01*
X0029468Y0015968D01*
X0029400Y0016039D01*
X0029335Y0016112D01*
X0029273Y0016188D01*
X0029213Y0016267D01*
X0029157Y0016347D01*
X0029104Y0016430D01*
X0029055Y0016514D01*
X0029008Y0016601D01*
X0028966Y0016689D01*
X0028926Y0016779D01*
X0028891Y0016871D01*
X0028858Y0016963D01*
X0028830Y0017057D01*
X0028805Y0017152D01*
X0028784Y0017248D01*
X0028767Y0017345D01*
X0028753Y0017442D01*
X0028744Y0017540D01*
X0028738Y0017638D01*
X0028736Y0017736D01*
X0031236Y0015236D02*
X0031334Y0015238D01*
X0031432Y0015244D01*
X0031530Y0015253D01*
X0031627Y0015267D01*
X0031724Y0015284D01*
X0031820Y0015305D01*
X0031915Y0015330D01*
X0032009Y0015358D01*
X0032101Y0015391D01*
X0032193Y0015426D01*
X0032283Y0015466D01*
X0032371Y0015508D01*
X0032458Y0015555D01*
X0032542Y0015604D01*
X0032625Y0015657D01*
X0032705Y0015713D01*
X0032784Y0015773D01*
X0032860Y0015835D01*
X0032933Y0015900D01*
X0033004Y0015968D01*
X0033072Y0016039D01*
X0033137Y0016112D01*
X0033199Y0016188D01*
X0033259Y0016267D01*
X0033315Y0016347D01*
X0033368Y0016430D01*
X0033417Y0016514D01*
X0033464Y0016601D01*
X0033506Y0016689D01*
X0033546Y0016779D01*
X0033581Y0016871D01*
X0033614Y0016963D01*
X0033642Y0017057D01*
X0033667Y0017152D01*
X0033688Y0017248D01*
X0033705Y0017345D01*
X0033719Y0017442D01*
X0033728Y0017540D01*
X0033734Y0017638D01*
X0033736Y0017736D01*
X0031236Y0015236D02*
X0031138Y0015238D01*
X0031040Y0015244D01*
X0030942Y0015253D01*
X0030845Y0015267D01*
X0030748Y0015284D01*
X0030652Y0015305D01*
X0030557Y0015330D01*
X0030463Y0015358D01*
X0030371Y0015391D01*
X0030279Y0015426D01*
X0030189Y0015466D01*
X0030101Y0015508D01*
X0030014Y0015555D01*
X0029930Y0015604D01*
X0029847Y0015657D01*
X0029767Y0015713D01*
X0029688Y0015773D01*
X0029612Y0015835D01*
X0029539Y0015900D01*
X0029468Y0015968D01*
X0029400Y0016039D01*
X0029335Y0016112D01*
X0029273Y0016188D01*
X0029213Y0016267D01*
X0029157Y0016347D01*
X0029104Y0016430D01*
X0029055Y0016514D01*
X0029008Y0016601D01*
X0028966Y0016689D01*
X0028926Y0016779D01*
X0028891Y0016871D01*
X0028858Y0016963D01*
X0028830Y0017057D01*
X0028805Y0017152D01*
X0028784Y0017248D01*
X0028767Y0017345D01*
X0028753Y0017442D01*
X0028744Y0017540D01*
X0028738Y0017638D01*
X0028736Y0017736D01*
X0028736Y0024736D02*
X0028738Y0024834D01*
X0028744Y0024932D01*
X0028753Y0025030D01*
X0028767Y0025127D01*
X0028784Y0025224D01*
X0028805Y0025320D01*
X0028830Y0025415D01*
X0028858Y0025509D01*
X0028891Y0025601D01*
X0028926Y0025693D01*
X0028966Y0025783D01*
X0029008Y0025871D01*
X0029055Y0025958D01*
X0029104Y0026042D01*
X0029157Y0026125D01*
X0029213Y0026205D01*
X0029273Y0026284D01*
X0029335Y0026360D01*
X0029400Y0026433D01*
X0029468Y0026504D01*
X0029539Y0026572D01*
X0029612Y0026637D01*
X0029688Y0026699D01*
X0029767Y0026759D01*
X0029847Y0026815D01*
X0029930Y0026868D01*
X0030014Y0026917D01*
X0030101Y0026964D01*
X0030189Y0027006D01*
X0030279Y0027046D01*
X0030371Y0027081D01*
X0030463Y0027114D01*
X0030557Y0027142D01*
X0030652Y0027167D01*
X0030748Y0027188D01*
X0030845Y0027205D01*
X0030942Y0027219D01*
X0031040Y0027228D01*
X0031138Y0027234D01*
X0031236Y0027236D01*
X0036236Y0036236D02*
X0036236Y0006236D01*
X0046236Y0006236D01*
X0046236Y0036236D01*
X0036236Y0036236D01*
X0037736Y0038736D02*
X0044736Y0038736D01*
X0044834Y0038738D01*
X0044932Y0038744D01*
X0045030Y0038753D01*
X0045127Y0038767D01*
X0045224Y0038784D01*
X0045320Y0038805D01*
X0045415Y0038830D01*
X0045509Y0038858D01*
X0045601Y0038891D01*
X0045693Y0038926D01*
X0045783Y0038966D01*
X0045871Y0039008D01*
X0045958Y0039055D01*
X0046042Y0039104D01*
X0046125Y0039157D01*
X0046205Y0039213D01*
X0046284Y0039273D01*
X0046360Y0039335D01*
X0046433Y0039400D01*
X0046504Y0039468D01*
X0046572Y0039539D01*
X0046637Y0039612D01*
X0046699Y0039688D01*
X0046759Y0039767D01*
X0046815Y0039847D01*
X0046868Y0039930D01*
X0046917Y0040014D01*
X0046964Y0040101D01*
X0047006Y0040189D01*
X0047046Y0040279D01*
X0047081Y0040371D01*
X0047114Y0040463D01*
X0047142Y0040557D01*
X0047167Y0040652D01*
X0047188Y0040748D01*
X0047205Y0040845D01*
X0047219Y0040942D01*
X0047228Y0041040D01*
X0047234Y0041138D01*
X0047236Y0041236D01*
X0047234Y0041334D01*
X0047228Y0041432D01*
X0047219Y0041530D01*
X0047205Y0041627D01*
X0047188Y0041724D01*
X0047167Y0041820D01*
X0047142Y0041915D01*
X0047114Y0042009D01*
X0047081Y0042101D01*
X0047046Y0042193D01*
X0047006Y0042283D01*
X0046964Y0042371D01*
X0046917Y0042458D01*
X0046868Y0042542D01*
X0046815Y0042625D01*
X0046759Y0042705D01*
X0046699Y0042784D01*
X0046637Y0042860D01*
X0046572Y0042933D01*
X0046504Y0043004D01*
X0046433Y0043072D01*
X0046360Y0043137D01*
X0046284Y0043199D01*
X0046205Y0043259D01*
X0046125Y0043315D01*
X0046042Y0043368D01*
X0045958Y0043417D01*
X0045871Y0043464D01*
X0045783Y0043506D01*
X0045693Y0043546D01*
X0045601Y0043581D01*
X0045509Y0043614D01*
X0045415Y0043642D01*
X0045320Y0043667D01*
X0045224Y0043688D01*
X0045127Y0043705D01*
X0045030Y0043719D01*
X0044932Y0043728D01*
X0044834Y0043734D01*
X0044736Y0043736D01*
X0037736Y0043736D01*
X0037638Y0043734D01*
X0037540Y0043728D01*
X0037442Y0043719D01*
X0037345Y0043705D01*
X0037248Y0043688D01*
X0037152Y0043667D01*
X0037057Y0043642D01*
X0036963Y0043614D01*
X0036871Y0043581D01*
X0036779Y0043546D01*
X0036689Y0043506D01*
X0036601Y0043464D01*
X0036514Y0043417D01*
X0036430Y0043368D01*
X0036347Y0043315D01*
X0036267Y0043259D01*
X0036188Y0043199D01*
X0036112Y0043137D01*
X0036039Y0043072D01*
X0035968Y0043004D01*
X0035900Y0042933D01*
X0035835Y0042860D01*
X0035773Y0042784D01*
X0035713Y0042705D01*
X0035657Y0042625D01*
X0035604Y0042542D01*
X0035555Y0042458D01*
X0035508Y0042371D01*
X0035466Y0042283D01*
X0035426Y0042193D01*
X0035391Y0042101D01*
X0035358Y0042009D01*
X0035330Y0041915D01*
X0035305Y0041820D01*
X0035284Y0041724D01*
X0035267Y0041627D01*
X0035253Y0041530D01*
X0035244Y0041432D01*
X0035238Y0041334D01*
X0035236Y0041236D01*
X0035238Y0041138D01*
X0035244Y0041040D01*
X0035253Y0040942D01*
X0035267Y0040845D01*
X0035284Y0040748D01*
X0035305Y0040652D01*
X0035330Y0040557D01*
X0035358Y0040463D01*
X0035391Y0040371D01*
X0035426Y0040279D01*
X0035466Y0040189D01*
X0035508Y0040101D01*
X0035555Y0040014D01*
X0035604Y0039930D01*
X0035657Y0039847D01*
X0035713Y0039767D01*
X0035773Y0039688D01*
X0035835Y0039612D01*
X0035900Y0039539D01*
X0035968Y0039468D01*
X0036039Y0039400D01*
X0036112Y0039335D01*
X0036188Y0039273D01*
X0036267Y0039213D01*
X0036347Y0039157D01*
X0036430Y0039104D01*
X0036514Y0039055D01*
X0036601Y0039008D01*
X0036689Y0038966D01*
X0036779Y0038926D01*
X0036871Y0038891D01*
X0036963Y0038858D01*
X0037057Y0038830D01*
X0037152Y0038805D01*
X0037248Y0038784D01*
X0037345Y0038767D01*
X0037442Y0038753D01*
X0037540Y0038744D01*
X0037638Y0038738D01*
X0037736Y0038736D01*
X0044736Y0038736D02*
X0044834Y0038738D01*
X0044932Y0038744D01*
X0045030Y0038753D01*
X0045127Y0038767D01*
X0045224Y0038784D01*
X0045320Y0038805D01*
X0045415Y0038830D01*
X0045509Y0038858D01*
X0045601Y0038891D01*
X0045693Y0038926D01*
X0045783Y0038966D01*
X0045871Y0039008D01*
X0045958Y0039055D01*
X0046042Y0039104D01*
X0046125Y0039157D01*
X0046205Y0039213D01*
X0046284Y0039273D01*
X0046360Y0039335D01*
X0046433Y0039400D01*
X0046504Y0039468D01*
X0046572Y0039539D01*
X0046637Y0039612D01*
X0046699Y0039688D01*
X0046759Y0039767D01*
X0046815Y0039847D01*
X0046868Y0039930D01*
X0046917Y0040014D01*
X0046964Y0040101D01*
X0047006Y0040189D01*
X0047046Y0040279D01*
X0047081Y0040371D01*
X0047114Y0040463D01*
X0047142Y0040557D01*
X0047167Y0040652D01*
X0047188Y0040748D01*
X0047205Y0040845D01*
X0047219Y0040942D01*
X0047228Y0041040D01*
X0047234Y0041138D01*
X0047236Y0041236D01*
X0070736Y0060748D02*
X0070736Y0081724D01*
X0064736Y0079484D02*
X0064736Y0062988D01*
X0064737Y0062988D02*
X0064934Y0062836D01*
X0065136Y0062689D01*
X0065340Y0062546D01*
X0065548Y0062409D01*
X0065759Y0062276D01*
X0065974Y0062148D01*
X0066191Y0062026D01*
X0066411Y0061909D01*
X0066634Y0061797D01*
X0066859Y0061690D01*
X0070736Y0060748D02*
X0070992Y0060739D01*
X0071248Y0060736D01*
X0071504Y0060739D01*
X0071760Y0060749D01*
X0072015Y0060765D01*
X0072270Y0060787D01*
X0072525Y0060815D01*
X0072778Y0060850D01*
X0073031Y0060891D01*
X0073283Y0060937D01*
X0073533Y0060990D01*
X0073782Y0061049D01*
X0074030Y0061115D01*
X0074276Y0061186D01*
X0074520Y0061263D01*
X0074762Y0061346D01*
X0075002Y0061435D01*
X0075240Y0061529D01*
X0075475Y0061630D01*
X0075708Y0061736D01*
X0084736Y0059484D02*
X0084736Y0042988D01*
X0090736Y0040748D02*
X0090736Y0061724D01*
X0086765Y0060738D02*
X0086550Y0060634D01*
X0086337Y0060525D01*
X0086127Y0060411D01*
X0085920Y0060292D01*
X0085715Y0060169D01*
X0085513Y0060041D01*
X0085314Y0059908D01*
X0085119Y0059771D01*
X0084926Y0059630D01*
X0084737Y0059484D01*
X0090736Y0061724D02*
X0090992Y0061733D01*
X0091248Y0061736D01*
X0091504Y0061733D01*
X0091760Y0061723D01*
X0092015Y0061707D01*
X0092270Y0061685D01*
X0092525Y0061657D01*
X0092778Y0061622D01*
X0093031Y0061581D01*
X0093283Y0061535D01*
X0093533Y0061482D01*
X0093782Y0061423D01*
X0094030Y0061357D01*
X0094276Y0061286D01*
X0094520Y0061209D01*
X0094762Y0061126D01*
X0095002Y0061037D01*
X0095240Y0060943D01*
X0095475Y0060842D01*
X0095708Y0060736D01*
X0090737Y0061724D02*
X0090480Y0061709D01*
X0090223Y0061687D01*
X0089967Y0061659D01*
X0089712Y0061625D01*
X0089458Y0061584D01*
X0089205Y0061537D01*
X0088953Y0061484D01*
X0088702Y0061425D01*
X0088453Y0061360D01*
X0088206Y0061289D01*
X0087960Y0061212D01*
X0087716Y0061128D01*
X0087475Y0061039D01*
X0087236Y0060944D01*
X0086999Y0060843D01*
X0086765Y0060736D01*
X0090736Y0040748D02*
X0090992Y0040739D01*
X0091248Y0040736D01*
X0091504Y0040739D01*
X0091760Y0040749D01*
X0092015Y0040765D01*
X0092270Y0040787D01*
X0092525Y0040815D01*
X0092778Y0040850D01*
X0093031Y0040891D01*
X0093283Y0040937D01*
X0093533Y0040990D01*
X0093782Y0041049D01*
X0094030Y0041115D01*
X0094276Y0041186D01*
X0094520Y0041263D01*
X0094762Y0041346D01*
X0095002Y0041435D01*
X0095240Y0041529D01*
X0095475Y0041630D01*
X0095708Y0041736D01*
X0086859Y0041690D02*
X0086634Y0041797D01*
X0086411Y0041909D01*
X0086191Y0042026D01*
X0085974Y0042148D01*
X0085759Y0042276D01*
X0085548Y0042409D01*
X0085340Y0042546D01*
X0085136Y0042689D01*
X0084934Y0042836D01*
X0084737Y0042988D01*
X0095708Y0041736D02*
X0095938Y0041848D01*
X0096165Y0041965D01*
X0096389Y0042087D01*
X0096610Y0042215D01*
X0096827Y0042349D01*
X0097042Y0042487D01*
X0097253Y0042631D01*
X0097460Y0042780D01*
X0097664Y0042934D01*
X0097864Y0043092D01*
X0098060Y0043256D01*
X0098252Y0043424D01*
X0098440Y0043597D01*
X0098624Y0043775D01*
X0098803Y0043956D01*
X0098978Y0044143D01*
X0099148Y0044333D01*
X0099313Y0044527D01*
X0099474Y0044726D01*
X0099630Y0044928D01*
X0099781Y0045134D01*
X0099927Y0045344D01*
X0100067Y0045557D01*
X0100203Y0045773D01*
X0100333Y0045993D01*
X0100458Y0046216D01*
X0100577Y0046441D01*
X0100691Y0046670D01*
X0100799Y0046901D01*
X0100902Y0047135D01*
X0100999Y0047371D01*
X0101090Y0047610D01*
X0101175Y0047850D01*
X0101255Y0048093D01*
X0101328Y0048338D01*
X0101396Y0048584D01*
X0101457Y0048832D01*
X0101512Y0049081D01*
X0101562Y0049331D01*
X0101605Y0049583D01*
X0101642Y0049836D01*
X0101673Y0050089D01*
X0101698Y0050343D01*
X0101717Y0050598D01*
X0101729Y0050853D01*
X0101735Y0051108D01*
X0101735Y0051364D01*
X0101729Y0051619D01*
X0101717Y0051874D01*
X0101698Y0052129D01*
X0101673Y0052383D01*
X0101642Y0052636D01*
X0101605Y0052889D01*
X0101562Y0053141D01*
X0101512Y0053391D01*
X0101457Y0053640D01*
X0101396Y0053888D01*
X0101328Y0054134D01*
X0101255Y0054379D01*
X0101175Y0054622D01*
X0101090Y0054862D01*
X0100999Y0055101D01*
X0100902Y0055337D01*
X0100799Y0055571D01*
X0100691Y0055802D01*
X0100577Y0056031D01*
X0100458Y0056256D01*
X0100333Y0056479D01*
X0100203Y0056699D01*
X0100067Y0056915D01*
X0099927Y0057128D01*
X0099781Y0057338D01*
X0099630Y0057544D01*
X0099474Y0057746D01*
X0099313Y0057945D01*
X0099148Y0058139D01*
X0098978Y0058329D01*
X0098803Y0058516D01*
X0098624Y0058697D01*
X0098440Y0058875D01*
X0098252Y0059048D01*
X0098060Y0059216D01*
X0097864Y0059380D01*
X0097664Y0059538D01*
X0097460Y0059692D01*
X0097253Y0059841D01*
X0097042Y0059985D01*
X0096827Y0060123D01*
X0096610Y0060257D01*
X0096389Y0060385D01*
X0096165Y0060507D01*
X0095938Y0060624D01*
X0095708Y0060736D01*
X0090737Y0040748D02*
X0090480Y0040763D01*
X0090223Y0040785D01*
X0089967Y0040813D01*
X0089712Y0040847D01*
X0089458Y0040888D01*
X0089205Y0040935D01*
X0088953Y0040988D01*
X0088702Y0041047D01*
X0088453Y0041112D01*
X0088206Y0041183D01*
X0087960Y0041260D01*
X0087716Y0041344D01*
X0087475Y0041433D01*
X0087236Y0041528D01*
X0086999Y0041629D01*
X0086765Y0041736D01*
X0070737Y0060748D02*
X0070480Y0060763D01*
X0070223Y0060785D01*
X0069967Y0060813D01*
X0069712Y0060847D01*
X0069458Y0060888D01*
X0069205Y0060935D01*
X0068953Y0060988D01*
X0068702Y0061047D01*
X0068453Y0061112D01*
X0068206Y0061183D01*
X0067960Y0061260D01*
X0067716Y0061344D01*
X0067475Y0061433D01*
X0067236Y0061528D01*
X0066999Y0061629D01*
X0066765Y0061736D01*
X0070736Y0081724D02*
X0070992Y0081733D01*
X0071248Y0081736D01*
X0071504Y0081733D01*
X0071760Y0081723D01*
X0072015Y0081707D01*
X0072270Y0081685D01*
X0072525Y0081657D01*
X0072778Y0081622D01*
X0073031Y0081581D01*
X0073283Y0081535D01*
X0073533Y0081482D01*
X0073782Y0081423D01*
X0074030Y0081357D01*
X0074276Y0081286D01*
X0074520Y0081209D01*
X0074762Y0081126D01*
X0075002Y0081037D01*
X0075240Y0080943D01*
X0075475Y0080842D01*
X0075708Y0080736D01*
X0083641Y0087563D02*
X0087009Y0084195D01*
X0083641Y0087563D02*
X0083754Y0089039D01*
X0083867Y0090516D01*
X0085150Y0091799D01*
X0088497Y0088453D01*
X0087386Y0089698D02*
X0092793Y0095105D01*
X0094006Y0093962D02*
X0090660Y0097308D01*
X0091943Y0098592D01*
X0093414Y0098699D01*
X0094885Y0098805D01*
X0098094Y0095597D01*
X0093129Y0096516D02*
X0093131Y0096579D01*
X0093137Y0096641D01*
X0093147Y0096703D01*
X0093160Y0096765D01*
X0093178Y0096825D01*
X0093199Y0096884D01*
X0093224Y0096942D01*
X0093253Y0096998D01*
X0093285Y0097052D01*
X0093320Y0097104D01*
X0093358Y0097153D01*
X0093400Y0097201D01*
X0093444Y0097245D01*
X0093492Y0097287D01*
X0093541Y0097325D01*
X0093593Y0097360D01*
X0093647Y0097392D01*
X0093703Y0097421D01*
X0093761Y0097446D01*
X0093820Y0097467D01*
X0093880Y0097485D01*
X0093942Y0097498D01*
X0094004Y0097508D01*
X0094066Y0097514D01*
X0094129Y0097516D01*
X0094192Y0097514D01*
X0094254Y0097508D01*
X0094316Y0097498D01*
X0094378Y0097485D01*
X0094438Y0097467D01*
X0094497Y0097446D01*
X0094555Y0097421D01*
X0094611Y0097392D01*
X0094665Y0097360D01*
X0094717Y0097325D01*
X0094766Y0097287D01*
X0094814Y0097245D01*
X0094858Y0097201D01*
X0094900Y0097153D01*
X0094938Y0097104D01*
X0094973Y0097052D01*
X0095005Y0096998D01*
X0095034Y0096942D01*
X0095059Y0096884D01*
X0095080Y0096825D01*
X0095098Y0096765D01*
X0095111Y0096703D01*
X0095121Y0096641D01*
X0095127Y0096579D01*
X0095129Y0096516D01*
X0095127Y0096453D01*
X0095121Y0096391D01*
X0095111Y0096329D01*
X0095098Y0096267D01*
X0095080Y0096207D01*
X0095059Y0096148D01*
X0095034Y0096090D01*
X0095005Y0096034D01*
X0094973Y0095980D01*
X0094938Y0095928D01*
X0094900Y0095879D01*
X0094858Y0095831D01*
X0094814Y0095787D01*
X0094766Y0095745D01*
X0094717Y0095707D01*
X0094665Y0095672D01*
X0094611Y0095640D01*
X0094555Y0095611D01*
X0094497Y0095586D01*
X0094438Y0095565D01*
X0094378Y0095547D01*
X0094316Y0095534D01*
X0094254Y0095524D01*
X0094192Y0095518D01*
X0094129Y0095516D01*
X0094066Y0095518D01*
X0094004Y0095524D01*
X0093942Y0095534D01*
X0093880Y0095547D01*
X0093820Y0095565D01*
X0093761Y0095586D01*
X0093703Y0095611D01*
X0093647Y0095640D01*
X0093593Y0095672D01*
X0093541Y0095707D01*
X0093492Y0095745D01*
X0093444Y0095787D01*
X0093400Y0095831D01*
X0093358Y0095879D01*
X0093320Y0095928D01*
X0093285Y0095980D01*
X0093253Y0096034D01*
X0093224Y0096090D01*
X0093199Y0096148D01*
X0093178Y0096207D01*
X0093160Y0096267D01*
X0093147Y0096329D01*
X0093137Y0096391D01*
X0093131Y0096453D01*
X0093129Y0096516D01*
X0091296Y0096725D02*
X0088515Y0093944D01*
X0085984Y0091413D01*
X0084876Y0088318D02*
X0084878Y0088381D01*
X0084884Y0088443D01*
X0084894Y0088505D01*
X0084907Y0088567D01*
X0084925Y0088627D01*
X0084946Y0088686D01*
X0084971Y0088744D01*
X0085000Y0088800D01*
X0085032Y0088854D01*
X0085067Y0088906D01*
X0085105Y0088955D01*
X0085147Y0089003D01*
X0085191Y0089047D01*
X0085239Y0089089D01*
X0085288Y0089127D01*
X0085340Y0089162D01*
X0085394Y0089194D01*
X0085450Y0089223D01*
X0085508Y0089248D01*
X0085567Y0089269D01*
X0085627Y0089287D01*
X0085689Y0089300D01*
X0085751Y0089310D01*
X0085813Y0089316D01*
X0085876Y0089318D01*
X0085939Y0089316D01*
X0086001Y0089310D01*
X0086063Y0089300D01*
X0086125Y0089287D01*
X0086185Y0089269D01*
X0086244Y0089248D01*
X0086302Y0089223D01*
X0086358Y0089194D01*
X0086412Y0089162D01*
X0086464Y0089127D01*
X0086513Y0089089D01*
X0086561Y0089047D01*
X0086605Y0089003D01*
X0086647Y0088955D01*
X0086685Y0088906D01*
X0086720Y0088854D01*
X0086752Y0088800D01*
X0086781Y0088744D01*
X0086806Y0088686D01*
X0086827Y0088627D01*
X0086845Y0088567D01*
X0086858Y0088505D01*
X0086868Y0088443D01*
X0086874Y0088381D01*
X0086876Y0088318D01*
X0086874Y0088255D01*
X0086868Y0088193D01*
X0086858Y0088131D01*
X0086845Y0088069D01*
X0086827Y0088009D01*
X0086806Y0087950D01*
X0086781Y0087892D01*
X0086752Y0087836D01*
X0086720Y0087782D01*
X0086685Y0087730D01*
X0086647Y0087681D01*
X0086605Y0087633D01*
X0086561Y0087589D01*
X0086513Y0087547D01*
X0086464Y0087509D01*
X0086412Y0087474D01*
X0086358Y0087442D01*
X0086302Y0087413D01*
X0086244Y0087388D01*
X0086185Y0087367D01*
X0086125Y0087349D01*
X0086063Y0087336D01*
X0086001Y0087326D01*
X0085939Y0087320D01*
X0085876Y0087318D01*
X0085813Y0087320D01*
X0085751Y0087326D01*
X0085689Y0087336D01*
X0085627Y0087349D01*
X0085567Y0087367D01*
X0085508Y0087388D01*
X0085450Y0087413D01*
X0085394Y0087442D01*
X0085340Y0087474D01*
X0085288Y0087509D01*
X0085239Y0087547D01*
X0085191Y0087589D01*
X0085147Y0087633D01*
X0085105Y0087681D01*
X0085067Y0087730D01*
X0085032Y0087782D01*
X0085000Y0087836D01*
X0084971Y0087892D01*
X0084946Y0087950D01*
X0084925Y0088009D01*
X0084907Y0088069D01*
X0084894Y0088131D01*
X0084884Y0088193D01*
X0084878Y0088255D01*
X0084876Y0088318D01*
X0097227Y0078739D02*
X0103736Y0085248D01*
X0105340Y0083644D02*
X0098831Y0077135D01*
X0087901Y0081236D02*
X0087905Y0081563D01*
X0087917Y0081890D01*
X0087937Y0082217D01*
X0087965Y0082543D01*
X0088001Y0082868D01*
X0088045Y0083193D01*
X0088097Y0083516D01*
X0088157Y0083838D01*
X0088225Y0084158D01*
X0088301Y0084476D01*
X0088384Y0084793D01*
X0088475Y0085107D01*
X0088574Y0085419D01*
X0088681Y0085728D01*
X0088795Y0086035D01*
X0088916Y0086339D01*
X0089045Y0086640D01*
X0089181Y0086937D01*
X0089325Y0087232D01*
X0089476Y0087522D01*
X0089633Y0087809D01*
X0089798Y0088092D01*
X0089970Y0088370D01*
X0090148Y0088645D01*
X0090334Y0088914D01*
X0090525Y0089180D01*
X0090723Y0089440D01*
X0090928Y0089696D01*
X0091139Y0089946D01*
X0091355Y0090191D01*
X0091578Y0090431D01*
X0091807Y0090665D01*
X0092041Y0090894D01*
X0092281Y0091117D01*
X0092526Y0091333D01*
X0092776Y0091544D01*
X0093032Y0091749D01*
X0093292Y0091947D01*
X0093558Y0092138D01*
X0093827Y0092324D01*
X0094102Y0092502D01*
X0094380Y0092674D01*
X0094663Y0092839D01*
X0094950Y0092996D01*
X0095240Y0093147D01*
X0095535Y0093291D01*
X0095832Y0093427D01*
X0096133Y0093556D01*
X0096437Y0093677D01*
X0096744Y0093791D01*
X0097053Y0093898D01*
X0097365Y0093997D01*
X0097679Y0094088D01*
X0097996Y0094171D01*
X0098314Y0094247D01*
X0098634Y0094315D01*
X0098956Y0094375D01*
X0099279Y0094427D01*
X0099604Y0094471D01*
X0099929Y0094507D01*
X0100255Y0094535D01*
X0100582Y0094555D01*
X0100909Y0094567D01*
X0101236Y0094571D01*
X0101563Y0094567D01*
X0101890Y0094555D01*
X0102217Y0094535D01*
X0102543Y0094507D01*
X0102868Y0094471D01*
X0103193Y0094427D01*
X0103516Y0094375D01*
X0103838Y0094315D01*
X0104158Y0094247D01*
X0104476Y0094171D01*
X0104793Y0094088D01*
X0105107Y0093997D01*
X0105419Y0093898D01*
X0105728Y0093791D01*
X0106035Y0093677D01*
X0106339Y0093556D01*
X0106640Y0093427D01*
X0106937Y0093291D01*
X0107232Y0093147D01*
X0107522Y0092996D01*
X0107809Y0092839D01*
X0108092Y0092674D01*
X0108370Y0092502D01*
X0108645Y0092324D01*
X0108914Y0092138D01*
X0109180Y0091947D01*
X0109440Y0091749D01*
X0109696Y0091544D01*
X0109946Y0091333D01*
X0110191Y0091117D01*
X0110431Y0090894D01*
X0110665Y0090665D01*
X0110894Y0090431D01*
X0111117Y0090191D01*
X0111333Y0089946D01*
X0111544Y0089696D01*
X0111749Y0089440D01*
X0111947Y0089180D01*
X0112138Y0088914D01*
X0112324Y0088645D01*
X0112502Y0088370D01*
X0112674Y0088092D01*
X0112839Y0087809D01*
X0112996Y0087522D01*
X0113147Y0087232D01*
X0113291Y0086937D01*
X0113427Y0086640D01*
X0113556Y0086339D01*
X0113677Y0086035D01*
X0113791Y0085728D01*
X0113898Y0085419D01*
X0113997Y0085107D01*
X0114088Y0084793D01*
X0114171Y0084476D01*
X0114247Y0084158D01*
X0114315Y0083838D01*
X0114375Y0083516D01*
X0114427Y0083193D01*
X0114471Y0082868D01*
X0114507Y0082543D01*
X0114535Y0082217D01*
X0114555Y0081890D01*
X0114567Y0081563D01*
X0114571Y0081236D01*
X0114567Y0080909D01*
X0114555Y0080582D01*
X0114535Y0080255D01*
X0114507Y0079929D01*
X0114471Y0079604D01*
X0114427Y0079279D01*
X0114375Y0078956D01*
X0114315Y0078634D01*
X0114247Y0078314D01*
X0114171Y0077996D01*
X0114088Y0077679D01*
X0113997Y0077365D01*
X0113898Y0077053D01*
X0113791Y0076744D01*
X0113677Y0076437D01*
X0113556Y0076133D01*
X0113427Y0075832D01*
X0113291Y0075535D01*
X0113147Y0075240D01*
X0112996Y0074950D01*
X0112839Y0074663D01*
X0112674Y0074380D01*
X0112502Y0074102D01*
X0112324Y0073827D01*
X0112138Y0073558D01*
X0111947Y0073292D01*
X0111749Y0073032D01*
X0111544Y0072776D01*
X0111333Y0072526D01*
X0111117Y0072281D01*
X0110894Y0072041D01*
X0110665Y0071807D01*
X0110431Y0071578D01*
X0110191Y0071355D01*
X0109946Y0071139D01*
X0109696Y0070928D01*
X0109440Y0070723D01*
X0109180Y0070525D01*
X0108914Y0070334D01*
X0108645Y0070148D01*
X0108370Y0069970D01*
X0108092Y0069798D01*
X0107809Y0069633D01*
X0107522Y0069476D01*
X0107232Y0069325D01*
X0106937Y0069181D01*
X0106640Y0069045D01*
X0106339Y0068916D01*
X0106035Y0068795D01*
X0105728Y0068681D01*
X0105419Y0068574D01*
X0105107Y0068475D01*
X0104793Y0068384D01*
X0104476Y0068301D01*
X0104158Y0068225D01*
X0103838Y0068157D01*
X0103516Y0068097D01*
X0103193Y0068045D01*
X0102868Y0068001D01*
X0102543Y0067965D01*
X0102217Y0067937D01*
X0101890Y0067917D01*
X0101563Y0067905D01*
X0101236Y0067901D01*
X0100909Y0067905D01*
X0100582Y0067917D01*
X0100255Y0067937D01*
X0099929Y0067965D01*
X0099604Y0068001D01*
X0099279Y0068045D01*
X0098956Y0068097D01*
X0098634Y0068157D01*
X0098314Y0068225D01*
X0097996Y0068301D01*
X0097679Y0068384D01*
X0097365Y0068475D01*
X0097053Y0068574D01*
X0096744Y0068681D01*
X0096437Y0068795D01*
X0096133Y0068916D01*
X0095832Y0069045D01*
X0095535Y0069181D01*
X0095240Y0069325D01*
X0094950Y0069476D01*
X0094663Y0069633D01*
X0094380Y0069798D01*
X0094102Y0069970D01*
X0093827Y0070148D01*
X0093558Y0070334D01*
X0093292Y0070525D01*
X0093032Y0070723D01*
X0092776Y0070928D01*
X0092526Y0071139D01*
X0092281Y0071355D01*
X0092041Y0071578D01*
X0091807Y0071807D01*
X0091578Y0072041D01*
X0091355Y0072281D01*
X0091139Y0072526D01*
X0090928Y0072776D01*
X0090723Y0073032D01*
X0090525Y0073292D01*
X0090334Y0073558D01*
X0090148Y0073827D01*
X0089970Y0074102D01*
X0089798Y0074380D01*
X0089633Y0074663D01*
X0089476Y0074950D01*
X0089325Y0075240D01*
X0089181Y0075535D01*
X0089045Y0075832D01*
X0088916Y0076133D01*
X0088795Y0076437D01*
X0088681Y0076744D01*
X0088574Y0077053D01*
X0088475Y0077365D01*
X0088384Y0077679D01*
X0088301Y0077996D01*
X0088225Y0078314D01*
X0088157Y0078634D01*
X0088097Y0078956D01*
X0088045Y0079279D01*
X0088001Y0079604D01*
X0087965Y0079929D01*
X0087937Y0080255D01*
X0087917Y0080582D01*
X0087905Y0080909D01*
X0087901Y0081236D01*
X0086792Y0081236D02*
X0086796Y0081590D01*
X0086809Y0081945D01*
X0086831Y0082299D01*
X0086862Y0082652D01*
X0086901Y0083004D01*
X0086948Y0083355D01*
X0087005Y0083705D01*
X0087070Y0084054D01*
X0087143Y0084401D01*
X0087225Y0084746D01*
X0087315Y0085088D01*
X0087414Y0085429D01*
X0087521Y0085767D01*
X0087636Y0086102D01*
X0087760Y0086434D01*
X0087891Y0086763D01*
X0088031Y0087089D01*
X0088179Y0087412D01*
X0088334Y0087730D01*
X0088498Y0088045D01*
X0088668Y0088355D01*
X0088847Y0088662D01*
X0089033Y0088964D01*
X0089226Y0089261D01*
X0089427Y0089553D01*
X0089634Y0089840D01*
X0089849Y0090122D01*
X0090071Y0090399D01*
X0090299Y0090670D01*
X0090534Y0090936D01*
X0090775Y0091196D01*
X0091023Y0091449D01*
X0091276Y0091697D01*
X0091536Y0091938D01*
X0091802Y0092173D01*
X0092073Y0092401D01*
X0092350Y0092623D01*
X0092632Y0092838D01*
X0092919Y0093045D01*
X0093211Y0093246D01*
X0093508Y0093439D01*
X0093810Y0093625D01*
X0094117Y0093804D01*
X0094427Y0093974D01*
X0094742Y0094138D01*
X0095060Y0094293D01*
X0095383Y0094441D01*
X0095709Y0094581D01*
X0096038Y0094712D01*
X0096370Y0094836D01*
X0096705Y0094951D01*
X0097043Y0095058D01*
X0097384Y0095157D01*
X0097726Y0095247D01*
X0098071Y0095329D01*
X0098418Y0095402D01*
X0098767Y0095467D01*
X0099117Y0095524D01*
X0099468Y0095571D01*
X0099820Y0095610D01*
X0100173Y0095641D01*
X0100527Y0095663D01*
X0100882Y0095676D01*
X0101236Y0095680D01*
X0101590Y0095676D01*
X0101945Y0095663D01*
X0102299Y0095641D01*
X0102652Y0095610D01*
X0103004Y0095571D01*
X0103355Y0095524D01*
X0103705Y0095467D01*
X0104054Y0095402D01*
X0104401Y0095329D01*
X0104746Y0095247D01*
X0105088Y0095157D01*
X0105429Y0095058D01*
X0105767Y0094951D01*
X0106102Y0094836D01*
X0106434Y0094712D01*
X0106763Y0094581D01*
X0107089Y0094441D01*
X0107412Y0094293D01*
X0107730Y0094138D01*
X0108045Y0093974D01*
X0108355Y0093804D01*
X0108662Y0093625D01*
X0108964Y0093439D01*
X0109261Y0093246D01*
X0109553Y0093045D01*
X0109840Y0092838D01*
X0110122Y0092623D01*
X0110399Y0092401D01*
X0110670Y0092173D01*
X0110936Y0091938D01*
X0111196Y0091697D01*
X0111449Y0091449D01*
X0111697Y0091196D01*
X0111938Y0090936D01*
X0112173Y0090670D01*
X0112401Y0090399D01*
X0112623Y0090122D01*
X0112838Y0089840D01*
X0113045Y0089553D01*
X0113246Y0089261D01*
X0113439Y0088964D01*
X0113625Y0088662D01*
X0113804Y0088355D01*
X0113974Y0088045D01*
X0114138Y0087730D01*
X0114293Y0087412D01*
X0114441Y0087089D01*
X0114581Y0086763D01*
X0114712Y0086434D01*
X0114836Y0086102D01*
X0114951Y0085767D01*
X0115058Y0085429D01*
X0115157Y0085088D01*
X0115247Y0084746D01*
X0115329Y0084401D01*
X0115402Y0084054D01*
X0115467Y0083705D01*
X0115524Y0083355D01*
X0115571Y0083004D01*
X0115610Y0082652D01*
X0115641Y0082299D01*
X0115663Y0081945D01*
X0115676Y0081590D01*
X0115680Y0081236D01*
X0115676Y0080882D01*
X0115663Y0080527D01*
X0115641Y0080173D01*
X0115610Y0079820D01*
X0115571Y0079468D01*
X0115524Y0079117D01*
X0115467Y0078767D01*
X0115402Y0078418D01*
X0115329Y0078071D01*
X0115247Y0077726D01*
X0115157Y0077384D01*
X0115058Y0077043D01*
X0114951Y0076705D01*
X0114836Y0076370D01*
X0114712Y0076038D01*
X0114581Y0075709D01*
X0114441Y0075383D01*
X0114293Y0075060D01*
X0114138Y0074742D01*
X0113974Y0074427D01*
X0113804Y0074117D01*
X0113625Y0073810D01*
X0113439Y0073508D01*
X0113246Y0073211D01*
X0113045Y0072919D01*
X0112838Y0072632D01*
X0112623Y0072350D01*
X0112401Y0072073D01*
X0112173Y0071802D01*
X0111938Y0071536D01*
X0111697Y0071276D01*
X0111449Y0071023D01*
X0111196Y0070775D01*
X0110936Y0070534D01*
X0110670Y0070299D01*
X0110399Y0070071D01*
X0110122Y0069849D01*
X0109840Y0069634D01*
X0109553Y0069427D01*
X0109261Y0069226D01*
X0108964Y0069033D01*
X0108662Y0068847D01*
X0108355Y0068668D01*
X0108045Y0068498D01*
X0107730Y0068334D01*
X0107412Y0068179D01*
X0107089Y0068031D01*
X0106763Y0067891D01*
X0106434Y0067760D01*
X0106102Y0067636D01*
X0105767Y0067521D01*
X0105429Y0067414D01*
X0105088Y0067315D01*
X0104746Y0067225D01*
X0104401Y0067143D01*
X0104054Y0067070D01*
X0103705Y0067005D01*
X0103355Y0066948D01*
X0103004Y0066901D01*
X0102652Y0066862D01*
X0102299Y0066831D01*
X0101945Y0066809D01*
X0101590Y0066796D01*
X0101236Y0066792D01*
X0100882Y0066796D01*
X0100527Y0066809D01*
X0100173Y0066831D01*
X0099820Y0066862D01*
X0099468Y0066901D01*
X0099117Y0066948D01*
X0098767Y0067005D01*
X0098418Y0067070D01*
X0098071Y0067143D01*
X0097726Y0067225D01*
X0097384Y0067315D01*
X0097043Y0067414D01*
X0096705Y0067521D01*
X0096370Y0067636D01*
X0096038Y0067760D01*
X0095709Y0067891D01*
X0095383Y0068031D01*
X0095060Y0068179D01*
X0094742Y0068334D01*
X0094427Y0068498D01*
X0094117Y0068668D01*
X0093810Y0068847D01*
X0093508Y0069033D01*
X0093211Y0069226D01*
X0092919Y0069427D01*
X0092632Y0069634D01*
X0092350Y0069849D01*
X0092073Y0070071D01*
X0091802Y0070299D01*
X0091536Y0070534D01*
X0091276Y0070775D01*
X0091023Y0071023D01*
X0090775Y0071276D01*
X0090534Y0071536D01*
X0090299Y0071802D01*
X0090071Y0072073D01*
X0089849Y0072350D01*
X0089634Y0072632D01*
X0089427Y0072919D01*
X0089226Y0073211D01*
X0089033Y0073508D01*
X0088847Y0073810D01*
X0088668Y0074117D01*
X0088498Y0074427D01*
X0088334Y0074742D01*
X0088179Y0075060D01*
X0088031Y0075383D01*
X0087891Y0075709D01*
X0087760Y0076038D01*
X0087636Y0076370D01*
X0087521Y0076705D01*
X0087414Y0077043D01*
X0087315Y0077384D01*
X0087225Y0077726D01*
X0087143Y0078071D01*
X0087070Y0078418D01*
X0087005Y0078767D01*
X0086948Y0079117D01*
X0086901Y0079468D01*
X0086862Y0079820D01*
X0086831Y0080173D01*
X0086809Y0080527D01*
X0086796Y0080882D01*
X0086792Y0081236D01*
X0066765Y0080738D02*
X0066550Y0080634D01*
X0066337Y0080525D01*
X0066127Y0080411D01*
X0065920Y0080292D01*
X0065715Y0080169D01*
X0065513Y0080041D01*
X0065314Y0079908D01*
X0065119Y0079771D01*
X0064926Y0079630D01*
X0064737Y0079484D01*
X0075708Y0080736D02*
X0075938Y0080624D01*
X0076165Y0080507D01*
X0076389Y0080385D01*
X0076610Y0080257D01*
X0076827Y0080123D01*
X0077042Y0079985D01*
X0077253Y0079841D01*
X0077460Y0079692D01*
X0077664Y0079538D01*
X0077864Y0079380D01*
X0078060Y0079216D01*
X0078252Y0079048D01*
X0078440Y0078875D01*
X0078624Y0078697D01*
X0078803Y0078516D01*
X0078978Y0078329D01*
X0079148Y0078139D01*
X0079313Y0077945D01*
X0079474Y0077746D01*
X0079630Y0077544D01*
X0079781Y0077338D01*
X0079927Y0077128D01*
X0080067Y0076915D01*
X0080203Y0076699D01*
X0080333Y0076479D01*
X0080458Y0076256D01*
X0080577Y0076031D01*
X0080691Y0075802D01*
X0080799Y0075571D01*
X0080902Y0075337D01*
X0080999Y0075101D01*
X0081090Y0074862D01*
X0081175Y0074622D01*
X0081255Y0074379D01*
X0081328Y0074134D01*
X0081396Y0073888D01*
X0081457Y0073640D01*
X0081512Y0073391D01*
X0081562Y0073141D01*
X0081605Y0072889D01*
X0081642Y0072636D01*
X0081673Y0072383D01*
X0081698Y0072129D01*
X0081717Y0071874D01*
X0081729Y0071619D01*
X0081735Y0071364D01*
X0081735Y0071108D01*
X0081729Y0070853D01*
X0081717Y0070598D01*
X0081698Y0070343D01*
X0081673Y0070089D01*
X0081642Y0069836D01*
X0081605Y0069583D01*
X0081562Y0069331D01*
X0081512Y0069081D01*
X0081457Y0068832D01*
X0081396Y0068584D01*
X0081328Y0068338D01*
X0081255Y0068093D01*
X0081175Y0067850D01*
X0081090Y0067610D01*
X0080999Y0067371D01*
X0080902Y0067135D01*
X0080799Y0066901D01*
X0080691Y0066670D01*
X0080577Y0066441D01*
X0080458Y0066216D01*
X0080333Y0065993D01*
X0080203Y0065773D01*
X0080067Y0065557D01*
X0079927Y0065344D01*
X0079781Y0065134D01*
X0079630Y0064928D01*
X0079474Y0064726D01*
X0079313Y0064527D01*
X0079148Y0064333D01*
X0078978Y0064143D01*
X0078803Y0063956D01*
X0078624Y0063775D01*
X0078440Y0063597D01*
X0078252Y0063424D01*
X0078060Y0063256D01*
X0077864Y0063092D01*
X0077664Y0062934D01*
X0077460Y0062780D01*
X0077253Y0062631D01*
X0077042Y0062487D01*
X0076827Y0062349D01*
X0076610Y0062215D01*
X0076389Y0062087D01*
X0076165Y0061965D01*
X0075938Y0061848D01*
X0075708Y0061736D01*
X0070737Y0081724D02*
X0070480Y0081709D01*
X0070223Y0081687D01*
X0069967Y0081659D01*
X0069712Y0081625D01*
X0069458Y0081584D01*
X0069205Y0081537D01*
X0068953Y0081484D01*
X0068702Y0081425D01*
X0068453Y0081360D01*
X0068206Y0081289D01*
X0067960Y0081212D01*
X0067716Y0081128D01*
X0067475Y0081039D01*
X0067236Y0080944D01*
X0066999Y0080843D01*
X0066765Y0080736D01*
X0096436Y0081236D02*
X0096438Y0081374D01*
X0096444Y0081513D01*
X0096454Y0081651D01*
X0096468Y0081788D01*
X0096486Y0081925D01*
X0096508Y0082062D01*
X0096533Y0082198D01*
X0096563Y0082333D01*
X0096597Y0082467D01*
X0096634Y0082600D01*
X0096675Y0082732D01*
X0096720Y0082863D01*
X0096769Y0082993D01*
X0096821Y0083121D01*
X0096878Y0083247D01*
X0096937Y0083372D01*
X0097001Y0083495D01*
X0097068Y0083616D01*
X0097138Y0083735D01*
X0097212Y0083852D01*
X0097289Y0083967D01*
X0097369Y0084080D01*
X0097453Y0084190D01*
X0097539Y0084298D01*
X0097629Y0084403D01*
X0097722Y0084506D01*
X0097818Y0084606D01*
X0097916Y0084703D01*
X0098017Y0084797D01*
X0098121Y0084888D01*
X0098228Y0084976D01*
X0098337Y0085062D01*
X0098448Y0085144D01*
X0098562Y0085222D01*
X0098678Y0085298D01*
X0098796Y0085370D01*
X0098916Y0085438D01*
X0099038Y0085503D01*
X0099162Y0085565D01*
X0099288Y0085623D01*
X0099415Y0085677D01*
X0099544Y0085728D01*
X0099674Y0085775D01*
X0099805Y0085818D01*
X0099938Y0085857D01*
X0100072Y0085893D01*
X0100206Y0085924D01*
X0100342Y0085952D01*
X0100478Y0085976D01*
X0100615Y0085996D01*
X0100753Y0086012D01*
X0100890Y0086024D01*
X0101029Y0086032D01*
X0101167Y0086036D01*
X0101305Y0086036D01*
X0101443Y0086032D01*
X0101582Y0086024D01*
X0101719Y0086012D01*
X0101857Y0085996D01*
X0101994Y0085976D01*
X0102130Y0085952D01*
X0102266Y0085924D01*
X0102400Y0085893D01*
X0102534Y0085857D01*
X0102667Y0085818D01*
X0102798Y0085775D01*
X0102928Y0085728D01*
X0103057Y0085677D01*
X0103184Y0085623D01*
X0103310Y0085565D01*
X0103434Y0085503D01*
X0103556Y0085438D01*
X0103676Y0085370D01*
X0103794Y0085298D01*
X0103910Y0085222D01*
X0104024Y0085144D01*
X0104135Y0085062D01*
X0104244Y0084976D01*
X0104351Y0084888D01*
X0104455Y0084797D01*
X0104556Y0084703D01*
X0104654Y0084606D01*
X0104750Y0084506D01*
X0104843Y0084403D01*
X0104933Y0084298D01*
X0105019Y0084190D01*
X0105103Y0084080D01*
X0105183Y0083967D01*
X0105260Y0083852D01*
X0105334Y0083735D01*
X0105404Y0083616D01*
X0105471Y0083495D01*
X0105535Y0083372D01*
X0105594Y0083247D01*
X0105651Y0083121D01*
X0105703Y0082993D01*
X0105752Y0082863D01*
X0105797Y0082732D01*
X0105838Y0082600D01*
X0105875Y0082467D01*
X0105909Y0082333D01*
X0105939Y0082198D01*
X0105964Y0082062D01*
X0105986Y0081925D01*
X0106004Y0081788D01*
X0106018Y0081651D01*
X0106028Y0081513D01*
X0106034Y0081374D01*
X0106036Y0081236D01*
X0106034Y0081098D01*
X0106028Y0080959D01*
X0106018Y0080821D01*
X0106004Y0080684D01*
X0105986Y0080547D01*
X0105964Y0080410D01*
X0105939Y0080274D01*
X0105909Y0080139D01*
X0105875Y0080005D01*
X0105838Y0079872D01*
X0105797Y0079740D01*
X0105752Y0079609D01*
X0105703Y0079479D01*
X0105651Y0079351D01*
X0105594Y0079225D01*
X0105535Y0079100D01*
X0105471Y0078977D01*
X0105404Y0078856D01*
X0105334Y0078737D01*
X0105260Y0078620D01*
X0105183Y0078505D01*
X0105103Y0078392D01*
X0105019Y0078282D01*
X0104933Y0078174D01*
X0104843Y0078069D01*
X0104750Y0077966D01*
X0104654Y0077866D01*
X0104556Y0077769D01*
X0104455Y0077675D01*
X0104351Y0077584D01*
X0104244Y0077496D01*
X0104135Y0077410D01*
X0104024Y0077328D01*
X0103910Y0077250D01*
X0103794Y0077174D01*
X0103676Y0077102D01*
X0103556Y0077034D01*
X0103434Y0076969D01*
X0103310Y0076907D01*
X0103184Y0076849D01*
X0103057Y0076795D01*
X0102928Y0076744D01*
X0102798Y0076697D01*
X0102667Y0076654D01*
X0102534Y0076615D01*
X0102400Y0076579D01*
X0102266Y0076548D01*
X0102130Y0076520D01*
X0101994Y0076496D01*
X0101857Y0076476D01*
X0101719Y0076460D01*
X0101582Y0076448D01*
X0101443Y0076440D01*
X0101305Y0076436D01*
X0101167Y0076436D01*
X0101029Y0076440D01*
X0100890Y0076448D01*
X0100753Y0076460D01*
X0100615Y0076476D01*
X0100478Y0076496D01*
X0100342Y0076520D01*
X0100206Y0076548D01*
X0100072Y0076579D01*
X0099938Y0076615D01*
X0099805Y0076654D01*
X0099674Y0076697D01*
X0099544Y0076744D01*
X0099415Y0076795D01*
X0099288Y0076849D01*
X0099162Y0076907D01*
X0099038Y0076969D01*
X0098916Y0077034D01*
X0098796Y0077102D01*
X0098678Y0077174D01*
X0098562Y0077250D01*
X0098448Y0077328D01*
X0098337Y0077410D01*
X0098228Y0077496D01*
X0098121Y0077584D01*
X0098017Y0077675D01*
X0097916Y0077769D01*
X0097818Y0077866D01*
X0097722Y0077966D01*
X0097629Y0078069D01*
X0097539Y0078174D01*
X0097453Y0078282D01*
X0097369Y0078392D01*
X0097289Y0078505D01*
X0097212Y0078620D01*
X0097138Y0078737D01*
X0097068Y0078856D01*
X0097001Y0078977D01*
X0096937Y0079100D01*
X0096878Y0079225D01*
X0096821Y0079351D01*
X0096769Y0079479D01*
X0096720Y0079609D01*
X0096675Y0079740D01*
X0096634Y0079872D01*
X0096597Y0080005D01*
X0096563Y0080139D01*
X0096533Y0080274D01*
X0096508Y0080410D01*
X0096486Y0080547D01*
X0096468Y0080684D01*
X0096454Y0080821D01*
X0096444Y0080959D01*
X0096438Y0081098D01*
X0096436Y0081236D01*
D11*
X0094286Y0081386D02*
X0092351Y0083321D01*
X0091867Y0083321D01*
X0091384Y0082837D01*
X0091384Y0081870D01*
X0091867Y0081386D01*
X0094286Y0081386D02*
X0094286Y0083321D01*
X0093802Y0084333D02*
X0091867Y0086268D01*
X0093802Y0086268D01*
X0094286Y0085784D01*
X0094286Y0084816D01*
X0093802Y0084333D01*
X0091867Y0084333D01*
X0091384Y0084816D01*
X0091384Y0085784D01*
X0091867Y0086268D01*
X0092351Y0087279D02*
X0092351Y0088730D01*
X0092835Y0089214D01*
X0093802Y0089214D01*
X0094286Y0088730D01*
X0094286Y0087279D01*
X0095254Y0087279D02*
X0092351Y0087279D01*
X0092835Y0090226D02*
X0092835Y0091193D01*
X0094286Y0090226D02*
X0091384Y0090226D01*
X0091384Y0092161D01*
X0107383Y0083238D02*
X0107383Y0082003D01*
X0108000Y0081386D01*
X0108000Y0080172D02*
X0107383Y0079555D01*
X0107383Y0078320D01*
X0108000Y0077703D01*
X0110469Y0077703D01*
X0111086Y0078320D01*
X0111086Y0079555D01*
X0110469Y0080172D01*
X0110469Y0081386D02*
X0111086Y0082003D01*
X0111086Y0083238D01*
X0110469Y0083855D01*
X0109852Y0083855D01*
X0109235Y0083238D01*
X0109235Y0082621D01*
X0109235Y0083238D02*
X0108617Y0083855D01*
X0108000Y0083855D01*
X0107383Y0083238D01*
X0092835Y0077428D02*
X0092835Y0075493D01*
X0092351Y0071535D02*
X0091867Y0071535D01*
X0091384Y0071051D01*
X0091384Y0070084D01*
X0091867Y0069600D01*
X0092351Y0071535D02*
X0094286Y0069600D01*
X0094286Y0071535D01*
X0051236Y0041236D02*
X0042736Y0041236D01*
X0039686Y0041236D02*
X0031236Y0041236D01*
X0031236Y0031236D02*
X0031236Y0022786D01*
X0031236Y0019736D02*
X0031236Y0011236D01*
X0004861Y0019236D02*
X0002861Y0019236D01*
X0003861Y0020236D02*
X0003861Y0018236D01*
X0003861Y0031986D02*
X0003861Y0033986D01*
X0003611Y0038486D02*
X0003611Y0040486D01*
X0003611Y0052236D02*
X0003611Y0054236D01*
X0002611Y0053236D02*
X0004611Y0053236D01*
X0027212Y0079786D02*
X0029147Y0079786D01*
X0028179Y0079786D02*
X0028179Y0082689D01*
X0027212Y0081721D01*
X0030159Y0080754D02*
X0031610Y0081721D01*
X0032614Y0081237D02*
X0032614Y0082205D01*
X0033098Y0082689D01*
X0034065Y0082689D01*
X0034549Y0082205D01*
X0034549Y0081237D01*
X0034065Y0080754D01*
X0034065Y0079786D01*
X0034549Y0079786D01*
X0033098Y0079786D02*
X0033098Y0080754D01*
X0032614Y0081237D01*
X0031610Y0079786D02*
X0030159Y0080754D01*
X0030159Y0079786D02*
X0030159Y0082689D01*
X0032614Y0079786D02*
X0033098Y0079786D01*
X0066706Y0032689D02*
X0066706Y0029786D01*
X0065739Y0029786D02*
X0067674Y0029786D01*
X0068685Y0030270D02*
X0070620Y0032205D01*
X0070620Y0030270D01*
X0070136Y0029786D01*
X0069169Y0029786D01*
X0068685Y0030270D01*
X0068685Y0032205D01*
X0069169Y0032689D01*
X0070136Y0032689D01*
X0070620Y0032205D01*
X0071632Y0032689D02*
X0071632Y0029786D01*
X0071632Y0030754D02*
X0073083Y0031721D01*
X0074087Y0031237D02*
X0074087Y0032205D01*
X0074571Y0032689D01*
X0075538Y0032689D01*
X0076022Y0032205D01*
X0076022Y0031237D01*
X0075538Y0030754D01*
X0075538Y0029786D01*
X0076022Y0029786D01*
X0074571Y0029786D02*
X0074571Y0030754D01*
X0074087Y0031237D01*
X0074087Y0029786D02*
X0074571Y0029786D01*
X0073083Y0029786D02*
X0071632Y0030754D01*
X0066706Y0032689D02*
X0065739Y0031721D01*
D12*
X0066916Y0037586D02*
X0066916Y0039788D01*
X0068017Y0039788D01*
X0068384Y0039421D01*
X0068384Y0038687D01*
X0068017Y0038320D01*
X0066916Y0038320D01*
X0067650Y0038320D02*
X0068384Y0037586D01*
X0069126Y0037586D02*
X0070594Y0039054D01*
X0070594Y0039421D01*
X0070227Y0039788D01*
X0069493Y0039788D01*
X0069126Y0039421D01*
X0069126Y0037586D02*
X0070594Y0037586D01*
X0048770Y0051416D02*
X0048403Y0051783D01*
X0047669Y0051783D01*
X0048036Y0052150D01*
X0048036Y0052517D01*
X0047669Y0052884D01*
X0046935Y0052884D01*
X0046935Y0053626D02*
X0046935Y0054360D01*
X0045834Y0053626D02*
X0045834Y0055094D01*
X0045834Y0053626D02*
X0048036Y0053626D01*
X0047669Y0051783D02*
X0046935Y0051783D01*
X0046201Y0050674D02*
X0047669Y0049207D01*
X0048036Y0049574D01*
X0048036Y0050307D01*
X0047669Y0050674D01*
X0046201Y0050674D01*
X0045834Y0050307D01*
X0045834Y0049574D01*
X0046201Y0049207D01*
X0047669Y0049207D01*
X0047669Y0048465D02*
X0046201Y0048465D01*
X0047669Y0046997D01*
X0048036Y0047364D01*
X0048036Y0048098D01*
X0047669Y0048465D01*
X0046201Y0048465D02*
X0045834Y0048098D01*
X0045834Y0047364D01*
X0046201Y0046997D01*
X0047669Y0046997D01*
X0048036Y0046255D02*
X0048036Y0044787D01*
X0048036Y0045521D02*
X0045834Y0045521D01*
X0046568Y0044787D01*
X0045385Y0045637D02*
X0044651Y0045637D01*
X0043909Y0045637D02*
X0043909Y0044536D01*
X0044651Y0044536D02*
X0044651Y0046738D01*
X0046119Y0046738D01*
X0043909Y0045637D02*
X0043542Y0046004D01*
X0042441Y0046004D01*
X0042441Y0044536D01*
X0041699Y0044903D02*
X0041332Y0044536D01*
X0040598Y0044536D01*
X0040231Y0044903D01*
X0041699Y0046371D01*
X0041699Y0044903D01*
X0040231Y0044903D02*
X0040231Y0046371D01*
X0040598Y0046738D01*
X0041332Y0046738D01*
X0041699Y0046371D01*
X0039489Y0046371D02*
X0039489Y0044903D01*
X0039122Y0044536D01*
X0038388Y0044536D01*
X0038021Y0044903D01*
X0039489Y0046371D01*
X0039122Y0046738D01*
X0038388Y0046738D01*
X0038021Y0046371D01*
X0038021Y0044903D01*
X0037279Y0044536D02*
X0035812Y0044536D01*
X0036545Y0044536D02*
X0036545Y0046738D01*
X0035812Y0046004D01*
X0037070Y0039788D02*
X0036336Y0039054D01*
X0037070Y0039788D02*
X0037070Y0037586D01*
X0036336Y0037586D02*
X0037804Y0037586D01*
X0038546Y0037953D02*
X0040014Y0039421D01*
X0040014Y0037953D01*
X0039647Y0037586D01*
X0038913Y0037586D01*
X0038546Y0037953D01*
X0038546Y0039421D01*
X0038913Y0039788D01*
X0039647Y0039788D01*
X0040014Y0039421D01*
X0040756Y0039788D02*
X0040756Y0037586D01*
X0040594Y0037571D02*
X0040227Y0037938D01*
X0039493Y0037938D01*
X0039126Y0037571D01*
X0039126Y0036103D01*
X0039493Y0035736D01*
X0040227Y0035736D01*
X0040594Y0036103D01*
X0041336Y0035736D02*
X0042804Y0037204D01*
X0042804Y0037571D01*
X0042437Y0037938D01*
X0041703Y0037938D01*
X0041336Y0037571D01*
X0041857Y0037586D02*
X0040756Y0038320D01*
X0041857Y0039054D01*
X0042598Y0038687D02*
X0042598Y0039421D01*
X0042965Y0039788D01*
X0043698Y0039788D01*
X0044065Y0039421D01*
X0044065Y0038687D01*
X0043698Y0038320D01*
X0043698Y0037586D01*
X0044065Y0037586D01*
X0042965Y0037586D02*
X0042965Y0038320D01*
X0042598Y0038687D01*
X0042598Y0037586D02*
X0042965Y0037586D01*
X0042804Y0035736D02*
X0041336Y0035736D01*
X0034534Y0025566D02*
X0034534Y0024099D01*
X0036736Y0024099D01*
X0036736Y0023357D02*
X0035635Y0023357D01*
X0035268Y0022990D01*
X0035268Y0021889D01*
X0036736Y0021889D01*
X0036736Y0021147D02*
X0036736Y0019679D01*
X0035268Y0021147D01*
X0034901Y0021147D01*
X0034534Y0020780D01*
X0034534Y0020046D01*
X0034901Y0019679D01*
X0036369Y0018941D02*
X0036736Y0018941D01*
X0036736Y0018574D01*
X0036369Y0018574D01*
X0036369Y0018941D01*
X0036736Y0017832D02*
X0036736Y0016364D01*
X0035268Y0017832D01*
X0034901Y0017832D01*
X0034534Y0017465D01*
X0034534Y0016731D01*
X0034901Y0016364D01*
X0027936Y0019493D02*
X0027569Y0019126D01*
X0026101Y0019126D01*
X0025734Y0019493D01*
X0025734Y0020227D01*
X0026101Y0020594D01*
X0025734Y0021336D02*
X0026835Y0021336D01*
X0026468Y0022070D01*
X0026468Y0022437D01*
X0026835Y0022804D01*
X0027569Y0022804D01*
X0027936Y0022437D01*
X0027936Y0021703D01*
X0027569Y0021336D01*
X0027569Y0020594D02*
X0027936Y0020227D01*
X0027936Y0019493D01*
X0025734Y0021336D02*
X0025734Y0022804D01*
X0035635Y0024099D02*
X0035635Y0024833D01*
X0061336Y0016971D02*
X0061703Y0017338D01*
X0062437Y0017338D01*
X0062804Y0016971D01*
X0062804Y0016604D01*
X0061336Y0015136D01*
X0062804Y0015136D01*
X0063546Y0015136D02*
X0065014Y0016604D01*
X0065014Y0016971D01*
X0064647Y0017338D01*
X0063913Y0017338D01*
X0063546Y0016971D01*
X0063546Y0015136D02*
X0065014Y0015136D01*
X0065756Y0015503D02*
X0067224Y0016971D01*
X0067224Y0015503D01*
X0066857Y0015136D01*
X0066123Y0015136D01*
X0065756Y0015503D01*
X0065756Y0016971D01*
X0066123Y0017338D01*
X0066857Y0017338D01*
X0067224Y0016971D01*
X0067966Y0016604D02*
X0069067Y0016604D01*
X0069434Y0016237D01*
X0069434Y0015136D01*
X0070176Y0015136D02*
X0070176Y0017338D01*
X0071644Y0017338D01*
X0070910Y0016237D02*
X0070176Y0016237D01*
X0067966Y0016604D02*
X0067966Y0015136D01*
X0068727Y0007338D02*
X0067626Y0006237D01*
X0069094Y0006237D01*
X0068727Y0005136D02*
X0068727Y0007338D01*
X0066884Y0006971D02*
X0066517Y0007338D01*
X0065783Y0007338D01*
X0065416Y0006971D01*
X0065416Y0005503D01*
X0065783Y0005136D01*
X0066517Y0005136D01*
X0066884Y0005503D01*
X0045594Y0004521D02*
X0045594Y0004154D01*
X0045227Y0003787D01*
X0045594Y0003420D01*
X0045594Y0003053D01*
X0045227Y0002686D01*
X0044493Y0002686D01*
X0044126Y0003053D01*
X0043384Y0002686D02*
X0042650Y0003420D01*
X0043017Y0003420D02*
X0041916Y0003420D01*
X0041916Y0002686D02*
X0041916Y0004888D01*
X0043017Y0004888D01*
X0043384Y0004521D01*
X0043384Y0003787D01*
X0043017Y0003420D01*
X0044126Y0004521D02*
X0044493Y0004888D01*
X0045227Y0004888D01*
X0045594Y0004521D01*
X0045227Y0003787D02*
X0044860Y0003787D01*
X0004761Y0024495D02*
X0003560Y0024495D01*
X0002960Y0025095D01*
X0003560Y0025696D01*
X0004761Y0025696D01*
X0004761Y0026336D02*
X0002960Y0026336D01*
X0002960Y0027537D01*
X0003860Y0026937D02*
X0003860Y0026336D01*
X0003860Y0025696D02*
X0003860Y0024495D01*
X0003610Y0043574D02*
X0003610Y0044475D01*
X0003911Y0044775D01*
X0004211Y0044775D01*
X0004511Y0044475D01*
X0004511Y0043574D01*
X0002710Y0043574D01*
X0002710Y0044475D01*
X0003010Y0044775D01*
X0003310Y0044775D01*
X0003610Y0044475D01*
X0003610Y0045415D02*
X0003610Y0046616D01*
X0003310Y0046616D02*
X0004511Y0046616D01*
X0004511Y0045415D02*
X0003310Y0045415D01*
X0002710Y0046016D01*
X0003310Y0046616D01*
X0002710Y0047257D02*
X0002710Y0048458D01*
X0002710Y0047858D02*
X0004511Y0047858D01*
X0024934Y0051783D02*
X0025301Y0051416D01*
X0026769Y0051416D01*
X0027136Y0051783D01*
X0027136Y0052517D01*
X0026769Y0052884D01*
X0027136Y0053626D02*
X0027136Y0055094D01*
X0027136Y0054360D02*
X0024934Y0054360D01*
X0025668Y0053626D01*
X0025301Y0052884D02*
X0024934Y0052517D01*
X0024934Y0051783D01*
X0073384Y0065074D02*
X0073751Y0064707D01*
X0073384Y0065074D02*
X0073384Y0065807D01*
X0073751Y0066174D01*
X0074118Y0066174D01*
X0075586Y0064707D01*
X0075586Y0066174D01*
X0075586Y0066916D02*
X0073384Y0066916D01*
X0075586Y0068384D01*
X0073384Y0068384D01*
X0073751Y0069126D02*
X0073384Y0069493D01*
X0073384Y0070227D01*
X0073751Y0070594D01*
X0074118Y0070594D01*
X0075586Y0069126D01*
X0075586Y0070594D01*
X0075586Y0071336D02*
X0074118Y0072804D01*
X0073751Y0072804D01*
X0073384Y0072437D01*
X0073384Y0071703D01*
X0073751Y0071336D01*
X0075586Y0071336D02*
X0075586Y0072804D01*
X0075586Y0073546D02*
X0074118Y0075014D01*
X0073751Y0075014D01*
X0073384Y0074647D01*
X0073384Y0073913D01*
X0073751Y0073546D01*
X0075586Y0073546D02*
X0075586Y0075014D01*
X0075586Y0075756D02*
X0074118Y0077224D01*
X0073751Y0077224D01*
X0073384Y0076857D01*
X0073384Y0076123D01*
X0073751Y0075756D01*
X0075586Y0075756D02*
X0075586Y0077224D01*
X0079086Y0072804D02*
X0079086Y0071336D01*
X0079086Y0072070D02*
X0076884Y0072070D01*
X0077618Y0071336D01*
X0076884Y0070594D02*
X0076884Y0069126D01*
X0076884Y0069860D02*
X0079086Y0069860D01*
X0093384Y0056857D02*
X0093384Y0056123D01*
X0093751Y0055756D01*
X0093751Y0055014D02*
X0093384Y0054647D01*
X0093384Y0053913D01*
X0093751Y0053546D01*
X0093751Y0052804D02*
X0093384Y0052437D01*
X0093384Y0051703D01*
X0093751Y0051336D01*
X0093751Y0050594D02*
X0093384Y0050227D01*
X0093384Y0049493D01*
X0093751Y0049126D01*
X0093384Y0048384D02*
X0095586Y0048384D01*
X0093384Y0046916D01*
X0095586Y0046916D01*
X0095586Y0046174D02*
X0095586Y0044707D01*
X0094118Y0046174D01*
X0093751Y0046174D01*
X0093384Y0045807D01*
X0093384Y0045074D01*
X0093751Y0044707D01*
X0095586Y0049126D02*
X0094118Y0050594D01*
X0093751Y0050594D01*
X0095586Y0050594D02*
X0095586Y0049126D01*
X0096884Y0049126D02*
X0096884Y0050594D01*
X0096884Y0049860D02*
X0099086Y0049860D01*
X0099086Y0051336D02*
X0097618Y0052804D01*
X0097251Y0052804D01*
X0096884Y0052437D01*
X0096884Y0051703D01*
X0097251Y0051336D01*
X0095586Y0051336D02*
X0095586Y0052804D01*
X0095586Y0053546D02*
X0094118Y0055014D01*
X0093751Y0055014D01*
X0095586Y0055014D02*
X0095586Y0053546D01*
X0094118Y0052804D02*
X0093751Y0052804D01*
X0094118Y0052804D02*
X0095586Y0051336D01*
X0099086Y0051336D02*
X0099086Y0052804D01*
X0095586Y0055756D02*
X0094118Y0057224D01*
X0093751Y0057224D01*
X0093384Y0056857D01*
X0095586Y0057224D02*
X0095586Y0055756D01*
X0030594Y0087586D02*
X0029126Y0087586D01*
X0029860Y0087586D02*
X0029860Y0089788D01*
X0029126Y0089054D01*
X0028384Y0089421D02*
X0028384Y0088687D01*
X0028017Y0088320D01*
X0026916Y0088320D01*
X0026916Y0087586D02*
X0026916Y0089788D01*
X0028017Y0089788D01*
X0028384Y0089421D01*
X0027650Y0088320D02*
X0028384Y0087586D01*
X0088755Y0006888D02*
X0088021Y0006154D01*
X0088021Y0004686D01*
X0088021Y0005787D02*
X0089489Y0005787D01*
X0089489Y0006154D02*
X0089489Y0004686D01*
X0090231Y0004686D02*
X0090231Y0006888D01*
X0091699Y0004686D01*
X0091699Y0006888D01*
X0092441Y0006888D02*
X0093909Y0006888D01*
X0093175Y0006888D02*
X0093175Y0004686D01*
X0089489Y0006154D02*
X0088755Y0006888D01*
D13*
X0080236Y0027236D02*
X0078736Y0027236D01*
X0078236Y0027736D01*
X0064236Y0027736D01*
X0063736Y0027236D01*
X0062236Y0027236D01*
X0062176Y0027238D01*
X0062115Y0027243D01*
X0062056Y0027252D01*
X0061997Y0027265D01*
X0061938Y0027281D01*
X0061881Y0027301D01*
X0061826Y0027324D01*
X0061771Y0027351D01*
X0061719Y0027380D01*
X0061668Y0027413D01*
X0061619Y0027449D01*
X0061573Y0027487D01*
X0061529Y0027529D01*
X0061487Y0027573D01*
X0061449Y0027619D01*
X0061413Y0027668D01*
X0061380Y0027719D01*
X0061351Y0027771D01*
X0061324Y0027826D01*
X0061301Y0027881D01*
X0061281Y0027938D01*
X0061265Y0027997D01*
X0061252Y0028056D01*
X0061243Y0028115D01*
X0061238Y0028176D01*
X0061236Y0028236D01*
X0061236Y0034236D01*
X0061238Y0034296D01*
X0061243Y0034357D01*
X0061252Y0034416D01*
X0061265Y0034475D01*
X0061281Y0034534D01*
X0061301Y0034591D01*
X0061324Y0034646D01*
X0061351Y0034701D01*
X0061380Y0034753D01*
X0061413Y0034804D01*
X0061449Y0034853D01*
X0061487Y0034899D01*
X0061529Y0034943D01*
X0061573Y0034985D01*
X0061619Y0035023D01*
X0061668Y0035059D01*
X0061719Y0035092D01*
X0061771Y0035121D01*
X0061826Y0035148D01*
X0061881Y0035171D01*
X0061938Y0035191D01*
X0061997Y0035207D01*
X0062056Y0035220D01*
X0062115Y0035229D01*
X0062176Y0035234D01*
X0062236Y0035236D01*
X0063736Y0035236D01*
X0064236Y0034736D01*
X0078236Y0034736D01*
X0078736Y0035236D01*
X0080236Y0035236D01*
X0080296Y0035234D01*
X0080357Y0035229D01*
X0080416Y0035220D01*
X0080475Y0035207D01*
X0080534Y0035191D01*
X0080591Y0035171D01*
X0080646Y0035148D01*
X0080701Y0035121D01*
X0080753Y0035092D01*
X0080804Y0035059D01*
X0080853Y0035023D01*
X0080899Y0034985D01*
X0080943Y0034943D01*
X0080985Y0034899D01*
X0081023Y0034853D01*
X0081059Y0034804D01*
X0081092Y0034753D01*
X0081121Y0034701D01*
X0081148Y0034646D01*
X0081171Y0034591D01*
X0081191Y0034534D01*
X0081207Y0034475D01*
X0081220Y0034416D01*
X0081229Y0034357D01*
X0081234Y0034296D01*
X0081236Y0034236D01*
X0081236Y0028236D01*
X0081234Y0028176D01*
X0081229Y0028115D01*
X0081220Y0028056D01*
X0081207Y0027997D01*
X0081191Y0027938D01*
X0081171Y0027881D01*
X0081148Y0027826D01*
X0081121Y0027771D01*
X0081092Y0027719D01*
X0081059Y0027668D01*
X0081023Y0027619D01*
X0080985Y0027573D01*
X0080943Y0027529D01*
X0080899Y0027487D01*
X0080853Y0027449D01*
X0080804Y0027413D01*
X0080753Y0027380D01*
X0080701Y0027351D01*
X0080646Y0027324D01*
X0080591Y0027301D01*
X0080534Y0027281D01*
X0080475Y0027265D01*
X0080416Y0027252D01*
X0080357Y0027243D01*
X0080296Y0027238D01*
X0080236Y0027236D01*
X0080296Y0027238D01*
X0080357Y0027243D01*
X0080416Y0027252D01*
X0080475Y0027265D01*
X0080534Y0027281D01*
X0080591Y0027301D01*
X0080646Y0027324D01*
X0080701Y0027351D01*
X0080753Y0027380D01*
X0080804Y0027413D01*
X0080853Y0027449D01*
X0080899Y0027487D01*
X0080943Y0027529D01*
X0080985Y0027573D01*
X0081023Y0027619D01*
X0081059Y0027668D01*
X0081092Y0027719D01*
X0081121Y0027771D01*
X0081148Y0027826D01*
X0081171Y0027881D01*
X0081191Y0027938D01*
X0081207Y0027997D01*
X0081220Y0028056D01*
X0081229Y0028115D01*
X0081234Y0028176D01*
X0081236Y0028236D01*
X0081236Y0034236D02*
X0081234Y0034296D01*
X0081229Y0034357D01*
X0081220Y0034416D01*
X0081207Y0034475D01*
X0081191Y0034534D01*
X0081171Y0034591D01*
X0081148Y0034646D01*
X0081121Y0034701D01*
X0081092Y0034753D01*
X0081059Y0034804D01*
X0081023Y0034853D01*
X0080985Y0034899D01*
X0080943Y0034943D01*
X0080899Y0034985D01*
X0080853Y0035023D01*
X0080804Y0035059D01*
X0080753Y0035092D01*
X0080701Y0035121D01*
X0080646Y0035148D01*
X0080591Y0035171D01*
X0080534Y0035191D01*
X0080475Y0035207D01*
X0080416Y0035220D01*
X0080357Y0035229D01*
X0080296Y0035234D01*
X0080236Y0035236D01*
X0062236Y0035236D02*
X0062176Y0035234D01*
X0062115Y0035229D01*
X0062056Y0035220D01*
X0061997Y0035207D01*
X0061938Y0035191D01*
X0061881Y0035171D01*
X0061826Y0035148D01*
X0061771Y0035121D01*
X0061719Y0035092D01*
X0061668Y0035059D01*
X0061619Y0035023D01*
X0061573Y0034985D01*
X0061529Y0034943D01*
X0061487Y0034899D01*
X0061449Y0034853D01*
X0061413Y0034804D01*
X0061380Y0034753D01*
X0061351Y0034701D01*
X0061324Y0034646D01*
X0061301Y0034591D01*
X0061281Y0034534D01*
X0061265Y0034475D01*
X0061252Y0034416D01*
X0061243Y0034357D01*
X0061238Y0034296D01*
X0061236Y0034236D01*
X0061236Y0028236D02*
X0061238Y0028176D01*
X0061243Y0028115D01*
X0061252Y0028056D01*
X0061265Y0027997D01*
X0061281Y0027938D01*
X0061301Y0027881D01*
X0061324Y0027826D01*
X0061351Y0027771D01*
X0061380Y0027719D01*
X0061413Y0027668D01*
X0061449Y0027619D01*
X0061487Y0027573D01*
X0061529Y0027529D01*
X0061573Y0027487D01*
X0061619Y0027449D01*
X0061668Y0027413D01*
X0061719Y0027380D01*
X0061771Y0027351D01*
X0061826Y0027324D01*
X0061881Y0027301D01*
X0061938Y0027281D01*
X0061997Y0027265D01*
X0062056Y0027252D01*
X0062115Y0027243D01*
X0062176Y0027238D01*
X0062236Y0027236D01*
X0041736Y0055236D02*
X0041736Y0056236D01*
X0040736Y0056236D01*
X0041736Y0056236D02*
X0041736Y0057236D01*
X0041736Y0056236D02*
X0042736Y0056236D01*
X0039236Y0056236D02*
X0039236Y0061236D01*
X0039236Y0066236D01*
X0037236Y0066236D01*
X0037236Y0056236D01*
X0039236Y0056236D01*
X0039236Y0061236D02*
X0042736Y0061236D01*
X0026236Y0061236D02*
X0026239Y0061481D01*
X0026248Y0061727D01*
X0026263Y0061972D01*
X0026284Y0062216D01*
X0026311Y0062460D01*
X0026344Y0062703D01*
X0026383Y0062946D01*
X0026428Y0063187D01*
X0026479Y0063427D01*
X0026536Y0063666D01*
X0026598Y0063903D01*
X0026667Y0064139D01*
X0026741Y0064373D01*
X0026821Y0064605D01*
X0026906Y0064835D01*
X0026997Y0065063D01*
X0027094Y0065288D01*
X0027196Y0065512D01*
X0027304Y0065732D01*
X0027417Y0065950D01*
X0027535Y0066165D01*
X0027659Y0066377D01*
X0027787Y0066586D01*
X0027921Y0066792D01*
X0028060Y0066994D01*
X0028204Y0067193D01*
X0028353Y0067388D01*
X0028506Y0067580D01*
X0028664Y0067768D01*
X0028826Y0067952D01*
X0028994Y0068131D01*
X0029165Y0068307D01*
X0029341Y0068478D01*
X0029520Y0068646D01*
X0029704Y0068808D01*
X0029892Y0068966D01*
X0030084Y0069119D01*
X0030279Y0069268D01*
X0030478Y0069412D01*
X0030680Y0069551D01*
X0030886Y0069685D01*
X0031095Y0069813D01*
X0031307Y0069937D01*
X0031522Y0070055D01*
X0031740Y0070168D01*
X0031960Y0070276D01*
X0032184Y0070378D01*
X0032409Y0070475D01*
X0032637Y0070566D01*
X0032867Y0070651D01*
X0033099Y0070731D01*
X0033333Y0070805D01*
X0033569Y0070874D01*
X0033806Y0070936D01*
X0034045Y0070993D01*
X0034285Y0071044D01*
X0034526Y0071089D01*
X0034769Y0071128D01*
X0035012Y0071161D01*
X0035256Y0071188D01*
X0035500Y0071209D01*
X0035745Y0071224D01*
X0035991Y0071233D01*
X0036236Y0071236D01*
X0036481Y0071233D01*
X0036727Y0071224D01*
X0036972Y0071209D01*
X0037216Y0071188D01*
X0037460Y0071161D01*
X0037703Y0071128D01*
X0037946Y0071089D01*
X0038187Y0071044D01*
X0038427Y0070993D01*
X0038666Y0070936D01*
X0038903Y0070874D01*
X0039139Y0070805D01*
X0039373Y0070731D01*
X0039605Y0070651D01*
X0039835Y0070566D01*
X0040063Y0070475D01*
X0040288Y0070378D01*
X0040512Y0070276D01*
X0040732Y0070168D01*
X0040950Y0070055D01*
X0041165Y0069937D01*
X0041377Y0069813D01*
X0041586Y0069685D01*
X0041792Y0069551D01*
X0041994Y0069412D01*
X0042193Y0069268D01*
X0042388Y0069119D01*
X0042580Y0068966D01*
X0042768Y0068808D01*
X0042952Y0068646D01*
X0043131Y0068478D01*
X0043307Y0068307D01*
X0043478Y0068131D01*
X0043646Y0067952D01*
X0043808Y0067768D01*
X0043966Y0067580D01*
X0044119Y0067388D01*
X0044268Y0067193D01*
X0044412Y0066994D01*
X0044551Y0066792D01*
X0044685Y0066586D01*
X0044813Y0066377D01*
X0044937Y0066165D01*
X0045055Y0065950D01*
X0045168Y0065732D01*
X0045276Y0065512D01*
X0045378Y0065288D01*
X0045475Y0065063D01*
X0045566Y0064835D01*
X0045651Y0064605D01*
X0045731Y0064373D01*
X0045805Y0064139D01*
X0045874Y0063903D01*
X0045936Y0063666D01*
X0045993Y0063427D01*
X0046044Y0063187D01*
X0046089Y0062946D01*
X0046128Y0062703D01*
X0046161Y0062460D01*
X0046188Y0062216D01*
X0046209Y0061972D01*
X0046224Y0061727D01*
X0046233Y0061481D01*
X0046236Y0061236D01*
X0046233Y0060991D01*
X0046224Y0060745D01*
X0046209Y0060500D01*
X0046188Y0060256D01*
X0046161Y0060012D01*
X0046128Y0059769D01*
X0046089Y0059526D01*
X0046044Y0059285D01*
X0045993Y0059045D01*
X0045936Y0058806D01*
X0045874Y0058569D01*
X0045805Y0058333D01*
X0045731Y0058099D01*
X0045651Y0057867D01*
X0045566Y0057637D01*
X0045475Y0057409D01*
X0045378Y0057184D01*
X0045276Y0056960D01*
X0045168Y0056740D01*
X0045055Y0056522D01*
X0044937Y0056307D01*
X0044813Y0056095D01*
X0044685Y0055886D01*
X0044551Y0055680D01*
X0044412Y0055478D01*
X0044268Y0055279D01*
X0044119Y0055084D01*
X0043966Y0054892D01*
X0043808Y0054704D01*
X0043646Y0054520D01*
X0043478Y0054341D01*
X0043307Y0054165D01*
X0043131Y0053994D01*
X0042952Y0053826D01*
X0042768Y0053664D01*
X0042580Y0053506D01*
X0042388Y0053353D01*
X0042193Y0053204D01*
X0041994Y0053060D01*
X0041792Y0052921D01*
X0041586Y0052787D01*
X0041377Y0052659D01*
X0041165Y0052535D01*
X0040950Y0052417D01*
X0040732Y0052304D01*
X0040512Y0052196D01*
X0040288Y0052094D01*
X0040063Y0051997D01*
X0039835Y0051906D01*
X0039605Y0051821D01*
X0039373Y0051741D01*
X0039139Y0051667D01*
X0038903Y0051598D01*
X0038666Y0051536D01*
X0038427Y0051479D01*
X0038187Y0051428D01*
X0037946Y0051383D01*
X0037703Y0051344D01*
X0037460Y0051311D01*
X0037216Y0051284D01*
X0036972Y0051263D01*
X0036727Y0051248D01*
X0036481Y0051239D01*
X0036236Y0051236D01*
X0035991Y0051239D01*
X0035745Y0051248D01*
X0035500Y0051263D01*
X0035256Y0051284D01*
X0035012Y0051311D01*
X0034769Y0051344D01*
X0034526Y0051383D01*
X0034285Y0051428D01*
X0034045Y0051479D01*
X0033806Y0051536D01*
X0033569Y0051598D01*
X0033333Y0051667D01*
X0033099Y0051741D01*
X0032867Y0051821D01*
X0032637Y0051906D01*
X0032409Y0051997D01*
X0032184Y0052094D01*
X0031960Y0052196D01*
X0031740Y0052304D01*
X0031522Y0052417D01*
X0031307Y0052535D01*
X0031095Y0052659D01*
X0030886Y0052787D01*
X0030680Y0052921D01*
X0030478Y0053060D01*
X0030279Y0053204D01*
X0030084Y0053353D01*
X0029892Y0053506D01*
X0029704Y0053664D01*
X0029520Y0053826D01*
X0029341Y0053994D01*
X0029165Y0054165D01*
X0028994Y0054341D01*
X0028826Y0054520D01*
X0028664Y0054704D01*
X0028506Y0054892D01*
X0028353Y0055084D01*
X0028204Y0055279D01*
X0028060Y0055478D01*
X0027921Y0055680D01*
X0027787Y0055886D01*
X0027659Y0056095D01*
X0027535Y0056307D01*
X0027417Y0056522D01*
X0027304Y0056740D01*
X0027196Y0056960D01*
X0027094Y0057184D01*
X0026997Y0057409D01*
X0026906Y0057637D01*
X0026821Y0057867D01*
X0026741Y0058099D01*
X0026667Y0058333D01*
X0026598Y0058569D01*
X0026536Y0058806D01*
X0026479Y0059045D01*
X0026428Y0059285D01*
X0026383Y0059526D01*
X0026344Y0059769D01*
X0026311Y0060012D01*
X0026284Y0060256D01*
X0026263Y0060500D01*
X0026248Y0060745D01*
X0026239Y0060991D01*
X0026236Y0061236D01*
X0029736Y0061236D02*
X0033736Y0061236D01*
X0038736Y0077236D02*
X0038236Y0077736D01*
X0024236Y0077736D01*
X0023736Y0077236D01*
X0022236Y0077236D01*
X0022176Y0077238D01*
X0022115Y0077243D01*
X0022056Y0077252D01*
X0021997Y0077265D01*
X0021938Y0077281D01*
X0021881Y0077301D01*
X0021826Y0077324D01*
X0021771Y0077351D01*
X0021719Y0077380D01*
X0021668Y0077413D01*
X0021619Y0077449D01*
X0021573Y0077487D01*
X0021529Y0077529D01*
X0021487Y0077573D01*
X0021449Y0077619D01*
X0021413Y0077668D01*
X0021380Y0077719D01*
X0021351Y0077771D01*
X0021324Y0077826D01*
X0021301Y0077881D01*
X0021281Y0077938D01*
X0021265Y0077997D01*
X0021252Y0078056D01*
X0021243Y0078115D01*
X0021238Y0078176D01*
X0021236Y0078236D01*
X0021236Y0084236D01*
X0021238Y0084296D01*
X0021243Y0084357D01*
X0021252Y0084416D01*
X0021265Y0084475D01*
X0021281Y0084534D01*
X0021301Y0084591D01*
X0021324Y0084646D01*
X0021351Y0084701D01*
X0021380Y0084753D01*
X0021413Y0084804D01*
X0021449Y0084853D01*
X0021487Y0084899D01*
X0021529Y0084943D01*
X0021573Y0084985D01*
X0021619Y0085023D01*
X0021668Y0085059D01*
X0021719Y0085092D01*
X0021771Y0085121D01*
X0021826Y0085148D01*
X0021881Y0085171D01*
X0021938Y0085191D01*
X0021997Y0085207D01*
X0022056Y0085220D01*
X0022115Y0085229D01*
X0022176Y0085234D01*
X0022236Y0085236D01*
X0023736Y0085236D01*
X0024236Y0084736D01*
X0038236Y0084736D01*
X0038736Y0085236D01*
X0040236Y0085236D01*
X0040296Y0085234D01*
X0040357Y0085229D01*
X0040416Y0085220D01*
X0040475Y0085207D01*
X0040534Y0085191D01*
X0040591Y0085171D01*
X0040646Y0085148D01*
X0040701Y0085121D01*
X0040753Y0085092D01*
X0040804Y0085059D01*
X0040853Y0085023D01*
X0040899Y0084985D01*
X0040943Y0084943D01*
X0040985Y0084899D01*
X0041023Y0084853D01*
X0041059Y0084804D01*
X0041092Y0084753D01*
X0041121Y0084701D01*
X0041148Y0084646D01*
X0041171Y0084591D01*
X0041191Y0084534D01*
X0041207Y0084475D01*
X0041220Y0084416D01*
X0041229Y0084357D01*
X0041234Y0084296D01*
X0041236Y0084236D01*
X0041236Y0078236D01*
X0041234Y0078176D01*
X0041229Y0078115D01*
X0041220Y0078056D01*
X0041207Y0077997D01*
X0041191Y0077938D01*
X0041171Y0077881D01*
X0041148Y0077826D01*
X0041121Y0077771D01*
X0041092Y0077719D01*
X0041059Y0077668D01*
X0041023Y0077619D01*
X0040985Y0077573D01*
X0040943Y0077529D01*
X0040899Y0077487D01*
X0040853Y0077449D01*
X0040804Y0077413D01*
X0040753Y0077380D01*
X0040701Y0077351D01*
X0040646Y0077324D01*
X0040591Y0077301D01*
X0040534Y0077281D01*
X0040475Y0077265D01*
X0040416Y0077252D01*
X0040357Y0077243D01*
X0040296Y0077238D01*
X0040236Y0077236D01*
X0038736Y0077236D01*
X0040236Y0077236D02*
X0040296Y0077238D01*
X0040357Y0077243D01*
X0040416Y0077252D01*
X0040475Y0077265D01*
X0040534Y0077281D01*
X0040591Y0077301D01*
X0040646Y0077324D01*
X0040701Y0077351D01*
X0040753Y0077380D01*
X0040804Y0077413D01*
X0040853Y0077449D01*
X0040899Y0077487D01*
X0040943Y0077529D01*
X0040985Y0077573D01*
X0041023Y0077619D01*
X0041059Y0077668D01*
X0041092Y0077719D01*
X0041121Y0077771D01*
X0041148Y0077826D01*
X0041171Y0077881D01*
X0041191Y0077938D01*
X0041207Y0077997D01*
X0041220Y0078056D01*
X0041229Y0078115D01*
X0041234Y0078176D01*
X0041236Y0078236D01*
X0041236Y0084236D02*
X0041234Y0084296D01*
X0041229Y0084357D01*
X0041220Y0084416D01*
X0041207Y0084475D01*
X0041191Y0084534D01*
X0041171Y0084591D01*
X0041148Y0084646D01*
X0041121Y0084701D01*
X0041092Y0084753D01*
X0041059Y0084804D01*
X0041023Y0084853D01*
X0040985Y0084899D01*
X0040943Y0084943D01*
X0040899Y0084985D01*
X0040853Y0085023D01*
X0040804Y0085059D01*
X0040753Y0085092D01*
X0040701Y0085121D01*
X0040646Y0085148D01*
X0040591Y0085171D01*
X0040534Y0085191D01*
X0040475Y0085207D01*
X0040416Y0085220D01*
X0040357Y0085229D01*
X0040296Y0085234D01*
X0040236Y0085236D01*
X0022236Y0085236D02*
X0022176Y0085234D01*
X0022115Y0085229D01*
X0022056Y0085220D01*
X0021997Y0085207D01*
X0021938Y0085191D01*
X0021881Y0085171D01*
X0021826Y0085148D01*
X0021771Y0085121D01*
X0021719Y0085092D01*
X0021668Y0085059D01*
X0021619Y0085023D01*
X0021573Y0084985D01*
X0021529Y0084943D01*
X0021487Y0084899D01*
X0021449Y0084853D01*
X0021413Y0084804D01*
X0021380Y0084753D01*
X0021351Y0084701D01*
X0021324Y0084646D01*
X0021301Y0084591D01*
X0021281Y0084534D01*
X0021265Y0084475D01*
X0021252Y0084416D01*
X0021243Y0084357D01*
X0021238Y0084296D01*
X0021236Y0084236D01*
X0021236Y0078236D02*
X0021238Y0078176D01*
X0021243Y0078115D01*
X0021252Y0078056D01*
X0021265Y0077997D01*
X0021281Y0077938D01*
X0021301Y0077881D01*
X0021324Y0077826D01*
X0021351Y0077771D01*
X0021380Y0077719D01*
X0021413Y0077668D01*
X0021449Y0077619D01*
X0021487Y0077573D01*
X0021529Y0077529D01*
X0021573Y0077487D01*
X0021619Y0077449D01*
X0021668Y0077413D01*
X0021719Y0077380D01*
X0021771Y0077351D01*
X0021826Y0077324D01*
X0021881Y0077301D01*
X0021938Y0077281D01*
X0021997Y0077265D01*
X0022056Y0077252D01*
X0022115Y0077243D01*
X0022176Y0077238D01*
X0022236Y0077236D01*
D14*
X0034236Y0061236D03*
D15*
X0040236Y0041236D03*
X0042236Y0041236D03*
X0060236Y0011236D03*
X0062236Y0011236D03*
D16*
X0068236Y0008736D02*
X0068312Y0008738D01*
X0068388Y0008744D01*
X0068463Y0008753D01*
X0068538Y0008767D01*
X0068612Y0008784D01*
X0068685Y0008805D01*
X0068757Y0008829D01*
X0068828Y0008858D01*
X0068897Y0008889D01*
X0068964Y0008924D01*
X0069029Y0008963D01*
X0069093Y0009005D01*
X0069154Y0009050D01*
X0069213Y0009098D01*
X0069269Y0009149D01*
X0069323Y0009203D01*
X0069374Y0009259D01*
X0069422Y0009318D01*
X0069467Y0009379D01*
X0069509Y0009443D01*
X0069548Y0009508D01*
X0069583Y0009575D01*
X0069614Y0009644D01*
X0069643Y0009715D01*
X0069667Y0009787D01*
X0069688Y0009860D01*
X0069705Y0009934D01*
X0069719Y0010009D01*
X0069728Y0010084D01*
X0069734Y0010160D01*
X0069736Y0010236D01*
X0069736Y0012236D01*
X0069734Y0012312D01*
X0069728Y0012388D01*
X0069719Y0012463D01*
X0069705Y0012538D01*
X0069688Y0012612D01*
X0069667Y0012685D01*
X0069643Y0012757D01*
X0069614Y0012828D01*
X0069583Y0012897D01*
X0069548Y0012964D01*
X0069509Y0013029D01*
X0069467Y0013093D01*
X0069422Y0013154D01*
X0069374Y0013213D01*
X0069323Y0013269D01*
X0069269Y0013323D01*
X0069213Y0013374D01*
X0069154Y0013422D01*
X0069093Y0013467D01*
X0069029Y0013509D01*
X0068964Y0013548D01*
X0068897Y0013583D01*
X0068828Y0013614D01*
X0068757Y0013643D01*
X0068685Y0013667D01*
X0068612Y0013688D01*
X0068538Y0013705D01*
X0068463Y0013719D01*
X0068388Y0013728D01*
X0068312Y0013734D01*
X0068236Y0013736D01*
X0054236Y0013736D01*
X0054160Y0013734D01*
X0054084Y0013728D01*
X0054009Y0013719D01*
X0053934Y0013705D01*
X0053860Y0013688D01*
X0053787Y0013667D01*
X0053715Y0013643D01*
X0053644Y0013614D01*
X0053575Y0013583D01*
X0053508Y0013548D01*
X0053443Y0013509D01*
X0053379Y0013467D01*
X0053318Y0013422D01*
X0053259Y0013374D01*
X0053203Y0013323D01*
X0053149Y0013269D01*
X0053098Y0013213D01*
X0053050Y0013154D01*
X0053005Y0013093D01*
X0052963Y0013029D01*
X0052924Y0012964D01*
X0052889Y0012897D01*
X0052858Y0012828D01*
X0052829Y0012757D01*
X0052805Y0012685D01*
X0052784Y0012612D01*
X0052767Y0012538D01*
X0052753Y0012463D01*
X0052744Y0012388D01*
X0052738Y0012312D01*
X0052736Y0012236D01*
X0052736Y0010236D01*
X0052738Y0010160D01*
X0052744Y0010084D01*
X0052753Y0010009D01*
X0052767Y0009934D01*
X0052784Y0009860D01*
X0052805Y0009787D01*
X0052829Y0009715D01*
X0052858Y0009644D01*
X0052889Y0009575D01*
X0052924Y0009508D01*
X0052963Y0009443D01*
X0053005Y0009379D01*
X0053050Y0009318D01*
X0053098Y0009259D01*
X0053149Y0009203D01*
X0053203Y0009149D01*
X0053259Y0009098D01*
X0053318Y0009050D01*
X0053379Y0009005D01*
X0053443Y0008963D01*
X0053508Y0008924D01*
X0053575Y0008889D01*
X0053644Y0008858D01*
X0053715Y0008829D01*
X0053787Y0008805D01*
X0053860Y0008784D01*
X0053934Y0008767D01*
X0054009Y0008753D01*
X0054084Y0008744D01*
X0054160Y0008738D01*
X0054236Y0008736D01*
X0068236Y0008736D01*
D17*
X0071236Y0011236D02*
X0062786Y0011236D01*
X0059736Y0011236D02*
X0051236Y0011236D01*
X0087681Y0057586D02*
X0088415Y0057586D01*
X0088048Y0057586D02*
X0088048Y0058687D01*
X0087681Y0058320D01*
X0068415Y0077586D02*
X0067681Y0077586D01*
X0068048Y0077586D02*
X0068048Y0078687D01*
X0067681Y0078320D01*
D18*
X0031236Y0022236D03*
X0031236Y0020236D03*
D19*
X0101236Y0022486D02*
X0131236Y0019986D01*
X0101236Y0017486D01*
X0131236Y0014986D01*
X0101236Y0012486D01*
X0101236Y0022486D02*
X0131236Y0024986D01*
X0101236Y0027486D01*
X0131236Y0029986D01*
X0101236Y0032486D01*
X0131236Y0034986D01*
X0101236Y0037486D01*
X0131236Y0039986D01*
X0101236Y0042486D01*
X0131236Y0044986D01*
X0101236Y0047486D01*
X0131236Y0049986D01*
D20*
X0081986Y0031236D03*
X0081986Y0031236D03*
X0060486Y0031236D03*
X0060486Y0031236D03*
X0041986Y0081236D03*
X0041986Y0081236D03*
X0020486Y0081236D03*
X0020486Y0081236D03*
D21*
X0019736Y0081236D02*
X0011236Y0081236D01*
X0042736Y0081236D02*
X0051236Y0081236D01*
X0051236Y0031236D02*
X0059736Y0031236D01*
X0082736Y0031236D02*
X0091236Y0031236D01*
M02*
