%
M48
M72
T01C0.01500
T02C0.03543
%
T01
X2123Y1123
X2123Y3123
T02
X1123Y1123
X1123Y2123
X1123Y3123
X1123Y4123
X1123Y5123
X3123Y4123
X4123Y4123
X5123Y3123
X5123Y2123
X6123Y2123
X7123Y2123
X8123Y2123
X8123Y1123
X6123Y1123
X5123Y1123
X4123Y1123
X3123Y1123
X6123Y4123
X7123Y4123
X8123Y4123
X8123Y5123
X7123Y6123
X5123Y6123
X3123Y6123
X3123Y8123
X2123Y9123
X1123Y9123
X5123Y8123
X6123Y9123
X7123Y9123
X11123Y9123
M30
