%
M48
M72
T01C0.03543
%
T01
X1100Y1100
X1100Y2100
X1100Y4100
X2100Y4100
X3100Y4100
X4100Y4100
X5084Y3100
X6100Y2100
X7100Y1100
X8100Y2100
X7100Y3100
X8100Y4100
X9100Y3100
X10100Y4100
X11100Y4100
X12100Y4100
X12100Y2100
X12100Y1100
X9100Y1100
X4115Y1100
X3100Y6100
X2100Y6100
X1100Y8100
X4100Y8100
X5100Y8100
X9100Y8100
X10100Y8100
X12100Y8100
X12100Y6100
X10100Y6100
M30
