G75*
%MOIN*%
%OFA0B0*%
%FSLAX25Y25*%
%IPPOS*%
%LPD*%
%AMOC8*
5,1,8,0,0,1.08239X$1,22.5*
%
%ADD10C,0.07000*%
%ADD11OC8,0.06496*%
%ADD12C,0.05543*%
%ADD13OC8,0.05150*%
%ADD14OC8,0.05200*%
%ADD15C,0.05000*%
D10*
X0131000Y0041000D03*
X0141000Y0041000D03*
X0151000Y0041000D03*
X0151000Y0101000D03*
X0141000Y0101000D03*
X0101000Y0101000D03*
X0091000Y0101000D03*
X0011000Y0101000D03*
D11*
X0041000Y0101000D03*
X0041000Y0081000D03*
X0061000Y0081000D03*
X0061000Y0061000D03*
X0061000Y0041000D03*
X0041000Y0041000D03*
D12*
X0021000Y0041000D03*
X0011000Y0056000D03*
X0021000Y0081000D03*
X0101000Y0071000D03*
X0141000Y0071000D03*
D13*
X0101000Y0061000D03*
X0091000Y0061000D03*
X0081000Y0061000D03*
D14*
X0081000Y0081000D03*
X0101000Y0081000D03*
D15*
X0111000Y0031000D02*
X0011000Y0031000D01*
X0011000Y0056000D01*
X0021000Y0041000D02*
X0061000Y0041000D01*
X0091000Y0041000D01*
X0091000Y0061000D01*
X0081000Y0061000D02*
X0061000Y0061000D01*
X0041000Y0061000D01*
X0041000Y0081000D01*
X0021000Y0081000D01*
X0026000Y0101000D02*
X0011000Y0101000D01*
X0041000Y0101000D01*
X0081000Y0101000D02*
X0081000Y0081000D01*
X0101000Y0081000D02*
X0101000Y0071000D01*
X0101000Y0061000D01*
X0131000Y0071000D02*
X0131000Y0041000D01*
X0141000Y0041000D02*
X0151000Y0041000D01*
X0151000Y0101000D01*
X0141000Y0101000D02*
X0111000Y0101000D01*
X0101000Y0101000D01*
X0091000Y0101000D02*
X0081000Y0101000D01*
X0111000Y0101000D02*
X0111000Y0031000D01*
X0131000Y0071000D02*
X0141000Y0071000D01*
M02*
