G75*
%MOIN*%
%OFA0B0*%
%FSLAX25Y25*%
%IPPOS*%
%LPD*%
%AMOC8*
5,1,8,0,0,1.08239X$1,22.5*
%
%ADD10C,0.00200*%
%ADD11C,0.00500*%
%ADD12C,0.00300*%
%ADD13C,0.00600*%
%ADD14R,0.01500X0.02000*%
%ADD15C,0.00800*%
%ADD16C,0.00100*%
%ADD17C,0.01200*%
%ADD18C,0.00400*%
D10*
X0084470Y0054900D02*
X0085938Y0056368D01*
X0085938Y0056735D01*
X0085571Y0057102D01*
X0084837Y0057102D01*
X0084470Y0056735D01*
X0086680Y0057102D02*
X0088148Y0054900D01*
X0088148Y0057102D01*
X0088890Y0056735D02*
X0089257Y0057102D01*
X0089991Y0057102D01*
X0090358Y0056735D01*
X0090358Y0056368D01*
X0089991Y0056001D01*
X0090358Y0055634D01*
X0090358Y0055267D01*
X0089991Y0054900D01*
X0089257Y0054900D01*
X0088890Y0055267D01*
X0089624Y0056001D02*
X0089991Y0056001D01*
X0091100Y0056368D02*
X0091467Y0056001D01*
X0092568Y0056001D01*
X0092568Y0055267D02*
X0092568Y0056735D01*
X0092201Y0057102D01*
X0091467Y0057102D01*
X0091100Y0056735D01*
X0091100Y0056368D01*
X0091100Y0055267D02*
X0091467Y0054900D01*
X0092201Y0054900D01*
X0092568Y0055267D01*
X0093310Y0055267D02*
X0094778Y0056735D01*
X0094778Y0055267D01*
X0094411Y0054900D01*
X0093677Y0054900D01*
X0093310Y0055267D01*
X0093310Y0056735D01*
X0093677Y0057102D01*
X0094411Y0057102D01*
X0094778Y0056735D01*
X0095520Y0056001D02*
X0096621Y0056001D01*
X0096988Y0055634D01*
X0096988Y0055267D01*
X0096621Y0054900D01*
X0095887Y0054900D01*
X0095520Y0055267D01*
X0095520Y0056001D01*
X0096254Y0056735D01*
X0096988Y0057102D01*
X0086680Y0057102D02*
X0086680Y0054900D01*
X0085938Y0054900D02*
X0084470Y0054900D01*
X0101098Y0066100D02*
X0101098Y0067568D01*
X0101098Y0066834D02*
X0103300Y0066834D01*
X0103300Y0068310D02*
X0103300Y0069778D01*
X0103300Y0069044D02*
X0101098Y0069044D01*
X0101832Y0068310D01*
X0105180Y0073700D02*
X0105180Y0075902D01*
X0106281Y0075902D01*
X0106648Y0075535D01*
X0106648Y0074801D01*
X0106281Y0074434D01*
X0105180Y0074434D01*
X0105914Y0074434D02*
X0106648Y0073700D01*
X0107390Y0073700D02*
X0108858Y0073700D01*
X0108124Y0073700D02*
X0108124Y0075902D01*
X0107390Y0075168D01*
X0123100Y0050302D02*
X0124201Y0050302D01*
X0124568Y0049935D01*
X0124568Y0049201D01*
X0124201Y0048834D01*
X0123100Y0048834D01*
X0123834Y0048834D02*
X0124568Y0048100D01*
X0125310Y0048100D02*
X0126778Y0049568D01*
X0126778Y0049935D01*
X0126411Y0050302D01*
X0125677Y0050302D01*
X0125310Y0049935D01*
X0125310Y0048100D02*
X0126778Y0048100D01*
X0123100Y0048100D02*
X0123100Y0050302D01*
X0136680Y0105350D02*
X0137781Y0105350D01*
X0138148Y0105717D01*
X0138148Y0106084D01*
X0137781Y0106451D01*
X0136680Y0106451D01*
X0136680Y0105350D02*
X0136680Y0107552D01*
X0137781Y0107552D01*
X0138148Y0107185D01*
X0138148Y0106818D01*
X0137781Y0106451D01*
X0138890Y0106451D02*
X0140358Y0106451D01*
X0140358Y0106818D02*
X0140358Y0105350D01*
X0138890Y0105350D02*
X0138890Y0106818D01*
X0139624Y0107552D01*
X0140358Y0106818D01*
X0141100Y0107552D02*
X0142568Y0107552D01*
X0141834Y0107552D02*
X0141834Y0105350D01*
X0143310Y0106451D02*
X0144778Y0106451D01*
X0146680Y0106451D02*
X0147781Y0106451D01*
X0148148Y0106084D01*
X0148148Y0105717D01*
X0147781Y0105350D01*
X0146680Y0105350D01*
X0146680Y0107552D01*
X0147781Y0107552D01*
X0148148Y0107185D01*
X0148148Y0106818D01*
X0147781Y0106451D01*
X0148890Y0106451D02*
X0150358Y0106451D01*
X0150358Y0106818D02*
X0150358Y0105350D01*
X0148890Y0105350D02*
X0148890Y0106818D01*
X0149624Y0107552D01*
X0150358Y0106818D01*
X0151100Y0107552D02*
X0152568Y0107552D01*
X0151834Y0107552D02*
X0151834Y0105350D01*
X0153310Y0106451D02*
X0154778Y0106451D01*
X0154044Y0107185D02*
X0154044Y0105717D01*
X0006650Y0104778D02*
X0006650Y0103310D01*
X0006650Y0104044D02*
X0004448Y0104044D01*
X0005182Y0103310D01*
X0004448Y0102568D02*
X0004448Y0101100D01*
X0004448Y0101834D02*
X0006650Y0101834D01*
X0006650Y0100358D02*
X0004448Y0100358D01*
X0004448Y0098890D02*
X0006650Y0100358D01*
X0006650Y0098890D02*
X0004448Y0098890D01*
X0005182Y0098148D02*
X0006650Y0098148D01*
X0005549Y0098148D02*
X0005549Y0096680D01*
X0005182Y0096680D02*
X0004448Y0097414D01*
X0005182Y0098148D01*
X0005182Y0096680D02*
X0006650Y0096680D01*
D11*
X0054143Y0036640D02*
X0057352Y0033431D01*
X0058822Y0033538D01*
X0060293Y0033645D01*
X0061577Y0034928D01*
X0058230Y0038275D01*
X0059443Y0037132D02*
X0064850Y0042539D01*
X0063739Y0043784D02*
X0067086Y0040437D01*
X0068370Y0041721D01*
X0068482Y0043197D01*
X0068595Y0044674D01*
X0065227Y0048042D01*
X0065360Y0043918D02*
X0065362Y0043981D01*
X0065368Y0044043D01*
X0065378Y0044105D01*
X0065391Y0044167D01*
X0065409Y0044227D01*
X0065430Y0044286D01*
X0065455Y0044344D01*
X0065484Y0044400D01*
X0065516Y0044454D01*
X0065551Y0044506D01*
X0065589Y0044555D01*
X0065631Y0044603D01*
X0065675Y0044647D01*
X0065723Y0044689D01*
X0065772Y0044727D01*
X0065824Y0044762D01*
X0065878Y0044794D01*
X0065934Y0044823D01*
X0065992Y0044848D01*
X0066051Y0044869D01*
X0066111Y0044887D01*
X0066173Y0044900D01*
X0066235Y0044910D01*
X0066297Y0044916D01*
X0066360Y0044918D01*
X0066423Y0044916D01*
X0066485Y0044910D01*
X0066547Y0044900D01*
X0066609Y0044887D01*
X0066669Y0044869D01*
X0066728Y0044848D01*
X0066786Y0044823D01*
X0066842Y0044794D01*
X0066896Y0044762D01*
X0066948Y0044727D01*
X0066997Y0044689D01*
X0067045Y0044647D01*
X0067089Y0044603D01*
X0067131Y0044555D01*
X0067169Y0044506D01*
X0067204Y0044454D01*
X0067236Y0044400D01*
X0067265Y0044344D01*
X0067290Y0044286D01*
X0067311Y0044227D01*
X0067329Y0044167D01*
X0067342Y0044105D01*
X0067352Y0044043D01*
X0067358Y0043981D01*
X0067360Y0043918D01*
X0067358Y0043855D01*
X0067352Y0043793D01*
X0067342Y0043731D01*
X0067329Y0043669D01*
X0067311Y0043609D01*
X0067290Y0043550D01*
X0067265Y0043492D01*
X0067236Y0043436D01*
X0067204Y0043382D01*
X0067169Y0043330D01*
X0067131Y0043281D01*
X0067089Y0043233D01*
X0067045Y0043189D01*
X0066997Y0043147D01*
X0066948Y0043109D01*
X0066896Y0043074D01*
X0066842Y0043042D01*
X0066786Y0043013D01*
X0066728Y0042988D01*
X0066669Y0042967D01*
X0066609Y0042949D01*
X0066547Y0042936D01*
X0066485Y0042926D01*
X0066423Y0042920D01*
X0066360Y0042918D01*
X0066297Y0042920D01*
X0066235Y0042926D01*
X0066173Y0042936D01*
X0066111Y0042949D01*
X0066051Y0042967D01*
X0065992Y0042988D01*
X0065934Y0043013D01*
X0065878Y0043042D01*
X0065824Y0043074D01*
X0065772Y0043109D01*
X0065723Y0043147D01*
X0065675Y0043189D01*
X0065631Y0043233D01*
X0065589Y0043281D01*
X0065551Y0043330D01*
X0065516Y0043382D01*
X0065484Y0043436D01*
X0065455Y0043492D01*
X0065430Y0043550D01*
X0065409Y0043609D01*
X0065391Y0043669D01*
X0065378Y0043731D01*
X0065368Y0043793D01*
X0065362Y0043855D01*
X0065360Y0043918D01*
X0066253Y0040823D02*
X0063722Y0038292D01*
X0063721Y0038292D02*
X0060940Y0035511D01*
X0057107Y0035720D02*
X0057109Y0035783D01*
X0057115Y0035845D01*
X0057125Y0035907D01*
X0057138Y0035969D01*
X0057156Y0036029D01*
X0057177Y0036088D01*
X0057202Y0036146D01*
X0057231Y0036202D01*
X0057263Y0036256D01*
X0057298Y0036308D01*
X0057336Y0036357D01*
X0057378Y0036405D01*
X0057422Y0036449D01*
X0057470Y0036491D01*
X0057519Y0036529D01*
X0057571Y0036564D01*
X0057625Y0036596D01*
X0057681Y0036625D01*
X0057739Y0036650D01*
X0057798Y0036671D01*
X0057858Y0036689D01*
X0057920Y0036702D01*
X0057982Y0036712D01*
X0058044Y0036718D01*
X0058107Y0036720D01*
X0058170Y0036718D01*
X0058232Y0036712D01*
X0058294Y0036702D01*
X0058356Y0036689D01*
X0058416Y0036671D01*
X0058475Y0036650D01*
X0058533Y0036625D01*
X0058589Y0036596D01*
X0058643Y0036564D01*
X0058695Y0036529D01*
X0058744Y0036491D01*
X0058792Y0036449D01*
X0058836Y0036405D01*
X0058878Y0036357D01*
X0058916Y0036308D01*
X0058951Y0036256D01*
X0058983Y0036202D01*
X0059012Y0036146D01*
X0059037Y0036088D01*
X0059058Y0036029D01*
X0059076Y0035969D01*
X0059089Y0035907D01*
X0059099Y0035845D01*
X0059105Y0035783D01*
X0059107Y0035720D01*
X0059105Y0035657D01*
X0059099Y0035595D01*
X0059089Y0035533D01*
X0059076Y0035471D01*
X0059058Y0035411D01*
X0059037Y0035352D01*
X0059012Y0035294D01*
X0058983Y0035238D01*
X0058951Y0035184D01*
X0058916Y0035132D01*
X0058878Y0035083D01*
X0058836Y0035035D01*
X0058792Y0034991D01*
X0058744Y0034949D01*
X0058695Y0034911D01*
X0058643Y0034876D01*
X0058589Y0034844D01*
X0058533Y0034815D01*
X0058475Y0034790D01*
X0058416Y0034769D01*
X0058356Y0034751D01*
X0058294Y0034738D01*
X0058232Y0034728D01*
X0058170Y0034722D01*
X0058107Y0034720D01*
X0058044Y0034722D01*
X0057982Y0034728D01*
X0057920Y0034738D01*
X0057858Y0034751D01*
X0057798Y0034769D01*
X0057739Y0034790D01*
X0057681Y0034815D01*
X0057625Y0034844D01*
X0057571Y0034876D01*
X0057519Y0034911D01*
X0057470Y0034949D01*
X0057422Y0034991D01*
X0057378Y0035035D01*
X0057336Y0035083D01*
X0057298Y0035132D01*
X0057263Y0035184D01*
X0057231Y0035238D01*
X0057202Y0035294D01*
X0057177Y0035352D01*
X0057156Y0035411D01*
X0057138Y0035471D01*
X0057125Y0035533D01*
X0057115Y0035595D01*
X0057109Y0035657D01*
X0057107Y0035720D01*
X0048501Y0046988D02*
X0055009Y0053497D01*
X0053405Y0055101D02*
X0046896Y0048593D01*
X0037665Y0051000D02*
X0037669Y0051327D01*
X0037681Y0051654D01*
X0037701Y0051981D01*
X0037729Y0052307D01*
X0037765Y0052632D01*
X0037809Y0052957D01*
X0037861Y0053280D01*
X0037921Y0053602D01*
X0037989Y0053922D01*
X0038065Y0054240D01*
X0038148Y0054557D01*
X0038239Y0054871D01*
X0038338Y0055183D01*
X0038445Y0055492D01*
X0038559Y0055799D01*
X0038680Y0056103D01*
X0038809Y0056404D01*
X0038945Y0056701D01*
X0039089Y0056996D01*
X0039240Y0057286D01*
X0039397Y0057573D01*
X0039562Y0057856D01*
X0039734Y0058134D01*
X0039912Y0058409D01*
X0040098Y0058678D01*
X0040289Y0058944D01*
X0040487Y0059204D01*
X0040692Y0059460D01*
X0040903Y0059710D01*
X0041119Y0059955D01*
X0041342Y0060195D01*
X0041571Y0060429D01*
X0041805Y0060658D01*
X0042045Y0060881D01*
X0042290Y0061097D01*
X0042540Y0061308D01*
X0042796Y0061513D01*
X0043056Y0061711D01*
X0043322Y0061902D01*
X0043591Y0062088D01*
X0043866Y0062266D01*
X0044144Y0062438D01*
X0044427Y0062603D01*
X0044714Y0062760D01*
X0045004Y0062911D01*
X0045299Y0063055D01*
X0045596Y0063191D01*
X0045897Y0063320D01*
X0046201Y0063441D01*
X0046508Y0063555D01*
X0046817Y0063662D01*
X0047129Y0063761D01*
X0047443Y0063852D01*
X0047760Y0063935D01*
X0048078Y0064011D01*
X0048398Y0064079D01*
X0048720Y0064139D01*
X0049043Y0064191D01*
X0049368Y0064235D01*
X0049693Y0064271D01*
X0050019Y0064299D01*
X0050346Y0064319D01*
X0050673Y0064331D01*
X0051000Y0064335D01*
X0051327Y0064331D01*
X0051654Y0064319D01*
X0051981Y0064299D01*
X0052307Y0064271D01*
X0052632Y0064235D01*
X0052957Y0064191D01*
X0053280Y0064139D01*
X0053602Y0064079D01*
X0053922Y0064011D01*
X0054240Y0063935D01*
X0054557Y0063852D01*
X0054871Y0063761D01*
X0055183Y0063662D01*
X0055492Y0063555D01*
X0055799Y0063441D01*
X0056103Y0063320D01*
X0056404Y0063191D01*
X0056701Y0063055D01*
X0056996Y0062911D01*
X0057286Y0062760D01*
X0057573Y0062603D01*
X0057856Y0062438D01*
X0058134Y0062266D01*
X0058409Y0062088D01*
X0058678Y0061902D01*
X0058944Y0061711D01*
X0059204Y0061513D01*
X0059460Y0061308D01*
X0059710Y0061097D01*
X0059955Y0060881D01*
X0060195Y0060658D01*
X0060429Y0060429D01*
X0060658Y0060195D01*
X0060881Y0059955D01*
X0061097Y0059710D01*
X0061308Y0059460D01*
X0061513Y0059204D01*
X0061711Y0058944D01*
X0061902Y0058678D01*
X0062088Y0058409D01*
X0062266Y0058134D01*
X0062438Y0057856D01*
X0062603Y0057573D01*
X0062760Y0057286D01*
X0062911Y0056996D01*
X0063055Y0056701D01*
X0063191Y0056404D01*
X0063320Y0056103D01*
X0063441Y0055799D01*
X0063555Y0055492D01*
X0063662Y0055183D01*
X0063761Y0054871D01*
X0063852Y0054557D01*
X0063935Y0054240D01*
X0064011Y0053922D01*
X0064079Y0053602D01*
X0064139Y0053280D01*
X0064191Y0052957D01*
X0064235Y0052632D01*
X0064271Y0052307D01*
X0064299Y0051981D01*
X0064319Y0051654D01*
X0064331Y0051327D01*
X0064335Y0051000D01*
X0064331Y0050673D01*
X0064319Y0050346D01*
X0064299Y0050019D01*
X0064271Y0049693D01*
X0064235Y0049368D01*
X0064191Y0049043D01*
X0064139Y0048720D01*
X0064079Y0048398D01*
X0064011Y0048078D01*
X0063935Y0047760D01*
X0063852Y0047443D01*
X0063761Y0047129D01*
X0063662Y0046817D01*
X0063555Y0046508D01*
X0063441Y0046201D01*
X0063320Y0045897D01*
X0063191Y0045596D01*
X0063055Y0045299D01*
X0062911Y0045004D01*
X0062760Y0044714D01*
X0062603Y0044427D01*
X0062438Y0044144D01*
X0062266Y0043866D01*
X0062088Y0043591D01*
X0061902Y0043322D01*
X0061711Y0043056D01*
X0061513Y0042796D01*
X0061308Y0042540D01*
X0061097Y0042290D01*
X0060881Y0042045D01*
X0060658Y0041805D01*
X0060429Y0041571D01*
X0060195Y0041342D01*
X0059955Y0041119D01*
X0059710Y0040903D01*
X0059460Y0040692D01*
X0059204Y0040487D01*
X0058944Y0040289D01*
X0058678Y0040098D01*
X0058409Y0039912D01*
X0058134Y0039734D01*
X0057856Y0039562D01*
X0057573Y0039397D01*
X0057286Y0039240D01*
X0056996Y0039089D01*
X0056701Y0038945D01*
X0056404Y0038809D01*
X0056103Y0038680D01*
X0055799Y0038559D01*
X0055492Y0038445D01*
X0055183Y0038338D01*
X0054871Y0038239D01*
X0054557Y0038148D01*
X0054240Y0038065D01*
X0053922Y0037989D01*
X0053602Y0037921D01*
X0053280Y0037861D01*
X0052957Y0037809D01*
X0052632Y0037765D01*
X0052307Y0037729D01*
X0051981Y0037701D01*
X0051654Y0037681D01*
X0051327Y0037669D01*
X0051000Y0037665D01*
X0050673Y0037669D01*
X0050346Y0037681D01*
X0050019Y0037701D01*
X0049693Y0037729D01*
X0049368Y0037765D01*
X0049043Y0037809D01*
X0048720Y0037861D01*
X0048398Y0037921D01*
X0048078Y0037989D01*
X0047760Y0038065D01*
X0047443Y0038148D01*
X0047129Y0038239D01*
X0046817Y0038338D01*
X0046508Y0038445D01*
X0046201Y0038559D01*
X0045897Y0038680D01*
X0045596Y0038809D01*
X0045299Y0038945D01*
X0045004Y0039089D01*
X0044714Y0039240D01*
X0044427Y0039397D01*
X0044144Y0039562D01*
X0043866Y0039734D01*
X0043591Y0039912D01*
X0043322Y0040098D01*
X0043056Y0040289D01*
X0042796Y0040487D01*
X0042540Y0040692D01*
X0042290Y0040903D01*
X0042045Y0041119D01*
X0041805Y0041342D01*
X0041571Y0041571D01*
X0041342Y0041805D01*
X0041119Y0042045D01*
X0040903Y0042290D01*
X0040692Y0042540D01*
X0040487Y0042796D01*
X0040289Y0043056D01*
X0040098Y0043322D01*
X0039912Y0043591D01*
X0039734Y0043866D01*
X0039562Y0044144D01*
X0039397Y0044427D01*
X0039240Y0044714D01*
X0039089Y0045004D01*
X0038945Y0045299D01*
X0038809Y0045596D01*
X0038680Y0045897D01*
X0038559Y0046201D01*
X0038445Y0046508D01*
X0038338Y0046817D01*
X0038239Y0047129D01*
X0038148Y0047443D01*
X0038065Y0047760D01*
X0037989Y0048078D01*
X0037921Y0048398D01*
X0037861Y0048720D01*
X0037809Y0049043D01*
X0037765Y0049368D01*
X0037729Y0049693D01*
X0037701Y0050019D01*
X0037681Y0050346D01*
X0037669Y0050673D01*
X0037665Y0051000D01*
X0036556Y0051000D02*
X0036560Y0051354D01*
X0036573Y0051709D01*
X0036595Y0052063D01*
X0036626Y0052416D01*
X0036665Y0052768D01*
X0036712Y0053119D01*
X0036769Y0053469D01*
X0036834Y0053818D01*
X0036907Y0054165D01*
X0036989Y0054510D01*
X0037079Y0054852D01*
X0037178Y0055193D01*
X0037285Y0055531D01*
X0037400Y0055866D01*
X0037524Y0056198D01*
X0037655Y0056527D01*
X0037795Y0056853D01*
X0037943Y0057176D01*
X0038098Y0057494D01*
X0038262Y0057809D01*
X0038432Y0058119D01*
X0038611Y0058426D01*
X0038797Y0058728D01*
X0038990Y0059025D01*
X0039191Y0059317D01*
X0039398Y0059604D01*
X0039613Y0059886D01*
X0039835Y0060163D01*
X0040063Y0060434D01*
X0040298Y0060700D01*
X0040539Y0060960D01*
X0040787Y0061213D01*
X0041040Y0061461D01*
X0041300Y0061702D01*
X0041566Y0061937D01*
X0041837Y0062165D01*
X0042114Y0062387D01*
X0042396Y0062602D01*
X0042683Y0062809D01*
X0042975Y0063010D01*
X0043272Y0063203D01*
X0043574Y0063389D01*
X0043881Y0063568D01*
X0044191Y0063738D01*
X0044506Y0063902D01*
X0044824Y0064057D01*
X0045147Y0064205D01*
X0045473Y0064345D01*
X0045802Y0064476D01*
X0046134Y0064600D01*
X0046469Y0064715D01*
X0046807Y0064822D01*
X0047148Y0064921D01*
X0047490Y0065011D01*
X0047835Y0065093D01*
X0048182Y0065166D01*
X0048531Y0065231D01*
X0048881Y0065288D01*
X0049232Y0065335D01*
X0049584Y0065374D01*
X0049937Y0065405D01*
X0050291Y0065427D01*
X0050646Y0065440D01*
X0051000Y0065444D01*
X0051354Y0065440D01*
X0051709Y0065427D01*
X0052063Y0065405D01*
X0052416Y0065374D01*
X0052768Y0065335D01*
X0053119Y0065288D01*
X0053469Y0065231D01*
X0053818Y0065166D01*
X0054165Y0065093D01*
X0054510Y0065011D01*
X0054852Y0064921D01*
X0055193Y0064822D01*
X0055531Y0064715D01*
X0055866Y0064600D01*
X0056198Y0064476D01*
X0056527Y0064345D01*
X0056853Y0064205D01*
X0057176Y0064057D01*
X0057494Y0063902D01*
X0057809Y0063738D01*
X0058119Y0063568D01*
X0058426Y0063389D01*
X0058728Y0063203D01*
X0059025Y0063010D01*
X0059317Y0062809D01*
X0059604Y0062602D01*
X0059886Y0062387D01*
X0060163Y0062165D01*
X0060434Y0061937D01*
X0060700Y0061702D01*
X0060960Y0061461D01*
X0061213Y0061213D01*
X0061461Y0060960D01*
X0061702Y0060700D01*
X0061937Y0060434D01*
X0062165Y0060163D01*
X0062387Y0059886D01*
X0062602Y0059604D01*
X0062809Y0059317D01*
X0063010Y0059025D01*
X0063203Y0058728D01*
X0063389Y0058426D01*
X0063568Y0058119D01*
X0063738Y0057809D01*
X0063902Y0057494D01*
X0064057Y0057176D01*
X0064205Y0056853D01*
X0064345Y0056527D01*
X0064476Y0056198D01*
X0064600Y0055866D01*
X0064715Y0055531D01*
X0064822Y0055193D01*
X0064921Y0054852D01*
X0065011Y0054510D01*
X0065093Y0054165D01*
X0065166Y0053818D01*
X0065231Y0053469D01*
X0065288Y0053119D01*
X0065335Y0052768D01*
X0065374Y0052416D01*
X0065405Y0052063D01*
X0065427Y0051709D01*
X0065440Y0051354D01*
X0065444Y0051000D01*
X0065440Y0050646D01*
X0065427Y0050291D01*
X0065405Y0049937D01*
X0065374Y0049584D01*
X0065335Y0049232D01*
X0065288Y0048881D01*
X0065231Y0048531D01*
X0065166Y0048182D01*
X0065093Y0047835D01*
X0065011Y0047490D01*
X0064921Y0047148D01*
X0064822Y0046807D01*
X0064715Y0046469D01*
X0064600Y0046134D01*
X0064476Y0045802D01*
X0064345Y0045473D01*
X0064205Y0045147D01*
X0064057Y0044824D01*
X0063902Y0044506D01*
X0063738Y0044191D01*
X0063568Y0043881D01*
X0063389Y0043574D01*
X0063203Y0043272D01*
X0063010Y0042975D01*
X0062809Y0042683D01*
X0062602Y0042396D01*
X0062387Y0042114D01*
X0062165Y0041837D01*
X0061937Y0041566D01*
X0061702Y0041300D01*
X0061461Y0041040D01*
X0061213Y0040787D01*
X0060960Y0040539D01*
X0060700Y0040298D01*
X0060434Y0040063D01*
X0060163Y0039835D01*
X0059886Y0039613D01*
X0059604Y0039398D01*
X0059317Y0039191D01*
X0059025Y0038990D01*
X0058728Y0038797D01*
X0058426Y0038611D01*
X0058119Y0038432D01*
X0057809Y0038262D01*
X0057494Y0038098D01*
X0057176Y0037943D01*
X0056853Y0037795D01*
X0056527Y0037655D01*
X0056198Y0037524D01*
X0055866Y0037400D01*
X0055531Y0037285D01*
X0055193Y0037178D01*
X0054852Y0037079D01*
X0054510Y0036989D01*
X0054165Y0036907D01*
X0053818Y0036834D01*
X0053469Y0036769D01*
X0053119Y0036712D01*
X0052768Y0036665D01*
X0052416Y0036626D01*
X0052063Y0036595D01*
X0051709Y0036573D01*
X0051354Y0036560D01*
X0051000Y0036556D01*
X0050646Y0036560D01*
X0050291Y0036573D01*
X0049937Y0036595D01*
X0049584Y0036626D01*
X0049232Y0036665D01*
X0048881Y0036712D01*
X0048531Y0036769D01*
X0048182Y0036834D01*
X0047835Y0036907D01*
X0047490Y0036989D01*
X0047148Y0037079D01*
X0046807Y0037178D01*
X0046469Y0037285D01*
X0046134Y0037400D01*
X0045802Y0037524D01*
X0045473Y0037655D01*
X0045147Y0037795D01*
X0044824Y0037943D01*
X0044506Y0038098D01*
X0044191Y0038262D01*
X0043881Y0038432D01*
X0043574Y0038611D01*
X0043272Y0038797D01*
X0042975Y0038990D01*
X0042683Y0039191D01*
X0042396Y0039398D01*
X0042114Y0039613D01*
X0041837Y0039835D01*
X0041566Y0040063D01*
X0041300Y0040298D01*
X0041040Y0040539D01*
X0040787Y0040787D01*
X0040539Y0041040D01*
X0040298Y0041300D01*
X0040063Y0041566D01*
X0039835Y0041837D01*
X0039613Y0042114D01*
X0039398Y0042396D01*
X0039191Y0042683D01*
X0038990Y0042975D01*
X0038797Y0043272D01*
X0038611Y0043574D01*
X0038432Y0043881D01*
X0038262Y0044191D01*
X0038098Y0044506D01*
X0037943Y0044824D01*
X0037795Y0045147D01*
X0037655Y0045473D01*
X0037524Y0045802D01*
X0037400Y0046134D01*
X0037285Y0046469D01*
X0037178Y0046807D01*
X0037079Y0047148D01*
X0036989Y0047490D01*
X0036907Y0047835D01*
X0036834Y0048182D01*
X0036769Y0048531D01*
X0036712Y0048881D01*
X0036665Y0049232D01*
X0036626Y0049584D01*
X0036595Y0049937D01*
X0036573Y0050291D01*
X0036560Y0050646D01*
X0036556Y0051000D01*
X0046200Y0051000D02*
X0046202Y0051138D01*
X0046208Y0051277D01*
X0046218Y0051415D01*
X0046232Y0051552D01*
X0046250Y0051689D01*
X0046272Y0051826D01*
X0046297Y0051962D01*
X0046327Y0052097D01*
X0046361Y0052231D01*
X0046398Y0052364D01*
X0046439Y0052496D01*
X0046484Y0052627D01*
X0046533Y0052757D01*
X0046585Y0052885D01*
X0046642Y0053011D01*
X0046701Y0053136D01*
X0046765Y0053259D01*
X0046832Y0053380D01*
X0046902Y0053499D01*
X0046976Y0053616D01*
X0047053Y0053731D01*
X0047133Y0053844D01*
X0047217Y0053954D01*
X0047303Y0054062D01*
X0047393Y0054167D01*
X0047486Y0054270D01*
X0047582Y0054370D01*
X0047680Y0054467D01*
X0047781Y0054561D01*
X0047885Y0054652D01*
X0047992Y0054740D01*
X0048101Y0054826D01*
X0048212Y0054908D01*
X0048326Y0054986D01*
X0048442Y0055062D01*
X0048560Y0055134D01*
X0048680Y0055202D01*
X0048802Y0055267D01*
X0048926Y0055329D01*
X0049052Y0055387D01*
X0049179Y0055441D01*
X0049308Y0055492D01*
X0049438Y0055539D01*
X0049569Y0055582D01*
X0049702Y0055621D01*
X0049836Y0055657D01*
X0049970Y0055688D01*
X0050106Y0055716D01*
X0050242Y0055740D01*
X0050379Y0055760D01*
X0050517Y0055776D01*
X0050654Y0055788D01*
X0050793Y0055796D01*
X0050931Y0055800D01*
X0051069Y0055800D01*
X0051207Y0055796D01*
X0051346Y0055788D01*
X0051483Y0055776D01*
X0051621Y0055760D01*
X0051758Y0055740D01*
X0051894Y0055716D01*
X0052030Y0055688D01*
X0052164Y0055657D01*
X0052298Y0055621D01*
X0052431Y0055582D01*
X0052562Y0055539D01*
X0052692Y0055492D01*
X0052821Y0055441D01*
X0052948Y0055387D01*
X0053074Y0055329D01*
X0053198Y0055267D01*
X0053320Y0055202D01*
X0053440Y0055134D01*
X0053558Y0055062D01*
X0053674Y0054986D01*
X0053788Y0054908D01*
X0053899Y0054826D01*
X0054008Y0054740D01*
X0054115Y0054652D01*
X0054219Y0054561D01*
X0054320Y0054467D01*
X0054418Y0054370D01*
X0054514Y0054270D01*
X0054607Y0054167D01*
X0054697Y0054062D01*
X0054783Y0053954D01*
X0054867Y0053844D01*
X0054947Y0053731D01*
X0055024Y0053616D01*
X0055098Y0053499D01*
X0055168Y0053380D01*
X0055235Y0053259D01*
X0055299Y0053136D01*
X0055358Y0053011D01*
X0055415Y0052885D01*
X0055467Y0052757D01*
X0055516Y0052627D01*
X0055561Y0052496D01*
X0055602Y0052364D01*
X0055639Y0052231D01*
X0055673Y0052097D01*
X0055703Y0051962D01*
X0055728Y0051826D01*
X0055750Y0051689D01*
X0055768Y0051552D01*
X0055782Y0051415D01*
X0055792Y0051277D01*
X0055798Y0051138D01*
X0055800Y0051000D01*
X0055798Y0050862D01*
X0055792Y0050723D01*
X0055782Y0050585D01*
X0055768Y0050448D01*
X0055750Y0050311D01*
X0055728Y0050174D01*
X0055703Y0050038D01*
X0055673Y0049903D01*
X0055639Y0049769D01*
X0055602Y0049636D01*
X0055561Y0049504D01*
X0055516Y0049373D01*
X0055467Y0049243D01*
X0055415Y0049115D01*
X0055358Y0048989D01*
X0055299Y0048864D01*
X0055235Y0048741D01*
X0055168Y0048620D01*
X0055098Y0048501D01*
X0055024Y0048384D01*
X0054947Y0048269D01*
X0054867Y0048156D01*
X0054783Y0048046D01*
X0054697Y0047938D01*
X0054607Y0047833D01*
X0054514Y0047730D01*
X0054418Y0047630D01*
X0054320Y0047533D01*
X0054219Y0047439D01*
X0054115Y0047348D01*
X0054008Y0047260D01*
X0053899Y0047174D01*
X0053788Y0047092D01*
X0053674Y0047014D01*
X0053558Y0046938D01*
X0053440Y0046866D01*
X0053320Y0046798D01*
X0053198Y0046733D01*
X0053074Y0046671D01*
X0052948Y0046613D01*
X0052821Y0046559D01*
X0052692Y0046508D01*
X0052562Y0046461D01*
X0052431Y0046418D01*
X0052298Y0046379D01*
X0052164Y0046343D01*
X0052030Y0046312D01*
X0051894Y0046284D01*
X0051758Y0046260D01*
X0051621Y0046240D01*
X0051483Y0046224D01*
X0051346Y0046212D01*
X0051207Y0046204D01*
X0051069Y0046200D01*
X0050931Y0046200D01*
X0050793Y0046204D01*
X0050654Y0046212D01*
X0050517Y0046224D01*
X0050379Y0046240D01*
X0050242Y0046260D01*
X0050106Y0046284D01*
X0049970Y0046312D01*
X0049836Y0046343D01*
X0049702Y0046379D01*
X0049569Y0046418D01*
X0049438Y0046461D01*
X0049308Y0046508D01*
X0049179Y0046559D01*
X0049052Y0046613D01*
X0048926Y0046671D01*
X0048802Y0046733D01*
X0048680Y0046798D01*
X0048560Y0046866D01*
X0048442Y0046938D01*
X0048326Y0047014D01*
X0048212Y0047092D01*
X0048101Y0047174D01*
X0047992Y0047260D01*
X0047885Y0047348D01*
X0047781Y0047439D01*
X0047680Y0047533D01*
X0047582Y0047630D01*
X0047486Y0047730D01*
X0047393Y0047833D01*
X0047303Y0047938D01*
X0047217Y0048046D01*
X0047133Y0048156D01*
X0047053Y0048269D01*
X0046976Y0048384D01*
X0046902Y0048501D01*
X0046832Y0048620D01*
X0046765Y0048741D01*
X0046701Y0048864D01*
X0046642Y0048989D01*
X0046585Y0049115D01*
X0046533Y0049243D01*
X0046484Y0049373D01*
X0046439Y0049504D01*
X0046398Y0049636D01*
X0046361Y0049769D01*
X0046327Y0049903D01*
X0046297Y0050038D01*
X0046272Y0050174D01*
X0046250Y0050311D01*
X0046232Y0050448D01*
X0046218Y0050585D01*
X0046208Y0050723D01*
X0046202Y0050862D01*
X0046200Y0051000D01*
X0021000Y0047750D02*
X0020860Y0047752D01*
X0020720Y0047758D01*
X0020580Y0047768D01*
X0020440Y0047781D01*
X0020301Y0047799D01*
X0020162Y0047821D01*
X0020025Y0047846D01*
X0019887Y0047875D01*
X0019751Y0047908D01*
X0019616Y0047945D01*
X0019482Y0047986D01*
X0019349Y0048031D01*
X0019217Y0048079D01*
X0019087Y0048131D01*
X0018958Y0048186D01*
X0018831Y0048245D01*
X0018705Y0048308D01*
X0018581Y0048374D01*
X0018460Y0048443D01*
X0018340Y0048516D01*
X0018222Y0048593D01*
X0018107Y0048672D01*
X0017993Y0048755D01*
X0017883Y0048841D01*
X0017774Y0048930D01*
X0017668Y0049022D01*
X0017565Y0049117D01*
X0017464Y0049214D01*
X0017367Y0049315D01*
X0017272Y0049418D01*
X0017180Y0049524D01*
X0017091Y0049633D01*
X0017005Y0049743D01*
X0016922Y0049857D01*
X0016843Y0049972D01*
X0016766Y0050090D01*
X0016693Y0050210D01*
X0016624Y0050331D01*
X0016558Y0050455D01*
X0016495Y0050581D01*
X0016436Y0050708D01*
X0016381Y0050837D01*
X0016329Y0050967D01*
X0016281Y0051099D01*
X0016236Y0051232D01*
X0016195Y0051366D01*
X0016158Y0051501D01*
X0016125Y0051637D01*
X0016096Y0051775D01*
X0016071Y0051912D01*
X0016049Y0052051D01*
X0016031Y0052190D01*
X0016018Y0052330D01*
X0016008Y0052470D01*
X0016002Y0052610D01*
X0016000Y0052750D01*
X0016000Y0046000D01*
X0021000Y0041000D01*
X0021000Y0047750D02*
X0021140Y0047752D01*
X0021280Y0047758D01*
X0021420Y0047768D01*
X0021560Y0047781D01*
X0021699Y0047799D01*
X0021838Y0047821D01*
X0021975Y0047846D01*
X0022113Y0047875D01*
X0022249Y0047908D01*
X0022384Y0047945D01*
X0022518Y0047986D01*
X0022651Y0048031D01*
X0022783Y0048079D01*
X0022913Y0048131D01*
X0023042Y0048186D01*
X0023169Y0048245D01*
X0023295Y0048308D01*
X0023419Y0048374D01*
X0023540Y0048443D01*
X0023660Y0048516D01*
X0023778Y0048593D01*
X0023893Y0048672D01*
X0024007Y0048755D01*
X0024117Y0048841D01*
X0024226Y0048930D01*
X0024332Y0049022D01*
X0024435Y0049117D01*
X0024536Y0049214D01*
X0024633Y0049315D01*
X0024728Y0049418D01*
X0024820Y0049524D01*
X0024909Y0049633D01*
X0024995Y0049743D01*
X0025078Y0049857D01*
X0025157Y0049972D01*
X0025234Y0050090D01*
X0025307Y0050210D01*
X0025376Y0050331D01*
X0025442Y0050455D01*
X0025505Y0050581D01*
X0025564Y0050708D01*
X0025619Y0050837D01*
X0025671Y0050967D01*
X0025719Y0051099D01*
X0025764Y0051232D01*
X0025805Y0051366D01*
X0025842Y0051501D01*
X0025875Y0051637D01*
X0025904Y0051775D01*
X0025929Y0051912D01*
X0025951Y0052051D01*
X0025969Y0052190D01*
X0025982Y0052330D01*
X0025992Y0052470D01*
X0025998Y0052610D01*
X0026000Y0052750D01*
X0021000Y0047750D02*
X0020860Y0047752D01*
X0020720Y0047758D01*
X0020580Y0047768D01*
X0020440Y0047781D01*
X0020301Y0047799D01*
X0020162Y0047821D01*
X0020025Y0047846D01*
X0019887Y0047875D01*
X0019751Y0047908D01*
X0019616Y0047945D01*
X0019482Y0047986D01*
X0019349Y0048031D01*
X0019217Y0048079D01*
X0019087Y0048131D01*
X0018958Y0048186D01*
X0018831Y0048245D01*
X0018705Y0048308D01*
X0018581Y0048374D01*
X0018460Y0048443D01*
X0018340Y0048516D01*
X0018222Y0048593D01*
X0018107Y0048672D01*
X0017993Y0048755D01*
X0017883Y0048841D01*
X0017774Y0048930D01*
X0017668Y0049022D01*
X0017565Y0049117D01*
X0017464Y0049214D01*
X0017367Y0049315D01*
X0017272Y0049418D01*
X0017180Y0049524D01*
X0017091Y0049633D01*
X0017005Y0049743D01*
X0016922Y0049857D01*
X0016843Y0049972D01*
X0016766Y0050090D01*
X0016693Y0050210D01*
X0016624Y0050331D01*
X0016558Y0050455D01*
X0016495Y0050581D01*
X0016436Y0050708D01*
X0016381Y0050837D01*
X0016329Y0050967D01*
X0016281Y0051099D01*
X0016236Y0051232D01*
X0016195Y0051366D01*
X0016158Y0051501D01*
X0016125Y0051637D01*
X0016096Y0051775D01*
X0016071Y0051912D01*
X0016049Y0052051D01*
X0016031Y0052190D01*
X0016018Y0052330D01*
X0016008Y0052470D01*
X0016002Y0052610D01*
X0016000Y0052750D01*
X0016000Y0055750D02*
X0013000Y0055750D01*
X0016000Y0055750D02*
X0016002Y0055610D01*
X0016008Y0055470D01*
X0016018Y0055330D01*
X0016031Y0055190D01*
X0016049Y0055051D01*
X0016071Y0054912D01*
X0016096Y0054775D01*
X0016125Y0054637D01*
X0016158Y0054501D01*
X0016195Y0054366D01*
X0016236Y0054232D01*
X0016281Y0054099D01*
X0016329Y0053967D01*
X0016381Y0053837D01*
X0016436Y0053708D01*
X0016495Y0053581D01*
X0016558Y0053455D01*
X0016624Y0053331D01*
X0016693Y0053210D01*
X0016766Y0053090D01*
X0016843Y0052972D01*
X0016922Y0052857D01*
X0017005Y0052743D01*
X0017091Y0052633D01*
X0017180Y0052524D01*
X0017272Y0052418D01*
X0017367Y0052315D01*
X0017464Y0052214D01*
X0017565Y0052117D01*
X0017668Y0052022D01*
X0017774Y0051930D01*
X0017883Y0051841D01*
X0017993Y0051755D01*
X0018107Y0051672D01*
X0018222Y0051593D01*
X0018340Y0051516D01*
X0018460Y0051443D01*
X0018581Y0051374D01*
X0018705Y0051308D01*
X0018831Y0051245D01*
X0018958Y0051186D01*
X0019087Y0051131D01*
X0019217Y0051079D01*
X0019349Y0051031D01*
X0019482Y0050986D01*
X0019616Y0050945D01*
X0019751Y0050908D01*
X0019887Y0050875D01*
X0020025Y0050846D01*
X0020162Y0050821D01*
X0020301Y0050799D01*
X0020440Y0050781D01*
X0020580Y0050768D01*
X0020720Y0050758D01*
X0020860Y0050752D01*
X0021000Y0050750D01*
X0021000Y0047750D02*
X0021140Y0047752D01*
X0021280Y0047758D01*
X0021420Y0047768D01*
X0021560Y0047781D01*
X0021699Y0047799D01*
X0021838Y0047821D01*
X0021975Y0047846D01*
X0022113Y0047875D01*
X0022249Y0047908D01*
X0022384Y0047945D01*
X0022518Y0047986D01*
X0022651Y0048031D01*
X0022783Y0048079D01*
X0022913Y0048131D01*
X0023042Y0048186D01*
X0023169Y0048245D01*
X0023295Y0048308D01*
X0023419Y0048374D01*
X0023540Y0048443D01*
X0023660Y0048516D01*
X0023778Y0048593D01*
X0023893Y0048672D01*
X0024007Y0048755D01*
X0024117Y0048841D01*
X0024226Y0048930D01*
X0024332Y0049022D01*
X0024435Y0049117D01*
X0024536Y0049214D01*
X0024633Y0049315D01*
X0024728Y0049418D01*
X0024820Y0049524D01*
X0024909Y0049633D01*
X0024995Y0049743D01*
X0025078Y0049857D01*
X0025157Y0049972D01*
X0025234Y0050090D01*
X0025307Y0050210D01*
X0025376Y0050331D01*
X0025442Y0050455D01*
X0025505Y0050581D01*
X0025564Y0050708D01*
X0025619Y0050837D01*
X0025671Y0050967D01*
X0025719Y0051099D01*
X0025764Y0051232D01*
X0025805Y0051366D01*
X0025842Y0051501D01*
X0025875Y0051637D01*
X0025904Y0051775D01*
X0025929Y0051912D01*
X0025951Y0052051D01*
X0025969Y0052190D01*
X0025982Y0052330D01*
X0025992Y0052470D01*
X0025998Y0052610D01*
X0026000Y0052750D01*
X0026000Y0055750D02*
X0025998Y0055610D01*
X0025992Y0055470D01*
X0025982Y0055330D01*
X0025969Y0055190D01*
X0025951Y0055051D01*
X0025929Y0054912D01*
X0025904Y0054775D01*
X0025875Y0054637D01*
X0025842Y0054501D01*
X0025805Y0054366D01*
X0025764Y0054232D01*
X0025719Y0054099D01*
X0025671Y0053967D01*
X0025619Y0053837D01*
X0025564Y0053708D01*
X0025505Y0053581D01*
X0025442Y0053455D01*
X0025376Y0053331D01*
X0025307Y0053210D01*
X0025234Y0053090D01*
X0025157Y0052972D01*
X0025078Y0052857D01*
X0024995Y0052743D01*
X0024909Y0052633D01*
X0024820Y0052524D01*
X0024728Y0052418D01*
X0024633Y0052315D01*
X0024536Y0052214D01*
X0024435Y0052117D01*
X0024332Y0052022D01*
X0024226Y0051930D01*
X0024117Y0051841D01*
X0024007Y0051755D01*
X0023893Y0051672D01*
X0023778Y0051593D01*
X0023660Y0051516D01*
X0023540Y0051443D01*
X0023419Y0051374D01*
X0023295Y0051308D01*
X0023169Y0051245D01*
X0023042Y0051186D01*
X0022913Y0051131D01*
X0022783Y0051079D01*
X0022651Y0051031D01*
X0022518Y0050986D01*
X0022384Y0050945D01*
X0022249Y0050908D01*
X0022113Y0050875D01*
X0021975Y0050846D01*
X0021838Y0050821D01*
X0021699Y0050799D01*
X0021560Y0050781D01*
X0021420Y0050768D01*
X0021280Y0050758D01*
X0021140Y0050752D01*
X0021000Y0050750D01*
X0020860Y0050752D01*
X0020720Y0050758D01*
X0020580Y0050768D01*
X0020440Y0050781D01*
X0020301Y0050799D01*
X0020162Y0050821D01*
X0020025Y0050846D01*
X0019887Y0050875D01*
X0019751Y0050908D01*
X0019616Y0050945D01*
X0019482Y0050986D01*
X0019349Y0051031D01*
X0019217Y0051079D01*
X0019087Y0051131D01*
X0018958Y0051186D01*
X0018831Y0051245D01*
X0018705Y0051308D01*
X0018581Y0051374D01*
X0018460Y0051443D01*
X0018340Y0051516D01*
X0018222Y0051593D01*
X0018107Y0051672D01*
X0017993Y0051755D01*
X0017883Y0051841D01*
X0017774Y0051930D01*
X0017668Y0052022D01*
X0017565Y0052117D01*
X0017464Y0052214D01*
X0017367Y0052315D01*
X0017272Y0052418D01*
X0017180Y0052524D01*
X0017091Y0052633D01*
X0017005Y0052743D01*
X0016922Y0052857D01*
X0016843Y0052972D01*
X0016766Y0053090D01*
X0016693Y0053210D01*
X0016624Y0053331D01*
X0016558Y0053455D01*
X0016495Y0053581D01*
X0016436Y0053708D01*
X0016381Y0053837D01*
X0016329Y0053967D01*
X0016281Y0054099D01*
X0016236Y0054232D01*
X0016195Y0054366D01*
X0016158Y0054501D01*
X0016125Y0054637D01*
X0016096Y0054775D01*
X0016071Y0054912D01*
X0016049Y0055051D01*
X0016031Y0055190D01*
X0016018Y0055330D01*
X0016008Y0055470D01*
X0016002Y0055610D01*
X0016000Y0055750D01*
X0021000Y0050750D02*
X0021140Y0050752D01*
X0021280Y0050758D01*
X0021420Y0050768D01*
X0021560Y0050781D01*
X0021699Y0050799D01*
X0021838Y0050821D01*
X0021975Y0050846D01*
X0022113Y0050875D01*
X0022249Y0050908D01*
X0022384Y0050945D01*
X0022518Y0050986D01*
X0022651Y0051031D01*
X0022783Y0051079D01*
X0022913Y0051131D01*
X0023042Y0051186D01*
X0023169Y0051245D01*
X0023295Y0051308D01*
X0023419Y0051374D01*
X0023540Y0051443D01*
X0023660Y0051516D01*
X0023778Y0051593D01*
X0023893Y0051672D01*
X0024007Y0051755D01*
X0024117Y0051841D01*
X0024226Y0051930D01*
X0024332Y0052022D01*
X0024435Y0052117D01*
X0024536Y0052214D01*
X0024633Y0052315D01*
X0024728Y0052418D01*
X0024820Y0052524D01*
X0024909Y0052633D01*
X0024995Y0052743D01*
X0025078Y0052857D01*
X0025157Y0052972D01*
X0025234Y0053090D01*
X0025307Y0053210D01*
X0025376Y0053331D01*
X0025442Y0053455D01*
X0025505Y0053581D01*
X0025564Y0053708D01*
X0025619Y0053837D01*
X0025671Y0053967D01*
X0025719Y0054099D01*
X0025764Y0054232D01*
X0025805Y0054366D01*
X0025842Y0054501D01*
X0025875Y0054637D01*
X0025904Y0054775D01*
X0025929Y0054912D01*
X0025951Y0055051D01*
X0025969Y0055190D01*
X0025982Y0055330D01*
X0025992Y0055470D01*
X0025998Y0055610D01*
X0026000Y0055750D01*
X0021000Y0053750D02*
X0020860Y0053752D01*
X0020720Y0053758D01*
X0020580Y0053768D01*
X0020440Y0053781D01*
X0020301Y0053799D01*
X0020162Y0053821D01*
X0020025Y0053846D01*
X0019887Y0053875D01*
X0019751Y0053908D01*
X0019616Y0053945D01*
X0019482Y0053986D01*
X0019349Y0054031D01*
X0019217Y0054079D01*
X0019087Y0054131D01*
X0018958Y0054186D01*
X0018831Y0054245D01*
X0018705Y0054308D01*
X0018581Y0054374D01*
X0018460Y0054443D01*
X0018340Y0054516D01*
X0018222Y0054593D01*
X0018107Y0054672D01*
X0017993Y0054755D01*
X0017883Y0054841D01*
X0017774Y0054930D01*
X0017668Y0055022D01*
X0017565Y0055117D01*
X0017464Y0055214D01*
X0017367Y0055315D01*
X0017272Y0055418D01*
X0017180Y0055524D01*
X0017091Y0055633D01*
X0017005Y0055743D01*
X0016922Y0055857D01*
X0016843Y0055972D01*
X0016766Y0056090D01*
X0016693Y0056210D01*
X0016624Y0056331D01*
X0016558Y0056455D01*
X0016495Y0056581D01*
X0016436Y0056708D01*
X0016381Y0056837D01*
X0016329Y0056967D01*
X0016281Y0057099D01*
X0016236Y0057232D01*
X0016195Y0057366D01*
X0016158Y0057501D01*
X0016125Y0057637D01*
X0016096Y0057775D01*
X0016071Y0057912D01*
X0016049Y0058051D01*
X0016031Y0058190D01*
X0016018Y0058330D01*
X0016008Y0058470D01*
X0016002Y0058610D01*
X0016000Y0058750D01*
X0021000Y0053750D02*
X0021140Y0053752D01*
X0021280Y0053758D01*
X0021420Y0053768D01*
X0021560Y0053781D01*
X0021699Y0053799D01*
X0021838Y0053821D01*
X0021975Y0053846D01*
X0022113Y0053875D01*
X0022249Y0053908D01*
X0022384Y0053945D01*
X0022518Y0053986D01*
X0022651Y0054031D01*
X0022783Y0054079D01*
X0022913Y0054131D01*
X0023042Y0054186D01*
X0023169Y0054245D01*
X0023295Y0054308D01*
X0023419Y0054374D01*
X0023540Y0054443D01*
X0023660Y0054516D01*
X0023778Y0054593D01*
X0023893Y0054672D01*
X0024007Y0054755D01*
X0024117Y0054841D01*
X0024226Y0054930D01*
X0024332Y0055022D01*
X0024435Y0055117D01*
X0024536Y0055214D01*
X0024633Y0055315D01*
X0024728Y0055418D01*
X0024820Y0055524D01*
X0024909Y0055633D01*
X0024995Y0055743D01*
X0025078Y0055857D01*
X0025157Y0055972D01*
X0025234Y0056090D01*
X0025307Y0056210D01*
X0025376Y0056331D01*
X0025442Y0056455D01*
X0025505Y0056581D01*
X0025564Y0056708D01*
X0025619Y0056837D01*
X0025671Y0056967D01*
X0025719Y0057099D01*
X0025764Y0057232D01*
X0025805Y0057366D01*
X0025842Y0057501D01*
X0025875Y0057637D01*
X0025904Y0057775D01*
X0025929Y0057912D01*
X0025951Y0058051D01*
X0025969Y0058190D01*
X0025982Y0058330D01*
X0025992Y0058470D01*
X0025998Y0058610D01*
X0026000Y0058750D01*
X0021000Y0053750D02*
X0020860Y0053752D01*
X0020720Y0053758D01*
X0020580Y0053768D01*
X0020440Y0053781D01*
X0020301Y0053799D01*
X0020162Y0053821D01*
X0020025Y0053846D01*
X0019887Y0053875D01*
X0019751Y0053908D01*
X0019616Y0053945D01*
X0019482Y0053986D01*
X0019349Y0054031D01*
X0019217Y0054079D01*
X0019087Y0054131D01*
X0018958Y0054186D01*
X0018831Y0054245D01*
X0018705Y0054308D01*
X0018581Y0054374D01*
X0018460Y0054443D01*
X0018340Y0054516D01*
X0018222Y0054593D01*
X0018107Y0054672D01*
X0017993Y0054755D01*
X0017883Y0054841D01*
X0017774Y0054930D01*
X0017668Y0055022D01*
X0017565Y0055117D01*
X0017464Y0055214D01*
X0017367Y0055315D01*
X0017272Y0055418D01*
X0017180Y0055524D01*
X0017091Y0055633D01*
X0017005Y0055743D01*
X0016922Y0055857D01*
X0016843Y0055972D01*
X0016766Y0056090D01*
X0016693Y0056210D01*
X0016624Y0056331D01*
X0016558Y0056455D01*
X0016495Y0056581D01*
X0016436Y0056708D01*
X0016381Y0056837D01*
X0016329Y0056967D01*
X0016281Y0057099D01*
X0016236Y0057232D01*
X0016195Y0057366D01*
X0016158Y0057501D01*
X0016125Y0057637D01*
X0016096Y0057775D01*
X0016071Y0057912D01*
X0016049Y0058051D01*
X0016031Y0058190D01*
X0016018Y0058330D01*
X0016008Y0058470D01*
X0016002Y0058610D01*
X0016000Y0058750D01*
X0021000Y0053750D02*
X0021140Y0053752D01*
X0021280Y0053758D01*
X0021420Y0053768D01*
X0021560Y0053781D01*
X0021699Y0053799D01*
X0021838Y0053821D01*
X0021975Y0053846D01*
X0022113Y0053875D01*
X0022249Y0053908D01*
X0022384Y0053945D01*
X0022518Y0053986D01*
X0022651Y0054031D01*
X0022783Y0054079D01*
X0022913Y0054131D01*
X0023042Y0054186D01*
X0023169Y0054245D01*
X0023295Y0054308D01*
X0023419Y0054374D01*
X0023540Y0054443D01*
X0023660Y0054516D01*
X0023778Y0054593D01*
X0023893Y0054672D01*
X0024007Y0054755D01*
X0024117Y0054841D01*
X0024226Y0054930D01*
X0024332Y0055022D01*
X0024435Y0055117D01*
X0024536Y0055214D01*
X0024633Y0055315D01*
X0024728Y0055418D01*
X0024820Y0055524D01*
X0024909Y0055633D01*
X0024995Y0055743D01*
X0025078Y0055857D01*
X0025157Y0055972D01*
X0025234Y0056090D01*
X0025307Y0056210D01*
X0025376Y0056331D01*
X0025442Y0056455D01*
X0025505Y0056581D01*
X0025564Y0056708D01*
X0025619Y0056837D01*
X0025671Y0056967D01*
X0025719Y0057099D01*
X0025764Y0057232D01*
X0025805Y0057366D01*
X0025842Y0057501D01*
X0025875Y0057637D01*
X0025904Y0057775D01*
X0025929Y0057912D01*
X0025951Y0058051D01*
X0025969Y0058190D01*
X0025982Y0058330D01*
X0025992Y0058470D01*
X0025998Y0058610D01*
X0026000Y0058750D01*
X0021000Y0056750D02*
X0020860Y0056752D01*
X0020720Y0056758D01*
X0020580Y0056768D01*
X0020440Y0056781D01*
X0020301Y0056799D01*
X0020162Y0056821D01*
X0020025Y0056846D01*
X0019887Y0056875D01*
X0019751Y0056908D01*
X0019616Y0056945D01*
X0019482Y0056986D01*
X0019349Y0057031D01*
X0019217Y0057079D01*
X0019087Y0057131D01*
X0018958Y0057186D01*
X0018831Y0057245D01*
X0018705Y0057308D01*
X0018581Y0057374D01*
X0018460Y0057443D01*
X0018340Y0057516D01*
X0018222Y0057593D01*
X0018107Y0057672D01*
X0017993Y0057755D01*
X0017883Y0057841D01*
X0017774Y0057930D01*
X0017668Y0058022D01*
X0017565Y0058117D01*
X0017464Y0058214D01*
X0017367Y0058315D01*
X0017272Y0058418D01*
X0017180Y0058524D01*
X0017091Y0058633D01*
X0017005Y0058743D01*
X0016922Y0058857D01*
X0016843Y0058972D01*
X0016766Y0059090D01*
X0016693Y0059210D01*
X0016624Y0059331D01*
X0016558Y0059455D01*
X0016495Y0059581D01*
X0016436Y0059708D01*
X0016381Y0059837D01*
X0016329Y0059967D01*
X0016281Y0060099D01*
X0016236Y0060232D01*
X0016195Y0060366D01*
X0016158Y0060501D01*
X0016125Y0060637D01*
X0016096Y0060775D01*
X0016071Y0060912D01*
X0016049Y0061051D01*
X0016031Y0061190D01*
X0016018Y0061330D01*
X0016008Y0061470D01*
X0016002Y0061610D01*
X0016000Y0061750D01*
X0021000Y0056750D02*
X0021140Y0056752D01*
X0021280Y0056758D01*
X0021420Y0056768D01*
X0021560Y0056781D01*
X0021699Y0056799D01*
X0021838Y0056821D01*
X0021975Y0056846D01*
X0022113Y0056875D01*
X0022249Y0056908D01*
X0022384Y0056945D01*
X0022518Y0056986D01*
X0022651Y0057031D01*
X0022783Y0057079D01*
X0022913Y0057131D01*
X0023042Y0057186D01*
X0023169Y0057245D01*
X0023295Y0057308D01*
X0023419Y0057374D01*
X0023540Y0057443D01*
X0023660Y0057516D01*
X0023778Y0057593D01*
X0023893Y0057672D01*
X0024007Y0057755D01*
X0024117Y0057841D01*
X0024226Y0057930D01*
X0024332Y0058022D01*
X0024435Y0058117D01*
X0024536Y0058214D01*
X0024633Y0058315D01*
X0024728Y0058418D01*
X0024820Y0058524D01*
X0024909Y0058633D01*
X0024995Y0058743D01*
X0025078Y0058857D01*
X0025157Y0058972D01*
X0025234Y0059090D01*
X0025307Y0059210D01*
X0025376Y0059331D01*
X0025442Y0059455D01*
X0025505Y0059581D01*
X0025564Y0059708D01*
X0025619Y0059837D01*
X0025671Y0059967D01*
X0025719Y0060099D01*
X0025764Y0060232D01*
X0025805Y0060366D01*
X0025842Y0060501D01*
X0025875Y0060637D01*
X0025904Y0060775D01*
X0025929Y0060912D01*
X0025951Y0061051D01*
X0025969Y0061190D01*
X0025982Y0061330D01*
X0025992Y0061470D01*
X0025998Y0061610D01*
X0026000Y0061750D01*
X0021000Y0056750D02*
X0020860Y0056752D01*
X0020720Y0056758D01*
X0020580Y0056768D01*
X0020440Y0056781D01*
X0020301Y0056799D01*
X0020162Y0056821D01*
X0020025Y0056846D01*
X0019887Y0056875D01*
X0019751Y0056908D01*
X0019616Y0056945D01*
X0019482Y0056986D01*
X0019349Y0057031D01*
X0019217Y0057079D01*
X0019087Y0057131D01*
X0018958Y0057186D01*
X0018831Y0057245D01*
X0018705Y0057308D01*
X0018581Y0057374D01*
X0018460Y0057443D01*
X0018340Y0057516D01*
X0018222Y0057593D01*
X0018107Y0057672D01*
X0017993Y0057755D01*
X0017883Y0057841D01*
X0017774Y0057930D01*
X0017668Y0058022D01*
X0017565Y0058117D01*
X0017464Y0058214D01*
X0017367Y0058315D01*
X0017272Y0058418D01*
X0017180Y0058524D01*
X0017091Y0058633D01*
X0017005Y0058743D01*
X0016922Y0058857D01*
X0016843Y0058972D01*
X0016766Y0059090D01*
X0016693Y0059210D01*
X0016624Y0059331D01*
X0016558Y0059455D01*
X0016495Y0059581D01*
X0016436Y0059708D01*
X0016381Y0059837D01*
X0016329Y0059967D01*
X0016281Y0060099D01*
X0016236Y0060232D01*
X0016195Y0060366D01*
X0016158Y0060501D01*
X0016125Y0060637D01*
X0016096Y0060775D01*
X0016071Y0060912D01*
X0016049Y0061051D01*
X0016031Y0061190D01*
X0016018Y0061330D01*
X0016008Y0061470D01*
X0016002Y0061610D01*
X0016000Y0061750D01*
X0021000Y0056750D02*
X0021140Y0056752D01*
X0021280Y0056758D01*
X0021420Y0056768D01*
X0021560Y0056781D01*
X0021699Y0056799D01*
X0021838Y0056821D01*
X0021975Y0056846D01*
X0022113Y0056875D01*
X0022249Y0056908D01*
X0022384Y0056945D01*
X0022518Y0056986D01*
X0022651Y0057031D01*
X0022783Y0057079D01*
X0022913Y0057131D01*
X0023042Y0057186D01*
X0023169Y0057245D01*
X0023295Y0057308D01*
X0023419Y0057374D01*
X0023540Y0057443D01*
X0023660Y0057516D01*
X0023778Y0057593D01*
X0023893Y0057672D01*
X0024007Y0057755D01*
X0024117Y0057841D01*
X0024226Y0057930D01*
X0024332Y0058022D01*
X0024435Y0058117D01*
X0024536Y0058214D01*
X0024633Y0058315D01*
X0024728Y0058418D01*
X0024820Y0058524D01*
X0024909Y0058633D01*
X0024995Y0058743D01*
X0025078Y0058857D01*
X0025157Y0058972D01*
X0025234Y0059090D01*
X0025307Y0059210D01*
X0025376Y0059331D01*
X0025442Y0059455D01*
X0025505Y0059581D01*
X0025564Y0059708D01*
X0025619Y0059837D01*
X0025671Y0059967D01*
X0025719Y0060099D01*
X0025764Y0060232D01*
X0025805Y0060366D01*
X0025842Y0060501D01*
X0025875Y0060637D01*
X0025904Y0060775D01*
X0025929Y0060912D01*
X0025951Y0061051D01*
X0025969Y0061190D01*
X0025982Y0061330D01*
X0025992Y0061470D01*
X0025998Y0061610D01*
X0026000Y0061750D01*
X0021000Y0059750D02*
X0020860Y0059752D01*
X0020720Y0059758D01*
X0020580Y0059768D01*
X0020440Y0059781D01*
X0020301Y0059799D01*
X0020162Y0059821D01*
X0020025Y0059846D01*
X0019887Y0059875D01*
X0019751Y0059908D01*
X0019616Y0059945D01*
X0019482Y0059986D01*
X0019349Y0060031D01*
X0019217Y0060079D01*
X0019087Y0060131D01*
X0018958Y0060186D01*
X0018831Y0060245D01*
X0018705Y0060308D01*
X0018581Y0060374D01*
X0018460Y0060443D01*
X0018340Y0060516D01*
X0018222Y0060593D01*
X0018107Y0060672D01*
X0017993Y0060755D01*
X0017883Y0060841D01*
X0017774Y0060930D01*
X0017668Y0061022D01*
X0017565Y0061117D01*
X0017464Y0061214D01*
X0017367Y0061315D01*
X0017272Y0061418D01*
X0017180Y0061524D01*
X0017091Y0061633D01*
X0017005Y0061743D01*
X0016922Y0061857D01*
X0016843Y0061972D01*
X0016766Y0062090D01*
X0016693Y0062210D01*
X0016624Y0062331D01*
X0016558Y0062455D01*
X0016495Y0062581D01*
X0016436Y0062708D01*
X0016381Y0062837D01*
X0016329Y0062967D01*
X0016281Y0063099D01*
X0016236Y0063232D01*
X0016195Y0063366D01*
X0016158Y0063501D01*
X0016125Y0063637D01*
X0016096Y0063775D01*
X0016071Y0063912D01*
X0016049Y0064051D01*
X0016031Y0064190D01*
X0016018Y0064330D01*
X0016008Y0064470D01*
X0016002Y0064610D01*
X0016000Y0064750D01*
X0021000Y0059750D02*
X0021140Y0059752D01*
X0021280Y0059758D01*
X0021420Y0059768D01*
X0021560Y0059781D01*
X0021699Y0059799D01*
X0021838Y0059821D01*
X0021975Y0059846D01*
X0022113Y0059875D01*
X0022249Y0059908D01*
X0022384Y0059945D01*
X0022518Y0059986D01*
X0022651Y0060031D01*
X0022783Y0060079D01*
X0022913Y0060131D01*
X0023042Y0060186D01*
X0023169Y0060245D01*
X0023295Y0060308D01*
X0023419Y0060374D01*
X0023540Y0060443D01*
X0023660Y0060516D01*
X0023778Y0060593D01*
X0023893Y0060672D01*
X0024007Y0060755D01*
X0024117Y0060841D01*
X0024226Y0060930D01*
X0024332Y0061022D01*
X0024435Y0061117D01*
X0024536Y0061214D01*
X0024633Y0061315D01*
X0024728Y0061418D01*
X0024820Y0061524D01*
X0024909Y0061633D01*
X0024995Y0061743D01*
X0025078Y0061857D01*
X0025157Y0061972D01*
X0025234Y0062090D01*
X0025307Y0062210D01*
X0025376Y0062331D01*
X0025442Y0062455D01*
X0025505Y0062581D01*
X0025564Y0062708D01*
X0025619Y0062837D01*
X0025671Y0062967D01*
X0025719Y0063099D01*
X0025764Y0063232D01*
X0025805Y0063366D01*
X0025842Y0063501D01*
X0025875Y0063637D01*
X0025904Y0063775D01*
X0025929Y0063912D01*
X0025951Y0064051D01*
X0025969Y0064190D01*
X0025982Y0064330D01*
X0025992Y0064470D01*
X0025998Y0064610D01*
X0026000Y0064750D01*
X0021000Y0059750D02*
X0020860Y0059752D01*
X0020720Y0059758D01*
X0020580Y0059768D01*
X0020440Y0059781D01*
X0020301Y0059799D01*
X0020162Y0059821D01*
X0020025Y0059846D01*
X0019887Y0059875D01*
X0019751Y0059908D01*
X0019616Y0059945D01*
X0019482Y0059986D01*
X0019349Y0060031D01*
X0019217Y0060079D01*
X0019087Y0060131D01*
X0018958Y0060186D01*
X0018831Y0060245D01*
X0018705Y0060308D01*
X0018581Y0060374D01*
X0018460Y0060443D01*
X0018340Y0060516D01*
X0018222Y0060593D01*
X0018107Y0060672D01*
X0017993Y0060755D01*
X0017883Y0060841D01*
X0017774Y0060930D01*
X0017668Y0061022D01*
X0017565Y0061117D01*
X0017464Y0061214D01*
X0017367Y0061315D01*
X0017272Y0061418D01*
X0017180Y0061524D01*
X0017091Y0061633D01*
X0017005Y0061743D01*
X0016922Y0061857D01*
X0016843Y0061972D01*
X0016766Y0062090D01*
X0016693Y0062210D01*
X0016624Y0062331D01*
X0016558Y0062455D01*
X0016495Y0062581D01*
X0016436Y0062708D01*
X0016381Y0062837D01*
X0016329Y0062967D01*
X0016281Y0063099D01*
X0016236Y0063232D01*
X0016195Y0063366D01*
X0016158Y0063501D01*
X0016125Y0063637D01*
X0016096Y0063775D01*
X0016071Y0063912D01*
X0016049Y0064051D01*
X0016031Y0064190D01*
X0016018Y0064330D01*
X0016008Y0064470D01*
X0016002Y0064610D01*
X0016000Y0064750D01*
X0021000Y0059750D02*
X0021140Y0059752D01*
X0021280Y0059758D01*
X0021420Y0059768D01*
X0021560Y0059781D01*
X0021699Y0059799D01*
X0021838Y0059821D01*
X0021975Y0059846D01*
X0022113Y0059875D01*
X0022249Y0059908D01*
X0022384Y0059945D01*
X0022518Y0059986D01*
X0022651Y0060031D01*
X0022783Y0060079D01*
X0022913Y0060131D01*
X0023042Y0060186D01*
X0023169Y0060245D01*
X0023295Y0060308D01*
X0023419Y0060374D01*
X0023540Y0060443D01*
X0023660Y0060516D01*
X0023778Y0060593D01*
X0023893Y0060672D01*
X0024007Y0060755D01*
X0024117Y0060841D01*
X0024226Y0060930D01*
X0024332Y0061022D01*
X0024435Y0061117D01*
X0024536Y0061214D01*
X0024633Y0061315D01*
X0024728Y0061418D01*
X0024820Y0061524D01*
X0024909Y0061633D01*
X0024995Y0061743D01*
X0025078Y0061857D01*
X0025157Y0061972D01*
X0025234Y0062090D01*
X0025307Y0062210D01*
X0025376Y0062331D01*
X0025442Y0062455D01*
X0025505Y0062581D01*
X0025564Y0062708D01*
X0025619Y0062837D01*
X0025671Y0062967D01*
X0025719Y0063099D01*
X0025764Y0063232D01*
X0025805Y0063366D01*
X0025842Y0063501D01*
X0025875Y0063637D01*
X0025904Y0063775D01*
X0025929Y0063912D01*
X0025951Y0064051D01*
X0025969Y0064190D01*
X0025982Y0064330D01*
X0025992Y0064470D01*
X0025998Y0064610D01*
X0026000Y0064750D01*
X0021000Y0062750D02*
X0020860Y0062752D01*
X0020720Y0062758D01*
X0020580Y0062768D01*
X0020440Y0062781D01*
X0020301Y0062799D01*
X0020162Y0062821D01*
X0020025Y0062846D01*
X0019887Y0062875D01*
X0019751Y0062908D01*
X0019616Y0062945D01*
X0019482Y0062986D01*
X0019349Y0063031D01*
X0019217Y0063079D01*
X0019087Y0063131D01*
X0018958Y0063186D01*
X0018831Y0063245D01*
X0018705Y0063308D01*
X0018581Y0063374D01*
X0018460Y0063443D01*
X0018340Y0063516D01*
X0018222Y0063593D01*
X0018107Y0063672D01*
X0017993Y0063755D01*
X0017883Y0063841D01*
X0017774Y0063930D01*
X0017668Y0064022D01*
X0017565Y0064117D01*
X0017464Y0064214D01*
X0017367Y0064315D01*
X0017272Y0064418D01*
X0017180Y0064524D01*
X0017091Y0064633D01*
X0017005Y0064743D01*
X0016922Y0064857D01*
X0016843Y0064972D01*
X0016766Y0065090D01*
X0016693Y0065210D01*
X0016624Y0065331D01*
X0016558Y0065455D01*
X0016495Y0065581D01*
X0016436Y0065708D01*
X0016381Y0065837D01*
X0016329Y0065967D01*
X0016281Y0066099D01*
X0016236Y0066232D01*
X0016195Y0066366D01*
X0016158Y0066501D01*
X0016125Y0066637D01*
X0016096Y0066775D01*
X0016071Y0066912D01*
X0016049Y0067051D01*
X0016031Y0067190D01*
X0016018Y0067330D01*
X0016008Y0067470D01*
X0016002Y0067610D01*
X0016000Y0067750D01*
X0021000Y0062750D02*
X0021140Y0062752D01*
X0021280Y0062758D01*
X0021420Y0062768D01*
X0021560Y0062781D01*
X0021699Y0062799D01*
X0021838Y0062821D01*
X0021975Y0062846D01*
X0022113Y0062875D01*
X0022249Y0062908D01*
X0022384Y0062945D01*
X0022518Y0062986D01*
X0022651Y0063031D01*
X0022783Y0063079D01*
X0022913Y0063131D01*
X0023042Y0063186D01*
X0023169Y0063245D01*
X0023295Y0063308D01*
X0023419Y0063374D01*
X0023540Y0063443D01*
X0023660Y0063516D01*
X0023778Y0063593D01*
X0023893Y0063672D01*
X0024007Y0063755D01*
X0024117Y0063841D01*
X0024226Y0063930D01*
X0024332Y0064022D01*
X0024435Y0064117D01*
X0024536Y0064214D01*
X0024633Y0064315D01*
X0024728Y0064418D01*
X0024820Y0064524D01*
X0024909Y0064633D01*
X0024995Y0064743D01*
X0025078Y0064857D01*
X0025157Y0064972D01*
X0025234Y0065090D01*
X0025307Y0065210D01*
X0025376Y0065331D01*
X0025442Y0065455D01*
X0025505Y0065581D01*
X0025564Y0065708D01*
X0025619Y0065837D01*
X0025671Y0065967D01*
X0025719Y0066099D01*
X0025764Y0066232D01*
X0025805Y0066366D01*
X0025842Y0066501D01*
X0025875Y0066637D01*
X0025904Y0066775D01*
X0025929Y0066912D01*
X0025951Y0067051D01*
X0025969Y0067190D01*
X0025982Y0067330D01*
X0025992Y0067470D01*
X0025998Y0067610D01*
X0026000Y0067750D01*
X0026000Y0070750D02*
X0026000Y0074750D01*
X0021000Y0081000D01*
X0033645Y0081707D02*
X0034928Y0080423D01*
X0038275Y0083770D01*
X0037132Y0082557D02*
X0042539Y0077150D01*
X0043784Y0078261D02*
X0040437Y0074914D01*
X0041721Y0073630D01*
X0043197Y0073518D01*
X0044674Y0073405D01*
X0048042Y0076773D01*
X0042918Y0075640D02*
X0042920Y0075703D01*
X0042926Y0075765D01*
X0042936Y0075827D01*
X0042949Y0075889D01*
X0042967Y0075949D01*
X0042988Y0076008D01*
X0043013Y0076066D01*
X0043042Y0076122D01*
X0043074Y0076176D01*
X0043109Y0076228D01*
X0043147Y0076277D01*
X0043189Y0076325D01*
X0043233Y0076369D01*
X0043281Y0076411D01*
X0043330Y0076449D01*
X0043382Y0076484D01*
X0043436Y0076516D01*
X0043492Y0076545D01*
X0043550Y0076570D01*
X0043609Y0076591D01*
X0043669Y0076609D01*
X0043731Y0076622D01*
X0043793Y0076632D01*
X0043855Y0076638D01*
X0043918Y0076640D01*
X0043981Y0076638D01*
X0044043Y0076632D01*
X0044105Y0076622D01*
X0044167Y0076609D01*
X0044227Y0076591D01*
X0044286Y0076570D01*
X0044344Y0076545D01*
X0044400Y0076516D01*
X0044454Y0076484D01*
X0044506Y0076449D01*
X0044555Y0076411D01*
X0044603Y0076369D01*
X0044647Y0076325D01*
X0044689Y0076277D01*
X0044727Y0076228D01*
X0044762Y0076176D01*
X0044794Y0076122D01*
X0044823Y0076066D01*
X0044848Y0076008D01*
X0044869Y0075949D01*
X0044887Y0075889D01*
X0044900Y0075827D01*
X0044910Y0075765D01*
X0044916Y0075703D01*
X0044918Y0075640D01*
X0044916Y0075577D01*
X0044910Y0075515D01*
X0044900Y0075453D01*
X0044887Y0075391D01*
X0044869Y0075331D01*
X0044848Y0075272D01*
X0044823Y0075214D01*
X0044794Y0075158D01*
X0044762Y0075104D01*
X0044727Y0075052D01*
X0044689Y0075003D01*
X0044647Y0074955D01*
X0044603Y0074911D01*
X0044555Y0074869D01*
X0044506Y0074831D01*
X0044454Y0074796D01*
X0044400Y0074764D01*
X0044344Y0074735D01*
X0044286Y0074710D01*
X0044227Y0074689D01*
X0044167Y0074671D01*
X0044105Y0074658D01*
X0044043Y0074648D01*
X0043981Y0074642D01*
X0043918Y0074640D01*
X0043855Y0074642D01*
X0043793Y0074648D01*
X0043731Y0074658D01*
X0043669Y0074671D01*
X0043609Y0074689D01*
X0043550Y0074710D01*
X0043492Y0074735D01*
X0043436Y0074764D01*
X0043382Y0074796D01*
X0043330Y0074831D01*
X0043281Y0074869D01*
X0043233Y0074911D01*
X0043189Y0074955D01*
X0043147Y0075003D01*
X0043109Y0075052D01*
X0043074Y0075104D01*
X0043042Y0075158D01*
X0043013Y0075214D01*
X0042988Y0075272D01*
X0042967Y0075331D01*
X0042949Y0075391D01*
X0042936Y0075453D01*
X0042926Y0075515D01*
X0042920Y0075577D01*
X0042918Y0075640D01*
X0040823Y0075747D02*
X0038292Y0078278D01*
X0038292Y0078279D02*
X0035511Y0081060D01*
X0033645Y0081707D02*
X0033538Y0083178D01*
X0033431Y0084648D01*
X0036640Y0087857D01*
X0034720Y0083893D02*
X0034722Y0083956D01*
X0034728Y0084018D01*
X0034738Y0084080D01*
X0034751Y0084142D01*
X0034769Y0084202D01*
X0034790Y0084261D01*
X0034815Y0084319D01*
X0034844Y0084375D01*
X0034876Y0084429D01*
X0034911Y0084481D01*
X0034949Y0084530D01*
X0034991Y0084578D01*
X0035035Y0084622D01*
X0035083Y0084664D01*
X0035132Y0084702D01*
X0035184Y0084737D01*
X0035238Y0084769D01*
X0035294Y0084798D01*
X0035352Y0084823D01*
X0035411Y0084844D01*
X0035471Y0084862D01*
X0035533Y0084875D01*
X0035595Y0084885D01*
X0035657Y0084891D01*
X0035720Y0084893D01*
X0035783Y0084891D01*
X0035845Y0084885D01*
X0035907Y0084875D01*
X0035969Y0084862D01*
X0036029Y0084844D01*
X0036088Y0084823D01*
X0036146Y0084798D01*
X0036202Y0084769D01*
X0036256Y0084737D01*
X0036308Y0084702D01*
X0036357Y0084664D01*
X0036405Y0084622D01*
X0036449Y0084578D01*
X0036491Y0084530D01*
X0036529Y0084481D01*
X0036564Y0084429D01*
X0036596Y0084375D01*
X0036625Y0084319D01*
X0036650Y0084261D01*
X0036671Y0084202D01*
X0036689Y0084142D01*
X0036702Y0084080D01*
X0036712Y0084018D01*
X0036718Y0083956D01*
X0036720Y0083893D01*
X0036718Y0083830D01*
X0036712Y0083768D01*
X0036702Y0083706D01*
X0036689Y0083644D01*
X0036671Y0083584D01*
X0036650Y0083525D01*
X0036625Y0083467D01*
X0036596Y0083411D01*
X0036564Y0083357D01*
X0036529Y0083305D01*
X0036491Y0083256D01*
X0036449Y0083208D01*
X0036405Y0083164D01*
X0036357Y0083122D01*
X0036308Y0083084D01*
X0036256Y0083049D01*
X0036202Y0083017D01*
X0036146Y0082988D01*
X0036088Y0082963D01*
X0036029Y0082942D01*
X0035969Y0082924D01*
X0035907Y0082911D01*
X0035845Y0082901D01*
X0035783Y0082895D01*
X0035720Y0082893D01*
X0035657Y0082895D01*
X0035595Y0082901D01*
X0035533Y0082911D01*
X0035471Y0082924D01*
X0035411Y0082942D01*
X0035352Y0082963D01*
X0035294Y0082988D01*
X0035238Y0083017D01*
X0035184Y0083049D01*
X0035132Y0083084D01*
X0035083Y0083122D01*
X0035035Y0083164D01*
X0034991Y0083208D01*
X0034949Y0083256D01*
X0034911Y0083305D01*
X0034876Y0083357D01*
X0034844Y0083411D01*
X0034815Y0083467D01*
X0034790Y0083525D01*
X0034769Y0083584D01*
X0034751Y0083644D01*
X0034738Y0083706D01*
X0034728Y0083768D01*
X0034722Y0083830D01*
X0034720Y0083893D01*
X0046988Y0093499D02*
X0053497Y0086991D01*
X0055101Y0088595D02*
X0048593Y0095104D01*
X0037665Y0091000D02*
X0037669Y0091327D01*
X0037681Y0091654D01*
X0037701Y0091981D01*
X0037729Y0092307D01*
X0037765Y0092632D01*
X0037809Y0092957D01*
X0037861Y0093280D01*
X0037921Y0093602D01*
X0037989Y0093922D01*
X0038065Y0094240D01*
X0038148Y0094557D01*
X0038239Y0094871D01*
X0038338Y0095183D01*
X0038445Y0095492D01*
X0038559Y0095799D01*
X0038680Y0096103D01*
X0038809Y0096404D01*
X0038945Y0096701D01*
X0039089Y0096996D01*
X0039240Y0097286D01*
X0039397Y0097573D01*
X0039562Y0097856D01*
X0039734Y0098134D01*
X0039912Y0098409D01*
X0040098Y0098678D01*
X0040289Y0098944D01*
X0040487Y0099204D01*
X0040692Y0099460D01*
X0040903Y0099710D01*
X0041119Y0099955D01*
X0041342Y0100195D01*
X0041571Y0100429D01*
X0041805Y0100658D01*
X0042045Y0100881D01*
X0042290Y0101097D01*
X0042540Y0101308D01*
X0042796Y0101513D01*
X0043056Y0101711D01*
X0043322Y0101902D01*
X0043591Y0102088D01*
X0043866Y0102266D01*
X0044144Y0102438D01*
X0044427Y0102603D01*
X0044714Y0102760D01*
X0045004Y0102911D01*
X0045299Y0103055D01*
X0045596Y0103191D01*
X0045897Y0103320D01*
X0046201Y0103441D01*
X0046508Y0103555D01*
X0046817Y0103662D01*
X0047129Y0103761D01*
X0047443Y0103852D01*
X0047760Y0103935D01*
X0048078Y0104011D01*
X0048398Y0104079D01*
X0048720Y0104139D01*
X0049043Y0104191D01*
X0049368Y0104235D01*
X0049693Y0104271D01*
X0050019Y0104299D01*
X0050346Y0104319D01*
X0050673Y0104331D01*
X0051000Y0104335D01*
X0051327Y0104331D01*
X0051654Y0104319D01*
X0051981Y0104299D01*
X0052307Y0104271D01*
X0052632Y0104235D01*
X0052957Y0104191D01*
X0053280Y0104139D01*
X0053602Y0104079D01*
X0053922Y0104011D01*
X0054240Y0103935D01*
X0054557Y0103852D01*
X0054871Y0103761D01*
X0055183Y0103662D01*
X0055492Y0103555D01*
X0055799Y0103441D01*
X0056103Y0103320D01*
X0056404Y0103191D01*
X0056701Y0103055D01*
X0056996Y0102911D01*
X0057286Y0102760D01*
X0057573Y0102603D01*
X0057856Y0102438D01*
X0058134Y0102266D01*
X0058409Y0102088D01*
X0058678Y0101902D01*
X0058944Y0101711D01*
X0059204Y0101513D01*
X0059460Y0101308D01*
X0059710Y0101097D01*
X0059955Y0100881D01*
X0060195Y0100658D01*
X0060429Y0100429D01*
X0060658Y0100195D01*
X0060881Y0099955D01*
X0061097Y0099710D01*
X0061308Y0099460D01*
X0061513Y0099204D01*
X0061711Y0098944D01*
X0061902Y0098678D01*
X0062088Y0098409D01*
X0062266Y0098134D01*
X0062438Y0097856D01*
X0062603Y0097573D01*
X0062760Y0097286D01*
X0062911Y0096996D01*
X0063055Y0096701D01*
X0063191Y0096404D01*
X0063320Y0096103D01*
X0063441Y0095799D01*
X0063555Y0095492D01*
X0063662Y0095183D01*
X0063761Y0094871D01*
X0063852Y0094557D01*
X0063935Y0094240D01*
X0064011Y0093922D01*
X0064079Y0093602D01*
X0064139Y0093280D01*
X0064191Y0092957D01*
X0064235Y0092632D01*
X0064271Y0092307D01*
X0064299Y0091981D01*
X0064319Y0091654D01*
X0064331Y0091327D01*
X0064335Y0091000D01*
X0064331Y0090673D01*
X0064319Y0090346D01*
X0064299Y0090019D01*
X0064271Y0089693D01*
X0064235Y0089368D01*
X0064191Y0089043D01*
X0064139Y0088720D01*
X0064079Y0088398D01*
X0064011Y0088078D01*
X0063935Y0087760D01*
X0063852Y0087443D01*
X0063761Y0087129D01*
X0063662Y0086817D01*
X0063555Y0086508D01*
X0063441Y0086201D01*
X0063320Y0085897D01*
X0063191Y0085596D01*
X0063055Y0085299D01*
X0062911Y0085004D01*
X0062760Y0084714D01*
X0062603Y0084427D01*
X0062438Y0084144D01*
X0062266Y0083866D01*
X0062088Y0083591D01*
X0061902Y0083322D01*
X0061711Y0083056D01*
X0061513Y0082796D01*
X0061308Y0082540D01*
X0061097Y0082290D01*
X0060881Y0082045D01*
X0060658Y0081805D01*
X0060429Y0081571D01*
X0060195Y0081342D01*
X0059955Y0081119D01*
X0059710Y0080903D01*
X0059460Y0080692D01*
X0059204Y0080487D01*
X0058944Y0080289D01*
X0058678Y0080098D01*
X0058409Y0079912D01*
X0058134Y0079734D01*
X0057856Y0079562D01*
X0057573Y0079397D01*
X0057286Y0079240D01*
X0056996Y0079089D01*
X0056701Y0078945D01*
X0056404Y0078809D01*
X0056103Y0078680D01*
X0055799Y0078559D01*
X0055492Y0078445D01*
X0055183Y0078338D01*
X0054871Y0078239D01*
X0054557Y0078148D01*
X0054240Y0078065D01*
X0053922Y0077989D01*
X0053602Y0077921D01*
X0053280Y0077861D01*
X0052957Y0077809D01*
X0052632Y0077765D01*
X0052307Y0077729D01*
X0051981Y0077701D01*
X0051654Y0077681D01*
X0051327Y0077669D01*
X0051000Y0077665D01*
X0050673Y0077669D01*
X0050346Y0077681D01*
X0050019Y0077701D01*
X0049693Y0077729D01*
X0049368Y0077765D01*
X0049043Y0077809D01*
X0048720Y0077861D01*
X0048398Y0077921D01*
X0048078Y0077989D01*
X0047760Y0078065D01*
X0047443Y0078148D01*
X0047129Y0078239D01*
X0046817Y0078338D01*
X0046508Y0078445D01*
X0046201Y0078559D01*
X0045897Y0078680D01*
X0045596Y0078809D01*
X0045299Y0078945D01*
X0045004Y0079089D01*
X0044714Y0079240D01*
X0044427Y0079397D01*
X0044144Y0079562D01*
X0043866Y0079734D01*
X0043591Y0079912D01*
X0043322Y0080098D01*
X0043056Y0080289D01*
X0042796Y0080487D01*
X0042540Y0080692D01*
X0042290Y0080903D01*
X0042045Y0081119D01*
X0041805Y0081342D01*
X0041571Y0081571D01*
X0041342Y0081805D01*
X0041119Y0082045D01*
X0040903Y0082290D01*
X0040692Y0082540D01*
X0040487Y0082796D01*
X0040289Y0083056D01*
X0040098Y0083322D01*
X0039912Y0083591D01*
X0039734Y0083866D01*
X0039562Y0084144D01*
X0039397Y0084427D01*
X0039240Y0084714D01*
X0039089Y0085004D01*
X0038945Y0085299D01*
X0038809Y0085596D01*
X0038680Y0085897D01*
X0038559Y0086201D01*
X0038445Y0086508D01*
X0038338Y0086817D01*
X0038239Y0087129D01*
X0038148Y0087443D01*
X0038065Y0087760D01*
X0037989Y0088078D01*
X0037921Y0088398D01*
X0037861Y0088720D01*
X0037809Y0089043D01*
X0037765Y0089368D01*
X0037729Y0089693D01*
X0037701Y0090019D01*
X0037681Y0090346D01*
X0037669Y0090673D01*
X0037665Y0091000D01*
X0036556Y0091000D02*
X0036560Y0091354D01*
X0036573Y0091709D01*
X0036595Y0092063D01*
X0036626Y0092416D01*
X0036665Y0092768D01*
X0036712Y0093119D01*
X0036769Y0093469D01*
X0036834Y0093818D01*
X0036907Y0094165D01*
X0036989Y0094510D01*
X0037079Y0094852D01*
X0037178Y0095193D01*
X0037285Y0095531D01*
X0037400Y0095866D01*
X0037524Y0096198D01*
X0037655Y0096527D01*
X0037795Y0096853D01*
X0037943Y0097176D01*
X0038098Y0097494D01*
X0038262Y0097809D01*
X0038432Y0098119D01*
X0038611Y0098426D01*
X0038797Y0098728D01*
X0038990Y0099025D01*
X0039191Y0099317D01*
X0039398Y0099604D01*
X0039613Y0099886D01*
X0039835Y0100163D01*
X0040063Y0100434D01*
X0040298Y0100700D01*
X0040539Y0100960D01*
X0040787Y0101213D01*
X0041040Y0101461D01*
X0041300Y0101702D01*
X0041566Y0101937D01*
X0041837Y0102165D01*
X0042114Y0102387D01*
X0042396Y0102602D01*
X0042683Y0102809D01*
X0042975Y0103010D01*
X0043272Y0103203D01*
X0043574Y0103389D01*
X0043881Y0103568D01*
X0044191Y0103738D01*
X0044506Y0103902D01*
X0044824Y0104057D01*
X0045147Y0104205D01*
X0045473Y0104345D01*
X0045802Y0104476D01*
X0046134Y0104600D01*
X0046469Y0104715D01*
X0046807Y0104822D01*
X0047148Y0104921D01*
X0047490Y0105011D01*
X0047835Y0105093D01*
X0048182Y0105166D01*
X0048531Y0105231D01*
X0048881Y0105288D01*
X0049232Y0105335D01*
X0049584Y0105374D01*
X0049937Y0105405D01*
X0050291Y0105427D01*
X0050646Y0105440D01*
X0051000Y0105444D01*
X0051354Y0105440D01*
X0051709Y0105427D01*
X0052063Y0105405D01*
X0052416Y0105374D01*
X0052768Y0105335D01*
X0053119Y0105288D01*
X0053469Y0105231D01*
X0053818Y0105166D01*
X0054165Y0105093D01*
X0054510Y0105011D01*
X0054852Y0104921D01*
X0055193Y0104822D01*
X0055531Y0104715D01*
X0055866Y0104600D01*
X0056198Y0104476D01*
X0056527Y0104345D01*
X0056853Y0104205D01*
X0057176Y0104057D01*
X0057494Y0103902D01*
X0057809Y0103738D01*
X0058119Y0103568D01*
X0058426Y0103389D01*
X0058728Y0103203D01*
X0059025Y0103010D01*
X0059317Y0102809D01*
X0059604Y0102602D01*
X0059886Y0102387D01*
X0060163Y0102165D01*
X0060434Y0101937D01*
X0060700Y0101702D01*
X0060960Y0101461D01*
X0061213Y0101213D01*
X0061461Y0100960D01*
X0061702Y0100700D01*
X0061937Y0100434D01*
X0062165Y0100163D01*
X0062387Y0099886D01*
X0062602Y0099604D01*
X0062809Y0099317D01*
X0063010Y0099025D01*
X0063203Y0098728D01*
X0063389Y0098426D01*
X0063568Y0098119D01*
X0063738Y0097809D01*
X0063902Y0097494D01*
X0064057Y0097176D01*
X0064205Y0096853D01*
X0064345Y0096527D01*
X0064476Y0096198D01*
X0064600Y0095866D01*
X0064715Y0095531D01*
X0064822Y0095193D01*
X0064921Y0094852D01*
X0065011Y0094510D01*
X0065093Y0094165D01*
X0065166Y0093818D01*
X0065231Y0093469D01*
X0065288Y0093119D01*
X0065335Y0092768D01*
X0065374Y0092416D01*
X0065405Y0092063D01*
X0065427Y0091709D01*
X0065440Y0091354D01*
X0065444Y0091000D01*
X0065440Y0090646D01*
X0065427Y0090291D01*
X0065405Y0089937D01*
X0065374Y0089584D01*
X0065335Y0089232D01*
X0065288Y0088881D01*
X0065231Y0088531D01*
X0065166Y0088182D01*
X0065093Y0087835D01*
X0065011Y0087490D01*
X0064921Y0087148D01*
X0064822Y0086807D01*
X0064715Y0086469D01*
X0064600Y0086134D01*
X0064476Y0085802D01*
X0064345Y0085473D01*
X0064205Y0085147D01*
X0064057Y0084824D01*
X0063902Y0084506D01*
X0063738Y0084191D01*
X0063568Y0083881D01*
X0063389Y0083574D01*
X0063203Y0083272D01*
X0063010Y0082975D01*
X0062809Y0082683D01*
X0062602Y0082396D01*
X0062387Y0082114D01*
X0062165Y0081837D01*
X0061937Y0081566D01*
X0061702Y0081300D01*
X0061461Y0081040D01*
X0061213Y0080787D01*
X0060960Y0080539D01*
X0060700Y0080298D01*
X0060434Y0080063D01*
X0060163Y0079835D01*
X0059886Y0079613D01*
X0059604Y0079398D01*
X0059317Y0079191D01*
X0059025Y0078990D01*
X0058728Y0078797D01*
X0058426Y0078611D01*
X0058119Y0078432D01*
X0057809Y0078262D01*
X0057494Y0078098D01*
X0057176Y0077943D01*
X0056853Y0077795D01*
X0056527Y0077655D01*
X0056198Y0077524D01*
X0055866Y0077400D01*
X0055531Y0077285D01*
X0055193Y0077178D01*
X0054852Y0077079D01*
X0054510Y0076989D01*
X0054165Y0076907D01*
X0053818Y0076834D01*
X0053469Y0076769D01*
X0053119Y0076712D01*
X0052768Y0076665D01*
X0052416Y0076626D01*
X0052063Y0076595D01*
X0051709Y0076573D01*
X0051354Y0076560D01*
X0051000Y0076556D01*
X0050646Y0076560D01*
X0050291Y0076573D01*
X0049937Y0076595D01*
X0049584Y0076626D01*
X0049232Y0076665D01*
X0048881Y0076712D01*
X0048531Y0076769D01*
X0048182Y0076834D01*
X0047835Y0076907D01*
X0047490Y0076989D01*
X0047148Y0077079D01*
X0046807Y0077178D01*
X0046469Y0077285D01*
X0046134Y0077400D01*
X0045802Y0077524D01*
X0045473Y0077655D01*
X0045147Y0077795D01*
X0044824Y0077943D01*
X0044506Y0078098D01*
X0044191Y0078262D01*
X0043881Y0078432D01*
X0043574Y0078611D01*
X0043272Y0078797D01*
X0042975Y0078990D01*
X0042683Y0079191D01*
X0042396Y0079398D01*
X0042114Y0079613D01*
X0041837Y0079835D01*
X0041566Y0080063D01*
X0041300Y0080298D01*
X0041040Y0080539D01*
X0040787Y0080787D01*
X0040539Y0081040D01*
X0040298Y0081300D01*
X0040063Y0081566D01*
X0039835Y0081837D01*
X0039613Y0082114D01*
X0039398Y0082396D01*
X0039191Y0082683D01*
X0038990Y0082975D01*
X0038797Y0083272D01*
X0038611Y0083574D01*
X0038432Y0083881D01*
X0038262Y0084191D01*
X0038098Y0084506D01*
X0037943Y0084824D01*
X0037795Y0085147D01*
X0037655Y0085473D01*
X0037524Y0085802D01*
X0037400Y0086134D01*
X0037285Y0086469D01*
X0037178Y0086807D01*
X0037079Y0087148D01*
X0036989Y0087490D01*
X0036907Y0087835D01*
X0036834Y0088182D01*
X0036769Y0088531D01*
X0036712Y0088881D01*
X0036665Y0089232D01*
X0036626Y0089584D01*
X0036595Y0089937D01*
X0036573Y0090291D01*
X0036560Y0090646D01*
X0036556Y0091000D01*
X0046200Y0091000D02*
X0046202Y0091138D01*
X0046208Y0091277D01*
X0046218Y0091415D01*
X0046232Y0091552D01*
X0046250Y0091689D01*
X0046272Y0091826D01*
X0046297Y0091962D01*
X0046327Y0092097D01*
X0046361Y0092231D01*
X0046398Y0092364D01*
X0046439Y0092496D01*
X0046484Y0092627D01*
X0046533Y0092757D01*
X0046585Y0092885D01*
X0046642Y0093011D01*
X0046701Y0093136D01*
X0046765Y0093259D01*
X0046832Y0093380D01*
X0046902Y0093499D01*
X0046976Y0093616D01*
X0047053Y0093731D01*
X0047133Y0093844D01*
X0047217Y0093954D01*
X0047303Y0094062D01*
X0047393Y0094167D01*
X0047486Y0094270D01*
X0047582Y0094370D01*
X0047680Y0094467D01*
X0047781Y0094561D01*
X0047885Y0094652D01*
X0047992Y0094740D01*
X0048101Y0094826D01*
X0048212Y0094908D01*
X0048326Y0094986D01*
X0048442Y0095062D01*
X0048560Y0095134D01*
X0048680Y0095202D01*
X0048802Y0095267D01*
X0048926Y0095329D01*
X0049052Y0095387D01*
X0049179Y0095441D01*
X0049308Y0095492D01*
X0049438Y0095539D01*
X0049569Y0095582D01*
X0049702Y0095621D01*
X0049836Y0095657D01*
X0049970Y0095688D01*
X0050106Y0095716D01*
X0050242Y0095740D01*
X0050379Y0095760D01*
X0050517Y0095776D01*
X0050654Y0095788D01*
X0050793Y0095796D01*
X0050931Y0095800D01*
X0051069Y0095800D01*
X0051207Y0095796D01*
X0051346Y0095788D01*
X0051483Y0095776D01*
X0051621Y0095760D01*
X0051758Y0095740D01*
X0051894Y0095716D01*
X0052030Y0095688D01*
X0052164Y0095657D01*
X0052298Y0095621D01*
X0052431Y0095582D01*
X0052562Y0095539D01*
X0052692Y0095492D01*
X0052821Y0095441D01*
X0052948Y0095387D01*
X0053074Y0095329D01*
X0053198Y0095267D01*
X0053320Y0095202D01*
X0053440Y0095134D01*
X0053558Y0095062D01*
X0053674Y0094986D01*
X0053788Y0094908D01*
X0053899Y0094826D01*
X0054008Y0094740D01*
X0054115Y0094652D01*
X0054219Y0094561D01*
X0054320Y0094467D01*
X0054418Y0094370D01*
X0054514Y0094270D01*
X0054607Y0094167D01*
X0054697Y0094062D01*
X0054783Y0093954D01*
X0054867Y0093844D01*
X0054947Y0093731D01*
X0055024Y0093616D01*
X0055098Y0093499D01*
X0055168Y0093380D01*
X0055235Y0093259D01*
X0055299Y0093136D01*
X0055358Y0093011D01*
X0055415Y0092885D01*
X0055467Y0092757D01*
X0055516Y0092627D01*
X0055561Y0092496D01*
X0055602Y0092364D01*
X0055639Y0092231D01*
X0055673Y0092097D01*
X0055703Y0091962D01*
X0055728Y0091826D01*
X0055750Y0091689D01*
X0055768Y0091552D01*
X0055782Y0091415D01*
X0055792Y0091277D01*
X0055798Y0091138D01*
X0055800Y0091000D01*
X0055798Y0090862D01*
X0055792Y0090723D01*
X0055782Y0090585D01*
X0055768Y0090448D01*
X0055750Y0090311D01*
X0055728Y0090174D01*
X0055703Y0090038D01*
X0055673Y0089903D01*
X0055639Y0089769D01*
X0055602Y0089636D01*
X0055561Y0089504D01*
X0055516Y0089373D01*
X0055467Y0089243D01*
X0055415Y0089115D01*
X0055358Y0088989D01*
X0055299Y0088864D01*
X0055235Y0088741D01*
X0055168Y0088620D01*
X0055098Y0088501D01*
X0055024Y0088384D01*
X0054947Y0088269D01*
X0054867Y0088156D01*
X0054783Y0088046D01*
X0054697Y0087938D01*
X0054607Y0087833D01*
X0054514Y0087730D01*
X0054418Y0087630D01*
X0054320Y0087533D01*
X0054219Y0087439D01*
X0054115Y0087348D01*
X0054008Y0087260D01*
X0053899Y0087174D01*
X0053788Y0087092D01*
X0053674Y0087014D01*
X0053558Y0086938D01*
X0053440Y0086866D01*
X0053320Y0086798D01*
X0053198Y0086733D01*
X0053074Y0086671D01*
X0052948Y0086613D01*
X0052821Y0086559D01*
X0052692Y0086508D01*
X0052562Y0086461D01*
X0052431Y0086418D01*
X0052298Y0086379D01*
X0052164Y0086343D01*
X0052030Y0086312D01*
X0051894Y0086284D01*
X0051758Y0086260D01*
X0051621Y0086240D01*
X0051483Y0086224D01*
X0051346Y0086212D01*
X0051207Y0086204D01*
X0051069Y0086200D01*
X0050931Y0086200D01*
X0050793Y0086204D01*
X0050654Y0086212D01*
X0050517Y0086224D01*
X0050379Y0086240D01*
X0050242Y0086260D01*
X0050106Y0086284D01*
X0049970Y0086312D01*
X0049836Y0086343D01*
X0049702Y0086379D01*
X0049569Y0086418D01*
X0049438Y0086461D01*
X0049308Y0086508D01*
X0049179Y0086559D01*
X0049052Y0086613D01*
X0048926Y0086671D01*
X0048802Y0086733D01*
X0048680Y0086798D01*
X0048560Y0086866D01*
X0048442Y0086938D01*
X0048326Y0087014D01*
X0048212Y0087092D01*
X0048101Y0087174D01*
X0047992Y0087260D01*
X0047885Y0087348D01*
X0047781Y0087439D01*
X0047680Y0087533D01*
X0047582Y0087630D01*
X0047486Y0087730D01*
X0047393Y0087833D01*
X0047303Y0087938D01*
X0047217Y0088046D01*
X0047133Y0088156D01*
X0047053Y0088269D01*
X0046976Y0088384D01*
X0046902Y0088501D01*
X0046832Y0088620D01*
X0046765Y0088741D01*
X0046701Y0088864D01*
X0046642Y0088989D01*
X0046585Y0089115D01*
X0046533Y0089243D01*
X0046484Y0089373D01*
X0046439Y0089504D01*
X0046398Y0089636D01*
X0046361Y0089769D01*
X0046327Y0089903D01*
X0046297Y0090038D01*
X0046272Y0090174D01*
X0046250Y0090311D01*
X0046232Y0090448D01*
X0046218Y0090585D01*
X0046208Y0090723D01*
X0046202Y0090862D01*
X0046200Y0091000D01*
X0021000Y0075750D02*
X0020860Y0075748D01*
X0020720Y0075742D01*
X0020580Y0075732D01*
X0020440Y0075719D01*
X0020301Y0075701D01*
X0020162Y0075679D01*
X0020025Y0075654D01*
X0019887Y0075625D01*
X0019751Y0075592D01*
X0019616Y0075555D01*
X0019482Y0075514D01*
X0019349Y0075469D01*
X0019217Y0075421D01*
X0019087Y0075369D01*
X0018958Y0075314D01*
X0018831Y0075255D01*
X0018705Y0075192D01*
X0018581Y0075126D01*
X0018460Y0075057D01*
X0018340Y0074984D01*
X0018222Y0074907D01*
X0018107Y0074828D01*
X0017993Y0074745D01*
X0017883Y0074659D01*
X0017774Y0074570D01*
X0017668Y0074478D01*
X0017565Y0074383D01*
X0017464Y0074286D01*
X0017367Y0074185D01*
X0017272Y0074082D01*
X0017180Y0073976D01*
X0017091Y0073867D01*
X0017005Y0073757D01*
X0016922Y0073643D01*
X0016843Y0073528D01*
X0016766Y0073410D01*
X0016693Y0073290D01*
X0016624Y0073169D01*
X0016558Y0073045D01*
X0016495Y0072919D01*
X0016436Y0072792D01*
X0016381Y0072663D01*
X0016329Y0072533D01*
X0016281Y0072401D01*
X0016236Y0072268D01*
X0016195Y0072134D01*
X0016158Y0071999D01*
X0016125Y0071863D01*
X0016096Y0071725D01*
X0016071Y0071588D01*
X0016049Y0071449D01*
X0016031Y0071310D01*
X0016018Y0071170D01*
X0016008Y0071030D01*
X0016002Y0070890D01*
X0016000Y0070750D01*
X0016002Y0070610D01*
X0016008Y0070470D01*
X0016018Y0070330D01*
X0016031Y0070190D01*
X0016049Y0070051D01*
X0016071Y0069912D01*
X0016096Y0069775D01*
X0016125Y0069637D01*
X0016158Y0069501D01*
X0016195Y0069366D01*
X0016236Y0069232D01*
X0016281Y0069099D01*
X0016329Y0068967D01*
X0016381Y0068837D01*
X0016436Y0068708D01*
X0016495Y0068581D01*
X0016558Y0068455D01*
X0016624Y0068331D01*
X0016693Y0068210D01*
X0016766Y0068090D01*
X0016843Y0067972D01*
X0016922Y0067857D01*
X0017005Y0067743D01*
X0017091Y0067633D01*
X0017180Y0067524D01*
X0017272Y0067418D01*
X0017367Y0067315D01*
X0017464Y0067214D01*
X0017565Y0067117D01*
X0017668Y0067022D01*
X0017774Y0066930D01*
X0017883Y0066841D01*
X0017993Y0066755D01*
X0018107Y0066672D01*
X0018222Y0066593D01*
X0018340Y0066516D01*
X0018460Y0066443D01*
X0018581Y0066374D01*
X0018705Y0066308D01*
X0018831Y0066245D01*
X0018958Y0066186D01*
X0019087Y0066131D01*
X0019217Y0066079D01*
X0019349Y0066031D01*
X0019482Y0065986D01*
X0019616Y0065945D01*
X0019751Y0065908D01*
X0019887Y0065875D01*
X0020025Y0065846D01*
X0020162Y0065821D01*
X0020301Y0065799D01*
X0020440Y0065781D01*
X0020580Y0065768D01*
X0020720Y0065758D01*
X0020860Y0065752D01*
X0021000Y0065750D01*
X0021000Y0062750D02*
X0020860Y0062752D01*
X0020720Y0062758D01*
X0020580Y0062768D01*
X0020440Y0062781D01*
X0020301Y0062799D01*
X0020162Y0062821D01*
X0020025Y0062846D01*
X0019887Y0062875D01*
X0019751Y0062908D01*
X0019616Y0062945D01*
X0019482Y0062986D01*
X0019349Y0063031D01*
X0019217Y0063079D01*
X0019087Y0063131D01*
X0018958Y0063186D01*
X0018831Y0063245D01*
X0018705Y0063308D01*
X0018581Y0063374D01*
X0018460Y0063443D01*
X0018340Y0063516D01*
X0018222Y0063593D01*
X0018107Y0063672D01*
X0017993Y0063755D01*
X0017883Y0063841D01*
X0017774Y0063930D01*
X0017668Y0064022D01*
X0017565Y0064117D01*
X0017464Y0064214D01*
X0017367Y0064315D01*
X0017272Y0064418D01*
X0017180Y0064524D01*
X0017091Y0064633D01*
X0017005Y0064743D01*
X0016922Y0064857D01*
X0016843Y0064972D01*
X0016766Y0065090D01*
X0016693Y0065210D01*
X0016624Y0065331D01*
X0016558Y0065455D01*
X0016495Y0065581D01*
X0016436Y0065708D01*
X0016381Y0065837D01*
X0016329Y0065967D01*
X0016281Y0066099D01*
X0016236Y0066232D01*
X0016195Y0066366D01*
X0016158Y0066501D01*
X0016125Y0066637D01*
X0016096Y0066775D01*
X0016071Y0066912D01*
X0016049Y0067051D01*
X0016031Y0067190D01*
X0016018Y0067330D01*
X0016008Y0067470D01*
X0016002Y0067610D01*
X0016000Y0067750D01*
X0021000Y0062750D02*
X0021140Y0062752D01*
X0021280Y0062758D01*
X0021420Y0062768D01*
X0021560Y0062781D01*
X0021699Y0062799D01*
X0021838Y0062821D01*
X0021975Y0062846D01*
X0022113Y0062875D01*
X0022249Y0062908D01*
X0022384Y0062945D01*
X0022518Y0062986D01*
X0022651Y0063031D01*
X0022783Y0063079D01*
X0022913Y0063131D01*
X0023042Y0063186D01*
X0023169Y0063245D01*
X0023295Y0063308D01*
X0023419Y0063374D01*
X0023540Y0063443D01*
X0023660Y0063516D01*
X0023778Y0063593D01*
X0023893Y0063672D01*
X0024007Y0063755D01*
X0024117Y0063841D01*
X0024226Y0063930D01*
X0024332Y0064022D01*
X0024435Y0064117D01*
X0024536Y0064214D01*
X0024633Y0064315D01*
X0024728Y0064418D01*
X0024820Y0064524D01*
X0024909Y0064633D01*
X0024995Y0064743D01*
X0025078Y0064857D01*
X0025157Y0064972D01*
X0025234Y0065090D01*
X0025307Y0065210D01*
X0025376Y0065331D01*
X0025442Y0065455D01*
X0025505Y0065581D01*
X0025564Y0065708D01*
X0025619Y0065837D01*
X0025671Y0065967D01*
X0025719Y0066099D01*
X0025764Y0066232D01*
X0025805Y0066366D01*
X0025842Y0066501D01*
X0025875Y0066637D01*
X0025904Y0066775D01*
X0025929Y0066912D01*
X0025951Y0067051D01*
X0025969Y0067190D01*
X0025982Y0067330D01*
X0025992Y0067470D01*
X0025998Y0067610D01*
X0026000Y0067750D01*
X0026000Y0070750D02*
X0025998Y0070610D01*
X0025992Y0070470D01*
X0025982Y0070330D01*
X0025969Y0070190D01*
X0025951Y0070051D01*
X0025929Y0069912D01*
X0025904Y0069775D01*
X0025875Y0069637D01*
X0025842Y0069501D01*
X0025805Y0069366D01*
X0025764Y0069232D01*
X0025719Y0069099D01*
X0025671Y0068967D01*
X0025619Y0068837D01*
X0025564Y0068708D01*
X0025505Y0068581D01*
X0025442Y0068455D01*
X0025376Y0068331D01*
X0025307Y0068210D01*
X0025234Y0068090D01*
X0025157Y0067972D01*
X0025078Y0067857D01*
X0024995Y0067743D01*
X0024909Y0067633D01*
X0024820Y0067524D01*
X0024728Y0067418D01*
X0024633Y0067315D01*
X0024536Y0067214D01*
X0024435Y0067117D01*
X0024332Y0067022D01*
X0024226Y0066930D01*
X0024117Y0066841D01*
X0024007Y0066755D01*
X0023893Y0066672D01*
X0023778Y0066593D01*
X0023660Y0066516D01*
X0023540Y0066443D01*
X0023419Y0066374D01*
X0023295Y0066308D01*
X0023169Y0066245D01*
X0023042Y0066186D01*
X0022913Y0066131D01*
X0022783Y0066079D01*
X0022651Y0066031D01*
X0022518Y0065986D01*
X0022384Y0065945D01*
X0022249Y0065908D01*
X0022113Y0065875D01*
X0021975Y0065846D01*
X0021838Y0065821D01*
X0021699Y0065799D01*
X0021560Y0065781D01*
X0021420Y0065768D01*
X0021280Y0065758D01*
X0021140Y0065752D01*
X0021000Y0065750D01*
X0016000Y0070750D02*
X0016002Y0070890D01*
X0016008Y0071030D01*
X0016018Y0071170D01*
X0016031Y0071310D01*
X0016049Y0071449D01*
X0016071Y0071588D01*
X0016096Y0071725D01*
X0016125Y0071863D01*
X0016158Y0071999D01*
X0016195Y0072134D01*
X0016236Y0072268D01*
X0016281Y0072401D01*
X0016329Y0072533D01*
X0016381Y0072663D01*
X0016436Y0072792D01*
X0016495Y0072919D01*
X0016558Y0073045D01*
X0016624Y0073169D01*
X0016693Y0073290D01*
X0016766Y0073410D01*
X0016843Y0073528D01*
X0016922Y0073643D01*
X0017005Y0073757D01*
X0017091Y0073867D01*
X0017180Y0073976D01*
X0017272Y0074082D01*
X0017367Y0074185D01*
X0017464Y0074286D01*
X0017565Y0074383D01*
X0017668Y0074478D01*
X0017774Y0074570D01*
X0017883Y0074659D01*
X0017993Y0074745D01*
X0018107Y0074828D01*
X0018222Y0074907D01*
X0018340Y0074984D01*
X0018460Y0075057D01*
X0018581Y0075126D01*
X0018705Y0075192D01*
X0018831Y0075255D01*
X0018958Y0075314D01*
X0019087Y0075369D01*
X0019217Y0075421D01*
X0019349Y0075469D01*
X0019482Y0075514D01*
X0019616Y0075555D01*
X0019751Y0075592D01*
X0019887Y0075625D01*
X0020025Y0075654D01*
X0020162Y0075679D01*
X0020301Y0075701D01*
X0020440Y0075719D01*
X0020580Y0075732D01*
X0020720Y0075742D01*
X0020860Y0075748D01*
X0021000Y0075750D01*
X0016000Y0070750D02*
X0016002Y0070610D01*
X0016008Y0070470D01*
X0016018Y0070330D01*
X0016031Y0070190D01*
X0016049Y0070051D01*
X0016071Y0069912D01*
X0016096Y0069775D01*
X0016125Y0069637D01*
X0016158Y0069501D01*
X0016195Y0069366D01*
X0016236Y0069232D01*
X0016281Y0069099D01*
X0016329Y0068967D01*
X0016381Y0068837D01*
X0016436Y0068708D01*
X0016495Y0068581D01*
X0016558Y0068455D01*
X0016624Y0068331D01*
X0016693Y0068210D01*
X0016766Y0068090D01*
X0016843Y0067972D01*
X0016922Y0067857D01*
X0017005Y0067743D01*
X0017091Y0067633D01*
X0017180Y0067524D01*
X0017272Y0067418D01*
X0017367Y0067315D01*
X0017464Y0067214D01*
X0017565Y0067117D01*
X0017668Y0067022D01*
X0017774Y0066930D01*
X0017883Y0066841D01*
X0017993Y0066755D01*
X0018107Y0066672D01*
X0018222Y0066593D01*
X0018340Y0066516D01*
X0018460Y0066443D01*
X0018581Y0066374D01*
X0018705Y0066308D01*
X0018831Y0066245D01*
X0018958Y0066186D01*
X0019087Y0066131D01*
X0019217Y0066079D01*
X0019349Y0066031D01*
X0019482Y0065986D01*
X0019616Y0065945D01*
X0019751Y0065908D01*
X0019887Y0065875D01*
X0020025Y0065846D01*
X0020162Y0065821D01*
X0020301Y0065799D01*
X0020440Y0065781D01*
X0020580Y0065768D01*
X0020720Y0065758D01*
X0020860Y0065752D01*
X0021000Y0065750D01*
X0021140Y0065752D01*
X0021280Y0065758D01*
X0021420Y0065768D01*
X0021560Y0065781D01*
X0021699Y0065799D01*
X0021838Y0065821D01*
X0021975Y0065846D01*
X0022113Y0065875D01*
X0022249Y0065908D01*
X0022384Y0065945D01*
X0022518Y0065986D01*
X0022651Y0066031D01*
X0022783Y0066079D01*
X0022913Y0066131D01*
X0023042Y0066186D01*
X0023169Y0066245D01*
X0023295Y0066308D01*
X0023419Y0066374D01*
X0023540Y0066443D01*
X0023660Y0066516D01*
X0023778Y0066593D01*
X0023893Y0066672D01*
X0024007Y0066755D01*
X0024117Y0066841D01*
X0024226Y0066930D01*
X0024332Y0067022D01*
X0024435Y0067117D01*
X0024536Y0067214D01*
X0024633Y0067315D01*
X0024728Y0067418D01*
X0024820Y0067524D01*
X0024909Y0067633D01*
X0024995Y0067743D01*
X0025078Y0067857D01*
X0025157Y0067972D01*
X0025234Y0068090D01*
X0025307Y0068210D01*
X0025376Y0068331D01*
X0025442Y0068455D01*
X0025505Y0068581D01*
X0025564Y0068708D01*
X0025619Y0068837D01*
X0025671Y0068967D01*
X0025719Y0069099D01*
X0025764Y0069232D01*
X0025805Y0069366D01*
X0025842Y0069501D01*
X0025875Y0069637D01*
X0025904Y0069775D01*
X0025929Y0069912D01*
X0025951Y0070051D01*
X0025969Y0070190D01*
X0025982Y0070330D01*
X0025992Y0070470D01*
X0025998Y0070610D01*
X0026000Y0070750D01*
X0080512Y0061500D02*
X0101488Y0061500D01*
X0099248Y0067500D02*
X0082752Y0067500D01*
X0082600Y0067303D01*
X0082453Y0067101D01*
X0082310Y0066897D01*
X0082173Y0066689D01*
X0082040Y0066478D01*
X0081912Y0066263D01*
X0081790Y0066046D01*
X0081673Y0065826D01*
X0081561Y0065603D01*
X0081454Y0065378D01*
X0080512Y0061500D02*
X0080503Y0061244D01*
X0080500Y0060988D01*
X0080503Y0060732D01*
X0080513Y0060476D01*
X0080529Y0060221D01*
X0080551Y0059966D01*
X0080579Y0059711D01*
X0080614Y0059458D01*
X0080655Y0059205D01*
X0080701Y0058953D01*
X0080754Y0058703D01*
X0080813Y0058454D01*
X0080879Y0058206D01*
X0080950Y0057960D01*
X0081027Y0057716D01*
X0081110Y0057474D01*
X0081199Y0057234D01*
X0081293Y0056996D01*
X0081394Y0056761D01*
X0081500Y0056528D01*
X0080512Y0061500D02*
X0080527Y0061757D01*
X0080549Y0062014D01*
X0080577Y0062270D01*
X0080611Y0062525D01*
X0080652Y0062779D01*
X0080699Y0063032D01*
X0080752Y0063284D01*
X0080811Y0063535D01*
X0080876Y0063784D01*
X0080947Y0064031D01*
X0081024Y0064277D01*
X0081108Y0064521D01*
X0081197Y0064762D01*
X0081292Y0065001D01*
X0081393Y0065238D01*
X0081500Y0065472D01*
X0101488Y0061500D02*
X0101497Y0061244D01*
X0101500Y0060988D01*
X0101497Y0060732D01*
X0101487Y0060476D01*
X0101471Y0060221D01*
X0101449Y0059966D01*
X0101421Y0059711D01*
X0101386Y0059458D01*
X0101345Y0059205D01*
X0101299Y0058953D01*
X0101246Y0058703D01*
X0101187Y0058454D01*
X0101121Y0058206D01*
X0101050Y0057960D01*
X0100973Y0057716D01*
X0100890Y0057474D01*
X0100801Y0057234D01*
X0100707Y0056996D01*
X0100606Y0056761D01*
X0100500Y0056528D01*
X0100502Y0065472D02*
X0100398Y0065687D01*
X0100289Y0065900D01*
X0100175Y0066110D01*
X0100056Y0066317D01*
X0099933Y0066522D01*
X0099805Y0066724D01*
X0099672Y0066923D01*
X0099535Y0067118D01*
X0099394Y0067311D01*
X0099248Y0067500D01*
X0100500Y0056528D02*
X0100388Y0056298D01*
X0100271Y0056071D01*
X0100149Y0055847D01*
X0100021Y0055626D01*
X0099887Y0055409D01*
X0099749Y0055194D01*
X0099605Y0054983D01*
X0099456Y0054776D01*
X0099302Y0054572D01*
X0099144Y0054372D01*
X0098980Y0054176D01*
X0098812Y0053984D01*
X0098639Y0053796D01*
X0098461Y0053612D01*
X0098280Y0053433D01*
X0098093Y0053258D01*
X0097903Y0053088D01*
X0097709Y0052923D01*
X0097510Y0052762D01*
X0097308Y0052606D01*
X0097102Y0052455D01*
X0096892Y0052309D01*
X0096679Y0052169D01*
X0096463Y0052033D01*
X0096243Y0051903D01*
X0096020Y0051778D01*
X0095795Y0051659D01*
X0095566Y0051545D01*
X0095335Y0051437D01*
X0095101Y0051334D01*
X0094865Y0051237D01*
X0094626Y0051146D01*
X0094386Y0051061D01*
X0094143Y0050981D01*
X0093898Y0050908D01*
X0093652Y0050840D01*
X0093404Y0050779D01*
X0093155Y0050724D01*
X0092905Y0050674D01*
X0092653Y0050631D01*
X0092400Y0050594D01*
X0092147Y0050563D01*
X0091893Y0050538D01*
X0091638Y0050519D01*
X0091383Y0050507D01*
X0091128Y0050501D01*
X0090872Y0050501D01*
X0090617Y0050507D01*
X0090362Y0050519D01*
X0090107Y0050538D01*
X0089853Y0050563D01*
X0089600Y0050594D01*
X0089347Y0050631D01*
X0089095Y0050674D01*
X0088845Y0050724D01*
X0088596Y0050779D01*
X0088348Y0050840D01*
X0088102Y0050908D01*
X0087857Y0050981D01*
X0087614Y0051061D01*
X0087374Y0051146D01*
X0087135Y0051237D01*
X0086899Y0051334D01*
X0086665Y0051437D01*
X0086434Y0051545D01*
X0086205Y0051659D01*
X0085980Y0051778D01*
X0085757Y0051903D01*
X0085537Y0052033D01*
X0085321Y0052169D01*
X0085108Y0052309D01*
X0084898Y0052455D01*
X0084692Y0052606D01*
X0084490Y0052762D01*
X0084291Y0052923D01*
X0084097Y0053088D01*
X0083907Y0053258D01*
X0083720Y0053433D01*
X0083539Y0053612D01*
X0083361Y0053796D01*
X0083188Y0053984D01*
X0083020Y0054176D01*
X0082856Y0054372D01*
X0082698Y0054572D01*
X0082544Y0054776D01*
X0082395Y0054983D01*
X0082251Y0055194D01*
X0082113Y0055409D01*
X0081979Y0055626D01*
X0081851Y0055847D01*
X0081729Y0056071D01*
X0081612Y0056298D01*
X0081500Y0056528D01*
X0101488Y0061500D02*
X0101473Y0061757D01*
X0101451Y0062014D01*
X0101423Y0062270D01*
X0101389Y0062525D01*
X0101348Y0062779D01*
X0101301Y0063032D01*
X0101248Y0063284D01*
X0101189Y0063535D01*
X0101124Y0063784D01*
X0101053Y0064031D01*
X0100976Y0064277D01*
X0100892Y0064521D01*
X0100803Y0064762D01*
X0100708Y0065001D01*
X0100607Y0065238D01*
X0100500Y0065472D01*
X0106000Y0096000D02*
X0086000Y0096000D01*
X0086000Y0106000D01*
X0106000Y0106000D01*
X0106000Y0096000D01*
D12*
X0084936Y0092150D02*
X0082467Y0092150D01*
X0083701Y0092150D02*
X0083701Y0095853D01*
X0082467Y0094619D01*
X0053619Y0097150D02*
X0051150Y0097150D01*
X0053619Y0099619D01*
X0053619Y0100236D01*
X0053002Y0100853D01*
X0051767Y0100853D01*
X0051150Y0100236D01*
X0049936Y0100236D02*
X0049318Y0100853D01*
X0048084Y0100853D01*
X0047467Y0100236D01*
X0047467Y0097767D01*
X0048084Y0097150D01*
X0049318Y0097150D01*
X0049936Y0097767D01*
X0035064Y0056336D02*
X0035064Y0052466D01*
X0035064Y0056336D01*
X0035548Y0055852D02*
X0036031Y0055369D01*
X0035548Y0055852D01*
X0034580Y0055852D01*
X0034097Y0055369D01*
X0034097Y0054885D01*
X0034580Y0054401D01*
X0035548Y0054401D01*
X0036031Y0053917D01*
X0036031Y0053434D01*
X0035548Y0052950D01*
X0034580Y0052950D01*
X0034097Y0053434D01*
X0034580Y0052950D01*
X0035548Y0052950D01*
X0036031Y0053434D01*
X0036031Y0053917D01*
X0035548Y0054401D01*
X0034580Y0054401D01*
X0034097Y0054885D01*
X0034097Y0055369D01*
X0034580Y0055852D01*
X0035548Y0055852D01*
X0037043Y0054885D02*
X0038011Y0055852D01*
X0038011Y0052950D01*
X0038011Y0055852D01*
X0037043Y0054885D01*
X0037043Y0052950D02*
X0038978Y0052950D01*
X0037043Y0052950D01*
X0033085Y0053434D02*
X0033085Y0055852D01*
X0033085Y0053434D01*
X0032601Y0052950D01*
X0031634Y0052950D01*
X0031150Y0053434D01*
X0031150Y0055852D01*
X0031150Y0053434D01*
X0031634Y0052950D01*
X0032601Y0052950D01*
X0033085Y0053434D01*
X0041147Y0052384D02*
X0044850Y0052384D01*
X0044850Y0051150D02*
X0044850Y0053619D01*
X0042381Y0051150D02*
X0041147Y0052384D01*
X0041764Y0049936D02*
X0041147Y0049318D01*
X0041147Y0048084D01*
X0041764Y0047467D01*
X0044233Y0047467D01*
X0044850Y0048084D01*
X0044850Y0049318D01*
X0044233Y0049936D01*
D13*
X0084500Y0076500D02*
X0097500Y0076500D01*
X0097587Y0076502D01*
X0097674Y0076508D01*
X0097761Y0076517D01*
X0097847Y0076530D01*
X0097933Y0076547D01*
X0098018Y0076568D01*
X0098101Y0076593D01*
X0098184Y0076621D01*
X0098265Y0076652D01*
X0098345Y0076687D01*
X0098423Y0076726D01*
X0098500Y0076768D01*
X0098575Y0076813D01*
X0098647Y0076862D01*
X0098718Y0076913D01*
X0098786Y0076968D01*
X0098851Y0077025D01*
X0098914Y0077086D01*
X0098975Y0077149D01*
X0099032Y0077214D01*
X0099087Y0077282D01*
X0099138Y0077353D01*
X0099187Y0077425D01*
X0099232Y0077500D01*
X0099274Y0077577D01*
X0099313Y0077655D01*
X0099348Y0077735D01*
X0099379Y0077816D01*
X0099407Y0077899D01*
X0099432Y0077982D01*
X0099453Y0078067D01*
X0099470Y0078153D01*
X0099483Y0078239D01*
X0099492Y0078326D01*
X0099498Y0078413D01*
X0099500Y0078500D01*
X0096000Y0081000D02*
X0092300Y0081000D01*
X0089800Y0081000D02*
X0086000Y0081000D01*
X0082500Y0078500D02*
X0082502Y0078413D01*
X0082508Y0078326D01*
X0082517Y0078239D01*
X0082530Y0078153D01*
X0082547Y0078067D01*
X0082568Y0077982D01*
X0082593Y0077899D01*
X0082621Y0077816D01*
X0082652Y0077735D01*
X0082687Y0077655D01*
X0082726Y0077577D01*
X0082768Y0077500D01*
X0082813Y0077425D01*
X0082862Y0077353D01*
X0082913Y0077282D01*
X0082968Y0077214D01*
X0083025Y0077149D01*
X0083086Y0077086D01*
X0083149Y0077025D01*
X0083214Y0076968D01*
X0083282Y0076913D01*
X0083353Y0076862D01*
X0083425Y0076813D01*
X0083500Y0076768D01*
X0083577Y0076726D01*
X0083655Y0076687D01*
X0083735Y0076652D01*
X0083816Y0076621D01*
X0083899Y0076593D01*
X0083982Y0076568D01*
X0084067Y0076547D01*
X0084153Y0076530D01*
X0084239Y0076517D01*
X0084326Y0076508D01*
X0084413Y0076502D01*
X0084500Y0076500D01*
X0082500Y0083500D02*
X0082502Y0083587D01*
X0082508Y0083674D01*
X0082517Y0083761D01*
X0082530Y0083847D01*
X0082547Y0083933D01*
X0082568Y0084018D01*
X0082593Y0084101D01*
X0082621Y0084184D01*
X0082652Y0084265D01*
X0082687Y0084345D01*
X0082726Y0084423D01*
X0082768Y0084500D01*
X0082813Y0084575D01*
X0082862Y0084647D01*
X0082913Y0084718D01*
X0082968Y0084786D01*
X0083025Y0084851D01*
X0083086Y0084914D01*
X0083149Y0084975D01*
X0083214Y0085032D01*
X0083282Y0085087D01*
X0083353Y0085138D01*
X0083425Y0085187D01*
X0083500Y0085232D01*
X0083577Y0085274D01*
X0083655Y0085313D01*
X0083735Y0085348D01*
X0083816Y0085379D01*
X0083899Y0085407D01*
X0083982Y0085432D01*
X0084067Y0085453D01*
X0084153Y0085470D01*
X0084239Y0085483D01*
X0084326Y0085492D01*
X0084413Y0085498D01*
X0084500Y0085500D01*
X0097500Y0085500D01*
X0097587Y0085498D01*
X0097674Y0085492D01*
X0097761Y0085483D01*
X0097847Y0085470D01*
X0097933Y0085453D01*
X0098018Y0085432D01*
X0098101Y0085407D01*
X0098184Y0085379D01*
X0098265Y0085348D01*
X0098345Y0085313D01*
X0098423Y0085274D01*
X0098500Y0085232D01*
X0098575Y0085187D01*
X0098647Y0085138D01*
X0098718Y0085087D01*
X0098786Y0085032D01*
X0098851Y0084975D01*
X0098914Y0084914D01*
X0098975Y0084851D01*
X0099032Y0084786D01*
X0099087Y0084718D01*
X0099138Y0084647D01*
X0099187Y0084575D01*
X0099232Y0084500D01*
X0099274Y0084423D01*
X0099313Y0084345D01*
X0099348Y0084265D01*
X0099379Y0084184D01*
X0099407Y0084101D01*
X0099432Y0084018D01*
X0099453Y0083933D01*
X0099470Y0083847D01*
X0099483Y0083761D01*
X0099492Y0083674D01*
X0099498Y0083587D01*
X0099500Y0083500D01*
X0111000Y0074000D02*
X0111000Y0068000D01*
X0111002Y0067940D01*
X0111007Y0067879D01*
X0111016Y0067820D01*
X0111029Y0067761D01*
X0111045Y0067702D01*
X0111065Y0067645D01*
X0111088Y0067590D01*
X0111115Y0067535D01*
X0111144Y0067483D01*
X0111177Y0067432D01*
X0111213Y0067383D01*
X0111251Y0067337D01*
X0111293Y0067293D01*
X0111337Y0067251D01*
X0111383Y0067213D01*
X0111432Y0067177D01*
X0111483Y0067144D01*
X0111535Y0067115D01*
X0111590Y0067088D01*
X0111645Y0067065D01*
X0111702Y0067045D01*
X0111761Y0067029D01*
X0111820Y0067016D01*
X0111879Y0067007D01*
X0111940Y0067002D01*
X0112000Y0067000D01*
X0113500Y0067000D01*
X0114000Y0067500D01*
X0128000Y0067500D01*
X0128500Y0067000D01*
X0130000Y0067000D01*
X0130060Y0067002D01*
X0130121Y0067007D01*
X0130180Y0067016D01*
X0130239Y0067029D01*
X0130298Y0067045D01*
X0130355Y0067065D01*
X0130410Y0067088D01*
X0130465Y0067115D01*
X0130517Y0067144D01*
X0130568Y0067177D01*
X0130617Y0067213D01*
X0130663Y0067251D01*
X0130707Y0067293D01*
X0130749Y0067337D01*
X0130787Y0067383D01*
X0130823Y0067432D01*
X0130856Y0067483D01*
X0130885Y0067535D01*
X0130912Y0067590D01*
X0130935Y0067645D01*
X0130955Y0067702D01*
X0130971Y0067761D01*
X0130984Y0067820D01*
X0130993Y0067879D01*
X0130998Y0067940D01*
X0131000Y0068000D01*
X0131000Y0074000D01*
X0130998Y0074060D01*
X0130993Y0074121D01*
X0130984Y0074180D01*
X0130971Y0074239D01*
X0130955Y0074298D01*
X0130935Y0074355D01*
X0130912Y0074410D01*
X0130885Y0074465D01*
X0130856Y0074517D01*
X0130823Y0074568D01*
X0130787Y0074617D01*
X0130749Y0074663D01*
X0130707Y0074707D01*
X0130663Y0074749D01*
X0130617Y0074787D01*
X0130568Y0074823D01*
X0130517Y0074856D01*
X0130465Y0074885D01*
X0130410Y0074912D01*
X0130355Y0074935D01*
X0130298Y0074955D01*
X0130239Y0074971D01*
X0130180Y0074984D01*
X0130121Y0074993D01*
X0130060Y0074998D01*
X0130000Y0075000D01*
X0128500Y0075000D01*
X0128000Y0074500D01*
X0114000Y0074500D01*
X0113500Y0075000D01*
X0112000Y0075000D01*
X0111940Y0074998D01*
X0111879Y0074993D01*
X0111820Y0074984D01*
X0111761Y0074971D01*
X0111702Y0074955D01*
X0111645Y0074935D01*
X0111590Y0074912D01*
X0111535Y0074885D01*
X0111483Y0074856D01*
X0111432Y0074823D01*
X0111383Y0074787D01*
X0111337Y0074749D01*
X0111293Y0074707D01*
X0111251Y0074663D01*
X0111213Y0074617D01*
X0111177Y0074568D01*
X0111144Y0074517D01*
X0111115Y0074465D01*
X0111088Y0074410D01*
X0111065Y0074355D01*
X0111045Y0074298D01*
X0111029Y0074239D01*
X0111016Y0074180D01*
X0111007Y0074121D01*
X0111002Y0074060D01*
X0111000Y0074000D01*
X0111002Y0074060D01*
X0111007Y0074121D01*
X0111016Y0074180D01*
X0111029Y0074239D01*
X0111045Y0074298D01*
X0111065Y0074355D01*
X0111088Y0074410D01*
X0111115Y0074465D01*
X0111144Y0074517D01*
X0111177Y0074568D01*
X0111213Y0074617D01*
X0111251Y0074663D01*
X0111293Y0074707D01*
X0111337Y0074749D01*
X0111383Y0074787D01*
X0111432Y0074823D01*
X0111483Y0074856D01*
X0111535Y0074885D01*
X0111590Y0074912D01*
X0111645Y0074935D01*
X0111702Y0074955D01*
X0111761Y0074971D01*
X0111820Y0074984D01*
X0111879Y0074993D01*
X0111940Y0074998D01*
X0112000Y0075000D01*
X0111000Y0068000D02*
X0111002Y0067940D01*
X0111007Y0067879D01*
X0111016Y0067820D01*
X0111029Y0067761D01*
X0111045Y0067702D01*
X0111065Y0067645D01*
X0111088Y0067590D01*
X0111115Y0067535D01*
X0111144Y0067483D01*
X0111177Y0067432D01*
X0111213Y0067383D01*
X0111251Y0067337D01*
X0111293Y0067293D01*
X0111337Y0067251D01*
X0111383Y0067213D01*
X0111432Y0067177D01*
X0111483Y0067144D01*
X0111535Y0067115D01*
X0111590Y0067088D01*
X0111645Y0067065D01*
X0111702Y0067045D01*
X0111761Y0067029D01*
X0111820Y0067016D01*
X0111879Y0067007D01*
X0111940Y0067002D01*
X0112000Y0067000D01*
X0130000Y0067000D02*
X0130060Y0067002D01*
X0130121Y0067007D01*
X0130180Y0067016D01*
X0130239Y0067029D01*
X0130298Y0067045D01*
X0130355Y0067065D01*
X0130410Y0067088D01*
X0130465Y0067115D01*
X0130517Y0067144D01*
X0130568Y0067177D01*
X0130617Y0067213D01*
X0130663Y0067251D01*
X0130707Y0067293D01*
X0130749Y0067337D01*
X0130787Y0067383D01*
X0130823Y0067432D01*
X0130856Y0067483D01*
X0130885Y0067535D01*
X0130912Y0067590D01*
X0130935Y0067645D01*
X0130955Y0067702D01*
X0130971Y0067761D01*
X0130984Y0067820D01*
X0130993Y0067879D01*
X0130998Y0067940D01*
X0131000Y0068000D01*
X0131000Y0074000D02*
X0130998Y0074060D01*
X0130993Y0074121D01*
X0130984Y0074180D01*
X0130971Y0074239D01*
X0130955Y0074298D01*
X0130935Y0074355D01*
X0130912Y0074410D01*
X0130885Y0074465D01*
X0130856Y0074517D01*
X0130823Y0074568D01*
X0130787Y0074617D01*
X0130749Y0074663D01*
X0130707Y0074707D01*
X0130663Y0074749D01*
X0130617Y0074787D01*
X0130568Y0074823D01*
X0130517Y0074856D01*
X0130465Y0074885D01*
X0130410Y0074912D01*
X0130355Y0074935D01*
X0130298Y0074955D01*
X0130239Y0074971D01*
X0130180Y0074984D01*
X0130121Y0074993D01*
X0130060Y0074998D01*
X0130000Y0075000D01*
D14*
X0131750Y0071000D03*
X0131750Y0071000D03*
X0110250Y0071000D03*
X0110250Y0071000D03*
D15*
X0123126Y0046921D02*
X0158874Y0046921D01*
X0158874Y0031433D01*
X0123126Y0031433D01*
X0123126Y0046921D01*
X0123126Y0034307D02*
X0158874Y0034307D01*
X0146886Y0031039D02*
X0146886Y0017024D01*
X0144917Y0015843D01*
X0137083Y0015843D01*
X0135114Y0017024D01*
X0135114Y0031039D01*
X0135508Y0028185D02*
X0146492Y0030252D01*
X0146492Y0028283D02*
X0135508Y0026217D01*
X0135508Y0024248D02*
X0146492Y0026315D01*
X0146492Y0024346D02*
X0135508Y0022280D01*
X0135508Y0020311D02*
X0146492Y0022378D01*
X0146492Y0020409D02*
X0135508Y0018343D01*
X0136394Y0016531D02*
X0146492Y0018598D01*
X0144917Y0015843D02*
X0144917Y0002063D01*
X0137083Y0002063D01*
X0137083Y0015843D01*
X0127457Y0023559D02*
X0127457Y0031039D01*
X0123126Y0031433D02*
X0123126Y0023559D01*
X0127457Y0023559D01*
D16*
X0098450Y0063550D02*
X0098450Y0064284D01*
X0098450Y0063917D02*
X0097349Y0063917D01*
X0097716Y0063550D01*
D17*
X0092300Y0078000D02*
X0092300Y0081000D01*
X0092300Y0084000D01*
X0089800Y0084000D02*
X0089800Y0081000D01*
X0089800Y0078000D01*
D18*
X0089606Y0086700D02*
X0088071Y0086700D01*
X0087304Y0087467D01*
X0085769Y0087467D02*
X0085002Y0086700D01*
X0083467Y0086700D01*
X0082700Y0087467D01*
X0082700Y0090537D01*
X0083467Y0091304D01*
X0085002Y0091304D01*
X0085769Y0090537D01*
X0087304Y0090537D02*
X0088071Y0091304D01*
X0089606Y0091304D01*
X0090373Y0090537D01*
X0090373Y0089769D01*
X0089606Y0089002D01*
X0090373Y0088235D01*
X0090373Y0087467D01*
X0089606Y0086700D01*
X0089606Y0089002D02*
X0088839Y0089002D01*
X0092517Y0108700D02*
X0092517Y0111102D01*
X0093718Y0112303D01*
X0094919Y0111102D01*
X0094919Y0108700D01*
X0096200Y0108700D02*
X0096200Y0112303D01*
X0098602Y0112303D01*
X0097401Y0110502D02*
X0096200Y0110502D01*
X0094919Y0110502D02*
X0092517Y0110502D01*
M02*
