%
M48
M72
T01C0.03150
T02C0.03200
T03C0.03543
T04C0.04331
%
T01
X8100Y6100
X9100Y6100
X10100Y6100
T02
X10100Y8100
X8100Y8100
T03
X2100Y4100
X1100Y5600
X2100Y8100
X1100Y10100
X9100Y10100
X10100Y10100
X14100Y10100
X15100Y10100
X14100Y7100
X10100Y7100
X13100Y4100
X14100Y4100
X15100Y4100
T04
X6100Y4100
X4100Y4100
X6100Y6100
X6100Y8100
X4100Y8100
X4100Y10100
M30
