G75*
%MOIN*%
%OFA0B0*%
%FSLAX25Y25*%
%IPPOS*%
%LPD*%
%AMOC8*
5,1,8,0,0,1.08239X$1,22.5*
%
%ADD10C,0.00200*%
%ADD11C,0.00500*%
%ADD12C,0.00300*%
%ADD13R,0.03000X0.00750*%
%ADD14R,0.04000X0.01000*%
%ADD15C,0.00600*%
%ADD16C,0.01200*%
%ADD17C,0.00400*%
%ADD18R,0.01000X0.04000*%
%ADD19C,0.01600*%
%ADD20C,0.02000*%
%ADD21R,0.01000X0.01500*%
D10*
X0016776Y0018052D02*
X0016042Y0018786D01*
X0018244Y0018786D01*
X0018244Y0018052D02*
X0018244Y0019520D01*
X0018244Y0020262D02*
X0016776Y0020262D01*
X0016776Y0021363D01*
X0017143Y0021730D01*
X0018244Y0021730D01*
X0018244Y0022472D02*
X0016042Y0022472D01*
X0016042Y0023939D01*
X0017143Y0023206D02*
X0017143Y0022472D01*
X0024842Y0022468D02*
X0024842Y0021734D01*
X0025209Y0021367D01*
X0025209Y0020625D02*
X0024842Y0020258D01*
X0024842Y0019524D01*
X0025209Y0019157D01*
X0026677Y0019157D01*
X0027044Y0019524D01*
X0027044Y0020258D01*
X0026677Y0020625D01*
X0026677Y0021367D02*
X0027044Y0021734D01*
X0027044Y0022468D01*
X0026677Y0022835D01*
X0026310Y0022835D01*
X0025943Y0022468D01*
X0025943Y0022101D01*
X0025943Y0022468D02*
X0025576Y0022835D01*
X0025209Y0022835D01*
X0024842Y0022468D01*
X0034892Y0022734D02*
X0035259Y0022367D01*
X0036727Y0022367D01*
X0037094Y0022734D01*
X0037094Y0023468D01*
X0036727Y0023835D01*
X0036727Y0024577D02*
X0035993Y0024577D01*
X0035993Y0025677D01*
X0036360Y0026044D01*
X0036727Y0026044D01*
X0037094Y0025677D01*
X0037094Y0024944D01*
X0036727Y0024577D01*
X0035993Y0024577D02*
X0035259Y0025310D01*
X0034892Y0026044D01*
X0035259Y0023835D02*
X0034892Y0023468D01*
X0034892Y0022734D01*
X0034892Y0019625D02*
X0034892Y0018157D01*
X0037094Y0018157D01*
X0037094Y0017415D02*
X0035993Y0017415D01*
X0035626Y0017048D01*
X0035626Y0015947D01*
X0037094Y0015947D01*
X0037094Y0015205D02*
X0037094Y0013737D01*
X0037094Y0014471D02*
X0034892Y0014471D01*
X0035626Y0013737D01*
X0035993Y0018157D02*
X0035993Y0018891D01*
X0049434Y0025367D02*
X0049434Y0027569D01*
X0050535Y0027569D01*
X0050902Y0027202D01*
X0050902Y0026468D01*
X0050535Y0026101D01*
X0049434Y0026101D01*
X0050168Y0026101D02*
X0050902Y0025367D01*
X0051644Y0025367D02*
X0053112Y0025367D01*
X0052378Y0025367D02*
X0052378Y0027569D01*
X0051644Y0026835D01*
X0055809Y0031367D02*
X0055442Y0031734D01*
X0055442Y0032468D01*
X0055809Y0032835D01*
X0056176Y0032835D01*
X0057644Y0031367D01*
X0057644Y0032835D01*
X0057644Y0033577D02*
X0056176Y0035044D01*
X0055809Y0035044D01*
X0055442Y0034677D01*
X0055442Y0033944D01*
X0055809Y0033577D01*
X0057644Y0033577D02*
X0057644Y0035044D01*
X0057644Y0035786D02*
X0057644Y0036887D01*
X0057277Y0037254D01*
X0056543Y0037254D01*
X0056176Y0036887D01*
X0056176Y0035786D01*
X0058378Y0035786D01*
X0057644Y0037996D02*
X0055442Y0037996D01*
X0055442Y0039464D01*
X0056543Y0038730D02*
X0056543Y0037996D01*
X0063242Y0033939D02*
X0063242Y0032472D01*
X0065444Y0032472D01*
X0065444Y0031730D02*
X0064343Y0031730D01*
X0063976Y0031363D01*
X0063976Y0030262D01*
X0065444Y0030262D01*
X0065444Y0029520D02*
X0065444Y0028052D01*
X0065444Y0028786D02*
X0063242Y0028786D01*
X0063976Y0028052D01*
X0064343Y0032472D02*
X0064343Y0033206D01*
X0065809Y0035447D02*
X0067277Y0035447D01*
X0067644Y0035814D01*
X0067644Y0036548D01*
X0067277Y0036915D01*
X0067644Y0037657D02*
X0066176Y0039125D01*
X0065809Y0039125D01*
X0065442Y0038758D01*
X0065442Y0038024D01*
X0065809Y0037657D01*
X0065809Y0036915D02*
X0065442Y0036548D01*
X0065442Y0035814D01*
X0065809Y0035447D01*
X0067644Y0037657D02*
X0067644Y0039125D01*
X0077642Y0032835D02*
X0078009Y0032835D01*
X0079477Y0031367D01*
X0079844Y0031367D01*
X0079477Y0030625D02*
X0079844Y0030258D01*
X0079844Y0029524D01*
X0079477Y0029157D01*
X0078009Y0029157D01*
X0077642Y0029524D01*
X0077642Y0030258D01*
X0078009Y0030625D01*
X0077642Y0031367D02*
X0077642Y0032835D01*
X0078285Y0028069D02*
X0077184Y0026968D01*
X0078652Y0026968D01*
X0078285Y0025867D02*
X0078285Y0028069D01*
X0076443Y0027702D02*
X0076443Y0026968D01*
X0076076Y0026601D01*
X0074975Y0026601D01*
X0075709Y0026601D02*
X0076443Y0025867D01*
X0074975Y0025867D02*
X0074975Y0028069D01*
X0076076Y0028069D01*
X0076443Y0027702D01*
X0076671Y0022369D02*
X0077405Y0022369D01*
X0077772Y0022002D01*
X0077772Y0021635D01*
X0077405Y0021268D01*
X0077772Y0020901D01*
X0077772Y0020534D01*
X0077405Y0020167D01*
X0076671Y0020167D01*
X0076304Y0020534D01*
X0077038Y0021268D02*
X0077405Y0021268D01*
X0076304Y0022002D02*
X0076671Y0022369D01*
X0078514Y0022002D02*
X0078881Y0022369D01*
X0079615Y0022369D01*
X0079982Y0022002D01*
X0079982Y0021635D01*
X0079615Y0021268D01*
X0079982Y0020901D01*
X0079982Y0020534D01*
X0079615Y0020167D01*
X0078881Y0020167D01*
X0078514Y0020534D01*
X0079248Y0021268D02*
X0079615Y0021268D01*
X0080724Y0020534D02*
X0080724Y0022002D01*
X0081091Y0022369D01*
X0081824Y0022369D01*
X0082191Y0022002D01*
X0080724Y0020534D01*
X0081091Y0020167D01*
X0081824Y0020167D01*
X0082191Y0020534D01*
X0082191Y0022002D01*
X0082933Y0022369D02*
X0082933Y0020167D01*
X0082933Y0020901D02*
X0084034Y0021635D01*
X0084775Y0022002D02*
X0085142Y0022369D01*
X0085876Y0022369D01*
X0086243Y0022002D01*
X0086243Y0021268D01*
X0085876Y0020901D01*
X0085876Y0020167D01*
X0086243Y0020167D01*
X0085142Y0020167D02*
X0085142Y0020901D01*
X0084775Y0021268D01*
X0084775Y0022002D01*
X0084775Y0020167D02*
X0085142Y0020167D01*
X0084034Y0020167D02*
X0082933Y0020901D01*
X0055322Y0005802D02*
X0055322Y0005068D01*
X0054955Y0004701D01*
X0054955Y0003967D01*
X0055322Y0003967D01*
X0054221Y0003967D02*
X0054221Y0004701D01*
X0053854Y0005068D01*
X0053854Y0005802D01*
X0054221Y0006169D01*
X0054955Y0006169D01*
X0055322Y0005802D01*
X0054221Y0003967D02*
X0053854Y0003967D01*
X0053112Y0004334D02*
X0052745Y0003967D01*
X0052011Y0003967D01*
X0051644Y0004334D01*
X0053112Y0005802D01*
X0053112Y0004334D01*
X0053112Y0005802D02*
X0052745Y0006169D01*
X0052011Y0006169D01*
X0051644Y0005802D01*
X0051644Y0004334D01*
X0050902Y0005802D02*
X0049434Y0004334D01*
X0049434Y0003967D01*
X0048326Y0003967D02*
X0048326Y0006169D01*
X0047225Y0005068D01*
X0048693Y0005068D01*
X0049434Y0006169D02*
X0050902Y0006169D01*
X0050902Y0005802D01*
X0024959Y0032967D02*
X0024959Y0035169D01*
X0026427Y0035169D01*
X0025693Y0034068D02*
X0024959Y0034068D01*
X0024217Y0034068D02*
X0024217Y0032967D01*
X0024217Y0034068D02*
X0023850Y0034435D01*
X0022749Y0034435D01*
X0022749Y0032967D01*
X0022007Y0033334D02*
X0021640Y0032967D01*
X0020906Y0032967D01*
X0020539Y0033334D01*
X0022007Y0034802D01*
X0022007Y0033334D01*
X0022007Y0034802D02*
X0021640Y0035169D01*
X0020906Y0035169D01*
X0020539Y0034802D01*
X0020539Y0033334D01*
X0019797Y0033334D02*
X0019430Y0032967D01*
X0018697Y0032967D01*
X0018330Y0033334D01*
X0017588Y0033334D02*
X0017221Y0032967D01*
X0016487Y0032967D01*
X0016120Y0033334D01*
X0016854Y0034068D02*
X0017221Y0034068D01*
X0017588Y0033701D01*
X0017588Y0033334D01*
X0017221Y0034068D02*
X0017588Y0034435D01*
X0017588Y0034802D01*
X0017221Y0035169D01*
X0016487Y0035169D01*
X0016120Y0034802D01*
X0018330Y0034802D02*
X0018697Y0035169D01*
X0019430Y0035169D01*
X0019797Y0034802D01*
X0019797Y0034435D01*
X0019430Y0034068D01*
X0019797Y0033701D01*
X0019797Y0033334D01*
X0019430Y0034068D02*
X0019063Y0034068D01*
X0019801Y0047367D02*
X0020535Y0047367D01*
X0020902Y0047734D01*
X0021644Y0048468D02*
X0023112Y0048468D01*
X0022745Y0047367D02*
X0022745Y0049569D01*
X0021644Y0048468D01*
X0020902Y0049202D02*
X0020535Y0049569D01*
X0019801Y0049569D01*
X0019434Y0049202D01*
X0019434Y0047734D01*
X0019801Y0047367D01*
X0019902Y0056467D02*
X0019535Y0056467D01*
X0019535Y0057201D01*
X0019902Y0057568D01*
X0019902Y0058302D01*
X0019535Y0058669D01*
X0018801Y0058669D01*
X0018434Y0058302D01*
X0018434Y0057568D01*
X0018801Y0057201D01*
X0018801Y0056467D01*
X0018434Y0056467D01*
X0017694Y0056467D02*
X0016593Y0057201D01*
X0017694Y0057935D01*
X0016593Y0058669D02*
X0016593Y0056467D01*
X0015851Y0058302D02*
X0014383Y0056834D01*
X0014383Y0056467D01*
X0013274Y0056467D02*
X0013274Y0058669D01*
X0012173Y0057568D01*
X0013641Y0057568D01*
X0014383Y0058669D02*
X0015851Y0058669D01*
X0015851Y0058302D01*
X0009902Y0058302D02*
X0009902Y0057568D01*
X0009535Y0057201D01*
X0009535Y0056467D01*
X0009902Y0056467D01*
X0008801Y0056467D02*
X0008801Y0057201D01*
X0008434Y0057568D01*
X0008434Y0058302D01*
X0008801Y0058669D01*
X0009535Y0058669D01*
X0009902Y0058302D01*
X0008801Y0056467D02*
X0008434Y0056467D01*
X0007694Y0056467D02*
X0006593Y0057201D01*
X0007694Y0057935D01*
X0006593Y0058669D02*
X0006593Y0056467D01*
X0005851Y0058302D02*
X0004383Y0056834D01*
X0004383Y0056467D01*
X0003645Y0056467D02*
X0003278Y0056467D01*
X0003278Y0056834D01*
X0003645Y0056834D01*
X0003645Y0056467D01*
X0002536Y0057568D02*
X0001068Y0057568D01*
X0002169Y0058669D01*
X0002169Y0056467D01*
X0004383Y0058669D02*
X0005851Y0058669D01*
X0005851Y0058302D01*
X0006225Y0073867D02*
X0006225Y0076069D01*
X0007326Y0076069D01*
X0007693Y0075702D01*
X0007693Y0074968D01*
X0007326Y0074601D01*
X0006225Y0074601D01*
X0006959Y0074601D02*
X0007693Y0073867D01*
X0008434Y0073867D02*
X0009902Y0075335D01*
X0009902Y0075702D01*
X0009535Y0076069D01*
X0008801Y0076069D01*
X0008434Y0075702D01*
X0008434Y0073867D02*
X0009902Y0073867D01*
X0016225Y0073867D02*
X0016225Y0076069D01*
X0017326Y0076069D01*
X0017693Y0075702D01*
X0017693Y0074968D01*
X0017326Y0074601D01*
X0016225Y0074601D01*
X0016959Y0074601D02*
X0017693Y0073867D01*
X0018434Y0074234D02*
X0018801Y0073867D01*
X0019535Y0073867D01*
X0019902Y0074234D01*
X0019902Y0074601D01*
X0019535Y0074968D01*
X0019168Y0074968D01*
X0019535Y0074968D02*
X0019902Y0075335D01*
X0019902Y0075702D01*
X0019535Y0076069D01*
X0018801Y0076069D01*
X0018434Y0075702D01*
X0077225Y0067085D02*
X0077225Y0065617D01*
X0077225Y0066718D02*
X0078692Y0066718D01*
X0078692Y0067085D02*
X0078692Y0065617D01*
X0079434Y0065617D02*
X0079434Y0067819D01*
X0080902Y0065617D01*
X0080902Y0067819D01*
X0081644Y0067819D02*
X0083112Y0067819D01*
X0082378Y0067819D02*
X0082378Y0065617D01*
X0083854Y0065617D02*
X0085322Y0065617D01*
X0084588Y0065617D02*
X0084588Y0067819D01*
X0083854Y0067085D01*
X0078692Y0067085D02*
X0077959Y0067819D01*
X0077225Y0067085D01*
X0084242Y0073314D02*
X0084609Y0072947D01*
X0086077Y0072947D01*
X0086444Y0073314D01*
X0086444Y0074048D01*
X0086077Y0074415D01*
X0086077Y0075157D02*
X0086444Y0075524D01*
X0086444Y0076258D01*
X0086077Y0076625D01*
X0085343Y0076625D01*
X0084976Y0076258D01*
X0084976Y0075891D01*
X0085343Y0075157D01*
X0084242Y0075157D01*
X0084242Y0076625D01*
X0084609Y0074415D02*
X0084242Y0074048D01*
X0084242Y0073314D01*
D11*
X0071544Y0075267D02*
X0071544Y0081267D01*
X0066544Y0080267D02*
X0066684Y0080265D01*
X0066824Y0080259D01*
X0066964Y0080249D01*
X0067104Y0080236D01*
X0067243Y0080218D01*
X0067382Y0080196D01*
X0067519Y0080171D01*
X0067657Y0080142D01*
X0067793Y0080109D01*
X0067928Y0080072D01*
X0068062Y0080031D01*
X0068195Y0079986D01*
X0068327Y0079938D01*
X0068457Y0079886D01*
X0068586Y0079831D01*
X0068713Y0079772D01*
X0068839Y0079709D01*
X0068963Y0079643D01*
X0069084Y0079574D01*
X0069204Y0079501D01*
X0069322Y0079424D01*
X0069437Y0079345D01*
X0069551Y0079262D01*
X0069661Y0079176D01*
X0069770Y0079087D01*
X0069876Y0078995D01*
X0069979Y0078900D01*
X0070080Y0078803D01*
X0070177Y0078702D01*
X0070272Y0078599D01*
X0070364Y0078493D01*
X0070453Y0078384D01*
X0070539Y0078274D01*
X0070622Y0078160D01*
X0070701Y0078045D01*
X0070778Y0077927D01*
X0070851Y0077807D01*
X0070920Y0077686D01*
X0070986Y0077562D01*
X0071049Y0077436D01*
X0071108Y0077309D01*
X0071163Y0077180D01*
X0071215Y0077050D01*
X0071263Y0076918D01*
X0071308Y0076785D01*
X0071349Y0076651D01*
X0071386Y0076516D01*
X0071419Y0076380D01*
X0071448Y0076242D01*
X0071473Y0076105D01*
X0071495Y0075966D01*
X0071513Y0075827D01*
X0071526Y0075687D01*
X0071536Y0075547D01*
X0071542Y0075407D01*
X0071544Y0075267D01*
X0066544Y0080267D02*
X0066404Y0080265D01*
X0066264Y0080259D01*
X0066124Y0080249D01*
X0065984Y0080236D01*
X0065845Y0080218D01*
X0065706Y0080196D01*
X0065569Y0080171D01*
X0065431Y0080142D01*
X0065295Y0080109D01*
X0065160Y0080072D01*
X0065026Y0080031D01*
X0064893Y0079986D01*
X0064761Y0079938D01*
X0064631Y0079886D01*
X0064502Y0079831D01*
X0064375Y0079772D01*
X0064249Y0079709D01*
X0064125Y0079643D01*
X0064004Y0079574D01*
X0063884Y0079501D01*
X0063766Y0079424D01*
X0063651Y0079345D01*
X0063537Y0079262D01*
X0063427Y0079176D01*
X0063318Y0079087D01*
X0063212Y0078995D01*
X0063109Y0078900D01*
X0063008Y0078803D01*
X0062911Y0078702D01*
X0062816Y0078599D01*
X0062724Y0078493D01*
X0062635Y0078384D01*
X0062549Y0078274D01*
X0062466Y0078160D01*
X0062387Y0078045D01*
X0062310Y0077927D01*
X0062237Y0077807D01*
X0062168Y0077686D01*
X0062102Y0077562D01*
X0062039Y0077436D01*
X0061980Y0077309D01*
X0061925Y0077180D01*
X0061873Y0077050D01*
X0061825Y0076918D01*
X0061780Y0076785D01*
X0061739Y0076651D01*
X0061702Y0076516D01*
X0061669Y0076380D01*
X0061640Y0076242D01*
X0061615Y0076105D01*
X0061593Y0075966D01*
X0061575Y0075827D01*
X0061562Y0075687D01*
X0061552Y0075547D01*
X0061546Y0075407D01*
X0061544Y0075267D01*
X0066544Y0077267D02*
X0066684Y0077265D01*
X0066824Y0077259D01*
X0066964Y0077249D01*
X0067104Y0077236D01*
X0067243Y0077218D01*
X0067382Y0077196D01*
X0067519Y0077171D01*
X0067657Y0077142D01*
X0067793Y0077109D01*
X0067928Y0077072D01*
X0068062Y0077031D01*
X0068195Y0076986D01*
X0068327Y0076938D01*
X0068457Y0076886D01*
X0068586Y0076831D01*
X0068713Y0076772D01*
X0068839Y0076709D01*
X0068963Y0076643D01*
X0069084Y0076574D01*
X0069204Y0076501D01*
X0069322Y0076424D01*
X0069437Y0076345D01*
X0069551Y0076262D01*
X0069661Y0076176D01*
X0069770Y0076087D01*
X0069876Y0075995D01*
X0069979Y0075900D01*
X0070080Y0075803D01*
X0070177Y0075702D01*
X0070272Y0075599D01*
X0070364Y0075493D01*
X0070453Y0075384D01*
X0070539Y0075274D01*
X0070622Y0075160D01*
X0070701Y0075045D01*
X0070778Y0074927D01*
X0070851Y0074807D01*
X0070920Y0074686D01*
X0070986Y0074562D01*
X0071049Y0074436D01*
X0071108Y0074309D01*
X0071163Y0074180D01*
X0071215Y0074050D01*
X0071263Y0073918D01*
X0071308Y0073785D01*
X0071349Y0073651D01*
X0071386Y0073516D01*
X0071419Y0073380D01*
X0071448Y0073242D01*
X0071473Y0073105D01*
X0071495Y0072966D01*
X0071513Y0072827D01*
X0071526Y0072687D01*
X0071536Y0072547D01*
X0071542Y0072407D01*
X0071544Y0072267D01*
X0066544Y0077267D02*
X0066404Y0077265D01*
X0066264Y0077259D01*
X0066124Y0077249D01*
X0065984Y0077236D01*
X0065845Y0077218D01*
X0065706Y0077196D01*
X0065569Y0077171D01*
X0065431Y0077142D01*
X0065295Y0077109D01*
X0065160Y0077072D01*
X0065026Y0077031D01*
X0064893Y0076986D01*
X0064761Y0076938D01*
X0064631Y0076886D01*
X0064502Y0076831D01*
X0064375Y0076772D01*
X0064249Y0076709D01*
X0064125Y0076643D01*
X0064004Y0076574D01*
X0063884Y0076501D01*
X0063766Y0076424D01*
X0063651Y0076345D01*
X0063537Y0076262D01*
X0063427Y0076176D01*
X0063318Y0076087D01*
X0063212Y0075995D01*
X0063109Y0075900D01*
X0063008Y0075803D01*
X0062911Y0075702D01*
X0062816Y0075599D01*
X0062724Y0075493D01*
X0062635Y0075384D01*
X0062549Y0075274D01*
X0062466Y0075160D01*
X0062387Y0075045D01*
X0062310Y0074927D01*
X0062237Y0074807D01*
X0062168Y0074686D01*
X0062102Y0074562D01*
X0062039Y0074436D01*
X0061980Y0074309D01*
X0061925Y0074180D01*
X0061873Y0074050D01*
X0061825Y0073918D01*
X0061780Y0073785D01*
X0061739Y0073651D01*
X0061702Y0073516D01*
X0061669Y0073380D01*
X0061640Y0073242D01*
X0061615Y0073105D01*
X0061593Y0072966D01*
X0061575Y0072827D01*
X0061562Y0072687D01*
X0061552Y0072547D01*
X0061546Y0072407D01*
X0061544Y0072267D01*
X0066544Y0074267D02*
X0066684Y0074265D01*
X0066824Y0074259D01*
X0066964Y0074249D01*
X0067104Y0074236D01*
X0067243Y0074218D01*
X0067382Y0074196D01*
X0067519Y0074171D01*
X0067657Y0074142D01*
X0067793Y0074109D01*
X0067928Y0074072D01*
X0068062Y0074031D01*
X0068195Y0073986D01*
X0068327Y0073938D01*
X0068457Y0073886D01*
X0068586Y0073831D01*
X0068713Y0073772D01*
X0068839Y0073709D01*
X0068963Y0073643D01*
X0069084Y0073574D01*
X0069204Y0073501D01*
X0069322Y0073424D01*
X0069437Y0073345D01*
X0069551Y0073262D01*
X0069661Y0073176D01*
X0069770Y0073087D01*
X0069876Y0072995D01*
X0069979Y0072900D01*
X0070080Y0072803D01*
X0070177Y0072702D01*
X0070272Y0072599D01*
X0070364Y0072493D01*
X0070453Y0072384D01*
X0070539Y0072274D01*
X0070622Y0072160D01*
X0070701Y0072045D01*
X0070778Y0071927D01*
X0070851Y0071807D01*
X0070920Y0071686D01*
X0070986Y0071562D01*
X0071049Y0071436D01*
X0071108Y0071309D01*
X0071163Y0071180D01*
X0071215Y0071050D01*
X0071263Y0070918D01*
X0071308Y0070785D01*
X0071349Y0070651D01*
X0071386Y0070516D01*
X0071419Y0070380D01*
X0071448Y0070242D01*
X0071473Y0070105D01*
X0071495Y0069966D01*
X0071513Y0069827D01*
X0071526Y0069687D01*
X0071536Y0069547D01*
X0071542Y0069407D01*
X0071544Y0069267D01*
X0066544Y0074267D02*
X0066404Y0074265D01*
X0066264Y0074259D01*
X0066124Y0074249D01*
X0065984Y0074236D01*
X0065845Y0074218D01*
X0065706Y0074196D01*
X0065569Y0074171D01*
X0065431Y0074142D01*
X0065295Y0074109D01*
X0065160Y0074072D01*
X0065026Y0074031D01*
X0064893Y0073986D01*
X0064761Y0073938D01*
X0064631Y0073886D01*
X0064502Y0073831D01*
X0064375Y0073772D01*
X0064249Y0073709D01*
X0064125Y0073643D01*
X0064004Y0073574D01*
X0063884Y0073501D01*
X0063766Y0073424D01*
X0063651Y0073345D01*
X0063537Y0073262D01*
X0063427Y0073176D01*
X0063318Y0073087D01*
X0063212Y0072995D01*
X0063109Y0072900D01*
X0063008Y0072803D01*
X0062911Y0072702D01*
X0062816Y0072599D01*
X0062724Y0072493D01*
X0062635Y0072384D01*
X0062549Y0072274D01*
X0062466Y0072160D01*
X0062387Y0072045D01*
X0062310Y0071927D01*
X0062237Y0071807D01*
X0062168Y0071686D01*
X0062102Y0071562D01*
X0062039Y0071436D01*
X0061980Y0071309D01*
X0061925Y0071180D01*
X0061873Y0071050D01*
X0061825Y0070918D01*
X0061780Y0070785D01*
X0061739Y0070651D01*
X0061702Y0070516D01*
X0061669Y0070380D01*
X0061640Y0070242D01*
X0061615Y0070105D01*
X0061593Y0069966D01*
X0061575Y0069827D01*
X0061562Y0069687D01*
X0061552Y0069547D01*
X0061546Y0069407D01*
X0061544Y0069267D01*
X0059139Y0064940D02*
X0055771Y0068308D01*
X0059139Y0064940D02*
X0059027Y0063464D01*
X0058914Y0061987D01*
X0057630Y0060704D01*
X0054284Y0064050D01*
X0055394Y0062805D02*
X0049987Y0057398D01*
X0048774Y0058541D02*
X0052121Y0055195D01*
X0050837Y0053911D01*
X0049367Y0053804D01*
X0047896Y0053697D01*
X0044687Y0056906D01*
X0047651Y0055987D02*
X0047653Y0056050D01*
X0047659Y0056112D01*
X0047669Y0056174D01*
X0047682Y0056236D01*
X0047700Y0056296D01*
X0047721Y0056355D01*
X0047746Y0056413D01*
X0047775Y0056469D01*
X0047807Y0056523D01*
X0047842Y0056575D01*
X0047880Y0056624D01*
X0047922Y0056672D01*
X0047966Y0056716D01*
X0048014Y0056758D01*
X0048063Y0056796D01*
X0048115Y0056831D01*
X0048169Y0056863D01*
X0048225Y0056892D01*
X0048283Y0056917D01*
X0048342Y0056938D01*
X0048402Y0056956D01*
X0048464Y0056969D01*
X0048526Y0056979D01*
X0048588Y0056985D01*
X0048651Y0056987D01*
X0048714Y0056985D01*
X0048776Y0056979D01*
X0048838Y0056969D01*
X0048900Y0056956D01*
X0048960Y0056938D01*
X0049019Y0056917D01*
X0049077Y0056892D01*
X0049133Y0056863D01*
X0049187Y0056831D01*
X0049239Y0056796D01*
X0049288Y0056758D01*
X0049336Y0056716D01*
X0049380Y0056672D01*
X0049422Y0056624D01*
X0049460Y0056575D01*
X0049495Y0056523D01*
X0049527Y0056469D01*
X0049556Y0056413D01*
X0049581Y0056355D01*
X0049602Y0056296D01*
X0049620Y0056236D01*
X0049633Y0056174D01*
X0049643Y0056112D01*
X0049649Y0056050D01*
X0049651Y0055987D01*
X0049649Y0055924D01*
X0049643Y0055862D01*
X0049633Y0055800D01*
X0049620Y0055738D01*
X0049602Y0055678D01*
X0049581Y0055619D01*
X0049556Y0055561D01*
X0049527Y0055505D01*
X0049495Y0055451D01*
X0049460Y0055399D01*
X0049422Y0055350D01*
X0049380Y0055302D01*
X0049336Y0055258D01*
X0049288Y0055216D01*
X0049239Y0055178D01*
X0049187Y0055143D01*
X0049133Y0055111D01*
X0049077Y0055082D01*
X0049019Y0055057D01*
X0048960Y0055036D01*
X0048900Y0055018D01*
X0048838Y0055005D01*
X0048776Y0054995D01*
X0048714Y0054989D01*
X0048651Y0054987D01*
X0048588Y0054989D01*
X0048526Y0054995D01*
X0048464Y0055005D01*
X0048402Y0055018D01*
X0048342Y0055036D01*
X0048283Y0055057D01*
X0048225Y0055082D01*
X0048169Y0055111D01*
X0048115Y0055143D01*
X0048063Y0055178D01*
X0048014Y0055216D01*
X0047966Y0055258D01*
X0047922Y0055302D01*
X0047880Y0055350D01*
X0047842Y0055399D01*
X0047807Y0055451D01*
X0047775Y0055505D01*
X0047746Y0055561D01*
X0047721Y0055619D01*
X0047700Y0055678D01*
X0047682Y0055738D01*
X0047669Y0055800D01*
X0047659Y0055862D01*
X0047653Y0055924D01*
X0047651Y0055987D01*
X0051485Y0055778D02*
X0054266Y0058559D01*
X0056797Y0061090D01*
X0055904Y0064185D02*
X0055906Y0064248D01*
X0055912Y0064310D01*
X0055922Y0064372D01*
X0055935Y0064434D01*
X0055953Y0064494D01*
X0055974Y0064553D01*
X0055999Y0064611D01*
X0056028Y0064667D01*
X0056060Y0064721D01*
X0056095Y0064773D01*
X0056133Y0064822D01*
X0056175Y0064870D01*
X0056219Y0064914D01*
X0056267Y0064956D01*
X0056316Y0064994D01*
X0056368Y0065029D01*
X0056422Y0065061D01*
X0056478Y0065090D01*
X0056536Y0065115D01*
X0056595Y0065136D01*
X0056655Y0065154D01*
X0056717Y0065167D01*
X0056779Y0065177D01*
X0056841Y0065183D01*
X0056904Y0065185D01*
X0056967Y0065183D01*
X0057029Y0065177D01*
X0057091Y0065167D01*
X0057153Y0065154D01*
X0057213Y0065136D01*
X0057272Y0065115D01*
X0057330Y0065090D01*
X0057386Y0065061D01*
X0057440Y0065029D01*
X0057492Y0064994D01*
X0057541Y0064956D01*
X0057589Y0064914D01*
X0057633Y0064870D01*
X0057675Y0064822D01*
X0057713Y0064773D01*
X0057748Y0064721D01*
X0057780Y0064667D01*
X0057809Y0064611D01*
X0057834Y0064553D01*
X0057855Y0064494D01*
X0057873Y0064434D01*
X0057886Y0064372D01*
X0057896Y0064310D01*
X0057902Y0064248D01*
X0057904Y0064185D01*
X0057902Y0064122D01*
X0057896Y0064060D01*
X0057886Y0063998D01*
X0057873Y0063936D01*
X0057855Y0063876D01*
X0057834Y0063817D01*
X0057809Y0063759D01*
X0057780Y0063703D01*
X0057748Y0063649D01*
X0057713Y0063597D01*
X0057675Y0063548D01*
X0057633Y0063500D01*
X0057589Y0063456D01*
X0057541Y0063414D01*
X0057492Y0063376D01*
X0057440Y0063341D01*
X0057386Y0063309D01*
X0057330Y0063280D01*
X0057272Y0063255D01*
X0057213Y0063234D01*
X0057153Y0063216D01*
X0057091Y0063203D01*
X0057029Y0063193D01*
X0056967Y0063187D01*
X0056904Y0063185D01*
X0056841Y0063187D01*
X0056779Y0063193D01*
X0056717Y0063203D01*
X0056655Y0063216D01*
X0056595Y0063234D01*
X0056536Y0063255D01*
X0056478Y0063280D01*
X0056422Y0063309D01*
X0056368Y0063341D01*
X0056316Y0063376D01*
X0056267Y0063414D01*
X0056219Y0063456D01*
X0056175Y0063500D01*
X0056133Y0063548D01*
X0056095Y0063597D01*
X0056060Y0063649D01*
X0056028Y0063703D01*
X0055999Y0063759D01*
X0055974Y0063817D01*
X0055953Y0063876D01*
X0055935Y0063936D01*
X0055922Y0063998D01*
X0055912Y0064060D01*
X0055906Y0064122D01*
X0055904Y0064185D01*
X0061544Y0057267D02*
X0061544Y0051267D01*
X0066544Y0052267D02*
X0066684Y0052269D01*
X0066824Y0052275D01*
X0066964Y0052285D01*
X0067104Y0052298D01*
X0067243Y0052316D01*
X0067382Y0052338D01*
X0067519Y0052363D01*
X0067657Y0052392D01*
X0067793Y0052425D01*
X0067928Y0052462D01*
X0068062Y0052503D01*
X0068195Y0052548D01*
X0068327Y0052596D01*
X0068457Y0052648D01*
X0068586Y0052703D01*
X0068713Y0052762D01*
X0068839Y0052825D01*
X0068963Y0052891D01*
X0069084Y0052960D01*
X0069204Y0053033D01*
X0069322Y0053110D01*
X0069437Y0053189D01*
X0069551Y0053272D01*
X0069661Y0053358D01*
X0069770Y0053447D01*
X0069876Y0053539D01*
X0069979Y0053634D01*
X0070080Y0053731D01*
X0070177Y0053832D01*
X0070272Y0053935D01*
X0070364Y0054041D01*
X0070453Y0054150D01*
X0070539Y0054260D01*
X0070622Y0054374D01*
X0070701Y0054489D01*
X0070778Y0054607D01*
X0070851Y0054727D01*
X0070920Y0054848D01*
X0070986Y0054972D01*
X0071049Y0055098D01*
X0071108Y0055225D01*
X0071163Y0055354D01*
X0071215Y0055484D01*
X0071263Y0055616D01*
X0071308Y0055749D01*
X0071349Y0055883D01*
X0071386Y0056018D01*
X0071419Y0056154D01*
X0071448Y0056292D01*
X0071473Y0056429D01*
X0071495Y0056568D01*
X0071513Y0056707D01*
X0071526Y0056847D01*
X0071536Y0056987D01*
X0071542Y0057127D01*
X0071544Y0057267D01*
X0071542Y0057407D01*
X0071536Y0057547D01*
X0071526Y0057687D01*
X0071513Y0057827D01*
X0071495Y0057966D01*
X0071473Y0058105D01*
X0071448Y0058242D01*
X0071419Y0058380D01*
X0071386Y0058516D01*
X0071349Y0058651D01*
X0071308Y0058785D01*
X0071263Y0058918D01*
X0071215Y0059050D01*
X0071163Y0059180D01*
X0071108Y0059309D01*
X0071049Y0059436D01*
X0070986Y0059562D01*
X0070920Y0059686D01*
X0070851Y0059807D01*
X0070778Y0059927D01*
X0070701Y0060045D01*
X0070622Y0060160D01*
X0070539Y0060274D01*
X0070453Y0060384D01*
X0070364Y0060493D01*
X0070272Y0060599D01*
X0070177Y0060702D01*
X0070080Y0060803D01*
X0069979Y0060900D01*
X0069876Y0060995D01*
X0069770Y0061087D01*
X0069661Y0061176D01*
X0069551Y0061262D01*
X0069437Y0061345D01*
X0069322Y0061424D01*
X0069204Y0061501D01*
X0069084Y0061574D01*
X0068963Y0061643D01*
X0068839Y0061709D01*
X0068713Y0061772D01*
X0068586Y0061831D01*
X0068457Y0061886D01*
X0068327Y0061938D01*
X0068195Y0061986D01*
X0068062Y0062031D01*
X0067928Y0062072D01*
X0067793Y0062109D01*
X0067657Y0062142D01*
X0067519Y0062171D01*
X0067382Y0062196D01*
X0067243Y0062218D01*
X0067104Y0062236D01*
X0066964Y0062249D01*
X0066824Y0062259D01*
X0066684Y0062265D01*
X0066544Y0062267D01*
X0071544Y0063267D02*
X0071542Y0063407D01*
X0071536Y0063547D01*
X0071526Y0063687D01*
X0071513Y0063827D01*
X0071495Y0063966D01*
X0071473Y0064105D01*
X0071448Y0064242D01*
X0071419Y0064380D01*
X0071386Y0064516D01*
X0071349Y0064651D01*
X0071308Y0064785D01*
X0071263Y0064918D01*
X0071215Y0065050D01*
X0071163Y0065180D01*
X0071108Y0065309D01*
X0071049Y0065436D01*
X0070986Y0065562D01*
X0070920Y0065686D01*
X0070851Y0065807D01*
X0070778Y0065927D01*
X0070701Y0066045D01*
X0070622Y0066160D01*
X0070539Y0066274D01*
X0070453Y0066384D01*
X0070364Y0066493D01*
X0070272Y0066599D01*
X0070177Y0066702D01*
X0070080Y0066803D01*
X0069979Y0066900D01*
X0069876Y0066995D01*
X0069770Y0067087D01*
X0069661Y0067176D01*
X0069551Y0067262D01*
X0069437Y0067345D01*
X0069322Y0067424D01*
X0069204Y0067501D01*
X0069084Y0067574D01*
X0068963Y0067643D01*
X0068839Y0067709D01*
X0068713Y0067772D01*
X0068586Y0067831D01*
X0068457Y0067886D01*
X0068327Y0067938D01*
X0068195Y0067986D01*
X0068062Y0068031D01*
X0067928Y0068072D01*
X0067793Y0068109D01*
X0067657Y0068142D01*
X0067519Y0068171D01*
X0067382Y0068196D01*
X0067243Y0068218D01*
X0067104Y0068236D01*
X0066964Y0068249D01*
X0066824Y0068259D01*
X0066684Y0068265D01*
X0066544Y0068267D01*
X0066544Y0071267D02*
X0066684Y0071265D01*
X0066824Y0071259D01*
X0066964Y0071249D01*
X0067104Y0071236D01*
X0067243Y0071218D01*
X0067382Y0071196D01*
X0067519Y0071171D01*
X0067657Y0071142D01*
X0067793Y0071109D01*
X0067928Y0071072D01*
X0068062Y0071031D01*
X0068195Y0070986D01*
X0068327Y0070938D01*
X0068457Y0070886D01*
X0068586Y0070831D01*
X0068713Y0070772D01*
X0068839Y0070709D01*
X0068963Y0070643D01*
X0069084Y0070574D01*
X0069204Y0070501D01*
X0069322Y0070424D01*
X0069437Y0070345D01*
X0069551Y0070262D01*
X0069661Y0070176D01*
X0069770Y0070087D01*
X0069876Y0069995D01*
X0069979Y0069900D01*
X0070080Y0069803D01*
X0070177Y0069702D01*
X0070272Y0069599D01*
X0070364Y0069493D01*
X0070453Y0069384D01*
X0070539Y0069274D01*
X0070622Y0069160D01*
X0070701Y0069045D01*
X0070778Y0068927D01*
X0070851Y0068807D01*
X0070920Y0068686D01*
X0070986Y0068562D01*
X0071049Y0068436D01*
X0071108Y0068309D01*
X0071163Y0068180D01*
X0071215Y0068050D01*
X0071263Y0067918D01*
X0071308Y0067785D01*
X0071349Y0067651D01*
X0071386Y0067516D01*
X0071419Y0067380D01*
X0071448Y0067242D01*
X0071473Y0067105D01*
X0071495Y0066966D01*
X0071513Y0066827D01*
X0071526Y0066687D01*
X0071536Y0066547D01*
X0071542Y0066407D01*
X0071544Y0066267D01*
X0066544Y0071267D02*
X0066404Y0071265D01*
X0066264Y0071259D01*
X0066124Y0071249D01*
X0065984Y0071236D01*
X0065845Y0071218D01*
X0065706Y0071196D01*
X0065569Y0071171D01*
X0065431Y0071142D01*
X0065295Y0071109D01*
X0065160Y0071072D01*
X0065026Y0071031D01*
X0064893Y0070986D01*
X0064761Y0070938D01*
X0064631Y0070886D01*
X0064502Y0070831D01*
X0064375Y0070772D01*
X0064249Y0070709D01*
X0064125Y0070643D01*
X0064004Y0070574D01*
X0063884Y0070501D01*
X0063766Y0070424D01*
X0063651Y0070345D01*
X0063537Y0070262D01*
X0063427Y0070176D01*
X0063318Y0070087D01*
X0063212Y0069995D01*
X0063109Y0069900D01*
X0063008Y0069803D01*
X0062911Y0069702D01*
X0062816Y0069599D01*
X0062724Y0069493D01*
X0062635Y0069384D01*
X0062549Y0069274D01*
X0062466Y0069160D01*
X0062387Y0069045D01*
X0062310Y0068927D01*
X0062237Y0068807D01*
X0062168Y0068686D01*
X0062102Y0068562D01*
X0062039Y0068436D01*
X0061980Y0068309D01*
X0061925Y0068180D01*
X0061873Y0068050D01*
X0061825Y0067918D01*
X0061780Y0067785D01*
X0061739Y0067651D01*
X0061702Y0067516D01*
X0061669Y0067380D01*
X0061640Y0067242D01*
X0061615Y0067105D01*
X0061593Y0066966D01*
X0061575Y0066827D01*
X0061562Y0066687D01*
X0061552Y0066547D01*
X0061546Y0066407D01*
X0061544Y0066267D01*
X0061544Y0063267D02*
X0061546Y0063407D01*
X0061552Y0063547D01*
X0061562Y0063687D01*
X0061575Y0063827D01*
X0061593Y0063966D01*
X0061615Y0064105D01*
X0061640Y0064242D01*
X0061669Y0064380D01*
X0061702Y0064516D01*
X0061739Y0064651D01*
X0061780Y0064785D01*
X0061825Y0064918D01*
X0061873Y0065050D01*
X0061925Y0065180D01*
X0061980Y0065309D01*
X0062039Y0065436D01*
X0062102Y0065562D01*
X0062168Y0065686D01*
X0062237Y0065807D01*
X0062310Y0065927D01*
X0062387Y0066045D01*
X0062466Y0066160D01*
X0062549Y0066274D01*
X0062635Y0066384D01*
X0062724Y0066493D01*
X0062816Y0066599D01*
X0062911Y0066702D01*
X0063008Y0066803D01*
X0063109Y0066900D01*
X0063212Y0066995D01*
X0063318Y0067087D01*
X0063427Y0067176D01*
X0063537Y0067262D01*
X0063651Y0067345D01*
X0063766Y0067424D01*
X0063884Y0067501D01*
X0064004Y0067574D01*
X0064125Y0067643D01*
X0064249Y0067709D01*
X0064375Y0067772D01*
X0064502Y0067831D01*
X0064631Y0067886D01*
X0064761Y0067938D01*
X0064893Y0067986D01*
X0065026Y0068031D01*
X0065160Y0068072D01*
X0065295Y0068109D01*
X0065431Y0068142D01*
X0065569Y0068171D01*
X0065706Y0068196D01*
X0065845Y0068218D01*
X0065984Y0068236D01*
X0066124Y0068249D01*
X0066264Y0068259D01*
X0066404Y0068265D01*
X0066544Y0068267D01*
X0066544Y0065267D02*
X0066684Y0065265D01*
X0066824Y0065259D01*
X0066964Y0065249D01*
X0067104Y0065236D01*
X0067243Y0065218D01*
X0067382Y0065196D01*
X0067519Y0065171D01*
X0067657Y0065142D01*
X0067793Y0065109D01*
X0067928Y0065072D01*
X0068062Y0065031D01*
X0068195Y0064986D01*
X0068327Y0064938D01*
X0068457Y0064886D01*
X0068586Y0064831D01*
X0068713Y0064772D01*
X0068839Y0064709D01*
X0068963Y0064643D01*
X0069084Y0064574D01*
X0069204Y0064501D01*
X0069322Y0064424D01*
X0069437Y0064345D01*
X0069551Y0064262D01*
X0069661Y0064176D01*
X0069770Y0064087D01*
X0069876Y0063995D01*
X0069979Y0063900D01*
X0070080Y0063803D01*
X0070177Y0063702D01*
X0070272Y0063599D01*
X0070364Y0063493D01*
X0070453Y0063384D01*
X0070539Y0063274D01*
X0070622Y0063160D01*
X0070701Y0063045D01*
X0070778Y0062927D01*
X0070851Y0062807D01*
X0070920Y0062686D01*
X0070986Y0062562D01*
X0071049Y0062436D01*
X0071108Y0062309D01*
X0071163Y0062180D01*
X0071215Y0062050D01*
X0071263Y0061918D01*
X0071308Y0061785D01*
X0071349Y0061651D01*
X0071386Y0061516D01*
X0071419Y0061380D01*
X0071448Y0061242D01*
X0071473Y0061105D01*
X0071495Y0060966D01*
X0071513Y0060827D01*
X0071526Y0060687D01*
X0071536Y0060547D01*
X0071542Y0060407D01*
X0071544Y0060267D01*
X0066544Y0065267D02*
X0066404Y0065265D01*
X0066264Y0065259D01*
X0066124Y0065249D01*
X0065984Y0065236D01*
X0065845Y0065218D01*
X0065706Y0065196D01*
X0065569Y0065171D01*
X0065431Y0065142D01*
X0065295Y0065109D01*
X0065160Y0065072D01*
X0065026Y0065031D01*
X0064893Y0064986D01*
X0064761Y0064938D01*
X0064631Y0064886D01*
X0064502Y0064831D01*
X0064375Y0064772D01*
X0064249Y0064709D01*
X0064125Y0064643D01*
X0064004Y0064574D01*
X0063884Y0064501D01*
X0063766Y0064424D01*
X0063651Y0064345D01*
X0063537Y0064262D01*
X0063427Y0064176D01*
X0063318Y0064087D01*
X0063212Y0063995D01*
X0063109Y0063900D01*
X0063008Y0063803D01*
X0062911Y0063702D01*
X0062816Y0063599D01*
X0062724Y0063493D01*
X0062635Y0063384D01*
X0062549Y0063274D01*
X0062466Y0063160D01*
X0062387Y0063045D01*
X0062310Y0062927D01*
X0062237Y0062807D01*
X0062168Y0062686D01*
X0062102Y0062562D01*
X0062039Y0062436D01*
X0061980Y0062309D01*
X0061925Y0062180D01*
X0061873Y0062050D01*
X0061825Y0061918D01*
X0061780Y0061785D01*
X0061739Y0061651D01*
X0061702Y0061516D01*
X0061669Y0061380D01*
X0061640Y0061242D01*
X0061615Y0061105D01*
X0061593Y0060966D01*
X0061575Y0060827D01*
X0061562Y0060687D01*
X0061552Y0060547D01*
X0061546Y0060407D01*
X0061544Y0060267D01*
X0061544Y0057267D02*
X0061546Y0057407D01*
X0061552Y0057547D01*
X0061562Y0057687D01*
X0061575Y0057827D01*
X0061593Y0057966D01*
X0061615Y0058105D01*
X0061640Y0058242D01*
X0061669Y0058380D01*
X0061702Y0058516D01*
X0061739Y0058651D01*
X0061780Y0058785D01*
X0061825Y0058918D01*
X0061873Y0059050D01*
X0061925Y0059180D01*
X0061980Y0059309D01*
X0062039Y0059436D01*
X0062102Y0059562D01*
X0062168Y0059686D01*
X0062237Y0059807D01*
X0062310Y0059927D01*
X0062387Y0060045D01*
X0062466Y0060160D01*
X0062549Y0060274D01*
X0062635Y0060384D01*
X0062724Y0060493D01*
X0062816Y0060599D01*
X0062911Y0060702D01*
X0063008Y0060803D01*
X0063109Y0060900D01*
X0063212Y0060995D01*
X0063318Y0061087D01*
X0063427Y0061176D01*
X0063537Y0061262D01*
X0063651Y0061345D01*
X0063766Y0061424D01*
X0063884Y0061501D01*
X0064004Y0061574D01*
X0064125Y0061643D01*
X0064249Y0061709D01*
X0064375Y0061772D01*
X0064502Y0061831D01*
X0064631Y0061886D01*
X0064761Y0061938D01*
X0064893Y0061986D01*
X0065026Y0062031D01*
X0065160Y0062072D01*
X0065295Y0062109D01*
X0065431Y0062142D01*
X0065569Y0062171D01*
X0065706Y0062196D01*
X0065845Y0062218D01*
X0065984Y0062236D01*
X0066124Y0062249D01*
X0066264Y0062259D01*
X0066404Y0062265D01*
X0066544Y0062267D01*
X0045553Y0073764D02*
X0039045Y0067255D01*
X0037441Y0068859D02*
X0043949Y0075368D01*
X0028209Y0071267D02*
X0028213Y0071594D01*
X0028225Y0071921D01*
X0028245Y0072248D01*
X0028273Y0072574D01*
X0028309Y0072899D01*
X0028353Y0073224D01*
X0028405Y0073547D01*
X0028465Y0073869D01*
X0028533Y0074189D01*
X0028609Y0074507D01*
X0028692Y0074824D01*
X0028783Y0075138D01*
X0028882Y0075450D01*
X0028989Y0075759D01*
X0029103Y0076066D01*
X0029224Y0076370D01*
X0029353Y0076671D01*
X0029489Y0076968D01*
X0029633Y0077263D01*
X0029784Y0077553D01*
X0029941Y0077840D01*
X0030106Y0078123D01*
X0030278Y0078401D01*
X0030456Y0078676D01*
X0030642Y0078945D01*
X0030833Y0079211D01*
X0031031Y0079471D01*
X0031236Y0079727D01*
X0031447Y0079977D01*
X0031663Y0080222D01*
X0031886Y0080462D01*
X0032115Y0080696D01*
X0032349Y0080925D01*
X0032589Y0081148D01*
X0032834Y0081364D01*
X0033084Y0081575D01*
X0033340Y0081780D01*
X0033600Y0081978D01*
X0033866Y0082169D01*
X0034135Y0082355D01*
X0034410Y0082533D01*
X0034688Y0082705D01*
X0034971Y0082870D01*
X0035258Y0083027D01*
X0035548Y0083178D01*
X0035843Y0083322D01*
X0036140Y0083458D01*
X0036441Y0083587D01*
X0036745Y0083708D01*
X0037052Y0083822D01*
X0037361Y0083929D01*
X0037673Y0084028D01*
X0037987Y0084119D01*
X0038304Y0084202D01*
X0038622Y0084278D01*
X0038942Y0084346D01*
X0039264Y0084406D01*
X0039587Y0084458D01*
X0039912Y0084502D01*
X0040237Y0084538D01*
X0040563Y0084566D01*
X0040890Y0084586D01*
X0041217Y0084598D01*
X0041544Y0084602D01*
X0041871Y0084598D01*
X0042198Y0084586D01*
X0042525Y0084566D01*
X0042851Y0084538D01*
X0043176Y0084502D01*
X0043501Y0084458D01*
X0043824Y0084406D01*
X0044146Y0084346D01*
X0044466Y0084278D01*
X0044784Y0084202D01*
X0045101Y0084119D01*
X0045415Y0084028D01*
X0045727Y0083929D01*
X0046036Y0083822D01*
X0046343Y0083708D01*
X0046647Y0083587D01*
X0046948Y0083458D01*
X0047245Y0083322D01*
X0047540Y0083178D01*
X0047830Y0083027D01*
X0048117Y0082870D01*
X0048400Y0082705D01*
X0048678Y0082533D01*
X0048953Y0082355D01*
X0049222Y0082169D01*
X0049488Y0081978D01*
X0049748Y0081780D01*
X0050004Y0081575D01*
X0050254Y0081364D01*
X0050499Y0081148D01*
X0050739Y0080925D01*
X0050973Y0080696D01*
X0051202Y0080462D01*
X0051425Y0080222D01*
X0051641Y0079977D01*
X0051852Y0079727D01*
X0052057Y0079471D01*
X0052255Y0079211D01*
X0052446Y0078945D01*
X0052632Y0078676D01*
X0052810Y0078401D01*
X0052982Y0078123D01*
X0053147Y0077840D01*
X0053304Y0077553D01*
X0053455Y0077263D01*
X0053599Y0076968D01*
X0053735Y0076671D01*
X0053864Y0076370D01*
X0053985Y0076066D01*
X0054099Y0075759D01*
X0054206Y0075450D01*
X0054305Y0075138D01*
X0054396Y0074824D01*
X0054479Y0074507D01*
X0054555Y0074189D01*
X0054623Y0073869D01*
X0054683Y0073547D01*
X0054735Y0073224D01*
X0054779Y0072899D01*
X0054815Y0072574D01*
X0054843Y0072248D01*
X0054863Y0071921D01*
X0054875Y0071594D01*
X0054879Y0071267D01*
X0054875Y0070940D01*
X0054863Y0070613D01*
X0054843Y0070286D01*
X0054815Y0069960D01*
X0054779Y0069635D01*
X0054735Y0069310D01*
X0054683Y0068987D01*
X0054623Y0068665D01*
X0054555Y0068345D01*
X0054479Y0068027D01*
X0054396Y0067710D01*
X0054305Y0067396D01*
X0054206Y0067084D01*
X0054099Y0066775D01*
X0053985Y0066468D01*
X0053864Y0066164D01*
X0053735Y0065863D01*
X0053599Y0065566D01*
X0053455Y0065271D01*
X0053304Y0064981D01*
X0053147Y0064694D01*
X0052982Y0064411D01*
X0052810Y0064133D01*
X0052632Y0063858D01*
X0052446Y0063589D01*
X0052255Y0063323D01*
X0052057Y0063063D01*
X0051852Y0062807D01*
X0051641Y0062557D01*
X0051425Y0062312D01*
X0051202Y0062072D01*
X0050973Y0061838D01*
X0050739Y0061609D01*
X0050499Y0061386D01*
X0050254Y0061170D01*
X0050004Y0060959D01*
X0049748Y0060754D01*
X0049488Y0060556D01*
X0049222Y0060365D01*
X0048953Y0060179D01*
X0048678Y0060001D01*
X0048400Y0059829D01*
X0048117Y0059664D01*
X0047830Y0059507D01*
X0047540Y0059356D01*
X0047245Y0059212D01*
X0046948Y0059076D01*
X0046647Y0058947D01*
X0046343Y0058826D01*
X0046036Y0058712D01*
X0045727Y0058605D01*
X0045415Y0058506D01*
X0045101Y0058415D01*
X0044784Y0058332D01*
X0044466Y0058256D01*
X0044146Y0058188D01*
X0043824Y0058128D01*
X0043501Y0058076D01*
X0043176Y0058032D01*
X0042851Y0057996D01*
X0042525Y0057968D01*
X0042198Y0057948D01*
X0041871Y0057936D01*
X0041544Y0057932D01*
X0041217Y0057936D01*
X0040890Y0057948D01*
X0040563Y0057968D01*
X0040237Y0057996D01*
X0039912Y0058032D01*
X0039587Y0058076D01*
X0039264Y0058128D01*
X0038942Y0058188D01*
X0038622Y0058256D01*
X0038304Y0058332D01*
X0037987Y0058415D01*
X0037673Y0058506D01*
X0037361Y0058605D01*
X0037052Y0058712D01*
X0036745Y0058826D01*
X0036441Y0058947D01*
X0036140Y0059076D01*
X0035843Y0059212D01*
X0035548Y0059356D01*
X0035258Y0059507D01*
X0034971Y0059664D01*
X0034688Y0059829D01*
X0034410Y0060001D01*
X0034135Y0060179D01*
X0033866Y0060365D01*
X0033600Y0060556D01*
X0033340Y0060754D01*
X0033084Y0060959D01*
X0032834Y0061170D01*
X0032589Y0061386D01*
X0032349Y0061609D01*
X0032115Y0061838D01*
X0031886Y0062072D01*
X0031663Y0062312D01*
X0031447Y0062557D01*
X0031236Y0062807D01*
X0031031Y0063063D01*
X0030833Y0063323D01*
X0030642Y0063589D01*
X0030456Y0063858D01*
X0030278Y0064133D01*
X0030106Y0064411D01*
X0029941Y0064694D01*
X0029784Y0064981D01*
X0029633Y0065271D01*
X0029489Y0065566D01*
X0029353Y0065863D01*
X0029224Y0066164D01*
X0029103Y0066468D01*
X0028989Y0066775D01*
X0028882Y0067084D01*
X0028783Y0067396D01*
X0028692Y0067710D01*
X0028609Y0068027D01*
X0028533Y0068345D01*
X0028465Y0068665D01*
X0028405Y0068987D01*
X0028353Y0069310D01*
X0028309Y0069635D01*
X0028273Y0069960D01*
X0028245Y0070286D01*
X0028225Y0070613D01*
X0028213Y0070940D01*
X0028209Y0071267D01*
X0027100Y0071267D02*
X0027104Y0071621D01*
X0027117Y0071976D01*
X0027139Y0072330D01*
X0027170Y0072683D01*
X0027209Y0073035D01*
X0027256Y0073386D01*
X0027313Y0073736D01*
X0027378Y0074085D01*
X0027451Y0074432D01*
X0027533Y0074777D01*
X0027623Y0075119D01*
X0027722Y0075460D01*
X0027829Y0075798D01*
X0027944Y0076133D01*
X0028068Y0076465D01*
X0028199Y0076794D01*
X0028339Y0077120D01*
X0028487Y0077443D01*
X0028642Y0077761D01*
X0028806Y0078076D01*
X0028976Y0078386D01*
X0029155Y0078693D01*
X0029341Y0078995D01*
X0029534Y0079292D01*
X0029735Y0079584D01*
X0029942Y0079871D01*
X0030157Y0080153D01*
X0030379Y0080430D01*
X0030607Y0080701D01*
X0030842Y0080967D01*
X0031083Y0081227D01*
X0031331Y0081480D01*
X0031584Y0081728D01*
X0031844Y0081969D01*
X0032110Y0082204D01*
X0032381Y0082432D01*
X0032658Y0082654D01*
X0032940Y0082869D01*
X0033227Y0083076D01*
X0033519Y0083277D01*
X0033816Y0083470D01*
X0034118Y0083656D01*
X0034425Y0083835D01*
X0034735Y0084005D01*
X0035050Y0084169D01*
X0035368Y0084324D01*
X0035691Y0084472D01*
X0036017Y0084612D01*
X0036346Y0084743D01*
X0036678Y0084867D01*
X0037013Y0084982D01*
X0037351Y0085089D01*
X0037692Y0085188D01*
X0038034Y0085278D01*
X0038379Y0085360D01*
X0038726Y0085433D01*
X0039075Y0085498D01*
X0039425Y0085555D01*
X0039776Y0085602D01*
X0040128Y0085641D01*
X0040481Y0085672D01*
X0040835Y0085694D01*
X0041190Y0085707D01*
X0041544Y0085711D01*
X0041898Y0085707D01*
X0042253Y0085694D01*
X0042607Y0085672D01*
X0042960Y0085641D01*
X0043312Y0085602D01*
X0043663Y0085555D01*
X0044013Y0085498D01*
X0044362Y0085433D01*
X0044709Y0085360D01*
X0045054Y0085278D01*
X0045396Y0085188D01*
X0045737Y0085089D01*
X0046075Y0084982D01*
X0046410Y0084867D01*
X0046742Y0084743D01*
X0047071Y0084612D01*
X0047397Y0084472D01*
X0047720Y0084324D01*
X0048038Y0084169D01*
X0048353Y0084005D01*
X0048663Y0083835D01*
X0048970Y0083656D01*
X0049272Y0083470D01*
X0049569Y0083277D01*
X0049861Y0083076D01*
X0050148Y0082869D01*
X0050430Y0082654D01*
X0050707Y0082432D01*
X0050978Y0082204D01*
X0051244Y0081969D01*
X0051504Y0081728D01*
X0051757Y0081480D01*
X0052005Y0081227D01*
X0052246Y0080967D01*
X0052481Y0080701D01*
X0052709Y0080430D01*
X0052931Y0080153D01*
X0053146Y0079871D01*
X0053353Y0079584D01*
X0053554Y0079292D01*
X0053747Y0078995D01*
X0053933Y0078693D01*
X0054112Y0078386D01*
X0054282Y0078076D01*
X0054446Y0077761D01*
X0054601Y0077443D01*
X0054749Y0077120D01*
X0054889Y0076794D01*
X0055020Y0076465D01*
X0055144Y0076133D01*
X0055259Y0075798D01*
X0055366Y0075460D01*
X0055465Y0075119D01*
X0055555Y0074777D01*
X0055637Y0074432D01*
X0055710Y0074085D01*
X0055775Y0073736D01*
X0055832Y0073386D01*
X0055879Y0073035D01*
X0055918Y0072683D01*
X0055949Y0072330D01*
X0055971Y0071976D01*
X0055984Y0071621D01*
X0055988Y0071267D01*
X0055984Y0070913D01*
X0055971Y0070558D01*
X0055949Y0070204D01*
X0055918Y0069851D01*
X0055879Y0069499D01*
X0055832Y0069148D01*
X0055775Y0068798D01*
X0055710Y0068449D01*
X0055637Y0068102D01*
X0055555Y0067757D01*
X0055465Y0067415D01*
X0055366Y0067074D01*
X0055259Y0066736D01*
X0055144Y0066401D01*
X0055020Y0066069D01*
X0054889Y0065740D01*
X0054749Y0065414D01*
X0054601Y0065091D01*
X0054446Y0064773D01*
X0054282Y0064458D01*
X0054112Y0064148D01*
X0053933Y0063841D01*
X0053747Y0063539D01*
X0053554Y0063242D01*
X0053353Y0062950D01*
X0053146Y0062663D01*
X0052931Y0062381D01*
X0052709Y0062104D01*
X0052481Y0061833D01*
X0052246Y0061567D01*
X0052005Y0061307D01*
X0051757Y0061054D01*
X0051504Y0060806D01*
X0051244Y0060565D01*
X0050978Y0060330D01*
X0050707Y0060102D01*
X0050430Y0059880D01*
X0050148Y0059665D01*
X0049861Y0059458D01*
X0049569Y0059257D01*
X0049272Y0059064D01*
X0048970Y0058878D01*
X0048663Y0058699D01*
X0048353Y0058529D01*
X0048038Y0058365D01*
X0047720Y0058210D01*
X0047397Y0058062D01*
X0047071Y0057922D01*
X0046742Y0057791D01*
X0046410Y0057667D01*
X0046075Y0057552D01*
X0045737Y0057445D01*
X0045396Y0057346D01*
X0045054Y0057256D01*
X0044709Y0057174D01*
X0044362Y0057101D01*
X0044013Y0057036D01*
X0043663Y0056979D01*
X0043312Y0056932D01*
X0042960Y0056893D01*
X0042607Y0056862D01*
X0042253Y0056840D01*
X0041898Y0056827D01*
X0041544Y0056823D01*
X0041190Y0056827D01*
X0040835Y0056840D01*
X0040481Y0056862D01*
X0040128Y0056893D01*
X0039776Y0056932D01*
X0039425Y0056979D01*
X0039075Y0057036D01*
X0038726Y0057101D01*
X0038379Y0057174D01*
X0038034Y0057256D01*
X0037692Y0057346D01*
X0037351Y0057445D01*
X0037013Y0057552D01*
X0036678Y0057667D01*
X0036346Y0057791D01*
X0036017Y0057922D01*
X0035691Y0058062D01*
X0035368Y0058210D01*
X0035050Y0058365D01*
X0034735Y0058529D01*
X0034425Y0058699D01*
X0034118Y0058878D01*
X0033816Y0059064D01*
X0033519Y0059257D01*
X0033227Y0059458D01*
X0032940Y0059665D01*
X0032658Y0059880D01*
X0032381Y0060102D01*
X0032110Y0060330D01*
X0031844Y0060565D01*
X0031584Y0060806D01*
X0031331Y0061054D01*
X0031083Y0061307D01*
X0030842Y0061567D01*
X0030607Y0061833D01*
X0030379Y0062104D01*
X0030157Y0062381D01*
X0029942Y0062663D01*
X0029735Y0062950D01*
X0029534Y0063242D01*
X0029341Y0063539D01*
X0029155Y0063841D01*
X0028976Y0064148D01*
X0028806Y0064458D01*
X0028642Y0064773D01*
X0028487Y0065091D01*
X0028339Y0065414D01*
X0028199Y0065740D01*
X0028068Y0066069D01*
X0027944Y0066401D01*
X0027829Y0066736D01*
X0027722Y0067074D01*
X0027623Y0067415D01*
X0027533Y0067757D01*
X0027451Y0068102D01*
X0027378Y0068449D01*
X0027313Y0068798D01*
X0027256Y0069148D01*
X0027209Y0069499D01*
X0027170Y0069851D01*
X0027139Y0070204D01*
X0027117Y0070558D01*
X0027104Y0070913D01*
X0027100Y0071267D01*
X0036744Y0071267D02*
X0036746Y0071405D01*
X0036752Y0071544D01*
X0036762Y0071682D01*
X0036776Y0071819D01*
X0036794Y0071956D01*
X0036816Y0072093D01*
X0036841Y0072229D01*
X0036871Y0072364D01*
X0036905Y0072498D01*
X0036942Y0072631D01*
X0036983Y0072763D01*
X0037028Y0072894D01*
X0037077Y0073024D01*
X0037129Y0073152D01*
X0037186Y0073278D01*
X0037245Y0073403D01*
X0037309Y0073526D01*
X0037376Y0073647D01*
X0037446Y0073766D01*
X0037520Y0073883D01*
X0037597Y0073998D01*
X0037677Y0074111D01*
X0037761Y0074221D01*
X0037847Y0074329D01*
X0037937Y0074434D01*
X0038030Y0074537D01*
X0038126Y0074637D01*
X0038224Y0074734D01*
X0038325Y0074828D01*
X0038429Y0074919D01*
X0038536Y0075007D01*
X0038645Y0075093D01*
X0038756Y0075175D01*
X0038870Y0075253D01*
X0038986Y0075329D01*
X0039104Y0075401D01*
X0039224Y0075469D01*
X0039346Y0075534D01*
X0039470Y0075596D01*
X0039596Y0075654D01*
X0039723Y0075708D01*
X0039852Y0075759D01*
X0039982Y0075806D01*
X0040113Y0075849D01*
X0040246Y0075888D01*
X0040380Y0075924D01*
X0040514Y0075955D01*
X0040650Y0075983D01*
X0040786Y0076007D01*
X0040923Y0076027D01*
X0041061Y0076043D01*
X0041198Y0076055D01*
X0041337Y0076063D01*
X0041475Y0076067D01*
X0041613Y0076067D01*
X0041751Y0076063D01*
X0041890Y0076055D01*
X0042027Y0076043D01*
X0042165Y0076027D01*
X0042302Y0076007D01*
X0042438Y0075983D01*
X0042574Y0075955D01*
X0042708Y0075924D01*
X0042842Y0075888D01*
X0042975Y0075849D01*
X0043106Y0075806D01*
X0043236Y0075759D01*
X0043365Y0075708D01*
X0043492Y0075654D01*
X0043618Y0075596D01*
X0043742Y0075534D01*
X0043864Y0075469D01*
X0043984Y0075401D01*
X0044102Y0075329D01*
X0044218Y0075253D01*
X0044332Y0075175D01*
X0044443Y0075093D01*
X0044552Y0075007D01*
X0044659Y0074919D01*
X0044763Y0074828D01*
X0044864Y0074734D01*
X0044962Y0074637D01*
X0045058Y0074537D01*
X0045151Y0074434D01*
X0045241Y0074329D01*
X0045327Y0074221D01*
X0045411Y0074111D01*
X0045491Y0073998D01*
X0045568Y0073883D01*
X0045642Y0073766D01*
X0045712Y0073647D01*
X0045779Y0073526D01*
X0045843Y0073403D01*
X0045902Y0073278D01*
X0045959Y0073152D01*
X0046011Y0073024D01*
X0046060Y0072894D01*
X0046105Y0072763D01*
X0046146Y0072631D01*
X0046183Y0072498D01*
X0046217Y0072364D01*
X0046247Y0072229D01*
X0046272Y0072093D01*
X0046294Y0071956D01*
X0046312Y0071819D01*
X0046326Y0071682D01*
X0046336Y0071544D01*
X0046342Y0071405D01*
X0046344Y0071267D01*
X0046342Y0071129D01*
X0046336Y0070990D01*
X0046326Y0070852D01*
X0046312Y0070715D01*
X0046294Y0070578D01*
X0046272Y0070441D01*
X0046247Y0070305D01*
X0046217Y0070170D01*
X0046183Y0070036D01*
X0046146Y0069903D01*
X0046105Y0069771D01*
X0046060Y0069640D01*
X0046011Y0069510D01*
X0045959Y0069382D01*
X0045902Y0069256D01*
X0045843Y0069131D01*
X0045779Y0069008D01*
X0045712Y0068887D01*
X0045642Y0068768D01*
X0045568Y0068651D01*
X0045491Y0068536D01*
X0045411Y0068423D01*
X0045327Y0068313D01*
X0045241Y0068205D01*
X0045151Y0068100D01*
X0045058Y0067997D01*
X0044962Y0067897D01*
X0044864Y0067800D01*
X0044763Y0067706D01*
X0044659Y0067615D01*
X0044552Y0067527D01*
X0044443Y0067441D01*
X0044332Y0067359D01*
X0044218Y0067281D01*
X0044102Y0067205D01*
X0043984Y0067133D01*
X0043864Y0067065D01*
X0043742Y0067000D01*
X0043618Y0066938D01*
X0043492Y0066880D01*
X0043365Y0066826D01*
X0043236Y0066775D01*
X0043106Y0066728D01*
X0042975Y0066685D01*
X0042842Y0066646D01*
X0042708Y0066610D01*
X0042574Y0066579D01*
X0042438Y0066551D01*
X0042302Y0066527D01*
X0042165Y0066507D01*
X0042027Y0066491D01*
X0041890Y0066479D01*
X0041751Y0066471D01*
X0041613Y0066467D01*
X0041475Y0066467D01*
X0041337Y0066471D01*
X0041198Y0066479D01*
X0041061Y0066491D01*
X0040923Y0066507D01*
X0040786Y0066527D01*
X0040650Y0066551D01*
X0040514Y0066579D01*
X0040380Y0066610D01*
X0040246Y0066646D01*
X0040113Y0066685D01*
X0039982Y0066728D01*
X0039852Y0066775D01*
X0039723Y0066826D01*
X0039596Y0066880D01*
X0039470Y0066938D01*
X0039346Y0067000D01*
X0039224Y0067065D01*
X0039104Y0067133D01*
X0038986Y0067205D01*
X0038870Y0067281D01*
X0038756Y0067359D01*
X0038645Y0067441D01*
X0038536Y0067527D01*
X0038429Y0067615D01*
X0038325Y0067706D01*
X0038224Y0067800D01*
X0038126Y0067897D01*
X0038030Y0067997D01*
X0037937Y0068100D01*
X0037847Y0068205D01*
X0037761Y0068313D01*
X0037677Y0068423D01*
X0037597Y0068536D01*
X0037520Y0068651D01*
X0037446Y0068768D01*
X0037376Y0068887D01*
X0037309Y0069008D01*
X0037245Y0069131D01*
X0037186Y0069256D01*
X0037129Y0069382D01*
X0037077Y0069510D01*
X0037028Y0069640D01*
X0036983Y0069771D01*
X0036942Y0069903D01*
X0036905Y0070036D01*
X0036871Y0070170D01*
X0036841Y0070305D01*
X0036816Y0070441D01*
X0036794Y0070578D01*
X0036776Y0070715D01*
X0036762Y0070852D01*
X0036752Y0070990D01*
X0036746Y0071129D01*
X0036744Y0071267D01*
X0041544Y0051755D02*
X0041544Y0030778D01*
X0035044Y0033019D02*
X0035044Y0049515D01*
X0037073Y0031767D02*
X0037338Y0031654D01*
X0037606Y0031548D01*
X0037876Y0031449D01*
X0038149Y0031356D01*
X0038424Y0031270D01*
X0038701Y0031191D01*
X0038979Y0031118D01*
X0039260Y0031053D01*
X0039542Y0030994D01*
X0039825Y0030942D01*
X0040110Y0030897D01*
X0040396Y0030860D01*
X0040682Y0030829D01*
X0040969Y0030805D01*
X0041257Y0030788D01*
X0041545Y0030779D01*
X0034044Y0024767D02*
X0034044Y0017767D01*
X0031544Y0015267D02*
X0031446Y0015269D01*
X0031348Y0015275D01*
X0031250Y0015284D01*
X0031153Y0015298D01*
X0031056Y0015315D01*
X0030960Y0015336D01*
X0030865Y0015361D01*
X0030771Y0015389D01*
X0030679Y0015422D01*
X0030587Y0015457D01*
X0030497Y0015497D01*
X0030409Y0015539D01*
X0030322Y0015586D01*
X0030238Y0015635D01*
X0030155Y0015688D01*
X0030075Y0015744D01*
X0029996Y0015804D01*
X0029920Y0015866D01*
X0029847Y0015931D01*
X0029776Y0015999D01*
X0029708Y0016070D01*
X0029643Y0016143D01*
X0029581Y0016219D01*
X0029521Y0016298D01*
X0029465Y0016378D01*
X0029412Y0016461D01*
X0029363Y0016545D01*
X0029316Y0016632D01*
X0029274Y0016720D01*
X0029234Y0016810D01*
X0029199Y0016902D01*
X0029166Y0016994D01*
X0029138Y0017088D01*
X0029113Y0017183D01*
X0029092Y0017279D01*
X0029075Y0017376D01*
X0029061Y0017473D01*
X0029052Y0017571D01*
X0029046Y0017669D01*
X0029044Y0017767D01*
X0029044Y0024767D01*
X0031544Y0027267D02*
X0031642Y0027265D01*
X0031740Y0027259D01*
X0031838Y0027250D01*
X0031935Y0027236D01*
X0032032Y0027219D01*
X0032128Y0027198D01*
X0032223Y0027173D01*
X0032317Y0027145D01*
X0032409Y0027112D01*
X0032501Y0027077D01*
X0032591Y0027037D01*
X0032679Y0026995D01*
X0032766Y0026948D01*
X0032850Y0026899D01*
X0032933Y0026846D01*
X0033013Y0026790D01*
X0033092Y0026730D01*
X0033168Y0026668D01*
X0033241Y0026603D01*
X0033312Y0026535D01*
X0033380Y0026464D01*
X0033445Y0026391D01*
X0033507Y0026315D01*
X0033567Y0026236D01*
X0033623Y0026156D01*
X0033676Y0026073D01*
X0033725Y0025989D01*
X0033772Y0025902D01*
X0033814Y0025814D01*
X0033854Y0025724D01*
X0033889Y0025632D01*
X0033922Y0025540D01*
X0033950Y0025446D01*
X0033975Y0025351D01*
X0033996Y0025255D01*
X0034013Y0025158D01*
X0034027Y0025061D01*
X0034036Y0024963D01*
X0034042Y0024865D01*
X0034044Y0024767D01*
X0031544Y0027267D02*
X0031446Y0027265D01*
X0031348Y0027259D01*
X0031250Y0027250D01*
X0031153Y0027236D01*
X0031056Y0027219D01*
X0030960Y0027198D01*
X0030865Y0027173D01*
X0030771Y0027145D01*
X0030679Y0027112D01*
X0030587Y0027077D01*
X0030497Y0027037D01*
X0030409Y0026995D01*
X0030322Y0026948D01*
X0030238Y0026899D01*
X0030155Y0026846D01*
X0030075Y0026790D01*
X0029996Y0026730D01*
X0029920Y0026668D01*
X0029847Y0026603D01*
X0029776Y0026535D01*
X0029708Y0026464D01*
X0029643Y0026391D01*
X0029581Y0026315D01*
X0029521Y0026236D01*
X0029465Y0026156D01*
X0029412Y0026073D01*
X0029363Y0025989D01*
X0029316Y0025902D01*
X0029274Y0025814D01*
X0029234Y0025724D01*
X0029199Y0025632D01*
X0029166Y0025540D01*
X0029138Y0025446D01*
X0029113Y0025351D01*
X0029092Y0025255D01*
X0029075Y0025158D01*
X0029061Y0025061D01*
X0029052Y0024963D01*
X0029046Y0024865D01*
X0029044Y0024767D01*
X0031544Y0027267D02*
X0031642Y0027265D01*
X0031740Y0027259D01*
X0031838Y0027250D01*
X0031935Y0027236D01*
X0032032Y0027219D01*
X0032128Y0027198D01*
X0032223Y0027173D01*
X0032317Y0027145D01*
X0032409Y0027112D01*
X0032501Y0027077D01*
X0032591Y0027037D01*
X0032679Y0026995D01*
X0032766Y0026948D01*
X0032850Y0026899D01*
X0032933Y0026846D01*
X0033013Y0026790D01*
X0033092Y0026730D01*
X0033168Y0026668D01*
X0033241Y0026603D01*
X0033312Y0026535D01*
X0033380Y0026464D01*
X0033445Y0026391D01*
X0033507Y0026315D01*
X0033567Y0026236D01*
X0033623Y0026156D01*
X0033676Y0026073D01*
X0033725Y0025989D01*
X0033772Y0025902D01*
X0033814Y0025814D01*
X0033854Y0025724D01*
X0033889Y0025632D01*
X0033922Y0025540D01*
X0033950Y0025446D01*
X0033975Y0025351D01*
X0033996Y0025255D01*
X0034013Y0025158D01*
X0034027Y0025061D01*
X0034036Y0024963D01*
X0034042Y0024865D01*
X0034044Y0024767D01*
X0034044Y0017767D02*
X0034042Y0017669D01*
X0034036Y0017571D01*
X0034027Y0017473D01*
X0034013Y0017376D01*
X0033996Y0017279D01*
X0033975Y0017183D01*
X0033950Y0017088D01*
X0033922Y0016994D01*
X0033889Y0016902D01*
X0033854Y0016810D01*
X0033814Y0016720D01*
X0033772Y0016632D01*
X0033725Y0016545D01*
X0033676Y0016461D01*
X0033623Y0016378D01*
X0033567Y0016298D01*
X0033507Y0016219D01*
X0033445Y0016143D01*
X0033380Y0016070D01*
X0033312Y0015999D01*
X0033241Y0015931D01*
X0033168Y0015866D01*
X0033092Y0015804D01*
X0033013Y0015744D01*
X0032933Y0015688D01*
X0032850Y0015635D01*
X0032766Y0015586D01*
X0032679Y0015539D01*
X0032591Y0015497D01*
X0032501Y0015457D01*
X0032409Y0015422D01*
X0032317Y0015389D01*
X0032223Y0015361D01*
X0032128Y0015336D01*
X0032032Y0015315D01*
X0031935Y0015298D01*
X0031838Y0015284D01*
X0031740Y0015275D01*
X0031642Y0015269D01*
X0031544Y0015267D01*
X0024044Y0017767D02*
X0024044Y0024767D01*
X0024042Y0024865D01*
X0024036Y0024963D01*
X0024027Y0025061D01*
X0024013Y0025158D01*
X0023996Y0025255D01*
X0023975Y0025351D01*
X0023950Y0025446D01*
X0023922Y0025540D01*
X0023889Y0025632D01*
X0023854Y0025724D01*
X0023814Y0025814D01*
X0023772Y0025902D01*
X0023725Y0025989D01*
X0023676Y0026073D01*
X0023623Y0026156D01*
X0023567Y0026236D01*
X0023507Y0026315D01*
X0023445Y0026391D01*
X0023380Y0026464D01*
X0023312Y0026535D01*
X0023241Y0026603D01*
X0023168Y0026668D01*
X0023092Y0026730D01*
X0023013Y0026790D01*
X0022933Y0026846D01*
X0022850Y0026899D01*
X0022766Y0026948D01*
X0022679Y0026995D01*
X0022591Y0027037D01*
X0022501Y0027077D01*
X0022409Y0027112D01*
X0022317Y0027145D01*
X0022223Y0027173D01*
X0022128Y0027198D01*
X0022032Y0027219D01*
X0021935Y0027236D01*
X0021838Y0027250D01*
X0021740Y0027259D01*
X0021642Y0027265D01*
X0021544Y0027267D01*
X0021446Y0027265D01*
X0021348Y0027259D01*
X0021250Y0027250D01*
X0021153Y0027236D01*
X0021056Y0027219D01*
X0020960Y0027198D01*
X0020865Y0027173D01*
X0020771Y0027145D01*
X0020679Y0027112D01*
X0020587Y0027077D01*
X0020497Y0027037D01*
X0020409Y0026995D01*
X0020322Y0026948D01*
X0020238Y0026899D01*
X0020155Y0026846D01*
X0020075Y0026790D01*
X0019996Y0026730D01*
X0019920Y0026668D01*
X0019847Y0026603D01*
X0019776Y0026535D01*
X0019708Y0026464D01*
X0019643Y0026391D01*
X0019581Y0026315D01*
X0019521Y0026236D01*
X0019465Y0026156D01*
X0019412Y0026073D01*
X0019363Y0025989D01*
X0019316Y0025902D01*
X0019274Y0025814D01*
X0019234Y0025724D01*
X0019199Y0025632D01*
X0019166Y0025540D01*
X0019138Y0025446D01*
X0019113Y0025351D01*
X0019092Y0025255D01*
X0019075Y0025158D01*
X0019061Y0025061D01*
X0019052Y0024963D01*
X0019046Y0024865D01*
X0019044Y0024767D01*
X0019044Y0017767D01*
X0019046Y0017669D01*
X0019052Y0017571D01*
X0019061Y0017473D01*
X0019075Y0017376D01*
X0019092Y0017279D01*
X0019113Y0017183D01*
X0019138Y0017088D01*
X0019166Y0016994D01*
X0019199Y0016902D01*
X0019234Y0016810D01*
X0019274Y0016720D01*
X0019316Y0016632D01*
X0019363Y0016545D01*
X0019412Y0016461D01*
X0019465Y0016378D01*
X0019521Y0016298D01*
X0019581Y0016219D01*
X0019643Y0016143D01*
X0019708Y0016070D01*
X0019776Y0015999D01*
X0019847Y0015931D01*
X0019920Y0015866D01*
X0019996Y0015804D01*
X0020075Y0015744D01*
X0020155Y0015688D01*
X0020238Y0015635D01*
X0020322Y0015586D01*
X0020409Y0015539D01*
X0020497Y0015497D01*
X0020587Y0015457D01*
X0020679Y0015422D01*
X0020771Y0015389D01*
X0020865Y0015361D01*
X0020960Y0015336D01*
X0021056Y0015315D01*
X0021153Y0015298D01*
X0021250Y0015284D01*
X0021348Y0015275D01*
X0021446Y0015269D01*
X0021544Y0015267D01*
X0021642Y0015269D01*
X0021740Y0015275D01*
X0021838Y0015284D01*
X0021935Y0015298D01*
X0022032Y0015315D01*
X0022128Y0015336D01*
X0022223Y0015361D01*
X0022317Y0015389D01*
X0022409Y0015422D01*
X0022501Y0015457D01*
X0022591Y0015497D01*
X0022679Y0015539D01*
X0022766Y0015586D01*
X0022850Y0015635D01*
X0022933Y0015688D01*
X0023013Y0015744D01*
X0023092Y0015804D01*
X0023168Y0015866D01*
X0023241Y0015931D01*
X0023312Y0015999D01*
X0023380Y0016070D01*
X0023445Y0016143D01*
X0023507Y0016219D01*
X0023567Y0016298D01*
X0023623Y0016378D01*
X0023676Y0016461D01*
X0023725Y0016545D01*
X0023772Y0016632D01*
X0023814Y0016720D01*
X0023854Y0016810D01*
X0023889Y0016902D01*
X0023922Y0016994D01*
X0023950Y0017088D01*
X0023975Y0017183D01*
X0023996Y0017279D01*
X0024013Y0017376D01*
X0024027Y0017473D01*
X0024036Y0017571D01*
X0024042Y0017669D01*
X0024044Y0017767D01*
X0024044Y0024767D02*
X0024042Y0024865D01*
X0024036Y0024963D01*
X0024027Y0025061D01*
X0024013Y0025158D01*
X0023996Y0025255D01*
X0023975Y0025351D01*
X0023950Y0025446D01*
X0023922Y0025540D01*
X0023889Y0025632D01*
X0023854Y0025724D01*
X0023814Y0025814D01*
X0023772Y0025902D01*
X0023725Y0025989D01*
X0023676Y0026073D01*
X0023623Y0026156D01*
X0023567Y0026236D01*
X0023507Y0026315D01*
X0023445Y0026391D01*
X0023380Y0026464D01*
X0023312Y0026535D01*
X0023241Y0026603D01*
X0023168Y0026668D01*
X0023092Y0026730D01*
X0023013Y0026790D01*
X0022933Y0026846D01*
X0022850Y0026899D01*
X0022766Y0026948D01*
X0022679Y0026995D01*
X0022591Y0027037D01*
X0022501Y0027077D01*
X0022409Y0027112D01*
X0022317Y0027145D01*
X0022223Y0027173D01*
X0022128Y0027198D01*
X0022032Y0027219D01*
X0021935Y0027236D01*
X0021838Y0027250D01*
X0021740Y0027259D01*
X0021642Y0027265D01*
X0021544Y0027267D01*
X0003544Y0016267D02*
X0003546Y0016463D01*
X0003554Y0016660D01*
X0003566Y0016856D01*
X0003583Y0017051D01*
X0003604Y0017246D01*
X0003631Y0017441D01*
X0003662Y0017635D01*
X0003698Y0017828D01*
X0003738Y0018020D01*
X0003784Y0018211D01*
X0003834Y0018401D01*
X0003888Y0018589D01*
X0003948Y0018776D01*
X0004012Y0018962D01*
X0004080Y0019146D01*
X0004153Y0019328D01*
X0004230Y0019509D01*
X0004312Y0019687D01*
X0004398Y0019864D01*
X0004489Y0020038D01*
X0004583Y0020210D01*
X0004682Y0020380D01*
X0004785Y0020547D01*
X0004892Y0020712D01*
X0005003Y0020873D01*
X0005118Y0021033D01*
X0005237Y0021189D01*
X0005360Y0021342D01*
X0005486Y0021492D01*
X0005616Y0021639D01*
X0005750Y0021783D01*
X0005887Y0021924D01*
X0006028Y0022061D01*
X0006172Y0022195D01*
X0006319Y0022325D01*
X0006469Y0022451D01*
X0006622Y0022574D01*
X0006778Y0022693D01*
X0006938Y0022808D01*
X0007099Y0022919D01*
X0007264Y0023026D01*
X0007431Y0023129D01*
X0007601Y0023228D01*
X0007773Y0023322D01*
X0007947Y0023413D01*
X0008124Y0023499D01*
X0008302Y0023581D01*
X0008483Y0023658D01*
X0008665Y0023731D01*
X0008849Y0023799D01*
X0009035Y0023863D01*
X0009222Y0023923D01*
X0009410Y0023977D01*
X0009600Y0024027D01*
X0009791Y0024073D01*
X0009983Y0024113D01*
X0010176Y0024149D01*
X0010370Y0024180D01*
X0010565Y0024207D01*
X0010760Y0024228D01*
X0010955Y0024245D01*
X0011151Y0024257D01*
X0011348Y0024265D01*
X0011544Y0024267D01*
X0011740Y0024265D01*
X0011937Y0024257D01*
X0012133Y0024245D01*
X0012328Y0024228D01*
X0012523Y0024207D01*
X0012718Y0024180D01*
X0012912Y0024149D01*
X0013105Y0024113D01*
X0013297Y0024073D01*
X0013488Y0024027D01*
X0013678Y0023977D01*
X0013866Y0023923D01*
X0014053Y0023863D01*
X0014239Y0023799D01*
X0014423Y0023731D01*
X0014605Y0023658D01*
X0014786Y0023581D01*
X0014964Y0023499D01*
X0015141Y0023413D01*
X0015315Y0023322D01*
X0015487Y0023228D01*
X0015657Y0023129D01*
X0015824Y0023026D01*
X0015989Y0022919D01*
X0016150Y0022808D01*
X0016310Y0022693D01*
X0016466Y0022574D01*
X0016619Y0022451D01*
X0016769Y0022325D01*
X0016916Y0022195D01*
X0017060Y0022061D01*
X0017201Y0021924D01*
X0017338Y0021783D01*
X0017472Y0021639D01*
X0017602Y0021492D01*
X0017728Y0021342D01*
X0017851Y0021189D01*
X0017970Y0021033D01*
X0018085Y0020873D01*
X0018196Y0020712D01*
X0018303Y0020547D01*
X0018406Y0020380D01*
X0018505Y0020210D01*
X0018599Y0020038D01*
X0018690Y0019864D01*
X0018776Y0019687D01*
X0018858Y0019509D01*
X0018935Y0019328D01*
X0019008Y0019146D01*
X0019076Y0018962D01*
X0019140Y0018776D01*
X0019200Y0018589D01*
X0019254Y0018401D01*
X0019304Y0018211D01*
X0019350Y0018020D01*
X0019390Y0017828D01*
X0019426Y0017635D01*
X0019457Y0017441D01*
X0019484Y0017246D01*
X0019505Y0017051D01*
X0019522Y0016856D01*
X0019534Y0016660D01*
X0019542Y0016463D01*
X0019544Y0016267D01*
X0019542Y0016071D01*
X0019534Y0015874D01*
X0019522Y0015678D01*
X0019505Y0015483D01*
X0019484Y0015288D01*
X0019457Y0015093D01*
X0019426Y0014899D01*
X0019390Y0014706D01*
X0019350Y0014514D01*
X0019304Y0014323D01*
X0019254Y0014133D01*
X0019200Y0013945D01*
X0019140Y0013758D01*
X0019076Y0013572D01*
X0019008Y0013388D01*
X0018935Y0013206D01*
X0018858Y0013025D01*
X0018776Y0012847D01*
X0018690Y0012670D01*
X0018599Y0012496D01*
X0018505Y0012324D01*
X0018406Y0012154D01*
X0018303Y0011987D01*
X0018196Y0011822D01*
X0018085Y0011661D01*
X0017970Y0011501D01*
X0017851Y0011345D01*
X0017728Y0011192D01*
X0017602Y0011042D01*
X0017472Y0010895D01*
X0017338Y0010751D01*
X0017201Y0010610D01*
X0017060Y0010473D01*
X0016916Y0010339D01*
X0016769Y0010209D01*
X0016619Y0010083D01*
X0016466Y0009960D01*
X0016310Y0009841D01*
X0016150Y0009726D01*
X0015989Y0009615D01*
X0015824Y0009508D01*
X0015657Y0009405D01*
X0015487Y0009306D01*
X0015315Y0009212D01*
X0015141Y0009121D01*
X0014964Y0009035D01*
X0014786Y0008953D01*
X0014605Y0008876D01*
X0014423Y0008803D01*
X0014239Y0008735D01*
X0014053Y0008671D01*
X0013866Y0008611D01*
X0013678Y0008557D01*
X0013488Y0008507D01*
X0013297Y0008461D01*
X0013105Y0008421D01*
X0012912Y0008385D01*
X0012718Y0008354D01*
X0012523Y0008327D01*
X0012328Y0008306D01*
X0012133Y0008289D01*
X0011937Y0008277D01*
X0011740Y0008269D01*
X0011544Y0008267D01*
X0011348Y0008269D01*
X0011151Y0008277D01*
X0010955Y0008289D01*
X0010760Y0008306D01*
X0010565Y0008327D01*
X0010370Y0008354D01*
X0010176Y0008385D01*
X0009983Y0008421D01*
X0009791Y0008461D01*
X0009600Y0008507D01*
X0009410Y0008557D01*
X0009222Y0008611D01*
X0009035Y0008671D01*
X0008849Y0008735D01*
X0008665Y0008803D01*
X0008483Y0008876D01*
X0008302Y0008953D01*
X0008124Y0009035D01*
X0007947Y0009121D01*
X0007773Y0009212D01*
X0007601Y0009306D01*
X0007431Y0009405D01*
X0007264Y0009508D01*
X0007099Y0009615D01*
X0006938Y0009726D01*
X0006778Y0009841D01*
X0006622Y0009960D01*
X0006469Y0010083D01*
X0006319Y0010209D01*
X0006172Y0010339D01*
X0006028Y0010473D01*
X0005887Y0010610D01*
X0005750Y0010751D01*
X0005616Y0010895D01*
X0005486Y0011042D01*
X0005360Y0011192D01*
X0005237Y0011345D01*
X0005118Y0011501D01*
X0005003Y0011661D01*
X0004892Y0011822D01*
X0004785Y0011987D01*
X0004682Y0012154D01*
X0004583Y0012324D01*
X0004489Y0012496D01*
X0004398Y0012670D01*
X0004312Y0012847D01*
X0004230Y0013025D01*
X0004153Y0013206D01*
X0004080Y0013388D01*
X0004012Y0013572D01*
X0003948Y0013758D01*
X0003888Y0013945D01*
X0003834Y0014133D01*
X0003784Y0014323D01*
X0003738Y0014514D01*
X0003698Y0014706D01*
X0003662Y0014899D01*
X0003631Y0015093D01*
X0003604Y0015288D01*
X0003583Y0015483D01*
X0003566Y0015678D01*
X0003554Y0015874D01*
X0003546Y0016071D01*
X0003544Y0016267D01*
X0035045Y0033019D02*
X0035242Y0032867D01*
X0035444Y0032720D01*
X0035648Y0032577D01*
X0035856Y0032440D01*
X0036067Y0032307D01*
X0036282Y0032179D01*
X0036499Y0032057D01*
X0036719Y0031940D01*
X0036942Y0031828D01*
X0037167Y0031721D01*
X0037073Y0050767D02*
X0037338Y0050880D01*
X0037606Y0050986D01*
X0037876Y0051085D01*
X0038149Y0051178D01*
X0038424Y0051264D01*
X0038701Y0051343D01*
X0038979Y0051416D01*
X0039260Y0051481D01*
X0039542Y0051540D01*
X0039825Y0051592D01*
X0040110Y0051637D01*
X0040396Y0051674D01*
X0040682Y0051705D01*
X0040969Y0051729D01*
X0041257Y0051746D01*
X0041545Y0051755D01*
X0041544Y0051755D02*
X0041776Y0051758D01*
X0042007Y0051756D01*
X0042238Y0051748D01*
X0042469Y0051734D01*
X0042699Y0051715D01*
X0042929Y0051690D01*
X0043158Y0051659D01*
X0043387Y0051623D01*
X0043614Y0051582D01*
X0043841Y0051535D01*
X0044066Y0051482D01*
X0044290Y0051424D01*
X0044512Y0051360D01*
X0044733Y0051291D01*
X0044952Y0051217D01*
X0045169Y0051137D01*
X0045384Y0051052D01*
X0045597Y0050962D01*
X0045808Y0050867D01*
X0046016Y0050767D01*
X0037073Y0050769D02*
X0036858Y0050665D01*
X0036645Y0050556D01*
X0036435Y0050442D01*
X0036228Y0050323D01*
X0036023Y0050200D01*
X0035821Y0050072D01*
X0035622Y0049939D01*
X0035427Y0049802D01*
X0035234Y0049661D01*
X0035045Y0049515D01*
X0046016Y0050767D02*
X0046246Y0050655D01*
X0046473Y0050538D01*
X0046697Y0050416D01*
X0046918Y0050288D01*
X0047135Y0050154D01*
X0047350Y0050016D01*
X0047561Y0049872D01*
X0047768Y0049723D01*
X0047972Y0049569D01*
X0048172Y0049411D01*
X0048368Y0049247D01*
X0048560Y0049079D01*
X0048748Y0048906D01*
X0048932Y0048728D01*
X0049111Y0048547D01*
X0049286Y0048360D01*
X0049456Y0048170D01*
X0049621Y0047976D01*
X0049782Y0047777D01*
X0049938Y0047575D01*
X0050089Y0047369D01*
X0050235Y0047159D01*
X0050375Y0046946D01*
X0050511Y0046730D01*
X0050641Y0046510D01*
X0050766Y0046287D01*
X0050885Y0046062D01*
X0050999Y0045833D01*
X0051107Y0045602D01*
X0051210Y0045368D01*
X0051307Y0045132D01*
X0051398Y0044893D01*
X0051483Y0044653D01*
X0051563Y0044410D01*
X0051636Y0044165D01*
X0051704Y0043919D01*
X0051765Y0043671D01*
X0051820Y0043422D01*
X0051870Y0043172D01*
X0051913Y0042920D01*
X0051950Y0042667D01*
X0051981Y0042414D01*
X0052006Y0042160D01*
X0052025Y0041905D01*
X0052037Y0041650D01*
X0052043Y0041395D01*
X0052043Y0041139D01*
X0052037Y0040884D01*
X0052025Y0040629D01*
X0052006Y0040374D01*
X0051981Y0040120D01*
X0051950Y0039867D01*
X0051913Y0039614D01*
X0051870Y0039362D01*
X0051820Y0039112D01*
X0051765Y0038863D01*
X0051704Y0038615D01*
X0051636Y0038369D01*
X0051563Y0038124D01*
X0051483Y0037881D01*
X0051398Y0037641D01*
X0051307Y0037402D01*
X0051210Y0037166D01*
X0051107Y0036932D01*
X0050999Y0036701D01*
X0050885Y0036472D01*
X0050766Y0036247D01*
X0050641Y0036024D01*
X0050511Y0035804D01*
X0050375Y0035588D01*
X0050235Y0035375D01*
X0050089Y0035165D01*
X0049938Y0034959D01*
X0049782Y0034757D01*
X0049621Y0034558D01*
X0049456Y0034364D01*
X0049286Y0034174D01*
X0049111Y0033987D01*
X0048932Y0033806D01*
X0048748Y0033628D01*
X0048560Y0033455D01*
X0048368Y0033287D01*
X0048172Y0033123D01*
X0047972Y0032965D01*
X0047768Y0032811D01*
X0047561Y0032662D01*
X0047350Y0032518D01*
X0047135Y0032380D01*
X0046918Y0032246D01*
X0046697Y0032118D01*
X0046473Y0031996D01*
X0046246Y0031879D01*
X0046016Y0031767D01*
X0045808Y0031667D01*
X0045597Y0031572D01*
X0045384Y0031482D01*
X0045169Y0031397D01*
X0044952Y0031317D01*
X0044733Y0031243D01*
X0044512Y0031174D01*
X0044290Y0031110D01*
X0044066Y0031052D01*
X0043841Y0030999D01*
X0043614Y0030952D01*
X0043387Y0030911D01*
X0043158Y0030875D01*
X0042929Y0030844D01*
X0042699Y0030819D01*
X0042469Y0030800D01*
X0042238Y0030786D01*
X0042007Y0030778D01*
X0041776Y0030776D01*
X0041544Y0030779D01*
X0059044Y0032767D02*
X0059044Y0039767D01*
X0059056Y0039860D01*
X0059072Y0039952D01*
X0059092Y0040043D01*
X0059116Y0040134D01*
X0059143Y0040223D01*
X0059174Y0040312D01*
X0059209Y0040399D01*
X0059247Y0040484D01*
X0059289Y0040568D01*
X0059334Y0040650D01*
X0059382Y0040730D01*
X0059434Y0040808D01*
X0059489Y0040884D01*
X0059547Y0040957D01*
X0059608Y0041028D01*
X0059672Y0041096D01*
X0059739Y0041162D01*
X0059808Y0041225D01*
X0059880Y0041285D01*
X0059954Y0041342D01*
X0060031Y0041396D01*
X0060109Y0041446D01*
X0060190Y0041494D01*
X0060273Y0041537D01*
X0060357Y0041578D01*
X0060443Y0041615D01*
X0060530Y0041648D01*
X0060619Y0041678D01*
X0060709Y0041704D01*
X0060800Y0041726D01*
X0060892Y0041745D01*
X0060984Y0041760D01*
X0061077Y0041771D01*
X0061170Y0041778D01*
X0061264Y0041781D01*
X0061357Y0041780D01*
X0061451Y0041776D01*
X0061544Y0041767D01*
X0064044Y0039767D02*
X0064044Y0032767D01*
X0064032Y0032674D01*
X0064016Y0032582D01*
X0063996Y0032491D01*
X0063972Y0032400D01*
X0063945Y0032311D01*
X0063914Y0032222D01*
X0063879Y0032135D01*
X0063841Y0032050D01*
X0063799Y0031966D01*
X0063754Y0031884D01*
X0063706Y0031804D01*
X0063654Y0031726D01*
X0063599Y0031650D01*
X0063541Y0031577D01*
X0063480Y0031506D01*
X0063416Y0031438D01*
X0063349Y0031372D01*
X0063280Y0031309D01*
X0063208Y0031249D01*
X0063134Y0031192D01*
X0063057Y0031138D01*
X0062979Y0031088D01*
X0062898Y0031040D01*
X0062815Y0030997D01*
X0062731Y0030956D01*
X0062645Y0030919D01*
X0062558Y0030886D01*
X0062469Y0030856D01*
X0062379Y0030830D01*
X0062288Y0030808D01*
X0062196Y0030789D01*
X0062104Y0030774D01*
X0062011Y0030763D01*
X0061918Y0030756D01*
X0061824Y0030753D01*
X0061731Y0030754D01*
X0061637Y0030758D01*
X0061544Y0030767D01*
X0061451Y0030758D01*
X0061357Y0030754D01*
X0061264Y0030753D01*
X0061170Y0030756D01*
X0061077Y0030763D01*
X0060984Y0030774D01*
X0060892Y0030789D01*
X0060800Y0030808D01*
X0060709Y0030830D01*
X0060619Y0030856D01*
X0060530Y0030886D01*
X0060443Y0030919D01*
X0060357Y0030956D01*
X0060273Y0030997D01*
X0060190Y0031040D01*
X0060109Y0031088D01*
X0060031Y0031138D01*
X0059954Y0031192D01*
X0059880Y0031249D01*
X0059808Y0031309D01*
X0059739Y0031372D01*
X0059672Y0031438D01*
X0059608Y0031506D01*
X0059547Y0031577D01*
X0059489Y0031650D01*
X0059434Y0031726D01*
X0059382Y0031804D01*
X0059334Y0031884D01*
X0059289Y0031966D01*
X0059247Y0032050D01*
X0059209Y0032135D01*
X0059174Y0032222D01*
X0059143Y0032311D01*
X0059116Y0032400D01*
X0059092Y0032491D01*
X0059072Y0032582D01*
X0059056Y0032674D01*
X0059044Y0032767D01*
X0064044Y0039767D02*
X0064032Y0039860D01*
X0064016Y0039952D01*
X0063996Y0040043D01*
X0063972Y0040134D01*
X0063945Y0040223D01*
X0063914Y0040312D01*
X0063879Y0040399D01*
X0063841Y0040484D01*
X0063799Y0040568D01*
X0063754Y0040650D01*
X0063706Y0040730D01*
X0063654Y0040808D01*
X0063599Y0040884D01*
X0063541Y0040957D01*
X0063480Y0041028D01*
X0063416Y0041096D01*
X0063349Y0041162D01*
X0063280Y0041225D01*
X0063208Y0041285D01*
X0063134Y0041342D01*
X0063057Y0041396D01*
X0062979Y0041446D01*
X0062898Y0041494D01*
X0062815Y0041537D01*
X0062731Y0041578D01*
X0062645Y0041615D01*
X0062558Y0041648D01*
X0062469Y0041678D01*
X0062379Y0041704D01*
X0062288Y0041726D01*
X0062196Y0041745D01*
X0062104Y0041760D01*
X0062011Y0041771D01*
X0061918Y0041778D01*
X0061824Y0041781D01*
X0061731Y0041780D01*
X0061637Y0041776D01*
X0061544Y0041767D01*
X0080044Y0026267D02*
X0083044Y0026267D01*
X0083104Y0026265D01*
X0083165Y0026260D01*
X0083224Y0026251D01*
X0083283Y0026238D01*
X0083342Y0026222D01*
X0083399Y0026202D01*
X0083454Y0026179D01*
X0083509Y0026152D01*
X0083561Y0026123D01*
X0083612Y0026090D01*
X0083661Y0026054D01*
X0083707Y0026016D01*
X0083751Y0025974D01*
X0083793Y0025930D01*
X0083831Y0025884D01*
X0083867Y0025835D01*
X0083900Y0025784D01*
X0083929Y0025732D01*
X0083956Y0025677D01*
X0083979Y0025622D01*
X0083999Y0025565D01*
X0084015Y0025506D01*
X0084028Y0025447D01*
X0084037Y0025388D01*
X0084042Y0025327D01*
X0084044Y0025267D01*
X0084044Y0017267D01*
X0084042Y0017207D01*
X0084037Y0017146D01*
X0084028Y0017087D01*
X0084015Y0017028D01*
X0083999Y0016969D01*
X0083979Y0016912D01*
X0083956Y0016857D01*
X0083929Y0016802D01*
X0083900Y0016750D01*
X0083867Y0016699D01*
X0083831Y0016650D01*
X0083793Y0016604D01*
X0083751Y0016560D01*
X0083707Y0016518D01*
X0083661Y0016480D01*
X0083612Y0016444D01*
X0083561Y0016411D01*
X0083509Y0016382D01*
X0083454Y0016355D01*
X0083399Y0016332D01*
X0083342Y0016312D01*
X0083283Y0016296D01*
X0083224Y0016283D01*
X0083165Y0016274D01*
X0083104Y0016269D01*
X0083044Y0016267D01*
X0080044Y0016267D01*
X0079984Y0016269D01*
X0079923Y0016274D01*
X0079864Y0016283D01*
X0079805Y0016296D01*
X0079746Y0016312D01*
X0079689Y0016332D01*
X0079634Y0016355D01*
X0079579Y0016382D01*
X0079527Y0016411D01*
X0079476Y0016444D01*
X0079427Y0016480D01*
X0079381Y0016518D01*
X0079337Y0016560D01*
X0079295Y0016604D01*
X0079257Y0016650D01*
X0079221Y0016699D01*
X0079188Y0016750D01*
X0079159Y0016802D01*
X0079132Y0016857D01*
X0079109Y0016912D01*
X0079089Y0016969D01*
X0079073Y0017028D01*
X0079060Y0017087D01*
X0079051Y0017146D01*
X0079046Y0017207D01*
X0079044Y0017267D01*
X0079044Y0025267D01*
X0079046Y0025327D01*
X0079051Y0025388D01*
X0079060Y0025447D01*
X0079073Y0025506D01*
X0079089Y0025565D01*
X0079109Y0025622D01*
X0079132Y0025677D01*
X0079159Y0025732D01*
X0079188Y0025784D01*
X0079221Y0025835D01*
X0079257Y0025884D01*
X0079295Y0025930D01*
X0079337Y0025974D01*
X0079381Y0026016D01*
X0079427Y0026054D01*
X0079476Y0026090D01*
X0079527Y0026123D01*
X0079579Y0026152D01*
X0079634Y0026179D01*
X0079689Y0026202D01*
X0079746Y0026222D01*
X0079805Y0026238D01*
X0079864Y0026251D01*
X0079923Y0026260D01*
X0079984Y0026265D01*
X0080044Y0026267D01*
X0086544Y0026267D02*
X0096544Y0026267D01*
X0096544Y0006267D01*
X0086544Y0006267D01*
X0086544Y0026267D01*
D12*
X0006263Y0004217D02*
X0004328Y0004217D01*
X0004328Y0007119D01*
X0006263Y0007119D01*
X0007275Y0006635D02*
X0007275Y0004700D01*
X0007758Y0004217D01*
X0008726Y0004217D01*
X0009210Y0004700D01*
X0010221Y0004217D02*
X0010221Y0007119D01*
X0011189Y0006152D01*
X0012156Y0007119D01*
X0012156Y0004217D01*
X0013168Y0005668D02*
X0015103Y0005668D01*
X0016114Y0005668D02*
X0018049Y0005668D01*
X0017565Y0007119D02*
X0016114Y0005668D01*
X0017565Y0004217D02*
X0017565Y0007119D01*
X0009210Y0006635D02*
X0008726Y0007119D01*
X0007758Y0007119D01*
X0007275Y0006635D01*
X0005296Y0005668D02*
X0004328Y0005668D01*
X0005092Y0011997D02*
X0007994Y0011997D01*
X0007994Y0013932D01*
X0007511Y0014943D02*
X0007994Y0015427D01*
X0007994Y0016395D01*
X0007511Y0016878D01*
X0007994Y0017890D02*
X0005092Y0017890D01*
X0006059Y0018857D01*
X0005092Y0019825D01*
X0007994Y0019825D01*
X0005576Y0016878D02*
X0005092Y0016395D01*
X0005092Y0015427D01*
X0005576Y0014943D01*
X0007511Y0014943D01*
X0006543Y0012964D02*
X0006543Y0011997D01*
X0005092Y0011997D02*
X0005092Y0013932D01*
X0036842Y0034050D02*
X0036842Y0035502D01*
X0037326Y0035985D01*
X0037809Y0035985D01*
X0038293Y0035502D01*
X0038293Y0034050D01*
X0039744Y0034050D02*
X0036842Y0034050D01*
X0038293Y0035502D02*
X0038777Y0035985D01*
X0039261Y0035985D01*
X0039744Y0035502D01*
X0039744Y0034050D01*
X0039261Y0036997D02*
X0037326Y0036997D01*
X0036842Y0037481D01*
X0036842Y0038448D01*
X0037326Y0038932D01*
X0036842Y0039943D02*
X0038293Y0039943D01*
X0037809Y0040911D01*
X0037809Y0041395D01*
X0038293Y0041878D01*
X0039261Y0041878D01*
X0039744Y0041395D01*
X0039744Y0040427D01*
X0039261Y0039943D01*
X0039261Y0038932D02*
X0039744Y0038448D01*
X0039744Y0037481D01*
X0039261Y0036997D01*
X0036842Y0039943D02*
X0036842Y0041878D01*
X0038293Y0042890D02*
X0038293Y0044825D01*
X0039261Y0045836D02*
X0039744Y0045836D01*
X0039261Y0045836D02*
X0037326Y0047771D01*
X0036842Y0047771D01*
X0036842Y0045836D01*
X0036842Y0044341D02*
X0038293Y0042890D01*
X0039744Y0044341D02*
X0036842Y0044341D01*
X0042748Y0042719D02*
X0044683Y0042719D01*
X0043715Y0042719D02*
X0043715Y0039817D01*
X0045694Y0039817D02*
X0047629Y0039817D01*
X0046662Y0039817D02*
X0046662Y0042719D01*
X0045694Y0041752D01*
X0048976Y0057421D02*
X0048492Y0057904D01*
X0048492Y0058872D01*
X0048976Y0059356D01*
X0049459Y0059356D01*
X0051394Y0057421D01*
X0051394Y0059356D01*
X0051394Y0060367D02*
X0051394Y0060851D01*
X0050911Y0060851D01*
X0050911Y0060367D01*
X0051394Y0060367D01*
X0050911Y0061840D02*
X0051394Y0062324D01*
X0051394Y0063292D01*
X0050911Y0063775D01*
X0049943Y0063775D01*
X0049459Y0063292D01*
X0049459Y0062808D01*
X0049943Y0061840D01*
X0048492Y0061840D01*
X0048492Y0063775D01*
X0049943Y0067734D02*
X0049943Y0069668D01*
X0048976Y0073627D02*
X0048492Y0074110D01*
X0048492Y0075078D01*
X0048976Y0075562D01*
X0049459Y0075562D01*
X0049943Y0075078D01*
X0050427Y0075562D01*
X0050911Y0075562D01*
X0051394Y0075078D01*
X0051394Y0074110D01*
X0050911Y0073627D01*
X0049943Y0074594D02*
X0049943Y0075078D01*
X0048976Y0076573D02*
X0048492Y0077057D01*
X0048492Y0078024D01*
X0048976Y0078508D01*
X0050911Y0076573D01*
X0051394Y0077057D01*
X0051394Y0078024D01*
X0050911Y0078508D01*
X0048976Y0078508D01*
X0049459Y0079520D02*
X0049459Y0080971D01*
X0049943Y0081455D01*
X0050911Y0081455D01*
X0051394Y0080971D01*
X0051394Y0079520D01*
X0052362Y0079520D02*
X0049459Y0079520D01*
X0049943Y0082466D02*
X0049943Y0083434D01*
X0048492Y0084401D02*
X0048492Y0082466D01*
X0051394Y0082466D01*
X0050911Y0076573D02*
X0048976Y0076573D01*
X0035394Y0073885D02*
X0035394Y0071417D01*
X0035394Y0072651D02*
X0031691Y0072651D01*
X0032926Y0071417D01*
X0032308Y0070202D02*
X0031691Y0069585D01*
X0031691Y0068351D01*
X0032308Y0067734D01*
X0034777Y0067734D01*
X0035394Y0068351D01*
X0035394Y0069585D01*
X0034777Y0070202D01*
X0070694Y0052719D02*
X0070694Y0049817D01*
X0072629Y0049817D01*
X0073641Y0049817D02*
X0075576Y0051752D01*
X0075576Y0052235D01*
X0075092Y0052719D01*
X0074125Y0052719D01*
X0073641Y0052235D01*
X0073641Y0049817D02*
X0075576Y0049817D01*
X0076587Y0047719D02*
X0076587Y0044817D01*
X0075576Y0045300D02*
X0075576Y0046268D01*
X0075576Y0045300D02*
X0075092Y0044817D01*
X0074608Y0044817D01*
X0074125Y0045300D01*
X0074125Y0044333D01*
X0073641Y0043849D01*
X0072629Y0044817D02*
X0070694Y0044817D01*
X0071662Y0044817D02*
X0071662Y0047719D01*
X0070694Y0046752D01*
X0074125Y0046268D02*
X0074125Y0045300D01*
X0076587Y0046268D02*
X0078522Y0046268D01*
X0078522Y0047719D02*
X0078522Y0044817D01*
X0099043Y0022044D02*
X0099043Y0019575D01*
X0097808Y0020809D02*
X0100277Y0020809D01*
X0099822Y0011268D02*
X0097353Y0011268D01*
X0094619Y0005119D02*
X0093168Y0005119D01*
X0093168Y0002217D01*
X0093168Y0003184D02*
X0094619Y0003184D01*
X0095103Y0003668D01*
X0095103Y0004635D01*
X0094619Y0005119D01*
X0094135Y0003184D02*
X0095103Y0002217D01*
X0092156Y0002217D02*
X0092156Y0005119D01*
X0090221Y0005119D02*
X0090221Y0002217D01*
X0091189Y0003184D01*
X0092156Y0002217D01*
X0089210Y0003668D02*
X0088726Y0003184D01*
X0087275Y0003184D01*
X0087275Y0002217D02*
X0087275Y0005119D01*
X0088726Y0005119D01*
X0089210Y0004635D01*
X0089210Y0003668D01*
X0088748Y0085417D02*
X0090683Y0087352D01*
X0090683Y0087835D01*
X0090199Y0088319D01*
X0089232Y0088319D01*
X0088748Y0087835D01*
X0087736Y0087835D02*
X0087736Y0087352D01*
X0085801Y0085417D01*
X0087736Y0085417D01*
X0088748Y0085417D02*
X0090683Y0085417D01*
X0091694Y0085417D02*
X0091694Y0087352D01*
X0093146Y0087352D01*
X0093629Y0086868D01*
X0093629Y0085417D01*
X0094641Y0085417D02*
X0094641Y0088319D01*
X0096576Y0088319D01*
X0095608Y0086868D02*
X0094641Y0086868D01*
X0087736Y0087835D02*
X0087253Y0088319D01*
X0086285Y0088319D01*
X0085801Y0087835D01*
D13*
X0061544Y0036892D03*
X0061544Y0035642D03*
D14*
X0031544Y0022267D03*
X0031544Y0020267D03*
X0021544Y0020267D03*
X0021544Y0022267D03*
D15*
X0028044Y0036767D02*
X0015044Y0036767D01*
X0014957Y0036769D01*
X0014870Y0036775D01*
X0014783Y0036784D01*
X0014697Y0036797D01*
X0014611Y0036814D01*
X0014526Y0036835D01*
X0014443Y0036860D01*
X0014360Y0036888D01*
X0014279Y0036919D01*
X0014199Y0036954D01*
X0014121Y0036993D01*
X0014044Y0037035D01*
X0013969Y0037080D01*
X0013897Y0037129D01*
X0013826Y0037180D01*
X0013758Y0037235D01*
X0013693Y0037292D01*
X0013630Y0037353D01*
X0013569Y0037416D01*
X0013512Y0037481D01*
X0013457Y0037549D01*
X0013406Y0037620D01*
X0013357Y0037692D01*
X0013312Y0037767D01*
X0013270Y0037844D01*
X0013231Y0037922D01*
X0013196Y0038002D01*
X0013165Y0038083D01*
X0013137Y0038166D01*
X0013112Y0038249D01*
X0013091Y0038334D01*
X0013074Y0038420D01*
X0013061Y0038506D01*
X0013052Y0038593D01*
X0013046Y0038680D01*
X0013044Y0038767D01*
X0016544Y0041267D02*
X0020344Y0041267D01*
X0022844Y0041267D02*
X0026544Y0041267D01*
X0030044Y0038767D02*
X0030042Y0038680D01*
X0030036Y0038593D01*
X0030027Y0038506D01*
X0030014Y0038420D01*
X0029997Y0038334D01*
X0029976Y0038249D01*
X0029951Y0038166D01*
X0029923Y0038083D01*
X0029892Y0038002D01*
X0029857Y0037922D01*
X0029818Y0037844D01*
X0029776Y0037767D01*
X0029731Y0037692D01*
X0029682Y0037620D01*
X0029631Y0037549D01*
X0029576Y0037481D01*
X0029519Y0037416D01*
X0029458Y0037353D01*
X0029395Y0037292D01*
X0029330Y0037235D01*
X0029262Y0037180D01*
X0029191Y0037129D01*
X0029119Y0037080D01*
X0029044Y0037035D01*
X0028967Y0036993D01*
X0028889Y0036954D01*
X0028809Y0036919D01*
X0028728Y0036888D01*
X0028645Y0036860D01*
X0028562Y0036835D01*
X0028477Y0036814D01*
X0028391Y0036797D01*
X0028305Y0036784D01*
X0028218Y0036775D01*
X0028131Y0036769D01*
X0028044Y0036767D01*
X0030044Y0043767D02*
X0030042Y0043854D01*
X0030036Y0043941D01*
X0030027Y0044028D01*
X0030014Y0044114D01*
X0029997Y0044200D01*
X0029976Y0044285D01*
X0029951Y0044368D01*
X0029923Y0044451D01*
X0029892Y0044532D01*
X0029857Y0044612D01*
X0029818Y0044690D01*
X0029776Y0044767D01*
X0029731Y0044842D01*
X0029682Y0044914D01*
X0029631Y0044985D01*
X0029576Y0045053D01*
X0029519Y0045118D01*
X0029458Y0045181D01*
X0029395Y0045242D01*
X0029330Y0045299D01*
X0029262Y0045354D01*
X0029191Y0045405D01*
X0029119Y0045454D01*
X0029044Y0045499D01*
X0028967Y0045541D01*
X0028889Y0045580D01*
X0028809Y0045615D01*
X0028728Y0045646D01*
X0028645Y0045674D01*
X0028562Y0045699D01*
X0028477Y0045720D01*
X0028391Y0045737D01*
X0028305Y0045750D01*
X0028218Y0045759D01*
X0028131Y0045765D01*
X0028044Y0045767D01*
X0015044Y0045767D01*
X0014957Y0045765D01*
X0014870Y0045759D01*
X0014783Y0045750D01*
X0014697Y0045737D01*
X0014611Y0045720D01*
X0014526Y0045699D01*
X0014443Y0045674D01*
X0014360Y0045646D01*
X0014279Y0045615D01*
X0014199Y0045580D01*
X0014121Y0045541D01*
X0014044Y0045499D01*
X0013969Y0045454D01*
X0013897Y0045405D01*
X0013826Y0045354D01*
X0013758Y0045299D01*
X0013693Y0045242D01*
X0013630Y0045181D01*
X0013569Y0045118D01*
X0013512Y0045053D01*
X0013457Y0044985D01*
X0013406Y0044914D01*
X0013357Y0044842D01*
X0013312Y0044767D01*
X0013270Y0044690D01*
X0013231Y0044612D01*
X0013196Y0044532D01*
X0013165Y0044451D01*
X0013137Y0044368D01*
X0013112Y0044285D01*
X0013091Y0044200D01*
X0013074Y0044114D01*
X0013061Y0044028D01*
X0013052Y0043941D01*
X0013046Y0043854D01*
X0013044Y0043767D01*
X0013044Y0061267D02*
X0010044Y0061267D01*
X0009984Y0061269D01*
X0009923Y0061274D01*
X0009864Y0061283D01*
X0009805Y0061296D01*
X0009746Y0061312D01*
X0009689Y0061332D01*
X0009634Y0061355D01*
X0009579Y0061382D01*
X0009527Y0061411D01*
X0009476Y0061444D01*
X0009427Y0061480D01*
X0009381Y0061518D01*
X0009337Y0061560D01*
X0009295Y0061604D01*
X0009257Y0061650D01*
X0009221Y0061699D01*
X0009188Y0061750D01*
X0009159Y0061802D01*
X0009132Y0061857D01*
X0009109Y0061912D01*
X0009089Y0061969D01*
X0009073Y0062028D01*
X0009060Y0062087D01*
X0009051Y0062146D01*
X0009046Y0062207D01*
X0009044Y0062267D01*
X0009044Y0070267D01*
X0009046Y0070327D01*
X0009051Y0070388D01*
X0009060Y0070447D01*
X0009073Y0070506D01*
X0009089Y0070565D01*
X0009109Y0070622D01*
X0009132Y0070677D01*
X0009159Y0070732D01*
X0009188Y0070784D01*
X0009221Y0070835D01*
X0009257Y0070884D01*
X0009295Y0070930D01*
X0009337Y0070974D01*
X0009381Y0071016D01*
X0009427Y0071054D01*
X0009476Y0071090D01*
X0009527Y0071123D01*
X0009579Y0071152D01*
X0009634Y0071179D01*
X0009689Y0071202D01*
X0009746Y0071222D01*
X0009805Y0071238D01*
X0009864Y0071251D01*
X0009923Y0071260D01*
X0009984Y0071265D01*
X0010044Y0071267D01*
X0013044Y0071267D01*
X0013104Y0071265D01*
X0013165Y0071260D01*
X0013224Y0071251D01*
X0013283Y0071238D01*
X0013342Y0071222D01*
X0013399Y0071202D01*
X0013454Y0071179D01*
X0013509Y0071152D01*
X0013561Y0071123D01*
X0013612Y0071090D01*
X0013661Y0071054D01*
X0013707Y0071016D01*
X0013751Y0070974D01*
X0013793Y0070930D01*
X0013831Y0070884D01*
X0013867Y0070835D01*
X0013900Y0070784D01*
X0013929Y0070732D01*
X0013956Y0070677D01*
X0013979Y0070622D01*
X0013999Y0070565D01*
X0014015Y0070506D01*
X0014028Y0070447D01*
X0014037Y0070388D01*
X0014042Y0070327D01*
X0014044Y0070267D01*
X0014044Y0062267D01*
X0014042Y0062207D01*
X0014037Y0062146D01*
X0014028Y0062087D01*
X0014015Y0062028D01*
X0013999Y0061969D01*
X0013979Y0061912D01*
X0013956Y0061857D01*
X0013929Y0061802D01*
X0013900Y0061750D01*
X0013867Y0061699D01*
X0013831Y0061650D01*
X0013793Y0061604D01*
X0013751Y0061560D01*
X0013707Y0061518D01*
X0013661Y0061480D01*
X0013612Y0061444D01*
X0013561Y0061411D01*
X0013509Y0061382D01*
X0013454Y0061355D01*
X0013399Y0061332D01*
X0013342Y0061312D01*
X0013283Y0061296D01*
X0013224Y0061283D01*
X0013165Y0061274D01*
X0013104Y0061269D01*
X0013044Y0061267D01*
X0013104Y0061269D01*
X0013165Y0061274D01*
X0013224Y0061283D01*
X0013283Y0061296D01*
X0013342Y0061312D01*
X0013399Y0061332D01*
X0013454Y0061355D01*
X0013509Y0061382D01*
X0013561Y0061411D01*
X0013612Y0061444D01*
X0013661Y0061480D01*
X0013707Y0061518D01*
X0013751Y0061560D01*
X0013793Y0061604D01*
X0013831Y0061650D01*
X0013867Y0061699D01*
X0013900Y0061750D01*
X0013929Y0061802D01*
X0013956Y0061857D01*
X0013979Y0061912D01*
X0013999Y0061969D01*
X0014015Y0062028D01*
X0014028Y0062087D01*
X0014037Y0062146D01*
X0014042Y0062207D01*
X0014044Y0062267D01*
X0010044Y0061267D02*
X0009984Y0061269D01*
X0009923Y0061274D01*
X0009864Y0061283D01*
X0009805Y0061296D01*
X0009746Y0061312D01*
X0009689Y0061332D01*
X0009634Y0061355D01*
X0009579Y0061382D01*
X0009527Y0061411D01*
X0009476Y0061444D01*
X0009427Y0061480D01*
X0009381Y0061518D01*
X0009337Y0061560D01*
X0009295Y0061604D01*
X0009257Y0061650D01*
X0009221Y0061699D01*
X0009188Y0061750D01*
X0009159Y0061802D01*
X0009132Y0061857D01*
X0009109Y0061912D01*
X0009089Y0061969D01*
X0009073Y0062028D01*
X0009060Y0062087D01*
X0009051Y0062146D01*
X0009046Y0062207D01*
X0009044Y0062267D01*
X0019044Y0062267D02*
X0019044Y0070267D01*
X0019046Y0070327D01*
X0019051Y0070388D01*
X0019060Y0070447D01*
X0019073Y0070506D01*
X0019089Y0070565D01*
X0019109Y0070622D01*
X0019132Y0070677D01*
X0019159Y0070732D01*
X0019188Y0070784D01*
X0019221Y0070835D01*
X0019257Y0070884D01*
X0019295Y0070930D01*
X0019337Y0070974D01*
X0019381Y0071016D01*
X0019427Y0071054D01*
X0019476Y0071090D01*
X0019527Y0071123D01*
X0019579Y0071152D01*
X0019634Y0071179D01*
X0019689Y0071202D01*
X0019746Y0071222D01*
X0019805Y0071238D01*
X0019864Y0071251D01*
X0019923Y0071260D01*
X0019984Y0071265D01*
X0020044Y0071267D01*
X0023044Y0071267D01*
X0023104Y0071265D01*
X0023165Y0071260D01*
X0023224Y0071251D01*
X0023283Y0071238D01*
X0023342Y0071222D01*
X0023399Y0071202D01*
X0023454Y0071179D01*
X0023509Y0071152D01*
X0023561Y0071123D01*
X0023612Y0071090D01*
X0023661Y0071054D01*
X0023707Y0071016D01*
X0023751Y0070974D01*
X0023793Y0070930D01*
X0023831Y0070884D01*
X0023867Y0070835D01*
X0023900Y0070784D01*
X0023929Y0070732D01*
X0023956Y0070677D01*
X0023979Y0070622D01*
X0023999Y0070565D01*
X0024015Y0070506D01*
X0024028Y0070447D01*
X0024037Y0070388D01*
X0024042Y0070327D01*
X0024044Y0070267D01*
X0024044Y0062267D01*
X0024042Y0062207D01*
X0024037Y0062146D01*
X0024028Y0062087D01*
X0024015Y0062028D01*
X0023999Y0061969D01*
X0023979Y0061912D01*
X0023956Y0061857D01*
X0023929Y0061802D01*
X0023900Y0061750D01*
X0023867Y0061699D01*
X0023831Y0061650D01*
X0023793Y0061604D01*
X0023751Y0061560D01*
X0023707Y0061518D01*
X0023661Y0061480D01*
X0023612Y0061444D01*
X0023561Y0061411D01*
X0023509Y0061382D01*
X0023454Y0061355D01*
X0023399Y0061332D01*
X0023342Y0061312D01*
X0023283Y0061296D01*
X0023224Y0061283D01*
X0023165Y0061274D01*
X0023104Y0061269D01*
X0023044Y0061267D01*
X0020044Y0061267D01*
X0019984Y0061269D01*
X0019923Y0061274D01*
X0019864Y0061283D01*
X0019805Y0061296D01*
X0019746Y0061312D01*
X0019689Y0061332D01*
X0019634Y0061355D01*
X0019579Y0061382D01*
X0019527Y0061411D01*
X0019476Y0061444D01*
X0019427Y0061480D01*
X0019381Y0061518D01*
X0019337Y0061560D01*
X0019295Y0061604D01*
X0019257Y0061650D01*
X0019221Y0061699D01*
X0019188Y0061750D01*
X0019159Y0061802D01*
X0019132Y0061857D01*
X0019109Y0061912D01*
X0019089Y0061969D01*
X0019073Y0062028D01*
X0019060Y0062087D01*
X0019051Y0062146D01*
X0019046Y0062207D01*
X0019044Y0062267D01*
X0019046Y0062207D01*
X0019051Y0062146D01*
X0019060Y0062087D01*
X0019073Y0062028D01*
X0019089Y0061969D01*
X0019109Y0061912D01*
X0019132Y0061857D01*
X0019159Y0061802D01*
X0019188Y0061750D01*
X0019221Y0061699D01*
X0019257Y0061650D01*
X0019295Y0061604D01*
X0019337Y0061560D01*
X0019381Y0061518D01*
X0019427Y0061480D01*
X0019476Y0061444D01*
X0019527Y0061411D01*
X0019579Y0061382D01*
X0019634Y0061355D01*
X0019689Y0061332D01*
X0019746Y0061312D01*
X0019805Y0061296D01*
X0019864Y0061283D01*
X0019923Y0061274D01*
X0019984Y0061269D01*
X0020044Y0061267D01*
X0023044Y0061267D02*
X0023104Y0061269D01*
X0023165Y0061274D01*
X0023224Y0061283D01*
X0023283Y0061296D01*
X0023342Y0061312D01*
X0023399Y0061332D01*
X0023454Y0061355D01*
X0023509Y0061382D01*
X0023561Y0061411D01*
X0023612Y0061444D01*
X0023661Y0061480D01*
X0023707Y0061518D01*
X0023751Y0061560D01*
X0023793Y0061604D01*
X0023831Y0061650D01*
X0023867Y0061699D01*
X0023900Y0061750D01*
X0023929Y0061802D01*
X0023956Y0061857D01*
X0023979Y0061912D01*
X0023999Y0061969D01*
X0024015Y0062028D01*
X0024028Y0062087D01*
X0024037Y0062146D01*
X0024042Y0062207D01*
X0024044Y0062267D01*
X0024044Y0070267D02*
X0024042Y0070327D01*
X0024037Y0070388D01*
X0024028Y0070447D01*
X0024015Y0070506D01*
X0023999Y0070565D01*
X0023979Y0070622D01*
X0023956Y0070677D01*
X0023929Y0070732D01*
X0023900Y0070784D01*
X0023867Y0070835D01*
X0023831Y0070884D01*
X0023793Y0070930D01*
X0023751Y0070974D01*
X0023707Y0071016D01*
X0023661Y0071054D01*
X0023612Y0071090D01*
X0023561Y0071123D01*
X0023509Y0071152D01*
X0023454Y0071179D01*
X0023399Y0071202D01*
X0023342Y0071222D01*
X0023283Y0071238D01*
X0023224Y0071251D01*
X0023165Y0071260D01*
X0023104Y0071265D01*
X0023044Y0071267D01*
X0020044Y0071267D02*
X0019984Y0071265D01*
X0019923Y0071260D01*
X0019864Y0071251D01*
X0019805Y0071238D01*
X0019746Y0071222D01*
X0019689Y0071202D01*
X0019634Y0071179D01*
X0019579Y0071152D01*
X0019527Y0071123D01*
X0019476Y0071090D01*
X0019427Y0071054D01*
X0019381Y0071016D01*
X0019337Y0070974D01*
X0019295Y0070930D01*
X0019257Y0070884D01*
X0019221Y0070835D01*
X0019188Y0070784D01*
X0019159Y0070732D01*
X0019132Y0070677D01*
X0019109Y0070622D01*
X0019089Y0070565D01*
X0019073Y0070506D01*
X0019060Y0070447D01*
X0019051Y0070388D01*
X0019046Y0070327D01*
X0019044Y0070267D01*
X0014044Y0070267D02*
X0014042Y0070327D01*
X0014037Y0070388D01*
X0014028Y0070447D01*
X0014015Y0070506D01*
X0013999Y0070565D01*
X0013979Y0070622D01*
X0013956Y0070677D01*
X0013929Y0070732D01*
X0013900Y0070784D01*
X0013867Y0070835D01*
X0013831Y0070884D01*
X0013793Y0070930D01*
X0013751Y0070974D01*
X0013707Y0071016D01*
X0013661Y0071054D01*
X0013612Y0071090D01*
X0013561Y0071123D01*
X0013509Y0071152D01*
X0013454Y0071179D01*
X0013399Y0071202D01*
X0013342Y0071222D01*
X0013283Y0071238D01*
X0013224Y0071251D01*
X0013165Y0071260D01*
X0013104Y0071265D01*
X0013044Y0071267D01*
X0010044Y0071267D02*
X0009984Y0071265D01*
X0009923Y0071260D01*
X0009864Y0071251D01*
X0009805Y0071238D01*
X0009746Y0071222D01*
X0009689Y0071202D01*
X0009634Y0071179D01*
X0009579Y0071152D01*
X0009527Y0071123D01*
X0009476Y0071090D01*
X0009427Y0071054D01*
X0009381Y0071016D01*
X0009337Y0070974D01*
X0009295Y0070930D01*
X0009257Y0070884D01*
X0009221Y0070835D01*
X0009188Y0070784D01*
X0009159Y0070732D01*
X0009132Y0070677D01*
X0009109Y0070622D01*
X0009089Y0070565D01*
X0009073Y0070506D01*
X0009060Y0070447D01*
X0009051Y0070388D01*
X0009046Y0070327D01*
X0009044Y0070267D01*
X0067044Y0037767D02*
X0067044Y0024767D01*
X0067046Y0024680D01*
X0067052Y0024593D01*
X0067061Y0024506D01*
X0067074Y0024420D01*
X0067091Y0024334D01*
X0067112Y0024249D01*
X0067137Y0024166D01*
X0067165Y0024083D01*
X0067196Y0024002D01*
X0067231Y0023922D01*
X0067270Y0023844D01*
X0067312Y0023767D01*
X0067357Y0023692D01*
X0067406Y0023620D01*
X0067457Y0023549D01*
X0067512Y0023481D01*
X0067569Y0023416D01*
X0067630Y0023353D01*
X0067693Y0023292D01*
X0067758Y0023235D01*
X0067826Y0023180D01*
X0067897Y0023129D01*
X0067969Y0023080D01*
X0068044Y0023035D01*
X0068121Y0022993D01*
X0068199Y0022954D01*
X0068279Y0022919D01*
X0068360Y0022888D01*
X0068443Y0022860D01*
X0068526Y0022835D01*
X0068611Y0022814D01*
X0068697Y0022797D01*
X0068783Y0022784D01*
X0068870Y0022775D01*
X0068957Y0022769D01*
X0069044Y0022767D01*
X0071544Y0026267D02*
X0071544Y0029967D01*
X0071544Y0032467D02*
X0071544Y0036267D01*
X0069044Y0039767D02*
X0068957Y0039765D01*
X0068870Y0039759D01*
X0068783Y0039750D01*
X0068697Y0039737D01*
X0068611Y0039720D01*
X0068526Y0039699D01*
X0068443Y0039674D01*
X0068360Y0039646D01*
X0068279Y0039615D01*
X0068199Y0039580D01*
X0068121Y0039541D01*
X0068044Y0039499D01*
X0067969Y0039454D01*
X0067897Y0039405D01*
X0067826Y0039354D01*
X0067758Y0039299D01*
X0067693Y0039242D01*
X0067630Y0039181D01*
X0067569Y0039118D01*
X0067512Y0039053D01*
X0067457Y0038985D01*
X0067406Y0038914D01*
X0067357Y0038842D01*
X0067312Y0038767D01*
X0067270Y0038690D01*
X0067231Y0038612D01*
X0067196Y0038532D01*
X0067165Y0038451D01*
X0067137Y0038368D01*
X0067112Y0038285D01*
X0067091Y0038200D01*
X0067074Y0038114D01*
X0067061Y0038028D01*
X0067052Y0037941D01*
X0067046Y0037854D01*
X0067044Y0037767D01*
X0074044Y0039767D02*
X0074131Y0039765D01*
X0074218Y0039759D01*
X0074305Y0039750D01*
X0074391Y0039737D01*
X0074477Y0039720D01*
X0074562Y0039699D01*
X0074645Y0039674D01*
X0074728Y0039646D01*
X0074809Y0039615D01*
X0074889Y0039580D01*
X0074967Y0039541D01*
X0075044Y0039499D01*
X0075119Y0039454D01*
X0075191Y0039405D01*
X0075262Y0039354D01*
X0075330Y0039299D01*
X0075395Y0039242D01*
X0075458Y0039181D01*
X0075519Y0039118D01*
X0075576Y0039053D01*
X0075631Y0038985D01*
X0075682Y0038914D01*
X0075731Y0038842D01*
X0075776Y0038767D01*
X0075818Y0038690D01*
X0075857Y0038612D01*
X0075892Y0038532D01*
X0075923Y0038451D01*
X0075951Y0038368D01*
X0075976Y0038285D01*
X0075997Y0038200D01*
X0076014Y0038114D01*
X0076027Y0038028D01*
X0076036Y0037941D01*
X0076042Y0037854D01*
X0076044Y0037767D01*
X0076044Y0024767D01*
X0076042Y0024680D01*
X0076036Y0024593D01*
X0076027Y0024506D01*
X0076014Y0024420D01*
X0075997Y0024334D01*
X0075976Y0024249D01*
X0075951Y0024166D01*
X0075923Y0024083D01*
X0075892Y0024002D01*
X0075857Y0023922D01*
X0075818Y0023844D01*
X0075776Y0023767D01*
X0075731Y0023692D01*
X0075682Y0023620D01*
X0075631Y0023549D01*
X0075576Y0023481D01*
X0075519Y0023416D01*
X0075458Y0023353D01*
X0075395Y0023292D01*
X0075330Y0023235D01*
X0075262Y0023180D01*
X0075191Y0023129D01*
X0075119Y0023080D01*
X0075044Y0023035D01*
X0074967Y0022993D01*
X0074889Y0022954D01*
X0074809Y0022919D01*
X0074728Y0022888D01*
X0074645Y0022860D01*
X0074562Y0022835D01*
X0074477Y0022814D01*
X0074391Y0022797D01*
X0074305Y0022784D01*
X0074218Y0022775D01*
X0074131Y0022769D01*
X0074044Y0022767D01*
D16*
X0074544Y0029967D02*
X0071544Y0029967D01*
X0068544Y0029967D01*
X0068544Y0032467D02*
X0071544Y0032467D01*
X0074544Y0032467D01*
X0022844Y0038267D02*
X0022844Y0041267D01*
X0022844Y0044267D01*
X0020344Y0044267D02*
X0020344Y0041267D01*
X0020344Y0038267D01*
D17*
X0083044Y0080267D02*
X0083044Y0082267D01*
X0083046Y0082343D01*
X0083052Y0082419D01*
X0083061Y0082494D01*
X0083075Y0082569D01*
X0083092Y0082643D01*
X0083113Y0082716D01*
X0083137Y0082788D01*
X0083166Y0082859D01*
X0083197Y0082928D01*
X0083232Y0082995D01*
X0083271Y0083060D01*
X0083313Y0083124D01*
X0083358Y0083185D01*
X0083406Y0083244D01*
X0083457Y0083300D01*
X0083511Y0083354D01*
X0083567Y0083405D01*
X0083626Y0083453D01*
X0083687Y0083498D01*
X0083751Y0083540D01*
X0083816Y0083579D01*
X0083883Y0083614D01*
X0083952Y0083645D01*
X0084023Y0083674D01*
X0084095Y0083698D01*
X0084168Y0083719D01*
X0084242Y0083736D01*
X0084317Y0083750D01*
X0084392Y0083759D01*
X0084468Y0083765D01*
X0084544Y0083767D01*
X0098544Y0083767D01*
X0098620Y0083765D01*
X0098696Y0083759D01*
X0098771Y0083750D01*
X0098846Y0083736D01*
X0098920Y0083719D01*
X0098993Y0083698D01*
X0099065Y0083674D01*
X0099136Y0083645D01*
X0099205Y0083614D01*
X0099272Y0083579D01*
X0099337Y0083540D01*
X0099401Y0083498D01*
X0099462Y0083453D01*
X0099521Y0083405D01*
X0099577Y0083354D01*
X0099631Y0083300D01*
X0099682Y0083244D01*
X0099730Y0083185D01*
X0099775Y0083124D01*
X0099817Y0083060D01*
X0099856Y0082995D01*
X0099891Y0082928D01*
X0099922Y0082859D01*
X0099951Y0082788D01*
X0099975Y0082716D01*
X0099996Y0082643D01*
X0100013Y0082569D01*
X0100027Y0082494D01*
X0100036Y0082419D01*
X0100042Y0082343D01*
X0100044Y0082267D01*
X0100044Y0080267D01*
X0100042Y0080191D01*
X0100036Y0080115D01*
X0100027Y0080040D01*
X0100013Y0079965D01*
X0099996Y0079891D01*
X0099975Y0079818D01*
X0099951Y0079746D01*
X0099922Y0079675D01*
X0099891Y0079606D01*
X0099856Y0079539D01*
X0099817Y0079474D01*
X0099775Y0079410D01*
X0099730Y0079349D01*
X0099682Y0079290D01*
X0099631Y0079234D01*
X0099577Y0079180D01*
X0099521Y0079129D01*
X0099462Y0079081D01*
X0099401Y0079036D01*
X0099337Y0078994D01*
X0099272Y0078955D01*
X0099205Y0078920D01*
X0099136Y0078889D01*
X0099065Y0078860D01*
X0098993Y0078836D01*
X0098920Y0078815D01*
X0098846Y0078798D01*
X0098771Y0078784D01*
X0098696Y0078775D01*
X0098620Y0078769D01*
X0098544Y0078767D01*
X0084544Y0078767D01*
X0084468Y0078769D01*
X0084392Y0078775D01*
X0084317Y0078784D01*
X0084242Y0078798D01*
X0084168Y0078815D01*
X0084095Y0078836D01*
X0084023Y0078860D01*
X0083952Y0078889D01*
X0083883Y0078920D01*
X0083816Y0078955D01*
X0083751Y0078994D01*
X0083687Y0079036D01*
X0083626Y0079081D01*
X0083567Y0079129D01*
X0083511Y0079180D01*
X0083457Y0079234D01*
X0083406Y0079290D01*
X0083358Y0079349D01*
X0083313Y0079410D01*
X0083271Y0079474D01*
X0083232Y0079539D01*
X0083197Y0079606D01*
X0083166Y0079675D01*
X0083137Y0079746D01*
X0083113Y0079818D01*
X0083092Y0079891D01*
X0083075Y0079965D01*
X0083061Y0080040D01*
X0083052Y0080115D01*
X0083046Y0080191D01*
X0083044Y0080267D01*
D18*
X0090544Y0081267D03*
X0092544Y0081267D03*
D19*
X0015044Y0021267D03*
D20*
X0051544Y0016767D02*
X0051544Y0015767D01*
D21*
X0081544Y0015517D03*
X0081544Y0027017D03*
X0021544Y0060517D03*
X0011544Y0060517D03*
X0011544Y0072017D03*
X0021544Y0072017D03*
M02*
