G75*
%MOIN*%
%OFA0B0*%
%FSLAX25Y25*%
%IPPOS*%
%LPD*%
%AMOC8*
5,1,8,0,0,1.08239X$1,22.5*
%
%ADD10C,0.06343*%
%ADD11OC8,0.06000*%
%ADD12C,0.05950*%
%ADD13C,0.07800*%
%ADD14R,0.04762X0.04762*%
D10*
X0054288Y0044883D03*
X0074288Y0044883D03*
X0074288Y0064883D03*
X0054288Y0064883D03*
X0024288Y0094883D03*
X0024288Y0114883D03*
X0034288Y0114883D03*
X0034288Y0124883D03*
X0054288Y0124883D03*
X0054288Y0114883D03*
X0104288Y0114883D03*
X0124288Y0114883D03*
X0114288Y0074883D03*
X0104288Y0074883D03*
X0104288Y0054883D03*
X0114288Y0054883D03*
D11*
X0114288Y0084883D03*
X0114288Y0094883D03*
D12*
X0094288Y0102308D02*
X0094288Y0107458D01*
X0084288Y0107458D02*
X0084288Y0102308D01*
X0074288Y0102308D02*
X0074288Y0107458D01*
X0064288Y0107458D02*
X0064288Y0102308D01*
X0054288Y0102308D02*
X0054288Y0107458D01*
X0044288Y0107458D02*
X0044288Y0102308D01*
X0034288Y0102308D02*
X0034288Y0107458D01*
X0034288Y0077458D02*
X0034288Y0072308D01*
X0044288Y0072308D02*
X0044288Y0077458D01*
X0054288Y0077458D02*
X0054288Y0072308D01*
X0064288Y0072308D02*
X0064288Y0077458D01*
X0074288Y0077458D02*
X0074288Y0072308D01*
X0084288Y0072308D02*
X0084288Y0077458D01*
X0094288Y0077458D02*
X0094288Y0072308D01*
D13*
X0024288Y0044883D03*
X0034288Y0044883D03*
X0044288Y0044883D03*
X0094288Y0044883D03*
X0094288Y0054883D03*
X0094288Y0064883D03*
D14*
X0104288Y0084883D03*
X0104288Y0104883D03*
X0064288Y0064883D03*
X0064288Y0044883D03*
M02*
