G75*
%MOIN*%
%OFA0B0*%
%FSLAX25Y25*%
%IPPOS*%
%LPD*%
%AMOC8*
5,1,8,0,0,1.08239X$1,22.5*
%
%ADD10C,0.00400*%
%ADD11C,0.00300*%
%ADD12R,0.04000X0.01000*%
%ADD13C,0.00600*%
%ADD14C,0.01000*%
%ADD15C,0.00500*%
%ADD16R,0.01500X0.01000*%
%ADD17R,0.01000X0.01500*%
%ADD18C,0.00800*%
%ADD19C,0.00200*%
D10*
X0066425Y0078813D02*
X0068425Y0078813D01*
X0068501Y0078815D01*
X0068577Y0078821D01*
X0068652Y0078830D01*
X0068727Y0078844D01*
X0068801Y0078861D01*
X0068874Y0078882D01*
X0068946Y0078906D01*
X0069017Y0078935D01*
X0069086Y0078966D01*
X0069153Y0079001D01*
X0069218Y0079040D01*
X0069282Y0079082D01*
X0069343Y0079127D01*
X0069402Y0079175D01*
X0069458Y0079226D01*
X0069512Y0079280D01*
X0069563Y0079336D01*
X0069611Y0079395D01*
X0069656Y0079456D01*
X0069698Y0079520D01*
X0069737Y0079585D01*
X0069772Y0079652D01*
X0069803Y0079721D01*
X0069832Y0079792D01*
X0069856Y0079864D01*
X0069877Y0079937D01*
X0069894Y0080011D01*
X0069908Y0080086D01*
X0069917Y0080161D01*
X0069923Y0080237D01*
X0069925Y0080313D01*
X0069925Y0094313D01*
X0069923Y0094389D01*
X0069917Y0094465D01*
X0069908Y0094540D01*
X0069894Y0094615D01*
X0069877Y0094689D01*
X0069856Y0094762D01*
X0069832Y0094834D01*
X0069803Y0094905D01*
X0069772Y0094974D01*
X0069737Y0095041D01*
X0069698Y0095106D01*
X0069656Y0095170D01*
X0069611Y0095231D01*
X0069563Y0095290D01*
X0069512Y0095346D01*
X0069458Y0095400D01*
X0069402Y0095451D01*
X0069343Y0095499D01*
X0069282Y0095544D01*
X0069218Y0095586D01*
X0069153Y0095625D01*
X0069086Y0095660D01*
X0069017Y0095691D01*
X0068946Y0095720D01*
X0068874Y0095744D01*
X0068801Y0095765D01*
X0068727Y0095782D01*
X0068652Y0095796D01*
X0068577Y0095805D01*
X0068501Y0095811D01*
X0068425Y0095813D01*
X0066425Y0095813D01*
X0066349Y0095811D01*
X0066273Y0095805D01*
X0066198Y0095796D01*
X0066123Y0095782D01*
X0066049Y0095765D01*
X0065976Y0095744D01*
X0065904Y0095720D01*
X0065833Y0095691D01*
X0065764Y0095660D01*
X0065697Y0095625D01*
X0065632Y0095586D01*
X0065568Y0095544D01*
X0065507Y0095499D01*
X0065448Y0095451D01*
X0065392Y0095400D01*
X0065338Y0095346D01*
X0065287Y0095290D01*
X0065239Y0095231D01*
X0065194Y0095170D01*
X0065152Y0095106D01*
X0065113Y0095041D01*
X0065078Y0094974D01*
X0065047Y0094905D01*
X0065018Y0094834D01*
X0064994Y0094762D01*
X0064973Y0094689D01*
X0064956Y0094615D01*
X0064942Y0094540D01*
X0064933Y0094465D01*
X0064927Y0094389D01*
X0064925Y0094313D01*
X0064925Y0080313D01*
X0064927Y0080237D01*
X0064933Y0080161D01*
X0064942Y0080086D01*
X0064956Y0080011D01*
X0064973Y0079937D01*
X0064994Y0079864D01*
X0065018Y0079792D01*
X0065047Y0079721D01*
X0065078Y0079652D01*
X0065113Y0079585D01*
X0065152Y0079520D01*
X0065194Y0079456D01*
X0065239Y0079395D01*
X0065287Y0079336D01*
X0065338Y0079280D01*
X0065392Y0079226D01*
X0065448Y0079175D01*
X0065507Y0079127D01*
X0065568Y0079082D01*
X0065632Y0079040D01*
X0065697Y0079001D01*
X0065764Y0078966D01*
X0065833Y0078935D01*
X0065904Y0078906D01*
X0065976Y0078882D01*
X0066049Y0078861D01*
X0066123Y0078844D01*
X0066198Y0078830D01*
X0066273Y0078821D01*
X0066349Y0078815D01*
X0066425Y0078813D01*
X0120122Y0116097D02*
X0121923Y0118499D01*
X0123725Y0116097D01*
X0123723Y0116222D02*
X0123723Y0113820D01*
X0123123Y0113820D02*
X0121922Y0115021D01*
X0123123Y0116222D01*
X0125525Y0116222D01*
X0125525Y0117503D02*
X0121922Y0117503D01*
X0123123Y0118704D01*
X0121922Y0119905D01*
X0125525Y0119905D01*
X0125525Y0121186D02*
X0125525Y0123588D01*
X0123725Y0123464D02*
X0121323Y0123464D01*
X0120122Y0124665D01*
X0121323Y0125866D01*
X0123725Y0125866D01*
X0123725Y0127147D02*
X0120122Y0127147D01*
X0121323Y0128348D01*
X0120122Y0129549D01*
X0123725Y0129549D01*
X0123725Y0130830D02*
X0123725Y0133232D01*
X0121923Y0132031D02*
X0121923Y0130830D01*
X0120122Y0130830D02*
X0123725Y0130830D01*
X0121923Y0125866D02*
X0121923Y0123464D01*
X0121922Y0123588D02*
X0121922Y0121186D01*
X0125525Y0121186D01*
X0123723Y0121186D02*
X0123723Y0122387D01*
X0123725Y0122183D02*
X0120122Y0122183D01*
X0120122Y0119780D02*
X0123725Y0122183D01*
X0123725Y0119780D02*
X0120122Y0119780D01*
X0123123Y0113820D02*
X0125525Y0113820D01*
X0125525Y0112539D02*
X0121922Y0112539D01*
X0121922Y0110137D02*
X0125525Y0112539D01*
X0125525Y0110137D02*
X0121922Y0110137D01*
X0123723Y0108856D02*
X0121922Y0106454D01*
X0123723Y0108856D02*
X0125525Y0106454D01*
X0120122Y0130830D02*
X0120122Y0133232D01*
D11*
X0117975Y0133427D02*
X0115072Y0133427D01*
X0117975Y0135362D01*
X0115072Y0135362D01*
X0116040Y0136374D02*
X0115072Y0137341D01*
X0116040Y0138309D01*
X0117975Y0138309D01*
X0117547Y0138414D02*
X0115612Y0136963D01*
X0116040Y0136374D02*
X0117975Y0136374D01*
X0118559Y0136963D02*
X0118559Y0139866D01*
X0120494Y0136963D01*
X0120494Y0139866D01*
X0121505Y0138898D02*
X0122473Y0139866D01*
X0123440Y0138898D01*
X0123440Y0136963D01*
X0124452Y0136963D02*
X0124452Y0139866D01*
X0125419Y0138898D01*
X0126387Y0139866D01*
X0126387Y0136963D01*
X0127398Y0136963D02*
X0127398Y0139866D01*
X0129333Y0139866D01*
X0128366Y0138414D02*
X0127398Y0138414D01*
X0127398Y0136963D02*
X0129333Y0136963D01*
X0123440Y0138414D02*
X0121505Y0138414D01*
X0121505Y0138898D02*
X0121505Y0136963D01*
X0117547Y0138414D02*
X0115612Y0139866D01*
X0116040Y0140288D02*
X0115072Y0141255D01*
X0117975Y0141255D01*
X0117975Y0142267D02*
X0117975Y0144202D01*
X0116524Y0143234D02*
X0116524Y0142267D01*
X0117975Y0142267D02*
X0115072Y0142267D01*
X0115072Y0144202D01*
X0115612Y0146963D02*
X0117547Y0148414D01*
X0115612Y0149866D01*
X0118559Y0149866D02*
X0120494Y0146963D01*
X0120494Y0149866D01*
X0121505Y0148898D02*
X0122473Y0149866D01*
X0123440Y0148898D01*
X0123440Y0146963D01*
X0124452Y0146963D02*
X0124452Y0149866D01*
X0125419Y0148898D01*
X0126387Y0149866D01*
X0126387Y0146963D01*
X0127398Y0146963D02*
X0129333Y0146963D01*
X0128366Y0148414D02*
X0127398Y0148414D01*
X0127398Y0146963D02*
X0127398Y0149866D01*
X0129333Y0149866D01*
X0123440Y0148414D02*
X0121505Y0148414D01*
X0121505Y0148898D02*
X0121505Y0146963D01*
X0118559Y0146963D02*
X0118559Y0149866D01*
X0116040Y0140288D02*
X0115072Y0139320D01*
X0117975Y0139320D01*
X0116524Y0138309D02*
X0116524Y0136374D01*
X0116524Y0132416D02*
X0117975Y0130481D01*
X0116524Y0132416D02*
X0115072Y0130481D01*
X0106583Y0127866D02*
X0104648Y0127866D01*
X0104648Y0124963D01*
X0106583Y0124963D01*
X0105616Y0126414D02*
X0104648Y0126414D01*
X0103637Y0124963D02*
X0103637Y0127866D01*
X0102669Y0126898D01*
X0101702Y0127866D01*
X0101702Y0124963D01*
X0100690Y0124963D02*
X0100690Y0126898D01*
X0099723Y0127866D01*
X0098755Y0126898D01*
X0098755Y0124963D01*
X0097744Y0124963D02*
X0097744Y0127866D01*
X0098755Y0126414D02*
X0100690Y0126414D01*
X0097744Y0124963D02*
X0095809Y0127866D01*
X0095809Y0124963D01*
X0094797Y0126414D02*
X0092862Y0124963D01*
X0094797Y0126414D02*
X0092862Y0127866D01*
X0088875Y0121810D02*
X0088875Y0119875D01*
X0085972Y0119875D01*
X0085972Y0121810D01*
X0087424Y0120842D02*
X0087424Y0119875D01*
X0088391Y0118863D02*
X0085972Y0118863D01*
X0085972Y0116928D02*
X0088391Y0116928D01*
X0088875Y0117412D01*
X0088875Y0118380D01*
X0088391Y0118863D01*
X0088875Y0115917D02*
X0088875Y0113982D01*
X0085972Y0113982D01*
X0086940Y0112970D02*
X0088875Y0112970D01*
X0087424Y0112970D02*
X0087424Y0111035D01*
X0086940Y0111035D02*
X0088875Y0111035D01*
X0087907Y0110024D02*
X0085972Y0110024D01*
X0086940Y0111035D02*
X0085972Y0112003D01*
X0086940Y0112970D01*
X0087907Y0110024D02*
X0088875Y0109056D01*
X0087907Y0108089D01*
X0085972Y0108089D01*
X0087424Y0107077D02*
X0088875Y0105142D01*
X0087424Y0107077D02*
X0085972Y0105142D01*
X0080275Y0105142D02*
X0078824Y0107077D01*
X0077372Y0105142D01*
X0077372Y0108089D02*
X0079307Y0108089D01*
X0080275Y0109056D01*
X0079307Y0110024D01*
X0077372Y0110024D01*
X0078340Y0111035D02*
X0077372Y0112003D01*
X0078340Y0112970D01*
X0080275Y0112970D01*
X0080275Y0113982D02*
X0080275Y0115917D01*
X0079791Y0116928D02*
X0080275Y0117412D01*
X0080275Y0118380D01*
X0079791Y0118863D01*
X0077372Y0118863D01*
X0077372Y0119875D02*
X0080275Y0119875D01*
X0080275Y0121810D01*
X0078824Y0120842D02*
X0078824Y0119875D01*
X0077372Y0119875D02*
X0077372Y0121810D01*
X0077372Y0116928D02*
X0079791Y0116928D01*
X0080275Y0113982D02*
X0077372Y0113982D01*
X0078824Y0112970D02*
X0078824Y0111035D01*
X0078340Y0111035D02*
X0080275Y0111035D01*
X0082612Y0093666D02*
X0084547Y0092214D01*
X0082612Y0090763D01*
X0085559Y0090763D02*
X0085559Y0093666D01*
X0087494Y0090763D01*
X0087494Y0093666D01*
X0088505Y0092698D02*
X0089473Y0093666D01*
X0090440Y0092698D01*
X0090440Y0090763D01*
X0091452Y0090763D02*
X0091452Y0093666D01*
X0092419Y0092698D01*
X0093387Y0093666D01*
X0093387Y0090763D01*
X0094398Y0090763D02*
X0094398Y0093666D01*
X0096333Y0093666D01*
X0095366Y0092214D02*
X0094398Y0092214D01*
X0094398Y0090763D02*
X0096333Y0090763D01*
X0090440Y0092214D02*
X0088505Y0092214D01*
X0088505Y0092698D02*
X0088505Y0090763D01*
X0100592Y0106763D02*
X0102527Y0108214D01*
X0100592Y0109666D01*
X0102722Y0110024D02*
X0104657Y0110024D01*
X0105625Y0109056D01*
X0104657Y0108089D01*
X0102722Y0108089D01*
X0103539Y0106763D02*
X0103539Y0109666D01*
X0105474Y0106763D01*
X0105474Y0109666D01*
X0105625Y0111035D02*
X0103690Y0111035D01*
X0102722Y0112003D01*
X0103690Y0112970D01*
X0105625Y0112970D01*
X0105625Y0113982D02*
X0105625Y0115917D01*
X0105141Y0116928D02*
X0105625Y0117412D01*
X0105625Y0118380D01*
X0105141Y0118863D01*
X0102722Y0118863D01*
X0102722Y0119875D02*
X0105625Y0119875D01*
X0105625Y0121810D01*
X0104174Y0120842D02*
X0104174Y0119875D01*
X0102722Y0119875D02*
X0102722Y0121810D01*
X0102722Y0116928D02*
X0105141Y0116928D01*
X0105625Y0113982D02*
X0102722Y0113982D01*
X0104174Y0112970D02*
X0104174Y0111035D01*
X0106485Y0108698D02*
X0107453Y0109666D01*
X0108420Y0108698D01*
X0108420Y0106763D01*
X0109432Y0106763D02*
X0109432Y0109666D01*
X0110399Y0108698D01*
X0111367Y0109666D01*
X0111367Y0106763D01*
X0110592Y0106763D02*
X0112527Y0108214D01*
X0110592Y0109666D01*
X0112378Y0109666D02*
X0112378Y0106763D01*
X0114313Y0106763D01*
X0113539Y0106763D02*
X0113539Y0109666D01*
X0115474Y0106763D01*
X0115474Y0109666D01*
X0114313Y0109666D02*
X0112378Y0109666D01*
X0112378Y0108214D02*
X0113346Y0108214D01*
X0116485Y0108214D02*
X0118420Y0108214D01*
X0118420Y0108698D02*
X0118420Y0106763D01*
X0119432Y0106763D02*
X0119432Y0109666D01*
X0120399Y0108698D01*
X0121367Y0109666D01*
X0121367Y0106763D01*
X0122378Y0106763D02*
X0124313Y0106763D01*
X0123346Y0108214D02*
X0122378Y0108214D01*
X0122378Y0106763D02*
X0122378Y0109666D01*
X0124313Y0109666D01*
X0118420Y0108698D02*
X0117453Y0109666D01*
X0116485Y0108698D01*
X0116485Y0106763D01*
X0108420Y0108214D02*
X0106485Y0108214D01*
X0106485Y0108698D02*
X0106485Y0106763D01*
X0105625Y0105142D02*
X0104174Y0107077D01*
X0102722Y0105142D01*
X0130727Y0088766D02*
X0132662Y0087314D01*
X0130727Y0085863D01*
X0133674Y0085863D02*
X0133674Y0088766D01*
X0135609Y0085863D01*
X0135609Y0088766D01*
X0136620Y0087798D02*
X0137588Y0088766D01*
X0138555Y0087798D01*
X0138555Y0085863D01*
X0139567Y0085863D02*
X0139567Y0088766D01*
X0140534Y0087798D01*
X0141502Y0088766D01*
X0141502Y0085863D01*
X0142513Y0085863D02*
X0144448Y0085863D01*
X0143481Y0087314D02*
X0142513Y0087314D01*
X0142513Y0085863D02*
X0142513Y0088766D01*
X0144448Y0088766D01*
X0138555Y0087314D02*
X0136620Y0087314D01*
X0136620Y0087798D02*
X0136620Y0085863D01*
X0135254Y0095863D02*
X0137189Y0097314D01*
X0135254Y0098766D01*
X0138201Y0098766D02*
X0138201Y0096831D01*
X0139168Y0095863D01*
X0140135Y0096831D01*
X0140135Y0098766D01*
X0141147Y0097798D02*
X0142115Y0098766D01*
X0143082Y0097798D01*
X0143082Y0095863D01*
X0144094Y0095863D02*
X0146029Y0095863D01*
X0145254Y0095863D02*
X0147189Y0097314D01*
X0145254Y0098766D01*
X0144094Y0098766D02*
X0144094Y0095863D01*
X0143082Y0097314D02*
X0141147Y0097314D01*
X0141147Y0097798D02*
X0141147Y0095863D01*
X0147040Y0096347D02*
X0147524Y0095863D01*
X0148491Y0095863D01*
X0148975Y0096347D01*
X0148975Y0098766D01*
X0148201Y0098766D02*
X0148201Y0096831D01*
X0149168Y0095863D01*
X0150135Y0096831D01*
X0150135Y0098766D01*
X0149987Y0098766D02*
X0149987Y0095863D01*
X0151922Y0095863D01*
X0151147Y0095863D02*
X0151147Y0097798D01*
X0152115Y0098766D01*
X0153082Y0097798D01*
X0153082Y0095863D01*
X0154094Y0095863D02*
X0156029Y0095863D01*
X0157040Y0096347D02*
X0157524Y0095863D01*
X0158491Y0095863D01*
X0158975Y0096347D01*
X0158975Y0098766D01*
X0159987Y0098766D02*
X0159987Y0095863D01*
X0161922Y0095863D01*
X0160954Y0097314D02*
X0159987Y0097314D01*
X0159987Y0098766D02*
X0161922Y0098766D01*
X0157040Y0098766D02*
X0157040Y0096347D01*
X0154094Y0095863D02*
X0154094Y0098766D01*
X0153082Y0097314D02*
X0151147Y0097314D01*
X0150954Y0097314D02*
X0149987Y0097314D01*
X0149987Y0098766D02*
X0151922Y0098766D01*
X0147040Y0098766D02*
X0147040Y0096347D01*
X0152275Y0071249D02*
X0152275Y0068780D01*
X0152275Y0070014D02*
X0148572Y0070014D01*
X0149806Y0068780D01*
X0125280Y0060866D02*
X0123345Y0060866D01*
X0123345Y0057963D01*
X0125280Y0057963D01*
X0124312Y0059414D02*
X0123345Y0059414D01*
X0122333Y0058447D02*
X0122333Y0060866D01*
X0120398Y0060866D02*
X0120398Y0058447D01*
X0120882Y0057963D01*
X0121850Y0057963D01*
X0122333Y0058447D01*
X0119387Y0057963D02*
X0117452Y0057963D01*
X0117452Y0060866D01*
X0116440Y0059898D02*
X0116440Y0057963D01*
X0116440Y0059414D02*
X0114505Y0059414D01*
X0114505Y0059898D02*
X0115473Y0060866D01*
X0116440Y0059898D01*
X0114505Y0059898D02*
X0114505Y0057963D01*
X0113494Y0058931D02*
X0113494Y0060866D01*
X0111559Y0060866D02*
X0111559Y0058931D01*
X0112526Y0057963D01*
X0113494Y0058931D01*
X0110547Y0059414D02*
X0108612Y0057963D01*
X0110547Y0059414D02*
X0108612Y0060866D01*
X0057475Y0106616D02*
X0056024Y0108550D01*
X0054572Y0106616D01*
X0054572Y0109562D02*
X0057475Y0111497D01*
X0054572Y0111497D01*
X0055540Y0112509D02*
X0054572Y0113476D01*
X0055540Y0114444D01*
X0057475Y0114444D01*
X0057475Y0115455D02*
X0054572Y0115455D01*
X0055540Y0116423D01*
X0054572Y0117390D01*
X0057475Y0117390D01*
X0057475Y0118402D02*
X0054572Y0118402D01*
X0054572Y0120337D01*
X0056024Y0119369D02*
X0056024Y0118402D01*
X0057475Y0118402D02*
X0057475Y0120337D01*
X0056024Y0114444D02*
X0056024Y0112509D01*
X0055540Y0112509D02*
X0057475Y0112509D01*
X0057475Y0109562D02*
X0054572Y0109562D01*
X0055254Y0135863D02*
X0057189Y0137314D01*
X0055254Y0138766D01*
X0058201Y0138766D02*
X0058201Y0136831D01*
X0059168Y0135863D01*
X0060135Y0136831D01*
X0060135Y0138766D01*
X0061147Y0137798D02*
X0062115Y0138766D01*
X0063082Y0137798D01*
X0063082Y0135863D01*
X0064094Y0135863D02*
X0066029Y0135863D01*
X0067040Y0136347D02*
X0067524Y0135863D01*
X0068491Y0135863D01*
X0068975Y0136347D01*
X0068975Y0138766D01*
X0069987Y0138766D02*
X0069987Y0135863D01*
X0071922Y0135863D01*
X0070954Y0137314D02*
X0069987Y0137314D01*
X0069987Y0138766D02*
X0071922Y0138766D01*
X0075972Y0140142D02*
X0077424Y0142077D01*
X0078875Y0140142D01*
X0077907Y0143089D02*
X0075972Y0143089D01*
X0075972Y0145024D02*
X0077907Y0145024D01*
X0078875Y0144056D01*
X0077907Y0143089D01*
X0079168Y0145863D02*
X0080135Y0146831D01*
X0080135Y0148766D01*
X0078875Y0148982D02*
X0078875Y0150917D01*
X0078391Y0151928D02*
X0075972Y0151928D01*
X0075972Y0153863D02*
X0078391Y0153863D01*
X0078875Y0153380D01*
X0078875Y0152412D01*
X0078391Y0151928D01*
X0078875Y0154875D02*
X0075972Y0154875D01*
X0075972Y0156810D01*
X0075254Y0155863D02*
X0077189Y0157314D01*
X0075254Y0158766D01*
X0077424Y0155842D02*
X0077424Y0154875D01*
X0078875Y0154875D02*
X0078875Y0156810D01*
X0078201Y0156831D02*
X0079168Y0155863D01*
X0080135Y0156831D01*
X0080135Y0158766D01*
X0081147Y0157798D02*
X0081147Y0155863D01*
X0081147Y0157314D02*
X0083082Y0157314D01*
X0083082Y0157798D02*
X0083082Y0155863D01*
X0084094Y0155863D02*
X0084094Y0158766D01*
X0083082Y0157798D02*
X0082115Y0158766D01*
X0081147Y0157798D01*
X0078201Y0158766D02*
X0078201Y0156831D01*
X0084094Y0155863D02*
X0086029Y0155863D01*
X0087040Y0156347D02*
X0087524Y0155863D01*
X0088491Y0155863D01*
X0088975Y0156347D01*
X0088975Y0158766D01*
X0089987Y0158766D02*
X0089987Y0155863D01*
X0091922Y0155863D01*
X0090954Y0157314D02*
X0089987Y0157314D01*
X0089987Y0158766D02*
X0091922Y0158766D01*
X0094872Y0159222D02*
X0094872Y0157287D01*
X0097775Y0157287D01*
X0097775Y0159222D01*
X0096324Y0158254D02*
X0096324Y0157287D01*
X0094872Y0156275D02*
X0097775Y0156275D01*
X0097775Y0154340D02*
X0094872Y0154340D01*
X0095840Y0155308D01*
X0094872Y0156275D01*
X0095840Y0153328D02*
X0094872Y0152361D01*
X0095840Y0151394D01*
X0097775Y0151394D01*
X0097775Y0150382D02*
X0094872Y0150382D01*
X0096324Y0151394D02*
X0096324Y0153328D01*
X0095840Y0153328D02*
X0097775Y0153328D01*
X0097775Y0150382D02*
X0094872Y0148447D01*
X0097775Y0148447D01*
X0096324Y0147435D02*
X0097775Y0145500D01*
X0096324Y0147435D02*
X0094872Y0145500D01*
X0091922Y0145863D02*
X0089987Y0145863D01*
X0089987Y0148766D01*
X0091922Y0148766D01*
X0090954Y0147314D02*
X0089987Y0147314D01*
X0088975Y0146347D02*
X0088491Y0145863D01*
X0087524Y0145863D01*
X0087040Y0146347D01*
X0087040Y0148766D01*
X0088975Y0148766D02*
X0088975Y0146347D01*
X0086029Y0145863D02*
X0084094Y0145863D01*
X0084094Y0148766D01*
X0083082Y0147798D02*
X0083082Y0145863D01*
X0083082Y0147314D02*
X0081147Y0147314D01*
X0081147Y0147798D02*
X0081147Y0145863D01*
X0079168Y0145863D02*
X0078201Y0146831D01*
X0078201Y0148766D01*
X0078875Y0148982D02*
X0075972Y0148982D01*
X0075254Y0148766D02*
X0077189Y0147314D01*
X0075254Y0145863D01*
X0075972Y0147003D02*
X0076940Y0147970D01*
X0078875Y0147970D01*
X0077424Y0147970D02*
X0077424Y0146035D01*
X0076940Y0146035D02*
X0075972Y0147003D01*
X0076940Y0146035D02*
X0078875Y0146035D01*
X0081147Y0147798D02*
X0082115Y0148766D01*
X0083082Y0147798D01*
X0087040Y0156347D02*
X0087040Y0158766D01*
X0067040Y0138766D02*
X0067040Y0136347D01*
X0064094Y0135863D02*
X0064094Y0138766D01*
X0063082Y0137314D02*
X0061147Y0137314D01*
X0061147Y0137798D02*
X0061147Y0135863D01*
X0125972Y0165142D02*
X0127424Y0167077D01*
X0128875Y0165142D01*
X0127907Y0168089D02*
X0128875Y0169056D01*
X0127907Y0170024D01*
X0125972Y0170024D01*
X0126940Y0171035D02*
X0125972Y0172003D01*
X0126940Y0172970D01*
X0128875Y0172970D01*
X0128875Y0173982D02*
X0128875Y0175917D01*
X0128391Y0176928D02*
X0128875Y0177412D01*
X0128875Y0178380D01*
X0128391Y0178863D01*
X0125972Y0178863D01*
X0125972Y0179875D02*
X0128875Y0179875D01*
X0128875Y0181810D01*
X0127424Y0180842D02*
X0127424Y0179875D01*
X0125972Y0179875D02*
X0125972Y0181810D01*
X0125972Y0176928D02*
X0128391Y0176928D01*
X0128875Y0173982D02*
X0125972Y0173982D01*
X0127424Y0172970D02*
X0127424Y0171035D01*
X0126940Y0171035D02*
X0128875Y0171035D01*
X0127907Y0168089D02*
X0125972Y0168089D01*
D12*
X0067425Y0088313D03*
X0067425Y0086313D03*
D13*
X0042425Y0110813D02*
X0042425Y0133813D01*
X0112425Y0133813D01*
X0112425Y0126313D01*
X0112299Y0126311D01*
X0112174Y0126305D01*
X0112049Y0126295D01*
X0111924Y0126281D01*
X0111799Y0126264D01*
X0111675Y0126242D01*
X0111552Y0126217D01*
X0111430Y0126187D01*
X0111309Y0126154D01*
X0111189Y0126117D01*
X0111070Y0126077D01*
X0110953Y0126032D01*
X0110836Y0125984D01*
X0110722Y0125932D01*
X0110609Y0125877D01*
X0110498Y0125818D01*
X0110389Y0125756D01*
X0110282Y0125690D01*
X0110177Y0125621D01*
X0110074Y0125549D01*
X0109973Y0125474D01*
X0109875Y0125395D01*
X0109780Y0125313D01*
X0109687Y0125229D01*
X0109597Y0125141D01*
X0109509Y0125051D01*
X0109425Y0124958D01*
X0109343Y0124863D01*
X0109264Y0124765D01*
X0109189Y0124664D01*
X0109117Y0124561D01*
X0109048Y0124456D01*
X0108982Y0124349D01*
X0108920Y0124240D01*
X0108861Y0124129D01*
X0108806Y0124016D01*
X0108754Y0123902D01*
X0108706Y0123785D01*
X0108661Y0123668D01*
X0108621Y0123549D01*
X0108584Y0123429D01*
X0108551Y0123308D01*
X0108521Y0123186D01*
X0108496Y0123063D01*
X0108474Y0122939D01*
X0108457Y0122814D01*
X0108443Y0122689D01*
X0108433Y0122564D01*
X0108427Y0122439D01*
X0108425Y0122313D01*
X0108427Y0122187D01*
X0108433Y0122062D01*
X0108443Y0121937D01*
X0108457Y0121812D01*
X0108474Y0121687D01*
X0108496Y0121563D01*
X0108521Y0121440D01*
X0108551Y0121318D01*
X0108584Y0121197D01*
X0108621Y0121077D01*
X0108661Y0120958D01*
X0108706Y0120841D01*
X0108754Y0120724D01*
X0108806Y0120610D01*
X0108861Y0120497D01*
X0108920Y0120386D01*
X0108982Y0120277D01*
X0109048Y0120170D01*
X0109117Y0120065D01*
X0109189Y0119962D01*
X0109264Y0119861D01*
X0109343Y0119763D01*
X0109425Y0119668D01*
X0109509Y0119575D01*
X0109597Y0119485D01*
X0109687Y0119397D01*
X0109780Y0119313D01*
X0109875Y0119231D01*
X0109973Y0119152D01*
X0110074Y0119077D01*
X0110177Y0119005D01*
X0110282Y0118936D01*
X0110389Y0118870D01*
X0110498Y0118808D01*
X0110609Y0118749D01*
X0110722Y0118694D01*
X0110836Y0118642D01*
X0110953Y0118594D01*
X0111070Y0118549D01*
X0111189Y0118509D01*
X0111309Y0118472D01*
X0111430Y0118439D01*
X0111552Y0118409D01*
X0111675Y0118384D01*
X0111799Y0118362D01*
X0111924Y0118345D01*
X0112049Y0118331D01*
X0112174Y0118321D01*
X0112299Y0118315D01*
X0112425Y0118313D01*
X0112425Y0110813D01*
X0042425Y0110813D01*
X0131025Y0127113D02*
X0131144Y0127021D01*
X0131261Y0126927D01*
X0131375Y0126829D01*
X0131487Y0126729D01*
X0131597Y0126625D01*
X0131703Y0126520D01*
X0131808Y0126411D01*
X0131909Y0126300D01*
X0132007Y0126186D01*
X0132103Y0126070D01*
X0132196Y0125952D01*
X0132285Y0125831D01*
X0132372Y0125708D01*
X0132455Y0125583D01*
X0132536Y0125456D01*
X0132613Y0125327D01*
X0132687Y0125196D01*
X0132758Y0125063D01*
X0132825Y0124929D01*
X0132889Y0124793D01*
X0132949Y0124655D01*
X0133006Y0124516D01*
X0133059Y0124375D01*
X0133109Y0124233D01*
X0133156Y0124090D01*
X0133198Y0123946D01*
X0133238Y0123801D01*
X0133273Y0123655D01*
X0133305Y0123508D01*
X0133333Y0123360D01*
X0133357Y0123212D01*
X0133378Y0123063D01*
X0133395Y0122913D01*
X0133408Y0122764D01*
X0133417Y0122614D01*
X0133423Y0122463D01*
X0133425Y0122313D01*
X0123742Y0127049D02*
X0123623Y0126955D01*
X0123507Y0126857D01*
X0123393Y0126757D01*
X0123282Y0126653D01*
X0123174Y0126547D01*
X0123068Y0126439D01*
X0122966Y0126327D01*
X0122866Y0126213D01*
X0122768Y0126097D01*
X0122674Y0125978D01*
X0122583Y0125857D01*
X0122495Y0125733D01*
X0122410Y0125607D01*
X0122329Y0125480D01*
X0122250Y0125350D01*
X0122175Y0125218D01*
X0122104Y0125085D01*
X0122035Y0124949D01*
X0121970Y0124812D01*
X0121909Y0124674D01*
X0121851Y0124533D01*
X0121797Y0124392D01*
X0121746Y0124249D01*
X0121699Y0124105D01*
X0121655Y0123960D01*
X0121616Y0123813D01*
X0121580Y0123666D01*
X0121547Y0123518D01*
X0121519Y0123369D01*
X0121494Y0123219D01*
X0121473Y0123069D01*
X0121456Y0122919D01*
X0121442Y0122767D01*
X0121433Y0122616D01*
X0121427Y0122465D01*
X0121425Y0122313D01*
X0130912Y0117431D02*
X0131037Y0117522D01*
X0131159Y0117616D01*
X0131278Y0117714D01*
X0131395Y0117814D01*
X0131509Y0117918D01*
X0131621Y0118024D01*
X0131729Y0118133D01*
X0131835Y0118245D01*
X0131938Y0118360D01*
X0132038Y0118477D01*
X0132136Y0118597D01*
X0132229Y0118719D01*
X0132320Y0118843D01*
X0132408Y0118970D01*
X0132492Y0119099D01*
X0132573Y0119231D01*
X0132650Y0119364D01*
X0132724Y0119499D01*
X0132795Y0119636D01*
X0132862Y0119775D01*
X0132925Y0119915D01*
X0132985Y0120058D01*
X0133041Y0120201D01*
X0133093Y0120346D01*
X0133142Y0120492D01*
X0133187Y0120640D01*
X0133228Y0120788D01*
X0133265Y0120938D01*
X0133299Y0121088D01*
X0133328Y0121240D01*
X0133354Y0121392D01*
X0133376Y0121544D01*
X0133393Y0121697D01*
X0133407Y0121851D01*
X0133417Y0122005D01*
X0133423Y0122159D01*
X0133425Y0122313D01*
X0123742Y0117577D02*
X0123623Y0117671D01*
X0123507Y0117769D01*
X0123393Y0117869D01*
X0123282Y0117973D01*
X0123174Y0118079D01*
X0123068Y0118187D01*
X0122966Y0118299D01*
X0122866Y0118413D01*
X0122768Y0118529D01*
X0122674Y0118648D01*
X0122583Y0118769D01*
X0122495Y0118893D01*
X0122410Y0119019D01*
X0122329Y0119146D01*
X0122250Y0119276D01*
X0122175Y0119408D01*
X0122104Y0119541D01*
X0122035Y0119677D01*
X0121970Y0119814D01*
X0121909Y0119952D01*
X0121851Y0120093D01*
X0121797Y0120234D01*
X0121746Y0120377D01*
X0121699Y0120521D01*
X0121655Y0120666D01*
X0121616Y0120813D01*
X0121580Y0120960D01*
X0121547Y0121108D01*
X0121519Y0121257D01*
X0121494Y0121407D01*
X0121473Y0121557D01*
X0121456Y0121707D01*
X0121442Y0121859D01*
X0121433Y0122010D01*
X0121427Y0122161D01*
X0121425Y0122313D01*
D14*
X0131190Y0129372D02*
X0131358Y0129279D01*
X0131524Y0129183D01*
X0131688Y0129083D01*
X0131849Y0128978D01*
X0132008Y0128870D01*
X0132164Y0128758D01*
X0132318Y0128642D01*
X0132468Y0128523D01*
X0132616Y0128400D01*
X0132761Y0128274D01*
X0132902Y0128144D01*
X0133041Y0128011D01*
X0133176Y0127874D01*
X0133308Y0127734D01*
X0133436Y0127592D01*
X0133561Y0127446D01*
X0133683Y0127297D01*
X0133801Y0127145D01*
X0133915Y0126991D01*
X0134025Y0126833D01*
X0134132Y0126674D01*
X0134235Y0126511D01*
X0134334Y0126346D01*
X0134429Y0126179D01*
X0134519Y0126010D01*
X0134606Y0125839D01*
X0134689Y0125665D01*
X0134767Y0125490D01*
X0134841Y0125312D01*
X0134911Y0125133D01*
X0134977Y0124953D01*
X0135038Y0124771D01*
X0135095Y0124587D01*
X0135147Y0124402D01*
X0135195Y0124216D01*
X0135239Y0124029D01*
X0135278Y0123841D01*
X0135312Y0123652D01*
X0135342Y0123462D01*
X0135367Y0123272D01*
X0135388Y0123081D01*
X0135404Y0122889D01*
X0135416Y0122697D01*
X0135423Y0122505D01*
X0135425Y0122313D01*
X0123456Y0129259D02*
X0123287Y0129160D01*
X0123121Y0129056D01*
X0122957Y0128949D01*
X0122796Y0128838D01*
X0122638Y0128723D01*
X0122483Y0128604D01*
X0122330Y0128481D01*
X0122181Y0128355D01*
X0122035Y0128225D01*
X0121892Y0128091D01*
X0121752Y0127954D01*
X0121616Y0127814D01*
X0121483Y0127670D01*
X0121354Y0127523D01*
X0121228Y0127373D01*
X0121107Y0127220D01*
X0120988Y0127064D01*
X0120874Y0126905D01*
X0120764Y0126744D01*
X0120658Y0126579D01*
X0120555Y0126413D01*
X0120457Y0126243D01*
X0120363Y0126072D01*
X0120273Y0125898D01*
X0120188Y0125722D01*
X0120106Y0125544D01*
X0120030Y0125364D01*
X0119957Y0125182D01*
X0119889Y0124999D01*
X0119826Y0124814D01*
X0119767Y0124627D01*
X0119713Y0124439D01*
X0119663Y0124250D01*
X0119618Y0124060D01*
X0119578Y0123868D01*
X0119542Y0123676D01*
X0119511Y0123483D01*
X0119485Y0123289D01*
X0119463Y0123094D01*
X0119447Y0122899D01*
X0119435Y0122704D01*
X0119427Y0122508D01*
X0119425Y0122313D01*
X0119427Y0122120D01*
X0119434Y0121927D01*
X0119446Y0121735D01*
X0119462Y0121542D01*
X0119483Y0121350D01*
X0119509Y0121159D01*
X0119539Y0120969D01*
X0119574Y0120779D01*
X0119613Y0120590D01*
X0119657Y0120402D01*
X0119705Y0120215D01*
X0119758Y0120029D01*
X0119815Y0119845D01*
X0119877Y0119662D01*
X0119943Y0119481D01*
X0120014Y0119301D01*
X0120088Y0119123D01*
X0120167Y0118947D01*
X0120251Y0118773D01*
X0120338Y0118601D01*
X0120430Y0118431D01*
X0120526Y0118264D01*
X0120625Y0118098D01*
X0120729Y0117935D01*
X0120836Y0117775D01*
X0120948Y0117618D01*
X0121063Y0117463D01*
X0121182Y0117311D01*
X0121304Y0117162D01*
X0121430Y0117015D01*
X0121560Y0116872D01*
X0121693Y0116732D01*
X0121829Y0116596D01*
X0121969Y0116462D01*
X0122111Y0116333D01*
X0122257Y0116206D01*
X0132547Y0116167D02*
X0132695Y0116294D01*
X0132840Y0116424D01*
X0132981Y0116557D01*
X0133120Y0116694D01*
X0133255Y0116834D01*
X0133386Y0116978D01*
X0133514Y0117125D01*
X0133639Y0117274D01*
X0133760Y0117427D01*
X0133877Y0117582D01*
X0133990Y0117741D01*
X0134099Y0117902D01*
X0134204Y0118066D01*
X0134306Y0118232D01*
X0134403Y0118401D01*
X0134496Y0118571D01*
X0134585Y0118745D01*
X0134670Y0118920D01*
X0134750Y0119097D01*
X0134826Y0119276D01*
X0134898Y0119457D01*
X0134965Y0119640D01*
X0135028Y0119824D01*
X0135086Y0120010D01*
X0135140Y0120197D01*
X0135189Y0120385D01*
X0135234Y0120575D01*
X0135274Y0120765D01*
X0135309Y0120957D01*
X0135340Y0121149D01*
X0135366Y0121342D01*
X0135387Y0121536D01*
X0135404Y0121730D01*
X0135416Y0121924D01*
X0135423Y0122118D01*
X0135425Y0122313D01*
D15*
X0136671Y0113462D02*
X0136671Y0110459D01*
X0141175Y0110459D01*
X0141175Y0113462D01*
X0138923Y0111960D02*
X0138923Y0110459D01*
X0136671Y0108858D02*
X0141175Y0108858D01*
X0141175Y0105855D02*
X0136671Y0105855D01*
X0138172Y0107356D01*
X0136671Y0108858D01*
X0133175Y0108107D02*
X0133175Y0106606D01*
X0132424Y0105855D01*
X0128671Y0105855D01*
X0128671Y0108858D02*
X0132424Y0108858D01*
X0133175Y0108107D01*
X0133175Y0110459D02*
X0133175Y0113462D01*
X0130923Y0111960D02*
X0130923Y0110459D01*
X0128671Y0110459D02*
X0133175Y0110459D01*
X0128671Y0110459D02*
X0128671Y0113462D01*
X0133175Y0104254D02*
X0133175Y0101251D01*
X0128671Y0101251D01*
X0128925Y0102313D02*
X0128985Y0102311D01*
X0129046Y0102306D01*
X0129105Y0102297D01*
X0129164Y0102284D01*
X0129223Y0102268D01*
X0129280Y0102248D01*
X0129335Y0102225D01*
X0129390Y0102198D01*
X0129442Y0102169D01*
X0129493Y0102136D01*
X0129542Y0102100D01*
X0129588Y0102062D01*
X0129632Y0102020D01*
X0129674Y0101976D01*
X0129712Y0101930D01*
X0129748Y0101881D01*
X0129781Y0101830D01*
X0129810Y0101778D01*
X0129837Y0101723D01*
X0129860Y0101668D01*
X0129880Y0101611D01*
X0129896Y0101552D01*
X0129909Y0101493D01*
X0129918Y0101434D01*
X0129923Y0101373D01*
X0129925Y0101313D01*
X0129925Y0093313D01*
X0129923Y0093253D01*
X0129918Y0093192D01*
X0129909Y0093133D01*
X0129896Y0093074D01*
X0129880Y0093015D01*
X0129860Y0092958D01*
X0129837Y0092903D01*
X0129810Y0092848D01*
X0129781Y0092796D01*
X0129748Y0092745D01*
X0129712Y0092696D01*
X0129674Y0092650D01*
X0129632Y0092606D01*
X0129588Y0092564D01*
X0129542Y0092526D01*
X0129493Y0092490D01*
X0129442Y0092457D01*
X0129390Y0092428D01*
X0129335Y0092401D01*
X0129280Y0092378D01*
X0129223Y0092358D01*
X0129164Y0092342D01*
X0129105Y0092329D01*
X0129046Y0092320D01*
X0128985Y0092315D01*
X0128925Y0092313D01*
X0125925Y0092313D01*
X0125865Y0092315D01*
X0125804Y0092320D01*
X0125745Y0092329D01*
X0125686Y0092342D01*
X0125627Y0092358D01*
X0125570Y0092378D01*
X0125515Y0092401D01*
X0125460Y0092428D01*
X0125408Y0092457D01*
X0125357Y0092490D01*
X0125308Y0092526D01*
X0125262Y0092564D01*
X0125218Y0092606D01*
X0125176Y0092650D01*
X0125138Y0092696D01*
X0125102Y0092745D01*
X0125069Y0092796D01*
X0125040Y0092848D01*
X0125013Y0092903D01*
X0124990Y0092958D01*
X0124970Y0093015D01*
X0124954Y0093074D01*
X0124941Y0093133D01*
X0124932Y0093192D01*
X0124927Y0093253D01*
X0124925Y0093313D01*
X0124925Y0101313D01*
X0124927Y0101373D01*
X0124932Y0101434D01*
X0124941Y0101493D01*
X0124954Y0101552D01*
X0124970Y0101611D01*
X0124990Y0101668D01*
X0125013Y0101723D01*
X0125040Y0101778D01*
X0125069Y0101830D01*
X0125102Y0101881D01*
X0125138Y0101930D01*
X0125176Y0101976D01*
X0125218Y0102020D01*
X0125262Y0102062D01*
X0125308Y0102100D01*
X0125357Y0102136D01*
X0125408Y0102169D01*
X0125460Y0102198D01*
X0125515Y0102225D01*
X0125570Y0102248D01*
X0125627Y0102268D01*
X0125686Y0102284D01*
X0125745Y0102297D01*
X0125804Y0102306D01*
X0125865Y0102311D01*
X0125925Y0102313D01*
X0128925Y0102313D01*
X0130172Y0099650D02*
X0133175Y0099650D01*
X0130923Y0099650D02*
X0130923Y0096647D01*
X0130172Y0096647D02*
X0128671Y0098148D01*
X0130172Y0099650D01*
X0130172Y0096647D02*
X0133175Y0096647D01*
X0131674Y0095046D02*
X0128671Y0095046D01*
X0131674Y0095046D02*
X0133175Y0093545D01*
X0131674Y0092043D01*
X0128671Y0092043D01*
X0130923Y0090442D02*
X0133175Y0087439D01*
X0130923Y0090442D02*
X0128671Y0087439D01*
X0132425Y0092313D02*
X0142425Y0092313D01*
X0142425Y0072313D01*
X0132425Y0072313D01*
X0132425Y0092313D01*
X0136671Y0092043D02*
X0138923Y0095046D01*
X0141175Y0092043D01*
X0141175Y0096647D02*
X0136671Y0096647D01*
X0141175Y0099650D01*
X0136671Y0099650D01*
X0138172Y0101251D02*
X0136671Y0102752D01*
X0138172Y0104254D01*
X0141175Y0104254D01*
X0138923Y0104254D02*
X0138923Y0101251D01*
X0138172Y0101251D02*
X0141175Y0101251D01*
X0119925Y0101313D02*
X0119925Y0093313D01*
X0119923Y0093253D01*
X0119918Y0093192D01*
X0119909Y0093133D01*
X0119896Y0093074D01*
X0119880Y0093015D01*
X0119860Y0092958D01*
X0119837Y0092903D01*
X0119810Y0092848D01*
X0119781Y0092796D01*
X0119748Y0092745D01*
X0119712Y0092696D01*
X0119674Y0092650D01*
X0119632Y0092606D01*
X0119588Y0092564D01*
X0119542Y0092526D01*
X0119493Y0092490D01*
X0119442Y0092457D01*
X0119390Y0092428D01*
X0119335Y0092401D01*
X0119280Y0092378D01*
X0119223Y0092358D01*
X0119164Y0092342D01*
X0119105Y0092329D01*
X0119046Y0092320D01*
X0118985Y0092315D01*
X0118925Y0092313D01*
X0115925Y0092313D01*
X0115865Y0092315D01*
X0115804Y0092320D01*
X0115745Y0092329D01*
X0115686Y0092342D01*
X0115627Y0092358D01*
X0115570Y0092378D01*
X0115515Y0092401D01*
X0115460Y0092428D01*
X0115408Y0092457D01*
X0115357Y0092490D01*
X0115308Y0092526D01*
X0115262Y0092564D01*
X0115218Y0092606D01*
X0115176Y0092650D01*
X0115138Y0092696D01*
X0115102Y0092745D01*
X0115069Y0092796D01*
X0115040Y0092848D01*
X0115013Y0092903D01*
X0114990Y0092958D01*
X0114970Y0093015D01*
X0114954Y0093074D01*
X0114941Y0093133D01*
X0114932Y0093192D01*
X0114927Y0093253D01*
X0114925Y0093313D01*
X0114925Y0101313D01*
X0114927Y0101373D01*
X0114932Y0101434D01*
X0114941Y0101493D01*
X0114954Y0101552D01*
X0114970Y0101611D01*
X0114990Y0101668D01*
X0115013Y0101723D01*
X0115040Y0101778D01*
X0115069Y0101830D01*
X0115102Y0101881D01*
X0115138Y0101930D01*
X0115176Y0101976D01*
X0115218Y0102020D01*
X0115262Y0102062D01*
X0115308Y0102100D01*
X0115357Y0102136D01*
X0115408Y0102169D01*
X0115460Y0102198D01*
X0115515Y0102225D01*
X0115570Y0102248D01*
X0115627Y0102268D01*
X0115686Y0102284D01*
X0115745Y0102297D01*
X0115804Y0102306D01*
X0115865Y0102311D01*
X0115925Y0102313D01*
X0118925Y0102313D01*
X0118985Y0102311D01*
X0119046Y0102306D01*
X0119105Y0102297D01*
X0119164Y0102284D01*
X0119223Y0102268D01*
X0119280Y0102248D01*
X0119335Y0102225D01*
X0119390Y0102198D01*
X0119442Y0102169D01*
X0119493Y0102136D01*
X0119542Y0102100D01*
X0119588Y0102062D01*
X0119632Y0102020D01*
X0119674Y0101976D01*
X0119712Y0101930D01*
X0119748Y0101881D01*
X0119781Y0101830D01*
X0119810Y0101778D01*
X0119837Y0101723D01*
X0119860Y0101668D01*
X0119880Y0101611D01*
X0119896Y0101552D01*
X0119909Y0101493D01*
X0119918Y0101434D01*
X0119923Y0101373D01*
X0119925Y0101313D01*
X0107425Y0097801D02*
X0107425Y0076825D01*
X0100925Y0079065D02*
X0100925Y0095561D01*
X0102953Y0077813D02*
X0103218Y0077700D01*
X0103486Y0077594D01*
X0103756Y0077495D01*
X0104029Y0077402D01*
X0104304Y0077316D01*
X0104581Y0077237D01*
X0104859Y0077164D01*
X0105140Y0077099D01*
X0105422Y0077040D01*
X0105705Y0076988D01*
X0105990Y0076943D01*
X0106276Y0076906D01*
X0106562Y0076875D01*
X0106849Y0076851D01*
X0107137Y0076834D01*
X0107425Y0076825D01*
X0102953Y0096813D02*
X0103218Y0096926D01*
X0103486Y0097032D01*
X0103756Y0097131D01*
X0104029Y0097224D01*
X0104304Y0097310D01*
X0104581Y0097389D01*
X0104859Y0097462D01*
X0105140Y0097527D01*
X0105422Y0097586D01*
X0105705Y0097638D01*
X0105990Y0097683D01*
X0106276Y0097720D01*
X0106562Y0097751D01*
X0106849Y0097775D01*
X0107137Y0097792D01*
X0107425Y0097801D01*
X0107657Y0097804D01*
X0107888Y0097802D01*
X0108119Y0097794D01*
X0108350Y0097780D01*
X0108580Y0097761D01*
X0108810Y0097736D01*
X0109039Y0097705D01*
X0109268Y0097669D01*
X0109495Y0097628D01*
X0109722Y0097581D01*
X0109947Y0097528D01*
X0110171Y0097470D01*
X0110393Y0097406D01*
X0110614Y0097337D01*
X0110833Y0097263D01*
X0111050Y0097183D01*
X0111265Y0097098D01*
X0111478Y0097008D01*
X0111689Y0096913D01*
X0111897Y0096813D01*
X0102953Y0096815D02*
X0102738Y0096711D01*
X0102525Y0096602D01*
X0102315Y0096488D01*
X0102108Y0096369D01*
X0101903Y0096246D01*
X0101701Y0096118D01*
X0101502Y0095985D01*
X0101307Y0095848D01*
X0101114Y0095707D01*
X0100925Y0095561D01*
X0111897Y0096813D02*
X0112127Y0096701D01*
X0112354Y0096584D01*
X0112578Y0096462D01*
X0112799Y0096334D01*
X0113016Y0096200D01*
X0113231Y0096062D01*
X0113442Y0095918D01*
X0113649Y0095769D01*
X0113853Y0095615D01*
X0114053Y0095457D01*
X0114249Y0095293D01*
X0114441Y0095125D01*
X0114629Y0094952D01*
X0114813Y0094774D01*
X0114992Y0094593D01*
X0115167Y0094406D01*
X0115337Y0094216D01*
X0115502Y0094022D01*
X0115663Y0093823D01*
X0115819Y0093621D01*
X0115970Y0093415D01*
X0116116Y0093205D01*
X0116256Y0092992D01*
X0116392Y0092776D01*
X0116522Y0092556D01*
X0116647Y0092333D01*
X0116766Y0092108D01*
X0116880Y0091879D01*
X0116988Y0091648D01*
X0117091Y0091414D01*
X0117188Y0091178D01*
X0117279Y0090939D01*
X0117364Y0090699D01*
X0117444Y0090456D01*
X0117517Y0090211D01*
X0117585Y0089965D01*
X0117646Y0089717D01*
X0117701Y0089468D01*
X0117751Y0089218D01*
X0117794Y0088966D01*
X0117831Y0088713D01*
X0117862Y0088460D01*
X0117887Y0088206D01*
X0117906Y0087951D01*
X0117918Y0087696D01*
X0117924Y0087441D01*
X0117924Y0087185D01*
X0117918Y0086930D01*
X0117906Y0086675D01*
X0117887Y0086420D01*
X0117862Y0086166D01*
X0117831Y0085913D01*
X0117794Y0085660D01*
X0117751Y0085408D01*
X0117701Y0085158D01*
X0117646Y0084909D01*
X0117585Y0084661D01*
X0117517Y0084415D01*
X0117444Y0084170D01*
X0117364Y0083927D01*
X0117279Y0083687D01*
X0117188Y0083448D01*
X0117091Y0083212D01*
X0116988Y0082978D01*
X0116880Y0082747D01*
X0116766Y0082518D01*
X0116647Y0082293D01*
X0116522Y0082070D01*
X0116392Y0081850D01*
X0116256Y0081634D01*
X0116116Y0081421D01*
X0115970Y0081211D01*
X0115819Y0081005D01*
X0115663Y0080803D01*
X0115502Y0080604D01*
X0115337Y0080410D01*
X0115167Y0080220D01*
X0114992Y0080033D01*
X0114813Y0079852D01*
X0114629Y0079674D01*
X0114441Y0079501D01*
X0114249Y0079333D01*
X0114053Y0079169D01*
X0113853Y0079011D01*
X0113649Y0078857D01*
X0113442Y0078708D01*
X0113231Y0078564D01*
X0113016Y0078426D01*
X0112799Y0078292D01*
X0112578Y0078164D01*
X0112354Y0078042D01*
X0112127Y0077925D01*
X0111897Y0077813D01*
X0111689Y0077713D01*
X0111478Y0077618D01*
X0111265Y0077528D01*
X0111050Y0077443D01*
X0110833Y0077363D01*
X0110614Y0077289D01*
X0110393Y0077220D01*
X0110171Y0077156D01*
X0109947Y0077098D01*
X0109722Y0077045D01*
X0109495Y0076998D01*
X0109268Y0076957D01*
X0109039Y0076921D01*
X0108810Y0076890D01*
X0108580Y0076865D01*
X0108350Y0076846D01*
X0108119Y0076832D01*
X0107888Y0076824D01*
X0107657Y0076822D01*
X0107425Y0076825D01*
X0103047Y0077767D02*
X0102822Y0077874D01*
X0102599Y0077986D01*
X0102379Y0078103D01*
X0102162Y0078225D01*
X0101947Y0078353D01*
X0101736Y0078486D01*
X0101528Y0078623D01*
X0101324Y0078766D01*
X0101122Y0078913D01*
X0100925Y0079065D01*
X0089925Y0083313D02*
X0089925Y0091313D01*
X0089923Y0091373D01*
X0089918Y0091434D01*
X0089909Y0091493D01*
X0089896Y0091552D01*
X0089880Y0091611D01*
X0089860Y0091668D01*
X0089837Y0091723D01*
X0089810Y0091778D01*
X0089781Y0091830D01*
X0089748Y0091881D01*
X0089712Y0091930D01*
X0089674Y0091976D01*
X0089632Y0092020D01*
X0089588Y0092062D01*
X0089542Y0092100D01*
X0089493Y0092136D01*
X0089442Y0092169D01*
X0089390Y0092198D01*
X0089335Y0092225D01*
X0089280Y0092248D01*
X0089223Y0092268D01*
X0089164Y0092284D01*
X0089105Y0092297D01*
X0089046Y0092306D01*
X0088985Y0092311D01*
X0088925Y0092313D01*
X0085925Y0092313D01*
X0085865Y0092311D01*
X0085804Y0092306D01*
X0085745Y0092297D01*
X0085686Y0092284D01*
X0085627Y0092268D01*
X0085570Y0092248D01*
X0085515Y0092225D01*
X0085460Y0092198D01*
X0085408Y0092169D01*
X0085357Y0092136D01*
X0085308Y0092100D01*
X0085262Y0092062D01*
X0085218Y0092020D01*
X0085176Y0091976D01*
X0085138Y0091930D01*
X0085102Y0091881D01*
X0085069Y0091830D01*
X0085040Y0091778D01*
X0085013Y0091723D01*
X0084990Y0091668D01*
X0084970Y0091611D01*
X0084954Y0091552D01*
X0084941Y0091493D01*
X0084932Y0091434D01*
X0084927Y0091373D01*
X0084925Y0091313D01*
X0084925Y0083313D01*
X0084927Y0083253D01*
X0084932Y0083192D01*
X0084941Y0083133D01*
X0084954Y0083074D01*
X0084970Y0083015D01*
X0084990Y0082958D01*
X0085013Y0082903D01*
X0085040Y0082848D01*
X0085069Y0082796D01*
X0085102Y0082745D01*
X0085138Y0082696D01*
X0085176Y0082650D01*
X0085218Y0082606D01*
X0085262Y0082564D01*
X0085308Y0082526D01*
X0085357Y0082490D01*
X0085408Y0082457D01*
X0085460Y0082428D01*
X0085515Y0082401D01*
X0085570Y0082378D01*
X0085627Y0082358D01*
X0085686Y0082342D01*
X0085745Y0082329D01*
X0085804Y0082320D01*
X0085865Y0082315D01*
X0085925Y0082313D01*
X0088925Y0082313D01*
X0088985Y0082315D01*
X0089046Y0082320D01*
X0089105Y0082329D01*
X0089164Y0082342D01*
X0089223Y0082358D01*
X0089280Y0082378D01*
X0089335Y0082401D01*
X0089390Y0082428D01*
X0089442Y0082457D01*
X0089493Y0082490D01*
X0089542Y0082526D01*
X0089588Y0082564D01*
X0089632Y0082606D01*
X0089674Y0082650D01*
X0089712Y0082696D01*
X0089748Y0082745D01*
X0089781Y0082796D01*
X0089810Y0082848D01*
X0089837Y0082903D01*
X0089860Y0082958D01*
X0089880Y0083015D01*
X0089896Y0083074D01*
X0089909Y0083133D01*
X0089918Y0083192D01*
X0089923Y0083253D01*
X0089925Y0083313D01*
X0039925Y0133313D02*
X0039925Y0141313D01*
X0039923Y0141373D01*
X0039918Y0141434D01*
X0039909Y0141493D01*
X0039896Y0141552D01*
X0039880Y0141611D01*
X0039860Y0141668D01*
X0039837Y0141723D01*
X0039810Y0141778D01*
X0039781Y0141830D01*
X0039748Y0141881D01*
X0039712Y0141930D01*
X0039674Y0141976D01*
X0039632Y0142020D01*
X0039588Y0142062D01*
X0039542Y0142100D01*
X0039493Y0142136D01*
X0039442Y0142169D01*
X0039390Y0142198D01*
X0039335Y0142225D01*
X0039280Y0142248D01*
X0039223Y0142268D01*
X0039164Y0142284D01*
X0039105Y0142297D01*
X0039046Y0142306D01*
X0038985Y0142311D01*
X0038925Y0142313D01*
X0035925Y0142313D01*
X0035865Y0142311D01*
X0035804Y0142306D01*
X0035745Y0142297D01*
X0035686Y0142284D01*
X0035627Y0142268D01*
X0035570Y0142248D01*
X0035515Y0142225D01*
X0035460Y0142198D01*
X0035408Y0142169D01*
X0035357Y0142136D01*
X0035308Y0142100D01*
X0035262Y0142062D01*
X0035218Y0142020D01*
X0035176Y0141976D01*
X0035138Y0141930D01*
X0035102Y0141881D01*
X0035069Y0141830D01*
X0035040Y0141778D01*
X0035013Y0141723D01*
X0034990Y0141668D01*
X0034970Y0141611D01*
X0034954Y0141552D01*
X0034941Y0141493D01*
X0034932Y0141434D01*
X0034927Y0141373D01*
X0034925Y0141313D01*
X0034925Y0133313D01*
X0034927Y0133253D01*
X0034932Y0133192D01*
X0034941Y0133133D01*
X0034954Y0133074D01*
X0034970Y0133015D01*
X0034990Y0132958D01*
X0035013Y0132903D01*
X0035040Y0132848D01*
X0035069Y0132796D01*
X0035102Y0132745D01*
X0035138Y0132696D01*
X0035176Y0132650D01*
X0035218Y0132606D01*
X0035262Y0132564D01*
X0035308Y0132526D01*
X0035357Y0132490D01*
X0035408Y0132457D01*
X0035460Y0132428D01*
X0035515Y0132401D01*
X0035570Y0132378D01*
X0035627Y0132358D01*
X0035686Y0132342D01*
X0035745Y0132329D01*
X0035804Y0132320D01*
X0035865Y0132315D01*
X0035925Y0132313D01*
X0038925Y0132313D01*
X0038985Y0132315D01*
X0039046Y0132320D01*
X0039105Y0132329D01*
X0039164Y0132342D01*
X0039223Y0132358D01*
X0039280Y0132378D01*
X0039335Y0132401D01*
X0039390Y0132428D01*
X0039442Y0132457D01*
X0039493Y0132490D01*
X0039542Y0132526D01*
X0039588Y0132564D01*
X0039632Y0132606D01*
X0039674Y0132650D01*
X0039712Y0132696D01*
X0039748Y0132745D01*
X0039781Y0132796D01*
X0039810Y0132848D01*
X0039837Y0132903D01*
X0039860Y0132958D01*
X0039880Y0133015D01*
X0039896Y0133074D01*
X0039909Y0133133D01*
X0039918Y0133192D01*
X0039923Y0133253D01*
X0039925Y0133313D01*
X0052425Y0145813D02*
X0052425Y0148813D01*
X0052427Y0148873D01*
X0052432Y0148934D01*
X0052441Y0148993D01*
X0052454Y0149052D01*
X0052470Y0149111D01*
X0052490Y0149168D01*
X0052513Y0149223D01*
X0052540Y0149278D01*
X0052569Y0149330D01*
X0052602Y0149381D01*
X0052638Y0149430D01*
X0052676Y0149476D01*
X0052718Y0149520D01*
X0052762Y0149562D01*
X0052808Y0149600D01*
X0052857Y0149636D01*
X0052908Y0149669D01*
X0052960Y0149698D01*
X0053015Y0149725D01*
X0053070Y0149748D01*
X0053127Y0149768D01*
X0053186Y0149784D01*
X0053245Y0149797D01*
X0053304Y0149806D01*
X0053365Y0149811D01*
X0053425Y0149813D01*
X0061425Y0149813D01*
X0061485Y0149811D01*
X0061546Y0149806D01*
X0061605Y0149797D01*
X0061664Y0149784D01*
X0061723Y0149768D01*
X0061780Y0149748D01*
X0061835Y0149725D01*
X0061890Y0149698D01*
X0061942Y0149669D01*
X0061993Y0149636D01*
X0062042Y0149600D01*
X0062088Y0149562D01*
X0062132Y0149520D01*
X0062174Y0149476D01*
X0062212Y0149430D01*
X0062248Y0149381D01*
X0062281Y0149330D01*
X0062310Y0149278D01*
X0062337Y0149223D01*
X0062360Y0149168D01*
X0062380Y0149111D01*
X0062396Y0149052D01*
X0062409Y0148993D01*
X0062418Y0148934D01*
X0062423Y0148873D01*
X0062425Y0148813D01*
X0062425Y0145813D01*
X0062423Y0145753D01*
X0062418Y0145692D01*
X0062409Y0145633D01*
X0062396Y0145574D01*
X0062380Y0145515D01*
X0062360Y0145458D01*
X0062337Y0145403D01*
X0062310Y0145348D01*
X0062281Y0145296D01*
X0062248Y0145245D01*
X0062212Y0145196D01*
X0062174Y0145150D01*
X0062132Y0145106D01*
X0062088Y0145064D01*
X0062042Y0145026D01*
X0061993Y0144990D01*
X0061942Y0144957D01*
X0061890Y0144928D01*
X0061835Y0144901D01*
X0061780Y0144878D01*
X0061723Y0144858D01*
X0061664Y0144842D01*
X0061605Y0144829D01*
X0061546Y0144820D01*
X0061485Y0144815D01*
X0061425Y0144813D01*
X0053425Y0144813D01*
X0053365Y0144815D01*
X0053304Y0144820D01*
X0053245Y0144829D01*
X0053186Y0144842D01*
X0053127Y0144858D01*
X0053070Y0144878D01*
X0053015Y0144901D01*
X0052960Y0144928D01*
X0052908Y0144957D01*
X0052857Y0144990D01*
X0052808Y0145026D01*
X0052762Y0145064D01*
X0052718Y0145106D01*
X0052676Y0145150D01*
X0052638Y0145196D01*
X0052602Y0145245D01*
X0052569Y0145296D01*
X0052540Y0145348D01*
X0052513Y0145403D01*
X0052490Y0145458D01*
X0052470Y0145515D01*
X0052454Y0145574D01*
X0052441Y0145633D01*
X0052432Y0145692D01*
X0052427Y0145753D01*
X0052425Y0145813D01*
X0053425Y0154813D02*
X0061425Y0154813D01*
X0061485Y0154815D01*
X0061546Y0154820D01*
X0061605Y0154829D01*
X0061664Y0154842D01*
X0061723Y0154858D01*
X0061780Y0154878D01*
X0061835Y0154901D01*
X0061890Y0154928D01*
X0061942Y0154957D01*
X0061993Y0154990D01*
X0062042Y0155026D01*
X0062088Y0155064D01*
X0062132Y0155106D01*
X0062174Y0155150D01*
X0062212Y0155196D01*
X0062248Y0155245D01*
X0062281Y0155296D01*
X0062310Y0155348D01*
X0062337Y0155403D01*
X0062360Y0155458D01*
X0062380Y0155515D01*
X0062396Y0155574D01*
X0062409Y0155633D01*
X0062418Y0155692D01*
X0062423Y0155753D01*
X0062425Y0155813D01*
X0062425Y0158813D01*
X0062423Y0158873D01*
X0062418Y0158934D01*
X0062409Y0158993D01*
X0062396Y0159052D01*
X0062380Y0159111D01*
X0062360Y0159168D01*
X0062337Y0159223D01*
X0062310Y0159278D01*
X0062281Y0159330D01*
X0062248Y0159381D01*
X0062212Y0159430D01*
X0062174Y0159476D01*
X0062132Y0159520D01*
X0062088Y0159562D01*
X0062042Y0159600D01*
X0061993Y0159636D01*
X0061942Y0159669D01*
X0061890Y0159698D01*
X0061835Y0159725D01*
X0061780Y0159748D01*
X0061723Y0159768D01*
X0061664Y0159784D01*
X0061605Y0159797D01*
X0061546Y0159806D01*
X0061485Y0159811D01*
X0061425Y0159813D01*
X0053425Y0159813D01*
X0053365Y0159811D01*
X0053304Y0159806D01*
X0053245Y0159797D01*
X0053186Y0159784D01*
X0053127Y0159768D01*
X0053070Y0159748D01*
X0053015Y0159725D01*
X0052960Y0159698D01*
X0052908Y0159669D01*
X0052857Y0159636D01*
X0052808Y0159600D01*
X0052762Y0159562D01*
X0052718Y0159520D01*
X0052676Y0159476D01*
X0052638Y0159430D01*
X0052602Y0159381D01*
X0052569Y0159330D01*
X0052540Y0159278D01*
X0052513Y0159223D01*
X0052490Y0159168D01*
X0052470Y0159111D01*
X0052454Y0159052D01*
X0052441Y0158993D01*
X0052432Y0158934D01*
X0052427Y0158873D01*
X0052425Y0158813D01*
X0052425Y0155813D01*
X0052427Y0155753D01*
X0052432Y0155692D01*
X0052441Y0155633D01*
X0052454Y0155574D01*
X0052470Y0155515D01*
X0052490Y0155458D01*
X0052513Y0155403D01*
X0052540Y0155348D01*
X0052569Y0155296D01*
X0052602Y0155245D01*
X0052638Y0155196D01*
X0052676Y0155150D01*
X0052718Y0155106D01*
X0052762Y0155064D01*
X0052808Y0155026D01*
X0052857Y0154990D01*
X0052908Y0154957D01*
X0052960Y0154928D01*
X0053015Y0154901D01*
X0053070Y0154878D01*
X0053127Y0154858D01*
X0053186Y0154842D01*
X0053245Y0154829D01*
X0053304Y0154820D01*
X0053365Y0154815D01*
X0053425Y0154813D01*
X0122425Y0148813D02*
X0122425Y0145813D01*
X0122427Y0145753D01*
X0122432Y0145692D01*
X0122441Y0145633D01*
X0122454Y0145574D01*
X0122470Y0145515D01*
X0122490Y0145458D01*
X0122513Y0145403D01*
X0122540Y0145348D01*
X0122569Y0145296D01*
X0122602Y0145245D01*
X0122638Y0145196D01*
X0122676Y0145150D01*
X0122718Y0145106D01*
X0122762Y0145064D01*
X0122808Y0145026D01*
X0122857Y0144990D01*
X0122908Y0144957D01*
X0122960Y0144928D01*
X0123015Y0144901D01*
X0123070Y0144878D01*
X0123127Y0144858D01*
X0123186Y0144842D01*
X0123245Y0144829D01*
X0123304Y0144820D01*
X0123365Y0144815D01*
X0123425Y0144813D01*
X0131425Y0144813D01*
X0131485Y0144815D01*
X0131546Y0144820D01*
X0131605Y0144829D01*
X0131664Y0144842D01*
X0131723Y0144858D01*
X0131780Y0144878D01*
X0131835Y0144901D01*
X0131890Y0144928D01*
X0131942Y0144957D01*
X0131993Y0144990D01*
X0132042Y0145026D01*
X0132088Y0145064D01*
X0132132Y0145106D01*
X0132174Y0145150D01*
X0132212Y0145196D01*
X0132248Y0145245D01*
X0132281Y0145296D01*
X0132310Y0145348D01*
X0132337Y0145403D01*
X0132360Y0145458D01*
X0132380Y0145515D01*
X0132396Y0145574D01*
X0132409Y0145633D01*
X0132418Y0145692D01*
X0132423Y0145753D01*
X0132425Y0145813D01*
X0132425Y0148813D01*
X0132423Y0148873D01*
X0132418Y0148934D01*
X0132409Y0148993D01*
X0132396Y0149052D01*
X0132380Y0149111D01*
X0132360Y0149168D01*
X0132337Y0149223D01*
X0132310Y0149278D01*
X0132281Y0149330D01*
X0132248Y0149381D01*
X0132212Y0149430D01*
X0132174Y0149476D01*
X0132132Y0149520D01*
X0132088Y0149562D01*
X0132042Y0149600D01*
X0131993Y0149636D01*
X0131942Y0149669D01*
X0131890Y0149698D01*
X0131835Y0149725D01*
X0131780Y0149748D01*
X0131723Y0149768D01*
X0131664Y0149784D01*
X0131605Y0149797D01*
X0131546Y0149806D01*
X0131485Y0149811D01*
X0131425Y0149813D01*
X0123425Y0149813D01*
X0123365Y0149811D01*
X0123304Y0149806D01*
X0123245Y0149797D01*
X0123186Y0149784D01*
X0123127Y0149768D01*
X0123070Y0149748D01*
X0123015Y0149725D01*
X0122960Y0149698D01*
X0122908Y0149669D01*
X0122857Y0149636D01*
X0122808Y0149600D01*
X0122762Y0149562D01*
X0122718Y0149520D01*
X0122676Y0149476D01*
X0122638Y0149430D01*
X0122602Y0149381D01*
X0122569Y0149330D01*
X0122540Y0149278D01*
X0122513Y0149223D01*
X0122490Y0149168D01*
X0122470Y0149111D01*
X0122454Y0149052D01*
X0122441Y0148993D01*
X0122432Y0148934D01*
X0122427Y0148873D01*
X0122425Y0148813D01*
D16*
X0121675Y0147313D03*
X0133175Y0147313D03*
X0063175Y0147313D03*
X0063175Y0157313D03*
X0051675Y0157313D03*
X0051675Y0147313D03*
D17*
X0037425Y0143063D03*
X0037425Y0131563D03*
X0087425Y0093063D03*
X0087425Y0081563D03*
X0117425Y0091563D03*
X0127425Y0091563D03*
X0127425Y0103063D03*
X0117425Y0103063D03*
D18*
X0051342Y0038376D02*
X0043508Y0038376D01*
X0043508Y0052156D01*
X0051342Y0052156D01*
X0053311Y0053337D01*
X0053311Y0067353D01*
X0052917Y0066565D02*
X0041933Y0064498D01*
X0041933Y0062530D02*
X0052917Y0064597D01*
X0052917Y0062628D02*
X0041933Y0060561D01*
X0041933Y0058593D02*
X0052917Y0060660D01*
X0052917Y0058691D02*
X0041933Y0056624D01*
X0041933Y0054656D02*
X0052917Y0056723D01*
X0052917Y0054912D02*
X0042819Y0052845D01*
X0043508Y0052156D02*
X0041539Y0053337D01*
X0041539Y0067353D01*
X0033882Y0067353D02*
X0033882Y0059872D01*
X0029551Y0059872D01*
X0029551Y0067746D01*
X0029551Y0083234D01*
X0065299Y0083234D01*
X0065299Y0067746D01*
X0029551Y0067746D01*
X0029551Y0070620D02*
X0065299Y0070620D01*
X0051342Y0052156D02*
X0051342Y0038376D01*
D19*
X0101889Y0164433D02*
X0103357Y0165534D01*
X0101889Y0166635D01*
X0104099Y0166635D02*
X0104099Y0164433D01*
X0105567Y0164433D02*
X0104099Y0166635D01*
X0105567Y0166635D02*
X0105567Y0164433D01*
X0106309Y0164433D02*
X0106309Y0165901D01*
X0107043Y0166635D01*
X0107777Y0165901D01*
X0107777Y0164433D01*
X0108519Y0164433D02*
X0108519Y0166635D01*
X0109253Y0165901D01*
X0109987Y0166635D01*
X0109987Y0164433D01*
X0110729Y0164433D02*
X0110729Y0166635D01*
X0112196Y0166635D01*
X0111889Y0166635D02*
X0113357Y0165534D01*
X0111889Y0164433D01*
X0112196Y0164433D02*
X0110729Y0164433D01*
X0110729Y0165534D02*
X0111462Y0165534D01*
X0114099Y0164433D02*
X0114099Y0166635D01*
X0115567Y0164433D01*
X0115567Y0166635D01*
X0116309Y0165901D02*
X0117043Y0166635D01*
X0117777Y0165901D01*
X0117777Y0164433D01*
X0118519Y0164433D02*
X0118519Y0166635D01*
X0119253Y0165901D01*
X0119987Y0166635D01*
X0119987Y0164433D01*
X0120729Y0164433D02*
X0120729Y0166635D01*
X0122196Y0166635D01*
X0121889Y0166635D02*
X0123357Y0165534D01*
X0121889Y0164433D01*
X0122196Y0164433D02*
X0120729Y0164433D01*
X0120729Y0165534D02*
X0121462Y0165534D01*
X0124099Y0164433D02*
X0124099Y0166635D01*
X0125567Y0164433D01*
X0125567Y0166635D01*
X0126309Y0165901D02*
X0127043Y0166635D01*
X0127777Y0165901D01*
X0127777Y0164433D01*
X0128519Y0164433D02*
X0128519Y0166635D01*
X0129253Y0165901D01*
X0129987Y0166635D01*
X0129987Y0164433D01*
X0130729Y0164433D02*
X0130729Y0166635D01*
X0132196Y0166635D01*
X0131462Y0165534D02*
X0130729Y0165534D01*
X0130729Y0164433D02*
X0132196Y0164433D01*
X0127777Y0165534D02*
X0126309Y0165534D01*
X0126309Y0165901D02*
X0126309Y0164433D01*
X0117777Y0165534D02*
X0116309Y0165534D01*
X0116309Y0165901D02*
X0116309Y0164433D01*
X0107777Y0165534D02*
X0106309Y0165534D01*
M02*
