G75*
%MOIN*%
%OFA0B0*%
%FSLAX25Y25*%
%IPPOS*%
%LPD*%
%AMOC8*
5,1,8,0,0,1.08239X$1,22.5*
%
%ADD10C,0.00000*%
%ADD11C,0.05543*%
%ADD12OC8,0.05200*%
%ADD13C,0.05150*%
%ADD14C,0.07000*%
%ADD15C,0.05000*%
%ADD16R,0.03962X0.03962*%
D10*
X0027425Y0067313D02*
X0147425Y0067313D01*
X0147425Y0167313D01*
X0027425Y0167313D01*
X0027425Y0067313D01*
D11*
X0067425Y0077313D03*
X0067425Y0097313D03*
X0087425Y0097313D03*
X0087425Y0077313D03*
X0117425Y0087313D03*
X0127425Y0087313D03*
X0127425Y0107313D03*
X0117425Y0107313D03*
X0117425Y0147313D03*
X0137425Y0147313D03*
X0067425Y0147313D03*
X0067425Y0157313D03*
X0047425Y0157313D03*
X0047425Y0147313D03*
X0037425Y0147313D03*
X0037425Y0127313D03*
D12*
X0127425Y0127313D03*
X0127425Y0117313D03*
D13*
X0107425Y0109888D02*
X0107425Y0104738D01*
X0097425Y0104738D02*
X0097425Y0109888D01*
X0087425Y0109888D02*
X0087425Y0104738D01*
X0077425Y0104738D02*
X0077425Y0109888D01*
X0067425Y0109888D02*
X0067425Y0104738D01*
X0057425Y0104738D02*
X0057425Y0109888D01*
X0047425Y0109888D02*
X0047425Y0104738D01*
X0047425Y0134738D02*
X0047425Y0139888D01*
X0057425Y0139888D02*
X0057425Y0134738D01*
X0067425Y0134738D02*
X0067425Y0139888D01*
X0077425Y0139888D02*
X0077425Y0134738D01*
X0087425Y0134738D02*
X0087425Y0139888D01*
X0097425Y0139888D02*
X0097425Y0134738D01*
X0107425Y0134738D02*
X0107425Y0139888D01*
D14*
X0107425Y0157313D03*
X0097425Y0157313D03*
X0087425Y0157313D03*
X0107425Y0097313D03*
X0107425Y0087313D03*
X0107425Y0077313D03*
X0137425Y0077313D03*
X0137425Y0087313D03*
X0057425Y0077313D03*
X0047425Y0077313D03*
X0037425Y0077313D03*
D15*
X0077425Y0077313D02*
X0077425Y0097313D01*
X0117425Y0117313D02*
X0117425Y0137313D01*
D16*
X0117425Y0137313D03*
X0117425Y0117313D03*
X0077425Y0097313D03*
X0077425Y0077313D03*
M02*
