%
M48
M72
T01C0.02362
T02C0.03150
T03C0.03200
T04C0.03543
%
T01
X7742Y7731
X7742Y9731
X11742Y11731
X11742Y13731
T02
X10742Y13731
X9742Y13731
X8742Y13731
X7742Y13731
X6742Y13731
X5742Y13731
X4742Y13731
X4742Y10731
X5742Y10731
X6742Y10731
X7742Y10731
X8742Y10731
X9742Y10731
X10742Y10731
T03
X12742Y11731
X12742Y12731
T04
X3742Y7731
X4742Y7731
X5742Y7731
X6742Y7731
X6742Y9731
X8742Y9731
X8742Y7731
X10742Y7731
X10742Y8731
X10742Y9731
X11742Y8731
X12742Y8731
X13742Y8731
X13742Y7731
X12742Y10731
X11742Y10731
X11742Y14731
X10742Y15731
X9742Y15731
X8742Y15731
X6742Y15731
X6742Y14731
X4742Y14731
X3742Y14731
X4742Y15731
X3742Y12731
X13742Y14731
M30
