G75*
%MOIN*%
%OFA0B0*%
%FSLAX25Y25*%
%IPPOS*%
%LPD*%
%AMOC8*
5,1,8,0,0,1.08239X$1,22.5*
%
%ADD10C,0.00600*%
%ADD11C,0.00200*%
%ADD12R,0.06400X0.01000*%
%ADD13R,0.02000X0.08000*%
%ADD14C,0.00300*%
%ADD15C,0.00400*%
%ADD16R,0.01000X0.05000*%
%ADD17R,0.02200X0.00800*%
%ADD18R,0.01500X0.01000*%
%ADD19R,0.01500X0.02000*%
%ADD20C,0.00500*%
%ADD21C,0.00100*%
D10*
X0060318Y0053886D02*
X0060320Y0054082D01*
X0060328Y0054279D01*
X0060340Y0054475D01*
X0060357Y0054670D01*
X0060378Y0054865D01*
X0060405Y0055060D01*
X0060436Y0055254D01*
X0060472Y0055447D01*
X0060512Y0055639D01*
X0060558Y0055830D01*
X0060608Y0056020D01*
X0060662Y0056208D01*
X0060722Y0056395D01*
X0060786Y0056581D01*
X0060854Y0056765D01*
X0060927Y0056947D01*
X0061004Y0057128D01*
X0061086Y0057306D01*
X0061172Y0057483D01*
X0061263Y0057657D01*
X0061357Y0057829D01*
X0061456Y0057999D01*
X0061559Y0058166D01*
X0061666Y0058331D01*
X0061777Y0058492D01*
X0061892Y0058652D01*
X0062011Y0058808D01*
X0062134Y0058961D01*
X0062260Y0059111D01*
X0062390Y0059258D01*
X0062524Y0059402D01*
X0062661Y0059543D01*
X0062802Y0059680D01*
X0062946Y0059814D01*
X0063093Y0059944D01*
X0063243Y0060070D01*
X0063396Y0060193D01*
X0063552Y0060312D01*
X0063712Y0060427D01*
X0063873Y0060538D01*
X0064038Y0060645D01*
X0064205Y0060748D01*
X0064375Y0060847D01*
X0064547Y0060941D01*
X0064721Y0061032D01*
X0064898Y0061118D01*
X0065076Y0061200D01*
X0065257Y0061277D01*
X0065439Y0061350D01*
X0065623Y0061418D01*
X0065809Y0061482D01*
X0065996Y0061542D01*
X0066184Y0061596D01*
X0066374Y0061646D01*
X0066565Y0061692D01*
X0066757Y0061732D01*
X0066950Y0061768D01*
X0067144Y0061799D01*
X0067339Y0061826D01*
X0067534Y0061847D01*
X0067729Y0061864D01*
X0067925Y0061876D01*
X0068122Y0061884D01*
X0068318Y0061886D01*
X0068514Y0061884D01*
X0068711Y0061876D01*
X0068907Y0061864D01*
X0069102Y0061847D01*
X0069297Y0061826D01*
X0069492Y0061799D01*
X0069686Y0061768D01*
X0069879Y0061732D01*
X0070071Y0061692D01*
X0070262Y0061646D01*
X0070452Y0061596D01*
X0070640Y0061542D01*
X0070827Y0061482D01*
X0071013Y0061418D01*
X0071197Y0061350D01*
X0071379Y0061277D01*
X0071560Y0061200D01*
X0071738Y0061118D01*
X0071915Y0061032D01*
X0072089Y0060941D01*
X0072261Y0060847D01*
X0072431Y0060748D01*
X0072598Y0060645D01*
X0072763Y0060538D01*
X0072924Y0060427D01*
X0073084Y0060312D01*
X0073240Y0060193D01*
X0073393Y0060070D01*
X0073543Y0059944D01*
X0073690Y0059814D01*
X0073834Y0059680D01*
X0073975Y0059543D01*
X0074112Y0059402D01*
X0074246Y0059258D01*
X0074376Y0059111D01*
X0074502Y0058961D01*
X0074625Y0058808D01*
X0074744Y0058652D01*
X0074859Y0058492D01*
X0074970Y0058331D01*
X0075077Y0058166D01*
X0075180Y0057999D01*
X0075279Y0057829D01*
X0075373Y0057657D01*
X0075464Y0057483D01*
X0075550Y0057306D01*
X0075632Y0057128D01*
X0075709Y0056947D01*
X0075782Y0056765D01*
X0075850Y0056581D01*
X0075914Y0056395D01*
X0075974Y0056208D01*
X0076028Y0056020D01*
X0076078Y0055830D01*
X0076124Y0055639D01*
X0076164Y0055447D01*
X0076200Y0055254D01*
X0076231Y0055060D01*
X0076258Y0054865D01*
X0076279Y0054670D01*
X0076296Y0054475D01*
X0076308Y0054279D01*
X0076316Y0054082D01*
X0076318Y0053886D01*
X0076316Y0053690D01*
X0076308Y0053493D01*
X0076296Y0053297D01*
X0076279Y0053102D01*
X0076258Y0052907D01*
X0076231Y0052712D01*
X0076200Y0052518D01*
X0076164Y0052325D01*
X0076124Y0052133D01*
X0076078Y0051942D01*
X0076028Y0051752D01*
X0075974Y0051564D01*
X0075914Y0051377D01*
X0075850Y0051191D01*
X0075782Y0051007D01*
X0075709Y0050825D01*
X0075632Y0050644D01*
X0075550Y0050466D01*
X0075464Y0050289D01*
X0075373Y0050115D01*
X0075279Y0049943D01*
X0075180Y0049773D01*
X0075077Y0049606D01*
X0074970Y0049441D01*
X0074859Y0049280D01*
X0074744Y0049120D01*
X0074625Y0048964D01*
X0074502Y0048811D01*
X0074376Y0048661D01*
X0074246Y0048514D01*
X0074112Y0048370D01*
X0073975Y0048229D01*
X0073834Y0048092D01*
X0073690Y0047958D01*
X0073543Y0047828D01*
X0073393Y0047702D01*
X0073240Y0047579D01*
X0073084Y0047460D01*
X0072924Y0047345D01*
X0072763Y0047234D01*
X0072598Y0047127D01*
X0072431Y0047024D01*
X0072261Y0046925D01*
X0072089Y0046831D01*
X0071915Y0046740D01*
X0071738Y0046654D01*
X0071560Y0046572D01*
X0071379Y0046495D01*
X0071197Y0046422D01*
X0071013Y0046354D01*
X0070827Y0046290D01*
X0070640Y0046230D01*
X0070452Y0046176D01*
X0070262Y0046126D01*
X0070071Y0046080D01*
X0069879Y0046040D01*
X0069686Y0046004D01*
X0069492Y0045973D01*
X0069297Y0045946D01*
X0069102Y0045925D01*
X0068907Y0045908D01*
X0068711Y0045896D01*
X0068514Y0045888D01*
X0068318Y0045886D01*
X0068122Y0045888D01*
X0067925Y0045896D01*
X0067729Y0045908D01*
X0067534Y0045925D01*
X0067339Y0045946D01*
X0067144Y0045973D01*
X0066950Y0046004D01*
X0066757Y0046040D01*
X0066565Y0046080D01*
X0066374Y0046126D01*
X0066184Y0046176D01*
X0065996Y0046230D01*
X0065809Y0046290D01*
X0065623Y0046354D01*
X0065439Y0046422D01*
X0065257Y0046495D01*
X0065076Y0046572D01*
X0064898Y0046654D01*
X0064721Y0046740D01*
X0064547Y0046831D01*
X0064375Y0046925D01*
X0064205Y0047024D01*
X0064038Y0047127D01*
X0063873Y0047234D01*
X0063712Y0047345D01*
X0063552Y0047460D01*
X0063396Y0047579D01*
X0063243Y0047702D01*
X0063093Y0047828D01*
X0062946Y0047958D01*
X0062802Y0048092D01*
X0062661Y0048229D01*
X0062524Y0048370D01*
X0062390Y0048514D01*
X0062260Y0048661D01*
X0062134Y0048811D01*
X0062011Y0048964D01*
X0061892Y0049120D01*
X0061777Y0049280D01*
X0061666Y0049441D01*
X0061559Y0049606D01*
X0061456Y0049773D01*
X0061357Y0049943D01*
X0061263Y0050115D01*
X0061172Y0050289D01*
X0061086Y0050466D01*
X0061004Y0050644D01*
X0060927Y0050825D01*
X0060854Y0051007D01*
X0060786Y0051191D01*
X0060722Y0051377D01*
X0060662Y0051564D01*
X0060608Y0051752D01*
X0060558Y0051942D01*
X0060512Y0052133D01*
X0060472Y0052325D01*
X0060436Y0052518D01*
X0060405Y0052712D01*
X0060378Y0052907D01*
X0060357Y0053102D01*
X0060340Y0053297D01*
X0060328Y0053493D01*
X0060320Y0053690D01*
X0060318Y0053886D01*
X0072568Y0057886D02*
X0073318Y0057886D01*
X0074068Y0057886D01*
X0073318Y0057886D02*
X0073318Y0057136D01*
X0073318Y0057886D02*
X0073318Y0058636D01*
X0050318Y0073886D02*
X0050320Y0074082D01*
X0050328Y0074279D01*
X0050340Y0074475D01*
X0050357Y0074670D01*
X0050378Y0074865D01*
X0050405Y0075060D01*
X0050436Y0075254D01*
X0050472Y0075447D01*
X0050512Y0075639D01*
X0050558Y0075830D01*
X0050608Y0076020D01*
X0050662Y0076208D01*
X0050722Y0076395D01*
X0050786Y0076581D01*
X0050854Y0076765D01*
X0050927Y0076947D01*
X0051004Y0077128D01*
X0051086Y0077306D01*
X0051172Y0077483D01*
X0051263Y0077657D01*
X0051357Y0077829D01*
X0051456Y0077999D01*
X0051559Y0078166D01*
X0051666Y0078331D01*
X0051777Y0078492D01*
X0051892Y0078652D01*
X0052011Y0078808D01*
X0052134Y0078961D01*
X0052260Y0079111D01*
X0052390Y0079258D01*
X0052524Y0079402D01*
X0052661Y0079543D01*
X0052802Y0079680D01*
X0052946Y0079814D01*
X0053093Y0079944D01*
X0053243Y0080070D01*
X0053396Y0080193D01*
X0053552Y0080312D01*
X0053712Y0080427D01*
X0053873Y0080538D01*
X0054038Y0080645D01*
X0054205Y0080748D01*
X0054375Y0080847D01*
X0054547Y0080941D01*
X0054721Y0081032D01*
X0054898Y0081118D01*
X0055076Y0081200D01*
X0055257Y0081277D01*
X0055439Y0081350D01*
X0055623Y0081418D01*
X0055809Y0081482D01*
X0055996Y0081542D01*
X0056184Y0081596D01*
X0056374Y0081646D01*
X0056565Y0081692D01*
X0056757Y0081732D01*
X0056950Y0081768D01*
X0057144Y0081799D01*
X0057339Y0081826D01*
X0057534Y0081847D01*
X0057729Y0081864D01*
X0057925Y0081876D01*
X0058122Y0081884D01*
X0058318Y0081886D01*
X0058514Y0081884D01*
X0058711Y0081876D01*
X0058907Y0081864D01*
X0059102Y0081847D01*
X0059297Y0081826D01*
X0059492Y0081799D01*
X0059686Y0081768D01*
X0059879Y0081732D01*
X0060071Y0081692D01*
X0060262Y0081646D01*
X0060452Y0081596D01*
X0060640Y0081542D01*
X0060827Y0081482D01*
X0061013Y0081418D01*
X0061197Y0081350D01*
X0061379Y0081277D01*
X0061560Y0081200D01*
X0061738Y0081118D01*
X0061915Y0081032D01*
X0062089Y0080941D01*
X0062261Y0080847D01*
X0062431Y0080748D01*
X0062598Y0080645D01*
X0062763Y0080538D01*
X0062924Y0080427D01*
X0063084Y0080312D01*
X0063240Y0080193D01*
X0063393Y0080070D01*
X0063543Y0079944D01*
X0063690Y0079814D01*
X0063834Y0079680D01*
X0063975Y0079543D01*
X0064112Y0079402D01*
X0064246Y0079258D01*
X0064376Y0079111D01*
X0064502Y0078961D01*
X0064625Y0078808D01*
X0064744Y0078652D01*
X0064859Y0078492D01*
X0064970Y0078331D01*
X0065077Y0078166D01*
X0065180Y0077999D01*
X0065279Y0077829D01*
X0065373Y0077657D01*
X0065464Y0077483D01*
X0065550Y0077306D01*
X0065632Y0077128D01*
X0065709Y0076947D01*
X0065782Y0076765D01*
X0065850Y0076581D01*
X0065914Y0076395D01*
X0065974Y0076208D01*
X0066028Y0076020D01*
X0066078Y0075830D01*
X0066124Y0075639D01*
X0066164Y0075447D01*
X0066200Y0075254D01*
X0066231Y0075060D01*
X0066258Y0074865D01*
X0066279Y0074670D01*
X0066296Y0074475D01*
X0066308Y0074279D01*
X0066316Y0074082D01*
X0066318Y0073886D01*
X0066316Y0073690D01*
X0066308Y0073493D01*
X0066296Y0073297D01*
X0066279Y0073102D01*
X0066258Y0072907D01*
X0066231Y0072712D01*
X0066200Y0072518D01*
X0066164Y0072325D01*
X0066124Y0072133D01*
X0066078Y0071942D01*
X0066028Y0071752D01*
X0065974Y0071564D01*
X0065914Y0071377D01*
X0065850Y0071191D01*
X0065782Y0071007D01*
X0065709Y0070825D01*
X0065632Y0070644D01*
X0065550Y0070466D01*
X0065464Y0070289D01*
X0065373Y0070115D01*
X0065279Y0069943D01*
X0065180Y0069773D01*
X0065077Y0069606D01*
X0064970Y0069441D01*
X0064859Y0069280D01*
X0064744Y0069120D01*
X0064625Y0068964D01*
X0064502Y0068811D01*
X0064376Y0068661D01*
X0064246Y0068514D01*
X0064112Y0068370D01*
X0063975Y0068229D01*
X0063834Y0068092D01*
X0063690Y0067958D01*
X0063543Y0067828D01*
X0063393Y0067702D01*
X0063240Y0067579D01*
X0063084Y0067460D01*
X0062924Y0067345D01*
X0062763Y0067234D01*
X0062598Y0067127D01*
X0062431Y0067024D01*
X0062261Y0066925D01*
X0062089Y0066831D01*
X0061915Y0066740D01*
X0061738Y0066654D01*
X0061560Y0066572D01*
X0061379Y0066495D01*
X0061197Y0066422D01*
X0061013Y0066354D01*
X0060827Y0066290D01*
X0060640Y0066230D01*
X0060452Y0066176D01*
X0060262Y0066126D01*
X0060071Y0066080D01*
X0059879Y0066040D01*
X0059686Y0066004D01*
X0059492Y0065973D01*
X0059297Y0065946D01*
X0059102Y0065925D01*
X0058907Y0065908D01*
X0058711Y0065896D01*
X0058514Y0065888D01*
X0058318Y0065886D01*
X0058122Y0065888D01*
X0057925Y0065896D01*
X0057729Y0065908D01*
X0057534Y0065925D01*
X0057339Y0065946D01*
X0057144Y0065973D01*
X0056950Y0066004D01*
X0056757Y0066040D01*
X0056565Y0066080D01*
X0056374Y0066126D01*
X0056184Y0066176D01*
X0055996Y0066230D01*
X0055809Y0066290D01*
X0055623Y0066354D01*
X0055439Y0066422D01*
X0055257Y0066495D01*
X0055076Y0066572D01*
X0054898Y0066654D01*
X0054721Y0066740D01*
X0054547Y0066831D01*
X0054375Y0066925D01*
X0054205Y0067024D01*
X0054038Y0067127D01*
X0053873Y0067234D01*
X0053712Y0067345D01*
X0053552Y0067460D01*
X0053396Y0067579D01*
X0053243Y0067702D01*
X0053093Y0067828D01*
X0052946Y0067958D01*
X0052802Y0068092D01*
X0052661Y0068229D01*
X0052524Y0068370D01*
X0052390Y0068514D01*
X0052260Y0068661D01*
X0052134Y0068811D01*
X0052011Y0068964D01*
X0051892Y0069120D01*
X0051777Y0069280D01*
X0051666Y0069441D01*
X0051559Y0069606D01*
X0051456Y0069773D01*
X0051357Y0069943D01*
X0051263Y0070115D01*
X0051172Y0070289D01*
X0051086Y0070466D01*
X0051004Y0070644D01*
X0050927Y0070825D01*
X0050854Y0071007D01*
X0050786Y0071191D01*
X0050722Y0071377D01*
X0050662Y0071564D01*
X0050608Y0071752D01*
X0050558Y0071942D01*
X0050512Y0072133D01*
X0050472Y0072325D01*
X0050436Y0072518D01*
X0050405Y0072712D01*
X0050378Y0072907D01*
X0050357Y0073102D01*
X0050340Y0073297D01*
X0050328Y0073493D01*
X0050320Y0073690D01*
X0050318Y0073886D01*
X0053318Y0070636D02*
X0053318Y0069886D01*
X0052568Y0069886D01*
X0053318Y0069886D02*
X0054068Y0069886D01*
X0053318Y0069886D02*
X0053318Y0069136D01*
X0078318Y0087386D02*
X0078318Y0090386D01*
X0078320Y0090446D01*
X0078325Y0090507D01*
X0078334Y0090566D01*
X0078347Y0090625D01*
X0078363Y0090684D01*
X0078383Y0090741D01*
X0078406Y0090796D01*
X0078433Y0090851D01*
X0078462Y0090903D01*
X0078495Y0090954D01*
X0078531Y0091003D01*
X0078569Y0091049D01*
X0078611Y0091093D01*
X0078655Y0091135D01*
X0078701Y0091173D01*
X0078750Y0091209D01*
X0078801Y0091242D01*
X0078853Y0091271D01*
X0078908Y0091298D01*
X0078963Y0091321D01*
X0079020Y0091341D01*
X0079079Y0091357D01*
X0079138Y0091370D01*
X0079197Y0091379D01*
X0079258Y0091384D01*
X0079318Y0091386D01*
X0087318Y0091386D01*
X0087378Y0091384D01*
X0087439Y0091379D01*
X0087498Y0091370D01*
X0087557Y0091357D01*
X0087616Y0091341D01*
X0087673Y0091321D01*
X0087728Y0091298D01*
X0087783Y0091271D01*
X0087835Y0091242D01*
X0087886Y0091209D01*
X0087935Y0091173D01*
X0087981Y0091135D01*
X0088025Y0091093D01*
X0088067Y0091049D01*
X0088105Y0091003D01*
X0088141Y0090954D01*
X0088174Y0090903D01*
X0088203Y0090851D01*
X0088230Y0090796D01*
X0088253Y0090741D01*
X0088273Y0090684D01*
X0088289Y0090625D01*
X0088302Y0090566D01*
X0088311Y0090507D01*
X0088316Y0090446D01*
X0088318Y0090386D01*
X0088318Y0087386D01*
X0088316Y0087326D01*
X0088311Y0087265D01*
X0088302Y0087206D01*
X0088289Y0087147D01*
X0088273Y0087088D01*
X0088253Y0087031D01*
X0088230Y0086976D01*
X0088203Y0086921D01*
X0088174Y0086869D01*
X0088141Y0086818D01*
X0088105Y0086769D01*
X0088067Y0086723D01*
X0088025Y0086679D01*
X0087981Y0086637D01*
X0087935Y0086599D01*
X0087886Y0086563D01*
X0087835Y0086530D01*
X0087783Y0086501D01*
X0087728Y0086474D01*
X0087673Y0086451D01*
X0087616Y0086431D01*
X0087557Y0086415D01*
X0087498Y0086402D01*
X0087439Y0086393D01*
X0087378Y0086388D01*
X0087318Y0086386D01*
X0079318Y0086386D01*
X0079258Y0086388D01*
X0079197Y0086393D01*
X0079138Y0086402D01*
X0079079Y0086415D01*
X0079020Y0086431D01*
X0078963Y0086451D01*
X0078908Y0086474D01*
X0078853Y0086501D01*
X0078801Y0086530D01*
X0078750Y0086563D01*
X0078701Y0086599D01*
X0078655Y0086637D01*
X0078611Y0086679D01*
X0078569Y0086723D01*
X0078531Y0086769D01*
X0078495Y0086818D01*
X0078462Y0086869D01*
X0078433Y0086921D01*
X0078406Y0086976D01*
X0078383Y0087031D01*
X0078363Y0087088D01*
X0078347Y0087147D01*
X0078334Y0087206D01*
X0078325Y0087265D01*
X0078320Y0087326D01*
X0078318Y0087386D01*
X0078320Y0087326D01*
X0078325Y0087265D01*
X0078334Y0087206D01*
X0078347Y0087147D01*
X0078363Y0087088D01*
X0078383Y0087031D01*
X0078406Y0086976D01*
X0078433Y0086921D01*
X0078462Y0086869D01*
X0078495Y0086818D01*
X0078531Y0086769D01*
X0078569Y0086723D01*
X0078611Y0086679D01*
X0078655Y0086637D01*
X0078701Y0086599D01*
X0078750Y0086563D01*
X0078801Y0086530D01*
X0078853Y0086501D01*
X0078908Y0086474D01*
X0078963Y0086451D01*
X0079020Y0086431D01*
X0079079Y0086415D01*
X0079138Y0086402D01*
X0079197Y0086393D01*
X0079258Y0086388D01*
X0079318Y0086386D01*
X0078318Y0090386D02*
X0078320Y0090446D01*
X0078325Y0090507D01*
X0078334Y0090566D01*
X0078347Y0090625D01*
X0078363Y0090684D01*
X0078383Y0090741D01*
X0078406Y0090796D01*
X0078433Y0090851D01*
X0078462Y0090903D01*
X0078495Y0090954D01*
X0078531Y0091003D01*
X0078569Y0091049D01*
X0078611Y0091093D01*
X0078655Y0091135D01*
X0078701Y0091173D01*
X0078750Y0091209D01*
X0078801Y0091242D01*
X0078853Y0091271D01*
X0078908Y0091298D01*
X0078963Y0091321D01*
X0079020Y0091341D01*
X0079079Y0091357D01*
X0079138Y0091370D01*
X0079197Y0091379D01*
X0079258Y0091384D01*
X0079318Y0091386D01*
X0087318Y0091386D02*
X0087378Y0091384D01*
X0087439Y0091379D01*
X0087498Y0091370D01*
X0087557Y0091357D01*
X0087616Y0091341D01*
X0087673Y0091321D01*
X0087728Y0091298D01*
X0087783Y0091271D01*
X0087835Y0091242D01*
X0087886Y0091209D01*
X0087935Y0091173D01*
X0087981Y0091135D01*
X0088025Y0091093D01*
X0088067Y0091049D01*
X0088105Y0091003D01*
X0088141Y0090954D01*
X0088174Y0090903D01*
X0088203Y0090851D01*
X0088230Y0090796D01*
X0088253Y0090741D01*
X0088273Y0090684D01*
X0088289Y0090625D01*
X0088302Y0090566D01*
X0088311Y0090507D01*
X0088316Y0090446D01*
X0088318Y0090386D01*
X0088318Y0087386D02*
X0088316Y0087326D01*
X0088311Y0087265D01*
X0088302Y0087206D01*
X0088289Y0087147D01*
X0088273Y0087088D01*
X0088253Y0087031D01*
X0088230Y0086976D01*
X0088203Y0086921D01*
X0088174Y0086869D01*
X0088141Y0086818D01*
X0088105Y0086769D01*
X0088067Y0086723D01*
X0088025Y0086679D01*
X0087981Y0086637D01*
X0087935Y0086599D01*
X0087886Y0086563D01*
X0087835Y0086530D01*
X0087783Y0086501D01*
X0087728Y0086474D01*
X0087673Y0086451D01*
X0087616Y0086431D01*
X0087557Y0086415D01*
X0087498Y0086402D01*
X0087439Y0086393D01*
X0087378Y0086388D01*
X0087318Y0086386D01*
X0103318Y0060386D02*
X0103318Y0059386D01*
X0104318Y0059386D01*
X0103318Y0059386D02*
X0103318Y0058386D01*
X0103318Y0059386D02*
X0102318Y0059386D01*
X0088318Y0053886D02*
X0088321Y0054131D01*
X0088330Y0054377D01*
X0088345Y0054622D01*
X0088366Y0054866D01*
X0088393Y0055110D01*
X0088426Y0055353D01*
X0088465Y0055596D01*
X0088510Y0055837D01*
X0088561Y0056077D01*
X0088618Y0056316D01*
X0088680Y0056553D01*
X0088749Y0056789D01*
X0088823Y0057023D01*
X0088903Y0057255D01*
X0088988Y0057485D01*
X0089079Y0057713D01*
X0089176Y0057938D01*
X0089278Y0058162D01*
X0089386Y0058382D01*
X0089499Y0058600D01*
X0089617Y0058815D01*
X0089741Y0059027D01*
X0089869Y0059236D01*
X0090003Y0059442D01*
X0090142Y0059644D01*
X0090286Y0059843D01*
X0090435Y0060038D01*
X0090588Y0060230D01*
X0090746Y0060418D01*
X0090908Y0060602D01*
X0091076Y0060781D01*
X0091247Y0060957D01*
X0091423Y0061128D01*
X0091602Y0061296D01*
X0091786Y0061458D01*
X0091974Y0061616D01*
X0092166Y0061769D01*
X0092361Y0061918D01*
X0092560Y0062062D01*
X0092762Y0062201D01*
X0092968Y0062335D01*
X0093177Y0062463D01*
X0093389Y0062587D01*
X0093604Y0062705D01*
X0093822Y0062818D01*
X0094042Y0062926D01*
X0094266Y0063028D01*
X0094491Y0063125D01*
X0094719Y0063216D01*
X0094949Y0063301D01*
X0095181Y0063381D01*
X0095415Y0063455D01*
X0095651Y0063524D01*
X0095888Y0063586D01*
X0096127Y0063643D01*
X0096367Y0063694D01*
X0096608Y0063739D01*
X0096851Y0063778D01*
X0097094Y0063811D01*
X0097338Y0063838D01*
X0097582Y0063859D01*
X0097827Y0063874D01*
X0098073Y0063883D01*
X0098318Y0063886D01*
X0098563Y0063883D01*
X0098809Y0063874D01*
X0099054Y0063859D01*
X0099298Y0063838D01*
X0099542Y0063811D01*
X0099785Y0063778D01*
X0100028Y0063739D01*
X0100269Y0063694D01*
X0100509Y0063643D01*
X0100748Y0063586D01*
X0100985Y0063524D01*
X0101221Y0063455D01*
X0101455Y0063381D01*
X0101687Y0063301D01*
X0101917Y0063216D01*
X0102145Y0063125D01*
X0102370Y0063028D01*
X0102594Y0062926D01*
X0102814Y0062818D01*
X0103032Y0062705D01*
X0103247Y0062587D01*
X0103459Y0062463D01*
X0103668Y0062335D01*
X0103874Y0062201D01*
X0104076Y0062062D01*
X0104275Y0061918D01*
X0104470Y0061769D01*
X0104662Y0061616D01*
X0104850Y0061458D01*
X0105034Y0061296D01*
X0105213Y0061128D01*
X0105389Y0060957D01*
X0105560Y0060781D01*
X0105728Y0060602D01*
X0105890Y0060418D01*
X0106048Y0060230D01*
X0106201Y0060038D01*
X0106350Y0059843D01*
X0106494Y0059644D01*
X0106633Y0059442D01*
X0106767Y0059236D01*
X0106895Y0059027D01*
X0107019Y0058815D01*
X0107137Y0058600D01*
X0107250Y0058382D01*
X0107358Y0058162D01*
X0107460Y0057938D01*
X0107557Y0057713D01*
X0107648Y0057485D01*
X0107733Y0057255D01*
X0107813Y0057023D01*
X0107887Y0056789D01*
X0107956Y0056553D01*
X0108018Y0056316D01*
X0108075Y0056077D01*
X0108126Y0055837D01*
X0108171Y0055596D01*
X0108210Y0055353D01*
X0108243Y0055110D01*
X0108270Y0054866D01*
X0108291Y0054622D01*
X0108306Y0054377D01*
X0108315Y0054131D01*
X0108318Y0053886D01*
X0108315Y0053641D01*
X0108306Y0053395D01*
X0108291Y0053150D01*
X0108270Y0052906D01*
X0108243Y0052662D01*
X0108210Y0052419D01*
X0108171Y0052176D01*
X0108126Y0051935D01*
X0108075Y0051695D01*
X0108018Y0051456D01*
X0107956Y0051219D01*
X0107887Y0050983D01*
X0107813Y0050749D01*
X0107733Y0050517D01*
X0107648Y0050287D01*
X0107557Y0050059D01*
X0107460Y0049834D01*
X0107358Y0049610D01*
X0107250Y0049390D01*
X0107137Y0049172D01*
X0107019Y0048957D01*
X0106895Y0048745D01*
X0106767Y0048536D01*
X0106633Y0048330D01*
X0106494Y0048128D01*
X0106350Y0047929D01*
X0106201Y0047734D01*
X0106048Y0047542D01*
X0105890Y0047354D01*
X0105728Y0047170D01*
X0105560Y0046991D01*
X0105389Y0046815D01*
X0105213Y0046644D01*
X0105034Y0046476D01*
X0104850Y0046314D01*
X0104662Y0046156D01*
X0104470Y0046003D01*
X0104275Y0045854D01*
X0104076Y0045710D01*
X0103874Y0045571D01*
X0103668Y0045437D01*
X0103459Y0045309D01*
X0103247Y0045185D01*
X0103032Y0045067D01*
X0102814Y0044954D01*
X0102594Y0044846D01*
X0102370Y0044744D01*
X0102145Y0044647D01*
X0101917Y0044556D01*
X0101687Y0044471D01*
X0101455Y0044391D01*
X0101221Y0044317D01*
X0100985Y0044248D01*
X0100748Y0044186D01*
X0100509Y0044129D01*
X0100269Y0044078D01*
X0100028Y0044033D01*
X0099785Y0043994D01*
X0099542Y0043961D01*
X0099298Y0043934D01*
X0099054Y0043913D01*
X0098809Y0043898D01*
X0098563Y0043889D01*
X0098318Y0043886D01*
X0098073Y0043889D01*
X0097827Y0043898D01*
X0097582Y0043913D01*
X0097338Y0043934D01*
X0097094Y0043961D01*
X0096851Y0043994D01*
X0096608Y0044033D01*
X0096367Y0044078D01*
X0096127Y0044129D01*
X0095888Y0044186D01*
X0095651Y0044248D01*
X0095415Y0044317D01*
X0095181Y0044391D01*
X0094949Y0044471D01*
X0094719Y0044556D01*
X0094491Y0044647D01*
X0094266Y0044744D01*
X0094042Y0044846D01*
X0093822Y0044954D01*
X0093604Y0045067D01*
X0093389Y0045185D01*
X0093177Y0045309D01*
X0092968Y0045437D01*
X0092762Y0045571D01*
X0092560Y0045710D01*
X0092361Y0045854D01*
X0092166Y0046003D01*
X0091974Y0046156D01*
X0091786Y0046314D01*
X0091602Y0046476D01*
X0091423Y0046644D01*
X0091247Y0046815D01*
X0091076Y0046991D01*
X0090908Y0047170D01*
X0090746Y0047354D01*
X0090588Y0047542D01*
X0090435Y0047734D01*
X0090286Y0047929D01*
X0090142Y0048128D01*
X0090003Y0048330D01*
X0089869Y0048536D01*
X0089741Y0048745D01*
X0089617Y0048957D01*
X0089499Y0049172D01*
X0089386Y0049390D01*
X0089278Y0049610D01*
X0089176Y0049834D01*
X0089079Y0050059D01*
X0088988Y0050287D01*
X0088903Y0050517D01*
X0088823Y0050749D01*
X0088749Y0050983D01*
X0088680Y0051219D01*
X0088618Y0051456D01*
X0088561Y0051695D01*
X0088510Y0051935D01*
X0088465Y0052176D01*
X0088426Y0052419D01*
X0088393Y0052662D01*
X0088366Y0052906D01*
X0088345Y0053150D01*
X0088330Y0053395D01*
X0088321Y0053641D01*
X0088318Y0053886D01*
X0113318Y0041886D02*
X0113318Y0035886D01*
X0113320Y0035826D01*
X0113325Y0035765D01*
X0113334Y0035706D01*
X0113347Y0035647D01*
X0113363Y0035588D01*
X0113383Y0035531D01*
X0113406Y0035476D01*
X0113433Y0035421D01*
X0113462Y0035369D01*
X0113495Y0035318D01*
X0113531Y0035269D01*
X0113569Y0035223D01*
X0113611Y0035179D01*
X0113655Y0035137D01*
X0113701Y0035099D01*
X0113750Y0035063D01*
X0113801Y0035030D01*
X0113853Y0035001D01*
X0113908Y0034974D01*
X0113963Y0034951D01*
X0114020Y0034931D01*
X0114079Y0034915D01*
X0114138Y0034902D01*
X0114197Y0034893D01*
X0114258Y0034888D01*
X0114318Y0034886D01*
X0115818Y0034886D01*
X0116318Y0035386D01*
X0130318Y0035386D01*
X0130818Y0034886D01*
X0132318Y0034886D01*
X0132378Y0034888D01*
X0132439Y0034893D01*
X0132498Y0034902D01*
X0132557Y0034915D01*
X0132616Y0034931D01*
X0132673Y0034951D01*
X0132728Y0034974D01*
X0132783Y0035001D01*
X0132835Y0035030D01*
X0132886Y0035063D01*
X0132935Y0035099D01*
X0132981Y0035137D01*
X0133025Y0035179D01*
X0133067Y0035223D01*
X0133105Y0035269D01*
X0133141Y0035318D01*
X0133174Y0035369D01*
X0133203Y0035421D01*
X0133230Y0035476D01*
X0133253Y0035531D01*
X0133273Y0035588D01*
X0133289Y0035647D01*
X0133302Y0035706D01*
X0133311Y0035765D01*
X0133316Y0035826D01*
X0133318Y0035886D01*
X0133318Y0041886D01*
X0133316Y0041946D01*
X0133311Y0042007D01*
X0133302Y0042066D01*
X0133289Y0042125D01*
X0133273Y0042184D01*
X0133253Y0042241D01*
X0133230Y0042296D01*
X0133203Y0042351D01*
X0133174Y0042403D01*
X0133141Y0042454D01*
X0133105Y0042503D01*
X0133067Y0042549D01*
X0133025Y0042593D01*
X0132981Y0042635D01*
X0132935Y0042673D01*
X0132886Y0042709D01*
X0132835Y0042742D01*
X0132783Y0042771D01*
X0132728Y0042798D01*
X0132673Y0042821D01*
X0132616Y0042841D01*
X0132557Y0042857D01*
X0132498Y0042870D01*
X0132439Y0042879D01*
X0132378Y0042884D01*
X0132318Y0042886D01*
X0130818Y0042886D01*
X0130318Y0042386D01*
X0116318Y0042386D01*
X0115818Y0042886D01*
X0114318Y0042886D01*
X0114258Y0042884D01*
X0114197Y0042879D01*
X0114138Y0042870D01*
X0114079Y0042857D01*
X0114020Y0042841D01*
X0113963Y0042821D01*
X0113908Y0042798D01*
X0113853Y0042771D01*
X0113801Y0042742D01*
X0113750Y0042709D01*
X0113701Y0042673D01*
X0113655Y0042635D01*
X0113611Y0042593D01*
X0113569Y0042549D01*
X0113531Y0042503D01*
X0113495Y0042454D01*
X0113462Y0042403D01*
X0113433Y0042351D01*
X0113406Y0042296D01*
X0113383Y0042241D01*
X0113363Y0042184D01*
X0113347Y0042125D01*
X0113334Y0042066D01*
X0113325Y0042007D01*
X0113320Y0041946D01*
X0113318Y0041886D01*
X0113320Y0041946D01*
X0113325Y0042007D01*
X0113334Y0042066D01*
X0113347Y0042125D01*
X0113363Y0042184D01*
X0113383Y0042241D01*
X0113406Y0042296D01*
X0113433Y0042351D01*
X0113462Y0042403D01*
X0113495Y0042454D01*
X0113531Y0042503D01*
X0113569Y0042549D01*
X0113611Y0042593D01*
X0113655Y0042635D01*
X0113701Y0042673D01*
X0113750Y0042709D01*
X0113801Y0042742D01*
X0113853Y0042771D01*
X0113908Y0042798D01*
X0113963Y0042821D01*
X0114020Y0042841D01*
X0114079Y0042857D01*
X0114138Y0042870D01*
X0114197Y0042879D01*
X0114258Y0042884D01*
X0114318Y0042886D01*
X0113318Y0035886D02*
X0113320Y0035826D01*
X0113325Y0035765D01*
X0113334Y0035706D01*
X0113347Y0035647D01*
X0113363Y0035588D01*
X0113383Y0035531D01*
X0113406Y0035476D01*
X0113433Y0035421D01*
X0113462Y0035369D01*
X0113495Y0035318D01*
X0113531Y0035269D01*
X0113569Y0035223D01*
X0113611Y0035179D01*
X0113655Y0035137D01*
X0113701Y0035099D01*
X0113750Y0035063D01*
X0113801Y0035030D01*
X0113853Y0035001D01*
X0113908Y0034974D01*
X0113963Y0034951D01*
X0114020Y0034931D01*
X0114079Y0034915D01*
X0114138Y0034902D01*
X0114197Y0034893D01*
X0114258Y0034888D01*
X0114318Y0034886D01*
X0132318Y0034886D02*
X0132378Y0034888D01*
X0132439Y0034893D01*
X0132498Y0034902D01*
X0132557Y0034915D01*
X0132616Y0034931D01*
X0132673Y0034951D01*
X0132728Y0034974D01*
X0132783Y0035001D01*
X0132835Y0035030D01*
X0132886Y0035063D01*
X0132935Y0035099D01*
X0132981Y0035137D01*
X0133025Y0035179D01*
X0133067Y0035223D01*
X0133105Y0035269D01*
X0133141Y0035318D01*
X0133174Y0035369D01*
X0133203Y0035421D01*
X0133230Y0035476D01*
X0133253Y0035531D01*
X0133273Y0035588D01*
X0133289Y0035647D01*
X0133302Y0035706D01*
X0133311Y0035765D01*
X0133316Y0035826D01*
X0133318Y0035886D01*
X0133318Y0041886D02*
X0133316Y0041946D01*
X0133311Y0042007D01*
X0133302Y0042066D01*
X0133289Y0042125D01*
X0133273Y0042184D01*
X0133253Y0042241D01*
X0133230Y0042296D01*
X0133203Y0042351D01*
X0133174Y0042403D01*
X0133141Y0042454D01*
X0133105Y0042503D01*
X0133067Y0042549D01*
X0133025Y0042593D01*
X0132981Y0042635D01*
X0132935Y0042673D01*
X0132886Y0042709D01*
X0132835Y0042742D01*
X0132783Y0042771D01*
X0132728Y0042798D01*
X0132673Y0042821D01*
X0132616Y0042841D01*
X0132557Y0042857D01*
X0132498Y0042870D01*
X0132439Y0042879D01*
X0132378Y0042884D01*
X0132318Y0042886D01*
X0129318Y0066386D02*
X0137318Y0066386D01*
X0137378Y0066388D01*
X0137439Y0066393D01*
X0137498Y0066402D01*
X0137557Y0066415D01*
X0137616Y0066431D01*
X0137673Y0066451D01*
X0137728Y0066474D01*
X0137783Y0066501D01*
X0137835Y0066530D01*
X0137886Y0066563D01*
X0137935Y0066599D01*
X0137981Y0066637D01*
X0138025Y0066679D01*
X0138067Y0066723D01*
X0138105Y0066769D01*
X0138141Y0066818D01*
X0138174Y0066869D01*
X0138203Y0066921D01*
X0138230Y0066976D01*
X0138253Y0067031D01*
X0138273Y0067088D01*
X0138289Y0067147D01*
X0138302Y0067206D01*
X0138311Y0067265D01*
X0138316Y0067326D01*
X0138318Y0067386D01*
X0138318Y0070386D01*
X0138316Y0070446D01*
X0138311Y0070507D01*
X0138302Y0070566D01*
X0138289Y0070625D01*
X0138273Y0070684D01*
X0138253Y0070741D01*
X0138230Y0070796D01*
X0138203Y0070851D01*
X0138174Y0070903D01*
X0138141Y0070954D01*
X0138105Y0071003D01*
X0138067Y0071049D01*
X0138025Y0071093D01*
X0137981Y0071135D01*
X0137935Y0071173D01*
X0137886Y0071209D01*
X0137835Y0071242D01*
X0137783Y0071271D01*
X0137728Y0071298D01*
X0137673Y0071321D01*
X0137616Y0071341D01*
X0137557Y0071357D01*
X0137498Y0071370D01*
X0137439Y0071379D01*
X0137378Y0071384D01*
X0137318Y0071386D01*
X0129318Y0071386D01*
X0129258Y0071384D01*
X0129197Y0071379D01*
X0129138Y0071370D01*
X0129079Y0071357D01*
X0129020Y0071341D01*
X0128963Y0071321D01*
X0128908Y0071298D01*
X0128853Y0071271D01*
X0128801Y0071242D01*
X0128750Y0071209D01*
X0128701Y0071173D01*
X0128655Y0071135D01*
X0128611Y0071093D01*
X0128569Y0071049D01*
X0128531Y0071003D01*
X0128495Y0070954D01*
X0128462Y0070903D01*
X0128433Y0070851D01*
X0128406Y0070796D01*
X0128383Y0070741D01*
X0128363Y0070684D01*
X0128347Y0070625D01*
X0128334Y0070566D01*
X0128325Y0070507D01*
X0128320Y0070446D01*
X0128318Y0070386D01*
X0128318Y0067386D01*
X0128320Y0067326D01*
X0128325Y0067265D01*
X0128334Y0067206D01*
X0128347Y0067147D01*
X0128363Y0067088D01*
X0128383Y0067031D01*
X0128406Y0066976D01*
X0128433Y0066921D01*
X0128462Y0066869D01*
X0128495Y0066818D01*
X0128531Y0066769D01*
X0128569Y0066723D01*
X0128611Y0066679D01*
X0128655Y0066637D01*
X0128701Y0066599D01*
X0128750Y0066563D01*
X0128801Y0066530D01*
X0128853Y0066501D01*
X0128908Y0066474D01*
X0128963Y0066451D01*
X0129020Y0066431D01*
X0129079Y0066415D01*
X0129138Y0066402D01*
X0129197Y0066393D01*
X0129258Y0066388D01*
X0129318Y0066386D01*
X0129258Y0066388D01*
X0129197Y0066393D01*
X0129138Y0066402D01*
X0129079Y0066415D01*
X0129020Y0066431D01*
X0128963Y0066451D01*
X0128908Y0066474D01*
X0128853Y0066501D01*
X0128801Y0066530D01*
X0128750Y0066563D01*
X0128701Y0066599D01*
X0128655Y0066637D01*
X0128611Y0066679D01*
X0128569Y0066723D01*
X0128531Y0066769D01*
X0128495Y0066818D01*
X0128462Y0066869D01*
X0128433Y0066921D01*
X0128406Y0066976D01*
X0128383Y0067031D01*
X0128363Y0067088D01*
X0128347Y0067147D01*
X0128334Y0067206D01*
X0128325Y0067265D01*
X0128320Y0067326D01*
X0128318Y0067386D01*
X0128318Y0070386D02*
X0128320Y0070446D01*
X0128325Y0070507D01*
X0128334Y0070566D01*
X0128347Y0070625D01*
X0128363Y0070684D01*
X0128383Y0070741D01*
X0128406Y0070796D01*
X0128433Y0070851D01*
X0128462Y0070903D01*
X0128495Y0070954D01*
X0128531Y0071003D01*
X0128569Y0071049D01*
X0128611Y0071093D01*
X0128655Y0071135D01*
X0128701Y0071173D01*
X0128750Y0071209D01*
X0128801Y0071242D01*
X0128853Y0071271D01*
X0128908Y0071298D01*
X0128963Y0071321D01*
X0129020Y0071341D01*
X0129079Y0071357D01*
X0129138Y0071370D01*
X0129197Y0071379D01*
X0129258Y0071384D01*
X0129318Y0071386D01*
X0129318Y0076386D02*
X0137318Y0076386D01*
X0137378Y0076388D01*
X0137439Y0076393D01*
X0137498Y0076402D01*
X0137557Y0076415D01*
X0137616Y0076431D01*
X0137673Y0076451D01*
X0137728Y0076474D01*
X0137783Y0076501D01*
X0137835Y0076530D01*
X0137886Y0076563D01*
X0137935Y0076599D01*
X0137981Y0076637D01*
X0138025Y0076679D01*
X0138067Y0076723D01*
X0138105Y0076769D01*
X0138141Y0076818D01*
X0138174Y0076869D01*
X0138203Y0076921D01*
X0138230Y0076976D01*
X0138253Y0077031D01*
X0138273Y0077088D01*
X0138289Y0077147D01*
X0138302Y0077206D01*
X0138311Y0077265D01*
X0138316Y0077326D01*
X0138318Y0077386D01*
X0138318Y0080386D01*
X0138316Y0080446D01*
X0138311Y0080507D01*
X0138302Y0080566D01*
X0138289Y0080625D01*
X0138273Y0080684D01*
X0138253Y0080741D01*
X0138230Y0080796D01*
X0138203Y0080851D01*
X0138174Y0080903D01*
X0138141Y0080954D01*
X0138105Y0081003D01*
X0138067Y0081049D01*
X0138025Y0081093D01*
X0137981Y0081135D01*
X0137935Y0081173D01*
X0137886Y0081209D01*
X0137835Y0081242D01*
X0137783Y0081271D01*
X0137728Y0081298D01*
X0137673Y0081321D01*
X0137616Y0081341D01*
X0137557Y0081357D01*
X0137498Y0081370D01*
X0137439Y0081379D01*
X0137378Y0081384D01*
X0137318Y0081386D01*
X0129318Y0081386D01*
X0129258Y0081384D01*
X0129197Y0081379D01*
X0129138Y0081370D01*
X0129079Y0081357D01*
X0129020Y0081341D01*
X0128963Y0081321D01*
X0128908Y0081298D01*
X0128853Y0081271D01*
X0128801Y0081242D01*
X0128750Y0081209D01*
X0128701Y0081173D01*
X0128655Y0081135D01*
X0128611Y0081093D01*
X0128569Y0081049D01*
X0128531Y0081003D01*
X0128495Y0080954D01*
X0128462Y0080903D01*
X0128433Y0080851D01*
X0128406Y0080796D01*
X0128383Y0080741D01*
X0128363Y0080684D01*
X0128347Y0080625D01*
X0128334Y0080566D01*
X0128325Y0080507D01*
X0128320Y0080446D01*
X0128318Y0080386D01*
X0128318Y0077386D01*
X0128320Y0077326D01*
X0128325Y0077265D01*
X0128334Y0077206D01*
X0128347Y0077147D01*
X0128363Y0077088D01*
X0128383Y0077031D01*
X0128406Y0076976D01*
X0128433Y0076921D01*
X0128462Y0076869D01*
X0128495Y0076818D01*
X0128531Y0076769D01*
X0128569Y0076723D01*
X0128611Y0076679D01*
X0128655Y0076637D01*
X0128701Y0076599D01*
X0128750Y0076563D01*
X0128801Y0076530D01*
X0128853Y0076501D01*
X0128908Y0076474D01*
X0128963Y0076451D01*
X0129020Y0076431D01*
X0129079Y0076415D01*
X0129138Y0076402D01*
X0129197Y0076393D01*
X0129258Y0076388D01*
X0129318Y0076386D01*
X0129258Y0076388D01*
X0129197Y0076393D01*
X0129138Y0076402D01*
X0129079Y0076415D01*
X0129020Y0076431D01*
X0128963Y0076451D01*
X0128908Y0076474D01*
X0128853Y0076501D01*
X0128801Y0076530D01*
X0128750Y0076563D01*
X0128701Y0076599D01*
X0128655Y0076637D01*
X0128611Y0076679D01*
X0128569Y0076723D01*
X0128531Y0076769D01*
X0128495Y0076818D01*
X0128462Y0076869D01*
X0128433Y0076921D01*
X0128406Y0076976D01*
X0128383Y0077031D01*
X0128363Y0077088D01*
X0128347Y0077147D01*
X0128334Y0077206D01*
X0128325Y0077265D01*
X0128320Y0077326D01*
X0128318Y0077386D01*
X0128318Y0080386D02*
X0128320Y0080446D01*
X0128325Y0080507D01*
X0128334Y0080566D01*
X0128347Y0080625D01*
X0128363Y0080684D01*
X0128383Y0080741D01*
X0128406Y0080796D01*
X0128433Y0080851D01*
X0128462Y0080903D01*
X0128495Y0080954D01*
X0128531Y0081003D01*
X0128569Y0081049D01*
X0128611Y0081093D01*
X0128655Y0081135D01*
X0128701Y0081173D01*
X0128750Y0081209D01*
X0128801Y0081242D01*
X0128853Y0081271D01*
X0128908Y0081298D01*
X0128963Y0081321D01*
X0129020Y0081341D01*
X0129079Y0081357D01*
X0129138Y0081370D01*
X0129197Y0081379D01*
X0129258Y0081384D01*
X0129318Y0081386D01*
X0137318Y0081386D02*
X0137378Y0081384D01*
X0137439Y0081379D01*
X0137498Y0081370D01*
X0137557Y0081357D01*
X0137616Y0081341D01*
X0137673Y0081321D01*
X0137728Y0081298D01*
X0137783Y0081271D01*
X0137835Y0081242D01*
X0137886Y0081209D01*
X0137935Y0081173D01*
X0137981Y0081135D01*
X0138025Y0081093D01*
X0138067Y0081049D01*
X0138105Y0081003D01*
X0138141Y0080954D01*
X0138174Y0080903D01*
X0138203Y0080851D01*
X0138230Y0080796D01*
X0138253Y0080741D01*
X0138273Y0080684D01*
X0138289Y0080625D01*
X0138302Y0080566D01*
X0138311Y0080507D01*
X0138316Y0080446D01*
X0138318Y0080386D01*
X0138318Y0077386D02*
X0138316Y0077326D01*
X0138311Y0077265D01*
X0138302Y0077206D01*
X0138289Y0077147D01*
X0138273Y0077088D01*
X0138253Y0077031D01*
X0138230Y0076976D01*
X0138203Y0076921D01*
X0138174Y0076869D01*
X0138141Y0076818D01*
X0138105Y0076769D01*
X0138067Y0076723D01*
X0138025Y0076679D01*
X0137981Y0076637D01*
X0137935Y0076599D01*
X0137886Y0076563D01*
X0137835Y0076530D01*
X0137783Y0076501D01*
X0137728Y0076474D01*
X0137673Y0076451D01*
X0137616Y0076431D01*
X0137557Y0076415D01*
X0137498Y0076402D01*
X0137439Y0076393D01*
X0137378Y0076388D01*
X0137318Y0076386D01*
X0137318Y0071386D02*
X0137378Y0071384D01*
X0137439Y0071379D01*
X0137498Y0071370D01*
X0137557Y0071357D01*
X0137616Y0071341D01*
X0137673Y0071321D01*
X0137728Y0071298D01*
X0137783Y0071271D01*
X0137835Y0071242D01*
X0137886Y0071209D01*
X0137935Y0071173D01*
X0137981Y0071135D01*
X0138025Y0071093D01*
X0138067Y0071049D01*
X0138105Y0071003D01*
X0138141Y0070954D01*
X0138174Y0070903D01*
X0138203Y0070851D01*
X0138230Y0070796D01*
X0138253Y0070741D01*
X0138273Y0070684D01*
X0138289Y0070625D01*
X0138302Y0070566D01*
X0138311Y0070507D01*
X0138316Y0070446D01*
X0138318Y0070386D01*
X0138318Y0067386D02*
X0138316Y0067326D01*
X0138311Y0067265D01*
X0138302Y0067206D01*
X0138289Y0067147D01*
X0138273Y0067088D01*
X0138253Y0067031D01*
X0138230Y0066976D01*
X0138203Y0066921D01*
X0138174Y0066869D01*
X0138141Y0066818D01*
X0138105Y0066769D01*
X0138067Y0066723D01*
X0138025Y0066679D01*
X0137981Y0066637D01*
X0137935Y0066599D01*
X0137886Y0066563D01*
X0137835Y0066530D01*
X0137783Y0066501D01*
X0137728Y0066474D01*
X0137673Y0066451D01*
X0137616Y0066431D01*
X0137557Y0066415D01*
X0137498Y0066402D01*
X0137439Y0066393D01*
X0137378Y0066388D01*
X0137318Y0066386D01*
X0139318Y0104886D02*
X0141318Y0104886D01*
X0141318Y0108886D01*
X0141318Y0112886D01*
X0139318Y0112886D01*
X0139318Y0104886D01*
X0142318Y0106386D02*
X0144318Y0106386D01*
X0143318Y0107386D02*
X0143318Y0105386D01*
X0143818Y0108886D02*
X0141318Y0108886D01*
X0149618Y0114230D02*
X0149485Y0114503D01*
X0149345Y0114772D01*
X0149199Y0115038D01*
X0149047Y0115301D01*
X0148888Y0115559D01*
X0148723Y0115814D01*
X0148551Y0116064D01*
X0148374Y0116311D01*
X0148191Y0116553D01*
X0148002Y0116790D01*
X0147807Y0117023D01*
X0147607Y0117251D01*
X0147401Y0117474D01*
X0147190Y0117692D01*
X0146973Y0117905D01*
X0146752Y0118112D01*
X0146525Y0118314D01*
X0146294Y0118511D01*
X0146058Y0118702D01*
X0145817Y0118887D01*
X0145572Y0119066D01*
X0145323Y0119239D01*
X0145070Y0119406D01*
X0144812Y0119567D01*
X0144551Y0119721D01*
X0144286Y0119869D01*
X0144018Y0120011D01*
X0143746Y0120146D01*
X0143471Y0120274D01*
X0143193Y0120396D01*
X0142912Y0120511D01*
X0142628Y0120619D01*
X0142342Y0120720D01*
X0142054Y0120815D01*
X0141763Y0120902D01*
X0141470Y0120982D01*
X0141176Y0121055D01*
X0140880Y0121121D01*
X0140582Y0121179D01*
X0140283Y0121231D01*
X0139982Y0121275D01*
X0139681Y0121311D01*
X0139379Y0121341D01*
X0139076Y0121363D01*
X0138773Y0121378D01*
X0138470Y0121385D01*
X0138166Y0121385D01*
X0137863Y0121378D01*
X0137560Y0121363D01*
X0137257Y0121341D01*
X0136955Y0121311D01*
X0136654Y0121275D01*
X0136353Y0121231D01*
X0136054Y0121179D01*
X0135756Y0121121D01*
X0135460Y0121055D01*
X0135166Y0120982D01*
X0134873Y0120902D01*
X0134582Y0120815D01*
X0134294Y0120720D01*
X0134008Y0120619D01*
X0133724Y0120511D01*
X0133443Y0120396D01*
X0133165Y0120274D01*
X0132890Y0120146D01*
X0132618Y0120011D01*
X0132350Y0119869D01*
X0132085Y0119721D01*
X0131824Y0119567D01*
X0131566Y0119406D01*
X0131313Y0119239D01*
X0131064Y0119066D01*
X0130819Y0118887D01*
X0130578Y0118702D01*
X0130342Y0118511D01*
X0130111Y0118314D01*
X0129884Y0118112D01*
X0129663Y0117905D01*
X0129446Y0117692D01*
X0129235Y0117474D01*
X0129029Y0117251D01*
X0128829Y0117023D01*
X0128634Y0116790D01*
X0128445Y0116553D01*
X0128262Y0116311D01*
X0128085Y0116064D01*
X0127913Y0115814D01*
X0127748Y0115559D01*
X0127589Y0115301D01*
X0127437Y0115038D01*
X0127291Y0114772D01*
X0127151Y0114503D01*
X0127018Y0114230D01*
X0132818Y0108886D02*
X0135818Y0108886D01*
X0127018Y0103542D02*
X0127151Y0103269D01*
X0127291Y0103000D01*
X0127437Y0102734D01*
X0127589Y0102471D01*
X0127748Y0102213D01*
X0127913Y0101958D01*
X0128085Y0101708D01*
X0128262Y0101461D01*
X0128445Y0101219D01*
X0128634Y0100982D01*
X0128829Y0100749D01*
X0129029Y0100521D01*
X0129235Y0100298D01*
X0129446Y0100080D01*
X0129663Y0099867D01*
X0129884Y0099660D01*
X0130111Y0099458D01*
X0130342Y0099261D01*
X0130578Y0099070D01*
X0130819Y0098885D01*
X0131064Y0098706D01*
X0131313Y0098533D01*
X0131566Y0098366D01*
X0131824Y0098205D01*
X0132085Y0098051D01*
X0132350Y0097903D01*
X0132618Y0097761D01*
X0132890Y0097626D01*
X0133165Y0097498D01*
X0133443Y0097376D01*
X0133724Y0097261D01*
X0134008Y0097153D01*
X0134294Y0097052D01*
X0134582Y0096957D01*
X0134873Y0096870D01*
X0135166Y0096790D01*
X0135460Y0096717D01*
X0135756Y0096651D01*
X0136054Y0096593D01*
X0136353Y0096541D01*
X0136654Y0096497D01*
X0136955Y0096461D01*
X0137257Y0096431D01*
X0137560Y0096409D01*
X0137863Y0096394D01*
X0138166Y0096387D01*
X0138470Y0096387D01*
X0138773Y0096394D01*
X0139076Y0096409D01*
X0139379Y0096431D01*
X0139681Y0096461D01*
X0139982Y0096497D01*
X0140283Y0096541D01*
X0140582Y0096593D01*
X0140880Y0096651D01*
X0141176Y0096717D01*
X0141470Y0096790D01*
X0141763Y0096870D01*
X0142054Y0096957D01*
X0142342Y0097052D01*
X0142628Y0097153D01*
X0142912Y0097261D01*
X0143193Y0097376D01*
X0143471Y0097498D01*
X0143746Y0097626D01*
X0144018Y0097761D01*
X0144286Y0097903D01*
X0144551Y0098051D01*
X0144812Y0098205D01*
X0145070Y0098366D01*
X0145323Y0098533D01*
X0145572Y0098706D01*
X0145817Y0098885D01*
X0146058Y0099070D01*
X0146294Y0099261D01*
X0146525Y0099458D01*
X0146752Y0099660D01*
X0146973Y0099867D01*
X0147190Y0100080D01*
X0147401Y0100298D01*
X0147607Y0100521D01*
X0147807Y0100749D01*
X0148002Y0100982D01*
X0148191Y0101219D01*
X0148374Y0101461D01*
X0148551Y0101708D01*
X0148723Y0101958D01*
X0148888Y0102213D01*
X0149047Y0102471D01*
X0149199Y0102734D01*
X0149345Y0103000D01*
X0149485Y0103269D01*
X0149618Y0103542D01*
D11*
X0046017Y0043713D02*
X0044916Y0042245D01*
X0046017Y0043713D02*
X0047118Y0042245D01*
X0046384Y0044455D02*
X0044916Y0044455D01*
X0046384Y0044455D02*
X0047118Y0045189D01*
X0046384Y0045923D01*
X0044916Y0045923D01*
X0045650Y0046665D02*
X0044916Y0047399D01*
X0045650Y0048133D01*
X0047118Y0048133D01*
X0047118Y0048875D02*
X0047118Y0050343D01*
X0046751Y0051085D02*
X0047118Y0051452D01*
X0047118Y0052186D01*
X0046751Y0052553D01*
X0044916Y0052553D01*
X0044916Y0053295D02*
X0047118Y0053295D01*
X0047118Y0054762D01*
X0046017Y0054029D02*
X0046017Y0053295D01*
X0044916Y0053295D02*
X0044916Y0054762D01*
X0044916Y0051085D02*
X0046751Y0051085D01*
X0047118Y0048875D02*
X0044916Y0048875D01*
X0046017Y0048133D02*
X0046017Y0046665D01*
X0045650Y0046665D02*
X0047118Y0046665D01*
X0052368Y0057986D02*
X0053836Y0059087D01*
X0052368Y0060188D01*
X0054578Y0060188D02*
X0054578Y0057986D01*
X0056046Y0057986D02*
X0054578Y0060188D01*
X0056046Y0060188D02*
X0056046Y0057986D01*
X0056788Y0057986D02*
X0056788Y0059454D01*
X0057522Y0060188D01*
X0058256Y0059454D01*
X0058256Y0057986D01*
X0058998Y0057986D02*
X0058998Y0060188D01*
X0059732Y0059454D01*
X0060466Y0060188D01*
X0060466Y0057986D01*
X0061208Y0057986D02*
X0061208Y0060188D01*
X0062676Y0060188D01*
X0061942Y0059087D02*
X0061208Y0059087D01*
X0061208Y0057986D02*
X0062676Y0057986D01*
X0058256Y0059087D02*
X0056788Y0059087D01*
X0052676Y0083836D02*
X0051208Y0083836D01*
X0051208Y0086038D01*
X0052676Y0086038D01*
X0051942Y0084937D02*
X0051208Y0084937D01*
X0050466Y0084203D02*
X0050466Y0086038D01*
X0048998Y0086038D02*
X0048998Y0084203D01*
X0049365Y0083836D01*
X0050099Y0083836D01*
X0050466Y0084203D01*
X0048256Y0083836D02*
X0046788Y0083836D01*
X0046788Y0086038D01*
X0046046Y0085304D02*
X0046046Y0083836D01*
X0046046Y0084937D02*
X0044578Y0084937D01*
X0044578Y0085304D02*
X0045312Y0086038D01*
X0046046Y0085304D01*
X0044578Y0085304D02*
X0044578Y0083836D01*
X0043836Y0084570D02*
X0043836Y0086038D01*
X0042368Y0086038D02*
X0042368Y0084570D01*
X0043102Y0083836D01*
X0043836Y0084570D01*
X0041626Y0084937D02*
X0040158Y0083836D01*
X0041626Y0084937D02*
X0040158Y0086038D01*
X0039158Y0092786D02*
X0040626Y0093887D01*
X0039158Y0094988D01*
X0041368Y0094988D02*
X0041368Y0093520D01*
X0042102Y0092786D01*
X0042836Y0093520D01*
X0042836Y0094988D01*
X0043578Y0094254D02*
X0044312Y0094988D01*
X0045046Y0094254D01*
X0045046Y0092786D01*
X0045788Y0092786D02*
X0047256Y0092786D01*
X0047998Y0093153D02*
X0048365Y0092786D01*
X0049099Y0092786D01*
X0049466Y0093153D01*
X0049466Y0094988D01*
X0050208Y0094988D02*
X0050208Y0092786D01*
X0051676Y0092786D01*
X0050942Y0093887D02*
X0050208Y0093887D01*
X0050208Y0094988D02*
X0051676Y0094988D01*
X0047998Y0094988D02*
X0047998Y0093153D01*
X0045788Y0092786D02*
X0045788Y0094988D01*
X0045046Y0093887D02*
X0043578Y0093887D01*
X0043578Y0094254D02*
X0043578Y0092786D01*
X0096677Y0089988D02*
X0098145Y0088887D01*
X0096677Y0087786D01*
X0098887Y0088520D02*
X0099621Y0087786D01*
X0100355Y0088520D01*
X0100355Y0089988D01*
X0101097Y0089254D02*
X0101831Y0089988D01*
X0102565Y0089254D01*
X0102565Y0087786D01*
X0103307Y0087786D02*
X0104775Y0087786D01*
X0105517Y0088153D02*
X0105884Y0087786D01*
X0106618Y0087786D01*
X0106985Y0088153D01*
X0106985Y0089988D01*
X0107726Y0089988D02*
X0107726Y0087786D01*
X0109194Y0087786D01*
X0108460Y0088887D02*
X0107726Y0088887D01*
X0107726Y0089988D02*
X0109194Y0089988D01*
X0108089Y0092786D02*
X0106622Y0092786D01*
X0106622Y0094988D01*
X0108089Y0094988D01*
X0107355Y0093887D02*
X0106622Y0093887D01*
X0105880Y0094988D02*
X0105880Y0092786D01*
X0104412Y0092786D02*
X0104412Y0094988D01*
X0105146Y0094254D01*
X0105880Y0094988D01*
X0103670Y0094254D02*
X0103670Y0092786D01*
X0103670Y0093887D02*
X0102202Y0093887D01*
X0102202Y0094254D02*
X0102936Y0094988D01*
X0103670Y0094254D01*
X0102202Y0094254D02*
X0102202Y0092786D01*
X0101460Y0092786D02*
X0101460Y0094988D01*
X0099992Y0094988D02*
X0101460Y0092786D01*
X0099992Y0092786D02*
X0099992Y0094988D01*
X0099250Y0093887D02*
X0097782Y0092786D01*
X0099250Y0093887D02*
X0097782Y0094988D01*
X0098887Y0089988D02*
X0098887Y0088520D01*
X0101097Y0088887D02*
X0102565Y0088887D01*
X0103307Y0089988D02*
X0103307Y0087786D01*
X0101097Y0087786D02*
X0101097Y0089254D01*
X0105517Y0089988D02*
X0105517Y0088153D01*
X0115368Y0095986D02*
X0116836Y0097087D01*
X0115368Y0098188D01*
X0117578Y0098188D02*
X0119046Y0095986D01*
X0119046Y0098188D01*
X0119788Y0097454D02*
X0120522Y0098188D01*
X0121256Y0097454D01*
X0121256Y0095986D01*
X0121998Y0095986D02*
X0121998Y0098188D01*
X0122732Y0097454D01*
X0123466Y0098188D01*
X0123466Y0095986D01*
X0124208Y0095986D02*
X0125676Y0095986D01*
X0124942Y0097087D02*
X0124208Y0097087D01*
X0124208Y0098188D02*
X0124208Y0095986D01*
X0121256Y0097087D02*
X0119788Y0097087D01*
X0119788Y0097454D02*
X0119788Y0095986D01*
X0117578Y0095986D02*
X0117578Y0098188D01*
X0124208Y0098188D02*
X0125676Y0098188D01*
X0125676Y0114486D02*
X0124208Y0114486D01*
X0124208Y0116688D01*
X0125676Y0116688D01*
X0124942Y0115587D02*
X0124208Y0115587D01*
X0123466Y0114853D02*
X0123466Y0116688D01*
X0121998Y0116688D02*
X0121998Y0114853D01*
X0122365Y0114486D01*
X0123099Y0114486D01*
X0123466Y0114853D01*
X0121256Y0114486D02*
X0119788Y0114486D01*
X0119788Y0116688D01*
X0119046Y0115954D02*
X0119046Y0114486D01*
X0119046Y0115587D02*
X0117578Y0115587D01*
X0117578Y0115954D02*
X0118312Y0116688D01*
X0119046Y0115954D01*
X0117578Y0115954D02*
X0117578Y0114486D01*
X0116836Y0115220D02*
X0116836Y0116688D01*
X0115368Y0116688D02*
X0115368Y0115220D01*
X0116102Y0114486D01*
X0116836Y0115220D01*
X0114626Y0115587D02*
X0113158Y0114486D01*
X0114626Y0115587D02*
X0113158Y0116688D01*
X0147782Y0084988D02*
X0149250Y0083887D01*
X0147782Y0082786D01*
X0149992Y0082786D02*
X0149992Y0084988D01*
X0151460Y0082786D01*
X0151460Y0084988D01*
X0152202Y0084254D02*
X0152936Y0084988D01*
X0153670Y0084254D01*
X0153670Y0082786D01*
X0154412Y0082786D02*
X0154412Y0084988D01*
X0155146Y0084254D01*
X0155880Y0084988D01*
X0155880Y0082786D01*
X0156622Y0082786D02*
X0158089Y0082786D01*
X0157355Y0083887D02*
X0156622Y0083887D01*
X0156622Y0084988D02*
X0156622Y0082786D01*
X0153670Y0083887D02*
X0152202Y0083887D01*
X0152202Y0084254D02*
X0152202Y0082786D01*
X0151831Y0079988D02*
X0151097Y0079254D01*
X0151097Y0077786D01*
X0150355Y0078520D02*
X0150355Y0079988D01*
X0151097Y0078887D02*
X0152565Y0078887D01*
X0152565Y0079254D02*
X0152565Y0077786D01*
X0153307Y0077786D02*
X0154775Y0077786D01*
X0155517Y0078153D02*
X0155517Y0079988D01*
X0156985Y0079988D02*
X0156985Y0078153D01*
X0156618Y0077786D01*
X0155884Y0077786D01*
X0155517Y0078153D01*
X0157726Y0077786D02*
X0157726Y0079988D01*
X0159194Y0079988D01*
X0158460Y0078887D02*
X0157726Y0078887D01*
X0157726Y0077786D02*
X0159194Y0077786D01*
X0158089Y0074988D02*
X0156622Y0074988D01*
X0156622Y0072786D01*
X0158089Y0072786D01*
X0157355Y0073887D02*
X0156622Y0073887D01*
X0155880Y0074988D02*
X0155880Y0072786D01*
X0154412Y0072786D02*
X0154412Y0074988D01*
X0155146Y0074254D01*
X0155880Y0074988D01*
X0153670Y0074254D02*
X0153670Y0072786D01*
X0153670Y0073887D02*
X0152202Y0073887D01*
X0152202Y0074254D02*
X0152936Y0074988D01*
X0153670Y0074254D01*
X0152202Y0074254D02*
X0152202Y0072786D01*
X0151460Y0072786D02*
X0151460Y0074988D01*
X0149992Y0074988D02*
X0151460Y0072786D01*
X0149992Y0072786D02*
X0149992Y0074988D01*
X0149250Y0073887D02*
X0147782Y0072786D01*
X0149250Y0073887D02*
X0147782Y0074988D01*
X0146677Y0077786D02*
X0148145Y0078887D01*
X0146677Y0079988D01*
X0148887Y0079988D02*
X0148887Y0078520D01*
X0149621Y0077786D01*
X0150355Y0078520D01*
X0151831Y0079988D02*
X0152565Y0079254D01*
X0153307Y0079988D02*
X0153307Y0077786D01*
X0153307Y0069988D02*
X0153307Y0067786D01*
X0154775Y0067786D01*
X0154745Y0068187D02*
X0155479Y0068187D01*
X0155517Y0068153D02*
X0155884Y0067786D01*
X0156618Y0067786D01*
X0156985Y0068153D01*
X0156985Y0069988D01*
X0157726Y0069988D02*
X0157726Y0067786D01*
X0159194Y0067786D01*
X0158460Y0068887D02*
X0157726Y0068887D01*
X0157726Y0069988D02*
X0159194Y0069988D01*
X0162782Y0069708D02*
X0164250Y0068607D01*
X0162782Y0067506D01*
X0164992Y0067506D02*
X0164992Y0069708D01*
X0166460Y0067506D01*
X0166460Y0069708D01*
X0167202Y0068974D02*
X0167202Y0067506D01*
X0167202Y0068607D02*
X0168670Y0068607D01*
X0168670Y0068974D02*
X0168670Y0067506D01*
X0169412Y0067506D02*
X0169412Y0069708D01*
X0170146Y0068974D01*
X0170880Y0069708D01*
X0170880Y0067506D01*
X0171622Y0067506D02*
X0173089Y0067506D01*
X0172355Y0068607D02*
X0171622Y0068607D01*
X0171622Y0069708D02*
X0171622Y0067506D01*
X0171622Y0069708D02*
X0173089Y0069708D01*
X0168670Y0068974D02*
X0167936Y0069708D01*
X0167202Y0068974D01*
X0156213Y0069288D02*
X0154745Y0069288D01*
X0154745Y0067086D01*
X0156213Y0067086D01*
X0155517Y0068153D02*
X0155517Y0069988D01*
X0154003Y0069288D02*
X0154003Y0067453D01*
X0153636Y0067086D01*
X0152902Y0067086D01*
X0152535Y0067453D01*
X0152535Y0069288D01*
X0152565Y0069254D02*
X0152565Y0067786D01*
X0151793Y0067086D02*
X0150325Y0067086D01*
X0150325Y0069288D01*
X0150355Y0069988D02*
X0150355Y0068520D01*
X0149621Y0067786D01*
X0148887Y0068520D01*
X0148887Y0069988D01*
X0148849Y0069288D02*
X0149583Y0068554D01*
X0149583Y0067086D01*
X0149583Y0068187D02*
X0148116Y0068187D01*
X0148116Y0068554D02*
X0148849Y0069288D01*
X0148145Y0068887D02*
X0146677Y0067786D01*
X0147374Y0067820D02*
X0147374Y0069288D01*
X0148145Y0068887D02*
X0146677Y0069988D01*
X0145906Y0069288D02*
X0145906Y0067820D01*
X0146640Y0067086D01*
X0147374Y0067820D01*
X0148116Y0067086D02*
X0148116Y0068554D01*
X0151097Y0068887D02*
X0152565Y0068887D01*
X0152565Y0069254D02*
X0151831Y0069988D01*
X0151097Y0069254D01*
X0151097Y0067786D01*
X0145164Y0068187D02*
X0143696Y0067086D01*
X0145164Y0068187D02*
X0143696Y0069288D01*
X0156622Y0084988D02*
X0158089Y0084988D01*
X0194196Y0054988D02*
X0195664Y0053887D01*
X0194196Y0052786D01*
X0196406Y0053520D02*
X0197140Y0052786D01*
X0197874Y0053520D01*
X0197874Y0054988D01*
X0198616Y0054254D02*
X0199349Y0054988D01*
X0200083Y0054254D01*
X0200083Y0052786D01*
X0200825Y0052786D02*
X0202293Y0052786D01*
X0203035Y0053153D02*
X0203402Y0052786D01*
X0204136Y0052786D01*
X0204503Y0053153D01*
X0204503Y0054988D01*
X0205245Y0054988D02*
X0205245Y0052786D01*
X0206713Y0052786D01*
X0205979Y0053887D02*
X0205245Y0053887D01*
X0205245Y0054988D02*
X0206713Y0054988D01*
X0203035Y0054988D02*
X0203035Y0053153D01*
X0200825Y0052786D02*
X0200825Y0054988D01*
X0200083Y0053887D02*
X0198616Y0053887D01*
X0198616Y0054254D02*
X0198616Y0052786D01*
X0196406Y0053520D02*
X0196406Y0054988D01*
X0169313Y0042888D02*
X0167845Y0042888D01*
X0167845Y0040686D01*
X0169313Y0040686D01*
X0167845Y0040686D01*
X0167845Y0042888D01*
X0169313Y0042888D01*
X0168579Y0041787D02*
X0167845Y0041787D01*
X0168579Y0041787D01*
X0167103Y0041053D02*
X0167103Y0042888D01*
X0167103Y0041053D01*
X0166736Y0040686D01*
X0166002Y0040686D01*
X0165635Y0041053D01*
X0165635Y0042888D01*
X0165635Y0041053D01*
X0166002Y0040686D01*
X0166736Y0040686D01*
X0167103Y0041053D01*
X0164893Y0040686D02*
X0163425Y0040686D01*
X0163425Y0042888D01*
X0163425Y0040686D01*
X0164893Y0040686D01*
X0162683Y0040686D02*
X0162683Y0042154D01*
X0161949Y0042888D01*
X0161216Y0042154D01*
X0161216Y0040686D01*
X0161216Y0042154D01*
X0161949Y0042888D01*
X0162683Y0042154D01*
X0162683Y0040686D01*
X0162683Y0041787D02*
X0161216Y0041787D01*
X0162683Y0041787D01*
X0160474Y0041420D02*
X0160474Y0042888D01*
X0160474Y0041420D01*
X0159740Y0040686D01*
X0159006Y0041420D01*
X0159006Y0042888D01*
X0159006Y0041420D01*
X0159740Y0040686D01*
X0160474Y0041420D01*
X0158264Y0041787D02*
X0156796Y0040686D01*
X0158264Y0041787D01*
X0156796Y0042888D01*
X0158264Y0041787D01*
X0154003Y0041188D02*
X0152535Y0041188D01*
X0152535Y0038986D01*
X0154003Y0038986D01*
X0153269Y0040087D02*
X0152535Y0040087D01*
X0151793Y0041188D02*
X0151793Y0038986D01*
X0150325Y0038986D02*
X0150325Y0041188D01*
X0151059Y0040454D01*
X0151793Y0041188D01*
X0149583Y0040454D02*
X0149583Y0038986D01*
X0149583Y0040087D02*
X0148116Y0040087D01*
X0148116Y0040454D02*
X0148849Y0041188D01*
X0149583Y0040454D01*
X0148116Y0040454D02*
X0148116Y0038986D01*
X0147374Y0038986D02*
X0147374Y0041188D01*
X0145906Y0041188D02*
X0147374Y0038986D01*
X0145906Y0038986D02*
X0145906Y0041188D01*
X0145164Y0040087D02*
X0143696Y0038986D01*
X0145164Y0040087D02*
X0143696Y0041188D01*
X0153196Y0047686D02*
X0154664Y0048787D01*
X0153196Y0049888D01*
X0154664Y0048787D01*
X0153196Y0047686D01*
X0155406Y0047686D02*
X0155406Y0049888D01*
X0156874Y0047686D01*
X0156874Y0049888D01*
X0156874Y0047686D01*
X0155406Y0049888D01*
X0155406Y0047686D01*
X0157616Y0047686D02*
X0157616Y0049154D01*
X0158349Y0049888D01*
X0159083Y0049154D01*
X0159083Y0047686D01*
X0159083Y0049154D01*
X0158349Y0049888D01*
X0157616Y0049154D01*
X0157616Y0047686D01*
X0157616Y0048787D02*
X0159083Y0048787D01*
X0157616Y0048787D01*
X0159825Y0047686D02*
X0159825Y0049888D01*
X0160559Y0049154D01*
X0161293Y0049888D01*
X0161293Y0047686D01*
X0161293Y0049888D01*
X0160559Y0049154D01*
X0159825Y0049888D01*
X0159825Y0047686D01*
X0162035Y0047686D02*
X0163503Y0047686D01*
X0162035Y0047686D01*
X0162035Y0049888D01*
X0163503Y0049888D01*
X0162035Y0049888D01*
X0162035Y0047686D01*
X0162035Y0048787D02*
X0162769Y0048787D01*
X0162035Y0048787D01*
X0194196Y0034988D02*
X0195664Y0033887D01*
X0194196Y0032786D01*
X0196406Y0033520D02*
X0197140Y0032786D01*
X0197874Y0033520D01*
X0197874Y0034988D01*
X0198616Y0034254D02*
X0199349Y0034988D01*
X0200083Y0034254D01*
X0200083Y0032786D01*
X0200825Y0032786D02*
X0202293Y0032786D01*
X0203035Y0033153D02*
X0203402Y0032786D01*
X0204136Y0032786D01*
X0204503Y0033153D01*
X0204503Y0034988D01*
X0205245Y0034988D02*
X0205245Y0032786D01*
X0206713Y0032786D01*
X0205979Y0033887D02*
X0205245Y0033887D01*
X0205245Y0034988D02*
X0206713Y0034988D01*
X0203035Y0034988D02*
X0203035Y0033153D01*
X0200825Y0032786D02*
X0200825Y0034988D01*
X0200083Y0033887D02*
X0198616Y0033887D01*
X0198616Y0034254D02*
X0198616Y0032786D01*
X0196406Y0033520D02*
X0196406Y0034988D01*
X0125713Y0041736D02*
X0124245Y0041736D01*
X0124245Y0043938D01*
X0125713Y0043938D01*
X0124979Y0042837D02*
X0124245Y0042837D01*
X0123503Y0042103D02*
X0123503Y0043938D01*
X0122035Y0043938D02*
X0122035Y0042103D01*
X0122402Y0041736D01*
X0123136Y0041736D01*
X0123503Y0042103D01*
X0121293Y0041736D02*
X0119825Y0041736D01*
X0119825Y0043938D01*
X0119083Y0043204D02*
X0119083Y0041736D01*
X0119083Y0042837D02*
X0117616Y0042837D01*
X0117616Y0043204D02*
X0118349Y0043938D01*
X0119083Y0043204D01*
X0117616Y0043204D02*
X0117616Y0041736D01*
X0116874Y0042470D02*
X0116874Y0043938D01*
X0116874Y0042470D02*
X0116140Y0041736D01*
X0115406Y0042470D01*
X0115406Y0043938D01*
X0114664Y0042837D02*
X0113196Y0041736D01*
X0114664Y0042837D02*
X0113196Y0043938D01*
X0113503Y0067586D02*
X0112035Y0067586D01*
X0112035Y0069788D01*
X0113503Y0069788D01*
X0112769Y0068687D02*
X0112035Y0068687D01*
X0111293Y0069788D02*
X0111293Y0067586D01*
X0109825Y0067586D02*
X0109825Y0069788D01*
X0110559Y0069054D01*
X0111293Y0069788D01*
X0109083Y0069054D02*
X0109083Y0067586D01*
X0109083Y0068687D02*
X0107616Y0068687D01*
X0107616Y0069054D02*
X0107616Y0067586D01*
X0106874Y0067586D02*
X0106874Y0069788D01*
X0107616Y0069054D02*
X0108349Y0069788D01*
X0109083Y0069054D01*
X0106874Y0067586D02*
X0105406Y0069788D01*
X0105406Y0067586D01*
X0104664Y0068687D02*
X0103196Y0067586D01*
X0104664Y0068687D02*
X0103196Y0069788D01*
D12*
X0068318Y0052386D03*
X0058318Y0075386D03*
D13*
X0136318Y0108886D03*
D14*
X0122815Y0091063D02*
X0120880Y0091063D01*
X0120880Y0088161D01*
X0122815Y0088161D01*
X0121847Y0088162D02*
X0120880Y0088162D01*
X0119868Y0088645D02*
X0119868Y0091063D01*
X0119868Y0089613D02*
X0119868Y0087195D01*
X0119384Y0086711D01*
X0118417Y0086711D01*
X0117933Y0087195D01*
X0117933Y0089613D01*
X0117933Y0088645D02*
X0118417Y0088161D01*
X0119384Y0088161D01*
X0119868Y0088645D01*
X0120880Y0089612D02*
X0121847Y0089612D01*
X0120880Y0089613D02*
X0122815Y0089613D01*
X0120880Y0089613D02*
X0120880Y0086711D01*
X0122815Y0086711D01*
X0117933Y0088645D02*
X0117933Y0091063D01*
X0116922Y0088161D02*
X0114987Y0088161D01*
X0114987Y0091063D01*
X0113975Y0090096D02*
X0113975Y0088161D01*
X0113975Y0088162D02*
X0112040Y0088162D01*
X0112040Y0088161D02*
X0112040Y0090096D01*
X0113008Y0091063D01*
X0113975Y0090096D01*
X0113975Y0089612D02*
X0112040Y0089612D01*
X0112040Y0088646D02*
X0113008Y0089613D01*
X0113975Y0088646D01*
X0113975Y0086711D01*
X0114987Y0086711D02*
X0116922Y0086711D01*
X0114987Y0086711D02*
X0114987Y0089613D01*
X0112040Y0088646D02*
X0112040Y0086711D01*
X0111029Y0087678D02*
X0111029Y0089613D01*
X0111029Y0089128D02*
X0111029Y0091063D01*
X0111029Y0089128D02*
X0110061Y0088161D01*
X0109094Y0089128D01*
X0109094Y0091063D01*
X0109094Y0089613D02*
X0109094Y0087678D01*
X0110061Y0086711D01*
X0111029Y0087678D01*
X0108082Y0088162D02*
X0106147Y0086711D01*
X0106147Y0088161D02*
X0108082Y0089612D01*
X0106147Y0091063D01*
X0106147Y0089613D02*
X0108082Y0088162D01*
X0110115Y0096715D02*
X0111567Y0098650D01*
X0113018Y0096715D01*
X0112050Y0099662D02*
X0110115Y0099662D01*
X0110115Y0101597D02*
X0112050Y0101597D01*
X0113018Y0100629D01*
X0112050Y0099662D01*
X0111567Y0102608D02*
X0111567Y0104543D01*
X0111083Y0104543D02*
X0113018Y0104543D01*
X0113018Y0105555D02*
X0113018Y0107490D01*
X0112534Y0108501D02*
X0113018Y0108985D01*
X0113018Y0109952D01*
X0112534Y0110436D01*
X0110115Y0110436D01*
X0110115Y0111448D02*
X0113018Y0111448D01*
X0113018Y0113383D01*
X0111567Y0112415D02*
X0111567Y0111448D01*
X0110115Y0111448D02*
X0110115Y0113383D01*
X0110115Y0108501D02*
X0112534Y0108501D01*
X0113018Y0105555D02*
X0110115Y0105555D01*
X0111083Y0104543D02*
X0110115Y0103576D01*
X0111083Y0102608D01*
X0113018Y0102608D01*
X0102815Y0110686D02*
X0100880Y0110686D01*
X0100880Y0113588D01*
X0102815Y0113588D01*
X0101847Y0112137D02*
X0100880Y0112137D01*
X0099868Y0111170D02*
X0099868Y0113588D01*
X0097933Y0113588D02*
X0097933Y0111170D01*
X0098417Y0110686D01*
X0099384Y0110686D01*
X0099868Y0111170D01*
X0096922Y0110686D02*
X0094987Y0110686D01*
X0094987Y0113588D01*
X0093975Y0112621D02*
X0093975Y0110686D01*
X0093975Y0112137D02*
X0092040Y0112137D01*
X0092040Y0112621D02*
X0093008Y0113588D01*
X0093975Y0112621D01*
X0092040Y0112621D02*
X0092040Y0110686D01*
X0091029Y0111653D02*
X0091029Y0113588D01*
X0091029Y0111653D02*
X0090061Y0110686D01*
X0089094Y0111653D01*
X0089094Y0113588D01*
X0088082Y0112137D02*
X0086147Y0110686D01*
X0088082Y0112137D02*
X0086147Y0113588D01*
X0080956Y0109738D02*
X0079021Y0109738D01*
X0079021Y0106836D01*
X0080956Y0106836D01*
X0079989Y0108287D02*
X0079021Y0108287D01*
X0078010Y0109738D02*
X0078010Y0106836D01*
X0076075Y0106836D02*
X0076075Y0109738D01*
X0077042Y0108771D01*
X0078010Y0109738D01*
X0075063Y0108771D02*
X0075063Y0106836D01*
X0075063Y0108287D02*
X0073128Y0108287D01*
X0073128Y0108771D02*
X0074096Y0109738D01*
X0075063Y0108771D01*
X0073128Y0108771D02*
X0073128Y0106836D01*
X0072117Y0106836D02*
X0072117Y0109738D01*
X0070182Y0109738D02*
X0072117Y0106836D01*
X0070182Y0106836D02*
X0070182Y0109738D01*
X0069170Y0108287D02*
X0067235Y0106836D01*
X0069170Y0108287D02*
X0067235Y0109738D01*
X0082275Y0098888D02*
X0084743Y0098888D01*
X0085818Y0100386D02*
X0085818Y0097386D01*
X0088568Y0098886D01*
X0088568Y0100386D01*
X0088568Y0098886D02*
X0088568Y0097386D01*
X0088568Y0098886D02*
X0085818Y0100386D01*
X0088068Y0080386D02*
X0088068Y0078886D01*
X0088068Y0077386D01*
X0088068Y0078886D02*
X0090818Y0080386D01*
X0090818Y0077386D01*
X0088068Y0078886D01*
X0091965Y0070178D02*
X0091965Y0067709D01*
X0095668Y0067709D01*
X0095668Y0070178D01*
X0093816Y0068943D02*
X0093816Y0067709D01*
X0091965Y0066495D02*
X0095668Y0066495D01*
X0093199Y0065260D02*
X0091965Y0066495D01*
X0093199Y0065260D02*
X0091965Y0064026D01*
X0095668Y0064026D01*
X0095668Y0062811D02*
X0093199Y0062811D01*
X0091965Y0061577D01*
X0093199Y0060343D01*
X0095668Y0060343D01*
X0095668Y0059128D02*
X0091965Y0059128D01*
X0093816Y0060343D02*
X0093816Y0062811D01*
X0095668Y0059128D02*
X0091965Y0056660D01*
X0095668Y0056660D01*
X0093816Y0055445D02*
X0095668Y0052976D01*
X0093816Y0055445D02*
X0091965Y0052976D01*
X0123620Y0077436D02*
X0125555Y0078887D01*
X0123620Y0080338D01*
X0126567Y0080338D02*
X0128502Y0077436D01*
X0128502Y0080338D01*
X0129513Y0079371D02*
X0130481Y0080338D01*
X0131448Y0079371D01*
X0131448Y0077436D01*
X0132460Y0077436D02*
X0132460Y0080338D01*
X0133427Y0079371D01*
X0134395Y0080338D01*
X0134395Y0077436D01*
X0135406Y0077436D02*
X0137341Y0077436D01*
X0136374Y0078887D02*
X0135406Y0078887D01*
X0135406Y0080338D02*
X0135406Y0077436D01*
X0135406Y0080338D02*
X0137341Y0080338D01*
X0131448Y0078887D02*
X0129513Y0078887D01*
X0129513Y0079371D02*
X0129513Y0077436D01*
X0126567Y0077436D02*
X0126567Y0080338D01*
X0148005Y0070938D02*
X0149940Y0069487D01*
X0148005Y0068036D01*
X0150952Y0068036D02*
X0150952Y0070938D01*
X0152887Y0068036D01*
X0152887Y0070938D01*
X0153898Y0069971D02*
X0154866Y0070938D01*
X0155833Y0069971D01*
X0155833Y0068036D01*
X0156845Y0068036D02*
X0156845Y0070938D01*
X0157812Y0069971D01*
X0158780Y0070938D01*
X0158780Y0068036D01*
X0159791Y0068036D02*
X0161726Y0068036D01*
X0160759Y0069487D02*
X0159791Y0069487D01*
X0159791Y0070938D02*
X0159791Y0068036D01*
X0159791Y0070938D02*
X0161726Y0070938D01*
X0157051Y0071577D02*
X0154582Y0071577D01*
X0153898Y0069971D02*
X0153898Y0068036D01*
X0153898Y0069487D02*
X0155833Y0069487D01*
X0155816Y0070343D02*
X0155816Y0072811D01*
X0155816Y0080343D02*
X0155816Y0082811D01*
X0154582Y0081577D02*
X0157051Y0081577D01*
X0187275Y0058888D02*
X0189743Y0058888D01*
X0189743Y0028888D02*
X0187275Y0028888D01*
X0102456Y0123836D02*
X0100521Y0123836D01*
X0100521Y0126738D01*
X0102456Y0126738D01*
X0101489Y0125287D02*
X0100521Y0125287D01*
X0099510Y0126738D02*
X0099510Y0123836D01*
X0097575Y0123836D02*
X0097575Y0126738D01*
X0098542Y0125771D01*
X0099510Y0126738D01*
X0096563Y0125771D02*
X0096563Y0123836D01*
X0096563Y0125287D02*
X0094628Y0125287D01*
X0094628Y0125771D02*
X0095596Y0126738D01*
X0096563Y0125771D01*
X0094628Y0125771D02*
X0094628Y0123836D01*
X0093617Y0123836D02*
X0093617Y0126738D01*
X0091682Y0126738D02*
X0093617Y0123836D01*
X0091682Y0123836D02*
X0091682Y0126738D01*
X0090670Y0125287D02*
X0088735Y0123836D01*
X0090670Y0125287D02*
X0088735Y0126738D01*
X0069768Y0127135D02*
X0066865Y0127135D01*
X0069768Y0129070D01*
X0066865Y0129070D01*
X0067833Y0130081D02*
X0066865Y0131049D01*
X0067833Y0132016D01*
X0069768Y0132016D01*
X0069768Y0133028D02*
X0066865Y0133028D01*
X0067833Y0133995D01*
X0066865Y0134963D01*
X0069768Y0134963D01*
X0069768Y0135974D02*
X0069768Y0137909D01*
X0068317Y0136942D02*
X0068317Y0135974D01*
X0069768Y0135974D02*
X0066865Y0135974D01*
X0066865Y0137909D01*
X0068317Y0132016D02*
X0068317Y0130081D01*
X0067833Y0130081D02*
X0069768Y0130081D01*
X0068317Y0126123D02*
X0069768Y0124188D01*
X0068317Y0126123D02*
X0066865Y0124188D01*
X0052051Y0121577D02*
X0049582Y0121577D01*
X0050816Y0120343D02*
X0050816Y0122811D01*
X0111865Y0126715D02*
X0113317Y0128650D01*
X0114768Y0126715D01*
X0113800Y0129662D02*
X0111865Y0129662D01*
X0113800Y0129662D02*
X0114768Y0130629D01*
X0113800Y0131597D01*
X0111865Y0131597D01*
X0112833Y0132608D02*
X0111865Y0133576D01*
X0112833Y0134543D01*
X0114768Y0134543D01*
X0114768Y0135555D02*
X0114768Y0137490D01*
X0114284Y0138501D02*
X0111865Y0138501D01*
X0111865Y0140436D02*
X0114284Y0140436D01*
X0114768Y0139952D01*
X0114768Y0138985D01*
X0114284Y0138501D01*
X0114768Y0135555D02*
X0111865Y0135555D01*
X0113317Y0134543D02*
X0113317Y0132608D01*
X0112833Y0132608D02*
X0114768Y0132608D01*
X0114768Y0141448D02*
X0111865Y0141448D01*
X0111865Y0143383D01*
X0113317Y0142415D02*
X0113317Y0141448D01*
X0114768Y0141448D02*
X0114768Y0143383D01*
D15*
X0091318Y0101386D02*
X0085318Y0101386D01*
X0085231Y0101384D01*
X0085144Y0101378D01*
X0085057Y0101369D01*
X0084971Y0101356D01*
X0084885Y0101339D01*
X0084800Y0101318D01*
X0084717Y0101293D01*
X0084634Y0101265D01*
X0084553Y0101234D01*
X0084473Y0101199D01*
X0084395Y0101160D01*
X0084318Y0101118D01*
X0084243Y0101073D01*
X0084171Y0101024D01*
X0084100Y0100973D01*
X0084032Y0100918D01*
X0083967Y0100861D01*
X0083904Y0100800D01*
X0083843Y0100737D01*
X0083786Y0100672D01*
X0083731Y0100604D01*
X0083680Y0100533D01*
X0083631Y0100461D01*
X0083586Y0100386D01*
X0083544Y0100309D01*
X0083505Y0100231D01*
X0083470Y0100151D01*
X0083439Y0100070D01*
X0083411Y0099987D01*
X0083386Y0099904D01*
X0083365Y0099819D01*
X0083348Y0099733D01*
X0083335Y0099647D01*
X0083326Y0099560D01*
X0083320Y0099473D01*
X0083318Y0099386D01*
X0083318Y0098386D01*
X0083320Y0098299D01*
X0083326Y0098212D01*
X0083335Y0098125D01*
X0083348Y0098039D01*
X0083365Y0097953D01*
X0083386Y0097868D01*
X0083411Y0097785D01*
X0083439Y0097702D01*
X0083470Y0097621D01*
X0083505Y0097541D01*
X0083544Y0097463D01*
X0083586Y0097386D01*
X0083631Y0097311D01*
X0083680Y0097239D01*
X0083731Y0097168D01*
X0083786Y0097100D01*
X0083843Y0097035D01*
X0083904Y0096972D01*
X0083967Y0096911D01*
X0084032Y0096854D01*
X0084100Y0096799D01*
X0084171Y0096748D01*
X0084243Y0096699D01*
X0084318Y0096654D01*
X0084395Y0096612D01*
X0084473Y0096573D01*
X0084553Y0096538D01*
X0084634Y0096507D01*
X0084717Y0096479D01*
X0084800Y0096454D01*
X0084885Y0096433D01*
X0084971Y0096416D01*
X0085057Y0096403D01*
X0085144Y0096394D01*
X0085231Y0096388D01*
X0085318Y0096386D01*
X0091318Y0096386D01*
X0091405Y0096388D01*
X0091492Y0096394D01*
X0091579Y0096403D01*
X0091665Y0096416D01*
X0091751Y0096433D01*
X0091836Y0096454D01*
X0091919Y0096479D01*
X0092002Y0096507D01*
X0092083Y0096538D01*
X0092163Y0096573D01*
X0092241Y0096612D01*
X0092318Y0096654D01*
X0092393Y0096699D01*
X0092465Y0096748D01*
X0092536Y0096799D01*
X0092604Y0096854D01*
X0092669Y0096911D01*
X0092732Y0096972D01*
X0092793Y0097035D01*
X0092850Y0097100D01*
X0092905Y0097168D01*
X0092956Y0097239D01*
X0093005Y0097311D01*
X0093050Y0097386D01*
X0093092Y0097463D01*
X0093131Y0097541D01*
X0093166Y0097621D01*
X0093197Y0097702D01*
X0093225Y0097785D01*
X0093250Y0097868D01*
X0093271Y0097953D01*
X0093288Y0098039D01*
X0093301Y0098125D01*
X0093310Y0098212D01*
X0093316Y0098299D01*
X0093318Y0098386D01*
X0093318Y0099386D01*
X0093316Y0099473D01*
X0093310Y0099560D01*
X0093301Y0099647D01*
X0093288Y0099733D01*
X0093271Y0099819D01*
X0093250Y0099904D01*
X0093225Y0099987D01*
X0093197Y0100070D01*
X0093166Y0100151D01*
X0093131Y0100231D01*
X0093092Y0100309D01*
X0093050Y0100386D01*
X0093005Y0100461D01*
X0092956Y0100533D01*
X0092905Y0100604D01*
X0092850Y0100672D01*
X0092793Y0100737D01*
X0092732Y0100800D01*
X0092669Y0100861D01*
X0092604Y0100918D01*
X0092536Y0100973D01*
X0092465Y0101024D01*
X0092393Y0101073D01*
X0092318Y0101118D01*
X0092241Y0101160D01*
X0092163Y0101199D01*
X0092083Y0101234D01*
X0092002Y0101265D01*
X0091919Y0101293D01*
X0091836Y0101318D01*
X0091751Y0101339D01*
X0091665Y0101356D01*
X0091579Y0101369D01*
X0091492Y0101378D01*
X0091405Y0101384D01*
X0091318Y0101386D01*
X0091318Y0081386D02*
X0085318Y0081386D01*
X0085231Y0081384D01*
X0085144Y0081378D01*
X0085057Y0081369D01*
X0084971Y0081356D01*
X0084885Y0081339D01*
X0084800Y0081318D01*
X0084717Y0081293D01*
X0084634Y0081265D01*
X0084553Y0081234D01*
X0084473Y0081199D01*
X0084395Y0081160D01*
X0084318Y0081118D01*
X0084243Y0081073D01*
X0084171Y0081024D01*
X0084100Y0080973D01*
X0084032Y0080918D01*
X0083967Y0080861D01*
X0083904Y0080800D01*
X0083843Y0080737D01*
X0083786Y0080672D01*
X0083731Y0080604D01*
X0083680Y0080533D01*
X0083631Y0080461D01*
X0083586Y0080386D01*
X0083544Y0080309D01*
X0083505Y0080231D01*
X0083470Y0080151D01*
X0083439Y0080070D01*
X0083411Y0079987D01*
X0083386Y0079904D01*
X0083365Y0079819D01*
X0083348Y0079733D01*
X0083335Y0079647D01*
X0083326Y0079560D01*
X0083320Y0079473D01*
X0083318Y0079386D01*
X0083318Y0078386D01*
X0083320Y0078299D01*
X0083326Y0078212D01*
X0083335Y0078125D01*
X0083348Y0078039D01*
X0083365Y0077953D01*
X0083386Y0077868D01*
X0083411Y0077785D01*
X0083439Y0077702D01*
X0083470Y0077621D01*
X0083505Y0077541D01*
X0083544Y0077463D01*
X0083586Y0077386D01*
X0083631Y0077311D01*
X0083680Y0077239D01*
X0083731Y0077168D01*
X0083786Y0077100D01*
X0083843Y0077035D01*
X0083904Y0076972D01*
X0083967Y0076911D01*
X0084032Y0076854D01*
X0084100Y0076799D01*
X0084171Y0076748D01*
X0084243Y0076699D01*
X0084318Y0076654D01*
X0084395Y0076612D01*
X0084473Y0076573D01*
X0084553Y0076538D01*
X0084634Y0076507D01*
X0084717Y0076479D01*
X0084800Y0076454D01*
X0084885Y0076433D01*
X0084971Y0076416D01*
X0085057Y0076403D01*
X0085144Y0076394D01*
X0085231Y0076388D01*
X0085318Y0076386D01*
X0091318Y0076386D01*
X0091405Y0076388D01*
X0091492Y0076394D01*
X0091579Y0076403D01*
X0091665Y0076416D01*
X0091751Y0076433D01*
X0091836Y0076454D01*
X0091919Y0076479D01*
X0092002Y0076507D01*
X0092083Y0076538D01*
X0092163Y0076573D01*
X0092241Y0076612D01*
X0092318Y0076654D01*
X0092393Y0076699D01*
X0092465Y0076748D01*
X0092536Y0076799D01*
X0092604Y0076854D01*
X0092669Y0076911D01*
X0092732Y0076972D01*
X0092793Y0077035D01*
X0092850Y0077100D01*
X0092905Y0077168D01*
X0092956Y0077239D01*
X0093005Y0077311D01*
X0093050Y0077386D01*
X0093092Y0077463D01*
X0093131Y0077541D01*
X0093166Y0077621D01*
X0093197Y0077702D01*
X0093225Y0077785D01*
X0093250Y0077868D01*
X0093271Y0077953D01*
X0093288Y0078039D01*
X0093301Y0078125D01*
X0093310Y0078212D01*
X0093316Y0078299D01*
X0093318Y0078386D01*
X0093318Y0079386D01*
X0093316Y0079473D01*
X0093310Y0079560D01*
X0093301Y0079647D01*
X0093288Y0079733D01*
X0093271Y0079819D01*
X0093250Y0079904D01*
X0093225Y0079987D01*
X0093197Y0080070D01*
X0093166Y0080151D01*
X0093131Y0080231D01*
X0093092Y0080309D01*
X0093050Y0080386D01*
X0093005Y0080461D01*
X0092956Y0080533D01*
X0092905Y0080604D01*
X0092850Y0080672D01*
X0092793Y0080737D01*
X0092732Y0080800D01*
X0092669Y0080861D01*
X0092604Y0080918D01*
X0092536Y0080973D01*
X0092465Y0081024D01*
X0092393Y0081073D01*
X0092318Y0081118D01*
X0092241Y0081160D01*
X0092163Y0081199D01*
X0092083Y0081234D01*
X0092002Y0081265D01*
X0091919Y0081293D01*
X0091836Y0081318D01*
X0091751Y0081339D01*
X0091665Y0081356D01*
X0091579Y0081369D01*
X0091492Y0081378D01*
X0091405Y0081384D01*
X0091318Y0081386D01*
D16*
X0085568Y0078886D03*
X0091068Y0098886D03*
D17*
X0094618Y0098886D03*
X0082018Y0098886D03*
X0082018Y0078886D03*
X0094618Y0078886D03*
D18*
X0089068Y0088886D03*
X0077568Y0088886D03*
X0127568Y0078886D03*
X0127568Y0068886D03*
X0139068Y0068886D03*
X0139068Y0078886D03*
D19*
X0134068Y0038886D03*
X0134068Y0038886D03*
X0112568Y0038886D03*
X0112568Y0038886D03*
D20*
X0083318Y0033886D02*
X0083318Y0023886D01*
X0053318Y0023886D01*
X0053318Y0033886D01*
X0083318Y0033886D01*
X0108318Y0068398D02*
X0108318Y0089374D01*
X0114818Y0087134D02*
X0114818Y0070638D01*
X0112790Y0088386D02*
X0112525Y0088499D01*
X0112257Y0088605D01*
X0111987Y0088704D01*
X0111714Y0088797D01*
X0111439Y0088883D01*
X0111162Y0088962D01*
X0110884Y0089035D01*
X0110603Y0089100D01*
X0110321Y0089159D01*
X0110038Y0089211D01*
X0109753Y0089256D01*
X0109467Y0089293D01*
X0109181Y0089324D01*
X0108894Y0089348D01*
X0108606Y0089365D01*
X0108318Y0089374D01*
X0112790Y0069386D02*
X0112525Y0069273D01*
X0112257Y0069167D01*
X0111987Y0069068D01*
X0111714Y0068975D01*
X0111439Y0068889D01*
X0111162Y0068810D01*
X0110884Y0068737D01*
X0110603Y0068672D01*
X0110321Y0068613D01*
X0110038Y0068561D01*
X0109753Y0068516D01*
X0109467Y0068479D01*
X0109181Y0068448D01*
X0108894Y0068424D01*
X0108606Y0068407D01*
X0108318Y0068398D01*
X0108086Y0068395D01*
X0107855Y0068397D01*
X0107624Y0068405D01*
X0107393Y0068419D01*
X0107163Y0068438D01*
X0106933Y0068463D01*
X0106704Y0068494D01*
X0106475Y0068530D01*
X0106248Y0068571D01*
X0106021Y0068618D01*
X0105796Y0068671D01*
X0105572Y0068729D01*
X0105350Y0068793D01*
X0105129Y0068862D01*
X0104910Y0068936D01*
X0104693Y0069016D01*
X0104478Y0069101D01*
X0104265Y0069191D01*
X0104054Y0069286D01*
X0103846Y0069386D01*
X0112789Y0069384D02*
X0113004Y0069488D01*
X0113217Y0069597D01*
X0113427Y0069711D01*
X0113634Y0069830D01*
X0113839Y0069953D01*
X0114041Y0070081D01*
X0114240Y0070214D01*
X0114435Y0070351D01*
X0114628Y0070492D01*
X0114817Y0070638D01*
X0103846Y0069386D02*
X0103616Y0069498D01*
X0103389Y0069615D01*
X0103165Y0069737D01*
X0102944Y0069865D01*
X0102727Y0069999D01*
X0102512Y0070137D01*
X0102301Y0070281D01*
X0102094Y0070430D01*
X0101890Y0070584D01*
X0101690Y0070742D01*
X0101494Y0070906D01*
X0101302Y0071074D01*
X0101114Y0071247D01*
X0100930Y0071425D01*
X0100751Y0071606D01*
X0100576Y0071793D01*
X0100406Y0071983D01*
X0100241Y0072177D01*
X0100080Y0072376D01*
X0099924Y0072578D01*
X0099773Y0072784D01*
X0099627Y0072994D01*
X0099487Y0073207D01*
X0099351Y0073423D01*
X0099221Y0073643D01*
X0099096Y0073866D01*
X0098977Y0074091D01*
X0098863Y0074320D01*
X0098755Y0074551D01*
X0098652Y0074785D01*
X0098555Y0075021D01*
X0098464Y0075260D01*
X0098379Y0075500D01*
X0098299Y0075743D01*
X0098226Y0075988D01*
X0098158Y0076234D01*
X0098097Y0076482D01*
X0098042Y0076731D01*
X0097992Y0076981D01*
X0097949Y0077233D01*
X0097912Y0077486D01*
X0097881Y0077739D01*
X0097856Y0077993D01*
X0097837Y0078248D01*
X0097825Y0078503D01*
X0097819Y0078758D01*
X0097819Y0079014D01*
X0097825Y0079269D01*
X0097837Y0079524D01*
X0097856Y0079779D01*
X0097881Y0080033D01*
X0097912Y0080286D01*
X0097949Y0080539D01*
X0097992Y0080791D01*
X0098042Y0081041D01*
X0098097Y0081290D01*
X0098158Y0081538D01*
X0098226Y0081784D01*
X0098299Y0082029D01*
X0098379Y0082272D01*
X0098464Y0082512D01*
X0098555Y0082751D01*
X0098652Y0082987D01*
X0098755Y0083221D01*
X0098863Y0083452D01*
X0098977Y0083681D01*
X0099096Y0083906D01*
X0099221Y0084129D01*
X0099351Y0084349D01*
X0099487Y0084565D01*
X0099627Y0084778D01*
X0099773Y0084988D01*
X0099924Y0085194D01*
X0100080Y0085396D01*
X0100241Y0085595D01*
X0100406Y0085789D01*
X0100576Y0085979D01*
X0100751Y0086166D01*
X0100930Y0086347D01*
X0101114Y0086525D01*
X0101302Y0086698D01*
X0101494Y0086866D01*
X0101690Y0087030D01*
X0101890Y0087188D01*
X0102094Y0087342D01*
X0102301Y0087491D01*
X0102512Y0087635D01*
X0102727Y0087773D01*
X0102944Y0087907D01*
X0103165Y0088035D01*
X0103389Y0088157D01*
X0103616Y0088274D01*
X0103846Y0088386D01*
X0104054Y0088486D01*
X0104265Y0088581D01*
X0104478Y0088671D01*
X0104693Y0088756D01*
X0104910Y0088836D01*
X0105129Y0088910D01*
X0105350Y0088979D01*
X0105572Y0089043D01*
X0105796Y0089101D01*
X0106021Y0089154D01*
X0106248Y0089201D01*
X0106475Y0089242D01*
X0106704Y0089278D01*
X0106933Y0089309D01*
X0107163Y0089334D01*
X0107393Y0089353D01*
X0107624Y0089367D01*
X0107855Y0089375D01*
X0108086Y0089377D01*
X0108318Y0089374D01*
X0107818Y0098398D02*
X0107818Y0119374D01*
X0101818Y0117134D02*
X0101818Y0100638D01*
X0102015Y0100486D01*
X0102217Y0100339D01*
X0102421Y0100196D01*
X0102629Y0100059D01*
X0102840Y0099926D01*
X0103055Y0099798D01*
X0103272Y0099676D01*
X0103492Y0099559D01*
X0103715Y0099447D01*
X0103940Y0099340D01*
X0107818Y0098398D02*
X0108074Y0098389D01*
X0108330Y0098386D01*
X0108586Y0098389D01*
X0108842Y0098399D01*
X0109097Y0098415D01*
X0109352Y0098437D01*
X0109607Y0098465D01*
X0109860Y0098500D01*
X0110113Y0098541D01*
X0110365Y0098587D01*
X0110615Y0098640D01*
X0110864Y0098699D01*
X0111112Y0098765D01*
X0111358Y0098836D01*
X0111602Y0098913D01*
X0111844Y0098996D01*
X0112084Y0099085D01*
X0112322Y0099179D01*
X0112557Y0099280D01*
X0112790Y0099386D01*
X0107818Y0098398D02*
X0107561Y0098413D01*
X0107304Y0098435D01*
X0107048Y0098463D01*
X0106793Y0098497D01*
X0106539Y0098538D01*
X0106286Y0098585D01*
X0106034Y0098638D01*
X0105783Y0098697D01*
X0105534Y0098762D01*
X0105287Y0098833D01*
X0105041Y0098910D01*
X0104797Y0098994D01*
X0104556Y0099083D01*
X0104317Y0099178D01*
X0104080Y0099279D01*
X0103846Y0099386D01*
X0107818Y0119374D02*
X0108074Y0119383D01*
X0108330Y0119386D01*
X0108586Y0119383D01*
X0108842Y0119373D01*
X0109097Y0119357D01*
X0109352Y0119335D01*
X0109607Y0119307D01*
X0109860Y0119272D01*
X0110113Y0119231D01*
X0110365Y0119185D01*
X0110615Y0119132D01*
X0110864Y0119073D01*
X0111112Y0119007D01*
X0111358Y0118936D01*
X0111602Y0118859D01*
X0111844Y0118776D01*
X0112084Y0118687D01*
X0112322Y0118593D01*
X0112557Y0118492D01*
X0112790Y0118386D01*
X0103846Y0118388D02*
X0103631Y0118284D01*
X0103418Y0118175D01*
X0103208Y0118061D01*
X0103001Y0117942D01*
X0102796Y0117819D01*
X0102594Y0117691D01*
X0102395Y0117558D01*
X0102200Y0117421D01*
X0102007Y0117280D01*
X0101818Y0117134D01*
X0112790Y0118386D02*
X0113020Y0118274D01*
X0113247Y0118157D01*
X0113471Y0118035D01*
X0113692Y0117907D01*
X0113909Y0117773D01*
X0114124Y0117635D01*
X0114335Y0117491D01*
X0114542Y0117342D01*
X0114746Y0117188D01*
X0114946Y0117030D01*
X0115142Y0116866D01*
X0115334Y0116698D01*
X0115522Y0116525D01*
X0115706Y0116347D01*
X0115885Y0116166D01*
X0116060Y0115979D01*
X0116230Y0115789D01*
X0116395Y0115595D01*
X0116556Y0115396D01*
X0116712Y0115194D01*
X0116863Y0114988D01*
X0117009Y0114778D01*
X0117149Y0114565D01*
X0117285Y0114349D01*
X0117415Y0114129D01*
X0117540Y0113906D01*
X0117659Y0113681D01*
X0117773Y0113452D01*
X0117881Y0113221D01*
X0117984Y0112987D01*
X0118081Y0112751D01*
X0118172Y0112512D01*
X0118257Y0112272D01*
X0118337Y0112029D01*
X0118410Y0111784D01*
X0118478Y0111538D01*
X0118539Y0111290D01*
X0118594Y0111041D01*
X0118644Y0110791D01*
X0118687Y0110539D01*
X0118724Y0110286D01*
X0118755Y0110033D01*
X0118780Y0109779D01*
X0118799Y0109524D01*
X0118811Y0109269D01*
X0118817Y0109014D01*
X0118817Y0108758D01*
X0118811Y0108503D01*
X0118799Y0108248D01*
X0118780Y0107993D01*
X0118755Y0107739D01*
X0118724Y0107486D01*
X0118687Y0107233D01*
X0118644Y0106981D01*
X0118594Y0106731D01*
X0118539Y0106482D01*
X0118478Y0106234D01*
X0118410Y0105988D01*
X0118337Y0105743D01*
X0118257Y0105500D01*
X0118172Y0105260D01*
X0118081Y0105021D01*
X0117984Y0104785D01*
X0117881Y0104551D01*
X0117773Y0104320D01*
X0117659Y0104091D01*
X0117540Y0103866D01*
X0117415Y0103643D01*
X0117285Y0103423D01*
X0117149Y0103207D01*
X0117009Y0102994D01*
X0116863Y0102784D01*
X0116712Y0102578D01*
X0116556Y0102376D01*
X0116395Y0102177D01*
X0116230Y0101983D01*
X0116060Y0101793D01*
X0115885Y0101606D01*
X0115706Y0101425D01*
X0115522Y0101247D01*
X0115334Y0101074D01*
X0115142Y0100906D01*
X0114946Y0100742D01*
X0114746Y0100584D01*
X0114542Y0100430D01*
X0114335Y0100281D01*
X0114124Y0100137D01*
X0113909Y0099999D01*
X0113692Y0099865D01*
X0113471Y0099737D01*
X0113247Y0099615D01*
X0113020Y0099498D01*
X0112790Y0099386D01*
X0107818Y0119374D02*
X0107561Y0119359D01*
X0107304Y0119337D01*
X0107048Y0119309D01*
X0106793Y0119275D01*
X0106539Y0119234D01*
X0106286Y0119187D01*
X0106034Y0119134D01*
X0105783Y0119075D01*
X0105534Y0119010D01*
X0105287Y0118939D01*
X0105041Y0118862D01*
X0104797Y0118778D01*
X0104556Y0118689D01*
X0104317Y0118594D01*
X0104080Y0118493D01*
X0103846Y0118386D01*
X0078806Y0108886D02*
X0057830Y0108886D01*
X0053318Y0103886D02*
X0053318Y0083886D01*
X0063318Y0083886D01*
X0063318Y0103886D01*
X0053318Y0103886D01*
X0078806Y0108886D02*
X0078797Y0109174D01*
X0078780Y0109462D01*
X0078756Y0109749D01*
X0078725Y0110035D01*
X0078688Y0110321D01*
X0078643Y0110606D01*
X0078591Y0110889D01*
X0078532Y0111171D01*
X0078467Y0111452D01*
X0078394Y0111730D01*
X0078315Y0112007D01*
X0078229Y0112282D01*
X0078136Y0112555D01*
X0078037Y0112825D01*
X0077931Y0113093D01*
X0077818Y0113358D01*
X0076566Y0115386D02*
X0060070Y0115386D01*
X0057830Y0108886D02*
X0057827Y0108654D01*
X0057829Y0108423D01*
X0057837Y0108192D01*
X0057851Y0107961D01*
X0057870Y0107731D01*
X0057895Y0107501D01*
X0057926Y0107272D01*
X0057962Y0107043D01*
X0058003Y0106816D01*
X0058050Y0106589D01*
X0058103Y0106364D01*
X0058161Y0106140D01*
X0058225Y0105918D01*
X0058294Y0105697D01*
X0058368Y0105478D01*
X0058448Y0105261D01*
X0058533Y0105046D01*
X0058623Y0104833D01*
X0058718Y0104622D01*
X0058818Y0104414D01*
X0058772Y0113264D02*
X0058879Y0113489D01*
X0058991Y0113712D01*
X0059108Y0113932D01*
X0059230Y0114149D01*
X0059358Y0114364D01*
X0059491Y0114575D01*
X0059628Y0114783D01*
X0059771Y0114987D01*
X0059918Y0115189D01*
X0060070Y0115386D01*
X0058818Y0104414D02*
X0058930Y0104184D01*
X0059047Y0103957D01*
X0059169Y0103733D01*
X0059297Y0103512D01*
X0059431Y0103295D01*
X0059569Y0103080D01*
X0059713Y0102869D01*
X0059862Y0102662D01*
X0060016Y0102458D01*
X0060174Y0102258D01*
X0060338Y0102062D01*
X0060506Y0101870D01*
X0060679Y0101682D01*
X0060857Y0101498D01*
X0061038Y0101319D01*
X0061225Y0101144D01*
X0061415Y0100974D01*
X0061609Y0100809D01*
X0061808Y0100648D01*
X0062010Y0100492D01*
X0062216Y0100341D01*
X0062426Y0100195D01*
X0062639Y0100055D01*
X0062855Y0099919D01*
X0063075Y0099789D01*
X0063298Y0099664D01*
X0063523Y0099545D01*
X0063752Y0099431D01*
X0063983Y0099323D01*
X0064217Y0099220D01*
X0064453Y0099123D01*
X0064692Y0099032D01*
X0064932Y0098947D01*
X0065175Y0098867D01*
X0065420Y0098794D01*
X0065666Y0098726D01*
X0065914Y0098665D01*
X0066163Y0098610D01*
X0066413Y0098560D01*
X0066665Y0098517D01*
X0066918Y0098480D01*
X0067171Y0098449D01*
X0067425Y0098424D01*
X0067680Y0098405D01*
X0067935Y0098393D01*
X0068190Y0098387D01*
X0068446Y0098387D01*
X0068701Y0098393D01*
X0068956Y0098405D01*
X0069211Y0098424D01*
X0069465Y0098449D01*
X0069718Y0098480D01*
X0069971Y0098517D01*
X0070223Y0098560D01*
X0070473Y0098610D01*
X0070722Y0098665D01*
X0070970Y0098726D01*
X0071216Y0098794D01*
X0071461Y0098867D01*
X0071704Y0098947D01*
X0071944Y0099032D01*
X0072183Y0099123D01*
X0072419Y0099220D01*
X0072653Y0099323D01*
X0072884Y0099431D01*
X0073113Y0099545D01*
X0073338Y0099664D01*
X0073561Y0099789D01*
X0073781Y0099919D01*
X0073997Y0100055D01*
X0074210Y0100195D01*
X0074420Y0100341D01*
X0074626Y0100492D01*
X0074828Y0100648D01*
X0075027Y0100809D01*
X0075221Y0100974D01*
X0075411Y0101144D01*
X0075598Y0101319D01*
X0075779Y0101498D01*
X0075957Y0101682D01*
X0076130Y0101870D01*
X0076298Y0102062D01*
X0076462Y0102258D01*
X0076620Y0102458D01*
X0076774Y0102662D01*
X0076923Y0102869D01*
X0077067Y0103080D01*
X0077205Y0103295D01*
X0077339Y0103512D01*
X0077467Y0103733D01*
X0077589Y0103957D01*
X0077706Y0104184D01*
X0077818Y0104414D01*
X0057830Y0108886D02*
X0057839Y0109174D01*
X0057856Y0109462D01*
X0057880Y0109749D01*
X0057911Y0110035D01*
X0057948Y0110321D01*
X0057993Y0110606D01*
X0058045Y0110889D01*
X0058104Y0111171D01*
X0058169Y0111452D01*
X0058242Y0111730D01*
X0058321Y0112007D01*
X0058407Y0112282D01*
X0058500Y0112555D01*
X0058599Y0112825D01*
X0058705Y0113093D01*
X0058818Y0113358D01*
X0076566Y0115386D02*
X0076712Y0115197D01*
X0076853Y0115004D01*
X0076990Y0114809D01*
X0077123Y0114610D01*
X0077251Y0114408D01*
X0077374Y0114203D01*
X0077493Y0113996D01*
X0077607Y0113786D01*
X0077716Y0113573D01*
X0077820Y0113358D01*
X0078806Y0108886D02*
X0078809Y0108654D01*
X0078807Y0108423D01*
X0078799Y0108192D01*
X0078785Y0107961D01*
X0078766Y0107731D01*
X0078741Y0107501D01*
X0078710Y0107272D01*
X0078674Y0107043D01*
X0078633Y0106816D01*
X0078586Y0106589D01*
X0078533Y0106364D01*
X0078475Y0106140D01*
X0078411Y0105918D01*
X0078342Y0105697D01*
X0078268Y0105478D01*
X0078188Y0105261D01*
X0078103Y0105046D01*
X0078013Y0104833D01*
X0077918Y0104622D01*
X0077818Y0104414D01*
X0112695Y0088432D02*
X0112920Y0088325D01*
X0113143Y0088213D01*
X0113363Y0088096D01*
X0113580Y0087974D01*
X0113795Y0087846D01*
X0114006Y0087713D01*
X0114214Y0087576D01*
X0114418Y0087433D01*
X0114620Y0087286D01*
X0114817Y0087134D01*
X0143318Y0063886D02*
X0143318Y0043886D01*
X0153318Y0043886D01*
X0153318Y0063886D01*
X0143318Y0063886D01*
X0143318Y0043886D02*
X0143318Y0023886D01*
X0153318Y0023886D01*
X0153318Y0043886D01*
X0143318Y0043886D01*
D21*
X0105497Y0113436D02*
X0104763Y0113436D01*
X0105130Y0113436D02*
X0105130Y0114537D01*
X0104763Y0114170D01*
M02*
