G75*
%MOIN*%
%OFA0B0*%
%FSLAX25Y25*%
%IPPOS*%
%LPD*%
%AMOC8*
5,1,8,0,0,1.08239X$1,22.5*
%
%ADD10C,0.00000*%
%ADD11C,0.05543*%
%ADD12R,0.04756X0.04756*%
%ADD13R,0.07500X0.07500*%
%ADD14C,0.07000*%
%ADD15OC8,0.07000*%
%ADD16R,0.07000X0.07000*%
%ADD17OC8,0.05150*%
%ADD18C,0.05000*%
%ADD19R,0.03962X0.03962*%
D10*
X0048318Y0018886D02*
X0048318Y0128886D01*
X0158318Y0128886D01*
X0158318Y0018886D01*
X0048318Y0018886D01*
D11*
X0068318Y0048886D03*
X0098318Y0048886D03*
X0108318Y0038886D03*
X0138318Y0038886D03*
X0148318Y0068886D03*
X0148318Y0078886D03*
X0118318Y0078886D03*
X0118318Y0068886D03*
X0098318Y0078886D03*
X0098318Y0088886D03*
X0098318Y0098886D03*
X0078318Y0098886D03*
X0068318Y0088886D03*
X0078318Y0078886D03*
X0058318Y0078886D03*
D12*
X0058318Y0068886D03*
X0068318Y0058886D03*
X0098318Y0058886D03*
D13*
X0148318Y0108886D03*
D14*
X0128318Y0108886D03*
X0108318Y0088886D03*
X0108318Y0078886D03*
X0108318Y0068886D03*
X0148318Y0058886D03*
X0148318Y0048886D03*
X0148318Y0038886D03*
X0148318Y0028886D03*
X0058318Y0088886D03*
X0058318Y0098886D03*
X0058318Y0108886D03*
X0068318Y0108886D03*
X0078318Y0108886D03*
D15*
X0078318Y0028886D03*
X0068318Y0028886D03*
D16*
X0058318Y0028886D03*
D17*
X0108318Y0098886D03*
X0108318Y0108886D03*
X0108318Y0118886D03*
D18*
X0118318Y0048886D02*
X0138318Y0048886D01*
D19*
X0138318Y0048886D03*
X0118318Y0048886D03*
M02*
