G75*
%MOIN*%
%OFA0B0*%
%FSLAX25Y25*%
%IPPOS*%
%LPD*%
%AMOC8*
5,1,8,0,0,1.08239X$1,22.5*
%
%ADD10C,0.00600*%
%ADD11R,0.01000X0.06400*%
%ADD12C,0.00300*%
%ADD13R,0.08000X0.02000*%
%ADD14C,0.00400*%
%ADD15R,0.01000X0.05000*%
%ADD16R,0.02200X0.00800*%
%ADD17C,0.00500*%
%ADD18R,0.01500X0.01000*%
%ADD19R,0.01000X0.01500*%
%ADD20R,0.06400X0.01000*%
%ADD21C,0.00800*%
%ADD22R,0.01500X0.02000*%
D10*
X0028608Y0040337D02*
X0028610Y0040533D01*
X0028618Y0040730D01*
X0028630Y0040926D01*
X0028647Y0041121D01*
X0028668Y0041316D01*
X0028695Y0041511D01*
X0028726Y0041705D01*
X0028762Y0041898D01*
X0028802Y0042090D01*
X0028848Y0042281D01*
X0028898Y0042471D01*
X0028952Y0042659D01*
X0029012Y0042846D01*
X0029076Y0043032D01*
X0029144Y0043216D01*
X0029217Y0043398D01*
X0029294Y0043579D01*
X0029376Y0043757D01*
X0029462Y0043934D01*
X0029553Y0044108D01*
X0029647Y0044280D01*
X0029746Y0044450D01*
X0029849Y0044617D01*
X0029956Y0044782D01*
X0030067Y0044943D01*
X0030182Y0045103D01*
X0030301Y0045259D01*
X0030424Y0045412D01*
X0030550Y0045562D01*
X0030680Y0045709D01*
X0030814Y0045853D01*
X0030951Y0045994D01*
X0031092Y0046131D01*
X0031236Y0046265D01*
X0031383Y0046395D01*
X0031533Y0046521D01*
X0031686Y0046644D01*
X0031842Y0046763D01*
X0032002Y0046878D01*
X0032163Y0046989D01*
X0032328Y0047096D01*
X0032495Y0047199D01*
X0032665Y0047298D01*
X0032837Y0047392D01*
X0033011Y0047483D01*
X0033188Y0047569D01*
X0033366Y0047651D01*
X0033547Y0047728D01*
X0033729Y0047801D01*
X0033913Y0047869D01*
X0034099Y0047933D01*
X0034286Y0047993D01*
X0034474Y0048047D01*
X0034664Y0048097D01*
X0034855Y0048143D01*
X0035047Y0048183D01*
X0035240Y0048219D01*
X0035434Y0048250D01*
X0035629Y0048277D01*
X0035824Y0048298D01*
X0036019Y0048315D01*
X0036215Y0048327D01*
X0036412Y0048335D01*
X0036608Y0048337D01*
X0036804Y0048335D01*
X0037001Y0048327D01*
X0037197Y0048315D01*
X0037392Y0048298D01*
X0037587Y0048277D01*
X0037782Y0048250D01*
X0037976Y0048219D01*
X0038169Y0048183D01*
X0038361Y0048143D01*
X0038552Y0048097D01*
X0038742Y0048047D01*
X0038930Y0047993D01*
X0039117Y0047933D01*
X0039303Y0047869D01*
X0039487Y0047801D01*
X0039669Y0047728D01*
X0039850Y0047651D01*
X0040028Y0047569D01*
X0040205Y0047483D01*
X0040379Y0047392D01*
X0040551Y0047298D01*
X0040721Y0047199D01*
X0040888Y0047096D01*
X0041053Y0046989D01*
X0041214Y0046878D01*
X0041374Y0046763D01*
X0041530Y0046644D01*
X0041683Y0046521D01*
X0041833Y0046395D01*
X0041980Y0046265D01*
X0042124Y0046131D01*
X0042265Y0045994D01*
X0042402Y0045853D01*
X0042536Y0045709D01*
X0042666Y0045562D01*
X0042792Y0045412D01*
X0042915Y0045259D01*
X0043034Y0045103D01*
X0043149Y0044943D01*
X0043260Y0044782D01*
X0043367Y0044617D01*
X0043470Y0044450D01*
X0043569Y0044280D01*
X0043663Y0044108D01*
X0043754Y0043934D01*
X0043840Y0043757D01*
X0043922Y0043579D01*
X0043999Y0043398D01*
X0044072Y0043216D01*
X0044140Y0043032D01*
X0044204Y0042846D01*
X0044264Y0042659D01*
X0044318Y0042471D01*
X0044368Y0042281D01*
X0044414Y0042090D01*
X0044454Y0041898D01*
X0044490Y0041705D01*
X0044521Y0041511D01*
X0044548Y0041316D01*
X0044569Y0041121D01*
X0044586Y0040926D01*
X0044598Y0040730D01*
X0044606Y0040533D01*
X0044608Y0040337D01*
X0044606Y0040141D01*
X0044598Y0039944D01*
X0044586Y0039748D01*
X0044569Y0039553D01*
X0044548Y0039358D01*
X0044521Y0039163D01*
X0044490Y0038969D01*
X0044454Y0038776D01*
X0044414Y0038584D01*
X0044368Y0038393D01*
X0044318Y0038203D01*
X0044264Y0038015D01*
X0044204Y0037828D01*
X0044140Y0037642D01*
X0044072Y0037458D01*
X0043999Y0037276D01*
X0043922Y0037095D01*
X0043840Y0036917D01*
X0043754Y0036740D01*
X0043663Y0036566D01*
X0043569Y0036394D01*
X0043470Y0036224D01*
X0043367Y0036057D01*
X0043260Y0035892D01*
X0043149Y0035731D01*
X0043034Y0035571D01*
X0042915Y0035415D01*
X0042792Y0035262D01*
X0042666Y0035112D01*
X0042536Y0034965D01*
X0042402Y0034821D01*
X0042265Y0034680D01*
X0042124Y0034543D01*
X0041980Y0034409D01*
X0041833Y0034279D01*
X0041683Y0034153D01*
X0041530Y0034030D01*
X0041374Y0033911D01*
X0041214Y0033796D01*
X0041053Y0033685D01*
X0040888Y0033578D01*
X0040721Y0033475D01*
X0040551Y0033376D01*
X0040379Y0033282D01*
X0040205Y0033191D01*
X0040028Y0033105D01*
X0039850Y0033023D01*
X0039669Y0032946D01*
X0039487Y0032873D01*
X0039303Y0032805D01*
X0039117Y0032741D01*
X0038930Y0032681D01*
X0038742Y0032627D01*
X0038552Y0032577D01*
X0038361Y0032531D01*
X0038169Y0032491D01*
X0037976Y0032455D01*
X0037782Y0032424D01*
X0037587Y0032397D01*
X0037392Y0032376D01*
X0037197Y0032359D01*
X0037001Y0032347D01*
X0036804Y0032339D01*
X0036608Y0032337D01*
X0036412Y0032339D01*
X0036215Y0032347D01*
X0036019Y0032359D01*
X0035824Y0032376D01*
X0035629Y0032397D01*
X0035434Y0032424D01*
X0035240Y0032455D01*
X0035047Y0032491D01*
X0034855Y0032531D01*
X0034664Y0032577D01*
X0034474Y0032627D01*
X0034286Y0032681D01*
X0034099Y0032741D01*
X0033913Y0032805D01*
X0033729Y0032873D01*
X0033547Y0032946D01*
X0033366Y0033023D01*
X0033188Y0033105D01*
X0033011Y0033191D01*
X0032837Y0033282D01*
X0032665Y0033376D01*
X0032495Y0033475D01*
X0032328Y0033578D01*
X0032163Y0033685D01*
X0032002Y0033796D01*
X0031842Y0033911D01*
X0031686Y0034030D01*
X0031533Y0034153D01*
X0031383Y0034279D01*
X0031236Y0034409D01*
X0031092Y0034543D01*
X0030951Y0034680D01*
X0030814Y0034821D01*
X0030680Y0034965D01*
X0030550Y0035112D01*
X0030424Y0035262D01*
X0030301Y0035415D01*
X0030182Y0035571D01*
X0030067Y0035731D01*
X0029956Y0035892D01*
X0029849Y0036057D01*
X0029746Y0036224D01*
X0029647Y0036394D01*
X0029553Y0036566D01*
X0029462Y0036740D01*
X0029376Y0036917D01*
X0029294Y0037095D01*
X0029217Y0037276D01*
X0029144Y0037458D01*
X0029076Y0037642D01*
X0029012Y0037828D01*
X0028952Y0038015D01*
X0028898Y0038203D01*
X0028848Y0038393D01*
X0028802Y0038584D01*
X0028762Y0038776D01*
X0028726Y0038969D01*
X0028695Y0039163D01*
X0028668Y0039358D01*
X0028647Y0039553D01*
X0028630Y0039748D01*
X0028618Y0039944D01*
X0028610Y0040141D01*
X0028608Y0040337D01*
X0039858Y0045337D02*
X0040608Y0045337D01*
X0040608Y0044587D01*
X0040608Y0045337D02*
X0040608Y0046087D01*
X0040608Y0045337D02*
X0041358Y0045337D01*
X0003608Y0045337D02*
X0003610Y0045533D01*
X0003618Y0045730D01*
X0003630Y0045926D01*
X0003647Y0046121D01*
X0003668Y0046316D01*
X0003695Y0046511D01*
X0003726Y0046705D01*
X0003762Y0046898D01*
X0003802Y0047090D01*
X0003848Y0047281D01*
X0003898Y0047471D01*
X0003952Y0047659D01*
X0004012Y0047846D01*
X0004076Y0048032D01*
X0004144Y0048216D01*
X0004217Y0048398D01*
X0004294Y0048579D01*
X0004376Y0048757D01*
X0004462Y0048934D01*
X0004553Y0049108D01*
X0004647Y0049280D01*
X0004746Y0049450D01*
X0004849Y0049617D01*
X0004956Y0049782D01*
X0005067Y0049943D01*
X0005182Y0050103D01*
X0005301Y0050259D01*
X0005424Y0050412D01*
X0005550Y0050562D01*
X0005680Y0050709D01*
X0005814Y0050853D01*
X0005951Y0050994D01*
X0006092Y0051131D01*
X0006236Y0051265D01*
X0006383Y0051395D01*
X0006533Y0051521D01*
X0006686Y0051644D01*
X0006842Y0051763D01*
X0007002Y0051878D01*
X0007163Y0051989D01*
X0007328Y0052096D01*
X0007495Y0052199D01*
X0007665Y0052298D01*
X0007837Y0052392D01*
X0008011Y0052483D01*
X0008188Y0052569D01*
X0008366Y0052651D01*
X0008547Y0052728D01*
X0008729Y0052801D01*
X0008913Y0052869D01*
X0009099Y0052933D01*
X0009286Y0052993D01*
X0009474Y0053047D01*
X0009664Y0053097D01*
X0009855Y0053143D01*
X0010047Y0053183D01*
X0010240Y0053219D01*
X0010434Y0053250D01*
X0010629Y0053277D01*
X0010824Y0053298D01*
X0011019Y0053315D01*
X0011215Y0053327D01*
X0011412Y0053335D01*
X0011608Y0053337D01*
X0011804Y0053335D01*
X0012001Y0053327D01*
X0012197Y0053315D01*
X0012392Y0053298D01*
X0012587Y0053277D01*
X0012782Y0053250D01*
X0012976Y0053219D01*
X0013169Y0053183D01*
X0013361Y0053143D01*
X0013552Y0053097D01*
X0013742Y0053047D01*
X0013930Y0052993D01*
X0014117Y0052933D01*
X0014303Y0052869D01*
X0014487Y0052801D01*
X0014669Y0052728D01*
X0014850Y0052651D01*
X0015028Y0052569D01*
X0015205Y0052483D01*
X0015379Y0052392D01*
X0015551Y0052298D01*
X0015721Y0052199D01*
X0015888Y0052096D01*
X0016053Y0051989D01*
X0016214Y0051878D01*
X0016374Y0051763D01*
X0016530Y0051644D01*
X0016683Y0051521D01*
X0016833Y0051395D01*
X0016980Y0051265D01*
X0017124Y0051131D01*
X0017265Y0050994D01*
X0017402Y0050853D01*
X0017536Y0050709D01*
X0017666Y0050562D01*
X0017792Y0050412D01*
X0017915Y0050259D01*
X0018034Y0050103D01*
X0018149Y0049943D01*
X0018260Y0049782D01*
X0018367Y0049617D01*
X0018470Y0049450D01*
X0018569Y0049280D01*
X0018663Y0049108D01*
X0018754Y0048934D01*
X0018840Y0048757D01*
X0018922Y0048579D01*
X0018999Y0048398D01*
X0019072Y0048216D01*
X0019140Y0048032D01*
X0019204Y0047846D01*
X0019264Y0047659D01*
X0019318Y0047471D01*
X0019368Y0047281D01*
X0019414Y0047090D01*
X0019454Y0046898D01*
X0019490Y0046705D01*
X0019521Y0046511D01*
X0019548Y0046316D01*
X0019569Y0046121D01*
X0019586Y0045926D01*
X0019598Y0045730D01*
X0019606Y0045533D01*
X0019608Y0045337D01*
X0019606Y0045141D01*
X0019598Y0044944D01*
X0019586Y0044748D01*
X0019569Y0044553D01*
X0019548Y0044358D01*
X0019521Y0044163D01*
X0019490Y0043969D01*
X0019454Y0043776D01*
X0019414Y0043584D01*
X0019368Y0043393D01*
X0019318Y0043203D01*
X0019264Y0043015D01*
X0019204Y0042828D01*
X0019140Y0042642D01*
X0019072Y0042458D01*
X0018999Y0042276D01*
X0018922Y0042095D01*
X0018840Y0041917D01*
X0018754Y0041740D01*
X0018663Y0041566D01*
X0018569Y0041394D01*
X0018470Y0041224D01*
X0018367Y0041057D01*
X0018260Y0040892D01*
X0018149Y0040731D01*
X0018034Y0040571D01*
X0017915Y0040415D01*
X0017792Y0040262D01*
X0017666Y0040112D01*
X0017536Y0039965D01*
X0017402Y0039821D01*
X0017265Y0039680D01*
X0017124Y0039543D01*
X0016980Y0039409D01*
X0016833Y0039279D01*
X0016683Y0039153D01*
X0016530Y0039030D01*
X0016374Y0038911D01*
X0016214Y0038796D01*
X0016053Y0038685D01*
X0015888Y0038578D01*
X0015721Y0038475D01*
X0015551Y0038376D01*
X0015379Y0038282D01*
X0015205Y0038191D01*
X0015028Y0038105D01*
X0014850Y0038023D01*
X0014669Y0037946D01*
X0014487Y0037873D01*
X0014303Y0037805D01*
X0014117Y0037741D01*
X0013930Y0037681D01*
X0013742Y0037627D01*
X0013552Y0037577D01*
X0013361Y0037531D01*
X0013169Y0037491D01*
X0012976Y0037455D01*
X0012782Y0037424D01*
X0012587Y0037397D01*
X0012392Y0037376D01*
X0012197Y0037359D01*
X0012001Y0037347D01*
X0011804Y0037339D01*
X0011608Y0037337D01*
X0011412Y0037339D01*
X0011215Y0037347D01*
X0011019Y0037359D01*
X0010824Y0037376D01*
X0010629Y0037397D01*
X0010434Y0037424D01*
X0010240Y0037455D01*
X0010047Y0037491D01*
X0009855Y0037531D01*
X0009664Y0037577D01*
X0009474Y0037627D01*
X0009286Y0037681D01*
X0009099Y0037741D01*
X0008913Y0037805D01*
X0008729Y0037873D01*
X0008547Y0037946D01*
X0008366Y0038023D01*
X0008188Y0038105D01*
X0008011Y0038191D01*
X0007837Y0038282D01*
X0007665Y0038376D01*
X0007495Y0038475D01*
X0007328Y0038578D01*
X0007163Y0038685D01*
X0007002Y0038796D01*
X0006842Y0038911D01*
X0006686Y0039030D01*
X0006533Y0039153D01*
X0006383Y0039279D01*
X0006236Y0039409D01*
X0006092Y0039543D01*
X0005951Y0039680D01*
X0005814Y0039821D01*
X0005680Y0039965D01*
X0005550Y0040112D01*
X0005424Y0040262D01*
X0005301Y0040415D01*
X0005182Y0040571D01*
X0005067Y0040731D01*
X0004956Y0040892D01*
X0004849Y0041057D01*
X0004746Y0041224D01*
X0004647Y0041394D01*
X0004553Y0041566D01*
X0004462Y0041740D01*
X0004376Y0041917D01*
X0004294Y0042095D01*
X0004217Y0042276D01*
X0004144Y0042458D01*
X0004076Y0042642D01*
X0004012Y0042828D01*
X0003952Y0043015D01*
X0003898Y0043203D01*
X0003848Y0043393D01*
X0003802Y0043584D01*
X0003762Y0043776D01*
X0003726Y0043969D01*
X0003695Y0044163D01*
X0003668Y0044358D01*
X0003647Y0044553D01*
X0003630Y0044748D01*
X0003618Y0044944D01*
X0003610Y0045141D01*
X0003608Y0045337D01*
X0006608Y0048587D02*
X0006608Y0049337D01*
X0007358Y0049337D01*
X0006608Y0049337D02*
X0005858Y0049337D01*
X0006608Y0049337D02*
X0006608Y0050087D01*
X0038108Y0075337D02*
X0040108Y0075337D01*
X0039108Y0074337D02*
X0039108Y0076337D01*
X0037608Y0077337D02*
X0041608Y0077337D01*
X0045608Y0077337D01*
X0045608Y0079337D01*
X0037608Y0079337D01*
X0037608Y0077337D01*
X0041608Y0077337D02*
X0041608Y0074837D01*
X0046896Y0071850D02*
X0047102Y0071981D01*
X0047304Y0072118D01*
X0047503Y0072260D01*
X0047699Y0072406D01*
X0047891Y0072557D01*
X0048079Y0072713D01*
X0048263Y0072873D01*
X0048443Y0073038D01*
X0048620Y0073207D01*
X0048792Y0073380D01*
X0048959Y0073558D01*
X0049123Y0073739D01*
X0049282Y0073925D01*
X0049436Y0074114D01*
X0049586Y0074307D01*
X0049730Y0074504D01*
X0049871Y0074704D01*
X0050006Y0074907D01*
X0050136Y0075114D01*
X0050261Y0075324D01*
X0050381Y0075537D01*
X0050495Y0075752D01*
X0050604Y0075971D01*
X0050708Y0076192D01*
X0050807Y0076415D01*
X0050900Y0076641D01*
X0050987Y0076869D01*
X0051069Y0077099D01*
X0051146Y0077331D01*
X0051216Y0077565D01*
X0051281Y0077801D01*
X0051340Y0078038D01*
X0051393Y0078276D01*
X0051441Y0078515D01*
X0051482Y0078756D01*
X0051518Y0078998D01*
X0051548Y0079240D01*
X0051571Y0079483D01*
X0051589Y0079727D01*
X0051601Y0079971D01*
X0051607Y0080215D01*
X0051607Y0080459D01*
X0051601Y0080703D01*
X0051589Y0080947D01*
X0051571Y0081191D01*
X0051548Y0081434D01*
X0051518Y0081676D01*
X0051482Y0081918D01*
X0051441Y0082159D01*
X0051393Y0082398D01*
X0051340Y0082636D01*
X0051281Y0082873D01*
X0051216Y0083109D01*
X0051146Y0083343D01*
X0051069Y0083575D01*
X0050987Y0083805D01*
X0050900Y0084033D01*
X0050807Y0084259D01*
X0050708Y0084482D01*
X0050604Y0084703D01*
X0050495Y0084922D01*
X0050381Y0085137D01*
X0050261Y0085350D01*
X0050136Y0085560D01*
X0050006Y0085767D01*
X0049871Y0085970D01*
X0049730Y0086170D01*
X0049586Y0086367D01*
X0049436Y0086560D01*
X0049282Y0086749D01*
X0049123Y0086935D01*
X0048959Y0087116D01*
X0048792Y0087294D01*
X0048620Y0087467D01*
X0048443Y0087636D01*
X0048263Y0087801D01*
X0048079Y0087961D01*
X0047891Y0088117D01*
X0047699Y0088268D01*
X0047503Y0088414D01*
X0047304Y0088556D01*
X0047102Y0088693D01*
X0046896Y0088824D01*
X0051858Y0085337D02*
X0052608Y0085337D01*
X0052608Y0086087D01*
X0052608Y0085337D02*
X0053358Y0085337D01*
X0052608Y0085337D02*
X0052608Y0084587D01*
X0048608Y0090337D02*
X0048610Y0090533D01*
X0048618Y0090730D01*
X0048630Y0090926D01*
X0048647Y0091121D01*
X0048668Y0091316D01*
X0048695Y0091511D01*
X0048726Y0091705D01*
X0048762Y0091898D01*
X0048802Y0092090D01*
X0048848Y0092281D01*
X0048898Y0092471D01*
X0048952Y0092659D01*
X0049012Y0092846D01*
X0049076Y0093032D01*
X0049144Y0093216D01*
X0049217Y0093398D01*
X0049294Y0093579D01*
X0049376Y0093757D01*
X0049462Y0093934D01*
X0049553Y0094108D01*
X0049647Y0094280D01*
X0049746Y0094450D01*
X0049849Y0094617D01*
X0049956Y0094782D01*
X0050067Y0094943D01*
X0050182Y0095103D01*
X0050301Y0095259D01*
X0050424Y0095412D01*
X0050550Y0095562D01*
X0050680Y0095709D01*
X0050814Y0095853D01*
X0050951Y0095994D01*
X0051092Y0096131D01*
X0051236Y0096265D01*
X0051383Y0096395D01*
X0051533Y0096521D01*
X0051686Y0096644D01*
X0051842Y0096763D01*
X0052002Y0096878D01*
X0052163Y0096989D01*
X0052328Y0097096D01*
X0052495Y0097199D01*
X0052665Y0097298D01*
X0052837Y0097392D01*
X0053011Y0097483D01*
X0053188Y0097569D01*
X0053366Y0097651D01*
X0053547Y0097728D01*
X0053729Y0097801D01*
X0053913Y0097869D01*
X0054099Y0097933D01*
X0054286Y0097993D01*
X0054474Y0098047D01*
X0054664Y0098097D01*
X0054855Y0098143D01*
X0055047Y0098183D01*
X0055240Y0098219D01*
X0055434Y0098250D01*
X0055629Y0098277D01*
X0055824Y0098298D01*
X0056019Y0098315D01*
X0056215Y0098327D01*
X0056412Y0098335D01*
X0056608Y0098337D01*
X0056804Y0098335D01*
X0057001Y0098327D01*
X0057197Y0098315D01*
X0057392Y0098298D01*
X0057587Y0098277D01*
X0057782Y0098250D01*
X0057976Y0098219D01*
X0058169Y0098183D01*
X0058361Y0098143D01*
X0058552Y0098097D01*
X0058742Y0098047D01*
X0058930Y0097993D01*
X0059117Y0097933D01*
X0059303Y0097869D01*
X0059487Y0097801D01*
X0059669Y0097728D01*
X0059850Y0097651D01*
X0060028Y0097569D01*
X0060205Y0097483D01*
X0060379Y0097392D01*
X0060551Y0097298D01*
X0060721Y0097199D01*
X0060888Y0097096D01*
X0061053Y0096989D01*
X0061214Y0096878D01*
X0061374Y0096763D01*
X0061530Y0096644D01*
X0061683Y0096521D01*
X0061833Y0096395D01*
X0061980Y0096265D01*
X0062124Y0096131D01*
X0062265Y0095994D01*
X0062402Y0095853D01*
X0062536Y0095709D01*
X0062666Y0095562D01*
X0062792Y0095412D01*
X0062915Y0095259D01*
X0063034Y0095103D01*
X0063149Y0094943D01*
X0063260Y0094782D01*
X0063367Y0094617D01*
X0063470Y0094450D01*
X0063569Y0094280D01*
X0063663Y0094108D01*
X0063754Y0093934D01*
X0063840Y0093757D01*
X0063922Y0093579D01*
X0063999Y0093398D01*
X0064072Y0093216D01*
X0064140Y0093032D01*
X0064204Y0092846D01*
X0064264Y0092659D01*
X0064318Y0092471D01*
X0064368Y0092281D01*
X0064414Y0092090D01*
X0064454Y0091898D01*
X0064490Y0091705D01*
X0064521Y0091511D01*
X0064548Y0091316D01*
X0064569Y0091121D01*
X0064586Y0090926D01*
X0064598Y0090730D01*
X0064606Y0090533D01*
X0064608Y0090337D01*
X0064606Y0090141D01*
X0064598Y0089944D01*
X0064586Y0089748D01*
X0064569Y0089553D01*
X0064548Y0089358D01*
X0064521Y0089163D01*
X0064490Y0088969D01*
X0064454Y0088776D01*
X0064414Y0088584D01*
X0064368Y0088393D01*
X0064318Y0088203D01*
X0064264Y0088015D01*
X0064204Y0087828D01*
X0064140Y0087642D01*
X0064072Y0087458D01*
X0063999Y0087276D01*
X0063922Y0087095D01*
X0063840Y0086917D01*
X0063754Y0086740D01*
X0063663Y0086566D01*
X0063569Y0086394D01*
X0063470Y0086224D01*
X0063367Y0086057D01*
X0063260Y0085892D01*
X0063149Y0085731D01*
X0063034Y0085571D01*
X0062915Y0085415D01*
X0062792Y0085262D01*
X0062666Y0085112D01*
X0062536Y0084965D01*
X0062402Y0084821D01*
X0062265Y0084680D01*
X0062124Y0084543D01*
X0061980Y0084409D01*
X0061833Y0084279D01*
X0061683Y0084153D01*
X0061530Y0084030D01*
X0061374Y0083911D01*
X0061214Y0083796D01*
X0061053Y0083685D01*
X0060888Y0083578D01*
X0060721Y0083475D01*
X0060551Y0083376D01*
X0060379Y0083282D01*
X0060205Y0083191D01*
X0060028Y0083105D01*
X0059850Y0083023D01*
X0059669Y0082946D01*
X0059487Y0082873D01*
X0059303Y0082805D01*
X0059117Y0082741D01*
X0058930Y0082681D01*
X0058742Y0082627D01*
X0058552Y0082577D01*
X0058361Y0082531D01*
X0058169Y0082491D01*
X0057976Y0082455D01*
X0057782Y0082424D01*
X0057587Y0082397D01*
X0057392Y0082376D01*
X0057197Y0082359D01*
X0057001Y0082347D01*
X0056804Y0082339D01*
X0056608Y0082337D01*
X0056412Y0082339D01*
X0056215Y0082347D01*
X0056019Y0082359D01*
X0055824Y0082376D01*
X0055629Y0082397D01*
X0055434Y0082424D01*
X0055240Y0082455D01*
X0055047Y0082491D01*
X0054855Y0082531D01*
X0054664Y0082577D01*
X0054474Y0082627D01*
X0054286Y0082681D01*
X0054099Y0082741D01*
X0053913Y0082805D01*
X0053729Y0082873D01*
X0053547Y0082946D01*
X0053366Y0083023D01*
X0053188Y0083105D01*
X0053011Y0083191D01*
X0052837Y0083282D01*
X0052665Y0083376D01*
X0052495Y0083475D01*
X0052328Y0083578D01*
X0052163Y0083685D01*
X0052002Y0083796D01*
X0051842Y0083911D01*
X0051686Y0084030D01*
X0051533Y0084153D01*
X0051383Y0084279D01*
X0051236Y0084409D01*
X0051092Y0084543D01*
X0050951Y0084680D01*
X0050814Y0084821D01*
X0050680Y0084965D01*
X0050550Y0085112D01*
X0050424Y0085262D01*
X0050301Y0085415D01*
X0050182Y0085571D01*
X0050067Y0085731D01*
X0049956Y0085892D01*
X0049849Y0086057D01*
X0049746Y0086224D01*
X0049647Y0086394D01*
X0049553Y0086566D01*
X0049462Y0086740D01*
X0049376Y0086917D01*
X0049294Y0087095D01*
X0049217Y0087276D01*
X0049144Y0087458D01*
X0049076Y0087642D01*
X0049012Y0087828D01*
X0048952Y0088015D01*
X0048898Y0088203D01*
X0048848Y0088393D01*
X0048802Y0088584D01*
X0048762Y0088776D01*
X0048726Y0088969D01*
X0048695Y0089163D01*
X0048668Y0089358D01*
X0048647Y0089553D01*
X0048630Y0089748D01*
X0048618Y0089944D01*
X0048610Y0090141D01*
X0048608Y0090337D01*
X0041608Y0085837D02*
X0041608Y0082837D01*
X0036320Y0088824D02*
X0036114Y0088693D01*
X0035912Y0088556D01*
X0035713Y0088414D01*
X0035517Y0088268D01*
X0035325Y0088117D01*
X0035137Y0087961D01*
X0034953Y0087801D01*
X0034773Y0087636D01*
X0034596Y0087467D01*
X0034424Y0087294D01*
X0034257Y0087116D01*
X0034093Y0086935D01*
X0033934Y0086749D01*
X0033780Y0086560D01*
X0033630Y0086367D01*
X0033486Y0086170D01*
X0033345Y0085970D01*
X0033210Y0085767D01*
X0033080Y0085560D01*
X0032955Y0085350D01*
X0032835Y0085137D01*
X0032721Y0084922D01*
X0032612Y0084703D01*
X0032508Y0084482D01*
X0032409Y0084259D01*
X0032316Y0084033D01*
X0032229Y0083805D01*
X0032147Y0083575D01*
X0032070Y0083343D01*
X0032000Y0083109D01*
X0031935Y0082873D01*
X0031876Y0082636D01*
X0031823Y0082398D01*
X0031775Y0082159D01*
X0031734Y0081918D01*
X0031698Y0081676D01*
X0031668Y0081434D01*
X0031645Y0081191D01*
X0031627Y0080947D01*
X0031615Y0080703D01*
X0031609Y0080459D01*
X0031609Y0080215D01*
X0031615Y0079971D01*
X0031627Y0079727D01*
X0031645Y0079483D01*
X0031668Y0079240D01*
X0031698Y0078998D01*
X0031734Y0078756D01*
X0031775Y0078515D01*
X0031823Y0078276D01*
X0031876Y0078038D01*
X0031935Y0077801D01*
X0032000Y0077565D01*
X0032070Y0077331D01*
X0032147Y0077099D01*
X0032229Y0076869D01*
X0032316Y0076641D01*
X0032409Y0076415D01*
X0032508Y0076192D01*
X0032612Y0075971D01*
X0032721Y0075752D01*
X0032835Y0075537D01*
X0032955Y0075324D01*
X0033080Y0075114D01*
X0033210Y0074907D01*
X0033345Y0074704D01*
X0033486Y0074504D01*
X0033630Y0074307D01*
X0033780Y0074114D01*
X0033934Y0073925D01*
X0034093Y0073739D01*
X0034257Y0073558D01*
X0034424Y0073380D01*
X0034596Y0073207D01*
X0034773Y0073038D01*
X0034953Y0072873D01*
X0035137Y0072713D01*
X0035325Y0072557D01*
X0035517Y0072406D01*
X0035713Y0072260D01*
X0035912Y0072118D01*
X0036114Y0071981D01*
X0036320Y0071850D01*
X0078608Y0090337D02*
X0078610Y0090533D01*
X0078618Y0090730D01*
X0078630Y0090926D01*
X0078647Y0091121D01*
X0078668Y0091316D01*
X0078695Y0091511D01*
X0078726Y0091705D01*
X0078762Y0091898D01*
X0078802Y0092090D01*
X0078848Y0092281D01*
X0078898Y0092471D01*
X0078952Y0092659D01*
X0079012Y0092846D01*
X0079076Y0093032D01*
X0079144Y0093216D01*
X0079217Y0093398D01*
X0079294Y0093579D01*
X0079376Y0093757D01*
X0079462Y0093934D01*
X0079553Y0094108D01*
X0079647Y0094280D01*
X0079746Y0094450D01*
X0079849Y0094617D01*
X0079956Y0094782D01*
X0080067Y0094943D01*
X0080182Y0095103D01*
X0080301Y0095259D01*
X0080424Y0095412D01*
X0080550Y0095562D01*
X0080680Y0095709D01*
X0080814Y0095853D01*
X0080951Y0095994D01*
X0081092Y0096131D01*
X0081236Y0096265D01*
X0081383Y0096395D01*
X0081533Y0096521D01*
X0081686Y0096644D01*
X0081842Y0096763D01*
X0082002Y0096878D01*
X0082163Y0096989D01*
X0082328Y0097096D01*
X0082495Y0097199D01*
X0082665Y0097298D01*
X0082837Y0097392D01*
X0083011Y0097483D01*
X0083188Y0097569D01*
X0083366Y0097651D01*
X0083547Y0097728D01*
X0083729Y0097801D01*
X0083913Y0097869D01*
X0084099Y0097933D01*
X0084286Y0097993D01*
X0084474Y0098047D01*
X0084664Y0098097D01*
X0084855Y0098143D01*
X0085047Y0098183D01*
X0085240Y0098219D01*
X0085434Y0098250D01*
X0085629Y0098277D01*
X0085824Y0098298D01*
X0086019Y0098315D01*
X0086215Y0098327D01*
X0086412Y0098335D01*
X0086608Y0098337D01*
X0086804Y0098335D01*
X0087001Y0098327D01*
X0087197Y0098315D01*
X0087392Y0098298D01*
X0087587Y0098277D01*
X0087782Y0098250D01*
X0087976Y0098219D01*
X0088169Y0098183D01*
X0088361Y0098143D01*
X0088552Y0098097D01*
X0088742Y0098047D01*
X0088930Y0097993D01*
X0089117Y0097933D01*
X0089303Y0097869D01*
X0089487Y0097801D01*
X0089669Y0097728D01*
X0089850Y0097651D01*
X0090028Y0097569D01*
X0090205Y0097483D01*
X0090379Y0097392D01*
X0090551Y0097298D01*
X0090721Y0097199D01*
X0090888Y0097096D01*
X0091053Y0096989D01*
X0091214Y0096878D01*
X0091374Y0096763D01*
X0091530Y0096644D01*
X0091683Y0096521D01*
X0091833Y0096395D01*
X0091980Y0096265D01*
X0092124Y0096131D01*
X0092265Y0095994D01*
X0092402Y0095853D01*
X0092536Y0095709D01*
X0092666Y0095562D01*
X0092792Y0095412D01*
X0092915Y0095259D01*
X0093034Y0095103D01*
X0093149Y0094943D01*
X0093260Y0094782D01*
X0093367Y0094617D01*
X0093470Y0094450D01*
X0093569Y0094280D01*
X0093663Y0094108D01*
X0093754Y0093934D01*
X0093840Y0093757D01*
X0093922Y0093579D01*
X0093999Y0093398D01*
X0094072Y0093216D01*
X0094140Y0093032D01*
X0094204Y0092846D01*
X0094264Y0092659D01*
X0094318Y0092471D01*
X0094368Y0092281D01*
X0094414Y0092090D01*
X0094454Y0091898D01*
X0094490Y0091705D01*
X0094521Y0091511D01*
X0094548Y0091316D01*
X0094569Y0091121D01*
X0094586Y0090926D01*
X0094598Y0090730D01*
X0094606Y0090533D01*
X0094608Y0090337D01*
X0094606Y0090141D01*
X0094598Y0089944D01*
X0094586Y0089748D01*
X0094569Y0089553D01*
X0094548Y0089358D01*
X0094521Y0089163D01*
X0094490Y0088969D01*
X0094454Y0088776D01*
X0094414Y0088584D01*
X0094368Y0088393D01*
X0094318Y0088203D01*
X0094264Y0088015D01*
X0094204Y0087828D01*
X0094140Y0087642D01*
X0094072Y0087458D01*
X0093999Y0087276D01*
X0093922Y0087095D01*
X0093840Y0086917D01*
X0093754Y0086740D01*
X0093663Y0086566D01*
X0093569Y0086394D01*
X0093470Y0086224D01*
X0093367Y0086057D01*
X0093260Y0085892D01*
X0093149Y0085731D01*
X0093034Y0085571D01*
X0092915Y0085415D01*
X0092792Y0085262D01*
X0092666Y0085112D01*
X0092536Y0084965D01*
X0092402Y0084821D01*
X0092265Y0084680D01*
X0092124Y0084543D01*
X0091980Y0084409D01*
X0091833Y0084279D01*
X0091683Y0084153D01*
X0091530Y0084030D01*
X0091374Y0083911D01*
X0091214Y0083796D01*
X0091053Y0083685D01*
X0090888Y0083578D01*
X0090721Y0083475D01*
X0090551Y0083376D01*
X0090379Y0083282D01*
X0090205Y0083191D01*
X0090028Y0083105D01*
X0089850Y0083023D01*
X0089669Y0082946D01*
X0089487Y0082873D01*
X0089303Y0082805D01*
X0089117Y0082741D01*
X0088930Y0082681D01*
X0088742Y0082627D01*
X0088552Y0082577D01*
X0088361Y0082531D01*
X0088169Y0082491D01*
X0087976Y0082455D01*
X0087782Y0082424D01*
X0087587Y0082397D01*
X0087392Y0082376D01*
X0087197Y0082359D01*
X0087001Y0082347D01*
X0086804Y0082339D01*
X0086608Y0082337D01*
X0086412Y0082339D01*
X0086215Y0082347D01*
X0086019Y0082359D01*
X0085824Y0082376D01*
X0085629Y0082397D01*
X0085434Y0082424D01*
X0085240Y0082455D01*
X0085047Y0082491D01*
X0084855Y0082531D01*
X0084664Y0082577D01*
X0084474Y0082627D01*
X0084286Y0082681D01*
X0084099Y0082741D01*
X0083913Y0082805D01*
X0083729Y0082873D01*
X0083547Y0082946D01*
X0083366Y0083023D01*
X0083188Y0083105D01*
X0083011Y0083191D01*
X0082837Y0083282D01*
X0082665Y0083376D01*
X0082495Y0083475D01*
X0082328Y0083578D01*
X0082163Y0083685D01*
X0082002Y0083796D01*
X0081842Y0083911D01*
X0081686Y0084030D01*
X0081533Y0084153D01*
X0081383Y0084279D01*
X0081236Y0084409D01*
X0081092Y0084543D01*
X0080951Y0084680D01*
X0080814Y0084821D01*
X0080680Y0084965D01*
X0080550Y0085112D01*
X0080424Y0085262D01*
X0080301Y0085415D01*
X0080182Y0085571D01*
X0080067Y0085731D01*
X0079956Y0085892D01*
X0079849Y0086057D01*
X0079746Y0086224D01*
X0079647Y0086394D01*
X0079553Y0086566D01*
X0079462Y0086740D01*
X0079376Y0086917D01*
X0079294Y0087095D01*
X0079217Y0087276D01*
X0079144Y0087458D01*
X0079076Y0087642D01*
X0079012Y0087828D01*
X0078952Y0088015D01*
X0078898Y0088203D01*
X0078848Y0088393D01*
X0078802Y0088584D01*
X0078762Y0088776D01*
X0078726Y0088969D01*
X0078695Y0089163D01*
X0078668Y0089358D01*
X0078647Y0089553D01*
X0078630Y0089748D01*
X0078618Y0089944D01*
X0078610Y0090141D01*
X0078608Y0090337D01*
X0089858Y0095337D02*
X0090608Y0095337D01*
X0090608Y0094587D01*
X0090608Y0095337D02*
X0090608Y0096087D01*
X0090608Y0095337D02*
X0091358Y0095337D01*
X0101608Y0085837D02*
X0101608Y0082837D01*
X0106896Y0088824D02*
X0107102Y0088693D01*
X0107304Y0088556D01*
X0107503Y0088414D01*
X0107699Y0088268D01*
X0107891Y0088117D01*
X0108079Y0087961D01*
X0108263Y0087801D01*
X0108443Y0087636D01*
X0108620Y0087467D01*
X0108792Y0087294D01*
X0108959Y0087116D01*
X0109123Y0086935D01*
X0109282Y0086749D01*
X0109436Y0086560D01*
X0109586Y0086367D01*
X0109730Y0086170D01*
X0109871Y0085970D01*
X0110006Y0085767D01*
X0110136Y0085560D01*
X0110261Y0085350D01*
X0110381Y0085137D01*
X0110495Y0084922D01*
X0110604Y0084703D01*
X0110708Y0084482D01*
X0110807Y0084259D01*
X0110900Y0084033D01*
X0110987Y0083805D01*
X0111069Y0083575D01*
X0111146Y0083343D01*
X0111216Y0083109D01*
X0111281Y0082873D01*
X0111340Y0082636D01*
X0111393Y0082398D01*
X0111441Y0082159D01*
X0111482Y0081918D01*
X0111518Y0081676D01*
X0111548Y0081434D01*
X0111571Y0081191D01*
X0111589Y0080947D01*
X0111601Y0080703D01*
X0111607Y0080459D01*
X0111607Y0080215D01*
X0111601Y0079971D01*
X0111589Y0079727D01*
X0111571Y0079483D01*
X0111548Y0079240D01*
X0111518Y0078998D01*
X0111482Y0078756D01*
X0111441Y0078515D01*
X0111393Y0078276D01*
X0111340Y0078038D01*
X0111281Y0077801D01*
X0111216Y0077565D01*
X0111146Y0077331D01*
X0111069Y0077099D01*
X0110987Y0076869D01*
X0110900Y0076641D01*
X0110807Y0076415D01*
X0110708Y0076192D01*
X0110604Y0075971D01*
X0110495Y0075752D01*
X0110381Y0075537D01*
X0110261Y0075324D01*
X0110136Y0075114D01*
X0110006Y0074907D01*
X0109871Y0074704D01*
X0109730Y0074504D01*
X0109586Y0074307D01*
X0109436Y0074114D01*
X0109282Y0073925D01*
X0109123Y0073739D01*
X0108959Y0073558D01*
X0108792Y0073380D01*
X0108620Y0073207D01*
X0108443Y0073038D01*
X0108263Y0072873D01*
X0108079Y0072713D01*
X0107891Y0072557D01*
X0107699Y0072406D01*
X0107503Y0072260D01*
X0107304Y0072118D01*
X0107102Y0071981D01*
X0106896Y0071850D01*
X0101608Y0074837D02*
X0101608Y0077337D01*
X0097608Y0077337D01*
X0097608Y0079337D01*
X0105608Y0079337D01*
X0105608Y0077337D01*
X0101608Y0077337D01*
X0100108Y0075337D02*
X0098108Y0075337D01*
X0099108Y0074337D02*
X0099108Y0076337D01*
X0096320Y0071850D02*
X0096114Y0071981D01*
X0095912Y0072118D01*
X0095713Y0072260D01*
X0095517Y0072406D01*
X0095325Y0072557D01*
X0095137Y0072713D01*
X0094953Y0072873D01*
X0094773Y0073038D01*
X0094596Y0073207D01*
X0094424Y0073380D01*
X0094257Y0073558D01*
X0094093Y0073739D01*
X0093934Y0073925D01*
X0093780Y0074114D01*
X0093630Y0074307D01*
X0093486Y0074504D01*
X0093345Y0074704D01*
X0093210Y0074907D01*
X0093080Y0075114D01*
X0092955Y0075324D01*
X0092835Y0075537D01*
X0092721Y0075752D01*
X0092612Y0075971D01*
X0092508Y0076192D01*
X0092409Y0076415D01*
X0092316Y0076641D01*
X0092229Y0076869D01*
X0092147Y0077099D01*
X0092070Y0077331D01*
X0092000Y0077565D01*
X0091935Y0077801D01*
X0091876Y0078038D01*
X0091823Y0078276D01*
X0091775Y0078515D01*
X0091734Y0078756D01*
X0091698Y0078998D01*
X0091668Y0079240D01*
X0091645Y0079483D01*
X0091627Y0079727D01*
X0091615Y0079971D01*
X0091609Y0080215D01*
X0091609Y0080459D01*
X0091615Y0080703D01*
X0091627Y0080947D01*
X0091645Y0081191D01*
X0091668Y0081434D01*
X0091698Y0081676D01*
X0091734Y0081918D01*
X0091775Y0082159D01*
X0091823Y0082398D01*
X0091876Y0082636D01*
X0091935Y0082873D01*
X0092000Y0083109D01*
X0092070Y0083343D01*
X0092147Y0083575D01*
X0092229Y0083805D01*
X0092316Y0084033D01*
X0092409Y0084259D01*
X0092508Y0084482D01*
X0092612Y0084703D01*
X0092721Y0084922D01*
X0092835Y0085137D01*
X0092955Y0085350D01*
X0093080Y0085560D01*
X0093210Y0085767D01*
X0093345Y0085970D01*
X0093486Y0086170D01*
X0093630Y0086367D01*
X0093780Y0086560D01*
X0093934Y0086749D01*
X0094093Y0086935D01*
X0094257Y0087116D01*
X0094424Y0087294D01*
X0094596Y0087467D01*
X0094773Y0087636D01*
X0094953Y0087801D01*
X0095137Y0087961D01*
X0095325Y0088117D01*
X0095517Y0088268D01*
X0095713Y0088414D01*
X0095912Y0088556D01*
X0096114Y0088693D01*
X0096320Y0088824D01*
X0094108Y0054337D02*
X0092608Y0054337D01*
X0092548Y0054335D01*
X0092487Y0054330D01*
X0092428Y0054321D01*
X0092369Y0054308D01*
X0092310Y0054292D01*
X0092253Y0054272D01*
X0092198Y0054249D01*
X0092143Y0054222D01*
X0092091Y0054193D01*
X0092040Y0054160D01*
X0091991Y0054124D01*
X0091945Y0054086D01*
X0091901Y0054044D01*
X0091859Y0054000D01*
X0091821Y0053954D01*
X0091785Y0053905D01*
X0091752Y0053854D01*
X0091723Y0053802D01*
X0091696Y0053747D01*
X0091673Y0053692D01*
X0091653Y0053635D01*
X0091637Y0053576D01*
X0091624Y0053517D01*
X0091615Y0053458D01*
X0091610Y0053397D01*
X0091608Y0053337D01*
X0091608Y0047337D01*
X0091610Y0047277D01*
X0091615Y0047216D01*
X0091624Y0047157D01*
X0091637Y0047098D01*
X0091653Y0047039D01*
X0091673Y0046982D01*
X0091696Y0046927D01*
X0091723Y0046872D01*
X0091752Y0046820D01*
X0091785Y0046769D01*
X0091821Y0046720D01*
X0091859Y0046674D01*
X0091901Y0046630D01*
X0091945Y0046588D01*
X0091991Y0046550D01*
X0092040Y0046514D01*
X0092091Y0046481D01*
X0092143Y0046452D01*
X0092198Y0046425D01*
X0092253Y0046402D01*
X0092310Y0046382D01*
X0092369Y0046366D01*
X0092428Y0046353D01*
X0092487Y0046344D01*
X0092548Y0046339D01*
X0092608Y0046337D01*
X0094108Y0046337D01*
X0094608Y0046837D01*
X0108608Y0046837D01*
X0109108Y0046337D01*
X0110608Y0046337D01*
X0110668Y0046339D01*
X0110729Y0046344D01*
X0110788Y0046353D01*
X0110847Y0046366D01*
X0110906Y0046382D01*
X0110963Y0046402D01*
X0111018Y0046425D01*
X0111073Y0046452D01*
X0111125Y0046481D01*
X0111176Y0046514D01*
X0111225Y0046550D01*
X0111271Y0046588D01*
X0111315Y0046630D01*
X0111357Y0046674D01*
X0111395Y0046720D01*
X0111431Y0046769D01*
X0111464Y0046820D01*
X0111493Y0046872D01*
X0111520Y0046927D01*
X0111543Y0046982D01*
X0111563Y0047039D01*
X0111579Y0047098D01*
X0111592Y0047157D01*
X0111601Y0047216D01*
X0111606Y0047277D01*
X0111608Y0047337D01*
X0111608Y0053337D01*
X0111606Y0053397D01*
X0111601Y0053458D01*
X0111592Y0053517D01*
X0111579Y0053576D01*
X0111563Y0053635D01*
X0111543Y0053692D01*
X0111520Y0053747D01*
X0111493Y0053802D01*
X0111464Y0053854D01*
X0111431Y0053905D01*
X0111395Y0053954D01*
X0111357Y0054000D01*
X0111315Y0054044D01*
X0111271Y0054086D01*
X0111225Y0054124D01*
X0111176Y0054160D01*
X0111125Y0054193D01*
X0111073Y0054222D01*
X0111018Y0054249D01*
X0110963Y0054272D01*
X0110906Y0054292D01*
X0110847Y0054308D01*
X0110788Y0054321D01*
X0110729Y0054330D01*
X0110668Y0054335D01*
X0110608Y0054337D01*
X0109108Y0054337D01*
X0108608Y0053837D01*
X0094608Y0053837D01*
X0094108Y0054337D01*
X0092608Y0054337D02*
X0092548Y0054335D01*
X0092487Y0054330D01*
X0092428Y0054321D01*
X0092369Y0054308D01*
X0092310Y0054292D01*
X0092253Y0054272D01*
X0092198Y0054249D01*
X0092143Y0054222D01*
X0092091Y0054193D01*
X0092040Y0054160D01*
X0091991Y0054124D01*
X0091945Y0054086D01*
X0091901Y0054044D01*
X0091859Y0054000D01*
X0091821Y0053954D01*
X0091785Y0053905D01*
X0091752Y0053854D01*
X0091723Y0053802D01*
X0091696Y0053747D01*
X0091673Y0053692D01*
X0091653Y0053635D01*
X0091637Y0053576D01*
X0091624Y0053517D01*
X0091615Y0053458D01*
X0091610Y0053397D01*
X0091608Y0053337D01*
X0091608Y0047337D02*
X0091610Y0047277D01*
X0091615Y0047216D01*
X0091624Y0047157D01*
X0091637Y0047098D01*
X0091653Y0047039D01*
X0091673Y0046982D01*
X0091696Y0046927D01*
X0091723Y0046872D01*
X0091752Y0046820D01*
X0091785Y0046769D01*
X0091821Y0046720D01*
X0091859Y0046674D01*
X0091901Y0046630D01*
X0091945Y0046588D01*
X0091991Y0046550D01*
X0092040Y0046514D01*
X0092091Y0046481D01*
X0092143Y0046452D01*
X0092198Y0046425D01*
X0092253Y0046402D01*
X0092310Y0046382D01*
X0092369Y0046366D01*
X0092428Y0046353D01*
X0092487Y0046344D01*
X0092548Y0046339D01*
X0092608Y0046337D01*
X0110608Y0046337D02*
X0110668Y0046339D01*
X0110729Y0046344D01*
X0110788Y0046353D01*
X0110847Y0046366D01*
X0110906Y0046382D01*
X0110963Y0046402D01*
X0111018Y0046425D01*
X0111073Y0046452D01*
X0111125Y0046481D01*
X0111176Y0046514D01*
X0111225Y0046550D01*
X0111271Y0046588D01*
X0111315Y0046630D01*
X0111357Y0046674D01*
X0111395Y0046720D01*
X0111431Y0046769D01*
X0111464Y0046820D01*
X0111493Y0046872D01*
X0111520Y0046927D01*
X0111543Y0046982D01*
X0111563Y0047039D01*
X0111579Y0047098D01*
X0111592Y0047157D01*
X0111601Y0047216D01*
X0111606Y0047277D01*
X0111608Y0047337D01*
X0111608Y0053337D02*
X0111606Y0053397D01*
X0111601Y0053458D01*
X0111592Y0053517D01*
X0111579Y0053576D01*
X0111563Y0053635D01*
X0111543Y0053692D01*
X0111520Y0053747D01*
X0111493Y0053802D01*
X0111464Y0053854D01*
X0111431Y0053905D01*
X0111395Y0053954D01*
X0111357Y0054000D01*
X0111315Y0054044D01*
X0111271Y0054086D01*
X0111225Y0054124D01*
X0111176Y0054160D01*
X0111125Y0054193D01*
X0111073Y0054222D01*
X0111018Y0054249D01*
X0110963Y0054272D01*
X0110906Y0054292D01*
X0110847Y0054308D01*
X0110788Y0054321D01*
X0110729Y0054330D01*
X0110668Y0054335D01*
X0110608Y0054337D01*
X0137608Y0053337D02*
X0137608Y0051337D01*
X0145608Y0051337D01*
X0145608Y0053337D01*
X0141608Y0053337D01*
X0137608Y0053337D01*
X0141608Y0053337D02*
X0141608Y0055837D01*
X0143108Y0055337D02*
X0145108Y0055337D01*
X0144108Y0056337D02*
X0144108Y0054337D01*
X0136264Y0061637D02*
X0135991Y0061504D01*
X0135722Y0061364D01*
X0135456Y0061218D01*
X0135193Y0061066D01*
X0134935Y0060907D01*
X0134680Y0060742D01*
X0134430Y0060570D01*
X0134183Y0060393D01*
X0133941Y0060210D01*
X0133704Y0060021D01*
X0133471Y0059826D01*
X0133243Y0059626D01*
X0133020Y0059420D01*
X0132802Y0059209D01*
X0132589Y0058992D01*
X0132382Y0058771D01*
X0132180Y0058544D01*
X0131983Y0058313D01*
X0131792Y0058077D01*
X0131607Y0057836D01*
X0131428Y0057591D01*
X0131255Y0057342D01*
X0131088Y0057089D01*
X0130927Y0056831D01*
X0130773Y0056570D01*
X0130625Y0056305D01*
X0130483Y0056037D01*
X0130348Y0055765D01*
X0130220Y0055490D01*
X0130098Y0055212D01*
X0129983Y0054931D01*
X0129875Y0054647D01*
X0129774Y0054361D01*
X0129679Y0054073D01*
X0129592Y0053782D01*
X0129512Y0053489D01*
X0129439Y0053195D01*
X0129373Y0052899D01*
X0129315Y0052601D01*
X0129263Y0052302D01*
X0129219Y0052001D01*
X0129183Y0051700D01*
X0129153Y0051398D01*
X0129131Y0051095D01*
X0129116Y0050792D01*
X0129109Y0050489D01*
X0129109Y0050185D01*
X0129116Y0049882D01*
X0129131Y0049579D01*
X0129153Y0049276D01*
X0129183Y0048974D01*
X0129219Y0048673D01*
X0129263Y0048372D01*
X0129315Y0048073D01*
X0129373Y0047775D01*
X0129439Y0047479D01*
X0129512Y0047185D01*
X0129592Y0046892D01*
X0129679Y0046601D01*
X0129774Y0046313D01*
X0129875Y0046027D01*
X0129983Y0045743D01*
X0130098Y0045462D01*
X0130220Y0045184D01*
X0130348Y0044909D01*
X0130483Y0044637D01*
X0130625Y0044369D01*
X0130773Y0044104D01*
X0130927Y0043843D01*
X0131088Y0043585D01*
X0131255Y0043332D01*
X0131428Y0043083D01*
X0131607Y0042838D01*
X0131792Y0042597D01*
X0131983Y0042361D01*
X0132180Y0042130D01*
X0132382Y0041903D01*
X0132589Y0041682D01*
X0132802Y0041465D01*
X0133020Y0041254D01*
X0133243Y0041048D01*
X0133471Y0040848D01*
X0133704Y0040653D01*
X0133941Y0040464D01*
X0134183Y0040281D01*
X0134430Y0040104D01*
X0134680Y0039932D01*
X0134935Y0039767D01*
X0135193Y0039608D01*
X0135456Y0039456D01*
X0135722Y0039310D01*
X0135991Y0039170D01*
X0136264Y0039037D01*
X0141608Y0044837D02*
X0141608Y0047837D01*
X0146952Y0039037D02*
X0147225Y0039170D01*
X0147494Y0039310D01*
X0147760Y0039456D01*
X0148023Y0039608D01*
X0148281Y0039767D01*
X0148536Y0039932D01*
X0148786Y0040104D01*
X0149033Y0040281D01*
X0149275Y0040464D01*
X0149512Y0040653D01*
X0149745Y0040848D01*
X0149973Y0041048D01*
X0150196Y0041254D01*
X0150414Y0041465D01*
X0150627Y0041682D01*
X0150834Y0041903D01*
X0151036Y0042130D01*
X0151233Y0042361D01*
X0151424Y0042597D01*
X0151609Y0042838D01*
X0151788Y0043083D01*
X0151961Y0043332D01*
X0152128Y0043585D01*
X0152289Y0043843D01*
X0152443Y0044104D01*
X0152591Y0044369D01*
X0152733Y0044637D01*
X0152868Y0044909D01*
X0152996Y0045184D01*
X0153118Y0045462D01*
X0153233Y0045743D01*
X0153341Y0046027D01*
X0153442Y0046313D01*
X0153537Y0046601D01*
X0153624Y0046892D01*
X0153704Y0047185D01*
X0153777Y0047479D01*
X0153843Y0047775D01*
X0153901Y0048073D01*
X0153953Y0048372D01*
X0153997Y0048673D01*
X0154033Y0048974D01*
X0154063Y0049276D01*
X0154085Y0049579D01*
X0154100Y0049882D01*
X0154107Y0050185D01*
X0154107Y0050489D01*
X0154100Y0050792D01*
X0154085Y0051095D01*
X0154063Y0051398D01*
X0154033Y0051700D01*
X0153997Y0052001D01*
X0153953Y0052302D01*
X0153901Y0052601D01*
X0153843Y0052899D01*
X0153777Y0053195D01*
X0153704Y0053489D01*
X0153624Y0053782D01*
X0153537Y0054073D01*
X0153442Y0054361D01*
X0153341Y0054647D01*
X0153233Y0054931D01*
X0153118Y0055212D01*
X0152996Y0055490D01*
X0152868Y0055765D01*
X0152733Y0056037D01*
X0152591Y0056305D01*
X0152443Y0056570D01*
X0152289Y0056831D01*
X0152128Y0057089D01*
X0151961Y0057342D01*
X0151788Y0057591D01*
X0151609Y0057836D01*
X0151424Y0058077D01*
X0151233Y0058313D01*
X0151036Y0058544D01*
X0150834Y0058771D01*
X0150627Y0058992D01*
X0150414Y0059209D01*
X0150196Y0059420D01*
X0149973Y0059626D01*
X0149745Y0059826D01*
X0149512Y0060021D01*
X0149275Y0060210D01*
X0149033Y0060393D01*
X0148786Y0060570D01*
X0148536Y0060742D01*
X0148281Y0060907D01*
X0148023Y0061066D01*
X0147760Y0061218D01*
X0147494Y0061364D01*
X0147225Y0061504D01*
X0146952Y0061637D01*
D11*
X0085108Y0090337D03*
X0058108Y0090337D03*
X0035108Y0040337D03*
D12*
X0039258Y0030488D02*
X0041193Y0030488D01*
X0042205Y0029521D02*
X0042688Y0029521D01*
X0042688Y0029037D01*
X0042205Y0029037D01*
X0042205Y0029521D01*
X0043678Y0029521D02*
X0043678Y0029037D01*
X0043678Y0029521D02*
X0045613Y0031456D01*
X0045613Y0031939D01*
X0043678Y0031939D01*
X0040709Y0031939D02*
X0039258Y0030488D01*
X0040709Y0029037D02*
X0040709Y0031939D01*
X0047108Y0030488D02*
X0047108Y0029521D01*
X0047108Y0028553D01*
X0046624Y0028070D01*
X0047592Y0029037D02*
X0047108Y0029521D01*
X0047592Y0029037D02*
X0048076Y0029037D01*
X0048559Y0029521D01*
X0048559Y0030488D01*
X0049571Y0030488D02*
X0050538Y0030488D01*
X0049571Y0029037D02*
X0049571Y0031939D01*
X0051506Y0031939D01*
X0069758Y0028689D02*
X0069758Y0025787D01*
X0069758Y0026754D02*
X0071209Y0026754D01*
X0071693Y0027238D01*
X0071693Y0028206D01*
X0071209Y0028689D01*
X0069758Y0028689D01*
X0072705Y0028206D02*
X0072705Y0026271D01*
X0073188Y0025787D01*
X0074156Y0025787D01*
X0074639Y0026271D01*
X0074639Y0028206D01*
X0074156Y0028689D01*
X0073188Y0028689D01*
X0072705Y0028206D01*
X0075651Y0028689D02*
X0077586Y0028689D01*
X0076619Y0028689D02*
X0076619Y0025787D01*
X0078598Y0027238D02*
X0080533Y0027238D01*
X0081544Y0027722D02*
X0082028Y0027238D01*
X0082995Y0027238D01*
X0083479Y0026754D01*
X0083479Y0026271D01*
X0082995Y0025787D01*
X0082028Y0025787D01*
X0081544Y0026271D01*
X0081544Y0027722D02*
X0081544Y0028206D01*
X0082028Y0028689D01*
X0082995Y0028689D01*
X0083479Y0028206D01*
X0084491Y0028689D02*
X0086426Y0028689D01*
X0085458Y0028689D02*
X0085458Y0025787D01*
X0087437Y0025787D02*
X0089372Y0025787D01*
X0090384Y0025787D02*
X0090384Y0028689D01*
X0091835Y0028689D01*
X0092319Y0028206D01*
X0092319Y0027238D01*
X0091835Y0026754D01*
X0090384Y0026754D01*
X0091351Y0026754D02*
X0092319Y0025787D01*
X0093330Y0025787D02*
X0095265Y0025787D01*
X0096277Y0026271D02*
X0096760Y0025787D01*
X0097728Y0025787D01*
X0098212Y0026271D01*
X0098212Y0028206D01*
X0097728Y0028689D01*
X0096760Y0028689D01*
X0096277Y0028206D01*
X0096277Y0026271D01*
X0095265Y0028689D02*
X0093330Y0028689D01*
X0093330Y0025787D01*
X0093330Y0027238D02*
X0094298Y0027238D01*
X0089372Y0028689D02*
X0087437Y0028689D01*
X0087437Y0025787D01*
X0087437Y0027238D02*
X0088405Y0027238D01*
X0102756Y0036067D02*
X0102756Y0037518D01*
X0103239Y0038002D01*
X0103723Y0038002D01*
X0104207Y0037518D01*
X0104207Y0036067D01*
X0105658Y0036067D02*
X0105658Y0037518D01*
X0105174Y0038002D01*
X0104691Y0038002D01*
X0104207Y0037518D01*
X0104207Y0039014D02*
X0104207Y0040949D01*
X0103723Y0040949D02*
X0105658Y0040949D01*
X0105865Y0042187D02*
X0105865Y0045089D01*
X0107316Y0045089D01*
X0107800Y0044606D01*
X0107800Y0043638D01*
X0107316Y0043154D01*
X0105865Y0043154D01*
X0107316Y0043154D01*
X0107800Y0043638D01*
X0107800Y0044606D01*
X0107316Y0045089D01*
X0105865Y0045089D01*
X0105865Y0042187D01*
X0105658Y0042928D02*
X0102756Y0042928D01*
X0102756Y0043895D02*
X0102756Y0041960D01*
X0103723Y0040949D02*
X0102756Y0039981D01*
X0103723Y0039014D01*
X0105658Y0039014D01*
X0105658Y0036067D02*
X0102756Y0036067D01*
X0107800Y0042187D02*
X0106832Y0043154D01*
X0107800Y0042187D01*
X0108811Y0043638D02*
X0110746Y0043638D01*
X0108811Y0043638D01*
X0110263Y0045089D01*
X0110263Y0042187D01*
X0110263Y0045089D01*
X0108811Y0043638D01*
X0107146Y0049187D02*
X0106663Y0049187D01*
X0106663Y0050154D01*
X0107146Y0050638D01*
X0107146Y0051606D01*
X0106663Y0052089D01*
X0105695Y0052089D01*
X0105211Y0051606D01*
X0105211Y0050638D01*
X0105695Y0050154D01*
X0105695Y0049187D01*
X0105211Y0049187D01*
X0105695Y0049187D01*
X0105695Y0050154D01*
X0105211Y0050638D01*
X0105211Y0051606D01*
X0105695Y0052089D01*
X0106663Y0052089D01*
X0107146Y0051606D01*
X0107146Y0050638D01*
X0106663Y0050154D01*
X0106663Y0049187D01*
X0107146Y0049187D01*
X0104200Y0049187D02*
X0102265Y0049187D01*
X0104200Y0051122D01*
X0104200Y0051606D01*
X0103716Y0052089D01*
X0102749Y0052089D01*
X0102265Y0051606D01*
X0102749Y0052089D01*
X0103716Y0052089D01*
X0104200Y0051606D01*
X0104200Y0051122D01*
X0102265Y0049187D01*
X0104200Y0049187D01*
X0101253Y0049187D02*
X0099318Y0049187D01*
X0101253Y0051122D01*
X0101253Y0051606D01*
X0100770Y0052089D01*
X0099802Y0052089D01*
X0099318Y0051606D01*
X0099802Y0052089D01*
X0100770Y0052089D01*
X0101253Y0051606D01*
X0101253Y0051122D01*
X0099318Y0049187D01*
X0101253Y0049187D01*
X0096606Y0048614D02*
X0096606Y0046145D01*
X0087385Y0047839D02*
X0084916Y0047839D01*
X0086151Y0049073D02*
X0086151Y0046604D01*
X0086445Y0068287D02*
X0088380Y0070222D01*
X0088380Y0070706D01*
X0087896Y0071189D01*
X0086929Y0071189D01*
X0086445Y0070706D01*
X0085434Y0070222D02*
X0085434Y0068287D01*
X0086445Y0068287D02*
X0088380Y0068287D01*
X0089392Y0068287D02*
X0089392Y0068771D01*
X0089875Y0068771D01*
X0089875Y0068287D01*
X0089392Y0068287D01*
X0090865Y0068771D02*
X0091349Y0068287D01*
X0092316Y0068287D01*
X0092800Y0068771D01*
X0093811Y0069738D02*
X0095746Y0069738D01*
X0095263Y0068287D02*
X0095263Y0071189D01*
X0093811Y0069738D01*
X0092800Y0070706D02*
X0092316Y0071189D01*
X0091349Y0071189D01*
X0090865Y0070706D01*
X0090865Y0068771D01*
X0089875Y0069738D02*
X0089392Y0069738D01*
X0089392Y0070222D01*
X0089875Y0070222D01*
X0089875Y0069738D01*
X0085434Y0069738D02*
X0083499Y0069738D01*
X0083499Y0070222D02*
X0084466Y0071189D01*
X0085434Y0070222D01*
X0083499Y0070222D02*
X0083499Y0068287D01*
X0096624Y0078070D02*
X0097108Y0078553D01*
X0097108Y0079521D01*
X0097592Y0079037D01*
X0098076Y0079037D01*
X0098559Y0079521D01*
X0098559Y0080488D01*
X0099571Y0080488D02*
X0100538Y0080488D01*
X0099571Y0079037D02*
X0099571Y0081939D01*
X0101506Y0081939D01*
X0097108Y0080488D02*
X0097108Y0079521D01*
X0095613Y0081456D02*
X0093678Y0079521D01*
X0093678Y0079037D01*
X0092688Y0079037D02*
X0092205Y0079037D01*
X0092205Y0079521D01*
X0092688Y0079521D01*
X0092688Y0079037D01*
X0091193Y0080488D02*
X0089258Y0080488D01*
X0090709Y0081939D01*
X0090709Y0079037D01*
X0093678Y0081939D02*
X0095613Y0081939D01*
X0095613Y0081456D01*
X0089865Y0087520D02*
X0090349Y0088003D01*
X0090349Y0088971D01*
X0090832Y0088487D01*
X0091316Y0088487D01*
X0091800Y0088971D01*
X0091800Y0089938D01*
X0092811Y0089938D02*
X0093779Y0089938D01*
X0092811Y0088487D02*
X0092811Y0091389D01*
X0094746Y0091389D01*
X0093058Y0093366D02*
X0093058Y0095301D01*
X0093058Y0094334D02*
X0090156Y0094334D01*
X0091123Y0093366D01*
X0090639Y0096313D02*
X0090156Y0096797D01*
X0090156Y0097764D01*
X0090639Y0098248D01*
X0092574Y0096313D01*
X0093058Y0096797D01*
X0093058Y0097764D01*
X0092574Y0098248D01*
X0090639Y0098248D01*
X0090639Y0099259D02*
X0090156Y0099743D01*
X0090156Y0100711D01*
X0090639Y0101194D01*
X0092574Y0099259D01*
X0093058Y0099743D01*
X0093058Y0100711D01*
X0092574Y0101194D01*
X0090639Y0101194D01*
X0090156Y0100825D02*
X0091123Y0101792D01*
X0093058Y0101792D01*
X0093058Y0102206D02*
X0090156Y0102206D01*
X0090639Y0102804D02*
X0090156Y0103288D01*
X0090156Y0104255D01*
X0090639Y0104739D01*
X0091123Y0104739D01*
X0093058Y0102804D01*
X0093058Y0104739D01*
X0093058Y0104661D02*
X0093058Y0105145D01*
X0092091Y0105145D01*
X0091607Y0104661D01*
X0090639Y0104661D01*
X0090156Y0105145D01*
X0090156Y0106112D01*
X0090639Y0106596D01*
X0091607Y0106596D01*
X0092091Y0106112D01*
X0093058Y0106112D01*
X0093058Y0106596D01*
X0093058Y0106234D02*
X0092574Y0106234D01*
X0092574Y0105750D01*
X0093058Y0105750D01*
X0093058Y0106234D01*
X0091607Y0106234D02*
X0091607Y0105750D01*
X0091123Y0105750D01*
X0091123Y0106234D01*
X0091607Y0106234D01*
X0090156Y0107224D02*
X0090156Y0109159D01*
X0090156Y0108191D02*
X0093058Y0108191D01*
X0093058Y0110170D02*
X0093058Y0112105D01*
X0093058Y0111138D02*
X0090156Y0111138D01*
X0091123Y0110170D01*
X0090768Y0112137D02*
X0090285Y0112621D01*
X0090768Y0112137D02*
X0091736Y0112137D01*
X0092220Y0112621D01*
X0092220Y0113588D01*
X0091736Y0114072D01*
X0091252Y0114072D01*
X0090285Y0113588D01*
X0090285Y0115039D01*
X0092220Y0115039D01*
X0093231Y0113588D02*
X0095166Y0113588D01*
X0096178Y0112621D02*
X0096178Y0112137D01*
X0096178Y0112621D02*
X0098113Y0114556D01*
X0098113Y0115039D01*
X0096178Y0115039D01*
X0094682Y0115039D02*
X0093231Y0113588D01*
X0094682Y0112137D02*
X0094682Y0115039D01*
X0089273Y0114556D02*
X0088789Y0115039D01*
X0087822Y0115039D01*
X0087338Y0114556D01*
X0087338Y0112621D01*
X0087822Y0112137D01*
X0088789Y0112137D01*
X0089273Y0112621D01*
X0086327Y0112621D02*
X0086327Y0113104D01*
X0085843Y0113588D01*
X0084392Y0113588D01*
X0085843Y0113588D02*
X0086327Y0114072D01*
X0086327Y0114556D01*
X0085843Y0115039D01*
X0084392Y0115039D01*
X0084392Y0112137D01*
X0085843Y0112137D01*
X0086327Y0112621D01*
X0091123Y0103657D02*
X0092091Y0102206D01*
X0093058Y0103657D01*
X0091607Y0101792D02*
X0091607Y0099857D01*
X0091123Y0099857D02*
X0090156Y0100825D01*
X0091123Y0099857D02*
X0093058Y0099857D01*
X0092574Y0099259D02*
X0090639Y0099259D01*
X0090639Y0096313D02*
X0092574Y0096313D01*
X0086958Y0096258D02*
X0084056Y0096258D01*
X0085023Y0095290D01*
X0084539Y0094279D02*
X0085507Y0094279D01*
X0085991Y0093795D01*
X0085991Y0092344D01*
X0086958Y0092344D02*
X0084056Y0092344D01*
X0084056Y0093795D01*
X0084539Y0094279D01*
X0085991Y0093311D02*
X0086958Y0094279D01*
X0086958Y0095290D02*
X0086958Y0097225D01*
X0087402Y0091389D02*
X0088370Y0091389D01*
X0088853Y0090906D01*
X0086918Y0088971D01*
X0087402Y0088487D01*
X0088370Y0088487D01*
X0088853Y0088971D01*
X0088853Y0090906D01*
X0087402Y0091389D02*
X0086918Y0090906D01*
X0086918Y0088971D01*
X0086958Y0089859D02*
X0086958Y0087924D01*
X0085023Y0089859D01*
X0084539Y0089859D01*
X0084056Y0089375D01*
X0084056Y0088408D01*
X0084539Y0087924D01*
X0083972Y0088487D02*
X0085907Y0090422D01*
X0085907Y0090906D01*
X0085423Y0091389D01*
X0084456Y0091389D01*
X0083972Y0090906D01*
X0082960Y0090906D02*
X0082477Y0091389D01*
X0081509Y0091389D01*
X0081025Y0090906D01*
X0082960Y0090906D02*
X0082960Y0090422D01*
X0081025Y0088487D01*
X0082960Y0088487D01*
X0083972Y0088487D02*
X0085907Y0088487D01*
X0085507Y0086913D02*
X0085507Y0084978D01*
X0085023Y0084978D02*
X0084056Y0085945D01*
X0085023Y0086913D01*
X0086958Y0086913D01*
X0086958Y0084978D02*
X0085023Y0084978D01*
X0090349Y0088971D02*
X0090349Y0089938D01*
X0086958Y0090871D02*
X0086474Y0090871D01*
X0086474Y0091354D01*
X0086958Y0091354D01*
X0086958Y0090871D01*
X0085507Y0090871D02*
X0085023Y0090871D01*
X0085023Y0091354D01*
X0085507Y0091354D01*
X0085507Y0090871D01*
X0079246Y0096487D02*
X0077311Y0096487D01*
X0079246Y0098422D01*
X0079246Y0098906D01*
X0078763Y0099389D01*
X0077795Y0099389D01*
X0077311Y0098906D01*
X0076300Y0098906D02*
X0075816Y0099389D01*
X0074849Y0099389D01*
X0074365Y0098906D01*
X0074365Y0096971D01*
X0074849Y0096487D01*
X0075816Y0096487D01*
X0076300Y0096971D01*
X0073375Y0096971D02*
X0073375Y0096487D01*
X0072892Y0096487D01*
X0072892Y0096971D01*
X0073375Y0096971D01*
X0073375Y0097938D02*
X0072892Y0097938D01*
X0072892Y0098422D01*
X0073375Y0098422D01*
X0073375Y0097938D01*
X0071880Y0098422D02*
X0071880Y0098906D01*
X0071396Y0099389D01*
X0070429Y0099389D01*
X0069945Y0098906D01*
X0068934Y0098422D02*
X0068934Y0096487D01*
X0069945Y0096487D02*
X0071880Y0098422D01*
X0071880Y0096487D02*
X0069945Y0096487D01*
X0068934Y0097938D02*
X0066999Y0097938D01*
X0066999Y0098422D02*
X0067966Y0099389D01*
X0068934Y0098422D01*
X0066999Y0098422D02*
X0066999Y0096487D01*
X0063058Y0096797D02*
X0062574Y0096313D01*
X0060639Y0098248D01*
X0062574Y0098248D01*
X0063058Y0097764D01*
X0063058Y0096797D01*
X0062574Y0096313D02*
X0060639Y0096313D01*
X0060156Y0096797D01*
X0060156Y0097764D01*
X0060639Y0098248D01*
X0060639Y0099259D02*
X0060156Y0099743D01*
X0060156Y0100711D01*
X0060639Y0101194D01*
X0062574Y0099259D01*
X0063058Y0099743D01*
X0063058Y0100711D01*
X0062574Y0101194D01*
X0060639Y0101194D01*
X0060156Y0102206D02*
X0063058Y0102206D01*
X0062091Y0102206D02*
X0061123Y0103657D01*
X0060639Y0104661D02*
X0060156Y0105145D01*
X0060156Y0106112D01*
X0060639Y0106596D01*
X0061607Y0106596D01*
X0062091Y0106112D01*
X0063058Y0106112D01*
X0063058Y0106596D01*
X0063231Y0107088D02*
X0065166Y0107088D01*
X0066256Y0106651D02*
X0069158Y0106651D01*
X0069158Y0105684D02*
X0069158Y0107619D01*
X0069158Y0108630D02*
X0068674Y0108630D01*
X0068674Y0109114D01*
X0069158Y0109114D01*
X0069158Y0108630D01*
X0068113Y0108539D02*
X0068113Y0108056D01*
X0066178Y0106121D01*
X0066178Y0105637D01*
X0066256Y0106651D02*
X0067223Y0105684D01*
X0067223Y0104672D02*
X0069158Y0104672D01*
X0067707Y0104672D02*
X0067707Y0102737D01*
X0067223Y0102737D02*
X0066256Y0103704D01*
X0067223Y0104672D01*
X0067223Y0102737D02*
X0069158Y0102737D01*
X0064682Y0105637D02*
X0064682Y0108539D01*
X0063231Y0107088D01*
X0063058Y0107857D02*
X0061123Y0107857D01*
X0060156Y0108825D01*
X0061123Y0109792D01*
X0063058Y0109792D01*
X0063058Y0110804D02*
X0063058Y0112739D01*
X0063058Y0111771D02*
X0060156Y0111771D01*
X0061123Y0110804D01*
X0061607Y0109792D02*
X0061607Y0107857D01*
X0061736Y0107572D02*
X0062220Y0107088D01*
X0062220Y0106121D01*
X0061736Y0105637D01*
X0060768Y0105637D01*
X0060285Y0106121D01*
X0060285Y0107088D02*
X0061252Y0107572D01*
X0061736Y0107572D01*
X0062220Y0108539D02*
X0060285Y0108539D01*
X0060285Y0107088D01*
X0059273Y0106121D02*
X0058789Y0105637D01*
X0057822Y0105637D01*
X0057338Y0106121D01*
X0057338Y0108056D01*
X0057822Y0108539D01*
X0058789Y0108539D01*
X0059273Y0108056D01*
X0056327Y0108056D02*
X0056327Y0107572D01*
X0055843Y0107088D01*
X0054392Y0107088D01*
X0055843Y0107088D02*
X0056327Y0106604D01*
X0056327Y0106121D01*
X0055843Y0105637D01*
X0054392Y0105637D01*
X0054392Y0108539D01*
X0055843Y0108539D01*
X0056327Y0108056D01*
X0051376Y0108887D02*
X0049441Y0108887D01*
X0051376Y0110822D01*
X0051376Y0111306D01*
X0050892Y0111789D01*
X0049925Y0111789D01*
X0049441Y0111306D01*
X0048430Y0111789D02*
X0046495Y0111789D01*
X0047462Y0111789D02*
X0047462Y0108887D01*
X0045505Y0108887D02*
X0045021Y0108887D01*
X0045021Y0109371D01*
X0045505Y0109371D01*
X0045505Y0108887D01*
X0044010Y0108887D02*
X0042075Y0108887D01*
X0043042Y0108887D02*
X0043042Y0111789D01*
X0042075Y0110822D01*
X0041063Y0110822D02*
X0041063Y0108887D01*
X0039808Y0109497D02*
X0039324Y0109014D01*
X0039128Y0108887D02*
X0039128Y0110822D01*
X0040096Y0111789D01*
X0041063Y0110822D01*
X0041063Y0110338D02*
X0039128Y0110338D01*
X0039324Y0110949D02*
X0039808Y0110465D01*
X0039808Y0109497D01*
X0038357Y0109014D02*
X0037873Y0109981D01*
X0037873Y0110465D01*
X0038357Y0110949D01*
X0039324Y0110949D01*
X0039324Y0111960D02*
X0039808Y0112444D01*
X0039808Y0113412D01*
X0039324Y0113895D01*
X0038357Y0113895D01*
X0037873Y0113412D01*
X0037873Y0112928D01*
X0038357Y0111960D01*
X0036906Y0111960D01*
X0036906Y0113895D01*
X0036906Y0114907D02*
X0036906Y0116842D01*
X0037389Y0116842D01*
X0039324Y0114907D01*
X0039808Y0114907D01*
X0036906Y0110949D02*
X0036906Y0109014D01*
X0038357Y0109014D01*
X0039324Y0108002D02*
X0039808Y0107518D01*
X0039808Y0106551D01*
X0039324Y0106067D01*
X0037389Y0106067D01*
X0036906Y0106551D01*
X0036906Y0107518D01*
X0037389Y0108002D01*
X0037389Y0105056D02*
X0037873Y0105056D01*
X0038357Y0104572D01*
X0038357Y0103121D01*
X0038357Y0104572D02*
X0038841Y0105056D01*
X0039324Y0105056D01*
X0039808Y0104572D01*
X0039808Y0103121D01*
X0036906Y0103121D01*
X0036906Y0104572D01*
X0037389Y0105056D01*
X0040999Y0100188D02*
X0042934Y0100188D01*
X0043945Y0099221D02*
X0044429Y0099221D01*
X0044429Y0098737D01*
X0043945Y0098737D01*
X0043945Y0099221D01*
X0045418Y0099221D02*
X0045418Y0098737D01*
X0045418Y0099221D02*
X0047353Y0101156D01*
X0047353Y0101639D01*
X0045418Y0101639D01*
X0042450Y0101639D02*
X0040999Y0100188D01*
X0042450Y0098737D02*
X0042450Y0101639D01*
X0048365Y0097770D02*
X0048849Y0098253D01*
X0048849Y0099221D01*
X0049332Y0098737D01*
X0049816Y0098737D01*
X0050300Y0099221D01*
X0050300Y0100188D01*
X0051311Y0100188D02*
X0052279Y0100188D01*
X0051311Y0098737D02*
X0051311Y0101639D01*
X0053246Y0101639D01*
X0048849Y0100188D02*
X0048849Y0099221D01*
X0060156Y0094334D02*
X0063058Y0094334D01*
X0063058Y0095301D02*
X0063058Y0093366D01*
X0061123Y0093366D02*
X0060156Y0094334D01*
X0060639Y0099259D02*
X0062574Y0099259D01*
X0062091Y0102206D02*
X0063058Y0103657D01*
X0063058Y0104661D02*
X0063058Y0105145D01*
X0062091Y0105145D01*
X0061607Y0104661D01*
X0060639Y0104661D01*
X0066178Y0108539D02*
X0068113Y0108539D01*
X0067707Y0108630D02*
X0067223Y0108630D01*
X0067223Y0109114D01*
X0067707Y0109114D01*
X0067707Y0108630D01*
X0068191Y0110103D02*
X0068191Y0111555D01*
X0067707Y0112038D01*
X0066739Y0112038D01*
X0066256Y0111555D01*
X0066256Y0110103D01*
X0069158Y0110103D01*
X0068191Y0111071D02*
X0069158Y0112038D01*
X0069158Y0113050D02*
X0069158Y0114985D01*
X0069158Y0114017D02*
X0066256Y0114017D01*
X0067223Y0113050D01*
X0063058Y0113750D02*
X0062574Y0113750D01*
X0062574Y0114234D01*
X0063058Y0114234D01*
X0063058Y0113750D01*
X0061607Y0113750D02*
X0061123Y0113750D01*
X0061123Y0114234D01*
X0061607Y0114234D01*
X0061607Y0113750D01*
X0060156Y0115224D02*
X0060156Y0117159D01*
X0060156Y0116191D02*
X0063058Y0116191D01*
X0063058Y0118170D02*
X0063058Y0120105D01*
X0063058Y0119138D02*
X0060156Y0119138D01*
X0061123Y0118170D01*
X0045505Y0110822D02*
X0045505Y0110338D01*
X0045021Y0110338D01*
X0045021Y0110822D01*
X0045505Y0110822D01*
X0030658Y0112487D02*
X0030658Y0114422D01*
X0030658Y0113454D02*
X0027756Y0113454D01*
X0028723Y0112487D01*
X0027756Y0115434D02*
X0030658Y0117369D01*
X0027756Y0117369D01*
X0029207Y0118380D02*
X0029207Y0120315D01*
X0028723Y0121327D02*
X0027756Y0122294D01*
X0030658Y0122294D01*
X0030658Y0121327D02*
X0030658Y0123262D01*
X0029207Y0124273D02*
X0029207Y0126208D01*
X0029691Y0127220D02*
X0029207Y0127703D01*
X0029207Y0128671D01*
X0029691Y0129155D01*
X0030174Y0129155D01*
X0030658Y0128671D01*
X0030658Y0127703D01*
X0030174Y0127220D01*
X0029691Y0127220D01*
X0029207Y0127703D02*
X0028723Y0127220D01*
X0028239Y0127220D01*
X0027756Y0127703D01*
X0027756Y0128671D01*
X0028239Y0129155D01*
X0028723Y0129155D01*
X0029207Y0128671D01*
X0030658Y0125724D02*
X0027756Y0125724D01*
X0029207Y0124273D01*
X0030658Y0119831D02*
X0027756Y0119831D01*
X0029207Y0118380D01*
X0030658Y0115434D02*
X0027756Y0115434D01*
X0021858Y0111837D02*
X0021858Y0110337D01*
X0021858Y0108837D01*
X0021858Y0110337D02*
X0019108Y0108837D01*
X0019108Y0111837D01*
X0021858Y0110337D01*
X0021358Y0101837D02*
X0021358Y0100337D01*
X0021358Y0098837D01*
X0021607Y0099138D02*
X0021607Y0099621D01*
X0022091Y0100105D01*
X0022574Y0100105D01*
X0023058Y0099621D01*
X0023058Y0098654D01*
X0022574Y0098170D01*
X0024108Y0098837D02*
X0021358Y0100337D01*
X0024108Y0101837D01*
X0024108Y0098837D01*
X0021607Y0099621D02*
X0021123Y0100105D01*
X0020639Y0100105D01*
X0020156Y0099621D01*
X0020156Y0098654D01*
X0020639Y0098170D01*
X0020156Y0097159D02*
X0020156Y0095224D01*
X0020156Y0096191D02*
X0023058Y0096191D01*
X0023058Y0094234D02*
X0022574Y0094234D01*
X0022574Y0093750D01*
X0023058Y0093750D01*
X0023058Y0094234D01*
X0021607Y0094234D02*
X0021607Y0093750D01*
X0021123Y0093750D01*
X0021123Y0094234D01*
X0021607Y0094234D01*
X0023058Y0092739D02*
X0023058Y0090804D01*
X0022960Y0090906D02*
X0022477Y0091389D01*
X0021509Y0091389D01*
X0021025Y0090906D01*
X0021123Y0090804D02*
X0020156Y0091771D01*
X0023058Y0091771D01*
X0022960Y0090906D02*
X0022960Y0090422D01*
X0021025Y0088487D01*
X0022960Y0088487D01*
X0023058Y0087857D02*
X0021123Y0087857D01*
X0020156Y0088825D01*
X0021123Y0089792D01*
X0023058Y0089792D01*
X0023972Y0090906D02*
X0024456Y0091389D01*
X0025423Y0091389D01*
X0025907Y0090906D01*
X0025907Y0090422D01*
X0023972Y0088487D01*
X0025907Y0088487D01*
X0026178Y0088539D02*
X0028113Y0088539D01*
X0028113Y0088056D01*
X0026178Y0086121D01*
X0026178Y0085637D01*
X0024682Y0085637D02*
X0024682Y0088539D01*
X0023231Y0087088D01*
X0025166Y0087088D01*
X0026918Y0088971D02*
X0028853Y0090906D01*
X0028853Y0088971D01*
X0028370Y0088487D01*
X0027402Y0088487D01*
X0026918Y0088971D01*
X0026918Y0090906D01*
X0027402Y0091389D01*
X0028370Y0091389D01*
X0028853Y0090906D01*
X0030349Y0089938D02*
X0030349Y0088971D01*
X0030349Y0088003D01*
X0029865Y0087520D01*
X0030832Y0088487D02*
X0031316Y0088487D01*
X0031800Y0088971D01*
X0031800Y0089938D01*
X0032811Y0089938D02*
X0033779Y0089938D01*
X0032811Y0088487D02*
X0032811Y0091389D01*
X0034746Y0091389D01*
X0030832Y0088487D02*
X0030349Y0088971D01*
X0022220Y0088539D02*
X0020285Y0088539D01*
X0020285Y0087088D01*
X0021252Y0087572D01*
X0021736Y0087572D01*
X0022220Y0087088D01*
X0022220Y0086121D01*
X0021736Y0085637D01*
X0020768Y0085637D01*
X0020285Y0086121D01*
X0019273Y0086121D02*
X0018789Y0085637D01*
X0017822Y0085637D01*
X0017338Y0086121D01*
X0017338Y0088056D01*
X0017822Y0088539D01*
X0018789Y0088539D01*
X0019273Y0088056D01*
X0016327Y0088056D02*
X0016327Y0087572D01*
X0015843Y0087088D01*
X0014392Y0087088D01*
X0014007Y0086701D02*
X0014007Y0088636D01*
X0014392Y0088539D02*
X0015843Y0088539D01*
X0016327Y0088056D01*
X0015458Y0088152D02*
X0012556Y0088152D01*
X0014007Y0086701D01*
X0014392Y0085637D02*
X0015843Y0085637D01*
X0016327Y0086121D01*
X0016327Y0086604D01*
X0015843Y0087088D01*
X0015458Y0085689D02*
X0012556Y0085689D01*
X0014392Y0085637D02*
X0014392Y0088539D01*
X0013523Y0089647D02*
X0012556Y0090615D01*
X0015458Y0090615D01*
X0015458Y0091582D02*
X0015458Y0089647D01*
X0014007Y0092594D02*
X0014007Y0094529D01*
X0014491Y0095540D02*
X0014007Y0096024D01*
X0014007Y0096992D01*
X0014491Y0097475D01*
X0014974Y0097475D01*
X0015458Y0096992D01*
X0015458Y0096024D01*
X0014974Y0095540D01*
X0014491Y0095540D01*
X0014007Y0096024D02*
X0013523Y0095540D01*
X0013039Y0095540D01*
X0012556Y0096024D01*
X0012556Y0096992D01*
X0013039Y0097475D01*
X0013523Y0097475D01*
X0014007Y0096992D01*
X0015458Y0094045D02*
X0012556Y0094045D01*
X0014007Y0092594D01*
X0015458Y0085689D02*
X0012556Y0083754D01*
X0015458Y0083754D01*
X0015458Y0082743D02*
X0015458Y0080808D01*
X0015458Y0081775D02*
X0012556Y0081775D01*
X0013523Y0080808D01*
X0013615Y0077889D02*
X0015066Y0077889D01*
X0015550Y0077406D01*
X0015550Y0076438D01*
X0015066Y0075954D01*
X0013615Y0075954D01*
X0013615Y0074987D02*
X0013615Y0077889D01*
X0012625Y0076922D02*
X0012625Y0076438D01*
X0012142Y0076438D01*
X0012142Y0076922D01*
X0012625Y0076922D01*
X0012625Y0075471D02*
X0012625Y0074987D01*
X0012142Y0074987D01*
X0012142Y0075471D01*
X0012625Y0075471D01*
X0011130Y0074987D02*
X0009195Y0074987D01*
X0010163Y0074987D02*
X0010163Y0077889D01*
X0009195Y0076922D01*
X0008184Y0076922D02*
X0008184Y0074987D01*
X0008184Y0076438D02*
X0006249Y0076438D01*
X0006249Y0076922D02*
X0007216Y0077889D01*
X0008184Y0076922D01*
X0006249Y0076922D02*
X0006249Y0074987D01*
X0014582Y0075954D02*
X0015550Y0074987D01*
X0016561Y0074987D02*
X0018496Y0076922D01*
X0018496Y0077406D01*
X0018013Y0077889D01*
X0017045Y0077889D01*
X0016561Y0077406D01*
X0016561Y0074987D02*
X0018496Y0074987D01*
X0018789Y0071789D02*
X0017822Y0071789D01*
X0017338Y0071306D01*
X0018306Y0070338D02*
X0018789Y0070338D01*
X0019273Y0069854D01*
X0019273Y0069371D01*
X0018789Y0068887D01*
X0017822Y0068887D01*
X0017338Y0069371D01*
X0018789Y0070338D02*
X0019273Y0070822D01*
X0019273Y0071306D01*
X0018789Y0071789D01*
X0020285Y0071306D02*
X0020768Y0071789D01*
X0021736Y0071789D01*
X0022220Y0071306D01*
X0022220Y0070822D01*
X0021736Y0070338D01*
X0022220Y0069854D01*
X0022220Y0069371D01*
X0021736Y0068887D01*
X0020768Y0068887D01*
X0020285Y0069371D01*
X0021252Y0070338D02*
X0021736Y0070338D01*
X0023499Y0070222D02*
X0024466Y0071189D01*
X0025434Y0070222D01*
X0025434Y0068287D01*
X0024682Y0068887D02*
X0023715Y0068887D01*
X0023231Y0069371D01*
X0025166Y0071306D01*
X0025166Y0069371D01*
X0024682Y0068887D01*
X0025434Y0069738D02*
X0023499Y0069738D01*
X0023231Y0069371D02*
X0023231Y0071306D01*
X0023715Y0071789D01*
X0024682Y0071789D01*
X0025166Y0071306D01*
X0026445Y0070222D02*
X0027413Y0071189D01*
X0027413Y0068287D01*
X0028380Y0068287D02*
X0026445Y0068287D01*
X0023499Y0068287D02*
X0023499Y0070222D01*
X0029392Y0070222D02*
X0029392Y0069738D01*
X0029875Y0069738D01*
X0029875Y0070222D01*
X0029392Y0070222D01*
X0029392Y0068771D02*
X0029392Y0068287D01*
X0029875Y0068287D01*
X0029875Y0068771D01*
X0029392Y0068771D01*
X0030865Y0068771D02*
X0031349Y0068287D01*
X0032316Y0068287D01*
X0032800Y0068771D01*
X0033811Y0069738D02*
X0035746Y0069738D01*
X0035263Y0068287D02*
X0035263Y0071189D01*
X0033811Y0069738D01*
X0032800Y0070706D02*
X0032316Y0071189D01*
X0031349Y0071189D01*
X0030865Y0070706D01*
X0030865Y0068771D01*
X0021457Y0059267D02*
X0021457Y0058300D01*
X0021457Y0057288D02*
X0022424Y0057288D01*
X0022908Y0056805D01*
X0022908Y0056321D01*
X0022424Y0055837D01*
X0023392Y0055837D01*
X0023875Y0055353D01*
X0022424Y0055837D02*
X0021457Y0055837D01*
X0020489Y0054342D02*
X0022424Y0052407D01*
X0022908Y0052407D01*
X0022908Y0051417D02*
X0022908Y0050934D01*
X0022424Y0050934D01*
X0022424Y0051417D01*
X0022908Y0051417D01*
X0021457Y0049922D02*
X0021457Y0047987D01*
X0020006Y0049438D01*
X0022908Y0049438D01*
X0024365Y0048906D02*
X0024365Y0046971D01*
X0024849Y0046487D01*
X0025816Y0046487D01*
X0026300Y0046971D01*
X0027311Y0046487D02*
X0029246Y0046487D01*
X0028279Y0046487D02*
X0028279Y0049389D01*
X0027311Y0048422D01*
X0026300Y0048906D02*
X0025816Y0049389D01*
X0024849Y0049389D01*
X0024365Y0048906D01*
X0020006Y0052407D02*
X0020006Y0054342D01*
X0020489Y0054342D01*
X0020006Y0058300D02*
X0020006Y0060235D01*
X0020006Y0058300D02*
X0022908Y0058300D01*
X0043758Y0058987D02*
X0043758Y0061889D01*
X0045209Y0061889D01*
X0045693Y0061406D01*
X0045693Y0060438D01*
X0045209Y0059954D01*
X0043758Y0059954D01*
X0044725Y0059954D02*
X0045693Y0058987D01*
X0046705Y0058987D02*
X0048639Y0058987D01*
X0047672Y0058987D02*
X0047672Y0061889D01*
X0046705Y0060922D01*
X0063258Y0081287D02*
X0063258Y0083222D01*
X0064225Y0084189D01*
X0065193Y0083222D01*
X0065193Y0081287D01*
X0066205Y0081287D02*
X0068139Y0081287D01*
X0067172Y0081287D02*
X0067172Y0084189D01*
X0066205Y0083222D01*
X0065193Y0082738D02*
X0063258Y0082738D01*
X0069151Y0082738D02*
X0069151Y0083222D01*
X0069635Y0083222D01*
X0069635Y0082738D01*
X0069151Y0082738D01*
X0069151Y0081771D02*
X0069151Y0081287D01*
X0069635Y0081287D01*
X0069635Y0081771D01*
X0069151Y0081771D01*
X0070624Y0081771D02*
X0071108Y0081287D01*
X0072076Y0081287D01*
X0072559Y0081771D01*
X0073571Y0081287D02*
X0075506Y0083222D01*
X0075506Y0083706D01*
X0075022Y0084189D01*
X0074055Y0084189D01*
X0073571Y0083706D01*
X0072559Y0083706D02*
X0072076Y0084189D01*
X0071108Y0084189D01*
X0070624Y0083706D01*
X0070624Y0081771D01*
X0073571Y0081287D02*
X0075506Y0081287D01*
X0106249Y0076922D02*
X0106249Y0074987D01*
X0106249Y0076438D02*
X0108184Y0076438D01*
X0108184Y0076922D02*
X0108184Y0074987D01*
X0109195Y0074987D02*
X0111130Y0076922D01*
X0111130Y0077406D01*
X0110646Y0077889D01*
X0109679Y0077889D01*
X0109195Y0077406D01*
X0108184Y0076922D02*
X0107216Y0077889D01*
X0106249Y0076922D01*
X0109195Y0074987D02*
X0111130Y0074987D01*
X0112142Y0074987D02*
X0112142Y0075471D01*
X0112625Y0075471D01*
X0112625Y0074987D01*
X0112142Y0074987D01*
X0112142Y0076438D02*
X0112142Y0076922D01*
X0112625Y0076922D01*
X0112625Y0076438D01*
X0112142Y0076438D01*
X0113615Y0075954D02*
X0115066Y0075954D01*
X0115550Y0076438D01*
X0115550Y0077406D01*
X0115066Y0077889D01*
X0113615Y0077889D01*
X0113615Y0074987D01*
X0114582Y0075954D02*
X0115550Y0074987D01*
X0116249Y0074987D02*
X0116249Y0076922D01*
X0117216Y0077889D01*
X0118184Y0076922D01*
X0118184Y0074987D01*
X0118496Y0074987D02*
X0116561Y0074987D01*
X0118496Y0076922D01*
X0118496Y0077406D01*
X0118013Y0077889D01*
X0117045Y0077889D01*
X0116561Y0077406D01*
X0116249Y0076438D02*
X0118184Y0076438D01*
X0119195Y0077406D02*
X0119679Y0077889D01*
X0120646Y0077889D01*
X0121130Y0077406D01*
X0121130Y0076922D01*
X0119195Y0074987D01*
X0121130Y0074987D01*
X0122142Y0074987D02*
X0122142Y0075471D01*
X0122625Y0075471D01*
X0122625Y0074987D01*
X0122142Y0074987D01*
X0122142Y0076438D02*
X0122142Y0076922D01*
X0122625Y0076922D01*
X0122625Y0076438D01*
X0122142Y0076438D01*
X0123615Y0075954D02*
X0125066Y0075954D01*
X0125550Y0076438D01*
X0125550Y0077406D01*
X0125066Y0077889D01*
X0123615Y0077889D01*
X0123615Y0074987D01*
X0124582Y0075954D02*
X0125550Y0074987D01*
X0126561Y0075471D02*
X0127045Y0074987D01*
X0128013Y0074987D01*
X0128496Y0075471D01*
X0128496Y0075954D01*
X0128013Y0076438D01*
X0127529Y0076438D01*
X0128013Y0076438D02*
X0128496Y0076922D01*
X0128496Y0077406D01*
X0128013Y0077889D01*
X0127045Y0077889D01*
X0126561Y0077406D01*
X0123058Y0079857D02*
X0121123Y0079857D01*
X0120156Y0080825D01*
X0121123Y0081792D01*
X0123058Y0081792D01*
X0123058Y0082804D02*
X0121123Y0084739D01*
X0120639Y0084739D01*
X0120156Y0084255D01*
X0120156Y0083288D01*
X0120639Y0082804D01*
X0121607Y0081792D02*
X0121607Y0079857D01*
X0123058Y0082804D02*
X0123058Y0084739D01*
X0123058Y0085750D02*
X0122574Y0085750D01*
X0122574Y0086234D01*
X0123058Y0086234D01*
X0123058Y0085750D01*
X0121607Y0085750D02*
X0121123Y0085750D01*
X0121123Y0086234D01*
X0121607Y0086234D01*
X0121607Y0085750D01*
X0120156Y0087224D02*
X0120156Y0089159D01*
X0120156Y0088191D02*
X0123058Y0088191D01*
X0122574Y0090170D02*
X0123058Y0090654D01*
X0123058Y0091621D01*
X0122574Y0092105D01*
X0122091Y0092105D01*
X0121607Y0091621D01*
X0121607Y0091138D01*
X0121607Y0091621D02*
X0121123Y0092105D01*
X0120639Y0092105D01*
X0120156Y0091621D01*
X0120156Y0090654D01*
X0120639Y0090170D01*
X0122556Y0091775D02*
X0125458Y0091775D01*
X0126178Y0092137D02*
X0126178Y0092621D01*
X0128113Y0094556D01*
X0128113Y0095039D01*
X0126178Y0095039D01*
X0125458Y0095689D02*
X0122556Y0095689D01*
X0122220Y0095039D02*
X0120285Y0095039D01*
X0120285Y0093588D01*
X0121252Y0094072D01*
X0121736Y0094072D01*
X0122220Y0093588D01*
X0122220Y0092621D01*
X0121736Y0092137D01*
X0120768Y0092137D01*
X0120285Y0092621D01*
X0119273Y0092621D02*
X0118789Y0092137D01*
X0117822Y0092137D01*
X0117338Y0092621D01*
X0117338Y0094556D01*
X0117822Y0095039D01*
X0118789Y0095039D01*
X0119273Y0094556D01*
X0116327Y0094556D02*
X0116327Y0094072D01*
X0115843Y0093588D01*
X0114392Y0093588D01*
X0115843Y0093588D02*
X0116327Y0093104D01*
X0116327Y0092621D01*
X0115843Y0092137D01*
X0114392Y0092137D01*
X0114392Y0095039D01*
X0115843Y0095039D01*
X0116327Y0094556D01*
X0122556Y0093754D02*
X0125458Y0095689D01*
X0124682Y0095039D02*
X0123231Y0093588D01*
X0125166Y0093588D01*
X0125458Y0093754D02*
X0122556Y0093754D01*
X0124682Y0095039D02*
X0124682Y0092137D01*
X0125458Y0092743D02*
X0125458Y0090808D01*
X0123523Y0090808D02*
X0122556Y0091775D01*
X0124007Y0096701D02*
X0124007Y0098636D01*
X0123523Y0099647D02*
X0122556Y0100615D01*
X0125458Y0100615D01*
X0125458Y0101582D02*
X0125458Y0099647D01*
X0125458Y0098152D02*
X0122556Y0098152D01*
X0124007Y0096701D01*
X0129108Y0098837D02*
X0131858Y0100337D01*
X0131858Y0101837D01*
X0131858Y0100337D02*
X0131858Y0098837D01*
X0131858Y0100337D02*
X0129108Y0101837D01*
X0129108Y0098837D01*
X0124007Y0102594D02*
X0124007Y0104529D01*
X0124491Y0105540D02*
X0124007Y0106024D01*
X0124007Y0106992D01*
X0124491Y0107475D01*
X0124974Y0107475D01*
X0125458Y0106992D01*
X0125458Y0106024D01*
X0124974Y0105540D01*
X0124491Y0105540D01*
X0124007Y0106024D02*
X0123523Y0105540D01*
X0123039Y0105540D01*
X0122556Y0106024D01*
X0122556Y0106992D01*
X0123039Y0107475D01*
X0123523Y0107475D01*
X0124007Y0106992D01*
X0121376Y0108887D02*
X0119441Y0108887D01*
X0121376Y0110822D01*
X0121376Y0111306D01*
X0120892Y0111789D01*
X0119925Y0111789D01*
X0119441Y0111306D01*
X0118430Y0111789D02*
X0116495Y0111789D01*
X0117462Y0111789D02*
X0117462Y0108887D01*
X0115505Y0108887D02*
X0115505Y0109371D01*
X0115021Y0109371D01*
X0115021Y0108887D01*
X0115505Y0108887D01*
X0114010Y0108887D02*
X0112075Y0108887D01*
X0114010Y0110822D01*
X0114010Y0111306D01*
X0113526Y0111789D01*
X0112559Y0111789D01*
X0112075Y0111306D01*
X0111063Y0110822D02*
X0111063Y0108887D01*
X0109808Y0109497D02*
X0109324Y0109014D01*
X0109128Y0108887D02*
X0109128Y0110822D01*
X0110096Y0111789D01*
X0111063Y0110822D01*
X0111063Y0110338D02*
X0109128Y0110338D01*
X0109324Y0110949D02*
X0109808Y0110465D01*
X0109808Y0109497D01*
X0108357Y0109014D02*
X0107873Y0109981D01*
X0107873Y0110465D01*
X0108357Y0110949D01*
X0109324Y0110949D01*
X0109324Y0111960D02*
X0109808Y0112444D01*
X0109808Y0113412D01*
X0109324Y0113895D01*
X0108357Y0113895D01*
X0107873Y0113412D01*
X0107873Y0112928D01*
X0108357Y0111960D01*
X0106906Y0111960D01*
X0106906Y0113895D01*
X0106906Y0114907D02*
X0106906Y0116842D01*
X0107389Y0116842D01*
X0109324Y0114907D01*
X0109808Y0114907D01*
X0106906Y0110949D02*
X0106906Y0109014D01*
X0108357Y0109014D01*
X0109324Y0108002D02*
X0109808Y0107518D01*
X0109808Y0106551D01*
X0109324Y0106067D01*
X0107389Y0106067D01*
X0106906Y0106551D01*
X0106906Y0107518D01*
X0107389Y0108002D01*
X0107389Y0105056D02*
X0106906Y0104572D01*
X0106906Y0103121D01*
X0109808Y0103121D01*
X0109808Y0104572D01*
X0109324Y0105056D01*
X0108841Y0105056D01*
X0108357Y0104572D01*
X0108357Y0103121D01*
X0108357Y0104572D02*
X0107873Y0105056D01*
X0107389Y0105056D01*
X0115021Y0110338D02*
X0115021Y0110822D01*
X0115505Y0110822D01*
X0115505Y0110338D01*
X0115021Y0110338D01*
X0122556Y0104045D02*
X0124007Y0102594D01*
X0125458Y0104045D02*
X0122556Y0104045D01*
X0131358Y0108837D02*
X0131358Y0110337D01*
X0131358Y0111837D01*
X0131358Y0110337D02*
X0134108Y0111837D01*
X0134108Y0108837D01*
X0131358Y0110337D01*
X0137756Y0109831D02*
X0139207Y0108380D01*
X0139207Y0110315D01*
X0138723Y0111327D02*
X0137756Y0112294D01*
X0140658Y0112294D01*
X0140658Y0111327D02*
X0140658Y0113262D01*
X0139207Y0114273D02*
X0139207Y0116208D01*
X0139691Y0117220D02*
X0139207Y0117703D01*
X0139207Y0118671D01*
X0139691Y0119155D01*
X0140174Y0119155D01*
X0140658Y0118671D01*
X0140658Y0117703D01*
X0140174Y0117220D01*
X0139691Y0117220D01*
X0139207Y0117703D02*
X0138723Y0117220D01*
X0138239Y0117220D01*
X0137756Y0117703D01*
X0137756Y0118671D01*
X0138239Y0119155D01*
X0138723Y0119155D01*
X0139207Y0118671D01*
X0140658Y0115724D02*
X0137756Y0115724D01*
X0139207Y0114273D01*
X0140658Y0109831D02*
X0137756Y0109831D01*
X0137756Y0107369D02*
X0140658Y0107369D01*
X0137756Y0105434D01*
X0140658Y0105434D01*
X0140658Y0104422D02*
X0140658Y0102487D01*
X0140658Y0103454D02*
X0137756Y0103454D01*
X0138723Y0102487D01*
X0134682Y0071789D02*
X0135166Y0071306D01*
X0133231Y0069371D01*
X0133715Y0068887D01*
X0134682Y0068887D01*
X0135166Y0069371D01*
X0135166Y0071306D01*
X0134682Y0071789D02*
X0133715Y0071789D01*
X0133231Y0071306D01*
X0133231Y0069371D01*
X0132220Y0069371D02*
X0131736Y0068887D01*
X0130768Y0068887D01*
X0130285Y0069371D01*
X0132220Y0071306D01*
X0132220Y0069371D01*
X0130285Y0069371D02*
X0130285Y0071306D01*
X0130768Y0071789D01*
X0131736Y0071789D01*
X0132220Y0071306D01*
X0129273Y0068887D02*
X0127338Y0068887D01*
X0128306Y0068887D02*
X0128306Y0071789D01*
X0127338Y0070822D01*
X0125166Y0071306D02*
X0125166Y0069371D01*
X0124682Y0068887D01*
X0123715Y0068887D01*
X0123231Y0069371D01*
X0125166Y0071306D01*
X0124682Y0071789D01*
X0123715Y0071789D01*
X0123231Y0071306D01*
X0123231Y0069371D01*
X0122220Y0069371D02*
X0121736Y0068887D01*
X0120768Y0068887D01*
X0120285Y0069371D01*
X0119273Y0069371D02*
X0118789Y0068887D01*
X0117822Y0068887D01*
X0117338Y0069371D01*
X0118306Y0070338D02*
X0118789Y0070338D01*
X0119273Y0069854D01*
X0119273Y0069371D01*
X0118789Y0070338D02*
X0119273Y0070822D01*
X0119273Y0071306D01*
X0118789Y0071789D01*
X0117822Y0071789D01*
X0117338Y0071306D01*
X0120285Y0071306D02*
X0120768Y0071789D01*
X0121736Y0071789D01*
X0122220Y0071306D01*
X0122220Y0070822D01*
X0121736Y0070338D01*
X0122220Y0069854D01*
X0122220Y0069371D01*
X0121736Y0070338D02*
X0121252Y0070338D01*
X0130256Y0037475D02*
X0130256Y0035540D01*
X0133158Y0035540D01*
X0132674Y0034529D02*
X0131707Y0034529D01*
X0132674Y0034529D02*
X0133158Y0034045D01*
X0133158Y0033561D01*
X0132674Y0033078D01*
X0133642Y0033078D01*
X0134125Y0032594D01*
X0132674Y0033078D02*
X0131707Y0033078D01*
X0130739Y0031582D02*
X0132674Y0031582D01*
X0133158Y0031099D01*
X0133158Y0030131D01*
X0132674Y0029647D01*
X0130739Y0031582D01*
X0130256Y0031099D01*
X0130256Y0030131D01*
X0130739Y0029647D01*
X0132674Y0029647D01*
X0132674Y0028636D02*
X0130739Y0028636D01*
X0132674Y0026701D01*
X0133158Y0027185D01*
X0133158Y0028152D01*
X0132674Y0028636D01*
X0130739Y0028636D02*
X0130256Y0028152D01*
X0130256Y0027185D01*
X0130739Y0026701D01*
X0132674Y0026701D01*
X0132674Y0025689D02*
X0130739Y0025689D01*
X0132674Y0023754D01*
X0133158Y0024238D01*
X0133158Y0025206D01*
X0132674Y0025689D01*
X0132674Y0023754D02*
X0130739Y0023754D01*
X0130256Y0024238D01*
X0130256Y0025206D01*
X0130739Y0025689D01*
X0133158Y0022743D02*
X0133158Y0020808D01*
X0133158Y0021775D02*
X0130256Y0021775D01*
X0131223Y0020808D01*
X0131707Y0019796D02*
X0131707Y0017861D01*
X0130739Y0016850D02*
X0132674Y0016850D01*
X0133158Y0016366D01*
X0133158Y0015399D01*
X0132674Y0014915D01*
X0130739Y0016850D01*
X0130256Y0016366D01*
X0130256Y0015399D01*
X0130739Y0014915D01*
X0132674Y0014915D01*
X0132674Y0013903D02*
X0130739Y0013903D01*
X0132674Y0011968D01*
X0133158Y0012452D01*
X0133158Y0013420D01*
X0132674Y0013903D01*
X0132674Y0011968D02*
X0130739Y0011968D01*
X0130256Y0012452D01*
X0130256Y0013420D01*
X0130739Y0013903D01*
X0133158Y0010957D02*
X0133158Y0009022D01*
X0133158Y0009989D02*
X0130256Y0009989D01*
X0131223Y0009022D01*
X0149239Y0032594D02*
X0151174Y0032594D01*
X0151658Y0033078D01*
X0151658Y0034045D01*
X0151174Y0034529D01*
X0151174Y0035540D02*
X0151658Y0036024D01*
X0151658Y0036992D01*
X0151174Y0037475D01*
X0150691Y0037475D01*
X0150207Y0036992D01*
X0150207Y0036508D01*
X0150207Y0036992D02*
X0149723Y0037475D01*
X0149239Y0037475D01*
X0148756Y0036992D01*
X0148756Y0036024D01*
X0149239Y0035540D01*
X0149239Y0034529D02*
X0148756Y0034045D01*
X0148756Y0033078D01*
X0149239Y0032594D01*
X0131707Y0035540D02*
X0131707Y0036508D01*
X0021607Y0087857D02*
X0021607Y0089792D01*
X0005458Y0037975D02*
X0005458Y0036040D01*
X0003523Y0037975D01*
X0003039Y0037975D01*
X0002556Y0037492D01*
X0002556Y0036524D01*
X0003039Y0036040D01*
X0003039Y0035029D02*
X0002556Y0034545D01*
X0002556Y0033578D01*
X0003039Y0033094D01*
X0004974Y0033094D01*
X0005458Y0033578D01*
X0005458Y0034545D01*
X0004974Y0035029D01*
D13*
X0041608Y0082337D03*
X0101608Y0082337D03*
X0141608Y0048337D03*
D14*
X0141408Y0092463D02*
X0139006Y0092463D01*
X0137805Y0093664D01*
X0139006Y0094865D01*
X0141408Y0094865D01*
X0141408Y0096146D02*
X0139006Y0098548D01*
X0138405Y0098548D01*
X0137805Y0097948D01*
X0137805Y0096746D01*
X0138405Y0096146D01*
X0139606Y0094865D02*
X0139606Y0092463D01*
X0141408Y0096146D02*
X0141408Y0098548D01*
X0141408Y0099829D02*
X0140807Y0099829D01*
X0140807Y0100430D01*
X0141408Y0100430D01*
X0141408Y0099829D01*
X0139606Y0099829D02*
X0139006Y0099829D01*
X0139006Y0100430D01*
X0139606Y0100430D01*
X0139606Y0099829D01*
X0137805Y0101671D02*
X0137805Y0103472D01*
X0138405Y0104073D01*
X0140807Y0104073D01*
X0141408Y0103472D01*
X0141408Y0101671D01*
X0137805Y0101671D01*
X0136608Y0100837D02*
X0136608Y0099837D01*
X0136606Y0099750D01*
X0136600Y0099663D01*
X0136591Y0099576D01*
X0136578Y0099490D01*
X0136561Y0099404D01*
X0136540Y0099319D01*
X0136515Y0099236D01*
X0136487Y0099153D01*
X0136456Y0099072D01*
X0136421Y0098992D01*
X0136382Y0098914D01*
X0136340Y0098837D01*
X0136295Y0098762D01*
X0136246Y0098690D01*
X0136195Y0098619D01*
X0136140Y0098551D01*
X0136083Y0098486D01*
X0136022Y0098423D01*
X0135959Y0098362D01*
X0135894Y0098305D01*
X0135826Y0098250D01*
X0135755Y0098199D01*
X0135683Y0098150D01*
X0135608Y0098105D01*
X0135531Y0098063D01*
X0135453Y0098024D01*
X0135373Y0097989D01*
X0135292Y0097958D01*
X0135209Y0097930D01*
X0135126Y0097905D01*
X0135041Y0097884D01*
X0134955Y0097867D01*
X0134869Y0097854D01*
X0134782Y0097845D01*
X0134695Y0097839D01*
X0134608Y0097837D01*
X0128608Y0097837D01*
X0128521Y0097839D01*
X0128434Y0097845D01*
X0128347Y0097854D01*
X0128261Y0097867D01*
X0128175Y0097884D01*
X0128090Y0097905D01*
X0128007Y0097930D01*
X0127924Y0097958D01*
X0127843Y0097989D01*
X0127763Y0098024D01*
X0127685Y0098063D01*
X0127608Y0098105D01*
X0127533Y0098150D01*
X0127461Y0098199D01*
X0127390Y0098250D01*
X0127322Y0098305D01*
X0127257Y0098362D01*
X0127194Y0098423D01*
X0127133Y0098486D01*
X0127076Y0098551D01*
X0127021Y0098619D01*
X0126970Y0098690D01*
X0126921Y0098762D01*
X0126876Y0098837D01*
X0126834Y0098914D01*
X0126795Y0098992D01*
X0126760Y0099072D01*
X0126729Y0099153D01*
X0126701Y0099236D01*
X0126676Y0099319D01*
X0126655Y0099404D01*
X0126638Y0099490D01*
X0126625Y0099576D01*
X0126616Y0099663D01*
X0126610Y0099750D01*
X0126608Y0099837D01*
X0126608Y0100837D01*
X0125408Y0102037D02*
X0123006Y0102037D01*
X0121805Y0103238D01*
X0123006Y0104439D01*
X0125408Y0104439D01*
X0125408Y0105720D02*
X0123006Y0108122D01*
X0122405Y0108122D01*
X0121805Y0107522D01*
X0121805Y0106321D01*
X0122405Y0105720D01*
X0123606Y0104439D02*
X0123606Y0102037D01*
X0125408Y0105720D02*
X0125408Y0108122D01*
X0125408Y0109403D02*
X0124807Y0109403D01*
X0124807Y0110004D01*
X0125408Y0110004D01*
X0125408Y0109403D01*
X0126608Y0109837D02*
X0126608Y0110837D01*
X0125408Y0111245D02*
X0125408Y0113046D01*
X0124807Y0113647D01*
X0122405Y0113647D01*
X0121805Y0113046D01*
X0121805Y0111245D01*
X0125408Y0111245D01*
X0123606Y0110004D02*
X0123606Y0109403D01*
X0123006Y0109403D01*
X0123006Y0110004D01*
X0123606Y0110004D01*
X0126608Y0109837D02*
X0126610Y0109750D01*
X0126616Y0109663D01*
X0126625Y0109576D01*
X0126638Y0109490D01*
X0126655Y0109404D01*
X0126676Y0109319D01*
X0126701Y0109236D01*
X0126729Y0109153D01*
X0126760Y0109072D01*
X0126795Y0108992D01*
X0126834Y0108914D01*
X0126876Y0108837D01*
X0126921Y0108762D01*
X0126970Y0108690D01*
X0127021Y0108619D01*
X0127076Y0108551D01*
X0127133Y0108486D01*
X0127194Y0108423D01*
X0127257Y0108362D01*
X0127322Y0108305D01*
X0127390Y0108250D01*
X0127461Y0108199D01*
X0127533Y0108150D01*
X0127608Y0108105D01*
X0127685Y0108063D01*
X0127763Y0108024D01*
X0127843Y0107989D01*
X0127924Y0107958D01*
X0128007Y0107930D01*
X0128090Y0107905D01*
X0128175Y0107884D01*
X0128261Y0107867D01*
X0128347Y0107854D01*
X0128434Y0107845D01*
X0128521Y0107839D01*
X0128608Y0107837D01*
X0134608Y0107837D01*
X0134695Y0107839D01*
X0134782Y0107845D01*
X0134869Y0107854D01*
X0134955Y0107867D01*
X0135041Y0107884D01*
X0135126Y0107905D01*
X0135209Y0107930D01*
X0135292Y0107958D01*
X0135373Y0107989D01*
X0135453Y0108024D01*
X0135531Y0108063D01*
X0135608Y0108105D01*
X0135683Y0108150D01*
X0135755Y0108199D01*
X0135826Y0108250D01*
X0135894Y0108305D01*
X0135959Y0108362D01*
X0136022Y0108423D01*
X0136083Y0108486D01*
X0136140Y0108551D01*
X0136195Y0108619D01*
X0136246Y0108690D01*
X0136295Y0108762D01*
X0136340Y0108837D01*
X0136382Y0108914D01*
X0136421Y0108992D01*
X0136456Y0109072D01*
X0136487Y0109153D01*
X0136515Y0109236D01*
X0136540Y0109319D01*
X0136561Y0109404D01*
X0136578Y0109490D01*
X0136591Y0109576D01*
X0136600Y0109663D01*
X0136606Y0109750D01*
X0136608Y0109837D01*
X0136608Y0110837D01*
X0136606Y0110924D01*
X0136600Y0111011D01*
X0136591Y0111098D01*
X0136578Y0111184D01*
X0136561Y0111270D01*
X0136540Y0111355D01*
X0136515Y0111438D01*
X0136487Y0111521D01*
X0136456Y0111602D01*
X0136421Y0111682D01*
X0136382Y0111760D01*
X0136340Y0111837D01*
X0136295Y0111912D01*
X0136246Y0111984D01*
X0136195Y0112055D01*
X0136140Y0112123D01*
X0136083Y0112188D01*
X0136022Y0112251D01*
X0135959Y0112312D01*
X0135894Y0112369D01*
X0135826Y0112424D01*
X0135755Y0112475D01*
X0135683Y0112524D01*
X0135608Y0112569D01*
X0135531Y0112611D01*
X0135453Y0112650D01*
X0135373Y0112685D01*
X0135292Y0112716D01*
X0135209Y0112744D01*
X0135126Y0112769D01*
X0135041Y0112790D01*
X0134955Y0112807D01*
X0134869Y0112820D01*
X0134782Y0112829D01*
X0134695Y0112835D01*
X0134608Y0112837D01*
X0128608Y0112837D01*
X0128521Y0112835D01*
X0128434Y0112829D01*
X0128347Y0112820D01*
X0128261Y0112807D01*
X0128175Y0112790D01*
X0128090Y0112769D01*
X0128007Y0112744D01*
X0127924Y0112716D01*
X0127843Y0112685D01*
X0127763Y0112650D01*
X0127685Y0112611D01*
X0127608Y0112569D01*
X0127533Y0112524D01*
X0127461Y0112475D01*
X0127390Y0112424D01*
X0127322Y0112369D01*
X0127257Y0112312D01*
X0127194Y0112251D01*
X0127133Y0112188D01*
X0127076Y0112123D01*
X0127021Y0112055D01*
X0126970Y0111984D01*
X0126921Y0111912D01*
X0126876Y0111837D01*
X0126834Y0111760D01*
X0126795Y0111682D01*
X0126760Y0111602D01*
X0126729Y0111521D01*
X0126701Y0111438D01*
X0126676Y0111355D01*
X0126655Y0111270D01*
X0126638Y0111184D01*
X0126625Y0111098D01*
X0126616Y0111011D01*
X0126610Y0110924D01*
X0126608Y0110837D01*
X0125408Y0114928D02*
X0125408Y0117330D01*
X0125408Y0116129D02*
X0121805Y0116129D01*
X0123006Y0114928D01*
X0128608Y0102837D02*
X0134608Y0102837D01*
X0134695Y0102835D01*
X0134782Y0102829D01*
X0134869Y0102820D01*
X0134955Y0102807D01*
X0135041Y0102790D01*
X0135126Y0102769D01*
X0135209Y0102744D01*
X0135292Y0102716D01*
X0135373Y0102685D01*
X0135453Y0102650D01*
X0135531Y0102611D01*
X0135608Y0102569D01*
X0135683Y0102524D01*
X0135755Y0102475D01*
X0135826Y0102424D01*
X0135894Y0102369D01*
X0135959Y0102312D01*
X0136022Y0102251D01*
X0136083Y0102188D01*
X0136140Y0102123D01*
X0136195Y0102055D01*
X0136246Y0101984D01*
X0136295Y0101912D01*
X0136340Y0101837D01*
X0136382Y0101760D01*
X0136421Y0101682D01*
X0136456Y0101602D01*
X0136487Y0101521D01*
X0136515Y0101438D01*
X0136540Y0101355D01*
X0136561Y0101270D01*
X0136578Y0101184D01*
X0136591Y0101098D01*
X0136600Y0101011D01*
X0136606Y0100924D01*
X0136608Y0100837D01*
X0138405Y0105354D02*
X0137805Y0105954D01*
X0137805Y0107155D01*
X0138405Y0107756D01*
X0139006Y0107756D01*
X0141408Y0105354D01*
X0141408Y0107756D01*
X0128608Y0102837D02*
X0128521Y0102835D01*
X0128434Y0102829D01*
X0128347Y0102820D01*
X0128261Y0102807D01*
X0128175Y0102790D01*
X0128090Y0102769D01*
X0128007Y0102744D01*
X0127924Y0102716D01*
X0127843Y0102685D01*
X0127763Y0102650D01*
X0127685Y0102611D01*
X0127608Y0102569D01*
X0127533Y0102524D01*
X0127461Y0102475D01*
X0127390Y0102424D01*
X0127322Y0102369D01*
X0127257Y0102312D01*
X0127194Y0102251D01*
X0127133Y0102188D01*
X0127076Y0102123D01*
X0127021Y0102055D01*
X0126970Y0101984D01*
X0126921Y0101912D01*
X0126876Y0101837D01*
X0126834Y0101760D01*
X0126795Y0101682D01*
X0126760Y0101602D01*
X0126729Y0101521D01*
X0126701Y0101438D01*
X0126676Y0101355D01*
X0126655Y0101270D01*
X0126638Y0101184D01*
X0126625Y0101098D01*
X0126616Y0101011D01*
X0126610Y0100924D01*
X0126608Y0100837D01*
X0031408Y0097756D02*
X0031408Y0095354D01*
X0031408Y0096555D02*
X0027805Y0096555D01*
X0029006Y0095354D01*
X0028405Y0094073D02*
X0027805Y0093472D01*
X0027805Y0091671D01*
X0031408Y0091671D01*
X0031408Y0093472D01*
X0030807Y0094073D01*
X0028405Y0094073D01*
X0029006Y0090430D02*
X0029606Y0090430D01*
X0029606Y0089829D01*
X0029006Y0089829D01*
X0029006Y0090430D01*
X0030807Y0090430D02*
X0031408Y0090430D01*
X0031408Y0089829D01*
X0030807Y0089829D01*
X0030807Y0090430D01*
X0031408Y0088548D02*
X0031408Y0086146D01*
X0031408Y0087347D02*
X0027805Y0087347D01*
X0029006Y0086146D01*
X0029006Y0084865D02*
X0031408Y0084865D01*
X0029606Y0084865D02*
X0029606Y0082463D01*
X0029006Y0082463D02*
X0027805Y0083664D01*
X0029006Y0084865D01*
X0029006Y0082463D02*
X0031408Y0082463D01*
X0024608Y0097837D02*
X0018608Y0097837D01*
X0018521Y0097839D01*
X0018434Y0097845D01*
X0018347Y0097854D01*
X0018261Y0097867D01*
X0018175Y0097884D01*
X0018090Y0097905D01*
X0018007Y0097930D01*
X0017924Y0097958D01*
X0017843Y0097989D01*
X0017763Y0098024D01*
X0017685Y0098063D01*
X0017608Y0098105D01*
X0017533Y0098150D01*
X0017461Y0098199D01*
X0017390Y0098250D01*
X0017322Y0098305D01*
X0017257Y0098362D01*
X0017194Y0098423D01*
X0017133Y0098486D01*
X0017076Y0098551D01*
X0017021Y0098619D01*
X0016970Y0098690D01*
X0016921Y0098762D01*
X0016876Y0098837D01*
X0016834Y0098914D01*
X0016795Y0098992D01*
X0016760Y0099072D01*
X0016729Y0099153D01*
X0016701Y0099236D01*
X0016676Y0099319D01*
X0016655Y0099404D01*
X0016638Y0099490D01*
X0016625Y0099576D01*
X0016616Y0099663D01*
X0016610Y0099750D01*
X0016608Y0099837D01*
X0016608Y0100837D01*
X0016610Y0100924D01*
X0016616Y0101011D01*
X0016625Y0101098D01*
X0016638Y0101184D01*
X0016655Y0101270D01*
X0016676Y0101355D01*
X0016701Y0101438D01*
X0016729Y0101521D01*
X0016760Y0101602D01*
X0016795Y0101682D01*
X0016834Y0101760D01*
X0016876Y0101837D01*
X0016921Y0101912D01*
X0016970Y0101984D01*
X0017021Y0102055D01*
X0017076Y0102123D01*
X0017133Y0102188D01*
X0017194Y0102251D01*
X0017257Y0102312D01*
X0017322Y0102369D01*
X0017390Y0102424D01*
X0017461Y0102475D01*
X0017533Y0102524D01*
X0017608Y0102569D01*
X0017685Y0102611D01*
X0017763Y0102650D01*
X0017843Y0102685D01*
X0017924Y0102716D01*
X0018007Y0102744D01*
X0018090Y0102769D01*
X0018175Y0102790D01*
X0018261Y0102807D01*
X0018347Y0102820D01*
X0018434Y0102829D01*
X0018521Y0102835D01*
X0018608Y0102837D01*
X0024608Y0102837D01*
X0024695Y0102835D01*
X0024782Y0102829D01*
X0024869Y0102820D01*
X0024955Y0102807D01*
X0025041Y0102790D01*
X0025126Y0102769D01*
X0025209Y0102744D01*
X0025292Y0102716D01*
X0025373Y0102685D01*
X0025453Y0102650D01*
X0025531Y0102611D01*
X0025608Y0102569D01*
X0025683Y0102524D01*
X0025755Y0102475D01*
X0025826Y0102424D01*
X0025894Y0102369D01*
X0025959Y0102312D01*
X0026022Y0102251D01*
X0026083Y0102188D01*
X0026140Y0102123D01*
X0026195Y0102055D01*
X0026246Y0101984D01*
X0026295Y0101912D01*
X0026340Y0101837D01*
X0026382Y0101760D01*
X0026421Y0101682D01*
X0026456Y0101602D01*
X0026487Y0101521D01*
X0026515Y0101438D01*
X0026540Y0101355D01*
X0026561Y0101270D01*
X0026578Y0101184D01*
X0026591Y0101098D01*
X0026600Y0101011D01*
X0026606Y0100924D01*
X0026608Y0100837D01*
X0026608Y0099837D01*
X0026606Y0099750D01*
X0026600Y0099663D01*
X0026591Y0099576D01*
X0026578Y0099490D01*
X0026561Y0099404D01*
X0026540Y0099319D01*
X0026515Y0099236D01*
X0026487Y0099153D01*
X0026456Y0099072D01*
X0026421Y0098992D01*
X0026382Y0098914D01*
X0026340Y0098837D01*
X0026295Y0098762D01*
X0026246Y0098690D01*
X0026195Y0098619D01*
X0026140Y0098551D01*
X0026083Y0098486D01*
X0026022Y0098423D01*
X0025959Y0098362D01*
X0025894Y0098305D01*
X0025826Y0098250D01*
X0025755Y0098199D01*
X0025683Y0098150D01*
X0025608Y0098105D01*
X0025531Y0098063D01*
X0025453Y0098024D01*
X0025373Y0097989D01*
X0025292Y0097958D01*
X0025209Y0097930D01*
X0025126Y0097905D01*
X0025041Y0097884D01*
X0024955Y0097867D01*
X0024869Y0097854D01*
X0024782Y0097845D01*
X0024695Y0097839D01*
X0024608Y0097837D01*
X0024608Y0107837D02*
X0018608Y0107837D01*
X0018521Y0107839D01*
X0018434Y0107845D01*
X0018347Y0107854D01*
X0018261Y0107867D01*
X0018175Y0107884D01*
X0018090Y0107905D01*
X0018007Y0107930D01*
X0017924Y0107958D01*
X0017843Y0107989D01*
X0017763Y0108024D01*
X0017685Y0108063D01*
X0017608Y0108105D01*
X0017533Y0108150D01*
X0017461Y0108199D01*
X0017390Y0108250D01*
X0017322Y0108305D01*
X0017257Y0108362D01*
X0017194Y0108423D01*
X0017133Y0108486D01*
X0017076Y0108551D01*
X0017021Y0108619D01*
X0016970Y0108690D01*
X0016921Y0108762D01*
X0016876Y0108837D01*
X0016834Y0108914D01*
X0016795Y0108992D01*
X0016760Y0109072D01*
X0016729Y0109153D01*
X0016701Y0109236D01*
X0016676Y0109319D01*
X0016655Y0109404D01*
X0016638Y0109490D01*
X0016625Y0109576D01*
X0016616Y0109663D01*
X0016610Y0109750D01*
X0016608Y0109837D01*
X0016608Y0110837D01*
X0015408Y0112037D02*
X0013006Y0112037D01*
X0011805Y0113238D01*
X0013006Y0114439D01*
X0015408Y0114439D01*
X0015408Y0115720D02*
X0015408Y0118122D01*
X0015408Y0116921D02*
X0011805Y0116921D01*
X0013006Y0115720D01*
X0013606Y0114439D02*
X0013606Y0112037D01*
X0018608Y0112837D02*
X0024608Y0112837D01*
X0024695Y0112835D01*
X0024782Y0112829D01*
X0024869Y0112820D01*
X0024955Y0112807D01*
X0025041Y0112790D01*
X0025126Y0112769D01*
X0025209Y0112744D01*
X0025292Y0112716D01*
X0025373Y0112685D01*
X0025453Y0112650D01*
X0025531Y0112611D01*
X0025608Y0112569D01*
X0025683Y0112524D01*
X0025755Y0112475D01*
X0025826Y0112424D01*
X0025894Y0112369D01*
X0025959Y0112312D01*
X0026022Y0112251D01*
X0026083Y0112188D01*
X0026140Y0112123D01*
X0026195Y0112055D01*
X0026246Y0111984D01*
X0026295Y0111912D01*
X0026340Y0111837D01*
X0026382Y0111760D01*
X0026421Y0111682D01*
X0026456Y0111602D01*
X0026487Y0111521D01*
X0026515Y0111438D01*
X0026540Y0111355D01*
X0026561Y0111270D01*
X0026578Y0111184D01*
X0026591Y0111098D01*
X0026600Y0111011D01*
X0026606Y0110924D01*
X0026608Y0110837D01*
X0026608Y0109837D01*
X0026606Y0109750D01*
X0026600Y0109663D01*
X0026591Y0109576D01*
X0026578Y0109490D01*
X0026561Y0109404D01*
X0026540Y0109319D01*
X0026515Y0109236D01*
X0026487Y0109153D01*
X0026456Y0109072D01*
X0026421Y0108992D01*
X0026382Y0108914D01*
X0026340Y0108837D01*
X0026295Y0108762D01*
X0026246Y0108690D01*
X0026195Y0108619D01*
X0026140Y0108551D01*
X0026083Y0108486D01*
X0026022Y0108423D01*
X0025959Y0108362D01*
X0025894Y0108305D01*
X0025826Y0108250D01*
X0025755Y0108199D01*
X0025683Y0108150D01*
X0025608Y0108105D01*
X0025531Y0108063D01*
X0025453Y0108024D01*
X0025373Y0107989D01*
X0025292Y0107958D01*
X0025209Y0107930D01*
X0025126Y0107905D01*
X0025041Y0107884D01*
X0024955Y0107867D01*
X0024869Y0107854D01*
X0024782Y0107845D01*
X0024695Y0107839D01*
X0024608Y0107837D01*
X0018608Y0112837D02*
X0018521Y0112835D01*
X0018434Y0112829D01*
X0018347Y0112820D01*
X0018261Y0112807D01*
X0018175Y0112790D01*
X0018090Y0112769D01*
X0018007Y0112744D01*
X0017924Y0112716D01*
X0017843Y0112685D01*
X0017763Y0112650D01*
X0017685Y0112611D01*
X0017608Y0112569D01*
X0017533Y0112524D01*
X0017461Y0112475D01*
X0017390Y0112424D01*
X0017322Y0112369D01*
X0017257Y0112312D01*
X0017194Y0112251D01*
X0017133Y0112188D01*
X0017076Y0112123D01*
X0017021Y0112055D01*
X0016970Y0111984D01*
X0016921Y0111912D01*
X0016876Y0111837D01*
X0016834Y0111760D01*
X0016795Y0111682D01*
X0016760Y0111602D01*
X0016729Y0111521D01*
X0016701Y0111438D01*
X0016676Y0111355D01*
X0016655Y0111270D01*
X0016638Y0111184D01*
X0016625Y0111098D01*
X0016616Y0111011D01*
X0016610Y0110924D01*
X0016608Y0110837D01*
X0015408Y0119403D02*
X0014807Y0119403D01*
X0014807Y0120004D01*
X0015408Y0120004D01*
X0015408Y0119403D01*
X0013606Y0119403D02*
X0013606Y0120004D01*
X0013006Y0120004D01*
X0013006Y0119403D01*
X0013606Y0119403D01*
X0011805Y0121245D02*
X0011805Y0123046D01*
X0012405Y0123647D01*
X0014807Y0123647D01*
X0015408Y0123046D01*
X0015408Y0121245D01*
X0011805Y0121245D01*
X0012405Y0124928D02*
X0011805Y0125529D01*
X0011805Y0126730D01*
X0012405Y0127330D01*
X0013006Y0127330D01*
X0015408Y0124928D01*
X0015408Y0127330D01*
D15*
X0024358Y0110337D03*
X0018858Y0100337D03*
X0128858Y0110337D03*
X0134358Y0100337D03*
D16*
X0137908Y0100337D03*
X0125308Y0100337D03*
X0125308Y0110337D03*
X0137908Y0110337D03*
X0027908Y0110337D03*
X0027908Y0100337D03*
X0015308Y0100337D03*
X0015308Y0110337D03*
D17*
X0035108Y0118585D02*
X0035108Y0102089D01*
X0041608Y0099849D02*
X0041608Y0120825D01*
X0037136Y0100837D02*
X0037401Y0100724D01*
X0037669Y0100618D01*
X0037939Y0100519D01*
X0038212Y0100426D01*
X0038487Y0100340D01*
X0038764Y0100261D01*
X0039042Y0100188D01*
X0039323Y0100123D01*
X0039605Y0100064D01*
X0039888Y0100012D01*
X0040173Y0099967D01*
X0040459Y0099930D01*
X0040745Y0099899D01*
X0041032Y0099875D01*
X0041320Y0099858D01*
X0041608Y0099849D01*
X0037136Y0119837D02*
X0037401Y0119950D01*
X0037669Y0120056D01*
X0037939Y0120155D01*
X0038212Y0120248D01*
X0038487Y0120334D01*
X0038764Y0120413D01*
X0039042Y0120486D01*
X0039323Y0120551D01*
X0039605Y0120610D01*
X0039888Y0120662D01*
X0040173Y0120707D01*
X0040459Y0120744D01*
X0040745Y0120775D01*
X0041032Y0120799D01*
X0041320Y0120816D01*
X0041608Y0120825D01*
X0041840Y0120828D01*
X0042071Y0120826D01*
X0042302Y0120818D01*
X0042533Y0120804D01*
X0042763Y0120785D01*
X0042993Y0120760D01*
X0043222Y0120729D01*
X0043451Y0120693D01*
X0043678Y0120652D01*
X0043905Y0120605D01*
X0044130Y0120552D01*
X0044354Y0120494D01*
X0044576Y0120430D01*
X0044797Y0120361D01*
X0045016Y0120287D01*
X0045233Y0120207D01*
X0045448Y0120122D01*
X0045661Y0120032D01*
X0045872Y0119937D01*
X0046080Y0119837D01*
X0037136Y0119839D02*
X0036921Y0119735D01*
X0036708Y0119626D01*
X0036498Y0119512D01*
X0036291Y0119393D01*
X0036086Y0119270D01*
X0035884Y0119142D01*
X0035685Y0119009D01*
X0035490Y0118872D01*
X0035297Y0118731D01*
X0035108Y0118585D01*
X0046080Y0119837D02*
X0046310Y0119725D01*
X0046537Y0119608D01*
X0046761Y0119486D01*
X0046982Y0119358D01*
X0047199Y0119224D01*
X0047414Y0119086D01*
X0047625Y0118942D01*
X0047832Y0118793D01*
X0048036Y0118639D01*
X0048236Y0118481D01*
X0048432Y0118317D01*
X0048624Y0118149D01*
X0048812Y0117976D01*
X0048996Y0117798D01*
X0049175Y0117617D01*
X0049350Y0117430D01*
X0049520Y0117240D01*
X0049685Y0117046D01*
X0049846Y0116847D01*
X0050002Y0116645D01*
X0050153Y0116439D01*
X0050299Y0116229D01*
X0050439Y0116016D01*
X0050575Y0115800D01*
X0050705Y0115580D01*
X0050830Y0115357D01*
X0050949Y0115132D01*
X0051063Y0114903D01*
X0051171Y0114672D01*
X0051274Y0114438D01*
X0051371Y0114202D01*
X0051462Y0113963D01*
X0051547Y0113723D01*
X0051627Y0113480D01*
X0051700Y0113235D01*
X0051768Y0112989D01*
X0051829Y0112741D01*
X0051884Y0112492D01*
X0051934Y0112242D01*
X0051977Y0111990D01*
X0052014Y0111737D01*
X0052045Y0111484D01*
X0052070Y0111230D01*
X0052089Y0110975D01*
X0052101Y0110720D01*
X0052107Y0110465D01*
X0052107Y0110209D01*
X0052101Y0109954D01*
X0052089Y0109699D01*
X0052070Y0109444D01*
X0052045Y0109190D01*
X0052014Y0108937D01*
X0051977Y0108684D01*
X0051934Y0108432D01*
X0051884Y0108182D01*
X0051829Y0107933D01*
X0051768Y0107685D01*
X0051700Y0107439D01*
X0051627Y0107194D01*
X0051547Y0106951D01*
X0051462Y0106711D01*
X0051371Y0106472D01*
X0051274Y0106236D01*
X0051171Y0106002D01*
X0051063Y0105771D01*
X0050949Y0105542D01*
X0050830Y0105317D01*
X0050705Y0105094D01*
X0050575Y0104874D01*
X0050439Y0104658D01*
X0050299Y0104445D01*
X0050153Y0104235D01*
X0050002Y0104029D01*
X0049846Y0103827D01*
X0049685Y0103628D01*
X0049520Y0103434D01*
X0049350Y0103244D01*
X0049175Y0103057D01*
X0048996Y0102876D01*
X0048812Y0102698D01*
X0048624Y0102525D01*
X0048432Y0102357D01*
X0048236Y0102193D01*
X0048036Y0102035D01*
X0047832Y0101881D01*
X0047625Y0101732D01*
X0047414Y0101588D01*
X0047199Y0101450D01*
X0046982Y0101316D01*
X0046761Y0101188D01*
X0046537Y0101066D01*
X0046310Y0100949D01*
X0046080Y0100837D01*
X0053360Y0103837D02*
X0069856Y0103837D01*
X0066608Y0101837D02*
X0066608Y0098837D01*
X0066606Y0098777D01*
X0066601Y0098716D01*
X0066592Y0098657D01*
X0066579Y0098598D01*
X0066563Y0098539D01*
X0066543Y0098482D01*
X0066520Y0098427D01*
X0066493Y0098372D01*
X0066464Y0098320D01*
X0066431Y0098269D01*
X0066395Y0098220D01*
X0066357Y0098174D01*
X0066315Y0098130D01*
X0066271Y0098088D01*
X0066225Y0098050D01*
X0066176Y0098014D01*
X0066125Y0097981D01*
X0066073Y0097952D01*
X0066018Y0097925D01*
X0065963Y0097902D01*
X0065906Y0097882D01*
X0065847Y0097866D01*
X0065788Y0097853D01*
X0065729Y0097844D01*
X0065668Y0097839D01*
X0065608Y0097837D01*
X0057608Y0097837D01*
X0057548Y0097839D01*
X0057487Y0097844D01*
X0057428Y0097853D01*
X0057369Y0097866D01*
X0057310Y0097882D01*
X0057253Y0097902D01*
X0057198Y0097925D01*
X0057143Y0097952D01*
X0057091Y0097981D01*
X0057040Y0098014D01*
X0056991Y0098050D01*
X0056945Y0098088D01*
X0056901Y0098130D01*
X0056859Y0098174D01*
X0056821Y0098220D01*
X0056785Y0098269D01*
X0056752Y0098320D01*
X0056723Y0098372D01*
X0056696Y0098427D01*
X0056673Y0098482D01*
X0056653Y0098539D01*
X0056637Y0098598D01*
X0056624Y0098657D01*
X0056615Y0098716D01*
X0056610Y0098777D01*
X0056608Y0098837D01*
X0056608Y0101837D01*
X0056610Y0101897D01*
X0056615Y0101958D01*
X0056624Y0102017D01*
X0056637Y0102076D01*
X0056653Y0102135D01*
X0056673Y0102192D01*
X0056696Y0102247D01*
X0056723Y0102302D01*
X0056752Y0102354D01*
X0056785Y0102405D01*
X0056821Y0102454D01*
X0056859Y0102500D01*
X0056901Y0102544D01*
X0056945Y0102586D01*
X0056991Y0102624D01*
X0057040Y0102660D01*
X0057091Y0102693D01*
X0057143Y0102722D01*
X0057198Y0102749D01*
X0057253Y0102772D01*
X0057310Y0102792D01*
X0057369Y0102808D01*
X0057428Y0102821D01*
X0057487Y0102830D01*
X0057548Y0102835D01*
X0057608Y0102837D01*
X0065608Y0102837D01*
X0065668Y0102835D01*
X0065729Y0102830D01*
X0065788Y0102821D01*
X0065847Y0102808D01*
X0065906Y0102792D01*
X0065963Y0102772D01*
X0066018Y0102749D01*
X0066073Y0102722D01*
X0066125Y0102693D01*
X0066176Y0102660D01*
X0066225Y0102624D01*
X0066271Y0102586D01*
X0066315Y0102544D01*
X0066357Y0102500D01*
X0066395Y0102454D01*
X0066431Y0102405D01*
X0066464Y0102354D01*
X0066493Y0102302D01*
X0066520Y0102247D01*
X0066543Y0102192D01*
X0066563Y0102135D01*
X0066579Y0102076D01*
X0066592Y0102017D01*
X0066601Y0101958D01*
X0066606Y0101897D01*
X0066608Y0101837D01*
X0052108Y0105865D02*
X0051995Y0106130D01*
X0051889Y0106398D01*
X0051790Y0106668D01*
X0051697Y0106941D01*
X0051611Y0107216D01*
X0051532Y0107493D01*
X0051459Y0107771D01*
X0051394Y0108052D01*
X0051335Y0108334D01*
X0051283Y0108617D01*
X0051238Y0108902D01*
X0051201Y0109188D01*
X0051170Y0109474D01*
X0051146Y0109761D01*
X0051129Y0110049D01*
X0051120Y0110337D01*
X0072096Y0110337D01*
X0081120Y0110337D02*
X0102096Y0110337D01*
X0099856Y0116837D02*
X0083360Y0116837D01*
X0101108Y0114809D02*
X0101221Y0114544D01*
X0101327Y0114276D01*
X0101426Y0114006D01*
X0101519Y0113733D01*
X0101605Y0113458D01*
X0101684Y0113181D01*
X0101757Y0112903D01*
X0101822Y0112622D01*
X0101881Y0112340D01*
X0101933Y0112057D01*
X0101978Y0111772D01*
X0102015Y0111486D01*
X0102046Y0111200D01*
X0102070Y0110913D01*
X0102087Y0110625D01*
X0102096Y0110337D01*
X0082108Y0114809D02*
X0081995Y0114544D01*
X0081889Y0114276D01*
X0081790Y0114006D01*
X0081697Y0113733D01*
X0081611Y0113458D01*
X0081532Y0113181D01*
X0081459Y0112903D01*
X0081394Y0112622D01*
X0081335Y0112340D01*
X0081283Y0112057D01*
X0081238Y0111772D01*
X0081201Y0111486D01*
X0081170Y0111200D01*
X0081146Y0110913D01*
X0081129Y0110625D01*
X0081120Y0110337D01*
X0081117Y0110105D01*
X0081119Y0109874D01*
X0081127Y0109643D01*
X0081141Y0109412D01*
X0081160Y0109182D01*
X0081185Y0108952D01*
X0081216Y0108723D01*
X0081252Y0108494D01*
X0081293Y0108267D01*
X0081340Y0108040D01*
X0081393Y0107815D01*
X0081451Y0107591D01*
X0081515Y0107369D01*
X0081584Y0107148D01*
X0081658Y0106929D01*
X0081738Y0106712D01*
X0081823Y0106497D01*
X0081913Y0106284D01*
X0082008Y0106073D01*
X0082108Y0105865D01*
X0086608Y0101837D02*
X0086608Y0098837D01*
X0086610Y0098777D01*
X0086615Y0098716D01*
X0086624Y0098657D01*
X0086637Y0098598D01*
X0086653Y0098539D01*
X0086673Y0098482D01*
X0086696Y0098427D01*
X0086723Y0098372D01*
X0086752Y0098320D01*
X0086785Y0098269D01*
X0086821Y0098220D01*
X0086859Y0098174D01*
X0086901Y0098130D01*
X0086945Y0098088D01*
X0086991Y0098050D01*
X0087040Y0098014D01*
X0087091Y0097981D01*
X0087143Y0097952D01*
X0087198Y0097925D01*
X0087253Y0097902D01*
X0087310Y0097882D01*
X0087369Y0097866D01*
X0087428Y0097853D01*
X0087487Y0097844D01*
X0087548Y0097839D01*
X0087608Y0097837D01*
X0095608Y0097837D01*
X0095668Y0097839D01*
X0095729Y0097844D01*
X0095788Y0097853D01*
X0095847Y0097866D01*
X0095906Y0097882D01*
X0095963Y0097902D01*
X0096018Y0097925D01*
X0096073Y0097952D01*
X0096125Y0097981D01*
X0096176Y0098014D01*
X0096225Y0098050D01*
X0096271Y0098088D01*
X0096315Y0098130D01*
X0096357Y0098174D01*
X0096395Y0098220D01*
X0096431Y0098269D01*
X0096464Y0098320D01*
X0096493Y0098372D01*
X0096520Y0098427D01*
X0096543Y0098482D01*
X0096563Y0098539D01*
X0096579Y0098598D01*
X0096592Y0098657D01*
X0096601Y0098716D01*
X0096606Y0098777D01*
X0096608Y0098837D01*
X0096608Y0101837D01*
X0096606Y0101897D01*
X0096601Y0101958D01*
X0096592Y0102017D01*
X0096579Y0102076D01*
X0096563Y0102135D01*
X0096543Y0102192D01*
X0096520Y0102247D01*
X0096493Y0102302D01*
X0096464Y0102354D01*
X0096431Y0102405D01*
X0096395Y0102454D01*
X0096357Y0102500D01*
X0096315Y0102544D01*
X0096271Y0102586D01*
X0096225Y0102624D01*
X0096176Y0102660D01*
X0096125Y0102693D01*
X0096073Y0102722D01*
X0096018Y0102749D01*
X0095963Y0102772D01*
X0095906Y0102792D01*
X0095847Y0102808D01*
X0095788Y0102821D01*
X0095729Y0102830D01*
X0095668Y0102835D01*
X0095608Y0102837D01*
X0087608Y0102837D01*
X0087548Y0102835D01*
X0087487Y0102830D01*
X0087428Y0102821D01*
X0087369Y0102808D01*
X0087310Y0102792D01*
X0087253Y0102772D01*
X0087198Y0102749D01*
X0087143Y0102722D01*
X0087091Y0102693D01*
X0087040Y0102660D01*
X0086991Y0102624D01*
X0086945Y0102586D01*
X0086901Y0102544D01*
X0086859Y0102500D01*
X0086821Y0102454D01*
X0086785Y0102405D01*
X0086752Y0102354D01*
X0086723Y0102302D01*
X0086696Y0102247D01*
X0086673Y0102192D01*
X0086653Y0102135D01*
X0086637Y0102076D01*
X0086624Y0102017D01*
X0086615Y0101958D01*
X0086610Y0101897D01*
X0086608Y0101837D01*
X0101108Y0105865D02*
X0101208Y0106073D01*
X0101303Y0106284D01*
X0101393Y0106497D01*
X0101478Y0106712D01*
X0101558Y0106929D01*
X0101632Y0107148D01*
X0101701Y0107369D01*
X0101765Y0107591D01*
X0101823Y0107815D01*
X0101876Y0108040D01*
X0101923Y0108267D01*
X0101964Y0108494D01*
X0102000Y0108723D01*
X0102031Y0108952D01*
X0102056Y0109182D01*
X0102075Y0109412D01*
X0102089Y0109643D01*
X0102097Y0109874D01*
X0102099Y0110105D01*
X0102096Y0110337D01*
X0105108Y0118585D02*
X0105108Y0102089D01*
X0111608Y0099849D02*
X0111608Y0120825D01*
X0107136Y0100837D02*
X0107401Y0100724D01*
X0107669Y0100618D01*
X0107939Y0100519D01*
X0108212Y0100426D01*
X0108487Y0100340D01*
X0108764Y0100261D01*
X0109042Y0100188D01*
X0109323Y0100123D01*
X0109605Y0100064D01*
X0109888Y0100012D01*
X0110173Y0099967D01*
X0110459Y0099930D01*
X0110745Y0099899D01*
X0111032Y0099875D01*
X0111320Y0099858D01*
X0111608Y0099849D01*
X0113360Y0096837D02*
X0129856Y0096837D01*
X0132096Y0090337D02*
X0111120Y0090337D01*
X0131108Y0094809D02*
X0131221Y0094544D01*
X0131327Y0094276D01*
X0131426Y0094006D01*
X0131519Y0093733D01*
X0131605Y0093458D01*
X0131684Y0093181D01*
X0131757Y0092903D01*
X0131822Y0092622D01*
X0131881Y0092340D01*
X0131933Y0092057D01*
X0131978Y0091772D01*
X0132015Y0091486D01*
X0132046Y0091200D01*
X0132070Y0090913D01*
X0132087Y0090625D01*
X0132096Y0090337D01*
X0112108Y0094809D02*
X0111995Y0094544D01*
X0111889Y0094276D01*
X0111790Y0094006D01*
X0111697Y0093733D01*
X0111611Y0093458D01*
X0111532Y0093181D01*
X0111459Y0092903D01*
X0111394Y0092622D01*
X0111335Y0092340D01*
X0111283Y0092057D01*
X0111238Y0091772D01*
X0111201Y0091486D01*
X0111170Y0091200D01*
X0111146Y0090913D01*
X0111129Y0090625D01*
X0111120Y0090337D01*
X0111117Y0090105D01*
X0111119Y0089874D01*
X0111127Y0089643D01*
X0111141Y0089412D01*
X0111160Y0089182D01*
X0111185Y0088952D01*
X0111216Y0088723D01*
X0111252Y0088494D01*
X0111293Y0088267D01*
X0111340Y0088040D01*
X0111393Y0087815D01*
X0111451Y0087591D01*
X0111515Y0087369D01*
X0111584Y0087148D01*
X0111658Y0086929D01*
X0111738Y0086712D01*
X0111823Y0086497D01*
X0111913Y0086284D01*
X0112008Y0086073D01*
X0112108Y0085865D01*
X0112062Y0094715D02*
X0112169Y0094940D01*
X0112281Y0095163D01*
X0112398Y0095383D01*
X0112520Y0095600D01*
X0112648Y0095815D01*
X0112781Y0096026D01*
X0112918Y0096234D01*
X0113061Y0096438D01*
X0113208Y0096640D01*
X0113360Y0096837D01*
X0112108Y0085865D02*
X0112220Y0085635D01*
X0112337Y0085408D01*
X0112459Y0085184D01*
X0112587Y0084963D01*
X0112721Y0084746D01*
X0112859Y0084531D01*
X0113003Y0084320D01*
X0113152Y0084113D01*
X0113306Y0083909D01*
X0113464Y0083709D01*
X0113628Y0083513D01*
X0113796Y0083321D01*
X0113969Y0083133D01*
X0114147Y0082949D01*
X0114328Y0082770D01*
X0114515Y0082595D01*
X0114705Y0082425D01*
X0114899Y0082260D01*
X0115098Y0082099D01*
X0115300Y0081943D01*
X0115506Y0081792D01*
X0115716Y0081646D01*
X0115929Y0081506D01*
X0116145Y0081370D01*
X0116365Y0081240D01*
X0116588Y0081115D01*
X0116813Y0080996D01*
X0117042Y0080882D01*
X0117273Y0080774D01*
X0117507Y0080671D01*
X0117743Y0080574D01*
X0117982Y0080483D01*
X0118222Y0080398D01*
X0118465Y0080318D01*
X0118710Y0080245D01*
X0118956Y0080177D01*
X0119204Y0080116D01*
X0119453Y0080061D01*
X0119703Y0080011D01*
X0119955Y0079968D01*
X0120208Y0079931D01*
X0120461Y0079900D01*
X0120715Y0079875D01*
X0120970Y0079856D01*
X0121225Y0079844D01*
X0121480Y0079838D01*
X0121736Y0079838D01*
X0121991Y0079844D01*
X0122246Y0079856D01*
X0122501Y0079875D01*
X0122755Y0079900D01*
X0123008Y0079931D01*
X0123261Y0079968D01*
X0123513Y0080011D01*
X0123763Y0080061D01*
X0124012Y0080116D01*
X0124260Y0080177D01*
X0124506Y0080245D01*
X0124751Y0080318D01*
X0124994Y0080398D01*
X0125234Y0080483D01*
X0125473Y0080574D01*
X0125709Y0080671D01*
X0125943Y0080774D01*
X0126174Y0080882D01*
X0126403Y0080996D01*
X0126628Y0081115D01*
X0126851Y0081240D01*
X0127071Y0081370D01*
X0127287Y0081506D01*
X0127500Y0081646D01*
X0127710Y0081792D01*
X0127916Y0081943D01*
X0128118Y0082099D01*
X0128317Y0082260D01*
X0128511Y0082425D01*
X0128701Y0082595D01*
X0128888Y0082770D01*
X0129069Y0082949D01*
X0129247Y0083133D01*
X0129420Y0083321D01*
X0129588Y0083513D01*
X0129752Y0083709D01*
X0129910Y0083909D01*
X0130064Y0084113D01*
X0130213Y0084320D01*
X0130357Y0084531D01*
X0130495Y0084746D01*
X0130629Y0084963D01*
X0130757Y0085184D01*
X0130879Y0085408D01*
X0130996Y0085635D01*
X0131108Y0085865D01*
X0131208Y0086073D01*
X0131303Y0086284D01*
X0131393Y0086497D01*
X0131478Y0086712D01*
X0131558Y0086929D01*
X0131632Y0087148D01*
X0131701Y0087369D01*
X0131765Y0087591D01*
X0131823Y0087815D01*
X0131876Y0088040D01*
X0131923Y0088267D01*
X0131964Y0088494D01*
X0132000Y0088723D01*
X0132031Y0088952D01*
X0132056Y0089182D01*
X0132075Y0089412D01*
X0132089Y0089643D01*
X0132097Y0089874D01*
X0132099Y0090105D01*
X0132096Y0090337D01*
X0131110Y0094809D02*
X0131006Y0095024D01*
X0130897Y0095237D01*
X0130783Y0095447D01*
X0130664Y0095654D01*
X0130541Y0095859D01*
X0130413Y0096061D01*
X0130280Y0096260D01*
X0130143Y0096455D01*
X0130002Y0096648D01*
X0129856Y0096837D01*
X0111608Y0120825D02*
X0111320Y0120816D01*
X0111032Y0120799D01*
X0110745Y0120775D01*
X0110459Y0120744D01*
X0110173Y0120707D01*
X0109888Y0120662D01*
X0109605Y0120610D01*
X0109323Y0120551D01*
X0109042Y0120486D01*
X0108764Y0120413D01*
X0108487Y0120334D01*
X0108212Y0120248D01*
X0107939Y0120155D01*
X0107669Y0120056D01*
X0107401Y0119950D01*
X0107136Y0119837D01*
X0111608Y0120825D02*
X0111840Y0120828D01*
X0112071Y0120826D01*
X0112302Y0120818D01*
X0112533Y0120804D01*
X0112763Y0120785D01*
X0112993Y0120760D01*
X0113222Y0120729D01*
X0113451Y0120693D01*
X0113678Y0120652D01*
X0113905Y0120605D01*
X0114130Y0120552D01*
X0114354Y0120494D01*
X0114576Y0120430D01*
X0114797Y0120361D01*
X0115016Y0120287D01*
X0115233Y0120207D01*
X0115448Y0120122D01*
X0115661Y0120032D01*
X0115872Y0119937D01*
X0116080Y0119837D01*
X0107136Y0119839D02*
X0106921Y0119735D01*
X0106708Y0119626D01*
X0106498Y0119512D01*
X0106291Y0119393D01*
X0106086Y0119270D01*
X0105884Y0119142D01*
X0105685Y0119009D01*
X0105490Y0118872D01*
X0105297Y0118731D01*
X0105108Y0118585D01*
X0116080Y0119837D02*
X0116310Y0119725D01*
X0116537Y0119608D01*
X0116761Y0119486D01*
X0116982Y0119358D01*
X0117199Y0119224D01*
X0117414Y0119086D01*
X0117625Y0118942D01*
X0117832Y0118793D01*
X0118036Y0118639D01*
X0118236Y0118481D01*
X0118432Y0118317D01*
X0118624Y0118149D01*
X0118812Y0117976D01*
X0118996Y0117798D01*
X0119175Y0117617D01*
X0119350Y0117430D01*
X0119520Y0117240D01*
X0119685Y0117046D01*
X0119846Y0116847D01*
X0120002Y0116645D01*
X0120153Y0116439D01*
X0120299Y0116229D01*
X0120439Y0116016D01*
X0120575Y0115800D01*
X0120705Y0115580D01*
X0120830Y0115357D01*
X0120949Y0115132D01*
X0121063Y0114903D01*
X0121171Y0114672D01*
X0121274Y0114438D01*
X0121371Y0114202D01*
X0121462Y0113963D01*
X0121547Y0113723D01*
X0121627Y0113480D01*
X0121700Y0113235D01*
X0121768Y0112989D01*
X0121829Y0112741D01*
X0121884Y0112492D01*
X0121934Y0112242D01*
X0121977Y0111990D01*
X0122014Y0111737D01*
X0122045Y0111484D01*
X0122070Y0111230D01*
X0122089Y0110975D01*
X0122101Y0110720D01*
X0122107Y0110465D01*
X0122107Y0110209D01*
X0122101Y0109954D01*
X0122089Y0109699D01*
X0122070Y0109444D01*
X0122045Y0109190D01*
X0122014Y0108937D01*
X0121977Y0108684D01*
X0121934Y0108432D01*
X0121884Y0108182D01*
X0121829Y0107933D01*
X0121768Y0107685D01*
X0121700Y0107439D01*
X0121627Y0107194D01*
X0121547Y0106951D01*
X0121462Y0106711D01*
X0121371Y0106472D01*
X0121274Y0106236D01*
X0121171Y0106002D01*
X0121063Y0105771D01*
X0120949Y0105542D01*
X0120830Y0105317D01*
X0120705Y0105094D01*
X0120575Y0104874D01*
X0120439Y0104658D01*
X0120299Y0104445D01*
X0120153Y0104235D01*
X0120002Y0104029D01*
X0119846Y0103827D01*
X0119685Y0103628D01*
X0119520Y0103434D01*
X0119350Y0103244D01*
X0119175Y0103057D01*
X0118996Y0102876D01*
X0118812Y0102698D01*
X0118624Y0102525D01*
X0118432Y0102357D01*
X0118236Y0102193D01*
X0118036Y0102035D01*
X0117832Y0101881D01*
X0117625Y0101732D01*
X0117414Y0101588D01*
X0117199Y0101450D01*
X0116982Y0101316D01*
X0116761Y0101188D01*
X0116537Y0101066D01*
X0116310Y0100949D01*
X0116080Y0100837D01*
X0115872Y0100737D01*
X0115661Y0100642D01*
X0115448Y0100552D01*
X0115233Y0100467D01*
X0115016Y0100387D01*
X0114797Y0100313D01*
X0114576Y0100244D01*
X0114354Y0100180D01*
X0114130Y0100122D01*
X0113905Y0100069D01*
X0113678Y0100022D01*
X0113451Y0099981D01*
X0113222Y0099945D01*
X0112993Y0099914D01*
X0112763Y0099889D01*
X0112533Y0099870D01*
X0112302Y0099856D01*
X0112071Y0099848D01*
X0111840Y0099846D01*
X0111608Y0099849D01*
X0107230Y0100791D02*
X0107005Y0100898D01*
X0106782Y0101010D01*
X0106562Y0101127D01*
X0106345Y0101249D01*
X0106130Y0101377D01*
X0105919Y0101510D01*
X0105711Y0101647D01*
X0105507Y0101790D01*
X0105305Y0101937D01*
X0105108Y0102089D01*
X0101110Y0114809D02*
X0101006Y0115024D01*
X0100897Y0115237D01*
X0100783Y0115447D01*
X0100664Y0115654D01*
X0100541Y0115859D01*
X0100413Y0116061D01*
X0100280Y0116260D01*
X0100143Y0116455D01*
X0100002Y0116648D01*
X0099856Y0116837D01*
X0101108Y0105865D02*
X0100996Y0105635D01*
X0100879Y0105408D01*
X0100757Y0105184D01*
X0100629Y0104963D01*
X0100495Y0104746D01*
X0100357Y0104531D01*
X0100213Y0104320D01*
X0100064Y0104113D01*
X0099910Y0103909D01*
X0099752Y0103709D01*
X0099588Y0103513D01*
X0099420Y0103321D01*
X0099247Y0103133D01*
X0099069Y0102949D01*
X0098888Y0102770D01*
X0098701Y0102595D01*
X0098511Y0102425D01*
X0098317Y0102260D01*
X0098118Y0102099D01*
X0097916Y0101943D01*
X0097710Y0101792D01*
X0097500Y0101646D01*
X0097287Y0101506D01*
X0097071Y0101370D01*
X0096851Y0101240D01*
X0096628Y0101115D01*
X0096403Y0100996D01*
X0096174Y0100882D01*
X0095943Y0100774D01*
X0095709Y0100671D01*
X0095473Y0100574D01*
X0095234Y0100483D01*
X0094994Y0100398D01*
X0094751Y0100318D01*
X0094506Y0100245D01*
X0094260Y0100177D01*
X0094012Y0100116D01*
X0093763Y0100061D01*
X0093513Y0100011D01*
X0093261Y0099968D01*
X0093008Y0099931D01*
X0092755Y0099900D01*
X0092501Y0099875D01*
X0092246Y0099856D01*
X0091991Y0099844D01*
X0091736Y0099838D01*
X0091480Y0099838D01*
X0091225Y0099844D01*
X0090970Y0099856D01*
X0090715Y0099875D01*
X0090461Y0099900D01*
X0090208Y0099931D01*
X0089955Y0099968D01*
X0089703Y0100011D01*
X0089453Y0100061D01*
X0089204Y0100116D01*
X0088956Y0100177D01*
X0088710Y0100245D01*
X0088465Y0100318D01*
X0088222Y0100398D01*
X0087982Y0100483D01*
X0087743Y0100574D01*
X0087507Y0100671D01*
X0087273Y0100774D01*
X0087042Y0100882D01*
X0086813Y0100996D01*
X0086588Y0101115D01*
X0086365Y0101240D01*
X0086145Y0101370D01*
X0085929Y0101506D01*
X0085716Y0101646D01*
X0085506Y0101792D01*
X0085300Y0101943D01*
X0085098Y0102099D01*
X0084899Y0102260D01*
X0084705Y0102425D01*
X0084515Y0102595D01*
X0084328Y0102770D01*
X0084147Y0102949D01*
X0083969Y0103133D01*
X0083796Y0103321D01*
X0083628Y0103513D01*
X0083464Y0103709D01*
X0083306Y0103909D01*
X0083152Y0104113D01*
X0083003Y0104320D01*
X0082859Y0104531D01*
X0082721Y0104746D01*
X0082587Y0104963D01*
X0082459Y0105184D01*
X0082337Y0105408D01*
X0082220Y0105635D01*
X0082108Y0105865D01*
X0082062Y0114715D02*
X0082169Y0114940D01*
X0082281Y0115163D01*
X0082398Y0115383D01*
X0082520Y0115600D01*
X0082648Y0115815D01*
X0082781Y0116026D01*
X0082918Y0116234D01*
X0083061Y0116438D01*
X0083208Y0116640D01*
X0083360Y0116837D01*
X0071108Y0114809D02*
X0071208Y0114601D01*
X0071303Y0114390D01*
X0071393Y0114177D01*
X0071478Y0113962D01*
X0071558Y0113745D01*
X0071632Y0113526D01*
X0071701Y0113305D01*
X0071765Y0113083D01*
X0071823Y0112859D01*
X0071876Y0112634D01*
X0071923Y0112407D01*
X0071964Y0112180D01*
X0072000Y0111951D01*
X0072031Y0111722D01*
X0072056Y0111492D01*
X0072075Y0111262D01*
X0072089Y0111031D01*
X0072097Y0110800D01*
X0072099Y0110569D01*
X0072096Y0110337D01*
X0071154Y0105959D02*
X0071047Y0105734D01*
X0070935Y0105511D01*
X0070818Y0105291D01*
X0070696Y0105074D01*
X0070568Y0104859D01*
X0070435Y0104648D01*
X0070298Y0104440D01*
X0070155Y0104236D01*
X0070008Y0104034D01*
X0069856Y0103837D01*
X0071108Y0114809D02*
X0070996Y0115039D01*
X0070879Y0115266D01*
X0070757Y0115490D01*
X0070629Y0115711D01*
X0070495Y0115928D01*
X0070357Y0116143D01*
X0070213Y0116354D01*
X0070064Y0116561D01*
X0069910Y0116765D01*
X0069752Y0116965D01*
X0069588Y0117161D01*
X0069420Y0117353D01*
X0069247Y0117541D01*
X0069069Y0117725D01*
X0068888Y0117904D01*
X0068701Y0118079D01*
X0068511Y0118249D01*
X0068317Y0118414D01*
X0068118Y0118575D01*
X0067916Y0118731D01*
X0067710Y0118882D01*
X0067500Y0119028D01*
X0067287Y0119168D01*
X0067071Y0119304D01*
X0066851Y0119434D01*
X0066628Y0119559D01*
X0066403Y0119678D01*
X0066174Y0119792D01*
X0065943Y0119900D01*
X0065709Y0120003D01*
X0065473Y0120100D01*
X0065234Y0120191D01*
X0064994Y0120276D01*
X0064751Y0120356D01*
X0064506Y0120429D01*
X0064260Y0120497D01*
X0064012Y0120558D01*
X0063763Y0120613D01*
X0063513Y0120663D01*
X0063261Y0120706D01*
X0063008Y0120743D01*
X0062755Y0120774D01*
X0062501Y0120799D01*
X0062246Y0120818D01*
X0061991Y0120830D01*
X0061736Y0120836D01*
X0061480Y0120836D01*
X0061225Y0120830D01*
X0060970Y0120818D01*
X0060715Y0120799D01*
X0060461Y0120774D01*
X0060208Y0120743D01*
X0059955Y0120706D01*
X0059703Y0120663D01*
X0059453Y0120613D01*
X0059204Y0120558D01*
X0058956Y0120497D01*
X0058710Y0120429D01*
X0058465Y0120356D01*
X0058222Y0120276D01*
X0057982Y0120191D01*
X0057743Y0120100D01*
X0057507Y0120003D01*
X0057273Y0119900D01*
X0057042Y0119792D01*
X0056813Y0119678D01*
X0056588Y0119559D01*
X0056365Y0119434D01*
X0056145Y0119304D01*
X0055929Y0119168D01*
X0055716Y0119028D01*
X0055506Y0118882D01*
X0055300Y0118731D01*
X0055098Y0118575D01*
X0054899Y0118414D01*
X0054705Y0118249D01*
X0054515Y0118079D01*
X0054328Y0117904D01*
X0054147Y0117725D01*
X0053969Y0117541D01*
X0053796Y0117353D01*
X0053628Y0117161D01*
X0053464Y0116965D01*
X0053306Y0116765D01*
X0053152Y0116561D01*
X0053003Y0116354D01*
X0052859Y0116143D01*
X0052721Y0115928D01*
X0052587Y0115711D01*
X0052459Y0115490D01*
X0052337Y0115266D01*
X0052220Y0115039D01*
X0052108Y0114809D01*
X0072096Y0110337D02*
X0072087Y0110049D01*
X0072070Y0109761D01*
X0072046Y0109474D01*
X0072015Y0109188D01*
X0071978Y0108902D01*
X0071933Y0108617D01*
X0071881Y0108334D01*
X0071822Y0108052D01*
X0071757Y0107771D01*
X0071684Y0107493D01*
X0071605Y0107216D01*
X0071519Y0106941D01*
X0071426Y0106668D01*
X0071327Y0106398D01*
X0071221Y0106130D01*
X0071108Y0105865D01*
X0053360Y0103837D02*
X0053214Y0104026D01*
X0053073Y0104219D01*
X0052936Y0104414D01*
X0052803Y0104613D01*
X0052675Y0104815D01*
X0052552Y0105020D01*
X0052433Y0105227D01*
X0052319Y0105437D01*
X0052210Y0105650D01*
X0052106Y0105865D01*
X0051120Y0110337D02*
X0051117Y0110569D01*
X0051119Y0110800D01*
X0051127Y0111031D01*
X0051141Y0111262D01*
X0051160Y0111492D01*
X0051185Y0111722D01*
X0051216Y0111951D01*
X0051252Y0112180D01*
X0051293Y0112407D01*
X0051340Y0112634D01*
X0051393Y0112859D01*
X0051451Y0113083D01*
X0051515Y0113305D01*
X0051584Y0113526D01*
X0051658Y0113745D01*
X0051738Y0113962D01*
X0051823Y0114177D01*
X0051913Y0114390D01*
X0052008Y0114601D01*
X0052108Y0114809D01*
X0037230Y0100791D02*
X0037005Y0100898D01*
X0036782Y0101010D01*
X0036562Y0101127D01*
X0036345Y0101249D01*
X0036130Y0101377D01*
X0035919Y0101510D01*
X0035711Y0101647D01*
X0035507Y0101790D01*
X0035305Y0101937D01*
X0035108Y0102089D01*
X0041608Y0099849D02*
X0041840Y0099846D01*
X0042071Y0099848D01*
X0042302Y0099856D01*
X0042533Y0099870D01*
X0042763Y0099889D01*
X0042993Y0099914D01*
X0043222Y0099945D01*
X0043451Y0099981D01*
X0043678Y0100022D01*
X0043905Y0100069D01*
X0044130Y0100122D01*
X0044354Y0100180D01*
X0044576Y0100244D01*
X0044797Y0100313D01*
X0045016Y0100387D01*
X0045233Y0100467D01*
X0045448Y0100552D01*
X0045661Y0100642D01*
X0045872Y0100737D01*
X0046080Y0100837D01*
X0032096Y0090337D02*
X0011120Y0090337D01*
X0013360Y0083837D02*
X0029856Y0083837D01*
X0012108Y0085865D02*
X0011995Y0086130D01*
X0011889Y0086398D01*
X0011790Y0086668D01*
X0011697Y0086941D01*
X0011611Y0087216D01*
X0011532Y0087493D01*
X0011459Y0087771D01*
X0011394Y0088052D01*
X0011335Y0088334D01*
X0011283Y0088617D01*
X0011238Y0088902D01*
X0011201Y0089188D01*
X0011170Y0089474D01*
X0011146Y0089761D01*
X0011129Y0090049D01*
X0011120Y0090337D01*
X0031108Y0085865D02*
X0031221Y0086130D01*
X0031327Y0086398D01*
X0031426Y0086668D01*
X0031519Y0086941D01*
X0031605Y0087216D01*
X0031684Y0087493D01*
X0031757Y0087771D01*
X0031822Y0088052D01*
X0031881Y0088334D01*
X0031933Y0088617D01*
X0031978Y0088902D01*
X0032015Y0089188D01*
X0032046Y0089474D01*
X0032070Y0089761D01*
X0032087Y0090049D01*
X0032096Y0090337D01*
X0032099Y0090569D01*
X0032097Y0090800D01*
X0032089Y0091031D01*
X0032075Y0091262D01*
X0032056Y0091492D01*
X0032031Y0091722D01*
X0032000Y0091951D01*
X0031964Y0092180D01*
X0031923Y0092407D01*
X0031876Y0092634D01*
X0031823Y0092859D01*
X0031765Y0093083D01*
X0031701Y0093305D01*
X0031632Y0093526D01*
X0031558Y0093745D01*
X0031478Y0093962D01*
X0031393Y0094177D01*
X0031303Y0094390D01*
X0031208Y0094601D01*
X0031108Y0094809D01*
X0031154Y0085959D02*
X0031047Y0085734D01*
X0030935Y0085511D01*
X0030818Y0085291D01*
X0030696Y0085074D01*
X0030568Y0084859D01*
X0030435Y0084648D01*
X0030298Y0084440D01*
X0030155Y0084236D01*
X0030008Y0084034D01*
X0029856Y0083837D01*
X0031108Y0094809D02*
X0030996Y0095039D01*
X0030879Y0095266D01*
X0030757Y0095490D01*
X0030629Y0095711D01*
X0030495Y0095928D01*
X0030357Y0096143D01*
X0030213Y0096354D01*
X0030064Y0096561D01*
X0029910Y0096765D01*
X0029752Y0096965D01*
X0029588Y0097161D01*
X0029420Y0097353D01*
X0029247Y0097541D01*
X0029069Y0097725D01*
X0028888Y0097904D01*
X0028701Y0098079D01*
X0028511Y0098249D01*
X0028317Y0098414D01*
X0028118Y0098575D01*
X0027916Y0098731D01*
X0027710Y0098882D01*
X0027500Y0099028D01*
X0027287Y0099168D01*
X0027071Y0099304D01*
X0026851Y0099434D01*
X0026628Y0099559D01*
X0026403Y0099678D01*
X0026174Y0099792D01*
X0025943Y0099900D01*
X0025709Y0100003D01*
X0025473Y0100100D01*
X0025234Y0100191D01*
X0024994Y0100276D01*
X0024751Y0100356D01*
X0024506Y0100429D01*
X0024260Y0100497D01*
X0024012Y0100558D01*
X0023763Y0100613D01*
X0023513Y0100663D01*
X0023261Y0100706D01*
X0023008Y0100743D01*
X0022755Y0100774D01*
X0022501Y0100799D01*
X0022246Y0100818D01*
X0021991Y0100830D01*
X0021736Y0100836D01*
X0021480Y0100836D01*
X0021225Y0100830D01*
X0020970Y0100818D01*
X0020715Y0100799D01*
X0020461Y0100774D01*
X0020208Y0100743D01*
X0019955Y0100706D01*
X0019703Y0100663D01*
X0019453Y0100613D01*
X0019204Y0100558D01*
X0018956Y0100497D01*
X0018710Y0100429D01*
X0018465Y0100356D01*
X0018222Y0100276D01*
X0017982Y0100191D01*
X0017743Y0100100D01*
X0017507Y0100003D01*
X0017273Y0099900D01*
X0017042Y0099792D01*
X0016813Y0099678D01*
X0016588Y0099559D01*
X0016365Y0099434D01*
X0016145Y0099304D01*
X0015929Y0099168D01*
X0015716Y0099028D01*
X0015506Y0098882D01*
X0015300Y0098731D01*
X0015098Y0098575D01*
X0014899Y0098414D01*
X0014705Y0098249D01*
X0014515Y0098079D01*
X0014328Y0097904D01*
X0014147Y0097725D01*
X0013969Y0097541D01*
X0013796Y0097353D01*
X0013628Y0097161D01*
X0013464Y0096965D01*
X0013306Y0096765D01*
X0013152Y0096561D01*
X0013003Y0096354D01*
X0012859Y0096143D01*
X0012721Y0095928D01*
X0012587Y0095711D01*
X0012459Y0095490D01*
X0012337Y0095266D01*
X0012220Y0095039D01*
X0012108Y0094809D01*
X0012008Y0094601D01*
X0011913Y0094390D01*
X0011823Y0094177D01*
X0011738Y0093962D01*
X0011658Y0093745D01*
X0011584Y0093526D01*
X0011515Y0093305D01*
X0011451Y0093083D01*
X0011393Y0092859D01*
X0011340Y0092634D01*
X0011293Y0092407D01*
X0011252Y0092180D01*
X0011216Y0091951D01*
X0011185Y0091722D01*
X0011160Y0091492D01*
X0011141Y0091262D01*
X0011127Y0091031D01*
X0011119Y0090800D01*
X0011117Y0090569D01*
X0011120Y0090337D01*
X0012106Y0085865D02*
X0012210Y0085650D01*
X0012319Y0085437D01*
X0012433Y0085227D01*
X0012552Y0085020D01*
X0012675Y0084815D01*
X0012803Y0084613D01*
X0012936Y0084414D01*
X0013073Y0084219D01*
X0013214Y0084026D01*
X0013360Y0083837D01*
X0020108Y0075337D02*
X0023108Y0075337D01*
X0023168Y0075335D01*
X0023229Y0075330D01*
X0023288Y0075321D01*
X0023347Y0075308D01*
X0023406Y0075292D01*
X0023463Y0075272D01*
X0023518Y0075249D01*
X0023573Y0075222D01*
X0023625Y0075193D01*
X0023676Y0075160D01*
X0023725Y0075124D01*
X0023771Y0075086D01*
X0023815Y0075044D01*
X0023857Y0075000D01*
X0023895Y0074954D01*
X0023931Y0074905D01*
X0023964Y0074854D01*
X0023993Y0074802D01*
X0024020Y0074747D01*
X0024043Y0074692D01*
X0024063Y0074635D01*
X0024079Y0074576D01*
X0024092Y0074517D01*
X0024101Y0074458D01*
X0024106Y0074397D01*
X0024108Y0074337D01*
X0024108Y0066337D01*
X0024106Y0066277D01*
X0024101Y0066216D01*
X0024092Y0066157D01*
X0024079Y0066098D01*
X0024063Y0066039D01*
X0024043Y0065982D01*
X0024020Y0065927D01*
X0023993Y0065872D01*
X0023964Y0065820D01*
X0023931Y0065769D01*
X0023895Y0065720D01*
X0023857Y0065674D01*
X0023815Y0065630D01*
X0023771Y0065588D01*
X0023725Y0065550D01*
X0023676Y0065514D01*
X0023625Y0065481D01*
X0023573Y0065452D01*
X0023518Y0065425D01*
X0023463Y0065402D01*
X0023406Y0065382D01*
X0023347Y0065366D01*
X0023288Y0065353D01*
X0023229Y0065344D01*
X0023168Y0065339D01*
X0023108Y0065337D01*
X0020108Y0065337D01*
X0020048Y0065339D01*
X0019987Y0065344D01*
X0019928Y0065353D01*
X0019869Y0065366D01*
X0019810Y0065382D01*
X0019753Y0065402D01*
X0019698Y0065425D01*
X0019643Y0065452D01*
X0019591Y0065481D01*
X0019540Y0065514D01*
X0019491Y0065550D01*
X0019445Y0065588D01*
X0019401Y0065630D01*
X0019359Y0065674D01*
X0019321Y0065720D01*
X0019285Y0065769D01*
X0019252Y0065820D01*
X0019223Y0065872D01*
X0019196Y0065927D01*
X0019173Y0065982D01*
X0019153Y0066039D01*
X0019137Y0066098D01*
X0019124Y0066157D01*
X0019115Y0066216D01*
X0019110Y0066277D01*
X0019108Y0066337D01*
X0019108Y0074337D01*
X0019110Y0074397D01*
X0019115Y0074458D01*
X0019124Y0074517D01*
X0019137Y0074576D01*
X0019153Y0074635D01*
X0019173Y0074692D01*
X0019196Y0074747D01*
X0019223Y0074802D01*
X0019252Y0074854D01*
X0019285Y0074905D01*
X0019321Y0074954D01*
X0019359Y0075000D01*
X0019401Y0075044D01*
X0019445Y0075086D01*
X0019491Y0075124D01*
X0019540Y0075160D01*
X0019591Y0075193D01*
X0019643Y0075222D01*
X0019698Y0075249D01*
X0019753Y0075272D01*
X0019810Y0075292D01*
X0019869Y0075308D01*
X0019928Y0075321D01*
X0019987Y0075330D01*
X0020048Y0075335D01*
X0020108Y0075337D01*
X0081608Y0045337D02*
X0081608Y0035337D01*
X0101608Y0035337D01*
X0101608Y0045337D01*
X0081608Y0045337D01*
X0119108Y0066337D02*
X0119108Y0074337D01*
X0119110Y0074397D01*
X0119115Y0074458D01*
X0119124Y0074517D01*
X0119137Y0074576D01*
X0119153Y0074635D01*
X0119173Y0074692D01*
X0119196Y0074747D01*
X0119223Y0074802D01*
X0119252Y0074854D01*
X0119285Y0074905D01*
X0119321Y0074954D01*
X0119359Y0075000D01*
X0119401Y0075044D01*
X0119445Y0075086D01*
X0119491Y0075124D01*
X0119540Y0075160D01*
X0119591Y0075193D01*
X0119643Y0075222D01*
X0119698Y0075249D01*
X0119753Y0075272D01*
X0119810Y0075292D01*
X0119869Y0075308D01*
X0119928Y0075321D01*
X0119987Y0075330D01*
X0120048Y0075335D01*
X0120108Y0075337D01*
X0123108Y0075337D01*
X0123168Y0075335D01*
X0123229Y0075330D01*
X0123288Y0075321D01*
X0123347Y0075308D01*
X0123406Y0075292D01*
X0123463Y0075272D01*
X0123518Y0075249D01*
X0123573Y0075222D01*
X0123625Y0075193D01*
X0123676Y0075160D01*
X0123725Y0075124D01*
X0123771Y0075086D01*
X0123815Y0075044D01*
X0123857Y0075000D01*
X0123895Y0074954D01*
X0123931Y0074905D01*
X0123964Y0074854D01*
X0123993Y0074802D01*
X0124020Y0074747D01*
X0124043Y0074692D01*
X0124063Y0074635D01*
X0124079Y0074576D01*
X0124092Y0074517D01*
X0124101Y0074458D01*
X0124106Y0074397D01*
X0124108Y0074337D01*
X0124108Y0066337D01*
X0124106Y0066277D01*
X0124101Y0066216D01*
X0124092Y0066157D01*
X0124079Y0066098D01*
X0124063Y0066039D01*
X0124043Y0065982D01*
X0124020Y0065927D01*
X0123993Y0065872D01*
X0123964Y0065820D01*
X0123931Y0065769D01*
X0123895Y0065720D01*
X0123857Y0065674D01*
X0123815Y0065630D01*
X0123771Y0065588D01*
X0123725Y0065550D01*
X0123676Y0065514D01*
X0123625Y0065481D01*
X0123573Y0065452D01*
X0123518Y0065425D01*
X0123463Y0065402D01*
X0123406Y0065382D01*
X0123347Y0065366D01*
X0123288Y0065353D01*
X0123229Y0065344D01*
X0123168Y0065339D01*
X0123108Y0065337D01*
X0120108Y0065337D01*
X0120048Y0065339D01*
X0119987Y0065344D01*
X0119928Y0065353D01*
X0119869Y0065366D01*
X0119810Y0065382D01*
X0119753Y0065402D01*
X0119698Y0065425D01*
X0119643Y0065452D01*
X0119591Y0065481D01*
X0119540Y0065514D01*
X0119491Y0065550D01*
X0119445Y0065588D01*
X0119401Y0065630D01*
X0119359Y0065674D01*
X0119321Y0065720D01*
X0119285Y0065769D01*
X0119252Y0065820D01*
X0119223Y0065872D01*
X0119196Y0065927D01*
X0119173Y0065982D01*
X0119153Y0066039D01*
X0119137Y0066098D01*
X0119124Y0066157D01*
X0119115Y0066216D01*
X0119110Y0066277D01*
X0119108Y0066337D01*
X0129108Y0066337D02*
X0129108Y0074337D01*
X0129110Y0074397D01*
X0129115Y0074458D01*
X0129124Y0074517D01*
X0129137Y0074576D01*
X0129153Y0074635D01*
X0129173Y0074692D01*
X0129196Y0074747D01*
X0129223Y0074802D01*
X0129252Y0074854D01*
X0129285Y0074905D01*
X0129321Y0074954D01*
X0129359Y0075000D01*
X0129401Y0075044D01*
X0129445Y0075086D01*
X0129491Y0075124D01*
X0129540Y0075160D01*
X0129591Y0075193D01*
X0129643Y0075222D01*
X0129698Y0075249D01*
X0129753Y0075272D01*
X0129810Y0075292D01*
X0129869Y0075308D01*
X0129928Y0075321D01*
X0129987Y0075330D01*
X0130048Y0075335D01*
X0130108Y0075337D01*
X0133108Y0075337D01*
X0133168Y0075335D01*
X0133229Y0075330D01*
X0133288Y0075321D01*
X0133347Y0075308D01*
X0133406Y0075292D01*
X0133463Y0075272D01*
X0133518Y0075249D01*
X0133573Y0075222D01*
X0133625Y0075193D01*
X0133676Y0075160D01*
X0133725Y0075124D01*
X0133771Y0075086D01*
X0133815Y0075044D01*
X0133857Y0075000D01*
X0133895Y0074954D01*
X0133931Y0074905D01*
X0133964Y0074854D01*
X0133993Y0074802D01*
X0134020Y0074747D01*
X0134043Y0074692D01*
X0134063Y0074635D01*
X0134079Y0074576D01*
X0134092Y0074517D01*
X0134101Y0074458D01*
X0134106Y0074397D01*
X0134108Y0074337D01*
X0134108Y0066337D01*
X0134106Y0066277D01*
X0134101Y0066216D01*
X0134092Y0066157D01*
X0134079Y0066098D01*
X0134063Y0066039D01*
X0134043Y0065982D01*
X0134020Y0065927D01*
X0133993Y0065872D01*
X0133964Y0065820D01*
X0133931Y0065769D01*
X0133895Y0065720D01*
X0133857Y0065674D01*
X0133815Y0065630D01*
X0133771Y0065588D01*
X0133725Y0065550D01*
X0133676Y0065514D01*
X0133625Y0065481D01*
X0133573Y0065452D01*
X0133518Y0065425D01*
X0133463Y0065402D01*
X0133406Y0065382D01*
X0133347Y0065366D01*
X0133288Y0065353D01*
X0133229Y0065344D01*
X0133168Y0065339D01*
X0133108Y0065337D01*
X0130108Y0065337D01*
X0130048Y0065339D01*
X0129987Y0065344D01*
X0129928Y0065353D01*
X0129869Y0065366D01*
X0129810Y0065382D01*
X0129753Y0065402D01*
X0129698Y0065425D01*
X0129643Y0065452D01*
X0129591Y0065481D01*
X0129540Y0065514D01*
X0129491Y0065550D01*
X0129445Y0065588D01*
X0129401Y0065630D01*
X0129359Y0065674D01*
X0129321Y0065720D01*
X0129285Y0065769D01*
X0129252Y0065820D01*
X0129223Y0065872D01*
X0129196Y0065927D01*
X0129173Y0065982D01*
X0129153Y0066039D01*
X0129137Y0066098D01*
X0129124Y0066157D01*
X0129115Y0066216D01*
X0129110Y0066277D01*
X0129108Y0066337D01*
D18*
X0097358Y0100337D03*
X0085858Y0100337D03*
X0067358Y0100337D03*
X0055858Y0100337D03*
D19*
X0021608Y0076087D03*
X0021608Y0064587D03*
X0121608Y0064587D03*
X0131608Y0064587D03*
X0131608Y0076087D03*
X0121608Y0076087D03*
D20*
X0011608Y0043837D03*
D21*
X0043734Y0033644D02*
X0079482Y0033644D01*
X0079482Y0030770D02*
X0079482Y0056258D01*
X0043734Y0056258D01*
X0043734Y0030770D01*
X0043734Y0022896D01*
X0048065Y0022896D01*
X0048065Y0030376D01*
X0043734Y0030770D02*
X0079482Y0030770D01*
X0067494Y0030376D02*
X0067494Y0016361D01*
X0065525Y0015180D01*
X0057691Y0015180D01*
X0055722Y0016361D01*
X0055722Y0030376D01*
X0056116Y0027522D02*
X0067100Y0029589D01*
X0067100Y0027620D02*
X0056116Y0025554D01*
X0056116Y0023585D02*
X0067100Y0025652D01*
X0067100Y0023683D02*
X0056116Y0021617D01*
X0056116Y0019648D02*
X0067100Y0021715D01*
X0067100Y0019746D02*
X0056116Y0017680D01*
X0057002Y0015869D02*
X0067100Y0017935D01*
X0065525Y0015180D02*
X0065525Y0001400D01*
X0057691Y0001400D01*
X0057691Y0015180D01*
D22*
X0090858Y0050337D03*
X0090858Y0050337D03*
X0112358Y0050337D03*
X0112358Y0050337D03*
M02*
