G75*
%MOIN*%
%OFA0B0*%
%FSLAX25Y25*%
%IPPOS*%
%LPD*%
%AMOC8*
5,1,8,0,0,1.08239X$1,22.5*
%
%ADD10C,0.00600*%
%ADD11C,0.00200*%
%ADD12R,0.06400X0.01000*%
%ADD13R,0.02000X0.08000*%
%ADD14C,0.00300*%
%ADD15C,0.00400*%
%ADD16R,0.01000X0.05000*%
%ADD17R,0.02200X0.00800*%
%ADD18R,0.01500X0.01000*%
%ADD19R,0.01500X0.02000*%
%ADD20C,0.00500*%
%ADD21C,0.00100*%
D10*
X0062837Y0069690D02*
X0062839Y0069886D01*
X0062847Y0070083D01*
X0062859Y0070279D01*
X0062876Y0070474D01*
X0062897Y0070669D01*
X0062924Y0070864D01*
X0062955Y0071058D01*
X0062991Y0071251D01*
X0063031Y0071443D01*
X0063077Y0071634D01*
X0063127Y0071824D01*
X0063181Y0072012D01*
X0063241Y0072199D01*
X0063305Y0072385D01*
X0063373Y0072569D01*
X0063446Y0072751D01*
X0063523Y0072932D01*
X0063605Y0073110D01*
X0063691Y0073287D01*
X0063782Y0073461D01*
X0063876Y0073633D01*
X0063975Y0073803D01*
X0064078Y0073970D01*
X0064185Y0074135D01*
X0064296Y0074296D01*
X0064411Y0074456D01*
X0064530Y0074612D01*
X0064653Y0074765D01*
X0064779Y0074915D01*
X0064909Y0075062D01*
X0065043Y0075206D01*
X0065180Y0075347D01*
X0065321Y0075484D01*
X0065465Y0075618D01*
X0065612Y0075748D01*
X0065762Y0075874D01*
X0065915Y0075997D01*
X0066071Y0076116D01*
X0066231Y0076231D01*
X0066392Y0076342D01*
X0066557Y0076449D01*
X0066724Y0076552D01*
X0066894Y0076651D01*
X0067066Y0076745D01*
X0067240Y0076836D01*
X0067417Y0076922D01*
X0067595Y0077004D01*
X0067776Y0077081D01*
X0067958Y0077154D01*
X0068142Y0077222D01*
X0068328Y0077286D01*
X0068515Y0077346D01*
X0068703Y0077400D01*
X0068893Y0077450D01*
X0069084Y0077496D01*
X0069276Y0077536D01*
X0069469Y0077572D01*
X0069663Y0077603D01*
X0069858Y0077630D01*
X0070053Y0077651D01*
X0070248Y0077668D01*
X0070444Y0077680D01*
X0070641Y0077688D01*
X0070837Y0077690D01*
X0071033Y0077688D01*
X0071230Y0077680D01*
X0071426Y0077668D01*
X0071621Y0077651D01*
X0071816Y0077630D01*
X0072011Y0077603D01*
X0072205Y0077572D01*
X0072398Y0077536D01*
X0072590Y0077496D01*
X0072781Y0077450D01*
X0072971Y0077400D01*
X0073159Y0077346D01*
X0073346Y0077286D01*
X0073532Y0077222D01*
X0073716Y0077154D01*
X0073898Y0077081D01*
X0074079Y0077004D01*
X0074257Y0076922D01*
X0074434Y0076836D01*
X0074608Y0076745D01*
X0074780Y0076651D01*
X0074950Y0076552D01*
X0075117Y0076449D01*
X0075282Y0076342D01*
X0075443Y0076231D01*
X0075603Y0076116D01*
X0075759Y0075997D01*
X0075912Y0075874D01*
X0076062Y0075748D01*
X0076209Y0075618D01*
X0076353Y0075484D01*
X0076494Y0075347D01*
X0076631Y0075206D01*
X0076765Y0075062D01*
X0076895Y0074915D01*
X0077021Y0074765D01*
X0077144Y0074612D01*
X0077263Y0074456D01*
X0077378Y0074296D01*
X0077489Y0074135D01*
X0077596Y0073970D01*
X0077699Y0073803D01*
X0077798Y0073633D01*
X0077892Y0073461D01*
X0077983Y0073287D01*
X0078069Y0073110D01*
X0078151Y0072932D01*
X0078228Y0072751D01*
X0078301Y0072569D01*
X0078369Y0072385D01*
X0078433Y0072199D01*
X0078493Y0072012D01*
X0078547Y0071824D01*
X0078597Y0071634D01*
X0078643Y0071443D01*
X0078683Y0071251D01*
X0078719Y0071058D01*
X0078750Y0070864D01*
X0078777Y0070669D01*
X0078798Y0070474D01*
X0078815Y0070279D01*
X0078827Y0070083D01*
X0078835Y0069886D01*
X0078837Y0069690D01*
X0078835Y0069494D01*
X0078827Y0069297D01*
X0078815Y0069101D01*
X0078798Y0068906D01*
X0078777Y0068711D01*
X0078750Y0068516D01*
X0078719Y0068322D01*
X0078683Y0068129D01*
X0078643Y0067937D01*
X0078597Y0067746D01*
X0078547Y0067556D01*
X0078493Y0067368D01*
X0078433Y0067181D01*
X0078369Y0066995D01*
X0078301Y0066811D01*
X0078228Y0066629D01*
X0078151Y0066448D01*
X0078069Y0066270D01*
X0077983Y0066093D01*
X0077892Y0065919D01*
X0077798Y0065747D01*
X0077699Y0065577D01*
X0077596Y0065410D01*
X0077489Y0065245D01*
X0077378Y0065084D01*
X0077263Y0064924D01*
X0077144Y0064768D01*
X0077021Y0064615D01*
X0076895Y0064465D01*
X0076765Y0064318D01*
X0076631Y0064174D01*
X0076494Y0064033D01*
X0076353Y0063896D01*
X0076209Y0063762D01*
X0076062Y0063632D01*
X0075912Y0063506D01*
X0075759Y0063383D01*
X0075603Y0063264D01*
X0075443Y0063149D01*
X0075282Y0063038D01*
X0075117Y0062931D01*
X0074950Y0062828D01*
X0074780Y0062729D01*
X0074608Y0062635D01*
X0074434Y0062544D01*
X0074257Y0062458D01*
X0074079Y0062376D01*
X0073898Y0062299D01*
X0073716Y0062226D01*
X0073532Y0062158D01*
X0073346Y0062094D01*
X0073159Y0062034D01*
X0072971Y0061980D01*
X0072781Y0061930D01*
X0072590Y0061884D01*
X0072398Y0061844D01*
X0072205Y0061808D01*
X0072011Y0061777D01*
X0071816Y0061750D01*
X0071621Y0061729D01*
X0071426Y0061712D01*
X0071230Y0061700D01*
X0071033Y0061692D01*
X0070837Y0061690D01*
X0070641Y0061692D01*
X0070444Y0061700D01*
X0070248Y0061712D01*
X0070053Y0061729D01*
X0069858Y0061750D01*
X0069663Y0061777D01*
X0069469Y0061808D01*
X0069276Y0061844D01*
X0069084Y0061884D01*
X0068893Y0061930D01*
X0068703Y0061980D01*
X0068515Y0062034D01*
X0068328Y0062094D01*
X0068142Y0062158D01*
X0067958Y0062226D01*
X0067776Y0062299D01*
X0067595Y0062376D01*
X0067417Y0062458D01*
X0067240Y0062544D01*
X0067066Y0062635D01*
X0066894Y0062729D01*
X0066724Y0062828D01*
X0066557Y0062931D01*
X0066392Y0063038D01*
X0066231Y0063149D01*
X0066071Y0063264D01*
X0065915Y0063383D01*
X0065762Y0063506D01*
X0065612Y0063632D01*
X0065465Y0063762D01*
X0065321Y0063896D01*
X0065180Y0064033D01*
X0065043Y0064174D01*
X0064909Y0064318D01*
X0064779Y0064465D01*
X0064653Y0064615D01*
X0064530Y0064768D01*
X0064411Y0064924D01*
X0064296Y0065084D01*
X0064185Y0065245D01*
X0064078Y0065410D01*
X0063975Y0065577D01*
X0063876Y0065747D01*
X0063782Y0065919D01*
X0063691Y0066093D01*
X0063605Y0066270D01*
X0063523Y0066448D01*
X0063446Y0066629D01*
X0063373Y0066811D01*
X0063305Y0066995D01*
X0063241Y0067181D01*
X0063181Y0067368D01*
X0063127Y0067556D01*
X0063077Y0067746D01*
X0063031Y0067937D01*
X0062991Y0068129D01*
X0062955Y0068322D01*
X0062924Y0068516D01*
X0062897Y0068711D01*
X0062876Y0068906D01*
X0062859Y0069101D01*
X0062847Y0069297D01*
X0062839Y0069494D01*
X0062837Y0069690D01*
X0075087Y0073690D02*
X0075837Y0073690D01*
X0076587Y0073690D01*
X0075837Y0073690D02*
X0075837Y0074440D01*
X0075837Y0073690D02*
X0075837Y0072940D01*
X0052837Y0089690D02*
X0052839Y0089886D01*
X0052847Y0090083D01*
X0052859Y0090279D01*
X0052876Y0090474D01*
X0052897Y0090669D01*
X0052924Y0090864D01*
X0052955Y0091058D01*
X0052991Y0091251D01*
X0053031Y0091443D01*
X0053077Y0091634D01*
X0053127Y0091824D01*
X0053181Y0092012D01*
X0053241Y0092199D01*
X0053305Y0092385D01*
X0053373Y0092569D01*
X0053446Y0092751D01*
X0053523Y0092932D01*
X0053605Y0093110D01*
X0053691Y0093287D01*
X0053782Y0093461D01*
X0053876Y0093633D01*
X0053975Y0093803D01*
X0054078Y0093970D01*
X0054185Y0094135D01*
X0054296Y0094296D01*
X0054411Y0094456D01*
X0054530Y0094612D01*
X0054653Y0094765D01*
X0054779Y0094915D01*
X0054909Y0095062D01*
X0055043Y0095206D01*
X0055180Y0095347D01*
X0055321Y0095484D01*
X0055465Y0095618D01*
X0055612Y0095748D01*
X0055762Y0095874D01*
X0055915Y0095997D01*
X0056071Y0096116D01*
X0056231Y0096231D01*
X0056392Y0096342D01*
X0056557Y0096449D01*
X0056724Y0096552D01*
X0056894Y0096651D01*
X0057066Y0096745D01*
X0057240Y0096836D01*
X0057417Y0096922D01*
X0057595Y0097004D01*
X0057776Y0097081D01*
X0057958Y0097154D01*
X0058142Y0097222D01*
X0058328Y0097286D01*
X0058515Y0097346D01*
X0058703Y0097400D01*
X0058893Y0097450D01*
X0059084Y0097496D01*
X0059276Y0097536D01*
X0059469Y0097572D01*
X0059663Y0097603D01*
X0059858Y0097630D01*
X0060053Y0097651D01*
X0060248Y0097668D01*
X0060444Y0097680D01*
X0060641Y0097688D01*
X0060837Y0097690D01*
X0061033Y0097688D01*
X0061230Y0097680D01*
X0061426Y0097668D01*
X0061621Y0097651D01*
X0061816Y0097630D01*
X0062011Y0097603D01*
X0062205Y0097572D01*
X0062398Y0097536D01*
X0062590Y0097496D01*
X0062781Y0097450D01*
X0062971Y0097400D01*
X0063159Y0097346D01*
X0063346Y0097286D01*
X0063532Y0097222D01*
X0063716Y0097154D01*
X0063898Y0097081D01*
X0064079Y0097004D01*
X0064257Y0096922D01*
X0064434Y0096836D01*
X0064608Y0096745D01*
X0064780Y0096651D01*
X0064950Y0096552D01*
X0065117Y0096449D01*
X0065282Y0096342D01*
X0065443Y0096231D01*
X0065603Y0096116D01*
X0065759Y0095997D01*
X0065912Y0095874D01*
X0066062Y0095748D01*
X0066209Y0095618D01*
X0066353Y0095484D01*
X0066494Y0095347D01*
X0066631Y0095206D01*
X0066765Y0095062D01*
X0066895Y0094915D01*
X0067021Y0094765D01*
X0067144Y0094612D01*
X0067263Y0094456D01*
X0067378Y0094296D01*
X0067489Y0094135D01*
X0067596Y0093970D01*
X0067699Y0093803D01*
X0067798Y0093633D01*
X0067892Y0093461D01*
X0067983Y0093287D01*
X0068069Y0093110D01*
X0068151Y0092932D01*
X0068228Y0092751D01*
X0068301Y0092569D01*
X0068369Y0092385D01*
X0068433Y0092199D01*
X0068493Y0092012D01*
X0068547Y0091824D01*
X0068597Y0091634D01*
X0068643Y0091443D01*
X0068683Y0091251D01*
X0068719Y0091058D01*
X0068750Y0090864D01*
X0068777Y0090669D01*
X0068798Y0090474D01*
X0068815Y0090279D01*
X0068827Y0090083D01*
X0068835Y0089886D01*
X0068837Y0089690D01*
X0068835Y0089494D01*
X0068827Y0089297D01*
X0068815Y0089101D01*
X0068798Y0088906D01*
X0068777Y0088711D01*
X0068750Y0088516D01*
X0068719Y0088322D01*
X0068683Y0088129D01*
X0068643Y0087937D01*
X0068597Y0087746D01*
X0068547Y0087556D01*
X0068493Y0087368D01*
X0068433Y0087181D01*
X0068369Y0086995D01*
X0068301Y0086811D01*
X0068228Y0086629D01*
X0068151Y0086448D01*
X0068069Y0086270D01*
X0067983Y0086093D01*
X0067892Y0085919D01*
X0067798Y0085747D01*
X0067699Y0085577D01*
X0067596Y0085410D01*
X0067489Y0085245D01*
X0067378Y0085084D01*
X0067263Y0084924D01*
X0067144Y0084768D01*
X0067021Y0084615D01*
X0066895Y0084465D01*
X0066765Y0084318D01*
X0066631Y0084174D01*
X0066494Y0084033D01*
X0066353Y0083896D01*
X0066209Y0083762D01*
X0066062Y0083632D01*
X0065912Y0083506D01*
X0065759Y0083383D01*
X0065603Y0083264D01*
X0065443Y0083149D01*
X0065282Y0083038D01*
X0065117Y0082931D01*
X0064950Y0082828D01*
X0064780Y0082729D01*
X0064608Y0082635D01*
X0064434Y0082544D01*
X0064257Y0082458D01*
X0064079Y0082376D01*
X0063898Y0082299D01*
X0063716Y0082226D01*
X0063532Y0082158D01*
X0063346Y0082094D01*
X0063159Y0082034D01*
X0062971Y0081980D01*
X0062781Y0081930D01*
X0062590Y0081884D01*
X0062398Y0081844D01*
X0062205Y0081808D01*
X0062011Y0081777D01*
X0061816Y0081750D01*
X0061621Y0081729D01*
X0061426Y0081712D01*
X0061230Y0081700D01*
X0061033Y0081692D01*
X0060837Y0081690D01*
X0060641Y0081692D01*
X0060444Y0081700D01*
X0060248Y0081712D01*
X0060053Y0081729D01*
X0059858Y0081750D01*
X0059663Y0081777D01*
X0059469Y0081808D01*
X0059276Y0081844D01*
X0059084Y0081884D01*
X0058893Y0081930D01*
X0058703Y0081980D01*
X0058515Y0082034D01*
X0058328Y0082094D01*
X0058142Y0082158D01*
X0057958Y0082226D01*
X0057776Y0082299D01*
X0057595Y0082376D01*
X0057417Y0082458D01*
X0057240Y0082544D01*
X0057066Y0082635D01*
X0056894Y0082729D01*
X0056724Y0082828D01*
X0056557Y0082931D01*
X0056392Y0083038D01*
X0056231Y0083149D01*
X0056071Y0083264D01*
X0055915Y0083383D01*
X0055762Y0083506D01*
X0055612Y0083632D01*
X0055465Y0083762D01*
X0055321Y0083896D01*
X0055180Y0084033D01*
X0055043Y0084174D01*
X0054909Y0084318D01*
X0054779Y0084465D01*
X0054653Y0084615D01*
X0054530Y0084768D01*
X0054411Y0084924D01*
X0054296Y0085084D01*
X0054185Y0085245D01*
X0054078Y0085410D01*
X0053975Y0085577D01*
X0053876Y0085747D01*
X0053782Y0085919D01*
X0053691Y0086093D01*
X0053605Y0086270D01*
X0053523Y0086448D01*
X0053446Y0086629D01*
X0053373Y0086811D01*
X0053305Y0086995D01*
X0053241Y0087181D01*
X0053181Y0087368D01*
X0053127Y0087556D01*
X0053077Y0087746D01*
X0053031Y0087937D01*
X0052991Y0088129D01*
X0052955Y0088322D01*
X0052924Y0088516D01*
X0052897Y0088711D01*
X0052876Y0088906D01*
X0052859Y0089101D01*
X0052847Y0089297D01*
X0052839Y0089494D01*
X0052837Y0089690D01*
X0055837Y0086440D02*
X0055837Y0085690D01*
X0055087Y0085690D01*
X0055837Y0085690D02*
X0056587Y0085690D01*
X0055837Y0085690D02*
X0055837Y0084940D01*
X0080837Y0103190D02*
X0080837Y0106190D01*
X0080839Y0106250D01*
X0080844Y0106311D01*
X0080853Y0106370D01*
X0080866Y0106429D01*
X0080882Y0106488D01*
X0080902Y0106545D01*
X0080925Y0106600D01*
X0080952Y0106655D01*
X0080981Y0106707D01*
X0081014Y0106758D01*
X0081050Y0106807D01*
X0081088Y0106853D01*
X0081130Y0106897D01*
X0081174Y0106939D01*
X0081220Y0106977D01*
X0081269Y0107013D01*
X0081320Y0107046D01*
X0081372Y0107075D01*
X0081427Y0107102D01*
X0081482Y0107125D01*
X0081539Y0107145D01*
X0081598Y0107161D01*
X0081657Y0107174D01*
X0081716Y0107183D01*
X0081777Y0107188D01*
X0081837Y0107190D01*
X0089837Y0107190D01*
X0089897Y0107188D01*
X0089958Y0107183D01*
X0090017Y0107174D01*
X0090076Y0107161D01*
X0090135Y0107145D01*
X0090192Y0107125D01*
X0090247Y0107102D01*
X0090302Y0107075D01*
X0090354Y0107046D01*
X0090405Y0107013D01*
X0090454Y0106977D01*
X0090500Y0106939D01*
X0090544Y0106897D01*
X0090586Y0106853D01*
X0090624Y0106807D01*
X0090660Y0106758D01*
X0090693Y0106707D01*
X0090722Y0106655D01*
X0090749Y0106600D01*
X0090772Y0106545D01*
X0090792Y0106488D01*
X0090808Y0106429D01*
X0090821Y0106370D01*
X0090830Y0106311D01*
X0090835Y0106250D01*
X0090837Y0106190D01*
X0090837Y0103190D01*
X0090835Y0103130D01*
X0090830Y0103069D01*
X0090821Y0103010D01*
X0090808Y0102951D01*
X0090792Y0102892D01*
X0090772Y0102835D01*
X0090749Y0102780D01*
X0090722Y0102725D01*
X0090693Y0102673D01*
X0090660Y0102622D01*
X0090624Y0102573D01*
X0090586Y0102527D01*
X0090544Y0102483D01*
X0090500Y0102441D01*
X0090454Y0102403D01*
X0090405Y0102367D01*
X0090354Y0102334D01*
X0090302Y0102305D01*
X0090247Y0102278D01*
X0090192Y0102255D01*
X0090135Y0102235D01*
X0090076Y0102219D01*
X0090017Y0102206D01*
X0089958Y0102197D01*
X0089897Y0102192D01*
X0089837Y0102190D01*
X0081837Y0102190D01*
X0081777Y0102192D01*
X0081716Y0102197D01*
X0081657Y0102206D01*
X0081598Y0102219D01*
X0081539Y0102235D01*
X0081482Y0102255D01*
X0081427Y0102278D01*
X0081372Y0102305D01*
X0081320Y0102334D01*
X0081269Y0102367D01*
X0081220Y0102403D01*
X0081174Y0102441D01*
X0081130Y0102483D01*
X0081088Y0102527D01*
X0081050Y0102573D01*
X0081014Y0102622D01*
X0080981Y0102673D01*
X0080952Y0102725D01*
X0080925Y0102780D01*
X0080902Y0102835D01*
X0080882Y0102892D01*
X0080866Y0102951D01*
X0080853Y0103010D01*
X0080844Y0103069D01*
X0080839Y0103130D01*
X0080837Y0103190D01*
X0080839Y0103130D01*
X0080844Y0103069D01*
X0080853Y0103010D01*
X0080866Y0102951D01*
X0080882Y0102892D01*
X0080902Y0102835D01*
X0080925Y0102780D01*
X0080952Y0102725D01*
X0080981Y0102673D01*
X0081014Y0102622D01*
X0081050Y0102573D01*
X0081088Y0102527D01*
X0081130Y0102483D01*
X0081174Y0102441D01*
X0081220Y0102403D01*
X0081269Y0102367D01*
X0081320Y0102334D01*
X0081372Y0102305D01*
X0081427Y0102278D01*
X0081482Y0102255D01*
X0081539Y0102235D01*
X0081598Y0102219D01*
X0081657Y0102206D01*
X0081716Y0102197D01*
X0081777Y0102192D01*
X0081837Y0102190D01*
X0080837Y0106190D02*
X0080839Y0106250D01*
X0080844Y0106311D01*
X0080853Y0106370D01*
X0080866Y0106429D01*
X0080882Y0106488D01*
X0080902Y0106545D01*
X0080925Y0106600D01*
X0080952Y0106655D01*
X0080981Y0106707D01*
X0081014Y0106758D01*
X0081050Y0106807D01*
X0081088Y0106853D01*
X0081130Y0106897D01*
X0081174Y0106939D01*
X0081220Y0106977D01*
X0081269Y0107013D01*
X0081320Y0107046D01*
X0081372Y0107075D01*
X0081427Y0107102D01*
X0081482Y0107125D01*
X0081539Y0107145D01*
X0081598Y0107161D01*
X0081657Y0107174D01*
X0081716Y0107183D01*
X0081777Y0107188D01*
X0081837Y0107190D01*
X0089837Y0107190D02*
X0089897Y0107188D01*
X0089958Y0107183D01*
X0090017Y0107174D01*
X0090076Y0107161D01*
X0090135Y0107145D01*
X0090192Y0107125D01*
X0090247Y0107102D01*
X0090302Y0107075D01*
X0090354Y0107046D01*
X0090405Y0107013D01*
X0090454Y0106977D01*
X0090500Y0106939D01*
X0090544Y0106897D01*
X0090586Y0106853D01*
X0090624Y0106807D01*
X0090660Y0106758D01*
X0090693Y0106707D01*
X0090722Y0106655D01*
X0090749Y0106600D01*
X0090772Y0106545D01*
X0090792Y0106488D01*
X0090808Y0106429D01*
X0090821Y0106370D01*
X0090830Y0106311D01*
X0090835Y0106250D01*
X0090837Y0106190D01*
X0090837Y0103190D02*
X0090835Y0103130D01*
X0090830Y0103069D01*
X0090821Y0103010D01*
X0090808Y0102951D01*
X0090792Y0102892D01*
X0090772Y0102835D01*
X0090749Y0102780D01*
X0090722Y0102725D01*
X0090693Y0102673D01*
X0090660Y0102622D01*
X0090624Y0102573D01*
X0090586Y0102527D01*
X0090544Y0102483D01*
X0090500Y0102441D01*
X0090454Y0102403D01*
X0090405Y0102367D01*
X0090354Y0102334D01*
X0090302Y0102305D01*
X0090247Y0102278D01*
X0090192Y0102255D01*
X0090135Y0102235D01*
X0090076Y0102219D01*
X0090017Y0102206D01*
X0089958Y0102197D01*
X0089897Y0102192D01*
X0089837Y0102190D01*
X0105837Y0076190D02*
X0105837Y0075190D01*
X0104837Y0075190D01*
X0105837Y0075190D02*
X0106837Y0075190D01*
X0105837Y0075190D02*
X0105837Y0074190D01*
X0090837Y0069690D02*
X0090840Y0069935D01*
X0090849Y0070181D01*
X0090864Y0070426D01*
X0090885Y0070670D01*
X0090912Y0070914D01*
X0090945Y0071157D01*
X0090984Y0071400D01*
X0091029Y0071641D01*
X0091080Y0071881D01*
X0091137Y0072120D01*
X0091199Y0072357D01*
X0091268Y0072593D01*
X0091342Y0072827D01*
X0091422Y0073059D01*
X0091507Y0073289D01*
X0091598Y0073517D01*
X0091695Y0073742D01*
X0091797Y0073966D01*
X0091905Y0074186D01*
X0092018Y0074404D01*
X0092136Y0074619D01*
X0092260Y0074831D01*
X0092388Y0075040D01*
X0092522Y0075246D01*
X0092661Y0075448D01*
X0092805Y0075647D01*
X0092954Y0075842D01*
X0093107Y0076034D01*
X0093265Y0076222D01*
X0093427Y0076406D01*
X0093595Y0076585D01*
X0093766Y0076761D01*
X0093942Y0076932D01*
X0094121Y0077100D01*
X0094305Y0077262D01*
X0094493Y0077420D01*
X0094685Y0077573D01*
X0094880Y0077722D01*
X0095079Y0077866D01*
X0095281Y0078005D01*
X0095487Y0078139D01*
X0095696Y0078267D01*
X0095908Y0078391D01*
X0096123Y0078509D01*
X0096341Y0078622D01*
X0096561Y0078730D01*
X0096785Y0078832D01*
X0097010Y0078929D01*
X0097238Y0079020D01*
X0097468Y0079105D01*
X0097700Y0079185D01*
X0097934Y0079259D01*
X0098170Y0079328D01*
X0098407Y0079390D01*
X0098646Y0079447D01*
X0098886Y0079498D01*
X0099127Y0079543D01*
X0099370Y0079582D01*
X0099613Y0079615D01*
X0099857Y0079642D01*
X0100101Y0079663D01*
X0100346Y0079678D01*
X0100592Y0079687D01*
X0100837Y0079690D01*
X0101082Y0079687D01*
X0101328Y0079678D01*
X0101573Y0079663D01*
X0101817Y0079642D01*
X0102061Y0079615D01*
X0102304Y0079582D01*
X0102547Y0079543D01*
X0102788Y0079498D01*
X0103028Y0079447D01*
X0103267Y0079390D01*
X0103504Y0079328D01*
X0103740Y0079259D01*
X0103974Y0079185D01*
X0104206Y0079105D01*
X0104436Y0079020D01*
X0104664Y0078929D01*
X0104889Y0078832D01*
X0105113Y0078730D01*
X0105333Y0078622D01*
X0105551Y0078509D01*
X0105766Y0078391D01*
X0105978Y0078267D01*
X0106187Y0078139D01*
X0106393Y0078005D01*
X0106595Y0077866D01*
X0106794Y0077722D01*
X0106989Y0077573D01*
X0107181Y0077420D01*
X0107369Y0077262D01*
X0107553Y0077100D01*
X0107732Y0076932D01*
X0107908Y0076761D01*
X0108079Y0076585D01*
X0108247Y0076406D01*
X0108409Y0076222D01*
X0108567Y0076034D01*
X0108720Y0075842D01*
X0108869Y0075647D01*
X0109013Y0075448D01*
X0109152Y0075246D01*
X0109286Y0075040D01*
X0109414Y0074831D01*
X0109538Y0074619D01*
X0109656Y0074404D01*
X0109769Y0074186D01*
X0109877Y0073966D01*
X0109979Y0073742D01*
X0110076Y0073517D01*
X0110167Y0073289D01*
X0110252Y0073059D01*
X0110332Y0072827D01*
X0110406Y0072593D01*
X0110475Y0072357D01*
X0110537Y0072120D01*
X0110594Y0071881D01*
X0110645Y0071641D01*
X0110690Y0071400D01*
X0110729Y0071157D01*
X0110762Y0070914D01*
X0110789Y0070670D01*
X0110810Y0070426D01*
X0110825Y0070181D01*
X0110834Y0069935D01*
X0110837Y0069690D01*
X0110834Y0069445D01*
X0110825Y0069199D01*
X0110810Y0068954D01*
X0110789Y0068710D01*
X0110762Y0068466D01*
X0110729Y0068223D01*
X0110690Y0067980D01*
X0110645Y0067739D01*
X0110594Y0067499D01*
X0110537Y0067260D01*
X0110475Y0067023D01*
X0110406Y0066787D01*
X0110332Y0066553D01*
X0110252Y0066321D01*
X0110167Y0066091D01*
X0110076Y0065863D01*
X0109979Y0065638D01*
X0109877Y0065414D01*
X0109769Y0065194D01*
X0109656Y0064976D01*
X0109538Y0064761D01*
X0109414Y0064549D01*
X0109286Y0064340D01*
X0109152Y0064134D01*
X0109013Y0063932D01*
X0108869Y0063733D01*
X0108720Y0063538D01*
X0108567Y0063346D01*
X0108409Y0063158D01*
X0108247Y0062974D01*
X0108079Y0062795D01*
X0107908Y0062619D01*
X0107732Y0062448D01*
X0107553Y0062280D01*
X0107369Y0062118D01*
X0107181Y0061960D01*
X0106989Y0061807D01*
X0106794Y0061658D01*
X0106595Y0061514D01*
X0106393Y0061375D01*
X0106187Y0061241D01*
X0105978Y0061113D01*
X0105766Y0060989D01*
X0105551Y0060871D01*
X0105333Y0060758D01*
X0105113Y0060650D01*
X0104889Y0060548D01*
X0104664Y0060451D01*
X0104436Y0060360D01*
X0104206Y0060275D01*
X0103974Y0060195D01*
X0103740Y0060121D01*
X0103504Y0060052D01*
X0103267Y0059990D01*
X0103028Y0059933D01*
X0102788Y0059882D01*
X0102547Y0059837D01*
X0102304Y0059798D01*
X0102061Y0059765D01*
X0101817Y0059738D01*
X0101573Y0059717D01*
X0101328Y0059702D01*
X0101082Y0059693D01*
X0100837Y0059690D01*
X0100592Y0059693D01*
X0100346Y0059702D01*
X0100101Y0059717D01*
X0099857Y0059738D01*
X0099613Y0059765D01*
X0099370Y0059798D01*
X0099127Y0059837D01*
X0098886Y0059882D01*
X0098646Y0059933D01*
X0098407Y0059990D01*
X0098170Y0060052D01*
X0097934Y0060121D01*
X0097700Y0060195D01*
X0097468Y0060275D01*
X0097238Y0060360D01*
X0097010Y0060451D01*
X0096785Y0060548D01*
X0096561Y0060650D01*
X0096341Y0060758D01*
X0096123Y0060871D01*
X0095908Y0060989D01*
X0095696Y0061113D01*
X0095487Y0061241D01*
X0095281Y0061375D01*
X0095079Y0061514D01*
X0094880Y0061658D01*
X0094685Y0061807D01*
X0094493Y0061960D01*
X0094305Y0062118D01*
X0094121Y0062280D01*
X0093942Y0062448D01*
X0093766Y0062619D01*
X0093595Y0062795D01*
X0093427Y0062974D01*
X0093265Y0063158D01*
X0093107Y0063346D01*
X0092954Y0063538D01*
X0092805Y0063733D01*
X0092661Y0063932D01*
X0092522Y0064134D01*
X0092388Y0064340D01*
X0092260Y0064549D01*
X0092136Y0064761D01*
X0092018Y0064976D01*
X0091905Y0065194D01*
X0091797Y0065414D01*
X0091695Y0065638D01*
X0091598Y0065863D01*
X0091507Y0066091D01*
X0091422Y0066321D01*
X0091342Y0066553D01*
X0091268Y0066787D01*
X0091199Y0067023D01*
X0091137Y0067260D01*
X0091080Y0067499D01*
X0091029Y0067739D01*
X0090984Y0067980D01*
X0090945Y0068223D01*
X0090912Y0068466D01*
X0090885Y0068710D01*
X0090864Y0068954D01*
X0090849Y0069199D01*
X0090840Y0069445D01*
X0090837Y0069690D01*
X0115837Y0057690D02*
X0115837Y0051690D01*
X0115839Y0051630D01*
X0115844Y0051569D01*
X0115853Y0051510D01*
X0115866Y0051451D01*
X0115882Y0051392D01*
X0115902Y0051335D01*
X0115925Y0051280D01*
X0115952Y0051225D01*
X0115981Y0051173D01*
X0116014Y0051122D01*
X0116050Y0051073D01*
X0116088Y0051027D01*
X0116130Y0050983D01*
X0116174Y0050941D01*
X0116220Y0050903D01*
X0116269Y0050867D01*
X0116320Y0050834D01*
X0116372Y0050805D01*
X0116427Y0050778D01*
X0116482Y0050755D01*
X0116539Y0050735D01*
X0116598Y0050719D01*
X0116657Y0050706D01*
X0116716Y0050697D01*
X0116777Y0050692D01*
X0116837Y0050690D01*
X0118337Y0050690D01*
X0118837Y0051190D01*
X0132837Y0051190D01*
X0133337Y0050690D01*
X0134837Y0050690D01*
X0134897Y0050692D01*
X0134958Y0050697D01*
X0135017Y0050706D01*
X0135076Y0050719D01*
X0135135Y0050735D01*
X0135192Y0050755D01*
X0135247Y0050778D01*
X0135302Y0050805D01*
X0135354Y0050834D01*
X0135405Y0050867D01*
X0135454Y0050903D01*
X0135500Y0050941D01*
X0135544Y0050983D01*
X0135586Y0051027D01*
X0135624Y0051073D01*
X0135660Y0051122D01*
X0135693Y0051173D01*
X0135722Y0051225D01*
X0135749Y0051280D01*
X0135772Y0051335D01*
X0135792Y0051392D01*
X0135808Y0051451D01*
X0135821Y0051510D01*
X0135830Y0051569D01*
X0135835Y0051630D01*
X0135837Y0051690D01*
X0135837Y0057690D01*
X0135835Y0057750D01*
X0135830Y0057811D01*
X0135821Y0057870D01*
X0135808Y0057929D01*
X0135792Y0057988D01*
X0135772Y0058045D01*
X0135749Y0058100D01*
X0135722Y0058155D01*
X0135693Y0058207D01*
X0135660Y0058258D01*
X0135624Y0058307D01*
X0135586Y0058353D01*
X0135544Y0058397D01*
X0135500Y0058439D01*
X0135454Y0058477D01*
X0135405Y0058513D01*
X0135354Y0058546D01*
X0135302Y0058575D01*
X0135247Y0058602D01*
X0135192Y0058625D01*
X0135135Y0058645D01*
X0135076Y0058661D01*
X0135017Y0058674D01*
X0134958Y0058683D01*
X0134897Y0058688D01*
X0134837Y0058690D01*
X0133337Y0058690D01*
X0132837Y0058190D01*
X0118837Y0058190D01*
X0118337Y0058690D01*
X0116837Y0058690D01*
X0116777Y0058688D01*
X0116716Y0058683D01*
X0116657Y0058674D01*
X0116598Y0058661D01*
X0116539Y0058645D01*
X0116482Y0058625D01*
X0116427Y0058602D01*
X0116372Y0058575D01*
X0116320Y0058546D01*
X0116269Y0058513D01*
X0116220Y0058477D01*
X0116174Y0058439D01*
X0116130Y0058397D01*
X0116088Y0058353D01*
X0116050Y0058307D01*
X0116014Y0058258D01*
X0115981Y0058207D01*
X0115952Y0058155D01*
X0115925Y0058100D01*
X0115902Y0058045D01*
X0115882Y0057988D01*
X0115866Y0057929D01*
X0115853Y0057870D01*
X0115844Y0057811D01*
X0115839Y0057750D01*
X0115837Y0057690D01*
X0115839Y0057750D01*
X0115844Y0057811D01*
X0115853Y0057870D01*
X0115866Y0057929D01*
X0115882Y0057988D01*
X0115902Y0058045D01*
X0115925Y0058100D01*
X0115952Y0058155D01*
X0115981Y0058207D01*
X0116014Y0058258D01*
X0116050Y0058307D01*
X0116088Y0058353D01*
X0116130Y0058397D01*
X0116174Y0058439D01*
X0116220Y0058477D01*
X0116269Y0058513D01*
X0116320Y0058546D01*
X0116372Y0058575D01*
X0116427Y0058602D01*
X0116482Y0058625D01*
X0116539Y0058645D01*
X0116598Y0058661D01*
X0116657Y0058674D01*
X0116716Y0058683D01*
X0116777Y0058688D01*
X0116837Y0058690D01*
X0115837Y0051690D02*
X0115839Y0051630D01*
X0115844Y0051569D01*
X0115853Y0051510D01*
X0115866Y0051451D01*
X0115882Y0051392D01*
X0115902Y0051335D01*
X0115925Y0051280D01*
X0115952Y0051225D01*
X0115981Y0051173D01*
X0116014Y0051122D01*
X0116050Y0051073D01*
X0116088Y0051027D01*
X0116130Y0050983D01*
X0116174Y0050941D01*
X0116220Y0050903D01*
X0116269Y0050867D01*
X0116320Y0050834D01*
X0116372Y0050805D01*
X0116427Y0050778D01*
X0116482Y0050755D01*
X0116539Y0050735D01*
X0116598Y0050719D01*
X0116657Y0050706D01*
X0116716Y0050697D01*
X0116777Y0050692D01*
X0116837Y0050690D01*
X0134837Y0050690D02*
X0134897Y0050692D01*
X0134958Y0050697D01*
X0135017Y0050706D01*
X0135076Y0050719D01*
X0135135Y0050735D01*
X0135192Y0050755D01*
X0135247Y0050778D01*
X0135302Y0050805D01*
X0135354Y0050834D01*
X0135405Y0050867D01*
X0135454Y0050903D01*
X0135500Y0050941D01*
X0135544Y0050983D01*
X0135586Y0051027D01*
X0135624Y0051073D01*
X0135660Y0051122D01*
X0135693Y0051173D01*
X0135722Y0051225D01*
X0135749Y0051280D01*
X0135772Y0051335D01*
X0135792Y0051392D01*
X0135808Y0051451D01*
X0135821Y0051510D01*
X0135830Y0051569D01*
X0135835Y0051630D01*
X0135837Y0051690D01*
X0135837Y0057690D02*
X0135835Y0057750D01*
X0135830Y0057811D01*
X0135821Y0057870D01*
X0135808Y0057929D01*
X0135792Y0057988D01*
X0135772Y0058045D01*
X0135749Y0058100D01*
X0135722Y0058155D01*
X0135693Y0058207D01*
X0135660Y0058258D01*
X0135624Y0058307D01*
X0135586Y0058353D01*
X0135544Y0058397D01*
X0135500Y0058439D01*
X0135454Y0058477D01*
X0135405Y0058513D01*
X0135354Y0058546D01*
X0135302Y0058575D01*
X0135247Y0058602D01*
X0135192Y0058625D01*
X0135135Y0058645D01*
X0135076Y0058661D01*
X0135017Y0058674D01*
X0134958Y0058683D01*
X0134897Y0058688D01*
X0134837Y0058690D01*
X0131837Y0082190D02*
X0139837Y0082190D01*
X0139897Y0082192D01*
X0139958Y0082197D01*
X0140017Y0082206D01*
X0140076Y0082219D01*
X0140135Y0082235D01*
X0140192Y0082255D01*
X0140247Y0082278D01*
X0140302Y0082305D01*
X0140354Y0082334D01*
X0140405Y0082367D01*
X0140454Y0082403D01*
X0140500Y0082441D01*
X0140544Y0082483D01*
X0140586Y0082527D01*
X0140624Y0082573D01*
X0140660Y0082622D01*
X0140693Y0082673D01*
X0140722Y0082725D01*
X0140749Y0082780D01*
X0140772Y0082835D01*
X0140792Y0082892D01*
X0140808Y0082951D01*
X0140821Y0083010D01*
X0140830Y0083069D01*
X0140835Y0083130D01*
X0140837Y0083190D01*
X0140837Y0086190D01*
X0140835Y0086250D01*
X0140830Y0086311D01*
X0140821Y0086370D01*
X0140808Y0086429D01*
X0140792Y0086488D01*
X0140772Y0086545D01*
X0140749Y0086600D01*
X0140722Y0086655D01*
X0140693Y0086707D01*
X0140660Y0086758D01*
X0140624Y0086807D01*
X0140586Y0086853D01*
X0140544Y0086897D01*
X0140500Y0086939D01*
X0140454Y0086977D01*
X0140405Y0087013D01*
X0140354Y0087046D01*
X0140302Y0087075D01*
X0140247Y0087102D01*
X0140192Y0087125D01*
X0140135Y0087145D01*
X0140076Y0087161D01*
X0140017Y0087174D01*
X0139958Y0087183D01*
X0139897Y0087188D01*
X0139837Y0087190D01*
X0131837Y0087190D01*
X0131777Y0087188D01*
X0131716Y0087183D01*
X0131657Y0087174D01*
X0131598Y0087161D01*
X0131539Y0087145D01*
X0131482Y0087125D01*
X0131427Y0087102D01*
X0131372Y0087075D01*
X0131320Y0087046D01*
X0131269Y0087013D01*
X0131220Y0086977D01*
X0131174Y0086939D01*
X0131130Y0086897D01*
X0131088Y0086853D01*
X0131050Y0086807D01*
X0131014Y0086758D01*
X0130981Y0086707D01*
X0130952Y0086655D01*
X0130925Y0086600D01*
X0130902Y0086545D01*
X0130882Y0086488D01*
X0130866Y0086429D01*
X0130853Y0086370D01*
X0130844Y0086311D01*
X0130839Y0086250D01*
X0130837Y0086190D01*
X0130837Y0083190D01*
X0130839Y0083130D01*
X0130844Y0083069D01*
X0130853Y0083010D01*
X0130866Y0082951D01*
X0130882Y0082892D01*
X0130902Y0082835D01*
X0130925Y0082780D01*
X0130952Y0082725D01*
X0130981Y0082673D01*
X0131014Y0082622D01*
X0131050Y0082573D01*
X0131088Y0082527D01*
X0131130Y0082483D01*
X0131174Y0082441D01*
X0131220Y0082403D01*
X0131269Y0082367D01*
X0131320Y0082334D01*
X0131372Y0082305D01*
X0131427Y0082278D01*
X0131482Y0082255D01*
X0131539Y0082235D01*
X0131598Y0082219D01*
X0131657Y0082206D01*
X0131716Y0082197D01*
X0131777Y0082192D01*
X0131837Y0082190D01*
X0131777Y0082192D01*
X0131716Y0082197D01*
X0131657Y0082206D01*
X0131598Y0082219D01*
X0131539Y0082235D01*
X0131482Y0082255D01*
X0131427Y0082278D01*
X0131372Y0082305D01*
X0131320Y0082334D01*
X0131269Y0082367D01*
X0131220Y0082403D01*
X0131174Y0082441D01*
X0131130Y0082483D01*
X0131088Y0082527D01*
X0131050Y0082573D01*
X0131014Y0082622D01*
X0130981Y0082673D01*
X0130952Y0082725D01*
X0130925Y0082780D01*
X0130902Y0082835D01*
X0130882Y0082892D01*
X0130866Y0082951D01*
X0130853Y0083010D01*
X0130844Y0083069D01*
X0130839Y0083130D01*
X0130837Y0083190D01*
X0130837Y0086190D02*
X0130839Y0086250D01*
X0130844Y0086311D01*
X0130853Y0086370D01*
X0130866Y0086429D01*
X0130882Y0086488D01*
X0130902Y0086545D01*
X0130925Y0086600D01*
X0130952Y0086655D01*
X0130981Y0086707D01*
X0131014Y0086758D01*
X0131050Y0086807D01*
X0131088Y0086853D01*
X0131130Y0086897D01*
X0131174Y0086939D01*
X0131220Y0086977D01*
X0131269Y0087013D01*
X0131320Y0087046D01*
X0131372Y0087075D01*
X0131427Y0087102D01*
X0131482Y0087125D01*
X0131539Y0087145D01*
X0131598Y0087161D01*
X0131657Y0087174D01*
X0131716Y0087183D01*
X0131777Y0087188D01*
X0131837Y0087190D01*
X0131837Y0092190D02*
X0139837Y0092190D01*
X0139897Y0092192D01*
X0139958Y0092197D01*
X0140017Y0092206D01*
X0140076Y0092219D01*
X0140135Y0092235D01*
X0140192Y0092255D01*
X0140247Y0092278D01*
X0140302Y0092305D01*
X0140354Y0092334D01*
X0140405Y0092367D01*
X0140454Y0092403D01*
X0140500Y0092441D01*
X0140544Y0092483D01*
X0140586Y0092527D01*
X0140624Y0092573D01*
X0140660Y0092622D01*
X0140693Y0092673D01*
X0140722Y0092725D01*
X0140749Y0092780D01*
X0140772Y0092835D01*
X0140792Y0092892D01*
X0140808Y0092951D01*
X0140821Y0093010D01*
X0140830Y0093069D01*
X0140835Y0093130D01*
X0140837Y0093190D01*
X0140837Y0096190D01*
X0140835Y0096250D01*
X0140830Y0096311D01*
X0140821Y0096370D01*
X0140808Y0096429D01*
X0140792Y0096488D01*
X0140772Y0096545D01*
X0140749Y0096600D01*
X0140722Y0096655D01*
X0140693Y0096707D01*
X0140660Y0096758D01*
X0140624Y0096807D01*
X0140586Y0096853D01*
X0140544Y0096897D01*
X0140500Y0096939D01*
X0140454Y0096977D01*
X0140405Y0097013D01*
X0140354Y0097046D01*
X0140302Y0097075D01*
X0140247Y0097102D01*
X0140192Y0097125D01*
X0140135Y0097145D01*
X0140076Y0097161D01*
X0140017Y0097174D01*
X0139958Y0097183D01*
X0139897Y0097188D01*
X0139837Y0097190D01*
X0131837Y0097190D01*
X0131777Y0097188D01*
X0131716Y0097183D01*
X0131657Y0097174D01*
X0131598Y0097161D01*
X0131539Y0097145D01*
X0131482Y0097125D01*
X0131427Y0097102D01*
X0131372Y0097075D01*
X0131320Y0097046D01*
X0131269Y0097013D01*
X0131220Y0096977D01*
X0131174Y0096939D01*
X0131130Y0096897D01*
X0131088Y0096853D01*
X0131050Y0096807D01*
X0131014Y0096758D01*
X0130981Y0096707D01*
X0130952Y0096655D01*
X0130925Y0096600D01*
X0130902Y0096545D01*
X0130882Y0096488D01*
X0130866Y0096429D01*
X0130853Y0096370D01*
X0130844Y0096311D01*
X0130839Y0096250D01*
X0130837Y0096190D01*
X0130837Y0093190D01*
X0130839Y0093130D01*
X0130844Y0093069D01*
X0130853Y0093010D01*
X0130866Y0092951D01*
X0130882Y0092892D01*
X0130902Y0092835D01*
X0130925Y0092780D01*
X0130952Y0092725D01*
X0130981Y0092673D01*
X0131014Y0092622D01*
X0131050Y0092573D01*
X0131088Y0092527D01*
X0131130Y0092483D01*
X0131174Y0092441D01*
X0131220Y0092403D01*
X0131269Y0092367D01*
X0131320Y0092334D01*
X0131372Y0092305D01*
X0131427Y0092278D01*
X0131482Y0092255D01*
X0131539Y0092235D01*
X0131598Y0092219D01*
X0131657Y0092206D01*
X0131716Y0092197D01*
X0131777Y0092192D01*
X0131837Y0092190D01*
X0131777Y0092192D01*
X0131716Y0092197D01*
X0131657Y0092206D01*
X0131598Y0092219D01*
X0131539Y0092235D01*
X0131482Y0092255D01*
X0131427Y0092278D01*
X0131372Y0092305D01*
X0131320Y0092334D01*
X0131269Y0092367D01*
X0131220Y0092403D01*
X0131174Y0092441D01*
X0131130Y0092483D01*
X0131088Y0092527D01*
X0131050Y0092573D01*
X0131014Y0092622D01*
X0130981Y0092673D01*
X0130952Y0092725D01*
X0130925Y0092780D01*
X0130902Y0092835D01*
X0130882Y0092892D01*
X0130866Y0092951D01*
X0130853Y0093010D01*
X0130844Y0093069D01*
X0130839Y0093130D01*
X0130837Y0093190D01*
X0130837Y0096190D02*
X0130839Y0096250D01*
X0130844Y0096311D01*
X0130853Y0096370D01*
X0130866Y0096429D01*
X0130882Y0096488D01*
X0130902Y0096545D01*
X0130925Y0096600D01*
X0130952Y0096655D01*
X0130981Y0096707D01*
X0131014Y0096758D01*
X0131050Y0096807D01*
X0131088Y0096853D01*
X0131130Y0096897D01*
X0131174Y0096939D01*
X0131220Y0096977D01*
X0131269Y0097013D01*
X0131320Y0097046D01*
X0131372Y0097075D01*
X0131427Y0097102D01*
X0131482Y0097125D01*
X0131539Y0097145D01*
X0131598Y0097161D01*
X0131657Y0097174D01*
X0131716Y0097183D01*
X0131777Y0097188D01*
X0131837Y0097190D01*
X0139837Y0097190D02*
X0139897Y0097188D01*
X0139958Y0097183D01*
X0140017Y0097174D01*
X0140076Y0097161D01*
X0140135Y0097145D01*
X0140192Y0097125D01*
X0140247Y0097102D01*
X0140302Y0097075D01*
X0140354Y0097046D01*
X0140405Y0097013D01*
X0140454Y0096977D01*
X0140500Y0096939D01*
X0140544Y0096897D01*
X0140586Y0096853D01*
X0140624Y0096807D01*
X0140660Y0096758D01*
X0140693Y0096707D01*
X0140722Y0096655D01*
X0140749Y0096600D01*
X0140772Y0096545D01*
X0140792Y0096488D01*
X0140808Y0096429D01*
X0140821Y0096370D01*
X0140830Y0096311D01*
X0140835Y0096250D01*
X0140837Y0096190D01*
X0140837Y0093190D02*
X0140835Y0093130D01*
X0140830Y0093069D01*
X0140821Y0093010D01*
X0140808Y0092951D01*
X0140792Y0092892D01*
X0140772Y0092835D01*
X0140749Y0092780D01*
X0140722Y0092725D01*
X0140693Y0092673D01*
X0140660Y0092622D01*
X0140624Y0092573D01*
X0140586Y0092527D01*
X0140544Y0092483D01*
X0140500Y0092441D01*
X0140454Y0092403D01*
X0140405Y0092367D01*
X0140354Y0092334D01*
X0140302Y0092305D01*
X0140247Y0092278D01*
X0140192Y0092255D01*
X0140135Y0092235D01*
X0140076Y0092219D01*
X0140017Y0092206D01*
X0139958Y0092197D01*
X0139897Y0092192D01*
X0139837Y0092190D01*
X0139837Y0087190D02*
X0139897Y0087188D01*
X0139958Y0087183D01*
X0140017Y0087174D01*
X0140076Y0087161D01*
X0140135Y0087145D01*
X0140192Y0087125D01*
X0140247Y0087102D01*
X0140302Y0087075D01*
X0140354Y0087046D01*
X0140405Y0087013D01*
X0140454Y0086977D01*
X0140500Y0086939D01*
X0140544Y0086897D01*
X0140586Y0086853D01*
X0140624Y0086807D01*
X0140660Y0086758D01*
X0140693Y0086707D01*
X0140722Y0086655D01*
X0140749Y0086600D01*
X0140772Y0086545D01*
X0140792Y0086488D01*
X0140808Y0086429D01*
X0140821Y0086370D01*
X0140830Y0086311D01*
X0140835Y0086250D01*
X0140837Y0086190D01*
X0140837Y0083190D02*
X0140835Y0083130D01*
X0140830Y0083069D01*
X0140821Y0083010D01*
X0140808Y0082951D01*
X0140792Y0082892D01*
X0140772Y0082835D01*
X0140749Y0082780D01*
X0140722Y0082725D01*
X0140693Y0082673D01*
X0140660Y0082622D01*
X0140624Y0082573D01*
X0140586Y0082527D01*
X0140544Y0082483D01*
X0140500Y0082441D01*
X0140454Y0082403D01*
X0140405Y0082367D01*
X0140354Y0082334D01*
X0140302Y0082305D01*
X0140247Y0082278D01*
X0140192Y0082255D01*
X0140135Y0082235D01*
X0140076Y0082219D01*
X0140017Y0082206D01*
X0139958Y0082197D01*
X0139897Y0082192D01*
X0139837Y0082190D01*
X0141837Y0120690D02*
X0143837Y0120690D01*
X0143837Y0124690D01*
X0143837Y0128690D01*
X0141837Y0128690D01*
X0141837Y0120690D01*
X0144837Y0122190D02*
X0146837Y0122190D01*
X0145837Y0123190D02*
X0145837Y0121190D01*
X0146337Y0124690D02*
X0143837Y0124690D01*
X0152137Y0130033D02*
X0152004Y0130306D01*
X0151864Y0130575D01*
X0151718Y0130841D01*
X0151566Y0131104D01*
X0151407Y0131362D01*
X0151242Y0131617D01*
X0151070Y0131867D01*
X0150893Y0132114D01*
X0150710Y0132356D01*
X0150521Y0132593D01*
X0150326Y0132826D01*
X0150126Y0133054D01*
X0149920Y0133277D01*
X0149709Y0133495D01*
X0149492Y0133708D01*
X0149271Y0133915D01*
X0149044Y0134117D01*
X0148813Y0134314D01*
X0148577Y0134505D01*
X0148336Y0134690D01*
X0148091Y0134869D01*
X0147842Y0135042D01*
X0147589Y0135209D01*
X0147331Y0135370D01*
X0147070Y0135524D01*
X0146805Y0135672D01*
X0146537Y0135814D01*
X0146265Y0135949D01*
X0145990Y0136077D01*
X0145712Y0136199D01*
X0145431Y0136314D01*
X0145147Y0136422D01*
X0144861Y0136523D01*
X0144573Y0136618D01*
X0144282Y0136705D01*
X0143989Y0136785D01*
X0143695Y0136858D01*
X0143399Y0136924D01*
X0143101Y0136982D01*
X0142802Y0137034D01*
X0142501Y0137078D01*
X0142200Y0137114D01*
X0141898Y0137144D01*
X0141595Y0137166D01*
X0141292Y0137181D01*
X0140989Y0137188D01*
X0140685Y0137188D01*
X0140382Y0137181D01*
X0140079Y0137166D01*
X0139776Y0137144D01*
X0139474Y0137114D01*
X0139173Y0137078D01*
X0138872Y0137034D01*
X0138573Y0136982D01*
X0138275Y0136924D01*
X0137979Y0136858D01*
X0137685Y0136785D01*
X0137392Y0136705D01*
X0137101Y0136618D01*
X0136813Y0136523D01*
X0136527Y0136422D01*
X0136243Y0136314D01*
X0135962Y0136199D01*
X0135684Y0136077D01*
X0135409Y0135949D01*
X0135137Y0135814D01*
X0134869Y0135672D01*
X0134604Y0135524D01*
X0134343Y0135370D01*
X0134085Y0135209D01*
X0133832Y0135042D01*
X0133583Y0134869D01*
X0133338Y0134690D01*
X0133097Y0134505D01*
X0132861Y0134314D01*
X0132630Y0134117D01*
X0132403Y0133915D01*
X0132182Y0133708D01*
X0131965Y0133495D01*
X0131754Y0133277D01*
X0131548Y0133054D01*
X0131348Y0132826D01*
X0131153Y0132593D01*
X0130964Y0132356D01*
X0130781Y0132114D01*
X0130604Y0131867D01*
X0130432Y0131617D01*
X0130267Y0131362D01*
X0130108Y0131104D01*
X0129956Y0130841D01*
X0129810Y0130575D01*
X0129670Y0130306D01*
X0129537Y0130033D01*
X0135337Y0124690D02*
X0138337Y0124690D01*
X0129537Y0119346D02*
X0129670Y0119073D01*
X0129810Y0118804D01*
X0129956Y0118538D01*
X0130108Y0118275D01*
X0130267Y0118017D01*
X0130432Y0117762D01*
X0130604Y0117512D01*
X0130781Y0117265D01*
X0130964Y0117023D01*
X0131153Y0116786D01*
X0131348Y0116553D01*
X0131548Y0116325D01*
X0131754Y0116102D01*
X0131965Y0115884D01*
X0132182Y0115671D01*
X0132403Y0115464D01*
X0132630Y0115262D01*
X0132861Y0115065D01*
X0133097Y0114874D01*
X0133338Y0114689D01*
X0133583Y0114510D01*
X0133832Y0114337D01*
X0134085Y0114170D01*
X0134343Y0114009D01*
X0134604Y0113855D01*
X0134869Y0113707D01*
X0135137Y0113565D01*
X0135409Y0113430D01*
X0135684Y0113302D01*
X0135962Y0113180D01*
X0136243Y0113065D01*
X0136527Y0112957D01*
X0136813Y0112856D01*
X0137101Y0112761D01*
X0137392Y0112674D01*
X0137685Y0112594D01*
X0137979Y0112521D01*
X0138275Y0112455D01*
X0138573Y0112397D01*
X0138872Y0112345D01*
X0139173Y0112301D01*
X0139474Y0112265D01*
X0139776Y0112235D01*
X0140079Y0112213D01*
X0140382Y0112198D01*
X0140685Y0112191D01*
X0140989Y0112191D01*
X0141292Y0112198D01*
X0141595Y0112213D01*
X0141898Y0112235D01*
X0142200Y0112265D01*
X0142501Y0112301D01*
X0142802Y0112345D01*
X0143101Y0112397D01*
X0143399Y0112455D01*
X0143695Y0112521D01*
X0143989Y0112594D01*
X0144282Y0112674D01*
X0144573Y0112761D01*
X0144861Y0112856D01*
X0145147Y0112957D01*
X0145431Y0113065D01*
X0145712Y0113180D01*
X0145990Y0113302D01*
X0146265Y0113430D01*
X0146537Y0113565D01*
X0146805Y0113707D01*
X0147070Y0113855D01*
X0147331Y0114009D01*
X0147589Y0114170D01*
X0147842Y0114337D01*
X0148091Y0114510D01*
X0148336Y0114689D01*
X0148577Y0114874D01*
X0148813Y0115065D01*
X0149044Y0115262D01*
X0149271Y0115464D01*
X0149492Y0115671D01*
X0149709Y0115884D01*
X0149920Y0116102D01*
X0150126Y0116325D01*
X0150326Y0116553D01*
X0150521Y0116786D01*
X0150710Y0117023D01*
X0150893Y0117265D01*
X0151070Y0117512D01*
X0151242Y0117762D01*
X0151407Y0118017D01*
X0151566Y0118275D01*
X0151718Y0118538D01*
X0151864Y0118804D01*
X0152004Y0119073D01*
X0152137Y0119346D01*
D11*
X0152511Y0100791D02*
X0153979Y0098590D01*
X0153979Y0100791D01*
X0154721Y0100057D02*
X0155455Y0100791D01*
X0156189Y0100057D01*
X0156189Y0098590D01*
X0156931Y0098590D02*
X0156931Y0100791D01*
X0157665Y0100057D01*
X0158399Y0100791D01*
X0158399Y0098590D01*
X0159141Y0098590D02*
X0159141Y0100791D01*
X0160609Y0100791D01*
X0159875Y0099690D02*
X0159141Y0099690D01*
X0159141Y0098590D02*
X0160609Y0098590D01*
X0160246Y0095791D02*
X0160246Y0093590D01*
X0161714Y0093590D01*
X0160980Y0094690D02*
X0160246Y0094690D01*
X0159504Y0093957D02*
X0159504Y0095791D01*
X0160246Y0095791D02*
X0161714Y0095791D01*
X0159504Y0093957D02*
X0159137Y0093590D01*
X0158403Y0093590D01*
X0158036Y0093957D01*
X0158036Y0095791D01*
X0155826Y0095791D02*
X0155826Y0093590D01*
X0157294Y0093590D01*
X0155084Y0093590D02*
X0155084Y0095057D01*
X0154350Y0095791D01*
X0153616Y0095057D01*
X0153616Y0093590D01*
X0152874Y0094323D02*
X0152874Y0095791D01*
X0153616Y0094690D02*
X0155084Y0094690D01*
X0152874Y0094323D02*
X0152140Y0093590D01*
X0151406Y0094323D01*
X0151406Y0095791D01*
X0150664Y0094690D02*
X0149196Y0093590D01*
X0150664Y0094690D02*
X0149196Y0095791D01*
X0150301Y0098590D02*
X0151769Y0099690D01*
X0150301Y0100791D01*
X0152511Y0100791D02*
X0152511Y0098590D01*
X0154721Y0098590D02*
X0154721Y0100057D01*
X0154721Y0099690D02*
X0156189Y0099690D01*
X0155455Y0090791D02*
X0156189Y0090057D01*
X0156189Y0088590D01*
X0156931Y0088590D02*
X0156931Y0090791D01*
X0157665Y0090057D01*
X0158399Y0090791D01*
X0158399Y0088590D01*
X0159141Y0088590D02*
X0159141Y0090791D01*
X0160609Y0090791D01*
X0159875Y0089690D02*
X0159141Y0089690D01*
X0159141Y0088590D02*
X0160609Y0088590D01*
X0160246Y0085791D02*
X0160246Y0083590D01*
X0161714Y0083590D01*
X0160980Y0084690D02*
X0160246Y0084690D01*
X0159504Y0083957D02*
X0159504Y0085791D01*
X0160246Y0085791D02*
X0161714Y0085791D01*
X0159504Y0083957D02*
X0159137Y0083590D01*
X0158403Y0083590D01*
X0158036Y0083957D01*
X0158036Y0085791D01*
X0158732Y0085091D02*
X0157265Y0085091D01*
X0157265Y0082890D01*
X0158732Y0082890D01*
X0157999Y0083990D02*
X0157265Y0083990D01*
X0157294Y0083590D02*
X0155826Y0083590D01*
X0155826Y0085791D01*
X0156523Y0085091D02*
X0156523Y0083257D01*
X0156156Y0082890D01*
X0155422Y0082890D01*
X0155055Y0083257D01*
X0155055Y0085091D01*
X0155084Y0085057D02*
X0155084Y0083590D01*
X0154313Y0082890D02*
X0152845Y0082890D01*
X0152845Y0085091D01*
X0152874Y0085791D02*
X0152874Y0084323D01*
X0152140Y0083590D01*
X0151406Y0084323D01*
X0151406Y0085791D01*
X0151369Y0085091D02*
X0152103Y0084357D01*
X0152103Y0082890D01*
X0152103Y0083990D02*
X0150635Y0083990D01*
X0150635Y0084357D02*
X0151369Y0085091D01*
X0150664Y0084690D02*
X0149196Y0083590D01*
X0149893Y0083623D02*
X0149893Y0085091D01*
X0150664Y0084690D02*
X0149196Y0085791D01*
X0148425Y0085091D02*
X0148425Y0083623D01*
X0149159Y0082890D01*
X0149893Y0083623D01*
X0150635Y0082890D02*
X0150635Y0084357D01*
X0153616Y0084690D02*
X0155084Y0084690D01*
X0155084Y0085057D02*
X0154350Y0085791D01*
X0153616Y0085057D01*
X0153616Y0083590D01*
X0153979Y0088590D02*
X0153979Y0090791D01*
X0154721Y0090057D02*
X0154721Y0088590D01*
X0153979Y0088590D02*
X0152511Y0090791D01*
X0152511Y0088590D01*
X0151769Y0089690D02*
X0150301Y0090791D01*
X0151769Y0089690D02*
X0150301Y0088590D01*
X0154721Y0089690D02*
X0156189Y0089690D01*
X0155455Y0090791D02*
X0154721Y0090057D01*
X0147683Y0083990D02*
X0146215Y0082890D01*
X0147683Y0083990D02*
X0146215Y0085091D01*
X0165301Y0085511D02*
X0166769Y0084410D01*
X0165301Y0083310D01*
X0167511Y0083310D02*
X0167511Y0085511D01*
X0168979Y0083310D01*
X0168979Y0085511D01*
X0169721Y0084777D02*
X0169721Y0083310D01*
X0169721Y0084410D02*
X0171189Y0084410D01*
X0171189Y0084777D02*
X0171189Y0083310D01*
X0171931Y0083310D02*
X0171931Y0085511D01*
X0172665Y0084777D01*
X0173399Y0085511D01*
X0173399Y0083310D01*
X0174141Y0083310D02*
X0174141Y0085511D01*
X0175609Y0085511D01*
X0174875Y0084410D02*
X0174141Y0084410D01*
X0174141Y0083310D02*
X0175609Y0083310D01*
X0171189Y0084777D02*
X0170455Y0085511D01*
X0169721Y0084777D01*
X0166023Y0065691D02*
X0164555Y0065691D01*
X0164555Y0063490D01*
X0166023Y0063490D01*
X0164555Y0063490D01*
X0164555Y0065691D01*
X0166023Y0065691D01*
X0165289Y0064590D02*
X0164555Y0064590D01*
X0165289Y0064590D01*
X0163813Y0063490D02*
X0163813Y0065691D01*
X0163079Y0064957D01*
X0162345Y0065691D01*
X0162345Y0063490D01*
X0162345Y0065691D01*
X0163079Y0064957D01*
X0163813Y0065691D01*
X0163813Y0063490D01*
X0161603Y0063490D02*
X0161603Y0064957D01*
X0160869Y0065691D01*
X0160135Y0064957D01*
X0160135Y0063490D01*
X0160135Y0064957D01*
X0160869Y0065691D01*
X0161603Y0064957D01*
X0161603Y0063490D01*
X0161603Y0064590D02*
X0160135Y0064590D01*
X0161603Y0064590D01*
X0159393Y0063490D02*
X0159393Y0065691D01*
X0159393Y0063490D01*
X0157925Y0065691D01*
X0157925Y0063490D01*
X0157925Y0065691D01*
X0159393Y0063490D01*
X0157183Y0064590D02*
X0155715Y0063490D01*
X0157183Y0064590D01*
X0155715Y0065691D01*
X0157183Y0064590D01*
X0159315Y0058691D02*
X0160783Y0057590D01*
X0159315Y0056490D01*
X0160783Y0057590D01*
X0159315Y0058691D01*
X0161525Y0058691D02*
X0161525Y0057223D01*
X0162259Y0056490D01*
X0162993Y0057223D01*
X0162993Y0058691D01*
X0162993Y0057223D01*
X0162259Y0056490D01*
X0161525Y0057223D01*
X0161525Y0058691D01*
X0163735Y0057957D02*
X0164469Y0058691D01*
X0165203Y0057957D01*
X0165203Y0056490D01*
X0165203Y0057957D01*
X0164469Y0058691D01*
X0163735Y0057957D01*
X0163735Y0056490D01*
X0163735Y0057957D01*
X0163735Y0057590D02*
X0165203Y0057590D01*
X0163735Y0057590D01*
X0165945Y0056490D02*
X0165945Y0058691D01*
X0165945Y0056490D01*
X0167413Y0056490D01*
X0165945Y0056490D01*
X0168155Y0056857D02*
X0168155Y0058691D01*
X0168155Y0056857D01*
X0168522Y0056490D01*
X0169256Y0056490D01*
X0169623Y0056857D01*
X0169623Y0058691D01*
X0169623Y0056857D01*
X0169256Y0056490D01*
X0168522Y0056490D01*
X0168155Y0056857D01*
X0170365Y0056490D02*
X0170365Y0058691D01*
X0171832Y0058691D01*
X0170365Y0058691D01*
X0170365Y0056490D01*
X0171832Y0056490D01*
X0170365Y0056490D01*
X0170365Y0057590D02*
X0171099Y0057590D01*
X0170365Y0057590D01*
X0156523Y0056991D02*
X0155055Y0056991D01*
X0155055Y0054790D01*
X0156523Y0054790D01*
X0155789Y0055890D02*
X0155055Y0055890D01*
X0154313Y0054790D02*
X0154313Y0056991D01*
X0153579Y0056257D01*
X0152845Y0056991D01*
X0152845Y0054790D01*
X0152103Y0054790D02*
X0152103Y0056257D01*
X0151369Y0056991D01*
X0150635Y0056257D01*
X0150635Y0054790D01*
X0149893Y0054790D02*
X0149893Y0056991D01*
X0150635Y0055890D02*
X0152103Y0055890D01*
X0149893Y0054790D02*
X0148425Y0056991D01*
X0148425Y0054790D01*
X0147683Y0055890D02*
X0146215Y0056991D01*
X0147683Y0055890D02*
X0146215Y0054790D01*
X0128232Y0057540D02*
X0126765Y0057540D01*
X0126765Y0059741D01*
X0128232Y0059741D01*
X0127499Y0058640D02*
X0126765Y0058640D01*
X0126023Y0057907D02*
X0126023Y0059741D01*
X0124555Y0059741D02*
X0124555Y0057907D01*
X0124922Y0057540D01*
X0125656Y0057540D01*
X0126023Y0057907D01*
X0123813Y0057540D02*
X0122345Y0057540D01*
X0122345Y0059741D01*
X0121603Y0059007D02*
X0121603Y0057540D01*
X0121603Y0058640D02*
X0120135Y0058640D01*
X0120135Y0059007D02*
X0120869Y0059741D01*
X0121603Y0059007D01*
X0120135Y0059007D02*
X0120135Y0057540D01*
X0119393Y0058273D02*
X0118659Y0057540D01*
X0117925Y0058273D01*
X0117925Y0059741D01*
X0117183Y0058640D02*
X0115715Y0057540D01*
X0117183Y0058640D02*
X0115715Y0059741D01*
X0119393Y0059741D02*
X0119393Y0058273D01*
X0116023Y0083390D02*
X0114555Y0083390D01*
X0114555Y0085591D01*
X0116023Y0085591D01*
X0115289Y0084490D02*
X0114555Y0084490D01*
X0113813Y0083390D02*
X0113813Y0085591D01*
X0113079Y0084857D01*
X0112345Y0085591D01*
X0112345Y0083390D01*
X0111603Y0083390D02*
X0111603Y0084857D01*
X0110869Y0085591D01*
X0110135Y0084857D01*
X0110135Y0083390D01*
X0109393Y0083390D02*
X0109393Y0085591D01*
X0110135Y0084490D02*
X0111603Y0084490D01*
X0109393Y0083390D02*
X0107925Y0085591D01*
X0107925Y0083390D01*
X0107183Y0084490D02*
X0105715Y0085591D01*
X0107183Y0084490D02*
X0105715Y0083390D01*
X0105826Y0103590D02*
X0107294Y0103590D01*
X0108036Y0103957D02*
X0108403Y0103590D01*
X0109137Y0103590D01*
X0109504Y0103957D01*
X0109504Y0105791D01*
X0110246Y0105791D02*
X0110246Y0103590D01*
X0111714Y0103590D01*
X0110980Y0104690D02*
X0110246Y0104690D01*
X0110246Y0105791D02*
X0111714Y0105791D01*
X0110609Y0108590D02*
X0109141Y0108590D01*
X0109141Y0110791D01*
X0110609Y0110791D01*
X0109875Y0109690D02*
X0109141Y0109690D01*
X0108399Y0108590D02*
X0108399Y0110791D01*
X0107665Y0110057D01*
X0106931Y0110791D01*
X0106931Y0108590D01*
X0106189Y0108590D02*
X0106189Y0110057D01*
X0105455Y0110791D01*
X0104721Y0110057D01*
X0104721Y0108590D01*
X0103979Y0108590D02*
X0103979Y0110791D01*
X0104721Y0109690D02*
X0106189Y0109690D01*
X0103979Y0108590D02*
X0102511Y0110791D01*
X0102511Y0108590D01*
X0101769Y0109690D02*
X0100301Y0110791D01*
X0101769Y0109690D02*
X0100301Y0108590D01*
X0099196Y0105791D02*
X0100664Y0104690D01*
X0099196Y0103590D01*
X0101406Y0104323D02*
X0102140Y0103590D01*
X0102874Y0104323D01*
X0102874Y0105791D01*
X0103616Y0105057D02*
X0104350Y0105791D01*
X0105084Y0105057D01*
X0105084Y0103590D01*
X0105826Y0103590D02*
X0105826Y0105791D01*
X0105084Y0104690D02*
X0103616Y0104690D01*
X0103616Y0105057D02*
X0103616Y0103590D01*
X0101406Y0104323D02*
X0101406Y0105791D01*
X0108036Y0105791D02*
X0108036Y0103957D01*
X0117888Y0111790D02*
X0119356Y0112890D01*
X0117888Y0113991D01*
X0120098Y0113991D02*
X0120098Y0111790D01*
X0121566Y0111790D02*
X0120098Y0113991D01*
X0121566Y0113991D02*
X0121566Y0111790D01*
X0122307Y0111790D02*
X0122307Y0113257D01*
X0123041Y0113991D01*
X0123775Y0113257D01*
X0123775Y0111790D01*
X0124517Y0111790D02*
X0124517Y0113991D01*
X0125251Y0113257D01*
X0125985Y0113991D01*
X0125985Y0111790D01*
X0126727Y0111790D02*
X0128195Y0111790D01*
X0127461Y0112890D02*
X0126727Y0112890D01*
X0126727Y0111790D02*
X0126727Y0113991D01*
X0128195Y0113991D01*
X0123775Y0112890D02*
X0122307Y0112890D01*
X0122307Y0130290D02*
X0123775Y0130290D01*
X0124517Y0130657D02*
X0124884Y0130290D01*
X0125618Y0130290D01*
X0125985Y0130657D01*
X0125985Y0132491D01*
X0126727Y0132491D02*
X0126727Y0130290D01*
X0128195Y0130290D01*
X0127461Y0131390D02*
X0126727Y0131390D01*
X0126727Y0132491D02*
X0128195Y0132491D01*
X0124517Y0132491D02*
X0124517Y0130657D01*
X0122307Y0130290D02*
X0122307Y0132491D01*
X0121566Y0131757D02*
X0120832Y0132491D01*
X0120098Y0131757D01*
X0120098Y0130290D01*
X0119356Y0131023D02*
X0119356Y0132491D01*
X0120098Y0131390D02*
X0121566Y0131390D01*
X0121566Y0131757D02*
X0121566Y0130290D01*
X0119356Y0131023D02*
X0118622Y0130290D01*
X0117888Y0131023D01*
X0117888Y0132491D01*
X0117146Y0131390D02*
X0115678Y0130290D01*
X0117146Y0131390D02*
X0115678Y0132491D01*
X0055195Y0101841D02*
X0053727Y0101841D01*
X0053727Y0099640D01*
X0055195Y0099640D01*
X0054461Y0100740D02*
X0053727Y0100740D01*
X0052985Y0100007D02*
X0052985Y0101841D01*
X0051517Y0101841D02*
X0051517Y0100007D01*
X0051884Y0099640D01*
X0052618Y0099640D01*
X0052985Y0100007D01*
X0050775Y0099640D02*
X0049307Y0099640D01*
X0049307Y0101841D01*
X0048566Y0101107D02*
X0048566Y0099640D01*
X0048566Y0100740D02*
X0047098Y0100740D01*
X0047098Y0101107D02*
X0047832Y0101841D01*
X0048566Y0101107D01*
X0047098Y0101107D02*
X0047098Y0099640D01*
X0046356Y0100373D02*
X0046356Y0101841D01*
X0046356Y0100373D02*
X0045622Y0099640D01*
X0044888Y0100373D01*
X0044888Y0101841D01*
X0044146Y0100740D02*
X0042678Y0099640D01*
X0044146Y0100740D02*
X0042678Y0101841D01*
X0041678Y0108590D02*
X0043146Y0109690D01*
X0041678Y0110791D01*
X0043888Y0110791D02*
X0043888Y0109323D01*
X0044622Y0108590D01*
X0045356Y0109323D01*
X0045356Y0110791D01*
X0046098Y0110057D02*
X0046832Y0110791D01*
X0047566Y0110057D01*
X0047566Y0108590D01*
X0048307Y0108590D02*
X0049775Y0108590D01*
X0050517Y0108957D02*
X0050884Y0108590D01*
X0051618Y0108590D01*
X0051985Y0108957D01*
X0051985Y0110791D01*
X0052727Y0110791D02*
X0052727Y0108590D01*
X0054195Y0108590D01*
X0053461Y0109690D02*
X0052727Y0109690D01*
X0052727Y0110791D02*
X0054195Y0110791D01*
X0050517Y0110791D02*
X0050517Y0108957D01*
X0048307Y0108590D02*
X0048307Y0110791D01*
X0047566Y0109690D02*
X0046098Y0109690D01*
X0046098Y0110057D02*
X0046098Y0108590D01*
X0054888Y0075991D02*
X0056356Y0074890D01*
X0054888Y0073790D01*
X0057098Y0073790D02*
X0057098Y0075991D01*
X0058566Y0073790D01*
X0058566Y0075991D01*
X0059307Y0075257D02*
X0060041Y0075991D01*
X0060775Y0075257D01*
X0060775Y0073790D01*
X0061517Y0073790D02*
X0061517Y0075991D01*
X0062251Y0075257D01*
X0062985Y0075991D01*
X0062985Y0073790D01*
X0063727Y0073790D02*
X0065195Y0073790D01*
X0064461Y0074890D02*
X0063727Y0074890D01*
X0063727Y0073790D02*
X0063727Y0075991D01*
X0065195Y0075991D01*
X0060775Y0074890D02*
X0059307Y0074890D01*
X0059307Y0075257D02*
X0059307Y0073790D01*
X0049637Y0070566D02*
X0049637Y0069098D01*
X0047435Y0069098D01*
X0047435Y0070566D01*
X0048536Y0069832D02*
X0048536Y0069098D01*
X0049270Y0068356D02*
X0047435Y0068356D01*
X0047435Y0066888D02*
X0049270Y0066888D01*
X0049637Y0067255D01*
X0049637Y0067989D01*
X0049270Y0068356D01*
X0049637Y0066146D02*
X0049637Y0064678D01*
X0047435Y0064678D01*
X0048169Y0063936D02*
X0049637Y0063936D01*
X0048536Y0063936D02*
X0048536Y0062468D01*
X0048169Y0062468D02*
X0047435Y0063202D01*
X0048169Y0063936D01*
X0048169Y0062468D02*
X0049637Y0062468D01*
X0048903Y0061726D02*
X0047435Y0061726D01*
X0047435Y0060259D02*
X0048903Y0060259D01*
X0049637Y0060993D01*
X0048903Y0061726D01*
X0048536Y0059517D02*
X0049637Y0058049D01*
X0048536Y0059517D02*
X0047435Y0058049D01*
X0196715Y0050791D02*
X0198183Y0049690D01*
X0196715Y0048590D01*
X0198925Y0049323D02*
X0199659Y0048590D01*
X0200393Y0049323D01*
X0200393Y0050791D01*
X0201135Y0050057D02*
X0201135Y0048590D01*
X0201135Y0049690D02*
X0202603Y0049690D01*
X0202603Y0050057D02*
X0202603Y0048590D01*
X0203345Y0048590D02*
X0203345Y0050791D01*
X0202603Y0050057D02*
X0201869Y0050791D01*
X0201135Y0050057D01*
X0203345Y0048590D02*
X0204813Y0048590D01*
X0205555Y0048957D02*
X0205555Y0050791D01*
X0207023Y0050791D02*
X0207023Y0048957D01*
X0206656Y0048590D01*
X0205922Y0048590D01*
X0205555Y0048957D01*
X0207765Y0048590D02*
X0207765Y0050791D01*
X0209232Y0050791D01*
X0208499Y0049690D02*
X0207765Y0049690D01*
X0207765Y0048590D02*
X0209232Y0048590D01*
X0198925Y0049323D02*
X0198925Y0050791D01*
X0199659Y0068590D02*
X0200393Y0069323D01*
X0200393Y0070791D01*
X0201135Y0070057D02*
X0201869Y0070791D01*
X0202603Y0070057D01*
X0202603Y0068590D01*
X0203345Y0068590D02*
X0204813Y0068590D01*
X0205555Y0068957D02*
X0205922Y0068590D01*
X0206656Y0068590D01*
X0207023Y0068957D01*
X0207023Y0070791D01*
X0207765Y0070791D02*
X0207765Y0068590D01*
X0209232Y0068590D01*
X0208499Y0069690D02*
X0207765Y0069690D01*
X0207765Y0070791D02*
X0209232Y0070791D01*
X0205555Y0070791D02*
X0205555Y0068957D01*
X0203345Y0068590D02*
X0203345Y0070791D01*
X0202603Y0069690D02*
X0201135Y0069690D01*
X0201135Y0070057D02*
X0201135Y0068590D01*
X0199659Y0068590D02*
X0198925Y0069323D01*
X0198925Y0070791D01*
X0198183Y0069690D02*
X0196715Y0068590D01*
X0198183Y0069690D02*
X0196715Y0070791D01*
D12*
X0070837Y0068190D03*
X0060837Y0091190D03*
D13*
X0138837Y0124690D03*
D14*
X0125334Y0106867D02*
X0123399Y0106867D01*
X0123399Y0103965D01*
X0125334Y0103965D01*
X0124367Y0103966D02*
X0123399Y0103966D01*
X0122387Y0104448D02*
X0122387Y0106867D01*
X0122387Y0105417D02*
X0122387Y0102998D01*
X0121904Y0102515D01*
X0120936Y0102515D01*
X0120453Y0102998D01*
X0120453Y0105417D01*
X0120453Y0104448D02*
X0120936Y0103965D01*
X0121904Y0103965D01*
X0122387Y0104448D01*
X0123399Y0105416D02*
X0124367Y0105416D01*
X0125334Y0105417D02*
X0123399Y0105417D01*
X0123399Y0102515D01*
X0125334Y0102515D01*
X0120453Y0104448D02*
X0120453Y0106867D01*
X0117506Y0106867D02*
X0117506Y0103965D01*
X0119441Y0103965D01*
X0119441Y0102515D02*
X0117506Y0102515D01*
X0117506Y0105417D01*
X0116494Y0105416D02*
X0114559Y0105416D01*
X0114559Y0105900D02*
X0114559Y0103965D01*
X0114559Y0103966D02*
X0116494Y0103966D01*
X0116494Y0103965D02*
X0116494Y0105900D01*
X0115527Y0106867D01*
X0114559Y0105900D01*
X0115527Y0105417D02*
X0116494Y0104450D01*
X0116494Y0102515D01*
X0114559Y0102515D02*
X0114559Y0104450D01*
X0115527Y0105417D01*
X0113548Y0105417D02*
X0113548Y0103482D01*
X0112580Y0102515D01*
X0111613Y0103482D01*
X0111613Y0105417D01*
X0111613Y0104932D02*
X0112580Y0103965D01*
X0113548Y0104932D01*
X0113548Y0106867D01*
X0111613Y0106867D02*
X0111613Y0104932D01*
X0110601Y0105416D02*
X0108666Y0103965D01*
X0108666Y0102515D02*
X0110601Y0103966D01*
X0108666Y0105417D01*
X0108666Y0106867D02*
X0110601Y0105416D01*
X0112635Y0112519D02*
X0114086Y0114454D01*
X0115537Y0112519D01*
X0114570Y0115465D02*
X0112635Y0115465D01*
X0114570Y0115465D02*
X0115537Y0116433D01*
X0114570Y0117400D01*
X0112635Y0117400D01*
X0113602Y0118412D02*
X0112635Y0119379D01*
X0113602Y0120347D01*
X0115537Y0120347D01*
X0115537Y0121358D02*
X0115537Y0123293D01*
X0115054Y0124305D02*
X0115537Y0124788D01*
X0115537Y0125756D01*
X0115054Y0126240D01*
X0112635Y0126240D01*
X0112635Y0127251D02*
X0115537Y0127251D01*
X0115537Y0129186D01*
X0114086Y0128219D02*
X0114086Y0127251D01*
X0112635Y0127251D02*
X0112635Y0129186D01*
X0112635Y0124305D02*
X0115054Y0124305D01*
X0115537Y0121358D02*
X0112635Y0121358D01*
X0114086Y0120347D02*
X0114086Y0118412D01*
X0113602Y0118412D02*
X0115537Y0118412D01*
X0105334Y0126490D02*
X0103399Y0126490D01*
X0103399Y0129392D01*
X0105334Y0129392D01*
X0104367Y0127941D02*
X0103399Y0127941D01*
X0102387Y0126973D02*
X0102387Y0129392D01*
X0100453Y0129392D02*
X0100453Y0126973D01*
X0100936Y0126490D01*
X0101904Y0126490D01*
X0102387Y0126973D01*
X0099441Y0126490D02*
X0097506Y0126490D01*
X0097506Y0129392D01*
X0096494Y0128425D02*
X0096494Y0126490D01*
X0096494Y0127941D02*
X0094559Y0127941D01*
X0094559Y0128425D02*
X0095527Y0129392D01*
X0096494Y0128425D01*
X0094559Y0128425D02*
X0094559Y0126490D01*
X0093548Y0127457D02*
X0093548Y0129392D01*
X0093548Y0127457D02*
X0092580Y0126490D01*
X0091613Y0127457D01*
X0091613Y0129392D01*
X0090601Y0127941D02*
X0088666Y0126490D01*
X0090601Y0127941D02*
X0088666Y0129392D01*
X0083476Y0125542D02*
X0081541Y0125542D01*
X0081541Y0122640D01*
X0083476Y0122640D01*
X0082508Y0124091D02*
X0081541Y0124091D01*
X0080529Y0125542D02*
X0080529Y0122640D01*
X0078594Y0122640D02*
X0078594Y0125542D01*
X0079562Y0124575D01*
X0080529Y0125542D01*
X0077583Y0124575D02*
X0077583Y0122640D01*
X0077583Y0124091D02*
X0075648Y0124091D01*
X0075648Y0124575D02*
X0076615Y0125542D01*
X0077583Y0124575D01*
X0075648Y0124575D02*
X0075648Y0122640D01*
X0074636Y0122640D02*
X0074636Y0125542D01*
X0072701Y0125542D02*
X0074636Y0122640D01*
X0072701Y0122640D02*
X0072701Y0125542D01*
X0071690Y0124091D02*
X0069755Y0122640D01*
X0071690Y0124091D02*
X0069755Y0125542D01*
X0054570Y0137381D02*
X0052101Y0137381D01*
X0053336Y0138615D02*
X0053336Y0136146D01*
X0069385Y0139992D02*
X0070836Y0141927D01*
X0072287Y0139992D01*
X0072287Y0142938D02*
X0069385Y0142938D01*
X0072287Y0144873D01*
X0069385Y0144873D01*
X0070352Y0145885D02*
X0069385Y0146852D01*
X0070352Y0147820D01*
X0072287Y0147820D01*
X0072287Y0148831D02*
X0069385Y0148831D01*
X0070352Y0149799D01*
X0069385Y0150766D01*
X0072287Y0150766D01*
X0072287Y0151778D02*
X0072287Y0153713D01*
X0070836Y0152745D02*
X0070836Y0151778D01*
X0069385Y0151778D02*
X0069385Y0153713D01*
X0069385Y0151778D02*
X0072287Y0151778D01*
X0070836Y0147820D02*
X0070836Y0145885D01*
X0070352Y0145885D02*
X0072287Y0145885D01*
X0091255Y0142542D02*
X0093190Y0141091D01*
X0091255Y0139640D01*
X0094201Y0139640D02*
X0094201Y0142542D01*
X0096136Y0139640D01*
X0096136Y0142542D01*
X0097148Y0141575D02*
X0098115Y0142542D01*
X0099083Y0141575D01*
X0099083Y0139640D01*
X0100094Y0139640D02*
X0100094Y0142542D01*
X0101062Y0141575D01*
X0102029Y0142542D01*
X0102029Y0139640D01*
X0103041Y0139640D02*
X0104976Y0139640D01*
X0104008Y0141091D02*
X0103041Y0141091D01*
X0103041Y0142542D02*
X0103041Y0139640D01*
X0103041Y0142542D02*
X0104976Y0142542D01*
X0099083Y0141091D02*
X0097148Y0141091D01*
X0097148Y0141575D02*
X0097148Y0139640D01*
X0114385Y0142519D02*
X0115836Y0144454D01*
X0117287Y0142519D01*
X0116320Y0145465D02*
X0117287Y0146433D01*
X0116320Y0147400D01*
X0114385Y0147400D01*
X0115352Y0148412D02*
X0114385Y0149379D01*
X0115352Y0150347D01*
X0117287Y0150347D01*
X0117287Y0151358D02*
X0114385Y0151358D01*
X0115836Y0150347D02*
X0115836Y0148412D01*
X0115352Y0148412D02*
X0117287Y0148412D01*
X0117287Y0151358D02*
X0117287Y0153293D01*
X0116804Y0154305D02*
X0117287Y0154788D01*
X0117287Y0155756D01*
X0116804Y0156240D01*
X0114385Y0156240D01*
X0114385Y0157251D02*
X0117287Y0157251D01*
X0117287Y0159186D01*
X0115836Y0158219D02*
X0115836Y0157251D01*
X0114385Y0157251D02*
X0114385Y0159186D01*
X0114385Y0154305D02*
X0116804Y0154305D01*
X0116320Y0145465D02*
X0114385Y0145465D01*
X0091087Y0116190D02*
X0091087Y0114690D01*
X0091087Y0113190D01*
X0091087Y0114690D02*
X0088337Y0113190D01*
X0088337Y0116190D01*
X0091087Y0114690D01*
X0087263Y0114691D02*
X0084794Y0114691D01*
X0090587Y0096190D02*
X0090587Y0094690D01*
X0090587Y0093190D01*
X0090587Y0094690D02*
X0093337Y0096190D01*
X0093337Y0093190D01*
X0090587Y0094690D01*
X0094484Y0085981D02*
X0094484Y0083513D01*
X0098187Y0083513D01*
X0098187Y0085981D01*
X0096336Y0084747D02*
X0096336Y0083513D01*
X0094484Y0082298D02*
X0098187Y0082298D01*
X0098187Y0079829D02*
X0094484Y0079829D01*
X0095719Y0081064D01*
X0094484Y0082298D01*
X0095719Y0078615D02*
X0098187Y0078615D01*
X0096336Y0078615D02*
X0096336Y0076146D01*
X0095719Y0076146D02*
X0094484Y0077381D01*
X0095719Y0078615D01*
X0095719Y0076146D02*
X0098187Y0076146D01*
X0098187Y0074932D02*
X0094484Y0074932D01*
X0094484Y0072463D02*
X0098187Y0074932D01*
X0098187Y0072463D02*
X0094484Y0072463D01*
X0096336Y0071249D02*
X0098187Y0068780D01*
X0096336Y0071249D02*
X0094484Y0068780D01*
X0126140Y0093240D02*
X0128075Y0094691D01*
X0126140Y0096142D01*
X0129086Y0096142D02*
X0131021Y0093240D01*
X0131021Y0096142D01*
X0132033Y0095175D02*
X0133000Y0096142D01*
X0133968Y0095175D01*
X0133968Y0093240D01*
X0134979Y0093240D02*
X0134979Y0096142D01*
X0135947Y0095175D01*
X0136914Y0096142D01*
X0136914Y0093240D01*
X0137926Y0093240D02*
X0139861Y0093240D01*
X0138893Y0094691D02*
X0137926Y0094691D01*
X0137926Y0096142D02*
X0137926Y0093240D01*
X0137926Y0096142D02*
X0139861Y0096142D01*
X0133968Y0094691D02*
X0132033Y0094691D01*
X0132033Y0095175D02*
X0132033Y0093240D01*
X0129086Y0093240D02*
X0129086Y0096142D01*
X0150525Y0086742D02*
X0152460Y0085291D01*
X0150525Y0083840D01*
X0153471Y0083840D02*
X0153471Y0086742D01*
X0155406Y0083840D01*
X0155406Y0086742D01*
X0156418Y0085775D02*
X0157385Y0086742D01*
X0158353Y0085775D01*
X0158353Y0083840D01*
X0159364Y0083840D02*
X0159364Y0086742D01*
X0160332Y0085775D01*
X0161299Y0086742D01*
X0161299Y0083840D01*
X0162311Y0083840D02*
X0164246Y0083840D01*
X0163278Y0085291D02*
X0162311Y0085291D01*
X0162311Y0086742D02*
X0162311Y0083840D01*
X0162311Y0086742D02*
X0164246Y0086742D01*
X0159570Y0087381D02*
X0157101Y0087381D01*
X0158336Y0088615D02*
X0158336Y0086146D01*
X0158353Y0085291D02*
X0156418Y0085291D01*
X0156418Y0085775D02*
X0156418Y0083840D01*
X0158336Y0096146D02*
X0158336Y0098615D01*
X0157101Y0097381D02*
X0159570Y0097381D01*
X0189794Y0074691D02*
X0192263Y0074691D01*
X0192263Y0044691D02*
X0189794Y0044691D01*
D15*
X0095837Y0094190D02*
X0095837Y0095190D01*
X0095835Y0095277D01*
X0095829Y0095364D01*
X0095820Y0095451D01*
X0095807Y0095537D01*
X0095790Y0095623D01*
X0095769Y0095708D01*
X0095744Y0095791D01*
X0095716Y0095874D01*
X0095685Y0095955D01*
X0095650Y0096035D01*
X0095611Y0096113D01*
X0095569Y0096190D01*
X0095524Y0096265D01*
X0095475Y0096337D01*
X0095424Y0096408D01*
X0095369Y0096476D01*
X0095312Y0096541D01*
X0095251Y0096604D01*
X0095188Y0096665D01*
X0095123Y0096722D01*
X0095055Y0096777D01*
X0094984Y0096828D01*
X0094912Y0096877D01*
X0094837Y0096922D01*
X0094760Y0096964D01*
X0094682Y0097003D01*
X0094602Y0097038D01*
X0094521Y0097069D01*
X0094438Y0097097D01*
X0094355Y0097122D01*
X0094270Y0097143D01*
X0094184Y0097160D01*
X0094098Y0097173D01*
X0094011Y0097182D01*
X0093924Y0097188D01*
X0093837Y0097190D01*
X0087837Y0097190D01*
X0087750Y0097188D01*
X0087663Y0097182D01*
X0087576Y0097173D01*
X0087490Y0097160D01*
X0087404Y0097143D01*
X0087319Y0097122D01*
X0087236Y0097097D01*
X0087153Y0097069D01*
X0087072Y0097038D01*
X0086992Y0097003D01*
X0086914Y0096964D01*
X0086837Y0096922D01*
X0086762Y0096877D01*
X0086690Y0096828D01*
X0086619Y0096777D01*
X0086551Y0096722D01*
X0086486Y0096665D01*
X0086423Y0096604D01*
X0086362Y0096541D01*
X0086305Y0096476D01*
X0086250Y0096408D01*
X0086199Y0096337D01*
X0086150Y0096265D01*
X0086105Y0096190D01*
X0086063Y0096113D01*
X0086024Y0096035D01*
X0085989Y0095955D01*
X0085958Y0095874D01*
X0085930Y0095791D01*
X0085905Y0095708D01*
X0085884Y0095623D01*
X0085867Y0095537D01*
X0085854Y0095451D01*
X0085845Y0095364D01*
X0085839Y0095277D01*
X0085837Y0095190D01*
X0085837Y0094190D01*
X0085839Y0094103D01*
X0085845Y0094016D01*
X0085854Y0093929D01*
X0085867Y0093843D01*
X0085884Y0093757D01*
X0085905Y0093672D01*
X0085930Y0093589D01*
X0085958Y0093506D01*
X0085989Y0093425D01*
X0086024Y0093345D01*
X0086063Y0093267D01*
X0086105Y0093190D01*
X0086150Y0093115D01*
X0086199Y0093043D01*
X0086250Y0092972D01*
X0086305Y0092904D01*
X0086362Y0092839D01*
X0086423Y0092776D01*
X0086486Y0092715D01*
X0086551Y0092658D01*
X0086619Y0092603D01*
X0086690Y0092552D01*
X0086762Y0092503D01*
X0086837Y0092458D01*
X0086914Y0092416D01*
X0086992Y0092377D01*
X0087072Y0092342D01*
X0087153Y0092311D01*
X0087236Y0092283D01*
X0087319Y0092258D01*
X0087404Y0092237D01*
X0087490Y0092220D01*
X0087576Y0092207D01*
X0087663Y0092198D01*
X0087750Y0092192D01*
X0087837Y0092190D01*
X0093837Y0092190D01*
X0093924Y0092192D01*
X0094011Y0092198D01*
X0094098Y0092207D01*
X0094184Y0092220D01*
X0094270Y0092237D01*
X0094355Y0092258D01*
X0094438Y0092283D01*
X0094521Y0092311D01*
X0094602Y0092342D01*
X0094682Y0092377D01*
X0094760Y0092416D01*
X0094837Y0092458D01*
X0094912Y0092503D01*
X0094984Y0092552D01*
X0095055Y0092603D01*
X0095123Y0092658D01*
X0095188Y0092715D01*
X0095251Y0092776D01*
X0095312Y0092839D01*
X0095369Y0092904D01*
X0095424Y0092972D01*
X0095475Y0093043D01*
X0095524Y0093115D01*
X0095569Y0093190D01*
X0095611Y0093267D01*
X0095650Y0093345D01*
X0095685Y0093425D01*
X0095716Y0093506D01*
X0095744Y0093589D01*
X0095769Y0093672D01*
X0095790Y0093757D01*
X0095807Y0093843D01*
X0095820Y0093929D01*
X0095829Y0094016D01*
X0095835Y0094103D01*
X0095837Y0094190D01*
X0093837Y0112190D02*
X0087837Y0112190D01*
X0087750Y0112192D01*
X0087663Y0112198D01*
X0087576Y0112207D01*
X0087490Y0112220D01*
X0087404Y0112237D01*
X0087319Y0112258D01*
X0087236Y0112283D01*
X0087153Y0112311D01*
X0087072Y0112342D01*
X0086992Y0112377D01*
X0086914Y0112416D01*
X0086837Y0112458D01*
X0086762Y0112503D01*
X0086690Y0112552D01*
X0086619Y0112603D01*
X0086551Y0112658D01*
X0086486Y0112715D01*
X0086423Y0112776D01*
X0086362Y0112839D01*
X0086305Y0112904D01*
X0086250Y0112972D01*
X0086199Y0113043D01*
X0086150Y0113115D01*
X0086105Y0113190D01*
X0086063Y0113267D01*
X0086024Y0113345D01*
X0085989Y0113425D01*
X0085958Y0113506D01*
X0085930Y0113589D01*
X0085905Y0113672D01*
X0085884Y0113757D01*
X0085867Y0113843D01*
X0085854Y0113929D01*
X0085845Y0114016D01*
X0085839Y0114103D01*
X0085837Y0114190D01*
X0085837Y0115190D01*
X0085839Y0115277D01*
X0085845Y0115364D01*
X0085854Y0115451D01*
X0085867Y0115537D01*
X0085884Y0115623D01*
X0085905Y0115708D01*
X0085930Y0115791D01*
X0085958Y0115874D01*
X0085989Y0115955D01*
X0086024Y0116035D01*
X0086063Y0116113D01*
X0086105Y0116190D01*
X0086150Y0116265D01*
X0086199Y0116337D01*
X0086250Y0116408D01*
X0086305Y0116476D01*
X0086362Y0116541D01*
X0086423Y0116604D01*
X0086486Y0116665D01*
X0086551Y0116722D01*
X0086619Y0116777D01*
X0086690Y0116828D01*
X0086762Y0116877D01*
X0086837Y0116922D01*
X0086914Y0116964D01*
X0086992Y0117003D01*
X0087072Y0117038D01*
X0087153Y0117069D01*
X0087236Y0117097D01*
X0087319Y0117122D01*
X0087404Y0117143D01*
X0087490Y0117160D01*
X0087576Y0117173D01*
X0087663Y0117182D01*
X0087750Y0117188D01*
X0087837Y0117190D01*
X0093837Y0117190D01*
X0093924Y0117188D01*
X0094011Y0117182D01*
X0094098Y0117173D01*
X0094184Y0117160D01*
X0094270Y0117143D01*
X0094355Y0117122D01*
X0094438Y0117097D01*
X0094521Y0117069D01*
X0094602Y0117038D01*
X0094682Y0117003D01*
X0094760Y0116964D01*
X0094837Y0116922D01*
X0094912Y0116877D01*
X0094984Y0116828D01*
X0095055Y0116777D01*
X0095123Y0116722D01*
X0095188Y0116665D01*
X0095251Y0116604D01*
X0095312Y0116541D01*
X0095369Y0116476D01*
X0095424Y0116408D01*
X0095475Y0116337D01*
X0095524Y0116265D01*
X0095569Y0116190D01*
X0095611Y0116113D01*
X0095650Y0116035D01*
X0095685Y0115955D01*
X0095716Y0115874D01*
X0095744Y0115791D01*
X0095769Y0115708D01*
X0095790Y0115623D01*
X0095807Y0115537D01*
X0095820Y0115451D01*
X0095829Y0115364D01*
X0095835Y0115277D01*
X0095837Y0115190D01*
X0095837Y0114190D01*
X0095835Y0114103D01*
X0095829Y0114016D01*
X0095820Y0113929D01*
X0095807Y0113843D01*
X0095790Y0113757D01*
X0095769Y0113672D01*
X0095744Y0113589D01*
X0095716Y0113506D01*
X0095685Y0113425D01*
X0095650Y0113345D01*
X0095611Y0113267D01*
X0095569Y0113190D01*
X0095524Y0113115D01*
X0095475Y0113043D01*
X0095424Y0112972D01*
X0095369Y0112904D01*
X0095312Y0112839D01*
X0095251Y0112776D01*
X0095188Y0112715D01*
X0095123Y0112658D01*
X0095055Y0112603D01*
X0094984Y0112552D01*
X0094912Y0112503D01*
X0094837Y0112458D01*
X0094760Y0112416D01*
X0094682Y0112377D01*
X0094602Y0112342D01*
X0094521Y0112311D01*
X0094438Y0112283D01*
X0094355Y0112258D01*
X0094270Y0112237D01*
X0094184Y0112220D01*
X0094098Y0112207D01*
X0094011Y0112198D01*
X0093924Y0112192D01*
X0093837Y0112190D01*
D16*
X0093587Y0114690D03*
X0088087Y0094690D03*
D17*
X0084537Y0094690D03*
X0097137Y0094690D03*
X0097137Y0114690D03*
X0084537Y0114690D03*
D18*
X0080087Y0104690D03*
X0091587Y0104690D03*
X0130087Y0094690D03*
X0130087Y0084690D03*
X0141587Y0084690D03*
X0141587Y0094690D03*
D19*
X0136587Y0054690D03*
X0136587Y0054690D03*
X0115087Y0054690D03*
X0115087Y0054690D03*
D20*
X0085837Y0039690D02*
X0055837Y0039690D01*
X0055837Y0049690D01*
X0085837Y0049690D01*
X0085837Y0039690D01*
X0110837Y0084201D02*
X0110837Y0105178D01*
X0117337Y0102938D02*
X0117337Y0086441D01*
X0115309Y0104189D02*
X0115044Y0104302D01*
X0114776Y0104408D01*
X0114506Y0104507D01*
X0114233Y0104600D01*
X0113958Y0104686D01*
X0113681Y0104765D01*
X0113403Y0104838D01*
X0113122Y0104903D01*
X0112840Y0104962D01*
X0112557Y0105014D01*
X0112272Y0105059D01*
X0111986Y0105096D01*
X0111700Y0105127D01*
X0111413Y0105151D01*
X0111125Y0105168D01*
X0110837Y0105177D01*
X0110337Y0114201D02*
X0110337Y0135178D01*
X0104337Y0132938D02*
X0104337Y0116441D01*
X0104338Y0116442D02*
X0104535Y0116290D01*
X0104737Y0116143D01*
X0104941Y0116000D01*
X0105149Y0115863D01*
X0105360Y0115730D01*
X0105575Y0115602D01*
X0105792Y0115480D01*
X0106012Y0115363D01*
X0106235Y0115251D01*
X0106460Y0115144D01*
X0110337Y0114202D02*
X0110593Y0114193D01*
X0110849Y0114190D01*
X0111105Y0114193D01*
X0111361Y0114203D01*
X0111616Y0114219D01*
X0111871Y0114241D01*
X0112126Y0114269D01*
X0112379Y0114304D01*
X0112632Y0114345D01*
X0112884Y0114391D01*
X0113134Y0114444D01*
X0113383Y0114503D01*
X0113631Y0114569D01*
X0113877Y0114640D01*
X0114121Y0114717D01*
X0114363Y0114800D01*
X0114603Y0114889D01*
X0114841Y0114983D01*
X0115076Y0115084D01*
X0115309Y0115190D01*
X0110338Y0114202D02*
X0110081Y0114217D01*
X0109824Y0114239D01*
X0109568Y0114267D01*
X0109313Y0114301D01*
X0109059Y0114342D01*
X0108806Y0114389D01*
X0108554Y0114442D01*
X0108303Y0114501D01*
X0108054Y0114566D01*
X0107807Y0114637D01*
X0107561Y0114714D01*
X0107317Y0114798D01*
X0107076Y0114887D01*
X0106837Y0114982D01*
X0106600Y0115083D01*
X0106366Y0115190D01*
X0110337Y0135178D02*
X0110593Y0135187D01*
X0110849Y0135190D01*
X0111105Y0135187D01*
X0111361Y0135177D01*
X0111616Y0135161D01*
X0111871Y0135139D01*
X0112126Y0135111D01*
X0112379Y0135076D01*
X0112632Y0135035D01*
X0112884Y0134989D01*
X0113134Y0134936D01*
X0113383Y0134877D01*
X0113631Y0134811D01*
X0113877Y0134740D01*
X0114121Y0134663D01*
X0114363Y0134580D01*
X0114603Y0134491D01*
X0114841Y0134397D01*
X0115076Y0134296D01*
X0115309Y0134190D01*
X0106366Y0134191D02*
X0106151Y0134087D01*
X0105938Y0133978D01*
X0105728Y0133864D01*
X0105521Y0133745D01*
X0105316Y0133622D01*
X0105114Y0133494D01*
X0104915Y0133361D01*
X0104720Y0133224D01*
X0104527Y0133083D01*
X0104338Y0132937D01*
X0115309Y0134190D02*
X0115539Y0134078D01*
X0115766Y0133961D01*
X0115990Y0133839D01*
X0116211Y0133711D01*
X0116428Y0133577D01*
X0116643Y0133439D01*
X0116854Y0133295D01*
X0117061Y0133146D01*
X0117265Y0132992D01*
X0117465Y0132834D01*
X0117661Y0132670D01*
X0117853Y0132502D01*
X0118041Y0132329D01*
X0118225Y0132151D01*
X0118404Y0131970D01*
X0118579Y0131783D01*
X0118749Y0131593D01*
X0118914Y0131399D01*
X0119075Y0131200D01*
X0119231Y0130998D01*
X0119382Y0130792D01*
X0119528Y0130582D01*
X0119668Y0130369D01*
X0119804Y0130153D01*
X0119934Y0129933D01*
X0120059Y0129710D01*
X0120178Y0129485D01*
X0120292Y0129256D01*
X0120400Y0129025D01*
X0120503Y0128791D01*
X0120600Y0128555D01*
X0120691Y0128316D01*
X0120776Y0128076D01*
X0120856Y0127833D01*
X0120929Y0127588D01*
X0120997Y0127342D01*
X0121058Y0127094D01*
X0121113Y0126845D01*
X0121163Y0126595D01*
X0121206Y0126343D01*
X0121243Y0126090D01*
X0121274Y0125837D01*
X0121299Y0125583D01*
X0121318Y0125328D01*
X0121330Y0125073D01*
X0121336Y0124818D01*
X0121336Y0124562D01*
X0121330Y0124307D01*
X0121318Y0124052D01*
X0121299Y0123797D01*
X0121274Y0123543D01*
X0121243Y0123290D01*
X0121206Y0123037D01*
X0121163Y0122785D01*
X0121113Y0122535D01*
X0121058Y0122286D01*
X0120997Y0122038D01*
X0120929Y0121792D01*
X0120856Y0121547D01*
X0120776Y0121304D01*
X0120691Y0121064D01*
X0120600Y0120825D01*
X0120503Y0120589D01*
X0120400Y0120355D01*
X0120292Y0120124D01*
X0120178Y0119895D01*
X0120059Y0119670D01*
X0119934Y0119447D01*
X0119804Y0119227D01*
X0119668Y0119011D01*
X0119528Y0118798D01*
X0119382Y0118588D01*
X0119231Y0118382D01*
X0119075Y0118180D01*
X0118914Y0117981D01*
X0118749Y0117787D01*
X0118579Y0117597D01*
X0118404Y0117410D01*
X0118225Y0117229D01*
X0118041Y0117051D01*
X0117853Y0116878D01*
X0117661Y0116710D01*
X0117465Y0116546D01*
X0117265Y0116388D01*
X0117061Y0116234D01*
X0116854Y0116085D01*
X0116643Y0115941D01*
X0116428Y0115803D01*
X0116211Y0115669D01*
X0115990Y0115541D01*
X0115766Y0115419D01*
X0115539Y0115302D01*
X0115309Y0115190D01*
X0110338Y0135178D02*
X0110081Y0135163D01*
X0109824Y0135141D01*
X0109568Y0135113D01*
X0109313Y0135079D01*
X0109059Y0135038D01*
X0108806Y0134991D01*
X0108554Y0134938D01*
X0108303Y0134879D01*
X0108054Y0134814D01*
X0107807Y0134743D01*
X0107561Y0134666D01*
X0107317Y0134582D01*
X0107076Y0134493D01*
X0106837Y0134398D01*
X0106600Y0134297D01*
X0106366Y0134190D01*
X0081326Y0124690D02*
X0060349Y0124690D01*
X0055837Y0119690D02*
X0055837Y0099690D01*
X0065837Y0099690D01*
X0065837Y0119690D01*
X0055837Y0119690D01*
X0062589Y0131190D02*
X0079085Y0131190D01*
X0061337Y0129161D02*
X0061224Y0128896D01*
X0061118Y0128628D01*
X0061019Y0128358D01*
X0060926Y0128085D01*
X0060840Y0127810D01*
X0060761Y0127533D01*
X0060688Y0127255D01*
X0060623Y0126974D01*
X0060564Y0126692D01*
X0060512Y0126409D01*
X0060467Y0126124D01*
X0060430Y0125838D01*
X0060399Y0125552D01*
X0060375Y0125265D01*
X0060358Y0124977D01*
X0060349Y0124689D01*
X0080337Y0129161D02*
X0080450Y0128896D01*
X0080556Y0128628D01*
X0080655Y0128358D01*
X0080748Y0128085D01*
X0080834Y0127810D01*
X0080913Y0127533D01*
X0080986Y0127255D01*
X0081051Y0126974D01*
X0081110Y0126692D01*
X0081162Y0126409D01*
X0081207Y0126124D01*
X0081244Y0125838D01*
X0081275Y0125552D01*
X0081299Y0125265D01*
X0081316Y0124977D01*
X0081325Y0124689D01*
X0081325Y0124690D02*
X0081328Y0124458D01*
X0081326Y0124227D01*
X0081318Y0123996D01*
X0081304Y0123765D01*
X0081285Y0123535D01*
X0081260Y0123305D01*
X0081229Y0123076D01*
X0081193Y0122847D01*
X0081152Y0122620D01*
X0081105Y0122393D01*
X0081052Y0122168D01*
X0080994Y0121944D01*
X0080930Y0121722D01*
X0080861Y0121501D01*
X0080787Y0121282D01*
X0080707Y0121065D01*
X0080622Y0120850D01*
X0080532Y0120637D01*
X0080437Y0120426D01*
X0080337Y0120218D01*
X0080339Y0129161D02*
X0080235Y0129376D01*
X0080126Y0129589D01*
X0080012Y0129799D01*
X0079893Y0130006D01*
X0079770Y0130211D01*
X0079642Y0130413D01*
X0079509Y0130612D01*
X0079372Y0130807D01*
X0079231Y0131000D01*
X0079085Y0131189D01*
X0080337Y0120218D02*
X0080225Y0119988D01*
X0080108Y0119761D01*
X0079986Y0119537D01*
X0079858Y0119316D01*
X0079724Y0119099D01*
X0079586Y0118884D01*
X0079442Y0118673D01*
X0079293Y0118466D01*
X0079139Y0118262D01*
X0078981Y0118062D01*
X0078817Y0117866D01*
X0078649Y0117674D01*
X0078476Y0117486D01*
X0078298Y0117302D01*
X0078117Y0117123D01*
X0077930Y0116948D01*
X0077740Y0116778D01*
X0077546Y0116613D01*
X0077347Y0116452D01*
X0077145Y0116296D01*
X0076939Y0116145D01*
X0076729Y0115999D01*
X0076516Y0115859D01*
X0076300Y0115723D01*
X0076080Y0115593D01*
X0075857Y0115468D01*
X0075632Y0115349D01*
X0075403Y0115235D01*
X0075172Y0115127D01*
X0074938Y0115024D01*
X0074702Y0114927D01*
X0074463Y0114836D01*
X0074223Y0114751D01*
X0073980Y0114671D01*
X0073735Y0114598D01*
X0073489Y0114530D01*
X0073241Y0114469D01*
X0072992Y0114414D01*
X0072742Y0114364D01*
X0072490Y0114321D01*
X0072237Y0114284D01*
X0071984Y0114253D01*
X0071730Y0114228D01*
X0071475Y0114209D01*
X0071220Y0114197D01*
X0070965Y0114191D01*
X0070709Y0114191D01*
X0070454Y0114197D01*
X0070199Y0114209D01*
X0069944Y0114228D01*
X0069690Y0114253D01*
X0069437Y0114284D01*
X0069184Y0114321D01*
X0068932Y0114364D01*
X0068682Y0114414D01*
X0068433Y0114469D01*
X0068185Y0114530D01*
X0067939Y0114598D01*
X0067694Y0114671D01*
X0067451Y0114751D01*
X0067211Y0114836D01*
X0066972Y0114927D01*
X0066736Y0115024D01*
X0066502Y0115127D01*
X0066271Y0115235D01*
X0066042Y0115349D01*
X0065817Y0115468D01*
X0065594Y0115593D01*
X0065374Y0115723D01*
X0065158Y0115859D01*
X0064945Y0115999D01*
X0064735Y0116145D01*
X0064529Y0116296D01*
X0064327Y0116452D01*
X0064128Y0116613D01*
X0063934Y0116778D01*
X0063744Y0116948D01*
X0063557Y0117123D01*
X0063376Y0117302D01*
X0063198Y0117486D01*
X0063025Y0117674D01*
X0062857Y0117866D01*
X0062693Y0118062D01*
X0062535Y0118262D01*
X0062381Y0118466D01*
X0062232Y0118673D01*
X0062088Y0118884D01*
X0061950Y0119099D01*
X0061816Y0119316D01*
X0061688Y0119537D01*
X0061566Y0119761D01*
X0061449Y0119988D01*
X0061337Y0120218D01*
X0061237Y0120426D01*
X0061142Y0120637D01*
X0061052Y0120850D01*
X0060967Y0121065D01*
X0060887Y0121282D01*
X0060813Y0121501D01*
X0060744Y0121722D01*
X0060680Y0121944D01*
X0060622Y0122168D01*
X0060569Y0122393D01*
X0060522Y0122620D01*
X0060481Y0122847D01*
X0060445Y0123076D01*
X0060414Y0123305D01*
X0060389Y0123535D01*
X0060370Y0123765D01*
X0060356Y0123996D01*
X0060348Y0124227D01*
X0060346Y0124458D01*
X0060349Y0124690D01*
X0061291Y0129067D02*
X0061398Y0129292D01*
X0061510Y0129515D01*
X0061627Y0129735D01*
X0061749Y0129952D01*
X0061877Y0130167D01*
X0062010Y0130378D01*
X0062147Y0130586D01*
X0062290Y0130790D01*
X0062437Y0130992D01*
X0062589Y0131189D01*
X0110837Y0084202D02*
X0111125Y0084211D01*
X0111413Y0084228D01*
X0111700Y0084252D01*
X0111986Y0084283D01*
X0112272Y0084320D01*
X0112557Y0084365D01*
X0112840Y0084417D01*
X0113122Y0084476D01*
X0113403Y0084541D01*
X0113681Y0084614D01*
X0113958Y0084693D01*
X0114233Y0084779D01*
X0114506Y0084872D01*
X0114776Y0084971D01*
X0115044Y0085077D01*
X0115309Y0085190D01*
X0110838Y0084201D02*
X0110606Y0084198D01*
X0110375Y0084200D01*
X0110144Y0084208D01*
X0109913Y0084222D01*
X0109683Y0084241D01*
X0109453Y0084266D01*
X0109224Y0084297D01*
X0108995Y0084333D01*
X0108768Y0084374D01*
X0108541Y0084421D01*
X0108316Y0084474D01*
X0108092Y0084532D01*
X0107870Y0084596D01*
X0107649Y0084665D01*
X0107430Y0084739D01*
X0107213Y0084819D01*
X0106998Y0084904D01*
X0106785Y0084994D01*
X0106574Y0085089D01*
X0106366Y0085189D01*
X0115309Y0085188D02*
X0115524Y0085292D01*
X0115737Y0085401D01*
X0115947Y0085515D01*
X0116154Y0085634D01*
X0116359Y0085757D01*
X0116561Y0085885D01*
X0116760Y0086018D01*
X0116955Y0086155D01*
X0117148Y0086296D01*
X0117337Y0086442D01*
X0106365Y0085190D02*
X0106135Y0085302D01*
X0105908Y0085419D01*
X0105684Y0085541D01*
X0105463Y0085669D01*
X0105246Y0085803D01*
X0105031Y0085941D01*
X0104820Y0086085D01*
X0104613Y0086234D01*
X0104409Y0086388D01*
X0104209Y0086546D01*
X0104013Y0086710D01*
X0103821Y0086878D01*
X0103633Y0087051D01*
X0103449Y0087229D01*
X0103270Y0087410D01*
X0103095Y0087597D01*
X0102925Y0087787D01*
X0102760Y0087981D01*
X0102599Y0088180D01*
X0102443Y0088382D01*
X0102292Y0088588D01*
X0102146Y0088798D01*
X0102006Y0089011D01*
X0101870Y0089227D01*
X0101740Y0089447D01*
X0101615Y0089670D01*
X0101496Y0089895D01*
X0101382Y0090124D01*
X0101274Y0090355D01*
X0101171Y0090589D01*
X0101074Y0090825D01*
X0100983Y0091064D01*
X0100898Y0091304D01*
X0100818Y0091547D01*
X0100745Y0091792D01*
X0100677Y0092038D01*
X0100616Y0092286D01*
X0100561Y0092535D01*
X0100511Y0092785D01*
X0100468Y0093037D01*
X0100431Y0093290D01*
X0100400Y0093543D01*
X0100375Y0093797D01*
X0100356Y0094052D01*
X0100344Y0094307D01*
X0100338Y0094562D01*
X0100338Y0094818D01*
X0100344Y0095073D01*
X0100356Y0095328D01*
X0100375Y0095583D01*
X0100400Y0095837D01*
X0100431Y0096090D01*
X0100468Y0096343D01*
X0100511Y0096595D01*
X0100561Y0096845D01*
X0100616Y0097094D01*
X0100677Y0097342D01*
X0100745Y0097588D01*
X0100818Y0097833D01*
X0100898Y0098076D01*
X0100983Y0098316D01*
X0101074Y0098555D01*
X0101171Y0098791D01*
X0101274Y0099025D01*
X0101382Y0099256D01*
X0101496Y0099485D01*
X0101615Y0099710D01*
X0101740Y0099933D01*
X0101870Y0100153D01*
X0102006Y0100369D01*
X0102146Y0100582D01*
X0102292Y0100792D01*
X0102443Y0100998D01*
X0102599Y0101200D01*
X0102760Y0101399D01*
X0102925Y0101593D01*
X0103095Y0101783D01*
X0103270Y0101970D01*
X0103449Y0102151D01*
X0103633Y0102329D01*
X0103821Y0102502D01*
X0104013Y0102670D01*
X0104209Y0102834D01*
X0104409Y0102992D01*
X0104613Y0103146D01*
X0104820Y0103295D01*
X0105031Y0103439D01*
X0105246Y0103577D01*
X0105463Y0103711D01*
X0105684Y0103839D01*
X0105908Y0103961D01*
X0106135Y0104078D01*
X0106365Y0104190D01*
X0106366Y0104190D02*
X0106574Y0104290D01*
X0106785Y0104385D01*
X0106998Y0104475D01*
X0107213Y0104560D01*
X0107430Y0104640D01*
X0107649Y0104714D01*
X0107870Y0104783D01*
X0108092Y0104847D01*
X0108316Y0104905D01*
X0108541Y0104958D01*
X0108768Y0105005D01*
X0108995Y0105046D01*
X0109224Y0105082D01*
X0109453Y0105113D01*
X0109683Y0105138D01*
X0109913Y0105157D01*
X0110144Y0105171D01*
X0110375Y0105179D01*
X0110606Y0105181D01*
X0110838Y0105178D01*
X0115215Y0104235D02*
X0115440Y0104128D01*
X0115663Y0104016D01*
X0115883Y0103899D01*
X0116100Y0103777D01*
X0116315Y0103649D01*
X0116526Y0103516D01*
X0116734Y0103379D01*
X0116938Y0103236D01*
X0117140Y0103089D01*
X0117337Y0102937D01*
X0145837Y0079690D02*
X0145837Y0059690D01*
X0155837Y0059690D01*
X0155837Y0079690D01*
X0145837Y0079690D01*
X0145837Y0059690D02*
X0145837Y0039690D01*
X0155837Y0039690D01*
X0155837Y0059690D01*
X0145837Y0059690D01*
D21*
X0108016Y0129240D02*
X0107282Y0129240D01*
X0107649Y0129240D02*
X0107649Y0130340D01*
X0107282Y0129973D01*
M02*
