G75*
%MOIN*%
%OFA0B0*%
%FSLAX25Y25*%
%IPPOS*%
%LPD*%
%AMOC8*
5,1,8,0,0,1.08239X$1,22.5*
%
%ADD10C,0.00500*%
%ADD11C,0.00200*%
%ADD12C,0.00300*%
%ADD13C,0.00100*%
%ADD14R,0.00900X0.05400*%
%ADD15C,0.00600*%
%ADD16R,0.10000X0.02000*%
%ADD17C,0.00375*%
%ADD18C,0.00400*%
%ADD19R,0.01710X0.10000*%
%ADD20R,0.01850X0.00750*%
%ADD21R,0.02100X0.00750*%
%ADD22R,0.05000X0.01000*%
%ADD23R,0.00800X0.02200*%
%ADD24R,0.01500X0.01250*%
%ADD25C,0.00875*%
D10*
X0006000Y0006000D02*
X0016000Y0006000D01*
X0016000Y0026000D01*
X0016000Y0056000D01*
X0026000Y0056000D01*
X0026000Y0026000D01*
X0016000Y0026000D01*
X0006000Y0026000D01*
X0006000Y0006000D01*
X0032752Y0014500D02*
X0049248Y0014500D01*
X0051488Y0020500D02*
X0030512Y0020500D01*
X0031498Y0016528D02*
X0031602Y0016313D01*
X0031711Y0016100D01*
X0031825Y0015890D01*
X0031944Y0015683D01*
X0032067Y0015478D01*
X0032195Y0015276D01*
X0032328Y0015077D01*
X0032465Y0014882D01*
X0032606Y0014689D01*
X0032752Y0014500D01*
X0030512Y0020500D02*
X0030503Y0020756D01*
X0030500Y0021012D01*
X0030503Y0021268D01*
X0030513Y0021524D01*
X0030529Y0021779D01*
X0030551Y0022034D01*
X0030579Y0022289D01*
X0030614Y0022542D01*
X0030655Y0022795D01*
X0030701Y0023047D01*
X0030754Y0023297D01*
X0030813Y0023546D01*
X0030879Y0023794D01*
X0030950Y0024040D01*
X0031027Y0024284D01*
X0031110Y0024526D01*
X0031199Y0024766D01*
X0031293Y0025004D01*
X0031394Y0025239D01*
X0031500Y0025472D01*
X0041000Y0029562D02*
X0041000Y0032750D01*
X0041000Y0032125D02*
X0040995Y0032200D01*
X0040993Y0032275D01*
X0040995Y0032350D01*
X0041002Y0032424D01*
X0041012Y0032498D01*
X0041026Y0032572D01*
X0041044Y0032644D01*
X0041066Y0032716D01*
X0041091Y0032786D01*
X0041120Y0032855D01*
X0041153Y0032923D01*
X0041189Y0032988D01*
X0041228Y0033052D01*
X0041271Y0033113D01*
X0041317Y0033172D01*
X0041366Y0033229D01*
X0041418Y0033283D01*
X0041472Y0033334D01*
X0041530Y0033382D01*
X0041589Y0033427D01*
X0041651Y0033469D01*
X0041715Y0033508D01*
X0041781Y0033543D01*
X0041849Y0033575D01*
X0041918Y0033603D01*
X0041989Y0033628D01*
X0042061Y0033649D01*
X0042133Y0033666D01*
X0042207Y0033679D01*
X0042281Y0033688D01*
X0044469Y0033150D02*
X0056906Y0033150D01*
X0057531Y0033150D02*
X0045094Y0033150D01*
X0043875Y0033531D02*
X0043781Y0033570D01*
X0043685Y0033604D01*
X0043588Y0033635D01*
X0043490Y0033662D01*
X0043391Y0033685D01*
X0043291Y0033705D01*
X0043191Y0033720D01*
X0043090Y0033732D01*
X0042988Y0033740D01*
X0042887Y0033744D01*
X0042785Y0033745D01*
X0042684Y0033741D01*
X0042582Y0033733D01*
X0042481Y0033722D01*
X0042381Y0033707D01*
X0042281Y0033688D01*
X0043875Y0033532D02*
X0043966Y0033487D01*
X0044055Y0033439D01*
X0044142Y0033387D01*
X0044227Y0033333D01*
X0044310Y0033275D01*
X0044390Y0033214D01*
X0044469Y0033150D01*
X0043875Y0028469D02*
X0043781Y0028430D01*
X0043685Y0028396D01*
X0043588Y0028365D01*
X0043490Y0028338D01*
X0043391Y0028315D01*
X0043291Y0028295D01*
X0043191Y0028280D01*
X0043090Y0028268D01*
X0042988Y0028260D01*
X0042887Y0028256D01*
X0042785Y0028255D01*
X0042684Y0028259D01*
X0042582Y0028267D01*
X0042481Y0028278D01*
X0042381Y0028293D01*
X0042281Y0028312D01*
X0044469Y0028850D02*
X0056906Y0028850D01*
X0057531Y0028850D02*
X0045094Y0028850D01*
X0042281Y0028312D02*
X0042207Y0028321D01*
X0042133Y0028334D01*
X0042061Y0028351D01*
X0041989Y0028372D01*
X0041918Y0028397D01*
X0041849Y0028425D01*
X0041781Y0028457D01*
X0041715Y0028492D01*
X0041651Y0028531D01*
X0041589Y0028573D01*
X0041530Y0028618D01*
X0041472Y0028666D01*
X0041418Y0028717D01*
X0041366Y0028771D01*
X0041317Y0028828D01*
X0041271Y0028887D01*
X0041228Y0028948D01*
X0041189Y0029012D01*
X0041153Y0029077D01*
X0041120Y0029145D01*
X0041091Y0029214D01*
X0041066Y0029284D01*
X0041044Y0029356D01*
X0041026Y0029428D01*
X0041012Y0029502D01*
X0041002Y0029576D01*
X0040995Y0029650D01*
X0040993Y0029725D01*
X0040995Y0029800D01*
X0041000Y0029875D01*
X0043875Y0028468D02*
X0043966Y0028513D01*
X0044055Y0028561D01*
X0044142Y0028613D01*
X0044227Y0028667D01*
X0044310Y0028725D01*
X0044390Y0028786D01*
X0044469Y0028850D01*
X0058125Y0028469D02*
X0058219Y0028430D01*
X0058315Y0028396D01*
X0058412Y0028365D01*
X0058510Y0028338D01*
X0058609Y0028315D01*
X0058709Y0028295D01*
X0058809Y0028280D01*
X0058910Y0028268D01*
X0059012Y0028260D01*
X0059113Y0028256D01*
X0059215Y0028255D01*
X0059316Y0028259D01*
X0059418Y0028267D01*
X0059519Y0028278D01*
X0059619Y0028293D01*
X0059719Y0028312D01*
X0061000Y0029406D02*
X0061000Y0032125D01*
X0061005Y0032200D01*
X0061007Y0032275D01*
X0061005Y0032350D01*
X0060998Y0032424D01*
X0060988Y0032498D01*
X0060974Y0032572D01*
X0060956Y0032644D01*
X0060934Y0032716D01*
X0060909Y0032786D01*
X0060880Y0032855D01*
X0060847Y0032923D01*
X0060811Y0032988D01*
X0060772Y0033052D01*
X0060729Y0033113D01*
X0060683Y0033172D01*
X0060634Y0033229D01*
X0060582Y0033283D01*
X0060528Y0033334D01*
X0060470Y0033382D01*
X0060411Y0033427D01*
X0060349Y0033469D01*
X0060285Y0033508D01*
X0060219Y0033543D01*
X0060151Y0033575D01*
X0060082Y0033603D01*
X0060011Y0033628D01*
X0059939Y0033649D01*
X0059867Y0033666D01*
X0059793Y0033679D01*
X0059719Y0033688D01*
X0058125Y0033532D02*
X0058034Y0033487D01*
X0057945Y0033439D01*
X0057858Y0033387D01*
X0057773Y0033333D01*
X0057690Y0033275D01*
X0057610Y0033214D01*
X0057531Y0033150D01*
X0058125Y0033531D02*
X0058219Y0033570D01*
X0058315Y0033604D01*
X0058412Y0033635D01*
X0058510Y0033662D01*
X0058609Y0033685D01*
X0058709Y0033705D01*
X0058809Y0033720D01*
X0058910Y0033732D01*
X0059012Y0033740D01*
X0059113Y0033744D01*
X0059215Y0033745D01*
X0059316Y0033741D01*
X0059418Y0033733D01*
X0059519Y0033722D01*
X0059619Y0033707D01*
X0059719Y0033688D01*
X0057531Y0028850D02*
X0057610Y0028786D01*
X0057690Y0028725D01*
X0057773Y0028667D01*
X0057858Y0028613D01*
X0057945Y0028561D01*
X0058034Y0028513D01*
X0058125Y0028468D01*
X0059719Y0028312D02*
X0059793Y0028321D01*
X0059867Y0028334D01*
X0059939Y0028351D01*
X0060011Y0028372D01*
X0060082Y0028397D01*
X0060151Y0028425D01*
X0060219Y0028457D01*
X0060285Y0028492D01*
X0060349Y0028531D01*
X0060411Y0028573D01*
X0060470Y0028618D01*
X0060528Y0028666D01*
X0060582Y0028717D01*
X0060634Y0028771D01*
X0060683Y0028828D01*
X0060729Y0028887D01*
X0060772Y0028948D01*
X0060811Y0029012D01*
X0060847Y0029077D01*
X0060880Y0029145D01*
X0060909Y0029214D01*
X0060934Y0029284D01*
X0060956Y0029356D01*
X0060974Y0029428D01*
X0060988Y0029502D01*
X0060998Y0029576D01*
X0061005Y0029650D01*
X0061007Y0029725D01*
X0061005Y0029800D01*
X0061000Y0029875D01*
X0074500Y0029248D02*
X0074500Y0012752D01*
X0080500Y0010512D02*
X0080500Y0031488D01*
X0092000Y0031000D02*
X0098231Y0031000D01*
X0090500Y0031000D02*
X0090503Y0031258D01*
X0090513Y0031515D01*
X0090528Y0031772D01*
X0090551Y0032029D01*
X0090579Y0032285D01*
X0090614Y0032541D01*
X0090655Y0032795D01*
X0090702Y0033048D01*
X0090755Y0033301D01*
X0090815Y0033551D01*
X0090880Y0033800D01*
X0090952Y0034048D01*
X0091030Y0034294D01*
X0091114Y0034537D01*
X0091204Y0034779D01*
X0091299Y0035018D01*
X0091401Y0035255D01*
X0091508Y0035489D01*
X0091621Y0035721D01*
X0091740Y0035950D01*
X0091864Y0036175D01*
X0091994Y0036398D01*
X0092129Y0036617D01*
X0092270Y0036833D01*
X0092415Y0037046D01*
X0092566Y0037255D01*
X0092722Y0037460D01*
X0092883Y0037661D01*
X0093049Y0037858D01*
X0093220Y0038051D01*
X0093395Y0038240D01*
X0093575Y0038425D01*
X0093760Y0038605D01*
X0093949Y0038780D01*
X0094142Y0038951D01*
X0094339Y0039117D01*
X0094540Y0039278D01*
X0094745Y0039434D01*
X0094954Y0039585D01*
X0095167Y0039730D01*
X0095383Y0039871D01*
X0095602Y0040006D01*
X0095825Y0040136D01*
X0096050Y0040260D01*
X0096279Y0040379D01*
X0096511Y0040492D01*
X0096745Y0040599D01*
X0096982Y0040701D01*
X0097221Y0040796D01*
X0097463Y0040886D01*
X0097706Y0040970D01*
X0097952Y0041048D01*
X0098200Y0041120D01*
X0098449Y0041185D01*
X0098699Y0041245D01*
X0098952Y0041298D01*
X0099205Y0041345D01*
X0099459Y0041386D01*
X0099715Y0041421D01*
X0099971Y0041449D01*
X0100228Y0041472D01*
X0100485Y0041487D01*
X0100742Y0041497D01*
X0101000Y0041500D01*
X0101258Y0041497D01*
X0101515Y0041487D01*
X0101772Y0041472D01*
X0102029Y0041449D01*
X0102285Y0041421D01*
X0102541Y0041386D01*
X0102795Y0041345D01*
X0103048Y0041298D01*
X0103301Y0041245D01*
X0103551Y0041185D01*
X0103800Y0041120D01*
X0104048Y0041048D01*
X0104294Y0040970D01*
X0104537Y0040886D01*
X0104779Y0040796D01*
X0105018Y0040701D01*
X0105255Y0040599D01*
X0105489Y0040492D01*
X0105721Y0040379D01*
X0105950Y0040260D01*
X0106175Y0040136D01*
X0106398Y0040006D01*
X0106617Y0039871D01*
X0106833Y0039730D01*
X0107046Y0039585D01*
X0107255Y0039434D01*
X0107460Y0039278D01*
X0107661Y0039117D01*
X0107858Y0038951D01*
X0108051Y0038780D01*
X0108240Y0038605D01*
X0108425Y0038425D01*
X0108605Y0038240D01*
X0108780Y0038051D01*
X0108951Y0037858D01*
X0109117Y0037661D01*
X0109278Y0037460D01*
X0109434Y0037255D01*
X0109585Y0037046D01*
X0109730Y0036833D01*
X0109871Y0036617D01*
X0110006Y0036398D01*
X0110136Y0036175D01*
X0110260Y0035950D01*
X0110379Y0035721D01*
X0110492Y0035489D01*
X0110599Y0035255D01*
X0110701Y0035018D01*
X0110796Y0034779D01*
X0110886Y0034537D01*
X0110970Y0034294D01*
X0111048Y0034048D01*
X0111120Y0033800D01*
X0111185Y0033551D01*
X0111245Y0033301D01*
X0111298Y0033048D01*
X0111345Y0032795D01*
X0111386Y0032541D01*
X0111421Y0032285D01*
X0111449Y0032029D01*
X0111472Y0031772D01*
X0111487Y0031515D01*
X0111497Y0031258D01*
X0111500Y0031000D01*
X0111497Y0030742D01*
X0111487Y0030485D01*
X0111472Y0030228D01*
X0111449Y0029971D01*
X0111421Y0029715D01*
X0111386Y0029459D01*
X0111345Y0029205D01*
X0111298Y0028952D01*
X0111245Y0028699D01*
X0111185Y0028449D01*
X0111120Y0028200D01*
X0111048Y0027952D01*
X0110970Y0027706D01*
X0110886Y0027463D01*
X0110796Y0027221D01*
X0110701Y0026982D01*
X0110599Y0026745D01*
X0110492Y0026511D01*
X0110379Y0026279D01*
X0110260Y0026050D01*
X0110136Y0025825D01*
X0110006Y0025602D01*
X0109871Y0025383D01*
X0109730Y0025167D01*
X0109585Y0024954D01*
X0109434Y0024745D01*
X0109278Y0024540D01*
X0109117Y0024339D01*
X0108951Y0024142D01*
X0108780Y0023949D01*
X0108605Y0023760D01*
X0108425Y0023575D01*
X0108240Y0023395D01*
X0108051Y0023220D01*
X0107858Y0023049D01*
X0107661Y0022883D01*
X0107460Y0022722D01*
X0107255Y0022566D01*
X0107046Y0022415D01*
X0106833Y0022270D01*
X0106617Y0022129D01*
X0106398Y0021994D01*
X0106175Y0021864D01*
X0105950Y0021740D01*
X0105721Y0021621D01*
X0105489Y0021508D01*
X0105255Y0021401D01*
X0105018Y0021299D01*
X0104779Y0021204D01*
X0104537Y0021114D01*
X0104294Y0021030D01*
X0104048Y0020952D01*
X0103800Y0020880D01*
X0103551Y0020815D01*
X0103301Y0020755D01*
X0103048Y0020702D01*
X0102795Y0020655D01*
X0102541Y0020614D01*
X0102285Y0020579D01*
X0102029Y0020551D01*
X0101772Y0020528D01*
X0101515Y0020513D01*
X0101258Y0020503D01*
X0101000Y0020500D01*
X0100742Y0020503D01*
X0100485Y0020513D01*
X0100228Y0020528D01*
X0099971Y0020551D01*
X0099715Y0020579D01*
X0099459Y0020614D01*
X0099205Y0020655D01*
X0098952Y0020702D01*
X0098699Y0020755D01*
X0098449Y0020815D01*
X0098200Y0020880D01*
X0097952Y0020952D01*
X0097706Y0021030D01*
X0097463Y0021114D01*
X0097221Y0021204D01*
X0096982Y0021299D01*
X0096745Y0021401D01*
X0096511Y0021508D01*
X0096279Y0021621D01*
X0096050Y0021740D01*
X0095825Y0021864D01*
X0095602Y0021994D01*
X0095383Y0022129D01*
X0095167Y0022270D01*
X0094954Y0022415D01*
X0094745Y0022566D01*
X0094540Y0022722D01*
X0094339Y0022883D01*
X0094142Y0023049D01*
X0093949Y0023220D01*
X0093760Y0023395D01*
X0093575Y0023575D01*
X0093395Y0023760D01*
X0093220Y0023949D01*
X0093049Y0024142D01*
X0092883Y0024339D01*
X0092722Y0024540D01*
X0092566Y0024745D01*
X0092415Y0024954D01*
X0092270Y0025167D01*
X0092129Y0025383D01*
X0091994Y0025602D01*
X0091864Y0025825D01*
X0091740Y0026050D01*
X0091621Y0026279D01*
X0091508Y0026511D01*
X0091401Y0026745D01*
X0091299Y0026982D01*
X0091204Y0027221D01*
X0091114Y0027463D01*
X0091030Y0027706D01*
X0090952Y0027952D01*
X0090880Y0028200D01*
X0090815Y0028449D01*
X0090755Y0028699D01*
X0090702Y0028952D01*
X0090655Y0029205D01*
X0090614Y0029459D01*
X0090579Y0029715D01*
X0090551Y0029971D01*
X0090528Y0030228D01*
X0090513Y0030485D01*
X0090503Y0030742D01*
X0090500Y0031000D01*
X0104000Y0031000D02*
X0110000Y0031000D01*
X0124469Y0038850D02*
X0136906Y0038850D01*
X0137531Y0038850D02*
X0125094Y0038850D01*
X0122281Y0038312D02*
X0122207Y0038321D01*
X0122133Y0038334D01*
X0122061Y0038351D01*
X0121989Y0038372D01*
X0121918Y0038397D01*
X0121849Y0038425D01*
X0121781Y0038457D01*
X0121715Y0038492D01*
X0121651Y0038531D01*
X0121589Y0038573D01*
X0121530Y0038618D01*
X0121472Y0038666D01*
X0121418Y0038717D01*
X0121366Y0038771D01*
X0121317Y0038828D01*
X0121271Y0038887D01*
X0121228Y0038948D01*
X0121189Y0039012D01*
X0121153Y0039077D01*
X0121120Y0039145D01*
X0121091Y0039214D01*
X0121066Y0039284D01*
X0121044Y0039356D01*
X0121026Y0039428D01*
X0121012Y0039502D01*
X0121002Y0039576D01*
X0120995Y0039650D01*
X0120993Y0039725D01*
X0120995Y0039800D01*
X0121000Y0039875D01*
X0121000Y0039563D02*
X0121000Y0042750D01*
X0121000Y0042125D02*
X0120995Y0042200D01*
X0120993Y0042275D01*
X0120995Y0042350D01*
X0121002Y0042424D01*
X0121012Y0042498D01*
X0121026Y0042572D01*
X0121044Y0042644D01*
X0121066Y0042716D01*
X0121091Y0042786D01*
X0121120Y0042855D01*
X0121153Y0042923D01*
X0121189Y0042988D01*
X0121228Y0043052D01*
X0121271Y0043113D01*
X0121317Y0043172D01*
X0121366Y0043229D01*
X0121418Y0043283D01*
X0121472Y0043334D01*
X0121530Y0043382D01*
X0121589Y0043427D01*
X0121651Y0043469D01*
X0121715Y0043508D01*
X0121781Y0043543D01*
X0121849Y0043575D01*
X0121918Y0043603D01*
X0121989Y0043628D01*
X0122061Y0043649D01*
X0122133Y0043666D01*
X0122207Y0043679D01*
X0122281Y0043688D01*
X0124469Y0043150D02*
X0136906Y0043150D01*
X0137531Y0043150D02*
X0125094Y0043150D01*
X0123875Y0043531D02*
X0123781Y0043570D01*
X0123685Y0043604D01*
X0123588Y0043635D01*
X0123490Y0043662D01*
X0123391Y0043685D01*
X0123291Y0043705D01*
X0123191Y0043720D01*
X0123090Y0043732D01*
X0122988Y0043740D01*
X0122887Y0043744D01*
X0122785Y0043745D01*
X0122684Y0043741D01*
X0122582Y0043733D01*
X0122481Y0043722D01*
X0122381Y0043707D01*
X0122281Y0043688D01*
X0123875Y0043532D02*
X0123966Y0043487D01*
X0124055Y0043439D01*
X0124142Y0043387D01*
X0124227Y0043333D01*
X0124310Y0043275D01*
X0124390Y0043214D01*
X0124469Y0043150D01*
X0123875Y0038469D02*
X0123781Y0038430D01*
X0123685Y0038396D01*
X0123588Y0038365D01*
X0123490Y0038338D01*
X0123391Y0038315D01*
X0123291Y0038295D01*
X0123191Y0038280D01*
X0123090Y0038268D01*
X0122988Y0038260D01*
X0122887Y0038256D01*
X0122785Y0038255D01*
X0122684Y0038259D01*
X0122582Y0038267D01*
X0122481Y0038278D01*
X0122381Y0038293D01*
X0122281Y0038312D01*
X0123875Y0038468D02*
X0123966Y0038513D01*
X0124055Y0038561D01*
X0124142Y0038613D01*
X0124227Y0038667D01*
X0124310Y0038725D01*
X0124390Y0038786D01*
X0124469Y0038850D01*
X0138125Y0038469D02*
X0138219Y0038430D01*
X0138315Y0038396D01*
X0138412Y0038365D01*
X0138510Y0038338D01*
X0138609Y0038315D01*
X0138709Y0038295D01*
X0138809Y0038280D01*
X0138910Y0038268D01*
X0139012Y0038260D01*
X0139113Y0038256D01*
X0139215Y0038255D01*
X0139316Y0038259D01*
X0139418Y0038267D01*
X0139519Y0038278D01*
X0139619Y0038293D01*
X0139719Y0038312D01*
X0141000Y0039406D02*
X0141000Y0042125D01*
X0141005Y0042200D01*
X0141007Y0042275D01*
X0141005Y0042350D01*
X0140998Y0042424D01*
X0140988Y0042498D01*
X0140974Y0042572D01*
X0140956Y0042644D01*
X0140934Y0042716D01*
X0140909Y0042786D01*
X0140880Y0042855D01*
X0140847Y0042923D01*
X0140811Y0042988D01*
X0140772Y0043052D01*
X0140729Y0043113D01*
X0140683Y0043172D01*
X0140634Y0043229D01*
X0140582Y0043283D01*
X0140528Y0043334D01*
X0140470Y0043382D01*
X0140411Y0043427D01*
X0140349Y0043469D01*
X0140285Y0043508D01*
X0140219Y0043543D01*
X0140151Y0043575D01*
X0140082Y0043603D01*
X0140011Y0043628D01*
X0139939Y0043649D01*
X0139867Y0043666D01*
X0139793Y0043679D01*
X0139719Y0043688D01*
X0138125Y0043532D02*
X0138034Y0043487D01*
X0137945Y0043439D01*
X0137858Y0043387D01*
X0137773Y0043333D01*
X0137690Y0043275D01*
X0137610Y0043214D01*
X0137531Y0043150D01*
X0138125Y0043531D02*
X0138219Y0043570D01*
X0138315Y0043604D01*
X0138412Y0043635D01*
X0138510Y0043662D01*
X0138609Y0043685D01*
X0138709Y0043705D01*
X0138809Y0043720D01*
X0138910Y0043732D01*
X0139012Y0043740D01*
X0139113Y0043744D01*
X0139215Y0043745D01*
X0139316Y0043741D01*
X0139418Y0043733D01*
X0139519Y0043722D01*
X0139619Y0043707D01*
X0139719Y0043688D01*
X0137531Y0038850D02*
X0137610Y0038786D01*
X0137690Y0038725D01*
X0137773Y0038667D01*
X0137858Y0038613D01*
X0137945Y0038561D01*
X0138034Y0038513D01*
X0138125Y0038468D01*
X0139719Y0038312D02*
X0139793Y0038321D01*
X0139867Y0038334D01*
X0139939Y0038351D01*
X0140011Y0038372D01*
X0140082Y0038397D01*
X0140151Y0038425D01*
X0140219Y0038457D01*
X0140285Y0038492D01*
X0140349Y0038531D01*
X0140411Y0038573D01*
X0140470Y0038618D01*
X0140528Y0038666D01*
X0140582Y0038717D01*
X0140634Y0038771D01*
X0140683Y0038828D01*
X0140729Y0038887D01*
X0140772Y0038948D01*
X0140811Y0039012D01*
X0140847Y0039077D01*
X0140880Y0039145D01*
X0140909Y0039214D01*
X0140934Y0039284D01*
X0140956Y0039356D01*
X0140974Y0039428D01*
X0140988Y0039502D01*
X0140998Y0039576D01*
X0141005Y0039650D01*
X0141007Y0039725D01*
X0141005Y0039800D01*
X0141000Y0039875D01*
X0146000Y0046000D02*
X0146000Y0066000D01*
X0156000Y0066000D01*
X0156000Y0046000D01*
X0146000Y0046000D01*
X0121000Y0049406D02*
X0121000Y0052125D01*
X0121005Y0052200D01*
X0121007Y0052275D01*
X0121005Y0052350D01*
X0120998Y0052424D01*
X0120988Y0052498D01*
X0120974Y0052572D01*
X0120956Y0052644D01*
X0120934Y0052716D01*
X0120909Y0052786D01*
X0120880Y0052855D01*
X0120847Y0052923D01*
X0120811Y0052988D01*
X0120772Y0053052D01*
X0120729Y0053113D01*
X0120683Y0053172D01*
X0120634Y0053229D01*
X0120582Y0053283D01*
X0120528Y0053334D01*
X0120470Y0053382D01*
X0120411Y0053427D01*
X0120349Y0053469D01*
X0120285Y0053508D01*
X0120219Y0053543D01*
X0120151Y0053575D01*
X0120082Y0053603D01*
X0120011Y0053628D01*
X0119939Y0053649D01*
X0119867Y0053666D01*
X0119793Y0053679D01*
X0119719Y0053688D01*
X0117531Y0053150D02*
X0105094Y0053150D01*
X0104469Y0053150D02*
X0116906Y0053150D01*
X0118125Y0053531D02*
X0118219Y0053570D01*
X0118315Y0053604D01*
X0118412Y0053635D01*
X0118510Y0053662D01*
X0118609Y0053685D01*
X0118709Y0053705D01*
X0118809Y0053720D01*
X0118910Y0053732D01*
X0119012Y0053740D01*
X0119113Y0053744D01*
X0119215Y0053745D01*
X0119316Y0053741D01*
X0119418Y0053733D01*
X0119519Y0053722D01*
X0119619Y0053707D01*
X0119719Y0053688D01*
X0118125Y0053532D02*
X0118034Y0053487D01*
X0117945Y0053439D01*
X0117858Y0053387D01*
X0117773Y0053333D01*
X0117690Y0053275D01*
X0117610Y0053214D01*
X0117531Y0053150D01*
X0118125Y0048469D02*
X0118219Y0048430D01*
X0118315Y0048396D01*
X0118412Y0048365D01*
X0118510Y0048338D01*
X0118609Y0048315D01*
X0118709Y0048295D01*
X0118809Y0048280D01*
X0118910Y0048268D01*
X0119012Y0048260D01*
X0119113Y0048256D01*
X0119215Y0048255D01*
X0119316Y0048259D01*
X0119418Y0048267D01*
X0119519Y0048278D01*
X0119619Y0048293D01*
X0119719Y0048312D01*
X0117531Y0048850D02*
X0105094Y0048850D01*
X0104469Y0048850D02*
X0116906Y0048850D01*
X0119719Y0048312D02*
X0119793Y0048321D01*
X0119867Y0048334D01*
X0119939Y0048351D01*
X0120011Y0048372D01*
X0120082Y0048397D01*
X0120151Y0048425D01*
X0120219Y0048457D01*
X0120285Y0048492D01*
X0120349Y0048531D01*
X0120411Y0048573D01*
X0120470Y0048618D01*
X0120528Y0048666D01*
X0120582Y0048717D01*
X0120634Y0048771D01*
X0120683Y0048828D01*
X0120729Y0048887D01*
X0120772Y0048948D01*
X0120811Y0049012D01*
X0120847Y0049077D01*
X0120880Y0049145D01*
X0120909Y0049214D01*
X0120934Y0049284D01*
X0120956Y0049356D01*
X0120974Y0049428D01*
X0120988Y0049502D01*
X0120998Y0049576D01*
X0121005Y0049650D01*
X0121007Y0049725D01*
X0121005Y0049800D01*
X0121000Y0049875D01*
X0118125Y0048468D02*
X0118034Y0048513D01*
X0117945Y0048561D01*
X0117858Y0048613D01*
X0117773Y0048667D01*
X0117690Y0048725D01*
X0117610Y0048786D01*
X0117531Y0048850D01*
X0103875Y0048469D02*
X0103781Y0048430D01*
X0103685Y0048396D01*
X0103588Y0048365D01*
X0103490Y0048338D01*
X0103391Y0048315D01*
X0103291Y0048295D01*
X0103191Y0048280D01*
X0103090Y0048268D01*
X0102988Y0048260D01*
X0102887Y0048256D01*
X0102785Y0048255D01*
X0102684Y0048259D01*
X0102582Y0048267D01*
X0102481Y0048278D01*
X0102381Y0048293D01*
X0102281Y0048312D01*
X0101000Y0049562D02*
X0101000Y0052750D01*
X0101000Y0052125D02*
X0100995Y0052200D01*
X0100993Y0052275D01*
X0100995Y0052350D01*
X0101002Y0052424D01*
X0101012Y0052498D01*
X0101026Y0052572D01*
X0101044Y0052644D01*
X0101066Y0052716D01*
X0101091Y0052786D01*
X0101120Y0052855D01*
X0101153Y0052923D01*
X0101189Y0052988D01*
X0101228Y0053052D01*
X0101271Y0053113D01*
X0101317Y0053172D01*
X0101366Y0053229D01*
X0101418Y0053283D01*
X0101472Y0053334D01*
X0101530Y0053382D01*
X0101589Y0053427D01*
X0101651Y0053469D01*
X0101715Y0053508D01*
X0101781Y0053543D01*
X0101849Y0053575D01*
X0101918Y0053603D01*
X0101989Y0053628D01*
X0102061Y0053649D01*
X0102133Y0053666D01*
X0102207Y0053679D01*
X0102281Y0053688D01*
X0103875Y0053532D02*
X0103966Y0053487D01*
X0104055Y0053439D01*
X0104142Y0053387D01*
X0104227Y0053333D01*
X0104310Y0053275D01*
X0104390Y0053214D01*
X0104469Y0053150D01*
X0103875Y0053531D02*
X0103781Y0053570D01*
X0103685Y0053604D01*
X0103588Y0053635D01*
X0103490Y0053662D01*
X0103391Y0053685D01*
X0103291Y0053705D01*
X0103191Y0053720D01*
X0103090Y0053732D01*
X0102988Y0053740D01*
X0102887Y0053744D01*
X0102785Y0053745D01*
X0102684Y0053741D01*
X0102582Y0053733D01*
X0102481Y0053722D01*
X0102381Y0053707D01*
X0102281Y0053688D01*
X0104469Y0048850D02*
X0104390Y0048786D01*
X0104310Y0048725D01*
X0104227Y0048667D01*
X0104142Y0048613D01*
X0104055Y0048561D01*
X0103966Y0048513D01*
X0103875Y0048468D01*
X0102281Y0048312D02*
X0102207Y0048321D01*
X0102133Y0048334D01*
X0102061Y0048351D01*
X0101989Y0048372D01*
X0101918Y0048397D01*
X0101849Y0048425D01*
X0101781Y0048457D01*
X0101715Y0048492D01*
X0101651Y0048531D01*
X0101589Y0048573D01*
X0101530Y0048618D01*
X0101472Y0048666D01*
X0101418Y0048717D01*
X0101366Y0048771D01*
X0101317Y0048828D01*
X0101271Y0048887D01*
X0101228Y0048948D01*
X0101189Y0049012D01*
X0101153Y0049077D01*
X0101120Y0049145D01*
X0101091Y0049214D01*
X0101066Y0049284D01*
X0101044Y0049356D01*
X0101026Y0049428D01*
X0101012Y0049502D01*
X0101002Y0049576D01*
X0100995Y0049650D01*
X0100993Y0049725D01*
X0100995Y0049800D01*
X0101000Y0049875D01*
X0087500Y0042752D02*
X0087500Y0059248D01*
X0081500Y0061488D02*
X0081500Y0040512D01*
X0061000Y0041000D02*
X0061000Y0043500D01*
X0051000Y0043500D02*
X0051000Y0041000D01*
X0040000Y0041000D02*
X0037900Y0041000D01*
X0030000Y0041000D02*
X0030002Y0041154D01*
X0030008Y0041309D01*
X0030018Y0041463D01*
X0030032Y0041617D01*
X0030050Y0041770D01*
X0030071Y0041923D01*
X0030097Y0042076D01*
X0030127Y0042227D01*
X0030160Y0042378D01*
X0030198Y0042528D01*
X0030239Y0042677D01*
X0030284Y0042825D01*
X0030333Y0042971D01*
X0030386Y0043117D01*
X0030442Y0043260D01*
X0030502Y0043403D01*
X0030566Y0043543D01*
X0030633Y0043683D01*
X0030704Y0043820D01*
X0030778Y0043955D01*
X0030856Y0044089D01*
X0030937Y0044220D01*
X0031022Y0044349D01*
X0031110Y0044477D01*
X0031201Y0044601D01*
X0031295Y0044724D01*
X0031393Y0044844D01*
X0031493Y0044961D01*
X0031597Y0045076D01*
X0031703Y0045188D01*
X0031812Y0045297D01*
X0031924Y0045403D01*
X0032039Y0045507D01*
X0032156Y0045607D01*
X0032276Y0045705D01*
X0032399Y0045799D01*
X0032523Y0045890D01*
X0032651Y0045978D01*
X0032780Y0046063D01*
X0032911Y0046144D01*
X0033045Y0046222D01*
X0033180Y0046296D01*
X0033317Y0046367D01*
X0033457Y0046434D01*
X0033597Y0046498D01*
X0033740Y0046558D01*
X0033883Y0046614D01*
X0034029Y0046667D01*
X0034175Y0046716D01*
X0034323Y0046761D01*
X0034472Y0046802D01*
X0034622Y0046840D01*
X0034773Y0046873D01*
X0034924Y0046903D01*
X0035077Y0046929D01*
X0035230Y0046950D01*
X0035383Y0046968D01*
X0035537Y0046982D01*
X0035691Y0046992D01*
X0035846Y0046998D01*
X0036000Y0047000D01*
X0036154Y0046998D01*
X0036309Y0046992D01*
X0036463Y0046982D01*
X0036617Y0046968D01*
X0036770Y0046950D01*
X0036923Y0046929D01*
X0037076Y0046903D01*
X0037227Y0046873D01*
X0037378Y0046840D01*
X0037528Y0046802D01*
X0037677Y0046761D01*
X0037825Y0046716D01*
X0037971Y0046667D01*
X0038117Y0046614D01*
X0038260Y0046558D01*
X0038403Y0046498D01*
X0038543Y0046434D01*
X0038683Y0046367D01*
X0038820Y0046296D01*
X0038955Y0046222D01*
X0039089Y0046144D01*
X0039220Y0046063D01*
X0039349Y0045978D01*
X0039477Y0045890D01*
X0039601Y0045799D01*
X0039724Y0045705D01*
X0039844Y0045607D01*
X0039961Y0045507D01*
X0040076Y0045403D01*
X0040188Y0045297D01*
X0040297Y0045188D01*
X0040403Y0045076D01*
X0040507Y0044961D01*
X0040607Y0044844D01*
X0040705Y0044724D01*
X0040799Y0044601D01*
X0040890Y0044477D01*
X0040978Y0044349D01*
X0041063Y0044220D01*
X0041144Y0044089D01*
X0041222Y0043955D01*
X0041296Y0043820D01*
X0041367Y0043683D01*
X0041434Y0043543D01*
X0041498Y0043403D01*
X0041558Y0043260D01*
X0041614Y0043117D01*
X0041667Y0042971D01*
X0041716Y0042825D01*
X0041761Y0042677D01*
X0041802Y0042528D01*
X0041840Y0042378D01*
X0041873Y0042227D01*
X0041903Y0042076D01*
X0041929Y0041923D01*
X0041950Y0041770D01*
X0041968Y0041617D01*
X0041982Y0041463D01*
X0041992Y0041309D01*
X0041998Y0041154D01*
X0042000Y0041000D01*
X0041998Y0040846D01*
X0041992Y0040691D01*
X0041982Y0040537D01*
X0041968Y0040383D01*
X0041950Y0040230D01*
X0041929Y0040077D01*
X0041903Y0039924D01*
X0041873Y0039773D01*
X0041840Y0039622D01*
X0041802Y0039472D01*
X0041761Y0039323D01*
X0041716Y0039175D01*
X0041667Y0039029D01*
X0041614Y0038883D01*
X0041558Y0038740D01*
X0041498Y0038597D01*
X0041434Y0038457D01*
X0041367Y0038317D01*
X0041296Y0038180D01*
X0041222Y0038045D01*
X0041144Y0037911D01*
X0041063Y0037780D01*
X0040978Y0037651D01*
X0040890Y0037523D01*
X0040799Y0037399D01*
X0040705Y0037276D01*
X0040607Y0037156D01*
X0040507Y0037039D01*
X0040403Y0036924D01*
X0040297Y0036812D01*
X0040188Y0036703D01*
X0040076Y0036597D01*
X0039961Y0036493D01*
X0039844Y0036393D01*
X0039724Y0036295D01*
X0039601Y0036201D01*
X0039477Y0036110D01*
X0039349Y0036022D01*
X0039220Y0035937D01*
X0039089Y0035856D01*
X0038955Y0035778D01*
X0038820Y0035704D01*
X0038683Y0035633D01*
X0038543Y0035566D01*
X0038403Y0035502D01*
X0038260Y0035442D01*
X0038117Y0035386D01*
X0037971Y0035333D01*
X0037825Y0035284D01*
X0037677Y0035239D01*
X0037528Y0035198D01*
X0037378Y0035160D01*
X0037227Y0035127D01*
X0037076Y0035097D01*
X0036923Y0035071D01*
X0036770Y0035050D01*
X0036617Y0035032D01*
X0036463Y0035018D01*
X0036309Y0035008D01*
X0036154Y0035002D01*
X0036000Y0035000D01*
X0035846Y0035002D01*
X0035691Y0035008D01*
X0035537Y0035018D01*
X0035383Y0035032D01*
X0035230Y0035050D01*
X0035077Y0035071D01*
X0034924Y0035097D01*
X0034773Y0035127D01*
X0034622Y0035160D01*
X0034472Y0035198D01*
X0034323Y0035239D01*
X0034175Y0035284D01*
X0034029Y0035333D01*
X0033883Y0035386D01*
X0033740Y0035442D01*
X0033597Y0035502D01*
X0033457Y0035566D01*
X0033317Y0035633D01*
X0033180Y0035704D01*
X0033045Y0035778D01*
X0032911Y0035856D01*
X0032780Y0035937D01*
X0032651Y0036022D01*
X0032523Y0036110D01*
X0032399Y0036201D01*
X0032276Y0036295D01*
X0032156Y0036393D01*
X0032039Y0036493D01*
X0031924Y0036597D01*
X0031812Y0036703D01*
X0031703Y0036812D01*
X0031597Y0036924D01*
X0031493Y0037039D01*
X0031393Y0037156D01*
X0031295Y0037276D01*
X0031201Y0037399D01*
X0031110Y0037523D01*
X0031022Y0037651D01*
X0030937Y0037780D01*
X0030856Y0037911D01*
X0030778Y0038045D01*
X0030704Y0038180D01*
X0030633Y0038317D01*
X0030566Y0038457D01*
X0030502Y0038597D01*
X0030442Y0038740D01*
X0030386Y0038883D01*
X0030333Y0039029D01*
X0030284Y0039175D01*
X0030239Y0039323D01*
X0030198Y0039472D01*
X0030160Y0039622D01*
X0030127Y0039773D01*
X0030097Y0039924D01*
X0030071Y0040077D01*
X0030050Y0040230D01*
X0030032Y0040383D01*
X0030018Y0040537D01*
X0030008Y0040691D01*
X0030002Y0040846D01*
X0030000Y0041000D01*
X0032000Y0041000D02*
X0034250Y0041000D01*
X0051000Y0058500D02*
X0051000Y0061000D01*
X0061000Y0061000D02*
X0061000Y0058500D01*
X0085378Y0060546D02*
X0085603Y0060439D01*
X0085826Y0060327D01*
X0086046Y0060210D01*
X0086263Y0060088D01*
X0086478Y0059960D01*
X0086689Y0059827D01*
X0086897Y0059690D01*
X0087101Y0059547D01*
X0087303Y0059400D01*
X0087500Y0059248D01*
X0101000Y0059562D02*
X0101000Y0062750D01*
X0101000Y0062125D02*
X0100995Y0062200D01*
X0100993Y0062275D01*
X0100995Y0062350D01*
X0101002Y0062424D01*
X0101012Y0062498D01*
X0101026Y0062572D01*
X0101044Y0062644D01*
X0101066Y0062716D01*
X0101091Y0062786D01*
X0101120Y0062855D01*
X0101153Y0062923D01*
X0101189Y0062988D01*
X0101228Y0063052D01*
X0101271Y0063113D01*
X0101317Y0063172D01*
X0101366Y0063229D01*
X0101418Y0063283D01*
X0101472Y0063334D01*
X0101530Y0063382D01*
X0101589Y0063427D01*
X0101651Y0063469D01*
X0101715Y0063508D01*
X0101781Y0063543D01*
X0101849Y0063575D01*
X0101918Y0063603D01*
X0101989Y0063628D01*
X0102061Y0063649D01*
X0102133Y0063666D01*
X0102207Y0063679D01*
X0102281Y0063688D01*
X0104469Y0063150D02*
X0116906Y0063150D01*
X0117531Y0063150D02*
X0105094Y0063150D01*
X0103875Y0063531D02*
X0103781Y0063570D01*
X0103685Y0063604D01*
X0103588Y0063635D01*
X0103490Y0063662D01*
X0103391Y0063685D01*
X0103291Y0063705D01*
X0103191Y0063720D01*
X0103090Y0063732D01*
X0102988Y0063740D01*
X0102887Y0063744D01*
X0102785Y0063745D01*
X0102684Y0063741D01*
X0102582Y0063733D01*
X0102481Y0063722D01*
X0102381Y0063707D01*
X0102281Y0063688D01*
X0103875Y0063532D02*
X0103966Y0063487D01*
X0104055Y0063439D01*
X0104142Y0063387D01*
X0104227Y0063333D01*
X0104310Y0063275D01*
X0104390Y0063214D01*
X0104469Y0063150D01*
X0103875Y0058469D02*
X0103781Y0058430D01*
X0103685Y0058396D01*
X0103588Y0058365D01*
X0103490Y0058338D01*
X0103391Y0058315D01*
X0103291Y0058295D01*
X0103191Y0058280D01*
X0103090Y0058268D01*
X0102988Y0058260D01*
X0102887Y0058256D01*
X0102785Y0058255D01*
X0102684Y0058259D01*
X0102582Y0058267D01*
X0102481Y0058278D01*
X0102381Y0058293D01*
X0102281Y0058312D01*
X0104469Y0058850D02*
X0116906Y0058850D01*
X0117531Y0058850D02*
X0105094Y0058850D01*
X0102281Y0058312D02*
X0102207Y0058321D01*
X0102133Y0058334D01*
X0102061Y0058351D01*
X0101989Y0058372D01*
X0101918Y0058397D01*
X0101849Y0058425D01*
X0101781Y0058457D01*
X0101715Y0058492D01*
X0101651Y0058531D01*
X0101589Y0058573D01*
X0101530Y0058618D01*
X0101472Y0058666D01*
X0101418Y0058717D01*
X0101366Y0058771D01*
X0101317Y0058828D01*
X0101271Y0058887D01*
X0101228Y0058948D01*
X0101189Y0059012D01*
X0101153Y0059077D01*
X0101120Y0059145D01*
X0101091Y0059214D01*
X0101066Y0059284D01*
X0101044Y0059356D01*
X0101026Y0059428D01*
X0101012Y0059502D01*
X0101002Y0059576D01*
X0100995Y0059650D01*
X0100993Y0059725D01*
X0100995Y0059800D01*
X0101000Y0059875D01*
X0103875Y0058468D02*
X0103966Y0058513D01*
X0104055Y0058561D01*
X0104142Y0058613D01*
X0104227Y0058667D01*
X0104310Y0058725D01*
X0104390Y0058786D01*
X0104469Y0058850D01*
X0118125Y0058469D02*
X0118219Y0058430D01*
X0118315Y0058396D01*
X0118412Y0058365D01*
X0118510Y0058338D01*
X0118609Y0058315D01*
X0118709Y0058295D01*
X0118809Y0058280D01*
X0118910Y0058268D01*
X0119012Y0058260D01*
X0119113Y0058256D01*
X0119215Y0058255D01*
X0119316Y0058259D01*
X0119418Y0058267D01*
X0119519Y0058278D01*
X0119619Y0058293D01*
X0119719Y0058312D01*
X0119793Y0058321D01*
X0119867Y0058334D01*
X0119939Y0058351D01*
X0120011Y0058372D01*
X0120082Y0058397D01*
X0120151Y0058425D01*
X0120219Y0058457D01*
X0120285Y0058492D01*
X0120349Y0058531D01*
X0120411Y0058573D01*
X0120470Y0058618D01*
X0120528Y0058666D01*
X0120582Y0058717D01*
X0120634Y0058771D01*
X0120683Y0058828D01*
X0120729Y0058887D01*
X0120772Y0058948D01*
X0120811Y0059012D01*
X0120847Y0059077D01*
X0120880Y0059145D01*
X0120909Y0059214D01*
X0120934Y0059284D01*
X0120956Y0059356D01*
X0120974Y0059428D01*
X0120988Y0059502D01*
X0120998Y0059576D01*
X0121005Y0059650D01*
X0121007Y0059725D01*
X0121005Y0059800D01*
X0121000Y0059875D01*
X0121000Y0059406D02*
X0121000Y0062125D01*
X0121005Y0062200D01*
X0121007Y0062275D01*
X0121005Y0062350D01*
X0120998Y0062424D01*
X0120988Y0062498D01*
X0120974Y0062572D01*
X0120956Y0062644D01*
X0120934Y0062716D01*
X0120909Y0062786D01*
X0120880Y0062855D01*
X0120847Y0062923D01*
X0120811Y0062988D01*
X0120772Y0063052D01*
X0120729Y0063113D01*
X0120683Y0063172D01*
X0120634Y0063229D01*
X0120582Y0063283D01*
X0120528Y0063334D01*
X0120470Y0063382D01*
X0120411Y0063427D01*
X0120349Y0063469D01*
X0120285Y0063508D01*
X0120219Y0063543D01*
X0120151Y0063575D01*
X0120082Y0063603D01*
X0120011Y0063628D01*
X0119939Y0063649D01*
X0119867Y0063666D01*
X0119793Y0063679D01*
X0119719Y0063688D01*
X0118125Y0063532D02*
X0118034Y0063487D01*
X0117945Y0063439D01*
X0117858Y0063387D01*
X0117773Y0063333D01*
X0117690Y0063275D01*
X0117610Y0063214D01*
X0117531Y0063150D01*
X0118125Y0063531D02*
X0118219Y0063570D01*
X0118315Y0063604D01*
X0118412Y0063635D01*
X0118510Y0063662D01*
X0118609Y0063685D01*
X0118709Y0063705D01*
X0118809Y0063720D01*
X0118910Y0063732D01*
X0119012Y0063740D01*
X0119113Y0063744D01*
X0119215Y0063745D01*
X0119316Y0063741D01*
X0119418Y0063733D01*
X0119519Y0063722D01*
X0119619Y0063707D01*
X0119719Y0063688D01*
X0117531Y0058850D02*
X0117610Y0058786D01*
X0117690Y0058725D01*
X0117773Y0058667D01*
X0117858Y0058613D01*
X0117945Y0058561D01*
X0118034Y0058513D01*
X0118125Y0058468D01*
X0081500Y0061488D02*
X0081244Y0061497D01*
X0080988Y0061500D01*
X0080732Y0061497D01*
X0080476Y0061487D01*
X0080221Y0061471D01*
X0079966Y0061449D01*
X0079711Y0061421D01*
X0079458Y0061386D01*
X0079205Y0061345D01*
X0078953Y0061299D01*
X0078703Y0061246D01*
X0078454Y0061187D01*
X0078206Y0061121D01*
X0077960Y0061050D01*
X0077716Y0060973D01*
X0077474Y0060890D01*
X0077234Y0060801D01*
X0076996Y0060707D01*
X0076761Y0060606D01*
X0076528Y0060500D01*
X0081500Y0061488D02*
X0081757Y0061473D01*
X0082014Y0061451D01*
X0082270Y0061423D01*
X0082525Y0061389D01*
X0082779Y0061348D01*
X0083032Y0061301D01*
X0083284Y0061248D01*
X0083535Y0061189D01*
X0083784Y0061124D01*
X0084031Y0061053D01*
X0084277Y0060976D01*
X0084521Y0060892D01*
X0084762Y0060803D01*
X0085001Y0060708D01*
X0085238Y0060607D01*
X0085472Y0060500D01*
X0081500Y0040512D02*
X0081244Y0040503D01*
X0080988Y0040500D01*
X0080732Y0040503D01*
X0080476Y0040513D01*
X0080221Y0040529D01*
X0079966Y0040551D01*
X0079711Y0040579D01*
X0079458Y0040614D01*
X0079205Y0040655D01*
X0078953Y0040701D01*
X0078703Y0040754D01*
X0078454Y0040813D01*
X0078206Y0040879D01*
X0077960Y0040950D01*
X0077716Y0041027D01*
X0077474Y0041110D01*
X0077234Y0041199D01*
X0076996Y0041293D01*
X0076761Y0041394D01*
X0076528Y0041500D01*
X0085472Y0041498D02*
X0085687Y0041602D01*
X0085900Y0041711D01*
X0086110Y0041825D01*
X0086317Y0041944D01*
X0086522Y0042067D01*
X0086724Y0042195D01*
X0086923Y0042328D01*
X0087118Y0042465D01*
X0087311Y0042606D01*
X0087500Y0042752D01*
X0076528Y0041500D02*
X0076298Y0041612D01*
X0076071Y0041729D01*
X0075847Y0041851D01*
X0075626Y0041979D01*
X0075409Y0042113D01*
X0075194Y0042251D01*
X0074983Y0042395D01*
X0074776Y0042544D01*
X0074572Y0042698D01*
X0074372Y0042856D01*
X0074176Y0043020D01*
X0073984Y0043188D01*
X0073796Y0043361D01*
X0073612Y0043539D01*
X0073433Y0043720D01*
X0073258Y0043907D01*
X0073088Y0044097D01*
X0072923Y0044291D01*
X0072762Y0044490D01*
X0072606Y0044692D01*
X0072455Y0044898D01*
X0072309Y0045108D01*
X0072169Y0045321D01*
X0072033Y0045537D01*
X0071903Y0045757D01*
X0071778Y0045980D01*
X0071659Y0046205D01*
X0071545Y0046434D01*
X0071437Y0046665D01*
X0071334Y0046899D01*
X0071237Y0047135D01*
X0071146Y0047374D01*
X0071061Y0047614D01*
X0070981Y0047857D01*
X0070908Y0048102D01*
X0070840Y0048348D01*
X0070779Y0048596D01*
X0070724Y0048845D01*
X0070674Y0049095D01*
X0070631Y0049347D01*
X0070594Y0049600D01*
X0070563Y0049853D01*
X0070538Y0050107D01*
X0070519Y0050362D01*
X0070507Y0050617D01*
X0070501Y0050872D01*
X0070501Y0051128D01*
X0070507Y0051383D01*
X0070519Y0051638D01*
X0070538Y0051893D01*
X0070563Y0052147D01*
X0070594Y0052400D01*
X0070631Y0052653D01*
X0070674Y0052905D01*
X0070724Y0053155D01*
X0070779Y0053404D01*
X0070840Y0053652D01*
X0070908Y0053898D01*
X0070981Y0054143D01*
X0071061Y0054386D01*
X0071146Y0054626D01*
X0071237Y0054865D01*
X0071334Y0055101D01*
X0071437Y0055335D01*
X0071545Y0055566D01*
X0071659Y0055795D01*
X0071778Y0056020D01*
X0071903Y0056243D01*
X0072033Y0056463D01*
X0072169Y0056679D01*
X0072309Y0056892D01*
X0072455Y0057102D01*
X0072606Y0057308D01*
X0072762Y0057510D01*
X0072923Y0057709D01*
X0073088Y0057903D01*
X0073258Y0058093D01*
X0073433Y0058280D01*
X0073612Y0058461D01*
X0073796Y0058639D01*
X0073984Y0058812D01*
X0074176Y0058980D01*
X0074372Y0059144D01*
X0074572Y0059302D01*
X0074776Y0059456D01*
X0074983Y0059605D01*
X0075194Y0059749D01*
X0075409Y0059887D01*
X0075626Y0060021D01*
X0075847Y0060149D01*
X0076071Y0060271D01*
X0076298Y0060388D01*
X0076528Y0060500D01*
X0081500Y0040512D02*
X0081757Y0040527D01*
X0082014Y0040549D01*
X0082270Y0040577D01*
X0082525Y0040611D01*
X0082779Y0040652D01*
X0083032Y0040699D01*
X0083284Y0040752D01*
X0083535Y0040811D01*
X0083784Y0040876D01*
X0084031Y0040947D01*
X0084277Y0041024D01*
X0084521Y0041108D01*
X0084762Y0041197D01*
X0085001Y0041292D01*
X0085238Y0041393D01*
X0085472Y0041500D01*
X0076528Y0030502D02*
X0076313Y0030398D01*
X0076100Y0030289D01*
X0075890Y0030175D01*
X0075683Y0030056D01*
X0075478Y0029933D01*
X0075276Y0029805D01*
X0075077Y0029672D01*
X0074882Y0029535D01*
X0074689Y0029394D01*
X0074500Y0029248D01*
X0080500Y0031488D02*
X0080756Y0031497D01*
X0081012Y0031500D01*
X0081268Y0031497D01*
X0081524Y0031487D01*
X0081779Y0031471D01*
X0082034Y0031449D01*
X0082289Y0031421D01*
X0082542Y0031386D01*
X0082795Y0031345D01*
X0083047Y0031299D01*
X0083297Y0031246D01*
X0083546Y0031187D01*
X0083794Y0031121D01*
X0084040Y0031050D01*
X0084284Y0030973D01*
X0084526Y0030890D01*
X0084766Y0030801D01*
X0085004Y0030707D01*
X0085239Y0030606D01*
X0085472Y0030500D01*
X0080500Y0031488D02*
X0080243Y0031473D01*
X0079986Y0031451D01*
X0079730Y0031423D01*
X0079475Y0031389D01*
X0079221Y0031348D01*
X0078968Y0031301D01*
X0078716Y0031248D01*
X0078465Y0031189D01*
X0078216Y0031124D01*
X0077969Y0031053D01*
X0077723Y0030976D01*
X0077479Y0030892D01*
X0077238Y0030803D01*
X0076999Y0030708D01*
X0076762Y0030607D01*
X0076528Y0030500D01*
X0080500Y0010512D02*
X0080756Y0010503D01*
X0081012Y0010500D01*
X0081268Y0010503D01*
X0081524Y0010513D01*
X0081779Y0010529D01*
X0082034Y0010551D01*
X0082289Y0010579D01*
X0082542Y0010614D01*
X0082795Y0010655D01*
X0083047Y0010701D01*
X0083297Y0010754D01*
X0083546Y0010813D01*
X0083794Y0010879D01*
X0084040Y0010950D01*
X0084284Y0011027D01*
X0084526Y0011110D01*
X0084766Y0011199D01*
X0085004Y0011293D01*
X0085239Y0011394D01*
X0085472Y0011500D01*
X0076622Y0011454D02*
X0076397Y0011561D01*
X0076174Y0011673D01*
X0075954Y0011790D01*
X0075737Y0011912D01*
X0075522Y0012040D01*
X0075311Y0012173D01*
X0075103Y0012310D01*
X0074899Y0012453D01*
X0074697Y0012600D01*
X0074500Y0012752D01*
X0085472Y0011500D02*
X0085702Y0011612D01*
X0085929Y0011729D01*
X0086153Y0011851D01*
X0086374Y0011979D01*
X0086591Y0012113D01*
X0086806Y0012251D01*
X0087017Y0012395D01*
X0087224Y0012544D01*
X0087428Y0012698D01*
X0087628Y0012856D01*
X0087824Y0013020D01*
X0088016Y0013188D01*
X0088204Y0013361D01*
X0088388Y0013539D01*
X0088567Y0013720D01*
X0088742Y0013907D01*
X0088912Y0014097D01*
X0089077Y0014291D01*
X0089238Y0014490D01*
X0089394Y0014692D01*
X0089545Y0014898D01*
X0089691Y0015108D01*
X0089831Y0015321D01*
X0089967Y0015537D01*
X0090097Y0015757D01*
X0090222Y0015980D01*
X0090341Y0016205D01*
X0090455Y0016434D01*
X0090563Y0016665D01*
X0090666Y0016899D01*
X0090763Y0017135D01*
X0090854Y0017374D01*
X0090939Y0017614D01*
X0091019Y0017857D01*
X0091092Y0018102D01*
X0091160Y0018348D01*
X0091221Y0018596D01*
X0091276Y0018845D01*
X0091326Y0019095D01*
X0091369Y0019347D01*
X0091406Y0019600D01*
X0091437Y0019853D01*
X0091462Y0020107D01*
X0091481Y0020362D01*
X0091493Y0020617D01*
X0091499Y0020872D01*
X0091499Y0021128D01*
X0091493Y0021383D01*
X0091481Y0021638D01*
X0091462Y0021893D01*
X0091437Y0022147D01*
X0091406Y0022400D01*
X0091369Y0022653D01*
X0091326Y0022905D01*
X0091276Y0023155D01*
X0091221Y0023404D01*
X0091160Y0023652D01*
X0091092Y0023898D01*
X0091019Y0024143D01*
X0090939Y0024386D01*
X0090854Y0024626D01*
X0090763Y0024865D01*
X0090666Y0025101D01*
X0090563Y0025335D01*
X0090455Y0025566D01*
X0090341Y0025795D01*
X0090222Y0026020D01*
X0090097Y0026243D01*
X0089967Y0026463D01*
X0089831Y0026679D01*
X0089691Y0026892D01*
X0089545Y0027102D01*
X0089394Y0027308D01*
X0089238Y0027510D01*
X0089077Y0027709D01*
X0088912Y0027903D01*
X0088742Y0028093D01*
X0088567Y0028280D01*
X0088388Y0028461D01*
X0088204Y0028639D01*
X0088016Y0028812D01*
X0087824Y0028980D01*
X0087628Y0029144D01*
X0087428Y0029302D01*
X0087224Y0029456D01*
X0087017Y0029605D01*
X0086806Y0029749D01*
X0086591Y0029887D01*
X0086374Y0030021D01*
X0086153Y0030149D01*
X0085929Y0030271D01*
X0085702Y0030388D01*
X0085472Y0030500D01*
X0080500Y0010512D02*
X0080243Y0010527D01*
X0079986Y0010549D01*
X0079730Y0010577D01*
X0079475Y0010611D01*
X0079221Y0010652D01*
X0078968Y0010699D01*
X0078716Y0010752D01*
X0078465Y0010811D01*
X0078216Y0010876D01*
X0077969Y0010947D01*
X0077723Y0011024D01*
X0077479Y0011108D01*
X0077238Y0011197D01*
X0076999Y0011292D01*
X0076762Y0011393D01*
X0076528Y0011500D01*
X0050546Y0016622D02*
X0050439Y0016397D01*
X0050327Y0016174D01*
X0050210Y0015954D01*
X0050088Y0015737D01*
X0049960Y0015522D01*
X0049827Y0015311D01*
X0049690Y0015103D01*
X0049547Y0014899D01*
X0049400Y0014697D01*
X0049248Y0014500D01*
X0051488Y0020500D02*
X0051497Y0020756D01*
X0051500Y0021012D01*
X0051497Y0021268D01*
X0051487Y0021524D01*
X0051471Y0021779D01*
X0051449Y0022034D01*
X0051421Y0022289D01*
X0051386Y0022542D01*
X0051345Y0022795D01*
X0051299Y0023047D01*
X0051246Y0023297D01*
X0051187Y0023546D01*
X0051121Y0023794D01*
X0051050Y0024040D01*
X0050973Y0024284D01*
X0050890Y0024526D01*
X0050801Y0024766D01*
X0050707Y0025004D01*
X0050606Y0025239D01*
X0050500Y0025472D01*
X0051488Y0020500D02*
X0051473Y0020243D01*
X0051451Y0019986D01*
X0051423Y0019730D01*
X0051389Y0019475D01*
X0051348Y0019221D01*
X0051301Y0018968D01*
X0051248Y0018716D01*
X0051189Y0018465D01*
X0051124Y0018216D01*
X0051053Y0017969D01*
X0050976Y0017723D01*
X0050892Y0017479D01*
X0050803Y0017238D01*
X0050708Y0016999D01*
X0050607Y0016762D01*
X0050500Y0016528D01*
X0050500Y0025472D02*
X0050388Y0025702D01*
X0050271Y0025929D01*
X0050149Y0026153D01*
X0050021Y0026374D01*
X0049887Y0026591D01*
X0049749Y0026806D01*
X0049605Y0027017D01*
X0049456Y0027224D01*
X0049302Y0027428D01*
X0049144Y0027628D01*
X0048980Y0027824D01*
X0048812Y0028016D01*
X0048639Y0028204D01*
X0048461Y0028388D01*
X0048280Y0028567D01*
X0048093Y0028742D01*
X0047903Y0028912D01*
X0047709Y0029077D01*
X0047510Y0029238D01*
X0047308Y0029394D01*
X0047102Y0029545D01*
X0046892Y0029691D01*
X0046679Y0029831D01*
X0046463Y0029967D01*
X0046243Y0030097D01*
X0046020Y0030222D01*
X0045795Y0030341D01*
X0045566Y0030455D01*
X0045335Y0030563D01*
X0045101Y0030666D01*
X0044865Y0030763D01*
X0044626Y0030854D01*
X0044386Y0030939D01*
X0044143Y0031019D01*
X0043898Y0031092D01*
X0043652Y0031160D01*
X0043404Y0031221D01*
X0043155Y0031276D01*
X0042905Y0031326D01*
X0042653Y0031369D01*
X0042400Y0031406D01*
X0042147Y0031437D01*
X0041893Y0031462D01*
X0041638Y0031481D01*
X0041383Y0031493D01*
X0041128Y0031499D01*
X0040872Y0031499D01*
X0040617Y0031493D01*
X0040362Y0031481D01*
X0040107Y0031462D01*
X0039853Y0031437D01*
X0039600Y0031406D01*
X0039347Y0031369D01*
X0039095Y0031326D01*
X0038845Y0031276D01*
X0038596Y0031221D01*
X0038348Y0031160D01*
X0038102Y0031092D01*
X0037857Y0031019D01*
X0037614Y0030939D01*
X0037374Y0030854D01*
X0037135Y0030763D01*
X0036899Y0030666D01*
X0036665Y0030563D01*
X0036434Y0030455D01*
X0036205Y0030341D01*
X0035980Y0030222D01*
X0035757Y0030097D01*
X0035537Y0029967D01*
X0035321Y0029831D01*
X0035108Y0029691D01*
X0034898Y0029545D01*
X0034692Y0029394D01*
X0034490Y0029238D01*
X0034291Y0029077D01*
X0034097Y0028912D01*
X0033907Y0028742D01*
X0033720Y0028567D01*
X0033539Y0028388D01*
X0033361Y0028204D01*
X0033188Y0028016D01*
X0033020Y0027824D01*
X0032856Y0027628D01*
X0032698Y0027428D01*
X0032544Y0027224D01*
X0032395Y0027017D01*
X0032251Y0026806D01*
X0032113Y0026591D01*
X0031979Y0026374D01*
X0031851Y0026153D01*
X0031729Y0025929D01*
X0031612Y0025702D01*
X0031500Y0025472D01*
X0030512Y0020500D02*
X0030527Y0020243D01*
X0030549Y0019986D01*
X0030577Y0019730D01*
X0030611Y0019475D01*
X0030652Y0019221D01*
X0030699Y0018968D01*
X0030752Y0018716D01*
X0030811Y0018465D01*
X0030876Y0018216D01*
X0030947Y0017969D01*
X0031024Y0017723D01*
X0031108Y0017479D01*
X0031197Y0017238D01*
X0031292Y0016999D01*
X0031393Y0016762D01*
X0031500Y0016528D01*
X0032000Y0061000D02*
X0034250Y0061000D01*
X0030000Y0061000D02*
X0030002Y0061154D01*
X0030008Y0061309D01*
X0030018Y0061463D01*
X0030032Y0061617D01*
X0030050Y0061770D01*
X0030071Y0061923D01*
X0030097Y0062076D01*
X0030127Y0062227D01*
X0030160Y0062378D01*
X0030198Y0062528D01*
X0030239Y0062677D01*
X0030284Y0062825D01*
X0030333Y0062971D01*
X0030386Y0063117D01*
X0030442Y0063260D01*
X0030502Y0063403D01*
X0030566Y0063543D01*
X0030633Y0063683D01*
X0030704Y0063820D01*
X0030778Y0063955D01*
X0030856Y0064089D01*
X0030937Y0064220D01*
X0031022Y0064349D01*
X0031110Y0064477D01*
X0031201Y0064601D01*
X0031295Y0064724D01*
X0031393Y0064844D01*
X0031493Y0064961D01*
X0031597Y0065076D01*
X0031703Y0065188D01*
X0031812Y0065297D01*
X0031924Y0065403D01*
X0032039Y0065507D01*
X0032156Y0065607D01*
X0032276Y0065705D01*
X0032399Y0065799D01*
X0032523Y0065890D01*
X0032651Y0065978D01*
X0032780Y0066063D01*
X0032911Y0066144D01*
X0033045Y0066222D01*
X0033180Y0066296D01*
X0033317Y0066367D01*
X0033457Y0066434D01*
X0033597Y0066498D01*
X0033740Y0066558D01*
X0033883Y0066614D01*
X0034029Y0066667D01*
X0034175Y0066716D01*
X0034323Y0066761D01*
X0034472Y0066802D01*
X0034622Y0066840D01*
X0034773Y0066873D01*
X0034924Y0066903D01*
X0035077Y0066929D01*
X0035230Y0066950D01*
X0035383Y0066968D01*
X0035537Y0066982D01*
X0035691Y0066992D01*
X0035846Y0066998D01*
X0036000Y0067000D01*
X0036154Y0066998D01*
X0036309Y0066992D01*
X0036463Y0066982D01*
X0036617Y0066968D01*
X0036770Y0066950D01*
X0036923Y0066929D01*
X0037076Y0066903D01*
X0037227Y0066873D01*
X0037378Y0066840D01*
X0037528Y0066802D01*
X0037677Y0066761D01*
X0037825Y0066716D01*
X0037971Y0066667D01*
X0038117Y0066614D01*
X0038260Y0066558D01*
X0038403Y0066498D01*
X0038543Y0066434D01*
X0038683Y0066367D01*
X0038820Y0066296D01*
X0038955Y0066222D01*
X0039089Y0066144D01*
X0039220Y0066063D01*
X0039349Y0065978D01*
X0039477Y0065890D01*
X0039601Y0065799D01*
X0039724Y0065705D01*
X0039844Y0065607D01*
X0039961Y0065507D01*
X0040076Y0065403D01*
X0040188Y0065297D01*
X0040297Y0065188D01*
X0040403Y0065076D01*
X0040507Y0064961D01*
X0040607Y0064844D01*
X0040705Y0064724D01*
X0040799Y0064601D01*
X0040890Y0064477D01*
X0040978Y0064349D01*
X0041063Y0064220D01*
X0041144Y0064089D01*
X0041222Y0063955D01*
X0041296Y0063820D01*
X0041367Y0063683D01*
X0041434Y0063543D01*
X0041498Y0063403D01*
X0041558Y0063260D01*
X0041614Y0063117D01*
X0041667Y0062971D01*
X0041716Y0062825D01*
X0041761Y0062677D01*
X0041802Y0062528D01*
X0041840Y0062378D01*
X0041873Y0062227D01*
X0041903Y0062076D01*
X0041929Y0061923D01*
X0041950Y0061770D01*
X0041968Y0061617D01*
X0041982Y0061463D01*
X0041992Y0061309D01*
X0041998Y0061154D01*
X0042000Y0061000D01*
X0041998Y0060846D01*
X0041992Y0060691D01*
X0041982Y0060537D01*
X0041968Y0060383D01*
X0041950Y0060230D01*
X0041929Y0060077D01*
X0041903Y0059924D01*
X0041873Y0059773D01*
X0041840Y0059622D01*
X0041802Y0059472D01*
X0041761Y0059323D01*
X0041716Y0059175D01*
X0041667Y0059029D01*
X0041614Y0058883D01*
X0041558Y0058740D01*
X0041498Y0058597D01*
X0041434Y0058457D01*
X0041367Y0058317D01*
X0041296Y0058180D01*
X0041222Y0058045D01*
X0041144Y0057911D01*
X0041063Y0057780D01*
X0040978Y0057651D01*
X0040890Y0057523D01*
X0040799Y0057399D01*
X0040705Y0057276D01*
X0040607Y0057156D01*
X0040507Y0057039D01*
X0040403Y0056924D01*
X0040297Y0056812D01*
X0040188Y0056703D01*
X0040076Y0056597D01*
X0039961Y0056493D01*
X0039844Y0056393D01*
X0039724Y0056295D01*
X0039601Y0056201D01*
X0039477Y0056110D01*
X0039349Y0056022D01*
X0039220Y0055937D01*
X0039089Y0055856D01*
X0038955Y0055778D01*
X0038820Y0055704D01*
X0038683Y0055633D01*
X0038543Y0055566D01*
X0038403Y0055502D01*
X0038260Y0055442D01*
X0038117Y0055386D01*
X0037971Y0055333D01*
X0037825Y0055284D01*
X0037677Y0055239D01*
X0037528Y0055198D01*
X0037378Y0055160D01*
X0037227Y0055127D01*
X0037076Y0055097D01*
X0036923Y0055071D01*
X0036770Y0055050D01*
X0036617Y0055032D01*
X0036463Y0055018D01*
X0036309Y0055008D01*
X0036154Y0055002D01*
X0036000Y0055000D01*
X0035846Y0055002D01*
X0035691Y0055008D01*
X0035537Y0055018D01*
X0035383Y0055032D01*
X0035230Y0055050D01*
X0035077Y0055071D01*
X0034924Y0055097D01*
X0034773Y0055127D01*
X0034622Y0055160D01*
X0034472Y0055198D01*
X0034323Y0055239D01*
X0034175Y0055284D01*
X0034029Y0055333D01*
X0033883Y0055386D01*
X0033740Y0055442D01*
X0033597Y0055502D01*
X0033457Y0055566D01*
X0033317Y0055633D01*
X0033180Y0055704D01*
X0033045Y0055778D01*
X0032911Y0055856D01*
X0032780Y0055937D01*
X0032651Y0056022D01*
X0032523Y0056110D01*
X0032399Y0056201D01*
X0032276Y0056295D01*
X0032156Y0056393D01*
X0032039Y0056493D01*
X0031924Y0056597D01*
X0031812Y0056703D01*
X0031703Y0056812D01*
X0031597Y0056924D01*
X0031493Y0057039D01*
X0031393Y0057156D01*
X0031295Y0057276D01*
X0031201Y0057399D01*
X0031110Y0057523D01*
X0031022Y0057651D01*
X0030937Y0057780D01*
X0030856Y0057911D01*
X0030778Y0058045D01*
X0030704Y0058180D01*
X0030633Y0058317D01*
X0030566Y0058457D01*
X0030502Y0058597D01*
X0030442Y0058740D01*
X0030386Y0058883D01*
X0030333Y0059029D01*
X0030284Y0059175D01*
X0030239Y0059323D01*
X0030198Y0059472D01*
X0030160Y0059622D01*
X0030127Y0059773D01*
X0030097Y0059924D01*
X0030071Y0060077D01*
X0030050Y0060230D01*
X0030032Y0060383D01*
X0030018Y0060537D01*
X0030008Y0060691D01*
X0030002Y0060846D01*
X0030000Y0061000D01*
X0037900Y0061000D02*
X0040000Y0061000D01*
X0146000Y0026000D02*
X0146000Y0006000D01*
X0156000Y0006000D01*
X0156000Y0026000D01*
X0146000Y0026000D01*
D11*
X0136907Y0027802D02*
X0135440Y0027802D01*
X0135440Y0025600D01*
X0134698Y0025967D02*
X0134698Y0026701D01*
X0134698Y0025967D02*
X0134331Y0025600D01*
X0133964Y0025600D01*
X0133597Y0025967D01*
X0133597Y0025233D01*
X0133230Y0024866D01*
X0132488Y0025967D02*
X0132121Y0025600D01*
X0131387Y0025600D01*
X0131020Y0025967D01*
X0132488Y0027435D01*
X0132488Y0025967D01*
X0133597Y0025967D02*
X0133597Y0026701D01*
X0132488Y0027435D02*
X0132121Y0027802D01*
X0131387Y0027802D01*
X0131020Y0027435D01*
X0131020Y0025967D01*
X0130278Y0027435D02*
X0128810Y0025967D01*
X0128810Y0025600D01*
X0127701Y0025600D02*
X0127701Y0027802D01*
X0126600Y0026701D01*
X0128068Y0026701D01*
X0128810Y0027802D02*
X0130278Y0027802D01*
X0130278Y0027435D01*
X0135440Y0026701D02*
X0136173Y0026701D01*
X0157473Y0018222D02*
X0157473Y0017021D01*
X0157473Y0017621D02*
X0159275Y0017621D01*
X0159275Y0016380D02*
X0158074Y0016380D01*
X0157473Y0015780D01*
X0158074Y0015179D01*
X0159275Y0015179D01*
X0158975Y0014539D02*
X0158674Y0014539D01*
X0158374Y0014238D01*
X0158374Y0013338D01*
X0158374Y0014238D02*
X0158074Y0014539D01*
X0157774Y0014539D01*
X0157473Y0014238D01*
X0157473Y0013338D01*
X0159275Y0013338D01*
X0159275Y0014238D01*
X0158975Y0014539D01*
X0158374Y0015179D02*
X0158374Y0016380D01*
X0130278Y0006535D02*
X0130278Y0006168D01*
X0129911Y0005801D01*
X0130278Y0005434D01*
X0130278Y0005067D01*
X0129911Y0004700D01*
X0129177Y0004700D01*
X0128810Y0005067D01*
X0128068Y0005067D02*
X0127701Y0004700D01*
X0126967Y0004700D01*
X0126600Y0005067D01*
X0126600Y0006535D01*
X0126967Y0006902D01*
X0127701Y0006902D01*
X0128068Y0006535D01*
X0128810Y0006535D02*
X0129177Y0006902D01*
X0129911Y0006902D01*
X0130278Y0006535D01*
X0129911Y0005801D02*
X0129544Y0005801D01*
X0102572Y0022033D02*
X0102205Y0021666D01*
X0102572Y0022033D02*
X0102572Y0022767D01*
X0102939Y0022400D01*
X0103306Y0022400D01*
X0103673Y0022767D01*
X0103673Y0023501D01*
X0104415Y0023501D02*
X0105149Y0023501D01*
X0104415Y0022400D02*
X0104415Y0024602D01*
X0105883Y0024602D01*
X0102572Y0023501D02*
X0102572Y0022767D01*
X0101463Y0022767D02*
X0101096Y0022400D01*
X0100362Y0022400D01*
X0099995Y0022767D01*
X0101463Y0024235D01*
X0101463Y0022767D01*
X0099995Y0022767D02*
X0099995Y0024235D01*
X0100362Y0024602D01*
X0101096Y0024602D01*
X0101463Y0024235D01*
X0099253Y0024235D02*
X0098886Y0024602D01*
X0098152Y0024602D01*
X0097785Y0024235D01*
X0097785Y0022767D01*
X0099253Y0024235D01*
X0099253Y0022767D01*
X0098886Y0022400D01*
X0098152Y0022400D01*
X0097785Y0022767D01*
X0097043Y0022400D02*
X0095575Y0022400D01*
X0096309Y0022400D02*
X0096309Y0024602D01*
X0095575Y0023868D01*
X0088850Y0022201D02*
X0088850Y0021467D01*
X0088483Y0021100D01*
X0087749Y0021834D02*
X0087749Y0022201D01*
X0088116Y0022568D01*
X0088483Y0022568D01*
X0088850Y0022201D01*
X0087749Y0022201D02*
X0087382Y0022568D01*
X0087015Y0022568D01*
X0086648Y0022201D01*
X0086648Y0021467D01*
X0087015Y0021100D01*
X0086648Y0020358D02*
X0086648Y0018890D01*
X0086648Y0019624D02*
X0088850Y0019624D01*
X0064309Y0033100D02*
X0062841Y0033100D01*
X0063575Y0033100D02*
X0063575Y0035302D01*
X0062841Y0034568D01*
X0062099Y0034935D02*
X0062099Y0034201D01*
X0061732Y0033834D01*
X0060631Y0033834D01*
X0060631Y0033100D02*
X0060631Y0035302D01*
X0061732Y0035302D01*
X0062099Y0034935D01*
X0061365Y0033834D02*
X0062099Y0033100D01*
X0046621Y0025352D02*
X0045520Y0024251D01*
X0046988Y0024251D01*
X0046621Y0023150D02*
X0046621Y0025352D01*
X0044778Y0024985D02*
X0043310Y0023517D01*
X0043677Y0023150D01*
X0044411Y0023150D01*
X0044778Y0023517D01*
X0044778Y0024985D01*
X0044411Y0025352D01*
X0043677Y0025352D01*
X0043310Y0024985D01*
X0043310Y0023517D01*
X0042568Y0023517D02*
X0042568Y0024985D01*
X0042201Y0025352D01*
X0041467Y0025352D01*
X0041100Y0024985D01*
X0041100Y0024618D01*
X0041467Y0024251D01*
X0042568Y0024251D01*
X0042568Y0023517D02*
X0042201Y0023150D01*
X0041467Y0023150D01*
X0041100Y0023517D01*
X0040358Y0023517D02*
X0040358Y0023884D01*
X0039991Y0024251D01*
X0039624Y0024251D01*
X0039991Y0024251D02*
X0040358Y0024618D01*
X0040358Y0024985D01*
X0039991Y0025352D01*
X0039257Y0025352D01*
X0038890Y0024985D01*
X0038148Y0025352D02*
X0038148Y0023150D01*
X0036680Y0025352D01*
X0036680Y0023150D01*
X0035938Y0023150D02*
X0034470Y0023150D01*
X0035938Y0024618D01*
X0035938Y0024985D01*
X0035571Y0025352D01*
X0034837Y0025352D01*
X0034470Y0024985D01*
X0038890Y0023517D02*
X0039257Y0023150D01*
X0039991Y0023150D01*
X0040358Y0023517D01*
X0039624Y0026650D02*
X0039624Y0028852D01*
X0038890Y0028852D02*
X0040358Y0028852D01*
X0041100Y0028118D02*
X0041834Y0028852D01*
X0041834Y0026650D01*
X0041100Y0026650D02*
X0042568Y0026650D01*
X0025699Y0023035D02*
X0025699Y0022301D01*
X0025332Y0021934D01*
X0025332Y0021200D01*
X0025699Y0021200D01*
X0024598Y0021200D02*
X0024598Y0021934D01*
X0024231Y0022301D01*
X0024231Y0023035D01*
X0024598Y0023402D01*
X0025332Y0023402D01*
X0025699Y0023035D01*
X0023490Y0022668D02*
X0022389Y0021934D01*
X0023490Y0021200D01*
X0024231Y0021200D02*
X0024598Y0021200D01*
X0022389Y0021200D02*
X0022389Y0023402D01*
X0021647Y0023035D02*
X0021280Y0023402D01*
X0020546Y0023402D01*
X0020179Y0023035D01*
X0020179Y0021567D01*
X0021647Y0023035D01*
X0021647Y0021567D01*
X0021280Y0021200D01*
X0020546Y0021200D01*
X0020179Y0021567D01*
X0019437Y0021567D02*
X0019070Y0021200D01*
X0018336Y0021200D01*
X0017969Y0021567D01*
X0019437Y0023035D01*
X0019437Y0021567D01*
X0017969Y0021567D02*
X0017969Y0023035D01*
X0018336Y0023402D01*
X0019070Y0023402D01*
X0019437Y0023035D01*
X0016493Y0023402D02*
X0016493Y0021200D01*
X0015759Y0021200D02*
X0017227Y0021200D01*
X0015759Y0022668D02*
X0016493Y0023402D01*
X0004275Y0016994D02*
X0002473Y0016994D01*
X0002473Y0015793D02*
X0004275Y0016994D01*
X0004275Y0015793D02*
X0002473Y0015793D01*
X0002473Y0015166D02*
X0002473Y0014565D01*
X0002473Y0014866D02*
X0004275Y0014866D01*
X0004275Y0015166D02*
X0004275Y0014565D01*
X0054099Y0047147D02*
X0054566Y0046680D01*
X0054099Y0047147D02*
X0055500Y0047147D01*
X0055500Y0046680D02*
X0055500Y0047614D01*
X0055500Y0048153D02*
X0054099Y0048153D01*
X0055500Y0049088D01*
X0054099Y0049088D01*
X0054799Y0049627D02*
X0054799Y0050561D01*
X0054566Y0051100D02*
X0054099Y0051567D01*
X0055500Y0051567D01*
X0055500Y0051100D02*
X0055500Y0052034D01*
X0054799Y0052573D02*
X0054799Y0053507D01*
X0054566Y0054046D02*
X0054332Y0054046D01*
X0054099Y0054280D01*
X0054099Y0054747D01*
X0054332Y0054981D01*
X0054566Y0054981D01*
X0054799Y0054747D01*
X0054799Y0054280D01*
X0054566Y0054046D01*
X0054799Y0054280D02*
X0055033Y0054046D01*
X0055266Y0054046D01*
X0055500Y0054280D01*
X0055500Y0054747D01*
X0055266Y0054981D01*
X0055033Y0054981D01*
X0054799Y0054747D01*
X0056499Y0054747D02*
X0056499Y0054280D01*
X0056732Y0054046D01*
X0056966Y0054046D01*
X0057199Y0054280D01*
X0057199Y0054747D01*
X0057433Y0054981D01*
X0057666Y0054981D01*
X0057900Y0054747D01*
X0057900Y0054280D01*
X0057666Y0054046D01*
X0057433Y0054046D01*
X0057199Y0054280D01*
X0057199Y0054747D02*
X0056966Y0054981D01*
X0056732Y0054981D01*
X0056499Y0054747D01*
X0057199Y0053507D02*
X0057199Y0052573D01*
X0056499Y0053274D01*
X0057900Y0053274D01*
X0057900Y0052034D02*
X0057900Y0051100D01*
X0057900Y0051567D02*
X0056499Y0051567D01*
X0056966Y0051100D01*
X0057199Y0050561D02*
X0057199Y0049627D01*
X0056499Y0050327D01*
X0057900Y0050327D01*
X0057900Y0049088D02*
X0056499Y0049088D01*
X0056499Y0048153D02*
X0057900Y0049088D01*
X0055500Y0050327D02*
X0054099Y0050327D01*
X0054799Y0049627D01*
X0056499Y0048153D02*
X0057900Y0048153D01*
X0057900Y0047614D02*
X0057900Y0046680D01*
X0057900Y0047147D02*
X0056499Y0047147D01*
X0056966Y0046680D01*
X0054799Y0052573D02*
X0054099Y0053274D01*
X0055500Y0053274D01*
X0056653Y0057100D02*
X0057354Y0057100D01*
X0057588Y0057334D01*
X0057588Y0058268D01*
X0057354Y0058501D01*
X0056653Y0058501D01*
X0056653Y0057100D01*
X0058127Y0057100D02*
X0059061Y0057100D01*
X0058594Y0057100D02*
X0058594Y0058501D01*
X0058127Y0058034D01*
X0049061Y0058034D02*
X0049061Y0058268D01*
X0048827Y0058501D01*
X0048360Y0058501D01*
X0048127Y0058268D01*
X0047588Y0058268D02*
X0047354Y0058501D01*
X0046653Y0058501D01*
X0046653Y0057100D01*
X0047354Y0057100D01*
X0047588Y0057334D01*
X0047588Y0058268D01*
X0048127Y0057100D02*
X0049061Y0058034D01*
X0049061Y0057100D02*
X0048127Y0057100D01*
X0073148Y0052201D02*
X0073148Y0051467D01*
X0073515Y0051100D01*
X0073148Y0050358D02*
X0073148Y0048890D01*
X0073148Y0049624D02*
X0075350Y0049624D01*
X0076648Y0048886D02*
X0077015Y0049253D01*
X0077382Y0049253D01*
X0077749Y0048886D01*
X0077749Y0048152D01*
X0077382Y0047785D01*
X0077015Y0047785D01*
X0076648Y0048152D01*
X0076648Y0048886D01*
X0077749Y0048886D02*
X0078116Y0049253D01*
X0078483Y0049253D01*
X0078850Y0048886D01*
X0078850Y0048152D01*
X0078483Y0047785D01*
X0078116Y0047785D01*
X0077749Y0048152D01*
X0078116Y0047043D02*
X0078483Y0047043D01*
X0078850Y0046676D01*
X0078850Y0045942D01*
X0078483Y0045575D01*
X0077749Y0045942D02*
X0077749Y0046676D01*
X0078116Y0047043D01*
X0077015Y0047043D02*
X0076648Y0046676D01*
X0076648Y0045942D01*
X0077015Y0045575D01*
X0077382Y0045575D01*
X0077749Y0045942D01*
X0077015Y0049995D02*
X0076648Y0050362D01*
X0076648Y0051096D01*
X0077015Y0051463D01*
X0078483Y0049995D01*
X0078850Y0050362D01*
X0078850Y0051096D01*
X0078483Y0051463D01*
X0077015Y0051463D01*
X0076648Y0052205D02*
X0077749Y0052205D01*
X0077382Y0052939D01*
X0077382Y0053306D01*
X0077749Y0053673D01*
X0078483Y0053673D01*
X0078850Y0053306D01*
X0078850Y0052572D01*
X0078483Y0052205D01*
X0076648Y0052205D02*
X0076648Y0053673D01*
X0077015Y0054415D02*
X0076648Y0054782D01*
X0076648Y0055516D01*
X0077015Y0055883D01*
X0078483Y0054415D01*
X0078850Y0054782D01*
X0078850Y0055516D01*
X0078483Y0055883D01*
X0077015Y0055883D01*
X0077015Y0054415D02*
X0078483Y0054415D01*
X0075350Y0052568D02*
X0075350Y0051100D01*
X0073882Y0052568D01*
X0073515Y0052568D01*
X0073148Y0052201D01*
X0077015Y0049995D02*
X0078483Y0049995D01*
X0098890Y0039235D02*
X0099257Y0039602D01*
X0099991Y0039602D01*
X0100358Y0039235D01*
X0101100Y0038501D02*
X0102568Y0038501D01*
X0102201Y0039602D02*
X0101100Y0038501D01*
X0100358Y0037767D02*
X0099991Y0037400D01*
X0099257Y0037400D01*
X0098890Y0037767D01*
X0098890Y0039235D01*
X0102201Y0039602D02*
X0102201Y0037400D01*
X0120631Y0053100D02*
X0120631Y0055302D01*
X0121732Y0055302D01*
X0122099Y0054935D01*
X0122099Y0054201D01*
X0121732Y0053834D01*
X0120631Y0053834D01*
X0121365Y0053834D02*
X0122099Y0053100D01*
X0122841Y0053100D02*
X0124309Y0054568D01*
X0124309Y0054935D01*
X0123942Y0055302D01*
X0123208Y0055302D01*
X0122841Y0054935D01*
X0122841Y0053100D02*
X0124309Y0053100D01*
X0140631Y0045302D02*
X0141732Y0045302D01*
X0142099Y0044935D01*
X0142099Y0044201D01*
X0141732Y0043834D01*
X0140631Y0043834D01*
X0140631Y0043100D02*
X0140631Y0045302D01*
X0141365Y0043834D02*
X0142099Y0043100D01*
X0143942Y0043100D02*
X0143942Y0045302D01*
X0142841Y0044201D01*
X0144309Y0044201D01*
X0157723Y0052417D02*
X0159525Y0052417D01*
X0158624Y0052417D02*
X0158624Y0053618D01*
X0157723Y0053618D02*
X0159525Y0053618D01*
X0159525Y0054258D02*
X0157723Y0054258D01*
X0157723Y0055159D01*
X0158024Y0055459D01*
X0159225Y0055459D01*
X0159525Y0055159D01*
X0159525Y0054258D01*
X0159525Y0056100D02*
X0157723Y0056100D01*
X0157723Y0057001D01*
X0158024Y0057301D01*
X0158624Y0057301D01*
X0158924Y0057001D01*
X0158924Y0056100D01*
X0158624Y0057942D02*
X0158624Y0059143D01*
X0157723Y0059143D02*
X0159525Y0059143D01*
X0159525Y0057942D02*
X0157723Y0057942D01*
X0124309Y0063467D02*
X0123942Y0063100D01*
X0123208Y0063100D01*
X0122841Y0063467D01*
X0122099Y0063100D02*
X0121365Y0063834D01*
X0121732Y0063834D02*
X0120631Y0063834D01*
X0120631Y0063100D02*
X0120631Y0065302D01*
X0121732Y0065302D01*
X0122099Y0064935D01*
X0122099Y0064201D01*
X0121732Y0063834D01*
X0123575Y0064201D02*
X0123942Y0064201D01*
X0124309Y0063834D01*
X0124309Y0063467D01*
X0123942Y0064201D02*
X0124309Y0064568D01*
X0124309Y0064935D01*
X0123942Y0065302D01*
X0123208Y0065302D01*
X0122841Y0064935D01*
X0022568Y0060802D02*
X0021100Y0060802D01*
X0021100Y0059701D01*
X0021834Y0060068D01*
X0022201Y0060068D01*
X0022568Y0059701D01*
X0022568Y0058967D01*
X0022201Y0058600D01*
X0021467Y0058600D01*
X0021100Y0058967D01*
X0020358Y0058600D02*
X0019624Y0059334D01*
X0019991Y0059334D02*
X0018890Y0059334D01*
X0018890Y0058600D02*
X0018890Y0060802D01*
X0019991Y0060802D01*
X0020358Y0060435D01*
X0020358Y0059701D01*
X0019991Y0059334D01*
D12*
X0034250Y0058250D02*
X0035450Y0058250D01*
X0035450Y0063750D01*
X0034250Y0063750D01*
X0034250Y0061000D01*
X0034250Y0058250D01*
X0036550Y0058250D02*
X0037750Y0058250D01*
X0037750Y0063750D01*
X0036550Y0063750D01*
X0036550Y0058250D01*
X0038000Y0057250D02*
X0038500Y0057250D01*
X0038500Y0056750D01*
X0038500Y0057250D02*
X0038500Y0057750D01*
X0038500Y0057250D02*
X0039000Y0057250D01*
X0049500Y0053500D02*
X0051000Y0050750D01*
X0052500Y0050750D01*
X0051000Y0050750D02*
X0049500Y0050750D01*
X0051000Y0050750D02*
X0052500Y0053500D01*
X0049500Y0053500D01*
X0051000Y0054500D02*
X0051000Y0049750D01*
X0059500Y0048500D02*
X0061000Y0051250D01*
X0059500Y0051250D01*
X0061000Y0051250D02*
X0062500Y0051250D01*
X0061000Y0051250D02*
X0062500Y0048500D01*
X0059500Y0048500D01*
X0061000Y0047500D02*
X0061000Y0052250D01*
X0037750Y0043750D02*
X0037750Y0038250D01*
X0036550Y0038250D01*
X0036550Y0043750D01*
X0037750Y0043750D01*
X0035450Y0043750D02*
X0034250Y0043750D01*
X0034250Y0041000D01*
X0034250Y0038250D01*
X0035450Y0038250D01*
X0035450Y0043750D01*
X0038500Y0037750D02*
X0038500Y0037250D01*
X0038500Y0036750D01*
X0038500Y0037250D02*
X0038000Y0037250D01*
X0038500Y0037250D02*
X0039000Y0037250D01*
X0044029Y0031485D02*
X0044997Y0032452D01*
X0044997Y0029550D01*
X0045964Y0029550D02*
X0044029Y0029550D01*
X0046976Y0030034D02*
X0048911Y0031969D01*
X0048911Y0030034D01*
X0048427Y0029550D01*
X0047460Y0029550D01*
X0046976Y0030034D01*
X0046976Y0031969D01*
X0047460Y0032452D01*
X0048427Y0032452D01*
X0048911Y0031969D01*
X0049922Y0031969D02*
X0050406Y0032452D01*
X0051374Y0032452D01*
X0051857Y0031969D01*
X0049922Y0030034D01*
X0050406Y0029550D01*
X0051374Y0029550D01*
X0051857Y0030034D01*
X0051857Y0031969D01*
X0052869Y0032452D02*
X0052869Y0029550D01*
X0052869Y0030517D02*
X0054320Y0031485D01*
X0055324Y0031969D02*
X0055808Y0032452D01*
X0056775Y0032452D01*
X0057259Y0031969D01*
X0057259Y0031001D01*
X0056775Y0030517D01*
X0056775Y0029550D01*
X0057259Y0029550D01*
X0055808Y0029550D02*
X0055808Y0030517D01*
X0055324Y0031001D01*
X0055324Y0031969D01*
X0054320Y0029550D02*
X0052869Y0030517D01*
X0055324Y0029550D02*
X0055808Y0029550D01*
X0049922Y0030034D02*
X0049922Y0031969D01*
X0004375Y0023000D02*
X0002375Y0023000D01*
X0003375Y0022000D02*
X0003375Y0024000D01*
X0003375Y0010250D02*
X0003375Y0008250D01*
X0105257Y0050034D02*
X0105741Y0049550D01*
X0106708Y0049550D01*
X0107192Y0050034D01*
X0107192Y0050517D01*
X0106708Y0051001D01*
X0106224Y0051001D01*
X0106708Y0051001D02*
X0107192Y0051485D01*
X0107192Y0051969D01*
X0106708Y0052452D01*
X0105741Y0052452D01*
X0105257Y0051969D01*
X0108203Y0051969D02*
X0108687Y0052452D01*
X0109655Y0052452D01*
X0110138Y0051969D01*
X0110138Y0051485D01*
X0109655Y0051001D01*
X0110138Y0050517D01*
X0110138Y0050034D01*
X0109655Y0049550D01*
X0108687Y0049550D01*
X0108203Y0050034D01*
X0109171Y0051001D02*
X0109655Y0051001D01*
X0111150Y0050034D02*
X0113085Y0051969D01*
X0113085Y0050034D01*
X0112601Y0049550D01*
X0111634Y0049550D01*
X0111150Y0050034D01*
X0111150Y0051969D01*
X0111634Y0052452D01*
X0112601Y0052452D01*
X0113085Y0051969D01*
X0114097Y0051969D02*
X0114580Y0052452D01*
X0115548Y0052452D01*
X0116031Y0051969D01*
X0116031Y0051001D01*
X0115548Y0050517D01*
X0115548Y0049550D01*
X0116031Y0049550D01*
X0114580Y0049550D02*
X0114580Y0050517D01*
X0114097Y0051001D01*
X0114097Y0051969D01*
X0114097Y0049550D02*
X0114580Y0049550D01*
X0126730Y0041969D02*
X0127214Y0042452D01*
X0128181Y0042452D01*
X0128665Y0041969D01*
X0128665Y0041485D01*
X0126730Y0039550D01*
X0128665Y0039550D01*
X0129677Y0039550D02*
X0129677Y0040034D01*
X0131612Y0041969D01*
X0131612Y0042452D01*
X0129677Y0042452D01*
X0132623Y0041969D02*
X0133107Y0042452D01*
X0134074Y0042452D01*
X0134558Y0041969D01*
X0134558Y0041001D01*
X0134074Y0040517D01*
X0134074Y0039550D01*
X0134558Y0039550D01*
X0133107Y0039550D02*
X0133107Y0040517D01*
X0132623Y0041001D01*
X0132623Y0041969D01*
X0132623Y0039550D02*
X0133107Y0039550D01*
X0157625Y0049000D02*
X0159625Y0049000D01*
X0158625Y0050000D02*
X0158625Y0048000D01*
X0158625Y0061750D02*
X0158625Y0063750D01*
X0116031Y0061969D02*
X0116031Y0061001D01*
X0115548Y0060517D01*
X0115548Y0059550D01*
X0116031Y0059550D01*
X0114580Y0059550D02*
X0114580Y0060517D01*
X0114097Y0061001D01*
X0114097Y0061969D01*
X0114580Y0062452D01*
X0115548Y0062452D01*
X0116031Y0061969D01*
X0113085Y0061969D02*
X0111150Y0060034D01*
X0111634Y0059550D01*
X0112601Y0059550D01*
X0113085Y0060034D01*
X0113085Y0061969D01*
X0112601Y0062452D01*
X0111634Y0062452D01*
X0111150Y0061969D01*
X0111150Y0060034D01*
X0110138Y0060034D02*
X0109655Y0059550D01*
X0108687Y0059550D01*
X0108203Y0060034D01*
X0110138Y0061969D01*
X0110138Y0060034D01*
X0108203Y0060034D02*
X0108203Y0061969D01*
X0108687Y0062452D01*
X0109655Y0062452D01*
X0110138Y0061969D01*
X0106224Y0062452D02*
X0106224Y0059550D01*
X0105257Y0059550D02*
X0107192Y0059550D01*
X0105257Y0061485D02*
X0106224Y0062452D01*
X0114097Y0059550D02*
X0114580Y0059550D01*
X0158375Y0024000D02*
X0158375Y0022000D01*
X0157375Y0023000D02*
X0159375Y0023000D01*
X0158375Y0010250D02*
X0158375Y0008250D01*
D13*
X0084284Y0043550D02*
X0083550Y0043550D01*
X0083917Y0043550D02*
X0083917Y0044651D01*
X0083550Y0044284D01*
X0077812Y0028451D02*
X0077445Y0028084D01*
X0077812Y0028451D02*
X0077812Y0027350D01*
X0077445Y0027350D02*
X0078179Y0027350D01*
X0042983Y0046300D02*
X0042733Y0046050D01*
X0042983Y0046300D02*
X0042983Y0046800D01*
X0043234Y0046550D01*
X0043484Y0046550D01*
X0043734Y0046800D01*
X0043734Y0047301D01*
X0044206Y0047301D02*
X0044707Y0047301D01*
X0044206Y0048051D02*
X0045207Y0048051D01*
X0044206Y0048051D02*
X0044206Y0046550D01*
X0042983Y0046800D02*
X0042983Y0047301D01*
X0042261Y0047801D02*
X0041260Y0046800D01*
X0041260Y0046550D01*
X0040773Y0046550D02*
X0040523Y0046550D01*
X0040523Y0046800D01*
X0040773Y0046800D01*
X0040773Y0046550D01*
X0039801Y0046550D02*
X0039801Y0048051D01*
X0039050Y0047301D01*
X0040051Y0047301D01*
X0041260Y0048051D02*
X0042261Y0048051D01*
X0042261Y0047801D01*
X0032578Y0047801D02*
X0032327Y0048051D01*
X0031827Y0048051D01*
X0031577Y0047801D01*
X0031104Y0047801D02*
X0030854Y0048051D01*
X0030354Y0048051D01*
X0030103Y0047801D01*
X0030103Y0046800D01*
X0030354Y0046550D01*
X0030854Y0046550D01*
X0031104Y0046800D01*
X0031577Y0046550D02*
X0032578Y0047551D01*
X0032578Y0047801D01*
X0032578Y0046550D02*
X0031577Y0046550D01*
X0042733Y0066050D02*
X0042983Y0066300D01*
X0042983Y0066800D01*
X0043234Y0066550D01*
X0043484Y0066550D01*
X0043734Y0066800D01*
X0043734Y0067301D01*
X0044206Y0067301D02*
X0044707Y0067301D01*
X0044206Y0068051D02*
X0045207Y0068051D01*
X0044206Y0068051D02*
X0044206Y0066550D01*
X0042983Y0066800D02*
X0042983Y0067301D01*
X0042261Y0067801D02*
X0041260Y0066800D01*
X0041260Y0066550D01*
X0040773Y0066550D02*
X0040523Y0066550D01*
X0040523Y0066800D01*
X0040773Y0066800D01*
X0040773Y0066550D01*
X0039801Y0066550D02*
X0039801Y0068051D01*
X0039050Y0067301D01*
X0040051Y0067301D01*
X0041260Y0068051D02*
X0042261Y0068051D01*
X0042261Y0067801D01*
X0032578Y0066550D02*
X0031577Y0066550D01*
X0032077Y0066550D02*
X0032077Y0068051D01*
X0031577Y0067551D01*
X0031104Y0067801D02*
X0030854Y0068051D01*
X0030354Y0068051D01*
X0030103Y0067801D01*
X0030103Y0066800D01*
X0030354Y0066550D01*
X0030854Y0066550D01*
X0031104Y0066800D01*
X0034650Y0018179D02*
X0034650Y0017445D01*
X0034650Y0017812D02*
X0033549Y0017812D01*
X0033916Y0017445D01*
D14*
X0034850Y0041000D03*
X0034850Y0061000D03*
D15*
X0121000Y0022500D02*
X0121000Y0019000D01*
X0126000Y0019000D01*
X0126000Y0017000D01*
X0116000Y0017000D01*
X0116000Y0019000D01*
X0121000Y0019000D01*
X0125000Y0021500D02*
X0126000Y0021500D01*
X0127000Y0021500D01*
X0126000Y0021500D02*
X0126000Y0020500D01*
X0126000Y0021500D02*
X0126000Y0022500D01*
X0111000Y0016000D02*
X0111003Y0016245D01*
X0111012Y0016491D01*
X0111027Y0016736D01*
X0111048Y0016980D01*
X0111075Y0017224D01*
X0111108Y0017467D01*
X0111147Y0017710D01*
X0111192Y0017951D01*
X0111243Y0018191D01*
X0111300Y0018430D01*
X0111362Y0018667D01*
X0111431Y0018903D01*
X0111505Y0019137D01*
X0111585Y0019369D01*
X0111670Y0019599D01*
X0111761Y0019827D01*
X0111858Y0020052D01*
X0111960Y0020276D01*
X0112068Y0020496D01*
X0112181Y0020714D01*
X0112299Y0020929D01*
X0112423Y0021141D01*
X0112551Y0021350D01*
X0112685Y0021556D01*
X0112824Y0021758D01*
X0112968Y0021957D01*
X0113117Y0022152D01*
X0113270Y0022344D01*
X0113428Y0022532D01*
X0113590Y0022716D01*
X0113758Y0022895D01*
X0113929Y0023071D01*
X0114105Y0023242D01*
X0114284Y0023410D01*
X0114468Y0023572D01*
X0114656Y0023730D01*
X0114848Y0023883D01*
X0115043Y0024032D01*
X0115242Y0024176D01*
X0115444Y0024315D01*
X0115650Y0024449D01*
X0115859Y0024577D01*
X0116071Y0024701D01*
X0116286Y0024819D01*
X0116504Y0024932D01*
X0116724Y0025040D01*
X0116948Y0025142D01*
X0117173Y0025239D01*
X0117401Y0025330D01*
X0117631Y0025415D01*
X0117863Y0025495D01*
X0118097Y0025569D01*
X0118333Y0025638D01*
X0118570Y0025700D01*
X0118809Y0025757D01*
X0119049Y0025808D01*
X0119290Y0025853D01*
X0119533Y0025892D01*
X0119776Y0025925D01*
X0120020Y0025952D01*
X0120264Y0025973D01*
X0120509Y0025988D01*
X0120755Y0025997D01*
X0121000Y0026000D01*
X0121245Y0025997D01*
X0121491Y0025988D01*
X0121736Y0025973D01*
X0121980Y0025952D01*
X0122224Y0025925D01*
X0122467Y0025892D01*
X0122710Y0025853D01*
X0122951Y0025808D01*
X0123191Y0025757D01*
X0123430Y0025700D01*
X0123667Y0025638D01*
X0123903Y0025569D01*
X0124137Y0025495D01*
X0124369Y0025415D01*
X0124599Y0025330D01*
X0124827Y0025239D01*
X0125052Y0025142D01*
X0125276Y0025040D01*
X0125496Y0024932D01*
X0125714Y0024819D01*
X0125929Y0024701D01*
X0126141Y0024577D01*
X0126350Y0024449D01*
X0126556Y0024315D01*
X0126758Y0024176D01*
X0126957Y0024032D01*
X0127152Y0023883D01*
X0127344Y0023730D01*
X0127532Y0023572D01*
X0127716Y0023410D01*
X0127895Y0023242D01*
X0128071Y0023071D01*
X0128242Y0022895D01*
X0128410Y0022716D01*
X0128572Y0022532D01*
X0128730Y0022344D01*
X0128883Y0022152D01*
X0129032Y0021957D01*
X0129176Y0021758D01*
X0129315Y0021556D01*
X0129449Y0021350D01*
X0129577Y0021141D01*
X0129701Y0020929D01*
X0129819Y0020714D01*
X0129932Y0020496D01*
X0130040Y0020276D01*
X0130142Y0020052D01*
X0130239Y0019827D01*
X0130330Y0019599D01*
X0130415Y0019369D01*
X0130495Y0019137D01*
X0130569Y0018903D01*
X0130638Y0018667D01*
X0130700Y0018430D01*
X0130757Y0018191D01*
X0130808Y0017951D01*
X0130853Y0017710D01*
X0130892Y0017467D01*
X0130925Y0017224D01*
X0130952Y0016980D01*
X0130973Y0016736D01*
X0130988Y0016491D01*
X0130997Y0016245D01*
X0131000Y0016000D01*
X0130997Y0015755D01*
X0130988Y0015509D01*
X0130973Y0015264D01*
X0130952Y0015020D01*
X0130925Y0014776D01*
X0130892Y0014533D01*
X0130853Y0014290D01*
X0130808Y0014049D01*
X0130757Y0013809D01*
X0130700Y0013570D01*
X0130638Y0013333D01*
X0130569Y0013097D01*
X0130495Y0012863D01*
X0130415Y0012631D01*
X0130330Y0012401D01*
X0130239Y0012173D01*
X0130142Y0011948D01*
X0130040Y0011724D01*
X0129932Y0011504D01*
X0129819Y0011286D01*
X0129701Y0011071D01*
X0129577Y0010859D01*
X0129449Y0010650D01*
X0129315Y0010444D01*
X0129176Y0010242D01*
X0129032Y0010043D01*
X0128883Y0009848D01*
X0128730Y0009656D01*
X0128572Y0009468D01*
X0128410Y0009284D01*
X0128242Y0009105D01*
X0128071Y0008929D01*
X0127895Y0008758D01*
X0127716Y0008590D01*
X0127532Y0008428D01*
X0127344Y0008270D01*
X0127152Y0008117D01*
X0126957Y0007968D01*
X0126758Y0007824D01*
X0126556Y0007685D01*
X0126350Y0007551D01*
X0126141Y0007423D01*
X0125929Y0007299D01*
X0125714Y0007181D01*
X0125496Y0007068D01*
X0125276Y0006960D01*
X0125052Y0006858D01*
X0124827Y0006761D01*
X0124599Y0006670D01*
X0124369Y0006585D01*
X0124137Y0006505D01*
X0123903Y0006431D01*
X0123667Y0006362D01*
X0123430Y0006300D01*
X0123191Y0006243D01*
X0122951Y0006192D01*
X0122710Y0006147D01*
X0122467Y0006108D01*
X0122224Y0006075D01*
X0121980Y0006048D01*
X0121736Y0006027D01*
X0121491Y0006012D01*
X0121245Y0006003D01*
X0121000Y0006000D01*
X0120755Y0006003D01*
X0120509Y0006012D01*
X0120264Y0006027D01*
X0120020Y0006048D01*
X0119776Y0006075D01*
X0119533Y0006108D01*
X0119290Y0006147D01*
X0119049Y0006192D01*
X0118809Y0006243D01*
X0118570Y0006300D01*
X0118333Y0006362D01*
X0118097Y0006431D01*
X0117863Y0006505D01*
X0117631Y0006585D01*
X0117401Y0006670D01*
X0117173Y0006761D01*
X0116948Y0006858D01*
X0116724Y0006960D01*
X0116504Y0007068D01*
X0116286Y0007181D01*
X0116071Y0007299D01*
X0115859Y0007423D01*
X0115650Y0007551D01*
X0115444Y0007685D01*
X0115242Y0007824D01*
X0115043Y0007968D01*
X0114848Y0008117D01*
X0114656Y0008270D01*
X0114468Y0008428D01*
X0114284Y0008590D01*
X0114105Y0008758D01*
X0113929Y0008929D01*
X0113758Y0009105D01*
X0113590Y0009284D01*
X0113428Y0009468D01*
X0113270Y0009656D01*
X0113117Y0009848D01*
X0112968Y0010043D01*
X0112824Y0010242D01*
X0112685Y0010444D01*
X0112551Y0010650D01*
X0112423Y0010859D01*
X0112299Y0011071D01*
X0112181Y0011286D01*
X0112068Y0011504D01*
X0111960Y0011724D01*
X0111858Y0011948D01*
X0111761Y0012173D01*
X0111670Y0012401D01*
X0111585Y0012631D01*
X0111505Y0012863D01*
X0111431Y0013097D01*
X0111362Y0013333D01*
X0111300Y0013570D01*
X0111243Y0013809D01*
X0111192Y0014049D01*
X0111147Y0014290D01*
X0111108Y0014533D01*
X0111075Y0014776D01*
X0111048Y0015020D01*
X0111027Y0015264D01*
X0111012Y0015509D01*
X0111003Y0015755D01*
X0111000Y0016000D01*
X0121000Y0013500D02*
X0121000Y0009500D01*
D16*
X0121000Y0014000D03*
D17*
X0104000Y0026000D02*
X0102112Y0026000D01*
X0102112Y0036000D01*
X0104000Y0036000D01*
X0104000Y0026000D01*
X0099887Y0026000D02*
X0099887Y0036000D01*
X0098275Y0036000D01*
X0098275Y0026000D01*
X0099887Y0026000D01*
D18*
X0105175Y0024750D02*
X0106675Y0024750D01*
X0105925Y0025500D02*
X0105925Y0024000D01*
X0061500Y0046000D02*
X0060500Y0046000D01*
X0060413Y0046002D01*
X0060326Y0046008D01*
X0060239Y0046017D01*
X0060153Y0046030D01*
X0060067Y0046047D01*
X0059982Y0046068D01*
X0059899Y0046093D01*
X0059816Y0046121D01*
X0059735Y0046152D01*
X0059655Y0046187D01*
X0059577Y0046226D01*
X0059500Y0046268D01*
X0059425Y0046313D01*
X0059353Y0046362D01*
X0059282Y0046413D01*
X0059214Y0046468D01*
X0059149Y0046525D01*
X0059086Y0046586D01*
X0059025Y0046649D01*
X0058968Y0046714D01*
X0058913Y0046782D01*
X0058862Y0046853D01*
X0058813Y0046925D01*
X0058768Y0047000D01*
X0058726Y0047077D01*
X0058687Y0047155D01*
X0058652Y0047235D01*
X0058621Y0047316D01*
X0058593Y0047399D01*
X0058568Y0047482D01*
X0058547Y0047567D01*
X0058530Y0047653D01*
X0058517Y0047739D01*
X0058508Y0047826D01*
X0058502Y0047913D01*
X0058500Y0048000D01*
X0058500Y0054000D01*
X0058502Y0054087D01*
X0058508Y0054174D01*
X0058517Y0054261D01*
X0058530Y0054347D01*
X0058547Y0054433D01*
X0058568Y0054518D01*
X0058593Y0054601D01*
X0058621Y0054684D01*
X0058652Y0054765D01*
X0058687Y0054845D01*
X0058726Y0054923D01*
X0058768Y0055000D01*
X0058813Y0055075D01*
X0058862Y0055147D01*
X0058913Y0055218D01*
X0058968Y0055286D01*
X0059025Y0055351D01*
X0059086Y0055414D01*
X0059149Y0055475D01*
X0059214Y0055532D01*
X0059282Y0055587D01*
X0059353Y0055638D01*
X0059425Y0055687D01*
X0059500Y0055732D01*
X0059577Y0055774D01*
X0059655Y0055813D01*
X0059735Y0055848D01*
X0059816Y0055879D01*
X0059899Y0055907D01*
X0059982Y0055932D01*
X0060067Y0055953D01*
X0060153Y0055970D01*
X0060239Y0055983D01*
X0060326Y0055992D01*
X0060413Y0055998D01*
X0060500Y0056000D01*
X0061500Y0056000D01*
X0061587Y0055998D01*
X0061674Y0055992D01*
X0061761Y0055983D01*
X0061847Y0055970D01*
X0061933Y0055953D01*
X0062018Y0055932D01*
X0062101Y0055907D01*
X0062184Y0055879D01*
X0062265Y0055848D01*
X0062345Y0055813D01*
X0062423Y0055774D01*
X0062500Y0055732D01*
X0062575Y0055687D01*
X0062647Y0055638D01*
X0062718Y0055587D01*
X0062786Y0055532D01*
X0062851Y0055475D01*
X0062914Y0055414D01*
X0062975Y0055351D01*
X0063032Y0055286D01*
X0063087Y0055218D01*
X0063138Y0055147D01*
X0063187Y0055075D01*
X0063232Y0055000D01*
X0063274Y0054923D01*
X0063313Y0054845D01*
X0063348Y0054765D01*
X0063379Y0054684D01*
X0063407Y0054601D01*
X0063432Y0054518D01*
X0063453Y0054433D01*
X0063470Y0054347D01*
X0063483Y0054261D01*
X0063492Y0054174D01*
X0063498Y0054087D01*
X0063500Y0054000D01*
X0063500Y0048000D01*
X0063498Y0047913D01*
X0063492Y0047826D01*
X0063483Y0047739D01*
X0063470Y0047653D01*
X0063453Y0047567D01*
X0063432Y0047482D01*
X0063407Y0047399D01*
X0063379Y0047316D01*
X0063348Y0047235D01*
X0063313Y0047155D01*
X0063274Y0047077D01*
X0063232Y0047000D01*
X0063187Y0046925D01*
X0063138Y0046853D01*
X0063087Y0046782D01*
X0063032Y0046714D01*
X0062975Y0046649D01*
X0062914Y0046586D01*
X0062851Y0046525D01*
X0062786Y0046468D01*
X0062718Y0046413D01*
X0062647Y0046362D01*
X0062575Y0046313D01*
X0062500Y0046268D01*
X0062423Y0046226D01*
X0062345Y0046187D01*
X0062265Y0046152D01*
X0062184Y0046121D01*
X0062101Y0046093D01*
X0062018Y0046068D01*
X0061933Y0046047D01*
X0061847Y0046030D01*
X0061761Y0046017D01*
X0061674Y0046008D01*
X0061587Y0046002D01*
X0061500Y0046000D01*
X0053500Y0048000D02*
X0053500Y0054000D01*
X0053498Y0054087D01*
X0053492Y0054174D01*
X0053483Y0054261D01*
X0053470Y0054347D01*
X0053453Y0054433D01*
X0053432Y0054518D01*
X0053407Y0054601D01*
X0053379Y0054684D01*
X0053348Y0054765D01*
X0053313Y0054845D01*
X0053274Y0054923D01*
X0053232Y0055000D01*
X0053187Y0055075D01*
X0053138Y0055147D01*
X0053087Y0055218D01*
X0053032Y0055286D01*
X0052975Y0055351D01*
X0052914Y0055414D01*
X0052851Y0055475D01*
X0052786Y0055532D01*
X0052718Y0055587D01*
X0052647Y0055638D01*
X0052575Y0055687D01*
X0052500Y0055732D01*
X0052423Y0055774D01*
X0052345Y0055813D01*
X0052265Y0055848D01*
X0052184Y0055879D01*
X0052101Y0055907D01*
X0052018Y0055932D01*
X0051933Y0055953D01*
X0051847Y0055970D01*
X0051761Y0055983D01*
X0051674Y0055992D01*
X0051587Y0055998D01*
X0051500Y0056000D01*
X0050500Y0056000D01*
X0050413Y0055998D01*
X0050326Y0055992D01*
X0050239Y0055983D01*
X0050153Y0055970D01*
X0050067Y0055953D01*
X0049982Y0055932D01*
X0049899Y0055907D01*
X0049816Y0055879D01*
X0049735Y0055848D01*
X0049655Y0055813D01*
X0049577Y0055774D01*
X0049500Y0055732D01*
X0049425Y0055687D01*
X0049353Y0055638D01*
X0049282Y0055587D01*
X0049214Y0055532D01*
X0049149Y0055475D01*
X0049086Y0055414D01*
X0049025Y0055351D01*
X0048968Y0055286D01*
X0048913Y0055218D01*
X0048862Y0055147D01*
X0048813Y0055075D01*
X0048768Y0055000D01*
X0048726Y0054923D01*
X0048687Y0054845D01*
X0048652Y0054765D01*
X0048621Y0054684D01*
X0048593Y0054601D01*
X0048568Y0054518D01*
X0048547Y0054433D01*
X0048530Y0054347D01*
X0048517Y0054261D01*
X0048508Y0054174D01*
X0048502Y0054087D01*
X0048500Y0054000D01*
X0048500Y0048000D01*
X0048502Y0047913D01*
X0048508Y0047826D01*
X0048517Y0047739D01*
X0048530Y0047653D01*
X0048547Y0047567D01*
X0048568Y0047482D01*
X0048593Y0047399D01*
X0048621Y0047316D01*
X0048652Y0047235D01*
X0048687Y0047155D01*
X0048726Y0047077D01*
X0048768Y0047000D01*
X0048813Y0046925D01*
X0048862Y0046853D01*
X0048913Y0046782D01*
X0048968Y0046714D01*
X0049025Y0046649D01*
X0049086Y0046586D01*
X0049149Y0046525D01*
X0049214Y0046468D01*
X0049282Y0046413D01*
X0049353Y0046362D01*
X0049425Y0046313D01*
X0049500Y0046268D01*
X0049577Y0046226D01*
X0049655Y0046187D01*
X0049735Y0046152D01*
X0049816Y0046121D01*
X0049899Y0046093D01*
X0049982Y0046068D01*
X0050067Y0046047D01*
X0050153Y0046030D01*
X0050239Y0046017D01*
X0050326Y0046008D01*
X0050413Y0046002D01*
X0050500Y0046000D01*
X0051500Y0046000D01*
X0051587Y0046002D01*
X0051674Y0046008D01*
X0051761Y0046017D01*
X0051847Y0046030D01*
X0051933Y0046047D01*
X0052018Y0046068D01*
X0052101Y0046093D01*
X0052184Y0046121D01*
X0052265Y0046152D01*
X0052345Y0046187D01*
X0052423Y0046226D01*
X0052500Y0046268D01*
X0052575Y0046313D01*
X0052647Y0046362D01*
X0052718Y0046413D01*
X0052786Y0046468D01*
X0052851Y0046525D01*
X0052914Y0046586D01*
X0052975Y0046649D01*
X0053032Y0046714D01*
X0053087Y0046782D01*
X0053138Y0046853D01*
X0053187Y0046925D01*
X0053232Y0047000D01*
X0053274Y0047077D01*
X0053313Y0047155D01*
X0053348Y0047235D01*
X0053379Y0047316D01*
X0053407Y0047399D01*
X0053432Y0047482D01*
X0053453Y0047567D01*
X0053470Y0047653D01*
X0053483Y0047739D01*
X0053492Y0047826D01*
X0053498Y0047913D01*
X0053500Y0048000D01*
D19*
X0099055Y0031000D03*
D20*
X0105075Y0031000D03*
D21*
X0097050Y0031000D03*
D22*
X0051000Y0048250D03*
X0061000Y0053750D03*
D23*
X0061000Y0057300D03*
X0051000Y0057300D03*
X0051000Y0044700D03*
X0061000Y0044700D03*
D24*
X0061750Y0031000D03*
X0040250Y0031000D03*
X0040250Y0031000D03*
X0100250Y0051000D03*
X0100250Y0051000D03*
X0100250Y0061000D03*
X0100250Y0061000D03*
X0121750Y0061000D03*
X0121750Y0051000D03*
X0120250Y0041000D03*
X0120250Y0041000D03*
X0141750Y0041000D03*
D25*
X0141688Y0041000D02*
X0150000Y0041000D01*
X0130000Y0051000D02*
X0121687Y0051000D01*
X0100750Y0051000D02*
X0092000Y0051000D01*
X0092000Y0061000D02*
X0100750Y0061000D01*
X0121687Y0061000D02*
X0130000Y0061000D01*
X0120750Y0041000D02*
X0112000Y0041000D01*
X0070000Y0031000D02*
X0061687Y0031000D01*
X0040750Y0031000D02*
X0032000Y0031000D01*
M02*
