G75*
%MOIN*%
%OFA0B0*%
%FSLAX25Y25*%
%IPPOS*%
%LPD*%
%AMOC8*
5,1,8,0,0,1.08239X$1,22.5*
%
%ADD10C,0.07000*%
%ADD11C,0.05000*%
%ADD12R,0.03962X0.03962*%
D10*
X0011608Y0030337D03*
X0021608Y0030337D03*
X0031608Y0030337D03*
X0031608Y0040337D03*
X0041608Y0040337D03*
X0051923Y0040337D03*
X0061608Y0040337D03*
X0071293Y0040337D03*
X0071293Y0050022D03*
X0061608Y0050022D03*
X0051923Y0050022D03*
X0041608Y0070337D03*
X0021608Y0060337D03*
X0011608Y0060337D03*
X0011608Y0050337D03*
X0011608Y0040337D03*
X0011608Y0080337D03*
X0021608Y0080337D03*
X0021608Y0090337D03*
X0011608Y0090337D03*
X0011608Y0100337D03*
X0011608Y0110337D03*
X0031608Y0110337D03*
X0041608Y0110337D03*
X0051608Y0110337D03*
X0061608Y0110337D03*
X0071608Y0110337D03*
X0081608Y0110337D03*
X0091608Y0110337D03*
X0101608Y0110337D03*
X0111608Y0110337D03*
X0121608Y0110337D03*
X0111608Y0120337D03*
X0111608Y0100337D03*
X0101608Y0100337D03*
X0101608Y0090337D03*
X0091608Y0090337D03*
X0081608Y0090337D03*
X0081608Y0100337D03*
X0071608Y0100337D03*
X0061608Y0090337D03*
X0051608Y0090337D03*
X0041608Y0090337D03*
X0031608Y0090337D03*
X0031608Y0100337D03*
X0041608Y0100337D03*
X0051608Y0100337D03*
X0041608Y0120337D03*
X0101608Y0070337D03*
X0101608Y0060337D03*
X0091608Y0060337D03*
X0081608Y0060337D03*
X0081608Y0050337D03*
X0086608Y0040337D03*
X0096608Y0040337D03*
X0121608Y0050337D03*
X0121608Y0060337D03*
X0131608Y0060337D03*
X0141608Y0060337D03*
X0141608Y0040337D03*
X0131608Y0080337D03*
X0121608Y0080337D03*
X0121608Y0090337D03*
X0111608Y0090337D03*
X0121608Y0100337D03*
X0131608Y0090337D03*
X0141608Y0100337D03*
X0141608Y0110337D03*
D11*
X0141608Y0100337D01*
X0121608Y0100337D02*
X0121608Y0090337D01*
X0111608Y0090337D02*
X0101608Y0090337D01*
X0091608Y0090337D02*
X0091608Y0095337D01*
X0091608Y0100337D01*
X0081608Y0100337D01*
X0091608Y0100337D01*
X0091608Y0110337D01*
X0081608Y0110337D02*
X0081608Y0120337D01*
X0041608Y0120337D01*
X0071608Y0120337D01*
X0071608Y0110337D01*
X0061608Y0110337D02*
X0061608Y0100337D01*
X0051608Y0090337D01*
X0041608Y0090337D02*
X0031608Y0090337D01*
X0021608Y0090337D02*
X0021608Y0100337D01*
X0031608Y0100337D01*
X0041608Y0100337D02*
X0041608Y0090337D01*
X0041608Y0100337D02*
X0051608Y0100337D01*
X0061608Y0100337D02*
X0071608Y0100337D01*
X0071608Y0090337D02*
X0061608Y0090337D01*
X0071608Y0090337D02*
X0061608Y0060337D01*
X0056608Y0055337D01*
X0056608Y0045337D01*
X0061608Y0040337D01*
X0051608Y0040337D02*
X0041608Y0040337D01*
X0031608Y0040337D02*
X0031608Y0030337D01*
X0021608Y0030337D02*
X0071608Y0030337D01*
X0101608Y0030337D01*
X0151608Y0030337D01*
X0151608Y0040337D01*
X0141608Y0040337D01*
X0151608Y0040337D02*
X0151608Y0120337D01*
X0111608Y0120337D01*
X0081608Y0120337D01*
X0101608Y0110337D02*
X0111608Y0110337D01*
X0101608Y0110337D02*
X0121608Y0110337D01*
X0131608Y0080337D02*
X0131608Y0070337D01*
X0141608Y0070337D01*
X0141608Y0060337D01*
X0131608Y0070337D02*
X0081608Y0070337D01*
X0081608Y0060337D02*
X0071608Y0060337D01*
X0066608Y0060337D02*
X0066608Y0055337D01*
X0061608Y0050337D01*
X0051608Y0050337D02*
X0051608Y0050337D01*
X0011608Y0050337D01*
X0011608Y0060337D02*
X0021608Y0060337D01*
X0041608Y0070337D01*
X0051608Y0060337D01*
X0066608Y0060337D02*
X0076608Y0090337D01*
X0081608Y0090337D01*
X0051608Y0075337D02*
X0011608Y0075337D01*
X0011608Y0080337D01*
X0011608Y0090337D01*
X0021608Y0090337D02*
X0021608Y0080337D01*
X0011608Y0100337D02*
X0011608Y0110337D01*
X0031608Y0110337D02*
X0041608Y0110337D01*
X0051608Y0110337D01*
X0091608Y0060337D02*
X0096608Y0040337D01*
X0101608Y0030337D01*
X0071608Y0030337D02*
X0071608Y0040337D01*
X0071608Y0050337D01*
X0011608Y0040337D02*
X0011608Y0030337D01*
D12*
X0051608Y0060337D03*
X0041608Y0070337D03*
X0051608Y0075337D03*
X0071608Y0060337D03*
X0081608Y0070337D03*
X0061608Y0100337D03*
X0081608Y0120337D03*
M02*
