G75*
%MOIN*%
%OFA0B0*%
%FSLAX25Y25*%
%IPPOS*%
%LPD*%
%AMOC8*
5,1,8,0,0,1.08239X$1,22.5*
%
%ADD10C,0.05543*%
%ADD11R,0.04756X0.04756*%
%ADD12R,0.07500X0.07500*%
%ADD13C,0.07000*%
%ADD14OC8,0.07000*%
%ADD15R,0.07000X0.07000*%
%ADD16OC8,0.05150*%
%ADD17C,0.05000*%
%ADD18R,0.03962X0.03962*%
D10*
X0070837Y0064690D03*
X0100837Y0064690D03*
X0110837Y0054690D03*
X0140837Y0054690D03*
X0150837Y0084690D03*
X0150837Y0094690D03*
X0120837Y0094690D03*
X0120837Y0084690D03*
X0100837Y0094690D03*
X0100837Y0104690D03*
X0100837Y0114690D03*
X0080837Y0114690D03*
X0070837Y0104690D03*
X0060837Y0094690D03*
X0080837Y0094690D03*
D11*
X0060837Y0084690D03*
X0070837Y0074690D03*
X0100837Y0074690D03*
D12*
X0150837Y0124690D03*
D13*
X0130837Y0124690D03*
X0110837Y0104690D03*
X0110837Y0094690D03*
X0110837Y0084690D03*
X0150837Y0074690D03*
X0150837Y0064690D03*
X0150837Y0054690D03*
X0150837Y0044690D03*
X0060837Y0104690D03*
X0060837Y0114690D03*
X0060837Y0124690D03*
X0070837Y0124690D03*
X0080837Y0124690D03*
D14*
X0080837Y0044690D03*
X0070837Y0044690D03*
D15*
X0060837Y0044690D03*
D16*
X0110837Y0114690D03*
X0110837Y0124690D03*
X0110837Y0134690D03*
D17*
X0140837Y0134690D01*
X0140837Y0104690D01*
X0130837Y0104690D01*
X0130837Y0044690D01*
X0080837Y0044690D01*
X0070837Y0044690D02*
X0070837Y0064690D01*
X0070837Y0074690D02*
X0070837Y0104690D01*
X0070837Y0124690D01*
X0060837Y0124690D02*
X0060837Y0114690D01*
X0060837Y0124690D02*
X0060837Y0134690D01*
X0110837Y0134690D01*
X0110837Y0124690D02*
X0100837Y0124690D01*
X0100837Y0114690D01*
X0100837Y0124690D02*
X0080837Y0124690D01*
X0080837Y0114690D02*
X0080837Y0094690D01*
X0100837Y0094690D02*
X0110837Y0094690D01*
X0120837Y0094690D01*
X0120837Y0084690D02*
X0110837Y0084690D01*
X0110837Y0074690D01*
X0110837Y0064690D01*
X0120837Y0064690D01*
X0140837Y0064690D01*
X0150837Y0064690D01*
X0150837Y0054690D02*
X0140837Y0054690D01*
X0150837Y0044690D02*
X0130837Y0044690D01*
X0110837Y0054690D02*
X0110837Y0064690D01*
X0110837Y0074690D02*
X0100837Y0074690D01*
X0100837Y0104690D02*
X0110837Y0104690D01*
X0110837Y0114690D01*
X0130837Y0114690D01*
X0130837Y0124690D01*
X0150837Y0124690D02*
X0150837Y0094690D01*
X0150837Y0084690D01*
X0150837Y0074690D01*
X0060837Y0084690D02*
X0060837Y0044690D01*
X0060837Y0094690D02*
X0060837Y0104690D01*
D18*
X0120837Y0064690D03*
X0140837Y0064690D03*
M02*
