G75*
%MOIN*%
%OFA0B0*%
%FSLAX25Y25*%
%IPPOS*%
%LPD*%
%AMOC8*
5,1,8,0,0,1.08239X$1,22.5*
%
%ADD10C,0.00600*%
%ADD11C,0.00300*%
%ADD12R,0.01000X0.06400*%
%ADD13R,0.08000X0.02000*%
%ADD14C,0.00400*%
%ADD15R,0.01000X0.05000*%
%ADD16R,0.02200X0.00800*%
%ADD17C,0.00500*%
%ADD18R,0.01500X0.01000*%
%ADD19R,0.01000X0.01500*%
%ADD20R,0.06400X0.01000*%
%ADD21C,0.00800*%
%ADD22R,0.01500X0.02000*%
D10*
X0028267Y0040337D02*
X0028269Y0040533D01*
X0028277Y0040730D01*
X0028289Y0040926D01*
X0028306Y0041121D01*
X0028327Y0041316D01*
X0028354Y0041511D01*
X0028385Y0041705D01*
X0028421Y0041898D01*
X0028461Y0042090D01*
X0028507Y0042281D01*
X0028557Y0042471D01*
X0028611Y0042659D01*
X0028671Y0042846D01*
X0028735Y0043032D01*
X0028803Y0043216D01*
X0028876Y0043398D01*
X0028953Y0043579D01*
X0029035Y0043757D01*
X0029121Y0043934D01*
X0029212Y0044108D01*
X0029306Y0044280D01*
X0029405Y0044450D01*
X0029508Y0044617D01*
X0029615Y0044782D01*
X0029726Y0044943D01*
X0029841Y0045103D01*
X0029960Y0045259D01*
X0030083Y0045412D01*
X0030209Y0045562D01*
X0030339Y0045709D01*
X0030473Y0045853D01*
X0030610Y0045994D01*
X0030751Y0046131D01*
X0030895Y0046265D01*
X0031042Y0046395D01*
X0031192Y0046521D01*
X0031345Y0046644D01*
X0031501Y0046763D01*
X0031661Y0046878D01*
X0031822Y0046989D01*
X0031987Y0047096D01*
X0032154Y0047199D01*
X0032324Y0047298D01*
X0032496Y0047392D01*
X0032670Y0047483D01*
X0032847Y0047569D01*
X0033025Y0047651D01*
X0033206Y0047728D01*
X0033388Y0047801D01*
X0033572Y0047869D01*
X0033758Y0047933D01*
X0033945Y0047993D01*
X0034133Y0048047D01*
X0034323Y0048097D01*
X0034514Y0048143D01*
X0034706Y0048183D01*
X0034899Y0048219D01*
X0035093Y0048250D01*
X0035288Y0048277D01*
X0035483Y0048298D01*
X0035678Y0048315D01*
X0035874Y0048327D01*
X0036071Y0048335D01*
X0036267Y0048337D01*
X0036463Y0048335D01*
X0036660Y0048327D01*
X0036856Y0048315D01*
X0037051Y0048298D01*
X0037246Y0048277D01*
X0037441Y0048250D01*
X0037635Y0048219D01*
X0037828Y0048183D01*
X0038020Y0048143D01*
X0038211Y0048097D01*
X0038401Y0048047D01*
X0038589Y0047993D01*
X0038776Y0047933D01*
X0038962Y0047869D01*
X0039146Y0047801D01*
X0039328Y0047728D01*
X0039509Y0047651D01*
X0039687Y0047569D01*
X0039864Y0047483D01*
X0040038Y0047392D01*
X0040210Y0047298D01*
X0040380Y0047199D01*
X0040547Y0047096D01*
X0040712Y0046989D01*
X0040873Y0046878D01*
X0041033Y0046763D01*
X0041189Y0046644D01*
X0041342Y0046521D01*
X0041492Y0046395D01*
X0041639Y0046265D01*
X0041783Y0046131D01*
X0041924Y0045994D01*
X0042061Y0045853D01*
X0042195Y0045709D01*
X0042325Y0045562D01*
X0042451Y0045412D01*
X0042574Y0045259D01*
X0042693Y0045103D01*
X0042808Y0044943D01*
X0042919Y0044782D01*
X0043026Y0044617D01*
X0043129Y0044450D01*
X0043228Y0044280D01*
X0043322Y0044108D01*
X0043413Y0043934D01*
X0043499Y0043757D01*
X0043581Y0043579D01*
X0043658Y0043398D01*
X0043731Y0043216D01*
X0043799Y0043032D01*
X0043863Y0042846D01*
X0043923Y0042659D01*
X0043977Y0042471D01*
X0044027Y0042281D01*
X0044073Y0042090D01*
X0044113Y0041898D01*
X0044149Y0041705D01*
X0044180Y0041511D01*
X0044207Y0041316D01*
X0044228Y0041121D01*
X0044245Y0040926D01*
X0044257Y0040730D01*
X0044265Y0040533D01*
X0044267Y0040337D01*
X0044265Y0040141D01*
X0044257Y0039944D01*
X0044245Y0039748D01*
X0044228Y0039553D01*
X0044207Y0039358D01*
X0044180Y0039163D01*
X0044149Y0038969D01*
X0044113Y0038776D01*
X0044073Y0038584D01*
X0044027Y0038393D01*
X0043977Y0038203D01*
X0043923Y0038015D01*
X0043863Y0037828D01*
X0043799Y0037642D01*
X0043731Y0037458D01*
X0043658Y0037276D01*
X0043581Y0037095D01*
X0043499Y0036917D01*
X0043413Y0036740D01*
X0043322Y0036566D01*
X0043228Y0036394D01*
X0043129Y0036224D01*
X0043026Y0036057D01*
X0042919Y0035892D01*
X0042808Y0035731D01*
X0042693Y0035571D01*
X0042574Y0035415D01*
X0042451Y0035262D01*
X0042325Y0035112D01*
X0042195Y0034965D01*
X0042061Y0034821D01*
X0041924Y0034680D01*
X0041783Y0034543D01*
X0041639Y0034409D01*
X0041492Y0034279D01*
X0041342Y0034153D01*
X0041189Y0034030D01*
X0041033Y0033911D01*
X0040873Y0033796D01*
X0040712Y0033685D01*
X0040547Y0033578D01*
X0040380Y0033475D01*
X0040210Y0033376D01*
X0040038Y0033282D01*
X0039864Y0033191D01*
X0039687Y0033105D01*
X0039509Y0033023D01*
X0039328Y0032946D01*
X0039146Y0032873D01*
X0038962Y0032805D01*
X0038776Y0032741D01*
X0038589Y0032681D01*
X0038401Y0032627D01*
X0038211Y0032577D01*
X0038020Y0032531D01*
X0037828Y0032491D01*
X0037635Y0032455D01*
X0037441Y0032424D01*
X0037246Y0032397D01*
X0037051Y0032376D01*
X0036856Y0032359D01*
X0036660Y0032347D01*
X0036463Y0032339D01*
X0036267Y0032337D01*
X0036071Y0032339D01*
X0035874Y0032347D01*
X0035678Y0032359D01*
X0035483Y0032376D01*
X0035288Y0032397D01*
X0035093Y0032424D01*
X0034899Y0032455D01*
X0034706Y0032491D01*
X0034514Y0032531D01*
X0034323Y0032577D01*
X0034133Y0032627D01*
X0033945Y0032681D01*
X0033758Y0032741D01*
X0033572Y0032805D01*
X0033388Y0032873D01*
X0033206Y0032946D01*
X0033025Y0033023D01*
X0032847Y0033105D01*
X0032670Y0033191D01*
X0032496Y0033282D01*
X0032324Y0033376D01*
X0032154Y0033475D01*
X0031987Y0033578D01*
X0031822Y0033685D01*
X0031661Y0033796D01*
X0031501Y0033911D01*
X0031345Y0034030D01*
X0031192Y0034153D01*
X0031042Y0034279D01*
X0030895Y0034409D01*
X0030751Y0034543D01*
X0030610Y0034680D01*
X0030473Y0034821D01*
X0030339Y0034965D01*
X0030209Y0035112D01*
X0030083Y0035262D01*
X0029960Y0035415D01*
X0029841Y0035571D01*
X0029726Y0035731D01*
X0029615Y0035892D01*
X0029508Y0036057D01*
X0029405Y0036224D01*
X0029306Y0036394D01*
X0029212Y0036566D01*
X0029121Y0036740D01*
X0029035Y0036917D01*
X0028953Y0037095D01*
X0028876Y0037276D01*
X0028803Y0037458D01*
X0028735Y0037642D01*
X0028671Y0037828D01*
X0028611Y0038015D01*
X0028557Y0038203D01*
X0028507Y0038393D01*
X0028461Y0038584D01*
X0028421Y0038776D01*
X0028385Y0038969D01*
X0028354Y0039163D01*
X0028327Y0039358D01*
X0028306Y0039553D01*
X0028289Y0039748D01*
X0028277Y0039944D01*
X0028269Y0040141D01*
X0028267Y0040337D01*
X0039517Y0045337D02*
X0040267Y0045337D01*
X0040267Y0044587D01*
X0040267Y0045337D02*
X0040267Y0046087D01*
X0040267Y0045337D02*
X0041017Y0045337D01*
X0003267Y0045337D02*
X0003269Y0045533D01*
X0003277Y0045730D01*
X0003289Y0045926D01*
X0003306Y0046121D01*
X0003327Y0046316D01*
X0003354Y0046511D01*
X0003385Y0046705D01*
X0003421Y0046898D01*
X0003461Y0047090D01*
X0003507Y0047281D01*
X0003557Y0047471D01*
X0003611Y0047659D01*
X0003671Y0047846D01*
X0003735Y0048032D01*
X0003803Y0048216D01*
X0003876Y0048398D01*
X0003953Y0048579D01*
X0004035Y0048757D01*
X0004121Y0048934D01*
X0004212Y0049108D01*
X0004306Y0049280D01*
X0004405Y0049450D01*
X0004508Y0049617D01*
X0004615Y0049782D01*
X0004726Y0049943D01*
X0004841Y0050103D01*
X0004960Y0050259D01*
X0005083Y0050412D01*
X0005209Y0050562D01*
X0005339Y0050709D01*
X0005473Y0050853D01*
X0005610Y0050994D01*
X0005751Y0051131D01*
X0005895Y0051265D01*
X0006042Y0051395D01*
X0006192Y0051521D01*
X0006345Y0051644D01*
X0006501Y0051763D01*
X0006661Y0051878D01*
X0006822Y0051989D01*
X0006987Y0052096D01*
X0007154Y0052199D01*
X0007324Y0052298D01*
X0007496Y0052392D01*
X0007670Y0052483D01*
X0007847Y0052569D01*
X0008025Y0052651D01*
X0008206Y0052728D01*
X0008388Y0052801D01*
X0008572Y0052869D01*
X0008758Y0052933D01*
X0008945Y0052993D01*
X0009133Y0053047D01*
X0009323Y0053097D01*
X0009514Y0053143D01*
X0009706Y0053183D01*
X0009899Y0053219D01*
X0010093Y0053250D01*
X0010288Y0053277D01*
X0010483Y0053298D01*
X0010678Y0053315D01*
X0010874Y0053327D01*
X0011071Y0053335D01*
X0011267Y0053337D01*
X0011463Y0053335D01*
X0011660Y0053327D01*
X0011856Y0053315D01*
X0012051Y0053298D01*
X0012246Y0053277D01*
X0012441Y0053250D01*
X0012635Y0053219D01*
X0012828Y0053183D01*
X0013020Y0053143D01*
X0013211Y0053097D01*
X0013401Y0053047D01*
X0013589Y0052993D01*
X0013776Y0052933D01*
X0013962Y0052869D01*
X0014146Y0052801D01*
X0014328Y0052728D01*
X0014509Y0052651D01*
X0014687Y0052569D01*
X0014864Y0052483D01*
X0015038Y0052392D01*
X0015210Y0052298D01*
X0015380Y0052199D01*
X0015547Y0052096D01*
X0015712Y0051989D01*
X0015873Y0051878D01*
X0016033Y0051763D01*
X0016189Y0051644D01*
X0016342Y0051521D01*
X0016492Y0051395D01*
X0016639Y0051265D01*
X0016783Y0051131D01*
X0016924Y0050994D01*
X0017061Y0050853D01*
X0017195Y0050709D01*
X0017325Y0050562D01*
X0017451Y0050412D01*
X0017574Y0050259D01*
X0017693Y0050103D01*
X0017808Y0049943D01*
X0017919Y0049782D01*
X0018026Y0049617D01*
X0018129Y0049450D01*
X0018228Y0049280D01*
X0018322Y0049108D01*
X0018413Y0048934D01*
X0018499Y0048757D01*
X0018581Y0048579D01*
X0018658Y0048398D01*
X0018731Y0048216D01*
X0018799Y0048032D01*
X0018863Y0047846D01*
X0018923Y0047659D01*
X0018977Y0047471D01*
X0019027Y0047281D01*
X0019073Y0047090D01*
X0019113Y0046898D01*
X0019149Y0046705D01*
X0019180Y0046511D01*
X0019207Y0046316D01*
X0019228Y0046121D01*
X0019245Y0045926D01*
X0019257Y0045730D01*
X0019265Y0045533D01*
X0019267Y0045337D01*
X0019265Y0045141D01*
X0019257Y0044944D01*
X0019245Y0044748D01*
X0019228Y0044553D01*
X0019207Y0044358D01*
X0019180Y0044163D01*
X0019149Y0043969D01*
X0019113Y0043776D01*
X0019073Y0043584D01*
X0019027Y0043393D01*
X0018977Y0043203D01*
X0018923Y0043015D01*
X0018863Y0042828D01*
X0018799Y0042642D01*
X0018731Y0042458D01*
X0018658Y0042276D01*
X0018581Y0042095D01*
X0018499Y0041917D01*
X0018413Y0041740D01*
X0018322Y0041566D01*
X0018228Y0041394D01*
X0018129Y0041224D01*
X0018026Y0041057D01*
X0017919Y0040892D01*
X0017808Y0040731D01*
X0017693Y0040571D01*
X0017574Y0040415D01*
X0017451Y0040262D01*
X0017325Y0040112D01*
X0017195Y0039965D01*
X0017061Y0039821D01*
X0016924Y0039680D01*
X0016783Y0039543D01*
X0016639Y0039409D01*
X0016492Y0039279D01*
X0016342Y0039153D01*
X0016189Y0039030D01*
X0016033Y0038911D01*
X0015873Y0038796D01*
X0015712Y0038685D01*
X0015547Y0038578D01*
X0015380Y0038475D01*
X0015210Y0038376D01*
X0015038Y0038282D01*
X0014864Y0038191D01*
X0014687Y0038105D01*
X0014509Y0038023D01*
X0014328Y0037946D01*
X0014146Y0037873D01*
X0013962Y0037805D01*
X0013776Y0037741D01*
X0013589Y0037681D01*
X0013401Y0037627D01*
X0013211Y0037577D01*
X0013020Y0037531D01*
X0012828Y0037491D01*
X0012635Y0037455D01*
X0012441Y0037424D01*
X0012246Y0037397D01*
X0012051Y0037376D01*
X0011856Y0037359D01*
X0011660Y0037347D01*
X0011463Y0037339D01*
X0011267Y0037337D01*
X0011071Y0037339D01*
X0010874Y0037347D01*
X0010678Y0037359D01*
X0010483Y0037376D01*
X0010288Y0037397D01*
X0010093Y0037424D01*
X0009899Y0037455D01*
X0009706Y0037491D01*
X0009514Y0037531D01*
X0009323Y0037577D01*
X0009133Y0037627D01*
X0008945Y0037681D01*
X0008758Y0037741D01*
X0008572Y0037805D01*
X0008388Y0037873D01*
X0008206Y0037946D01*
X0008025Y0038023D01*
X0007847Y0038105D01*
X0007670Y0038191D01*
X0007496Y0038282D01*
X0007324Y0038376D01*
X0007154Y0038475D01*
X0006987Y0038578D01*
X0006822Y0038685D01*
X0006661Y0038796D01*
X0006501Y0038911D01*
X0006345Y0039030D01*
X0006192Y0039153D01*
X0006042Y0039279D01*
X0005895Y0039409D01*
X0005751Y0039543D01*
X0005610Y0039680D01*
X0005473Y0039821D01*
X0005339Y0039965D01*
X0005209Y0040112D01*
X0005083Y0040262D01*
X0004960Y0040415D01*
X0004841Y0040571D01*
X0004726Y0040731D01*
X0004615Y0040892D01*
X0004508Y0041057D01*
X0004405Y0041224D01*
X0004306Y0041394D01*
X0004212Y0041566D01*
X0004121Y0041740D01*
X0004035Y0041917D01*
X0003953Y0042095D01*
X0003876Y0042276D01*
X0003803Y0042458D01*
X0003735Y0042642D01*
X0003671Y0042828D01*
X0003611Y0043015D01*
X0003557Y0043203D01*
X0003507Y0043393D01*
X0003461Y0043584D01*
X0003421Y0043776D01*
X0003385Y0043969D01*
X0003354Y0044163D01*
X0003327Y0044358D01*
X0003306Y0044553D01*
X0003289Y0044748D01*
X0003277Y0044944D01*
X0003269Y0045141D01*
X0003267Y0045337D01*
X0006267Y0048587D02*
X0006267Y0049337D01*
X0007017Y0049337D01*
X0006267Y0049337D02*
X0005517Y0049337D01*
X0006267Y0049337D02*
X0006267Y0050087D01*
X0037767Y0075337D02*
X0039767Y0075337D01*
X0038767Y0074337D02*
X0038767Y0076337D01*
X0037267Y0077337D02*
X0041267Y0077337D01*
X0045267Y0077337D01*
X0045267Y0079337D01*
X0037267Y0079337D01*
X0037267Y0077337D01*
X0041267Y0077337D02*
X0041267Y0074837D01*
X0046555Y0071850D02*
X0046761Y0071981D01*
X0046963Y0072118D01*
X0047162Y0072260D01*
X0047358Y0072406D01*
X0047550Y0072557D01*
X0047738Y0072713D01*
X0047922Y0072873D01*
X0048102Y0073038D01*
X0048279Y0073207D01*
X0048451Y0073380D01*
X0048618Y0073558D01*
X0048782Y0073739D01*
X0048941Y0073925D01*
X0049095Y0074114D01*
X0049245Y0074307D01*
X0049389Y0074504D01*
X0049530Y0074704D01*
X0049665Y0074907D01*
X0049795Y0075114D01*
X0049920Y0075324D01*
X0050040Y0075537D01*
X0050154Y0075752D01*
X0050263Y0075971D01*
X0050367Y0076192D01*
X0050466Y0076415D01*
X0050559Y0076641D01*
X0050646Y0076869D01*
X0050728Y0077099D01*
X0050805Y0077331D01*
X0050875Y0077565D01*
X0050940Y0077801D01*
X0050999Y0078038D01*
X0051052Y0078276D01*
X0051100Y0078515D01*
X0051141Y0078756D01*
X0051177Y0078998D01*
X0051207Y0079240D01*
X0051230Y0079483D01*
X0051248Y0079727D01*
X0051260Y0079971D01*
X0051266Y0080215D01*
X0051266Y0080459D01*
X0051260Y0080703D01*
X0051248Y0080947D01*
X0051230Y0081191D01*
X0051207Y0081434D01*
X0051177Y0081676D01*
X0051141Y0081918D01*
X0051100Y0082159D01*
X0051052Y0082398D01*
X0050999Y0082636D01*
X0050940Y0082873D01*
X0050875Y0083109D01*
X0050805Y0083343D01*
X0050728Y0083575D01*
X0050646Y0083805D01*
X0050559Y0084033D01*
X0050466Y0084259D01*
X0050367Y0084482D01*
X0050263Y0084703D01*
X0050154Y0084922D01*
X0050040Y0085137D01*
X0049920Y0085350D01*
X0049795Y0085560D01*
X0049665Y0085767D01*
X0049530Y0085970D01*
X0049389Y0086170D01*
X0049245Y0086367D01*
X0049095Y0086560D01*
X0048941Y0086749D01*
X0048782Y0086935D01*
X0048618Y0087116D01*
X0048451Y0087294D01*
X0048279Y0087467D01*
X0048102Y0087636D01*
X0047922Y0087801D01*
X0047738Y0087961D01*
X0047550Y0088117D01*
X0047358Y0088268D01*
X0047162Y0088414D01*
X0046963Y0088556D01*
X0046761Y0088693D01*
X0046555Y0088824D01*
X0051517Y0085337D02*
X0052267Y0085337D01*
X0052267Y0086087D01*
X0052267Y0085337D02*
X0053017Y0085337D01*
X0052267Y0085337D02*
X0052267Y0084587D01*
X0048267Y0090337D02*
X0048269Y0090533D01*
X0048277Y0090730D01*
X0048289Y0090926D01*
X0048306Y0091121D01*
X0048327Y0091316D01*
X0048354Y0091511D01*
X0048385Y0091705D01*
X0048421Y0091898D01*
X0048461Y0092090D01*
X0048507Y0092281D01*
X0048557Y0092471D01*
X0048611Y0092659D01*
X0048671Y0092846D01*
X0048735Y0093032D01*
X0048803Y0093216D01*
X0048876Y0093398D01*
X0048953Y0093579D01*
X0049035Y0093757D01*
X0049121Y0093934D01*
X0049212Y0094108D01*
X0049306Y0094280D01*
X0049405Y0094450D01*
X0049508Y0094617D01*
X0049615Y0094782D01*
X0049726Y0094943D01*
X0049841Y0095103D01*
X0049960Y0095259D01*
X0050083Y0095412D01*
X0050209Y0095562D01*
X0050339Y0095709D01*
X0050473Y0095853D01*
X0050610Y0095994D01*
X0050751Y0096131D01*
X0050895Y0096265D01*
X0051042Y0096395D01*
X0051192Y0096521D01*
X0051345Y0096644D01*
X0051501Y0096763D01*
X0051661Y0096878D01*
X0051822Y0096989D01*
X0051987Y0097096D01*
X0052154Y0097199D01*
X0052324Y0097298D01*
X0052496Y0097392D01*
X0052670Y0097483D01*
X0052847Y0097569D01*
X0053025Y0097651D01*
X0053206Y0097728D01*
X0053388Y0097801D01*
X0053572Y0097869D01*
X0053758Y0097933D01*
X0053945Y0097993D01*
X0054133Y0098047D01*
X0054323Y0098097D01*
X0054514Y0098143D01*
X0054706Y0098183D01*
X0054899Y0098219D01*
X0055093Y0098250D01*
X0055288Y0098277D01*
X0055483Y0098298D01*
X0055678Y0098315D01*
X0055874Y0098327D01*
X0056071Y0098335D01*
X0056267Y0098337D01*
X0056463Y0098335D01*
X0056660Y0098327D01*
X0056856Y0098315D01*
X0057051Y0098298D01*
X0057246Y0098277D01*
X0057441Y0098250D01*
X0057635Y0098219D01*
X0057828Y0098183D01*
X0058020Y0098143D01*
X0058211Y0098097D01*
X0058401Y0098047D01*
X0058589Y0097993D01*
X0058776Y0097933D01*
X0058962Y0097869D01*
X0059146Y0097801D01*
X0059328Y0097728D01*
X0059509Y0097651D01*
X0059687Y0097569D01*
X0059864Y0097483D01*
X0060038Y0097392D01*
X0060210Y0097298D01*
X0060380Y0097199D01*
X0060547Y0097096D01*
X0060712Y0096989D01*
X0060873Y0096878D01*
X0061033Y0096763D01*
X0061189Y0096644D01*
X0061342Y0096521D01*
X0061492Y0096395D01*
X0061639Y0096265D01*
X0061783Y0096131D01*
X0061924Y0095994D01*
X0062061Y0095853D01*
X0062195Y0095709D01*
X0062325Y0095562D01*
X0062451Y0095412D01*
X0062574Y0095259D01*
X0062693Y0095103D01*
X0062808Y0094943D01*
X0062919Y0094782D01*
X0063026Y0094617D01*
X0063129Y0094450D01*
X0063228Y0094280D01*
X0063322Y0094108D01*
X0063413Y0093934D01*
X0063499Y0093757D01*
X0063581Y0093579D01*
X0063658Y0093398D01*
X0063731Y0093216D01*
X0063799Y0093032D01*
X0063863Y0092846D01*
X0063923Y0092659D01*
X0063977Y0092471D01*
X0064027Y0092281D01*
X0064073Y0092090D01*
X0064113Y0091898D01*
X0064149Y0091705D01*
X0064180Y0091511D01*
X0064207Y0091316D01*
X0064228Y0091121D01*
X0064245Y0090926D01*
X0064257Y0090730D01*
X0064265Y0090533D01*
X0064267Y0090337D01*
X0064265Y0090141D01*
X0064257Y0089944D01*
X0064245Y0089748D01*
X0064228Y0089553D01*
X0064207Y0089358D01*
X0064180Y0089163D01*
X0064149Y0088969D01*
X0064113Y0088776D01*
X0064073Y0088584D01*
X0064027Y0088393D01*
X0063977Y0088203D01*
X0063923Y0088015D01*
X0063863Y0087828D01*
X0063799Y0087642D01*
X0063731Y0087458D01*
X0063658Y0087276D01*
X0063581Y0087095D01*
X0063499Y0086917D01*
X0063413Y0086740D01*
X0063322Y0086566D01*
X0063228Y0086394D01*
X0063129Y0086224D01*
X0063026Y0086057D01*
X0062919Y0085892D01*
X0062808Y0085731D01*
X0062693Y0085571D01*
X0062574Y0085415D01*
X0062451Y0085262D01*
X0062325Y0085112D01*
X0062195Y0084965D01*
X0062061Y0084821D01*
X0061924Y0084680D01*
X0061783Y0084543D01*
X0061639Y0084409D01*
X0061492Y0084279D01*
X0061342Y0084153D01*
X0061189Y0084030D01*
X0061033Y0083911D01*
X0060873Y0083796D01*
X0060712Y0083685D01*
X0060547Y0083578D01*
X0060380Y0083475D01*
X0060210Y0083376D01*
X0060038Y0083282D01*
X0059864Y0083191D01*
X0059687Y0083105D01*
X0059509Y0083023D01*
X0059328Y0082946D01*
X0059146Y0082873D01*
X0058962Y0082805D01*
X0058776Y0082741D01*
X0058589Y0082681D01*
X0058401Y0082627D01*
X0058211Y0082577D01*
X0058020Y0082531D01*
X0057828Y0082491D01*
X0057635Y0082455D01*
X0057441Y0082424D01*
X0057246Y0082397D01*
X0057051Y0082376D01*
X0056856Y0082359D01*
X0056660Y0082347D01*
X0056463Y0082339D01*
X0056267Y0082337D01*
X0056071Y0082339D01*
X0055874Y0082347D01*
X0055678Y0082359D01*
X0055483Y0082376D01*
X0055288Y0082397D01*
X0055093Y0082424D01*
X0054899Y0082455D01*
X0054706Y0082491D01*
X0054514Y0082531D01*
X0054323Y0082577D01*
X0054133Y0082627D01*
X0053945Y0082681D01*
X0053758Y0082741D01*
X0053572Y0082805D01*
X0053388Y0082873D01*
X0053206Y0082946D01*
X0053025Y0083023D01*
X0052847Y0083105D01*
X0052670Y0083191D01*
X0052496Y0083282D01*
X0052324Y0083376D01*
X0052154Y0083475D01*
X0051987Y0083578D01*
X0051822Y0083685D01*
X0051661Y0083796D01*
X0051501Y0083911D01*
X0051345Y0084030D01*
X0051192Y0084153D01*
X0051042Y0084279D01*
X0050895Y0084409D01*
X0050751Y0084543D01*
X0050610Y0084680D01*
X0050473Y0084821D01*
X0050339Y0084965D01*
X0050209Y0085112D01*
X0050083Y0085262D01*
X0049960Y0085415D01*
X0049841Y0085571D01*
X0049726Y0085731D01*
X0049615Y0085892D01*
X0049508Y0086057D01*
X0049405Y0086224D01*
X0049306Y0086394D01*
X0049212Y0086566D01*
X0049121Y0086740D01*
X0049035Y0086917D01*
X0048953Y0087095D01*
X0048876Y0087276D01*
X0048803Y0087458D01*
X0048735Y0087642D01*
X0048671Y0087828D01*
X0048611Y0088015D01*
X0048557Y0088203D01*
X0048507Y0088393D01*
X0048461Y0088584D01*
X0048421Y0088776D01*
X0048385Y0088969D01*
X0048354Y0089163D01*
X0048327Y0089358D01*
X0048306Y0089553D01*
X0048289Y0089748D01*
X0048277Y0089944D01*
X0048269Y0090141D01*
X0048267Y0090337D01*
X0041267Y0085837D02*
X0041267Y0082837D01*
X0035979Y0088824D02*
X0035773Y0088693D01*
X0035571Y0088556D01*
X0035372Y0088414D01*
X0035176Y0088268D01*
X0034984Y0088117D01*
X0034796Y0087961D01*
X0034612Y0087801D01*
X0034432Y0087636D01*
X0034255Y0087467D01*
X0034083Y0087294D01*
X0033916Y0087116D01*
X0033752Y0086935D01*
X0033593Y0086749D01*
X0033439Y0086560D01*
X0033289Y0086367D01*
X0033145Y0086170D01*
X0033004Y0085970D01*
X0032869Y0085767D01*
X0032739Y0085560D01*
X0032614Y0085350D01*
X0032494Y0085137D01*
X0032380Y0084922D01*
X0032271Y0084703D01*
X0032167Y0084482D01*
X0032068Y0084259D01*
X0031975Y0084033D01*
X0031888Y0083805D01*
X0031806Y0083575D01*
X0031729Y0083343D01*
X0031659Y0083109D01*
X0031594Y0082873D01*
X0031535Y0082636D01*
X0031482Y0082398D01*
X0031434Y0082159D01*
X0031393Y0081918D01*
X0031357Y0081676D01*
X0031327Y0081434D01*
X0031304Y0081191D01*
X0031286Y0080947D01*
X0031274Y0080703D01*
X0031268Y0080459D01*
X0031268Y0080215D01*
X0031274Y0079971D01*
X0031286Y0079727D01*
X0031304Y0079483D01*
X0031327Y0079240D01*
X0031357Y0078998D01*
X0031393Y0078756D01*
X0031434Y0078515D01*
X0031482Y0078276D01*
X0031535Y0078038D01*
X0031594Y0077801D01*
X0031659Y0077565D01*
X0031729Y0077331D01*
X0031806Y0077099D01*
X0031888Y0076869D01*
X0031975Y0076641D01*
X0032068Y0076415D01*
X0032167Y0076192D01*
X0032271Y0075971D01*
X0032380Y0075752D01*
X0032494Y0075537D01*
X0032614Y0075324D01*
X0032739Y0075114D01*
X0032869Y0074907D01*
X0033004Y0074704D01*
X0033145Y0074504D01*
X0033289Y0074307D01*
X0033439Y0074114D01*
X0033593Y0073925D01*
X0033752Y0073739D01*
X0033916Y0073558D01*
X0034083Y0073380D01*
X0034255Y0073207D01*
X0034432Y0073038D01*
X0034612Y0072873D01*
X0034796Y0072713D01*
X0034984Y0072557D01*
X0035176Y0072406D01*
X0035372Y0072260D01*
X0035571Y0072118D01*
X0035773Y0071981D01*
X0035979Y0071850D01*
X0078267Y0090337D02*
X0078269Y0090533D01*
X0078277Y0090730D01*
X0078289Y0090926D01*
X0078306Y0091121D01*
X0078327Y0091316D01*
X0078354Y0091511D01*
X0078385Y0091705D01*
X0078421Y0091898D01*
X0078461Y0092090D01*
X0078507Y0092281D01*
X0078557Y0092471D01*
X0078611Y0092659D01*
X0078671Y0092846D01*
X0078735Y0093032D01*
X0078803Y0093216D01*
X0078876Y0093398D01*
X0078953Y0093579D01*
X0079035Y0093757D01*
X0079121Y0093934D01*
X0079212Y0094108D01*
X0079306Y0094280D01*
X0079405Y0094450D01*
X0079508Y0094617D01*
X0079615Y0094782D01*
X0079726Y0094943D01*
X0079841Y0095103D01*
X0079960Y0095259D01*
X0080083Y0095412D01*
X0080209Y0095562D01*
X0080339Y0095709D01*
X0080473Y0095853D01*
X0080610Y0095994D01*
X0080751Y0096131D01*
X0080895Y0096265D01*
X0081042Y0096395D01*
X0081192Y0096521D01*
X0081345Y0096644D01*
X0081501Y0096763D01*
X0081661Y0096878D01*
X0081822Y0096989D01*
X0081987Y0097096D01*
X0082154Y0097199D01*
X0082324Y0097298D01*
X0082496Y0097392D01*
X0082670Y0097483D01*
X0082847Y0097569D01*
X0083025Y0097651D01*
X0083206Y0097728D01*
X0083388Y0097801D01*
X0083572Y0097869D01*
X0083758Y0097933D01*
X0083945Y0097993D01*
X0084133Y0098047D01*
X0084323Y0098097D01*
X0084514Y0098143D01*
X0084706Y0098183D01*
X0084899Y0098219D01*
X0085093Y0098250D01*
X0085288Y0098277D01*
X0085483Y0098298D01*
X0085678Y0098315D01*
X0085874Y0098327D01*
X0086071Y0098335D01*
X0086267Y0098337D01*
X0086463Y0098335D01*
X0086660Y0098327D01*
X0086856Y0098315D01*
X0087051Y0098298D01*
X0087246Y0098277D01*
X0087441Y0098250D01*
X0087635Y0098219D01*
X0087828Y0098183D01*
X0088020Y0098143D01*
X0088211Y0098097D01*
X0088401Y0098047D01*
X0088589Y0097993D01*
X0088776Y0097933D01*
X0088962Y0097869D01*
X0089146Y0097801D01*
X0089328Y0097728D01*
X0089509Y0097651D01*
X0089687Y0097569D01*
X0089864Y0097483D01*
X0090038Y0097392D01*
X0090210Y0097298D01*
X0090380Y0097199D01*
X0090547Y0097096D01*
X0090712Y0096989D01*
X0090873Y0096878D01*
X0091033Y0096763D01*
X0091189Y0096644D01*
X0091342Y0096521D01*
X0091492Y0096395D01*
X0091639Y0096265D01*
X0091783Y0096131D01*
X0091924Y0095994D01*
X0092061Y0095853D01*
X0092195Y0095709D01*
X0092325Y0095562D01*
X0092451Y0095412D01*
X0092574Y0095259D01*
X0092693Y0095103D01*
X0092808Y0094943D01*
X0092919Y0094782D01*
X0093026Y0094617D01*
X0093129Y0094450D01*
X0093228Y0094280D01*
X0093322Y0094108D01*
X0093413Y0093934D01*
X0093499Y0093757D01*
X0093581Y0093579D01*
X0093658Y0093398D01*
X0093731Y0093216D01*
X0093799Y0093032D01*
X0093863Y0092846D01*
X0093923Y0092659D01*
X0093977Y0092471D01*
X0094027Y0092281D01*
X0094073Y0092090D01*
X0094113Y0091898D01*
X0094149Y0091705D01*
X0094180Y0091511D01*
X0094207Y0091316D01*
X0094228Y0091121D01*
X0094245Y0090926D01*
X0094257Y0090730D01*
X0094265Y0090533D01*
X0094267Y0090337D01*
X0094265Y0090141D01*
X0094257Y0089944D01*
X0094245Y0089748D01*
X0094228Y0089553D01*
X0094207Y0089358D01*
X0094180Y0089163D01*
X0094149Y0088969D01*
X0094113Y0088776D01*
X0094073Y0088584D01*
X0094027Y0088393D01*
X0093977Y0088203D01*
X0093923Y0088015D01*
X0093863Y0087828D01*
X0093799Y0087642D01*
X0093731Y0087458D01*
X0093658Y0087276D01*
X0093581Y0087095D01*
X0093499Y0086917D01*
X0093413Y0086740D01*
X0093322Y0086566D01*
X0093228Y0086394D01*
X0093129Y0086224D01*
X0093026Y0086057D01*
X0092919Y0085892D01*
X0092808Y0085731D01*
X0092693Y0085571D01*
X0092574Y0085415D01*
X0092451Y0085262D01*
X0092325Y0085112D01*
X0092195Y0084965D01*
X0092061Y0084821D01*
X0091924Y0084680D01*
X0091783Y0084543D01*
X0091639Y0084409D01*
X0091492Y0084279D01*
X0091342Y0084153D01*
X0091189Y0084030D01*
X0091033Y0083911D01*
X0090873Y0083796D01*
X0090712Y0083685D01*
X0090547Y0083578D01*
X0090380Y0083475D01*
X0090210Y0083376D01*
X0090038Y0083282D01*
X0089864Y0083191D01*
X0089687Y0083105D01*
X0089509Y0083023D01*
X0089328Y0082946D01*
X0089146Y0082873D01*
X0088962Y0082805D01*
X0088776Y0082741D01*
X0088589Y0082681D01*
X0088401Y0082627D01*
X0088211Y0082577D01*
X0088020Y0082531D01*
X0087828Y0082491D01*
X0087635Y0082455D01*
X0087441Y0082424D01*
X0087246Y0082397D01*
X0087051Y0082376D01*
X0086856Y0082359D01*
X0086660Y0082347D01*
X0086463Y0082339D01*
X0086267Y0082337D01*
X0086071Y0082339D01*
X0085874Y0082347D01*
X0085678Y0082359D01*
X0085483Y0082376D01*
X0085288Y0082397D01*
X0085093Y0082424D01*
X0084899Y0082455D01*
X0084706Y0082491D01*
X0084514Y0082531D01*
X0084323Y0082577D01*
X0084133Y0082627D01*
X0083945Y0082681D01*
X0083758Y0082741D01*
X0083572Y0082805D01*
X0083388Y0082873D01*
X0083206Y0082946D01*
X0083025Y0083023D01*
X0082847Y0083105D01*
X0082670Y0083191D01*
X0082496Y0083282D01*
X0082324Y0083376D01*
X0082154Y0083475D01*
X0081987Y0083578D01*
X0081822Y0083685D01*
X0081661Y0083796D01*
X0081501Y0083911D01*
X0081345Y0084030D01*
X0081192Y0084153D01*
X0081042Y0084279D01*
X0080895Y0084409D01*
X0080751Y0084543D01*
X0080610Y0084680D01*
X0080473Y0084821D01*
X0080339Y0084965D01*
X0080209Y0085112D01*
X0080083Y0085262D01*
X0079960Y0085415D01*
X0079841Y0085571D01*
X0079726Y0085731D01*
X0079615Y0085892D01*
X0079508Y0086057D01*
X0079405Y0086224D01*
X0079306Y0086394D01*
X0079212Y0086566D01*
X0079121Y0086740D01*
X0079035Y0086917D01*
X0078953Y0087095D01*
X0078876Y0087276D01*
X0078803Y0087458D01*
X0078735Y0087642D01*
X0078671Y0087828D01*
X0078611Y0088015D01*
X0078557Y0088203D01*
X0078507Y0088393D01*
X0078461Y0088584D01*
X0078421Y0088776D01*
X0078385Y0088969D01*
X0078354Y0089163D01*
X0078327Y0089358D01*
X0078306Y0089553D01*
X0078289Y0089748D01*
X0078277Y0089944D01*
X0078269Y0090141D01*
X0078267Y0090337D01*
X0089517Y0095337D02*
X0090267Y0095337D01*
X0090267Y0094587D01*
X0090267Y0095337D02*
X0090267Y0096087D01*
X0090267Y0095337D02*
X0091017Y0095337D01*
X0101267Y0085837D02*
X0101267Y0082837D01*
X0106555Y0088824D02*
X0106761Y0088693D01*
X0106963Y0088556D01*
X0107162Y0088414D01*
X0107358Y0088268D01*
X0107550Y0088117D01*
X0107738Y0087961D01*
X0107922Y0087801D01*
X0108102Y0087636D01*
X0108279Y0087467D01*
X0108451Y0087294D01*
X0108618Y0087116D01*
X0108782Y0086935D01*
X0108941Y0086749D01*
X0109095Y0086560D01*
X0109245Y0086367D01*
X0109389Y0086170D01*
X0109530Y0085970D01*
X0109665Y0085767D01*
X0109795Y0085560D01*
X0109920Y0085350D01*
X0110040Y0085137D01*
X0110154Y0084922D01*
X0110263Y0084703D01*
X0110367Y0084482D01*
X0110466Y0084259D01*
X0110559Y0084033D01*
X0110646Y0083805D01*
X0110728Y0083575D01*
X0110805Y0083343D01*
X0110875Y0083109D01*
X0110940Y0082873D01*
X0110999Y0082636D01*
X0111052Y0082398D01*
X0111100Y0082159D01*
X0111141Y0081918D01*
X0111177Y0081676D01*
X0111207Y0081434D01*
X0111230Y0081191D01*
X0111248Y0080947D01*
X0111260Y0080703D01*
X0111266Y0080459D01*
X0111266Y0080215D01*
X0111260Y0079971D01*
X0111248Y0079727D01*
X0111230Y0079483D01*
X0111207Y0079240D01*
X0111177Y0078998D01*
X0111141Y0078756D01*
X0111100Y0078515D01*
X0111052Y0078276D01*
X0110999Y0078038D01*
X0110940Y0077801D01*
X0110875Y0077565D01*
X0110805Y0077331D01*
X0110728Y0077099D01*
X0110646Y0076869D01*
X0110559Y0076641D01*
X0110466Y0076415D01*
X0110367Y0076192D01*
X0110263Y0075971D01*
X0110154Y0075752D01*
X0110040Y0075537D01*
X0109920Y0075324D01*
X0109795Y0075114D01*
X0109665Y0074907D01*
X0109530Y0074704D01*
X0109389Y0074504D01*
X0109245Y0074307D01*
X0109095Y0074114D01*
X0108941Y0073925D01*
X0108782Y0073739D01*
X0108618Y0073558D01*
X0108451Y0073380D01*
X0108279Y0073207D01*
X0108102Y0073038D01*
X0107922Y0072873D01*
X0107738Y0072713D01*
X0107550Y0072557D01*
X0107358Y0072406D01*
X0107162Y0072260D01*
X0106963Y0072118D01*
X0106761Y0071981D01*
X0106555Y0071850D01*
X0101267Y0074837D02*
X0101267Y0077337D01*
X0097267Y0077337D01*
X0097267Y0079337D01*
X0105267Y0079337D01*
X0105267Y0077337D01*
X0101267Y0077337D01*
X0099767Y0075337D02*
X0097767Y0075337D01*
X0098767Y0074337D02*
X0098767Y0076337D01*
X0095979Y0071850D02*
X0095773Y0071981D01*
X0095571Y0072118D01*
X0095372Y0072260D01*
X0095176Y0072406D01*
X0094984Y0072557D01*
X0094796Y0072713D01*
X0094612Y0072873D01*
X0094432Y0073038D01*
X0094255Y0073207D01*
X0094083Y0073380D01*
X0093916Y0073558D01*
X0093752Y0073739D01*
X0093593Y0073925D01*
X0093439Y0074114D01*
X0093289Y0074307D01*
X0093145Y0074504D01*
X0093004Y0074704D01*
X0092869Y0074907D01*
X0092739Y0075114D01*
X0092614Y0075324D01*
X0092494Y0075537D01*
X0092380Y0075752D01*
X0092271Y0075971D01*
X0092167Y0076192D01*
X0092068Y0076415D01*
X0091975Y0076641D01*
X0091888Y0076869D01*
X0091806Y0077099D01*
X0091729Y0077331D01*
X0091659Y0077565D01*
X0091594Y0077801D01*
X0091535Y0078038D01*
X0091482Y0078276D01*
X0091434Y0078515D01*
X0091393Y0078756D01*
X0091357Y0078998D01*
X0091327Y0079240D01*
X0091304Y0079483D01*
X0091286Y0079727D01*
X0091274Y0079971D01*
X0091268Y0080215D01*
X0091268Y0080459D01*
X0091274Y0080703D01*
X0091286Y0080947D01*
X0091304Y0081191D01*
X0091327Y0081434D01*
X0091357Y0081676D01*
X0091393Y0081918D01*
X0091434Y0082159D01*
X0091482Y0082398D01*
X0091535Y0082636D01*
X0091594Y0082873D01*
X0091659Y0083109D01*
X0091729Y0083343D01*
X0091806Y0083575D01*
X0091888Y0083805D01*
X0091975Y0084033D01*
X0092068Y0084259D01*
X0092167Y0084482D01*
X0092271Y0084703D01*
X0092380Y0084922D01*
X0092494Y0085137D01*
X0092614Y0085350D01*
X0092739Y0085560D01*
X0092869Y0085767D01*
X0093004Y0085970D01*
X0093145Y0086170D01*
X0093289Y0086367D01*
X0093439Y0086560D01*
X0093593Y0086749D01*
X0093752Y0086935D01*
X0093916Y0087116D01*
X0094083Y0087294D01*
X0094255Y0087467D01*
X0094432Y0087636D01*
X0094612Y0087801D01*
X0094796Y0087961D01*
X0094984Y0088117D01*
X0095176Y0088268D01*
X0095372Y0088414D01*
X0095571Y0088556D01*
X0095773Y0088693D01*
X0095979Y0088824D01*
X0093767Y0054337D02*
X0092267Y0054337D01*
X0092207Y0054335D01*
X0092146Y0054330D01*
X0092087Y0054321D01*
X0092028Y0054308D01*
X0091969Y0054292D01*
X0091912Y0054272D01*
X0091857Y0054249D01*
X0091802Y0054222D01*
X0091750Y0054193D01*
X0091699Y0054160D01*
X0091650Y0054124D01*
X0091604Y0054086D01*
X0091560Y0054044D01*
X0091518Y0054000D01*
X0091480Y0053954D01*
X0091444Y0053905D01*
X0091411Y0053854D01*
X0091382Y0053802D01*
X0091355Y0053747D01*
X0091332Y0053692D01*
X0091312Y0053635D01*
X0091296Y0053576D01*
X0091283Y0053517D01*
X0091274Y0053458D01*
X0091269Y0053397D01*
X0091267Y0053337D01*
X0091267Y0047337D01*
X0091269Y0047277D01*
X0091274Y0047216D01*
X0091283Y0047157D01*
X0091296Y0047098D01*
X0091312Y0047039D01*
X0091332Y0046982D01*
X0091355Y0046927D01*
X0091382Y0046872D01*
X0091411Y0046820D01*
X0091444Y0046769D01*
X0091480Y0046720D01*
X0091518Y0046674D01*
X0091560Y0046630D01*
X0091604Y0046588D01*
X0091650Y0046550D01*
X0091699Y0046514D01*
X0091750Y0046481D01*
X0091802Y0046452D01*
X0091857Y0046425D01*
X0091912Y0046402D01*
X0091969Y0046382D01*
X0092028Y0046366D01*
X0092087Y0046353D01*
X0092146Y0046344D01*
X0092207Y0046339D01*
X0092267Y0046337D01*
X0093767Y0046337D01*
X0094267Y0046837D01*
X0108267Y0046837D01*
X0108767Y0046337D01*
X0110267Y0046337D01*
X0110327Y0046339D01*
X0110388Y0046344D01*
X0110447Y0046353D01*
X0110506Y0046366D01*
X0110565Y0046382D01*
X0110622Y0046402D01*
X0110677Y0046425D01*
X0110732Y0046452D01*
X0110784Y0046481D01*
X0110835Y0046514D01*
X0110884Y0046550D01*
X0110930Y0046588D01*
X0110974Y0046630D01*
X0111016Y0046674D01*
X0111054Y0046720D01*
X0111090Y0046769D01*
X0111123Y0046820D01*
X0111152Y0046872D01*
X0111179Y0046927D01*
X0111202Y0046982D01*
X0111222Y0047039D01*
X0111238Y0047098D01*
X0111251Y0047157D01*
X0111260Y0047216D01*
X0111265Y0047277D01*
X0111267Y0047337D01*
X0111267Y0053337D01*
X0111265Y0053397D01*
X0111260Y0053458D01*
X0111251Y0053517D01*
X0111238Y0053576D01*
X0111222Y0053635D01*
X0111202Y0053692D01*
X0111179Y0053747D01*
X0111152Y0053802D01*
X0111123Y0053854D01*
X0111090Y0053905D01*
X0111054Y0053954D01*
X0111016Y0054000D01*
X0110974Y0054044D01*
X0110930Y0054086D01*
X0110884Y0054124D01*
X0110835Y0054160D01*
X0110784Y0054193D01*
X0110732Y0054222D01*
X0110677Y0054249D01*
X0110622Y0054272D01*
X0110565Y0054292D01*
X0110506Y0054308D01*
X0110447Y0054321D01*
X0110388Y0054330D01*
X0110327Y0054335D01*
X0110267Y0054337D01*
X0108767Y0054337D01*
X0108267Y0053837D01*
X0094267Y0053837D01*
X0093767Y0054337D01*
X0092267Y0054337D02*
X0092207Y0054335D01*
X0092146Y0054330D01*
X0092087Y0054321D01*
X0092028Y0054308D01*
X0091969Y0054292D01*
X0091912Y0054272D01*
X0091857Y0054249D01*
X0091802Y0054222D01*
X0091750Y0054193D01*
X0091699Y0054160D01*
X0091650Y0054124D01*
X0091604Y0054086D01*
X0091560Y0054044D01*
X0091518Y0054000D01*
X0091480Y0053954D01*
X0091444Y0053905D01*
X0091411Y0053854D01*
X0091382Y0053802D01*
X0091355Y0053747D01*
X0091332Y0053692D01*
X0091312Y0053635D01*
X0091296Y0053576D01*
X0091283Y0053517D01*
X0091274Y0053458D01*
X0091269Y0053397D01*
X0091267Y0053337D01*
X0091267Y0047337D02*
X0091269Y0047277D01*
X0091274Y0047216D01*
X0091283Y0047157D01*
X0091296Y0047098D01*
X0091312Y0047039D01*
X0091332Y0046982D01*
X0091355Y0046927D01*
X0091382Y0046872D01*
X0091411Y0046820D01*
X0091444Y0046769D01*
X0091480Y0046720D01*
X0091518Y0046674D01*
X0091560Y0046630D01*
X0091604Y0046588D01*
X0091650Y0046550D01*
X0091699Y0046514D01*
X0091750Y0046481D01*
X0091802Y0046452D01*
X0091857Y0046425D01*
X0091912Y0046402D01*
X0091969Y0046382D01*
X0092028Y0046366D01*
X0092087Y0046353D01*
X0092146Y0046344D01*
X0092207Y0046339D01*
X0092267Y0046337D01*
X0110267Y0046337D02*
X0110327Y0046339D01*
X0110388Y0046344D01*
X0110447Y0046353D01*
X0110506Y0046366D01*
X0110565Y0046382D01*
X0110622Y0046402D01*
X0110677Y0046425D01*
X0110732Y0046452D01*
X0110784Y0046481D01*
X0110835Y0046514D01*
X0110884Y0046550D01*
X0110930Y0046588D01*
X0110974Y0046630D01*
X0111016Y0046674D01*
X0111054Y0046720D01*
X0111090Y0046769D01*
X0111123Y0046820D01*
X0111152Y0046872D01*
X0111179Y0046927D01*
X0111202Y0046982D01*
X0111222Y0047039D01*
X0111238Y0047098D01*
X0111251Y0047157D01*
X0111260Y0047216D01*
X0111265Y0047277D01*
X0111267Y0047337D01*
X0111267Y0053337D02*
X0111265Y0053397D01*
X0111260Y0053458D01*
X0111251Y0053517D01*
X0111238Y0053576D01*
X0111222Y0053635D01*
X0111202Y0053692D01*
X0111179Y0053747D01*
X0111152Y0053802D01*
X0111123Y0053854D01*
X0111090Y0053905D01*
X0111054Y0053954D01*
X0111016Y0054000D01*
X0110974Y0054044D01*
X0110930Y0054086D01*
X0110884Y0054124D01*
X0110835Y0054160D01*
X0110784Y0054193D01*
X0110732Y0054222D01*
X0110677Y0054249D01*
X0110622Y0054272D01*
X0110565Y0054292D01*
X0110506Y0054308D01*
X0110447Y0054321D01*
X0110388Y0054330D01*
X0110327Y0054335D01*
X0110267Y0054337D01*
X0137267Y0053337D02*
X0137267Y0051337D01*
X0145267Y0051337D01*
X0145267Y0053337D01*
X0141267Y0053337D01*
X0137267Y0053337D01*
X0141267Y0053337D02*
X0141267Y0055837D01*
X0142767Y0055337D02*
X0144767Y0055337D01*
X0143767Y0056337D02*
X0143767Y0054337D01*
X0135923Y0061637D02*
X0135650Y0061504D01*
X0135381Y0061364D01*
X0135115Y0061218D01*
X0134852Y0061066D01*
X0134594Y0060907D01*
X0134339Y0060742D01*
X0134089Y0060570D01*
X0133842Y0060393D01*
X0133600Y0060210D01*
X0133363Y0060021D01*
X0133130Y0059826D01*
X0132902Y0059626D01*
X0132679Y0059420D01*
X0132461Y0059209D01*
X0132248Y0058992D01*
X0132041Y0058771D01*
X0131839Y0058544D01*
X0131642Y0058313D01*
X0131451Y0058077D01*
X0131266Y0057836D01*
X0131087Y0057591D01*
X0130914Y0057342D01*
X0130747Y0057089D01*
X0130586Y0056831D01*
X0130432Y0056570D01*
X0130284Y0056305D01*
X0130142Y0056037D01*
X0130007Y0055765D01*
X0129879Y0055490D01*
X0129757Y0055212D01*
X0129642Y0054931D01*
X0129534Y0054647D01*
X0129433Y0054361D01*
X0129338Y0054073D01*
X0129251Y0053782D01*
X0129171Y0053489D01*
X0129098Y0053195D01*
X0129032Y0052899D01*
X0128974Y0052601D01*
X0128922Y0052302D01*
X0128878Y0052001D01*
X0128842Y0051700D01*
X0128812Y0051398D01*
X0128790Y0051095D01*
X0128775Y0050792D01*
X0128768Y0050489D01*
X0128768Y0050185D01*
X0128775Y0049882D01*
X0128790Y0049579D01*
X0128812Y0049276D01*
X0128842Y0048974D01*
X0128878Y0048673D01*
X0128922Y0048372D01*
X0128974Y0048073D01*
X0129032Y0047775D01*
X0129098Y0047479D01*
X0129171Y0047185D01*
X0129251Y0046892D01*
X0129338Y0046601D01*
X0129433Y0046313D01*
X0129534Y0046027D01*
X0129642Y0045743D01*
X0129757Y0045462D01*
X0129879Y0045184D01*
X0130007Y0044909D01*
X0130142Y0044637D01*
X0130284Y0044369D01*
X0130432Y0044104D01*
X0130586Y0043843D01*
X0130747Y0043585D01*
X0130914Y0043332D01*
X0131087Y0043083D01*
X0131266Y0042838D01*
X0131451Y0042597D01*
X0131642Y0042361D01*
X0131839Y0042130D01*
X0132041Y0041903D01*
X0132248Y0041682D01*
X0132461Y0041465D01*
X0132679Y0041254D01*
X0132902Y0041048D01*
X0133130Y0040848D01*
X0133363Y0040653D01*
X0133600Y0040464D01*
X0133842Y0040281D01*
X0134089Y0040104D01*
X0134339Y0039932D01*
X0134594Y0039767D01*
X0134852Y0039608D01*
X0135115Y0039456D01*
X0135381Y0039310D01*
X0135650Y0039170D01*
X0135923Y0039037D01*
X0141267Y0044837D02*
X0141267Y0047837D01*
X0146611Y0039037D02*
X0146884Y0039170D01*
X0147153Y0039310D01*
X0147419Y0039456D01*
X0147682Y0039608D01*
X0147940Y0039767D01*
X0148195Y0039932D01*
X0148445Y0040104D01*
X0148692Y0040281D01*
X0148934Y0040464D01*
X0149171Y0040653D01*
X0149404Y0040848D01*
X0149632Y0041048D01*
X0149855Y0041254D01*
X0150073Y0041465D01*
X0150286Y0041682D01*
X0150493Y0041903D01*
X0150695Y0042130D01*
X0150892Y0042361D01*
X0151083Y0042597D01*
X0151268Y0042838D01*
X0151447Y0043083D01*
X0151620Y0043332D01*
X0151787Y0043585D01*
X0151948Y0043843D01*
X0152102Y0044104D01*
X0152250Y0044369D01*
X0152392Y0044637D01*
X0152527Y0044909D01*
X0152655Y0045184D01*
X0152777Y0045462D01*
X0152892Y0045743D01*
X0153000Y0046027D01*
X0153101Y0046313D01*
X0153196Y0046601D01*
X0153283Y0046892D01*
X0153363Y0047185D01*
X0153436Y0047479D01*
X0153502Y0047775D01*
X0153560Y0048073D01*
X0153612Y0048372D01*
X0153656Y0048673D01*
X0153692Y0048974D01*
X0153722Y0049276D01*
X0153744Y0049579D01*
X0153759Y0049882D01*
X0153766Y0050185D01*
X0153766Y0050489D01*
X0153759Y0050792D01*
X0153744Y0051095D01*
X0153722Y0051398D01*
X0153692Y0051700D01*
X0153656Y0052001D01*
X0153612Y0052302D01*
X0153560Y0052601D01*
X0153502Y0052899D01*
X0153436Y0053195D01*
X0153363Y0053489D01*
X0153283Y0053782D01*
X0153196Y0054073D01*
X0153101Y0054361D01*
X0153000Y0054647D01*
X0152892Y0054931D01*
X0152777Y0055212D01*
X0152655Y0055490D01*
X0152527Y0055765D01*
X0152392Y0056037D01*
X0152250Y0056305D01*
X0152102Y0056570D01*
X0151948Y0056831D01*
X0151787Y0057089D01*
X0151620Y0057342D01*
X0151447Y0057591D01*
X0151268Y0057836D01*
X0151083Y0058077D01*
X0150892Y0058313D01*
X0150695Y0058544D01*
X0150493Y0058771D01*
X0150286Y0058992D01*
X0150073Y0059209D01*
X0149855Y0059420D01*
X0149632Y0059626D01*
X0149404Y0059826D01*
X0149171Y0060021D01*
X0148934Y0060210D01*
X0148692Y0060393D01*
X0148445Y0060570D01*
X0148195Y0060742D01*
X0147940Y0060907D01*
X0147682Y0061066D01*
X0147419Y0061218D01*
X0147153Y0061364D01*
X0146884Y0061504D01*
X0146611Y0061637D01*
D11*
X0040852Y0030488D02*
X0038917Y0030488D01*
X0040368Y0031939D01*
X0040368Y0029037D01*
X0041863Y0029037D02*
X0041863Y0029521D01*
X0042347Y0029521D01*
X0042347Y0029037D01*
X0041863Y0029037D01*
X0043336Y0029037D02*
X0043336Y0029521D01*
X0045271Y0031456D01*
X0045271Y0031939D01*
X0043336Y0031939D01*
X0046767Y0030488D02*
X0046767Y0029521D01*
X0046767Y0028553D01*
X0046283Y0028070D01*
X0047250Y0029037D02*
X0046767Y0029521D01*
X0047250Y0029037D02*
X0047734Y0029037D01*
X0048218Y0029521D01*
X0048218Y0030488D01*
X0049229Y0030488D02*
X0050197Y0030488D01*
X0049229Y0029037D02*
X0049229Y0031939D01*
X0051164Y0031939D01*
X0069417Y0028689D02*
X0069417Y0025787D01*
X0069417Y0026754D02*
X0070868Y0026754D01*
X0071352Y0027238D01*
X0071352Y0028206D01*
X0070868Y0028689D01*
X0069417Y0028689D01*
X0072363Y0028206D02*
X0072363Y0026271D01*
X0072847Y0025787D01*
X0073814Y0025787D01*
X0074298Y0026271D01*
X0074298Y0028206D01*
X0073814Y0028689D01*
X0072847Y0028689D01*
X0072363Y0028206D01*
X0075310Y0028689D02*
X0077245Y0028689D01*
X0076277Y0028689D02*
X0076277Y0025787D01*
X0078256Y0027238D02*
X0080191Y0027238D01*
X0081203Y0027722D02*
X0081203Y0028206D01*
X0081686Y0028689D01*
X0082654Y0028689D01*
X0083138Y0028206D01*
X0082654Y0027238D02*
X0083138Y0026754D01*
X0083138Y0026271D01*
X0082654Y0025787D01*
X0081686Y0025787D01*
X0081203Y0026271D01*
X0081686Y0027238D02*
X0082654Y0027238D01*
X0081686Y0027238D02*
X0081203Y0027722D01*
X0084149Y0028689D02*
X0086084Y0028689D01*
X0085117Y0028689D02*
X0085117Y0025787D01*
X0087096Y0025787D02*
X0089031Y0025787D01*
X0090042Y0025787D02*
X0090042Y0028689D01*
X0091494Y0028689D01*
X0091977Y0028206D01*
X0091977Y0027238D01*
X0091494Y0026754D01*
X0090042Y0026754D01*
X0091010Y0026754D02*
X0091977Y0025787D01*
X0092989Y0025787D02*
X0094924Y0025787D01*
X0095935Y0026271D02*
X0096419Y0025787D01*
X0097387Y0025787D01*
X0097870Y0026271D01*
X0097870Y0028206D01*
X0097387Y0028689D01*
X0096419Y0028689D01*
X0095935Y0028206D01*
X0095935Y0026271D01*
X0093956Y0027238D02*
X0092989Y0027238D01*
X0092989Y0028689D02*
X0092989Y0025787D01*
X0092989Y0028689D02*
X0094924Y0028689D01*
X0089031Y0028689D02*
X0087096Y0028689D01*
X0087096Y0025787D01*
X0087096Y0027238D02*
X0088063Y0027238D01*
X0102414Y0036067D02*
X0102414Y0037518D01*
X0102898Y0038002D01*
X0103382Y0038002D01*
X0103865Y0037518D01*
X0103865Y0036067D01*
X0102414Y0036067D02*
X0105317Y0036067D01*
X0105317Y0037518D01*
X0104833Y0038002D01*
X0104349Y0038002D01*
X0103865Y0037518D01*
X0103865Y0039014D02*
X0103865Y0040949D01*
X0103382Y0040949D02*
X0105317Y0040949D01*
X0105524Y0042187D02*
X0105524Y0045089D01*
X0106975Y0045089D01*
X0107459Y0044606D01*
X0107459Y0043638D01*
X0106975Y0043154D01*
X0105524Y0043154D01*
X0106975Y0043154D01*
X0107459Y0043638D01*
X0107459Y0044606D01*
X0106975Y0045089D01*
X0105524Y0045089D01*
X0105524Y0042187D01*
X0105317Y0042928D02*
X0102414Y0042928D01*
X0102414Y0043895D02*
X0102414Y0041960D01*
X0103382Y0040949D02*
X0102414Y0039981D01*
X0103382Y0039014D01*
X0105317Y0039014D01*
X0107459Y0042187D02*
X0106491Y0043154D01*
X0107459Y0042187D01*
X0109921Y0042187D02*
X0109921Y0045089D01*
X0108470Y0043638D01*
X0110405Y0043638D01*
X0108470Y0043638D01*
X0109921Y0045089D01*
X0109921Y0042187D01*
X0106805Y0049187D02*
X0106321Y0049187D01*
X0106321Y0050154D01*
X0106805Y0050638D01*
X0106805Y0051606D01*
X0106321Y0052089D01*
X0105354Y0052089D01*
X0104870Y0051606D01*
X0104870Y0050638D01*
X0105354Y0050154D01*
X0105354Y0049187D01*
X0104870Y0049187D01*
X0105354Y0049187D01*
X0105354Y0050154D01*
X0104870Y0050638D01*
X0104870Y0051606D01*
X0105354Y0052089D01*
X0106321Y0052089D01*
X0106805Y0051606D01*
X0106805Y0050638D01*
X0106321Y0050154D01*
X0106321Y0049187D01*
X0106805Y0049187D01*
X0103859Y0049187D02*
X0101924Y0049187D01*
X0103859Y0051122D01*
X0103859Y0051606D01*
X0103375Y0052089D01*
X0102407Y0052089D01*
X0101924Y0051606D01*
X0102407Y0052089D01*
X0103375Y0052089D01*
X0103859Y0051606D01*
X0103859Y0051122D01*
X0101924Y0049187D01*
X0103859Y0049187D01*
X0100912Y0049187D02*
X0098977Y0049187D01*
X0100912Y0051122D01*
X0100912Y0051606D01*
X0100428Y0052089D01*
X0099461Y0052089D01*
X0098977Y0051606D01*
X0099461Y0052089D01*
X0100428Y0052089D01*
X0100912Y0051606D01*
X0100912Y0051122D01*
X0098977Y0049187D01*
X0100912Y0049187D01*
X0096265Y0048614D02*
X0096265Y0046145D01*
X0087044Y0047839D02*
X0084575Y0047839D01*
X0085809Y0049073D02*
X0085809Y0046604D01*
X0086104Y0068287D02*
X0088039Y0070222D01*
X0088039Y0070706D01*
X0087555Y0071189D01*
X0086588Y0071189D01*
X0086104Y0070706D01*
X0085092Y0070222D02*
X0085092Y0068287D01*
X0086104Y0068287D02*
X0088039Y0068287D01*
X0089050Y0068287D02*
X0089050Y0068771D01*
X0089534Y0068771D01*
X0089534Y0068287D01*
X0089050Y0068287D01*
X0089050Y0069738D02*
X0089050Y0070222D01*
X0089534Y0070222D01*
X0089534Y0069738D01*
X0089050Y0069738D01*
X0090524Y0068771D02*
X0090524Y0070706D01*
X0091007Y0071189D01*
X0091975Y0071189D01*
X0092459Y0070706D01*
X0093470Y0069738D02*
X0095405Y0069738D01*
X0094921Y0068287D02*
X0094921Y0071189D01*
X0093470Y0069738D01*
X0092459Y0068771D02*
X0091975Y0068287D01*
X0091007Y0068287D01*
X0090524Y0068771D01*
X0085092Y0069738D02*
X0083157Y0069738D01*
X0083157Y0070222D02*
X0083157Y0068287D01*
X0083157Y0070222D02*
X0084125Y0071189D01*
X0085092Y0070222D01*
X0090368Y0079037D02*
X0090368Y0081939D01*
X0088917Y0080488D01*
X0090852Y0080488D01*
X0091863Y0079521D02*
X0091863Y0079037D01*
X0092347Y0079037D01*
X0092347Y0079521D01*
X0091863Y0079521D01*
X0093336Y0079521D02*
X0093336Y0079037D01*
X0093336Y0079521D02*
X0095271Y0081456D01*
X0095271Y0081939D01*
X0093336Y0081939D01*
X0096767Y0080488D02*
X0096767Y0079521D01*
X0096767Y0078553D01*
X0096283Y0078070D01*
X0097250Y0079037D02*
X0097734Y0079037D01*
X0098218Y0079521D01*
X0098218Y0080488D01*
X0099229Y0080488D02*
X0100197Y0080488D01*
X0099229Y0079037D02*
X0099229Y0081939D01*
X0101164Y0081939D01*
X0097250Y0079037D02*
X0096767Y0079521D01*
X0105907Y0076922D02*
X0105907Y0074987D01*
X0105907Y0076438D02*
X0107842Y0076438D01*
X0107842Y0076922D02*
X0106875Y0077889D01*
X0105907Y0076922D01*
X0107842Y0076922D02*
X0107842Y0074987D01*
X0108854Y0074987D02*
X0110789Y0076922D01*
X0110789Y0077406D01*
X0110305Y0077889D01*
X0109338Y0077889D01*
X0108854Y0077406D01*
X0111800Y0076922D02*
X0111800Y0076438D01*
X0112284Y0076438D01*
X0112284Y0076922D01*
X0111800Y0076922D01*
X0111800Y0075471D02*
X0111800Y0074987D01*
X0112284Y0074987D01*
X0112284Y0075471D01*
X0111800Y0075471D01*
X0110789Y0074987D02*
X0108854Y0074987D01*
X0113274Y0074987D02*
X0113274Y0077889D01*
X0114725Y0077889D01*
X0115209Y0077406D01*
X0115209Y0076438D01*
X0114725Y0075954D01*
X0113274Y0075954D01*
X0114241Y0075954D02*
X0115209Y0074987D01*
X0115907Y0074987D02*
X0115907Y0076922D01*
X0116875Y0077889D01*
X0117842Y0076922D01*
X0117842Y0074987D01*
X0118155Y0074987D02*
X0116220Y0074987D01*
X0118155Y0076922D01*
X0118155Y0077406D01*
X0117671Y0077889D01*
X0116704Y0077889D01*
X0116220Y0077406D01*
X0115907Y0076438D02*
X0117842Y0076438D01*
X0118854Y0077406D02*
X0119338Y0077889D01*
X0120305Y0077889D01*
X0120789Y0077406D01*
X0120789Y0076922D01*
X0118854Y0074987D01*
X0120789Y0074987D01*
X0121800Y0074987D02*
X0121800Y0075471D01*
X0122284Y0075471D01*
X0122284Y0074987D01*
X0121800Y0074987D01*
X0121800Y0076438D02*
X0121800Y0076922D01*
X0122284Y0076922D01*
X0122284Y0076438D01*
X0121800Y0076438D01*
X0123274Y0075954D02*
X0124725Y0075954D01*
X0125209Y0076438D01*
X0125209Y0077406D01*
X0124725Y0077889D01*
X0123274Y0077889D01*
X0123274Y0074987D01*
X0124241Y0075954D02*
X0125209Y0074987D01*
X0126220Y0075471D02*
X0126704Y0074987D01*
X0127671Y0074987D01*
X0128155Y0075471D01*
X0128155Y0075954D01*
X0127671Y0076438D01*
X0127188Y0076438D01*
X0127671Y0076438D02*
X0128155Y0076922D01*
X0128155Y0077406D01*
X0127671Y0077889D01*
X0126704Y0077889D01*
X0126220Y0077406D01*
X0122717Y0079857D02*
X0120782Y0079857D01*
X0119814Y0080825D01*
X0120782Y0081792D01*
X0122717Y0081792D01*
X0122717Y0082804D02*
X0120782Y0084739D01*
X0120298Y0084739D01*
X0119814Y0084255D01*
X0119814Y0083288D01*
X0120298Y0082804D01*
X0121265Y0081792D02*
X0121265Y0079857D01*
X0122717Y0082804D02*
X0122717Y0084739D01*
X0122717Y0085750D02*
X0122233Y0085750D01*
X0122233Y0086234D01*
X0122717Y0086234D01*
X0122717Y0085750D01*
X0121265Y0085750D02*
X0121265Y0086234D01*
X0120782Y0086234D01*
X0120782Y0085750D01*
X0121265Y0085750D01*
X0119814Y0087224D02*
X0119814Y0089159D01*
X0119814Y0088191D02*
X0122717Y0088191D01*
X0122233Y0090170D02*
X0122717Y0090654D01*
X0122717Y0091621D01*
X0122233Y0092105D01*
X0121749Y0092105D01*
X0121265Y0091621D01*
X0121265Y0091138D01*
X0121265Y0091621D02*
X0120782Y0092105D01*
X0120298Y0092105D01*
X0119814Y0091621D01*
X0119814Y0090654D01*
X0120298Y0090170D01*
X0120427Y0092137D02*
X0119943Y0092621D01*
X0120427Y0092137D02*
X0121395Y0092137D01*
X0121878Y0092621D01*
X0121878Y0093588D01*
X0121395Y0094072D01*
X0120911Y0094072D01*
X0119943Y0093588D01*
X0119943Y0095039D01*
X0121878Y0095039D01*
X0122214Y0095689D02*
X0125117Y0095689D01*
X0122214Y0093754D01*
X0125117Y0093754D01*
X0124825Y0093588D02*
X0122890Y0093588D01*
X0124341Y0095039D01*
X0124341Y0092137D01*
X0125117Y0091775D02*
X0122214Y0091775D01*
X0123182Y0090808D01*
X0125117Y0090808D02*
X0125117Y0092743D01*
X0125836Y0092621D02*
X0125836Y0092137D01*
X0125836Y0092621D02*
X0127771Y0094556D01*
X0127771Y0095039D01*
X0125836Y0095039D01*
X0123665Y0096701D02*
X0123665Y0098636D01*
X0123182Y0099647D02*
X0122214Y0100615D01*
X0125117Y0100615D01*
X0125117Y0101582D02*
X0125117Y0099647D01*
X0125117Y0098152D02*
X0122214Y0098152D01*
X0123665Y0096701D01*
X0118932Y0094556D02*
X0118448Y0095039D01*
X0117481Y0095039D01*
X0116997Y0094556D01*
X0116997Y0092621D01*
X0117481Y0092137D01*
X0118448Y0092137D01*
X0118932Y0092621D01*
X0115985Y0092621D02*
X0115502Y0092137D01*
X0114050Y0092137D01*
X0114050Y0095039D01*
X0115502Y0095039D01*
X0115985Y0094556D01*
X0115985Y0094072D01*
X0115502Y0093588D01*
X0114050Y0093588D01*
X0115502Y0093588D02*
X0115985Y0093104D01*
X0115985Y0092621D01*
X0123665Y0102594D02*
X0123665Y0104529D01*
X0123182Y0105540D02*
X0123665Y0106024D01*
X0123665Y0106992D01*
X0124149Y0107475D01*
X0124633Y0107475D01*
X0125117Y0106992D01*
X0125117Y0106024D01*
X0124633Y0105540D01*
X0124149Y0105540D01*
X0123665Y0106024D01*
X0123182Y0105540D02*
X0122698Y0105540D01*
X0122214Y0106024D01*
X0122214Y0106992D01*
X0122698Y0107475D01*
X0123182Y0107475D01*
X0123665Y0106992D01*
X0121035Y0108887D02*
X0119100Y0108887D01*
X0121035Y0110822D01*
X0121035Y0111306D01*
X0120551Y0111789D01*
X0119584Y0111789D01*
X0119100Y0111306D01*
X0118088Y0111789D02*
X0116153Y0111789D01*
X0117121Y0111789D02*
X0117121Y0108887D01*
X0115164Y0108887D02*
X0114680Y0108887D01*
X0114680Y0109371D01*
X0115164Y0109371D01*
X0115164Y0108887D01*
X0115164Y0110338D02*
X0114680Y0110338D01*
X0114680Y0110822D01*
X0115164Y0110822D01*
X0115164Y0110338D01*
X0113668Y0110822D02*
X0113668Y0111306D01*
X0113185Y0111789D01*
X0112217Y0111789D01*
X0111734Y0111306D01*
X0110722Y0110822D02*
X0110722Y0108887D01*
X0111734Y0108887D02*
X0113668Y0110822D01*
X0113668Y0108887D02*
X0111734Y0108887D01*
X0110722Y0110338D02*
X0108787Y0110338D01*
X0108787Y0110822D02*
X0109754Y0111789D01*
X0110722Y0110822D01*
X0109467Y0110465D02*
X0109467Y0109497D01*
X0108983Y0109014D01*
X0108787Y0108887D02*
X0108787Y0110822D01*
X0108983Y0110949D02*
X0109467Y0110465D01*
X0108983Y0110949D02*
X0108015Y0110949D01*
X0107532Y0110465D01*
X0107532Y0109981D01*
X0108015Y0109014D01*
X0106564Y0109014D01*
X0106564Y0110949D01*
X0106564Y0111960D02*
X0108015Y0111960D01*
X0107532Y0112928D01*
X0107532Y0113412D01*
X0108015Y0113895D01*
X0108983Y0113895D01*
X0109467Y0113412D01*
X0109467Y0112444D01*
X0108983Y0111960D01*
X0106564Y0111960D02*
X0106564Y0113895D01*
X0106564Y0114907D02*
X0106564Y0116842D01*
X0107048Y0116842D01*
X0108983Y0114907D01*
X0109467Y0114907D01*
X0108983Y0108002D02*
X0109467Y0107518D01*
X0109467Y0106551D01*
X0108983Y0106067D01*
X0107048Y0106067D01*
X0106564Y0106551D01*
X0106564Y0107518D01*
X0107048Y0108002D01*
X0107048Y0105056D02*
X0107532Y0105056D01*
X0108015Y0104572D01*
X0108015Y0103121D01*
X0106564Y0103121D02*
X0106564Y0104572D01*
X0107048Y0105056D01*
X0108015Y0104572D02*
X0108499Y0105056D01*
X0108983Y0105056D01*
X0109467Y0104572D01*
X0109467Y0103121D01*
X0106564Y0103121D01*
X0095836Y0112137D02*
X0095836Y0112621D01*
X0097771Y0114556D01*
X0097771Y0115039D01*
X0095836Y0115039D01*
X0094341Y0115039D02*
X0092890Y0113588D01*
X0094825Y0113588D01*
X0094341Y0112137D02*
X0094341Y0115039D01*
X0091878Y0115039D02*
X0089943Y0115039D01*
X0089943Y0113588D01*
X0090911Y0114072D01*
X0091395Y0114072D01*
X0091878Y0113588D01*
X0091878Y0112621D01*
X0091395Y0112137D01*
X0090427Y0112137D01*
X0089943Y0112621D01*
X0088932Y0112621D02*
X0088448Y0112137D01*
X0087481Y0112137D01*
X0086997Y0112621D01*
X0086997Y0114556D01*
X0087481Y0115039D01*
X0088448Y0115039D01*
X0088932Y0114556D01*
X0085985Y0114556D02*
X0085985Y0114072D01*
X0085502Y0113588D01*
X0084050Y0113588D01*
X0084050Y0112137D02*
X0085502Y0112137D01*
X0085985Y0112621D01*
X0085985Y0113104D01*
X0085502Y0113588D01*
X0085985Y0114556D02*
X0085502Y0115039D01*
X0084050Y0115039D01*
X0084050Y0112137D01*
X0089814Y0111138D02*
X0090782Y0110170D01*
X0089814Y0111138D02*
X0092717Y0111138D01*
X0092717Y0112105D02*
X0092717Y0110170D01*
X0092717Y0108191D02*
X0089814Y0108191D01*
X0089814Y0107224D02*
X0089814Y0109159D01*
X0090298Y0106596D02*
X0091265Y0106596D01*
X0091749Y0106112D01*
X0092717Y0106112D01*
X0092717Y0106596D01*
X0092717Y0106234D02*
X0092717Y0105750D01*
X0092233Y0105750D01*
X0092233Y0106234D01*
X0092717Y0106234D01*
X0092717Y0105145D02*
X0091749Y0105145D01*
X0091265Y0104661D01*
X0090298Y0104661D01*
X0089814Y0105145D01*
X0089814Y0106112D01*
X0090298Y0106596D01*
X0090782Y0106234D02*
X0091265Y0106234D01*
X0091265Y0105750D01*
X0090782Y0105750D01*
X0090782Y0106234D01*
X0090782Y0104739D02*
X0090298Y0104739D01*
X0089814Y0104255D01*
X0089814Y0103288D01*
X0090298Y0102804D01*
X0089814Y0102206D02*
X0092717Y0102206D01*
X0092717Y0101792D02*
X0090782Y0101792D01*
X0089814Y0100825D01*
X0090782Y0099857D01*
X0092717Y0099857D01*
X0092717Y0099743D02*
X0092233Y0099259D01*
X0090298Y0101194D01*
X0092233Y0101194D01*
X0092717Y0100711D01*
X0092717Y0099743D01*
X0092233Y0099259D02*
X0090298Y0099259D01*
X0089814Y0099743D01*
X0089814Y0100711D01*
X0090298Y0101194D01*
X0091265Y0101792D02*
X0091265Y0099857D01*
X0090298Y0098248D02*
X0092233Y0096313D01*
X0092717Y0096797D01*
X0092717Y0097764D01*
X0092233Y0098248D01*
X0090298Y0098248D01*
X0089814Y0097764D01*
X0089814Y0096797D01*
X0090298Y0096313D01*
X0092233Y0096313D01*
X0092717Y0095301D02*
X0092717Y0093366D01*
X0092717Y0094334D02*
X0089814Y0094334D01*
X0090782Y0093366D01*
X0092470Y0091389D02*
X0094405Y0091389D01*
X0093438Y0089938D02*
X0092470Y0089938D01*
X0091459Y0089938D02*
X0091459Y0088971D01*
X0090975Y0088487D01*
X0090491Y0088487D01*
X0090007Y0088971D01*
X0090007Y0088003D01*
X0089524Y0087520D01*
X0090007Y0088971D02*
X0090007Y0089938D01*
X0088512Y0088971D02*
X0088028Y0088487D01*
X0087061Y0088487D01*
X0086577Y0088971D01*
X0088512Y0090906D01*
X0088512Y0088971D01*
X0088512Y0090906D02*
X0088028Y0091389D01*
X0087061Y0091389D01*
X0086577Y0090906D01*
X0086577Y0088971D01*
X0086617Y0089859D02*
X0086617Y0087924D01*
X0084682Y0089859D01*
X0084198Y0089859D01*
X0083714Y0089375D01*
X0083714Y0088408D01*
X0084198Y0087924D01*
X0083631Y0088487D02*
X0085566Y0090422D01*
X0085566Y0090906D01*
X0085082Y0091389D01*
X0084114Y0091389D01*
X0083631Y0090906D01*
X0082619Y0090906D02*
X0082135Y0091389D01*
X0081168Y0091389D01*
X0080684Y0090906D01*
X0082619Y0090906D02*
X0082619Y0090422D01*
X0080684Y0088487D01*
X0082619Y0088487D01*
X0083631Y0088487D02*
X0085566Y0088487D01*
X0085165Y0086913D02*
X0085165Y0084978D01*
X0084682Y0084978D02*
X0083714Y0085945D01*
X0084682Y0086913D01*
X0086617Y0086913D01*
X0086617Y0084978D02*
X0084682Y0084978D01*
X0084682Y0090871D02*
X0085165Y0090871D01*
X0085165Y0091354D01*
X0084682Y0091354D01*
X0084682Y0090871D01*
X0086133Y0090871D02*
X0086133Y0091354D01*
X0086617Y0091354D01*
X0086617Y0090871D01*
X0086133Y0090871D01*
X0086617Y0092344D02*
X0083714Y0092344D01*
X0083714Y0093795D01*
X0084198Y0094279D01*
X0085165Y0094279D01*
X0085649Y0093795D01*
X0085649Y0092344D01*
X0085649Y0093311D02*
X0086617Y0094279D01*
X0086617Y0095290D02*
X0086617Y0097225D01*
X0086617Y0096258D02*
X0083714Y0096258D01*
X0084682Y0095290D01*
X0078905Y0096487D02*
X0076970Y0096487D01*
X0078905Y0098422D01*
X0078905Y0098906D01*
X0078421Y0099389D01*
X0077454Y0099389D01*
X0076970Y0098906D01*
X0075959Y0098906D02*
X0075475Y0099389D01*
X0074507Y0099389D01*
X0074024Y0098906D01*
X0074024Y0096971D01*
X0074507Y0096487D01*
X0075475Y0096487D01*
X0075959Y0096971D01*
X0073034Y0096971D02*
X0073034Y0096487D01*
X0072550Y0096487D01*
X0072550Y0096971D01*
X0073034Y0096971D01*
X0073034Y0097938D02*
X0072550Y0097938D01*
X0072550Y0098422D01*
X0073034Y0098422D01*
X0073034Y0097938D01*
X0071539Y0098422D02*
X0071539Y0098906D01*
X0071055Y0099389D01*
X0070088Y0099389D01*
X0069604Y0098906D01*
X0068592Y0098422D02*
X0068592Y0096487D01*
X0069604Y0096487D02*
X0071539Y0098422D01*
X0071539Y0096487D02*
X0069604Y0096487D01*
X0068592Y0097938D02*
X0066657Y0097938D01*
X0066657Y0098422D02*
X0067625Y0099389D01*
X0068592Y0098422D01*
X0066657Y0098422D02*
X0066657Y0096487D01*
X0062717Y0096797D02*
X0062233Y0096313D01*
X0060298Y0098248D01*
X0062233Y0098248D01*
X0062717Y0097764D01*
X0062717Y0096797D01*
X0062233Y0096313D02*
X0060298Y0096313D01*
X0059814Y0096797D01*
X0059814Y0097764D01*
X0060298Y0098248D01*
X0060298Y0099259D02*
X0059814Y0099743D01*
X0059814Y0100711D01*
X0060298Y0101194D01*
X0062233Y0099259D01*
X0062717Y0099743D01*
X0062717Y0100711D01*
X0062233Y0101194D01*
X0060298Y0101194D01*
X0059814Y0102206D02*
X0062717Y0102206D01*
X0061749Y0102206D02*
X0060782Y0103657D01*
X0061265Y0104661D02*
X0060298Y0104661D01*
X0059814Y0105145D01*
X0059814Y0106112D01*
X0060298Y0106596D01*
X0061265Y0106596D01*
X0061749Y0106112D01*
X0062717Y0106112D01*
X0062717Y0106596D01*
X0062890Y0107088D02*
X0064825Y0107088D01*
X0065914Y0106651D02*
X0068817Y0106651D01*
X0068817Y0105684D02*
X0068817Y0107619D01*
X0068817Y0108630D02*
X0068333Y0108630D01*
X0068333Y0109114D01*
X0068817Y0109114D01*
X0068817Y0108630D01*
X0067771Y0108539D02*
X0067771Y0108056D01*
X0065836Y0106121D01*
X0065836Y0105637D01*
X0065914Y0106651D02*
X0066882Y0105684D01*
X0066882Y0104672D02*
X0068817Y0104672D01*
X0067365Y0104672D02*
X0067365Y0102737D01*
X0066882Y0102737D02*
X0065914Y0103704D01*
X0066882Y0104672D01*
X0066882Y0102737D02*
X0068817Y0102737D01*
X0064341Y0105637D02*
X0064341Y0108539D01*
X0062890Y0107088D01*
X0062717Y0107857D02*
X0060782Y0107857D01*
X0059814Y0108825D01*
X0060782Y0109792D01*
X0062717Y0109792D01*
X0062717Y0110804D02*
X0062717Y0112739D01*
X0062717Y0111771D02*
X0059814Y0111771D01*
X0060782Y0110804D01*
X0061265Y0109792D02*
X0061265Y0107857D01*
X0061395Y0107572D02*
X0061878Y0107088D01*
X0061878Y0106121D01*
X0061395Y0105637D01*
X0060427Y0105637D01*
X0059943Y0106121D01*
X0059943Y0107088D02*
X0060911Y0107572D01*
X0061395Y0107572D01*
X0061878Y0108539D02*
X0059943Y0108539D01*
X0059943Y0107088D01*
X0058932Y0106121D02*
X0058448Y0105637D01*
X0057481Y0105637D01*
X0056997Y0106121D01*
X0056997Y0108056D01*
X0057481Y0108539D01*
X0058448Y0108539D01*
X0058932Y0108056D01*
X0055985Y0108056D02*
X0055985Y0107572D01*
X0055502Y0107088D01*
X0054050Y0107088D01*
X0054050Y0105637D02*
X0054050Y0108539D01*
X0055502Y0108539D01*
X0055985Y0108056D01*
X0055502Y0107088D02*
X0055985Y0106604D01*
X0055985Y0106121D01*
X0055502Y0105637D01*
X0054050Y0105637D01*
X0052905Y0101639D02*
X0050970Y0101639D01*
X0050970Y0098737D01*
X0049959Y0099221D02*
X0049959Y0100188D01*
X0049959Y0099221D02*
X0049475Y0098737D01*
X0048991Y0098737D01*
X0048507Y0099221D01*
X0048507Y0098253D01*
X0048024Y0097770D01*
X0048507Y0099221D02*
X0048507Y0100188D01*
X0047012Y0101156D02*
X0045077Y0099221D01*
X0045077Y0098737D01*
X0044088Y0098737D02*
X0043604Y0098737D01*
X0043604Y0099221D01*
X0044088Y0099221D01*
X0044088Y0098737D01*
X0042592Y0100188D02*
X0040657Y0100188D01*
X0042109Y0101639D01*
X0042109Y0098737D01*
X0045077Y0101639D02*
X0047012Y0101639D01*
X0047012Y0101156D01*
X0050970Y0100188D02*
X0051938Y0100188D01*
X0059814Y0094334D02*
X0062717Y0094334D01*
X0062717Y0095301D02*
X0062717Y0093366D01*
X0060782Y0093366D02*
X0059814Y0094334D01*
X0060298Y0099259D02*
X0062233Y0099259D01*
X0061749Y0102206D02*
X0062717Y0103657D01*
X0062717Y0104661D02*
X0062717Y0105145D01*
X0061749Y0105145D01*
X0061265Y0104661D01*
X0065836Y0108539D02*
X0067771Y0108539D01*
X0067365Y0108630D02*
X0066882Y0108630D01*
X0066882Y0109114D01*
X0067365Y0109114D01*
X0067365Y0108630D01*
X0067849Y0110103D02*
X0067849Y0111555D01*
X0067365Y0112038D01*
X0066398Y0112038D01*
X0065914Y0111555D01*
X0065914Y0110103D01*
X0068817Y0110103D01*
X0067849Y0111071D02*
X0068817Y0112038D01*
X0068817Y0113050D02*
X0068817Y0114985D01*
X0068817Y0114017D02*
X0065914Y0114017D01*
X0066882Y0113050D01*
X0062717Y0113750D02*
X0062233Y0113750D01*
X0062233Y0114234D01*
X0062717Y0114234D01*
X0062717Y0113750D01*
X0061265Y0113750D02*
X0060782Y0113750D01*
X0060782Y0114234D01*
X0061265Y0114234D01*
X0061265Y0113750D01*
X0059814Y0115224D02*
X0059814Y0117159D01*
X0059814Y0116191D02*
X0062717Y0116191D01*
X0062717Y0118170D02*
X0062717Y0120105D01*
X0062717Y0119138D02*
X0059814Y0119138D01*
X0060782Y0118170D01*
X0051035Y0111306D02*
X0051035Y0110822D01*
X0049100Y0108887D01*
X0051035Y0108887D01*
X0051035Y0111306D02*
X0050551Y0111789D01*
X0049584Y0111789D01*
X0049100Y0111306D01*
X0048088Y0111789D02*
X0046153Y0111789D01*
X0047121Y0111789D02*
X0047121Y0108887D01*
X0045164Y0108887D02*
X0044680Y0108887D01*
X0044680Y0109371D01*
X0045164Y0109371D01*
X0045164Y0108887D01*
X0045164Y0110338D02*
X0044680Y0110338D01*
X0044680Y0110822D01*
X0045164Y0110822D01*
X0045164Y0110338D01*
X0043668Y0108887D02*
X0041734Y0108887D01*
X0042701Y0108887D02*
X0042701Y0111789D01*
X0041734Y0110822D01*
X0040722Y0110822D02*
X0040722Y0108887D01*
X0039467Y0109497D02*
X0039467Y0110465D01*
X0038983Y0110949D01*
X0038015Y0110949D01*
X0037532Y0110465D01*
X0037532Y0109981D01*
X0038015Y0109014D01*
X0036564Y0109014D01*
X0036564Y0110949D01*
X0036564Y0111960D02*
X0038015Y0111960D01*
X0037532Y0112928D01*
X0037532Y0113412D01*
X0038015Y0113895D01*
X0038983Y0113895D01*
X0039467Y0113412D01*
X0039467Y0112444D01*
X0038983Y0111960D01*
X0039754Y0111789D02*
X0040722Y0110822D01*
X0040722Y0110338D02*
X0038787Y0110338D01*
X0038787Y0110822D02*
X0039754Y0111789D01*
X0038787Y0110822D02*
X0038787Y0108887D01*
X0038983Y0109014D02*
X0039467Y0109497D01*
X0038983Y0108002D02*
X0039467Y0107518D01*
X0039467Y0106551D01*
X0038983Y0106067D01*
X0037048Y0106067D01*
X0036564Y0106551D01*
X0036564Y0107518D01*
X0037048Y0108002D01*
X0037048Y0105056D02*
X0037532Y0105056D01*
X0038015Y0104572D01*
X0038015Y0103121D01*
X0036564Y0103121D02*
X0036564Y0104572D01*
X0037048Y0105056D01*
X0038015Y0104572D02*
X0038499Y0105056D01*
X0038983Y0105056D01*
X0039467Y0104572D01*
X0039467Y0103121D01*
X0036564Y0103121D01*
X0036564Y0111960D02*
X0036564Y0113895D01*
X0036564Y0114907D02*
X0036564Y0116842D01*
X0037048Y0116842D01*
X0038983Y0114907D01*
X0039467Y0114907D01*
X0030317Y0114422D02*
X0030317Y0112487D01*
X0030317Y0113454D02*
X0027414Y0113454D01*
X0028382Y0112487D01*
X0027414Y0115434D02*
X0030317Y0117369D01*
X0027414Y0117369D01*
X0028865Y0118380D02*
X0028865Y0120315D01*
X0028382Y0121327D02*
X0027414Y0122294D01*
X0030317Y0122294D01*
X0030317Y0121327D02*
X0030317Y0123262D01*
X0028865Y0124273D02*
X0028865Y0126208D01*
X0028382Y0127220D02*
X0027898Y0127220D01*
X0027414Y0127703D01*
X0027414Y0128671D01*
X0027898Y0129155D01*
X0028382Y0129155D01*
X0028865Y0128671D01*
X0028865Y0127703D01*
X0028382Y0127220D01*
X0028865Y0127703D02*
X0029349Y0127220D01*
X0029833Y0127220D01*
X0030317Y0127703D01*
X0030317Y0128671D01*
X0029833Y0129155D01*
X0029349Y0129155D01*
X0028865Y0128671D01*
X0027414Y0125724D02*
X0028865Y0124273D01*
X0030317Y0125724D02*
X0027414Y0125724D01*
X0027414Y0119831D02*
X0028865Y0118380D01*
X0030317Y0119831D02*
X0027414Y0119831D01*
X0027414Y0115434D02*
X0030317Y0115434D01*
X0021517Y0111837D02*
X0021517Y0110337D01*
X0021517Y0108837D01*
X0021517Y0110337D02*
X0018767Y0108837D01*
X0018767Y0111837D01*
X0021517Y0110337D01*
X0021017Y0101837D02*
X0021017Y0100337D01*
X0021017Y0098837D01*
X0021265Y0099138D02*
X0021265Y0099621D01*
X0021749Y0100105D01*
X0022233Y0100105D01*
X0022717Y0099621D01*
X0022717Y0098654D01*
X0022233Y0098170D01*
X0023767Y0098837D02*
X0021017Y0100337D01*
X0023767Y0101837D01*
X0023767Y0098837D01*
X0021265Y0099621D02*
X0020782Y0100105D01*
X0020298Y0100105D01*
X0019814Y0099621D01*
X0019814Y0098654D01*
X0020298Y0098170D01*
X0019814Y0097159D02*
X0019814Y0095224D01*
X0019814Y0096191D02*
X0022717Y0096191D01*
X0022717Y0094234D02*
X0022717Y0093750D01*
X0022233Y0093750D01*
X0022233Y0094234D01*
X0022717Y0094234D01*
X0021265Y0094234D02*
X0021265Y0093750D01*
X0020782Y0093750D01*
X0020782Y0094234D01*
X0021265Y0094234D01*
X0022717Y0092739D02*
X0022717Y0090804D01*
X0022619Y0090906D02*
X0022135Y0091389D01*
X0021168Y0091389D01*
X0020684Y0090906D01*
X0020782Y0090804D02*
X0019814Y0091771D01*
X0022717Y0091771D01*
X0022619Y0090906D02*
X0022619Y0090422D01*
X0020684Y0088487D01*
X0022619Y0088487D01*
X0022717Y0087857D02*
X0020782Y0087857D01*
X0019814Y0088825D01*
X0020782Y0089792D01*
X0022717Y0089792D01*
X0023631Y0090906D02*
X0024114Y0091389D01*
X0025082Y0091389D01*
X0025566Y0090906D01*
X0025566Y0090422D01*
X0023631Y0088487D01*
X0025566Y0088487D01*
X0025836Y0088539D02*
X0027771Y0088539D01*
X0027771Y0088056D01*
X0025836Y0086121D01*
X0025836Y0085637D01*
X0024341Y0085637D02*
X0024341Y0088539D01*
X0022890Y0087088D01*
X0024825Y0087088D01*
X0026577Y0088971D02*
X0027061Y0088487D01*
X0028028Y0088487D01*
X0028512Y0088971D01*
X0028512Y0090906D01*
X0026577Y0088971D01*
X0026577Y0090906D01*
X0027061Y0091389D01*
X0028028Y0091389D01*
X0028512Y0090906D01*
X0030007Y0089938D02*
X0030007Y0088971D01*
X0030007Y0088003D01*
X0029524Y0087520D01*
X0030491Y0088487D02*
X0030975Y0088487D01*
X0031459Y0088971D01*
X0031459Y0089938D01*
X0032470Y0089938D02*
X0033438Y0089938D01*
X0034405Y0091389D02*
X0032470Y0091389D01*
X0032470Y0088487D01*
X0030491Y0088487D02*
X0030007Y0088971D01*
X0021878Y0088539D02*
X0019943Y0088539D01*
X0019943Y0087088D01*
X0020911Y0087572D01*
X0021395Y0087572D01*
X0021878Y0087088D01*
X0021878Y0086121D01*
X0021395Y0085637D01*
X0020427Y0085637D01*
X0019943Y0086121D01*
X0018932Y0086121D02*
X0018448Y0085637D01*
X0017481Y0085637D01*
X0016997Y0086121D01*
X0016997Y0088056D01*
X0017481Y0088539D01*
X0018448Y0088539D01*
X0018932Y0088056D01*
X0021265Y0087857D02*
X0021265Y0089792D01*
X0015985Y0088056D02*
X0015985Y0087572D01*
X0015502Y0087088D01*
X0014050Y0087088D01*
X0013665Y0086701D02*
X0013665Y0088636D01*
X0014050Y0088539D02*
X0015502Y0088539D01*
X0015985Y0088056D01*
X0015117Y0088152D02*
X0012214Y0088152D01*
X0013665Y0086701D01*
X0014050Y0085637D02*
X0015502Y0085637D01*
X0015985Y0086121D01*
X0015985Y0086604D01*
X0015502Y0087088D01*
X0015117Y0085689D02*
X0012214Y0085689D01*
X0014050Y0085637D02*
X0014050Y0088539D01*
X0013182Y0089647D02*
X0012214Y0090615D01*
X0015117Y0090615D01*
X0015117Y0091582D02*
X0015117Y0089647D01*
X0013665Y0092594D02*
X0013665Y0094529D01*
X0013182Y0095540D02*
X0012698Y0095540D01*
X0012214Y0096024D01*
X0012214Y0096992D01*
X0012698Y0097475D01*
X0013182Y0097475D01*
X0013665Y0096992D01*
X0013665Y0096024D01*
X0013182Y0095540D01*
X0013665Y0096024D02*
X0014149Y0095540D01*
X0014633Y0095540D01*
X0015117Y0096024D01*
X0015117Y0096992D01*
X0014633Y0097475D01*
X0014149Y0097475D01*
X0013665Y0096992D01*
X0012214Y0094045D02*
X0013665Y0092594D01*
X0015117Y0094045D02*
X0012214Y0094045D01*
X0015117Y0085689D02*
X0012214Y0083754D01*
X0015117Y0083754D01*
X0015117Y0082743D02*
X0015117Y0080808D01*
X0015117Y0081775D02*
X0012214Y0081775D01*
X0013182Y0080808D01*
X0013274Y0077889D02*
X0014725Y0077889D01*
X0015209Y0077406D01*
X0015209Y0076438D01*
X0014725Y0075954D01*
X0013274Y0075954D01*
X0013274Y0074987D02*
X0013274Y0077889D01*
X0012284Y0076922D02*
X0012284Y0076438D01*
X0011800Y0076438D01*
X0011800Y0076922D01*
X0012284Y0076922D01*
X0012284Y0075471D02*
X0012284Y0074987D01*
X0011800Y0074987D01*
X0011800Y0075471D01*
X0012284Y0075471D01*
X0010789Y0074987D02*
X0008854Y0074987D01*
X0009821Y0074987D02*
X0009821Y0077889D01*
X0008854Y0076922D01*
X0007842Y0076922D02*
X0007842Y0074987D01*
X0007842Y0076438D02*
X0005907Y0076438D01*
X0005907Y0076922D02*
X0005907Y0074987D01*
X0005907Y0076922D02*
X0006875Y0077889D01*
X0007842Y0076922D01*
X0014241Y0075954D02*
X0015209Y0074987D01*
X0016220Y0074987D02*
X0018155Y0076922D01*
X0018155Y0077406D01*
X0017671Y0077889D01*
X0016704Y0077889D01*
X0016220Y0077406D01*
X0016220Y0074987D02*
X0018155Y0074987D01*
X0018448Y0071789D02*
X0017481Y0071789D01*
X0016997Y0071306D01*
X0017964Y0070338D02*
X0018448Y0070338D01*
X0018932Y0069854D01*
X0018932Y0069371D01*
X0018448Y0068887D01*
X0017481Y0068887D01*
X0016997Y0069371D01*
X0018448Y0070338D02*
X0018932Y0070822D01*
X0018932Y0071306D01*
X0018448Y0071789D01*
X0019943Y0071306D02*
X0020427Y0071789D01*
X0021395Y0071789D01*
X0021878Y0071306D01*
X0021878Y0070822D01*
X0021395Y0070338D01*
X0021878Y0069854D01*
X0021878Y0069371D01*
X0021395Y0068887D01*
X0020427Y0068887D01*
X0019943Y0069371D01*
X0020911Y0070338D02*
X0021395Y0070338D01*
X0023157Y0070222D02*
X0024125Y0071189D01*
X0025092Y0070222D01*
X0025092Y0068287D01*
X0024341Y0068887D02*
X0023374Y0068887D01*
X0022890Y0069371D01*
X0024825Y0071306D01*
X0024825Y0069371D01*
X0024341Y0068887D01*
X0025092Y0069738D02*
X0023157Y0069738D01*
X0022890Y0069371D02*
X0022890Y0071306D01*
X0023374Y0071789D01*
X0024341Y0071789D01*
X0024825Y0071306D01*
X0026104Y0070222D02*
X0027071Y0071189D01*
X0027071Y0068287D01*
X0026104Y0068287D02*
X0028039Y0068287D01*
X0029050Y0068287D02*
X0029050Y0068771D01*
X0029534Y0068771D01*
X0029534Y0068287D01*
X0029050Y0068287D01*
X0029050Y0069738D02*
X0029050Y0070222D01*
X0029534Y0070222D01*
X0029534Y0069738D01*
X0029050Y0069738D01*
X0030524Y0068771D02*
X0030524Y0070706D01*
X0031007Y0071189D01*
X0031975Y0071189D01*
X0032459Y0070706D01*
X0033470Y0069738D02*
X0035405Y0069738D01*
X0034921Y0068287D02*
X0034921Y0071189D01*
X0033470Y0069738D01*
X0032459Y0068771D02*
X0031975Y0068287D01*
X0031007Y0068287D01*
X0030524Y0068771D01*
X0023157Y0068287D02*
X0023157Y0070222D01*
X0019664Y0060235D02*
X0019664Y0058300D01*
X0022567Y0058300D01*
X0022083Y0057288D02*
X0021115Y0057288D01*
X0022083Y0057288D02*
X0022567Y0056805D01*
X0022567Y0056321D01*
X0022083Y0055837D01*
X0023050Y0055837D01*
X0023534Y0055353D01*
X0022083Y0055837D02*
X0021115Y0055837D01*
X0020148Y0054342D02*
X0022083Y0052407D01*
X0022567Y0052407D01*
X0022567Y0051417D02*
X0022567Y0050934D01*
X0022083Y0050934D01*
X0022083Y0051417D01*
X0022567Y0051417D01*
X0022567Y0049438D02*
X0019664Y0049438D01*
X0021115Y0047987D01*
X0021115Y0049922D01*
X0024024Y0048906D02*
X0024024Y0046971D01*
X0024507Y0046487D01*
X0025475Y0046487D01*
X0025959Y0046971D01*
X0026970Y0046487D02*
X0028905Y0046487D01*
X0027938Y0046487D02*
X0027938Y0049389D01*
X0026970Y0048422D01*
X0025959Y0048906D02*
X0025475Y0049389D01*
X0024507Y0049389D01*
X0024024Y0048906D01*
X0019664Y0052407D02*
X0019664Y0054342D01*
X0020148Y0054342D01*
X0021115Y0058300D02*
X0021115Y0059267D01*
X0043417Y0058987D02*
X0043417Y0061889D01*
X0044868Y0061889D01*
X0045352Y0061406D01*
X0045352Y0060438D01*
X0044868Y0059954D01*
X0043417Y0059954D01*
X0044384Y0059954D02*
X0045352Y0058987D01*
X0046363Y0058987D02*
X0048298Y0058987D01*
X0047331Y0058987D02*
X0047331Y0061889D01*
X0046363Y0060922D01*
X0062917Y0081287D02*
X0062917Y0083222D01*
X0063884Y0084189D01*
X0064852Y0083222D01*
X0064852Y0081287D01*
X0065863Y0081287D02*
X0067798Y0081287D01*
X0066831Y0081287D02*
X0066831Y0084189D01*
X0065863Y0083222D01*
X0064852Y0082738D02*
X0062917Y0082738D01*
X0068810Y0082738D02*
X0068810Y0083222D01*
X0069293Y0083222D01*
X0069293Y0082738D01*
X0068810Y0082738D01*
X0068810Y0081771D02*
X0068810Y0081287D01*
X0069293Y0081287D01*
X0069293Y0081771D01*
X0068810Y0081771D01*
X0070283Y0081771D02*
X0070767Y0081287D01*
X0071734Y0081287D01*
X0072218Y0081771D01*
X0073229Y0081287D02*
X0075164Y0083222D01*
X0075164Y0083706D01*
X0074681Y0084189D01*
X0073713Y0084189D01*
X0073229Y0083706D01*
X0072218Y0083706D02*
X0071734Y0084189D01*
X0070767Y0084189D01*
X0070283Y0083706D01*
X0070283Y0081771D01*
X0073229Y0081287D02*
X0075164Y0081287D01*
X0092470Y0088487D02*
X0092470Y0091389D01*
X0091749Y0102206D02*
X0090782Y0103657D01*
X0090782Y0104739D02*
X0092717Y0102804D01*
X0092717Y0104739D01*
X0092717Y0104661D02*
X0092717Y0105145D01*
X0092717Y0103657D02*
X0091749Y0102206D01*
X0122214Y0104045D02*
X0123665Y0102594D01*
X0125117Y0104045D02*
X0122214Y0104045D01*
X0128767Y0101837D02*
X0128767Y0098837D01*
X0131517Y0100337D01*
X0131517Y0101837D01*
X0131517Y0100337D02*
X0131517Y0098837D01*
X0131517Y0100337D02*
X0128767Y0101837D01*
X0131017Y0108837D02*
X0131017Y0110337D01*
X0131017Y0111837D01*
X0131017Y0110337D02*
X0133767Y0111837D01*
X0133767Y0108837D01*
X0131017Y0110337D01*
X0137414Y0109831D02*
X0138865Y0108380D01*
X0138865Y0110315D01*
X0138382Y0111327D02*
X0137414Y0112294D01*
X0140317Y0112294D01*
X0140317Y0111327D02*
X0140317Y0113262D01*
X0138865Y0114273D02*
X0138865Y0116208D01*
X0138382Y0117220D02*
X0137898Y0117220D01*
X0137414Y0117703D01*
X0137414Y0118671D01*
X0137898Y0119155D01*
X0138382Y0119155D01*
X0138865Y0118671D01*
X0138865Y0117703D01*
X0138382Y0117220D01*
X0138865Y0117703D02*
X0139349Y0117220D01*
X0139833Y0117220D01*
X0140317Y0117703D01*
X0140317Y0118671D01*
X0139833Y0119155D01*
X0139349Y0119155D01*
X0138865Y0118671D01*
X0137414Y0115724D02*
X0138865Y0114273D01*
X0140317Y0115724D02*
X0137414Y0115724D01*
X0137414Y0109831D02*
X0140317Y0109831D01*
X0140317Y0107369D02*
X0137414Y0107369D01*
X0137414Y0105434D02*
X0140317Y0107369D01*
X0140317Y0105434D02*
X0137414Y0105434D01*
X0137414Y0103454D02*
X0140317Y0103454D01*
X0140317Y0102487D02*
X0140317Y0104422D01*
X0138382Y0102487D02*
X0137414Y0103454D01*
X0134341Y0071789D02*
X0134825Y0071306D01*
X0132890Y0069371D01*
X0133374Y0068887D01*
X0134341Y0068887D01*
X0134825Y0069371D01*
X0134825Y0071306D01*
X0134341Y0071789D02*
X0133374Y0071789D01*
X0132890Y0071306D01*
X0132890Y0069371D01*
X0131878Y0069371D02*
X0131395Y0068887D01*
X0130427Y0068887D01*
X0129943Y0069371D01*
X0131878Y0071306D01*
X0131878Y0069371D01*
X0129943Y0069371D02*
X0129943Y0071306D01*
X0130427Y0071789D01*
X0131395Y0071789D01*
X0131878Y0071306D01*
X0128932Y0068887D02*
X0126997Y0068887D01*
X0127964Y0068887D02*
X0127964Y0071789D01*
X0126997Y0070822D01*
X0124825Y0071306D02*
X0124825Y0069371D01*
X0124341Y0068887D01*
X0123374Y0068887D01*
X0122890Y0069371D01*
X0124825Y0071306D01*
X0124341Y0071789D01*
X0123374Y0071789D01*
X0122890Y0071306D01*
X0122890Y0069371D01*
X0121878Y0069371D02*
X0121395Y0068887D01*
X0120427Y0068887D01*
X0119943Y0069371D01*
X0118932Y0069371D02*
X0118448Y0068887D01*
X0117481Y0068887D01*
X0116997Y0069371D01*
X0117964Y0070338D02*
X0118448Y0070338D01*
X0118932Y0069854D01*
X0118932Y0069371D01*
X0118448Y0070338D02*
X0118932Y0070822D01*
X0118932Y0071306D01*
X0118448Y0071789D01*
X0117481Y0071789D01*
X0116997Y0071306D01*
X0119943Y0071306D02*
X0120427Y0071789D01*
X0121395Y0071789D01*
X0121878Y0071306D01*
X0121878Y0070822D01*
X0121395Y0070338D01*
X0121878Y0069854D01*
X0121878Y0069371D01*
X0121395Y0070338D02*
X0120911Y0070338D01*
X0129914Y0037475D02*
X0129914Y0035540D01*
X0132817Y0035540D01*
X0132333Y0034529D02*
X0131365Y0034529D01*
X0132333Y0034529D02*
X0132817Y0034045D01*
X0132817Y0033561D01*
X0132333Y0033078D01*
X0133300Y0033078D01*
X0133784Y0032594D01*
X0132333Y0033078D02*
X0131365Y0033078D01*
X0131365Y0035540D02*
X0131365Y0036508D01*
X0130398Y0031582D02*
X0132333Y0029647D01*
X0132817Y0030131D01*
X0132817Y0031099D01*
X0132333Y0031582D01*
X0130398Y0031582D01*
X0129914Y0031099D01*
X0129914Y0030131D01*
X0130398Y0029647D01*
X0132333Y0029647D01*
X0132333Y0028636D02*
X0130398Y0028636D01*
X0132333Y0026701D01*
X0132817Y0027185D01*
X0132817Y0028152D01*
X0132333Y0028636D01*
X0132333Y0026701D02*
X0130398Y0026701D01*
X0129914Y0027185D01*
X0129914Y0028152D01*
X0130398Y0028636D01*
X0130398Y0025689D02*
X0132333Y0023754D01*
X0132817Y0024238D01*
X0132817Y0025206D01*
X0132333Y0025689D01*
X0130398Y0025689D01*
X0129914Y0025206D01*
X0129914Y0024238D01*
X0130398Y0023754D01*
X0132333Y0023754D01*
X0132817Y0022743D02*
X0132817Y0020808D01*
X0132817Y0021775D02*
X0129914Y0021775D01*
X0130882Y0020808D01*
X0131365Y0019796D02*
X0131365Y0017861D01*
X0130398Y0016850D02*
X0132333Y0014915D01*
X0132817Y0015399D01*
X0132817Y0016366D01*
X0132333Y0016850D01*
X0130398Y0016850D01*
X0129914Y0016366D01*
X0129914Y0015399D01*
X0130398Y0014915D01*
X0132333Y0014915D01*
X0132333Y0013903D02*
X0130398Y0013903D01*
X0132333Y0011968D01*
X0132817Y0012452D01*
X0132817Y0013420D01*
X0132333Y0013903D01*
X0132333Y0011968D02*
X0130398Y0011968D01*
X0129914Y0012452D01*
X0129914Y0013420D01*
X0130398Y0013903D01*
X0132817Y0010957D02*
X0132817Y0009022D01*
X0132817Y0009989D02*
X0129914Y0009989D01*
X0130882Y0009022D01*
X0148898Y0032594D02*
X0150833Y0032594D01*
X0151317Y0033078D01*
X0151317Y0034045D01*
X0150833Y0034529D01*
X0150833Y0035540D02*
X0151317Y0036024D01*
X0151317Y0036992D01*
X0150833Y0037475D01*
X0150349Y0037475D01*
X0149865Y0036992D01*
X0149865Y0036508D01*
X0149865Y0036992D02*
X0149382Y0037475D01*
X0148898Y0037475D01*
X0148414Y0036992D01*
X0148414Y0036024D01*
X0148898Y0035540D01*
X0148898Y0034529D02*
X0148414Y0034045D01*
X0148414Y0033078D01*
X0148898Y0032594D01*
X0005117Y0033578D02*
X0005117Y0034545D01*
X0004633Y0035029D01*
X0005117Y0036040D02*
X0003182Y0037975D01*
X0002698Y0037975D01*
X0002214Y0037492D01*
X0002214Y0036524D01*
X0002698Y0036040D01*
X0002698Y0035029D02*
X0002214Y0034545D01*
X0002214Y0033578D01*
X0002698Y0033094D01*
X0004633Y0033094D01*
X0005117Y0033578D01*
X0005117Y0036040D02*
X0005117Y0037975D01*
D12*
X0034767Y0040337D03*
X0057767Y0090337D03*
X0084767Y0090337D03*
D13*
X0101267Y0082337D03*
X0141267Y0048337D03*
X0041267Y0082337D03*
D14*
X0031067Y0082463D02*
X0028665Y0082463D01*
X0027464Y0083664D01*
X0028665Y0084865D01*
X0031067Y0084865D01*
X0031067Y0086146D02*
X0031067Y0088548D01*
X0031067Y0087347D02*
X0027464Y0087347D01*
X0028665Y0086146D01*
X0029265Y0084865D02*
X0029265Y0082463D01*
X0029265Y0089829D02*
X0028665Y0089829D01*
X0028665Y0090430D01*
X0029265Y0090430D01*
X0029265Y0089829D01*
X0030466Y0089829D02*
X0031067Y0089829D01*
X0031067Y0090430D01*
X0030466Y0090430D01*
X0030466Y0089829D01*
X0031067Y0091671D02*
X0031067Y0093472D01*
X0030466Y0094073D01*
X0028064Y0094073D01*
X0027464Y0093472D01*
X0027464Y0091671D01*
X0031067Y0091671D01*
X0031067Y0095354D02*
X0031067Y0097756D01*
X0031067Y0096555D02*
X0027464Y0096555D01*
X0028665Y0095354D01*
X0024267Y0097837D02*
X0018267Y0097837D01*
X0018180Y0097839D01*
X0018093Y0097845D01*
X0018006Y0097854D01*
X0017920Y0097867D01*
X0017834Y0097884D01*
X0017749Y0097905D01*
X0017666Y0097930D01*
X0017583Y0097958D01*
X0017502Y0097989D01*
X0017422Y0098024D01*
X0017344Y0098063D01*
X0017267Y0098105D01*
X0017192Y0098150D01*
X0017120Y0098199D01*
X0017049Y0098250D01*
X0016981Y0098305D01*
X0016916Y0098362D01*
X0016853Y0098423D01*
X0016792Y0098486D01*
X0016735Y0098551D01*
X0016680Y0098619D01*
X0016629Y0098690D01*
X0016580Y0098762D01*
X0016535Y0098837D01*
X0016493Y0098914D01*
X0016454Y0098992D01*
X0016419Y0099072D01*
X0016388Y0099153D01*
X0016360Y0099236D01*
X0016335Y0099319D01*
X0016314Y0099404D01*
X0016297Y0099490D01*
X0016284Y0099576D01*
X0016275Y0099663D01*
X0016269Y0099750D01*
X0016267Y0099837D01*
X0016267Y0100837D01*
X0016269Y0100924D01*
X0016275Y0101011D01*
X0016284Y0101098D01*
X0016297Y0101184D01*
X0016314Y0101270D01*
X0016335Y0101355D01*
X0016360Y0101438D01*
X0016388Y0101521D01*
X0016419Y0101602D01*
X0016454Y0101682D01*
X0016493Y0101760D01*
X0016535Y0101837D01*
X0016580Y0101912D01*
X0016629Y0101984D01*
X0016680Y0102055D01*
X0016735Y0102123D01*
X0016792Y0102188D01*
X0016853Y0102251D01*
X0016916Y0102312D01*
X0016981Y0102369D01*
X0017049Y0102424D01*
X0017120Y0102475D01*
X0017192Y0102524D01*
X0017267Y0102569D01*
X0017344Y0102611D01*
X0017422Y0102650D01*
X0017502Y0102685D01*
X0017583Y0102716D01*
X0017666Y0102744D01*
X0017749Y0102769D01*
X0017834Y0102790D01*
X0017920Y0102807D01*
X0018006Y0102820D01*
X0018093Y0102829D01*
X0018180Y0102835D01*
X0018267Y0102837D01*
X0024267Y0102837D01*
X0024354Y0102835D01*
X0024441Y0102829D01*
X0024528Y0102820D01*
X0024614Y0102807D01*
X0024700Y0102790D01*
X0024785Y0102769D01*
X0024868Y0102744D01*
X0024951Y0102716D01*
X0025032Y0102685D01*
X0025112Y0102650D01*
X0025190Y0102611D01*
X0025267Y0102569D01*
X0025342Y0102524D01*
X0025414Y0102475D01*
X0025485Y0102424D01*
X0025553Y0102369D01*
X0025618Y0102312D01*
X0025681Y0102251D01*
X0025742Y0102188D01*
X0025799Y0102123D01*
X0025854Y0102055D01*
X0025905Y0101984D01*
X0025954Y0101912D01*
X0025999Y0101837D01*
X0026041Y0101760D01*
X0026080Y0101682D01*
X0026115Y0101602D01*
X0026146Y0101521D01*
X0026174Y0101438D01*
X0026199Y0101355D01*
X0026220Y0101270D01*
X0026237Y0101184D01*
X0026250Y0101098D01*
X0026259Y0101011D01*
X0026265Y0100924D01*
X0026267Y0100837D01*
X0026267Y0099837D01*
X0026265Y0099750D01*
X0026259Y0099663D01*
X0026250Y0099576D01*
X0026237Y0099490D01*
X0026220Y0099404D01*
X0026199Y0099319D01*
X0026174Y0099236D01*
X0026146Y0099153D01*
X0026115Y0099072D01*
X0026080Y0098992D01*
X0026041Y0098914D01*
X0025999Y0098837D01*
X0025954Y0098762D01*
X0025905Y0098690D01*
X0025854Y0098619D01*
X0025799Y0098551D01*
X0025742Y0098486D01*
X0025681Y0098423D01*
X0025618Y0098362D01*
X0025553Y0098305D01*
X0025485Y0098250D01*
X0025414Y0098199D01*
X0025342Y0098150D01*
X0025267Y0098105D01*
X0025190Y0098063D01*
X0025112Y0098024D01*
X0025032Y0097989D01*
X0024951Y0097958D01*
X0024868Y0097930D01*
X0024785Y0097905D01*
X0024700Y0097884D01*
X0024614Y0097867D01*
X0024528Y0097854D01*
X0024441Y0097845D01*
X0024354Y0097839D01*
X0024267Y0097837D01*
X0024267Y0107837D02*
X0018267Y0107837D01*
X0018180Y0107839D01*
X0018093Y0107845D01*
X0018006Y0107854D01*
X0017920Y0107867D01*
X0017834Y0107884D01*
X0017749Y0107905D01*
X0017666Y0107930D01*
X0017583Y0107958D01*
X0017502Y0107989D01*
X0017422Y0108024D01*
X0017344Y0108063D01*
X0017267Y0108105D01*
X0017192Y0108150D01*
X0017120Y0108199D01*
X0017049Y0108250D01*
X0016981Y0108305D01*
X0016916Y0108362D01*
X0016853Y0108423D01*
X0016792Y0108486D01*
X0016735Y0108551D01*
X0016680Y0108619D01*
X0016629Y0108690D01*
X0016580Y0108762D01*
X0016535Y0108837D01*
X0016493Y0108914D01*
X0016454Y0108992D01*
X0016419Y0109072D01*
X0016388Y0109153D01*
X0016360Y0109236D01*
X0016335Y0109319D01*
X0016314Y0109404D01*
X0016297Y0109490D01*
X0016284Y0109576D01*
X0016275Y0109663D01*
X0016269Y0109750D01*
X0016267Y0109837D01*
X0016267Y0110837D01*
X0015067Y0112037D02*
X0012665Y0112037D01*
X0011464Y0113238D01*
X0012665Y0114439D01*
X0015067Y0114439D01*
X0015067Y0115720D02*
X0015067Y0118122D01*
X0015067Y0116921D02*
X0011464Y0116921D01*
X0012665Y0115720D01*
X0013265Y0114439D02*
X0013265Y0112037D01*
X0018267Y0112837D02*
X0024267Y0112837D01*
X0024354Y0112835D01*
X0024441Y0112829D01*
X0024528Y0112820D01*
X0024614Y0112807D01*
X0024700Y0112790D01*
X0024785Y0112769D01*
X0024868Y0112744D01*
X0024951Y0112716D01*
X0025032Y0112685D01*
X0025112Y0112650D01*
X0025190Y0112611D01*
X0025267Y0112569D01*
X0025342Y0112524D01*
X0025414Y0112475D01*
X0025485Y0112424D01*
X0025553Y0112369D01*
X0025618Y0112312D01*
X0025681Y0112251D01*
X0025742Y0112188D01*
X0025799Y0112123D01*
X0025854Y0112055D01*
X0025905Y0111984D01*
X0025954Y0111912D01*
X0025999Y0111837D01*
X0026041Y0111760D01*
X0026080Y0111682D01*
X0026115Y0111602D01*
X0026146Y0111521D01*
X0026174Y0111438D01*
X0026199Y0111355D01*
X0026220Y0111270D01*
X0026237Y0111184D01*
X0026250Y0111098D01*
X0026259Y0111011D01*
X0026265Y0110924D01*
X0026267Y0110837D01*
X0026267Y0109837D01*
X0026265Y0109750D01*
X0026259Y0109663D01*
X0026250Y0109576D01*
X0026237Y0109490D01*
X0026220Y0109404D01*
X0026199Y0109319D01*
X0026174Y0109236D01*
X0026146Y0109153D01*
X0026115Y0109072D01*
X0026080Y0108992D01*
X0026041Y0108914D01*
X0025999Y0108837D01*
X0025954Y0108762D01*
X0025905Y0108690D01*
X0025854Y0108619D01*
X0025799Y0108551D01*
X0025742Y0108486D01*
X0025681Y0108423D01*
X0025618Y0108362D01*
X0025553Y0108305D01*
X0025485Y0108250D01*
X0025414Y0108199D01*
X0025342Y0108150D01*
X0025267Y0108105D01*
X0025190Y0108063D01*
X0025112Y0108024D01*
X0025032Y0107989D01*
X0024951Y0107958D01*
X0024868Y0107930D01*
X0024785Y0107905D01*
X0024700Y0107884D01*
X0024614Y0107867D01*
X0024528Y0107854D01*
X0024441Y0107845D01*
X0024354Y0107839D01*
X0024267Y0107837D01*
X0018267Y0112837D02*
X0018180Y0112835D01*
X0018093Y0112829D01*
X0018006Y0112820D01*
X0017920Y0112807D01*
X0017834Y0112790D01*
X0017749Y0112769D01*
X0017666Y0112744D01*
X0017583Y0112716D01*
X0017502Y0112685D01*
X0017422Y0112650D01*
X0017344Y0112611D01*
X0017267Y0112569D01*
X0017192Y0112524D01*
X0017120Y0112475D01*
X0017049Y0112424D01*
X0016981Y0112369D01*
X0016916Y0112312D01*
X0016853Y0112251D01*
X0016792Y0112188D01*
X0016735Y0112123D01*
X0016680Y0112055D01*
X0016629Y0111984D01*
X0016580Y0111912D01*
X0016535Y0111837D01*
X0016493Y0111760D01*
X0016454Y0111682D01*
X0016419Y0111602D01*
X0016388Y0111521D01*
X0016360Y0111438D01*
X0016335Y0111355D01*
X0016314Y0111270D01*
X0016297Y0111184D01*
X0016284Y0111098D01*
X0016275Y0111011D01*
X0016269Y0110924D01*
X0016267Y0110837D01*
X0015067Y0119403D02*
X0014466Y0119403D01*
X0014466Y0120004D01*
X0015067Y0120004D01*
X0015067Y0119403D01*
X0013265Y0119403D02*
X0012665Y0119403D01*
X0012665Y0120004D01*
X0013265Y0120004D01*
X0013265Y0119403D01*
X0011464Y0121245D02*
X0011464Y0123046D01*
X0012064Y0123647D01*
X0014466Y0123647D01*
X0015067Y0123046D01*
X0015067Y0121245D01*
X0011464Y0121245D01*
X0012064Y0124928D02*
X0011464Y0125529D01*
X0011464Y0126730D01*
X0012064Y0127330D01*
X0012665Y0127330D01*
X0015067Y0124928D01*
X0015067Y0127330D01*
X0121464Y0116129D02*
X0125067Y0116129D01*
X0125067Y0114928D02*
X0125067Y0117330D01*
X0122665Y0114928D02*
X0121464Y0116129D01*
X0122064Y0113647D02*
X0121464Y0113046D01*
X0121464Y0111245D01*
X0125067Y0111245D01*
X0125067Y0113046D01*
X0124466Y0113647D01*
X0122064Y0113647D01*
X0122665Y0110004D02*
X0123265Y0110004D01*
X0123265Y0109403D01*
X0122665Y0109403D01*
X0122665Y0110004D01*
X0124466Y0110004D02*
X0124466Y0109403D01*
X0125067Y0109403D01*
X0125067Y0110004D01*
X0124466Y0110004D01*
X0126267Y0109837D02*
X0126267Y0110837D01*
X0126269Y0110924D01*
X0126275Y0111011D01*
X0126284Y0111098D01*
X0126297Y0111184D01*
X0126314Y0111270D01*
X0126335Y0111355D01*
X0126360Y0111438D01*
X0126388Y0111521D01*
X0126419Y0111602D01*
X0126454Y0111682D01*
X0126493Y0111760D01*
X0126535Y0111837D01*
X0126580Y0111912D01*
X0126629Y0111984D01*
X0126680Y0112055D01*
X0126735Y0112123D01*
X0126792Y0112188D01*
X0126853Y0112251D01*
X0126916Y0112312D01*
X0126981Y0112369D01*
X0127049Y0112424D01*
X0127120Y0112475D01*
X0127192Y0112524D01*
X0127267Y0112569D01*
X0127344Y0112611D01*
X0127422Y0112650D01*
X0127502Y0112685D01*
X0127583Y0112716D01*
X0127666Y0112744D01*
X0127749Y0112769D01*
X0127834Y0112790D01*
X0127920Y0112807D01*
X0128006Y0112820D01*
X0128093Y0112829D01*
X0128180Y0112835D01*
X0128267Y0112837D01*
X0134267Y0112837D01*
X0134354Y0112835D01*
X0134441Y0112829D01*
X0134528Y0112820D01*
X0134614Y0112807D01*
X0134700Y0112790D01*
X0134785Y0112769D01*
X0134868Y0112744D01*
X0134951Y0112716D01*
X0135032Y0112685D01*
X0135112Y0112650D01*
X0135190Y0112611D01*
X0135267Y0112569D01*
X0135342Y0112524D01*
X0135414Y0112475D01*
X0135485Y0112424D01*
X0135553Y0112369D01*
X0135618Y0112312D01*
X0135681Y0112251D01*
X0135742Y0112188D01*
X0135799Y0112123D01*
X0135854Y0112055D01*
X0135905Y0111984D01*
X0135954Y0111912D01*
X0135999Y0111837D01*
X0136041Y0111760D01*
X0136080Y0111682D01*
X0136115Y0111602D01*
X0136146Y0111521D01*
X0136174Y0111438D01*
X0136199Y0111355D01*
X0136220Y0111270D01*
X0136237Y0111184D01*
X0136250Y0111098D01*
X0136259Y0111011D01*
X0136265Y0110924D01*
X0136267Y0110837D01*
X0136267Y0109837D01*
X0136265Y0109750D01*
X0136259Y0109663D01*
X0136250Y0109576D01*
X0136237Y0109490D01*
X0136220Y0109404D01*
X0136199Y0109319D01*
X0136174Y0109236D01*
X0136146Y0109153D01*
X0136115Y0109072D01*
X0136080Y0108992D01*
X0136041Y0108914D01*
X0135999Y0108837D01*
X0135954Y0108762D01*
X0135905Y0108690D01*
X0135854Y0108619D01*
X0135799Y0108551D01*
X0135742Y0108486D01*
X0135681Y0108423D01*
X0135618Y0108362D01*
X0135553Y0108305D01*
X0135485Y0108250D01*
X0135414Y0108199D01*
X0135342Y0108150D01*
X0135267Y0108105D01*
X0135190Y0108063D01*
X0135112Y0108024D01*
X0135032Y0107989D01*
X0134951Y0107958D01*
X0134868Y0107930D01*
X0134785Y0107905D01*
X0134700Y0107884D01*
X0134614Y0107867D01*
X0134528Y0107854D01*
X0134441Y0107845D01*
X0134354Y0107839D01*
X0134267Y0107837D01*
X0128267Y0107837D01*
X0128180Y0107839D01*
X0128093Y0107845D01*
X0128006Y0107854D01*
X0127920Y0107867D01*
X0127834Y0107884D01*
X0127749Y0107905D01*
X0127666Y0107930D01*
X0127583Y0107958D01*
X0127502Y0107989D01*
X0127422Y0108024D01*
X0127344Y0108063D01*
X0127267Y0108105D01*
X0127192Y0108150D01*
X0127120Y0108199D01*
X0127049Y0108250D01*
X0126981Y0108305D01*
X0126916Y0108362D01*
X0126853Y0108423D01*
X0126792Y0108486D01*
X0126735Y0108551D01*
X0126680Y0108619D01*
X0126629Y0108690D01*
X0126580Y0108762D01*
X0126535Y0108837D01*
X0126493Y0108914D01*
X0126454Y0108992D01*
X0126419Y0109072D01*
X0126388Y0109153D01*
X0126360Y0109236D01*
X0126335Y0109319D01*
X0126314Y0109404D01*
X0126297Y0109490D01*
X0126284Y0109576D01*
X0126275Y0109663D01*
X0126269Y0109750D01*
X0126267Y0109837D01*
X0125067Y0108122D02*
X0125067Y0105720D01*
X0122665Y0108122D01*
X0122064Y0108122D01*
X0121464Y0107522D01*
X0121464Y0106321D01*
X0122064Y0105720D01*
X0122665Y0104439D02*
X0125067Y0104439D01*
X0123265Y0104439D02*
X0123265Y0102037D01*
X0122665Y0102037D02*
X0121464Y0103238D01*
X0122665Y0104439D01*
X0122665Y0102037D02*
X0125067Y0102037D01*
X0126267Y0100837D02*
X0126267Y0099837D01*
X0126269Y0099750D01*
X0126275Y0099663D01*
X0126284Y0099576D01*
X0126297Y0099490D01*
X0126314Y0099404D01*
X0126335Y0099319D01*
X0126360Y0099236D01*
X0126388Y0099153D01*
X0126419Y0099072D01*
X0126454Y0098992D01*
X0126493Y0098914D01*
X0126535Y0098837D01*
X0126580Y0098762D01*
X0126629Y0098690D01*
X0126680Y0098619D01*
X0126735Y0098551D01*
X0126792Y0098486D01*
X0126853Y0098423D01*
X0126916Y0098362D01*
X0126981Y0098305D01*
X0127049Y0098250D01*
X0127120Y0098199D01*
X0127192Y0098150D01*
X0127267Y0098105D01*
X0127344Y0098063D01*
X0127422Y0098024D01*
X0127502Y0097989D01*
X0127583Y0097958D01*
X0127666Y0097930D01*
X0127749Y0097905D01*
X0127834Y0097884D01*
X0127920Y0097867D01*
X0128006Y0097854D01*
X0128093Y0097845D01*
X0128180Y0097839D01*
X0128267Y0097837D01*
X0134267Y0097837D01*
X0134354Y0097839D01*
X0134441Y0097845D01*
X0134528Y0097854D01*
X0134614Y0097867D01*
X0134700Y0097884D01*
X0134785Y0097905D01*
X0134868Y0097930D01*
X0134951Y0097958D01*
X0135032Y0097989D01*
X0135112Y0098024D01*
X0135190Y0098063D01*
X0135267Y0098105D01*
X0135342Y0098150D01*
X0135414Y0098199D01*
X0135485Y0098250D01*
X0135553Y0098305D01*
X0135618Y0098362D01*
X0135681Y0098423D01*
X0135742Y0098486D01*
X0135799Y0098551D01*
X0135854Y0098619D01*
X0135905Y0098690D01*
X0135954Y0098762D01*
X0135999Y0098837D01*
X0136041Y0098914D01*
X0136080Y0098992D01*
X0136115Y0099072D01*
X0136146Y0099153D01*
X0136174Y0099236D01*
X0136199Y0099319D01*
X0136220Y0099404D01*
X0136237Y0099490D01*
X0136250Y0099576D01*
X0136259Y0099663D01*
X0136265Y0099750D01*
X0136267Y0099837D01*
X0136267Y0100837D01*
X0137464Y0101671D02*
X0137464Y0103472D01*
X0138064Y0104073D01*
X0140466Y0104073D01*
X0141067Y0103472D01*
X0141067Y0101671D01*
X0137464Y0101671D01*
X0138665Y0100430D02*
X0138665Y0099829D01*
X0139265Y0099829D01*
X0139265Y0100430D01*
X0138665Y0100430D01*
X0140466Y0100430D02*
X0140466Y0099829D01*
X0141067Y0099829D01*
X0141067Y0100430D01*
X0140466Y0100430D01*
X0141067Y0098548D02*
X0141067Y0096146D01*
X0138665Y0098548D01*
X0138064Y0098548D01*
X0137464Y0097948D01*
X0137464Y0096746D01*
X0138064Y0096146D01*
X0138665Y0094865D02*
X0141067Y0094865D01*
X0139265Y0094865D02*
X0139265Y0092463D01*
X0138665Y0092463D02*
X0137464Y0093664D01*
X0138665Y0094865D01*
X0138665Y0092463D02*
X0141067Y0092463D01*
X0136267Y0100837D02*
X0136265Y0100924D01*
X0136259Y0101011D01*
X0136250Y0101098D01*
X0136237Y0101184D01*
X0136220Y0101270D01*
X0136199Y0101355D01*
X0136174Y0101438D01*
X0136146Y0101521D01*
X0136115Y0101602D01*
X0136080Y0101682D01*
X0136041Y0101760D01*
X0135999Y0101837D01*
X0135954Y0101912D01*
X0135905Y0101984D01*
X0135854Y0102055D01*
X0135799Y0102123D01*
X0135742Y0102188D01*
X0135681Y0102251D01*
X0135618Y0102312D01*
X0135553Y0102369D01*
X0135485Y0102424D01*
X0135414Y0102475D01*
X0135342Y0102524D01*
X0135267Y0102569D01*
X0135190Y0102611D01*
X0135112Y0102650D01*
X0135032Y0102685D01*
X0134951Y0102716D01*
X0134868Y0102744D01*
X0134785Y0102769D01*
X0134700Y0102790D01*
X0134614Y0102807D01*
X0134528Y0102820D01*
X0134441Y0102829D01*
X0134354Y0102835D01*
X0134267Y0102837D01*
X0128267Y0102837D01*
X0128180Y0102835D01*
X0128093Y0102829D01*
X0128006Y0102820D01*
X0127920Y0102807D01*
X0127834Y0102790D01*
X0127749Y0102769D01*
X0127666Y0102744D01*
X0127583Y0102716D01*
X0127502Y0102685D01*
X0127422Y0102650D01*
X0127344Y0102611D01*
X0127267Y0102569D01*
X0127192Y0102524D01*
X0127120Y0102475D01*
X0127049Y0102424D01*
X0126981Y0102369D01*
X0126916Y0102312D01*
X0126853Y0102251D01*
X0126792Y0102188D01*
X0126735Y0102123D01*
X0126680Y0102055D01*
X0126629Y0101984D01*
X0126580Y0101912D01*
X0126535Y0101837D01*
X0126493Y0101760D01*
X0126454Y0101682D01*
X0126419Y0101602D01*
X0126388Y0101521D01*
X0126360Y0101438D01*
X0126335Y0101355D01*
X0126314Y0101270D01*
X0126297Y0101184D01*
X0126284Y0101098D01*
X0126275Y0101011D01*
X0126269Y0100924D01*
X0126267Y0100837D01*
X0137464Y0105954D02*
X0138064Y0105354D01*
X0137464Y0105954D02*
X0137464Y0107155D01*
X0138064Y0107756D01*
X0138665Y0107756D01*
X0141067Y0105354D01*
X0141067Y0107756D01*
D15*
X0134017Y0100337D03*
X0128517Y0110337D03*
X0024017Y0110337D03*
X0018517Y0100337D03*
D16*
X0014967Y0100337D03*
X0027567Y0100337D03*
X0027567Y0110337D03*
X0014967Y0110337D03*
X0124967Y0110337D03*
X0137567Y0110337D03*
X0137567Y0100337D03*
X0124967Y0100337D03*
D17*
X0129515Y0096837D02*
X0113019Y0096837D01*
X0111267Y0099849D02*
X0111267Y0120825D01*
X0104767Y0118585D02*
X0104767Y0102089D01*
X0096267Y0101837D02*
X0096267Y0098837D01*
X0096265Y0098777D01*
X0096260Y0098716D01*
X0096251Y0098657D01*
X0096238Y0098598D01*
X0096222Y0098539D01*
X0096202Y0098482D01*
X0096179Y0098427D01*
X0096152Y0098372D01*
X0096123Y0098320D01*
X0096090Y0098269D01*
X0096054Y0098220D01*
X0096016Y0098174D01*
X0095974Y0098130D01*
X0095930Y0098088D01*
X0095884Y0098050D01*
X0095835Y0098014D01*
X0095784Y0097981D01*
X0095732Y0097952D01*
X0095677Y0097925D01*
X0095622Y0097902D01*
X0095565Y0097882D01*
X0095506Y0097866D01*
X0095447Y0097853D01*
X0095388Y0097844D01*
X0095327Y0097839D01*
X0095267Y0097837D01*
X0087267Y0097837D01*
X0087207Y0097839D01*
X0087146Y0097844D01*
X0087087Y0097853D01*
X0087028Y0097866D01*
X0086969Y0097882D01*
X0086912Y0097902D01*
X0086857Y0097925D01*
X0086802Y0097952D01*
X0086750Y0097981D01*
X0086699Y0098014D01*
X0086650Y0098050D01*
X0086604Y0098088D01*
X0086560Y0098130D01*
X0086518Y0098174D01*
X0086480Y0098220D01*
X0086444Y0098269D01*
X0086411Y0098320D01*
X0086382Y0098372D01*
X0086355Y0098427D01*
X0086332Y0098482D01*
X0086312Y0098539D01*
X0086296Y0098598D01*
X0086283Y0098657D01*
X0086274Y0098716D01*
X0086269Y0098777D01*
X0086267Y0098837D01*
X0086267Y0101837D01*
X0086269Y0101897D01*
X0086274Y0101958D01*
X0086283Y0102017D01*
X0086296Y0102076D01*
X0086312Y0102135D01*
X0086332Y0102192D01*
X0086355Y0102247D01*
X0086382Y0102302D01*
X0086411Y0102354D01*
X0086444Y0102405D01*
X0086480Y0102454D01*
X0086518Y0102500D01*
X0086560Y0102544D01*
X0086604Y0102586D01*
X0086650Y0102624D01*
X0086699Y0102660D01*
X0086750Y0102693D01*
X0086802Y0102722D01*
X0086857Y0102749D01*
X0086912Y0102772D01*
X0086969Y0102792D01*
X0087028Y0102808D01*
X0087087Y0102821D01*
X0087146Y0102830D01*
X0087207Y0102835D01*
X0087267Y0102837D01*
X0095267Y0102837D01*
X0095327Y0102835D01*
X0095388Y0102830D01*
X0095447Y0102821D01*
X0095506Y0102808D01*
X0095565Y0102792D01*
X0095622Y0102772D01*
X0095677Y0102749D01*
X0095732Y0102722D01*
X0095784Y0102693D01*
X0095835Y0102660D01*
X0095884Y0102624D01*
X0095930Y0102586D01*
X0095974Y0102544D01*
X0096016Y0102500D01*
X0096054Y0102454D01*
X0096090Y0102405D01*
X0096123Y0102354D01*
X0096152Y0102302D01*
X0096179Y0102247D01*
X0096202Y0102192D01*
X0096222Y0102135D01*
X0096238Y0102076D01*
X0096251Y0102017D01*
X0096260Y0101958D01*
X0096265Y0101897D01*
X0096267Y0101837D01*
X0080779Y0110337D02*
X0080788Y0110625D01*
X0080805Y0110913D01*
X0080829Y0111200D01*
X0080860Y0111486D01*
X0080897Y0111772D01*
X0080942Y0112057D01*
X0080994Y0112340D01*
X0081053Y0112622D01*
X0081118Y0112903D01*
X0081191Y0113181D01*
X0081270Y0113458D01*
X0081356Y0113733D01*
X0081449Y0114006D01*
X0081548Y0114276D01*
X0081654Y0114544D01*
X0081767Y0114809D01*
X0083019Y0116837D02*
X0099515Y0116837D01*
X0101755Y0110337D02*
X0080778Y0110337D01*
X0071755Y0110337D02*
X0050778Y0110337D01*
X0053019Y0103837D02*
X0069515Y0103837D01*
X0066267Y0101837D02*
X0066267Y0098837D01*
X0066265Y0098777D01*
X0066260Y0098716D01*
X0066251Y0098657D01*
X0066238Y0098598D01*
X0066222Y0098539D01*
X0066202Y0098482D01*
X0066179Y0098427D01*
X0066152Y0098372D01*
X0066123Y0098320D01*
X0066090Y0098269D01*
X0066054Y0098220D01*
X0066016Y0098174D01*
X0065974Y0098130D01*
X0065930Y0098088D01*
X0065884Y0098050D01*
X0065835Y0098014D01*
X0065784Y0097981D01*
X0065732Y0097952D01*
X0065677Y0097925D01*
X0065622Y0097902D01*
X0065565Y0097882D01*
X0065506Y0097866D01*
X0065447Y0097853D01*
X0065388Y0097844D01*
X0065327Y0097839D01*
X0065267Y0097837D01*
X0057267Y0097837D01*
X0057207Y0097839D01*
X0057146Y0097844D01*
X0057087Y0097853D01*
X0057028Y0097866D01*
X0056969Y0097882D01*
X0056912Y0097902D01*
X0056857Y0097925D01*
X0056802Y0097952D01*
X0056750Y0097981D01*
X0056699Y0098014D01*
X0056650Y0098050D01*
X0056604Y0098088D01*
X0056560Y0098130D01*
X0056518Y0098174D01*
X0056480Y0098220D01*
X0056444Y0098269D01*
X0056411Y0098320D01*
X0056382Y0098372D01*
X0056355Y0098427D01*
X0056332Y0098482D01*
X0056312Y0098539D01*
X0056296Y0098598D01*
X0056283Y0098657D01*
X0056274Y0098716D01*
X0056269Y0098777D01*
X0056267Y0098837D01*
X0056267Y0101837D01*
X0056269Y0101897D01*
X0056274Y0101958D01*
X0056283Y0102017D01*
X0056296Y0102076D01*
X0056312Y0102135D01*
X0056332Y0102192D01*
X0056355Y0102247D01*
X0056382Y0102302D01*
X0056411Y0102354D01*
X0056444Y0102405D01*
X0056480Y0102454D01*
X0056518Y0102500D01*
X0056560Y0102544D01*
X0056604Y0102586D01*
X0056650Y0102624D01*
X0056699Y0102660D01*
X0056750Y0102693D01*
X0056802Y0102722D01*
X0056857Y0102749D01*
X0056912Y0102772D01*
X0056969Y0102792D01*
X0057028Y0102808D01*
X0057087Y0102821D01*
X0057146Y0102830D01*
X0057207Y0102835D01*
X0057267Y0102837D01*
X0065267Y0102837D01*
X0065327Y0102835D01*
X0065388Y0102830D01*
X0065447Y0102821D01*
X0065506Y0102808D01*
X0065565Y0102792D01*
X0065622Y0102772D01*
X0065677Y0102749D01*
X0065732Y0102722D01*
X0065784Y0102693D01*
X0065835Y0102660D01*
X0065884Y0102624D01*
X0065930Y0102586D01*
X0065974Y0102544D01*
X0066016Y0102500D01*
X0066054Y0102454D01*
X0066090Y0102405D01*
X0066123Y0102354D01*
X0066152Y0102302D01*
X0066179Y0102247D01*
X0066202Y0102192D01*
X0066222Y0102135D01*
X0066238Y0102076D01*
X0066251Y0102017D01*
X0066260Y0101958D01*
X0066265Y0101897D01*
X0066267Y0101837D01*
X0051767Y0105865D02*
X0051654Y0106130D01*
X0051548Y0106398D01*
X0051449Y0106668D01*
X0051356Y0106941D01*
X0051270Y0107216D01*
X0051191Y0107493D01*
X0051118Y0107771D01*
X0051053Y0108052D01*
X0050994Y0108334D01*
X0050942Y0108617D01*
X0050897Y0108902D01*
X0050860Y0109188D01*
X0050829Y0109474D01*
X0050805Y0109761D01*
X0050788Y0110049D01*
X0050779Y0110337D01*
X0070767Y0105865D02*
X0070880Y0106130D01*
X0070986Y0106398D01*
X0071085Y0106668D01*
X0071178Y0106941D01*
X0071264Y0107216D01*
X0071343Y0107493D01*
X0071416Y0107771D01*
X0071481Y0108052D01*
X0071540Y0108334D01*
X0071592Y0108617D01*
X0071637Y0108902D01*
X0071674Y0109188D01*
X0071705Y0109474D01*
X0071729Y0109761D01*
X0071746Y0110049D01*
X0071755Y0110337D01*
X0071758Y0110569D01*
X0071756Y0110800D01*
X0071748Y0111031D01*
X0071734Y0111262D01*
X0071715Y0111492D01*
X0071690Y0111722D01*
X0071659Y0111951D01*
X0071623Y0112180D01*
X0071582Y0112407D01*
X0071535Y0112634D01*
X0071482Y0112859D01*
X0071424Y0113083D01*
X0071360Y0113305D01*
X0071291Y0113526D01*
X0071217Y0113745D01*
X0071137Y0113962D01*
X0071052Y0114177D01*
X0070962Y0114390D01*
X0070867Y0114601D01*
X0070767Y0114809D01*
X0070813Y0105959D02*
X0070706Y0105734D01*
X0070594Y0105511D01*
X0070477Y0105291D01*
X0070355Y0105074D01*
X0070227Y0104859D01*
X0070094Y0104648D01*
X0069957Y0104440D01*
X0069814Y0104236D01*
X0069667Y0104034D01*
X0069515Y0103837D01*
X0070767Y0114809D02*
X0070655Y0115039D01*
X0070538Y0115266D01*
X0070416Y0115490D01*
X0070288Y0115711D01*
X0070154Y0115928D01*
X0070016Y0116143D01*
X0069872Y0116354D01*
X0069723Y0116561D01*
X0069569Y0116765D01*
X0069411Y0116965D01*
X0069247Y0117161D01*
X0069079Y0117353D01*
X0068906Y0117541D01*
X0068728Y0117725D01*
X0068547Y0117904D01*
X0068360Y0118079D01*
X0068170Y0118249D01*
X0067976Y0118414D01*
X0067777Y0118575D01*
X0067575Y0118731D01*
X0067369Y0118882D01*
X0067159Y0119028D01*
X0066946Y0119168D01*
X0066730Y0119304D01*
X0066510Y0119434D01*
X0066287Y0119559D01*
X0066062Y0119678D01*
X0065833Y0119792D01*
X0065602Y0119900D01*
X0065368Y0120003D01*
X0065132Y0120100D01*
X0064893Y0120191D01*
X0064653Y0120276D01*
X0064410Y0120356D01*
X0064165Y0120429D01*
X0063919Y0120497D01*
X0063671Y0120558D01*
X0063422Y0120613D01*
X0063172Y0120663D01*
X0062920Y0120706D01*
X0062667Y0120743D01*
X0062414Y0120774D01*
X0062160Y0120799D01*
X0061905Y0120818D01*
X0061650Y0120830D01*
X0061395Y0120836D01*
X0061139Y0120836D01*
X0060884Y0120830D01*
X0060629Y0120818D01*
X0060374Y0120799D01*
X0060120Y0120774D01*
X0059867Y0120743D01*
X0059614Y0120706D01*
X0059362Y0120663D01*
X0059112Y0120613D01*
X0058863Y0120558D01*
X0058615Y0120497D01*
X0058369Y0120429D01*
X0058124Y0120356D01*
X0057881Y0120276D01*
X0057641Y0120191D01*
X0057402Y0120100D01*
X0057166Y0120003D01*
X0056932Y0119900D01*
X0056701Y0119792D01*
X0056472Y0119678D01*
X0056247Y0119559D01*
X0056024Y0119434D01*
X0055804Y0119304D01*
X0055588Y0119168D01*
X0055375Y0119028D01*
X0055165Y0118882D01*
X0054959Y0118731D01*
X0054757Y0118575D01*
X0054558Y0118414D01*
X0054364Y0118249D01*
X0054174Y0118079D01*
X0053987Y0117904D01*
X0053806Y0117725D01*
X0053628Y0117541D01*
X0053455Y0117353D01*
X0053287Y0117161D01*
X0053123Y0116965D01*
X0052965Y0116765D01*
X0052811Y0116561D01*
X0052662Y0116354D01*
X0052518Y0116143D01*
X0052380Y0115928D01*
X0052246Y0115711D01*
X0052118Y0115490D01*
X0051996Y0115266D01*
X0051879Y0115039D01*
X0051767Y0114809D01*
X0051667Y0114601D01*
X0051572Y0114390D01*
X0051482Y0114177D01*
X0051397Y0113962D01*
X0051317Y0113745D01*
X0051243Y0113526D01*
X0051174Y0113305D01*
X0051110Y0113083D01*
X0051052Y0112859D01*
X0050999Y0112634D01*
X0050952Y0112407D01*
X0050911Y0112180D01*
X0050875Y0111951D01*
X0050844Y0111722D01*
X0050819Y0111492D01*
X0050800Y0111262D01*
X0050786Y0111031D01*
X0050778Y0110800D01*
X0050776Y0110569D01*
X0050779Y0110337D01*
X0045738Y0100837D02*
X0045530Y0100737D01*
X0045319Y0100642D01*
X0045106Y0100552D01*
X0044891Y0100467D01*
X0044674Y0100387D01*
X0044455Y0100313D01*
X0044234Y0100244D01*
X0044012Y0100180D01*
X0043788Y0100122D01*
X0043563Y0100069D01*
X0043336Y0100022D01*
X0043109Y0099981D01*
X0042880Y0099945D01*
X0042651Y0099914D01*
X0042421Y0099889D01*
X0042191Y0099870D01*
X0041960Y0099856D01*
X0041729Y0099848D01*
X0041498Y0099846D01*
X0041266Y0099849D01*
X0041267Y0099849D02*
X0041267Y0120825D01*
X0034767Y0118585D02*
X0034767Y0102089D01*
X0036795Y0119837D02*
X0037060Y0119950D01*
X0037328Y0120056D01*
X0037598Y0120155D01*
X0037871Y0120248D01*
X0038146Y0120334D01*
X0038423Y0120413D01*
X0038701Y0120486D01*
X0038982Y0120551D01*
X0039264Y0120610D01*
X0039547Y0120662D01*
X0039832Y0120707D01*
X0040118Y0120744D01*
X0040404Y0120775D01*
X0040691Y0120799D01*
X0040979Y0120816D01*
X0041267Y0120825D01*
X0036795Y0100837D02*
X0037060Y0100724D01*
X0037328Y0100618D01*
X0037598Y0100519D01*
X0037871Y0100426D01*
X0038146Y0100340D01*
X0038423Y0100261D01*
X0038701Y0100188D01*
X0038982Y0100123D01*
X0039264Y0100064D01*
X0039547Y0100012D01*
X0039832Y0099967D01*
X0040118Y0099930D01*
X0040404Y0099899D01*
X0040691Y0099875D01*
X0040979Y0099858D01*
X0041267Y0099849D01*
X0031755Y0090337D02*
X0010778Y0090337D01*
X0013019Y0083837D02*
X0029515Y0083837D01*
X0011767Y0085865D02*
X0011654Y0086130D01*
X0011548Y0086398D01*
X0011449Y0086668D01*
X0011356Y0086941D01*
X0011270Y0087216D01*
X0011191Y0087493D01*
X0011118Y0087771D01*
X0011053Y0088052D01*
X0010994Y0088334D01*
X0010942Y0088617D01*
X0010897Y0088902D01*
X0010860Y0089188D01*
X0010829Y0089474D01*
X0010805Y0089761D01*
X0010788Y0090049D01*
X0010779Y0090337D01*
X0030767Y0085865D02*
X0030880Y0086130D01*
X0030986Y0086398D01*
X0031085Y0086668D01*
X0031178Y0086941D01*
X0031264Y0087216D01*
X0031343Y0087493D01*
X0031416Y0087771D01*
X0031481Y0088052D01*
X0031540Y0088334D01*
X0031592Y0088617D01*
X0031637Y0088902D01*
X0031674Y0089188D01*
X0031705Y0089474D01*
X0031729Y0089761D01*
X0031746Y0090049D01*
X0031755Y0090337D01*
X0031758Y0090569D01*
X0031756Y0090800D01*
X0031748Y0091031D01*
X0031734Y0091262D01*
X0031715Y0091492D01*
X0031690Y0091722D01*
X0031659Y0091951D01*
X0031623Y0092180D01*
X0031582Y0092407D01*
X0031535Y0092634D01*
X0031482Y0092859D01*
X0031424Y0093083D01*
X0031360Y0093305D01*
X0031291Y0093526D01*
X0031217Y0093745D01*
X0031137Y0093962D01*
X0031052Y0094177D01*
X0030962Y0094390D01*
X0030867Y0094601D01*
X0030767Y0094809D01*
X0030813Y0085959D02*
X0030706Y0085734D01*
X0030594Y0085511D01*
X0030477Y0085291D01*
X0030355Y0085074D01*
X0030227Y0084859D01*
X0030094Y0084648D01*
X0029957Y0084440D01*
X0029814Y0084236D01*
X0029667Y0084034D01*
X0029515Y0083837D01*
X0030767Y0094809D02*
X0030655Y0095039D01*
X0030538Y0095266D01*
X0030416Y0095490D01*
X0030288Y0095711D01*
X0030154Y0095928D01*
X0030016Y0096143D01*
X0029872Y0096354D01*
X0029723Y0096561D01*
X0029569Y0096765D01*
X0029411Y0096965D01*
X0029247Y0097161D01*
X0029079Y0097353D01*
X0028906Y0097541D01*
X0028728Y0097725D01*
X0028547Y0097904D01*
X0028360Y0098079D01*
X0028170Y0098249D01*
X0027976Y0098414D01*
X0027777Y0098575D01*
X0027575Y0098731D01*
X0027369Y0098882D01*
X0027159Y0099028D01*
X0026946Y0099168D01*
X0026730Y0099304D01*
X0026510Y0099434D01*
X0026287Y0099559D01*
X0026062Y0099678D01*
X0025833Y0099792D01*
X0025602Y0099900D01*
X0025368Y0100003D01*
X0025132Y0100100D01*
X0024893Y0100191D01*
X0024653Y0100276D01*
X0024410Y0100356D01*
X0024165Y0100429D01*
X0023919Y0100497D01*
X0023671Y0100558D01*
X0023422Y0100613D01*
X0023172Y0100663D01*
X0022920Y0100706D01*
X0022667Y0100743D01*
X0022414Y0100774D01*
X0022160Y0100799D01*
X0021905Y0100818D01*
X0021650Y0100830D01*
X0021395Y0100836D01*
X0021139Y0100836D01*
X0020884Y0100830D01*
X0020629Y0100818D01*
X0020374Y0100799D01*
X0020120Y0100774D01*
X0019867Y0100743D01*
X0019614Y0100706D01*
X0019362Y0100663D01*
X0019112Y0100613D01*
X0018863Y0100558D01*
X0018615Y0100497D01*
X0018369Y0100429D01*
X0018124Y0100356D01*
X0017881Y0100276D01*
X0017641Y0100191D01*
X0017402Y0100100D01*
X0017166Y0100003D01*
X0016932Y0099900D01*
X0016701Y0099792D01*
X0016472Y0099678D01*
X0016247Y0099559D01*
X0016024Y0099434D01*
X0015804Y0099304D01*
X0015588Y0099168D01*
X0015375Y0099028D01*
X0015165Y0098882D01*
X0014959Y0098731D01*
X0014757Y0098575D01*
X0014558Y0098414D01*
X0014364Y0098249D01*
X0014174Y0098079D01*
X0013987Y0097904D01*
X0013806Y0097725D01*
X0013628Y0097541D01*
X0013455Y0097353D01*
X0013287Y0097161D01*
X0013123Y0096965D01*
X0012965Y0096765D01*
X0012811Y0096561D01*
X0012662Y0096354D01*
X0012518Y0096143D01*
X0012380Y0095928D01*
X0012246Y0095711D01*
X0012118Y0095490D01*
X0011996Y0095266D01*
X0011879Y0095039D01*
X0011767Y0094809D01*
X0011667Y0094601D01*
X0011572Y0094390D01*
X0011482Y0094177D01*
X0011397Y0093962D01*
X0011317Y0093745D01*
X0011243Y0093526D01*
X0011174Y0093305D01*
X0011110Y0093083D01*
X0011052Y0092859D01*
X0010999Y0092634D01*
X0010952Y0092407D01*
X0010911Y0092180D01*
X0010875Y0091951D01*
X0010844Y0091722D01*
X0010819Y0091492D01*
X0010800Y0091262D01*
X0010786Y0091031D01*
X0010778Y0090800D01*
X0010776Y0090569D01*
X0010779Y0090337D01*
X0011765Y0085865D02*
X0011869Y0085650D01*
X0011978Y0085437D01*
X0012092Y0085227D01*
X0012211Y0085020D01*
X0012334Y0084815D01*
X0012462Y0084613D01*
X0012595Y0084414D01*
X0012732Y0084219D01*
X0012873Y0084026D01*
X0013019Y0083837D01*
X0019767Y0075337D02*
X0022767Y0075337D01*
X0022827Y0075335D01*
X0022888Y0075330D01*
X0022947Y0075321D01*
X0023006Y0075308D01*
X0023065Y0075292D01*
X0023122Y0075272D01*
X0023177Y0075249D01*
X0023232Y0075222D01*
X0023284Y0075193D01*
X0023335Y0075160D01*
X0023384Y0075124D01*
X0023430Y0075086D01*
X0023474Y0075044D01*
X0023516Y0075000D01*
X0023554Y0074954D01*
X0023590Y0074905D01*
X0023623Y0074854D01*
X0023652Y0074802D01*
X0023679Y0074747D01*
X0023702Y0074692D01*
X0023722Y0074635D01*
X0023738Y0074576D01*
X0023751Y0074517D01*
X0023760Y0074458D01*
X0023765Y0074397D01*
X0023767Y0074337D01*
X0023767Y0066337D01*
X0023765Y0066277D01*
X0023760Y0066216D01*
X0023751Y0066157D01*
X0023738Y0066098D01*
X0023722Y0066039D01*
X0023702Y0065982D01*
X0023679Y0065927D01*
X0023652Y0065872D01*
X0023623Y0065820D01*
X0023590Y0065769D01*
X0023554Y0065720D01*
X0023516Y0065674D01*
X0023474Y0065630D01*
X0023430Y0065588D01*
X0023384Y0065550D01*
X0023335Y0065514D01*
X0023284Y0065481D01*
X0023232Y0065452D01*
X0023177Y0065425D01*
X0023122Y0065402D01*
X0023065Y0065382D01*
X0023006Y0065366D01*
X0022947Y0065353D01*
X0022888Y0065344D01*
X0022827Y0065339D01*
X0022767Y0065337D01*
X0019767Y0065337D01*
X0019707Y0065339D01*
X0019646Y0065344D01*
X0019587Y0065353D01*
X0019528Y0065366D01*
X0019469Y0065382D01*
X0019412Y0065402D01*
X0019357Y0065425D01*
X0019302Y0065452D01*
X0019250Y0065481D01*
X0019199Y0065514D01*
X0019150Y0065550D01*
X0019104Y0065588D01*
X0019060Y0065630D01*
X0019018Y0065674D01*
X0018980Y0065720D01*
X0018944Y0065769D01*
X0018911Y0065820D01*
X0018882Y0065872D01*
X0018855Y0065927D01*
X0018832Y0065982D01*
X0018812Y0066039D01*
X0018796Y0066098D01*
X0018783Y0066157D01*
X0018774Y0066216D01*
X0018769Y0066277D01*
X0018767Y0066337D01*
X0018767Y0074337D01*
X0018769Y0074397D01*
X0018774Y0074458D01*
X0018783Y0074517D01*
X0018796Y0074576D01*
X0018812Y0074635D01*
X0018832Y0074692D01*
X0018855Y0074747D01*
X0018882Y0074802D01*
X0018911Y0074854D01*
X0018944Y0074905D01*
X0018980Y0074954D01*
X0019018Y0075000D01*
X0019060Y0075044D01*
X0019104Y0075086D01*
X0019150Y0075124D01*
X0019199Y0075160D01*
X0019250Y0075193D01*
X0019302Y0075222D01*
X0019357Y0075249D01*
X0019412Y0075272D01*
X0019469Y0075292D01*
X0019528Y0075308D01*
X0019587Y0075321D01*
X0019646Y0075330D01*
X0019707Y0075335D01*
X0019767Y0075337D01*
X0034767Y0102089D02*
X0034964Y0101937D01*
X0035166Y0101790D01*
X0035370Y0101647D01*
X0035578Y0101510D01*
X0035789Y0101377D01*
X0036004Y0101249D01*
X0036221Y0101127D01*
X0036441Y0101010D01*
X0036664Y0100898D01*
X0036889Y0100791D01*
X0045739Y0100837D02*
X0045969Y0100949D01*
X0046196Y0101066D01*
X0046420Y0101188D01*
X0046641Y0101316D01*
X0046858Y0101450D01*
X0047073Y0101588D01*
X0047284Y0101732D01*
X0047491Y0101881D01*
X0047695Y0102035D01*
X0047895Y0102193D01*
X0048091Y0102357D01*
X0048283Y0102525D01*
X0048471Y0102698D01*
X0048655Y0102876D01*
X0048834Y0103057D01*
X0049009Y0103244D01*
X0049179Y0103434D01*
X0049344Y0103628D01*
X0049505Y0103827D01*
X0049661Y0104029D01*
X0049812Y0104235D01*
X0049958Y0104445D01*
X0050098Y0104658D01*
X0050234Y0104874D01*
X0050364Y0105094D01*
X0050489Y0105317D01*
X0050608Y0105542D01*
X0050722Y0105771D01*
X0050830Y0106002D01*
X0050933Y0106236D01*
X0051030Y0106472D01*
X0051121Y0106711D01*
X0051206Y0106951D01*
X0051286Y0107194D01*
X0051359Y0107439D01*
X0051427Y0107685D01*
X0051488Y0107933D01*
X0051543Y0108182D01*
X0051593Y0108432D01*
X0051636Y0108684D01*
X0051673Y0108937D01*
X0051704Y0109190D01*
X0051729Y0109444D01*
X0051748Y0109699D01*
X0051760Y0109954D01*
X0051766Y0110209D01*
X0051766Y0110465D01*
X0051760Y0110720D01*
X0051748Y0110975D01*
X0051729Y0111230D01*
X0051704Y0111484D01*
X0051673Y0111737D01*
X0051636Y0111990D01*
X0051593Y0112242D01*
X0051543Y0112492D01*
X0051488Y0112741D01*
X0051427Y0112989D01*
X0051359Y0113235D01*
X0051286Y0113480D01*
X0051206Y0113723D01*
X0051121Y0113963D01*
X0051030Y0114202D01*
X0050933Y0114438D01*
X0050830Y0114672D01*
X0050722Y0114903D01*
X0050608Y0115132D01*
X0050489Y0115357D01*
X0050364Y0115580D01*
X0050234Y0115800D01*
X0050098Y0116016D01*
X0049958Y0116229D01*
X0049812Y0116439D01*
X0049661Y0116645D01*
X0049505Y0116847D01*
X0049344Y0117046D01*
X0049179Y0117240D01*
X0049009Y0117430D01*
X0048834Y0117617D01*
X0048655Y0117798D01*
X0048471Y0117976D01*
X0048283Y0118149D01*
X0048091Y0118317D01*
X0047895Y0118481D01*
X0047695Y0118639D01*
X0047491Y0118793D01*
X0047284Y0118942D01*
X0047073Y0119086D01*
X0046858Y0119224D01*
X0046641Y0119358D01*
X0046420Y0119486D01*
X0046196Y0119608D01*
X0045969Y0119725D01*
X0045739Y0119837D01*
X0045738Y0119837D02*
X0045530Y0119937D01*
X0045319Y0120032D01*
X0045106Y0120122D01*
X0044891Y0120207D01*
X0044674Y0120287D01*
X0044455Y0120361D01*
X0044234Y0120430D01*
X0044012Y0120494D01*
X0043788Y0120552D01*
X0043563Y0120605D01*
X0043336Y0120652D01*
X0043109Y0120693D01*
X0042880Y0120729D01*
X0042651Y0120760D01*
X0042421Y0120785D01*
X0042191Y0120804D01*
X0041960Y0120818D01*
X0041729Y0120826D01*
X0041498Y0120828D01*
X0041266Y0120825D01*
X0036795Y0119839D02*
X0036580Y0119735D01*
X0036367Y0119626D01*
X0036157Y0119512D01*
X0035950Y0119393D01*
X0035745Y0119270D01*
X0035543Y0119142D01*
X0035344Y0119009D01*
X0035149Y0118872D01*
X0034956Y0118731D01*
X0034767Y0118585D01*
X0051765Y0105865D02*
X0051869Y0105650D01*
X0051978Y0105437D01*
X0052092Y0105227D01*
X0052211Y0105020D01*
X0052334Y0104815D01*
X0052462Y0104613D01*
X0052595Y0104414D01*
X0052732Y0104219D01*
X0052873Y0104026D01*
X0053019Y0103837D01*
X0100767Y0114809D02*
X0100880Y0114544D01*
X0100986Y0114276D01*
X0101085Y0114006D01*
X0101178Y0113733D01*
X0101264Y0113458D01*
X0101343Y0113181D01*
X0101416Y0112903D01*
X0101481Y0112622D01*
X0101540Y0112340D01*
X0101592Y0112057D01*
X0101637Y0111772D01*
X0101674Y0111486D01*
X0101705Y0111200D01*
X0101729Y0110913D01*
X0101746Y0110625D01*
X0101755Y0110337D01*
X0101758Y0110105D01*
X0101756Y0109874D01*
X0101748Y0109643D01*
X0101734Y0109412D01*
X0101715Y0109182D01*
X0101690Y0108952D01*
X0101659Y0108723D01*
X0101623Y0108494D01*
X0101582Y0108267D01*
X0101535Y0108040D01*
X0101482Y0107815D01*
X0101424Y0107591D01*
X0101360Y0107369D01*
X0101291Y0107148D01*
X0101217Y0106929D01*
X0101137Y0106712D01*
X0101052Y0106497D01*
X0100962Y0106284D01*
X0100867Y0106073D01*
X0100767Y0105865D01*
X0100769Y0114809D02*
X0100665Y0115024D01*
X0100556Y0115237D01*
X0100442Y0115447D01*
X0100323Y0115654D01*
X0100200Y0115859D01*
X0100072Y0116061D01*
X0099939Y0116260D01*
X0099802Y0116455D01*
X0099661Y0116648D01*
X0099515Y0116837D01*
X0100767Y0105865D02*
X0100655Y0105635D01*
X0100538Y0105408D01*
X0100416Y0105184D01*
X0100288Y0104963D01*
X0100154Y0104746D01*
X0100016Y0104531D01*
X0099872Y0104320D01*
X0099723Y0104113D01*
X0099569Y0103909D01*
X0099411Y0103709D01*
X0099247Y0103513D01*
X0099079Y0103321D01*
X0098906Y0103133D01*
X0098728Y0102949D01*
X0098547Y0102770D01*
X0098360Y0102595D01*
X0098170Y0102425D01*
X0097976Y0102260D01*
X0097777Y0102099D01*
X0097575Y0101943D01*
X0097369Y0101792D01*
X0097159Y0101646D01*
X0096946Y0101506D01*
X0096730Y0101370D01*
X0096510Y0101240D01*
X0096287Y0101115D01*
X0096062Y0100996D01*
X0095833Y0100882D01*
X0095602Y0100774D01*
X0095368Y0100671D01*
X0095132Y0100574D01*
X0094893Y0100483D01*
X0094653Y0100398D01*
X0094410Y0100318D01*
X0094165Y0100245D01*
X0093919Y0100177D01*
X0093671Y0100116D01*
X0093422Y0100061D01*
X0093172Y0100011D01*
X0092920Y0099968D01*
X0092667Y0099931D01*
X0092414Y0099900D01*
X0092160Y0099875D01*
X0091905Y0099856D01*
X0091650Y0099844D01*
X0091395Y0099838D01*
X0091139Y0099838D01*
X0090884Y0099844D01*
X0090629Y0099856D01*
X0090374Y0099875D01*
X0090120Y0099900D01*
X0089867Y0099931D01*
X0089614Y0099968D01*
X0089362Y0100011D01*
X0089112Y0100061D01*
X0088863Y0100116D01*
X0088615Y0100177D01*
X0088369Y0100245D01*
X0088124Y0100318D01*
X0087881Y0100398D01*
X0087641Y0100483D01*
X0087402Y0100574D01*
X0087166Y0100671D01*
X0086932Y0100774D01*
X0086701Y0100882D01*
X0086472Y0100996D01*
X0086247Y0101115D01*
X0086024Y0101240D01*
X0085804Y0101370D01*
X0085588Y0101506D01*
X0085375Y0101646D01*
X0085165Y0101792D01*
X0084959Y0101943D01*
X0084757Y0102099D01*
X0084558Y0102260D01*
X0084364Y0102425D01*
X0084174Y0102595D01*
X0083987Y0102770D01*
X0083806Y0102949D01*
X0083628Y0103133D01*
X0083455Y0103321D01*
X0083287Y0103513D01*
X0083123Y0103709D01*
X0082965Y0103909D01*
X0082811Y0104113D01*
X0082662Y0104320D01*
X0082518Y0104531D01*
X0082380Y0104746D01*
X0082246Y0104963D01*
X0082118Y0105184D01*
X0081996Y0105408D01*
X0081879Y0105635D01*
X0081767Y0105865D01*
X0081667Y0106073D01*
X0081572Y0106284D01*
X0081482Y0106497D01*
X0081397Y0106712D01*
X0081317Y0106929D01*
X0081243Y0107148D01*
X0081174Y0107369D01*
X0081110Y0107591D01*
X0081052Y0107815D01*
X0080999Y0108040D01*
X0080952Y0108267D01*
X0080911Y0108494D01*
X0080875Y0108723D01*
X0080844Y0108952D01*
X0080819Y0109182D01*
X0080800Y0109412D01*
X0080786Y0109643D01*
X0080778Y0109874D01*
X0080776Y0110105D01*
X0080779Y0110337D01*
X0081721Y0114715D02*
X0081828Y0114940D01*
X0081940Y0115163D01*
X0082057Y0115383D01*
X0082179Y0115600D01*
X0082307Y0115815D01*
X0082440Y0116026D01*
X0082577Y0116234D01*
X0082720Y0116438D01*
X0082867Y0116640D01*
X0083019Y0116837D01*
X0106795Y0100837D02*
X0107060Y0100724D01*
X0107328Y0100618D01*
X0107598Y0100519D01*
X0107871Y0100426D01*
X0108146Y0100340D01*
X0108423Y0100261D01*
X0108701Y0100188D01*
X0108982Y0100123D01*
X0109264Y0100064D01*
X0109547Y0100012D01*
X0109832Y0099967D01*
X0110118Y0099930D01*
X0110404Y0099899D01*
X0110691Y0099875D01*
X0110979Y0099858D01*
X0111267Y0099849D01*
X0106795Y0119837D02*
X0107060Y0119950D01*
X0107328Y0120056D01*
X0107598Y0120155D01*
X0107871Y0120248D01*
X0108146Y0120334D01*
X0108423Y0120413D01*
X0108701Y0120486D01*
X0108982Y0120551D01*
X0109264Y0120610D01*
X0109547Y0120662D01*
X0109832Y0120707D01*
X0110118Y0120744D01*
X0110404Y0120775D01*
X0110691Y0120799D01*
X0110979Y0120816D01*
X0111267Y0120825D01*
X0111266Y0120825D02*
X0111498Y0120828D01*
X0111729Y0120826D01*
X0111960Y0120818D01*
X0112191Y0120804D01*
X0112421Y0120785D01*
X0112651Y0120760D01*
X0112880Y0120729D01*
X0113109Y0120693D01*
X0113336Y0120652D01*
X0113563Y0120605D01*
X0113788Y0120552D01*
X0114012Y0120494D01*
X0114234Y0120430D01*
X0114455Y0120361D01*
X0114674Y0120287D01*
X0114891Y0120207D01*
X0115106Y0120122D01*
X0115319Y0120032D01*
X0115530Y0119937D01*
X0115738Y0119837D01*
X0106795Y0119839D02*
X0106580Y0119735D01*
X0106367Y0119626D01*
X0106157Y0119512D01*
X0105950Y0119393D01*
X0105745Y0119270D01*
X0105543Y0119142D01*
X0105344Y0119009D01*
X0105149Y0118872D01*
X0104956Y0118731D01*
X0104767Y0118585D01*
X0115739Y0119837D02*
X0115969Y0119725D01*
X0116196Y0119608D01*
X0116420Y0119486D01*
X0116641Y0119358D01*
X0116858Y0119224D01*
X0117073Y0119086D01*
X0117284Y0118942D01*
X0117491Y0118793D01*
X0117695Y0118639D01*
X0117895Y0118481D01*
X0118091Y0118317D01*
X0118283Y0118149D01*
X0118471Y0117976D01*
X0118655Y0117798D01*
X0118834Y0117617D01*
X0119009Y0117430D01*
X0119179Y0117240D01*
X0119344Y0117046D01*
X0119505Y0116847D01*
X0119661Y0116645D01*
X0119812Y0116439D01*
X0119958Y0116229D01*
X0120098Y0116016D01*
X0120234Y0115800D01*
X0120364Y0115580D01*
X0120489Y0115357D01*
X0120608Y0115132D01*
X0120722Y0114903D01*
X0120830Y0114672D01*
X0120933Y0114438D01*
X0121030Y0114202D01*
X0121121Y0113963D01*
X0121206Y0113723D01*
X0121286Y0113480D01*
X0121359Y0113235D01*
X0121427Y0112989D01*
X0121488Y0112741D01*
X0121543Y0112492D01*
X0121593Y0112242D01*
X0121636Y0111990D01*
X0121673Y0111737D01*
X0121704Y0111484D01*
X0121729Y0111230D01*
X0121748Y0110975D01*
X0121760Y0110720D01*
X0121766Y0110465D01*
X0121766Y0110209D01*
X0121760Y0109954D01*
X0121748Y0109699D01*
X0121729Y0109444D01*
X0121704Y0109190D01*
X0121673Y0108937D01*
X0121636Y0108684D01*
X0121593Y0108432D01*
X0121543Y0108182D01*
X0121488Y0107933D01*
X0121427Y0107685D01*
X0121359Y0107439D01*
X0121286Y0107194D01*
X0121206Y0106951D01*
X0121121Y0106711D01*
X0121030Y0106472D01*
X0120933Y0106236D01*
X0120830Y0106002D01*
X0120722Y0105771D01*
X0120608Y0105542D01*
X0120489Y0105317D01*
X0120364Y0105094D01*
X0120234Y0104874D01*
X0120098Y0104658D01*
X0119958Y0104445D01*
X0119812Y0104235D01*
X0119661Y0104029D01*
X0119505Y0103827D01*
X0119344Y0103628D01*
X0119179Y0103434D01*
X0119009Y0103244D01*
X0118834Y0103057D01*
X0118655Y0102876D01*
X0118471Y0102698D01*
X0118283Y0102525D01*
X0118091Y0102357D01*
X0117895Y0102193D01*
X0117695Y0102035D01*
X0117491Y0101881D01*
X0117284Y0101732D01*
X0117073Y0101588D01*
X0116858Y0101450D01*
X0116641Y0101316D01*
X0116420Y0101188D01*
X0116196Y0101066D01*
X0115969Y0100949D01*
X0115739Y0100837D01*
X0115738Y0100837D02*
X0115530Y0100737D01*
X0115319Y0100642D01*
X0115106Y0100552D01*
X0114891Y0100467D01*
X0114674Y0100387D01*
X0114455Y0100313D01*
X0114234Y0100244D01*
X0114012Y0100180D01*
X0113788Y0100122D01*
X0113563Y0100069D01*
X0113336Y0100022D01*
X0113109Y0099981D01*
X0112880Y0099945D01*
X0112651Y0099914D01*
X0112421Y0099889D01*
X0112191Y0099870D01*
X0111960Y0099856D01*
X0111729Y0099848D01*
X0111498Y0099846D01*
X0111266Y0099849D01*
X0110778Y0090337D02*
X0131755Y0090337D01*
X0111767Y0094809D02*
X0111654Y0094544D01*
X0111548Y0094276D01*
X0111449Y0094006D01*
X0111356Y0093733D01*
X0111270Y0093458D01*
X0111191Y0093181D01*
X0111118Y0092903D01*
X0111053Y0092622D01*
X0110994Y0092340D01*
X0110942Y0092057D01*
X0110897Y0091772D01*
X0110860Y0091486D01*
X0110829Y0091200D01*
X0110805Y0090913D01*
X0110788Y0090625D01*
X0110779Y0090337D01*
X0130767Y0094809D02*
X0130880Y0094544D01*
X0130986Y0094276D01*
X0131085Y0094006D01*
X0131178Y0093733D01*
X0131264Y0093458D01*
X0131343Y0093181D01*
X0131416Y0092903D01*
X0131481Y0092622D01*
X0131540Y0092340D01*
X0131592Y0092057D01*
X0131637Y0091772D01*
X0131674Y0091486D01*
X0131705Y0091200D01*
X0131729Y0090913D01*
X0131746Y0090625D01*
X0131755Y0090337D01*
X0131758Y0090105D01*
X0131756Y0089874D01*
X0131748Y0089643D01*
X0131734Y0089412D01*
X0131715Y0089182D01*
X0131690Y0088952D01*
X0131659Y0088723D01*
X0131623Y0088494D01*
X0131582Y0088267D01*
X0131535Y0088040D01*
X0131482Y0087815D01*
X0131424Y0087591D01*
X0131360Y0087369D01*
X0131291Y0087148D01*
X0131217Y0086929D01*
X0131137Y0086712D01*
X0131052Y0086497D01*
X0130962Y0086284D01*
X0130867Y0086073D01*
X0130767Y0085865D01*
X0130769Y0094809D02*
X0130665Y0095024D01*
X0130556Y0095237D01*
X0130442Y0095447D01*
X0130323Y0095654D01*
X0130200Y0095859D01*
X0130072Y0096061D01*
X0129939Y0096260D01*
X0129802Y0096455D01*
X0129661Y0096648D01*
X0129515Y0096837D01*
X0130767Y0085865D02*
X0130655Y0085635D01*
X0130538Y0085408D01*
X0130416Y0085184D01*
X0130288Y0084963D01*
X0130154Y0084746D01*
X0130016Y0084531D01*
X0129872Y0084320D01*
X0129723Y0084113D01*
X0129569Y0083909D01*
X0129411Y0083709D01*
X0129247Y0083513D01*
X0129079Y0083321D01*
X0128906Y0083133D01*
X0128728Y0082949D01*
X0128547Y0082770D01*
X0128360Y0082595D01*
X0128170Y0082425D01*
X0127976Y0082260D01*
X0127777Y0082099D01*
X0127575Y0081943D01*
X0127369Y0081792D01*
X0127159Y0081646D01*
X0126946Y0081506D01*
X0126730Y0081370D01*
X0126510Y0081240D01*
X0126287Y0081115D01*
X0126062Y0080996D01*
X0125833Y0080882D01*
X0125602Y0080774D01*
X0125368Y0080671D01*
X0125132Y0080574D01*
X0124893Y0080483D01*
X0124653Y0080398D01*
X0124410Y0080318D01*
X0124165Y0080245D01*
X0123919Y0080177D01*
X0123671Y0080116D01*
X0123422Y0080061D01*
X0123172Y0080011D01*
X0122920Y0079968D01*
X0122667Y0079931D01*
X0122414Y0079900D01*
X0122160Y0079875D01*
X0121905Y0079856D01*
X0121650Y0079844D01*
X0121395Y0079838D01*
X0121139Y0079838D01*
X0120884Y0079844D01*
X0120629Y0079856D01*
X0120374Y0079875D01*
X0120120Y0079900D01*
X0119867Y0079931D01*
X0119614Y0079968D01*
X0119362Y0080011D01*
X0119112Y0080061D01*
X0118863Y0080116D01*
X0118615Y0080177D01*
X0118369Y0080245D01*
X0118124Y0080318D01*
X0117881Y0080398D01*
X0117641Y0080483D01*
X0117402Y0080574D01*
X0117166Y0080671D01*
X0116932Y0080774D01*
X0116701Y0080882D01*
X0116472Y0080996D01*
X0116247Y0081115D01*
X0116024Y0081240D01*
X0115804Y0081370D01*
X0115588Y0081506D01*
X0115375Y0081646D01*
X0115165Y0081792D01*
X0114959Y0081943D01*
X0114757Y0082099D01*
X0114558Y0082260D01*
X0114364Y0082425D01*
X0114174Y0082595D01*
X0113987Y0082770D01*
X0113806Y0082949D01*
X0113628Y0083133D01*
X0113455Y0083321D01*
X0113287Y0083513D01*
X0113123Y0083709D01*
X0112965Y0083909D01*
X0112811Y0084113D01*
X0112662Y0084320D01*
X0112518Y0084531D01*
X0112380Y0084746D01*
X0112246Y0084963D01*
X0112118Y0085184D01*
X0111996Y0085408D01*
X0111879Y0085635D01*
X0111767Y0085865D01*
X0111667Y0086073D01*
X0111572Y0086284D01*
X0111482Y0086497D01*
X0111397Y0086712D01*
X0111317Y0086929D01*
X0111243Y0087148D01*
X0111174Y0087369D01*
X0111110Y0087591D01*
X0111052Y0087815D01*
X0110999Y0088040D01*
X0110952Y0088267D01*
X0110911Y0088494D01*
X0110875Y0088723D01*
X0110844Y0088952D01*
X0110819Y0089182D01*
X0110800Y0089412D01*
X0110786Y0089643D01*
X0110778Y0089874D01*
X0110776Y0090105D01*
X0110779Y0090337D01*
X0111721Y0094715D02*
X0111828Y0094940D01*
X0111940Y0095163D01*
X0112057Y0095383D01*
X0112179Y0095600D01*
X0112307Y0095815D01*
X0112440Y0096026D01*
X0112577Y0096234D01*
X0112720Y0096438D01*
X0112867Y0096640D01*
X0113019Y0096837D01*
X0106889Y0100791D02*
X0106664Y0100898D01*
X0106441Y0101010D01*
X0106221Y0101127D01*
X0106004Y0101249D01*
X0105789Y0101377D01*
X0105578Y0101510D01*
X0105370Y0101647D01*
X0105166Y0101790D01*
X0104964Y0101937D01*
X0104767Y0102089D01*
X0119767Y0075337D02*
X0122767Y0075337D01*
X0122827Y0075335D01*
X0122888Y0075330D01*
X0122947Y0075321D01*
X0123006Y0075308D01*
X0123065Y0075292D01*
X0123122Y0075272D01*
X0123177Y0075249D01*
X0123232Y0075222D01*
X0123284Y0075193D01*
X0123335Y0075160D01*
X0123384Y0075124D01*
X0123430Y0075086D01*
X0123474Y0075044D01*
X0123516Y0075000D01*
X0123554Y0074954D01*
X0123590Y0074905D01*
X0123623Y0074854D01*
X0123652Y0074802D01*
X0123679Y0074747D01*
X0123702Y0074692D01*
X0123722Y0074635D01*
X0123738Y0074576D01*
X0123751Y0074517D01*
X0123760Y0074458D01*
X0123765Y0074397D01*
X0123767Y0074337D01*
X0123767Y0066337D01*
X0123765Y0066277D01*
X0123760Y0066216D01*
X0123751Y0066157D01*
X0123738Y0066098D01*
X0123722Y0066039D01*
X0123702Y0065982D01*
X0123679Y0065927D01*
X0123652Y0065872D01*
X0123623Y0065820D01*
X0123590Y0065769D01*
X0123554Y0065720D01*
X0123516Y0065674D01*
X0123474Y0065630D01*
X0123430Y0065588D01*
X0123384Y0065550D01*
X0123335Y0065514D01*
X0123284Y0065481D01*
X0123232Y0065452D01*
X0123177Y0065425D01*
X0123122Y0065402D01*
X0123065Y0065382D01*
X0123006Y0065366D01*
X0122947Y0065353D01*
X0122888Y0065344D01*
X0122827Y0065339D01*
X0122767Y0065337D01*
X0119767Y0065337D01*
X0119707Y0065339D01*
X0119646Y0065344D01*
X0119587Y0065353D01*
X0119528Y0065366D01*
X0119469Y0065382D01*
X0119412Y0065402D01*
X0119357Y0065425D01*
X0119302Y0065452D01*
X0119250Y0065481D01*
X0119199Y0065514D01*
X0119150Y0065550D01*
X0119104Y0065588D01*
X0119060Y0065630D01*
X0119018Y0065674D01*
X0118980Y0065720D01*
X0118944Y0065769D01*
X0118911Y0065820D01*
X0118882Y0065872D01*
X0118855Y0065927D01*
X0118832Y0065982D01*
X0118812Y0066039D01*
X0118796Y0066098D01*
X0118783Y0066157D01*
X0118774Y0066216D01*
X0118769Y0066277D01*
X0118767Y0066337D01*
X0118767Y0074337D01*
X0118769Y0074397D01*
X0118774Y0074458D01*
X0118783Y0074517D01*
X0118796Y0074576D01*
X0118812Y0074635D01*
X0118832Y0074692D01*
X0118855Y0074747D01*
X0118882Y0074802D01*
X0118911Y0074854D01*
X0118944Y0074905D01*
X0118980Y0074954D01*
X0119018Y0075000D01*
X0119060Y0075044D01*
X0119104Y0075086D01*
X0119150Y0075124D01*
X0119199Y0075160D01*
X0119250Y0075193D01*
X0119302Y0075222D01*
X0119357Y0075249D01*
X0119412Y0075272D01*
X0119469Y0075292D01*
X0119528Y0075308D01*
X0119587Y0075321D01*
X0119646Y0075330D01*
X0119707Y0075335D01*
X0119767Y0075337D01*
X0128767Y0074337D02*
X0128767Y0066337D01*
X0128769Y0066277D01*
X0128774Y0066216D01*
X0128783Y0066157D01*
X0128796Y0066098D01*
X0128812Y0066039D01*
X0128832Y0065982D01*
X0128855Y0065927D01*
X0128882Y0065872D01*
X0128911Y0065820D01*
X0128944Y0065769D01*
X0128980Y0065720D01*
X0129018Y0065674D01*
X0129060Y0065630D01*
X0129104Y0065588D01*
X0129150Y0065550D01*
X0129199Y0065514D01*
X0129250Y0065481D01*
X0129302Y0065452D01*
X0129357Y0065425D01*
X0129412Y0065402D01*
X0129469Y0065382D01*
X0129528Y0065366D01*
X0129587Y0065353D01*
X0129646Y0065344D01*
X0129707Y0065339D01*
X0129767Y0065337D01*
X0132767Y0065337D01*
X0132827Y0065339D01*
X0132888Y0065344D01*
X0132947Y0065353D01*
X0133006Y0065366D01*
X0133065Y0065382D01*
X0133122Y0065402D01*
X0133177Y0065425D01*
X0133232Y0065452D01*
X0133284Y0065481D01*
X0133335Y0065514D01*
X0133384Y0065550D01*
X0133430Y0065588D01*
X0133474Y0065630D01*
X0133516Y0065674D01*
X0133554Y0065720D01*
X0133590Y0065769D01*
X0133623Y0065820D01*
X0133652Y0065872D01*
X0133679Y0065927D01*
X0133702Y0065982D01*
X0133722Y0066039D01*
X0133738Y0066098D01*
X0133751Y0066157D01*
X0133760Y0066216D01*
X0133765Y0066277D01*
X0133767Y0066337D01*
X0133767Y0074337D01*
X0133765Y0074397D01*
X0133760Y0074458D01*
X0133751Y0074517D01*
X0133738Y0074576D01*
X0133722Y0074635D01*
X0133702Y0074692D01*
X0133679Y0074747D01*
X0133652Y0074802D01*
X0133623Y0074854D01*
X0133590Y0074905D01*
X0133554Y0074954D01*
X0133516Y0075000D01*
X0133474Y0075044D01*
X0133430Y0075086D01*
X0133384Y0075124D01*
X0133335Y0075160D01*
X0133284Y0075193D01*
X0133232Y0075222D01*
X0133177Y0075249D01*
X0133122Y0075272D01*
X0133065Y0075292D01*
X0133006Y0075308D01*
X0132947Y0075321D01*
X0132888Y0075330D01*
X0132827Y0075335D01*
X0132767Y0075337D01*
X0129767Y0075337D01*
X0129707Y0075335D01*
X0129646Y0075330D01*
X0129587Y0075321D01*
X0129528Y0075308D01*
X0129469Y0075292D01*
X0129412Y0075272D01*
X0129357Y0075249D01*
X0129302Y0075222D01*
X0129250Y0075193D01*
X0129199Y0075160D01*
X0129150Y0075124D01*
X0129104Y0075086D01*
X0129060Y0075044D01*
X0129018Y0075000D01*
X0128980Y0074954D01*
X0128944Y0074905D01*
X0128911Y0074854D01*
X0128882Y0074802D01*
X0128855Y0074747D01*
X0128832Y0074692D01*
X0128812Y0074635D01*
X0128796Y0074576D01*
X0128783Y0074517D01*
X0128774Y0074458D01*
X0128769Y0074397D01*
X0128767Y0074337D01*
X0101267Y0045337D02*
X0081267Y0045337D01*
X0081267Y0035337D01*
X0101267Y0035337D01*
X0101267Y0045337D01*
D18*
X0097017Y0100337D03*
X0085517Y0100337D03*
X0067017Y0100337D03*
X0055517Y0100337D03*
D19*
X0021267Y0076087D03*
X0021267Y0064587D03*
X0121267Y0064587D03*
X0131267Y0064587D03*
X0131267Y0076087D03*
X0121267Y0076087D03*
D20*
X0011267Y0043837D03*
D21*
X0043393Y0033644D02*
X0079141Y0033644D01*
X0079141Y0030770D02*
X0079141Y0056258D01*
X0043393Y0056258D01*
X0043393Y0030770D01*
X0043393Y0022896D01*
X0047723Y0022896D01*
X0047723Y0030376D01*
X0043393Y0030770D02*
X0079141Y0030770D01*
X0067152Y0030376D02*
X0067152Y0016361D01*
X0065184Y0015180D01*
X0057349Y0015180D01*
X0055381Y0016361D01*
X0055381Y0030376D01*
X0055775Y0027522D02*
X0066759Y0029589D01*
X0066759Y0027620D02*
X0055775Y0025554D01*
X0055775Y0023585D02*
X0066759Y0025652D01*
X0066759Y0023683D02*
X0055775Y0021617D01*
X0055775Y0019648D02*
X0066759Y0021715D01*
X0066759Y0019746D02*
X0055775Y0017680D01*
X0056660Y0015869D02*
X0066759Y0017935D01*
X0065184Y0015180D02*
X0065184Y0001400D01*
X0057349Y0001400D01*
X0057349Y0015180D01*
D22*
X0090517Y0050337D03*
X0090517Y0050337D03*
X0112017Y0050337D03*
X0112017Y0050337D03*
M02*
