%
M48
M72
T01C0.03543
%
T01
X1100Y1100
X1100Y2100
X3100Y2100
X4100Y2100
X5100Y2100
X3100Y3100
X2100Y3100
X2100Y4100
X3100Y4100
X4100Y4100
X5100Y4100
X6100Y4100
X7100Y3100
X8100Y3100
X9100Y3100
X11100Y3100
X11100Y4100
X9100Y5100
X8100Y5100
X8100Y4100
X8100Y2100
X8100Y1100
X12100Y1100
X12100Y2100
X15100Y2100
X15100Y1100
X15100Y4100
X15100Y5100
X13100Y5100
X13100Y6100
X15100Y6100
X9100Y6100
X8100Y6100
X6100Y6100
X5100Y6100
X4100Y6100
X3100Y6100
X2100Y5100
M30
