G75*
%MOIN*%
%OFA0B0*%
%FSLAX25Y25*%
%IPPOS*%
%LPD*%
%AMOC8*
5,1,8,0,0,1.08239X$1,22.5*
%
%ADD10C,0.00000*%
%ADD11C,0.05543*%
%ADD12R,0.04756X0.04756*%
%ADD13R,0.07500X0.07500*%
%ADD14C,0.07000*%
%ADD15OC8,0.07000*%
%ADD16R,0.07000X0.07000*%
%ADD17OC8,0.05150*%
%ADD18C,0.05000*%
%ADD19R,0.03962X0.03962*%
D10*
X0050837Y0034690D02*
X0050837Y0144690D01*
X0160837Y0144690D01*
X0160837Y0034690D01*
X0050837Y0034690D01*
D11*
X0070837Y0064690D03*
X0100837Y0064690D03*
X0110837Y0054690D03*
X0140837Y0054690D03*
X0150837Y0084690D03*
X0150837Y0094690D03*
X0120837Y0094690D03*
X0120837Y0084690D03*
X0100837Y0094690D03*
X0100837Y0104690D03*
X0100837Y0114690D03*
X0080837Y0114690D03*
X0070837Y0104690D03*
X0060837Y0094690D03*
X0080837Y0094690D03*
D12*
X0060837Y0084690D03*
X0070837Y0074690D03*
X0100837Y0074690D03*
D13*
X0150837Y0124690D03*
D14*
X0130837Y0124690D03*
X0110837Y0104690D03*
X0110837Y0094690D03*
X0110837Y0084690D03*
X0150837Y0074690D03*
X0150837Y0064690D03*
X0150837Y0054690D03*
X0150837Y0044690D03*
X0060837Y0104690D03*
X0060837Y0114690D03*
X0060837Y0124690D03*
X0070837Y0124690D03*
X0080837Y0124690D03*
D15*
X0080837Y0044690D03*
X0070837Y0044690D03*
D16*
X0060837Y0044690D03*
D17*
X0110837Y0114690D03*
X0110837Y0124690D03*
X0110837Y0134690D03*
D18*
X0120837Y0064690D02*
X0140837Y0064690D01*
D19*
X0140837Y0064690D03*
X0120837Y0064690D03*
M02*
