G75*
%MOIN*%
%OFA0B0*%
%FSLAX25Y25*%
%IPPOS*%
%LPD*%
%AMOC8*
5,1,8,0,0,1.08239X$1,22.5*
%
%ADD10C,0.00000*%
%ADD11R,0.07000X0.07000*%
%ADD12C,0.07000*%
%ADD13R,0.05543X0.05543*%
D10*
X0001000Y0001000D02*
X0001000Y0071000D01*
X0161000Y0071000D01*
X0161000Y0001000D01*
X0001000Y0001000D01*
D11*
X0011000Y0011000D03*
X0021000Y0031000D03*
X0151000Y0011000D03*
X0151000Y0061000D03*
D12*
X0131000Y0061000D03*
X0131000Y0051000D03*
X0151000Y0051000D03*
X0151000Y0041000D03*
X0111000Y0041000D03*
X0091000Y0031000D03*
X0081000Y0031000D03*
X0071000Y0031000D03*
X0061000Y0041000D03*
X0051000Y0041000D03*
X0031000Y0041000D03*
X0021000Y0041000D03*
X0031000Y0031000D03*
X0031000Y0021000D03*
X0041000Y0021000D03*
X0051000Y0021000D03*
X0081000Y0021000D03*
X0081000Y0011000D03*
X0121000Y0011000D03*
X0151000Y0021000D03*
X0091000Y0051000D03*
X0081000Y0051000D03*
X0081000Y0041000D03*
X0081000Y0061000D03*
X0091000Y0061000D03*
X0061000Y0061000D03*
X0051000Y0061000D03*
X0031000Y0061000D03*
X0021000Y0051000D03*
X0011000Y0021000D03*
D13*
X0041000Y0041000D03*
X0041000Y0061000D03*
X0111000Y0031000D03*
X0121000Y0021000D03*
M02*
