%
M48
M72
T01C0.02362
T02C0.02756
T03C0.03150
T04C0.03543
%
T01
X12533Y2683
T02
X14033Y5183
X6033Y6183
T03
X6033Y4183
X13033Y3183
T04
X4033Y1183
X4033Y2183
X5033Y2183
X6033Y2183
X7033Y2183
X6033Y3183
X4033Y3183
X4033Y4183
X5033Y4183
X7033Y4183
X9033Y4183
X10033Y4183
X11033Y4183
X13033Y4183
X13033Y5183
X11033Y5183
X10033Y5183
X9033Y5183
X7033Y5183
X5033Y6183
X4033Y5183
X9033Y3183
X10033Y3183
X11033Y3183
X10033Y2183
X12033Y2183
X10033Y1183
X14033Y1183
X15033Y1183
X15033Y2183
X14033Y3183
X15033Y5183
X15033Y6183
X10033Y6183
M30
