%
M48
M72
T01C0.03543
%
T01
X1125Y1125
X1125Y2125
X3125Y2125
X4125Y2125
X5125Y2125
X3125Y3125
X2125Y3125
X2125Y4125
X3125Y4125
X4125Y4125
X5125Y4125
X6125Y4125
X7125Y3125
X8125Y3125
X9125Y3125
X11125Y3125
X11125Y4125
X9125Y5125
X8125Y5125
X8125Y4125
X8125Y2125
X8125Y1125
X12125Y1125
X12125Y2125
X15125Y2125
X15125Y1125
X15125Y4125
X15125Y5125
X13125Y5125
X13125Y6125
X15125Y6125
X9125Y6125
X8125Y6125
X6125Y6125
X5125Y6125
X4125Y6125
X3125Y6125
X2125Y5125
M30
