%
M48
M72
T01C0.02756
T02C0.03150
T03C0.03543
%
T01
X12033Y3183
X6033Y6183
T02
X6033Y4183
X13033Y4183
T03
X3033Y1183
X4033Y1183
X6033Y1183
X6033Y2183
X6033Y3183
X7033Y3183
X9033Y3183
X10033Y3183
X10033Y2183
X10033Y1183
X12033Y1183
X14033Y2183
X15033Y2183
X15033Y1183
X11033Y4183
X10033Y4183
X10033Y5183
X9033Y5183
X7033Y5183
X6033Y5183
X7033Y4183
X4033Y4183
X4033Y5183
X4033Y6183
X6033Y7183
X10033Y7183
X10033Y6183
X11033Y5183
X13033Y5183
X14033Y5183
X14033Y6183
X15033Y6183
X15033Y7183
X12033Y6183
M30
