G75*
%MOIN*%
%OFA0B0*%
%FSLAX25Y25*%
%IPPOS*%
%LPD*%
%AMOC8*
5,1,8,0,0,1.08239X$1,22.5*
%
%ADD10C,0.00500*%
%ADD11R,0.07000X0.07000*%
%ADD12C,0.07000*%
%ADD13R,0.05543X0.05543*%
D10*
X0001250Y0001250D02*
X0161250Y0001250D01*
X0161250Y0071250D01*
X0001250Y0071250D01*
X0001250Y0001250D01*
D11*
X0011250Y0021250D03*
X0021250Y0051250D03*
X0151250Y0061250D03*
X0151250Y0011250D03*
D12*
X0151250Y0021250D03*
X0121250Y0011250D03*
X0081250Y0011250D03*
X0081250Y0021250D03*
X0081250Y0031250D03*
X0091250Y0031250D03*
X0081250Y0041250D03*
X0071250Y0031250D03*
X0061250Y0041250D03*
X0051250Y0041250D03*
X0031250Y0041250D03*
X0021250Y0041250D03*
X0021250Y0031250D03*
X0031250Y0031250D03*
X0031250Y0021250D03*
X0041250Y0021250D03*
X0051250Y0021250D03*
X0011250Y0011250D03*
X0081250Y0051250D03*
X0091250Y0051250D03*
X0091250Y0061250D03*
X0081250Y0061250D03*
X0061250Y0061250D03*
X0051250Y0061250D03*
X0031250Y0061250D03*
X0111250Y0041250D03*
X0131250Y0051250D03*
X0151250Y0051250D03*
X0151250Y0041250D03*
X0131250Y0061250D03*
D13*
X0111250Y0031250D03*
X0121250Y0021250D03*
X0041250Y0041250D03*
X0041250Y0061250D03*
M02*
