%
M48
M72
T01C0.03200
T02C0.03543
T03C0.04000
T04C0.05200
%
T01
X11593Y23600
X12593Y23600
X13593Y23600
X15593Y23600
X16593Y23600
X17593Y23600
X18593Y23600
X18593Y26600
X17593Y26600
X16593Y26600
X15593Y26600
X13593Y26600
X12593Y26600
X11593Y26600
X33093Y48600
X34093Y48600
X33593Y49350
T02
X9093Y2600
X14093Y2600
X17404Y5312
X16093Y6900
X17384Y7812
X14093Y7840
X11093Y6900
X9093Y7840
X17404Y10312
X23782Y10312
X24904Y10312
X24884Y7812
X23762Y7812
X23782Y5312
X24904Y5312
X31282Y5312
X32404Y5312
X32384Y7812
X31262Y7812
X31282Y10312
X32404Y10312
X38782Y10312
X38762Y7812
X38782Y5312
X37593Y16131
X35593Y16131
X29593Y16131
X27593Y16131
X21593Y16131
X19593Y16131
X13593Y16131
X11593Y16131
X7493Y19100
X5585Y20166
X5585Y20954
X4601Y20954
X4601Y20166
X2693Y19100
X9632Y20052
X10593Y21013
X14593Y21013
X15593Y20052
X17632Y20052
X18593Y21013
X22593Y21013
X23593Y20052
X25632Y20052
X26593Y21013
X30593Y21013
X31593Y20052
X33632Y20052
X34593Y21013
X38593Y21013
X39593Y20052
X38593Y23700
X36782Y24823
X38593Y26100
X32593Y25600
X30593Y25600
X25593Y25600
X23593Y25600
X21593Y25100
X19593Y25100
X20593Y24100
X20093Y32100
X19093Y32100
X17593Y32100
X16593Y32100
X15093Y32100
X14093Y32100
X12393Y32100
X10793Y32100
X10593Y35600
X9593Y35600
X6093Y35600
X5093Y35600
X5493Y38600
X6693Y38600
X9493Y38600
X10693Y38600
X13493Y38600
X14393Y38600
X18793Y38600
X19893Y38600
X24293Y38600
X25393Y38600
X29793Y38600
X30893Y38600
X35293Y38600
X36593Y38600
X37593Y38600
X37193Y41600
X35993Y41600
X33193Y41600
X34093Y44100
X35093Y44100
X37093Y44100
X38093Y44100
X40093Y44100
X40093Y46600
X38093Y46600
X37093Y46600
X35093Y46600
X34093Y46600
X32093Y46600
X31093Y46600
X29093Y46600
X28093Y46600
X26093Y46600
X25093Y46600
X23093Y46600
X22093Y46600
X20093Y46600
X19093Y46600
X17093Y46600
X16093Y46600
X14093Y46600
X13093Y46600
X11093Y46600
X10093Y46600
X8093Y46600
X7093Y46600
X5093Y46600
X4093Y46600
X2093Y46600
X2093Y44100
X4093Y44100
X5093Y44100
X7093Y44100
X8093Y44100
X10093Y44100
X11093Y44100
X13093Y44100
X14093Y44100
X16093Y44100
X17093Y44100
X19093Y44100
X20093Y44100
X22093Y44100
X23093Y44100
X25093Y44100
X26093Y44100
X28093Y44100
X29093Y44100
X31093Y44100
X32093Y44100
X39993Y41600
X28093Y48600
X27093Y48600
X26093Y48600
X22093Y48600
X21093Y48600
X20093Y48600
X16093Y41100
X14093Y41100
X13093Y41100
X11093Y41100
X10093Y41100
X8093Y41100
X7093Y41100
X5093Y41100
X4093Y41100
X2093Y41100
X2693Y38600
X14093Y35600
X15093Y35600
X18593Y35600
X19593Y35600
X23593Y35600
X24593Y35600
X24093Y32100
X25093Y32100
X26593Y32100
X27593Y32100
X22593Y32100
X21593Y32100
X3093Y25100
X2093Y25100
X1093Y25100
X38093Y49100
X40093Y49100
T03
X32093Y41100
X31093Y41100
X30093Y41100
X28093Y41100
X27093Y41100
X26093Y41100
X24093Y41100
X23093Y41100
X22093Y41100
X20093Y41100
X19093Y41100
X18093Y41100
X28593Y35600
X29593Y35600
X30593Y35600
X31593Y35600
X32593Y35600
X33593Y35600
X34593Y35600
X35593Y35600
X36593Y35600
X37593Y35600
X38593Y35600
X39593Y35600
X39093Y32600
X38093Y32600
X37093Y32600
T04
X36593Y20092
X28593Y20092
X20593Y20092
X12593Y20092
M30
