G75*
%MOIN*%
%OFA0B0*%
%FSLAX25Y25*%
%IPPOS*%
%LPD*%
%AMOC8*
5,1,8,0,0,1.08239X$1,22.5*
%
%ADD10C,0.00500*%
D10*
X0059700Y0068337D02*
X0059840Y0068339D01*
X0059980Y0068345D01*
X0060120Y0068355D01*
X0060260Y0068368D01*
X0060399Y0068386D01*
X0060538Y0068408D01*
X0060675Y0068433D01*
X0060813Y0068462D01*
X0060949Y0068495D01*
X0061084Y0068532D01*
X0061218Y0068573D01*
X0061351Y0068618D01*
X0061483Y0068666D01*
X0061613Y0068718D01*
X0061742Y0068773D01*
X0061869Y0068832D01*
X0061995Y0068895D01*
X0062119Y0068961D01*
X0062240Y0069030D01*
X0062360Y0069103D01*
X0062478Y0069180D01*
X0062593Y0069259D01*
X0062707Y0069342D01*
X0062817Y0069428D01*
X0062926Y0069517D01*
X0063032Y0069609D01*
X0063135Y0069704D01*
X0063236Y0069801D01*
X0063333Y0069902D01*
X0063428Y0070005D01*
X0063520Y0070111D01*
X0063609Y0070220D01*
X0063695Y0070330D01*
X0063778Y0070444D01*
X0063857Y0070559D01*
X0063934Y0070677D01*
X0064007Y0070797D01*
X0064076Y0070918D01*
X0064142Y0071042D01*
X0064205Y0071168D01*
X0064264Y0071295D01*
X0064319Y0071424D01*
X0064371Y0071554D01*
X0064419Y0071686D01*
X0064464Y0071819D01*
X0064505Y0071953D01*
X0064542Y0072088D01*
X0064575Y0072224D01*
X0064604Y0072362D01*
X0064629Y0072499D01*
X0064651Y0072638D01*
X0064669Y0072777D01*
X0064682Y0072917D01*
X0064692Y0073057D01*
X0064698Y0073197D01*
X0064700Y0073337D01*
X0064698Y0073477D01*
X0064692Y0073617D01*
X0064682Y0073757D01*
X0064669Y0073897D01*
X0064651Y0074036D01*
X0064629Y0074175D01*
X0064604Y0074312D01*
X0064575Y0074450D01*
X0064542Y0074586D01*
X0064505Y0074721D01*
X0064464Y0074855D01*
X0064419Y0074988D01*
X0064371Y0075120D01*
X0064319Y0075250D01*
X0064264Y0075379D01*
X0064205Y0075506D01*
X0064142Y0075632D01*
X0064076Y0075756D01*
X0064007Y0075877D01*
X0063934Y0075997D01*
X0063857Y0076115D01*
X0063778Y0076230D01*
X0063695Y0076344D01*
X0063609Y0076454D01*
X0063520Y0076563D01*
X0063428Y0076669D01*
X0063333Y0076772D01*
X0063236Y0076873D01*
X0063135Y0076970D01*
X0063032Y0077065D01*
X0062926Y0077157D01*
X0062817Y0077246D01*
X0062707Y0077332D01*
X0062593Y0077415D01*
X0062478Y0077494D01*
X0062360Y0077571D01*
X0062240Y0077644D01*
X0062119Y0077713D01*
X0061995Y0077779D01*
X0061869Y0077842D01*
X0061742Y0077901D01*
X0061613Y0077956D01*
X0061483Y0078008D01*
X0061351Y0078056D01*
X0061218Y0078101D01*
X0061084Y0078142D01*
X0060949Y0078179D01*
X0060813Y0078212D01*
X0060675Y0078241D01*
X0060538Y0078266D01*
X0060399Y0078288D01*
X0060260Y0078306D01*
X0060120Y0078319D01*
X0059980Y0078329D01*
X0059840Y0078335D01*
X0059700Y0078337D01*
X0064700Y0078337D02*
X0064698Y0078477D01*
X0064692Y0078617D01*
X0064682Y0078757D01*
X0064669Y0078897D01*
X0064651Y0079036D01*
X0064629Y0079175D01*
X0064604Y0079312D01*
X0064575Y0079450D01*
X0064542Y0079586D01*
X0064505Y0079721D01*
X0064464Y0079855D01*
X0064419Y0079988D01*
X0064371Y0080120D01*
X0064319Y0080250D01*
X0064264Y0080379D01*
X0064205Y0080506D01*
X0064142Y0080632D01*
X0064076Y0080756D01*
X0064007Y0080877D01*
X0063934Y0080997D01*
X0063857Y0081115D01*
X0063778Y0081230D01*
X0063695Y0081344D01*
X0063609Y0081454D01*
X0063520Y0081563D01*
X0063428Y0081669D01*
X0063333Y0081772D01*
X0063236Y0081873D01*
X0063135Y0081970D01*
X0063032Y0082065D01*
X0062926Y0082157D01*
X0062817Y0082246D01*
X0062707Y0082332D01*
X0062593Y0082415D01*
X0062478Y0082494D01*
X0062360Y0082571D01*
X0062240Y0082644D01*
X0062119Y0082713D01*
X0061995Y0082779D01*
X0061869Y0082842D01*
X0061742Y0082901D01*
X0061613Y0082956D01*
X0061483Y0083008D01*
X0061351Y0083056D01*
X0061218Y0083101D01*
X0061084Y0083142D01*
X0060949Y0083179D01*
X0060813Y0083212D01*
X0060675Y0083241D01*
X0060538Y0083266D01*
X0060399Y0083288D01*
X0060260Y0083306D01*
X0060120Y0083319D01*
X0059980Y0083329D01*
X0059840Y0083335D01*
X0059700Y0083337D01*
X0064700Y0083337D02*
X0064698Y0083477D01*
X0064692Y0083617D01*
X0064682Y0083757D01*
X0064669Y0083897D01*
X0064651Y0084036D01*
X0064629Y0084175D01*
X0064604Y0084312D01*
X0064575Y0084450D01*
X0064542Y0084586D01*
X0064505Y0084721D01*
X0064464Y0084855D01*
X0064419Y0084988D01*
X0064371Y0085120D01*
X0064319Y0085250D01*
X0064264Y0085379D01*
X0064205Y0085506D01*
X0064142Y0085632D01*
X0064076Y0085756D01*
X0064007Y0085877D01*
X0063934Y0085997D01*
X0063857Y0086115D01*
X0063778Y0086230D01*
X0063695Y0086344D01*
X0063609Y0086454D01*
X0063520Y0086563D01*
X0063428Y0086669D01*
X0063333Y0086772D01*
X0063236Y0086873D01*
X0063135Y0086970D01*
X0063032Y0087065D01*
X0062926Y0087157D01*
X0062817Y0087246D01*
X0062707Y0087332D01*
X0062593Y0087415D01*
X0062478Y0087494D01*
X0062360Y0087571D01*
X0062240Y0087644D01*
X0062119Y0087713D01*
X0061995Y0087779D01*
X0061869Y0087842D01*
X0061742Y0087901D01*
X0061613Y0087956D01*
X0061483Y0088008D01*
X0061351Y0088056D01*
X0061218Y0088101D01*
X0061084Y0088142D01*
X0060949Y0088179D01*
X0060813Y0088212D01*
X0060675Y0088241D01*
X0060538Y0088266D01*
X0060399Y0088288D01*
X0060260Y0088306D01*
X0060120Y0088319D01*
X0059980Y0088329D01*
X0059840Y0088335D01*
X0059700Y0088337D01*
X0064700Y0088337D02*
X0064698Y0088477D01*
X0064692Y0088617D01*
X0064682Y0088757D01*
X0064669Y0088897D01*
X0064651Y0089036D01*
X0064629Y0089175D01*
X0064604Y0089312D01*
X0064575Y0089450D01*
X0064542Y0089586D01*
X0064505Y0089721D01*
X0064464Y0089855D01*
X0064419Y0089988D01*
X0064371Y0090120D01*
X0064319Y0090250D01*
X0064264Y0090379D01*
X0064205Y0090506D01*
X0064142Y0090632D01*
X0064076Y0090756D01*
X0064007Y0090877D01*
X0063934Y0090997D01*
X0063857Y0091115D01*
X0063778Y0091230D01*
X0063695Y0091344D01*
X0063609Y0091454D01*
X0063520Y0091563D01*
X0063428Y0091669D01*
X0063333Y0091772D01*
X0063236Y0091873D01*
X0063135Y0091970D01*
X0063032Y0092065D01*
X0062926Y0092157D01*
X0062817Y0092246D01*
X0062707Y0092332D01*
X0062593Y0092415D01*
X0062478Y0092494D01*
X0062360Y0092571D01*
X0062240Y0092644D01*
X0062119Y0092713D01*
X0061995Y0092779D01*
X0061869Y0092842D01*
X0061742Y0092901D01*
X0061613Y0092956D01*
X0061483Y0093008D01*
X0061351Y0093056D01*
X0061218Y0093101D01*
X0061084Y0093142D01*
X0060949Y0093179D01*
X0060813Y0093212D01*
X0060675Y0093241D01*
X0060538Y0093266D01*
X0060399Y0093288D01*
X0060260Y0093306D01*
X0060120Y0093319D01*
X0059980Y0093329D01*
X0059840Y0093335D01*
X0059700Y0093337D01*
M02*
