%
M48
M72
T01C0.02362
T02C0.02756
T03C0.03150
T04C0.03543
%
T01
X4320Y3420
X7320Y3420
X10320Y1420
X8320Y6420
X8320Y7420
X10320Y7420
X3320Y7420
X3320Y6420
T02
X8320Y1420
T03
X8320Y8420
X7320Y8420
X6320Y8420
X5320Y8420
X4320Y8420
X9320Y8420
X10320Y8420
X11320Y8420
X12320Y8420
X13320Y8420
T04
X2320Y2420
X2320Y4420
X4320Y4420
X4320Y5420
X6320Y5420
X7320Y4420
X8320Y3420
X11320Y1420
X13320Y2420
X12320Y3420
X13320Y4420
X12320Y5420
X11320Y7420
X15320Y4420
X15320Y2420
X2320Y6420
X2320Y7420
X2320Y8420
M30
