G75*
%MOIN*%
%OFA0B0*%
%FSLAX25Y25*%
%IPPOS*%
%LPD*%
%AMOC8*
5,1,8,0,0,1.08239X$1,22.5*
%
%ADD10C,0.00400*%
%ADD11R,0.04000X0.01000*%
%ADD12C,0.00300*%
%ADD13C,0.00600*%
%ADD14R,0.06400X0.01000*%
%ADD15R,0.05000X0.01000*%
%ADD16R,0.01000X0.02500*%
%ADD17C,0.00500*%
%ADD18R,0.02000X0.01500*%
D10*
X0076897Y0012357D02*
X0076897Y0014159D01*
X0077497Y0014759D01*
X0078698Y0014759D01*
X0079299Y0014159D01*
X0079299Y0012357D01*
X0080500Y0012357D02*
X0076897Y0012357D01*
X0076897Y0016040D02*
X0080500Y0016040D01*
X0079299Y0017241D01*
X0080500Y0018442D01*
X0076897Y0018442D01*
X0076897Y0019723D02*
X0076897Y0021525D01*
X0077497Y0022125D01*
X0078698Y0022125D01*
X0079299Y0021525D01*
X0079299Y0019723D01*
X0080500Y0019723D02*
X0076897Y0019723D01*
X0079299Y0020924D02*
X0080500Y0022125D01*
X0106700Y0025682D02*
X0106700Y0039682D01*
X0106702Y0039758D01*
X0106708Y0039834D01*
X0106717Y0039909D01*
X0106731Y0039984D01*
X0106748Y0040058D01*
X0106769Y0040131D01*
X0106793Y0040203D01*
X0106822Y0040274D01*
X0106853Y0040343D01*
X0106888Y0040410D01*
X0106927Y0040475D01*
X0106969Y0040539D01*
X0107014Y0040600D01*
X0107062Y0040659D01*
X0107113Y0040715D01*
X0107167Y0040769D01*
X0107223Y0040820D01*
X0107282Y0040868D01*
X0107343Y0040913D01*
X0107407Y0040955D01*
X0107472Y0040994D01*
X0107539Y0041029D01*
X0107608Y0041060D01*
X0107679Y0041089D01*
X0107751Y0041113D01*
X0107824Y0041134D01*
X0107898Y0041151D01*
X0107973Y0041165D01*
X0108048Y0041174D01*
X0108124Y0041180D01*
X0108200Y0041182D01*
X0110200Y0041182D01*
X0110276Y0041180D01*
X0110352Y0041174D01*
X0110427Y0041165D01*
X0110502Y0041151D01*
X0110576Y0041134D01*
X0110649Y0041113D01*
X0110721Y0041089D01*
X0110792Y0041060D01*
X0110861Y0041029D01*
X0110928Y0040994D01*
X0110993Y0040955D01*
X0111057Y0040913D01*
X0111118Y0040868D01*
X0111177Y0040820D01*
X0111233Y0040769D01*
X0111287Y0040715D01*
X0111338Y0040659D01*
X0111386Y0040600D01*
X0111431Y0040539D01*
X0111473Y0040475D01*
X0111512Y0040410D01*
X0111547Y0040343D01*
X0111578Y0040274D01*
X0111607Y0040203D01*
X0111631Y0040131D01*
X0111652Y0040058D01*
X0111669Y0039984D01*
X0111683Y0039909D01*
X0111692Y0039834D01*
X0111698Y0039758D01*
X0111700Y0039682D01*
X0111700Y0025682D01*
X0111698Y0025606D01*
X0111692Y0025530D01*
X0111683Y0025455D01*
X0111669Y0025380D01*
X0111652Y0025306D01*
X0111631Y0025233D01*
X0111607Y0025161D01*
X0111578Y0025090D01*
X0111547Y0025021D01*
X0111512Y0024954D01*
X0111473Y0024889D01*
X0111431Y0024825D01*
X0111386Y0024764D01*
X0111338Y0024705D01*
X0111287Y0024649D01*
X0111233Y0024595D01*
X0111177Y0024544D01*
X0111118Y0024496D01*
X0111057Y0024451D01*
X0110993Y0024409D01*
X0110928Y0024370D01*
X0110861Y0024335D01*
X0110792Y0024304D01*
X0110721Y0024275D01*
X0110649Y0024251D01*
X0110576Y0024230D01*
X0110502Y0024213D01*
X0110427Y0024199D01*
X0110352Y0024190D01*
X0110276Y0024184D01*
X0110200Y0024182D01*
X0108200Y0024182D01*
X0108124Y0024184D01*
X0108048Y0024190D01*
X0107973Y0024199D01*
X0107898Y0024213D01*
X0107824Y0024230D01*
X0107751Y0024251D01*
X0107679Y0024275D01*
X0107608Y0024304D01*
X0107539Y0024335D01*
X0107472Y0024370D01*
X0107407Y0024409D01*
X0107343Y0024451D01*
X0107282Y0024496D01*
X0107223Y0024544D01*
X0107167Y0024595D01*
X0107113Y0024649D01*
X0107062Y0024705D01*
X0107014Y0024764D01*
X0106969Y0024825D01*
X0106927Y0024889D01*
X0106888Y0024954D01*
X0106853Y0025021D01*
X0106822Y0025090D01*
X0106793Y0025161D01*
X0106769Y0025233D01*
X0106748Y0025306D01*
X0106731Y0025380D01*
X0106717Y0025455D01*
X0106708Y0025530D01*
X0106702Y0025606D01*
X0106700Y0025682D01*
X0116700Y0029682D02*
X0116700Y0035682D01*
X0116702Y0035769D01*
X0116708Y0035856D01*
X0116717Y0035943D01*
X0116730Y0036029D01*
X0116747Y0036115D01*
X0116768Y0036200D01*
X0116793Y0036283D01*
X0116821Y0036366D01*
X0116852Y0036447D01*
X0116887Y0036527D01*
X0116926Y0036605D01*
X0116968Y0036682D01*
X0117013Y0036757D01*
X0117062Y0036829D01*
X0117113Y0036900D01*
X0117168Y0036968D01*
X0117225Y0037033D01*
X0117286Y0037096D01*
X0117349Y0037157D01*
X0117414Y0037214D01*
X0117482Y0037269D01*
X0117553Y0037320D01*
X0117625Y0037369D01*
X0117700Y0037414D01*
X0117777Y0037456D01*
X0117855Y0037495D01*
X0117935Y0037530D01*
X0118016Y0037561D01*
X0118099Y0037589D01*
X0118182Y0037614D01*
X0118267Y0037635D01*
X0118353Y0037652D01*
X0118439Y0037665D01*
X0118526Y0037674D01*
X0118613Y0037680D01*
X0118700Y0037682D01*
X0119700Y0037682D01*
X0119787Y0037680D01*
X0119874Y0037674D01*
X0119961Y0037665D01*
X0120047Y0037652D01*
X0120133Y0037635D01*
X0120218Y0037614D01*
X0120301Y0037589D01*
X0120384Y0037561D01*
X0120465Y0037530D01*
X0120545Y0037495D01*
X0120623Y0037456D01*
X0120700Y0037414D01*
X0120775Y0037369D01*
X0120847Y0037320D01*
X0120918Y0037269D01*
X0120986Y0037214D01*
X0121051Y0037157D01*
X0121114Y0037096D01*
X0121175Y0037033D01*
X0121232Y0036968D01*
X0121287Y0036900D01*
X0121338Y0036829D01*
X0121387Y0036757D01*
X0121432Y0036682D01*
X0121474Y0036605D01*
X0121513Y0036527D01*
X0121548Y0036447D01*
X0121579Y0036366D01*
X0121607Y0036283D01*
X0121632Y0036200D01*
X0121653Y0036115D01*
X0121670Y0036029D01*
X0121683Y0035943D01*
X0121692Y0035856D01*
X0121698Y0035769D01*
X0121700Y0035682D01*
X0121700Y0029682D01*
X0121698Y0029595D01*
X0121692Y0029508D01*
X0121683Y0029421D01*
X0121670Y0029335D01*
X0121653Y0029249D01*
X0121632Y0029164D01*
X0121607Y0029081D01*
X0121579Y0028998D01*
X0121548Y0028917D01*
X0121513Y0028837D01*
X0121474Y0028759D01*
X0121432Y0028682D01*
X0121387Y0028607D01*
X0121338Y0028535D01*
X0121287Y0028464D01*
X0121232Y0028396D01*
X0121175Y0028331D01*
X0121114Y0028268D01*
X0121051Y0028207D01*
X0120986Y0028150D01*
X0120918Y0028095D01*
X0120847Y0028044D01*
X0120775Y0027995D01*
X0120700Y0027950D01*
X0120623Y0027908D01*
X0120545Y0027869D01*
X0120465Y0027834D01*
X0120384Y0027803D01*
X0120301Y0027775D01*
X0120218Y0027750D01*
X0120133Y0027729D01*
X0120047Y0027712D01*
X0119961Y0027699D01*
X0119874Y0027690D01*
X0119787Y0027684D01*
X0119700Y0027682D01*
X0118700Y0027682D01*
X0118613Y0027684D01*
X0118526Y0027690D01*
X0118439Y0027699D01*
X0118353Y0027712D01*
X0118267Y0027729D01*
X0118182Y0027750D01*
X0118099Y0027775D01*
X0118016Y0027803D01*
X0117935Y0027834D01*
X0117855Y0027869D01*
X0117777Y0027908D01*
X0117700Y0027950D01*
X0117625Y0027995D01*
X0117553Y0028044D01*
X0117482Y0028095D01*
X0117414Y0028150D01*
X0117349Y0028207D01*
X0117286Y0028268D01*
X0117225Y0028331D01*
X0117168Y0028396D01*
X0117113Y0028464D01*
X0117062Y0028535D01*
X0117013Y0028607D01*
X0116968Y0028682D01*
X0116926Y0028759D01*
X0116887Y0028837D01*
X0116852Y0028917D01*
X0116821Y0028998D01*
X0116793Y0029081D01*
X0116768Y0029164D01*
X0116747Y0029249D01*
X0116730Y0029335D01*
X0116717Y0029421D01*
X0116708Y0029508D01*
X0116702Y0029595D01*
X0116700Y0029682D01*
X0166700Y0025682D02*
X0166700Y0039682D01*
X0166702Y0039758D01*
X0166708Y0039834D01*
X0166717Y0039909D01*
X0166731Y0039984D01*
X0166748Y0040058D01*
X0166769Y0040131D01*
X0166793Y0040203D01*
X0166822Y0040274D01*
X0166853Y0040343D01*
X0166888Y0040410D01*
X0166927Y0040475D01*
X0166969Y0040539D01*
X0167014Y0040600D01*
X0167062Y0040659D01*
X0167113Y0040715D01*
X0167167Y0040769D01*
X0167223Y0040820D01*
X0167282Y0040868D01*
X0167343Y0040913D01*
X0167407Y0040955D01*
X0167472Y0040994D01*
X0167539Y0041029D01*
X0167608Y0041060D01*
X0167679Y0041089D01*
X0167751Y0041113D01*
X0167824Y0041134D01*
X0167898Y0041151D01*
X0167973Y0041165D01*
X0168048Y0041174D01*
X0168124Y0041180D01*
X0168200Y0041182D01*
X0170200Y0041182D01*
X0170276Y0041180D01*
X0170352Y0041174D01*
X0170427Y0041165D01*
X0170502Y0041151D01*
X0170576Y0041134D01*
X0170649Y0041113D01*
X0170721Y0041089D01*
X0170792Y0041060D01*
X0170861Y0041029D01*
X0170928Y0040994D01*
X0170993Y0040955D01*
X0171057Y0040913D01*
X0171118Y0040868D01*
X0171177Y0040820D01*
X0171233Y0040769D01*
X0171287Y0040715D01*
X0171338Y0040659D01*
X0171386Y0040600D01*
X0171431Y0040539D01*
X0171473Y0040475D01*
X0171512Y0040410D01*
X0171547Y0040343D01*
X0171578Y0040274D01*
X0171607Y0040203D01*
X0171631Y0040131D01*
X0171652Y0040058D01*
X0171669Y0039984D01*
X0171683Y0039909D01*
X0171692Y0039834D01*
X0171698Y0039758D01*
X0171700Y0039682D01*
X0171700Y0025682D01*
X0171698Y0025606D01*
X0171692Y0025530D01*
X0171683Y0025455D01*
X0171669Y0025380D01*
X0171652Y0025306D01*
X0171631Y0025233D01*
X0171607Y0025161D01*
X0171578Y0025090D01*
X0171547Y0025021D01*
X0171512Y0024954D01*
X0171473Y0024889D01*
X0171431Y0024825D01*
X0171386Y0024764D01*
X0171338Y0024705D01*
X0171287Y0024649D01*
X0171233Y0024595D01*
X0171177Y0024544D01*
X0171118Y0024496D01*
X0171057Y0024451D01*
X0170993Y0024409D01*
X0170928Y0024370D01*
X0170861Y0024335D01*
X0170792Y0024304D01*
X0170721Y0024275D01*
X0170649Y0024251D01*
X0170576Y0024230D01*
X0170502Y0024213D01*
X0170427Y0024199D01*
X0170352Y0024190D01*
X0170276Y0024184D01*
X0170200Y0024182D01*
X0168200Y0024182D01*
X0168124Y0024184D01*
X0168048Y0024190D01*
X0167973Y0024199D01*
X0167898Y0024213D01*
X0167824Y0024230D01*
X0167751Y0024251D01*
X0167679Y0024275D01*
X0167608Y0024304D01*
X0167539Y0024335D01*
X0167472Y0024370D01*
X0167407Y0024409D01*
X0167343Y0024451D01*
X0167282Y0024496D01*
X0167223Y0024544D01*
X0167167Y0024595D01*
X0167113Y0024649D01*
X0167062Y0024705D01*
X0167014Y0024764D01*
X0166969Y0024825D01*
X0166927Y0024889D01*
X0166888Y0024954D01*
X0166853Y0025021D01*
X0166822Y0025090D01*
X0166793Y0025161D01*
X0166769Y0025233D01*
X0166748Y0025306D01*
X0166731Y0025380D01*
X0166717Y0025455D01*
X0166708Y0025530D01*
X0166702Y0025606D01*
X0166700Y0025682D01*
X0178200Y0034182D02*
X0180200Y0034182D01*
X0180276Y0034184D01*
X0180352Y0034190D01*
X0180427Y0034199D01*
X0180502Y0034213D01*
X0180576Y0034230D01*
X0180649Y0034251D01*
X0180721Y0034275D01*
X0180792Y0034304D01*
X0180861Y0034335D01*
X0180928Y0034370D01*
X0180993Y0034409D01*
X0181057Y0034451D01*
X0181118Y0034496D01*
X0181177Y0034544D01*
X0181233Y0034595D01*
X0181287Y0034649D01*
X0181338Y0034705D01*
X0181386Y0034764D01*
X0181431Y0034825D01*
X0181473Y0034889D01*
X0181512Y0034954D01*
X0181547Y0035021D01*
X0181578Y0035090D01*
X0181607Y0035161D01*
X0181631Y0035233D01*
X0181652Y0035306D01*
X0181669Y0035380D01*
X0181683Y0035455D01*
X0181692Y0035530D01*
X0181698Y0035606D01*
X0181700Y0035682D01*
X0181700Y0049682D01*
X0181698Y0049758D01*
X0181692Y0049834D01*
X0181683Y0049909D01*
X0181669Y0049984D01*
X0181652Y0050058D01*
X0181631Y0050131D01*
X0181607Y0050203D01*
X0181578Y0050274D01*
X0181547Y0050343D01*
X0181512Y0050410D01*
X0181473Y0050475D01*
X0181431Y0050539D01*
X0181386Y0050600D01*
X0181338Y0050659D01*
X0181287Y0050715D01*
X0181233Y0050769D01*
X0181177Y0050820D01*
X0181118Y0050868D01*
X0181057Y0050913D01*
X0180993Y0050955D01*
X0180928Y0050994D01*
X0180861Y0051029D01*
X0180792Y0051060D01*
X0180721Y0051089D01*
X0180649Y0051113D01*
X0180576Y0051134D01*
X0180502Y0051151D01*
X0180427Y0051165D01*
X0180352Y0051174D01*
X0180276Y0051180D01*
X0180200Y0051182D01*
X0178200Y0051182D01*
X0178124Y0051180D01*
X0178048Y0051174D01*
X0177973Y0051165D01*
X0177898Y0051151D01*
X0177824Y0051134D01*
X0177751Y0051113D01*
X0177679Y0051089D01*
X0177608Y0051060D01*
X0177539Y0051029D01*
X0177472Y0050994D01*
X0177407Y0050955D01*
X0177343Y0050913D01*
X0177282Y0050868D01*
X0177223Y0050820D01*
X0177167Y0050769D01*
X0177113Y0050715D01*
X0177062Y0050659D01*
X0177014Y0050600D01*
X0176969Y0050539D01*
X0176927Y0050475D01*
X0176888Y0050410D01*
X0176853Y0050343D01*
X0176822Y0050274D01*
X0176793Y0050203D01*
X0176769Y0050131D01*
X0176748Y0050058D01*
X0176731Y0049984D01*
X0176717Y0049909D01*
X0176708Y0049834D01*
X0176702Y0049758D01*
X0176700Y0049682D01*
X0176700Y0035682D01*
X0176702Y0035606D01*
X0176708Y0035530D01*
X0176717Y0035455D01*
X0176731Y0035380D01*
X0176748Y0035306D01*
X0176769Y0035233D01*
X0176793Y0035161D01*
X0176822Y0035090D01*
X0176853Y0035021D01*
X0176888Y0034954D01*
X0176927Y0034889D01*
X0176969Y0034825D01*
X0177014Y0034764D01*
X0177062Y0034705D01*
X0177113Y0034649D01*
X0177167Y0034595D01*
X0177223Y0034544D01*
X0177282Y0034496D01*
X0177343Y0034451D01*
X0177407Y0034409D01*
X0177472Y0034370D01*
X0177539Y0034335D01*
X0177608Y0034304D01*
X0177679Y0034275D01*
X0177751Y0034251D01*
X0177824Y0034230D01*
X0177898Y0034213D01*
X0177973Y0034199D01*
X0178048Y0034190D01*
X0178124Y0034184D01*
X0178200Y0034182D01*
X0196897Y0034159D02*
X0196897Y0032958D01*
X0197497Y0032357D01*
X0199899Y0032357D01*
X0200500Y0032958D01*
X0200500Y0034159D01*
X0199899Y0034759D01*
X0197497Y0034759D01*
X0196897Y0034159D01*
X0196897Y0036040D02*
X0196897Y0038442D01*
X0196897Y0037241D02*
X0200500Y0037241D01*
X0199899Y0039723D02*
X0197497Y0039723D01*
X0196897Y0040324D01*
X0196897Y0041525D01*
X0197497Y0042125D01*
X0199899Y0042125D01*
X0200500Y0041525D01*
X0200500Y0040324D01*
X0199899Y0039723D01*
X0199299Y0043406D02*
X0199299Y0045208D01*
X0198698Y0045808D01*
X0197497Y0045808D01*
X0196897Y0045208D01*
X0196897Y0043406D01*
X0200500Y0043406D01*
X0199299Y0044607D02*
X0200500Y0045808D01*
X0200500Y0031076D02*
X0196897Y0031076D01*
X0198098Y0029875D01*
X0196897Y0028674D01*
X0200500Y0028674D01*
X0080000Y0065971D02*
X0080000Y0067172D01*
X0080000Y0066571D02*
X0076397Y0066571D01*
X0076397Y0065971D02*
X0076397Y0067172D01*
X0076997Y0068426D02*
X0079399Y0068426D01*
X0080000Y0069027D01*
X0080000Y0070228D01*
X0079399Y0070828D01*
X0080000Y0072109D02*
X0080000Y0074511D01*
X0080000Y0073310D02*
X0076397Y0073310D01*
X0077598Y0072109D01*
X0076997Y0070828D02*
X0076397Y0070228D01*
X0076397Y0069027D01*
X0076997Y0068426D01*
D11*
X0109200Y0033682D03*
X0109200Y0031682D03*
X0169200Y0031682D03*
X0169200Y0033682D03*
X0179200Y0041682D03*
X0179200Y0043682D03*
D12*
X0181698Y0043459D02*
X0181698Y0040990D01*
X0184348Y0041336D02*
X0184348Y0040369D01*
X0184831Y0039885D01*
X0186766Y0039885D01*
X0187250Y0040369D01*
X0187250Y0041336D01*
X0186766Y0041820D01*
X0186766Y0042832D02*
X0187250Y0043315D01*
X0187250Y0044283D01*
X0186766Y0044767D01*
X0186283Y0044767D01*
X0185799Y0044283D01*
X0185799Y0043799D01*
X0185799Y0044283D02*
X0185315Y0044767D01*
X0184831Y0044767D01*
X0184348Y0044283D01*
X0184348Y0043315D01*
X0184831Y0042832D01*
X0184831Y0041820D02*
X0184348Y0041336D01*
X0175799Y0037482D02*
X0175799Y0036515D01*
X0175799Y0035503D02*
X0176766Y0035503D01*
X0177250Y0035020D01*
X0177250Y0034536D01*
X0176766Y0034052D01*
X0177734Y0034052D01*
X0178217Y0033568D01*
X0176766Y0034052D02*
X0175799Y0034052D01*
X0174050Y0035213D02*
X0173566Y0034729D01*
X0171631Y0036664D01*
X0173566Y0036664D01*
X0174050Y0036180D01*
X0174050Y0035213D01*
X0173566Y0034729D02*
X0171631Y0034729D01*
X0171148Y0035213D01*
X0171148Y0036180D01*
X0171631Y0036664D01*
X0173566Y0037675D02*
X0173566Y0038159D01*
X0174050Y0038159D01*
X0174050Y0037675D01*
X0173566Y0037675D01*
X0174348Y0038450D02*
X0174348Y0036515D01*
X0177250Y0036515D01*
X0174050Y0039632D02*
X0173566Y0039149D01*
X0174050Y0039632D02*
X0174050Y0040600D01*
X0173566Y0041084D01*
X0173083Y0041084D01*
X0172599Y0040600D01*
X0172599Y0040116D01*
X0172599Y0040600D02*
X0172115Y0041084D01*
X0171631Y0041084D01*
X0171148Y0040600D01*
X0171148Y0039632D01*
X0171631Y0039149D01*
X0171631Y0042095D02*
X0171148Y0042579D01*
X0171148Y0043546D01*
X0171631Y0044030D01*
X0172115Y0044030D01*
X0172599Y0043546D01*
X0173083Y0044030D01*
X0173566Y0044030D01*
X0174050Y0043546D01*
X0174050Y0042579D01*
X0173566Y0042095D01*
X0172599Y0043063D02*
X0172599Y0043546D01*
X0172599Y0045525D02*
X0173566Y0045525D01*
X0174534Y0045525D01*
X0175017Y0045042D01*
X0174050Y0046009D02*
X0174050Y0046493D01*
X0173566Y0046977D01*
X0172599Y0046977D01*
X0172599Y0047988D02*
X0172599Y0048956D01*
X0171148Y0049923D02*
X0171148Y0047988D01*
X0174050Y0047988D01*
X0174050Y0046009D02*
X0173566Y0045525D01*
X0164050Y0034767D02*
X0164050Y0032832D01*
X0162115Y0034767D01*
X0161631Y0034767D01*
X0161148Y0034283D01*
X0161148Y0033315D01*
X0161631Y0032832D01*
X0161631Y0031820D02*
X0161148Y0031336D01*
X0161148Y0030369D01*
X0161631Y0029885D01*
X0163566Y0029885D01*
X0164050Y0030369D01*
X0164050Y0031336D01*
X0163566Y0031820D01*
X0160650Y0031240D02*
X0160650Y0030756D01*
X0159683Y0030756D01*
X0159199Y0031240D01*
X0158231Y0031240D01*
X0157748Y0030756D01*
X0157748Y0029789D01*
X0158231Y0029305D01*
X0159199Y0029305D01*
X0159683Y0029789D01*
X0160650Y0029789D01*
X0160650Y0029305D01*
X0160166Y0028293D02*
X0160650Y0027810D01*
X0160650Y0026842D01*
X0160166Y0026358D01*
X0158231Y0028293D01*
X0160166Y0028293D01*
X0158231Y0028293D02*
X0157748Y0027810D01*
X0157748Y0026842D01*
X0158231Y0026358D01*
X0160166Y0026358D01*
X0160650Y0025347D02*
X0160650Y0023412D01*
X0160650Y0024379D02*
X0157748Y0024379D01*
X0158715Y0023412D01*
X0153950Y0022713D02*
X0153950Y0020778D01*
X0153950Y0022713D01*
X0153950Y0021746D02*
X0151048Y0021746D01*
X0152015Y0020778D01*
X0151048Y0021746D01*
X0153950Y0021746D01*
X0153950Y0019767D02*
X0152983Y0018799D01*
X0153950Y0019767D01*
X0152983Y0019283D02*
X0152499Y0019767D01*
X0151531Y0019767D01*
X0151048Y0019283D01*
X0151048Y0017832D01*
X0153950Y0017832D01*
X0151048Y0017832D01*
X0151048Y0019283D01*
X0151531Y0019767D01*
X0152499Y0019767D01*
X0152983Y0019283D01*
X0152983Y0017832D01*
X0152983Y0019283D01*
X0167898Y0014320D02*
X0167898Y0012385D01*
X0170800Y0012385D01*
X0169349Y0012385D02*
X0169349Y0013353D01*
X0169349Y0011374D02*
X0170316Y0011374D01*
X0170800Y0010890D01*
X0170800Y0010406D01*
X0170316Y0009922D01*
X0171284Y0009922D01*
X0171767Y0009439D01*
X0170316Y0009922D02*
X0169349Y0009922D01*
X0170316Y0008427D02*
X0168381Y0008427D01*
X0170316Y0006492D01*
X0170800Y0006976D01*
X0170800Y0007943D01*
X0170316Y0008427D01*
X0168381Y0008427D02*
X0167898Y0007943D01*
X0167898Y0006976D01*
X0168381Y0006492D01*
X0170316Y0006492D01*
X0170316Y0005481D02*
X0168381Y0005481D01*
X0170316Y0003546D01*
X0170800Y0004029D01*
X0170800Y0004997D01*
X0170316Y0005481D01*
X0168381Y0005481D02*
X0167898Y0004997D01*
X0167898Y0004029D01*
X0168381Y0003546D01*
X0170316Y0003546D01*
X0170800Y0002534D02*
X0170800Y0000599D01*
X0170800Y0001567D02*
X0167898Y0001567D01*
X0168865Y0000599D01*
X0185831Y0024332D02*
X0187766Y0024332D01*
X0188250Y0024815D01*
X0188250Y0025783D01*
X0187766Y0026267D01*
X0186799Y0027278D02*
X0186799Y0029213D01*
X0188250Y0028729D02*
X0185348Y0028729D01*
X0186799Y0027278D01*
X0185831Y0026267D02*
X0185348Y0025783D01*
X0185348Y0024815D01*
X0185831Y0024332D01*
X0177250Y0026686D02*
X0177250Y0027653D01*
X0176766Y0028137D01*
X0174831Y0028137D01*
X0176766Y0026202D01*
X0177250Y0026686D01*
X0176766Y0026202D02*
X0174831Y0026202D01*
X0174348Y0026686D01*
X0174348Y0027653D01*
X0174831Y0028137D01*
X0176766Y0029149D02*
X0176766Y0029632D01*
X0177250Y0029632D01*
X0177250Y0029149D01*
X0176766Y0029149D01*
X0177250Y0030622D02*
X0177250Y0032557D01*
X0177250Y0031589D02*
X0174348Y0031589D01*
X0175315Y0030622D01*
X0180464Y0032225D02*
X0182933Y0032225D01*
X0181698Y0033459D02*
X0181698Y0030990D01*
X0120700Y0031682D02*
X0120700Y0032932D01*
X0119200Y0032932D01*
X0117700Y0032932D01*
X0117250Y0032557D02*
X0117250Y0030622D01*
X0117700Y0030182D02*
X0119200Y0032932D01*
X0120700Y0030182D01*
X0117700Y0030182D01*
X0117250Y0029632D02*
X0117250Y0029149D01*
X0116766Y0029149D01*
X0116766Y0029632D01*
X0117250Y0029632D01*
X0115315Y0030622D02*
X0114348Y0031589D01*
X0117250Y0031589D01*
X0118217Y0033568D02*
X0117734Y0034052D01*
X0116766Y0034052D01*
X0117250Y0034536D01*
X0117250Y0035020D01*
X0116766Y0035503D01*
X0115799Y0035503D01*
X0115799Y0036515D02*
X0115799Y0037482D01*
X0115871Y0038082D02*
X0116838Y0039049D01*
X0116838Y0040984D01*
X0114903Y0040984D02*
X0114903Y0039049D01*
X0115871Y0038082D01*
X0114348Y0038450D02*
X0114348Y0036515D01*
X0117250Y0036515D01*
X0113892Y0040500D02*
X0111957Y0038565D01*
X0111957Y0038082D01*
X0110967Y0038082D02*
X0110484Y0038082D01*
X0110484Y0038565D01*
X0110967Y0038565D01*
X0110967Y0038082D01*
X0108988Y0038082D02*
X0108988Y0040984D01*
X0107537Y0039533D01*
X0109472Y0039533D01*
X0106526Y0040017D02*
X0104591Y0040017D01*
X0104591Y0039049D02*
X0106526Y0039049D01*
X0103579Y0038082D02*
X0101644Y0038082D01*
X0101644Y0038565D01*
X0103579Y0040500D01*
X0103579Y0040984D01*
X0101644Y0040984D01*
X0111957Y0040984D02*
X0113892Y0040984D01*
X0113892Y0040500D01*
X0104050Y0034767D02*
X0104050Y0032832D01*
X0104050Y0033799D02*
X0101148Y0033799D01*
X0102115Y0032832D01*
X0101631Y0031820D02*
X0101148Y0031336D01*
X0101148Y0030369D01*
X0101631Y0029885D01*
X0103566Y0029885D01*
X0104050Y0030369D01*
X0104050Y0031336D01*
X0103566Y0031820D01*
X0114348Y0027653D02*
X0114831Y0028137D01*
X0116766Y0026202D01*
X0117250Y0026686D01*
X0117250Y0027653D01*
X0116766Y0028137D01*
X0114831Y0028137D01*
X0114348Y0027653D02*
X0114348Y0026686D01*
X0114831Y0026202D01*
X0116766Y0026202D01*
X0115871Y0027284D02*
X0115871Y0024382D01*
X0116838Y0024382D02*
X0114903Y0024382D01*
X0113892Y0024865D02*
X0113892Y0026800D01*
X0113408Y0027284D01*
X0111957Y0027284D01*
X0111957Y0024382D01*
X0113408Y0024382D01*
X0113892Y0024865D01*
X0114903Y0026317D02*
X0115871Y0027284D01*
X0115799Y0034052D02*
X0116766Y0034052D01*
X0061698Y0023459D02*
X0061698Y0020990D01*
X0061698Y0013459D02*
X0061698Y0010990D01*
X0060464Y0012225D02*
X0062933Y0012225D01*
X0056766Y0050867D02*
X0057250Y0051350D01*
X0057250Y0052318D01*
X0056766Y0052802D01*
X0056766Y0053813D02*
X0057250Y0054297D01*
X0057250Y0055264D01*
X0056766Y0055748D01*
X0054831Y0055748D01*
X0054348Y0055264D01*
X0054348Y0054297D01*
X0054831Y0053813D01*
X0056766Y0053813D01*
X0054831Y0052802D02*
X0054348Y0052318D01*
X0054348Y0051350D01*
X0054831Y0050867D01*
X0056766Y0050867D01*
X0057250Y0056760D02*
X0054348Y0056760D01*
X0057250Y0058695D01*
X0054348Y0058695D01*
X0054348Y0059706D02*
X0057250Y0061641D01*
X0054348Y0061641D01*
X0055799Y0062653D02*
X0055799Y0064588D01*
X0056766Y0065599D02*
X0057250Y0066083D01*
X0057250Y0067050D01*
X0056766Y0067534D01*
X0056283Y0067534D01*
X0055799Y0067050D01*
X0055799Y0066567D01*
X0055799Y0067050D02*
X0055315Y0067534D01*
X0054831Y0067534D01*
X0054348Y0067050D01*
X0054348Y0066083D01*
X0054831Y0065599D01*
X0054348Y0068546D02*
X0054348Y0069997D01*
X0054831Y0070481D01*
X0055799Y0070481D01*
X0056283Y0069997D01*
X0056283Y0068546D01*
X0057250Y0068546D02*
X0054348Y0068546D01*
X0055799Y0071492D02*
X0055799Y0073427D01*
X0056766Y0074439D02*
X0057250Y0074922D01*
X0057250Y0075890D01*
X0056766Y0076374D01*
X0056283Y0076374D01*
X0055799Y0075890D01*
X0055799Y0075406D01*
X0055799Y0075890D02*
X0055315Y0076374D01*
X0054831Y0076374D01*
X0054348Y0075890D01*
X0054348Y0074922D01*
X0054831Y0074439D01*
X0054348Y0077385D02*
X0054348Y0078836D01*
X0054831Y0079320D01*
X0055799Y0079320D01*
X0056283Y0078836D01*
X0056283Y0077385D01*
X0057250Y0077385D02*
X0054348Y0077385D01*
X0079347Y0077883D02*
X0080581Y0076649D01*
X0079347Y0075434D02*
X0079347Y0074200D01*
X0079347Y0074817D02*
X0082433Y0074817D01*
X0083050Y0074200D01*
X0083050Y0073583D01*
X0082433Y0072965D01*
X0083050Y0076649D02*
X0083050Y0079117D01*
X0083050Y0077883D02*
X0079347Y0077883D01*
X0057250Y0059706D02*
X0054348Y0059706D01*
X0125510Y0080332D02*
X0126962Y0080332D01*
X0127445Y0080815D01*
X0127445Y0081299D01*
X0126962Y0081783D01*
X0125510Y0081783D01*
X0126962Y0081783D02*
X0127445Y0082267D01*
X0127445Y0082750D01*
X0126962Y0083234D01*
X0125510Y0083234D01*
X0125510Y0080332D01*
X0128457Y0080332D02*
X0128457Y0082267D01*
X0129424Y0083234D01*
X0130392Y0082267D01*
X0130392Y0080332D01*
X0131403Y0080815D02*
X0131887Y0080332D01*
X0132855Y0080332D01*
X0133338Y0080815D01*
X0133338Y0081299D01*
X0132855Y0081783D01*
X0131403Y0081783D01*
X0131403Y0080815D01*
X0131403Y0081783D02*
X0132371Y0082750D01*
X0133338Y0083234D01*
X0134350Y0082750D02*
X0134834Y0083234D01*
X0135801Y0083234D01*
X0136285Y0082750D01*
X0136285Y0082267D01*
X0134350Y0080332D01*
X0136285Y0080332D01*
X0137297Y0080332D02*
X0139231Y0082267D01*
X0139231Y0082750D01*
X0138748Y0083234D01*
X0137780Y0083234D01*
X0137297Y0082750D01*
X0140243Y0082750D02*
X0140243Y0082267D01*
X0140727Y0081783D01*
X0142178Y0081783D01*
X0142178Y0082750D02*
X0142178Y0080815D01*
X0141694Y0080332D01*
X0140727Y0080332D01*
X0140243Y0080815D01*
X0139231Y0080332D02*
X0137297Y0080332D01*
X0140243Y0082750D02*
X0140727Y0083234D01*
X0141694Y0083234D01*
X0142178Y0082750D01*
X0130392Y0081783D02*
X0128457Y0081783D01*
D13*
X0009200Y0028682D02*
X0009200Y0021182D01*
X0049200Y0021182D01*
X0049200Y0044182D01*
X0009200Y0044182D01*
X0009200Y0036682D01*
X0009326Y0036680D01*
X0009451Y0036674D01*
X0009576Y0036664D01*
X0009701Y0036650D01*
X0009826Y0036633D01*
X0009950Y0036611D01*
X0010073Y0036586D01*
X0010195Y0036556D01*
X0010316Y0036523D01*
X0010436Y0036486D01*
X0010555Y0036446D01*
X0010672Y0036401D01*
X0010789Y0036353D01*
X0010903Y0036301D01*
X0011016Y0036246D01*
X0011127Y0036187D01*
X0011236Y0036125D01*
X0011343Y0036059D01*
X0011448Y0035990D01*
X0011551Y0035918D01*
X0011652Y0035843D01*
X0011750Y0035764D01*
X0011845Y0035682D01*
X0011938Y0035598D01*
X0012028Y0035510D01*
X0012116Y0035420D01*
X0012200Y0035327D01*
X0012282Y0035232D01*
X0012361Y0035134D01*
X0012436Y0035033D01*
X0012508Y0034930D01*
X0012577Y0034825D01*
X0012643Y0034718D01*
X0012705Y0034609D01*
X0012764Y0034498D01*
X0012819Y0034385D01*
X0012871Y0034271D01*
X0012919Y0034154D01*
X0012964Y0034037D01*
X0013004Y0033918D01*
X0013041Y0033798D01*
X0013074Y0033677D01*
X0013104Y0033555D01*
X0013129Y0033432D01*
X0013151Y0033308D01*
X0013168Y0033183D01*
X0013182Y0033058D01*
X0013192Y0032933D01*
X0013198Y0032808D01*
X0013200Y0032682D01*
X0013198Y0032556D01*
X0013192Y0032431D01*
X0013182Y0032306D01*
X0013168Y0032181D01*
X0013151Y0032056D01*
X0013129Y0031932D01*
X0013104Y0031809D01*
X0013074Y0031687D01*
X0013041Y0031566D01*
X0013004Y0031446D01*
X0012964Y0031327D01*
X0012919Y0031210D01*
X0012871Y0031093D01*
X0012819Y0030979D01*
X0012764Y0030866D01*
X0012705Y0030755D01*
X0012643Y0030646D01*
X0012577Y0030539D01*
X0012508Y0030434D01*
X0012436Y0030331D01*
X0012361Y0030230D01*
X0012282Y0030132D01*
X0012200Y0030037D01*
X0012116Y0029944D01*
X0012028Y0029854D01*
X0011938Y0029766D01*
X0011845Y0029682D01*
X0011750Y0029600D01*
X0011652Y0029521D01*
X0011551Y0029446D01*
X0011448Y0029374D01*
X0011343Y0029305D01*
X0011236Y0029239D01*
X0011127Y0029177D01*
X0011016Y0029118D01*
X0010903Y0029063D01*
X0010789Y0029011D01*
X0010672Y0028963D01*
X0010555Y0028918D01*
X0010436Y0028878D01*
X0010316Y0028841D01*
X0010195Y0028808D01*
X0010073Y0028778D01*
X0009950Y0028753D01*
X0009826Y0028731D01*
X0009701Y0028714D01*
X0009576Y0028700D01*
X0009451Y0028690D01*
X0009326Y0028684D01*
X0009200Y0028682D01*
X0081700Y0064182D02*
X0081700Y0078682D01*
X0186700Y0078682D01*
X0186700Y0064182D01*
X0081700Y0064182D01*
X0155200Y0036682D02*
X0155200Y0035182D01*
X0155700Y0034682D01*
X0155700Y0020682D01*
X0155200Y0020182D01*
X0155200Y0018682D01*
X0155202Y0018622D01*
X0155207Y0018561D01*
X0155216Y0018502D01*
X0155229Y0018443D01*
X0155245Y0018384D01*
X0155265Y0018327D01*
X0155288Y0018272D01*
X0155315Y0018217D01*
X0155344Y0018165D01*
X0155377Y0018114D01*
X0155413Y0018065D01*
X0155451Y0018019D01*
X0155493Y0017975D01*
X0155537Y0017933D01*
X0155583Y0017895D01*
X0155632Y0017859D01*
X0155683Y0017826D01*
X0155735Y0017797D01*
X0155790Y0017770D01*
X0155845Y0017747D01*
X0155902Y0017727D01*
X0155961Y0017711D01*
X0156020Y0017698D01*
X0156079Y0017689D01*
X0156140Y0017684D01*
X0156200Y0017682D01*
X0162200Y0017682D01*
X0162260Y0017684D01*
X0162321Y0017689D01*
X0162380Y0017698D01*
X0162439Y0017711D01*
X0162498Y0017727D01*
X0162555Y0017747D01*
X0162610Y0017770D01*
X0162665Y0017797D01*
X0162717Y0017826D01*
X0162768Y0017859D01*
X0162817Y0017895D01*
X0162863Y0017933D01*
X0162907Y0017975D01*
X0162949Y0018019D01*
X0162987Y0018065D01*
X0163023Y0018114D01*
X0163056Y0018165D01*
X0163085Y0018217D01*
X0163112Y0018272D01*
X0163135Y0018327D01*
X0163155Y0018384D01*
X0163171Y0018443D01*
X0163184Y0018502D01*
X0163193Y0018561D01*
X0163198Y0018622D01*
X0163200Y0018682D01*
X0163200Y0020182D01*
X0162700Y0020682D01*
X0162700Y0034682D01*
X0163200Y0035182D01*
X0163200Y0036682D01*
X0163198Y0036742D01*
X0163193Y0036803D01*
X0163184Y0036862D01*
X0163171Y0036921D01*
X0163155Y0036980D01*
X0163135Y0037037D01*
X0163112Y0037092D01*
X0163085Y0037147D01*
X0163056Y0037199D01*
X0163023Y0037250D01*
X0162987Y0037299D01*
X0162949Y0037345D01*
X0162907Y0037389D01*
X0162863Y0037431D01*
X0162817Y0037469D01*
X0162768Y0037505D01*
X0162717Y0037538D01*
X0162665Y0037567D01*
X0162610Y0037594D01*
X0162555Y0037617D01*
X0162498Y0037637D01*
X0162439Y0037653D01*
X0162380Y0037666D01*
X0162321Y0037675D01*
X0162260Y0037680D01*
X0162200Y0037682D01*
X0156200Y0037682D01*
X0156140Y0037680D01*
X0156079Y0037675D01*
X0156020Y0037666D01*
X0155961Y0037653D01*
X0155902Y0037637D01*
X0155845Y0037617D01*
X0155790Y0037594D01*
X0155735Y0037567D01*
X0155683Y0037538D01*
X0155632Y0037505D01*
X0155583Y0037469D01*
X0155537Y0037431D01*
X0155493Y0037389D01*
X0155451Y0037345D01*
X0155413Y0037299D01*
X0155377Y0037250D01*
X0155344Y0037199D01*
X0155315Y0037147D01*
X0155288Y0037092D01*
X0155265Y0037037D01*
X0155245Y0036980D01*
X0155229Y0036921D01*
X0155216Y0036862D01*
X0155207Y0036803D01*
X0155202Y0036742D01*
X0155200Y0036682D01*
X0155202Y0036742D01*
X0155207Y0036803D01*
X0155216Y0036862D01*
X0155229Y0036921D01*
X0155245Y0036980D01*
X0155265Y0037037D01*
X0155288Y0037092D01*
X0155315Y0037147D01*
X0155344Y0037199D01*
X0155377Y0037250D01*
X0155413Y0037299D01*
X0155451Y0037345D01*
X0155493Y0037389D01*
X0155537Y0037431D01*
X0155583Y0037469D01*
X0155632Y0037505D01*
X0155683Y0037538D01*
X0155735Y0037567D01*
X0155790Y0037594D01*
X0155845Y0037617D01*
X0155902Y0037637D01*
X0155961Y0037653D01*
X0156020Y0037666D01*
X0156079Y0037675D01*
X0156140Y0037680D01*
X0156200Y0037682D01*
X0162200Y0037682D02*
X0162260Y0037680D01*
X0162321Y0037675D01*
X0162380Y0037666D01*
X0162439Y0037653D01*
X0162498Y0037637D01*
X0162555Y0037617D01*
X0162610Y0037594D01*
X0162665Y0037567D01*
X0162717Y0037538D01*
X0162768Y0037505D01*
X0162817Y0037469D01*
X0162863Y0037431D01*
X0162907Y0037389D01*
X0162949Y0037345D01*
X0162987Y0037299D01*
X0163023Y0037250D01*
X0163056Y0037199D01*
X0163085Y0037147D01*
X0163112Y0037092D01*
X0163135Y0037037D01*
X0163155Y0036980D01*
X0163171Y0036921D01*
X0163184Y0036862D01*
X0163193Y0036803D01*
X0163198Y0036742D01*
X0163200Y0036682D01*
X0163200Y0018682D02*
X0163198Y0018622D01*
X0163193Y0018561D01*
X0163184Y0018502D01*
X0163171Y0018443D01*
X0163155Y0018384D01*
X0163135Y0018327D01*
X0163112Y0018272D01*
X0163085Y0018217D01*
X0163056Y0018165D01*
X0163023Y0018114D01*
X0162987Y0018065D01*
X0162949Y0018019D01*
X0162907Y0017975D01*
X0162863Y0017933D01*
X0162817Y0017895D01*
X0162768Y0017859D01*
X0162717Y0017826D01*
X0162665Y0017797D01*
X0162610Y0017770D01*
X0162555Y0017747D01*
X0162498Y0017727D01*
X0162439Y0017711D01*
X0162380Y0017698D01*
X0162321Y0017689D01*
X0162260Y0017684D01*
X0162200Y0017682D01*
X0156200Y0017682D02*
X0156140Y0017684D01*
X0156079Y0017689D01*
X0156020Y0017698D01*
X0155961Y0017711D01*
X0155902Y0017727D01*
X0155845Y0017747D01*
X0155790Y0017770D01*
X0155735Y0017797D01*
X0155683Y0017826D01*
X0155632Y0017859D01*
X0155583Y0017895D01*
X0155537Y0017933D01*
X0155493Y0017975D01*
X0155451Y0018019D01*
X0155413Y0018065D01*
X0155377Y0018114D01*
X0155344Y0018165D01*
X0155315Y0018217D01*
X0155288Y0018272D01*
X0155265Y0018327D01*
X0155245Y0018384D01*
X0155229Y0018443D01*
X0155216Y0018502D01*
X0155207Y0018561D01*
X0155202Y0018622D01*
X0155200Y0018682D01*
X0171200Y0017682D02*
X0171202Y0017878D01*
X0171210Y0018075D01*
X0171222Y0018271D01*
X0171239Y0018466D01*
X0171260Y0018661D01*
X0171287Y0018856D01*
X0171318Y0019050D01*
X0171354Y0019243D01*
X0171394Y0019435D01*
X0171440Y0019626D01*
X0171490Y0019816D01*
X0171544Y0020004D01*
X0171604Y0020191D01*
X0171668Y0020377D01*
X0171736Y0020561D01*
X0171809Y0020743D01*
X0171886Y0020924D01*
X0171968Y0021102D01*
X0172054Y0021279D01*
X0172145Y0021453D01*
X0172239Y0021625D01*
X0172338Y0021795D01*
X0172441Y0021962D01*
X0172548Y0022127D01*
X0172659Y0022288D01*
X0172774Y0022448D01*
X0172893Y0022604D01*
X0173016Y0022757D01*
X0173142Y0022907D01*
X0173272Y0023054D01*
X0173406Y0023198D01*
X0173543Y0023339D01*
X0173684Y0023476D01*
X0173828Y0023610D01*
X0173975Y0023740D01*
X0174125Y0023866D01*
X0174278Y0023989D01*
X0174434Y0024108D01*
X0174594Y0024223D01*
X0174755Y0024334D01*
X0174920Y0024441D01*
X0175087Y0024544D01*
X0175257Y0024643D01*
X0175429Y0024737D01*
X0175603Y0024828D01*
X0175780Y0024914D01*
X0175958Y0024996D01*
X0176139Y0025073D01*
X0176321Y0025146D01*
X0176505Y0025214D01*
X0176691Y0025278D01*
X0176878Y0025338D01*
X0177066Y0025392D01*
X0177256Y0025442D01*
X0177447Y0025488D01*
X0177639Y0025528D01*
X0177832Y0025564D01*
X0178026Y0025595D01*
X0178221Y0025622D01*
X0178416Y0025643D01*
X0178611Y0025660D01*
X0178807Y0025672D01*
X0179004Y0025680D01*
X0179200Y0025682D01*
X0179396Y0025680D01*
X0179593Y0025672D01*
X0179789Y0025660D01*
X0179984Y0025643D01*
X0180179Y0025622D01*
X0180374Y0025595D01*
X0180568Y0025564D01*
X0180761Y0025528D01*
X0180953Y0025488D01*
X0181144Y0025442D01*
X0181334Y0025392D01*
X0181522Y0025338D01*
X0181709Y0025278D01*
X0181895Y0025214D01*
X0182079Y0025146D01*
X0182261Y0025073D01*
X0182442Y0024996D01*
X0182620Y0024914D01*
X0182797Y0024828D01*
X0182971Y0024737D01*
X0183143Y0024643D01*
X0183313Y0024544D01*
X0183480Y0024441D01*
X0183645Y0024334D01*
X0183806Y0024223D01*
X0183966Y0024108D01*
X0184122Y0023989D01*
X0184275Y0023866D01*
X0184425Y0023740D01*
X0184572Y0023610D01*
X0184716Y0023476D01*
X0184857Y0023339D01*
X0184994Y0023198D01*
X0185128Y0023054D01*
X0185258Y0022907D01*
X0185384Y0022757D01*
X0185507Y0022604D01*
X0185626Y0022448D01*
X0185741Y0022288D01*
X0185852Y0022127D01*
X0185959Y0021962D01*
X0186062Y0021795D01*
X0186161Y0021625D01*
X0186255Y0021453D01*
X0186346Y0021279D01*
X0186432Y0021102D01*
X0186514Y0020924D01*
X0186591Y0020743D01*
X0186664Y0020561D01*
X0186732Y0020377D01*
X0186796Y0020191D01*
X0186856Y0020004D01*
X0186910Y0019816D01*
X0186960Y0019626D01*
X0187006Y0019435D01*
X0187046Y0019243D01*
X0187082Y0019050D01*
X0187113Y0018856D01*
X0187140Y0018661D01*
X0187161Y0018466D01*
X0187178Y0018271D01*
X0187190Y0018075D01*
X0187198Y0017878D01*
X0187200Y0017682D01*
X0187198Y0017486D01*
X0187190Y0017289D01*
X0187178Y0017093D01*
X0187161Y0016898D01*
X0187140Y0016703D01*
X0187113Y0016508D01*
X0187082Y0016314D01*
X0187046Y0016121D01*
X0187006Y0015929D01*
X0186960Y0015738D01*
X0186910Y0015548D01*
X0186856Y0015360D01*
X0186796Y0015173D01*
X0186732Y0014987D01*
X0186664Y0014803D01*
X0186591Y0014621D01*
X0186514Y0014440D01*
X0186432Y0014262D01*
X0186346Y0014085D01*
X0186255Y0013911D01*
X0186161Y0013739D01*
X0186062Y0013569D01*
X0185959Y0013402D01*
X0185852Y0013237D01*
X0185741Y0013076D01*
X0185626Y0012916D01*
X0185507Y0012760D01*
X0185384Y0012607D01*
X0185258Y0012457D01*
X0185128Y0012310D01*
X0184994Y0012166D01*
X0184857Y0012025D01*
X0184716Y0011888D01*
X0184572Y0011754D01*
X0184425Y0011624D01*
X0184275Y0011498D01*
X0184122Y0011375D01*
X0183966Y0011256D01*
X0183806Y0011141D01*
X0183645Y0011030D01*
X0183480Y0010923D01*
X0183313Y0010820D01*
X0183143Y0010721D01*
X0182971Y0010627D01*
X0182797Y0010536D01*
X0182620Y0010450D01*
X0182442Y0010368D01*
X0182261Y0010291D01*
X0182079Y0010218D01*
X0181895Y0010150D01*
X0181709Y0010086D01*
X0181522Y0010026D01*
X0181334Y0009972D01*
X0181144Y0009922D01*
X0180953Y0009876D01*
X0180761Y0009836D01*
X0180568Y0009800D01*
X0180374Y0009769D01*
X0180179Y0009742D01*
X0179984Y0009721D01*
X0179789Y0009704D01*
X0179593Y0009692D01*
X0179396Y0009684D01*
X0179200Y0009682D01*
X0179004Y0009684D01*
X0178807Y0009692D01*
X0178611Y0009704D01*
X0178416Y0009721D01*
X0178221Y0009742D01*
X0178026Y0009769D01*
X0177832Y0009800D01*
X0177639Y0009836D01*
X0177447Y0009876D01*
X0177256Y0009922D01*
X0177066Y0009972D01*
X0176878Y0010026D01*
X0176691Y0010086D01*
X0176505Y0010150D01*
X0176321Y0010218D01*
X0176139Y0010291D01*
X0175958Y0010368D01*
X0175780Y0010450D01*
X0175603Y0010536D01*
X0175429Y0010627D01*
X0175257Y0010721D01*
X0175087Y0010820D01*
X0174920Y0010923D01*
X0174755Y0011030D01*
X0174594Y0011141D01*
X0174434Y0011256D01*
X0174278Y0011375D01*
X0174125Y0011498D01*
X0173975Y0011624D01*
X0173828Y0011754D01*
X0173684Y0011888D01*
X0173543Y0012025D01*
X0173406Y0012166D01*
X0173272Y0012310D01*
X0173142Y0012457D01*
X0173016Y0012607D01*
X0172893Y0012760D01*
X0172774Y0012916D01*
X0172659Y0013076D01*
X0172548Y0013237D01*
X0172441Y0013402D01*
X0172338Y0013569D01*
X0172239Y0013739D01*
X0172145Y0013911D01*
X0172054Y0014085D01*
X0171968Y0014262D01*
X0171886Y0014440D01*
X0171809Y0014621D01*
X0171736Y0014803D01*
X0171668Y0014987D01*
X0171604Y0015173D01*
X0171544Y0015360D01*
X0171490Y0015548D01*
X0171440Y0015738D01*
X0171394Y0015929D01*
X0171354Y0016121D01*
X0171318Y0016314D01*
X0171287Y0016508D01*
X0171260Y0016703D01*
X0171239Y0016898D01*
X0171222Y0017093D01*
X0171210Y0017289D01*
X0171202Y0017486D01*
X0171200Y0017682D01*
X0183450Y0013682D02*
X0184200Y0013682D01*
X0184200Y0014432D01*
X0184200Y0013682D02*
X0184950Y0013682D01*
X0184200Y0013682D02*
X0184200Y0012932D01*
D14*
X0179200Y0019182D03*
D15*
X0119200Y0035432D03*
D16*
X0119200Y0038932D03*
X0119200Y0026432D03*
D17*
X0074200Y0027682D02*
X0074200Y0007682D01*
X0064200Y0007682D01*
X0064200Y0027682D01*
X0074200Y0027682D01*
X0050680Y0031182D02*
X0049929Y0030432D01*
X0048428Y0030432D01*
X0047677Y0031182D01*
X0050680Y0034185D01*
X0050680Y0031182D01*
X0047677Y0031182D02*
X0047677Y0034185D01*
X0048428Y0034936D01*
X0049929Y0034936D01*
X0050680Y0034185D01*
X0046076Y0034185D02*
X0046076Y0033434D01*
X0045325Y0032684D01*
X0046076Y0031933D01*
X0046076Y0031182D01*
X0045325Y0030432D01*
X0043824Y0030432D01*
X0043074Y0031182D01*
X0044575Y0032684D02*
X0045325Y0032684D01*
X0046076Y0034185D02*
X0045325Y0034936D01*
X0043824Y0034936D01*
X0043074Y0034185D01*
X0041472Y0034185D02*
X0041472Y0034936D01*
X0038470Y0034936D01*
X0036868Y0034185D02*
X0036118Y0034936D01*
X0034616Y0034936D01*
X0033866Y0034185D01*
X0036868Y0034185D02*
X0036868Y0033434D01*
X0033866Y0030432D01*
X0036868Y0030432D01*
X0038470Y0030432D02*
X0038470Y0031182D01*
X0041472Y0034185D01*
X0032264Y0030432D02*
X0029262Y0030432D01*
X0029262Y0034936D01*
X0027660Y0034185D02*
X0027660Y0032684D01*
X0026910Y0031933D01*
X0024658Y0031933D01*
X0023056Y0031182D02*
X0022306Y0030432D01*
X0020805Y0030432D01*
X0020054Y0031182D01*
X0020054Y0034185D01*
X0020805Y0034936D01*
X0022306Y0034936D01*
X0023056Y0034185D01*
X0024658Y0034936D02*
X0026910Y0034936D01*
X0027660Y0034185D01*
X0024658Y0034936D02*
X0024658Y0030432D01*
X0018453Y0030432D02*
X0018453Y0034936D01*
X0018453Y0032684D02*
X0015450Y0032684D01*
X0015450Y0030432D02*
X0015450Y0034936D01*
X0007950Y0033642D02*
X0007950Y0030640D01*
X0004947Y0030640D02*
X0003446Y0032141D01*
X0007950Y0032141D01*
X0007950Y0029038D02*
X0005698Y0026786D01*
X0006449Y0026036D02*
X0003446Y0029038D01*
X0003446Y0026036D02*
X0007950Y0026036D01*
X0007199Y0024434D02*
X0004197Y0024434D01*
X0003446Y0023684D01*
X0003446Y0022182D01*
X0004197Y0021432D01*
X0007199Y0021432D01*
X0007950Y0022182D01*
X0007950Y0023684D01*
X0007199Y0024434D01*
X0061700Y0045182D02*
X0076700Y0045182D01*
X0076700Y0080182D01*
X0061700Y0080182D01*
X0061700Y0045182D01*
X0083200Y0067682D02*
X0083202Y0067745D01*
X0083208Y0067807D01*
X0083218Y0067869D01*
X0083231Y0067931D01*
X0083249Y0067991D01*
X0083270Y0068050D01*
X0083295Y0068108D01*
X0083324Y0068164D01*
X0083356Y0068218D01*
X0083391Y0068270D01*
X0083429Y0068319D01*
X0083471Y0068367D01*
X0083515Y0068411D01*
X0083563Y0068453D01*
X0083612Y0068491D01*
X0083664Y0068526D01*
X0083718Y0068558D01*
X0083774Y0068587D01*
X0083832Y0068612D01*
X0083891Y0068633D01*
X0083951Y0068651D01*
X0084013Y0068664D01*
X0084075Y0068674D01*
X0084137Y0068680D01*
X0084200Y0068682D01*
X0084263Y0068680D01*
X0084325Y0068674D01*
X0084387Y0068664D01*
X0084449Y0068651D01*
X0084509Y0068633D01*
X0084568Y0068612D01*
X0084626Y0068587D01*
X0084682Y0068558D01*
X0084736Y0068526D01*
X0084788Y0068491D01*
X0084837Y0068453D01*
X0084885Y0068411D01*
X0084929Y0068367D01*
X0084971Y0068319D01*
X0085009Y0068270D01*
X0085044Y0068218D01*
X0085076Y0068164D01*
X0085105Y0068108D01*
X0085130Y0068050D01*
X0085151Y0067991D01*
X0085169Y0067931D01*
X0085182Y0067869D01*
X0085192Y0067807D01*
X0085198Y0067745D01*
X0085200Y0067682D01*
X0085198Y0067619D01*
X0085192Y0067557D01*
X0085182Y0067495D01*
X0085169Y0067433D01*
X0085151Y0067373D01*
X0085130Y0067314D01*
X0085105Y0067256D01*
X0085076Y0067200D01*
X0085044Y0067146D01*
X0085009Y0067094D01*
X0084971Y0067045D01*
X0084929Y0066997D01*
X0084885Y0066953D01*
X0084837Y0066911D01*
X0084788Y0066873D01*
X0084736Y0066838D01*
X0084682Y0066806D01*
X0084626Y0066777D01*
X0084568Y0066752D01*
X0084509Y0066731D01*
X0084449Y0066713D01*
X0084387Y0066700D01*
X0084325Y0066690D01*
X0084263Y0066684D01*
X0084200Y0066682D01*
X0084137Y0066684D01*
X0084075Y0066690D01*
X0084013Y0066700D01*
X0083951Y0066713D01*
X0083891Y0066731D01*
X0083832Y0066752D01*
X0083774Y0066777D01*
X0083718Y0066806D01*
X0083664Y0066838D01*
X0083612Y0066873D01*
X0083563Y0066911D01*
X0083515Y0066953D01*
X0083471Y0066997D01*
X0083429Y0067045D01*
X0083391Y0067094D01*
X0083356Y0067146D01*
X0083324Y0067200D01*
X0083295Y0067256D01*
X0083270Y0067314D01*
X0083249Y0067373D01*
X0083231Y0067433D01*
X0083218Y0067495D01*
X0083208Y0067557D01*
X0083202Y0067619D01*
X0083200Y0067682D01*
X0184200Y0047682D02*
X0184200Y0027682D01*
X0194200Y0027682D01*
X0194200Y0047682D01*
X0184200Y0047682D01*
D18*
X0159200Y0038432D03*
X0159200Y0038432D03*
X0159200Y0016932D03*
X0159200Y0016932D03*
M02*
