%
M48
M72
T01C0.02362
T02C0.03150
T03C0.03200
T04C0.03543
%
T01
X7866Y5429
X7866Y6429
X12866Y6429
X13866Y5429
X14866Y5429
X14866Y1429
T02
X17866Y1429
X17866Y7429
X16866Y7429
X15866Y7429
X14866Y7429
X13866Y7429
X12866Y7429
X11866Y7429
X10866Y7429
X9866Y7429
X8866Y7429
T03
X1366Y1929
X2366Y1929
X3366Y1929
X4366Y1929
X4366Y4929
X3366Y4929
X2366Y4929
X1366Y4929
T04
X6866Y5429
X6866Y6429
X6866Y7429
X10866Y4429
X11866Y4429
X15866Y4429
X16866Y4429
X18866Y4429
X18866Y3429
X17866Y3429
X17866Y2429
X16866Y2429
X15866Y1429
X11866Y2429
X10866Y2429
X6866Y2429
X6866Y1429
X17866Y5429
M30
