%
M48
M72
T01C0.02362
T02C0.02756
%
T01
X5391Y6033
X9391Y6033
X11391Y6033
X13391Y6033
X13391Y9033
X9391Y9033
X4391Y11033
X6391Y13033
X4391Y15033
X6391Y17033
T02
X3391Y3033
X3391Y4033
X5391Y7033
X7391Y7033
X9391Y7033
X11391Y7033
X12391Y5033
X13391Y5002
X14391Y5033
X14391Y4033
X13391Y4033
X12391Y4033
X9391Y4033
X8391Y4033
X7391Y4033
X5391Y9033
X7391Y10033
X7391Y11033
X7391Y12033
X7391Y13033
X7391Y14033
X7391Y15033
X7391Y16033
X5391Y16033
X10391Y16033
X10391Y15033
X10391Y14033
X10391Y13033
X10391Y12033
X10391Y11033
X10391Y10033
X13391Y10033
X13391Y11033
X13391Y12033
X13391Y13033
X13391Y14033
X13391Y15033
X13391Y16033
X16391Y16033
X16391Y15033
X16391Y14033
X16391Y13033
X16391Y12033
X16391Y11033
X16391Y10033
X16391Y9033
X16391Y8033
X16391Y7033
X18391Y7033
X18391Y8033
X18391Y9033
X21391Y9033
X21391Y5033
X21391Y4033
X21391Y3033
X19391Y4033
X18391Y4033
X17391Y4033
X5391Y11033
X5391Y12033
M30
