G75*
%MOIN*%
%OFA0B0*%
%FSLAX25Y25*%
%IPPOS*%
%LPD*%
%AMOC8*
5,1,8,0,0,1.08239X$1,22.5*
%
%ADD10C,0.07800*%
%ADD11R,0.04762X0.04762*%
D10*
X0033919Y0030337D03*
X0033919Y0040337D03*
X0053919Y0070337D03*
X0073919Y0070337D03*
X0093919Y0070337D03*
X0113919Y0070337D03*
X0123919Y0050337D03*
X0133919Y0050022D03*
X0143919Y0050337D03*
X0143919Y0040337D03*
X0133919Y0040337D03*
X0123919Y0040337D03*
X0093919Y0040337D03*
X0083919Y0040337D03*
X0073919Y0040337D03*
X0053919Y0090337D03*
X0073919Y0100337D03*
X0073919Y0110337D03*
X0073919Y0120337D03*
X0073919Y0130337D03*
X0073919Y0140337D03*
X0073919Y0150337D03*
X0073919Y0160337D03*
X0053919Y0160337D03*
X0103919Y0160337D03*
X0103919Y0150337D03*
X0103919Y0140337D03*
X0103919Y0130337D03*
X0103919Y0120337D03*
X0103919Y0110337D03*
X0103919Y0100337D03*
X0133919Y0100337D03*
X0133919Y0110337D03*
X0133919Y0120337D03*
X0133919Y0130337D03*
X0133919Y0140337D03*
X0133919Y0150337D03*
X0133919Y0160337D03*
X0163919Y0160337D03*
X0163919Y0150337D03*
X0163919Y0140337D03*
X0163919Y0130337D03*
X0163919Y0120337D03*
X0163919Y0110337D03*
X0163919Y0100337D03*
X0163919Y0090337D03*
X0163919Y0080337D03*
X0163919Y0070337D03*
X0183919Y0070337D03*
X0183919Y0080337D03*
X0183919Y0090337D03*
X0213919Y0090337D03*
X0213919Y0050337D03*
X0213919Y0040337D03*
X0213919Y0030337D03*
X0193919Y0040337D03*
X0183919Y0040337D03*
X0173919Y0040337D03*
X0053919Y0110337D03*
X0053919Y0120337D03*
D11*
X0043919Y0110337D03*
X0063919Y0130337D03*
X0043919Y0150337D03*
X0063919Y0170337D03*
X0093919Y0090337D03*
X0093919Y0060337D03*
X0113919Y0060337D03*
X0133919Y0060337D03*
X0133919Y0090337D03*
X0053919Y0060337D03*
M02*
