G75*
%MOIN*%
%OFA0B0*%
%FSLAX25Y25*%
%IPPOS*%
%LPD*%
%AMOC8*
5,1,8,0,0,1.08239X$1,22.5*
%
%ADD10C,0.00600*%
%ADD11C,0.01200*%
%ADD12C,0.00200*%
%ADD13C,0.00400*%
%ADD14C,0.00300*%
%ADD15R,0.01000X0.04000*%
%ADD16R,0.04000X0.01000*%
%ADD17C,0.00800*%
%ADD18R,0.01500X0.02000*%
%ADD19R,0.02000X0.01500*%
%ADD20C,0.00500*%
D10*
X0157419Y0078035D02*
X0170419Y0078035D01*
X0170506Y0078037D01*
X0170593Y0078043D01*
X0170680Y0078052D01*
X0170766Y0078065D01*
X0170852Y0078082D01*
X0170937Y0078103D01*
X0171020Y0078128D01*
X0171103Y0078156D01*
X0171184Y0078187D01*
X0171264Y0078222D01*
X0171342Y0078261D01*
X0171419Y0078303D01*
X0171494Y0078348D01*
X0171566Y0078397D01*
X0171637Y0078448D01*
X0171705Y0078503D01*
X0171770Y0078560D01*
X0171833Y0078621D01*
X0171894Y0078684D01*
X0171951Y0078749D01*
X0172006Y0078817D01*
X0172057Y0078888D01*
X0172106Y0078960D01*
X0172151Y0079035D01*
X0172193Y0079112D01*
X0172232Y0079190D01*
X0172267Y0079270D01*
X0172298Y0079351D01*
X0172326Y0079434D01*
X0172351Y0079517D01*
X0172372Y0079602D01*
X0172389Y0079688D01*
X0172402Y0079774D01*
X0172411Y0079861D01*
X0172417Y0079948D01*
X0172419Y0080035D01*
X0168919Y0082535D02*
X0165219Y0082535D01*
X0162719Y0082535D02*
X0158919Y0082535D01*
X0155419Y0080035D02*
X0155421Y0079948D01*
X0155427Y0079861D01*
X0155436Y0079774D01*
X0155449Y0079688D01*
X0155466Y0079602D01*
X0155487Y0079517D01*
X0155512Y0079434D01*
X0155540Y0079351D01*
X0155571Y0079270D01*
X0155606Y0079190D01*
X0155645Y0079112D01*
X0155687Y0079035D01*
X0155732Y0078960D01*
X0155781Y0078888D01*
X0155832Y0078817D01*
X0155887Y0078749D01*
X0155944Y0078684D01*
X0156005Y0078621D01*
X0156068Y0078560D01*
X0156133Y0078503D01*
X0156201Y0078448D01*
X0156272Y0078397D01*
X0156344Y0078348D01*
X0156419Y0078303D01*
X0156496Y0078261D01*
X0156574Y0078222D01*
X0156654Y0078187D01*
X0156735Y0078156D01*
X0156818Y0078128D01*
X0156901Y0078103D01*
X0156986Y0078082D01*
X0157072Y0078065D01*
X0157158Y0078052D01*
X0157245Y0078043D01*
X0157332Y0078037D01*
X0157419Y0078035D01*
X0155419Y0085035D02*
X0155421Y0085122D01*
X0155427Y0085209D01*
X0155436Y0085296D01*
X0155449Y0085382D01*
X0155466Y0085468D01*
X0155487Y0085553D01*
X0155512Y0085636D01*
X0155540Y0085719D01*
X0155571Y0085800D01*
X0155606Y0085880D01*
X0155645Y0085958D01*
X0155687Y0086035D01*
X0155732Y0086110D01*
X0155781Y0086182D01*
X0155832Y0086253D01*
X0155887Y0086321D01*
X0155944Y0086386D01*
X0156005Y0086449D01*
X0156068Y0086510D01*
X0156133Y0086567D01*
X0156201Y0086622D01*
X0156272Y0086673D01*
X0156344Y0086722D01*
X0156419Y0086767D01*
X0156496Y0086809D01*
X0156574Y0086848D01*
X0156654Y0086883D01*
X0156735Y0086914D01*
X0156818Y0086942D01*
X0156901Y0086967D01*
X0156986Y0086988D01*
X0157072Y0087005D01*
X0157158Y0087018D01*
X0157245Y0087027D01*
X0157332Y0087033D01*
X0157419Y0087035D01*
X0170419Y0087035D01*
X0170506Y0087033D01*
X0170593Y0087027D01*
X0170680Y0087018D01*
X0170766Y0087005D01*
X0170852Y0086988D01*
X0170937Y0086967D01*
X0171020Y0086942D01*
X0171103Y0086914D01*
X0171184Y0086883D01*
X0171264Y0086848D01*
X0171342Y0086809D01*
X0171419Y0086767D01*
X0171494Y0086722D01*
X0171566Y0086673D01*
X0171637Y0086622D01*
X0171705Y0086567D01*
X0171770Y0086510D01*
X0171833Y0086449D01*
X0171894Y0086386D01*
X0171951Y0086321D01*
X0172006Y0086253D01*
X0172057Y0086182D01*
X0172106Y0086110D01*
X0172151Y0086035D01*
X0172193Y0085958D01*
X0172232Y0085880D01*
X0172267Y0085800D01*
X0172298Y0085719D01*
X0172326Y0085636D01*
X0172351Y0085553D01*
X0172372Y0085468D01*
X0172389Y0085382D01*
X0172402Y0085296D01*
X0172411Y0085209D01*
X0172417Y0085122D01*
X0172419Y0085035D01*
X0185419Y0085035D02*
X0185421Y0085122D01*
X0185427Y0085209D01*
X0185436Y0085296D01*
X0185449Y0085382D01*
X0185466Y0085468D01*
X0185487Y0085553D01*
X0185512Y0085636D01*
X0185540Y0085719D01*
X0185571Y0085800D01*
X0185606Y0085880D01*
X0185645Y0085958D01*
X0185687Y0086035D01*
X0185732Y0086110D01*
X0185781Y0086182D01*
X0185832Y0086253D01*
X0185887Y0086321D01*
X0185944Y0086386D01*
X0186005Y0086449D01*
X0186068Y0086510D01*
X0186133Y0086567D01*
X0186201Y0086622D01*
X0186272Y0086673D01*
X0186344Y0086722D01*
X0186419Y0086767D01*
X0186496Y0086809D01*
X0186574Y0086848D01*
X0186654Y0086883D01*
X0186735Y0086914D01*
X0186818Y0086942D01*
X0186901Y0086967D01*
X0186986Y0086988D01*
X0187072Y0087005D01*
X0187158Y0087018D01*
X0187245Y0087027D01*
X0187332Y0087033D01*
X0187419Y0087035D01*
X0200419Y0087035D01*
X0200419Y0088035D02*
X0187419Y0088035D01*
X0187332Y0088037D01*
X0187245Y0088043D01*
X0187158Y0088052D01*
X0187072Y0088065D01*
X0186986Y0088082D01*
X0186901Y0088103D01*
X0186818Y0088128D01*
X0186735Y0088156D01*
X0186654Y0088187D01*
X0186574Y0088222D01*
X0186496Y0088261D01*
X0186419Y0088303D01*
X0186344Y0088348D01*
X0186272Y0088397D01*
X0186201Y0088448D01*
X0186133Y0088503D01*
X0186068Y0088560D01*
X0186005Y0088621D01*
X0185944Y0088684D01*
X0185887Y0088749D01*
X0185832Y0088817D01*
X0185781Y0088888D01*
X0185732Y0088960D01*
X0185687Y0089035D01*
X0185645Y0089112D01*
X0185606Y0089190D01*
X0185571Y0089270D01*
X0185540Y0089351D01*
X0185512Y0089434D01*
X0185487Y0089517D01*
X0185466Y0089602D01*
X0185449Y0089688D01*
X0185436Y0089774D01*
X0185427Y0089861D01*
X0185421Y0089948D01*
X0185419Y0090035D01*
X0188919Y0092535D02*
X0192719Y0092535D01*
X0195219Y0092535D02*
X0198919Y0092535D01*
X0202419Y0090035D02*
X0202417Y0089948D01*
X0202411Y0089861D01*
X0202402Y0089774D01*
X0202389Y0089688D01*
X0202372Y0089602D01*
X0202351Y0089517D01*
X0202326Y0089434D01*
X0202298Y0089351D01*
X0202267Y0089270D01*
X0202232Y0089190D01*
X0202193Y0089112D01*
X0202151Y0089035D01*
X0202106Y0088960D01*
X0202057Y0088888D01*
X0202006Y0088817D01*
X0201951Y0088749D01*
X0201894Y0088684D01*
X0201833Y0088621D01*
X0201770Y0088560D01*
X0201705Y0088503D01*
X0201637Y0088448D01*
X0201566Y0088397D01*
X0201494Y0088348D01*
X0201419Y0088303D01*
X0201342Y0088261D01*
X0201264Y0088222D01*
X0201184Y0088187D01*
X0201103Y0088156D01*
X0201020Y0088128D01*
X0200937Y0088103D01*
X0200852Y0088082D01*
X0200766Y0088065D01*
X0200680Y0088052D01*
X0200593Y0088043D01*
X0200506Y0088037D01*
X0200419Y0088035D01*
X0200419Y0087035D02*
X0200506Y0087033D01*
X0200593Y0087027D01*
X0200680Y0087018D01*
X0200766Y0087005D01*
X0200852Y0086988D01*
X0200937Y0086967D01*
X0201020Y0086942D01*
X0201103Y0086914D01*
X0201184Y0086883D01*
X0201264Y0086848D01*
X0201342Y0086809D01*
X0201419Y0086767D01*
X0201494Y0086722D01*
X0201566Y0086673D01*
X0201637Y0086622D01*
X0201705Y0086567D01*
X0201770Y0086510D01*
X0201833Y0086449D01*
X0201894Y0086386D01*
X0201951Y0086321D01*
X0202006Y0086253D01*
X0202057Y0086182D01*
X0202106Y0086110D01*
X0202151Y0086035D01*
X0202193Y0085958D01*
X0202232Y0085880D01*
X0202267Y0085800D01*
X0202298Y0085719D01*
X0202326Y0085636D01*
X0202351Y0085553D01*
X0202372Y0085468D01*
X0202389Y0085382D01*
X0202402Y0085296D01*
X0202411Y0085209D01*
X0202417Y0085122D01*
X0202419Y0085035D01*
X0198919Y0082535D02*
X0195219Y0082535D01*
X0192719Y0082535D02*
X0188919Y0082535D01*
X0185419Y0080035D02*
X0185421Y0079948D01*
X0185427Y0079861D01*
X0185436Y0079774D01*
X0185449Y0079688D01*
X0185466Y0079602D01*
X0185487Y0079517D01*
X0185512Y0079434D01*
X0185540Y0079351D01*
X0185571Y0079270D01*
X0185606Y0079190D01*
X0185645Y0079112D01*
X0185687Y0079035D01*
X0185732Y0078960D01*
X0185781Y0078888D01*
X0185832Y0078817D01*
X0185887Y0078749D01*
X0185944Y0078684D01*
X0186005Y0078621D01*
X0186068Y0078560D01*
X0186133Y0078503D01*
X0186201Y0078448D01*
X0186272Y0078397D01*
X0186344Y0078348D01*
X0186419Y0078303D01*
X0186496Y0078261D01*
X0186574Y0078222D01*
X0186654Y0078187D01*
X0186735Y0078156D01*
X0186818Y0078128D01*
X0186901Y0078103D01*
X0186986Y0078082D01*
X0187072Y0078065D01*
X0187158Y0078052D01*
X0187245Y0078043D01*
X0187332Y0078037D01*
X0187419Y0078035D01*
X0200419Y0078035D01*
X0200506Y0078037D01*
X0200593Y0078043D01*
X0200680Y0078052D01*
X0200766Y0078065D01*
X0200852Y0078082D01*
X0200937Y0078103D01*
X0201020Y0078128D01*
X0201103Y0078156D01*
X0201184Y0078187D01*
X0201264Y0078222D01*
X0201342Y0078261D01*
X0201419Y0078303D01*
X0201494Y0078348D01*
X0201566Y0078397D01*
X0201637Y0078448D01*
X0201705Y0078503D01*
X0201770Y0078560D01*
X0201833Y0078621D01*
X0201894Y0078684D01*
X0201951Y0078749D01*
X0202006Y0078817D01*
X0202057Y0078888D01*
X0202106Y0078960D01*
X0202151Y0079035D01*
X0202193Y0079112D01*
X0202232Y0079190D01*
X0202267Y0079270D01*
X0202298Y0079351D01*
X0202326Y0079434D01*
X0202351Y0079517D01*
X0202372Y0079602D01*
X0202389Y0079688D01*
X0202402Y0079774D01*
X0202411Y0079861D01*
X0202417Y0079948D01*
X0202419Y0080035D01*
X0202419Y0095035D02*
X0202417Y0095122D01*
X0202411Y0095209D01*
X0202402Y0095296D01*
X0202389Y0095382D01*
X0202372Y0095468D01*
X0202351Y0095553D01*
X0202326Y0095636D01*
X0202298Y0095719D01*
X0202267Y0095800D01*
X0202232Y0095880D01*
X0202193Y0095958D01*
X0202151Y0096035D01*
X0202106Y0096110D01*
X0202057Y0096182D01*
X0202006Y0096253D01*
X0201951Y0096321D01*
X0201894Y0096386D01*
X0201833Y0096449D01*
X0201770Y0096510D01*
X0201705Y0096567D01*
X0201637Y0096622D01*
X0201566Y0096673D01*
X0201494Y0096722D01*
X0201419Y0096767D01*
X0201342Y0096809D01*
X0201264Y0096848D01*
X0201184Y0096883D01*
X0201103Y0096914D01*
X0201020Y0096942D01*
X0200937Y0096967D01*
X0200852Y0096988D01*
X0200766Y0097005D01*
X0200680Y0097018D01*
X0200593Y0097027D01*
X0200506Y0097033D01*
X0200419Y0097035D01*
X0187419Y0097035D01*
X0187332Y0097033D01*
X0187245Y0097027D01*
X0187158Y0097018D01*
X0187072Y0097005D01*
X0186986Y0096988D01*
X0186901Y0096967D01*
X0186818Y0096942D01*
X0186735Y0096914D01*
X0186654Y0096883D01*
X0186574Y0096848D01*
X0186496Y0096809D01*
X0186419Y0096767D01*
X0186344Y0096722D01*
X0186272Y0096673D01*
X0186201Y0096622D01*
X0186133Y0096567D01*
X0186068Y0096510D01*
X0186005Y0096449D01*
X0185944Y0096386D01*
X0185887Y0096321D01*
X0185832Y0096253D01*
X0185781Y0096182D01*
X0185732Y0096110D01*
X0185687Y0096035D01*
X0185645Y0095958D01*
X0185606Y0095880D01*
X0185571Y0095800D01*
X0185540Y0095719D01*
X0185512Y0095636D01*
X0185487Y0095553D01*
X0185466Y0095468D01*
X0185449Y0095382D01*
X0185436Y0095296D01*
X0185427Y0095209D01*
X0185421Y0095122D01*
X0185419Y0095035D01*
X0187419Y0107535D02*
X0210419Y0107535D01*
X0210419Y0177535D01*
X0202919Y0177535D01*
X0202917Y0177409D01*
X0202911Y0177284D01*
X0202901Y0177159D01*
X0202887Y0177034D01*
X0202870Y0176909D01*
X0202848Y0176785D01*
X0202823Y0176662D01*
X0202793Y0176540D01*
X0202760Y0176419D01*
X0202723Y0176299D01*
X0202683Y0176180D01*
X0202638Y0176063D01*
X0202590Y0175946D01*
X0202538Y0175832D01*
X0202483Y0175719D01*
X0202424Y0175608D01*
X0202362Y0175499D01*
X0202296Y0175392D01*
X0202227Y0175287D01*
X0202155Y0175184D01*
X0202080Y0175083D01*
X0202001Y0174985D01*
X0201919Y0174890D01*
X0201835Y0174797D01*
X0201747Y0174707D01*
X0201657Y0174619D01*
X0201564Y0174535D01*
X0201469Y0174453D01*
X0201371Y0174374D01*
X0201270Y0174299D01*
X0201167Y0174227D01*
X0201062Y0174158D01*
X0200955Y0174092D01*
X0200846Y0174030D01*
X0200735Y0173971D01*
X0200622Y0173916D01*
X0200508Y0173864D01*
X0200391Y0173816D01*
X0200274Y0173771D01*
X0200155Y0173731D01*
X0200035Y0173694D01*
X0199914Y0173661D01*
X0199792Y0173631D01*
X0199669Y0173606D01*
X0199545Y0173584D01*
X0199420Y0173567D01*
X0199295Y0173553D01*
X0199170Y0173543D01*
X0199045Y0173537D01*
X0198919Y0173535D01*
X0198793Y0173537D01*
X0198668Y0173543D01*
X0198543Y0173553D01*
X0198418Y0173567D01*
X0198293Y0173584D01*
X0198169Y0173606D01*
X0198046Y0173631D01*
X0197924Y0173661D01*
X0197803Y0173694D01*
X0197683Y0173731D01*
X0197564Y0173771D01*
X0197447Y0173816D01*
X0197330Y0173864D01*
X0197216Y0173916D01*
X0197103Y0173971D01*
X0196992Y0174030D01*
X0196883Y0174092D01*
X0196776Y0174158D01*
X0196671Y0174227D01*
X0196568Y0174299D01*
X0196467Y0174374D01*
X0196369Y0174453D01*
X0196274Y0174535D01*
X0196181Y0174619D01*
X0196091Y0174707D01*
X0196003Y0174797D01*
X0195919Y0174890D01*
X0195837Y0174985D01*
X0195758Y0175083D01*
X0195683Y0175184D01*
X0195611Y0175287D01*
X0195542Y0175392D01*
X0195476Y0175499D01*
X0195414Y0175608D01*
X0195355Y0175719D01*
X0195300Y0175832D01*
X0195248Y0175946D01*
X0195200Y0176063D01*
X0195155Y0176180D01*
X0195115Y0176299D01*
X0195078Y0176419D01*
X0195045Y0176540D01*
X0195015Y0176662D01*
X0194990Y0176785D01*
X0194968Y0176909D01*
X0194951Y0177034D01*
X0194937Y0177159D01*
X0194927Y0177284D01*
X0194921Y0177409D01*
X0194919Y0177535D01*
X0187419Y0177535D01*
X0187419Y0107535D01*
X0213919Y0105535D02*
X0213919Y0099535D01*
X0213921Y0099475D01*
X0213926Y0099414D01*
X0213935Y0099355D01*
X0213948Y0099296D01*
X0213964Y0099237D01*
X0213984Y0099180D01*
X0214007Y0099125D01*
X0214034Y0099070D01*
X0214063Y0099018D01*
X0214096Y0098967D01*
X0214132Y0098918D01*
X0214170Y0098872D01*
X0214212Y0098828D01*
X0214256Y0098786D01*
X0214302Y0098748D01*
X0214351Y0098712D01*
X0214402Y0098679D01*
X0214454Y0098650D01*
X0214509Y0098623D01*
X0214564Y0098600D01*
X0214621Y0098580D01*
X0214680Y0098564D01*
X0214739Y0098551D01*
X0214798Y0098542D01*
X0214859Y0098537D01*
X0214919Y0098535D01*
X0216419Y0098535D01*
X0216919Y0099035D01*
X0230919Y0099035D01*
X0231419Y0098535D01*
X0232919Y0098535D01*
X0232979Y0098537D01*
X0233040Y0098542D01*
X0233099Y0098551D01*
X0233158Y0098564D01*
X0233217Y0098580D01*
X0233274Y0098600D01*
X0233329Y0098623D01*
X0233384Y0098650D01*
X0233436Y0098679D01*
X0233487Y0098712D01*
X0233536Y0098748D01*
X0233582Y0098786D01*
X0233626Y0098828D01*
X0233668Y0098872D01*
X0233706Y0098918D01*
X0233742Y0098967D01*
X0233775Y0099018D01*
X0233804Y0099070D01*
X0233831Y0099125D01*
X0233854Y0099180D01*
X0233874Y0099237D01*
X0233890Y0099296D01*
X0233903Y0099355D01*
X0233912Y0099414D01*
X0233917Y0099475D01*
X0233919Y0099535D01*
X0233919Y0105535D01*
X0233917Y0105595D01*
X0233912Y0105656D01*
X0233903Y0105715D01*
X0233890Y0105774D01*
X0233874Y0105833D01*
X0233854Y0105890D01*
X0233831Y0105945D01*
X0233804Y0106000D01*
X0233775Y0106052D01*
X0233742Y0106103D01*
X0233706Y0106152D01*
X0233668Y0106198D01*
X0233626Y0106242D01*
X0233582Y0106284D01*
X0233536Y0106322D01*
X0233487Y0106358D01*
X0233436Y0106391D01*
X0233384Y0106420D01*
X0233329Y0106447D01*
X0233274Y0106470D01*
X0233217Y0106490D01*
X0233158Y0106506D01*
X0233099Y0106519D01*
X0233040Y0106528D01*
X0232979Y0106533D01*
X0232919Y0106535D01*
X0231419Y0106535D01*
X0230919Y0106035D01*
X0216919Y0106035D01*
X0216419Y0106535D01*
X0214919Y0106535D01*
X0214859Y0106533D01*
X0214798Y0106528D01*
X0214739Y0106519D01*
X0214680Y0106506D01*
X0214621Y0106490D01*
X0214564Y0106470D01*
X0214509Y0106447D01*
X0214454Y0106420D01*
X0214402Y0106391D01*
X0214351Y0106358D01*
X0214302Y0106322D01*
X0214256Y0106284D01*
X0214212Y0106242D01*
X0214170Y0106198D01*
X0214132Y0106152D01*
X0214096Y0106103D01*
X0214063Y0106052D01*
X0214034Y0106000D01*
X0214007Y0105945D01*
X0213984Y0105890D01*
X0213964Y0105833D01*
X0213948Y0105774D01*
X0213935Y0105715D01*
X0213926Y0105656D01*
X0213921Y0105595D01*
X0213919Y0105535D01*
X0213921Y0105595D01*
X0213926Y0105656D01*
X0213935Y0105715D01*
X0213948Y0105774D01*
X0213964Y0105833D01*
X0213984Y0105890D01*
X0214007Y0105945D01*
X0214034Y0106000D01*
X0214063Y0106052D01*
X0214096Y0106103D01*
X0214132Y0106152D01*
X0214170Y0106198D01*
X0214212Y0106242D01*
X0214256Y0106284D01*
X0214302Y0106322D01*
X0214351Y0106358D01*
X0214402Y0106391D01*
X0214454Y0106420D01*
X0214509Y0106447D01*
X0214564Y0106470D01*
X0214621Y0106490D01*
X0214680Y0106506D01*
X0214739Y0106519D01*
X0214798Y0106528D01*
X0214859Y0106533D01*
X0214919Y0106535D01*
X0213919Y0099535D02*
X0213921Y0099475D01*
X0213926Y0099414D01*
X0213935Y0099355D01*
X0213948Y0099296D01*
X0213964Y0099237D01*
X0213984Y0099180D01*
X0214007Y0099125D01*
X0214034Y0099070D01*
X0214063Y0099018D01*
X0214096Y0098967D01*
X0214132Y0098918D01*
X0214170Y0098872D01*
X0214212Y0098828D01*
X0214256Y0098786D01*
X0214302Y0098748D01*
X0214351Y0098712D01*
X0214402Y0098679D01*
X0214454Y0098650D01*
X0214509Y0098623D01*
X0214564Y0098600D01*
X0214621Y0098580D01*
X0214680Y0098564D01*
X0214739Y0098551D01*
X0214798Y0098542D01*
X0214859Y0098537D01*
X0214919Y0098535D01*
X0232919Y0098535D02*
X0232979Y0098537D01*
X0233040Y0098542D01*
X0233099Y0098551D01*
X0233158Y0098564D01*
X0233217Y0098580D01*
X0233274Y0098600D01*
X0233329Y0098623D01*
X0233384Y0098650D01*
X0233436Y0098679D01*
X0233487Y0098712D01*
X0233536Y0098748D01*
X0233582Y0098786D01*
X0233626Y0098828D01*
X0233668Y0098872D01*
X0233706Y0098918D01*
X0233742Y0098967D01*
X0233775Y0099018D01*
X0233804Y0099070D01*
X0233831Y0099125D01*
X0233854Y0099180D01*
X0233874Y0099237D01*
X0233890Y0099296D01*
X0233903Y0099355D01*
X0233912Y0099414D01*
X0233917Y0099475D01*
X0233919Y0099535D01*
X0233919Y0105535D02*
X0233917Y0105595D01*
X0233912Y0105656D01*
X0233903Y0105715D01*
X0233890Y0105774D01*
X0233874Y0105833D01*
X0233854Y0105890D01*
X0233831Y0105945D01*
X0233804Y0106000D01*
X0233775Y0106052D01*
X0233742Y0106103D01*
X0233706Y0106152D01*
X0233668Y0106198D01*
X0233626Y0106242D01*
X0233582Y0106284D01*
X0233536Y0106322D01*
X0233487Y0106358D01*
X0233436Y0106391D01*
X0233384Y0106420D01*
X0233329Y0106447D01*
X0233274Y0106470D01*
X0233217Y0106490D01*
X0233158Y0106506D01*
X0233099Y0106519D01*
X0233040Y0106528D01*
X0232979Y0106533D01*
X0232919Y0106535D01*
X0259919Y0113535D02*
X0259919Y0115035D01*
X0260419Y0115535D01*
X0260419Y0129535D01*
X0259919Y0130035D01*
X0259919Y0131535D01*
X0259921Y0131595D01*
X0259926Y0131656D01*
X0259935Y0131715D01*
X0259948Y0131774D01*
X0259964Y0131833D01*
X0259984Y0131890D01*
X0260007Y0131945D01*
X0260034Y0132000D01*
X0260063Y0132052D01*
X0260096Y0132103D01*
X0260132Y0132152D01*
X0260170Y0132198D01*
X0260212Y0132242D01*
X0260256Y0132284D01*
X0260302Y0132322D01*
X0260351Y0132358D01*
X0260402Y0132391D01*
X0260454Y0132420D01*
X0260509Y0132447D01*
X0260564Y0132470D01*
X0260621Y0132490D01*
X0260680Y0132506D01*
X0260739Y0132519D01*
X0260798Y0132528D01*
X0260859Y0132533D01*
X0260919Y0132535D01*
X0266919Y0132535D01*
X0266979Y0132533D01*
X0267040Y0132528D01*
X0267099Y0132519D01*
X0267158Y0132506D01*
X0267217Y0132490D01*
X0267274Y0132470D01*
X0267329Y0132447D01*
X0267384Y0132420D01*
X0267436Y0132391D01*
X0267487Y0132358D01*
X0267536Y0132322D01*
X0267582Y0132284D01*
X0267626Y0132242D01*
X0267668Y0132198D01*
X0267706Y0132152D01*
X0267742Y0132103D01*
X0267775Y0132052D01*
X0267804Y0132000D01*
X0267831Y0131945D01*
X0267854Y0131890D01*
X0267874Y0131833D01*
X0267890Y0131774D01*
X0267903Y0131715D01*
X0267912Y0131656D01*
X0267917Y0131595D01*
X0267919Y0131535D01*
X0267919Y0130035D01*
X0267419Y0129535D01*
X0267419Y0115535D01*
X0267919Y0115035D01*
X0267919Y0113535D01*
X0267917Y0113475D01*
X0267912Y0113414D01*
X0267903Y0113355D01*
X0267890Y0113296D01*
X0267874Y0113237D01*
X0267854Y0113180D01*
X0267831Y0113125D01*
X0267804Y0113070D01*
X0267775Y0113018D01*
X0267742Y0112967D01*
X0267706Y0112918D01*
X0267668Y0112872D01*
X0267626Y0112828D01*
X0267582Y0112786D01*
X0267536Y0112748D01*
X0267487Y0112712D01*
X0267436Y0112679D01*
X0267384Y0112650D01*
X0267329Y0112623D01*
X0267274Y0112600D01*
X0267217Y0112580D01*
X0267158Y0112564D01*
X0267099Y0112551D01*
X0267040Y0112542D01*
X0266979Y0112537D01*
X0266919Y0112535D01*
X0260919Y0112535D01*
X0260859Y0112537D01*
X0260798Y0112542D01*
X0260739Y0112551D01*
X0260680Y0112564D01*
X0260621Y0112580D01*
X0260564Y0112600D01*
X0260509Y0112623D01*
X0260454Y0112650D01*
X0260402Y0112679D01*
X0260351Y0112712D01*
X0260302Y0112748D01*
X0260256Y0112786D01*
X0260212Y0112828D01*
X0260170Y0112872D01*
X0260132Y0112918D01*
X0260096Y0112967D01*
X0260063Y0113018D01*
X0260034Y0113070D01*
X0260007Y0113125D01*
X0259984Y0113180D01*
X0259964Y0113237D01*
X0259948Y0113296D01*
X0259935Y0113355D01*
X0259926Y0113414D01*
X0259921Y0113475D01*
X0259919Y0113535D01*
X0259921Y0113475D01*
X0259926Y0113414D01*
X0259935Y0113355D01*
X0259948Y0113296D01*
X0259964Y0113237D01*
X0259984Y0113180D01*
X0260007Y0113125D01*
X0260034Y0113070D01*
X0260063Y0113018D01*
X0260096Y0112967D01*
X0260132Y0112918D01*
X0260170Y0112872D01*
X0260212Y0112828D01*
X0260256Y0112786D01*
X0260302Y0112748D01*
X0260351Y0112712D01*
X0260402Y0112679D01*
X0260454Y0112650D01*
X0260509Y0112623D01*
X0260564Y0112600D01*
X0260621Y0112580D01*
X0260680Y0112564D01*
X0260739Y0112551D01*
X0260798Y0112542D01*
X0260859Y0112537D01*
X0260919Y0112535D01*
X0266919Y0112535D02*
X0266979Y0112537D01*
X0267040Y0112542D01*
X0267099Y0112551D01*
X0267158Y0112564D01*
X0267217Y0112580D01*
X0267274Y0112600D01*
X0267329Y0112623D01*
X0267384Y0112650D01*
X0267436Y0112679D01*
X0267487Y0112712D01*
X0267536Y0112748D01*
X0267582Y0112786D01*
X0267626Y0112828D01*
X0267668Y0112872D01*
X0267706Y0112918D01*
X0267742Y0112967D01*
X0267775Y0113018D01*
X0267804Y0113070D01*
X0267831Y0113125D01*
X0267854Y0113180D01*
X0267874Y0113237D01*
X0267890Y0113296D01*
X0267903Y0113355D01*
X0267912Y0113414D01*
X0267917Y0113475D01*
X0267919Y0113535D01*
X0287419Y0118035D02*
X0300419Y0118035D01*
X0300506Y0118037D01*
X0300593Y0118043D01*
X0300680Y0118052D01*
X0300766Y0118065D01*
X0300852Y0118082D01*
X0300937Y0118103D01*
X0301020Y0118128D01*
X0301103Y0118156D01*
X0301184Y0118187D01*
X0301264Y0118222D01*
X0301342Y0118261D01*
X0301419Y0118303D01*
X0301494Y0118348D01*
X0301566Y0118397D01*
X0301637Y0118448D01*
X0301705Y0118503D01*
X0301770Y0118560D01*
X0301833Y0118621D01*
X0301894Y0118684D01*
X0301951Y0118749D01*
X0302006Y0118817D01*
X0302057Y0118888D01*
X0302106Y0118960D01*
X0302151Y0119035D01*
X0302193Y0119112D01*
X0302232Y0119190D01*
X0302267Y0119270D01*
X0302298Y0119351D01*
X0302326Y0119434D01*
X0302351Y0119517D01*
X0302372Y0119602D01*
X0302389Y0119688D01*
X0302402Y0119774D01*
X0302411Y0119861D01*
X0302417Y0119948D01*
X0302419Y0120035D01*
X0298919Y0122535D02*
X0295219Y0122535D01*
X0292719Y0122535D02*
X0288919Y0122535D01*
X0285419Y0120035D02*
X0285421Y0119948D01*
X0285427Y0119861D01*
X0285436Y0119774D01*
X0285449Y0119688D01*
X0285466Y0119602D01*
X0285487Y0119517D01*
X0285512Y0119434D01*
X0285540Y0119351D01*
X0285571Y0119270D01*
X0285606Y0119190D01*
X0285645Y0119112D01*
X0285687Y0119035D01*
X0285732Y0118960D01*
X0285781Y0118888D01*
X0285832Y0118817D01*
X0285887Y0118749D01*
X0285944Y0118684D01*
X0286005Y0118621D01*
X0286068Y0118560D01*
X0286133Y0118503D01*
X0286201Y0118448D01*
X0286272Y0118397D01*
X0286344Y0118348D01*
X0286419Y0118303D01*
X0286496Y0118261D01*
X0286574Y0118222D01*
X0286654Y0118187D01*
X0286735Y0118156D01*
X0286818Y0118128D01*
X0286901Y0118103D01*
X0286986Y0118082D01*
X0287072Y0118065D01*
X0287158Y0118052D01*
X0287245Y0118043D01*
X0287332Y0118037D01*
X0287419Y0118035D01*
X0285419Y0125035D02*
X0285421Y0125122D01*
X0285427Y0125209D01*
X0285436Y0125296D01*
X0285449Y0125382D01*
X0285466Y0125468D01*
X0285487Y0125553D01*
X0285512Y0125636D01*
X0285540Y0125719D01*
X0285571Y0125800D01*
X0285606Y0125880D01*
X0285645Y0125958D01*
X0285687Y0126035D01*
X0285732Y0126110D01*
X0285781Y0126182D01*
X0285832Y0126253D01*
X0285887Y0126321D01*
X0285944Y0126386D01*
X0286005Y0126449D01*
X0286068Y0126510D01*
X0286133Y0126567D01*
X0286201Y0126622D01*
X0286272Y0126673D01*
X0286344Y0126722D01*
X0286419Y0126767D01*
X0286496Y0126809D01*
X0286574Y0126848D01*
X0286654Y0126883D01*
X0286735Y0126914D01*
X0286818Y0126942D01*
X0286901Y0126967D01*
X0286986Y0126988D01*
X0287072Y0127005D01*
X0287158Y0127018D01*
X0287245Y0127027D01*
X0287332Y0127033D01*
X0287419Y0127035D01*
X0300419Y0127035D01*
X0300506Y0127033D01*
X0300593Y0127027D01*
X0300680Y0127018D01*
X0300766Y0127005D01*
X0300852Y0126988D01*
X0300937Y0126967D01*
X0301020Y0126942D01*
X0301103Y0126914D01*
X0301184Y0126883D01*
X0301264Y0126848D01*
X0301342Y0126809D01*
X0301419Y0126767D01*
X0301494Y0126722D01*
X0301566Y0126673D01*
X0301637Y0126622D01*
X0301705Y0126567D01*
X0301770Y0126510D01*
X0301833Y0126449D01*
X0301894Y0126386D01*
X0301951Y0126321D01*
X0302006Y0126253D01*
X0302057Y0126182D01*
X0302106Y0126110D01*
X0302151Y0126035D01*
X0302193Y0125958D01*
X0302232Y0125880D01*
X0302267Y0125800D01*
X0302298Y0125719D01*
X0302326Y0125636D01*
X0302351Y0125553D01*
X0302372Y0125468D01*
X0302389Y0125382D01*
X0302402Y0125296D01*
X0302411Y0125209D01*
X0302417Y0125122D01*
X0302419Y0125035D01*
X0300419Y0107035D02*
X0287419Y0107035D01*
X0287332Y0107033D01*
X0287245Y0107027D01*
X0287158Y0107018D01*
X0287072Y0107005D01*
X0286986Y0106988D01*
X0286901Y0106967D01*
X0286818Y0106942D01*
X0286735Y0106914D01*
X0286654Y0106883D01*
X0286574Y0106848D01*
X0286496Y0106809D01*
X0286419Y0106767D01*
X0286344Y0106722D01*
X0286272Y0106673D01*
X0286201Y0106622D01*
X0286133Y0106567D01*
X0286068Y0106510D01*
X0286005Y0106449D01*
X0285944Y0106386D01*
X0285887Y0106321D01*
X0285832Y0106253D01*
X0285781Y0106182D01*
X0285732Y0106110D01*
X0285687Y0106035D01*
X0285645Y0105958D01*
X0285606Y0105880D01*
X0285571Y0105800D01*
X0285540Y0105719D01*
X0285512Y0105636D01*
X0285487Y0105553D01*
X0285466Y0105468D01*
X0285449Y0105382D01*
X0285436Y0105296D01*
X0285427Y0105209D01*
X0285421Y0105122D01*
X0285419Y0105035D01*
X0288919Y0102535D02*
X0292619Y0102535D01*
X0295119Y0102535D02*
X0298919Y0102535D01*
X0302419Y0100035D02*
X0302417Y0099948D01*
X0302411Y0099861D01*
X0302402Y0099774D01*
X0302389Y0099688D01*
X0302372Y0099602D01*
X0302351Y0099517D01*
X0302326Y0099434D01*
X0302298Y0099351D01*
X0302267Y0099270D01*
X0302232Y0099190D01*
X0302193Y0099112D01*
X0302151Y0099035D01*
X0302106Y0098960D01*
X0302057Y0098888D01*
X0302006Y0098817D01*
X0301951Y0098749D01*
X0301894Y0098684D01*
X0301833Y0098621D01*
X0301770Y0098560D01*
X0301705Y0098503D01*
X0301637Y0098448D01*
X0301566Y0098397D01*
X0301494Y0098348D01*
X0301419Y0098303D01*
X0301342Y0098261D01*
X0301264Y0098222D01*
X0301184Y0098187D01*
X0301103Y0098156D01*
X0301020Y0098128D01*
X0300937Y0098103D01*
X0300852Y0098082D01*
X0300766Y0098065D01*
X0300680Y0098052D01*
X0300593Y0098043D01*
X0300506Y0098037D01*
X0300419Y0098035D01*
X0287419Y0098035D01*
X0287332Y0098037D01*
X0287245Y0098043D01*
X0287158Y0098052D01*
X0287072Y0098065D01*
X0286986Y0098082D01*
X0286901Y0098103D01*
X0286818Y0098128D01*
X0286735Y0098156D01*
X0286654Y0098187D01*
X0286574Y0098222D01*
X0286496Y0098261D01*
X0286419Y0098303D01*
X0286344Y0098348D01*
X0286272Y0098397D01*
X0286201Y0098448D01*
X0286133Y0098503D01*
X0286068Y0098560D01*
X0286005Y0098621D01*
X0285944Y0098684D01*
X0285887Y0098749D01*
X0285832Y0098817D01*
X0285781Y0098888D01*
X0285732Y0098960D01*
X0285687Y0099035D01*
X0285645Y0099112D01*
X0285606Y0099190D01*
X0285571Y0099270D01*
X0285540Y0099351D01*
X0285512Y0099434D01*
X0285487Y0099517D01*
X0285466Y0099602D01*
X0285449Y0099688D01*
X0285436Y0099774D01*
X0285427Y0099861D01*
X0285421Y0099948D01*
X0285419Y0100035D01*
X0300419Y0107035D02*
X0300506Y0107033D01*
X0300593Y0107027D01*
X0300680Y0107018D01*
X0300766Y0107005D01*
X0300852Y0106988D01*
X0300937Y0106967D01*
X0301020Y0106942D01*
X0301103Y0106914D01*
X0301184Y0106883D01*
X0301264Y0106848D01*
X0301342Y0106809D01*
X0301419Y0106767D01*
X0301494Y0106722D01*
X0301566Y0106673D01*
X0301637Y0106622D01*
X0301705Y0106567D01*
X0301770Y0106510D01*
X0301833Y0106449D01*
X0301894Y0106386D01*
X0301951Y0106321D01*
X0302006Y0106253D01*
X0302057Y0106182D01*
X0302106Y0106110D01*
X0302151Y0106035D01*
X0302193Y0105958D01*
X0302232Y0105880D01*
X0302267Y0105800D01*
X0302298Y0105719D01*
X0302326Y0105636D01*
X0302351Y0105553D01*
X0302372Y0105468D01*
X0302389Y0105382D01*
X0302402Y0105296D01*
X0302411Y0105209D01*
X0302417Y0105122D01*
X0302419Y0105035D01*
X0267919Y0131535D02*
X0267917Y0131595D01*
X0267912Y0131656D01*
X0267903Y0131715D01*
X0267890Y0131774D01*
X0267874Y0131833D01*
X0267854Y0131890D01*
X0267831Y0131945D01*
X0267804Y0132000D01*
X0267775Y0132052D01*
X0267742Y0132103D01*
X0267706Y0132152D01*
X0267668Y0132198D01*
X0267626Y0132242D01*
X0267582Y0132284D01*
X0267536Y0132322D01*
X0267487Y0132358D01*
X0267436Y0132391D01*
X0267384Y0132420D01*
X0267329Y0132447D01*
X0267274Y0132470D01*
X0267217Y0132490D01*
X0267158Y0132506D01*
X0267099Y0132519D01*
X0267040Y0132528D01*
X0266979Y0132533D01*
X0266919Y0132535D01*
X0260919Y0132535D02*
X0260859Y0132533D01*
X0260798Y0132528D01*
X0260739Y0132519D01*
X0260680Y0132506D01*
X0260621Y0132490D01*
X0260564Y0132470D01*
X0260509Y0132447D01*
X0260454Y0132420D01*
X0260402Y0132391D01*
X0260351Y0132358D01*
X0260302Y0132322D01*
X0260256Y0132284D01*
X0260212Y0132242D01*
X0260170Y0132198D01*
X0260132Y0132152D01*
X0260096Y0132103D01*
X0260063Y0132052D01*
X0260034Y0132000D01*
X0260007Y0131945D01*
X0259984Y0131890D01*
X0259964Y0131833D01*
X0259948Y0131774D01*
X0259935Y0131715D01*
X0259926Y0131656D01*
X0259921Y0131595D01*
X0259919Y0131535D01*
X0250419Y0138035D02*
X0237419Y0138035D01*
X0237332Y0138037D01*
X0237245Y0138043D01*
X0237158Y0138052D01*
X0237072Y0138065D01*
X0236986Y0138082D01*
X0236901Y0138103D01*
X0236818Y0138128D01*
X0236735Y0138156D01*
X0236654Y0138187D01*
X0236574Y0138222D01*
X0236496Y0138261D01*
X0236419Y0138303D01*
X0236344Y0138348D01*
X0236272Y0138397D01*
X0236201Y0138448D01*
X0236133Y0138503D01*
X0236068Y0138560D01*
X0236005Y0138621D01*
X0235944Y0138684D01*
X0235887Y0138749D01*
X0235832Y0138817D01*
X0235781Y0138888D01*
X0235732Y0138960D01*
X0235687Y0139035D01*
X0235645Y0139112D01*
X0235606Y0139190D01*
X0235571Y0139270D01*
X0235540Y0139351D01*
X0235512Y0139434D01*
X0235487Y0139517D01*
X0235466Y0139602D01*
X0235449Y0139688D01*
X0235436Y0139774D01*
X0235427Y0139861D01*
X0235421Y0139948D01*
X0235419Y0140035D01*
X0238919Y0142535D02*
X0242719Y0142535D01*
X0245219Y0142535D02*
X0248919Y0142535D01*
X0252419Y0140035D02*
X0252417Y0139948D01*
X0252411Y0139861D01*
X0252402Y0139774D01*
X0252389Y0139688D01*
X0252372Y0139602D01*
X0252351Y0139517D01*
X0252326Y0139434D01*
X0252298Y0139351D01*
X0252267Y0139270D01*
X0252232Y0139190D01*
X0252193Y0139112D01*
X0252151Y0139035D01*
X0252106Y0138960D01*
X0252057Y0138888D01*
X0252006Y0138817D01*
X0251951Y0138749D01*
X0251894Y0138684D01*
X0251833Y0138621D01*
X0251770Y0138560D01*
X0251705Y0138503D01*
X0251637Y0138448D01*
X0251566Y0138397D01*
X0251494Y0138348D01*
X0251419Y0138303D01*
X0251342Y0138261D01*
X0251264Y0138222D01*
X0251184Y0138187D01*
X0251103Y0138156D01*
X0251020Y0138128D01*
X0250937Y0138103D01*
X0250852Y0138082D01*
X0250766Y0138065D01*
X0250680Y0138052D01*
X0250593Y0138043D01*
X0250506Y0138037D01*
X0250419Y0138035D01*
X0252419Y0145035D02*
X0252417Y0145122D01*
X0252411Y0145209D01*
X0252402Y0145296D01*
X0252389Y0145382D01*
X0252372Y0145468D01*
X0252351Y0145553D01*
X0252326Y0145636D01*
X0252298Y0145719D01*
X0252267Y0145800D01*
X0252232Y0145880D01*
X0252193Y0145958D01*
X0252151Y0146035D01*
X0252106Y0146110D01*
X0252057Y0146182D01*
X0252006Y0146253D01*
X0251951Y0146321D01*
X0251894Y0146386D01*
X0251833Y0146449D01*
X0251770Y0146510D01*
X0251705Y0146567D01*
X0251637Y0146622D01*
X0251566Y0146673D01*
X0251494Y0146722D01*
X0251419Y0146767D01*
X0251342Y0146809D01*
X0251264Y0146848D01*
X0251184Y0146883D01*
X0251103Y0146914D01*
X0251020Y0146942D01*
X0250937Y0146967D01*
X0250852Y0146988D01*
X0250766Y0147005D01*
X0250680Y0147018D01*
X0250593Y0147027D01*
X0250506Y0147033D01*
X0250419Y0147035D01*
X0237419Y0147035D01*
X0237332Y0147033D01*
X0237245Y0147027D01*
X0237158Y0147018D01*
X0237072Y0147005D01*
X0236986Y0146988D01*
X0236901Y0146967D01*
X0236818Y0146942D01*
X0236735Y0146914D01*
X0236654Y0146883D01*
X0236574Y0146848D01*
X0236496Y0146809D01*
X0236419Y0146767D01*
X0236344Y0146722D01*
X0236272Y0146673D01*
X0236201Y0146622D01*
X0236133Y0146567D01*
X0236068Y0146510D01*
X0236005Y0146449D01*
X0235944Y0146386D01*
X0235887Y0146321D01*
X0235832Y0146253D01*
X0235781Y0146182D01*
X0235732Y0146110D01*
X0235687Y0146035D01*
X0235645Y0145958D01*
X0235606Y0145880D01*
X0235571Y0145800D01*
X0235540Y0145719D01*
X0235512Y0145636D01*
X0235487Y0145553D01*
X0235466Y0145468D01*
X0235449Y0145382D01*
X0235436Y0145296D01*
X0235427Y0145209D01*
X0235421Y0145122D01*
X0235419Y0145035D01*
X0257419Y0148035D02*
X0270419Y0148035D01*
X0270506Y0148037D01*
X0270593Y0148043D01*
X0270680Y0148052D01*
X0270766Y0148065D01*
X0270852Y0148082D01*
X0270937Y0148103D01*
X0271020Y0148128D01*
X0271103Y0148156D01*
X0271184Y0148187D01*
X0271264Y0148222D01*
X0271342Y0148261D01*
X0271419Y0148303D01*
X0271494Y0148348D01*
X0271566Y0148397D01*
X0271637Y0148448D01*
X0271705Y0148503D01*
X0271770Y0148560D01*
X0271833Y0148621D01*
X0271894Y0148684D01*
X0271951Y0148749D01*
X0272006Y0148817D01*
X0272057Y0148888D01*
X0272106Y0148960D01*
X0272151Y0149035D01*
X0272193Y0149112D01*
X0272232Y0149190D01*
X0272267Y0149270D01*
X0272298Y0149351D01*
X0272326Y0149434D01*
X0272351Y0149517D01*
X0272372Y0149602D01*
X0272389Y0149688D01*
X0272402Y0149774D01*
X0272411Y0149861D01*
X0272417Y0149948D01*
X0272419Y0150035D01*
X0268919Y0152535D02*
X0265119Y0152535D01*
X0262619Y0152535D02*
X0258919Y0152535D01*
X0255419Y0150035D02*
X0255421Y0149948D01*
X0255427Y0149861D01*
X0255436Y0149774D01*
X0255449Y0149688D01*
X0255466Y0149602D01*
X0255487Y0149517D01*
X0255512Y0149434D01*
X0255540Y0149351D01*
X0255571Y0149270D01*
X0255606Y0149190D01*
X0255645Y0149112D01*
X0255687Y0149035D01*
X0255732Y0148960D01*
X0255781Y0148888D01*
X0255832Y0148817D01*
X0255887Y0148749D01*
X0255944Y0148684D01*
X0256005Y0148621D01*
X0256068Y0148560D01*
X0256133Y0148503D01*
X0256201Y0148448D01*
X0256272Y0148397D01*
X0256344Y0148348D01*
X0256419Y0148303D01*
X0256496Y0148261D01*
X0256574Y0148222D01*
X0256654Y0148187D01*
X0256735Y0148156D01*
X0256818Y0148128D01*
X0256901Y0148103D01*
X0256986Y0148082D01*
X0257072Y0148065D01*
X0257158Y0148052D01*
X0257245Y0148043D01*
X0257332Y0148037D01*
X0257419Y0148035D01*
X0255419Y0155035D02*
X0255421Y0155122D01*
X0255427Y0155209D01*
X0255436Y0155296D01*
X0255449Y0155382D01*
X0255466Y0155468D01*
X0255487Y0155553D01*
X0255512Y0155636D01*
X0255540Y0155719D01*
X0255571Y0155800D01*
X0255606Y0155880D01*
X0255645Y0155958D01*
X0255687Y0156035D01*
X0255732Y0156110D01*
X0255781Y0156182D01*
X0255832Y0156253D01*
X0255887Y0156321D01*
X0255944Y0156386D01*
X0256005Y0156449D01*
X0256068Y0156510D01*
X0256133Y0156567D01*
X0256201Y0156622D01*
X0256272Y0156673D01*
X0256344Y0156722D01*
X0256419Y0156767D01*
X0256496Y0156809D01*
X0256574Y0156848D01*
X0256654Y0156883D01*
X0256735Y0156914D01*
X0256818Y0156942D01*
X0256901Y0156967D01*
X0256986Y0156988D01*
X0257072Y0157005D01*
X0257158Y0157018D01*
X0257245Y0157027D01*
X0257332Y0157033D01*
X0257419Y0157035D01*
X0270419Y0157035D01*
X0270506Y0157033D01*
X0270593Y0157027D01*
X0270680Y0157018D01*
X0270766Y0157005D01*
X0270852Y0156988D01*
X0270937Y0156967D01*
X0271020Y0156942D01*
X0271103Y0156914D01*
X0271184Y0156883D01*
X0271264Y0156848D01*
X0271342Y0156809D01*
X0271419Y0156767D01*
X0271494Y0156722D01*
X0271566Y0156673D01*
X0271637Y0156622D01*
X0271705Y0156567D01*
X0271770Y0156510D01*
X0271833Y0156449D01*
X0271894Y0156386D01*
X0271951Y0156321D01*
X0272006Y0156253D01*
X0272057Y0156182D01*
X0272106Y0156110D01*
X0272151Y0156035D01*
X0272193Y0155958D01*
X0272232Y0155880D01*
X0272267Y0155800D01*
X0272298Y0155719D01*
X0272326Y0155636D01*
X0272351Y0155553D01*
X0272372Y0155468D01*
X0272389Y0155382D01*
X0272402Y0155296D01*
X0272411Y0155209D01*
X0272417Y0155122D01*
X0272419Y0155035D01*
X0299419Y0159035D02*
X0299419Y0146035D01*
X0299421Y0145948D01*
X0299427Y0145861D01*
X0299436Y0145774D01*
X0299449Y0145688D01*
X0299466Y0145602D01*
X0299487Y0145517D01*
X0299512Y0145434D01*
X0299540Y0145351D01*
X0299571Y0145270D01*
X0299606Y0145190D01*
X0299645Y0145112D01*
X0299687Y0145035D01*
X0299732Y0144960D01*
X0299781Y0144888D01*
X0299832Y0144817D01*
X0299887Y0144749D01*
X0299944Y0144684D01*
X0300005Y0144621D01*
X0300068Y0144560D01*
X0300133Y0144503D01*
X0300201Y0144448D01*
X0300272Y0144397D01*
X0300344Y0144348D01*
X0300419Y0144303D01*
X0300496Y0144261D01*
X0300574Y0144222D01*
X0300654Y0144187D01*
X0300735Y0144156D01*
X0300818Y0144128D01*
X0300901Y0144103D01*
X0300986Y0144082D01*
X0301072Y0144065D01*
X0301158Y0144052D01*
X0301245Y0144043D01*
X0301332Y0144037D01*
X0301419Y0144035D01*
X0303919Y0147535D02*
X0303919Y0151235D01*
X0303919Y0153735D02*
X0303919Y0157535D01*
X0301419Y0161035D02*
X0301332Y0161033D01*
X0301245Y0161027D01*
X0301158Y0161018D01*
X0301072Y0161005D01*
X0300986Y0160988D01*
X0300901Y0160967D01*
X0300818Y0160942D01*
X0300735Y0160914D01*
X0300654Y0160883D01*
X0300574Y0160848D01*
X0300496Y0160809D01*
X0300419Y0160767D01*
X0300344Y0160722D01*
X0300272Y0160673D01*
X0300201Y0160622D01*
X0300133Y0160567D01*
X0300068Y0160510D01*
X0300005Y0160449D01*
X0299944Y0160386D01*
X0299887Y0160321D01*
X0299832Y0160253D01*
X0299781Y0160182D01*
X0299732Y0160110D01*
X0299687Y0160035D01*
X0299645Y0159958D01*
X0299606Y0159880D01*
X0299571Y0159800D01*
X0299540Y0159719D01*
X0299512Y0159636D01*
X0299487Y0159553D01*
X0299466Y0159468D01*
X0299449Y0159382D01*
X0299436Y0159296D01*
X0299427Y0159209D01*
X0299421Y0159122D01*
X0299419Y0159035D01*
X0306419Y0161035D02*
X0306506Y0161033D01*
X0306593Y0161027D01*
X0306680Y0161018D01*
X0306766Y0161005D01*
X0306852Y0160988D01*
X0306937Y0160967D01*
X0307020Y0160942D01*
X0307103Y0160914D01*
X0307184Y0160883D01*
X0307264Y0160848D01*
X0307342Y0160809D01*
X0307419Y0160767D01*
X0307494Y0160722D01*
X0307566Y0160673D01*
X0307637Y0160622D01*
X0307705Y0160567D01*
X0307770Y0160510D01*
X0307833Y0160449D01*
X0307894Y0160386D01*
X0307951Y0160321D01*
X0308006Y0160253D01*
X0308057Y0160182D01*
X0308106Y0160110D01*
X0308151Y0160035D01*
X0308193Y0159958D01*
X0308232Y0159880D01*
X0308267Y0159800D01*
X0308298Y0159719D01*
X0308326Y0159636D01*
X0308351Y0159553D01*
X0308372Y0159468D01*
X0308389Y0159382D01*
X0308402Y0159296D01*
X0308411Y0159209D01*
X0308417Y0159122D01*
X0308419Y0159035D01*
X0308419Y0146035D01*
X0308417Y0145948D01*
X0308411Y0145861D01*
X0308402Y0145774D01*
X0308389Y0145688D01*
X0308372Y0145602D01*
X0308351Y0145517D01*
X0308326Y0145434D01*
X0308298Y0145351D01*
X0308267Y0145270D01*
X0308232Y0145190D01*
X0308193Y0145112D01*
X0308151Y0145035D01*
X0308106Y0144960D01*
X0308057Y0144888D01*
X0308006Y0144817D01*
X0307951Y0144749D01*
X0307894Y0144684D01*
X0307833Y0144621D01*
X0307770Y0144560D01*
X0307705Y0144503D01*
X0307637Y0144448D01*
X0307566Y0144397D01*
X0307494Y0144348D01*
X0307419Y0144303D01*
X0307342Y0144261D01*
X0307264Y0144222D01*
X0307184Y0144187D01*
X0307103Y0144156D01*
X0307020Y0144128D01*
X0306937Y0144103D01*
X0306852Y0144082D01*
X0306766Y0144065D01*
X0306680Y0144052D01*
X0306593Y0144043D01*
X0306506Y0144037D01*
X0306419Y0144035D01*
X0408919Y0142535D02*
X0408919Y0212535D01*
X0428919Y0212535D01*
X0428919Y0142535D01*
X0408919Y0142535D01*
X0428919Y0177535D02*
X0438919Y0177535D01*
X0438919Y0179535D01*
X0438919Y0181535D01*
X0428919Y0181535D01*
X0428919Y0183535D01*
X0428919Y0185535D01*
X0428919Y0187535D01*
X0438919Y0187535D01*
X0438919Y0185535D01*
X0428919Y0185535D01*
X0428919Y0183535D02*
X0438919Y0183535D01*
X0438919Y0185535D01*
X0438919Y0183535D02*
X0438919Y0181535D01*
X0438919Y0179535D02*
X0428919Y0179535D01*
X0428919Y0177535D01*
X0428919Y0179535D02*
X0428919Y0181535D01*
X0147919Y0141535D02*
X0147919Y0140035D01*
X0147419Y0139535D01*
X0147419Y0125535D01*
X0147919Y0125035D01*
X0147919Y0123535D01*
X0147917Y0123475D01*
X0147912Y0123414D01*
X0147903Y0123355D01*
X0147890Y0123296D01*
X0147874Y0123237D01*
X0147854Y0123180D01*
X0147831Y0123125D01*
X0147804Y0123070D01*
X0147775Y0123018D01*
X0147742Y0122967D01*
X0147706Y0122918D01*
X0147668Y0122872D01*
X0147626Y0122828D01*
X0147582Y0122786D01*
X0147536Y0122748D01*
X0147487Y0122712D01*
X0147436Y0122679D01*
X0147384Y0122650D01*
X0147329Y0122623D01*
X0147274Y0122600D01*
X0147217Y0122580D01*
X0147158Y0122564D01*
X0147099Y0122551D01*
X0147040Y0122542D01*
X0146979Y0122537D01*
X0146919Y0122535D01*
X0140919Y0122535D01*
X0140859Y0122537D01*
X0140798Y0122542D01*
X0140739Y0122551D01*
X0140680Y0122564D01*
X0140621Y0122580D01*
X0140564Y0122600D01*
X0140509Y0122623D01*
X0140454Y0122650D01*
X0140402Y0122679D01*
X0140351Y0122712D01*
X0140302Y0122748D01*
X0140256Y0122786D01*
X0140212Y0122828D01*
X0140170Y0122872D01*
X0140132Y0122918D01*
X0140096Y0122967D01*
X0140063Y0123018D01*
X0140034Y0123070D01*
X0140007Y0123125D01*
X0139984Y0123180D01*
X0139964Y0123237D01*
X0139948Y0123296D01*
X0139935Y0123355D01*
X0139926Y0123414D01*
X0139921Y0123475D01*
X0139919Y0123535D01*
X0139919Y0125035D01*
X0140419Y0125535D01*
X0140419Y0139535D01*
X0139919Y0140035D01*
X0139919Y0141535D01*
X0139921Y0141595D01*
X0139926Y0141656D01*
X0139935Y0141715D01*
X0139948Y0141774D01*
X0139964Y0141833D01*
X0139984Y0141890D01*
X0140007Y0141945D01*
X0140034Y0142000D01*
X0140063Y0142052D01*
X0140096Y0142103D01*
X0140132Y0142152D01*
X0140170Y0142198D01*
X0140212Y0142242D01*
X0140256Y0142284D01*
X0140302Y0142322D01*
X0140351Y0142358D01*
X0140402Y0142391D01*
X0140454Y0142420D01*
X0140509Y0142447D01*
X0140564Y0142470D01*
X0140621Y0142490D01*
X0140680Y0142506D01*
X0140739Y0142519D01*
X0140798Y0142528D01*
X0140859Y0142533D01*
X0140919Y0142535D01*
X0146919Y0142535D01*
X0146979Y0142533D01*
X0147040Y0142528D01*
X0147099Y0142519D01*
X0147158Y0142506D01*
X0147217Y0142490D01*
X0147274Y0142470D01*
X0147329Y0142447D01*
X0147384Y0142420D01*
X0147436Y0142391D01*
X0147487Y0142358D01*
X0147536Y0142322D01*
X0147582Y0142284D01*
X0147626Y0142242D01*
X0147668Y0142198D01*
X0147706Y0142152D01*
X0147742Y0142103D01*
X0147775Y0142052D01*
X0147804Y0142000D01*
X0147831Y0141945D01*
X0147854Y0141890D01*
X0147874Y0141833D01*
X0147890Y0141774D01*
X0147903Y0141715D01*
X0147912Y0141656D01*
X0147917Y0141595D01*
X0147919Y0141535D01*
X0147917Y0141595D01*
X0147912Y0141656D01*
X0147903Y0141715D01*
X0147890Y0141774D01*
X0147874Y0141833D01*
X0147854Y0141890D01*
X0147831Y0141945D01*
X0147804Y0142000D01*
X0147775Y0142052D01*
X0147742Y0142103D01*
X0147706Y0142152D01*
X0147668Y0142198D01*
X0147626Y0142242D01*
X0147582Y0142284D01*
X0147536Y0142322D01*
X0147487Y0142358D01*
X0147436Y0142391D01*
X0147384Y0142420D01*
X0147329Y0142447D01*
X0147274Y0142470D01*
X0147217Y0142490D01*
X0147158Y0142506D01*
X0147099Y0142519D01*
X0147040Y0142528D01*
X0146979Y0142533D01*
X0146919Y0142535D01*
X0140919Y0142535D02*
X0140859Y0142533D01*
X0140798Y0142528D01*
X0140739Y0142519D01*
X0140680Y0142506D01*
X0140621Y0142490D01*
X0140564Y0142470D01*
X0140509Y0142447D01*
X0140454Y0142420D01*
X0140402Y0142391D01*
X0140351Y0142358D01*
X0140302Y0142322D01*
X0140256Y0142284D01*
X0140212Y0142242D01*
X0140170Y0142198D01*
X0140132Y0142152D01*
X0140096Y0142103D01*
X0140063Y0142052D01*
X0140034Y0142000D01*
X0140007Y0141945D01*
X0139984Y0141890D01*
X0139964Y0141833D01*
X0139948Y0141774D01*
X0139935Y0141715D01*
X0139926Y0141656D01*
X0139921Y0141595D01*
X0139919Y0141535D01*
X0139919Y0123535D02*
X0139921Y0123475D01*
X0139926Y0123414D01*
X0139935Y0123355D01*
X0139948Y0123296D01*
X0139964Y0123237D01*
X0139984Y0123180D01*
X0140007Y0123125D01*
X0140034Y0123070D01*
X0140063Y0123018D01*
X0140096Y0122967D01*
X0140132Y0122918D01*
X0140170Y0122872D01*
X0140212Y0122828D01*
X0140256Y0122786D01*
X0140302Y0122748D01*
X0140351Y0122712D01*
X0140402Y0122679D01*
X0140454Y0122650D01*
X0140509Y0122623D01*
X0140564Y0122600D01*
X0140621Y0122580D01*
X0140680Y0122564D01*
X0140739Y0122551D01*
X0140798Y0122542D01*
X0140859Y0122537D01*
X0140919Y0122535D01*
X0146919Y0122535D02*
X0146979Y0122537D01*
X0147040Y0122542D01*
X0147099Y0122551D01*
X0147158Y0122564D01*
X0147217Y0122580D01*
X0147274Y0122600D01*
X0147329Y0122623D01*
X0147384Y0122650D01*
X0147436Y0122679D01*
X0147487Y0122712D01*
X0147536Y0122748D01*
X0147582Y0122786D01*
X0147626Y0122828D01*
X0147668Y0122872D01*
X0147706Y0122918D01*
X0147742Y0122967D01*
X0147775Y0123018D01*
X0147804Y0123070D01*
X0147831Y0123125D01*
X0147854Y0123180D01*
X0147874Y0123237D01*
X0147890Y0123296D01*
X0147903Y0123355D01*
X0147912Y0123414D01*
X0147917Y0123475D01*
X0147919Y0123535D01*
X0110419Y0107535D02*
X0087419Y0107535D01*
X0087419Y0177535D01*
X0094919Y0177535D01*
X0094921Y0177409D01*
X0094927Y0177284D01*
X0094937Y0177159D01*
X0094951Y0177034D01*
X0094968Y0176909D01*
X0094990Y0176785D01*
X0095015Y0176662D01*
X0095045Y0176540D01*
X0095078Y0176419D01*
X0095115Y0176299D01*
X0095155Y0176180D01*
X0095200Y0176063D01*
X0095248Y0175946D01*
X0095300Y0175832D01*
X0095355Y0175719D01*
X0095414Y0175608D01*
X0095476Y0175499D01*
X0095542Y0175392D01*
X0095611Y0175287D01*
X0095683Y0175184D01*
X0095758Y0175083D01*
X0095837Y0174985D01*
X0095919Y0174890D01*
X0096003Y0174797D01*
X0096091Y0174707D01*
X0096181Y0174619D01*
X0096274Y0174535D01*
X0096369Y0174453D01*
X0096467Y0174374D01*
X0096568Y0174299D01*
X0096671Y0174227D01*
X0096776Y0174158D01*
X0096883Y0174092D01*
X0096992Y0174030D01*
X0097103Y0173971D01*
X0097216Y0173916D01*
X0097330Y0173864D01*
X0097447Y0173816D01*
X0097564Y0173771D01*
X0097683Y0173731D01*
X0097803Y0173694D01*
X0097924Y0173661D01*
X0098046Y0173631D01*
X0098169Y0173606D01*
X0098293Y0173584D01*
X0098418Y0173567D01*
X0098543Y0173553D01*
X0098668Y0173543D01*
X0098793Y0173537D01*
X0098919Y0173535D01*
X0099045Y0173537D01*
X0099170Y0173543D01*
X0099295Y0173553D01*
X0099420Y0173567D01*
X0099545Y0173584D01*
X0099669Y0173606D01*
X0099792Y0173631D01*
X0099914Y0173661D01*
X0100035Y0173694D01*
X0100155Y0173731D01*
X0100274Y0173771D01*
X0100391Y0173816D01*
X0100508Y0173864D01*
X0100622Y0173916D01*
X0100735Y0173971D01*
X0100846Y0174030D01*
X0100955Y0174092D01*
X0101062Y0174158D01*
X0101167Y0174227D01*
X0101270Y0174299D01*
X0101371Y0174374D01*
X0101469Y0174453D01*
X0101564Y0174535D01*
X0101657Y0174619D01*
X0101747Y0174707D01*
X0101835Y0174797D01*
X0101919Y0174890D01*
X0102001Y0174985D01*
X0102080Y0175083D01*
X0102155Y0175184D01*
X0102227Y0175287D01*
X0102296Y0175392D01*
X0102362Y0175499D01*
X0102424Y0175608D01*
X0102483Y0175719D01*
X0102538Y0175832D01*
X0102590Y0175946D01*
X0102638Y0176063D01*
X0102683Y0176180D01*
X0102723Y0176299D01*
X0102760Y0176419D01*
X0102793Y0176540D01*
X0102823Y0176662D01*
X0102848Y0176785D01*
X0102870Y0176909D01*
X0102887Y0177034D01*
X0102901Y0177159D01*
X0102911Y0177284D01*
X0102917Y0177409D01*
X0102919Y0177535D01*
X0110419Y0177535D01*
X0110419Y0107535D01*
X0066919Y0142535D02*
X0060919Y0142535D01*
X0060859Y0142537D01*
X0060798Y0142542D01*
X0060739Y0142551D01*
X0060680Y0142564D01*
X0060621Y0142580D01*
X0060564Y0142600D01*
X0060509Y0142623D01*
X0060454Y0142650D01*
X0060402Y0142679D01*
X0060351Y0142712D01*
X0060302Y0142748D01*
X0060256Y0142786D01*
X0060212Y0142828D01*
X0060170Y0142872D01*
X0060132Y0142918D01*
X0060096Y0142967D01*
X0060063Y0143018D01*
X0060034Y0143070D01*
X0060007Y0143125D01*
X0059984Y0143180D01*
X0059964Y0143237D01*
X0059948Y0143296D01*
X0059935Y0143355D01*
X0059926Y0143414D01*
X0059921Y0143475D01*
X0059919Y0143535D01*
X0059919Y0145035D01*
X0060419Y0145535D01*
X0060419Y0159535D01*
X0059919Y0160035D01*
X0059919Y0161535D01*
X0059921Y0161595D01*
X0059926Y0161656D01*
X0059935Y0161715D01*
X0059948Y0161774D01*
X0059964Y0161833D01*
X0059984Y0161890D01*
X0060007Y0161945D01*
X0060034Y0162000D01*
X0060063Y0162052D01*
X0060096Y0162103D01*
X0060132Y0162152D01*
X0060170Y0162198D01*
X0060212Y0162242D01*
X0060256Y0162284D01*
X0060302Y0162322D01*
X0060351Y0162358D01*
X0060402Y0162391D01*
X0060454Y0162420D01*
X0060509Y0162447D01*
X0060564Y0162470D01*
X0060621Y0162490D01*
X0060680Y0162506D01*
X0060739Y0162519D01*
X0060798Y0162528D01*
X0060859Y0162533D01*
X0060919Y0162535D01*
X0066919Y0162535D01*
X0066979Y0162533D01*
X0067040Y0162528D01*
X0067099Y0162519D01*
X0067158Y0162506D01*
X0067217Y0162490D01*
X0067274Y0162470D01*
X0067329Y0162447D01*
X0067384Y0162420D01*
X0067436Y0162391D01*
X0067487Y0162358D01*
X0067536Y0162322D01*
X0067582Y0162284D01*
X0067626Y0162242D01*
X0067668Y0162198D01*
X0067706Y0162152D01*
X0067742Y0162103D01*
X0067775Y0162052D01*
X0067804Y0162000D01*
X0067831Y0161945D01*
X0067854Y0161890D01*
X0067874Y0161833D01*
X0067890Y0161774D01*
X0067903Y0161715D01*
X0067912Y0161656D01*
X0067917Y0161595D01*
X0067919Y0161535D01*
X0067919Y0160035D01*
X0067419Y0159535D01*
X0067419Y0145535D01*
X0067919Y0145035D01*
X0067919Y0143535D01*
X0067917Y0143475D01*
X0067912Y0143414D01*
X0067903Y0143355D01*
X0067890Y0143296D01*
X0067874Y0143237D01*
X0067854Y0143180D01*
X0067831Y0143125D01*
X0067804Y0143070D01*
X0067775Y0143018D01*
X0067742Y0142967D01*
X0067706Y0142918D01*
X0067668Y0142872D01*
X0067626Y0142828D01*
X0067582Y0142786D01*
X0067536Y0142748D01*
X0067487Y0142712D01*
X0067436Y0142679D01*
X0067384Y0142650D01*
X0067329Y0142623D01*
X0067274Y0142600D01*
X0067217Y0142580D01*
X0067158Y0142564D01*
X0067099Y0142551D01*
X0067040Y0142542D01*
X0066979Y0142537D01*
X0066919Y0142535D01*
X0066979Y0142537D01*
X0067040Y0142542D01*
X0067099Y0142551D01*
X0067158Y0142564D01*
X0067217Y0142580D01*
X0067274Y0142600D01*
X0067329Y0142623D01*
X0067384Y0142650D01*
X0067436Y0142679D01*
X0067487Y0142712D01*
X0067536Y0142748D01*
X0067582Y0142786D01*
X0067626Y0142828D01*
X0067668Y0142872D01*
X0067706Y0142918D01*
X0067742Y0142967D01*
X0067775Y0143018D01*
X0067804Y0143070D01*
X0067831Y0143125D01*
X0067854Y0143180D01*
X0067874Y0143237D01*
X0067890Y0143296D01*
X0067903Y0143355D01*
X0067912Y0143414D01*
X0067917Y0143475D01*
X0067919Y0143535D01*
X0060919Y0142535D02*
X0060859Y0142537D01*
X0060798Y0142542D01*
X0060739Y0142551D01*
X0060680Y0142564D01*
X0060621Y0142580D01*
X0060564Y0142600D01*
X0060509Y0142623D01*
X0060454Y0142650D01*
X0060402Y0142679D01*
X0060351Y0142712D01*
X0060302Y0142748D01*
X0060256Y0142786D01*
X0060212Y0142828D01*
X0060170Y0142872D01*
X0060132Y0142918D01*
X0060096Y0142967D01*
X0060063Y0143018D01*
X0060034Y0143070D01*
X0060007Y0143125D01*
X0059984Y0143180D01*
X0059964Y0143237D01*
X0059948Y0143296D01*
X0059935Y0143355D01*
X0059926Y0143414D01*
X0059921Y0143475D01*
X0059919Y0143535D01*
X0059919Y0161535D02*
X0059921Y0161595D01*
X0059926Y0161656D01*
X0059935Y0161715D01*
X0059948Y0161774D01*
X0059964Y0161833D01*
X0059984Y0161890D01*
X0060007Y0161945D01*
X0060034Y0162000D01*
X0060063Y0162052D01*
X0060096Y0162103D01*
X0060132Y0162152D01*
X0060170Y0162198D01*
X0060212Y0162242D01*
X0060256Y0162284D01*
X0060302Y0162322D01*
X0060351Y0162358D01*
X0060402Y0162391D01*
X0060454Y0162420D01*
X0060509Y0162447D01*
X0060564Y0162470D01*
X0060621Y0162490D01*
X0060680Y0162506D01*
X0060739Y0162519D01*
X0060798Y0162528D01*
X0060859Y0162533D01*
X0060919Y0162535D01*
X0066919Y0162535D02*
X0066979Y0162533D01*
X0067040Y0162528D01*
X0067099Y0162519D01*
X0067158Y0162506D01*
X0067217Y0162490D01*
X0067274Y0162470D01*
X0067329Y0162447D01*
X0067384Y0162420D01*
X0067436Y0162391D01*
X0067487Y0162358D01*
X0067536Y0162322D01*
X0067582Y0162284D01*
X0067626Y0162242D01*
X0067668Y0162198D01*
X0067706Y0162152D01*
X0067742Y0162103D01*
X0067775Y0162052D01*
X0067804Y0162000D01*
X0067831Y0161945D01*
X0067854Y0161890D01*
X0067874Y0161833D01*
X0067890Y0161774D01*
X0067903Y0161715D01*
X0067912Y0161656D01*
X0067917Y0161595D01*
X0067919Y0161535D01*
D11*
X0192719Y0095535D02*
X0192719Y0092535D01*
X0192719Y0089535D01*
X0195219Y0089535D02*
X0195219Y0092535D01*
X0195219Y0095535D01*
X0195219Y0085535D02*
X0195219Y0082535D01*
X0195219Y0079535D01*
X0192719Y0079535D02*
X0192719Y0082535D01*
X0192719Y0085535D01*
X0165219Y0085535D02*
X0165219Y0082535D01*
X0165219Y0079535D01*
X0162719Y0079535D02*
X0162719Y0082535D01*
X0162719Y0085535D01*
X0242719Y0139535D02*
X0242719Y0142535D01*
X0242719Y0145535D01*
X0245219Y0145535D02*
X0245219Y0142535D01*
X0245219Y0139535D01*
X0262619Y0149535D02*
X0262619Y0152535D01*
X0262619Y0155535D01*
X0265119Y0155535D02*
X0265119Y0152535D01*
X0265119Y0149535D01*
X0300919Y0151235D02*
X0303919Y0151235D01*
X0306919Y0151235D01*
X0306919Y0153735D02*
X0303919Y0153735D01*
X0300919Y0153735D01*
X0295219Y0125535D02*
X0295219Y0122535D01*
X0295219Y0119535D01*
X0292719Y0119535D02*
X0292719Y0122535D01*
X0292719Y0125535D01*
X0292619Y0105535D02*
X0292619Y0102535D01*
X0292619Y0099535D01*
X0295119Y0099535D02*
X0295119Y0102535D01*
X0295119Y0105535D01*
D12*
X0307279Y0110635D02*
X0308747Y0111736D01*
X0307279Y0112837D01*
X0307279Y0112235D02*
X0308747Y0113336D01*
X0307279Y0114437D01*
X0309488Y0114437D02*
X0309488Y0112969D01*
X0310222Y0112235D01*
X0310956Y0112969D01*
X0310956Y0114437D01*
X0311698Y0113703D02*
X0312432Y0114437D01*
X0313166Y0113703D01*
X0313166Y0112235D01*
X0313166Y0112103D02*
X0312432Y0112837D01*
X0311698Y0112103D01*
X0311698Y0110635D01*
X0310956Y0111369D02*
X0310956Y0112837D01*
X0311698Y0113336D02*
X0313166Y0113336D01*
X0313908Y0112837D02*
X0313908Y0110635D01*
X0315376Y0110635D01*
X0316118Y0111002D02*
X0316118Y0112837D01*
X0316118Y0112602D02*
X0316485Y0112235D01*
X0317219Y0112235D01*
X0317586Y0112602D01*
X0317586Y0114437D01*
X0318328Y0114437D02*
X0318328Y0112235D01*
X0319796Y0112235D01*
X0319796Y0112837D02*
X0318328Y0112837D01*
X0318328Y0110635D01*
X0319796Y0110635D01*
X0319062Y0111736D02*
X0318328Y0111736D01*
X0317586Y0111002D02*
X0317586Y0112837D01*
X0318328Y0113336D02*
X0319062Y0113336D01*
X0319796Y0114437D02*
X0318328Y0114437D01*
X0316118Y0114437D02*
X0316118Y0112602D01*
X0315376Y0112235D02*
X0313908Y0112235D01*
X0313908Y0114437D01*
X0311698Y0113703D02*
X0311698Y0112235D01*
X0311698Y0111736D02*
X0313166Y0111736D01*
X0313166Y0112103D02*
X0313166Y0110635D01*
X0310956Y0111369D02*
X0310222Y0110635D01*
X0309488Y0111369D01*
X0309488Y0112837D01*
X0316118Y0111002D02*
X0316485Y0110635D01*
X0317219Y0110635D01*
X0317586Y0111002D01*
X0317223Y0092837D02*
X0317223Y0090635D01*
X0318691Y0090635D01*
X0317957Y0091736D02*
X0317223Y0091736D01*
X0317223Y0092837D02*
X0318691Y0092837D01*
X0316481Y0092837D02*
X0316481Y0090635D01*
X0315013Y0090635D02*
X0315013Y0092837D01*
X0315747Y0092103D01*
X0316481Y0092837D01*
X0314271Y0092103D02*
X0314271Y0090635D01*
X0314271Y0091736D02*
X0312803Y0091736D01*
X0312803Y0092103D02*
X0312803Y0090635D01*
X0312061Y0090635D02*
X0312061Y0092837D01*
X0312803Y0092103D02*
X0313537Y0092837D01*
X0314271Y0092103D01*
X0312061Y0090635D02*
X0310593Y0092837D01*
X0310593Y0090635D01*
X0309851Y0091736D02*
X0308384Y0090635D01*
X0309851Y0091736D02*
X0308384Y0092837D01*
X0296105Y0076937D02*
X0294637Y0076937D01*
X0294637Y0074735D01*
X0296105Y0074735D01*
X0295371Y0075836D02*
X0294637Y0075836D01*
X0293895Y0076937D02*
X0293895Y0074735D01*
X0292427Y0074735D02*
X0292427Y0076937D01*
X0293161Y0076203D01*
X0293895Y0076937D01*
X0291685Y0076203D02*
X0291685Y0074735D01*
X0291685Y0075836D02*
X0290217Y0075836D01*
X0290217Y0076203D02*
X0290951Y0076937D01*
X0291685Y0076203D01*
X0290217Y0076203D02*
X0290217Y0074735D01*
X0289475Y0074735D02*
X0289475Y0076937D01*
X0288007Y0076937D02*
X0288007Y0074735D01*
X0287265Y0075836D02*
X0285797Y0074735D01*
X0287265Y0075836D02*
X0285797Y0076937D01*
X0288007Y0076937D02*
X0289475Y0074735D01*
X0275219Y0077585D02*
X0274119Y0079053D01*
X0273018Y0077585D01*
X0273018Y0079795D02*
X0275219Y0081263D01*
X0273018Y0081263D01*
X0273752Y0082005D02*
X0273018Y0082739D01*
X0273752Y0083473D01*
X0275219Y0083473D01*
X0275219Y0084215D02*
X0273018Y0084215D01*
X0273752Y0084949D01*
X0273018Y0085683D01*
X0275219Y0085683D01*
X0275219Y0086425D02*
X0275219Y0087893D01*
X0274119Y0087159D02*
X0274119Y0086425D01*
X0275219Y0086425D02*
X0273018Y0086425D01*
X0273018Y0087893D01*
X0274119Y0083473D02*
X0274119Y0082005D01*
X0273752Y0082005D02*
X0275219Y0082005D01*
X0275219Y0079795D02*
X0273018Y0079795D01*
X0308760Y0070437D02*
X0310228Y0069336D01*
X0308760Y0068235D01*
X0310970Y0068969D02*
X0311704Y0068235D01*
X0312438Y0068969D01*
X0312438Y0070437D01*
X0313180Y0069703D02*
X0313914Y0070437D01*
X0314648Y0069703D01*
X0314648Y0068235D01*
X0315390Y0068235D02*
X0316857Y0068235D01*
X0317599Y0068602D02*
X0317966Y0068235D01*
X0318700Y0068235D01*
X0319067Y0068602D01*
X0319067Y0070437D01*
X0319809Y0070437D02*
X0319809Y0068235D01*
X0321277Y0068235D01*
X0320543Y0069336D02*
X0319809Y0069336D01*
X0319809Y0070437D02*
X0321277Y0070437D01*
X0317599Y0070437D02*
X0317599Y0068602D01*
X0315390Y0068235D02*
X0315390Y0070437D01*
X0314648Y0069336D02*
X0313180Y0069336D01*
X0313180Y0069703D02*
X0313180Y0068235D01*
X0310970Y0068969D02*
X0310970Y0070437D01*
X0325797Y0070437D02*
X0327265Y0069336D01*
X0325797Y0068235D01*
X0328007Y0068235D02*
X0328007Y0070437D01*
X0329475Y0068235D01*
X0329475Y0070437D01*
X0330217Y0069703D02*
X0330951Y0070437D01*
X0331685Y0069703D01*
X0331685Y0068235D01*
X0332427Y0068235D02*
X0332427Y0070437D01*
X0333161Y0069703D01*
X0333895Y0070437D01*
X0333895Y0068235D01*
X0334637Y0068235D02*
X0336105Y0068235D01*
X0335371Y0069336D02*
X0334637Y0069336D01*
X0334637Y0070437D02*
X0334637Y0068235D01*
X0334637Y0070437D02*
X0336105Y0070437D01*
X0331685Y0069336D02*
X0330217Y0069336D01*
X0330217Y0069703D02*
X0330217Y0068235D01*
X0375482Y0075050D02*
X0376950Y0076151D01*
X0375482Y0077252D01*
X0377692Y0077252D02*
X0379160Y0075050D01*
X0379160Y0077252D01*
X0379902Y0076518D02*
X0380636Y0077252D01*
X0381370Y0076518D01*
X0381370Y0075050D01*
X0382112Y0075050D02*
X0382112Y0077252D01*
X0382846Y0076518D01*
X0383580Y0077252D01*
X0383580Y0075050D01*
X0384322Y0075050D02*
X0385790Y0075050D01*
X0385056Y0076151D02*
X0384322Y0076151D01*
X0384322Y0077252D02*
X0384322Y0075050D01*
X0384322Y0077252D02*
X0385790Y0077252D01*
X0381370Y0076151D02*
X0379902Y0076151D01*
X0379902Y0076518D02*
X0379902Y0075050D01*
X0377692Y0075050D02*
X0377692Y0077252D01*
X0428760Y0065437D02*
X0430228Y0064336D01*
X0428760Y0063235D01*
X0430970Y0063969D02*
X0431704Y0063235D01*
X0432438Y0063969D01*
X0432438Y0065437D01*
X0433180Y0064703D02*
X0433914Y0065437D01*
X0434648Y0064703D01*
X0434648Y0063235D01*
X0435390Y0063235D02*
X0436857Y0063235D01*
X0437599Y0063602D02*
X0437966Y0063235D01*
X0438700Y0063235D01*
X0439067Y0063602D01*
X0439067Y0065437D01*
X0439809Y0065437D02*
X0439809Y0063235D01*
X0441277Y0063235D01*
X0440543Y0064336D02*
X0439809Y0064336D01*
X0439809Y0065437D02*
X0441277Y0065437D01*
X0437599Y0065437D02*
X0437599Y0063602D01*
X0435390Y0063235D02*
X0435390Y0065437D01*
X0434648Y0064336D02*
X0433180Y0064336D01*
X0433180Y0064703D02*
X0433180Y0063235D01*
X0430970Y0063969D02*
X0430970Y0065437D01*
X0445797Y0065437D02*
X0447265Y0064336D01*
X0445797Y0063235D01*
X0448007Y0063235D02*
X0448007Y0065437D01*
X0449475Y0063235D01*
X0449475Y0065437D01*
X0450217Y0064703D02*
X0450951Y0065437D01*
X0451685Y0064703D01*
X0451685Y0063235D01*
X0452427Y0063235D02*
X0452427Y0065437D01*
X0453161Y0064703D01*
X0453895Y0065437D01*
X0453895Y0063235D01*
X0454637Y0063235D02*
X0456105Y0063235D01*
X0455371Y0064336D02*
X0454637Y0064336D01*
X0454637Y0065437D02*
X0454637Y0063235D01*
X0454637Y0065437D02*
X0456105Y0065437D01*
X0451685Y0064336D02*
X0450217Y0064336D01*
X0450217Y0064703D02*
X0450217Y0063235D01*
X0394481Y0007702D02*
X0393013Y0007702D01*
X0393013Y0005500D01*
X0394481Y0005500D01*
X0393747Y0006601D02*
X0393013Y0006601D01*
X0392271Y0005867D02*
X0392271Y0007702D01*
X0390803Y0007702D02*
X0390803Y0005867D01*
X0391170Y0005500D01*
X0391904Y0005500D01*
X0392271Y0005867D01*
X0390061Y0005500D02*
X0388593Y0005500D01*
X0388593Y0007702D01*
X0387851Y0006968D02*
X0387117Y0007702D01*
X0386383Y0006968D01*
X0386383Y0005500D01*
X0385641Y0006234D02*
X0385641Y0007702D01*
X0386383Y0006601D02*
X0387851Y0006601D01*
X0387851Y0006968D02*
X0387851Y0005500D01*
X0385641Y0006234D02*
X0384907Y0005500D01*
X0384174Y0006234D01*
X0384174Y0007702D01*
X0383432Y0006601D02*
X0381964Y0005500D01*
X0383432Y0006601D02*
X0381964Y0007702D01*
X0324315Y0035135D02*
X0322847Y0035135D01*
X0322847Y0037337D01*
X0324315Y0037337D01*
X0323581Y0036236D02*
X0322847Y0036236D01*
X0322105Y0035502D02*
X0322105Y0037337D01*
X0320637Y0037337D02*
X0320637Y0035502D01*
X0321004Y0035135D01*
X0321738Y0035135D01*
X0322105Y0035502D01*
X0319895Y0035135D02*
X0318427Y0035135D01*
X0318427Y0037337D01*
X0317685Y0036603D02*
X0317685Y0035135D01*
X0317685Y0036236D02*
X0316217Y0036236D01*
X0316217Y0036603D02*
X0316951Y0037337D01*
X0317685Y0036603D01*
X0316217Y0036603D02*
X0316217Y0035135D01*
X0315475Y0035869D02*
X0315475Y0037337D01*
X0314007Y0037337D02*
X0314007Y0035869D01*
X0314741Y0035135D01*
X0315475Y0035869D01*
X0313265Y0036236D02*
X0311797Y0035135D01*
X0313265Y0036236D02*
X0311797Y0037337D01*
X0282315Y0056435D02*
X0280847Y0056435D01*
X0280847Y0058637D01*
X0282315Y0058637D01*
X0281581Y0057536D02*
X0280847Y0057536D01*
X0280105Y0056802D02*
X0280105Y0058637D01*
X0278637Y0058637D02*
X0278637Y0056802D01*
X0279004Y0056435D01*
X0279738Y0056435D01*
X0280105Y0056802D01*
X0277895Y0056435D02*
X0276427Y0056435D01*
X0276427Y0058637D01*
X0275685Y0057903D02*
X0275685Y0056435D01*
X0275685Y0057536D02*
X0274217Y0057536D01*
X0274217Y0057903D02*
X0274951Y0058637D01*
X0275685Y0057903D01*
X0274217Y0057903D02*
X0274217Y0056435D01*
X0273475Y0057169D02*
X0273475Y0058637D01*
X0272007Y0058637D02*
X0272007Y0057169D01*
X0272741Y0056435D01*
X0273475Y0057169D01*
X0271265Y0057536D02*
X0269797Y0056435D01*
X0271265Y0057536D02*
X0269797Y0058637D01*
X0219796Y0070635D02*
X0218328Y0070635D01*
X0218328Y0072837D01*
X0219796Y0072837D01*
X0219062Y0071736D02*
X0218328Y0071736D01*
X0217586Y0071002D02*
X0217586Y0072837D01*
X0216118Y0072837D02*
X0216118Y0071002D01*
X0216485Y0070635D01*
X0217219Y0070635D01*
X0217586Y0071002D01*
X0215376Y0070635D02*
X0213908Y0070635D01*
X0213908Y0072837D01*
X0213895Y0073235D02*
X0213895Y0075437D01*
X0213161Y0074703D01*
X0212427Y0075437D01*
X0212427Y0073235D01*
X0212432Y0072837D02*
X0213166Y0072103D01*
X0213166Y0070635D01*
X0213166Y0071736D02*
X0211698Y0071736D01*
X0211698Y0072103D02*
X0212432Y0072837D01*
X0211685Y0073235D02*
X0211685Y0074703D01*
X0210951Y0075437D01*
X0210217Y0074703D01*
X0210217Y0073235D01*
X0209475Y0073235D02*
X0209475Y0075437D01*
X0210217Y0074336D02*
X0211685Y0074336D01*
X0210956Y0072837D02*
X0210956Y0071369D01*
X0210222Y0070635D01*
X0209488Y0071369D01*
X0209488Y0072837D01*
X0209475Y0073235D02*
X0208007Y0075437D01*
X0208007Y0073235D01*
X0207279Y0072837D02*
X0208747Y0071736D01*
X0207279Y0070635D01*
X0205797Y0073235D02*
X0207265Y0074336D01*
X0205797Y0075437D01*
X0201277Y0075437D02*
X0199809Y0075437D01*
X0199809Y0073235D01*
X0201277Y0073235D01*
X0200543Y0074336D02*
X0199809Y0074336D01*
X0199067Y0073602D02*
X0199067Y0075437D01*
X0197599Y0075437D02*
X0197599Y0073602D01*
X0197966Y0073235D01*
X0198700Y0073235D01*
X0199067Y0073602D01*
X0196857Y0073235D02*
X0195390Y0073235D01*
X0195390Y0075437D01*
X0194648Y0074703D02*
X0194648Y0073235D01*
X0194648Y0074336D02*
X0193180Y0074336D01*
X0193180Y0074703D02*
X0193914Y0075437D01*
X0194648Y0074703D01*
X0193180Y0074703D02*
X0193180Y0073235D01*
X0192438Y0073969D02*
X0191704Y0073235D01*
X0190970Y0073969D01*
X0190970Y0075437D01*
X0190228Y0074336D02*
X0188760Y0073235D01*
X0188328Y0072837D02*
X0188328Y0070635D01*
X0189796Y0070635D01*
X0189062Y0071736D02*
X0188328Y0071736D01*
X0187586Y0071002D02*
X0187586Y0072837D01*
X0188328Y0072837D02*
X0189796Y0072837D01*
X0190228Y0074336D02*
X0188760Y0075437D01*
X0192438Y0075437D02*
X0192438Y0073969D01*
X0187586Y0071002D02*
X0187219Y0070635D01*
X0186485Y0070635D01*
X0186118Y0071002D01*
X0186118Y0072837D01*
X0183908Y0072837D02*
X0183908Y0070635D01*
X0185376Y0070635D01*
X0183166Y0070635D02*
X0183166Y0072103D01*
X0182432Y0072837D01*
X0181698Y0072103D01*
X0181698Y0070635D01*
X0180956Y0071369D02*
X0180956Y0072837D01*
X0181698Y0071736D02*
X0183166Y0071736D01*
X0180956Y0071369D02*
X0180222Y0070635D01*
X0179488Y0071369D01*
X0179488Y0072837D01*
X0178747Y0071736D02*
X0177279Y0070635D01*
X0178747Y0071736D02*
X0177279Y0072837D01*
X0176105Y0074735D02*
X0174637Y0074735D01*
X0174637Y0076937D01*
X0176105Y0076937D01*
X0175371Y0075836D02*
X0174637Y0075836D01*
X0173895Y0076937D02*
X0173895Y0074735D01*
X0172427Y0074735D02*
X0172427Y0076937D01*
X0173161Y0076203D01*
X0173895Y0076937D01*
X0171685Y0076203D02*
X0171685Y0074735D01*
X0171685Y0075836D02*
X0170217Y0075836D01*
X0170217Y0076203D02*
X0170951Y0076937D01*
X0171685Y0076203D01*
X0170217Y0076203D02*
X0170217Y0074735D01*
X0169475Y0074735D02*
X0169475Y0076937D01*
X0168007Y0076937D02*
X0168007Y0074735D01*
X0167265Y0075836D02*
X0165797Y0074735D01*
X0167265Y0075836D02*
X0165797Y0076937D01*
X0168007Y0076937D02*
X0169475Y0074735D01*
X0178384Y0092235D02*
X0179851Y0093336D01*
X0178384Y0094437D01*
X0180593Y0094437D02*
X0182061Y0092235D01*
X0182061Y0094437D01*
X0182803Y0093703D02*
X0183537Y0094437D01*
X0184271Y0093703D01*
X0184271Y0092235D01*
X0185013Y0092235D02*
X0185013Y0094437D01*
X0185747Y0093703D01*
X0186481Y0094437D01*
X0186481Y0092235D01*
X0187223Y0092235D02*
X0187223Y0094437D01*
X0188691Y0094437D01*
X0187957Y0093336D02*
X0187223Y0093336D01*
X0187223Y0092235D02*
X0188691Y0092235D01*
X0184271Y0093336D02*
X0182803Y0093336D01*
X0182803Y0093703D02*
X0182803Y0092235D01*
X0180593Y0092235D02*
X0180593Y0094437D01*
X0208384Y0094437D02*
X0209851Y0093336D01*
X0208384Y0092235D01*
X0210593Y0092235D02*
X0210593Y0094437D01*
X0212061Y0092235D01*
X0212061Y0094437D01*
X0212803Y0093703D02*
X0213537Y0094437D01*
X0214271Y0093703D01*
X0214271Y0092235D01*
X0215013Y0092235D02*
X0215013Y0094437D01*
X0215747Y0093703D01*
X0216481Y0094437D01*
X0216481Y0092235D01*
X0217223Y0092235D02*
X0218691Y0092235D01*
X0217957Y0093336D02*
X0217223Y0093336D01*
X0217223Y0094437D02*
X0217223Y0092235D01*
X0217223Y0094437D02*
X0218691Y0094437D01*
X0214271Y0093336D02*
X0212803Y0093336D01*
X0212803Y0093703D02*
X0212803Y0092235D01*
X0212432Y0082837D02*
X0213166Y0082103D01*
X0213166Y0080635D01*
X0213908Y0080635D02*
X0213908Y0082837D01*
X0213166Y0081736D02*
X0211698Y0081736D01*
X0211698Y0082103D02*
X0212432Y0082837D01*
X0211698Y0082103D02*
X0211698Y0080635D01*
X0210956Y0081369D02*
X0210956Y0082837D01*
X0209488Y0082837D02*
X0209488Y0081369D01*
X0210222Y0080635D01*
X0210956Y0081369D01*
X0208747Y0081736D02*
X0207279Y0080635D01*
X0208747Y0081736D02*
X0207279Y0082837D01*
X0213908Y0080635D02*
X0215376Y0080635D01*
X0216118Y0081002D02*
X0216485Y0080635D01*
X0217219Y0080635D01*
X0217586Y0081002D01*
X0217586Y0082837D01*
X0218328Y0082837D02*
X0218328Y0080635D01*
X0219796Y0080635D01*
X0219062Y0081736D02*
X0218328Y0081736D01*
X0218328Y0082837D02*
X0219796Y0082837D01*
X0216118Y0082837D02*
X0216118Y0081002D01*
X0216105Y0075437D02*
X0214637Y0075437D01*
X0214637Y0073235D01*
X0216105Y0073235D01*
X0215371Y0074336D02*
X0214637Y0074336D01*
X0211698Y0072103D02*
X0211698Y0070635D01*
X0212061Y0102235D02*
X0212061Y0104437D01*
X0212803Y0103703D02*
X0213537Y0104437D01*
X0214271Y0103703D01*
X0214271Y0102235D01*
X0215013Y0102235D02*
X0215013Y0104437D01*
X0215747Y0103703D01*
X0216481Y0104437D01*
X0216481Y0102235D01*
X0217223Y0102235D02*
X0218691Y0102235D01*
X0217957Y0103336D02*
X0217223Y0103336D01*
X0217223Y0104437D02*
X0217223Y0102235D01*
X0217223Y0104437D02*
X0218691Y0104437D01*
X0214271Y0103336D02*
X0212803Y0103336D01*
X0212803Y0103703D02*
X0212803Y0102235D01*
X0212061Y0102235D02*
X0210593Y0104437D01*
X0210593Y0102235D01*
X0209851Y0103336D02*
X0208384Y0102235D01*
X0209851Y0103336D02*
X0208384Y0104437D01*
X0253797Y0111335D02*
X0255265Y0112436D01*
X0253797Y0113537D01*
X0255265Y0112436D01*
X0253797Y0111335D01*
X0256007Y0111335D02*
X0256007Y0113537D01*
X0257475Y0111335D01*
X0257475Y0113537D01*
X0257475Y0111335D01*
X0256007Y0113537D01*
X0256007Y0111335D01*
X0258217Y0111335D02*
X0258217Y0112803D01*
X0258951Y0113537D01*
X0259685Y0112803D01*
X0259685Y0111335D01*
X0259685Y0112803D01*
X0258951Y0113537D01*
X0258217Y0112803D01*
X0258217Y0111335D01*
X0258217Y0112436D02*
X0259685Y0112436D01*
X0258217Y0112436D01*
X0260427Y0113537D02*
X0261161Y0112803D01*
X0261895Y0113537D01*
X0261895Y0111335D01*
X0261895Y0113537D01*
X0261161Y0112803D01*
X0260427Y0113537D01*
X0260427Y0111335D01*
X0260427Y0113537D01*
X0262637Y0113537D02*
X0262637Y0111335D01*
X0264105Y0111335D01*
X0262637Y0111335D01*
X0262637Y0113537D01*
X0264105Y0113537D01*
X0262637Y0113537D01*
X0262637Y0112436D02*
X0263371Y0112436D01*
X0262637Y0112436D01*
X0272718Y0121585D02*
X0273819Y0123053D01*
X0274919Y0121585D01*
X0273819Y0123053D01*
X0272718Y0121585D01*
X0272718Y0123795D02*
X0274919Y0125263D01*
X0272718Y0125263D01*
X0274919Y0125263D01*
X0272718Y0123795D01*
X0274919Y0123795D01*
X0272718Y0123795D01*
X0273452Y0126005D02*
X0272718Y0126739D01*
X0273452Y0127473D01*
X0274919Y0127473D01*
X0273452Y0127473D01*
X0272718Y0126739D01*
X0273452Y0126005D01*
X0274919Y0126005D01*
X0273452Y0126005D01*
X0273819Y0126005D02*
X0273819Y0127473D01*
X0273819Y0126005D01*
X0274919Y0128215D02*
X0272718Y0128215D01*
X0273452Y0128949D01*
X0272718Y0129683D01*
X0274919Y0129683D01*
X0272718Y0129683D01*
X0273452Y0128949D01*
X0272718Y0128215D01*
X0274919Y0128215D01*
X0274919Y0130425D02*
X0274919Y0131893D01*
X0274919Y0130425D01*
X0272718Y0130425D01*
X0272718Y0131893D01*
X0272718Y0130425D01*
X0274919Y0130425D01*
X0273819Y0130425D02*
X0273819Y0131159D01*
X0273819Y0130425D01*
X0269796Y0130635D02*
X0268328Y0130635D01*
X0268328Y0132837D01*
X0269796Y0132837D01*
X0269062Y0131736D02*
X0268328Y0131736D01*
X0267586Y0131002D02*
X0267586Y0132837D01*
X0266118Y0132837D02*
X0266118Y0131002D01*
X0266485Y0130635D01*
X0267219Y0130635D01*
X0267586Y0131002D01*
X0265376Y0130635D02*
X0263908Y0130635D01*
X0263908Y0132837D01*
X0263166Y0132103D02*
X0263166Y0130635D01*
X0263166Y0131736D02*
X0261698Y0131736D01*
X0261698Y0132103D02*
X0262432Y0132837D01*
X0263166Y0132103D01*
X0261698Y0132103D02*
X0261698Y0130635D01*
X0260956Y0131369D02*
X0260956Y0132837D01*
X0259488Y0132837D02*
X0259488Y0131369D01*
X0260222Y0130635D01*
X0260956Y0131369D01*
X0258747Y0131736D02*
X0257279Y0130635D01*
X0258747Y0131736D02*
X0257279Y0132837D01*
X0278384Y0140635D02*
X0279851Y0141736D01*
X0278384Y0142837D01*
X0280593Y0142837D02*
X0282061Y0140635D01*
X0282061Y0142837D01*
X0282803Y0142103D02*
X0283537Y0142837D01*
X0284271Y0142103D01*
X0284271Y0140635D01*
X0285013Y0140635D02*
X0285013Y0142837D01*
X0285747Y0142103D01*
X0286481Y0142837D01*
X0286481Y0140635D01*
X0287223Y0140635D02*
X0288691Y0140635D01*
X0287957Y0141736D02*
X0287223Y0141736D01*
X0287223Y0142837D02*
X0287223Y0140635D01*
X0287223Y0142837D02*
X0288691Y0142837D01*
X0284271Y0141736D02*
X0282803Y0141736D01*
X0282803Y0142103D02*
X0282803Y0140635D01*
X0280593Y0140635D02*
X0280593Y0142837D01*
X0268691Y0152235D02*
X0267223Y0152235D01*
X0267223Y0154437D01*
X0268691Y0154437D01*
X0267957Y0153336D02*
X0267223Y0153336D01*
X0266481Y0154437D02*
X0266481Y0152235D01*
X0265013Y0152235D02*
X0265013Y0154437D01*
X0265747Y0153703D01*
X0266481Y0154437D01*
X0264271Y0153703D02*
X0264271Y0152235D01*
X0264271Y0153336D02*
X0262803Y0153336D01*
X0262803Y0153703D02*
X0263537Y0154437D01*
X0264271Y0153703D01*
X0262803Y0153703D02*
X0262803Y0152235D01*
X0262061Y0152235D02*
X0262061Y0154437D01*
X0260593Y0154437D02*
X0262061Y0152235D01*
X0260593Y0152235D02*
X0260593Y0154437D01*
X0259851Y0153336D02*
X0258384Y0152235D01*
X0259851Y0153336D02*
X0258384Y0154437D01*
X0277279Y0162235D02*
X0278747Y0163336D01*
X0277279Y0164437D01*
X0279488Y0164437D02*
X0279488Y0162969D01*
X0280222Y0162235D01*
X0280956Y0162969D01*
X0280956Y0164437D01*
X0281698Y0163703D02*
X0282432Y0164437D01*
X0283166Y0163703D01*
X0283166Y0162235D01*
X0283908Y0162235D02*
X0285376Y0162235D01*
X0286118Y0162602D02*
X0286485Y0162235D01*
X0287219Y0162235D01*
X0287586Y0162602D01*
X0287586Y0164437D01*
X0288328Y0164437D02*
X0288328Y0162235D01*
X0289796Y0162235D01*
X0289062Y0163336D02*
X0288328Y0163336D01*
X0288328Y0164437D02*
X0289796Y0164437D01*
X0292018Y0165894D02*
X0293119Y0167362D01*
X0294219Y0165894D01*
X0293485Y0168104D02*
X0294219Y0168838D01*
X0293485Y0169572D01*
X0292018Y0169572D01*
X0292752Y0170314D02*
X0292018Y0171048D01*
X0292752Y0171782D01*
X0294219Y0171782D01*
X0294219Y0172524D02*
X0294219Y0173992D01*
X0293852Y0174734D02*
X0294219Y0175101D01*
X0294219Y0175835D01*
X0293852Y0176202D01*
X0292018Y0176202D01*
X0292018Y0176944D02*
X0294219Y0176944D01*
X0294219Y0178412D01*
X0293119Y0177678D02*
X0293119Y0176944D01*
X0292018Y0176944D02*
X0292018Y0178412D01*
X0292018Y0174734D02*
X0293852Y0174734D01*
X0294219Y0172524D02*
X0292018Y0172524D01*
X0293119Y0171782D02*
X0293119Y0170314D01*
X0292752Y0170314D02*
X0294219Y0170314D01*
X0293485Y0168104D02*
X0292018Y0168104D01*
X0286118Y0164437D02*
X0286118Y0162602D01*
X0283908Y0162235D02*
X0283908Y0164437D01*
X0283166Y0163336D02*
X0281698Y0163336D01*
X0281698Y0163703D02*
X0281698Y0162235D01*
X0313618Y0166999D02*
X0314719Y0168467D01*
X0315819Y0166999D01*
X0315819Y0169209D02*
X0313618Y0169209D01*
X0315819Y0170677D01*
X0313618Y0170677D01*
X0314352Y0171419D02*
X0313618Y0172153D01*
X0314352Y0172887D01*
X0315819Y0172887D01*
X0315819Y0173629D02*
X0313618Y0173629D01*
X0314352Y0174363D01*
X0313618Y0175097D01*
X0315819Y0175097D01*
X0315819Y0175839D02*
X0315819Y0177307D01*
X0314719Y0176573D02*
X0314719Y0175839D01*
X0315819Y0175839D02*
X0313618Y0175839D01*
X0313618Y0177307D01*
X0314719Y0172887D02*
X0314719Y0171419D01*
X0314352Y0171419D02*
X0315819Y0171419D01*
X0352618Y0146720D02*
X0352618Y0145252D01*
X0354819Y0145252D01*
X0354819Y0146720D01*
X0353719Y0145986D02*
X0353719Y0145252D01*
X0354819Y0144510D02*
X0352618Y0144510D01*
X0353352Y0143776D01*
X0352618Y0143043D01*
X0354819Y0143043D01*
X0354819Y0142301D02*
X0353352Y0142301D01*
X0352618Y0141567D01*
X0353352Y0140833D01*
X0354819Y0140833D01*
X0354819Y0140091D02*
X0352618Y0140091D01*
X0353719Y0140833D02*
X0353719Y0142301D01*
X0354819Y0140091D02*
X0352618Y0138623D01*
X0354819Y0138623D01*
X0353719Y0137881D02*
X0354819Y0136413D01*
X0353719Y0137881D02*
X0352618Y0136413D01*
X0318691Y0134437D02*
X0317223Y0134437D01*
X0317223Y0132235D01*
X0318691Y0132235D01*
X0317957Y0133336D02*
X0317223Y0133336D01*
X0316481Y0134437D02*
X0316481Y0132235D01*
X0315013Y0132235D02*
X0315013Y0134437D01*
X0315747Y0133703D01*
X0316481Y0134437D01*
X0314271Y0133703D02*
X0314271Y0132235D01*
X0314271Y0133336D02*
X0312803Y0133336D01*
X0312803Y0133703D02*
X0313537Y0134437D01*
X0314271Y0133703D01*
X0312803Y0133703D02*
X0312803Y0132235D01*
X0312061Y0132235D02*
X0312061Y0134437D01*
X0310593Y0134437D02*
X0310593Y0132235D01*
X0309851Y0133336D02*
X0308384Y0132235D01*
X0309851Y0133336D02*
X0308384Y0134437D01*
X0310593Y0134437D02*
X0312061Y0132235D01*
X0204315Y0037337D02*
X0202847Y0037337D01*
X0202847Y0035135D01*
X0204315Y0035135D01*
X0203581Y0036236D02*
X0202847Y0036236D01*
X0202105Y0035502D02*
X0202105Y0037337D01*
X0200637Y0037337D02*
X0200637Y0035502D01*
X0201004Y0035135D01*
X0201738Y0035135D01*
X0202105Y0035502D01*
X0199895Y0035135D02*
X0198427Y0035135D01*
X0198427Y0037337D01*
X0197685Y0036603D02*
X0197685Y0035135D01*
X0197685Y0036236D02*
X0196217Y0036236D01*
X0196217Y0036603D02*
X0196951Y0037337D01*
X0197685Y0036603D01*
X0196217Y0036603D02*
X0196217Y0035135D01*
X0195475Y0035869D02*
X0195475Y0037337D01*
X0194007Y0037337D02*
X0194007Y0035869D01*
X0194741Y0035135D01*
X0195475Y0035869D01*
X0193265Y0036236D02*
X0191797Y0035135D01*
X0193265Y0036236D02*
X0191797Y0037337D01*
X0126105Y0063235D02*
X0124637Y0063235D01*
X0124637Y0065437D01*
X0126105Y0065437D01*
X0125371Y0064336D02*
X0124637Y0064336D01*
X0123895Y0065437D02*
X0123895Y0063235D01*
X0122427Y0063235D02*
X0122427Y0065437D01*
X0123161Y0064703D01*
X0123895Y0065437D01*
X0121685Y0064703D02*
X0121685Y0063235D01*
X0121685Y0064336D02*
X0120217Y0064336D01*
X0120217Y0064703D02*
X0120951Y0065437D01*
X0121685Y0064703D01*
X0120217Y0064703D02*
X0120217Y0063235D01*
X0119475Y0063235D02*
X0119475Y0065437D01*
X0118007Y0065437D02*
X0119475Y0063235D01*
X0118007Y0063235D02*
X0118007Y0065437D01*
X0117265Y0064336D02*
X0115797Y0063235D01*
X0117265Y0064336D02*
X0115797Y0065437D01*
X0111277Y0065437D02*
X0109809Y0065437D01*
X0109809Y0063235D01*
X0111277Y0063235D01*
X0110543Y0064336D02*
X0109809Y0064336D01*
X0109067Y0063602D02*
X0109067Y0065437D01*
X0107599Y0065437D02*
X0107599Y0063602D01*
X0107966Y0063235D01*
X0108700Y0063235D01*
X0109067Y0063602D01*
X0106857Y0063235D02*
X0105390Y0063235D01*
X0105390Y0065437D01*
X0104648Y0064703D02*
X0104648Y0063235D01*
X0104648Y0064336D02*
X0103180Y0064336D01*
X0103180Y0064703D02*
X0103914Y0065437D01*
X0104648Y0064703D01*
X0103180Y0064703D02*
X0103180Y0063235D01*
X0102438Y0063969D02*
X0102438Y0065437D01*
X0102438Y0063969D02*
X0101704Y0063235D01*
X0100970Y0063969D01*
X0100970Y0065437D01*
X0100228Y0064336D02*
X0098760Y0063235D01*
X0100228Y0064336D02*
X0098760Y0065437D01*
X0070019Y0100085D02*
X0068919Y0101553D01*
X0067818Y0100085D01*
X0067818Y0102295D02*
X0070019Y0103763D01*
X0067818Y0103763D01*
X0068552Y0104505D02*
X0067818Y0105239D01*
X0068552Y0105973D01*
X0070019Y0105973D01*
X0070019Y0106715D02*
X0067818Y0106715D01*
X0068552Y0107449D01*
X0067818Y0108183D01*
X0070019Y0108183D01*
X0070019Y0108925D02*
X0070019Y0110393D01*
X0068919Y0109659D02*
X0068919Y0108925D01*
X0070019Y0108925D02*
X0067818Y0108925D01*
X0067818Y0110393D01*
X0068919Y0105973D02*
X0068919Y0104505D01*
X0068552Y0104505D02*
X0070019Y0104505D01*
X0070019Y0102295D02*
X0067818Y0102295D01*
X0092618Y0126413D02*
X0093719Y0127881D01*
X0094819Y0126413D01*
X0094819Y0128623D02*
X0092618Y0128623D01*
X0094819Y0130091D01*
X0092618Y0130091D01*
X0093352Y0130833D02*
X0092618Y0131567D01*
X0093352Y0132301D01*
X0094819Y0132301D01*
X0094819Y0133043D02*
X0092618Y0133043D01*
X0093352Y0133776D01*
X0092618Y0134510D01*
X0094819Y0134510D01*
X0094819Y0135252D02*
X0092618Y0135252D01*
X0092618Y0136720D01*
X0093719Y0135986D02*
X0093719Y0135252D01*
X0094819Y0135252D02*
X0094819Y0136720D01*
X0093719Y0132301D02*
X0093719Y0130833D01*
X0093352Y0130833D02*
X0094819Y0130833D01*
X0122618Y0131567D02*
X0123352Y0132301D01*
X0124819Y0132301D01*
X0124819Y0133043D02*
X0122618Y0133043D01*
X0123352Y0133776D01*
X0122618Y0134510D01*
X0124819Y0134510D01*
X0124819Y0135252D02*
X0122618Y0135252D01*
X0122618Y0136720D01*
X0123719Y0135986D02*
X0123719Y0135252D01*
X0124819Y0135252D02*
X0124819Y0136720D01*
X0123719Y0132301D02*
X0123719Y0130833D01*
X0123352Y0130833D02*
X0122618Y0131567D01*
X0123352Y0130833D02*
X0124819Y0130833D01*
X0124819Y0130091D02*
X0122618Y0130091D01*
X0122618Y0128623D02*
X0124819Y0130091D01*
X0124819Y0128623D02*
X0122618Y0128623D01*
X0123719Y0127881D02*
X0124819Y0126413D01*
X0123719Y0127881D02*
X0122618Y0126413D01*
X0127818Y0142413D02*
X0128919Y0143881D01*
X0130019Y0142413D01*
X0129285Y0144623D02*
X0127818Y0144623D01*
X0129285Y0144623D02*
X0130019Y0145357D01*
X0129285Y0146091D01*
X0127818Y0146091D01*
X0128552Y0146833D02*
X0127818Y0147567D01*
X0128552Y0148301D01*
X0130019Y0148301D01*
X0130470Y0148735D02*
X0131938Y0149836D01*
X0130470Y0150937D01*
X0130019Y0150510D02*
X0130019Y0149043D01*
X0127818Y0149043D01*
X0128919Y0148301D02*
X0128919Y0146833D01*
X0128552Y0146833D02*
X0130019Y0146833D01*
X0132680Y0148735D02*
X0132680Y0150937D01*
X0134148Y0148735D01*
X0134148Y0150937D01*
X0134890Y0150203D02*
X0135624Y0150937D01*
X0136358Y0150203D01*
X0136358Y0148735D01*
X0137099Y0148735D02*
X0137099Y0150937D01*
X0137833Y0150203D01*
X0138567Y0150937D01*
X0138567Y0148735D01*
X0139309Y0148735D02*
X0140777Y0148735D01*
X0140043Y0149836D02*
X0139309Y0149836D01*
X0139309Y0150937D02*
X0139309Y0148735D01*
X0139309Y0150937D02*
X0140777Y0150937D01*
X0136358Y0149836D02*
X0134890Y0149836D01*
X0134890Y0150203D02*
X0134890Y0148735D01*
X0130019Y0151619D02*
X0130019Y0152353D01*
X0129652Y0152720D01*
X0127818Y0152720D01*
X0127818Y0153462D02*
X0130019Y0153462D01*
X0130019Y0154930D01*
X0128919Y0154196D02*
X0128919Y0153462D01*
X0127818Y0153462D02*
X0127818Y0154930D01*
X0127818Y0151252D02*
X0129652Y0151252D01*
X0130019Y0151619D01*
X0137818Y0110393D02*
X0137818Y0108925D01*
X0140019Y0108925D01*
X0140019Y0110393D01*
X0138919Y0109659D02*
X0138919Y0108925D01*
X0140019Y0108183D02*
X0137818Y0108183D01*
X0138552Y0107449D01*
X0137818Y0106715D01*
X0140019Y0106715D01*
X0140019Y0105973D02*
X0138552Y0105973D01*
X0137818Y0105239D01*
X0138552Y0104505D01*
X0140019Y0104505D01*
X0140019Y0103763D02*
X0137818Y0103763D01*
X0138919Y0104505D02*
X0138919Y0105973D01*
X0140019Y0103763D02*
X0137818Y0102295D01*
X0140019Y0102295D01*
X0138919Y0101553D02*
X0137818Y0100085D01*
X0138919Y0101553D02*
X0140019Y0100085D01*
X0060019Y0142413D02*
X0058919Y0143881D01*
X0057818Y0142413D01*
X0057818Y0144623D02*
X0059285Y0144623D01*
X0060019Y0145357D01*
X0059285Y0146091D01*
X0057818Y0146091D01*
X0058552Y0146833D02*
X0057818Y0147567D01*
X0058552Y0148301D01*
X0060019Y0148301D01*
X0060019Y0149043D02*
X0060019Y0150510D01*
X0059652Y0151252D02*
X0060019Y0151619D01*
X0060019Y0152353D01*
X0059652Y0152720D01*
X0057818Y0152720D01*
X0057818Y0153462D02*
X0060019Y0153462D01*
X0060019Y0154930D01*
X0058919Y0154196D02*
X0058919Y0153462D01*
X0057818Y0153462D02*
X0057818Y0154930D01*
X0057818Y0151252D02*
X0059652Y0151252D01*
X0060019Y0149043D02*
X0057818Y0149043D01*
X0058919Y0148301D02*
X0058919Y0146833D01*
X0058552Y0146833D02*
X0060019Y0146833D01*
X0059309Y0168735D02*
X0060777Y0168735D01*
X0060043Y0169836D02*
X0059309Y0169836D01*
X0059309Y0170937D02*
X0059309Y0168735D01*
X0058567Y0168735D02*
X0058567Y0170937D01*
X0057833Y0170203D01*
X0057099Y0170937D01*
X0057099Y0168735D01*
X0056358Y0168735D02*
X0056358Y0170203D01*
X0055624Y0170937D01*
X0054890Y0170203D01*
X0054890Y0168735D01*
X0054148Y0168735D02*
X0054148Y0170937D01*
X0054890Y0169836D02*
X0056358Y0169836D01*
X0054148Y0168735D02*
X0052680Y0170937D01*
X0052680Y0168735D01*
X0051938Y0169836D02*
X0050470Y0168735D01*
X0051938Y0169836D02*
X0050470Y0170937D01*
X0059309Y0170937D02*
X0060777Y0170937D01*
D13*
X0153416Y0185235D02*
X0155818Y0187037D01*
X0153416Y0188838D01*
X0157099Y0188838D02*
X0159501Y0185235D01*
X0159501Y0188838D01*
X0160782Y0187637D02*
X0161983Y0188838D01*
X0163184Y0187637D01*
X0163184Y0185235D01*
X0164465Y0185235D02*
X0164465Y0188838D01*
X0165666Y0187637D01*
X0166868Y0188838D01*
X0166868Y0185235D01*
X0168149Y0185235D02*
X0170551Y0185235D01*
X0169350Y0187037D02*
X0168149Y0187037D01*
X0168149Y0188838D02*
X0168149Y0185235D01*
X0163184Y0187037D02*
X0160782Y0187037D01*
X0160782Y0187637D02*
X0160782Y0185235D01*
X0157099Y0185235D02*
X0157099Y0188838D01*
X0168149Y0188838D02*
X0170551Y0188838D01*
X0253416Y0188838D02*
X0255818Y0187037D01*
X0253416Y0185235D01*
X0257099Y0185235D02*
X0257099Y0188838D01*
X0259501Y0185235D01*
X0259501Y0188838D01*
X0260782Y0187637D02*
X0261983Y0188838D01*
X0263184Y0187637D01*
X0263184Y0185235D01*
X0264465Y0185235D02*
X0264465Y0188838D01*
X0265666Y0187637D01*
X0266868Y0188838D01*
X0266868Y0185235D01*
X0268149Y0185235D02*
X0270551Y0185235D01*
X0269350Y0187037D02*
X0268149Y0187037D01*
X0268149Y0188838D02*
X0268149Y0185235D01*
X0263184Y0187037D02*
X0260782Y0187037D01*
X0260782Y0187637D02*
X0260782Y0185235D01*
X0268149Y0188838D02*
X0270551Y0188838D01*
X0134919Y0111035D02*
X0132919Y0111035D01*
X0132843Y0111033D01*
X0132767Y0111027D01*
X0132692Y0111018D01*
X0132617Y0111004D01*
X0132543Y0110987D01*
X0132470Y0110966D01*
X0132398Y0110942D01*
X0132327Y0110913D01*
X0132258Y0110882D01*
X0132191Y0110847D01*
X0132126Y0110808D01*
X0132062Y0110766D01*
X0132001Y0110721D01*
X0131942Y0110673D01*
X0131886Y0110622D01*
X0131832Y0110568D01*
X0131781Y0110512D01*
X0131733Y0110453D01*
X0131688Y0110392D01*
X0131646Y0110328D01*
X0131607Y0110263D01*
X0131572Y0110196D01*
X0131541Y0110127D01*
X0131512Y0110056D01*
X0131488Y0109984D01*
X0131467Y0109911D01*
X0131450Y0109837D01*
X0131436Y0109762D01*
X0131427Y0109687D01*
X0131421Y0109611D01*
X0131419Y0109535D01*
X0131419Y0095535D01*
X0131421Y0095459D01*
X0131427Y0095383D01*
X0131436Y0095308D01*
X0131450Y0095233D01*
X0131467Y0095159D01*
X0131488Y0095086D01*
X0131512Y0095014D01*
X0131541Y0094943D01*
X0131572Y0094874D01*
X0131607Y0094807D01*
X0131646Y0094742D01*
X0131688Y0094678D01*
X0131733Y0094617D01*
X0131781Y0094558D01*
X0131832Y0094502D01*
X0131886Y0094448D01*
X0131942Y0094397D01*
X0132001Y0094349D01*
X0132062Y0094304D01*
X0132126Y0094262D01*
X0132191Y0094223D01*
X0132258Y0094188D01*
X0132327Y0094157D01*
X0132398Y0094128D01*
X0132470Y0094104D01*
X0132543Y0094083D01*
X0132617Y0094066D01*
X0132692Y0094052D01*
X0132767Y0094043D01*
X0132843Y0094037D01*
X0132919Y0094035D01*
X0134919Y0094035D01*
X0134995Y0094037D01*
X0135071Y0094043D01*
X0135146Y0094052D01*
X0135221Y0094066D01*
X0135295Y0094083D01*
X0135368Y0094104D01*
X0135440Y0094128D01*
X0135511Y0094157D01*
X0135580Y0094188D01*
X0135647Y0094223D01*
X0135712Y0094262D01*
X0135776Y0094304D01*
X0135837Y0094349D01*
X0135896Y0094397D01*
X0135952Y0094448D01*
X0136006Y0094502D01*
X0136057Y0094558D01*
X0136105Y0094617D01*
X0136150Y0094678D01*
X0136192Y0094742D01*
X0136231Y0094807D01*
X0136266Y0094874D01*
X0136297Y0094943D01*
X0136326Y0095014D01*
X0136350Y0095086D01*
X0136371Y0095159D01*
X0136388Y0095233D01*
X0136402Y0095308D01*
X0136411Y0095383D01*
X0136417Y0095459D01*
X0136419Y0095535D01*
X0136419Y0109535D01*
X0136417Y0109611D01*
X0136411Y0109687D01*
X0136402Y0109762D01*
X0136388Y0109837D01*
X0136371Y0109911D01*
X0136350Y0109984D01*
X0136326Y0110056D01*
X0136297Y0110127D01*
X0136266Y0110196D01*
X0136231Y0110263D01*
X0136192Y0110328D01*
X0136150Y0110392D01*
X0136105Y0110453D01*
X0136057Y0110512D01*
X0136006Y0110568D01*
X0135952Y0110622D01*
X0135896Y0110673D01*
X0135837Y0110721D01*
X0135776Y0110766D01*
X0135712Y0110808D01*
X0135647Y0110847D01*
X0135580Y0110882D01*
X0135511Y0110913D01*
X0135440Y0110942D01*
X0135368Y0110966D01*
X0135295Y0110987D01*
X0135221Y0111004D01*
X0135146Y0111018D01*
X0135071Y0111027D01*
X0134995Y0111033D01*
X0134919Y0111035D01*
X0120919Y0085035D02*
X0106919Y0085035D01*
X0106843Y0085033D01*
X0106767Y0085027D01*
X0106692Y0085018D01*
X0106617Y0085004D01*
X0106543Y0084987D01*
X0106470Y0084966D01*
X0106398Y0084942D01*
X0106327Y0084913D01*
X0106258Y0084882D01*
X0106191Y0084847D01*
X0106126Y0084808D01*
X0106062Y0084766D01*
X0106001Y0084721D01*
X0105942Y0084673D01*
X0105886Y0084622D01*
X0105832Y0084568D01*
X0105781Y0084512D01*
X0105733Y0084453D01*
X0105688Y0084392D01*
X0105646Y0084328D01*
X0105607Y0084263D01*
X0105572Y0084196D01*
X0105541Y0084127D01*
X0105512Y0084056D01*
X0105488Y0083984D01*
X0105467Y0083911D01*
X0105450Y0083837D01*
X0105436Y0083762D01*
X0105427Y0083687D01*
X0105421Y0083611D01*
X0105419Y0083535D01*
X0105419Y0081535D01*
X0105421Y0081459D01*
X0105427Y0081383D01*
X0105436Y0081308D01*
X0105450Y0081233D01*
X0105467Y0081159D01*
X0105488Y0081086D01*
X0105512Y0081014D01*
X0105541Y0080943D01*
X0105572Y0080874D01*
X0105607Y0080807D01*
X0105646Y0080742D01*
X0105688Y0080678D01*
X0105733Y0080617D01*
X0105781Y0080558D01*
X0105832Y0080502D01*
X0105886Y0080448D01*
X0105942Y0080397D01*
X0106001Y0080349D01*
X0106062Y0080304D01*
X0106126Y0080262D01*
X0106191Y0080223D01*
X0106258Y0080188D01*
X0106327Y0080157D01*
X0106398Y0080128D01*
X0106470Y0080104D01*
X0106543Y0080083D01*
X0106617Y0080066D01*
X0106692Y0080052D01*
X0106767Y0080043D01*
X0106843Y0080037D01*
X0106919Y0080035D01*
X0120919Y0080035D01*
X0120995Y0080037D01*
X0121071Y0080043D01*
X0121146Y0080052D01*
X0121221Y0080066D01*
X0121295Y0080083D01*
X0121368Y0080104D01*
X0121440Y0080128D01*
X0121511Y0080157D01*
X0121580Y0080188D01*
X0121647Y0080223D01*
X0121712Y0080262D01*
X0121776Y0080304D01*
X0121837Y0080349D01*
X0121896Y0080397D01*
X0121952Y0080448D01*
X0122006Y0080502D01*
X0122057Y0080558D01*
X0122105Y0080617D01*
X0122150Y0080678D01*
X0122192Y0080742D01*
X0122231Y0080807D01*
X0122266Y0080874D01*
X0122297Y0080943D01*
X0122326Y0081014D01*
X0122350Y0081086D01*
X0122371Y0081159D01*
X0122388Y0081233D01*
X0122402Y0081308D01*
X0122411Y0081383D01*
X0122417Y0081459D01*
X0122419Y0081535D01*
X0122419Y0083535D01*
X0122417Y0083611D01*
X0122411Y0083687D01*
X0122402Y0083762D01*
X0122388Y0083837D01*
X0122371Y0083911D01*
X0122350Y0083984D01*
X0122326Y0084056D01*
X0122297Y0084127D01*
X0122266Y0084196D01*
X0122231Y0084263D01*
X0122192Y0084328D01*
X0122150Y0084392D01*
X0122105Y0084453D01*
X0122057Y0084512D01*
X0122006Y0084568D01*
X0121952Y0084622D01*
X0121896Y0084673D01*
X0121837Y0084721D01*
X0121776Y0084766D01*
X0121712Y0084808D01*
X0121647Y0084847D01*
X0121580Y0084882D01*
X0121511Y0084913D01*
X0121440Y0084942D01*
X0121368Y0084966D01*
X0121295Y0084987D01*
X0121221Y0085004D01*
X0121146Y0085018D01*
X0121071Y0085027D01*
X0120995Y0085033D01*
X0120919Y0085035D01*
X0092419Y0083535D02*
X0092419Y0081535D01*
X0092417Y0081459D01*
X0092411Y0081383D01*
X0092402Y0081308D01*
X0092388Y0081233D01*
X0092371Y0081159D01*
X0092350Y0081086D01*
X0092326Y0081014D01*
X0092297Y0080943D01*
X0092266Y0080874D01*
X0092231Y0080807D01*
X0092192Y0080742D01*
X0092150Y0080678D01*
X0092105Y0080617D01*
X0092057Y0080558D01*
X0092006Y0080502D01*
X0091952Y0080448D01*
X0091896Y0080397D01*
X0091837Y0080349D01*
X0091776Y0080304D01*
X0091712Y0080262D01*
X0091647Y0080223D01*
X0091580Y0080188D01*
X0091511Y0080157D01*
X0091440Y0080128D01*
X0091368Y0080104D01*
X0091295Y0080083D01*
X0091221Y0080066D01*
X0091146Y0080052D01*
X0091071Y0080043D01*
X0090995Y0080037D01*
X0090919Y0080035D01*
X0076919Y0080035D01*
X0076843Y0080037D01*
X0076767Y0080043D01*
X0076692Y0080052D01*
X0076617Y0080066D01*
X0076543Y0080083D01*
X0076470Y0080104D01*
X0076398Y0080128D01*
X0076327Y0080157D01*
X0076258Y0080188D01*
X0076191Y0080223D01*
X0076126Y0080262D01*
X0076062Y0080304D01*
X0076001Y0080349D01*
X0075942Y0080397D01*
X0075886Y0080448D01*
X0075832Y0080502D01*
X0075781Y0080558D01*
X0075733Y0080617D01*
X0075688Y0080678D01*
X0075646Y0080742D01*
X0075607Y0080807D01*
X0075572Y0080874D01*
X0075541Y0080943D01*
X0075512Y0081014D01*
X0075488Y0081086D01*
X0075467Y0081159D01*
X0075450Y0081233D01*
X0075436Y0081308D01*
X0075427Y0081383D01*
X0075421Y0081459D01*
X0075419Y0081535D01*
X0075419Y0083535D01*
X0075421Y0083611D01*
X0075427Y0083687D01*
X0075436Y0083762D01*
X0075450Y0083837D01*
X0075467Y0083911D01*
X0075488Y0083984D01*
X0075512Y0084056D01*
X0075541Y0084127D01*
X0075572Y0084196D01*
X0075607Y0084263D01*
X0075646Y0084328D01*
X0075688Y0084392D01*
X0075733Y0084453D01*
X0075781Y0084512D01*
X0075832Y0084568D01*
X0075886Y0084622D01*
X0075942Y0084673D01*
X0076001Y0084721D01*
X0076062Y0084766D01*
X0076126Y0084808D01*
X0076191Y0084847D01*
X0076258Y0084882D01*
X0076327Y0084913D01*
X0076398Y0084942D01*
X0076470Y0084966D01*
X0076543Y0084987D01*
X0076617Y0085004D01*
X0076692Y0085018D01*
X0076767Y0085027D01*
X0076843Y0085033D01*
X0076919Y0085035D01*
X0090919Y0085035D01*
X0090995Y0085033D01*
X0091071Y0085027D01*
X0091146Y0085018D01*
X0091221Y0085004D01*
X0091295Y0084987D01*
X0091368Y0084966D01*
X0091440Y0084942D01*
X0091511Y0084913D01*
X0091580Y0084882D01*
X0091647Y0084847D01*
X0091712Y0084808D01*
X0091776Y0084766D01*
X0091837Y0084721D01*
X0091896Y0084673D01*
X0091952Y0084622D01*
X0092006Y0084568D01*
X0092057Y0084512D01*
X0092105Y0084453D01*
X0092150Y0084392D01*
X0092192Y0084328D01*
X0092231Y0084263D01*
X0092266Y0084196D01*
X0092297Y0084127D01*
X0092326Y0084056D01*
X0092350Y0083984D01*
X0092371Y0083911D01*
X0092388Y0083837D01*
X0092402Y0083762D01*
X0092411Y0083687D01*
X0092417Y0083611D01*
X0092419Y0083535D01*
X0066419Y0095535D02*
X0066419Y0109535D01*
X0066417Y0109611D01*
X0066411Y0109687D01*
X0066402Y0109762D01*
X0066388Y0109837D01*
X0066371Y0109911D01*
X0066350Y0109984D01*
X0066326Y0110056D01*
X0066297Y0110127D01*
X0066266Y0110196D01*
X0066231Y0110263D01*
X0066192Y0110328D01*
X0066150Y0110392D01*
X0066105Y0110453D01*
X0066057Y0110512D01*
X0066006Y0110568D01*
X0065952Y0110622D01*
X0065896Y0110673D01*
X0065837Y0110721D01*
X0065776Y0110766D01*
X0065712Y0110808D01*
X0065647Y0110847D01*
X0065580Y0110882D01*
X0065511Y0110913D01*
X0065440Y0110942D01*
X0065368Y0110966D01*
X0065295Y0110987D01*
X0065221Y0111004D01*
X0065146Y0111018D01*
X0065071Y0111027D01*
X0064995Y0111033D01*
X0064919Y0111035D01*
X0062919Y0111035D01*
X0062843Y0111033D01*
X0062767Y0111027D01*
X0062692Y0111018D01*
X0062617Y0111004D01*
X0062543Y0110987D01*
X0062470Y0110966D01*
X0062398Y0110942D01*
X0062327Y0110913D01*
X0062258Y0110882D01*
X0062191Y0110847D01*
X0062126Y0110808D01*
X0062062Y0110766D01*
X0062001Y0110721D01*
X0061942Y0110673D01*
X0061886Y0110622D01*
X0061832Y0110568D01*
X0061781Y0110512D01*
X0061733Y0110453D01*
X0061688Y0110392D01*
X0061646Y0110328D01*
X0061607Y0110263D01*
X0061572Y0110196D01*
X0061541Y0110127D01*
X0061512Y0110056D01*
X0061488Y0109984D01*
X0061467Y0109911D01*
X0061450Y0109837D01*
X0061436Y0109762D01*
X0061427Y0109687D01*
X0061421Y0109611D01*
X0061419Y0109535D01*
X0061419Y0095535D01*
X0061421Y0095459D01*
X0061427Y0095383D01*
X0061436Y0095308D01*
X0061450Y0095233D01*
X0061467Y0095159D01*
X0061488Y0095086D01*
X0061512Y0095014D01*
X0061541Y0094943D01*
X0061572Y0094874D01*
X0061607Y0094807D01*
X0061646Y0094742D01*
X0061688Y0094678D01*
X0061733Y0094617D01*
X0061781Y0094558D01*
X0061832Y0094502D01*
X0061886Y0094448D01*
X0061942Y0094397D01*
X0062001Y0094349D01*
X0062062Y0094304D01*
X0062126Y0094262D01*
X0062191Y0094223D01*
X0062258Y0094188D01*
X0062327Y0094157D01*
X0062398Y0094128D01*
X0062470Y0094104D01*
X0062543Y0094083D01*
X0062617Y0094066D01*
X0062692Y0094052D01*
X0062767Y0094043D01*
X0062843Y0094037D01*
X0062919Y0094035D01*
X0064919Y0094035D01*
X0064995Y0094037D01*
X0065071Y0094043D01*
X0065146Y0094052D01*
X0065221Y0094066D01*
X0065295Y0094083D01*
X0065368Y0094104D01*
X0065440Y0094128D01*
X0065511Y0094157D01*
X0065580Y0094188D01*
X0065647Y0094223D01*
X0065712Y0094262D01*
X0065776Y0094304D01*
X0065837Y0094349D01*
X0065896Y0094397D01*
X0065952Y0094448D01*
X0066006Y0094502D01*
X0066057Y0094558D01*
X0066105Y0094617D01*
X0066150Y0094678D01*
X0066192Y0094742D01*
X0066231Y0094807D01*
X0066266Y0094874D01*
X0066297Y0094943D01*
X0066326Y0095014D01*
X0066350Y0095086D01*
X0066371Y0095159D01*
X0066388Y0095233D01*
X0066402Y0095308D01*
X0066411Y0095383D01*
X0066417Y0095459D01*
X0066419Y0095535D01*
X0065753Y0042537D02*
X0068822Y0042537D01*
X0275419Y0091535D02*
X0275419Y0093535D01*
X0275421Y0093611D01*
X0275427Y0093687D01*
X0275436Y0093762D01*
X0275450Y0093837D01*
X0275467Y0093911D01*
X0275488Y0093984D01*
X0275512Y0094056D01*
X0275541Y0094127D01*
X0275572Y0094196D01*
X0275607Y0094263D01*
X0275646Y0094328D01*
X0275688Y0094392D01*
X0275733Y0094453D01*
X0275781Y0094512D01*
X0275832Y0094568D01*
X0275886Y0094622D01*
X0275942Y0094673D01*
X0276001Y0094721D01*
X0276062Y0094766D01*
X0276126Y0094808D01*
X0276191Y0094847D01*
X0276258Y0094882D01*
X0276327Y0094913D01*
X0276398Y0094942D01*
X0276470Y0094966D01*
X0276543Y0094987D01*
X0276617Y0095004D01*
X0276692Y0095018D01*
X0276767Y0095027D01*
X0276843Y0095033D01*
X0276919Y0095035D01*
X0290919Y0095035D01*
X0290995Y0095033D01*
X0291071Y0095027D01*
X0291146Y0095018D01*
X0291221Y0095004D01*
X0291295Y0094987D01*
X0291368Y0094966D01*
X0291440Y0094942D01*
X0291511Y0094913D01*
X0291580Y0094882D01*
X0291647Y0094847D01*
X0291712Y0094808D01*
X0291776Y0094766D01*
X0291837Y0094721D01*
X0291896Y0094673D01*
X0291952Y0094622D01*
X0292006Y0094568D01*
X0292057Y0094512D01*
X0292105Y0094453D01*
X0292150Y0094392D01*
X0292192Y0094328D01*
X0292231Y0094263D01*
X0292266Y0094196D01*
X0292297Y0094127D01*
X0292326Y0094056D01*
X0292350Y0093984D01*
X0292371Y0093911D01*
X0292388Y0093837D01*
X0292402Y0093762D01*
X0292411Y0093687D01*
X0292417Y0093611D01*
X0292419Y0093535D01*
X0292419Y0091535D01*
X0292417Y0091459D01*
X0292411Y0091383D01*
X0292402Y0091308D01*
X0292388Y0091233D01*
X0292371Y0091159D01*
X0292350Y0091086D01*
X0292326Y0091014D01*
X0292297Y0090943D01*
X0292266Y0090874D01*
X0292231Y0090807D01*
X0292192Y0090742D01*
X0292150Y0090678D01*
X0292105Y0090617D01*
X0292057Y0090558D01*
X0292006Y0090502D01*
X0291952Y0090448D01*
X0291896Y0090397D01*
X0291837Y0090349D01*
X0291776Y0090304D01*
X0291712Y0090262D01*
X0291647Y0090223D01*
X0291580Y0090188D01*
X0291511Y0090157D01*
X0291440Y0090128D01*
X0291368Y0090104D01*
X0291295Y0090083D01*
X0291221Y0090066D01*
X0291146Y0090052D01*
X0291071Y0090043D01*
X0290995Y0090037D01*
X0290919Y0090035D01*
X0276919Y0090035D01*
X0276843Y0090037D01*
X0276767Y0090043D01*
X0276692Y0090052D01*
X0276617Y0090066D01*
X0276543Y0090083D01*
X0276470Y0090104D01*
X0276398Y0090128D01*
X0276327Y0090157D01*
X0276258Y0090188D01*
X0276191Y0090223D01*
X0276126Y0090262D01*
X0276062Y0090304D01*
X0276001Y0090349D01*
X0275942Y0090397D01*
X0275886Y0090448D01*
X0275832Y0090502D01*
X0275781Y0090558D01*
X0275733Y0090617D01*
X0275688Y0090678D01*
X0275646Y0090742D01*
X0275607Y0090807D01*
X0275572Y0090874D01*
X0275541Y0090943D01*
X0275512Y0091014D01*
X0275488Y0091086D01*
X0275467Y0091159D01*
X0275450Y0091233D01*
X0275436Y0091308D01*
X0275427Y0091383D01*
X0275421Y0091459D01*
X0275419Y0091535D01*
X0335419Y0091535D02*
X0335419Y0093535D01*
X0335421Y0093611D01*
X0335427Y0093687D01*
X0335436Y0093762D01*
X0335450Y0093837D01*
X0335467Y0093911D01*
X0335488Y0093984D01*
X0335512Y0094056D01*
X0335541Y0094127D01*
X0335572Y0094196D01*
X0335607Y0094263D01*
X0335646Y0094328D01*
X0335688Y0094392D01*
X0335733Y0094453D01*
X0335781Y0094512D01*
X0335832Y0094568D01*
X0335886Y0094622D01*
X0335942Y0094673D01*
X0336001Y0094721D01*
X0336062Y0094766D01*
X0336126Y0094808D01*
X0336191Y0094847D01*
X0336258Y0094882D01*
X0336327Y0094913D01*
X0336398Y0094942D01*
X0336470Y0094966D01*
X0336543Y0094987D01*
X0336617Y0095004D01*
X0336692Y0095018D01*
X0336767Y0095027D01*
X0336843Y0095033D01*
X0336919Y0095035D01*
X0350919Y0095035D01*
X0350995Y0095033D01*
X0351071Y0095027D01*
X0351146Y0095018D01*
X0351221Y0095004D01*
X0351295Y0094987D01*
X0351368Y0094966D01*
X0351440Y0094942D01*
X0351511Y0094913D01*
X0351580Y0094882D01*
X0351647Y0094847D01*
X0351712Y0094808D01*
X0351776Y0094766D01*
X0351837Y0094721D01*
X0351896Y0094673D01*
X0351952Y0094622D01*
X0352006Y0094568D01*
X0352057Y0094512D01*
X0352105Y0094453D01*
X0352150Y0094392D01*
X0352192Y0094328D01*
X0352231Y0094263D01*
X0352266Y0094196D01*
X0352297Y0094127D01*
X0352326Y0094056D01*
X0352350Y0093984D01*
X0352371Y0093911D01*
X0352388Y0093837D01*
X0352402Y0093762D01*
X0352411Y0093687D01*
X0352417Y0093611D01*
X0352419Y0093535D01*
X0352419Y0091535D01*
X0352417Y0091459D01*
X0352411Y0091383D01*
X0352402Y0091308D01*
X0352388Y0091233D01*
X0352371Y0091159D01*
X0352350Y0091086D01*
X0352326Y0091014D01*
X0352297Y0090943D01*
X0352266Y0090874D01*
X0352231Y0090807D01*
X0352192Y0090742D01*
X0352150Y0090678D01*
X0352105Y0090617D01*
X0352057Y0090558D01*
X0352006Y0090502D01*
X0351952Y0090448D01*
X0351896Y0090397D01*
X0351837Y0090349D01*
X0351776Y0090304D01*
X0351712Y0090262D01*
X0351647Y0090223D01*
X0351580Y0090188D01*
X0351511Y0090157D01*
X0351440Y0090128D01*
X0351368Y0090104D01*
X0351295Y0090083D01*
X0351221Y0090066D01*
X0351146Y0090052D01*
X0351071Y0090043D01*
X0350995Y0090037D01*
X0350919Y0090035D01*
X0336919Y0090035D01*
X0336843Y0090037D01*
X0336767Y0090043D01*
X0336692Y0090052D01*
X0336617Y0090066D01*
X0336543Y0090083D01*
X0336470Y0090104D01*
X0336398Y0090128D01*
X0336327Y0090157D01*
X0336258Y0090188D01*
X0336191Y0090223D01*
X0336126Y0090262D01*
X0336062Y0090304D01*
X0336001Y0090349D01*
X0335942Y0090397D01*
X0335886Y0090448D01*
X0335832Y0090502D01*
X0335781Y0090558D01*
X0335733Y0090617D01*
X0335688Y0090678D01*
X0335646Y0090742D01*
X0335607Y0090807D01*
X0335572Y0090874D01*
X0335541Y0090943D01*
X0335512Y0091014D01*
X0335488Y0091086D01*
X0335467Y0091159D01*
X0335450Y0091233D01*
X0335436Y0091308D01*
X0335427Y0091383D01*
X0335421Y0091459D01*
X0335419Y0091535D01*
D14*
X0056168Y0033028D02*
X0056168Y0030125D01*
X0056168Y0031093D02*
X0057620Y0031093D01*
X0058103Y0031576D01*
X0058103Y0032544D01*
X0057620Y0033028D01*
X0056168Y0033028D01*
X0059115Y0033028D02*
X0059115Y0030125D01*
X0060082Y0031093D01*
X0061050Y0030125D01*
X0061050Y0033028D01*
X0062061Y0033028D02*
X0063513Y0033028D01*
X0063996Y0032544D01*
X0063996Y0031576D01*
X0063513Y0031093D01*
X0062061Y0031093D01*
X0063029Y0031093D02*
X0063996Y0030125D01*
X0062061Y0030125D02*
X0062061Y0033028D01*
X0101749Y0070685D02*
X0103684Y0072136D01*
X0101749Y0073588D01*
X0104695Y0073588D02*
X0104695Y0071653D01*
X0105663Y0070685D01*
X0106630Y0071653D01*
X0106630Y0073588D01*
X0107642Y0072620D02*
X0107642Y0070685D01*
X0107642Y0072136D02*
X0109577Y0072136D01*
X0109577Y0072620D02*
X0109577Y0070685D01*
X0110588Y0070685D02*
X0112523Y0070685D01*
X0113535Y0071169D02*
X0114018Y0070685D01*
X0114986Y0070685D01*
X0115470Y0071169D01*
X0115470Y0073588D01*
X0116481Y0073588D02*
X0116481Y0070685D01*
X0118416Y0070685D01*
X0117449Y0072136D02*
X0116481Y0072136D01*
X0116481Y0073588D02*
X0118416Y0073588D01*
X0113535Y0073588D02*
X0113535Y0071169D01*
X0110588Y0070685D02*
X0110588Y0073588D01*
X0109577Y0072620D02*
X0108609Y0073588D01*
X0107642Y0072620D01*
X0131749Y0073588D02*
X0133684Y0072136D01*
X0131749Y0070685D01*
X0134695Y0071653D02*
X0135663Y0070685D01*
X0136630Y0071653D01*
X0136630Y0073588D01*
X0137642Y0072620D02*
X0138609Y0073588D01*
X0139577Y0072620D01*
X0139577Y0070685D01*
X0140588Y0070685D02*
X0142523Y0070685D01*
X0143535Y0071169D02*
X0144018Y0070685D01*
X0144986Y0070685D01*
X0145470Y0071169D01*
X0145470Y0073588D01*
X0146481Y0073588D02*
X0146481Y0070685D01*
X0148416Y0070685D01*
X0147449Y0072136D02*
X0146481Y0072136D01*
X0146481Y0073588D02*
X0148416Y0073588D01*
X0143535Y0073588D02*
X0143535Y0071169D01*
X0140588Y0070685D02*
X0140588Y0073588D01*
X0139577Y0072136D02*
X0137642Y0072136D01*
X0137642Y0072620D02*
X0137642Y0070685D01*
X0134695Y0071653D02*
X0134695Y0073588D01*
X0230183Y0095226D02*
X0232652Y0095226D01*
X0231418Y0093992D02*
X0231418Y0096461D01*
X0241749Y0101085D02*
X0243684Y0102536D01*
X0241749Y0103988D01*
X0244695Y0103988D02*
X0244695Y0102053D01*
X0245663Y0101085D01*
X0246630Y0102053D01*
X0246630Y0103988D01*
X0247642Y0103020D02*
X0248609Y0103988D01*
X0249577Y0103020D01*
X0249577Y0101085D01*
X0250588Y0101085D02*
X0252523Y0101085D01*
X0253535Y0101569D02*
X0254018Y0101085D01*
X0254986Y0101085D01*
X0255470Y0101569D01*
X0255470Y0103988D01*
X0256481Y0103988D02*
X0256481Y0101085D01*
X0258416Y0101085D01*
X0257449Y0102536D02*
X0256481Y0102536D01*
X0256481Y0103988D02*
X0258416Y0103988D01*
X0253535Y0103988D02*
X0253535Y0101569D01*
X0250588Y0101085D02*
X0250588Y0103988D01*
X0249577Y0102536D02*
X0247642Y0102536D01*
X0247642Y0103020D02*
X0247642Y0101085D01*
X0301749Y0101485D02*
X0303684Y0102936D01*
X0301749Y0104388D01*
X0304695Y0104388D02*
X0304695Y0102453D01*
X0305663Y0101485D01*
X0306630Y0102453D01*
X0306630Y0104388D01*
X0307642Y0103420D02*
X0307642Y0101485D01*
X0307642Y0102936D02*
X0309577Y0102936D01*
X0309577Y0103420D02*
X0309577Y0101485D01*
X0310588Y0101485D02*
X0312523Y0101485D01*
X0313535Y0101969D02*
X0314018Y0101485D01*
X0314986Y0101485D01*
X0315470Y0101969D01*
X0315470Y0104388D01*
X0316481Y0104388D02*
X0316481Y0101485D01*
X0318416Y0101485D01*
X0317449Y0102936D02*
X0316481Y0102936D01*
X0316481Y0104388D02*
X0318416Y0104388D01*
X0313535Y0104388D02*
X0313535Y0101969D01*
X0310588Y0101485D02*
X0310588Y0104388D01*
X0309577Y0103420D02*
X0308609Y0104388D01*
X0307642Y0103420D01*
X0361749Y0083588D02*
X0363684Y0082136D01*
X0361749Y0080685D01*
X0364695Y0081653D02*
X0365663Y0080685D01*
X0366630Y0081653D01*
X0366630Y0083588D01*
X0367642Y0082620D02*
X0368609Y0083588D01*
X0369577Y0082620D01*
X0369577Y0080685D01*
X0370588Y0080685D02*
X0372523Y0080685D01*
X0373535Y0081169D02*
X0374018Y0080685D01*
X0374986Y0080685D01*
X0375470Y0081169D01*
X0375470Y0083588D01*
X0376481Y0083588D02*
X0376481Y0080685D01*
X0378416Y0080685D01*
X0377449Y0082136D02*
X0376481Y0082136D01*
X0376481Y0083588D02*
X0378416Y0083588D01*
X0373535Y0083588D02*
X0373535Y0081169D01*
X0370588Y0080685D02*
X0370588Y0083588D01*
X0369577Y0082136D02*
X0367642Y0082136D01*
X0367642Y0082620D02*
X0367642Y0080685D01*
X0364695Y0081653D02*
X0364695Y0083588D01*
X0265345Y0052537D02*
X0262876Y0052537D01*
X0262467Y0140364D02*
X0263918Y0142299D01*
X0265369Y0140364D01*
X0264402Y0143311D02*
X0262467Y0143311D01*
X0262467Y0145246D02*
X0264402Y0145246D01*
X0265369Y0144278D01*
X0264402Y0143311D01*
X0263918Y0146257D02*
X0263918Y0148192D01*
X0263434Y0148192D02*
X0265369Y0148192D01*
X0265369Y0149204D02*
X0265369Y0151139D01*
X0264886Y0152150D02*
X0265369Y0152634D01*
X0265369Y0153601D01*
X0264886Y0154085D01*
X0262467Y0154085D01*
X0262467Y0155097D02*
X0265369Y0155097D01*
X0265369Y0157032D01*
X0263918Y0156064D02*
X0263918Y0155097D01*
X0262467Y0155097D02*
X0262467Y0157032D01*
X0262467Y0152150D02*
X0264886Y0152150D01*
X0265369Y0149204D02*
X0262467Y0149204D01*
X0263434Y0148192D02*
X0262467Y0147225D01*
X0263434Y0146257D01*
X0265369Y0146257D01*
X0233416Y0143988D02*
X0231481Y0143988D01*
X0231481Y0141085D01*
X0233416Y0141085D01*
X0232449Y0142536D02*
X0231481Y0142536D01*
X0230470Y0141569D02*
X0230470Y0143988D01*
X0228535Y0143988D02*
X0228535Y0141569D01*
X0229018Y0141085D01*
X0229986Y0141085D01*
X0230470Y0141569D01*
X0227523Y0141085D02*
X0225588Y0141085D01*
X0225588Y0143988D01*
X0224577Y0143020D02*
X0224577Y0141085D01*
X0224577Y0142536D02*
X0222642Y0142536D01*
X0222642Y0143020D02*
X0222642Y0141085D01*
X0221630Y0142053D02*
X0221630Y0143988D01*
X0222642Y0143020D02*
X0223609Y0143988D01*
X0224577Y0143020D01*
X0221630Y0142053D02*
X0220663Y0141085D01*
X0219695Y0142053D01*
X0219695Y0143988D01*
X0218684Y0142536D02*
X0216749Y0141085D01*
X0218684Y0142536D02*
X0216749Y0143988D01*
X0145369Y0150364D02*
X0143918Y0152299D01*
X0142467Y0150364D01*
X0142467Y0153311D02*
X0144402Y0153311D01*
X0145369Y0154278D01*
X0144402Y0155246D01*
X0142467Y0155246D01*
X0143434Y0156257D02*
X0142467Y0157225D01*
X0143434Y0158192D01*
X0145369Y0158192D01*
X0145369Y0159204D02*
X0145369Y0161139D01*
X0144886Y0162150D02*
X0145369Y0162634D01*
X0145369Y0163601D01*
X0144886Y0164085D01*
X0142467Y0164085D01*
X0142467Y0165097D02*
X0145369Y0165097D01*
X0145369Y0167032D01*
X0143918Y0166064D02*
X0143918Y0165097D01*
X0142467Y0165097D02*
X0142467Y0167032D01*
X0142467Y0162150D02*
X0144886Y0162150D01*
X0145369Y0159204D02*
X0142467Y0159204D01*
X0143918Y0158192D02*
X0143918Y0156257D01*
X0143434Y0156257D02*
X0145369Y0156257D01*
X0133416Y0143988D02*
X0131481Y0143988D01*
X0131481Y0141085D01*
X0133416Y0141085D01*
X0132449Y0142536D02*
X0131481Y0142536D01*
X0130470Y0141569D02*
X0130470Y0143988D01*
X0128535Y0143988D02*
X0128535Y0141569D01*
X0129018Y0141085D01*
X0129986Y0141085D01*
X0130470Y0141569D01*
X0127523Y0141085D02*
X0125588Y0141085D01*
X0125588Y0143988D01*
X0124577Y0143020D02*
X0124577Y0141085D01*
X0124577Y0142536D02*
X0122642Y0142536D01*
X0122642Y0143020D02*
X0122642Y0141085D01*
X0121630Y0142053D02*
X0121630Y0143988D01*
X0122642Y0143020D02*
X0123609Y0143988D01*
X0124577Y0143020D01*
X0121630Y0142053D02*
X0120663Y0141085D01*
X0119695Y0142053D01*
X0119695Y0143988D01*
X0118684Y0142536D02*
X0116749Y0143988D01*
X0118684Y0142536D02*
X0116749Y0141085D01*
X0065369Y0170364D02*
X0063918Y0172299D01*
X0062467Y0170364D01*
X0062467Y0173311D02*
X0064402Y0173311D01*
X0065369Y0174278D01*
X0064402Y0175246D01*
X0062467Y0175246D01*
X0063434Y0176257D02*
X0062467Y0177225D01*
X0063434Y0178192D01*
X0065369Y0178192D01*
X0065369Y0179204D02*
X0065369Y0181139D01*
X0064886Y0182150D02*
X0065369Y0182634D01*
X0065369Y0183601D01*
X0064886Y0184085D01*
X0062467Y0184085D01*
X0062467Y0185097D02*
X0065369Y0185097D01*
X0065369Y0187032D01*
X0063918Y0186064D02*
X0063918Y0185097D01*
X0062467Y0185097D02*
X0062467Y0187032D01*
X0062467Y0182150D02*
X0064886Y0182150D01*
X0065369Y0179204D02*
X0062467Y0179204D01*
X0063918Y0178192D02*
X0063918Y0176257D01*
X0063434Y0176257D02*
X0065369Y0176257D01*
X0026418Y0086461D02*
X0026418Y0083992D01*
X0025183Y0085226D02*
X0027652Y0085226D01*
X0432069Y0200599D02*
X0432069Y0203068D01*
X0435773Y0203068D01*
X0435773Y0200599D01*
X0433921Y0201834D02*
X0433921Y0203068D01*
X0435773Y0204283D02*
X0432069Y0204283D01*
X0432069Y0206751D02*
X0435773Y0206751D01*
X0434538Y0205517D01*
X0435773Y0204283D01*
X0434538Y0207966D02*
X0432069Y0207966D01*
X0433921Y0207966D02*
X0433921Y0210435D01*
X0434538Y0210435D02*
X0435773Y0209200D01*
X0434538Y0207966D01*
X0434538Y0210435D02*
X0432069Y0210435D01*
X0432069Y0211649D02*
X0435773Y0211649D01*
X0435773Y0214118D02*
X0432069Y0211649D01*
X0432069Y0214118D02*
X0435773Y0214118D01*
X0433921Y0215332D02*
X0432069Y0217801D01*
X0433921Y0215332D02*
X0435773Y0217801D01*
D15*
X0344919Y0092535D03*
X0342919Y0092535D03*
X0284919Y0092535D03*
X0282919Y0092535D03*
X0114919Y0082535D03*
X0112919Y0082535D03*
X0084919Y0082535D03*
X0082919Y0082535D03*
D16*
X0063919Y0101535D03*
X0063919Y0103535D03*
X0133919Y0103535D03*
X0133919Y0101535D03*
D17*
X0126045Y0068456D02*
X0161793Y0068456D01*
X0161793Y0042968D01*
X0126045Y0042968D01*
X0126045Y0068456D01*
X0111793Y0058456D02*
X0076045Y0058456D01*
X0076045Y0042968D01*
X0076045Y0035094D01*
X0080376Y0035094D01*
X0080376Y0042574D01*
X0076045Y0042968D02*
X0111793Y0042968D01*
X0111793Y0058456D01*
X0111793Y0045842D02*
X0076045Y0045842D01*
X0088034Y0042574D02*
X0088034Y0028559D01*
X0090002Y0027378D01*
X0097837Y0027378D01*
X0099805Y0028559D01*
X0099805Y0042574D01*
X0099412Y0041787D02*
X0088427Y0039720D01*
X0088427Y0037752D02*
X0099412Y0039819D01*
X0099412Y0037850D02*
X0088427Y0035783D01*
X0088427Y0033815D02*
X0099412Y0035881D01*
X0099412Y0033913D02*
X0088427Y0031846D01*
X0088427Y0029878D02*
X0099412Y0031944D01*
X0099412Y0030133D02*
X0089313Y0028067D01*
X0090002Y0027378D02*
X0090002Y0013598D01*
X0097837Y0013598D01*
X0097837Y0027378D01*
X0126045Y0035094D02*
X0126045Y0042968D01*
X0126045Y0045842D02*
X0161793Y0045842D01*
X0166045Y0045094D02*
X0166045Y0052968D01*
X0166045Y0068456D01*
X0201793Y0068456D01*
X0201793Y0052968D01*
X0166045Y0052968D01*
X0166045Y0055842D02*
X0201793Y0055842D01*
X0189805Y0052574D02*
X0189805Y0038559D01*
X0187837Y0037378D01*
X0180002Y0037378D01*
X0178034Y0038559D01*
X0178034Y0052574D01*
X0178427Y0049720D02*
X0189412Y0051787D01*
X0189412Y0049819D02*
X0178427Y0047752D01*
X0178427Y0045783D02*
X0189412Y0047850D01*
X0189412Y0045881D02*
X0178427Y0043815D01*
X0178427Y0041846D02*
X0189412Y0043913D01*
X0189412Y0041944D02*
X0178427Y0039878D01*
X0179313Y0038067D02*
X0189412Y0040133D01*
X0187837Y0037378D02*
X0187837Y0023598D01*
X0180002Y0023598D01*
X0180002Y0037378D01*
X0170376Y0045094D02*
X0166045Y0045094D01*
X0170376Y0045094D02*
X0170376Y0052574D01*
X0149805Y0042574D02*
X0149805Y0028559D01*
X0147837Y0027378D01*
X0140002Y0027378D01*
X0138034Y0028559D01*
X0138034Y0042574D01*
X0138427Y0039720D02*
X0149412Y0041787D01*
X0149412Y0039819D02*
X0138427Y0037752D01*
X0138427Y0035783D02*
X0149412Y0037850D01*
X0149412Y0035881D02*
X0138427Y0033815D01*
X0138427Y0031846D02*
X0149412Y0033913D01*
X0149412Y0031944D02*
X0138427Y0029878D01*
X0139313Y0028067D02*
X0149412Y0030133D01*
X0147837Y0027378D02*
X0147837Y0013598D01*
X0140002Y0013598D01*
X0140002Y0027378D01*
X0130376Y0035094D02*
X0126045Y0035094D01*
X0130376Y0035094D02*
X0130376Y0042574D01*
X0246045Y0042968D02*
X0246045Y0035094D01*
X0250376Y0035094D01*
X0250376Y0042574D01*
X0246045Y0042968D02*
X0246045Y0068456D01*
X0281793Y0068456D01*
X0281793Y0042968D01*
X0246045Y0042968D01*
X0246045Y0045842D02*
X0281793Y0045842D01*
X0286045Y0047968D02*
X0286045Y0063456D01*
X0321793Y0063456D01*
X0321793Y0047968D01*
X0286045Y0047968D01*
X0286045Y0040094D01*
X0290376Y0040094D01*
X0290376Y0047574D01*
X0286045Y0050842D02*
X0321793Y0050842D01*
X0309805Y0047574D02*
X0309805Y0033559D01*
X0307837Y0032378D01*
X0300002Y0032378D01*
X0298034Y0033559D01*
X0298034Y0047574D01*
X0298427Y0044720D02*
X0309412Y0046787D01*
X0309412Y0044819D02*
X0298427Y0042752D01*
X0298427Y0040783D02*
X0309412Y0042850D01*
X0309412Y0040881D02*
X0298427Y0038815D01*
X0298427Y0036846D02*
X0309412Y0038913D01*
X0309412Y0036944D02*
X0298427Y0034878D01*
X0299313Y0033067D02*
X0309412Y0035133D01*
X0307837Y0032378D02*
X0307837Y0018598D01*
X0300002Y0018598D01*
X0300002Y0032378D01*
X0269805Y0028559D02*
X0267837Y0027378D01*
X0260002Y0027378D01*
X0258034Y0028559D01*
X0258034Y0042574D01*
X0258427Y0039720D02*
X0269412Y0041787D01*
X0269805Y0042574D02*
X0269805Y0028559D01*
X0269412Y0030133D02*
X0259313Y0028067D01*
X0260002Y0027378D02*
X0260002Y0013598D01*
X0267837Y0013598D01*
X0267837Y0027378D01*
X0269412Y0031944D02*
X0258427Y0029878D01*
X0258427Y0031846D02*
X0269412Y0033913D01*
X0269412Y0035881D02*
X0258427Y0033815D01*
X0258427Y0035783D02*
X0269412Y0037850D01*
X0269412Y0039819D02*
X0258427Y0037752D01*
X0335730Y0045409D02*
X0335730Y0053283D01*
X0335730Y0056157D01*
X0335730Y0068771D01*
X0401478Y0068771D01*
X0401478Y0056157D01*
X0401478Y0053283D01*
X0335730Y0053283D01*
X0340061Y0052889D02*
X0340061Y0045409D01*
X0335730Y0045409D01*
X0335730Y0056157D02*
X0401478Y0056157D01*
X0406045Y0058456D02*
X0441793Y0058456D01*
X0441793Y0042968D01*
X0406045Y0042968D01*
X0406045Y0058456D01*
X0406045Y0045842D02*
X0441793Y0045842D01*
X0429805Y0042574D02*
X0429805Y0028559D01*
X0427837Y0027378D01*
X0420002Y0027378D01*
X0418034Y0028559D01*
X0418034Y0042574D01*
X0418427Y0039720D02*
X0429412Y0041787D01*
X0429412Y0039819D02*
X0418427Y0037752D01*
X0418427Y0035783D02*
X0429412Y0037850D01*
X0429412Y0035881D02*
X0418427Y0033815D01*
X0418427Y0031846D02*
X0429412Y0033913D01*
X0429412Y0031944D02*
X0418427Y0029878D01*
X0419313Y0028067D02*
X0429412Y0030133D01*
X0427837Y0027378D02*
X0427837Y0013598D01*
X0420002Y0013598D01*
X0420002Y0027378D01*
X0410376Y0035094D02*
X0406045Y0035094D01*
X0406045Y0042968D01*
X0410376Y0042574D02*
X0410376Y0035094D01*
D18*
X0234669Y0102535D03*
X0234669Y0102535D03*
X0213169Y0102535D03*
X0213169Y0102535D03*
D19*
X0263919Y0111785D03*
X0263919Y0111785D03*
X0263919Y0133285D03*
X0263919Y0133285D03*
X0143919Y0143285D03*
X0143919Y0143285D03*
X0143919Y0121785D03*
X0143919Y0121785D03*
X0063919Y0141785D03*
X0063919Y0141785D03*
X0063919Y0163285D03*
X0063919Y0163285D03*
D20*
X0218919Y0067535D02*
X0218919Y0047535D01*
X0228919Y0047535D01*
X0228919Y0067535D01*
X0218919Y0067535D01*
X0343604Y0062850D02*
X0343604Y0024100D01*
X0356104Y0024100D01*
X0356104Y0021600D01*
X0371104Y0021600D01*
X0371104Y0024100D01*
X0383604Y0024100D01*
X0383604Y0062850D01*
X0393604Y0062850D02*
X0393604Y0014100D01*
X0368604Y0014100D01*
X0361104Y0031600D01*
X0361128Y0028815D01*
X0361115Y0028775D02*
X0363087Y0029915D01*
X0361139Y0031554D01*
X0361508Y0031196D02*
X0361508Y0029243D01*
X0361888Y0029480D02*
X0361888Y0030792D01*
X0362292Y0030388D02*
X0362292Y0029741D01*
X0362720Y0030032D02*
X0362815Y0029955D01*
X0356104Y0026600D02*
X0371104Y0026600D01*
X0371104Y0024100D01*
X0356104Y0024100D02*
X0356104Y0026600D01*
X0353919Y0042850D02*
X0353919Y0062535D01*
X0363919Y0062535D02*
X0366419Y0057535D01*
X0366419Y0046600D01*
X0038919Y0037535D02*
X0038919Y0057535D01*
X0028919Y0057535D01*
X0028919Y0037535D01*
X0038919Y0037535D01*
M02*
