%
M48
M72
T01C0.02362
T02C0.03150
T03C0.03543
T04C0.04331
%
T01
X7391Y1798
X7391Y3798
X7391Y4798
X12391Y5798
X13391Y5798
X7391Y8798
X5391Y8798
X12391Y9798
X14391Y9798
X17391Y10798
X14391Y12798
X13391Y12798
X17391Y13798
X27391Y12798
X27391Y10798
X30391Y9798
X30391Y2798
X5391Y13798
T02
X8391Y9798
X8391Y8798
X8391Y7798
X8391Y6798
X8391Y5798
X8391Y4798
X8391Y3798
X11391Y3798
X11391Y4798
X11391Y5798
X11391Y6798
X11391Y7798
X11391Y8798
X11391Y9798
X26391Y9798
X26391Y8798
X26391Y7798
X26391Y6798
X26391Y5798
X26391Y4798
X26391Y3798
X29391Y3798
X29391Y4798
X29391Y5798
X29391Y6798
X29391Y7798
X29391Y8798
X29391Y9798
T03
X3391Y1798
X4391Y1798
X6391Y1798
X3391Y2798
X4391Y3798
X6391Y3798
X6391Y4798
X4391Y4798
X6391Y5798
X4391Y6798
X12391Y3798
X13391Y3798
X15391Y3798
X13391Y4798
X17391Y5798
X19391Y5798
X19391Y6798
X20391Y6798
X22391Y6798
X23391Y6798
X23391Y7798
X21391Y7798
X19391Y7798
X19391Y8798
X17391Y8798
X15391Y9798
X19391Y9798
X20391Y9798
X22391Y9798
X23391Y9798
X23391Y10798
X21391Y10798
X19391Y10798
X23391Y8798
X28391Y10798
X30391Y10798
X30391Y11798
X32391Y11798
X35391Y12798
X35391Y13798
X32391Y13798
X31391Y13798
X30391Y13798
X32391Y8798
X31391Y7798
X33391Y7798
X32391Y6798
X31391Y5798
X33391Y5798
X32391Y4798
X31391Y3798
X33391Y3798
X35391Y4798
X35391Y6798
X35391Y8798
X23391Y5798
X23391Y4798
X21391Y4798
X19391Y4798
X19391Y3798
X20391Y3798
X22391Y3798
X23391Y3798
X23391Y2798
X19391Y2798
X17391Y2798
X12391Y1798
X15391Y6798
T04
X4391Y8798
X3391Y8798
X3391Y9798
X4391Y9798
X4391Y10798
X3391Y10798
X3391Y11798
X4391Y11798
X4391Y12798
X3391Y12798
X3391Y13798
X4391Y13798
M30
