G75*
%MOIN*%
%OFA0B0*%
%FSLAX25Y25*%
%IPPOS*%
%LPD*%
%AMOC8*
5,1,8,0,0,1.08239X$1,22.5*
%
%ADD10C,0.07800*%
%ADD11R,0.04762X0.04762*%
D10*
X0033919Y0042535D03*
X0033919Y0052535D03*
X0083919Y0052535D03*
X0093919Y0052535D03*
X0103919Y0052535D03*
X0133919Y0052535D03*
X0143919Y0052535D03*
X0153919Y0052535D03*
X0153919Y0062535D03*
X0143919Y0062220D03*
X0133919Y0062535D03*
X0123919Y0082535D03*
X0133919Y0092535D03*
X0153919Y0082535D03*
X0173919Y0082535D03*
X0183919Y0082535D03*
X0183919Y0092535D03*
X0203919Y0092535D03*
X0203919Y0082535D03*
X0203919Y0102535D03*
X0213919Y0112535D03*
X0213919Y0122535D03*
X0213919Y0132535D03*
X0213919Y0142535D03*
X0213919Y0152535D03*
X0213919Y0162535D03*
X0213919Y0172535D03*
X0183919Y0172535D03*
X0183919Y0162535D03*
X0183919Y0152535D03*
X0183919Y0142535D03*
X0183919Y0132535D03*
X0183919Y0122535D03*
X0183919Y0112535D03*
X0143919Y0112535D03*
X0133919Y0112535D03*
X0113919Y0112535D03*
X0113919Y0122535D03*
X0113919Y0132535D03*
X0113919Y0142535D03*
X0113919Y0152535D03*
X0113919Y0162535D03*
X0113919Y0172535D03*
X0083919Y0172535D03*
X0083919Y0162535D03*
X0083919Y0152535D03*
X0083919Y0142535D03*
X0083919Y0132535D03*
X0083919Y0122535D03*
X0083919Y0112535D03*
X0063919Y0112535D03*
X0063919Y0132535D03*
X0063919Y0092535D03*
X0073919Y0082535D03*
X0093919Y0082535D03*
X0103919Y0082535D03*
X0173919Y0062535D03*
X0183919Y0062535D03*
X0193919Y0062535D03*
X0223919Y0062535D03*
X0223919Y0052535D03*
X0253919Y0052535D03*
X0263919Y0052535D03*
X0273919Y0052535D03*
X0273919Y0062535D03*
X0263919Y0062220D03*
X0253919Y0062535D03*
X0293919Y0057535D03*
X0303919Y0057535D03*
X0313919Y0057535D03*
X0343919Y0062535D03*
X0353919Y0062535D03*
X0363919Y0062535D03*
X0373919Y0062535D03*
X0383919Y0062535D03*
X0393919Y0062535D03*
X0413919Y0052535D03*
X0423919Y0052535D03*
X0433919Y0052535D03*
X0353919Y0092535D03*
X0333919Y0092535D03*
X0303919Y0102535D03*
X0293919Y0092535D03*
X0283919Y0102535D03*
X0273919Y0092535D03*
X0263919Y0102535D03*
X0243919Y0102535D03*
X0283919Y0122535D03*
X0303919Y0122535D03*
X0303919Y0142535D03*
X0273919Y0152535D03*
X0263919Y0142535D03*
X0253919Y0142535D03*
X0253919Y0152535D03*
X0233919Y0142535D03*
X0303919Y0162535D03*
X0413919Y0162535D03*
X0423919Y0162535D03*
X0423919Y0152535D03*
X0413919Y0152535D03*
X0413919Y0172535D03*
X0423919Y0172535D03*
X0423919Y0182535D03*
X0413919Y0182535D03*
X0413919Y0192535D03*
X0423919Y0192535D03*
X0423919Y0202535D03*
X0413919Y0202535D03*
X0143919Y0152535D03*
X0063919Y0172535D03*
D11*
X0053919Y0162535D03*
X0073919Y0142535D03*
X0073919Y0142535D03*
X0043919Y0132535D03*
X0053919Y0112535D03*
X0123919Y0112535D03*
X0173919Y0092535D03*
X0193919Y0072535D03*
X0163919Y0062535D03*
X0143919Y0072535D03*
X0123919Y0072535D03*
X0103919Y0072535D03*
X0063919Y0072535D03*
X0163919Y0042535D03*
X0253919Y0082535D03*
X0293919Y0082535D03*
X0303919Y0072535D03*
X0333919Y0082535D03*
X0343919Y0082535D03*
X0363919Y0092535D03*
X0383919Y0092535D03*
X0393919Y0082535D03*
X0413919Y0102535D03*
X0373919Y0127535D03*
X0343919Y0132535D03*
X0333919Y0102535D03*
X0293919Y0132535D03*
X0253919Y0122535D03*
X0173919Y0142535D03*
X0123919Y0152535D03*
X0123919Y0172535D03*
X0123919Y0172535D03*
X0123919Y0202535D03*
X0123919Y0202535D03*
X0073919Y0202535D03*
X0043919Y0192535D03*
X0233919Y0202535D03*
X0233919Y0172535D03*
X0373919Y0162535D03*
M02*
