G75*
%MOIN*%
%OFA0B0*%
%FSLAX25Y25*%
%IPPOS*%
%LPD*%
%AMOC8*
5,1,8,0,0,1.08239X$1,22.5*
%
%ADD10C,0.00600*%
%ADD11C,0.01200*%
%ADD12C,0.00200*%
%ADD13C,0.00400*%
%ADD14C,0.00300*%
%ADD15R,0.01000X0.04000*%
%ADD16R,0.04000X0.01000*%
%ADD17C,0.00500*%
%ADD18C,0.02000*%
%ADD19R,0.01500X0.01000*%
%ADD20R,0.01500X0.02000*%
D10*
X0087419Y0032987D02*
X0110419Y0032987D01*
X0110419Y0102987D01*
X0102919Y0102987D01*
X0102917Y0102861D01*
X0102911Y0102736D01*
X0102901Y0102611D01*
X0102887Y0102486D01*
X0102870Y0102361D01*
X0102848Y0102237D01*
X0102823Y0102114D01*
X0102793Y0101992D01*
X0102760Y0101871D01*
X0102723Y0101751D01*
X0102683Y0101632D01*
X0102638Y0101515D01*
X0102590Y0101398D01*
X0102538Y0101284D01*
X0102483Y0101171D01*
X0102424Y0101060D01*
X0102362Y0100951D01*
X0102296Y0100844D01*
X0102227Y0100739D01*
X0102155Y0100636D01*
X0102080Y0100535D01*
X0102001Y0100437D01*
X0101919Y0100342D01*
X0101835Y0100249D01*
X0101747Y0100159D01*
X0101657Y0100071D01*
X0101564Y0099987D01*
X0101469Y0099905D01*
X0101371Y0099826D01*
X0101270Y0099751D01*
X0101167Y0099679D01*
X0101062Y0099610D01*
X0100955Y0099544D01*
X0100846Y0099482D01*
X0100735Y0099423D01*
X0100622Y0099368D01*
X0100508Y0099316D01*
X0100391Y0099268D01*
X0100274Y0099223D01*
X0100155Y0099183D01*
X0100035Y0099146D01*
X0099914Y0099113D01*
X0099792Y0099083D01*
X0099669Y0099058D01*
X0099545Y0099036D01*
X0099420Y0099019D01*
X0099295Y0099005D01*
X0099170Y0098995D01*
X0099045Y0098989D01*
X0098919Y0098987D01*
X0098793Y0098989D01*
X0098668Y0098995D01*
X0098543Y0099005D01*
X0098418Y0099019D01*
X0098293Y0099036D01*
X0098169Y0099058D01*
X0098046Y0099083D01*
X0097924Y0099113D01*
X0097803Y0099146D01*
X0097683Y0099183D01*
X0097564Y0099223D01*
X0097447Y0099268D01*
X0097330Y0099316D01*
X0097216Y0099368D01*
X0097103Y0099423D01*
X0096992Y0099482D01*
X0096883Y0099544D01*
X0096776Y0099610D01*
X0096671Y0099679D01*
X0096568Y0099751D01*
X0096467Y0099826D01*
X0096369Y0099905D01*
X0096274Y0099987D01*
X0096181Y0100071D01*
X0096091Y0100159D01*
X0096003Y0100249D01*
X0095919Y0100342D01*
X0095837Y0100437D01*
X0095758Y0100535D01*
X0095683Y0100636D01*
X0095611Y0100739D01*
X0095542Y0100844D01*
X0095476Y0100951D01*
X0095414Y0101060D01*
X0095355Y0101171D01*
X0095300Y0101284D01*
X0095248Y0101398D01*
X0095200Y0101515D01*
X0095155Y0101632D01*
X0095115Y0101751D01*
X0095078Y0101871D01*
X0095045Y0101992D01*
X0095015Y0102114D01*
X0094990Y0102237D01*
X0094968Y0102361D01*
X0094951Y0102486D01*
X0094937Y0102611D01*
X0094927Y0102736D01*
X0094921Y0102861D01*
X0094919Y0102987D01*
X0087419Y0102987D01*
X0087419Y0032987D01*
X0163919Y0034987D02*
X0163919Y0040987D01*
X0163921Y0041047D01*
X0163926Y0041108D01*
X0163935Y0041167D01*
X0163948Y0041226D01*
X0163964Y0041285D01*
X0163984Y0041342D01*
X0164007Y0041397D01*
X0164034Y0041452D01*
X0164063Y0041504D01*
X0164096Y0041555D01*
X0164132Y0041604D01*
X0164170Y0041650D01*
X0164212Y0041694D01*
X0164256Y0041736D01*
X0164302Y0041774D01*
X0164351Y0041810D01*
X0164402Y0041843D01*
X0164454Y0041872D01*
X0164509Y0041899D01*
X0164564Y0041922D01*
X0164621Y0041942D01*
X0164680Y0041958D01*
X0164739Y0041971D01*
X0164798Y0041980D01*
X0164859Y0041985D01*
X0164919Y0041987D01*
X0166419Y0041987D01*
X0166919Y0041487D01*
X0180919Y0041487D01*
X0181419Y0041987D01*
X0182919Y0041987D01*
X0182979Y0041985D01*
X0183040Y0041980D01*
X0183099Y0041971D01*
X0183158Y0041958D01*
X0183217Y0041942D01*
X0183274Y0041922D01*
X0183329Y0041899D01*
X0183384Y0041872D01*
X0183436Y0041843D01*
X0183487Y0041810D01*
X0183536Y0041774D01*
X0183582Y0041736D01*
X0183626Y0041694D01*
X0183668Y0041650D01*
X0183706Y0041604D01*
X0183742Y0041555D01*
X0183775Y0041504D01*
X0183804Y0041452D01*
X0183831Y0041397D01*
X0183854Y0041342D01*
X0183874Y0041285D01*
X0183890Y0041226D01*
X0183903Y0041167D01*
X0183912Y0041108D01*
X0183917Y0041047D01*
X0183919Y0040987D01*
X0183919Y0034987D01*
X0183917Y0034927D01*
X0183912Y0034866D01*
X0183903Y0034807D01*
X0183890Y0034748D01*
X0183874Y0034689D01*
X0183854Y0034632D01*
X0183831Y0034577D01*
X0183804Y0034522D01*
X0183775Y0034470D01*
X0183742Y0034419D01*
X0183706Y0034370D01*
X0183668Y0034324D01*
X0183626Y0034280D01*
X0183582Y0034238D01*
X0183536Y0034200D01*
X0183487Y0034164D01*
X0183436Y0034131D01*
X0183384Y0034102D01*
X0183329Y0034075D01*
X0183274Y0034052D01*
X0183217Y0034032D01*
X0183158Y0034016D01*
X0183099Y0034003D01*
X0183040Y0033994D01*
X0182979Y0033989D01*
X0182919Y0033987D01*
X0181419Y0033987D01*
X0180919Y0034487D01*
X0166919Y0034487D01*
X0166419Y0033987D01*
X0164919Y0033987D01*
X0164859Y0033989D01*
X0164798Y0033994D01*
X0164739Y0034003D01*
X0164680Y0034016D01*
X0164621Y0034032D01*
X0164564Y0034052D01*
X0164509Y0034075D01*
X0164454Y0034102D01*
X0164402Y0034131D01*
X0164351Y0034164D01*
X0164302Y0034200D01*
X0164256Y0034238D01*
X0164212Y0034280D01*
X0164170Y0034324D01*
X0164132Y0034370D01*
X0164096Y0034419D01*
X0164063Y0034470D01*
X0164034Y0034522D01*
X0164007Y0034577D01*
X0163984Y0034632D01*
X0163964Y0034689D01*
X0163948Y0034748D01*
X0163935Y0034807D01*
X0163926Y0034866D01*
X0163921Y0034927D01*
X0163919Y0034987D01*
X0163921Y0034927D01*
X0163926Y0034866D01*
X0163935Y0034807D01*
X0163948Y0034748D01*
X0163964Y0034689D01*
X0163984Y0034632D01*
X0164007Y0034577D01*
X0164034Y0034522D01*
X0164063Y0034470D01*
X0164096Y0034419D01*
X0164132Y0034370D01*
X0164170Y0034324D01*
X0164212Y0034280D01*
X0164256Y0034238D01*
X0164302Y0034200D01*
X0164351Y0034164D01*
X0164402Y0034131D01*
X0164454Y0034102D01*
X0164509Y0034075D01*
X0164564Y0034052D01*
X0164621Y0034032D01*
X0164680Y0034016D01*
X0164739Y0034003D01*
X0164798Y0033994D01*
X0164859Y0033989D01*
X0164919Y0033987D01*
X0163919Y0040987D02*
X0163921Y0041047D01*
X0163926Y0041108D01*
X0163935Y0041167D01*
X0163948Y0041226D01*
X0163964Y0041285D01*
X0163984Y0041342D01*
X0164007Y0041397D01*
X0164034Y0041452D01*
X0164063Y0041504D01*
X0164096Y0041555D01*
X0164132Y0041604D01*
X0164170Y0041650D01*
X0164212Y0041694D01*
X0164256Y0041736D01*
X0164302Y0041774D01*
X0164351Y0041810D01*
X0164402Y0041843D01*
X0164454Y0041872D01*
X0164509Y0041899D01*
X0164564Y0041922D01*
X0164621Y0041942D01*
X0164680Y0041958D01*
X0164739Y0041971D01*
X0164798Y0041980D01*
X0164859Y0041985D01*
X0164919Y0041987D01*
X0182919Y0041987D02*
X0182979Y0041985D01*
X0183040Y0041980D01*
X0183099Y0041971D01*
X0183158Y0041958D01*
X0183217Y0041942D01*
X0183274Y0041922D01*
X0183329Y0041899D01*
X0183384Y0041872D01*
X0183436Y0041843D01*
X0183487Y0041810D01*
X0183536Y0041774D01*
X0183582Y0041736D01*
X0183626Y0041694D01*
X0183668Y0041650D01*
X0183706Y0041604D01*
X0183742Y0041555D01*
X0183775Y0041504D01*
X0183804Y0041452D01*
X0183831Y0041397D01*
X0183854Y0041342D01*
X0183874Y0041285D01*
X0183890Y0041226D01*
X0183903Y0041167D01*
X0183912Y0041108D01*
X0183917Y0041047D01*
X0183919Y0040987D01*
X0197419Y0043487D02*
X0210419Y0043487D01*
X0210506Y0043489D01*
X0210593Y0043495D01*
X0210680Y0043504D01*
X0210766Y0043517D01*
X0210852Y0043534D01*
X0210937Y0043555D01*
X0211020Y0043580D01*
X0211103Y0043608D01*
X0211184Y0043639D01*
X0211264Y0043674D01*
X0211342Y0043713D01*
X0211419Y0043755D01*
X0211494Y0043800D01*
X0211566Y0043849D01*
X0211637Y0043900D01*
X0211705Y0043955D01*
X0211770Y0044012D01*
X0211833Y0044073D01*
X0211894Y0044136D01*
X0211951Y0044201D01*
X0212006Y0044269D01*
X0212057Y0044340D01*
X0212106Y0044412D01*
X0212151Y0044487D01*
X0212193Y0044564D01*
X0212232Y0044642D01*
X0212267Y0044722D01*
X0212298Y0044803D01*
X0212326Y0044886D01*
X0212351Y0044969D01*
X0212372Y0045054D01*
X0212389Y0045140D01*
X0212402Y0045226D01*
X0212411Y0045313D01*
X0212417Y0045400D01*
X0212419Y0045487D01*
X0208919Y0047987D02*
X0205119Y0047987D01*
X0202619Y0047987D02*
X0198919Y0047987D01*
X0195419Y0045487D02*
X0195421Y0045400D01*
X0195427Y0045313D01*
X0195436Y0045226D01*
X0195449Y0045140D01*
X0195466Y0045054D01*
X0195487Y0044969D01*
X0195512Y0044886D01*
X0195540Y0044803D01*
X0195571Y0044722D01*
X0195606Y0044642D01*
X0195645Y0044564D01*
X0195687Y0044487D01*
X0195732Y0044412D01*
X0195781Y0044340D01*
X0195832Y0044269D01*
X0195887Y0044201D01*
X0195944Y0044136D01*
X0196005Y0044073D01*
X0196068Y0044012D01*
X0196133Y0043955D01*
X0196201Y0043900D01*
X0196272Y0043849D01*
X0196344Y0043800D01*
X0196419Y0043755D01*
X0196496Y0043713D01*
X0196574Y0043674D01*
X0196654Y0043639D01*
X0196735Y0043608D01*
X0196818Y0043580D01*
X0196901Y0043555D01*
X0196986Y0043534D01*
X0197072Y0043517D01*
X0197158Y0043504D01*
X0197245Y0043495D01*
X0197332Y0043489D01*
X0197419Y0043487D01*
X0207419Y0042487D02*
X0220419Y0042487D01*
X0220506Y0042485D01*
X0220593Y0042479D01*
X0220680Y0042470D01*
X0220766Y0042457D01*
X0220852Y0042440D01*
X0220937Y0042419D01*
X0221020Y0042394D01*
X0221103Y0042366D01*
X0221184Y0042335D01*
X0221264Y0042300D01*
X0221342Y0042261D01*
X0221419Y0042219D01*
X0221494Y0042174D01*
X0221566Y0042125D01*
X0221637Y0042074D01*
X0221705Y0042019D01*
X0221770Y0041962D01*
X0221833Y0041901D01*
X0221894Y0041838D01*
X0221951Y0041773D01*
X0222006Y0041705D01*
X0222057Y0041634D01*
X0222106Y0041562D01*
X0222151Y0041487D01*
X0222193Y0041410D01*
X0222232Y0041332D01*
X0222267Y0041252D01*
X0222298Y0041171D01*
X0222326Y0041088D01*
X0222351Y0041005D01*
X0222372Y0040920D01*
X0222389Y0040834D01*
X0222402Y0040748D01*
X0222411Y0040661D01*
X0222417Y0040574D01*
X0222419Y0040487D01*
X0218919Y0037987D02*
X0215219Y0037987D01*
X0212719Y0037987D02*
X0208919Y0037987D01*
X0205419Y0035487D02*
X0205421Y0035400D01*
X0205427Y0035313D01*
X0205436Y0035226D01*
X0205449Y0035140D01*
X0205466Y0035054D01*
X0205487Y0034969D01*
X0205512Y0034886D01*
X0205540Y0034803D01*
X0205571Y0034722D01*
X0205606Y0034642D01*
X0205645Y0034564D01*
X0205687Y0034487D01*
X0205732Y0034412D01*
X0205781Y0034340D01*
X0205832Y0034269D01*
X0205887Y0034201D01*
X0205944Y0034136D01*
X0206005Y0034073D01*
X0206068Y0034012D01*
X0206133Y0033955D01*
X0206201Y0033900D01*
X0206272Y0033849D01*
X0206344Y0033800D01*
X0206419Y0033755D01*
X0206496Y0033713D01*
X0206574Y0033674D01*
X0206654Y0033639D01*
X0206735Y0033608D01*
X0206818Y0033580D01*
X0206901Y0033555D01*
X0206986Y0033534D01*
X0207072Y0033517D01*
X0207158Y0033504D01*
X0207245Y0033495D01*
X0207332Y0033489D01*
X0207419Y0033487D01*
X0220419Y0033487D01*
X0220506Y0033489D01*
X0220593Y0033495D01*
X0220680Y0033504D01*
X0220766Y0033517D01*
X0220852Y0033534D01*
X0220937Y0033555D01*
X0221020Y0033580D01*
X0221103Y0033608D01*
X0221184Y0033639D01*
X0221264Y0033674D01*
X0221342Y0033713D01*
X0221419Y0033755D01*
X0221494Y0033800D01*
X0221566Y0033849D01*
X0221637Y0033900D01*
X0221705Y0033955D01*
X0221770Y0034012D01*
X0221833Y0034073D01*
X0221894Y0034136D01*
X0221951Y0034201D01*
X0222006Y0034269D01*
X0222057Y0034340D01*
X0222106Y0034412D01*
X0222151Y0034487D01*
X0222193Y0034564D01*
X0222232Y0034642D01*
X0222267Y0034722D01*
X0222298Y0034803D01*
X0222326Y0034886D01*
X0222351Y0034969D01*
X0222372Y0035054D01*
X0222389Y0035140D01*
X0222402Y0035226D01*
X0222411Y0035313D01*
X0222417Y0035400D01*
X0222419Y0035487D01*
X0207419Y0042487D02*
X0207332Y0042485D01*
X0207245Y0042479D01*
X0207158Y0042470D01*
X0207072Y0042457D01*
X0206986Y0042440D01*
X0206901Y0042419D01*
X0206818Y0042394D01*
X0206735Y0042366D01*
X0206654Y0042335D01*
X0206574Y0042300D01*
X0206496Y0042261D01*
X0206419Y0042219D01*
X0206344Y0042174D01*
X0206272Y0042125D01*
X0206201Y0042074D01*
X0206133Y0042019D01*
X0206068Y0041962D01*
X0206005Y0041901D01*
X0205944Y0041838D01*
X0205887Y0041773D01*
X0205832Y0041705D01*
X0205781Y0041634D01*
X0205732Y0041562D01*
X0205687Y0041487D01*
X0205645Y0041410D01*
X0205606Y0041332D01*
X0205571Y0041252D01*
X0205540Y0041171D01*
X0205512Y0041088D01*
X0205487Y0041005D01*
X0205466Y0040920D01*
X0205449Y0040834D01*
X0205436Y0040748D01*
X0205427Y0040661D01*
X0205421Y0040574D01*
X0205419Y0040487D01*
X0212419Y0050487D02*
X0212417Y0050574D01*
X0212411Y0050661D01*
X0212402Y0050748D01*
X0212389Y0050834D01*
X0212372Y0050920D01*
X0212351Y0051005D01*
X0212326Y0051088D01*
X0212298Y0051171D01*
X0212267Y0051252D01*
X0212232Y0051332D01*
X0212193Y0051410D01*
X0212151Y0051487D01*
X0212106Y0051562D01*
X0212057Y0051634D01*
X0212006Y0051705D01*
X0211951Y0051773D01*
X0211894Y0051838D01*
X0211833Y0051901D01*
X0211770Y0051962D01*
X0211705Y0052019D01*
X0211637Y0052074D01*
X0211566Y0052125D01*
X0211494Y0052174D01*
X0211419Y0052219D01*
X0211342Y0052261D01*
X0211264Y0052300D01*
X0211184Y0052335D01*
X0211103Y0052366D01*
X0211020Y0052394D01*
X0210937Y0052419D01*
X0210852Y0052440D01*
X0210766Y0052457D01*
X0210680Y0052470D01*
X0210593Y0052479D01*
X0210506Y0052485D01*
X0210419Y0052487D01*
X0197419Y0052487D01*
X0197332Y0052485D01*
X0197245Y0052479D01*
X0197158Y0052470D01*
X0197072Y0052457D01*
X0196986Y0052440D01*
X0196901Y0052419D01*
X0196818Y0052394D01*
X0196735Y0052366D01*
X0196654Y0052335D01*
X0196574Y0052300D01*
X0196496Y0052261D01*
X0196419Y0052219D01*
X0196344Y0052174D01*
X0196272Y0052125D01*
X0196201Y0052074D01*
X0196133Y0052019D01*
X0196068Y0051962D01*
X0196005Y0051901D01*
X0195944Y0051838D01*
X0195887Y0051773D01*
X0195832Y0051705D01*
X0195781Y0051634D01*
X0195732Y0051562D01*
X0195687Y0051487D01*
X0195645Y0051410D01*
X0195606Y0051332D01*
X0195571Y0051252D01*
X0195540Y0051171D01*
X0195512Y0051088D01*
X0195487Y0051005D01*
X0195466Y0050920D01*
X0195449Y0050834D01*
X0195436Y0050748D01*
X0195427Y0050661D01*
X0195421Y0050574D01*
X0195419Y0050487D01*
X0207419Y0063487D02*
X0220419Y0063487D01*
X0220506Y0063489D01*
X0220593Y0063495D01*
X0220680Y0063504D01*
X0220766Y0063517D01*
X0220852Y0063534D01*
X0220937Y0063555D01*
X0221020Y0063580D01*
X0221103Y0063608D01*
X0221184Y0063639D01*
X0221264Y0063674D01*
X0221342Y0063713D01*
X0221419Y0063755D01*
X0221494Y0063800D01*
X0221566Y0063849D01*
X0221637Y0063900D01*
X0221705Y0063955D01*
X0221770Y0064012D01*
X0221833Y0064073D01*
X0221894Y0064136D01*
X0221951Y0064201D01*
X0222006Y0064269D01*
X0222057Y0064340D01*
X0222106Y0064412D01*
X0222151Y0064487D01*
X0222193Y0064564D01*
X0222232Y0064642D01*
X0222267Y0064722D01*
X0222298Y0064803D01*
X0222326Y0064886D01*
X0222351Y0064969D01*
X0222372Y0065054D01*
X0222389Y0065140D01*
X0222402Y0065226D01*
X0222411Y0065313D01*
X0222417Y0065400D01*
X0222419Y0065487D01*
X0218919Y0067987D02*
X0215219Y0067987D01*
X0212719Y0067987D02*
X0208919Y0067987D01*
X0205419Y0065487D02*
X0205421Y0065400D01*
X0205427Y0065313D01*
X0205436Y0065226D01*
X0205449Y0065140D01*
X0205466Y0065054D01*
X0205487Y0064969D01*
X0205512Y0064886D01*
X0205540Y0064803D01*
X0205571Y0064722D01*
X0205606Y0064642D01*
X0205645Y0064564D01*
X0205687Y0064487D01*
X0205732Y0064412D01*
X0205781Y0064340D01*
X0205832Y0064269D01*
X0205887Y0064201D01*
X0205944Y0064136D01*
X0206005Y0064073D01*
X0206068Y0064012D01*
X0206133Y0063955D01*
X0206201Y0063900D01*
X0206272Y0063849D01*
X0206344Y0063800D01*
X0206419Y0063755D01*
X0206496Y0063713D01*
X0206574Y0063674D01*
X0206654Y0063639D01*
X0206735Y0063608D01*
X0206818Y0063580D01*
X0206901Y0063555D01*
X0206986Y0063534D01*
X0207072Y0063517D01*
X0207158Y0063504D01*
X0207245Y0063495D01*
X0207332Y0063489D01*
X0207419Y0063487D01*
X0205419Y0070487D02*
X0205421Y0070574D01*
X0205427Y0070661D01*
X0205436Y0070748D01*
X0205449Y0070834D01*
X0205466Y0070920D01*
X0205487Y0071005D01*
X0205512Y0071088D01*
X0205540Y0071171D01*
X0205571Y0071252D01*
X0205606Y0071332D01*
X0205645Y0071410D01*
X0205687Y0071487D01*
X0205732Y0071562D01*
X0205781Y0071634D01*
X0205832Y0071705D01*
X0205887Y0071773D01*
X0205944Y0071838D01*
X0206005Y0071901D01*
X0206068Y0071962D01*
X0206133Y0072019D01*
X0206201Y0072074D01*
X0206272Y0072125D01*
X0206344Y0072174D01*
X0206419Y0072219D01*
X0206496Y0072261D01*
X0206574Y0072300D01*
X0206654Y0072335D01*
X0206735Y0072366D01*
X0206818Y0072394D01*
X0206901Y0072419D01*
X0206986Y0072440D01*
X0207072Y0072457D01*
X0207158Y0072470D01*
X0207245Y0072479D01*
X0207332Y0072485D01*
X0207419Y0072487D01*
X0220419Y0072487D01*
X0220506Y0072485D01*
X0220593Y0072479D01*
X0220680Y0072470D01*
X0220766Y0072457D01*
X0220852Y0072440D01*
X0220937Y0072419D01*
X0221020Y0072394D01*
X0221103Y0072366D01*
X0221184Y0072335D01*
X0221264Y0072300D01*
X0221342Y0072261D01*
X0221419Y0072219D01*
X0221494Y0072174D01*
X0221566Y0072125D01*
X0221637Y0072074D01*
X0221705Y0072019D01*
X0221770Y0071962D01*
X0221833Y0071901D01*
X0221894Y0071838D01*
X0221951Y0071773D01*
X0222006Y0071705D01*
X0222057Y0071634D01*
X0222106Y0071562D01*
X0222151Y0071487D01*
X0222193Y0071410D01*
X0222232Y0071332D01*
X0222267Y0071252D01*
X0222298Y0071171D01*
X0222326Y0071088D01*
X0222351Y0071005D01*
X0222372Y0070920D01*
X0222389Y0070834D01*
X0222402Y0070748D01*
X0222411Y0070661D01*
X0222417Y0070574D01*
X0222419Y0070487D01*
X0210419Y0073487D02*
X0197419Y0073487D01*
X0197332Y0073489D01*
X0197245Y0073495D01*
X0197158Y0073504D01*
X0197072Y0073517D01*
X0196986Y0073534D01*
X0196901Y0073555D01*
X0196818Y0073580D01*
X0196735Y0073608D01*
X0196654Y0073639D01*
X0196574Y0073674D01*
X0196496Y0073713D01*
X0196419Y0073755D01*
X0196344Y0073800D01*
X0196272Y0073849D01*
X0196201Y0073900D01*
X0196133Y0073955D01*
X0196068Y0074012D01*
X0196005Y0074073D01*
X0195944Y0074136D01*
X0195887Y0074201D01*
X0195832Y0074269D01*
X0195781Y0074340D01*
X0195732Y0074412D01*
X0195687Y0074487D01*
X0195645Y0074564D01*
X0195606Y0074642D01*
X0195571Y0074722D01*
X0195540Y0074803D01*
X0195512Y0074886D01*
X0195487Y0074969D01*
X0195466Y0075054D01*
X0195449Y0075140D01*
X0195436Y0075226D01*
X0195427Y0075313D01*
X0195421Y0075400D01*
X0195419Y0075487D01*
X0198919Y0077987D02*
X0202619Y0077987D01*
X0205119Y0077987D02*
X0208919Y0077987D01*
X0212419Y0075487D02*
X0212417Y0075400D01*
X0212411Y0075313D01*
X0212402Y0075226D01*
X0212389Y0075140D01*
X0212372Y0075054D01*
X0212351Y0074969D01*
X0212326Y0074886D01*
X0212298Y0074803D01*
X0212267Y0074722D01*
X0212232Y0074642D01*
X0212193Y0074564D01*
X0212151Y0074487D01*
X0212106Y0074412D01*
X0212057Y0074340D01*
X0212006Y0074269D01*
X0211951Y0074201D01*
X0211894Y0074136D01*
X0211833Y0074073D01*
X0211770Y0074012D01*
X0211705Y0073955D01*
X0211637Y0073900D01*
X0211566Y0073849D01*
X0211494Y0073800D01*
X0211419Y0073755D01*
X0211342Y0073713D01*
X0211264Y0073674D01*
X0211184Y0073639D01*
X0211103Y0073608D01*
X0211020Y0073580D01*
X0210937Y0073555D01*
X0210852Y0073534D01*
X0210766Y0073517D01*
X0210680Y0073504D01*
X0210593Y0073495D01*
X0210506Y0073489D01*
X0210419Y0073487D01*
X0212419Y0080487D02*
X0212417Y0080574D01*
X0212411Y0080661D01*
X0212402Y0080748D01*
X0212389Y0080834D01*
X0212372Y0080920D01*
X0212351Y0081005D01*
X0212326Y0081088D01*
X0212298Y0081171D01*
X0212267Y0081252D01*
X0212232Y0081332D01*
X0212193Y0081410D01*
X0212151Y0081487D01*
X0212106Y0081562D01*
X0212057Y0081634D01*
X0212006Y0081705D01*
X0211951Y0081773D01*
X0211894Y0081838D01*
X0211833Y0081901D01*
X0211770Y0081962D01*
X0211705Y0082019D01*
X0211637Y0082074D01*
X0211566Y0082125D01*
X0211494Y0082174D01*
X0211419Y0082219D01*
X0211342Y0082261D01*
X0211264Y0082300D01*
X0211184Y0082335D01*
X0211103Y0082366D01*
X0211020Y0082394D01*
X0210937Y0082419D01*
X0210852Y0082440D01*
X0210766Y0082457D01*
X0210680Y0082470D01*
X0210593Y0082479D01*
X0210506Y0082485D01*
X0210419Y0082487D01*
X0197419Y0082487D01*
X0197332Y0082485D01*
X0197245Y0082479D01*
X0197158Y0082470D01*
X0197072Y0082457D01*
X0196986Y0082440D01*
X0196901Y0082419D01*
X0196818Y0082394D01*
X0196735Y0082366D01*
X0196654Y0082335D01*
X0196574Y0082300D01*
X0196496Y0082261D01*
X0196419Y0082219D01*
X0196344Y0082174D01*
X0196272Y0082125D01*
X0196201Y0082074D01*
X0196133Y0082019D01*
X0196068Y0081962D01*
X0196005Y0081901D01*
X0195944Y0081838D01*
X0195887Y0081773D01*
X0195832Y0081705D01*
X0195781Y0081634D01*
X0195732Y0081562D01*
X0195687Y0081487D01*
X0195645Y0081410D01*
X0195606Y0081332D01*
X0195571Y0081252D01*
X0195540Y0081171D01*
X0195512Y0081088D01*
X0195487Y0081005D01*
X0195466Y0080920D01*
X0195449Y0080834D01*
X0195436Y0080748D01*
X0195427Y0080661D01*
X0195421Y0080574D01*
X0195419Y0080487D01*
X0182919Y0071987D02*
X0181419Y0071987D01*
X0180919Y0071487D01*
X0166919Y0071487D01*
X0166419Y0071987D01*
X0164919Y0071987D01*
X0164859Y0071985D01*
X0164798Y0071980D01*
X0164739Y0071971D01*
X0164680Y0071958D01*
X0164621Y0071942D01*
X0164564Y0071922D01*
X0164509Y0071899D01*
X0164454Y0071872D01*
X0164402Y0071843D01*
X0164351Y0071810D01*
X0164302Y0071774D01*
X0164256Y0071736D01*
X0164212Y0071694D01*
X0164170Y0071650D01*
X0164132Y0071604D01*
X0164096Y0071555D01*
X0164063Y0071504D01*
X0164034Y0071452D01*
X0164007Y0071397D01*
X0163984Y0071342D01*
X0163964Y0071285D01*
X0163948Y0071226D01*
X0163935Y0071167D01*
X0163926Y0071108D01*
X0163921Y0071047D01*
X0163919Y0070987D01*
X0163919Y0064987D01*
X0163921Y0064927D01*
X0163926Y0064866D01*
X0163935Y0064807D01*
X0163948Y0064748D01*
X0163964Y0064689D01*
X0163984Y0064632D01*
X0164007Y0064577D01*
X0164034Y0064522D01*
X0164063Y0064470D01*
X0164096Y0064419D01*
X0164132Y0064370D01*
X0164170Y0064324D01*
X0164212Y0064280D01*
X0164256Y0064238D01*
X0164302Y0064200D01*
X0164351Y0064164D01*
X0164402Y0064131D01*
X0164454Y0064102D01*
X0164509Y0064075D01*
X0164564Y0064052D01*
X0164621Y0064032D01*
X0164680Y0064016D01*
X0164739Y0064003D01*
X0164798Y0063994D01*
X0164859Y0063989D01*
X0164919Y0063987D01*
X0166419Y0063987D01*
X0166919Y0064487D01*
X0180919Y0064487D01*
X0181419Y0063987D01*
X0182919Y0063987D01*
X0182979Y0063989D01*
X0183040Y0063994D01*
X0183099Y0064003D01*
X0183158Y0064016D01*
X0183217Y0064032D01*
X0183274Y0064052D01*
X0183329Y0064075D01*
X0183384Y0064102D01*
X0183436Y0064131D01*
X0183487Y0064164D01*
X0183536Y0064200D01*
X0183582Y0064238D01*
X0183626Y0064280D01*
X0183668Y0064324D01*
X0183706Y0064370D01*
X0183742Y0064419D01*
X0183775Y0064470D01*
X0183804Y0064522D01*
X0183831Y0064577D01*
X0183854Y0064632D01*
X0183874Y0064689D01*
X0183890Y0064748D01*
X0183903Y0064807D01*
X0183912Y0064866D01*
X0183917Y0064927D01*
X0183919Y0064987D01*
X0183919Y0070987D01*
X0183917Y0071047D01*
X0183912Y0071108D01*
X0183903Y0071167D01*
X0183890Y0071226D01*
X0183874Y0071285D01*
X0183854Y0071342D01*
X0183831Y0071397D01*
X0183804Y0071452D01*
X0183775Y0071504D01*
X0183742Y0071555D01*
X0183706Y0071604D01*
X0183668Y0071650D01*
X0183626Y0071694D01*
X0183582Y0071736D01*
X0183536Y0071774D01*
X0183487Y0071810D01*
X0183436Y0071843D01*
X0183384Y0071872D01*
X0183329Y0071899D01*
X0183274Y0071922D01*
X0183217Y0071942D01*
X0183158Y0071958D01*
X0183099Y0071971D01*
X0183040Y0071980D01*
X0182979Y0071985D01*
X0182919Y0071987D01*
X0182979Y0071985D01*
X0183040Y0071980D01*
X0183099Y0071971D01*
X0183158Y0071958D01*
X0183217Y0071942D01*
X0183274Y0071922D01*
X0183329Y0071899D01*
X0183384Y0071872D01*
X0183436Y0071843D01*
X0183487Y0071810D01*
X0183536Y0071774D01*
X0183582Y0071736D01*
X0183626Y0071694D01*
X0183668Y0071650D01*
X0183706Y0071604D01*
X0183742Y0071555D01*
X0183775Y0071504D01*
X0183804Y0071452D01*
X0183831Y0071397D01*
X0183854Y0071342D01*
X0183874Y0071285D01*
X0183890Y0071226D01*
X0183903Y0071167D01*
X0183912Y0071108D01*
X0183917Y0071047D01*
X0183919Y0070987D01*
X0183919Y0064987D02*
X0183917Y0064927D01*
X0183912Y0064866D01*
X0183903Y0064807D01*
X0183890Y0064748D01*
X0183874Y0064689D01*
X0183854Y0064632D01*
X0183831Y0064577D01*
X0183804Y0064522D01*
X0183775Y0064470D01*
X0183742Y0064419D01*
X0183706Y0064370D01*
X0183668Y0064324D01*
X0183626Y0064280D01*
X0183582Y0064238D01*
X0183536Y0064200D01*
X0183487Y0064164D01*
X0183436Y0064131D01*
X0183384Y0064102D01*
X0183329Y0064075D01*
X0183274Y0064052D01*
X0183217Y0064032D01*
X0183158Y0064016D01*
X0183099Y0064003D01*
X0183040Y0063994D01*
X0182979Y0063989D01*
X0182919Y0063987D01*
X0164919Y0063987D02*
X0164859Y0063989D01*
X0164798Y0063994D01*
X0164739Y0064003D01*
X0164680Y0064016D01*
X0164621Y0064032D01*
X0164564Y0064052D01*
X0164509Y0064075D01*
X0164454Y0064102D01*
X0164402Y0064131D01*
X0164351Y0064164D01*
X0164302Y0064200D01*
X0164256Y0064238D01*
X0164212Y0064280D01*
X0164170Y0064324D01*
X0164132Y0064370D01*
X0164096Y0064419D01*
X0164063Y0064470D01*
X0164034Y0064522D01*
X0164007Y0064577D01*
X0163984Y0064632D01*
X0163964Y0064689D01*
X0163948Y0064748D01*
X0163935Y0064807D01*
X0163926Y0064866D01*
X0163921Y0064927D01*
X0163919Y0064987D01*
X0163919Y0070987D02*
X0163921Y0071047D01*
X0163926Y0071108D01*
X0163935Y0071167D01*
X0163948Y0071226D01*
X0163964Y0071285D01*
X0163984Y0071342D01*
X0164007Y0071397D01*
X0164034Y0071452D01*
X0164063Y0071504D01*
X0164096Y0071555D01*
X0164132Y0071604D01*
X0164170Y0071650D01*
X0164212Y0071694D01*
X0164256Y0071736D01*
X0164302Y0071774D01*
X0164351Y0071810D01*
X0164402Y0071843D01*
X0164454Y0071872D01*
X0164509Y0071899D01*
X0164564Y0071922D01*
X0164621Y0071942D01*
X0164680Y0071958D01*
X0164739Y0071971D01*
X0164798Y0071980D01*
X0164859Y0071985D01*
X0164919Y0071987D01*
X0164919Y0093987D02*
X0166419Y0093987D01*
X0166919Y0094487D01*
X0180919Y0094487D01*
X0181419Y0093987D01*
X0182919Y0093987D01*
X0182979Y0093989D01*
X0183040Y0093994D01*
X0183099Y0094003D01*
X0183158Y0094016D01*
X0183217Y0094032D01*
X0183274Y0094052D01*
X0183329Y0094075D01*
X0183384Y0094102D01*
X0183436Y0094131D01*
X0183487Y0094164D01*
X0183536Y0094200D01*
X0183582Y0094238D01*
X0183626Y0094280D01*
X0183668Y0094324D01*
X0183706Y0094370D01*
X0183742Y0094419D01*
X0183775Y0094470D01*
X0183804Y0094522D01*
X0183831Y0094577D01*
X0183854Y0094632D01*
X0183874Y0094689D01*
X0183890Y0094748D01*
X0183903Y0094807D01*
X0183912Y0094866D01*
X0183917Y0094927D01*
X0183919Y0094987D01*
X0183919Y0100987D01*
X0183917Y0101047D01*
X0183912Y0101108D01*
X0183903Y0101167D01*
X0183890Y0101226D01*
X0183874Y0101285D01*
X0183854Y0101342D01*
X0183831Y0101397D01*
X0183804Y0101452D01*
X0183775Y0101504D01*
X0183742Y0101555D01*
X0183706Y0101604D01*
X0183668Y0101650D01*
X0183626Y0101694D01*
X0183582Y0101736D01*
X0183536Y0101774D01*
X0183487Y0101810D01*
X0183436Y0101843D01*
X0183384Y0101872D01*
X0183329Y0101899D01*
X0183274Y0101922D01*
X0183217Y0101942D01*
X0183158Y0101958D01*
X0183099Y0101971D01*
X0183040Y0101980D01*
X0182979Y0101985D01*
X0182919Y0101987D01*
X0181419Y0101987D01*
X0180919Y0101487D01*
X0166919Y0101487D01*
X0166419Y0101987D01*
X0164919Y0101987D01*
X0164859Y0101985D01*
X0164798Y0101980D01*
X0164739Y0101971D01*
X0164680Y0101958D01*
X0164621Y0101942D01*
X0164564Y0101922D01*
X0164509Y0101899D01*
X0164454Y0101872D01*
X0164402Y0101843D01*
X0164351Y0101810D01*
X0164302Y0101774D01*
X0164256Y0101736D01*
X0164212Y0101694D01*
X0164170Y0101650D01*
X0164132Y0101604D01*
X0164096Y0101555D01*
X0164063Y0101504D01*
X0164034Y0101452D01*
X0164007Y0101397D01*
X0163984Y0101342D01*
X0163964Y0101285D01*
X0163948Y0101226D01*
X0163935Y0101167D01*
X0163926Y0101108D01*
X0163921Y0101047D01*
X0163919Y0100987D01*
X0163919Y0094987D01*
X0163921Y0094927D01*
X0163926Y0094866D01*
X0163935Y0094807D01*
X0163948Y0094748D01*
X0163964Y0094689D01*
X0163984Y0094632D01*
X0164007Y0094577D01*
X0164034Y0094522D01*
X0164063Y0094470D01*
X0164096Y0094419D01*
X0164132Y0094370D01*
X0164170Y0094324D01*
X0164212Y0094280D01*
X0164256Y0094238D01*
X0164302Y0094200D01*
X0164351Y0094164D01*
X0164402Y0094131D01*
X0164454Y0094102D01*
X0164509Y0094075D01*
X0164564Y0094052D01*
X0164621Y0094032D01*
X0164680Y0094016D01*
X0164739Y0094003D01*
X0164798Y0093994D01*
X0164859Y0093989D01*
X0164919Y0093987D01*
X0164859Y0093989D01*
X0164798Y0093994D01*
X0164739Y0094003D01*
X0164680Y0094016D01*
X0164621Y0094032D01*
X0164564Y0094052D01*
X0164509Y0094075D01*
X0164454Y0094102D01*
X0164402Y0094131D01*
X0164351Y0094164D01*
X0164302Y0094200D01*
X0164256Y0094238D01*
X0164212Y0094280D01*
X0164170Y0094324D01*
X0164132Y0094370D01*
X0164096Y0094419D01*
X0164063Y0094470D01*
X0164034Y0094522D01*
X0164007Y0094577D01*
X0163984Y0094632D01*
X0163964Y0094689D01*
X0163948Y0094748D01*
X0163935Y0094807D01*
X0163926Y0094866D01*
X0163921Y0094927D01*
X0163919Y0094987D01*
X0163919Y0100987D02*
X0163921Y0101047D01*
X0163926Y0101108D01*
X0163935Y0101167D01*
X0163948Y0101226D01*
X0163964Y0101285D01*
X0163984Y0101342D01*
X0164007Y0101397D01*
X0164034Y0101452D01*
X0164063Y0101504D01*
X0164096Y0101555D01*
X0164132Y0101604D01*
X0164170Y0101650D01*
X0164212Y0101694D01*
X0164256Y0101736D01*
X0164302Y0101774D01*
X0164351Y0101810D01*
X0164402Y0101843D01*
X0164454Y0101872D01*
X0164509Y0101899D01*
X0164564Y0101922D01*
X0164621Y0101942D01*
X0164680Y0101958D01*
X0164739Y0101971D01*
X0164798Y0101980D01*
X0164859Y0101985D01*
X0164919Y0101987D01*
X0182919Y0101987D02*
X0182979Y0101985D01*
X0183040Y0101980D01*
X0183099Y0101971D01*
X0183158Y0101958D01*
X0183217Y0101942D01*
X0183274Y0101922D01*
X0183329Y0101899D01*
X0183384Y0101872D01*
X0183436Y0101843D01*
X0183487Y0101810D01*
X0183536Y0101774D01*
X0183582Y0101736D01*
X0183626Y0101694D01*
X0183668Y0101650D01*
X0183706Y0101604D01*
X0183742Y0101555D01*
X0183775Y0101504D01*
X0183804Y0101452D01*
X0183831Y0101397D01*
X0183854Y0101342D01*
X0183874Y0101285D01*
X0183890Y0101226D01*
X0183903Y0101167D01*
X0183912Y0101108D01*
X0183917Y0101047D01*
X0183919Y0100987D01*
X0197419Y0103487D02*
X0210419Y0103487D01*
X0210506Y0103489D01*
X0210593Y0103495D01*
X0210680Y0103504D01*
X0210766Y0103517D01*
X0210852Y0103534D01*
X0210937Y0103555D01*
X0211020Y0103580D01*
X0211103Y0103608D01*
X0211184Y0103639D01*
X0211264Y0103674D01*
X0211342Y0103713D01*
X0211419Y0103755D01*
X0211494Y0103800D01*
X0211566Y0103849D01*
X0211637Y0103900D01*
X0211705Y0103955D01*
X0211770Y0104012D01*
X0211833Y0104073D01*
X0211894Y0104136D01*
X0211951Y0104201D01*
X0212006Y0104269D01*
X0212057Y0104340D01*
X0212106Y0104412D01*
X0212151Y0104487D01*
X0212193Y0104564D01*
X0212232Y0104642D01*
X0212267Y0104722D01*
X0212298Y0104803D01*
X0212326Y0104886D01*
X0212351Y0104969D01*
X0212372Y0105054D01*
X0212389Y0105140D01*
X0212402Y0105226D01*
X0212411Y0105313D01*
X0212417Y0105400D01*
X0212419Y0105487D01*
X0208919Y0107987D02*
X0205119Y0107987D01*
X0202619Y0107987D02*
X0198919Y0107987D01*
X0195419Y0105487D02*
X0195421Y0105400D01*
X0195427Y0105313D01*
X0195436Y0105226D01*
X0195449Y0105140D01*
X0195466Y0105054D01*
X0195487Y0104969D01*
X0195512Y0104886D01*
X0195540Y0104803D01*
X0195571Y0104722D01*
X0195606Y0104642D01*
X0195645Y0104564D01*
X0195687Y0104487D01*
X0195732Y0104412D01*
X0195781Y0104340D01*
X0195832Y0104269D01*
X0195887Y0104201D01*
X0195944Y0104136D01*
X0196005Y0104073D01*
X0196068Y0104012D01*
X0196133Y0103955D01*
X0196201Y0103900D01*
X0196272Y0103849D01*
X0196344Y0103800D01*
X0196419Y0103755D01*
X0196496Y0103713D01*
X0196574Y0103674D01*
X0196654Y0103639D01*
X0196735Y0103608D01*
X0196818Y0103580D01*
X0196901Y0103555D01*
X0196986Y0103534D01*
X0197072Y0103517D01*
X0197158Y0103504D01*
X0197245Y0103495D01*
X0197332Y0103489D01*
X0197419Y0103487D01*
X0207419Y0102487D02*
X0220419Y0102487D01*
X0220506Y0102485D01*
X0220593Y0102479D01*
X0220680Y0102470D01*
X0220766Y0102457D01*
X0220852Y0102440D01*
X0220937Y0102419D01*
X0221020Y0102394D01*
X0221103Y0102366D01*
X0221184Y0102335D01*
X0221264Y0102300D01*
X0221342Y0102261D01*
X0221419Y0102219D01*
X0221494Y0102174D01*
X0221566Y0102125D01*
X0221637Y0102074D01*
X0221705Y0102019D01*
X0221770Y0101962D01*
X0221833Y0101901D01*
X0221894Y0101838D01*
X0221951Y0101773D01*
X0222006Y0101705D01*
X0222057Y0101634D01*
X0222106Y0101562D01*
X0222151Y0101487D01*
X0222193Y0101410D01*
X0222232Y0101332D01*
X0222267Y0101252D01*
X0222298Y0101171D01*
X0222326Y0101088D01*
X0222351Y0101005D01*
X0222372Y0100920D01*
X0222389Y0100834D01*
X0222402Y0100748D01*
X0222411Y0100661D01*
X0222417Y0100574D01*
X0222419Y0100487D01*
X0218919Y0097987D02*
X0215219Y0097987D01*
X0212719Y0097987D02*
X0208919Y0097987D01*
X0205419Y0095487D02*
X0205421Y0095400D01*
X0205427Y0095313D01*
X0205436Y0095226D01*
X0205449Y0095140D01*
X0205466Y0095054D01*
X0205487Y0094969D01*
X0205512Y0094886D01*
X0205540Y0094803D01*
X0205571Y0094722D01*
X0205606Y0094642D01*
X0205645Y0094564D01*
X0205687Y0094487D01*
X0205732Y0094412D01*
X0205781Y0094340D01*
X0205832Y0094269D01*
X0205887Y0094201D01*
X0205944Y0094136D01*
X0206005Y0094073D01*
X0206068Y0094012D01*
X0206133Y0093955D01*
X0206201Y0093900D01*
X0206272Y0093849D01*
X0206344Y0093800D01*
X0206419Y0093755D01*
X0206496Y0093713D01*
X0206574Y0093674D01*
X0206654Y0093639D01*
X0206735Y0093608D01*
X0206818Y0093580D01*
X0206901Y0093555D01*
X0206986Y0093534D01*
X0207072Y0093517D01*
X0207158Y0093504D01*
X0207245Y0093495D01*
X0207332Y0093489D01*
X0207419Y0093487D01*
X0220419Y0093487D01*
X0220506Y0093489D01*
X0220593Y0093495D01*
X0220680Y0093504D01*
X0220766Y0093517D01*
X0220852Y0093534D01*
X0220937Y0093555D01*
X0221020Y0093580D01*
X0221103Y0093608D01*
X0221184Y0093639D01*
X0221264Y0093674D01*
X0221342Y0093713D01*
X0221419Y0093755D01*
X0221494Y0093800D01*
X0221566Y0093849D01*
X0221637Y0093900D01*
X0221705Y0093955D01*
X0221770Y0094012D01*
X0221833Y0094073D01*
X0221894Y0094136D01*
X0221951Y0094201D01*
X0222006Y0094269D01*
X0222057Y0094340D01*
X0222106Y0094412D01*
X0222151Y0094487D01*
X0222193Y0094564D01*
X0222232Y0094642D01*
X0222267Y0094722D01*
X0222298Y0094803D01*
X0222326Y0094886D01*
X0222351Y0094969D01*
X0222372Y0095054D01*
X0222389Y0095140D01*
X0222402Y0095226D01*
X0222411Y0095313D01*
X0222417Y0095400D01*
X0222419Y0095487D01*
X0207419Y0102487D02*
X0207332Y0102485D01*
X0207245Y0102479D01*
X0207158Y0102470D01*
X0207072Y0102457D01*
X0206986Y0102440D01*
X0206901Y0102419D01*
X0206818Y0102394D01*
X0206735Y0102366D01*
X0206654Y0102335D01*
X0206574Y0102300D01*
X0206496Y0102261D01*
X0206419Y0102219D01*
X0206344Y0102174D01*
X0206272Y0102125D01*
X0206201Y0102074D01*
X0206133Y0102019D01*
X0206068Y0101962D01*
X0206005Y0101901D01*
X0205944Y0101838D01*
X0205887Y0101773D01*
X0205832Y0101705D01*
X0205781Y0101634D01*
X0205732Y0101562D01*
X0205687Y0101487D01*
X0205645Y0101410D01*
X0205606Y0101332D01*
X0205571Y0101252D01*
X0205540Y0101171D01*
X0205512Y0101088D01*
X0205487Y0101005D01*
X0205466Y0100920D01*
X0205449Y0100834D01*
X0205436Y0100748D01*
X0205427Y0100661D01*
X0205421Y0100574D01*
X0205419Y0100487D01*
X0212419Y0110487D02*
X0212417Y0110574D01*
X0212411Y0110661D01*
X0212402Y0110748D01*
X0212389Y0110834D01*
X0212372Y0110920D01*
X0212351Y0111005D01*
X0212326Y0111088D01*
X0212298Y0111171D01*
X0212267Y0111252D01*
X0212232Y0111332D01*
X0212193Y0111410D01*
X0212151Y0111487D01*
X0212106Y0111562D01*
X0212057Y0111634D01*
X0212006Y0111705D01*
X0211951Y0111773D01*
X0211894Y0111838D01*
X0211833Y0111901D01*
X0211770Y0111962D01*
X0211705Y0112019D01*
X0211637Y0112074D01*
X0211566Y0112125D01*
X0211494Y0112174D01*
X0211419Y0112219D01*
X0211342Y0112261D01*
X0211264Y0112300D01*
X0211184Y0112335D01*
X0211103Y0112366D01*
X0211020Y0112394D01*
X0210937Y0112419D01*
X0210852Y0112440D01*
X0210766Y0112457D01*
X0210680Y0112470D01*
X0210593Y0112479D01*
X0210506Y0112485D01*
X0210419Y0112487D01*
X0197419Y0112487D01*
X0197332Y0112485D01*
X0197245Y0112479D01*
X0197158Y0112470D01*
X0197072Y0112457D01*
X0196986Y0112440D01*
X0196901Y0112419D01*
X0196818Y0112394D01*
X0196735Y0112366D01*
X0196654Y0112335D01*
X0196574Y0112300D01*
X0196496Y0112261D01*
X0196419Y0112219D01*
X0196344Y0112174D01*
X0196272Y0112125D01*
X0196201Y0112074D01*
X0196133Y0112019D01*
X0196068Y0111962D01*
X0196005Y0111901D01*
X0195944Y0111838D01*
X0195887Y0111773D01*
X0195832Y0111705D01*
X0195781Y0111634D01*
X0195732Y0111562D01*
X0195687Y0111487D01*
X0195645Y0111410D01*
X0195606Y0111332D01*
X0195571Y0111252D01*
X0195540Y0111171D01*
X0195512Y0111088D01*
X0195487Y0111005D01*
X0195466Y0110920D01*
X0195449Y0110834D01*
X0195436Y0110748D01*
X0195427Y0110661D01*
X0195421Y0110574D01*
X0195419Y0110487D01*
X0183919Y0094987D02*
X0183917Y0094927D01*
X0183912Y0094866D01*
X0183903Y0094807D01*
X0183890Y0094748D01*
X0183874Y0094689D01*
X0183854Y0094632D01*
X0183831Y0094577D01*
X0183804Y0094522D01*
X0183775Y0094470D01*
X0183742Y0094419D01*
X0183706Y0094370D01*
X0183668Y0094324D01*
X0183626Y0094280D01*
X0183582Y0094238D01*
X0183536Y0094200D01*
X0183487Y0094164D01*
X0183436Y0094131D01*
X0183384Y0094102D01*
X0183329Y0094075D01*
X0183274Y0094052D01*
X0183217Y0094032D01*
X0183158Y0094016D01*
X0183099Y0094003D01*
X0183040Y0093994D01*
X0182979Y0093989D01*
X0182919Y0093987D01*
X0267419Y0102987D02*
X0274919Y0102987D01*
X0274921Y0102861D01*
X0274927Y0102736D01*
X0274937Y0102611D01*
X0274951Y0102486D01*
X0274968Y0102361D01*
X0274990Y0102237D01*
X0275015Y0102114D01*
X0275045Y0101992D01*
X0275078Y0101871D01*
X0275115Y0101751D01*
X0275155Y0101632D01*
X0275200Y0101515D01*
X0275248Y0101398D01*
X0275300Y0101284D01*
X0275355Y0101171D01*
X0275414Y0101060D01*
X0275476Y0100951D01*
X0275542Y0100844D01*
X0275611Y0100739D01*
X0275683Y0100636D01*
X0275758Y0100535D01*
X0275837Y0100437D01*
X0275919Y0100342D01*
X0276003Y0100249D01*
X0276091Y0100159D01*
X0276181Y0100071D01*
X0276274Y0099987D01*
X0276369Y0099905D01*
X0276467Y0099826D01*
X0276568Y0099751D01*
X0276671Y0099679D01*
X0276776Y0099610D01*
X0276883Y0099544D01*
X0276992Y0099482D01*
X0277103Y0099423D01*
X0277216Y0099368D01*
X0277330Y0099316D01*
X0277447Y0099268D01*
X0277564Y0099223D01*
X0277683Y0099183D01*
X0277803Y0099146D01*
X0277924Y0099113D01*
X0278046Y0099083D01*
X0278169Y0099058D01*
X0278293Y0099036D01*
X0278418Y0099019D01*
X0278543Y0099005D01*
X0278668Y0098995D01*
X0278793Y0098989D01*
X0278919Y0098987D01*
X0279045Y0098989D01*
X0279170Y0098995D01*
X0279295Y0099005D01*
X0279420Y0099019D01*
X0279545Y0099036D01*
X0279669Y0099058D01*
X0279792Y0099083D01*
X0279914Y0099113D01*
X0280035Y0099146D01*
X0280155Y0099183D01*
X0280274Y0099223D01*
X0280391Y0099268D01*
X0280508Y0099316D01*
X0280622Y0099368D01*
X0280735Y0099423D01*
X0280846Y0099482D01*
X0280955Y0099544D01*
X0281062Y0099610D01*
X0281167Y0099679D01*
X0281270Y0099751D01*
X0281371Y0099826D01*
X0281469Y0099905D01*
X0281564Y0099987D01*
X0281657Y0100071D01*
X0281747Y0100159D01*
X0281835Y0100249D01*
X0281919Y0100342D01*
X0282001Y0100437D01*
X0282080Y0100535D01*
X0282155Y0100636D01*
X0282227Y0100739D01*
X0282296Y0100844D01*
X0282362Y0100951D01*
X0282424Y0101060D01*
X0282483Y0101171D01*
X0282538Y0101284D01*
X0282590Y0101398D01*
X0282638Y0101515D01*
X0282683Y0101632D01*
X0282723Y0101751D01*
X0282760Y0101871D01*
X0282793Y0101992D01*
X0282823Y0102114D01*
X0282848Y0102237D01*
X0282870Y0102361D01*
X0282887Y0102486D01*
X0282901Y0102611D01*
X0282911Y0102736D01*
X0282917Y0102861D01*
X0282919Y0102987D01*
X0290419Y0102987D01*
X0290419Y0032987D01*
X0267419Y0032987D01*
X0267419Y0102987D01*
X0317419Y0082487D02*
X0330419Y0082487D01*
X0330506Y0082485D01*
X0330593Y0082479D01*
X0330680Y0082470D01*
X0330766Y0082457D01*
X0330852Y0082440D01*
X0330937Y0082419D01*
X0331020Y0082394D01*
X0331103Y0082366D01*
X0331184Y0082335D01*
X0331264Y0082300D01*
X0331342Y0082261D01*
X0331419Y0082219D01*
X0331494Y0082174D01*
X0331566Y0082125D01*
X0331637Y0082074D01*
X0331705Y0082019D01*
X0331770Y0081962D01*
X0331833Y0081901D01*
X0331894Y0081838D01*
X0331951Y0081773D01*
X0332006Y0081705D01*
X0332057Y0081634D01*
X0332106Y0081562D01*
X0332151Y0081487D01*
X0332193Y0081410D01*
X0332232Y0081332D01*
X0332267Y0081252D01*
X0332298Y0081171D01*
X0332326Y0081088D01*
X0332351Y0081005D01*
X0332372Y0080920D01*
X0332389Y0080834D01*
X0332402Y0080748D01*
X0332411Y0080661D01*
X0332417Y0080574D01*
X0332419Y0080487D01*
X0328919Y0077987D02*
X0325219Y0077987D01*
X0322719Y0077987D02*
X0318919Y0077987D01*
X0315419Y0075487D02*
X0315421Y0075400D01*
X0315427Y0075313D01*
X0315436Y0075226D01*
X0315449Y0075140D01*
X0315466Y0075054D01*
X0315487Y0074969D01*
X0315512Y0074886D01*
X0315540Y0074803D01*
X0315571Y0074722D01*
X0315606Y0074642D01*
X0315645Y0074564D01*
X0315687Y0074487D01*
X0315732Y0074412D01*
X0315781Y0074340D01*
X0315832Y0074269D01*
X0315887Y0074201D01*
X0315944Y0074136D01*
X0316005Y0074073D01*
X0316068Y0074012D01*
X0316133Y0073955D01*
X0316201Y0073900D01*
X0316272Y0073849D01*
X0316344Y0073800D01*
X0316419Y0073755D01*
X0316496Y0073713D01*
X0316574Y0073674D01*
X0316654Y0073639D01*
X0316735Y0073608D01*
X0316818Y0073580D01*
X0316901Y0073555D01*
X0316986Y0073534D01*
X0317072Y0073517D01*
X0317158Y0073504D01*
X0317245Y0073495D01*
X0317332Y0073489D01*
X0317419Y0073487D01*
X0330419Y0073487D01*
X0330506Y0073489D01*
X0330593Y0073495D01*
X0330680Y0073504D01*
X0330766Y0073517D01*
X0330852Y0073534D01*
X0330937Y0073555D01*
X0331020Y0073580D01*
X0331103Y0073608D01*
X0331184Y0073639D01*
X0331264Y0073674D01*
X0331342Y0073713D01*
X0331419Y0073755D01*
X0331494Y0073800D01*
X0331566Y0073849D01*
X0331637Y0073900D01*
X0331705Y0073955D01*
X0331770Y0074012D01*
X0331833Y0074073D01*
X0331894Y0074136D01*
X0331951Y0074201D01*
X0332006Y0074269D01*
X0332057Y0074340D01*
X0332106Y0074412D01*
X0332151Y0074487D01*
X0332193Y0074564D01*
X0332232Y0074642D01*
X0332267Y0074722D01*
X0332298Y0074803D01*
X0332326Y0074886D01*
X0332351Y0074969D01*
X0332372Y0075054D01*
X0332389Y0075140D01*
X0332402Y0075226D01*
X0332411Y0075313D01*
X0332417Y0075400D01*
X0332419Y0075487D01*
X0334919Y0070487D02*
X0342919Y0070487D01*
X0342979Y0070485D01*
X0343040Y0070480D01*
X0343099Y0070471D01*
X0343158Y0070458D01*
X0343217Y0070442D01*
X0343274Y0070422D01*
X0343329Y0070399D01*
X0343384Y0070372D01*
X0343436Y0070343D01*
X0343487Y0070310D01*
X0343536Y0070274D01*
X0343582Y0070236D01*
X0343626Y0070194D01*
X0343668Y0070150D01*
X0343706Y0070104D01*
X0343742Y0070055D01*
X0343775Y0070004D01*
X0343804Y0069952D01*
X0343831Y0069897D01*
X0343854Y0069842D01*
X0343874Y0069785D01*
X0343890Y0069726D01*
X0343903Y0069667D01*
X0343912Y0069608D01*
X0343917Y0069547D01*
X0343919Y0069487D01*
X0343919Y0066487D01*
X0343917Y0066427D01*
X0343912Y0066366D01*
X0343903Y0066307D01*
X0343890Y0066248D01*
X0343874Y0066189D01*
X0343854Y0066132D01*
X0343831Y0066077D01*
X0343804Y0066022D01*
X0343775Y0065970D01*
X0343742Y0065919D01*
X0343706Y0065870D01*
X0343668Y0065824D01*
X0343626Y0065780D01*
X0343582Y0065738D01*
X0343536Y0065700D01*
X0343487Y0065664D01*
X0343436Y0065631D01*
X0343384Y0065602D01*
X0343329Y0065575D01*
X0343274Y0065552D01*
X0343217Y0065532D01*
X0343158Y0065516D01*
X0343099Y0065503D01*
X0343040Y0065494D01*
X0342979Y0065489D01*
X0342919Y0065487D01*
X0334919Y0065487D01*
X0334859Y0065489D01*
X0334798Y0065494D01*
X0334739Y0065503D01*
X0334680Y0065516D01*
X0334621Y0065532D01*
X0334564Y0065552D01*
X0334509Y0065575D01*
X0334454Y0065602D01*
X0334402Y0065631D01*
X0334351Y0065664D01*
X0334302Y0065700D01*
X0334256Y0065738D01*
X0334212Y0065780D01*
X0334170Y0065824D01*
X0334132Y0065870D01*
X0334096Y0065919D01*
X0334063Y0065970D01*
X0334034Y0066022D01*
X0334007Y0066077D01*
X0333984Y0066132D01*
X0333964Y0066189D01*
X0333948Y0066248D01*
X0333935Y0066307D01*
X0333926Y0066366D01*
X0333921Y0066427D01*
X0333919Y0066487D01*
X0333919Y0069487D01*
X0333921Y0069547D01*
X0333926Y0069608D01*
X0333935Y0069667D01*
X0333948Y0069726D01*
X0333964Y0069785D01*
X0333984Y0069842D01*
X0334007Y0069897D01*
X0334034Y0069952D01*
X0334063Y0070004D01*
X0334096Y0070055D01*
X0334132Y0070104D01*
X0334170Y0070150D01*
X0334212Y0070194D01*
X0334256Y0070236D01*
X0334302Y0070274D01*
X0334351Y0070310D01*
X0334402Y0070343D01*
X0334454Y0070372D01*
X0334509Y0070399D01*
X0334564Y0070422D01*
X0334621Y0070442D01*
X0334680Y0070458D01*
X0334739Y0070471D01*
X0334798Y0070480D01*
X0334859Y0070485D01*
X0334919Y0070487D01*
X0334859Y0070485D01*
X0334798Y0070480D01*
X0334739Y0070471D01*
X0334680Y0070458D01*
X0334621Y0070442D01*
X0334564Y0070422D01*
X0334509Y0070399D01*
X0334454Y0070372D01*
X0334402Y0070343D01*
X0334351Y0070310D01*
X0334302Y0070274D01*
X0334256Y0070236D01*
X0334212Y0070194D01*
X0334170Y0070150D01*
X0334132Y0070104D01*
X0334096Y0070055D01*
X0334063Y0070004D01*
X0334034Y0069952D01*
X0334007Y0069897D01*
X0333984Y0069842D01*
X0333964Y0069785D01*
X0333948Y0069726D01*
X0333935Y0069667D01*
X0333926Y0069608D01*
X0333921Y0069547D01*
X0333919Y0069487D01*
X0333919Y0066487D02*
X0333921Y0066427D01*
X0333926Y0066366D01*
X0333935Y0066307D01*
X0333948Y0066248D01*
X0333964Y0066189D01*
X0333984Y0066132D01*
X0334007Y0066077D01*
X0334034Y0066022D01*
X0334063Y0065970D01*
X0334096Y0065919D01*
X0334132Y0065870D01*
X0334170Y0065824D01*
X0334212Y0065780D01*
X0334256Y0065738D01*
X0334302Y0065700D01*
X0334351Y0065664D01*
X0334402Y0065631D01*
X0334454Y0065602D01*
X0334509Y0065575D01*
X0334564Y0065552D01*
X0334621Y0065532D01*
X0334680Y0065516D01*
X0334739Y0065503D01*
X0334798Y0065494D01*
X0334859Y0065489D01*
X0334919Y0065487D01*
X0330419Y0062487D02*
X0317419Y0062487D01*
X0317332Y0062485D01*
X0317245Y0062479D01*
X0317158Y0062470D01*
X0317072Y0062457D01*
X0316986Y0062440D01*
X0316901Y0062419D01*
X0316818Y0062394D01*
X0316735Y0062366D01*
X0316654Y0062335D01*
X0316574Y0062300D01*
X0316496Y0062261D01*
X0316419Y0062219D01*
X0316344Y0062174D01*
X0316272Y0062125D01*
X0316201Y0062074D01*
X0316133Y0062019D01*
X0316068Y0061962D01*
X0316005Y0061901D01*
X0315944Y0061838D01*
X0315887Y0061773D01*
X0315832Y0061705D01*
X0315781Y0061634D01*
X0315732Y0061562D01*
X0315687Y0061487D01*
X0315645Y0061410D01*
X0315606Y0061332D01*
X0315571Y0061252D01*
X0315540Y0061171D01*
X0315512Y0061088D01*
X0315487Y0061005D01*
X0315466Y0060920D01*
X0315449Y0060834D01*
X0315436Y0060748D01*
X0315427Y0060661D01*
X0315421Y0060574D01*
X0315419Y0060487D01*
X0318919Y0057987D02*
X0322719Y0057987D01*
X0325219Y0057987D02*
X0328919Y0057987D01*
X0332419Y0055487D02*
X0332417Y0055400D01*
X0332411Y0055313D01*
X0332402Y0055226D01*
X0332389Y0055140D01*
X0332372Y0055054D01*
X0332351Y0054969D01*
X0332326Y0054886D01*
X0332298Y0054803D01*
X0332267Y0054722D01*
X0332232Y0054642D01*
X0332193Y0054564D01*
X0332151Y0054487D01*
X0332106Y0054412D01*
X0332057Y0054340D01*
X0332006Y0054269D01*
X0331951Y0054201D01*
X0331894Y0054136D01*
X0331833Y0054073D01*
X0331770Y0054012D01*
X0331705Y0053955D01*
X0331637Y0053900D01*
X0331566Y0053849D01*
X0331494Y0053800D01*
X0331419Y0053755D01*
X0331342Y0053713D01*
X0331264Y0053674D01*
X0331184Y0053639D01*
X0331103Y0053608D01*
X0331020Y0053580D01*
X0330937Y0053555D01*
X0330852Y0053534D01*
X0330766Y0053517D01*
X0330680Y0053504D01*
X0330593Y0053495D01*
X0330506Y0053489D01*
X0330419Y0053487D01*
X0317419Y0053487D01*
X0317332Y0053489D01*
X0317245Y0053495D01*
X0317158Y0053504D01*
X0317072Y0053517D01*
X0316986Y0053534D01*
X0316901Y0053555D01*
X0316818Y0053580D01*
X0316735Y0053608D01*
X0316654Y0053639D01*
X0316574Y0053674D01*
X0316496Y0053713D01*
X0316419Y0053755D01*
X0316344Y0053800D01*
X0316272Y0053849D01*
X0316201Y0053900D01*
X0316133Y0053955D01*
X0316068Y0054012D01*
X0316005Y0054073D01*
X0315944Y0054136D01*
X0315887Y0054201D01*
X0315832Y0054269D01*
X0315781Y0054340D01*
X0315732Y0054412D01*
X0315687Y0054487D01*
X0315645Y0054564D01*
X0315606Y0054642D01*
X0315571Y0054722D01*
X0315540Y0054803D01*
X0315512Y0054886D01*
X0315487Y0054969D01*
X0315466Y0055054D01*
X0315449Y0055140D01*
X0315436Y0055226D01*
X0315427Y0055313D01*
X0315421Y0055400D01*
X0315419Y0055487D01*
X0330419Y0062487D02*
X0330506Y0062485D01*
X0330593Y0062479D01*
X0330680Y0062470D01*
X0330766Y0062457D01*
X0330852Y0062440D01*
X0330937Y0062419D01*
X0331020Y0062394D01*
X0331103Y0062366D01*
X0331184Y0062335D01*
X0331264Y0062300D01*
X0331342Y0062261D01*
X0331419Y0062219D01*
X0331494Y0062174D01*
X0331566Y0062125D01*
X0331637Y0062074D01*
X0331705Y0062019D01*
X0331770Y0061962D01*
X0331833Y0061901D01*
X0331894Y0061838D01*
X0331951Y0061773D01*
X0332006Y0061705D01*
X0332057Y0061634D01*
X0332106Y0061562D01*
X0332151Y0061487D01*
X0332193Y0061410D01*
X0332232Y0061332D01*
X0332267Y0061252D01*
X0332298Y0061171D01*
X0332326Y0061088D01*
X0332351Y0061005D01*
X0332372Y0060920D01*
X0332389Y0060834D01*
X0332402Y0060748D01*
X0332411Y0060661D01*
X0332417Y0060574D01*
X0332419Y0060487D01*
X0342919Y0065487D02*
X0342979Y0065489D01*
X0343040Y0065494D01*
X0343099Y0065503D01*
X0343158Y0065516D01*
X0343217Y0065532D01*
X0343274Y0065552D01*
X0343329Y0065575D01*
X0343384Y0065602D01*
X0343436Y0065631D01*
X0343487Y0065664D01*
X0343536Y0065700D01*
X0343582Y0065738D01*
X0343626Y0065780D01*
X0343668Y0065824D01*
X0343706Y0065870D01*
X0343742Y0065919D01*
X0343775Y0065970D01*
X0343804Y0066022D01*
X0343831Y0066077D01*
X0343854Y0066132D01*
X0343874Y0066189D01*
X0343890Y0066248D01*
X0343903Y0066307D01*
X0343912Y0066366D01*
X0343917Y0066427D01*
X0343919Y0066487D01*
X0343919Y0069487D02*
X0343917Y0069547D01*
X0343912Y0069608D01*
X0343903Y0069667D01*
X0343890Y0069726D01*
X0343874Y0069785D01*
X0343854Y0069842D01*
X0343831Y0069897D01*
X0343804Y0069952D01*
X0343775Y0070004D01*
X0343742Y0070055D01*
X0343706Y0070104D01*
X0343668Y0070150D01*
X0343626Y0070194D01*
X0343582Y0070236D01*
X0343536Y0070274D01*
X0343487Y0070310D01*
X0343436Y0070343D01*
X0343384Y0070372D01*
X0343329Y0070399D01*
X0343274Y0070422D01*
X0343217Y0070442D01*
X0343158Y0070458D01*
X0343099Y0070471D01*
X0343040Y0070480D01*
X0342979Y0070485D01*
X0342919Y0070487D01*
X0317419Y0082487D02*
X0317332Y0082485D01*
X0317245Y0082479D01*
X0317158Y0082470D01*
X0317072Y0082457D01*
X0316986Y0082440D01*
X0316901Y0082419D01*
X0316818Y0082394D01*
X0316735Y0082366D01*
X0316654Y0082335D01*
X0316574Y0082300D01*
X0316496Y0082261D01*
X0316419Y0082219D01*
X0316344Y0082174D01*
X0316272Y0082125D01*
X0316201Y0082074D01*
X0316133Y0082019D01*
X0316068Y0081962D01*
X0316005Y0081901D01*
X0315944Y0081838D01*
X0315887Y0081773D01*
X0315832Y0081705D01*
X0315781Y0081634D01*
X0315732Y0081562D01*
X0315687Y0081487D01*
X0315645Y0081410D01*
X0315606Y0081332D01*
X0315571Y0081252D01*
X0315540Y0081171D01*
X0315512Y0081088D01*
X0315487Y0081005D01*
X0315466Y0080920D01*
X0315449Y0080834D01*
X0315436Y0080748D01*
X0315427Y0080661D01*
X0315421Y0080574D01*
X0315419Y0080487D01*
X0333919Y0086487D02*
X0333919Y0089487D01*
X0333921Y0089547D01*
X0333926Y0089608D01*
X0333935Y0089667D01*
X0333948Y0089726D01*
X0333964Y0089785D01*
X0333984Y0089842D01*
X0334007Y0089897D01*
X0334034Y0089952D01*
X0334063Y0090004D01*
X0334096Y0090055D01*
X0334132Y0090104D01*
X0334170Y0090150D01*
X0334212Y0090194D01*
X0334256Y0090236D01*
X0334302Y0090274D01*
X0334351Y0090310D01*
X0334402Y0090343D01*
X0334454Y0090372D01*
X0334509Y0090399D01*
X0334564Y0090422D01*
X0334621Y0090442D01*
X0334680Y0090458D01*
X0334739Y0090471D01*
X0334798Y0090480D01*
X0334859Y0090485D01*
X0334919Y0090487D01*
X0342919Y0090487D01*
X0342979Y0090485D01*
X0343040Y0090480D01*
X0343099Y0090471D01*
X0343158Y0090458D01*
X0343217Y0090442D01*
X0343274Y0090422D01*
X0343329Y0090399D01*
X0343384Y0090372D01*
X0343436Y0090343D01*
X0343487Y0090310D01*
X0343536Y0090274D01*
X0343582Y0090236D01*
X0343626Y0090194D01*
X0343668Y0090150D01*
X0343706Y0090104D01*
X0343742Y0090055D01*
X0343775Y0090004D01*
X0343804Y0089952D01*
X0343831Y0089897D01*
X0343854Y0089842D01*
X0343874Y0089785D01*
X0343890Y0089726D01*
X0343903Y0089667D01*
X0343912Y0089608D01*
X0343917Y0089547D01*
X0343919Y0089487D01*
X0343919Y0086487D01*
X0343917Y0086427D01*
X0343912Y0086366D01*
X0343903Y0086307D01*
X0343890Y0086248D01*
X0343874Y0086189D01*
X0343854Y0086132D01*
X0343831Y0086077D01*
X0343804Y0086022D01*
X0343775Y0085970D01*
X0343742Y0085919D01*
X0343706Y0085870D01*
X0343668Y0085824D01*
X0343626Y0085780D01*
X0343582Y0085738D01*
X0343536Y0085700D01*
X0343487Y0085664D01*
X0343436Y0085631D01*
X0343384Y0085602D01*
X0343329Y0085575D01*
X0343274Y0085552D01*
X0343217Y0085532D01*
X0343158Y0085516D01*
X0343099Y0085503D01*
X0343040Y0085494D01*
X0342979Y0085489D01*
X0342919Y0085487D01*
X0334919Y0085487D01*
X0334859Y0085489D01*
X0334798Y0085494D01*
X0334739Y0085503D01*
X0334680Y0085516D01*
X0334621Y0085532D01*
X0334564Y0085552D01*
X0334509Y0085575D01*
X0334454Y0085602D01*
X0334402Y0085631D01*
X0334351Y0085664D01*
X0334302Y0085700D01*
X0334256Y0085738D01*
X0334212Y0085780D01*
X0334170Y0085824D01*
X0334132Y0085870D01*
X0334096Y0085919D01*
X0334063Y0085970D01*
X0334034Y0086022D01*
X0334007Y0086077D01*
X0333984Y0086132D01*
X0333964Y0086189D01*
X0333948Y0086248D01*
X0333935Y0086307D01*
X0333926Y0086366D01*
X0333921Y0086427D01*
X0333919Y0086487D01*
X0333921Y0086427D01*
X0333926Y0086366D01*
X0333935Y0086307D01*
X0333948Y0086248D01*
X0333964Y0086189D01*
X0333984Y0086132D01*
X0334007Y0086077D01*
X0334034Y0086022D01*
X0334063Y0085970D01*
X0334096Y0085919D01*
X0334132Y0085870D01*
X0334170Y0085824D01*
X0334212Y0085780D01*
X0334256Y0085738D01*
X0334302Y0085700D01*
X0334351Y0085664D01*
X0334402Y0085631D01*
X0334454Y0085602D01*
X0334509Y0085575D01*
X0334564Y0085552D01*
X0334621Y0085532D01*
X0334680Y0085516D01*
X0334739Y0085503D01*
X0334798Y0085494D01*
X0334859Y0085489D01*
X0334919Y0085487D01*
X0333919Y0089487D02*
X0333921Y0089547D01*
X0333926Y0089608D01*
X0333935Y0089667D01*
X0333948Y0089726D01*
X0333964Y0089785D01*
X0333984Y0089842D01*
X0334007Y0089897D01*
X0334034Y0089952D01*
X0334063Y0090004D01*
X0334096Y0090055D01*
X0334132Y0090104D01*
X0334170Y0090150D01*
X0334212Y0090194D01*
X0334256Y0090236D01*
X0334302Y0090274D01*
X0334351Y0090310D01*
X0334402Y0090343D01*
X0334454Y0090372D01*
X0334509Y0090399D01*
X0334564Y0090422D01*
X0334621Y0090442D01*
X0334680Y0090458D01*
X0334739Y0090471D01*
X0334798Y0090480D01*
X0334859Y0090485D01*
X0334919Y0090487D01*
X0342919Y0090487D02*
X0342979Y0090485D01*
X0343040Y0090480D01*
X0343099Y0090471D01*
X0343158Y0090458D01*
X0343217Y0090442D01*
X0343274Y0090422D01*
X0343329Y0090399D01*
X0343384Y0090372D01*
X0343436Y0090343D01*
X0343487Y0090310D01*
X0343536Y0090274D01*
X0343582Y0090236D01*
X0343626Y0090194D01*
X0343668Y0090150D01*
X0343706Y0090104D01*
X0343742Y0090055D01*
X0343775Y0090004D01*
X0343804Y0089952D01*
X0343831Y0089897D01*
X0343854Y0089842D01*
X0343874Y0089785D01*
X0343890Y0089726D01*
X0343903Y0089667D01*
X0343912Y0089608D01*
X0343917Y0089547D01*
X0343919Y0089487D01*
X0343919Y0086487D02*
X0343917Y0086427D01*
X0343912Y0086366D01*
X0343903Y0086307D01*
X0343890Y0086248D01*
X0343874Y0086189D01*
X0343854Y0086132D01*
X0343831Y0086077D01*
X0343804Y0086022D01*
X0343775Y0085970D01*
X0343742Y0085919D01*
X0343706Y0085870D01*
X0343668Y0085824D01*
X0343626Y0085780D01*
X0343582Y0085738D01*
X0343536Y0085700D01*
X0343487Y0085664D01*
X0343436Y0085631D01*
X0343384Y0085602D01*
X0343329Y0085575D01*
X0343274Y0085552D01*
X0343217Y0085532D01*
X0343158Y0085516D01*
X0343099Y0085503D01*
X0343040Y0085494D01*
X0342979Y0085489D01*
X0342919Y0085487D01*
X0342919Y0050487D02*
X0334919Y0050487D01*
X0334859Y0050485D01*
X0334798Y0050480D01*
X0334739Y0050471D01*
X0334680Y0050458D01*
X0334621Y0050442D01*
X0334564Y0050422D01*
X0334509Y0050399D01*
X0334454Y0050372D01*
X0334402Y0050343D01*
X0334351Y0050310D01*
X0334302Y0050274D01*
X0334256Y0050236D01*
X0334212Y0050194D01*
X0334170Y0050150D01*
X0334132Y0050104D01*
X0334096Y0050055D01*
X0334063Y0050004D01*
X0334034Y0049952D01*
X0334007Y0049897D01*
X0333984Y0049842D01*
X0333964Y0049785D01*
X0333948Y0049726D01*
X0333935Y0049667D01*
X0333926Y0049608D01*
X0333921Y0049547D01*
X0333919Y0049487D01*
X0333919Y0046487D01*
X0333921Y0046427D01*
X0333926Y0046366D01*
X0333935Y0046307D01*
X0333948Y0046248D01*
X0333964Y0046189D01*
X0333984Y0046132D01*
X0334007Y0046077D01*
X0334034Y0046022D01*
X0334063Y0045970D01*
X0334096Y0045919D01*
X0334132Y0045870D01*
X0334170Y0045824D01*
X0334212Y0045780D01*
X0334256Y0045738D01*
X0334302Y0045700D01*
X0334351Y0045664D01*
X0334402Y0045631D01*
X0334454Y0045602D01*
X0334509Y0045575D01*
X0334564Y0045552D01*
X0334621Y0045532D01*
X0334680Y0045516D01*
X0334739Y0045503D01*
X0334798Y0045494D01*
X0334859Y0045489D01*
X0334919Y0045487D01*
X0342919Y0045487D01*
X0342979Y0045489D01*
X0343040Y0045494D01*
X0343099Y0045503D01*
X0343158Y0045516D01*
X0343217Y0045532D01*
X0343274Y0045552D01*
X0343329Y0045575D01*
X0343384Y0045602D01*
X0343436Y0045631D01*
X0343487Y0045664D01*
X0343536Y0045700D01*
X0343582Y0045738D01*
X0343626Y0045780D01*
X0343668Y0045824D01*
X0343706Y0045870D01*
X0343742Y0045919D01*
X0343775Y0045970D01*
X0343804Y0046022D01*
X0343831Y0046077D01*
X0343854Y0046132D01*
X0343874Y0046189D01*
X0343890Y0046248D01*
X0343903Y0046307D01*
X0343912Y0046366D01*
X0343917Y0046427D01*
X0343919Y0046487D01*
X0343919Y0049487D01*
X0343917Y0049547D01*
X0343912Y0049608D01*
X0343903Y0049667D01*
X0343890Y0049726D01*
X0343874Y0049785D01*
X0343854Y0049842D01*
X0343831Y0049897D01*
X0343804Y0049952D01*
X0343775Y0050004D01*
X0343742Y0050055D01*
X0343706Y0050104D01*
X0343668Y0050150D01*
X0343626Y0050194D01*
X0343582Y0050236D01*
X0343536Y0050274D01*
X0343487Y0050310D01*
X0343436Y0050343D01*
X0343384Y0050372D01*
X0343329Y0050399D01*
X0343274Y0050422D01*
X0343217Y0050442D01*
X0343158Y0050458D01*
X0343099Y0050471D01*
X0343040Y0050480D01*
X0342979Y0050485D01*
X0342919Y0050487D01*
X0342979Y0050485D01*
X0343040Y0050480D01*
X0343099Y0050471D01*
X0343158Y0050458D01*
X0343217Y0050442D01*
X0343274Y0050422D01*
X0343329Y0050399D01*
X0343384Y0050372D01*
X0343436Y0050343D01*
X0343487Y0050310D01*
X0343536Y0050274D01*
X0343582Y0050236D01*
X0343626Y0050194D01*
X0343668Y0050150D01*
X0343706Y0050104D01*
X0343742Y0050055D01*
X0343775Y0050004D01*
X0343804Y0049952D01*
X0343831Y0049897D01*
X0343854Y0049842D01*
X0343874Y0049785D01*
X0343890Y0049726D01*
X0343903Y0049667D01*
X0343912Y0049608D01*
X0343917Y0049547D01*
X0343919Y0049487D01*
X0343919Y0046487D02*
X0343917Y0046427D01*
X0343912Y0046366D01*
X0343903Y0046307D01*
X0343890Y0046248D01*
X0343874Y0046189D01*
X0343854Y0046132D01*
X0343831Y0046077D01*
X0343804Y0046022D01*
X0343775Y0045970D01*
X0343742Y0045919D01*
X0343706Y0045870D01*
X0343668Y0045824D01*
X0343626Y0045780D01*
X0343582Y0045738D01*
X0343536Y0045700D01*
X0343487Y0045664D01*
X0343436Y0045631D01*
X0343384Y0045602D01*
X0343329Y0045575D01*
X0343274Y0045552D01*
X0343217Y0045532D01*
X0343158Y0045516D01*
X0343099Y0045503D01*
X0343040Y0045494D01*
X0342979Y0045489D01*
X0342919Y0045487D01*
X0334919Y0045487D02*
X0334859Y0045489D01*
X0334798Y0045494D01*
X0334739Y0045503D01*
X0334680Y0045516D01*
X0334621Y0045532D01*
X0334564Y0045552D01*
X0334509Y0045575D01*
X0334454Y0045602D01*
X0334402Y0045631D01*
X0334351Y0045664D01*
X0334302Y0045700D01*
X0334256Y0045738D01*
X0334212Y0045780D01*
X0334170Y0045824D01*
X0334132Y0045870D01*
X0334096Y0045919D01*
X0334063Y0045970D01*
X0334034Y0046022D01*
X0334007Y0046077D01*
X0333984Y0046132D01*
X0333964Y0046189D01*
X0333948Y0046248D01*
X0333935Y0046307D01*
X0333926Y0046366D01*
X0333921Y0046427D01*
X0333919Y0046487D01*
X0333919Y0049487D02*
X0333921Y0049547D01*
X0333926Y0049608D01*
X0333935Y0049667D01*
X0333948Y0049726D01*
X0333964Y0049785D01*
X0333984Y0049842D01*
X0334007Y0049897D01*
X0334034Y0049952D01*
X0334063Y0050004D01*
X0334096Y0050055D01*
X0334132Y0050104D01*
X0334170Y0050150D01*
X0334212Y0050194D01*
X0334256Y0050236D01*
X0334302Y0050274D01*
X0334351Y0050310D01*
X0334402Y0050343D01*
X0334454Y0050372D01*
X0334509Y0050399D01*
X0334564Y0050422D01*
X0334621Y0050442D01*
X0334680Y0050458D01*
X0334739Y0050471D01*
X0334798Y0050480D01*
X0334859Y0050485D01*
X0334919Y0050487D01*
X0330419Y0042487D02*
X0317419Y0042487D01*
X0317332Y0042485D01*
X0317245Y0042479D01*
X0317158Y0042470D01*
X0317072Y0042457D01*
X0316986Y0042440D01*
X0316901Y0042419D01*
X0316818Y0042394D01*
X0316735Y0042366D01*
X0316654Y0042335D01*
X0316574Y0042300D01*
X0316496Y0042261D01*
X0316419Y0042219D01*
X0316344Y0042174D01*
X0316272Y0042125D01*
X0316201Y0042074D01*
X0316133Y0042019D01*
X0316068Y0041962D01*
X0316005Y0041901D01*
X0315944Y0041838D01*
X0315887Y0041773D01*
X0315832Y0041705D01*
X0315781Y0041634D01*
X0315732Y0041562D01*
X0315687Y0041487D01*
X0315645Y0041410D01*
X0315606Y0041332D01*
X0315571Y0041252D01*
X0315540Y0041171D01*
X0315512Y0041088D01*
X0315487Y0041005D01*
X0315466Y0040920D01*
X0315449Y0040834D01*
X0315436Y0040748D01*
X0315427Y0040661D01*
X0315421Y0040574D01*
X0315419Y0040487D01*
X0318919Y0037987D02*
X0322719Y0037987D01*
X0325219Y0037987D02*
X0328919Y0037987D01*
X0332419Y0035487D02*
X0332417Y0035400D01*
X0332411Y0035313D01*
X0332402Y0035226D01*
X0332389Y0035140D01*
X0332372Y0035054D01*
X0332351Y0034969D01*
X0332326Y0034886D01*
X0332298Y0034803D01*
X0332267Y0034722D01*
X0332232Y0034642D01*
X0332193Y0034564D01*
X0332151Y0034487D01*
X0332106Y0034412D01*
X0332057Y0034340D01*
X0332006Y0034269D01*
X0331951Y0034201D01*
X0331894Y0034136D01*
X0331833Y0034073D01*
X0331770Y0034012D01*
X0331705Y0033955D01*
X0331637Y0033900D01*
X0331566Y0033849D01*
X0331494Y0033800D01*
X0331419Y0033755D01*
X0331342Y0033713D01*
X0331264Y0033674D01*
X0331184Y0033639D01*
X0331103Y0033608D01*
X0331020Y0033580D01*
X0330937Y0033555D01*
X0330852Y0033534D01*
X0330766Y0033517D01*
X0330680Y0033504D01*
X0330593Y0033495D01*
X0330506Y0033489D01*
X0330419Y0033487D01*
X0317419Y0033487D01*
X0317332Y0033489D01*
X0317245Y0033495D01*
X0317158Y0033504D01*
X0317072Y0033517D01*
X0316986Y0033534D01*
X0316901Y0033555D01*
X0316818Y0033580D01*
X0316735Y0033608D01*
X0316654Y0033639D01*
X0316574Y0033674D01*
X0316496Y0033713D01*
X0316419Y0033755D01*
X0316344Y0033800D01*
X0316272Y0033849D01*
X0316201Y0033900D01*
X0316133Y0033955D01*
X0316068Y0034012D01*
X0316005Y0034073D01*
X0315944Y0034136D01*
X0315887Y0034201D01*
X0315832Y0034269D01*
X0315781Y0034340D01*
X0315732Y0034412D01*
X0315687Y0034487D01*
X0315645Y0034564D01*
X0315606Y0034642D01*
X0315571Y0034722D01*
X0315540Y0034803D01*
X0315512Y0034886D01*
X0315487Y0034969D01*
X0315466Y0035054D01*
X0315449Y0035140D01*
X0315436Y0035226D01*
X0315427Y0035313D01*
X0315421Y0035400D01*
X0315419Y0035487D01*
X0330419Y0042487D02*
X0330506Y0042485D01*
X0330593Y0042479D01*
X0330680Y0042470D01*
X0330766Y0042457D01*
X0330852Y0042440D01*
X0330937Y0042419D01*
X0331020Y0042394D01*
X0331103Y0042366D01*
X0331184Y0042335D01*
X0331264Y0042300D01*
X0331342Y0042261D01*
X0331419Y0042219D01*
X0331494Y0042174D01*
X0331566Y0042125D01*
X0331637Y0042074D01*
X0331705Y0042019D01*
X0331770Y0041962D01*
X0331833Y0041901D01*
X0331894Y0041838D01*
X0331951Y0041773D01*
X0332006Y0041705D01*
X0332057Y0041634D01*
X0332106Y0041562D01*
X0332151Y0041487D01*
X0332193Y0041410D01*
X0332232Y0041332D01*
X0332267Y0041252D01*
X0332298Y0041171D01*
X0332326Y0041088D01*
X0332351Y0041005D01*
X0332372Y0040920D01*
X0332389Y0040834D01*
X0332402Y0040748D01*
X0332411Y0040661D01*
X0332417Y0040574D01*
X0332419Y0040487D01*
X0183919Y0034987D02*
X0183917Y0034927D01*
X0183912Y0034866D01*
X0183903Y0034807D01*
X0183890Y0034748D01*
X0183874Y0034689D01*
X0183854Y0034632D01*
X0183831Y0034577D01*
X0183804Y0034522D01*
X0183775Y0034470D01*
X0183742Y0034419D01*
X0183706Y0034370D01*
X0183668Y0034324D01*
X0183626Y0034280D01*
X0183582Y0034238D01*
X0183536Y0034200D01*
X0183487Y0034164D01*
X0183436Y0034131D01*
X0183384Y0034102D01*
X0183329Y0034075D01*
X0183274Y0034052D01*
X0183217Y0034032D01*
X0183158Y0034016D01*
X0183099Y0034003D01*
X0183040Y0033994D01*
X0182979Y0033989D01*
X0182919Y0033987D01*
X0048919Y0077987D02*
X0048919Y0147987D01*
X0028919Y0147987D01*
X0028919Y0077987D01*
X0048919Y0077987D01*
X0028919Y0102987D02*
X0018919Y0102987D01*
X0018919Y0104987D01*
X0028919Y0104987D01*
X0028919Y0106987D01*
X0028919Y0108987D01*
X0028919Y0110987D01*
X0028919Y0112987D01*
X0018919Y0112987D01*
X0018919Y0110987D01*
X0018919Y0108987D01*
X0028919Y0108987D01*
X0028919Y0110987D02*
X0018919Y0110987D01*
X0018919Y0108987D02*
X0018919Y0106987D01*
X0018919Y0104987D01*
X0018919Y0106987D02*
X0028919Y0106987D01*
X0028919Y0104987D02*
X0028919Y0102987D01*
D11*
X0202619Y0104987D02*
X0202619Y0107987D01*
X0202619Y0110987D01*
X0205119Y0110987D02*
X0205119Y0107987D01*
X0205119Y0104987D01*
X0212719Y0100987D02*
X0212719Y0097987D01*
X0212719Y0094987D01*
X0215219Y0094987D02*
X0215219Y0097987D01*
X0215219Y0100987D01*
X0205119Y0080987D02*
X0205119Y0077987D01*
X0205119Y0074987D01*
X0202619Y0074987D02*
X0202619Y0077987D01*
X0202619Y0080987D01*
X0212719Y0070987D02*
X0212719Y0067987D01*
X0212719Y0064987D01*
X0215219Y0064987D02*
X0215219Y0067987D01*
X0215219Y0070987D01*
X0205119Y0050987D02*
X0205119Y0047987D01*
X0205119Y0044987D01*
X0202619Y0044987D02*
X0202619Y0047987D01*
X0202619Y0050987D01*
X0212719Y0040987D02*
X0212719Y0037987D01*
X0212719Y0034987D01*
X0215219Y0034987D02*
X0215219Y0037987D01*
X0215219Y0040987D01*
X0322719Y0040987D02*
X0322719Y0037987D01*
X0322719Y0034987D01*
X0325219Y0034987D02*
X0325219Y0037987D01*
X0325219Y0040987D01*
X0325219Y0054987D02*
X0325219Y0057987D01*
X0325219Y0060987D01*
X0322719Y0060987D02*
X0322719Y0057987D01*
X0322719Y0054987D01*
X0322719Y0074987D02*
X0322719Y0077987D01*
X0322719Y0080987D01*
X0325219Y0080987D02*
X0325219Y0077987D01*
X0325219Y0074987D01*
D12*
X0338384Y0069889D02*
X0339851Y0068788D01*
X0338384Y0067687D01*
X0338747Y0067188D02*
X0337279Y0066087D01*
X0338747Y0067188D02*
X0337279Y0068289D01*
X0339488Y0068289D02*
X0339488Y0066821D01*
X0340222Y0066087D01*
X0340956Y0066821D01*
X0340956Y0068289D01*
X0340593Y0067687D02*
X0340593Y0069889D01*
X0342061Y0067687D01*
X0342061Y0069889D01*
X0342803Y0069155D02*
X0343537Y0069889D01*
X0344271Y0069155D01*
X0344271Y0067687D01*
X0343908Y0068289D02*
X0343908Y0066087D01*
X0345376Y0066087D01*
X0346118Y0066454D02*
X0346485Y0066087D01*
X0347219Y0066087D01*
X0347586Y0066454D01*
X0347586Y0068289D01*
X0347223Y0068788D02*
X0347957Y0068788D01*
X0348328Y0068289D02*
X0348328Y0066087D01*
X0349796Y0066087D01*
X0349062Y0067188D02*
X0348328Y0067188D01*
X0348691Y0067687D02*
X0347223Y0067687D01*
X0347223Y0069889D01*
X0348691Y0069889D01*
X0348328Y0068289D02*
X0349796Y0068289D01*
X0352279Y0069089D02*
X0353747Y0067988D01*
X0352279Y0066887D01*
X0354488Y0067621D02*
X0355222Y0066887D01*
X0355956Y0067621D01*
X0355956Y0069089D01*
X0356698Y0068355D02*
X0357432Y0069089D01*
X0358166Y0068355D01*
X0358166Y0066887D01*
X0358908Y0066887D02*
X0360376Y0066887D01*
X0361118Y0067254D02*
X0361485Y0066887D01*
X0362219Y0066887D01*
X0362586Y0067254D01*
X0362586Y0069089D01*
X0363328Y0069089D02*
X0363328Y0066887D01*
X0364796Y0066887D01*
X0364062Y0067988D02*
X0363328Y0067988D01*
X0363328Y0069089D02*
X0364796Y0069089D01*
X0361118Y0069089D02*
X0361118Y0067254D01*
X0358908Y0066887D02*
X0358908Y0069089D01*
X0358166Y0067988D02*
X0356698Y0067988D01*
X0356698Y0068355D02*
X0356698Y0066887D01*
X0354488Y0067621D02*
X0354488Y0069089D01*
X0353384Y0071887D02*
X0354851Y0072988D01*
X0353384Y0074089D01*
X0355593Y0074089D02*
X0357061Y0071887D01*
X0357061Y0074089D01*
X0357803Y0073355D02*
X0358537Y0074089D01*
X0359271Y0073355D01*
X0359271Y0071887D01*
X0360013Y0071887D02*
X0360013Y0074089D01*
X0360747Y0073355D01*
X0361481Y0074089D01*
X0361481Y0071887D01*
X0362223Y0071887D02*
X0363691Y0071887D01*
X0362957Y0072988D02*
X0362223Y0072988D01*
X0362223Y0074089D02*
X0362223Y0071887D01*
X0362223Y0074089D02*
X0363691Y0074089D01*
X0359271Y0072988D02*
X0357803Y0072988D01*
X0357803Y0073355D02*
X0357803Y0071887D01*
X0355593Y0071887D02*
X0355593Y0074089D01*
X0346481Y0069889D02*
X0346481Y0067687D01*
X0346118Y0068289D02*
X0346118Y0066454D01*
X0345013Y0067687D02*
X0345013Y0069889D01*
X0345747Y0069155D01*
X0346481Y0069889D01*
X0344271Y0068788D02*
X0342803Y0068788D01*
X0342803Y0069155D02*
X0342803Y0067687D01*
X0343166Y0067555D02*
X0343166Y0066087D01*
X0343166Y0067188D02*
X0341698Y0067188D01*
X0341698Y0067555D02*
X0342432Y0068289D01*
X0343166Y0067555D01*
X0341698Y0067555D02*
X0341698Y0066087D01*
X0353384Y0054089D02*
X0354851Y0052988D01*
X0353384Y0051887D01*
X0355593Y0051887D02*
X0355593Y0054089D01*
X0357061Y0051887D01*
X0357061Y0054089D01*
X0357803Y0053355D02*
X0358537Y0054089D01*
X0359271Y0053355D01*
X0359271Y0051887D01*
X0360013Y0051887D02*
X0360013Y0054089D01*
X0360747Y0053355D01*
X0361481Y0054089D01*
X0361481Y0051887D01*
X0362223Y0051887D02*
X0363691Y0051887D01*
X0362957Y0052988D02*
X0362223Y0052988D01*
X0362223Y0054089D02*
X0362223Y0051887D01*
X0362223Y0054089D02*
X0363691Y0054089D01*
X0359271Y0052988D02*
X0357803Y0052988D01*
X0357803Y0053355D02*
X0357803Y0051887D01*
X0357432Y0049089D02*
X0358166Y0048355D01*
X0358166Y0046887D01*
X0358908Y0046887D02*
X0360376Y0046887D01*
X0361118Y0047254D02*
X0361485Y0046887D01*
X0362219Y0046887D01*
X0362586Y0047254D01*
X0362586Y0049089D01*
X0363328Y0049089D02*
X0363328Y0046887D01*
X0364796Y0046887D01*
X0364062Y0047988D02*
X0363328Y0047988D01*
X0363328Y0049089D02*
X0364796Y0049089D01*
X0361118Y0049089D02*
X0361118Y0047254D01*
X0358908Y0046887D02*
X0358908Y0049089D01*
X0358166Y0047988D02*
X0356698Y0047988D01*
X0356698Y0048355D02*
X0357432Y0049089D01*
X0356698Y0048355D02*
X0356698Y0046887D01*
X0355956Y0047621D02*
X0355956Y0049089D01*
X0354488Y0049089D02*
X0354488Y0047621D01*
X0355222Y0046887D01*
X0355956Y0047621D01*
X0353747Y0047988D02*
X0352279Y0049089D01*
X0353747Y0047988D02*
X0352279Y0046887D01*
X0349796Y0046087D02*
X0348328Y0046087D01*
X0348328Y0048289D01*
X0349796Y0048289D01*
X0348691Y0047687D02*
X0347223Y0047687D01*
X0347223Y0049889D01*
X0348691Y0049889D01*
X0347957Y0048788D02*
X0347223Y0048788D01*
X0347586Y0048289D02*
X0347586Y0046454D01*
X0347219Y0046087D01*
X0346485Y0046087D01*
X0346118Y0046454D01*
X0346118Y0048289D01*
X0346481Y0047687D02*
X0346481Y0049889D01*
X0345747Y0049155D01*
X0345013Y0049889D01*
X0345013Y0047687D01*
X0344271Y0047687D02*
X0344271Y0049155D01*
X0343537Y0049889D01*
X0342803Y0049155D01*
X0342803Y0047687D01*
X0343166Y0047555D02*
X0343166Y0046087D01*
X0343908Y0046087D02*
X0343908Y0048289D01*
X0344271Y0048788D02*
X0342803Y0048788D01*
X0342432Y0048289D02*
X0343166Y0047555D01*
X0343166Y0047188D02*
X0341698Y0047188D01*
X0341698Y0047555D02*
X0342432Y0048289D01*
X0342061Y0047687D02*
X0342061Y0049889D01*
X0340593Y0049889D02*
X0342061Y0047687D01*
X0341698Y0047555D02*
X0341698Y0046087D01*
X0340956Y0046821D02*
X0340222Y0046087D01*
X0339488Y0046821D01*
X0339488Y0048289D01*
X0339851Y0048788D02*
X0338384Y0047687D01*
X0338747Y0047188D02*
X0337279Y0046087D01*
X0338747Y0047188D02*
X0337279Y0048289D01*
X0338384Y0049889D02*
X0339851Y0048788D01*
X0340956Y0048289D02*
X0340956Y0046821D01*
X0340593Y0047687D02*
X0340593Y0049889D01*
X0343908Y0046087D02*
X0345376Y0046087D01*
X0348328Y0047188D02*
X0349062Y0047188D01*
X0349796Y0028289D02*
X0348328Y0028289D01*
X0348328Y0026087D01*
X0349796Y0026087D01*
X0349062Y0027188D02*
X0348328Y0027188D01*
X0347586Y0026454D02*
X0347586Y0028289D01*
X0346118Y0028289D02*
X0346118Y0026454D01*
X0346485Y0026087D01*
X0347219Y0026087D01*
X0347586Y0026454D01*
X0345376Y0026087D02*
X0343908Y0026087D01*
X0343908Y0028289D01*
X0343166Y0027555D02*
X0343166Y0026087D01*
X0343166Y0027188D02*
X0341698Y0027188D01*
X0341698Y0027555D02*
X0342432Y0028289D01*
X0343166Y0027555D01*
X0341698Y0027555D02*
X0341698Y0026087D01*
X0340956Y0026821D02*
X0340222Y0026087D01*
X0339488Y0026821D01*
X0339488Y0028289D01*
X0338747Y0027188D02*
X0337279Y0026087D01*
X0338747Y0027188D02*
X0337279Y0028289D01*
X0340956Y0028289D02*
X0340956Y0026821D01*
X0259796Y0016789D02*
X0258328Y0016789D01*
X0258328Y0014587D01*
X0259796Y0014587D01*
X0259062Y0015688D02*
X0258328Y0015688D01*
X0257586Y0014954D02*
X0257586Y0016789D01*
X0256118Y0016789D02*
X0256118Y0014954D01*
X0256485Y0014587D01*
X0257219Y0014587D01*
X0257586Y0014954D01*
X0255376Y0014587D02*
X0253908Y0014587D01*
X0253908Y0016789D01*
X0253166Y0016055D02*
X0253166Y0014587D01*
X0253166Y0015688D02*
X0251698Y0015688D01*
X0251698Y0016055D02*
X0252432Y0016789D01*
X0253166Y0016055D01*
X0251698Y0016055D02*
X0251698Y0014587D01*
X0250956Y0015321D02*
X0250222Y0014587D01*
X0249488Y0015321D01*
X0249488Y0016789D01*
X0248747Y0015688D02*
X0247279Y0014587D01*
X0248747Y0015688D02*
X0247279Y0016789D01*
X0250956Y0016789D02*
X0250956Y0015321D01*
X0239796Y0026087D02*
X0238328Y0026087D01*
X0238328Y0028289D01*
X0239796Y0028289D01*
X0239062Y0027188D02*
X0238328Y0027188D01*
X0237586Y0026454D02*
X0237586Y0028289D01*
X0236118Y0028289D02*
X0236118Y0026454D01*
X0236485Y0026087D01*
X0237219Y0026087D01*
X0237586Y0026454D01*
X0235376Y0026087D02*
X0233908Y0026087D01*
X0233908Y0028289D01*
X0233166Y0027555D02*
X0233166Y0026087D01*
X0233166Y0027188D02*
X0231698Y0027188D01*
X0231698Y0027555D02*
X0232432Y0028289D01*
X0233166Y0027555D01*
X0231698Y0027555D02*
X0231698Y0026087D01*
X0230956Y0026821D02*
X0230222Y0026087D01*
X0229488Y0026821D01*
X0229488Y0028289D01*
X0228747Y0027188D02*
X0227279Y0026087D01*
X0228747Y0027188D02*
X0227279Y0028289D01*
X0230956Y0028289D02*
X0230956Y0026821D01*
X0228691Y0036087D02*
X0227223Y0036087D01*
X0227223Y0038289D01*
X0228691Y0038289D01*
X0227957Y0037188D02*
X0227223Y0037188D01*
X0226481Y0038289D02*
X0226481Y0036087D01*
X0225013Y0036087D02*
X0225013Y0038289D01*
X0225747Y0037555D01*
X0226481Y0038289D01*
X0224271Y0037555D02*
X0224271Y0036087D01*
X0224271Y0037188D02*
X0222803Y0037188D01*
X0222803Y0037555D02*
X0223537Y0038289D01*
X0224271Y0037555D01*
X0222803Y0037555D02*
X0222803Y0036087D01*
X0222061Y0036087D02*
X0222061Y0038289D01*
X0220593Y0038289D02*
X0220593Y0036087D01*
X0219851Y0037188D02*
X0218384Y0036087D01*
X0219851Y0037188D02*
X0218384Y0038289D01*
X0220593Y0038289D02*
X0222061Y0036087D01*
X0247279Y0044587D02*
X0248747Y0045688D01*
X0247279Y0046789D01*
X0249488Y0046789D02*
X0249488Y0045321D01*
X0250222Y0044587D01*
X0250956Y0045321D01*
X0250956Y0046789D01*
X0251698Y0046055D02*
X0252432Y0046789D01*
X0253166Y0046055D01*
X0253166Y0044587D01*
X0253908Y0044587D02*
X0255376Y0044587D01*
X0256118Y0044954D02*
X0256485Y0044587D01*
X0257219Y0044587D01*
X0257586Y0044954D01*
X0257586Y0046789D01*
X0258328Y0046789D02*
X0258328Y0044587D01*
X0259796Y0044587D01*
X0259062Y0045688D02*
X0258328Y0045688D01*
X0258328Y0046789D02*
X0259796Y0046789D01*
X0256118Y0046789D02*
X0256118Y0044954D01*
X0253908Y0044587D02*
X0253908Y0046789D01*
X0253166Y0045688D02*
X0251698Y0045688D01*
X0251698Y0046055D02*
X0251698Y0044587D01*
X0238691Y0047687D02*
X0237223Y0047687D01*
X0237223Y0049889D01*
X0238691Y0049889D01*
X0237957Y0048788D02*
X0237223Y0048788D01*
X0236481Y0049889D02*
X0236481Y0047687D01*
X0235013Y0047687D02*
X0235013Y0049889D01*
X0235747Y0049155D01*
X0236481Y0049889D01*
X0234271Y0049155D02*
X0234271Y0047687D01*
X0234271Y0048788D02*
X0232803Y0048788D01*
X0232803Y0049155D02*
X0233537Y0049889D01*
X0234271Y0049155D01*
X0232803Y0049155D02*
X0232803Y0047687D01*
X0232061Y0047687D02*
X0232061Y0049889D01*
X0230593Y0049889D02*
X0232061Y0047687D01*
X0230593Y0047687D02*
X0230593Y0049889D01*
X0229851Y0048788D02*
X0228384Y0047687D01*
X0229851Y0048788D02*
X0228384Y0049889D01*
X0227279Y0056087D02*
X0228747Y0057188D01*
X0227279Y0058289D01*
X0227586Y0058054D02*
X0227586Y0059889D01*
X0228328Y0059889D02*
X0228328Y0057687D01*
X0229796Y0057687D01*
X0229488Y0058289D02*
X0229488Y0056821D01*
X0230222Y0056087D01*
X0230956Y0056821D01*
X0230956Y0058289D01*
X0231698Y0057555D02*
X0232432Y0058289D01*
X0233166Y0057555D01*
X0233166Y0056087D01*
X0233908Y0056087D02*
X0235376Y0056087D01*
X0236118Y0056454D02*
X0236485Y0056087D01*
X0237219Y0056087D01*
X0237586Y0056454D01*
X0237586Y0058289D01*
X0238328Y0058289D02*
X0238328Y0056087D01*
X0239796Y0056087D01*
X0239062Y0057188D02*
X0238328Y0057188D01*
X0238328Y0058289D02*
X0239796Y0058289D01*
X0236118Y0058289D02*
X0236118Y0056454D01*
X0233908Y0056087D02*
X0233908Y0058289D01*
X0233166Y0057188D02*
X0231698Y0057188D01*
X0231698Y0057555D02*
X0231698Y0056087D01*
X0227586Y0058054D02*
X0227219Y0057687D01*
X0226485Y0057687D01*
X0226118Y0058054D01*
X0226118Y0059889D01*
X0223908Y0059889D02*
X0223908Y0057687D01*
X0225376Y0057687D01*
X0223166Y0057687D02*
X0223166Y0059155D01*
X0222432Y0059889D01*
X0221698Y0059155D01*
X0221698Y0057687D01*
X0220956Y0058421D02*
X0220956Y0059889D01*
X0221698Y0058788D02*
X0223166Y0058788D01*
X0220956Y0058421D02*
X0220222Y0057687D01*
X0219488Y0058421D01*
X0219488Y0059889D01*
X0218747Y0058788D02*
X0217279Y0057687D01*
X0218747Y0058788D02*
X0217279Y0059889D01*
X0228328Y0059889D02*
X0229796Y0059889D01*
X0229062Y0058788D02*
X0228328Y0058788D01*
X0228691Y0066087D02*
X0227223Y0066087D01*
X0227223Y0068289D01*
X0228691Y0068289D01*
X0227957Y0067188D02*
X0227223Y0067188D01*
X0226481Y0068289D02*
X0226481Y0066087D01*
X0225013Y0066087D02*
X0225013Y0068289D01*
X0225747Y0067555D01*
X0226481Y0068289D01*
X0224271Y0067555D02*
X0224271Y0066087D01*
X0224271Y0067188D02*
X0222803Y0067188D01*
X0222803Y0067555D02*
X0223537Y0068289D01*
X0224271Y0067555D01*
X0222803Y0067555D02*
X0222803Y0066087D01*
X0222061Y0066087D02*
X0222061Y0068289D01*
X0220593Y0068289D02*
X0220593Y0066087D01*
X0219851Y0067188D02*
X0218384Y0066087D01*
X0219851Y0067188D02*
X0218384Y0068289D01*
X0220593Y0068289D02*
X0222061Y0066087D01*
X0247279Y0074587D02*
X0248747Y0075688D01*
X0247279Y0076789D01*
X0249488Y0076789D02*
X0249488Y0075321D01*
X0250222Y0074587D01*
X0250956Y0075321D01*
X0250956Y0076789D01*
X0251698Y0076055D02*
X0252432Y0076789D01*
X0253166Y0076055D01*
X0253166Y0074587D01*
X0253908Y0074587D02*
X0255376Y0074587D01*
X0256118Y0074954D02*
X0256485Y0074587D01*
X0257219Y0074587D01*
X0257586Y0074954D01*
X0257586Y0076789D01*
X0258328Y0076789D02*
X0258328Y0074587D01*
X0259796Y0074587D01*
X0259062Y0075688D02*
X0258328Y0075688D01*
X0258328Y0076789D02*
X0259796Y0076789D01*
X0256118Y0076789D02*
X0256118Y0074954D01*
X0253908Y0074587D02*
X0253908Y0076789D01*
X0253166Y0075688D02*
X0251698Y0075688D01*
X0251698Y0076055D02*
X0251698Y0074587D01*
X0238691Y0077687D02*
X0237223Y0077687D01*
X0237223Y0079889D01*
X0238691Y0079889D01*
X0237957Y0078788D02*
X0237223Y0078788D01*
X0236481Y0079889D02*
X0236481Y0077687D01*
X0235013Y0077687D02*
X0235013Y0079889D01*
X0235747Y0079155D01*
X0236481Y0079889D01*
X0234271Y0079155D02*
X0234271Y0077687D01*
X0234271Y0078788D02*
X0232803Y0078788D01*
X0232803Y0079155D02*
X0233537Y0079889D01*
X0234271Y0079155D01*
X0232803Y0079155D02*
X0232803Y0077687D01*
X0232061Y0077687D02*
X0232061Y0079889D01*
X0230593Y0079889D02*
X0232061Y0077687D01*
X0230593Y0077687D02*
X0230593Y0079889D01*
X0229851Y0078788D02*
X0228384Y0077687D01*
X0229851Y0078788D02*
X0228384Y0079889D01*
X0227279Y0086087D02*
X0228747Y0087188D01*
X0227279Y0088289D01*
X0227586Y0088054D02*
X0227586Y0089889D01*
X0228328Y0089889D02*
X0228328Y0087687D01*
X0229796Y0087687D01*
X0229488Y0088289D02*
X0229488Y0086821D01*
X0230222Y0086087D01*
X0230956Y0086821D01*
X0230956Y0088289D01*
X0231698Y0087555D02*
X0232432Y0088289D01*
X0233166Y0087555D01*
X0233166Y0086087D01*
X0233908Y0086087D02*
X0235376Y0086087D01*
X0236118Y0086454D02*
X0236485Y0086087D01*
X0237219Y0086087D01*
X0237586Y0086454D01*
X0237586Y0088289D01*
X0238328Y0088289D02*
X0238328Y0086087D01*
X0239796Y0086087D01*
X0239062Y0087188D02*
X0238328Y0087188D01*
X0238328Y0088289D02*
X0239796Y0088289D01*
X0236118Y0088289D02*
X0236118Y0086454D01*
X0233908Y0086087D02*
X0233908Y0088289D01*
X0233166Y0087188D02*
X0231698Y0087188D01*
X0231698Y0087555D02*
X0231698Y0086087D01*
X0227586Y0088054D02*
X0227219Y0087687D01*
X0226485Y0087687D01*
X0226118Y0088054D01*
X0226118Y0089889D01*
X0223908Y0089889D02*
X0223908Y0087687D01*
X0225376Y0087687D01*
X0223166Y0087687D02*
X0223166Y0089155D01*
X0222432Y0089889D01*
X0221698Y0089155D01*
X0221698Y0087687D01*
X0220956Y0088421D02*
X0220956Y0089889D01*
X0221698Y0088788D02*
X0223166Y0088788D01*
X0220956Y0088421D02*
X0220222Y0087687D01*
X0219488Y0088421D01*
X0219488Y0089889D01*
X0218747Y0088788D02*
X0217279Y0087687D01*
X0218747Y0088788D02*
X0217279Y0089889D01*
X0228328Y0089889D02*
X0229796Y0089889D01*
X0229062Y0088788D02*
X0228328Y0088788D01*
X0228691Y0096087D02*
X0227223Y0096087D01*
X0227223Y0098289D01*
X0228691Y0098289D01*
X0227957Y0097188D02*
X0227223Y0097188D01*
X0226481Y0098289D02*
X0226481Y0096087D01*
X0225013Y0096087D02*
X0225013Y0098289D01*
X0225747Y0097555D01*
X0226481Y0098289D01*
X0224271Y0097555D02*
X0224271Y0096087D01*
X0224271Y0097188D02*
X0222803Y0097188D01*
X0222803Y0097555D02*
X0223537Y0098289D01*
X0224271Y0097555D01*
X0222803Y0097555D02*
X0222803Y0096087D01*
X0222061Y0096087D02*
X0222061Y0098289D01*
X0220593Y0098289D02*
X0220593Y0096087D01*
X0219851Y0097188D02*
X0218384Y0096087D01*
X0219851Y0097188D02*
X0218384Y0098289D01*
X0220593Y0098289D02*
X0222061Y0096087D01*
X0228384Y0107687D02*
X0229851Y0108788D01*
X0228384Y0109889D01*
X0230593Y0109889D02*
X0232061Y0107687D01*
X0232061Y0109889D01*
X0232803Y0109155D02*
X0233537Y0109889D01*
X0234271Y0109155D01*
X0234271Y0107687D01*
X0235013Y0107687D02*
X0235013Y0109889D01*
X0235747Y0109155D01*
X0236481Y0109889D01*
X0236481Y0107687D01*
X0237223Y0107687D02*
X0237223Y0109889D01*
X0238691Y0109889D01*
X0237957Y0108788D02*
X0237223Y0108788D01*
X0237223Y0107687D02*
X0238691Y0107687D01*
X0234271Y0108788D02*
X0232803Y0108788D01*
X0232803Y0109155D02*
X0232803Y0107687D01*
X0230593Y0107687D02*
X0230593Y0109889D01*
X0229796Y0117687D02*
X0228328Y0117687D01*
X0228328Y0119889D01*
X0229796Y0119889D01*
X0229062Y0118788D02*
X0228328Y0118788D01*
X0227586Y0118054D02*
X0227586Y0119889D01*
X0226118Y0119889D02*
X0226118Y0118054D01*
X0226485Y0117687D01*
X0227219Y0117687D01*
X0227586Y0118054D01*
X0225376Y0117687D02*
X0223908Y0117687D01*
X0223908Y0119889D01*
X0223166Y0119155D02*
X0223166Y0117687D01*
X0223166Y0118788D02*
X0221698Y0118788D01*
X0221698Y0119155D02*
X0222432Y0119889D01*
X0223166Y0119155D01*
X0221698Y0119155D02*
X0221698Y0117687D01*
X0220956Y0118421D02*
X0220956Y0119889D01*
X0219488Y0119889D02*
X0219488Y0118421D01*
X0220222Y0117687D01*
X0220956Y0118421D01*
X0218747Y0118788D02*
X0217279Y0117687D01*
X0218747Y0118788D02*
X0217279Y0119889D01*
X0194819Y0112172D02*
X0194819Y0110704D01*
X0192618Y0110704D01*
X0192618Y0112172D01*
X0192319Y0112574D02*
X0190118Y0112574D01*
X0192319Y0114042D01*
X0190118Y0114042D01*
X0190852Y0114784D02*
X0190118Y0115518D01*
X0190852Y0116252D01*
X0192319Y0116252D01*
X0192319Y0116994D02*
X0190118Y0116994D01*
X0190852Y0117728D01*
X0190118Y0118462D01*
X0192319Y0118462D01*
X0192319Y0119204D02*
X0192319Y0120672D01*
X0191219Y0119938D02*
X0191219Y0119204D01*
X0192319Y0119204D02*
X0190118Y0119204D01*
X0190118Y0120672D01*
X0191219Y0116252D02*
X0191219Y0114784D01*
X0190852Y0114784D02*
X0192319Y0114784D01*
X0191219Y0111832D02*
X0192319Y0110364D01*
X0192618Y0109962D02*
X0194819Y0109962D01*
X0193719Y0110704D02*
X0193719Y0111438D01*
X0192618Y0109962D02*
X0193352Y0109228D01*
X0192618Y0108494D01*
X0194819Y0108494D01*
X0194819Y0107752D02*
X0193352Y0107752D01*
X0192618Y0107018D01*
X0193352Y0106284D01*
X0194819Y0106284D01*
X0194819Y0105542D02*
X0192618Y0105542D01*
X0193719Y0106284D02*
X0193719Y0107752D01*
X0194819Y0105542D02*
X0192618Y0104074D01*
X0194819Y0104074D01*
X0193719Y0103332D02*
X0192618Y0101864D01*
X0193719Y0103332D02*
X0194819Y0101864D01*
X0190118Y0110364D02*
X0191219Y0111832D01*
X0192618Y0131864D02*
X0193719Y0133332D01*
X0194819Y0131864D01*
X0194819Y0134074D02*
X0192618Y0134074D01*
X0194819Y0135542D01*
X0192618Y0135542D01*
X0193352Y0136284D02*
X0192618Y0137018D01*
X0193352Y0137752D01*
X0194819Y0137752D01*
X0194819Y0138494D02*
X0192618Y0138494D01*
X0193352Y0139228D01*
X0192618Y0139962D01*
X0194819Y0139962D01*
X0194819Y0140704D02*
X0192618Y0140704D01*
X0192618Y0142172D01*
X0192319Y0142574D02*
X0190118Y0142574D01*
X0192319Y0144042D01*
X0190118Y0144042D01*
X0190852Y0144784D02*
X0190118Y0145518D01*
X0190852Y0146252D01*
X0192319Y0146252D01*
X0192319Y0146994D02*
X0190118Y0146994D01*
X0190852Y0147728D01*
X0190118Y0148462D01*
X0192319Y0148462D01*
X0192319Y0149204D02*
X0192319Y0150672D01*
X0191219Y0149938D02*
X0191219Y0149204D01*
X0192319Y0149204D02*
X0190118Y0149204D01*
X0190118Y0150672D01*
X0191219Y0146252D02*
X0191219Y0144784D01*
X0190852Y0144784D02*
X0192319Y0144784D01*
X0194819Y0142172D02*
X0194819Y0140704D01*
X0193719Y0140704D02*
X0193719Y0141438D01*
X0192319Y0140364D02*
X0191219Y0141832D01*
X0190118Y0140364D01*
X0193719Y0137752D02*
X0193719Y0136284D01*
X0193352Y0136284D02*
X0194819Y0136284D01*
X0283018Y0103344D02*
X0283018Y0101877D01*
X0285219Y0101877D01*
X0285219Y0103344D01*
X0284119Y0102611D02*
X0284119Y0101877D01*
X0285219Y0101135D02*
X0283018Y0101135D01*
X0283752Y0100401D01*
X0283018Y0099667D01*
X0285219Y0099667D01*
X0285219Y0098925D02*
X0283752Y0098925D01*
X0283018Y0098191D01*
X0283752Y0097457D01*
X0285219Y0097457D01*
X0285219Y0096715D02*
X0283018Y0096715D01*
X0284119Y0097457D02*
X0284119Y0098925D01*
X0285219Y0096715D02*
X0283018Y0095247D01*
X0285219Y0095247D01*
X0284119Y0094505D02*
X0285219Y0093037D01*
X0284119Y0094505D02*
X0283018Y0093037D01*
X0303018Y0103037D02*
X0304119Y0104505D01*
X0305219Y0103037D01*
X0305219Y0105247D02*
X0303018Y0105247D01*
X0305219Y0106715D01*
X0303018Y0106715D01*
X0303752Y0107457D02*
X0303018Y0108191D01*
X0303752Y0108925D01*
X0305219Y0108925D01*
X0305219Y0109667D02*
X0303018Y0109667D01*
X0303752Y0110401D01*
X0303018Y0111135D01*
X0305219Y0111135D01*
X0305219Y0111877D02*
X0303018Y0111877D01*
X0303018Y0113344D01*
X0304119Y0112611D02*
X0304119Y0111877D01*
X0305219Y0111877D02*
X0305219Y0113344D01*
X0304119Y0108925D02*
X0304119Y0107457D01*
X0303752Y0107457D02*
X0305219Y0107457D01*
X0338384Y0089889D02*
X0339851Y0088788D01*
X0338384Y0087687D01*
X0340593Y0087687D02*
X0340593Y0089889D01*
X0342061Y0087687D01*
X0342061Y0089889D01*
X0342803Y0089155D02*
X0343537Y0089889D01*
X0344271Y0089155D01*
X0344271Y0087687D01*
X0345013Y0087687D02*
X0345013Y0089889D01*
X0345747Y0089155D01*
X0346481Y0089889D01*
X0346481Y0087687D01*
X0347223Y0087687D02*
X0348691Y0087687D01*
X0347957Y0088788D02*
X0347223Y0088788D01*
X0347223Y0089889D02*
X0347223Y0087687D01*
X0347223Y0089889D02*
X0348691Y0089889D01*
X0352279Y0089089D02*
X0353747Y0087988D01*
X0352279Y0086887D01*
X0354488Y0087621D02*
X0355222Y0086887D01*
X0355956Y0087621D01*
X0355956Y0089089D01*
X0356698Y0088355D02*
X0357432Y0089089D01*
X0358166Y0088355D01*
X0358166Y0086887D01*
X0358908Y0086887D02*
X0360376Y0086887D01*
X0361118Y0087254D02*
X0361485Y0086887D01*
X0362219Y0086887D01*
X0362586Y0087254D01*
X0362586Y0089089D01*
X0363328Y0089089D02*
X0363328Y0086887D01*
X0364796Y0086887D01*
X0364062Y0087988D02*
X0363328Y0087988D01*
X0363328Y0089089D02*
X0364796Y0089089D01*
X0361118Y0089089D02*
X0361118Y0087254D01*
X0358908Y0086887D02*
X0358908Y0089089D01*
X0358166Y0087988D02*
X0356698Y0087988D01*
X0356698Y0088355D02*
X0356698Y0086887D01*
X0354488Y0087621D02*
X0354488Y0089089D01*
X0353384Y0091887D02*
X0354851Y0092988D01*
X0353384Y0094089D01*
X0355593Y0094089D02*
X0357061Y0091887D01*
X0357061Y0094089D01*
X0357803Y0093355D02*
X0358537Y0094089D01*
X0359271Y0093355D01*
X0359271Y0091887D01*
X0360013Y0091887D02*
X0360013Y0094089D01*
X0360747Y0093355D01*
X0361481Y0094089D01*
X0361481Y0091887D01*
X0362223Y0091887D02*
X0363691Y0091887D01*
X0362957Y0092988D02*
X0362223Y0092988D01*
X0362223Y0094089D02*
X0362223Y0091887D01*
X0362223Y0094089D02*
X0363691Y0094089D01*
X0359271Y0092988D02*
X0357803Y0092988D01*
X0357803Y0093355D02*
X0357803Y0091887D01*
X0355593Y0091887D02*
X0355593Y0094089D01*
X0344271Y0088788D02*
X0342803Y0088788D01*
X0342803Y0089155D02*
X0342803Y0087687D01*
X0399797Y0131887D02*
X0401265Y0132988D01*
X0399797Y0134089D01*
X0402007Y0134089D02*
X0402007Y0132621D01*
X0402741Y0131887D01*
X0403475Y0132621D01*
X0403475Y0134089D01*
X0404217Y0133355D02*
X0404951Y0134089D01*
X0405685Y0133355D01*
X0405685Y0131887D01*
X0406427Y0131887D02*
X0407895Y0131887D01*
X0408637Y0132254D02*
X0409004Y0131887D01*
X0409738Y0131887D01*
X0410105Y0132254D01*
X0410105Y0134089D01*
X0410847Y0134089D02*
X0410847Y0131887D01*
X0412315Y0131887D01*
X0411581Y0132988D02*
X0410847Y0132988D01*
X0410847Y0134089D02*
X0412315Y0134089D01*
X0408637Y0134089D02*
X0408637Y0132254D01*
X0406427Y0131887D02*
X0406427Y0134089D01*
X0405685Y0132988D02*
X0404217Y0132988D01*
X0404217Y0133355D02*
X0404217Y0131887D01*
X0378691Y0146607D02*
X0377223Y0146607D01*
X0377223Y0148809D01*
X0378691Y0148809D01*
X0377957Y0147708D02*
X0377223Y0147708D01*
X0376481Y0148809D02*
X0375747Y0148075D01*
X0375013Y0148809D01*
X0375013Y0146607D01*
X0374271Y0146607D02*
X0374271Y0148075D01*
X0373537Y0148809D01*
X0372803Y0148075D01*
X0372803Y0146607D01*
X0372061Y0146607D02*
X0372061Y0148809D01*
X0372803Y0147708D02*
X0374271Y0147708D01*
X0372061Y0146607D02*
X0370593Y0148809D01*
X0370593Y0146607D01*
X0369851Y0147708D02*
X0368384Y0146607D01*
X0369851Y0147708D02*
X0368384Y0148809D01*
X0376481Y0148809D02*
X0376481Y0146607D01*
X0292719Y0151346D02*
X0291619Y0152814D01*
X0290518Y0151346D01*
X0290518Y0153556D02*
X0291985Y0153556D01*
X0292719Y0154290D01*
X0291985Y0155024D01*
X0290518Y0155024D01*
X0291252Y0155766D02*
X0290518Y0156500D01*
X0291252Y0157233D01*
X0292719Y0157233D01*
X0292719Y0157975D02*
X0292719Y0159443D01*
X0292352Y0160185D02*
X0292719Y0160552D01*
X0292719Y0161286D01*
X0292352Y0161653D01*
X0290518Y0161653D01*
X0290518Y0162395D02*
X0292719Y0162395D01*
X0292719Y0163863D01*
X0291619Y0163129D02*
X0291619Y0162395D01*
X0290518Y0162395D02*
X0290518Y0163863D01*
X0290518Y0160185D02*
X0292352Y0160185D01*
X0292719Y0157975D02*
X0290518Y0157975D01*
X0291619Y0157233D02*
X0291619Y0155766D01*
X0291252Y0155766D02*
X0292719Y0155766D01*
X0192319Y0090672D02*
X0192319Y0089204D01*
X0190118Y0089204D01*
X0190118Y0090672D01*
X0191219Y0089938D02*
X0191219Y0089204D01*
X0192319Y0088462D02*
X0190118Y0088462D01*
X0190852Y0087728D01*
X0190118Y0086994D01*
X0192319Y0086994D01*
X0192319Y0086252D02*
X0190852Y0086252D01*
X0190118Y0085518D01*
X0190852Y0084784D01*
X0192319Y0084784D01*
X0192319Y0084042D02*
X0190118Y0084042D01*
X0191219Y0084784D02*
X0191219Y0086252D01*
X0192319Y0084042D02*
X0190118Y0082574D01*
X0192319Y0082574D01*
X0192618Y0082172D02*
X0192618Y0080704D01*
X0194819Y0080704D01*
X0194819Y0082172D01*
X0193719Y0081438D02*
X0193719Y0080704D01*
X0194819Y0079962D02*
X0192618Y0079962D01*
X0193352Y0079228D01*
X0192618Y0078494D01*
X0194819Y0078494D01*
X0194819Y0077752D02*
X0193352Y0077752D01*
X0192618Y0077018D01*
X0193352Y0076284D01*
X0194819Y0076284D01*
X0194819Y0075542D02*
X0192618Y0075542D01*
X0193719Y0076284D02*
X0193719Y0077752D01*
X0194819Y0075542D02*
X0192618Y0074074D01*
X0194819Y0074074D01*
X0193719Y0073332D02*
X0192618Y0071864D01*
X0193719Y0073332D02*
X0194819Y0071864D01*
X0192319Y0080364D02*
X0191219Y0081832D01*
X0190118Y0080364D01*
X0158691Y0057889D02*
X0157223Y0057889D01*
X0157223Y0055687D01*
X0158691Y0055687D01*
X0157957Y0056788D02*
X0157223Y0056788D01*
X0156481Y0057889D02*
X0156481Y0055687D01*
X0155013Y0055687D02*
X0155013Y0057889D01*
X0155747Y0057155D01*
X0156481Y0057889D01*
X0154271Y0057155D02*
X0154271Y0055687D01*
X0154271Y0056788D02*
X0152803Y0056788D01*
X0152803Y0057155D02*
X0153537Y0057889D01*
X0154271Y0057155D01*
X0152803Y0057155D02*
X0152803Y0055687D01*
X0152061Y0055687D02*
X0152061Y0057889D01*
X0150593Y0057889D02*
X0152061Y0055687D01*
X0150593Y0055687D02*
X0150593Y0057889D01*
X0149851Y0056788D02*
X0148384Y0055687D01*
X0149851Y0056788D02*
X0148384Y0057889D01*
X0120019Y0067864D02*
X0118919Y0069332D01*
X0117818Y0067864D01*
X0117818Y0070074D02*
X0119285Y0070074D01*
X0120019Y0070808D01*
X0119285Y0071542D01*
X0117818Y0071542D01*
X0118552Y0072284D02*
X0117818Y0073018D01*
X0118552Y0073752D01*
X0120019Y0073752D01*
X0120019Y0074494D02*
X0120019Y0075962D01*
X0119652Y0076704D02*
X0120019Y0077071D01*
X0120019Y0077805D01*
X0119652Y0078172D01*
X0117818Y0078172D01*
X0117818Y0078914D02*
X0120019Y0078914D01*
X0120019Y0080382D01*
X0118919Y0079648D02*
X0118919Y0078914D01*
X0117818Y0078914D02*
X0117818Y0080382D01*
X0117818Y0076704D02*
X0119652Y0076704D01*
X0120019Y0074494D02*
X0117818Y0074494D01*
X0118919Y0073752D02*
X0118919Y0072284D01*
X0118552Y0072284D02*
X0120019Y0072284D01*
X0089796Y0068889D02*
X0088328Y0068889D01*
X0088328Y0066687D01*
X0089796Y0066687D01*
X0089062Y0067788D02*
X0088328Y0067788D01*
X0087586Y0067054D02*
X0087586Y0068889D01*
X0086118Y0068889D02*
X0086118Y0067054D01*
X0086485Y0066687D01*
X0087219Y0066687D01*
X0087586Y0067054D01*
X0085376Y0066687D02*
X0083908Y0066687D01*
X0083908Y0068889D01*
X0083166Y0068155D02*
X0083166Y0066687D01*
X0083166Y0067788D02*
X0081698Y0067788D01*
X0081698Y0068155D02*
X0082432Y0068889D01*
X0083166Y0068155D01*
X0081698Y0068155D02*
X0081698Y0066687D01*
X0080956Y0067421D02*
X0080222Y0066687D01*
X0079488Y0067421D01*
X0079488Y0068889D01*
X0078747Y0067788D02*
X0077279Y0066687D01*
X0078747Y0067788D02*
X0077279Y0068889D01*
X0080956Y0068889D02*
X0080956Y0067421D01*
X0060019Y0067864D02*
X0058919Y0069332D01*
X0057818Y0067864D01*
X0057818Y0070074D02*
X0059285Y0070074D01*
X0060019Y0070808D01*
X0059285Y0071542D01*
X0057818Y0071542D01*
X0058552Y0072284D02*
X0057818Y0073018D01*
X0058552Y0073752D01*
X0060019Y0073752D01*
X0060019Y0074494D02*
X0060019Y0075962D01*
X0059652Y0076704D02*
X0060019Y0077071D01*
X0060019Y0077805D01*
X0059652Y0078172D01*
X0057818Y0078172D01*
X0057818Y0078914D02*
X0060019Y0078914D01*
X0060019Y0080382D01*
X0058919Y0079648D02*
X0058919Y0078914D01*
X0057818Y0078914D02*
X0057818Y0080382D01*
X0057818Y0076704D02*
X0059652Y0076704D01*
X0060019Y0074494D02*
X0057818Y0074494D01*
X0058919Y0073752D02*
X0058919Y0072284D01*
X0058552Y0072284D02*
X0060019Y0072284D01*
X0078384Y0040289D02*
X0079851Y0039188D01*
X0078384Y0038087D01*
X0080593Y0038087D02*
X0080593Y0040289D01*
X0082061Y0038087D01*
X0082061Y0040289D01*
X0082803Y0039555D02*
X0083537Y0040289D01*
X0084271Y0039555D01*
X0084271Y0038087D01*
X0085013Y0038087D02*
X0085013Y0040289D01*
X0085747Y0039555D01*
X0086481Y0040289D01*
X0086481Y0038087D01*
X0087223Y0038087D02*
X0088691Y0038087D01*
X0087957Y0039188D02*
X0087223Y0039188D01*
X0087223Y0040289D02*
X0087223Y0038087D01*
X0084271Y0039188D02*
X0082803Y0039188D01*
X0082803Y0039555D02*
X0082803Y0038087D01*
X0087223Y0040289D02*
X0088691Y0040289D01*
X0070019Y0035844D02*
X0070019Y0034377D01*
X0067818Y0034377D01*
X0067818Y0035844D01*
X0068919Y0035111D02*
X0068919Y0034377D01*
X0070019Y0033635D02*
X0067818Y0033635D01*
X0068552Y0032901D01*
X0067818Y0032167D01*
X0070019Y0032167D01*
X0070019Y0031425D02*
X0068552Y0031425D01*
X0067818Y0030691D01*
X0068552Y0029957D01*
X0070019Y0029957D01*
X0070019Y0029215D02*
X0067818Y0029215D01*
X0068919Y0029957D02*
X0068919Y0031425D01*
X0070019Y0029215D02*
X0067818Y0027747D01*
X0070019Y0027747D01*
X0068919Y0027005D02*
X0070019Y0025537D01*
X0068919Y0027005D02*
X0067818Y0025537D01*
X0039277Y0036687D02*
X0037809Y0036687D01*
X0037809Y0038889D01*
X0039277Y0038889D01*
X0038543Y0037788D02*
X0037809Y0037788D01*
X0037067Y0038889D02*
X0036333Y0038155D01*
X0035599Y0038889D01*
X0035599Y0036687D01*
X0034858Y0036687D02*
X0034858Y0038155D01*
X0034124Y0038889D01*
X0033390Y0038155D01*
X0033390Y0036687D01*
X0032648Y0036687D02*
X0032648Y0038889D01*
X0033390Y0037788D02*
X0034858Y0037788D01*
X0037067Y0038889D02*
X0037067Y0036687D01*
X0032648Y0036687D02*
X0031180Y0038889D01*
X0031180Y0036687D01*
X0030438Y0037788D02*
X0028970Y0036687D01*
X0030438Y0037788D02*
X0028970Y0038889D01*
X0127818Y0035844D02*
X0127818Y0034377D01*
X0130019Y0034377D01*
X0130019Y0035844D01*
X0128919Y0035111D02*
X0128919Y0034377D01*
X0130019Y0033635D02*
X0127818Y0033635D01*
X0128552Y0032901D01*
X0127818Y0032167D01*
X0130019Y0032167D01*
X0130019Y0031425D02*
X0128552Y0031425D01*
X0127818Y0030691D01*
X0128552Y0029957D01*
X0130019Y0029957D01*
X0130019Y0029215D02*
X0127818Y0029215D01*
X0128919Y0029957D02*
X0128919Y0031425D01*
X0130019Y0029215D02*
X0127818Y0027747D01*
X0130019Y0027747D01*
X0128919Y0027005D02*
X0130019Y0025537D01*
X0128919Y0027005D02*
X0127818Y0025537D01*
X0147279Y0027087D02*
X0148747Y0028188D01*
X0147279Y0029289D01*
X0149488Y0029289D02*
X0149488Y0027821D01*
X0150222Y0027087D01*
X0150956Y0027821D01*
X0150956Y0029289D01*
X0151698Y0028555D02*
X0152432Y0029289D01*
X0153166Y0028555D01*
X0153166Y0027087D01*
X0153908Y0027087D02*
X0155376Y0027087D01*
X0156118Y0027454D02*
X0156485Y0027087D01*
X0157219Y0027087D01*
X0157586Y0027454D01*
X0157586Y0029289D01*
X0158328Y0029289D02*
X0158328Y0027087D01*
X0159796Y0027087D01*
X0159062Y0028188D02*
X0158328Y0028188D01*
X0158328Y0029289D02*
X0159796Y0029289D01*
X0156118Y0029289D02*
X0156118Y0027454D01*
X0153908Y0027087D02*
X0153908Y0029289D01*
X0153166Y0028188D02*
X0151698Y0028188D01*
X0151698Y0028555D02*
X0151698Y0027087D01*
D13*
X0175419Y0026987D02*
X0175419Y0028987D01*
X0175421Y0029063D01*
X0175427Y0029139D01*
X0175436Y0029214D01*
X0175450Y0029289D01*
X0175467Y0029363D01*
X0175488Y0029436D01*
X0175512Y0029508D01*
X0175541Y0029579D01*
X0175572Y0029648D01*
X0175607Y0029715D01*
X0175646Y0029780D01*
X0175688Y0029844D01*
X0175733Y0029905D01*
X0175781Y0029964D01*
X0175832Y0030020D01*
X0175886Y0030074D01*
X0175942Y0030125D01*
X0176001Y0030173D01*
X0176062Y0030218D01*
X0176126Y0030260D01*
X0176191Y0030299D01*
X0176258Y0030334D01*
X0176327Y0030365D01*
X0176398Y0030394D01*
X0176470Y0030418D01*
X0176543Y0030439D01*
X0176617Y0030456D01*
X0176692Y0030470D01*
X0176767Y0030479D01*
X0176843Y0030485D01*
X0176919Y0030487D01*
X0190919Y0030487D01*
X0190995Y0030485D01*
X0191071Y0030479D01*
X0191146Y0030470D01*
X0191221Y0030456D01*
X0191295Y0030439D01*
X0191368Y0030418D01*
X0191440Y0030394D01*
X0191511Y0030365D01*
X0191580Y0030334D01*
X0191647Y0030299D01*
X0191712Y0030260D01*
X0191776Y0030218D01*
X0191837Y0030173D01*
X0191896Y0030125D01*
X0191952Y0030074D01*
X0192006Y0030020D01*
X0192057Y0029964D01*
X0192105Y0029905D01*
X0192150Y0029844D01*
X0192192Y0029780D01*
X0192231Y0029715D01*
X0192266Y0029648D01*
X0192297Y0029579D01*
X0192326Y0029508D01*
X0192350Y0029436D01*
X0192371Y0029363D01*
X0192388Y0029289D01*
X0192402Y0029214D01*
X0192411Y0029139D01*
X0192417Y0029063D01*
X0192419Y0028987D01*
X0192419Y0026987D01*
X0192417Y0026911D01*
X0192411Y0026835D01*
X0192402Y0026760D01*
X0192388Y0026685D01*
X0192371Y0026611D01*
X0192350Y0026538D01*
X0192326Y0026466D01*
X0192297Y0026395D01*
X0192266Y0026326D01*
X0192231Y0026259D01*
X0192192Y0026194D01*
X0192150Y0026130D01*
X0192105Y0026069D01*
X0192057Y0026010D01*
X0192006Y0025954D01*
X0191952Y0025900D01*
X0191896Y0025849D01*
X0191837Y0025801D01*
X0191776Y0025756D01*
X0191712Y0025714D01*
X0191647Y0025675D01*
X0191580Y0025640D01*
X0191511Y0025609D01*
X0191440Y0025580D01*
X0191368Y0025556D01*
X0191295Y0025535D01*
X0191221Y0025518D01*
X0191146Y0025504D01*
X0191071Y0025495D01*
X0190995Y0025489D01*
X0190919Y0025487D01*
X0176919Y0025487D01*
X0176843Y0025489D01*
X0176767Y0025495D01*
X0176692Y0025504D01*
X0176617Y0025518D01*
X0176543Y0025535D01*
X0176470Y0025556D01*
X0176398Y0025580D01*
X0176327Y0025609D01*
X0176258Y0025640D01*
X0176191Y0025675D01*
X0176126Y0025714D01*
X0176062Y0025756D01*
X0176001Y0025801D01*
X0175942Y0025849D01*
X0175886Y0025900D01*
X0175832Y0025954D01*
X0175781Y0026010D01*
X0175733Y0026069D01*
X0175688Y0026130D01*
X0175646Y0026194D01*
X0175607Y0026259D01*
X0175572Y0026326D01*
X0175541Y0026395D01*
X0175512Y0026466D01*
X0175488Y0026538D01*
X0175467Y0026611D01*
X0175450Y0026685D01*
X0175436Y0026760D01*
X0175427Y0026835D01*
X0175421Y0026911D01*
X0175419Y0026987D01*
X0126419Y0020987D02*
X0126419Y0034987D01*
X0126417Y0035063D01*
X0126411Y0035139D01*
X0126402Y0035214D01*
X0126388Y0035289D01*
X0126371Y0035363D01*
X0126350Y0035436D01*
X0126326Y0035508D01*
X0126297Y0035579D01*
X0126266Y0035648D01*
X0126231Y0035715D01*
X0126192Y0035780D01*
X0126150Y0035844D01*
X0126105Y0035905D01*
X0126057Y0035964D01*
X0126006Y0036020D01*
X0125952Y0036074D01*
X0125896Y0036125D01*
X0125837Y0036173D01*
X0125776Y0036218D01*
X0125712Y0036260D01*
X0125647Y0036299D01*
X0125580Y0036334D01*
X0125511Y0036365D01*
X0125440Y0036394D01*
X0125368Y0036418D01*
X0125295Y0036439D01*
X0125221Y0036456D01*
X0125146Y0036470D01*
X0125071Y0036479D01*
X0124995Y0036485D01*
X0124919Y0036487D01*
X0122919Y0036487D01*
X0122843Y0036485D01*
X0122767Y0036479D01*
X0122692Y0036470D01*
X0122617Y0036456D01*
X0122543Y0036439D01*
X0122470Y0036418D01*
X0122398Y0036394D01*
X0122327Y0036365D01*
X0122258Y0036334D01*
X0122191Y0036299D01*
X0122126Y0036260D01*
X0122062Y0036218D01*
X0122001Y0036173D01*
X0121942Y0036125D01*
X0121886Y0036074D01*
X0121832Y0036020D01*
X0121781Y0035964D01*
X0121733Y0035905D01*
X0121688Y0035844D01*
X0121646Y0035780D01*
X0121607Y0035715D01*
X0121572Y0035648D01*
X0121541Y0035579D01*
X0121512Y0035508D01*
X0121488Y0035436D01*
X0121467Y0035363D01*
X0121450Y0035289D01*
X0121436Y0035214D01*
X0121427Y0035139D01*
X0121421Y0035063D01*
X0121419Y0034987D01*
X0121419Y0020987D01*
X0121421Y0020911D01*
X0121427Y0020835D01*
X0121436Y0020760D01*
X0121450Y0020685D01*
X0121467Y0020611D01*
X0121488Y0020538D01*
X0121512Y0020466D01*
X0121541Y0020395D01*
X0121572Y0020326D01*
X0121607Y0020259D01*
X0121646Y0020194D01*
X0121688Y0020130D01*
X0121733Y0020069D01*
X0121781Y0020010D01*
X0121832Y0019954D01*
X0121886Y0019900D01*
X0121942Y0019849D01*
X0122001Y0019801D01*
X0122062Y0019756D01*
X0122126Y0019714D01*
X0122191Y0019675D01*
X0122258Y0019640D01*
X0122327Y0019609D01*
X0122398Y0019580D01*
X0122470Y0019556D01*
X0122543Y0019535D01*
X0122617Y0019518D01*
X0122692Y0019504D01*
X0122767Y0019495D01*
X0122843Y0019489D01*
X0122919Y0019487D01*
X0124919Y0019487D01*
X0124995Y0019489D01*
X0125071Y0019495D01*
X0125146Y0019504D01*
X0125221Y0019518D01*
X0125295Y0019535D01*
X0125368Y0019556D01*
X0125440Y0019580D01*
X0125511Y0019609D01*
X0125580Y0019640D01*
X0125647Y0019675D01*
X0125712Y0019714D01*
X0125776Y0019756D01*
X0125837Y0019801D01*
X0125896Y0019849D01*
X0125952Y0019900D01*
X0126006Y0019954D01*
X0126057Y0020010D01*
X0126105Y0020069D01*
X0126150Y0020130D01*
X0126192Y0020194D01*
X0126231Y0020259D01*
X0126266Y0020326D01*
X0126297Y0020395D01*
X0126326Y0020466D01*
X0126350Y0020538D01*
X0126371Y0020611D01*
X0126388Y0020685D01*
X0126402Y0020760D01*
X0126411Y0020835D01*
X0126417Y0020911D01*
X0126419Y0020987D01*
X0068822Y0017989D02*
X0065753Y0017989D01*
X0064919Y0019487D02*
X0062919Y0019487D01*
X0062843Y0019489D01*
X0062767Y0019495D01*
X0062692Y0019504D01*
X0062617Y0019518D01*
X0062543Y0019535D01*
X0062470Y0019556D01*
X0062398Y0019580D01*
X0062327Y0019609D01*
X0062258Y0019640D01*
X0062191Y0019675D01*
X0062126Y0019714D01*
X0062062Y0019756D01*
X0062001Y0019801D01*
X0061942Y0019849D01*
X0061886Y0019900D01*
X0061832Y0019954D01*
X0061781Y0020010D01*
X0061733Y0020069D01*
X0061688Y0020130D01*
X0061646Y0020194D01*
X0061607Y0020259D01*
X0061572Y0020326D01*
X0061541Y0020395D01*
X0061512Y0020466D01*
X0061488Y0020538D01*
X0061467Y0020611D01*
X0061450Y0020685D01*
X0061436Y0020760D01*
X0061427Y0020835D01*
X0061421Y0020911D01*
X0061419Y0020987D01*
X0061419Y0034987D01*
X0061421Y0035063D01*
X0061427Y0035139D01*
X0061436Y0035214D01*
X0061450Y0035289D01*
X0061467Y0035363D01*
X0061488Y0035436D01*
X0061512Y0035508D01*
X0061541Y0035579D01*
X0061572Y0035648D01*
X0061607Y0035715D01*
X0061646Y0035780D01*
X0061688Y0035844D01*
X0061733Y0035905D01*
X0061781Y0035964D01*
X0061832Y0036020D01*
X0061886Y0036074D01*
X0061942Y0036125D01*
X0062001Y0036173D01*
X0062062Y0036218D01*
X0062126Y0036260D01*
X0062191Y0036299D01*
X0062258Y0036334D01*
X0062327Y0036365D01*
X0062398Y0036394D01*
X0062470Y0036418D01*
X0062543Y0036439D01*
X0062617Y0036456D01*
X0062692Y0036470D01*
X0062767Y0036479D01*
X0062843Y0036485D01*
X0062919Y0036487D01*
X0064919Y0036487D01*
X0064995Y0036485D01*
X0065071Y0036479D01*
X0065146Y0036470D01*
X0065221Y0036456D01*
X0065295Y0036439D01*
X0065368Y0036418D01*
X0065440Y0036394D01*
X0065511Y0036365D01*
X0065580Y0036334D01*
X0065647Y0036299D01*
X0065712Y0036260D01*
X0065776Y0036218D01*
X0065837Y0036173D01*
X0065896Y0036125D01*
X0065952Y0036074D01*
X0066006Y0036020D01*
X0066057Y0035964D01*
X0066105Y0035905D01*
X0066150Y0035844D01*
X0066192Y0035780D01*
X0066231Y0035715D01*
X0066266Y0035648D01*
X0066297Y0035579D01*
X0066326Y0035508D01*
X0066350Y0035436D01*
X0066371Y0035363D01*
X0066388Y0035289D01*
X0066402Y0035214D01*
X0066411Y0035139D01*
X0066417Y0035063D01*
X0066419Y0034987D01*
X0066419Y0020987D01*
X0066417Y0020911D01*
X0066411Y0020835D01*
X0066402Y0020760D01*
X0066388Y0020685D01*
X0066371Y0020611D01*
X0066350Y0020538D01*
X0066326Y0020466D01*
X0066297Y0020395D01*
X0066266Y0020326D01*
X0066231Y0020259D01*
X0066192Y0020194D01*
X0066150Y0020130D01*
X0066105Y0020069D01*
X0066057Y0020010D01*
X0066006Y0019954D01*
X0065952Y0019900D01*
X0065896Y0019849D01*
X0065837Y0019801D01*
X0065776Y0019756D01*
X0065712Y0019714D01*
X0065647Y0019675D01*
X0065580Y0019640D01*
X0065511Y0019609D01*
X0065440Y0019580D01*
X0065368Y0019556D01*
X0065295Y0019535D01*
X0065221Y0019518D01*
X0065146Y0019504D01*
X0065071Y0019495D01*
X0064995Y0019489D01*
X0064919Y0019487D01*
X0046419Y0020987D02*
X0046419Y0034987D01*
X0046417Y0035063D01*
X0046411Y0035139D01*
X0046402Y0035214D01*
X0046388Y0035289D01*
X0046371Y0035363D01*
X0046350Y0035436D01*
X0046326Y0035508D01*
X0046297Y0035579D01*
X0046266Y0035648D01*
X0046231Y0035715D01*
X0046192Y0035780D01*
X0046150Y0035844D01*
X0046105Y0035905D01*
X0046057Y0035964D01*
X0046006Y0036020D01*
X0045952Y0036074D01*
X0045896Y0036125D01*
X0045837Y0036173D01*
X0045776Y0036218D01*
X0045712Y0036260D01*
X0045647Y0036299D01*
X0045580Y0036334D01*
X0045511Y0036365D01*
X0045440Y0036394D01*
X0045368Y0036418D01*
X0045295Y0036439D01*
X0045221Y0036456D01*
X0045146Y0036470D01*
X0045071Y0036479D01*
X0044995Y0036485D01*
X0044919Y0036487D01*
X0042919Y0036487D01*
X0042843Y0036485D01*
X0042767Y0036479D01*
X0042692Y0036470D01*
X0042617Y0036456D01*
X0042543Y0036439D01*
X0042470Y0036418D01*
X0042398Y0036394D01*
X0042327Y0036365D01*
X0042258Y0036334D01*
X0042191Y0036299D01*
X0042126Y0036260D01*
X0042062Y0036218D01*
X0042001Y0036173D01*
X0041942Y0036125D01*
X0041886Y0036074D01*
X0041832Y0036020D01*
X0041781Y0035964D01*
X0041733Y0035905D01*
X0041688Y0035844D01*
X0041646Y0035780D01*
X0041607Y0035715D01*
X0041572Y0035648D01*
X0041541Y0035579D01*
X0041512Y0035508D01*
X0041488Y0035436D01*
X0041467Y0035363D01*
X0041450Y0035289D01*
X0041436Y0035214D01*
X0041427Y0035139D01*
X0041421Y0035063D01*
X0041419Y0034987D01*
X0041419Y0020987D01*
X0041421Y0020911D01*
X0041427Y0020835D01*
X0041436Y0020760D01*
X0041450Y0020685D01*
X0041467Y0020611D01*
X0041488Y0020538D01*
X0041512Y0020466D01*
X0041541Y0020395D01*
X0041572Y0020326D01*
X0041607Y0020259D01*
X0041646Y0020194D01*
X0041688Y0020130D01*
X0041733Y0020069D01*
X0041781Y0020010D01*
X0041832Y0019954D01*
X0041886Y0019900D01*
X0041942Y0019849D01*
X0042001Y0019801D01*
X0042062Y0019756D01*
X0042126Y0019714D01*
X0042191Y0019675D01*
X0042258Y0019640D01*
X0042327Y0019609D01*
X0042398Y0019580D01*
X0042470Y0019556D01*
X0042543Y0019535D01*
X0042617Y0019518D01*
X0042692Y0019504D01*
X0042767Y0019495D01*
X0042843Y0019489D01*
X0042919Y0019487D01*
X0044919Y0019487D01*
X0044995Y0019489D01*
X0045071Y0019495D01*
X0045146Y0019504D01*
X0045221Y0019518D01*
X0045295Y0019535D01*
X0045368Y0019556D01*
X0045440Y0019580D01*
X0045511Y0019609D01*
X0045580Y0019640D01*
X0045647Y0019675D01*
X0045712Y0019714D01*
X0045776Y0019756D01*
X0045837Y0019801D01*
X0045896Y0019849D01*
X0045952Y0019900D01*
X0046006Y0019954D01*
X0046057Y0020010D01*
X0046105Y0020069D01*
X0046150Y0020130D01*
X0046192Y0020194D01*
X0046231Y0020259D01*
X0046266Y0020326D01*
X0046297Y0020395D01*
X0046326Y0020466D01*
X0046350Y0020538D01*
X0046371Y0020611D01*
X0046388Y0020685D01*
X0046402Y0020760D01*
X0046411Y0020835D01*
X0046417Y0020911D01*
X0046419Y0020987D01*
X0175419Y0056987D02*
X0175419Y0058987D01*
X0175421Y0059063D01*
X0175427Y0059139D01*
X0175436Y0059214D01*
X0175450Y0059289D01*
X0175467Y0059363D01*
X0175488Y0059436D01*
X0175512Y0059508D01*
X0175541Y0059579D01*
X0175572Y0059648D01*
X0175607Y0059715D01*
X0175646Y0059780D01*
X0175688Y0059844D01*
X0175733Y0059905D01*
X0175781Y0059964D01*
X0175832Y0060020D01*
X0175886Y0060074D01*
X0175942Y0060125D01*
X0176001Y0060173D01*
X0176062Y0060218D01*
X0176126Y0060260D01*
X0176191Y0060299D01*
X0176258Y0060334D01*
X0176327Y0060365D01*
X0176398Y0060394D01*
X0176470Y0060418D01*
X0176543Y0060439D01*
X0176617Y0060456D01*
X0176692Y0060470D01*
X0176767Y0060479D01*
X0176843Y0060485D01*
X0176919Y0060487D01*
X0190919Y0060487D01*
X0190995Y0060485D01*
X0191071Y0060479D01*
X0191146Y0060470D01*
X0191221Y0060456D01*
X0191295Y0060439D01*
X0191368Y0060418D01*
X0191440Y0060394D01*
X0191511Y0060365D01*
X0191580Y0060334D01*
X0191647Y0060299D01*
X0191712Y0060260D01*
X0191776Y0060218D01*
X0191837Y0060173D01*
X0191896Y0060125D01*
X0191952Y0060074D01*
X0192006Y0060020D01*
X0192057Y0059964D01*
X0192105Y0059905D01*
X0192150Y0059844D01*
X0192192Y0059780D01*
X0192231Y0059715D01*
X0192266Y0059648D01*
X0192297Y0059579D01*
X0192326Y0059508D01*
X0192350Y0059436D01*
X0192371Y0059363D01*
X0192388Y0059289D01*
X0192402Y0059214D01*
X0192411Y0059139D01*
X0192417Y0059063D01*
X0192419Y0058987D01*
X0192419Y0056987D01*
X0192417Y0056911D01*
X0192411Y0056835D01*
X0192402Y0056760D01*
X0192388Y0056685D01*
X0192371Y0056611D01*
X0192350Y0056538D01*
X0192326Y0056466D01*
X0192297Y0056395D01*
X0192266Y0056326D01*
X0192231Y0056259D01*
X0192192Y0056194D01*
X0192150Y0056130D01*
X0192105Y0056069D01*
X0192057Y0056010D01*
X0192006Y0055954D01*
X0191952Y0055900D01*
X0191896Y0055849D01*
X0191837Y0055801D01*
X0191776Y0055756D01*
X0191712Y0055714D01*
X0191647Y0055675D01*
X0191580Y0055640D01*
X0191511Y0055609D01*
X0191440Y0055580D01*
X0191368Y0055556D01*
X0191295Y0055535D01*
X0191221Y0055518D01*
X0191146Y0055504D01*
X0191071Y0055495D01*
X0190995Y0055489D01*
X0190919Y0055487D01*
X0176919Y0055487D01*
X0176843Y0055489D01*
X0176767Y0055495D01*
X0176692Y0055504D01*
X0176617Y0055518D01*
X0176543Y0055535D01*
X0176470Y0055556D01*
X0176398Y0055580D01*
X0176327Y0055609D01*
X0176258Y0055640D01*
X0176191Y0055675D01*
X0176126Y0055714D01*
X0176062Y0055756D01*
X0176001Y0055801D01*
X0175942Y0055849D01*
X0175886Y0055900D01*
X0175832Y0055954D01*
X0175781Y0056010D01*
X0175733Y0056069D01*
X0175688Y0056130D01*
X0175646Y0056194D01*
X0175607Y0056259D01*
X0175572Y0056326D01*
X0175541Y0056395D01*
X0175512Y0056466D01*
X0175488Y0056538D01*
X0175467Y0056611D01*
X0175450Y0056685D01*
X0175436Y0056760D01*
X0175427Y0056835D01*
X0175421Y0056911D01*
X0175419Y0056987D01*
X0176919Y0085487D02*
X0190919Y0085487D01*
X0190995Y0085489D01*
X0191071Y0085495D01*
X0191146Y0085504D01*
X0191221Y0085518D01*
X0191295Y0085535D01*
X0191368Y0085556D01*
X0191440Y0085580D01*
X0191511Y0085609D01*
X0191580Y0085640D01*
X0191647Y0085675D01*
X0191712Y0085714D01*
X0191776Y0085756D01*
X0191837Y0085801D01*
X0191896Y0085849D01*
X0191952Y0085900D01*
X0192006Y0085954D01*
X0192057Y0086010D01*
X0192105Y0086069D01*
X0192150Y0086130D01*
X0192192Y0086194D01*
X0192231Y0086259D01*
X0192266Y0086326D01*
X0192297Y0086395D01*
X0192326Y0086466D01*
X0192350Y0086538D01*
X0192371Y0086611D01*
X0192388Y0086685D01*
X0192402Y0086760D01*
X0192411Y0086835D01*
X0192417Y0086911D01*
X0192419Y0086987D01*
X0192419Y0088987D01*
X0192417Y0089063D01*
X0192411Y0089139D01*
X0192402Y0089214D01*
X0192388Y0089289D01*
X0192371Y0089363D01*
X0192350Y0089436D01*
X0192326Y0089508D01*
X0192297Y0089579D01*
X0192266Y0089648D01*
X0192231Y0089715D01*
X0192192Y0089780D01*
X0192150Y0089844D01*
X0192105Y0089905D01*
X0192057Y0089964D01*
X0192006Y0090020D01*
X0191952Y0090074D01*
X0191896Y0090125D01*
X0191837Y0090173D01*
X0191776Y0090218D01*
X0191712Y0090260D01*
X0191647Y0090299D01*
X0191580Y0090334D01*
X0191511Y0090365D01*
X0191440Y0090394D01*
X0191368Y0090418D01*
X0191295Y0090439D01*
X0191221Y0090456D01*
X0191146Y0090470D01*
X0191071Y0090479D01*
X0190995Y0090485D01*
X0190919Y0090487D01*
X0176919Y0090487D01*
X0176843Y0090485D01*
X0176767Y0090479D01*
X0176692Y0090470D01*
X0176617Y0090456D01*
X0176543Y0090439D01*
X0176470Y0090418D01*
X0176398Y0090394D01*
X0176327Y0090365D01*
X0176258Y0090334D01*
X0176191Y0090299D01*
X0176126Y0090260D01*
X0176062Y0090218D01*
X0176001Y0090173D01*
X0175942Y0090125D01*
X0175886Y0090074D01*
X0175832Y0090020D01*
X0175781Y0089964D01*
X0175733Y0089905D01*
X0175688Y0089844D01*
X0175646Y0089780D01*
X0175607Y0089715D01*
X0175572Y0089648D01*
X0175541Y0089579D01*
X0175512Y0089508D01*
X0175488Y0089436D01*
X0175467Y0089363D01*
X0175450Y0089289D01*
X0175436Y0089214D01*
X0175427Y0089139D01*
X0175421Y0089063D01*
X0175419Y0088987D01*
X0175419Y0086987D01*
X0175421Y0086911D01*
X0175427Y0086835D01*
X0175436Y0086760D01*
X0175450Y0086685D01*
X0175467Y0086611D01*
X0175488Y0086538D01*
X0175512Y0086466D01*
X0175541Y0086395D01*
X0175572Y0086326D01*
X0175607Y0086259D01*
X0175646Y0086194D01*
X0175688Y0086130D01*
X0175733Y0086069D01*
X0175781Y0086010D01*
X0175832Y0085954D01*
X0175886Y0085900D01*
X0175942Y0085849D01*
X0176001Y0085801D01*
X0176062Y0085756D01*
X0176126Y0085714D01*
X0176191Y0085675D01*
X0176258Y0085640D01*
X0176327Y0085609D01*
X0176398Y0085580D01*
X0176470Y0085556D01*
X0176543Y0085535D01*
X0176617Y0085518D01*
X0176692Y0085504D01*
X0176767Y0085495D01*
X0176843Y0085489D01*
X0176919Y0085487D01*
X0170551Y0110687D02*
X0168149Y0110687D01*
X0168149Y0114290D01*
X0170551Y0114290D01*
X0169350Y0112488D02*
X0168149Y0112488D01*
X0166868Y0114290D02*
X0166868Y0110687D01*
X0164465Y0110687D02*
X0164465Y0114290D01*
X0165666Y0113089D01*
X0166868Y0114290D01*
X0163184Y0113089D02*
X0163184Y0110687D01*
X0163184Y0112488D02*
X0160782Y0112488D01*
X0160782Y0113089D02*
X0161983Y0114290D01*
X0163184Y0113089D01*
X0160782Y0113089D02*
X0160782Y0110687D01*
X0159501Y0110687D02*
X0159501Y0114290D01*
X0157099Y0114290D02*
X0159501Y0110687D01*
X0157099Y0110687D02*
X0157099Y0114290D01*
X0155818Y0112488D02*
X0153416Y0110687D01*
X0155818Y0112488D02*
X0153416Y0114290D01*
X0285419Y0108987D02*
X0285419Y0106987D01*
X0285421Y0106911D01*
X0285427Y0106835D01*
X0285436Y0106760D01*
X0285450Y0106685D01*
X0285467Y0106611D01*
X0285488Y0106538D01*
X0285512Y0106466D01*
X0285541Y0106395D01*
X0285572Y0106326D01*
X0285607Y0106259D01*
X0285646Y0106194D01*
X0285688Y0106130D01*
X0285733Y0106069D01*
X0285781Y0106010D01*
X0285832Y0105954D01*
X0285886Y0105900D01*
X0285942Y0105849D01*
X0286001Y0105801D01*
X0286062Y0105756D01*
X0286126Y0105714D01*
X0286191Y0105675D01*
X0286258Y0105640D01*
X0286327Y0105609D01*
X0286398Y0105580D01*
X0286470Y0105556D01*
X0286543Y0105535D01*
X0286617Y0105518D01*
X0286692Y0105504D01*
X0286767Y0105495D01*
X0286843Y0105489D01*
X0286919Y0105487D01*
X0300919Y0105487D01*
X0300995Y0105489D01*
X0301071Y0105495D01*
X0301146Y0105504D01*
X0301221Y0105518D01*
X0301295Y0105535D01*
X0301368Y0105556D01*
X0301440Y0105580D01*
X0301511Y0105609D01*
X0301580Y0105640D01*
X0301647Y0105675D01*
X0301712Y0105714D01*
X0301776Y0105756D01*
X0301837Y0105801D01*
X0301896Y0105849D01*
X0301952Y0105900D01*
X0302006Y0105954D01*
X0302057Y0106010D01*
X0302105Y0106069D01*
X0302150Y0106130D01*
X0302192Y0106194D01*
X0302231Y0106259D01*
X0302266Y0106326D01*
X0302297Y0106395D01*
X0302326Y0106466D01*
X0302350Y0106538D01*
X0302371Y0106611D01*
X0302388Y0106685D01*
X0302402Y0106760D01*
X0302411Y0106835D01*
X0302417Y0106911D01*
X0302419Y0106987D01*
X0302419Y0108987D01*
X0302417Y0109063D01*
X0302411Y0109139D01*
X0302402Y0109214D01*
X0302388Y0109289D01*
X0302371Y0109363D01*
X0302350Y0109436D01*
X0302326Y0109508D01*
X0302297Y0109579D01*
X0302266Y0109648D01*
X0302231Y0109715D01*
X0302192Y0109780D01*
X0302150Y0109844D01*
X0302105Y0109905D01*
X0302057Y0109964D01*
X0302006Y0110020D01*
X0301952Y0110074D01*
X0301896Y0110125D01*
X0301837Y0110173D01*
X0301776Y0110218D01*
X0301712Y0110260D01*
X0301647Y0110299D01*
X0301580Y0110334D01*
X0301511Y0110365D01*
X0301440Y0110394D01*
X0301368Y0110418D01*
X0301295Y0110439D01*
X0301221Y0110456D01*
X0301146Y0110470D01*
X0301071Y0110479D01*
X0300995Y0110485D01*
X0300919Y0110487D01*
X0286919Y0110487D01*
X0286843Y0110485D01*
X0286767Y0110479D01*
X0286692Y0110470D01*
X0286617Y0110456D01*
X0286543Y0110439D01*
X0286470Y0110418D01*
X0286398Y0110394D01*
X0286327Y0110365D01*
X0286258Y0110334D01*
X0286191Y0110299D01*
X0286126Y0110260D01*
X0286062Y0110218D01*
X0286001Y0110173D01*
X0285942Y0110125D01*
X0285886Y0110074D01*
X0285832Y0110020D01*
X0285781Y0109964D01*
X0285733Y0109905D01*
X0285688Y0109844D01*
X0285646Y0109780D01*
X0285607Y0109715D01*
X0285572Y0109648D01*
X0285541Y0109579D01*
X0285512Y0109508D01*
X0285488Y0109436D01*
X0285467Y0109363D01*
X0285450Y0109289D01*
X0285436Y0109214D01*
X0285427Y0109139D01*
X0285421Y0109063D01*
X0285419Y0108987D01*
X0305419Y0116987D02*
X0305419Y0118987D01*
X0305421Y0119063D01*
X0305427Y0119139D01*
X0305436Y0119214D01*
X0305450Y0119289D01*
X0305467Y0119363D01*
X0305488Y0119436D01*
X0305512Y0119508D01*
X0305541Y0119579D01*
X0305572Y0119648D01*
X0305607Y0119715D01*
X0305646Y0119780D01*
X0305688Y0119844D01*
X0305733Y0119905D01*
X0305781Y0119964D01*
X0305832Y0120020D01*
X0305886Y0120074D01*
X0305942Y0120125D01*
X0306001Y0120173D01*
X0306062Y0120218D01*
X0306126Y0120260D01*
X0306191Y0120299D01*
X0306258Y0120334D01*
X0306327Y0120365D01*
X0306398Y0120394D01*
X0306470Y0120418D01*
X0306543Y0120439D01*
X0306617Y0120456D01*
X0306692Y0120470D01*
X0306767Y0120479D01*
X0306843Y0120485D01*
X0306919Y0120487D01*
X0320919Y0120487D01*
X0320995Y0120485D01*
X0321071Y0120479D01*
X0321146Y0120470D01*
X0321221Y0120456D01*
X0321295Y0120439D01*
X0321368Y0120418D01*
X0321440Y0120394D01*
X0321511Y0120365D01*
X0321580Y0120334D01*
X0321647Y0120299D01*
X0321712Y0120260D01*
X0321776Y0120218D01*
X0321837Y0120173D01*
X0321896Y0120125D01*
X0321952Y0120074D01*
X0322006Y0120020D01*
X0322057Y0119964D01*
X0322105Y0119905D01*
X0322150Y0119844D01*
X0322192Y0119780D01*
X0322231Y0119715D01*
X0322266Y0119648D01*
X0322297Y0119579D01*
X0322326Y0119508D01*
X0322350Y0119436D01*
X0322371Y0119363D01*
X0322388Y0119289D01*
X0322402Y0119214D01*
X0322411Y0119139D01*
X0322417Y0119063D01*
X0322419Y0118987D01*
X0322419Y0116987D01*
X0322417Y0116911D01*
X0322411Y0116835D01*
X0322402Y0116760D01*
X0322388Y0116685D01*
X0322371Y0116611D01*
X0322350Y0116538D01*
X0322326Y0116466D01*
X0322297Y0116395D01*
X0322266Y0116326D01*
X0322231Y0116259D01*
X0322192Y0116194D01*
X0322150Y0116130D01*
X0322105Y0116069D01*
X0322057Y0116010D01*
X0322006Y0115954D01*
X0321952Y0115900D01*
X0321896Y0115849D01*
X0321837Y0115801D01*
X0321776Y0115756D01*
X0321712Y0115714D01*
X0321647Y0115675D01*
X0321580Y0115640D01*
X0321511Y0115609D01*
X0321440Y0115580D01*
X0321368Y0115556D01*
X0321295Y0115535D01*
X0321221Y0115518D01*
X0321146Y0115504D01*
X0321071Y0115495D01*
X0320995Y0115489D01*
X0320919Y0115487D01*
X0306919Y0115487D01*
X0306843Y0115489D01*
X0306767Y0115495D01*
X0306692Y0115504D01*
X0306617Y0115518D01*
X0306543Y0115535D01*
X0306470Y0115556D01*
X0306398Y0115580D01*
X0306327Y0115609D01*
X0306258Y0115640D01*
X0306191Y0115675D01*
X0306126Y0115714D01*
X0306062Y0115756D01*
X0306001Y0115801D01*
X0305942Y0115849D01*
X0305886Y0115900D01*
X0305832Y0115954D01*
X0305781Y0116010D01*
X0305733Y0116069D01*
X0305688Y0116130D01*
X0305646Y0116194D01*
X0305607Y0116259D01*
X0305572Y0116326D01*
X0305541Y0116395D01*
X0305512Y0116466D01*
X0305488Y0116538D01*
X0305467Y0116611D01*
X0305450Y0116685D01*
X0305436Y0116760D01*
X0305427Y0116835D01*
X0305421Y0116911D01*
X0305419Y0116987D01*
X0333416Y0114290D02*
X0335818Y0112488D01*
X0333416Y0110687D01*
X0337099Y0110687D02*
X0337099Y0114290D01*
X0339501Y0110687D01*
X0339501Y0114290D01*
X0340782Y0113089D02*
X0341983Y0114290D01*
X0343184Y0113089D01*
X0343184Y0110687D01*
X0344465Y0110687D02*
X0344465Y0114290D01*
X0345666Y0113089D01*
X0346868Y0114290D01*
X0346868Y0110687D01*
X0348149Y0110687D02*
X0350551Y0110687D01*
X0349350Y0112488D02*
X0348149Y0112488D01*
X0348149Y0110687D02*
X0348149Y0114290D01*
X0350551Y0114290D01*
X0343184Y0112488D02*
X0340782Y0112488D01*
X0340782Y0113089D02*
X0340782Y0110687D01*
D14*
X0328416Y0116937D02*
X0326481Y0116937D01*
X0326481Y0119839D01*
X0328416Y0119839D01*
X0327449Y0118388D02*
X0326481Y0118388D01*
X0325470Y0117420D02*
X0325470Y0119839D01*
X0323535Y0119839D02*
X0323535Y0117420D01*
X0324018Y0116937D01*
X0324986Y0116937D01*
X0325470Y0117420D01*
X0322523Y0116937D02*
X0320588Y0116937D01*
X0320588Y0119839D01*
X0319577Y0118872D02*
X0319577Y0116937D01*
X0319577Y0118388D02*
X0317642Y0118388D01*
X0317642Y0118872D02*
X0317642Y0116937D01*
X0316630Y0117904D02*
X0316630Y0119839D01*
X0317642Y0118872D02*
X0318609Y0119839D01*
X0319577Y0118872D01*
X0316630Y0117904D02*
X0315663Y0116937D01*
X0314695Y0117904D01*
X0314695Y0119839D01*
X0313684Y0118388D02*
X0311749Y0116937D01*
X0313684Y0118388D02*
X0311749Y0119839D01*
X0331749Y0126937D02*
X0333684Y0128388D01*
X0331749Y0129839D01*
X0334695Y0129839D02*
X0334695Y0127904D01*
X0335663Y0126937D01*
X0336630Y0127904D01*
X0336630Y0129839D01*
X0337642Y0128872D02*
X0338609Y0129839D01*
X0339577Y0128872D01*
X0339577Y0126937D01*
X0340588Y0126937D02*
X0340588Y0129839D01*
X0339577Y0128388D02*
X0337642Y0128388D01*
X0337642Y0128872D02*
X0337642Y0126937D01*
X0340588Y0126937D02*
X0342523Y0126937D01*
X0343535Y0127420D02*
X0344018Y0126937D01*
X0344986Y0126937D01*
X0345470Y0127420D01*
X0345470Y0129839D01*
X0346481Y0129839D02*
X0346481Y0126937D01*
X0348416Y0126937D01*
X0347449Y0128388D02*
X0346481Y0128388D01*
X0346481Y0129839D02*
X0348416Y0129839D01*
X0343535Y0129839D02*
X0343535Y0127420D01*
X0392876Y0137988D02*
X0395345Y0137988D01*
X0361418Y0159443D02*
X0361418Y0161912D01*
X0360183Y0160678D02*
X0362652Y0160678D01*
X0341269Y0162077D02*
X0339418Y0164546D01*
X0337566Y0162077D01*
X0337566Y0165760D02*
X0341269Y0168229D01*
X0337566Y0168229D01*
X0338801Y0169443D02*
X0337566Y0170678D01*
X0338801Y0171912D01*
X0341269Y0171912D01*
X0341269Y0173126D02*
X0337566Y0173126D01*
X0338801Y0174361D01*
X0337566Y0175595D01*
X0341269Y0175595D01*
X0341269Y0176810D02*
X0341269Y0179278D01*
X0339418Y0178044D02*
X0339418Y0176810D01*
X0341269Y0176810D02*
X0337566Y0176810D01*
X0337566Y0179278D01*
X0339418Y0171912D02*
X0339418Y0169443D01*
X0338801Y0169443D02*
X0341269Y0169443D01*
X0341269Y0165760D02*
X0337566Y0165760D01*
X0275211Y0125340D02*
X0272742Y0125340D01*
X0272742Y0121637D01*
X0275211Y0121637D01*
X0271528Y0121637D02*
X0271528Y0125340D01*
X0270294Y0124105D01*
X0269059Y0125340D01*
X0269059Y0121637D01*
X0267845Y0121637D02*
X0267845Y0124105D01*
X0266611Y0125340D01*
X0265376Y0124105D01*
X0265376Y0121637D01*
X0264162Y0121637D02*
X0264162Y0125340D01*
X0265376Y0123488D02*
X0267845Y0123488D01*
X0264162Y0121637D02*
X0261693Y0125340D01*
X0261693Y0121637D01*
X0260479Y0123488D02*
X0258010Y0121637D01*
X0260479Y0123488D02*
X0258010Y0125340D01*
X0272742Y0123488D02*
X0273977Y0123488D01*
X0275211Y0095340D02*
X0272742Y0095340D01*
X0272742Y0091637D01*
X0275211Y0091637D01*
X0271528Y0091637D02*
X0271528Y0095340D01*
X0270294Y0094105D01*
X0269059Y0095340D01*
X0269059Y0091637D01*
X0267845Y0091637D02*
X0267845Y0094105D01*
X0266611Y0095340D01*
X0265376Y0094105D01*
X0265376Y0091637D01*
X0264162Y0091637D02*
X0264162Y0095340D01*
X0265376Y0093488D02*
X0267845Y0093488D01*
X0264162Y0091637D02*
X0261693Y0095340D01*
X0261693Y0091637D01*
X0260479Y0093488D02*
X0258010Y0091637D01*
X0260479Y0093488D02*
X0258010Y0095340D01*
X0272742Y0093488D02*
X0273977Y0093488D01*
X0218416Y0079039D02*
X0216481Y0079039D01*
X0216481Y0076137D01*
X0218416Y0076137D01*
X0217449Y0077588D02*
X0216481Y0077588D01*
X0215470Y0076620D02*
X0215470Y0079039D01*
X0213535Y0079039D02*
X0213535Y0076620D01*
X0214018Y0076137D01*
X0214986Y0076137D01*
X0215470Y0076620D01*
X0212523Y0076137D02*
X0210588Y0076137D01*
X0210588Y0079039D01*
X0209577Y0078072D02*
X0209577Y0076137D01*
X0209577Y0077588D02*
X0207642Y0077588D01*
X0207642Y0078072D02*
X0208609Y0079039D01*
X0209577Y0078072D01*
X0207642Y0078072D02*
X0207642Y0076137D01*
X0206630Y0077104D02*
X0205663Y0076137D01*
X0204695Y0077104D01*
X0204695Y0079039D01*
X0203684Y0077588D02*
X0201749Y0079039D01*
X0203684Y0077588D02*
X0201749Y0076137D01*
X0206630Y0077104D02*
X0206630Y0079039D01*
X0206481Y0069439D02*
X0206481Y0066537D01*
X0208416Y0066537D01*
X0207449Y0067988D02*
X0206481Y0067988D01*
X0205470Y0067020D02*
X0205470Y0069439D01*
X0206481Y0069439D02*
X0208416Y0069439D01*
X0205470Y0067020D02*
X0204986Y0066537D01*
X0204018Y0066537D01*
X0203535Y0067020D01*
X0203535Y0069439D01*
X0200588Y0069439D02*
X0200588Y0066537D01*
X0202523Y0066537D01*
X0199577Y0066537D02*
X0199577Y0068472D01*
X0198609Y0069439D01*
X0197642Y0068472D01*
X0197642Y0066537D01*
X0196630Y0067504D02*
X0196630Y0069439D01*
X0197642Y0067988D02*
X0199577Y0067988D01*
X0196630Y0067504D02*
X0195663Y0066537D01*
X0194695Y0067504D01*
X0194695Y0069439D01*
X0193684Y0067988D02*
X0191749Y0066537D01*
X0193684Y0067988D02*
X0191749Y0069439D01*
X0201749Y0049039D02*
X0203684Y0047588D01*
X0201749Y0046137D01*
X0204695Y0047104D02*
X0205663Y0046137D01*
X0206630Y0047104D01*
X0206630Y0049039D01*
X0207642Y0048072D02*
X0208609Y0049039D01*
X0209577Y0048072D01*
X0209577Y0046137D01*
X0210588Y0046137D02*
X0212523Y0046137D01*
X0213535Y0046620D02*
X0214018Y0046137D01*
X0214986Y0046137D01*
X0215470Y0046620D01*
X0215470Y0049039D01*
X0216481Y0049039D02*
X0216481Y0046137D01*
X0218416Y0046137D01*
X0217449Y0047588D02*
X0216481Y0047588D01*
X0216481Y0049039D02*
X0218416Y0049039D01*
X0213535Y0049039D02*
X0213535Y0046620D01*
X0210588Y0046137D02*
X0210588Y0049039D01*
X0209577Y0047588D02*
X0207642Y0047588D01*
X0207642Y0048072D02*
X0207642Y0046137D01*
X0204695Y0047104D02*
X0204695Y0049039D01*
X0205470Y0039439D02*
X0205470Y0037020D01*
X0204986Y0036537D01*
X0204018Y0036537D01*
X0203535Y0037020D01*
X0203535Y0039439D01*
X0206481Y0039439D02*
X0206481Y0036537D01*
X0208416Y0036537D01*
X0207449Y0037988D02*
X0206481Y0037988D01*
X0206481Y0039439D02*
X0208416Y0039439D01*
X0202523Y0036537D02*
X0200588Y0036537D01*
X0200588Y0039439D01*
X0199577Y0038472D02*
X0199577Y0036537D01*
X0199577Y0037988D02*
X0197642Y0037988D01*
X0197642Y0038472D02*
X0197642Y0036537D01*
X0196630Y0037504D02*
X0196630Y0039439D01*
X0197642Y0038472D02*
X0198609Y0039439D01*
X0199577Y0038472D01*
X0196630Y0037504D02*
X0195663Y0036537D01*
X0194695Y0037504D01*
X0194695Y0039439D01*
X0193684Y0037988D02*
X0191749Y0036537D01*
X0193684Y0037988D02*
X0191749Y0039439D01*
X0201749Y0019039D02*
X0203684Y0017588D01*
X0201749Y0016137D01*
X0204695Y0017104D02*
X0205663Y0016137D01*
X0206630Y0017104D01*
X0206630Y0019039D01*
X0207642Y0018072D02*
X0208609Y0019039D01*
X0209577Y0018072D01*
X0209577Y0016137D01*
X0210588Y0016137D02*
X0212523Y0016137D01*
X0213535Y0016620D02*
X0214018Y0016137D01*
X0214986Y0016137D01*
X0215470Y0016620D01*
X0215470Y0019039D01*
X0216481Y0019039D02*
X0216481Y0016137D01*
X0218416Y0016137D01*
X0217449Y0017588D02*
X0216481Y0017588D01*
X0216481Y0019039D02*
X0218416Y0019039D01*
X0213535Y0019039D02*
X0213535Y0016620D01*
X0210588Y0016137D02*
X0210588Y0019039D01*
X0209577Y0017588D02*
X0207642Y0017588D01*
X0207642Y0018072D02*
X0207642Y0016137D01*
X0204695Y0017104D02*
X0204695Y0019039D01*
X0258010Y0061637D02*
X0260479Y0063488D01*
X0258010Y0065340D01*
X0261693Y0065340D02*
X0264162Y0061637D01*
X0264162Y0065340D01*
X0265376Y0064105D02*
X0266611Y0065340D01*
X0267845Y0064105D01*
X0267845Y0061637D01*
X0269059Y0061637D02*
X0269059Y0065340D01*
X0270294Y0064105D01*
X0271528Y0065340D01*
X0271528Y0061637D01*
X0272742Y0061637D02*
X0275211Y0061637D01*
X0272742Y0061637D02*
X0272742Y0065340D01*
X0275211Y0065340D01*
X0273977Y0063488D02*
X0272742Y0063488D01*
X0267845Y0063488D02*
X0265376Y0063488D01*
X0265376Y0064105D02*
X0265376Y0061637D01*
X0261693Y0061637D02*
X0261693Y0065340D01*
X0296749Y0066537D02*
X0298684Y0067988D01*
X0296749Y0069439D01*
X0299695Y0069439D02*
X0299695Y0067504D01*
X0300663Y0066537D01*
X0301630Y0067504D01*
X0301630Y0069439D01*
X0302642Y0068472D02*
X0303609Y0069439D01*
X0304577Y0068472D01*
X0304577Y0066537D01*
X0305588Y0066537D02*
X0307523Y0066537D01*
X0308535Y0067020D02*
X0309018Y0066537D01*
X0309986Y0066537D01*
X0310470Y0067020D01*
X0310470Y0069439D01*
X0311481Y0069439D02*
X0311481Y0066537D01*
X0313416Y0066537D01*
X0312449Y0067988D02*
X0311481Y0067988D01*
X0311481Y0069439D02*
X0313416Y0069439D01*
X0308535Y0069439D02*
X0308535Y0067020D01*
X0305588Y0066537D02*
X0305588Y0069439D01*
X0304577Y0067988D02*
X0302642Y0067988D01*
X0302642Y0068472D02*
X0302642Y0066537D01*
X0208416Y0096537D02*
X0206481Y0096537D01*
X0206481Y0099439D01*
X0208416Y0099439D01*
X0207449Y0097988D02*
X0206481Y0097988D01*
X0205470Y0097020D02*
X0205470Y0099439D01*
X0203535Y0099439D02*
X0203535Y0097020D01*
X0204018Y0096537D01*
X0204986Y0096537D01*
X0205470Y0097020D01*
X0202523Y0096537D02*
X0200588Y0096537D01*
X0200588Y0099439D01*
X0199577Y0098472D02*
X0199577Y0096537D01*
X0199577Y0097988D02*
X0197642Y0097988D01*
X0197642Y0098472D02*
X0197642Y0096537D01*
X0196630Y0097504D02*
X0196630Y0099439D01*
X0197642Y0098472D02*
X0198609Y0099439D01*
X0199577Y0098472D01*
X0196630Y0097504D02*
X0195663Y0096537D01*
X0194695Y0097504D01*
X0194695Y0099439D01*
X0193684Y0097988D02*
X0191749Y0096537D01*
X0193684Y0097988D02*
X0191749Y0099439D01*
X0133416Y0069439D02*
X0131481Y0069439D01*
X0131481Y0066537D01*
X0133416Y0066537D01*
X0132449Y0067988D02*
X0131481Y0067988D01*
X0130470Y0067020D02*
X0130470Y0069439D01*
X0128535Y0069439D02*
X0128535Y0067020D01*
X0129018Y0066537D01*
X0129986Y0066537D01*
X0130470Y0067020D01*
X0127523Y0066537D02*
X0125588Y0066537D01*
X0125588Y0069439D01*
X0124577Y0068472D02*
X0124577Y0066537D01*
X0124577Y0067988D02*
X0122642Y0067988D01*
X0122642Y0068472D02*
X0122642Y0066537D01*
X0121630Y0067504D02*
X0121630Y0069439D01*
X0122642Y0068472D02*
X0123609Y0069439D01*
X0124577Y0068472D01*
X0121630Y0067504D02*
X0120663Y0066537D01*
X0119695Y0067504D01*
X0119695Y0069439D01*
X0118684Y0067988D02*
X0116749Y0066537D01*
X0118684Y0067988D02*
X0116749Y0069439D01*
X0055769Y0062483D02*
X0055769Y0060548D01*
X0052867Y0060548D01*
X0052867Y0062483D01*
X0054318Y0061516D02*
X0054318Y0060548D01*
X0055286Y0059537D02*
X0052867Y0059537D01*
X0052867Y0057602D02*
X0055286Y0057602D01*
X0055769Y0058086D01*
X0055769Y0059053D01*
X0055286Y0059537D01*
X0055769Y0056590D02*
X0055769Y0054655D01*
X0052867Y0054655D01*
X0053834Y0053644D02*
X0055769Y0053644D01*
X0054318Y0053644D02*
X0054318Y0051709D01*
X0053834Y0051709D02*
X0052867Y0052676D01*
X0053834Y0053644D01*
X0053834Y0051709D02*
X0055769Y0051709D01*
X0054802Y0050697D02*
X0055769Y0049730D01*
X0054802Y0048762D01*
X0052867Y0048762D01*
X0054318Y0047751D02*
X0055769Y0045816D01*
X0054318Y0047751D02*
X0052867Y0045816D01*
X0052867Y0050697D02*
X0054802Y0050697D01*
X0027652Y0060678D02*
X0025183Y0060678D01*
X0026418Y0061912D02*
X0026418Y0059443D01*
X0025769Y0072721D02*
X0023918Y0075190D01*
X0022066Y0072721D01*
X0022066Y0076404D02*
X0025769Y0078873D01*
X0022066Y0078873D01*
X0023301Y0080087D02*
X0022066Y0081322D01*
X0023301Y0082556D01*
X0025769Y0082556D01*
X0025769Y0083770D02*
X0022066Y0083770D01*
X0023301Y0085005D01*
X0022066Y0086239D01*
X0025769Y0086239D01*
X0025769Y0087453D02*
X0022066Y0087453D01*
X0022066Y0089922D01*
X0023918Y0088688D02*
X0023918Y0087453D01*
X0025769Y0087453D02*
X0025769Y0089922D01*
X0023918Y0082556D02*
X0023918Y0080087D01*
X0023301Y0080087D02*
X0025769Y0080087D01*
X0025769Y0076404D02*
X0022066Y0076404D01*
X0026816Y0108183D02*
X0028668Y0110652D01*
X0030519Y0108183D01*
X0030519Y0111866D02*
X0026816Y0111866D01*
X0030519Y0114335D01*
X0026816Y0114335D01*
X0028051Y0115550D02*
X0026816Y0116784D01*
X0028051Y0118018D01*
X0030519Y0118018D01*
X0030519Y0119233D02*
X0026816Y0119233D01*
X0028051Y0120467D01*
X0026816Y0121701D01*
X0030519Y0121701D01*
X0030519Y0122916D02*
X0026816Y0122916D01*
X0026816Y0125385D01*
X0028668Y0124150D02*
X0028668Y0122916D01*
X0030519Y0122916D02*
X0030519Y0125385D01*
X0028668Y0118018D02*
X0028668Y0115550D01*
X0028051Y0115550D02*
X0030519Y0115550D01*
X0056168Y0008479D02*
X0057620Y0008479D01*
X0058103Y0007995D01*
X0058103Y0007028D01*
X0057620Y0006544D01*
X0056168Y0006544D01*
X0056168Y0005577D02*
X0056168Y0008479D01*
X0059115Y0008479D02*
X0059115Y0005577D01*
X0060082Y0006544D01*
X0061050Y0005577D01*
X0061050Y0008479D01*
X0062061Y0008479D02*
X0063513Y0008479D01*
X0063996Y0007995D01*
X0063996Y0007028D01*
X0063513Y0006544D01*
X0062061Y0006544D01*
X0062061Y0005577D02*
X0062061Y0008479D01*
X0063029Y0006544D02*
X0063996Y0005577D01*
D15*
X0182919Y0027987D03*
X0184919Y0027987D03*
X0184919Y0057987D03*
X0182919Y0057987D03*
X0182919Y0087987D03*
X0184919Y0087987D03*
X0292919Y0107987D03*
X0294919Y0107987D03*
X0312919Y0117987D03*
X0314919Y0117987D03*
D16*
X0123919Y0028987D03*
X0123919Y0026987D03*
X0063919Y0026987D03*
X0063919Y0028987D03*
X0043919Y0028987D03*
X0043919Y0026987D03*
D17*
X0038919Y0012987D02*
X0028919Y0012987D01*
X0028919Y0032987D01*
X0038919Y0032987D01*
X0038919Y0012987D01*
X0037669Y0041737D02*
X0037669Y0044237D01*
X0037669Y0071737D01*
X0037669Y0074237D01*
X0040169Y0074237D01*
X0040169Y0071737D01*
X0037669Y0071737D01*
X0042044Y0069237D02*
X0045824Y0069237D01*
X0045794Y0069207D02*
X0045794Y0061487D01*
X0042044Y0061487D01*
X0040419Y0061487D01*
X0040419Y0054487D01*
X0042044Y0054487D01*
X0045794Y0054487D01*
X0045794Y0046767D01*
X0042044Y0046737D01*
X0042044Y0054487D01*
X0045794Y0054487D02*
X0047419Y0054487D01*
X0047419Y0061487D01*
X0045794Y0061487D01*
X0042044Y0061487D02*
X0042044Y0069237D01*
X0047669Y0071737D02*
X0047669Y0074237D01*
X0050169Y0074237D01*
X0050169Y0071737D01*
X0047669Y0071737D01*
X0050169Y0071737D02*
X0050169Y0044237D01*
X0050169Y0041737D01*
X0047669Y0041737D01*
X0047669Y0044237D01*
X0050169Y0044237D01*
X0047669Y0041737D02*
X0040169Y0041737D01*
X0037669Y0041737D01*
X0037669Y0044237D02*
X0040169Y0044237D01*
X0040169Y0041737D01*
X0040169Y0074237D02*
X0047669Y0074237D01*
X0228919Y0082987D02*
X0228919Y0052987D01*
X0228919Y0022987D01*
X0238919Y0022987D01*
X0238919Y0052987D01*
X0228919Y0052987D01*
X0238919Y0052987D01*
X0238919Y0082987D01*
X0228919Y0082987D01*
X0228919Y0112987D01*
X0238919Y0112987D01*
X0238919Y0082987D01*
X0228919Y0082987D01*
X0298919Y0132987D02*
X0328919Y0132987D01*
X0328919Y0142987D01*
X0298919Y0142987D01*
X0298919Y0132987D01*
X0348919Y0142987D02*
X0348919Y0122987D01*
X0358919Y0122987D01*
X0358919Y0142987D01*
X0348919Y0142987D01*
D18*
X0133919Y0043487D02*
X0133919Y0042487D01*
X0063919Y0052487D02*
X0063919Y0053487D01*
D19*
X0333169Y0047987D03*
X0344669Y0047987D03*
X0344669Y0067987D03*
X0333169Y0067987D03*
X0333169Y0087987D03*
X0344669Y0087987D03*
D20*
X0184669Y0097987D03*
X0184669Y0097987D03*
X0163169Y0097987D03*
X0163169Y0097987D03*
X0163169Y0067987D03*
X0163169Y0067987D03*
X0184669Y0067987D03*
X0184669Y0067987D03*
X0184669Y0037987D03*
X0184669Y0037987D03*
X0163169Y0037987D03*
X0163169Y0037987D03*
M02*
