G75*
%MOIN*%
%OFA0B0*%
%FSLAX25Y25*%
%IPPOS*%
%LPD*%
%AMOC8*
5,1,8,0,0,1.08239X$1,22.5*
%
%ADD10C,0.07000*%
%ADD11C,0.00300*%
%ADD12C,0.00200*%
%ADD13C,0.01300*%
D10*
X0051236Y0061236D03*
X0081236Y0056236D03*
X0101236Y0051236D03*
X0101236Y0066236D03*
X0101236Y0076236D03*
X0116972Y0084622D03*
X0131236Y0081236D03*
X0131236Y0091236D03*
X0131236Y0101236D03*
X0116972Y0104622D03*
X0101236Y0121236D03*
X0097957Y0103677D03*
X0087957Y0103677D03*
X0081236Y0086236D03*
X0051236Y0101236D03*
X0063653Y0126749D03*
X0083653Y0126749D03*
X0083653Y0146749D03*
X0101236Y0161236D03*
X0116236Y0151236D03*
X0126236Y0131236D03*
X0155161Y0131906D03*
X0155161Y0121906D03*
X0155161Y0101472D03*
X0155161Y0081472D03*
X0174059Y0081472D03*
X0174059Y0101472D03*
X0177096Y0123874D03*
X0177096Y0133874D03*
X0167760Y0154976D03*
X0167760Y0164976D03*
X0081236Y0181236D03*
X0071236Y0181236D03*
X0061236Y0181236D03*
X0041236Y0131236D03*
X0031236Y0131236D03*
X0021236Y0131236D03*
X0141236Y0051236D03*
X0141236Y0041236D03*
X0141236Y0031236D03*
X0154610Y0062339D03*
X0174610Y0062339D03*
D11*
X0161663Y0118214D02*
X0161663Y0119958D01*
X0161663Y0133714D02*
X0161663Y0135458D01*
X0162534Y0134586D02*
X0160791Y0134586D01*
D12*
X0160791Y0129061D02*
X0161372Y0128480D01*
X0161372Y0128770D02*
X0161372Y0127899D01*
X0160791Y0127899D02*
X0162533Y0127899D01*
X0162533Y0128770D01*
X0162243Y0129061D01*
X0161662Y0129061D01*
X0161372Y0128770D01*
X0160791Y0127274D02*
X0162533Y0127274D01*
X0162533Y0126112D02*
X0160791Y0126112D01*
X0161372Y0126693D01*
X0160791Y0127274D01*
X0161662Y0125486D02*
X0161372Y0125196D01*
X0161372Y0124325D01*
X0160791Y0124325D02*
X0162533Y0124325D01*
X0162533Y0125196D01*
X0162243Y0125486D01*
X0161662Y0125486D01*
D13*
X0155161Y0121906D02*
X0145567Y0121906D01*
X0116236Y0151236D01*
X0110236Y0151236D01*
X0105749Y0146749D01*
X0083653Y0146749D01*
X0063653Y0126749D01*
X0057236Y0126749D01*
X0052749Y0131236D01*
X0041236Y0131236D01*
X0031236Y0131236D02*
X0031236Y0151236D01*
X0061236Y0181236D01*
X0071236Y0181236D02*
X0097236Y0155236D01*
X0106236Y0155236D01*
X0108236Y0157236D01*
X0129831Y0157236D01*
X0155161Y0131906D01*
X0155161Y0121906D02*
X0155161Y0101472D01*
X0174059Y0101472D01*
X0167236Y0108295D01*
X0167236Y0120236D01*
X0170874Y0123874D01*
X0177096Y0123874D01*
X0177096Y0133874D02*
X0167760Y0143210D01*
X0167760Y0154976D01*
X0167760Y0164976D02*
X0127976Y0164976D01*
X0124236Y0161236D01*
X0101236Y0161236D01*
X0126236Y0131236D02*
X0116972Y0121972D01*
X0116972Y0104622D01*
X0123236Y0104622D01*
X0123236Y0101236D01*
X0131236Y0101236D01*
X0131236Y0091236D02*
X0145398Y0091236D01*
X0155161Y0081472D01*
X0155161Y0068787D01*
X0154610Y0068236D01*
X0154610Y0062339D01*
X0145236Y0062339D01*
X0141236Y0058338D01*
X0141236Y0051236D01*
X0141236Y0041236D02*
X0096236Y0041236D01*
X0081236Y0056236D01*
X0075236Y0056236D01*
X0070236Y0061236D01*
X0051237Y0061236D01*
X0081236Y0086236D02*
X0094236Y0086236D01*
X0097236Y0089236D01*
X0101236Y0085236D01*
X0101236Y0076236D01*
X0108587Y0076236D01*
X0116972Y0084622D01*
X0123236Y0084622D01*
X0123236Y0081236D01*
X0131237Y0081236D01*
X0101236Y0066236D02*
X0101236Y0051236D01*
X0097236Y0089236D02*
X0097236Y0090236D01*
X0097957Y0090236D01*
X0097957Y0103677D01*
X0097957Y0110236D01*
X0101237Y0113516D01*
X0101237Y0121236D01*
X0087957Y0109236D02*
X0083653Y0113540D01*
X0083653Y0126749D01*
X0087957Y0109236D02*
X0087957Y0103677D01*
X0051236Y0101236D02*
X0024236Y0101236D01*
X0021236Y0104236D01*
X0021236Y0131236D01*
X0141236Y0041236D02*
X0141236Y0031236D01*
X0141236Y0041236D02*
X0153508Y0041236D01*
X0174610Y0062339D01*
X0174610Y0068236D01*
X0174059Y0068787D01*
X0174059Y0081472D01*
M02*
