G75*
%MOIN*%
%OFA0B0*%
%FSLAX25Y25*%
%IPPOS*%
%LPD*%
%AMOC8*
5,1,8,0,0,1.08239X$1,22.5*
%
%ADD10C,0.00500*%
D10*
X0101236Y0129236D02*
X0101376Y0129238D01*
X0101516Y0129244D01*
X0101656Y0129254D01*
X0101796Y0129267D01*
X0101935Y0129285D01*
X0102073Y0129307D01*
X0102211Y0129332D01*
X0102349Y0129361D01*
X0102485Y0129394D01*
X0102620Y0129431D01*
X0102754Y0129472D01*
X0102887Y0129517D01*
X0103019Y0129565D01*
X0103149Y0129617D01*
X0103278Y0129672D01*
X0103405Y0129731D01*
X0103531Y0129794D01*
X0103655Y0129860D01*
X0103776Y0129929D01*
X0103896Y0130002D01*
X0104014Y0130079D01*
X0104129Y0130158D01*
X0104243Y0130241D01*
X0104353Y0130327D01*
X0104462Y0130416D01*
X0104568Y0130508D01*
X0104671Y0130603D01*
X0104772Y0130700D01*
X0104869Y0130801D01*
X0104964Y0130904D01*
X0105056Y0131010D01*
X0105145Y0131119D01*
X0105231Y0131229D01*
X0105314Y0131343D01*
X0105393Y0131458D01*
X0105470Y0131576D01*
X0105543Y0131696D01*
X0105612Y0131817D01*
X0105678Y0131941D01*
X0105741Y0132067D01*
X0105800Y0132194D01*
X0105855Y0132323D01*
X0105907Y0132453D01*
X0105955Y0132585D01*
X0106000Y0132718D01*
X0106041Y0132852D01*
X0106078Y0132987D01*
X0106111Y0133123D01*
X0106140Y0133261D01*
X0106165Y0133399D01*
X0106187Y0133537D01*
X0106205Y0133676D01*
X0106218Y0133816D01*
X0106228Y0133956D01*
X0106234Y0134096D01*
X0106236Y0134236D01*
X0106234Y0134376D01*
X0106228Y0134516D01*
X0106218Y0134656D01*
X0106205Y0134796D01*
X0106187Y0134935D01*
X0106165Y0135073D01*
X0106140Y0135211D01*
X0106111Y0135349D01*
X0106078Y0135485D01*
X0106041Y0135620D01*
X0106000Y0135754D01*
X0105955Y0135887D01*
X0105907Y0136019D01*
X0105855Y0136149D01*
X0105800Y0136278D01*
X0105741Y0136405D01*
X0105678Y0136531D01*
X0105612Y0136655D01*
X0105543Y0136776D01*
X0105470Y0136896D01*
X0105393Y0137014D01*
X0105314Y0137129D01*
X0105231Y0137243D01*
X0105145Y0137353D01*
X0105056Y0137462D01*
X0104964Y0137568D01*
X0104869Y0137671D01*
X0104772Y0137772D01*
X0104671Y0137869D01*
X0104568Y0137964D01*
X0104462Y0138056D01*
X0104353Y0138145D01*
X0104243Y0138231D01*
X0104129Y0138314D01*
X0104014Y0138393D01*
X0103896Y0138470D01*
X0103776Y0138543D01*
X0103655Y0138612D01*
X0103531Y0138678D01*
X0103405Y0138741D01*
X0103278Y0138800D01*
X0103149Y0138855D01*
X0103019Y0138907D01*
X0102887Y0138955D01*
X0102754Y0139000D01*
X0102620Y0139041D01*
X0102485Y0139078D01*
X0102349Y0139111D01*
X0102211Y0139140D01*
X0102073Y0139165D01*
X0101935Y0139187D01*
X0101796Y0139205D01*
X0101656Y0139218D01*
X0101516Y0139228D01*
X0101376Y0139234D01*
X0101236Y0139236D01*
X0106236Y0139236D02*
X0106234Y0139376D01*
X0106228Y0139516D01*
X0106218Y0139656D01*
X0106205Y0139796D01*
X0106187Y0139935D01*
X0106165Y0140073D01*
X0106140Y0140211D01*
X0106111Y0140349D01*
X0106078Y0140485D01*
X0106041Y0140620D01*
X0106000Y0140754D01*
X0105955Y0140887D01*
X0105907Y0141019D01*
X0105855Y0141149D01*
X0105800Y0141278D01*
X0105741Y0141405D01*
X0105678Y0141531D01*
X0105612Y0141655D01*
X0105543Y0141776D01*
X0105470Y0141896D01*
X0105393Y0142014D01*
X0105314Y0142129D01*
X0105231Y0142243D01*
X0105145Y0142353D01*
X0105056Y0142462D01*
X0104964Y0142568D01*
X0104869Y0142671D01*
X0104772Y0142772D01*
X0104671Y0142869D01*
X0104568Y0142964D01*
X0104462Y0143056D01*
X0104353Y0143145D01*
X0104243Y0143231D01*
X0104129Y0143314D01*
X0104014Y0143393D01*
X0103896Y0143470D01*
X0103776Y0143543D01*
X0103655Y0143612D01*
X0103531Y0143678D01*
X0103405Y0143741D01*
X0103278Y0143800D01*
X0103149Y0143855D01*
X0103019Y0143907D01*
X0102887Y0143955D01*
X0102754Y0144000D01*
X0102620Y0144041D01*
X0102485Y0144078D01*
X0102349Y0144111D01*
X0102211Y0144140D01*
X0102073Y0144165D01*
X0101935Y0144187D01*
X0101796Y0144205D01*
X0101656Y0144218D01*
X0101516Y0144228D01*
X0101376Y0144234D01*
X0101236Y0144236D01*
X0106236Y0144236D02*
X0106234Y0144376D01*
X0106228Y0144516D01*
X0106218Y0144656D01*
X0106205Y0144796D01*
X0106187Y0144935D01*
X0106165Y0145073D01*
X0106140Y0145211D01*
X0106111Y0145349D01*
X0106078Y0145485D01*
X0106041Y0145620D01*
X0106000Y0145754D01*
X0105955Y0145887D01*
X0105907Y0146019D01*
X0105855Y0146149D01*
X0105800Y0146278D01*
X0105741Y0146405D01*
X0105678Y0146531D01*
X0105612Y0146655D01*
X0105543Y0146776D01*
X0105470Y0146896D01*
X0105393Y0147014D01*
X0105314Y0147129D01*
X0105231Y0147243D01*
X0105145Y0147353D01*
X0105056Y0147462D01*
X0104964Y0147568D01*
X0104869Y0147671D01*
X0104772Y0147772D01*
X0104671Y0147869D01*
X0104568Y0147964D01*
X0104462Y0148056D01*
X0104353Y0148145D01*
X0104243Y0148231D01*
X0104129Y0148314D01*
X0104014Y0148393D01*
X0103896Y0148470D01*
X0103776Y0148543D01*
X0103655Y0148612D01*
X0103531Y0148678D01*
X0103405Y0148741D01*
X0103278Y0148800D01*
X0103149Y0148855D01*
X0103019Y0148907D01*
X0102887Y0148955D01*
X0102754Y0149000D01*
X0102620Y0149041D01*
X0102485Y0149078D01*
X0102349Y0149111D01*
X0102211Y0149140D01*
X0102073Y0149165D01*
X0101935Y0149187D01*
X0101796Y0149205D01*
X0101656Y0149218D01*
X0101516Y0149228D01*
X0101376Y0149234D01*
X0101236Y0149236D01*
X0106236Y0149236D02*
X0106234Y0149376D01*
X0106228Y0149516D01*
X0106218Y0149656D01*
X0106205Y0149796D01*
X0106187Y0149935D01*
X0106165Y0150073D01*
X0106140Y0150211D01*
X0106111Y0150349D01*
X0106078Y0150485D01*
X0106041Y0150620D01*
X0106000Y0150754D01*
X0105955Y0150887D01*
X0105907Y0151019D01*
X0105855Y0151149D01*
X0105800Y0151278D01*
X0105741Y0151405D01*
X0105678Y0151531D01*
X0105612Y0151655D01*
X0105543Y0151776D01*
X0105470Y0151896D01*
X0105393Y0152014D01*
X0105314Y0152129D01*
X0105231Y0152243D01*
X0105145Y0152353D01*
X0105056Y0152462D01*
X0104964Y0152568D01*
X0104869Y0152671D01*
X0104772Y0152772D01*
X0104671Y0152869D01*
X0104568Y0152964D01*
X0104462Y0153056D01*
X0104353Y0153145D01*
X0104243Y0153231D01*
X0104129Y0153314D01*
X0104014Y0153393D01*
X0103896Y0153470D01*
X0103776Y0153543D01*
X0103655Y0153612D01*
X0103531Y0153678D01*
X0103405Y0153741D01*
X0103278Y0153800D01*
X0103149Y0153855D01*
X0103019Y0153907D01*
X0102887Y0153955D01*
X0102754Y0154000D01*
X0102620Y0154041D01*
X0102485Y0154078D01*
X0102349Y0154111D01*
X0102211Y0154140D01*
X0102073Y0154165D01*
X0101935Y0154187D01*
X0101796Y0154205D01*
X0101656Y0154218D01*
X0101516Y0154228D01*
X0101376Y0154234D01*
X0101236Y0154236D01*
M02*
