%
M48
M72
T01C0.01500
T02C0.02756
%
T01
X10100Y5100
X10100Y10100
T02
X2100Y2100
X2100Y3100
X2100Y4100
X3100Y4100
X5100Y4100
X7100Y3100
X8100Y3100
X9100Y3100
X9100Y5100
X9100Y7100
X7100Y7100
X6100Y7100
X5100Y7100
X3100Y8100
X3100Y9100
X5100Y9100
X7100Y9100
X7100Y10100
X7100Y12100
X9100Y12100
X11100Y13100
X12100Y10100
X12100Y9100
X12100Y8100
X13100Y8100
X12100Y7100
X13100Y5100
X15100Y4100
X15100Y3100
X13100Y3100
X12100Y3100
X15100Y6100
X15100Y7100
X13100Y10100
X15100Y13100
X5100Y13100
X5100Y12100
X3100Y12100
X3100Y13100
X3100Y14100
X3100Y15100
X5100Y2100
M30
