G75*
%MOIN*%
%OFA0B0*%
%FSLAX25Y25*%
%IPPOS*%
%LPD*%
%AMOC8*
5,1,8,0,0,1.08239X$1,22.5*
%
%ADD10C,0.07000*%
%ADD11C,0.00300*%
%ADD12C,0.00200*%
%ADD13C,0.05000*%
%ADD14C,0.03100*%
D10*
X0021000Y0021000D03*
X0021000Y0031000D03*
X0021000Y0041000D03*
X0031000Y0041000D03*
X0051000Y0041000D03*
X0071000Y0031000D03*
X0081000Y0031000D03*
X0091000Y0031000D03*
X0091000Y0051000D03*
X0091000Y0071000D03*
X0071000Y0071000D03*
X0061000Y0071000D03*
X0051000Y0071000D03*
X0031000Y0081000D03*
X0031000Y0091000D03*
X0051000Y0091000D03*
X0071000Y0091000D03*
X0071000Y0101000D03*
X0071000Y0121000D03*
X0091000Y0121000D03*
X0111000Y0131000D03*
X0121000Y0101000D03*
X0121000Y0091000D03*
X0121000Y0081000D03*
X0131000Y0081000D03*
X0121000Y0071000D03*
X0131000Y0051000D03*
X0151000Y0041000D03*
X0151000Y0031000D03*
X0131000Y0031000D03*
X0121000Y0031000D03*
X0151000Y0061000D03*
X0151000Y0071000D03*
X0131000Y0101000D03*
X0151000Y0131000D03*
X0051000Y0131000D03*
X0051000Y0121000D03*
X0031000Y0121000D03*
X0031000Y0131000D03*
X0031000Y0141000D03*
X0031000Y0151000D03*
X0051000Y0021000D03*
D11*
X0116308Y0037502D02*
X0118777Y0037502D01*
X0117543Y0038736D02*
X0117543Y0036267D01*
X0131808Y0037502D02*
X0134277Y0037502D01*
D12*
X0128673Y0037501D02*
X0128306Y0037134D01*
X0127205Y0037134D01*
X0127939Y0037134D02*
X0128673Y0036400D01*
X0128673Y0037501D02*
X0128673Y0038235D01*
X0128306Y0038602D01*
X0127205Y0038602D01*
X0127205Y0036400D01*
X0126463Y0036400D02*
X0126463Y0038602D01*
X0124995Y0038602D02*
X0124995Y0036400D01*
X0125729Y0037134D01*
X0126463Y0036400D01*
X0124253Y0037501D02*
X0123886Y0037134D01*
X0122785Y0037134D01*
X0122785Y0036400D02*
X0122785Y0038602D01*
X0123886Y0038602D01*
X0124253Y0038235D01*
X0124253Y0037501D01*
D13*
X0121000Y0031000D02*
X0081000Y0031000D01*
X0071000Y0031000D02*
X0021000Y0031000D01*
X0021000Y0041000D02*
X0031000Y0041000D01*
X0051000Y0041000D02*
X0051000Y0071000D01*
X0051000Y0091000D01*
X0031000Y0091000D01*
X0031000Y0081000D01*
X0051000Y0071000D02*
X0061000Y0071000D01*
X0071000Y0071000D02*
X0071000Y0076000D01*
X0071000Y0091000D01*
X0121000Y0091000D01*
X0121000Y0081000D02*
X0131000Y0081000D01*
X0121000Y0081000D02*
X0121000Y0071000D01*
X0131000Y0051000D02*
X0101000Y0051000D01*
X0091000Y0051000D01*
X0101000Y0051000D02*
X0101000Y0051000D01*
X0091000Y0071000D02*
X0071000Y0071000D01*
X0071000Y0101000D02*
X0091000Y0101000D01*
X0091000Y0121000D01*
X0071000Y0121000D02*
X0051000Y0121000D01*
X0051000Y0131000D02*
X0121000Y0131000D01*
X0121000Y0101000D01*
X0131000Y0101000D01*
X0101000Y0101000D02*
X0091000Y0101000D01*
X0051000Y0131000D02*
X0031000Y0131000D01*
X0031000Y0121000D01*
X0031000Y0141000D02*
X0031000Y0151000D01*
X0131000Y0051000D02*
X0131000Y0031000D01*
X0131000Y0021000D01*
X0151000Y0021000D01*
X0151000Y0031000D01*
X0151000Y0041000D02*
X0151000Y0061000D01*
X0151000Y0071000D02*
X0151000Y0131000D01*
X0131000Y0021000D02*
X0051000Y0021000D01*
X0021000Y0021000D01*
D14*
X0101000Y0051000D03*
X0101000Y0101000D03*
M02*
