G75*
%MOIN*%
%OFA0B0*%
%FSLAX25Y25*%
%IPPOS*%
%LPD*%
%AMOC8*
5,1,8,0,0,1.08239X$1,22.5*
%
%ADD10C,0.00472*%
%ADD11C,0.07000*%
D10*
X0001236Y0001236D02*
X0221236Y0001236D01*
X0221236Y0231236D01*
X0001236Y0231236D01*
X0001236Y0221236D01*
X0001236Y0001236D01*
D11*
X0051236Y0061236D03*
X0081236Y0056236D03*
X0101236Y0051236D03*
X0101236Y0066236D03*
X0101236Y0076236D03*
X0116972Y0084622D03*
X0131236Y0081236D03*
X0131236Y0091236D03*
X0131236Y0101236D03*
X0116972Y0104622D03*
X0101236Y0121236D03*
X0097957Y0103677D03*
X0087957Y0103677D03*
X0081236Y0086236D03*
X0051236Y0101236D03*
X0063653Y0126749D03*
X0083653Y0126749D03*
X0083653Y0146749D03*
X0101236Y0161236D03*
X0116236Y0151236D03*
X0126236Y0131236D03*
X0155161Y0131906D03*
X0155161Y0121906D03*
X0155161Y0101472D03*
X0155161Y0081472D03*
X0174059Y0081472D03*
X0174059Y0101472D03*
X0177096Y0123874D03*
X0177096Y0133874D03*
X0167760Y0154976D03*
X0167760Y0164976D03*
X0081236Y0181236D03*
X0071236Y0181236D03*
X0061236Y0181236D03*
X0041236Y0131236D03*
X0031236Y0131236D03*
X0021236Y0131236D03*
X0141236Y0051236D03*
X0141236Y0041236D03*
X0141236Y0031236D03*
X0154610Y0062339D03*
X0174610Y0062339D03*
M02*
