%
M48
M72
T01C0.02756
T02C0.03543
%
T01
X10554Y3100
T02
X2554Y1100
X2554Y2100
X3554Y3100
X4554Y3100
X5554Y3100
X5554Y2100
X4554Y2100
X5554Y1100
X7554Y2100
X8554Y2100
X9554Y2100
X10554Y2100
X11554Y2100
X11554Y1100
X9554Y3100
X9554Y4100
X10554Y4100
X9554Y5100
X8554Y5100
X8554Y6100
X9554Y6100
X8554Y7100
X10554Y7100
X12554Y7100
X12554Y6100
X4554Y6100
X4554Y5100
X4554Y4100
X2554Y4100
X2554Y6100
X3554Y7100
X4554Y7100
M30
