G75*
%MOIN*%
%OFA0B0*%
%FSLAX25Y25*%
%IPPOS*%
%LPD*%
%AMOC8*
5,1,8,0,0,1.08239X$1,22.5*
%
%ADD10C,0.00000*%
%ADD11C,0.05543*%
%ADD12R,0.04756X0.04756*%
%ADD13C,0.07000*%
%ADD14C,0.05000*%
%ADD15R,0.03962X0.03962*%
D10*
X0031115Y0005240D02*
X0031115Y0095240D01*
X0131115Y0095240D01*
X0131115Y0005240D01*
X0031115Y0005240D01*
D11*
X0051115Y0025240D03*
X0051115Y0045240D03*
X0041115Y0055240D03*
X0061115Y0065240D03*
X0061115Y0075240D03*
X0061115Y0085240D03*
X0051115Y0085240D03*
X0041115Y0075240D03*
X0091115Y0075240D03*
X0091115Y0085240D03*
X0111115Y0085240D03*
X0091115Y0065240D03*
X0111115Y0045240D03*
X0101115Y0025240D03*
X0091115Y0025240D03*
D12*
X0101115Y0035240D03*
D13*
X0101115Y0045240D03*
X0091115Y0045240D03*
X0081115Y0045240D03*
X0081115Y0035240D03*
X0071115Y0035240D03*
X0061115Y0035240D03*
X0061115Y0045240D03*
X0061115Y0055240D03*
X0101115Y0055240D03*
X0101115Y0065240D03*
X0101115Y0075240D03*
X0121115Y0075240D03*
X0121115Y0085240D03*
X0121115Y0025240D03*
X0121115Y0015240D03*
X0041115Y0015240D03*
X0041115Y0025240D03*
D14*
X0111115Y0035240D02*
X0111115Y0015240D01*
D15*
X0111115Y0015240D03*
X0111115Y0035240D03*
M02*
