G75*
%MOIN*%
%OFA0B0*%
%FSLAX25Y25*%
%IPPOS*%
%LPD*%
%AMOC8*
5,1,8,0,0,1.08239X$1,22.5*
%
%ADD10OC8,0.05950*%
%ADD11R,0.04762X0.04762*%
D10*
X0049589Y0017738D03*
X0049589Y0027738D03*
X0049589Y0037738D03*
X0059589Y0037738D03*
X0069589Y0037738D03*
X0069589Y0027738D03*
X0069589Y0017738D03*
X0099589Y0017738D03*
X0099589Y0027738D03*
X0099589Y0037738D03*
X0109589Y0037738D03*
X0119589Y0037738D03*
X0119589Y0027738D03*
X0119589Y0017738D03*
X0139589Y0017738D03*
X0139589Y0027738D03*
X0139589Y0037738D03*
X0149589Y0037738D03*
X0159589Y0037738D03*
X0159589Y0027738D03*
X0159589Y0017738D03*
X0149589Y0047738D03*
X0149589Y0057738D03*
X0139589Y0057738D03*
X0139589Y0067738D03*
X0139589Y0077738D03*
X0149589Y0077738D03*
X0149589Y0087738D03*
X0149589Y0097738D03*
X0159589Y0097738D03*
X0159589Y0107738D03*
X0159589Y0117738D03*
X0139589Y0117738D03*
X0139589Y0107738D03*
X0139589Y0097738D03*
X0119589Y0097738D03*
X0109589Y0097738D03*
X0099589Y0097738D03*
X0099589Y0107738D03*
X0099589Y0117738D03*
X0119589Y0117738D03*
X0119589Y0107738D03*
X0109589Y0087738D03*
X0109589Y0077738D03*
X0099589Y0077738D03*
X0099589Y0067738D03*
X0099589Y0057738D03*
X0109589Y0057738D03*
X0109589Y0047738D03*
X0079589Y0057738D03*
X0079589Y0067738D03*
X0079589Y0077738D03*
X0059589Y0077738D03*
X0049589Y0077738D03*
X0049589Y0067738D03*
X0049589Y0057738D03*
X0059589Y0057738D03*
X0059589Y0047738D03*
X0059589Y0087738D03*
X0059589Y0097738D03*
X0069589Y0097738D03*
X0069589Y0107738D03*
X0069589Y0117738D03*
X0049589Y0117738D03*
X0049589Y0107738D03*
X0049589Y0097738D03*
D11*
X0129589Y0077738D03*
X0129589Y0047738D03*
M02*
