G75*
%MOIN*%
%OFA0B0*%
%FSLAX25Y25*%
%IPPOS*%
%LPD*%
%AMOC8*
5,1,8,0,0,1.08239X$1,22.5*
%
%ADD10C,0.00200*%
%ADD11C,0.00300*%
%ADD12C,0.00500*%
%ADD13C,0.00100*%
D10*
X0030267Y0032202D02*
X0031368Y0033670D01*
X0032469Y0032202D01*
X0032469Y0034412D02*
X0030267Y0034412D01*
X0032469Y0035880D01*
X0030267Y0035880D01*
X0031001Y0036622D02*
X0030267Y0037356D01*
X0031001Y0038090D01*
X0032469Y0038090D01*
X0032469Y0038832D02*
X0030267Y0038832D01*
X0031001Y0039565D01*
X0030267Y0040299D01*
X0032469Y0040299D01*
X0032469Y0041041D02*
X0030267Y0041041D01*
X0030267Y0042509D01*
X0031368Y0041775D02*
X0031368Y0041041D01*
X0032469Y0041041D02*
X0032469Y0042509D01*
X0031368Y0038090D02*
X0031368Y0036622D01*
X0031001Y0036622D02*
X0032469Y0036622D01*
X0032469Y0062202D02*
X0031368Y0063670D01*
X0030267Y0062202D01*
X0030267Y0064412D02*
X0032469Y0065880D01*
X0030267Y0065880D01*
X0031001Y0066622D02*
X0030267Y0067356D01*
X0031001Y0068090D01*
X0032469Y0068090D01*
X0032469Y0068832D02*
X0030267Y0068832D01*
X0031001Y0069565D01*
X0030267Y0070299D01*
X0032469Y0070299D01*
X0032469Y0071041D02*
X0030267Y0071041D01*
X0030267Y0072509D01*
X0031368Y0071775D02*
X0031368Y0071041D01*
X0032469Y0071041D02*
X0032469Y0072509D01*
X0031368Y0068090D02*
X0031368Y0066622D01*
X0031001Y0066622D02*
X0032469Y0066622D01*
X0032469Y0064412D02*
X0030267Y0064412D01*
X0030267Y0082202D02*
X0031368Y0083670D01*
X0032469Y0082202D01*
X0032469Y0084412D02*
X0030267Y0084412D01*
X0032469Y0085880D01*
X0030267Y0085880D01*
X0031001Y0086622D02*
X0030267Y0087356D01*
X0031001Y0088090D01*
X0032469Y0088090D01*
X0032469Y0088832D02*
X0030267Y0088832D01*
X0031001Y0089565D01*
X0030267Y0090299D01*
X0032469Y0090299D01*
X0032469Y0091041D02*
X0030267Y0091041D01*
X0030267Y0092509D01*
X0031368Y0091775D02*
X0031368Y0091041D01*
X0032469Y0091041D02*
X0032469Y0092509D01*
X0031368Y0088090D02*
X0031368Y0086622D01*
X0031001Y0086622D02*
X0032469Y0086622D01*
X0050267Y0087356D02*
X0051001Y0086622D01*
X0052469Y0086622D01*
X0052469Y0085880D02*
X0050267Y0085880D01*
X0051368Y0086622D02*
X0051368Y0088090D01*
X0051001Y0088090D02*
X0052469Y0088090D01*
X0052469Y0088832D02*
X0050267Y0088832D01*
X0051001Y0089565D01*
X0050267Y0090299D01*
X0052469Y0090299D01*
X0052469Y0091041D02*
X0050267Y0091041D01*
X0050267Y0092509D01*
X0051368Y0091775D02*
X0051368Y0091041D01*
X0052469Y0091041D02*
X0052469Y0092509D01*
X0051001Y0088090D02*
X0050267Y0087356D01*
X0052469Y0085880D02*
X0050267Y0084412D01*
X0052469Y0084412D01*
X0051368Y0083670D02*
X0052469Y0082202D01*
X0051368Y0083670D02*
X0050267Y0082202D01*
X0080267Y0072509D02*
X0080267Y0071041D01*
X0082469Y0071041D01*
X0082469Y0072509D01*
X0081368Y0071775D02*
X0081368Y0071041D01*
X0080267Y0070299D02*
X0082469Y0070299D01*
X0082469Y0068832D02*
X0080267Y0068832D01*
X0081001Y0069565D01*
X0080267Y0070299D01*
X0081001Y0068090D02*
X0082469Y0068090D01*
X0081368Y0068090D02*
X0081368Y0066622D01*
X0081001Y0066622D02*
X0080267Y0067356D01*
X0081001Y0068090D01*
X0081001Y0066622D02*
X0082469Y0066622D01*
X0082469Y0065880D02*
X0080267Y0065880D01*
X0080267Y0064412D02*
X0082469Y0065880D01*
X0082469Y0064412D02*
X0080267Y0064412D01*
X0081368Y0063670D02*
X0082469Y0062202D01*
X0081368Y0063670D02*
X0080267Y0062202D01*
X0124053Y0060620D02*
X0125521Y0059519D01*
X0124053Y0058418D01*
X0126263Y0058418D02*
X0126263Y0060620D01*
X0127730Y0058418D01*
X0127730Y0060620D01*
X0128472Y0059886D02*
X0129206Y0060620D01*
X0129940Y0059886D01*
X0129940Y0058418D01*
X0130682Y0058418D02*
X0130682Y0060620D01*
X0131416Y0059886D01*
X0132150Y0060620D01*
X0132150Y0058418D01*
X0132892Y0058418D02*
X0134360Y0058418D01*
X0134053Y0058418D02*
X0135521Y0059519D01*
X0134053Y0060620D01*
X0134360Y0060620D02*
X0132892Y0060620D01*
X0132892Y0058418D01*
X0132892Y0059519D02*
X0133626Y0059519D01*
X0129940Y0059519D02*
X0128472Y0059519D01*
X0128472Y0059886D02*
X0128472Y0058418D01*
X0136263Y0058418D02*
X0136263Y0060620D01*
X0137730Y0058418D01*
X0137730Y0060620D01*
X0138472Y0059886D02*
X0138472Y0058418D01*
X0138472Y0059519D02*
X0139940Y0059519D01*
X0139940Y0059886D02*
X0139940Y0058418D01*
X0140682Y0058418D02*
X0140682Y0060620D01*
X0141416Y0059886D01*
X0142150Y0060620D01*
X0142150Y0058418D01*
X0142892Y0058418D02*
X0142892Y0060620D01*
X0144360Y0060620D01*
X0143626Y0059519D02*
X0142892Y0059519D01*
X0142892Y0058418D02*
X0144360Y0058418D01*
X0139940Y0059886D02*
X0139206Y0060620D01*
X0138472Y0059886D01*
X0150267Y0082202D02*
X0151368Y0083670D01*
X0152469Y0082202D01*
X0152469Y0084412D02*
X0150267Y0084412D01*
X0152469Y0085880D01*
X0150267Y0085880D01*
X0151001Y0086622D02*
X0150267Y0087356D01*
X0151001Y0088090D01*
X0152469Y0088090D01*
X0152469Y0088832D02*
X0150267Y0088832D01*
X0151001Y0089565D01*
X0150267Y0090299D01*
X0152469Y0090299D01*
X0152469Y0091041D02*
X0150267Y0091041D01*
X0150267Y0092509D01*
X0151368Y0091775D02*
X0151368Y0091041D01*
X0152469Y0091041D02*
X0152469Y0092509D01*
X0151368Y0088090D02*
X0151368Y0086622D01*
X0151001Y0086622D02*
X0152469Y0086622D01*
X0104360Y0094858D02*
X0102892Y0094858D01*
X0102892Y0097060D01*
X0104360Y0097060D01*
X0103626Y0095959D02*
X0102892Y0095959D01*
X0102150Y0097060D02*
X0102150Y0094858D01*
X0100682Y0094858D02*
X0100682Y0097060D01*
X0101416Y0096326D01*
X0102150Y0097060D01*
X0099940Y0096326D02*
X0099940Y0094858D01*
X0099940Y0095959D02*
X0098472Y0095959D01*
X0098472Y0096326D02*
X0098472Y0094858D01*
X0097730Y0094858D02*
X0097730Y0097060D01*
X0098472Y0096326D02*
X0099206Y0097060D01*
X0099940Y0096326D01*
X0097730Y0094858D02*
X0096263Y0097060D01*
X0096263Y0094858D01*
X0095521Y0095959D02*
X0094053Y0094858D01*
X0095521Y0095959D02*
X0094053Y0097060D01*
X0032469Y0132202D02*
X0031368Y0133670D01*
X0030267Y0132202D01*
X0030267Y0134412D02*
X0032469Y0135880D01*
X0030267Y0135880D01*
X0031001Y0136622D02*
X0030267Y0137356D01*
X0031001Y0138090D01*
X0032469Y0138090D01*
X0032469Y0138832D02*
X0030267Y0138832D01*
X0031001Y0139565D01*
X0030267Y0140299D01*
X0032469Y0140299D01*
X0032469Y0141041D02*
X0032469Y0142509D01*
X0031368Y0141775D02*
X0031368Y0141041D01*
X0030267Y0141041D02*
X0032469Y0141041D01*
X0030267Y0141041D02*
X0030267Y0142509D01*
X0031368Y0138090D02*
X0031368Y0136622D01*
X0031001Y0136622D02*
X0032469Y0136622D01*
X0032469Y0134412D02*
X0030267Y0134412D01*
D11*
X0030006Y0125590D02*
X0031941Y0124139D01*
X0030006Y0122688D01*
X0032952Y0122688D02*
X0032952Y0125590D01*
X0034887Y0122688D01*
X0034887Y0125590D01*
X0035899Y0124623D02*
X0036866Y0125590D01*
X0037834Y0124623D01*
X0037834Y0122688D01*
X0038845Y0122688D02*
X0038845Y0125590D01*
X0039813Y0124623D01*
X0040780Y0125590D01*
X0040780Y0122688D01*
X0041792Y0122688D02*
X0043727Y0122688D01*
X0042759Y0124139D02*
X0041792Y0124139D01*
X0041792Y0125590D02*
X0041792Y0122688D01*
X0037834Y0124139D02*
X0035899Y0124139D01*
X0035899Y0124623D02*
X0035899Y0122688D01*
X0041792Y0125590D02*
X0043727Y0125590D01*
X0050006Y0125590D02*
X0051941Y0124139D01*
X0050006Y0122688D01*
X0052952Y0122688D02*
X0052952Y0125590D01*
X0054887Y0122688D01*
X0054887Y0125590D01*
X0056039Y0125567D02*
X0054587Y0127502D01*
X0053136Y0125567D01*
X0055899Y0124623D02*
X0056866Y0125590D01*
X0057834Y0124623D01*
X0057834Y0122688D01*
X0058845Y0122688D02*
X0058845Y0125590D01*
X0059813Y0124623D01*
X0060780Y0125590D01*
X0060780Y0122688D01*
X0061792Y0122688D02*
X0063727Y0122688D01*
X0063136Y0122234D02*
X0063136Y0120299D01*
X0066039Y0120299D01*
X0066039Y0122234D01*
X0064587Y0121267D02*
X0064587Y0120299D01*
X0065555Y0119288D02*
X0063136Y0119288D01*
X0065555Y0119288D02*
X0066039Y0118804D01*
X0066039Y0117837D01*
X0065555Y0117353D01*
X0063136Y0117353D01*
X0066039Y0116341D02*
X0066039Y0114406D01*
X0063136Y0114406D01*
X0064104Y0113395D02*
X0066039Y0113395D01*
X0064587Y0113395D02*
X0064587Y0111460D01*
X0064104Y0111460D02*
X0063136Y0112427D01*
X0064104Y0113395D01*
X0064104Y0111460D02*
X0066039Y0111460D01*
X0065071Y0110448D02*
X0063136Y0110448D01*
X0063136Y0108513D02*
X0065071Y0108513D01*
X0066039Y0109481D01*
X0065071Y0110448D01*
X0064587Y0107502D02*
X0066039Y0105567D01*
X0064587Y0107502D02*
X0063136Y0105567D01*
X0073136Y0102234D02*
X0073136Y0100299D01*
X0076039Y0100299D01*
X0076039Y0102234D01*
X0074587Y0101267D02*
X0074587Y0100299D01*
X0075555Y0099288D02*
X0073136Y0099288D01*
X0073136Y0097353D02*
X0075555Y0097353D01*
X0076039Y0097837D01*
X0076039Y0098804D01*
X0075555Y0099288D01*
X0076039Y0096341D02*
X0076039Y0094406D01*
X0073136Y0094406D01*
X0074104Y0093395D02*
X0073136Y0092427D01*
X0074104Y0091460D01*
X0076039Y0091460D01*
X0075071Y0090448D02*
X0073136Y0090448D01*
X0074587Y0091460D02*
X0074587Y0093395D01*
X0074104Y0093395D02*
X0076039Y0093395D01*
X0075071Y0090448D02*
X0076039Y0089481D01*
X0075071Y0088513D01*
X0073136Y0088513D01*
X0074587Y0087502D02*
X0076039Y0085567D01*
X0074587Y0087502D02*
X0073136Y0085567D01*
X0056039Y0082234D02*
X0056039Y0080299D01*
X0053136Y0080299D01*
X0053136Y0082234D01*
X0054587Y0081267D02*
X0054587Y0080299D01*
X0055555Y0079288D02*
X0053136Y0079288D01*
X0053136Y0077353D02*
X0055555Y0077353D01*
X0056039Y0077837D01*
X0056039Y0078804D01*
X0055555Y0079288D01*
X0056039Y0076341D02*
X0056039Y0074406D01*
X0053136Y0074406D01*
X0054104Y0073395D02*
X0056039Y0073395D01*
X0054587Y0073395D02*
X0054587Y0071460D01*
X0054104Y0071460D02*
X0056039Y0071460D01*
X0055071Y0070448D02*
X0053136Y0070448D01*
X0054104Y0071460D02*
X0053136Y0072427D01*
X0054104Y0073395D01*
X0055071Y0070448D02*
X0056039Y0069481D01*
X0055071Y0068513D01*
X0053136Y0068513D01*
X0054587Y0067502D02*
X0056039Y0065567D01*
X0054587Y0067502D02*
X0053136Y0065567D01*
X0046039Y0062234D02*
X0046039Y0060299D01*
X0043136Y0060299D01*
X0043136Y0062234D01*
X0044587Y0061267D02*
X0044587Y0060299D01*
X0045555Y0059288D02*
X0043136Y0059288D01*
X0043136Y0057353D02*
X0045555Y0057353D01*
X0046039Y0057837D01*
X0046039Y0058804D01*
X0045555Y0059288D01*
X0046039Y0056341D02*
X0046039Y0054406D01*
X0043136Y0054406D01*
X0044104Y0053395D02*
X0046039Y0053395D01*
X0044587Y0053395D02*
X0044587Y0051460D01*
X0044104Y0051460D02*
X0043136Y0052427D01*
X0044104Y0053395D01*
X0044104Y0051460D02*
X0046039Y0051460D01*
X0045071Y0050448D02*
X0046039Y0049481D01*
X0045071Y0048513D01*
X0043136Y0048513D01*
X0044587Y0047502D02*
X0046039Y0045567D01*
X0044587Y0047502D02*
X0043136Y0045567D01*
X0043136Y0050448D02*
X0045071Y0050448D01*
X0063136Y0050448D02*
X0065071Y0050448D01*
X0066039Y0049481D01*
X0065071Y0048513D01*
X0063136Y0048513D01*
X0064587Y0047502D02*
X0066039Y0045567D01*
X0064587Y0047502D02*
X0063136Y0045567D01*
X0064104Y0051460D02*
X0063136Y0052427D01*
X0064104Y0053395D01*
X0066039Y0053395D01*
X0066039Y0054406D02*
X0063136Y0054406D01*
X0064587Y0053395D02*
X0064587Y0051460D01*
X0064104Y0051460D02*
X0066039Y0051460D01*
X0066039Y0054406D02*
X0066039Y0056341D01*
X0065555Y0057353D02*
X0063136Y0057353D01*
X0063136Y0059288D02*
X0065555Y0059288D01*
X0066039Y0058804D01*
X0066039Y0057837D01*
X0065555Y0057353D01*
X0066039Y0060299D02*
X0063136Y0060299D01*
X0063136Y0062234D01*
X0064587Y0061267D02*
X0064587Y0060299D01*
X0066039Y0060299D02*
X0066039Y0062234D01*
X0093136Y0062234D02*
X0093136Y0060299D01*
X0096039Y0060299D01*
X0096039Y0062234D01*
X0094587Y0061267D02*
X0094587Y0060299D01*
X0095555Y0059288D02*
X0093136Y0059288D01*
X0093136Y0057353D02*
X0095555Y0057353D01*
X0096039Y0057837D01*
X0096039Y0058804D01*
X0095555Y0059288D01*
X0096039Y0056341D02*
X0096039Y0054406D01*
X0093136Y0054406D01*
X0094104Y0053395D02*
X0096039Y0053395D01*
X0094587Y0053395D02*
X0094587Y0051460D01*
X0094104Y0051460D02*
X0096039Y0051460D01*
X0095071Y0050448D02*
X0093136Y0050448D01*
X0094104Y0051460D02*
X0093136Y0052427D01*
X0094104Y0053395D01*
X0095071Y0050448D02*
X0096039Y0049481D01*
X0095071Y0048513D01*
X0093136Y0048513D01*
X0094587Y0047502D02*
X0096039Y0045567D01*
X0094587Y0047502D02*
X0093136Y0045567D01*
X0107776Y0049888D02*
X0109711Y0051339D01*
X0107776Y0052790D01*
X0110722Y0052790D02*
X0112657Y0049888D01*
X0112657Y0052790D01*
X0113136Y0052427D02*
X0114104Y0051460D01*
X0116039Y0051460D01*
X0115604Y0051339D02*
X0113669Y0051339D01*
X0113669Y0051823D02*
X0113669Y0049888D01*
X0113136Y0050448D02*
X0115071Y0050448D01*
X0116039Y0049481D01*
X0115071Y0048513D01*
X0113136Y0048513D01*
X0114587Y0047502D02*
X0116039Y0045567D01*
X0114587Y0047502D02*
X0113136Y0045567D01*
X0110722Y0049888D02*
X0110722Y0052790D01*
X0113136Y0052427D02*
X0114104Y0053395D01*
X0116039Y0053395D01*
X0116615Y0052790D02*
X0117583Y0051823D01*
X0118550Y0052790D01*
X0118550Y0049888D01*
X0119562Y0049888D02*
X0121497Y0049888D01*
X0120529Y0051339D02*
X0119562Y0051339D01*
X0119562Y0052790D02*
X0119562Y0049888D01*
X0119562Y0052790D02*
X0121497Y0052790D01*
X0116615Y0052790D02*
X0116615Y0049888D01*
X0115604Y0049888D02*
X0115604Y0051823D01*
X0114636Y0052790D01*
X0113669Y0051823D01*
X0114587Y0051460D02*
X0114587Y0053395D01*
X0113136Y0054406D02*
X0116039Y0054406D01*
X0116039Y0056341D01*
X0115555Y0057353D02*
X0113136Y0057353D01*
X0113136Y0059288D02*
X0115555Y0059288D01*
X0116039Y0058804D01*
X0116039Y0057837D01*
X0115555Y0057353D01*
X0116039Y0060299D02*
X0113136Y0060299D01*
X0113136Y0062234D01*
X0114587Y0061267D02*
X0114587Y0060299D01*
X0116039Y0060299D02*
X0116039Y0062234D01*
X0106039Y0065567D02*
X0104587Y0067502D01*
X0103136Y0065567D01*
X0103136Y0068513D02*
X0105071Y0068513D01*
X0106039Y0069481D01*
X0105071Y0070448D01*
X0103136Y0070448D01*
X0104104Y0071460D02*
X0103136Y0072427D01*
X0104104Y0073395D01*
X0106039Y0073395D01*
X0106039Y0074406D02*
X0106039Y0076341D01*
X0105555Y0077353D02*
X0103136Y0077353D01*
X0103136Y0079288D02*
X0105555Y0079288D01*
X0106039Y0078804D01*
X0106039Y0077837D01*
X0105555Y0077353D01*
X0106039Y0080299D02*
X0103136Y0080299D01*
X0103136Y0082234D01*
X0104587Y0081267D02*
X0104587Y0080299D01*
X0106039Y0080299D02*
X0106039Y0082234D01*
X0096039Y0085567D02*
X0094587Y0087502D01*
X0093136Y0085567D01*
X0093136Y0088513D02*
X0095071Y0088513D01*
X0096039Y0089481D01*
X0095071Y0090448D01*
X0093136Y0090448D01*
X0094104Y0091460D02*
X0093136Y0092427D01*
X0094104Y0093395D01*
X0096039Y0093395D01*
X0096039Y0094406D02*
X0093136Y0094406D01*
X0094587Y0093395D02*
X0094587Y0091460D01*
X0094104Y0091460D02*
X0096039Y0091460D01*
X0096039Y0094406D02*
X0096039Y0096341D01*
X0095555Y0097353D02*
X0096039Y0097837D01*
X0096039Y0098804D01*
X0095555Y0099288D01*
X0093136Y0099288D01*
X0093136Y0100299D02*
X0096039Y0100299D01*
X0096039Y0102234D01*
X0095899Y0102688D02*
X0095899Y0104623D01*
X0096866Y0105590D01*
X0097834Y0104623D01*
X0097834Y0102688D01*
X0098845Y0102688D02*
X0098845Y0105590D01*
X0099813Y0104623D01*
X0100780Y0105590D01*
X0100780Y0102688D01*
X0101792Y0102688D02*
X0103727Y0102688D01*
X0102759Y0104139D02*
X0101792Y0104139D01*
X0101792Y0105590D02*
X0101792Y0102688D01*
X0101792Y0105590D02*
X0103727Y0105590D01*
X0097834Y0104139D02*
X0095899Y0104139D01*
X0094887Y0102688D02*
X0094887Y0105590D01*
X0092952Y0105590D02*
X0094887Y0102688D01*
X0094587Y0101267D02*
X0094587Y0100299D01*
X0093136Y0100299D02*
X0093136Y0102234D01*
X0092952Y0102688D02*
X0092952Y0105590D01*
X0091941Y0104139D02*
X0090006Y0102688D01*
X0091941Y0104139D02*
X0090006Y0105590D01*
X0093136Y0097353D02*
X0095555Y0097353D01*
X0113136Y0105567D02*
X0114587Y0107502D01*
X0116039Y0105567D01*
X0115071Y0108513D02*
X0113136Y0108513D01*
X0115071Y0108513D02*
X0116039Y0109481D01*
X0115071Y0110448D01*
X0113136Y0110448D01*
X0114104Y0111460D02*
X0113136Y0112427D01*
X0114104Y0113395D01*
X0116039Y0113395D01*
X0116039Y0114406D02*
X0113136Y0114406D01*
X0114587Y0113395D02*
X0114587Y0111460D01*
X0114104Y0111460D02*
X0116039Y0111460D01*
X0116039Y0114406D02*
X0116039Y0116341D01*
X0115555Y0117353D02*
X0113136Y0117353D01*
X0115555Y0117353D02*
X0116039Y0117837D01*
X0116039Y0118804D01*
X0115555Y0119288D01*
X0113136Y0119288D01*
X0113136Y0120299D02*
X0116039Y0120299D01*
X0116039Y0122234D01*
X0114587Y0121267D02*
X0114587Y0120299D01*
X0113136Y0120299D02*
X0113136Y0122234D01*
X0113727Y0122688D02*
X0111792Y0122688D01*
X0111792Y0125590D01*
X0113727Y0125590D01*
X0112759Y0124139D02*
X0111792Y0124139D01*
X0110780Y0125590D02*
X0110780Y0122688D01*
X0108845Y0122688D02*
X0108845Y0125590D01*
X0109813Y0124623D01*
X0110780Y0125590D01*
X0107834Y0124623D02*
X0107834Y0122688D01*
X0107834Y0124139D02*
X0105899Y0124139D01*
X0105899Y0124623D02*
X0106866Y0125590D01*
X0107834Y0124623D01*
X0105899Y0124623D02*
X0105899Y0122688D01*
X0104887Y0122688D02*
X0104887Y0125590D01*
X0106039Y0125567D02*
X0104587Y0127502D01*
X0103136Y0125567D01*
X0102952Y0125590D02*
X0104887Y0122688D01*
X0102952Y0122688D02*
X0102952Y0125590D01*
X0101941Y0124139D02*
X0100006Y0122688D01*
X0101941Y0124139D02*
X0100006Y0125590D01*
X0103136Y0128513D02*
X0105071Y0128513D01*
X0106039Y0129481D01*
X0105071Y0130448D01*
X0103136Y0130448D01*
X0104104Y0131460D02*
X0103136Y0132427D01*
X0104104Y0133395D01*
X0106039Y0133395D01*
X0106039Y0134406D02*
X0103136Y0134406D01*
X0104587Y0133395D02*
X0104587Y0131460D01*
X0104104Y0131460D02*
X0106039Y0131460D01*
X0106039Y0134406D02*
X0106039Y0136341D01*
X0105555Y0137353D02*
X0106039Y0137837D01*
X0106039Y0138804D01*
X0105555Y0139288D01*
X0103136Y0139288D01*
X0103136Y0140299D02*
X0106039Y0140299D01*
X0106039Y0142234D01*
X0104587Y0141267D02*
X0104587Y0140299D01*
X0103136Y0140299D02*
X0103136Y0142234D01*
X0103136Y0137353D02*
X0105555Y0137353D01*
X0093727Y0125590D02*
X0091792Y0125590D01*
X0091792Y0122688D01*
X0093727Y0122688D01*
X0092759Y0124139D02*
X0091792Y0124139D01*
X0090780Y0125590D02*
X0090780Y0122688D01*
X0088845Y0122688D02*
X0088845Y0125590D01*
X0089813Y0124623D01*
X0090780Y0125590D01*
X0087834Y0124623D02*
X0087834Y0122688D01*
X0087834Y0124139D02*
X0085899Y0124139D01*
X0085899Y0124623D02*
X0086866Y0125590D01*
X0087834Y0124623D01*
X0085899Y0124623D02*
X0085899Y0122688D01*
X0084887Y0122688D02*
X0084887Y0125590D01*
X0082952Y0125590D02*
X0084887Y0122688D01*
X0082952Y0122688D02*
X0082952Y0125590D01*
X0081941Y0124139D02*
X0080006Y0122688D01*
X0081941Y0124139D02*
X0080006Y0125590D01*
X0076039Y0125567D02*
X0074587Y0127502D01*
X0073136Y0125567D01*
X0073136Y0128513D02*
X0075071Y0128513D01*
X0076039Y0129481D01*
X0075071Y0130448D01*
X0073136Y0130448D01*
X0074104Y0131460D02*
X0073136Y0132427D01*
X0074104Y0133395D01*
X0076039Y0133395D01*
X0076039Y0134406D02*
X0076039Y0136341D01*
X0075555Y0137353D02*
X0076039Y0137837D01*
X0076039Y0138804D01*
X0075555Y0139288D01*
X0073136Y0139288D01*
X0073136Y0140299D02*
X0076039Y0140299D01*
X0076039Y0142234D01*
X0074587Y0141267D02*
X0074587Y0140299D01*
X0073136Y0140299D02*
X0073136Y0142234D01*
X0073136Y0137353D02*
X0075555Y0137353D01*
X0076039Y0134406D02*
X0073136Y0134406D01*
X0074587Y0133395D02*
X0074587Y0131460D01*
X0074104Y0131460D02*
X0076039Y0131460D01*
X0063727Y0125590D02*
X0061792Y0125590D01*
X0061792Y0122688D01*
X0061792Y0124139D02*
X0062759Y0124139D01*
X0057834Y0124139D02*
X0055899Y0124139D01*
X0055899Y0124623D02*
X0055899Y0122688D01*
X0055071Y0128513D02*
X0053136Y0128513D01*
X0055071Y0128513D02*
X0056039Y0129481D01*
X0055071Y0130448D01*
X0053136Y0130448D01*
X0054104Y0131460D02*
X0053136Y0132427D01*
X0054104Y0133395D01*
X0056039Y0133395D01*
X0056039Y0134406D02*
X0053136Y0134406D01*
X0054587Y0133395D02*
X0054587Y0131460D01*
X0054104Y0131460D02*
X0056039Y0131460D01*
X0056039Y0134406D02*
X0056039Y0136341D01*
X0055555Y0137353D02*
X0056039Y0137837D01*
X0056039Y0138804D01*
X0055555Y0139288D01*
X0053136Y0139288D01*
X0053136Y0140299D02*
X0056039Y0140299D01*
X0056039Y0142234D01*
X0054587Y0141267D02*
X0054587Y0140299D01*
X0053136Y0140299D02*
X0053136Y0142234D01*
X0053136Y0137353D02*
X0055555Y0137353D01*
X0053727Y0105590D02*
X0051792Y0105590D01*
X0051792Y0102688D01*
X0053727Y0102688D01*
X0052759Y0104139D02*
X0051792Y0104139D01*
X0050780Y0105590D02*
X0049813Y0104623D01*
X0048845Y0105590D01*
X0048845Y0102688D01*
X0047834Y0102688D02*
X0047834Y0104623D01*
X0046866Y0105590D01*
X0045899Y0104623D01*
X0045899Y0102688D01*
X0046039Y0102234D02*
X0046039Y0100299D01*
X0043136Y0100299D01*
X0043136Y0102234D01*
X0042952Y0102688D02*
X0042952Y0105590D01*
X0044887Y0102688D01*
X0044887Y0105590D01*
X0045899Y0104139D02*
X0047834Y0104139D01*
X0050780Y0105590D02*
X0050780Y0102688D01*
X0046039Y0098804D02*
X0045555Y0099288D01*
X0043136Y0099288D01*
X0044587Y0100299D02*
X0044587Y0101267D01*
X0046039Y0098804D02*
X0046039Y0097837D01*
X0045555Y0097353D01*
X0043136Y0097353D01*
X0043136Y0094406D02*
X0046039Y0094406D01*
X0046039Y0096341D01*
X0046039Y0093395D02*
X0044104Y0093395D01*
X0043136Y0092427D01*
X0044104Y0091460D01*
X0046039Y0091460D01*
X0045071Y0090448D02*
X0043136Y0090448D01*
X0044587Y0091460D02*
X0044587Y0093395D01*
X0045071Y0090448D02*
X0046039Y0089481D01*
X0045071Y0088513D01*
X0043136Y0088513D01*
X0044587Y0087502D02*
X0046039Y0085567D01*
X0044587Y0087502D02*
X0043136Y0085567D01*
X0040006Y0102688D02*
X0041941Y0104139D01*
X0040006Y0105590D01*
X0103136Y0074406D02*
X0106039Y0074406D01*
X0104587Y0073395D02*
X0104587Y0071460D01*
X0104104Y0071460D02*
X0106039Y0071460D01*
X0133136Y0062234D02*
X0133136Y0060299D01*
X0136039Y0060299D01*
X0136039Y0062234D01*
X0134587Y0061267D02*
X0134587Y0060299D01*
X0135555Y0059288D02*
X0133136Y0059288D01*
X0133136Y0057353D02*
X0135555Y0057353D01*
X0136039Y0057837D01*
X0136039Y0058804D01*
X0135555Y0059288D01*
X0136039Y0056341D02*
X0136039Y0054406D01*
X0133136Y0054406D01*
X0134104Y0053395D02*
X0136039Y0053395D01*
X0134587Y0053395D02*
X0134587Y0051460D01*
X0134104Y0051460D02*
X0133136Y0052427D01*
X0134104Y0053395D01*
X0137776Y0052790D02*
X0139711Y0051339D01*
X0137776Y0049888D01*
X0136039Y0049481D02*
X0135071Y0050448D01*
X0133136Y0050448D01*
X0134104Y0051460D02*
X0136039Y0051460D01*
X0136039Y0049481D02*
X0135071Y0048513D01*
X0133136Y0048513D01*
X0134587Y0047502D02*
X0136039Y0045567D01*
X0134587Y0047502D02*
X0133136Y0045567D01*
X0140722Y0049888D02*
X0140722Y0052790D01*
X0142657Y0049888D01*
X0142657Y0052790D01*
X0143669Y0051823D02*
X0144636Y0052790D01*
X0145604Y0051823D01*
X0145604Y0049888D01*
X0146615Y0049888D02*
X0146615Y0052790D01*
X0147583Y0051823D01*
X0148550Y0052790D01*
X0148550Y0049888D01*
X0149562Y0049888D02*
X0151497Y0049888D01*
X0153136Y0050448D02*
X0155071Y0050448D01*
X0156039Y0049481D01*
X0155071Y0048513D01*
X0153136Y0048513D01*
X0154587Y0047502D02*
X0156039Y0045567D01*
X0154587Y0047502D02*
X0153136Y0045567D01*
X0149562Y0049888D02*
X0149562Y0052790D01*
X0151497Y0052790D01*
X0153136Y0052427D02*
X0154104Y0051460D01*
X0156039Y0051460D01*
X0154587Y0051460D02*
X0154587Y0053395D01*
X0154104Y0053395D02*
X0156039Y0053395D01*
X0156039Y0054406D02*
X0153136Y0054406D01*
X0154104Y0053395D02*
X0153136Y0052427D01*
X0150529Y0051339D02*
X0149562Y0051339D01*
X0145604Y0051339D02*
X0143669Y0051339D01*
X0143669Y0051823D02*
X0143669Y0049888D01*
X0153136Y0057353D02*
X0155555Y0057353D01*
X0156039Y0057837D01*
X0156039Y0058804D01*
X0155555Y0059288D01*
X0153136Y0059288D01*
X0153136Y0060299D02*
X0156039Y0060299D01*
X0156039Y0062234D01*
X0154587Y0061267D02*
X0154587Y0060299D01*
X0153136Y0060299D02*
X0153136Y0062234D01*
X0156039Y0056341D02*
X0156039Y0054406D01*
X0157776Y0052790D02*
X0159711Y0051339D01*
X0157776Y0049888D01*
X0160722Y0049888D02*
X0160722Y0052790D01*
X0162657Y0049888D01*
X0162657Y0052790D01*
X0163669Y0051823D02*
X0164636Y0052790D01*
X0165604Y0051823D01*
X0165604Y0049888D01*
X0166615Y0049888D02*
X0166615Y0052790D01*
X0167583Y0051823D01*
X0168550Y0052790D01*
X0168550Y0049888D01*
X0169562Y0049888D02*
X0171497Y0049888D01*
X0170529Y0051339D02*
X0169562Y0051339D01*
X0169562Y0052790D02*
X0169562Y0049888D01*
X0169562Y0052790D02*
X0171497Y0052790D01*
X0165604Y0051339D02*
X0163669Y0051339D01*
X0163669Y0051823D02*
X0163669Y0049888D01*
X0167776Y0032790D02*
X0169711Y0031339D01*
X0167776Y0029888D01*
X0170722Y0029888D02*
X0170722Y0032790D01*
X0172657Y0029888D01*
X0172657Y0032790D01*
X0173669Y0031823D02*
X0174636Y0032790D01*
X0175604Y0031823D01*
X0175604Y0029888D01*
X0176615Y0029888D02*
X0176615Y0032790D01*
X0177583Y0031823D01*
X0178550Y0032790D01*
X0178550Y0029888D01*
X0179562Y0029888D02*
X0181497Y0029888D01*
X0180529Y0031339D02*
X0179562Y0031339D01*
X0179562Y0032790D02*
X0179562Y0029888D01*
X0179562Y0032790D02*
X0181497Y0032790D01*
X0175604Y0031339D02*
X0173669Y0031339D01*
X0173669Y0031823D02*
X0173669Y0029888D01*
X0171497Y0012790D02*
X0169562Y0012790D01*
X0169562Y0009888D01*
X0171497Y0009888D01*
X0170529Y0011339D02*
X0169562Y0011339D01*
X0168550Y0012790D02*
X0168550Y0009888D01*
X0166615Y0009888D02*
X0166615Y0012790D01*
X0167583Y0011823D01*
X0168550Y0012790D01*
X0165604Y0011823D02*
X0165604Y0009888D01*
X0165604Y0011339D02*
X0163669Y0011339D01*
X0163669Y0011823D02*
X0164636Y0012790D01*
X0165604Y0011823D01*
X0163669Y0011823D02*
X0163669Y0009888D01*
X0162657Y0009888D02*
X0162657Y0012790D01*
X0160722Y0012790D02*
X0162657Y0009888D01*
X0160722Y0009888D02*
X0160722Y0012790D01*
X0159711Y0011339D02*
X0157776Y0009888D01*
X0159711Y0011339D02*
X0157776Y0012790D01*
X0141497Y0012790D02*
X0139562Y0012790D01*
X0139562Y0009888D01*
X0141497Y0009888D01*
X0140529Y0011339D02*
X0139562Y0011339D01*
X0138550Y0012790D02*
X0138550Y0009888D01*
X0136615Y0009888D02*
X0136615Y0012790D01*
X0137583Y0011823D01*
X0138550Y0012790D01*
X0135604Y0011823D02*
X0135604Y0009888D01*
X0135604Y0011339D02*
X0133669Y0011339D01*
X0133669Y0011823D02*
X0134636Y0012790D01*
X0135604Y0011823D01*
X0133669Y0011823D02*
X0133669Y0009888D01*
X0132657Y0009888D02*
X0132657Y0012790D01*
X0130722Y0012790D02*
X0132657Y0009888D01*
X0130722Y0009888D02*
X0130722Y0012790D01*
X0129711Y0011339D02*
X0127776Y0009888D01*
X0129711Y0011339D02*
X0127776Y0012790D01*
X0121497Y0012790D02*
X0119562Y0012790D01*
X0119562Y0009888D01*
X0121497Y0009888D01*
X0120529Y0011339D02*
X0119562Y0011339D01*
X0118550Y0012790D02*
X0118550Y0009888D01*
X0116615Y0009888D02*
X0116615Y0012790D01*
X0117583Y0011823D01*
X0118550Y0012790D01*
X0115604Y0011823D02*
X0115604Y0009888D01*
X0115604Y0011339D02*
X0113669Y0011339D01*
X0113669Y0011823D02*
X0114636Y0012790D01*
X0115604Y0011823D01*
X0113669Y0011823D02*
X0113669Y0009888D01*
X0112657Y0009888D02*
X0112657Y0012790D01*
X0110722Y0012790D02*
X0112657Y0009888D01*
X0110722Y0009888D02*
X0110722Y0012790D01*
X0109711Y0011339D02*
X0107776Y0009888D01*
X0109711Y0011339D02*
X0107776Y0012790D01*
X0117776Y0029888D02*
X0119711Y0031339D01*
X0117776Y0032790D01*
X0120722Y0032790D02*
X0122657Y0029888D01*
X0122657Y0032790D01*
X0123669Y0031823D02*
X0124636Y0032790D01*
X0125604Y0031823D01*
X0125604Y0029888D01*
X0126615Y0029888D02*
X0126615Y0032790D01*
X0127583Y0031823D01*
X0128550Y0032790D01*
X0128550Y0029888D01*
X0129562Y0029888D02*
X0131497Y0029888D01*
X0130529Y0031339D02*
X0129562Y0031339D01*
X0129562Y0032790D02*
X0129562Y0029888D01*
X0125604Y0031339D02*
X0123669Y0031339D01*
X0123669Y0031823D02*
X0123669Y0029888D01*
X0120722Y0029888D02*
X0120722Y0032790D01*
X0129562Y0032790D02*
X0131497Y0032790D01*
X0177776Y0012790D02*
X0179711Y0011339D01*
X0177776Y0009888D01*
X0180722Y0009888D02*
X0180722Y0012790D01*
X0182657Y0009888D01*
X0182657Y0012790D01*
X0183669Y0011823D02*
X0184636Y0012790D01*
X0185604Y0011823D01*
X0185604Y0009888D01*
X0186615Y0009888D02*
X0186615Y0012790D01*
X0187583Y0011823D01*
X0188550Y0012790D01*
X0188550Y0009888D01*
X0189562Y0009888D02*
X0191497Y0009888D01*
X0190529Y0011339D02*
X0189562Y0011339D01*
X0189562Y0012790D02*
X0189562Y0009888D01*
X0189562Y0012790D02*
X0191497Y0012790D01*
X0185604Y0011339D02*
X0183669Y0011339D01*
X0183669Y0011823D02*
X0183669Y0009888D01*
X0197776Y0009888D02*
X0199711Y0011339D01*
X0197776Y0012790D01*
X0200722Y0012790D02*
X0202657Y0009888D01*
X0202657Y0012790D01*
X0203669Y0011823D02*
X0204636Y0012790D01*
X0205604Y0011823D01*
X0205604Y0009888D01*
X0206615Y0009888D02*
X0206615Y0012790D01*
X0207583Y0011823D01*
X0208550Y0012790D01*
X0208550Y0009888D01*
X0209562Y0009888D02*
X0211497Y0009888D01*
X0210529Y0011339D02*
X0209562Y0011339D01*
X0209562Y0012790D02*
X0209562Y0009888D01*
X0205604Y0011339D02*
X0203669Y0011339D01*
X0203669Y0011823D02*
X0203669Y0009888D01*
X0200722Y0009888D02*
X0200722Y0012790D01*
X0209562Y0012790D02*
X0211497Y0012790D01*
X0217776Y0012790D02*
X0219711Y0011339D01*
X0217776Y0009888D01*
X0220722Y0009888D02*
X0220722Y0012790D01*
X0222657Y0009888D01*
X0222657Y0012790D01*
X0223669Y0011823D02*
X0224636Y0012790D01*
X0225604Y0011823D01*
X0225604Y0009888D01*
X0226615Y0009888D02*
X0226615Y0012790D01*
X0227583Y0011823D01*
X0228550Y0012790D01*
X0228550Y0009888D01*
X0229562Y0009888D02*
X0231497Y0009888D01*
X0230529Y0011339D02*
X0229562Y0011339D01*
X0229562Y0012790D02*
X0229562Y0009888D01*
X0225604Y0011339D02*
X0223669Y0011339D01*
X0223669Y0011823D02*
X0223669Y0009888D01*
X0229562Y0012790D02*
X0231497Y0012790D01*
X0221497Y0029888D02*
X0219562Y0029888D01*
X0219562Y0032790D01*
X0221497Y0032790D01*
X0220529Y0031339D02*
X0219562Y0031339D01*
X0218550Y0032790D02*
X0217583Y0031823D01*
X0216615Y0032790D01*
X0216615Y0029888D01*
X0215604Y0029888D02*
X0215604Y0031823D01*
X0214636Y0032790D01*
X0213669Y0031823D01*
X0213669Y0029888D01*
X0212657Y0029888D02*
X0212657Y0032790D01*
X0213669Y0031339D02*
X0215604Y0031339D01*
X0218550Y0032790D02*
X0218550Y0029888D01*
X0212657Y0029888D02*
X0210722Y0032790D01*
X0210722Y0029888D01*
X0209711Y0031339D02*
X0207776Y0029888D01*
X0209711Y0031339D02*
X0207776Y0032790D01*
X0208550Y0049888D02*
X0208550Y0052790D01*
X0207583Y0051823D01*
X0206615Y0052790D01*
X0206615Y0049888D01*
X0205604Y0049888D02*
X0205604Y0051823D01*
X0204636Y0052790D01*
X0203669Y0051823D01*
X0203669Y0049888D01*
X0202657Y0049888D02*
X0202657Y0052790D01*
X0203669Y0051339D02*
X0205604Y0051339D01*
X0209562Y0051339D02*
X0210529Y0051339D01*
X0209562Y0052790D02*
X0209562Y0049888D01*
X0211497Y0049888D01*
X0211497Y0052790D02*
X0209562Y0052790D01*
X0202657Y0049888D02*
X0200722Y0052790D01*
X0200722Y0049888D01*
X0199711Y0051339D02*
X0197776Y0049888D01*
X0199711Y0051339D02*
X0197776Y0052790D01*
X0146039Y0065567D02*
X0144587Y0067502D01*
X0143136Y0065567D01*
X0143136Y0068513D02*
X0145071Y0068513D01*
X0146039Y0069481D01*
X0145071Y0070448D01*
X0143136Y0070448D01*
X0144104Y0071460D02*
X0143136Y0072427D01*
X0144104Y0073395D01*
X0146039Y0073395D01*
X0146039Y0074406D02*
X0146039Y0076341D01*
X0145555Y0077353D02*
X0143136Y0077353D01*
X0143136Y0079288D02*
X0145555Y0079288D01*
X0146039Y0078804D01*
X0146039Y0077837D01*
X0145555Y0077353D01*
X0146039Y0080299D02*
X0143136Y0080299D01*
X0143136Y0082234D01*
X0144587Y0081267D02*
X0144587Y0080299D01*
X0146039Y0080299D02*
X0146039Y0082234D01*
X0136039Y0085567D02*
X0134587Y0087502D01*
X0133136Y0085567D01*
X0133136Y0088513D02*
X0135071Y0088513D01*
X0136039Y0089481D01*
X0135071Y0090448D01*
X0133136Y0090448D01*
X0134104Y0091460D02*
X0133136Y0092427D01*
X0134104Y0093395D01*
X0136039Y0093395D01*
X0136039Y0094406D02*
X0136039Y0096341D01*
X0135555Y0097353D02*
X0136039Y0097837D01*
X0136039Y0098804D01*
X0135555Y0099288D01*
X0133136Y0099288D01*
X0133136Y0100299D02*
X0136039Y0100299D01*
X0136039Y0102234D01*
X0135899Y0102688D02*
X0135899Y0104623D01*
X0136866Y0105590D01*
X0137834Y0104623D01*
X0137834Y0102688D01*
X0138845Y0102688D02*
X0138845Y0105590D01*
X0139813Y0104623D01*
X0140780Y0105590D01*
X0140780Y0102688D01*
X0141792Y0102688D02*
X0143727Y0102688D01*
X0142759Y0104139D02*
X0141792Y0104139D01*
X0141792Y0105590D02*
X0141792Y0102688D01*
X0141792Y0105590D02*
X0143727Y0105590D01*
X0137834Y0104139D02*
X0135899Y0104139D01*
X0134887Y0102688D02*
X0134887Y0105590D01*
X0132952Y0105590D02*
X0134887Y0102688D01*
X0134587Y0101267D02*
X0134587Y0100299D01*
X0133136Y0100299D02*
X0133136Y0102234D01*
X0132952Y0102688D02*
X0132952Y0105590D01*
X0131941Y0104139D02*
X0130006Y0102688D01*
X0131941Y0104139D02*
X0130006Y0105590D01*
X0133136Y0097353D02*
X0135555Y0097353D01*
X0136039Y0094406D02*
X0133136Y0094406D01*
X0134587Y0093395D02*
X0134587Y0091460D01*
X0134104Y0091460D02*
X0136039Y0091460D01*
X0153136Y0105567D02*
X0154587Y0107502D01*
X0156039Y0105567D01*
X0155071Y0108513D02*
X0153136Y0108513D01*
X0155071Y0108513D02*
X0156039Y0109481D01*
X0155071Y0110448D01*
X0153136Y0110448D01*
X0154104Y0111460D02*
X0153136Y0112427D01*
X0154104Y0113395D01*
X0156039Y0113395D01*
X0156039Y0114406D02*
X0153136Y0114406D01*
X0154587Y0113395D02*
X0154587Y0111460D01*
X0154104Y0111460D02*
X0156039Y0111460D01*
X0156039Y0114406D02*
X0156039Y0116341D01*
X0155555Y0117353D02*
X0153136Y0117353D01*
X0155555Y0117353D02*
X0156039Y0117837D01*
X0156039Y0118804D01*
X0155555Y0119288D01*
X0153136Y0119288D01*
X0153136Y0120299D02*
X0156039Y0120299D01*
X0156039Y0122234D01*
X0154587Y0121267D02*
X0154587Y0120299D01*
X0153136Y0120299D02*
X0153136Y0122234D01*
X0153727Y0122688D02*
X0151792Y0122688D01*
X0151792Y0125590D01*
X0153727Y0125590D01*
X0152759Y0124139D02*
X0151792Y0124139D01*
X0150780Y0125590D02*
X0150780Y0122688D01*
X0148845Y0122688D02*
X0148845Y0125590D01*
X0149813Y0124623D01*
X0150780Y0125590D01*
X0147834Y0124623D02*
X0147834Y0122688D01*
X0147834Y0124139D02*
X0145899Y0124139D01*
X0145899Y0124623D02*
X0146866Y0125590D01*
X0147834Y0124623D01*
X0145899Y0124623D02*
X0145899Y0122688D01*
X0144887Y0122688D02*
X0144887Y0125590D01*
X0146039Y0125567D02*
X0144587Y0127502D01*
X0143136Y0125567D01*
X0142952Y0125590D02*
X0144887Y0122688D01*
X0142952Y0122688D02*
X0142952Y0125590D01*
X0141941Y0124139D02*
X0140006Y0122688D01*
X0141941Y0124139D02*
X0140006Y0125590D01*
X0143136Y0128513D02*
X0145071Y0128513D01*
X0146039Y0129481D01*
X0145071Y0130448D01*
X0143136Y0130448D01*
X0144104Y0131460D02*
X0143136Y0132427D01*
X0144104Y0133395D01*
X0146039Y0133395D01*
X0146039Y0134406D02*
X0143136Y0134406D01*
X0144587Y0133395D02*
X0144587Y0131460D01*
X0144104Y0131460D02*
X0146039Y0131460D01*
X0146039Y0134406D02*
X0146039Y0136341D01*
X0145555Y0137353D02*
X0146039Y0137837D01*
X0146039Y0138804D01*
X0145555Y0139288D01*
X0143136Y0139288D01*
X0143136Y0140299D02*
X0146039Y0140299D01*
X0146039Y0142234D01*
X0144587Y0141267D02*
X0144587Y0140299D01*
X0143136Y0140299D02*
X0143136Y0142234D01*
X0143136Y0137353D02*
X0145555Y0137353D01*
X0133727Y0125590D02*
X0131792Y0125590D01*
X0131792Y0122688D01*
X0133727Y0122688D01*
X0132759Y0124139D02*
X0131792Y0124139D01*
X0130780Y0125590D02*
X0130780Y0122688D01*
X0128845Y0122688D02*
X0128845Y0125590D01*
X0129813Y0124623D01*
X0130780Y0125590D01*
X0127834Y0124623D02*
X0127834Y0122688D01*
X0127834Y0124139D02*
X0125899Y0124139D01*
X0125899Y0124623D02*
X0126866Y0125590D01*
X0127834Y0124623D01*
X0125899Y0124623D02*
X0125899Y0122688D01*
X0124887Y0122688D02*
X0124887Y0125590D01*
X0126039Y0125567D02*
X0124587Y0127502D01*
X0123136Y0125567D01*
X0122952Y0125590D02*
X0124887Y0122688D01*
X0122952Y0122688D02*
X0122952Y0125590D01*
X0121941Y0124139D02*
X0120006Y0122688D01*
X0121941Y0124139D02*
X0120006Y0125590D01*
X0123136Y0128513D02*
X0125071Y0128513D01*
X0126039Y0129481D01*
X0125071Y0130448D01*
X0123136Y0130448D01*
X0124104Y0131460D02*
X0123136Y0132427D01*
X0124104Y0133395D01*
X0126039Y0133395D01*
X0126039Y0134406D02*
X0126039Y0136341D01*
X0125555Y0137353D02*
X0126039Y0137837D01*
X0126039Y0138804D01*
X0125555Y0139288D01*
X0123136Y0139288D01*
X0123136Y0140299D02*
X0126039Y0140299D01*
X0126039Y0142234D01*
X0124587Y0141267D02*
X0124587Y0140299D01*
X0123136Y0140299D02*
X0123136Y0142234D01*
X0123136Y0137353D02*
X0125555Y0137353D01*
X0126039Y0134406D02*
X0123136Y0134406D01*
X0124587Y0133395D02*
X0124587Y0131460D01*
X0124104Y0131460D02*
X0126039Y0131460D01*
X0163136Y0132427D02*
X0164104Y0133395D01*
X0166039Y0133395D01*
X0166039Y0134406D02*
X0166039Y0136341D01*
X0165555Y0137353D02*
X0166039Y0137837D01*
X0166039Y0138804D01*
X0165555Y0139288D01*
X0163136Y0139288D01*
X0163136Y0140299D02*
X0166039Y0140299D01*
X0166039Y0142234D01*
X0164587Y0141267D02*
X0164587Y0140299D01*
X0163136Y0140299D02*
X0163136Y0142234D01*
X0163136Y0137353D02*
X0165555Y0137353D01*
X0166039Y0134406D02*
X0163136Y0134406D01*
X0164587Y0133395D02*
X0164587Y0131460D01*
X0164104Y0131460D02*
X0163136Y0132427D01*
X0164104Y0131460D02*
X0166039Y0131460D01*
X0165071Y0130448D02*
X0163136Y0130448D01*
X0165071Y0130448D02*
X0166039Y0129481D01*
X0165071Y0128513D01*
X0163136Y0128513D01*
X0164587Y0127502D02*
X0166039Y0125567D01*
X0164587Y0127502D02*
X0163136Y0125567D01*
X0146039Y0074406D02*
X0143136Y0074406D01*
X0144587Y0073395D02*
X0144587Y0071460D01*
X0144104Y0071460D02*
X0146039Y0071460D01*
D12*
X0146088Y0075986D02*
X0145891Y0076138D01*
X0145689Y0076285D01*
X0145485Y0076428D01*
X0145277Y0076565D01*
X0145066Y0076698D01*
X0144851Y0076826D01*
X0144634Y0076948D01*
X0144414Y0077065D01*
X0144191Y0077177D01*
X0143966Y0077284D01*
X0143089Y0079490D02*
X0143089Y0095986D01*
X0139089Y0097250D02*
X0139089Y0118226D01*
X0133089Y0115986D02*
X0133089Y0099490D01*
X0133286Y0099338D01*
X0133488Y0099191D01*
X0133692Y0099048D01*
X0133900Y0098911D01*
X0134111Y0098778D01*
X0134326Y0098650D01*
X0134543Y0098528D01*
X0134763Y0098411D01*
X0134986Y0098299D01*
X0135211Y0098192D01*
X0139088Y0097250D02*
X0139344Y0097241D01*
X0139600Y0097238D01*
X0139856Y0097241D01*
X0140112Y0097251D01*
X0140367Y0097267D01*
X0140622Y0097289D01*
X0140877Y0097317D01*
X0141130Y0097352D01*
X0141383Y0097393D01*
X0141635Y0097439D01*
X0141885Y0097492D01*
X0142134Y0097551D01*
X0142382Y0097617D01*
X0142628Y0097688D01*
X0142872Y0097765D01*
X0143114Y0097848D01*
X0143354Y0097937D01*
X0143592Y0098031D01*
X0143827Y0098132D01*
X0144060Y0098238D01*
X0149089Y0098226D02*
X0149089Y0077250D01*
X0146089Y0075986D02*
X0146089Y0059490D01*
X0150089Y0058226D02*
X0150089Y0037250D01*
X0146089Y0035986D02*
X0146089Y0019490D01*
X0140089Y0017250D02*
X0140089Y0038226D01*
X0126089Y0035986D02*
X0126089Y0019490D01*
X0120089Y0017250D02*
X0120089Y0038226D01*
X0116089Y0039490D02*
X0116089Y0055986D01*
X0110089Y0058226D02*
X0110089Y0037250D01*
X0106089Y0035986D02*
X0106089Y0019490D01*
X0100089Y0017250D02*
X0100089Y0038226D01*
X0114060Y0038236D02*
X0114275Y0038340D01*
X0114488Y0038449D01*
X0114698Y0038563D01*
X0114905Y0038682D01*
X0115110Y0038805D01*
X0115312Y0038933D01*
X0115511Y0039066D01*
X0115706Y0039203D01*
X0115899Y0039344D01*
X0116088Y0039490D01*
X0110089Y0037250D02*
X0109833Y0037241D01*
X0109577Y0037238D01*
X0109321Y0037241D01*
X0109065Y0037251D01*
X0108810Y0037267D01*
X0108555Y0037289D01*
X0108300Y0037317D01*
X0108047Y0037352D01*
X0107794Y0037393D01*
X0107542Y0037439D01*
X0107292Y0037492D01*
X0107043Y0037551D01*
X0106795Y0037617D01*
X0106549Y0037688D01*
X0106305Y0037765D01*
X0106063Y0037848D01*
X0105823Y0037937D01*
X0105585Y0038031D01*
X0105350Y0038132D01*
X0105117Y0038238D01*
X0110088Y0037250D02*
X0110345Y0037265D01*
X0110602Y0037287D01*
X0110858Y0037315D01*
X0111113Y0037349D01*
X0111367Y0037390D01*
X0111620Y0037437D01*
X0111872Y0037490D01*
X0112123Y0037549D01*
X0112372Y0037614D01*
X0112619Y0037685D01*
X0112865Y0037762D01*
X0113109Y0037846D01*
X0113350Y0037935D01*
X0113589Y0038030D01*
X0113826Y0038131D01*
X0114060Y0038238D01*
X0110089Y0058226D02*
X0109833Y0058235D01*
X0109577Y0058238D01*
X0109321Y0058235D01*
X0109065Y0058225D01*
X0108810Y0058209D01*
X0108555Y0058187D01*
X0108300Y0058159D01*
X0108047Y0058124D01*
X0107794Y0058083D01*
X0107542Y0058037D01*
X0107292Y0057984D01*
X0107043Y0057925D01*
X0106795Y0057859D01*
X0106549Y0057788D01*
X0106305Y0057711D01*
X0106063Y0057628D01*
X0105823Y0057539D01*
X0105585Y0057445D01*
X0105350Y0057344D01*
X0105117Y0057238D01*
X0106089Y0059490D02*
X0106089Y0075986D01*
X0109089Y0077250D02*
X0109089Y0098226D01*
X0113089Y0099490D02*
X0113089Y0115986D01*
X0119089Y0118226D02*
X0119089Y0097250D01*
X0105117Y0097240D02*
X0104902Y0097136D01*
X0104689Y0097027D01*
X0104479Y0096913D01*
X0104272Y0096794D01*
X0104067Y0096671D01*
X0103865Y0096543D01*
X0103666Y0096410D01*
X0103471Y0096273D01*
X0103278Y0096132D01*
X0103089Y0095986D01*
X0103089Y0079490D01*
X0100089Y0078226D02*
X0100089Y0057250D01*
X0086089Y0059490D02*
X0086089Y0075986D01*
X0080089Y0078226D02*
X0080089Y0057250D01*
X0084060Y0058236D02*
X0084275Y0058340D01*
X0084488Y0058449D01*
X0084698Y0058563D01*
X0084905Y0058682D01*
X0085110Y0058805D01*
X0085312Y0058933D01*
X0085511Y0059066D01*
X0085706Y0059203D01*
X0085899Y0059344D01*
X0086088Y0059490D01*
X0104060Y0058236D02*
X0104275Y0058340D01*
X0104488Y0058449D01*
X0104698Y0058563D01*
X0104905Y0058682D01*
X0105110Y0058805D01*
X0105312Y0058933D01*
X0105511Y0059066D01*
X0105706Y0059203D01*
X0105899Y0059344D01*
X0106088Y0059490D01*
X0100089Y0057250D02*
X0099833Y0057241D01*
X0099577Y0057238D01*
X0099321Y0057241D01*
X0099065Y0057251D01*
X0098810Y0057267D01*
X0098555Y0057289D01*
X0098300Y0057317D01*
X0098047Y0057352D01*
X0097794Y0057393D01*
X0097542Y0057439D01*
X0097292Y0057492D01*
X0097043Y0057551D01*
X0096795Y0057617D01*
X0096549Y0057688D01*
X0096305Y0057765D01*
X0096063Y0057848D01*
X0095823Y0057937D01*
X0095585Y0058031D01*
X0095350Y0058132D01*
X0095117Y0058238D01*
X0113966Y0057284D02*
X0114191Y0057177D01*
X0114414Y0057065D01*
X0114634Y0056948D01*
X0114851Y0056826D01*
X0115066Y0056698D01*
X0115277Y0056565D01*
X0115485Y0056428D01*
X0115689Y0056285D01*
X0115891Y0056138D01*
X0116088Y0055986D01*
X0105117Y0057238D02*
X0104887Y0057126D01*
X0104660Y0057009D01*
X0104436Y0056887D01*
X0104215Y0056759D01*
X0103998Y0056625D01*
X0103783Y0056487D01*
X0103572Y0056343D01*
X0103365Y0056194D01*
X0103161Y0056040D01*
X0102961Y0055882D01*
X0102765Y0055718D01*
X0102573Y0055550D01*
X0102385Y0055377D01*
X0102201Y0055199D01*
X0102022Y0055018D01*
X0101847Y0054831D01*
X0101677Y0054641D01*
X0101512Y0054447D01*
X0101351Y0054248D01*
X0101195Y0054046D01*
X0101044Y0053840D01*
X0100898Y0053630D01*
X0100758Y0053417D01*
X0100622Y0053201D01*
X0100492Y0052981D01*
X0100367Y0052758D01*
X0100248Y0052533D01*
X0100134Y0052304D01*
X0100026Y0052073D01*
X0099923Y0051839D01*
X0099826Y0051603D01*
X0099735Y0051364D01*
X0099650Y0051124D01*
X0099570Y0050881D01*
X0099497Y0050636D01*
X0099429Y0050390D01*
X0099368Y0050142D01*
X0099313Y0049893D01*
X0099263Y0049643D01*
X0099220Y0049391D01*
X0099183Y0049138D01*
X0099152Y0048885D01*
X0099127Y0048631D01*
X0099108Y0048376D01*
X0099096Y0048121D01*
X0099090Y0047866D01*
X0099090Y0047610D01*
X0099096Y0047355D01*
X0099108Y0047100D01*
X0099127Y0046845D01*
X0099152Y0046591D01*
X0099183Y0046338D01*
X0099220Y0046085D01*
X0099263Y0045833D01*
X0099313Y0045583D01*
X0099368Y0045334D01*
X0099429Y0045086D01*
X0099497Y0044840D01*
X0099570Y0044595D01*
X0099650Y0044352D01*
X0099735Y0044112D01*
X0099826Y0043873D01*
X0099923Y0043637D01*
X0100026Y0043403D01*
X0100134Y0043172D01*
X0100248Y0042943D01*
X0100367Y0042718D01*
X0100492Y0042495D01*
X0100622Y0042275D01*
X0100758Y0042059D01*
X0100898Y0041846D01*
X0101044Y0041636D01*
X0101195Y0041430D01*
X0101351Y0041228D01*
X0101512Y0041029D01*
X0101677Y0040835D01*
X0101847Y0040645D01*
X0102022Y0040458D01*
X0102201Y0040277D01*
X0102385Y0040099D01*
X0102573Y0039926D01*
X0102765Y0039758D01*
X0102961Y0039594D01*
X0103161Y0039436D01*
X0103365Y0039282D01*
X0103572Y0039133D01*
X0103783Y0038989D01*
X0103998Y0038851D01*
X0104215Y0038717D01*
X0104436Y0038589D01*
X0104660Y0038467D01*
X0104887Y0038350D01*
X0105117Y0038238D01*
X0110088Y0058226D02*
X0110345Y0058211D01*
X0110602Y0058189D01*
X0110858Y0058161D01*
X0111113Y0058127D01*
X0111367Y0058086D01*
X0111620Y0058039D01*
X0111872Y0057986D01*
X0112123Y0057927D01*
X0112372Y0057862D01*
X0112619Y0057791D01*
X0112865Y0057714D01*
X0113109Y0057630D01*
X0113350Y0057541D01*
X0113589Y0057446D01*
X0113826Y0057345D01*
X0114060Y0057238D01*
X0100089Y0078226D02*
X0099833Y0078235D01*
X0099577Y0078238D01*
X0099321Y0078235D01*
X0099065Y0078225D01*
X0098810Y0078209D01*
X0098555Y0078187D01*
X0098300Y0078159D01*
X0098047Y0078124D01*
X0097794Y0078083D01*
X0097542Y0078037D01*
X0097292Y0077984D01*
X0097043Y0077925D01*
X0096795Y0077859D01*
X0096549Y0077788D01*
X0096305Y0077711D01*
X0096063Y0077628D01*
X0095823Y0077539D01*
X0095585Y0077445D01*
X0095350Y0077344D01*
X0095117Y0077238D01*
X0103966Y0077284D02*
X0104191Y0077177D01*
X0104414Y0077065D01*
X0104634Y0076948D01*
X0104851Y0076826D01*
X0105066Y0076698D01*
X0105277Y0076565D01*
X0105485Y0076428D01*
X0105689Y0076285D01*
X0105891Y0076138D01*
X0106088Y0075986D01*
X0095117Y0077238D02*
X0094887Y0077126D01*
X0094660Y0077009D01*
X0094436Y0076887D01*
X0094215Y0076759D01*
X0093998Y0076625D01*
X0093783Y0076487D01*
X0093572Y0076343D01*
X0093365Y0076194D01*
X0093161Y0076040D01*
X0092961Y0075882D01*
X0092765Y0075718D01*
X0092573Y0075550D01*
X0092385Y0075377D01*
X0092201Y0075199D01*
X0092022Y0075018D01*
X0091847Y0074831D01*
X0091677Y0074641D01*
X0091512Y0074447D01*
X0091351Y0074248D01*
X0091195Y0074046D01*
X0091044Y0073840D01*
X0090898Y0073630D01*
X0090758Y0073417D01*
X0090622Y0073201D01*
X0090492Y0072981D01*
X0090367Y0072758D01*
X0090248Y0072533D01*
X0090134Y0072304D01*
X0090026Y0072073D01*
X0089923Y0071839D01*
X0089826Y0071603D01*
X0089735Y0071364D01*
X0089650Y0071124D01*
X0089570Y0070881D01*
X0089497Y0070636D01*
X0089429Y0070390D01*
X0089368Y0070142D01*
X0089313Y0069893D01*
X0089263Y0069643D01*
X0089220Y0069391D01*
X0089183Y0069138D01*
X0089152Y0068885D01*
X0089127Y0068631D01*
X0089108Y0068376D01*
X0089096Y0068121D01*
X0089090Y0067866D01*
X0089090Y0067610D01*
X0089096Y0067355D01*
X0089108Y0067100D01*
X0089127Y0066845D01*
X0089152Y0066591D01*
X0089183Y0066338D01*
X0089220Y0066085D01*
X0089263Y0065833D01*
X0089313Y0065583D01*
X0089368Y0065334D01*
X0089429Y0065086D01*
X0089497Y0064840D01*
X0089570Y0064595D01*
X0089650Y0064352D01*
X0089735Y0064112D01*
X0089826Y0063873D01*
X0089923Y0063637D01*
X0090026Y0063403D01*
X0090134Y0063172D01*
X0090248Y0062943D01*
X0090367Y0062718D01*
X0090492Y0062495D01*
X0090622Y0062275D01*
X0090758Y0062059D01*
X0090898Y0061846D01*
X0091044Y0061636D01*
X0091195Y0061430D01*
X0091351Y0061228D01*
X0091512Y0061029D01*
X0091677Y0060835D01*
X0091847Y0060645D01*
X0092022Y0060458D01*
X0092201Y0060277D01*
X0092385Y0060099D01*
X0092573Y0059926D01*
X0092765Y0059758D01*
X0092961Y0059594D01*
X0093161Y0059436D01*
X0093365Y0059282D01*
X0093572Y0059133D01*
X0093783Y0058989D01*
X0093998Y0058851D01*
X0094215Y0058717D01*
X0094436Y0058589D01*
X0094660Y0058467D01*
X0094887Y0058350D01*
X0095117Y0058238D01*
X0100088Y0057250D02*
X0100345Y0057265D01*
X0100602Y0057287D01*
X0100858Y0057315D01*
X0101113Y0057349D01*
X0101367Y0057390D01*
X0101620Y0057437D01*
X0101872Y0057490D01*
X0102123Y0057549D01*
X0102372Y0057614D01*
X0102619Y0057685D01*
X0102865Y0057762D01*
X0103109Y0057846D01*
X0103350Y0057935D01*
X0103589Y0058030D01*
X0103826Y0058131D01*
X0104060Y0058238D01*
X0104060Y0077238D02*
X0103826Y0077345D01*
X0103589Y0077446D01*
X0103350Y0077541D01*
X0103109Y0077630D01*
X0102865Y0077714D01*
X0102619Y0077791D01*
X0102372Y0077862D01*
X0102123Y0077927D01*
X0101872Y0077986D01*
X0101620Y0078039D01*
X0101367Y0078086D01*
X0101113Y0078127D01*
X0100858Y0078161D01*
X0100602Y0078189D01*
X0100345Y0078211D01*
X0100088Y0078226D01*
X0103089Y0079490D02*
X0103286Y0079338D01*
X0103488Y0079191D01*
X0103692Y0079048D01*
X0103900Y0078911D01*
X0104111Y0078778D01*
X0104326Y0078650D01*
X0104543Y0078528D01*
X0104763Y0078411D01*
X0104986Y0078299D01*
X0105211Y0078192D01*
X0109088Y0077250D02*
X0109344Y0077241D01*
X0109600Y0077238D01*
X0109856Y0077241D01*
X0110112Y0077251D01*
X0110367Y0077267D01*
X0110622Y0077289D01*
X0110877Y0077317D01*
X0111130Y0077352D01*
X0111383Y0077393D01*
X0111635Y0077439D01*
X0111885Y0077492D01*
X0112134Y0077551D01*
X0112382Y0077617D01*
X0112628Y0077688D01*
X0112872Y0077765D01*
X0113114Y0077848D01*
X0113354Y0077937D01*
X0113592Y0078031D01*
X0113827Y0078132D01*
X0114060Y0078238D01*
X0109089Y0077250D02*
X0108832Y0077265D01*
X0108575Y0077287D01*
X0108319Y0077315D01*
X0108064Y0077349D01*
X0107810Y0077390D01*
X0107557Y0077437D01*
X0107305Y0077490D01*
X0107054Y0077549D01*
X0106805Y0077614D01*
X0106558Y0077685D01*
X0106312Y0077762D01*
X0106068Y0077846D01*
X0105827Y0077935D01*
X0105588Y0078030D01*
X0105351Y0078131D01*
X0105117Y0078238D01*
X0109088Y0098226D02*
X0109344Y0098235D01*
X0109600Y0098238D01*
X0109856Y0098235D01*
X0110112Y0098225D01*
X0110367Y0098209D01*
X0110622Y0098187D01*
X0110877Y0098159D01*
X0111130Y0098124D01*
X0111383Y0098083D01*
X0111635Y0098037D01*
X0111885Y0097984D01*
X0112134Y0097925D01*
X0112382Y0097859D01*
X0112628Y0097788D01*
X0112872Y0097711D01*
X0113114Y0097628D01*
X0113354Y0097539D01*
X0113592Y0097445D01*
X0113827Y0097344D01*
X0114060Y0097238D01*
X0109089Y0098226D02*
X0108832Y0098211D01*
X0108575Y0098189D01*
X0108319Y0098161D01*
X0108064Y0098127D01*
X0107810Y0098086D01*
X0107557Y0098039D01*
X0107305Y0097986D01*
X0107054Y0097927D01*
X0106805Y0097862D01*
X0106558Y0097791D01*
X0106312Y0097714D01*
X0106068Y0097630D01*
X0105827Y0097541D01*
X0105588Y0097446D01*
X0105351Y0097345D01*
X0105117Y0097238D01*
X0099089Y0097250D02*
X0099089Y0118226D01*
X0093089Y0115986D02*
X0093089Y0099490D01*
X0093286Y0099338D01*
X0093488Y0099191D01*
X0093692Y0099048D01*
X0093900Y0098911D01*
X0094111Y0098778D01*
X0094326Y0098650D01*
X0094543Y0098528D01*
X0094763Y0098411D01*
X0094986Y0098299D01*
X0095211Y0098192D01*
X0099088Y0097250D02*
X0099344Y0097241D01*
X0099600Y0097238D01*
X0099856Y0097241D01*
X0100112Y0097251D01*
X0100367Y0097267D01*
X0100622Y0097289D01*
X0100877Y0097317D01*
X0101130Y0097352D01*
X0101383Y0097393D01*
X0101635Y0097439D01*
X0101885Y0097492D01*
X0102134Y0097551D01*
X0102382Y0097617D01*
X0102628Y0097688D01*
X0102872Y0097765D01*
X0103114Y0097848D01*
X0103354Y0097937D01*
X0103592Y0098031D01*
X0103827Y0098132D01*
X0104060Y0098238D01*
X0099089Y0097250D02*
X0098832Y0097265D01*
X0098575Y0097287D01*
X0098319Y0097315D01*
X0098064Y0097349D01*
X0097810Y0097390D01*
X0097557Y0097437D01*
X0097305Y0097490D01*
X0097054Y0097549D01*
X0096805Y0097614D01*
X0096558Y0097685D01*
X0096312Y0097762D01*
X0096068Y0097846D01*
X0095827Y0097935D01*
X0095588Y0098030D01*
X0095351Y0098131D01*
X0095117Y0098238D01*
X0099088Y0118226D02*
X0099344Y0118235D01*
X0099600Y0118238D01*
X0099856Y0118235D01*
X0100112Y0118225D01*
X0100367Y0118209D01*
X0100622Y0118187D01*
X0100877Y0118159D01*
X0101130Y0118124D01*
X0101383Y0118083D01*
X0101635Y0118037D01*
X0101885Y0117984D01*
X0102134Y0117925D01*
X0102382Y0117859D01*
X0102628Y0117788D01*
X0102872Y0117711D01*
X0103114Y0117628D01*
X0103354Y0117539D01*
X0103592Y0117445D01*
X0103827Y0117344D01*
X0104060Y0117238D01*
X0095117Y0117240D02*
X0094902Y0117136D01*
X0094689Y0117027D01*
X0094479Y0116913D01*
X0094272Y0116794D01*
X0094067Y0116671D01*
X0093865Y0116543D01*
X0093666Y0116410D01*
X0093471Y0116273D01*
X0093278Y0116132D01*
X0093089Y0115986D01*
X0104060Y0117238D02*
X0104290Y0117126D01*
X0104517Y0117009D01*
X0104741Y0116887D01*
X0104962Y0116759D01*
X0105179Y0116625D01*
X0105394Y0116487D01*
X0105605Y0116343D01*
X0105812Y0116194D01*
X0106016Y0116040D01*
X0106216Y0115882D01*
X0106412Y0115718D01*
X0106604Y0115550D01*
X0106792Y0115377D01*
X0106976Y0115199D01*
X0107155Y0115018D01*
X0107330Y0114831D01*
X0107500Y0114641D01*
X0107665Y0114447D01*
X0107826Y0114248D01*
X0107982Y0114046D01*
X0108133Y0113840D01*
X0108279Y0113630D01*
X0108419Y0113417D01*
X0108555Y0113201D01*
X0108685Y0112981D01*
X0108810Y0112758D01*
X0108929Y0112533D01*
X0109043Y0112304D01*
X0109151Y0112073D01*
X0109254Y0111839D01*
X0109351Y0111603D01*
X0109442Y0111364D01*
X0109527Y0111124D01*
X0109607Y0110881D01*
X0109680Y0110636D01*
X0109748Y0110390D01*
X0109809Y0110142D01*
X0109864Y0109893D01*
X0109914Y0109643D01*
X0109957Y0109391D01*
X0109994Y0109138D01*
X0110025Y0108885D01*
X0110050Y0108631D01*
X0110069Y0108376D01*
X0110081Y0108121D01*
X0110087Y0107866D01*
X0110087Y0107610D01*
X0110081Y0107355D01*
X0110069Y0107100D01*
X0110050Y0106845D01*
X0110025Y0106591D01*
X0109994Y0106338D01*
X0109957Y0106085D01*
X0109914Y0105833D01*
X0109864Y0105583D01*
X0109809Y0105334D01*
X0109748Y0105086D01*
X0109680Y0104840D01*
X0109607Y0104595D01*
X0109527Y0104352D01*
X0109442Y0104112D01*
X0109351Y0103873D01*
X0109254Y0103637D01*
X0109151Y0103403D01*
X0109043Y0103172D01*
X0108929Y0102943D01*
X0108810Y0102718D01*
X0108685Y0102495D01*
X0108555Y0102275D01*
X0108419Y0102059D01*
X0108279Y0101846D01*
X0108133Y0101636D01*
X0107982Y0101430D01*
X0107826Y0101228D01*
X0107665Y0101029D01*
X0107500Y0100835D01*
X0107330Y0100645D01*
X0107155Y0100458D01*
X0106976Y0100277D01*
X0106792Y0100099D01*
X0106604Y0099926D01*
X0106412Y0099758D01*
X0106216Y0099594D01*
X0106016Y0099436D01*
X0105812Y0099282D01*
X0105605Y0099133D01*
X0105394Y0098989D01*
X0105179Y0098851D01*
X0104962Y0098717D01*
X0104741Y0098589D01*
X0104517Y0098467D01*
X0104290Y0098350D01*
X0104060Y0098238D01*
X0099089Y0118226D02*
X0098832Y0118211D01*
X0098575Y0118189D01*
X0098319Y0118161D01*
X0098064Y0118127D01*
X0097810Y0118086D01*
X0097557Y0118039D01*
X0097305Y0117986D01*
X0097054Y0117927D01*
X0096805Y0117862D01*
X0096558Y0117791D01*
X0096312Y0117714D01*
X0096068Y0117630D01*
X0095827Y0117541D01*
X0095588Y0117446D01*
X0095351Y0117345D01*
X0095117Y0117238D01*
X0069089Y0118226D02*
X0069089Y0097250D01*
X0063089Y0099490D02*
X0063089Y0115986D01*
X0063278Y0116132D01*
X0063471Y0116273D01*
X0063666Y0116410D01*
X0063865Y0116543D01*
X0064067Y0116671D01*
X0064272Y0116794D01*
X0064479Y0116913D01*
X0064689Y0117027D01*
X0064902Y0117136D01*
X0065117Y0117240D01*
X0069088Y0118226D02*
X0069344Y0118235D01*
X0069600Y0118238D01*
X0069856Y0118235D01*
X0070112Y0118225D01*
X0070367Y0118209D01*
X0070622Y0118187D01*
X0070877Y0118159D01*
X0071130Y0118124D01*
X0071383Y0118083D01*
X0071635Y0118037D01*
X0071885Y0117984D01*
X0072134Y0117925D01*
X0072382Y0117859D01*
X0072628Y0117788D01*
X0072872Y0117711D01*
X0073114Y0117628D01*
X0073354Y0117539D01*
X0073592Y0117445D01*
X0073827Y0117344D01*
X0074060Y0117238D01*
X0069089Y0118226D02*
X0068832Y0118211D01*
X0068575Y0118189D01*
X0068319Y0118161D01*
X0068064Y0118127D01*
X0067810Y0118086D01*
X0067557Y0118039D01*
X0067305Y0117986D01*
X0067054Y0117927D01*
X0066805Y0117862D01*
X0066558Y0117791D01*
X0066312Y0117714D01*
X0066068Y0117630D01*
X0065827Y0117541D01*
X0065588Y0117446D01*
X0065351Y0117345D01*
X0065117Y0117238D01*
X0069088Y0097250D02*
X0069344Y0097241D01*
X0069600Y0097238D01*
X0069856Y0097241D01*
X0070112Y0097251D01*
X0070367Y0097267D01*
X0070622Y0097289D01*
X0070877Y0097317D01*
X0071130Y0097352D01*
X0071383Y0097393D01*
X0071635Y0097439D01*
X0071885Y0097492D01*
X0072134Y0097551D01*
X0072382Y0097617D01*
X0072628Y0097688D01*
X0072872Y0097765D01*
X0073114Y0097848D01*
X0073354Y0097937D01*
X0073592Y0098031D01*
X0073827Y0098132D01*
X0074060Y0098238D01*
X0065211Y0098192D02*
X0064986Y0098299D01*
X0064763Y0098411D01*
X0064543Y0098528D01*
X0064326Y0098650D01*
X0064111Y0098778D01*
X0063900Y0098911D01*
X0063692Y0099048D01*
X0063488Y0099191D01*
X0063286Y0099338D01*
X0063089Y0099490D01*
X0059089Y0098226D02*
X0059089Y0077250D01*
X0056089Y0075986D02*
X0056089Y0059490D01*
X0060089Y0058226D02*
X0060089Y0037250D01*
X0056089Y0035986D02*
X0056089Y0019490D01*
X0050089Y0017250D02*
X0050089Y0038226D01*
X0064060Y0038236D02*
X0064275Y0038340D01*
X0064488Y0038449D01*
X0064698Y0038563D01*
X0064905Y0038682D01*
X0065110Y0038805D01*
X0065312Y0038933D01*
X0065511Y0039066D01*
X0065706Y0039203D01*
X0065899Y0039344D01*
X0066088Y0039490D01*
X0066089Y0039490D02*
X0066089Y0055986D01*
X0066088Y0055986D02*
X0065891Y0056138D01*
X0065689Y0056285D01*
X0065485Y0056428D01*
X0065277Y0056565D01*
X0065066Y0056698D01*
X0064851Y0056826D01*
X0064634Y0056948D01*
X0064414Y0057065D01*
X0064191Y0057177D01*
X0063966Y0057284D01*
X0060089Y0058226D02*
X0059833Y0058235D01*
X0059577Y0058238D01*
X0059321Y0058235D01*
X0059065Y0058225D01*
X0058810Y0058209D01*
X0058555Y0058187D01*
X0058300Y0058159D01*
X0058047Y0058124D01*
X0057794Y0058083D01*
X0057542Y0058037D01*
X0057292Y0057984D01*
X0057043Y0057925D01*
X0056795Y0057859D01*
X0056549Y0057788D01*
X0056305Y0057711D01*
X0056063Y0057628D01*
X0055823Y0057539D01*
X0055585Y0057445D01*
X0055350Y0057344D01*
X0055117Y0057238D01*
X0050089Y0057250D02*
X0050089Y0078226D01*
X0053089Y0079490D02*
X0053089Y0095986D01*
X0049089Y0097250D02*
X0049089Y0118226D01*
X0043089Y0115986D02*
X0043089Y0099490D01*
X0043286Y0099338D01*
X0043488Y0099191D01*
X0043692Y0099048D01*
X0043900Y0098911D01*
X0044111Y0098778D01*
X0044326Y0098650D01*
X0044543Y0098528D01*
X0044763Y0098411D01*
X0044986Y0098299D01*
X0045211Y0098192D01*
X0049088Y0097250D02*
X0049344Y0097241D01*
X0049600Y0097238D01*
X0049856Y0097241D01*
X0050112Y0097251D01*
X0050367Y0097267D01*
X0050622Y0097289D01*
X0050877Y0097317D01*
X0051130Y0097352D01*
X0051383Y0097393D01*
X0051635Y0097439D01*
X0051885Y0097492D01*
X0052134Y0097551D01*
X0052382Y0097617D01*
X0052628Y0097688D01*
X0052872Y0097765D01*
X0053114Y0097848D01*
X0053354Y0097937D01*
X0053592Y0098031D01*
X0053827Y0098132D01*
X0054060Y0098238D01*
X0049089Y0097250D02*
X0048832Y0097265D01*
X0048575Y0097287D01*
X0048319Y0097315D01*
X0048064Y0097349D01*
X0047810Y0097390D01*
X0047557Y0097437D01*
X0047305Y0097490D01*
X0047054Y0097549D01*
X0046805Y0097614D01*
X0046558Y0097685D01*
X0046312Y0097762D01*
X0046068Y0097846D01*
X0045827Y0097935D01*
X0045588Y0098030D01*
X0045351Y0098131D01*
X0045117Y0098238D01*
X0049088Y0118226D02*
X0049344Y0118235D01*
X0049600Y0118238D01*
X0049856Y0118235D01*
X0050112Y0118225D01*
X0050367Y0118209D01*
X0050622Y0118187D01*
X0050877Y0118159D01*
X0051130Y0118124D01*
X0051383Y0118083D01*
X0051635Y0118037D01*
X0051885Y0117984D01*
X0052134Y0117925D01*
X0052382Y0117859D01*
X0052628Y0117788D01*
X0052872Y0117711D01*
X0053114Y0117628D01*
X0053354Y0117539D01*
X0053592Y0117445D01*
X0053827Y0117344D01*
X0054060Y0117238D01*
X0045117Y0117240D02*
X0044902Y0117136D01*
X0044689Y0117027D01*
X0044479Y0116913D01*
X0044272Y0116794D01*
X0044067Y0116671D01*
X0043865Y0116543D01*
X0043666Y0116410D01*
X0043471Y0116273D01*
X0043278Y0116132D01*
X0043089Y0115986D01*
X0054060Y0117238D02*
X0054290Y0117126D01*
X0054517Y0117009D01*
X0054741Y0116887D01*
X0054962Y0116759D01*
X0055179Y0116625D01*
X0055394Y0116487D01*
X0055605Y0116343D01*
X0055812Y0116194D01*
X0056016Y0116040D01*
X0056216Y0115882D01*
X0056412Y0115718D01*
X0056604Y0115550D01*
X0056792Y0115377D01*
X0056976Y0115199D01*
X0057155Y0115018D01*
X0057330Y0114831D01*
X0057500Y0114641D01*
X0057665Y0114447D01*
X0057826Y0114248D01*
X0057982Y0114046D01*
X0058133Y0113840D01*
X0058279Y0113630D01*
X0058419Y0113417D01*
X0058555Y0113201D01*
X0058685Y0112981D01*
X0058810Y0112758D01*
X0058929Y0112533D01*
X0059043Y0112304D01*
X0059151Y0112073D01*
X0059254Y0111839D01*
X0059351Y0111603D01*
X0059442Y0111364D01*
X0059527Y0111124D01*
X0059607Y0110881D01*
X0059680Y0110636D01*
X0059748Y0110390D01*
X0059809Y0110142D01*
X0059864Y0109893D01*
X0059914Y0109643D01*
X0059957Y0109391D01*
X0059994Y0109138D01*
X0060025Y0108885D01*
X0060050Y0108631D01*
X0060069Y0108376D01*
X0060081Y0108121D01*
X0060087Y0107866D01*
X0060087Y0107610D01*
X0060081Y0107355D01*
X0060069Y0107100D01*
X0060050Y0106845D01*
X0060025Y0106591D01*
X0059994Y0106338D01*
X0059957Y0106085D01*
X0059914Y0105833D01*
X0059864Y0105583D01*
X0059809Y0105334D01*
X0059748Y0105086D01*
X0059680Y0104840D01*
X0059607Y0104595D01*
X0059527Y0104352D01*
X0059442Y0104112D01*
X0059351Y0103873D01*
X0059254Y0103637D01*
X0059151Y0103403D01*
X0059043Y0103172D01*
X0058929Y0102943D01*
X0058810Y0102718D01*
X0058685Y0102495D01*
X0058555Y0102275D01*
X0058419Y0102059D01*
X0058279Y0101846D01*
X0058133Y0101636D01*
X0057982Y0101430D01*
X0057826Y0101228D01*
X0057665Y0101029D01*
X0057500Y0100835D01*
X0057330Y0100645D01*
X0057155Y0100458D01*
X0056976Y0100277D01*
X0056792Y0100099D01*
X0056604Y0099926D01*
X0056412Y0099758D01*
X0056216Y0099594D01*
X0056016Y0099436D01*
X0055812Y0099282D01*
X0055605Y0099133D01*
X0055394Y0098989D01*
X0055179Y0098851D01*
X0054962Y0098717D01*
X0054741Y0098589D01*
X0054517Y0098467D01*
X0054290Y0098350D01*
X0054060Y0098238D01*
X0049089Y0118226D02*
X0048832Y0118211D01*
X0048575Y0118189D01*
X0048319Y0118161D01*
X0048064Y0118127D01*
X0047810Y0118086D01*
X0047557Y0118039D01*
X0047305Y0117986D01*
X0047054Y0117927D01*
X0046805Y0117862D01*
X0046558Y0117791D01*
X0046312Y0117714D01*
X0046068Y0117630D01*
X0045827Y0117541D01*
X0045588Y0117446D01*
X0045351Y0117345D01*
X0045117Y0117238D01*
X0074060Y0117238D02*
X0074290Y0117126D01*
X0074517Y0117009D01*
X0074741Y0116887D01*
X0074962Y0116759D01*
X0075179Y0116625D01*
X0075394Y0116487D01*
X0075605Y0116343D01*
X0075812Y0116194D01*
X0076016Y0116040D01*
X0076216Y0115882D01*
X0076412Y0115718D01*
X0076604Y0115550D01*
X0076792Y0115377D01*
X0076976Y0115199D01*
X0077155Y0115018D01*
X0077330Y0114831D01*
X0077500Y0114641D01*
X0077665Y0114447D01*
X0077826Y0114248D01*
X0077982Y0114046D01*
X0078133Y0113840D01*
X0078279Y0113630D01*
X0078419Y0113417D01*
X0078555Y0113201D01*
X0078685Y0112981D01*
X0078810Y0112758D01*
X0078929Y0112533D01*
X0079043Y0112304D01*
X0079151Y0112073D01*
X0079254Y0111839D01*
X0079351Y0111603D01*
X0079442Y0111364D01*
X0079527Y0111124D01*
X0079607Y0110881D01*
X0079680Y0110636D01*
X0079748Y0110390D01*
X0079809Y0110142D01*
X0079864Y0109893D01*
X0079914Y0109643D01*
X0079957Y0109391D01*
X0079994Y0109138D01*
X0080025Y0108885D01*
X0080050Y0108631D01*
X0080069Y0108376D01*
X0080081Y0108121D01*
X0080087Y0107866D01*
X0080087Y0107610D01*
X0080081Y0107355D01*
X0080069Y0107100D01*
X0080050Y0106845D01*
X0080025Y0106591D01*
X0079994Y0106338D01*
X0079957Y0106085D01*
X0079914Y0105833D01*
X0079864Y0105583D01*
X0079809Y0105334D01*
X0079748Y0105086D01*
X0079680Y0104840D01*
X0079607Y0104595D01*
X0079527Y0104352D01*
X0079442Y0104112D01*
X0079351Y0103873D01*
X0079254Y0103637D01*
X0079151Y0103403D01*
X0079043Y0103172D01*
X0078929Y0102943D01*
X0078810Y0102718D01*
X0078685Y0102495D01*
X0078555Y0102275D01*
X0078419Y0102059D01*
X0078279Y0101846D01*
X0078133Y0101636D01*
X0077982Y0101430D01*
X0077826Y0101228D01*
X0077665Y0101029D01*
X0077500Y0100835D01*
X0077330Y0100645D01*
X0077155Y0100458D01*
X0076976Y0100277D01*
X0076792Y0100099D01*
X0076604Y0099926D01*
X0076412Y0099758D01*
X0076216Y0099594D01*
X0076016Y0099436D01*
X0075812Y0099282D01*
X0075605Y0099133D01*
X0075394Y0098989D01*
X0075179Y0098851D01*
X0074962Y0098717D01*
X0074741Y0098589D01*
X0074517Y0098467D01*
X0074290Y0098350D01*
X0074060Y0098238D01*
X0069089Y0097250D02*
X0068832Y0097265D01*
X0068575Y0097287D01*
X0068319Y0097315D01*
X0068064Y0097349D01*
X0067810Y0097390D01*
X0067557Y0097437D01*
X0067305Y0097490D01*
X0067054Y0097549D01*
X0066805Y0097614D01*
X0066558Y0097685D01*
X0066312Y0097762D01*
X0066068Y0097846D01*
X0065827Y0097935D01*
X0065588Y0098030D01*
X0065351Y0098131D01*
X0065117Y0098238D01*
X0055117Y0097240D02*
X0054902Y0097136D01*
X0054689Y0097027D01*
X0054479Y0096913D01*
X0054272Y0096794D01*
X0054067Y0096671D01*
X0053865Y0096543D01*
X0053666Y0096410D01*
X0053471Y0096273D01*
X0053278Y0096132D01*
X0053089Y0095986D01*
X0059088Y0098226D02*
X0059344Y0098235D01*
X0059600Y0098238D01*
X0059856Y0098235D01*
X0060112Y0098225D01*
X0060367Y0098209D01*
X0060622Y0098187D01*
X0060877Y0098159D01*
X0061130Y0098124D01*
X0061383Y0098083D01*
X0061635Y0098037D01*
X0061885Y0097984D01*
X0062134Y0097925D01*
X0062382Y0097859D01*
X0062628Y0097788D01*
X0062872Y0097711D01*
X0063114Y0097628D01*
X0063354Y0097539D01*
X0063592Y0097445D01*
X0063827Y0097344D01*
X0064060Y0097238D01*
X0059089Y0098226D02*
X0058832Y0098211D01*
X0058575Y0098189D01*
X0058319Y0098161D01*
X0058064Y0098127D01*
X0057810Y0098086D01*
X0057557Y0098039D01*
X0057305Y0097986D01*
X0057054Y0097927D01*
X0056805Y0097862D01*
X0056558Y0097791D01*
X0056312Y0097714D01*
X0056068Y0097630D01*
X0055827Y0097541D01*
X0055588Y0097446D01*
X0055351Y0097345D01*
X0055117Y0097238D01*
X0059088Y0077250D02*
X0059344Y0077241D01*
X0059600Y0077238D01*
X0059856Y0077241D01*
X0060112Y0077251D01*
X0060367Y0077267D01*
X0060622Y0077289D01*
X0060877Y0077317D01*
X0061130Y0077352D01*
X0061383Y0077393D01*
X0061635Y0077439D01*
X0061885Y0077492D01*
X0062134Y0077551D01*
X0062382Y0077617D01*
X0062628Y0077688D01*
X0062872Y0077765D01*
X0063114Y0077848D01*
X0063354Y0077937D01*
X0063592Y0078031D01*
X0063827Y0078132D01*
X0064060Y0078238D01*
X0055211Y0078192D02*
X0054986Y0078299D01*
X0054763Y0078411D01*
X0054543Y0078528D01*
X0054326Y0078650D01*
X0054111Y0078778D01*
X0053900Y0078911D01*
X0053692Y0079048D01*
X0053488Y0079191D01*
X0053286Y0079338D01*
X0053089Y0079490D01*
X0064060Y0078238D02*
X0064290Y0078350D01*
X0064517Y0078467D01*
X0064741Y0078589D01*
X0064962Y0078717D01*
X0065179Y0078851D01*
X0065394Y0078989D01*
X0065605Y0079133D01*
X0065812Y0079282D01*
X0066016Y0079436D01*
X0066216Y0079594D01*
X0066412Y0079758D01*
X0066604Y0079926D01*
X0066792Y0080099D01*
X0066976Y0080277D01*
X0067155Y0080458D01*
X0067330Y0080645D01*
X0067500Y0080835D01*
X0067665Y0081029D01*
X0067826Y0081228D01*
X0067982Y0081430D01*
X0068133Y0081636D01*
X0068279Y0081846D01*
X0068419Y0082059D01*
X0068555Y0082275D01*
X0068685Y0082495D01*
X0068810Y0082718D01*
X0068929Y0082943D01*
X0069043Y0083172D01*
X0069151Y0083403D01*
X0069254Y0083637D01*
X0069351Y0083873D01*
X0069442Y0084112D01*
X0069527Y0084352D01*
X0069607Y0084595D01*
X0069680Y0084840D01*
X0069748Y0085086D01*
X0069809Y0085334D01*
X0069864Y0085583D01*
X0069914Y0085833D01*
X0069957Y0086085D01*
X0069994Y0086338D01*
X0070025Y0086591D01*
X0070050Y0086845D01*
X0070069Y0087100D01*
X0070081Y0087355D01*
X0070087Y0087610D01*
X0070087Y0087866D01*
X0070081Y0088121D01*
X0070069Y0088376D01*
X0070050Y0088631D01*
X0070025Y0088885D01*
X0069994Y0089138D01*
X0069957Y0089391D01*
X0069914Y0089643D01*
X0069864Y0089893D01*
X0069809Y0090142D01*
X0069748Y0090390D01*
X0069680Y0090636D01*
X0069607Y0090881D01*
X0069527Y0091124D01*
X0069442Y0091364D01*
X0069351Y0091603D01*
X0069254Y0091839D01*
X0069151Y0092073D01*
X0069043Y0092304D01*
X0068929Y0092533D01*
X0068810Y0092758D01*
X0068685Y0092981D01*
X0068555Y0093201D01*
X0068419Y0093417D01*
X0068279Y0093630D01*
X0068133Y0093840D01*
X0067982Y0094046D01*
X0067826Y0094248D01*
X0067665Y0094447D01*
X0067500Y0094641D01*
X0067330Y0094831D01*
X0067155Y0095018D01*
X0066976Y0095199D01*
X0066792Y0095377D01*
X0066604Y0095550D01*
X0066412Y0095718D01*
X0066216Y0095882D01*
X0066016Y0096040D01*
X0065812Y0096194D01*
X0065605Y0096343D01*
X0065394Y0096487D01*
X0065179Y0096625D01*
X0064962Y0096759D01*
X0064741Y0096887D01*
X0064517Y0097009D01*
X0064290Y0097126D01*
X0064060Y0097238D01*
X0059089Y0077250D02*
X0058832Y0077265D01*
X0058575Y0077287D01*
X0058319Y0077315D01*
X0058064Y0077349D01*
X0057810Y0077390D01*
X0057557Y0077437D01*
X0057305Y0077490D01*
X0057054Y0077549D01*
X0056805Y0077614D01*
X0056558Y0077685D01*
X0056312Y0077762D01*
X0056068Y0077846D01*
X0055827Y0077935D01*
X0055588Y0078030D01*
X0055351Y0078131D01*
X0055117Y0078238D01*
X0053966Y0077284D02*
X0054191Y0077177D01*
X0054414Y0077065D01*
X0054634Y0076948D01*
X0054851Y0076826D01*
X0055066Y0076698D01*
X0055277Y0076565D01*
X0055485Y0076428D01*
X0055689Y0076285D01*
X0055891Y0076138D01*
X0056088Y0075986D01*
X0050089Y0078226D02*
X0049833Y0078235D01*
X0049577Y0078238D01*
X0049321Y0078235D01*
X0049065Y0078225D01*
X0048810Y0078209D01*
X0048555Y0078187D01*
X0048300Y0078159D01*
X0048047Y0078124D01*
X0047794Y0078083D01*
X0047542Y0078037D01*
X0047292Y0077984D01*
X0047043Y0077925D01*
X0046795Y0077859D01*
X0046549Y0077788D01*
X0046305Y0077711D01*
X0046063Y0077628D01*
X0045823Y0077539D01*
X0045585Y0077445D01*
X0045350Y0077344D01*
X0045117Y0077238D01*
X0050088Y0078226D02*
X0050345Y0078211D01*
X0050602Y0078189D01*
X0050858Y0078161D01*
X0051113Y0078127D01*
X0051367Y0078086D01*
X0051620Y0078039D01*
X0051872Y0077986D01*
X0052123Y0077927D01*
X0052372Y0077862D01*
X0052619Y0077791D01*
X0052865Y0077714D01*
X0053109Y0077630D01*
X0053350Y0077541D01*
X0053589Y0077446D01*
X0053826Y0077345D01*
X0054060Y0077238D01*
X0050089Y0057250D02*
X0049833Y0057241D01*
X0049577Y0057238D01*
X0049321Y0057241D01*
X0049065Y0057251D01*
X0048810Y0057267D01*
X0048555Y0057289D01*
X0048300Y0057317D01*
X0048047Y0057352D01*
X0047794Y0057393D01*
X0047542Y0057439D01*
X0047292Y0057492D01*
X0047043Y0057551D01*
X0046795Y0057617D01*
X0046549Y0057688D01*
X0046305Y0057765D01*
X0046063Y0057848D01*
X0045823Y0057937D01*
X0045585Y0058031D01*
X0045350Y0058132D01*
X0045117Y0058238D01*
X0054060Y0058236D02*
X0054275Y0058340D01*
X0054488Y0058449D01*
X0054698Y0058563D01*
X0054905Y0058682D01*
X0055110Y0058805D01*
X0055312Y0058933D01*
X0055511Y0059066D01*
X0055706Y0059203D01*
X0055899Y0059344D01*
X0056088Y0059490D01*
X0045117Y0058238D02*
X0044887Y0058350D01*
X0044660Y0058467D01*
X0044436Y0058589D01*
X0044215Y0058717D01*
X0043998Y0058851D01*
X0043783Y0058989D01*
X0043572Y0059133D01*
X0043365Y0059282D01*
X0043161Y0059436D01*
X0042961Y0059594D01*
X0042765Y0059758D01*
X0042573Y0059926D01*
X0042385Y0060099D01*
X0042201Y0060277D01*
X0042022Y0060458D01*
X0041847Y0060645D01*
X0041677Y0060835D01*
X0041512Y0061029D01*
X0041351Y0061228D01*
X0041195Y0061430D01*
X0041044Y0061636D01*
X0040898Y0061846D01*
X0040758Y0062059D01*
X0040622Y0062275D01*
X0040492Y0062495D01*
X0040367Y0062718D01*
X0040248Y0062943D01*
X0040134Y0063172D01*
X0040026Y0063403D01*
X0039923Y0063637D01*
X0039826Y0063873D01*
X0039735Y0064112D01*
X0039650Y0064352D01*
X0039570Y0064595D01*
X0039497Y0064840D01*
X0039429Y0065086D01*
X0039368Y0065334D01*
X0039313Y0065583D01*
X0039263Y0065833D01*
X0039220Y0066085D01*
X0039183Y0066338D01*
X0039152Y0066591D01*
X0039127Y0066845D01*
X0039108Y0067100D01*
X0039096Y0067355D01*
X0039090Y0067610D01*
X0039090Y0067866D01*
X0039096Y0068121D01*
X0039108Y0068376D01*
X0039127Y0068631D01*
X0039152Y0068885D01*
X0039183Y0069138D01*
X0039220Y0069391D01*
X0039263Y0069643D01*
X0039313Y0069893D01*
X0039368Y0070142D01*
X0039429Y0070390D01*
X0039497Y0070636D01*
X0039570Y0070881D01*
X0039650Y0071124D01*
X0039735Y0071364D01*
X0039826Y0071603D01*
X0039923Y0071839D01*
X0040026Y0072073D01*
X0040134Y0072304D01*
X0040248Y0072533D01*
X0040367Y0072758D01*
X0040492Y0072981D01*
X0040622Y0073201D01*
X0040758Y0073417D01*
X0040898Y0073630D01*
X0041044Y0073840D01*
X0041195Y0074046D01*
X0041351Y0074248D01*
X0041512Y0074447D01*
X0041677Y0074641D01*
X0041847Y0074831D01*
X0042022Y0075018D01*
X0042201Y0075199D01*
X0042385Y0075377D01*
X0042573Y0075550D01*
X0042765Y0075718D01*
X0042961Y0075882D01*
X0043161Y0076040D01*
X0043365Y0076194D01*
X0043572Y0076343D01*
X0043783Y0076487D01*
X0043998Y0076625D01*
X0044215Y0076759D01*
X0044436Y0076887D01*
X0044660Y0077009D01*
X0044887Y0077126D01*
X0045117Y0077238D01*
X0050088Y0057250D02*
X0050345Y0057265D01*
X0050602Y0057287D01*
X0050858Y0057315D01*
X0051113Y0057349D01*
X0051367Y0057390D01*
X0051620Y0057437D01*
X0051872Y0057490D01*
X0052123Y0057549D01*
X0052372Y0057614D01*
X0052619Y0057685D01*
X0052865Y0057762D01*
X0053109Y0057846D01*
X0053350Y0057935D01*
X0053589Y0058030D01*
X0053826Y0058131D01*
X0054060Y0058238D01*
X0060088Y0058226D02*
X0060345Y0058211D01*
X0060602Y0058189D01*
X0060858Y0058161D01*
X0061113Y0058127D01*
X0061367Y0058086D01*
X0061620Y0058039D01*
X0061872Y0057986D01*
X0062123Y0057927D01*
X0062372Y0057862D01*
X0062619Y0057791D01*
X0062865Y0057714D01*
X0063109Y0057630D01*
X0063350Y0057541D01*
X0063589Y0057446D01*
X0063826Y0057345D01*
X0064060Y0057238D01*
X0060089Y0037250D02*
X0059833Y0037241D01*
X0059577Y0037238D01*
X0059321Y0037241D01*
X0059065Y0037251D01*
X0058810Y0037267D01*
X0058555Y0037289D01*
X0058300Y0037317D01*
X0058047Y0037352D01*
X0057794Y0037393D01*
X0057542Y0037439D01*
X0057292Y0037492D01*
X0057043Y0037551D01*
X0056795Y0037617D01*
X0056549Y0037688D01*
X0056305Y0037765D01*
X0056063Y0037848D01*
X0055823Y0037937D01*
X0055585Y0038031D01*
X0055350Y0038132D01*
X0055117Y0038238D01*
X0060088Y0037250D02*
X0060345Y0037265D01*
X0060602Y0037287D01*
X0060858Y0037315D01*
X0061113Y0037349D01*
X0061367Y0037390D01*
X0061620Y0037437D01*
X0061872Y0037490D01*
X0062123Y0037549D01*
X0062372Y0037614D01*
X0062619Y0037685D01*
X0062865Y0037762D01*
X0063109Y0037846D01*
X0063350Y0037935D01*
X0063589Y0038030D01*
X0063826Y0038131D01*
X0064060Y0038238D01*
X0070089Y0038226D02*
X0070089Y0017250D01*
X0076089Y0019490D02*
X0076089Y0035986D01*
X0076088Y0035986D02*
X0075891Y0036138D01*
X0075689Y0036285D01*
X0075485Y0036428D01*
X0075277Y0036565D01*
X0075066Y0036698D01*
X0074851Y0036826D01*
X0074634Y0036948D01*
X0074414Y0037065D01*
X0074191Y0037177D01*
X0073966Y0037284D01*
X0070089Y0038226D02*
X0069833Y0038235D01*
X0069577Y0038238D01*
X0069321Y0038235D01*
X0069065Y0038225D01*
X0068810Y0038209D01*
X0068555Y0038187D01*
X0068300Y0038159D01*
X0068047Y0038124D01*
X0067794Y0038083D01*
X0067542Y0038037D01*
X0067292Y0037984D01*
X0067043Y0037925D01*
X0066795Y0037859D01*
X0066549Y0037788D01*
X0066305Y0037711D01*
X0066063Y0037628D01*
X0065823Y0037539D01*
X0065585Y0037445D01*
X0065350Y0037344D01*
X0065117Y0037238D01*
X0070088Y0038226D02*
X0070345Y0038211D01*
X0070602Y0038189D01*
X0070858Y0038161D01*
X0071113Y0038127D01*
X0071367Y0038086D01*
X0071620Y0038039D01*
X0071872Y0037986D01*
X0072123Y0037927D01*
X0072372Y0037862D01*
X0072619Y0037791D01*
X0072865Y0037714D01*
X0073109Y0037630D01*
X0073350Y0037541D01*
X0073589Y0037446D01*
X0073826Y0037345D01*
X0074060Y0037238D01*
X0070089Y0017250D02*
X0069833Y0017241D01*
X0069577Y0017238D01*
X0069321Y0017241D01*
X0069065Y0017251D01*
X0068810Y0017267D01*
X0068555Y0017289D01*
X0068300Y0017317D01*
X0068047Y0017352D01*
X0067794Y0017393D01*
X0067542Y0017439D01*
X0067292Y0017492D01*
X0067043Y0017551D01*
X0066795Y0017617D01*
X0066549Y0017688D01*
X0066305Y0017765D01*
X0066063Y0017848D01*
X0065823Y0017937D01*
X0065585Y0018031D01*
X0065350Y0018132D01*
X0065117Y0018238D01*
X0074060Y0018236D02*
X0074275Y0018340D01*
X0074488Y0018449D01*
X0074698Y0018563D01*
X0074905Y0018682D01*
X0075110Y0018805D01*
X0075312Y0018933D01*
X0075511Y0019066D01*
X0075706Y0019203D01*
X0075899Y0019344D01*
X0076088Y0019490D01*
X0065117Y0018238D02*
X0064887Y0018350D01*
X0064660Y0018467D01*
X0064436Y0018589D01*
X0064215Y0018717D01*
X0063998Y0018851D01*
X0063783Y0018989D01*
X0063572Y0019133D01*
X0063365Y0019282D01*
X0063161Y0019436D01*
X0062961Y0019594D01*
X0062765Y0019758D01*
X0062573Y0019926D01*
X0062385Y0020099D01*
X0062201Y0020277D01*
X0062022Y0020458D01*
X0061847Y0020645D01*
X0061677Y0020835D01*
X0061512Y0021029D01*
X0061351Y0021228D01*
X0061195Y0021430D01*
X0061044Y0021636D01*
X0060898Y0021846D01*
X0060758Y0022059D01*
X0060622Y0022275D01*
X0060492Y0022495D01*
X0060367Y0022718D01*
X0060248Y0022943D01*
X0060134Y0023172D01*
X0060026Y0023403D01*
X0059923Y0023637D01*
X0059826Y0023873D01*
X0059735Y0024112D01*
X0059650Y0024352D01*
X0059570Y0024595D01*
X0059497Y0024840D01*
X0059429Y0025086D01*
X0059368Y0025334D01*
X0059313Y0025583D01*
X0059263Y0025833D01*
X0059220Y0026085D01*
X0059183Y0026338D01*
X0059152Y0026591D01*
X0059127Y0026845D01*
X0059108Y0027100D01*
X0059096Y0027355D01*
X0059090Y0027610D01*
X0059090Y0027866D01*
X0059096Y0028121D01*
X0059108Y0028376D01*
X0059127Y0028631D01*
X0059152Y0028885D01*
X0059183Y0029138D01*
X0059220Y0029391D01*
X0059263Y0029643D01*
X0059313Y0029893D01*
X0059368Y0030142D01*
X0059429Y0030390D01*
X0059497Y0030636D01*
X0059570Y0030881D01*
X0059650Y0031124D01*
X0059735Y0031364D01*
X0059826Y0031603D01*
X0059923Y0031839D01*
X0060026Y0032073D01*
X0060134Y0032304D01*
X0060248Y0032533D01*
X0060367Y0032758D01*
X0060492Y0032981D01*
X0060622Y0033201D01*
X0060758Y0033417D01*
X0060898Y0033630D01*
X0061044Y0033840D01*
X0061195Y0034046D01*
X0061351Y0034248D01*
X0061512Y0034447D01*
X0061677Y0034641D01*
X0061847Y0034831D01*
X0062022Y0035018D01*
X0062201Y0035199D01*
X0062385Y0035377D01*
X0062573Y0035550D01*
X0062765Y0035718D01*
X0062961Y0035882D01*
X0063161Y0036040D01*
X0063365Y0036194D01*
X0063572Y0036343D01*
X0063783Y0036487D01*
X0063998Y0036625D01*
X0064215Y0036759D01*
X0064436Y0036887D01*
X0064660Y0037009D01*
X0064887Y0037126D01*
X0065117Y0037238D01*
X0070088Y0017250D02*
X0070345Y0017265D01*
X0070602Y0017287D01*
X0070858Y0017315D01*
X0071113Y0017349D01*
X0071367Y0017390D01*
X0071620Y0017437D01*
X0071872Y0017490D01*
X0072123Y0017549D01*
X0072372Y0017614D01*
X0072619Y0017685D01*
X0072865Y0017762D01*
X0073109Y0017846D01*
X0073350Y0017935D01*
X0073589Y0018030D01*
X0073826Y0018131D01*
X0074060Y0018238D01*
X0056088Y0019490D02*
X0055899Y0019344D01*
X0055706Y0019203D01*
X0055511Y0019066D01*
X0055312Y0018933D01*
X0055110Y0018805D01*
X0054905Y0018682D01*
X0054698Y0018563D01*
X0054488Y0018449D01*
X0054275Y0018340D01*
X0054060Y0018236D01*
X0050089Y0017250D02*
X0049833Y0017241D01*
X0049577Y0017238D01*
X0049321Y0017241D01*
X0049065Y0017251D01*
X0048810Y0017267D01*
X0048555Y0017289D01*
X0048300Y0017317D01*
X0048047Y0017352D01*
X0047794Y0017393D01*
X0047542Y0017439D01*
X0047292Y0017492D01*
X0047043Y0017551D01*
X0046795Y0017617D01*
X0046549Y0017688D01*
X0046305Y0017765D01*
X0046063Y0017848D01*
X0045823Y0017937D01*
X0045585Y0018031D01*
X0045350Y0018132D01*
X0045117Y0018238D01*
X0050088Y0017250D02*
X0050345Y0017265D01*
X0050602Y0017287D01*
X0050858Y0017315D01*
X0051113Y0017349D01*
X0051367Y0017390D01*
X0051620Y0017437D01*
X0051872Y0017490D01*
X0052123Y0017549D01*
X0052372Y0017614D01*
X0052619Y0017685D01*
X0052865Y0017762D01*
X0053109Y0017846D01*
X0053350Y0017935D01*
X0053589Y0018030D01*
X0053826Y0018131D01*
X0054060Y0018238D01*
X0050089Y0038226D02*
X0049833Y0038235D01*
X0049577Y0038238D01*
X0049321Y0038235D01*
X0049065Y0038225D01*
X0048810Y0038209D01*
X0048555Y0038187D01*
X0048300Y0038159D01*
X0048047Y0038124D01*
X0047794Y0038083D01*
X0047542Y0038037D01*
X0047292Y0037984D01*
X0047043Y0037925D01*
X0046795Y0037859D01*
X0046549Y0037788D01*
X0046305Y0037711D01*
X0046063Y0037628D01*
X0045823Y0037539D01*
X0045585Y0037445D01*
X0045350Y0037344D01*
X0045117Y0037238D01*
X0053966Y0037284D02*
X0054191Y0037177D01*
X0054414Y0037065D01*
X0054634Y0036948D01*
X0054851Y0036826D01*
X0055066Y0036698D01*
X0055277Y0036565D01*
X0055485Y0036428D01*
X0055689Y0036285D01*
X0055891Y0036138D01*
X0056088Y0035986D01*
X0045117Y0037238D02*
X0044887Y0037126D01*
X0044660Y0037009D01*
X0044436Y0036887D01*
X0044215Y0036759D01*
X0043998Y0036625D01*
X0043783Y0036487D01*
X0043572Y0036343D01*
X0043365Y0036194D01*
X0043161Y0036040D01*
X0042961Y0035882D01*
X0042765Y0035718D01*
X0042573Y0035550D01*
X0042385Y0035377D01*
X0042201Y0035199D01*
X0042022Y0035018D01*
X0041847Y0034831D01*
X0041677Y0034641D01*
X0041512Y0034447D01*
X0041351Y0034248D01*
X0041195Y0034046D01*
X0041044Y0033840D01*
X0040898Y0033630D01*
X0040758Y0033417D01*
X0040622Y0033201D01*
X0040492Y0032981D01*
X0040367Y0032758D01*
X0040248Y0032533D01*
X0040134Y0032304D01*
X0040026Y0032073D01*
X0039923Y0031839D01*
X0039826Y0031603D01*
X0039735Y0031364D01*
X0039650Y0031124D01*
X0039570Y0030881D01*
X0039497Y0030636D01*
X0039429Y0030390D01*
X0039368Y0030142D01*
X0039313Y0029893D01*
X0039263Y0029643D01*
X0039220Y0029391D01*
X0039183Y0029138D01*
X0039152Y0028885D01*
X0039127Y0028631D01*
X0039108Y0028376D01*
X0039096Y0028121D01*
X0039090Y0027866D01*
X0039090Y0027610D01*
X0039096Y0027355D01*
X0039108Y0027100D01*
X0039127Y0026845D01*
X0039152Y0026591D01*
X0039183Y0026338D01*
X0039220Y0026085D01*
X0039263Y0025833D01*
X0039313Y0025583D01*
X0039368Y0025334D01*
X0039429Y0025086D01*
X0039497Y0024840D01*
X0039570Y0024595D01*
X0039650Y0024352D01*
X0039735Y0024112D01*
X0039826Y0023873D01*
X0039923Y0023637D01*
X0040026Y0023403D01*
X0040134Y0023172D01*
X0040248Y0022943D01*
X0040367Y0022718D01*
X0040492Y0022495D01*
X0040622Y0022275D01*
X0040758Y0022059D01*
X0040898Y0021846D01*
X0041044Y0021636D01*
X0041195Y0021430D01*
X0041351Y0021228D01*
X0041512Y0021029D01*
X0041677Y0020835D01*
X0041847Y0020645D01*
X0042022Y0020458D01*
X0042201Y0020277D01*
X0042385Y0020099D01*
X0042573Y0019926D01*
X0042765Y0019758D01*
X0042961Y0019594D01*
X0043161Y0019436D01*
X0043365Y0019282D01*
X0043572Y0019133D01*
X0043783Y0018989D01*
X0043998Y0018851D01*
X0044215Y0018717D01*
X0044436Y0018589D01*
X0044660Y0018467D01*
X0044887Y0018350D01*
X0045117Y0018238D01*
X0050088Y0038226D02*
X0050345Y0038211D01*
X0050602Y0038189D01*
X0050858Y0038161D01*
X0051113Y0038127D01*
X0051367Y0038086D01*
X0051620Y0038039D01*
X0051872Y0037986D01*
X0052123Y0037927D01*
X0052372Y0037862D01*
X0052619Y0037791D01*
X0052865Y0037714D01*
X0053109Y0037630D01*
X0053350Y0037541D01*
X0053589Y0037446D01*
X0053826Y0037345D01*
X0054060Y0037238D01*
X0055117Y0038238D02*
X0054887Y0038350D01*
X0054660Y0038467D01*
X0054436Y0038589D01*
X0054215Y0038717D01*
X0053998Y0038851D01*
X0053783Y0038989D01*
X0053572Y0039133D01*
X0053365Y0039282D01*
X0053161Y0039436D01*
X0052961Y0039594D01*
X0052765Y0039758D01*
X0052573Y0039926D01*
X0052385Y0040099D01*
X0052201Y0040277D01*
X0052022Y0040458D01*
X0051847Y0040645D01*
X0051677Y0040835D01*
X0051512Y0041029D01*
X0051351Y0041228D01*
X0051195Y0041430D01*
X0051044Y0041636D01*
X0050898Y0041846D01*
X0050758Y0042059D01*
X0050622Y0042275D01*
X0050492Y0042495D01*
X0050367Y0042718D01*
X0050248Y0042943D01*
X0050134Y0043172D01*
X0050026Y0043403D01*
X0049923Y0043637D01*
X0049826Y0043873D01*
X0049735Y0044112D01*
X0049650Y0044352D01*
X0049570Y0044595D01*
X0049497Y0044840D01*
X0049429Y0045086D01*
X0049368Y0045334D01*
X0049313Y0045583D01*
X0049263Y0045833D01*
X0049220Y0046085D01*
X0049183Y0046338D01*
X0049152Y0046591D01*
X0049127Y0046845D01*
X0049108Y0047100D01*
X0049096Y0047355D01*
X0049090Y0047610D01*
X0049090Y0047866D01*
X0049096Y0048121D01*
X0049108Y0048376D01*
X0049127Y0048631D01*
X0049152Y0048885D01*
X0049183Y0049138D01*
X0049220Y0049391D01*
X0049263Y0049643D01*
X0049313Y0049893D01*
X0049368Y0050142D01*
X0049429Y0050390D01*
X0049497Y0050636D01*
X0049570Y0050881D01*
X0049650Y0051124D01*
X0049735Y0051364D01*
X0049826Y0051603D01*
X0049923Y0051839D01*
X0050026Y0052073D01*
X0050134Y0052304D01*
X0050248Y0052533D01*
X0050367Y0052758D01*
X0050492Y0052981D01*
X0050622Y0053201D01*
X0050758Y0053417D01*
X0050898Y0053630D01*
X0051044Y0053840D01*
X0051195Y0054046D01*
X0051351Y0054248D01*
X0051512Y0054447D01*
X0051677Y0054641D01*
X0051847Y0054831D01*
X0052022Y0055018D01*
X0052201Y0055199D01*
X0052385Y0055377D01*
X0052573Y0055550D01*
X0052765Y0055718D01*
X0052961Y0055882D01*
X0053161Y0056040D01*
X0053365Y0056194D01*
X0053572Y0056343D01*
X0053783Y0056487D01*
X0053998Y0056625D01*
X0054215Y0056759D01*
X0054436Y0056887D01*
X0054660Y0057009D01*
X0054887Y0057126D01*
X0055117Y0057238D01*
X0080088Y0057250D02*
X0080345Y0057265D01*
X0080602Y0057287D01*
X0080858Y0057315D01*
X0081113Y0057349D01*
X0081367Y0057390D01*
X0081620Y0057437D01*
X0081872Y0057490D01*
X0082123Y0057549D01*
X0082372Y0057614D01*
X0082619Y0057685D01*
X0082865Y0057762D01*
X0083109Y0057846D01*
X0083350Y0057935D01*
X0083589Y0058030D01*
X0083826Y0058131D01*
X0084060Y0058238D01*
X0080089Y0057250D02*
X0079833Y0057241D01*
X0079577Y0057238D01*
X0079321Y0057241D01*
X0079065Y0057251D01*
X0078810Y0057267D01*
X0078555Y0057289D01*
X0078300Y0057317D01*
X0078047Y0057352D01*
X0077794Y0057393D01*
X0077542Y0057439D01*
X0077292Y0057492D01*
X0077043Y0057551D01*
X0076795Y0057617D01*
X0076549Y0057688D01*
X0076305Y0057765D01*
X0076063Y0057848D01*
X0075823Y0057937D01*
X0075585Y0058031D01*
X0075350Y0058132D01*
X0075117Y0058238D01*
X0080088Y0078226D02*
X0080345Y0078211D01*
X0080602Y0078189D01*
X0080858Y0078161D01*
X0081113Y0078127D01*
X0081367Y0078086D01*
X0081620Y0078039D01*
X0081872Y0077986D01*
X0082123Y0077927D01*
X0082372Y0077862D01*
X0082619Y0077791D01*
X0082865Y0077714D01*
X0083109Y0077630D01*
X0083350Y0077541D01*
X0083589Y0077446D01*
X0083826Y0077345D01*
X0084060Y0077238D01*
X0083966Y0077284D02*
X0084191Y0077177D01*
X0084414Y0077065D01*
X0084634Y0076948D01*
X0084851Y0076826D01*
X0085066Y0076698D01*
X0085277Y0076565D01*
X0085485Y0076428D01*
X0085689Y0076285D01*
X0085891Y0076138D01*
X0086088Y0075986D01*
X0080089Y0078226D02*
X0079833Y0078235D01*
X0079577Y0078238D01*
X0079321Y0078235D01*
X0079065Y0078225D01*
X0078810Y0078209D01*
X0078555Y0078187D01*
X0078300Y0078159D01*
X0078047Y0078124D01*
X0077794Y0078083D01*
X0077542Y0078037D01*
X0077292Y0077984D01*
X0077043Y0077925D01*
X0076795Y0077859D01*
X0076549Y0077788D01*
X0076305Y0077711D01*
X0076063Y0077628D01*
X0075823Y0077539D01*
X0075585Y0077445D01*
X0075350Y0077344D01*
X0075117Y0077238D01*
X0074887Y0077126D01*
X0074660Y0077009D01*
X0074436Y0076887D01*
X0074215Y0076759D01*
X0073998Y0076625D01*
X0073783Y0076487D01*
X0073572Y0076343D01*
X0073365Y0076194D01*
X0073161Y0076040D01*
X0072961Y0075882D01*
X0072765Y0075718D01*
X0072573Y0075550D01*
X0072385Y0075377D01*
X0072201Y0075199D01*
X0072022Y0075018D01*
X0071847Y0074831D01*
X0071677Y0074641D01*
X0071512Y0074447D01*
X0071351Y0074248D01*
X0071195Y0074046D01*
X0071044Y0073840D01*
X0070898Y0073630D01*
X0070758Y0073417D01*
X0070622Y0073201D01*
X0070492Y0072981D01*
X0070367Y0072758D01*
X0070248Y0072533D01*
X0070134Y0072304D01*
X0070026Y0072073D01*
X0069923Y0071839D01*
X0069826Y0071603D01*
X0069735Y0071364D01*
X0069650Y0071124D01*
X0069570Y0070881D01*
X0069497Y0070636D01*
X0069429Y0070390D01*
X0069368Y0070142D01*
X0069313Y0069893D01*
X0069263Y0069643D01*
X0069220Y0069391D01*
X0069183Y0069138D01*
X0069152Y0068885D01*
X0069127Y0068631D01*
X0069108Y0068376D01*
X0069096Y0068121D01*
X0069090Y0067866D01*
X0069090Y0067610D01*
X0069096Y0067355D01*
X0069108Y0067100D01*
X0069127Y0066845D01*
X0069152Y0066591D01*
X0069183Y0066338D01*
X0069220Y0066085D01*
X0069263Y0065833D01*
X0069313Y0065583D01*
X0069368Y0065334D01*
X0069429Y0065086D01*
X0069497Y0064840D01*
X0069570Y0064595D01*
X0069650Y0064352D01*
X0069735Y0064112D01*
X0069826Y0063873D01*
X0069923Y0063637D01*
X0070026Y0063403D01*
X0070134Y0063172D01*
X0070248Y0062943D01*
X0070367Y0062718D01*
X0070492Y0062495D01*
X0070622Y0062275D01*
X0070758Y0062059D01*
X0070898Y0061846D01*
X0071044Y0061636D01*
X0071195Y0061430D01*
X0071351Y0061228D01*
X0071512Y0061029D01*
X0071677Y0060835D01*
X0071847Y0060645D01*
X0072022Y0060458D01*
X0072201Y0060277D01*
X0072385Y0060099D01*
X0072573Y0059926D01*
X0072765Y0059758D01*
X0072961Y0059594D01*
X0073161Y0059436D01*
X0073365Y0059282D01*
X0073572Y0059133D01*
X0073783Y0058989D01*
X0073998Y0058851D01*
X0074215Y0058717D01*
X0074436Y0058589D01*
X0074660Y0058467D01*
X0074887Y0058350D01*
X0075117Y0058238D01*
X0103966Y0037284D02*
X0104191Y0037177D01*
X0104414Y0037065D01*
X0104634Y0036948D01*
X0104851Y0036826D01*
X0105066Y0036698D01*
X0105277Y0036565D01*
X0105485Y0036428D01*
X0105689Y0036285D01*
X0105891Y0036138D01*
X0106088Y0035986D01*
X0100089Y0038226D02*
X0099833Y0038235D01*
X0099577Y0038238D01*
X0099321Y0038235D01*
X0099065Y0038225D01*
X0098810Y0038209D01*
X0098555Y0038187D01*
X0098300Y0038159D01*
X0098047Y0038124D01*
X0097794Y0038083D01*
X0097542Y0038037D01*
X0097292Y0037984D01*
X0097043Y0037925D01*
X0096795Y0037859D01*
X0096549Y0037788D01*
X0096305Y0037711D01*
X0096063Y0037628D01*
X0095823Y0037539D01*
X0095585Y0037445D01*
X0095350Y0037344D01*
X0095117Y0037238D01*
X0100088Y0038226D02*
X0100345Y0038211D01*
X0100602Y0038189D01*
X0100858Y0038161D01*
X0101113Y0038127D01*
X0101367Y0038086D01*
X0101620Y0038039D01*
X0101872Y0037986D01*
X0102123Y0037927D01*
X0102372Y0037862D01*
X0102619Y0037791D01*
X0102865Y0037714D01*
X0103109Y0037630D01*
X0103350Y0037541D01*
X0103589Y0037446D01*
X0103826Y0037345D01*
X0104060Y0037238D01*
X0100089Y0017250D02*
X0099833Y0017241D01*
X0099577Y0017238D01*
X0099321Y0017241D01*
X0099065Y0017251D01*
X0098810Y0017267D01*
X0098555Y0017289D01*
X0098300Y0017317D01*
X0098047Y0017352D01*
X0097794Y0017393D01*
X0097542Y0017439D01*
X0097292Y0017492D01*
X0097043Y0017551D01*
X0096795Y0017617D01*
X0096549Y0017688D01*
X0096305Y0017765D01*
X0096063Y0017848D01*
X0095823Y0017937D01*
X0095585Y0018031D01*
X0095350Y0018132D01*
X0095117Y0018238D01*
X0104060Y0018236D02*
X0104275Y0018340D01*
X0104488Y0018449D01*
X0104698Y0018563D01*
X0104905Y0018682D01*
X0105110Y0018805D01*
X0105312Y0018933D01*
X0105511Y0019066D01*
X0105706Y0019203D01*
X0105899Y0019344D01*
X0106088Y0019490D01*
X0095117Y0018238D02*
X0094887Y0018350D01*
X0094660Y0018467D01*
X0094436Y0018589D01*
X0094215Y0018717D01*
X0093998Y0018851D01*
X0093783Y0018989D01*
X0093572Y0019133D01*
X0093365Y0019282D01*
X0093161Y0019436D01*
X0092961Y0019594D01*
X0092765Y0019758D01*
X0092573Y0019926D01*
X0092385Y0020099D01*
X0092201Y0020277D01*
X0092022Y0020458D01*
X0091847Y0020645D01*
X0091677Y0020835D01*
X0091512Y0021029D01*
X0091351Y0021228D01*
X0091195Y0021430D01*
X0091044Y0021636D01*
X0090898Y0021846D01*
X0090758Y0022059D01*
X0090622Y0022275D01*
X0090492Y0022495D01*
X0090367Y0022718D01*
X0090248Y0022943D01*
X0090134Y0023172D01*
X0090026Y0023403D01*
X0089923Y0023637D01*
X0089826Y0023873D01*
X0089735Y0024112D01*
X0089650Y0024352D01*
X0089570Y0024595D01*
X0089497Y0024840D01*
X0089429Y0025086D01*
X0089368Y0025334D01*
X0089313Y0025583D01*
X0089263Y0025833D01*
X0089220Y0026085D01*
X0089183Y0026338D01*
X0089152Y0026591D01*
X0089127Y0026845D01*
X0089108Y0027100D01*
X0089096Y0027355D01*
X0089090Y0027610D01*
X0089090Y0027866D01*
X0089096Y0028121D01*
X0089108Y0028376D01*
X0089127Y0028631D01*
X0089152Y0028885D01*
X0089183Y0029138D01*
X0089220Y0029391D01*
X0089263Y0029643D01*
X0089313Y0029893D01*
X0089368Y0030142D01*
X0089429Y0030390D01*
X0089497Y0030636D01*
X0089570Y0030881D01*
X0089650Y0031124D01*
X0089735Y0031364D01*
X0089826Y0031603D01*
X0089923Y0031839D01*
X0090026Y0032073D01*
X0090134Y0032304D01*
X0090248Y0032533D01*
X0090367Y0032758D01*
X0090492Y0032981D01*
X0090622Y0033201D01*
X0090758Y0033417D01*
X0090898Y0033630D01*
X0091044Y0033840D01*
X0091195Y0034046D01*
X0091351Y0034248D01*
X0091512Y0034447D01*
X0091677Y0034641D01*
X0091847Y0034831D01*
X0092022Y0035018D01*
X0092201Y0035199D01*
X0092385Y0035377D01*
X0092573Y0035550D01*
X0092765Y0035718D01*
X0092961Y0035882D01*
X0093161Y0036040D01*
X0093365Y0036194D01*
X0093572Y0036343D01*
X0093783Y0036487D01*
X0093998Y0036625D01*
X0094215Y0036759D01*
X0094436Y0036887D01*
X0094660Y0037009D01*
X0094887Y0037126D01*
X0095117Y0037238D01*
X0100088Y0017250D02*
X0100345Y0017265D01*
X0100602Y0017287D01*
X0100858Y0017315D01*
X0101113Y0017349D01*
X0101367Y0017390D01*
X0101620Y0017437D01*
X0101872Y0017490D01*
X0102123Y0017549D01*
X0102372Y0017614D01*
X0102619Y0017685D01*
X0102865Y0017762D01*
X0103109Y0017846D01*
X0103350Y0017935D01*
X0103589Y0018030D01*
X0103826Y0018131D01*
X0104060Y0018238D01*
X0124060Y0018236D02*
X0124275Y0018340D01*
X0124488Y0018449D01*
X0124698Y0018563D01*
X0124905Y0018682D01*
X0125110Y0018805D01*
X0125312Y0018933D01*
X0125511Y0019066D01*
X0125706Y0019203D01*
X0125899Y0019344D01*
X0126088Y0019490D01*
X0120089Y0017250D02*
X0119833Y0017241D01*
X0119577Y0017238D01*
X0119321Y0017241D01*
X0119065Y0017251D01*
X0118810Y0017267D01*
X0118555Y0017289D01*
X0118300Y0017317D01*
X0118047Y0017352D01*
X0117794Y0017393D01*
X0117542Y0017439D01*
X0117292Y0017492D01*
X0117043Y0017551D01*
X0116795Y0017617D01*
X0116549Y0017688D01*
X0116305Y0017765D01*
X0116063Y0017848D01*
X0115823Y0017937D01*
X0115585Y0018031D01*
X0115350Y0018132D01*
X0115117Y0018238D01*
X0120088Y0017250D02*
X0120345Y0017265D01*
X0120602Y0017287D01*
X0120858Y0017315D01*
X0121113Y0017349D01*
X0121367Y0017390D01*
X0121620Y0017437D01*
X0121872Y0017490D01*
X0122123Y0017549D01*
X0122372Y0017614D01*
X0122619Y0017685D01*
X0122865Y0017762D01*
X0123109Y0017846D01*
X0123350Y0017935D01*
X0123589Y0018030D01*
X0123826Y0018131D01*
X0124060Y0018238D01*
X0120089Y0038226D02*
X0119833Y0038235D01*
X0119577Y0038238D01*
X0119321Y0038235D01*
X0119065Y0038225D01*
X0118810Y0038209D01*
X0118555Y0038187D01*
X0118300Y0038159D01*
X0118047Y0038124D01*
X0117794Y0038083D01*
X0117542Y0038037D01*
X0117292Y0037984D01*
X0117043Y0037925D01*
X0116795Y0037859D01*
X0116549Y0037788D01*
X0116305Y0037711D01*
X0116063Y0037628D01*
X0115823Y0037539D01*
X0115585Y0037445D01*
X0115350Y0037344D01*
X0115117Y0037238D01*
X0123966Y0037284D02*
X0124191Y0037177D01*
X0124414Y0037065D01*
X0124634Y0036948D01*
X0124851Y0036826D01*
X0125066Y0036698D01*
X0125277Y0036565D01*
X0125485Y0036428D01*
X0125689Y0036285D01*
X0125891Y0036138D01*
X0126088Y0035986D01*
X0115117Y0037238D02*
X0114887Y0037126D01*
X0114660Y0037009D01*
X0114436Y0036887D01*
X0114215Y0036759D01*
X0113998Y0036625D01*
X0113783Y0036487D01*
X0113572Y0036343D01*
X0113365Y0036194D01*
X0113161Y0036040D01*
X0112961Y0035882D01*
X0112765Y0035718D01*
X0112573Y0035550D01*
X0112385Y0035377D01*
X0112201Y0035199D01*
X0112022Y0035018D01*
X0111847Y0034831D01*
X0111677Y0034641D01*
X0111512Y0034447D01*
X0111351Y0034248D01*
X0111195Y0034046D01*
X0111044Y0033840D01*
X0110898Y0033630D01*
X0110758Y0033417D01*
X0110622Y0033201D01*
X0110492Y0032981D01*
X0110367Y0032758D01*
X0110248Y0032533D01*
X0110134Y0032304D01*
X0110026Y0032073D01*
X0109923Y0031839D01*
X0109826Y0031603D01*
X0109735Y0031364D01*
X0109650Y0031124D01*
X0109570Y0030881D01*
X0109497Y0030636D01*
X0109429Y0030390D01*
X0109368Y0030142D01*
X0109313Y0029893D01*
X0109263Y0029643D01*
X0109220Y0029391D01*
X0109183Y0029138D01*
X0109152Y0028885D01*
X0109127Y0028631D01*
X0109108Y0028376D01*
X0109096Y0028121D01*
X0109090Y0027866D01*
X0109090Y0027610D01*
X0109096Y0027355D01*
X0109108Y0027100D01*
X0109127Y0026845D01*
X0109152Y0026591D01*
X0109183Y0026338D01*
X0109220Y0026085D01*
X0109263Y0025833D01*
X0109313Y0025583D01*
X0109368Y0025334D01*
X0109429Y0025086D01*
X0109497Y0024840D01*
X0109570Y0024595D01*
X0109650Y0024352D01*
X0109735Y0024112D01*
X0109826Y0023873D01*
X0109923Y0023637D01*
X0110026Y0023403D01*
X0110134Y0023172D01*
X0110248Y0022943D01*
X0110367Y0022718D01*
X0110492Y0022495D01*
X0110622Y0022275D01*
X0110758Y0022059D01*
X0110898Y0021846D01*
X0111044Y0021636D01*
X0111195Y0021430D01*
X0111351Y0021228D01*
X0111512Y0021029D01*
X0111677Y0020835D01*
X0111847Y0020645D01*
X0112022Y0020458D01*
X0112201Y0020277D01*
X0112385Y0020099D01*
X0112573Y0019926D01*
X0112765Y0019758D01*
X0112961Y0019594D01*
X0113161Y0019436D01*
X0113365Y0019282D01*
X0113572Y0019133D01*
X0113783Y0018989D01*
X0113998Y0018851D01*
X0114215Y0018717D01*
X0114436Y0018589D01*
X0114660Y0018467D01*
X0114887Y0018350D01*
X0115117Y0018238D01*
X0120088Y0038226D02*
X0120345Y0038211D01*
X0120602Y0038189D01*
X0120858Y0038161D01*
X0121113Y0038127D01*
X0121367Y0038086D01*
X0121620Y0038039D01*
X0121872Y0037986D01*
X0122123Y0037927D01*
X0122372Y0037862D01*
X0122619Y0037791D01*
X0122865Y0037714D01*
X0123109Y0037630D01*
X0123350Y0037541D01*
X0123589Y0037446D01*
X0123826Y0037345D01*
X0124060Y0037238D01*
X0143966Y0037284D02*
X0144191Y0037177D01*
X0144414Y0037065D01*
X0144634Y0036948D01*
X0144851Y0036826D01*
X0145066Y0036698D01*
X0145277Y0036565D01*
X0145485Y0036428D01*
X0145689Y0036285D01*
X0145891Y0036138D01*
X0146088Y0035986D01*
X0156089Y0039490D02*
X0156089Y0055986D01*
X0156088Y0055986D02*
X0155891Y0056138D01*
X0155689Y0056285D01*
X0155485Y0056428D01*
X0155277Y0056565D01*
X0155066Y0056698D01*
X0154851Y0056826D01*
X0154634Y0056948D01*
X0154414Y0057065D01*
X0154191Y0057177D01*
X0153966Y0057284D01*
X0150089Y0058226D02*
X0149833Y0058235D01*
X0149577Y0058238D01*
X0149321Y0058235D01*
X0149065Y0058225D01*
X0148810Y0058209D01*
X0148555Y0058187D01*
X0148300Y0058159D01*
X0148047Y0058124D01*
X0147794Y0058083D01*
X0147542Y0058037D01*
X0147292Y0057984D01*
X0147043Y0057925D01*
X0146795Y0057859D01*
X0146549Y0057788D01*
X0146305Y0057711D01*
X0146063Y0057628D01*
X0145823Y0057539D01*
X0145585Y0057445D01*
X0145350Y0057344D01*
X0145117Y0057238D01*
X0140089Y0057250D02*
X0140089Y0078226D01*
X0139833Y0078235D01*
X0139577Y0078238D01*
X0139321Y0078235D01*
X0139065Y0078225D01*
X0138810Y0078209D01*
X0138555Y0078187D01*
X0138300Y0078159D01*
X0138047Y0078124D01*
X0137794Y0078083D01*
X0137542Y0078037D01*
X0137292Y0077984D01*
X0137043Y0077925D01*
X0136795Y0077859D01*
X0136549Y0077788D01*
X0136305Y0077711D01*
X0136063Y0077628D01*
X0135823Y0077539D01*
X0135585Y0077445D01*
X0135350Y0077344D01*
X0135117Y0077238D01*
X0140088Y0078226D02*
X0140345Y0078211D01*
X0140602Y0078189D01*
X0140858Y0078161D01*
X0141113Y0078127D01*
X0141367Y0078086D01*
X0141620Y0078039D01*
X0141872Y0077986D01*
X0142123Y0077927D01*
X0142372Y0077862D01*
X0142619Y0077791D01*
X0142865Y0077714D01*
X0143109Y0077630D01*
X0143350Y0077541D01*
X0143589Y0077446D01*
X0143826Y0077345D01*
X0144060Y0077238D01*
X0140089Y0057250D02*
X0139833Y0057241D01*
X0139577Y0057238D01*
X0139321Y0057241D01*
X0139065Y0057251D01*
X0138810Y0057267D01*
X0138555Y0057289D01*
X0138300Y0057317D01*
X0138047Y0057352D01*
X0137794Y0057393D01*
X0137542Y0057439D01*
X0137292Y0057492D01*
X0137043Y0057551D01*
X0136795Y0057617D01*
X0136549Y0057688D01*
X0136305Y0057765D01*
X0136063Y0057848D01*
X0135823Y0057937D01*
X0135585Y0058031D01*
X0135350Y0058132D01*
X0135117Y0058238D01*
X0144060Y0058236D02*
X0144275Y0058340D01*
X0144488Y0058449D01*
X0144698Y0058563D01*
X0144905Y0058682D01*
X0145110Y0058805D01*
X0145312Y0058933D01*
X0145511Y0059066D01*
X0145706Y0059203D01*
X0145899Y0059344D01*
X0146088Y0059490D01*
X0135117Y0058238D02*
X0134887Y0058350D01*
X0134660Y0058467D01*
X0134436Y0058589D01*
X0134215Y0058717D01*
X0133998Y0058851D01*
X0133783Y0058989D01*
X0133572Y0059133D01*
X0133365Y0059282D01*
X0133161Y0059436D01*
X0132961Y0059594D01*
X0132765Y0059758D01*
X0132573Y0059926D01*
X0132385Y0060099D01*
X0132201Y0060277D01*
X0132022Y0060458D01*
X0131847Y0060645D01*
X0131677Y0060835D01*
X0131512Y0061029D01*
X0131351Y0061228D01*
X0131195Y0061430D01*
X0131044Y0061636D01*
X0130898Y0061846D01*
X0130758Y0062059D01*
X0130622Y0062275D01*
X0130492Y0062495D01*
X0130367Y0062718D01*
X0130248Y0062943D01*
X0130134Y0063172D01*
X0130026Y0063403D01*
X0129923Y0063637D01*
X0129826Y0063873D01*
X0129735Y0064112D01*
X0129650Y0064352D01*
X0129570Y0064595D01*
X0129497Y0064840D01*
X0129429Y0065086D01*
X0129368Y0065334D01*
X0129313Y0065583D01*
X0129263Y0065833D01*
X0129220Y0066085D01*
X0129183Y0066338D01*
X0129152Y0066591D01*
X0129127Y0066845D01*
X0129108Y0067100D01*
X0129096Y0067355D01*
X0129090Y0067610D01*
X0129090Y0067866D01*
X0129096Y0068121D01*
X0129108Y0068376D01*
X0129127Y0068631D01*
X0129152Y0068885D01*
X0129183Y0069138D01*
X0129220Y0069391D01*
X0129263Y0069643D01*
X0129313Y0069893D01*
X0129368Y0070142D01*
X0129429Y0070390D01*
X0129497Y0070636D01*
X0129570Y0070881D01*
X0129650Y0071124D01*
X0129735Y0071364D01*
X0129826Y0071603D01*
X0129923Y0071839D01*
X0130026Y0072073D01*
X0130134Y0072304D01*
X0130248Y0072533D01*
X0130367Y0072758D01*
X0130492Y0072981D01*
X0130622Y0073201D01*
X0130758Y0073417D01*
X0130898Y0073630D01*
X0131044Y0073840D01*
X0131195Y0074046D01*
X0131351Y0074248D01*
X0131512Y0074447D01*
X0131677Y0074641D01*
X0131847Y0074831D01*
X0132022Y0075018D01*
X0132201Y0075199D01*
X0132385Y0075377D01*
X0132573Y0075550D01*
X0132765Y0075718D01*
X0132961Y0075882D01*
X0133161Y0076040D01*
X0133365Y0076194D01*
X0133572Y0076343D01*
X0133783Y0076487D01*
X0133998Y0076625D01*
X0134215Y0076759D01*
X0134436Y0076887D01*
X0134660Y0077009D01*
X0134887Y0077126D01*
X0135117Y0077238D01*
X0140088Y0057250D02*
X0140345Y0057265D01*
X0140602Y0057287D01*
X0140858Y0057315D01*
X0141113Y0057349D01*
X0141367Y0057390D01*
X0141620Y0057437D01*
X0141872Y0057490D01*
X0142123Y0057549D01*
X0142372Y0057614D01*
X0142619Y0057685D01*
X0142865Y0057762D01*
X0143109Y0057846D01*
X0143350Y0057935D01*
X0143589Y0058030D01*
X0143826Y0058131D01*
X0144060Y0058238D01*
X0150088Y0058226D02*
X0150345Y0058211D01*
X0150602Y0058189D01*
X0150858Y0058161D01*
X0151113Y0058127D01*
X0151367Y0058086D01*
X0151620Y0058039D01*
X0151872Y0057986D01*
X0152123Y0057927D01*
X0152372Y0057862D01*
X0152619Y0057791D01*
X0152865Y0057714D01*
X0153109Y0057630D01*
X0153350Y0057541D01*
X0153589Y0057446D01*
X0153826Y0057345D01*
X0154060Y0057238D01*
X0150089Y0037250D02*
X0149833Y0037241D01*
X0149577Y0037238D01*
X0149321Y0037241D01*
X0149065Y0037251D01*
X0148810Y0037267D01*
X0148555Y0037289D01*
X0148300Y0037317D01*
X0148047Y0037352D01*
X0147794Y0037393D01*
X0147542Y0037439D01*
X0147292Y0037492D01*
X0147043Y0037551D01*
X0146795Y0037617D01*
X0146549Y0037688D01*
X0146305Y0037765D01*
X0146063Y0037848D01*
X0145823Y0037937D01*
X0145585Y0038031D01*
X0145350Y0038132D01*
X0145117Y0038238D01*
X0154060Y0038236D02*
X0154275Y0038340D01*
X0154488Y0038449D01*
X0154698Y0038563D01*
X0154905Y0038682D01*
X0155110Y0038805D01*
X0155312Y0038933D01*
X0155511Y0039066D01*
X0155706Y0039203D01*
X0155899Y0039344D01*
X0156088Y0039490D01*
X0160089Y0038226D02*
X0160089Y0017250D01*
X0166089Y0019490D02*
X0166089Y0035986D01*
X0166088Y0035986D02*
X0165891Y0036138D01*
X0165689Y0036285D01*
X0165485Y0036428D01*
X0165277Y0036565D01*
X0165066Y0036698D01*
X0164851Y0036826D01*
X0164634Y0036948D01*
X0164414Y0037065D01*
X0164191Y0037177D01*
X0163966Y0037284D01*
X0160089Y0038226D02*
X0159833Y0038235D01*
X0159577Y0038238D01*
X0159321Y0038235D01*
X0159065Y0038225D01*
X0158810Y0038209D01*
X0158555Y0038187D01*
X0158300Y0038159D01*
X0158047Y0038124D01*
X0157794Y0038083D01*
X0157542Y0038037D01*
X0157292Y0037984D01*
X0157043Y0037925D01*
X0156795Y0037859D01*
X0156549Y0037788D01*
X0156305Y0037711D01*
X0156063Y0037628D01*
X0155823Y0037539D01*
X0155585Y0037445D01*
X0155350Y0037344D01*
X0155117Y0037238D01*
X0160088Y0038226D02*
X0160345Y0038211D01*
X0160602Y0038189D01*
X0160858Y0038161D01*
X0161113Y0038127D01*
X0161367Y0038086D01*
X0161620Y0038039D01*
X0161872Y0037986D01*
X0162123Y0037927D01*
X0162372Y0037862D01*
X0162619Y0037791D01*
X0162865Y0037714D01*
X0163109Y0037630D01*
X0163350Y0037541D01*
X0163589Y0037446D01*
X0163826Y0037345D01*
X0164060Y0037238D01*
X0160089Y0017250D02*
X0159833Y0017241D01*
X0159577Y0017238D01*
X0159321Y0017241D01*
X0159065Y0017251D01*
X0158810Y0017267D01*
X0158555Y0017289D01*
X0158300Y0017317D01*
X0158047Y0017352D01*
X0157794Y0017393D01*
X0157542Y0017439D01*
X0157292Y0017492D01*
X0157043Y0017551D01*
X0156795Y0017617D01*
X0156549Y0017688D01*
X0156305Y0017765D01*
X0156063Y0017848D01*
X0155823Y0017937D01*
X0155585Y0018031D01*
X0155350Y0018132D01*
X0155117Y0018238D01*
X0164060Y0018236D02*
X0164275Y0018340D01*
X0164488Y0018449D01*
X0164698Y0018563D01*
X0164905Y0018682D01*
X0165110Y0018805D01*
X0165312Y0018933D01*
X0165511Y0019066D01*
X0165706Y0019203D01*
X0165899Y0019344D01*
X0166088Y0019490D01*
X0155117Y0018238D02*
X0154887Y0018350D01*
X0154660Y0018467D01*
X0154436Y0018589D01*
X0154215Y0018717D01*
X0153998Y0018851D01*
X0153783Y0018989D01*
X0153572Y0019133D01*
X0153365Y0019282D01*
X0153161Y0019436D01*
X0152961Y0019594D01*
X0152765Y0019758D01*
X0152573Y0019926D01*
X0152385Y0020099D01*
X0152201Y0020277D01*
X0152022Y0020458D01*
X0151847Y0020645D01*
X0151677Y0020835D01*
X0151512Y0021029D01*
X0151351Y0021228D01*
X0151195Y0021430D01*
X0151044Y0021636D01*
X0150898Y0021846D01*
X0150758Y0022059D01*
X0150622Y0022275D01*
X0150492Y0022495D01*
X0150367Y0022718D01*
X0150248Y0022943D01*
X0150134Y0023172D01*
X0150026Y0023403D01*
X0149923Y0023637D01*
X0149826Y0023873D01*
X0149735Y0024112D01*
X0149650Y0024352D01*
X0149570Y0024595D01*
X0149497Y0024840D01*
X0149429Y0025086D01*
X0149368Y0025334D01*
X0149313Y0025583D01*
X0149263Y0025833D01*
X0149220Y0026085D01*
X0149183Y0026338D01*
X0149152Y0026591D01*
X0149127Y0026845D01*
X0149108Y0027100D01*
X0149096Y0027355D01*
X0149090Y0027610D01*
X0149090Y0027866D01*
X0149096Y0028121D01*
X0149108Y0028376D01*
X0149127Y0028631D01*
X0149152Y0028885D01*
X0149183Y0029138D01*
X0149220Y0029391D01*
X0149263Y0029643D01*
X0149313Y0029893D01*
X0149368Y0030142D01*
X0149429Y0030390D01*
X0149497Y0030636D01*
X0149570Y0030881D01*
X0149650Y0031124D01*
X0149735Y0031364D01*
X0149826Y0031603D01*
X0149923Y0031839D01*
X0150026Y0032073D01*
X0150134Y0032304D01*
X0150248Y0032533D01*
X0150367Y0032758D01*
X0150492Y0032981D01*
X0150622Y0033201D01*
X0150758Y0033417D01*
X0150898Y0033630D01*
X0151044Y0033840D01*
X0151195Y0034046D01*
X0151351Y0034248D01*
X0151512Y0034447D01*
X0151677Y0034641D01*
X0151847Y0034831D01*
X0152022Y0035018D01*
X0152201Y0035199D01*
X0152385Y0035377D01*
X0152573Y0035550D01*
X0152765Y0035718D01*
X0152961Y0035882D01*
X0153161Y0036040D01*
X0153365Y0036194D01*
X0153572Y0036343D01*
X0153783Y0036487D01*
X0153998Y0036625D01*
X0154215Y0036759D01*
X0154436Y0036887D01*
X0154660Y0037009D01*
X0154887Y0037126D01*
X0155117Y0037238D01*
X0160088Y0017250D02*
X0160345Y0017265D01*
X0160602Y0017287D01*
X0160858Y0017315D01*
X0161113Y0017349D01*
X0161367Y0017390D01*
X0161620Y0017437D01*
X0161872Y0017490D01*
X0162123Y0017549D01*
X0162372Y0017614D01*
X0162619Y0017685D01*
X0162865Y0017762D01*
X0163109Y0017846D01*
X0163350Y0017935D01*
X0163589Y0018030D01*
X0163826Y0018131D01*
X0164060Y0018238D01*
X0146088Y0019490D02*
X0145899Y0019344D01*
X0145706Y0019203D01*
X0145511Y0019066D01*
X0145312Y0018933D01*
X0145110Y0018805D01*
X0144905Y0018682D01*
X0144698Y0018563D01*
X0144488Y0018449D01*
X0144275Y0018340D01*
X0144060Y0018236D01*
X0140089Y0017250D02*
X0139833Y0017241D01*
X0139577Y0017238D01*
X0139321Y0017241D01*
X0139065Y0017251D01*
X0138810Y0017267D01*
X0138555Y0017289D01*
X0138300Y0017317D01*
X0138047Y0017352D01*
X0137794Y0017393D01*
X0137542Y0017439D01*
X0137292Y0017492D01*
X0137043Y0017551D01*
X0136795Y0017617D01*
X0136549Y0017688D01*
X0136305Y0017765D01*
X0136063Y0017848D01*
X0135823Y0017937D01*
X0135585Y0018031D01*
X0135350Y0018132D01*
X0135117Y0018238D01*
X0140088Y0017250D02*
X0140345Y0017265D01*
X0140602Y0017287D01*
X0140858Y0017315D01*
X0141113Y0017349D01*
X0141367Y0017390D01*
X0141620Y0017437D01*
X0141872Y0017490D01*
X0142123Y0017549D01*
X0142372Y0017614D01*
X0142619Y0017685D01*
X0142865Y0017762D01*
X0143109Y0017846D01*
X0143350Y0017935D01*
X0143589Y0018030D01*
X0143826Y0018131D01*
X0144060Y0018238D01*
X0140089Y0038226D02*
X0139833Y0038235D01*
X0139577Y0038238D01*
X0139321Y0038235D01*
X0139065Y0038225D01*
X0138810Y0038209D01*
X0138555Y0038187D01*
X0138300Y0038159D01*
X0138047Y0038124D01*
X0137794Y0038083D01*
X0137542Y0038037D01*
X0137292Y0037984D01*
X0137043Y0037925D01*
X0136795Y0037859D01*
X0136549Y0037788D01*
X0136305Y0037711D01*
X0136063Y0037628D01*
X0135823Y0037539D01*
X0135585Y0037445D01*
X0135350Y0037344D01*
X0135117Y0037238D01*
X0140088Y0038226D02*
X0140345Y0038211D01*
X0140602Y0038189D01*
X0140858Y0038161D01*
X0141113Y0038127D01*
X0141367Y0038086D01*
X0141620Y0038039D01*
X0141872Y0037986D01*
X0142123Y0037927D01*
X0142372Y0037862D01*
X0142619Y0037791D01*
X0142865Y0037714D01*
X0143109Y0037630D01*
X0143350Y0037541D01*
X0143589Y0037446D01*
X0143826Y0037345D01*
X0144060Y0037238D01*
X0135117Y0037238D02*
X0134887Y0037126D01*
X0134660Y0037009D01*
X0134436Y0036887D01*
X0134215Y0036759D01*
X0133998Y0036625D01*
X0133783Y0036487D01*
X0133572Y0036343D01*
X0133365Y0036194D01*
X0133161Y0036040D01*
X0132961Y0035882D01*
X0132765Y0035718D01*
X0132573Y0035550D01*
X0132385Y0035377D01*
X0132201Y0035199D01*
X0132022Y0035018D01*
X0131847Y0034831D01*
X0131677Y0034641D01*
X0131512Y0034447D01*
X0131351Y0034248D01*
X0131195Y0034046D01*
X0131044Y0033840D01*
X0130898Y0033630D01*
X0130758Y0033417D01*
X0130622Y0033201D01*
X0130492Y0032981D01*
X0130367Y0032758D01*
X0130248Y0032533D01*
X0130134Y0032304D01*
X0130026Y0032073D01*
X0129923Y0031839D01*
X0129826Y0031603D01*
X0129735Y0031364D01*
X0129650Y0031124D01*
X0129570Y0030881D01*
X0129497Y0030636D01*
X0129429Y0030390D01*
X0129368Y0030142D01*
X0129313Y0029893D01*
X0129263Y0029643D01*
X0129220Y0029391D01*
X0129183Y0029138D01*
X0129152Y0028885D01*
X0129127Y0028631D01*
X0129108Y0028376D01*
X0129096Y0028121D01*
X0129090Y0027866D01*
X0129090Y0027610D01*
X0129096Y0027355D01*
X0129108Y0027100D01*
X0129127Y0026845D01*
X0129152Y0026591D01*
X0129183Y0026338D01*
X0129220Y0026085D01*
X0129263Y0025833D01*
X0129313Y0025583D01*
X0129368Y0025334D01*
X0129429Y0025086D01*
X0129497Y0024840D01*
X0129570Y0024595D01*
X0129650Y0024352D01*
X0129735Y0024112D01*
X0129826Y0023873D01*
X0129923Y0023637D01*
X0130026Y0023403D01*
X0130134Y0023172D01*
X0130248Y0022943D01*
X0130367Y0022718D01*
X0130492Y0022495D01*
X0130622Y0022275D01*
X0130758Y0022059D01*
X0130898Y0021846D01*
X0131044Y0021636D01*
X0131195Y0021430D01*
X0131351Y0021228D01*
X0131512Y0021029D01*
X0131677Y0020835D01*
X0131847Y0020645D01*
X0132022Y0020458D01*
X0132201Y0020277D01*
X0132385Y0020099D01*
X0132573Y0019926D01*
X0132765Y0019758D01*
X0132961Y0019594D01*
X0133161Y0019436D01*
X0133365Y0019282D01*
X0133572Y0019133D01*
X0133783Y0018989D01*
X0133998Y0018851D01*
X0134215Y0018717D01*
X0134436Y0018589D01*
X0134660Y0018467D01*
X0134887Y0018350D01*
X0135117Y0018238D01*
X0150088Y0037250D02*
X0150345Y0037265D01*
X0150602Y0037287D01*
X0150858Y0037315D01*
X0151113Y0037349D01*
X0151367Y0037390D01*
X0151620Y0037437D01*
X0151872Y0037490D01*
X0152123Y0037549D01*
X0152372Y0037614D01*
X0152619Y0037685D01*
X0152865Y0037762D01*
X0153109Y0037846D01*
X0153350Y0037935D01*
X0153589Y0038030D01*
X0153826Y0038131D01*
X0154060Y0038238D01*
X0145117Y0038238D02*
X0144887Y0038350D01*
X0144660Y0038467D01*
X0144436Y0038589D01*
X0144215Y0038717D01*
X0143998Y0038851D01*
X0143783Y0038989D01*
X0143572Y0039133D01*
X0143365Y0039282D01*
X0143161Y0039436D01*
X0142961Y0039594D01*
X0142765Y0039758D01*
X0142573Y0039926D01*
X0142385Y0040099D01*
X0142201Y0040277D01*
X0142022Y0040458D01*
X0141847Y0040645D01*
X0141677Y0040835D01*
X0141512Y0041029D01*
X0141351Y0041228D01*
X0141195Y0041430D01*
X0141044Y0041636D01*
X0140898Y0041846D01*
X0140758Y0042059D01*
X0140622Y0042275D01*
X0140492Y0042495D01*
X0140367Y0042718D01*
X0140248Y0042943D01*
X0140134Y0043172D01*
X0140026Y0043403D01*
X0139923Y0043637D01*
X0139826Y0043873D01*
X0139735Y0044112D01*
X0139650Y0044352D01*
X0139570Y0044595D01*
X0139497Y0044840D01*
X0139429Y0045086D01*
X0139368Y0045334D01*
X0139313Y0045583D01*
X0139263Y0045833D01*
X0139220Y0046085D01*
X0139183Y0046338D01*
X0139152Y0046591D01*
X0139127Y0046845D01*
X0139108Y0047100D01*
X0139096Y0047355D01*
X0139090Y0047610D01*
X0139090Y0047866D01*
X0139096Y0048121D01*
X0139108Y0048376D01*
X0139127Y0048631D01*
X0139152Y0048885D01*
X0139183Y0049138D01*
X0139220Y0049391D01*
X0139263Y0049643D01*
X0139313Y0049893D01*
X0139368Y0050142D01*
X0139429Y0050390D01*
X0139497Y0050636D01*
X0139570Y0050881D01*
X0139650Y0051124D01*
X0139735Y0051364D01*
X0139826Y0051603D01*
X0139923Y0051839D01*
X0140026Y0052073D01*
X0140134Y0052304D01*
X0140248Y0052533D01*
X0140367Y0052758D01*
X0140492Y0052981D01*
X0140622Y0053201D01*
X0140758Y0053417D01*
X0140898Y0053630D01*
X0141044Y0053840D01*
X0141195Y0054046D01*
X0141351Y0054248D01*
X0141512Y0054447D01*
X0141677Y0054641D01*
X0141847Y0054831D01*
X0142022Y0055018D01*
X0142201Y0055199D01*
X0142385Y0055377D01*
X0142573Y0055550D01*
X0142765Y0055718D01*
X0142961Y0055882D01*
X0143161Y0056040D01*
X0143365Y0056194D01*
X0143572Y0056343D01*
X0143783Y0056487D01*
X0143998Y0056625D01*
X0144215Y0056759D01*
X0144436Y0056887D01*
X0144660Y0057009D01*
X0144887Y0057126D01*
X0145117Y0057238D01*
X0145211Y0078192D02*
X0144986Y0078299D01*
X0144763Y0078411D01*
X0144543Y0078528D01*
X0144326Y0078650D01*
X0144111Y0078778D01*
X0143900Y0078911D01*
X0143692Y0079048D01*
X0143488Y0079191D01*
X0143286Y0079338D01*
X0143089Y0079490D01*
X0149088Y0077250D02*
X0149344Y0077241D01*
X0149600Y0077238D01*
X0149856Y0077241D01*
X0150112Y0077251D01*
X0150367Y0077267D01*
X0150622Y0077289D01*
X0150877Y0077317D01*
X0151130Y0077352D01*
X0151383Y0077393D01*
X0151635Y0077439D01*
X0151885Y0077492D01*
X0152134Y0077551D01*
X0152382Y0077617D01*
X0152628Y0077688D01*
X0152872Y0077765D01*
X0153114Y0077848D01*
X0153354Y0077937D01*
X0153592Y0078031D01*
X0153827Y0078132D01*
X0154060Y0078238D01*
X0149089Y0077250D02*
X0148832Y0077265D01*
X0148575Y0077287D01*
X0148319Y0077315D01*
X0148064Y0077349D01*
X0147810Y0077390D01*
X0147557Y0077437D01*
X0147305Y0077490D01*
X0147054Y0077549D01*
X0146805Y0077614D01*
X0146558Y0077685D01*
X0146312Y0077762D01*
X0146068Y0077846D01*
X0145827Y0077935D01*
X0145588Y0078030D01*
X0145351Y0078131D01*
X0145117Y0078238D01*
X0149088Y0098226D02*
X0149344Y0098235D01*
X0149600Y0098238D01*
X0149856Y0098235D01*
X0150112Y0098225D01*
X0150367Y0098209D01*
X0150622Y0098187D01*
X0150877Y0098159D01*
X0151130Y0098124D01*
X0151383Y0098083D01*
X0151635Y0098037D01*
X0151885Y0097984D01*
X0152134Y0097925D01*
X0152382Y0097859D01*
X0152628Y0097788D01*
X0152872Y0097711D01*
X0153114Y0097628D01*
X0153354Y0097539D01*
X0153592Y0097445D01*
X0153827Y0097344D01*
X0154060Y0097238D01*
X0153089Y0099490D02*
X0153089Y0115986D01*
X0159089Y0118226D02*
X0159089Y0097250D01*
X0145117Y0097240D02*
X0144902Y0097136D01*
X0144689Y0097027D01*
X0144479Y0096913D01*
X0144272Y0096794D01*
X0144067Y0096671D01*
X0143865Y0096543D01*
X0143666Y0096410D01*
X0143471Y0096273D01*
X0143278Y0096132D01*
X0143089Y0095986D01*
X0154060Y0097238D02*
X0154290Y0097126D01*
X0154517Y0097009D01*
X0154741Y0096887D01*
X0154962Y0096759D01*
X0155179Y0096625D01*
X0155394Y0096487D01*
X0155605Y0096343D01*
X0155812Y0096194D01*
X0156016Y0096040D01*
X0156216Y0095882D01*
X0156412Y0095718D01*
X0156604Y0095550D01*
X0156792Y0095377D01*
X0156976Y0095199D01*
X0157155Y0095018D01*
X0157330Y0094831D01*
X0157500Y0094641D01*
X0157665Y0094447D01*
X0157826Y0094248D01*
X0157982Y0094046D01*
X0158133Y0093840D01*
X0158279Y0093630D01*
X0158419Y0093417D01*
X0158555Y0093201D01*
X0158685Y0092981D01*
X0158810Y0092758D01*
X0158929Y0092533D01*
X0159043Y0092304D01*
X0159151Y0092073D01*
X0159254Y0091839D01*
X0159351Y0091603D01*
X0159442Y0091364D01*
X0159527Y0091124D01*
X0159607Y0090881D01*
X0159680Y0090636D01*
X0159748Y0090390D01*
X0159809Y0090142D01*
X0159864Y0089893D01*
X0159914Y0089643D01*
X0159957Y0089391D01*
X0159994Y0089138D01*
X0160025Y0088885D01*
X0160050Y0088631D01*
X0160069Y0088376D01*
X0160081Y0088121D01*
X0160087Y0087866D01*
X0160087Y0087610D01*
X0160081Y0087355D01*
X0160069Y0087100D01*
X0160050Y0086845D01*
X0160025Y0086591D01*
X0159994Y0086338D01*
X0159957Y0086085D01*
X0159914Y0085833D01*
X0159864Y0085583D01*
X0159809Y0085334D01*
X0159748Y0085086D01*
X0159680Y0084840D01*
X0159607Y0084595D01*
X0159527Y0084352D01*
X0159442Y0084112D01*
X0159351Y0083873D01*
X0159254Y0083637D01*
X0159151Y0083403D01*
X0159043Y0083172D01*
X0158929Y0082943D01*
X0158810Y0082718D01*
X0158685Y0082495D01*
X0158555Y0082275D01*
X0158419Y0082059D01*
X0158279Y0081846D01*
X0158133Y0081636D01*
X0157982Y0081430D01*
X0157826Y0081228D01*
X0157665Y0081029D01*
X0157500Y0080835D01*
X0157330Y0080645D01*
X0157155Y0080458D01*
X0156976Y0080277D01*
X0156792Y0080099D01*
X0156604Y0079926D01*
X0156412Y0079758D01*
X0156216Y0079594D01*
X0156016Y0079436D01*
X0155812Y0079282D01*
X0155605Y0079133D01*
X0155394Y0078989D01*
X0155179Y0078851D01*
X0154962Y0078717D01*
X0154741Y0078589D01*
X0154517Y0078467D01*
X0154290Y0078350D01*
X0154060Y0078238D01*
X0149089Y0098226D02*
X0148832Y0098211D01*
X0148575Y0098189D01*
X0148319Y0098161D01*
X0148064Y0098127D01*
X0147810Y0098086D01*
X0147557Y0098039D01*
X0147305Y0097986D01*
X0147054Y0097927D01*
X0146805Y0097862D01*
X0146558Y0097791D01*
X0146312Y0097714D01*
X0146068Y0097630D01*
X0145827Y0097541D01*
X0145588Y0097446D01*
X0145351Y0097345D01*
X0145117Y0097238D01*
X0139089Y0097250D02*
X0138832Y0097265D01*
X0138575Y0097287D01*
X0138319Y0097315D01*
X0138064Y0097349D01*
X0137810Y0097390D01*
X0137557Y0097437D01*
X0137305Y0097490D01*
X0137054Y0097549D01*
X0136805Y0097614D01*
X0136558Y0097685D01*
X0136312Y0097762D01*
X0136068Y0097846D01*
X0135827Y0097935D01*
X0135588Y0098030D01*
X0135351Y0098131D01*
X0135117Y0098238D01*
X0139088Y0118226D02*
X0139344Y0118235D01*
X0139600Y0118238D01*
X0139856Y0118235D01*
X0140112Y0118225D01*
X0140367Y0118209D01*
X0140622Y0118187D01*
X0140877Y0118159D01*
X0141130Y0118124D01*
X0141383Y0118083D01*
X0141635Y0118037D01*
X0141885Y0117984D01*
X0142134Y0117925D01*
X0142382Y0117859D01*
X0142628Y0117788D01*
X0142872Y0117711D01*
X0143114Y0117628D01*
X0143354Y0117539D01*
X0143592Y0117445D01*
X0143827Y0117344D01*
X0144060Y0117238D01*
X0135117Y0117240D02*
X0134902Y0117136D01*
X0134689Y0117027D01*
X0134479Y0116913D01*
X0134272Y0116794D01*
X0134067Y0116671D01*
X0133865Y0116543D01*
X0133666Y0116410D01*
X0133471Y0116273D01*
X0133278Y0116132D01*
X0133089Y0115986D01*
X0144060Y0117238D02*
X0144290Y0117126D01*
X0144517Y0117009D01*
X0144741Y0116887D01*
X0144962Y0116759D01*
X0145179Y0116625D01*
X0145394Y0116487D01*
X0145605Y0116343D01*
X0145812Y0116194D01*
X0146016Y0116040D01*
X0146216Y0115882D01*
X0146412Y0115718D01*
X0146604Y0115550D01*
X0146792Y0115377D01*
X0146976Y0115199D01*
X0147155Y0115018D01*
X0147330Y0114831D01*
X0147500Y0114641D01*
X0147665Y0114447D01*
X0147826Y0114248D01*
X0147982Y0114046D01*
X0148133Y0113840D01*
X0148279Y0113630D01*
X0148419Y0113417D01*
X0148555Y0113201D01*
X0148685Y0112981D01*
X0148810Y0112758D01*
X0148929Y0112533D01*
X0149043Y0112304D01*
X0149151Y0112073D01*
X0149254Y0111839D01*
X0149351Y0111603D01*
X0149442Y0111364D01*
X0149527Y0111124D01*
X0149607Y0110881D01*
X0149680Y0110636D01*
X0149748Y0110390D01*
X0149809Y0110142D01*
X0149864Y0109893D01*
X0149914Y0109643D01*
X0149957Y0109391D01*
X0149994Y0109138D01*
X0150025Y0108885D01*
X0150050Y0108631D01*
X0150069Y0108376D01*
X0150081Y0108121D01*
X0150087Y0107866D01*
X0150087Y0107610D01*
X0150081Y0107355D01*
X0150069Y0107100D01*
X0150050Y0106845D01*
X0150025Y0106591D01*
X0149994Y0106338D01*
X0149957Y0106085D01*
X0149914Y0105833D01*
X0149864Y0105583D01*
X0149809Y0105334D01*
X0149748Y0105086D01*
X0149680Y0104840D01*
X0149607Y0104595D01*
X0149527Y0104352D01*
X0149442Y0104112D01*
X0149351Y0103873D01*
X0149254Y0103637D01*
X0149151Y0103403D01*
X0149043Y0103172D01*
X0148929Y0102943D01*
X0148810Y0102718D01*
X0148685Y0102495D01*
X0148555Y0102275D01*
X0148419Y0102059D01*
X0148279Y0101846D01*
X0148133Y0101636D01*
X0147982Y0101430D01*
X0147826Y0101228D01*
X0147665Y0101029D01*
X0147500Y0100835D01*
X0147330Y0100645D01*
X0147155Y0100458D01*
X0146976Y0100277D01*
X0146792Y0100099D01*
X0146604Y0099926D01*
X0146412Y0099758D01*
X0146216Y0099594D01*
X0146016Y0099436D01*
X0145812Y0099282D01*
X0145605Y0099133D01*
X0145394Y0098989D01*
X0145179Y0098851D01*
X0144962Y0098717D01*
X0144741Y0098589D01*
X0144517Y0098467D01*
X0144290Y0098350D01*
X0144060Y0098238D01*
X0139089Y0118226D02*
X0138832Y0118211D01*
X0138575Y0118189D01*
X0138319Y0118161D01*
X0138064Y0118127D01*
X0137810Y0118086D01*
X0137557Y0118039D01*
X0137305Y0117986D01*
X0137054Y0117927D01*
X0136805Y0117862D01*
X0136558Y0117791D01*
X0136312Y0117714D01*
X0136068Y0117630D01*
X0135827Y0117541D01*
X0135588Y0117446D01*
X0135351Y0117345D01*
X0135117Y0117238D01*
X0115117Y0117240D02*
X0114902Y0117136D01*
X0114689Y0117027D01*
X0114479Y0116913D01*
X0114272Y0116794D01*
X0114067Y0116671D01*
X0113865Y0116543D01*
X0113666Y0116410D01*
X0113471Y0116273D01*
X0113278Y0116132D01*
X0113089Y0115986D01*
X0119088Y0118226D02*
X0119344Y0118235D01*
X0119600Y0118238D01*
X0119856Y0118235D01*
X0120112Y0118225D01*
X0120367Y0118209D01*
X0120622Y0118187D01*
X0120877Y0118159D01*
X0121130Y0118124D01*
X0121383Y0118083D01*
X0121635Y0118037D01*
X0121885Y0117984D01*
X0122134Y0117925D01*
X0122382Y0117859D01*
X0122628Y0117788D01*
X0122872Y0117711D01*
X0123114Y0117628D01*
X0123354Y0117539D01*
X0123592Y0117445D01*
X0123827Y0117344D01*
X0124060Y0117238D01*
X0119089Y0118226D02*
X0118832Y0118211D01*
X0118575Y0118189D01*
X0118319Y0118161D01*
X0118064Y0118127D01*
X0117810Y0118086D01*
X0117557Y0118039D01*
X0117305Y0117986D01*
X0117054Y0117927D01*
X0116805Y0117862D01*
X0116558Y0117791D01*
X0116312Y0117714D01*
X0116068Y0117630D01*
X0115827Y0117541D01*
X0115588Y0117446D01*
X0115351Y0117345D01*
X0115117Y0117238D01*
X0119088Y0097250D02*
X0119344Y0097241D01*
X0119600Y0097238D01*
X0119856Y0097241D01*
X0120112Y0097251D01*
X0120367Y0097267D01*
X0120622Y0097289D01*
X0120877Y0097317D01*
X0121130Y0097352D01*
X0121383Y0097393D01*
X0121635Y0097439D01*
X0121885Y0097492D01*
X0122134Y0097551D01*
X0122382Y0097617D01*
X0122628Y0097688D01*
X0122872Y0097765D01*
X0123114Y0097848D01*
X0123354Y0097937D01*
X0123592Y0098031D01*
X0123827Y0098132D01*
X0124060Y0098238D01*
X0115211Y0098192D02*
X0114986Y0098299D01*
X0114763Y0098411D01*
X0114543Y0098528D01*
X0114326Y0098650D01*
X0114111Y0098778D01*
X0113900Y0098911D01*
X0113692Y0099048D01*
X0113488Y0099191D01*
X0113286Y0099338D01*
X0113089Y0099490D01*
X0124060Y0098238D02*
X0124290Y0098350D01*
X0124517Y0098467D01*
X0124741Y0098589D01*
X0124962Y0098717D01*
X0125179Y0098851D01*
X0125394Y0098989D01*
X0125605Y0099133D01*
X0125812Y0099282D01*
X0126016Y0099436D01*
X0126216Y0099594D01*
X0126412Y0099758D01*
X0126604Y0099926D01*
X0126792Y0100099D01*
X0126976Y0100277D01*
X0127155Y0100458D01*
X0127330Y0100645D01*
X0127500Y0100835D01*
X0127665Y0101029D01*
X0127826Y0101228D01*
X0127982Y0101430D01*
X0128133Y0101636D01*
X0128279Y0101846D01*
X0128419Y0102059D01*
X0128555Y0102275D01*
X0128685Y0102495D01*
X0128810Y0102718D01*
X0128929Y0102943D01*
X0129043Y0103172D01*
X0129151Y0103403D01*
X0129254Y0103637D01*
X0129351Y0103873D01*
X0129442Y0104112D01*
X0129527Y0104352D01*
X0129607Y0104595D01*
X0129680Y0104840D01*
X0129748Y0105086D01*
X0129809Y0105334D01*
X0129864Y0105583D01*
X0129914Y0105833D01*
X0129957Y0106085D01*
X0129994Y0106338D01*
X0130025Y0106591D01*
X0130050Y0106845D01*
X0130069Y0107100D01*
X0130081Y0107355D01*
X0130087Y0107610D01*
X0130087Y0107866D01*
X0130081Y0108121D01*
X0130069Y0108376D01*
X0130050Y0108631D01*
X0130025Y0108885D01*
X0129994Y0109138D01*
X0129957Y0109391D01*
X0129914Y0109643D01*
X0129864Y0109893D01*
X0129809Y0110142D01*
X0129748Y0110390D01*
X0129680Y0110636D01*
X0129607Y0110881D01*
X0129527Y0111124D01*
X0129442Y0111364D01*
X0129351Y0111603D01*
X0129254Y0111839D01*
X0129151Y0112073D01*
X0129043Y0112304D01*
X0128929Y0112533D01*
X0128810Y0112758D01*
X0128685Y0112981D01*
X0128555Y0113201D01*
X0128419Y0113417D01*
X0128279Y0113630D01*
X0128133Y0113840D01*
X0127982Y0114046D01*
X0127826Y0114248D01*
X0127665Y0114447D01*
X0127500Y0114641D01*
X0127330Y0114831D01*
X0127155Y0115018D01*
X0126976Y0115199D01*
X0126792Y0115377D01*
X0126604Y0115550D01*
X0126412Y0115718D01*
X0126216Y0115882D01*
X0126016Y0116040D01*
X0125812Y0116194D01*
X0125605Y0116343D01*
X0125394Y0116487D01*
X0125179Y0116625D01*
X0124962Y0116759D01*
X0124741Y0116887D01*
X0124517Y0117009D01*
X0124290Y0117126D01*
X0124060Y0117238D01*
X0119089Y0097250D02*
X0118832Y0097265D01*
X0118575Y0097287D01*
X0118319Y0097315D01*
X0118064Y0097349D01*
X0117810Y0097390D01*
X0117557Y0097437D01*
X0117305Y0097490D01*
X0117054Y0097549D01*
X0116805Y0097614D01*
X0116558Y0097685D01*
X0116312Y0097762D01*
X0116068Y0097846D01*
X0115827Y0097935D01*
X0115588Y0098030D01*
X0115351Y0098131D01*
X0115117Y0098238D01*
X0114060Y0097238D02*
X0114290Y0097126D01*
X0114517Y0097009D01*
X0114741Y0096887D01*
X0114962Y0096759D01*
X0115179Y0096625D01*
X0115394Y0096487D01*
X0115605Y0096343D01*
X0115812Y0096194D01*
X0116016Y0096040D01*
X0116216Y0095882D01*
X0116412Y0095718D01*
X0116604Y0095550D01*
X0116792Y0095377D01*
X0116976Y0095199D01*
X0117155Y0095018D01*
X0117330Y0094831D01*
X0117500Y0094641D01*
X0117665Y0094447D01*
X0117826Y0094248D01*
X0117982Y0094046D01*
X0118133Y0093840D01*
X0118279Y0093630D01*
X0118419Y0093417D01*
X0118555Y0093201D01*
X0118685Y0092981D01*
X0118810Y0092758D01*
X0118929Y0092533D01*
X0119043Y0092304D01*
X0119151Y0092073D01*
X0119254Y0091839D01*
X0119351Y0091603D01*
X0119442Y0091364D01*
X0119527Y0091124D01*
X0119607Y0090881D01*
X0119680Y0090636D01*
X0119748Y0090390D01*
X0119809Y0090142D01*
X0119864Y0089893D01*
X0119914Y0089643D01*
X0119957Y0089391D01*
X0119994Y0089138D01*
X0120025Y0088885D01*
X0120050Y0088631D01*
X0120069Y0088376D01*
X0120081Y0088121D01*
X0120087Y0087866D01*
X0120087Y0087610D01*
X0120081Y0087355D01*
X0120069Y0087100D01*
X0120050Y0086845D01*
X0120025Y0086591D01*
X0119994Y0086338D01*
X0119957Y0086085D01*
X0119914Y0085833D01*
X0119864Y0085583D01*
X0119809Y0085334D01*
X0119748Y0085086D01*
X0119680Y0084840D01*
X0119607Y0084595D01*
X0119527Y0084352D01*
X0119442Y0084112D01*
X0119351Y0083873D01*
X0119254Y0083637D01*
X0119151Y0083403D01*
X0119043Y0083172D01*
X0118929Y0082943D01*
X0118810Y0082718D01*
X0118685Y0082495D01*
X0118555Y0082275D01*
X0118419Y0082059D01*
X0118279Y0081846D01*
X0118133Y0081636D01*
X0117982Y0081430D01*
X0117826Y0081228D01*
X0117665Y0081029D01*
X0117500Y0080835D01*
X0117330Y0080645D01*
X0117155Y0080458D01*
X0116976Y0080277D01*
X0116792Y0080099D01*
X0116604Y0079926D01*
X0116412Y0079758D01*
X0116216Y0079594D01*
X0116016Y0079436D01*
X0115812Y0079282D01*
X0115605Y0079133D01*
X0115394Y0078989D01*
X0115179Y0078851D01*
X0114962Y0078717D01*
X0114741Y0078589D01*
X0114517Y0078467D01*
X0114290Y0078350D01*
X0114060Y0078238D01*
X0153089Y0099490D02*
X0153286Y0099338D01*
X0153488Y0099191D01*
X0153692Y0099048D01*
X0153900Y0098911D01*
X0154111Y0098778D01*
X0154326Y0098650D01*
X0154543Y0098528D01*
X0154763Y0098411D01*
X0154986Y0098299D01*
X0155211Y0098192D01*
X0159088Y0097250D02*
X0159344Y0097241D01*
X0159600Y0097238D01*
X0159856Y0097241D01*
X0160112Y0097251D01*
X0160367Y0097267D01*
X0160622Y0097289D01*
X0160877Y0097317D01*
X0161130Y0097352D01*
X0161383Y0097393D01*
X0161635Y0097439D01*
X0161885Y0097492D01*
X0162134Y0097551D01*
X0162382Y0097617D01*
X0162628Y0097688D01*
X0162872Y0097765D01*
X0163114Y0097848D01*
X0163354Y0097937D01*
X0163592Y0098031D01*
X0163827Y0098132D01*
X0164060Y0098238D01*
X0159089Y0097250D02*
X0158832Y0097265D01*
X0158575Y0097287D01*
X0158319Y0097315D01*
X0158064Y0097349D01*
X0157810Y0097390D01*
X0157557Y0097437D01*
X0157305Y0097490D01*
X0157054Y0097549D01*
X0156805Y0097614D01*
X0156558Y0097685D01*
X0156312Y0097762D01*
X0156068Y0097846D01*
X0155827Y0097935D01*
X0155588Y0098030D01*
X0155351Y0098131D01*
X0155117Y0098238D01*
X0159088Y0118226D02*
X0159344Y0118235D01*
X0159600Y0118238D01*
X0159856Y0118235D01*
X0160112Y0118225D01*
X0160367Y0118209D01*
X0160622Y0118187D01*
X0160877Y0118159D01*
X0161130Y0118124D01*
X0161383Y0118083D01*
X0161635Y0118037D01*
X0161885Y0117984D01*
X0162134Y0117925D01*
X0162382Y0117859D01*
X0162628Y0117788D01*
X0162872Y0117711D01*
X0163114Y0117628D01*
X0163354Y0117539D01*
X0163592Y0117445D01*
X0163827Y0117344D01*
X0164060Y0117238D01*
X0155117Y0117240D02*
X0154902Y0117136D01*
X0154689Y0117027D01*
X0154479Y0116913D01*
X0154272Y0116794D01*
X0154067Y0116671D01*
X0153865Y0116543D01*
X0153666Y0116410D01*
X0153471Y0116273D01*
X0153278Y0116132D01*
X0153089Y0115986D01*
X0164060Y0117238D02*
X0164290Y0117126D01*
X0164517Y0117009D01*
X0164741Y0116887D01*
X0164962Y0116759D01*
X0165179Y0116625D01*
X0165394Y0116487D01*
X0165605Y0116343D01*
X0165812Y0116194D01*
X0166016Y0116040D01*
X0166216Y0115882D01*
X0166412Y0115718D01*
X0166604Y0115550D01*
X0166792Y0115377D01*
X0166976Y0115199D01*
X0167155Y0115018D01*
X0167330Y0114831D01*
X0167500Y0114641D01*
X0167665Y0114447D01*
X0167826Y0114248D01*
X0167982Y0114046D01*
X0168133Y0113840D01*
X0168279Y0113630D01*
X0168419Y0113417D01*
X0168555Y0113201D01*
X0168685Y0112981D01*
X0168810Y0112758D01*
X0168929Y0112533D01*
X0169043Y0112304D01*
X0169151Y0112073D01*
X0169254Y0111839D01*
X0169351Y0111603D01*
X0169442Y0111364D01*
X0169527Y0111124D01*
X0169607Y0110881D01*
X0169680Y0110636D01*
X0169748Y0110390D01*
X0169809Y0110142D01*
X0169864Y0109893D01*
X0169914Y0109643D01*
X0169957Y0109391D01*
X0169994Y0109138D01*
X0170025Y0108885D01*
X0170050Y0108631D01*
X0170069Y0108376D01*
X0170081Y0108121D01*
X0170087Y0107866D01*
X0170087Y0107610D01*
X0170081Y0107355D01*
X0170069Y0107100D01*
X0170050Y0106845D01*
X0170025Y0106591D01*
X0169994Y0106338D01*
X0169957Y0106085D01*
X0169914Y0105833D01*
X0169864Y0105583D01*
X0169809Y0105334D01*
X0169748Y0105086D01*
X0169680Y0104840D01*
X0169607Y0104595D01*
X0169527Y0104352D01*
X0169442Y0104112D01*
X0169351Y0103873D01*
X0169254Y0103637D01*
X0169151Y0103403D01*
X0169043Y0103172D01*
X0168929Y0102943D01*
X0168810Y0102718D01*
X0168685Y0102495D01*
X0168555Y0102275D01*
X0168419Y0102059D01*
X0168279Y0101846D01*
X0168133Y0101636D01*
X0167982Y0101430D01*
X0167826Y0101228D01*
X0167665Y0101029D01*
X0167500Y0100835D01*
X0167330Y0100645D01*
X0167155Y0100458D01*
X0166976Y0100277D01*
X0166792Y0100099D01*
X0166604Y0099926D01*
X0166412Y0099758D01*
X0166216Y0099594D01*
X0166016Y0099436D01*
X0165812Y0099282D01*
X0165605Y0099133D01*
X0165394Y0098989D01*
X0165179Y0098851D01*
X0164962Y0098717D01*
X0164741Y0098589D01*
X0164517Y0098467D01*
X0164290Y0098350D01*
X0164060Y0098238D01*
X0159089Y0118226D02*
X0158832Y0118211D01*
X0158575Y0118189D01*
X0158319Y0118161D01*
X0158064Y0118127D01*
X0157810Y0118086D01*
X0157557Y0118039D01*
X0157305Y0117986D01*
X0157054Y0117927D01*
X0156805Y0117862D01*
X0156558Y0117791D01*
X0156312Y0117714D01*
X0156068Y0117630D01*
X0155827Y0117541D01*
X0155588Y0117446D01*
X0155351Y0117345D01*
X0155117Y0117238D01*
D13*
X0156400Y0113389D02*
X0156400Y0112288D01*
X0156033Y0112288D02*
X0156767Y0112288D01*
X0156033Y0113022D02*
X0156400Y0113389D01*
X0136767Y0112288D02*
X0136033Y0112288D01*
X0136400Y0112288D02*
X0136400Y0113389D01*
X0136033Y0113022D01*
X0116767Y0112288D02*
X0116033Y0112288D01*
X0116400Y0112288D02*
X0116400Y0113389D01*
X0116033Y0113022D01*
X0096767Y0112288D02*
X0096033Y0112288D01*
X0096400Y0112288D02*
X0096400Y0113389D01*
X0096033Y0113022D01*
X0066767Y0112288D02*
X0066033Y0112288D01*
X0066400Y0112288D02*
X0066400Y0113389D01*
X0066033Y0113022D01*
X0046767Y0112288D02*
X0046033Y0112288D01*
X0046400Y0112288D02*
X0046400Y0113389D01*
X0046033Y0113022D01*
X0056400Y0093389D02*
X0056400Y0092288D01*
X0056033Y0092288D02*
X0056767Y0092288D01*
X0056033Y0093022D02*
X0056400Y0093389D01*
X0072394Y0063189D02*
X0072394Y0062088D01*
X0072027Y0062088D02*
X0072761Y0062088D01*
X0072027Y0062822D02*
X0072394Y0063189D01*
X0102027Y0062822D02*
X0102394Y0063189D01*
X0102394Y0062088D01*
X0102027Y0062088D02*
X0102761Y0062088D01*
X0122027Y0062088D02*
X0122761Y0062088D01*
X0122394Y0062088D02*
X0122394Y0063189D01*
X0122027Y0062822D01*
X0132394Y0043189D02*
X0132394Y0042088D01*
X0132027Y0042088D02*
X0132761Y0042088D01*
X0132027Y0042822D02*
X0132394Y0043189D01*
X0122394Y0023189D02*
X0122394Y0022088D01*
X0122027Y0022088D02*
X0122761Y0022088D01*
X0122027Y0022822D02*
X0122394Y0023189D01*
X0142027Y0022822D02*
X0142394Y0023189D01*
X0142394Y0022088D01*
X0142027Y0022088D02*
X0142761Y0022088D01*
X0162027Y0022088D02*
X0162761Y0022088D01*
X0162394Y0022088D02*
X0162394Y0023189D01*
X0162027Y0022822D01*
X0182027Y0022822D02*
X0182394Y0023189D01*
X0182394Y0022088D01*
X0182027Y0022088D02*
X0182761Y0022088D01*
X0172761Y0042088D02*
X0172027Y0042088D01*
X0172394Y0042088D02*
X0172394Y0043189D01*
X0172027Y0042822D01*
X0162761Y0062088D02*
X0162027Y0062088D01*
X0162394Y0062088D02*
X0162394Y0063189D01*
X0162027Y0062822D01*
X0146767Y0092288D02*
X0146033Y0092288D01*
X0146400Y0092288D02*
X0146400Y0093389D01*
X0146033Y0093022D01*
X0106767Y0092288D02*
X0106033Y0092288D01*
X0106400Y0092288D02*
X0106400Y0093389D01*
X0106033Y0093022D01*
X0082394Y0043189D02*
X0082394Y0042088D01*
X0082027Y0042088D02*
X0082761Y0042088D01*
X0082027Y0042822D02*
X0082394Y0043189D01*
X0072394Y0023189D02*
X0072394Y0022088D01*
X0072027Y0022088D02*
X0072761Y0022088D01*
X0072027Y0022822D02*
X0072394Y0023189D01*
X0092027Y0022822D02*
X0092394Y0023189D01*
X0092394Y0022088D01*
X0092027Y0022088D02*
X0092761Y0022088D01*
M02*
