%
M48
M72
T01C0.02362
T02C0.03150
T03C0.03543
%
T01
X12958Y4773
X12958Y7773
T02
X13958Y7773
X14958Y7773
X14958Y8773
X14958Y9773
X15958Y9773
X15958Y10773
X15958Y11773
X13958Y11773
X13958Y10773
X13958Y9773
X11958Y9773
X10958Y9773
X9958Y9773
X9958Y10773
X9958Y11773
X11958Y11773
X11958Y10773
X10958Y8773
X10958Y7773
X9958Y7773
X9958Y6773
X9958Y5773
X10958Y5773
X10958Y4773
X10958Y3773
X11958Y3773
X11958Y2773
X11958Y1773
X13958Y1773
X13958Y2773
X13958Y3773
X14958Y3773
X15958Y3773
X15958Y2773
X15958Y1773
X14958Y4773
X14958Y5773
X13958Y5773
X13958Y6773
X9958Y3773
X9958Y2773
X9958Y1773
X6958Y1773
X6958Y2773
X6958Y3773
X5958Y3773
X4958Y3773
X4958Y2773
X4958Y1773
X5958Y4773
X5958Y5773
X4958Y5773
X4958Y6773
X4958Y7773
X5958Y7773
X5958Y8773
X5958Y9773
X6958Y9773
X6958Y10773
X6958Y11773
X4958Y11773
X4958Y10773
X4958Y9773
X7958Y7773
X7958Y6773
X7958Y5773
T03
X3958Y1773
X3958Y4773
X3958Y6773
X5958Y6773
X7958Y8773
X10958Y6773
X11958Y6773
X8958Y4773
X15958Y6773
X3958Y11773
M30
