G75*
%MOIN*%
%OFA0B0*%
%FSLAX25Y25*%
%IPPOS*%
%LPD*%
%AMOC8*
5,1,8,0,0,1.08239X$1,22.5*
%
%ADD10C,0.00000*%
%ADD11C,0.07000*%
%ADD12OC8,0.05150*%
%ADD13C,0.05000*%
%ADD14R,0.03962X0.03962*%
D10*
X0029589Y0007738D02*
X0029589Y0127738D01*
X0169589Y0127738D01*
X0169589Y0007738D01*
X0029589Y0007738D01*
D11*
X0039589Y0017738D03*
X0039589Y0047738D03*
X0039589Y0067738D03*
X0059589Y0067738D03*
X0079589Y0087738D03*
X0109589Y0067738D03*
X0119589Y0067738D03*
X0089589Y0047738D03*
X0159589Y0067738D03*
X0039589Y0117738D03*
D12*
X0049589Y0117738D03*
X0049589Y0107738D03*
X0049589Y0097738D03*
X0059589Y0097738D03*
X0069589Y0097738D03*
X0069589Y0107738D03*
X0069589Y0117738D03*
X0099589Y0117738D03*
X0099589Y0107738D03*
X0099589Y0097738D03*
X0109589Y0097738D03*
X0119589Y0097738D03*
X0119589Y0107738D03*
X0119589Y0117738D03*
X0139589Y0117738D03*
X0139589Y0107738D03*
X0139589Y0097738D03*
X0149589Y0097738D03*
X0159589Y0097738D03*
X0159589Y0107738D03*
X0159589Y0117738D03*
X0149589Y0087738D03*
X0149589Y0077738D03*
X0139589Y0077738D03*
X0139589Y0067738D03*
X0139589Y0057738D03*
X0149589Y0057738D03*
X0149589Y0047738D03*
X0149589Y0037738D03*
X0159589Y0037738D03*
X0159589Y0027738D03*
X0159589Y0017738D03*
X0139589Y0017738D03*
X0139589Y0027738D03*
X0139589Y0037738D03*
X0119589Y0037738D03*
X0109589Y0037738D03*
X0099589Y0037738D03*
X0099589Y0027738D03*
X0099589Y0017738D03*
X0119589Y0017738D03*
X0119589Y0027738D03*
X0109589Y0047738D03*
X0109589Y0057738D03*
X0099589Y0057738D03*
X0099589Y0067738D03*
X0099589Y0077738D03*
X0109589Y0077738D03*
X0109589Y0087738D03*
X0079589Y0077738D03*
X0079589Y0067738D03*
X0079589Y0057738D03*
X0059589Y0057738D03*
X0049589Y0057738D03*
X0059589Y0047738D03*
X0059589Y0037738D03*
X0069589Y0037738D03*
X0069589Y0027738D03*
X0069589Y0017738D03*
X0049589Y0017738D03*
X0049589Y0027738D03*
X0049589Y0037738D03*
X0049589Y0067738D03*
X0049589Y0077738D03*
X0059589Y0077738D03*
X0059589Y0087738D03*
D13*
X0129589Y0077738D02*
X0129589Y0047738D01*
D14*
X0129589Y0047738D03*
X0129589Y0077738D03*
M02*
