G75*
%MOIN*%
%OFA0B0*%
%FSLAX25Y25*%
%IPPOS*%
%LPD*%
%AMOC8*
5,1,8,0,0,1.08239X$1,22.5*
%
%ADD10C,0.00472*%
%ADD11C,0.07000*%
%ADD12R,0.03937X0.05512*%
%ADD13R,0.05512X0.03937*%
D10*
X0001236Y0001236D02*
X0211236Y0001236D01*
X0211236Y0201236D01*
X0001236Y0201236D01*
X0001236Y0201236D01*
X0001236Y0001236D01*
D11*
X0057929Y0039031D03*
X0035094Y0060291D03*
X0054386Y0087850D03*
X0055173Y0131157D03*
X0073283Y0150055D03*
X0073283Y0171709D03*
X0182732Y0073677D03*
X0187457Y0054780D03*
X0168165Y0044937D03*
X0100449Y0039031D03*
D12*
X0082929Y0039819D03*
X0075449Y0039819D03*
X0079189Y0031157D03*
X0075646Y0080764D03*
X0079386Y0089425D03*
X0071906Y0089425D03*
X0095134Y0091787D03*
X0102614Y0091787D03*
X0098874Y0100449D03*
X0095921Y0118165D03*
X0103402Y0118165D03*
X0099661Y0126827D03*
X0080173Y0122102D03*
X0072693Y0122102D03*
X0076433Y0130764D03*
X0116787Y0151630D03*
X0124268Y0151630D03*
X0120528Y0160291D03*
X0140409Y0167378D03*
X0147890Y0167378D03*
X0144150Y0176039D03*
X0146512Y0150055D03*
X0150252Y0141394D03*
X0142772Y0141394D03*
X0164425Y0124071D03*
X0171906Y0124071D03*
X0168165Y0115409D03*
X0187654Y0115409D03*
X0195134Y0115409D03*
X0191394Y0124071D03*
X0173480Y0141394D03*
X0166000Y0141394D03*
X0169740Y0150055D03*
X0126630Y0116984D03*
X0119150Y0116984D03*
X0122890Y0108323D03*
X0144740Y0097693D03*
X0152220Y0097693D03*
X0148480Y0089031D03*
X0157732Y0071709D03*
X0165213Y0071709D03*
X0161472Y0063047D03*
D13*
X0141000Y0064622D03*
X0132339Y0060882D03*
X0132339Y0068362D03*
X0128008Y0084110D03*
X0128008Y0091591D03*
X0119346Y0087850D03*
X0094543Y0064031D03*
X0094543Y0056551D03*
X0085882Y0060291D03*
X0061866Y0056551D03*
X0061866Y0064031D03*
X0053205Y0060291D03*
X0055961Y0106157D03*
X0055961Y0113638D03*
X0047299Y0109898D03*
X0100055Y0164031D03*
X0100055Y0171512D03*
X0091394Y0167772D03*
X0164622Y0166787D03*
X0164622Y0174268D03*
X0173283Y0170528D03*
X0179189Y0098677D03*
X0179189Y0091197D03*
X0170528Y0094937D03*
M02*
