G75*
%MOIN*%
%OFA0B0*%
%FSLAX25Y25*%
%IPPOS*%
%LPD*%
%AMOC8*
5,1,8,0,0,1.08239X$1,22.5*
%
%ADD10C,0.07800*%
%ADD11R,0.06343X0.06343*%
%ADD12C,0.05950*%
%ADD13C,0.03900*%
D10*
X0034476Y0040337D03*
X0044476Y0040337D03*
X0044476Y0050337D03*
X0054476Y0040337D03*
X0044476Y0090337D03*
X0034476Y0090337D03*
X0034476Y0130337D03*
X0014476Y0130337D03*
X0054476Y0130337D03*
X0104476Y0120337D03*
X0114476Y0130337D03*
X0124476Y0120337D03*
X0124476Y0140337D03*
X0104476Y0080337D03*
X0104476Y0070337D03*
X0114476Y0070337D03*
X0124476Y0070337D03*
X0124476Y0030337D03*
X0114476Y0030337D03*
X0104476Y0030337D03*
D11*
X0024476Y0130337D03*
D12*
X0051901Y0120337D02*
X0057051Y0120337D01*
X0057051Y0110337D02*
X0051901Y0110337D01*
X0051901Y0100337D02*
X0057051Y0100337D01*
X0057051Y0090337D02*
X0051901Y0090337D01*
X0051901Y0080337D02*
X0057051Y0080337D01*
X0057051Y0070337D02*
X0051901Y0070337D01*
X0051901Y0060337D02*
X0057051Y0060337D01*
X0081901Y0060337D02*
X0087051Y0060337D01*
X0087051Y0070337D02*
X0081901Y0070337D01*
X0081901Y0080337D02*
X0087051Y0080337D01*
X0087051Y0090337D02*
X0081901Y0090337D01*
X0081901Y0100337D02*
X0087051Y0100337D01*
X0087051Y0110337D02*
X0081901Y0110337D01*
X0081901Y0120337D02*
X0087051Y0120337D01*
D13*
X0084476Y0050337D03*
X0104476Y0030337D03*
X0054476Y0050337D03*
M02*
