G75*
%MOIN*%
%OFA0B0*%
%FSLAX25Y25*%
%IPPOS*%
%LPD*%
%AMOC8*
5,1,8,0,0,1.08239X$1,22.5*
%
%ADD10C,0.07000*%
%ADD11R,0.05543X0.05543*%
%ADD12C,0.05150*%
%ADD13C,0.00300*%
%ADD14C,0.00200*%
%ADD15C,0.02400*%
%ADD16C,0.03100*%
D10*
X0014476Y0040337D03*
X0014476Y0050337D03*
X0034476Y0040337D03*
X0044476Y0040337D03*
X0044476Y0050337D03*
X0054476Y0040337D03*
X0044476Y0090337D03*
X0034476Y0090337D03*
X0014476Y0100337D03*
X0014476Y0110337D03*
X0014476Y0130337D03*
X0034476Y0130337D03*
X0054476Y0130337D03*
X0104476Y0120337D03*
X0114476Y0130337D03*
X0124476Y0120337D03*
X0124476Y0140337D03*
X0124476Y0090337D03*
X0124476Y0070337D03*
X0114476Y0070337D03*
X0104476Y0070337D03*
X0104476Y0080337D03*
X0104476Y0030337D03*
X0114476Y0030337D03*
X0124476Y0030337D03*
D11*
X0024476Y0130337D03*
D12*
X0051901Y0120337D02*
X0057051Y0120337D01*
X0057051Y0110337D02*
X0051901Y0110337D01*
X0051901Y0100337D02*
X0057051Y0100337D01*
X0057051Y0090337D02*
X0051901Y0090337D01*
X0051901Y0080337D02*
X0057051Y0080337D01*
X0057051Y0070337D02*
X0051901Y0070337D01*
X0051901Y0060337D02*
X0057051Y0060337D01*
X0081901Y0060337D02*
X0087051Y0060337D01*
X0087051Y0070337D02*
X0081901Y0070337D01*
X0081901Y0080337D02*
X0087051Y0080337D01*
X0087051Y0090337D02*
X0081901Y0090337D01*
X0081901Y0100337D02*
X0087051Y0100337D01*
X0087051Y0110337D02*
X0081901Y0110337D01*
X0081901Y0120337D02*
X0087051Y0120337D01*
D13*
X0008209Y0051880D02*
X0005740Y0051880D01*
X0006975Y0053114D02*
X0006975Y0050645D01*
X0006975Y0037614D02*
X0006975Y0035145D01*
D14*
X0007342Y0041122D02*
X0007342Y0042223D01*
X0006975Y0042590D01*
X0006241Y0042590D01*
X0005874Y0042223D01*
X0005874Y0041122D01*
X0008076Y0041122D01*
X0008076Y0043332D02*
X0005874Y0043332D01*
X0005874Y0044800D02*
X0008076Y0044800D01*
X0007342Y0044066D01*
X0008076Y0043332D01*
X0008076Y0045542D02*
X0005874Y0045542D01*
X0005874Y0046643D01*
X0006241Y0047010D01*
X0006975Y0047010D01*
X0007342Y0046643D01*
X0007342Y0045542D01*
X0007342Y0046276D02*
X0008076Y0047010D01*
D15*
X0014476Y0030337D02*
X0054476Y0030337D01*
X0054476Y0040337D01*
X0054476Y0030337D02*
X0074476Y0030337D01*
X0074476Y0090337D01*
X0084476Y0090337D01*
X0084476Y0100337D01*
X0084476Y0110337D01*
X0084476Y0090337D02*
X0104476Y0090337D01*
X0104476Y0120337D01*
X0104476Y0140337D01*
X0124476Y0140337D01*
X0114476Y0130337D02*
X0114476Y0080337D01*
X0104476Y0080337D01*
X0084476Y0080337D01*
X0084476Y0070337D02*
X0104476Y0070337D01*
X0114476Y0070337D01*
X0114476Y0060337D02*
X0114476Y0030337D01*
X0124476Y0030337D01*
X0104476Y0030337D02*
X0104476Y0050337D01*
X0084476Y0050337D01*
X0084476Y0060337D02*
X0114476Y0060337D01*
X0124476Y0070337D02*
X0124476Y0090337D01*
X0124476Y0120337D01*
X0104476Y0140337D02*
X0014476Y0140337D01*
X0014476Y0130337D01*
X0014476Y0110337D01*
X0014476Y0100337D02*
X0024476Y0100337D01*
X0024476Y0130337D01*
X0034476Y0130337D01*
X0034476Y0100337D01*
X0054476Y0100337D01*
X0054476Y0110337D02*
X0054476Y0120337D01*
X0054476Y0130337D01*
X0054476Y0090337D02*
X0034476Y0090337D01*
X0044476Y0090337D01*
X0014476Y0090337D01*
X0014476Y0050337D01*
X0014476Y0040337D02*
X0014476Y0030337D01*
X0034476Y0040337D02*
X0044476Y0040337D01*
X0044476Y0050337D01*
X0044476Y0080337D01*
X0054476Y0080337D01*
X0054476Y0070337D02*
X0054476Y0060337D01*
X0054476Y0050337D01*
D16*
X0054476Y0050337D03*
X0084476Y0050337D03*
X0104476Y0030337D03*
M02*
