G75*
%MOIN*%
%OFA0B0*%
%FSLAX25Y25*%
%IPPOS*%
%LPD*%
%AMOC8*
5,1,8,0,0,1.08239X$1,22.5*
%
%ADD10C,0.00600*%
%ADD11R,0.02000X0.10000*%
%ADD12C,0.00200*%
%ADD13C,0.00400*%
%ADD14C,0.00300*%
%ADD15R,0.04000X0.01000*%
%ADD16C,0.00160*%
%ADD17C,0.00100*%
%ADD18R,0.02000X0.01500*%
%ADD19C,0.01200*%
%ADD20R,0.01500X0.02000*%
%ADD21C,0.00800*%
%ADD22C,0.00500*%
D10*
X0041476Y0060337D02*
X0047476Y0060337D01*
X0047536Y0060339D01*
X0047597Y0060344D01*
X0047656Y0060353D01*
X0047715Y0060366D01*
X0047774Y0060382D01*
X0047831Y0060402D01*
X0047886Y0060425D01*
X0047941Y0060452D01*
X0047993Y0060481D01*
X0048044Y0060514D01*
X0048093Y0060550D01*
X0048139Y0060588D01*
X0048183Y0060630D01*
X0048225Y0060674D01*
X0048263Y0060720D01*
X0048299Y0060769D01*
X0048332Y0060820D01*
X0048361Y0060872D01*
X0048388Y0060927D01*
X0048411Y0060982D01*
X0048431Y0061039D01*
X0048447Y0061098D01*
X0048460Y0061157D01*
X0048469Y0061216D01*
X0048474Y0061277D01*
X0048476Y0061337D01*
X0048476Y0062837D01*
X0047976Y0063337D01*
X0047976Y0077337D01*
X0048476Y0077837D01*
X0048476Y0079337D01*
X0048474Y0079397D01*
X0048469Y0079458D01*
X0048460Y0079517D01*
X0048447Y0079576D01*
X0048431Y0079635D01*
X0048411Y0079692D01*
X0048388Y0079747D01*
X0048361Y0079802D01*
X0048332Y0079854D01*
X0048299Y0079905D01*
X0048263Y0079954D01*
X0048225Y0080000D01*
X0048183Y0080044D01*
X0048139Y0080086D01*
X0048093Y0080124D01*
X0048044Y0080160D01*
X0047993Y0080193D01*
X0047941Y0080222D01*
X0047886Y0080249D01*
X0047831Y0080272D01*
X0047774Y0080292D01*
X0047715Y0080308D01*
X0047656Y0080321D01*
X0047597Y0080330D01*
X0047536Y0080335D01*
X0047476Y0080337D01*
X0041476Y0080337D01*
X0041416Y0080335D01*
X0041355Y0080330D01*
X0041296Y0080321D01*
X0041237Y0080308D01*
X0041178Y0080292D01*
X0041121Y0080272D01*
X0041066Y0080249D01*
X0041011Y0080222D01*
X0040959Y0080193D01*
X0040908Y0080160D01*
X0040859Y0080124D01*
X0040813Y0080086D01*
X0040769Y0080044D01*
X0040727Y0080000D01*
X0040689Y0079954D01*
X0040653Y0079905D01*
X0040620Y0079854D01*
X0040591Y0079802D01*
X0040564Y0079747D01*
X0040541Y0079692D01*
X0040521Y0079635D01*
X0040505Y0079576D01*
X0040492Y0079517D01*
X0040483Y0079458D01*
X0040478Y0079397D01*
X0040476Y0079337D01*
X0040476Y0077837D01*
X0040976Y0077337D01*
X0040976Y0063337D01*
X0040476Y0062837D01*
X0040476Y0061337D01*
X0040478Y0061277D01*
X0040483Y0061216D01*
X0040492Y0061157D01*
X0040505Y0061098D01*
X0040521Y0061039D01*
X0040541Y0060982D01*
X0040564Y0060927D01*
X0040591Y0060872D01*
X0040620Y0060820D01*
X0040653Y0060769D01*
X0040689Y0060720D01*
X0040727Y0060674D01*
X0040769Y0060630D01*
X0040813Y0060588D01*
X0040859Y0060550D01*
X0040908Y0060514D01*
X0040959Y0060481D01*
X0041011Y0060452D01*
X0041066Y0060425D01*
X0041121Y0060402D01*
X0041178Y0060382D01*
X0041237Y0060366D01*
X0041296Y0060353D01*
X0041355Y0060344D01*
X0041416Y0060339D01*
X0041476Y0060337D01*
X0041416Y0060339D01*
X0041355Y0060344D01*
X0041296Y0060353D01*
X0041237Y0060366D01*
X0041178Y0060382D01*
X0041121Y0060402D01*
X0041066Y0060425D01*
X0041011Y0060452D01*
X0040959Y0060481D01*
X0040908Y0060514D01*
X0040859Y0060550D01*
X0040813Y0060588D01*
X0040769Y0060630D01*
X0040727Y0060674D01*
X0040689Y0060720D01*
X0040653Y0060769D01*
X0040620Y0060820D01*
X0040591Y0060872D01*
X0040564Y0060927D01*
X0040541Y0060982D01*
X0040521Y0061039D01*
X0040505Y0061098D01*
X0040492Y0061157D01*
X0040483Y0061216D01*
X0040478Y0061277D01*
X0040476Y0061337D01*
X0047476Y0060337D02*
X0047536Y0060339D01*
X0047597Y0060344D01*
X0047656Y0060353D01*
X0047715Y0060366D01*
X0047774Y0060382D01*
X0047831Y0060402D01*
X0047886Y0060425D01*
X0047941Y0060452D01*
X0047993Y0060481D01*
X0048044Y0060514D01*
X0048093Y0060550D01*
X0048139Y0060588D01*
X0048183Y0060630D01*
X0048225Y0060674D01*
X0048263Y0060720D01*
X0048299Y0060769D01*
X0048332Y0060820D01*
X0048361Y0060872D01*
X0048388Y0060927D01*
X0048411Y0060982D01*
X0048431Y0061039D01*
X0048447Y0061098D01*
X0048460Y0061157D01*
X0048469Y0061216D01*
X0048474Y0061277D01*
X0048476Y0061337D01*
X0057976Y0055337D02*
X0080976Y0055337D01*
X0080976Y0125337D01*
X0073476Y0125337D01*
X0075476Y0126337D02*
X0076976Y0126337D01*
X0077476Y0126837D01*
X0091476Y0126837D01*
X0091976Y0126337D01*
X0093476Y0126337D01*
X0093536Y0126339D01*
X0093597Y0126344D01*
X0093656Y0126353D01*
X0093715Y0126366D01*
X0093774Y0126382D01*
X0093831Y0126402D01*
X0093886Y0126425D01*
X0093941Y0126452D01*
X0093993Y0126481D01*
X0094044Y0126514D01*
X0094093Y0126550D01*
X0094139Y0126588D01*
X0094183Y0126630D01*
X0094225Y0126674D01*
X0094263Y0126720D01*
X0094299Y0126769D01*
X0094332Y0126820D01*
X0094361Y0126872D01*
X0094388Y0126927D01*
X0094411Y0126982D01*
X0094431Y0127039D01*
X0094447Y0127098D01*
X0094460Y0127157D01*
X0094469Y0127216D01*
X0094474Y0127277D01*
X0094476Y0127337D01*
X0094476Y0133337D01*
X0094474Y0133397D01*
X0094469Y0133458D01*
X0094460Y0133517D01*
X0094447Y0133576D01*
X0094431Y0133635D01*
X0094411Y0133692D01*
X0094388Y0133747D01*
X0094361Y0133802D01*
X0094332Y0133854D01*
X0094299Y0133905D01*
X0094263Y0133954D01*
X0094225Y0134000D01*
X0094183Y0134044D01*
X0094139Y0134086D01*
X0094093Y0134124D01*
X0094044Y0134160D01*
X0093993Y0134193D01*
X0093941Y0134222D01*
X0093886Y0134249D01*
X0093831Y0134272D01*
X0093774Y0134292D01*
X0093715Y0134308D01*
X0093656Y0134321D01*
X0093597Y0134330D01*
X0093536Y0134335D01*
X0093476Y0134337D01*
X0091976Y0134337D01*
X0091476Y0133837D01*
X0077476Y0133837D01*
X0076976Y0134337D01*
X0075476Y0134337D01*
X0075416Y0134335D01*
X0075355Y0134330D01*
X0075296Y0134321D01*
X0075237Y0134308D01*
X0075178Y0134292D01*
X0075121Y0134272D01*
X0075066Y0134249D01*
X0075011Y0134222D01*
X0074959Y0134193D01*
X0074908Y0134160D01*
X0074859Y0134124D01*
X0074813Y0134086D01*
X0074769Y0134044D01*
X0074727Y0134000D01*
X0074689Y0133954D01*
X0074653Y0133905D01*
X0074620Y0133854D01*
X0074591Y0133802D01*
X0074564Y0133747D01*
X0074541Y0133692D01*
X0074521Y0133635D01*
X0074505Y0133576D01*
X0074492Y0133517D01*
X0074483Y0133458D01*
X0074478Y0133397D01*
X0074476Y0133337D01*
X0074476Y0127337D01*
X0074478Y0127277D01*
X0074483Y0127216D01*
X0074492Y0127157D01*
X0074505Y0127098D01*
X0074521Y0127039D01*
X0074541Y0126982D01*
X0074564Y0126927D01*
X0074591Y0126872D01*
X0074620Y0126820D01*
X0074653Y0126769D01*
X0074689Y0126720D01*
X0074727Y0126674D01*
X0074769Y0126630D01*
X0074813Y0126588D01*
X0074859Y0126550D01*
X0074908Y0126514D01*
X0074959Y0126481D01*
X0075011Y0126452D01*
X0075066Y0126425D01*
X0075121Y0126402D01*
X0075178Y0126382D01*
X0075237Y0126366D01*
X0075296Y0126353D01*
X0075355Y0126344D01*
X0075416Y0126339D01*
X0075476Y0126337D01*
X0075416Y0126339D01*
X0075355Y0126344D01*
X0075296Y0126353D01*
X0075237Y0126366D01*
X0075178Y0126382D01*
X0075121Y0126402D01*
X0075066Y0126425D01*
X0075011Y0126452D01*
X0074959Y0126481D01*
X0074908Y0126514D01*
X0074859Y0126550D01*
X0074813Y0126588D01*
X0074769Y0126630D01*
X0074727Y0126674D01*
X0074689Y0126720D01*
X0074653Y0126769D01*
X0074620Y0126820D01*
X0074591Y0126872D01*
X0074564Y0126927D01*
X0074541Y0126982D01*
X0074521Y0127039D01*
X0074505Y0127098D01*
X0074492Y0127157D01*
X0074483Y0127216D01*
X0074478Y0127277D01*
X0074476Y0127337D01*
X0073476Y0125337D02*
X0073474Y0125211D01*
X0073468Y0125086D01*
X0073458Y0124961D01*
X0073444Y0124836D01*
X0073427Y0124711D01*
X0073405Y0124587D01*
X0073380Y0124464D01*
X0073350Y0124342D01*
X0073317Y0124221D01*
X0073280Y0124101D01*
X0073240Y0123982D01*
X0073195Y0123865D01*
X0073147Y0123748D01*
X0073095Y0123634D01*
X0073040Y0123521D01*
X0072981Y0123410D01*
X0072919Y0123301D01*
X0072853Y0123194D01*
X0072784Y0123089D01*
X0072712Y0122986D01*
X0072637Y0122885D01*
X0072558Y0122787D01*
X0072476Y0122692D01*
X0072392Y0122599D01*
X0072304Y0122509D01*
X0072214Y0122421D01*
X0072121Y0122337D01*
X0072026Y0122255D01*
X0071928Y0122176D01*
X0071827Y0122101D01*
X0071724Y0122029D01*
X0071619Y0121960D01*
X0071512Y0121894D01*
X0071403Y0121832D01*
X0071292Y0121773D01*
X0071179Y0121718D01*
X0071065Y0121666D01*
X0070948Y0121618D01*
X0070831Y0121573D01*
X0070712Y0121533D01*
X0070592Y0121496D01*
X0070471Y0121463D01*
X0070349Y0121433D01*
X0070226Y0121408D01*
X0070102Y0121386D01*
X0069977Y0121369D01*
X0069852Y0121355D01*
X0069727Y0121345D01*
X0069602Y0121339D01*
X0069476Y0121337D01*
X0069350Y0121339D01*
X0069225Y0121345D01*
X0069100Y0121355D01*
X0068975Y0121369D01*
X0068850Y0121386D01*
X0068726Y0121408D01*
X0068603Y0121433D01*
X0068481Y0121463D01*
X0068360Y0121496D01*
X0068240Y0121533D01*
X0068121Y0121573D01*
X0068004Y0121618D01*
X0067887Y0121666D01*
X0067773Y0121718D01*
X0067660Y0121773D01*
X0067549Y0121832D01*
X0067440Y0121894D01*
X0067333Y0121960D01*
X0067228Y0122029D01*
X0067125Y0122101D01*
X0067024Y0122176D01*
X0066926Y0122255D01*
X0066831Y0122337D01*
X0066738Y0122421D01*
X0066648Y0122509D01*
X0066560Y0122599D01*
X0066476Y0122692D01*
X0066394Y0122787D01*
X0066315Y0122885D01*
X0066240Y0122986D01*
X0066168Y0123089D01*
X0066099Y0123194D01*
X0066033Y0123301D01*
X0065971Y0123410D01*
X0065912Y0123521D01*
X0065857Y0123634D01*
X0065805Y0123748D01*
X0065757Y0123865D01*
X0065712Y0123982D01*
X0065672Y0124101D01*
X0065635Y0124221D01*
X0065602Y0124342D01*
X0065572Y0124464D01*
X0065547Y0124587D01*
X0065525Y0124711D01*
X0065508Y0124836D01*
X0065494Y0124961D01*
X0065484Y0125086D01*
X0065478Y0125211D01*
X0065476Y0125337D01*
X0057976Y0125337D01*
X0057976Y0055337D01*
X0048476Y0079337D02*
X0048474Y0079397D01*
X0048469Y0079458D01*
X0048460Y0079517D01*
X0048447Y0079576D01*
X0048431Y0079635D01*
X0048411Y0079692D01*
X0048388Y0079747D01*
X0048361Y0079802D01*
X0048332Y0079854D01*
X0048299Y0079905D01*
X0048263Y0079954D01*
X0048225Y0080000D01*
X0048183Y0080044D01*
X0048139Y0080086D01*
X0048093Y0080124D01*
X0048044Y0080160D01*
X0047993Y0080193D01*
X0047941Y0080222D01*
X0047886Y0080249D01*
X0047831Y0080272D01*
X0047774Y0080292D01*
X0047715Y0080308D01*
X0047656Y0080321D01*
X0047597Y0080330D01*
X0047536Y0080335D01*
X0047476Y0080337D01*
X0041476Y0080337D02*
X0041416Y0080335D01*
X0041355Y0080330D01*
X0041296Y0080321D01*
X0041237Y0080308D01*
X0041178Y0080292D01*
X0041121Y0080272D01*
X0041066Y0080249D01*
X0041011Y0080222D01*
X0040959Y0080193D01*
X0040908Y0080160D01*
X0040859Y0080124D01*
X0040813Y0080086D01*
X0040769Y0080044D01*
X0040727Y0080000D01*
X0040689Y0079954D01*
X0040653Y0079905D01*
X0040620Y0079854D01*
X0040591Y0079802D01*
X0040564Y0079747D01*
X0040541Y0079692D01*
X0040521Y0079635D01*
X0040505Y0079576D01*
X0040492Y0079517D01*
X0040483Y0079458D01*
X0040478Y0079397D01*
X0040476Y0079337D01*
X0037476Y0100337D02*
X0031476Y0100337D01*
X0031416Y0100339D01*
X0031355Y0100344D01*
X0031296Y0100353D01*
X0031237Y0100366D01*
X0031178Y0100382D01*
X0031121Y0100402D01*
X0031066Y0100425D01*
X0031011Y0100452D01*
X0030959Y0100481D01*
X0030908Y0100514D01*
X0030859Y0100550D01*
X0030813Y0100588D01*
X0030769Y0100630D01*
X0030727Y0100674D01*
X0030689Y0100720D01*
X0030653Y0100769D01*
X0030620Y0100820D01*
X0030591Y0100872D01*
X0030564Y0100927D01*
X0030541Y0100982D01*
X0030521Y0101039D01*
X0030505Y0101098D01*
X0030492Y0101157D01*
X0030483Y0101216D01*
X0030478Y0101277D01*
X0030476Y0101337D01*
X0030476Y0102837D01*
X0030976Y0103337D01*
X0030976Y0117337D01*
X0030476Y0117837D01*
X0030476Y0119337D01*
X0030478Y0119397D01*
X0030483Y0119458D01*
X0030492Y0119517D01*
X0030505Y0119576D01*
X0030521Y0119635D01*
X0030541Y0119692D01*
X0030564Y0119747D01*
X0030591Y0119802D01*
X0030620Y0119854D01*
X0030653Y0119905D01*
X0030689Y0119954D01*
X0030727Y0120000D01*
X0030769Y0120044D01*
X0030813Y0120086D01*
X0030859Y0120124D01*
X0030908Y0120160D01*
X0030959Y0120193D01*
X0031011Y0120222D01*
X0031066Y0120249D01*
X0031121Y0120272D01*
X0031178Y0120292D01*
X0031237Y0120308D01*
X0031296Y0120321D01*
X0031355Y0120330D01*
X0031416Y0120335D01*
X0031476Y0120337D01*
X0037476Y0120337D01*
X0037536Y0120335D01*
X0037597Y0120330D01*
X0037656Y0120321D01*
X0037715Y0120308D01*
X0037774Y0120292D01*
X0037831Y0120272D01*
X0037886Y0120249D01*
X0037941Y0120222D01*
X0037993Y0120193D01*
X0038044Y0120160D01*
X0038093Y0120124D01*
X0038139Y0120086D01*
X0038183Y0120044D01*
X0038225Y0120000D01*
X0038263Y0119954D01*
X0038299Y0119905D01*
X0038332Y0119854D01*
X0038361Y0119802D01*
X0038388Y0119747D01*
X0038411Y0119692D01*
X0038431Y0119635D01*
X0038447Y0119576D01*
X0038460Y0119517D01*
X0038469Y0119458D01*
X0038474Y0119397D01*
X0038476Y0119337D01*
X0038476Y0117837D01*
X0037976Y0117337D01*
X0037976Y0103337D01*
X0038476Y0102837D01*
X0038476Y0101337D01*
X0038474Y0101277D01*
X0038469Y0101216D01*
X0038460Y0101157D01*
X0038447Y0101098D01*
X0038431Y0101039D01*
X0038411Y0100982D01*
X0038388Y0100927D01*
X0038361Y0100872D01*
X0038332Y0100820D01*
X0038299Y0100769D01*
X0038263Y0100720D01*
X0038225Y0100674D01*
X0038183Y0100630D01*
X0038139Y0100588D01*
X0038093Y0100550D01*
X0038044Y0100514D01*
X0037993Y0100481D01*
X0037941Y0100452D01*
X0037886Y0100425D01*
X0037831Y0100402D01*
X0037774Y0100382D01*
X0037715Y0100366D01*
X0037656Y0100353D01*
X0037597Y0100344D01*
X0037536Y0100339D01*
X0037476Y0100337D01*
X0037536Y0100339D01*
X0037597Y0100344D01*
X0037656Y0100353D01*
X0037715Y0100366D01*
X0037774Y0100382D01*
X0037831Y0100402D01*
X0037886Y0100425D01*
X0037941Y0100452D01*
X0037993Y0100481D01*
X0038044Y0100514D01*
X0038093Y0100550D01*
X0038139Y0100588D01*
X0038183Y0100630D01*
X0038225Y0100674D01*
X0038263Y0100720D01*
X0038299Y0100769D01*
X0038332Y0100820D01*
X0038361Y0100872D01*
X0038388Y0100927D01*
X0038411Y0100982D01*
X0038431Y0101039D01*
X0038447Y0101098D01*
X0038460Y0101157D01*
X0038469Y0101216D01*
X0038474Y0101277D01*
X0038476Y0101337D01*
X0031476Y0100337D02*
X0031416Y0100339D01*
X0031355Y0100344D01*
X0031296Y0100353D01*
X0031237Y0100366D01*
X0031178Y0100382D01*
X0031121Y0100402D01*
X0031066Y0100425D01*
X0031011Y0100452D01*
X0030959Y0100481D01*
X0030908Y0100514D01*
X0030859Y0100550D01*
X0030813Y0100588D01*
X0030769Y0100630D01*
X0030727Y0100674D01*
X0030689Y0100720D01*
X0030653Y0100769D01*
X0030620Y0100820D01*
X0030591Y0100872D01*
X0030564Y0100927D01*
X0030541Y0100982D01*
X0030521Y0101039D01*
X0030505Y0101098D01*
X0030492Y0101157D01*
X0030483Y0101216D01*
X0030478Y0101277D01*
X0030476Y0101337D01*
X0030476Y0119337D02*
X0030478Y0119397D01*
X0030483Y0119458D01*
X0030492Y0119517D01*
X0030505Y0119576D01*
X0030521Y0119635D01*
X0030541Y0119692D01*
X0030564Y0119747D01*
X0030591Y0119802D01*
X0030620Y0119854D01*
X0030653Y0119905D01*
X0030689Y0119954D01*
X0030727Y0120000D01*
X0030769Y0120044D01*
X0030813Y0120086D01*
X0030859Y0120124D01*
X0030908Y0120160D01*
X0030959Y0120193D01*
X0031011Y0120222D01*
X0031066Y0120249D01*
X0031121Y0120272D01*
X0031178Y0120292D01*
X0031237Y0120308D01*
X0031296Y0120321D01*
X0031355Y0120330D01*
X0031416Y0120335D01*
X0031476Y0120337D01*
X0037476Y0120337D02*
X0037536Y0120335D01*
X0037597Y0120330D01*
X0037656Y0120321D01*
X0037715Y0120308D01*
X0037774Y0120292D01*
X0037831Y0120272D01*
X0037886Y0120249D01*
X0037941Y0120222D01*
X0037993Y0120193D01*
X0038044Y0120160D01*
X0038093Y0120124D01*
X0038139Y0120086D01*
X0038183Y0120044D01*
X0038225Y0120000D01*
X0038263Y0119954D01*
X0038299Y0119905D01*
X0038332Y0119854D01*
X0038361Y0119802D01*
X0038388Y0119747D01*
X0038411Y0119692D01*
X0038431Y0119635D01*
X0038447Y0119576D01*
X0038460Y0119517D01*
X0038469Y0119458D01*
X0038474Y0119397D01*
X0038476Y0119337D01*
X0025976Y0125337D02*
X0024976Y0125337D01*
X0024976Y0124337D01*
X0024976Y0125337D02*
X0023976Y0125337D01*
X0024976Y0125337D02*
X0024976Y0126337D01*
X0022476Y0125337D02*
X0022476Y0130337D01*
X0022476Y0135337D01*
X0020476Y0135337D01*
X0020476Y0125337D01*
X0022476Y0125337D01*
X0022476Y0130337D02*
X0025976Y0130337D01*
X0009476Y0130337D02*
X0009479Y0130582D01*
X0009488Y0130828D01*
X0009503Y0131073D01*
X0009524Y0131317D01*
X0009551Y0131561D01*
X0009584Y0131804D01*
X0009623Y0132047D01*
X0009668Y0132288D01*
X0009719Y0132528D01*
X0009776Y0132767D01*
X0009838Y0133004D01*
X0009907Y0133240D01*
X0009981Y0133474D01*
X0010061Y0133706D01*
X0010146Y0133936D01*
X0010237Y0134164D01*
X0010334Y0134389D01*
X0010436Y0134613D01*
X0010544Y0134833D01*
X0010657Y0135051D01*
X0010775Y0135266D01*
X0010899Y0135478D01*
X0011027Y0135687D01*
X0011161Y0135893D01*
X0011300Y0136095D01*
X0011444Y0136294D01*
X0011593Y0136489D01*
X0011746Y0136681D01*
X0011904Y0136869D01*
X0012066Y0137053D01*
X0012234Y0137232D01*
X0012405Y0137408D01*
X0012581Y0137579D01*
X0012760Y0137747D01*
X0012944Y0137909D01*
X0013132Y0138067D01*
X0013324Y0138220D01*
X0013519Y0138369D01*
X0013718Y0138513D01*
X0013920Y0138652D01*
X0014126Y0138786D01*
X0014335Y0138914D01*
X0014547Y0139038D01*
X0014762Y0139156D01*
X0014980Y0139269D01*
X0015200Y0139377D01*
X0015424Y0139479D01*
X0015649Y0139576D01*
X0015877Y0139667D01*
X0016107Y0139752D01*
X0016339Y0139832D01*
X0016573Y0139906D01*
X0016809Y0139975D01*
X0017046Y0140037D01*
X0017285Y0140094D01*
X0017525Y0140145D01*
X0017766Y0140190D01*
X0018009Y0140229D01*
X0018252Y0140262D01*
X0018496Y0140289D01*
X0018740Y0140310D01*
X0018985Y0140325D01*
X0019231Y0140334D01*
X0019476Y0140337D01*
X0019721Y0140334D01*
X0019967Y0140325D01*
X0020212Y0140310D01*
X0020456Y0140289D01*
X0020700Y0140262D01*
X0020943Y0140229D01*
X0021186Y0140190D01*
X0021427Y0140145D01*
X0021667Y0140094D01*
X0021906Y0140037D01*
X0022143Y0139975D01*
X0022379Y0139906D01*
X0022613Y0139832D01*
X0022845Y0139752D01*
X0023075Y0139667D01*
X0023303Y0139576D01*
X0023528Y0139479D01*
X0023752Y0139377D01*
X0023972Y0139269D01*
X0024190Y0139156D01*
X0024405Y0139038D01*
X0024617Y0138914D01*
X0024826Y0138786D01*
X0025032Y0138652D01*
X0025234Y0138513D01*
X0025433Y0138369D01*
X0025628Y0138220D01*
X0025820Y0138067D01*
X0026008Y0137909D01*
X0026192Y0137747D01*
X0026371Y0137579D01*
X0026547Y0137408D01*
X0026718Y0137232D01*
X0026886Y0137053D01*
X0027048Y0136869D01*
X0027206Y0136681D01*
X0027359Y0136489D01*
X0027508Y0136294D01*
X0027652Y0136095D01*
X0027791Y0135893D01*
X0027925Y0135687D01*
X0028053Y0135478D01*
X0028177Y0135266D01*
X0028295Y0135051D01*
X0028408Y0134833D01*
X0028516Y0134613D01*
X0028618Y0134389D01*
X0028715Y0134164D01*
X0028806Y0133936D01*
X0028891Y0133706D01*
X0028971Y0133474D01*
X0029045Y0133240D01*
X0029114Y0133004D01*
X0029176Y0132767D01*
X0029233Y0132528D01*
X0029284Y0132288D01*
X0029329Y0132047D01*
X0029368Y0131804D01*
X0029401Y0131561D01*
X0029428Y0131317D01*
X0029449Y0131073D01*
X0029464Y0130828D01*
X0029473Y0130582D01*
X0029476Y0130337D01*
X0029473Y0130092D01*
X0029464Y0129846D01*
X0029449Y0129601D01*
X0029428Y0129357D01*
X0029401Y0129113D01*
X0029368Y0128870D01*
X0029329Y0128627D01*
X0029284Y0128386D01*
X0029233Y0128146D01*
X0029176Y0127907D01*
X0029114Y0127670D01*
X0029045Y0127434D01*
X0028971Y0127200D01*
X0028891Y0126968D01*
X0028806Y0126738D01*
X0028715Y0126510D01*
X0028618Y0126285D01*
X0028516Y0126061D01*
X0028408Y0125841D01*
X0028295Y0125623D01*
X0028177Y0125408D01*
X0028053Y0125196D01*
X0027925Y0124987D01*
X0027791Y0124781D01*
X0027652Y0124579D01*
X0027508Y0124380D01*
X0027359Y0124185D01*
X0027206Y0123993D01*
X0027048Y0123805D01*
X0026886Y0123621D01*
X0026718Y0123442D01*
X0026547Y0123266D01*
X0026371Y0123095D01*
X0026192Y0122927D01*
X0026008Y0122765D01*
X0025820Y0122607D01*
X0025628Y0122454D01*
X0025433Y0122305D01*
X0025234Y0122161D01*
X0025032Y0122022D01*
X0024826Y0121888D01*
X0024617Y0121760D01*
X0024405Y0121636D01*
X0024190Y0121518D01*
X0023972Y0121405D01*
X0023752Y0121297D01*
X0023528Y0121195D01*
X0023303Y0121098D01*
X0023075Y0121007D01*
X0022845Y0120922D01*
X0022613Y0120842D01*
X0022379Y0120768D01*
X0022143Y0120699D01*
X0021906Y0120637D01*
X0021667Y0120580D01*
X0021427Y0120529D01*
X0021186Y0120484D01*
X0020943Y0120445D01*
X0020700Y0120412D01*
X0020456Y0120385D01*
X0020212Y0120364D01*
X0019967Y0120349D01*
X0019721Y0120340D01*
X0019476Y0120337D01*
X0019231Y0120340D01*
X0018985Y0120349D01*
X0018740Y0120364D01*
X0018496Y0120385D01*
X0018252Y0120412D01*
X0018009Y0120445D01*
X0017766Y0120484D01*
X0017525Y0120529D01*
X0017285Y0120580D01*
X0017046Y0120637D01*
X0016809Y0120699D01*
X0016573Y0120768D01*
X0016339Y0120842D01*
X0016107Y0120922D01*
X0015877Y0121007D01*
X0015649Y0121098D01*
X0015424Y0121195D01*
X0015200Y0121297D01*
X0014980Y0121405D01*
X0014762Y0121518D01*
X0014547Y0121636D01*
X0014335Y0121760D01*
X0014126Y0121888D01*
X0013920Y0122022D01*
X0013718Y0122161D01*
X0013519Y0122305D01*
X0013324Y0122454D01*
X0013132Y0122607D01*
X0012944Y0122765D01*
X0012760Y0122927D01*
X0012581Y0123095D01*
X0012405Y0123266D01*
X0012234Y0123442D01*
X0012066Y0123621D01*
X0011904Y0123805D01*
X0011746Y0123993D01*
X0011593Y0124185D01*
X0011444Y0124380D01*
X0011300Y0124579D01*
X0011161Y0124781D01*
X0011027Y0124987D01*
X0010899Y0125196D01*
X0010775Y0125408D01*
X0010657Y0125623D01*
X0010544Y0125841D01*
X0010436Y0126061D01*
X0010334Y0126285D01*
X0010237Y0126510D01*
X0010146Y0126738D01*
X0010061Y0126968D01*
X0009981Y0127200D01*
X0009907Y0127434D01*
X0009838Y0127670D01*
X0009776Y0127907D01*
X0009719Y0128146D01*
X0009668Y0128386D01*
X0009623Y0128627D01*
X0009584Y0128870D01*
X0009551Y0129113D01*
X0009524Y0129357D01*
X0009503Y0129601D01*
X0009488Y0129846D01*
X0009479Y0130092D01*
X0009476Y0130337D01*
X0012976Y0130337D02*
X0016976Y0130337D01*
X0074476Y0133337D02*
X0074478Y0133397D01*
X0074483Y0133458D01*
X0074492Y0133517D01*
X0074505Y0133576D01*
X0074521Y0133635D01*
X0074541Y0133692D01*
X0074564Y0133747D01*
X0074591Y0133802D01*
X0074620Y0133854D01*
X0074653Y0133905D01*
X0074689Y0133954D01*
X0074727Y0134000D01*
X0074769Y0134044D01*
X0074813Y0134086D01*
X0074859Y0134124D01*
X0074908Y0134160D01*
X0074959Y0134193D01*
X0075011Y0134222D01*
X0075066Y0134249D01*
X0075121Y0134272D01*
X0075178Y0134292D01*
X0075237Y0134308D01*
X0075296Y0134321D01*
X0075355Y0134330D01*
X0075416Y0134335D01*
X0075476Y0134337D01*
X0093476Y0134337D02*
X0093536Y0134335D01*
X0093597Y0134330D01*
X0093656Y0134321D01*
X0093715Y0134308D01*
X0093774Y0134292D01*
X0093831Y0134272D01*
X0093886Y0134249D01*
X0093941Y0134222D01*
X0093993Y0134193D01*
X0094044Y0134160D01*
X0094093Y0134124D01*
X0094139Y0134086D01*
X0094183Y0134044D01*
X0094225Y0134000D01*
X0094263Y0133954D01*
X0094299Y0133905D01*
X0094332Y0133854D01*
X0094361Y0133802D01*
X0094388Y0133747D01*
X0094411Y0133692D01*
X0094431Y0133635D01*
X0094447Y0133576D01*
X0094460Y0133517D01*
X0094469Y0133458D01*
X0094474Y0133397D01*
X0094476Y0133337D01*
X0094476Y0127337D02*
X0094474Y0127277D01*
X0094469Y0127216D01*
X0094460Y0127157D01*
X0094447Y0127098D01*
X0094431Y0127039D01*
X0094411Y0126982D01*
X0094388Y0126927D01*
X0094361Y0126872D01*
X0094332Y0126820D01*
X0094299Y0126769D01*
X0094263Y0126720D01*
X0094225Y0126674D01*
X0094183Y0126630D01*
X0094139Y0126588D01*
X0094093Y0126550D01*
X0094044Y0126514D01*
X0093993Y0126481D01*
X0093941Y0126452D01*
X0093886Y0126425D01*
X0093831Y0126402D01*
X0093774Y0126382D01*
X0093715Y0126366D01*
X0093656Y0126353D01*
X0093597Y0126344D01*
X0093536Y0126339D01*
X0093476Y0126337D01*
X0101476Y0110337D02*
X0107476Y0110337D01*
X0107536Y0110335D01*
X0107597Y0110330D01*
X0107656Y0110321D01*
X0107715Y0110308D01*
X0107774Y0110292D01*
X0107831Y0110272D01*
X0107886Y0110249D01*
X0107941Y0110222D01*
X0107993Y0110193D01*
X0108044Y0110160D01*
X0108093Y0110124D01*
X0108139Y0110086D01*
X0108183Y0110044D01*
X0108225Y0110000D01*
X0108263Y0109954D01*
X0108299Y0109905D01*
X0108332Y0109854D01*
X0108361Y0109802D01*
X0108388Y0109747D01*
X0108411Y0109692D01*
X0108431Y0109635D01*
X0108447Y0109576D01*
X0108460Y0109517D01*
X0108469Y0109458D01*
X0108474Y0109397D01*
X0108476Y0109337D01*
X0108476Y0107837D01*
X0107976Y0107337D01*
X0107976Y0093337D01*
X0108476Y0092837D01*
X0108476Y0091337D01*
X0108474Y0091277D01*
X0108469Y0091216D01*
X0108460Y0091157D01*
X0108447Y0091098D01*
X0108431Y0091039D01*
X0108411Y0090982D01*
X0108388Y0090927D01*
X0108361Y0090872D01*
X0108332Y0090820D01*
X0108299Y0090769D01*
X0108263Y0090720D01*
X0108225Y0090674D01*
X0108183Y0090630D01*
X0108139Y0090588D01*
X0108093Y0090550D01*
X0108044Y0090514D01*
X0107993Y0090481D01*
X0107941Y0090452D01*
X0107886Y0090425D01*
X0107831Y0090402D01*
X0107774Y0090382D01*
X0107715Y0090366D01*
X0107656Y0090353D01*
X0107597Y0090344D01*
X0107536Y0090339D01*
X0107476Y0090337D01*
X0101476Y0090337D01*
X0101416Y0090339D01*
X0101355Y0090344D01*
X0101296Y0090353D01*
X0101237Y0090366D01*
X0101178Y0090382D01*
X0101121Y0090402D01*
X0101066Y0090425D01*
X0101011Y0090452D01*
X0100959Y0090481D01*
X0100908Y0090514D01*
X0100859Y0090550D01*
X0100813Y0090588D01*
X0100769Y0090630D01*
X0100727Y0090674D01*
X0100689Y0090720D01*
X0100653Y0090769D01*
X0100620Y0090820D01*
X0100591Y0090872D01*
X0100564Y0090927D01*
X0100541Y0090982D01*
X0100521Y0091039D01*
X0100505Y0091098D01*
X0100492Y0091157D01*
X0100483Y0091216D01*
X0100478Y0091277D01*
X0100476Y0091337D01*
X0100476Y0092837D01*
X0100976Y0093337D01*
X0100976Y0107337D01*
X0100476Y0107837D01*
X0100476Y0109337D01*
X0100478Y0109397D01*
X0100483Y0109458D01*
X0100492Y0109517D01*
X0100505Y0109576D01*
X0100521Y0109635D01*
X0100541Y0109692D01*
X0100564Y0109747D01*
X0100591Y0109802D01*
X0100620Y0109854D01*
X0100653Y0109905D01*
X0100689Y0109954D01*
X0100727Y0110000D01*
X0100769Y0110044D01*
X0100813Y0110086D01*
X0100859Y0110124D01*
X0100908Y0110160D01*
X0100959Y0110193D01*
X0101011Y0110222D01*
X0101066Y0110249D01*
X0101121Y0110272D01*
X0101178Y0110292D01*
X0101237Y0110308D01*
X0101296Y0110321D01*
X0101355Y0110330D01*
X0101416Y0110335D01*
X0101476Y0110337D01*
X0101416Y0110335D01*
X0101355Y0110330D01*
X0101296Y0110321D01*
X0101237Y0110308D01*
X0101178Y0110292D01*
X0101121Y0110272D01*
X0101066Y0110249D01*
X0101011Y0110222D01*
X0100959Y0110193D01*
X0100908Y0110160D01*
X0100859Y0110124D01*
X0100813Y0110086D01*
X0100769Y0110044D01*
X0100727Y0110000D01*
X0100689Y0109954D01*
X0100653Y0109905D01*
X0100620Y0109854D01*
X0100591Y0109802D01*
X0100564Y0109747D01*
X0100541Y0109692D01*
X0100521Y0109635D01*
X0100505Y0109576D01*
X0100492Y0109517D01*
X0100483Y0109458D01*
X0100478Y0109397D01*
X0100476Y0109337D01*
X0107476Y0110337D02*
X0107536Y0110335D01*
X0107597Y0110330D01*
X0107656Y0110321D01*
X0107715Y0110308D01*
X0107774Y0110292D01*
X0107831Y0110272D01*
X0107886Y0110249D01*
X0107941Y0110222D01*
X0107993Y0110193D01*
X0108044Y0110160D01*
X0108093Y0110124D01*
X0108139Y0110086D01*
X0108183Y0110044D01*
X0108225Y0110000D01*
X0108263Y0109954D01*
X0108299Y0109905D01*
X0108332Y0109854D01*
X0108361Y0109802D01*
X0108388Y0109747D01*
X0108411Y0109692D01*
X0108431Y0109635D01*
X0108447Y0109576D01*
X0108460Y0109517D01*
X0108469Y0109458D01*
X0108474Y0109397D01*
X0108476Y0109337D01*
X0108476Y0091337D02*
X0108474Y0091277D01*
X0108469Y0091216D01*
X0108460Y0091157D01*
X0108447Y0091098D01*
X0108431Y0091039D01*
X0108411Y0090982D01*
X0108388Y0090927D01*
X0108361Y0090872D01*
X0108332Y0090820D01*
X0108299Y0090769D01*
X0108263Y0090720D01*
X0108225Y0090674D01*
X0108183Y0090630D01*
X0108139Y0090588D01*
X0108093Y0090550D01*
X0108044Y0090514D01*
X0107993Y0090481D01*
X0107941Y0090452D01*
X0107886Y0090425D01*
X0107831Y0090402D01*
X0107774Y0090382D01*
X0107715Y0090366D01*
X0107656Y0090353D01*
X0107597Y0090344D01*
X0107536Y0090339D01*
X0107476Y0090337D01*
X0101476Y0090337D02*
X0101416Y0090339D01*
X0101355Y0090344D01*
X0101296Y0090353D01*
X0101237Y0090366D01*
X0101178Y0090382D01*
X0101121Y0090402D01*
X0101066Y0090425D01*
X0101011Y0090452D01*
X0100959Y0090481D01*
X0100908Y0090514D01*
X0100859Y0090550D01*
X0100813Y0090588D01*
X0100769Y0090630D01*
X0100727Y0090674D01*
X0100689Y0090720D01*
X0100653Y0090769D01*
X0100620Y0090820D01*
X0100591Y0090872D01*
X0100564Y0090927D01*
X0100541Y0090982D01*
X0100521Y0091039D01*
X0100505Y0091098D01*
X0100492Y0091157D01*
X0100483Y0091216D01*
X0100478Y0091277D01*
X0100476Y0091337D01*
X0101476Y0060337D02*
X0107476Y0060337D01*
X0107536Y0060335D01*
X0107597Y0060330D01*
X0107656Y0060321D01*
X0107715Y0060308D01*
X0107774Y0060292D01*
X0107831Y0060272D01*
X0107886Y0060249D01*
X0107941Y0060222D01*
X0107993Y0060193D01*
X0108044Y0060160D01*
X0108093Y0060124D01*
X0108139Y0060086D01*
X0108183Y0060044D01*
X0108225Y0060000D01*
X0108263Y0059954D01*
X0108299Y0059905D01*
X0108332Y0059854D01*
X0108361Y0059802D01*
X0108388Y0059747D01*
X0108411Y0059692D01*
X0108431Y0059635D01*
X0108447Y0059576D01*
X0108460Y0059517D01*
X0108469Y0059458D01*
X0108474Y0059397D01*
X0108476Y0059337D01*
X0108476Y0057837D01*
X0107976Y0057337D01*
X0107976Y0043337D01*
X0108476Y0042837D01*
X0108476Y0041337D01*
X0108474Y0041277D01*
X0108469Y0041216D01*
X0108460Y0041157D01*
X0108447Y0041098D01*
X0108431Y0041039D01*
X0108411Y0040982D01*
X0108388Y0040927D01*
X0108361Y0040872D01*
X0108332Y0040820D01*
X0108299Y0040769D01*
X0108263Y0040720D01*
X0108225Y0040674D01*
X0108183Y0040630D01*
X0108139Y0040588D01*
X0108093Y0040550D01*
X0108044Y0040514D01*
X0107993Y0040481D01*
X0107941Y0040452D01*
X0107886Y0040425D01*
X0107831Y0040402D01*
X0107774Y0040382D01*
X0107715Y0040366D01*
X0107656Y0040353D01*
X0107597Y0040344D01*
X0107536Y0040339D01*
X0107476Y0040337D01*
X0101476Y0040337D01*
X0101416Y0040339D01*
X0101355Y0040344D01*
X0101296Y0040353D01*
X0101237Y0040366D01*
X0101178Y0040382D01*
X0101121Y0040402D01*
X0101066Y0040425D01*
X0101011Y0040452D01*
X0100959Y0040481D01*
X0100908Y0040514D01*
X0100859Y0040550D01*
X0100813Y0040588D01*
X0100769Y0040630D01*
X0100727Y0040674D01*
X0100689Y0040720D01*
X0100653Y0040769D01*
X0100620Y0040820D01*
X0100591Y0040872D01*
X0100564Y0040927D01*
X0100541Y0040982D01*
X0100521Y0041039D01*
X0100505Y0041098D01*
X0100492Y0041157D01*
X0100483Y0041216D01*
X0100478Y0041277D01*
X0100476Y0041337D01*
X0100476Y0042837D01*
X0100976Y0043337D01*
X0100976Y0057337D01*
X0100476Y0057837D01*
X0100476Y0059337D01*
X0100478Y0059397D01*
X0100483Y0059458D01*
X0100492Y0059517D01*
X0100505Y0059576D01*
X0100521Y0059635D01*
X0100541Y0059692D01*
X0100564Y0059747D01*
X0100591Y0059802D01*
X0100620Y0059854D01*
X0100653Y0059905D01*
X0100689Y0059954D01*
X0100727Y0060000D01*
X0100769Y0060044D01*
X0100813Y0060086D01*
X0100859Y0060124D01*
X0100908Y0060160D01*
X0100959Y0060193D01*
X0101011Y0060222D01*
X0101066Y0060249D01*
X0101121Y0060272D01*
X0101178Y0060292D01*
X0101237Y0060308D01*
X0101296Y0060321D01*
X0101355Y0060330D01*
X0101416Y0060335D01*
X0101476Y0060337D01*
X0101416Y0060335D01*
X0101355Y0060330D01*
X0101296Y0060321D01*
X0101237Y0060308D01*
X0101178Y0060292D01*
X0101121Y0060272D01*
X0101066Y0060249D01*
X0101011Y0060222D01*
X0100959Y0060193D01*
X0100908Y0060160D01*
X0100859Y0060124D01*
X0100813Y0060086D01*
X0100769Y0060044D01*
X0100727Y0060000D01*
X0100689Y0059954D01*
X0100653Y0059905D01*
X0100620Y0059854D01*
X0100591Y0059802D01*
X0100564Y0059747D01*
X0100541Y0059692D01*
X0100521Y0059635D01*
X0100505Y0059576D01*
X0100492Y0059517D01*
X0100483Y0059458D01*
X0100478Y0059397D01*
X0100476Y0059337D01*
X0107476Y0060337D02*
X0107536Y0060335D01*
X0107597Y0060330D01*
X0107656Y0060321D01*
X0107715Y0060308D01*
X0107774Y0060292D01*
X0107831Y0060272D01*
X0107886Y0060249D01*
X0107941Y0060222D01*
X0107993Y0060193D01*
X0108044Y0060160D01*
X0108093Y0060124D01*
X0108139Y0060086D01*
X0108183Y0060044D01*
X0108225Y0060000D01*
X0108263Y0059954D01*
X0108299Y0059905D01*
X0108332Y0059854D01*
X0108361Y0059802D01*
X0108388Y0059747D01*
X0108411Y0059692D01*
X0108431Y0059635D01*
X0108447Y0059576D01*
X0108460Y0059517D01*
X0108469Y0059458D01*
X0108474Y0059397D01*
X0108476Y0059337D01*
X0110476Y0059337D02*
X0110476Y0057837D01*
X0110976Y0057337D01*
X0110976Y0043337D01*
X0110476Y0042837D01*
X0110476Y0041337D01*
X0110478Y0041277D01*
X0110483Y0041216D01*
X0110492Y0041157D01*
X0110505Y0041098D01*
X0110521Y0041039D01*
X0110541Y0040982D01*
X0110564Y0040927D01*
X0110591Y0040872D01*
X0110620Y0040820D01*
X0110653Y0040769D01*
X0110689Y0040720D01*
X0110727Y0040674D01*
X0110769Y0040630D01*
X0110813Y0040588D01*
X0110859Y0040550D01*
X0110908Y0040514D01*
X0110959Y0040481D01*
X0111011Y0040452D01*
X0111066Y0040425D01*
X0111121Y0040402D01*
X0111178Y0040382D01*
X0111237Y0040366D01*
X0111296Y0040353D01*
X0111355Y0040344D01*
X0111416Y0040339D01*
X0111476Y0040337D01*
X0117476Y0040337D01*
X0117536Y0040339D01*
X0117597Y0040344D01*
X0117656Y0040353D01*
X0117715Y0040366D01*
X0117774Y0040382D01*
X0117831Y0040402D01*
X0117886Y0040425D01*
X0117941Y0040452D01*
X0117993Y0040481D01*
X0118044Y0040514D01*
X0118093Y0040550D01*
X0118139Y0040588D01*
X0118183Y0040630D01*
X0118225Y0040674D01*
X0118263Y0040720D01*
X0118299Y0040769D01*
X0118332Y0040820D01*
X0118361Y0040872D01*
X0118388Y0040927D01*
X0118411Y0040982D01*
X0118431Y0041039D01*
X0118447Y0041098D01*
X0118460Y0041157D01*
X0118469Y0041216D01*
X0118474Y0041277D01*
X0118476Y0041337D01*
X0118476Y0042837D01*
X0117976Y0043337D01*
X0117976Y0057337D01*
X0118476Y0057837D01*
X0118476Y0059337D01*
X0118474Y0059397D01*
X0118469Y0059458D01*
X0118460Y0059517D01*
X0118447Y0059576D01*
X0118431Y0059635D01*
X0118411Y0059692D01*
X0118388Y0059747D01*
X0118361Y0059802D01*
X0118332Y0059854D01*
X0118299Y0059905D01*
X0118263Y0059954D01*
X0118225Y0060000D01*
X0118183Y0060044D01*
X0118139Y0060086D01*
X0118093Y0060124D01*
X0118044Y0060160D01*
X0117993Y0060193D01*
X0117941Y0060222D01*
X0117886Y0060249D01*
X0117831Y0060272D01*
X0117774Y0060292D01*
X0117715Y0060308D01*
X0117656Y0060321D01*
X0117597Y0060330D01*
X0117536Y0060335D01*
X0117476Y0060337D01*
X0111476Y0060337D01*
X0111416Y0060335D01*
X0111355Y0060330D01*
X0111296Y0060321D01*
X0111237Y0060308D01*
X0111178Y0060292D01*
X0111121Y0060272D01*
X0111066Y0060249D01*
X0111011Y0060222D01*
X0110959Y0060193D01*
X0110908Y0060160D01*
X0110859Y0060124D01*
X0110813Y0060086D01*
X0110769Y0060044D01*
X0110727Y0060000D01*
X0110689Y0059954D01*
X0110653Y0059905D01*
X0110620Y0059854D01*
X0110591Y0059802D01*
X0110564Y0059747D01*
X0110541Y0059692D01*
X0110521Y0059635D01*
X0110505Y0059576D01*
X0110492Y0059517D01*
X0110483Y0059458D01*
X0110478Y0059397D01*
X0110476Y0059337D01*
X0110478Y0059397D01*
X0110483Y0059458D01*
X0110492Y0059517D01*
X0110505Y0059576D01*
X0110521Y0059635D01*
X0110541Y0059692D01*
X0110564Y0059747D01*
X0110591Y0059802D01*
X0110620Y0059854D01*
X0110653Y0059905D01*
X0110689Y0059954D01*
X0110727Y0060000D01*
X0110769Y0060044D01*
X0110813Y0060086D01*
X0110859Y0060124D01*
X0110908Y0060160D01*
X0110959Y0060193D01*
X0111011Y0060222D01*
X0111066Y0060249D01*
X0111121Y0060272D01*
X0111178Y0060292D01*
X0111237Y0060308D01*
X0111296Y0060321D01*
X0111355Y0060330D01*
X0111416Y0060335D01*
X0111476Y0060337D01*
X0117476Y0060337D02*
X0117536Y0060335D01*
X0117597Y0060330D01*
X0117656Y0060321D01*
X0117715Y0060308D01*
X0117774Y0060292D01*
X0117831Y0060272D01*
X0117886Y0060249D01*
X0117941Y0060222D01*
X0117993Y0060193D01*
X0118044Y0060160D01*
X0118093Y0060124D01*
X0118139Y0060086D01*
X0118183Y0060044D01*
X0118225Y0060000D01*
X0118263Y0059954D01*
X0118299Y0059905D01*
X0118332Y0059854D01*
X0118361Y0059802D01*
X0118388Y0059747D01*
X0118411Y0059692D01*
X0118431Y0059635D01*
X0118447Y0059576D01*
X0118460Y0059517D01*
X0118469Y0059458D01*
X0118474Y0059397D01*
X0118476Y0059337D01*
X0120476Y0059337D02*
X0120476Y0057837D01*
X0120976Y0057337D01*
X0120976Y0043337D01*
X0120476Y0042837D01*
X0120476Y0041337D01*
X0120478Y0041277D01*
X0120483Y0041216D01*
X0120492Y0041157D01*
X0120505Y0041098D01*
X0120521Y0041039D01*
X0120541Y0040982D01*
X0120564Y0040927D01*
X0120591Y0040872D01*
X0120620Y0040820D01*
X0120653Y0040769D01*
X0120689Y0040720D01*
X0120727Y0040674D01*
X0120769Y0040630D01*
X0120813Y0040588D01*
X0120859Y0040550D01*
X0120908Y0040514D01*
X0120959Y0040481D01*
X0121011Y0040452D01*
X0121066Y0040425D01*
X0121121Y0040402D01*
X0121178Y0040382D01*
X0121237Y0040366D01*
X0121296Y0040353D01*
X0121355Y0040344D01*
X0121416Y0040339D01*
X0121476Y0040337D01*
X0127476Y0040337D01*
X0127536Y0040339D01*
X0127597Y0040344D01*
X0127656Y0040353D01*
X0127715Y0040366D01*
X0127774Y0040382D01*
X0127831Y0040402D01*
X0127886Y0040425D01*
X0127941Y0040452D01*
X0127993Y0040481D01*
X0128044Y0040514D01*
X0128093Y0040550D01*
X0128139Y0040588D01*
X0128183Y0040630D01*
X0128225Y0040674D01*
X0128263Y0040720D01*
X0128299Y0040769D01*
X0128332Y0040820D01*
X0128361Y0040872D01*
X0128388Y0040927D01*
X0128411Y0040982D01*
X0128431Y0041039D01*
X0128447Y0041098D01*
X0128460Y0041157D01*
X0128469Y0041216D01*
X0128474Y0041277D01*
X0128476Y0041337D01*
X0128476Y0042837D01*
X0127976Y0043337D01*
X0127976Y0057337D01*
X0128476Y0057837D01*
X0128476Y0059337D01*
X0128474Y0059397D01*
X0128469Y0059458D01*
X0128460Y0059517D01*
X0128447Y0059576D01*
X0128431Y0059635D01*
X0128411Y0059692D01*
X0128388Y0059747D01*
X0128361Y0059802D01*
X0128332Y0059854D01*
X0128299Y0059905D01*
X0128263Y0059954D01*
X0128225Y0060000D01*
X0128183Y0060044D01*
X0128139Y0060086D01*
X0128093Y0060124D01*
X0128044Y0060160D01*
X0127993Y0060193D01*
X0127941Y0060222D01*
X0127886Y0060249D01*
X0127831Y0060272D01*
X0127774Y0060292D01*
X0127715Y0060308D01*
X0127656Y0060321D01*
X0127597Y0060330D01*
X0127536Y0060335D01*
X0127476Y0060337D01*
X0121476Y0060337D01*
X0121416Y0060335D01*
X0121355Y0060330D01*
X0121296Y0060321D01*
X0121237Y0060308D01*
X0121178Y0060292D01*
X0121121Y0060272D01*
X0121066Y0060249D01*
X0121011Y0060222D01*
X0120959Y0060193D01*
X0120908Y0060160D01*
X0120859Y0060124D01*
X0120813Y0060086D01*
X0120769Y0060044D01*
X0120727Y0060000D01*
X0120689Y0059954D01*
X0120653Y0059905D01*
X0120620Y0059854D01*
X0120591Y0059802D01*
X0120564Y0059747D01*
X0120541Y0059692D01*
X0120521Y0059635D01*
X0120505Y0059576D01*
X0120492Y0059517D01*
X0120483Y0059458D01*
X0120478Y0059397D01*
X0120476Y0059337D01*
X0120478Y0059397D01*
X0120483Y0059458D01*
X0120492Y0059517D01*
X0120505Y0059576D01*
X0120521Y0059635D01*
X0120541Y0059692D01*
X0120564Y0059747D01*
X0120591Y0059802D01*
X0120620Y0059854D01*
X0120653Y0059905D01*
X0120689Y0059954D01*
X0120727Y0060000D01*
X0120769Y0060044D01*
X0120813Y0060086D01*
X0120859Y0060124D01*
X0120908Y0060160D01*
X0120959Y0060193D01*
X0121011Y0060222D01*
X0121066Y0060249D01*
X0121121Y0060272D01*
X0121178Y0060292D01*
X0121237Y0060308D01*
X0121296Y0060321D01*
X0121355Y0060330D01*
X0121416Y0060335D01*
X0121476Y0060337D01*
X0127476Y0060337D02*
X0127536Y0060335D01*
X0127597Y0060330D01*
X0127656Y0060321D01*
X0127715Y0060308D01*
X0127774Y0060292D01*
X0127831Y0060272D01*
X0127886Y0060249D01*
X0127941Y0060222D01*
X0127993Y0060193D01*
X0128044Y0060160D01*
X0128093Y0060124D01*
X0128139Y0060086D01*
X0128183Y0060044D01*
X0128225Y0060000D01*
X0128263Y0059954D01*
X0128299Y0059905D01*
X0128332Y0059854D01*
X0128361Y0059802D01*
X0128388Y0059747D01*
X0128411Y0059692D01*
X0128431Y0059635D01*
X0128447Y0059576D01*
X0128460Y0059517D01*
X0128469Y0059458D01*
X0128474Y0059397D01*
X0128476Y0059337D01*
X0128476Y0041337D02*
X0128474Y0041277D01*
X0128469Y0041216D01*
X0128460Y0041157D01*
X0128447Y0041098D01*
X0128431Y0041039D01*
X0128411Y0040982D01*
X0128388Y0040927D01*
X0128361Y0040872D01*
X0128332Y0040820D01*
X0128299Y0040769D01*
X0128263Y0040720D01*
X0128225Y0040674D01*
X0128183Y0040630D01*
X0128139Y0040588D01*
X0128093Y0040550D01*
X0128044Y0040514D01*
X0127993Y0040481D01*
X0127941Y0040452D01*
X0127886Y0040425D01*
X0127831Y0040402D01*
X0127774Y0040382D01*
X0127715Y0040366D01*
X0127656Y0040353D01*
X0127597Y0040344D01*
X0127536Y0040339D01*
X0127476Y0040337D01*
X0121476Y0040337D02*
X0121416Y0040339D01*
X0121355Y0040344D01*
X0121296Y0040353D01*
X0121237Y0040366D01*
X0121178Y0040382D01*
X0121121Y0040402D01*
X0121066Y0040425D01*
X0121011Y0040452D01*
X0120959Y0040481D01*
X0120908Y0040514D01*
X0120859Y0040550D01*
X0120813Y0040588D01*
X0120769Y0040630D01*
X0120727Y0040674D01*
X0120689Y0040720D01*
X0120653Y0040769D01*
X0120620Y0040820D01*
X0120591Y0040872D01*
X0120564Y0040927D01*
X0120541Y0040982D01*
X0120521Y0041039D01*
X0120505Y0041098D01*
X0120492Y0041157D01*
X0120483Y0041216D01*
X0120478Y0041277D01*
X0120476Y0041337D01*
X0118476Y0041337D02*
X0118474Y0041277D01*
X0118469Y0041216D01*
X0118460Y0041157D01*
X0118447Y0041098D01*
X0118431Y0041039D01*
X0118411Y0040982D01*
X0118388Y0040927D01*
X0118361Y0040872D01*
X0118332Y0040820D01*
X0118299Y0040769D01*
X0118263Y0040720D01*
X0118225Y0040674D01*
X0118183Y0040630D01*
X0118139Y0040588D01*
X0118093Y0040550D01*
X0118044Y0040514D01*
X0117993Y0040481D01*
X0117941Y0040452D01*
X0117886Y0040425D01*
X0117831Y0040402D01*
X0117774Y0040382D01*
X0117715Y0040366D01*
X0117656Y0040353D01*
X0117597Y0040344D01*
X0117536Y0040339D01*
X0117476Y0040337D01*
X0111476Y0040337D02*
X0111416Y0040339D01*
X0111355Y0040344D01*
X0111296Y0040353D01*
X0111237Y0040366D01*
X0111178Y0040382D01*
X0111121Y0040402D01*
X0111066Y0040425D01*
X0111011Y0040452D01*
X0110959Y0040481D01*
X0110908Y0040514D01*
X0110859Y0040550D01*
X0110813Y0040588D01*
X0110769Y0040630D01*
X0110727Y0040674D01*
X0110689Y0040720D01*
X0110653Y0040769D01*
X0110620Y0040820D01*
X0110591Y0040872D01*
X0110564Y0040927D01*
X0110541Y0040982D01*
X0110521Y0041039D01*
X0110505Y0041098D01*
X0110492Y0041157D01*
X0110483Y0041216D01*
X0110478Y0041277D01*
X0110476Y0041337D01*
X0108476Y0041337D02*
X0108474Y0041277D01*
X0108469Y0041216D01*
X0108460Y0041157D01*
X0108447Y0041098D01*
X0108431Y0041039D01*
X0108411Y0040982D01*
X0108388Y0040927D01*
X0108361Y0040872D01*
X0108332Y0040820D01*
X0108299Y0040769D01*
X0108263Y0040720D01*
X0108225Y0040674D01*
X0108183Y0040630D01*
X0108139Y0040588D01*
X0108093Y0040550D01*
X0108044Y0040514D01*
X0107993Y0040481D01*
X0107941Y0040452D01*
X0107886Y0040425D01*
X0107831Y0040402D01*
X0107774Y0040382D01*
X0107715Y0040366D01*
X0107656Y0040353D01*
X0107597Y0040344D01*
X0107536Y0040339D01*
X0107476Y0040337D01*
X0101476Y0040337D02*
X0101416Y0040339D01*
X0101355Y0040344D01*
X0101296Y0040353D01*
X0101237Y0040366D01*
X0101178Y0040382D01*
X0101121Y0040402D01*
X0101066Y0040425D01*
X0101011Y0040452D01*
X0100959Y0040481D01*
X0100908Y0040514D01*
X0100859Y0040550D01*
X0100813Y0040588D01*
X0100769Y0040630D01*
X0100727Y0040674D01*
X0100689Y0040720D01*
X0100653Y0040769D01*
X0100620Y0040820D01*
X0100591Y0040872D01*
X0100564Y0040927D01*
X0100541Y0040982D01*
X0100521Y0041039D01*
X0100505Y0041098D01*
X0100492Y0041157D01*
X0100483Y0041216D01*
X0100478Y0041277D01*
X0100476Y0041337D01*
D11*
X0017476Y0130337D03*
D12*
X0013334Y0139437D02*
X0011866Y0139437D01*
X0012600Y0139437D02*
X0012600Y0141639D01*
X0011866Y0140905D01*
X0011124Y0141272D02*
X0010757Y0141639D01*
X0010023Y0141639D01*
X0009656Y0141272D01*
X0009656Y0139804D01*
X0010023Y0139437D01*
X0010757Y0139437D01*
X0011124Y0139804D01*
X0014785Y0118739D02*
X0014785Y0116537D01*
X0014051Y0116537D02*
X0015519Y0116537D01*
X0016261Y0116904D02*
X0016261Y0118372D01*
X0016628Y0118739D01*
X0017362Y0118739D01*
X0017729Y0118372D01*
X0016261Y0116904D01*
X0016628Y0116537D01*
X0017362Y0116537D01*
X0017729Y0116904D01*
X0017729Y0118372D01*
X0018471Y0118372D02*
X0018838Y0118739D01*
X0019572Y0118739D01*
X0019939Y0118372D01*
X0018471Y0116904D01*
X0018838Y0116537D01*
X0019572Y0116537D01*
X0019939Y0116904D01*
X0019939Y0118372D01*
X0020681Y0118005D02*
X0020681Y0116904D01*
X0021048Y0116537D01*
X0022149Y0116537D01*
X0022149Y0118005D01*
X0022891Y0117638D02*
X0023625Y0117638D01*
X0022891Y0118739D02*
X0024359Y0118739D01*
X0022891Y0118739D02*
X0022891Y0116537D01*
X0018471Y0116904D02*
X0018471Y0118372D01*
X0014785Y0118739D02*
X0014051Y0118005D01*
X0025924Y0108961D02*
X0028126Y0108961D01*
X0028126Y0108227D02*
X0028126Y0109695D01*
X0026658Y0108227D02*
X0025924Y0108961D01*
X0026291Y0107485D02*
X0027025Y0107485D01*
X0027392Y0107118D01*
X0027392Y0106017D01*
X0028126Y0106017D02*
X0025924Y0106017D01*
X0025924Y0107118D01*
X0026291Y0107485D01*
X0027392Y0106751D02*
X0028126Y0107485D01*
X0051191Y0074115D02*
X0050824Y0073748D01*
X0050824Y0073014D01*
X0051191Y0072647D01*
X0051191Y0071905D02*
X0051925Y0071905D01*
X0052292Y0071538D01*
X0052292Y0070437D01*
X0052292Y0071171D02*
X0053026Y0071905D01*
X0053026Y0072647D02*
X0051558Y0074115D01*
X0051191Y0074115D01*
X0051191Y0071905D02*
X0050824Y0071538D01*
X0050824Y0070437D01*
X0053026Y0070437D01*
X0053026Y0072647D02*
X0053026Y0074115D01*
X0029887Y0049639D02*
X0029153Y0049639D01*
X0028786Y0049272D01*
X0028786Y0048905D01*
X0029153Y0048538D01*
X0030254Y0048538D01*
X0030254Y0049272D02*
X0029887Y0049639D01*
X0030254Y0049272D02*
X0030254Y0047804D01*
X0029887Y0047437D01*
X0029153Y0047437D01*
X0028786Y0047804D01*
X0028044Y0047437D02*
X0027310Y0048171D01*
X0027677Y0048171D02*
X0026576Y0048171D01*
X0026576Y0047437D02*
X0026576Y0049639D01*
X0027677Y0049639D01*
X0028044Y0049272D01*
X0028044Y0048538D01*
X0027677Y0048171D01*
X0025625Y0034239D02*
X0025625Y0032037D01*
X0027093Y0032037D01*
X0024883Y0033138D02*
X0023416Y0033138D01*
X0022674Y0033138D02*
X0022674Y0033872D01*
X0022307Y0034239D01*
X0021206Y0034239D01*
X0021206Y0032037D01*
X0021206Y0032771D02*
X0022307Y0032771D01*
X0022674Y0033138D01*
X0021940Y0032771D02*
X0022674Y0032037D01*
X0020464Y0032037D02*
X0020464Y0034239D01*
X0018996Y0034239D02*
X0018996Y0032037D01*
X0019730Y0032771D01*
X0020464Y0032037D01*
X0018254Y0033138D02*
X0017887Y0032771D01*
X0016786Y0032771D01*
X0016786Y0032037D02*
X0016786Y0034239D01*
X0017887Y0034239D01*
X0018254Y0033872D01*
X0018254Y0033138D01*
X0016044Y0032404D02*
X0016044Y0033872D01*
X0015677Y0034239D01*
X0014576Y0034239D01*
X0014576Y0032037D01*
X0015677Y0032037D01*
X0016044Y0032404D01*
X0013834Y0032037D02*
X0013834Y0034239D01*
X0012366Y0034239D02*
X0012366Y0032037D01*
X0011624Y0032404D02*
X0011624Y0033138D01*
X0010890Y0033138D01*
X0010156Y0033872D02*
X0010156Y0032404D01*
X0010523Y0032037D01*
X0011257Y0032037D01*
X0011624Y0032404D01*
X0011624Y0033872D02*
X0011257Y0034239D01*
X0010523Y0034239D01*
X0010156Y0033872D01*
X0012366Y0034239D02*
X0013834Y0032037D01*
X0009414Y0031670D02*
X0007946Y0031670D01*
X0007204Y0032404D02*
X0006837Y0032037D01*
X0006103Y0032037D01*
X0005737Y0032404D01*
X0005737Y0033872D01*
X0006103Y0034239D01*
X0006837Y0034239D01*
X0007204Y0033872D01*
X0004995Y0033872D02*
X0004628Y0034239D01*
X0003894Y0034239D01*
X0003527Y0033872D01*
X0003527Y0032404D01*
X0003894Y0032037D01*
X0004628Y0032037D01*
X0004995Y0032404D01*
X0002785Y0032771D02*
X0002785Y0034239D01*
X0002785Y0032771D02*
X0002051Y0032037D01*
X0001317Y0032771D01*
X0001317Y0034239D01*
X0005874Y0041122D02*
X0005874Y0042223D01*
X0006241Y0042590D01*
X0006975Y0042590D01*
X0007342Y0042223D01*
X0007342Y0041122D01*
X0008076Y0041122D02*
X0005874Y0041122D01*
X0005874Y0043332D02*
X0008076Y0043332D01*
X0007342Y0044066D01*
X0008076Y0044800D01*
X0005874Y0044800D01*
X0005874Y0045542D02*
X0005874Y0046643D01*
X0006241Y0047010D01*
X0006975Y0047010D01*
X0007342Y0046643D01*
X0007342Y0045542D01*
X0007342Y0046276D02*
X0008076Y0047010D01*
X0008076Y0045542D02*
X0005874Y0045542D01*
X0078176Y0128537D02*
X0079644Y0128537D01*
X0078176Y0128537D01*
X0078910Y0128537D02*
X0078910Y0130739D01*
X0078176Y0130005D01*
X0078910Y0130739D01*
X0078910Y0128537D01*
X0080386Y0128904D02*
X0081854Y0130372D01*
X0081854Y0128904D01*
X0081487Y0128537D01*
X0080753Y0128537D01*
X0080386Y0128904D01*
X0080386Y0130372D01*
X0080753Y0130739D01*
X0081487Y0130739D01*
X0081854Y0130372D01*
X0080386Y0128904D01*
X0080753Y0128537D01*
X0081487Y0128537D01*
X0081854Y0128904D01*
X0081854Y0130372D01*
X0081487Y0130739D01*
X0080753Y0130739D01*
X0080386Y0130372D01*
X0080386Y0128904D01*
X0082596Y0129271D02*
X0083697Y0130005D01*
X0082596Y0129271D01*
X0083697Y0128537D01*
X0082596Y0129271D01*
X0082596Y0128537D02*
X0082596Y0130739D01*
X0082596Y0128537D01*
X0077887Y0135537D02*
X0077887Y0137739D01*
X0076786Y0136638D01*
X0078254Y0136638D01*
X0076786Y0136638D01*
X0077887Y0137739D01*
X0077887Y0135537D01*
X0076044Y0135537D02*
X0075310Y0136271D01*
X0076044Y0135537D01*
X0075677Y0136271D02*
X0074576Y0136271D01*
X0075677Y0136271D01*
X0076044Y0136638D01*
X0076044Y0137372D01*
X0075677Y0137739D01*
X0074576Y0137739D01*
X0074576Y0135537D01*
X0074576Y0137739D01*
X0075677Y0137739D01*
X0076044Y0137372D01*
X0076044Y0136638D01*
X0075677Y0136271D01*
X0107076Y0087739D02*
X0108177Y0087739D01*
X0108544Y0087372D01*
X0108544Y0086638D01*
X0108177Y0086271D01*
X0107076Y0086271D01*
X0107076Y0085537D02*
X0107076Y0087739D01*
X0107810Y0086271D02*
X0108544Y0085537D01*
X0109286Y0085904D02*
X0109653Y0085537D01*
X0110387Y0085537D01*
X0110754Y0085904D01*
X0110754Y0086271D01*
X0110387Y0086638D01*
X0109286Y0086638D01*
X0109286Y0085904D01*
X0109286Y0086638D02*
X0110020Y0087372D01*
X0110754Y0087739D01*
X0121261Y0095054D02*
X0121628Y0094687D01*
X0122362Y0094687D01*
X0122729Y0095054D01*
X0122729Y0096522D01*
X0122362Y0096889D01*
X0121628Y0096889D01*
X0121261Y0096522D01*
X0121261Y0095054D01*
X0123471Y0095054D02*
X0123471Y0096889D01*
X0124939Y0096889D02*
X0124939Y0095054D01*
X0124572Y0094687D01*
X0123838Y0094687D01*
X0123471Y0095054D01*
X0125681Y0096889D02*
X0127149Y0096889D01*
X0126415Y0096889D02*
X0126415Y0094687D01*
X0128943Y0123037D02*
X0128576Y0123404D01*
X0128576Y0124872D01*
X0128943Y0125239D01*
X0129677Y0125239D01*
X0130044Y0124872D01*
X0130786Y0124872D02*
X0131153Y0125239D01*
X0131887Y0125239D01*
X0132254Y0124872D01*
X0132254Y0124505D01*
X0130786Y0123037D01*
X0132254Y0123037D01*
X0130044Y0123404D02*
X0129677Y0123037D01*
X0128943Y0123037D01*
X0111334Y0065139D02*
X0109866Y0065139D01*
X0109866Y0064038D01*
X0110600Y0064405D01*
X0110967Y0064405D01*
X0111334Y0064038D01*
X0111334Y0063304D01*
X0110967Y0062937D01*
X0110233Y0062937D01*
X0109866Y0063304D01*
X0109124Y0062937D02*
X0108390Y0063671D01*
X0108757Y0063671D02*
X0107656Y0063671D01*
X0107656Y0062937D02*
X0107656Y0065139D01*
X0108757Y0065139D01*
X0109124Y0064772D01*
X0109124Y0064038D01*
X0108757Y0063671D01*
X0115924Y0049695D02*
X0116291Y0049695D01*
X0117759Y0048227D01*
X0118126Y0048227D01*
X0118126Y0047485D02*
X0117392Y0046751D01*
X0117392Y0047118D02*
X0117392Y0046017D01*
X0118126Y0046017D02*
X0115924Y0046017D01*
X0115924Y0047118D01*
X0116291Y0047485D01*
X0117025Y0047485D01*
X0117392Y0047118D01*
X0115924Y0048227D02*
X0115924Y0049695D01*
X0110387Y0037739D02*
X0109653Y0037739D01*
X0109286Y0037372D01*
X0108544Y0037372D02*
X0108544Y0036638D01*
X0108177Y0036271D01*
X0107076Y0036271D01*
X0107076Y0035537D02*
X0107076Y0037739D01*
X0108177Y0037739D01*
X0108544Y0037372D01*
X0107810Y0036271D02*
X0108544Y0035537D01*
X0109286Y0035904D02*
X0109653Y0035537D01*
X0110387Y0035537D01*
X0110754Y0035904D01*
X0110754Y0036271D01*
X0110387Y0036638D01*
X0110020Y0036638D01*
X0110387Y0036638D02*
X0110754Y0037005D01*
X0110754Y0037372D01*
X0110387Y0037739D01*
D13*
X0123476Y0121837D02*
X0125476Y0121837D01*
X0125552Y0121839D01*
X0125628Y0121845D01*
X0125703Y0121854D01*
X0125778Y0121868D01*
X0125852Y0121885D01*
X0125925Y0121906D01*
X0125997Y0121930D01*
X0126068Y0121959D01*
X0126137Y0121990D01*
X0126204Y0122025D01*
X0126269Y0122064D01*
X0126333Y0122106D01*
X0126394Y0122151D01*
X0126453Y0122199D01*
X0126509Y0122250D01*
X0126563Y0122304D01*
X0126614Y0122360D01*
X0126662Y0122419D01*
X0126707Y0122480D01*
X0126749Y0122544D01*
X0126788Y0122609D01*
X0126823Y0122676D01*
X0126854Y0122745D01*
X0126883Y0122816D01*
X0126907Y0122888D01*
X0126928Y0122961D01*
X0126945Y0123035D01*
X0126959Y0123110D01*
X0126968Y0123185D01*
X0126974Y0123261D01*
X0126976Y0123337D01*
X0126976Y0137337D01*
X0126974Y0137413D01*
X0126968Y0137489D01*
X0126959Y0137564D01*
X0126945Y0137639D01*
X0126928Y0137713D01*
X0126907Y0137786D01*
X0126883Y0137858D01*
X0126854Y0137929D01*
X0126823Y0137998D01*
X0126788Y0138065D01*
X0126749Y0138130D01*
X0126707Y0138194D01*
X0126662Y0138255D01*
X0126614Y0138314D01*
X0126563Y0138370D01*
X0126509Y0138424D01*
X0126453Y0138475D01*
X0126394Y0138523D01*
X0126333Y0138568D01*
X0126269Y0138610D01*
X0126204Y0138649D01*
X0126137Y0138684D01*
X0126068Y0138715D01*
X0125997Y0138744D01*
X0125925Y0138768D01*
X0125852Y0138789D01*
X0125778Y0138806D01*
X0125703Y0138820D01*
X0125628Y0138829D01*
X0125552Y0138835D01*
X0125476Y0138837D01*
X0123476Y0138837D01*
X0123400Y0138835D01*
X0123324Y0138829D01*
X0123249Y0138820D01*
X0123174Y0138806D01*
X0123100Y0138789D01*
X0123027Y0138768D01*
X0122955Y0138744D01*
X0122884Y0138715D01*
X0122815Y0138684D01*
X0122748Y0138649D01*
X0122683Y0138610D01*
X0122619Y0138568D01*
X0122558Y0138523D01*
X0122499Y0138475D01*
X0122443Y0138424D01*
X0122389Y0138370D01*
X0122338Y0138314D01*
X0122290Y0138255D01*
X0122245Y0138194D01*
X0122203Y0138130D01*
X0122164Y0138065D01*
X0122129Y0137998D01*
X0122098Y0137929D01*
X0122069Y0137858D01*
X0122045Y0137786D01*
X0122024Y0137713D01*
X0122007Y0137639D01*
X0121993Y0137564D01*
X0121984Y0137489D01*
X0121978Y0137413D01*
X0121976Y0137337D01*
X0121976Y0123337D01*
X0121978Y0123261D01*
X0121984Y0123185D01*
X0121993Y0123110D01*
X0122007Y0123035D01*
X0122024Y0122961D01*
X0122045Y0122888D01*
X0122069Y0122816D01*
X0122098Y0122745D01*
X0122129Y0122676D01*
X0122164Y0122609D01*
X0122203Y0122544D01*
X0122245Y0122480D01*
X0122290Y0122419D01*
X0122338Y0122360D01*
X0122389Y0122304D01*
X0122443Y0122250D01*
X0122499Y0122199D01*
X0122558Y0122151D01*
X0122619Y0122106D01*
X0122683Y0122064D01*
X0122748Y0122025D01*
X0122815Y0121990D01*
X0122884Y0121959D01*
X0122955Y0121930D01*
X0123027Y0121906D01*
X0123100Y0121885D01*
X0123174Y0121868D01*
X0123249Y0121854D01*
X0123324Y0121845D01*
X0123400Y0121839D01*
X0123476Y0121837D01*
X0066217Y0127037D02*
X0063815Y0127037D01*
X0065016Y0127037D02*
X0065016Y0130640D01*
X0063815Y0129439D01*
X0062534Y0130040D02*
X0061933Y0130640D01*
X0060732Y0130640D01*
X0060132Y0130040D01*
X0060132Y0127638D01*
X0060732Y0127037D01*
X0061933Y0127037D01*
X0062534Y0127638D01*
X0058877Y0127037D02*
X0057676Y0127037D01*
X0058277Y0127037D02*
X0058277Y0130640D01*
X0058877Y0130640D02*
X0057676Y0130640D01*
X0006776Y0109781D02*
X0006776Y0107379D01*
X0006776Y0108580D02*
X0003173Y0108580D01*
X0004374Y0107379D01*
X0003173Y0106097D02*
X0003173Y0103695D01*
X0003173Y0104896D02*
X0006776Y0104896D01*
X0006776Y0102414D02*
X0005575Y0101213D01*
X0005575Y0101814D02*
X0005575Y0100012D01*
X0006776Y0100012D02*
X0003173Y0100012D01*
X0003173Y0101814D01*
X0003774Y0102414D01*
X0004975Y0102414D01*
X0005575Y0101814D01*
D14*
X0019623Y0093038D02*
X0023326Y0093038D01*
X0023326Y0091804D02*
X0023326Y0094273D01*
X0020857Y0091804D02*
X0019623Y0093038D01*
X0033991Y0107786D02*
X0033024Y0108754D01*
X0035926Y0108754D01*
X0035926Y0109721D02*
X0035926Y0107786D01*
X0035926Y0110733D02*
X0033024Y0110733D01*
X0033991Y0112184D02*
X0034959Y0110733D01*
X0035926Y0112184D01*
X0043991Y0073657D02*
X0044959Y0072206D01*
X0045926Y0073657D01*
X0045926Y0072206D02*
X0043024Y0072206D01*
X0043024Y0071194D02*
X0043507Y0071194D01*
X0045442Y0069259D01*
X0045926Y0069259D01*
X0045926Y0067764D02*
X0043024Y0067764D01*
X0044475Y0066313D01*
X0044475Y0068248D01*
X0043024Y0069259D02*
X0043024Y0071194D01*
X0008209Y0051880D02*
X0005740Y0051880D01*
X0006975Y0053114D02*
X0006975Y0050645D01*
X0006975Y0037614D02*
X0006975Y0035145D01*
X0103024Y0047280D02*
X0103991Y0046313D01*
X0103024Y0047280D02*
X0105926Y0047280D01*
X0105926Y0046313D02*
X0105926Y0048248D01*
X0105442Y0049259D02*
X0103507Y0051194D01*
X0105442Y0051194D01*
X0105926Y0050711D01*
X0105926Y0049743D01*
X0105442Y0049259D01*
X0103507Y0049259D01*
X0103024Y0049743D01*
X0103024Y0050711D01*
X0103507Y0051194D01*
X0103024Y0052206D02*
X0105926Y0052206D01*
X0104959Y0052206D02*
X0105926Y0053657D01*
X0104959Y0052206D02*
X0103991Y0053657D01*
X0113024Y0052206D02*
X0115926Y0052206D01*
X0114959Y0052206D02*
X0113991Y0053657D01*
X0114959Y0052206D02*
X0115926Y0053657D01*
X0113507Y0051194D02*
X0115442Y0049259D01*
X0115926Y0049259D01*
X0115926Y0047764D02*
X0113024Y0047764D01*
X0114475Y0046313D01*
X0114475Y0048248D01*
X0113024Y0049259D02*
X0113024Y0051194D01*
X0113507Y0051194D01*
X0123024Y0051216D02*
X0123024Y0052184D01*
X0123507Y0052668D01*
X0125442Y0050733D01*
X0125926Y0051216D01*
X0125926Y0052184D01*
X0125442Y0052668D01*
X0123507Y0052668D01*
X0123024Y0053679D02*
X0125926Y0053679D01*
X0124959Y0053679D02*
X0123991Y0055130D01*
X0124959Y0053679D02*
X0125926Y0055130D01*
X0125442Y0050733D02*
X0123507Y0050733D01*
X0123024Y0051216D01*
X0123507Y0049721D02*
X0123024Y0049237D01*
X0123024Y0048270D01*
X0123507Y0047786D01*
X0123507Y0046774D02*
X0123024Y0046291D01*
X0123024Y0045323D01*
X0123507Y0044840D01*
X0123507Y0046774D02*
X0123991Y0046774D01*
X0125926Y0044840D01*
X0125926Y0046774D01*
X0125926Y0047786D02*
X0123991Y0049721D01*
X0123507Y0049721D01*
X0125926Y0049721D02*
X0125926Y0047786D01*
X0104475Y0096313D02*
X0104475Y0098248D01*
X0105442Y0099259D02*
X0105926Y0099259D01*
X0105442Y0099259D02*
X0103507Y0101194D01*
X0103024Y0101194D01*
X0103024Y0099259D01*
X0103024Y0097764D02*
X0104475Y0096313D01*
X0105926Y0097764D02*
X0103024Y0097764D01*
X0103024Y0102206D02*
X0105926Y0102206D01*
X0104959Y0102206D02*
X0105926Y0103657D01*
X0104959Y0102206D02*
X0103991Y0103657D01*
X0118391Y0123121D02*
X0117424Y0124088D01*
X0120326Y0124088D01*
X0120326Y0123121D02*
X0120326Y0125056D01*
X0119842Y0126067D02*
X0117907Y0126067D01*
X0117424Y0126551D01*
X0117424Y0127518D01*
X0117907Y0128002D01*
X0119842Y0126067D01*
X0120326Y0126551D01*
X0120326Y0127518D01*
X0119842Y0128002D01*
X0117907Y0128002D01*
X0117907Y0129014D02*
X0117424Y0129497D01*
X0117424Y0130465D01*
X0117907Y0130949D01*
X0119842Y0129014D01*
X0120326Y0129497D01*
X0120326Y0130465D01*
X0119842Y0130949D01*
X0117907Y0130949D01*
X0118391Y0131960D02*
X0118391Y0133412D01*
X0118875Y0133895D01*
X0120326Y0133895D01*
X0120326Y0134907D02*
X0117424Y0134907D01*
X0117424Y0136842D01*
X0118875Y0135874D02*
X0118875Y0134907D01*
X0118391Y0131960D02*
X0120326Y0131960D01*
X0119842Y0129014D02*
X0117907Y0129014D01*
X0124476Y0128787D02*
X0124476Y0120337D01*
X0124476Y0131837D02*
X0124476Y0140337D01*
D15*
X0124476Y0131337D03*
X0124476Y0129337D03*
D16*
X0078976Y0120337D02*
X0073476Y0120337D01*
X0073476Y0118337D01*
X0070476Y0112337D01*
X0071976Y0112337D01*
X0071976Y0100337D01*
X0079476Y0100337D01*
X0079476Y0110337D02*
X0074976Y0110337D01*
X0074976Y0112337D01*
X0071976Y0112337D01*
X0074976Y0112337D02*
X0076476Y0112337D01*
X0073476Y0118337D01*
X0068476Y0112337D02*
X0065476Y0118337D01*
X0065476Y0120337D01*
X0059976Y0120337D01*
X0065476Y0118337D02*
X0062476Y0112337D01*
X0063976Y0112337D01*
X0063976Y0110337D01*
X0059476Y0110337D01*
X0063976Y0112337D02*
X0066976Y0112337D01*
X0066976Y0100337D01*
X0059476Y0100337D01*
X0059476Y0090337D02*
X0062726Y0090337D01*
X0059476Y0080337D02*
X0066976Y0080337D01*
X0066976Y0068337D01*
X0068476Y0068337D01*
X0065476Y0062337D01*
X0065476Y0060337D01*
X0059976Y0060337D01*
X0065476Y0062337D02*
X0062476Y0068337D01*
X0063976Y0068337D01*
X0063976Y0070337D01*
X0059476Y0070337D01*
X0063976Y0068337D02*
X0066976Y0068337D01*
X0070476Y0068337D02*
X0073476Y0062337D01*
X0073476Y0060337D01*
X0078976Y0060337D01*
X0073476Y0062337D02*
X0076476Y0068337D01*
X0074976Y0068337D01*
X0074976Y0070337D01*
X0079476Y0070337D01*
X0074976Y0068337D02*
X0071976Y0068337D01*
X0071976Y0080337D01*
X0079476Y0080337D01*
X0079476Y0090337D02*
X0076226Y0090337D01*
X0071976Y0068337D02*
X0070476Y0068337D01*
X0068476Y0112337D02*
X0066976Y0112337D01*
D17*
X0066975Y0112887D02*
X0066975Y0113888D01*
X0066475Y0113387D02*
X0067476Y0113387D01*
X0063975Y0112887D02*
X0063975Y0113888D01*
X0071475Y0113387D02*
X0072476Y0113387D01*
X0071975Y0112887D02*
X0071975Y0113888D01*
X0074975Y0113888D02*
X0074975Y0112887D01*
X0075056Y0090788D02*
X0074605Y0090788D01*
X0074605Y0089887D01*
X0075056Y0089887D01*
X0075206Y0090037D01*
X0075206Y0090638D01*
X0075056Y0090788D01*
X0074285Y0090788D02*
X0074285Y0089887D01*
X0073685Y0090788D01*
X0073685Y0089887D01*
X0073364Y0090037D02*
X0073364Y0090337D01*
X0073064Y0090337D01*
X0073364Y0090037D02*
X0073214Y0089887D01*
X0072914Y0089887D01*
X0072764Y0090037D01*
X0072764Y0090638D01*
X0072914Y0090788D01*
X0073214Y0090788D01*
X0073364Y0090638D01*
X0065968Y0090638D02*
X0065818Y0090788D01*
X0065518Y0090788D01*
X0065368Y0090638D01*
X0065368Y0090037D01*
X0065518Y0089887D01*
X0065818Y0089887D01*
X0065968Y0090037D01*
X0065047Y0090037D02*
X0064897Y0089887D01*
X0064597Y0089887D01*
X0064447Y0090037D01*
X0064447Y0090638D01*
X0064597Y0090788D01*
X0064897Y0090788D01*
X0065047Y0090638D01*
X0064127Y0090788D02*
X0064127Y0090187D01*
X0063826Y0089887D01*
X0063526Y0090187D01*
X0063526Y0090788D01*
X0063977Y0067915D02*
X0063977Y0066914D01*
X0066476Y0067414D02*
X0067477Y0067414D01*
X0066977Y0066914D02*
X0066977Y0067915D01*
X0071475Y0067414D02*
X0072476Y0067414D01*
X0071975Y0066914D02*
X0071975Y0067915D01*
X0074975Y0067915D02*
X0074975Y0066914D01*
D18*
X0104476Y0061087D03*
X0104476Y0061087D03*
X0114476Y0061087D03*
X0114476Y0061087D03*
X0124476Y0061087D03*
X0124476Y0061087D03*
X0124476Y0039587D03*
X0124476Y0039587D03*
X0114476Y0039587D03*
X0114476Y0039587D03*
X0104476Y0039587D03*
X0104476Y0039587D03*
X0104476Y0089587D03*
X0104476Y0089587D03*
X0104476Y0111087D03*
X0104476Y0111087D03*
X0044476Y0081087D03*
X0044476Y0081087D03*
X0034476Y0099587D03*
X0034476Y0099587D03*
X0034476Y0121087D03*
X0034476Y0121087D03*
X0044476Y0059587D03*
X0044476Y0059587D03*
D19*
X0044476Y0058837D02*
X0044476Y0050337D01*
X0044476Y0081837D02*
X0044476Y0090337D01*
X0034476Y0090337D02*
X0034476Y0098837D01*
X0034476Y0121837D02*
X0034476Y0130337D01*
X0054476Y0130337D02*
X0072976Y0130337D01*
X0095976Y0130337D02*
X0114476Y0130337D01*
X0104476Y0120337D02*
X0104476Y0111837D01*
X0104476Y0088837D02*
X0104476Y0080337D01*
X0104476Y0070337D02*
X0104476Y0061837D01*
X0114476Y0061837D02*
X0114476Y0070337D01*
X0124476Y0070337D02*
X0124476Y0061837D01*
X0124476Y0038837D02*
X0124476Y0030337D01*
X0114476Y0030337D02*
X0114476Y0038837D01*
X0104476Y0038837D02*
X0104476Y0030337D01*
D20*
X0095226Y0130337D03*
X0095226Y0130337D03*
X0073726Y0130337D03*
X0073726Y0130337D03*
D21*
X0026602Y0030770D02*
X0026602Y0022896D01*
X0030933Y0022896D01*
X0030933Y0030376D01*
X0026602Y0030770D02*
X0026602Y0046258D01*
X0062350Y0046258D01*
X0062350Y0030770D01*
X0026602Y0030770D01*
X0026602Y0033644D02*
X0062350Y0033644D01*
X0050362Y0030376D02*
X0050362Y0016361D01*
X0048393Y0015180D01*
X0040559Y0015180D01*
X0038590Y0016361D01*
X0038590Y0030376D01*
X0038984Y0027522D02*
X0049968Y0029589D01*
X0049968Y0027620D02*
X0038984Y0025554D01*
X0038984Y0023585D02*
X0049968Y0025652D01*
X0049968Y0023683D02*
X0038984Y0021617D01*
X0038984Y0019648D02*
X0049968Y0021715D01*
X0049968Y0019746D02*
X0038984Y0017680D01*
X0039870Y0015869D02*
X0049968Y0017935D01*
X0048393Y0015180D02*
X0048393Y0001400D01*
X0040559Y0001400D01*
X0040559Y0015180D01*
D22*
X0019476Y0035337D02*
X0019476Y0055337D01*
X0009476Y0055337D01*
X0009476Y0035337D01*
X0019476Y0035337D01*
X0019476Y0095337D02*
X0009476Y0095337D01*
X0009476Y0115337D01*
X0019476Y0115337D01*
X0019476Y0095337D01*
M02*
