%
M48
M72
T01C0.02362
T02C0.02756
T03C0.03150
T04C0.03200
T05C0.03543
%
T01
X7461Y4462
X10461Y5462
X13461Y4462
X10461Y7462
T02
X3461Y7462
T03
X17461Y8462
X18461Y8462
X19461Y8462
T04
X16461Y8462
X16461Y7462
X13461Y5462
X12461Y5462
X5461Y5462
X4461Y5462
T05
X3461Y3462
X4461Y3462
X3461Y4462
X6461Y5462
X7461Y5462
X8461Y5462
X9461Y5462
X8461Y3462
X14461Y3462
X14461Y4462
X14461Y5462
X14461Y6462
X14461Y7462
X13461Y7462
X12461Y7462
X11461Y8462
X10461Y8462
X9461Y8462
X8461Y8462
X7461Y8462
X6461Y8462
X4461Y7462
X10461Y11462
X11461Y12462
X13461Y11462
X14461Y11462
X15461Y10462
X15461Y9462
X12461Y10462
X18461Y6462
X18461Y5462
X18461Y4462
X18461Y3462
X19461Y3462
X20461Y3462
X20461Y2462
X19461Y7462
X19461Y9462
X19461Y10462
M30
