%
M48
M72
T01C0.02362
T02C0.02756
T03C0.03150
T04C0.03200
T05C0.03543
%
T01
X14773Y4462
X14773Y9462
T02
X5773Y6462
T03
X7773Y6462
X7773Y7462
X7773Y8462
X7773Y9462
X7773Y10462
X10773Y10462
X10773Y9462
X10773Y8462
X10773Y7462
X10773Y6462
X10773Y5462
X10773Y4462
X7773Y4462
X7773Y5462
X20773Y11462
X20773Y12462
X20773Y13462
T04
X15773Y11462
X15773Y10462
X15773Y8462
X15773Y7462
X15773Y5462
X15773Y4462
T05
X4773Y3462
X4773Y4462
X5773Y5462
X5773Y7462
X5773Y11462
X5773Y12462
X9773Y12462
X10773Y12462
X9773Y11462
X12773Y9462
X13773Y9462
X13773Y10462
X13773Y11462
X14773Y12462
X17773Y12462
X18773Y13462
X20773Y10462
X19773Y9462
X18773Y9462
X18773Y8462
X17773Y8462
X17773Y7462
X20773Y6462
X19773Y5462
X18773Y4462
X17773Y3462
X20773Y3462
X20773Y4462
X13773Y4462
X12773Y7462
X13773Y8462
M30
