%
M48
M72
T01C0.02756
T02C0.03150
T03C0.03200
T04C0.03543
T05C0.03937
T06C0.04331
%
T01
X1105Y1105
X1105Y3105
X1105Y6105
X8105Y2105
X8105Y1105
T02
X3105Y3105
X2105Y6105
T03
X4105Y3105
X4105Y2105
X3105Y2105
X3105Y1105
X7105Y1105
X7105Y2105
X7105Y3105
X7105Y4105
X8105Y4105
X8105Y6105
X7105Y6105
T04
X8105Y3105
T05
X6105Y3105
X5105Y3105
X5105Y2105
X6105Y2105
T06
X6105Y4105
X4105Y4105
X4105Y6105
M30
