%
M48
M72
T01C0.02362
T02C0.02756
T03C0.03150
T04C0.03200
T05C0.03543
%
T01
X16083Y8566
X16083Y13566
T02
X7083Y10566
T03
X9083Y10566
X9083Y11566
X9083Y12566
X9083Y13566
X9083Y14566
X12083Y14566
X12083Y13566
X12083Y12566
X12083Y11566
X12083Y10566
X12083Y9566
X12083Y8566
X9083Y8566
X9083Y9566
X22083Y15566
X22083Y16566
X22083Y17566
T04
X17083Y15566
X17083Y14566
X17083Y12566
X17083Y11566
X17083Y9566
X17083Y8566
T05
X6083Y7566
X6083Y8566
X7083Y9566
X7083Y11566
X7083Y15566
X7083Y16566
X11083Y16566
X12083Y16566
X11083Y15566
X14083Y13566
X15083Y13566
X15083Y14566
X15083Y15566
X16083Y16566
X19083Y16566
X20083Y17566
X22083Y14566
X21083Y13566
X20083Y13566
X20083Y12566
X19083Y12566
X19083Y11566
X21083Y9566
X20083Y8566
X19083Y7566
X22083Y7566
X22083Y8566
X22083Y10566
X15083Y8566
X14083Y11566
X15083Y12566
M30
