G75*
%MOIN*%
%OFA0B0*%
%FSLAX25Y25*%
%IPPOS*%
%LPD*%
%AMOC8*
5,1,8,0,0,1.08239X$1,22.5*
%
%ADD10C,0.06343*%
%ADD11R,0.05556X0.05556*%
%ADD12C,0.05950*%
%ADD13OC8,0.05950*%
%ADD14OC8,0.06000*%
D10*
X0022260Y0061000D03*
X0082260Y0061000D03*
X0102260Y0061000D03*
X0102260Y0071000D03*
X0102260Y0081000D03*
X0082260Y0091000D03*
X0082260Y0101000D03*
X0092260Y0101000D03*
X0072260Y0111000D03*
X0062260Y0111000D03*
X0042260Y0111000D03*
X0112260Y0111000D03*
X0132260Y0101000D03*
X0152260Y0111000D03*
X0142260Y0081000D03*
X0142260Y0071000D03*
X0152260Y0071000D03*
X0142260Y0061000D03*
X0142260Y0051000D03*
X0142260Y0041000D03*
X0102260Y0041000D03*
X0102260Y0051000D03*
X0082260Y0011000D03*
D11*
X0012260Y0061000D03*
D12*
X0039685Y0041000D02*
X0044835Y0041000D01*
X0044835Y0051000D02*
X0039685Y0051000D01*
X0039685Y0061000D02*
X0044835Y0061000D01*
X0044835Y0071000D02*
X0039685Y0071000D01*
X0039685Y0081000D02*
X0044835Y0081000D01*
X0044835Y0091000D02*
X0039685Y0091000D01*
X0039685Y0101000D02*
X0044835Y0101000D01*
X0069685Y0101000D02*
X0074835Y0101000D01*
X0074835Y0091000D02*
X0069685Y0091000D01*
X0069685Y0081000D02*
X0074835Y0081000D01*
X0074835Y0071000D02*
X0069685Y0071000D01*
X0069685Y0061000D02*
X0074835Y0061000D01*
X0074835Y0051000D02*
X0069685Y0051000D01*
X0069685Y0041000D02*
X0074835Y0041000D01*
D13*
X0162260Y0061000D03*
X0162260Y0071000D03*
X0162260Y0081000D03*
D14*
X0162260Y0021000D03*
X0152260Y0021000D03*
X0132260Y0021000D03*
X0122260Y0021000D03*
X0102260Y0021000D03*
X0092260Y0021000D03*
M02*
