%
M48
M72
T01C0.02362
T02C0.02756
T03C0.03150
T04C0.03200
T05C0.03543
%
T01
X6100Y2183
X6100Y5183
X13100Y3183
X13100Y8183
T02
X11100Y6183
T03
X5100Y6183
X5100Y5183
X5100Y4183
X5100Y3183
X2100Y3183
X2100Y4183
X2100Y5183
X2100Y6183
X2100Y7183
X2100Y8183
X2100Y9183
X5100Y9183
X5100Y8183
X5100Y7183
X20100Y9183
X20100Y10183
X20100Y11183
T04
X12100Y9183
X12100Y8183
X15100Y6183
X15100Y5183
X9100Y5183
X9100Y4183
T05
X2100Y1183
X3100Y1183
X4100Y1183
X7100Y2183
X8100Y1183
X14100Y3183
X11100Y5183
X14100Y6183
X11100Y7183
X10100Y9183
X8100Y10183
X7100Y10183
X6100Y9183
X6100Y8183
X7100Y7183
X7100Y6183
X6100Y6183
X13100Y9183
X12100Y10183
X17100Y9183
X18100Y7183
X19100Y7183
X20100Y6183
X21100Y6183
X21100Y5183
X21100Y7183
X21100Y11183
X19100Y11183
X18100Y11183
X3100Y10183
X20100Y2183
M30
