G75*
%MOIN*%
%OFA0B0*%
%FSLAX25Y25*%
%IPPOS*%
%LPD*%
%AMOC8*
5,1,8,0,0,1.08239X$1,22.5*
%
%ADD10C,0.00500*%
%ADD11R,0.03000X0.00750*%
%ADD12C,0.00300*%
%ADD13C,0.00600*%
%ADD14R,0.02000X0.01500*%
%ADD15C,0.00200*%
%ADD16C,0.02000*%
%ADD17C,0.00100*%
%ADD18C,0.00400*%
%ADD19R,0.04000X0.01000*%
D10*
X0003500Y0013500D02*
X0038500Y0013500D01*
X0038500Y0028500D01*
X0003500Y0028500D01*
X0003500Y0013500D01*
X0048500Y0032500D02*
X0048500Y0039500D01*
X0048512Y0039593D01*
X0048528Y0039685D01*
X0048548Y0039776D01*
X0048572Y0039867D01*
X0048599Y0039956D01*
X0048630Y0040045D01*
X0048665Y0040132D01*
X0048703Y0040217D01*
X0048745Y0040301D01*
X0048790Y0040383D01*
X0048838Y0040463D01*
X0048890Y0040541D01*
X0048945Y0040617D01*
X0049003Y0040690D01*
X0049064Y0040761D01*
X0049128Y0040829D01*
X0049195Y0040895D01*
X0049264Y0040958D01*
X0049336Y0041018D01*
X0049410Y0041075D01*
X0049487Y0041129D01*
X0049565Y0041179D01*
X0049646Y0041227D01*
X0049729Y0041270D01*
X0049813Y0041311D01*
X0049899Y0041348D01*
X0049986Y0041381D01*
X0050075Y0041411D01*
X0050165Y0041437D01*
X0050256Y0041459D01*
X0050348Y0041478D01*
X0050440Y0041493D01*
X0050533Y0041504D01*
X0050626Y0041511D01*
X0050720Y0041514D01*
X0050813Y0041513D01*
X0050907Y0041509D01*
X0051000Y0041500D01*
X0053500Y0039500D02*
X0053500Y0032500D01*
X0053488Y0032407D01*
X0053472Y0032315D01*
X0053452Y0032224D01*
X0053428Y0032133D01*
X0053401Y0032044D01*
X0053370Y0031955D01*
X0053335Y0031868D01*
X0053297Y0031783D01*
X0053255Y0031699D01*
X0053210Y0031617D01*
X0053162Y0031537D01*
X0053110Y0031459D01*
X0053055Y0031383D01*
X0052997Y0031310D01*
X0052936Y0031239D01*
X0052872Y0031171D01*
X0052805Y0031105D01*
X0052736Y0031042D01*
X0052664Y0030982D01*
X0052590Y0030925D01*
X0052513Y0030871D01*
X0052435Y0030821D01*
X0052354Y0030773D01*
X0052271Y0030730D01*
X0052187Y0030689D01*
X0052101Y0030652D01*
X0052014Y0030619D01*
X0051925Y0030589D01*
X0051835Y0030563D01*
X0051744Y0030541D01*
X0051652Y0030522D01*
X0051560Y0030507D01*
X0051467Y0030496D01*
X0051374Y0030489D01*
X0051280Y0030486D01*
X0051187Y0030487D01*
X0051093Y0030491D01*
X0051000Y0030500D01*
X0050907Y0030491D01*
X0050813Y0030487D01*
X0050720Y0030486D01*
X0050626Y0030489D01*
X0050533Y0030496D01*
X0050440Y0030507D01*
X0050348Y0030522D01*
X0050256Y0030541D01*
X0050165Y0030563D01*
X0050075Y0030589D01*
X0049986Y0030619D01*
X0049899Y0030652D01*
X0049813Y0030689D01*
X0049729Y0030730D01*
X0049646Y0030773D01*
X0049565Y0030821D01*
X0049487Y0030871D01*
X0049410Y0030925D01*
X0049336Y0030982D01*
X0049264Y0031042D01*
X0049195Y0031105D01*
X0049128Y0031171D01*
X0049064Y0031239D01*
X0049003Y0031310D01*
X0048945Y0031383D01*
X0048890Y0031459D01*
X0048838Y0031537D01*
X0048790Y0031617D01*
X0048745Y0031699D01*
X0048703Y0031783D01*
X0048665Y0031868D01*
X0048630Y0031955D01*
X0048599Y0032044D01*
X0048572Y0032133D01*
X0048548Y0032224D01*
X0048528Y0032315D01*
X0048512Y0032407D01*
X0048500Y0032500D01*
X0053500Y0039500D02*
X0053488Y0039593D01*
X0053472Y0039685D01*
X0053452Y0039776D01*
X0053428Y0039867D01*
X0053401Y0039956D01*
X0053370Y0040045D01*
X0053335Y0040132D01*
X0053297Y0040217D01*
X0053255Y0040301D01*
X0053210Y0040383D01*
X0053162Y0040463D01*
X0053110Y0040541D01*
X0053055Y0040617D01*
X0052997Y0040690D01*
X0052936Y0040761D01*
X0052872Y0040829D01*
X0052805Y0040895D01*
X0052736Y0040958D01*
X0052664Y0041018D01*
X0052590Y0041075D01*
X0052513Y0041129D01*
X0052435Y0041179D01*
X0052354Y0041227D01*
X0052271Y0041270D01*
X0052187Y0041311D01*
X0052101Y0041348D01*
X0052014Y0041381D01*
X0051925Y0041411D01*
X0051835Y0041437D01*
X0051744Y0041459D01*
X0051652Y0041478D01*
X0051560Y0041493D01*
X0051467Y0041504D01*
X0051374Y0041511D01*
X0051280Y0041514D01*
X0051187Y0041513D01*
X0051093Y0041509D01*
X0051000Y0041500D01*
X0064143Y0046640D02*
X0067352Y0043431D01*
X0068822Y0043538D01*
X0070293Y0043645D01*
X0071577Y0044928D01*
X0068230Y0048275D01*
X0069443Y0047132D02*
X0074850Y0052539D01*
X0073739Y0053784D02*
X0077086Y0050437D01*
X0078370Y0051721D01*
X0078482Y0053197D01*
X0078595Y0054674D01*
X0075227Y0058042D01*
X0075360Y0053918D02*
X0075362Y0053981D01*
X0075368Y0054043D01*
X0075378Y0054105D01*
X0075391Y0054167D01*
X0075409Y0054227D01*
X0075430Y0054286D01*
X0075455Y0054344D01*
X0075484Y0054400D01*
X0075516Y0054454D01*
X0075551Y0054506D01*
X0075589Y0054555D01*
X0075631Y0054603D01*
X0075675Y0054647D01*
X0075723Y0054689D01*
X0075772Y0054727D01*
X0075824Y0054762D01*
X0075878Y0054794D01*
X0075934Y0054823D01*
X0075992Y0054848D01*
X0076051Y0054869D01*
X0076111Y0054887D01*
X0076173Y0054900D01*
X0076235Y0054910D01*
X0076297Y0054916D01*
X0076360Y0054918D01*
X0076423Y0054916D01*
X0076485Y0054910D01*
X0076547Y0054900D01*
X0076609Y0054887D01*
X0076669Y0054869D01*
X0076728Y0054848D01*
X0076786Y0054823D01*
X0076842Y0054794D01*
X0076896Y0054762D01*
X0076948Y0054727D01*
X0076997Y0054689D01*
X0077045Y0054647D01*
X0077089Y0054603D01*
X0077131Y0054555D01*
X0077169Y0054506D01*
X0077204Y0054454D01*
X0077236Y0054400D01*
X0077265Y0054344D01*
X0077290Y0054286D01*
X0077311Y0054227D01*
X0077329Y0054167D01*
X0077342Y0054105D01*
X0077352Y0054043D01*
X0077358Y0053981D01*
X0077360Y0053918D01*
X0077358Y0053855D01*
X0077352Y0053793D01*
X0077342Y0053731D01*
X0077329Y0053669D01*
X0077311Y0053609D01*
X0077290Y0053550D01*
X0077265Y0053492D01*
X0077236Y0053436D01*
X0077204Y0053382D01*
X0077169Y0053330D01*
X0077131Y0053281D01*
X0077089Y0053233D01*
X0077045Y0053189D01*
X0076997Y0053147D01*
X0076948Y0053109D01*
X0076896Y0053074D01*
X0076842Y0053042D01*
X0076786Y0053013D01*
X0076728Y0052988D01*
X0076669Y0052967D01*
X0076609Y0052949D01*
X0076547Y0052936D01*
X0076485Y0052926D01*
X0076423Y0052920D01*
X0076360Y0052918D01*
X0076297Y0052920D01*
X0076235Y0052926D01*
X0076173Y0052936D01*
X0076111Y0052949D01*
X0076051Y0052967D01*
X0075992Y0052988D01*
X0075934Y0053013D01*
X0075878Y0053042D01*
X0075824Y0053074D01*
X0075772Y0053109D01*
X0075723Y0053147D01*
X0075675Y0053189D01*
X0075631Y0053233D01*
X0075589Y0053281D01*
X0075551Y0053330D01*
X0075516Y0053382D01*
X0075484Y0053436D01*
X0075455Y0053492D01*
X0075430Y0053550D01*
X0075409Y0053609D01*
X0075391Y0053669D01*
X0075378Y0053731D01*
X0075368Y0053793D01*
X0075362Y0053855D01*
X0075360Y0053918D01*
X0076253Y0050823D02*
X0073722Y0048292D01*
X0073721Y0048292D02*
X0070940Y0045511D01*
X0067107Y0045720D02*
X0067109Y0045783D01*
X0067115Y0045845D01*
X0067125Y0045907D01*
X0067138Y0045969D01*
X0067156Y0046029D01*
X0067177Y0046088D01*
X0067202Y0046146D01*
X0067231Y0046202D01*
X0067263Y0046256D01*
X0067298Y0046308D01*
X0067336Y0046357D01*
X0067378Y0046405D01*
X0067422Y0046449D01*
X0067470Y0046491D01*
X0067519Y0046529D01*
X0067571Y0046564D01*
X0067625Y0046596D01*
X0067681Y0046625D01*
X0067739Y0046650D01*
X0067798Y0046671D01*
X0067858Y0046689D01*
X0067920Y0046702D01*
X0067982Y0046712D01*
X0068044Y0046718D01*
X0068107Y0046720D01*
X0068170Y0046718D01*
X0068232Y0046712D01*
X0068294Y0046702D01*
X0068356Y0046689D01*
X0068416Y0046671D01*
X0068475Y0046650D01*
X0068533Y0046625D01*
X0068589Y0046596D01*
X0068643Y0046564D01*
X0068695Y0046529D01*
X0068744Y0046491D01*
X0068792Y0046449D01*
X0068836Y0046405D01*
X0068878Y0046357D01*
X0068916Y0046308D01*
X0068951Y0046256D01*
X0068983Y0046202D01*
X0069012Y0046146D01*
X0069037Y0046088D01*
X0069058Y0046029D01*
X0069076Y0045969D01*
X0069089Y0045907D01*
X0069099Y0045845D01*
X0069105Y0045783D01*
X0069107Y0045720D01*
X0069105Y0045657D01*
X0069099Y0045595D01*
X0069089Y0045533D01*
X0069076Y0045471D01*
X0069058Y0045411D01*
X0069037Y0045352D01*
X0069012Y0045294D01*
X0068983Y0045238D01*
X0068951Y0045184D01*
X0068916Y0045132D01*
X0068878Y0045083D01*
X0068836Y0045035D01*
X0068792Y0044991D01*
X0068744Y0044949D01*
X0068695Y0044911D01*
X0068643Y0044876D01*
X0068589Y0044844D01*
X0068533Y0044815D01*
X0068475Y0044790D01*
X0068416Y0044769D01*
X0068356Y0044751D01*
X0068294Y0044738D01*
X0068232Y0044728D01*
X0068170Y0044722D01*
X0068107Y0044720D01*
X0068044Y0044722D01*
X0067982Y0044728D01*
X0067920Y0044738D01*
X0067858Y0044751D01*
X0067798Y0044769D01*
X0067739Y0044790D01*
X0067681Y0044815D01*
X0067625Y0044844D01*
X0067571Y0044876D01*
X0067519Y0044911D01*
X0067470Y0044949D01*
X0067422Y0044991D01*
X0067378Y0045035D01*
X0067336Y0045083D01*
X0067298Y0045132D01*
X0067263Y0045184D01*
X0067231Y0045238D01*
X0067202Y0045294D01*
X0067177Y0045352D01*
X0067156Y0045411D01*
X0067138Y0045471D01*
X0067125Y0045533D01*
X0067115Y0045595D01*
X0067109Y0045657D01*
X0067107Y0045720D01*
X0077500Y0039248D02*
X0077500Y0022752D01*
X0078500Y0022500D02*
X0078500Y0029500D01*
X0078512Y0029593D01*
X0078528Y0029685D01*
X0078548Y0029776D01*
X0078572Y0029867D01*
X0078599Y0029956D01*
X0078630Y0030045D01*
X0078665Y0030132D01*
X0078703Y0030217D01*
X0078745Y0030301D01*
X0078790Y0030383D01*
X0078838Y0030463D01*
X0078890Y0030541D01*
X0078945Y0030617D01*
X0079003Y0030690D01*
X0079064Y0030761D01*
X0079128Y0030829D01*
X0079195Y0030895D01*
X0079264Y0030958D01*
X0079336Y0031018D01*
X0079410Y0031075D01*
X0079487Y0031129D01*
X0079565Y0031179D01*
X0079646Y0031227D01*
X0079729Y0031270D01*
X0079813Y0031311D01*
X0079899Y0031348D01*
X0079986Y0031381D01*
X0080075Y0031411D01*
X0080165Y0031437D01*
X0080256Y0031459D01*
X0080348Y0031478D01*
X0080440Y0031493D01*
X0080533Y0031504D01*
X0080626Y0031511D01*
X0080720Y0031514D01*
X0080813Y0031513D01*
X0080907Y0031509D01*
X0081000Y0031500D01*
X0081093Y0031509D01*
X0081187Y0031513D01*
X0081280Y0031514D01*
X0081374Y0031511D01*
X0081467Y0031504D01*
X0081560Y0031493D01*
X0081652Y0031478D01*
X0081744Y0031459D01*
X0081835Y0031437D01*
X0081925Y0031411D01*
X0082014Y0031381D01*
X0082101Y0031348D01*
X0082187Y0031311D01*
X0082271Y0031270D01*
X0082354Y0031227D01*
X0082435Y0031179D01*
X0082513Y0031129D01*
X0082590Y0031075D01*
X0082664Y0031018D01*
X0082736Y0030958D01*
X0082805Y0030895D01*
X0082872Y0030829D01*
X0082936Y0030761D01*
X0082997Y0030690D01*
X0083055Y0030617D01*
X0083110Y0030541D01*
X0083162Y0030463D01*
X0083210Y0030383D01*
X0083255Y0030301D01*
X0083297Y0030217D01*
X0083335Y0030132D01*
X0083370Y0030045D01*
X0083401Y0029956D01*
X0083428Y0029867D01*
X0083452Y0029776D01*
X0083472Y0029685D01*
X0083488Y0029593D01*
X0083500Y0029500D01*
X0083500Y0022500D01*
X0083488Y0022407D01*
X0083472Y0022315D01*
X0083452Y0022224D01*
X0083428Y0022133D01*
X0083401Y0022044D01*
X0083370Y0021955D01*
X0083335Y0021868D01*
X0083297Y0021783D01*
X0083255Y0021699D01*
X0083210Y0021617D01*
X0083162Y0021537D01*
X0083110Y0021459D01*
X0083055Y0021383D01*
X0082997Y0021310D01*
X0082936Y0021239D01*
X0082872Y0021171D01*
X0082805Y0021105D01*
X0082736Y0021042D01*
X0082664Y0020982D01*
X0082590Y0020925D01*
X0082513Y0020871D01*
X0082435Y0020821D01*
X0082354Y0020773D01*
X0082271Y0020730D01*
X0082187Y0020689D01*
X0082101Y0020652D01*
X0082014Y0020619D01*
X0081925Y0020589D01*
X0081835Y0020563D01*
X0081744Y0020541D01*
X0081652Y0020522D01*
X0081560Y0020507D01*
X0081467Y0020496D01*
X0081374Y0020489D01*
X0081280Y0020486D01*
X0081187Y0020487D01*
X0081093Y0020491D01*
X0081000Y0020500D01*
X0080907Y0020491D01*
X0080813Y0020487D01*
X0080720Y0020486D01*
X0080626Y0020489D01*
X0080533Y0020496D01*
X0080440Y0020507D01*
X0080348Y0020522D01*
X0080256Y0020541D01*
X0080165Y0020563D01*
X0080075Y0020589D01*
X0079986Y0020619D01*
X0079899Y0020652D01*
X0079813Y0020689D01*
X0079729Y0020730D01*
X0079646Y0020773D01*
X0079565Y0020821D01*
X0079487Y0020871D01*
X0079410Y0020925D01*
X0079336Y0020982D01*
X0079264Y0021042D01*
X0079195Y0021105D01*
X0079128Y0021171D01*
X0079064Y0021239D01*
X0079003Y0021310D01*
X0078945Y0021383D01*
X0078890Y0021459D01*
X0078838Y0021537D01*
X0078790Y0021617D01*
X0078745Y0021699D01*
X0078703Y0021783D01*
X0078665Y0021868D01*
X0078630Y0021955D01*
X0078599Y0022044D01*
X0078572Y0022133D01*
X0078548Y0022224D01*
X0078528Y0022315D01*
X0078512Y0022407D01*
X0078500Y0022500D01*
X0071500Y0025472D02*
X0071500Y0026528D01*
X0075472Y0021498D02*
X0075687Y0021602D01*
X0075900Y0021711D01*
X0076110Y0021825D01*
X0076317Y0021944D01*
X0076522Y0022067D01*
X0076724Y0022195D01*
X0076923Y0022328D01*
X0077118Y0022465D01*
X0077311Y0022606D01*
X0077500Y0022752D01*
X0066528Y0021500D02*
X0066298Y0021612D01*
X0066071Y0021729D01*
X0065847Y0021851D01*
X0065626Y0021979D01*
X0065409Y0022113D01*
X0065194Y0022251D01*
X0064983Y0022395D01*
X0064776Y0022544D01*
X0064572Y0022698D01*
X0064372Y0022856D01*
X0064176Y0023020D01*
X0063984Y0023188D01*
X0063796Y0023361D01*
X0063612Y0023539D01*
X0063433Y0023720D01*
X0063258Y0023907D01*
X0063088Y0024097D01*
X0062923Y0024291D01*
X0062762Y0024490D01*
X0062606Y0024692D01*
X0062455Y0024898D01*
X0062309Y0025108D01*
X0062169Y0025321D01*
X0062033Y0025537D01*
X0061903Y0025757D01*
X0061778Y0025980D01*
X0061659Y0026205D01*
X0061545Y0026434D01*
X0061437Y0026665D01*
X0061334Y0026899D01*
X0061237Y0027135D01*
X0061146Y0027374D01*
X0061061Y0027614D01*
X0060981Y0027857D01*
X0060908Y0028102D01*
X0060840Y0028348D01*
X0060779Y0028596D01*
X0060724Y0028845D01*
X0060674Y0029095D01*
X0060631Y0029347D01*
X0060594Y0029600D01*
X0060563Y0029853D01*
X0060538Y0030107D01*
X0060519Y0030362D01*
X0060507Y0030617D01*
X0060501Y0030872D01*
X0060501Y0031128D01*
X0060507Y0031383D01*
X0060519Y0031638D01*
X0060538Y0031893D01*
X0060563Y0032147D01*
X0060594Y0032400D01*
X0060631Y0032653D01*
X0060674Y0032905D01*
X0060724Y0033155D01*
X0060779Y0033404D01*
X0060840Y0033652D01*
X0060908Y0033898D01*
X0060981Y0034143D01*
X0061061Y0034386D01*
X0061146Y0034626D01*
X0061237Y0034865D01*
X0061334Y0035101D01*
X0061437Y0035335D01*
X0061545Y0035566D01*
X0061659Y0035795D01*
X0061778Y0036020D01*
X0061903Y0036243D01*
X0062033Y0036463D01*
X0062169Y0036679D01*
X0062309Y0036892D01*
X0062455Y0037102D01*
X0062606Y0037308D01*
X0062762Y0037510D01*
X0062923Y0037709D01*
X0063088Y0037903D01*
X0063258Y0038093D01*
X0063433Y0038280D01*
X0063612Y0038461D01*
X0063796Y0038639D01*
X0063984Y0038812D01*
X0064176Y0038980D01*
X0064372Y0039144D01*
X0064572Y0039302D01*
X0064776Y0039456D01*
X0064983Y0039605D01*
X0065194Y0039749D01*
X0065409Y0039887D01*
X0065626Y0040021D01*
X0065847Y0040149D01*
X0066071Y0040271D01*
X0066298Y0040388D01*
X0066528Y0040500D01*
X0071500Y0036528D02*
X0071500Y0035472D01*
X0075378Y0040546D02*
X0075603Y0040439D01*
X0075826Y0040327D01*
X0076046Y0040210D01*
X0076263Y0040088D01*
X0076478Y0039960D01*
X0076689Y0039827D01*
X0076897Y0039690D01*
X0077101Y0039547D01*
X0077303Y0039400D01*
X0077500Y0039248D01*
X0086000Y0047000D02*
X0086002Y0046860D01*
X0086008Y0046720D01*
X0086018Y0046580D01*
X0086031Y0046440D01*
X0086049Y0046301D01*
X0086071Y0046162D01*
X0086096Y0046025D01*
X0086125Y0045887D01*
X0086158Y0045751D01*
X0086195Y0045616D01*
X0086236Y0045482D01*
X0086281Y0045349D01*
X0086329Y0045217D01*
X0086381Y0045087D01*
X0086436Y0044958D01*
X0086495Y0044831D01*
X0086558Y0044705D01*
X0086624Y0044581D01*
X0086693Y0044460D01*
X0086766Y0044340D01*
X0086843Y0044222D01*
X0086922Y0044107D01*
X0087005Y0043993D01*
X0087091Y0043883D01*
X0087180Y0043774D01*
X0087272Y0043668D01*
X0087367Y0043565D01*
X0087464Y0043464D01*
X0087565Y0043367D01*
X0087668Y0043272D01*
X0087774Y0043180D01*
X0087883Y0043091D01*
X0087993Y0043005D01*
X0088107Y0042922D01*
X0088222Y0042843D01*
X0088340Y0042766D01*
X0088460Y0042693D01*
X0088581Y0042624D01*
X0088705Y0042558D01*
X0088831Y0042495D01*
X0088958Y0042436D01*
X0089087Y0042381D01*
X0089217Y0042329D01*
X0089349Y0042281D01*
X0089482Y0042236D01*
X0089616Y0042195D01*
X0089751Y0042158D01*
X0089887Y0042125D01*
X0090025Y0042096D01*
X0090162Y0042071D01*
X0090301Y0042049D01*
X0090440Y0042031D01*
X0090580Y0042018D01*
X0090720Y0042008D01*
X0090860Y0042002D01*
X0091000Y0042000D01*
X0086000Y0047000D02*
X0086002Y0047140D01*
X0086008Y0047280D01*
X0086018Y0047420D01*
X0086031Y0047560D01*
X0086049Y0047699D01*
X0086071Y0047838D01*
X0086096Y0047975D01*
X0086125Y0048113D01*
X0086158Y0048249D01*
X0086195Y0048384D01*
X0086236Y0048518D01*
X0086281Y0048651D01*
X0086329Y0048783D01*
X0086381Y0048913D01*
X0086436Y0049042D01*
X0086495Y0049169D01*
X0086558Y0049295D01*
X0086624Y0049419D01*
X0086693Y0049540D01*
X0086766Y0049660D01*
X0086843Y0049778D01*
X0086922Y0049893D01*
X0087005Y0050007D01*
X0087091Y0050117D01*
X0087180Y0050226D01*
X0087272Y0050332D01*
X0087367Y0050435D01*
X0087464Y0050536D01*
X0087565Y0050633D01*
X0087668Y0050728D01*
X0087774Y0050820D01*
X0087883Y0050909D01*
X0087993Y0050995D01*
X0088107Y0051078D01*
X0088222Y0051157D01*
X0088340Y0051234D01*
X0088460Y0051307D01*
X0088581Y0051376D01*
X0088705Y0051442D01*
X0088831Y0051505D01*
X0088958Y0051564D01*
X0089087Y0051619D01*
X0089217Y0051671D01*
X0089349Y0051719D01*
X0089482Y0051764D01*
X0089616Y0051805D01*
X0089751Y0051842D01*
X0089887Y0051875D01*
X0090025Y0051904D01*
X0090162Y0051929D01*
X0090301Y0051951D01*
X0090440Y0051969D01*
X0090580Y0051982D01*
X0090720Y0051992D01*
X0090860Y0051998D01*
X0091000Y0052000D01*
X0086000Y0053000D02*
X0086002Y0053140D01*
X0086008Y0053280D01*
X0086018Y0053420D01*
X0086031Y0053560D01*
X0086049Y0053699D01*
X0086071Y0053838D01*
X0086096Y0053975D01*
X0086125Y0054113D01*
X0086158Y0054249D01*
X0086195Y0054384D01*
X0086236Y0054518D01*
X0086281Y0054651D01*
X0086329Y0054783D01*
X0086381Y0054913D01*
X0086436Y0055042D01*
X0086495Y0055169D01*
X0086558Y0055295D01*
X0086624Y0055419D01*
X0086693Y0055540D01*
X0086766Y0055660D01*
X0086843Y0055778D01*
X0086922Y0055893D01*
X0087005Y0056007D01*
X0087091Y0056117D01*
X0087180Y0056226D01*
X0087272Y0056332D01*
X0087367Y0056435D01*
X0087464Y0056536D01*
X0087565Y0056633D01*
X0087668Y0056728D01*
X0087774Y0056820D01*
X0087883Y0056909D01*
X0087993Y0056995D01*
X0088107Y0057078D01*
X0088222Y0057157D01*
X0088340Y0057234D01*
X0088460Y0057307D01*
X0088581Y0057376D01*
X0088705Y0057442D01*
X0088831Y0057505D01*
X0088958Y0057564D01*
X0089087Y0057619D01*
X0089217Y0057671D01*
X0089349Y0057719D01*
X0089482Y0057764D01*
X0089616Y0057805D01*
X0089751Y0057842D01*
X0089887Y0057875D01*
X0090025Y0057904D01*
X0090162Y0057929D01*
X0090301Y0057951D01*
X0090440Y0057969D01*
X0090580Y0057982D01*
X0090720Y0057992D01*
X0090860Y0057998D01*
X0091000Y0058000D01*
X0086000Y0059000D02*
X0086002Y0059140D01*
X0086008Y0059280D01*
X0086018Y0059420D01*
X0086031Y0059560D01*
X0086049Y0059699D01*
X0086071Y0059838D01*
X0086096Y0059975D01*
X0086125Y0060113D01*
X0086158Y0060249D01*
X0086195Y0060384D01*
X0086236Y0060518D01*
X0086281Y0060651D01*
X0086329Y0060783D01*
X0086381Y0060913D01*
X0086436Y0061042D01*
X0086495Y0061169D01*
X0086558Y0061295D01*
X0086624Y0061419D01*
X0086693Y0061540D01*
X0086766Y0061660D01*
X0086843Y0061778D01*
X0086922Y0061893D01*
X0087005Y0062007D01*
X0087091Y0062117D01*
X0087180Y0062226D01*
X0087272Y0062332D01*
X0087367Y0062435D01*
X0087464Y0062536D01*
X0087565Y0062633D01*
X0087668Y0062728D01*
X0087774Y0062820D01*
X0087883Y0062909D01*
X0087993Y0062995D01*
X0088107Y0063078D01*
X0088222Y0063157D01*
X0088340Y0063234D01*
X0088460Y0063307D01*
X0088581Y0063376D01*
X0088705Y0063442D01*
X0088831Y0063505D01*
X0088958Y0063564D01*
X0089087Y0063619D01*
X0089217Y0063671D01*
X0089349Y0063719D01*
X0089482Y0063764D01*
X0089616Y0063805D01*
X0089751Y0063842D01*
X0089887Y0063875D01*
X0090025Y0063904D01*
X0090162Y0063929D01*
X0090301Y0063951D01*
X0090440Y0063969D01*
X0090580Y0063982D01*
X0090720Y0063992D01*
X0090860Y0063998D01*
X0091000Y0064000D01*
X0086000Y0065000D02*
X0086002Y0065140D01*
X0086008Y0065280D01*
X0086018Y0065420D01*
X0086031Y0065560D01*
X0086049Y0065699D01*
X0086071Y0065838D01*
X0086096Y0065975D01*
X0086125Y0066113D01*
X0086158Y0066249D01*
X0086195Y0066384D01*
X0086236Y0066518D01*
X0086281Y0066651D01*
X0086329Y0066783D01*
X0086381Y0066913D01*
X0086436Y0067042D01*
X0086495Y0067169D01*
X0086558Y0067295D01*
X0086624Y0067419D01*
X0086693Y0067540D01*
X0086766Y0067660D01*
X0086843Y0067778D01*
X0086922Y0067893D01*
X0087005Y0068007D01*
X0087091Y0068117D01*
X0087180Y0068226D01*
X0087272Y0068332D01*
X0087367Y0068435D01*
X0087464Y0068536D01*
X0087565Y0068633D01*
X0087668Y0068728D01*
X0087774Y0068820D01*
X0087883Y0068909D01*
X0087993Y0068995D01*
X0088107Y0069078D01*
X0088222Y0069157D01*
X0088340Y0069234D01*
X0088460Y0069307D01*
X0088581Y0069376D01*
X0088705Y0069442D01*
X0088831Y0069505D01*
X0088958Y0069564D01*
X0089087Y0069619D01*
X0089217Y0069671D01*
X0089349Y0069719D01*
X0089482Y0069764D01*
X0089616Y0069805D01*
X0089751Y0069842D01*
X0089887Y0069875D01*
X0090025Y0069904D01*
X0090162Y0069929D01*
X0090301Y0069951D01*
X0090440Y0069969D01*
X0090580Y0069982D01*
X0090720Y0069992D01*
X0090860Y0069998D01*
X0091000Y0070000D01*
X0091140Y0069998D01*
X0091280Y0069992D01*
X0091420Y0069982D01*
X0091560Y0069969D01*
X0091699Y0069951D01*
X0091838Y0069929D01*
X0091975Y0069904D01*
X0092113Y0069875D01*
X0092249Y0069842D01*
X0092384Y0069805D01*
X0092518Y0069764D01*
X0092651Y0069719D01*
X0092783Y0069671D01*
X0092913Y0069619D01*
X0093042Y0069564D01*
X0093169Y0069505D01*
X0093295Y0069442D01*
X0093419Y0069376D01*
X0093540Y0069307D01*
X0093660Y0069234D01*
X0093778Y0069157D01*
X0093893Y0069078D01*
X0094007Y0068995D01*
X0094117Y0068909D01*
X0094226Y0068820D01*
X0094332Y0068728D01*
X0094435Y0068633D01*
X0094536Y0068536D01*
X0094633Y0068435D01*
X0094728Y0068332D01*
X0094820Y0068226D01*
X0094909Y0068117D01*
X0094995Y0068007D01*
X0095078Y0067893D01*
X0095157Y0067778D01*
X0095234Y0067660D01*
X0095307Y0067540D01*
X0095376Y0067419D01*
X0095442Y0067295D01*
X0095505Y0067169D01*
X0095564Y0067042D01*
X0095619Y0066913D01*
X0095671Y0066783D01*
X0095719Y0066651D01*
X0095764Y0066518D01*
X0095805Y0066384D01*
X0095842Y0066249D01*
X0095875Y0066113D01*
X0095904Y0065975D01*
X0095929Y0065838D01*
X0095951Y0065699D01*
X0095969Y0065560D01*
X0095982Y0065420D01*
X0095992Y0065280D01*
X0095998Y0065140D01*
X0096000Y0065000D01*
X0091000Y0067000D02*
X0090860Y0066998D01*
X0090720Y0066992D01*
X0090580Y0066982D01*
X0090440Y0066969D01*
X0090301Y0066951D01*
X0090162Y0066929D01*
X0090025Y0066904D01*
X0089887Y0066875D01*
X0089751Y0066842D01*
X0089616Y0066805D01*
X0089482Y0066764D01*
X0089349Y0066719D01*
X0089217Y0066671D01*
X0089087Y0066619D01*
X0088958Y0066564D01*
X0088831Y0066505D01*
X0088705Y0066442D01*
X0088581Y0066376D01*
X0088460Y0066307D01*
X0088340Y0066234D01*
X0088222Y0066157D01*
X0088107Y0066078D01*
X0087993Y0065995D01*
X0087883Y0065909D01*
X0087774Y0065820D01*
X0087668Y0065728D01*
X0087565Y0065633D01*
X0087464Y0065536D01*
X0087367Y0065435D01*
X0087272Y0065332D01*
X0087180Y0065226D01*
X0087091Y0065117D01*
X0087005Y0065007D01*
X0086922Y0064893D01*
X0086843Y0064778D01*
X0086766Y0064660D01*
X0086693Y0064540D01*
X0086624Y0064419D01*
X0086558Y0064295D01*
X0086495Y0064169D01*
X0086436Y0064042D01*
X0086381Y0063913D01*
X0086329Y0063783D01*
X0086281Y0063651D01*
X0086236Y0063518D01*
X0086195Y0063384D01*
X0086158Y0063249D01*
X0086125Y0063113D01*
X0086096Y0062975D01*
X0086071Y0062838D01*
X0086049Y0062699D01*
X0086031Y0062560D01*
X0086018Y0062420D01*
X0086008Y0062280D01*
X0086002Y0062140D01*
X0086000Y0062000D01*
X0091000Y0067000D02*
X0091140Y0066998D01*
X0091280Y0066992D01*
X0091420Y0066982D01*
X0091560Y0066969D01*
X0091699Y0066951D01*
X0091838Y0066929D01*
X0091975Y0066904D01*
X0092113Y0066875D01*
X0092249Y0066842D01*
X0092384Y0066805D01*
X0092518Y0066764D01*
X0092651Y0066719D01*
X0092783Y0066671D01*
X0092913Y0066619D01*
X0093042Y0066564D01*
X0093169Y0066505D01*
X0093295Y0066442D01*
X0093419Y0066376D01*
X0093540Y0066307D01*
X0093660Y0066234D01*
X0093778Y0066157D01*
X0093893Y0066078D01*
X0094007Y0065995D01*
X0094117Y0065909D01*
X0094226Y0065820D01*
X0094332Y0065728D01*
X0094435Y0065633D01*
X0094536Y0065536D01*
X0094633Y0065435D01*
X0094728Y0065332D01*
X0094820Y0065226D01*
X0094909Y0065117D01*
X0094995Y0065007D01*
X0095078Y0064893D01*
X0095157Y0064778D01*
X0095234Y0064660D01*
X0095307Y0064540D01*
X0095376Y0064419D01*
X0095442Y0064295D01*
X0095505Y0064169D01*
X0095564Y0064042D01*
X0095619Y0063913D01*
X0095671Y0063783D01*
X0095719Y0063651D01*
X0095764Y0063518D01*
X0095805Y0063384D01*
X0095842Y0063249D01*
X0095875Y0063113D01*
X0095904Y0062975D01*
X0095929Y0062838D01*
X0095951Y0062699D01*
X0095969Y0062560D01*
X0095982Y0062420D01*
X0095992Y0062280D01*
X0095998Y0062140D01*
X0096000Y0062000D01*
X0096000Y0059000D02*
X0095998Y0059140D01*
X0095992Y0059280D01*
X0095982Y0059420D01*
X0095969Y0059560D01*
X0095951Y0059699D01*
X0095929Y0059838D01*
X0095904Y0059975D01*
X0095875Y0060113D01*
X0095842Y0060249D01*
X0095805Y0060384D01*
X0095764Y0060518D01*
X0095719Y0060651D01*
X0095671Y0060783D01*
X0095619Y0060913D01*
X0095564Y0061042D01*
X0095505Y0061169D01*
X0095442Y0061295D01*
X0095376Y0061419D01*
X0095307Y0061540D01*
X0095234Y0061660D01*
X0095157Y0061778D01*
X0095078Y0061893D01*
X0094995Y0062007D01*
X0094909Y0062117D01*
X0094820Y0062226D01*
X0094728Y0062332D01*
X0094633Y0062435D01*
X0094536Y0062536D01*
X0094435Y0062633D01*
X0094332Y0062728D01*
X0094226Y0062820D01*
X0094117Y0062909D01*
X0094007Y0062995D01*
X0093893Y0063078D01*
X0093778Y0063157D01*
X0093660Y0063234D01*
X0093540Y0063307D01*
X0093419Y0063376D01*
X0093295Y0063442D01*
X0093169Y0063505D01*
X0093042Y0063564D01*
X0092913Y0063619D01*
X0092783Y0063671D01*
X0092651Y0063719D01*
X0092518Y0063764D01*
X0092384Y0063805D01*
X0092249Y0063842D01*
X0092113Y0063875D01*
X0091975Y0063904D01*
X0091838Y0063929D01*
X0091699Y0063951D01*
X0091560Y0063969D01*
X0091420Y0063982D01*
X0091280Y0063992D01*
X0091140Y0063998D01*
X0091000Y0064000D01*
X0091000Y0061000D02*
X0090860Y0060998D01*
X0090720Y0060992D01*
X0090580Y0060982D01*
X0090440Y0060969D01*
X0090301Y0060951D01*
X0090162Y0060929D01*
X0090025Y0060904D01*
X0089887Y0060875D01*
X0089751Y0060842D01*
X0089616Y0060805D01*
X0089482Y0060764D01*
X0089349Y0060719D01*
X0089217Y0060671D01*
X0089087Y0060619D01*
X0088958Y0060564D01*
X0088831Y0060505D01*
X0088705Y0060442D01*
X0088581Y0060376D01*
X0088460Y0060307D01*
X0088340Y0060234D01*
X0088222Y0060157D01*
X0088107Y0060078D01*
X0087993Y0059995D01*
X0087883Y0059909D01*
X0087774Y0059820D01*
X0087668Y0059728D01*
X0087565Y0059633D01*
X0087464Y0059536D01*
X0087367Y0059435D01*
X0087272Y0059332D01*
X0087180Y0059226D01*
X0087091Y0059117D01*
X0087005Y0059007D01*
X0086922Y0058893D01*
X0086843Y0058778D01*
X0086766Y0058660D01*
X0086693Y0058540D01*
X0086624Y0058419D01*
X0086558Y0058295D01*
X0086495Y0058169D01*
X0086436Y0058042D01*
X0086381Y0057913D01*
X0086329Y0057783D01*
X0086281Y0057651D01*
X0086236Y0057518D01*
X0086195Y0057384D01*
X0086158Y0057249D01*
X0086125Y0057113D01*
X0086096Y0056975D01*
X0086071Y0056838D01*
X0086049Y0056699D01*
X0086031Y0056560D01*
X0086018Y0056420D01*
X0086008Y0056280D01*
X0086002Y0056140D01*
X0086000Y0056000D01*
X0091000Y0061000D02*
X0091140Y0060998D01*
X0091280Y0060992D01*
X0091420Y0060982D01*
X0091560Y0060969D01*
X0091699Y0060951D01*
X0091838Y0060929D01*
X0091975Y0060904D01*
X0092113Y0060875D01*
X0092249Y0060842D01*
X0092384Y0060805D01*
X0092518Y0060764D01*
X0092651Y0060719D01*
X0092783Y0060671D01*
X0092913Y0060619D01*
X0093042Y0060564D01*
X0093169Y0060505D01*
X0093295Y0060442D01*
X0093419Y0060376D01*
X0093540Y0060307D01*
X0093660Y0060234D01*
X0093778Y0060157D01*
X0093893Y0060078D01*
X0094007Y0059995D01*
X0094117Y0059909D01*
X0094226Y0059820D01*
X0094332Y0059728D01*
X0094435Y0059633D01*
X0094536Y0059536D01*
X0094633Y0059435D01*
X0094728Y0059332D01*
X0094820Y0059226D01*
X0094909Y0059117D01*
X0094995Y0059007D01*
X0095078Y0058893D01*
X0095157Y0058778D01*
X0095234Y0058660D01*
X0095307Y0058540D01*
X0095376Y0058419D01*
X0095442Y0058295D01*
X0095505Y0058169D01*
X0095564Y0058042D01*
X0095619Y0057913D01*
X0095671Y0057783D01*
X0095719Y0057651D01*
X0095764Y0057518D01*
X0095805Y0057384D01*
X0095842Y0057249D01*
X0095875Y0057113D01*
X0095904Y0056975D01*
X0095929Y0056838D01*
X0095951Y0056699D01*
X0095969Y0056560D01*
X0095982Y0056420D01*
X0095992Y0056280D01*
X0095998Y0056140D01*
X0096000Y0056000D01*
X0096000Y0053000D02*
X0095998Y0053140D01*
X0095992Y0053280D01*
X0095982Y0053420D01*
X0095969Y0053560D01*
X0095951Y0053699D01*
X0095929Y0053838D01*
X0095904Y0053975D01*
X0095875Y0054113D01*
X0095842Y0054249D01*
X0095805Y0054384D01*
X0095764Y0054518D01*
X0095719Y0054651D01*
X0095671Y0054783D01*
X0095619Y0054913D01*
X0095564Y0055042D01*
X0095505Y0055169D01*
X0095442Y0055295D01*
X0095376Y0055419D01*
X0095307Y0055540D01*
X0095234Y0055660D01*
X0095157Y0055778D01*
X0095078Y0055893D01*
X0094995Y0056007D01*
X0094909Y0056117D01*
X0094820Y0056226D01*
X0094728Y0056332D01*
X0094633Y0056435D01*
X0094536Y0056536D01*
X0094435Y0056633D01*
X0094332Y0056728D01*
X0094226Y0056820D01*
X0094117Y0056909D01*
X0094007Y0056995D01*
X0093893Y0057078D01*
X0093778Y0057157D01*
X0093660Y0057234D01*
X0093540Y0057307D01*
X0093419Y0057376D01*
X0093295Y0057442D01*
X0093169Y0057505D01*
X0093042Y0057564D01*
X0092913Y0057619D01*
X0092783Y0057671D01*
X0092651Y0057719D01*
X0092518Y0057764D01*
X0092384Y0057805D01*
X0092249Y0057842D01*
X0092113Y0057875D01*
X0091975Y0057904D01*
X0091838Y0057929D01*
X0091699Y0057951D01*
X0091560Y0057969D01*
X0091420Y0057982D01*
X0091280Y0057992D01*
X0091140Y0057998D01*
X0091000Y0058000D01*
X0091000Y0055000D02*
X0090860Y0054998D01*
X0090720Y0054992D01*
X0090580Y0054982D01*
X0090440Y0054969D01*
X0090301Y0054951D01*
X0090162Y0054929D01*
X0090025Y0054904D01*
X0089887Y0054875D01*
X0089751Y0054842D01*
X0089616Y0054805D01*
X0089482Y0054764D01*
X0089349Y0054719D01*
X0089217Y0054671D01*
X0089087Y0054619D01*
X0088958Y0054564D01*
X0088831Y0054505D01*
X0088705Y0054442D01*
X0088581Y0054376D01*
X0088460Y0054307D01*
X0088340Y0054234D01*
X0088222Y0054157D01*
X0088107Y0054078D01*
X0087993Y0053995D01*
X0087883Y0053909D01*
X0087774Y0053820D01*
X0087668Y0053728D01*
X0087565Y0053633D01*
X0087464Y0053536D01*
X0087367Y0053435D01*
X0087272Y0053332D01*
X0087180Y0053226D01*
X0087091Y0053117D01*
X0087005Y0053007D01*
X0086922Y0052893D01*
X0086843Y0052778D01*
X0086766Y0052660D01*
X0086693Y0052540D01*
X0086624Y0052419D01*
X0086558Y0052295D01*
X0086495Y0052169D01*
X0086436Y0052042D01*
X0086381Y0051913D01*
X0086329Y0051783D01*
X0086281Y0051651D01*
X0086236Y0051518D01*
X0086195Y0051384D01*
X0086158Y0051249D01*
X0086125Y0051113D01*
X0086096Y0050975D01*
X0086071Y0050838D01*
X0086049Y0050699D01*
X0086031Y0050560D01*
X0086018Y0050420D01*
X0086008Y0050280D01*
X0086002Y0050140D01*
X0086000Y0050000D01*
X0091000Y0055000D02*
X0091140Y0054998D01*
X0091280Y0054992D01*
X0091420Y0054982D01*
X0091560Y0054969D01*
X0091699Y0054951D01*
X0091838Y0054929D01*
X0091975Y0054904D01*
X0092113Y0054875D01*
X0092249Y0054842D01*
X0092384Y0054805D01*
X0092518Y0054764D01*
X0092651Y0054719D01*
X0092783Y0054671D01*
X0092913Y0054619D01*
X0093042Y0054564D01*
X0093169Y0054505D01*
X0093295Y0054442D01*
X0093419Y0054376D01*
X0093540Y0054307D01*
X0093660Y0054234D01*
X0093778Y0054157D01*
X0093893Y0054078D01*
X0094007Y0053995D01*
X0094117Y0053909D01*
X0094226Y0053820D01*
X0094332Y0053728D01*
X0094435Y0053633D01*
X0094536Y0053536D01*
X0094633Y0053435D01*
X0094728Y0053332D01*
X0094820Y0053226D01*
X0094909Y0053117D01*
X0094995Y0053007D01*
X0095078Y0052893D01*
X0095157Y0052778D01*
X0095234Y0052660D01*
X0095307Y0052540D01*
X0095376Y0052419D01*
X0095442Y0052295D01*
X0095505Y0052169D01*
X0095564Y0052042D01*
X0095619Y0051913D01*
X0095671Y0051783D01*
X0095719Y0051651D01*
X0095764Y0051518D01*
X0095805Y0051384D01*
X0095842Y0051249D01*
X0095875Y0051113D01*
X0095904Y0050975D01*
X0095929Y0050838D01*
X0095951Y0050699D01*
X0095969Y0050560D01*
X0095982Y0050420D01*
X0095992Y0050280D01*
X0095998Y0050140D01*
X0096000Y0050000D01*
X0096000Y0047000D02*
X0095998Y0047140D01*
X0095992Y0047280D01*
X0095982Y0047420D01*
X0095969Y0047560D01*
X0095951Y0047699D01*
X0095929Y0047838D01*
X0095904Y0047975D01*
X0095875Y0048113D01*
X0095842Y0048249D01*
X0095805Y0048384D01*
X0095764Y0048518D01*
X0095719Y0048651D01*
X0095671Y0048783D01*
X0095619Y0048913D01*
X0095564Y0049042D01*
X0095505Y0049169D01*
X0095442Y0049295D01*
X0095376Y0049419D01*
X0095307Y0049540D01*
X0095234Y0049660D01*
X0095157Y0049778D01*
X0095078Y0049893D01*
X0094995Y0050007D01*
X0094909Y0050117D01*
X0094820Y0050226D01*
X0094728Y0050332D01*
X0094633Y0050435D01*
X0094536Y0050536D01*
X0094435Y0050633D01*
X0094332Y0050728D01*
X0094226Y0050820D01*
X0094117Y0050909D01*
X0094007Y0050995D01*
X0093893Y0051078D01*
X0093778Y0051157D01*
X0093660Y0051234D01*
X0093540Y0051307D01*
X0093419Y0051376D01*
X0093295Y0051442D01*
X0093169Y0051505D01*
X0093042Y0051564D01*
X0092913Y0051619D01*
X0092783Y0051671D01*
X0092651Y0051719D01*
X0092518Y0051764D01*
X0092384Y0051805D01*
X0092249Y0051842D01*
X0092113Y0051875D01*
X0091975Y0051904D01*
X0091838Y0051929D01*
X0091699Y0051951D01*
X0091560Y0051969D01*
X0091420Y0051982D01*
X0091280Y0051992D01*
X0091140Y0051998D01*
X0091000Y0052000D01*
X0065009Y0063497D02*
X0058501Y0056988D01*
X0056896Y0058593D02*
X0063405Y0065101D01*
X0047665Y0061000D02*
X0047669Y0061327D01*
X0047681Y0061654D01*
X0047701Y0061981D01*
X0047729Y0062307D01*
X0047765Y0062632D01*
X0047809Y0062957D01*
X0047861Y0063280D01*
X0047921Y0063602D01*
X0047989Y0063922D01*
X0048065Y0064240D01*
X0048148Y0064557D01*
X0048239Y0064871D01*
X0048338Y0065183D01*
X0048445Y0065492D01*
X0048559Y0065799D01*
X0048680Y0066103D01*
X0048809Y0066404D01*
X0048945Y0066701D01*
X0049089Y0066996D01*
X0049240Y0067286D01*
X0049397Y0067573D01*
X0049562Y0067856D01*
X0049734Y0068134D01*
X0049912Y0068409D01*
X0050098Y0068678D01*
X0050289Y0068944D01*
X0050487Y0069204D01*
X0050692Y0069460D01*
X0050903Y0069710D01*
X0051119Y0069955D01*
X0051342Y0070195D01*
X0051571Y0070429D01*
X0051805Y0070658D01*
X0052045Y0070881D01*
X0052290Y0071097D01*
X0052540Y0071308D01*
X0052796Y0071513D01*
X0053056Y0071711D01*
X0053322Y0071902D01*
X0053591Y0072088D01*
X0053866Y0072266D01*
X0054144Y0072438D01*
X0054427Y0072603D01*
X0054714Y0072760D01*
X0055004Y0072911D01*
X0055299Y0073055D01*
X0055596Y0073191D01*
X0055897Y0073320D01*
X0056201Y0073441D01*
X0056508Y0073555D01*
X0056817Y0073662D01*
X0057129Y0073761D01*
X0057443Y0073852D01*
X0057760Y0073935D01*
X0058078Y0074011D01*
X0058398Y0074079D01*
X0058720Y0074139D01*
X0059043Y0074191D01*
X0059368Y0074235D01*
X0059693Y0074271D01*
X0060019Y0074299D01*
X0060346Y0074319D01*
X0060673Y0074331D01*
X0061000Y0074335D01*
X0061327Y0074331D01*
X0061654Y0074319D01*
X0061981Y0074299D01*
X0062307Y0074271D01*
X0062632Y0074235D01*
X0062957Y0074191D01*
X0063280Y0074139D01*
X0063602Y0074079D01*
X0063922Y0074011D01*
X0064240Y0073935D01*
X0064557Y0073852D01*
X0064871Y0073761D01*
X0065183Y0073662D01*
X0065492Y0073555D01*
X0065799Y0073441D01*
X0066103Y0073320D01*
X0066404Y0073191D01*
X0066701Y0073055D01*
X0066996Y0072911D01*
X0067286Y0072760D01*
X0067573Y0072603D01*
X0067856Y0072438D01*
X0068134Y0072266D01*
X0068409Y0072088D01*
X0068678Y0071902D01*
X0068944Y0071711D01*
X0069204Y0071513D01*
X0069460Y0071308D01*
X0069710Y0071097D01*
X0069955Y0070881D01*
X0070195Y0070658D01*
X0070429Y0070429D01*
X0070658Y0070195D01*
X0070881Y0069955D01*
X0071097Y0069710D01*
X0071308Y0069460D01*
X0071513Y0069204D01*
X0071711Y0068944D01*
X0071902Y0068678D01*
X0072088Y0068409D01*
X0072266Y0068134D01*
X0072438Y0067856D01*
X0072603Y0067573D01*
X0072760Y0067286D01*
X0072911Y0066996D01*
X0073055Y0066701D01*
X0073191Y0066404D01*
X0073320Y0066103D01*
X0073441Y0065799D01*
X0073555Y0065492D01*
X0073662Y0065183D01*
X0073761Y0064871D01*
X0073852Y0064557D01*
X0073935Y0064240D01*
X0074011Y0063922D01*
X0074079Y0063602D01*
X0074139Y0063280D01*
X0074191Y0062957D01*
X0074235Y0062632D01*
X0074271Y0062307D01*
X0074299Y0061981D01*
X0074319Y0061654D01*
X0074331Y0061327D01*
X0074335Y0061000D01*
X0074331Y0060673D01*
X0074319Y0060346D01*
X0074299Y0060019D01*
X0074271Y0059693D01*
X0074235Y0059368D01*
X0074191Y0059043D01*
X0074139Y0058720D01*
X0074079Y0058398D01*
X0074011Y0058078D01*
X0073935Y0057760D01*
X0073852Y0057443D01*
X0073761Y0057129D01*
X0073662Y0056817D01*
X0073555Y0056508D01*
X0073441Y0056201D01*
X0073320Y0055897D01*
X0073191Y0055596D01*
X0073055Y0055299D01*
X0072911Y0055004D01*
X0072760Y0054714D01*
X0072603Y0054427D01*
X0072438Y0054144D01*
X0072266Y0053866D01*
X0072088Y0053591D01*
X0071902Y0053322D01*
X0071711Y0053056D01*
X0071513Y0052796D01*
X0071308Y0052540D01*
X0071097Y0052290D01*
X0070881Y0052045D01*
X0070658Y0051805D01*
X0070429Y0051571D01*
X0070195Y0051342D01*
X0069955Y0051119D01*
X0069710Y0050903D01*
X0069460Y0050692D01*
X0069204Y0050487D01*
X0068944Y0050289D01*
X0068678Y0050098D01*
X0068409Y0049912D01*
X0068134Y0049734D01*
X0067856Y0049562D01*
X0067573Y0049397D01*
X0067286Y0049240D01*
X0066996Y0049089D01*
X0066701Y0048945D01*
X0066404Y0048809D01*
X0066103Y0048680D01*
X0065799Y0048559D01*
X0065492Y0048445D01*
X0065183Y0048338D01*
X0064871Y0048239D01*
X0064557Y0048148D01*
X0064240Y0048065D01*
X0063922Y0047989D01*
X0063602Y0047921D01*
X0063280Y0047861D01*
X0062957Y0047809D01*
X0062632Y0047765D01*
X0062307Y0047729D01*
X0061981Y0047701D01*
X0061654Y0047681D01*
X0061327Y0047669D01*
X0061000Y0047665D01*
X0060673Y0047669D01*
X0060346Y0047681D01*
X0060019Y0047701D01*
X0059693Y0047729D01*
X0059368Y0047765D01*
X0059043Y0047809D01*
X0058720Y0047861D01*
X0058398Y0047921D01*
X0058078Y0047989D01*
X0057760Y0048065D01*
X0057443Y0048148D01*
X0057129Y0048239D01*
X0056817Y0048338D01*
X0056508Y0048445D01*
X0056201Y0048559D01*
X0055897Y0048680D01*
X0055596Y0048809D01*
X0055299Y0048945D01*
X0055004Y0049089D01*
X0054714Y0049240D01*
X0054427Y0049397D01*
X0054144Y0049562D01*
X0053866Y0049734D01*
X0053591Y0049912D01*
X0053322Y0050098D01*
X0053056Y0050289D01*
X0052796Y0050487D01*
X0052540Y0050692D01*
X0052290Y0050903D01*
X0052045Y0051119D01*
X0051805Y0051342D01*
X0051571Y0051571D01*
X0051342Y0051805D01*
X0051119Y0052045D01*
X0050903Y0052290D01*
X0050692Y0052540D01*
X0050487Y0052796D01*
X0050289Y0053056D01*
X0050098Y0053322D01*
X0049912Y0053591D01*
X0049734Y0053866D01*
X0049562Y0054144D01*
X0049397Y0054427D01*
X0049240Y0054714D01*
X0049089Y0055004D01*
X0048945Y0055299D01*
X0048809Y0055596D01*
X0048680Y0055897D01*
X0048559Y0056201D01*
X0048445Y0056508D01*
X0048338Y0056817D01*
X0048239Y0057129D01*
X0048148Y0057443D01*
X0048065Y0057760D01*
X0047989Y0058078D01*
X0047921Y0058398D01*
X0047861Y0058720D01*
X0047809Y0059043D01*
X0047765Y0059368D01*
X0047729Y0059693D01*
X0047701Y0060019D01*
X0047681Y0060346D01*
X0047669Y0060673D01*
X0047665Y0061000D01*
X0046556Y0061000D02*
X0046560Y0061354D01*
X0046573Y0061709D01*
X0046595Y0062063D01*
X0046626Y0062416D01*
X0046665Y0062768D01*
X0046712Y0063119D01*
X0046769Y0063469D01*
X0046834Y0063818D01*
X0046907Y0064165D01*
X0046989Y0064510D01*
X0047079Y0064852D01*
X0047178Y0065193D01*
X0047285Y0065531D01*
X0047400Y0065866D01*
X0047524Y0066198D01*
X0047655Y0066527D01*
X0047795Y0066853D01*
X0047943Y0067176D01*
X0048098Y0067494D01*
X0048262Y0067809D01*
X0048432Y0068119D01*
X0048611Y0068426D01*
X0048797Y0068728D01*
X0048990Y0069025D01*
X0049191Y0069317D01*
X0049398Y0069604D01*
X0049613Y0069886D01*
X0049835Y0070163D01*
X0050063Y0070434D01*
X0050298Y0070700D01*
X0050539Y0070960D01*
X0050787Y0071213D01*
X0051040Y0071461D01*
X0051300Y0071702D01*
X0051566Y0071937D01*
X0051837Y0072165D01*
X0052114Y0072387D01*
X0052396Y0072602D01*
X0052683Y0072809D01*
X0052975Y0073010D01*
X0053272Y0073203D01*
X0053574Y0073389D01*
X0053881Y0073568D01*
X0054191Y0073738D01*
X0054506Y0073902D01*
X0054824Y0074057D01*
X0055147Y0074205D01*
X0055473Y0074345D01*
X0055802Y0074476D01*
X0056134Y0074600D01*
X0056469Y0074715D01*
X0056807Y0074822D01*
X0057148Y0074921D01*
X0057490Y0075011D01*
X0057835Y0075093D01*
X0058182Y0075166D01*
X0058531Y0075231D01*
X0058881Y0075288D01*
X0059232Y0075335D01*
X0059584Y0075374D01*
X0059937Y0075405D01*
X0060291Y0075427D01*
X0060646Y0075440D01*
X0061000Y0075444D01*
X0061354Y0075440D01*
X0061709Y0075427D01*
X0062063Y0075405D01*
X0062416Y0075374D01*
X0062768Y0075335D01*
X0063119Y0075288D01*
X0063469Y0075231D01*
X0063818Y0075166D01*
X0064165Y0075093D01*
X0064510Y0075011D01*
X0064852Y0074921D01*
X0065193Y0074822D01*
X0065531Y0074715D01*
X0065866Y0074600D01*
X0066198Y0074476D01*
X0066527Y0074345D01*
X0066853Y0074205D01*
X0067176Y0074057D01*
X0067494Y0073902D01*
X0067809Y0073738D01*
X0068119Y0073568D01*
X0068426Y0073389D01*
X0068728Y0073203D01*
X0069025Y0073010D01*
X0069317Y0072809D01*
X0069604Y0072602D01*
X0069886Y0072387D01*
X0070163Y0072165D01*
X0070434Y0071937D01*
X0070700Y0071702D01*
X0070960Y0071461D01*
X0071213Y0071213D01*
X0071461Y0070960D01*
X0071702Y0070700D01*
X0071937Y0070434D01*
X0072165Y0070163D01*
X0072387Y0069886D01*
X0072602Y0069604D01*
X0072809Y0069317D01*
X0073010Y0069025D01*
X0073203Y0068728D01*
X0073389Y0068426D01*
X0073568Y0068119D01*
X0073738Y0067809D01*
X0073902Y0067494D01*
X0074057Y0067176D01*
X0074205Y0066853D01*
X0074345Y0066527D01*
X0074476Y0066198D01*
X0074600Y0065866D01*
X0074715Y0065531D01*
X0074822Y0065193D01*
X0074921Y0064852D01*
X0075011Y0064510D01*
X0075093Y0064165D01*
X0075166Y0063818D01*
X0075231Y0063469D01*
X0075288Y0063119D01*
X0075335Y0062768D01*
X0075374Y0062416D01*
X0075405Y0062063D01*
X0075427Y0061709D01*
X0075440Y0061354D01*
X0075444Y0061000D01*
X0075440Y0060646D01*
X0075427Y0060291D01*
X0075405Y0059937D01*
X0075374Y0059584D01*
X0075335Y0059232D01*
X0075288Y0058881D01*
X0075231Y0058531D01*
X0075166Y0058182D01*
X0075093Y0057835D01*
X0075011Y0057490D01*
X0074921Y0057148D01*
X0074822Y0056807D01*
X0074715Y0056469D01*
X0074600Y0056134D01*
X0074476Y0055802D01*
X0074345Y0055473D01*
X0074205Y0055147D01*
X0074057Y0054824D01*
X0073902Y0054506D01*
X0073738Y0054191D01*
X0073568Y0053881D01*
X0073389Y0053574D01*
X0073203Y0053272D01*
X0073010Y0052975D01*
X0072809Y0052683D01*
X0072602Y0052396D01*
X0072387Y0052114D01*
X0072165Y0051837D01*
X0071937Y0051566D01*
X0071702Y0051300D01*
X0071461Y0051040D01*
X0071213Y0050787D01*
X0070960Y0050539D01*
X0070700Y0050298D01*
X0070434Y0050063D01*
X0070163Y0049835D01*
X0069886Y0049613D01*
X0069604Y0049398D01*
X0069317Y0049191D01*
X0069025Y0048990D01*
X0068728Y0048797D01*
X0068426Y0048611D01*
X0068119Y0048432D01*
X0067809Y0048262D01*
X0067494Y0048098D01*
X0067176Y0047943D01*
X0066853Y0047795D01*
X0066527Y0047655D01*
X0066198Y0047524D01*
X0065866Y0047400D01*
X0065531Y0047285D01*
X0065193Y0047178D01*
X0064852Y0047079D01*
X0064510Y0046989D01*
X0064165Y0046907D01*
X0063818Y0046834D01*
X0063469Y0046769D01*
X0063119Y0046712D01*
X0062768Y0046665D01*
X0062416Y0046626D01*
X0062063Y0046595D01*
X0061709Y0046573D01*
X0061354Y0046560D01*
X0061000Y0046556D01*
X0060646Y0046560D01*
X0060291Y0046573D01*
X0059937Y0046595D01*
X0059584Y0046626D01*
X0059232Y0046665D01*
X0058881Y0046712D01*
X0058531Y0046769D01*
X0058182Y0046834D01*
X0057835Y0046907D01*
X0057490Y0046989D01*
X0057148Y0047079D01*
X0056807Y0047178D01*
X0056469Y0047285D01*
X0056134Y0047400D01*
X0055802Y0047524D01*
X0055473Y0047655D01*
X0055147Y0047795D01*
X0054824Y0047943D01*
X0054506Y0048098D01*
X0054191Y0048262D01*
X0053881Y0048432D01*
X0053574Y0048611D01*
X0053272Y0048797D01*
X0052975Y0048990D01*
X0052683Y0049191D01*
X0052396Y0049398D01*
X0052114Y0049613D01*
X0051837Y0049835D01*
X0051566Y0050063D01*
X0051300Y0050298D01*
X0051040Y0050539D01*
X0050787Y0050787D01*
X0050539Y0051040D01*
X0050298Y0051300D01*
X0050063Y0051566D01*
X0049835Y0051837D01*
X0049613Y0052114D01*
X0049398Y0052396D01*
X0049191Y0052683D01*
X0048990Y0052975D01*
X0048797Y0053272D01*
X0048611Y0053574D01*
X0048432Y0053881D01*
X0048262Y0054191D01*
X0048098Y0054506D01*
X0047943Y0054824D01*
X0047795Y0055147D01*
X0047655Y0055473D01*
X0047524Y0055802D01*
X0047400Y0056134D01*
X0047285Y0056469D01*
X0047178Y0056807D01*
X0047079Y0057148D01*
X0046989Y0057490D01*
X0046907Y0057835D01*
X0046834Y0058182D01*
X0046769Y0058531D01*
X0046712Y0058881D01*
X0046665Y0059232D01*
X0046626Y0059584D01*
X0046595Y0059937D01*
X0046573Y0060291D01*
X0046560Y0060646D01*
X0046556Y0061000D01*
X0033500Y0054500D02*
X0033500Y0047500D01*
X0031000Y0045000D02*
X0030902Y0045002D01*
X0030804Y0045008D01*
X0030706Y0045017D01*
X0030609Y0045031D01*
X0030512Y0045048D01*
X0030416Y0045069D01*
X0030321Y0045094D01*
X0030227Y0045122D01*
X0030135Y0045155D01*
X0030043Y0045190D01*
X0029953Y0045230D01*
X0029865Y0045272D01*
X0029778Y0045319D01*
X0029694Y0045368D01*
X0029611Y0045421D01*
X0029531Y0045477D01*
X0029452Y0045537D01*
X0029376Y0045599D01*
X0029303Y0045664D01*
X0029232Y0045732D01*
X0029164Y0045803D01*
X0029099Y0045876D01*
X0029037Y0045952D01*
X0028977Y0046031D01*
X0028921Y0046111D01*
X0028868Y0046194D01*
X0028819Y0046278D01*
X0028772Y0046365D01*
X0028730Y0046453D01*
X0028690Y0046543D01*
X0028655Y0046635D01*
X0028622Y0046727D01*
X0028594Y0046821D01*
X0028569Y0046916D01*
X0028548Y0047012D01*
X0028531Y0047109D01*
X0028517Y0047206D01*
X0028508Y0047304D01*
X0028502Y0047402D01*
X0028500Y0047500D01*
X0028500Y0054500D01*
X0031000Y0057000D02*
X0031098Y0056998D01*
X0031196Y0056992D01*
X0031294Y0056983D01*
X0031391Y0056969D01*
X0031488Y0056952D01*
X0031584Y0056931D01*
X0031679Y0056906D01*
X0031773Y0056878D01*
X0031865Y0056845D01*
X0031957Y0056810D01*
X0032047Y0056770D01*
X0032135Y0056728D01*
X0032222Y0056681D01*
X0032306Y0056632D01*
X0032389Y0056579D01*
X0032469Y0056523D01*
X0032548Y0056463D01*
X0032624Y0056401D01*
X0032697Y0056336D01*
X0032768Y0056268D01*
X0032836Y0056197D01*
X0032901Y0056124D01*
X0032963Y0056048D01*
X0033023Y0055969D01*
X0033079Y0055889D01*
X0033132Y0055806D01*
X0033181Y0055722D01*
X0033228Y0055635D01*
X0033270Y0055547D01*
X0033310Y0055457D01*
X0033345Y0055365D01*
X0033378Y0055273D01*
X0033406Y0055179D01*
X0033431Y0055084D01*
X0033452Y0054988D01*
X0033469Y0054891D01*
X0033483Y0054794D01*
X0033492Y0054696D01*
X0033498Y0054598D01*
X0033500Y0054500D01*
X0031000Y0057000D02*
X0030902Y0056998D01*
X0030804Y0056992D01*
X0030706Y0056983D01*
X0030609Y0056969D01*
X0030512Y0056952D01*
X0030416Y0056931D01*
X0030321Y0056906D01*
X0030227Y0056878D01*
X0030135Y0056845D01*
X0030043Y0056810D01*
X0029953Y0056770D01*
X0029865Y0056728D01*
X0029778Y0056681D01*
X0029694Y0056632D01*
X0029611Y0056579D01*
X0029531Y0056523D01*
X0029452Y0056463D01*
X0029376Y0056401D01*
X0029303Y0056336D01*
X0029232Y0056268D01*
X0029164Y0056197D01*
X0029099Y0056124D01*
X0029037Y0056048D01*
X0028977Y0055969D01*
X0028921Y0055889D01*
X0028868Y0055806D01*
X0028819Y0055722D01*
X0028772Y0055635D01*
X0028730Y0055547D01*
X0028690Y0055457D01*
X0028655Y0055365D01*
X0028622Y0055273D01*
X0028594Y0055179D01*
X0028569Y0055084D01*
X0028548Y0054988D01*
X0028531Y0054891D01*
X0028517Y0054794D01*
X0028508Y0054696D01*
X0028502Y0054598D01*
X0028500Y0054500D01*
X0033500Y0047500D02*
X0033498Y0047402D01*
X0033492Y0047304D01*
X0033483Y0047206D01*
X0033469Y0047109D01*
X0033452Y0047012D01*
X0033431Y0046916D01*
X0033406Y0046821D01*
X0033378Y0046727D01*
X0033345Y0046635D01*
X0033310Y0046543D01*
X0033270Y0046453D01*
X0033228Y0046365D01*
X0033181Y0046278D01*
X0033132Y0046194D01*
X0033079Y0046111D01*
X0033023Y0046031D01*
X0032963Y0045952D01*
X0032901Y0045876D01*
X0032836Y0045803D01*
X0032768Y0045732D01*
X0032697Y0045664D01*
X0032624Y0045599D01*
X0032548Y0045537D01*
X0032469Y0045477D01*
X0032389Y0045421D01*
X0032306Y0045368D01*
X0032222Y0045319D01*
X0032135Y0045272D01*
X0032047Y0045230D01*
X0031957Y0045190D01*
X0031865Y0045155D01*
X0031773Y0045122D01*
X0031679Y0045094D01*
X0031584Y0045069D01*
X0031488Y0045048D01*
X0031391Y0045031D01*
X0031294Y0045017D01*
X0031196Y0045008D01*
X0031098Y0045002D01*
X0031000Y0045000D01*
X0030902Y0045002D01*
X0030804Y0045008D01*
X0030706Y0045017D01*
X0030609Y0045031D01*
X0030512Y0045048D01*
X0030416Y0045069D01*
X0030321Y0045094D01*
X0030227Y0045122D01*
X0030135Y0045155D01*
X0030043Y0045190D01*
X0029953Y0045230D01*
X0029865Y0045272D01*
X0029778Y0045319D01*
X0029694Y0045368D01*
X0029611Y0045421D01*
X0029531Y0045477D01*
X0029452Y0045537D01*
X0029376Y0045599D01*
X0029303Y0045664D01*
X0029232Y0045732D01*
X0029164Y0045803D01*
X0029099Y0045876D01*
X0029037Y0045952D01*
X0028977Y0046031D01*
X0028921Y0046111D01*
X0028868Y0046194D01*
X0028819Y0046278D01*
X0028772Y0046365D01*
X0028730Y0046453D01*
X0028690Y0046543D01*
X0028655Y0046635D01*
X0028622Y0046727D01*
X0028594Y0046821D01*
X0028569Y0046916D01*
X0028548Y0047012D01*
X0028531Y0047109D01*
X0028517Y0047206D01*
X0028508Y0047304D01*
X0028502Y0047402D01*
X0028500Y0047500D01*
X0056200Y0061000D02*
X0056202Y0061138D01*
X0056208Y0061277D01*
X0056218Y0061415D01*
X0056232Y0061552D01*
X0056250Y0061689D01*
X0056272Y0061826D01*
X0056297Y0061962D01*
X0056327Y0062097D01*
X0056361Y0062231D01*
X0056398Y0062364D01*
X0056439Y0062496D01*
X0056484Y0062627D01*
X0056533Y0062757D01*
X0056585Y0062885D01*
X0056642Y0063011D01*
X0056701Y0063136D01*
X0056765Y0063259D01*
X0056832Y0063380D01*
X0056902Y0063499D01*
X0056976Y0063616D01*
X0057053Y0063731D01*
X0057133Y0063844D01*
X0057217Y0063954D01*
X0057303Y0064062D01*
X0057393Y0064167D01*
X0057486Y0064270D01*
X0057582Y0064370D01*
X0057680Y0064467D01*
X0057781Y0064561D01*
X0057885Y0064652D01*
X0057992Y0064740D01*
X0058101Y0064826D01*
X0058212Y0064908D01*
X0058326Y0064986D01*
X0058442Y0065062D01*
X0058560Y0065134D01*
X0058680Y0065202D01*
X0058802Y0065267D01*
X0058926Y0065329D01*
X0059052Y0065387D01*
X0059179Y0065441D01*
X0059308Y0065492D01*
X0059438Y0065539D01*
X0059569Y0065582D01*
X0059702Y0065621D01*
X0059836Y0065657D01*
X0059970Y0065688D01*
X0060106Y0065716D01*
X0060242Y0065740D01*
X0060379Y0065760D01*
X0060517Y0065776D01*
X0060654Y0065788D01*
X0060793Y0065796D01*
X0060931Y0065800D01*
X0061069Y0065800D01*
X0061207Y0065796D01*
X0061346Y0065788D01*
X0061483Y0065776D01*
X0061621Y0065760D01*
X0061758Y0065740D01*
X0061894Y0065716D01*
X0062030Y0065688D01*
X0062164Y0065657D01*
X0062298Y0065621D01*
X0062431Y0065582D01*
X0062562Y0065539D01*
X0062692Y0065492D01*
X0062821Y0065441D01*
X0062948Y0065387D01*
X0063074Y0065329D01*
X0063198Y0065267D01*
X0063320Y0065202D01*
X0063440Y0065134D01*
X0063558Y0065062D01*
X0063674Y0064986D01*
X0063788Y0064908D01*
X0063899Y0064826D01*
X0064008Y0064740D01*
X0064115Y0064652D01*
X0064219Y0064561D01*
X0064320Y0064467D01*
X0064418Y0064370D01*
X0064514Y0064270D01*
X0064607Y0064167D01*
X0064697Y0064062D01*
X0064783Y0063954D01*
X0064867Y0063844D01*
X0064947Y0063731D01*
X0065024Y0063616D01*
X0065098Y0063499D01*
X0065168Y0063380D01*
X0065235Y0063259D01*
X0065299Y0063136D01*
X0065358Y0063011D01*
X0065415Y0062885D01*
X0065467Y0062757D01*
X0065516Y0062627D01*
X0065561Y0062496D01*
X0065602Y0062364D01*
X0065639Y0062231D01*
X0065673Y0062097D01*
X0065703Y0061962D01*
X0065728Y0061826D01*
X0065750Y0061689D01*
X0065768Y0061552D01*
X0065782Y0061415D01*
X0065792Y0061277D01*
X0065798Y0061138D01*
X0065800Y0061000D01*
X0065798Y0060862D01*
X0065792Y0060723D01*
X0065782Y0060585D01*
X0065768Y0060448D01*
X0065750Y0060311D01*
X0065728Y0060174D01*
X0065703Y0060038D01*
X0065673Y0059903D01*
X0065639Y0059769D01*
X0065602Y0059636D01*
X0065561Y0059504D01*
X0065516Y0059373D01*
X0065467Y0059243D01*
X0065415Y0059115D01*
X0065358Y0058989D01*
X0065299Y0058864D01*
X0065235Y0058741D01*
X0065168Y0058620D01*
X0065098Y0058501D01*
X0065024Y0058384D01*
X0064947Y0058269D01*
X0064867Y0058156D01*
X0064783Y0058046D01*
X0064697Y0057938D01*
X0064607Y0057833D01*
X0064514Y0057730D01*
X0064418Y0057630D01*
X0064320Y0057533D01*
X0064219Y0057439D01*
X0064115Y0057348D01*
X0064008Y0057260D01*
X0063899Y0057174D01*
X0063788Y0057092D01*
X0063674Y0057014D01*
X0063558Y0056938D01*
X0063440Y0056866D01*
X0063320Y0056798D01*
X0063198Y0056733D01*
X0063074Y0056671D01*
X0062948Y0056613D01*
X0062821Y0056559D01*
X0062692Y0056508D01*
X0062562Y0056461D01*
X0062431Y0056418D01*
X0062298Y0056379D01*
X0062164Y0056343D01*
X0062030Y0056312D01*
X0061894Y0056284D01*
X0061758Y0056260D01*
X0061621Y0056240D01*
X0061483Y0056224D01*
X0061346Y0056212D01*
X0061207Y0056204D01*
X0061069Y0056200D01*
X0060931Y0056200D01*
X0060793Y0056204D01*
X0060654Y0056212D01*
X0060517Y0056224D01*
X0060379Y0056240D01*
X0060242Y0056260D01*
X0060106Y0056284D01*
X0059970Y0056312D01*
X0059836Y0056343D01*
X0059702Y0056379D01*
X0059569Y0056418D01*
X0059438Y0056461D01*
X0059308Y0056508D01*
X0059179Y0056559D01*
X0059052Y0056613D01*
X0058926Y0056671D01*
X0058802Y0056733D01*
X0058680Y0056798D01*
X0058560Y0056866D01*
X0058442Y0056938D01*
X0058326Y0057014D01*
X0058212Y0057092D01*
X0058101Y0057174D01*
X0057992Y0057260D01*
X0057885Y0057348D01*
X0057781Y0057439D01*
X0057680Y0057533D01*
X0057582Y0057630D01*
X0057486Y0057730D01*
X0057393Y0057833D01*
X0057303Y0057938D01*
X0057217Y0058046D01*
X0057133Y0058156D01*
X0057053Y0058269D01*
X0056976Y0058384D01*
X0056902Y0058501D01*
X0056832Y0058620D01*
X0056765Y0058741D01*
X0056701Y0058864D01*
X0056642Y0058989D01*
X0056585Y0059115D01*
X0056533Y0059243D01*
X0056484Y0059373D01*
X0056439Y0059504D01*
X0056398Y0059636D01*
X0056361Y0059769D01*
X0056327Y0059903D01*
X0056297Y0060038D01*
X0056272Y0060174D01*
X0056250Y0060311D01*
X0056232Y0060448D01*
X0056218Y0060585D01*
X0056208Y0060723D01*
X0056202Y0060862D01*
X0056200Y0061000D01*
D11*
X0051000Y0036625D03*
X0051000Y0035375D03*
X0081000Y0026625D03*
X0081000Y0025375D03*
D12*
X0080948Y0025548D02*
X0080948Y0024580D01*
X0081431Y0024097D01*
X0081915Y0024097D01*
X0082399Y0024580D01*
X0082399Y0025548D01*
X0082883Y0026031D01*
X0083366Y0026031D01*
X0083850Y0025548D01*
X0083850Y0024580D01*
X0083366Y0024097D01*
X0083850Y0023085D02*
X0083850Y0021150D01*
X0081915Y0023085D01*
X0081431Y0023085D01*
X0080948Y0022601D01*
X0080948Y0021634D01*
X0081431Y0021150D01*
X0075936Y0024150D02*
X0073467Y0024150D01*
X0075936Y0026619D01*
X0075936Y0027236D01*
X0075318Y0027853D01*
X0074084Y0027853D01*
X0073467Y0027236D01*
X0072252Y0027236D02*
X0071635Y0027853D01*
X0070401Y0027853D01*
X0069784Y0027236D01*
X0069784Y0024767D01*
X0070401Y0024150D01*
X0071635Y0024150D01*
X0072252Y0024767D01*
X0080948Y0025548D02*
X0081431Y0026031D01*
X0081431Y0027043D02*
X0083366Y0027043D01*
X0083850Y0027527D01*
X0083850Y0028494D01*
X0083366Y0028978D01*
X0083366Y0029990D02*
X0083850Y0030473D01*
X0083850Y0031441D01*
X0083366Y0031925D01*
X0081431Y0031925D01*
X0080948Y0031441D01*
X0080948Y0030473D01*
X0081431Y0029990D01*
X0081915Y0029990D01*
X0082399Y0030473D01*
X0082399Y0031925D01*
X0083366Y0032936D02*
X0081431Y0032936D01*
X0080948Y0033420D01*
X0080948Y0034387D01*
X0081431Y0034871D01*
X0083366Y0032936D01*
X0083850Y0033420D01*
X0083850Y0034387D01*
X0083366Y0034871D01*
X0081431Y0034871D01*
X0081915Y0035883D02*
X0080948Y0036850D01*
X0083850Y0036850D01*
X0083850Y0035883D02*
X0083850Y0037818D01*
X0082399Y0038829D02*
X0082399Y0040764D01*
X0083850Y0040280D02*
X0080948Y0040280D01*
X0082399Y0038829D01*
X0081431Y0028978D02*
X0080948Y0028494D01*
X0080948Y0027527D01*
X0081431Y0027043D01*
X0082138Y0016352D02*
X0080203Y0016352D01*
X0080203Y0013450D01*
X0079192Y0013934D02*
X0078708Y0013450D01*
X0077257Y0013450D01*
X0077257Y0012483D02*
X0077257Y0015385D01*
X0078708Y0015385D01*
X0079192Y0014901D01*
X0079192Y0013934D01*
X0080203Y0014901D02*
X0081171Y0014901D01*
X0076245Y0015869D02*
X0074310Y0013934D01*
X0074310Y0013450D01*
X0073321Y0013450D02*
X0072837Y0013450D01*
X0072837Y0013934D01*
X0073321Y0013934D01*
X0073321Y0013450D01*
X0071342Y0013450D02*
X0071342Y0016352D01*
X0069891Y0014901D01*
X0071826Y0014901D01*
X0074310Y0016352D02*
X0076245Y0016352D01*
X0076245Y0015869D01*
X0052138Y0026352D02*
X0050203Y0026352D01*
X0050203Y0023450D01*
X0049192Y0023450D02*
X0049192Y0024901D01*
X0048708Y0025385D01*
X0047257Y0025385D01*
X0047257Y0023450D01*
X0046245Y0023450D02*
X0044310Y0023450D01*
X0045278Y0023450D02*
X0045278Y0026352D01*
X0044310Y0025385D01*
X0050203Y0024901D02*
X0051171Y0024901D01*
X0045318Y0034150D02*
X0044084Y0034150D01*
X0043467Y0034767D01*
X0042252Y0034767D02*
X0041635Y0034150D01*
X0040401Y0034150D01*
X0039784Y0034767D01*
X0039784Y0037236D01*
X0040401Y0037853D01*
X0041635Y0037853D01*
X0042252Y0037236D01*
X0043467Y0037236D02*
X0044084Y0037853D01*
X0045318Y0037853D01*
X0045936Y0037236D01*
X0045936Y0036619D01*
X0045318Y0036002D01*
X0045936Y0035384D01*
X0045936Y0034767D01*
X0045318Y0034150D01*
X0045318Y0036002D02*
X0044701Y0036002D01*
X0037638Y0035369D02*
X0037638Y0034401D01*
X0037155Y0033917D01*
X0035703Y0033917D01*
X0035703Y0032950D02*
X0035703Y0035852D01*
X0037155Y0035852D01*
X0037638Y0035369D01*
X0034692Y0035369D02*
X0034692Y0034885D01*
X0034208Y0034401D01*
X0034692Y0033917D01*
X0034692Y0033434D01*
X0034208Y0032950D01*
X0033241Y0032950D01*
X0032757Y0033434D01*
X0033724Y0034401D02*
X0034208Y0034401D01*
X0034692Y0035369D02*
X0034208Y0035852D01*
X0033241Y0035852D01*
X0032757Y0035369D01*
X0031745Y0034401D02*
X0029810Y0034401D01*
X0028799Y0034401D02*
X0028315Y0033917D01*
X0026864Y0033917D01*
X0026864Y0032950D02*
X0026864Y0035852D01*
X0028315Y0035852D01*
X0028799Y0035369D01*
X0028799Y0034401D01*
X0025852Y0033917D02*
X0025852Y0033434D01*
X0025369Y0032950D01*
X0024401Y0032950D01*
X0023917Y0033434D01*
X0024885Y0034401D02*
X0025369Y0034401D01*
X0025852Y0033917D01*
X0025369Y0034401D02*
X0025852Y0034885D01*
X0025852Y0035369D01*
X0025369Y0035852D01*
X0024401Y0035852D01*
X0023917Y0035369D01*
X0022906Y0034401D02*
X0020971Y0034401D01*
X0019959Y0032950D02*
X0019959Y0035852D01*
X0018024Y0035852D02*
X0019959Y0032950D01*
X0018024Y0032950D02*
X0018024Y0035852D01*
X0017013Y0035852D02*
X0017013Y0032950D01*
X0015078Y0035852D01*
X0015078Y0032950D01*
X0014066Y0033434D02*
X0014066Y0035369D01*
X0013583Y0035852D01*
X0012615Y0035852D01*
X0012131Y0035369D01*
X0012131Y0033434D01*
X0012615Y0032950D01*
X0013583Y0032950D01*
X0014066Y0033434D01*
X0011120Y0033434D02*
X0010636Y0032950D01*
X0009669Y0032950D01*
X0009185Y0033434D01*
X0009185Y0035369D01*
X0009669Y0035852D01*
X0010636Y0035852D01*
X0011120Y0035369D01*
X0024748Y0048687D02*
X0025231Y0048203D01*
X0027166Y0048203D01*
X0027650Y0048687D01*
X0027650Y0049655D01*
X0027166Y0050138D01*
X0026199Y0051150D02*
X0026199Y0053085D01*
X0027650Y0052601D02*
X0024748Y0052601D01*
X0026199Y0051150D01*
X0025231Y0050138D02*
X0024748Y0049655D01*
X0024748Y0048687D01*
X0034348Y0048687D02*
X0034831Y0048203D01*
X0036766Y0048203D01*
X0034831Y0050138D01*
X0036766Y0050138D01*
X0037250Y0049655D01*
X0037250Y0048687D01*
X0036766Y0048203D01*
X0037250Y0047192D02*
X0037250Y0045257D01*
X0037250Y0046224D02*
X0034348Y0046224D01*
X0035315Y0045257D01*
X0034348Y0048687D02*
X0034348Y0049655D01*
X0034831Y0050138D01*
X0035315Y0051150D02*
X0035315Y0052601D01*
X0035799Y0053085D01*
X0037250Y0053085D01*
X0037250Y0054097D02*
X0034348Y0054097D01*
X0034348Y0056031D01*
X0035799Y0055064D02*
X0035799Y0054097D01*
X0035315Y0051150D02*
X0037250Y0051150D01*
X0051147Y0058084D02*
X0051764Y0057467D01*
X0054233Y0057467D01*
X0054850Y0058084D01*
X0054850Y0059318D01*
X0054233Y0059936D01*
X0054850Y0061150D02*
X0054850Y0063619D01*
X0054850Y0062384D02*
X0051147Y0062384D01*
X0052381Y0061150D01*
X0051764Y0059936D02*
X0051147Y0059318D01*
X0051147Y0058084D01*
X0067948Y0056455D02*
X0068431Y0055488D01*
X0069399Y0054520D01*
X0069399Y0055972D01*
X0069883Y0056455D01*
X0070366Y0056455D01*
X0070850Y0055972D01*
X0070850Y0055004D01*
X0070366Y0054520D01*
X0069399Y0054520D01*
X0070366Y0053531D02*
X0070850Y0053531D01*
X0070850Y0053047D01*
X0070366Y0053047D01*
X0070366Y0053531D01*
X0070850Y0052036D02*
X0070850Y0050101D01*
X0070850Y0051068D02*
X0067948Y0051068D01*
X0068915Y0050101D01*
X0069399Y0057467D02*
X0069399Y0059402D01*
X0068915Y0060413D02*
X0067948Y0061381D01*
X0070850Y0061381D01*
X0070850Y0062348D02*
X0070850Y0060413D01*
X0070366Y0063360D02*
X0070850Y0063844D01*
X0070850Y0064811D01*
X0070366Y0065295D01*
X0069399Y0065295D01*
X0068915Y0064811D01*
X0068915Y0064327D01*
X0069399Y0063360D01*
X0067948Y0063360D01*
X0067948Y0065295D01*
X0068915Y0066306D02*
X0068915Y0067758D01*
X0069399Y0068241D01*
X0070366Y0068241D01*
X0070850Y0067758D01*
X0070850Y0066306D01*
X0071817Y0066306D02*
X0068915Y0066306D01*
X0069399Y0069253D02*
X0069399Y0070220D01*
X0070850Y0069253D02*
X0067948Y0069253D01*
X0067948Y0071188D01*
X0081548Y0059558D02*
X0084450Y0059558D01*
X0082999Y0059558D02*
X0082999Y0057623D01*
X0082999Y0056612D02*
X0083966Y0056612D01*
X0084450Y0056128D01*
X0084450Y0055644D01*
X0083966Y0055160D01*
X0084934Y0055160D01*
X0085417Y0054677D01*
X0084450Y0053665D02*
X0084450Y0051730D01*
X0084450Y0052698D02*
X0081548Y0052698D01*
X0082515Y0051730D01*
X0082999Y0055160D02*
X0083966Y0055160D01*
X0084450Y0057623D02*
X0081548Y0057623D01*
X0097548Y0057601D02*
X0097548Y0056634D01*
X0098031Y0056150D01*
X0097548Y0057601D02*
X0098031Y0058085D01*
X0098515Y0058085D01*
X0100450Y0056150D01*
X0100450Y0058085D01*
X0100450Y0055138D02*
X0100450Y0053203D01*
X0097548Y0053203D01*
X0036201Y0010853D02*
X0036201Y0007150D01*
X0034967Y0007150D02*
X0037436Y0007150D01*
X0034967Y0009619D02*
X0036201Y0010853D01*
X0033752Y0010853D02*
X0032518Y0010853D01*
X0033135Y0010853D02*
X0033135Y0007767D01*
X0032518Y0007150D01*
X0031901Y0007150D01*
X0031284Y0007767D01*
D13*
X0038000Y0041000D02*
X0044000Y0041000D01*
X0044060Y0041002D01*
X0044121Y0041007D01*
X0044180Y0041016D01*
X0044239Y0041029D01*
X0044298Y0041045D01*
X0044355Y0041065D01*
X0044410Y0041088D01*
X0044465Y0041115D01*
X0044517Y0041144D01*
X0044568Y0041177D01*
X0044617Y0041213D01*
X0044663Y0041251D01*
X0044707Y0041293D01*
X0044749Y0041337D01*
X0044787Y0041383D01*
X0044823Y0041432D01*
X0044856Y0041483D01*
X0044885Y0041535D01*
X0044912Y0041590D01*
X0044935Y0041645D01*
X0044955Y0041702D01*
X0044971Y0041761D01*
X0044984Y0041820D01*
X0044993Y0041879D01*
X0044998Y0041940D01*
X0045000Y0042000D01*
X0045000Y0043500D01*
X0044500Y0044000D01*
X0044500Y0058000D01*
X0045000Y0058500D01*
X0045000Y0060000D01*
X0044998Y0060060D01*
X0044993Y0060121D01*
X0044984Y0060180D01*
X0044971Y0060239D01*
X0044955Y0060298D01*
X0044935Y0060355D01*
X0044912Y0060410D01*
X0044885Y0060465D01*
X0044856Y0060517D01*
X0044823Y0060568D01*
X0044787Y0060617D01*
X0044749Y0060663D01*
X0044707Y0060707D01*
X0044663Y0060749D01*
X0044617Y0060787D01*
X0044568Y0060823D01*
X0044517Y0060856D01*
X0044465Y0060885D01*
X0044410Y0060912D01*
X0044355Y0060935D01*
X0044298Y0060955D01*
X0044239Y0060971D01*
X0044180Y0060984D01*
X0044121Y0060993D01*
X0044060Y0060998D01*
X0044000Y0061000D01*
X0038000Y0061000D01*
X0037940Y0060998D01*
X0037879Y0060993D01*
X0037820Y0060984D01*
X0037761Y0060971D01*
X0037702Y0060955D01*
X0037645Y0060935D01*
X0037590Y0060912D01*
X0037535Y0060885D01*
X0037483Y0060856D01*
X0037432Y0060823D01*
X0037383Y0060787D01*
X0037337Y0060749D01*
X0037293Y0060707D01*
X0037251Y0060663D01*
X0037213Y0060617D01*
X0037177Y0060568D01*
X0037144Y0060517D01*
X0037115Y0060465D01*
X0037088Y0060410D01*
X0037065Y0060355D01*
X0037045Y0060298D01*
X0037029Y0060239D01*
X0037016Y0060180D01*
X0037007Y0060121D01*
X0037002Y0060060D01*
X0037000Y0060000D01*
X0037000Y0058500D01*
X0037500Y0058000D01*
X0037500Y0044000D01*
X0037000Y0043500D01*
X0037000Y0042000D01*
X0037002Y0041940D01*
X0037007Y0041879D01*
X0037016Y0041820D01*
X0037029Y0041761D01*
X0037045Y0041702D01*
X0037065Y0041645D01*
X0037088Y0041590D01*
X0037115Y0041535D01*
X0037144Y0041483D01*
X0037177Y0041432D01*
X0037213Y0041383D01*
X0037251Y0041337D01*
X0037293Y0041293D01*
X0037337Y0041251D01*
X0037383Y0041213D01*
X0037432Y0041177D01*
X0037483Y0041144D01*
X0037535Y0041115D01*
X0037590Y0041088D01*
X0037645Y0041065D01*
X0037702Y0041045D01*
X0037761Y0041029D01*
X0037820Y0041016D01*
X0037879Y0041007D01*
X0037940Y0041002D01*
X0038000Y0041000D01*
X0037940Y0041002D01*
X0037879Y0041007D01*
X0037820Y0041016D01*
X0037761Y0041029D01*
X0037702Y0041045D01*
X0037645Y0041065D01*
X0037590Y0041088D01*
X0037535Y0041115D01*
X0037483Y0041144D01*
X0037432Y0041177D01*
X0037383Y0041213D01*
X0037337Y0041251D01*
X0037293Y0041293D01*
X0037251Y0041337D01*
X0037213Y0041383D01*
X0037177Y0041432D01*
X0037144Y0041483D01*
X0037115Y0041535D01*
X0037088Y0041590D01*
X0037065Y0041645D01*
X0037045Y0041702D01*
X0037029Y0041761D01*
X0037016Y0041820D01*
X0037007Y0041879D01*
X0037002Y0041940D01*
X0037000Y0042000D01*
X0044000Y0041000D02*
X0044060Y0041002D01*
X0044121Y0041007D01*
X0044180Y0041016D01*
X0044239Y0041029D01*
X0044298Y0041045D01*
X0044355Y0041065D01*
X0044410Y0041088D01*
X0044465Y0041115D01*
X0044517Y0041144D01*
X0044568Y0041177D01*
X0044617Y0041213D01*
X0044663Y0041251D01*
X0044707Y0041293D01*
X0044749Y0041337D01*
X0044787Y0041383D01*
X0044823Y0041432D01*
X0044856Y0041483D01*
X0044885Y0041535D01*
X0044912Y0041590D01*
X0044935Y0041645D01*
X0044955Y0041702D01*
X0044971Y0041761D01*
X0044984Y0041820D01*
X0044993Y0041879D01*
X0044998Y0041940D01*
X0045000Y0042000D01*
X0025000Y0042000D02*
X0025000Y0043500D01*
X0024500Y0044000D01*
X0024500Y0058000D01*
X0025000Y0058500D01*
X0025000Y0060000D01*
X0024998Y0060060D01*
X0024993Y0060121D01*
X0024984Y0060180D01*
X0024971Y0060239D01*
X0024955Y0060298D01*
X0024935Y0060355D01*
X0024912Y0060410D01*
X0024885Y0060465D01*
X0024856Y0060517D01*
X0024823Y0060568D01*
X0024787Y0060617D01*
X0024749Y0060663D01*
X0024707Y0060707D01*
X0024663Y0060749D01*
X0024617Y0060787D01*
X0024568Y0060823D01*
X0024517Y0060856D01*
X0024465Y0060885D01*
X0024410Y0060912D01*
X0024355Y0060935D01*
X0024298Y0060955D01*
X0024239Y0060971D01*
X0024180Y0060984D01*
X0024121Y0060993D01*
X0024060Y0060998D01*
X0024000Y0061000D01*
X0018000Y0061000D01*
X0017940Y0060998D01*
X0017879Y0060993D01*
X0017820Y0060984D01*
X0017761Y0060971D01*
X0017702Y0060955D01*
X0017645Y0060935D01*
X0017590Y0060912D01*
X0017535Y0060885D01*
X0017483Y0060856D01*
X0017432Y0060823D01*
X0017383Y0060787D01*
X0017337Y0060749D01*
X0017293Y0060707D01*
X0017251Y0060663D01*
X0017213Y0060617D01*
X0017177Y0060568D01*
X0017144Y0060517D01*
X0017115Y0060465D01*
X0017088Y0060410D01*
X0017065Y0060355D01*
X0017045Y0060298D01*
X0017029Y0060239D01*
X0017016Y0060180D01*
X0017007Y0060121D01*
X0017002Y0060060D01*
X0017000Y0060000D01*
X0017000Y0058500D01*
X0017500Y0058000D01*
X0017500Y0044000D01*
X0017000Y0043500D01*
X0017000Y0042000D01*
X0017002Y0041940D01*
X0017007Y0041879D01*
X0017016Y0041820D01*
X0017029Y0041761D01*
X0017045Y0041702D01*
X0017065Y0041645D01*
X0017088Y0041590D01*
X0017115Y0041535D01*
X0017144Y0041483D01*
X0017177Y0041432D01*
X0017213Y0041383D01*
X0017251Y0041337D01*
X0017293Y0041293D01*
X0017337Y0041251D01*
X0017383Y0041213D01*
X0017432Y0041177D01*
X0017483Y0041144D01*
X0017535Y0041115D01*
X0017590Y0041088D01*
X0017645Y0041065D01*
X0017702Y0041045D01*
X0017761Y0041029D01*
X0017820Y0041016D01*
X0017879Y0041007D01*
X0017940Y0041002D01*
X0018000Y0041000D01*
X0024000Y0041000D01*
X0024060Y0041002D01*
X0024121Y0041007D01*
X0024180Y0041016D01*
X0024239Y0041029D01*
X0024298Y0041045D01*
X0024355Y0041065D01*
X0024410Y0041088D01*
X0024465Y0041115D01*
X0024517Y0041144D01*
X0024568Y0041177D01*
X0024617Y0041213D01*
X0024663Y0041251D01*
X0024707Y0041293D01*
X0024749Y0041337D01*
X0024787Y0041383D01*
X0024823Y0041432D01*
X0024856Y0041483D01*
X0024885Y0041535D01*
X0024912Y0041590D01*
X0024935Y0041645D01*
X0024955Y0041702D01*
X0024971Y0041761D01*
X0024984Y0041820D01*
X0024993Y0041879D01*
X0024998Y0041940D01*
X0025000Y0042000D01*
X0024998Y0041940D01*
X0024993Y0041879D01*
X0024984Y0041820D01*
X0024971Y0041761D01*
X0024955Y0041702D01*
X0024935Y0041645D01*
X0024912Y0041590D01*
X0024885Y0041535D01*
X0024856Y0041483D01*
X0024823Y0041432D01*
X0024787Y0041383D01*
X0024749Y0041337D01*
X0024707Y0041293D01*
X0024663Y0041251D01*
X0024617Y0041213D01*
X0024568Y0041177D01*
X0024517Y0041144D01*
X0024465Y0041115D01*
X0024410Y0041088D01*
X0024355Y0041065D01*
X0024298Y0041045D01*
X0024239Y0041029D01*
X0024180Y0041016D01*
X0024121Y0041007D01*
X0024060Y0041002D01*
X0024000Y0041000D01*
X0018000Y0041000D02*
X0017940Y0041002D01*
X0017879Y0041007D01*
X0017820Y0041016D01*
X0017761Y0041029D01*
X0017702Y0041045D01*
X0017645Y0041065D01*
X0017590Y0041088D01*
X0017535Y0041115D01*
X0017483Y0041144D01*
X0017432Y0041177D01*
X0017383Y0041213D01*
X0017337Y0041251D01*
X0017293Y0041293D01*
X0017251Y0041337D01*
X0017213Y0041383D01*
X0017177Y0041432D01*
X0017144Y0041483D01*
X0017115Y0041535D01*
X0017088Y0041590D01*
X0017065Y0041645D01*
X0017045Y0041702D01*
X0017029Y0041761D01*
X0017016Y0041820D01*
X0017007Y0041879D01*
X0017002Y0041940D01*
X0017000Y0042000D01*
X0015000Y0042000D02*
X0015000Y0043500D01*
X0014500Y0044000D01*
X0014500Y0058000D01*
X0015000Y0058500D01*
X0015000Y0060000D01*
X0014998Y0060060D01*
X0014993Y0060121D01*
X0014984Y0060180D01*
X0014971Y0060239D01*
X0014955Y0060298D01*
X0014935Y0060355D01*
X0014912Y0060410D01*
X0014885Y0060465D01*
X0014856Y0060517D01*
X0014823Y0060568D01*
X0014787Y0060617D01*
X0014749Y0060663D01*
X0014707Y0060707D01*
X0014663Y0060749D01*
X0014617Y0060787D01*
X0014568Y0060823D01*
X0014517Y0060856D01*
X0014465Y0060885D01*
X0014410Y0060912D01*
X0014355Y0060935D01*
X0014298Y0060955D01*
X0014239Y0060971D01*
X0014180Y0060984D01*
X0014121Y0060993D01*
X0014060Y0060998D01*
X0014000Y0061000D01*
X0008000Y0061000D01*
X0007940Y0060998D01*
X0007879Y0060993D01*
X0007820Y0060984D01*
X0007761Y0060971D01*
X0007702Y0060955D01*
X0007645Y0060935D01*
X0007590Y0060912D01*
X0007535Y0060885D01*
X0007483Y0060856D01*
X0007432Y0060823D01*
X0007383Y0060787D01*
X0007337Y0060749D01*
X0007293Y0060707D01*
X0007251Y0060663D01*
X0007213Y0060617D01*
X0007177Y0060568D01*
X0007144Y0060517D01*
X0007115Y0060465D01*
X0007088Y0060410D01*
X0007065Y0060355D01*
X0007045Y0060298D01*
X0007029Y0060239D01*
X0007016Y0060180D01*
X0007007Y0060121D01*
X0007002Y0060060D01*
X0007000Y0060000D01*
X0007000Y0058500D01*
X0007500Y0058000D01*
X0007500Y0044000D01*
X0007000Y0043500D01*
X0007000Y0042000D01*
X0007002Y0041940D01*
X0007007Y0041879D01*
X0007016Y0041820D01*
X0007029Y0041761D01*
X0007045Y0041702D01*
X0007065Y0041645D01*
X0007088Y0041590D01*
X0007115Y0041535D01*
X0007144Y0041483D01*
X0007177Y0041432D01*
X0007213Y0041383D01*
X0007251Y0041337D01*
X0007293Y0041293D01*
X0007337Y0041251D01*
X0007383Y0041213D01*
X0007432Y0041177D01*
X0007483Y0041144D01*
X0007535Y0041115D01*
X0007590Y0041088D01*
X0007645Y0041065D01*
X0007702Y0041045D01*
X0007761Y0041029D01*
X0007820Y0041016D01*
X0007879Y0041007D01*
X0007940Y0041002D01*
X0008000Y0041000D01*
X0014000Y0041000D01*
X0014060Y0041002D01*
X0014121Y0041007D01*
X0014180Y0041016D01*
X0014239Y0041029D01*
X0014298Y0041045D01*
X0014355Y0041065D01*
X0014410Y0041088D01*
X0014465Y0041115D01*
X0014517Y0041144D01*
X0014568Y0041177D01*
X0014617Y0041213D01*
X0014663Y0041251D01*
X0014707Y0041293D01*
X0014749Y0041337D01*
X0014787Y0041383D01*
X0014823Y0041432D01*
X0014856Y0041483D01*
X0014885Y0041535D01*
X0014912Y0041590D01*
X0014935Y0041645D01*
X0014955Y0041702D01*
X0014971Y0041761D01*
X0014984Y0041820D01*
X0014993Y0041879D01*
X0014998Y0041940D01*
X0015000Y0042000D01*
X0014998Y0041940D01*
X0014993Y0041879D01*
X0014984Y0041820D01*
X0014971Y0041761D01*
X0014955Y0041702D01*
X0014935Y0041645D01*
X0014912Y0041590D01*
X0014885Y0041535D01*
X0014856Y0041483D01*
X0014823Y0041432D01*
X0014787Y0041383D01*
X0014749Y0041337D01*
X0014707Y0041293D01*
X0014663Y0041251D01*
X0014617Y0041213D01*
X0014568Y0041177D01*
X0014517Y0041144D01*
X0014465Y0041115D01*
X0014410Y0041088D01*
X0014355Y0041065D01*
X0014298Y0041045D01*
X0014239Y0041029D01*
X0014180Y0041016D01*
X0014121Y0041007D01*
X0014060Y0041002D01*
X0014000Y0041000D01*
X0008000Y0041000D02*
X0007940Y0041002D01*
X0007879Y0041007D01*
X0007820Y0041016D01*
X0007761Y0041029D01*
X0007702Y0041045D01*
X0007645Y0041065D01*
X0007590Y0041088D01*
X0007535Y0041115D01*
X0007483Y0041144D01*
X0007432Y0041177D01*
X0007383Y0041213D01*
X0007337Y0041251D01*
X0007293Y0041293D01*
X0007251Y0041337D01*
X0007213Y0041383D01*
X0007177Y0041432D01*
X0007144Y0041483D01*
X0007115Y0041535D01*
X0007088Y0041590D01*
X0007065Y0041645D01*
X0007045Y0041702D01*
X0007029Y0041761D01*
X0007016Y0041820D01*
X0007007Y0041879D01*
X0007002Y0041940D01*
X0007000Y0042000D01*
X0007000Y0060000D02*
X0007002Y0060060D01*
X0007007Y0060121D01*
X0007016Y0060180D01*
X0007029Y0060239D01*
X0007045Y0060298D01*
X0007065Y0060355D01*
X0007088Y0060410D01*
X0007115Y0060465D01*
X0007144Y0060517D01*
X0007177Y0060568D01*
X0007213Y0060617D01*
X0007251Y0060663D01*
X0007293Y0060707D01*
X0007337Y0060749D01*
X0007383Y0060787D01*
X0007432Y0060823D01*
X0007483Y0060856D01*
X0007535Y0060885D01*
X0007590Y0060912D01*
X0007645Y0060935D01*
X0007702Y0060955D01*
X0007761Y0060971D01*
X0007820Y0060984D01*
X0007879Y0060993D01*
X0007940Y0060998D01*
X0008000Y0061000D01*
X0014000Y0061000D02*
X0014060Y0060998D01*
X0014121Y0060993D01*
X0014180Y0060984D01*
X0014239Y0060971D01*
X0014298Y0060955D01*
X0014355Y0060935D01*
X0014410Y0060912D01*
X0014465Y0060885D01*
X0014517Y0060856D01*
X0014568Y0060823D01*
X0014617Y0060787D01*
X0014663Y0060749D01*
X0014707Y0060707D01*
X0014749Y0060663D01*
X0014787Y0060617D01*
X0014823Y0060568D01*
X0014856Y0060517D01*
X0014885Y0060465D01*
X0014912Y0060410D01*
X0014935Y0060355D01*
X0014955Y0060298D01*
X0014971Y0060239D01*
X0014984Y0060180D01*
X0014993Y0060121D01*
X0014998Y0060060D01*
X0015000Y0060000D01*
X0017000Y0060000D02*
X0017002Y0060060D01*
X0017007Y0060121D01*
X0017016Y0060180D01*
X0017029Y0060239D01*
X0017045Y0060298D01*
X0017065Y0060355D01*
X0017088Y0060410D01*
X0017115Y0060465D01*
X0017144Y0060517D01*
X0017177Y0060568D01*
X0017213Y0060617D01*
X0017251Y0060663D01*
X0017293Y0060707D01*
X0017337Y0060749D01*
X0017383Y0060787D01*
X0017432Y0060823D01*
X0017483Y0060856D01*
X0017535Y0060885D01*
X0017590Y0060912D01*
X0017645Y0060935D01*
X0017702Y0060955D01*
X0017761Y0060971D01*
X0017820Y0060984D01*
X0017879Y0060993D01*
X0017940Y0060998D01*
X0018000Y0061000D01*
X0024000Y0061000D02*
X0024060Y0060998D01*
X0024121Y0060993D01*
X0024180Y0060984D01*
X0024239Y0060971D01*
X0024298Y0060955D01*
X0024355Y0060935D01*
X0024410Y0060912D01*
X0024465Y0060885D01*
X0024517Y0060856D01*
X0024568Y0060823D01*
X0024617Y0060787D01*
X0024663Y0060749D01*
X0024707Y0060707D01*
X0024749Y0060663D01*
X0024787Y0060617D01*
X0024823Y0060568D01*
X0024856Y0060517D01*
X0024885Y0060465D01*
X0024912Y0060410D01*
X0024935Y0060355D01*
X0024955Y0060298D01*
X0024971Y0060239D01*
X0024984Y0060180D01*
X0024993Y0060121D01*
X0024998Y0060060D01*
X0025000Y0060000D01*
X0037000Y0060000D02*
X0037002Y0060060D01*
X0037007Y0060121D01*
X0037016Y0060180D01*
X0037029Y0060239D01*
X0037045Y0060298D01*
X0037065Y0060355D01*
X0037088Y0060410D01*
X0037115Y0060465D01*
X0037144Y0060517D01*
X0037177Y0060568D01*
X0037213Y0060617D01*
X0037251Y0060663D01*
X0037293Y0060707D01*
X0037337Y0060749D01*
X0037383Y0060787D01*
X0037432Y0060823D01*
X0037483Y0060856D01*
X0037535Y0060885D01*
X0037590Y0060912D01*
X0037645Y0060935D01*
X0037702Y0060955D01*
X0037761Y0060971D01*
X0037820Y0060984D01*
X0037879Y0060993D01*
X0037940Y0060998D01*
X0038000Y0061000D01*
X0044000Y0061000D02*
X0044060Y0060998D01*
X0044121Y0060993D01*
X0044180Y0060984D01*
X0044239Y0060971D01*
X0044298Y0060955D01*
X0044355Y0060935D01*
X0044410Y0060912D01*
X0044465Y0060885D01*
X0044517Y0060856D01*
X0044568Y0060823D01*
X0044617Y0060787D01*
X0044663Y0060749D01*
X0044707Y0060707D01*
X0044749Y0060663D01*
X0044787Y0060617D01*
X0044823Y0060568D01*
X0044856Y0060517D01*
X0044885Y0060465D01*
X0044912Y0060410D01*
X0044935Y0060355D01*
X0044955Y0060298D01*
X0044971Y0060239D01*
X0044984Y0060180D01*
X0044993Y0060121D01*
X0044998Y0060060D01*
X0045000Y0060000D01*
D14*
X0041000Y0061750D03*
X0041000Y0061750D03*
X0021000Y0061750D03*
X0021000Y0061750D03*
X0011000Y0061750D03*
X0011000Y0061750D03*
X0011000Y0040250D03*
X0011000Y0040250D03*
X0021000Y0040250D03*
X0021000Y0040250D03*
X0041000Y0040250D03*
X0041000Y0040250D03*
D15*
X0040632Y0046864D02*
X0039898Y0047598D01*
X0042100Y0047598D01*
X0042100Y0046864D02*
X0042100Y0048332D01*
X0041733Y0049074D02*
X0040265Y0049074D01*
X0039898Y0049441D01*
X0039898Y0050175D01*
X0040265Y0050542D01*
X0041733Y0049074D01*
X0042100Y0049441D01*
X0042100Y0050175D01*
X0041733Y0050542D01*
X0040265Y0050542D01*
X0039898Y0051284D02*
X0042100Y0051284D01*
X0041366Y0051284D02*
X0040632Y0052385D01*
X0040265Y0053126D02*
X0039898Y0053493D01*
X0039898Y0054227D01*
X0040265Y0054594D01*
X0040999Y0054594D01*
X0041366Y0054227D01*
X0042100Y0054227D01*
X0042100Y0054594D01*
X0042100Y0053493D02*
X0041366Y0053493D01*
X0040999Y0053126D01*
X0040265Y0053126D01*
X0042100Y0053126D02*
X0042100Y0053493D01*
X0042100Y0052385D02*
X0041366Y0051284D01*
X0037491Y0063600D02*
X0036757Y0063600D01*
X0036390Y0063967D01*
X0035648Y0063600D02*
X0034914Y0064334D01*
X0035281Y0064334D02*
X0034180Y0064334D01*
X0034180Y0063600D02*
X0034180Y0065802D01*
X0035281Y0065802D01*
X0035648Y0065435D01*
X0035648Y0064701D01*
X0035281Y0064334D01*
X0036390Y0065435D02*
X0036757Y0065802D01*
X0037491Y0065802D01*
X0037858Y0065435D01*
X0037858Y0065068D01*
X0037491Y0064701D01*
X0037858Y0064334D01*
X0037858Y0063967D01*
X0037491Y0063600D01*
X0037491Y0064701D02*
X0037124Y0064701D01*
X0022100Y0054594D02*
X0022100Y0054227D01*
X0021366Y0054227D01*
X0020999Y0054594D01*
X0020265Y0054594D01*
X0019898Y0054227D01*
X0019898Y0053493D01*
X0020265Y0053126D01*
X0020999Y0053126D01*
X0021366Y0053493D01*
X0022100Y0053493D01*
X0022100Y0053126D01*
X0022100Y0052385D02*
X0021366Y0051284D01*
X0020632Y0052385D01*
X0019898Y0051284D02*
X0022100Y0051284D01*
X0020265Y0050542D02*
X0021733Y0049074D01*
X0022100Y0049074D01*
X0022100Y0047965D02*
X0019898Y0047965D01*
X0020999Y0046864D01*
X0020999Y0048332D01*
X0019898Y0049074D02*
X0019898Y0050542D01*
X0020265Y0050542D01*
X0012100Y0051284D02*
X0009898Y0051284D01*
X0009898Y0050542D02*
X0010265Y0050542D01*
X0011733Y0049074D01*
X0012100Y0049074D01*
X0012100Y0047965D02*
X0009898Y0047965D01*
X0010999Y0046864D01*
X0010999Y0048332D01*
X0009898Y0049074D02*
X0009898Y0050542D01*
X0011366Y0051284D02*
X0010632Y0052385D01*
X0010265Y0053126D02*
X0009898Y0053493D01*
X0009898Y0054227D01*
X0010265Y0054594D01*
X0010999Y0054594D01*
X0011366Y0054227D01*
X0012100Y0054227D01*
X0012100Y0054594D01*
X0012100Y0053493D02*
X0011366Y0053493D01*
X0010999Y0053126D01*
X0010265Y0053126D01*
X0012100Y0053126D02*
X0012100Y0053493D01*
X0012100Y0052385D02*
X0011366Y0051284D01*
X0013600Y0038402D02*
X0014701Y0038402D01*
X0015068Y0038035D01*
X0015068Y0037301D01*
X0014701Y0036934D01*
X0013600Y0036934D01*
X0014334Y0036934D02*
X0015068Y0036200D01*
X0015810Y0037301D02*
X0017278Y0037301D01*
X0016911Y0036200D02*
X0016911Y0038402D01*
X0015810Y0037301D01*
X0013600Y0036200D02*
X0013600Y0038402D01*
X0023600Y0038402D02*
X0023600Y0036200D01*
X0023600Y0036934D02*
X0024701Y0036934D01*
X0025068Y0037301D01*
X0025068Y0038035D01*
X0024701Y0038402D01*
X0023600Y0038402D01*
X0024334Y0036934D02*
X0025068Y0036200D01*
X0025810Y0036200D02*
X0027278Y0037668D01*
X0027278Y0038035D01*
X0026911Y0038402D01*
X0026177Y0038402D01*
X0025810Y0038035D01*
X0025810Y0036200D02*
X0027278Y0036200D01*
X0084098Y0010644D02*
X0086300Y0010644D01*
X0084098Y0010644D01*
X0084832Y0009910D01*
X0084098Y0010644D01*
X0084465Y0009168D02*
X0085199Y0009168D01*
X0085566Y0008801D01*
X0085566Y0007700D01*
X0085566Y0008801D01*
X0085199Y0009168D01*
X0084465Y0009168D01*
X0084098Y0008801D01*
X0084098Y0007700D01*
X0086300Y0007700D01*
X0084098Y0007700D01*
X0084098Y0008801D01*
X0084465Y0009168D01*
X0085566Y0008434D02*
X0086300Y0009168D01*
X0085566Y0008434D01*
X0086300Y0009910D02*
X0086300Y0011378D01*
X0086300Y0009910D01*
X0097798Y0010277D02*
X0097798Y0011011D01*
X0098165Y0011378D01*
X0099633Y0009910D01*
X0100000Y0010277D01*
X0100000Y0011011D01*
X0099633Y0011378D01*
X0098165Y0011378D01*
X0099633Y0009910D01*
X0098165Y0009910D01*
X0097798Y0010277D01*
X0097798Y0011011D01*
X0098165Y0011378D01*
X0099633Y0011378D01*
X0100000Y0011011D01*
X0100000Y0010277D01*
X0099633Y0009910D01*
X0098165Y0009910D01*
X0097798Y0010277D01*
X0100000Y0009168D02*
X0100000Y0007700D01*
X0100000Y0009168D01*
X0100000Y0008434D02*
X0097798Y0008434D01*
X0098532Y0007700D01*
X0097798Y0008434D01*
X0100000Y0008434D01*
X0099633Y0012120D02*
X0098165Y0012120D01*
X0097798Y0012487D01*
X0097798Y0013221D01*
X0098165Y0013588D01*
X0099633Y0012120D01*
X0100000Y0012487D01*
X0100000Y0013221D01*
X0099633Y0013588D01*
X0098165Y0013588D01*
X0099633Y0012120D01*
X0100000Y0012487D01*
X0100000Y0013221D01*
X0099633Y0013588D01*
X0098165Y0013588D01*
X0097798Y0013221D01*
X0097798Y0012487D01*
X0098165Y0012120D01*
X0099633Y0012120D01*
X0100000Y0014330D02*
X0100000Y0014697D01*
X0099266Y0014697D01*
X0098899Y0014330D01*
X0098165Y0014330D01*
X0097798Y0014697D01*
X0097798Y0015431D01*
X0098165Y0015798D01*
X0098899Y0015798D01*
X0099266Y0015431D01*
X0100000Y0015431D01*
X0100000Y0015798D01*
X0100000Y0015431D01*
X0099266Y0015431D01*
X0098899Y0015798D01*
X0098165Y0015798D01*
X0097798Y0015431D01*
X0097798Y0014697D01*
X0098165Y0014330D01*
X0098899Y0014330D01*
X0099266Y0014697D01*
X0100000Y0014697D01*
X0100000Y0014330D01*
X0115598Y0013306D02*
X0115598Y0012205D01*
X0117800Y0012205D01*
X0117800Y0013306D01*
X0117433Y0013673D01*
X0115965Y0013673D01*
X0115598Y0013306D01*
X0115598Y0011463D02*
X0117800Y0011463D01*
X0115598Y0009995D01*
X0117800Y0009995D01*
X0117433Y0009253D02*
X0116699Y0009253D01*
X0116699Y0008519D01*
X0115965Y0007785D02*
X0115598Y0008152D01*
X0115598Y0008886D01*
X0115965Y0009253D01*
X0117433Y0009253D02*
X0117800Y0008886D01*
X0117800Y0008152D01*
X0117433Y0007785D01*
X0115965Y0007785D01*
X0116332Y0037785D02*
X0115598Y0038519D01*
X0116332Y0039253D01*
X0117800Y0039253D01*
X0117800Y0039995D02*
X0115598Y0039995D01*
X0117800Y0041463D01*
X0115598Y0041463D01*
X0115598Y0042205D02*
X0115598Y0043673D01*
X0115598Y0042939D02*
X0117800Y0042939D01*
X0116699Y0039253D02*
X0116699Y0037785D01*
X0116332Y0037785D02*
X0117800Y0037785D01*
X0117433Y0068890D02*
X0117800Y0069257D01*
X0117800Y0069991D01*
X0117433Y0070358D01*
X0115965Y0070358D01*
X0115598Y0069991D01*
X0115598Y0069257D01*
X0115965Y0068890D01*
X0116332Y0068890D01*
X0116699Y0069257D01*
X0116699Y0070358D01*
X0117066Y0071100D02*
X0115598Y0071100D01*
X0117066Y0071100D02*
X0117800Y0071834D01*
X0117066Y0072568D01*
X0115598Y0072568D01*
D16*
X0091000Y0016500D02*
X0091000Y0015500D01*
D17*
X0075950Y0023050D02*
X0075950Y0023784D01*
X0075400Y0023417D02*
X0075400Y0023050D01*
X0075950Y0023050D02*
X0074849Y0023050D01*
X0074849Y0023784D01*
X0074849Y0033050D02*
X0074849Y0033600D01*
X0075033Y0033784D01*
X0075216Y0033784D01*
X0075400Y0033600D01*
X0075400Y0033050D01*
X0075950Y0033050D02*
X0074849Y0033050D01*
X0075400Y0033600D02*
X0075583Y0033784D01*
X0075767Y0033784D01*
X0075950Y0033600D01*
X0075950Y0033050D01*
X0075767Y0043050D02*
X0075033Y0043050D01*
X0074849Y0043233D01*
X0074849Y0043600D01*
X0075033Y0043784D01*
X0075767Y0043784D02*
X0075950Y0043600D01*
X0075950Y0043233D01*
X0075767Y0043050D01*
D18*
X0058800Y0027285D02*
X0058800Y0024883D01*
X0058800Y0026084D02*
X0055197Y0026084D01*
X0056398Y0024883D01*
X0055197Y0023602D02*
X0055197Y0021200D01*
X0055197Y0022401D02*
X0058800Y0022401D01*
D19*
X0031000Y0050000D03*
X0031000Y0052000D03*
M02*
