G75*
%MOIN*%
%OFA0B0*%
%FSLAX25Y25*%
%IPPOS*%
%LPD*%
%AMOC8*
5,1,8,0,0,1.08239X$1,22.5*
%
%ADD10C,0.00600*%
%ADD11C,0.00200*%
%ADD12C,0.00400*%
%ADD13R,0.01000X0.04000*%
%ADD14C,0.00300*%
%ADD15C,0.00500*%
%ADD16R,0.02000X0.01500*%
%ADD17R,0.01500X0.02000*%
%ADD18C,0.00100*%
%ADD19C,0.01000*%
D10*
X0045760Y0036000D02*
X0068760Y0036000D01*
X0068760Y0106000D01*
X0061260Y0106000D01*
X0061258Y0105874D01*
X0061252Y0105749D01*
X0061242Y0105624D01*
X0061228Y0105499D01*
X0061211Y0105374D01*
X0061189Y0105250D01*
X0061164Y0105127D01*
X0061134Y0105005D01*
X0061101Y0104884D01*
X0061064Y0104764D01*
X0061024Y0104645D01*
X0060979Y0104528D01*
X0060931Y0104411D01*
X0060879Y0104297D01*
X0060824Y0104184D01*
X0060765Y0104073D01*
X0060703Y0103964D01*
X0060637Y0103857D01*
X0060568Y0103752D01*
X0060496Y0103649D01*
X0060421Y0103548D01*
X0060342Y0103450D01*
X0060260Y0103355D01*
X0060176Y0103262D01*
X0060088Y0103172D01*
X0059998Y0103084D01*
X0059905Y0103000D01*
X0059810Y0102918D01*
X0059712Y0102839D01*
X0059611Y0102764D01*
X0059508Y0102692D01*
X0059403Y0102623D01*
X0059296Y0102557D01*
X0059187Y0102495D01*
X0059076Y0102436D01*
X0058963Y0102381D01*
X0058849Y0102329D01*
X0058732Y0102281D01*
X0058615Y0102236D01*
X0058496Y0102196D01*
X0058376Y0102159D01*
X0058255Y0102126D01*
X0058133Y0102096D01*
X0058010Y0102071D01*
X0057886Y0102049D01*
X0057761Y0102032D01*
X0057636Y0102018D01*
X0057511Y0102008D01*
X0057386Y0102002D01*
X0057260Y0102000D01*
X0057134Y0102002D01*
X0057009Y0102008D01*
X0056884Y0102018D01*
X0056759Y0102032D01*
X0056634Y0102049D01*
X0056510Y0102071D01*
X0056387Y0102096D01*
X0056265Y0102126D01*
X0056144Y0102159D01*
X0056024Y0102196D01*
X0055905Y0102236D01*
X0055788Y0102281D01*
X0055671Y0102329D01*
X0055557Y0102381D01*
X0055444Y0102436D01*
X0055333Y0102495D01*
X0055224Y0102557D01*
X0055117Y0102623D01*
X0055012Y0102692D01*
X0054909Y0102764D01*
X0054808Y0102839D01*
X0054710Y0102918D01*
X0054615Y0103000D01*
X0054522Y0103084D01*
X0054432Y0103172D01*
X0054344Y0103262D01*
X0054260Y0103355D01*
X0054178Y0103450D01*
X0054099Y0103548D01*
X0054024Y0103649D01*
X0053952Y0103752D01*
X0053883Y0103857D01*
X0053817Y0103964D01*
X0053755Y0104073D01*
X0053696Y0104184D01*
X0053641Y0104297D01*
X0053589Y0104411D01*
X0053541Y0104528D01*
X0053496Y0104645D01*
X0053456Y0104764D01*
X0053419Y0104884D01*
X0053386Y0105005D01*
X0053356Y0105127D01*
X0053331Y0105250D01*
X0053309Y0105374D01*
X0053292Y0105499D01*
X0053278Y0105624D01*
X0053268Y0105749D01*
X0053262Y0105874D01*
X0053260Y0106000D01*
X0045760Y0106000D01*
X0045760Y0036000D01*
X0078260Y0028500D02*
X0078260Y0027000D01*
X0078262Y0026940D01*
X0078267Y0026879D01*
X0078276Y0026820D01*
X0078289Y0026761D01*
X0078305Y0026702D01*
X0078325Y0026645D01*
X0078348Y0026590D01*
X0078375Y0026535D01*
X0078404Y0026483D01*
X0078437Y0026432D01*
X0078473Y0026383D01*
X0078511Y0026337D01*
X0078553Y0026293D01*
X0078597Y0026251D01*
X0078643Y0026213D01*
X0078692Y0026177D01*
X0078743Y0026144D01*
X0078795Y0026115D01*
X0078850Y0026088D01*
X0078905Y0026065D01*
X0078962Y0026045D01*
X0079021Y0026029D01*
X0079080Y0026016D01*
X0079139Y0026007D01*
X0079200Y0026002D01*
X0079260Y0026000D01*
X0085260Y0026000D01*
X0085320Y0026002D01*
X0085381Y0026007D01*
X0085440Y0026016D01*
X0085499Y0026029D01*
X0085558Y0026045D01*
X0085615Y0026065D01*
X0085670Y0026088D01*
X0085725Y0026115D01*
X0085777Y0026144D01*
X0085828Y0026177D01*
X0085877Y0026213D01*
X0085923Y0026251D01*
X0085967Y0026293D01*
X0086009Y0026337D01*
X0086047Y0026383D01*
X0086083Y0026432D01*
X0086116Y0026483D01*
X0086145Y0026535D01*
X0086172Y0026590D01*
X0086195Y0026645D01*
X0086215Y0026702D01*
X0086231Y0026761D01*
X0086244Y0026820D01*
X0086253Y0026879D01*
X0086258Y0026940D01*
X0086260Y0027000D01*
X0086260Y0028500D01*
X0085760Y0029000D01*
X0085760Y0043000D01*
X0086260Y0043500D01*
X0086260Y0045000D01*
X0086258Y0045060D01*
X0086253Y0045121D01*
X0086244Y0045180D01*
X0086231Y0045239D01*
X0086215Y0045298D01*
X0086195Y0045355D01*
X0086172Y0045410D01*
X0086145Y0045465D01*
X0086116Y0045517D01*
X0086083Y0045568D01*
X0086047Y0045617D01*
X0086009Y0045663D01*
X0085967Y0045707D01*
X0085923Y0045749D01*
X0085877Y0045787D01*
X0085828Y0045823D01*
X0085777Y0045856D01*
X0085725Y0045885D01*
X0085670Y0045912D01*
X0085615Y0045935D01*
X0085558Y0045955D01*
X0085499Y0045971D01*
X0085440Y0045984D01*
X0085381Y0045993D01*
X0085320Y0045998D01*
X0085260Y0046000D01*
X0079260Y0046000D01*
X0079200Y0045998D01*
X0079139Y0045993D01*
X0079080Y0045984D01*
X0079021Y0045971D01*
X0078962Y0045955D01*
X0078905Y0045935D01*
X0078850Y0045912D01*
X0078795Y0045885D01*
X0078743Y0045856D01*
X0078692Y0045823D01*
X0078643Y0045787D01*
X0078597Y0045749D01*
X0078553Y0045707D01*
X0078511Y0045663D01*
X0078473Y0045617D01*
X0078437Y0045568D01*
X0078404Y0045517D01*
X0078375Y0045465D01*
X0078348Y0045410D01*
X0078325Y0045355D01*
X0078305Y0045298D01*
X0078289Y0045239D01*
X0078276Y0045180D01*
X0078267Y0045121D01*
X0078262Y0045060D01*
X0078260Y0045000D01*
X0078260Y0043500D01*
X0078760Y0043000D01*
X0078760Y0029000D01*
X0078260Y0028500D01*
X0078260Y0027000D02*
X0078262Y0026940D01*
X0078267Y0026879D01*
X0078276Y0026820D01*
X0078289Y0026761D01*
X0078305Y0026702D01*
X0078325Y0026645D01*
X0078348Y0026590D01*
X0078375Y0026535D01*
X0078404Y0026483D01*
X0078437Y0026432D01*
X0078473Y0026383D01*
X0078511Y0026337D01*
X0078553Y0026293D01*
X0078597Y0026251D01*
X0078643Y0026213D01*
X0078692Y0026177D01*
X0078743Y0026144D01*
X0078795Y0026115D01*
X0078850Y0026088D01*
X0078905Y0026065D01*
X0078962Y0026045D01*
X0079021Y0026029D01*
X0079080Y0026016D01*
X0079139Y0026007D01*
X0079200Y0026002D01*
X0079260Y0026000D01*
X0085260Y0026000D02*
X0085320Y0026002D01*
X0085381Y0026007D01*
X0085440Y0026016D01*
X0085499Y0026029D01*
X0085558Y0026045D01*
X0085615Y0026065D01*
X0085670Y0026088D01*
X0085725Y0026115D01*
X0085777Y0026144D01*
X0085828Y0026177D01*
X0085877Y0026213D01*
X0085923Y0026251D01*
X0085967Y0026293D01*
X0086009Y0026337D01*
X0086047Y0026383D01*
X0086083Y0026432D01*
X0086116Y0026483D01*
X0086145Y0026535D01*
X0086172Y0026590D01*
X0086195Y0026645D01*
X0086215Y0026702D01*
X0086231Y0026761D01*
X0086244Y0026820D01*
X0086253Y0026879D01*
X0086258Y0026940D01*
X0086260Y0027000D01*
X0097260Y0027000D02*
X0097414Y0026998D01*
X0097568Y0026992D01*
X0097722Y0026982D01*
X0097876Y0026968D01*
X0098029Y0026951D01*
X0098181Y0026929D01*
X0098333Y0026903D01*
X0098485Y0026874D01*
X0098635Y0026840D01*
X0098785Y0026803D01*
X0098933Y0026762D01*
X0099081Y0026717D01*
X0099227Y0026668D01*
X0099372Y0026616D01*
X0099515Y0026560D01*
X0099658Y0026500D01*
X0099798Y0026437D01*
X0099937Y0026370D01*
X0100074Y0026299D01*
X0100209Y0026225D01*
X0100342Y0026148D01*
X0100474Y0026067D01*
X0100603Y0025983D01*
X0100730Y0025895D01*
X0100854Y0025804D01*
X0100976Y0025711D01*
X0101096Y0025613D01*
X0101213Y0025513D01*
X0101328Y0025410D01*
X0101440Y0025304D01*
X0101549Y0025196D01*
X0101655Y0025084D01*
X0101759Y0024970D01*
X0101859Y0024853D01*
X0101957Y0024734D01*
X0102051Y0024612D01*
X0102142Y0024487D01*
X0097260Y0015000D02*
X0097108Y0015002D01*
X0096957Y0015008D01*
X0096806Y0015017D01*
X0096654Y0015031D01*
X0096504Y0015048D01*
X0096354Y0015069D01*
X0096204Y0015094D01*
X0096055Y0015122D01*
X0095907Y0015155D01*
X0095760Y0015191D01*
X0095613Y0015230D01*
X0095468Y0015274D01*
X0095324Y0015321D01*
X0095181Y0015372D01*
X0095040Y0015426D01*
X0094899Y0015484D01*
X0094761Y0015545D01*
X0094624Y0015610D01*
X0094488Y0015679D01*
X0094355Y0015750D01*
X0094223Y0015825D01*
X0094093Y0015904D01*
X0093966Y0015985D01*
X0093840Y0016070D01*
X0093716Y0016158D01*
X0093595Y0016249D01*
X0093476Y0016343D01*
X0093360Y0016441D01*
X0093246Y0016541D01*
X0093134Y0016643D01*
X0093026Y0016749D01*
X0092920Y0016857D01*
X0092816Y0016968D01*
X0092716Y0017082D01*
X0092618Y0017198D01*
X0092524Y0017317D01*
X0097260Y0015000D02*
X0097412Y0015002D01*
X0097563Y0015008D01*
X0097714Y0015017D01*
X0097866Y0015031D01*
X0098016Y0015048D01*
X0098166Y0015069D01*
X0098316Y0015094D01*
X0098465Y0015122D01*
X0098613Y0015155D01*
X0098760Y0015191D01*
X0098907Y0015230D01*
X0099052Y0015274D01*
X0099196Y0015321D01*
X0099339Y0015372D01*
X0099480Y0015426D01*
X0099621Y0015484D01*
X0099759Y0015545D01*
X0099896Y0015610D01*
X0100032Y0015679D01*
X0100165Y0015750D01*
X0100297Y0015825D01*
X0100427Y0015904D01*
X0100554Y0015985D01*
X0100680Y0016070D01*
X0100804Y0016158D01*
X0100925Y0016249D01*
X0101044Y0016343D01*
X0101160Y0016441D01*
X0101274Y0016541D01*
X0101386Y0016643D01*
X0101494Y0016749D01*
X0101600Y0016857D01*
X0101704Y0016968D01*
X0101804Y0017082D01*
X0101902Y0017198D01*
X0101996Y0017317D01*
X0097260Y0027000D02*
X0097110Y0026998D01*
X0096959Y0026992D01*
X0096809Y0026983D01*
X0096660Y0026970D01*
X0096510Y0026953D01*
X0096361Y0026932D01*
X0096213Y0026908D01*
X0096065Y0026880D01*
X0095918Y0026848D01*
X0095772Y0026813D01*
X0095627Y0026773D01*
X0095483Y0026731D01*
X0095340Y0026684D01*
X0095198Y0026634D01*
X0095057Y0026581D01*
X0094918Y0026524D01*
X0094780Y0026464D01*
X0094644Y0026400D01*
X0094510Y0026333D01*
X0094377Y0026262D01*
X0094246Y0026188D01*
X0094117Y0026111D01*
X0093990Y0026030D01*
X0093865Y0025947D01*
X0093742Y0025860D01*
X0093621Y0025771D01*
X0093503Y0025678D01*
X0093387Y0025582D01*
X0093273Y0025484D01*
X0093162Y0025383D01*
X0093053Y0025278D01*
X0092948Y0025172D01*
X0092844Y0025062D01*
X0092744Y0024950D01*
X0092646Y0024836D01*
X0092552Y0024719D01*
X0092460Y0024600D01*
X0112260Y0038000D02*
X0112260Y0044000D01*
X0112262Y0044060D01*
X0112267Y0044121D01*
X0112276Y0044180D01*
X0112289Y0044239D01*
X0112305Y0044298D01*
X0112325Y0044355D01*
X0112348Y0044410D01*
X0112375Y0044465D01*
X0112404Y0044517D01*
X0112437Y0044568D01*
X0112473Y0044617D01*
X0112511Y0044663D01*
X0112553Y0044707D01*
X0112597Y0044749D01*
X0112643Y0044787D01*
X0112692Y0044823D01*
X0112743Y0044856D01*
X0112795Y0044885D01*
X0112850Y0044912D01*
X0112905Y0044935D01*
X0112962Y0044955D01*
X0113021Y0044971D01*
X0113080Y0044984D01*
X0113139Y0044993D01*
X0113200Y0044998D01*
X0113260Y0045000D01*
X0114760Y0045000D01*
X0115260Y0044500D01*
X0129260Y0044500D01*
X0129760Y0045000D01*
X0131260Y0045000D01*
X0131320Y0044998D01*
X0131381Y0044993D01*
X0131440Y0044984D01*
X0131499Y0044971D01*
X0131558Y0044955D01*
X0131615Y0044935D01*
X0131670Y0044912D01*
X0131725Y0044885D01*
X0131777Y0044856D01*
X0131828Y0044823D01*
X0131877Y0044787D01*
X0131923Y0044749D01*
X0131967Y0044707D01*
X0132009Y0044663D01*
X0132047Y0044617D01*
X0132083Y0044568D01*
X0132116Y0044517D01*
X0132145Y0044465D01*
X0132172Y0044410D01*
X0132195Y0044355D01*
X0132215Y0044298D01*
X0132231Y0044239D01*
X0132244Y0044180D01*
X0132253Y0044121D01*
X0132258Y0044060D01*
X0132260Y0044000D01*
X0132260Y0038000D01*
X0132258Y0037940D01*
X0132253Y0037879D01*
X0132244Y0037820D01*
X0132231Y0037761D01*
X0132215Y0037702D01*
X0132195Y0037645D01*
X0132172Y0037590D01*
X0132145Y0037535D01*
X0132116Y0037483D01*
X0132083Y0037432D01*
X0132047Y0037383D01*
X0132009Y0037337D01*
X0131967Y0037293D01*
X0131923Y0037251D01*
X0131877Y0037213D01*
X0131828Y0037177D01*
X0131777Y0037144D01*
X0131725Y0037115D01*
X0131670Y0037088D01*
X0131615Y0037065D01*
X0131558Y0037045D01*
X0131499Y0037029D01*
X0131440Y0037016D01*
X0131381Y0037007D01*
X0131320Y0037002D01*
X0131260Y0037000D01*
X0129760Y0037000D01*
X0129260Y0037500D01*
X0115260Y0037500D01*
X0114760Y0037000D01*
X0113260Y0037000D01*
X0113200Y0037002D01*
X0113139Y0037007D01*
X0113080Y0037016D01*
X0113021Y0037029D01*
X0112962Y0037045D01*
X0112905Y0037065D01*
X0112850Y0037088D01*
X0112795Y0037115D01*
X0112743Y0037144D01*
X0112692Y0037177D01*
X0112643Y0037213D01*
X0112597Y0037251D01*
X0112553Y0037293D01*
X0112511Y0037337D01*
X0112473Y0037383D01*
X0112437Y0037432D01*
X0112404Y0037483D01*
X0112375Y0037535D01*
X0112348Y0037590D01*
X0112325Y0037645D01*
X0112305Y0037702D01*
X0112289Y0037761D01*
X0112276Y0037820D01*
X0112267Y0037879D01*
X0112262Y0037940D01*
X0112260Y0038000D01*
X0112262Y0037940D01*
X0112267Y0037879D01*
X0112276Y0037820D01*
X0112289Y0037761D01*
X0112305Y0037702D01*
X0112325Y0037645D01*
X0112348Y0037590D01*
X0112375Y0037535D01*
X0112404Y0037483D01*
X0112437Y0037432D01*
X0112473Y0037383D01*
X0112511Y0037337D01*
X0112553Y0037293D01*
X0112597Y0037251D01*
X0112643Y0037213D01*
X0112692Y0037177D01*
X0112743Y0037144D01*
X0112795Y0037115D01*
X0112850Y0037088D01*
X0112905Y0037065D01*
X0112962Y0037045D01*
X0113021Y0037029D01*
X0113080Y0037016D01*
X0113139Y0037007D01*
X0113200Y0037002D01*
X0113260Y0037000D01*
X0112260Y0044000D02*
X0112262Y0044060D01*
X0112267Y0044121D01*
X0112276Y0044180D01*
X0112289Y0044239D01*
X0112305Y0044298D01*
X0112325Y0044355D01*
X0112348Y0044410D01*
X0112375Y0044465D01*
X0112404Y0044517D01*
X0112437Y0044568D01*
X0112473Y0044617D01*
X0112511Y0044663D01*
X0112553Y0044707D01*
X0112597Y0044749D01*
X0112643Y0044787D01*
X0112692Y0044823D01*
X0112743Y0044856D01*
X0112795Y0044885D01*
X0112850Y0044912D01*
X0112905Y0044935D01*
X0112962Y0044955D01*
X0113021Y0044971D01*
X0113080Y0044984D01*
X0113139Y0044993D01*
X0113200Y0044998D01*
X0113260Y0045000D01*
X0113260Y0047000D02*
X0114760Y0047000D01*
X0115260Y0047500D01*
X0129260Y0047500D01*
X0129760Y0047000D01*
X0131260Y0047000D01*
X0131320Y0047002D01*
X0131381Y0047007D01*
X0131440Y0047016D01*
X0131499Y0047029D01*
X0131558Y0047045D01*
X0131615Y0047065D01*
X0131670Y0047088D01*
X0131725Y0047115D01*
X0131777Y0047144D01*
X0131828Y0047177D01*
X0131877Y0047213D01*
X0131923Y0047251D01*
X0131967Y0047293D01*
X0132009Y0047337D01*
X0132047Y0047383D01*
X0132083Y0047432D01*
X0132116Y0047483D01*
X0132145Y0047535D01*
X0132172Y0047590D01*
X0132195Y0047645D01*
X0132215Y0047702D01*
X0132231Y0047761D01*
X0132244Y0047820D01*
X0132253Y0047879D01*
X0132258Y0047940D01*
X0132260Y0048000D01*
X0132260Y0054000D01*
X0132258Y0054060D01*
X0132253Y0054121D01*
X0132244Y0054180D01*
X0132231Y0054239D01*
X0132215Y0054298D01*
X0132195Y0054355D01*
X0132172Y0054410D01*
X0132145Y0054465D01*
X0132116Y0054517D01*
X0132083Y0054568D01*
X0132047Y0054617D01*
X0132009Y0054663D01*
X0131967Y0054707D01*
X0131923Y0054749D01*
X0131877Y0054787D01*
X0131828Y0054823D01*
X0131777Y0054856D01*
X0131725Y0054885D01*
X0131670Y0054912D01*
X0131615Y0054935D01*
X0131558Y0054955D01*
X0131499Y0054971D01*
X0131440Y0054984D01*
X0131381Y0054993D01*
X0131320Y0054998D01*
X0131260Y0055000D01*
X0129760Y0055000D01*
X0129260Y0054500D01*
X0115260Y0054500D01*
X0114760Y0055000D01*
X0113260Y0055000D01*
X0113200Y0054998D01*
X0113139Y0054993D01*
X0113080Y0054984D01*
X0113021Y0054971D01*
X0112962Y0054955D01*
X0112905Y0054935D01*
X0112850Y0054912D01*
X0112795Y0054885D01*
X0112743Y0054856D01*
X0112692Y0054823D01*
X0112643Y0054787D01*
X0112597Y0054749D01*
X0112553Y0054707D01*
X0112511Y0054663D01*
X0112473Y0054617D01*
X0112437Y0054568D01*
X0112404Y0054517D01*
X0112375Y0054465D01*
X0112348Y0054410D01*
X0112325Y0054355D01*
X0112305Y0054298D01*
X0112289Y0054239D01*
X0112276Y0054180D01*
X0112267Y0054121D01*
X0112262Y0054060D01*
X0112260Y0054000D01*
X0112260Y0048000D01*
X0112262Y0047940D01*
X0112267Y0047879D01*
X0112276Y0047820D01*
X0112289Y0047761D01*
X0112305Y0047702D01*
X0112325Y0047645D01*
X0112348Y0047590D01*
X0112375Y0047535D01*
X0112404Y0047483D01*
X0112437Y0047432D01*
X0112473Y0047383D01*
X0112511Y0047337D01*
X0112553Y0047293D01*
X0112597Y0047251D01*
X0112643Y0047213D01*
X0112692Y0047177D01*
X0112743Y0047144D01*
X0112795Y0047115D01*
X0112850Y0047088D01*
X0112905Y0047065D01*
X0112962Y0047045D01*
X0113021Y0047029D01*
X0113080Y0047016D01*
X0113139Y0047007D01*
X0113200Y0047002D01*
X0113260Y0047000D01*
X0113200Y0047002D01*
X0113139Y0047007D01*
X0113080Y0047016D01*
X0113021Y0047029D01*
X0112962Y0047045D01*
X0112905Y0047065D01*
X0112850Y0047088D01*
X0112795Y0047115D01*
X0112743Y0047144D01*
X0112692Y0047177D01*
X0112643Y0047213D01*
X0112597Y0047251D01*
X0112553Y0047293D01*
X0112511Y0047337D01*
X0112473Y0047383D01*
X0112437Y0047432D01*
X0112404Y0047483D01*
X0112375Y0047535D01*
X0112348Y0047590D01*
X0112325Y0047645D01*
X0112305Y0047702D01*
X0112289Y0047761D01*
X0112276Y0047820D01*
X0112267Y0047879D01*
X0112262Y0047940D01*
X0112260Y0048000D01*
X0112260Y0054000D02*
X0112262Y0054060D01*
X0112267Y0054121D01*
X0112276Y0054180D01*
X0112289Y0054239D01*
X0112305Y0054298D01*
X0112325Y0054355D01*
X0112348Y0054410D01*
X0112375Y0054465D01*
X0112404Y0054517D01*
X0112437Y0054568D01*
X0112473Y0054617D01*
X0112511Y0054663D01*
X0112553Y0054707D01*
X0112597Y0054749D01*
X0112643Y0054787D01*
X0112692Y0054823D01*
X0112743Y0054856D01*
X0112795Y0054885D01*
X0112850Y0054912D01*
X0112905Y0054935D01*
X0112962Y0054955D01*
X0113021Y0054971D01*
X0113080Y0054984D01*
X0113139Y0054993D01*
X0113200Y0054998D01*
X0113260Y0055000D01*
X0113260Y0057000D02*
X0114760Y0057000D01*
X0115260Y0057500D01*
X0129260Y0057500D01*
X0129760Y0057000D01*
X0131260Y0057000D01*
X0131320Y0057002D01*
X0131381Y0057007D01*
X0131440Y0057016D01*
X0131499Y0057029D01*
X0131558Y0057045D01*
X0131615Y0057065D01*
X0131670Y0057088D01*
X0131725Y0057115D01*
X0131777Y0057144D01*
X0131828Y0057177D01*
X0131877Y0057213D01*
X0131923Y0057251D01*
X0131967Y0057293D01*
X0132009Y0057337D01*
X0132047Y0057383D01*
X0132083Y0057432D01*
X0132116Y0057483D01*
X0132145Y0057535D01*
X0132172Y0057590D01*
X0132195Y0057645D01*
X0132215Y0057702D01*
X0132231Y0057761D01*
X0132244Y0057820D01*
X0132253Y0057879D01*
X0132258Y0057940D01*
X0132260Y0058000D01*
X0132260Y0064000D01*
X0132258Y0064060D01*
X0132253Y0064121D01*
X0132244Y0064180D01*
X0132231Y0064239D01*
X0132215Y0064298D01*
X0132195Y0064355D01*
X0132172Y0064410D01*
X0132145Y0064465D01*
X0132116Y0064517D01*
X0132083Y0064568D01*
X0132047Y0064617D01*
X0132009Y0064663D01*
X0131967Y0064707D01*
X0131923Y0064749D01*
X0131877Y0064787D01*
X0131828Y0064823D01*
X0131777Y0064856D01*
X0131725Y0064885D01*
X0131670Y0064912D01*
X0131615Y0064935D01*
X0131558Y0064955D01*
X0131499Y0064971D01*
X0131440Y0064984D01*
X0131381Y0064993D01*
X0131320Y0064998D01*
X0131260Y0065000D01*
X0129760Y0065000D01*
X0129260Y0064500D01*
X0115260Y0064500D01*
X0114760Y0065000D01*
X0113260Y0065000D01*
X0113200Y0064998D01*
X0113139Y0064993D01*
X0113080Y0064984D01*
X0113021Y0064971D01*
X0112962Y0064955D01*
X0112905Y0064935D01*
X0112850Y0064912D01*
X0112795Y0064885D01*
X0112743Y0064856D01*
X0112692Y0064823D01*
X0112643Y0064787D01*
X0112597Y0064749D01*
X0112553Y0064707D01*
X0112511Y0064663D01*
X0112473Y0064617D01*
X0112437Y0064568D01*
X0112404Y0064517D01*
X0112375Y0064465D01*
X0112348Y0064410D01*
X0112325Y0064355D01*
X0112305Y0064298D01*
X0112289Y0064239D01*
X0112276Y0064180D01*
X0112267Y0064121D01*
X0112262Y0064060D01*
X0112260Y0064000D01*
X0112260Y0058000D01*
X0112262Y0057940D01*
X0112267Y0057879D01*
X0112276Y0057820D01*
X0112289Y0057761D01*
X0112305Y0057702D01*
X0112325Y0057645D01*
X0112348Y0057590D01*
X0112375Y0057535D01*
X0112404Y0057483D01*
X0112437Y0057432D01*
X0112473Y0057383D01*
X0112511Y0057337D01*
X0112553Y0057293D01*
X0112597Y0057251D01*
X0112643Y0057213D01*
X0112692Y0057177D01*
X0112743Y0057144D01*
X0112795Y0057115D01*
X0112850Y0057088D01*
X0112905Y0057065D01*
X0112962Y0057045D01*
X0113021Y0057029D01*
X0113080Y0057016D01*
X0113139Y0057007D01*
X0113200Y0057002D01*
X0113260Y0057000D01*
X0113200Y0057002D01*
X0113139Y0057007D01*
X0113080Y0057016D01*
X0113021Y0057029D01*
X0112962Y0057045D01*
X0112905Y0057065D01*
X0112850Y0057088D01*
X0112795Y0057115D01*
X0112743Y0057144D01*
X0112692Y0057177D01*
X0112643Y0057213D01*
X0112597Y0057251D01*
X0112553Y0057293D01*
X0112511Y0057337D01*
X0112473Y0057383D01*
X0112437Y0057432D01*
X0112404Y0057483D01*
X0112375Y0057535D01*
X0112348Y0057590D01*
X0112325Y0057645D01*
X0112305Y0057702D01*
X0112289Y0057761D01*
X0112276Y0057820D01*
X0112267Y0057879D01*
X0112262Y0057940D01*
X0112260Y0058000D01*
X0112260Y0064000D02*
X0112262Y0064060D01*
X0112267Y0064121D01*
X0112276Y0064180D01*
X0112289Y0064239D01*
X0112305Y0064298D01*
X0112325Y0064355D01*
X0112348Y0064410D01*
X0112375Y0064465D01*
X0112404Y0064517D01*
X0112437Y0064568D01*
X0112473Y0064617D01*
X0112511Y0064663D01*
X0112553Y0064707D01*
X0112597Y0064749D01*
X0112643Y0064787D01*
X0112692Y0064823D01*
X0112743Y0064856D01*
X0112795Y0064885D01*
X0112850Y0064912D01*
X0112905Y0064935D01*
X0112962Y0064955D01*
X0113021Y0064971D01*
X0113080Y0064984D01*
X0113139Y0064993D01*
X0113200Y0064998D01*
X0113260Y0065000D01*
X0113260Y0067000D02*
X0114760Y0067000D01*
X0115260Y0067500D01*
X0129260Y0067500D01*
X0129760Y0067000D01*
X0131260Y0067000D01*
X0131320Y0067002D01*
X0131381Y0067007D01*
X0131440Y0067016D01*
X0131499Y0067029D01*
X0131558Y0067045D01*
X0131615Y0067065D01*
X0131670Y0067088D01*
X0131725Y0067115D01*
X0131777Y0067144D01*
X0131828Y0067177D01*
X0131877Y0067213D01*
X0131923Y0067251D01*
X0131967Y0067293D01*
X0132009Y0067337D01*
X0132047Y0067383D01*
X0132083Y0067432D01*
X0132116Y0067483D01*
X0132145Y0067535D01*
X0132172Y0067590D01*
X0132195Y0067645D01*
X0132215Y0067702D01*
X0132231Y0067761D01*
X0132244Y0067820D01*
X0132253Y0067879D01*
X0132258Y0067940D01*
X0132260Y0068000D01*
X0132260Y0074000D01*
X0132258Y0074060D01*
X0132253Y0074121D01*
X0132244Y0074180D01*
X0132231Y0074239D01*
X0132215Y0074298D01*
X0132195Y0074355D01*
X0132172Y0074410D01*
X0132145Y0074465D01*
X0132116Y0074517D01*
X0132083Y0074568D01*
X0132047Y0074617D01*
X0132009Y0074663D01*
X0131967Y0074707D01*
X0131923Y0074749D01*
X0131877Y0074787D01*
X0131828Y0074823D01*
X0131777Y0074856D01*
X0131725Y0074885D01*
X0131670Y0074912D01*
X0131615Y0074935D01*
X0131558Y0074955D01*
X0131499Y0074971D01*
X0131440Y0074984D01*
X0131381Y0074993D01*
X0131320Y0074998D01*
X0131260Y0075000D01*
X0129760Y0075000D01*
X0129260Y0074500D01*
X0115260Y0074500D01*
X0114760Y0075000D01*
X0113260Y0075000D01*
X0113200Y0074998D01*
X0113139Y0074993D01*
X0113080Y0074984D01*
X0113021Y0074971D01*
X0112962Y0074955D01*
X0112905Y0074935D01*
X0112850Y0074912D01*
X0112795Y0074885D01*
X0112743Y0074856D01*
X0112692Y0074823D01*
X0112643Y0074787D01*
X0112597Y0074749D01*
X0112553Y0074707D01*
X0112511Y0074663D01*
X0112473Y0074617D01*
X0112437Y0074568D01*
X0112404Y0074517D01*
X0112375Y0074465D01*
X0112348Y0074410D01*
X0112325Y0074355D01*
X0112305Y0074298D01*
X0112289Y0074239D01*
X0112276Y0074180D01*
X0112267Y0074121D01*
X0112262Y0074060D01*
X0112260Y0074000D01*
X0112260Y0068000D01*
X0112262Y0067940D01*
X0112267Y0067879D01*
X0112276Y0067820D01*
X0112289Y0067761D01*
X0112305Y0067702D01*
X0112325Y0067645D01*
X0112348Y0067590D01*
X0112375Y0067535D01*
X0112404Y0067483D01*
X0112437Y0067432D01*
X0112473Y0067383D01*
X0112511Y0067337D01*
X0112553Y0067293D01*
X0112597Y0067251D01*
X0112643Y0067213D01*
X0112692Y0067177D01*
X0112743Y0067144D01*
X0112795Y0067115D01*
X0112850Y0067088D01*
X0112905Y0067065D01*
X0112962Y0067045D01*
X0113021Y0067029D01*
X0113080Y0067016D01*
X0113139Y0067007D01*
X0113200Y0067002D01*
X0113260Y0067000D01*
X0113200Y0067002D01*
X0113139Y0067007D01*
X0113080Y0067016D01*
X0113021Y0067029D01*
X0112962Y0067045D01*
X0112905Y0067065D01*
X0112850Y0067088D01*
X0112795Y0067115D01*
X0112743Y0067144D01*
X0112692Y0067177D01*
X0112643Y0067213D01*
X0112597Y0067251D01*
X0112553Y0067293D01*
X0112511Y0067337D01*
X0112473Y0067383D01*
X0112437Y0067432D01*
X0112404Y0067483D01*
X0112375Y0067535D01*
X0112348Y0067590D01*
X0112325Y0067645D01*
X0112305Y0067702D01*
X0112289Y0067761D01*
X0112276Y0067820D01*
X0112267Y0067879D01*
X0112262Y0067940D01*
X0112260Y0068000D01*
X0112260Y0074000D02*
X0112262Y0074060D01*
X0112267Y0074121D01*
X0112276Y0074180D01*
X0112289Y0074239D01*
X0112305Y0074298D01*
X0112325Y0074355D01*
X0112348Y0074410D01*
X0112375Y0074465D01*
X0112404Y0074517D01*
X0112437Y0074568D01*
X0112473Y0074617D01*
X0112511Y0074663D01*
X0112553Y0074707D01*
X0112597Y0074749D01*
X0112643Y0074787D01*
X0112692Y0074823D01*
X0112743Y0074856D01*
X0112795Y0074885D01*
X0112850Y0074912D01*
X0112905Y0074935D01*
X0112962Y0074955D01*
X0113021Y0074971D01*
X0113080Y0074984D01*
X0113139Y0074993D01*
X0113200Y0074998D01*
X0113260Y0075000D01*
X0113260Y0077000D02*
X0114760Y0077000D01*
X0115260Y0077500D01*
X0129260Y0077500D01*
X0129760Y0077000D01*
X0131260Y0077000D01*
X0131320Y0077002D01*
X0131381Y0077007D01*
X0131440Y0077016D01*
X0131499Y0077029D01*
X0131558Y0077045D01*
X0131615Y0077065D01*
X0131670Y0077088D01*
X0131725Y0077115D01*
X0131777Y0077144D01*
X0131828Y0077177D01*
X0131877Y0077213D01*
X0131923Y0077251D01*
X0131967Y0077293D01*
X0132009Y0077337D01*
X0132047Y0077383D01*
X0132083Y0077432D01*
X0132116Y0077483D01*
X0132145Y0077535D01*
X0132172Y0077590D01*
X0132195Y0077645D01*
X0132215Y0077702D01*
X0132231Y0077761D01*
X0132244Y0077820D01*
X0132253Y0077879D01*
X0132258Y0077940D01*
X0132260Y0078000D01*
X0132260Y0084000D01*
X0132258Y0084060D01*
X0132253Y0084121D01*
X0132244Y0084180D01*
X0132231Y0084239D01*
X0132215Y0084298D01*
X0132195Y0084355D01*
X0132172Y0084410D01*
X0132145Y0084465D01*
X0132116Y0084517D01*
X0132083Y0084568D01*
X0132047Y0084617D01*
X0132009Y0084663D01*
X0131967Y0084707D01*
X0131923Y0084749D01*
X0131877Y0084787D01*
X0131828Y0084823D01*
X0131777Y0084856D01*
X0131725Y0084885D01*
X0131670Y0084912D01*
X0131615Y0084935D01*
X0131558Y0084955D01*
X0131499Y0084971D01*
X0131440Y0084984D01*
X0131381Y0084993D01*
X0131320Y0084998D01*
X0131260Y0085000D01*
X0129760Y0085000D01*
X0129260Y0084500D01*
X0115260Y0084500D01*
X0114760Y0085000D01*
X0113260Y0085000D01*
X0113200Y0084998D01*
X0113139Y0084993D01*
X0113080Y0084984D01*
X0113021Y0084971D01*
X0112962Y0084955D01*
X0112905Y0084935D01*
X0112850Y0084912D01*
X0112795Y0084885D01*
X0112743Y0084856D01*
X0112692Y0084823D01*
X0112643Y0084787D01*
X0112597Y0084749D01*
X0112553Y0084707D01*
X0112511Y0084663D01*
X0112473Y0084617D01*
X0112437Y0084568D01*
X0112404Y0084517D01*
X0112375Y0084465D01*
X0112348Y0084410D01*
X0112325Y0084355D01*
X0112305Y0084298D01*
X0112289Y0084239D01*
X0112276Y0084180D01*
X0112267Y0084121D01*
X0112262Y0084060D01*
X0112260Y0084000D01*
X0112260Y0078000D01*
X0112262Y0077940D01*
X0112267Y0077879D01*
X0112276Y0077820D01*
X0112289Y0077761D01*
X0112305Y0077702D01*
X0112325Y0077645D01*
X0112348Y0077590D01*
X0112375Y0077535D01*
X0112404Y0077483D01*
X0112437Y0077432D01*
X0112473Y0077383D01*
X0112511Y0077337D01*
X0112553Y0077293D01*
X0112597Y0077251D01*
X0112643Y0077213D01*
X0112692Y0077177D01*
X0112743Y0077144D01*
X0112795Y0077115D01*
X0112850Y0077088D01*
X0112905Y0077065D01*
X0112962Y0077045D01*
X0113021Y0077029D01*
X0113080Y0077016D01*
X0113139Y0077007D01*
X0113200Y0077002D01*
X0113260Y0077000D01*
X0113200Y0077002D01*
X0113139Y0077007D01*
X0113080Y0077016D01*
X0113021Y0077029D01*
X0112962Y0077045D01*
X0112905Y0077065D01*
X0112850Y0077088D01*
X0112795Y0077115D01*
X0112743Y0077144D01*
X0112692Y0077177D01*
X0112643Y0077213D01*
X0112597Y0077251D01*
X0112553Y0077293D01*
X0112511Y0077337D01*
X0112473Y0077383D01*
X0112437Y0077432D01*
X0112404Y0077483D01*
X0112375Y0077535D01*
X0112348Y0077590D01*
X0112325Y0077645D01*
X0112305Y0077702D01*
X0112289Y0077761D01*
X0112276Y0077820D01*
X0112267Y0077879D01*
X0112262Y0077940D01*
X0112260Y0078000D01*
X0112260Y0084000D02*
X0112262Y0084060D01*
X0112267Y0084121D01*
X0112276Y0084180D01*
X0112289Y0084239D01*
X0112305Y0084298D01*
X0112325Y0084355D01*
X0112348Y0084410D01*
X0112375Y0084465D01*
X0112404Y0084517D01*
X0112437Y0084568D01*
X0112473Y0084617D01*
X0112511Y0084663D01*
X0112553Y0084707D01*
X0112597Y0084749D01*
X0112643Y0084787D01*
X0112692Y0084823D01*
X0112743Y0084856D01*
X0112795Y0084885D01*
X0112850Y0084912D01*
X0112905Y0084935D01*
X0112962Y0084955D01*
X0113021Y0084971D01*
X0113080Y0084984D01*
X0113139Y0084993D01*
X0113200Y0084998D01*
X0113260Y0085000D01*
X0119760Y0097000D02*
X0121260Y0097000D01*
X0121320Y0097002D01*
X0121381Y0097007D01*
X0121440Y0097016D01*
X0121499Y0097029D01*
X0121558Y0097045D01*
X0121615Y0097065D01*
X0121670Y0097088D01*
X0121725Y0097115D01*
X0121777Y0097144D01*
X0121828Y0097177D01*
X0121877Y0097213D01*
X0121923Y0097251D01*
X0121967Y0097293D01*
X0122009Y0097337D01*
X0122047Y0097383D01*
X0122083Y0097432D01*
X0122116Y0097483D01*
X0122145Y0097535D01*
X0122172Y0097590D01*
X0122195Y0097645D01*
X0122215Y0097702D01*
X0122231Y0097761D01*
X0122244Y0097820D01*
X0122253Y0097879D01*
X0122258Y0097940D01*
X0122260Y0098000D01*
X0122260Y0104000D01*
X0122258Y0104060D01*
X0122253Y0104121D01*
X0122244Y0104180D01*
X0122231Y0104239D01*
X0122215Y0104298D01*
X0122195Y0104355D01*
X0122172Y0104410D01*
X0122145Y0104465D01*
X0122116Y0104517D01*
X0122083Y0104568D01*
X0122047Y0104617D01*
X0122009Y0104663D01*
X0121967Y0104707D01*
X0121923Y0104749D01*
X0121877Y0104787D01*
X0121828Y0104823D01*
X0121777Y0104856D01*
X0121725Y0104885D01*
X0121670Y0104912D01*
X0121615Y0104935D01*
X0121558Y0104955D01*
X0121499Y0104971D01*
X0121440Y0104984D01*
X0121381Y0104993D01*
X0121320Y0104998D01*
X0121260Y0105000D01*
X0119760Y0105000D01*
X0119260Y0104500D01*
X0105260Y0104500D01*
X0104760Y0105000D01*
X0103260Y0105000D01*
X0103200Y0104998D01*
X0103139Y0104993D01*
X0103080Y0104984D01*
X0103021Y0104971D01*
X0102962Y0104955D01*
X0102905Y0104935D01*
X0102850Y0104912D01*
X0102795Y0104885D01*
X0102743Y0104856D01*
X0102692Y0104823D01*
X0102643Y0104787D01*
X0102597Y0104749D01*
X0102553Y0104707D01*
X0102511Y0104663D01*
X0102473Y0104617D01*
X0102437Y0104568D01*
X0102404Y0104517D01*
X0102375Y0104465D01*
X0102348Y0104410D01*
X0102325Y0104355D01*
X0102305Y0104298D01*
X0102289Y0104239D01*
X0102276Y0104180D01*
X0102267Y0104121D01*
X0102262Y0104060D01*
X0102260Y0104000D01*
X0102260Y0098000D01*
X0102262Y0097940D01*
X0102267Y0097879D01*
X0102276Y0097820D01*
X0102289Y0097761D01*
X0102305Y0097702D01*
X0102325Y0097645D01*
X0102348Y0097590D01*
X0102375Y0097535D01*
X0102404Y0097483D01*
X0102437Y0097432D01*
X0102473Y0097383D01*
X0102511Y0097337D01*
X0102553Y0097293D01*
X0102597Y0097251D01*
X0102643Y0097213D01*
X0102692Y0097177D01*
X0102743Y0097144D01*
X0102795Y0097115D01*
X0102850Y0097088D01*
X0102905Y0097065D01*
X0102962Y0097045D01*
X0103021Y0097029D01*
X0103080Y0097016D01*
X0103139Y0097007D01*
X0103200Y0097002D01*
X0103260Y0097000D01*
X0104760Y0097000D01*
X0105260Y0097500D01*
X0119260Y0097500D01*
X0119760Y0097000D01*
X0121260Y0097000D02*
X0121320Y0097002D01*
X0121381Y0097007D01*
X0121440Y0097016D01*
X0121499Y0097029D01*
X0121558Y0097045D01*
X0121615Y0097065D01*
X0121670Y0097088D01*
X0121725Y0097115D01*
X0121777Y0097144D01*
X0121828Y0097177D01*
X0121877Y0097213D01*
X0121923Y0097251D01*
X0121967Y0097293D01*
X0122009Y0097337D01*
X0122047Y0097383D01*
X0122083Y0097432D01*
X0122116Y0097483D01*
X0122145Y0097535D01*
X0122172Y0097590D01*
X0122195Y0097645D01*
X0122215Y0097702D01*
X0122231Y0097761D01*
X0122244Y0097820D01*
X0122253Y0097879D01*
X0122258Y0097940D01*
X0122260Y0098000D01*
X0122260Y0104000D02*
X0122258Y0104060D01*
X0122253Y0104121D01*
X0122244Y0104180D01*
X0122231Y0104239D01*
X0122215Y0104298D01*
X0122195Y0104355D01*
X0122172Y0104410D01*
X0122145Y0104465D01*
X0122116Y0104517D01*
X0122083Y0104568D01*
X0122047Y0104617D01*
X0122009Y0104663D01*
X0121967Y0104707D01*
X0121923Y0104749D01*
X0121877Y0104787D01*
X0121828Y0104823D01*
X0121777Y0104856D01*
X0121725Y0104885D01*
X0121670Y0104912D01*
X0121615Y0104935D01*
X0121558Y0104955D01*
X0121499Y0104971D01*
X0121440Y0104984D01*
X0121381Y0104993D01*
X0121320Y0104998D01*
X0121260Y0105000D01*
X0103260Y0105000D02*
X0103200Y0104998D01*
X0103139Y0104993D01*
X0103080Y0104984D01*
X0103021Y0104971D01*
X0102962Y0104955D01*
X0102905Y0104935D01*
X0102850Y0104912D01*
X0102795Y0104885D01*
X0102743Y0104856D01*
X0102692Y0104823D01*
X0102643Y0104787D01*
X0102597Y0104749D01*
X0102553Y0104707D01*
X0102511Y0104663D01*
X0102473Y0104617D01*
X0102437Y0104568D01*
X0102404Y0104517D01*
X0102375Y0104465D01*
X0102348Y0104410D01*
X0102325Y0104355D01*
X0102305Y0104298D01*
X0102289Y0104239D01*
X0102276Y0104180D01*
X0102267Y0104121D01*
X0102262Y0104060D01*
X0102260Y0104000D01*
X0101260Y0107000D02*
X0099760Y0107000D01*
X0099260Y0107500D01*
X0085260Y0107500D01*
X0084760Y0107000D01*
X0083260Y0107000D01*
X0083200Y0107002D01*
X0083139Y0107007D01*
X0083080Y0107016D01*
X0083021Y0107029D01*
X0082962Y0107045D01*
X0082905Y0107065D01*
X0082850Y0107088D01*
X0082795Y0107115D01*
X0082743Y0107144D01*
X0082692Y0107177D01*
X0082643Y0107213D01*
X0082597Y0107251D01*
X0082553Y0107293D01*
X0082511Y0107337D01*
X0082473Y0107383D01*
X0082437Y0107432D01*
X0082404Y0107483D01*
X0082375Y0107535D01*
X0082348Y0107590D01*
X0082325Y0107645D01*
X0082305Y0107702D01*
X0082289Y0107761D01*
X0082276Y0107820D01*
X0082267Y0107879D01*
X0082262Y0107940D01*
X0082260Y0108000D01*
X0082260Y0114000D01*
X0082262Y0114060D01*
X0082267Y0114121D01*
X0082276Y0114180D01*
X0082289Y0114239D01*
X0082305Y0114298D01*
X0082325Y0114355D01*
X0082348Y0114410D01*
X0082375Y0114465D01*
X0082404Y0114517D01*
X0082437Y0114568D01*
X0082473Y0114617D01*
X0082511Y0114663D01*
X0082553Y0114707D01*
X0082597Y0114749D01*
X0082643Y0114787D01*
X0082692Y0114823D01*
X0082743Y0114856D01*
X0082795Y0114885D01*
X0082850Y0114912D01*
X0082905Y0114935D01*
X0082962Y0114955D01*
X0083021Y0114971D01*
X0083080Y0114984D01*
X0083139Y0114993D01*
X0083200Y0114998D01*
X0083260Y0115000D01*
X0084760Y0115000D01*
X0085260Y0114500D01*
X0099260Y0114500D01*
X0099760Y0115000D01*
X0101260Y0115000D01*
X0101320Y0114998D01*
X0101381Y0114993D01*
X0101440Y0114984D01*
X0101499Y0114971D01*
X0101558Y0114955D01*
X0101615Y0114935D01*
X0101670Y0114912D01*
X0101725Y0114885D01*
X0101777Y0114856D01*
X0101828Y0114823D01*
X0101877Y0114787D01*
X0101923Y0114749D01*
X0101967Y0114707D01*
X0102009Y0114663D01*
X0102047Y0114617D01*
X0102083Y0114568D01*
X0102116Y0114517D01*
X0102145Y0114465D01*
X0102172Y0114410D01*
X0102195Y0114355D01*
X0102215Y0114298D01*
X0102231Y0114239D01*
X0102244Y0114180D01*
X0102253Y0114121D01*
X0102258Y0114060D01*
X0102260Y0114000D01*
X0102260Y0108000D01*
X0102258Y0107940D01*
X0102253Y0107879D01*
X0102244Y0107820D01*
X0102231Y0107761D01*
X0102215Y0107702D01*
X0102195Y0107645D01*
X0102172Y0107590D01*
X0102145Y0107535D01*
X0102116Y0107483D01*
X0102083Y0107432D01*
X0102047Y0107383D01*
X0102009Y0107337D01*
X0101967Y0107293D01*
X0101923Y0107251D01*
X0101877Y0107213D01*
X0101828Y0107177D01*
X0101777Y0107144D01*
X0101725Y0107115D01*
X0101670Y0107088D01*
X0101615Y0107065D01*
X0101558Y0107045D01*
X0101499Y0107029D01*
X0101440Y0107016D01*
X0101381Y0107007D01*
X0101320Y0107002D01*
X0101260Y0107000D01*
X0101320Y0107002D01*
X0101381Y0107007D01*
X0101440Y0107016D01*
X0101499Y0107029D01*
X0101558Y0107045D01*
X0101615Y0107065D01*
X0101670Y0107088D01*
X0101725Y0107115D01*
X0101777Y0107144D01*
X0101828Y0107177D01*
X0101877Y0107213D01*
X0101923Y0107251D01*
X0101967Y0107293D01*
X0102009Y0107337D01*
X0102047Y0107383D01*
X0102083Y0107432D01*
X0102116Y0107483D01*
X0102145Y0107535D01*
X0102172Y0107590D01*
X0102195Y0107645D01*
X0102215Y0107702D01*
X0102231Y0107761D01*
X0102244Y0107820D01*
X0102253Y0107879D01*
X0102258Y0107940D01*
X0102260Y0108000D01*
X0102260Y0114000D02*
X0102258Y0114060D01*
X0102253Y0114121D01*
X0102244Y0114180D01*
X0102231Y0114239D01*
X0102215Y0114298D01*
X0102195Y0114355D01*
X0102172Y0114410D01*
X0102145Y0114465D01*
X0102116Y0114517D01*
X0102083Y0114568D01*
X0102047Y0114617D01*
X0102009Y0114663D01*
X0101967Y0114707D01*
X0101923Y0114749D01*
X0101877Y0114787D01*
X0101828Y0114823D01*
X0101777Y0114856D01*
X0101725Y0114885D01*
X0101670Y0114912D01*
X0101615Y0114935D01*
X0101558Y0114955D01*
X0101499Y0114971D01*
X0101440Y0114984D01*
X0101381Y0114993D01*
X0101320Y0114998D01*
X0101260Y0115000D01*
X0083260Y0115000D02*
X0083200Y0114998D01*
X0083139Y0114993D01*
X0083080Y0114984D01*
X0083021Y0114971D01*
X0082962Y0114955D01*
X0082905Y0114935D01*
X0082850Y0114912D01*
X0082795Y0114885D01*
X0082743Y0114856D01*
X0082692Y0114823D01*
X0082643Y0114787D01*
X0082597Y0114749D01*
X0082553Y0114707D01*
X0082511Y0114663D01*
X0082473Y0114617D01*
X0082437Y0114568D01*
X0082404Y0114517D01*
X0082375Y0114465D01*
X0082348Y0114410D01*
X0082325Y0114355D01*
X0082305Y0114298D01*
X0082289Y0114239D01*
X0082276Y0114180D01*
X0082267Y0114121D01*
X0082262Y0114060D01*
X0082260Y0114000D01*
X0082260Y0108000D02*
X0082262Y0107940D01*
X0082267Y0107879D01*
X0082276Y0107820D01*
X0082289Y0107761D01*
X0082305Y0107702D01*
X0082325Y0107645D01*
X0082348Y0107590D01*
X0082375Y0107535D01*
X0082404Y0107483D01*
X0082437Y0107432D01*
X0082473Y0107383D01*
X0082511Y0107337D01*
X0082553Y0107293D01*
X0082597Y0107251D01*
X0082643Y0107213D01*
X0082692Y0107177D01*
X0082743Y0107144D01*
X0082795Y0107115D01*
X0082850Y0107088D01*
X0082905Y0107065D01*
X0082962Y0107045D01*
X0083021Y0107029D01*
X0083080Y0107016D01*
X0083139Y0107007D01*
X0083200Y0107002D01*
X0083260Y0107000D01*
X0102260Y0098000D02*
X0102262Y0097940D01*
X0102267Y0097879D01*
X0102276Y0097820D01*
X0102289Y0097761D01*
X0102305Y0097702D01*
X0102325Y0097645D01*
X0102348Y0097590D01*
X0102375Y0097535D01*
X0102404Y0097483D01*
X0102437Y0097432D01*
X0102473Y0097383D01*
X0102511Y0097337D01*
X0102553Y0097293D01*
X0102597Y0097251D01*
X0102643Y0097213D01*
X0102692Y0097177D01*
X0102743Y0097144D01*
X0102795Y0097115D01*
X0102850Y0097088D01*
X0102905Y0097065D01*
X0102962Y0097045D01*
X0103021Y0097029D01*
X0103080Y0097016D01*
X0103139Y0097007D01*
X0103200Y0097002D01*
X0103260Y0097000D01*
X0131260Y0085000D02*
X0131320Y0084998D01*
X0131381Y0084993D01*
X0131440Y0084984D01*
X0131499Y0084971D01*
X0131558Y0084955D01*
X0131615Y0084935D01*
X0131670Y0084912D01*
X0131725Y0084885D01*
X0131777Y0084856D01*
X0131828Y0084823D01*
X0131877Y0084787D01*
X0131923Y0084749D01*
X0131967Y0084707D01*
X0132009Y0084663D01*
X0132047Y0084617D01*
X0132083Y0084568D01*
X0132116Y0084517D01*
X0132145Y0084465D01*
X0132172Y0084410D01*
X0132195Y0084355D01*
X0132215Y0084298D01*
X0132231Y0084239D01*
X0132244Y0084180D01*
X0132253Y0084121D01*
X0132258Y0084060D01*
X0132260Y0084000D01*
X0132260Y0078000D02*
X0132258Y0077940D01*
X0132253Y0077879D01*
X0132244Y0077820D01*
X0132231Y0077761D01*
X0132215Y0077702D01*
X0132195Y0077645D01*
X0132172Y0077590D01*
X0132145Y0077535D01*
X0132116Y0077483D01*
X0132083Y0077432D01*
X0132047Y0077383D01*
X0132009Y0077337D01*
X0131967Y0077293D01*
X0131923Y0077251D01*
X0131877Y0077213D01*
X0131828Y0077177D01*
X0131777Y0077144D01*
X0131725Y0077115D01*
X0131670Y0077088D01*
X0131615Y0077065D01*
X0131558Y0077045D01*
X0131499Y0077029D01*
X0131440Y0077016D01*
X0131381Y0077007D01*
X0131320Y0077002D01*
X0131260Y0077000D01*
X0131260Y0075000D02*
X0131320Y0074998D01*
X0131381Y0074993D01*
X0131440Y0074984D01*
X0131499Y0074971D01*
X0131558Y0074955D01*
X0131615Y0074935D01*
X0131670Y0074912D01*
X0131725Y0074885D01*
X0131777Y0074856D01*
X0131828Y0074823D01*
X0131877Y0074787D01*
X0131923Y0074749D01*
X0131967Y0074707D01*
X0132009Y0074663D01*
X0132047Y0074617D01*
X0132083Y0074568D01*
X0132116Y0074517D01*
X0132145Y0074465D01*
X0132172Y0074410D01*
X0132195Y0074355D01*
X0132215Y0074298D01*
X0132231Y0074239D01*
X0132244Y0074180D01*
X0132253Y0074121D01*
X0132258Y0074060D01*
X0132260Y0074000D01*
X0132260Y0068000D02*
X0132258Y0067940D01*
X0132253Y0067879D01*
X0132244Y0067820D01*
X0132231Y0067761D01*
X0132215Y0067702D01*
X0132195Y0067645D01*
X0132172Y0067590D01*
X0132145Y0067535D01*
X0132116Y0067483D01*
X0132083Y0067432D01*
X0132047Y0067383D01*
X0132009Y0067337D01*
X0131967Y0067293D01*
X0131923Y0067251D01*
X0131877Y0067213D01*
X0131828Y0067177D01*
X0131777Y0067144D01*
X0131725Y0067115D01*
X0131670Y0067088D01*
X0131615Y0067065D01*
X0131558Y0067045D01*
X0131499Y0067029D01*
X0131440Y0067016D01*
X0131381Y0067007D01*
X0131320Y0067002D01*
X0131260Y0067000D01*
X0131260Y0065000D02*
X0131320Y0064998D01*
X0131381Y0064993D01*
X0131440Y0064984D01*
X0131499Y0064971D01*
X0131558Y0064955D01*
X0131615Y0064935D01*
X0131670Y0064912D01*
X0131725Y0064885D01*
X0131777Y0064856D01*
X0131828Y0064823D01*
X0131877Y0064787D01*
X0131923Y0064749D01*
X0131967Y0064707D01*
X0132009Y0064663D01*
X0132047Y0064617D01*
X0132083Y0064568D01*
X0132116Y0064517D01*
X0132145Y0064465D01*
X0132172Y0064410D01*
X0132195Y0064355D01*
X0132215Y0064298D01*
X0132231Y0064239D01*
X0132244Y0064180D01*
X0132253Y0064121D01*
X0132258Y0064060D01*
X0132260Y0064000D01*
X0132260Y0058000D02*
X0132258Y0057940D01*
X0132253Y0057879D01*
X0132244Y0057820D01*
X0132231Y0057761D01*
X0132215Y0057702D01*
X0132195Y0057645D01*
X0132172Y0057590D01*
X0132145Y0057535D01*
X0132116Y0057483D01*
X0132083Y0057432D01*
X0132047Y0057383D01*
X0132009Y0057337D01*
X0131967Y0057293D01*
X0131923Y0057251D01*
X0131877Y0057213D01*
X0131828Y0057177D01*
X0131777Y0057144D01*
X0131725Y0057115D01*
X0131670Y0057088D01*
X0131615Y0057065D01*
X0131558Y0057045D01*
X0131499Y0057029D01*
X0131440Y0057016D01*
X0131381Y0057007D01*
X0131320Y0057002D01*
X0131260Y0057000D01*
X0131260Y0055000D02*
X0131320Y0054998D01*
X0131381Y0054993D01*
X0131440Y0054984D01*
X0131499Y0054971D01*
X0131558Y0054955D01*
X0131615Y0054935D01*
X0131670Y0054912D01*
X0131725Y0054885D01*
X0131777Y0054856D01*
X0131828Y0054823D01*
X0131877Y0054787D01*
X0131923Y0054749D01*
X0131967Y0054707D01*
X0132009Y0054663D01*
X0132047Y0054617D01*
X0132083Y0054568D01*
X0132116Y0054517D01*
X0132145Y0054465D01*
X0132172Y0054410D01*
X0132195Y0054355D01*
X0132215Y0054298D01*
X0132231Y0054239D01*
X0132244Y0054180D01*
X0132253Y0054121D01*
X0132258Y0054060D01*
X0132260Y0054000D01*
X0132260Y0048000D02*
X0132258Y0047940D01*
X0132253Y0047879D01*
X0132244Y0047820D01*
X0132231Y0047761D01*
X0132215Y0047702D01*
X0132195Y0047645D01*
X0132172Y0047590D01*
X0132145Y0047535D01*
X0132116Y0047483D01*
X0132083Y0047432D01*
X0132047Y0047383D01*
X0132009Y0047337D01*
X0131967Y0047293D01*
X0131923Y0047251D01*
X0131877Y0047213D01*
X0131828Y0047177D01*
X0131777Y0047144D01*
X0131725Y0047115D01*
X0131670Y0047088D01*
X0131615Y0047065D01*
X0131558Y0047045D01*
X0131499Y0047029D01*
X0131440Y0047016D01*
X0131381Y0047007D01*
X0131320Y0047002D01*
X0131260Y0047000D01*
X0131260Y0045000D02*
X0131320Y0044998D01*
X0131381Y0044993D01*
X0131440Y0044984D01*
X0131499Y0044971D01*
X0131558Y0044955D01*
X0131615Y0044935D01*
X0131670Y0044912D01*
X0131725Y0044885D01*
X0131777Y0044856D01*
X0131828Y0044823D01*
X0131877Y0044787D01*
X0131923Y0044749D01*
X0131967Y0044707D01*
X0132009Y0044663D01*
X0132047Y0044617D01*
X0132083Y0044568D01*
X0132116Y0044517D01*
X0132145Y0044465D01*
X0132172Y0044410D01*
X0132195Y0044355D01*
X0132215Y0044298D01*
X0132231Y0044239D01*
X0132244Y0044180D01*
X0132253Y0044121D01*
X0132258Y0044060D01*
X0132260Y0044000D01*
X0132260Y0038000D02*
X0132258Y0037940D01*
X0132253Y0037879D01*
X0132244Y0037820D01*
X0132231Y0037761D01*
X0132215Y0037702D01*
X0132195Y0037645D01*
X0132172Y0037590D01*
X0132145Y0037535D01*
X0132116Y0037483D01*
X0132083Y0037432D01*
X0132047Y0037383D01*
X0132009Y0037337D01*
X0131967Y0037293D01*
X0131923Y0037251D01*
X0131877Y0037213D01*
X0131828Y0037177D01*
X0131777Y0037144D01*
X0131725Y0037115D01*
X0131670Y0037088D01*
X0131615Y0037065D01*
X0131558Y0037045D01*
X0131499Y0037029D01*
X0131440Y0037016D01*
X0131381Y0037007D01*
X0131320Y0037002D01*
X0131260Y0037000D01*
X0122378Y0017513D02*
X0122469Y0017388D01*
X0122563Y0017266D01*
X0122661Y0017147D01*
X0122761Y0017030D01*
X0122865Y0016916D01*
X0122971Y0016804D01*
X0123080Y0016696D01*
X0123192Y0016590D01*
X0123307Y0016487D01*
X0123424Y0016387D01*
X0123544Y0016289D01*
X0123666Y0016196D01*
X0123790Y0016105D01*
X0123917Y0016017D01*
X0124046Y0015933D01*
X0124178Y0015852D01*
X0124311Y0015775D01*
X0124446Y0015701D01*
X0124583Y0015630D01*
X0124722Y0015563D01*
X0124862Y0015500D01*
X0125005Y0015440D01*
X0125148Y0015384D01*
X0125293Y0015332D01*
X0125439Y0015283D01*
X0125587Y0015238D01*
X0125735Y0015197D01*
X0125885Y0015160D01*
X0126035Y0015126D01*
X0126187Y0015097D01*
X0126339Y0015071D01*
X0126491Y0015049D01*
X0126644Y0015032D01*
X0126798Y0015018D01*
X0126952Y0015008D01*
X0127106Y0015002D01*
X0127260Y0015000D01*
X0131996Y0024683D02*
X0131902Y0024802D01*
X0131804Y0024918D01*
X0131704Y0025032D01*
X0131600Y0025143D01*
X0131494Y0025251D01*
X0131386Y0025357D01*
X0131274Y0025459D01*
X0131160Y0025559D01*
X0131044Y0025657D01*
X0130925Y0025751D01*
X0130804Y0025842D01*
X0130680Y0025930D01*
X0130554Y0026015D01*
X0130427Y0026096D01*
X0130297Y0026175D01*
X0130165Y0026250D01*
X0130032Y0026321D01*
X0129896Y0026390D01*
X0129759Y0026455D01*
X0129621Y0026516D01*
X0129480Y0026574D01*
X0129339Y0026628D01*
X0129196Y0026679D01*
X0129052Y0026726D01*
X0128907Y0026770D01*
X0128760Y0026809D01*
X0128613Y0026845D01*
X0128465Y0026878D01*
X0128316Y0026906D01*
X0128166Y0026931D01*
X0128016Y0026952D01*
X0127866Y0026969D01*
X0127714Y0026983D01*
X0127563Y0026992D01*
X0127412Y0026998D01*
X0127260Y0027000D01*
X0132060Y0017400D02*
X0131968Y0017281D01*
X0131874Y0017164D01*
X0131776Y0017050D01*
X0131676Y0016938D01*
X0131572Y0016828D01*
X0131467Y0016722D01*
X0131358Y0016617D01*
X0131247Y0016516D01*
X0131133Y0016418D01*
X0131017Y0016322D01*
X0130899Y0016229D01*
X0130778Y0016140D01*
X0130655Y0016053D01*
X0130530Y0015970D01*
X0130403Y0015889D01*
X0130274Y0015812D01*
X0130143Y0015738D01*
X0130010Y0015667D01*
X0129876Y0015600D01*
X0129740Y0015536D01*
X0129602Y0015476D01*
X0129463Y0015419D01*
X0129322Y0015366D01*
X0129180Y0015316D01*
X0129037Y0015269D01*
X0128893Y0015227D01*
X0128748Y0015187D01*
X0128602Y0015152D01*
X0128455Y0015120D01*
X0128307Y0015092D01*
X0128159Y0015068D01*
X0128010Y0015047D01*
X0127860Y0015030D01*
X0127711Y0015017D01*
X0127561Y0015008D01*
X0127410Y0015002D01*
X0127260Y0015000D01*
X0122524Y0024683D02*
X0122618Y0024802D01*
X0122716Y0024918D01*
X0122816Y0025032D01*
X0122920Y0025143D01*
X0123026Y0025251D01*
X0123134Y0025357D01*
X0123246Y0025459D01*
X0123360Y0025559D01*
X0123476Y0025657D01*
X0123595Y0025751D01*
X0123716Y0025842D01*
X0123840Y0025930D01*
X0123966Y0026015D01*
X0124093Y0026096D01*
X0124223Y0026175D01*
X0124355Y0026250D01*
X0124488Y0026321D01*
X0124624Y0026390D01*
X0124761Y0026455D01*
X0124899Y0026516D01*
X0125040Y0026574D01*
X0125181Y0026628D01*
X0125324Y0026679D01*
X0125468Y0026726D01*
X0125613Y0026770D01*
X0125760Y0026809D01*
X0125907Y0026845D01*
X0126055Y0026878D01*
X0126204Y0026906D01*
X0126354Y0026931D01*
X0126504Y0026952D01*
X0126654Y0026969D01*
X0126806Y0026983D01*
X0126957Y0026992D01*
X0127108Y0026998D01*
X0127260Y0027000D01*
X0157260Y0027000D02*
X0157414Y0026998D01*
X0157568Y0026992D01*
X0157722Y0026982D01*
X0157876Y0026968D01*
X0158029Y0026951D01*
X0158181Y0026929D01*
X0158333Y0026903D01*
X0158485Y0026874D01*
X0158635Y0026840D01*
X0158785Y0026803D01*
X0158933Y0026762D01*
X0159081Y0026717D01*
X0159227Y0026668D01*
X0159372Y0026616D01*
X0159515Y0026560D01*
X0159658Y0026500D01*
X0159798Y0026437D01*
X0159937Y0026370D01*
X0160074Y0026299D01*
X0160209Y0026225D01*
X0160342Y0026148D01*
X0160474Y0026067D01*
X0160603Y0025983D01*
X0160730Y0025895D01*
X0160854Y0025804D01*
X0160976Y0025711D01*
X0161096Y0025613D01*
X0161213Y0025513D01*
X0161328Y0025410D01*
X0161440Y0025304D01*
X0161549Y0025196D01*
X0161655Y0025084D01*
X0161759Y0024970D01*
X0161859Y0024853D01*
X0161957Y0024734D01*
X0162051Y0024612D01*
X0162142Y0024487D01*
X0157260Y0015000D02*
X0157108Y0015002D01*
X0156957Y0015008D01*
X0156806Y0015017D01*
X0156654Y0015031D01*
X0156504Y0015048D01*
X0156354Y0015069D01*
X0156204Y0015094D01*
X0156055Y0015122D01*
X0155907Y0015155D01*
X0155760Y0015191D01*
X0155613Y0015230D01*
X0155468Y0015274D01*
X0155324Y0015321D01*
X0155181Y0015372D01*
X0155040Y0015426D01*
X0154899Y0015484D01*
X0154761Y0015545D01*
X0154624Y0015610D01*
X0154488Y0015679D01*
X0154355Y0015750D01*
X0154223Y0015825D01*
X0154093Y0015904D01*
X0153966Y0015985D01*
X0153840Y0016070D01*
X0153716Y0016158D01*
X0153595Y0016249D01*
X0153476Y0016343D01*
X0153360Y0016441D01*
X0153246Y0016541D01*
X0153134Y0016643D01*
X0153026Y0016749D01*
X0152920Y0016857D01*
X0152816Y0016968D01*
X0152716Y0017082D01*
X0152618Y0017198D01*
X0152524Y0017317D01*
X0157260Y0015000D02*
X0157412Y0015002D01*
X0157563Y0015008D01*
X0157714Y0015017D01*
X0157866Y0015031D01*
X0158016Y0015048D01*
X0158166Y0015069D01*
X0158316Y0015094D01*
X0158465Y0015122D01*
X0158613Y0015155D01*
X0158760Y0015191D01*
X0158907Y0015230D01*
X0159052Y0015274D01*
X0159196Y0015321D01*
X0159339Y0015372D01*
X0159480Y0015426D01*
X0159621Y0015484D01*
X0159759Y0015545D01*
X0159896Y0015610D01*
X0160032Y0015679D01*
X0160165Y0015750D01*
X0160297Y0015825D01*
X0160427Y0015904D01*
X0160554Y0015985D01*
X0160680Y0016070D01*
X0160804Y0016158D01*
X0160925Y0016249D01*
X0161044Y0016343D01*
X0161160Y0016441D01*
X0161274Y0016541D01*
X0161386Y0016643D01*
X0161494Y0016749D01*
X0161600Y0016857D01*
X0161704Y0016968D01*
X0161804Y0017082D01*
X0161902Y0017198D01*
X0161996Y0017317D01*
X0157260Y0027000D02*
X0157110Y0026998D01*
X0156959Y0026992D01*
X0156809Y0026983D01*
X0156660Y0026970D01*
X0156510Y0026953D01*
X0156361Y0026932D01*
X0156213Y0026908D01*
X0156065Y0026880D01*
X0155918Y0026848D01*
X0155772Y0026813D01*
X0155627Y0026773D01*
X0155483Y0026731D01*
X0155340Y0026684D01*
X0155198Y0026634D01*
X0155057Y0026581D01*
X0154918Y0026524D01*
X0154780Y0026464D01*
X0154644Y0026400D01*
X0154510Y0026333D01*
X0154377Y0026262D01*
X0154246Y0026188D01*
X0154117Y0026111D01*
X0153990Y0026030D01*
X0153865Y0025947D01*
X0153742Y0025860D01*
X0153621Y0025771D01*
X0153503Y0025678D01*
X0153387Y0025582D01*
X0153273Y0025484D01*
X0153162Y0025383D01*
X0153053Y0025278D01*
X0152948Y0025172D01*
X0152844Y0025062D01*
X0152744Y0024950D01*
X0152646Y0024836D01*
X0152552Y0024719D01*
X0152460Y0024600D01*
X0086260Y0045000D02*
X0086258Y0045060D01*
X0086253Y0045121D01*
X0086244Y0045180D01*
X0086231Y0045239D01*
X0086215Y0045298D01*
X0086195Y0045355D01*
X0086172Y0045410D01*
X0086145Y0045465D01*
X0086116Y0045517D01*
X0086083Y0045568D01*
X0086047Y0045617D01*
X0086009Y0045663D01*
X0085967Y0045707D01*
X0085923Y0045749D01*
X0085877Y0045787D01*
X0085828Y0045823D01*
X0085777Y0045856D01*
X0085725Y0045885D01*
X0085670Y0045912D01*
X0085615Y0045935D01*
X0085558Y0045955D01*
X0085499Y0045971D01*
X0085440Y0045984D01*
X0085381Y0045993D01*
X0085320Y0045998D01*
X0085260Y0046000D01*
X0079260Y0046000D02*
X0079200Y0045998D01*
X0079139Y0045993D01*
X0079080Y0045984D01*
X0079021Y0045971D01*
X0078962Y0045955D01*
X0078905Y0045935D01*
X0078850Y0045912D01*
X0078795Y0045885D01*
X0078743Y0045856D01*
X0078692Y0045823D01*
X0078643Y0045787D01*
X0078597Y0045749D01*
X0078553Y0045707D01*
X0078511Y0045663D01*
X0078473Y0045617D01*
X0078437Y0045568D01*
X0078404Y0045517D01*
X0078375Y0045465D01*
X0078348Y0045410D01*
X0078325Y0045355D01*
X0078305Y0045298D01*
X0078289Y0045239D01*
X0078276Y0045180D01*
X0078267Y0045121D01*
X0078262Y0045060D01*
X0078260Y0045000D01*
X0007260Y0061000D02*
X0007263Y0061245D01*
X0007272Y0061491D01*
X0007287Y0061736D01*
X0007308Y0061980D01*
X0007335Y0062224D01*
X0007368Y0062467D01*
X0007407Y0062710D01*
X0007452Y0062951D01*
X0007503Y0063191D01*
X0007560Y0063430D01*
X0007622Y0063667D01*
X0007691Y0063903D01*
X0007765Y0064137D01*
X0007845Y0064369D01*
X0007930Y0064599D01*
X0008021Y0064827D01*
X0008118Y0065052D01*
X0008220Y0065276D01*
X0008328Y0065496D01*
X0008441Y0065714D01*
X0008559Y0065929D01*
X0008683Y0066141D01*
X0008811Y0066350D01*
X0008945Y0066556D01*
X0009084Y0066758D01*
X0009228Y0066957D01*
X0009377Y0067152D01*
X0009530Y0067344D01*
X0009688Y0067532D01*
X0009850Y0067716D01*
X0010018Y0067895D01*
X0010189Y0068071D01*
X0010365Y0068242D01*
X0010544Y0068410D01*
X0010728Y0068572D01*
X0010916Y0068730D01*
X0011108Y0068883D01*
X0011303Y0069032D01*
X0011502Y0069176D01*
X0011704Y0069315D01*
X0011910Y0069449D01*
X0012119Y0069577D01*
X0012331Y0069701D01*
X0012546Y0069819D01*
X0012764Y0069932D01*
X0012984Y0070040D01*
X0013208Y0070142D01*
X0013433Y0070239D01*
X0013661Y0070330D01*
X0013891Y0070415D01*
X0014123Y0070495D01*
X0014357Y0070569D01*
X0014593Y0070638D01*
X0014830Y0070700D01*
X0015069Y0070757D01*
X0015309Y0070808D01*
X0015550Y0070853D01*
X0015793Y0070892D01*
X0016036Y0070925D01*
X0016280Y0070952D01*
X0016524Y0070973D01*
X0016769Y0070988D01*
X0017015Y0070997D01*
X0017260Y0071000D01*
X0017505Y0070997D01*
X0017751Y0070988D01*
X0017996Y0070973D01*
X0018240Y0070952D01*
X0018484Y0070925D01*
X0018727Y0070892D01*
X0018970Y0070853D01*
X0019211Y0070808D01*
X0019451Y0070757D01*
X0019690Y0070700D01*
X0019927Y0070638D01*
X0020163Y0070569D01*
X0020397Y0070495D01*
X0020629Y0070415D01*
X0020859Y0070330D01*
X0021087Y0070239D01*
X0021312Y0070142D01*
X0021536Y0070040D01*
X0021756Y0069932D01*
X0021974Y0069819D01*
X0022189Y0069701D01*
X0022401Y0069577D01*
X0022610Y0069449D01*
X0022816Y0069315D01*
X0023018Y0069176D01*
X0023217Y0069032D01*
X0023412Y0068883D01*
X0023604Y0068730D01*
X0023792Y0068572D01*
X0023976Y0068410D01*
X0024155Y0068242D01*
X0024331Y0068071D01*
X0024502Y0067895D01*
X0024670Y0067716D01*
X0024832Y0067532D01*
X0024990Y0067344D01*
X0025143Y0067152D01*
X0025292Y0066957D01*
X0025436Y0066758D01*
X0025575Y0066556D01*
X0025709Y0066350D01*
X0025837Y0066141D01*
X0025961Y0065929D01*
X0026079Y0065714D01*
X0026192Y0065496D01*
X0026300Y0065276D01*
X0026402Y0065052D01*
X0026499Y0064827D01*
X0026590Y0064599D01*
X0026675Y0064369D01*
X0026755Y0064137D01*
X0026829Y0063903D01*
X0026898Y0063667D01*
X0026960Y0063430D01*
X0027017Y0063191D01*
X0027068Y0062951D01*
X0027113Y0062710D01*
X0027152Y0062467D01*
X0027185Y0062224D01*
X0027212Y0061980D01*
X0027233Y0061736D01*
X0027248Y0061491D01*
X0027257Y0061245D01*
X0027260Y0061000D01*
X0027257Y0060755D01*
X0027248Y0060509D01*
X0027233Y0060264D01*
X0027212Y0060020D01*
X0027185Y0059776D01*
X0027152Y0059533D01*
X0027113Y0059290D01*
X0027068Y0059049D01*
X0027017Y0058809D01*
X0026960Y0058570D01*
X0026898Y0058333D01*
X0026829Y0058097D01*
X0026755Y0057863D01*
X0026675Y0057631D01*
X0026590Y0057401D01*
X0026499Y0057173D01*
X0026402Y0056948D01*
X0026300Y0056724D01*
X0026192Y0056504D01*
X0026079Y0056286D01*
X0025961Y0056071D01*
X0025837Y0055859D01*
X0025709Y0055650D01*
X0025575Y0055444D01*
X0025436Y0055242D01*
X0025292Y0055043D01*
X0025143Y0054848D01*
X0024990Y0054656D01*
X0024832Y0054468D01*
X0024670Y0054284D01*
X0024502Y0054105D01*
X0024331Y0053929D01*
X0024155Y0053758D01*
X0023976Y0053590D01*
X0023792Y0053428D01*
X0023604Y0053270D01*
X0023412Y0053117D01*
X0023217Y0052968D01*
X0023018Y0052824D01*
X0022816Y0052685D01*
X0022610Y0052551D01*
X0022401Y0052423D01*
X0022189Y0052299D01*
X0021974Y0052181D01*
X0021756Y0052068D01*
X0021536Y0051960D01*
X0021312Y0051858D01*
X0021087Y0051761D01*
X0020859Y0051670D01*
X0020629Y0051585D01*
X0020397Y0051505D01*
X0020163Y0051431D01*
X0019927Y0051362D01*
X0019690Y0051300D01*
X0019451Y0051243D01*
X0019211Y0051192D01*
X0018970Y0051147D01*
X0018727Y0051108D01*
X0018484Y0051075D01*
X0018240Y0051048D01*
X0017996Y0051027D01*
X0017751Y0051012D01*
X0017505Y0051003D01*
X0017260Y0051000D01*
X0017015Y0051003D01*
X0016769Y0051012D01*
X0016524Y0051027D01*
X0016280Y0051048D01*
X0016036Y0051075D01*
X0015793Y0051108D01*
X0015550Y0051147D01*
X0015309Y0051192D01*
X0015069Y0051243D01*
X0014830Y0051300D01*
X0014593Y0051362D01*
X0014357Y0051431D01*
X0014123Y0051505D01*
X0013891Y0051585D01*
X0013661Y0051670D01*
X0013433Y0051761D01*
X0013208Y0051858D01*
X0012984Y0051960D01*
X0012764Y0052068D01*
X0012546Y0052181D01*
X0012331Y0052299D01*
X0012119Y0052423D01*
X0011910Y0052551D01*
X0011704Y0052685D01*
X0011502Y0052824D01*
X0011303Y0052968D01*
X0011108Y0053117D01*
X0010916Y0053270D01*
X0010728Y0053428D01*
X0010544Y0053590D01*
X0010365Y0053758D01*
X0010189Y0053929D01*
X0010018Y0054105D01*
X0009850Y0054284D01*
X0009688Y0054468D01*
X0009530Y0054656D01*
X0009377Y0054848D01*
X0009228Y0055043D01*
X0009084Y0055242D01*
X0008945Y0055444D01*
X0008811Y0055650D01*
X0008683Y0055859D01*
X0008559Y0056071D01*
X0008441Y0056286D01*
X0008328Y0056504D01*
X0008220Y0056724D01*
X0008118Y0056948D01*
X0008021Y0057173D01*
X0007930Y0057401D01*
X0007845Y0057631D01*
X0007765Y0057863D01*
X0007691Y0058097D01*
X0007622Y0058333D01*
X0007560Y0058570D01*
X0007503Y0058809D01*
X0007452Y0059049D01*
X0007407Y0059290D01*
X0007368Y0059533D01*
X0007335Y0059776D01*
X0007308Y0060020D01*
X0007287Y0060264D01*
X0007272Y0060509D01*
X0007263Y0060755D01*
X0007260Y0061000D01*
X0011760Y0065000D02*
X0011760Y0066000D01*
X0011760Y0067000D01*
X0011760Y0066000D02*
X0012760Y0066000D01*
X0011760Y0066000D02*
X0010760Y0066000D01*
X0148260Y0082000D02*
X0148260Y0083500D01*
X0148760Y0084000D01*
X0148760Y0098000D01*
X0148260Y0098500D01*
X0148260Y0100000D01*
X0148262Y0100060D01*
X0148267Y0100121D01*
X0148276Y0100180D01*
X0148289Y0100239D01*
X0148305Y0100298D01*
X0148325Y0100355D01*
X0148348Y0100410D01*
X0148375Y0100465D01*
X0148404Y0100517D01*
X0148437Y0100568D01*
X0148473Y0100617D01*
X0148511Y0100663D01*
X0148553Y0100707D01*
X0148597Y0100749D01*
X0148643Y0100787D01*
X0148692Y0100823D01*
X0148743Y0100856D01*
X0148795Y0100885D01*
X0148850Y0100912D01*
X0148905Y0100935D01*
X0148962Y0100955D01*
X0149021Y0100971D01*
X0149080Y0100984D01*
X0149139Y0100993D01*
X0149200Y0100998D01*
X0149260Y0101000D01*
X0155260Y0101000D01*
X0155320Y0100998D01*
X0155381Y0100993D01*
X0155440Y0100984D01*
X0155499Y0100971D01*
X0155558Y0100955D01*
X0155615Y0100935D01*
X0155670Y0100912D01*
X0155725Y0100885D01*
X0155777Y0100856D01*
X0155828Y0100823D01*
X0155877Y0100787D01*
X0155923Y0100749D01*
X0155967Y0100707D01*
X0156009Y0100663D01*
X0156047Y0100617D01*
X0156083Y0100568D01*
X0156116Y0100517D01*
X0156145Y0100465D01*
X0156172Y0100410D01*
X0156195Y0100355D01*
X0156215Y0100298D01*
X0156231Y0100239D01*
X0156244Y0100180D01*
X0156253Y0100121D01*
X0156258Y0100060D01*
X0156260Y0100000D01*
X0156260Y0098500D01*
X0155760Y0098000D01*
X0155760Y0084000D01*
X0156260Y0083500D01*
X0156260Y0082000D01*
X0156258Y0081940D01*
X0156253Y0081879D01*
X0156244Y0081820D01*
X0156231Y0081761D01*
X0156215Y0081702D01*
X0156195Y0081645D01*
X0156172Y0081590D01*
X0156145Y0081535D01*
X0156116Y0081483D01*
X0156083Y0081432D01*
X0156047Y0081383D01*
X0156009Y0081337D01*
X0155967Y0081293D01*
X0155923Y0081251D01*
X0155877Y0081213D01*
X0155828Y0081177D01*
X0155777Y0081144D01*
X0155725Y0081115D01*
X0155670Y0081088D01*
X0155615Y0081065D01*
X0155558Y0081045D01*
X0155499Y0081029D01*
X0155440Y0081016D01*
X0155381Y0081007D01*
X0155320Y0081002D01*
X0155260Y0081000D01*
X0149260Y0081000D01*
X0149200Y0081002D01*
X0149139Y0081007D01*
X0149080Y0081016D01*
X0149021Y0081029D01*
X0148962Y0081045D01*
X0148905Y0081065D01*
X0148850Y0081088D01*
X0148795Y0081115D01*
X0148743Y0081144D01*
X0148692Y0081177D01*
X0148643Y0081213D01*
X0148597Y0081251D01*
X0148553Y0081293D01*
X0148511Y0081337D01*
X0148473Y0081383D01*
X0148437Y0081432D01*
X0148404Y0081483D01*
X0148375Y0081535D01*
X0148348Y0081590D01*
X0148325Y0081645D01*
X0148305Y0081702D01*
X0148289Y0081761D01*
X0148276Y0081820D01*
X0148267Y0081879D01*
X0148262Y0081940D01*
X0148260Y0082000D01*
X0148262Y0081940D01*
X0148267Y0081879D01*
X0148276Y0081820D01*
X0148289Y0081761D01*
X0148305Y0081702D01*
X0148325Y0081645D01*
X0148348Y0081590D01*
X0148375Y0081535D01*
X0148404Y0081483D01*
X0148437Y0081432D01*
X0148473Y0081383D01*
X0148511Y0081337D01*
X0148553Y0081293D01*
X0148597Y0081251D01*
X0148643Y0081213D01*
X0148692Y0081177D01*
X0148743Y0081144D01*
X0148795Y0081115D01*
X0148850Y0081088D01*
X0148905Y0081065D01*
X0148962Y0081045D01*
X0149021Y0081029D01*
X0149080Y0081016D01*
X0149139Y0081007D01*
X0149200Y0081002D01*
X0149260Y0081000D01*
X0155260Y0081000D02*
X0155320Y0081002D01*
X0155381Y0081007D01*
X0155440Y0081016D01*
X0155499Y0081029D01*
X0155558Y0081045D01*
X0155615Y0081065D01*
X0155670Y0081088D01*
X0155725Y0081115D01*
X0155777Y0081144D01*
X0155828Y0081177D01*
X0155877Y0081213D01*
X0155923Y0081251D01*
X0155967Y0081293D01*
X0156009Y0081337D01*
X0156047Y0081383D01*
X0156083Y0081432D01*
X0156116Y0081483D01*
X0156145Y0081535D01*
X0156172Y0081590D01*
X0156195Y0081645D01*
X0156215Y0081702D01*
X0156231Y0081761D01*
X0156244Y0081820D01*
X0156253Y0081879D01*
X0156258Y0081940D01*
X0156260Y0082000D01*
X0156260Y0100000D02*
X0156258Y0100060D01*
X0156253Y0100121D01*
X0156244Y0100180D01*
X0156231Y0100239D01*
X0156215Y0100298D01*
X0156195Y0100355D01*
X0156172Y0100410D01*
X0156145Y0100465D01*
X0156116Y0100517D01*
X0156083Y0100568D01*
X0156047Y0100617D01*
X0156009Y0100663D01*
X0155967Y0100707D01*
X0155923Y0100749D01*
X0155877Y0100787D01*
X0155828Y0100823D01*
X0155777Y0100856D01*
X0155725Y0100885D01*
X0155670Y0100912D01*
X0155615Y0100935D01*
X0155558Y0100955D01*
X0155499Y0100971D01*
X0155440Y0100984D01*
X0155381Y0100993D01*
X0155320Y0100998D01*
X0155260Y0101000D01*
X0149260Y0101000D02*
X0149200Y0100998D01*
X0149139Y0100993D01*
X0149080Y0100984D01*
X0149021Y0100971D01*
X0148962Y0100955D01*
X0148905Y0100935D01*
X0148850Y0100912D01*
X0148795Y0100885D01*
X0148743Y0100856D01*
X0148692Y0100823D01*
X0148643Y0100787D01*
X0148597Y0100749D01*
X0148553Y0100707D01*
X0148511Y0100663D01*
X0148473Y0100617D01*
X0148437Y0100568D01*
X0148404Y0100517D01*
X0148375Y0100465D01*
X0148348Y0100410D01*
X0148325Y0100355D01*
X0148305Y0100298D01*
X0148289Y0100239D01*
X0148276Y0100180D01*
X0148267Y0100121D01*
X0148262Y0100060D01*
X0148260Y0100000D01*
D11*
X0148384Y0103600D02*
X0148384Y0105802D01*
X0147650Y0105068D01*
X0146908Y0105435D02*
X0146541Y0105802D01*
X0145440Y0105802D01*
X0145440Y0103600D01*
X0145440Y0104334D02*
X0146541Y0104334D01*
X0146908Y0104701D01*
X0146908Y0105435D01*
X0146174Y0104334D02*
X0146908Y0103600D01*
X0147650Y0103600D02*
X0149118Y0103600D01*
X0125854Y0081735D02*
X0125487Y0082102D01*
X0124753Y0082102D01*
X0124386Y0081735D01*
X0124386Y0081001D01*
X0124753Y0080634D01*
X0124753Y0079900D01*
X0124386Y0079900D01*
X0123645Y0079900D02*
X0122544Y0080634D01*
X0123645Y0081368D01*
X0122544Y0082102D02*
X0122544Y0079900D01*
X0121802Y0081735D02*
X0120334Y0080267D01*
X0120334Y0079900D01*
X0119592Y0079900D02*
X0118124Y0079900D01*
X0119592Y0081368D01*
X0119592Y0081735D01*
X0119225Y0082102D01*
X0118491Y0082102D01*
X0118124Y0081735D01*
X0120334Y0082102D02*
X0121802Y0082102D01*
X0121802Y0081735D01*
X0125487Y0080634D02*
X0125487Y0079900D01*
X0125854Y0079900D01*
X0125487Y0080634D02*
X0125854Y0081001D01*
X0125854Y0081735D01*
X0133860Y0078302D02*
X0133860Y0076100D01*
X0133860Y0076834D02*
X0134961Y0076834D01*
X0135328Y0077201D01*
X0135328Y0077935D01*
X0134961Y0078302D01*
X0133860Y0078302D01*
X0134594Y0076834D02*
X0135328Y0076100D01*
X0136070Y0076467D02*
X0136437Y0076100D01*
X0137171Y0076100D01*
X0137538Y0076467D01*
X0137538Y0077935D01*
X0137171Y0078302D01*
X0136437Y0078302D01*
X0136070Y0077935D01*
X0136070Y0077568D01*
X0136437Y0077201D01*
X0137538Y0077201D01*
X0137538Y0068302D02*
X0136070Y0068302D01*
X0136070Y0067201D01*
X0136804Y0067568D01*
X0137171Y0067568D01*
X0137538Y0067201D01*
X0137538Y0066467D01*
X0137171Y0066100D01*
X0136437Y0066100D01*
X0136070Y0066467D01*
X0135328Y0066100D02*
X0134594Y0066834D01*
X0134961Y0066834D02*
X0133860Y0066834D01*
X0133860Y0066100D02*
X0133860Y0068302D01*
X0134961Y0068302D01*
X0135328Y0067935D01*
X0135328Y0067201D01*
X0134961Y0066834D01*
X0126038Y0069900D02*
X0125671Y0069900D01*
X0125671Y0070634D01*
X0126038Y0071001D01*
X0126038Y0071735D01*
X0125671Y0072102D01*
X0124937Y0072102D01*
X0124570Y0071735D01*
X0124570Y0071001D01*
X0124937Y0070634D01*
X0124937Y0069900D01*
X0124570Y0069900D01*
X0123828Y0070267D02*
X0123461Y0069900D01*
X0122727Y0069900D01*
X0122360Y0070267D01*
X0123828Y0071735D01*
X0123828Y0070267D01*
X0123828Y0071735D02*
X0123461Y0072102D01*
X0122727Y0072102D01*
X0122360Y0071735D01*
X0122360Y0070267D01*
X0121618Y0070267D02*
X0121251Y0069900D01*
X0120517Y0069900D01*
X0120150Y0070267D01*
X0120150Y0070634D01*
X0120517Y0071001D01*
X0121251Y0071001D01*
X0121618Y0070634D01*
X0121618Y0070267D01*
X0121251Y0071001D02*
X0121618Y0071368D01*
X0121618Y0071735D01*
X0121251Y0072102D01*
X0120517Y0072102D01*
X0120150Y0071735D01*
X0120150Y0071368D01*
X0120517Y0071001D01*
X0119408Y0070634D02*
X0119041Y0071001D01*
X0117940Y0071001D01*
X0117940Y0070267D01*
X0118307Y0069900D01*
X0119041Y0069900D01*
X0119408Y0070267D01*
X0119408Y0070634D01*
X0118674Y0071735D02*
X0117940Y0071001D01*
X0118674Y0071735D02*
X0119408Y0072102D01*
X0119596Y0062102D02*
X0119229Y0061735D01*
X0119596Y0062102D02*
X0120330Y0062102D01*
X0120697Y0061735D01*
X0120697Y0061368D01*
X0119229Y0059900D01*
X0120697Y0059900D01*
X0121439Y0059900D02*
X0121439Y0062102D01*
X0122540Y0061368D02*
X0121439Y0060634D01*
X0122540Y0059900D01*
X0123281Y0059900D02*
X0123648Y0059900D01*
X0123648Y0060634D01*
X0123281Y0061001D01*
X0123281Y0061735D01*
X0123648Y0062102D01*
X0124382Y0062102D01*
X0124749Y0061735D01*
X0124749Y0061001D01*
X0124382Y0060634D01*
X0124382Y0059900D01*
X0124749Y0059900D01*
X0133860Y0058302D02*
X0133860Y0056100D01*
X0133860Y0056834D02*
X0134961Y0056834D01*
X0135328Y0057201D01*
X0135328Y0057935D01*
X0134961Y0058302D01*
X0133860Y0058302D01*
X0134594Y0056834D02*
X0135328Y0056100D01*
X0136070Y0056467D02*
X0136437Y0056100D01*
X0137171Y0056100D01*
X0137538Y0056467D01*
X0137538Y0056834D01*
X0137171Y0057201D01*
X0136804Y0057201D01*
X0137171Y0057201D02*
X0137538Y0057568D01*
X0137538Y0057935D01*
X0137171Y0058302D01*
X0136437Y0058302D01*
X0136070Y0057935D01*
X0124749Y0051735D02*
X0124749Y0051001D01*
X0124382Y0050634D01*
X0124382Y0049900D01*
X0124749Y0049900D01*
X0123648Y0049900D02*
X0123648Y0050634D01*
X0123281Y0051001D01*
X0123281Y0051735D01*
X0123648Y0052102D01*
X0124382Y0052102D01*
X0124749Y0051735D01*
X0123648Y0049900D02*
X0123281Y0049900D01*
X0122540Y0049900D02*
X0121439Y0050634D01*
X0122540Y0051368D01*
X0121439Y0052102D02*
X0121439Y0049900D01*
X0120697Y0049900D02*
X0119229Y0049900D01*
X0119963Y0049900D02*
X0119963Y0052102D01*
X0119229Y0051368D01*
X0119963Y0042102D02*
X0119963Y0039900D01*
X0119229Y0039900D02*
X0120697Y0039900D01*
X0121439Y0039900D02*
X0121439Y0042102D01*
X0122540Y0041368D02*
X0121439Y0040634D01*
X0122540Y0039900D01*
X0123281Y0039900D02*
X0123648Y0039900D01*
X0123648Y0040634D01*
X0123281Y0041001D01*
X0123281Y0041735D01*
X0123648Y0042102D01*
X0124382Y0042102D01*
X0124749Y0041735D01*
X0124749Y0041001D01*
X0124382Y0040634D01*
X0124382Y0039900D01*
X0124749Y0039900D01*
X0119963Y0042102D02*
X0119229Y0041368D01*
X0133860Y0038302D02*
X0133860Y0036100D01*
X0133860Y0036834D02*
X0134961Y0036834D01*
X0135328Y0037201D01*
X0135328Y0037935D01*
X0134961Y0038302D01*
X0133860Y0038302D01*
X0136070Y0037201D02*
X0137171Y0037201D01*
X0137538Y0036834D01*
X0137538Y0036467D01*
X0137171Y0036100D01*
X0136437Y0036100D01*
X0136070Y0036467D01*
X0136070Y0037201D01*
X0136804Y0037935D01*
X0137538Y0038302D01*
X0135328Y0036100D02*
X0134594Y0036834D01*
X0135328Y0046100D02*
X0134594Y0046834D01*
X0134961Y0046834D02*
X0133860Y0046834D01*
X0133860Y0046100D02*
X0133860Y0048302D01*
X0134961Y0048302D01*
X0135328Y0047935D01*
X0135328Y0047201D01*
X0134961Y0046834D01*
X0136070Y0046100D02*
X0137538Y0047568D01*
X0137538Y0047935D01*
X0137171Y0048302D01*
X0136437Y0048302D01*
X0136070Y0047935D01*
X0136070Y0046100D02*
X0137538Y0046100D01*
X0118751Y0026668D02*
X0119118Y0026301D01*
X0119118Y0025934D01*
X0117650Y0025934D01*
X0117650Y0026301D02*
X0118017Y0026668D01*
X0118751Y0026668D01*
X0117650Y0026301D02*
X0117650Y0025567D01*
X0118017Y0025200D01*
X0118751Y0025200D01*
X0116908Y0025200D02*
X0116908Y0026668D01*
X0115440Y0026668D02*
X0115440Y0025567D01*
X0115807Y0025200D01*
X0116908Y0025200D01*
X0114701Y0025200D02*
X0113967Y0025200D01*
X0114334Y0025200D02*
X0114334Y0027402D01*
X0113967Y0027402D01*
X0113225Y0027035D02*
X0113225Y0026668D01*
X0112858Y0026301D01*
X0111757Y0026301D01*
X0111757Y0025200D02*
X0111757Y0027402D01*
X0112858Y0027402D01*
X0113225Y0027035D01*
X0112858Y0026301D02*
X0113225Y0025934D01*
X0113225Y0025567D01*
X0112858Y0025200D01*
X0111757Y0025200D01*
X0112224Y0024802D02*
X0111490Y0024068D01*
X0110748Y0024435D02*
X0110381Y0024802D01*
X0109280Y0024802D01*
X0109280Y0022600D01*
X0110381Y0022600D01*
X0110748Y0022967D01*
X0110748Y0024435D01*
X0112224Y0024802D02*
X0112224Y0022600D01*
X0111490Y0022600D02*
X0112958Y0022600D01*
X0113230Y0019402D02*
X0113230Y0017200D01*
X0114698Y0017200D01*
X0115440Y0017200D02*
X0116541Y0017200D01*
X0116908Y0017567D01*
X0116908Y0019035D01*
X0116541Y0019402D01*
X0115440Y0019402D01*
X0115440Y0017200D01*
X0113964Y0018301D02*
X0113230Y0018301D01*
X0113230Y0019402D02*
X0114698Y0019402D01*
X0112488Y0017200D02*
X0111020Y0017200D01*
X0111020Y0019402D01*
X0110748Y0016802D02*
X0110748Y0014600D01*
X0109647Y0014600D01*
X0109280Y0014967D01*
X0109280Y0015701D01*
X0109647Y0016068D01*
X0110748Y0016068D01*
X0108538Y0015701D02*
X0108538Y0015334D01*
X0107070Y0015334D01*
X0107070Y0015701D02*
X0107437Y0016068D01*
X0108171Y0016068D01*
X0108538Y0015701D01*
X0108171Y0014600D02*
X0107437Y0014600D01*
X0107070Y0014967D01*
X0107070Y0015701D01*
X0106328Y0015701D02*
X0106328Y0016435D01*
X0105961Y0016802D01*
X0104860Y0016802D01*
X0104860Y0014600D01*
X0104860Y0015334D02*
X0105961Y0015334D01*
X0106328Y0015701D01*
X0105594Y0015334D02*
X0106328Y0014600D01*
X0106328Y0022600D02*
X0104860Y0022600D01*
X0104860Y0024802D01*
X0107070Y0024802D02*
X0107070Y0022600D01*
X0108538Y0022600D01*
X0107804Y0023701D02*
X0107070Y0023701D01*
X0107070Y0024802D02*
X0108538Y0024802D01*
X0117650Y0019035D02*
X0118017Y0019402D01*
X0118751Y0019402D01*
X0119118Y0019035D01*
X0119118Y0018668D01*
X0117650Y0017200D01*
X0119118Y0017200D01*
X0083360Y0032969D02*
X0081892Y0034437D01*
X0081525Y0034437D01*
X0081158Y0034070D01*
X0081158Y0033336D01*
X0081525Y0032969D01*
X0083360Y0032969D02*
X0083360Y0034437D01*
X0083360Y0035179D02*
X0081158Y0035179D01*
X0081892Y0036280D02*
X0082626Y0035179D01*
X0083360Y0036280D01*
X0083360Y0037021D02*
X0083360Y0037388D01*
X0082626Y0037388D01*
X0082259Y0037021D01*
X0081525Y0037021D01*
X0081158Y0037388D01*
X0081158Y0038122D01*
X0081525Y0038489D01*
X0082259Y0038489D01*
X0082626Y0038122D01*
X0083360Y0038122D01*
X0083360Y0038489D01*
X0077060Y0029411D02*
X0074858Y0029411D01*
X0075959Y0028310D01*
X0075959Y0029778D01*
X0075959Y0028310D01*
X0074858Y0029411D01*
X0077060Y0029411D01*
X0077060Y0027568D02*
X0076326Y0026834D01*
X0077060Y0027568D01*
X0076326Y0027201D02*
X0076326Y0026100D01*
X0076326Y0027201D01*
X0075959Y0027568D01*
X0075225Y0027568D01*
X0074858Y0027201D01*
X0074858Y0026100D01*
X0077060Y0026100D01*
X0074858Y0026100D01*
X0074858Y0027201D01*
X0075225Y0027568D01*
X0075959Y0027568D01*
X0076326Y0027201D01*
X0026538Y0049700D02*
X0025070Y0049700D01*
X0025804Y0049700D02*
X0025804Y0051902D01*
X0025070Y0051168D01*
X0024328Y0051535D02*
X0023961Y0051902D01*
X0023227Y0051902D01*
X0022860Y0051535D01*
X0022860Y0050067D01*
X0023227Y0049700D01*
X0023961Y0049700D01*
X0024328Y0050067D01*
X0014045Y0071866D02*
X0014412Y0072233D01*
X0014412Y0072967D01*
X0014779Y0072600D01*
X0015146Y0072600D01*
X0015513Y0072967D01*
X0015513Y0073701D01*
X0016255Y0073701D02*
X0016989Y0073701D01*
X0016255Y0074802D02*
X0017723Y0074802D01*
X0016255Y0074802D02*
X0016255Y0072600D01*
X0014412Y0072967D02*
X0014412Y0073701D01*
X0013303Y0074435D02*
X0011835Y0072967D01*
X0012202Y0072600D01*
X0012936Y0072600D01*
X0013303Y0072967D01*
X0013303Y0074435D01*
X0012936Y0074802D01*
X0012202Y0074802D01*
X0011835Y0074435D01*
X0011835Y0072967D01*
X0011093Y0072967D02*
X0010726Y0072600D01*
X0009992Y0072600D01*
X0009625Y0072967D01*
X0011093Y0074435D01*
X0011093Y0072967D01*
X0009625Y0072967D02*
X0009625Y0074435D01*
X0009992Y0074802D01*
X0010726Y0074802D01*
X0011093Y0074435D01*
X0008883Y0072600D02*
X0007415Y0072600D01*
X0008149Y0072600D02*
X0008149Y0074802D01*
X0007415Y0074068D01*
X0018465Y0072600D02*
X0019933Y0074802D01*
X0020675Y0074068D02*
X0021409Y0074802D01*
X0021409Y0072600D01*
X0020675Y0072600D02*
X0022143Y0072600D01*
X0022885Y0072967D02*
X0023252Y0072600D01*
X0023986Y0072600D01*
X0024353Y0072967D01*
X0024353Y0073334D01*
X0023986Y0073701D01*
X0022885Y0073701D01*
X0022885Y0072967D01*
X0022885Y0073701D02*
X0023619Y0074435D01*
X0024353Y0074802D01*
X0025095Y0074802D02*
X0025095Y0073334D01*
X0025828Y0072600D01*
X0026562Y0073334D01*
X0026562Y0074802D01*
X0075858Y0098604D02*
X0078060Y0098604D01*
X0078060Y0097870D02*
X0078060Y0099338D01*
X0078060Y0100080D02*
X0075858Y0100080D01*
X0076592Y0100814D01*
X0075858Y0101548D01*
X0078060Y0101548D01*
X0078060Y0102290D02*
X0078060Y0102657D01*
X0077326Y0102657D01*
X0076959Y0102290D01*
X0076225Y0102290D01*
X0075858Y0102657D01*
X0075858Y0103391D01*
X0076225Y0103758D01*
X0076959Y0103758D01*
X0077326Y0103391D01*
X0078060Y0103391D01*
X0078060Y0103758D01*
X0075858Y0098604D02*
X0076592Y0097870D01*
X0086958Y0097870D02*
X0086958Y0098971D01*
X0087325Y0099338D01*
X0088059Y0099338D01*
X0088426Y0098971D01*
X0088426Y0097870D01*
X0088426Y0098971D01*
X0088059Y0099338D01*
X0087325Y0099338D01*
X0086958Y0098971D01*
X0086958Y0097870D01*
X0089160Y0097870D01*
X0086958Y0097870D01*
X0088426Y0098604D02*
X0089160Y0099338D01*
X0088426Y0098604D01*
X0087692Y0100080D02*
X0086958Y0100814D01*
X0089160Y0100814D01*
X0086958Y0100814D01*
X0087692Y0100080D01*
X0089160Y0100080D02*
X0089160Y0101548D01*
X0089160Y0100080D01*
X0088793Y0102290D02*
X0087325Y0102290D01*
X0086958Y0102657D01*
X0086958Y0103391D01*
X0087325Y0103758D01*
X0088793Y0102290D01*
X0089160Y0102657D01*
X0089160Y0103391D01*
X0088793Y0103758D01*
X0087325Y0103758D01*
X0088793Y0102290D01*
X0089160Y0102657D01*
X0089160Y0103391D01*
X0088793Y0103758D01*
X0087325Y0103758D01*
X0086958Y0103391D01*
X0086958Y0102657D01*
X0087325Y0102290D01*
X0088793Y0102290D01*
X0096440Y0103700D02*
X0096440Y0105902D01*
X0097541Y0105902D01*
X0097908Y0105535D01*
X0097908Y0104801D01*
X0097541Y0104434D01*
X0096440Y0104434D01*
X0097174Y0104434D02*
X0097908Y0103700D01*
X0098650Y0103700D02*
X0098650Y0104067D01*
X0100118Y0105535D01*
X0100118Y0105902D01*
X0098650Y0105902D01*
X0096038Y0109900D02*
X0095671Y0109900D01*
X0095671Y0110634D01*
X0096038Y0111001D01*
X0096038Y0111735D01*
X0095671Y0112102D01*
X0094937Y0112102D01*
X0094570Y0111735D01*
X0094570Y0111001D01*
X0094937Y0110634D01*
X0094937Y0109900D01*
X0094570Y0109900D01*
X0093828Y0110267D02*
X0093461Y0109900D01*
X0092727Y0109900D01*
X0092360Y0110267D01*
X0093828Y0111735D01*
X0093828Y0110267D01*
X0093828Y0111735D02*
X0093461Y0112102D01*
X0092727Y0112102D01*
X0092360Y0111735D01*
X0092360Y0110267D01*
X0091618Y0110267D02*
X0091251Y0109900D01*
X0090517Y0109900D01*
X0090150Y0110267D01*
X0090150Y0110634D01*
X0090517Y0111001D01*
X0091251Y0111001D01*
X0091618Y0110634D01*
X0091618Y0110267D01*
X0091251Y0111001D02*
X0091618Y0111368D01*
X0091618Y0111735D01*
X0091251Y0112102D01*
X0090517Y0112102D01*
X0090150Y0111735D01*
X0090150Y0111368D01*
X0090517Y0111001D01*
X0089408Y0110634D02*
X0089041Y0111001D01*
X0087940Y0111001D01*
X0087940Y0110267D01*
X0088307Y0109900D01*
X0089041Y0109900D01*
X0089408Y0110267D01*
X0089408Y0110634D01*
X0088674Y0111735D02*
X0087940Y0111001D01*
X0088674Y0111735D02*
X0089408Y0112102D01*
X0080118Y0114067D02*
X0079751Y0113700D01*
X0079017Y0113700D01*
X0078650Y0114067D01*
X0078650Y0114434D01*
X0079017Y0114801D01*
X0079751Y0114801D01*
X0080118Y0114434D01*
X0080118Y0114067D01*
X0079751Y0114801D02*
X0080118Y0115168D01*
X0080118Y0115535D01*
X0079751Y0115902D01*
X0079017Y0115902D01*
X0078650Y0115535D01*
X0078650Y0115168D01*
X0079017Y0114801D01*
X0077908Y0114801D02*
X0077908Y0115535D01*
X0077541Y0115902D01*
X0076440Y0115902D01*
X0076440Y0113700D01*
X0076440Y0114434D02*
X0077541Y0114434D01*
X0077908Y0114801D01*
X0077174Y0114434D02*
X0077908Y0113700D01*
X0059560Y0115467D02*
X0059560Y0116201D01*
X0059193Y0116568D01*
X0059560Y0117310D02*
X0058092Y0118778D01*
X0057725Y0118778D01*
X0057358Y0118411D01*
X0057358Y0117677D01*
X0057725Y0117310D01*
X0057725Y0116568D02*
X0057358Y0116201D01*
X0057358Y0115467D01*
X0057725Y0115100D01*
X0059193Y0115100D01*
X0059560Y0115467D01*
X0059560Y0117310D02*
X0059560Y0118778D01*
X0109229Y0101368D02*
X0109963Y0102102D01*
X0109963Y0099900D01*
X0109229Y0099900D02*
X0110697Y0099900D01*
X0111439Y0099900D02*
X0111439Y0102102D01*
X0112540Y0101368D02*
X0111439Y0100634D01*
X0112540Y0099900D01*
X0113281Y0099900D02*
X0113648Y0099900D01*
X0113648Y0100634D01*
X0113281Y0101001D01*
X0113281Y0101735D01*
X0113648Y0102102D01*
X0114382Y0102102D01*
X0114749Y0101735D01*
X0114749Y0101001D01*
X0114382Y0100634D01*
X0114382Y0099900D01*
X0114749Y0099900D01*
X0164860Y0024802D02*
X0164860Y0022600D01*
X0166328Y0022600D01*
X0167070Y0022600D02*
X0167070Y0024802D01*
X0168538Y0024802D01*
X0169280Y0024802D02*
X0170381Y0024802D01*
X0170748Y0024435D01*
X0170748Y0022967D01*
X0170381Y0022600D01*
X0169280Y0022600D01*
X0169280Y0024802D01*
X0167804Y0023701D02*
X0167070Y0023701D01*
X0167070Y0022600D02*
X0168538Y0022600D01*
X0171490Y0022967D02*
X0171857Y0022600D01*
X0172591Y0022600D01*
X0172958Y0022967D01*
X0172958Y0023334D01*
X0172591Y0023701D01*
X0172224Y0023701D01*
X0172591Y0023701D02*
X0172958Y0024068D01*
X0172958Y0024435D01*
X0172591Y0024802D01*
X0171857Y0024802D01*
X0171490Y0024435D01*
X0171488Y0016068D02*
X0172222Y0016068D01*
X0172589Y0015701D01*
X0172589Y0015334D01*
X0171121Y0015334D01*
X0171121Y0015701D02*
X0171488Y0016068D01*
X0171121Y0015701D02*
X0171121Y0014967D01*
X0171488Y0014600D01*
X0172222Y0014600D01*
X0173331Y0014600D02*
X0173331Y0016068D01*
X0174432Y0016068D01*
X0174799Y0015701D01*
X0174799Y0014600D01*
X0170379Y0015334D02*
X0168911Y0015334D01*
X0168911Y0015701D02*
X0169278Y0016068D01*
X0170012Y0016068D01*
X0170379Y0015701D01*
X0170379Y0015334D01*
X0170012Y0014600D02*
X0169278Y0014600D01*
X0168911Y0014967D01*
X0168911Y0015701D01*
X0168171Y0016068D02*
X0167804Y0016068D01*
X0167070Y0015334D01*
X0167070Y0014600D02*
X0167070Y0016068D01*
X0166328Y0016435D02*
X0165961Y0016802D01*
X0165227Y0016802D01*
X0164860Y0016435D01*
X0164860Y0014967D01*
X0165227Y0014600D01*
X0165961Y0014600D01*
X0166328Y0014967D01*
X0166328Y0015701D01*
X0165594Y0015701D01*
X0014933Y0004535D02*
X0014933Y0004168D01*
X0014566Y0003801D01*
X0013465Y0003801D01*
X0012723Y0003434D02*
X0012723Y0003067D01*
X0012356Y0002700D01*
X0011622Y0002700D01*
X0011255Y0003067D01*
X0010513Y0003067D02*
X0010513Y0004902D01*
X0011255Y0004535D02*
X0011255Y0004168D01*
X0011622Y0003801D01*
X0012356Y0003801D01*
X0012723Y0003434D01*
X0013465Y0002700D02*
X0014566Y0002700D01*
X0014933Y0003067D01*
X0014933Y0003434D01*
X0014566Y0003801D01*
X0014933Y0004535D02*
X0014566Y0004902D01*
X0013465Y0004902D01*
X0013465Y0002700D01*
X0012723Y0004535D02*
X0012356Y0004902D01*
X0011622Y0004902D01*
X0011255Y0004535D01*
X0010513Y0003067D02*
X0010146Y0002700D01*
X0009412Y0002700D01*
X0009045Y0003067D01*
X0009045Y0004902D01*
D12*
X0045460Y0107700D02*
X0046661Y0107700D01*
X0046060Y0107700D02*
X0046060Y0111303D01*
X0045460Y0111303D02*
X0046661Y0111303D01*
X0047915Y0110703D02*
X0047915Y0108301D01*
X0048516Y0107700D01*
X0049717Y0107700D01*
X0050317Y0108301D01*
X0051599Y0107700D02*
X0054001Y0107700D01*
X0052800Y0107700D02*
X0052800Y0111303D01*
X0051599Y0110102D01*
X0050317Y0110703D02*
X0049717Y0111303D01*
X0048516Y0111303D01*
X0047915Y0110703D01*
X0045260Y0108500D02*
X0045184Y0108502D01*
X0045108Y0108508D01*
X0045033Y0108517D01*
X0044958Y0108531D01*
X0044884Y0108548D01*
X0044811Y0108569D01*
X0044739Y0108593D01*
X0044668Y0108622D01*
X0044599Y0108653D01*
X0044532Y0108688D01*
X0044467Y0108727D01*
X0044403Y0108769D01*
X0044342Y0108814D01*
X0044283Y0108862D01*
X0044227Y0108913D01*
X0044173Y0108967D01*
X0044122Y0109023D01*
X0044074Y0109082D01*
X0044029Y0109143D01*
X0043987Y0109207D01*
X0043948Y0109272D01*
X0043913Y0109339D01*
X0043882Y0109408D01*
X0043853Y0109479D01*
X0043829Y0109551D01*
X0043808Y0109624D01*
X0043791Y0109698D01*
X0043777Y0109773D01*
X0043768Y0109848D01*
X0043762Y0109924D01*
X0043760Y0110000D01*
X0043760Y0112000D01*
X0043762Y0112076D01*
X0043768Y0112152D01*
X0043777Y0112227D01*
X0043791Y0112302D01*
X0043808Y0112376D01*
X0043829Y0112449D01*
X0043853Y0112521D01*
X0043882Y0112592D01*
X0043913Y0112661D01*
X0043948Y0112728D01*
X0043987Y0112793D01*
X0044029Y0112857D01*
X0044074Y0112918D01*
X0044122Y0112977D01*
X0044173Y0113033D01*
X0044227Y0113087D01*
X0044283Y0113138D01*
X0044342Y0113186D01*
X0044403Y0113231D01*
X0044467Y0113273D01*
X0044532Y0113312D01*
X0044599Y0113347D01*
X0044668Y0113378D01*
X0044739Y0113407D01*
X0044811Y0113431D01*
X0044884Y0113452D01*
X0044958Y0113469D01*
X0045033Y0113483D01*
X0045108Y0113492D01*
X0045184Y0113498D01*
X0045260Y0113500D01*
X0059260Y0113500D01*
X0059336Y0113498D01*
X0059412Y0113492D01*
X0059487Y0113483D01*
X0059562Y0113469D01*
X0059636Y0113452D01*
X0059709Y0113431D01*
X0059781Y0113407D01*
X0059852Y0113378D01*
X0059921Y0113347D01*
X0059988Y0113312D01*
X0060053Y0113273D01*
X0060117Y0113231D01*
X0060178Y0113186D01*
X0060237Y0113138D01*
X0060293Y0113087D01*
X0060347Y0113033D01*
X0060398Y0112977D01*
X0060446Y0112918D01*
X0060491Y0112857D01*
X0060533Y0112793D01*
X0060572Y0112728D01*
X0060607Y0112661D01*
X0060638Y0112592D01*
X0060667Y0112521D01*
X0060691Y0112449D01*
X0060712Y0112376D01*
X0060729Y0112302D01*
X0060743Y0112227D01*
X0060752Y0112152D01*
X0060758Y0112076D01*
X0060760Y0112000D01*
X0060760Y0110000D01*
X0060758Y0109924D01*
X0060752Y0109848D01*
X0060743Y0109773D01*
X0060729Y0109698D01*
X0060712Y0109624D01*
X0060691Y0109551D01*
X0060667Y0109479D01*
X0060638Y0109408D01*
X0060607Y0109339D01*
X0060572Y0109272D01*
X0060533Y0109207D01*
X0060491Y0109143D01*
X0060446Y0109082D01*
X0060398Y0109023D01*
X0060347Y0108967D01*
X0060293Y0108913D01*
X0060237Y0108862D01*
X0060178Y0108814D01*
X0060117Y0108769D01*
X0060053Y0108727D01*
X0059988Y0108688D01*
X0059921Y0108653D01*
X0059852Y0108622D01*
X0059781Y0108593D01*
X0059709Y0108569D01*
X0059636Y0108548D01*
X0059562Y0108531D01*
X0059487Y0108517D01*
X0059412Y0108508D01*
X0059336Y0108502D01*
X0059260Y0108500D01*
X0045260Y0108500D01*
D13*
X0051260Y0111000D03*
X0053260Y0111000D03*
D14*
X0052388Y0106852D02*
X0052872Y0106369D01*
X0050937Y0104434D01*
X0051420Y0103950D01*
X0052388Y0103950D01*
X0052872Y0104434D01*
X0052872Y0106369D01*
X0052388Y0106852D02*
X0051420Y0106852D01*
X0050937Y0106369D01*
X0050937Y0104434D01*
X0049925Y0104434D02*
X0049441Y0103950D01*
X0048474Y0103950D01*
X0047990Y0104434D01*
X0049925Y0106369D01*
X0049925Y0104434D01*
X0049925Y0106369D02*
X0049441Y0106852D01*
X0048474Y0106852D01*
X0047990Y0106369D01*
X0047990Y0104434D01*
X0046979Y0103950D02*
X0045044Y0103950D01*
X0046011Y0103950D02*
X0046011Y0106852D01*
X0045044Y0105885D01*
X0053883Y0105885D02*
X0053883Y0103950D01*
X0055818Y0103950D02*
X0055818Y0105401D01*
X0055334Y0105885D01*
X0053883Y0105885D01*
X0056830Y0105401D02*
X0057797Y0105401D01*
X0056830Y0103950D02*
X0056830Y0106852D01*
X0058765Y0106852D01*
X0058861Y0072452D02*
X0057894Y0072452D01*
X0057410Y0071969D01*
X0056398Y0071969D02*
X0056398Y0071485D01*
X0055915Y0071001D01*
X0056398Y0070517D01*
X0056398Y0070034D01*
X0055915Y0069550D01*
X0054947Y0069550D01*
X0054463Y0070034D01*
X0053452Y0069550D02*
X0053452Y0072452D01*
X0052484Y0071485D01*
X0051517Y0072452D01*
X0051517Y0069550D01*
X0050505Y0069550D02*
X0048570Y0069550D01*
X0048570Y0072452D01*
X0054463Y0071969D02*
X0054947Y0072452D01*
X0055915Y0072452D01*
X0056398Y0071969D01*
X0055915Y0071001D02*
X0055431Y0071001D01*
X0057410Y0069550D02*
X0059345Y0071485D01*
X0059345Y0071969D01*
X0058861Y0072452D01*
X0060357Y0071001D02*
X0062291Y0071001D01*
X0061808Y0069550D02*
X0061808Y0072452D01*
X0060357Y0071001D01*
X0059345Y0069550D02*
X0057410Y0069550D01*
X0063303Y0069550D02*
X0063303Y0072452D01*
X0065238Y0069550D01*
X0065238Y0072452D01*
X0004758Y0021777D02*
X0004758Y0019308D01*
X0003524Y0020543D02*
X0005993Y0020543D01*
X0005537Y0011002D02*
X0003068Y0011002D01*
X0150808Y0085741D02*
X0151291Y0085257D01*
X0150808Y0085741D02*
X0150808Y0086708D01*
X0151291Y0087192D01*
X0151775Y0087192D01*
X0153710Y0085257D01*
X0153710Y0087192D01*
X0153710Y0088203D02*
X0151775Y0090138D01*
X0151291Y0090138D01*
X0150808Y0089655D01*
X0150808Y0088687D01*
X0151291Y0088203D01*
X0153710Y0088203D02*
X0153710Y0090138D01*
X0153226Y0091150D02*
X0151291Y0091150D01*
X0150808Y0091634D01*
X0150808Y0092601D01*
X0151291Y0093085D01*
X0153226Y0091150D01*
X0153710Y0091634D01*
X0153710Y0092601D01*
X0153226Y0093085D01*
X0151291Y0093085D01*
X0151291Y0094097D02*
X0150808Y0094580D01*
X0150808Y0095548D01*
X0151291Y0096031D01*
X0152259Y0096031D01*
X0152743Y0095548D01*
X0153710Y0095548D01*
X0153710Y0096031D01*
X0153710Y0094580D02*
X0152743Y0094580D01*
X0152259Y0094097D01*
X0151291Y0094097D01*
X0153710Y0094097D02*
X0153710Y0094580D01*
X0155808Y0077505D02*
X0156291Y0077505D01*
X0158226Y0075570D01*
X0158710Y0075570D01*
X0158710Y0074558D02*
X0158710Y0072623D01*
X0156775Y0074558D01*
X0156291Y0074558D01*
X0155808Y0074074D01*
X0155808Y0073107D01*
X0156291Y0072623D01*
X0156291Y0071612D02*
X0156775Y0071612D01*
X0157259Y0071128D01*
X0157743Y0071612D01*
X0158226Y0071612D01*
X0158710Y0071128D01*
X0158710Y0070160D01*
X0158226Y0069677D01*
X0158226Y0068665D02*
X0158710Y0068181D01*
X0158710Y0067214D01*
X0158226Y0066730D01*
X0156291Y0066730D01*
X0155808Y0067214D01*
X0155808Y0068181D01*
X0156291Y0068665D01*
X0156291Y0069677D02*
X0155808Y0070160D01*
X0155808Y0071128D01*
X0156291Y0071612D01*
X0157259Y0071128D02*
X0157259Y0070644D01*
X0157743Y0065719D02*
X0158226Y0065719D01*
X0158710Y0065235D01*
X0158710Y0063784D01*
X0155808Y0063784D01*
X0155808Y0065235D01*
X0156291Y0065719D01*
X0156775Y0065719D01*
X0157259Y0065235D01*
X0157259Y0063784D01*
X0157259Y0065235D02*
X0157743Y0065719D01*
X0167410Y0060852D02*
X0169345Y0060852D01*
X0168377Y0060852D02*
X0168377Y0057950D01*
X0170357Y0057950D02*
X0172291Y0057950D01*
X0171324Y0057950D02*
X0171324Y0060852D01*
X0170357Y0059885D01*
X0169758Y0051777D02*
X0169758Y0049308D01*
X0168524Y0050543D02*
X0170993Y0050543D01*
X0170537Y0041002D02*
X0168068Y0041002D01*
X0155808Y0075570D02*
X0155808Y0077505D01*
D15*
X0017260Y0006000D02*
X0007260Y0006000D01*
X0007260Y0026000D01*
X0017260Y0026000D01*
X0017260Y0006000D01*
X0157260Y0036000D02*
X0157260Y0056000D01*
X0167260Y0056000D01*
X0167260Y0036000D01*
X0157260Y0036000D01*
X0162760Y0060512D02*
X0162760Y0081488D01*
X0168760Y0079248D02*
X0168760Y0062752D01*
X0168571Y0062606D01*
X0168378Y0062465D01*
X0168183Y0062328D01*
X0167984Y0062195D01*
X0167782Y0062067D01*
X0167577Y0061944D01*
X0167370Y0061825D01*
X0167160Y0061711D01*
X0166947Y0061602D01*
X0166732Y0061498D01*
X0162760Y0060512D02*
X0162504Y0060503D01*
X0162248Y0060500D01*
X0161992Y0060503D01*
X0161736Y0060513D01*
X0161481Y0060529D01*
X0161226Y0060551D01*
X0160971Y0060579D01*
X0160718Y0060614D01*
X0160465Y0060655D01*
X0160213Y0060701D01*
X0159963Y0060754D01*
X0159714Y0060813D01*
X0159466Y0060879D01*
X0159220Y0060950D01*
X0158976Y0061027D01*
X0158734Y0061110D01*
X0158494Y0061199D01*
X0158256Y0061293D01*
X0158021Y0061394D01*
X0157788Y0061500D01*
X0162760Y0060512D02*
X0163017Y0060527D01*
X0163274Y0060549D01*
X0163530Y0060577D01*
X0163785Y0060611D01*
X0164039Y0060652D01*
X0164292Y0060699D01*
X0164544Y0060752D01*
X0164795Y0060811D01*
X0165044Y0060876D01*
X0165291Y0060947D01*
X0165537Y0061024D01*
X0165781Y0061108D01*
X0166022Y0061197D01*
X0166261Y0061292D01*
X0166498Y0061393D01*
X0166732Y0061500D01*
X0162760Y0081488D02*
X0162504Y0081497D01*
X0162248Y0081500D01*
X0161992Y0081497D01*
X0161736Y0081487D01*
X0161481Y0081471D01*
X0161226Y0081449D01*
X0160971Y0081421D01*
X0160718Y0081386D01*
X0160465Y0081345D01*
X0160213Y0081299D01*
X0159963Y0081246D01*
X0159714Y0081187D01*
X0159466Y0081121D01*
X0159220Y0081050D01*
X0158976Y0080973D01*
X0158734Y0080890D01*
X0158494Y0080801D01*
X0158256Y0080707D01*
X0158021Y0080606D01*
X0157788Y0080500D01*
X0166638Y0080546D02*
X0166863Y0080439D01*
X0167086Y0080327D01*
X0167306Y0080210D01*
X0167523Y0080088D01*
X0167738Y0079960D01*
X0167949Y0079827D01*
X0168157Y0079690D01*
X0168361Y0079547D01*
X0168563Y0079400D01*
X0168760Y0079248D01*
X0157788Y0080500D02*
X0157558Y0080388D01*
X0157331Y0080271D01*
X0157107Y0080149D01*
X0156886Y0080021D01*
X0156669Y0079887D01*
X0156454Y0079749D01*
X0156243Y0079605D01*
X0156036Y0079456D01*
X0155832Y0079302D01*
X0155632Y0079144D01*
X0155436Y0078980D01*
X0155244Y0078812D01*
X0155056Y0078639D01*
X0154872Y0078461D01*
X0154693Y0078280D01*
X0154518Y0078093D01*
X0154348Y0077903D01*
X0154183Y0077709D01*
X0154022Y0077510D01*
X0153866Y0077308D01*
X0153715Y0077102D01*
X0153569Y0076892D01*
X0153429Y0076679D01*
X0153293Y0076463D01*
X0153163Y0076243D01*
X0153038Y0076020D01*
X0152919Y0075795D01*
X0152805Y0075566D01*
X0152697Y0075335D01*
X0152594Y0075101D01*
X0152497Y0074865D01*
X0152406Y0074626D01*
X0152321Y0074386D01*
X0152241Y0074143D01*
X0152168Y0073898D01*
X0152100Y0073652D01*
X0152039Y0073404D01*
X0151984Y0073155D01*
X0151934Y0072905D01*
X0151891Y0072653D01*
X0151854Y0072400D01*
X0151823Y0072147D01*
X0151798Y0071893D01*
X0151779Y0071638D01*
X0151767Y0071383D01*
X0151761Y0071128D01*
X0151761Y0070872D01*
X0151767Y0070617D01*
X0151779Y0070362D01*
X0151798Y0070107D01*
X0151823Y0069853D01*
X0151854Y0069600D01*
X0151891Y0069347D01*
X0151934Y0069095D01*
X0151984Y0068845D01*
X0152039Y0068596D01*
X0152100Y0068348D01*
X0152168Y0068102D01*
X0152241Y0067857D01*
X0152321Y0067614D01*
X0152406Y0067374D01*
X0152497Y0067135D01*
X0152594Y0066899D01*
X0152697Y0066665D01*
X0152805Y0066434D01*
X0152919Y0066205D01*
X0153038Y0065980D01*
X0153163Y0065757D01*
X0153293Y0065537D01*
X0153429Y0065321D01*
X0153569Y0065108D01*
X0153715Y0064898D01*
X0153866Y0064692D01*
X0154022Y0064490D01*
X0154183Y0064291D01*
X0154348Y0064097D01*
X0154518Y0063907D01*
X0154693Y0063720D01*
X0154872Y0063539D01*
X0155056Y0063361D01*
X0155244Y0063188D01*
X0155436Y0063020D01*
X0155632Y0062856D01*
X0155832Y0062698D01*
X0156036Y0062544D01*
X0156243Y0062395D01*
X0156454Y0062251D01*
X0156669Y0062113D01*
X0156886Y0061979D01*
X0157107Y0061851D01*
X0157331Y0061729D01*
X0157558Y0061612D01*
X0157788Y0061500D01*
X0162760Y0081488D02*
X0163017Y0081473D01*
X0163274Y0081451D01*
X0163530Y0081423D01*
X0163785Y0081389D01*
X0164039Y0081348D01*
X0164292Y0081301D01*
X0164544Y0081248D01*
X0164795Y0081189D01*
X0165044Y0081124D01*
X0165291Y0081053D01*
X0165537Y0080976D01*
X0165781Y0080892D01*
X0166022Y0080803D01*
X0166261Y0080708D01*
X0166498Y0080607D01*
X0166732Y0080500D01*
D16*
X0152260Y0080250D03*
X0152260Y0080250D03*
X0152260Y0101750D03*
X0152260Y0101750D03*
X0082260Y0046750D03*
X0082260Y0046750D03*
X0082260Y0025250D03*
X0082260Y0025250D03*
D17*
X0111510Y0041000D03*
X0111510Y0041000D03*
X0111510Y0051000D03*
X0111510Y0051000D03*
X0111510Y0061000D03*
X0111510Y0061000D03*
X0111510Y0071000D03*
X0111510Y0071000D03*
X0111510Y0081000D03*
X0111510Y0081000D03*
X0133010Y0081000D03*
X0133010Y0081000D03*
X0133010Y0071000D03*
X0133010Y0071000D03*
X0133010Y0061000D03*
X0133010Y0061000D03*
X0133010Y0051000D03*
X0133010Y0051000D03*
X0133010Y0041000D03*
X0133010Y0041000D03*
X0123010Y0101000D03*
X0123010Y0101000D03*
X0103010Y0111000D03*
X0103010Y0111000D03*
X0101510Y0101000D03*
X0101510Y0101000D03*
X0081510Y0111000D03*
X0081510Y0111000D03*
D18*
X0164810Y0064284D02*
X0165177Y0064651D01*
X0165177Y0063550D01*
X0164810Y0063550D02*
X0165544Y0063550D01*
D19*
X0163367Y0015832D02*
X0163240Y0015686D01*
X0163111Y0015544D01*
X0162977Y0015404D01*
X0162841Y0015268D01*
X0162701Y0015135D01*
X0162558Y0015005D01*
X0162411Y0014879D01*
X0162262Y0014757D01*
X0162110Y0014638D01*
X0161955Y0014523D01*
X0161798Y0014411D01*
X0161638Y0014304D01*
X0161475Y0014200D01*
X0161309Y0014101D01*
X0161142Y0014005D01*
X0160972Y0013913D01*
X0160800Y0013826D01*
X0160626Y0013742D01*
X0160450Y0013663D01*
X0160272Y0013589D01*
X0160092Y0013518D01*
X0159911Y0013452D01*
X0159728Y0013390D01*
X0159544Y0013333D01*
X0159358Y0013280D01*
X0159171Y0013232D01*
X0158983Y0013188D01*
X0158794Y0013149D01*
X0158604Y0013114D01*
X0158414Y0013084D01*
X0158223Y0013058D01*
X0158031Y0013037D01*
X0157838Y0013021D01*
X0157646Y0013009D01*
X0157453Y0013002D01*
X0157260Y0013000D01*
X0150201Y0024765D02*
X0150294Y0024933D01*
X0150390Y0025099D01*
X0150490Y0025263D01*
X0150595Y0025424D01*
X0150703Y0025583D01*
X0150815Y0025739D01*
X0150931Y0025893D01*
X0151050Y0026043D01*
X0151173Y0026191D01*
X0151299Y0026336D01*
X0151429Y0026477D01*
X0151562Y0026616D01*
X0151699Y0026751D01*
X0151839Y0026883D01*
X0151981Y0027011D01*
X0152127Y0027136D01*
X0152276Y0027258D01*
X0152428Y0027376D01*
X0152582Y0027490D01*
X0152740Y0027600D01*
X0152899Y0027707D01*
X0153062Y0027810D01*
X0153227Y0027909D01*
X0153394Y0028004D01*
X0153563Y0028094D01*
X0153734Y0028181D01*
X0153908Y0028264D01*
X0154083Y0028342D01*
X0154261Y0028416D01*
X0154440Y0028486D01*
X0154620Y0028552D01*
X0154802Y0028613D01*
X0154986Y0028670D01*
X0155171Y0028722D01*
X0155357Y0028770D01*
X0155544Y0028814D01*
X0155732Y0028853D01*
X0155921Y0028887D01*
X0156111Y0028917D01*
X0156301Y0028942D01*
X0156492Y0028963D01*
X0156684Y0028979D01*
X0156876Y0028991D01*
X0157068Y0028998D01*
X0157260Y0029000D01*
X0150314Y0017031D02*
X0150413Y0016862D01*
X0150517Y0016696D01*
X0150624Y0016532D01*
X0150735Y0016371D01*
X0150850Y0016213D01*
X0150969Y0016058D01*
X0151092Y0015905D01*
X0151218Y0015756D01*
X0151348Y0015610D01*
X0151482Y0015467D01*
X0151619Y0015327D01*
X0151759Y0015191D01*
X0151903Y0015058D01*
X0152050Y0014929D01*
X0152200Y0014803D01*
X0152353Y0014682D01*
X0152509Y0014563D01*
X0152668Y0014449D01*
X0152829Y0014339D01*
X0152994Y0014233D01*
X0153160Y0014130D01*
X0153330Y0014032D01*
X0153501Y0013938D01*
X0153675Y0013848D01*
X0153851Y0013763D01*
X0154029Y0013681D01*
X0154209Y0013605D01*
X0154391Y0013532D01*
X0154574Y0013464D01*
X0154759Y0013401D01*
X0154946Y0013342D01*
X0155134Y0013288D01*
X0155323Y0013238D01*
X0155513Y0013193D01*
X0155705Y0013153D01*
X0155897Y0013117D01*
X0156090Y0013086D01*
X0156284Y0013060D01*
X0156479Y0013038D01*
X0156674Y0013022D01*
X0156869Y0013010D01*
X0157065Y0013002D01*
X0157260Y0013000D01*
X0163406Y0026122D02*
X0163279Y0026270D01*
X0163149Y0026415D01*
X0163016Y0026556D01*
X0162879Y0026695D01*
X0162739Y0026830D01*
X0162595Y0026961D01*
X0162448Y0027089D01*
X0162299Y0027214D01*
X0162146Y0027335D01*
X0161991Y0027452D01*
X0161832Y0027565D01*
X0161671Y0027674D01*
X0161507Y0027779D01*
X0161341Y0027881D01*
X0161172Y0027978D01*
X0161002Y0028071D01*
X0160828Y0028160D01*
X0160653Y0028245D01*
X0160476Y0028325D01*
X0160297Y0028401D01*
X0160116Y0028473D01*
X0159933Y0028540D01*
X0159749Y0028603D01*
X0159563Y0028661D01*
X0159376Y0028715D01*
X0159188Y0028764D01*
X0158998Y0028809D01*
X0158808Y0028849D01*
X0158616Y0028884D01*
X0158424Y0028915D01*
X0158231Y0028941D01*
X0158037Y0028962D01*
X0157843Y0028979D01*
X0157649Y0028991D01*
X0157455Y0028998D01*
X0157260Y0029000D01*
X0134206Y0024969D02*
X0134107Y0025138D01*
X0134003Y0025304D01*
X0133896Y0025468D01*
X0133785Y0025629D01*
X0133670Y0025787D01*
X0133551Y0025942D01*
X0133428Y0026095D01*
X0133302Y0026244D01*
X0133172Y0026390D01*
X0133038Y0026533D01*
X0132901Y0026673D01*
X0132761Y0026809D01*
X0132617Y0026942D01*
X0132470Y0027071D01*
X0132320Y0027197D01*
X0132167Y0027318D01*
X0132011Y0027437D01*
X0131852Y0027551D01*
X0131691Y0027661D01*
X0131526Y0027767D01*
X0131360Y0027870D01*
X0131190Y0027968D01*
X0131019Y0028062D01*
X0130845Y0028152D01*
X0130669Y0028237D01*
X0130491Y0028319D01*
X0130311Y0028395D01*
X0130129Y0028468D01*
X0129946Y0028536D01*
X0129761Y0028599D01*
X0129574Y0028658D01*
X0129386Y0028712D01*
X0129197Y0028762D01*
X0129007Y0028807D01*
X0128815Y0028847D01*
X0128623Y0028883D01*
X0128430Y0028914D01*
X0128236Y0028940D01*
X0128041Y0028962D01*
X0127846Y0028978D01*
X0127651Y0028990D01*
X0127455Y0028998D01*
X0127260Y0029000D01*
X0134319Y0017235D02*
X0134226Y0017067D01*
X0134130Y0016901D01*
X0134030Y0016737D01*
X0133925Y0016576D01*
X0133817Y0016417D01*
X0133705Y0016261D01*
X0133589Y0016107D01*
X0133470Y0015957D01*
X0133347Y0015809D01*
X0133221Y0015664D01*
X0133091Y0015523D01*
X0132958Y0015384D01*
X0132821Y0015249D01*
X0132681Y0015117D01*
X0132539Y0014989D01*
X0132393Y0014864D01*
X0132244Y0014742D01*
X0132092Y0014624D01*
X0131938Y0014510D01*
X0131780Y0014400D01*
X0131621Y0014293D01*
X0131458Y0014190D01*
X0131293Y0014091D01*
X0131126Y0013996D01*
X0130957Y0013906D01*
X0130786Y0013819D01*
X0130612Y0013736D01*
X0130437Y0013658D01*
X0130259Y0013584D01*
X0130080Y0013514D01*
X0129900Y0013448D01*
X0129718Y0013387D01*
X0129534Y0013330D01*
X0129349Y0013278D01*
X0129163Y0013230D01*
X0128976Y0013186D01*
X0128788Y0013147D01*
X0128599Y0013113D01*
X0128409Y0013083D01*
X0128219Y0013058D01*
X0128028Y0013037D01*
X0127836Y0013021D01*
X0127644Y0013009D01*
X0127452Y0013002D01*
X0127260Y0013000D01*
X0121153Y0026168D02*
X0121280Y0026314D01*
X0121409Y0026456D01*
X0121543Y0026596D01*
X0121679Y0026732D01*
X0121819Y0026865D01*
X0121962Y0026995D01*
X0122109Y0027121D01*
X0122258Y0027243D01*
X0122410Y0027362D01*
X0122565Y0027477D01*
X0122722Y0027589D01*
X0122882Y0027696D01*
X0123045Y0027800D01*
X0123211Y0027899D01*
X0123378Y0027995D01*
X0123548Y0028087D01*
X0123720Y0028174D01*
X0123894Y0028258D01*
X0124070Y0028337D01*
X0124248Y0028411D01*
X0124428Y0028482D01*
X0124609Y0028548D01*
X0124792Y0028610D01*
X0124976Y0028667D01*
X0125162Y0028720D01*
X0125349Y0028768D01*
X0125537Y0028812D01*
X0125726Y0028851D01*
X0125916Y0028886D01*
X0126106Y0028916D01*
X0126297Y0028942D01*
X0126489Y0028963D01*
X0126682Y0028979D01*
X0126874Y0028991D01*
X0127067Y0028998D01*
X0127260Y0029000D01*
X0121114Y0015878D02*
X0121241Y0015730D01*
X0121371Y0015585D01*
X0121504Y0015444D01*
X0121641Y0015305D01*
X0121781Y0015170D01*
X0121925Y0015039D01*
X0122072Y0014911D01*
X0122221Y0014786D01*
X0122374Y0014665D01*
X0122529Y0014548D01*
X0122688Y0014435D01*
X0122849Y0014326D01*
X0123013Y0014221D01*
X0123179Y0014119D01*
X0123348Y0014022D01*
X0123518Y0013929D01*
X0123692Y0013840D01*
X0123867Y0013755D01*
X0124044Y0013675D01*
X0124223Y0013599D01*
X0124404Y0013527D01*
X0124587Y0013460D01*
X0124771Y0013397D01*
X0124957Y0013339D01*
X0125144Y0013285D01*
X0125332Y0013236D01*
X0125522Y0013191D01*
X0125712Y0013151D01*
X0125904Y0013116D01*
X0126096Y0013085D01*
X0126289Y0013059D01*
X0126483Y0013038D01*
X0126677Y0013021D01*
X0126871Y0013009D01*
X0127065Y0013002D01*
X0127260Y0013000D01*
X0097260Y0029000D02*
X0097068Y0028998D01*
X0096876Y0028991D01*
X0096684Y0028979D01*
X0096492Y0028963D01*
X0096301Y0028942D01*
X0096111Y0028917D01*
X0095921Y0028887D01*
X0095732Y0028853D01*
X0095544Y0028814D01*
X0095357Y0028770D01*
X0095171Y0028722D01*
X0094986Y0028670D01*
X0094802Y0028613D01*
X0094620Y0028552D01*
X0094440Y0028486D01*
X0094261Y0028416D01*
X0094083Y0028342D01*
X0093908Y0028264D01*
X0093734Y0028181D01*
X0093563Y0028094D01*
X0093394Y0028004D01*
X0093227Y0027909D01*
X0093062Y0027810D01*
X0092899Y0027707D01*
X0092740Y0027600D01*
X0092582Y0027490D01*
X0092428Y0027376D01*
X0092276Y0027258D01*
X0092127Y0027136D01*
X0091981Y0027011D01*
X0091839Y0026883D01*
X0091699Y0026751D01*
X0091562Y0026616D01*
X0091429Y0026477D01*
X0091299Y0026336D01*
X0091173Y0026191D01*
X0091050Y0026043D01*
X0090931Y0025893D01*
X0090815Y0025739D01*
X0090703Y0025583D01*
X0090595Y0025424D01*
X0090490Y0025263D01*
X0090390Y0025099D01*
X0090294Y0024933D01*
X0090201Y0024765D01*
X0090314Y0017031D02*
X0090413Y0016862D01*
X0090517Y0016696D01*
X0090624Y0016532D01*
X0090735Y0016371D01*
X0090850Y0016213D01*
X0090969Y0016058D01*
X0091092Y0015905D01*
X0091218Y0015756D01*
X0091348Y0015610D01*
X0091482Y0015467D01*
X0091619Y0015327D01*
X0091759Y0015191D01*
X0091903Y0015058D01*
X0092050Y0014929D01*
X0092200Y0014803D01*
X0092353Y0014682D01*
X0092509Y0014563D01*
X0092668Y0014449D01*
X0092829Y0014339D01*
X0092994Y0014233D01*
X0093160Y0014130D01*
X0093330Y0014032D01*
X0093501Y0013938D01*
X0093675Y0013848D01*
X0093851Y0013763D01*
X0094029Y0013681D01*
X0094209Y0013605D01*
X0094391Y0013532D01*
X0094574Y0013464D01*
X0094759Y0013401D01*
X0094946Y0013342D01*
X0095134Y0013288D01*
X0095323Y0013238D01*
X0095513Y0013193D01*
X0095705Y0013153D01*
X0095897Y0013117D01*
X0096090Y0013086D01*
X0096284Y0013060D01*
X0096479Y0013038D01*
X0096674Y0013022D01*
X0096869Y0013010D01*
X0097065Y0013002D01*
X0097260Y0013000D01*
X0097453Y0013002D01*
X0097646Y0013009D01*
X0097838Y0013021D01*
X0098031Y0013037D01*
X0098223Y0013058D01*
X0098414Y0013084D01*
X0098604Y0013114D01*
X0098794Y0013149D01*
X0098983Y0013188D01*
X0099171Y0013232D01*
X0099358Y0013280D01*
X0099544Y0013333D01*
X0099728Y0013390D01*
X0099911Y0013452D01*
X0100092Y0013518D01*
X0100272Y0013589D01*
X0100450Y0013663D01*
X0100626Y0013742D01*
X0100800Y0013826D01*
X0100972Y0013913D01*
X0101142Y0014005D01*
X0101309Y0014101D01*
X0101475Y0014200D01*
X0101638Y0014304D01*
X0101798Y0014411D01*
X0101955Y0014523D01*
X0102110Y0014638D01*
X0102262Y0014757D01*
X0102411Y0014879D01*
X0102558Y0015005D01*
X0102701Y0015135D01*
X0102841Y0015268D01*
X0102977Y0015404D01*
X0103111Y0015544D01*
X0103240Y0015686D01*
X0103367Y0015832D01*
X0103406Y0026122D02*
X0103279Y0026270D01*
X0103149Y0026415D01*
X0103016Y0026556D01*
X0102879Y0026695D01*
X0102739Y0026830D01*
X0102595Y0026961D01*
X0102448Y0027089D01*
X0102299Y0027214D01*
X0102146Y0027335D01*
X0101991Y0027452D01*
X0101832Y0027565D01*
X0101671Y0027674D01*
X0101507Y0027779D01*
X0101341Y0027881D01*
X0101172Y0027978D01*
X0101002Y0028071D01*
X0100828Y0028160D01*
X0100653Y0028245D01*
X0100476Y0028325D01*
X0100297Y0028401D01*
X0100116Y0028473D01*
X0099933Y0028540D01*
X0099749Y0028603D01*
X0099563Y0028661D01*
X0099376Y0028715D01*
X0099188Y0028764D01*
X0098998Y0028809D01*
X0098808Y0028849D01*
X0098616Y0028884D01*
X0098424Y0028915D01*
X0098231Y0028941D01*
X0098037Y0028962D01*
X0097843Y0028979D01*
X0097649Y0028991D01*
X0097455Y0028998D01*
X0097260Y0029000D01*
M02*
