G75*
%MOIN*%
%OFA0B0*%
%FSLAX25Y25*%
%IPPOS*%
%LPD*%
%AMOC8*
5,1,8,0,0,1.08239X$1,22.5*
%
%ADD10C,0.06343*%
%ADD11R,0.05556X0.05556*%
%ADD12OC8,0.06000*%
%ADD13C,0.05950*%
%ADD14OC8,0.05950*%
%ADD15R,0.04762X0.04762*%
D10*
X0070837Y0095661D03*
X0070837Y0115661D03*
X0070837Y0155661D03*
X0070837Y0165661D03*
X0110837Y0165661D03*
X0120837Y0165661D03*
X0110837Y0155661D03*
X0140837Y0135661D03*
X0150837Y0135661D03*
X0150837Y0145661D03*
X0150837Y0155661D03*
X0160837Y0165661D03*
X0190837Y0165661D03*
X0200837Y0175661D03*
X0220837Y0145661D03*
X0210837Y0135661D03*
X0200837Y0135661D03*
X0200837Y0125661D03*
X0190837Y0125661D03*
X0190837Y0115661D03*
X0210837Y0095661D03*
X0200837Y0085661D03*
X0190837Y0075661D03*
X0150837Y0085661D03*
X0140837Y0115661D03*
X0150837Y0125661D03*
X0220837Y0105661D03*
D11*
X0070837Y0105661D03*
D12*
X0170837Y0095661D03*
X0170837Y0085661D03*
X0170837Y0115661D03*
X0170837Y0125661D03*
X0170837Y0145661D03*
X0170837Y0155661D03*
D13*
X0093412Y0085661D02*
X0088263Y0085661D01*
X0088263Y0095661D02*
X0093412Y0095661D01*
X0093412Y0105661D02*
X0088263Y0105661D01*
X0088263Y0115661D02*
X0093412Y0115661D01*
X0093412Y0125661D02*
X0088263Y0125661D01*
X0088263Y0135661D02*
X0093412Y0135661D01*
X0093412Y0145661D02*
X0088263Y0145661D01*
X0118263Y0145661D02*
X0123412Y0145661D01*
X0123412Y0135661D02*
X0118263Y0135661D01*
X0118263Y0125661D02*
X0123412Y0125661D01*
X0123412Y0115661D02*
X0118263Y0115661D01*
X0118263Y0105661D02*
X0123412Y0105661D01*
X0123412Y0095661D02*
X0118263Y0095661D01*
X0118263Y0085661D02*
X0123412Y0085661D01*
D14*
X0220837Y0155661D03*
X0220837Y0165661D03*
X0220837Y0175661D03*
D15*
X0160837Y0135661D03*
X0160837Y0085661D03*
M02*
