G75*
%MOIN*%
%OFA0B0*%
%FSLAX25Y25*%
%IPPOS*%
%LPD*%
%AMOC8*
5,1,8,0,0,1.08239X$1,22.5*
%
%ADD10OC8,0.06496*%
%ADD11C,0.07000*%
%ADD12R,0.07000X0.07000*%
%ADD13C,0.03200*%
%ADD14C,0.01000*%
D10*
X0081000Y0011000D03*
X0081000Y0031000D03*
X0101000Y0031000D03*
D11*
X0121000Y0041000D03*
X0111000Y0051000D03*
X0111000Y0061000D03*
X0121000Y0061000D03*
X0131000Y0051000D03*
X0141000Y0061000D03*
X0151000Y0061000D03*
X0131000Y0081000D03*
X0121000Y0081000D03*
X0111000Y0081000D03*
X0091000Y0061000D03*
X0051000Y0081000D03*
X0011000Y0061000D03*
X0051000Y0031000D03*
X0051000Y0021000D03*
X0051000Y0011000D03*
X0111000Y0011000D03*
X0131000Y0031000D03*
X0141000Y0021000D03*
X0151000Y0021000D03*
D12*
X0151000Y0011000D03*
D13*
X0011000Y0021000D02*
X0011000Y0061000D01*
X0051000Y0081000D02*
X0101000Y0081000D01*
X0101800Y0081100D02*
X0110800Y0081100D01*
X0111000Y0081000D02*
X0121000Y0081000D01*
X0121000Y0061000D01*
X0121000Y0041000D01*
X0111000Y0051000D02*
X0111000Y0061000D01*
X0131000Y0061000D02*
X0131000Y0051000D01*
X0131000Y0061000D02*
X0141000Y0061000D01*
X0151000Y0061000D01*
X0131000Y0061000D02*
X0131000Y0081000D01*
X0091000Y0061000D02*
X0091000Y0031000D01*
X0081000Y0031000D01*
X0051000Y0031000D01*
X0051000Y0021000D02*
X0011000Y0021000D01*
X0051400Y0010900D02*
X0080200Y0010900D01*
X0081100Y0010900D02*
X0110800Y0010900D01*
X0111000Y0011000D02*
X0131000Y0011000D01*
X0131000Y0031000D01*
X0141000Y0021000D02*
X0151000Y0021000D01*
X0151000Y0011000D02*
X0131000Y0011000D01*
D14*
X0111700Y0011800D02*
X0111000Y0011000D01*
X0110800Y0010900D01*
X0081100Y0010900D02*
X0081000Y0011000D01*
X0080200Y0010900D01*
X0051400Y0010900D02*
X0051000Y0011000D01*
X0051000Y0031000D02*
X0051400Y0031600D01*
X0101000Y0081000D02*
X0111000Y0081000D01*
X0101800Y0081100D01*
M02*
