%
M48
M72
T01C0.02362
T02C0.02756
T03C0.03150
T04C0.03200
T05C0.03543
%
T01
X6100Y2226
X6100Y5226
X13100Y3226
X13100Y8226
T02
X11100Y6226
T03
X5100Y6226
X5100Y7226
X5100Y8226
X5100Y9226
X2100Y9226
X2100Y8226
X2100Y7226
X2100Y6226
X2100Y5226
X2100Y4226
X2100Y3226
X5100Y3226
X5100Y4226
X5100Y5226
X20100Y9226
X20100Y10226
X20100Y11226
T04
X12100Y9226
X12100Y8226
X15100Y6226
X15100Y5226
X9100Y5226
X9100Y4226
T05
X2100Y1226
X3100Y1226
X4100Y1226
X7100Y2226
X8100Y1226
X14100Y3226
X11100Y5226
X14100Y6226
X11100Y7226
X10100Y9226
X8100Y10226
X7100Y10226
X6100Y9226
X6100Y8226
X7100Y7226
X7100Y6226
X6100Y6226
X13100Y9226
X12100Y10226
X17100Y9226
X18100Y7226
X19100Y7226
X20100Y6226
X21100Y6226
X21100Y7226
X21100Y5226
X20100Y2226
X19100Y11226
X18100Y11226
X21100Y11226
X3100Y10226
M30
