G75*
%MOIN*%
%OFA0B0*%
%FSLAX25Y25*%
%IPPOS*%
%LPD*%
%AMOC8*
5,1,8,0,0,1.08239X$1,22.5*
%
%ADD10C,0.00200*%
%ADD11C,0.05543*%
%ADD12R,0.04756X0.04756*%
%ADD13OC8,0.05200*%
%ADD14C,0.07000*%
%ADD15C,0.05150*%
%ADD16OC8,0.05150*%
%ADD17R,0.03962X0.03962*%
%ADD18C,0.05000*%
D10*
X0030628Y0033527D02*
X0032096Y0033527D01*
X0031362Y0033527D02*
X0031362Y0035729D01*
X0030628Y0034995D01*
X0030628Y0043527D02*
X0032096Y0044995D01*
X0032096Y0045362D01*
X0031729Y0045729D01*
X0030995Y0045729D01*
X0030628Y0045362D01*
X0030628Y0043527D02*
X0032096Y0043527D01*
X0031729Y0053527D02*
X0030995Y0053527D01*
X0030628Y0053894D01*
X0031362Y0054628D02*
X0031729Y0054628D01*
X0032096Y0054261D01*
X0032096Y0053894D01*
X0031729Y0053527D01*
X0031729Y0054628D02*
X0032096Y0054995D01*
X0032096Y0055362D01*
X0031729Y0055729D01*
X0030995Y0055729D01*
X0030628Y0055362D01*
X0031729Y0063527D02*
X0031729Y0065729D01*
X0030628Y0064628D01*
X0032096Y0064628D01*
X0031729Y0073527D02*
X0030995Y0073527D01*
X0030628Y0073894D01*
X0030628Y0074628D02*
X0031362Y0074995D01*
X0031729Y0074995D01*
X0032096Y0074628D01*
X0032096Y0073894D01*
X0031729Y0073527D01*
X0030628Y0074628D02*
X0030628Y0075729D01*
X0032096Y0075729D01*
X0031729Y0083527D02*
X0032096Y0083894D01*
X0032096Y0084261D01*
X0031729Y0084628D01*
X0030628Y0084628D01*
X0030628Y0083894D01*
X0030995Y0083527D01*
X0031729Y0083527D01*
X0030628Y0084628D02*
X0031362Y0085362D01*
X0032096Y0085729D01*
X0030628Y0093527D02*
X0030628Y0093894D01*
X0032096Y0095362D01*
X0032096Y0095729D01*
X0030628Y0095729D01*
X0030995Y0103527D02*
X0030628Y0103894D01*
X0030628Y0104261D01*
X0030995Y0104628D01*
X0031729Y0104628D01*
X0032096Y0104261D01*
X0032096Y0103894D01*
X0031729Y0103527D01*
X0030995Y0103527D01*
X0030995Y0104628D02*
X0030628Y0104995D01*
X0030628Y0105362D01*
X0030995Y0105729D01*
X0031729Y0105729D01*
X0032096Y0105362D01*
X0032096Y0104995D01*
X0031729Y0104628D01*
X0031729Y0113527D02*
X0032096Y0113894D01*
X0032096Y0115362D01*
X0031729Y0115729D01*
X0030995Y0115729D01*
X0030628Y0115362D01*
X0030628Y0114995D01*
X0030995Y0114628D01*
X0032096Y0114628D01*
X0031729Y0113527D02*
X0030995Y0113527D01*
X0030628Y0113894D01*
X0030995Y0123527D02*
X0030628Y0123894D01*
X0032096Y0125362D01*
X0032096Y0123894D01*
X0031729Y0123527D01*
X0030995Y0123527D01*
X0030628Y0123894D02*
X0030628Y0125362D01*
X0030995Y0125729D01*
X0031729Y0125729D01*
X0032096Y0125362D01*
X0029886Y0123527D02*
X0028419Y0123527D01*
X0029153Y0123527D02*
X0029153Y0125729D01*
X0028419Y0124995D01*
X0028419Y0133527D02*
X0029886Y0133527D01*
X0029153Y0133527D02*
X0029153Y0135729D01*
X0028419Y0134995D01*
X0030628Y0134995D02*
X0031362Y0135729D01*
X0031362Y0133527D01*
X0030628Y0133527D02*
X0032096Y0133527D01*
X0060727Y0015929D02*
X0060727Y0013727D01*
X0059993Y0013727D02*
X0061461Y0013727D01*
X0059993Y0015195D02*
X0060727Y0015929D01*
X0069993Y0015562D02*
X0070360Y0015929D01*
X0071094Y0015929D01*
X0071461Y0015562D01*
X0071461Y0015195D01*
X0069993Y0013727D01*
X0071461Y0013727D01*
X0079993Y0014094D02*
X0080360Y0013727D01*
X0081094Y0013727D01*
X0081461Y0014094D01*
X0081461Y0014461D01*
X0081094Y0014828D01*
X0080727Y0014828D01*
X0081094Y0014828D02*
X0081461Y0015195D01*
X0081461Y0015562D01*
X0081094Y0015929D01*
X0080360Y0015929D01*
X0079993Y0015562D01*
X0089993Y0014828D02*
X0091461Y0014828D01*
X0091094Y0015929D02*
X0089993Y0014828D01*
X0091094Y0013727D02*
X0091094Y0015929D01*
X0099993Y0015929D02*
X0099993Y0014828D01*
X0100727Y0015195D01*
X0101094Y0015195D01*
X0101461Y0014828D01*
X0101461Y0014094D01*
X0101094Y0013727D01*
X0100360Y0013727D01*
X0099993Y0014094D01*
X0099993Y0015929D02*
X0101461Y0015929D01*
X0109993Y0014828D02*
X0111094Y0014828D01*
X0111461Y0014461D01*
X0111461Y0014094D01*
X0111094Y0013727D01*
X0110360Y0013727D01*
X0109993Y0014094D01*
X0109993Y0014828D01*
X0110727Y0015562D01*
X0111461Y0015929D01*
X0119993Y0015929D02*
X0121461Y0015929D01*
X0121461Y0015562D01*
X0119993Y0014094D01*
X0119993Y0013727D01*
X0129993Y0014094D02*
X0129993Y0014461D01*
X0130360Y0014828D01*
X0131094Y0014828D01*
X0131461Y0014461D01*
X0131461Y0014094D01*
X0131094Y0013727D01*
X0130360Y0013727D01*
X0129993Y0014094D01*
X0130360Y0014828D02*
X0129993Y0015195D01*
X0129993Y0015562D01*
X0130360Y0015929D01*
X0131094Y0015929D01*
X0131461Y0015562D01*
X0131461Y0015195D01*
X0131094Y0014828D01*
X0139993Y0015195D02*
X0140360Y0014828D01*
X0141461Y0014828D01*
X0141461Y0014094D02*
X0141461Y0015562D01*
X0141094Y0015929D01*
X0140360Y0015929D01*
X0139993Y0015562D01*
X0139993Y0015195D01*
X0139993Y0014094D02*
X0140360Y0013727D01*
X0141094Y0013727D01*
X0141461Y0014094D01*
X0148888Y0013727D02*
X0150356Y0013727D01*
X0149622Y0013727D02*
X0149622Y0015929D01*
X0148888Y0015195D01*
X0151098Y0015562D02*
X0151098Y0014094D01*
X0152566Y0015562D01*
X0152566Y0014094D01*
X0152199Y0013727D01*
X0151465Y0013727D01*
X0151098Y0014094D01*
X0151098Y0015562D02*
X0151465Y0015929D01*
X0152199Y0015929D01*
X0152566Y0015562D01*
X0158888Y0015195D02*
X0159622Y0015929D01*
X0159622Y0013727D01*
X0158888Y0013727D02*
X0160356Y0013727D01*
X0161098Y0013727D02*
X0162566Y0013727D01*
X0161832Y0013727D02*
X0161832Y0015929D01*
X0161098Y0015195D01*
X0168888Y0015195D02*
X0169622Y0015929D01*
X0169622Y0013727D01*
X0168888Y0013727D02*
X0170356Y0013727D01*
X0171098Y0013727D02*
X0172566Y0015195D01*
X0172566Y0015562D01*
X0172199Y0015929D01*
X0171465Y0015929D01*
X0171098Y0015562D01*
X0171098Y0013727D02*
X0172566Y0013727D01*
X0178888Y0013727D02*
X0180356Y0013727D01*
X0179622Y0013727D02*
X0179622Y0015929D01*
X0178888Y0015195D01*
X0181098Y0015562D02*
X0181465Y0015929D01*
X0182199Y0015929D01*
X0182566Y0015562D01*
X0182566Y0015195D01*
X0182199Y0014828D01*
X0182566Y0014461D01*
X0182566Y0014094D01*
X0182199Y0013727D01*
X0181465Y0013727D01*
X0181098Y0014094D01*
X0181832Y0014828D02*
X0182199Y0014828D01*
X0188888Y0015195D02*
X0189622Y0015929D01*
X0189622Y0013727D01*
X0188888Y0013727D02*
X0190356Y0013727D01*
X0191098Y0014828D02*
X0192566Y0014828D01*
X0192199Y0013727D02*
X0192199Y0015929D01*
X0191098Y0014828D01*
X0198888Y0015195D02*
X0199622Y0015929D01*
X0199622Y0013727D01*
X0198888Y0013727D02*
X0200356Y0013727D01*
X0201098Y0014094D02*
X0201465Y0013727D01*
X0202199Y0013727D01*
X0202566Y0014094D01*
X0202566Y0014828D01*
X0202199Y0015195D01*
X0201832Y0015195D01*
X0201098Y0014828D01*
X0201098Y0015929D01*
X0202566Y0015929D01*
X0208888Y0015195D02*
X0209622Y0015929D01*
X0209622Y0013727D01*
X0208888Y0013727D02*
X0210356Y0013727D01*
X0211098Y0014094D02*
X0211465Y0013727D01*
X0212199Y0013727D01*
X0212566Y0014094D01*
X0212566Y0014461D01*
X0212199Y0014828D01*
X0211098Y0014828D01*
X0211098Y0014094D01*
X0211098Y0014828D02*
X0211832Y0015562D01*
X0212566Y0015929D01*
X0218888Y0015195D02*
X0219622Y0015929D01*
X0219622Y0013727D01*
X0218888Y0013727D02*
X0220356Y0013727D01*
X0221098Y0013727D02*
X0221098Y0014094D01*
X0222566Y0015562D01*
X0222566Y0015929D01*
X0221098Y0015929D01*
D11*
X0177738Y0034627D03*
X0187738Y0044627D03*
X0197738Y0054627D03*
X0207738Y0064627D03*
X0177738Y0074627D03*
X0177738Y0084627D03*
X0187738Y0084627D03*
X0187738Y0094627D03*
X0197738Y0094627D03*
X0207738Y0104627D03*
X0177738Y0124627D03*
X0187738Y0134627D03*
X0147738Y0124627D03*
X0137738Y0114627D03*
X0137738Y0104627D03*
X0137738Y0094627D03*
X0127738Y0094627D03*
X0137738Y0084627D03*
X0127738Y0074627D03*
X0137738Y0044627D03*
X0057738Y0054627D03*
X0057738Y0074627D03*
X0057738Y0114627D03*
X0057738Y0124627D03*
X0097738Y0124627D03*
X0107738Y0124627D03*
X0097738Y0114627D03*
D12*
X0057738Y0064627D03*
D13*
X0157738Y0074627D03*
X0157738Y0084627D03*
X0157738Y0104627D03*
X0157738Y0114627D03*
X0157738Y0054627D03*
X0157738Y0044627D03*
D14*
X0207738Y0044627D03*
X0207738Y0034627D03*
X0047738Y0034627D03*
X0047738Y0044627D03*
D15*
X0075164Y0044627D02*
X0080313Y0044627D01*
X0080313Y0054627D02*
X0075164Y0054627D01*
X0075164Y0064627D02*
X0080313Y0064627D01*
X0080313Y0074627D02*
X0075164Y0074627D01*
X0075164Y0084627D02*
X0080313Y0084627D01*
X0080313Y0094627D02*
X0075164Y0094627D01*
X0075164Y0104627D02*
X0080313Y0104627D01*
X0105164Y0104627D02*
X0110313Y0104627D01*
X0110313Y0094627D02*
X0105164Y0094627D01*
X0105164Y0084627D02*
X0110313Y0084627D01*
X0110313Y0074627D02*
X0105164Y0074627D01*
X0105164Y0064627D02*
X0110313Y0064627D01*
X0110313Y0054627D02*
X0105164Y0054627D01*
X0105164Y0044627D02*
X0110313Y0044627D01*
D16*
X0207738Y0114627D03*
X0207738Y0124627D03*
X0207738Y0134627D03*
D17*
X0147738Y0094627D03*
X0147738Y0044627D03*
D18*
X0147738Y0094627D01*
M02*
