%
M48
M72
T01C0.03150
T02C0.03543
T03C0.04331
%
T01
X7100Y2100
X7100Y3100
X7100Y4100
T02
X1100Y2100
X2100Y2100
X3100Y2100
X2100Y3100
X1100Y3100
X3100Y4100
X4100Y3100
X5100Y3100
X5100Y4100
X3100Y6100
X2100Y7100
X1100Y7100
X4100Y7100
X9100Y7100
X11100Y7100
X11100Y4100
X9100Y4100
X8100Y3100
X8100Y2100
X9100Y2100
X9100Y1100
X11100Y1100
T03
X7100Y5100
X5100Y5100
X7100Y7100
M30
