%
M48
M72
T01C0.02756
T02C0.03200
T03C0.03543
T04C0.03937
T05C0.04331
T06C0.04331
%
T01
X1105Y1105
X1105Y2105
X8105Y1105
X8105Y4105
X8105Y7105
T02
X5105Y4105
X3105Y3105
X2105Y3105
X3105Y1105
X5105Y2105
X7105Y1105
X7105Y3105
T03
X6105Y3105
X6105Y2105
X4105Y2105
X4105Y1105
X2105Y2105
X1105Y3105
X4105Y4105
X6105Y4105
X3105Y7105
X1105Y7105
T04
X5105Y7105
T05
X5105Y5105
T06
X7105Y5105
M30
