G75*
%MOIN*%
%OFA0B0*%
%FSLAX25Y25*%
%IPPOS*%
%LPD*%
%AMOC8*
5,1,8,0,0,1.08239X$1,22.5*
%
%ADD10C,0.06343*%
%ADD11R,0.05556X0.05556*%
%ADD12C,0.07800*%
%ADD13OC8,0.06000*%
%ADD14OC8,0.05950*%
%ADD15R,0.04762X0.04762*%
D10*
X0044615Y0034627D03*
X0084615Y0034627D03*
X0144615Y0034627D03*
X0144615Y0044627D03*
X0144615Y0054627D03*
X0144615Y0064627D03*
X0144615Y0074627D03*
X0134615Y0074627D03*
X0124615Y0074627D03*
X0114615Y0084627D03*
X0104615Y0084627D03*
X0124615Y0104627D03*
X0134615Y0114627D03*
X0144615Y0114627D03*
X0154615Y0104627D03*
X0154615Y0094627D03*
X0194615Y0094627D03*
X0194615Y0104627D03*
X0194615Y0074627D03*
X0184615Y0064627D03*
X0184615Y0054627D03*
X0184615Y0044627D03*
X0184615Y0034627D03*
X0194615Y0034627D03*
X0104615Y0114627D03*
X0114615Y0124627D03*
X0044615Y0074627D03*
D11*
X0034615Y0074627D03*
D12*
X0064615Y0084627D03*
X0074615Y0084627D03*
X0084615Y0084627D03*
X0094615Y0084627D03*
X0094615Y0054627D03*
X0084615Y0054627D03*
X0074615Y0054627D03*
X0064615Y0054627D03*
D13*
X0054615Y0054627D03*
X0044615Y0054627D03*
X0124615Y0054627D03*
X0134615Y0054627D03*
X0164615Y0074627D03*
X0164615Y0084627D03*
D14*
X0174615Y0084627D03*
X0184615Y0084627D03*
X0194615Y0084627D03*
D15*
X0134615Y0044627D03*
X0104615Y0054627D03*
X0074615Y0044627D03*
X0104615Y0074627D03*
M02*
