G75*
%MOIN*%
%OFA0B0*%
%FSLAX25Y25*%
%IPPOS*%
%LPD*%
%AMOC8*
5,1,8,0,0,1.08239X$1,22.5*
%
%ADD10C,0.07000*%
%ADD11C,0.02400*%
D10*
X0041500Y0012767D03*
X0031500Y0032767D03*
X0011500Y0032767D03*
X0011500Y0052767D03*
X0021500Y0052767D03*
X0011500Y0062767D03*
X0021500Y0072767D03*
X0041500Y0072767D03*
X0041500Y0052767D03*
X0051500Y0052767D03*
X0061500Y0052767D03*
X0071500Y0052767D03*
X0061500Y0042767D03*
X0061500Y0032767D03*
X0051500Y0032767D03*
X0081500Y0012767D03*
X0101500Y0032767D03*
X0111500Y0032767D03*
X0121500Y0032767D03*
X0121500Y0042767D03*
X0101500Y0042767D03*
X0101500Y0052767D03*
X0111500Y0062767D03*
X0121500Y0062767D03*
X0121500Y0072767D03*
X0111500Y0072767D03*
X0091500Y0072767D03*
X0071500Y0072767D03*
X0101500Y0092767D03*
X0121500Y0092767D03*
X0021500Y0092767D03*
X0111500Y0012767D03*
X0121500Y0012767D03*
D11*
X0041500Y0012767D02*
X0031500Y0022767D01*
X0031500Y0032767D01*
X0031500Y0032767D01*
X0021500Y0042767D01*
X0021500Y0052767D01*
X0021500Y0052767D01*
X0021500Y0052767D01*
X0011500Y0062767D01*
X0011500Y0062767D01*
X0011500Y0062767D01*
X0021500Y0072767D01*
X0021500Y0072767D01*
X0041500Y0072767D02*
X0041500Y0052767D01*
X0041500Y0052767D01*
X0051500Y0052767D01*
X0051500Y0052767D01*
X0061500Y0052767D02*
X0061500Y0052767D01*
X0061500Y0042767D01*
X0061500Y0042767D01*
X0061500Y0032767D01*
X0101500Y0032767D01*
X0111500Y0032767D01*
X0111500Y0032767D01*
X0121500Y0032767D01*
X0121500Y0032767D01*
X0111500Y0032767D02*
X0111500Y0032767D01*
X0101500Y0032767D02*
X0061500Y0032767D01*
X0101500Y0032767D01*
X0101500Y0042767D02*
X0091500Y0042767D01*
X0091500Y0012767D01*
X0081500Y0012767D01*
X0081500Y0012767D01*
X0091500Y0012767D02*
X0111500Y0012767D01*
X0111500Y0012767D01*
X0121500Y0012767D01*
X0121500Y0012767D01*
X0111500Y0012767D02*
X0111500Y0012767D01*
X0111500Y0042767D02*
X0101500Y0042767D01*
X0101500Y0042767D01*
X0111500Y0042767D02*
X0111500Y0062767D01*
X0111500Y0062767D01*
X0111500Y0062767D01*
X0121500Y0062767D01*
X0121500Y0062767D01*
X0121500Y0072767D02*
X0111500Y0072767D01*
X0111500Y0072767D01*
X0101500Y0072767D01*
X0101500Y0052767D01*
X0101500Y0092767D01*
X0121500Y0092767D01*
X0121500Y0092767D01*
X0101500Y0092767D02*
X0101500Y0052767D01*
X0111500Y0042767D02*
X0121500Y0042767D01*
X0121500Y0072767D02*
X0121500Y0072767D01*
X0111500Y0072767D02*
X0111500Y0072767D01*
X0101500Y0072767D02*
X0091500Y0072767D01*
X0091500Y0072767D01*
X0071500Y0072767D02*
X0071500Y0072767D01*
X0071500Y0052767D01*
X0071500Y0052767D01*
X0061500Y0032767D02*
X0051500Y0032767D01*
X0051500Y0032767D01*
X0031500Y0032767D02*
X0031500Y0032767D01*
X0011500Y0032767D02*
X0011500Y0032767D01*
X0011500Y0052767D01*
X0011500Y0052767D01*
X0041500Y0012767D02*
X0041500Y0012767D01*
M02*
