G75*
%MOIN*%
%OFA0B0*%
%FSLAX25Y25*%
%IPPOS*%
%LPD*%
%AMOC8*
5,1,8,0,0,1.08239X$1,22.5*
%
%ADD10C,0.00200*%
%ADD11C,0.00500*%
%ADD12R,0.03000X0.00750*%
%ADD13C,0.00300*%
%ADD14R,0.01000X0.04000*%
%ADD15C,0.00600*%
%ADD16C,0.01200*%
%ADD17C,0.00100*%
%ADD18C,0.00400*%
%ADD19R,0.01500X0.02000*%
D10*
X0004565Y0007785D02*
X0006033Y0007785D01*
X0006400Y0008152D01*
X0006400Y0008886D01*
X0006033Y0009253D01*
X0005299Y0009253D01*
X0005299Y0008519D01*
X0004565Y0007785D02*
X0004198Y0008152D01*
X0004198Y0008886D01*
X0004565Y0009253D01*
X0004198Y0009995D02*
X0006400Y0011463D01*
X0004198Y0011463D01*
X0004198Y0012205D02*
X0004198Y0013306D01*
X0004565Y0013673D01*
X0006033Y0013673D01*
X0006400Y0013306D01*
X0006400Y0012205D01*
X0004198Y0012205D01*
X0004198Y0009995D02*
X0006400Y0009995D01*
X0006033Y0028890D02*
X0006400Y0029257D01*
X0006400Y0029991D01*
X0006033Y0030358D01*
X0004565Y0030358D01*
X0004198Y0029991D01*
X0004198Y0029257D01*
X0004565Y0028890D01*
X0004932Y0028890D01*
X0005299Y0029257D01*
X0005299Y0030358D01*
X0005666Y0031100D02*
X0006400Y0031834D01*
X0005666Y0032568D01*
X0004198Y0032568D01*
X0004198Y0031100D02*
X0005666Y0031100D01*
X0014932Y0067785D02*
X0014198Y0068519D01*
X0014932Y0069253D01*
X0016400Y0069253D01*
X0016400Y0069995D02*
X0014198Y0069995D01*
X0016400Y0071463D01*
X0014198Y0071463D01*
X0014198Y0072205D02*
X0014198Y0073673D01*
X0014198Y0072939D02*
X0016400Y0072939D01*
X0015299Y0069253D02*
X0015299Y0067785D01*
X0014932Y0067785D02*
X0016400Y0067785D01*
X0144565Y0035149D02*
X0146033Y0035149D01*
X0145299Y0034415D02*
X0145299Y0035883D01*
X0144198Y0033673D02*
X0144198Y0032205D01*
X0144198Y0032939D02*
X0146400Y0032939D01*
X0146033Y0031463D02*
X0144198Y0031463D01*
X0146033Y0031463D02*
X0146400Y0031096D01*
X0146400Y0030362D01*
X0146033Y0029995D01*
X0144198Y0029995D01*
X0144565Y0029253D02*
X0144198Y0028886D01*
X0144198Y0028152D01*
X0144565Y0027785D01*
X0146033Y0027785D01*
X0146400Y0028152D01*
X0146400Y0028886D01*
X0146033Y0029253D01*
X0144565Y0029253D01*
X0144932Y0027043D02*
X0146400Y0027043D01*
X0145299Y0027043D02*
X0145299Y0025575D01*
X0144932Y0025575D02*
X0144198Y0026309D01*
X0144932Y0027043D01*
X0144932Y0025575D02*
X0146400Y0025575D01*
X0145299Y0015883D02*
X0145299Y0014415D01*
X0144198Y0013673D02*
X0144198Y0012205D01*
X0144198Y0012939D02*
X0146400Y0012939D01*
X0146033Y0011463D02*
X0144198Y0011463D01*
X0144198Y0009995D02*
X0146033Y0009995D01*
X0146400Y0010362D01*
X0146400Y0011096D01*
X0146033Y0011463D01*
X0146033Y0009253D02*
X0144565Y0009253D01*
X0144198Y0008886D01*
X0144198Y0008152D01*
X0144565Y0007785D01*
X0146033Y0007785D01*
X0146400Y0008152D01*
X0146400Y0008886D01*
X0146033Y0009253D01*
X0146400Y0007043D02*
X0144932Y0007043D01*
X0144198Y0006309D01*
X0144932Y0005575D01*
X0146400Y0005575D01*
X0145299Y0005575D02*
X0145299Y0007043D01*
D11*
X0114500Y0018500D02*
X0107500Y0018500D01*
X0105000Y0021000D02*
X0105002Y0021098D01*
X0105008Y0021196D01*
X0105017Y0021294D01*
X0105031Y0021391D01*
X0105048Y0021488D01*
X0105069Y0021584D01*
X0105094Y0021679D01*
X0105122Y0021773D01*
X0105155Y0021865D01*
X0105190Y0021957D01*
X0105230Y0022047D01*
X0105272Y0022135D01*
X0105319Y0022222D01*
X0105368Y0022306D01*
X0105421Y0022389D01*
X0105477Y0022469D01*
X0105537Y0022548D01*
X0105599Y0022624D01*
X0105664Y0022697D01*
X0105732Y0022768D01*
X0105803Y0022836D01*
X0105876Y0022901D01*
X0105952Y0022963D01*
X0106031Y0023023D01*
X0106111Y0023079D01*
X0106194Y0023132D01*
X0106278Y0023181D01*
X0106365Y0023228D01*
X0106453Y0023270D01*
X0106543Y0023310D01*
X0106635Y0023345D01*
X0106727Y0023378D01*
X0106821Y0023406D01*
X0106916Y0023431D01*
X0107012Y0023452D01*
X0107109Y0023469D01*
X0107206Y0023483D01*
X0107304Y0023492D01*
X0107402Y0023498D01*
X0107500Y0023500D01*
X0114500Y0023500D01*
X0117000Y0021000D02*
X0116998Y0020902D01*
X0116992Y0020804D01*
X0116983Y0020706D01*
X0116969Y0020609D01*
X0116952Y0020512D01*
X0116931Y0020416D01*
X0116906Y0020321D01*
X0116878Y0020227D01*
X0116845Y0020135D01*
X0116810Y0020043D01*
X0116770Y0019953D01*
X0116728Y0019865D01*
X0116681Y0019778D01*
X0116632Y0019694D01*
X0116579Y0019611D01*
X0116523Y0019531D01*
X0116463Y0019452D01*
X0116401Y0019376D01*
X0116336Y0019303D01*
X0116268Y0019232D01*
X0116197Y0019164D01*
X0116124Y0019099D01*
X0116048Y0019037D01*
X0115969Y0018977D01*
X0115889Y0018921D01*
X0115806Y0018868D01*
X0115722Y0018819D01*
X0115635Y0018772D01*
X0115547Y0018730D01*
X0115457Y0018690D01*
X0115365Y0018655D01*
X0115273Y0018622D01*
X0115179Y0018594D01*
X0115084Y0018569D01*
X0114988Y0018548D01*
X0114891Y0018531D01*
X0114794Y0018517D01*
X0114696Y0018508D01*
X0114598Y0018502D01*
X0114500Y0018500D01*
X0117000Y0021000D02*
X0116998Y0021098D01*
X0116992Y0021196D01*
X0116983Y0021294D01*
X0116969Y0021391D01*
X0116952Y0021488D01*
X0116931Y0021584D01*
X0116906Y0021679D01*
X0116878Y0021773D01*
X0116845Y0021865D01*
X0116810Y0021957D01*
X0116770Y0022047D01*
X0116728Y0022135D01*
X0116681Y0022222D01*
X0116632Y0022306D01*
X0116579Y0022389D01*
X0116523Y0022469D01*
X0116463Y0022548D01*
X0116401Y0022624D01*
X0116336Y0022697D01*
X0116268Y0022768D01*
X0116197Y0022836D01*
X0116124Y0022901D01*
X0116048Y0022963D01*
X0115969Y0023023D01*
X0115889Y0023079D01*
X0115806Y0023132D01*
X0115722Y0023181D01*
X0115635Y0023228D01*
X0115547Y0023270D01*
X0115457Y0023310D01*
X0115365Y0023345D01*
X0115273Y0023378D01*
X0115179Y0023406D01*
X0115084Y0023431D01*
X0114988Y0023452D01*
X0114891Y0023469D01*
X0114794Y0023483D01*
X0114696Y0023492D01*
X0114598Y0023498D01*
X0114500Y0023500D01*
X0117000Y0021000D02*
X0116998Y0020902D01*
X0116992Y0020804D01*
X0116983Y0020706D01*
X0116969Y0020609D01*
X0116952Y0020512D01*
X0116931Y0020416D01*
X0116906Y0020321D01*
X0116878Y0020227D01*
X0116845Y0020135D01*
X0116810Y0020043D01*
X0116770Y0019953D01*
X0116728Y0019865D01*
X0116681Y0019778D01*
X0116632Y0019694D01*
X0116579Y0019611D01*
X0116523Y0019531D01*
X0116463Y0019452D01*
X0116401Y0019376D01*
X0116336Y0019303D01*
X0116268Y0019232D01*
X0116197Y0019164D01*
X0116124Y0019099D01*
X0116048Y0019037D01*
X0115969Y0018977D01*
X0115889Y0018921D01*
X0115806Y0018868D01*
X0115722Y0018819D01*
X0115635Y0018772D01*
X0115547Y0018730D01*
X0115457Y0018690D01*
X0115365Y0018655D01*
X0115273Y0018622D01*
X0115179Y0018594D01*
X0115084Y0018569D01*
X0114988Y0018548D01*
X0114891Y0018531D01*
X0114794Y0018517D01*
X0114696Y0018508D01*
X0114598Y0018502D01*
X0114500Y0018500D01*
X0107500Y0018500D02*
X0107402Y0018502D01*
X0107304Y0018508D01*
X0107206Y0018517D01*
X0107109Y0018531D01*
X0107012Y0018548D01*
X0106916Y0018569D01*
X0106821Y0018594D01*
X0106727Y0018622D01*
X0106635Y0018655D01*
X0106543Y0018690D01*
X0106453Y0018730D01*
X0106365Y0018772D01*
X0106278Y0018819D01*
X0106194Y0018868D01*
X0106111Y0018921D01*
X0106031Y0018977D01*
X0105952Y0019037D01*
X0105876Y0019099D01*
X0105803Y0019164D01*
X0105732Y0019232D01*
X0105664Y0019303D01*
X0105599Y0019376D01*
X0105537Y0019452D01*
X0105477Y0019531D01*
X0105421Y0019611D01*
X0105368Y0019694D01*
X0105319Y0019778D01*
X0105272Y0019865D01*
X0105230Y0019953D01*
X0105190Y0020043D01*
X0105155Y0020135D01*
X0105122Y0020227D01*
X0105094Y0020321D01*
X0105069Y0020416D01*
X0105048Y0020512D01*
X0105031Y0020609D01*
X0105017Y0020706D01*
X0105008Y0020804D01*
X0105002Y0020902D01*
X0105000Y0021000D01*
X0075104Y0023407D02*
X0068595Y0016899D01*
X0066991Y0018503D02*
X0073499Y0025012D01*
X0057665Y0021000D02*
X0057669Y0021327D01*
X0057681Y0021654D01*
X0057701Y0021981D01*
X0057729Y0022307D01*
X0057765Y0022632D01*
X0057809Y0022957D01*
X0057861Y0023280D01*
X0057921Y0023602D01*
X0057989Y0023922D01*
X0058065Y0024240D01*
X0058148Y0024557D01*
X0058239Y0024871D01*
X0058338Y0025183D01*
X0058445Y0025492D01*
X0058559Y0025799D01*
X0058680Y0026103D01*
X0058809Y0026404D01*
X0058945Y0026701D01*
X0059089Y0026996D01*
X0059240Y0027286D01*
X0059397Y0027573D01*
X0059562Y0027856D01*
X0059734Y0028134D01*
X0059912Y0028409D01*
X0060098Y0028678D01*
X0060289Y0028944D01*
X0060487Y0029204D01*
X0060692Y0029460D01*
X0060903Y0029710D01*
X0061119Y0029955D01*
X0061342Y0030195D01*
X0061571Y0030429D01*
X0061805Y0030658D01*
X0062045Y0030881D01*
X0062290Y0031097D01*
X0062540Y0031308D01*
X0062796Y0031513D01*
X0063056Y0031711D01*
X0063322Y0031902D01*
X0063591Y0032088D01*
X0063866Y0032266D01*
X0064144Y0032438D01*
X0064427Y0032603D01*
X0064714Y0032760D01*
X0065004Y0032911D01*
X0065299Y0033055D01*
X0065596Y0033191D01*
X0065897Y0033320D01*
X0066201Y0033441D01*
X0066508Y0033555D01*
X0066817Y0033662D01*
X0067129Y0033761D01*
X0067443Y0033852D01*
X0067760Y0033935D01*
X0068078Y0034011D01*
X0068398Y0034079D01*
X0068720Y0034139D01*
X0069043Y0034191D01*
X0069368Y0034235D01*
X0069693Y0034271D01*
X0070019Y0034299D01*
X0070346Y0034319D01*
X0070673Y0034331D01*
X0071000Y0034335D01*
X0071327Y0034331D01*
X0071654Y0034319D01*
X0071981Y0034299D01*
X0072307Y0034271D01*
X0072632Y0034235D01*
X0072957Y0034191D01*
X0073280Y0034139D01*
X0073602Y0034079D01*
X0073922Y0034011D01*
X0074240Y0033935D01*
X0074557Y0033852D01*
X0074871Y0033761D01*
X0075183Y0033662D01*
X0075492Y0033555D01*
X0075799Y0033441D01*
X0076103Y0033320D01*
X0076404Y0033191D01*
X0076701Y0033055D01*
X0076996Y0032911D01*
X0077286Y0032760D01*
X0077573Y0032603D01*
X0077856Y0032438D01*
X0078134Y0032266D01*
X0078409Y0032088D01*
X0078678Y0031902D01*
X0078944Y0031711D01*
X0079204Y0031513D01*
X0079460Y0031308D01*
X0079710Y0031097D01*
X0079955Y0030881D01*
X0080195Y0030658D01*
X0080429Y0030429D01*
X0080658Y0030195D01*
X0080881Y0029955D01*
X0081097Y0029710D01*
X0081308Y0029460D01*
X0081513Y0029204D01*
X0081711Y0028944D01*
X0081902Y0028678D01*
X0082088Y0028409D01*
X0082266Y0028134D01*
X0082438Y0027856D01*
X0082603Y0027573D01*
X0082760Y0027286D01*
X0082911Y0026996D01*
X0083055Y0026701D01*
X0083191Y0026404D01*
X0083320Y0026103D01*
X0083441Y0025799D01*
X0083555Y0025492D01*
X0083662Y0025183D01*
X0083761Y0024871D01*
X0083852Y0024557D01*
X0083935Y0024240D01*
X0084011Y0023922D01*
X0084079Y0023602D01*
X0084139Y0023280D01*
X0084191Y0022957D01*
X0084235Y0022632D01*
X0084271Y0022307D01*
X0084299Y0021981D01*
X0084319Y0021654D01*
X0084331Y0021327D01*
X0084335Y0021000D01*
X0084331Y0020673D01*
X0084319Y0020346D01*
X0084299Y0020019D01*
X0084271Y0019693D01*
X0084235Y0019368D01*
X0084191Y0019043D01*
X0084139Y0018720D01*
X0084079Y0018398D01*
X0084011Y0018078D01*
X0083935Y0017760D01*
X0083852Y0017443D01*
X0083761Y0017129D01*
X0083662Y0016817D01*
X0083555Y0016508D01*
X0083441Y0016201D01*
X0083320Y0015897D01*
X0083191Y0015596D01*
X0083055Y0015299D01*
X0082911Y0015004D01*
X0082760Y0014714D01*
X0082603Y0014427D01*
X0082438Y0014144D01*
X0082266Y0013866D01*
X0082088Y0013591D01*
X0081902Y0013322D01*
X0081711Y0013056D01*
X0081513Y0012796D01*
X0081308Y0012540D01*
X0081097Y0012290D01*
X0080881Y0012045D01*
X0080658Y0011805D01*
X0080429Y0011571D01*
X0080195Y0011342D01*
X0079955Y0011119D01*
X0079710Y0010903D01*
X0079460Y0010692D01*
X0079204Y0010487D01*
X0078944Y0010289D01*
X0078678Y0010098D01*
X0078409Y0009912D01*
X0078134Y0009734D01*
X0077856Y0009562D01*
X0077573Y0009397D01*
X0077286Y0009240D01*
X0076996Y0009089D01*
X0076701Y0008945D01*
X0076404Y0008809D01*
X0076103Y0008680D01*
X0075799Y0008559D01*
X0075492Y0008445D01*
X0075183Y0008338D01*
X0074871Y0008239D01*
X0074557Y0008148D01*
X0074240Y0008065D01*
X0073922Y0007989D01*
X0073602Y0007921D01*
X0073280Y0007861D01*
X0072957Y0007809D01*
X0072632Y0007765D01*
X0072307Y0007729D01*
X0071981Y0007701D01*
X0071654Y0007681D01*
X0071327Y0007669D01*
X0071000Y0007665D01*
X0070673Y0007669D01*
X0070346Y0007681D01*
X0070019Y0007701D01*
X0069693Y0007729D01*
X0069368Y0007765D01*
X0069043Y0007809D01*
X0068720Y0007861D01*
X0068398Y0007921D01*
X0068078Y0007989D01*
X0067760Y0008065D01*
X0067443Y0008148D01*
X0067129Y0008239D01*
X0066817Y0008338D01*
X0066508Y0008445D01*
X0066201Y0008559D01*
X0065897Y0008680D01*
X0065596Y0008809D01*
X0065299Y0008945D01*
X0065004Y0009089D01*
X0064714Y0009240D01*
X0064427Y0009397D01*
X0064144Y0009562D01*
X0063866Y0009734D01*
X0063591Y0009912D01*
X0063322Y0010098D01*
X0063056Y0010289D01*
X0062796Y0010487D01*
X0062540Y0010692D01*
X0062290Y0010903D01*
X0062045Y0011119D01*
X0061805Y0011342D01*
X0061571Y0011571D01*
X0061342Y0011805D01*
X0061119Y0012045D01*
X0060903Y0012290D01*
X0060692Y0012540D01*
X0060487Y0012796D01*
X0060289Y0013056D01*
X0060098Y0013322D01*
X0059912Y0013591D01*
X0059734Y0013866D01*
X0059562Y0014144D01*
X0059397Y0014427D01*
X0059240Y0014714D01*
X0059089Y0015004D01*
X0058945Y0015299D01*
X0058809Y0015596D01*
X0058680Y0015897D01*
X0058559Y0016201D01*
X0058445Y0016508D01*
X0058338Y0016817D01*
X0058239Y0017129D01*
X0058148Y0017443D01*
X0058065Y0017760D01*
X0057989Y0018078D01*
X0057921Y0018398D01*
X0057861Y0018720D01*
X0057809Y0019043D01*
X0057765Y0019368D01*
X0057729Y0019693D01*
X0057701Y0020019D01*
X0057681Y0020346D01*
X0057669Y0020673D01*
X0057665Y0021000D01*
X0053500Y0019500D02*
X0053500Y0012500D01*
X0052250Y0013106D02*
X0050749Y0010854D01*
X0049247Y0013106D01*
X0048500Y0012500D02*
X0048500Y0019500D01*
X0048497Y0017693D02*
X0049998Y0017693D01*
X0050749Y0016942D01*
X0052250Y0016942D01*
X0052250Y0017693D01*
X0053500Y0019500D02*
X0053488Y0019593D01*
X0053472Y0019685D01*
X0053452Y0019776D01*
X0053428Y0019867D01*
X0053401Y0019956D01*
X0053370Y0020045D01*
X0053335Y0020132D01*
X0053297Y0020217D01*
X0053255Y0020301D01*
X0053210Y0020383D01*
X0053162Y0020463D01*
X0053110Y0020541D01*
X0053055Y0020617D01*
X0052997Y0020690D01*
X0052936Y0020761D01*
X0052872Y0020829D01*
X0052805Y0020895D01*
X0052736Y0020958D01*
X0052664Y0021018D01*
X0052590Y0021075D01*
X0052513Y0021129D01*
X0052435Y0021179D01*
X0052354Y0021227D01*
X0052271Y0021270D01*
X0052187Y0021311D01*
X0052101Y0021348D01*
X0052014Y0021381D01*
X0051925Y0021411D01*
X0051835Y0021437D01*
X0051744Y0021459D01*
X0051652Y0021478D01*
X0051560Y0021493D01*
X0051467Y0021504D01*
X0051374Y0021511D01*
X0051280Y0021514D01*
X0051187Y0021513D01*
X0051093Y0021509D01*
X0051000Y0021500D01*
X0050907Y0021509D01*
X0050813Y0021513D01*
X0050720Y0021514D01*
X0050626Y0021511D01*
X0050533Y0021504D01*
X0050440Y0021493D01*
X0050348Y0021478D01*
X0050256Y0021459D01*
X0050165Y0021437D01*
X0050075Y0021411D01*
X0049986Y0021381D01*
X0049899Y0021348D01*
X0049813Y0021311D01*
X0049729Y0021270D01*
X0049646Y0021227D01*
X0049565Y0021179D01*
X0049487Y0021129D01*
X0049410Y0021075D01*
X0049336Y0021018D01*
X0049264Y0020958D01*
X0049195Y0020895D01*
X0049128Y0020829D01*
X0049064Y0020761D01*
X0049003Y0020690D01*
X0048945Y0020617D01*
X0048890Y0020541D01*
X0048838Y0020463D01*
X0048790Y0020383D01*
X0048745Y0020301D01*
X0048703Y0020217D01*
X0048665Y0020132D01*
X0048630Y0020045D01*
X0048599Y0019956D01*
X0048572Y0019867D01*
X0048548Y0019776D01*
X0048528Y0019685D01*
X0048512Y0019593D01*
X0048500Y0019500D01*
X0048497Y0017693D02*
X0047746Y0016942D01*
X0047746Y0015441D01*
X0048497Y0014691D01*
X0049998Y0014691D01*
X0050749Y0015441D01*
X0052250Y0015441D01*
X0052250Y0014691D01*
X0053500Y0012500D02*
X0053488Y0012407D01*
X0053472Y0012315D01*
X0053452Y0012224D01*
X0053428Y0012133D01*
X0053401Y0012044D01*
X0053370Y0011955D01*
X0053335Y0011868D01*
X0053297Y0011783D01*
X0053255Y0011699D01*
X0053210Y0011617D01*
X0053162Y0011537D01*
X0053110Y0011459D01*
X0053055Y0011383D01*
X0052997Y0011310D01*
X0052936Y0011239D01*
X0052872Y0011171D01*
X0052805Y0011105D01*
X0052736Y0011042D01*
X0052664Y0010982D01*
X0052590Y0010925D01*
X0052513Y0010871D01*
X0052435Y0010821D01*
X0052354Y0010773D01*
X0052271Y0010730D01*
X0052187Y0010689D01*
X0052101Y0010652D01*
X0052014Y0010619D01*
X0051925Y0010589D01*
X0051835Y0010563D01*
X0051744Y0010541D01*
X0051652Y0010522D01*
X0051560Y0010507D01*
X0051467Y0010496D01*
X0051374Y0010489D01*
X0051280Y0010486D01*
X0051187Y0010487D01*
X0051093Y0010491D01*
X0051000Y0010500D01*
X0052250Y0010854D02*
X0047746Y0010854D01*
X0048500Y0012500D02*
X0048512Y0012407D01*
X0048528Y0012315D01*
X0048548Y0012224D01*
X0048572Y0012133D01*
X0048599Y0012044D01*
X0048630Y0011955D01*
X0048665Y0011868D01*
X0048703Y0011783D01*
X0048745Y0011699D01*
X0048790Y0011617D01*
X0048838Y0011537D01*
X0048890Y0011459D01*
X0048945Y0011383D01*
X0049003Y0011310D01*
X0049064Y0011239D01*
X0049128Y0011171D01*
X0049195Y0011105D01*
X0049264Y0011042D01*
X0049336Y0010982D01*
X0049410Y0010925D01*
X0049487Y0010871D01*
X0049565Y0010821D01*
X0049646Y0010773D01*
X0049729Y0010730D01*
X0049813Y0010689D01*
X0049899Y0010652D01*
X0049986Y0010619D01*
X0050075Y0010589D01*
X0050165Y0010563D01*
X0050256Y0010541D01*
X0050348Y0010522D01*
X0050440Y0010507D01*
X0050533Y0010496D01*
X0050626Y0010489D01*
X0050720Y0010486D01*
X0050813Y0010487D01*
X0050907Y0010491D01*
X0051000Y0010500D01*
X0052250Y0009253D02*
X0052250Y0006250D01*
X0052250Y0007751D02*
X0047746Y0007751D01*
X0049247Y0006250D01*
X0056556Y0021000D02*
X0056560Y0021354D01*
X0056573Y0021709D01*
X0056595Y0022063D01*
X0056626Y0022416D01*
X0056665Y0022768D01*
X0056712Y0023119D01*
X0056769Y0023469D01*
X0056834Y0023818D01*
X0056907Y0024165D01*
X0056989Y0024510D01*
X0057079Y0024852D01*
X0057178Y0025193D01*
X0057285Y0025531D01*
X0057400Y0025866D01*
X0057524Y0026198D01*
X0057655Y0026527D01*
X0057795Y0026853D01*
X0057943Y0027176D01*
X0058098Y0027494D01*
X0058262Y0027809D01*
X0058432Y0028119D01*
X0058611Y0028426D01*
X0058797Y0028728D01*
X0058990Y0029025D01*
X0059191Y0029317D01*
X0059398Y0029604D01*
X0059613Y0029886D01*
X0059835Y0030163D01*
X0060063Y0030434D01*
X0060298Y0030700D01*
X0060539Y0030960D01*
X0060787Y0031213D01*
X0061040Y0031461D01*
X0061300Y0031702D01*
X0061566Y0031937D01*
X0061837Y0032165D01*
X0062114Y0032387D01*
X0062396Y0032602D01*
X0062683Y0032809D01*
X0062975Y0033010D01*
X0063272Y0033203D01*
X0063574Y0033389D01*
X0063881Y0033568D01*
X0064191Y0033738D01*
X0064506Y0033902D01*
X0064824Y0034057D01*
X0065147Y0034205D01*
X0065473Y0034345D01*
X0065802Y0034476D01*
X0066134Y0034600D01*
X0066469Y0034715D01*
X0066807Y0034822D01*
X0067148Y0034921D01*
X0067490Y0035011D01*
X0067835Y0035093D01*
X0068182Y0035166D01*
X0068531Y0035231D01*
X0068881Y0035288D01*
X0069232Y0035335D01*
X0069584Y0035374D01*
X0069937Y0035405D01*
X0070291Y0035427D01*
X0070646Y0035440D01*
X0071000Y0035444D01*
X0071354Y0035440D01*
X0071709Y0035427D01*
X0072063Y0035405D01*
X0072416Y0035374D01*
X0072768Y0035335D01*
X0073119Y0035288D01*
X0073469Y0035231D01*
X0073818Y0035166D01*
X0074165Y0035093D01*
X0074510Y0035011D01*
X0074852Y0034921D01*
X0075193Y0034822D01*
X0075531Y0034715D01*
X0075866Y0034600D01*
X0076198Y0034476D01*
X0076527Y0034345D01*
X0076853Y0034205D01*
X0077176Y0034057D01*
X0077494Y0033902D01*
X0077809Y0033738D01*
X0078119Y0033568D01*
X0078426Y0033389D01*
X0078728Y0033203D01*
X0079025Y0033010D01*
X0079317Y0032809D01*
X0079604Y0032602D01*
X0079886Y0032387D01*
X0080163Y0032165D01*
X0080434Y0031937D01*
X0080700Y0031702D01*
X0080960Y0031461D01*
X0081213Y0031213D01*
X0081461Y0030960D01*
X0081702Y0030700D01*
X0081937Y0030434D01*
X0082165Y0030163D01*
X0082387Y0029886D01*
X0082602Y0029604D01*
X0082809Y0029317D01*
X0083010Y0029025D01*
X0083203Y0028728D01*
X0083389Y0028426D01*
X0083568Y0028119D01*
X0083738Y0027809D01*
X0083902Y0027494D01*
X0084057Y0027176D01*
X0084205Y0026853D01*
X0084345Y0026527D01*
X0084476Y0026198D01*
X0084600Y0025866D01*
X0084715Y0025531D01*
X0084822Y0025193D01*
X0084921Y0024852D01*
X0085011Y0024510D01*
X0085093Y0024165D01*
X0085166Y0023818D01*
X0085231Y0023469D01*
X0085288Y0023119D01*
X0085335Y0022768D01*
X0085374Y0022416D01*
X0085405Y0022063D01*
X0085427Y0021709D01*
X0085440Y0021354D01*
X0085444Y0021000D01*
X0085440Y0020646D01*
X0085427Y0020291D01*
X0085405Y0019937D01*
X0085374Y0019584D01*
X0085335Y0019232D01*
X0085288Y0018881D01*
X0085231Y0018531D01*
X0085166Y0018182D01*
X0085093Y0017835D01*
X0085011Y0017490D01*
X0084921Y0017148D01*
X0084822Y0016807D01*
X0084715Y0016469D01*
X0084600Y0016134D01*
X0084476Y0015802D01*
X0084345Y0015473D01*
X0084205Y0015147D01*
X0084057Y0014824D01*
X0083902Y0014506D01*
X0083738Y0014191D01*
X0083568Y0013881D01*
X0083389Y0013574D01*
X0083203Y0013272D01*
X0083010Y0012975D01*
X0082809Y0012683D01*
X0082602Y0012396D01*
X0082387Y0012114D01*
X0082165Y0011837D01*
X0081937Y0011566D01*
X0081702Y0011300D01*
X0081461Y0011040D01*
X0081213Y0010787D01*
X0080960Y0010539D01*
X0080700Y0010298D01*
X0080434Y0010063D01*
X0080163Y0009835D01*
X0079886Y0009613D01*
X0079604Y0009398D01*
X0079317Y0009191D01*
X0079025Y0008990D01*
X0078728Y0008797D01*
X0078426Y0008611D01*
X0078119Y0008432D01*
X0077809Y0008262D01*
X0077494Y0008098D01*
X0077176Y0007943D01*
X0076853Y0007795D01*
X0076527Y0007655D01*
X0076198Y0007524D01*
X0075866Y0007400D01*
X0075531Y0007285D01*
X0075193Y0007178D01*
X0074852Y0007079D01*
X0074510Y0006989D01*
X0074165Y0006907D01*
X0073818Y0006834D01*
X0073469Y0006769D01*
X0073119Y0006712D01*
X0072768Y0006665D01*
X0072416Y0006626D01*
X0072063Y0006595D01*
X0071709Y0006573D01*
X0071354Y0006560D01*
X0071000Y0006556D01*
X0070646Y0006560D01*
X0070291Y0006573D01*
X0069937Y0006595D01*
X0069584Y0006626D01*
X0069232Y0006665D01*
X0068881Y0006712D01*
X0068531Y0006769D01*
X0068182Y0006834D01*
X0067835Y0006907D01*
X0067490Y0006989D01*
X0067148Y0007079D01*
X0066807Y0007178D01*
X0066469Y0007285D01*
X0066134Y0007400D01*
X0065802Y0007524D01*
X0065473Y0007655D01*
X0065147Y0007795D01*
X0064824Y0007943D01*
X0064506Y0008098D01*
X0064191Y0008262D01*
X0063881Y0008432D01*
X0063574Y0008611D01*
X0063272Y0008797D01*
X0062975Y0008990D01*
X0062683Y0009191D01*
X0062396Y0009398D01*
X0062114Y0009613D01*
X0061837Y0009835D01*
X0061566Y0010063D01*
X0061300Y0010298D01*
X0061040Y0010539D01*
X0060787Y0010787D01*
X0060539Y0011040D01*
X0060298Y0011300D01*
X0060063Y0011566D01*
X0059835Y0011837D01*
X0059613Y0012114D01*
X0059398Y0012396D01*
X0059191Y0012683D01*
X0058990Y0012975D01*
X0058797Y0013272D01*
X0058611Y0013574D01*
X0058432Y0013881D01*
X0058262Y0014191D01*
X0058098Y0014506D01*
X0057943Y0014824D01*
X0057795Y0015147D01*
X0057655Y0015473D01*
X0057524Y0015802D01*
X0057400Y0016134D01*
X0057285Y0016469D01*
X0057178Y0016807D01*
X0057079Y0017148D01*
X0056989Y0017490D01*
X0056907Y0017835D01*
X0056834Y0018182D01*
X0056769Y0018531D01*
X0056712Y0018881D01*
X0056665Y0019232D01*
X0056626Y0019584D01*
X0056595Y0019937D01*
X0056573Y0020291D01*
X0056560Y0020646D01*
X0056556Y0021000D01*
X0056773Y0023958D02*
X0053405Y0027326D01*
X0053518Y0028803D01*
X0053630Y0030279D01*
X0054914Y0031563D01*
X0058261Y0028216D01*
X0057150Y0029461D02*
X0062557Y0034868D01*
X0063770Y0033725D02*
X0060423Y0037072D01*
X0061707Y0038355D01*
X0063178Y0038462D01*
X0064648Y0038569D01*
X0067857Y0035360D01*
X0062893Y0036280D02*
X0062895Y0036343D01*
X0062901Y0036405D01*
X0062911Y0036467D01*
X0062924Y0036529D01*
X0062942Y0036589D01*
X0062963Y0036648D01*
X0062988Y0036706D01*
X0063017Y0036762D01*
X0063049Y0036816D01*
X0063084Y0036868D01*
X0063122Y0036917D01*
X0063164Y0036965D01*
X0063208Y0037009D01*
X0063256Y0037051D01*
X0063305Y0037089D01*
X0063357Y0037124D01*
X0063411Y0037156D01*
X0063467Y0037185D01*
X0063525Y0037210D01*
X0063584Y0037231D01*
X0063644Y0037249D01*
X0063706Y0037262D01*
X0063768Y0037272D01*
X0063830Y0037278D01*
X0063893Y0037280D01*
X0063956Y0037278D01*
X0064018Y0037272D01*
X0064080Y0037262D01*
X0064142Y0037249D01*
X0064202Y0037231D01*
X0064261Y0037210D01*
X0064319Y0037185D01*
X0064375Y0037156D01*
X0064429Y0037124D01*
X0064481Y0037089D01*
X0064530Y0037051D01*
X0064578Y0037009D01*
X0064622Y0036965D01*
X0064664Y0036917D01*
X0064702Y0036868D01*
X0064737Y0036816D01*
X0064769Y0036762D01*
X0064798Y0036706D01*
X0064823Y0036648D01*
X0064844Y0036589D01*
X0064862Y0036529D01*
X0064875Y0036467D01*
X0064885Y0036405D01*
X0064891Y0036343D01*
X0064893Y0036280D01*
X0064891Y0036217D01*
X0064885Y0036155D01*
X0064875Y0036093D01*
X0064862Y0036031D01*
X0064844Y0035971D01*
X0064823Y0035912D01*
X0064798Y0035854D01*
X0064769Y0035798D01*
X0064737Y0035744D01*
X0064702Y0035692D01*
X0064664Y0035643D01*
X0064622Y0035595D01*
X0064578Y0035551D01*
X0064530Y0035509D01*
X0064481Y0035471D01*
X0064429Y0035436D01*
X0064375Y0035404D01*
X0064319Y0035375D01*
X0064261Y0035350D01*
X0064202Y0035329D01*
X0064142Y0035311D01*
X0064080Y0035298D01*
X0064018Y0035288D01*
X0063956Y0035282D01*
X0063893Y0035280D01*
X0063830Y0035282D01*
X0063768Y0035288D01*
X0063706Y0035298D01*
X0063644Y0035311D01*
X0063584Y0035329D01*
X0063525Y0035350D01*
X0063467Y0035375D01*
X0063411Y0035404D01*
X0063357Y0035436D01*
X0063305Y0035471D01*
X0063256Y0035509D01*
X0063208Y0035551D01*
X0063164Y0035595D01*
X0063122Y0035643D01*
X0063084Y0035692D01*
X0063049Y0035744D01*
X0063017Y0035798D01*
X0062988Y0035854D01*
X0062963Y0035912D01*
X0062942Y0035971D01*
X0062924Y0036031D01*
X0062911Y0036093D01*
X0062901Y0036155D01*
X0062895Y0036217D01*
X0062893Y0036280D01*
X0061060Y0036489D02*
X0058279Y0033708D01*
X0058278Y0033708D02*
X0055747Y0031177D01*
X0054640Y0028082D02*
X0054642Y0028145D01*
X0054648Y0028207D01*
X0054658Y0028269D01*
X0054671Y0028331D01*
X0054689Y0028391D01*
X0054710Y0028450D01*
X0054735Y0028508D01*
X0054764Y0028564D01*
X0054796Y0028618D01*
X0054831Y0028670D01*
X0054869Y0028719D01*
X0054911Y0028767D01*
X0054955Y0028811D01*
X0055003Y0028853D01*
X0055052Y0028891D01*
X0055104Y0028926D01*
X0055158Y0028958D01*
X0055214Y0028987D01*
X0055272Y0029012D01*
X0055331Y0029033D01*
X0055391Y0029051D01*
X0055453Y0029064D01*
X0055515Y0029074D01*
X0055577Y0029080D01*
X0055640Y0029082D01*
X0055703Y0029080D01*
X0055765Y0029074D01*
X0055827Y0029064D01*
X0055889Y0029051D01*
X0055949Y0029033D01*
X0056008Y0029012D01*
X0056066Y0028987D01*
X0056122Y0028958D01*
X0056176Y0028926D01*
X0056228Y0028891D01*
X0056277Y0028853D01*
X0056325Y0028811D01*
X0056369Y0028767D01*
X0056411Y0028719D01*
X0056449Y0028670D01*
X0056484Y0028618D01*
X0056516Y0028564D01*
X0056545Y0028508D01*
X0056570Y0028450D01*
X0056591Y0028391D01*
X0056609Y0028331D01*
X0056622Y0028269D01*
X0056632Y0028207D01*
X0056638Y0028145D01*
X0056640Y0028082D01*
X0056638Y0028019D01*
X0056632Y0027957D01*
X0056622Y0027895D01*
X0056609Y0027833D01*
X0056591Y0027773D01*
X0056570Y0027714D01*
X0056545Y0027656D01*
X0056516Y0027600D01*
X0056484Y0027546D01*
X0056449Y0027494D01*
X0056411Y0027445D01*
X0056369Y0027397D01*
X0056325Y0027353D01*
X0056277Y0027311D01*
X0056228Y0027273D01*
X0056176Y0027238D01*
X0056122Y0027206D01*
X0056066Y0027177D01*
X0056008Y0027152D01*
X0055949Y0027131D01*
X0055889Y0027113D01*
X0055827Y0027100D01*
X0055765Y0027090D01*
X0055703Y0027084D01*
X0055640Y0027082D01*
X0055577Y0027084D01*
X0055515Y0027090D01*
X0055453Y0027100D01*
X0055391Y0027113D01*
X0055331Y0027131D01*
X0055272Y0027152D01*
X0055214Y0027177D01*
X0055158Y0027206D01*
X0055104Y0027238D01*
X0055052Y0027273D01*
X0055003Y0027311D01*
X0054955Y0027353D01*
X0054911Y0027397D01*
X0054869Y0027445D01*
X0054831Y0027494D01*
X0054796Y0027546D01*
X0054764Y0027600D01*
X0054735Y0027656D01*
X0054710Y0027714D01*
X0054689Y0027773D01*
X0054671Y0027833D01*
X0054658Y0027895D01*
X0054648Y0027957D01*
X0054642Y0028019D01*
X0054640Y0028082D01*
X0066200Y0021000D02*
X0066202Y0021138D01*
X0066208Y0021277D01*
X0066218Y0021415D01*
X0066232Y0021552D01*
X0066250Y0021689D01*
X0066272Y0021826D01*
X0066297Y0021962D01*
X0066327Y0022097D01*
X0066361Y0022231D01*
X0066398Y0022364D01*
X0066439Y0022496D01*
X0066484Y0022627D01*
X0066533Y0022757D01*
X0066585Y0022885D01*
X0066642Y0023011D01*
X0066701Y0023136D01*
X0066765Y0023259D01*
X0066832Y0023380D01*
X0066902Y0023499D01*
X0066976Y0023616D01*
X0067053Y0023731D01*
X0067133Y0023844D01*
X0067217Y0023954D01*
X0067303Y0024062D01*
X0067393Y0024167D01*
X0067486Y0024270D01*
X0067582Y0024370D01*
X0067680Y0024467D01*
X0067781Y0024561D01*
X0067885Y0024652D01*
X0067992Y0024740D01*
X0068101Y0024826D01*
X0068212Y0024908D01*
X0068326Y0024986D01*
X0068442Y0025062D01*
X0068560Y0025134D01*
X0068680Y0025202D01*
X0068802Y0025267D01*
X0068926Y0025329D01*
X0069052Y0025387D01*
X0069179Y0025441D01*
X0069308Y0025492D01*
X0069438Y0025539D01*
X0069569Y0025582D01*
X0069702Y0025621D01*
X0069836Y0025657D01*
X0069970Y0025688D01*
X0070106Y0025716D01*
X0070242Y0025740D01*
X0070379Y0025760D01*
X0070517Y0025776D01*
X0070654Y0025788D01*
X0070793Y0025796D01*
X0070931Y0025800D01*
X0071069Y0025800D01*
X0071207Y0025796D01*
X0071346Y0025788D01*
X0071483Y0025776D01*
X0071621Y0025760D01*
X0071758Y0025740D01*
X0071894Y0025716D01*
X0072030Y0025688D01*
X0072164Y0025657D01*
X0072298Y0025621D01*
X0072431Y0025582D01*
X0072562Y0025539D01*
X0072692Y0025492D01*
X0072821Y0025441D01*
X0072948Y0025387D01*
X0073074Y0025329D01*
X0073198Y0025267D01*
X0073320Y0025202D01*
X0073440Y0025134D01*
X0073558Y0025062D01*
X0073674Y0024986D01*
X0073788Y0024908D01*
X0073899Y0024826D01*
X0074008Y0024740D01*
X0074115Y0024652D01*
X0074219Y0024561D01*
X0074320Y0024467D01*
X0074418Y0024370D01*
X0074514Y0024270D01*
X0074607Y0024167D01*
X0074697Y0024062D01*
X0074783Y0023954D01*
X0074867Y0023844D01*
X0074947Y0023731D01*
X0075024Y0023616D01*
X0075098Y0023499D01*
X0075168Y0023380D01*
X0075235Y0023259D01*
X0075299Y0023136D01*
X0075358Y0023011D01*
X0075415Y0022885D01*
X0075467Y0022757D01*
X0075516Y0022627D01*
X0075561Y0022496D01*
X0075602Y0022364D01*
X0075639Y0022231D01*
X0075673Y0022097D01*
X0075703Y0021962D01*
X0075728Y0021826D01*
X0075750Y0021689D01*
X0075768Y0021552D01*
X0075782Y0021415D01*
X0075792Y0021277D01*
X0075798Y0021138D01*
X0075800Y0021000D01*
X0075798Y0020862D01*
X0075792Y0020723D01*
X0075782Y0020585D01*
X0075768Y0020448D01*
X0075750Y0020311D01*
X0075728Y0020174D01*
X0075703Y0020038D01*
X0075673Y0019903D01*
X0075639Y0019769D01*
X0075602Y0019636D01*
X0075561Y0019504D01*
X0075516Y0019373D01*
X0075467Y0019243D01*
X0075415Y0019115D01*
X0075358Y0018989D01*
X0075299Y0018864D01*
X0075235Y0018741D01*
X0075168Y0018620D01*
X0075098Y0018501D01*
X0075024Y0018384D01*
X0074947Y0018269D01*
X0074867Y0018156D01*
X0074783Y0018046D01*
X0074697Y0017938D01*
X0074607Y0017833D01*
X0074514Y0017730D01*
X0074418Y0017630D01*
X0074320Y0017533D01*
X0074219Y0017439D01*
X0074115Y0017348D01*
X0074008Y0017260D01*
X0073899Y0017174D01*
X0073788Y0017092D01*
X0073674Y0017014D01*
X0073558Y0016938D01*
X0073440Y0016866D01*
X0073320Y0016798D01*
X0073198Y0016733D01*
X0073074Y0016671D01*
X0072948Y0016613D01*
X0072821Y0016559D01*
X0072692Y0016508D01*
X0072562Y0016461D01*
X0072431Y0016418D01*
X0072298Y0016379D01*
X0072164Y0016343D01*
X0072030Y0016312D01*
X0071894Y0016284D01*
X0071758Y0016260D01*
X0071621Y0016240D01*
X0071483Y0016224D01*
X0071346Y0016212D01*
X0071207Y0016204D01*
X0071069Y0016200D01*
X0070931Y0016200D01*
X0070793Y0016204D01*
X0070654Y0016212D01*
X0070517Y0016224D01*
X0070379Y0016240D01*
X0070242Y0016260D01*
X0070106Y0016284D01*
X0069970Y0016312D01*
X0069836Y0016343D01*
X0069702Y0016379D01*
X0069569Y0016418D01*
X0069438Y0016461D01*
X0069308Y0016508D01*
X0069179Y0016559D01*
X0069052Y0016613D01*
X0068926Y0016671D01*
X0068802Y0016733D01*
X0068680Y0016798D01*
X0068560Y0016866D01*
X0068442Y0016938D01*
X0068326Y0017014D01*
X0068212Y0017092D01*
X0068101Y0017174D01*
X0067992Y0017260D01*
X0067885Y0017348D01*
X0067781Y0017439D01*
X0067680Y0017533D01*
X0067582Y0017630D01*
X0067486Y0017730D01*
X0067393Y0017833D01*
X0067303Y0017938D01*
X0067217Y0018046D01*
X0067133Y0018156D01*
X0067053Y0018269D01*
X0066976Y0018384D01*
X0066902Y0018501D01*
X0066832Y0018620D01*
X0066765Y0018741D01*
X0066701Y0018864D01*
X0066642Y0018989D01*
X0066585Y0019115D01*
X0066533Y0019243D01*
X0066484Y0019373D01*
X0066439Y0019504D01*
X0066398Y0019636D01*
X0066361Y0019769D01*
X0066327Y0019903D01*
X0066297Y0020038D01*
X0066272Y0020174D01*
X0066250Y0020311D01*
X0066232Y0020448D01*
X0066218Y0020585D01*
X0066208Y0020723D01*
X0066202Y0020862D01*
X0066200Y0021000D01*
X0014250Y0018856D02*
X0014250Y0015854D01*
X0014250Y0017355D02*
X0009746Y0017355D01*
X0011247Y0015854D01*
X0010497Y0014253D02*
X0011998Y0014253D01*
X0012749Y0013502D01*
X0012749Y0011250D01*
X0014250Y0011250D02*
X0009746Y0011250D01*
X0009746Y0013502D01*
X0010497Y0014253D01*
X0012749Y0012751D02*
X0014250Y0014253D01*
X0055750Y0048500D02*
X0055750Y0050750D01*
X0053000Y0051000D02*
X0053002Y0051103D01*
X0053008Y0051206D01*
X0053017Y0051308D01*
X0053031Y0051410D01*
X0053048Y0051511D01*
X0053069Y0051612D01*
X0053094Y0051712D01*
X0053122Y0051811D01*
X0053154Y0051908D01*
X0053190Y0052005D01*
X0053229Y0052100D01*
X0053272Y0052193D01*
X0053319Y0052285D01*
X0053368Y0052375D01*
X0053422Y0052463D01*
X0053478Y0052549D01*
X0053537Y0052633D01*
X0053600Y0052715D01*
X0053666Y0052794D01*
X0053734Y0052870D01*
X0053805Y0052945D01*
X0053880Y0053016D01*
X0053956Y0053084D01*
X0054035Y0053150D01*
X0054117Y0053213D01*
X0054201Y0053272D01*
X0054287Y0053328D01*
X0054375Y0053382D01*
X0054465Y0053431D01*
X0054557Y0053478D01*
X0054650Y0053521D01*
X0054745Y0053560D01*
X0054842Y0053596D01*
X0054939Y0053628D01*
X0055038Y0053656D01*
X0055138Y0053681D01*
X0055239Y0053702D01*
X0055340Y0053719D01*
X0055442Y0053733D01*
X0055544Y0053742D01*
X0055647Y0053748D01*
X0055750Y0053750D01*
X0055845Y0053733D01*
X0055940Y0053712D01*
X0056033Y0053687D01*
X0056126Y0053659D01*
X0056217Y0053627D01*
X0056307Y0053591D01*
X0056396Y0053552D01*
X0056483Y0053509D01*
X0056568Y0053462D01*
X0056651Y0053413D01*
X0056732Y0053360D01*
X0056811Y0053303D01*
X0056887Y0053244D01*
X0056961Y0053182D01*
X0057032Y0053116D01*
X0057101Y0053048D01*
X0057167Y0052977D01*
X0057230Y0052904D01*
X0057290Y0052828D01*
X0057347Y0052750D01*
X0057401Y0052669D01*
X0057451Y0052586D01*
X0057499Y0052502D01*
X0057542Y0052415D01*
X0057582Y0052327D01*
X0057619Y0052238D01*
X0057652Y0052147D01*
X0057681Y0052054D01*
X0057707Y0051961D01*
X0057728Y0051866D01*
X0057746Y0051771D01*
X0057760Y0051676D01*
X0057770Y0051579D01*
X0057777Y0051483D01*
X0057779Y0051386D01*
X0057777Y0051289D01*
X0057772Y0051192D01*
X0057763Y0051096D01*
X0057750Y0051000D01*
X0061000Y0051000D01*
X0055750Y0048500D02*
X0055649Y0048497D01*
X0055549Y0048498D01*
X0055448Y0048503D01*
X0055348Y0048512D01*
X0055248Y0048524D01*
X0055149Y0048541D01*
X0055050Y0048561D01*
X0054952Y0048585D01*
X0054855Y0048612D01*
X0054760Y0048644D01*
X0054665Y0048679D01*
X0054572Y0048717D01*
X0054481Y0048759D01*
X0054391Y0048805D01*
X0054303Y0048854D01*
X0054217Y0048906D01*
X0054133Y0048962D01*
X0054051Y0049020D01*
X0053972Y0049082D01*
X0053895Y0049147D01*
X0053820Y0049215D01*
X0053748Y0049285D01*
X0053679Y0049358D01*
X0053613Y0049434D01*
X0053550Y0049513D01*
X0053490Y0049593D01*
X0053432Y0049676D01*
X0053379Y0049761D01*
X0053328Y0049848D01*
X0053281Y0049937D01*
X0053237Y0050028D01*
X0053197Y0050120D01*
X0053160Y0050214D01*
X0053127Y0050309D01*
X0053098Y0050405D01*
X0053072Y0050503D01*
X0053050Y0050601D01*
X0053032Y0050700D01*
X0053017Y0050799D01*
X0053007Y0050900D01*
X0053000Y0051000D01*
X0050500Y0051000D02*
X0050512Y0050897D01*
X0050527Y0050795D01*
X0050546Y0050694D01*
X0050568Y0050593D01*
X0050595Y0050493D01*
X0050625Y0050394D01*
X0050659Y0050297D01*
X0050696Y0050201D01*
X0050737Y0050106D01*
X0050782Y0050013D01*
X0050830Y0049921D01*
X0050881Y0049832D01*
X0050936Y0049744D01*
X0050994Y0049659D01*
X0051055Y0049575D01*
X0051119Y0049495D01*
X0051186Y0049416D01*
X0051256Y0049340D01*
X0051329Y0049267D01*
X0051404Y0049197D01*
X0051482Y0049129D01*
X0051563Y0049064D01*
X0051646Y0049003D01*
X0051731Y0048944D01*
X0051818Y0048889D01*
X0051908Y0048837D01*
X0051999Y0048789D01*
X0052092Y0048744D01*
X0052186Y0048702D01*
X0052282Y0048664D01*
X0052380Y0048630D01*
X0052478Y0048599D01*
X0052578Y0048572D01*
X0052678Y0048549D01*
X0052780Y0048529D01*
X0052882Y0048514D01*
X0052984Y0048502D01*
X0053087Y0048494D01*
X0053191Y0048490D01*
X0053294Y0048489D01*
X0053397Y0048493D01*
X0053500Y0048500D01*
X0050500Y0051000D02*
X0050506Y0051105D01*
X0050517Y0051210D01*
X0050531Y0051314D01*
X0050549Y0051417D01*
X0050570Y0051520D01*
X0050596Y0051622D01*
X0050625Y0051723D01*
X0050658Y0051823D01*
X0050694Y0051922D01*
X0050734Y0052019D01*
X0050778Y0052115D01*
X0050825Y0052209D01*
X0050875Y0052301D01*
X0050929Y0052391D01*
X0050986Y0052480D01*
X0051046Y0052566D01*
X0051109Y0052650D01*
X0051176Y0052731D01*
X0051245Y0052810D01*
X0051317Y0052887D01*
X0051392Y0052961D01*
X0051469Y0053032D01*
X0051549Y0053100D01*
X0051632Y0053165D01*
X0051717Y0053227D01*
X0051804Y0053286D01*
X0051893Y0053342D01*
X0051984Y0053394D01*
X0052077Y0053444D01*
X0052171Y0053489D01*
X0052268Y0053531D01*
X0052366Y0053570D01*
X0052465Y0053605D01*
X0052565Y0053637D01*
X0052666Y0053664D01*
X0052769Y0053688D01*
X0052872Y0053709D01*
X0052976Y0053725D01*
X0053080Y0053738D01*
X0053185Y0053747D01*
X0053290Y0053752D01*
X0053395Y0053753D01*
X0053500Y0053750D01*
X0051250Y0048500D02*
X0051147Y0048493D01*
X0051044Y0048489D01*
X0050941Y0048490D01*
X0050837Y0048494D01*
X0050734Y0048502D01*
X0050632Y0048514D01*
X0050530Y0048529D01*
X0050428Y0048549D01*
X0050328Y0048572D01*
X0050228Y0048599D01*
X0050130Y0048630D01*
X0050032Y0048664D01*
X0049936Y0048702D01*
X0049842Y0048744D01*
X0049749Y0048789D01*
X0049658Y0048837D01*
X0049568Y0048889D01*
X0049481Y0048944D01*
X0049396Y0049003D01*
X0049313Y0049064D01*
X0049232Y0049129D01*
X0049154Y0049197D01*
X0049079Y0049267D01*
X0049006Y0049340D01*
X0048936Y0049416D01*
X0048869Y0049495D01*
X0048805Y0049575D01*
X0048744Y0049659D01*
X0048686Y0049744D01*
X0048631Y0049832D01*
X0048580Y0049921D01*
X0048532Y0050013D01*
X0048487Y0050106D01*
X0048446Y0050201D01*
X0048409Y0050297D01*
X0048375Y0050394D01*
X0048345Y0050493D01*
X0048318Y0050593D01*
X0048296Y0050694D01*
X0048277Y0050795D01*
X0048262Y0050897D01*
X0048250Y0051000D01*
X0045500Y0051000D02*
X0045506Y0051105D01*
X0045517Y0051210D01*
X0045531Y0051314D01*
X0045549Y0051417D01*
X0045570Y0051520D01*
X0045596Y0051622D01*
X0045625Y0051723D01*
X0045658Y0051823D01*
X0045694Y0051922D01*
X0045734Y0052019D01*
X0045778Y0052115D01*
X0045825Y0052209D01*
X0045875Y0052301D01*
X0045929Y0052391D01*
X0045986Y0052480D01*
X0046046Y0052566D01*
X0046109Y0052650D01*
X0046176Y0052731D01*
X0046245Y0052810D01*
X0046317Y0052887D01*
X0046392Y0052961D01*
X0046469Y0053032D01*
X0046549Y0053100D01*
X0046632Y0053165D01*
X0046717Y0053227D01*
X0046804Y0053286D01*
X0046893Y0053342D01*
X0046984Y0053394D01*
X0047077Y0053444D01*
X0047171Y0053489D01*
X0047268Y0053531D01*
X0047366Y0053570D01*
X0047465Y0053605D01*
X0047565Y0053637D01*
X0047666Y0053664D01*
X0047769Y0053688D01*
X0047872Y0053709D01*
X0047976Y0053725D01*
X0048080Y0053738D01*
X0048185Y0053747D01*
X0048290Y0053752D01*
X0048395Y0053753D01*
X0048500Y0053750D01*
X0045500Y0051000D02*
X0045512Y0050897D01*
X0045527Y0050795D01*
X0045546Y0050694D01*
X0045568Y0050593D01*
X0045595Y0050493D01*
X0045625Y0050394D01*
X0045659Y0050297D01*
X0045696Y0050201D01*
X0045737Y0050106D01*
X0045782Y0050013D01*
X0045830Y0049921D01*
X0045881Y0049832D01*
X0045936Y0049744D01*
X0045994Y0049659D01*
X0046055Y0049575D01*
X0046119Y0049495D01*
X0046186Y0049416D01*
X0046256Y0049340D01*
X0046329Y0049267D01*
X0046404Y0049197D01*
X0046482Y0049129D01*
X0046563Y0049064D01*
X0046646Y0049003D01*
X0046731Y0048944D01*
X0046818Y0048889D01*
X0046908Y0048837D01*
X0046999Y0048789D01*
X0047092Y0048744D01*
X0047186Y0048702D01*
X0047282Y0048664D01*
X0047380Y0048630D01*
X0047478Y0048599D01*
X0047578Y0048572D01*
X0047678Y0048549D01*
X0047780Y0048529D01*
X0047882Y0048514D01*
X0047984Y0048502D01*
X0048087Y0048494D01*
X0048191Y0048490D01*
X0048294Y0048489D01*
X0048397Y0048493D01*
X0048500Y0048500D01*
X0046000Y0053750D02*
X0045897Y0053748D01*
X0045794Y0053742D01*
X0045692Y0053733D01*
X0045590Y0053719D01*
X0045489Y0053702D01*
X0045388Y0053681D01*
X0045288Y0053656D01*
X0045189Y0053628D01*
X0045092Y0053596D01*
X0044995Y0053560D01*
X0044900Y0053521D01*
X0044807Y0053478D01*
X0044715Y0053431D01*
X0044625Y0053382D01*
X0044537Y0053328D01*
X0044451Y0053272D01*
X0044367Y0053213D01*
X0044285Y0053150D01*
X0044206Y0053084D01*
X0044130Y0053016D01*
X0044055Y0052945D01*
X0043984Y0052870D01*
X0043916Y0052794D01*
X0043850Y0052715D01*
X0043787Y0052633D01*
X0043728Y0052549D01*
X0043672Y0052463D01*
X0043618Y0052375D01*
X0043569Y0052285D01*
X0043522Y0052193D01*
X0043479Y0052100D01*
X0043440Y0052005D01*
X0043404Y0051908D01*
X0043372Y0051811D01*
X0043344Y0051712D01*
X0043319Y0051612D01*
X0043298Y0051511D01*
X0043281Y0051410D01*
X0043267Y0051308D01*
X0043258Y0051206D01*
X0043252Y0051103D01*
X0043250Y0051000D01*
X0040500Y0051000D02*
X0040506Y0051105D01*
X0040517Y0051210D01*
X0040531Y0051314D01*
X0040549Y0051417D01*
X0040570Y0051520D01*
X0040596Y0051622D01*
X0040625Y0051723D01*
X0040658Y0051823D01*
X0040694Y0051922D01*
X0040734Y0052019D01*
X0040778Y0052115D01*
X0040825Y0052209D01*
X0040875Y0052301D01*
X0040929Y0052391D01*
X0040986Y0052480D01*
X0041046Y0052566D01*
X0041109Y0052650D01*
X0041176Y0052731D01*
X0041245Y0052810D01*
X0041317Y0052887D01*
X0041392Y0052961D01*
X0041469Y0053032D01*
X0041549Y0053100D01*
X0041632Y0053165D01*
X0041717Y0053227D01*
X0041804Y0053286D01*
X0041893Y0053342D01*
X0041984Y0053394D01*
X0042077Y0053444D01*
X0042171Y0053489D01*
X0042268Y0053531D01*
X0042366Y0053570D01*
X0042465Y0053605D01*
X0042565Y0053637D01*
X0042666Y0053664D01*
X0042769Y0053688D01*
X0042872Y0053709D01*
X0042976Y0053725D01*
X0043080Y0053738D01*
X0043185Y0053747D01*
X0043290Y0053752D01*
X0043395Y0053753D01*
X0043500Y0053750D01*
X0041000Y0053750D02*
X0041000Y0061000D01*
X0038250Y0051000D02*
X0038262Y0050897D01*
X0038277Y0050795D01*
X0038296Y0050694D01*
X0038318Y0050593D01*
X0038345Y0050493D01*
X0038375Y0050394D01*
X0038409Y0050297D01*
X0038446Y0050201D01*
X0038487Y0050106D01*
X0038532Y0050013D01*
X0038580Y0049921D01*
X0038631Y0049832D01*
X0038686Y0049744D01*
X0038744Y0049659D01*
X0038805Y0049575D01*
X0038869Y0049495D01*
X0038936Y0049416D01*
X0039006Y0049340D01*
X0039079Y0049267D01*
X0039154Y0049197D01*
X0039232Y0049129D01*
X0039313Y0049064D01*
X0039396Y0049003D01*
X0039481Y0048944D01*
X0039568Y0048889D01*
X0039658Y0048837D01*
X0039749Y0048789D01*
X0039842Y0048744D01*
X0039936Y0048702D01*
X0040032Y0048664D01*
X0040130Y0048630D01*
X0040228Y0048599D01*
X0040328Y0048572D01*
X0040428Y0048549D01*
X0040530Y0048529D01*
X0040632Y0048514D01*
X0040734Y0048502D01*
X0040837Y0048494D01*
X0040941Y0048490D01*
X0041044Y0048489D01*
X0041147Y0048493D01*
X0041250Y0048500D01*
X0038250Y0051000D02*
X0038252Y0051103D01*
X0038258Y0051206D01*
X0038267Y0051308D01*
X0038281Y0051410D01*
X0038298Y0051511D01*
X0038319Y0051612D01*
X0038344Y0051712D01*
X0038372Y0051811D01*
X0038404Y0051908D01*
X0038440Y0052005D01*
X0038479Y0052100D01*
X0038522Y0052193D01*
X0038569Y0052285D01*
X0038618Y0052375D01*
X0038672Y0052463D01*
X0038728Y0052549D01*
X0038787Y0052633D01*
X0038850Y0052715D01*
X0038916Y0052794D01*
X0038984Y0052870D01*
X0039055Y0052945D01*
X0039130Y0053016D01*
X0039206Y0053084D01*
X0039285Y0053150D01*
X0039367Y0053213D01*
X0039451Y0053272D01*
X0039537Y0053328D01*
X0039625Y0053382D01*
X0039715Y0053431D01*
X0039807Y0053478D01*
X0039900Y0053521D01*
X0039995Y0053560D01*
X0040092Y0053596D01*
X0040189Y0053628D01*
X0040288Y0053656D01*
X0040388Y0053681D01*
X0040489Y0053702D01*
X0040590Y0053719D01*
X0040692Y0053733D01*
X0040794Y0053742D01*
X0040897Y0053748D01*
X0041000Y0053750D01*
X0040500Y0051000D02*
X0040512Y0050897D01*
X0040527Y0050795D01*
X0040546Y0050694D01*
X0040568Y0050593D01*
X0040595Y0050493D01*
X0040625Y0050394D01*
X0040659Y0050297D01*
X0040696Y0050201D01*
X0040737Y0050106D01*
X0040782Y0050013D01*
X0040830Y0049921D01*
X0040881Y0049832D01*
X0040936Y0049744D01*
X0040994Y0049659D01*
X0041055Y0049575D01*
X0041119Y0049495D01*
X0041186Y0049416D01*
X0041256Y0049340D01*
X0041329Y0049267D01*
X0041404Y0049197D01*
X0041482Y0049129D01*
X0041563Y0049064D01*
X0041646Y0049003D01*
X0041731Y0048944D01*
X0041818Y0048889D01*
X0041908Y0048837D01*
X0041999Y0048789D01*
X0042092Y0048744D01*
X0042186Y0048702D01*
X0042282Y0048664D01*
X0042380Y0048630D01*
X0042478Y0048599D01*
X0042578Y0048572D01*
X0042678Y0048549D01*
X0042780Y0048529D01*
X0042882Y0048514D01*
X0042984Y0048502D01*
X0043087Y0048494D01*
X0043191Y0048490D01*
X0043294Y0048489D01*
X0043397Y0048493D01*
X0043500Y0048500D01*
X0043250Y0051000D02*
X0043262Y0050897D01*
X0043277Y0050795D01*
X0043296Y0050694D01*
X0043318Y0050593D01*
X0043345Y0050493D01*
X0043375Y0050394D01*
X0043409Y0050297D01*
X0043446Y0050201D01*
X0043487Y0050106D01*
X0043532Y0050013D01*
X0043580Y0049921D01*
X0043631Y0049832D01*
X0043686Y0049744D01*
X0043744Y0049659D01*
X0043805Y0049575D01*
X0043869Y0049495D01*
X0043936Y0049416D01*
X0044006Y0049340D01*
X0044079Y0049267D01*
X0044154Y0049197D01*
X0044232Y0049129D01*
X0044313Y0049064D01*
X0044396Y0049003D01*
X0044481Y0048944D01*
X0044568Y0048889D01*
X0044658Y0048837D01*
X0044749Y0048789D01*
X0044842Y0048744D01*
X0044936Y0048702D01*
X0045032Y0048664D01*
X0045130Y0048630D01*
X0045228Y0048599D01*
X0045328Y0048572D01*
X0045428Y0048549D01*
X0045530Y0048529D01*
X0045632Y0048514D01*
X0045734Y0048502D01*
X0045837Y0048494D01*
X0045941Y0048490D01*
X0046044Y0048489D01*
X0046147Y0048493D01*
X0046250Y0048500D01*
X0048250Y0051000D02*
X0048252Y0051103D01*
X0048258Y0051206D01*
X0048267Y0051308D01*
X0048281Y0051410D01*
X0048298Y0051511D01*
X0048319Y0051612D01*
X0048344Y0051712D01*
X0048372Y0051811D01*
X0048404Y0051908D01*
X0048440Y0052005D01*
X0048479Y0052100D01*
X0048522Y0052193D01*
X0048569Y0052285D01*
X0048618Y0052375D01*
X0048672Y0052463D01*
X0048728Y0052549D01*
X0048787Y0052633D01*
X0048850Y0052715D01*
X0048916Y0052794D01*
X0048984Y0052870D01*
X0049055Y0052945D01*
X0049130Y0053016D01*
X0049206Y0053084D01*
X0049285Y0053150D01*
X0049367Y0053213D01*
X0049451Y0053272D01*
X0049537Y0053328D01*
X0049625Y0053382D01*
X0049715Y0053431D01*
X0049807Y0053478D01*
X0049900Y0053521D01*
X0049995Y0053560D01*
X0050092Y0053596D01*
X0050189Y0053628D01*
X0050288Y0053656D01*
X0050388Y0053681D01*
X0050489Y0053702D01*
X0050590Y0053719D01*
X0050692Y0053733D01*
X0050794Y0053742D01*
X0050897Y0053748D01*
X0051000Y0053750D01*
X0038750Y0053750D02*
X0038647Y0053748D01*
X0038544Y0053742D01*
X0038442Y0053733D01*
X0038340Y0053719D01*
X0038239Y0053702D01*
X0038138Y0053681D01*
X0038038Y0053656D01*
X0037939Y0053628D01*
X0037842Y0053596D01*
X0037745Y0053560D01*
X0037650Y0053521D01*
X0037557Y0053478D01*
X0037465Y0053431D01*
X0037375Y0053382D01*
X0037287Y0053328D01*
X0037201Y0053272D01*
X0037117Y0053213D01*
X0037035Y0053150D01*
X0036956Y0053084D01*
X0036880Y0053016D01*
X0036805Y0052945D01*
X0036734Y0052870D01*
X0036666Y0052794D01*
X0036600Y0052715D01*
X0036537Y0052633D01*
X0036478Y0052549D01*
X0036422Y0052463D01*
X0036368Y0052375D01*
X0036319Y0052285D01*
X0036272Y0052193D01*
X0036229Y0052100D01*
X0036190Y0052005D01*
X0036154Y0051908D01*
X0036122Y0051811D01*
X0036094Y0051712D01*
X0036069Y0051612D01*
X0036048Y0051511D01*
X0036031Y0051410D01*
X0036017Y0051308D01*
X0036008Y0051206D01*
X0036002Y0051103D01*
X0036000Y0051000D01*
X0031000Y0051000D01*
X0036000Y0051000D02*
X0036007Y0050900D01*
X0036017Y0050799D01*
X0036032Y0050700D01*
X0036050Y0050601D01*
X0036072Y0050503D01*
X0036098Y0050405D01*
X0036127Y0050309D01*
X0036160Y0050214D01*
X0036197Y0050120D01*
X0036237Y0050028D01*
X0036281Y0049937D01*
X0036328Y0049848D01*
X0036379Y0049761D01*
X0036432Y0049676D01*
X0036490Y0049593D01*
X0036550Y0049513D01*
X0036613Y0049434D01*
X0036679Y0049358D01*
X0036748Y0049285D01*
X0036820Y0049215D01*
X0036895Y0049147D01*
X0036972Y0049082D01*
X0037051Y0049020D01*
X0037133Y0048962D01*
X0037217Y0048906D01*
X0037303Y0048854D01*
X0037391Y0048805D01*
X0037481Y0048759D01*
X0037572Y0048717D01*
X0037665Y0048679D01*
X0037760Y0048644D01*
X0037855Y0048612D01*
X0037952Y0048585D01*
X0038050Y0048561D01*
X0038149Y0048541D01*
X0038248Y0048524D01*
X0038348Y0048512D01*
X0038448Y0048503D01*
X0038549Y0048498D01*
X0038649Y0048497D01*
X0038750Y0048500D01*
X0070512Y0051500D02*
X0091488Y0051500D01*
X0090502Y0055472D02*
X0090398Y0055687D01*
X0090289Y0055900D01*
X0090175Y0056110D01*
X0090056Y0056317D01*
X0089933Y0056522D01*
X0089805Y0056724D01*
X0089672Y0056923D01*
X0089535Y0057118D01*
X0089394Y0057311D01*
X0089248Y0057500D01*
X0072752Y0057500D01*
X0077500Y0058500D02*
X0084500Y0058500D01*
X0084598Y0058502D01*
X0084696Y0058508D01*
X0084794Y0058517D01*
X0084891Y0058531D01*
X0084988Y0058548D01*
X0085084Y0058569D01*
X0085179Y0058594D01*
X0085273Y0058622D01*
X0085365Y0058655D01*
X0085457Y0058690D01*
X0085547Y0058730D01*
X0085635Y0058772D01*
X0085722Y0058819D01*
X0085806Y0058868D01*
X0085889Y0058921D01*
X0085969Y0058977D01*
X0086048Y0059037D01*
X0086124Y0059099D01*
X0086197Y0059164D01*
X0086268Y0059232D01*
X0086336Y0059303D01*
X0086401Y0059376D01*
X0086463Y0059452D01*
X0086523Y0059531D01*
X0086579Y0059611D01*
X0086632Y0059694D01*
X0086681Y0059778D01*
X0086728Y0059865D01*
X0086770Y0059953D01*
X0086810Y0060043D01*
X0086845Y0060135D01*
X0086878Y0060227D01*
X0086906Y0060321D01*
X0086931Y0060416D01*
X0086952Y0060512D01*
X0086969Y0060609D01*
X0086983Y0060706D01*
X0086992Y0060804D01*
X0086998Y0060902D01*
X0087000Y0061000D01*
X0086998Y0061098D01*
X0086992Y0061196D01*
X0086983Y0061294D01*
X0086969Y0061391D01*
X0086952Y0061488D01*
X0086931Y0061584D01*
X0086906Y0061679D01*
X0086878Y0061773D01*
X0086845Y0061865D01*
X0086810Y0061957D01*
X0086770Y0062047D01*
X0086728Y0062135D01*
X0086681Y0062222D01*
X0086632Y0062306D01*
X0086579Y0062389D01*
X0086523Y0062469D01*
X0086463Y0062548D01*
X0086401Y0062624D01*
X0086336Y0062697D01*
X0086268Y0062768D01*
X0086197Y0062836D01*
X0086124Y0062901D01*
X0086048Y0062963D01*
X0085969Y0063023D01*
X0085889Y0063079D01*
X0085806Y0063132D01*
X0085722Y0063181D01*
X0085635Y0063228D01*
X0085547Y0063270D01*
X0085457Y0063310D01*
X0085365Y0063345D01*
X0085273Y0063378D01*
X0085179Y0063406D01*
X0085084Y0063431D01*
X0084988Y0063452D01*
X0084891Y0063469D01*
X0084794Y0063483D01*
X0084696Y0063492D01*
X0084598Y0063498D01*
X0084500Y0063500D01*
X0077500Y0063500D01*
X0077402Y0063498D01*
X0077304Y0063492D01*
X0077206Y0063483D01*
X0077109Y0063469D01*
X0077012Y0063452D01*
X0076916Y0063431D01*
X0076821Y0063406D01*
X0076727Y0063378D01*
X0076635Y0063345D01*
X0076543Y0063310D01*
X0076453Y0063270D01*
X0076365Y0063228D01*
X0076278Y0063181D01*
X0076194Y0063132D01*
X0076111Y0063079D01*
X0076031Y0063023D01*
X0075952Y0062963D01*
X0075876Y0062901D01*
X0075803Y0062836D01*
X0075732Y0062768D01*
X0075664Y0062697D01*
X0075599Y0062624D01*
X0075537Y0062548D01*
X0075477Y0062469D01*
X0075421Y0062389D01*
X0075368Y0062306D01*
X0075319Y0062222D01*
X0075272Y0062135D01*
X0075230Y0062047D01*
X0075190Y0061957D01*
X0075155Y0061865D01*
X0075122Y0061773D01*
X0075094Y0061679D01*
X0075069Y0061584D01*
X0075048Y0061488D01*
X0075031Y0061391D01*
X0075017Y0061294D01*
X0075008Y0061196D01*
X0075002Y0061098D01*
X0075000Y0061000D01*
X0075002Y0060902D01*
X0075008Y0060804D01*
X0075017Y0060706D01*
X0075031Y0060609D01*
X0075048Y0060512D01*
X0075069Y0060416D01*
X0075094Y0060321D01*
X0075122Y0060227D01*
X0075155Y0060135D01*
X0075190Y0060043D01*
X0075230Y0059953D01*
X0075272Y0059865D01*
X0075319Y0059778D01*
X0075368Y0059694D01*
X0075421Y0059611D01*
X0075477Y0059531D01*
X0075537Y0059452D01*
X0075599Y0059376D01*
X0075664Y0059303D01*
X0075732Y0059232D01*
X0075803Y0059164D01*
X0075876Y0059099D01*
X0075952Y0059037D01*
X0076031Y0058977D01*
X0076111Y0058921D01*
X0076194Y0058868D01*
X0076278Y0058819D01*
X0076365Y0058772D01*
X0076453Y0058730D01*
X0076543Y0058690D01*
X0076635Y0058655D01*
X0076727Y0058622D01*
X0076821Y0058594D01*
X0076916Y0058569D01*
X0077012Y0058548D01*
X0077109Y0058531D01*
X0077206Y0058517D01*
X0077304Y0058508D01*
X0077402Y0058502D01*
X0077500Y0058500D01*
X0075000Y0061000D02*
X0075002Y0061098D01*
X0075008Y0061196D01*
X0075017Y0061294D01*
X0075031Y0061391D01*
X0075048Y0061488D01*
X0075069Y0061584D01*
X0075094Y0061679D01*
X0075122Y0061773D01*
X0075155Y0061865D01*
X0075190Y0061957D01*
X0075230Y0062047D01*
X0075272Y0062135D01*
X0075319Y0062222D01*
X0075368Y0062306D01*
X0075421Y0062389D01*
X0075477Y0062469D01*
X0075537Y0062548D01*
X0075599Y0062624D01*
X0075664Y0062697D01*
X0075732Y0062768D01*
X0075803Y0062836D01*
X0075876Y0062901D01*
X0075952Y0062963D01*
X0076031Y0063023D01*
X0076111Y0063079D01*
X0076194Y0063132D01*
X0076278Y0063181D01*
X0076365Y0063228D01*
X0076453Y0063270D01*
X0076543Y0063310D01*
X0076635Y0063345D01*
X0076727Y0063378D01*
X0076821Y0063406D01*
X0076916Y0063431D01*
X0077012Y0063452D01*
X0077109Y0063469D01*
X0077206Y0063483D01*
X0077304Y0063492D01*
X0077402Y0063498D01*
X0077500Y0063500D01*
X0070512Y0051500D02*
X0070503Y0051244D01*
X0070500Y0050988D01*
X0070503Y0050732D01*
X0070513Y0050476D01*
X0070529Y0050221D01*
X0070551Y0049966D01*
X0070579Y0049711D01*
X0070614Y0049458D01*
X0070655Y0049205D01*
X0070701Y0048953D01*
X0070754Y0048703D01*
X0070813Y0048454D01*
X0070879Y0048206D01*
X0070950Y0047960D01*
X0071027Y0047716D01*
X0071110Y0047474D01*
X0071199Y0047234D01*
X0071293Y0046996D01*
X0071394Y0046761D01*
X0071500Y0046528D01*
X0071454Y0055378D02*
X0071561Y0055603D01*
X0071673Y0055826D01*
X0071790Y0056046D01*
X0071912Y0056263D01*
X0072040Y0056478D01*
X0072173Y0056689D01*
X0072310Y0056897D01*
X0072453Y0057101D01*
X0072600Y0057303D01*
X0072752Y0057500D01*
X0091488Y0051500D02*
X0091497Y0051244D01*
X0091500Y0050988D01*
X0091497Y0050732D01*
X0091487Y0050476D01*
X0091471Y0050221D01*
X0091449Y0049966D01*
X0091421Y0049711D01*
X0091386Y0049458D01*
X0091345Y0049205D01*
X0091299Y0048953D01*
X0091246Y0048703D01*
X0091187Y0048454D01*
X0091121Y0048206D01*
X0091050Y0047960D01*
X0090973Y0047716D01*
X0090890Y0047474D01*
X0090801Y0047234D01*
X0090707Y0046996D01*
X0090606Y0046761D01*
X0090500Y0046528D01*
X0091488Y0051500D02*
X0091473Y0051757D01*
X0091451Y0052014D01*
X0091423Y0052270D01*
X0091389Y0052525D01*
X0091348Y0052779D01*
X0091301Y0053032D01*
X0091248Y0053284D01*
X0091189Y0053535D01*
X0091124Y0053784D01*
X0091053Y0054031D01*
X0090976Y0054277D01*
X0090892Y0054521D01*
X0090803Y0054762D01*
X0090708Y0055001D01*
X0090607Y0055238D01*
X0090500Y0055472D01*
X0090500Y0046528D02*
X0090388Y0046298D01*
X0090271Y0046071D01*
X0090149Y0045847D01*
X0090021Y0045626D01*
X0089887Y0045409D01*
X0089749Y0045194D01*
X0089605Y0044983D01*
X0089456Y0044776D01*
X0089302Y0044572D01*
X0089144Y0044372D01*
X0088980Y0044176D01*
X0088812Y0043984D01*
X0088639Y0043796D01*
X0088461Y0043612D01*
X0088280Y0043433D01*
X0088093Y0043258D01*
X0087903Y0043088D01*
X0087709Y0042923D01*
X0087510Y0042762D01*
X0087308Y0042606D01*
X0087102Y0042455D01*
X0086892Y0042309D01*
X0086679Y0042169D01*
X0086463Y0042033D01*
X0086243Y0041903D01*
X0086020Y0041778D01*
X0085795Y0041659D01*
X0085566Y0041545D01*
X0085335Y0041437D01*
X0085101Y0041334D01*
X0084865Y0041237D01*
X0084626Y0041146D01*
X0084386Y0041061D01*
X0084143Y0040981D01*
X0083898Y0040908D01*
X0083652Y0040840D01*
X0083404Y0040779D01*
X0083155Y0040724D01*
X0082905Y0040674D01*
X0082653Y0040631D01*
X0082400Y0040594D01*
X0082147Y0040563D01*
X0081893Y0040538D01*
X0081638Y0040519D01*
X0081383Y0040507D01*
X0081128Y0040501D01*
X0080872Y0040501D01*
X0080617Y0040507D01*
X0080362Y0040519D01*
X0080107Y0040538D01*
X0079853Y0040563D01*
X0079600Y0040594D01*
X0079347Y0040631D01*
X0079095Y0040674D01*
X0078845Y0040724D01*
X0078596Y0040779D01*
X0078348Y0040840D01*
X0078102Y0040908D01*
X0077857Y0040981D01*
X0077614Y0041061D01*
X0077374Y0041146D01*
X0077135Y0041237D01*
X0076899Y0041334D01*
X0076665Y0041437D01*
X0076434Y0041545D01*
X0076205Y0041659D01*
X0075980Y0041778D01*
X0075757Y0041903D01*
X0075537Y0042033D01*
X0075321Y0042169D01*
X0075108Y0042309D01*
X0074898Y0042455D01*
X0074692Y0042606D01*
X0074490Y0042762D01*
X0074291Y0042923D01*
X0074097Y0043088D01*
X0073907Y0043258D01*
X0073720Y0043433D01*
X0073539Y0043612D01*
X0073361Y0043796D01*
X0073188Y0043984D01*
X0073020Y0044176D01*
X0072856Y0044372D01*
X0072698Y0044572D01*
X0072544Y0044776D01*
X0072395Y0044983D01*
X0072251Y0045194D01*
X0072113Y0045409D01*
X0071979Y0045626D01*
X0071851Y0045847D01*
X0071729Y0046071D01*
X0071612Y0046298D01*
X0071500Y0046528D01*
X0070512Y0051500D02*
X0070527Y0051757D01*
X0070549Y0052014D01*
X0070577Y0052270D01*
X0070611Y0052525D01*
X0070652Y0052779D01*
X0070699Y0053032D01*
X0070752Y0053284D01*
X0070811Y0053535D01*
X0070876Y0053784D01*
X0070947Y0054031D01*
X0071024Y0054277D01*
X0071108Y0054521D01*
X0071197Y0054762D01*
X0071292Y0055001D01*
X0071393Y0055238D01*
X0071500Y0055472D01*
X0101000Y0061000D02*
X0109000Y0061000D01*
X0114000Y0066000D02*
X0114140Y0065998D01*
X0114280Y0065992D01*
X0114420Y0065982D01*
X0114560Y0065969D01*
X0114699Y0065951D01*
X0114838Y0065929D01*
X0114975Y0065904D01*
X0115113Y0065875D01*
X0115249Y0065842D01*
X0115384Y0065805D01*
X0115518Y0065764D01*
X0115651Y0065719D01*
X0115783Y0065671D01*
X0115913Y0065619D01*
X0116042Y0065564D01*
X0116169Y0065505D01*
X0116295Y0065442D01*
X0116419Y0065376D01*
X0116540Y0065307D01*
X0116660Y0065234D01*
X0116778Y0065157D01*
X0116893Y0065078D01*
X0117007Y0064995D01*
X0117117Y0064909D01*
X0117226Y0064820D01*
X0117332Y0064728D01*
X0117435Y0064633D01*
X0117536Y0064536D01*
X0117633Y0064435D01*
X0117728Y0064332D01*
X0117820Y0064226D01*
X0117909Y0064117D01*
X0117995Y0064007D01*
X0118078Y0063893D01*
X0118157Y0063778D01*
X0118234Y0063660D01*
X0118307Y0063540D01*
X0118376Y0063419D01*
X0118442Y0063295D01*
X0118505Y0063169D01*
X0118564Y0063042D01*
X0118619Y0062913D01*
X0118671Y0062783D01*
X0118719Y0062651D01*
X0118764Y0062518D01*
X0118805Y0062384D01*
X0118842Y0062249D01*
X0118875Y0062113D01*
X0118904Y0061975D01*
X0118929Y0061838D01*
X0118951Y0061699D01*
X0118969Y0061560D01*
X0118982Y0061420D01*
X0118992Y0061280D01*
X0118998Y0061140D01*
X0119000Y0061000D01*
X0124000Y0061000D02*
X0123998Y0061140D01*
X0123992Y0061280D01*
X0123982Y0061420D01*
X0123969Y0061560D01*
X0123951Y0061699D01*
X0123929Y0061838D01*
X0123904Y0061975D01*
X0123875Y0062113D01*
X0123842Y0062249D01*
X0123805Y0062384D01*
X0123764Y0062518D01*
X0123719Y0062651D01*
X0123671Y0062783D01*
X0123619Y0062913D01*
X0123564Y0063042D01*
X0123505Y0063169D01*
X0123442Y0063295D01*
X0123376Y0063419D01*
X0123307Y0063540D01*
X0123234Y0063660D01*
X0123157Y0063778D01*
X0123078Y0063893D01*
X0122995Y0064007D01*
X0122909Y0064117D01*
X0122820Y0064226D01*
X0122728Y0064332D01*
X0122633Y0064435D01*
X0122536Y0064536D01*
X0122435Y0064633D01*
X0122332Y0064728D01*
X0122226Y0064820D01*
X0122117Y0064909D01*
X0122007Y0064995D01*
X0121893Y0065078D01*
X0121778Y0065157D01*
X0121660Y0065234D01*
X0121540Y0065307D01*
X0121419Y0065376D01*
X0121295Y0065442D01*
X0121169Y0065505D01*
X0121042Y0065564D01*
X0120913Y0065619D01*
X0120783Y0065671D01*
X0120651Y0065719D01*
X0120518Y0065764D01*
X0120384Y0065805D01*
X0120249Y0065842D01*
X0120113Y0065875D01*
X0119975Y0065904D01*
X0119838Y0065929D01*
X0119699Y0065951D01*
X0119560Y0065969D01*
X0119420Y0065982D01*
X0119280Y0065992D01*
X0119140Y0065998D01*
X0119000Y0066000D01*
X0114000Y0066000D02*
X0114000Y0061000D01*
X0124000Y0066000D02*
X0124140Y0065998D01*
X0124280Y0065992D01*
X0124420Y0065982D01*
X0124560Y0065969D01*
X0124699Y0065951D01*
X0124838Y0065929D01*
X0124975Y0065904D01*
X0125113Y0065875D01*
X0125249Y0065842D01*
X0125384Y0065805D01*
X0125518Y0065764D01*
X0125651Y0065719D01*
X0125783Y0065671D01*
X0125913Y0065619D01*
X0126042Y0065564D01*
X0126169Y0065505D01*
X0126295Y0065442D01*
X0126419Y0065376D01*
X0126540Y0065307D01*
X0126660Y0065234D01*
X0126778Y0065157D01*
X0126893Y0065078D01*
X0127007Y0064995D01*
X0127117Y0064909D01*
X0127226Y0064820D01*
X0127332Y0064728D01*
X0127435Y0064633D01*
X0127536Y0064536D01*
X0127633Y0064435D01*
X0127728Y0064332D01*
X0127820Y0064226D01*
X0127909Y0064117D01*
X0127995Y0064007D01*
X0128078Y0063893D01*
X0128157Y0063778D01*
X0128234Y0063660D01*
X0128307Y0063540D01*
X0128376Y0063419D01*
X0128442Y0063295D01*
X0128505Y0063169D01*
X0128564Y0063042D01*
X0128619Y0062913D01*
X0128671Y0062783D01*
X0128719Y0062651D01*
X0128764Y0062518D01*
X0128805Y0062384D01*
X0128842Y0062249D01*
X0128875Y0062113D01*
X0128904Y0061975D01*
X0128929Y0061838D01*
X0128951Y0061699D01*
X0128969Y0061560D01*
X0128982Y0061420D01*
X0128992Y0061280D01*
X0128998Y0061140D01*
X0129000Y0061000D01*
X0134000Y0061000D02*
X0133998Y0061140D01*
X0133992Y0061280D01*
X0133982Y0061420D01*
X0133969Y0061560D01*
X0133951Y0061699D01*
X0133929Y0061838D01*
X0133904Y0061975D01*
X0133875Y0062113D01*
X0133842Y0062249D01*
X0133805Y0062384D01*
X0133764Y0062518D01*
X0133719Y0062651D01*
X0133671Y0062783D01*
X0133619Y0062913D01*
X0133564Y0063042D01*
X0133505Y0063169D01*
X0133442Y0063295D01*
X0133376Y0063419D01*
X0133307Y0063540D01*
X0133234Y0063660D01*
X0133157Y0063778D01*
X0133078Y0063893D01*
X0132995Y0064007D01*
X0132909Y0064117D01*
X0132820Y0064226D01*
X0132728Y0064332D01*
X0132633Y0064435D01*
X0132536Y0064536D01*
X0132435Y0064633D01*
X0132332Y0064728D01*
X0132226Y0064820D01*
X0132117Y0064909D01*
X0132007Y0064995D01*
X0131893Y0065078D01*
X0131778Y0065157D01*
X0131660Y0065234D01*
X0131540Y0065307D01*
X0131419Y0065376D01*
X0131295Y0065442D01*
X0131169Y0065505D01*
X0131042Y0065564D01*
X0130913Y0065619D01*
X0130783Y0065671D01*
X0130651Y0065719D01*
X0130518Y0065764D01*
X0130384Y0065805D01*
X0130249Y0065842D01*
X0130113Y0065875D01*
X0129975Y0065904D01*
X0129838Y0065929D01*
X0129699Y0065951D01*
X0129560Y0065969D01*
X0129420Y0065982D01*
X0129280Y0065992D01*
X0129140Y0065998D01*
X0129000Y0066000D01*
X0135000Y0061000D02*
X0141000Y0061000D01*
D12*
X0051000Y0016625D03*
X0051000Y0015375D03*
D13*
X0045936Y0014150D02*
X0043467Y0014150D01*
X0044701Y0014150D02*
X0044701Y0017853D01*
X0043467Y0016619D01*
X0042252Y0017236D02*
X0041635Y0017853D01*
X0040401Y0017853D01*
X0039784Y0017236D01*
X0039784Y0014767D01*
X0040401Y0014150D01*
X0041635Y0014150D01*
X0042252Y0014767D01*
X0048224Y0006352D02*
X0048224Y0003450D01*
X0047257Y0003450D02*
X0049192Y0003450D01*
X0050203Y0003450D02*
X0050203Y0005385D01*
X0051655Y0005385D01*
X0052138Y0004901D01*
X0052138Y0003450D01*
X0048224Y0006352D02*
X0047257Y0005385D01*
X0061148Y0017698D02*
X0062115Y0016730D01*
X0061148Y0017698D02*
X0064050Y0017698D01*
X0064050Y0018665D02*
X0064050Y0016730D01*
X0063566Y0019677D02*
X0064050Y0020160D01*
X0064050Y0021128D01*
X0063566Y0021612D01*
X0062599Y0021612D01*
X0062115Y0021128D01*
X0062115Y0020644D01*
X0062599Y0019677D01*
X0061148Y0019677D01*
X0061148Y0021612D01*
X0062115Y0022623D02*
X0062115Y0024074D01*
X0062599Y0024558D01*
X0063566Y0024558D01*
X0064050Y0024074D01*
X0064050Y0022623D01*
X0065017Y0022623D02*
X0062115Y0022623D01*
X0077147Y0023002D02*
X0077147Y0021767D01*
X0077764Y0021150D01*
X0077764Y0019936D02*
X0077147Y0019318D01*
X0077147Y0018084D01*
X0077764Y0017467D01*
X0080233Y0017467D01*
X0080850Y0018084D01*
X0080850Y0019318D01*
X0080233Y0019936D01*
X0080233Y0021150D02*
X0080850Y0021767D01*
X0080850Y0023002D01*
X0080233Y0023619D01*
X0079616Y0023619D01*
X0078998Y0023002D01*
X0078998Y0022384D01*
X0078998Y0023002D02*
X0078381Y0023619D01*
X0077764Y0023619D01*
X0077147Y0023002D01*
X0102650Y0025851D02*
X0104585Y0025851D01*
X0105597Y0024884D02*
X0106080Y0024884D01*
X0106080Y0024400D01*
X0105597Y0024400D01*
X0105597Y0024884D01*
X0107070Y0024884D02*
X0107070Y0024400D01*
X0107070Y0024884D02*
X0109005Y0026819D01*
X0109005Y0027302D01*
X0107070Y0027302D01*
X0110016Y0026335D02*
X0111468Y0026335D01*
X0111951Y0025851D01*
X0111951Y0024400D01*
X0110016Y0024400D02*
X0110016Y0026335D01*
X0110643Y0029250D02*
X0110643Y0032152D01*
X0110643Y0029250D01*
X0110643Y0030217D02*
X0112094Y0031185D01*
X0110643Y0030217D01*
X0112094Y0029250D01*
X0110643Y0030217D01*
X0109631Y0029734D02*
X0109148Y0029250D01*
X0108180Y0029250D01*
X0107697Y0029734D01*
X0109631Y0031669D01*
X0109631Y0029734D01*
X0109148Y0029250D01*
X0108180Y0029250D01*
X0107697Y0029734D01*
X0107697Y0031669D01*
X0108180Y0032152D01*
X0109148Y0032152D01*
X0109631Y0031669D01*
X0107697Y0029734D01*
X0107697Y0031669D01*
X0108180Y0032152D01*
X0109148Y0032152D01*
X0109631Y0031669D01*
X0109631Y0029734D01*
X0106685Y0029250D02*
X0104750Y0029250D01*
X0106685Y0029250D01*
X0105717Y0029250D02*
X0105717Y0032152D01*
X0104750Y0031185D01*
X0105717Y0032152D01*
X0105717Y0029250D01*
X0104101Y0027302D02*
X0102650Y0025851D01*
X0104101Y0024400D02*
X0104101Y0027302D01*
X0113098Y0029250D02*
X0113582Y0029250D01*
X0113582Y0030217D01*
X0113098Y0030701D01*
X0113098Y0031669D01*
X0113582Y0032152D01*
X0114550Y0032152D01*
X0115033Y0031669D01*
X0115033Y0030701D01*
X0114550Y0030217D01*
X0114550Y0029250D01*
X0115033Y0029250D01*
X0114550Y0029250D01*
X0114550Y0030217D01*
X0115033Y0030701D01*
X0115033Y0031669D01*
X0114550Y0032152D01*
X0113582Y0032152D01*
X0113098Y0031669D01*
X0113098Y0030701D01*
X0113582Y0030217D01*
X0113582Y0029250D01*
X0113098Y0029250D01*
X0113135Y0017603D02*
X0111901Y0017603D01*
X0111284Y0016986D01*
X0111284Y0014517D01*
X0111901Y0013900D01*
X0113135Y0013900D01*
X0113752Y0014517D01*
X0114967Y0014517D02*
X0115584Y0013900D01*
X0116818Y0013900D01*
X0117436Y0014517D01*
X0117436Y0015752D01*
X0116818Y0016369D01*
X0116201Y0016369D01*
X0114967Y0015752D01*
X0114967Y0017603D01*
X0117436Y0017603D01*
X0113752Y0016986D02*
X0113135Y0017603D01*
X0135257Y0031950D02*
X0137192Y0031950D01*
X0136224Y0031950D02*
X0136224Y0034852D01*
X0135257Y0033885D01*
X0138203Y0034369D02*
X0138203Y0032434D01*
X0140138Y0034369D01*
X0140138Y0032434D01*
X0139655Y0031950D01*
X0138687Y0031950D01*
X0138203Y0032434D01*
X0138203Y0034369D02*
X0138687Y0034852D01*
X0139655Y0034852D01*
X0140138Y0034369D01*
X0141150Y0034369D02*
X0141634Y0034852D01*
X0142601Y0034852D01*
X0143085Y0034369D01*
X0141150Y0032434D01*
X0141634Y0031950D01*
X0142601Y0031950D01*
X0143085Y0032434D01*
X0143085Y0034369D01*
X0144097Y0033885D02*
X0145548Y0033885D01*
X0146031Y0033401D01*
X0146031Y0031950D01*
X0144097Y0031950D02*
X0144097Y0033885D01*
X0141150Y0034369D02*
X0141150Y0032434D01*
X0141767Y0047150D02*
X0143002Y0047150D01*
X0143619Y0047767D01*
X0143619Y0048384D01*
X0143002Y0049002D01*
X0141150Y0049002D01*
X0141150Y0047767D01*
X0141767Y0047150D01*
X0139936Y0047767D02*
X0139318Y0047150D01*
X0138084Y0047150D01*
X0137467Y0047767D01*
X0137467Y0050236D01*
X0138084Y0050853D01*
X0139318Y0050853D01*
X0139936Y0050236D01*
X0141150Y0049002D02*
X0142384Y0050236D01*
X0143619Y0050853D01*
X0088638Y0055184D02*
X0088155Y0054700D01*
X0086703Y0054700D01*
X0086703Y0053733D02*
X0086703Y0056635D01*
X0088155Y0056635D01*
X0088638Y0056151D01*
X0088638Y0055184D01*
X0085692Y0057119D02*
X0083757Y0055184D01*
X0083757Y0054700D01*
X0082262Y0054700D02*
X0082262Y0057602D01*
X0080810Y0056151D01*
X0082745Y0056151D01*
X0085692Y0057119D02*
X0085692Y0057602D01*
X0083757Y0057602D01*
X0079185Y0064400D02*
X0079185Y0068103D01*
X0077333Y0066252D01*
X0079802Y0066252D01*
X0076119Y0067486D02*
X0075502Y0068103D01*
X0074267Y0068103D01*
X0073650Y0067486D01*
X0073650Y0065017D01*
X0074267Y0064400D01*
X0075502Y0064400D01*
X0076119Y0065017D01*
X0067155Y0055852D02*
X0065703Y0055852D01*
X0065703Y0052950D01*
X0067155Y0052950D01*
X0067638Y0053434D01*
X0067638Y0053917D01*
X0067155Y0054401D01*
X0065703Y0054401D01*
X0064692Y0054401D02*
X0064692Y0053434D01*
X0064208Y0052950D01*
X0063241Y0052950D01*
X0062757Y0053434D01*
X0062757Y0054401D02*
X0063724Y0054885D01*
X0064208Y0054885D01*
X0064692Y0054401D01*
X0062757Y0054401D02*
X0062757Y0055852D01*
X0064692Y0055852D01*
X0067155Y0055852D02*
X0067638Y0055369D01*
X0067638Y0054885D01*
X0067155Y0054401D01*
X0061745Y0054401D02*
X0059810Y0054401D01*
X0061262Y0055852D01*
X0061262Y0052950D01*
X0058799Y0052950D02*
X0056864Y0052950D01*
X0058799Y0054885D01*
X0058799Y0055369D01*
X0058315Y0055852D01*
X0057348Y0055852D01*
X0056864Y0055369D01*
X0055852Y0055852D02*
X0053917Y0055852D01*
X0053917Y0052950D01*
X0052906Y0053434D02*
X0052422Y0052950D01*
X0050971Y0052950D01*
X0050971Y0055852D01*
X0052422Y0055852D01*
X0052906Y0055369D01*
X0052906Y0054885D01*
X0052422Y0054401D01*
X0050971Y0054401D01*
X0052422Y0054401D02*
X0052906Y0053917D01*
X0052906Y0053434D01*
X0053917Y0054401D02*
X0054885Y0054401D01*
D14*
X0080000Y0061000D03*
X0082000Y0061000D03*
X0110000Y0021000D03*
X0112000Y0021000D03*
D15*
X0118500Y0027000D02*
X0120000Y0027000D01*
X0118500Y0027000D02*
X0118000Y0027500D01*
X0104000Y0027500D01*
X0103500Y0027000D01*
X0102000Y0027000D01*
X0101940Y0027002D01*
X0101879Y0027007D01*
X0101820Y0027016D01*
X0101761Y0027029D01*
X0101702Y0027045D01*
X0101645Y0027065D01*
X0101590Y0027088D01*
X0101535Y0027115D01*
X0101483Y0027144D01*
X0101432Y0027177D01*
X0101383Y0027213D01*
X0101337Y0027251D01*
X0101293Y0027293D01*
X0101251Y0027337D01*
X0101213Y0027383D01*
X0101177Y0027432D01*
X0101144Y0027483D01*
X0101115Y0027535D01*
X0101088Y0027590D01*
X0101065Y0027645D01*
X0101045Y0027702D01*
X0101029Y0027761D01*
X0101016Y0027820D01*
X0101007Y0027879D01*
X0101002Y0027940D01*
X0101000Y0028000D01*
X0101000Y0034000D01*
X0101002Y0034060D01*
X0101007Y0034121D01*
X0101016Y0034180D01*
X0101029Y0034239D01*
X0101045Y0034298D01*
X0101065Y0034355D01*
X0101088Y0034410D01*
X0101115Y0034465D01*
X0101144Y0034517D01*
X0101177Y0034568D01*
X0101213Y0034617D01*
X0101251Y0034663D01*
X0101293Y0034707D01*
X0101337Y0034749D01*
X0101383Y0034787D01*
X0101432Y0034823D01*
X0101483Y0034856D01*
X0101535Y0034885D01*
X0101590Y0034912D01*
X0101645Y0034935D01*
X0101702Y0034955D01*
X0101761Y0034971D01*
X0101820Y0034984D01*
X0101879Y0034993D01*
X0101940Y0034998D01*
X0102000Y0035000D01*
X0103500Y0035000D01*
X0104000Y0034500D01*
X0118000Y0034500D01*
X0118500Y0035000D01*
X0120000Y0035000D01*
X0120060Y0034998D01*
X0120121Y0034993D01*
X0120180Y0034984D01*
X0120239Y0034971D01*
X0120298Y0034955D01*
X0120355Y0034935D01*
X0120410Y0034912D01*
X0120465Y0034885D01*
X0120517Y0034856D01*
X0120568Y0034823D01*
X0120617Y0034787D01*
X0120663Y0034749D01*
X0120707Y0034707D01*
X0120749Y0034663D01*
X0120787Y0034617D01*
X0120823Y0034568D01*
X0120856Y0034517D01*
X0120885Y0034465D01*
X0120912Y0034410D01*
X0120935Y0034355D01*
X0120955Y0034298D01*
X0120971Y0034239D01*
X0120984Y0034180D01*
X0120993Y0034121D01*
X0120998Y0034060D01*
X0121000Y0034000D01*
X0121000Y0028000D01*
X0120998Y0027940D01*
X0120993Y0027879D01*
X0120984Y0027820D01*
X0120971Y0027761D01*
X0120955Y0027702D01*
X0120935Y0027645D01*
X0120912Y0027590D01*
X0120885Y0027535D01*
X0120856Y0027483D01*
X0120823Y0027432D01*
X0120787Y0027383D01*
X0120749Y0027337D01*
X0120707Y0027293D01*
X0120663Y0027251D01*
X0120617Y0027213D01*
X0120568Y0027177D01*
X0120517Y0027144D01*
X0120465Y0027115D01*
X0120410Y0027088D01*
X0120355Y0027065D01*
X0120298Y0027045D01*
X0120239Y0027029D01*
X0120180Y0027016D01*
X0120121Y0027007D01*
X0120060Y0027002D01*
X0120000Y0027000D01*
X0120060Y0027002D01*
X0120121Y0027007D01*
X0120180Y0027016D01*
X0120239Y0027029D01*
X0120298Y0027045D01*
X0120355Y0027065D01*
X0120410Y0027088D01*
X0120465Y0027115D01*
X0120517Y0027144D01*
X0120568Y0027177D01*
X0120617Y0027213D01*
X0120663Y0027251D01*
X0120707Y0027293D01*
X0120749Y0027337D01*
X0120787Y0027383D01*
X0120823Y0027432D01*
X0120856Y0027483D01*
X0120885Y0027535D01*
X0120912Y0027590D01*
X0120935Y0027645D01*
X0120955Y0027702D01*
X0120971Y0027761D01*
X0120984Y0027820D01*
X0120993Y0027879D01*
X0120998Y0027940D01*
X0121000Y0028000D01*
X0121000Y0034000D02*
X0120998Y0034060D01*
X0120993Y0034121D01*
X0120984Y0034180D01*
X0120971Y0034239D01*
X0120955Y0034298D01*
X0120935Y0034355D01*
X0120912Y0034410D01*
X0120885Y0034465D01*
X0120856Y0034517D01*
X0120823Y0034568D01*
X0120787Y0034617D01*
X0120749Y0034663D01*
X0120707Y0034707D01*
X0120663Y0034749D01*
X0120617Y0034787D01*
X0120568Y0034823D01*
X0120517Y0034856D01*
X0120465Y0034885D01*
X0120410Y0034912D01*
X0120355Y0034935D01*
X0120298Y0034955D01*
X0120239Y0034971D01*
X0120180Y0034984D01*
X0120121Y0034993D01*
X0120060Y0034998D01*
X0120000Y0035000D01*
X0134500Y0036500D02*
X0147500Y0036500D01*
X0147587Y0036502D01*
X0147674Y0036508D01*
X0147761Y0036517D01*
X0147847Y0036530D01*
X0147933Y0036547D01*
X0148018Y0036568D01*
X0148101Y0036593D01*
X0148184Y0036621D01*
X0148265Y0036652D01*
X0148345Y0036687D01*
X0148423Y0036726D01*
X0148500Y0036768D01*
X0148575Y0036813D01*
X0148647Y0036862D01*
X0148718Y0036913D01*
X0148786Y0036968D01*
X0148851Y0037025D01*
X0148914Y0037086D01*
X0148975Y0037149D01*
X0149032Y0037214D01*
X0149087Y0037282D01*
X0149138Y0037353D01*
X0149187Y0037425D01*
X0149232Y0037500D01*
X0149274Y0037577D01*
X0149313Y0037655D01*
X0149348Y0037735D01*
X0149379Y0037816D01*
X0149407Y0037899D01*
X0149432Y0037982D01*
X0149453Y0038067D01*
X0149470Y0038153D01*
X0149483Y0038239D01*
X0149492Y0038326D01*
X0149498Y0038413D01*
X0149500Y0038500D01*
X0146000Y0041000D02*
X0142300Y0041000D01*
X0139800Y0041000D02*
X0136000Y0041000D01*
X0132500Y0043500D02*
X0132502Y0043587D01*
X0132508Y0043674D01*
X0132517Y0043761D01*
X0132530Y0043847D01*
X0132547Y0043933D01*
X0132568Y0044018D01*
X0132593Y0044101D01*
X0132621Y0044184D01*
X0132652Y0044265D01*
X0132687Y0044345D01*
X0132726Y0044423D01*
X0132768Y0044500D01*
X0132813Y0044575D01*
X0132862Y0044647D01*
X0132913Y0044718D01*
X0132968Y0044786D01*
X0133025Y0044851D01*
X0133086Y0044914D01*
X0133149Y0044975D01*
X0133214Y0045032D01*
X0133282Y0045087D01*
X0133353Y0045138D01*
X0133425Y0045187D01*
X0133500Y0045232D01*
X0133577Y0045274D01*
X0133655Y0045313D01*
X0133735Y0045348D01*
X0133816Y0045379D01*
X0133899Y0045407D01*
X0133982Y0045432D01*
X0134067Y0045453D01*
X0134153Y0045470D01*
X0134239Y0045483D01*
X0134326Y0045492D01*
X0134413Y0045498D01*
X0134500Y0045500D01*
X0147500Y0045500D01*
X0147587Y0045498D01*
X0147674Y0045492D01*
X0147761Y0045483D01*
X0147847Y0045470D01*
X0147933Y0045453D01*
X0148018Y0045432D01*
X0148101Y0045407D01*
X0148184Y0045379D01*
X0148265Y0045348D01*
X0148345Y0045313D01*
X0148423Y0045274D01*
X0148500Y0045232D01*
X0148575Y0045187D01*
X0148647Y0045138D01*
X0148718Y0045087D01*
X0148786Y0045032D01*
X0148851Y0044975D01*
X0148914Y0044914D01*
X0148975Y0044851D01*
X0149032Y0044786D01*
X0149087Y0044718D01*
X0149138Y0044647D01*
X0149187Y0044575D01*
X0149232Y0044500D01*
X0149274Y0044423D01*
X0149313Y0044345D01*
X0149348Y0044265D01*
X0149379Y0044184D01*
X0149407Y0044101D01*
X0149432Y0044018D01*
X0149453Y0043933D01*
X0149470Y0043847D01*
X0149483Y0043761D01*
X0149492Y0043674D01*
X0149498Y0043587D01*
X0149500Y0043500D01*
X0134500Y0036500D02*
X0134413Y0036502D01*
X0134326Y0036508D01*
X0134239Y0036517D01*
X0134153Y0036530D01*
X0134067Y0036547D01*
X0133982Y0036568D01*
X0133899Y0036593D01*
X0133816Y0036621D01*
X0133735Y0036652D01*
X0133655Y0036687D01*
X0133577Y0036726D01*
X0133500Y0036768D01*
X0133425Y0036813D01*
X0133353Y0036862D01*
X0133282Y0036913D01*
X0133214Y0036968D01*
X0133149Y0037025D01*
X0133086Y0037086D01*
X0133025Y0037149D01*
X0132968Y0037214D01*
X0132913Y0037282D01*
X0132862Y0037353D01*
X0132813Y0037425D01*
X0132768Y0037500D01*
X0132726Y0037577D01*
X0132687Y0037655D01*
X0132652Y0037735D01*
X0132621Y0037816D01*
X0132593Y0037899D01*
X0132568Y0037982D01*
X0132547Y0038067D01*
X0132530Y0038153D01*
X0132517Y0038239D01*
X0132508Y0038326D01*
X0132502Y0038413D01*
X0132500Y0038500D01*
X0102000Y0035000D02*
X0101940Y0034998D01*
X0101879Y0034993D01*
X0101820Y0034984D01*
X0101761Y0034971D01*
X0101702Y0034955D01*
X0101645Y0034935D01*
X0101590Y0034912D01*
X0101535Y0034885D01*
X0101483Y0034856D01*
X0101432Y0034823D01*
X0101383Y0034787D01*
X0101337Y0034749D01*
X0101293Y0034707D01*
X0101251Y0034663D01*
X0101213Y0034617D01*
X0101177Y0034568D01*
X0101144Y0034517D01*
X0101115Y0034465D01*
X0101088Y0034410D01*
X0101065Y0034355D01*
X0101045Y0034298D01*
X0101029Y0034239D01*
X0101016Y0034180D01*
X0101007Y0034121D01*
X0101002Y0034060D01*
X0101000Y0034000D01*
X0101000Y0028000D02*
X0101002Y0027940D01*
X0101007Y0027879D01*
X0101016Y0027820D01*
X0101029Y0027761D01*
X0101045Y0027702D01*
X0101065Y0027645D01*
X0101088Y0027590D01*
X0101115Y0027535D01*
X0101144Y0027483D01*
X0101177Y0027432D01*
X0101213Y0027383D01*
X0101251Y0027337D01*
X0101293Y0027293D01*
X0101337Y0027251D01*
X0101383Y0027213D01*
X0101432Y0027177D01*
X0101483Y0027144D01*
X0101535Y0027115D01*
X0101590Y0027088D01*
X0101645Y0027065D01*
X0101702Y0027045D01*
X0101761Y0027029D01*
X0101820Y0027016D01*
X0101879Y0027007D01*
X0101940Y0027002D01*
X0102000Y0027000D01*
X0046000Y0027500D02*
X0046000Y0014500D01*
X0036500Y0015500D02*
X0034500Y0017500D01*
X0032000Y0017500D02*
X0030000Y0017500D01*
X0030000Y0020000D01*
X0027500Y0020000D01*
X0027500Y0022000D01*
X0030000Y0022000D01*
X0030000Y0024500D01*
X0032000Y0024500D01*
X0032000Y0022000D01*
X0034500Y0022000D01*
X0034500Y0020000D01*
X0032000Y0020000D01*
X0032000Y0017500D01*
X0031000Y0015500D02*
X0031000Y0013500D01*
X0027000Y0017000D02*
X0026000Y0016000D01*
X0016000Y0017500D02*
X0016000Y0007500D01*
X0016002Y0007424D01*
X0016008Y0007348D01*
X0016017Y0007273D01*
X0016031Y0007198D01*
X0016048Y0007124D01*
X0016069Y0007051D01*
X0016093Y0006979D01*
X0016122Y0006908D01*
X0016153Y0006839D01*
X0016188Y0006772D01*
X0016227Y0006707D01*
X0016269Y0006643D01*
X0016314Y0006582D01*
X0016362Y0006523D01*
X0016413Y0006467D01*
X0016467Y0006413D01*
X0016523Y0006362D01*
X0016582Y0006314D01*
X0016643Y0006269D01*
X0016707Y0006227D01*
X0016772Y0006188D01*
X0016839Y0006153D01*
X0016908Y0006122D01*
X0016979Y0006093D01*
X0017051Y0006069D01*
X0017124Y0006048D01*
X0017198Y0006031D01*
X0017273Y0006017D01*
X0017348Y0006008D01*
X0017424Y0006002D01*
X0017500Y0006000D01*
X0037000Y0006000D01*
X0044500Y0006000D02*
X0044576Y0006002D01*
X0044652Y0006008D01*
X0044727Y0006017D01*
X0044802Y0006031D01*
X0044876Y0006048D01*
X0044949Y0006069D01*
X0045021Y0006093D01*
X0045092Y0006122D01*
X0045161Y0006153D01*
X0045228Y0006188D01*
X0045293Y0006227D01*
X0045357Y0006269D01*
X0045418Y0006314D01*
X0045477Y0006362D01*
X0045533Y0006413D01*
X0045587Y0006467D01*
X0045638Y0006523D01*
X0045686Y0006582D01*
X0045731Y0006643D01*
X0045773Y0006707D01*
X0045812Y0006772D01*
X0045847Y0006839D01*
X0045878Y0006908D01*
X0045907Y0006979D01*
X0045931Y0007051D01*
X0045952Y0007124D01*
X0045969Y0007198D01*
X0045983Y0007273D01*
X0045992Y0007348D01*
X0045998Y0007424D01*
X0046000Y0007500D01*
X0034500Y0024500D02*
X0036500Y0026500D01*
X0031000Y0026500D02*
X0031000Y0028500D01*
X0027000Y0025000D02*
X0026000Y0026000D01*
X0016000Y0024500D02*
X0016000Y0034500D01*
X0016002Y0034576D01*
X0016008Y0034652D01*
X0016017Y0034727D01*
X0016031Y0034802D01*
X0016048Y0034876D01*
X0016069Y0034949D01*
X0016093Y0035021D01*
X0016122Y0035092D01*
X0016153Y0035161D01*
X0016188Y0035228D01*
X0016227Y0035293D01*
X0016269Y0035357D01*
X0016314Y0035418D01*
X0016362Y0035477D01*
X0016413Y0035533D01*
X0016467Y0035587D01*
X0016523Y0035638D01*
X0016582Y0035686D01*
X0016643Y0035731D01*
X0016707Y0035773D01*
X0016772Y0035812D01*
X0016839Y0035847D01*
X0016908Y0035878D01*
X0016979Y0035907D01*
X0017051Y0035931D01*
X0017124Y0035952D01*
X0017198Y0035969D01*
X0017273Y0035983D01*
X0017348Y0035992D01*
X0017424Y0035998D01*
X0017500Y0036000D01*
X0037000Y0036000D01*
X0044500Y0036000D02*
X0044576Y0035998D01*
X0044652Y0035992D01*
X0044727Y0035983D01*
X0044802Y0035969D01*
X0044876Y0035952D01*
X0044949Y0035931D01*
X0045021Y0035907D01*
X0045092Y0035878D01*
X0045161Y0035847D01*
X0045228Y0035812D01*
X0045293Y0035773D01*
X0045357Y0035731D01*
X0045418Y0035686D01*
X0045477Y0035638D01*
X0045533Y0035587D01*
X0045587Y0035533D01*
X0045638Y0035477D01*
X0045686Y0035418D01*
X0045731Y0035357D01*
X0045773Y0035293D01*
X0045812Y0035228D01*
X0045847Y0035161D01*
X0045878Y0035092D01*
X0045907Y0035021D01*
X0045931Y0034949D01*
X0045952Y0034876D01*
X0045969Y0034802D01*
X0045983Y0034727D01*
X0045992Y0034652D01*
X0045998Y0034576D01*
X0046000Y0034500D01*
D16*
X0139800Y0038000D02*
X0139800Y0041000D01*
X0139800Y0044000D01*
X0142300Y0044000D02*
X0142300Y0041000D01*
X0142300Y0038000D01*
D17*
X0088179Y0052350D02*
X0087445Y0052350D01*
X0087812Y0052350D02*
X0087812Y0053451D01*
X0087445Y0053084D01*
D18*
X0067419Y0044700D02*
X0065017Y0044700D01*
X0066218Y0044700D02*
X0066218Y0048303D01*
X0065017Y0047102D01*
X0063736Y0047703D02*
X0063736Y0045301D01*
X0063135Y0044700D01*
X0061934Y0044700D01*
X0061334Y0045301D01*
X0061334Y0047703D01*
X0061934Y0048303D01*
X0063135Y0048303D01*
X0063736Y0047703D01*
X0062535Y0045901D02*
X0063736Y0044700D01*
X0101200Y0039903D02*
X0101200Y0036300D01*
X0101200Y0039903D01*
X0103002Y0039903D01*
X0103602Y0039303D01*
X0103602Y0038102D01*
X0103002Y0037501D01*
X0101200Y0037501D01*
X0103002Y0037501D01*
X0103602Y0038102D01*
X0103602Y0039303D01*
X0103002Y0039903D01*
X0101200Y0039903D01*
X0104883Y0039303D02*
X0105484Y0039903D01*
X0106685Y0039903D01*
X0107285Y0039303D01*
X0107285Y0038702D01*
X0104883Y0036300D01*
X0107285Y0036300D01*
X0104883Y0036300D01*
X0107285Y0038702D01*
X0107285Y0039303D01*
X0106685Y0039903D01*
X0105484Y0039903D01*
X0104883Y0039303D01*
X0102401Y0037501D02*
X0103602Y0036300D01*
X0102401Y0037501D01*
D19*
X0100250Y0031000D03*
X0100250Y0031000D03*
X0121750Y0031000D03*
X0121750Y0031000D03*
M02*
