%
M48
M72
T01C0.03543
T02C0.04331
%
T01
X1126Y1100
X1126Y2100
X1126Y3100
X2126Y4100
X2126Y5100
X2126Y6100
X4126Y6100
X4126Y4100
X4126Y3100
X4126Y1100
X9126Y3100
X12126Y3100
X13126Y3100
X15126Y2100
X15126Y1100
X13126Y1100
X12126Y1100
X10126Y1100
X10126Y5100
X11126Y5100
X11126Y6100
X10126Y6100
X9126Y6100
X9126Y5100
X11126Y7100
X11126Y9100
X15126Y5100
X1126Y9100
T02
X6126Y5100
X6126Y3100
X8126Y3100
M30
