%
M48
M72
T01C0.02756
T02C0.03543
T03C0.04331
%
T01
X9687Y10266
T02
X3687Y2266
X5687Y4266
X5687Y5266
X6687Y5266
X7687Y5266
X7687Y6266
X8687Y6266
X9687Y7266
X10687Y7266
X9687Y9266
X10687Y10266
X10687Y11266
X11687Y11266
X7687Y11266
X6687Y11266
X7687Y9266
X6687Y7266
X5687Y7266
X5687Y8266
X5687Y6266
X4687Y6266
X4687Y5266
X2687Y6266
X6687Y3266
X6687Y2266
X7687Y2266
X8687Y2266
X9687Y2266
X11687Y2266
X11687Y4266
X11687Y5266
X9687Y5266
X9687Y4266
X8687Y4266
T03
X4687Y8266
X2687Y8266
X2687Y10266
M30
