%
M48
M72
T01C0.02756
T02C0.03150
T03C0.03543
T04C0.04331
%
T01
X14001Y7026
T02
X13001Y4026
X13001Y3026
X13001Y2026
X7001Y6026
X6001Y6026
X5001Y6026
T03
X4001Y6026
X5001Y7026
X6001Y8026
X7001Y7026
X8001Y7026
X9001Y8026
X10001Y8026
X11001Y8026
X12001Y8026
X13001Y8026
X15001Y8026
X15001Y9026
X15001Y6026
X14001Y6026
X14001Y5026
X15001Y5026
X14001Y4026
X13001Y5026
X12001Y5026
X11001Y5026
X10001Y5026
X9001Y4026
X8001Y4026
X8001Y3026
X7001Y3026
X8001Y2026
X9001Y2026
X10001Y2026
X11001Y2026
X9001Y3026
X11001Y4026
X10001Y6026
X5001Y4026
X5001Y3026
X3001Y9026
X14001Y2026
X15001Y2026
T04
X2001Y3026
X4001Y3026
X4001Y5026
X12001Y9026
X13001Y9026
X14001Y9026
M30
