%
M48
M72
T01C0.02756
%
T01
X3100Y1115
X5100Y2100
X6100Y2100
X8100Y2100
X9100Y2100
X9100Y3100
X9100Y4100
X9100Y5100
X8100Y5100
X6100Y5100
X6100Y4100
X5100Y4100
X5100Y3100
X6100Y3100
X3100Y3084
X1100Y3100
X3100Y5100
X2100Y6100
X11100Y3100
X12100Y3100
X12100Y4100
X13100Y4100
X14100Y3100
X14100Y2100
X14100Y5100
X13100Y5100
X12100Y5100
X14100Y6100
X6100Y1100
M30
