G75*
%MOIN*%
%OFA0B0*%
%FSLAX25Y25*%
%IPPOS*%
%LPD*%
%AMOC8*
5,1,8,0,0,1.08239X$1,22.5*
%
%ADD10C,0.00200*%
%ADD11C,0.00500*%
%ADD12R,0.04000X0.01000*%
%ADD13C,0.00300*%
%ADD14R,0.05400X0.00900*%
%ADD15C,0.00600*%
%ADD16C,0.01200*%
%ADD17C,0.00360*%
%ADD18R,0.04500X0.01000*%
%ADD19C,0.00400*%
%ADD20R,0.03000X0.00750*%
%ADD21C,0.00800*%
%ADD22R,0.01500X0.01000*%
%ADD23R,0.01000X0.01500*%
%ADD24C,0.00100*%
D10*
X0061693Y0022534D02*
X0062060Y0022167D01*
X0062794Y0022167D01*
X0063161Y0022534D01*
X0063903Y0023268D02*
X0065371Y0023268D01*
X0065004Y0022167D02*
X0065004Y0024369D01*
X0063903Y0023268D01*
X0063161Y0024002D02*
X0062794Y0024369D01*
X0062060Y0024369D01*
X0061693Y0024002D01*
X0061693Y0022534D01*
X0071113Y0023268D02*
X0072581Y0023268D01*
X0073323Y0022534D02*
X0073323Y0022167D01*
X0073323Y0022534D02*
X0074791Y0024002D01*
X0074791Y0024369D01*
X0073323Y0024369D01*
X0072214Y0024369D02*
X0071113Y0023268D01*
X0072214Y0022167D02*
X0072214Y0024369D01*
X0075533Y0024002D02*
X0075533Y0022534D01*
X0077001Y0024002D01*
X0077001Y0022534D01*
X0076634Y0022167D01*
X0075900Y0022167D01*
X0075533Y0022534D01*
X0077743Y0022167D02*
X0077743Y0023635D01*
X0078844Y0023635D01*
X0079211Y0023268D01*
X0079211Y0022167D01*
X0079953Y0022167D02*
X0079953Y0024369D01*
X0081421Y0024369D01*
X0080687Y0023268D02*
X0079953Y0023268D01*
X0077001Y0024002D02*
X0076634Y0024369D01*
X0075900Y0024369D01*
X0075533Y0024002D01*
X0094411Y0023286D02*
X0094411Y0024754D01*
X0095512Y0024020D02*
X0095512Y0023286D01*
X0095512Y0022544D02*
X0096613Y0022544D01*
X0096613Y0023286D02*
X0094411Y0023286D01*
X0095512Y0022544D02*
X0095145Y0022177D01*
X0095145Y0021077D01*
X0096613Y0021077D01*
X0096613Y0020335D02*
X0096613Y0018867D01*
X0096613Y0019601D02*
X0094411Y0019601D01*
X0095145Y0018867D01*
X0094778Y0028157D02*
X0096246Y0028157D01*
X0096613Y0028524D01*
X0096613Y0029258D01*
X0096246Y0029625D01*
X0096246Y0030367D02*
X0096613Y0030734D01*
X0096613Y0031468D01*
X0096246Y0031835D01*
X0095512Y0031835D01*
X0095145Y0031468D01*
X0095145Y0031101D01*
X0095512Y0030367D01*
X0094411Y0030367D01*
X0094411Y0031835D01*
X0094778Y0029625D02*
X0094411Y0029258D01*
X0094411Y0028524D01*
X0094778Y0028157D01*
X0114411Y0028524D02*
X0114778Y0028157D01*
X0116246Y0028157D01*
X0116613Y0028524D01*
X0116613Y0029258D01*
X0116246Y0029625D01*
X0116246Y0030367D02*
X0116613Y0030734D01*
X0116613Y0031468D01*
X0116246Y0031835D01*
X0115879Y0031835D01*
X0115512Y0031468D01*
X0115512Y0030367D01*
X0116246Y0030367D01*
X0115512Y0030367D02*
X0114778Y0031101D01*
X0114411Y0031835D01*
X0114778Y0029625D02*
X0114411Y0029258D01*
X0114411Y0028524D01*
X0118911Y0028708D02*
X0118911Y0029442D01*
X0119278Y0029809D01*
X0120746Y0028341D01*
X0121113Y0028708D01*
X0121113Y0029442D01*
X0120746Y0029809D01*
X0119278Y0029809D01*
X0118911Y0030551D02*
X0121113Y0030551D01*
X0120379Y0030551D02*
X0119645Y0031652D01*
X0119278Y0032392D02*
X0118911Y0032759D01*
X0118911Y0033493D01*
X0119278Y0033860D01*
X0120012Y0033860D01*
X0120379Y0033493D01*
X0121113Y0033493D01*
X0121113Y0033860D01*
X0121113Y0032759D02*
X0120379Y0032759D01*
X0120012Y0032392D01*
X0119278Y0032392D01*
X0121113Y0032392D02*
X0121113Y0032759D01*
X0121113Y0031652D02*
X0120379Y0030551D01*
X0120746Y0028341D02*
X0119278Y0028341D01*
X0118911Y0028708D01*
X0118911Y0026865D02*
X0121113Y0026865D01*
X0121113Y0026131D02*
X0121113Y0027599D01*
X0119645Y0026131D02*
X0118911Y0026865D01*
X0115512Y0024020D02*
X0115512Y0023286D01*
X0115512Y0022544D02*
X0116613Y0022544D01*
X0116613Y0023286D02*
X0114411Y0023286D01*
X0114411Y0024754D01*
X0115512Y0022544D02*
X0115145Y0022177D01*
X0115145Y0021077D01*
X0116613Y0021077D01*
X0116613Y0020335D02*
X0116613Y0018867D01*
X0116613Y0019601D02*
X0114411Y0019601D01*
X0115145Y0018867D01*
X0133311Y0018524D02*
X0133678Y0018157D01*
X0135146Y0018157D01*
X0135513Y0018524D01*
X0135513Y0019258D01*
X0135146Y0019625D01*
X0135146Y0020367D02*
X0135513Y0020734D01*
X0135513Y0021468D01*
X0135146Y0021835D01*
X0133678Y0021835D01*
X0133311Y0021468D01*
X0133311Y0020734D01*
X0133678Y0020367D01*
X0134045Y0020367D01*
X0134412Y0020734D01*
X0134412Y0021835D01*
X0133678Y0019625D02*
X0133311Y0019258D01*
X0133311Y0018524D01*
X0143911Y0024104D02*
X0144278Y0023737D01*
X0143911Y0024104D02*
X0143911Y0024838D01*
X0144278Y0025205D01*
X0144645Y0025205D01*
X0146113Y0023737D01*
X0146113Y0025205D01*
X0146113Y0025947D02*
X0143911Y0025947D01*
X0146113Y0027415D01*
X0143911Y0027415D01*
X0144278Y0028157D02*
X0143911Y0028524D01*
X0143911Y0029258D01*
X0144278Y0029625D01*
X0144645Y0029625D01*
X0145012Y0029258D01*
X0145379Y0029625D01*
X0145746Y0029625D01*
X0146113Y0029258D01*
X0146113Y0028524D01*
X0145746Y0028157D01*
X0145012Y0028891D02*
X0145012Y0029258D01*
X0144645Y0030367D02*
X0145012Y0030734D01*
X0145012Y0031835D01*
X0145746Y0031835D02*
X0144278Y0031835D01*
X0143911Y0031468D01*
X0143911Y0030734D01*
X0144278Y0030367D01*
X0144645Y0030367D01*
X0145746Y0030367D02*
X0146113Y0030734D01*
X0146113Y0031468D01*
X0145746Y0031835D01*
X0145746Y0032577D02*
X0144278Y0032577D01*
X0143911Y0032943D01*
X0143911Y0033677D01*
X0144278Y0034044D01*
X0145746Y0032577D01*
X0146113Y0032943D01*
X0146113Y0033677D01*
X0145746Y0034044D01*
X0144278Y0034044D01*
X0145012Y0034786D02*
X0143911Y0035887D01*
X0146113Y0035887D01*
X0145012Y0036254D02*
X0145012Y0034786D01*
X0141113Y0040026D02*
X0139645Y0041494D01*
X0139278Y0041494D01*
X0138911Y0041127D01*
X0138911Y0040393D01*
X0139278Y0040026D01*
X0141113Y0040026D02*
X0141113Y0041494D01*
X0141113Y0042236D02*
X0139645Y0043704D01*
X0139278Y0043704D01*
X0138911Y0043337D01*
X0138911Y0042603D01*
X0139278Y0042236D01*
X0141113Y0042236D02*
X0141113Y0043704D01*
X0140746Y0044446D02*
X0139278Y0044446D01*
X0138911Y0044813D01*
X0138911Y0045547D01*
X0139278Y0045914D01*
X0140746Y0044446D01*
X0141113Y0044813D01*
X0141113Y0045547D01*
X0140746Y0045914D01*
X0139278Y0045914D01*
X0138911Y0046656D02*
X0141113Y0046656D01*
X0140379Y0046656D02*
X0139645Y0047757D01*
X0139278Y0048497D02*
X0138911Y0048864D01*
X0138911Y0049598D01*
X0139278Y0049965D01*
X0140012Y0049965D01*
X0140379Y0049598D01*
X0141113Y0049598D01*
X0141113Y0049965D01*
X0141113Y0048864D02*
X0140379Y0048864D01*
X0140012Y0048497D01*
X0139278Y0048497D01*
X0141113Y0048497D02*
X0141113Y0048864D01*
X0141113Y0047757D02*
X0140379Y0046656D01*
X0131113Y0051131D02*
X0129645Y0052599D01*
X0129278Y0052599D01*
X0128911Y0052232D01*
X0128911Y0051498D01*
X0129278Y0051131D01*
X0131113Y0051131D02*
X0131113Y0052599D01*
X0131113Y0053341D02*
X0129645Y0054809D01*
X0129278Y0054809D01*
X0128911Y0054442D01*
X0128911Y0053708D01*
X0129278Y0053341D01*
X0131113Y0053341D02*
X0131113Y0054809D01*
X0131113Y0055551D02*
X0128911Y0055551D01*
X0129645Y0056652D02*
X0130379Y0055551D01*
X0131113Y0056652D01*
X0131113Y0057392D02*
X0131113Y0057759D01*
X0130379Y0057759D01*
X0130012Y0057392D01*
X0129278Y0057392D01*
X0128911Y0057759D01*
X0128911Y0058493D01*
X0129278Y0058860D01*
X0130012Y0058860D01*
X0130379Y0058493D01*
X0131113Y0058493D01*
X0131113Y0058860D01*
X0128004Y0062867D02*
X0128004Y0065069D01*
X0126903Y0063968D01*
X0128371Y0063968D01*
X0126161Y0063968D02*
X0126161Y0064702D01*
X0125794Y0065069D01*
X0124693Y0065069D01*
X0124693Y0062867D01*
X0124693Y0063601D02*
X0125794Y0063601D01*
X0126161Y0063968D01*
X0125427Y0063601D02*
X0126161Y0062867D01*
X0114413Y0064814D02*
X0114413Y0065548D01*
X0114046Y0065915D01*
X0114046Y0066657D02*
X0114413Y0066657D01*
X0114046Y0066657D02*
X0112578Y0068125D01*
X0112211Y0068125D01*
X0112211Y0066657D01*
X0112578Y0065915D02*
X0112211Y0065548D01*
X0112211Y0064814D01*
X0112578Y0064447D01*
X0114046Y0064447D01*
X0114413Y0064814D01*
X0112211Y0062174D02*
X0112211Y0060706D01*
X0114413Y0060706D01*
X0114413Y0059964D02*
X0113312Y0059964D01*
X0112945Y0059597D01*
X0112945Y0058496D01*
X0114413Y0058496D01*
X0114046Y0057754D02*
X0114413Y0057387D01*
X0114413Y0056653D01*
X0114046Y0056286D01*
X0112578Y0057754D01*
X0114046Y0057754D01*
X0114046Y0056286D02*
X0112578Y0056286D01*
X0112211Y0056653D01*
X0112211Y0057387D01*
X0112578Y0057754D01*
X0112578Y0055544D02*
X0114046Y0054077D01*
X0114413Y0054077D01*
X0114413Y0052968D02*
X0112211Y0052968D01*
X0113312Y0051867D01*
X0113312Y0053335D01*
X0112211Y0054077D02*
X0112211Y0055544D01*
X0112578Y0055544D01*
X0113312Y0060706D02*
X0113312Y0061440D01*
X0134693Y0055069D02*
X0134693Y0052867D01*
X0134693Y0053601D02*
X0135794Y0053601D01*
X0136161Y0053968D01*
X0136161Y0054702D01*
X0135794Y0055069D01*
X0134693Y0055069D01*
X0136903Y0053968D02*
X0138004Y0053968D01*
X0138371Y0053601D01*
X0138371Y0053234D01*
X0138004Y0052867D01*
X0137270Y0052867D01*
X0136903Y0053234D01*
X0136903Y0053968D01*
X0137637Y0054702D01*
X0138371Y0055069D01*
X0136161Y0052867D02*
X0135427Y0053601D01*
X0148911Y0061680D02*
X0150012Y0060579D01*
X0150012Y0062046D01*
X0150746Y0062788D02*
X0150746Y0063155D01*
X0151113Y0063155D01*
X0151113Y0062788D01*
X0150746Y0062788D01*
X0150746Y0063893D02*
X0151113Y0063893D01*
X0150746Y0063893D02*
X0149278Y0065361D01*
X0148911Y0065361D01*
X0148911Y0063893D01*
X0148911Y0066103D02*
X0151113Y0066103D01*
X0150379Y0066103D02*
X0149645Y0067204D01*
X0149278Y0067945D02*
X0148911Y0068312D01*
X0148911Y0069046D01*
X0149278Y0069413D01*
X0150012Y0069413D01*
X0150379Y0069046D01*
X0151113Y0069046D01*
X0151113Y0069413D01*
X0151113Y0068312D02*
X0150379Y0068312D01*
X0150012Y0067945D01*
X0149278Y0067945D01*
X0151113Y0067945D02*
X0151113Y0068312D01*
X0151113Y0067204D02*
X0150379Y0066103D01*
X0151113Y0061680D02*
X0148911Y0061680D01*
X0155141Y0056802D02*
X0155508Y0057169D01*
X0156242Y0057169D01*
X0156609Y0056802D01*
X0156609Y0056435D01*
X0155141Y0054967D01*
X0156609Y0054967D01*
X0157351Y0054967D02*
X0157351Y0055334D01*
X0157718Y0055334D01*
X0157718Y0054967D01*
X0157351Y0054967D01*
X0158456Y0054967D02*
X0159924Y0056435D01*
X0159924Y0056802D01*
X0159557Y0057169D01*
X0158823Y0057169D01*
X0158456Y0056802D01*
X0161033Y0056068D02*
X0161033Y0055334D01*
X0161033Y0054600D01*
X0160666Y0054233D01*
X0161400Y0054967D02*
X0161033Y0055334D01*
X0161400Y0054967D02*
X0161767Y0054967D01*
X0162134Y0055334D01*
X0162134Y0056068D01*
X0162876Y0056068D02*
X0163609Y0056068D01*
X0162876Y0054967D02*
X0162876Y0057169D01*
X0164343Y0057169D01*
X0159924Y0054967D02*
X0158456Y0054967D01*
X0164978Y0052206D02*
X0166446Y0052206D01*
X0165712Y0051472D02*
X0165712Y0052940D01*
X0164611Y0050730D02*
X0164611Y0049262D01*
X0166813Y0049262D01*
X0166813Y0048520D02*
X0165345Y0048520D01*
X0164611Y0047786D01*
X0165345Y0047052D01*
X0166813Y0047052D01*
X0165712Y0047052D02*
X0165712Y0048520D01*
X0165712Y0049262D02*
X0165712Y0049996D01*
X0173911Y0052234D02*
X0174278Y0051867D01*
X0175746Y0051867D01*
X0176113Y0052234D01*
X0176113Y0052968D01*
X0175746Y0053335D01*
X0175746Y0054077D02*
X0175379Y0054077D01*
X0175012Y0054444D01*
X0175012Y0055177D01*
X0175379Y0055544D01*
X0175746Y0055544D01*
X0176113Y0055177D01*
X0176113Y0054444D01*
X0175746Y0054077D01*
X0175012Y0054444D02*
X0174645Y0054077D01*
X0174278Y0054077D01*
X0173911Y0054444D01*
X0173911Y0055177D01*
X0174278Y0055544D01*
X0174645Y0055544D01*
X0175012Y0055177D01*
X0174278Y0053335D02*
X0173911Y0052968D01*
X0173911Y0052234D01*
X0174645Y0060367D02*
X0173911Y0061101D01*
X0176113Y0061101D01*
X0176113Y0060367D02*
X0176113Y0061835D01*
X0175746Y0062577D02*
X0174278Y0062577D01*
X0173911Y0062944D01*
X0173911Y0063677D01*
X0174278Y0064044D01*
X0175746Y0062577D01*
X0176113Y0062944D01*
X0176113Y0063677D01*
X0175746Y0064044D01*
X0174278Y0064044D01*
X0174278Y0064786D02*
X0173911Y0065153D01*
X0173911Y0065887D01*
X0174278Y0066254D01*
X0175746Y0064786D01*
X0176113Y0065153D01*
X0176113Y0065887D01*
X0175746Y0066254D01*
X0174278Y0066254D01*
X0174645Y0066996D02*
X0174645Y0068097D01*
X0175012Y0068464D01*
X0176113Y0068464D01*
X0176113Y0069206D02*
X0173911Y0069206D01*
X0173911Y0070674D01*
X0175012Y0069940D02*
X0175012Y0069206D01*
X0174645Y0066996D02*
X0176113Y0066996D01*
X0175746Y0064786D02*
X0174278Y0064786D01*
X0161581Y0073367D02*
X0160113Y0073367D01*
X0161581Y0074835D01*
X0161581Y0075202D01*
X0161214Y0075569D01*
X0160480Y0075569D01*
X0160113Y0075202D01*
X0159371Y0075202D02*
X0159004Y0075569D01*
X0158270Y0075569D01*
X0157903Y0075202D01*
X0157903Y0073734D01*
X0158270Y0073367D01*
X0159004Y0073367D01*
X0159371Y0073734D01*
X0148371Y0074702D02*
X0146903Y0073234D01*
X0146903Y0072867D01*
X0146161Y0072867D02*
X0145427Y0073601D01*
X0145794Y0073601D02*
X0144693Y0073601D01*
X0144693Y0072867D02*
X0144693Y0075069D01*
X0145794Y0075069D01*
X0146161Y0074702D01*
X0146161Y0073968D01*
X0145794Y0073601D01*
X0146903Y0075069D02*
X0148371Y0075069D01*
X0148371Y0074702D01*
X0174611Y0075947D02*
X0174611Y0077048D01*
X0174978Y0077415D01*
X0175345Y0077415D01*
X0175712Y0077048D01*
X0175712Y0075947D01*
X0176813Y0075947D02*
X0174611Y0075947D01*
X0175712Y0077048D02*
X0176079Y0077415D01*
X0176446Y0077415D01*
X0176813Y0077048D01*
X0176813Y0075947D01*
X0176813Y0078157D02*
X0175345Y0078157D01*
X0174611Y0078891D01*
X0175345Y0079625D01*
X0176813Y0079625D01*
X0175712Y0079625D02*
X0175712Y0078157D01*
X0174611Y0080367D02*
X0174611Y0081835D01*
X0174611Y0081101D02*
X0176813Y0081101D01*
X0175712Y0082577D02*
X0175712Y0084044D01*
X0174978Y0083310D02*
X0176446Y0083310D01*
X0175712Y0042940D02*
X0175712Y0041472D01*
X0174611Y0040730D02*
X0174611Y0039262D01*
X0176813Y0039262D01*
X0176813Y0038520D02*
X0175345Y0038520D01*
X0174611Y0037786D01*
X0175345Y0037052D01*
X0176813Y0037052D01*
X0175712Y0037052D02*
X0175712Y0038520D01*
X0175712Y0039262D02*
X0175712Y0039996D01*
X0166113Y0040254D02*
X0165012Y0040254D01*
X0164645Y0039887D01*
X0164645Y0038786D01*
X0166113Y0038786D01*
X0164278Y0038044D02*
X0165746Y0036577D01*
X0166113Y0036577D01*
X0166113Y0035468D02*
X0163911Y0035468D01*
X0165012Y0034367D01*
X0165012Y0035835D01*
X0163911Y0036577D02*
X0163911Y0038044D01*
X0164278Y0038044D01*
X0163911Y0040996D02*
X0163911Y0042464D01*
X0165012Y0041730D02*
X0165012Y0040996D01*
X0166113Y0040996D02*
X0163911Y0040996D01*
X0164278Y0030254D02*
X0165746Y0028786D01*
X0166113Y0029153D01*
X0166113Y0029887D01*
X0165746Y0030254D01*
X0164278Y0030254D01*
X0163911Y0029887D01*
X0163911Y0029153D01*
X0164278Y0028786D01*
X0165746Y0028786D01*
X0166113Y0028044D02*
X0166113Y0026577D01*
X0166113Y0027310D02*
X0163911Y0027310D01*
X0164645Y0026577D01*
X0164278Y0025835D02*
X0163911Y0025468D01*
X0163911Y0024734D01*
X0164278Y0024367D01*
X0165746Y0024367D01*
X0166113Y0024734D01*
X0166113Y0025468D01*
X0165746Y0025835D01*
X0174611Y0021835D02*
X0174611Y0020367D01*
X0174611Y0021101D02*
X0176813Y0021101D01*
X0176813Y0019625D02*
X0175345Y0019625D01*
X0174611Y0018891D01*
X0175345Y0018157D01*
X0176813Y0018157D01*
X0176446Y0017415D02*
X0176813Y0017048D01*
X0176813Y0015947D01*
X0174611Y0015947D01*
X0174611Y0017048D01*
X0174978Y0017415D01*
X0175345Y0017415D01*
X0175712Y0017048D01*
X0175712Y0015947D01*
X0175712Y0017048D02*
X0176079Y0017415D01*
X0176446Y0017415D01*
X0175712Y0018157D02*
X0175712Y0019625D01*
X0175712Y0022577D02*
X0175712Y0024044D01*
X0158791Y0019802D02*
X0158424Y0020169D01*
X0157690Y0020169D01*
X0157323Y0019802D01*
X0156581Y0020169D02*
X0155113Y0020169D01*
X0155847Y0020169D02*
X0155847Y0017967D01*
X0157323Y0017967D02*
X0158791Y0019435D01*
X0158791Y0019802D01*
X0158791Y0017967D02*
X0157323Y0017967D01*
X0135513Y0025947D02*
X0135513Y0027415D01*
X0135513Y0026681D02*
X0133311Y0026681D01*
X0134045Y0025947D01*
X0133678Y0028157D02*
X0133311Y0028524D01*
X0133311Y0029258D01*
X0133678Y0029625D01*
X0135146Y0028157D01*
X0135513Y0028524D01*
X0135513Y0029258D01*
X0135146Y0029625D01*
X0133678Y0029625D01*
X0134045Y0030367D02*
X0134045Y0031468D01*
X0134412Y0031835D01*
X0135513Y0031835D01*
X0135513Y0032577D02*
X0133311Y0032577D01*
X0133311Y0034044D01*
X0134412Y0033310D02*
X0134412Y0032577D01*
X0134045Y0030367D02*
X0135513Y0030367D01*
X0135146Y0028157D02*
X0133678Y0028157D01*
X0125674Y0035967D02*
X0124940Y0035967D01*
X0124573Y0036334D01*
X0123831Y0035967D02*
X0123097Y0036701D01*
X0123464Y0036701D02*
X0122363Y0036701D01*
X0122363Y0035967D02*
X0122363Y0038169D01*
X0123464Y0038169D01*
X0123831Y0037802D01*
X0123831Y0037068D01*
X0123464Y0036701D01*
X0124573Y0037802D02*
X0124940Y0038169D01*
X0125674Y0038169D01*
X0126041Y0037802D01*
X0126041Y0037435D01*
X0125674Y0037068D01*
X0126041Y0036701D01*
X0126041Y0036334D01*
X0125674Y0035967D01*
X0125674Y0037068D02*
X0125307Y0037068D01*
X0081581Y0053467D02*
X0080113Y0053467D01*
X0081581Y0054935D01*
X0081581Y0055302D01*
X0081214Y0055669D01*
X0080480Y0055669D01*
X0080113Y0055302D01*
X0079371Y0054935D02*
X0079371Y0053467D01*
X0079371Y0054568D02*
X0077903Y0054568D01*
X0077903Y0054935D02*
X0078637Y0055669D01*
X0079371Y0054935D01*
X0077903Y0054935D02*
X0077903Y0053467D01*
X0071113Y0060393D02*
X0070746Y0060026D01*
X0071113Y0060393D02*
X0071113Y0061127D01*
X0070746Y0061494D01*
X0070379Y0061494D01*
X0070012Y0061127D01*
X0070012Y0060760D01*
X0070012Y0061127D02*
X0069645Y0061494D01*
X0069278Y0061494D01*
X0068911Y0061127D01*
X0068911Y0060393D01*
X0069278Y0060026D01*
X0069278Y0062236D02*
X0068911Y0062603D01*
X0068911Y0063337D01*
X0069278Y0063704D01*
X0069645Y0063704D01*
X0070012Y0063337D01*
X0070379Y0063704D01*
X0070746Y0063704D01*
X0071113Y0063337D01*
X0071113Y0062603D01*
X0070746Y0062236D01*
X0070012Y0062970D02*
X0070012Y0063337D01*
X0069278Y0064446D02*
X0068911Y0064813D01*
X0068911Y0065547D01*
X0069278Y0065914D01*
X0070746Y0064446D01*
X0071113Y0064813D01*
X0071113Y0065547D01*
X0070746Y0065914D01*
X0069278Y0065914D01*
X0068911Y0066656D02*
X0071113Y0066656D01*
X0070379Y0066656D02*
X0069645Y0067757D01*
X0069278Y0068497D02*
X0068911Y0068864D01*
X0068911Y0069598D01*
X0069278Y0069965D01*
X0070012Y0069965D01*
X0070379Y0069598D01*
X0071113Y0069598D01*
X0071113Y0069965D01*
X0071113Y0068864D02*
X0070379Y0068864D01*
X0070012Y0068497D01*
X0069278Y0068497D01*
X0071113Y0068497D02*
X0071113Y0068864D01*
X0071113Y0067757D02*
X0070379Y0066656D01*
X0070746Y0064446D02*
X0069278Y0064446D01*
X0065634Y0057669D02*
X0064533Y0056568D01*
X0066001Y0056568D01*
X0065634Y0055467D02*
X0065634Y0057669D01*
X0063791Y0057302D02*
X0062323Y0055834D01*
X0062690Y0055467D01*
X0063424Y0055467D01*
X0063791Y0055834D01*
X0063791Y0057302D01*
X0063424Y0057669D01*
X0062690Y0057669D01*
X0062323Y0057302D01*
X0062323Y0055834D01*
X0061581Y0055834D02*
X0061581Y0057302D01*
X0061214Y0057669D01*
X0060480Y0057669D01*
X0060113Y0057302D01*
X0060113Y0056935D01*
X0060480Y0056568D01*
X0061581Y0056568D01*
X0061581Y0055834D02*
X0061214Y0055467D01*
X0060480Y0055467D01*
X0060113Y0055834D01*
X0059371Y0055834D02*
X0059004Y0055467D01*
X0058270Y0055467D01*
X0057903Y0055834D01*
X0057161Y0055467D02*
X0057161Y0057669D01*
X0057903Y0057302D02*
X0058270Y0057669D01*
X0059004Y0057669D01*
X0059371Y0057302D01*
X0059371Y0056935D01*
X0059004Y0056568D01*
X0059371Y0056201D01*
X0059371Y0055834D01*
X0059004Y0056568D02*
X0058637Y0056568D01*
X0057161Y0055467D02*
X0055693Y0057669D01*
X0055693Y0055467D01*
X0054951Y0055467D02*
X0053484Y0055467D01*
X0054951Y0056935D01*
X0054951Y0057302D01*
X0054584Y0057669D01*
X0053850Y0057669D01*
X0053484Y0057302D01*
X0046663Y0055835D02*
X0046663Y0054367D01*
X0046663Y0055101D02*
X0044461Y0055101D01*
X0045195Y0054367D01*
X0044828Y0053625D02*
X0044461Y0053258D01*
X0044461Y0052524D01*
X0044828Y0052157D01*
X0046296Y0052157D01*
X0046663Y0052524D01*
X0046663Y0053258D01*
X0046296Y0053625D01*
X0055403Y0044069D02*
X0056504Y0044069D01*
X0056871Y0043702D01*
X0056871Y0042968D01*
X0056504Y0042601D01*
X0055403Y0042601D01*
X0056137Y0042601D02*
X0056871Y0041867D01*
X0057613Y0041867D02*
X0059081Y0043335D01*
X0059081Y0043702D01*
X0058714Y0044069D01*
X0057980Y0044069D01*
X0057613Y0043702D01*
X0055403Y0044069D02*
X0055403Y0041867D01*
X0057613Y0041867D02*
X0059081Y0041867D01*
X0060878Y0040635D02*
X0061612Y0041369D01*
X0061612Y0039167D01*
X0062345Y0039167D02*
X0060878Y0039167D01*
X0063087Y0039167D02*
X0064555Y0040635D01*
X0064555Y0041002D01*
X0064188Y0041369D01*
X0063454Y0041369D01*
X0063087Y0041002D01*
X0063087Y0039167D02*
X0064555Y0039167D01*
X0065297Y0039167D02*
X0065297Y0041369D01*
X0066398Y0040635D02*
X0065297Y0039901D01*
X0066398Y0039167D01*
X0067139Y0039167D02*
X0067506Y0039167D01*
X0067506Y0039901D01*
X0067139Y0040268D01*
X0067139Y0041002D01*
X0067506Y0041369D01*
X0068240Y0041369D01*
X0068607Y0041002D01*
X0068607Y0040268D01*
X0068240Y0039901D01*
X0068240Y0039167D01*
X0068607Y0039167D01*
X0046663Y0064367D02*
X0046296Y0064367D01*
X0044828Y0065835D01*
X0044461Y0065835D01*
X0044461Y0064367D01*
X0045195Y0066577D02*
X0045195Y0067677D01*
X0045562Y0068044D01*
X0046296Y0068044D01*
X0046663Y0067677D01*
X0046663Y0066577D01*
X0047397Y0066577D02*
X0045195Y0066577D01*
X0045562Y0068786D02*
X0045562Y0069520D01*
X0044461Y0068786D02*
X0044461Y0070254D01*
X0044461Y0068786D02*
X0046663Y0068786D01*
X0035948Y0067369D02*
X0035948Y0065167D01*
X0035948Y0066268D02*
X0034480Y0066268D01*
X0033738Y0066268D02*
X0033738Y0065534D01*
X0033371Y0065167D01*
X0033005Y0065167D01*
X0032638Y0065534D01*
X0032638Y0064800D01*
X0032271Y0064433D01*
X0031529Y0065167D02*
X0030061Y0065167D01*
X0031529Y0066635D01*
X0031529Y0067002D01*
X0031162Y0067369D01*
X0030428Y0067369D01*
X0030061Y0067002D01*
X0029319Y0067002D02*
X0028952Y0067369D01*
X0028218Y0067369D01*
X0027851Y0067002D01*
X0029319Y0067002D02*
X0029319Y0066635D01*
X0027851Y0065167D01*
X0029319Y0065167D01*
X0027113Y0065167D02*
X0026746Y0065167D01*
X0026746Y0065534D01*
X0027113Y0065534D01*
X0027113Y0065167D01*
X0026004Y0065534D02*
X0026004Y0067002D01*
X0024536Y0065534D01*
X0024903Y0065167D01*
X0025637Y0065167D01*
X0026004Y0065534D01*
X0026004Y0067002D02*
X0025637Y0067369D01*
X0024903Y0067369D01*
X0024536Y0067002D01*
X0024536Y0065534D01*
X0032638Y0065534D02*
X0032638Y0066268D01*
X0034480Y0065167D02*
X0034480Y0067369D01*
X0019871Y0073367D02*
X0018403Y0073367D01*
X0019137Y0073367D02*
X0019137Y0075569D01*
X0018403Y0074835D01*
X0017661Y0073367D02*
X0016193Y0073367D01*
X0016193Y0075569D01*
X0063903Y0075569D02*
X0063903Y0073367D01*
X0063903Y0074101D02*
X0065004Y0074101D01*
X0065371Y0074468D01*
X0065371Y0075202D01*
X0065004Y0075569D01*
X0063903Y0075569D01*
X0066113Y0075569D02*
X0066113Y0074468D01*
X0066847Y0074835D01*
X0067214Y0074835D01*
X0067581Y0074468D01*
X0067581Y0073734D01*
X0067214Y0073367D01*
X0066480Y0073367D01*
X0066113Y0073734D01*
X0065371Y0073367D02*
X0064637Y0074101D01*
X0066113Y0075569D02*
X0067581Y0075569D01*
X0077903Y0075968D02*
X0079371Y0075968D01*
X0079371Y0076335D02*
X0079371Y0074867D01*
X0080113Y0074867D02*
X0081581Y0074867D01*
X0080847Y0074867D02*
X0080847Y0077069D01*
X0080113Y0076335D01*
X0079371Y0076335D02*
X0078637Y0077069D01*
X0077903Y0076335D01*
X0077903Y0074867D01*
D11*
X0033156Y0025906D02*
X0036365Y0022697D01*
X0037835Y0022804D01*
X0039306Y0022911D01*
X0040590Y0024195D01*
X0037243Y0027541D01*
X0038456Y0026398D02*
X0043863Y0031805D01*
X0042753Y0033050D02*
X0046099Y0029704D01*
X0047383Y0030987D01*
X0047495Y0032464D01*
X0047608Y0033940D01*
X0044240Y0037308D01*
X0044373Y0033185D02*
X0044375Y0033248D01*
X0044381Y0033310D01*
X0044391Y0033372D01*
X0044404Y0033434D01*
X0044422Y0033494D01*
X0044443Y0033553D01*
X0044468Y0033611D01*
X0044497Y0033667D01*
X0044529Y0033721D01*
X0044564Y0033773D01*
X0044602Y0033822D01*
X0044644Y0033870D01*
X0044688Y0033914D01*
X0044736Y0033956D01*
X0044785Y0033994D01*
X0044837Y0034029D01*
X0044891Y0034061D01*
X0044947Y0034090D01*
X0045005Y0034115D01*
X0045064Y0034136D01*
X0045124Y0034154D01*
X0045186Y0034167D01*
X0045248Y0034177D01*
X0045310Y0034183D01*
X0045373Y0034185D01*
X0045436Y0034183D01*
X0045498Y0034177D01*
X0045560Y0034167D01*
X0045622Y0034154D01*
X0045682Y0034136D01*
X0045741Y0034115D01*
X0045799Y0034090D01*
X0045855Y0034061D01*
X0045909Y0034029D01*
X0045961Y0033994D01*
X0046010Y0033956D01*
X0046058Y0033914D01*
X0046102Y0033870D01*
X0046144Y0033822D01*
X0046182Y0033773D01*
X0046217Y0033721D01*
X0046249Y0033667D01*
X0046278Y0033611D01*
X0046303Y0033553D01*
X0046324Y0033494D01*
X0046342Y0033434D01*
X0046355Y0033372D01*
X0046365Y0033310D01*
X0046371Y0033248D01*
X0046373Y0033185D01*
X0046371Y0033122D01*
X0046365Y0033060D01*
X0046355Y0032998D01*
X0046342Y0032936D01*
X0046324Y0032876D01*
X0046303Y0032817D01*
X0046278Y0032759D01*
X0046249Y0032703D01*
X0046217Y0032649D01*
X0046182Y0032597D01*
X0046144Y0032548D01*
X0046102Y0032500D01*
X0046058Y0032456D01*
X0046010Y0032414D01*
X0045961Y0032376D01*
X0045909Y0032341D01*
X0045855Y0032309D01*
X0045799Y0032280D01*
X0045741Y0032255D01*
X0045682Y0032234D01*
X0045622Y0032216D01*
X0045560Y0032203D01*
X0045498Y0032193D01*
X0045436Y0032187D01*
X0045373Y0032185D01*
X0045310Y0032187D01*
X0045248Y0032193D01*
X0045186Y0032203D01*
X0045124Y0032216D01*
X0045064Y0032234D01*
X0045005Y0032255D01*
X0044947Y0032280D01*
X0044891Y0032309D01*
X0044837Y0032341D01*
X0044785Y0032376D01*
X0044736Y0032414D01*
X0044688Y0032456D01*
X0044644Y0032500D01*
X0044602Y0032548D01*
X0044564Y0032597D01*
X0044529Y0032649D01*
X0044497Y0032703D01*
X0044468Y0032759D01*
X0044443Y0032817D01*
X0044422Y0032876D01*
X0044404Y0032936D01*
X0044391Y0032998D01*
X0044381Y0033060D01*
X0044375Y0033122D01*
X0044373Y0033185D01*
X0045266Y0030090D02*
X0042735Y0027559D01*
X0042734Y0027559D02*
X0039953Y0024778D01*
X0036120Y0024987D02*
X0036122Y0025050D01*
X0036128Y0025112D01*
X0036138Y0025174D01*
X0036151Y0025236D01*
X0036169Y0025296D01*
X0036190Y0025355D01*
X0036215Y0025413D01*
X0036244Y0025469D01*
X0036276Y0025523D01*
X0036311Y0025575D01*
X0036349Y0025624D01*
X0036391Y0025672D01*
X0036435Y0025716D01*
X0036483Y0025758D01*
X0036532Y0025796D01*
X0036584Y0025831D01*
X0036638Y0025863D01*
X0036694Y0025892D01*
X0036752Y0025917D01*
X0036811Y0025938D01*
X0036871Y0025956D01*
X0036933Y0025969D01*
X0036995Y0025979D01*
X0037057Y0025985D01*
X0037120Y0025987D01*
X0037183Y0025985D01*
X0037245Y0025979D01*
X0037307Y0025969D01*
X0037369Y0025956D01*
X0037429Y0025938D01*
X0037488Y0025917D01*
X0037546Y0025892D01*
X0037602Y0025863D01*
X0037656Y0025831D01*
X0037708Y0025796D01*
X0037757Y0025758D01*
X0037805Y0025716D01*
X0037849Y0025672D01*
X0037891Y0025624D01*
X0037929Y0025575D01*
X0037964Y0025523D01*
X0037996Y0025469D01*
X0038025Y0025413D01*
X0038050Y0025355D01*
X0038071Y0025296D01*
X0038089Y0025236D01*
X0038102Y0025174D01*
X0038112Y0025112D01*
X0038118Y0025050D01*
X0038120Y0024987D01*
X0038118Y0024924D01*
X0038112Y0024862D01*
X0038102Y0024800D01*
X0038089Y0024738D01*
X0038071Y0024678D01*
X0038050Y0024619D01*
X0038025Y0024561D01*
X0037996Y0024505D01*
X0037964Y0024451D01*
X0037929Y0024399D01*
X0037891Y0024350D01*
X0037849Y0024302D01*
X0037805Y0024258D01*
X0037757Y0024216D01*
X0037708Y0024178D01*
X0037656Y0024143D01*
X0037602Y0024111D01*
X0037546Y0024082D01*
X0037488Y0024057D01*
X0037429Y0024036D01*
X0037369Y0024018D01*
X0037307Y0024005D01*
X0037245Y0023995D01*
X0037183Y0023989D01*
X0037120Y0023987D01*
X0037057Y0023989D01*
X0036995Y0023995D01*
X0036933Y0024005D01*
X0036871Y0024018D01*
X0036811Y0024036D01*
X0036752Y0024057D01*
X0036694Y0024082D01*
X0036638Y0024111D01*
X0036584Y0024143D01*
X0036532Y0024178D01*
X0036483Y0024216D01*
X0036435Y0024258D01*
X0036391Y0024302D01*
X0036349Y0024350D01*
X0036311Y0024399D01*
X0036276Y0024451D01*
X0036244Y0024505D01*
X0036215Y0024561D01*
X0036190Y0024619D01*
X0036169Y0024678D01*
X0036151Y0024738D01*
X0036138Y0024800D01*
X0036128Y0024862D01*
X0036122Y0024924D01*
X0036120Y0024987D01*
X0027514Y0036255D02*
X0034022Y0042764D01*
X0032418Y0044368D02*
X0025909Y0037859D01*
X0016678Y0040267D02*
X0016682Y0040594D01*
X0016694Y0040921D01*
X0016714Y0041248D01*
X0016742Y0041574D01*
X0016778Y0041899D01*
X0016822Y0042224D01*
X0016874Y0042547D01*
X0016934Y0042869D01*
X0017002Y0043189D01*
X0017078Y0043507D01*
X0017161Y0043824D01*
X0017252Y0044138D01*
X0017351Y0044450D01*
X0017458Y0044759D01*
X0017572Y0045066D01*
X0017693Y0045370D01*
X0017822Y0045671D01*
X0017958Y0045968D01*
X0018102Y0046263D01*
X0018253Y0046553D01*
X0018410Y0046840D01*
X0018575Y0047123D01*
X0018747Y0047401D01*
X0018925Y0047676D01*
X0019111Y0047945D01*
X0019302Y0048211D01*
X0019500Y0048471D01*
X0019705Y0048727D01*
X0019916Y0048977D01*
X0020132Y0049222D01*
X0020355Y0049462D01*
X0020584Y0049696D01*
X0020818Y0049925D01*
X0021058Y0050148D01*
X0021303Y0050364D01*
X0021553Y0050575D01*
X0021809Y0050780D01*
X0022069Y0050978D01*
X0022335Y0051169D01*
X0022604Y0051355D01*
X0022879Y0051533D01*
X0023157Y0051705D01*
X0023440Y0051870D01*
X0023727Y0052027D01*
X0024017Y0052178D01*
X0024312Y0052322D01*
X0024609Y0052458D01*
X0024910Y0052587D01*
X0025214Y0052708D01*
X0025521Y0052822D01*
X0025830Y0052929D01*
X0026142Y0053028D01*
X0026456Y0053119D01*
X0026773Y0053202D01*
X0027091Y0053278D01*
X0027411Y0053346D01*
X0027733Y0053406D01*
X0028056Y0053458D01*
X0028381Y0053502D01*
X0028706Y0053538D01*
X0029032Y0053566D01*
X0029359Y0053586D01*
X0029686Y0053598D01*
X0030013Y0053602D01*
X0030340Y0053598D01*
X0030667Y0053586D01*
X0030994Y0053566D01*
X0031320Y0053538D01*
X0031645Y0053502D01*
X0031970Y0053458D01*
X0032293Y0053406D01*
X0032615Y0053346D01*
X0032935Y0053278D01*
X0033253Y0053202D01*
X0033570Y0053119D01*
X0033884Y0053028D01*
X0034196Y0052929D01*
X0034505Y0052822D01*
X0034812Y0052708D01*
X0035116Y0052587D01*
X0035417Y0052458D01*
X0035714Y0052322D01*
X0036009Y0052178D01*
X0036299Y0052027D01*
X0036586Y0051870D01*
X0036869Y0051705D01*
X0037147Y0051533D01*
X0037422Y0051355D01*
X0037691Y0051169D01*
X0037957Y0050978D01*
X0038217Y0050780D01*
X0038473Y0050575D01*
X0038723Y0050364D01*
X0038968Y0050148D01*
X0039208Y0049925D01*
X0039442Y0049696D01*
X0039671Y0049462D01*
X0039894Y0049222D01*
X0040110Y0048977D01*
X0040321Y0048727D01*
X0040526Y0048471D01*
X0040724Y0048211D01*
X0040915Y0047945D01*
X0041101Y0047676D01*
X0041279Y0047401D01*
X0041451Y0047123D01*
X0041616Y0046840D01*
X0041773Y0046553D01*
X0041924Y0046263D01*
X0042068Y0045968D01*
X0042204Y0045671D01*
X0042333Y0045370D01*
X0042454Y0045066D01*
X0042568Y0044759D01*
X0042675Y0044450D01*
X0042774Y0044138D01*
X0042865Y0043824D01*
X0042948Y0043507D01*
X0043024Y0043189D01*
X0043092Y0042869D01*
X0043152Y0042547D01*
X0043204Y0042224D01*
X0043248Y0041899D01*
X0043284Y0041574D01*
X0043312Y0041248D01*
X0043332Y0040921D01*
X0043344Y0040594D01*
X0043348Y0040267D01*
X0043344Y0039940D01*
X0043332Y0039613D01*
X0043312Y0039286D01*
X0043284Y0038960D01*
X0043248Y0038635D01*
X0043204Y0038310D01*
X0043152Y0037987D01*
X0043092Y0037665D01*
X0043024Y0037345D01*
X0042948Y0037027D01*
X0042865Y0036710D01*
X0042774Y0036396D01*
X0042675Y0036084D01*
X0042568Y0035775D01*
X0042454Y0035468D01*
X0042333Y0035164D01*
X0042204Y0034863D01*
X0042068Y0034566D01*
X0041924Y0034271D01*
X0041773Y0033981D01*
X0041616Y0033694D01*
X0041451Y0033411D01*
X0041279Y0033133D01*
X0041101Y0032858D01*
X0040915Y0032589D01*
X0040724Y0032323D01*
X0040526Y0032063D01*
X0040321Y0031807D01*
X0040110Y0031557D01*
X0039894Y0031312D01*
X0039671Y0031072D01*
X0039442Y0030838D01*
X0039208Y0030609D01*
X0038968Y0030386D01*
X0038723Y0030170D01*
X0038473Y0029959D01*
X0038217Y0029754D01*
X0037957Y0029556D01*
X0037691Y0029365D01*
X0037422Y0029179D01*
X0037147Y0029001D01*
X0036869Y0028829D01*
X0036586Y0028664D01*
X0036299Y0028507D01*
X0036009Y0028356D01*
X0035714Y0028212D01*
X0035417Y0028076D01*
X0035116Y0027947D01*
X0034812Y0027826D01*
X0034505Y0027712D01*
X0034196Y0027605D01*
X0033884Y0027506D01*
X0033570Y0027415D01*
X0033253Y0027332D01*
X0032935Y0027256D01*
X0032615Y0027188D01*
X0032293Y0027128D01*
X0031970Y0027076D01*
X0031645Y0027032D01*
X0031320Y0026996D01*
X0030994Y0026968D01*
X0030667Y0026948D01*
X0030340Y0026936D01*
X0030013Y0026932D01*
X0029686Y0026936D01*
X0029359Y0026948D01*
X0029032Y0026968D01*
X0028706Y0026996D01*
X0028381Y0027032D01*
X0028056Y0027076D01*
X0027733Y0027128D01*
X0027411Y0027188D01*
X0027091Y0027256D01*
X0026773Y0027332D01*
X0026456Y0027415D01*
X0026142Y0027506D01*
X0025830Y0027605D01*
X0025521Y0027712D01*
X0025214Y0027826D01*
X0024910Y0027947D01*
X0024609Y0028076D01*
X0024312Y0028212D01*
X0024017Y0028356D01*
X0023727Y0028507D01*
X0023440Y0028664D01*
X0023157Y0028829D01*
X0022879Y0029001D01*
X0022604Y0029179D01*
X0022335Y0029365D01*
X0022069Y0029556D01*
X0021809Y0029754D01*
X0021553Y0029959D01*
X0021303Y0030170D01*
X0021058Y0030386D01*
X0020818Y0030609D01*
X0020584Y0030838D01*
X0020355Y0031072D01*
X0020132Y0031312D01*
X0019916Y0031557D01*
X0019705Y0031807D01*
X0019500Y0032063D01*
X0019302Y0032323D01*
X0019111Y0032589D01*
X0018925Y0032858D01*
X0018747Y0033133D01*
X0018575Y0033411D01*
X0018410Y0033694D01*
X0018253Y0033981D01*
X0018102Y0034271D01*
X0017958Y0034566D01*
X0017822Y0034863D01*
X0017693Y0035164D01*
X0017572Y0035468D01*
X0017458Y0035775D01*
X0017351Y0036084D01*
X0017252Y0036396D01*
X0017161Y0036710D01*
X0017078Y0037027D01*
X0017002Y0037345D01*
X0016934Y0037665D01*
X0016874Y0037987D01*
X0016822Y0038310D01*
X0016778Y0038635D01*
X0016742Y0038960D01*
X0016714Y0039286D01*
X0016694Y0039613D01*
X0016682Y0039940D01*
X0016678Y0040267D01*
X0015569Y0040267D02*
X0015573Y0040621D01*
X0015586Y0040976D01*
X0015608Y0041330D01*
X0015639Y0041683D01*
X0015678Y0042035D01*
X0015725Y0042386D01*
X0015782Y0042736D01*
X0015847Y0043085D01*
X0015920Y0043432D01*
X0016002Y0043777D01*
X0016092Y0044119D01*
X0016191Y0044460D01*
X0016298Y0044798D01*
X0016413Y0045133D01*
X0016537Y0045465D01*
X0016668Y0045794D01*
X0016808Y0046120D01*
X0016956Y0046443D01*
X0017111Y0046761D01*
X0017275Y0047076D01*
X0017445Y0047386D01*
X0017624Y0047693D01*
X0017810Y0047995D01*
X0018003Y0048292D01*
X0018204Y0048584D01*
X0018411Y0048871D01*
X0018626Y0049153D01*
X0018848Y0049430D01*
X0019076Y0049701D01*
X0019311Y0049967D01*
X0019552Y0050227D01*
X0019800Y0050480D01*
X0020053Y0050728D01*
X0020313Y0050969D01*
X0020579Y0051204D01*
X0020850Y0051432D01*
X0021127Y0051654D01*
X0021409Y0051869D01*
X0021696Y0052076D01*
X0021988Y0052277D01*
X0022285Y0052470D01*
X0022587Y0052656D01*
X0022894Y0052835D01*
X0023204Y0053005D01*
X0023519Y0053169D01*
X0023837Y0053324D01*
X0024160Y0053472D01*
X0024486Y0053612D01*
X0024815Y0053743D01*
X0025147Y0053867D01*
X0025482Y0053982D01*
X0025820Y0054089D01*
X0026161Y0054188D01*
X0026503Y0054278D01*
X0026848Y0054360D01*
X0027195Y0054433D01*
X0027544Y0054498D01*
X0027894Y0054555D01*
X0028245Y0054602D01*
X0028597Y0054641D01*
X0028950Y0054672D01*
X0029304Y0054694D01*
X0029659Y0054707D01*
X0030013Y0054711D01*
X0030367Y0054707D01*
X0030722Y0054694D01*
X0031076Y0054672D01*
X0031429Y0054641D01*
X0031781Y0054602D01*
X0032132Y0054555D01*
X0032482Y0054498D01*
X0032831Y0054433D01*
X0033178Y0054360D01*
X0033523Y0054278D01*
X0033865Y0054188D01*
X0034206Y0054089D01*
X0034544Y0053982D01*
X0034879Y0053867D01*
X0035211Y0053743D01*
X0035540Y0053612D01*
X0035866Y0053472D01*
X0036189Y0053324D01*
X0036507Y0053169D01*
X0036822Y0053005D01*
X0037132Y0052835D01*
X0037439Y0052656D01*
X0037741Y0052470D01*
X0038038Y0052277D01*
X0038330Y0052076D01*
X0038617Y0051869D01*
X0038899Y0051654D01*
X0039176Y0051432D01*
X0039447Y0051204D01*
X0039713Y0050969D01*
X0039973Y0050728D01*
X0040226Y0050480D01*
X0040474Y0050227D01*
X0040715Y0049967D01*
X0040950Y0049701D01*
X0041178Y0049430D01*
X0041400Y0049153D01*
X0041615Y0048871D01*
X0041822Y0048584D01*
X0042023Y0048292D01*
X0042216Y0047995D01*
X0042402Y0047693D01*
X0042581Y0047386D01*
X0042751Y0047076D01*
X0042915Y0046761D01*
X0043070Y0046443D01*
X0043218Y0046120D01*
X0043358Y0045794D01*
X0043489Y0045465D01*
X0043613Y0045133D01*
X0043728Y0044798D01*
X0043835Y0044460D01*
X0043934Y0044119D01*
X0044024Y0043777D01*
X0044106Y0043432D01*
X0044179Y0043085D01*
X0044244Y0042736D01*
X0044301Y0042386D01*
X0044348Y0042035D01*
X0044387Y0041683D01*
X0044418Y0041330D01*
X0044440Y0040976D01*
X0044453Y0040621D01*
X0044457Y0040267D01*
X0044453Y0039913D01*
X0044440Y0039558D01*
X0044418Y0039204D01*
X0044387Y0038851D01*
X0044348Y0038499D01*
X0044301Y0038148D01*
X0044244Y0037798D01*
X0044179Y0037449D01*
X0044106Y0037102D01*
X0044024Y0036757D01*
X0043934Y0036415D01*
X0043835Y0036074D01*
X0043728Y0035736D01*
X0043613Y0035401D01*
X0043489Y0035069D01*
X0043358Y0034740D01*
X0043218Y0034414D01*
X0043070Y0034091D01*
X0042915Y0033773D01*
X0042751Y0033458D01*
X0042581Y0033148D01*
X0042402Y0032841D01*
X0042216Y0032539D01*
X0042023Y0032242D01*
X0041822Y0031950D01*
X0041615Y0031663D01*
X0041400Y0031381D01*
X0041178Y0031104D01*
X0040950Y0030833D01*
X0040715Y0030567D01*
X0040474Y0030307D01*
X0040226Y0030054D01*
X0039973Y0029806D01*
X0039713Y0029565D01*
X0039447Y0029330D01*
X0039176Y0029102D01*
X0038899Y0028880D01*
X0038617Y0028665D01*
X0038330Y0028458D01*
X0038038Y0028257D01*
X0037741Y0028064D01*
X0037439Y0027878D01*
X0037132Y0027699D01*
X0036822Y0027529D01*
X0036507Y0027365D01*
X0036189Y0027210D01*
X0035866Y0027062D01*
X0035540Y0026922D01*
X0035211Y0026791D01*
X0034879Y0026667D01*
X0034544Y0026552D01*
X0034206Y0026445D01*
X0033865Y0026346D01*
X0033523Y0026256D01*
X0033178Y0026174D01*
X0032831Y0026101D01*
X0032482Y0026036D01*
X0032132Y0025979D01*
X0031781Y0025932D01*
X0031429Y0025893D01*
X0031076Y0025862D01*
X0030722Y0025840D01*
X0030367Y0025827D01*
X0030013Y0025823D01*
X0029659Y0025827D01*
X0029304Y0025840D01*
X0028950Y0025862D01*
X0028597Y0025893D01*
X0028245Y0025932D01*
X0027894Y0025979D01*
X0027544Y0026036D01*
X0027195Y0026101D01*
X0026848Y0026174D01*
X0026503Y0026256D01*
X0026161Y0026346D01*
X0025820Y0026445D01*
X0025482Y0026552D01*
X0025147Y0026667D01*
X0024815Y0026791D01*
X0024486Y0026922D01*
X0024160Y0027062D01*
X0023837Y0027210D01*
X0023519Y0027365D01*
X0023204Y0027529D01*
X0022894Y0027699D01*
X0022587Y0027878D01*
X0022285Y0028064D01*
X0021988Y0028257D01*
X0021696Y0028458D01*
X0021409Y0028665D01*
X0021127Y0028880D01*
X0020850Y0029102D01*
X0020579Y0029330D01*
X0020313Y0029565D01*
X0020053Y0029806D01*
X0019800Y0030054D01*
X0019552Y0030307D01*
X0019311Y0030567D01*
X0019076Y0030833D01*
X0018848Y0031104D01*
X0018626Y0031381D01*
X0018411Y0031663D01*
X0018204Y0031950D01*
X0018003Y0032242D01*
X0017810Y0032539D01*
X0017624Y0032841D01*
X0017445Y0033148D01*
X0017275Y0033458D01*
X0017111Y0033773D01*
X0016956Y0034091D01*
X0016808Y0034414D01*
X0016668Y0034740D01*
X0016537Y0035069D01*
X0016413Y0035401D01*
X0016298Y0035736D01*
X0016191Y0036074D01*
X0016092Y0036415D01*
X0016002Y0036757D01*
X0015920Y0037102D01*
X0015847Y0037449D01*
X0015782Y0037798D01*
X0015725Y0038148D01*
X0015678Y0038499D01*
X0015639Y0038851D01*
X0015608Y0039204D01*
X0015586Y0039558D01*
X0015573Y0039913D01*
X0015569Y0040267D01*
X0025213Y0040267D02*
X0025215Y0040405D01*
X0025221Y0040544D01*
X0025231Y0040682D01*
X0025245Y0040819D01*
X0025263Y0040956D01*
X0025285Y0041093D01*
X0025310Y0041229D01*
X0025340Y0041364D01*
X0025374Y0041498D01*
X0025411Y0041631D01*
X0025452Y0041763D01*
X0025497Y0041894D01*
X0025546Y0042024D01*
X0025598Y0042152D01*
X0025655Y0042278D01*
X0025714Y0042403D01*
X0025778Y0042526D01*
X0025845Y0042647D01*
X0025915Y0042766D01*
X0025989Y0042883D01*
X0026066Y0042998D01*
X0026146Y0043111D01*
X0026230Y0043221D01*
X0026316Y0043329D01*
X0026406Y0043434D01*
X0026499Y0043537D01*
X0026595Y0043637D01*
X0026693Y0043734D01*
X0026794Y0043828D01*
X0026898Y0043919D01*
X0027005Y0044007D01*
X0027114Y0044093D01*
X0027225Y0044175D01*
X0027339Y0044253D01*
X0027455Y0044329D01*
X0027573Y0044401D01*
X0027693Y0044469D01*
X0027815Y0044534D01*
X0027939Y0044596D01*
X0028065Y0044654D01*
X0028192Y0044708D01*
X0028321Y0044759D01*
X0028451Y0044806D01*
X0028582Y0044849D01*
X0028715Y0044888D01*
X0028849Y0044924D01*
X0028983Y0044955D01*
X0029119Y0044983D01*
X0029255Y0045007D01*
X0029392Y0045027D01*
X0029530Y0045043D01*
X0029667Y0045055D01*
X0029806Y0045063D01*
X0029944Y0045067D01*
X0030082Y0045067D01*
X0030220Y0045063D01*
X0030359Y0045055D01*
X0030496Y0045043D01*
X0030634Y0045027D01*
X0030771Y0045007D01*
X0030907Y0044983D01*
X0031043Y0044955D01*
X0031177Y0044924D01*
X0031311Y0044888D01*
X0031444Y0044849D01*
X0031575Y0044806D01*
X0031705Y0044759D01*
X0031834Y0044708D01*
X0031961Y0044654D01*
X0032087Y0044596D01*
X0032211Y0044534D01*
X0032333Y0044469D01*
X0032453Y0044401D01*
X0032571Y0044329D01*
X0032687Y0044253D01*
X0032801Y0044175D01*
X0032912Y0044093D01*
X0033021Y0044007D01*
X0033128Y0043919D01*
X0033232Y0043828D01*
X0033333Y0043734D01*
X0033431Y0043637D01*
X0033527Y0043537D01*
X0033620Y0043434D01*
X0033710Y0043329D01*
X0033796Y0043221D01*
X0033880Y0043111D01*
X0033960Y0042998D01*
X0034037Y0042883D01*
X0034111Y0042766D01*
X0034181Y0042647D01*
X0034248Y0042526D01*
X0034312Y0042403D01*
X0034371Y0042278D01*
X0034428Y0042152D01*
X0034480Y0042024D01*
X0034529Y0041894D01*
X0034574Y0041763D01*
X0034615Y0041631D01*
X0034652Y0041498D01*
X0034686Y0041364D01*
X0034716Y0041229D01*
X0034741Y0041093D01*
X0034763Y0040956D01*
X0034781Y0040819D01*
X0034795Y0040682D01*
X0034805Y0040544D01*
X0034811Y0040405D01*
X0034813Y0040267D01*
X0034811Y0040129D01*
X0034805Y0039990D01*
X0034795Y0039852D01*
X0034781Y0039715D01*
X0034763Y0039578D01*
X0034741Y0039441D01*
X0034716Y0039305D01*
X0034686Y0039170D01*
X0034652Y0039036D01*
X0034615Y0038903D01*
X0034574Y0038771D01*
X0034529Y0038640D01*
X0034480Y0038510D01*
X0034428Y0038382D01*
X0034371Y0038256D01*
X0034312Y0038131D01*
X0034248Y0038008D01*
X0034181Y0037887D01*
X0034111Y0037768D01*
X0034037Y0037651D01*
X0033960Y0037536D01*
X0033880Y0037423D01*
X0033796Y0037313D01*
X0033710Y0037205D01*
X0033620Y0037100D01*
X0033527Y0036997D01*
X0033431Y0036897D01*
X0033333Y0036800D01*
X0033232Y0036706D01*
X0033128Y0036615D01*
X0033021Y0036527D01*
X0032912Y0036441D01*
X0032801Y0036359D01*
X0032687Y0036281D01*
X0032571Y0036205D01*
X0032453Y0036133D01*
X0032333Y0036065D01*
X0032211Y0036000D01*
X0032087Y0035938D01*
X0031961Y0035880D01*
X0031834Y0035826D01*
X0031705Y0035775D01*
X0031575Y0035728D01*
X0031444Y0035685D01*
X0031311Y0035646D01*
X0031177Y0035610D01*
X0031043Y0035579D01*
X0030907Y0035551D01*
X0030771Y0035527D01*
X0030634Y0035507D01*
X0030496Y0035491D01*
X0030359Y0035479D01*
X0030220Y0035471D01*
X0030082Y0035467D01*
X0029944Y0035467D01*
X0029806Y0035471D01*
X0029667Y0035479D01*
X0029530Y0035491D01*
X0029392Y0035507D01*
X0029255Y0035527D01*
X0029119Y0035551D01*
X0028983Y0035579D01*
X0028849Y0035610D01*
X0028715Y0035646D01*
X0028582Y0035685D01*
X0028451Y0035728D01*
X0028321Y0035775D01*
X0028192Y0035826D01*
X0028065Y0035880D01*
X0027939Y0035938D01*
X0027815Y0036000D01*
X0027693Y0036065D01*
X0027573Y0036133D01*
X0027455Y0036205D01*
X0027339Y0036281D01*
X0027225Y0036359D01*
X0027114Y0036441D01*
X0027005Y0036527D01*
X0026898Y0036615D01*
X0026794Y0036706D01*
X0026693Y0036800D01*
X0026595Y0036897D01*
X0026499Y0036997D01*
X0026406Y0037100D01*
X0026316Y0037205D01*
X0026230Y0037313D01*
X0026146Y0037423D01*
X0026066Y0037536D01*
X0025989Y0037651D01*
X0025915Y0037768D01*
X0025845Y0037887D01*
X0025778Y0038008D01*
X0025714Y0038131D01*
X0025655Y0038256D01*
X0025598Y0038382D01*
X0025546Y0038510D01*
X0025497Y0038640D01*
X0025452Y0038771D01*
X0025411Y0038903D01*
X0025374Y0039036D01*
X0025340Y0039170D01*
X0025310Y0039305D01*
X0025285Y0039441D01*
X0025263Y0039578D01*
X0025245Y0039715D01*
X0025231Y0039852D01*
X0025221Y0039990D01*
X0025215Y0040129D01*
X0025213Y0040267D01*
X0047513Y0056767D02*
X0047513Y0063767D01*
X0050013Y0066267D02*
X0050111Y0066265D01*
X0050209Y0066259D01*
X0050307Y0066250D01*
X0050404Y0066236D01*
X0050501Y0066219D01*
X0050597Y0066198D01*
X0050692Y0066173D01*
X0050786Y0066145D01*
X0050878Y0066112D01*
X0050970Y0066077D01*
X0051060Y0066037D01*
X0051148Y0065995D01*
X0051235Y0065948D01*
X0051319Y0065899D01*
X0051402Y0065846D01*
X0051482Y0065790D01*
X0051561Y0065730D01*
X0051637Y0065668D01*
X0051710Y0065603D01*
X0051781Y0065535D01*
X0051849Y0065464D01*
X0051914Y0065391D01*
X0051976Y0065315D01*
X0052036Y0065236D01*
X0052092Y0065156D01*
X0052145Y0065073D01*
X0052194Y0064989D01*
X0052241Y0064902D01*
X0052283Y0064814D01*
X0052323Y0064724D01*
X0052358Y0064632D01*
X0052391Y0064540D01*
X0052419Y0064446D01*
X0052444Y0064351D01*
X0052465Y0064255D01*
X0052482Y0064158D01*
X0052496Y0064061D01*
X0052505Y0063963D01*
X0052511Y0063865D01*
X0052513Y0063767D01*
X0052513Y0056767D01*
X0050013Y0054267D02*
X0049915Y0054269D01*
X0049817Y0054275D01*
X0049719Y0054284D01*
X0049622Y0054298D01*
X0049525Y0054315D01*
X0049429Y0054336D01*
X0049334Y0054361D01*
X0049240Y0054389D01*
X0049148Y0054422D01*
X0049056Y0054457D01*
X0048966Y0054497D01*
X0048878Y0054539D01*
X0048791Y0054586D01*
X0048707Y0054635D01*
X0048624Y0054688D01*
X0048544Y0054744D01*
X0048465Y0054804D01*
X0048389Y0054866D01*
X0048316Y0054931D01*
X0048245Y0054999D01*
X0048177Y0055070D01*
X0048112Y0055143D01*
X0048050Y0055219D01*
X0047990Y0055298D01*
X0047934Y0055378D01*
X0047881Y0055461D01*
X0047832Y0055545D01*
X0047785Y0055632D01*
X0047743Y0055720D01*
X0047703Y0055810D01*
X0047668Y0055902D01*
X0047635Y0055994D01*
X0047607Y0056088D01*
X0047582Y0056183D01*
X0047561Y0056279D01*
X0047544Y0056376D01*
X0047530Y0056473D01*
X0047521Y0056571D01*
X0047515Y0056669D01*
X0047513Y0056767D01*
X0050013Y0054267D02*
X0050111Y0054269D01*
X0050209Y0054275D01*
X0050307Y0054284D01*
X0050404Y0054298D01*
X0050501Y0054315D01*
X0050597Y0054336D01*
X0050692Y0054361D01*
X0050786Y0054389D01*
X0050878Y0054422D01*
X0050970Y0054457D01*
X0051060Y0054497D01*
X0051148Y0054539D01*
X0051235Y0054586D01*
X0051319Y0054635D01*
X0051402Y0054688D01*
X0051482Y0054744D01*
X0051561Y0054804D01*
X0051637Y0054866D01*
X0051710Y0054931D01*
X0051781Y0054999D01*
X0051849Y0055070D01*
X0051914Y0055143D01*
X0051976Y0055219D01*
X0052036Y0055298D01*
X0052092Y0055378D01*
X0052145Y0055461D01*
X0052194Y0055545D01*
X0052241Y0055632D01*
X0052283Y0055720D01*
X0052323Y0055810D01*
X0052358Y0055902D01*
X0052391Y0055994D01*
X0052419Y0056088D01*
X0052444Y0056183D01*
X0052465Y0056279D01*
X0052482Y0056376D01*
X0052496Y0056473D01*
X0052505Y0056571D01*
X0052511Y0056669D01*
X0052513Y0056767D01*
X0053513Y0052019D02*
X0053513Y0068515D01*
X0059513Y0070755D02*
X0059513Y0049778D01*
X0055636Y0050721D02*
X0055411Y0050828D01*
X0055188Y0050940D01*
X0054968Y0051057D01*
X0054751Y0051179D01*
X0054536Y0051307D01*
X0054325Y0051440D01*
X0054117Y0051577D01*
X0053913Y0051720D01*
X0053711Y0051867D01*
X0053514Y0052019D01*
X0059513Y0049779D02*
X0059769Y0049770D01*
X0060025Y0049767D01*
X0060281Y0049770D01*
X0060537Y0049780D01*
X0060792Y0049796D01*
X0061047Y0049818D01*
X0061302Y0049846D01*
X0061555Y0049881D01*
X0061808Y0049922D01*
X0062060Y0049968D01*
X0062310Y0050021D01*
X0062559Y0050080D01*
X0062807Y0050146D01*
X0063053Y0050217D01*
X0063297Y0050294D01*
X0063539Y0050377D01*
X0063779Y0050466D01*
X0064017Y0050560D01*
X0064252Y0050661D01*
X0064485Y0050767D01*
X0059514Y0049779D02*
X0059257Y0049794D01*
X0059000Y0049816D01*
X0058744Y0049844D01*
X0058489Y0049878D01*
X0058235Y0049919D01*
X0057982Y0049966D01*
X0057730Y0050019D01*
X0057479Y0050078D01*
X0057230Y0050143D01*
X0056983Y0050214D01*
X0056737Y0050291D01*
X0056493Y0050375D01*
X0056252Y0050464D01*
X0056013Y0050559D01*
X0055776Y0050660D01*
X0055542Y0050767D01*
X0059513Y0070755D02*
X0059769Y0070764D01*
X0060025Y0070767D01*
X0060281Y0070764D01*
X0060537Y0070754D01*
X0060792Y0070738D01*
X0061047Y0070716D01*
X0061302Y0070688D01*
X0061555Y0070653D01*
X0061808Y0070612D01*
X0062060Y0070566D01*
X0062310Y0070513D01*
X0062559Y0070454D01*
X0062807Y0070388D01*
X0063053Y0070317D01*
X0063297Y0070240D01*
X0063539Y0070157D01*
X0063779Y0070068D01*
X0064017Y0069974D01*
X0064252Y0069873D01*
X0064485Y0069767D01*
X0050013Y0066267D02*
X0049915Y0066265D01*
X0049817Y0066259D01*
X0049719Y0066250D01*
X0049622Y0066236D01*
X0049525Y0066219D01*
X0049429Y0066198D01*
X0049334Y0066173D01*
X0049240Y0066145D01*
X0049148Y0066112D01*
X0049056Y0066077D01*
X0048966Y0066037D01*
X0048878Y0065995D01*
X0048791Y0065948D01*
X0048707Y0065899D01*
X0048624Y0065846D01*
X0048544Y0065790D01*
X0048465Y0065730D01*
X0048389Y0065668D01*
X0048316Y0065603D01*
X0048245Y0065535D01*
X0048177Y0065464D01*
X0048112Y0065391D01*
X0048050Y0065315D01*
X0047990Y0065236D01*
X0047934Y0065156D01*
X0047881Y0065073D01*
X0047832Y0064989D01*
X0047785Y0064902D01*
X0047743Y0064814D01*
X0047703Y0064724D01*
X0047668Y0064632D01*
X0047635Y0064540D01*
X0047607Y0064446D01*
X0047582Y0064351D01*
X0047561Y0064255D01*
X0047544Y0064158D01*
X0047530Y0064061D01*
X0047521Y0063963D01*
X0047515Y0063865D01*
X0047513Y0063767D01*
X0050013Y0066267D02*
X0050111Y0066265D01*
X0050209Y0066259D01*
X0050307Y0066250D01*
X0050404Y0066236D01*
X0050501Y0066219D01*
X0050597Y0066198D01*
X0050692Y0066173D01*
X0050786Y0066145D01*
X0050878Y0066112D01*
X0050970Y0066077D01*
X0051060Y0066037D01*
X0051148Y0065995D01*
X0051235Y0065948D01*
X0051319Y0065899D01*
X0051402Y0065846D01*
X0051482Y0065790D01*
X0051561Y0065730D01*
X0051637Y0065668D01*
X0051710Y0065603D01*
X0051781Y0065535D01*
X0051849Y0065464D01*
X0051914Y0065391D01*
X0051976Y0065315D01*
X0052036Y0065236D01*
X0052092Y0065156D01*
X0052145Y0065073D01*
X0052194Y0064989D01*
X0052241Y0064902D01*
X0052283Y0064814D01*
X0052323Y0064724D01*
X0052358Y0064632D01*
X0052391Y0064540D01*
X0052419Y0064446D01*
X0052444Y0064351D01*
X0052465Y0064255D01*
X0052482Y0064158D01*
X0052496Y0064061D01*
X0052505Y0063963D01*
X0052511Y0063865D01*
X0052513Y0063767D01*
X0053514Y0068515D02*
X0053703Y0068661D01*
X0053896Y0068802D01*
X0054091Y0068939D01*
X0054290Y0069072D01*
X0054492Y0069200D01*
X0054697Y0069323D01*
X0054904Y0069442D01*
X0055114Y0069556D01*
X0055327Y0069665D01*
X0055542Y0069769D01*
X0064485Y0069767D02*
X0064715Y0069655D01*
X0064942Y0069538D01*
X0065166Y0069416D01*
X0065387Y0069288D01*
X0065604Y0069154D01*
X0065819Y0069016D01*
X0066030Y0068872D01*
X0066237Y0068723D01*
X0066441Y0068569D01*
X0066641Y0068411D01*
X0066837Y0068247D01*
X0067029Y0068079D01*
X0067217Y0067906D01*
X0067401Y0067728D01*
X0067580Y0067547D01*
X0067755Y0067360D01*
X0067925Y0067170D01*
X0068090Y0066976D01*
X0068251Y0066777D01*
X0068407Y0066575D01*
X0068558Y0066369D01*
X0068704Y0066159D01*
X0068844Y0065946D01*
X0068980Y0065730D01*
X0069110Y0065510D01*
X0069235Y0065287D01*
X0069354Y0065062D01*
X0069468Y0064833D01*
X0069576Y0064602D01*
X0069679Y0064368D01*
X0069776Y0064132D01*
X0069867Y0063893D01*
X0069952Y0063653D01*
X0070032Y0063410D01*
X0070105Y0063165D01*
X0070173Y0062919D01*
X0070234Y0062671D01*
X0070289Y0062422D01*
X0070339Y0062172D01*
X0070382Y0061920D01*
X0070419Y0061667D01*
X0070450Y0061414D01*
X0070475Y0061160D01*
X0070494Y0060905D01*
X0070506Y0060650D01*
X0070512Y0060395D01*
X0070512Y0060139D01*
X0070506Y0059884D01*
X0070494Y0059629D01*
X0070475Y0059374D01*
X0070450Y0059120D01*
X0070419Y0058867D01*
X0070382Y0058614D01*
X0070339Y0058362D01*
X0070289Y0058112D01*
X0070234Y0057863D01*
X0070173Y0057615D01*
X0070105Y0057369D01*
X0070032Y0057124D01*
X0069952Y0056881D01*
X0069867Y0056641D01*
X0069776Y0056402D01*
X0069679Y0056166D01*
X0069576Y0055932D01*
X0069468Y0055701D01*
X0069354Y0055472D01*
X0069235Y0055247D01*
X0069110Y0055024D01*
X0068980Y0054804D01*
X0068844Y0054588D01*
X0068704Y0054375D01*
X0068558Y0054165D01*
X0068407Y0053959D01*
X0068251Y0053757D01*
X0068090Y0053558D01*
X0067925Y0053364D01*
X0067755Y0053174D01*
X0067580Y0052987D01*
X0067401Y0052806D01*
X0067217Y0052628D01*
X0067029Y0052455D01*
X0066837Y0052287D01*
X0066641Y0052123D01*
X0066441Y0051965D01*
X0066237Y0051811D01*
X0066030Y0051662D01*
X0065819Y0051518D01*
X0065604Y0051380D01*
X0065387Y0051246D01*
X0065166Y0051118D01*
X0064942Y0050996D01*
X0064715Y0050879D01*
X0064485Y0050767D01*
X0059514Y0070755D02*
X0059257Y0070740D01*
X0059000Y0070718D01*
X0058744Y0070690D01*
X0058489Y0070656D01*
X0058235Y0070615D01*
X0057982Y0070568D01*
X0057730Y0070515D01*
X0057479Y0070456D01*
X0057230Y0070391D01*
X0056983Y0070320D01*
X0056737Y0070243D01*
X0056493Y0070159D01*
X0056252Y0070070D01*
X0056013Y0069975D01*
X0055776Y0069874D01*
X0055542Y0069767D01*
X0040013Y0060267D02*
X0037513Y0060267D01*
X0037513Y0066767D01*
X0030013Y0059267D02*
X0029832Y0059269D01*
X0029651Y0059276D01*
X0029470Y0059287D01*
X0029289Y0059302D01*
X0029109Y0059322D01*
X0028929Y0059346D01*
X0028750Y0059374D01*
X0028572Y0059407D01*
X0028395Y0059444D01*
X0028218Y0059485D01*
X0028043Y0059530D01*
X0027868Y0059580D01*
X0027695Y0059634D01*
X0027524Y0059692D01*
X0027353Y0059754D01*
X0027185Y0059821D01*
X0027018Y0059891D01*
X0026852Y0059965D01*
X0026689Y0060044D01*
X0026528Y0060126D01*
X0026368Y0060212D01*
X0026211Y0060302D01*
X0026056Y0060396D01*
X0025903Y0060493D01*
X0025753Y0060595D01*
X0025605Y0060699D01*
X0025459Y0060808D01*
X0025317Y0060919D01*
X0025177Y0061035D01*
X0025040Y0061153D01*
X0024905Y0061275D01*
X0024774Y0061400D01*
X0024646Y0061528D01*
X0024521Y0061659D01*
X0024399Y0061794D01*
X0024281Y0061931D01*
X0024165Y0062071D01*
X0024054Y0062213D01*
X0023945Y0062359D01*
X0023841Y0062507D01*
X0023739Y0062657D01*
X0023642Y0062810D01*
X0023548Y0062965D01*
X0023458Y0063122D01*
X0023372Y0063282D01*
X0023290Y0063443D01*
X0023211Y0063606D01*
X0023137Y0063772D01*
X0023067Y0063939D01*
X0023000Y0064107D01*
X0022938Y0064278D01*
X0022880Y0064449D01*
X0022826Y0064622D01*
X0022776Y0064797D01*
X0022731Y0064972D01*
X0022690Y0065149D01*
X0022653Y0065326D01*
X0022620Y0065504D01*
X0022592Y0065683D01*
X0022568Y0065863D01*
X0022548Y0066043D01*
X0022533Y0066224D01*
X0022522Y0066405D01*
X0022515Y0066586D01*
X0022513Y0066767D01*
X0022515Y0066948D01*
X0022522Y0067129D01*
X0022533Y0067310D01*
X0022548Y0067491D01*
X0022568Y0067671D01*
X0022592Y0067851D01*
X0022620Y0068030D01*
X0022653Y0068208D01*
X0022690Y0068385D01*
X0022731Y0068562D01*
X0022776Y0068737D01*
X0022826Y0068912D01*
X0022880Y0069085D01*
X0022938Y0069256D01*
X0023000Y0069427D01*
X0023067Y0069595D01*
X0023137Y0069762D01*
X0023211Y0069928D01*
X0023290Y0070091D01*
X0023372Y0070252D01*
X0023458Y0070412D01*
X0023548Y0070569D01*
X0023642Y0070724D01*
X0023739Y0070877D01*
X0023841Y0071027D01*
X0023945Y0071175D01*
X0024054Y0071321D01*
X0024165Y0071463D01*
X0024281Y0071603D01*
X0024399Y0071740D01*
X0024521Y0071875D01*
X0024646Y0072006D01*
X0024774Y0072134D01*
X0024905Y0072259D01*
X0025040Y0072381D01*
X0025177Y0072499D01*
X0025317Y0072615D01*
X0025459Y0072726D01*
X0025605Y0072835D01*
X0025753Y0072939D01*
X0025903Y0073041D01*
X0026056Y0073138D01*
X0026211Y0073232D01*
X0026368Y0073322D01*
X0026528Y0073408D01*
X0026689Y0073490D01*
X0026852Y0073569D01*
X0027018Y0073643D01*
X0027185Y0073713D01*
X0027353Y0073780D01*
X0027524Y0073842D01*
X0027695Y0073900D01*
X0027868Y0073954D01*
X0028043Y0074004D01*
X0028218Y0074049D01*
X0028395Y0074090D01*
X0028572Y0074127D01*
X0028750Y0074160D01*
X0028929Y0074188D01*
X0029109Y0074212D01*
X0029289Y0074232D01*
X0029470Y0074247D01*
X0029651Y0074258D01*
X0029832Y0074265D01*
X0030013Y0074267D01*
X0031013Y0081267D02*
X0031182Y0081253D01*
X0031351Y0081235D01*
X0031519Y0081213D01*
X0031686Y0081186D01*
X0031853Y0081156D01*
X0032019Y0081121D01*
X0032184Y0081083D01*
X0032349Y0081041D01*
X0032512Y0080994D01*
X0032674Y0080944D01*
X0032834Y0080890D01*
X0032994Y0080832D01*
X0033152Y0080770D01*
X0033308Y0080704D01*
X0033463Y0080635D01*
X0033616Y0080562D01*
X0033767Y0080485D01*
X0033916Y0080405D01*
X0034064Y0080321D01*
X0034209Y0080233D01*
X0034352Y0080142D01*
X0034493Y0080047D01*
X0034631Y0079950D01*
X0034767Y0079848D01*
X0034901Y0079744D01*
X0035032Y0079636D01*
X0035161Y0079526D01*
X0035286Y0079412D01*
X0035409Y0079295D01*
X0035529Y0079175D01*
X0035646Y0079052D01*
X0035761Y0078927D01*
X0035872Y0078799D01*
X0035980Y0078668D01*
X0036084Y0078535D01*
X0036186Y0078399D01*
X0036284Y0078261D01*
X0036379Y0078120D01*
X0036470Y0077977D01*
X0036558Y0077832D01*
X0036642Y0077685D01*
X0036723Y0077536D01*
X0036800Y0077385D01*
X0036874Y0077232D01*
X0036944Y0077077D01*
X0037010Y0076921D01*
X0037072Y0076763D01*
X0037130Y0076604D01*
X0037185Y0076444D01*
X0037236Y0076282D01*
X0037282Y0076119D01*
X0037325Y0075955D01*
X0037364Y0075790D01*
X0037399Y0075624D01*
X0037429Y0075457D01*
X0037456Y0075289D01*
X0037479Y0075121D01*
X0037497Y0074953D01*
X0037512Y0074784D01*
X0037522Y0074614D01*
X0037529Y0074445D01*
X0037531Y0074275D01*
X0037529Y0074106D01*
X0037523Y0073936D01*
X0037513Y0073767D01*
X0031013Y0081267D02*
X0030817Y0081277D01*
X0030620Y0081282D01*
X0030423Y0081282D01*
X0030226Y0081278D01*
X0030030Y0081268D01*
X0029834Y0081254D01*
X0029638Y0081235D01*
X0029443Y0081211D01*
X0029248Y0081183D01*
X0029054Y0081149D01*
X0028861Y0081111D01*
X0028669Y0081068D01*
X0028478Y0081020D01*
X0028289Y0080968D01*
X0028100Y0080911D01*
X0027913Y0080850D01*
X0027728Y0080784D01*
X0027544Y0080713D01*
X0027363Y0080638D01*
X0027183Y0080558D01*
X0027005Y0080474D01*
X0026829Y0080386D01*
X0026655Y0080294D01*
X0026484Y0080197D01*
X0026315Y0080096D01*
X0026149Y0079991D01*
X0025985Y0079882D01*
X0025824Y0079769D01*
X0025666Y0079652D01*
X0025511Y0079531D01*
X0025359Y0079406D01*
X0025209Y0079278D01*
X0025064Y0079146D01*
X0024921Y0079010D01*
X0024782Y0078871D01*
X0024646Y0078729D01*
X0024514Y0078583D01*
X0024385Y0078434D01*
X0024260Y0078283D01*
X0024139Y0078128D01*
X0024021Y0077970D01*
X0023908Y0077809D01*
X0023798Y0077645D01*
X0023693Y0077479D01*
X0023592Y0077311D01*
X0023495Y0077140D01*
X0023402Y0076966D01*
X0023313Y0076791D01*
X0023229Y0076613D01*
X0023149Y0076433D01*
X0023073Y0076251D01*
X0023002Y0076068D01*
X0022936Y0075883D01*
X0022874Y0075696D01*
X0022817Y0075508D01*
X0022764Y0075318D01*
X0022716Y0075127D01*
X0022673Y0074936D01*
X0022634Y0074743D01*
X0022600Y0074549D01*
X0022571Y0074354D01*
X0022547Y0074159D01*
X0022527Y0073963D01*
X0022513Y0073767D01*
X0022513Y0077267D02*
X0022513Y0080267D01*
X0020013Y0080267D01*
X0022513Y0077267D02*
X0022515Y0077448D01*
X0022522Y0077629D01*
X0022533Y0077810D01*
X0022548Y0077991D01*
X0022568Y0078171D01*
X0022592Y0078351D01*
X0022620Y0078530D01*
X0022653Y0078708D01*
X0022690Y0078885D01*
X0022731Y0079062D01*
X0022776Y0079237D01*
X0022826Y0079412D01*
X0022880Y0079585D01*
X0022938Y0079756D01*
X0023000Y0079927D01*
X0023067Y0080095D01*
X0023137Y0080262D01*
X0023211Y0080428D01*
X0023290Y0080591D01*
X0023372Y0080752D01*
X0023458Y0080912D01*
X0023548Y0081069D01*
X0023642Y0081224D01*
X0023739Y0081377D01*
X0023841Y0081527D01*
X0023945Y0081675D01*
X0024054Y0081821D01*
X0024165Y0081963D01*
X0024281Y0082103D01*
X0024399Y0082240D01*
X0024521Y0082375D01*
X0024646Y0082506D01*
X0024774Y0082634D01*
X0024905Y0082759D01*
X0025040Y0082881D01*
X0025177Y0082999D01*
X0025317Y0083115D01*
X0025459Y0083226D01*
X0025605Y0083335D01*
X0025753Y0083439D01*
X0025903Y0083541D01*
X0026056Y0083638D01*
X0026211Y0083732D01*
X0026368Y0083822D01*
X0026528Y0083908D01*
X0026689Y0083990D01*
X0026852Y0084069D01*
X0027018Y0084143D01*
X0027185Y0084213D01*
X0027353Y0084280D01*
X0027524Y0084342D01*
X0027695Y0084400D01*
X0027868Y0084454D01*
X0028043Y0084504D01*
X0028218Y0084549D01*
X0028395Y0084590D01*
X0028572Y0084627D01*
X0028750Y0084660D01*
X0028929Y0084688D01*
X0029109Y0084712D01*
X0029289Y0084732D01*
X0029470Y0084747D01*
X0029651Y0084758D01*
X0029832Y0084765D01*
X0030013Y0084767D01*
X0030194Y0084765D01*
X0030375Y0084758D01*
X0030556Y0084747D01*
X0030737Y0084732D01*
X0030917Y0084712D01*
X0031097Y0084688D01*
X0031276Y0084660D01*
X0031454Y0084627D01*
X0031631Y0084590D01*
X0031808Y0084549D01*
X0031983Y0084504D01*
X0032158Y0084454D01*
X0032331Y0084400D01*
X0032502Y0084342D01*
X0032673Y0084280D01*
X0032841Y0084213D01*
X0033008Y0084143D01*
X0033174Y0084069D01*
X0033337Y0083990D01*
X0033498Y0083908D01*
X0033658Y0083822D01*
X0033815Y0083732D01*
X0033970Y0083638D01*
X0034123Y0083541D01*
X0034273Y0083439D01*
X0034421Y0083335D01*
X0034567Y0083226D01*
X0034709Y0083115D01*
X0034849Y0082999D01*
X0034986Y0082881D01*
X0035121Y0082759D01*
X0035252Y0082634D01*
X0035380Y0082506D01*
X0035505Y0082375D01*
X0035627Y0082240D01*
X0035745Y0082103D01*
X0035861Y0081963D01*
X0035972Y0081821D01*
X0036081Y0081675D01*
X0036185Y0081527D01*
X0036287Y0081377D01*
X0036384Y0081224D01*
X0036478Y0081069D01*
X0036568Y0080912D01*
X0036654Y0080752D01*
X0036736Y0080591D01*
X0036815Y0080428D01*
X0036889Y0080262D01*
X0036959Y0080095D01*
X0037026Y0079927D01*
X0037088Y0079756D01*
X0037146Y0079585D01*
X0037200Y0079412D01*
X0037250Y0079237D01*
X0037295Y0079062D01*
X0037336Y0078885D01*
X0037373Y0078708D01*
X0037406Y0078530D01*
X0037434Y0078351D01*
X0037458Y0078171D01*
X0037478Y0077991D01*
X0037493Y0077810D01*
X0037504Y0077629D01*
X0037511Y0077448D01*
X0037513Y0077267D01*
X0030013Y0077767D02*
X0029832Y0077765D01*
X0029651Y0077758D01*
X0029470Y0077747D01*
X0029289Y0077732D01*
X0029109Y0077712D01*
X0028929Y0077688D01*
X0028750Y0077660D01*
X0028572Y0077627D01*
X0028395Y0077590D01*
X0028218Y0077549D01*
X0028043Y0077504D01*
X0027868Y0077454D01*
X0027695Y0077400D01*
X0027524Y0077342D01*
X0027353Y0077280D01*
X0027185Y0077213D01*
X0027018Y0077143D01*
X0026852Y0077069D01*
X0026689Y0076990D01*
X0026528Y0076908D01*
X0026368Y0076822D01*
X0026211Y0076732D01*
X0026056Y0076638D01*
X0025903Y0076541D01*
X0025753Y0076439D01*
X0025605Y0076335D01*
X0025459Y0076226D01*
X0025317Y0076115D01*
X0025177Y0075999D01*
X0025040Y0075881D01*
X0024905Y0075759D01*
X0024774Y0075634D01*
X0024646Y0075506D01*
X0024521Y0075375D01*
X0024399Y0075240D01*
X0024281Y0075103D01*
X0024165Y0074963D01*
X0024054Y0074821D01*
X0023945Y0074675D01*
X0023841Y0074527D01*
X0023739Y0074377D01*
X0023642Y0074224D01*
X0023548Y0074069D01*
X0023458Y0073912D01*
X0023372Y0073752D01*
X0023290Y0073591D01*
X0023211Y0073428D01*
X0023137Y0073262D01*
X0023067Y0073095D01*
X0023000Y0072927D01*
X0022938Y0072756D01*
X0022880Y0072585D01*
X0022826Y0072412D01*
X0022776Y0072237D01*
X0022731Y0072062D01*
X0022690Y0071885D01*
X0022653Y0071708D01*
X0022620Y0071530D01*
X0022592Y0071351D01*
X0022568Y0071171D01*
X0022548Y0070991D01*
X0022533Y0070810D01*
X0022522Y0070629D01*
X0022515Y0070448D01*
X0022513Y0070267D01*
X0030013Y0077767D02*
X0030194Y0077765D01*
X0030375Y0077758D01*
X0030556Y0077747D01*
X0030737Y0077732D01*
X0030917Y0077712D01*
X0031097Y0077688D01*
X0031276Y0077660D01*
X0031454Y0077627D01*
X0031631Y0077590D01*
X0031808Y0077549D01*
X0031983Y0077504D01*
X0032158Y0077454D01*
X0032331Y0077400D01*
X0032502Y0077342D01*
X0032673Y0077280D01*
X0032841Y0077213D01*
X0033008Y0077143D01*
X0033174Y0077069D01*
X0033337Y0076990D01*
X0033498Y0076908D01*
X0033658Y0076822D01*
X0033815Y0076732D01*
X0033970Y0076638D01*
X0034123Y0076541D01*
X0034273Y0076439D01*
X0034421Y0076335D01*
X0034567Y0076226D01*
X0034709Y0076115D01*
X0034849Y0075999D01*
X0034986Y0075881D01*
X0035121Y0075759D01*
X0035252Y0075634D01*
X0035380Y0075506D01*
X0035505Y0075375D01*
X0035627Y0075240D01*
X0035745Y0075103D01*
X0035861Y0074963D01*
X0035972Y0074821D01*
X0036081Y0074675D01*
X0036185Y0074527D01*
X0036287Y0074377D01*
X0036384Y0074224D01*
X0036478Y0074069D01*
X0036568Y0073912D01*
X0036654Y0073752D01*
X0036736Y0073591D01*
X0036815Y0073428D01*
X0036889Y0073262D01*
X0036959Y0073095D01*
X0037026Y0072927D01*
X0037088Y0072756D01*
X0037146Y0072585D01*
X0037200Y0072412D01*
X0037250Y0072237D01*
X0037295Y0072062D01*
X0037336Y0071885D01*
X0037373Y0071708D01*
X0037406Y0071530D01*
X0037434Y0071351D01*
X0037458Y0071171D01*
X0037478Y0070991D01*
X0037493Y0070810D01*
X0037504Y0070629D01*
X0037511Y0070448D01*
X0037513Y0070267D01*
X0037513Y0066767D02*
X0037511Y0066948D01*
X0037504Y0067129D01*
X0037493Y0067310D01*
X0037478Y0067491D01*
X0037458Y0067671D01*
X0037434Y0067851D01*
X0037406Y0068030D01*
X0037373Y0068208D01*
X0037336Y0068385D01*
X0037295Y0068562D01*
X0037250Y0068737D01*
X0037200Y0068912D01*
X0037146Y0069085D01*
X0037088Y0069256D01*
X0037026Y0069427D01*
X0036959Y0069595D01*
X0036889Y0069762D01*
X0036815Y0069928D01*
X0036736Y0070091D01*
X0036654Y0070252D01*
X0036568Y0070412D01*
X0036478Y0070569D01*
X0036384Y0070724D01*
X0036287Y0070877D01*
X0036185Y0071027D01*
X0036081Y0071175D01*
X0035972Y0071321D01*
X0035861Y0071463D01*
X0035745Y0071603D01*
X0035627Y0071740D01*
X0035505Y0071875D01*
X0035380Y0072006D01*
X0035252Y0072134D01*
X0035121Y0072259D01*
X0034986Y0072381D01*
X0034849Y0072499D01*
X0034709Y0072615D01*
X0034567Y0072726D01*
X0034421Y0072835D01*
X0034273Y0072939D01*
X0034123Y0073041D01*
X0033970Y0073138D01*
X0033815Y0073232D01*
X0033658Y0073322D01*
X0033498Y0073408D01*
X0033337Y0073490D01*
X0033174Y0073569D01*
X0033008Y0073643D01*
X0032841Y0073713D01*
X0032673Y0073780D01*
X0032502Y0073842D01*
X0032331Y0073900D01*
X0032158Y0073954D01*
X0031983Y0074004D01*
X0031808Y0074049D01*
X0031631Y0074090D01*
X0031454Y0074127D01*
X0031276Y0074160D01*
X0031097Y0074188D01*
X0030917Y0074212D01*
X0030737Y0074232D01*
X0030556Y0074247D01*
X0030375Y0074258D01*
X0030194Y0074265D01*
X0030013Y0074267D01*
X0117513Y0034267D02*
X0117513Y0026267D01*
X0117515Y0026207D01*
X0117520Y0026146D01*
X0117529Y0026087D01*
X0117542Y0026028D01*
X0117558Y0025969D01*
X0117578Y0025912D01*
X0117601Y0025857D01*
X0117628Y0025802D01*
X0117657Y0025750D01*
X0117690Y0025699D01*
X0117726Y0025650D01*
X0117764Y0025604D01*
X0117806Y0025560D01*
X0117850Y0025518D01*
X0117896Y0025480D01*
X0117945Y0025444D01*
X0117996Y0025411D01*
X0118048Y0025382D01*
X0118103Y0025355D01*
X0118158Y0025332D01*
X0118215Y0025312D01*
X0118274Y0025296D01*
X0118333Y0025283D01*
X0118392Y0025274D01*
X0118453Y0025269D01*
X0118513Y0025267D01*
X0121513Y0025267D01*
X0121573Y0025269D01*
X0121634Y0025274D01*
X0121693Y0025283D01*
X0121752Y0025296D01*
X0121811Y0025312D01*
X0121868Y0025332D01*
X0121923Y0025355D01*
X0121978Y0025382D01*
X0122030Y0025411D01*
X0122081Y0025444D01*
X0122130Y0025480D01*
X0122176Y0025518D01*
X0122220Y0025560D01*
X0122262Y0025604D01*
X0122300Y0025650D01*
X0122336Y0025699D01*
X0122369Y0025750D01*
X0122398Y0025802D01*
X0122425Y0025857D01*
X0122448Y0025912D01*
X0122468Y0025969D01*
X0122484Y0026028D01*
X0122497Y0026087D01*
X0122506Y0026146D01*
X0122511Y0026207D01*
X0122513Y0026267D01*
X0122513Y0034267D01*
X0122511Y0034327D01*
X0122506Y0034388D01*
X0122497Y0034447D01*
X0122484Y0034506D01*
X0122468Y0034565D01*
X0122448Y0034622D01*
X0122425Y0034677D01*
X0122398Y0034732D01*
X0122369Y0034784D01*
X0122336Y0034835D01*
X0122300Y0034884D01*
X0122262Y0034930D01*
X0122220Y0034974D01*
X0122176Y0035016D01*
X0122130Y0035054D01*
X0122081Y0035090D01*
X0122030Y0035123D01*
X0121978Y0035152D01*
X0121923Y0035179D01*
X0121868Y0035202D01*
X0121811Y0035222D01*
X0121752Y0035238D01*
X0121693Y0035251D01*
X0121634Y0035260D01*
X0121573Y0035265D01*
X0121513Y0035267D01*
X0118513Y0035267D01*
X0118453Y0035265D01*
X0118392Y0035260D01*
X0118333Y0035251D01*
X0118274Y0035238D01*
X0118215Y0035222D01*
X0118158Y0035202D01*
X0118103Y0035179D01*
X0118048Y0035152D01*
X0117996Y0035123D01*
X0117945Y0035090D01*
X0117896Y0035054D01*
X0117850Y0035016D01*
X0117806Y0034974D01*
X0117764Y0034930D01*
X0117726Y0034884D01*
X0117690Y0034835D01*
X0117657Y0034784D01*
X0117628Y0034732D01*
X0117601Y0034677D01*
X0117578Y0034622D01*
X0117558Y0034565D01*
X0117542Y0034506D01*
X0117529Y0034447D01*
X0117520Y0034388D01*
X0117515Y0034327D01*
X0117513Y0034267D01*
X0127513Y0028767D02*
X0127513Y0021767D01*
X0127525Y0021674D01*
X0127541Y0021582D01*
X0127561Y0021491D01*
X0127585Y0021400D01*
X0127612Y0021311D01*
X0127643Y0021222D01*
X0127678Y0021135D01*
X0127716Y0021050D01*
X0127758Y0020966D01*
X0127803Y0020884D01*
X0127851Y0020804D01*
X0127903Y0020726D01*
X0127958Y0020650D01*
X0128016Y0020577D01*
X0128077Y0020506D01*
X0128141Y0020438D01*
X0128208Y0020372D01*
X0128277Y0020309D01*
X0128349Y0020249D01*
X0128423Y0020192D01*
X0128500Y0020138D01*
X0128578Y0020088D01*
X0128659Y0020040D01*
X0128742Y0019997D01*
X0128826Y0019956D01*
X0128912Y0019919D01*
X0128999Y0019886D01*
X0129088Y0019856D01*
X0129178Y0019830D01*
X0129269Y0019808D01*
X0129361Y0019789D01*
X0129453Y0019774D01*
X0129546Y0019763D01*
X0129639Y0019756D01*
X0129733Y0019753D01*
X0129826Y0019754D01*
X0129920Y0019758D01*
X0130013Y0019767D01*
X0130106Y0019758D01*
X0130200Y0019754D01*
X0130293Y0019753D01*
X0130387Y0019756D01*
X0130480Y0019763D01*
X0130573Y0019774D01*
X0130665Y0019789D01*
X0130757Y0019808D01*
X0130848Y0019830D01*
X0130938Y0019856D01*
X0131027Y0019886D01*
X0131114Y0019919D01*
X0131200Y0019956D01*
X0131284Y0019997D01*
X0131367Y0020040D01*
X0131448Y0020088D01*
X0131526Y0020138D01*
X0131603Y0020192D01*
X0131677Y0020249D01*
X0131749Y0020309D01*
X0131818Y0020372D01*
X0131885Y0020438D01*
X0131949Y0020506D01*
X0132010Y0020577D01*
X0132068Y0020650D01*
X0132123Y0020726D01*
X0132175Y0020804D01*
X0132223Y0020884D01*
X0132268Y0020966D01*
X0132310Y0021050D01*
X0132348Y0021135D01*
X0132383Y0021222D01*
X0132414Y0021311D01*
X0132441Y0021400D01*
X0132465Y0021491D01*
X0132485Y0021582D01*
X0132501Y0021674D01*
X0132513Y0021767D01*
X0132513Y0028767D01*
X0132501Y0028860D01*
X0132485Y0028952D01*
X0132465Y0029043D01*
X0132441Y0029134D01*
X0132414Y0029223D01*
X0132383Y0029312D01*
X0132348Y0029399D01*
X0132310Y0029484D01*
X0132268Y0029568D01*
X0132223Y0029650D01*
X0132175Y0029730D01*
X0132123Y0029808D01*
X0132068Y0029884D01*
X0132010Y0029957D01*
X0131949Y0030028D01*
X0131885Y0030096D01*
X0131818Y0030162D01*
X0131749Y0030225D01*
X0131677Y0030285D01*
X0131603Y0030342D01*
X0131526Y0030396D01*
X0131448Y0030446D01*
X0131367Y0030494D01*
X0131284Y0030537D01*
X0131200Y0030578D01*
X0131114Y0030615D01*
X0131027Y0030648D01*
X0130938Y0030678D01*
X0130848Y0030704D01*
X0130757Y0030726D01*
X0130665Y0030745D01*
X0130573Y0030760D01*
X0130480Y0030771D01*
X0130387Y0030778D01*
X0130293Y0030781D01*
X0130200Y0030780D01*
X0130106Y0030776D01*
X0130013Y0030767D01*
X0129920Y0030776D01*
X0129826Y0030780D01*
X0129733Y0030781D01*
X0129639Y0030778D01*
X0129546Y0030771D01*
X0129453Y0030760D01*
X0129361Y0030745D01*
X0129269Y0030726D01*
X0129178Y0030704D01*
X0129088Y0030678D01*
X0128999Y0030648D01*
X0128912Y0030615D01*
X0128826Y0030578D01*
X0128742Y0030537D01*
X0128659Y0030494D01*
X0128578Y0030446D01*
X0128500Y0030396D01*
X0128423Y0030342D01*
X0128349Y0030285D01*
X0128277Y0030225D01*
X0128208Y0030162D01*
X0128141Y0030096D01*
X0128077Y0030028D01*
X0128016Y0029957D01*
X0127958Y0029884D01*
X0127903Y0029808D01*
X0127851Y0029730D01*
X0127803Y0029650D01*
X0127758Y0029568D01*
X0127716Y0029484D01*
X0127678Y0029399D01*
X0127643Y0029312D01*
X0127612Y0029223D01*
X0127585Y0029134D01*
X0127561Y0029043D01*
X0127541Y0028952D01*
X0127525Y0028860D01*
X0127513Y0028767D01*
X0154485Y0020765D02*
X0154700Y0020869D01*
X0154913Y0020978D01*
X0155123Y0021092D01*
X0155330Y0021211D01*
X0155535Y0021334D01*
X0155737Y0021462D01*
X0155936Y0021595D01*
X0156131Y0021732D01*
X0156324Y0021873D01*
X0156513Y0022019D01*
X0156513Y0038515D01*
X0150513Y0040755D02*
X0150513Y0019778D01*
X0157513Y0026767D02*
X0157513Y0033767D01*
X0160013Y0036267D02*
X0160111Y0036265D01*
X0160209Y0036259D01*
X0160307Y0036250D01*
X0160404Y0036236D01*
X0160501Y0036219D01*
X0160597Y0036198D01*
X0160692Y0036173D01*
X0160786Y0036145D01*
X0160878Y0036112D01*
X0160970Y0036077D01*
X0161060Y0036037D01*
X0161148Y0035995D01*
X0161235Y0035948D01*
X0161319Y0035899D01*
X0161402Y0035846D01*
X0161482Y0035790D01*
X0161561Y0035730D01*
X0161637Y0035668D01*
X0161710Y0035603D01*
X0161781Y0035535D01*
X0161849Y0035464D01*
X0161914Y0035391D01*
X0161976Y0035315D01*
X0162036Y0035236D01*
X0162092Y0035156D01*
X0162145Y0035073D01*
X0162194Y0034989D01*
X0162241Y0034902D01*
X0162283Y0034814D01*
X0162323Y0034724D01*
X0162358Y0034632D01*
X0162391Y0034540D01*
X0162419Y0034446D01*
X0162444Y0034351D01*
X0162465Y0034255D01*
X0162482Y0034158D01*
X0162496Y0034061D01*
X0162505Y0033963D01*
X0162511Y0033865D01*
X0162513Y0033767D01*
X0162513Y0026767D01*
X0160013Y0024267D02*
X0159915Y0024269D01*
X0159817Y0024275D01*
X0159719Y0024284D01*
X0159622Y0024298D01*
X0159525Y0024315D01*
X0159429Y0024336D01*
X0159334Y0024361D01*
X0159240Y0024389D01*
X0159148Y0024422D01*
X0159056Y0024457D01*
X0158966Y0024497D01*
X0158878Y0024539D01*
X0158791Y0024586D01*
X0158707Y0024635D01*
X0158624Y0024688D01*
X0158544Y0024744D01*
X0158465Y0024804D01*
X0158389Y0024866D01*
X0158316Y0024931D01*
X0158245Y0024999D01*
X0158177Y0025070D01*
X0158112Y0025143D01*
X0158050Y0025219D01*
X0157990Y0025298D01*
X0157934Y0025378D01*
X0157881Y0025461D01*
X0157832Y0025545D01*
X0157785Y0025632D01*
X0157743Y0025720D01*
X0157703Y0025810D01*
X0157668Y0025902D01*
X0157635Y0025994D01*
X0157607Y0026088D01*
X0157582Y0026183D01*
X0157561Y0026279D01*
X0157544Y0026376D01*
X0157530Y0026473D01*
X0157521Y0026571D01*
X0157515Y0026669D01*
X0157513Y0026767D01*
X0160013Y0024267D02*
X0160111Y0024269D01*
X0160209Y0024275D01*
X0160307Y0024284D01*
X0160404Y0024298D01*
X0160501Y0024315D01*
X0160597Y0024336D01*
X0160692Y0024361D01*
X0160786Y0024389D01*
X0160878Y0024422D01*
X0160970Y0024457D01*
X0161060Y0024497D01*
X0161148Y0024539D01*
X0161235Y0024586D01*
X0161319Y0024635D01*
X0161402Y0024688D01*
X0161482Y0024744D01*
X0161561Y0024804D01*
X0161637Y0024866D01*
X0161710Y0024931D01*
X0161781Y0024999D01*
X0161849Y0025070D01*
X0161914Y0025143D01*
X0161976Y0025219D01*
X0162036Y0025298D01*
X0162092Y0025378D01*
X0162145Y0025461D01*
X0162194Y0025545D01*
X0162241Y0025632D01*
X0162283Y0025720D01*
X0162323Y0025810D01*
X0162358Y0025902D01*
X0162391Y0025994D01*
X0162419Y0026088D01*
X0162444Y0026183D01*
X0162465Y0026279D01*
X0162482Y0026376D01*
X0162496Y0026473D01*
X0162505Y0026571D01*
X0162511Y0026669D01*
X0162513Y0026767D01*
X0157513Y0033767D02*
X0157515Y0033865D01*
X0157521Y0033963D01*
X0157530Y0034061D01*
X0157544Y0034158D01*
X0157561Y0034255D01*
X0157582Y0034351D01*
X0157607Y0034446D01*
X0157635Y0034540D01*
X0157668Y0034632D01*
X0157703Y0034724D01*
X0157743Y0034814D01*
X0157785Y0034902D01*
X0157832Y0034989D01*
X0157881Y0035073D01*
X0157934Y0035156D01*
X0157990Y0035236D01*
X0158050Y0035315D01*
X0158112Y0035391D01*
X0158177Y0035464D01*
X0158245Y0035535D01*
X0158316Y0035603D01*
X0158389Y0035668D01*
X0158465Y0035730D01*
X0158544Y0035790D01*
X0158624Y0035846D01*
X0158707Y0035899D01*
X0158791Y0035948D01*
X0158878Y0035995D01*
X0158966Y0036037D01*
X0159056Y0036077D01*
X0159148Y0036112D01*
X0159240Y0036145D01*
X0159334Y0036173D01*
X0159429Y0036198D01*
X0159525Y0036219D01*
X0159622Y0036236D01*
X0159719Y0036250D01*
X0159817Y0036259D01*
X0159915Y0036265D01*
X0160013Y0036267D01*
X0160111Y0036265D01*
X0160209Y0036259D01*
X0160307Y0036250D01*
X0160404Y0036236D01*
X0160501Y0036219D01*
X0160597Y0036198D01*
X0160692Y0036173D01*
X0160786Y0036145D01*
X0160878Y0036112D01*
X0160970Y0036077D01*
X0161060Y0036037D01*
X0161148Y0035995D01*
X0161235Y0035948D01*
X0161319Y0035899D01*
X0161402Y0035846D01*
X0161482Y0035790D01*
X0161561Y0035730D01*
X0161637Y0035668D01*
X0161710Y0035603D01*
X0161781Y0035535D01*
X0161849Y0035464D01*
X0161914Y0035391D01*
X0161976Y0035315D01*
X0162036Y0035236D01*
X0162092Y0035156D01*
X0162145Y0035073D01*
X0162194Y0034989D01*
X0162241Y0034902D01*
X0162283Y0034814D01*
X0162323Y0034724D01*
X0162358Y0034632D01*
X0162391Y0034540D01*
X0162419Y0034446D01*
X0162444Y0034351D01*
X0162465Y0034255D01*
X0162482Y0034158D01*
X0162496Y0034061D01*
X0162505Y0033963D01*
X0162511Y0033865D01*
X0162513Y0033767D01*
X0150513Y0040755D02*
X0150257Y0040764D01*
X0150001Y0040767D01*
X0149745Y0040764D01*
X0149489Y0040754D01*
X0149234Y0040738D01*
X0148979Y0040716D01*
X0148724Y0040688D01*
X0148471Y0040653D01*
X0148218Y0040612D01*
X0147966Y0040566D01*
X0147716Y0040513D01*
X0147467Y0040454D01*
X0147219Y0040388D01*
X0146973Y0040317D01*
X0146729Y0040240D01*
X0146487Y0040157D01*
X0146247Y0040068D01*
X0146009Y0039974D01*
X0145774Y0039873D01*
X0145541Y0039767D01*
X0154391Y0039813D02*
X0154616Y0039706D01*
X0154839Y0039594D01*
X0155059Y0039477D01*
X0155276Y0039355D01*
X0155491Y0039227D01*
X0155702Y0039094D01*
X0155910Y0038957D01*
X0156114Y0038814D01*
X0156316Y0038667D01*
X0156513Y0038515D01*
X0150513Y0019779D02*
X0150257Y0019770D01*
X0150001Y0019767D01*
X0149745Y0019770D01*
X0149489Y0019780D01*
X0149234Y0019796D01*
X0148979Y0019818D01*
X0148724Y0019846D01*
X0148471Y0019881D01*
X0148218Y0019922D01*
X0147966Y0019968D01*
X0147716Y0020021D01*
X0147467Y0020080D01*
X0147219Y0020146D01*
X0146973Y0020217D01*
X0146729Y0020294D01*
X0146487Y0020377D01*
X0146247Y0020466D01*
X0146009Y0020560D01*
X0145774Y0020661D01*
X0145541Y0020767D01*
X0150513Y0019779D02*
X0150770Y0019794D01*
X0151027Y0019816D01*
X0151283Y0019844D01*
X0151538Y0019878D01*
X0151792Y0019919D01*
X0152045Y0019966D01*
X0152297Y0020019D01*
X0152548Y0020078D01*
X0152797Y0020143D01*
X0153044Y0020214D01*
X0153290Y0020291D01*
X0153534Y0020375D01*
X0153775Y0020464D01*
X0154014Y0020559D01*
X0154251Y0020660D01*
X0154485Y0020767D01*
X0145541Y0020767D02*
X0145311Y0020879D01*
X0145084Y0020996D01*
X0144860Y0021118D01*
X0144639Y0021246D01*
X0144422Y0021380D01*
X0144207Y0021518D01*
X0143996Y0021662D01*
X0143789Y0021811D01*
X0143585Y0021965D01*
X0143385Y0022123D01*
X0143189Y0022287D01*
X0142997Y0022455D01*
X0142809Y0022628D01*
X0142625Y0022806D01*
X0142446Y0022987D01*
X0142271Y0023174D01*
X0142101Y0023364D01*
X0141936Y0023558D01*
X0141775Y0023757D01*
X0141619Y0023959D01*
X0141468Y0024165D01*
X0141322Y0024375D01*
X0141182Y0024588D01*
X0141046Y0024804D01*
X0140916Y0025024D01*
X0140791Y0025247D01*
X0140672Y0025472D01*
X0140558Y0025701D01*
X0140450Y0025932D01*
X0140347Y0026166D01*
X0140250Y0026402D01*
X0140159Y0026641D01*
X0140074Y0026881D01*
X0139994Y0027124D01*
X0139921Y0027369D01*
X0139853Y0027615D01*
X0139792Y0027863D01*
X0139737Y0028112D01*
X0139687Y0028362D01*
X0139644Y0028614D01*
X0139607Y0028867D01*
X0139576Y0029120D01*
X0139551Y0029374D01*
X0139532Y0029629D01*
X0139520Y0029884D01*
X0139514Y0030139D01*
X0139514Y0030395D01*
X0139520Y0030650D01*
X0139532Y0030905D01*
X0139551Y0031160D01*
X0139576Y0031414D01*
X0139607Y0031667D01*
X0139644Y0031920D01*
X0139687Y0032172D01*
X0139737Y0032422D01*
X0139792Y0032671D01*
X0139853Y0032919D01*
X0139921Y0033165D01*
X0139994Y0033410D01*
X0140074Y0033653D01*
X0140159Y0033893D01*
X0140250Y0034132D01*
X0140347Y0034368D01*
X0140450Y0034602D01*
X0140558Y0034833D01*
X0140672Y0035062D01*
X0140791Y0035287D01*
X0140916Y0035510D01*
X0141046Y0035730D01*
X0141182Y0035946D01*
X0141322Y0036159D01*
X0141468Y0036369D01*
X0141619Y0036575D01*
X0141775Y0036777D01*
X0141936Y0036976D01*
X0142101Y0037170D01*
X0142271Y0037360D01*
X0142446Y0037547D01*
X0142625Y0037728D01*
X0142809Y0037906D01*
X0142997Y0038079D01*
X0143189Y0038247D01*
X0143385Y0038411D01*
X0143585Y0038569D01*
X0143789Y0038723D01*
X0143996Y0038872D01*
X0144207Y0039016D01*
X0144422Y0039154D01*
X0144639Y0039288D01*
X0144860Y0039416D01*
X0145084Y0039538D01*
X0145311Y0039655D01*
X0145541Y0039767D01*
X0150513Y0040755D02*
X0150770Y0040740D01*
X0151027Y0040718D01*
X0151283Y0040690D01*
X0151538Y0040656D01*
X0151792Y0040615D01*
X0152045Y0040568D01*
X0152297Y0040515D01*
X0152548Y0040456D01*
X0152797Y0040391D01*
X0153044Y0040320D01*
X0153290Y0040243D01*
X0153534Y0040159D01*
X0153775Y0040070D01*
X0154014Y0039975D01*
X0154251Y0039874D01*
X0154485Y0039767D01*
X0154013Y0065267D02*
X0154015Y0065421D01*
X0154021Y0065576D01*
X0154031Y0065730D01*
X0154045Y0065884D01*
X0154063Y0066037D01*
X0154084Y0066190D01*
X0154110Y0066343D01*
X0154140Y0066494D01*
X0154173Y0066645D01*
X0154211Y0066795D01*
X0154252Y0066944D01*
X0154297Y0067092D01*
X0154346Y0067238D01*
X0154399Y0067384D01*
X0154455Y0067527D01*
X0154515Y0067670D01*
X0154579Y0067810D01*
X0154646Y0067950D01*
X0154717Y0068087D01*
X0154791Y0068222D01*
X0154869Y0068356D01*
X0154950Y0068487D01*
X0155035Y0068616D01*
X0155123Y0068744D01*
X0155214Y0068868D01*
X0155308Y0068991D01*
X0155406Y0069111D01*
X0155506Y0069228D01*
X0155610Y0069343D01*
X0155716Y0069455D01*
X0155825Y0069564D01*
X0155937Y0069670D01*
X0156052Y0069774D01*
X0156169Y0069874D01*
X0156289Y0069972D01*
X0156412Y0070066D01*
X0156536Y0070157D01*
X0156664Y0070245D01*
X0156793Y0070330D01*
X0156924Y0070411D01*
X0157058Y0070489D01*
X0157193Y0070563D01*
X0157330Y0070634D01*
X0157470Y0070701D01*
X0157610Y0070765D01*
X0157753Y0070825D01*
X0157896Y0070881D01*
X0158042Y0070934D01*
X0158188Y0070983D01*
X0158336Y0071028D01*
X0158485Y0071069D01*
X0158635Y0071107D01*
X0158786Y0071140D01*
X0158937Y0071170D01*
X0159090Y0071196D01*
X0159243Y0071217D01*
X0159396Y0071235D01*
X0159550Y0071249D01*
X0159704Y0071259D01*
X0159859Y0071265D01*
X0160013Y0071267D01*
X0160167Y0071265D01*
X0160322Y0071259D01*
X0160476Y0071249D01*
X0160630Y0071235D01*
X0160783Y0071217D01*
X0160936Y0071196D01*
X0161089Y0071170D01*
X0161240Y0071140D01*
X0161391Y0071107D01*
X0161541Y0071069D01*
X0161690Y0071028D01*
X0161838Y0070983D01*
X0161984Y0070934D01*
X0162130Y0070881D01*
X0162273Y0070825D01*
X0162416Y0070765D01*
X0162556Y0070701D01*
X0162696Y0070634D01*
X0162833Y0070563D01*
X0162968Y0070489D01*
X0163102Y0070411D01*
X0163233Y0070330D01*
X0163362Y0070245D01*
X0163490Y0070157D01*
X0163614Y0070066D01*
X0163737Y0069972D01*
X0163857Y0069874D01*
X0163974Y0069774D01*
X0164089Y0069670D01*
X0164201Y0069564D01*
X0164310Y0069455D01*
X0164416Y0069343D01*
X0164520Y0069228D01*
X0164620Y0069111D01*
X0164718Y0068991D01*
X0164812Y0068868D01*
X0164903Y0068744D01*
X0164991Y0068616D01*
X0165076Y0068487D01*
X0165157Y0068356D01*
X0165235Y0068222D01*
X0165309Y0068087D01*
X0165380Y0067950D01*
X0165447Y0067810D01*
X0165511Y0067670D01*
X0165571Y0067527D01*
X0165627Y0067384D01*
X0165680Y0067238D01*
X0165729Y0067092D01*
X0165774Y0066944D01*
X0165815Y0066795D01*
X0165853Y0066645D01*
X0165886Y0066494D01*
X0165916Y0066343D01*
X0165942Y0066190D01*
X0165963Y0066037D01*
X0165981Y0065884D01*
X0165995Y0065730D01*
X0166005Y0065576D01*
X0166011Y0065421D01*
X0166013Y0065267D01*
X0166011Y0065113D01*
X0166005Y0064958D01*
X0165995Y0064804D01*
X0165981Y0064650D01*
X0165963Y0064497D01*
X0165942Y0064344D01*
X0165916Y0064191D01*
X0165886Y0064040D01*
X0165853Y0063889D01*
X0165815Y0063739D01*
X0165774Y0063590D01*
X0165729Y0063442D01*
X0165680Y0063296D01*
X0165627Y0063150D01*
X0165571Y0063007D01*
X0165511Y0062864D01*
X0165447Y0062724D01*
X0165380Y0062584D01*
X0165309Y0062447D01*
X0165235Y0062312D01*
X0165157Y0062178D01*
X0165076Y0062047D01*
X0164991Y0061918D01*
X0164903Y0061790D01*
X0164812Y0061666D01*
X0164718Y0061543D01*
X0164620Y0061423D01*
X0164520Y0061306D01*
X0164416Y0061191D01*
X0164310Y0061079D01*
X0164201Y0060970D01*
X0164089Y0060864D01*
X0163974Y0060760D01*
X0163857Y0060660D01*
X0163737Y0060562D01*
X0163614Y0060468D01*
X0163490Y0060377D01*
X0163362Y0060289D01*
X0163233Y0060204D01*
X0163102Y0060123D01*
X0162968Y0060045D01*
X0162833Y0059971D01*
X0162696Y0059900D01*
X0162556Y0059833D01*
X0162416Y0059769D01*
X0162273Y0059709D01*
X0162130Y0059653D01*
X0161984Y0059600D01*
X0161838Y0059551D01*
X0161690Y0059506D01*
X0161541Y0059465D01*
X0161391Y0059427D01*
X0161240Y0059394D01*
X0161089Y0059364D01*
X0160936Y0059338D01*
X0160783Y0059317D01*
X0160630Y0059299D01*
X0160476Y0059285D01*
X0160322Y0059275D01*
X0160167Y0059269D01*
X0160013Y0059267D01*
X0159859Y0059269D01*
X0159704Y0059275D01*
X0159550Y0059285D01*
X0159396Y0059299D01*
X0159243Y0059317D01*
X0159090Y0059338D01*
X0158937Y0059364D01*
X0158786Y0059394D01*
X0158635Y0059427D01*
X0158485Y0059465D01*
X0158336Y0059506D01*
X0158188Y0059551D01*
X0158042Y0059600D01*
X0157896Y0059653D01*
X0157753Y0059709D01*
X0157610Y0059769D01*
X0157470Y0059833D01*
X0157330Y0059900D01*
X0157193Y0059971D01*
X0157058Y0060045D01*
X0156924Y0060123D01*
X0156793Y0060204D01*
X0156664Y0060289D01*
X0156536Y0060377D01*
X0156412Y0060468D01*
X0156289Y0060562D01*
X0156169Y0060660D01*
X0156052Y0060760D01*
X0155937Y0060864D01*
X0155825Y0060970D01*
X0155716Y0061079D01*
X0155610Y0061191D01*
X0155506Y0061306D01*
X0155406Y0061423D01*
X0155308Y0061543D01*
X0155214Y0061666D01*
X0155123Y0061790D01*
X0155035Y0061918D01*
X0154950Y0062047D01*
X0154869Y0062178D01*
X0154791Y0062312D01*
X0154717Y0062447D01*
X0154646Y0062584D01*
X0154579Y0062724D01*
X0154515Y0062864D01*
X0154455Y0063007D01*
X0154399Y0063150D01*
X0154346Y0063296D01*
X0154297Y0063442D01*
X0154252Y0063590D01*
X0154211Y0063739D01*
X0154173Y0063889D01*
X0154140Y0064040D01*
X0154110Y0064191D01*
X0154084Y0064344D01*
X0154063Y0064497D01*
X0154045Y0064650D01*
X0154031Y0064804D01*
X0154021Y0064958D01*
X0154015Y0065113D01*
X0154013Y0065267D01*
D12*
X0170013Y0061267D03*
X0170013Y0059267D03*
X0160013Y0031267D03*
X0160013Y0029267D03*
X0050013Y0059267D03*
X0050013Y0061267D03*
D13*
X0045863Y0057352D02*
X0045863Y0055417D01*
X0045863Y0056384D02*
X0042961Y0056384D01*
X0043928Y0055417D01*
X0042961Y0054405D02*
X0042961Y0052470D01*
X0042961Y0053438D02*
X0045863Y0053438D01*
X0032098Y0049835D02*
X0032098Y0049352D01*
X0031614Y0048868D01*
X0032098Y0048384D01*
X0032098Y0047900D01*
X0031614Y0047417D01*
X0030647Y0047417D01*
X0030163Y0047900D01*
X0029152Y0047900D02*
X0028668Y0047417D01*
X0027700Y0047417D01*
X0027217Y0047900D01*
X0027217Y0049835D01*
X0027700Y0050319D01*
X0028668Y0050319D01*
X0029152Y0049835D01*
X0030163Y0049835D02*
X0030647Y0050319D01*
X0031614Y0050319D01*
X0032098Y0049835D01*
X0031614Y0048868D02*
X0031131Y0048868D01*
X0033110Y0033319D02*
X0035045Y0033319D01*
X0034077Y0031868D02*
X0033110Y0031868D01*
X0032098Y0031868D02*
X0032098Y0030900D01*
X0031614Y0030417D01*
X0030163Y0030417D01*
X0030163Y0029449D02*
X0030163Y0032352D01*
X0031614Y0032352D01*
X0032098Y0031868D01*
X0033110Y0030417D02*
X0033110Y0033319D01*
X0029152Y0033319D02*
X0027217Y0033319D01*
X0027217Y0031868D01*
X0028184Y0032352D01*
X0028668Y0032352D01*
X0029152Y0031868D01*
X0029152Y0030900D01*
X0028668Y0030417D01*
X0027700Y0030417D01*
X0027217Y0030900D01*
X0026205Y0030417D02*
X0024270Y0030417D01*
X0025238Y0030417D02*
X0025238Y0033319D01*
X0024270Y0032352D01*
X0093560Y0064300D02*
X0095495Y0066235D01*
X0095495Y0064300D01*
X0095011Y0063817D01*
X0094044Y0063817D01*
X0093560Y0064300D01*
X0093560Y0066235D01*
X0094044Y0066719D01*
X0095011Y0066719D01*
X0095495Y0066235D01*
X0096507Y0064300D02*
X0096991Y0064300D01*
X0096991Y0063817D01*
X0096507Y0063817D01*
X0096507Y0064300D01*
X0097980Y0064300D02*
X0098464Y0063817D01*
X0099431Y0063817D01*
X0099915Y0064300D01*
X0099915Y0064784D01*
X0099431Y0065268D01*
X0098948Y0065268D01*
X0099431Y0065268D02*
X0099915Y0065752D01*
X0099915Y0066235D01*
X0099431Y0066719D01*
X0098464Y0066719D01*
X0097980Y0066235D01*
X0100927Y0066235D02*
X0101410Y0066719D01*
X0102378Y0066719D01*
X0102862Y0066235D01*
X0102862Y0065752D01*
X0102378Y0065268D01*
X0102862Y0064784D01*
X0102862Y0064300D01*
X0102378Y0063817D01*
X0101410Y0063817D01*
X0100927Y0064300D01*
X0101894Y0065268D02*
X0102378Y0065268D01*
X0104357Y0065268D02*
X0104357Y0064300D01*
X0104357Y0063333D01*
X0103873Y0062849D01*
X0104841Y0063817D02*
X0105324Y0063817D01*
X0105808Y0064300D01*
X0105808Y0065268D01*
X0106820Y0065268D02*
X0108755Y0065268D01*
X0108755Y0066719D02*
X0108755Y0063817D01*
X0106820Y0063817D02*
X0106820Y0066719D01*
X0104357Y0064300D02*
X0104841Y0063817D01*
X0104270Y0035219D02*
X0104270Y0032317D01*
X0106205Y0032317D01*
X0107217Y0032317D02*
X0109152Y0034252D01*
X0109152Y0034735D01*
X0108668Y0035219D01*
X0107700Y0035219D01*
X0107217Y0034735D01*
X0107217Y0032317D02*
X0109152Y0032317D01*
X0163263Y0067767D02*
X0163763Y0067767D01*
X0164263Y0067767D01*
X0163763Y0067767D02*
X0163763Y0067267D01*
X0163763Y0067767D02*
X0163763Y0068267D01*
D14*
X0160013Y0064117D03*
D15*
X0152513Y0061267D02*
X0152513Y0069267D01*
X0152511Y0069327D01*
X0152506Y0069388D01*
X0152497Y0069447D01*
X0152484Y0069506D01*
X0152468Y0069565D01*
X0152448Y0069622D01*
X0152425Y0069677D01*
X0152398Y0069732D01*
X0152369Y0069784D01*
X0152336Y0069835D01*
X0152300Y0069884D01*
X0152262Y0069930D01*
X0152220Y0069974D01*
X0152176Y0070016D01*
X0152130Y0070054D01*
X0152081Y0070090D01*
X0152030Y0070123D01*
X0151978Y0070152D01*
X0151923Y0070179D01*
X0151868Y0070202D01*
X0151811Y0070222D01*
X0151752Y0070238D01*
X0151693Y0070251D01*
X0151634Y0070260D01*
X0151573Y0070265D01*
X0151513Y0070267D01*
X0148513Y0070267D01*
X0148453Y0070265D01*
X0148392Y0070260D01*
X0148333Y0070251D01*
X0148274Y0070238D01*
X0148215Y0070222D01*
X0148158Y0070202D01*
X0148103Y0070179D01*
X0148048Y0070152D01*
X0147996Y0070123D01*
X0147945Y0070090D01*
X0147896Y0070054D01*
X0147850Y0070016D01*
X0147806Y0069974D01*
X0147764Y0069930D01*
X0147726Y0069884D01*
X0147690Y0069835D01*
X0147657Y0069784D01*
X0147628Y0069732D01*
X0147601Y0069677D01*
X0147578Y0069622D01*
X0147558Y0069565D01*
X0147542Y0069506D01*
X0147529Y0069447D01*
X0147520Y0069388D01*
X0147515Y0069327D01*
X0147513Y0069267D01*
X0147513Y0061267D01*
X0147515Y0061207D01*
X0147520Y0061146D01*
X0147529Y0061087D01*
X0147542Y0061028D01*
X0147558Y0060969D01*
X0147578Y0060912D01*
X0147601Y0060857D01*
X0147628Y0060802D01*
X0147657Y0060750D01*
X0147690Y0060699D01*
X0147726Y0060650D01*
X0147764Y0060604D01*
X0147806Y0060560D01*
X0147850Y0060518D01*
X0147896Y0060480D01*
X0147945Y0060444D01*
X0147996Y0060411D01*
X0148048Y0060382D01*
X0148103Y0060355D01*
X0148158Y0060332D01*
X0148215Y0060312D01*
X0148274Y0060296D01*
X0148333Y0060283D01*
X0148392Y0060274D01*
X0148453Y0060269D01*
X0148513Y0060267D01*
X0151513Y0060267D01*
X0151573Y0060269D01*
X0151634Y0060274D01*
X0151693Y0060283D01*
X0151752Y0060296D01*
X0151811Y0060312D01*
X0151868Y0060332D01*
X0151923Y0060355D01*
X0151978Y0060382D01*
X0152030Y0060411D01*
X0152081Y0060444D01*
X0152130Y0060480D01*
X0152176Y0060518D01*
X0152220Y0060560D01*
X0152262Y0060604D01*
X0152300Y0060650D01*
X0152336Y0060699D01*
X0152369Y0060750D01*
X0152398Y0060802D01*
X0152425Y0060857D01*
X0152448Y0060912D01*
X0152468Y0060969D01*
X0152484Y0061028D01*
X0152497Y0061087D01*
X0152506Y0061146D01*
X0152511Y0061207D01*
X0152513Y0061267D01*
X0152511Y0061207D01*
X0152506Y0061146D01*
X0152497Y0061087D01*
X0152484Y0061028D01*
X0152468Y0060969D01*
X0152448Y0060912D01*
X0152425Y0060857D01*
X0152398Y0060802D01*
X0152369Y0060750D01*
X0152336Y0060699D01*
X0152300Y0060650D01*
X0152262Y0060604D01*
X0152220Y0060560D01*
X0152176Y0060518D01*
X0152130Y0060480D01*
X0152081Y0060444D01*
X0152030Y0060411D01*
X0151978Y0060382D01*
X0151923Y0060355D01*
X0151868Y0060332D01*
X0151811Y0060312D01*
X0151752Y0060296D01*
X0151693Y0060283D01*
X0151634Y0060274D01*
X0151573Y0060269D01*
X0151513Y0060267D01*
X0148513Y0060267D02*
X0148453Y0060269D01*
X0148392Y0060274D01*
X0148333Y0060283D01*
X0148274Y0060296D01*
X0148215Y0060312D01*
X0148158Y0060332D01*
X0148103Y0060355D01*
X0148048Y0060382D01*
X0147996Y0060411D01*
X0147945Y0060444D01*
X0147896Y0060480D01*
X0147850Y0060518D01*
X0147806Y0060560D01*
X0147764Y0060604D01*
X0147726Y0060650D01*
X0147690Y0060699D01*
X0147657Y0060750D01*
X0147628Y0060802D01*
X0147601Y0060857D01*
X0147578Y0060912D01*
X0147558Y0060969D01*
X0147542Y0061028D01*
X0147529Y0061087D01*
X0147520Y0061146D01*
X0147515Y0061207D01*
X0147513Y0061267D01*
X0147513Y0069267D02*
X0147515Y0069327D01*
X0147520Y0069388D01*
X0147529Y0069447D01*
X0147542Y0069506D01*
X0147558Y0069565D01*
X0147578Y0069622D01*
X0147601Y0069677D01*
X0147628Y0069732D01*
X0147657Y0069784D01*
X0147690Y0069835D01*
X0147726Y0069884D01*
X0147764Y0069930D01*
X0147806Y0069974D01*
X0147850Y0070016D01*
X0147896Y0070054D01*
X0147945Y0070090D01*
X0147996Y0070123D01*
X0148048Y0070152D01*
X0148103Y0070179D01*
X0148158Y0070202D01*
X0148215Y0070222D01*
X0148274Y0070238D01*
X0148333Y0070251D01*
X0148392Y0070260D01*
X0148453Y0070265D01*
X0148513Y0070267D01*
X0151513Y0070267D02*
X0151573Y0070265D01*
X0151634Y0070260D01*
X0151693Y0070251D01*
X0151752Y0070238D01*
X0151811Y0070222D01*
X0151868Y0070202D01*
X0151923Y0070179D01*
X0151978Y0070152D01*
X0152030Y0070123D01*
X0152081Y0070090D01*
X0152130Y0070054D01*
X0152176Y0070016D01*
X0152220Y0069974D01*
X0152262Y0069930D01*
X0152300Y0069884D01*
X0152336Y0069835D01*
X0152369Y0069784D01*
X0152398Y0069732D01*
X0152425Y0069677D01*
X0152448Y0069622D01*
X0152468Y0069565D01*
X0152484Y0069506D01*
X0152497Y0069447D01*
X0152506Y0069388D01*
X0152511Y0069327D01*
X0152513Y0069267D01*
X0132513Y0059267D02*
X0132513Y0051267D01*
X0132511Y0051207D01*
X0132506Y0051146D01*
X0132497Y0051087D01*
X0132484Y0051028D01*
X0132468Y0050969D01*
X0132448Y0050912D01*
X0132425Y0050857D01*
X0132398Y0050802D01*
X0132369Y0050750D01*
X0132336Y0050699D01*
X0132300Y0050650D01*
X0132262Y0050604D01*
X0132220Y0050560D01*
X0132176Y0050518D01*
X0132130Y0050480D01*
X0132081Y0050444D01*
X0132030Y0050411D01*
X0131978Y0050382D01*
X0131923Y0050355D01*
X0131868Y0050332D01*
X0131811Y0050312D01*
X0131752Y0050296D01*
X0131693Y0050283D01*
X0131634Y0050274D01*
X0131573Y0050269D01*
X0131513Y0050267D01*
X0128513Y0050267D01*
X0128453Y0050269D01*
X0128392Y0050274D01*
X0128333Y0050283D01*
X0128274Y0050296D01*
X0128215Y0050312D01*
X0128158Y0050332D01*
X0128103Y0050355D01*
X0128048Y0050382D01*
X0127996Y0050411D01*
X0127945Y0050444D01*
X0127896Y0050480D01*
X0127850Y0050518D01*
X0127806Y0050560D01*
X0127764Y0050604D01*
X0127726Y0050650D01*
X0127690Y0050699D01*
X0127657Y0050750D01*
X0127628Y0050802D01*
X0127601Y0050857D01*
X0127578Y0050912D01*
X0127558Y0050969D01*
X0127542Y0051028D01*
X0127529Y0051087D01*
X0127520Y0051146D01*
X0127515Y0051207D01*
X0127513Y0051267D01*
X0127513Y0059267D01*
X0127515Y0059327D01*
X0127520Y0059388D01*
X0127529Y0059447D01*
X0127542Y0059506D01*
X0127558Y0059565D01*
X0127578Y0059622D01*
X0127601Y0059677D01*
X0127628Y0059732D01*
X0127657Y0059784D01*
X0127690Y0059835D01*
X0127726Y0059884D01*
X0127764Y0059930D01*
X0127806Y0059974D01*
X0127850Y0060016D01*
X0127896Y0060054D01*
X0127945Y0060090D01*
X0127996Y0060123D01*
X0128048Y0060152D01*
X0128103Y0060179D01*
X0128158Y0060202D01*
X0128215Y0060222D01*
X0128274Y0060238D01*
X0128333Y0060251D01*
X0128392Y0060260D01*
X0128453Y0060265D01*
X0128513Y0060267D01*
X0131513Y0060267D01*
X0131573Y0060265D01*
X0131634Y0060260D01*
X0131693Y0060251D01*
X0131752Y0060238D01*
X0131811Y0060222D01*
X0131868Y0060202D01*
X0131923Y0060179D01*
X0131978Y0060152D01*
X0132030Y0060123D01*
X0132081Y0060090D01*
X0132130Y0060054D01*
X0132176Y0060016D01*
X0132220Y0059974D01*
X0132262Y0059930D01*
X0132300Y0059884D01*
X0132336Y0059835D01*
X0132369Y0059784D01*
X0132398Y0059732D01*
X0132425Y0059677D01*
X0132448Y0059622D01*
X0132468Y0059565D01*
X0132484Y0059506D01*
X0132497Y0059447D01*
X0132506Y0059388D01*
X0132511Y0059327D01*
X0132513Y0059267D01*
X0132511Y0059327D01*
X0132506Y0059388D01*
X0132497Y0059447D01*
X0132484Y0059506D01*
X0132468Y0059565D01*
X0132448Y0059622D01*
X0132425Y0059677D01*
X0132398Y0059732D01*
X0132369Y0059784D01*
X0132336Y0059835D01*
X0132300Y0059884D01*
X0132262Y0059930D01*
X0132220Y0059974D01*
X0132176Y0060016D01*
X0132130Y0060054D01*
X0132081Y0060090D01*
X0132030Y0060123D01*
X0131978Y0060152D01*
X0131923Y0060179D01*
X0131868Y0060202D01*
X0131811Y0060222D01*
X0131752Y0060238D01*
X0131693Y0060251D01*
X0131634Y0060260D01*
X0131573Y0060265D01*
X0131513Y0060267D01*
X0128513Y0060267D02*
X0128453Y0060265D01*
X0128392Y0060260D01*
X0128333Y0060251D01*
X0128274Y0060238D01*
X0128215Y0060222D01*
X0128158Y0060202D01*
X0128103Y0060179D01*
X0128048Y0060152D01*
X0127996Y0060123D01*
X0127945Y0060090D01*
X0127896Y0060054D01*
X0127850Y0060016D01*
X0127806Y0059974D01*
X0127764Y0059930D01*
X0127726Y0059884D01*
X0127690Y0059835D01*
X0127657Y0059784D01*
X0127628Y0059732D01*
X0127601Y0059677D01*
X0127578Y0059622D01*
X0127558Y0059565D01*
X0127542Y0059506D01*
X0127529Y0059447D01*
X0127520Y0059388D01*
X0127515Y0059327D01*
X0127513Y0059267D01*
X0120013Y0058967D02*
X0120013Y0055267D01*
X0117513Y0051767D02*
X0117426Y0051769D01*
X0117339Y0051775D01*
X0117252Y0051784D01*
X0117166Y0051797D01*
X0117080Y0051814D01*
X0116995Y0051835D01*
X0116912Y0051860D01*
X0116829Y0051888D01*
X0116748Y0051919D01*
X0116668Y0051954D01*
X0116590Y0051993D01*
X0116513Y0052035D01*
X0116438Y0052080D01*
X0116366Y0052129D01*
X0116295Y0052180D01*
X0116227Y0052235D01*
X0116162Y0052292D01*
X0116099Y0052353D01*
X0116038Y0052416D01*
X0115981Y0052481D01*
X0115926Y0052549D01*
X0115875Y0052620D01*
X0115826Y0052692D01*
X0115781Y0052767D01*
X0115739Y0052844D01*
X0115700Y0052922D01*
X0115665Y0053002D01*
X0115634Y0053083D01*
X0115606Y0053166D01*
X0115581Y0053249D01*
X0115560Y0053334D01*
X0115543Y0053420D01*
X0115530Y0053506D01*
X0115521Y0053593D01*
X0115515Y0053680D01*
X0115513Y0053767D01*
X0115513Y0066767D01*
X0115515Y0066854D01*
X0115521Y0066941D01*
X0115530Y0067028D01*
X0115543Y0067114D01*
X0115560Y0067200D01*
X0115581Y0067285D01*
X0115606Y0067368D01*
X0115634Y0067451D01*
X0115665Y0067532D01*
X0115700Y0067612D01*
X0115739Y0067690D01*
X0115781Y0067767D01*
X0115826Y0067842D01*
X0115875Y0067914D01*
X0115926Y0067985D01*
X0115981Y0068053D01*
X0116038Y0068118D01*
X0116099Y0068181D01*
X0116162Y0068242D01*
X0116227Y0068299D01*
X0116295Y0068354D01*
X0116366Y0068405D01*
X0116438Y0068454D01*
X0116513Y0068499D01*
X0116590Y0068541D01*
X0116668Y0068580D01*
X0116748Y0068615D01*
X0116829Y0068646D01*
X0116912Y0068674D01*
X0116995Y0068699D01*
X0117080Y0068720D01*
X0117166Y0068737D01*
X0117252Y0068750D01*
X0117339Y0068759D01*
X0117426Y0068765D01*
X0117513Y0068767D01*
X0120013Y0065267D02*
X0120013Y0061467D01*
X0124513Y0066767D02*
X0124511Y0066854D01*
X0124505Y0066941D01*
X0124496Y0067028D01*
X0124483Y0067114D01*
X0124466Y0067200D01*
X0124445Y0067285D01*
X0124420Y0067368D01*
X0124392Y0067451D01*
X0124361Y0067532D01*
X0124326Y0067612D01*
X0124287Y0067690D01*
X0124245Y0067767D01*
X0124200Y0067842D01*
X0124151Y0067914D01*
X0124100Y0067985D01*
X0124045Y0068053D01*
X0123988Y0068118D01*
X0123927Y0068181D01*
X0123864Y0068242D01*
X0123799Y0068299D01*
X0123731Y0068354D01*
X0123660Y0068405D01*
X0123588Y0068454D01*
X0123513Y0068499D01*
X0123436Y0068541D01*
X0123358Y0068580D01*
X0123278Y0068615D01*
X0123197Y0068646D01*
X0123114Y0068674D01*
X0123031Y0068699D01*
X0122946Y0068720D01*
X0122860Y0068737D01*
X0122774Y0068750D01*
X0122687Y0068759D01*
X0122600Y0068765D01*
X0122513Y0068767D01*
X0124513Y0066767D02*
X0124513Y0053767D01*
X0124511Y0053680D01*
X0124505Y0053593D01*
X0124496Y0053506D01*
X0124483Y0053420D01*
X0124466Y0053334D01*
X0124445Y0053249D01*
X0124420Y0053166D01*
X0124392Y0053083D01*
X0124361Y0053002D01*
X0124326Y0052922D01*
X0124287Y0052844D01*
X0124245Y0052767D01*
X0124200Y0052692D01*
X0124151Y0052620D01*
X0124100Y0052549D01*
X0124045Y0052481D01*
X0123988Y0052416D01*
X0123927Y0052353D01*
X0123864Y0052292D01*
X0123799Y0052235D01*
X0123731Y0052180D01*
X0123660Y0052129D01*
X0123588Y0052080D01*
X0123513Y0052035D01*
X0123436Y0051993D01*
X0123358Y0051954D01*
X0123278Y0051919D01*
X0123197Y0051888D01*
X0123114Y0051860D01*
X0123031Y0051835D01*
X0122946Y0051814D01*
X0122860Y0051797D01*
X0122774Y0051784D01*
X0122687Y0051775D01*
X0122600Y0051769D01*
X0122513Y0051767D01*
X0127513Y0051267D02*
X0127515Y0051207D01*
X0127520Y0051146D01*
X0127529Y0051087D01*
X0127542Y0051028D01*
X0127558Y0050969D01*
X0127578Y0050912D01*
X0127601Y0050857D01*
X0127628Y0050802D01*
X0127657Y0050750D01*
X0127690Y0050699D01*
X0127726Y0050650D01*
X0127764Y0050604D01*
X0127806Y0050560D01*
X0127850Y0050518D01*
X0127896Y0050480D01*
X0127945Y0050444D01*
X0127996Y0050411D01*
X0128048Y0050382D01*
X0128103Y0050355D01*
X0128158Y0050332D01*
X0128215Y0050312D01*
X0128274Y0050296D01*
X0128333Y0050283D01*
X0128392Y0050274D01*
X0128453Y0050269D01*
X0128513Y0050267D01*
X0131513Y0050267D02*
X0131573Y0050269D01*
X0131634Y0050274D01*
X0131693Y0050283D01*
X0131752Y0050296D01*
X0131811Y0050312D01*
X0131868Y0050332D01*
X0131923Y0050355D01*
X0131978Y0050382D01*
X0132030Y0050411D01*
X0132081Y0050444D01*
X0132130Y0050480D01*
X0132176Y0050518D01*
X0132220Y0050560D01*
X0132262Y0050604D01*
X0132300Y0050650D01*
X0132336Y0050699D01*
X0132369Y0050750D01*
X0132398Y0050802D01*
X0132425Y0050857D01*
X0132448Y0050912D01*
X0132468Y0050969D01*
X0132484Y0051028D01*
X0132497Y0051087D01*
X0132506Y0051146D01*
X0132511Y0051207D01*
X0132513Y0051267D01*
X0137513Y0049267D02*
X0137513Y0041267D01*
X0137515Y0041207D01*
X0137520Y0041146D01*
X0137529Y0041087D01*
X0137542Y0041028D01*
X0137558Y0040969D01*
X0137578Y0040912D01*
X0137601Y0040857D01*
X0137628Y0040802D01*
X0137657Y0040750D01*
X0137690Y0040699D01*
X0137726Y0040650D01*
X0137764Y0040604D01*
X0137806Y0040560D01*
X0137850Y0040518D01*
X0137896Y0040480D01*
X0137945Y0040444D01*
X0137996Y0040411D01*
X0138048Y0040382D01*
X0138103Y0040355D01*
X0138158Y0040332D01*
X0138215Y0040312D01*
X0138274Y0040296D01*
X0138333Y0040283D01*
X0138392Y0040274D01*
X0138453Y0040269D01*
X0138513Y0040267D01*
X0141513Y0040267D01*
X0141573Y0040269D01*
X0141634Y0040274D01*
X0141693Y0040283D01*
X0141752Y0040296D01*
X0141811Y0040312D01*
X0141868Y0040332D01*
X0141923Y0040355D01*
X0141978Y0040382D01*
X0142030Y0040411D01*
X0142081Y0040444D01*
X0142130Y0040480D01*
X0142176Y0040518D01*
X0142220Y0040560D01*
X0142262Y0040604D01*
X0142300Y0040650D01*
X0142336Y0040699D01*
X0142369Y0040750D01*
X0142398Y0040802D01*
X0142425Y0040857D01*
X0142448Y0040912D01*
X0142468Y0040969D01*
X0142484Y0041028D01*
X0142497Y0041087D01*
X0142506Y0041146D01*
X0142511Y0041207D01*
X0142513Y0041267D01*
X0142513Y0049267D01*
X0142511Y0049327D01*
X0142506Y0049388D01*
X0142497Y0049447D01*
X0142484Y0049506D01*
X0142468Y0049565D01*
X0142448Y0049622D01*
X0142425Y0049677D01*
X0142398Y0049732D01*
X0142369Y0049784D01*
X0142336Y0049835D01*
X0142300Y0049884D01*
X0142262Y0049930D01*
X0142220Y0049974D01*
X0142176Y0050016D01*
X0142130Y0050054D01*
X0142081Y0050090D01*
X0142030Y0050123D01*
X0141978Y0050152D01*
X0141923Y0050179D01*
X0141868Y0050202D01*
X0141811Y0050222D01*
X0141752Y0050238D01*
X0141693Y0050251D01*
X0141634Y0050260D01*
X0141573Y0050265D01*
X0141513Y0050267D01*
X0138513Y0050267D01*
X0138453Y0050265D01*
X0138392Y0050260D01*
X0138333Y0050251D01*
X0138274Y0050238D01*
X0138215Y0050222D01*
X0138158Y0050202D01*
X0138103Y0050179D01*
X0138048Y0050152D01*
X0137996Y0050123D01*
X0137945Y0050090D01*
X0137896Y0050054D01*
X0137850Y0050016D01*
X0137806Y0049974D01*
X0137764Y0049930D01*
X0137726Y0049884D01*
X0137690Y0049835D01*
X0137657Y0049784D01*
X0137628Y0049732D01*
X0137601Y0049677D01*
X0137578Y0049622D01*
X0137558Y0049565D01*
X0137542Y0049506D01*
X0137529Y0049447D01*
X0137520Y0049388D01*
X0137515Y0049327D01*
X0137513Y0049267D01*
X0137515Y0049327D01*
X0137520Y0049388D01*
X0137529Y0049447D01*
X0137542Y0049506D01*
X0137558Y0049565D01*
X0137578Y0049622D01*
X0137601Y0049677D01*
X0137628Y0049732D01*
X0137657Y0049784D01*
X0137690Y0049835D01*
X0137726Y0049884D01*
X0137764Y0049930D01*
X0137806Y0049974D01*
X0137850Y0050016D01*
X0137896Y0050054D01*
X0137945Y0050090D01*
X0137996Y0050123D01*
X0138048Y0050152D01*
X0138103Y0050179D01*
X0138158Y0050202D01*
X0138215Y0050222D01*
X0138274Y0050238D01*
X0138333Y0050251D01*
X0138392Y0050260D01*
X0138453Y0050265D01*
X0138513Y0050267D01*
X0141513Y0050267D02*
X0141573Y0050265D01*
X0141634Y0050260D01*
X0141693Y0050251D01*
X0141752Y0050238D01*
X0141811Y0050222D01*
X0141868Y0050202D01*
X0141923Y0050179D01*
X0141978Y0050152D01*
X0142030Y0050123D01*
X0142081Y0050090D01*
X0142130Y0050054D01*
X0142176Y0050016D01*
X0142220Y0049974D01*
X0142262Y0049930D01*
X0142300Y0049884D01*
X0142336Y0049835D01*
X0142369Y0049784D01*
X0142398Y0049732D01*
X0142425Y0049677D01*
X0142448Y0049622D01*
X0142468Y0049565D01*
X0142484Y0049506D01*
X0142497Y0049447D01*
X0142506Y0049388D01*
X0142511Y0049327D01*
X0142513Y0049267D01*
X0142513Y0041267D02*
X0142511Y0041207D01*
X0142506Y0041146D01*
X0142497Y0041087D01*
X0142484Y0041028D01*
X0142468Y0040969D01*
X0142448Y0040912D01*
X0142425Y0040857D01*
X0142398Y0040802D01*
X0142369Y0040750D01*
X0142336Y0040699D01*
X0142300Y0040650D01*
X0142262Y0040604D01*
X0142220Y0040560D01*
X0142176Y0040518D01*
X0142130Y0040480D01*
X0142081Y0040444D01*
X0142030Y0040411D01*
X0141978Y0040382D01*
X0141923Y0040355D01*
X0141868Y0040332D01*
X0141811Y0040312D01*
X0141752Y0040296D01*
X0141693Y0040283D01*
X0141634Y0040274D01*
X0141573Y0040269D01*
X0141513Y0040267D01*
X0138513Y0040267D02*
X0138453Y0040269D01*
X0138392Y0040274D01*
X0138333Y0040283D01*
X0138274Y0040296D01*
X0138215Y0040312D01*
X0138158Y0040332D01*
X0138103Y0040355D01*
X0138048Y0040382D01*
X0137996Y0040411D01*
X0137945Y0040444D01*
X0137896Y0040480D01*
X0137850Y0040518D01*
X0137806Y0040560D01*
X0137764Y0040604D01*
X0137726Y0040650D01*
X0137690Y0040699D01*
X0137657Y0040750D01*
X0137628Y0040802D01*
X0137601Y0040857D01*
X0137578Y0040912D01*
X0137558Y0040969D01*
X0137542Y0041028D01*
X0137529Y0041087D01*
X0137520Y0041146D01*
X0137515Y0041207D01*
X0137513Y0041267D01*
X0076513Y0034767D02*
X0063513Y0034767D01*
X0063426Y0034765D01*
X0063339Y0034759D01*
X0063252Y0034750D01*
X0063166Y0034737D01*
X0063080Y0034720D01*
X0062995Y0034699D01*
X0062912Y0034674D01*
X0062829Y0034646D01*
X0062748Y0034615D01*
X0062668Y0034580D01*
X0062590Y0034541D01*
X0062513Y0034499D01*
X0062438Y0034454D01*
X0062366Y0034405D01*
X0062295Y0034354D01*
X0062227Y0034299D01*
X0062162Y0034242D01*
X0062099Y0034181D01*
X0062038Y0034118D01*
X0061981Y0034053D01*
X0061926Y0033985D01*
X0061875Y0033914D01*
X0061826Y0033842D01*
X0061781Y0033767D01*
X0061739Y0033690D01*
X0061700Y0033612D01*
X0061665Y0033532D01*
X0061634Y0033451D01*
X0061606Y0033368D01*
X0061581Y0033285D01*
X0061560Y0033200D01*
X0061543Y0033114D01*
X0061530Y0033028D01*
X0061521Y0032941D01*
X0061515Y0032854D01*
X0061513Y0032767D01*
X0065013Y0030267D02*
X0068813Y0030267D01*
X0071313Y0030267D02*
X0075013Y0030267D01*
X0078513Y0032767D02*
X0078511Y0032854D01*
X0078505Y0032941D01*
X0078496Y0033028D01*
X0078483Y0033114D01*
X0078466Y0033200D01*
X0078445Y0033285D01*
X0078420Y0033368D01*
X0078392Y0033451D01*
X0078361Y0033532D01*
X0078326Y0033612D01*
X0078287Y0033690D01*
X0078245Y0033767D01*
X0078200Y0033842D01*
X0078151Y0033914D01*
X0078100Y0033985D01*
X0078045Y0034053D01*
X0077988Y0034118D01*
X0077927Y0034181D01*
X0077864Y0034242D01*
X0077799Y0034299D01*
X0077731Y0034354D01*
X0077660Y0034405D01*
X0077588Y0034454D01*
X0077513Y0034499D01*
X0077436Y0034541D01*
X0077358Y0034580D01*
X0077278Y0034615D01*
X0077197Y0034646D01*
X0077114Y0034674D01*
X0077031Y0034699D01*
X0076946Y0034720D01*
X0076860Y0034737D01*
X0076774Y0034750D01*
X0076687Y0034759D01*
X0076600Y0034765D01*
X0076513Y0034767D01*
X0070013Y0038767D02*
X0070013Y0041767D01*
X0070011Y0041827D01*
X0070006Y0041888D01*
X0069997Y0041947D01*
X0069984Y0042006D01*
X0069968Y0042065D01*
X0069948Y0042122D01*
X0069925Y0042177D01*
X0069898Y0042232D01*
X0069869Y0042284D01*
X0069836Y0042335D01*
X0069800Y0042384D01*
X0069762Y0042430D01*
X0069720Y0042474D01*
X0069676Y0042516D01*
X0069630Y0042554D01*
X0069581Y0042590D01*
X0069530Y0042623D01*
X0069478Y0042652D01*
X0069423Y0042679D01*
X0069368Y0042702D01*
X0069311Y0042722D01*
X0069252Y0042738D01*
X0069193Y0042751D01*
X0069134Y0042760D01*
X0069073Y0042765D01*
X0069013Y0042767D01*
X0061013Y0042767D01*
X0060953Y0042765D01*
X0060892Y0042760D01*
X0060833Y0042751D01*
X0060774Y0042738D01*
X0060715Y0042722D01*
X0060658Y0042702D01*
X0060603Y0042679D01*
X0060548Y0042652D01*
X0060496Y0042623D01*
X0060445Y0042590D01*
X0060396Y0042554D01*
X0060350Y0042516D01*
X0060306Y0042474D01*
X0060264Y0042430D01*
X0060226Y0042384D01*
X0060190Y0042335D01*
X0060157Y0042284D01*
X0060128Y0042232D01*
X0060101Y0042177D01*
X0060078Y0042122D01*
X0060058Y0042065D01*
X0060042Y0042006D01*
X0060029Y0041947D01*
X0060020Y0041888D01*
X0060015Y0041827D01*
X0060013Y0041767D01*
X0060013Y0038767D01*
X0060015Y0038707D01*
X0060020Y0038646D01*
X0060029Y0038587D01*
X0060042Y0038528D01*
X0060058Y0038469D01*
X0060078Y0038412D01*
X0060101Y0038357D01*
X0060128Y0038302D01*
X0060157Y0038250D01*
X0060190Y0038199D01*
X0060226Y0038150D01*
X0060264Y0038104D01*
X0060306Y0038060D01*
X0060350Y0038018D01*
X0060396Y0037980D01*
X0060445Y0037944D01*
X0060496Y0037911D01*
X0060548Y0037882D01*
X0060603Y0037855D01*
X0060658Y0037832D01*
X0060715Y0037812D01*
X0060774Y0037796D01*
X0060833Y0037783D01*
X0060892Y0037774D01*
X0060953Y0037769D01*
X0061013Y0037767D01*
X0069013Y0037767D01*
X0069073Y0037769D01*
X0069134Y0037774D01*
X0069193Y0037783D01*
X0069252Y0037796D01*
X0069311Y0037812D01*
X0069368Y0037832D01*
X0069423Y0037855D01*
X0069478Y0037882D01*
X0069530Y0037911D01*
X0069581Y0037944D01*
X0069630Y0037980D01*
X0069676Y0038018D01*
X0069720Y0038060D01*
X0069762Y0038104D01*
X0069800Y0038150D01*
X0069836Y0038199D01*
X0069869Y0038250D01*
X0069898Y0038302D01*
X0069925Y0038357D01*
X0069948Y0038412D01*
X0069968Y0038469D01*
X0069984Y0038528D01*
X0069997Y0038587D01*
X0070006Y0038646D01*
X0070011Y0038707D01*
X0070013Y0038767D01*
X0070011Y0038707D01*
X0070006Y0038646D01*
X0069997Y0038587D01*
X0069984Y0038528D01*
X0069968Y0038469D01*
X0069948Y0038412D01*
X0069925Y0038357D01*
X0069898Y0038302D01*
X0069869Y0038250D01*
X0069836Y0038199D01*
X0069800Y0038150D01*
X0069762Y0038104D01*
X0069720Y0038060D01*
X0069676Y0038018D01*
X0069630Y0037980D01*
X0069581Y0037944D01*
X0069530Y0037911D01*
X0069478Y0037882D01*
X0069423Y0037855D01*
X0069368Y0037832D01*
X0069311Y0037812D01*
X0069252Y0037796D01*
X0069193Y0037783D01*
X0069134Y0037774D01*
X0069073Y0037769D01*
X0069013Y0037767D01*
X0070013Y0041767D02*
X0070011Y0041827D01*
X0070006Y0041888D01*
X0069997Y0041947D01*
X0069984Y0042006D01*
X0069968Y0042065D01*
X0069948Y0042122D01*
X0069925Y0042177D01*
X0069898Y0042232D01*
X0069869Y0042284D01*
X0069836Y0042335D01*
X0069800Y0042384D01*
X0069762Y0042430D01*
X0069720Y0042474D01*
X0069676Y0042516D01*
X0069630Y0042554D01*
X0069581Y0042590D01*
X0069530Y0042623D01*
X0069478Y0042652D01*
X0069423Y0042679D01*
X0069368Y0042702D01*
X0069311Y0042722D01*
X0069252Y0042738D01*
X0069193Y0042751D01*
X0069134Y0042760D01*
X0069073Y0042765D01*
X0069013Y0042767D01*
X0061013Y0042767D02*
X0060953Y0042765D01*
X0060892Y0042760D01*
X0060833Y0042751D01*
X0060774Y0042738D01*
X0060715Y0042722D01*
X0060658Y0042702D01*
X0060603Y0042679D01*
X0060548Y0042652D01*
X0060496Y0042623D01*
X0060445Y0042590D01*
X0060396Y0042554D01*
X0060350Y0042516D01*
X0060306Y0042474D01*
X0060264Y0042430D01*
X0060226Y0042384D01*
X0060190Y0042335D01*
X0060157Y0042284D01*
X0060128Y0042232D01*
X0060101Y0042177D01*
X0060078Y0042122D01*
X0060058Y0042065D01*
X0060042Y0042006D01*
X0060029Y0041947D01*
X0060020Y0041888D01*
X0060015Y0041827D01*
X0060013Y0041767D01*
X0060013Y0038767D02*
X0060015Y0038707D01*
X0060020Y0038646D01*
X0060029Y0038587D01*
X0060042Y0038528D01*
X0060058Y0038469D01*
X0060078Y0038412D01*
X0060101Y0038357D01*
X0060128Y0038302D01*
X0060157Y0038250D01*
X0060190Y0038199D01*
X0060226Y0038150D01*
X0060264Y0038104D01*
X0060306Y0038060D01*
X0060350Y0038018D01*
X0060396Y0037980D01*
X0060445Y0037944D01*
X0060496Y0037911D01*
X0060548Y0037882D01*
X0060603Y0037855D01*
X0060658Y0037832D01*
X0060715Y0037812D01*
X0060774Y0037796D01*
X0060833Y0037783D01*
X0060892Y0037774D01*
X0060953Y0037769D01*
X0061013Y0037767D01*
X0061513Y0027767D02*
X0061515Y0027680D01*
X0061521Y0027593D01*
X0061530Y0027506D01*
X0061543Y0027420D01*
X0061560Y0027334D01*
X0061581Y0027249D01*
X0061606Y0027166D01*
X0061634Y0027083D01*
X0061665Y0027002D01*
X0061700Y0026922D01*
X0061739Y0026844D01*
X0061781Y0026767D01*
X0061826Y0026692D01*
X0061875Y0026620D01*
X0061926Y0026549D01*
X0061981Y0026481D01*
X0062038Y0026416D01*
X0062099Y0026353D01*
X0062162Y0026292D01*
X0062227Y0026235D01*
X0062295Y0026180D01*
X0062366Y0026129D01*
X0062438Y0026080D01*
X0062513Y0026035D01*
X0062590Y0025993D01*
X0062668Y0025954D01*
X0062748Y0025919D01*
X0062829Y0025888D01*
X0062912Y0025860D01*
X0062995Y0025835D01*
X0063080Y0025814D01*
X0063166Y0025797D01*
X0063252Y0025784D01*
X0063339Y0025775D01*
X0063426Y0025769D01*
X0063513Y0025767D01*
X0076513Y0025767D01*
X0076600Y0025769D01*
X0076687Y0025775D01*
X0076774Y0025784D01*
X0076860Y0025797D01*
X0076946Y0025814D01*
X0077031Y0025835D01*
X0077114Y0025860D01*
X0077197Y0025888D01*
X0077278Y0025919D01*
X0077358Y0025954D01*
X0077436Y0025993D01*
X0077513Y0026035D01*
X0077588Y0026080D01*
X0077660Y0026129D01*
X0077731Y0026180D01*
X0077799Y0026235D01*
X0077864Y0026292D01*
X0077927Y0026353D01*
X0077988Y0026416D01*
X0078045Y0026481D01*
X0078100Y0026549D01*
X0078151Y0026620D01*
X0078200Y0026692D01*
X0078245Y0026767D01*
X0078287Y0026844D01*
X0078326Y0026922D01*
X0078361Y0027002D01*
X0078392Y0027083D01*
X0078420Y0027166D01*
X0078445Y0027249D01*
X0078466Y0027334D01*
X0078483Y0027420D01*
X0078496Y0027506D01*
X0078505Y0027593D01*
X0078511Y0027680D01*
X0078513Y0027767D01*
X0071513Y0060267D02*
X0068513Y0060267D01*
X0068453Y0060269D01*
X0068392Y0060274D01*
X0068333Y0060283D01*
X0068274Y0060296D01*
X0068215Y0060312D01*
X0068158Y0060332D01*
X0068103Y0060355D01*
X0068048Y0060382D01*
X0067996Y0060411D01*
X0067945Y0060444D01*
X0067896Y0060480D01*
X0067850Y0060518D01*
X0067806Y0060560D01*
X0067764Y0060604D01*
X0067726Y0060650D01*
X0067690Y0060699D01*
X0067657Y0060750D01*
X0067628Y0060802D01*
X0067601Y0060857D01*
X0067578Y0060912D01*
X0067558Y0060969D01*
X0067542Y0061028D01*
X0067529Y0061087D01*
X0067520Y0061146D01*
X0067515Y0061207D01*
X0067513Y0061267D01*
X0067513Y0069267D01*
X0067515Y0069327D01*
X0067520Y0069388D01*
X0067529Y0069447D01*
X0067542Y0069506D01*
X0067558Y0069565D01*
X0067578Y0069622D01*
X0067601Y0069677D01*
X0067628Y0069732D01*
X0067657Y0069784D01*
X0067690Y0069835D01*
X0067726Y0069884D01*
X0067764Y0069930D01*
X0067806Y0069974D01*
X0067850Y0070016D01*
X0067896Y0070054D01*
X0067945Y0070090D01*
X0067996Y0070123D01*
X0068048Y0070152D01*
X0068103Y0070179D01*
X0068158Y0070202D01*
X0068215Y0070222D01*
X0068274Y0070238D01*
X0068333Y0070251D01*
X0068392Y0070260D01*
X0068453Y0070265D01*
X0068513Y0070267D01*
X0071513Y0070267D01*
X0071573Y0070265D01*
X0071634Y0070260D01*
X0071693Y0070251D01*
X0071752Y0070238D01*
X0071811Y0070222D01*
X0071868Y0070202D01*
X0071923Y0070179D01*
X0071978Y0070152D01*
X0072030Y0070123D01*
X0072081Y0070090D01*
X0072130Y0070054D01*
X0072176Y0070016D01*
X0072220Y0069974D01*
X0072262Y0069930D01*
X0072300Y0069884D01*
X0072336Y0069835D01*
X0072369Y0069784D01*
X0072398Y0069732D01*
X0072425Y0069677D01*
X0072448Y0069622D01*
X0072468Y0069565D01*
X0072484Y0069506D01*
X0072497Y0069447D01*
X0072506Y0069388D01*
X0072511Y0069327D01*
X0072513Y0069267D01*
X0072513Y0061267D01*
X0072511Y0061207D01*
X0072506Y0061146D01*
X0072497Y0061087D01*
X0072484Y0061028D01*
X0072468Y0060969D01*
X0072448Y0060912D01*
X0072425Y0060857D01*
X0072398Y0060802D01*
X0072369Y0060750D01*
X0072336Y0060699D01*
X0072300Y0060650D01*
X0072262Y0060604D01*
X0072220Y0060560D01*
X0072176Y0060518D01*
X0072130Y0060480D01*
X0072081Y0060444D01*
X0072030Y0060411D01*
X0071978Y0060382D01*
X0071923Y0060355D01*
X0071868Y0060332D01*
X0071811Y0060312D01*
X0071752Y0060296D01*
X0071693Y0060283D01*
X0071634Y0060274D01*
X0071573Y0060269D01*
X0071513Y0060267D01*
X0071573Y0060269D01*
X0071634Y0060274D01*
X0071693Y0060283D01*
X0071752Y0060296D01*
X0071811Y0060312D01*
X0071868Y0060332D01*
X0071923Y0060355D01*
X0071978Y0060382D01*
X0072030Y0060411D01*
X0072081Y0060444D01*
X0072130Y0060480D01*
X0072176Y0060518D01*
X0072220Y0060560D01*
X0072262Y0060604D01*
X0072300Y0060650D01*
X0072336Y0060699D01*
X0072369Y0060750D01*
X0072398Y0060802D01*
X0072425Y0060857D01*
X0072448Y0060912D01*
X0072468Y0060969D01*
X0072484Y0061028D01*
X0072497Y0061087D01*
X0072506Y0061146D01*
X0072511Y0061207D01*
X0072513Y0061267D01*
X0068513Y0060267D02*
X0068453Y0060269D01*
X0068392Y0060274D01*
X0068333Y0060283D01*
X0068274Y0060296D01*
X0068215Y0060312D01*
X0068158Y0060332D01*
X0068103Y0060355D01*
X0068048Y0060382D01*
X0067996Y0060411D01*
X0067945Y0060444D01*
X0067896Y0060480D01*
X0067850Y0060518D01*
X0067806Y0060560D01*
X0067764Y0060604D01*
X0067726Y0060650D01*
X0067690Y0060699D01*
X0067657Y0060750D01*
X0067628Y0060802D01*
X0067601Y0060857D01*
X0067578Y0060912D01*
X0067558Y0060969D01*
X0067542Y0061028D01*
X0067529Y0061087D01*
X0067520Y0061146D01*
X0067515Y0061207D01*
X0067513Y0061267D01*
X0067513Y0069267D02*
X0067515Y0069327D01*
X0067520Y0069388D01*
X0067529Y0069447D01*
X0067542Y0069506D01*
X0067558Y0069565D01*
X0067578Y0069622D01*
X0067601Y0069677D01*
X0067628Y0069732D01*
X0067657Y0069784D01*
X0067690Y0069835D01*
X0067726Y0069884D01*
X0067764Y0069930D01*
X0067806Y0069974D01*
X0067850Y0070016D01*
X0067896Y0070054D01*
X0067945Y0070090D01*
X0067996Y0070123D01*
X0068048Y0070152D01*
X0068103Y0070179D01*
X0068158Y0070202D01*
X0068215Y0070222D01*
X0068274Y0070238D01*
X0068333Y0070251D01*
X0068392Y0070260D01*
X0068453Y0070265D01*
X0068513Y0070267D01*
X0071513Y0070267D02*
X0071573Y0070265D01*
X0071634Y0070260D01*
X0071693Y0070251D01*
X0071752Y0070238D01*
X0071811Y0070222D01*
X0071868Y0070202D01*
X0071923Y0070179D01*
X0071978Y0070152D01*
X0072030Y0070123D01*
X0072081Y0070090D01*
X0072130Y0070054D01*
X0072176Y0070016D01*
X0072220Y0069974D01*
X0072262Y0069930D01*
X0072300Y0069884D01*
X0072336Y0069835D01*
X0072369Y0069784D01*
X0072398Y0069732D01*
X0072425Y0069677D01*
X0072448Y0069622D01*
X0072468Y0069565D01*
X0072484Y0069506D01*
X0072497Y0069447D01*
X0072506Y0069388D01*
X0072511Y0069327D01*
X0072513Y0069267D01*
D16*
X0117013Y0061467D02*
X0120013Y0061467D01*
X0123013Y0061467D01*
X0123013Y0058967D02*
X0120013Y0058967D01*
X0117013Y0058967D01*
X0071313Y0033267D02*
X0071313Y0030267D01*
X0071313Y0027267D01*
X0068813Y0027267D02*
X0068813Y0030267D01*
X0068813Y0033267D01*
D17*
X0086513Y0030767D02*
X0086513Y0019767D01*
X0086523Y0019656D01*
X0086537Y0019546D01*
X0086555Y0019436D01*
X0086577Y0019327D01*
X0086602Y0019218D01*
X0086631Y0019111D01*
X0086664Y0019005D01*
X0086701Y0018899D01*
X0086741Y0018795D01*
X0086784Y0018693D01*
X0086831Y0018592D01*
X0086881Y0018493D01*
X0086935Y0018395D01*
X0086992Y0018300D01*
X0087052Y0018206D01*
X0087116Y0018115D01*
X0087182Y0018025D01*
X0087252Y0017938D01*
X0087324Y0017854D01*
X0087399Y0017772D01*
X0087477Y0017692D01*
X0087558Y0017616D01*
X0087641Y0017542D01*
X0087727Y0017471D01*
X0087815Y0017403D01*
X0087906Y0017338D01*
X0087998Y0017276D01*
X0088093Y0017217D01*
X0088189Y0017162D01*
X0088288Y0017110D01*
X0088388Y0017061D01*
X0088490Y0017016D01*
X0088593Y0016974D01*
X0088697Y0016936D01*
X0088803Y0016902D01*
X0088910Y0016871D01*
X0089018Y0016843D01*
X0089127Y0016820D01*
X0089236Y0016800D01*
X0089346Y0016784D01*
X0089457Y0016771D01*
X0089568Y0016763D01*
X0089679Y0016758D01*
X0089791Y0016757D01*
X0089902Y0016760D01*
X0090013Y0016767D01*
X0090124Y0016760D01*
X0090235Y0016757D01*
X0090347Y0016758D01*
X0090458Y0016763D01*
X0090569Y0016771D01*
X0090680Y0016784D01*
X0090790Y0016800D01*
X0090899Y0016820D01*
X0091008Y0016843D01*
X0091116Y0016871D01*
X0091223Y0016902D01*
X0091329Y0016936D01*
X0091433Y0016974D01*
X0091536Y0017016D01*
X0091638Y0017061D01*
X0091738Y0017110D01*
X0091837Y0017162D01*
X0091933Y0017217D01*
X0092028Y0017276D01*
X0092120Y0017338D01*
X0092211Y0017403D01*
X0092299Y0017471D01*
X0092385Y0017542D01*
X0092468Y0017616D01*
X0092549Y0017692D01*
X0092627Y0017772D01*
X0092702Y0017854D01*
X0092774Y0017938D01*
X0092844Y0018025D01*
X0092910Y0018115D01*
X0092974Y0018206D01*
X0093034Y0018300D01*
X0093091Y0018395D01*
X0093145Y0018493D01*
X0093195Y0018592D01*
X0093242Y0018693D01*
X0093285Y0018795D01*
X0093325Y0018899D01*
X0093362Y0019005D01*
X0093395Y0019111D01*
X0093424Y0019218D01*
X0093449Y0019327D01*
X0093471Y0019436D01*
X0093489Y0019546D01*
X0093503Y0019656D01*
X0093513Y0019767D01*
X0093513Y0030767D01*
X0093503Y0030880D01*
X0093488Y0030993D01*
X0093469Y0031105D01*
X0093447Y0031217D01*
X0093421Y0031328D01*
X0093390Y0031437D01*
X0093356Y0031546D01*
X0093319Y0031653D01*
X0093277Y0031759D01*
X0093232Y0031864D01*
X0093183Y0031966D01*
X0093131Y0032067D01*
X0093075Y0032167D01*
X0093016Y0032264D01*
X0092953Y0032359D01*
X0092887Y0032451D01*
X0092818Y0032542D01*
X0092746Y0032630D01*
X0092670Y0032715D01*
X0092592Y0032798D01*
X0092511Y0032878D01*
X0092427Y0032955D01*
X0092341Y0033029D01*
X0092252Y0033100D01*
X0092161Y0033168D01*
X0092067Y0033232D01*
X0091971Y0033294D01*
X0091873Y0033352D01*
X0091773Y0033406D01*
X0091672Y0033457D01*
X0091568Y0033504D01*
X0091463Y0033548D01*
X0091357Y0033588D01*
X0091249Y0033624D01*
X0091140Y0033657D01*
X0091030Y0033686D01*
X0090919Y0033710D01*
X0090807Y0033731D01*
X0090694Y0033748D01*
X0090581Y0033761D01*
X0090468Y0033771D01*
X0090354Y0033776D01*
X0090240Y0033777D01*
X0090127Y0033774D01*
X0090013Y0033767D01*
X0089902Y0033774D01*
X0089791Y0033777D01*
X0089679Y0033776D01*
X0089568Y0033771D01*
X0089457Y0033763D01*
X0089346Y0033750D01*
X0089236Y0033734D01*
X0089127Y0033714D01*
X0089018Y0033691D01*
X0088910Y0033663D01*
X0088803Y0033632D01*
X0088697Y0033598D01*
X0088593Y0033560D01*
X0088490Y0033518D01*
X0088388Y0033473D01*
X0088288Y0033424D01*
X0088189Y0033372D01*
X0088093Y0033317D01*
X0087998Y0033258D01*
X0087906Y0033196D01*
X0087815Y0033131D01*
X0087727Y0033063D01*
X0087641Y0032992D01*
X0087558Y0032918D01*
X0087477Y0032842D01*
X0087399Y0032762D01*
X0087324Y0032680D01*
X0087252Y0032596D01*
X0087182Y0032509D01*
X0087116Y0032419D01*
X0087052Y0032328D01*
X0086992Y0032234D01*
X0086935Y0032139D01*
X0086881Y0032041D01*
X0086831Y0031942D01*
X0086784Y0031841D01*
X0086741Y0031739D01*
X0086701Y0031635D01*
X0086664Y0031529D01*
X0086631Y0031423D01*
X0086602Y0031316D01*
X0086577Y0031207D01*
X0086555Y0031098D01*
X0086537Y0030988D01*
X0086523Y0030878D01*
X0086513Y0030767D01*
X0088013Y0026467D02*
X0092013Y0026467D01*
X0106513Y0030767D02*
X0106513Y0019767D01*
X0106523Y0019656D01*
X0106537Y0019546D01*
X0106555Y0019436D01*
X0106577Y0019327D01*
X0106602Y0019218D01*
X0106631Y0019111D01*
X0106664Y0019005D01*
X0106701Y0018899D01*
X0106741Y0018795D01*
X0106784Y0018693D01*
X0106831Y0018592D01*
X0106881Y0018493D01*
X0106935Y0018395D01*
X0106992Y0018300D01*
X0107052Y0018206D01*
X0107116Y0018115D01*
X0107182Y0018025D01*
X0107252Y0017938D01*
X0107324Y0017854D01*
X0107399Y0017772D01*
X0107477Y0017692D01*
X0107558Y0017616D01*
X0107641Y0017542D01*
X0107727Y0017471D01*
X0107815Y0017403D01*
X0107906Y0017338D01*
X0107998Y0017276D01*
X0108093Y0017217D01*
X0108189Y0017162D01*
X0108288Y0017110D01*
X0108388Y0017061D01*
X0108490Y0017016D01*
X0108593Y0016974D01*
X0108697Y0016936D01*
X0108803Y0016902D01*
X0108910Y0016871D01*
X0109018Y0016843D01*
X0109127Y0016820D01*
X0109236Y0016800D01*
X0109346Y0016784D01*
X0109457Y0016771D01*
X0109568Y0016763D01*
X0109679Y0016758D01*
X0109791Y0016757D01*
X0109902Y0016760D01*
X0110013Y0016767D01*
X0110124Y0016760D01*
X0110235Y0016757D01*
X0110347Y0016758D01*
X0110458Y0016763D01*
X0110569Y0016771D01*
X0110680Y0016784D01*
X0110790Y0016800D01*
X0110899Y0016820D01*
X0111008Y0016843D01*
X0111116Y0016871D01*
X0111223Y0016902D01*
X0111329Y0016936D01*
X0111433Y0016974D01*
X0111536Y0017016D01*
X0111638Y0017061D01*
X0111738Y0017110D01*
X0111837Y0017162D01*
X0111933Y0017217D01*
X0112028Y0017276D01*
X0112120Y0017338D01*
X0112211Y0017403D01*
X0112299Y0017471D01*
X0112385Y0017542D01*
X0112468Y0017616D01*
X0112549Y0017692D01*
X0112627Y0017772D01*
X0112702Y0017854D01*
X0112774Y0017938D01*
X0112844Y0018025D01*
X0112910Y0018115D01*
X0112974Y0018206D01*
X0113034Y0018300D01*
X0113091Y0018395D01*
X0113145Y0018493D01*
X0113195Y0018592D01*
X0113242Y0018693D01*
X0113285Y0018795D01*
X0113325Y0018899D01*
X0113362Y0019005D01*
X0113395Y0019111D01*
X0113424Y0019218D01*
X0113449Y0019327D01*
X0113471Y0019436D01*
X0113489Y0019546D01*
X0113503Y0019656D01*
X0113513Y0019767D01*
X0113513Y0030767D01*
X0113503Y0030880D01*
X0113488Y0030993D01*
X0113469Y0031105D01*
X0113447Y0031217D01*
X0113421Y0031328D01*
X0113390Y0031437D01*
X0113356Y0031546D01*
X0113319Y0031653D01*
X0113277Y0031759D01*
X0113232Y0031864D01*
X0113183Y0031966D01*
X0113131Y0032067D01*
X0113075Y0032167D01*
X0113016Y0032264D01*
X0112953Y0032359D01*
X0112887Y0032451D01*
X0112818Y0032542D01*
X0112746Y0032630D01*
X0112670Y0032715D01*
X0112592Y0032798D01*
X0112511Y0032878D01*
X0112427Y0032955D01*
X0112341Y0033029D01*
X0112252Y0033100D01*
X0112161Y0033168D01*
X0112067Y0033232D01*
X0111971Y0033294D01*
X0111873Y0033352D01*
X0111773Y0033406D01*
X0111672Y0033457D01*
X0111568Y0033504D01*
X0111463Y0033548D01*
X0111357Y0033588D01*
X0111249Y0033624D01*
X0111140Y0033657D01*
X0111030Y0033686D01*
X0110919Y0033710D01*
X0110807Y0033731D01*
X0110694Y0033748D01*
X0110581Y0033761D01*
X0110468Y0033771D01*
X0110354Y0033776D01*
X0110240Y0033777D01*
X0110127Y0033774D01*
X0110013Y0033767D01*
X0109902Y0033774D01*
X0109791Y0033777D01*
X0109679Y0033776D01*
X0109568Y0033771D01*
X0109457Y0033763D01*
X0109346Y0033750D01*
X0109236Y0033734D01*
X0109127Y0033714D01*
X0109018Y0033691D01*
X0108910Y0033663D01*
X0108803Y0033632D01*
X0108697Y0033598D01*
X0108593Y0033560D01*
X0108490Y0033518D01*
X0108388Y0033473D01*
X0108288Y0033424D01*
X0108189Y0033372D01*
X0108093Y0033317D01*
X0107998Y0033258D01*
X0107906Y0033196D01*
X0107815Y0033131D01*
X0107727Y0033063D01*
X0107641Y0032992D01*
X0107558Y0032918D01*
X0107477Y0032842D01*
X0107399Y0032762D01*
X0107324Y0032680D01*
X0107252Y0032596D01*
X0107182Y0032509D01*
X0107116Y0032419D01*
X0107052Y0032328D01*
X0106992Y0032234D01*
X0106935Y0032139D01*
X0106881Y0032041D01*
X0106831Y0031942D01*
X0106784Y0031841D01*
X0106741Y0031739D01*
X0106701Y0031635D01*
X0106664Y0031529D01*
X0106631Y0031423D01*
X0106602Y0031316D01*
X0106577Y0031207D01*
X0106555Y0031098D01*
X0106537Y0030988D01*
X0106523Y0030878D01*
X0106513Y0030767D01*
X0108013Y0026467D02*
X0112013Y0026467D01*
D18*
X0110013Y0026267D03*
X0110013Y0024267D03*
X0090013Y0024267D03*
X0090013Y0026267D03*
D19*
X0167513Y0053267D02*
X0167513Y0067267D01*
X0167515Y0067343D01*
X0167521Y0067419D01*
X0167530Y0067494D01*
X0167544Y0067569D01*
X0167561Y0067643D01*
X0167582Y0067716D01*
X0167606Y0067788D01*
X0167635Y0067859D01*
X0167666Y0067928D01*
X0167701Y0067995D01*
X0167740Y0068060D01*
X0167782Y0068124D01*
X0167827Y0068185D01*
X0167875Y0068244D01*
X0167926Y0068300D01*
X0167980Y0068354D01*
X0168036Y0068405D01*
X0168095Y0068453D01*
X0168156Y0068498D01*
X0168220Y0068540D01*
X0168285Y0068579D01*
X0168352Y0068614D01*
X0168421Y0068645D01*
X0168492Y0068674D01*
X0168564Y0068698D01*
X0168637Y0068719D01*
X0168711Y0068736D01*
X0168786Y0068750D01*
X0168861Y0068759D01*
X0168937Y0068765D01*
X0169013Y0068767D01*
X0171013Y0068767D01*
X0171089Y0068765D01*
X0171165Y0068759D01*
X0171240Y0068750D01*
X0171315Y0068736D01*
X0171389Y0068719D01*
X0171462Y0068698D01*
X0171534Y0068674D01*
X0171605Y0068645D01*
X0171674Y0068614D01*
X0171741Y0068579D01*
X0171806Y0068540D01*
X0171870Y0068498D01*
X0171931Y0068453D01*
X0171990Y0068405D01*
X0172046Y0068354D01*
X0172100Y0068300D01*
X0172151Y0068244D01*
X0172199Y0068185D01*
X0172244Y0068124D01*
X0172286Y0068060D01*
X0172325Y0067995D01*
X0172360Y0067928D01*
X0172391Y0067859D01*
X0172420Y0067788D01*
X0172444Y0067716D01*
X0172465Y0067643D01*
X0172482Y0067569D01*
X0172496Y0067494D01*
X0172505Y0067419D01*
X0172511Y0067343D01*
X0172513Y0067267D01*
X0172513Y0053267D01*
X0172511Y0053191D01*
X0172505Y0053115D01*
X0172496Y0053040D01*
X0172482Y0052965D01*
X0172465Y0052891D01*
X0172444Y0052818D01*
X0172420Y0052746D01*
X0172391Y0052675D01*
X0172360Y0052606D01*
X0172325Y0052539D01*
X0172286Y0052474D01*
X0172244Y0052410D01*
X0172199Y0052349D01*
X0172151Y0052290D01*
X0172100Y0052234D01*
X0172046Y0052180D01*
X0171990Y0052129D01*
X0171931Y0052081D01*
X0171870Y0052036D01*
X0171806Y0051994D01*
X0171741Y0051955D01*
X0171674Y0051920D01*
X0171605Y0051889D01*
X0171534Y0051860D01*
X0171462Y0051836D01*
X0171389Y0051815D01*
X0171315Y0051798D01*
X0171240Y0051784D01*
X0171165Y0051775D01*
X0171089Y0051769D01*
X0171013Y0051767D01*
X0169013Y0051767D01*
X0168937Y0051769D01*
X0168861Y0051775D01*
X0168786Y0051784D01*
X0168711Y0051798D01*
X0168637Y0051815D01*
X0168564Y0051836D01*
X0168492Y0051860D01*
X0168421Y0051889D01*
X0168352Y0051920D01*
X0168285Y0051955D01*
X0168220Y0051994D01*
X0168156Y0052036D01*
X0168095Y0052081D01*
X0168036Y0052129D01*
X0167980Y0052180D01*
X0167926Y0052234D01*
X0167875Y0052290D01*
X0167827Y0052349D01*
X0167782Y0052410D01*
X0167740Y0052474D01*
X0167701Y0052539D01*
X0167666Y0052606D01*
X0167635Y0052675D01*
X0167606Y0052746D01*
X0167582Y0052818D01*
X0167561Y0052891D01*
X0167544Y0052965D01*
X0167530Y0053040D01*
X0167521Y0053115D01*
X0167515Y0053191D01*
X0167513Y0053267D01*
D20*
X0130013Y0025892D03*
X0130013Y0024642D03*
D21*
X0110013Y0040267D02*
X0108513Y0040267D01*
X0108513Y0062267D01*
X0103513Y0037267D01*
X0100513Y0037267D02*
X0105513Y0062267D01*
X0102513Y0062267D02*
X0097513Y0037267D01*
X0094513Y0037267D02*
X0099513Y0062267D01*
X0096513Y0062267D02*
X0091513Y0037267D01*
X0091513Y0060267D01*
X0090013Y0060267D01*
D22*
X0070763Y0040267D03*
X0059263Y0040267D03*
D23*
X0070013Y0059517D03*
X0070013Y0071017D03*
X0130013Y0061017D03*
X0140013Y0051017D03*
X0130013Y0049517D03*
X0140013Y0039517D03*
X0120013Y0036017D03*
X0120013Y0024517D03*
X0150013Y0059517D03*
X0150013Y0071017D03*
D24*
X0152930Y0023918D02*
X0152930Y0022817D01*
X0152563Y0022817D02*
X0153297Y0022817D01*
X0152563Y0023551D02*
X0152930Y0023918D01*
X0057192Y0066617D02*
X0056458Y0066617D01*
X0056825Y0066617D02*
X0056825Y0067718D01*
X0056458Y0067351D01*
M02*
