G75*
%MOIN*%
%OFA0B0*%
%FSLAX25Y25*%
%IPPOS*%
%LPD*%
%AMOC8*
5,1,8,0,0,1.08239X$1,22.5*
%
%ADD10C,0.06343*%
%ADD11R,0.05556X0.05556*%
%ADD12OC8,0.07296*%
%ADD13OC8,0.05950*%
D10*
X0050013Y0030267D03*
X0050013Y0040267D03*
X0070013Y0030267D03*
X0080013Y0030267D03*
X0090013Y0030267D03*
X0090013Y0040267D03*
X0080013Y0040267D03*
X0100013Y0050267D03*
X0110013Y0050267D03*
X0120013Y0050267D03*
X0130013Y0050267D03*
X0140013Y0040267D03*
X0140013Y0060267D03*
X0150013Y0060267D03*
X0150013Y0080267D03*
X0130013Y0080267D03*
X0120013Y0080267D03*
X0110013Y0080267D03*
X0100013Y0080267D03*
X0090013Y0080267D03*
X0080013Y0070267D03*
X0070013Y0070267D03*
X0060013Y0080267D03*
X0050013Y0070267D03*
X0040013Y0060267D03*
X0030013Y0090267D03*
X0100013Y0060267D03*
X0110013Y0040267D03*
X0110013Y0020267D03*
X0100013Y0020267D03*
X0090013Y0020267D03*
X0080013Y0020267D03*
X0140013Y0020267D03*
D11*
X0140013Y0070267D03*
D12*
X0020013Y0030267D03*
X0040013Y0030267D03*
X0040013Y0050267D03*
D13*
X0050013Y0060267D03*
X0060013Y0060267D03*
X0070013Y0060267D03*
X0130013Y0040267D03*
X0130013Y0030267D03*
X0130013Y0020267D03*
M02*
