G75*
%MOIN*%
%OFA0B0*%
%FSLAX25Y25*%
%IPPOS*%
%LPD*%
%AMOC8*
5,1,8,0,0,1.08239X$1,22.5*
%
%ADD10C,0.00300*%
%ADD11C,0.00500*%
%ADD12C,0.00200*%
%ADD13R,0.05400X0.00900*%
%ADD14R,0.00900X0.05400*%
%ADD15C,0.00400*%
%ADD16R,0.01000X0.04000*%
%ADD17C,0.00600*%
%ADD18R,0.01500X0.02000*%
%ADD19C,0.00800*%
D10*
X0065072Y0050339D02*
X0067541Y0050339D01*
X0068615Y0056087D02*
X0068615Y0056587D01*
X0068115Y0056587D01*
X0068615Y0056587D02*
X0068615Y0057087D01*
X0068615Y0056587D02*
X0069115Y0056587D01*
X0047865Y0072837D02*
X0047365Y0072837D01*
X0046865Y0072837D01*
X0047365Y0072837D02*
X0047365Y0073337D01*
X0047365Y0072837D02*
X0047365Y0072337D01*
X0034848Y0073028D02*
X0032380Y0073028D01*
X0033614Y0071794D02*
X0033614Y0074262D01*
X0066418Y0098887D02*
X0068353Y0100338D01*
X0066418Y0101789D01*
X0069364Y0101789D02*
X0069364Y0098887D01*
X0071299Y0098887D02*
X0071299Y0101789D01*
X0072311Y0100822D02*
X0073278Y0101789D01*
X0074246Y0100822D01*
X0074246Y0098887D01*
X0075257Y0098887D02*
X0075257Y0101789D01*
X0076225Y0100822D01*
X0077192Y0101789D01*
X0077192Y0098887D01*
X0078204Y0098887D02*
X0080139Y0098887D01*
X0079171Y0100338D02*
X0078204Y0100338D01*
X0078204Y0101789D02*
X0078204Y0098887D01*
X0078204Y0101789D02*
X0080139Y0101789D01*
X0074246Y0100338D02*
X0072311Y0100338D01*
X0072311Y0100822D02*
X0072311Y0098887D01*
X0071299Y0098887D02*
X0069364Y0101789D01*
X0055815Y0118166D02*
X0054364Y0120101D01*
X0052913Y0118166D01*
X0052913Y0121113D02*
X0054848Y0121113D01*
X0055815Y0122080D01*
X0054848Y0123048D01*
X0052913Y0123048D01*
X0053880Y0124059D02*
X0052913Y0125027D01*
X0053880Y0125994D01*
X0055815Y0125994D01*
X0055815Y0127006D02*
X0055815Y0128941D01*
X0055332Y0129952D02*
X0055815Y0130436D01*
X0055815Y0131403D01*
X0055332Y0131887D01*
X0052913Y0131887D01*
X0052913Y0132899D02*
X0055815Y0132899D01*
X0055815Y0134834D01*
X0054364Y0133866D02*
X0054364Y0132899D01*
X0052913Y0132899D02*
X0052913Y0134834D01*
X0052913Y0129952D02*
X0055332Y0129952D01*
X0055815Y0127006D02*
X0052913Y0127006D01*
X0054364Y0125994D02*
X0054364Y0124059D01*
X0053880Y0124059D02*
X0055815Y0124059D01*
X0118115Y0086587D02*
X0118615Y0086587D01*
X0118615Y0086087D01*
X0118615Y0086587D02*
X0118615Y0087087D01*
X0118615Y0086587D02*
X0119115Y0086587D01*
X0143807Y0106604D02*
X0143807Y0109073D01*
X0142572Y0107839D02*
X0145041Y0107839D01*
X0187380Y0123028D02*
X0189848Y0123028D01*
X0188614Y0121794D02*
X0188614Y0124262D01*
X0200418Y0112749D02*
X0202353Y0111298D01*
X0200418Y0109847D01*
X0203364Y0109847D02*
X0203364Y0112749D01*
X0205299Y0109847D01*
X0205299Y0112749D01*
X0206311Y0111782D02*
X0207278Y0112749D01*
X0208246Y0111782D01*
X0208246Y0109847D01*
X0209257Y0109847D02*
X0209257Y0112749D01*
X0210225Y0111782D01*
X0211192Y0112749D01*
X0211192Y0109847D01*
X0212204Y0109847D02*
X0214139Y0109847D01*
X0213171Y0111298D02*
X0212204Y0111298D01*
X0212204Y0112749D02*
X0212204Y0109847D01*
X0212204Y0112749D02*
X0214139Y0112749D01*
X0208246Y0111298D02*
X0206311Y0111298D01*
X0206311Y0111782D02*
X0206311Y0109847D01*
X0220072Y0100339D02*
X0222541Y0100339D01*
X0185365Y0077837D02*
X0184865Y0077837D01*
X0184865Y0077337D01*
X0184865Y0077837D02*
X0184365Y0077837D01*
X0184865Y0077837D02*
X0184865Y0078337D01*
X0121114Y0139294D02*
X0121114Y0141762D01*
D11*
X0126115Y0105337D02*
X0106115Y0105337D01*
X0106115Y0095337D01*
X0126115Y0095337D01*
X0126115Y0105337D01*
X0110115Y0090337D02*
X0110117Y0090491D01*
X0110123Y0090646D01*
X0110133Y0090800D01*
X0110147Y0090954D01*
X0110165Y0091107D01*
X0110186Y0091260D01*
X0110212Y0091413D01*
X0110242Y0091564D01*
X0110275Y0091715D01*
X0110313Y0091865D01*
X0110354Y0092014D01*
X0110399Y0092162D01*
X0110448Y0092308D01*
X0110501Y0092454D01*
X0110557Y0092597D01*
X0110617Y0092740D01*
X0110681Y0092880D01*
X0110748Y0093020D01*
X0110819Y0093157D01*
X0110893Y0093292D01*
X0110971Y0093426D01*
X0111052Y0093557D01*
X0111137Y0093686D01*
X0111225Y0093814D01*
X0111316Y0093938D01*
X0111410Y0094061D01*
X0111508Y0094181D01*
X0111608Y0094298D01*
X0111712Y0094413D01*
X0111818Y0094525D01*
X0111927Y0094634D01*
X0112039Y0094740D01*
X0112154Y0094844D01*
X0112271Y0094944D01*
X0112391Y0095042D01*
X0112514Y0095136D01*
X0112638Y0095227D01*
X0112766Y0095315D01*
X0112895Y0095400D01*
X0113026Y0095481D01*
X0113160Y0095559D01*
X0113295Y0095633D01*
X0113432Y0095704D01*
X0113572Y0095771D01*
X0113712Y0095835D01*
X0113855Y0095895D01*
X0113998Y0095951D01*
X0114144Y0096004D01*
X0114290Y0096053D01*
X0114438Y0096098D01*
X0114587Y0096139D01*
X0114737Y0096177D01*
X0114888Y0096210D01*
X0115039Y0096240D01*
X0115192Y0096266D01*
X0115345Y0096287D01*
X0115498Y0096305D01*
X0115652Y0096319D01*
X0115806Y0096329D01*
X0115961Y0096335D01*
X0116115Y0096337D01*
X0116269Y0096335D01*
X0116424Y0096329D01*
X0116578Y0096319D01*
X0116732Y0096305D01*
X0116885Y0096287D01*
X0117038Y0096266D01*
X0117191Y0096240D01*
X0117342Y0096210D01*
X0117493Y0096177D01*
X0117643Y0096139D01*
X0117792Y0096098D01*
X0117940Y0096053D01*
X0118086Y0096004D01*
X0118232Y0095951D01*
X0118375Y0095895D01*
X0118518Y0095835D01*
X0118658Y0095771D01*
X0118798Y0095704D01*
X0118935Y0095633D01*
X0119070Y0095559D01*
X0119204Y0095481D01*
X0119335Y0095400D01*
X0119464Y0095315D01*
X0119592Y0095227D01*
X0119716Y0095136D01*
X0119839Y0095042D01*
X0119959Y0094944D01*
X0120076Y0094844D01*
X0120191Y0094740D01*
X0120303Y0094634D01*
X0120412Y0094525D01*
X0120518Y0094413D01*
X0120622Y0094298D01*
X0120722Y0094181D01*
X0120820Y0094061D01*
X0120914Y0093938D01*
X0121005Y0093814D01*
X0121093Y0093686D01*
X0121178Y0093557D01*
X0121259Y0093426D01*
X0121337Y0093292D01*
X0121411Y0093157D01*
X0121482Y0093020D01*
X0121549Y0092880D01*
X0121613Y0092740D01*
X0121673Y0092597D01*
X0121729Y0092454D01*
X0121782Y0092308D01*
X0121831Y0092162D01*
X0121876Y0092014D01*
X0121917Y0091865D01*
X0121955Y0091715D01*
X0121988Y0091564D01*
X0122018Y0091413D01*
X0122044Y0091260D01*
X0122065Y0091107D01*
X0122083Y0090954D01*
X0122097Y0090800D01*
X0122107Y0090646D01*
X0122113Y0090491D01*
X0122115Y0090337D01*
X0122113Y0090183D01*
X0122107Y0090028D01*
X0122097Y0089874D01*
X0122083Y0089720D01*
X0122065Y0089567D01*
X0122044Y0089414D01*
X0122018Y0089261D01*
X0121988Y0089110D01*
X0121955Y0088959D01*
X0121917Y0088809D01*
X0121876Y0088660D01*
X0121831Y0088512D01*
X0121782Y0088366D01*
X0121729Y0088220D01*
X0121673Y0088077D01*
X0121613Y0087934D01*
X0121549Y0087794D01*
X0121482Y0087654D01*
X0121411Y0087517D01*
X0121337Y0087382D01*
X0121259Y0087248D01*
X0121178Y0087117D01*
X0121093Y0086988D01*
X0121005Y0086860D01*
X0120914Y0086736D01*
X0120820Y0086613D01*
X0120722Y0086493D01*
X0120622Y0086376D01*
X0120518Y0086261D01*
X0120412Y0086149D01*
X0120303Y0086040D01*
X0120191Y0085934D01*
X0120076Y0085830D01*
X0119959Y0085730D01*
X0119839Y0085632D01*
X0119716Y0085538D01*
X0119592Y0085447D01*
X0119464Y0085359D01*
X0119335Y0085274D01*
X0119204Y0085193D01*
X0119070Y0085115D01*
X0118935Y0085041D01*
X0118798Y0084970D01*
X0118658Y0084903D01*
X0118518Y0084839D01*
X0118375Y0084779D01*
X0118232Y0084723D01*
X0118086Y0084670D01*
X0117940Y0084621D01*
X0117792Y0084576D01*
X0117643Y0084535D01*
X0117493Y0084497D01*
X0117342Y0084464D01*
X0117191Y0084434D01*
X0117038Y0084408D01*
X0116885Y0084387D01*
X0116732Y0084369D01*
X0116578Y0084355D01*
X0116424Y0084345D01*
X0116269Y0084339D01*
X0116115Y0084337D01*
X0115961Y0084339D01*
X0115806Y0084345D01*
X0115652Y0084355D01*
X0115498Y0084369D01*
X0115345Y0084387D01*
X0115192Y0084408D01*
X0115039Y0084434D01*
X0114888Y0084464D01*
X0114737Y0084497D01*
X0114587Y0084535D01*
X0114438Y0084576D01*
X0114290Y0084621D01*
X0114144Y0084670D01*
X0113998Y0084723D01*
X0113855Y0084779D01*
X0113712Y0084839D01*
X0113572Y0084903D01*
X0113432Y0084970D01*
X0113295Y0085041D01*
X0113160Y0085115D01*
X0113026Y0085193D01*
X0112895Y0085274D01*
X0112766Y0085359D01*
X0112638Y0085447D01*
X0112514Y0085538D01*
X0112391Y0085632D01*
X0112271Y0085730D01*
X0112154Y0085830D01*
X0112039Y0085934D01*
X0111927Y0086040D01*
X0111818Y0086149D01*
X0111712Y0086261D01*
X0111608Y0086376D01*
X0111508Y0086493D01*
X0111410Y0086613D01*
X0111316Y0086736D01*
X0111225Y0086860D01*
X0111137Y0086988D01*
X0111052Y0087117D01*
X0110971Y0087248D01*
X0110893Y0087382D01*
X0110819Y0087517D01*
X0110748Y0087654D01*
X0110681Y0087794D01*
X0110617Y0087934D01*
X0110557Y0088077D01*
X0110501Y0088220D01*
X0110448Y0088366D01*
X0110399Y0088512D01*
X0110354Y0088660D01*
X0110313Y0088809D01*
X0110275Y0088959D01*
X0110242Y0089110D01*
X0110212Y0089261D01*
X0110186Y0089414D01*
X0110165Y0089567D01*
X0110147Y0089720D01*
X0110133Y0089874D01*
X0110123Y0090028D01*
X0110117Y0090183D01*
X0110115Y0090337D01*
X0060115Y0060337D02*
X0060117Y0060491D01*
X0060123Y0060646D01*
X0060133Y0060800D01*
X0060147Y0060954D01*
X0060165Y0061107D01*
X0060186Y0061260D01*
X0060212Y0061413D01*
X0060242Y0061564D01*
X0060275Y0061715D01*
X0060313Y0061865D01*
X0060354Y0062014D01*
X0060399Y0062162D01*
X0060448Y0062308D01*
X0060501Y0062454D01*
X0060557Y0062597D01*
X0060617Y0062740D01*
X0060681Y0062880D01*
X0060748Y0063020D01*
X0060819Y0063157D01*
X0060893Y0063292D01*
X0060971Y0063426D01*
X0061052Y0063557D01*
X0061137Y0063686D01*
X0061225Y0063814D01*
X0061316Y0063938D01*
X0061410Y0064061D01*
X0061508Y0064181D01*
X0061608Y0064298D01*
X0061712Y0064413D01*
X0061818Y0064525D01*
X0061927Y0064634D01*
X0062039Y0064740D01*
X0062154Y0064844D01*
X0062271Y0064944D01*
X0062391Y0065042D01*
X0062514Y0065136D01*
X0062638Y0065227D01*
X0062766Y0065315D01*
X0062895Y0065400D01*
X0063026Y0065481D01*
X0063160Y0065559D01*
X0063295Y0065633D01*
X0063432Y0065704D01*
X0063572Y0065771D01*
X0063712Y0065835D01*
X0063855Y0065895D01*
X0063998Y0065951D01*
X0064144Y0066004D01*
X0064290Y0066053D01*
X0064438Y0066098D01*
X0064587Y0066139D01*
X0064737Y0066177D01*
X0064888Y0066210D01*
X0065039Y0066240D01*
X0065192Y0066266D01*
X0065345Y0066287D01*
X0065498Y0066305D01*
X0065652Y0066319D01*
X0065806Y0066329D01*
X0065961Y0066335D01*
X0066115Y0066337D01*
X0066269Y0066335D01*
X0066424Y0066329D01*
X0066578Y0066319D01*
X0066732Y0066305D01*
X0066885Y0066287D01*
X0067038Y0066266D01*
X0067191Y0066240D01*
X0067342Y0066210D01*
X0067493Y0066177D01*
X0067643Y0066139D01*
X0067792Y0066098D01*
X0067940Y0066053D01*
X0068086Y0066004D01*
X0068232Y0065951D01*
X0068375Y0065895D01*
X0068518Y0065835D01*
X0068658Y0065771D01*
X0068798Y0065704D01*
X0068935Y0065633D01*
X0069070Y0065559D01*
X0069204Y0065481D01*
X0069335Y0065400D01*
X0069464Y0065315D01*
X0069592Y0065227D01*
X0069716Y0065136D01*
X0069839Y0065042D01*
X0069959Y0064944D01*
X0070076Y0064844D01*
X0070191Y0064740D01*
X0070303Y0064634D01*
X0070412Y0064525D01*
X0070518Y0064413D01*
X0070622Y0064298D01*
X0070722Y0064181D01*
X0070820Y0064061D01*
X0070914Y0063938D01*
X0071005Y0063814D01*
X0071093Y0063686D01*
X0071178Y0063557D01*
X0071259Y0063426D01*
X0071337Y0063292D01*
X0071411Y0063157D01*
X0071482Y0063020D01*
X0071549Y0062880D01*
X0071613Y0062740D01*
X0071673Y0062597D01*
X0071729Y0062454D01*
X0071782Y0062308D01*
X0071831Y0062162D01*
X0071876Y0062014D01*
X0071917Y0061865D01*
X0071955Y0061715D01*
X0071988Y0061564D01*
X0072018Y0061413D01*
X0072044Y0061260D01*
X0072065Y0061107D01*
X0072083Y0060954D01*
X0072097Y0060800D01*
X0072107Y0060646D01*
X0072113Y0060491D01*
X0072115Y0060337D01*
X0072113Y0060183D01*
X0072107Y0060028D01*
X0072097Y0059874D01*
X0072083Y0059720D01*
X0072065Y0059567D01*
X0072044Y0059414D01*
X0072018Y0059261D01*
X0071988Y0059110D01*
X0071955Y0058959D01*
X0071917Y0058809D01*
X0071876Y0058660D01*
X0071831Y0058512D01*
X0071782Y0058366D01*
X0071729Y0058220D01*
X0071673Y0058077D01*
X0071613Y0057934D01*
X0071549Y0057794D01*
X0071482Y0057654D01*
X0071411Y0057517D01*
X0071337Y0057382D01*
X0071259Y0057248D01*
X0071178Y0057117D01*
X0071093Y0056988D01*
X0071005Y0056860D01*
X0070914Y0056736D01*
X0070820Y0056613D01*
X0070722Y0056493D01*
X0070622Y0056376D01*
X0070518Y0056261D01*
X0070412Y0056149D01*
X0070303Y0056040D01*
X0070191Y0055934D01*
X0070076Y0055830D01*
X0069959Y0055730D01*
X0069839Y0055632D01*
X0069716Y0055538D01*
X0069592Y0055447D01*
X0069464Y0055359D01*
X0069335Y0055274D01*
X0069204Y0055193D01*
X0069070Y0055115D01*
X0068935Y0055041D01*
X0068798Y0054970D01*
X0068658Y0054903D01*
X0068518Y0054839D01*
X0068375Y0054779D01*
X0068232Y0054723D01*
X0068086Y0054670D01*
X0067940Y0054621D01*
X0067792Y0054576D01*
X0067643Y0054535D01*
X0067493Y0054497D01*
X0067342Y0054464D01*
X0067191Y0054434D01*
X0067038Y0054408D01*
X0066885Y0054387D01*
X0066732Y0054369D01*
X0066578Y0054355D01*
X0066424Y0054345D01*
X0066269Y0054339D01*
X0066115Y0054337D01*
X0065961Y0054339D01*
X0065806Y0054345D01*
X0065652Y0054355D01*
X0065498Y0054369D01*
X0065345Y0054387D01*
X0065192Y0054408D01*
X0065039Y0054434D01*
X0064888Y0054464D01*
X0064737Y0054497D01*
X0064587Y0054535D01*
X0064438Y0054576D01*
X0064290Y0054621D01*
X0064144Y0054670D01*
X0063998Y0054723D01*
X0063855Y0054779D01*
X0063712Y0054839D01*
X0063572Y0054903D01*
X0063432Y0054970D01*
X0063295Y0055041D01*
X0063160Y0055115D01*
X0063026Y0055193D01*
X0062895Y0055274D01*
X0062766Y0055359D01*
X0062638Y0055447D01*
X0062514Y0055538D01*
X0062391Y0055632D01*
X0062271Y0055730D01*
X0062154Y0055830D01*
X0062039Y0055934D01*
X0061927Y0056040D01*
X0061818Y0056149D01*
X0061712Y0056261D01*
X0061608Y0056376D01*
X0061508Y0056493D01*
X0061410Y0056613D01*
X0061316Y0056736D01*
X0061225Y0056860D01*
X0061137Y0056988D01*
X0061052Y0057117D01*
X0060971Y0057248D01*
X0060893Y0057382D01*
X0060819Y0057517D01*
X0060748Y0057654D01*
X0060681Y0057794D01*
X0060617Y0057934D01*
X0060557Y0058077D01*
X0060501Y0058220D01*
X0060448Y0058366D01*
X0060399Y0058512D01*
X0060354Y0058660D01*
X0060313Y0058809D01*
X0060275Y0058959D01*
X0060242Y0059110D01*
X0060212Y0059261D01*
X0060186Y0059414D01*
X0060165Y0059567D01*
X0060147Y0059720D01*
X0060133Y0059874D01*
X0060123Y0060028D01*
X0060117Y0060183D01*
X0060115Y0060337D01*
X0046115Y0055337D02*
X0046115Y0035337D01*
X0036115Y0035337D01*
X0036115Y0055337D01*
X0046115Y0055337D01*
X0045115Y0075337D02*
X0045117Y0075491D01*
X0045123Y0075646D01*
X0045133Y0075800D01*
X0045147Y0075954D01*
X0045165Y0076107D01*
X0045186Y0076260D01*
X0045212Y0076413D01*
X0045242Y0076564D01*
X0045275Y0076715D01*
X0045313Y0076865D01*
X0045354Y0077014D01*
X0045399Y0077162D01*
X0045448Y0077308D01*
X0045501Y0077454D01*
X0045557Y0077597D01*
X0045617Y0077740D01*
X0045681Y0077880D01*
X0045748Y0078020D01*
X0045819Y0078157D01*
X0045893Y0078292D01*
X0045971Y0078426D01*
X0046052Y0078557D01*
X0046137Y0078686D01*
X0046225Y0078814D01*
X0046316Y0078938D01*
X0046410Y0079061D01*
X0046508Y0079181D01*
X0046608Y0079298D01*
X0046712Y0079413D01*
X0046818Y0079525D01*
X0046927Y0079634D01*
X0047039Y0079740D01*
X0047154Y0079844D01*
X0047271Y0079944D01*
X0047391Y0080042D01*
X0047514Y0080136D01*
X0047638Y0080227D01*
X0047766Y0080315D01*
X0047895Y0080400D01*
X0048026Y0080481D01*
X0048160Y0080559D01*
X0048295Y0080633D01*
X0048432Y0080704D01*
X0048572Y0080771D01*
X0048712Y0080835D01*
X0048855Y0080895D01*
X0048998Y0080951D01*
X0049144Y0081004D01*
X0049290Y0081053D01*
X0049438Y0081098D01*
X0049587Y0081139D01*
X0049737Y0081177D01*
X0049888Y0081210D01*
X0050039Y0081240D01*
X0050192Y0081266D01*
X0050345Y0081287D01*
X0050498Y0081305D01*
X0050652Y0081319D01*
X0050806Y0081329D01*
X0050961Y0081335D01*
X0051115Y0081337D01*
X0051269Y0081335D01*
X0051424Y0081329D01*
X0051578Y0081319D01*
X0051732Y0081305D01*
X0051885Y0081287D01*
X0052038Y0081266D01*
X0052191Y0081240D01*
X0052342Y0081210D01*
X0052493Y0081177D01*
X0052643Y0081139D01*
X0052792Y0081098D01*
X0052940Y0081053D01*
X0053086Y0081004D01*
X0053232Y0080951D01*
X0053375Y0080895D01*
X0053518Y0080835D01*
X0053658Y0080771D01*
X0053798Y0080704D01*
X0053935Y0080633D01*
X0054070Y0080559D01*
X0054204Y0080481D01*
X0054335Y0080400D01*
X0054464Y0080315D01*
X0054592Y0080227D01*
X0054716Y0080136D01*
X0054839Y0080042D01*
X0054959Y0079944D01*
X0055076Y0079844D01*
X0055191Y0079740D01*
X0055303Y0079634D01*
X0055412Y0079525D01*
X0055518Y0079413D01*
X0055622Y0079298D01*
X0055722Y0079181D01*
X0055820Y0079061D01*
X0055914Y0078938D01*
X0056005Y0078814D01*
X0056093Y0078686D01*
X0056178Y0078557D01*
X0056259Y0078426D01*
X0056337Y0078292D01*
X0056411Y0078157D01*
X0056482Y0078020D01*
X0056549Y0077880D01*
X0056613Y0077740D01*
X0056673Y0077597D01*
X0056729Y0077454D01*
X0056782Y0077308D01*
X0056831Y0077162D01*
X0056876Y0077014D01*
X0056917Y0076865D01*
X0056955Y0076715D01*
X0056988Y0076564D01*
X0057018Y0076413D01*
X0057044Y0076260D01*
X0057065Y0076107D01*
X0057083Y0075954D01*
X0057097Y0075800D01*
X0057107Y0075646D01*
X0057113Y0075491D01*
X0057115Y0075337D01*
X0057113Y0075183D01*
X0057107Y0075028D01*
X0057097Y0074874D01*
X0057083Y0074720D01*
X0057065Y0074567D01*
X0057044Y0074414D01*
X0057018Y0074261D01*
X0056988Y0074110D01*
X0056955Y0073959D01*
X0056917Y0073809D01*
X0056876Y0073660D01*
X0056831Y0073512D01*
X0056782Y0073366D01*
X0056729Y0073220D01*
X0056673Y0073077D01*
X0056613Y0072934D01*
X0056549Y0072794D01*
X0056482Y0072654D01*
X0056411Y0072517D01*
X0056337Y0072382D01*
X0056259Y0072248D01*
X0056178Y0072117D01*
X0056093Y0071988D01*
X0056005Y0071860D01*
X0055914Y0071736D01*
X0055820Y0071613D01*
X0055722Y0071493D01*
X0055622Y0071376D01*
X0055518Y0071261D01*
X0055412Y0071149D01*
X0055303Y0071040D01*
X0055191Y0070934D01*
X0055076Y0070830D01*
X0054959Y0070730D01*
X0054839Y0070632D01*
X0054716Y0070538D01*
X0054592Y0070447D01*
X0054464Y0070359D01*
X0054335Y0070274D01*
X0054204Y0070193D01*
X0054070Y0070115D01*
X0053935Y0070041D01*
X0053798Y0069970D01*
X0053658Y0069903D01*
X0053518Y0069839D01*
X0053375Y0069779D01*
X0053232Y0069723D01*
X0053086Y0069670D01*
X0052940Y0069621D01*
X0052792Y0069576D01*
X0052643Y0069535D01*
X0052493Y0069497D01*
X0052342Y0069464D01*
X0052191Y0069434D01*
X0052038Y0069408D01*
X0051885Y0069387D01*
X0051732Y0069369D01*
X0051578Y0069355D01*
X0051424Y0069345D01*
X0051269Y0069339D01*
X0051115Y0069337D01*
X0050961Y0069339D01*
X0050806Y0069345D01*
X0050652Y0069355D01*
X0050498Y0069369D01*
X0050345Y0069387D01*
X0050192Y0069408D01*
X0050039Y0069434D01*
X0049888Y0069464D01*
X0049737Y0069497D01*
X0049587Y0069535D01*
X0049438Y0069576D01*
X0049290Y0069621D01*
X0049144Y0069670D01*
X0048998Y0069723D01*
X0048855Y0069779D01*
X0048712Y0069839D01*
X0048572Y0069903D01*
X0048432Y0069970D01*
X0048295Y0070041D01*
X0048160Y0070115D01*
X0048026Y0070193D01*
X0047895Y0070274D01*
X0047766Y0070359D01*
X0047638Y0070447D01*
X0047514Y0070538D01*
X0047391Y0070632D01*
X0047271Y0070730D01*
X0047154Y0070830D01*
X0047039Y0070934D01*
X0046927Y0071040D01*
X0046818Y0071149D01*
X0046712Y0071261D01*
X0046608Y0071376D01*
X0046508Y0071493D01*
X0046410Y0071613D01*
X0046316Y0071736D01*
X0046225Y0071860D01*
X0046137Y0071988D01*
X0046052Y0072117D01*
X0045971Y0072248D01*
X0045893Y0072382D01*
X0045819Y0072517D01*
X0045748Y0072654D01*
X0045681Y0072794D01*
X0045617Y0072934D01*
X0045557Y0073077D01*
X0045501Y0073220D01*
X0045448Y0073366D01*
X0045399Y0073512D01*
X0045354Y0073660D01*
X0045313Y0073809D01*
X0045275Y0073959D01*
X0045242Y0074110D01*
X0045212Y0074261D01*
X0045186Y0074414D01*
X0045165Y0074567D01*
X0045147Y0074720D01*
X0045133Y0074874D01*
X0045123Y0075028D01*
X0045117Y0075183D01*
X0045115Y0075337D01*
X0051115Y0089849D02*
X0051115Y0110825D01*
X0057615Y0108585D02*
X0057615Y0092089D01*
X0055587Y0109837D02*
X0055322Y0109950D01*
X0055054Y0110056D01*
X0054784Y0110155D01*
X0054511Y0110248D01*
X0054236Y0110334D01*
X0053959Y0110413D01*
X0053681Y0110486D01*
X0053400Y0110551D01*
X0053118Y0110610D01*
X0052835Y0110662D01*
X0052550Y0110707D01*
X0052264Y0110744D01*
X0051978Y0110775D01*
X0051691Y0110799D01*
X0051403Y0110816D01*
X0051115Y0110825D01*
X0055587Y0090837D02*
X0055322Y0090724D01*
X0055054Y0090618D01*
X0054784Y0090519D01*
X0054511Y0090426D01*
X0054236Y0090340D01*
X0053959Y0090261D01*
X0053681Y0090188D01*
X0053400Y0090123D01*
X0053118Y0090064D01*
X0052835Y0090012D01*
X0052550Y0089967D01*
X0052264Y0089930D01*
X0051978Y0089899D01*
X0051691Y0089875D01*
X0051403Y0089858D01*
X0051115Y0089849D01*
X0051116Y0089849D02*
X0050884Y0089846D01*
X0050653Y0089848D01*
X0050422Y0089856D01*
X0050191Y0089870D01*
X0049961Y0089889D01*
X0049731Y0089914D01*
X0049502Y0089945D01*
X0049273Y0089981D01*
X0049046Y0090022D01*
X0048819Y0090069D01*
X0048594Y0090122D01*
X0048370Y0090180D01*
X0048148Y0090244D01*
X0047927Y0090313D01*
X0047708Y0090387D01*
X0047491Y0090467D01*
X0047276Y0090552D01*
X0047063Y0090642D01*
X0046852Y0090737D01*
X0046644Y0090837D01*
X0055587Y0090835D02*
X0055802Y0090939D01*
X0056015Y0091048D01*
X0056225Y0091162D01*
X0056432Y0091281D01*
X0056637Y0091404D01*
X0056839Y0091532D01*
X0057038Y0091665D01*
X0057233Y0091802D01*
X0057426Y0091943D01*
X0057615Y0092089D01*
X0046644Y0090837D02*
X0046414Y0090949D01*
X0046187Y0091066D01*
X0045963Y0091188D01*
X0045742Y0091316D01*
X0045525Y0091450D01*
X0045310Y0091588D01*
X0045099Y0091732D01*
X0044892Y0091881D01*
X0044688Y0092035D01*
X0044488Y0092193D01*
X0044292Y0092357D01*
X0044100Y0092525D01*
X0043912Y0092698D01*
X0043728Y0092876D01*
X0043549Y0093057D01*
X0043374Y0093244D01*
X0043204Y0093434D01*
X0043039Y0093628D01*
X0042878Y0093827D01*
X0042722Y0094029D01*
X0042571Y0094235D01*
X0042425Y0094445D01*
X0042285Y0094658D01*
X0042149Y0094874D01*
X0042019Y0095094D01*
X0041894Y0095317D01*
X0041775Y0095542D01*
X0041661Y0095771D01*
X0041553Y0096002D01*
X0041450Y0096236D01*
X0041353Y0096472D01*
X0041262Y0096711D01*
X0041177Y0096951D01*
X0041097Y0097194D01*
X0041024Y0097439D01*
X0040956Y0097685D01*
X0040895Y0097933D01*
X0040840Y0098182D01*
X0040790Y0098432D01*
X0040747Y0098684D01*
X0040710Y0098937D01*
X0040679Y0099190D01*
X0040654Y0099444D01*
X0040635Y0099699D01*
X0040623Y0099954D01*
X0040617Y0100209D01*
X0040617Y0100465D01*
X0040623Y0100720D01*
X0040635Y0100975D01*
X0040654Y0101230D01*
X0040679Y0101484D01*
X0040710Y0101737D01*
X0040747Y0101990D01*
X0040790Y0102242D01*
X0040840Y0102492D01*
X0040895Y0102741D01*
X0040956Y0102989D01*
X0041024Y0103235D01*
X0041097Y0103480D01*
X0041177Y0103723D01*
X0041262Y0103963D01*
X0041353Y0104202D01*
X0041450Y0104438D01*
X0041553Y0104672D01*
X0041661Y0104903D01*
X0041775Y0105132D01*
X0041894Y0105357D01*
X0042019Y0105580D01*
X0042149Y0105800D01*
X0042285Y0106016D01*
X0042425Y0106229D01*
X0042571Y0106439D01*
X0042722Y0106645D01*
X0042878Y0106847D01*
X0043039Y0107046D01*
X0043204Y0107240D01*
X0043374Y0107430D01*
X0043549Y0107617D01*
X0043728Y0107798D01*
X0043912Y0107976D01*
X0044100Y0108149D01*
X0044292Y0108317D01*
X0044488Y0108481D01*
X0044688Y0108639D01*
X0044892Y0108793D01*
X0045099Y0108942D01*
X0045310Y0109086D01*
X0045525Y0109224D01*
X0045742Y0109358D01*
X0045963Y0109486D01*
X0046187Y0109608D01*
X0046414Y0109725D01*
X0046644Y0109837D01*
X0046852Y0109937D01*
X0047063Y0110032D01*
X0047276Y0110122D01*
X0047491Y0110207D01*
X0047708Y0110287D01*
X0047927Y0110361D01*
X0048148Y0110430D01*
X0048370Y0110494D01*
X0048594Y0110552D01*
X0048819Y0110605D01*
X0049046Y0110652D01*
X0049273Y0110693D01*
X0049502Y0110729D01*
X0049731Y0110760D01*
X0049961Y0110785D01*
X0050191Y0110804D01*
X0050422Y0110818D01*
X0050653Y0110826D01*
X0050884Y0110828D01*
X0051116Y0110825D01*
X0055493Y0109883D02*
X0055718Y0109776D01*
X0055941Y0109664D01*
X0056161Y0109547D01*
X0056378Y0109425D01*
X0056593Y0109297D01*
X0056804Y0109164D01*
X0057012Y0109027D01*
X0057216Y0108884D01*
X0057418Y0108737D01*
X0057615Y0108585D01*
X0176115Y0105337D02*
X0176115Y0085337D01*
X0186115Y0085337D01*
X0186115Y0105337D01*
X0176115Y0105337D01*
X0175115Y0075337D02*
X0175117Y0075491D01*
X0175123Y0075646D01*
X0175133Y0075800D01*
X0175147Y0075954D01*
X0175165Y0076107D01*
X0175186Y0076260D01*
X0175212Y0076413D01*
X0175242Y0076564D01*
X0175275Y0076715D01*
X0175313Y0076865D01*
X0175354Y0077014D01*
X0175399Y0077162D01*
X0175448Y0077308D01*
X0175501Y0077454D01*
X0175557Y0077597D01*
X0175617Y0077740D01*
X0175681Y0077880D01*
X0175748Y0078020D01*
X0175819Y0078157D01*
X0175893Y0078292D01*
X0175971Y0078426D01*
X0176052Y0078557D01*
X0176137Y0078686D01*
X0176225Y0078814D01*
X0176316Y0078938D01*
X0176410Y0079061D01*
X0176508Y0079181D01*
X0176608Y0079298D01*
X0176712Y0079413D01*
X0176818Y0079525D01*
X0176927Y0079634D01*
X0177039Y0079740D01*
X0177154Y0079844D01*
X0177271Y0079944D01*
X0177391Y0080042D01*
X0177514Y0080136D01*
X0177638Y0080227D01*
X0177766Y0080315D01*
X0177895Y0080400D01*
X0178026Y0080481D01*
X0178160Y0080559D01*
X0178295Y0080633D01*
X0178432Y0080704D01*
X0178572Y0080771D01*
X0178712Y0080835D01*
X0178855Y0080895D01*
X0178998Y0080951D01*
X0179144Y0081004D01*
X0179290Y0081053D01*
X0179438Y0081098D01*
X0179587Y0081139D01*
X0179737Y0081177D01*
X0179888Y0081210D01*
X0180039Y0081240D01*
X0180192Y0081266D01*
X0180345Y0081287D01*
X0180498Y0081305D01*
X0180652Y0081319D01*
X0180806Y0081329D01*
X0180961Y0081335D01*
X0181115Y0081337D01*
X0181269Y0081335D01*
X0181424Y0081329D01*
X0181578Y0081319D01*
X0181732Y0081305D01*
X0181885Y0081287D01*
X0182038Y0081266D01*
X0182191Y0081240D01*
X0182342Y0081210D01*
X0182493Y0081177D01*
X0182643Y0081139D01*
X0182792Y0081098D01*
X0182940Y0081053D01*
X0183086Y0081004D01*
X0183232Y0080951D01*
X0183375Y0080895D01*
X0183518Y0080835D01*
X0183658Y0080771D01*
X0183798Y0080704D01*
X0183935Y0080633D01*
X0184070Y0080559D01*
X0184204Y0080481D01*
X0184335Y0080400D01*
X0184464Y0080315D01*
X0184592Y0080227D01*
X0184716Y0080136D01*
X0184839Y0080042D01*
X0184959Y0079944D01*
X0185076Y0079844D01*
X0185191Y0079740D01*
X0185303Y0079634D01*
X0185412Y0079525D01*
X0185518Y0079413D01*
X0185622Y0079298D01*
X0185722Y0079181D01*
X0185820Y0079061D01*
X0185914Y0078938D01*
X0186005Y0078814D01*
X0186093Y0078686D01*
X0186178Y0078557D01*
X0186259Y0078426D01*
X0186337Y0078292D01*
X0186411Y0078157D01*
X0186482Y0078020D01*
X0186549Y0077880D01*
X0186613Y0077740D01*
X0186673Y0077597D01*
X0186729Y0077454D01*
X0186782Y0077308D01*
X0186831Y0077162D01*
X0186876Y0077014D01*
X0186917Y0076865D01*
X0186955Y0076715D01*
X0186988Y0076564D01*
X0187018Y0076413D01*
X0187044Y0076260D01*
X0187065Y0076107D01*
X0187083Y0075954D01*
X0187097Y0075800D01*
X0187107Y0075646D01*
X0187113Y0075491D01*
X0187115Y0075337D01*
X0187113Y0075183D01*
X0187107Y0075028D01*
X0187097Y0074874D01*
X0187083Y0074720D01*
X0187065Y0074567D01*
X0187044Y0074414D01*
X0187018Y0074261D01*
X0186988Y0074110D01*
X0186955Y0073959D01*
X0186917Y0073809D01*
X0186876Y0073660D01*
X0186831Y0073512D01*
X0186782Y0073366D01*
X0186729Y0073220D01*
X0186673Y0073077D01*
X0186613Y0072934D01*
X0186549Y0072794D01*
X0186482Y0072654D01*
X0186411Y0072517D01*
X0186337Y0072382D01*
X0186259Y0072248D01*
X0186178Y0072117D01*
X0186093Y0071988D01*
X0186005Y0071860D01*
X0185914Y0071736D01*
X0185820Y0071613D01*
X0185722Y0071493D01*
X0185622Y0071376D01*
X0185518Y0071261D01*
X0185412Y0071149D01*
X0185303Y0071040D01*
X0185191Y0070934D01*
X0185076Y0070830D01*
X0184959Y0070730D01*
X0184839Y0070632D01*
X0184716Y0070538D01*
X0184592Y0070447D01*
X0184464Y0070359D01*
X0184335Y0070274D01*
X0184204Y0070193D01*
X0184070Y0070115D01*
X0183935Y0070041D01*
X0183798Y0069970D01*
X0183658Y0069903D01*
X0183518Y0069839D01*
X0183375Y0069779D01*
X0183232Y0069723D01*
X0183086Y0069670D01*
X0182940Y0069621D01*
X0182792Y0069576D01*
X0182643Y0069535D01*
X0182493Y0069497D01*
X0182342Y0069464D01*
X0182191Y0069434D01*
X0182038Y0069408D01*
X0181885Y0069387D01*
X0181732Y0069369D01*
X0181578Y0069355D01*
X0181424Y0069345D01*
X0181269Y0069339D01*
X0181115Y0069337D01*
X0180961Y0069339D01*
X0180806Y0069345D01*
X0180652Y0069355D01*
X0180498Y0069369D01*
X0180345Y0069387D01*
X0180192Y0069408D01*
X0180039Y0069434D01*
X0179888Y0069464D01*
X0179737Y0069497D01*
X0179587Y0069535D01*
X0179438Y0069576D01*
X0179290Y0069621D01*
X0179144Y0069670D01*
X0178998Y0069723D01*
X0178855Y0069779D01*
X0178712Y0069839D01*
X0178572Y0069903D01*
X0178432Y0069970D01*
X0178295Y0070041D01*
X0178160Y0070115D01*
X0178026Y0070193D01*
X0177895Y0070274D01*
X0177766Y0070359D01*
X0177638Y0070447D01*
X0177514Y0070538D01*
X0177391Y0070632D01*
X0177271Y0070730D01*
X0177154Y0070830D01*
X0177039Y0070934D01*
X0176927Y0071040D01*
X0176818Y0071149D01*
X0176712Y0071261D01*
X0176608Y0071376D01*
X0176508Y0071493D01*
X0176410Y0071613D01*
X0176316Y0071736D01*
X0176225Y0071860D01*
X0176137Y0071988D01*
X0176052Y0072117D01*
X0175971Y0072248D01*
X0175893Y0072382D01*
X0175819Y0072517D01*
X0175748Y0072654D01*
X0175681Y0072794D01*
X0175617Y0072934D01*
X0175557Y0073077D01*
X0175501Y0073220D01*
X0175448Y0073366D01*
X0175399Y0073512D01*
X0175354Y0073660D01*
X0175313Y0073809D01*
X0175275Y0073959D01*
X0175242Y0074110D01*
X0175212Y0074261D01*
X0175186Y0074414D01*
X0175165Y0074567D01*
X0175147Y0074720D01*
X0175133Y0074874D01*
X0175123Y0075028D01*
X0175117Y0075183D01*
X0175115Y0075337D01*
D12*
X0156992Y0079237D02*
X0155524Y0079237D01*
X0155524Y0081439D01*
X0156992Y0081439D01*
X0156258Y0080338D02*
X0155524Y0080338D01*
X0154782Y0079604D02*
X0154782Y0081439D01*
X0153314Y0081439D02*
X0153314Y0079604D01*
X0153681Y0079237D01*
X0154415Y0079237D01*
X0154782Y0079604D01*
X0152572Y0079237D02*
X0151104Y0079237D01*
X0151104Y0081439D01*
X0150362Y0080705D02*
X0150362Y0079237D01*
X0150362Y0080338D02*
X0148894Y0080338D01*
X0148894Y0080705D02*
X0148894Y0079237D01*
X0148152Y0079971D02*
X0148152Y0081439D01*
X0148894Y0080705D02*
X0149628Y0081439D01*
X0150362Y0080705D01*
X0148152Y0079971D02*
X0147418Y0079237D01*
X0146685Y0079971D01*
X0146685Y0081439D01*
X0145943Y0080338D02*
X0144475Y0079237D01*
X0145943Y0080338D02*
X0144475Y0081439D01*
X0140887Y0079889D02*
X0139419Y0079889D01*
X0139419Y0077687D01*
X0140887Y0077687D01*
X0140153Y0078788D02*
X0139419Y0078788D01*
X0138677Y0079889D02*
X0137943Y0079155D01*
X0137209Y0079889D01*
X0137209Y0077687D01*
X0136467Y0077687D02*
X0136467Y0079155D01*
X0135733Y0079889D01*
X0134999Y0079155D01*
X0134999Y0077687D01*
X0134257Y0077687D02*
X0134257Y0079889D01*
X0134915Y0080565D02*
X0132714Y0080565D01*
X0132789Y0079889D02*
X0134257Y0077687D01*
X0133815Y0078355D02*
X0134915Y0076887D01*
X0133815Y0078355D02*
X0132714Y0076887D01*
X0132789Y0077687D02*
X0132789Y0079889D01*
X0132714Y0079097D02*
X0134915Y0080565D01*
X0134915Y0081307D02*
X0133448Y0081307D01*
X0132714Y0082041D01*
X0133448Y0082775D01*
X0134915Y0082775D01*
X0134915Y0083517D02*
X0132714Y0083517D01*
X0133448Y0084251D01*
X0132714Y0084985D01*
X0134915Y0084985D01*
X0134915Y0085727D02*
X0134915Y0087195D01*
X0133815Y0086461D02*
X0133815Y0085727D01*
X0134915Y0085727D02*
X0132714Y0085727D01*
X0132714Y0087195D01*
X0133815Y0082775D02*
X0133815Y0081307D01*
X0134915Y0079097D02*
X0132714Y0079097D01*
X0132048Y0078788D02*
X0130580Y0077687D01*
X0132048Y0078788D02*
X0130580Y0079889D01*
X0134999Y0078788D02*
X0136467Y0078788D01*
X0138677Y0079889D02*
X0138677Y0077687D01*
X0122415Y0065695D02*
X0122415Y0064227D01*
X0120214Y0064227D01*
X0120214Y0065695D01*
X0121315Y0064961D02*
X0121315Y0064227D01*
X0122048Y0063485D02*
X0120214Y0063485D01*
X0120214Y0062017D02*
X0122048Y0062017D01*
X0122415Y0062384D01*
X0122415Y0063118D01*
X0122048Y0063485D01*
X0122415Y0061275D02*
X0122415Y0059807D01*
X0120214Y0059807D01*
X0120948Y0059065D02*
X0122415Y0059065D01*
X0121315Y0059065D02*
X0121315Y0057597D01*
X0120948Y0057597D02*
X0120214Y0058331D01*
X0120948Y0059065D01*
X0120948Y0057597D02*
X0122415Y0057597D01*
X0121682Y0056855D02*
X0122415Y0056121D01*
X0121682Y0055387D01*
X0120214Y0055387D01*
X0121315Y0054645D02*
X0122415Y0053178D01*
X0121315Y0054645D02*
X0120214Y0053178D01*
X0125956Y0053239D02*
X0127424Y0052138D01*
X0125956Y0051037D01*
X0128166Y0051771D02*
X0128166Y0053239D01*
X0129634Y0053239D02*
X0129634Y0051771D01*
X0128900Y0051037D01*
X0128166Y0051771D01*
X0130376Y0052138D02*
X0131844Y0052138D01*
X0131844Y0052505D02*
X0131844Y0051037D01*
X0132586Y0051037D02*
X0134054Y0051037D01*
X0134795Y0051404D02*
X0135162Y0051037D01*
X0135896Y0051037D01*
X0136263Y0051404D01*
X0136263Y0053239D01*
X0137005Y0053239D02*
X0137005Y0051037D01*
X0138473Y0051037D01*
X0137739Y0052138D02*
X0137005Y0052138D01*
X0137005Y0053239D02*
X0138473Y0053239D01*
X0134795Y0053239D02*
X0134795Y0051404D01*
X0132586Y0051037D02*
X0132586Y0053239D01*
X0131844Y0052505D02*
X0131110Y0053239D01*
X0130376Y0052505D01*
X0130376Y0051037D01*
X0121682Y0056855D02*
X0120214Y0056855D01*
X0114915Y0066887D02*
X0113815Y0068355D01*
X0112714Y0066887D01*
X0112714Y0069097D02*
X0114915Y0070565D01*
X0112714Y0070565D01*
X0113448Y0071307D02*
X0112714Y0072041D01*
X0113448Y0072775D01*
X0114915Y0072775D01*
X0114915Y0073517D02*
X0112714Y0073517D01*
X0113448Y0074251D01*
X0112714Y0074985D01*
X0114915Y0074985D01*
X0114915Y0075727D02*
X0114915Y0077195D01*
X0113815Y0076461D02*
X0113815Y0075727D01*
X0114915Y0075727D02*
X0112714Y0075727D01*
X0112714Y0077195D01*
X0113815Y0072775D02*
X0113815Y0071307D01*
X0113448Y0071307D02*
X0114915Y0071307D01*
X0114915Y0069097D02*
X0112714Y0069097D01*
X0102415Y0055695D02*
X0102415Y0054227D01*
X0100214Y0054227D01*
X0100214Y0055695D01*
X0101315Y0054961D02*
X0101315Y0054227D01*
X0101091Y0053239D02*
X0101091Y0051037D01*
X0100948Y0051275D02*
X0102415Y0051275D01*
X0101833Y0051037D02*
X0103301Y0051037D01*
X0102415Y0052017D02*
X0100214Y0052017D01*
X0100948Y0052751D01*
X0100214Y0053485D01*
X0102415Y0053485D01*
X0101833Y0053239D02*
X0103301Y0053239D01*
X0102567Y0052138D02*
X0101833Y0052138D01*
X0101315Y0051275D02*
X0101315Y0049807D01*
X0100948Y0049807D02*
X0100214Y0050541D01*
X0100948Y0051275D01*
X0101833Y0051037D02*
X0101833Y0053239D01*
X0101091Y0053239D02*
X0100357Y0052505D01*
X0099623Y0053239D01*
X0099623Y0051037D01*
X0098881Y0051037D02*
X0098881Y0052505D01*
X0098147Y0053239D01*
X0097413Y0052505D01*
X0097413Y0051037D01*
X0096671Y0051037D02*
X0096671Y0053239D01*
X0097413Y0052138D02*
X0098881Y0052138D01*
X0096671Y0051037D02*
X0095203Y0053239D01*
X0095203Y0051037D01*
X0094461Y0052138D02*
X0092993Y0051037D01*
X0094461Y0052138D02*
X0092993Y0053239D01*
X0090887Y0049889D02*
X0089419Y0049889D01*
X0089419Y0047687D01*
X0090887Y0047687D01*
X0090153Y0048788D02*
X0089419Y0048788D01*
X0088677Y0049889D02*
X0088677Y0047687D01*
X0087209Y0047687D02*
X0087209Y0049889D01*
X0087943Y0049155D01*
X0088677Y0049889D01*
X0088473Y0051037D02*
X0087005Y0051037D01*
X0087005Y0053239D01*
X0088473Y0053239D01*
X0087739Y0052138D02*
X0087005Y0052138D01*
X0086263Y0051404D02*
X0086263Y0053239D01*
X0084795Y0053239D02*
X0084795Y0051404D01*
X0085162Y0051037D01*
X0085896Y0051037D01*
X0086263Y0051404D01*
X0085733Y0049889D02*
X0086467Y0049155D01*
X0086467Y0047687D01*
X0086467Y0048788D02*
X0084999Y0048788D01*
X0084999Y0049155D02*
X0085733Y0049889D01*
X0084999Y0049155D02*
X0084999Y0047687D01*
X0084257Y0047687D02*
X0084257Y0049889D01*
X0084054Y0051037D02*
X0082586Y0051037D01*
X0082586Y0053239D01*
X0081844Y0052505D02*
X0081844Y0051037D01*
X0081844Y0052138D02*
X0080376Y0052138D01*
X0080376Y0052505D02*
X0080376Y0051037D01*
X0079634Y0051771D02*
X0079634Y0053239D01*
X0080376Y0052505D02*
X0081110Y0053239D01*
X0081844Y0052505D01*
X0079634Y0051771D02*
X0078900Y0051037D01*
X0078166Y0051771D01*
X0078166Y0053239D01*
X0077424Y0052138D02*
X0075956Y0051037D01*
X0077424Y0052138D02*
X0075956Y0053239D01*
X0080580Y0049889D02*
X0082048Y0048788D01*
X0080580Y0047687D01*
X0082789Y0047687D02*
X0082789Y0049889D01*
X0084257Y0047687D01*
X0084586Y0059337D02*
X0084586Y0060805D01*
X0085320Y0061539D01*
X0086054Y0060805D01*
X0086054Y0059337D01*
X0086054Y0060805D01*
X0085320Y0061539D01*
X0084586Y0060805D01*
X0084586Y0059337D01*
X0083844Y0059337D02*
X0083844Y0061539D01*
X0083844Y0059337D01*
X0082376Y0061539D01*
X0082376Y0059337D01*
X0082376Y0061539D01*
X0083844Y0059337D01*
X0084586Y0060438D02*
X0086054Y0060438D01*
X0084586Y0060438D01*
X0086796Y0059337D02*
X0086796Y0061539D01*
X0087529Y0060805D01*
X0088263Y0061539D01*
X0088263Y0059337D01*
X0088263Y0061539D01*
X0087529Y0060805D01*
X0086796Y0061539D01*
X0086796Y0059337D01*
X0089005Y0059337D02*
X0090473Y0059337D01*
X0089005Y0059337D01*
X0089005Y0061539D01*
X0090473Y0061539D01*
X0089005Y0061539D01*
X0089005Y0059337D01*
X0089005Y0060438D02*
X0089739Y0060438D01*
X0089005Y0060438D01*
X0086873Y0066337D02*
X0085405Y0066337D01*
X0085405Y0068539D01*
X0086873Y0068539D01*
X0085405Y0068539D01*
X0085405Y0066337D01*
X0086873Y0066337D01*
X0086139Y0067438D02*
X0085405Y0067438D01*
X0086139Y0067438D01*
X0084663Y0066704D02*
X0084663Y0068539D01*
X0084663Y0066704D01*
X0084296Y0066337D01*
X0083562Y0066337D01*
X0083195Y0066704D01*
X0083195Y0068539D01*
X0083195Y0066704D01*
X0083562Y0066337D01*
X0084296Y0066337D01*
X0084663Y0066704D01*
X0082454Y0066337D02*
X0080986Y0066337D01*
X0080986Y0068539D01*
X0080986Y0066337D01*
X0082454Y0066337D01*
X0080244Y0066337D02*
X0080244Y0067805D01*
X0079510Y0068539D01*
X0078776Y0067805D01*
X0078776Y0066337D01*
X0078776Y0067805D01*
X0079510Y0068539D01*
X0080244Y0067805D01*
X0080244Y0066337D01*
X0080244Y0067438D02*
X0078776Y0067438D01*
X0080244Y0067438D01*
X0078034Y0067071D02*
X0078034Y0068539D01*
X0078034Y0067071D01*
X0077300Y0066337D01*
X0076566Y0067071D01*
X0076566Y0068539D01*
X0076566Y0067071D01*
X0077300Y0066337D01*
X0078034Y0067071D01*
X0075824Y0067438D02*
X0074356Y0066337D01*
X0075824Y0067438D01*
X0074356Y0068539D01*
X0075824Y0067438D01*
X0079475Y0070787D02*
X0080943Y0071888D01*
X0079475Y0072989D01*
X0081685Y0072989D02*
X0081685Y0071521D01*
X0082418Y0070787D01*
X0083152Y0071521D01*
X0083152Y0072989D01*
X0083894Y0072255D02*
X0084628Y0072989D01*
X0085362Y0072255D01*
X0085362Y0070787D01*
X0086104Y0070787D02*
X0087572Y0070787D01*
X0088314Y0071154D02*
X0088681Y0070787D01*
X0089415Y0070787D01*
X0089782Y0071154D01*
X0089782Y0072989D01*
X0090524Y0072989D02*
X0090524Y0070787D01*
X0091992Y0070787D01*
X0091258Y0071888D02*
X0090524Y0071888D01*
X0090524Y0072989D02*
X0091992Y0072989D01*
X0088314Y0072989D02*
X0088314Y0071154D01*
X0086104Y0070787D02*
X0086104Y0072989D01*
X0085362Y0071888D02*
X0083894Y0071888D01*
X0083894Y0072255D02*
X0083894Y0070787D01*
X0083844Y0079337D02*
X0083844Y0081539D01*
X0083844Y0079337D01*
X0082376Y0081539D01*
X0082376Y0079337D01*
X0082376Y0081539D01*
X0083844Y0079337D01*
X0084586Y0079337D02*
X0084586Y0080805D01*
X0085320Y0081539D01*
X0086054Y0080805D01*
X0086054Y0079337D01*
X0086054Y0080805D01*
X0085320Y0081539D01*
X0084586Y0080805D01*
X0084586Y0079337D01*
X0084586Y0080438D02*
X0086054Y0080438D01*
X0084586Y0080438D01*
X0086796Y0081539D02*
X0087529Y0080805D01*
X0088263Y0081539D01*
X0088263Y0079337D01*
X0088263Y0081539D01*
X0087529Y0080805D01*
X0086796Y0081539D01*
X0086796Y0079337D01*
X0086796Y0081539D01*
X0089005Y0081539D02*
X0089005Y0079337D01*
X0090473Y0079337D01*
X0089005Y0079337D01*
X0089005Y0081539D01*
X0090473Y0081539D01*
X0089005Y0081539D01*
X0089005Y0080438D02*
X0089739Y0080438D01*
X0089005Y0080438D01*
X0081634Y0080438D02*
X0080166Y0079337D01*
X0081634Y0080438D01*
X0080166Y0081539D01*
X0081634Y0080438D01*
X0080986Y0086337D02*
X0082454Y0086337D01*
X0080986Y0086337D01*
X0080986Y0088539D01*
X0080986Y0086337D01*
X0080244Y0086337D02*
X0080244Y0087805D01*
X0079510Y0088539D01*
X0078776Y0087805D01*
X0078776Y0086337D01*
X0078776Y0087805D01*
X0079510Y0088539D01*
X0080244Y0087805D01*
X0080244Y0086337D01*
X0080244Y0087438D02*
X0078776Y0087438D01*
X0080244Y0087438D01*
X0078034Y0087071D02*
X0078034Y0088539D01*
X0078034Y0087071D01*
X0077300Y0086337D01*
X0076566Y0087071D01*
X0076566Y0088539D01*
X0076566Y0087071D01*
X0077300Y0086337D01*
X0078034Y0087071D01*
X0075824Y0087438D02*
X0074356Y0086337D01*
X0075824Y0087438D01*
X0074356Y0088539D01*
X0075824Y0087438D01*
X0083195Y0086704D02*
X0083562Y0086337D01*
X0084296Y0086337D01*
X0084663Y0086704D01*
X0084663Y0088539D01*
X0084663Y0086704D01*
X0084296Y0086337D01*
X0083562Y0086337D01*
X0083195Y0086704D01*
X0083195Y0088539D01*
X0083195Y0086704D01*
X0085405Y0086337D02*
X0085405Y0088539D01*
X0086873Y0088539D01*
X0085405Y0088539D01*
X0085405Y0086337D01*
X0086873Y0086337D01*
X0085405Y0086337D01*
X0085405Y0087438D02*
X0086139Y0087438D01*
X0085405Y0087438D01*
X0094475Y0099237D02*
X0095943Y0100338D01*
X0094475Y0101439D01*
X0096685Y0101439D02*
X0096685Y0099971D01*
X0097418Y0099237D01*
X0098152Y0099971D01*
X0098152Y0101439D01*
X0098894Y0100705D02*
X0099628Y0101439D01*
X0100362Y0100705D01*
X0100362Y0099237D01*
X0101104Y0099237D02*
X0102572Y0099237D01*
X0103314Y0099604D02*
X0103681Y0099237D01*
X0104415Y0099237D01*
X0104782Y0099604D01*
X0104782Y0101439D01*
X0105524Y0101439D02*
X0105524Y0099237D01*
X0106992Y0099237D01*
X0106258Y0100338D02*
X0105524Y0100338D01*
X0105524Y0101439D02*
X0106992Y0101439D01*
X0103314Y0101439D02*
X0103314Y0099604D01*
X0101104Y0099237D02*
X0101104Y0101439D01*
X0100362Y0100338D02*
X0098894Y0100338D01*
X0098894Y0100705D02*
X0098894Y0099237D01*
X0119814Y0104215D02*
X0120915Y0105683D01*
X0122015Y0104215D01*
X0121282Y0106425D02*
X0119814Y0106425D01*
X0121282Y0106425D02*
X0122015Y0107159D01*
X0121282Y0107893D01*
X0119814Y0107893D01*
X0120548Y0108635D02*
X0119814Y0109369D01*
X0120548Y0110103D01*
X0122015Y0110103D01*
X0122015Y0110844D02*
X0119814Y0110844D01*
X0120915Y0110103D02*
X0120915Y0108635D01*
X0120548Y0108635D02*
X0122015Y0108635D01*
X0122015Y0110844D02*
X0122015Y0112312D01*
X0121648Y0113054D02*
X0122015Y0113421D01*
X0122015Y0114155D01*
X0121648Y0114522D01*
X0119814Y0114522D01*
X0119814Y0115264D02*
X0122015Y0115264D01*
X0122015Y0116732D01*
X0120915Y0115998D02*
X0120915Y0115264D01*
X0119814Y0115264D02*
X0119814Y0116732D01*
X0119814Y0113054D02*
X0121648Y0113054D01*
X0129475Y0102989D02*
X0130943Y0101888D01*
X0129475Y0100787D01*
X0131685Y0101521D02*
X0131685Y0102989D01*
X0133152Y0102989D02*
X0133152Y0101521D01*
X0132418Y0100787D01*
X0131685Y0101521D01*
X0133894Y0101888D02*
X0135362Y0101888D01*
X0135362Y0102255D02*
X0135362Y0100787D01*
X0136104Y0100787D02*
X0136104Y0102989D01*
X0135362Y0102255D02*
X0134628Y0102989D01*
X0133894Y0102255D01*
X0133894Y0100787D01*
X0136104Y0100787D02*
X0137572Y0100787D01*
X0138314Y0101154D02*
X0138314Y0102989D01*
X0139782Y0102989D02*
X0139782Y0101154D01*
X0139415Y0100787D01*
X0138681Y0100787D01*
X0138314Y0101154D01*
X0140524Y0100787D02*
X0140524Y0102989D01*
X0141992Y0102989D01*
X0141258Y0101888D02*
X0140524Y0101888D01*
X0140524Y0100787D02*
X0141992Y0100787D01*
X0142015Y0114215D02*
X0140915Y0115683D01*
X0139814Y0114215D01*
X0139814Y0116425D02*
X0142015Y0117893D01*
X0139814Y0117893D01*
X0140548Y0118635D02*
X0139814Y0119369D01*
X0140548Y0120103D01*
X0142015Y0120103D01*
X0142015Y0120844D02*
X0139814Y0120844D01*
X0140548Y0121578D01*
X0139814Y0122312D01*
X0142015Y0122312D01*
X0142015Y0123054D02*
X0142015Y0124522D01*
X0140915Y0123788D02*
X0140915Y0123054D01*
X0142015Y0123054D02*
X0139814Y0123054D01*
X0139814Y0124522D01*
X0140915Y0120103D02*
X0140915Y0118635D01*
X0140548Y0118635D02*
X0142015Y0118635D01*
X0142015Y0116425D02*
X0139814Y0116425D01*
X0168464Y0101213D02*
X0168464Y0099746D01*
X0170665Y0099746D01*
X0170665Y0101213D01*
X0169565Y0100480D02*
X0169565Y0099746D01*
X0170298Y0099004D02*
X0168464Y0099004D01*
X0168464Y0097536D02*
X0170298Y0097536D01*
X0170665Y0097903D01*
X0170665Y0098637D01*
X0170298Y0099004D01*
X0170665Y0096794D02*
X0170665Y0095326D01*
X0168464Y0095326D01*
X0169198Y0094584D02*
X0168464Y0093850D01*
X0169198Y0093116D01*
X0170665Y0093116D01*
X0169932Y0092374D02*
X0168464Y0092374D01*
X0168152Y0091439D02*
X0168152Y0089971D01*
X0167418Y0089237D01*
X0166685Y0089971D01*
X0166685Y0091439D01*
X0165943Y0090338D02*
X0164475Y0089237D01*
X0165943Y0090338D02*
X0164475Y0091439D01*
X0168464Y0090906D02*
X0169932Y0090906D01*
X0170665Y0091640D01*
X0169932Y0092374D01*
X0169565Y0093116D02*
X0169565Y0094584D01*
X0169198Y0094584D02*
X0170665Y0094584D01*
X0171104Y0091439D02*
X0171104Y0089237D01*
X0172572Y0089237D01*
X0173314Y0089604D02*
X0173681Y0089237D01*
X0174415Y0089237D01*
X0174782Y0089604D01*
X0174782Y0091439D01*
X0175524Y0091439D02*
X0175524Y0089237D01*
X0176992Y0089237D01*
X0176258Y0090338D02*
X0175524Y0090338D01*
X0175524Y0091439D02*
X0176992Y0091439D01*
X0173314Y0091439D02*
X0173314Y0089604D01*
X0170665Y0088696D02*
X0169565Y0090164D01*
X0168464Y0088696D01*
X0168894Y0089237D02*
X0168894Y0090705D01*
X0169628Y0091439D01*
X0170362Y0090705D01*
X0170362Y0089237D01*
X0170362Y0090338D02*
X0168894Y0090338D01*
X0191564Y0089801D02*
X0192665Y0091269D01*
X0193765Y0089801D01*
X0193765Y0092011D02*
X0191564Y0092011D01*
X0193765Y0093479D01*
X0191564Y0093479D01*
X0192298Y0094221D02*
X0191564Y0094955D01*
X0192298Y0095689D01*
X0193765Y0095689D01*
X0193765Y0096431D02*
X0191564Y0096431D01*
X0192298Y0097165D01*
X0191564Y0097899D01*
X0193765Y0097899D01*
X0193765Y0098641D02*
X0193765Y0100109D01*
X0192665Y0099375D02*
X0192665Y0098641D01*
X0193765Y0098641D02*
X0191564Y0098641D01*
X0191564Y0100109D01*
X0192665Y0095689D02*
X0192665Y0094221D01*
X0192298Y0094221D02*
X0193765Y0094221D01*
X0226993Y0094237D02*
X0228461Y0095338D01*
X0226993Y0096439D01*
X0229203Y0096439D02*
X0229203Y0094971D01*
X0229937Y0094237D01*
X0230671Y0094971D01*
X0230671Y0096439D01*
X0231413Y0095705D02*
X0232147Y0096439D01*
X0232881Y0095705D01*
X0232881Y0094237D01*
X0233623Y0094237D02*
X0235091Y0094237D01*
X0235833Y0094604D02*
X0236200Y0094237D01*
X0236934Y0094237D01*
X0237301Y0094604D01*
X0237301Y0096439D01*
X0238043Y0096439D02*
X0238043Y0094237D01*
X0239511Y0094237D01*
X0238777Y0095338D02*
X0238043Y0095338D01*
X0238043Y0096439D02*
X0239511Y0096439D01*
X0235833Y0096439D02*
X0235833Y0094604D01*
X0233623Y0094237D02*
X0233623Y0096439D01*
X0232881Y0095338D02*
X0231413Y0095338D01*
X0231413Y0095705D02*
X0231413Y0094237D01*
X0166873Y0058539D02*
X0165405Y0058539D01*
X0165405Y0056337D01*
X0166873Y0056337D01*
X0165405Y0056337D01*
X0165405Y0058539D01*
X0166873Y0058539D01*
X0166139Y0057438D02*
X0165405Y0057438D01*
X0166139Y0057438D01*
X0164663Y0056704D02*
X0164663Y0058539D01*
X0164663Y0056704D01*
X0164296Y0056337D01*
X0163562Y0056337D01*
X0163195Y0056704D01*
X0163195Y0058539D01*
X0163195Y0056704D01*
X0163562Y0056337D01*
X0164296Y0056337D01*
X0164663Y0056704D01*
X0162454Y0056337D02*
X0160986Y0056337D01*
X0160986Y0058539D01*
X0160986Y0056337D01*
X0162454Y0056337D01*
X0160244Y0056337D02*
X0160244Y0057805D01*
X0159510Y0058539D01*
X0158776Y0057805D01*
X0158776Y0056337D01*
X0158776Y0057805D01*
X0159510Y0058539D01*
X0160244Y0057805D01*
X0160244Y0056337D01*
X0160244Y0057438D02*
X0158776Y0057438D01*
X0160244Y0057438D01*
X0158034Y0057071D02*
X0158034Y0058539D01*
X0158034Y0057071D01*
X0157300Y0056337D01*
X0156566Y0057071D01*
X0156566Y0058539D01*
X0156566Y0057071D01*
X0157300Y0056337D01*
X0158034Y0057071D01*
X0155824Y0057438D02*
X0154356Y0056337D01*
X0155824Y0057438D01*
X0154356Y0058539D01*
X0155824Y0057438D01*
X0153301Y0053239D02*
X0151833Y0053239D01*
X0151833Y0051037D01*
X0153301Y0051037D01*
X0152567Y0052138D02*
X0151833Y0052138D01*
X0151091Y0053239D02*
X0151091Y0051037D01*
X0149623Y0051037D02*
X0149623Y0053239D01*
X0150357Y0052505D01*
X0151091Y0053239D01*
X0148881Y0052505D02*
X0148881Y0051037D01*
X0148881Y0052138D02*
X0147413Y0052138D01*
X0147413Y0052505D02*
X0147413Y0051037D01*
X0146671Y0051037D02*
X0146671Y0053239D01*
X0147413Y0052505D02*
X0148147Y0053239D01*
X0148881Y0052505D01*
X0146671Y0051037D02*
X0145203Y0053239D01*
X0145203Y0051037D01*
X0144461Y0052138D02*
X0142993Y0051037D01*
X0144461Y0052138D02*
X0142993Y0053239D01*
X0160166Y0051539D02*
X0161634Y0050438D01*
X0160166Y0049337D01*
X0161634Y0050438D01*
X0160166Y0051539D01*
X0162376Y0051539D02*
X0163844Y0049337D01*
X0163844Y0051539D01*
X0163844Y0049337D01*
X0162376Y0051539D01*
X0162376Y0049337D01*
X0162376Y0051539D01*
X0164586Y0050805D02*
X0165320Y0051539D01*
X0166054Y0050805D01*
X0166054Y0049337D01*
X0166054Y0050805D01*
X0165320Y0051539D01*
X0164586Y0050805D01*
X0164586Y0049337D01*
X0164586Y0050805D01*
X0164586Y0050438D02*
X0166054Y0050438D01*
X0164586Y0050438D01*
X0166796Y0049337D02*
X0166796Y0051539D01*
X0167529Y0050805D01*
X0168263Y0051539D01*
X0168263Y0049337D01*
X0168263Y0051539D01*
X0167529Y0050805D01*
X0166796Y0051539D01*
X0166796Y0049337D01*
X0169005Y0049337D02*
X0170473Y0049337D01*
X0169005Y0049337D01*
X0169005Y0051539D01*
X0170473Y0051539D01*
X0169005Y0051539D01*
X0169005Y0049337D01*
X0169005Y0050438D02*
X0169739Y0050438D01*
X0169005Y0050438D01*
X0175956Y0051037D02*
X0177424Y0052138D01*
X0175956Y0053239D01*
X0178166Y0053239D02*
X0178166Y0051771D01*
X0178900Y0051037D01*
X0179634Y0051771D01*
X0179634Y0053239D01*
X0180376Y0052505D02*
X0180376Y0051037D01*
X0180376Y0052138D02*
X0181844Y0052138D01*
X0181844Y0052505D02*
X0181844Y0051037D01*
X0182586Y0051037D02*
X0182586Y0053239D01*
X0181844Y0052505D02*
X0181110Y0053239D01*
X0180376Y0052505D01*
X0182586Y0051037D02*
X0184054Y0051037D01*
X0184795Y0051404D02*
X0184795Y0053239D01*
X0186263Y0053239D02*
X0186263Y0051404D01*
X0185896Y0051037D01*
X0185162Y0051037D01*
X0184795Y0051404D01*
X0187005Y0051037D02*
X0187005Y0053239D01*
X0188473Y0053239D01*
X0187739Y0052138D02*
X0187005Y0052138D01*
X0187005Y0051037D02*
X0188473Y0051037D01*
X0192993Y0051037D02*
X0194461Y0052138D01*
X0192993Y0053239D01*
X0195203Y0053239D02*
X0195203Y0051037D01*
X0196671Y0051037D02*
X0195203Y0053239D01*
X0196671Y0053239D02*
X0196671Y0051037D01*
X0197413Y0051037D02*
X0197413Y0052505D01*
X0198147Y0053239D01*
X0198881Y0052505D01*
X0198881Y0051037D01*
X0199623Y0051037D02*
X0199623Y0053239D01*
X0200357Y0052505D01*
X0201091Y0053239D01*
X0201091Y0051037D01*
X0201833Y0051037D02*
X0203301Y0051037D01*
X0202567Y0052138D02*
X0201833Y0052138D01*
X0201833Y0053239D02*
X0201833Y0051037D01*
X0201833Y0053239D02*
X0203301Y0053239D01*
X0198881Y0052138D02*
X0197413Y0052138D01*
X0102415Y0049807D02*
X0100948Y0049807D01*
X0100214Y0049065D02*
X0102415Y0049065D01*
X0100214Y0047597D01*
X0102415Y0047597D01*
X0101315Y0046855D02*
X0100214Y0045387D01*
X0101315Y0046855D02*
X0102415Y0045387D01*
X0081634Y0060438D02*
X0080166Y0059337D01*
X0081634Y0060438D01*
X0080166Y0061539D01*
X0081634Y0060438D01*
X0063765Y0088696D02*
X0062665Y0090164D01*
X0061564Y0088696D01*
X0061564Y0090906D02*
X0063032Y0090906D01*
X0063765Y0091640D01*
X0063032Y0092374D01*
X0061564Y0092374D01*
X0062298Y0093116D02*
X0061564Y0093850D01*
X0062298Y0094584D01*
X0063765Y0094584D01*
X0063765Y0095326D02*
X0061564Y0095326D01*
X0062665Y0094584D02*
X0062665Y0093116D01*
X0062298Y0093116D02*
X0063765Y0093116D01*
X0063765Y0095326D02*
X0063765Y0096794D01*
X0063398Y0097536D02*
X0063765Y0097903D01*
X0063765Y0098637D01*
X0063398Y0099004D01*
X0061564Y0099004D01*
X0061564Y0099746D02*
X0063765Y0099746D01*
X0063765Y0101213D01*
X0062665Y0100480D02*
X0062665Y0099746D01*
X0061564Y0099746D02*
X0061564Y0101213D01*
X0061564Y0097536D02*
X0063398Y0097536D01*
X0040665Y0097899D02*
X0038464Y0097899D01*
X0039198Y0097165D01*
X0038464Y0096431D01*
X0040665Y0096431D01*
X0040665Y0095689D02*
X0039198Y0095689D01*
X0038464Y0094955D01*
X0039198Y0094221D01*
X0040665Y0094221D01*
X0040665Y0093479D02*
X0038464Y0093479D01*
X0039565Y0094221D02*
X0039565Y0095689D01*
X0040665Y0093479D02*
X0038464Y0092011D01*
X0040665Y0092011D01*
X0039565Y0091269D02*
X0040665Y0089801D01*
X0039565Y0091269D02*
X0038464Y0089801D01*
X0038464Y0098641D02*
X0040665Y0098641D01*
X0040665Y0100109D01*
X0039565Y0099375D02*
X0039565Y0098641D01*
X0038464Y0098641D02*
X0038464Y0100109D01*
X0097314Y0142715D02*
X0098415Y0144183D01*
X0099515Y0142715D01*
X0099515Y0144925D02*
X0097314Y0144925D01*
X0099515Y0146393D01*
X0097314Y0146393D01*
X0098048Y0147135D02*
X0097314Y0147869D01*
X0098048Y0148603D01*
X0099515Y0148603D01*
X0099515Y0149344D02*
X0097314Y0149344D01*
X0098048Y0150078D01*
X0097314Y0150812D01*
X0099515Y0150812D01*
X0099515Y0151554D02*
X0099515Y0153022D01*
X0098415Y0152288D02*
X0098415Y0151554D01*
X0099515Y0151554D02*
X0097314Y0151554D01*
X0097314Y0153022D01*
X0098415Y0148603D02*
X0098415Y0147135D01*
X0098048Y0147135D02*
X0099515Y0147135D01*
X0115014Y0146215D02*
X0116115Y0147683D01*
X0117215Y0146215D01*
X0116482Y0148425D02*
X0117215Y0149159D01*
X0116482Y0149893D01*
X0115014Y0149893D01*
X0115748Y0150635D02*
X0115014Y0151369D01*
X0115748Y0152103D01*
X0117215Y0152103D01*
X0117215Y0152844D02*
X0117215Y0154312D01*
X0116848Y0155054D02*
X0117215Y0155421D01*
X0117215Y0156155D01*
X0116848Y0156522D01*
X0115014Y0156522D01*
X0115014Y0157264D02*
X0117215Y0157264D01*
X0117215Y0158732D01*
X0116115Y0157998D02*
X0116115Y0157264D01*
X0115014Y0157264D02*
X0115014Y0158732D01*
X0115014Y0155054D02*
X0116848Y0155054D01*
X0117215Y0152844D02*
X0115014Y0152844D01*
X0116115Y0152103D02*
X0116115Y0150635D01*
X0115748Y0150635D02*
X0117215Y0150635D01*
X0116482Y0148425D02*
X0115014Y0148425D01*
X0034473Y0046439D02*
X0033005Y0046439D01*
X0033005Y0044237D01*
X0034473Y0044237D01*
X0033739Y0045338D02*
X0033005Y0045338D01*
X0032263Y0044604D02*
X0032263Y0046439D01*
X0030795Y0046439D02*
X0030795Y0044604D01*
X0031162Y0044237D01*
X0031896Y0044237D01*
X0032263Y0044604D01*
X0030054Y0044237D02*
X0028586Y0044237D01*
X0028586Y0046439D01*
X0027844Y0045705D02*
X0027844Y0044237D01*
X0027844Y0045338D02*
X0026376Y0045338D01*
X0026376Y0045705D02*
X0027110Y0046439D01*
X0027844Y0045705D01*
X0026376Y0045705D02*
X0026376Y0044237D01*
X0025634Y0044971D02*
X0025634Y0046439D01*
X0025634Y0044971D02*
X0024900Y0044237D01*
X0024166Y0044971D01*
X0024166Y0046439D01*
X0023424Y0045338D02*
X0021956Y0044237D01*
X0023424Y0045338D02*
X0021956Y0046439D01*
D13*
X0051115Y0076487D03*
X0181115Y0074187D03*
D14*
X0114965Y0090337D03*
X0064965Y0060337D03*
D15*
X0102615Y0059337D02*
X0102615Y0061337D01*
X0102617Y0061413D01*
X0102623Y0061489D01*
X0102632Y0061564D01*
X0102646Y0061639D01*
X0102663Y0061713D01*
X0102684Y0061786D01*
X0102708Y0061858D01*
X0102737Y0061929D01*
X0102768Y0061998D01*
X0102803Y0062065D01*
X0102842Y0062130D01*
X0102884Y0062194D01*
X0102929Y0062255D01*
X0102977Y0062314D01*
X0103028Y0062370D01*
X0103082Y0062424D01*
X0103138Y0062475D01*
X0103197Y0062523D01*
X0103258Y0062568D01*
X0103322Y0062610D01*
X0103387Y0062649D01*
X0103454Y0062684D01*
X0103523Y0062715D01*
X0103594Y0062744D01*
X0103666Y0062768D01*
X0103739Y0062789D01*
X0103813Y0062806D01*
X0103888Y0062820D01*
X0103963Y0062829D01*
X0104039Y0062835D01*
X0104115Y0062837D01*
X0118115Y0062837D01*
X0118191Y0062835D01*
X0118267Y0062829D01*
X0118342Y0062820D01*
X0118417Y0062806D01*
X0118491Y0062789D01*
X0118564Y0062768D01*
X0118636Y0062744D01*
X0118707Y0062715D01*
X0118776Y0062684D01*
X0118843Y0062649D01*
X0118908Y0062610D01*
X0118972Y0062568D01*
X0119033Y0062523D01*
X0119092Y0062475D01*
X0119148Y0062424D01*
X0119202Y0062370D01*
X0119253Y0062314D01*
X0119301Y0062255D01*
X0119346Y0062194D01*
X0119388Y0062130D01*
X0119427Y0062065D01*
X0119462Y0061998D01*
X0119493Y0061929D01*
X0119522Y0061858D01*
X0119546Y0061786D01*
X0119567Y0061713D01*
X0119584Y0061639D01*
X0119598Y0061564D01*
X0119607Y0061489D01*
X0119613Y0061413D01*
X0119615Y0061337D01*
X0119615Y0059337D01*
X0119613Y0059261D01*
X0119607Y0059185D01*
X0119598Y0059110D01*
X0119584Y0059035D01*
X0119567Y0058961D01*
X0119546Y0058888D01*
X0119522Y0058816D01*
X0119493Y0058745D01*
X0119462Y0058676D01*
X0119427Y0058609D01*
X0119388Y0058544D01*
X0119346Y0058480D01*
X0119301Y0058419D01*
X0119253Y0058360D01*
X0119202Y0058304D01*
X0119148Y0058250D01*
X0119092Y0058199D01*
X0119033Y0058151D01*
X0118972Y0058106D01*
X0118908Y0058064D01*
X0118843Y0058025D01*
X0118776Y0057990D01*
X0118707Y0057959D01*
X0118636Y0057930D01*
X0118564Y0057906D01*
X0118491Y0057885D01*
X0118417Y0057868D01*
X0118342Y0057854D01*
X0118267Y0057845D01*
X0118191Y0057839D01*
X0118115Y0057837D01*
X0104115Y0057837D01*
X0104039Y0057839D01*
X0103963Y0057845D01*
X0103888Y0057854D01*
X0103813Y0057868D01*
X0103739Y0057885D01*
X0103666Y0057906D01*
X0103594Y0057930D01*
X0103523Y0057959D01*
X0103454Y0057990D01*
X0103387Y0058025D01*
X0103322Y0058064D01*
X0103258Y0058106D01*
X0103197Y0058151D01*
X0103138Y0058199D01*
X0103082Y0058250D01*
X0103028Y0058304D01*
X0102977Y0058360D01*
X0102929Y0058419D01*
X0102884Y0058480D01*
X0102842Y0058544D01*
X0102803Y0058609D01*
X0102768Y0058676D01*
X0102737Y0058745D01*
X0102708Y0058816D01*
X0102684Y0058888D01*
X0102663Y0058961D01*
X0102646Y0059035D01*
X0102632Y0059110D01*
X0102623Y0059185D01*
X0102617Y0059261D01*
X0102615Y0059337D01*
X0122615Y0069337D02*
X0122615Y0071337D01*
X0122617Y0071413D01*
X0122623Y0071489D01*
X0122632Y0071564D01*
X0122646Y0071639D01*
X0122663Y0071713D01*
X0122684Y0071786D01*
X0122708Y0071858D01*
X0122737Y0071929D01*
X0122768Y0071998D01*
X0122803Y0072065D01*
X0122842Y0072130D01*
X0122884Y0072194D01*
X0122929Y0072255D01*
X0122977Y0072314D01*
X0123028Y0072370D01*
X0123082Y0072424D01*
X0123138Y0072475D01*
X0123197Y0072523D01*
X0123258Y0072568D01*
X0123322Y0072610D01*
X0123387Y0072649D01*
X0123454Y0072684D01*
X0123523Y0072715D01*
X0123594Y0072744D01*
X0123666Y0072768D01*
X0123739Y0072789D01*
X0123813Y0072806D01*
X0123888Y0072820D01*
X0123963Y0072829D01*
X0124039Y0072835D01*
X0124115Y0072837D01*
X0138115Y0072837D01*
X0138191Y0072835D01*
X0138267Y0072829D01*
X0138342Y0072820D01*
X0138417Y0072806D01*
X0138491Y0072789D01*
X0138564Y0072768D01*
X0138636Y0072744D01*
X0138707Y0072715D01*
X0138776Y0072684D01*
X0138843Y0072649D01*
X0138908Y0072610D01*
X0138972Y0072568D01*
X0139033Y0072523D01*
X0139092Y0072475D01*
X0139148Y0072424D01*
X0139202Y0072370D01*
X0139253Y0072314D01*
X0139301Y0072255D01*
X0139346Y0072194D01*
X0139388Y0072130D01*
X0139427Y0072065D01*
X0139462Y0071998D01*
X0139493Y0071929D01*
X0139522Y0071858D01*
X0139546Y0071786D01*
X0139567Y0071713D01*
X0139584Y0071639D01*
X0139598Y0071564D01*
X0139607Y0071489D01*
X0139613Y0071413D01*
X0139615Y0071337D01*
X0139615Y0069337D01*
X0139613Y0069261D01*
X0139607Y0069185D01*
X0139598Y0069110D01*
X0139584Y0069035D01*
X0139567Y0068961D01*
X0139546Y0068888D01*
X0139522Y0068816D01*
X0139493Y0068745D01*
X0139462Y0068676D01*
X0139427Y0068609D01*
X0139388Y0068544D01*
X0139346Y0068480D01*
X0139301Y0068419D01*
X0139253Y0068360D01*
X0139202Y0068304D01*
X0139148Y0068250D01*
X0139092Y0068199D01*
X0139033Y0068151D01*
X0138972Y0068106D01*
X0138908Y0068064D01*
X0138843Y0068025D01*
X0138776Y0067990D01*
X0138707Y0067959D01*
X0138636Y0067930D01*
X0138564Y0067906D01*
X0138491Y0067885D01*
X0138417Y0067868D01*
X0138342Y0067854D01*
X0138267Y0067845D01*
X0138191Y0067839D01*
X0138115Y0067837D01*
X0124115Y0067837D01*
X0124039Y0067839D01*
X0123963Y0067845D01*
X0123888Y0067854D01*
X0123813Y0067868D01*
X0123739Y0067885D01*
X0123666Y0067906D01*
X0123594Y0067930D01*
X0123523Y0067959D01*
X0123454Y0067990D01*
X0123387Y0068025D01*
X0123322Y0068064D01*
X0123258Y0068106D01*
X0123197Y0068151D01*
X0123138Y0068199D01*
X0123082Y0068250D01*
X0123028Y0068304D01*
X0122977Y0068360D01*
X0122929Y0068419D01*
X0122884Y0068480D01*
X0122842Y0068544D01*
X0122803Y0068609D01*
X0122768Y0068676D01*
X0122737Y0068745D01*
X0122708Y0068816D01*
X0122684Y0068888D01*
X0122663Y0068961D01*
X0122646Y0069035D01*
X0122632Y0069110D01*
X0122623Y0069185D01*
X0122617Y0069261D01*
X0122615Y0069337D01*
D16*
X0130115Y0070337D03*
X0132115Y0070337D03*
X0112115Y0060337D03*
X0110115Y0060337D03*
D17*
X0091115Y0067337D02*
X0091115Y0073337D01*
X0091113Y0073397D01*
X0091108Y0073458D01*
X0091099Y0073517D01*
X0091086Y0073576D01*
X0091070Y0073635D01*
X0091050Y0073692D01*
X0091027Y0073747D01*
X0091000Y0073802D01*
X0090971Y0073854D01*
X0090938Y0073905D01*
X0090902Y0073954D01*
X0090864Y0074000D01*
X0090822Y0074044D01*
X0090778Y0074086D01*
X0090732Y0074124D01*
X0090683Y0074160D01*
X0090632Y0074193D01*
X0090580Y0074222D01*
X0090525Y0074249D01*
X0090470Y0074272D01*
X0090413Y0074292D01*
X0090354Y0074308D01*
X0090295Y0074321D01*
X0090236Y0074330D01*
X0090175Y0074335D01*
X0090115Y0074337D01*
X0088615Y0074337D01*
X0088115Y0073837D01*
X0074115Y0073837D01*
X0073615Y0074337D01*
X0072115Y0074337D01*
X0072055Y0074335D01*
X0071994Y0074330D01*
X0071935Y0074321D01*
X0071876Y0074308D01*
X0071817Y0074292D01*
X0071760Y0074272D01*
X0071705Y0074249D01*
X0071650Y0074222D01*
X0071598Y0074193D01*
X0071547Y0074160D01*
X0071498Y0074124D01*
X0071452Y0074086D01*
X0071408Y0074044D01*
X0071366Y0074000D01*
X0071328Y0073954D01*
X0071292Y0073905D01*
X0071259Y0073854D01*
X0071230Y0073802D01*
X0071203Y0073747D01*
X0071180Y0073692D01*
X0071160Y0073635D01*
X0071144Y0073576D01*
X0071131Y0073517D01*
X0071122Y0073458D01*
X0071117Y0073397D01*
X0071115Y0073337D01*
X0071115Y0067337D01*
X0071117Y0067277D01*
X0071122Y0067216D01*
X0071131Y0067157D01*
X0071144Y0067098D01*
X0071160Y0067039D01*
X0071180Y0066982D01*
X0071203Y0066927D01*
X0071230Y0066872D01*
X0071259Y0066820D01*
X0071292Y0066769D01*
X0071328Y0066720D01*
X0071366Y0066674D01*
X0071408Y0066630D01*
X0071452Y0066588D01*
X0071498Y0066550D01*
X0071547Y0066514D01*
X0071598Y0066481D01*
X0071650Y0066452D01*
X0071705Y0066425D01*
X0071760Y0066402D01*
X0071817Y0066382D01*
X0071876Y0066366D01*
X0071935Y0066353D01*
X0071994Y0066344D01*
X0072055Y0066339D01*
X0072115Y0066337D01*
X0073615Y0066337D01*
X0074115Y0066837D01*
X0088115Y0066837D01*
X0088615Y0066337D01*
X0090115Y0066337D01*
X0090175Y0066339D01*
X0090236Y0066344D01*
X0090295Y0066353D01*
X0090354Y0066366D01*
X0090413Y0066382D01*
X0090470Y0066402D01*
X0090525Y0066425D01*
X0090580Y0066452D01*
X0090632Y0066481D01*
X0090683Y0066514D01*
X0090732Y0066550D01*
X0090778Y0066588D01*
X0090822Y0066630D01*
X0090864Y0066674D01*
X0090902Y0066720D01*
X0090938Y0066769D01*
X0090971Y0066820D01*
X0091000Y0066872D01*
X0091027Y0066927D01*
X0091050Y0066982D01*
X0091070Y0067039D01*
X0091086Y0067098D01*
X0091099Y0067157D01*
X0091108Y0067216D01*
X0091113Y0067277D01*
X0091115Y0067337D01*
X0091113Y0067277D01*
X0091108Y0067216D01*
X0091099Y0067157D01*
X0091086Y0067098D01*
X0091070Y0067039D01*
X0091050Y0066982D01*
X0091027Y0066927D01*
X0091000Y0066872D01*
X0090971Y0066820D01*
X0090938Y0066769D01*
X0090902Y0066720D01*
X0090864Y0066674D01*
X0090822Y0066630D01*
X0090778Y0066588D01*
X0090732Y0066550D01*
X0090683Y0066514D01*
X0090632Y0066481D01*
X0090580Y0066452D01*
X0090525Y0066425D01*
X0090470Y0066402D01*
X0090413Y0066382D01*
X0090354Y0066366D01*
X0090295Y0066353D01*
X0090236Y0066344D01*
X0090175Y0066339D01*
X0090115Y0066337D01*
X0091115Y0073337D02*
X0091113Y0073397D01*
X0091108Y0073458D01*
X0091099Y0073517D01*
X0091086Y0073576D01*
X0091070Y0073635D01*
X0091050Y0073692D01*
X0091027Y0073747D01*
X0091000Y0073802D01*
X0090971Y0073854D01*
X0090938Y0073905D01*
X0090902Y0073954D01*
X0090864Y0074000D01*
X0090822Y0074044D01*
X0090778Y0074086D01*
X0090732Y0074124D01*
X0090683Y0074160D01*
X0090632Y0074193D01*
X0090580Y0074222D01*
X0090525Y0074249D01*
X0090470Y0074272D01*
X0090413Y0074292D01*
X0090354Y0074308D01*
X0090295Y0074321D01*
X0090236Y0074330D01*
X0090175Y0074335D01*
X0090115Y0074337D01*
X0072115Y0074337D02*
X0072055Y0074335D01*
X0071994Y0074330D01*
X0071935Y0074321D01*
X0071876Y0074308D01*
X0071817Y0074292D01*
X0071760Y0074272D01*
X0071705Y0074249D01*
X0071650Y0074222D01*
X0071598Y0074193D01*
X0071547Y0074160D01*
X0071498Y0074124D01*
X0071452Y0074086D01*
X0071408Y0074044D01*
X0071366Y0074000D01*
X0071328Y0073954D01*
X0071292Y0073905D01*
X0071259Y0073854D01*
X0071230Y0073802D01*
X0071203Y0073747D01*
X0071180Y0073692D01*
X0071160Y0073635D01*
X0071144Y0073576D01*
X0071131Y0073517D01*
X0071122Y0073458D01*
X0071117Y0073397D01*
X0071115Y0073337D01*
X0071115Y0067337D02*
X0071117Y0067277D01*
X0071122Y0067216D01*
X0071131Y0067157D01*
X0071144Y0067098D01*
X0071160Y0067039D01*
X0071180Y0066982D01*
X0071203Y0066927D01*
X0071230Y0066872D01*
X0071259Y0066820D01*
X0071292Y0066769D01*
X0071328Y0066720D01*
X0071366Y0066674D01*
X0071408Y0066630D01*
X0071452Y0066588D01*
X0071498Y0066550D01*
X0071547Y0066514D01*
X0071598Y0066481D01*
X0071650Y0066452D01*
X0071705Y0066425D01*
X0071760Y0066402D01*
X0071817Y0066382D01*
X0071876Y0066366D01*
X0071935Y0066353D01*
X0071994Y0066344D01*
X0072055Y0066339D01*
X0072115Y0066337D01*
X0072115Y0086337D02*
X0073615Y0086337D01*
X0074115Y0086837D01*
X0088115Y0086837D01*
X0088615Y0086337D01*
X0090115Y0086337D01*
X0090175Y0086339D01*
X0090236Y0086344D01*
X0090295Y0086353D01*
X0090354Y0086366D01*
X0090413Y0086382D01*
X0090470Y0086402D01*
X0090525Y0086425D01*
X0090580Y0086452D01*
X0090632Y0086481D01*
X0090683Y0086514D01*
X0090732Y0086550D01*
X0090778Y0086588D01*
X0090822Y0086630D01*
X0090864Y0086674D01*
X0090902Y0086720D01*
X0090938Y0086769D01*
X0090971Y0086820D01*
X0091000Y0086872D01*
X0091027Y0086927D01*
X0091050Y0086982D01*
X0091070Y0087039D01*
X0091086Y0087098D01*
X0091099Y0087157D01*
X0091108Y0087216D01*
X0091113Y0087277D01*
X0091115Y0087337D01*
X0091115Y0093337D01*
X0091113Y0093397D01*
X0091108Y0093458D01*
X0091099Y0093517D01*
X0091086Y0093576D01*
X0091070Y0093635D01*
X0091050Y0093692D01*
X0091027Y0093747D01*
X0091000Y0093802D01*
X0090971Y0093854D01*
X0090938Y0093905D01*
X0090902Y0093954D01*
X0090864Y0094000D01*
X0090822Y0094044D01*
X0090778Y0094086D01*
X0090732Y0094124D01*
X0090683Y0094160D01*
X0090632Y0094193D01*
X0090580Y0094222D01*
X0090525Y0094249D01*
X0090470Y0094272D01*
X0090413Y0094292D01*
X0090354Y0094308D01*
X0090295Y0094321D01*
X0090236Y0094330D01*
X0090175Y0094335D01*
X0090115Y0094337D01*
X0088615Y0094337D01*
X0088115Y0093837D01*
X0074115Y0093837D01*
X0073615Y0094337D01*
X0072115Y0094337D01*
X0072055Y0094335D01*
X0071994Y0094330D01*
X0071935Y0094321D01*
X0071876Y0094308D01*
X0071817Y0094292D01*
X0071760Y0094272D01*
X0071705Y0094249D01*
X0071650Y0094222D01*
X0071598Y0094193D01*
X0071547Y0094160D01*
X0071498Y0094124D01*
X0071452Y0094086D01*
X0071408Y0094044D01*
X0071366Y0094000D01*
X0071328Y0093954D01*
X0071292Y0093905D01*
X0071259Y0093854D01*
X0071230Y0093802D01*
X0071203Y0093747D01*
X0071180Y0093692D01*
X0071160Y0093635D01*
X0071144Y0093576D01*
X0071131Y0093517D01*
X0071122Y0093458D01*
X0071117Y0093397D01*
X0071115Y0093337D01*
X0071115Y0087337D01*
X0071117Y0087277D01*
X0071122Y0087216D01*
X0071131Y0087157D01*
X0071144Y0087098D01*
X0071160Y0087039D01*
X0071180Y0086982D01*
X0071203Y0086927D01*
X0071230Y0086872D01*
X0071259Y0086820D01*
X0071292Y0086769D01*
X0071328Y0086720D01*
X0071366Y0086674D01*
X0071408Y0086630D01*
X0071452Y0086588D01*
X0071498Y0086550D01*
X0071547Y0086514D01*
X0071598Y0086481D01*
X0071650Y0086452D01*
X0071705Y0086425D01*
X0071760Y0086402D01*
X0071817Y0086382D01*
X0071876Y0086366D01*
X0071935Y0086353D01*
X0071994Y0086344D01*
X0072055Y0086339D01*
X0072115Y0086337D01*
X0072055Y0086339D01*
X0071994Y0086344D01*
X0071935Y0086353D01*
X0071876Y0086366D01*
X0071817Y0086382D01*
X0071760Y0086402D01*
X0071705Y0086425D01*
X0071650Y0086452D01*
X0071598Y0086481D01*
X0071547Y0086514D01*
X0071498Y0086550D01*
X0071452Y0086588D01*
X0071408Y0086630D01*
X0071366Y0086674D01*
X0071328Y0086720D01*
X0071292Y0086769D01*
X0071259Y0086820D01*
X0071230Y0086872D01*
X0071203Y0086927D01*
X0071180Y0086982D01*
X0071160Y0087039D01*
X0071144Y0087098D01*
X0071131Y0087157D01*
X0071122Y0087216D01*
X0071117Y0087277D01*
X0071115Y0087337D01*
X0071115Y0093337D02*
X0071117Y0093397D01*
X0071122Y0093458D01*
X0071131Y0093517D01*
X0071144Y0093576D01*
X0071160Y0093635D01*
X0071180Y0093692D01*
X0071203Y0093747D01*
X0071230Y0093802D01*
X0071259Y0093854D01*
X0071292Y0093905D01*
X0071328Y0093954D01*
X0071366Y0094000D01*
X0071408Y0094044D01*
X0071452Y0094086D01*
X0071498Y0094124D01*
X0071547Y0094160D01*
X0071598Y0094193D01*
X0071650Y0094222D01*
X0071705Y0094249D01*
X0071760Y0094272D01*
X0071817Y0094292D01*
X0071876Y0094308D01*
X0071935Y0094321D01*
X0071994Y0094330D01*
X0072055Y0094335D01*
X0072115Y0094337D01*
X0072115Y0096337D02*
X0073615Y0096337D01*
X0074115Y0096837D01*
X0088115Y0096837D01*
X0088615Y0096337D01*
X0090115Y0096337D01*
X0090175Y0096339D01*
X0090236Y0096344D01*
X0090295Y0096353D01*
X0090354Y0096366D01*
X0090413Y0096382D01*
X0090470Y0096402D01*
X0090525Y0096425D01*
X0090580Y0096452D01*
X0090632Y0096481D01*
X0090683Y0096514D01*
X0090732Y0096550D01*
X0090778Y0096588D01*
X0090822Y0096630D01*
X0090864Y0096674D01*
X0090902Y0096720D01*
X0090938Y0096769D01*
X0090971Y0096820D01*
X0091000Y0096872D01*
X0091027Y0096927D01*
X0091050Y0096982D01*
X0091070Y0097039D01*
X0091086Y0097098D01*
X0091099Y0097157D01*
X0091108Y0097216D01*
X0091113Y0097277D01*
X0091115Y0097337D01*
X0091115Y0103337D01*
X0091113Y0103397D01*
X0091108Y0103458D01*
X0091099Y0103517D01*
X0091086Y0103576D01*
X0091070Y0103635D01*
X0091050Y0103692D01*
X0091027Y0103747D01*
X0091000Y0103802D01*
X0090971Y0103854D01*
X0090938Y0103905D01*
X0090902Y0103954D01*
X0090864Y0104000D01*
X0090822Y0104044D01*
X0090778Y0104086D01*
X0090732Y0104124D01*
X0090683Y0104160D01*
X0090632Y0104193D01*
X0090580Y0104222D01*
X0090525Y0104249D01*
X0090470Y0104272D01*
X0090413Y0104292D01*
X0090354Y0104308D01*
X0090295Y0104321D01*
X0090236Y0104330D01*
X0090175Y0104335D01*
X0090115Y0104337D01*
X0088615Y0104337D01*
X0088115Y0103837D01*
X0074115Y0103837D01*
X0073615Y0104337D01*
X0072115Y0104337D01*
X0072055Y0104335D01*
X0071994Y0104330D01*
X0071935Y0104321D01*
X0071876Y0104308D01*
X0071817Y0104292D01*
X0071760Y0104272D01*
X0071705Y0104249D01*
X0071650Y0104222D01*
X0071598Y0104193D01*
X0071547Y0104160D01*
X0071498Y0104124D01*
X0071452Y0104086D01*
X0071408Y0104044D01*
X0071366Y0104000D01*
X0071328Y0103954D01*
X0071292Y0103905D01*
X0071259Y0103854D01*
X0071230Y0103802D01*
X0071203Y0103747D01*
X0071180Y0103692D01*
X0071160Y0103635D01*
X0071144Y0103576D01*
X0071131Y0103517D01*
X0071122Y0103458D01*
X0071117Y0103397D01*
X0071115Y0103337D01*
X0071115Y0097337D01*
X0071117Y0097277D01*
X0071122Y0097216D01*
X0071131Y0097157D01*
X0071144Y0097098D01*
X0071160Y0097039D01*
X0071180Y0096982D01*
X0071203Y0096927D01*
X0071230Y0096872D01*
X0071259Y0096820D01*
X0071292Y0096769D01*
X0071328Y0096720D01*
X0071366Y0096674D01*
X0071408Y0096630D01*
X0071452Y0096588D01*
X0071498Y0096550D01*
X0071547Y0096514D01*
X0071598Y0096481D01*
X0071650Y0096452D01*
X0071705Y0096425D01*
X0071760Y0096402D01*
X0071817Y0096382D01*
X0071876Y0096366D01*
X0071935Y0096353D01*
X0071994Y0096344D01*
X0072055Y0096339D01*
X0072115Y0096337D01*
X0072055Y0096339D01*
X0071994Y0096344D01*
X0071935Y0096353D01*
X0071876Y0096366D01*
X0071817Y0096382D01*
X0071760Y0096402D01*
X0071705Y0096425D01*
X0071650Y0096452D01*
X0071598Y0096481D01*
X0071547Y0096514D01*
X0071498Y0096550D01*
X0071452Y0096588D01*
X0071408Y0096630D01*
X0071366Y0096674D01*
X0071328Y0096720D01*
X0071292Y0096769D01*
X0071259Y0096820D01*
X0071230Y0096872D01*
X0071203Y0096927D01*
X0071180Y0096982D01*
X0071160Y0097039D01*
X0071144Y0097098D01*
X0071131Y0097157D01*
X0071122Y0097216D01*
X0071117Y0097277D01*
X0071115Y0097337D01*
X0071115Y0103337D02*
X0071117Y0103397D01*
X0071122Y0103458D01*
X0071131Y0103517D01*
X0071144Y0103576D01*
X0071160Y0103635D01*
X0071180Y0103692D01*
X0071203Y0103747D01*
X0071230Y0103802D01*
X0071259Y0103854D01*
X0071292Y0103905D01*
X0071328Y0103954D01*
X0071366Y0104000D01*
X0071408Y0104044D01*
X0071452Y0104086D01*
X0071498Y0104124D01*
X0071547Y0104160D01*
X0071598Y0104193D01*
X0071650Y0104222D01*
X0071705Y0104249D01*
X0071760Y0104272D01*
X0071817Y0104292D01*
X0071876Y0104308D01*
X0071935Y0104321D01*
X0071994Y0104330D01*
X0072055Y0104335D01*
X0072115Y0104337D01*
X0090115Y0104337D02*
X0090175Y0104335D01*
X0090236Y0104330D01*
X0090295Y0104321D01*
X0090354Y0104308D01*
X0090413Y0104292D01*
X0090470Y0104272D01*
X0090525Y0104249D01*
X0090580Y0104222D01*
X0090632Y0104193D01*
X0090683Y0104160D01*
X0090732Y0104124D01*
X0090778Y0104086D01*
X0090822Y0104044D01*
X0090864Y0104000D01*
X0090902Y0103954D01*
X0090938Y0103905D01*
X0090971Y0103854D01*
X0091000Y0103802D01*
X0091027Y0103747D01*
X0091050Y0103692D01*
X0091070Y0103635D01*
X0091086Y0103576D01*
X0091099Y0103517D01*
X0091108Y0103458D01*
X0091113Y0103397D01*
X0091115Y0103337D01*
X0091115Y0097337D02*
X0091113Y0097277D01*
X0091108Y0097216D01*
X0091099Y0097157D01*
X0091086Y0097098D01*
X0091070Y0097039D01*
X0091050Y0096982D01*
X0091027Y0096927D01*
X0091000Y0096872D01*
X0090971Y0096820D01*
X0090938Y0096769D01*
X0090902Y0096720D01*
X0090864Y0096674D01*
X0090822Y0096630D01*
X0090778Y0096588D01*
X0090732Y0096550D01*
X0090683Y0096514D01*
X0090632Y0096481D01*
X0090580Y0096452D01*
X0090525Y0096425D01*
X0090470Y0096402D01*
X0090413Y0096382D01*
X0090354Y0096366D01*
X0090295Y0096353D01*
X0090236Y0096344D01*
X0090175Y0096339D01*
X0090115Y0096337D01*
X0090115Y0094337D02*
X0090175Y0094335D01*
X0090236Y0094330D01*
X0090295Y0094321D01*
X0090354Y0094308D01*
X0090413Y0094292D01*
X0090470Y0094272D01*
X0090525Y0094249D01*
X0090580Y0094222D01*
X0090632Y0094193D01*
X0090683Y0094160D01*
X0090732Y0094124D01*
X0090778Y0094086D01*
X0090822Y0094044D01*
X0090864Y0094000D01*
X0090902Y0093954D01*
X0090938Y0093905D01*
X0090971Y0093854D01*
X0091000Y0093802D01*
X0091027Y0093747D01*
X0091050Y0093692D01*
X0091070Y0093635D01*
X0091086Y0093576D01*
X0091099Y0093517D01*
X0091108Y0093458D01*
X0091113Y0093397D01*
X0091115Y0093337D01*
X0091115Y0087337D02*
X0091113Y0087277D01*
X0091108Y0087216D01*
X0091099Y0087157D01*
X0091086Y0087098D01*
X0091070Y0087039D01*
X0091050Y0086982D01*
X0091027Y0086927D01*
X0091000Y0086872D01*
X0090971Y0086820D01*
X0090938Y0086769D01*
X0090902Y0086720D01*
X0090864Y0086674D01*
X0090822Y0086630D01*
X0090778Y0086588D01*
X0090732Y0086550D01*
X0090683Y0086514D01*
X0090632Y0086481D01*
X0090580Y0086452D01*
X0090525Y0086425D01*
X0090470Y0086402D01*
X0090413Y0086382D01*
X0090354Y0086366D01*
X0090295Y0086353D01*
X0090236Y0086344D01*
X0090175Y0086339D01*
X0090115Y0086337D01*
X0121115Y0083337D02*
X0121115Y0077337D01*
X0121117Y0077277D01*
X0121122Y0077216D01*
X0121131Y0077157D01*
X0121144Y0077098D01*
X0121160Y0077039D01*
X0121180Y0076982D01*
X0121203Y0076927D01*
X0121230Y0076872D01*
X0121259Y0076820D01*
X0121292Y0076769D01*
X0121328Y0076720D01*
X0121366Y0076674D01*
X0121408Y0076630D01*
X0121452Y0076588D01*
X0121498Y0076550D01*
X0121547Y0076514D01*
X0121598Y0076481D01*
X0121650Y0076452D01*
X0121705Y0076425D01*
X0121760Y0076402D01*
X0121817Y0076382D01*
X0121876Y0076366D01*
X0121935Y0076353D01*
X0121994Y0076344D01*
X0122055Y0076339D01*
X0122115Y0076337D01*
X0123615Y0076337D01*
X0124115Y0076837D01*
X0138115Y0076837D01*
X0138615Y0076337D01*
X0140115Y0076337D01*
X0140175Y0076339D01*
X0140236Y0076344D01*
X0140295Y0076353D01*
X0140354Y0076366D01*
X0140413Y0076382D01*
X0140470Y0076402D01*
X0140525Y0076425D01*
X0140580Y0076452D01*
X0140632Y0076481D01*
X0140683Y0076514D01*
X0140732Y0076550D01*
X0140778Y0076588D01*
X0140822Y0076630D01*
X0140864Y0076674D01*
X0140902Y0076720D01*
X0140938Y0076769D01*
X0140971Y0076820D01*
X0141000Y0076872D01*
X0141027Y0076927D01*
X0141050Y0076982D01*
X0141070Y0077039D01*
X0141086Y0077098D01*
X0141099Y0077157D01*
X0141108Y0077216D01*
X0141113Y0077277D01*
X0141115Y0077337D01*
X0141115Y0083337D01*
X0141113Y0083397D01*
X0141108Y0083458D01*
X0141099Y0083517D01*
X0141086Y0083576D01*
X0141070Y0083635D01*
X0141050Y0083692D01*
X0141027Y0083747D01*
X0141000Y0083802D01*
X0140971Y0083854D01*
X0140938Y0083905D01*
X0140902Y0083954D01*
X0140864Y0084000D01*
X0140822Y0084044D01*
X0140778Y0084086D01*
X0140732Y0084124D01*
X0140683Y0084160D01*
X0140632Y0084193D01*
X0140580Y0084222D01*
X0140525Y0084249D01*
X0140470Y0084272D01*
X0140413Y0084292D01*
X0140354Y0084308D01*
X0140295Y0084321D01*
X0140236Y0084330D01*
X0140175Y0084335D01*
X0140115Y0084337D01*
X0138615Y0084337D01*
X0138115Y0083837D01*
X0124115Y0083837D01*
X0123615Y0084337D01*
X0122115Y0084337D01*
X0122055Y0084335D01*
X0121994Y0084330D01*
X0121935Y0084321D01*
X0121876Y0084308D01*
X0121817Y0084292D01*
X0121760Y0084272D01*
X0121705Y0084249D01*
X0121650Y0084222D01*
X0121598Y0084193D01*
X0121547Y0084160D01*
X0121498Y0084124D01*
X0121452Y0084086D01*
X0121408Y0084044D01*
X0121366Y0084000D01*
X0121328Y0083954D01*
X0121292Y0083905D01*
X0121259Y0083854D01*
X0121230Y0083802D01*
X0121203Y0083747D01*
X0121180Y0083692D01*
X0121160Y0083635D01*
X0121144Y0083576D01*
X0121131Y0083517D01*
X0121122Y0083458D01*
X0121117Y0083397D01*
X0121115Y0083337D01*
X0121117Y0083397D01*
X0121122Y0083458D01*
X0121131Y0083517D01*
X0121144Y0083576D01*
X0121160Y0083635D01*
X0121180Y0083692D01*
X0121203Y0083747D01*
X0121230Y0083802D01*
X0121259Y0083854D01*
X0121292Y0083905D01*
X0121328Y0083954D01*
X0121366Y0084000D01*
X0121408Y0084044D01*
X0121452Y0084086D01*
X0121498Y0084124D01*
X0121547Y0084160D01*
X0121598Y0084193D01*
X0121650Y0084222D01*
X0121705Y0084249D01*
X0121760Y0084272D01*
X0121817Y0084292D01*
X0121876Y0084308D01*
X0121935Y0084321D01*
X0121994Y0084330D01*
X0122055Y0084335D01*
X0122115Y0084337D01*
X0121115Y0077337D02*
X0121117Y0077277D01*
X0121122Y0077216D01*
X0121131Y0077157D01*
X0121144Y0077098D01*
X0121160Y0077039D01*
X0121180Y0076982D01*
X0121203Y0076927D01*
X0121230Y0076872D01*
X0121259Y0076820D01*
X0121292Y0076769D01*
X0121328Y0076720D01*
X0121366Y0076674D01*
X0121408Y0076630D01*
X0121452Y0076588D01*
X0121498Y0076550D01*
X0121547Y0076514D01*
X0121598Y0076481D01*
X0121650Y0076452D01*
X0121705Y0076425D01*
X0121760Y0076402D01*
X0121817Y0076382D01*
X0121876Y0076366D01*
X0121935Y0076353D01*
X0121994Y0076344D01*
X0122055Y0076339D01*
X0122115Y0076337D01*
X0140115Y0076337D02*
X0140175Y0076339D01*
X0140236Y0076344D01*
X0140295Y0076353D01*
X0140354Y0076366D01*
X0140413Y0076382D01*
X0140470Y0076402D01*
X0140525Y0076425D01*
X0140580Y0076452D01*
X0140632Y0076481D01*
X0140683Y0076514D01*
X0140732Y0076550D01*
X0140778Y0076588D01*
X0140822Y0076630D01*
X0140864Y0076674D01*
X0140902Y0076720D01*
X0140938Y0076769D01*
X0140971Y0076820D01*
X0141000Y0076872D01*
X0141027Y0076927D01*
X0141050Y0076982D01*
X0141070Y0077039D01*
X0141086Y0077098D01*
X0141099Y0077157D01*
X0141108Y0077216D01*
X0141113Y0077277D01*
X0141115Y0077337D01*
X0141115Y0083337D02*
X0141113Y0083397D01*
X0141108Y0083458D01*
X0141099Y0083517D01*
X0141086Y0083576D01*
X0141070Y0083635D01*
X0141050Y0083692D01*
X0141027Y0083747D01*
X0141000Y0083802D01*
X0140971Y0083854D01*
X0140938Y0083905D01*
X0140902Y0083954D01*
X0140864Y0084000D01*
X0140822Y0084044D01*
X0140778Y0084086D01*
X0140732Y0084124D01*
X0140683Y0084160D01*
X0140632Y0084193D01*
X0140580Y0084222D01*
X0140525Y0084249D01*
X0140470Y0084272D01*
X0140413Y0084292D01*
X0140354Y0084308D01*
X0140295Y0084321D01*
X0140236Y0084330D01*
X0140175Y0084335D01*
X0140115Y0084337D01*
X0142115Y0086337D02*
X0143615Y0086337D01*
X0144115Y0086837D01*
X0158115Y0086837D01*
X0158615Y0086337D01*
X0160115Y0086337D01*
X0160175Y0086339D01*
X0160236Y0086344D01*
X0160295Y0086353D01*
X0160354Y0086366D01*
X0160413Y0086382D01*
X0160470Y0086402D01*
X0160525Y0086425D01*
X0160580Y0086452D01*
X0160632Y0086481D01*
X0160683Y0086514D01*
X0160732Y0086550D01*
X0160778Y0086588D01*
X0160822Y0086630D01*
X0160864Y0086674D01*
X0160902Y0086720D01*
X0160938Y0086769D01*
X0160971Y0086820D01*
X0161000Y0086872D01*
X0161027Y0086927D01*
X0161050Y0086982D01*
X0161070Y0087039D01*
X0161086Y0087098D01*
X0161099Y0087157D01*
X0161108Y0087216D01*
X0161113Y0087277D01*
X0161115Y0087337D01*
X0161115Y0093337D01*
X0161113Y0093397D01*
X0161108Y0093458D01*
X0161099Y0093517D01*
X0161086Y0093576D01*
X0161070Y0093635D01*
X0161050Y0093692D01*
X0161027Y0093747D01*
X0161000Y0093802D01*
X0160971Y0093854D01*
X0160938Y0093905D01*
X0160902Y0093954D01*
X0160864Y0094000D01*
X0160822Y0094044D01*
X0160778Y0094086D01*
X0160732Y0094124D01*
X0160683Y0094160D01*
X0160632Y0094193D01*
X0160580Y0094222D01*
X0160525Y0094249D01*
X0160470Y0094272D01*
X0160413Y0094292D01*
X0160354Y0094308D01*
X0160295Y0094321D01*
X0160236Y0094330D01*
X0160175Y0094335D01*
X0160115Y0094337D01*
X0158615Y0094337D01*
X0158115Y0093837D01*
X0144115Y0093837D01*
X0143615Y0094337D01*
X0142115Y0094337D01*
X0142055Y0094335D01*
X0141994Y0094330D01*
X0141935Y0094321D01*
X0141876Y0094308D01*
X0141817Y0094292D01*
X0141760Y0094272D01*
X0141705Y0094249D01*
X0141650Y0094222D01*
X0141598Y0094193D01*
X0141547Y0094160D01*
X0141498Y0094124D01*
X0141452Y0094086D01*
X0141408Y0094044D01*
X0141366Y0094000D01*
X0141328Y0093954D01*
X0141292Y0093905D01*
X0141259Y0093854D01*
X0141230Y0093802D01*
X0141203Y0093747D01*
X0141180Y0093692D01*
X0141160Y0093635D01*
X0141144Y0093576D01*
X0141131Y0093517D01*
X0141122Y0093458D01*
X0141117Y0093397D01*
X0141115Y0093337D01*
X0141115Y0087337D01*
X0141117Y0087277D01*
X0141122Y0087216D01*
X0141131Y0087157D01*
X0141144Y0087098D01*
X0141160Y0087039D01*
X0141180Y0086982D01*
X0141203Y0086927D01*
X0141230Y0086872D01*
X0141259Y0086820D01*
X0141292Y0086769D01*
X0141328Y0086720D01*
X0141366Y0086674D01*
X0141408Y0086630D01*
X0141452Y0086588D01*
X0141498Y0086550D01*
X0141547Y0086514D01*
X0141598Y0086481D01*
X0141650Y0086452D01*
X0141705Y0086425D01*
X0141760Y0086402D01*
X0141817Y0086382D01*
X0141876Y0086366D01*
X0141935Y0086353D01*
X0141994Y0086344D01*
X0142055Y0086339D01*
X0142115Y0086337D01*
X0142055Y0086339D01*
X0141994Y0086344D01*
X0141935Y0086353D01*
X0141876Y0086366D01*
X0141817Y0086382D01*
X0141760Y0086402D01*
X0141705Y0086425D01*
X0141650Y0086452D01*
X0141598Y0086481D01*
X0141547Y0086514D01*
X0141498Y0086550D01*
X0141452Y0086588D01*
X0141408Y0086630D01*
X0141366Y0086674D01*
X0141328Y0086720D01*
X0141292Y0086769D01*
X0141259Y0086820D01*
X0141230Y0086872D01*
X0141203Y0086927D01*
X0141180Y0086982D01*
X0141160Y0087039D01*
X0141144Y0087098D01*
X0141131Y0087157D01*
X0141122Y0087216D01*
X0141117Y0087277D01*
X0141115Y0087337D01*
X0141115Y0093337D02*
X0141117Y0093397D01*
X0141122Y0093458D01*
X0141131Y0093517D01*
X0141144Y0093576D01*
X0141160Y0093635D01*
X0141180Y0093692D01*
X0141203Y0093747D01*
X0141230Y0093802D01*
X0141259Y0093854D01*
X0141292Y0093905D01*
X0141328Y0093954D01*
X0141366Y0094000D01*
X0141408Y0094044D01*
X0141452Y0094086D01*
X0141498Y0094124D01*
X0141547Y0094160D01*
X0141598Y0094193D01*
X0141650Y0094222D01*
X0141705Y0094249D01*
X0141760Y0094272D01*
X0141817Y0094292D01*
X0141876Y0094308D01*
X0141935Y0094321D01*
X0141994Y0094330D01*
X0142055Y0094335D01*
X0142115Y0094337D01*
X0160115Y0094337D02*
X0160175Y0094335D01*
X0160236Y0094330D01*
X0160295Y0094321D01*
X0160354Y0094308D01*
X0160413Y0094292D01*
X0160470Y0094272D01*
X0160525Y0094249D01*
X0160580Y0094222D01*
X0160632Y0094193D01*
X0160683Y0094160D01*
X0160732Y0094124D01*
X0160778Y0094086D01*
X0160822Y0094044D01*
X0160864Y0094000D01*
X0160902Y0093954D01*
X0160938Y0093905D01*
X0160971Y0093854D01*
X0161000Y0093802D01*
X0161027Y0093747D01*
X0161050Y0093692D01*
X0161070Y0093635D01*
X0161086Y0093576D01*
X0161099Y0093517D01*
X0161108Y0093458D01*
X0161113Y0093397D01*
X0161115Y0093337D01*
X0161115Y0087337D02*
X0161113Y0087277D01*
X0161108Y0087216D01*
X0161099Y0087157D01*
X0161086Y0087098D01*
X0161070Y0087039D01*
X0161050Y0086982D01*
X0161027Y0086927D01*
X0161000Y0086872D01*
X0160971Y0086820D01*
X0160938Y0086769D01*
X0160902Y0086720D01*
X0160864Y0086674D01*
X0160822Y0086630D01*
X0160778Y0086588D01*
X0160732Y0086550D01*
X0160683Y0086514D01*
X0160632Y0086481D01*
X0160580Y0086452D01*
X0160525Y0086425D01*
X0160470Y0086402D01*
X0160413Y0086382D01*
X0160354Y0086366D01*
X0160295Y0086353D01*
X0160236Y0086344D01*
X0160175Y0086339D01*
X0160115Y0086337D01*
X0153615Y0064337D02*
X0152115Y0064337D01*
X0152055Y0064335D01*
X0151994Y0064330D01*
X0151935Y0064321D01*
X0151876Y0064308D01*
X0151817Y0064292D01*
X0151760Y0064272D01*
X0151705Y0064249D01*
X0151650Y0064222D01*
X0151598Y0064193D01*
X0151547Y0064160D01*
X0151498Y0064124D01*
X0151452Y0064086D01*
X0151408Y0064044D01*
X0151366Y0064000D01*
X0151328Y0063954D01*
X0151292Y0063905D01*
X0151259Y0063854D01*
X0151230Y0063802D01*
X0151203Y0063747D01*
X0151180Y0063692D01*
X0151160Y0063635D01*
X0151144Y0063576D01*
X0151131Y0063517D01*
X0151122Y0063458D01*
X0151117Y0063397D01*
X0151115Y0063337D01*
X0151115Y0057337D01*
X0151117Y0057277D01*
X0151122Y0057216D01*
X0151131Y0057157D01*
X0151144Y0057098D01*
X0151160Y0057039D01*
X0151180Y0056982D01*
X0151203Y0056927D01*
X0151230Y0056872D01*
X0151259Y0056820D01*
X0151292Y0056769D01*
X0151328Y0056720D01*
X0151366Y0056674D01*
X0151408Y0056630D01*
X0151452Y0056588D01*
X0151498Y0056550D01*
X0151547Y0056514D01*
X0151598Y0056481D01*
X0151650Y0056452D01*
X0151705Y0056425D01*
X0151760Y0056402D01*
X0151817Y0056382D01*
X0151876Y0056366D01*
X0151935Y0056353D01*
X0151994Y0056344D01*
X0152055Y0056339D01*
X0152115Y0056337D01*
X0153615Y0056337D01*
X0154115Y0056837D01*
X0168115Y0056837D01*
X0168615Y0056337D01*
X0170115Y0056337D01*
X0170175Y0056339D01*
X0170236Y0056344D01*
X0170295Y0056353D01*
X0170354Y0056366D01*
X0170413Y0056382D01*
X0170470Y0056402D01*
X0170525Y0056425D01*
X0170580Y0056452D01*
X0170632Y0056481D01*
X0170683Y0056514D01*
X0170732Y0056550D01*
X0170778Y0056588D01*
X0170822Y0056630D01*
X0170864Y0056674D01*
X0170902Y0056720D01*
X0170938Y0056769D01*
X0170971Y0056820D01*
X0171000Y0056872D01*
X0171027Y0056927D01*
X0171050Y0056982D01*
X0171070Y0057039D01*
X0171086Y0057098D01*
X0171099Y0057157D01*
X0171108Y0057216D01*
X0171113Y0057277D01*
X0171115Y0057337D01*
X0171115Y0063337D01*
X0171113Y0063397D01*
X0171108Y0063458D01*
X0171099Y0063517D01*
X0171086Y0063576D01*
X0171070Y0063635D01*
X0171050Y0063692D01*
X0171027Y0063747D01*
X0171000Y0063802D01*
X0170971Y0063854D01*
X0170938Y0063905D01*
X0170902Y0063954D01*
X0170864Y0064000D01*
X0170822Y0064044D01*
X0170778Y0064086D01*
X0170732Y0064124D01*
X0170683Y0064160D01*
X0170632Y0064193D01*
X0170580Y0064222D01*
X0170525Y0064249D01*
X0170470Y0064272D01*
X0170413Y0064292D01*
X0170354Y0064308D01*
X0170295Y0064321D01*
X0170236Y0064330D01*
X0170175Y0064335D01*
X0170115Y0064337D01*
X0168615Y0064337D01*
X0168115Y0063837D01*
X0154115Y0063837D01*
X0153615Y0064337D01*
X0152115Y0064337D02*
X0152055Y0064335D01*
X0151994Y0064330D01*
X0151935Y0064321D01*
X0151876Y0064308D01*
X0151817Y0064292D01*
X0151760Y0064272D01*
X0151705Y0064249D01*
X0151650Y0064222D01*
X0151598Y0064193D01*
X0151547Y0064160D01*
X0151498Y0064124D01*
X0151452Y0064086D01*
X0151408Y0064044D01*
X0151366Y0064000D01*
X0151328Y0063954D01*
X0151292Y0063905D01*
X0151259Y0063854D01*
X0151230Y0063802D01*
X0151203Y0063747D01*
X0151180Y0063692D01*
X0151160Y0063635D01*
X0151144Y0063576D01*
X0151131Y0063517D01*
X0151122Y0063458D01*
X0151117Y0063397D01*
X0151115Y0063337D01*
X0151115Y0057337D02*
X0151117Y0057277D01*
X0151122Y0057216D01*
X0151131Y0057157D01*
X0151144Y0057098D01*
X0151160Y0057039D01*
X0151180Y0056982D01*
X0151203Y0056927D01*
X0151230Y0056872D01*
X0151259Y0056820D01*
X0151292Y0056769D01*
X0151328Y0056720D01*
X0151366Y0056674D01*
X0151408Y0056630D01*
X0151452Y0056588D01*
X0151498Y0056550D01*
X0151547Y0056514D01*
X0151598Y0056481D01*
X0151650Y0056452D01*
X0151705Y0056425D01*
X0151760Y0056402D01*
X0151817Y0056382D01*
X0151876Y0056366D01*
X0151935Y0056353D01*
X0151994Y0056344D01*
X0152055Y0056339D01*
X0152115Y0056337D01*
X0170115Y0056337D02*
X0170175Y0056339D01*
X0170236Y0056344D01*
X0170295Y0056353D01*
X0170354Y0056366D01*
X0170413Y0056382D01*
X0170470Y0056402D01*
X0170525Y0056425D01*
X0170580Y0056452D01*
X0170632Y0056481D01*
X0170683Y0056514D01*
X0170732Y0056550D01*
X0170778Y0056588D01*
X0170822Y0056630D01*
X0170864Y0056674D01*
X0170902Y0056720D01*
X0170938Y0056769D01*
X0170971Y0056820D01*
X0171000Y0056872D01*
X0171027Y0056927D01*
X0171050Y0056982D01*
X0171070Y0057039D01*
X0171086Y0057098D01*
X0171099Y0057157D01*
X0171108Y0057216D01*
X0171113Y0057277D01*
X0171115Y0057337D01*
X0171115Y0063337D02*
X0171113Y0063397D01*
X0171108Y0063458D01*
X0171099Y0063517D01*
X0171086Y0063576D01*
X0171070Y0063635D01*
X0171050Y0063692D01*
X0171027Y0063747D01*
X0171000Y0063802D01*
X0170971Y0063854D01*
X0170938Y0063905D01*
X0170902Y0063954D01*
X0170864Y0064000D01*
X0170822Y0064044D01*
X0170778Y0064086D01*
X0170732Y0064124D01*
X0170683Y0064160D01*
X0170632Y0064193D01*
X0170580Y0064222D01*
X0170525Y0064249D01*
X0170470Y0064272D01*
X0170413Y0064292D01*
X0170354Y0064308D01*
X0170295Y0064321D01*
X0170236Y0064330D01*
X0170175Y0064335D01*
X0170115Y0064337D01*
D18*
X0171865Y0060337D03*
X0171865Y0060337D03*
X0150365Y0060337D03*
X0150365Y0060337D03*
X0141865Y0080337D03*
X0141865Y0080337D03*
X0140365Y0090337D03*
X0140365Y0090337D03*
X0161865Y0090337D03*
X0161865Y0090337D03*
X0120365Y0080337D03*
X0120365Y0080337D03*
X0091865Y0070337D03*
X0091865Y0070337D03*
X0070365Y0070337D03*
X0070365Y0070337D03*
X0070365Y0090337D03*
X0070365Y0090337D03*
X0070365Y0100337D03*
X0070365Y0100337D03*
X0091865Y0100337D03*
X0091865Y0100337D03*
X0091865Y0090337D03*
X0091865Y0090337D03*
D19*
X0053241Y0030770D02*
X0053241Y0022896D01*
X0057572Y0022896D01*
X0057572Y0030376D01*
X0053241Y0030770D02*
X0053241Y0046258D01*
X0088989Y0046258D01*
X0088989Y0030770D01*
X0053241Y0030770D01*
X0053241Y0033644D02*
X0088989Y0033644D01*
X0077001Y0030376D02*
X0077001Y0016361D01*
X0075033Y0015180D01*
X0067198Y0015180D01*
X0065230Y0016361D01*
X0065230Y0030376D01*
X0065623Y0027522D02*
X0076608Y0029589D01*
X0076608Y0027620D02*
X0065623Y0025554D01*
X0065623Y0023585D02*
X0076608Y0025652D01*
X0076608Y0023683D02*
X0065623Y0021617D01*
X0065623Y0019648D02*
X0076608Y0021715D01*
X0076608Y0019746D02*
X0065623Y0017680D01*
X0066509Y0015869D02*
X0076608Y0017935D01*
X0075033Y0015180D02*
X0075033Y0001400D01*
X0067198Y0001400D01*
X0067198Y0015180D01*
X0103241Y0022896D02*
X0103241Y0030770D01*
X0103241Y0046258D01*
X0138989Y0046258D01*
X0138989Y0030770D01*
X0103241Y0030770D01*
X0103241Y0033644D02*
X0138989Y0033644D01*
X0127001Y0030376D02*
X0127001Y0016361D01*
X0125033Y0015180D01*
X0117198Y0015180D01*
X0115230Y0016361D01*
X0115230Y0030376D01*
X0115623Y0027522D02*
X0126608Y0029589D01*
X0126608Y0027620D02*
X0115623Y0025554D01*
X0115623Y0023585D02*
X0126608Y0025652D01*
X0126608Y0023683D02*
X0115623Y0021617D01*
X0115623Y0019648D02*
X0126608Y0021715D01*
X0126608Y0019746D02*
X0115623Y0017680D01*
X0116509Y0015869D02*
X0126608Y0017935D01*
X0125033Y0015180D02*
X0125033Y0001400D01*
X0117198Y0001400D01*
X0117198Y0015180D01*
X0107572Y0022896D02*
X0103241Y0022896D01*
X0107572Y0022896D02*
X0107572Y0030376D01*
X0153241Y0030770D02*
X0153241Y0022896D01*
X0157572Y0022896D01*
X0157572Y0030376D01*
X0153241Y0030770D02*
X0153241Y0046258D01*
X0188989Y0046258D01*
X0188989Y0030770D01*
X0153241Y0030770D01*
X0153241Y0033644D02*
X0188989Y0033644D01*
X0177001Y0030376D02*
X0177001Y0016361D01*
X0175033Y0015180D01*
X0167198Y0015180D01*
X0165230Y0016361D01*
X0165230Y0030376D01*
X0165623Y0027522D02*
X0176608Y0029589D01*
X0176608Y0027620D02*
X0165623Y0025554D01*
X0165623Y0023585D02*
X0176608Y0025652D01*
X0176608Y0023683D02*
X0165623Y0021617D01*
X0165623Y0019648D02*
X0176608Y0021715D01*
X0176608Y0019746D02*
X0165623Y0017680D01*
X0166509Y0015869D02*
X0176608Y0017935D01*
X0175033Y0015180D02*
X0175033Y0001400D01*
X0167198Y0001400D01*
X0167198Y0015180D01*
M02*
