G75*
%MOIN*%
%OFA0B0*%
%FSLAX25Y25*%
%IPPOS*%
%LPD*%
%AMOC8*
5,1,8,0,0,1.08239X$1,22.5*
%
%ADD10C,0.05543*%
%ADD11OC8,0.05200*%
%ADD12C,0.07000*%
%ADD13C,0.05000*%
%ADD14R,0.03962X0.03962*%
D10*
X0084627Y0050337D03*
X0094627Y0050337D03*
X0124627Y0050337D03*
X0144627Y0050337D03*
X0164627Y0050337D03*
X0164627Y0070337D03*
X0164627Y0080337D03*
X0144627Y0070337D03*
X0104627Y0080337D03*
X0094627Y0080337D03*
X0084627Y0080337D03*
X0094627Y0110337D03*
X0104627Y0110337D03*
X0124627Y0120337D03*
X0144627Y0120337D03*
X0154627Y0130337D03*
X0154627Y0100337D03*
X0164627Y0100337D03*
X0094627Y0130337D03*
X0074627Y0130337D03*
D11*
X0074627Y0110337D03*
X0084627Y0110337D03*
X0084627Y0090337D03*
X0074627Y0090337D03*
D12*
X0084627Y0040337D03*
X0094627Y0040337D03*
X0104627Y0040337D03*
X0144627Y0040337D03*
X0154627Y0040337D03*
X0164627Y0040337D03*
X0144627Y0080337D03*
X0144627Y0090337D03*
X0144627Y0100337D03*
X0144627Y0110337D03*
X0114627Y0110337D03*
X0114627Y0100337D03*
X0114627Y0090337D03*
X0114627Y0080337D03*
X0124627Y0140337D03*
X0144627Y0140337D03*
X0094627Y0140337D03*
D13*
X0094627Y0130337D01*
X0104627Y0130337D02*
X0104627Y0110337D01*
X0104627Y0100337D01*
X0114627Y0100337D01*
X0114627Y0090337D02*
X0094627Y0090337D01*
X0094627Y0080337D01*
X0084627Y0080337D01*
X0074627Y0090337D02*
X0074627Y0070337D01*
X0134627Y0070337D01*
X0134627Y0080337D01*
X0144627Y0080337D01*
X0164627Y0080337D01*
X0164627Y0070337D02*
X0154627Y0070337D01*
X0144627Y0070337D01*
X0154627Y0060337D02*
X0154627Y0040337D01*
X0144627Y0040337D02*
X0144627Y0050337D01*
X0154627Y0060337D02*
X0094627Y0060337D01*
X0094627Y0040337D01*
X0094627Y0050337D01*
X0104627Y0050337D02*
X0104627Y0040337D01*
X0104627Y0050337D02*
X0124627Y0050337D01*
X0164627Y0050337D02*
X0164627Y0040337D01*
X0124627Y0080337D02*
X0114627Y0080337D01*
X0104627Y0080337D01*
X0084627Y0090337D02*
X0084627Y0110337D01*
X0094627Y0110337D01*
X0084627Y0110337D02*
X0084627Y0120337D01*
X0074627Y0110337D02*
X0074627Y0090337D01*
X0074627Y0110337D02*
X0074627Y0130337D01*
X0114627Y0120337D02*
X0114627Y0110337D01*
X0124627Y0120337D02*
X0124627Y0080337D01*
X0144627Y0090337D02*
X0154627Y0090337D01*
X0164627Y0090337D01*
X0164627Y0100337D01*
X0154627Y0100337D02*
X0144627Y0100337D01*
X0134627Y0100337D01*
X0134627Y0130337D01*
X0144627Y0130337D02*
X0144627Y0120337D01*
X0144627Y0140337D01*
X0144627Y0130337D02*
X0154627Y0130337D01*
X0144627Y0120337D02*
X0144627Y0110337D01*
X0124627Y0120337D02*
X0124627Y0140337D01*
X0084627Y0050337D02*
X0084627Y0040337D01*
D14*
X0104627Y0050337D03*
X0154627Y0070337D03*
X0154627Y0090337D03*
X0114627Y0120337D03*
X0104627Y0130337D03*
X0084627Y0120337D03*
X0134627Y0130337D03*
M02*
