G75*
%MOIN*%
%OFA0B0*%
%FSLAX25Y25*%
%IPPOS*%
%LPD*%
%AMOC8*
5,1,8,0,0,1.08239X$1,22.5*
%
%ADD10C,0.05543*%
%ADD11C,0.05150*%
%ADD12OC8,0.05200*%
%ADD13C,0.07000*%
%ADD14C,0.05000*%
D10*
X0022907Y0040337D03*
X0012907Y0050337D03*
X0022907Y0070337D03*
X0032907Y0070337D03*
X0032907Y0050337D03*
X0012907Y0080337D03*
X0032907Y0100337D03*
X0072907Y0140337D03*
X0082907Y0120337D03*
X0092907Y0120337D03*
X0092907Y0140337D03*
X0092907Y0090337D03*
X0092907Y0080337D03*
X0082907Y0080337D03*
X0082907Y0090337D03*
X0102907Y0080337D03*
X0092907Y0060337D03*
X0082907Y0050337D03*
X0062907Y0050337D03*
X0102907Y0050337D03*
D11*
X0075482Y0070337D02*
X0070332Y0070337D01*
X0070332Y0080337D02*
X0075482Y0080337D01*
X0075482Y0090337D02*
X0070332Y0090337D01*
X0070332Y0100337D02*
X0075482Y0100337D01*
X0075482Y0110337D02*
X0070332Y0110337D01*
X0070332Y0120337D02*
X0075482Y0120337D01*
X0075482Y0130337D02*
X0070332Y0130337D01*
X0045482Y0130337D02*
X0040332Y0130337D01*
X0040332Y0120337D02*
X0045482Y0120337D01*
X0045482Y0110337D02*
X0040332Y0110337D01*
X0040332Y0100337D02*
X0045482Y0100337D01*
X0045482Y0090337D02*
X0040332Y0090337D01*
X0040332Y0080337D02*
X0045482Y0080337D01*
X0045482Y0070337D02*
X0040332Y0070337D01*
D12*
X0022907Y0100337D03*
X0012907Y0100337D03*
X0012907Y0120337D03*
X0022907Y0120337D03*
D13*
X0012907Y0035337D03*
X0032907Y0040337D03*
X0042907Y0040337D03*
X0052907Y0040337D03*
X0082907Y0040337D03*
X0092907Y0040337D03*
X0102907Y0040337D03*
X0102907Y0140337D03*
X0032907Y0140337D03*
D14*
X0052907Y0140337D01*
X0072907Y0140337D01*
X0062907Y0140337D01*
X0052907Y0140337D02*
X0052907Y0100337D01*
X0042907Y0100337D01*
X0042907Y0090337D02*
X0032907Y0090337D01*
X0032907Y0100337D01*
X0022907Y0100337D01*
X0022907Y0120337D01*
X0012907Y0120337D02*
X0012907Y0100337D01*
X0012907Y0080337D02*
X0012907Y0120337D01*
X0012907Y0080337D02*
X0012907Y0060337D01*
X0072907Y0060337D01*
X0072907Y0070337D01*
X0072907Y0060337D02*
X0092907Y0060337D01*
X0082907Y0050337D02*
X0082907Y0040337D01*
X0092907Y0040337D02*
X0092907Y0030337D01*
X0042907Y0030337D01*
X0042907Y0040337D01*
X0042907Y0050337D01*
X0032907Y0050337D01*
X0032907Y0040337D02*
X0022907Y0040337D01*
X0012907Y0035337D02*
X0012907Y0050337D01*
X0022907Y0070337D02*
X0032907Y0070337D01*
X0042907Y0070337D02*
X0022907Y0070337D01*
X0042907Y0080337D02*
X0062907Y0080337D01*
X0062907Y0090337D01*
X0072907Y0090337D01*
X0082907Y0090337D01*
X0092907Y0090337D01*
X0092907Y0100337D02*
X0072907Y0100337D01*
X0072907Y0080337D02*
X0082907Y0080337D01*
X0102907Y0080337D01*
X0092907Y0080337D01*
X0092907Y0100337D02*
X0092907Y0120337D01*
X0092907Y0140337D01*
X0102907Y0140337D01*
X0082907Y0140337D02*
X0082907Y0120337D01*
X0082907Y0140337D02*
X0072907Y0140337D01*
X0062907Y0050337D02*
X0062907Y0040337D01*
X0052907Y0040337D01*
X0102907Y0040337D02*
X0102907Y0050337D01*
M02*
