%
M48
M72
T01C0.03150
T02C0.03200
T03C0.03543
%
T01
X4290Y7033
X4290Y8033
X4290Y9033
X4290Y10033
X4290Y11033
X4290Y12033
X4290Y13033
X7290Y13033
X7290Y12033
X7290Y11033
X7290Y10033
X7290Y9033
X7290Y8033
X7290Y7033
T02
X2290Y10033
X1290Y10033
X1290Y12033
X2290Y12033
T03
X1290Y3533
X2290Y4033
X3290Y4033
X3290Y5033
X4290Y4033
X5290Y4033
X6290Y5033
X8290Y5033
X8290Y4033
X9290Y4033
X10290Y4033
X10290Y5033
X9290Y6033
X9290Y8033
X9290Y9033
X8290Y9033
X8290Y8033
X10290Y8033
X9290Y12033
X8290Y12033
X7290Y14033
X9290Y14033
X10290Y14033
X3290Y14033
X3290Y10033
X1290Y8033
X2290Y7033
X3290Y7033
X1290Y5033
M30
