%
M48
M72
T01C0.03150
T02C0.03200
T03C0.03543
%
T01
X4438Y7033
X4438Y8033
X4438Y9033
X4438Y10033
X4438Y11033
X4438Y12033
X4438Y13033
X7438Y13033
X7438Y12033
X7438Y11033
X7438Y10033
X7438Y9033
X7438Y8033
X7438Y7033
T02
X2438Y10033
X1438Y10033
X1438Y12033
X2438Y12033
T03
X1438Y3533
X2438Y4033
X3438Y4033
X4438Y4033
X3438Y5033
X3438Y7033
X2438Y7033
X1438Y8033
X3438Y10033
X3438Y14033
X7438Y14033
X8438Y12033
X9438Y12033
X9438Y14033
X10438Y14033
X9438Y9033
X9438Y8033
X10438Y8033
X9438Y6033
X10438Y5033
X10438Y4033
X9438Y4033
X8438Y4033
X8438Y5033
X6438Y5033
X5438Y4033
X8438Y8033
X8438Y9033
X1438Y5033
M30
