G75*
%MOIN*%
%OFA0B0*%
%FSLAX25Y25*%
%IPPOS*%
%LPD*%
%AMOC8*
5,1,8,0,0,1.08239X$1,22.5*
%
%ADD10C,0.00600*%
%ADD11C,0.01200*%
%ADD12C,0.00300*%
%ADD13C,0.00500*%
%ADD14C,0.00400*%
%ADD15R,0.00800X0.07200*%
%ADD16R,0.05000X0.01000*%
%ADD17C,0.01000*%
%ADD18R,0.01000X0.01500*%
%ADD19R,0.01500X0.01000*%
%ADD20C,0.00800*%
%ADD21C,0.00200*%
%ADD22R,0.01000X0.04000*%
D10*
X0022883Y0050337D02*
X0025883Y0050337D01*
X0025943Y0050339D01*
X0026004Y0050344D01*
X0026063Y0050353D01*
X0026122Y0050366D01*
X0026181Y0050382D01*
X0026238Y0050402D01*
X0026293Y0050425D01*
X0026348Y0050452D01*
X0026400Y0050481D01*
X0026451Y0050514D01*
X0026500Y0050550D01*
X0026546Y0050588D01*
X0026590Y0050630D01*
X0026632Y0050674D01*
X0026670Y0050720D01*
X0026706Y0050769D01*
X0026739Y0050820D01*
X0026768Y0050872D01*
X0026795Y0050927D01*
X0026818Y0050982D01*
X0026838Y0051039D01*
X0026854Y0051098D01*
X0026867Y0051157D01*
X0026876Y0051216D01*
X0026881Y0051277D01*
X0026883Y0051337D01*
X0026883Y0059337D01*
X0026881Y0059397D01*
X0026876Y0059458D01*
X0026867Y0059517D01*
X0026854Y0059576D01*
X0026838Y0059635D01*
X0026818Y0059692D01*
X0026795Y0059747D01*
X0026768Y0059802D01*
X0026739Y0059854D01*
X0026706Y0059905D01*
X0026670Y0059954D01*
X0026632Y0060000D01*
X0026590Y0060044D01*
X0026546Y0060086D01*
X0026500Y0060124D01*
X0026451Y0060160D01*
X0026400Y0060193D01*
X0026348Y0060222D01*
X0026293Y0060249D01*
X0026238Y0060272D01*
X0026181Y0060292D01*
X0026122Y0060308D01*
X0026063Y0060321D01*
X0026004Y0060330D01*
X0025943Y0060335D01*
X0025883Y0060337D01*
X0022883Y0060337D01*
X0022823Y0060335D01*
X0022762Y0060330D01*
X0022703Y0060321D01*
X0022644Y0060308D01*
X0022585Y0060292D01*
X0022528Y0060272D01*
X0022473Y0060249D01*
X0022418Y0060222D01*
X0022366Y0060193D01*
X0022315Y0060160D01*
X0022266Y0060124D01*
X0022220Y0060086D01*
X0022176Y0060044D01*
X0022134Y0060000D01*
X0022096Y0059954D01*
X0022060Y0059905D01*
X0022027Y0059854D01*
X0021998Y0059802D01*
X0021971Y0059747D01*
X0021948Y0059692D01*
X0021928Y0059635D01*
X0021912Y0059576D01*
X0021899Y0059517D01*
X0021890Y0059458D01*
X0021885Y0059397D01*
X0021883Y0059337D01*
X0021883Y0051337D01*
X0021885Y0051277D01*
X0021890Y0051216D01*
X0021899Y0051157D01*
X0021912Y0051098D01*
X0021928Y0051039D01*
X0021948Y0050982D01*
X0021971Y0050927D01*
X0021998Y0050872D01*
X0022027Y0050820D01*
X0022060Y0050769D01*
X0022096Y0050720D01*
X0022134Y0050674D01*
X0022176Y0050630D01*
X0022220Y0050588D01*
X0022266Y0050550D01*
X0022315Y0050514D01*
X0022366Y0050481D01*
X0022418Y0050452D01*
X0022473Y0050425D01*
X0022528Y0050402D01*
X0022585Y0050382D01*
X0022644Y0050366D01*
X0022703Y0050353D01*
X0022762Y0050344D01*
X0022823Y0050339D01*
X0022883Y0050337D01*
X0022823Y0050339D01*
X0022762Y0050344D01*
X0022703Y0050353D01*
X0022644Y0050366D01*
X0022585Y0050382D01*
X0022528Y0050402D01*
X0022473Y0050425D01*
X0022418Y0050452D01*
X0022366Y0050481D01*
X0022315Y0050514D01*
X0022266Y0050550D01*
X0022220Y0050588D01*
X0022176Y0050630D01*
X0022134Y0050674D01*
X0022096Y0050720D01*
X0022060Y0050769D01*
X0022027Y0050820D01*
X0021998Y0050872D01*
X0021971Y0050927D01*
X0021948Y0050982D01*
X0021928Y0051039D01*
X0021912Y0051098D01*
X0021899Y0051157D01*
X0021890Y0051216D01*
X0021885Y0051277D01*
X0021883Y0051337D01*
X0025883Y0050337D02*
X0025943Y0050339D01*
X0026004Y0050344D01*
X0026063Y0050353D01*
X0026122Y0050366D01*
X0026181Y0050382D01*
X0026238Y0050402D01*
X0026293Y0050425D01*
X0026348Y0050452D01*
X0026400Y0050481D01*
X0026451Y0050514D01*
X0026500Y0050550D01*
X0026546Y0050588D01*
X0026590Y0050630D01*
X0026632Y0050674D01*
X0026670Y0050720D01*
X0026706Y0050769D01*
X0026739Y0050820D01*
X0026768Y0050872D01*
X0026795Y0050927D01*
X0026818Y0050982D01*
X0026838Y0051039D01*
X0026854Y0051098D01*
X0026867Y0051157D01*
X0026876Y0051216D01*
X0026881Y0051277D01*
X0026883Y0051337D01*
X0026883Y0059337D02*
X0026881Y0059397D01*
X0026876Y0059458D01*
X0026867Y0059517D01*
X0026854Y0059576D01*
X0026838Y0059635D01*
X0026818Y0059692D01*
X0026795Y0059747D01*
X0026768Y0059802D01*
X0026739Y0059854D01*
X0026706Y0059905D01*
X0026670Y0059954D01*
X0026632Y0060000D01*
X0026590Y0060044D01*
X0026546Y0060086D01*
X0026500Y0060124D01*
X0026451Y0060160D01*
X0026400Y0060193D01*
X0026348Y0060222D01*
X0026293Y0060249D01*
X0026238Y0060272D01*
X0026181Y0060292D01*
X0026122Y0060308D01*
X0026063Y0060321D01*
X0026004Y0060330D01*
X0025943Y0060335D01*
X0025883Y0060337D01*
X0022883Y0060337D02*
X0022823Y0060335D01*
X0022762Y0060330D01*
X0022703Y0060321D01*
X0022644Y0060308D01*
X0022585Y0060292D01*
X0022528Y0060272D01*
X0022473Y0060249D01*
X0022418Y0060222D01*
X0022366Y0060193D01*
X0022315Y0060160D01*
X0022266Y0060124D01*
X0022220Y0060086D01*
X0022176Y0060044D01*
X0022134Y0060000D01*
X0022096Y0059954D01*
X0022060Y0059905D01*
X0022027Y0059854D01*
X0021998Y0059802D01*
X0021971Y0059747D01*
X0021948Y0059692D01*
X0021928Y0059635D01*
X0021912Y0059576D01*
X0021899Y0059517D01*
X0021890Y0059458D01*
X0021885Y0059397D01*
X0021883Y0059337D01*
X0016883Y0061337D02*
X0016883Y0069337D01*
X0016881Y0069397D01*
X0016876Y0069458D01*
X0016867Y0069517D01*
X0016854Y0069576D01*
X0016838Y0069635D01*
X0016818Y0069692D01*
X0016795Y0069747D01*
X0016768Y0069802D01*
X0016739Y0069854D01*
X0016706Y0069905D01*
X0016670Y0069954D01*
X0016632Y0070000D01*
X0016590Y0070044D01*
X0016546Y0070086D01*
X0016500Y0070124D01*
X0016451Y0070160D01*
X0016400Y0070193D01*
X0016348Y0070222D01*
X0016293Y0070249D01*
X0016238Y0070272D01*
X0016181Y0070292D01*
X0016122Y0070308D01*
X0016063Y0070321D01*
X0016004Y0070330D01*
X0015943Y0070335D01*
X0015883Y0070337D01*
X0012883Y0070337D01*
X0012823Y0070335D01*
X0012762Y0070330D01*
X0012703Y0070321D01*
X0012644Y0070308D01*
X0012585Y0070292D01*
X0012528Y0070272D01*
X0012473Y0070249D01*
X0012418Y0070222D01*
X0012366Y0070193D01*
X0012315Y0070160D01*
X0012266Y0070124D01*
X0012220Y0070086D01*
X0012176Y0070044D01*
X0012134Y0070000D01*
X0012096Y0069954D01*
X0012060Y0069905D01*
X0012027Y0069854D01*
X0011998Y0069802D01*
X0011971Y0069747D01*
X0011948Y0069692D01*
X0011928Y0069635D01*
X0011912Y0069576D01*
X0011899Y0069517D01*
X0011890Y0069458D01*
X0011885Y0069397D01*
X0011883Y0069337D01*
X0011883Y0061337D01*
X0011885Y0061277D01*
X0011890Y0061216D01*
X0011899Y0061157D01*
X0011912Y0061098D01*
X0011928Y0061039D01*
X0011948Y0060982D01*
X0011971Y0060927D01*
X0011998Y0060872D01*
X0012027Y0060820D01*
X0012060Y0060769D01*
X0012096Y0060720D01*
X0012134Y0060674D01*
X0012176Y0060630D01*
X0012220Y0060588D01*
X0012266Y0060550D01*
X0012315Y0060514D01*
X0012366Y0060481D01*
X0012418Y0060452D01*
X0012473Y0060425D01*
X0012528Y0060402D01*
X0012585Y0060382D01*
X0012644Y0060366D01*
X0012703Y0060353D01*
X0012762Y0060344D01*
X0012823Y0060339D01*
X0012883Y0060337D01*
X0015883Y0060337D01*
X0015943Y0060339D01*
X0016004Y0060344D01*
X0016063Y0060353D01*
X0016122Y0060366D01*
X0016181Y0060382D01*
X0016238Y0060402D01*
X0016293Y0060425D01*
X0016348Y0060452D01*
X0016400Y0060481D01*
X0016451Y0060514D01*
X0016500Y0060550D01*
X0016546Y0060588D01*
X0016590Y0060630D01*
X0016632Y0060674D01*
X0016670Y0060720D01*
X0016706Y0060769D01*
X0016739Y0060820D01*
X0016768Y0060872D01*
X0016795Y0060927D01*
X0016818Y0060982D01*
X0016838Y0061039D01*
X0016854Y0061098D01*
X0016867Y0061157D01*
X0016876Y0061216D01*
X0016881Y0061277D01*
X0016883Y0061337D01*
X0016881Y0061277D01*
X0016876Y0061216D01*
X0016867Y0061157D01*
X0016854Y0061098D01*
X0016838Y0061039D01*
X0016818Y0060982D01*
X0016795Y0060927D01*
X0016768Y0060872D01*
X0016739Y0060820D01*
X0016706Y0060769D01*
X0016670Y0060720D01*
X0016632Y0060674D01*
X0016590Y0060630D01*
X0016546Y0060588D01*
X0016500Y0060550D01*
X0016451Y0060514D01*
X0016400Y0060481D01*
X0016348Y0060452D01*
X0016293Y0060425D01*
X0016238Y0060402D01*
X0016181Y0060382D01*
X0016122Y0060366D01*
X0016063Y0060353D01*
X0016004Y0060344D01*
X0015943Y0060339D01*
X0015883Y0060337D01*
X0012883Y0060337D02*
X0012823Y0060339D01*
X0012762Y0060344D01*
X0012703Y0060353D01*
X0012644Y0060366D01*
X0012585Y0060382D01*
X0012528Y0060402D01*
X0012473Y0060425D01*
X0012418Y0060452D01*
X0012366Y0060481D01*
X0012315Y0060514D01*
X0012266Y0060550D01*
X0012220Y0060588D01*
X0012176Y0060630D01*
X0012134Y0060674D01*
X0012096Y0060720D01*
X0012060Y0060769D01*
X0012027Y0060820D01*
X0011998Y0060872D01*
X0011971Y0060927D01*
X0011948Y0060982D01*
X0011928Y0061039D01*
X0011912Y0061098D01*
X0011899Y0061157D01*
X0011890Y0061216D01*
X0011885Y0061277D01*
X0011883Y0061337D01*
X0011883Y0069337D02*
X0011885Y0069397D01*
X0011890Y0069458D01*
X0011899Y0069517D01*
X0011912Y0069576D01*
X0011928Y0069635D01*
X0011948Y0069692D01*
X0011971Y0069747D01*
X0011998Y0069802D01*
X0012027Y0069854D01*
X0012060Y0069905D01*
X0012096Y0069954D01*
X0012134Y0070000D01*
X0012176Y0070044D01*
X0012220Y0070086D01*
X0012266Y0070124D01*
X0012315Y0070160D01*
X0012366Y0070193D01*
X0012418Y0070222D01*
X0012473Y0070249D01*
X0012528Y0070272D01*
X0012585Y0070292D01*
X0012644Y0070308D01*
X0012703Y0070321D01*
X0012762Y0070330D01*
X0012823Y0070335D01*
X0012883Y0070337D01*
X0015883Y0070337D02*
X0015943Y0070335D01*
X0016004Y0070330D01*
X0016063Y0070321D01*
X0016122Y0070308D01*
X0016181Y0070292D01*
X0016238Y0070272D01*
X0016293Y0070249D01*
X0016348Y0070222D01*
X0016400Y0070193D01*
X0016451Y0070160D01*
X0016500Y0070124D01*
X0016546Y0070086D01*
X0016590Y0070044D01*
X0016632Y0070000D01*
X0016670Y0069954D01*
X0016706Y0069905D01*
X0016739Y0069854D01*
X0016768Y0069802D01*
X0016795Y0069747D01*
X0016818Y0069692D01*
X0016838Y0069635D01*
X0016854Y0069576D01*
X0016867Y0069517D01*
X0016876Y0069458D01*
X0016881Y0069397D01*
X0016883Y0069337D01*
X0031883Y0081337D02*
X0031883Y0089337D01*
X0031885Y0089397D01*
X0031890Y0089458D01*
X0031899Y0089517D01*
X0031912Y0089576D01*
X0031928Y0089635D01*
X0031948Y0089692D01*
X0031971Y0089747D01*
X0031998Y0089802D01*
X0032027Y0089854D01*
X0032060Y0089905D01*
X0032096Y0089954D01*
X0032134Y0090000D01*
X0032176Y0090044D01*
X0032220Y0090086D01*
X0032266Y0090124D01*
X0032315Y0090160D01*
X0032366Y0090193D01*
X0032418Y0090222D01*
X0032473Y0090249D01*
X0032528Y0090272D01*
X0032585Y0090292D01*
X0032644Y0090308D01*
X0032703Y0090321D01*
X0032762Y0090330D01*
X0032823Y0090335D01*
X0032883Y0090337D01*
X0035883Y0090337D01*
X0035943Y0090335D01*
X0036004Y0090330D01*
X0036063Y0090321D01*
X0036122Y0090308D01*
X0036181Y0090292D01*
X0036238Y0090272D01*
X0036293Y0090249D01*
X0036348Y0090222D01*
X0036400Y0090193D01*
X0036451Y0090160D01*
X0036500Y0090124D01*
X0036546Y0090086D01*
X0036590Y0090044D01*
X0036632Y0090000D01*
X0036670Y0089954D01*
X0036706Y0089905D01*
X0036739Y0089854D01*
X0036768Y0089802D01*
X0036795Y0089747D01*
X0036818Y0089692D01*
X0036838Y0089635D01*
X0036854Y0089576D01*
X0036867Y0089517D01*
X0036876Y0089458D01*
X0036881Y0089397D01*
X0036883Y0089337D01*
X0036883Y0081337D01*
X0036881Y0081277D01*
X0036876Y0081216D01*
X0036867Y0081157D01*
X0036854Y0081098D01*
X0036838Y0081039D01*
X0036818Y0080982D01*
X0036795Y0080927D01*
X0036768Y0080872D01*
X0036739Y0080820D01*
X0036706Y0080769D01*
X0036670Y0080720D01*
X0036632Y0080674D01*
X0036590Y0080630D01*
X0036546Y0080588D01*
X0036500Y0080550D01*
X0036451Y0080514D01*
X0036400Y0080481D01*
X0036348Y0080452D01*
X0036293Y0080425D01*
X0036238Y0080402D01*
X0036181Y0080382D01*
X0036122Y0080366D01*
X0036063Y0080353D01*
X0036004Y0080344D01*
X0035943Y0080339D01*
X0035883Y0080337D01*
X0032883Y0080337D01*
X0032823Y0080339D01*
X0032762Y0080344D01*
X0032703Y0080353D01*
X0032644Y0080366D01*
X0032585Y0080382D01*
X0032528Y0080402D01*
X0032473Y0080425D01*
X0032418Y0080452D01*
X0032366Y0080481D01*
X0032315Y0080514D01*
X0032266Y0080550D01*
X0032220Y0080588D01*
X0032176Y0080630D01*
X0032134Y0080674D01*
X0032096Y0080720D01*
X0032060Y0080769D01*
X0032027Y0080820D01*
X0031998Y0080872D01*
X0031971Y0080927D01*
X0031948Y0080982D01*
X0031928Y0081039D01*
X0031912Y0081098D01*
X0031899Y0081157D01*
X0031890Y0081216D01*
X0031885Y0081277D01*
X0031883Y0081337D01*
X0031885Y0081277D01*
X0031890Y0081216D01*
X0031899Y0081157D01*
X0031912Y0081098D01*
X0031928Y0081039D01*
X0031948Y0080982D01*
X0031971Y0080927D01*
X0031998Y0080872D01*
X0032027Y0080820D01*
X0032060Y0080769D01*
X0032096Y0080720D01*
X0032134Y0080674D01*
X0032176Y0080630D01*
X0032220Y0080588D01*
X0032266Y0080550D01*
X0032315Y0080514D01*
X0032366Y0080481D01*
X0032418Y0080452D01*
X0032473Y0080425D01*
X0032528Y0080402D01*
X0032585Y0080382D01*
X0032644Y0080366D01*
X0032703Y0080353D01*
X0032762Y0080344D01*
X0032823Y0080339D01*
X0032883Y0080337D01*
X0035883Y0080337D02*
X0035943Y0080339D01*
X0036004Y0080344D01*
X0036063Y0080353D01*
X0036122Y0080366D01*
X0036181Y0080382D01*
X0036238Y0080402D01*
X0036293Y0080425D01*
X0036348Y0080452D01*
X0036400Y0080481D01*
X0036451Y0080514D01*
X0036500Y0080550D01*
X0036546Y0080588D01*
X0036590Y0080630D01*
X0036632Y0080674D01*
X0036670Y0080720D01*
X0036706Y0080769D01*
X0036739Y0080820D01*
X0036768Y0080872D01*
X0036795Y0080927D01*
X0036818Y0080982D01*
X0036838Y0081039D01*
X0036854Y0081098D01*
X0036867Y0081157D01*
X0036876Y0081216D01*
X0036881Y0081277D01*
X0036883Y0081337D01*
X0036883Y0089337D02*
X0036881Y0089397D01*
X0036876Y0089458D01*
X0036867Y0089517D01*
X0036854Y0089576D01*
X0036838Y0089635D01*
X0036818Y0089692D01*
X0036795Y0089747D01*
X0036768Y0089802D01*
X0036739Y0089854D01*
X0036706Y0089905D01*
X0036670Y0089954D01*
X0036632Y0090000D01*
X0036590Y0090044D01*
X0036546Y0090086D01*
X0036500Y0090124D01*
X0036451Y0090160D01*
X0036400Y0090193D01*
X0036348Y0090222D01*
X0036293Y0090249D01*
X0036238Y0090272D01*
X0036181Y0090292D01*
X0036122Y0090308D01*
X0036063Y0090321D01*
X0036004Y0090330D01*
X0035943Y0090335D01*
X0035883Y0090337D01*
X0032883Y0090337D02*
X0032823Y0090335D01*
X0032762Y0090330D01*
X0032703Y0090321D01*
X0032644Y0090308D01*
X0032585Y0090292D01*
X0032528Y0090272D01*
X0032473Y0090249D01*
X0032418Y0090222D01*
X0032366Y0090193D01*
X0032315Y0090160D01*
X0032266Y0090124D01*
X0032220Y0090086D01*
X0032176Y0090044D01*
X0032134Y0090000D01*
X0032096Y0089954D01*
X0032060Y0089905D01*
X0032027Y0089854D01*
X0031998Y0089802D01*
X0031971Y0089747D01*
X0031948Y0089692D01*
X0031928Y0089635D01*
X0031912Y0089576D01*
X0031899Y0089517D01*
X0031890Y0089458D01*
X0031885Y0089397D01*
X0031883Y0089337D01*
X0019383Y0094337D02*
X0019231Y0094339D01*
X0019080Y0094345D01*
X0018929Y0094354D01*
X0018777Y0094368D01*
X0018627Y0094385D01*
X0018477Y0094406D01*
X0018327Y0094431D01*
X0018178Y0094459D01*
X0018030Y0094492D01*
X0017883Y0094528D01*
X0017736Y0094567D01*
X0017591Y0094611D01*
X0017447Y0094658D01*
X0017304Y0094709D01*
X0017163Y0094763D01*
X0017022Y0094821D01*
X0016884Y0094882D01*
X0016747Y0094947D01*
X0016611Y0095016D01*
X0016478Y0095087D01*
X0016346Y0095162D01*
X0016216Y0095241D01*
X0016089Y0095322D01*
X0015963Y0095407D01*
X0015839Y0095495D01*
X0015718Y0095586D01*
X0015599Y0095680D01*
X0015483Y0095778D01*
X0015369Y0095878D01*
X0015257Y0095980D01*
X0015149Y0096086D01*
X0015043Y0096194D01*
X0014939Y0096305D01*
X0014839Y0096419D01*
X0014741Y0096535D01*
X0014647Y0096654D01*
X0019383Y0106337D02*
X0019537Y0106335D01*
X0019691Y0106329D01*
X0019845Y0106319D01*
X0019999Y0106305D01*
X0020152Y0106288D01*
X0020304Y0106266D01*
X0020456Y0106240D01*
X0020608Y0106211D01*
X0020758Y0106177D01*
X0020908Y0106140D01*
X0021056Y0106099D01*
X0021204Y0106054D01*
X0021350Y0106005D01*
X0021495Y0105953D01*
X0021638Y0105897D01*
X0021781Y0105837D01*
X0021921Y0105774D01*
X0022060Y0105707D01*
X0022197Y0105636D01*
X0022332Y0105562D01*
X0022465Y0105485D01*
X0022597Y0105404D01*
X0022726Y0105320D01*
X0022853Y0105232D01*
X0022977Y0105141D01*
X0023099Y0105048D01*
X0023219Y0104950D01*
X0023336Y0104850D01*
X0023451Y0104747D01*
X0023563Y0104641D01*
X0023672Y0104533D01*
X0023778Y0104421D01*
X0023882Y0104307D01*
X0023982Y0104190D01*
X0024080Y0104071D01*
X0024174Y0103949D01*
X0024265Y0103824D01*
X0019383Y0106337D02*
X0019233Y0106335D01*
X0019082Y0106329D01*
X0018932Y0106320D01*
X0018783Y0106307D01*
X0018633Y0106290D01*
X0018484Y0106269D01*
X0018336Y0106245D01*
X0018188Y0106217D01*
X0018041Y0106185D01*
X0017895Y0106150D01*
X0017750Y0106110D01*
X0017606Y0106068D01*
X0017463Y0106021D01*
X0017321Y0105971D01*
X0017180Y0105918D01*
X0017041Y0105861D01*
X0016903Y0105801D01*
X0016767Y0105737D01*
X0016633Y0105670D01*
X0016500Y0105599D01*
X0016369Y0105525D01*
X0016240Y0105448D01*
X0016113Y0105367D01*
X0015988Y0105284D01*
X0015865Y0105197D01*
X0015744Y0105108D01*
X0015626Y0105015D01*
X0015510Y0104919D01*
X0015396Y0104821D01*
X0015285Y0104720D01*
X0015176Y0104615D01*
X0015071Y0104509D01*
X0014967Y0104399D01*
X0014867Y0104287D01*
X0014769Y0104173D01*
X0014675Y0104056D01*
X0014583Y0103937D01*
X0019383Y0094337D02*
X0019535Y0094339D01*
X0019686Y0094345D01*
X0019837Y0094354D01*
X0019989Y0094368D01*
X0020139Y0094385D01*
X0020289Y0094406D01*
X0020439Y0094431D01*
X0020588Y0094459D01*
X0020736Y0094492D01*
X0020883Y0094528D01*
X0021030Y0094567D01*
X0021175Y0094611D01*
X0021319Y0094658D01*
X0021462Y0094709D01*
X0021603Y0094763D01*
X0021744Y0094821D01*
X0021882Y0094882D01*
X0022019Y0094947D01*
X0022155Y0095016D01*
X0022288Y0095087D01*
X0022420Y0095162D01*
X0022550Y0095241D01*
X0022677Y0095322D01*
X0022803Y0095407D01*
X0022927Y0095495D01*
X0023048Y0095586D01*
X0023167Y0095680D01*
X0023283Y0095778D01*
X0023397Y0095878D01*
X0023509Y0095980D01*
X0023617Y0096086D01*
X0023723Y0096194D01*
X0023827Y0096305D01*
X0023927Y0096419D01*
X0024025Y0096535D01*
X0024119Y0096654D01*
X0019383Y0114337D02*
X0019229Y0114339D01*
X0019075Y0114345D01*
X0018921Y0114355D01*
X0018767Y0114369D01*
X0018614Y0114386D01*
X0018462Y0114408D01*
X0018310Y0114434D01*
X0018158Y0114463D01*
X0018008Y0114497D01*
X0017858Y0114534D01*
X0017710Y0114575D01*
X0017562Y0114620D01*
X0017416Y0114669D01*
X0017271Y0114721D01*
X0017128Y0114777D01*
X0016985Y0114837D01*
X0016845Y0114900D01*
X0016706Y0114967D01*
X0016569Y0115038D01*
X0016434Y0115112D01*
X0016301Y0115189D01*
X0016169Y0115270D01*
X0016040Y0115354D01*
X0015913Y0115442D01*
X0015789Y0115533D01*
X0015667Y0115626D01*
X0015547Y0115724D01*
X0015430Y0115824D01*
X0015315Y0115927D01*
X0015203Y0116033D01*
X0015094Y0116141D01*
X0014988Y0116253D01*
X0014884Y0116367D01*
X0014784Y0116484D01*
X0014686Y0116603D01*
X0014592Y0116725D01*
X0014501Y0116850D01*
X0019383Y0126337D02*
X0019535Y0126335D01*
X0019686Y0126329D01*
X0019837Y0126320D01*
X0019989Y0126306D01*
X0020139Y0126289D01*
X0020289Y0126268D01*
X0020439Y0126243D01*
X0020588Y0126215D01*
X0020736Y0126182D01*
X0020883Y0126146D01*
X0021030Y0126107D01*
X0021175Y0126063D01*
X0021319Y0126016D01*
X0021462Y0125965D01*
X0021603Y0125911D01*
X0021744Y0125853D01*
X0021882Y0125792D01*
X0022019Y0125727D01*
X0022155Y0125658D01*
X0022288Y0125587D01*
X0022420Y0125512D01*
X0022550Y0125433D01*
X0022677Y0125352D01*
X0022803Y0125267D01*
X0022927Y0125179D01*
X0023048Y0125088D01*
X0023167Y0124994D01*
X0023283Y0124896D01*
X0023397Y0124796D01*
X0023509Y0124694D01*
X0023617Y0124588D01*
X0023723Y0124480D01*
X0023827Y0124369D01*
X0023927Y0124255D01*
X0024025Y0124139D01*
X0024119Y0124020D01*
X0019383Y0126337D02*
X0019231Y0126335D01*
X0019080Y0126329D01*
X0018929Y0126320D01*
X0018777Y0126306D01*
X0018627Y0126289D01*
X0018477Y0126268D01*
X0018327Y0126243D01*
X0018178Y0126215D01*
X0018030Y0126182D01*
X0017883Y0126146D01*
X0017736Y0126107D01*
X0017591Y0126063D01*
X0017447Y0126016D01*
X0017304Y0125965D01*
X0017163Y0125911D01*
X0017022Y0125853D01*
X0016884Y0125792D01*
X0016747Y0125727D01*
X0016611Y0125658D01*
X0016478Y0125587D01*
X0016346Y0125512D01*
X0016216Y0125433D01*
X0016089Y0125352D01*
X0015963Y0125267D01*
X0015839Y0125179D01*
X0015718Y0125088D01*
X0015599Y0124994D01*
X0015483Y0124896D01*
X0015369Y0124796D01*
X0015257Y0124694D01*
X0015149Y0124588D01*
X0015043Y0124480D01*
X0014939Y0124369D01*
X0014839Y0124255D01*
X0014741Y0124139D01*
X0014647Y0124020D01*
X0019383Y0114337D02*
X0019533Y0114339D01*
X0019684Y0114345D01*
X0019834Y0114354D01*
X0019983Y0114367D01*
X0020133Y0114384D01*
X0020282Y0114405D01*
X0020430Y0114429D01*
X0020578Y0114457D01*
X0020725Y0114489D01*
X0020871Y0114524D01*
X0021016Y0114564D01*
X0021160Y0114606D01*
X0021303Y0114653D01*
X0021445Y0114703D01*
X0021586Y0114756D01*
X0021725Y0114813D01*
X0021863Y0114873D01*
X0021999Y0114937D01*
X0022133Y0115004D01*
X0022266Y0115075D01*
X0022397Y0115149D01*
X0022526Y0115226D01*
X0022653Y0115307D01*
X0022778Y0115390D01*
X0022901Y0115477D01*
X0023022Y0115566D01*
X0023140Y0115659D01*
X0023256Y0115755D01*
X0023370Y0115853D01*
X0023481Y0115954D01*
X0023590Y0116059D01*
X0023695Y0116165D01*
X0023799Y0116275D01*
X0023899Y0116387D01*
X0023997Y0116501D01*
X0024091Y0116618D01*
X0024183Y0116737D01*
X0047883Y0135337D02*
X0055383Y0135337D01*
X0055385Y0135211D01*
X0055391Y0135086D01*
X0055401Y0134961D01*
X0055415Y0134836D01*
X0055432Y0134711D01*
X0055454Y0134587D01*
X0055479Y0134464D01*
X0055509Y0134342D01*
X0055542Y0134221D01*
X0055579Y0134101D01*
X0055619Y0133982D01*
X0055664Y0133865D01*
X0055712Y0133748D01*
X0055764Y0133634D01*
X0055819Y0133521D01*
X0055878Y0133410D01*
X0055940Y0133301D01*
X0056006Y0133194D01*
X0056075Y0133089D01*
X0056147Y0132986D01*
X0056222Y0132885D01*
X0056301Y0132787D01*
X0056383Y0132692D01*
X0056467Y0132599D01*
X0056555Y0132509D01*
X0056645Y0132421D01*
X0056738Y0132337D01*
X0056833Y0132255D01*
X0056931Y0132176D01*
X0057032Y0132101D01*
X0057135Y0132029D01*
X0057240Y0131960D01*
X0057347Y0131894D01*
X0057456Y0131832D01*
X0057567Y0131773D01*
X0057680Y0131718D01*
X0057794Y0131666D01*
X0057911Y0131618D01*
X0058028Y0131573D01*
X0058147Y0131533D01*
X0058267Y0131496D01*
X0058388Y0131463D01*
X0058510Y0131433D01*
X0058633Y0131408D01*
X0058757Y0131386D01*
X0058882Y0131369D01*
X0059007Y0131355D01*
X0059132Y0131345D01*
X0059257Y0131339D01*
X0059383Y0131337D01*
X0059509Y0131339D01*
X0059634Y0131345D01*
X0059759Y0131355D01*
X0059884Y0131369D01*
X0060009Y0131386D01*
X0060133Y0131408D01*
X0060256Y0131433D01*
X0060378Y0131463D01*
X0060499Y0131496D01*
X0060619Y0131533D01*
X0060738Y0131573D01*
X0060855Y0131618D01*
X0060972Y0131666D01*
X0061086Y0131718D01*
X0061199Y0131773D01*
X0061310Y0131832D01*
X0061419Y0131894D01*
X0061526Y0131960D01*
X0061631Y0132029D01*
X0061734Y0132101D01*
X0061835Y0132176D01*
X0061933Y0132255D01*
X0062028Y0132337D01*
X0062121Y0132421D01*
X0062211Y0132509D01*
X0062299Y0132599D01*
X0062383Y0132692D01*
X0062465Y0132787D01*
X0062544Y0132885D01*
X0062619Y0132986D01*
X0062691Y0133089D01*
X0062760Y0133194D01*
X0062826Y0133301D01*
X0062888Y0133410D01*
X0062947Y0133521D01*
X0063002Y0133634D01*
X0063054Y0133748D01*
X0063102Y0133865D01*
X0063147Y0133982D01*
X0063187Y0134101D01*
X0063224Y0134221D01*
X0063257Y0134342D01*
X0063287Y0134464D01*
X0063312Y0134587D01*
X0063334Y0134711D01*
X0063351Y0134836D01*
X0063365Y0134961D01*
X0063375Y0135086D01*
X0063381Y0135211D01*
X0063383Y0135337D01*
X0070883Y0135337D01*
X0070883Y0065337D01*
X0047883Y0065337D01*
X0047883Y0135337D01*
X0081883Y0109337D02*
X0081883Y0101337D01*
X0081885Y0101277D01*
X0081890Y0101216D01*
X0081899Y0101157D01*
X0081912Y0101098D01*
X0081928Y0101039D01*
X0081948Y0100982D01*
X0081971Y0100927D01*
X0081998Y0100872D01*
X0082027Y0100820D01*
X0082060Y0100769D01*
X0082096Y0100720D01*
X0082134Y0100674D01*
X0082176Y0100630D01*
X0082220Y0100588D01*
X0082266Y0100550D01*
X0082315Y0100514D01*
X0082366Y0100481D01*
X0082418Y0100452D01*
X0082473Y0100425D01*
X0082528Y0100402D01*
X0082585Y0100382D01*
X0082644Y0100366D01*
X0082703Y0100353D01*
X0082762Y0100344D01*
X0082823Y0100339D01*
X0082883Y0100337D01*
X0085883Y0100337D01*
X0085943Y0100339D01*
X0086004Y0100344D01*
X0086063Y0100353D01*
X0086122Y0100366D01*
X0086181Y0100382D01*
X0086238Y0100402D01*
X0086293Y0100425D01*
X0086348Y0100452D01*
X0086400Y0100481D01*
X0086451Y0100514D01*
X0086500Y0100550D01*
X0086546Y0100588D01*
X0086590Y0100630D01*
X0086632Y0100674D01*
X0086670Y0100720D01*
X0086706Y0100769D01*
X0086739Y0100820D01*
X0086768Y0100872D01*
X0086795Y0100927D01*
X0086818Y0100982D01*
X0086838Y0101039D01*
X0086854Y0101098D01*
X0086867Y0101157D01*
X0086876Y0101216D01*
X0086881Y0101277D01*
X0086883Y0101337D01*
X0086883Y0109337D01*
X0086881Y0109397D01*
X0086876Y0109458D01*
X0086867Y0109517D01*
X0086854Y0109576D01*
X0086838Y0109635D01*
X0086818Y0109692D01*
X0086795Y0109747D01*
X0086768Y0109802D01*
X0086739Y0109854D01*
X0086706Y0109905D01*
X0086670Y0109954D01*
X0086632Y0110000D01*
X0086590Y0110044D01*
X0086546Y0110086D01*
X0086500Y0110124D01*
X0086451Y0110160D01*
X0086400Y0110193D01*
X0086348Y0110222D01*
X0086293Y0110249D01*
X0086238Y0110272D01*
X0086181Y0110292D01*
X0086122Y0110308D01*
X0086063Y0110321D01*
X0086004Y0110330D01*
X0085943Y0110335D01*
X0085883Y0110337D01*
X0082883Y0110337D01*
X0082823Y0110335D01*
X0082762Y0110330D01*
X0082703Y0110321D01*
X0082644Y0110308D01*
X0082585Y0110292D01*
X0082528Y0110272D01*
X0082473Y0110249D01*
X0082418Y0110222D01*
X0082366Y0110193D01*
X0082315Y0110160D01*
X0082266Y0110124D01*
X0082220Y0110086D01*
X0082176Y0110044D01*
X0082134Y0110000D01*
X0082096Y0109954D01*
X0082060Y0109905D01*
X0082027Y0109854D01*
X0081998Y0109802D01*
X0081971Y0109747D01*
X0081948Y0109692D01*
X0081928Y0109635D01*
X0081912Y0109576D01*
X0081899Y0109517D01*
X0081890Y0109458D01*
X0081885Y0109397D01*
X0081883Y0109337D01*
X0081885Y0109397D01*
X0081890Y0109458D01*
X0081899Y0109517D01*
X0081912Y0109576D01*
X0081928Y0109635D01*
X0081948Y0109692D01*
X0081971Y0109747D01*
X0081998Y0109802D01*
X0082027Y0109854D01*
X0082060Y0109905D01*
X0082096Y0109954D01*
X0082134Y0110000D01*
X0082176Y0110044D01*
X0082220Y0110086D01*
X0082266Y0110124D01*
X0082315Y0110160D01*
X0082366Y0110193D01*
X0082418Y0110222D01*
X0082473Y0110249D01*
X0082528Y0110272D01*
X0082585Y0110292D01*
X0082644Y0110308D01*
X0082703Y0110321D01*
X0082762Y0110330D01*
X0082823Y0110335D01*
X0082883Y0110337D01*
X0085883Y0110337D02*
X0085943Y0110335D01*
X0086004Y0110330D01*
X0086063Y0110321D01*
X0086122Y0110308D01*
X0086181Y0110292D01*
X0086238Y0110272D01*
X0086293Y0110249D01*
X0086348Y0110222D01*
X0086400Y0110193D01*
X0086451Y0110160D01*
X0086500Y0110124D01*
X0086546Y0110086D01*
X0086590Y0110044D01*
X0086632Y0110000D01*
X0086670Y0109954D01*
X0086706Y0109905D01*
X0086739Y0109854D01*
X0086768Y0109802D01*
X0086795Y0109747D01*
X0086818Y0109692D01*
X0086838Y0109635D01*
X0086854Y0109576D01*
X0086867Y0109517D01*
X0086876Y0109458D01*
X0086881Y0109397D01*
X0086883Y0109337D01*
X0091883Y0109337D02*
X0091883Y0101337D01*
X0091885Y0101277D01*
X0091890Y0101216D01*
X0091899Y0101157D01*
X0091912Y0101098D01*
X0091928Y0101039D01*
X0091948Y0100982D01*
X0091971Y0100927D01*
X0091998Y0100872D01*
X0092027Y0100820D01*
X0092060Y0100769D01*
X0092096Y0100720D01*
X0092134Y0100674D01*
X0092176Y0100630D01*
X0092220Y0100588D01*
X0092266Y0100550D01*
X0092315Y0100514D01*
X0092366Y0100481D01*
X0092418Y0100452D01*
X0092473Y0100425D01*
X0092528Y0100402D01*
X0092585Y0100382D01*
X0092644Y0100366D01*
X0092703Y0100353D01*
X0092762Y0100344D01*
X0092823Y0100339D01*
X0092883Y0100337D01*
X0095883Y0100337D01*
X0095943Y0100339D01*
X0096004Y0100344D01*
X0096063Y0100353D01*
X0096122Y0100366D01*
X0096181Y0100382D01*
X0096238Y0100402D01*
X0096293Y0100425D01*
X0096348Y0100452D01*
X0096400Y0100481D01*
X0096451Y0100514D01*
X0096500Y0100550D01*
X0096546Y0100588D01*
X0096590Y0100630D01*
X0096632Y0100674D01*
X0096670Y0100720D01*
X0096706Y0100769D01*
X0096739Y0100820D01*
X0096768Y0100872D01*
X0096795Y0100927D01*
X0096818Y0100982D01*
X0096838Y0101039D01*
X0096854Y0101098D01*
X0096867Y0101157D01*
X0096876Y0101216D01*
X0096881Y0101277D01*
X0096883Y0101337D01*
X0096883Y0109337D01*
X0096881Y0109397D01*
X0096876Y0109458D01*
X0096867Y0109517D01*
X0096854Y0109576D01*
X0096838Y0109635D01*
X0096818Y0109692D01*
X0096795Y0109747D01*
X0096768Y0109802D01*
X0096739Y0109854D01*
X0096706Y0109905D01*
X0096670Y0109954D01*
X0096632Y0110000D01*
X0096590Y0110044D01*
X0096546Y0110086D01*
X0096500Y0110124D01*
X0096451Y0110160D01*
X0096400Y0110193D01*
X0096348Y0110222D01*
X0096293Y0110249D01*
X0096238Y0110272D01*
X0096181Y0110292D01*
X0096122Y0110308D01*
X0096063Y0110321D01*
X0096004Y0110330D01*
X0095943Y0110335D01*
X0095883Y0110337D01*
X0092883Y0110337D01*
X0092823Y0110335D01*
X0092762Y0110330D01*
X0092703Y0110321D01*
X0092644Y0110308D01*
X0092585Y0110292D01*
X0092528Y0110272D01*
X0092473Y0110249D01*
X0092418Y0110222D01*
X0092366Y0110193D01*
X0092315Y0110160D01*
X0092266Y0110124D01*
X0092220Y0110086D01*
X0092176Y0110044D01*
X0092134Y0110000D01*
X0092096Y0109954D01*
X0092060Y0109905D01*
X0092027Y0109854D01*
X0091998Y0109802D01*
X0091971Y0109747D01*
X0091948Y0109692D01*
X0091928Y0109635D01*
X0091912Y0109576D01*
X0091899Y0109517D01*
X0091890Y0109458D01*
X0091885Y0109397D01*
X0091883Y0109337D01*
X0091885Y0109397D01*
X0091890Y0109458D01*
X0091899Y0109517D01*
X0091912Y0109576D01*
X0091928Y0109635D01*
X0091948Y0109692D01*
X0091971Y0109747D01*
X0091998Y0109802D01*
X0092027Y0109854D01*
X0092060Y0109905D01*
X0092096Y0109954D01*
X0092134Y0110000D01*
X0092176Y0110044D01*
X0092220Y0110086D01*
X0092266Y0110124D01*
X0092315Y0110160D01*
X0092366Y0110193D01*
X0092418Y0110222D01*
X0092473Y0110249D01*
X0092528Y0110272D01*
X0092585Y0110292D01*
X0092644Y0110308D01*
X0092703Y0110321D01*
X0092762Y0110330D01*
X0092823Y0110335D01*
X0092883Y0110337D01*
X0095883Y0110337D02*
X0095943Y0110335D01*
X0096004Y0110330D01*
X0096063Y0110321D01*
X0096122Y0110308D01*
X0096181Y0110292D01*
X0096238Y0110272D01*
X0096293Y0110249D01*
X0096348Y0110222D01*
X0096400Y0110193D01*
X0096451Y0110160D01*
X0096500Y0110124D01*
X0096546Y0110086D01*
X0096590Y0110044D01*
X0096632Y0110000D01*
X0096670Y0109954D01*
X0096706Y0109905D01*
X0096739Y0109854D01*
X0096768Y0109802D01*
X0096795Y0109747D01*
X0096818Y0109692D01*
X0096838Y0109635D01*
X0096854Y0109576D01*
X0096867Y0109517D01*
X0096876Y0109458D01*
X0096881Y0109397D01*
X0096883Y0109337D01*
X0096883Y0101337D02*
X0096881Y0101277D01*
X0096876Y0101216D01*
X0096867Y0101157D01*
X0096854Y0101098D01*
X0096838Y0101039D01*
X0096818Y0100982D01*
X0096795Y0100927D01*
X0096768Y0100872D01*
X0096739Y0100820D01*
X0096706Y0100769D01*
X0096670Y0100720D01*
X0096632Y0100674D01*
X0096590Y0100630D01*
X0096546Y0100588D01*
X0096500Y0100550D01*
X0096451Y0100514D01*
X0096400Y0100481D01*
X0096348Y0100452D01*
X0096293Y0100425D01*
X0096238Y0100402D01*
X0096181Y0100382D01*
X0096122Y0100366D01*
X0096063Y0100353D01*
X0096004Y0100344D01*
X0095943Y0100339D01*
X0095883Y0100337D01*
X0092883Y0100337D02*
X0092823Y0100339D01*
X0092762Y0100344D01*
X0092703Y0100353D01*
X0092644Y0100366D01*
X0092585Y0100382D01*
X0092528Y0100402D01*
X0092473Y0100425D01*
X0092418Y0100452D01*
X0092366Y0100481D01*
X0092315Y0100514D01*
X0092266Y0100550D01*
X0092220Y0100588D01*
X0092176Y0100630D01*
X0092134Y0100674D01*
X0092096Y0100720D01*
X0092060Y0100769D01*
X0092027Y0100820D01*
X0091998Y0100872D01*
X0091971Y0100927D01*
X0091948Y0100982D01*
X0091928Y0101039D01*
X0091912Y0101098D01*
X0091899Y0101157D01*
X0091890Y0101216D01*
X0091885Y0101277D01*
X0091883Y0101337D01*
X0086883Y0101337D02*
X0086881Y0101277D01*
X0086876Y0101216D01*
X0086867Y0101157D01*
X0086854Y0101098D01*
X0086838Y0101039D01*
X0086818Y0100982D01*
X0086795Y0100927D01*
X0086768Y0100872D01*
X0086739Y0100820D01*
X0086706Y0100769D01*
X0086670Y0100720D01*
X0086632Y0100674D01*
X0086590Y0100630D01*
X0086546Y0100588D01*
X0086500Y0100550D01*
X0086451Y0100514D01*
X0086400Y0100481D01*
X0086348Y0100452D01*
X0086293Y0100425D01*
X0086238Y0100402D01*
X0086181Y0100382D01*
X0086122Y0100366D01*
X0086063Y0100353D01*
X0086004Y0100344D01*
X0085943Y0100339D01*
X0085883Y0100337D01*
X0082883Y0100337D02*
X0082823Y0100339D01*
X0082762Y0100344D01*
X0082703Y0100353D01*
X0082644Y0100366D01*
X0082585Y0100382D01*
X0082528Y0100402D01*
X0082473Y0100425D01*
X0082418Y0100452D01*
X0082366Y0100481D01*
X0082315Y0100514D01*
X0082266Y0100550D01*
X0082220Y0100588D01*
X0082176Y0100630D01*
X0082134Y0100674D01*
X0082096Y0100720D01*
X0082060Y0100769D01*
X0082027Y0100820D01*
X0081998Y0100872D01*
X0081971Y0100927D01*
X0081948Y0100982D01*
X0081928Y0101039D01*
X0081912Y0101098D01*
X0081899Y0101157D01*
X0081890Y0101216D01*
X0081885Y0101277D01*
X0081883Y0101337D01*
X0089883Y0076837D02*
X0089883Y0063837D01*
X0089885Y0063750D01*
X0089891Y0063663D01*
X0089900Y0063576D01*
X0089913Y0063490D01*
X0089930Y0063404D01*
X0089951Y0063319D01*
X0089976Y0063236D01*
X0090004Y0063153D01*
X0090035Y0063072D01*
X0090070Y0062992D01*
X0090109Y0062914D01*
X0090151Y0062837D01*
X0090196Y0062762D01*
X0090245Y0062690D01*
X0090296Y0062619D01*
X0090351Y0062551D01*
X0090408Y0062486D01*
X0090469Y0062423D01*
X0090532Y0062362D01*
X0090597Y0062305D01*
X0090665Y0062250D01*
X0090736Y0062199D01*
X0090808Y0062150D01*
X0090883Y0062105D01*
X0090960Y0062063D01*
X0091038Y0062024D01*
X0091118Y0061989D01*
X0091199Y0061958D01*
X0091282Y0061930D01*
X0091365Y0061905D01*
X0091450Y0061884D01*
X0091536Y0061867D01*
X0091622Y0061854D01*
X0091709Y0061845D01*
X0091796Y0061839D01*
X0091883Y0061837D01*
X0094383Y0065337D02*
X0094383Y0069037D01*
X0094383Y0071537D02*
X0094383Y0075337D01*
X0096883Y0078837D02*
X0096970Y0078835D01*
X0097057Y0078829D01*
X0097144Y0078820D01*
X0097230Y0078807D01*
X0097316Y0078790D01*
X0097401Y0078769D01*
X0097484Y0078744D01*
X0097567Y0078716D01*
X0097648Y0078685D01*
X0097728Y0078650D01*
X0097806Y0078611D01*
X0097883Y0078569D01*
X0097958Y0078524D01*
X0098030Y0078475D01*
X0098101Y0078424D01*
X0098169Y0078369D01*
X0098234Y0078312D01*
X0098297Y0078251D01*
X0098358Y0078188D01*
X0098415Y0078123D01*
X0098470Y0078055D01*
X0098521Y0077984D01*
X0098570Y0077912D01*
X0098615Y0077837D01*
X0098657Y0077760D01*
X0098696Y0077682D01*
X0098731Y0077602D01*
X0098762Y0077521D01*
X0098790Y0077438D01*
X0098815Y0077355D01*
X0098836Y0077270D01*
X0098853Y0077184D01*
X0098866Y0077098D01*
X0098875Y0077011D01*
X0098881Y0076924D01*
X0098883Y0076837D01*
X0098883Y0063837D01*
X0098881Y0063750D01*
X0098875Y0063663D01*
X0098866Y0063576D01*
X0098853Y0063490D01*
X0098836Y0063404D01*
X0098815Y0063319D01*
X0098790Y0063236D01*
X0098762Y0063153D01*
X0098731Y0063072D01*
X0098696Y0062992D01*
X0098657Y0062914D01*
X0098615Y0062837D01*
X0098570Y0062762D01*
X0098521Y0062690D01*
X0098470Y0062619D01*
X0098415Y0062551D01*
X0098358Y0062486D01*
X0098297Y0062423D01*
X0098234Y0062362D01*
X0098169Y0062305D01*
X0098101Y0062250D01*
X0098030Y0062199D01*
X0097958Y0062150D01*
X0097883Y0062105D01*
X0097806Y0062063D01*
X0097728Y0062024D01*
X0097648Y0061989D01*
X0097567Y0061958D01*
X0097484Y0061930D01*
X0097401Y0061905D01*
X0097316Y0061884D01*
X0097230Y0061867D01*
X0097144Y0061854D01*
X0097057Y0061845D01*
X0096970Y0061839D01*
X0096883Y0061837D01*
X0089883Y0076837D02*
X0089885Y0076924D01*
X0089891Y0077011D01*
X0089900Y0077098D01*
X0089913Y0077184D01*
X0089930Y0077270D01*
X0089951Y0077355D01*
X0089976Y0077438D01*
X0090004Y0077521D01*
X0090035Y0077602D01*
X0090070Y0077682D01*
X0090109Y0077760D01*
X0090151Y0077837D01*
X0090196Y0077912D01*
X0090245Y0077984D01*
X0090296Y0078055D01*
X0090351Y0078123D01*
X0090408Y0078188D01*
X0090469Y0078251D01*
X0090532Y0078312D01*
X0090597Y0078369D01*
X0090665Y0078424D01*
X0090736Y0078475D01*
X0090808Y0078524D01*
X0090883Y0078569D01*
X0090960Y0078611D01*
X0091038Y0078650D01*
X0091118Y0078685D01*
X0091199Y0078716D01*
X0091282Y0078744D01*
X0091365Y0078769D01*
X0091450Y0078790D01*
X0091536Y0078807D01*
X0091622Y0078820D01*
X0091709Y0078829D01*
X0091796Y0078835D01*
X0091883Y0078837D01*
X0054383Y0051837D02*
X0054383Y0048837D01*
X0054381Y0048777D01*
X0054376Y0048716D01*
X0054367Y0048657D01*
X0054354Y0048598D01*
X0054338Y0048539D01*
X0054318Y0048482D01*
X0054295Y0048427D01*
X0054268Y0048372D01*
X0054239Y0048320D01*
X0054206Y0048269D01*
X0054170Y0048220D01*
X0054132Y0048174D01*
X0054090Y0048130D01*
X0054046Y0048088D01*
X0054000Y0048050D01*
X0053951Y0048014D01*
X0053900Y0047981D01*
X0053848Y0047952D01*
X0053793Y0047925D01*
X0053738Y0047902D01*
X0053681Y0047882D01*
X0053622Y0047866D01*
X0053563Y0047853D01*
X0053504Y0047844D01*
X0053443Y0047839D01*
X0053383Y0047837D01*
X0045383Y0047837D01*
X0045323Y0047839D01*
X0045262Y0047844D01*
X0045203Y0047853D01*
X0045144Y0047866D01*
X0045085Y0047882D01*
X0045028Y0047902D01*
X0044973Y0047925D01*
X0044918Y0047952D01*
X0044866Y0047981D01*
X0044815Y0048014D01*
X0044766Y0048050D01*
X0044720Y0048088D01*
X0044676Y0048130D01*
X0044634Y0048174D01*
X0044596Y0048220D01*
X0044560Y0048269D01*
X0044527Y0048320D01*
X0044498Y0048372D01*
X0044471Y0048427D01*
X0044448Y0048482D01*
X0044428Y0048539D01*
X0044412Y0048598D01*
X0044399Y0048657D01*
X0044390Y0048716D01*
X0044385Y0048777D01*
X0044383Y0048837D01*
X0044383Y0051837D01*
X0044385Y0051897D01*
X0044390Y0051958D01*
X0044399Y0052017D01*
X0044412Y0052076D01*
X0044428Y0052135D01*
X0044448Y0052192D01*
X0044471Y0052247D01*
X0044498Y0052302D01*
X0044527Y0052354D01*
X0044560Y0052405D01*
X0044596Y0052454D01*
X0044634Y0052500D01*
X0044676Y0052544D01*
X0044720Y0052586D01*
X0044766Y0052624D01*
X0044815Y0052660D01*
X0044866Y0052693D01*
X0044918Y0052722D01*
X0044973Y0052749D01*
X0045028Y0052772D01*
X0045085Y0052792D01*
X0045144Y0052808D01*
X0045203Y0052821D01*
X0045262Y0052830D01*
X0045323Y0052835D01*
X0045383Y0052837D01*
X0053383Y0052837D01*
X0053443Y0052835D01*
X0053504Y0052830D01*
X0053563Y0052821D01*
X0053622Y0052808D01*
X0053681Y0052792D01*
X0053738Y0052772D01*
X0053793Y0052749D01*
X0053848Y0052722D01*
X0053900Y0052693D01*
X0053951Y0052660D01*
X0054000Y0052624D01*
X0054046Y0052586D01*
X0054090Y0052544D01*
X0054132Y0052500D01*
X0054170Y0052454D01*
X0054206Y0052405D01*
X0054239Y0052354D01*
X0054268Y0052302D01*
X0054295Y0052247D01*
X0054318Y0052192D01*
X0054338Y0052135D01*
X0054354Y0052076D01*
X0054367Y0052017D01*
X0054376Y0051958D01*
X0054381Y0051897D01*
X0054383Y0051837D01*
X0054381Y0051897D01*
X0054376Y0051958D01*
X0054367Y0052017D01*
X0054354Y0052076D01*
X0054338Y0052135D01*
X0054318Y0052192D01*
X0054295Y0052247D01*
X0054268Y0052302D01*
X0054239Y0052354D01*
X0054206Y0052405D01*
X0054170Y0052454D01*
X0054132Y0052500D01*
X0054090Y0052544D01*
X0054046Y0052586D01*
X0054000Y0052624D01*
X0053951Y0052660D01*
X0053900Y0052693D01*
X0053848Y0052722D01*
X0053793Y0052749D01*
X0053738Y0052772D01*
X0053681Y0052792D01*
X0053622Y0052808D01*
X0053563Y0052821D01*
X0053504Y0052830D01*
X0053443Y0052835D01*
X0053383Y0052837D01*
X0054383Y0048837D02*
X0054381Y0048777D01*
X0054376Y0048716D01*
X0054367Y0048657D01*
X0054354Y0048598D01*
X0054338Y0048539D01*
X0054318Y0048482D01*
X0054295Y0048427D01*
X0054268Y0048372D01*
X0054239Y0048320D01*
X0054206Y0048269D01*
X0054170Y0048220D01*
X0054132Y0048174D01*
X0054090Y0048130D01*
X0054046Y0048088D01*
X0054000Y0048050D01*
X0053951Y0048014D01*
X0053900Y0047981D01*
X0053848Y0047952D01*
X0053793Y0047925D01*
X0053738Y0047902D01*
X0053681Y0047882D01*
X0053622Y0047866D01*
X0053563Y0047853D01*
X0053504Y0047844D01*
X0053443Y0047839D01*
X0053383Y0047837D01*
X0045383Y0047837D02*
X0045323Y0047839D01*
X0045262Y0047844D01*
X0045203Y0047853D01*
X0045144Y0047866D01*
X0045085Y0047882D01*
X0045028Y0047902D01*
X0044973Y0047925D01*
X0044918Y0047952D01*
X0044866Y0047981D01*
X0044815Y0048014D01*
X0044766Y0048050D01*
X0044720Y0048088D01*
X0044676Y0048130D01*
X0044634Y0048174D01*
X0044596Y0048220D01*
X0044560Y0048269D01*
X0044527Y0048320D01*
X0044498Y0048372D01*
X0044471Y0048427D01*
X0044448Y0048482D01*
X0044428Y0048539D01*
X0044412Y0048598D01*
X0044399Y0048657D01*
X0044390Y0048716D01*
X0044385Y0048777D01*
X0044383Y0048837D01*
X0044383Y0051837D02*
X0044385Y0051897D01*
X0044390Y0051958D01*
X0044399Y0052017D01*
X0044412Y0052076D01*
X0044428Y0052135D01*
X0044448Y0052192D01*
X0044471Y0052247D01*
X0044498Y0052302D01*
X0044527Y0052354D01*
X0044560Y0052405D01*
X0044596Y0052454D01*
X0044634Y0052500D01*
X0044676Y0052544D01*
X0044720Y0052586D01*
X0044766Y0052624D01*
X0044815Y0052660D01*
X0044866Y0052693D01*
X0044918Y0052722D01*
X0044973Y0052749D01*
X0045028Y0052772D01*
X0045085Y0052792D01*
X0045144Y0052808D01*
X0045203Y0052821D01*
X0045262Y0052830D01*
X0045323Y0052835D01*
X0045383Y0052837D01*
D11*
X0091383Y0069037D02*
X0094383Y0069037D01*
X0097383Y0069037D01*
X0097383Y0071537D02*
X0094383Y0071537D01*
X0091383Y0071537D01*
D12*
X0085883Y0065587D02*
X0084383Y0065587D01*
X0082883Y0065587D01*
X0084383Y0065587D02*
X0084383Y0066587D01*
X0084383Y0065587D02*
X0085883Y0062837D01*
X0082883Y0062837D01*
X0084383Y0065587D01*
X0084383Y0061837D01*
X0082661Y0061189D02*
X0082661Y0058287D01*
X0083628Y0058287D02*
X0081693Y0058287D01*
X0081693Y0060222D02*
X0082661Y0061189D01*
X0085123Y0059738D02*
X0085123Y0058771D01*
X0085123Y0057803D01*
X0084640Y0057320D01*
X0085607Y0058287D02*
X0085123Y0058771D01*
X0085607Y0058287D02*
X0086091Y0058287D01*
X0086575Y0058771D01*
X0086575Y0059738D01*
X0087586Y0059738D02*
X0088554Y0059738D01*
X0087586Y0058287D02*
X0087586Y0061189D01*
X0089521Y0061189D01*
X0085751Y0052690D02*
X0084516Y0052690D01*
X0083899Y0052073D01*
X0083899Y0049604D01*
X0086368Y0052073D01*
X0086368Y0049604D01*
X0085751Y0048987D01*
X0084516Y0048987D01*
X0083899Y0049604D01*
X0082685Y0048987D02*
X0080216Y0048987D01*
X0082685Y0051456D01*
X0082685Y0052073D01*
X0082067Y0052690D01*
X0080833Y0052690D01*
X0080216Y0052073D01*
X0079002Y0052073D02*
X0079002Y0050839D01*
X0078384Y0050221D01*
X0076533Y0050221D01*
X0076533Y0048987D02*
X0076533Y0052690D01*
X0078384Y0052690D01*
X0079002Y0052073D01*
X0077767Y0050221D02*
X0079002Y0048987D01*
X0085751Y0052690D02*
X0086368Y0052073D01*
X0102883Y0065087D02*
X0104383Y0065087D01*
X0105883Y0065087D01*
X0104383Y0065087D02*
X0104383Y0068837D01*
X0102883Y0067837D02*
X0105883Y0067837D01*
X0104383Y0065087D01*
X0102883Y0067837D01*
X0104383Y0065087D02*
X0104383Y0064087D01*
X0106500Y0057689D02*
X0106500Y0054787D01*
X0105533Y0054787D02*
X0107468Y0054787D01*
X0108479Y0054787D02*
X0108479Y0057689D01*
X0110414Y0054787D01*
X0110414Y0057689D01*
X0111426Y0056238D02*
X0113361Y0056238D01*
X0114372Y0056722D02*
X0115340Y0057689D01*
X0115340Y0054787D01*
X0116307Y0054787D02*
X0114372Y0054787D01*
X0112877Y0054787D02*
X0112877Y0057689D01*
X0111426Y0056238D01*
X0106500Y0057689D02*
X0105533Y0056722D01*
X0117319Y0056238D02*
X0119254Y0056238D01*
X0120265Y0055754D02*
X0120265Y0055271D01*
X0120749Y0054787D01*
X0121717Y0054787D01*
X0122200Y0055271D01*
X0122200Y0055754D01*
X0121717Y0056238D01*
X0120749Y0056238D01*
X0120265Y0056722D01*
X0120265Y0057206D01*
X0120749Y0057689D01*
X0121717Y0057689D01*
X0122200Y0057206D01*
X0122200Y0056722D01*
X0121717Y0056238D01*
X0120749Y0056238D02*
X0120265Y0055754D01*
X0118770Y0054787D02*
X0118770Y0057689D01*
X0117319Y0056238D01*
X0089318Y0080104D02*
X0089318Y0082573D01*
X0088701Y0083190D01*
X0087467Y0083190D01*
X0086850Y0082573D01*
X0086850Y0081956D01*
X0087467Y0081339D01*
X0089318Y0081339D01*
X0089318Y0080104D02*
X0088701Y0079487D01*
X0087467Y0079487D01*
X0086850Y0080104D01*
X0085635Y0080104D02*
X0085018Y0079487D01*
X0083784Y0079487D01*
X0083166Y0080104D01*
X0083166Y0082573D01*
X0083784Y0083190D01*
X0085018Y0083190D01*
X0085635Y0082573D01*
X0082037Y0075889D02*
X0081070Y0075889D01*
X0080586Y0075406D01*
X0080586Y0074922D01*
X0081070Y0074438D01*
X0082037Y0074438D01*
X0082521Y0073954D01*
X0082521Y0073471D01*
X0082037Y0072987D01*
X0081070Y0072987D01*
X0080586Y0073471D01*
X0080586Y0073954D01*
X0081070Y0074438D01*
X0082037Y0074438D02*
X0082521Y0074922D01*
X0082521Y0075406D01*
X0082037Y0075889D01*
X0079575Y0074438D02*
X0077640Y0074438D01*
X0079091Y0075889D01*
X0079091Y0072987D01*
X0076628Y0072987D02*
X0074693Y0072987D01*
X0075661Y0072987D02*
X0075661Y0075889D01*
X0074693Y0074922D01*
X0073682Y0074438D02*
X0071747Y0074438D01*
X0073198Y0075889D01*
X0073198Y0072987D01*
X0070735Y0072987D02*
X0070735Y0075889D01*
X0068800Y0075889D02*
X0070735Y0072987D01*
X0068800Y0072987D02*
X0068800Y0075889D01*
X0066821Y0075889D02*
X0066821Y0072987D01*
X0065854Y0072987D02*
X0067789Y0072987D01*
X0065854Y0074922D02*
X0066821Y0075889D01*
X0069291Y0094787D02*
X0071226Y0094787D01*
X0070259Y0094787D02*
X0070259Y0097689D01*
X0069291Y0096722D01*
X0072238Y0097206D02*
X0072238Y0095271D01*
X0074173Y0097206D01*
X0074173Y0095271D01*
X0073689Y0094787D01*
X0072722Y0094787D01*
X0072238Y0095271D01*
X0072238Y0097206D02*
X0072722Y0097689D01*
X0073689Y0097689D01*
X0074173Y0097206D01*
X0075184Y0097206D02*
X0075184Y0095271D01*
X0077119Y0097206D01*
X0077119Y0095271D01*
X0076636Y0094787D01*
X0075668Y0094787D01*
X0075184Y0095271D01*
X0075184Y0097206D02*
X0075668Y0097689D01*
X0076636Y0097689D01*
X0077119Y0097206D01*
X0078131Y0097689D02*
X0078131Y0094787D01*
X0078131Y0095754D02*
X0079582Y0096722D01*
X0080586Y0096238D02*
X0081070Y0095754D01*
X0081070Y0094787D01*
X0080586Y0094787D01*
X0079582Y0094787D02*
X0078131Y0095754D01*
X0080586Y0096238D02*
X0080586Y0097206D01*
X0081070Y0097689D01*
X0082037Y0097689D01*
X0082521Y0097206D01*
X0082521Y0096238D01*
X0082037Y0095754D01*
X0082037Y0094787D01*
X0082521Y0094787D01*
X0095533Y0112987D02*
X0097468Y0112987D01*
X0096500Y0112987D02*
X0096500Y0115889D01*
X0095533Y0114922D01*
X0098479Y0115406D02*
X0098479Y0113471D01*
X0100414Y0115406D01*
X0100414Y0113471D01*
X0099931Y0112987D01*
X0098963Y0112987D01*
X0098479Y0113471D01*
X0098479Y0115406D02*
X0098963Y0115889D01*
X0099931Y0115889D01*
X0100414Y0115406D01*
X0101426Y0115406D02*
X0101426Y0113471D01*
X0103361Y0115406D01*
X0103361Y0113471D01*
X0102877Y0112987D01*
X0101910Y0112987D01*
X0101426Y0113471D01*
X0101426Y0115406D02*
X0101910Y0115889D01*
X0102877Y0115889D01*
X0103361Y0115406D01*
X0104372Y0115889D02*
X0104372Y0112987D01*
X0104372Y0113954D02*
X0105824Y0114922D01*
X0106828Y0115406D02*
X0107311Y0115889D01*
X0108279Y0115889D01*
X0108763Y0115406D01*
X0108763Y0114438D01*
X0108279Y0113954D01*
X0108279Y0112987D01*
X0108763Y0112987D01*
X0107311Y0112987D02*
X0107311Y0113954D01*
X0106828Y0114438D01*
X0106828Y0115406D01*
X0106828Y0112987D02*
X0107311Y0112987D01*
X0105824Y0112987D02*
X0104372Y0113954D01*
X0090086Y0134037D02*
X0090086Y0136939D01*
X0092021Y0136939D01*
X0091054Y0135488D02*
X0090086Y0135488D01*
X0089075Y0135488D02*
X0089075Y0134037D01*
X0089075Y0135488D02*
X0088591Y0135972D01*
X0087140Y0135972D01*
X0087140Y0134037D01*
X0086128Y0134521D02*
X0085644Y0134037D01*
X0084677Y0134037D01*
X0084193Y0134521D01*
X0086128Y0136456D01*
X0086128Y0134521D01*
X0084193Y0134521D02*
X0084193Y0136456D01*
X0084677Y0136939D01*
X0085644Y0136939D01*
X0086128Y0136456D01*
X0083182Y0136456D02*
X0083182Y0134521D01*
X0082698Y0134037D01*
X0081730Y0134037D01*
X0081247Y0134521D01*
X0083182Y0136456D01*
X0082698Y0136939D01*
X0081730Y0136939D01*
X0081247Y0136456D01*
X0081247Y0134521D01*
X0080235Y0134037D02*
X0078300Y0134037D01*
X0079268Y0134037D02*
X0079268Y0136939D01*
X0078300Y0135972D01*
X0078884Y0143737D02*
X0077650Y0143737D01*
X0077033Y0144354D01*
X0077033Y0146823D01*
X0077650Y0147440D01*
X0078884Y0147440D01*
X0079502Y0146823D01*
X0080716Y0146206D02*
X0081950Y0147440D01*
X0081950Y0143737D01*
X0080716Y0143737D02*
X0083185Y0143737D01*
X0084399Y0143737D02*
X0086868Y0143737D01*
X0085633Y0143737D02*
X0085633Y0147440D01*
X0084399Y0146206D01*
X0079502Y0144354D02*
X0078884Y0143737D01*
X0065404Y0101789D02*
X0063953Y0100338D01*
X0065888Y0100338D01*
X0065404Y0098887D02*
X0065404Y0101789D01*
X0062941Y0101306D02*
X0062457Y0101789D01*
X0061490Y0101789D01*
X0061006Y0101306D01*
X0059994Y0101306D02*
X0059994Y0100822D01*
X0059511Y0100338D01*
X0059994Y0099854D01*
X0059994Y0099371D01*
X0059511Y0098887D01*
X0058543Y0098887D01*
X0058059Y0099371D01*
X0057048Y0098887D02*
X0057048Y0101789D01*
X0056080Y0100822D01*
X0055113Y0101789D01*
X0055113Y0098887D01*
X0054101Y0098887D02*
X0052166Y0098887D01*
X0052166Y0101789D01*
X0058059Y0101306D02*
X0058543Y0101789D01*
X0059511Y0101789D01*
X0059994Y0101306D01*
X0059511Y0100338D02*
X0059027Y0100338D01*
X0061006Y0098887D02*
X0062941Y0100822D01*
X0062941Y0101306D01*
X0062941Y0098887D02*
X0061006Y0098887D01*
X0045816Y0095406D02*
X0045816Y0094438D01*
X0045332Y0093954D01*
X0045332Y0092987D01*
X0045816Y0092987D01*
X0044365Y0092987D02*
X0044365Y0093954D01*
X0043881Y0094438D01*
X0043881Y0095406D01*
X0044365Y0095889D01*
X0045332Y0095889D01*
X0045816Y0095406D01*
X0044365Y0092987D02*
X0043881Y0092987D01*
X0042877Y0092987D02*
X0041426Y0093954D01*
X0042877Y0094922D01*
X0041426Y0095889D02*
X0041426Y0092987D01*
X0040414Y0095406D02*
X0038479Y0093471D01*
X0038479Y0092987D01*
X0036984Y0092987D02*
X0036984Y0095889D01*
X0035533Y0094438D01*
X0037468Y0094438D01*
X0038479Y0095889D02*
X0040414Y0095889D01*
X0040414Y0095406D01*
X0036807Y0108987D02*
X0034872Y0108987D01*
X0036807Y0110922D01*
X0036807Y0111406D01*
X0036324Y0111889D01*
X0035356Y0111889D01*
X0034872Y0111406D01*
X0033861Y0111406D02*
X0033861Y0109471D01*
X0033377Y0108987D01*
X0031926Y0108987D01*
X0031926Y0111889D01*
X0033377Y0111889D01*
X0033861Y0111406D01*
X0030914Y0111889D02*
X0028979Y0111889D01*
X0028979Y0108987D01*
X0030914Y0108987D01*
X0029947Y0110438D02*
X0028979Y0110438D01*
X0027968Y0108987D02*
X0026033Y0108987D01*
X0026033Y0111889D01*
X0027033Y0128987D02*
X0028968Y0128987D01*
X0029979Y0128987D02*
X0029979Y0131889D01*
X0031914Y0131889D01*
X0032926Y0131889D02*
X0034377Y0131889D01*
X0034861Y0131406D01*
X0034861Y0129471D01*
X0034377Y0128987D01*
X0032926Y0128987D01*
X0032926Y0131889D01*
X0030947Y0130438D02*
X0029979Y0130438D01*
X0029979Y0128987D02*
X0031914Y0128987D01*
X0035872Y0128987D02*
X0037807Y0128987D01*
X0036840Y0128987D02*
X0036840Y0131889D01*
X0035872Y0130922D01*
X0027033Y0131889D02*
X0027033Y0128987D01*
X0026984Y0065889D02*
X0025533Y0064438D01*
X0027468Y0064438D01*
X0028479Y0063471D02*
X0028963Y0063471D01*
X0028963Y0062987D01*
X0028479Y0062987D01*
X0028479Y0063471D01*
X0029953Y0063471D02*
X0029953Y0062987D01*
X0029953Y0063471D02*
X0031888Y0065406D01*
X0031888Y0065889D01*
X0029953Y0065889D01*
X0032899Y0065889D02*
X0032899Y0062987D01*
X0032899Y0063954D02*
X0034350Y0064922D01*
X0035354Y0064438D02*
X0035354Y0065406D01*
X0035838Y0065889D01*
X0036806Y0065889D01*
X0037289Y0065406D01*
X0037289Y0064438D01*
X0036806Y0063954D01*
X0036806Y0062987D01*
X0037289Y0062987D01*
X0035838Y0062987D02*
X0035838Y0063954D01*
X0035354Y0064438D01*
X0035354Y0062987D02*
X0035838Y0062987D01*
X0034350Y0062987D02*
X0032899Y0063954D01*
X0026984Y0062987D02*
X0026984Y0065889D01*
X0026533Y0052690D02*
X0028384Y0052690D01*
X0029002Y0052073D01*
X0029002Y0050839D01*
X0028384Y0050221D01*
X0026533Y0050221D01*
X0026533Y0048987D02*
X0026533Y0052690D01*
X0027767Y0050221D02*
X0029002Y0048987D01*
X0030216Y0048987D02*
X0032685Y0048987D01*
X0031450Y0048987D02*
X0031450Y0052690D01*
X0030216Y0051456D01*
X0033899Y0051456D02*
X0033899Y0052073D01*
X0034516Y0052690D01*
X0035751Y0052690D01*
X0036368Y0052073D01*
X0036368Y0051456D01*
X0035751Y0050839D01*
X0034516Y0050839D01*
X0033899Y0051456D01*
X0034516Y0050839D02*
X0033899Y0050221D01*
X0033899Y0049604D01*
X0034516Y0048987D01*
X0035751Y0048987D01*
X0036368Y0049604D01*
X0036368Y0050221D01*
X0035751Y0050839D01*
X0043149Y0050338D02*
X0045084Y0050338D01*
X0046095Y0049371D02*
X0046579Y0049371D01*
X0046579Y0048887D01*
X0046095Y0048887D01*
X0046095Y0049371D01*
X0047568Y0049371D02*
X0047568Y0048887D01*
X0047568Y0049371D02*
X0049503Y0051306D01*
X0049503Y0051789D01*
X0047568Y0051789D01*
X0050515Y0051789D02*
X0050515Y0048887D01*
X0050515Y0049854D02*
X0051966Y0050822D01*
X0052970Y0051306D02*
X0053454Y0051789D01*
X0054422Y0051789D01*
X0054905Y0051306D01*
X0054905Y0050338D01*
X0054422Y0049854D01*
X0054422Y0048887D01*
X0054905Y0048887D01*
X0053454Y0048887D02*
X0053454Y0049854D01*
X0052970Y0050338D01*
X0052970Y0051306D01*
X0052970Y0048887D02*
X0053454Y0048887D01*
X0051966Y0048887D02*
X0050515Y0049854D01*
X0044600Y0048887D02*
X0044600Y0051789D01*
X0043149Y0050338D01*
X0012521Y0054787D02*
X0012037Y0054787D01*
X0012037Y0055754D01*
X0012521Y0056238D01*
X0012521Y0057206D01*
X0012037Y0057689D01*
X0011070Y0057689D01*
X0010586Y0057206D01*
X0010586Y0056238D01*
X0011070Y0055754D01*
X0011070Y0054787D01*
X0010586Y0054787D01*
X0009582Y0054787D02*
X0008131Y0055754D01*
X0009582Y0056722D01*
X0008131Y0057689D02*
X0008131Y0054787D01*
X0007119Y0054787D02*
X0005184Y0054787D01*
X0006152Y0054787D02*
X0006152Y0057689D01*
X0005184Y0056722D01*
D13*
X0080883Y0137837D02*
X0087883Y0137837D01*
X0087981Y0137839D01*
X0088079Y0137845D01*
X0088177Y0137854D01*
X0088274Y0137868D01*
X0088371Y0137885D01*
X0088467Y0137906D01*
X0088562Y0137931D01*
X0088656Y0137959D01*
X0088748Y0137992D01*
X0088840Y0138027D01*
X0088930Y0138067D01*
X0089018Y0138109D01*
X0089105Y0138156D01*
X0089189Y0138205D01*
X0089272Y0138258D01*
X0089352Y0138314D01*
X0089431Y0138374D01*
X0089507Y0138436D01*
X0089580Y0138501D01*
X0089651Y0138569D01*
X0089719Y0138640D01*
X0089784Y0138713D01*
X0089846Y0138789D01*
X0089906Y0138868D01*
X0089962Y0138948D01*
X0090015Y0139031D01*
X0090064Y0139115D01*
X0090111Y0139202D01*
X0090153Y0139290D01*
X0090193Y0139380D01*
X0090228Y0139472D01*
X0090261Y0139564D01*
X0090289Y0139658D01*
X0090314Y0139753D01*
X0090335Y0139849D01*
X0090352Y0139946D01*
X0090366Y0140043D01*
X0090375Y0140141D01*
X0090381Y0140239D01*
X0090383Y0140337D01*
X0090381Y0140435D01*
X0090375Y0140533D01*
X0090366Y0140631D01*
X0090352Y0140728D01*
X0090335Y0140825D01*
X0090314Y0140921D01*
X0090289Y0141016D01*
X0090261Y0141110D01*
X0090228Y0141202D01*
X0090193Y0141294D01*
X0090153Y0141384D01*
X0090111Y0141472D01*
X0090064Y0141559D01*
X0090015Y0141643D01*
X0089962Y0141726D01*
X0089906Y0141806D01*
X0089846Y0141885D01*
X0089784Y0141961D01*
X0089719Y0142034D01*
X0089651Y0142105D01*
X0089580Y0142173D01*
X0089507Y0142238D01*
X0089431Y0142300D01*
X0089352Y0142360D01*
X0089272Y0142416D01*
X0089189Y0142469D01*
X0089105Y0142518D01*
X0089018Y0142565D01*
X0088930Y0142607D01*
X0088840Y0142647D01*
X0088748Y0142682D01*
X0088656Y0142715D01*
X0088562Y0142743D01*
X0088467Y0142768D01*
X0088371Y0142789D01*
X0088274Y0142806D01*
X0088177Y0142820D01*
X0088079Y0142829D01*
X0087981Y0142835D01*
X0087883Y0142837D01*
X0080883Y0142837D01*
X0080785Y0142835D01*
X0080687Y0142829D01*
X0080589Y0142820D01*
X0080492Y0142806D01*
X0080395Y0142789D01*
X0080299Y0142768D01*
X0080204Y0142743D01*
X0080110Y0142715D01*
X0080018Y0142682D01*
X0079926Y0142647D01*
X0079836Y0142607D01*
X0079748Y0142565D01*
X0079661Y0142518D01*
X0079577Y0142469D01*
X0079494Y0142416D01*
X0079414Y0142360D01*
X0079335Y0142300D01*
X0079259Y0142238D01*
X0079186Y0142173D01*
X0079115Y0142105D01*
X0079047Y0142034D01*
X0078982Y0141961D01*
X0078920Y0141885D01*
X0078860Y0141806D01*
X0078804Y0141726D01*
X0078751Y0141643D01*
X0078702Y0141559D01*
X0078655Y0141472D01*
X0078613Y0141384D01*
X0078573Y0141294D01*
X0078538Y0141202D01*
X0078505Y0141110D01*
X0078477Y0141016D01*
X0078452Y0140921D01*
X0078431Y0140825D01*
X0078414Y0140728D01*
X0078400Y0140631D01*
X0078391Y0140533D01*
X0078385Y0140435D01*
X0078383Y0140337D01*
X0078385Y0140239D01*
X0078391Y0140141D01*
X0078400Y0140043D01*
X0078414Y0139946D01*
X0078431Y0139849D01*
X0078452Y0139753D01*
X0078477Y0139658D01*
X0078505Y0139564D01*
X0078538Y0139472D01*
X0078573Y0139380D01*
X0078613Y0139290D01*
X0078655Y0139202D01*
X0078702Y0139115D01*
X0078751Y0139031D01*
X0078804Y0138948D01*
X0078860Y0138868D01*
X0078920Y0138789D01*
X0078982Y0138713D01*
X0079047Y0138640D01*
X0079115Y0138569D01*
X0079186Y0138501D01*
X0079259Y0138436D01*
X0079335Y0138374D01*
X0079414Y0138314D01*
X0079494Y0138258D01*
X0079577Y0138205D01*
X0079661Y0138156D01*
X0079748Y0138109D01*
X0079836Y0138067D01*
X0079926Y0138027D01*
X0080018Y0137992D01*
X0080110Y0137959D01*
X0080204Y0137931D01*
X0080299Y0137906D01*
X0080395Y0137885D01*
X0080492Y0137868D01*
X0080589Y0137854D01*
X0080687Y0137845D01*
X0080785Y0137839D01*
X0080883Y0137837D01*
X0078383Y0140337D02*
X0078385Y0140435D01*
X0078391Y0140533D01*
X0078400Y0140631D01*
X0078414Y0140728D01*
X0078431Y0140825D01*
X0078452Y0140921D01*
X0078477Y0141016D01*
X0078505Y0141110D01*
X0078538Y0141202D01*
X0078573Y0141294D01*
X0078613Y0141384D01*
X0078655Y0141472D01*
X0078702Y0141559D01*
X0078751Y0141643D01*
X0078804Y0141726D01*
X0078860Y0141806D01*
X0078920Y0141885D01*
X0078982Y0141961D01*
X0079047Y0142034D01*
X0079115Y0142105D01*
X0079186Y0142173D01*
X0079259Y0142238D01*
X0079335Y0142300D01*
X0079414Y0142360D01*
X0079494Y0142416D01*
X0079577Y0142469D01*
X0079661Y0142518D01*
X0079748Y0142565D01*
X0079836Y0142607D01*
X0079926Y0142647D01*
X0080018Y0142682D01*
X0080110Y0142715D01*
X0080204Y0142743D01*
X0080299Y0142768D01*
X0080395Y0142789D01*
X0080492Y0142806D01*
X0080589Y0142820D01*
X0080687Y0142829D01*
X0080785Y0142835D01*
X0080883Y0142837D01*
X0084383Y0080337D02*
X0084383Y0077837D01*
X0104383Y0077837D02*
X0104383Y0080337D01*
X0104383Y0052837D02*
X0104383Y0050337D01*
X0084383Y0050337D02*
X0084383Y0052837D01*
D14*
X0082302Y0054638D02*
X0081701Y0054037D01*
X0080500Y0054037D01*
X0079900Y0054638D01*
X0078619Y0054638D02*
X0078619Y0057040D01*
X0078018Y0057640D01*
X0076216Y0057640D01*
X0076216Y0054037D01*
X0078018Y0054037D01*
X0078619Y0054638D01*
X0079900Y0057040D02*
X0080500Y0057640D01*
X0081701Y0057640D01*
X0082302Y0057040D01*
X0082302Y0056439D01*
X0081701Y0055839D01*
X0082302Y0055238D01*
X0082302Y0054638D01*
X0081701Y0055839D02*
X0081101Y0055839D01*
X0083883Y0060337D02*
X0084883Y0060337D01*
X0084970Y0060339D01*
X0085057Y0060345D01*
X0085144Y0060354D01*
X0085230Y0060367D01*
X0085316Y0060384D01*
X0085401Y0060405D01*
X0085484Y0060430D01*
X0085567Y0060458D01*
X0085648Y0060489D01*
X0085728Y0060524D01*
X0085806Y0060563D01*
X0085883Y0060605D01*
X0085958Y0060650D01*
X0086030Y0060699D01*
X0086101Y0060750D01*
X0086169Y0060805D01*
X0086234Y0060862D01*
X0086297Y0060923D01*
X0086358Y0060986D01*
X0086415Y0061051D01*
X0086470Y0061119D01*
X0086521Y0061190D01*
X0086570Y0061262D01*
X0086615Y0061337D01*
X0086657Y0061414D01*
X0086696Y0061492D01*
X0086731Y0061572D01*
X0086762Y0061653D01*
X0086790Y0061736D01*
X0086815Y0061819D01*
X0086836Y0061904D01*
X0086853Y0061990D01*
X0086866Y0062076D01*
X0086875Y0062163D01*
X0086881Y0062250D01*
X0086883Y0062337D01*
X0086883Y0068337D01*
X0086881Y0068424D01*
X0086875Y0068511D01*
X0086866Y0068598D01*
X0086853Y0068684D01*
X0086836Y0068770D01*
X0086815Y0068855D01*
X0086790Y0068938D01*
X0086762Y0069021D01*
X0086731Y0069102D01*
X0086696Y0069182D01*
X0086657Y0069260D01*
X0086615Y0069337D01*
X0086570Y0069412D01*
X0086521Y0069484D01*
X0086470Y0069555D01*
X0086415Y0069623D01*
X0086358Y0069688D01*
X0086297Y0069751D01*
X0086234Y0069812D01*
X0086169Y0069869D01*
X0086101Y0069924D01*
X0086030Y0069975D01*
X0085958Y0070024D01*
X0085883Y0070069D01*
X0085806Y0070111D01*
X0085728Y0070150D01*
X0085648Y0070185D01*
X0085567Y0070216D01*
X0085484Y0070244D01*
X0085401Y0070269D01*
X0085316Y0070290D01*
X0085230Y0070307D01*
X0085144Y0070320D01*
X0085057Y0070329D01*
X0084970Y0070335D01*
X0084883Y0070337D01*
X0083883Y0070337D01*
X0083796Y0070335D01*
X0083709Y0070329D01*
X0083622Y0070320D01*
X0083536Y0070307D01*
X0083450Y0070290D01*
X0083365Y0070269D01*
X0083282Y0070244D01*
X0083199Y0070216D01*
X0083118Y0070185D01*
X0083038Y0070150D01*
X0082960Y0070111D01*
X0082883Y0070069D01*
X0082808Y0070024D01*
X0082736Y0069975D01*
X0082665Y0069924D01*
X0082597Y0069869D01*
X0082532Y0069812D01*
X0082469Y0069751D01*
X0082408Y0069688D01*
X0082351Y0069623D01*
X0082296Y0069555D01*
X0082245Y0069484D01*
X0082196Y0069412D01*
X0082151Y0069337D01*
X0082109Y0069260D01*
X0082070Y0069182D01*
X0082035Y0069102D01*
X0082004Y0069021D01*
X0081976Y0068938D01*
X0081951Y0068855D01*
X0081930Y0068770D01*
X0081913Y0068684D01*
X0081900Y0068598D01*
X0081891Y0068511D01*
X0081885Y0068424D01*
X0081883Y0068337D01*
X0081883Y0062337D01*
X0081885Y0062250D01*
X0081891Y0062163D01*
X0081900Y0062076D01*
X0081913Y0061990D01*
X0081930Y0061904D01*
X0081951Y0061819D01*
X0081976Y0061736D01*
X0082004Y0061653D01*
X0082035Y0061572D01*
X0082070Y0061492D01*
X0082109Y0061414D01*
X0082151Y0061337D01*
X0082196Y0061262D01*
X0082245Y0061190D01*
X0082296Y0061119D01*
X0082351Y0061051D01*
X0082408Y0060986D01*
X0082469Y0060923D01*
X0082532Y0060862D01*
X0082597Y0060805D01*
X0082665Y0060750D01*
X0082736Y0060699D01*
X0082808Y0060650D01*
X0082883Y0060605D01*
X0082960Y0060563D01*
X0083038Y0060524D01*
X0083118Y0060489D01*
X0083199Y0060458D01*
X0083282Y0060430D01*
X0083365Y0060405D01*
X0083450Y0060384D01*
X0083536Y0060367D01*
X0083622Y0060354D01*
X0083709Y0060345D01*
X0083796Y0060339D01*
X0083883Y0060337D01*
X0101883Y0062337D02*
X0101883Y0068337D01*
X0101885Y0068424D01*
X0101891Y0068511D01*
X0101900Y0068598D01*
X0101913Y0068684D01*
X0101930Y0068770D01*
X0101951Y0068855D01*
X0101976Y0068938D01*
X0102004Y0069021D01*
X0102035Y0069102D01*
X0102070Y0069182D01*
X0102109Y0069260D01*
X0102151Y0069337D01*
X0102196Y0069412D01*
X0102245Y0069484D01*
X0102296Y0069555D01*
X0102351Y0069623D01*
X0102408Y0069688D01*
X0102469Y0069751D01*
X0102532Y0069812D01*
X0102597Y0069869D01*
X0102665Y0069924D01*
X0102736Y0069975D01*
X0102808Y0070024D01*
X0102883Y0070069D01*
X0102960Y0070111D01*
X0103038Y0070150D01*
X0103118Y0070185D01*
X0103199Y0070216D01*
X0103282Y0070244D01*
X0103365Y0070269D01*
X0103450Y0070290D01*
X0103536Y0070307D01*
X0103622Y0070320D01*
X0103709Y0070329D01*
X0103796Y0070335D01*
X0103883Y0070337D01*
X0104883Y0070337D01*
X0104970Y0070335D01*
X0105057Y0070329D01*
X0105144Y0070320D01*
X0105230Y0070307D01*
X0105316Y0070290D01*
X0105401Y0070269D01*
X0105484Y0070244D01*
X0105567Y0070216D01*
X0105648Y0070185D01*
X0105728Y0070150D01*
X0105806Y0070111D01*
X0105883Y0070069D01*
X0105958Y0070024D01*
X0106030Y0069975D01*
X0106101Y0069924D01*
X0106169Y0069869D01*
X0106234Y0069812D01*
X0106297Y0069751D01*
X0106358Y0069688D01*
X0106415Y0069623D01*
X0106470Y0069555D01*
X0106521Y0069484D01*
X0106570Y0069412D01*
X0106615Y0069337D01*
X0106657Y0069260D01*
X0106696Y0069182D01*
X0106731Y0069102D01*
X0106762Y0069021D01*
X0106790Y0068938D01*
X0106815Y0068855D01*
X0106836Y0068770D01*
X0106853Y0068684D01*
X0106866Y0068598D01*
X0106875Y0068511D01*
X0106881Y0068424D01*
X0106883Y0068337D01*
X0106883Y0062337D01*
X0106881Y0062250D01*
X0106875Y0062163D01*
X0106866Y0062076D01*
X0106853Y0061990D01*
X0106836Y0061904D01*
X0106815Y0061819D01*
X0106790Y0061736D01*
X0106762Y0061653D01*
X0106731Y0061572D01*
X0106696Y0061492D01*
X0106657Y0061414D01*
X0106615Y0061337D01*
X0106570Y0061262D01*
X0106521Y0061190D01*
X0106470Y0061119D01*
X0106415Y0061051D01*
X0106358Y0060986D01*
X0106297Y0060923D01*
X0106234Y0060862D01*
X0106169Y0060805D01*
X0106101Y0060750D01*
X0106030Y0060699D01*
X0105958Y0060650D01*
X0105883Y0060605D01*
X0105806Y0060563D01*
X0105728Y0060524D01*
X0105648Y0060489D01*
X0105567Y0060458D01*
X0105484Y0060430D01*
X0105401Y0060405D01*
X0105316Y0060384D01*
X0105230Y0060367D01*
X0105144Y0060354D01*
X0105057Y0060345D01*
X0104970Y0060339D01*
X0104883Y0060337D01*
X0103883Y0060337D01*
X0103796Y0060339D01*
X0103709Y0060345D01*
X0103622Y0060354D01*
X0103536Y0060367D01*
X0103450Y0060384D01*
X0103365Y0060405D01*
X0103282Y0060430D01*
X0103199Y0060458D01*
X0103118Y0060489D01*
X0103038Y0060524D01*
X0102960Y0060563D01*
X0102883Y0060605D01*
X0102808Y0060650D01*
X0102736Y0060699D01*
X0102665Y0060750D01*
X0102597Y0060805D01*
X0102532Y0060862D01*
X0102469Y0060923D01*
X0102408Y0060986D01*
X0102351Y0061051D01*
X0102296Y0061119D01*
X0102245Y0061190D01*
X0102196Y0061262D01*
X0102151Y0061337D01*
X0102109Y0061414D01*
X0102070Y0061492D01*
X0102035Y0061572D01*
X0102004Y0061653D01*
X0101976Y0061736D01*
X0101951Y0061819D01*
X0101930Y0061904D01*
X0101913Y0061990D01*
X0101900Y0062076D01*
X0101891Y0062163D01*
X0101885Y0062250D01*
X0101883Y0062337D01*
X0105583Y0073037D02*
X0107384Y0073037D01*
X0107985Y0073638D01*
X0107985Y0076040D01*
X0107384Y0076640D01*
X0105583Y0076640D01*
X0105583Y0073037D01*
X0109266Y0074839D02*
X0111668Y0074839D01*
X0111067Y0076640D02*
X0111067Y0073037D01*
X0109266Y0074839D02*
X0111067Y0076640D01*
X0105351Y0094037D02*
X0102949Y0094037D01*
X0105351Y0096439D01*
X0105351Y0097040D01*
X0104751Y0097640D01*
X0103550Y0097640D01*
X0102949Y0097040D01*
X0101668Y0097040D02*
X0101067Y0097640D01*
X0099866Y0097640D01*
X0099266Y0097040D01*
X0097985Y0097040D02*
X0097985Y0095839D01*
X0097384Y0095238D01*
X0095583Y0095238D01*
X0096784Y0095238D02*
X0097985Y0094037D01*
X0099266Y0094037D02*
X0101668Y0096439D01*
X0101668Y0097040D01*
X0101668Y0094037D02*
X0099266Y0094037D01*
X0097985Y0097040D02*
X0097384Y0097640D01*
X0095583Y0097640D01*
X0095583Y0094037D01*
X0082302Y0113037D02*
X0079900Y0113037D01*
X0081101Y0113037D02*
X0081101Y0116640D01*
X0079900Y0115439D01*
X0078619Y0115439D02*
X0078619Y0116040D01*
X0078018Y0116640D01*
X0076817Y0116640D01*
X0076216Y0116040D01*
X0074935Y0116040D02*
X0074935Y0114839D01*
X0074335Y0114238D01*
X0072533Y0114238D01*
X0072533Y0113037D02*
X0072533Y0116640D01*
X0074335Y0116640D01*
X0074935Y0116040D01*
X0073734Y0114238D02*
X0074935Y0113037D01*
X0076216Y0113037D02*
X0078619Y0115439D01*
X0078619Y0113037D02*
X0076216Y0113037D01*
X0056123Y0137037D02*
X0053721Y0137037D01*
X0054922Y0137037D02*
X0054922Y0140640D01*
X0053721Y0139439D01*
X0052440Y0140040D02*
X0051840Y0140640D01*
X0050639Y0140640D01*
X0050038Y0140040D01*
X0050038Y0137638D01*
X0050639Y0137037D01*
X0051840Y0137037D01*
X0052440Y0137638D01*
X0048784Y0137037D02*
X0047583Y0137037D01*
X0048183Y0137037D02*
X0048183Y0140640D01*
X0047583Y0140640D02*
X0048784Y0140640D01*
X0045351Y0077640D02*
X0044150Y0077040D01*
X0042949Y0075839D01*
X0044751Y0075839D01*
X0045351Y0075238D01*
X0045351Y0074638D01*
X0044751Y0074037D01*
X0043550Y0074037D01*
X0042949Y0074638D01*
X0042949Y0075839D01*
X0041668Y0074037D02*
X0039266Y0074037D01*
X0040467Y0074037D02*
X0040467Y0077640D01*
X0039266Y0076439D01*
X0037985Y0077040D02*
X0037985Y0075839D01*
X0037384Y0075238D01*
X0035583Y0075238D01*
X0036784Y0075238D02*
X0037985Y0074037D01*
X0035583Y0074037D02*
X0035583Y0077640D01*
X0037384Y0077640D01*
X0037985Y0077040D01*
X0044058Y0057640D02*
X0045860Y0057640D01*
X0046460Y0057040D01*
X0046460Y0055839D01*
X0045860Y0055238D01*
X0044058Y0055238D01*
X0044058Y0054037D02*
X0044058Y0057640D01*
X0045259Y0055238D02*
X0046460Y0054037D01*
X0047741Y0054037D02*
X0050143Y0054037D01*
X0048942Y0054037D02*
X0048942Y0057640D01*
X0047741Y0056439D01*
X0051424Y0057640D02*
X0053826Y0057640D01*
X0053826Y0057040D01*
X0051424Y0054638D01*
X0051424Y0054037D01*
X0035351Y0047040D02*
X0035351Y0044638D01*
X0034751Y0044037D01*
X0033550Y0044037D01*
X0032949Y0044638D01*
X0033550Y0045839D02*
X0032949Y0046439D01*
X0032949Y0047040D01*
X0033550Y0047640D01*
X0034751Y0047640D01*
X0035351Y0047040D01*
X0035351Y0045839D02*
X0033550Y0045839D01*
X0031668Y0044037D02*
X0029266Y0044037D01*
X0030467Y0044037D02*
X0030467Y0047640D01*
X0029266Y0046439D01*
X0027985Y0047040D02*
X0027985Y0045839D01*
X0027384Y0045238D01*
X0025583Y0045238D01*
X0026784Y0045238D02*
X0027985Y0044037D01*
X0025583Y0044037D02*
X0025583Y0047640D01*
X0027384Y0047640D01*
X0027985Y0047040D01*
X0011701Y0073037D02*
X0010500Y0073037D01*
X0009900Y0073638D01*
X0008619Y0073037D02*
X0006216Y0073037D01*
X0008619Y0075439D01*
X0008619Y0076040D01*
X0008018Y0076640D01*
X0006817Y0076640D01*
X0006216Y0076040D01*
X0004935Y0076040D02*
X0004935Y0074839D01*
X0004335Y0074238D01*
X0002533Y0074238D01*
X0002533Y0073037D02*
X0002533Y0076640D01*
X0004335Y0076640D01*
X0004935Y0076040D01*
X0003734Y0074238D02*
X0004935Y0073037D01*
X0009900Y0076040D02*
X0010500Y0076640D01*
X0011701Y0076640D01*
X0012302Y0076040D01*
X0012302Y0075439D01*
X0011701Y0074839D01*
X0012302Y0074238D01*
X0012302Y0073638D01*
X0011701Y0073037D01*
X0011701Y0074839D02*
X0011101Y0074839D01*
X0054117Y0028641D02*
X0052583Y0027106D01*
X0054117Y0028641D02*
X0054117Y0024037D01*
X0052583Y0024037D02*
X0055652Y0024037D01*
X0057187Y0024804D02*
X0060256Y0027874D01*
X0060256Y0024804D01*
X0059489Y0024037D01*
X0057954Y0024037D01*
X0057187Y0024804D01*
X0057187Y0027874D01*
X0057954Y0028641D01*
X0059489Y0028641D01*
X0060256Y0027874D01*
X0061791Y0028641D02*
X0061791Y0024037D01*
X0061791Y0025572D02*
X0064093Y0027106D01*
X0065627Y0026339D02*
X0065627Y0027874D01*
X0066395Y0028641D01*
X0067929Y0028641D01*
X0068696Y0027874D01*
X0068696Y0026339D01*
X0067929Y0025572D01*
X0067929Y0024037D01*
X0068696Y0024037D01*
X0066395Y0024037D02*
X0066395Y0025572D01*
X0065627Y0026339D01*
X0065627Y0024037D02*
X0066395Y0024037D01*
X0064093Y0024037D02*
X0061791Y0025572D01*
X0102583Y0027106D02*
X0104117Y0028641D01*
X0104117Y0024037D01*
X0102583Y0024037D02*
X0105652Y0024037D01*
X0107187Y0024804D02*
X0107187Y0027874D01*
X0107954Y0028641D01*
X0109489Y0028641D01*
X0110256Y0027874D01*
X0107187Y0024804D01*
X0107954Y0024037D01*
X0109489Y0024037D01*
X0110256Y0024804D01*
X0110256Y0027874D01*
X0111791Y0027874D02*
X0112558Y0028641D01*
X0114093Y0028641D01*
X0114860Y0027874D01*
X0111791Y0024804D01*
X0112558Y0024037D01*
X0114093Y0024037D01*
X0114860Y0024804D01*
X0114860Y0027874D01*
X0116395Y0028641D02*
X0116395Y0024037D01*
X0116395Y0025572D02*
X0118696Y0027106D01*
X0120231Y0026339D02*
X0120231Y0027874D01*
X0120998Y0028641D01*
X0122533Y0028641D01*
X0123300Y0027874D01*
X0123300Y0026339D01*
X0122533Y0025572D01*
X0122533Y0024037D01*
X0123300Y0024037D01*
X0120998Y0024037D02*
X0120998Y0025572D01*
X0120231Y0026339D01*
X0120231Y0024037D02*
X0120998Y0024037D01*
X0118696Y0024037D02*
X0116395Y0025572D01*
X0111791Y0024804D02*
X0111791Y0027874D01*
D15*
X0104383Y0056537D03*
X0104383Y0074137D03*
X0084383Y0074137D03*
X0084383Y0056537D03*
D16*
X0084383Y0068087D03*
X0104383Y0062587D03*
D17*
X0019383Y0108337D02*
X0019191Y0108335D01*
X0018999Y0108328D01*
X0018807Y0108316D01*
X0018615Y0108300D01*
X0018424Y0108279D01*
X0018234Y0108254D01*
X0018044Y0108224D01*
X0017855Y0108190D01*
X0017667Y0108151D01*
X0017480Y0108107D01*
X0017294Y0108059D01*
X0017109Y0108007D01*
X0016925Y0107950D01*
X0016743Y0107889D01*
X0016563Y0107823D01*
X0016384Y0107753D01*
X0016206Y0107679D01*
X0016031Y0107601D01*
X0015857Y0107518D01*
X0015686Y0107431D01*
X0015517Y0107341D01*
X0015350Y0107246D01*
X0015185Y0107147D01*
X0015022Y0107044D01*
X0014863Y0106937D01*
X0014705Y0106827D01*
X0014551Y0106713D01*
X0014399Y0106595D01*
X0014250Y0106473D01*
X0014104Y0106348D01*
X0013962Y0106220D01*
X0013822Y0106088D01*
X0013685Y0105953D01*
X0013552Y0105814D01*
X0013422Y0105673D01*
X0013296Y0105528D01*
X0013173Y0105380D01*
X0013054Y0105230D01*
X0012938Y0105076D01*
X0012826Y0104920D01*
X0012718Y0104761D01*
X0012613Y0104600D01*
X0012513Y0104436D01*
X0012417Y0104270D01*
X0012324Y0104102D01*
X0012437Y0096368D02*
X0012536Y0096199D01*
X0012640Y0096033D01*
X0012747Y0095869D01*
X0012858Y0095708D01*
X0012973Y0095550D01*
X0013092Y0095395D01*
X0013215Y0095242D01*
X0013341Y0095093D01*
X0013471Y0094947D01*
X0013605Y0094804D01*
X0013742Y0094664D01*
X0013882Y0094528D01*
X0014026Y0094395D01*
X0014173Y0094266D01*
X0014323Y0094140D01*
X0014476Y0094019D01*
X0014632Y0093900D01*
X0014791Y0093786D01*
X0014952Y0093676D01*
X0015117Y0093570D01*
X0015283Y0093467D01*
X0015453Y0093369D01*
X0015624Y0093275D01*
X0015798Y0093185D01*
X0015974Y0093100D01*
X0016152Y0093018D01*
X0016332Y0092942D01*
X0016514Y0092869D01*
X0016697Y0092801D01*
X0016882Y0092738D01*
X0017069Y0092679D01*
X0017257Y0092625D01*
X0017446Y0092575D01*
X0017636Y0092530D01*
X0017828Y0092490D01*
X0018020Y0092454D01*
X0018213Y0092423D01*
X0018407Y0092397D01*
X0018602Y0092375D01*
X0018797Y0092359D01*
X0018992Y0092347D01*
X0019188Y0092339D01*
X0019383Y0092337D01*
X0019576Y0092339D01*
X0019769Y0092346D01*
X0019961Y0092358D01*
X0020154Y0092374D01*
X0020346Y0092395D01*
X0020537Y0092421D01*
X0020727Y0092451D01*
X0020917Y0092486D01*
X0021106Y0092525D01*
X0021294Y0092569D01*
X0021481Y0092617D01*
X0021667Y0092670D01*
X0021851Y0092727D01*
X0022034Y0092789D01*
X0022215Y0092855D01*
X0022395Y0092926D01*
X0022573Y0093000D01*
X0022749Y0093079D01*
X0022923Y0093163D01*
X0023095Y0093250D01*
X0023265Y0093342D01*
X0023432Y0093438D01*
X0023598Y0093537D01*
X0023761Y0093641D01*
X0023921Y0093748D01*
X0024078Y0093860D01*
X0024233Y0093975D01*
X0024385Y0094094D01*
X0024534Y0094216D01*
X0024681Y0094342D01*
X0024824Y0094472D01*
X0024964Y0094605D01*
X0025100Y0094741D01*
X0025234Y0094881D01*
X0025363Y0095023D01*
X0025490Y0095169D01*
X0025529Y0105459D02*
X0025402Y0105607D01*
X0025272Y0105752D01*
X0025139Y0105893D01*
X0025002Y0106032D01*
X0024862Y0106167D01*
X0024718Y0106298D01*
X0024571Y0106426D01*
X0024422Y0106551D01*
X0024269Y0106672D01*
X0024114Y0106789D01*
X0023955Y0106902D01*
X0023794Y0107011D01*
X0023630Y0107116D01*
X0023464Y0107218D01*
X0023295Y0107315D01*
X0023125Y0107408D01*
X0022951Y0107497D01*
X0022776Y0107582D01*
X0022599Y0107662D01*
X0022420Y0107738D01*
X0022239Y0107810D01*
X0022056Y0107877D01*
X0021872Y0107940D01*
X0021686Y0107998D01*
X0021499Y0108052D01*
X0021311Y0108101D01*
X0021121Y0108146D01*
X0020931Y0108186D01*
X0020739Y0108221D01*
X0020547Y0108252D01*
X0020354Y0108278D01*
X0020160Y0108299D01*
X0019966Y0108316D01*
X0019772Y0108328D01*
X0019578Y0108335D01*
X0019383Y0108337D01*
X0026329Y0124306D02*
X0026230Y0124475D01*
X0026126Y0124641D01*
X0026019Y0124805D01*
X0025908Y0124966D01*
X0025793Y0125124D01*
X0025674Y0125279D01*
X0025551Y0125432D01*
X0025425Y0125581D01*
X0025295Y0125727D01*
X0025161Y0125870D01*
X0025024Y0126010D01*
X0024884Y0126146D01*
X0024740Y0126279D01*
X0024593Y0126408D01*
X0024443Y0126534D01*
X0024290Y0126655D01*
X0024134Y0126774D01*
X0023975Y0126888D01*
X0023814Y0126998D01*
X0023649Y0127104D01*
X0023483Y0127207D01*
X0023313Y0127305D01*
X0023142Y0127399D01*
X0022968Y0127489D01*
X0022792Y0127574D01*
X0022614Y0127656D01*
X0022434Y0127732D01*
X0022252Y0127805D01*
X0022069Y0127873D01*
X0021884Y0127936D01*
X0021697Y0127995D01*
X0021509Y0128049D01*
X0021320Y0128099D01*
X0021130Y0128144D01*
X0020938Y0128184D01*
X0020746Y0128220D01*
X0020553Y0128251D01*
X0020359Y0128277D01*
X0020164Y0128299D01*
X0019969Y0128315D01*
X0019774Y0128327D01*
X0019578Y0128335D01*
X0019383Y0128337D01*
X0026442Y0116572D02*
X0026349Y0116404D01*
X0026253Y0116238D01*
X0026153Y0116074D01*
X0026048Y0115913D01*
X0025940Y0115754D01*
X0025828Y0115598D01*
X0025712Y0115444D01*
X0025593Y0115294D01*
X0025470Y0115146D01*
X0025344Y0115001D01*
X0025214Y0114860D01*
X0025081Y0114721D01*
X0024944Y0114586D01*
X0024804Y0114454D01*
X0024662Y0114326D01*
X0024516Y0114201D01*
X0024367Y0114079D01*
X0024215Y0113961D01*
X0024061Y0113847D01*
X0023903Y0113737D01*
X0023744Y0113630D01*
X0023581Y0113527D01*
X0023416Y0113428D01*
X0023249Y0113333D01*
X0023080Y0113243D01*
X0022909Y0113156D01*
X0022735Y0113073D01*
X0022560Y0112995D01*
X0022382Y0112921D01*
X0022203Y0112851D01*
X0022023Y0112785D01*
X0021841Y0112724D01*
X0021657Y0112667D01*
X0021472Y0112615D01*
X0021286Y0112567D01*
X0021099Y0112523D01*
X0020911Y0112484D01*
X0020722Y0112450D01*
X0020532Y0112420D01*
X0020342Y0112395D01*
X0020151Y0112374D01*
X0019959Y0112358D01*
X0019767Y0112346D01*
X0019575Y0112339D01*
X0019383Y0112337D01*
X0013276Y0125505D02*
X0013403Y0125651D01*
X0013532Y0125793D01*
X0013666Y0125933D01*
X0013802Y0126069D01*
X0013942Y0126202D01*
X0014085Y0126332D01*
X0014232Y0126458D01*
X0014381Y0126580D01*
X0014533Y0126699D01*
X0014688Y0126814D01*
X0014845Y0126926D01*
X0015005Y0127033D01*
X0015168Y0127137D01*
X0015334Y0127236D01*
X0015501Y0127332D01*
X0015671Y0127424D01*
X0015843Y0127511D01*
X0016017Y0127595D01*
X0016193Y0127674D01*
X0016371Y0127748D01*
X0016551Y0127819D01*
X0016732Y0127885D01*
X0016915Y0127947D01*
X0017099Y0128004D01*
X0017285Y0128057D01*
X0017472Y0128105D01*
X0017660Y0128149D01*
X0017849Y0128188D01*
X0018039Y0128223D01*
X0018229Y0128253D01*
X0018420Y0128279D01*
X0018612Y0128300D01*
X0018805Y0128316D01*
X0018997Y0128328D01*
X0019190Y0128335D01*
X0019383Y0128337D01*
X0013237Y0115215D02*
X0013364Y0115067D01*
X0013494Y0114922D01*
X0013627Y0114781D01*
X0013764Y0114642D01*
X0013904Y0114507D01*
X0014048Y0114376D01*
X0014195Y0114248D01*
X0014344Y0114123D01*
X0014497Y0114002D01*
X0014652Y0113885D01*
X0014811Y0113772D01*
X0014972Y0113663D01*
X0015136Y0113558D01*
X0015302Y0113456D01*
X0015471Y0113359D01*
X0015641Y0113266D01*
X0015815Y0113177D01*
X0015990Y0113092D01*
X0016167Y0113012D01*
X0016346Y0112936D01*
X0016527Y0112864D01*
X0016710Y0112797D01*
X0016894Y0112734D01*
X0017080Y0112676D01*
X0017267Y0112622D01*
X0017455Y0112573D01*
X0017645Y0112528D01*
X0017835Y0112488D01*
X0018027Y0112453D01*
X0018219Y0112422D01*
X0018412Y0112396D01*
X0018606Y0112375D01*
X0018800Y0112358D01*
X0018994Y0112346D01*
X0019188Y0112339D01*
X0019383Y0112337D01*
D18*
X0034383Y0091087D03*
X0034383Y0079587D03*
X0024383Y0061087D03*
X0024383Y0049587D03*
X0014383Y0059587D03*
X0014383Y0071087D03*
X0084383Y0099587D03*
X0094383Y0099587D03*
X0094383Y0111087D03*
X0084383Y0111087D03*
D19*
X0055133Y0050337D03*
X0043633Y0050337D03*
D20*
X0038497Y0030376D02*
X0038497Y0016361D01*
X0040465Y0015180D01*
X0048300Y0015180D01*
X0050269Y0016361D01*
X0050269Y0030376D01*
X0049875Y0029589D02*
X0038891Y0027522D01*
X0038891Y0025554D02*
X0049875Y0027620D01*
X0049875Y0025652D02*
X0038891Y0023585D01*
X0038891Y0021617D02*
X0049875Y0023683D01*
X0049875Y0021715D02*
X0038891Y0019648D01*
X0038891Y0017680D02*
X0049875Y0019746D01*
X0049875Y0017935D02*
X0039776Y0015869D01*
X0040465Y0015180D02*
X0040465Y0001400D01*
X0048300Y0001400D01*
X0048300Y0015180D01*
X0062257Y0030770D02*
X0062257Y0046258D01*
X0026509Y0046258D01*
X0026509Y0030770D01*
X0026509Y0022896D01*
X0030839Y0022896D01*
X0030839Y0030376D01*
X0026509Y0030770D02*
X0062257Y0030770D01*
X0062257Y0033644D02*
X0026509Y0033644D01*
X0076509Y0033644D02*
X0112257Y0033644D01*
X0112257Y0030770D02*
X0112257Y0046258D01*
X0076509Y0046258D01*
X0076509Y0030770D01*
X0076509Y0022896D01*
X0080839Y0022896D01*
X0080839Y0030376D01*
X0076509Y0030770D02*
X0112257Y0030770D01*
X0100269Y0030376D02*
X0100269Y0016361D01*
X0098300Y0015180D01*
X0090465Y0015180D01*
X0088497Y0016361D01*
X0088497Y0030376D01*
X0088891Y0027522D02*
X0099875Y0029589D01*
X0099875Y0027620D02*
X0088891Y0025554D01*
X0088891Y0023585D02*
X0099875Y0025652D01*
X0099875Y0023683D02*
X0088891Y0021617D01*
X0088891Y0019648D02*
X0099875Y0021715D01*
X0099875Y0019746D02*
X0088891Y0017680D01*
X0089776Y0015869D02*
X0099875Y0017935D01*
X0098300Y0015180D02*
X0098300Y0001400D01*
X0090465Y0001400D01*
X0090465Y0015180D01*
D21*
X0014477Y0028170D02*
X0013009Y0028170D01*
X0012270Y0028537D02*
X0011536Y0028537D01*
X0011903Y0028537D02*
X0011903Y0030739D01*
X0011536Y0030739D02*
X0012270Y0030739D01*
X0010794Y0030372D02*
X0010794Y0029638D01*
X0010427Y0029271D01*
X0009326Y0029271D01*
X0009326Y0028537D02*
X0009326Y0030739D01*
X0010427Y0030739D01*
X0010794Y0030372D01*
X0010060Y0029271D02*
X0010794Y0028537D01*
X0007850Y0028537D02*
X0007850Y0030739D01*
X0007116Y0030739D02*
X0008584Y0030739D01*
X0015219Y0030372D02*
X0015219Y0028904D01*
X0015586Y0028537D01*
X0016320Y0028537D01*
X0016687Y0028904D01*
X0016687Y0030372D01*
X0016320Y0030739D01*
X0015586Y0030739D01*
X0015219Y0030372D01*
X0017429Y0030739D02*
X0017429Y0028904D01*
X0017796Y0028537D01*
X0018530Y0028537D01*
X0018897Y0028904D01*
X0018897Y0030739D01*
X0019639Y0030739D02*
X0021107Y0030739D01*
X0020373Y0030739D02*
X0020373Y0028537D01*
X0033745Y0133537D02*
X0033378Y0133904D01*
X0033745Y0133537D02*
X0034479Y0133537D01*
X0034846Y0133904D01*
X0034846Y0134638D01*
X0034479Y0135005D01*
X0034112Y0135005D01*
X0033378Y0134638D01*
X0033378Y0135739D01*
X0034846Y0135739D01*
X0035588Y0135739D02*
X0035588Y0134271D01*
X0036322Y0133537D01*
X0037056Y0134271D01*
X0037056Y0135739D01*
X0032636Y0134638D02*
X0031168Y0134638D01*
X0031902Y0135372D02*
X0031902Y0133904D01*
X0101168Y0133904D02*
X0101535Y0133537D01*
X0102269Y0133537D01*
X0102636Y0133904D01*
X0102636Y0134638D01*
X0101902Y0134638D01*
X0102636Y0135372D02*
X0102269Y0135739D01*
X0101535Y0135739D01*
X0101168Y0135372D01*
X0101168Y0133904D01*
X0103378Y0133537D02*
X0103378Y0135739D01*
X0104846Y0133537D01*
X0104846Y0135739D01*
X0105588Y0135739D02*
X0106689Y0135739D01*
X0107056Y0135372D01*
X0107056Y0133904D01*
X0106689Y0133537D01*
X0105588Y0133537D01*
X0105588Y0135739D01*
D22*
X0085383Y0140337D03*
X0083383Y0140337D03*
M02*
