G75*
%MOIN*%
%OFA0B0*%
%FSLAX25Y25*%
%IPPOS*%
%LPD*%
%AMOC8*
5,1,8,0,0,1.08239X$1,22.5*
%
%ADD10C,0.06343*%
%ADD11C,0.05950*%
%ADD12OC8,0.06000*%
%ADD13C,0.07800*%
D10*
X0024383Y0040337D03*
X0034383Y0050337D03*
X0034383Y0070337D03*
X0024383Y0070337D03*
X0014383Y0080337D03*
X0034383Y0100337D03*
X0074383Y0140337D03*
X0084383Y0120337D03*
X0094383Y0120337D03*
X0094383Y0140337D03*
X0094383Y0090337D03*
X0094383Y0080337D03*
X0104383Y0080337D03*
X0094383Y0060337D03*
X0104383Y0050337D03*
X0084383Y0050337D03*
X0064383Y0050337D03*
X0084383Y0080337D03*
X0084383Y0090337D03*
X0014383Y0050337D03*
D11*
X0041808Y0070337D02*
X0046958Y0070337D01*
X0046958Y0080337D02*
X0041808Y0080337D01*
X0041808Y0090337D02*
X0046958Y0090337D01*
X0046958Y0100337D02*
X0041808Y0100337D01*
X0041808Y0110337D02*
X0046958Y0110337D01*
X0046958Y0120337D02*
X0041808Y0120337D01*
X0041808Y0130337D02*
X0046958Y0130337D01*
X0071808Y0130337D02*
X0076958Y0130337D01*
X0076958Y0120337D02*
X0071808Y0120337D01*
X0071808Y0110337D02*
X0076958Y0110337D01*
X0076958Y0100337D02*
X0071808Y0100337D01*
X0071808Y0090337D02*
X0076958Y0090337D01*
X0076958Y0080337D02*
X0071808Y0080337D01*
X0071808Y0070337D02*
X0076958Y0070337D01*
D12*
X0024383Y0100337D03*
X0014383Y0100337D03*
X0014383Y0120337D03*
X0024383Y0120337D03*
D13*
X0014383Y0035337D03*
X0034383Y0040337D03*
X0044383Y0040337D03*
X0054383Y0040337D03*
X0084383Y0040337D03*
X0094383Y0040337D03*
X0104383Y0040337D03*
X0104383Y0140337D03*
X0034383Y0140337D03*
M02*
