G75*
%MOIN*%
%OFA0B0*%
%FSLAX25Y25*%
%IPPOS*%
%LPD*%
%AMOC8*
5,1,8,0,0,1.08239X$1,22.5*
%
%ADD10C,0.07000*%
%ADD11C,0.05000*%
%ADD12R,0.03962X0.03962*%
D10*
X0017738Y0055337D03*
X0017738Y0075337D03*
X0027738Y0075337D03*
X0037738Y0085337D03*
X0047738Y0085337D03*
X0057738Y0085337D03*
X0077738Y0085337D03*
X0077738Y0105337D03*
X0087738Y0105337D03*
X0097738Y0105337D03*
X0107738Y0105337D03*
X0117738Y0105337D03*
X0127738Y0105337D03*
X0117738Y0085337D03*
X0117738Y0055337D03*
X0137738Y0055337D03*
X0097738Y0055337D03*
X0057738Y0055337D03*
X0047738Y0065337D03*
X0037738Y0055337D03*
X0037738Y0095337D03*
X0047738Y0105337D03*
X0057738Y0115337D03*
X0067738Y0105337D03*
X0047738Y0125337D03*
X0047738Y0145337D03*
X0057738Y0145337D03*
X0067738Y0135337D03*
X0077738Y0135337D03*
X0087738Y0135337D03*
X0087738Y0145337D03*
X0097738Y0135337D03*
X0107738Y0135337D03*
X0117738Y0135337D03*
X0117738Y0145337D03*
X0127738Y0145337D03*
X0127738Y0135337D03*
X0137738Y0145337D03*
X0117738Y0155337D03*
X0117738Y0165337D03*
X0107738Y0155337D03*
X0077738Y0155337D03*
X0027738Y0145337D03*
X0017738Y0145337D03*
X0017738Y0115337D03*
X0027738Y0105337D03*
X0017738Y0095337D03*
D11*
X0037738Y0095337D01*
X0037738Y0085337D02*
X0037738Y0055337D01*
X0047738Y0065337D02*
X0057738Y0065337D01*
X0057738Y0055337D01*
X0067738Y0075337D02*
X0042738Y0075337D01*
X0037738Y0070337D01*
X0037738Y0085337D01*
X0047738Y0085337D02*
X0077738Y0085337D01*
X0097738Y0095337D02*
X0097738Y0105337D01*
X0097738Y0100337D01*
X0097738Y0100337D01*
X0097738Y0105337D01*
X0097738Y0105337D01*
X0097738Y0095337D02*
X0097738Y0055337D01*
X0117738Y0055337D02*
X0117738Y0085337D01*
X0137738Y0075337D02*
X0137738Y0135337D01*
X0127738Y0135337D01*
X0127738Y0145337D02*
X0117738Y0145337D01*
X0117738Y0135337D01*
X0117738Y0125337D01*
X0047738Y0125337D01*
X0057738Y0115337D02*
X0017738Y0115337D01*
X0017738Y0145337D01*
X0017738Y0155337D01*
X0077738Y0155337D01*
X0087738Y0145337D02*
X0057738Y0145337D01*
X0047738Y0145337D02*
X0027738Y0145337D01*
X0057738Y0115337D02*
X0057738Y0095337D01*
X0097738Y0095337D01*
X0097738Y0135337D02*
X0097738Y0165337D01*
X0117738Y0165337D01*
X0147738Y0165337D01*
X0147738Y0055337D01*
X0137738Y0055337D01*
X0137738Y0135337D02*
X0137738Y0145337D01*
X0117738Y0155337D02*
X0107738Y0155337D01*
X0107738Y0135337D01*
X0047738Y0105337D02*
X0047738Y0085337D01*
X0047738Y0105337D02*
X0027738Y0105337D01*
D12*
X0067738Y0075337D03*
X0137738Y0075337D03*
M02*
