G75*
%MOIN*%
%OFA0B0*%
%FSLAX25Y25*%
%IPPOS*%
%LPD*%
%AMOC8*
5,1,8,0,0,1.08239X$1,22.5*
%
%ADD10C,0.07800*%
%ADD11R,0.05156X0.05156*%
D10*
X0040337Y0016000D03*
X0040337Y0036000D03*
X0040337Y0046000D03*
X0060337Y0056000D03*
X0040337Y0066000D03*
X0040337Y0076000D03*
X0040337Y0086000D03*
X0060337Y0076000D03*
X0070337Y0086000D03*
X0070337Y0096000D03*
X0060337Y0116000D03*
X0050337Y0116000D03*
X0040337Y0126000D03*
X0060337Y0126000D03*
X0070337Y0136000D03*
X0090337Y0126000D03*
X0100337Y0136000D03*
X0120337Y0126000D03*
X0130337Y0126000D03*
X0140337Y0116000D03*
X0150337Y0106000D03*
X0150337Y0096000D03*
X0150337Y0086000D03*
X0160337Y0096000D03*
X0150337Y0076000D03*
X0160337Y0066000D03*
X0190337Y0076000D03*
X0210337Y0066000D03*
X0210337Y0086000D03*
X0210337Y0096000D03*
X0200337Y0096000D03*
X0190337Y0106000D03*
X0170337Y0116000D03*
X0170337Y0126000D03*
X0160337Y0126000D03*
X0160337Y0146000D03*
X0160337Y0156000D03*
X0180337Y0146000D03*
X0190337Y0156000D03*
X0200337Y0156000D03*
X0200337Y0146000D03*
X0200337Y0126000D03*
X0190337Y0126000D03*
X0200337Y0171000D03*
X0190337Y0176000D03*
X0160337Y0176000D03*
X0140337Y0186000D03*
X0140337Y0196000D03*
X0140337Y0206000D03*
X0120337Y0206000D03*
X0120337Y0196000D03*
X0120337Y0186000D03*
X0100337Y0206000D03*
X0050022Y0165685D03*
X0040337Y0165685D03*
X0040337Y0156000D03*
X0040337Y0146315D03*
X0050022Y0146315D03*
X0050022Y0156000D03*
X0020337Y0116000D03*
X0080337Y0116000D03*
X0100337Y0116000D03*
X0120337Y0106000D03*
X0120337Y0096000D03*
X0120337Y0086000D03*
X0120337Y0076000D03*
X0100337Y0086000D03*
X0100337Y0096000D03*
X0090337Y0056000D03*
X0210337Y0046000D03*
D11*
X0180337Y0066000D03*
X0150337Y0066000D03*
X0120337Y0066000D03*
X0100337Y0076000D03*
X0070337Y0076000D03*
X0050337Y0096000D03*
X0070337Y0106000D03*
X0110337Y0106000D03*
X0130337Y0136000D03*
X0150337Y0136000D03*
X0150337Y0146000D03*
X0150337Y0156000D03*
X0160337Y0156000D03*
X0140337Y0166000D03*
X0150337Y0176000D03*
X0100337Y0156000D03*
X0080337Y0166000D03*
X0070337Y0176000D03*
X0070337Y0146000D03*
X0180337Y0096000D03*
X0210337Y0136000D03*
X0050337Y0046000D03*
M02*
