%
M48
M72
T01C0.02362
T02C0.02756
%
T01
X6773Y7533
X13773Y7533
T02
X1773Y5533
X1773Y7533
X2773Y7533
X3773Y8533
X4773Y8533
X5773Y8533
X7773Y8533
X7773Y10533
X8773Y10533
X9773Y10533
X10773Y10533
X11773Y10533
X12773Y10533
X11773Y8533
X11773Y5533
X13773Y5533
X9773Y5533
X5773Y5533
X4773Y6533
X3773Y5533
X3773Y9533
X4773Y10533
X5773Y11533
X6773Y10533
X4773Y12533
X4773Y14533
X5773Y14533
X6773Y13533
X7773Y13533
X8773Y13533
X8773Y14533
X9773Y13533
X10773Y13533
X11773Y13533
X11773Y14533
X12773Y14533
X12773Y13533
X13773Y14533
X11773Y15533
X11773Y16533
X10773Y15533
X7773Y15533
X2773Y14533
X1773Y14533
X1773Y11533
X2773Y10533
X1773Y9533
M30
