G75*
%MOIN*%
%OFA0B0*%
%FSLAX25Y25*%
%IPPOS*%
%LPD*%
%AMOC8*
5,1,8,0,0,1.08239X$1,22.5*
%
%ADD10C,0.00000*%
%ADD11C,0.07000*%
%ADD12C,0.05000*%
%ADD13R,0.03962X0.03962*%
D10*
X0028318Y0024667D02*
X0028318Y0264667D01*
X0288318Y0264667D01*
X0288318Y0024667D01*
X0028318Y0024667D01*
D11*
X0068318Y0054667D03*
X0078318Y0054667D03*
X0098318Y0084667D03*
X0108318Y0084667D03*
X0108318Y0104667D03*
X0098318Y0104667D03*
X0098318Y0114667D03*
X0118318Y0144667D03*
X0128318Y0144667D03*
X0128318Y0134667D03*
X0138318Y0114667D03*
X0138318Y0104667D03*
X0128318Y0104667D03*
X0158318Y0104667D03*
X0158318Y0114667D03*
X0158318Y0124667D03*
X0158318Y0134667D03*
X0158318Y0144667D03*
X0158318Y0154667D03*
X0158318Y0164667D03*
X0148318Y0174667D03*
X0138318Y0184667D03*
X0148318Y0194667D03*
X0128318Y0174667D03*
X0128318Y0164667D03*
X0098318Y0164667D03*
X0098318Y0174667D03*
X0098318Y0184667D03*
X0098318Y0204667D03*
X0078318Y0184667D03*
X0068318Y0184667D03*
X0068318Y0194667D03*
X0068318Y0174667D03*
X0078318Y0154667D03*
X0078318Y0144667D03*
X0068318Y0144667D03*
X0058318Y0134667D03*
X0058318Y0114667D03*
X0058318Y0094667D03*
X0118318Y0064667D03*
X0128318Y0064667D03*
X0138318Y0064667D03*
X0158318Y0064667D03*
X0168318Y0064667D03*
X0178318Y0064667D03*
X0198318Y0084667D03*
X0208318Y0104667D03*
X0228318Y0104667D03*
X0238318Y0114667D03*
X0238318Y0124667D03*
X0248318Y0114667D03*
X0228318Y0124667D03*
X0228318Y0134667D03*
X0228318Y0144667D03*
X0218318Y0144667D03*
X0218318Y0154667D03*
X0218318Y0164667D03*
X0228318Y0174667D03*
X0238318Y0174667D03*
X0248318Y0184667D03*
X0258318Y0184667D03*
X0248318Y0204667D03*
X0238318Y0204667D03*
X0228318Y0214667D03*
X0228318Y0194667D03*
X0238318Y0164667D03*
X0248318Y0164667D03*
X0248318Y0144667D03*
X0218318Y0134667D03*
X0188318Y0134667D03*
X0188318Y0144667D03*
X0188318Y0154667D03*
X0188318Y0164667D03*
X0188318Y0174667D03*
X0188318Y0194667D03*
X0168318Y0204667D03*
X0148318Y0224667D03*
X0148318Y0234667D03*
X0148318Y0254667D03*
X0158318Y0254667D03*
X0158318Y0254667D03*
X0168318Y0244667D03*
X0178318Y0244667D03*
X0198318Y0244667D03*
X0208318Y0254667D03*
X0208318Y0254667D03*
X0218318Y0254667D03*
X0228318Y0254667D03*
X0228318Y0254667D03*
X0228318Y0244667D03*
X0238318Y0234667D03*
X0248318Y0244667D03*
X0258318Y0244667D03*
X0188318Y0124667D03*
X0188318Y0114667D03*
X0188318Y0104667D03*
X0158318Y0084667D03*
X0218318Y0064667D03*
X0228318Y0064667D03*
X0238318Y0064667D03*
X0238318Y0084667D03*
X0248318Y0084667D03*
X0258318Y0054667D03*
X0098318Y0244667D03*
X0098318Y0254667D03*
X0068318Y0244667D03*
X0058318Y0244667D03*
X0058318Y0234667D03*
X0068003Y0234667D03*
X0068318Y0224667D03*
X0058318Y0224667D03*
X0138318Y0254667D03*
X0138318Y0254667D03*
D12*
X0118318Y0254667D02*
X0118318Y0184667D01*
X0088318Y0134667D02*
X0088318Y0084667D01*
X0078318Y0074667D02*
X0078318Y0134667D01*
X0063318Y0144667D02*
X0058318Y0144667D01*
X0058318Y0194667D01*
X0063318Y0144667D02*
X0063318Y0114667D01*
X0168318Y0074667D02*
X0228318Y0074667D01*
X0208318Y0134667D02*
X0208318Y0174667D01*
X0208318Y0194667D02*
X0208318Y0234667D01*
X0198318Y0224667D02*
X0198318Y0194667D01*
X0178318Y0184667D02*
X0228318Y0184667D01*
D13*
X0228318Y0184667D03*
X0208318Y0194667D03*
X0198318Y0194667D03*
X0208318Y0174667D03*
X0178318Y0184667D03*
X0198318Y0224667D03*
X0208318Y0234667D03*
X0118318Y0254667D03*
X0058318Y0194667D03*
X0118318Y0184667D03*
X0088318Y0134667D03*
X0078318Y0134667D03*
X0063318Y0114667D03*
X0088318Y0084667D03*
X0078318Y0074667D03*
X0168318Y0074667D03*
X0228318Y0074667D03*
X0208318Y0134667D03*
M02*
