G75*
%MOIN*%
%OFA0B0*%
%FSLAX25Y25*%
%IPPOS*%
%LPD*%
%AMOC8*
5,1,8,0,0,1.08239X$1,22.5*
%
%ADD10C,0.07000*%
%ADD11C,0.05000*%
%ADD12R,0.03962X0.03962*%
D10*
X0011000Y0011333D03*
X0021000Y0011333D03*
X0021000Y0021333D03*
X0011000Y0021333D03*
X0031000Y0031333D03*
X0041000Y0031333D03*
X0031000Y0041333D03*
X0031000Y0051333D03*
X0041000Y0051333D03*
X0051000Y0051333D03*
X0051000Y0041333D03*
X0061000Y0031333D03*
X0071000Y0031333D03*
X0071000Y0021333D03*
X0051000Y0011333D03*
X0041000Y0011333D03*
X0091000Y0011333D03*
X0101000Y0011333D03*
X0111000Y0011333D03*
X0101000Y0021333D03*
X0101000Y0031333D03*
X0091000Y0031333D03*
X0091000Y0041333D03*
X0101000Y0041333D03*
X0101000Y0051333D03*
X0091000Y0051333D03*
X0081000Y0051333D03*
X0071000Y0061333D03*
X0051000Y0061333D03*
X0051000Y0071333D03*
X0041000Y0081333D03*
X0031000Y0081333D03*
X0031000Y0071333D03*
X0031000Y0061333D03*
X0021000Y0061333D03*
X0011000Y0061333D03*
X0061000Y0081333D03*
X0071000Y0081333D03*
X0081000Y0081333D03*
X0091000Y0081333D03*
X0101000Y0081333D03*
X0111000Y0081333D03*
X0121000Y0081333D03*
X0131000Y0081333D03*
X0141000Y0081333D03*
X0161000Y0091333D03*
X0151000Y0101333D03*
X0141000Y0111333D03*
X0131000Y0101333D03*
X0121000Y0101333D03*
X0111000Y0101333D03*
X0101000Y0101333D03*
X0101000Y0111333D03*
X0091000Y0111333D03*
X0091000Y0121333D03*
X0101000Y0121333D03*
X0111000Y0121333D03*
X0121000Y0121333D03*
X0131000Y0131333D03*
X0131000Y0141333D03*
X0161000Y0141333D03*
X0171000Y0141333D03*
X0171000Y0131333D03*
X0181000Y0131333D03*
X0171000Y0121333D03*
X0161000Y0121333D03*
X0161000Y0131333D03*
X0196000Y0136333D03*
X0216000Y0121333D03*
X0231000Y0126333D03*
X0226000Y0136333D03*
X0241000Y0101333D03*
X0251000Y0101333D03*
X0201000Y0101333D03*
X0181000Y0091333D03*
X0181000Y0081333D03*
X0171000Y0071333D03*
X0171000Y0051333D03*
X0181000Y0041333D03*
X0191000Y0041333D03*
X0201000Y0041333D03*
X0201000Y0021333D03*
X0191000Y0021333D03*
X0151000Y0031333D03*
X0151000Y0041333D03*
X0151000Y0051333D03*
X0141000Y0051333D03*
X0131000Y0051333D03*
X0121000Y0051333D03*
X0111000Y0051333D03*
X0111000Y0031333D03*
X0121000Y0031333D03*
X0091000Y0091333D03*
X0081000Y0091333D03*
X0071000Y0091333D03*
X0071000Y0101333D03*
X0061000Y0111333D03*
X0051000Y0111333D03*
X0071000Y0121333D03*
X0031000Y0111333D03*
X0021000Y0111333D03*
X0021000Y0101333D03*
X0031000Y0101333D03*
X0031000Y0091333D03*
X0021000Y0091333D03*
D11*
X0031000Y0091333D01*
X0021000Y0091333D01*
X0021000Y0061333D01*
X0011000Y0061333D02*
X0011000Y0101333D01*
X0021000Y0101333D01*
X0031000Y0101333D01*
X0031000Y0111333D02*
X0021000Y0111333D01*
X0051000Y0111333D02*
X0061000Y0111333D01*
X0051000Y0111333D02*
X0051000Y0111333D01*
X0051000Y0111333D01*
X0071000Y0101333D02*
X0071000Y0121333D01*
X0071000Y0081333D01*
X0071000Y0101333D01*
X0071000Y0091333D01*
X0071000Y0121333D01*
X0091000Y0121333D02*
X0091000Y0101333D01*
X0091000Y0111333D01*
X0091000Y0111333D01*
X0101000Y0111333D02*
X0101000Y0121333D01*
X0111000Y0121333D01*
X0111000Y0101333D01*
X0111000Y0091333D01*
X0111000Y0081333D01*
X0101000Y0081333D02*
X0101000Y0111333D01*
X0111000Y0116333D02*
X0111000Y0121333D01*
X0101000Y0121333D02*
X0101000Y0101333D01*
X0091000Y0101333D02*
X0091000Y0091333D01*
X0091000Y0091333D01*
X0091000Y0091333D01*
X0091000Y0081333D01*
X0091000Y0081333D01*
X0081000Y0081333D02*
X0081000Y0081333D01*
X0081000Y0081333D01*
X0081000Y0071333D01*
X0061000Y0071333D01*
X0056000Y0071333D01*
X0051000Y0071333D01*
X0031000Y0071333D01*
X0031000Y0081333D02*
X0041000Y0081333D01*
X0061000Y0081333D02*
X0071000Y0081333D01*
X0071000Y0091333D01*
X0071000Y0101333D01*
X0081000Y0091333D02*
X0081000Y0091333D01*
X0081000Y0081333D01*
X0081000Y0081333D01*
X0071000Y0061333D02*
X0111000Y0061333D01*
X0111000Y0051333D01*
X0111000Y0021333D01*
X0111000Y0011333D01*
X0111000Y0031333D01*
X0111000Y0026333D01*
X0111000Y0021333D02*
X0101000Y0021333D01*
X0106000Y0021333D01*
X0101000Y0011333D02*
X0111000Y0011333D01*
X0121000Y0011333D02*
X0191000Y0011333D01*
X0191000Y0021333D01*
X0191000Y0041333D01*
X0181000Y0041333D02*
X0181000Y0031333D01*
X0171000Y0021333D02*
X0171000Y0051333D01*
X0171000Y0071333D01*
X0171000Y0111333D01*
X0141000Y0111333D01*
X0141000Y0101333D02*
X0141000Y0081333D01*
X0131000Y0081333D02*
X0131000Y0101333D01*
X0131000Y0131333D01*
X0131000Y0141333D01*
X0161000Y0141333D02*
X0171000Y0141333D01*
X0181000Y0131333D02*
X0186000Y0136333D01*
X0196000Y0136333D01*
X0196000Y0136333D01*
X0181000Y0131333D02*
X0181000Y0131333D01*
X0171000Y0131333D02*
X0171000Y0131333D01*
X0161000Y0131333D01*
X0161000Y0131333D01*
X0161000Y0121333D02*
X0171000Y0121333D01*
X0171000Y0111333D01*
X0161000Y0101333D02*
X0151000Y0101333D01*
X0141000Y0101333D01*
X0151000Y0091333D02*
X0151000Y0091333D01*
X0161000Y0091333D01*
X0161000Y0091333D01*
X0151000Y0091333D02*
X0151000Y0041333D01*
X0151000Y0051333D01*
X0141000Y0051333D02*
X0141000Y0031333D01*
X0151000Y0031333D01*
X0161000Y0031333D01*
X0161000Y0031333D01*
X0131000Y0051333D02*
X0131000Y0061333D01*
X0121000Y0061333D01*
X0121000Y0081333D01*
X0121000Y0101333D01*
X0121000Y0121333D01*
X0181000Y0101333D02*
X0201000Y0101333D01*
X0201000Y0091333D01*
X0201000Y0091333D01*
X0201000Y0101333D01*
X0201000Y0041333D01*
X0201000Y0021333D01*
X0121000Y0011333D02*
X0121000Y0051333D01*
X0121000Y0031333D01*
X0101000Y0031333D02*
X0101000Y0041333D01*
X0101000Y0051333D01*
X0091000Y0051333D02*
X0091000Y0051333D01*
X0091000Y0041333D01*
X0091000Y0041333D01*
X0091000Y0031333D01*
X0091000Y0031333D01*
X0091000Y0031333D01*
X0091000Y0011333D01*
X0091000Y0011333D01*
X0071000Y0021333D02*
X0021000Y0021333D01*
X0011000Y0021333D01*
X0011000Y0011333D02*
X0021000Y0011333D01*
X0041000Y0011333D02*
X0041000Y0011333D01*
X0051000Y0011333D01*
X0051000Y0011333D01*
X0071000Y0021333D02*
X0071000Y0031333D01*
X0071000Y0031333D01*
X0071000Y0031333D01*
X0071000Y0021333D01*
X0071000Y0021333D01*
X0071000Y0031333D02*
X0061000Y0031333D01*
X0061000Y0031333D01*
X0051000Y0041333D02*
X0041000Y0041333D01*
X0031000Y0041333D01*
X0031000Y0051333D02*
X0041000Y0051333D01*
X0051000Y0051333D01*
X0041000Y0051333D01*
X0051000Y0051333D02*
X0051000Y0051333D01*
X0081000Y0051333D01*
X0081000Y0051333D01*
X0091000Y0041333D02*
X0091000Y0041333D01*
X0051000Y0041333D02*
X0051000Y0041333D01*
X0051000Y0041333D01*
X0051000Y0051333D01*
X0051000Y0051333D01*
X0051000Y0061333D02*
X0031000Y0061333D01*
X0031000Y0031333D02*
X0031000Y0031333D01*
X0041000Y0031333D01*
X0041000Y0031333D01*
X0181000Y0081333D02*
X0181000Y0091333D01*
X0216000Y0121333D02*
X0216000Y0121333D01*
X0221000Y0121333D01*
X0226000Y0131333D01*
X0226000Y0131333D01*
X0231000Y0126333D01*
X0231000Y0126333D01*
X0226000Y0131333D02*
X0226000Y0136333D01*
X0226000Y0136333D01*
X0241000Y0101333D02*
X0251000Y0101333D01*
D12*
X0181000Y0101333D03*
X0161000Y0101333D03*
X0151000Y0091333D03*
X0111000Y0091333D03*
X0161000Y0031333D03*
X0171000Y0021333D03*
X0181000Y0031333D03*
X0111000Y0021333D03*
M02*
