G75*
%MOIN*%
%OFA0B0*%
%FSLAX25Y25*%
%IPPOS*%
%LPD*%
%AMOC8*
5,1,8,0,0,1.08239X$1,22.5*
%
%ADD10C,0.00200*%
%ADD11C,0.00600*%
%ADD12C,0.01200*%
%ADD13C,0.00300*%
%ADD14C,0.00500*%
%ADD15C,0.00400*%
%ADD16R,0.00800X0.12200*%
%ADD17R,0.05000X0.01000*%
%ADD18R,0.01500X0.01000*%
%ADD19C,0.00800*%
%ADD20R,0.05400X0.00900*%
%ADD21R,0.01000X0.01500*%
%ADD22R,0.00800X0.07200*%
%ADD23R,0.04000X0.01000*%
D10*
X0054801Y0006680D02*
X0056269Y0007781D01*
X0054801Y0008882D01*
X0057011Y0008882D02*
X0058479Y0006680D01*
X0058479Y0008882D01*
X0059221Y0008148D02*
X0059955Y0008882D01*
X0060689Y0008148D01*
X0060689Y0006680D01*
X0061431Y0006680D02*
X0061431Y0008882D01*
X0062165Y0008148D01*
X0062899Y0008882D01*
X0062899Y0006680D01*
X0063641Y0006680D02*
X0065109Y0006680D01*
X0064375Y0007781D02*
X0063641Y0007781D01*
X0063641Y0008882D02*
X0063641Y0006680D01*
X0063641Y0008882D02*
X0065109Y0008882D01*
X0060689Y0007781D02*
X0059221Y0007781D01*
X0059221Y0008148D02*
X0059221Y0006680D01*
X0057011Y0006680D02*
X0057011Y0008882D01*
X0224801Y0036680D02*
X0226269Y0037781D01*
X0224801Y0038882D01*
X0227011Y0038882D02*
X0228479Y0036680D01*
X0228479Y0038882D01*
X0229221Y0038148D02*
X0229955Y0038882D01*
X0230689Y0038148D01*
X0230689Y0036680D01*
X0231431Y0036680D02*
X0231431Y0038882D01*
X0232165Y0038148D01*
X0232899Y0038882D01*
X0232899Y0036680D01*
X0233641Y0036680D02*
X0235109Y0036680D01*
X0234375Y0037781D02*
X0233641Y0037781D01*
X0233641Y0038882D02*
X0233641Y0036680D01*
X0233641Y0038882D02*
X0235109Y0038882D01*
X0230689Y0037781D02*
X0229221Y0037781D01*
X0229221Y0038148D02*
X0229221Y0036680D01*
X0227011Y0036680D02*
X0227011Y0038882D01*
X0227011Y0086680D02*
X0227011Y0088882D01*
X0228479Y0086680D01*
X0228479Y0088882D01*
X0229221Y0088148D02*
X0229955Y0088882D01*
X0230689Y0088148D01*
X0230689Y0086680D01*
X0231431Y0086680D02*
X0231431Y0088882D01*
X0232165Y0088148D01*
X0232899Y0088882D01*
X0232899Y0086680D01*
X0233641Y0086680D02*
X0235109Y0086680D01*
X0234375Y0087781D02*
X0233641Y0087781D01*
X0233641Y0088882D02*
X0233641Y0086680D01*
X0233641Y0088882D02*
X0235109Y0088882D01*
X0230689Y0087781D02*
X0229221Y0087781D01*
X0229221Y0088148D02*
X0229221Y0086680D01*
X0226269Y0087781D02*
X0224801Y0088882D01*
X0226269Y0087781D02*
X0224801Y0086680D01*
X0225109Y0161680D02*
X0223641Y0161680D01*
X0223641Y0163882D01*
X0225109Y0163882D01*
X0224375Y0162781D02*
X0223641Y0162781D01*
X0222899Y0163882D02*
X0222899Y0161680D01*
X0221431Y0161680D02*
X0221431Y0163882D01*
X0222165Y0163148D01*
X0222899Y0163882D01*
X0220689Y0163148D02*
X0220689Y0161680D01*
X0220689Y0162781D02*
X0219221Y0162781D01*
X0219221Y0163148D02*
X0219955Y0163882D01*
X0220689Y0163148D01*
X0219221Y0163148D02*
X0219221Y0161680D01*
X0218479Y0161680D02*
X0218479Y0163882D01*
X0217011Y0163882D02*
X0217011Y0161680D01*
X0216269Y0162781D02*
X0214801Y0161680D01*
X0216269Y0162781D02*
X0214801Y0163882D01*
X0217011Y0163882D02*
X0218479Y0161680D01*
X0165109Y0196680D02*
X0163641Y0196680D01*
X0163641Y0198882D01*
X0165109Y0198882D01*
X0164375Y0197781D02*
X0163641Y0197781D01*
X0162899Y0198882D02*
X0162899Y0196680D01*
X0161431Y0196680D02*
X0161431Y0198882D01*
X0162165Y0198148D01*
X0162899Y0198882D01*
X0160689Y0198148D02*
X0160689Y0196680D01*
X0160689Y0197781D02*
X0159221Y0197781D01*
X0159221Y0198148D02*
X0159221Y0196680D01*
X0158479Y0196680D02*
X0158479Y0198882D01*
X0159221Y0198148D02*
X0159955Y0198882D01*
X0160689Y0198148D01*
X0158479Y0196680D02*
X0157011Y0198882D01*
X0157011Y0196680D01*
X0156269Y0197781D02*
X0154801Y0196680D01*
X0156269Y0197781D02*
X0154801Y0198882D01*
X0145109Y0198882D02*
X0143641Y0198882D01*
X0143641Y0196680D01*
X0145109Y0196680D01*
X0144375Y0197781D02*
X0143641Y0197781D01*
X0142899Y0198882D02*
X0142899Y0196680D01*
X0141431Y0196680D02*
X0141431Y0198882D01*
X0142165Y0198148D01*
X0142899Y0198882D01*
X0140689Y0198148D02*
X0140689Y0196680D01*
X0140689Y0197781D02*
X0139221Y0197781D01*
X0139221Y0198148D02*
X0139221Y0196680D01*
X0138479Y0196680D02*
X0138479Y0198882D01*
X0139221Y0198148D02*
X0139955Y0198882D01*
X0140689Y0198148D01*
X0138479Y0196680D02*
X0137011Y0198882D01*
X0137011Y0196680D01*
X0136269Y0197781D02*
X0134801Y0196680D01*
X0136269Y0197781D02*
X0134801Y0198882D01*
X0125109Y0198882D02*
X0123641Y0198882D01*
X0123641Y0196680D01*
X0125109Y0196680D01*
X0124375Y0197781D02*
X0123641Y0197781D01*
X0122899Y0198882D02*
X0122899Y0196680D01*
X0121431Y0196680D02*
X0121431Y0198882D01*
X0122165Y0198148D01*
X0122899Y0198882D01*
X0120689Y0198148D02*
X0120689Y0196680D01*
X0120689Y0197781D02*
X0119221Y0197781D01*
X0119221Y0198148D02*
X0119221Y0196680D01*
X0118479Y0196680D02*
X0118479Y0198882D01*
X0119221Y0198148D02*
X0119955Y0198882D01*
X0120689Y0198148D01*
X0118479Y0196680D02*
X0117011Y0198882D01*
X0117011Y0196680D01*
X0116269Y0197781D02*
X0114801Y0196680D01*
X0116269Y0197781D02*
X0114801Y0198882D01*
D11*
X0163837Y0150500D02*
X0176837Y0150500D01*
X0176924Y0150498D01*
X0177011Y0150492D01*
X0177098Y0150483D01*
X0177184Y0150470D01*
X0177270Y0150453D01*
X0177355Y0150432D01*
X0177438Y0150407D01*
X0177521Y0150379D01*
X0177602Y0150348D01*
X0177682Y0150313D01*
X0177760Y0150274D01*
X0177837Y0150232D01*
X0177912Y0150187D01*
X0177984Y0150138D01*
X0178055Y0150087D01*
X0178123Y0150032D01*
X0178188Y0149975D01*
X0178251Y0149914D01*
X0178312Y0149851D01*
X0178369Y0149786D01*
X0178424Y0149718D01*
X0178475Y0149647D01*
X0178524Y0149575D01*
X0178569Y0149500D01*
X0178611Y0149423D01*
X0178650Y0149345D01*
X0178685Y0149265D01*
X0178716Y0149184D01*
X0178744Y0149101D01*
X0178769Y0149018D01*
X0178790Y0148933D01*
X0178807Y0148847D01*
X0178820Y0148761D01*
X0178829Y0148674D01*
X0178835Y0148587D01*
X0178837Y0148500D01*
X0175337Y0146000D02*
X0171537Y0146000D01*
X0169037Y0146000D02*
X0165337Y0146000D01*
X0161837Y0143500D02*
X0161839Y0143413D01*
X0161845Y0143326D01*
X0161854Y0143239D01*
X0161867Y0143153D01*
X0161884Y0143067D01*
X0161905Y0142982D01*
X0161930Y0142899D01*
X0161958Y0142816D01*
X0161989Y0142735D01*
X0162024Y0142655D01*
X0162063Y0142577D01*
X0162105Y0142500D01*
X0162150Y0142425D01*
X0162199Y0142353D01*
X0162250Y0142282D01*
X0162305Y0142214D01*
X0162362Y0142149D01*
X0162423Y0142086D01*
X0162486Y0142025D01*
X0162551Y0141968D01*
X0162619Y0141913D01*
X0162690Y0141862D01*
X0162762Y0141813D01*
X0162837Y0141768D01*
X0162914Y0141726D01*
X0162992Y0141687D01*
X0163072Y0141652D01*
X0163153Y0141621D01*
X0163236Y0141593D01*
X0163319Y0141568D01*
X0163404Y0141547D01*
X0163490Y0141530D01*
X0163576Y0141517D01*
X0163663Y0141508D01*
X0163750Y0141502D01*
X0163837Y0141500D01*
X0176837Y0141500D01*
X0176924Y0141502D01*
X0177011Y0141508D01*
X0177098Y0141517D01*
X0177184Y0141530D01*
X0177270Y0141547D01*
X0177355Y0141568D01*
X0177438Y0141593D01*
X0177521Y0141621D01*
X0177602Y0141652D01*
X0177682Y0141687D01*
X0177760Y0141726D01*
X0177837Y0141768D01*
X0177912Y0141813D01*
X0177984Y0141862D01*
X0178055Y0141913D01*
X0178123Y0141968D01*
X0178188Y0142025D01*
X0178251Y0142086D01*
X0178312Y0142149D01*
X0178369Y0142214D01*
X0178424Y0142282D01*
X0178475Y0142353D01*
X0178524Y0142425D01*
X0178569Y0142500D01*
X0178611Y0142577D01*
X0178650Y0142655D01*
X0178685Y0142735D01*
X0178716Y0142816D01*
X0178744Y0142899D01*
X0178769Y0142982D01*
X0178790Y0143067D01*
X0178807Y0143153D01*
X0178820Y0143239D01*
X0178829Y0143326D01*
X0178835Y0143413D01*
X0178837Y0143500D01*
X0179337Y0153500D02*
X0171337Y0153500D01*
X0171277Y0153502D01*
X0171216Y0153507D01*
X0171157Y0153516D01*
X0171098Y0153529D01*
X0171039Y0153545D01*
X0170982Y0153565D01*
X0170927Y0153588D01*
X0170872Y0153615D01*
X0170820Y0153644D01*
X0170769Y0153677D01*
X0170720Y0153713D01*
X0170674Y0153751D01*
X0170630Y0153793D01*
X0170588Y0153837D01*
X0170550Y0153883D01*
X0170514Y0153932D01*
X0170481Y0153983D01*
X0170452Y0154035D01*
X0170425Y0154090D01*
X0170402Y0154145D01*
X0170382Y0154202D01*
X0170366Y0154261D01*
X0170353Y0154320D01*
X0170344Y0154379D01*
X0170339Y0154440D01*
X0170337Y0154500D01*
X0170337Y0157500D01*
X0170339Y0157560D01*
X0170344Y0157621D01*
X0170353Y0157680D01*
X0170366Y0157739D01*
X0170382Y0157798D01*
X0170402Y0157855D01*
X0170425Y0157910D01*
X0170452Y0157965D01*
X0170481Y0158017D01*
X0170514Y0158068D01*
X0170550Y0158117D01*
X0170588Y0158163D01*
X0170630Y0158207D01*
X0170674Y0158249D01*
X0170720Y0158287D01*
X0170769Y0158323D01*
X0170820Y0158356D01*
X0170872Y0158385D01*
X0170927Y0158412D01*
X0170982Y0158435D01*
X0171039Y0158455D01*
X0171098Y0158471D01*
X0171157Y0158484D01*
X0171216Y0158493D01*
X0171277Y0158498D01*
X0171337Y0158500D01*
X0179337Y0158500D01*
X0179397Y0158498D01*
X0179458Y0158493D01*
X0179517Y0158484D01*
X0179576Y0158471D01*
X0179635Y0158455D01*
X0179692Y0158435D01*
X0179747Y0158412D01*
X0179802Y0158385D01*
X0179854Y0158356D01*
X0179905Y0158323D01*
X0179954Y0158287D01*
X0180000Y0158249D01*
X0180044Y0158207D01*
X0180086Y0158163D01*
X0180124Y0158117D01*
X0180160Y0158068D01*
X0180193Y0158017D01*
X0180222Y0157965D01*
X0180249Y0157910D01*
X0180272Y0157855D01*
X0180292Y0157798D01*
X0180308Y0157739D01*
X0180321Y0157680D01*
X0180330Y0157621D01*
X0180335Y0157560D01*
X0180337Y0157500D01*
X0180337Y0154500D01*
X0180335Y0154440D01*
X0180330Y0154379D01*
X0180321Y0154320D01*
X0180308Y0154261D01*
X0180292Y0154202D01*
X0180272Y0154145D01*
X0180249Y0154090D01*
X0180222Y0154035D01*
X0180193Y0153983D01*
X0180160Y0153932D01*
X0180124Y0153883D01*
X0180086Y0153837D01*
X0180044Y0153793D01*
X0180000Y0153751D01*
X0179954Y0153713D01*
X0179905Y0153677D01*
X0179854Y0153644D01*
X0179802Y0153615D01*
X0179747Y0153588D01*
X0179692Y0153565D01*
X0179635Y0153545D01*
X0179576Y0153529D01*
X0179517Y0153516D01*
X0179458Y0153507D01*
X0179397Y0153502D01*
X0179337Y0153500D01*
X0179397Y0153502D01*
X0179458Y0153507D01*
X0179517Y0153516D01*
X0179576Y0153529D01*
X0179635Y0153545D01*
X0179692Y0153565D01*
X0179747Y0153588D01*
X0179802Y0153615D01*
X0179854Y0153644D01*
X0179905Y0153677D01*
X0179954Y0153713D01*
X0180000Y0153751D01*
X0180044Y0153793D01*
X0180086Y0153837D01*
X0180124Y0153883D01*
X0180160Y0153932D01*
X0180193Y0153983D01*
X0180222Y0154035D01*
X0180249Y0154090D01*
X0180272Y0154145D01*
X0180292Y0154202D01*
X0180308Y0154261D01*
X0180321Y0154320D01*
X0180330Y0154379D01*
X0180335Y0154440D01*
X0180337Y0154500D01*
X0180337Y0157500D02*
X0180335Y0157560D01*
X0180330Y0157621D01*
X0180321Y0157680D01*
X0180308Y0157739D01*
X0180292Y0157798D01*
X0180272Y0157855D01*
X0180249Y0157910D01*
X0180222Y0157965D01*
X0180193Y0158017D01*
X0180160Y0158068D01*
X0180124Y0158117D01*
X0180086Y0158163D01*
X0180044Y0158207D01*
X0180000Y0158249D01*
X0179954Y0158287D01*
X0179905Y0158323D01*
X0179854Y0158356D01*
X0179802Y0158385D01*
X0179747Y0158412D01*
X0179692Y0158435D01*
X0179635Y0158455D01*
X0179576Y0158471D01*
X0179517Y0158484D01*
X0179458Y0158493D01*
X0179397Y0158498D01*
X0179337Y0158500D01*
X0171337Y0158500D02*
X0171277Y0158498D01*
X0171216Y0158493D01*
X0171157Y0158484D01*
X0171098Y0158471D01*
X0171039Y0158455D01*
X0170982Y0158435D01*
X0170927Y0158412D01*
X0170872Y0158385D01*
X0170820Y0158356D01*
X0170769Y0158323D01*
X0170720Y0158287D01*
X0170674Y0158249D01*
X0170630Y0158207D01*
X0170588Y0158163D01*
X0170550Y0158117D01*
X0170514Y0158068D01*
X0170481Y0158017D01*
X0170452Y0157965D01*
X0170425Y0157910D01*
X0170402Y0157855D01*
X0170382Y0157798D01*
X0170366Y0157739D01*
X0170353Y0157680D01*
X0170344Y0157621D01*
X0170339Y0157560D01*
X0170337Y0157500D01*
X0170337Y0154500D02*
X0170339Y0154440D01*
X0170344Y0154379D01*
X0170353Y0154320D01*
X0170366Y0154261D01*
X0170382Y0154202D01*
X0170402Y0154145D01*
X0170425Y0154090D01*
X0170452Y0154035D01*
X0170481Y0153983D01*
X0170514Y0153932D01*
X0170550Y0153883D01*
X0170588Y0153837D01*
X0170630Y0153793D01*
X0170674Y0153751D01*
X0170720Y0153713D01*
X0170769Y0153677D01*
X0170820Y0153644D01*
X0170872Y0153615D01*
X0170927Y0153588D01*
X0170982Y0153565D01*
X0171039Y0153545D01*
X0171098Y0153529D01*
X0171157Y0153516D01*
X0171216Y0153507D01*
X0171277Y0153502D01*
X0171337Y0153500D01*
X0163837Y0150500D02*
X0163750Y0150498D01*
X0163663Y0150492D01*
X0163576Y0150483D01*
X0163490Y0150470D01*
X0163404Y0150453D01*
X0163319Y0150432D01*
X0163236Y0150407D01*
X0163153Y0150379D01*
X0163072Y0150348D01*
X0162992Y0150313D01*
X0162914Y0150274D01*
X0162837Y0150232D01*
X0162762Y0150187D01*
X0162690Y0150138D01*
X0162619Y0150087D01*
X0162551Y0150032D01*
X0162486Y0149975D01*
X0162423Y0149914D01*
X0162362Y0149851D01*
X0162305Y0149786D01*
X0162250Y0149718D01*
X0162199Y0149647D01*
X0162150Y0149575D01*
X0162105Y0149500D01*
X0162063Y0149423D01*
X0162024Y0149345D01*
X0161989Y0149265D01*
X0161958Y0149184D01*
X0161930Y0149101D01*
X0161905Y0149018D01*
X0161884Y0148933D01*
X0161867Y0148847D01*
X0161854Y0148761D01*
X0161845Y0148674D01*
X0161839Y0148587D01*
X0161837Y0148500D01*
X0173837Y0130500D02*
X0186837Y0130500D01*
X0186924Y0130498D01*
X0187011Y0130492D01*
X0187098Y0130483D01*
X0187184Y0130470D01*
X0187270Y0130453D01*
X0187355Y0130432D01*
X0187438Y0130407D01*
X0187521Y0130379D01*
X0187602Y0130348D01*
X0187682Y0130313D01*
X0187760Y0130274D01*
X0187837Y0130232D01*
X0187912Y0130187D01*
X0187984Y0130138D01*
X0188055Y0130087D01*
X0188123Y0130032D01*
X0188188Y0129975D01*
X0188251Y0129914D01*
X0188312Y0129851D01*
X0188369Y0129786D01*
X0188424Y0129718D01*
X0188475Y0129647D01*
X0188524Y0129575D01*
X0188569Y0129500D01*
X0188611Y0129423D01*
X0188650Y0129345D01*
X0188685Y0129265D01*
X0188716Y0129184D01*
X0188744Y0129101D01*
X0188769Y0129018D01*
X0188790Y0128933D01*
X0188807Y0128847D01*
X0188820Y0128761D01*
X0188829Y0128674D01*
X0188835Y0128587D01*
X0188837Y0128500D01*
X0185337Y0126000D02*
X0181637Y0126000D01*
X0179137Y0126000D02*
X0175337Y0126000D01*
X0171837Y0123500D02*
X0171839Y0123413D01*
X0171845Y0123326D01*
X0171854Y0123239D01*
X0171867Y0123153D01*
X0171884Y0123067D01*
X0171905Y0122982D01*
X0171930Y0122899D01*
X0171958Y0122816D01*
X0171989Y0122735D01*
X0172024Y0122655D01*
X0172063Y0122577D01*
X0172105Y0122500D01*
X0172150Y0122425D01*
X0172199Y0122353D01*
X0172250Y0122282D01*
X0172305Y0122214D01*
X0172362Y0122149D01*
X0172423Y0122086D01*
X0172486Y0122025D01*
X0172551Y0121968D01*
X0172619Y0121913D01*
X0172690Y0121862D01*
X0172762Y0121813D01*
X0172837Y0121768D01*
X0172914Y0121726D01*
X0172992Y0121687D01*
X0173072Y0121652D01*
X0173153Y0121621D01*
X0173236Y0121593D01*
X0173319Y0121568D01*
X0173404Y0121547D01*
X0173490Y0121530D01*
X0173576Y0121517D01*
X0173663Y0121508D01*
X0173750Y0121502D01*
X0173837Y0121500D01*
X0186837Y0121500D01*
X0186924Y0121502D01*
X0187011Y0121508D01*
X0187098Y0121517D01*
X0187184Y0121530D01*
X0187270Y0121547D01*
X0187355Y0121568D01*
X0187438Y0121593D01*
X0187521Y0121621D01*
X0187602Y0121652D01*
X0187682Y0121687D01*
X0187760Y0121726D01*
X0187837Y0121768D01*
X0187912Y0121813D01*
X0187984Y0121862D01*
X0188055Y0121913D01*
X0188123Y0121968D01*
X0188188Y0122025D01*
X0188251Y0122086D01*
X0188312Y0122149D01*
X0188369Y0122214D01*
X0188424Y0122282D01*
X0188475Y0122353D01*
X0188524Y0122425D01*
X0188569Y0122500D01*
X0188611Y0122577D01*
X0188650Y0122655D01*
X0188685Y0122735D01*
X0188716Y0122816D01*
X0188744Y0122899D01*
X0188769Y0122982D01*
X0188790Y0123067D01*
X0188807Y0123153D01*
X0188820Y0123239D01*
X0188829Y0123326D01*
X0188835Y0123413D01*
X0188837Y0123500D01*
X0197837Y0115000D02*
X0197837Y0107000D01*
X0197839Y0106940D01*
X0197844Y0106879D01*
X0197853Y0106820D01*
X0197866Y0106761D01*
X0197882Y0106702D01*
X0197902Y0106645D01*
X0197925Y0106590D01*
X0197952Y0106535D01*
X0197981Y0106483D01*
X0198014Y0106432D01*
X0198050Y0106383D01*
X0198088Y0106337D01*
X0198130Y0106293D01*
X0198174Y0106251D01*
X0198220Y0106213D01*
X0198269Y0106177D01*
X0198320Y0106144D01*
X0198372Y0106115D01*
X0198427Y0106088D01*
X0198482Y0106065D01*
X0198539Y0106045D01*
X0198598Y0106029D01*
X0198657Y0106016D01*
X0198716Y0106007D01*
X0198777Y0106002D01*
X0198837Y0106000D01*
X0201837Y0106000D01*
X0201897Y0106002D01*
X0201958Y0106007D01*
X0202017Y0106016D01*
X0202076Y0106029D01*
X0202135Y0106045D01*
X0202192Y0106065D01*
X0202247Y0106088D01*
X0202302Y0106115D01*
X0202354Y0106144D01*
X0202405Y0106177D01*
X0202454Y0106213D01*
X0202500Y0106251D01*
X0202544Y0106293D01*
X0202586Y0106337D01*
X0202624Y0106383D01*
X0202660Y0106432D01*
X0202693Y0106483D01*
X0202722Y0106535D01*
X0202749Y0106590D01*
X0202772Y0106645D01*
X0202792Y0106702D01*
X0202808Y0106761D01*
X0202821Y0106820D01*
X0202830Y0106879D01*
X0202835Y0106940D01*
X0202837Y0107000D01*
X0202837Y0115000D01*
X0202835Y0115060D01*
X0202830Y0115121D01*
X0202821Y0115180D01*
X0202808Y0115239D01*
X0202792Y0115298D01*
X0202772Y0115355D01*
X0202749Y0115410D01*
X0202722Y0115465D01*
X0202693Y0115517D01*
X0202660Y0115568D01*
X0202624Y0115617D01*
X0202586Y0115663D01*
X0202544Y0115707D01*
X0202500Y0115749D01*
X0202454Y0115787D01*
X0202405Y0115823D01*
X0202354Y0115856D01*
X0202302Y0115885D01*
X0202247Y0115912D01*
X0202192Y0115935D01*
X0202135Y0115955D01*
X0202076Y0115971D01*
X0202017Y0115984D01*
X0201958Y0115993D01*
X0201897Y0115998D01*
X0201837Y0116000D01*
X0198837Y0116000D01*
X0198777Y0115998D01*
X0198716Y0115993D01*
X0198657Y0115984D01*
X0198598Y0115971D01*
X0198539Y0115955D01*
X0198482Y0115935D01*
X0198427Y0115912D01*
X0198372Y0115885D01*
X0198320Y0115856D01*
X0198269Y0115823D01*
X0198220Y0115787D01*
X0198174Y0115749D01*
X0198130Y0115707D01*
X0198088Y0115663D01*
X0198050Y0115617D01*
X0198014Y0115568D01*
X0197981Y0115517D01*
X0197952Y0115465D01*
X0197925Y0115410D01*
X0197902Y0115355D01*
X0197882Y0115298D01*
X0197866Y0115239D01*
X0197853Y0115180D01*
X0197844Y0115121D01*
X0197839Y0115060D01*
X0197837Y0115000D01*
X0197839Y0115060D01*
X0197844Y0115121D01*
X0197853Y0115180D01*
X0197866Y0115239D01*
X0197882Y0115298D01*
X0197902Y0115355D01*
X0197925Y0115410D01*
X0197952Y0115465D01*
X0197981Y0115517D01*
X0198014Y0115568D01*
X0198050Y0115617D01*
X0198088Y0115663D01*
X0198130Y0115707D01*
X0198174Y0115749D01*
X0198220Y0115787D01*
X0198269Y0115823D01*
X0198320Y0115856D01*
X0198372Y0115885D01*
X0198427Y0115912D01*
X0198482Y0115935D01*
X0198539Y0115955D01*
X0198598Y0115971D01*
X0198657Y0115984D01*
X0198716Y0115993D01*
X0198777Y0115998D01*
X0198837Y0116000D01*
X0201837Y0116000D02*
X0201897Y0115998D01*
X0201958Y0115993D01*
X0202017Y0115984D01*
X0202076Y0115971D01*
X0202135Y0115955D01*
X0202192Y0115935D01*
X0202247Y0115912D01*
X0202302Y0115885D01*
X0202354Y0115856D01*
X0202405Y0115823D01*
X0202454Y0115787D01*
X0202500Y0115749D01*
X0202544Y0115707D01*
X0202586Y0115663D01*
X0202624Y0115617D01*
X0202660Y0115568D01*
X0202693Y0115517D01*
X0202722Y0115465D01*
X0202749Y0115410D01*
X0202772Y0115355D01*
X0202792Y0115298D01*
X0202808Y0115239D01*
X0202821Y0115180D01*
X0202830Y0115121D01*
X0202835Y0115060D01*
X0202837Y0115000D01*
X0202837Y0107000D02*
X0202835Y0106940D01*
X0202830Y0106879D01*
X0202821Y0106820D01*
X0202808Y0106761D01*
X0202792Y0106702D01*
X0202772Y0106645D01*
X0202749Y0106590D01*
X0202722Y0106535D01*
X0202693Y0106483D01*
X0202660Y0106432D01*
X0202624Y0106383D01*
X0202586Y0106337D01*
X0202544Y0106293D01*
X0202500Y0106251D01*
X0202454Y0106213D01*
X0202405Y0106177D01*
X0202354Y0106144D01*
X0202302Y0106115D01*
X0202247Y0106088D01*
X0202192Y0106065D01*
X0202135Y0106045D01*
X0202076Y0106029D01*
X0202017Y0106016D01*
X0201958Y0106007D01*
X0201897Y0106002D01*
X0201837Y0106000D01*
X0198837Y0106000D02*
X0198777Y0106002D01*
X0198716Y0106007D01*
X0198657Y0106016D01*
X0198598Y0106029D01*
X0198539Y0106045D01*
X0198482Y0106065D01*
X0198427Y0106088D01*
X0198372Y0106115D01*
X0198320Y0106144D01*
X0198269Y0106177D01*
X0198220Y0106213D01*
X0198174Y0106251D01*
X0198130Y0106293D01*
X0198088Y0106337D01*
X0198050Y0106383D01*
X0198014Y0106432D01*
X0197981Y0106483D01*
X0197952Y0106535D01*
X0197925Y0106590D01*
X0197902Y0106645D01*
X0197882Y0106702D01*
X0197866Y0106761D01*
X0197853Y0106820D01*
X0197844Y0106879D01*
X0197839Y0106940D01*
X0197837Y0107000D01*
X0173837Y0130500D02*
X0173750Y0130498D01*
X0173663Y0130492D01*
X0173576Y0130483D01*
X0173490Y0130470D01*
X0173404Y0130453D01*
X0173319Y0130432D01*
X0173236Y0130407D01*
X0173153Y0130379D01*
X0173072Y0130348D01*
X0172992Y0130313D01*
X0172914Y0130274D01*
X0172837Y0130232D01*
X0172762Y0130187D01*
X0172690Y0130138D01*
X0172619Y0130087D01*
X0172551Y0130032D01*
X0172486Y0129975D01*
X0172423Y0129914D01*
X0172362Y0129851D01*
X0172305Y0129786D01*
X0172250Y0129718D01*
X0172199Y0129647D01*
X0172150Y0129575D01*
X0172105Y0129500D01*
X0172063Y0129423D01*
X0172024Y0129345D01*
X0171989Y0129265D01*
X0171958Y0129184D01*
X0171930Y0129101D01*
X0171905Y0129018D01*
X0171884Y0128933D01*
X0171867Y0128847D01*
X0171854Y0128761D01*
X0171845Y0128674D01*
X0171839Y0128587D01*
X0171837Y0128500D01*
X0160337Y0117500D02*
X0160337Y0114500D01*
X0160335Y0114440D01*
X0160330Y0114379D01*
X0160321Y0114320D01*
X0160308Y0114261D01*
X0160292Y0114202D01*
X0160272Y0114145D01*
X0160249Y0114090D01*
X0160222Y0114035D01*
X0160193Y0113983D01*
X0160160Y0113932D01*
X0160124Y0113883D01*
X0160086Y0113837D01*
X0160044Y0113793D01*
X0160000Y0113751D01*
X0159954Y0113713D01*
X0159905Y0113677D01*
X0159854Y0113644D01*
X0159802Y0113615D01*
X0159747Y0113588D01*
X0159692Y0113565D01*
X0159635Y0113545D01*
X0159576Y0113529D01*
X0159517Y0113516D01*
X0159458Y0113507D01*
X0159397Y0113502D01*
X0159337Y0113500D01*
X0151337Y0113500D01*
X0151277Y0113502D01*
X0151216Y0113507D01*
X0151157Y0113516D01*
X0151098Y0113529D01*
X0151039Y0113545D01*
X0150982Y0113565D01*
X0150927Y0113588D01*
X0150872Y0113615D01*
X0150820Y0113644D01*
X0150769Y0113677D01*
X0150720Y0113713D01*
X0150674Y0113751D01*
X0150630Y0113793D01*
X0150588Y0113837D01*
X0150550Y0113883D01*
X0150514Y0113932D01*
X0150481Y0113983D01*
X0150452Y0114035D01*
X0150425Y0114090D01*
X0150402Y0114145D01*
X0150382Y0114202D01*
X0150366Y0114261D01*
X0150353Y0114320D01*
X0150344Y0114379D01*
X0150339Y0114440D01*
X0150337Y0114500D01*
X0150337Y0117500D01*
X0150339Y0117560D01*
X0150344Y0117621D01*
X0150353Y0117680D01*
X0150366Y0117739D01*
X0150382Y0117798D01*
X0150402Y0117855D01*
X0150425Y0117910D01*
X0150452Y0117965D01*
X0150481Y0118017D01*
X0150514Y0118068D01*
X0150550Y0118117D01*
X0150588Y0118163D01*
X0150630Y0118207D01*
X0150674Y0118249D01*
X0150720Y0118287D01*
X0150769Y0118323D01*
X0150820Y0118356D01*
X0150872Y0118385D01*
X0150927Y0118412D01*
X0150982Y0118435D01*
X0151039Y0118455D01*
X0151098Y0118471D01*
X0151157Y0118484D01*
X0151216Y0118493D01*
X0151277Y0118498D01*
X0151337Y0118500D01*
X0159337Y0118500D01*
X0159397Y0118498D01*
X0159458Y0118493D01*
X0159517Y0118484D01*
X0159576Y0118471D01*
X0159635Y0118455D01*
X0159692Y0118435D01*
X0159747Y0118412D01*
X0159802Y0118385D01*
X0159854Y0118356D01*
X0159905Y0118323D01*
X0159954Y0118287D01*
X0160000Y0118249D01*
X0160044Y0118207D01*
X0160086Y0118163D01*
X0160124Y0118117D01*
X0160160Y0118068D01*
X0160193Y0118017D01*
X0160222Y0117965D01*
X0160249Y0117910D01*
X0160272Y0117855D01*
X0160292Y0117798D01*
X0160308Y0117739D01*
X0160321Y0117680D01*
X0160330Y0117621D01*
X0160335Y0117560D01*
X0160337Y0117500D01*
X0160335Y0117560D01*
X0160330Y0117621D01*
X0160321Y0117680D01*
X0160308Y0117739D01*
X0160292Y0117798D01*
X0160272Y0117855D01*
X0160249Y0117910D01*
X0160222Y0117965D01*
X0160193Y0118017D01*
X0160160Y0118068D01*
X0160124Y0118117D01*
X0160086Y0118163D01*
X0160044Y0118207D01*
X0160000Y0118249D01*
X0159954Y0118287D01*
X0159905Y0118323D01*
X0159854Y0118356D01*
X0159802Y0118385D01*
X0159747Y0118412D01*
X0159692Y0118435D01*
X0159635Y0118455D01*
X0159576Y0118471D01*
X0159517Y0118484D01*
X0159458Y0118493D01*
X0159397Y0118498D01*
X0159337Y0118500D01*
X0160337Y0114500D02*
X0160335Y0114440D01*
X0160330Y0114379D01*
X0160321Y0114320D01*
X0160308Y0114261D01*
X0160292Y0114202D01*
X0160272Y0114145D01*
X0160249Y0114090D01*
X0160222Y0114035D01*
X0160193Y0113983D01*
X0160160Y0113932D01*
X0160124Y0113883D01*
X0160086Y0113837D01*
X0160044Y0113793D01*
X0160000Y0113751D01*
X0159954Y0113713D01*
X0159905Y0113677D01*
X0159854Y0113644D01*
X0159802Y0113615D01*
X0159747Y0113588D01*
X0159692Y0113565D01*
X0159635Y0113545D01*
X0159576Y0113529D01*
X0159517Y0113516D01*
X0159458Y0113507D01*
X0159397Y0113502D01*
X0159337Y0113500D01*
X0151337Y0113500D02*
X0151277Y0113502D01*
X0151216Y0113507D01*
X0151157Y0113516D01*
X0151098Y0113529D01*
X0151039Y0113545D01*
X0150982Y0113565D01*
X0150927Y0113588D01*
X0150872Y0113615D01*
X0150820Y0113644D01*
X0150769Y0113677D01*
X0150720Y0113713D01*
X0150674Y0113751D01*
X0150630Y0113793D01*
X0150588Y0113837D01*
X0150550Y0113883D01*
X0150514Y0113932D01*
X0150481Y0113983D01*
X0150452Y0114035D01*
X0150425Y0114090D01*
X0150402Y0114145D01*
X0150382Y0114202D01*
X0150366Y0114261D01*
X0150353Y0114320D01*
X0150344Y0114379D01*
X0150339Y0114440D01*
X0150337Y0114500D01*
X0150337Y0117500D02*
X0150339Y0117560D01*
X0150344Y0117621D01*
X0150353Y0117680D01*
X0150366Y0117739D01*
X0150382Y0117798D01*
X0150402Y0117855D01*
X0150425Y0117910D01*
X0150452Y0117965D01*
X0150481Y0118017D01*
X0150514Y0118068D01*
X0150550Y0118117D01*
X0150588Y0118163D01*
X0150630Y0118207D01*
X0150674Y0118249D01*
X0150720Y0118287D01*
X0150769Y0118323D01*
X0150820Y0118356D01*
X0150872Y0118385D01*
X0150927Y0118412D01*
X0150982Y0118435D01*
X0151039Y0118455D01*
X0151098Y0118471D01*
X0151157Y0118484D01*
X0151216Y0118493D01*
X0151277Y0118498D01*
X0151337Y0118500D01*
X0149337Y0123500D02*
X0141337Y0123500D01*
X0141277Y0123502D01*
X0141216Y0123507D01*
X0141157Y0123516D01*
X0141098Y0123529D01*
X0141039Y0123545D01*
X0140982Y0123565D01*
X0140927Y0123588D01*
X0140872Y0123615D01*
X0140820Y0123644D01*
X0140769Y0123677D01*
X0140720Y0123713D01*
X0140674Y0123751D01*
X0140630Y0123793D01*
X0140588Y0123837D01*
X0140550Y0123883D01*
X0140514Y0123932D01*
X0140481Y0123983D01*
X0140452Y0124035D01*
X0140425Y0124090D01*
X0140402Y0124145D01*
X0140382Y0124202D01*
X0140366Y0124261D01*
X0140353Y0124320D01*
X0140344Y0124379D01*
X0140339Y0124440D01*
X0140337Y0124500D01*
X0140337Y0127500D01*
X0140339Y0127560D01*
X0140344Y0127621D01*
X0140353Y0127680D01*
X0140366Y0127739D01*
X0140382Y0127798D01*
X0140402Y0127855D01*
X0140425Y0127910D01*
X0140452Y0127965D01*
X0140481Y0128017D01*
X0140514Y0128068D01*
X0140550Y0128117D01*
X0140588Y0128163D01*
X0140630Y0128207D01*
X0140674Y0128249D01*
X0140720Y0128287D01*
X0140769Y0128323D01*
X0140820Y0128356D01*
X0140872Y0128385D01*
X0140927Y0128412D01*
X0140982Y0128435D01*
X0141039Y0128455D01*
X0141098Y0128471D01*
X0141157Y0128484D01*
X0141216Y0128493D01*
X0141277Y0128498D01*
X0141337Y0128500D01*
X0149337Y0128500D01*
X0149397Y0128498D01*
X0149458Y0128493D01*
X0149517Y0128484D01*
X0149576Y0128471D01*
X0149635Y0128455D01*
X0149692Y0128435D01*
X0149747Y0128412D01*
X0149802Y0128385D01*
X0149854Y0128356D01*
X0149905Y0128323D01*
X0149954Y0128287D01*
X0150000Y0128249D01*
X0150044Y0128207D01*
X0150086Y0128163D01*
X0150124Y0128117D01*
X0150160Y0128068D01*
X0150193Y0128017D01*
X0150222Y0127965D01*
X0150249Y0127910D01*
X0150272Y0127855D01*
X0150292Y0127798D01*
X0150308Y0127739D01*
X0150321Y0127680D01*
X0150330Y0127621D01*
X0150335Y0127560D01*
X0150337Y0127500D01*
X0150337Y0124500D01*
X0150335Y0124440D01*
X0150330Y0124379D01*
X0150321Y0124320D01*
X0150308Y0124261D01*
X0150292Y0124202D01*
X0150272Y0124145D01*
X0150249Y0124090D01*
X0150222Y0124035D01*
X0150193Y0123983D01*
X0150160Y0123932D01*
X0150124Y0123883D01*
X0150086Y0123837D01*
X0150044Y0123793D01*
X0150000Y0123751D01*
X0149954Y0123713D01*
X0149905Y0123677D01*
X0149854Y0123644D01*
X0149802Y0123615D01*
X0149747Y0123588D01*
X0149692Y0123565D01*
X0149635Y0123545D01*
X0149576Y0123529D01*
X0149517Y0123516D01*
X0149458Y0123507D01*
X0149397Y0123502D01*
X0149337Y0123500D01*
X0149397Y0123502D01*
X0149458Y0123507D01*
X0149517Y0123516D01*
X0149576Y0123529D01*
X0149635Y0123545D01*
X0149692Y0123565D01*
X0149747Y0123588D01*
X0149802Y0123615D01*
X0149854Y0123644D01*
X0149905Y0123677D01*
X0149954Y0123713D01*
X0150000Y0123751D01*
X0150044Y0123793D01*
X0150086Y0123837D01*
X0150124Y0123883D01*
X0150160Y0123932D01*
X0150193Y0123983D01*
X0150222Y0124035D01*
X0150249Y0124090D01*
X0150272Y0124145D01*
X0150292Y0124202D01*
X0150308Y0124261D01*
X0150321Y0124320D01*
X0150330Y0124379D01*
X0150335Y0124440D01*
X0150337Y0124500D01*
X0150337Y0127500D02*
X0150335Y0127560D01*
X0150330Y0127621D01*
X0150321Y0127680D01*
X0150308Y0127739D01*
X0150292Y0127798D01*
X0150272Y0127855D01*
X0150249Y0127910D01*
X0150222Y0127965D01*
X0150193Y0128017D01*
X0150160Y0128068D01*
X0150124Y0128117D01*
X0150086Y0128163D01*
X0150044Y0128207D01*
X0150000Y0128249D01*
X0149954Y0128287D01*
X0149905Y0128323D01*
X0149854Y0128356D01*
X0149802Y0128385D01*
X0149747Y0128412D01*
X0149692Y0128435D01*
X0149635Y0128455D01*
X0149576Y0128471D01*
X0149517Y0128484D01*
X0149458Y0128493D01*
X0149397Y0128498D01*
X0149337Y0128500D01*
X0141337Y0128500D02*
X0141277Y0128498D01*
X0141216Y0128493D01*
X0141157Y0128484D01*
X0141098Y0128471D01*
X0141039Y0128455D01*
X0140982Y0128435D01*
X0140927Y0128412D01*
X0140872Y0128385D01*
X0140820Y0128356D01*
X0140769Y0128323D01*
X0140720Y0128287D01*
X0140674Y0128249D01*
X0140630Y0128207D01*
X0140588Y0128163D01*
X0140550Y0128117D01*
X0140514Y0128068D01*
X0140481Y0128017D01*
X0140452Y0127965D01*
X0140425Y0127910D01*
X0140402Y0127855D01*
X0140382Y0127798D01*
X0140366Y0127739D01*
X0140353Y0127680D01*
X0140344Y0127621D01*
X0140339Y0127560D01*
X0140337Y0127500D01*
X0140337Y0124500D02*
X0140339Y0124440D01*
X0140344Y0124379D01*
X0140353Y0124320D01*
X0140366Y0124261D01*
X0140382Y0124202D01*
X0140402Y0124145D01*
X0140425Y0124090D01*
X0140452Y0124035D01*
X0140481Y0123983D01*
X0140514Y0123932D01*
X0140550Y0123883D01*
X0140588Y0123837D01*
X0140630Y0123793D01*
X0140674Y0123751D01*
X0140720Y0123713D01*
X0140769Y0123677D01*
X0140820Y0123644D01*
X0140872Y0123615D01*
X0140927Y0123588D01*
X0140982Y0123565D01*
X0141039Y0123545D01*
X0141098Y0123529D01*
X0141157Y0123516D01*
X0141216Y0123507D01*
X0141277Y0123502D01*
X0141337Y0123500D01*
X0139337Y0111000D02*
X0146837Y0111000D01*
X0146837Y0071000D01*
X0123837Y0071000D01*
X0123837Y0111000D01*
X0131337Y0111000D01*
X0131339Y0110874D01*
X0131345Y0110749D01*
X0131355Y0110624D01*
X0131369Y0110499D01*
X0131386Y0110374D01*
X0131408Y0110250D01*
X0131433Y0110127D01*
X0131463Y0110005D01*
X0131496Y0109884D01*
X0131533Y0109764D01*
X0131573Y0109645D01*
X0131618Y0109528D01*
X0131666Y0109411D01*
X0131718Y0109297D01*
X0131773Y0109184D01*
X0131832Y0109073D01*
X0131894Y0108964D01*
X0131960Y0108857D01*
X0132029Y0108752D01*
X0132101Y0108649D01*
X0132176Y0108548D01*
X0132255Y0108450D01*
X0132337Y0108355D01*
X0132421Y0108262D01*
X0132509Y0108172D01*
X0132599Y0108084D01*
X0132692Y0108000D01*
X0132787Y0107918D01*
X0132885Y0107839D01*
X0132986Y0107764D01*
X0133089Y0107692D01*
X0133194Y0107623D01*
X0133301Y0107557D01*
X0133410Y0107495D01*
X0133521Y0107436D01*
X0133634Y0107381D01*
X0133748Y0107329D01*
X0133865Y0107281D01*
X0133982Y0107236D01*
X0134101Y0107196D01*
X0134221Y0107159D01*
X0134342Y0107126D01*
X0134464Y0107096D01*
X0134587Y0107071D01*
X0134711Y0107049D01*
X0134836Y0107032D01*
X0134961Y0107018D01*
X0135086Y0107008D01*
X0135211Y0107002D01*
X0135337Y0107000D01*
X0135463Y0107002D01*
X0135588Y0107008D01*
X0135713Y0107018D01*
X0135838Y0107032D01*
X0135963Y0107049D01*
X0136087Y0107071D01*
X0136210Y0107096D01*
X0136332Y0107126D01*
X0136453Y0107159D01*
X0136573Y0107196D01*
X0136692Y0107236D01*
X0136809Y0107281D01*
X0136926Y0107329D01*
X0137040Y0107381D01*
X0137153Y0107436D01*
X0137264Y0107495D01*
X0137373Y0107557D01*
X0137480Y0107623D01*
X0137585Y0107692D01*
X0137688Y0107764D01*
X0137789Y0107839D01*
X0137887Y0107918D01*
X0137982Y0108000D01*
X0138075Y0108084D01*
X0138165Y0108172D01*
X0138253Y0108262D01*
X0138337Y0108355D01*
X0138419Y0108450D01*
X0138498Y0108548D01*
X0138573Y0108649D01*
X0138645Y0108752D01*
X0138714Y0108857D01*
X0138780Y0108964D01*
X0138842Y0109073D01*
X0138901Y0109184D01*
X0138956Y0109297D01*
X0139008Y0109411D01*
X0139056Y0109528D01*
X0139101Y0109645D01*
X0139141Y0109764D01*
X0139178Y0109884D01*
X0139211Y0110005D01*
X0139241Y0110127D01*
X0139266Y0110250D01*
X0139288Y0110374D01*
X0139305Y0110499D01*
X0139319Y0110624D01*
X0139329Y0110749D01*
X0139335Y0110874D01*
X0139337Y0111000D01*
X0158837Y0086000D02*
X0161837Y0086000D01*
X0161897Y0085998D01*
X0161958Y0085993D01*
X0162017Y0085984D01*
X0162076Y0085971D01*
X0162135Y0085955D01*
X0162192Y0085935D01*
X0162247Y0085912D01*
X0162302Y0085885D01*
X0162354Y0085856D01*
X0162405Y0085823D01*
X0162454Y0085787D01*
X0162500Y0085749D01*
X0162544Y0085707D01*
X0162586Y0085663D01*
X0162624Y0085617D01*
X0162660Y0085568D01*
X0162693Y0085517D01*
X0162722Y0085465D01*
X0162749Y0085410D01*
X0162772Y0085355D01*
X0162792Y0085298D01*
X0162808Y0085239D01*
X0162821Y0085180D01*
X0162830Y0085121D01*
X0162835Y0085060D01*
X0162837Y0085000D01*
X0162837Y0077000D01*
X0162835Y0076940D01*
X0162830Y0076879D01*
X0162821Y0076820D01*
X0162808Y0076761D01*
X0162792Y0076702D01*
X0162772Y0076645D01*
X0162749Y0076590D01*
X0162722Y0076535D01*
X0162693Y0076483D01*
X0162660Y0076432D01*
X0162624Y0076383D01*
X0162586Y0076337D01*
X0162544Y0076293D01*
X0162500Y0076251D01*
X0162454Y0076213D01*
X0162405Y0076177D01*
X0162354Y0076144D01*
X0162302Y0076115D01*
X0162247Y0076088D01*
X0162192Y0076065D01*
X0162135Y0076045D01*
X0162076Y0076029D01*
X0162017Y0076016D01*
X0161958Y0076007D01*
X0161897Y0076002D01*
X0161837Y0076000D01*
X0158837Y0076000D01*
X0158777Y0076002D01*
X0158716Y0076007D01*
X0158657Y0076016D01*
X0158598Y0076029D01*
X0158539Y0076045D01*
X0158482Y0076065D01*
X0158427Y0076088D01*
X0158372Y0076115D01*
X0158320Y0076144D01*
X0158269Y0076177D01*
X0158220Y0076213D01*
X0158174Y0076251D01*
X0158130Y0076293D01*
X0158088Y0076337D01*
X0158050Y0076383D01*
X0158014Y0076432D01*
X0157981Y0076483D01*
X0157952Y0076535D01*
X0157925Y0076590D01*
X0157902Y0076645D01*
X0157882Y0076702D01*
X0157866Y0076761D01*
X0157853Y0076820D01*
X0157844Y0076879D01*
X0157839Y0076940D01*
X0157837Y0077000D01*
X0157837Y0085000D01*
X0157839Y0085060D01*
X0157844Y0085121D01*
X0157853Y0085180D01*
X0157866Y0085239D01*
X0157882Y0085298D01*
X0157902Y0085355D01*
X0157925Y0085410D01*
X0157952Y0085465D01*
X0157981Y0085517D01*
X0158014Y0085568D01*
X0158050Y0085617D01*
X0158088Y0085663D01*
X0158130Y0085707D01*
X0158174Y0085749D01*
X0158220Y0085787D01*
X0158269Y0085823D01*
X0158320Y0085856D01*
X0158372Y0085885D01*
X0158427Y0085912D01*
X0158482Y0085935D01*
X0158539Y0085955D01*
X0158598Y0085971D01*
X0158657Y0085984D01*
X0158716Y0085993D01*
X0158777Y0085998D01*
X0158837Y0086000D01*
X0158777Y0085998D01*
X0158716Y0085993D01*
X0158657Y0085984D01*
X0158598Y0085971D01*
X0158539Y0085955D01*
X0158482Y0085935D01*
X0158427Y0085912D01*
X0158372Y0085885D01*
X0158320Y0085856D01*
X0158269Y0085823D01*
X0158220Y0085787D01*
X0158174Y0085749D01*
X0158130Y0085707D01*
X0158088Y0085663D01*
X0158050Y0085617D01*
X0158014Y0085568D01*
X0157981Y0085517D01*
X0157952Y0085465D01*
X0157925Y0085410D01*
X0157902Y0085355D01*
X0157882Y0085298D01*
X0157866Y0085239D01*
X0157853Y0085180D01*
X0157844Y0085121D01*
X0157839Y0085060D01*
X0157837Y0085000D01*
X0161837Y0086000D02*
X0161897Y0085998D01*
X0161958Y0085993D01*
X0162017Y0085984D01*
X0162076Y0085971D01*
X0162135Y0085955D01*
X0162192Y0085935D01*
X0162247Y0085912D01*
X0162302Y0085885D01*
X0162354Y0085856D01*
X0162405Y0085823D01*
X0162454Y0085787D01*
X0162500Y0085749D01*
X0162544Y0085707D01*
X0162586Y0085663D01*
X0162624Y0085617D01*
X0162660Y0085568D01*
X0162693Y0085517D01*
X0162722Y0085465D01*
X0162749Y0085410D01*
X0162772Y0085355D01*
X0162792Y0085298D01*
X0162808Y0085239D01*
X0162821Y0085180D01*
X0162830Y0085121D01*
X0162835Y0085060D01*
X0162837Y0085000D01*
X0162837Y0077000D02*
X0162835Y0076940D01*
X0162830Y0076879D01*
X0162821Y0076820D01*
X0162808Y0076761D01*
X0162792Y0076702D01*
X0162772Y0076645D01*
X0162749Y0076590D01*
X0162722Y0076535D01*
X0162693Y0076483D01*
X0162660Y0076432D01*
X0162624Y0076383D01*
X0162586Y0076337D01*
X0162544Y0076293D01*
X0162500Y0076251D01*
X0162454Y0076213D01*
X0162405Y0076177D01*
X0162354Y0076144D01*
X0162302Y0076115D01*
X0162247Y0076088D01*
X0162192Y0076065D01*
X0162135Y0076045D01*
X0162076Y0076029D01*
X0162017Y0076016D01*
X0161958Y0076007D01*
X0161897Y0076002D01*
X0161837Y0076000D01*
X0158837Y0076000D02*
X0158777Y0076002D01*
X0158716Y0076007D01*
X0158657Y0076016D01*
X0158598Y0076029D01*
X0158539Y0076045D01*
X0158482Y0076065D01*
X0158427Y0076088D01*
X0158372Y0076115D01*
X0158320Y0076144D01*
X0158269Y0076177D01*
X0158220Y0076213D01*
X0158174Y0076251D01*
X0158130Y0076293D01*
X0158088Y0076337D01*
X0158050Y0076383D01*
X0158014Y0076432D01*
X0157981Y0076483D01*
X0157952Y0076535D01*
X0157925Y0076590D01*
X0157902Y0076645D01*
X0157882Y0076702D01*
X0157866Y0076761D01*
X0157853Y0076820D01*
X0157844Y0076879D01*
X0157839Y0076940D01*
X0157837Y0077000D01*
X0110337Y0124500D02*
X0110337Y0127500D01*
X0110335Y0127560D01*
X0110330Y0127621D01*
X0110321Y0127680D01*
X0110308Y0127739D01*
X0110292Y0127798D01*
X0110272Y0127855D01*
X0110249Y0127910D01*
X0110222Y0127965D01*
X0110193Y0128017D01*
X0110160Y0128068D01*
X0110124Y0128117D01*
X0110086Y0128163D01*
X0110044Y0128207D01*
X0110000Y0128249D01*
X0109954Y0128287D01*
X0109905Y0128323D01*
X0109854Y0128356D01*
X0109802Y0128385D01*
X0109747Y0128412D01*
X0109692Y0128435D01*
X0109635Y0128455D01*
X0109576Y0128471D01*
X0109517Y0128484D01*
X0109458Y0128493D01*
X0109397Y0128498D01*
X0109337Y0128500D01*
X0101337Y0128500D01*
X0101277Y0128498D01*
X0101216Y0128493D01*
X0101157Y0128484D01*
X0101098Y0128471D01*
X0101039Y0128455D01*
X0100982Y0128435D01*
X0100927Y0128412D01*
X0100872Y0128385D01*
X0100820Y0128356D01*
X0100769Y0128323D01*
X0100720Y0128287D01*
X0100674Y0128249D01*
X0100630Y0128207D01*
X0100588Y0128163D01*
X0100550Y0128117D01*
X0100514Y0128068D01*
X0100481Y0128017D01*
X0100452Y0127965D01*
X0100425Y0127910D01*
X0100402Y0127855D01*
X0100382Y0127798D01*
X0100366Y0127739D01*
X0100353Y0127680D01*
X0100344Y0127621D01*
X0100339Y0127560D01*
X0100337Y0127500D01*
X0100337Y0124500D01*
X0100339Y0124440D01*
X0100344Y0124379D01*
X0100353Y0124320D01*
X0100366Y0124261D01*
X0100382Y0124202D01*
X0100402Y0124145D01*
X0100425Y0124090D01*
X0100452Y0124035D01*
X0100481Y0123983D01*
X0100514Y0123932D01*
X0100550Y0123883D01*
X0100588Y0123837D01*
X0100630Y0123793D01*
X0100674Y0123751D01*
X0100720Y0123713D01*
X0100769Y0123677D01*
X0100820Y0123644D01*
X0100872Y0123615D01*
X0100927Y0123588D01*
X0100982Y0123565D01*
X0101039Y0123545D01*
X0101098Y0123529D01*
X0101157Y0123516D01*
X0101216Y0123507D01*
X0101277Y0123502D01*
X0101337Y0123500D01*
X0109337Y0123500D01*
X0109397Y0123502D01*
X0109458Y0123507D01*
X0109517Y0123516D01*
X0109576Y0123529D01*
X0109635Y0123545D01*
X0109692Y0123565D01*
X0109747Y0123588D01*
X0109802Y0123615D01*
X0109854Y0123644D01*
X0109905Y0123677D01*
X0109954Y0123713D01*
X0110000Y0123751D01*
X0110044Y0123793D01*
X0110086Y0123837D01*
X0110124Y0123883D01*
X0110160Y0123932D01*
X0110193Y0123983D01*
X0110222Y0124035D01*
X0110249Y0124090D01*
X0110272Y0124145D01*
X0110292Y0124202D01*
X0110308Y0124261D01*
X0110321Y0124320D01*
X0110330Y0124379D01*
X0110335Y0124440D01*
X0110337Y0124500D01*
X0110335Y0124440D01*
X0110330Y0124379D01*
X0110321Y0124320D01*
X0110308Y0124261D01*
X0110292Y0124202D01*
X0110272Y0124145D01*
X0110249Y0124090D01*
X0110222Y0124035D01*
X0110193Y0123983D01*
X0110160Y0123932D01*
X0110124Y0123883D01*
X0110086Y0123837D01*
X0110044Y0123793D01*
X0110000Y0123751D01*
X0109954Y0123713D01*
X0109905Y0123677D01*
X0109854Y0123644D01*
X0109802Y0123615D01*
X0109747Y0123588D01*
X0109692Y0123565D01*
X0109635Y0123545D01*
X0109576Y0123529D01*
X0109517Y0123516D01*
X0109458Y0123507D01*
X0109397Y0123502D01*
X0109337Y0123500D01*
X0110337Y0127500D02*
X0110335Y0127560D01*
X0110330Y0127621D01*
X0110321Y0127680D01*
X0110308Y0127739D01*
X0110292Y0127798D01*
X0110272Y0127855D01*
X0110249Y0127910D01*
X0110222Y0127965D01*
X0110193Y0128017D01*
X0110160Y0128068D01*
X0110124Y0128117D01*
X0110086Y0128163D01*
X0110044Y0128207D01*
X0110000Y0128249D01*
X0109954Y0128287D01*
X0109905Y0128323D01*
X0109854Y0128356D01*
X0109802Y0128385D01*
X0109747Y0128412D01*
X0109692Y0128435D01*
X0109635Y0128455D01*
X0109576Y0128471D01*
X0109517Y0128484D01*
X0109458Y0128493D01*
X0109397Y0128498D01*
X0109337Y0128500D01*
X0101337Y0128500D02*
X0101277Y0128498D01*
X0101216Y0128493D01*
X0101157Y0128484D01*
X0101098Y0128471D01*
X0101039Y0128455D01*
X0100982Y0128435D01*
X0100927Y0128412D01*
X0100872Y0128385D01*
X0100820Y0128356D01*
X0100769Y0128323D01*
X0100720Y0128287D01*
X0100674Y0128249D01*
X0100630Y0128207D01*
X0100588Y0128163D01*
X0100550Y0128117D01*
X0100514Y0128068D01*
X0100481Y0128017D01*
X0100452Y0127965D01*
X0100425Y0127910D01*
X0100402Y0127855D01*
X0100382Y0127798D01*
X0100366Y0127739D01*
X0100353Y0127680D01*
X0100344Y0127621D01*
X0100339Y0127560D01*
X0100337Y0127500D01*
X0100337Y0124500D02*
X0100339Y0124440D01*
X0100344Y0124379D01*
X0100353Y0124320D01*
X0100366Y0124261D01*
X0100382Y0124202D01*
X0100402Y0124145D01*
X0100425Y0124090D01*
X0100452Y0124035D01*
X0100481Y0123983D01*
X0100514Y0123932D01*
X0100550Y0123883D01*
X0100588Y0123837D01*
X0100630Y0123793D01*
X0100674Y0123751D01*
X0100720Y0123713D01*
X0100769Y0123677D01*
X0100820Y0123644D01*
X0100872Y0123615D01*
X0100927Y0123588D01*
X0100982Y0123565D01*
X0101039Y0123545D01*
X0101098Y0123529D01*
X0101157Y0123516D01*
X0101216Y0123507D01*
X0101277Y0123502D01*
X0101337Y0123500D01*
X0096837Y0120500D02*
X0083837Y0120500D01*
X0083750Y0120498D01*
X0083663Y0120492D01*
X0083576Y0120483D01*
X0083490Y0120470D01*
X0083404Y0120453D01*
X0083319Y0120432D01*
X0083236Y0120407D01*
X0083153Y0120379D01*
X0083072Y0120348D01*
X0082992Y0120313D01*
X0082914Y0120274D01*
X0082837Y0120232D01*
X0082762Y0120187D01*
X0082690Y0120138D01*
X0082619Y0120087D01*
X0082551Y0120032D01*
X0082486Y0119975D01*
X0082423Y0119914D01*
X0082362Y0119851D01*
X0082305Y0119786D01*
X0082250Y0119718D01*
X0082199Y0119647D01*
X0082150Y0119575D01*
X0082105Y0119500D01*
X0082063Y0119423D01*
X0082024Y0119345D01*
X0081989Y0119265D01*
X0081958Y0119184D01*
X0081930Y0119101D01*
X0081905Y0119018D01*
X0081884Y0118933D01*
X0081867Y0118847D01*
X0081854Y0118761D01*
X0081845Y0118674D01*
X0081839Y0118587D01*
X0081837Y0118500D01*
X0085337Y0116000D02*
X0089037Y0116000D01*
X0091537Y0116000D02*
X0095337Y0116000D01*
X0098837Y0113500D02*
X0098835Y0113413D01*
X0098829Y0113326D01*
X0098820Y0113239D01*
X0098807Y0113153D01*
X0098790Y0113067D01*
X0098769Y0112982D01*
X0098744Y0112899D01*
X0098716Y0112816D01*
X0098685Y0112735D01*
X0098650Y0112655D01*
X0098611Y0112577D01*
X0098569Y0112500D01*
X0098524Y0112425D01*
X0098475Y0112353D01*
X0098424Y0112282D01*
X0098369Y0112214D01*
X0098312Y0112149D01*
X0098251Y0112086D01*
X0098188Y0112025D01*
X0098123Y0111968D01*
X0098055Y0111913D01*
X0097984Y0111862D01*
X0097912Y0111813D01*
X0097837Y0111768D01*
X0097760Y0111726D01*
X0097682Y0111687D01*
X0097602Y0111652D01*
X0097521Y0111621D01*
X0097438Y0111593D01*
X0097355Y0111568D01*
X0097270Y0111547D01*
X0097184Y0111530D01*
X0097098Y0111517D01*
X0097011Y0111508D01*
X0096924Y0111502D01*
X0096837Y0111500D01*
X0083837Y0111500D01*
X0083750Y0111502D01*
X0083663Y0111508D01*
X0083576Y0111517D01*
X0083490Y0111530D01*
X0083404Y0111547D01*
X0083319Y0111568D01*
X0083236Y0111593D01*
X0083153Y0111621D01*
X0083072Y0111652D01*
X0082992Y0111687D01*
X0082914Y0111726D01*
X0082837Y0111768D01*
X0082762Y0111813D01*
X0082690Y0111862D01*
X0082619Y0111913D01*
X0082551Y0111968D01*
X0082486Y0112025D01*
X0082423Y0112086D01*
X0082362Y0112149D01*
X0082305Y0112214D01*
X0082250Y0112282D01*
X0082199Y0112353D01*
X0082150Y0112425D01*
X0082105Y0112500D01*
X0082063Y0112577D01*
X0082024Y0112655D01*
X0081989Y0112735D01*
X0081958Y0112816D01*
X0081930Y0112899D01*
X0081905Y0112982D01*
X0081884Y0113067D01*
X0081867Y0113153D01*
X0081854Y0113239D01*
X0081845Y0113326D01*
X0081839Y0113413D01*
X0081837Y0113500D01*
X0096837Y0120500D02*
X0096924Y0120498D01*
X0097011Y0120492D01*
X0097098Y0120483D01*
X0097184Y0120470D01*
X0097270Y0120453D01*
X0097355Y0120432D01*
X0097438Y0120407D01*
X0097521Y0120379D01*
X0097602Y0120348D01*
X0097682Y0120313D01*
X0097760Y0120274D01*
X0097837Y0120232D01*
X0097912Y0120187D01*
X0097984Y0120138D01*
X0098055Y0120087D01*
X0098123Y0120032D01*
X0098188Y0119975D01*
X0098251Y0119914D01*
X0098312Y0119851D01*
X0098369Y0119786D01*
X0098424Y0119718D01*
X0098475Y0119647D01*
X0098524Y0119575D01*
X0098569Y0119500D01*
X0098611Y0119423D01*
X0098650Y0119345D01*
X0098685Y0119265D01*
X0098716Y0119184D01*
X0098744Y0119101D01*
X0098769Y0119018D01*
X0098790Y0118933D01*
X0098807Y0118847D01*
X0098820Y0118761D01*
X0098829Y0118674D01*
X0098835Y0118587D01*
X0098837Y0118500D01*
X0089337Y0133500D02*
X0081337Y0133500D01*
X0081277Y0133502D01*
X0081216Y0133507D01*
X0081157Y0133516D01*
X0081098Y0133529D01*
X0081039Y0133545D01*
X0080982Y0133565D01*
X0080927Y0133588D01*
X0080872Y0133615D01*
X0080820Y0133644D01*
X0080769Y0133677D01*
X0080720Y0133713D01*
X0080674Y0133751D01*
X0080630Y0133793D01*
X0080588Y0133837D01*
X0080550Y0133883D01*
X0080514Y0133932D01*
X0080481Y0133983D01*
X0080452Y0134035D01*
X0080425Y0134090D01*
X0080402Y0134145D01*
X0080382Y0134202D01*
X0080366Y0134261D01*
X0080353Y0134320D01*
X0080344Y0134379D01*
X0080339Y0134440D01*
X0080337Y0134500D01*
X0080337Y0137500D01*
X0080339Y0137560D01*
X0080344Y0137621D01*
X0080353Y0137680D01*
X0080366Y0137739D01*
X0080382Y0137798D01*
X0080402Y0137855D01*
X0080425Y0137910D01*
X0080452Y0137965D01*
X0080481Y0138017D01*
X0080514Y0138068D01*
X0080550Y0138117D01*
X0080588Y0138163D01*
X0080630Y0138207D01*
X0080674Y0138249D01*
X0080720Y0138287D01*
X0080769Y0138323D01*
X0080820Y0138356D01*
X0080872Y0138385D01*
X0080927Y0138412D01*
X0080982Y0138435D01*
X0081039Y0138455D01*
X0081098Y0138471D01*
X0081157Y0138484D01*
X0081216Y0138493D01*
X0081277Y0138498D01*
X0081337Y0138500D01*
X0089337Y0138500D01*
X0089397Y0138498D01*
X0089458Y0138493D01*
X0089517Y0138484D01*
X0089576Y0138471D01*
X0089635Y0138455D01*
X0089692Y0138435D01*
X0089747Y0138412D01*
X0089802Y0138385D01*
X0089854Y0138356D01*
X0089905Y0138323D01*
X0089954Y0138287D01*
X0090000Y0138249D01*
X0090044Y0138207D01*
X0090086Y0138163D01*
X0090124Y0138117D01*
X0090160Y0138068D01*
X0090193Y0138017D01*
X0090222Y0137965D01*
X0090249Y0137910D01*
X0090272Y0137855D01*
X0090292Y0137798D01*
X0090308Y0137739D01*
X0090321Y0137680D01*
X0090330Y0137621D01*
X0090335Y0137560D01*
X0090337Y0137500D01*
X0090337Y0134500D01*
X0090335Y0134440D01*
X0090330Y0134379D01*
X0090321Y0134320D01*
X0090308Y0134261D01*
X0090292Y0134202D01*
X0090272Y0134145D01*
X0090249Y0134090D01*
X0090222Y0134035D01*
X0090193Y0133983D01*
X0090160Y0133932D01*
X0090124Y0133883D01*
X0090086Y0133837D01*
X0090044Y0133793D01*
X0090000Y0133751D01*
X0089954Y0133713D01*
X0089905Y0133677D01*
X0089854Y0133644D01*
X0089802Y0133615D01*
X0089747Y0133588D01*
X0089692Y0133565D01*
X0089635Y0133545D01*
X0089576Y0133529D01*
X0089517Y0133516D01*
X0089458Y0133507D01*
X0089397Y0133502D01*
X0089337Y0133500D01*
X0089397Y0133502D01*
X0089458Y0133507D01*
X0089517Y0133516D01*
X0089576Y0133529D01*
X0089635Y0133545D01*
X0089692Y0133565D01*
X0089747Y0133588D01*
X0089802Y0133615D01*
X0089854Y0133644D01*
X0089905Y0133677D01*
X0089954Y0133713D01*
X0090000Y0133751D01*
X0090044Y0133793D01*
X0090086Y0133837D01*
X0090124Y0133883D01*
X0090160Y0133932D01*
X0090193Y0133983D01*
X0090222Y0134035D01*
X0090249Y0134090D01*
X0090272Y0134145D01*
X0090292Y0134202D01*
X0090308Y0134261D01*
X0090321Y0134320D01*
X0090330Y0134379D01*
X0090335Y0134440D01*
X0090337Y0134500D01*
X0090337Y0137500D02*
X0090335Y0137560D01*
X0090330Y0137621D01*
X0090321Y0137680D01*
X0090308Y0137739D01*
X0090292Y0137798D01*
X0090272Y0137855D01*
X0090249Y0137910D01*
X0090222Y0137965D01*
X0090193Y0138017D01*
X0090160Y0138068D01*
X0090124Y0138117D01*
X0090086Y0138163D01*
X0090044Y0138207D01*
X0090000Y0138249D01*
X0089954Y0138287D01*
X0089905Y0138323D01*
X0089854Y0138356D01*
X0089802Y0138385D01*
X0089747Y0138412D01*
X0089692Y0138435D01*
X0089635Y0138455D01*
X0089576Y0138471D01*
X0089517Y0138484D01*
X0089458Y0138493D01*
X0089397Y0138498D01*
X0089337Y0138500D01*
X0081337Y0138500D02*
X0081277Y0138498D01*
X0081216Y0138493D01*
X0081157Y0138484D01*
X0081098Y0138471D01*
X0081039Y0138455D01*
X0080982Y0138435D01*
X0080927Y0138412D01*
X0080872Y0138385D01*
X0080820Y0138356D01*
X0080769Y0138323D01*
X0080720Y0138287D01*
X0080674Y0138249D01*
X0080630Y0138207D01*
X0080588Y0138163D01*
X0080550Y0138117D01*
X0080514Y0138068D01*
X0080481Y0138017D01*
X0080452Y0137965D01*
X0080425Y0137910D01*
X0080402Y0137855D01*
X0080382Y0137798D01*
X0080366Y0137739D01*
X0080353Y0137680D01*
X0080344Y0137621D01*
X0080339Y0137560D01*
X0080337Y0137500D01*
X0080337Y0134500D02*
X0080339Y0134440D01*
X0080344Y0134379D01*
X0080353Y0134320D01*
X0080366Y0134261D01*
X0080382Y0134202D01*
X0080402Y0134145D01*
X0080425Y0134090D01*
X0080452Y0134035D01*
X0080481Y0133983D01*
X0080514Y0133932D01*
X0080550Y0133883D01*
X0080588Y0133837D01*
X0080630Y0133793D01*
X0080674Y0133751D01*
X0080720Y0133713D01*
X0080769Y0133677D01*
X0080820Y0133644D01*
X0080872Y0133615D01*
X0080927Y0133588D01*
X0080982Y0133565D01*
X0081039Y0133545D01*
X0081098Y0133529D01*
X0081157Y0133516D01*
X0081216Y0133507D01*
X0081277Y0133502D01*
X0081337Y0133500D01*
X0056837Y0130500D02*
X0043837Y0130500D01*
X0043750Y0130498D01*
X0043663Y0130492D01*
X0043576Y0130483D01*
X0043490Y0130470D01*
X0043404Y0130453D01*
X0043319Y0130432D01*
X0043236Y0130407D01*
X0043153Y0130379D01*
X0043072Y0130348D01*
X0042992Y0130313D01*
X0042914Y0130274D01*
X0042837Y0130232D01*
X0042762Y0130187D01*
X0042690Y0130138D01*
X0042619Y0130087D01*
X0042551Y0130032D01*
X0042486Y0129975D01*
X0042423Y0129914D01*
X0042362Y0129851D01*
X0042305Y0129786D01*
X0042250Y0129718D01*
X0042199Y0129647D01*
X0042150Y0129575D01*
X0042105Y0129500D01*
X0042063Y0129423D01*
X0042024Y0129345D01*
X0041989Y0129265D01*
X0041958Y0129184D01*
X0041930Y0129101D01*
X0041905Y0129018D01*
X0041884Y0128933D01*
X0041867Y0128847D01*
X0041854Y0128761D01*
X0041845Y0128674D01*
X0041839Y0128587D01*
X0041837Y0128500D01*
X0045337Y0126000D02*
X0049037Y0126000D01*
X0051537Y0126000D02*
X0055337Y0126000D01*
X0058837Y0123500D02*
X0058835Y0123413D01*
X0058829Y0123326D01*
X0058820Y0123239D01*
X0058807Y0123153D01*
X0058790Y0123067D01*
X0058769Y0122982D01*
X0058744Y0122899D01*
X0058716Y0122816D01*
X0058685Y0122735D01*
X0058650Y0122655D01*
X0058611Y0122577D01*
X0058569Y0122500D01*
X0058524Y0122425D01*
X0058475Y0122353D01*
X0058424Y0122282D01*
X0058369Y0122214D01*
X0058312Y0122149D01*
X0058251Y0122086D01*
X0058188Y0122025D01*
X0058123Y0121968D01*
X0058055Y0121913D01*
X0057984Y0121862D01*
X0057912Y0121813D01*
X0057837Y0121768D01*
X0057760Y0121726D01*
X0057682Y0121687D01*
X0057602Y0121652D01*
X0057521Y0121621D01*
X0057438Y0121593D01*
X0057355Y0121568D01*
X0057270Y0121547D01*
X0057184Y0121530D01*
X0057098Y0121517D01*
X0057011Y0121508D01*
X0056924Y0121502D01*
X0056837Y0121500D01*
X0043837Y0121500D01*
X0043750Y0121502D01*
X0043663Y0121508D01*
X0043576Y0121517D01*
X0043490Y0121530D01*
X0043404Y0121547D01*
X0043319Y0121568D01*
X0043236Y0121593D01*
X0043153Y0121621D01*
X0043072Y0121652D01*
X0042992Y0121687D01*
X0042914Y0121726D01*
X0042837Y0121768D01*
X0042762Y0121813D01*
X0042690Y0121862D01*
X0042619Y0121913D01*
X0042551Y0121968D01*
X0042486Y0122025D01*
X0042423Y0122086D01*
X0042362Y0122149D01*
X0042305Y0122214D01*
X0042250Y0122282D01*
X0042199Y0122353D01*
X0042150Y0122425D01*
X0042105Y0122500D01*
X0042063Y0122577D01*
X0042024Y0122655D01*
X0041989Y0122735D01*
X0041958Y0122816D01*
X0041930Y0122899D01*
X0041905Y0122982D01*
X0041884Y0123067D01*
X0041867Y0123153D01*
X0041854Y0123239D01*
X0041845Y0123326D01*
X0041839Y0123413D01*
X0041837Y0123500D01*
X0039337Y0118500D02*
X0031337Y0118500D01*
X0031277Y0118498D01*
X0031216Y0118493D01*
X0031157Y0118484D01*
X0031098Y0118471D01*
X0031039Y0118455D01*
X0030982Y0118435D01*
X0030927Y0118412D01*
X0030872Y0118385D01*
X0030820Y0118356D01*
X0030769Y0118323D01*
X0030720Y0118287D01*
X0030674Y0118249D01*
X0030630Y0118207D01*
X0030588Y0118163D01*
X0030550Y0118117D01*
X0030514Y0118068D01*
X0030481Y0118017D01*
X0030452Y0117965D01*
X0030425Y0117910D01*
X0030402Y0117855D01*
X0030382Y0117798D01*
X0030366Y0117739D01*
X0030353Y0117680D01*
X0030344Y0117621D01*
X0030339Y0117560D01*
X0030337Y0117500D01*
X0030337Y0114500D01*
X0030339Y0114440D01*
X0030344Y0114379D01*
X0030353Y0114320D01*
X0030366Y0114261D01*
X0030382Y0114202D01*
X0030402Y0114145D01*
X0030425Y0114090D01*
X0030452Y0114035D01*
X0030481Y0113983D01*
X0030514Y0113932D01*
X0030550Y0113883D01*
X0030588Y0113837D01*
X0030630Y0113793D01*
X0030674Y0113751D01*
X0030720Y0113713D01*
X0030769Y0113677D01*
X0030820Y0113644D01*
X0030872Y0113615D01*
X0030927Y0113588D01*
X0030982Y0113565D01*
X0031039Y0113545D01*
X0031098Y0113529D01*
X0031157Y0113516D01*
X0031216Y0113507D01*
X0031277Y0113502D01*
X0031337Y0113500D01*
X0039337Y0113500D01*
X0039397Y0113502D01*
X0039458Y0113507D01*
X0039517Y0113516D01*
X0039576Y0113529D01*
X0039635Y0113545D01*
X0039692Y0113565D01*
X0039747Y0113588D01*
X0039802Y0113615D01*
X0039854Y0113644D01*
X0039905Y0113677D01*
X0039954Y0113713D01*
X0040000Y0113751D01*
X0040044Y0113793D01*
X0040086Y0113837D01*
X0040124Y0113883D01*
X0040160Y0113932D01*
X0040193Y0113983D01*
X0040222Y0114035D01*
X0040249Y0114090D01*
X0040272Y0114145D01*
X0040292Y0114202D01*
X0040308Y0114261D01*
X0040321Y0114320D01*
X0040330Y0114379D01*
X0040335Y0114440D01*
X0040337Y0114500D01*
X0040337Y0117500D01*
X0040335Y0117560D01*
X0040330Y0117621D01*
X0040321Y0117680D01*
X0040308Y0117739D01*
X0040292Y0117798D01*
X0040272Y0117855D01*
X0040249Y0117910D01*
X0040222Y0117965D01*
X0040193Y0118017D01*
X0040160Y0118068D01*
X0040124Y0118117D01*
X0040086Y0118163D01*
X0040044Y0118207D01*
X0040000Y0118249D01*
X0039954Y0118287D01*
X0039905Y0118323D01*
X0039854Y0118356D01*
X0039802Y0118385D01*
X0039747Y0118412D01*
X0039692Y0118435D01*
X0039635Y0118455D01*
X0039576Y0118471D01*
X0039517Y0118484D01*
X0039458Y0118493D01*
X0039397Y0118498D01*
X0039337Y0118500D01*
X0039397Y0118498D01*
X0039458Y0118493D01*
X0039517Y0118484D01*
X0039576Y0118471D01*
X0039635Y0118455D01*
X0039692Y0118435D01*
X0039747Y0118412D01*
X0039802Y0118385D01*
X0039854Y0118356D01*
X0039905Y0118323D01*
X0039954Y0118287D01*
X0040000Y0118249D01*
X0040044Y0118207D01*
X0040086Y0118163D01*
X0040124Y0118117D01*
X0040160Y0118068D01*
X0040193Y0118017D01*
X0040222Y0117965D01*
X0040249Y0117910D01*
X0040272Y0117855D01*
X0040292Y0117798D01*
X0040308Y0117739D01*
X0040321Y0117680D01*
X0040330Y0117621D01*
X0040335Y0117560D01*
X0040337Y0117500D01*
X0040337Y0114500D02*
X0040335Y0114440D01*
X0040330Y0114379D01*
X0040321Y0114320D01*
X0040308Y0114261D01*
X0040292Y0114202D01*
X0040272Y0114145D01*
X0040249Y0114090D01*
X0040222Y0114035D01*
X0040193Y0113983D01*
X0040160Y0113932D01*
X0040124Y0113883D01*
X0040086Y0113837D01*
X0040044Y0113793D01*
X0040000Y0113751D01*
X0039954Y0113713D01*
X0039905Y0113677D01*
X0039854Y0113644D01*
X0039802Y0113615D01*
X0039747Y0113588D01*
X0039692Y0113565D01*
X0039635Y0113545D01*
X0039576Y0113529D01*
X0039517Y0113516D01*
X0039458Y0113507D01*
X0039397Y0113502D01*
X0039337Y0113500D01*
X0031337Y0113500D02*
X0031277Y0113502D01*
X0031216Y0113507D01*
X0031157Y0113516D01*
X0031098Y0113529D01*
X0031039Y0113545D01*
X0030982Y0113565D01*
X0030927Y0113588D01*
X0030872Y0113615D01*
X0030820Y0113644D01*
X0030769Y0113677D01*
X0030720Y0113713D01*
X0030674Y0113751D01*
X0030630Y0113793D01*
X0030588Y0113837D01*
X0030550Y0113883D01*
X0030514Y0113932D01*
X0030481Y0113983D01*
X0030452Y0114035D01*
X0030425Y0114090D01*
X0030402Y0114145D01*
X0030382Y0114202D01*
X0030366Y0114261D01*
X0030353Y0114320D01*
X0030344Y0114379D01*
X0030339Y0114440D01*
X0030337Y0114500D01*
X0030337Y0117500D02*
X0030339Y0117560D01*
X0030344Y0117621D01*
X0030353Y0117680D01*
X0030366Y0117739D01*
X0030382Y0117798D01*
X0030402Y0117855D01*
X0030425Y0117910D01*
X0030452Y0117965D01*
X0030481Y0118017D01*
X0030514Y0118068D01*
X0030550Y0118117D01*
X0030588Y0118163D01*
X0030630Y0118207D01*
X0030674Y0118249D01*
X0030720Y0118287D01*
X0030769Y0118323D01*
X0030820Y0118356D01*
X0030872Y0118385D01*
X0030927Y0118412D01*
X0030982Y0118435D01*
X0031039Y0118455D01*
X0031098Y0118471D01*
X0031157Y0118484D01*
X0031216Y0118493D01*
X0031277Y0118498D01*
X0031337Y0118500D01*
X0056837Y0130500D02*
X0056924Y0130498D01*
X0057011Y0130492D01*
X0057098Y0130483D01*
X0057184Y0130470D01*
X0057270Y0130453D01*
X0057355Y0130432D01*
X0057438Y0130407D01*
X0057521Y0130379D01*
X0057602Y0130348D01*
X0057682Y0130313D01*
X0057760Y0130274D01*
X0057837Y0130232D01*
X0057912Y0130187D01*
X0057984Y0130138D01*
X0058055Y0130087D01*
X0058123Y0130032D01*
X0058188Y0129975D01*
X0058251Y0129914D01*
X0058312Y0129851D01*
X0058369Y0129786D01*
X0058424Y0129718D01*
X0058475Y0129647D01*
X0058524Y0129575D01*
X0058569Y0129500D01*
X0058611Y0129423D01*
X0058650Y0129345D01*
X0058685Y0129265D01*
X0058716Y0129184D01*
X0058744Y0129101D01*
X0058769Y0129018D01*
X0058790Y0128933D01*
X0058807Y0128847D01*
X0058820Y0128761D01*
X0058829Y0128674D01*
X0058835Y0128587D01*
X0058837Y0128500D01*
X0081337Y0098500D02*
X0089337Y0098500D01*
X0089397Y0098498D01*
X0089458Y0098493D01*
X0089517Y0098484D01*
X0089576Y0098471D01*
X0089635Y0098455D01*
X0089692Y0098435D01*
X0089747Y0098412D01*
X0089802Y0098385D01*
X0089854Y0098356D01*
X0089905Y0098323D01*
X0089954Y0098287D01*
X0090000Y0098249D01*
X0090044Y0098207D01*
X0090086Y0098163D01*
X0090124Y0098117D01*
X0090160Y0098068D01*
X0090193Y0098017D01*
X0090222Y0097965D01*
X0090249Y0097910D01*
X0090272Y0097855D01*
X0090292Y0097798D01*
X0090308Y0097739D01*
X0090321Y0097680D01*
X0090330Y0097621D01*
X0090335Y0097560D01*
X0090337Y0097500D01*
X0090337Y0094500D01*
X0090335Y0094440D01*
X0090330Y0094379D01*
X0090321Y0094320D01*
X0090308Y0094261D01*
X0090292Y0094202D01*
X0090272Y0094145D01*
X0090249Y0094090D01*
X0090222Y0094035D01*
X0090193Y0093983D01*
X0090160Y0093932D01*
X0090124Y0093883D01*
X0090086Y0093837D01*
X0090044Y0093793D01*
X0090000Y0093751D01*
X0089954Y0093713D01*
X0089905Y0093677D01*
X0089854Y0093644D01*
X0089802Y0093615D01*
X0089747Y0093588D01*
X0089692Y0093565D01*
X0089635Y0093545D01*
X0089576Y0093529D01*
X0089517Y0093516D01*
X0089458Y0093507D01*
X0089397Y0093502D01*
X0089337Y0093500D01*
X0081337Y0093500D01*
X0081277Y0093502D01*
X0081216Y0093507D01*
X0081157Y0093516D01*
X0081098Y0093529D01*
X0081039Y0093545D01*
X0080982Y0093565D01*
X0080927Y0093588D01*
X0080872Y0093615D01*
X0080820Y0093644D01*
X0080769Y0093677D01*
X0080720Y0093713D01*
X0080674Y0093751D01*
X0080630Y0093793D01*
X0080588Y0093837D01*
X0080550Y0093883D01*
X0080514Y0093932D01*
X0080481Y0093983D01*
X0080452Y0094035D01*
X0080425Y0094090D01*
X0080402Y0094145D01*
X0080382Y0094202D01*
X0080366Y0094261D01*
X0080353Y0094320D01*
X0080344Y0094379D01*
X0080339Y0094440D01*
X0080337Y0094500D01*
X0080337Y0097500D01*
X0080339Y0097560D01*
X0080344Y0097621D01*
X0080353Y0097680D01*
X0080366Y0097739D01*
X0080382Y0097798D01*
X0080402Y0097855D01*
X0080425Y0097910D01*
X0080452Y0097965D01*
X0080481Y0098017D01*
X0080514Y0098068D01*
X0080550Y0098117D01*
X0080588Y0098163D01*
X0080630Y0098207D01*
X0080674Y0098249D01*
X0080720Y0098287D01*
X0080769Y0098323D01*
X0080820Y0098356D01*
X0080872Y0098385D01*
X0080927Y0098412D01*
X0080982Y0098435D01*
X0081039Y0098455D01*
X0081098Y0098471D01*
X0081157Y0098484D01*
X0081216Y0098493D01*
X0081277Y0098498D01*
X0081337Y0098500D01*
X0081277Y0098498D01*
X0081216Y0098493D01*
X0081157Y0098484D01*
X0081098Y0098471D01*
X0081039Y0098455D01*
X0080982Y0098435D01*
X0080927Y0098412D01*
X0080872Y0098385D01*
X0080820Y0098356D01*
X0080769Y0098323D01*
X0080720Y0098287D01*
X0080674Y0098249D01*
X0080630Y0098207D01*
X0080588Y0098163D01*
X0080550Y0098117D01*
X0080514Y0098068D01*
X0080481Y0098017D01*
X0080452Y0097965D01*
X0080425Y0097910D01*
X0080402Y0097855D01*
X0080382Y0097798D01*
X0080366Y0097739D01*
X0080353Y0097680D01*
X0080344Y0097621D01*
X0080339Y0097560D01*
X0080337Y0097500D01*
X0080337Y0094500D02*
X0080339Y0094440D01*
X0080344Y0094379D01*
X0080353Y0094320D01*
X0080366Y0094261D01*
X0080382Y0094202D01*
X0080402Y0094145D01*
X0080425Y0094090D01*
X0080452Y0094035D01*
X0080481Y0093983D01*
X0080514Y0093932D01*
X0080550Y0093883D01*
X0080588Y0093837D01*
X0080630Y0093793D01*
X0080674Y0093751D01*
X0080720Y0093713D01*
X0080769Y0093677D01*
X0080820Y0093644D01*
X0080872Y0093615D01*
X0080927Y0093588D01*
X0080982Y0093565D01*
X0081039Y0093545D01*
X0081098Y0093529D01*
X0081157Y0093516D01*
X0081216Y0093507D01*
X0081277Y0093502D01*
X0081337Y0093500D01*
X0081337Y0088500D02*
X0089337Y0088500D01*
X0089397Y0088498D01*
X0089458Y0088493D01*
X0089517Y0088484D01*
X0089576Y0088471D01*
X0089635Y0088455D01*
X0089692Y0088435D01*
X0089747Y0088412D01*
X0089802Y0088385D01*
X0089854Y0088356D01*
X0089905Y0088323D01*
X0089954Y0088287D01*
X0090000Y0088249D01*
X0090044Y0088207D01*
X0090086Y0088163D01*
X0090124Y0088117D01*
X0090160Y0088068D01*
X0090193Y0088017D01*
X0090222Y0087965D01*
X0090249Y0087910D01*
X0090272Y0087855D01*
X0090292Y0087798D01*
X0090308Y0087739D01*
X0090321Y0087680D01*
X0090330Y0087621D01*
X0090335Y0087560D01*
X0090337Y0087500D01*
X0090337Y0084500D01*
X0090335Y0084440D01*
X0090330Y0084379D01*
X0090321Y0084320D01*
X0090308Y0084261D01*
X0090292Y0084202D01*
X0090272Y0084145D01*
X0090249Y0084090D01*
X0090222Y0084035D01*
X0090193Y0083983D01*
X0090160Y0083932D01*
X0090124Y0083883D01*
X0090086Y0083837D01*
X0090044Y0083793D01*
X0090000Y0083751D01*
X0089954Y0083713D01*
X0089905Y0083677D01*
X0089854Y0083644D01*
X0089802Y0083615D01*
X0089747Y0083588D01*
X0089692Y0083565D01*
X0089635Y0083545D01*
X0089576Y0083529D01*
X0089517Y0083516D01*
X0089458Y0083507D01*
X0089397Y0083502D01*
X0089337Y0083500D01*
X0081337Y0083500D01*
X0081277Y0083502D01*
X0081216Y0083507D01*
X0081157Y0083516D01*
X0081098Y0083529D01*
X0081039Y0083545D01*
X0080982Y0083565D01*
X0080927Y0083588D01*
X0080872Y0083615D01*
X0080820Y0083644D01*
X0080769Y0083677D01*
X0080720Y0083713D01*
X0080674Y0083751D01*
X0080630Y0083793D01*
X0080588Y0083837D01*
X0080550Y0083883D01*
X0080514Y0083932D01*
X0080481Y0083983D01*
X0080452Y0084035D01*
X0080425Y0084090D01*
X0080402Y0084145D01*
X0080382Y0084202D01*
X0080366Y0084261D01*
X0080353Y0084320D01*
X0080344Y0084379D01*
X0080339Y0084440D01*
X0080337Y0084500D01*
X0080337Y0087500D01*
X0080339Y0087560D01*
X0080344Y0087621D01*
X0080353Y0087680D01*
X0080366Y0087739D01*
X0080382Y0087798D01*
X0080402Y0087855D01*
X0080425Y0087910D01*
X0080452Y0087965D01*
X0080481Y0088017D01*
X0080514Y0088068D01*
X0080550Y0088117D01*
X0080588Y0088163D01*
X0080630Y0088207D01*
X0080674Y0088249D01*
X0080720Y0088287D01*
X0080769Y0088323D01*
X0080820Y0088356D01*
X0080872Y0088385D01*
X0080927Y0088412D01*
X0080982Y0088435D01*
X0081039Y0088455D01*
X0081098Y0088471D01*
X0081157Y0088484D01*
X0081216Y0088493D01*
X0081277Y0088498D01*
X0081337Y0088500D01*
X0081277Y0088498D01*
X0081216Y0088493D01*
X0081157Y0088484D01*
X0081098Y0088471D01*
X0081039Y0088455D01*
X0080982Y0088435D01*
X0080927Y0088412D01*
X0080872Y0088385D01*
X0080820Y0088356D01*
X0080769Y0088323D01*
X0080720Y0088287D01*
X0080674Y0088249D01*
X0080630Y0088207D01*
X0080588Y0088163D01*
X0080550Y0088117D01*
X0080514Y0088068D01*
X0080481Y0088017D01*
X0080452Y0087965D01*
X0080425Y0087910D01*
X0080402Y0087855D01*
X0080382Y0087798D01*
X0080366Y0087739D01*
X0080353Y0087680D01*
X0080344Y0087621D01*
X0080339Y0087560D01*
X0080337Y0087500D01*
X0080337Y0084500D02*
X0080339Y0084440D01*
X0080344Y0084379D01*
X0080353Y0084320D01*
X0080366Y0084261D01*
X0080382Y0084202D01*
X0080402Y0084145D01*
X0080425Y0084090D01*
X0080452Y0084035D01*
X0080481Y0083983D01*
X0080514Y0083932D01*
X0080550Y0083883D01*
X0080588Y0083837D01*
X0080630Y0083793D01*
X0080674Y0083751D01*
X0080720Y0083713D01*
X0080769Y0083677D01*
X0080820Y0083644D01*
X0080872Y0083615D01*
X0080927Y0083588D01*
X0080982Y0083565D01*
X0081039Y0083545D01*
X0081098Y0083529D01*
X0081157Y0083516D01*
X0081216Y0083507D01*
X0081277Y0083502D01*
X0081337Y0083500D01*
X0089337Y0083500D02*
X0089397Y0083502D01*
X0089458Y0083507D01*
X0089517Y0083516D01*
X0089576Y0083529D01*
X0089635Y0083545D01*
X0089692Y0083565D01*
X0089747Y0083588D01*
X0089802Y0083615D01*
X0089854Y0083644D01*
X0089905Y0083677D01*
X0089954Y0083713D01*
X0090000Y0083751D01*
X0090044Y0083793D01*
X0090086Y0083837D01*
X0090124Y0083883D01*
X0090160Y0083932D01*
X0090193Y0083983D01*
X0090222Y0084035D01*
X0090249Y0084090D01*
X0090272Y0084145D01*
X0090292Y0084202D01*
X0090308Y0084261D01*
X0090321Y0084320D01*
X0090330Y0084379D01*
X0090335Y0084440D01*
X0090337Y0084500D01*
X0090337Y0087500D02*
X0090335Y0087560D01*
X0090330Y0087621D01*
X0090321Y0087680D01*
X0090308Y0087739D01*
X0090292Y0087798D01*
X0090272Y0087855D01*
X0090249Y0087910D01*
X0090222Y0087965D01*
X0090193Y0088017D01*
X0090160Y0088068D01*
X0090124Y0088117D01*
X0090086Y0088163D01*
X0090044Y0088207D01*
X0090000Y0088249D01*
X0089954Y0088287D01*
X0089905Y0088323D01*
X0089854Y0088356D01*
X0089802Y0088385D01*
X0089747Y0088412D01*
X0089692Y0088435D01*
X0089635Y0088455D01*
X0089576Y0088471D01*
X0089517Y0088484D01*
X0089458Y0088493D01*
X0089397Y0088498D01*
X0089337Y0088500D01*
X0089337Y0093500D02*
X0089397Y0093502D01*
X0089458Y0093507D01*
X0089517Y0093516D01*
X0089576Y0093529D01*
X0089635Y0093545D01*
X0089692Y0093565D01*
X0089747Y0093588D01*
X0089802Y0093615D01*
X0089854Y0093644D01*
X0089905Y0093677D01*
X0089954Y0093713D01*
X0090000Y0093751D01*
X0090044Y0093793D01*
X0090086Y0093837D01*
X0090124Y0093883D01*
X0090160Y0093932D01*
X0090193Y0093983D01*
X0090222Y0094035D01*
X0090249Y0094090D01*
X0090272Y0094145D01*
X0090292Y0094202D01*
X0090308Y0094261D01*
X0090321Y0094320D01*
X0090330Y0094379D01*
X0090335Y0094440D01*
X0090337Y0094500D01*
X0090337Y0097500D02*
X0090335Y0097560D01*
X0090330Y0097621D01*
X0090321Y0097680D01*
X0090308Y0097739D01*
X0090292Y0097798D01*
X0090272Y0097855D01*
X0090249Y0097910D01*
X0090222Y0097965D01*
X0090193Y0098017D01*
X0090160Y0098068D01*
X0090124Y0098117D01*
X0090086Y0098163D01*
X0090044Y0098207D01*
X0090000Y0098249D01*
X0089954Y0098287D01*
X0089905Y0098323D01*
X0089854Y0098356D01*
X0089802Y0098385D01*
X0089747Y0098412D01*
X0089692Y0098435D01*
X0089635Y0098455D01*
X0089576Y0098471D01*
X0089517Y0098484D01*
X0089458Y0098493D01*
X0089397Y0098498D01*
X0089337Y0098500D01*
X0048337Y0088500D02*
X0048337Y0063500D01*
X0045837Y0063500D01*
X0034837Y0063500D02*
X0031637Y0063500D01*
X0031637Y0088500D01*
X0034837Y0088500D01*
X0034837Y0087000D02*
X0034837Y0081000D01*
X0033337Y0081000D01*
X0032837Y0081500D01*
X0036837Y0081500D01*
X0036337Y0081000D01*
X0034837Y0081000D01*
X0034837Y0079500D01*
X0035337Y0080000D01*
X0035837Y0080500D01*
X0036337Y0081000D01*
X0035837Y0080500D02*
X0033837Y0080500D01*
X0034337Y0080000D01*
X0035337Y0080000D01*
X0034837Y0079500D02*
X0034337Y0080000D01*
X0033837Y0080500D02*
X0033337Y0081000D01*
X0045837Y0088500D02*
X0048337Y0088500D01*
X0071337Y0058500D02*
X0079337Y0058500D01*
X0079397Y0058498D01*
X0079458Y0058493D01*
X0079517Y0058484D01*
X0079576Y0058471D01*
X0079635Y0058455D01*
X0079692Y0058435D01*
X0079747Y0058412D01*
X0079802Y0058385D01*
X0079854Y0058356D01*
X0079905Y0058323D01*
X0079954Y0058287D01*
X0080000Y0058249D01*
X0080044Y0058207D01*
X0080086Y0058163D01*
X0080124Y0058117D01*
X0080160Y0058068D01*
X0080193Y0058017D01*
X0080222Y0057965D01*
X0080249Y0057910D01*
X0080272Y0057855D01*
X0080292Y0057798D01*
X0080308Y0057739D01*
X0080321Y0057680D01*
X0080330Y0057621D01*
X0080335Y0057560D01*
X0080337Y0057500D01*
X0080337Y0054500D01*
X0080335Y0054440D01*
X0080330Y0054379D01*
X0080321Y0054320D01*
X0080308Y0054261D01*
X0080292Y0054202D01*
X0080272Y0054145D01*
X0080249Y0054090D01*
X0080222Y0054035D01*
X0080193Y0053983D01*
X0080160Y0053932D01*
X0080124Y0053883D01*
X0080086Y0053837D01*
X0080044Y0053793D01*
X0080000Y0053751D01*
X0079954Y0053713D01*
X0079905Y0053677D01*
X0079854Y0053644D01*
X0079802Y0053615D01*
X0079747Y0053588D01*
X0079692Y0053565D01*
X0079635Y0053545D01*
X0079576Y0053529D01*
X0079517Y0053516D01*
X0079458Y0053507D01*
X0079397Y0053502D01*
X0079337Y0053500D01*
X0071337Y0053500D01*
X0071277Y0053502D01*
X0071216Y0053507D01*
X0071157Y0053516D01*
X0071098Y0053529D01*
X0071039Y0053545D01*
X0070982Y0053565D01*
X0070927Y0053588D01*
X0070872Y0053615D01*
X0070820Y0053644D01*
X0070769Y0053677D01*
X0070720Y0053713D01*
X0070674Y0053751D01*
X0070630Y0053793D01*
X0070588Y0053837D01*
X0070550Y0053883D01*
X0070514Y0053932D01*
X0070481Y0053983D01*
X0070452Y0054035D01*
X0070425Y0054090D01*
X0070402Y0054145D01*
X0070382Y0054202D01*
X0070366Y0054261D01*
X0070353Y0054320D01*
X0070344Y0054379D01*
X0070339Y0054440D01*
X0070337Y0054500D01*
X0070337Y0057500D01*
X0070339Y0057560D01*
X0070344Y0057621D01*
X0070353Y0057680D01*
X0070366Y0057739D01*
X0070382Y0057798D01*
X0070402Y0057855D01*
X0070425Y0057910D01*
X0070452Y0057965D01*
X0070481Y0058017D01*
X0070514Y0058068D01*
X0070550Y0058117D01*
X0070588Y0058163D01*
X0070630Y0058207D01*
X0070674Y0058249D01*
X0070720Y0058287D01*
X0070769Y0058323D01*
X0070820Y0058356D01*
X0070872Y0058385D01*
X0070927Y0058412D01*
X0070982Y0058435D01*
X0071039Y0058455D01*
X0071098Y0058471D01*
X0071157Y0058484D01*
X0071216Y0058493D01*
X0071277Y0058498D01*
X0071337Y0058500D01*
X0071277Y0058498D01*
X0071216Y0058493D01*
X0071157Y0058484D01*
X0071098Y0058471D01*
X0071039Y0058455D01*
X0070982Y0058435D01*
X0070927Y0058412D01*
X0070872Y0058385D01*
X0070820Y0058356D01*
X0070769Y0058323D01*
X0070720Y0058287D01*
X0070674Y0058249D01*
X0070630Y0058207D01*
X0070588Y0058163D01*
X0070550Y0058117D01*
X0070514Y0058068D01*
X0070481Y0058017D01*
X0070452Y0057965D01*
X0070425Y0057910D01*
X0070402Y0057855D01*
X0070382Y0057798D01*
X0070366Y0057739D01*
X0070353Y0057680D01*
X0070344Y0057621D01*
X0070339Y0057560D01*
X0070337Y0057500D01*
X0070337Y0054500D02*
X0070339Y0054440D01*
X0070344Y0054379D01*
X0070353Y0054320D01*
X0070366Y0054261D01*
X0070382Y0054202D01*
X0070402Y0054145D01*
X0070425Y0054090D01*
X0070452Y0054035D01*
X0070481Y0053983D01*
X0070514Y0053932D01*
X0070550Y0053883D01*
X0070588Y0053837D01*
X0070630Y0053793D01*
X0070674Y0053751D01*
X0070720Y0053713D01*
X0070769Y0053677D01*
X0070820Y0053644D01*
X0070872Y0053615D01*
X0070927Y0053588D01*
X0070982Y0053565D01*
X0071039Y0053545D01*
X0071098Y0053529D01*
X0071157Y0053516D01*
X0071216Y0053507D01*
X0071277Y0053502D01*
X0071337Y0053500D01*
X0079337Y0053500D02*
X0079397Y0053502D01*
X0079458Y0053507D01*
X0079517Y0053516D01*
X0079576Y0053529D01*
X0079635Y0053545D01*
X0079692Y0053565D01*
X0079747Y0053588D01*
X0079802Y0053615D01*
X0079854Y0053644D01*
X0079905Y0053677D01*
X0079954Y0053713D01*
X0080000Y0053751D01*
X0080044Y0053793D01*
X0080086Y0053837D01*
X0080124Y0053883D01*
X0080160Y0053932D01*
X0080193Y0053983D01*
X0080222Y0054035D01*
X0080249Y0054090D01*
X0080272Y0054145D01*
X0080292Y0054202D01*
X0080308Y0054261D01*
X0080321Y0054320D01*
X0080330Y0054379D01*
X0080335Y0054440D01*
X0080337Y0054500D01*
X0080337Y0057500D02*
X0080335Y0057560D01*
X0080330Y0057621D01*
X0080321Y0057680D01*
X0080308Y0057739D01*
X0080292Y0057798D01*
X0080272Y0057855D01*
X0080249Y0057910D01*
X0080222Y0057965D01*
X0080193Y0058017D01*
X0080160Y0058068D01*
X0080124Y0058117D01*
X0080086Y0058163D01*
X0080044Y0058207D01*
X0080000Y0058249D01*
X0079954Y0058287D01*
X0079905Y0058323D01*
X0079854Y0058356D01*
X0079802Y0058385D01*
X0079747Y0058412D01*
X0079692Y0058435D01*
X0079635Y0058455D01*
X0079576Y0058471D01*
X0079517Y0058484D01*
X0079458Y0058493D01*
X0079397Y0058498D01*
X0079337Y0058500D01*
X0171337Y0173500D02*
X0179337Y0173500D01*
X0179397Y0173502D01*
X0179458Y0173507D01*
X0179517Y0173516D01*
X0179576Y0173529D01*
X0179635Y0173545D01*
X0179692Y0173565D01*
X0179747Y0173588D01*
X0179802Y0173615D01*
X0179854Y0173644D01*
X0179905Y0173677D01*
X0179954Y0173713D01*
X0180000Y0173751D01*
X0180044Y0173793D01*
X0180086Y0173837D01*
X0180124Y0173883D01*
X0180160Y0173932D01*
X0180193Y0173983D01*
X0180222Y0174035D01*
X0180249Y0174090D01*
X0180272Y0174145D01*
X0180292Y0174202D01*
X0180308Y0174261D01*
X0180321Y0174320D01*
X0180330Y0174379D01*
X0180335Y0174440D01*
X0180337Y0174500D01*
X0180337Y0177500D01*
X0180335Y0177560D01*
X0180330Y0177621D01*
X0180321Y0177680D01*
X0180308Y0177739D01*
X0180292Y0177798D01*
X0180272Y0177855D01*
X0180249Y0177910D01*
X0180222Y0177965D01*
X0180193Y0178017D01*
X0180160Y0178068D01*
X0180124Y0178117D01*
X0180086Y0178163D01*
X0180044Y0178207D01*
X0180000Y0178249D01*
X0179954Y0178287D01*
X0179905Y0178323D01*
X0179854Y0178356D01*
X0179802Y0178385D01*
X0179747Y0178412D01*
X0179692Y0178435D01*
X0179635Y0178455D01*
X0179576Y0178471D01*
X0179517Y0178484D01*
X0179458Y0178493D01*
X0179397Y0178498D01*
X0179337Y0178500D01*
X0171337Y0178500D01*
X0171277Y0178498D01*
X0171216Y0178493D01*
X0171157Y0178484D01*
X0171098Y0178471D01*
X0171039Y0178455D01*
X0170982Y0178435D01*
X0170927Y0178412D01*
X0170872Y0178385D01*
X0170820Y0178356D01*
X0170769Y0178323D01*
X0170720Y0178287D01*
X0170674Y0178249D01*
X0170630Y0178207D01*
X0170588Y0178163D01*
X0170550Y0178117D01*
X0170514Y0178068D01*
X0170481Y0178017D01*
X0170452Y0177965D01*
X0170425Y0177910D01*
X0170402Y0177855D01*
X0170382Y0177798D01*
X0170366Y0177739D01*
X0170353Y0177680D01*
X0170344Y0177621D01*
X0170339Y0177560D01*
X0170337Y0177500D01*
X0170337Y0174500D01*
X0170339Y0174440D01*
X0170344Y0174379D01*
X0170353Y0174320D01*
X0170366Y0174261D01*
X0170382Y0174202D01*
X0170402Y0174145D01*
X0170425Y0174090D01*
X0170452Y0174035D01*
X0170481Y0173983D01*
X0170514Y0173932D01*
X0170550Y0173883D01*
X0170588Y0173837D01*
X0170630Y0173793D01*
X0170674Y0173751D01*
X0170720Y0173713D01*
X0170769Y0173677D01*
X0170820Y0173644D01*
X0170872Y0173615D01*
X0170927Y0173588D01*
X0170982Y0173565D01*
X0171039Y0173545D01*
X0171098Y0173529D01*
X0171157Y0173516D01*
X0171216Y0173507D01*
X0171277Y0173502D01*
X0171337Y0173500D01*
X0171277Y0173502D01*
X0171216Y0173507D01*
X0171157Y0173516D01*
X0171098Y0173529D01*
X0171039Y0173545D01*
X0170982Y0173565D01*
X0170927Y0173588D01*
X0170872Y0173615D01*
X0170820Y0173644D01*
X0170769Y0173677D01*
X0170720Y0173713D01*
X0170674Y0173751D01*
X0170630Y0173793D01*
X0170588Y0173837D01*
X0170550Y0173883D01*
X0170514Y0173932D01*
X0170481Y0173983D01*
X0170452Y0174035D01*
X0170425Y0174090D01*
X0170402Y0174145D01*
X0170382Y0174202D01*
X0170366Y0174261D01*
X0170353Y0174320D01*
X0170344Y0174379D01*
X0170339Y0174440D01*
X0170337Y0174500D01*
X0170337Y0177500D02*
X0170339Y0177560D01*
X0170344Y0177621D01*
X0170353Y0177680D01*
X0170366Y0177739D01*
X0170382Y0177798D01*
X0170402Y0177855D01*
X0170425Y0177910D01*
X0170452Y0177965D01*
X0170481Y0178017D01*
X0170514Y0178068D01*
X0170550Y0178117D01*
X0170588Y0178163D01*
X0170630Y0178207D01*
X0170674Y0178249D01*
X0170720Y0178287D01*
X0170769Y0178323D01*
X0170820Y0178356D01*
X0170872Y0178385D01*
X0170927Y0178412D01*
X0170982Y0178435D01*
X0171039Y0178455D01*
X0171098Y0178471D01*
X0171157Y0178484D01*
X0171216Y0178493D01*
X0171277Y0178498D01*
X0171337Y0178500D01*
X0179337Y0178500D02*
X0179397Y0178498D01*
X0179458Y0178493D01*
X0179517Y0178484D01*
X0179576Y0178471D01*
X0179635Y0178455D01*
X0179692Y0178435D01*
X0179747Y0178412D01*
X0179802Y0178385D01*
X0179854Y0178356D01*
X0179905Y0178323D01*
X0179954Y0178287D01*
X0180000Y0178249D01*
X0180044Y0178207D01*
X0180086Y0178163D01*
X0180124Y0178117D01*
X0180160Y0178068D01*
X0180193Y0178017D01*
X0180222Y0177965D01*
X0180249Y0177910D01*
X0180272Y0177855D01*
X0180292Y0177798D01*
X0180308Y0177739D01*
X0180321Y0177680D01*
X0180330Y0177621D01*
X0180335Y0177560D01*
X0180337Y0177500D01*
X0180337Y0174500D02*
X0180335Y0174440D01*
X0180330Y0174379D01*
X0180321Y0174320D01*
X0180308Y0174261D01*
X0180292Y0174202D01*
X0180272Y0174145D01*
X0180249Y0174090D01*
X0180222Y0174035D01*
X0180193Y0173983D01*
X0180160Y0173932D01*
X0180124Y0173883D01*
X0180086Y0173837D01*
X0180044Y0173793D01*
X0180000Y0173751D01*
X0179954Y0173713D01*
X0179905Y0173677D01*
X0179854Y0173644D01*
X0179802Y0173615D01*
X0179747Y0173588D01*
X0179692Y0173565D01*
X0179635Y0173545D01*
X0179576Y0173529D01*
X0179517Y0173516D01*
X0179458Y0173507D01*
X0179397Y0173502D01*
X0179337Y0173500D01*
D12*
X0171537Y0149000D02*
X0171537Y0146000D01*
X0171537Y0143000D01*
X0169037Y0143000D02*
X0169037Y0146000D01*
X0169037Y0149000D01*
X0179137Y0129000D02*
X0179137Y0126000D01*
X0179137Y0123000D01*
X0181637Y0123000D02*
X0181637Y0126000D01*
X0181637Y0129000D01*
X0091537Y0119000D02*
X0091537Y0116000D01*
X0091537Y0113000D01*
X0089037Y0113000D02*
X0089037Y0116000D01*
X0089037Y0119000D01*
X0051537Y0123000D02*
X0051537Y0126000D01*
X0051537Y0129000D01*
X0049037Y0129000D02*
X0049037Y0126000D01*
X0049037Y0123000D01*
D13*
X0036587Y0038500D02*
X0036587Y0038000D01*
X0036587Y0038500D02*
X0036087Y0038500D01*
X0036587Y0038500D02*
X0036587Y0039000D01*
X0036587Y0038500D02*
X0037087Y0038500D01*
X0025387Y0050971D02*
X0023936Y0052906D01*
X0022485Y0050971D01*
X0022485Y0053917D02*
X0024420Y0053917D01*
X0025387Y0054885D01*
X0024420Y0055852D01*
X0022485Y0055852D01*
X0023452Y0056864D02*
X0022485Y0057831D01*
X0023452Y0058799D01*
X0025387Y0058799D01*
X0025387Y0059810D02*
X0022485Y0059810D01*
X0023936Y0058799D02*
X0023936Y0056864D01*
X0023452Y0056864D02*
X0025387Y0056864D01*
X0025387Y0059810D02*
X0025387Y0061745D01*
X0024903Y0062757D02*
X0025387Y0063241D01*
X0025387Y0064208D01*
X0024903Y0064692D01*
X0022485Y0064692D01*
X0022485Y0065703D02*
X0025387Y0065703D01*
X0025387Y0067638D01*
X0025585Y0067559D02*
X0027437Y0065090D01*
X0025585Y0067559D02*
X0023734Y0065090D01*
X0023936Y0065703D02*
X0023936Y0066671D01*
X0022485Y0067638D02*
X0022485Y0065703D01*
X0022485Y0062757D02*
X0024903Y0062757D01*
X0023734Y0068774D02*
X0027437Y0071242D01*
X0023734Y0071242D01*
X0024968Y0072457D02*
X0023734Y0073691D01*
X0024968Y0074925D01*
X0027437Y0074925D01*
X0027437Y0076140D02*
X0023734Y0076140D01*
X0024968Y0077374D01*
X0023734Y0078609D01*
X0027437Y0078609D01*
X0027437Y0079823D02*
X0027437Y0082292D01*
X0025585Y0081057D02*
X0025585Y0079823D01*
X0023734Y0079823D02*
X0023734Y0082292D01*
X0023734Y0079823D02*
X0027437Y0079823D01*
X0025585Y0074925D02*
X0025585Y0072457D01*
X0024968Y0072457D02*
X0027437Y0072457D01*
X0027437Y0068774D02*
X0023734Y0068774D01*
X0052035Y0067669D02*
X0054937Y0067669D01*
X0054937Y0069604D01*
X0054453Y0070615D02*
X0052035Y0070615D01*
X0052035Y0072550D02*
X0054453Y0072550D01*
X0054937Y0072066D01*
X0054937Y0071099D01*
X0054453Y0070615D01*
X0056484Y0070234D02*
X0058335Y0072703D01*
X0060187Y0070234D01*
X0060187Y0073917D02*
X0056484Y0073917D01*
X0060187Y0076386D01*
X0056484Y0076386D01*
X0057718Y0077600D02*
X0056484Y0078835D01*
X0057718Y0080069D01*
X0060187Y0080069D01*
X0060187Y0081284D02*
X0056484Y0081284D01*
X0057718Y0082518D01*
X0056484Y0083752D01*
X0060187Y0083752D01*
X0060187Y0084967D02*
X0060187Y0087436D01*
X0058335Y0086201D02*
X0058335Y0084967D01*
X0056484Y0084967D02*
X0056484Y0087436D01*
X0056484Y0084967D02*
X0060187Y0084967D01*
X0058335Y0080069D02*
X0058335Y0077600D01*
X0057718Y0077600D02*
X0060187Y0077600D01*
X0054937Y0075497D02*
X0054937Y0073562D01*
X0052035Y0073562D01*
X0052035Y0075497D01*
X0053486Y0074529D02*
X0053486Y0073562D01*
X0053486Y0066657D02*
X0053486Y0064722D01*
X0053002Y0064722D02*
X0052035Y0065690D01*
X0053002Y0066657D01*
X0054937Y0066657D01*
X0054937Y0064722D02*
X0053002Y0064722D01*
X0053970Y0063711D02*
X0052035Y0063711D01*
X0053970Y0063711D02*
X0054937Y0062743D01*
X0053970Y0061776D01*
X0052035Y0061776D01*
X0053486Y0060764D02*
X0054937Y0058829D01*
X0053486Y0060764D02*
X0052035Y0058829D01*
X0093166Y0057452D02*
X0095101Y0056001D01*
X0093166Y0054550D01*
X0096113Y0055517D02*
X0097080Y0054550D01*
X0098048Y0055517D01*
X0098048Y0057452D01*
X0099059Y0056485D02*
X0100027Y0057452D01*
X0100994Y0056485D01*
X0100994Y0054550D01*
X0102006Y0054550D02*
X0103941Y0054550D01*
X0104952Y0055034D02*
X0105436Y0054550D01*
X0106403Y0054550D01*
X0106887Y0055034D01*
X0106887Y0057452D01*
X0107899Y0057452D02*
X0107899Y0054550D01*
X0109834Y0054550D01*
X0108866Y0056001D02*
X0107899Y0056001D01*
X0107899Y0057452D02*
X0109834Y0057452D01*
X0104952Y0057452D02*
X0104952Y0055034D01*
X0102006Y0054550D02*
X0102006Y0057452D01*
X0100994Y0056001D02*
X0099059Y0056001D01*
X0099059Y0056485D02*
X0099059Y0054550D01*
X0096113Y0055517D02*
X0096113Y0057452D01*
X0115524Y0082150D02*
X0117459Y0083601D01*
X0115524Y0085052D01*
X0115436Y0084550D02*
X0116403Y0084550D01*
X0116887Y0085034D01*
X0116887Y0087452D01*
X0117899Y0087452D02*
X0117899Y0084550D01*
X0119834Y0084550D01*
X0120406Y0085052D02*
X0120406Y0083117D01*
X0119438Y0082150D01*
X0118471Y0083117D01*
X0118471Y0085052D01*
X0118866Y0086001D02*
X0117899Y0086001D01*
X0117899Y0087452D02*
X0119834Y0087452D01*
X0122385Y0085052D02*
X0123352Y0084085D01*
X0123352Y0082150D01*
X0124364Y0082150D02*
X0124364Y0085052D01*
X0123352Y0083601D02*
X0121417Y0083601D01*
X0121417Y0084085D02*
X0122385Y0085052D01*
X0121417Y0084085D02*
X0121417Y0082150D01*
X0124364Y0082150D02*
X0126299Y0082150D01*
X0127310Y0082634D02*
X0127794Y0082150D01*
X0128762Y0082150D01*
X0129245Y0082634D01*
X0129245Y0085052D01*
X0130257Y0085052D02*
X0130257Y0082150D01*
X0132192Y0082150D01*
X0131224Y0083601D02*
X0130257Y0083601D01*
X0130257Y0085052D02*
X0132192Y0085052D01*
X0127310Y0085052D02*
X0127310Y0082634D01*
X0137785Y0087471D02*
X0139236Y0089406D01*
X0140687Y0087471D01*
X0139720Y0090417D02*
X0137785Y0090417D01*
X0139720Y0090417D02*
X0140687Y0091385D01*
X0139720Y0092352D01*
X0137785Y0092352D01*
X0138752Y0093364D02*
X0137785Y0094331D01*
X0138752Y0095299D01*
X0140687Y0095299D01*
X0140687Y0096310D02*
X0140687Y0098245D01*
X0140203Y0099257D02*
X0137785Y0099257D01*
X0137785Y0101192D02*
X0140203Y0101192D01*
X0140687Y0100708D01*
X0140687Y0099741D01*
X0140203Y0099257D01*
X0140687Y0102203D02*
X0137785Y0102203D01*
X0137785Y0104138D01*
X0139236Y0103171D02*
X0139236Y0102203D01*
X0140687Y0102203D02*
X0140687Y0104138D01*
X0131629Y0103853D02*
X0129160Y0103853D01*
X0129160Y0100150D01*
X0131629Y0100150D01*
X0130394Y0102002D02*
X0129160Y0102002D01*
X0127946Y0103853D02*
X0127946Y0100150D01*
X0125477Y0100150D02*
X0125477Y0103853D01*
X0126711Y0102619D01*
X0127946Y0103853D01*
X0124262Y0102619D02*
X0124262Y0100150D01*
X0124262Y0102002D02*
X0121794Y0102002D01*
X0121794Y0102619D02*
X0123028Y0103853D01*
X0124262Y0102619D01*
X0121794Y0102619D02*
X0121794Y0100150D01*
X0120579Y0100150D02*
X0120579Y0103853D01*
X0118111Y0103853D02*
X0120579Y0100150D01*
X0118111Y0100150D02*
X0118111Y0103853D01*
X0116896Y0102002D02*
X0114427Y0100150D01*
X0114952Y0097452D02*
X0114952Y0095034D01*
X0115436Y0094550D01*
X0116403Y0094550D01*
X0116887Y0095034D01*
X0116887Y0097452D01*
X0117899Y0097452D02*
X0117899Y0094550D01*
X0119834Y0094550D01*
X0118866Y0096001D02*
X0117899Y0096001D01*
X0117899Y0097452D02*
X0119834Y0097452D01*
X0116896Y0102002D02*
X0114427Y0103853D01*
X0112006Y0097452D02*
X0112006Y0094550D01*
X0113941Y0094550D01*
X0110994Y0094550D02*
X0110994Y0096485D01*
X0110027Y0097452D01*
X0109059Y0096485D01*
X0109059Y0094550D01*
X0108048Y0095517D02*
X0108048Y0097452D01*
X0109059Y0096001D02*
X0110994Y0096001D01*
X0108048Y0095517D02*
X0107080Y0094550D01*
X0106113Y0095517D01*
X0106113Y0097452D01*
X0105101Y0096001D02*
X0103166Y0094550D01*
X0105101Y0096001D02*
X0103166Y0097452D01*
X0103166Y0087452D02*
X0105101Y0086001D01*
X0103166Y0084550D01*
X0106113Y0085517D02*
X0106113Y0087452D01*
X0106113Y0085517D02*
X0107080Y0084550D01*
X0108048Y0085517D01*
X0108048Y0087452D01*
X0109059Y0086485D02*
X0109059Y0084550D01*
X0109059Y0086001D02*
X0110994Y0086001D01*
X0110994Y0086485D02*
X0110994Y0084550D01*
X0112006Y0084550D02*
X0112006Y0087452D01*
X0110994Y0086485D02*
X0110027Y0087452D01*
X0109059Y0086485D01*
X0112006Y0084550D02*
X0113941Y0084550D01*
X0114952Y0085034D02*
X0115436Y0084550D01*
X0114952Y0085034D02*
X0114952Y0087452D01*
X0137785Y0096310D02*
X0140687Y0096310D01*
X0139236Y0095299D02*
X0139236Y0093364D01*
X0138752Y0093364D02*
X0140687Y0093364D01*
X0158885Y0098829D02*
X0160336Y0100764D01*
X0161787Y0098829D01*
X0160820Y0101776D02*
X0158885Y0101776D01*
X0160820Y0101776D02*
X0161787Y0102743D01*
X0160820Y0103711D01*
X0158885Y0103711D01*
X0159852Y0104722D02*
X0158885Y0105690D01*
X0159852Y0106657D01*
X0161787Y0106657D01*
X0161787Y0107669D02*
X0161787Y0109604D01*
X0161303Y0110615D02*
X0158885Y0110615D01*
X0158885Y0112550D02*
X0161303Y0112550D01*
X0161787Y0112066D01*
X0161787Y0111099D01*
X0161303Y0110615D01*
X0161787Y0113562D02*
X0158885Y0113562D01*
X0158885Y0115497D01*
X0160336Y0114529D02*
X0160336Y0113562D01*
X0161787Y0113562D02*
X0161787Y0115497D01*
X0161787Y0107669D02*
X0158885Y0107669D01*
X0160336Y0106657D02*
X0160336Y0104722D01*
X0159852Y0104722D02*
X0161787Y0104722D01*
X0173166Y0114550D02*
X0175101Y0116001D01*
X0173166Y0117452D01*
X0176113Y0117452D02*
X0176113Y0115517D01*
X0177080Y0114550D01*
X0178048Y0115517D01*
X0178048Y0117452D01*
X0179059Y0116485D02*
X0180027Y0117452D01*
X0180994Y0116485D01*
X0180994Y0114550D01*
X0182006Y0114550D02*
X0183941Y0114550D01*
X0184952Y0115034D02*
X0185436Y0114550D01*
X0186403Y0114550D01*
X0186887Y0115034D01*
X0186887Y0117452D01*
X0187899Y0117452D02*
X0187899Y0114550D01*
X0189834Y0114550D01*
X0188866Y0116001D02*
X0187899Y0116001D01*
X0187899Y0117452D02*
X0189834Y0117452D01*
X0184952Y0117452D02*
X0184952Y0115034D01*
X0182006Y0114550D02*
X0182006Y0117452D01*
X0180994Y0116001D02*
X0179059Y0116001D01*
X0179059Y0116485D02*
X0179059Y0114550D01*
X0179834Y0124550D02*
X0177899Y0124550D01*
X0177899Y0127452D01*
X0179834Y0127452D01*
X0178866Y0126001D02*
X0177899Y0126001D01*
X0176887Y0125034D02*
X0176887Y0127452D01*
X0174952Y0127452D02*
X0174952Y0125034D01*
X0175436Y0124550D01*
X0176403Y0124550D01*
X0176887Y0125034D01*
X0173941Y0124550D02*
X0172006Y0124550D01*
X0172006Y0127452D01*
X0170994Y0126485D02*
X0170994Y0124550D01*
X0170994Y0126001D02*
X0169059Y0126001D01*
X0169059Y0126485D02*
X0170027Y0127452D01*
X0170994Y0126485D01*
X0169059Y0126485D02*
X0169059Y0124550D01*
X0168048Y0125517D02*
X0168048Y0127452D01*
X0168048Y0125517D02*
X0167080Y0124550D01*
X0166113Y0125517D01*
X0166113Y0127452D01*
X0165101Y0126001D02*
X0163166Y0124550D01*
X0165101Y0126001D02*
X0163166Y0127452D01*
X0139834Y0127452D02*
X0137899Y0127452D01*
X0137899Y0124550D01*
X0139834Y0124550D01*
X0138866Y0126001D02*
X0137899Y0126001D01*
X0136887Y0125034D02*
X0136887Y0127452D01*
X0134952Y0127452D02*
X0134952Y0125034D01*
X0135436Y0124550D01*
X0136403Y0124550D01*
X0136887Y0125034D01*
X0133941Y0124550D02*
X0132006Y0124550D01*
X0132006Y0127452D01*
X0130994Y0126485D02*
X0130994Y0124550D01*
X0130994Y0126001D02*
X0129059Y0126001D01*
X0129059Y0126485D02*
X0130027Y0127452D01*
X0130994Y0126485D01*
X0129059Y0126485D02*
X0129059Y0124550D01*
X0128048Y0125517D02*
X0128048Y0127452D01*
X0128048Y0125517D02*
X0127080Y0124550D01*
X0126113Y0125517D01*
X0126113Y0127452D01*
X0124834Y0126950D02*
X0122899Y0126950D01*
X0122899Y0129852D01*
X0124834Y0129852D01*
X0123866Y0128401D02*
X0122899Y0128401D01*
X0123166Y0127452D02*
X0125101Y0126001D01*
X0123166Y0124550D01*
X0121403Y0126950D02*
X0120436Y0126950D01*
X0119952Y0127434D01*
X0119952Y0129852D01*
X0121887Y0129852D02*
X0121887Y0127434D01*
X0121403Y0126950D01*
X0118941Y0126950D02*
X0117006Y0126950D01*
X0117006Y0129852D01*
X0115994Y0128885D02*
X0115994Y0126950D01*
X0115994Y0128401D02*
X0114059Y0128401D01*
X0114059Y0128885D02*
X0115027Y0129852D01*
X0115994Y0128885D01*
X0114059Y0128885D02*
X0114059Y0126950D01*
X0113048Y0127917D02*
X0113048Y0129852D01*
X0113048Y0127917D02*
X0112080Y0126950D01*
X0111113Y0127917D01*
X0111113Y0129852D01*
X0110101Y0128401D02*
X0108166Y0126950D01*
X0110101Y0128401D02*
X0108166Y0129852D01*
X0109059Y0134550D02*
X0109059Y0136485D01*
X0110027Y0137452D01*
X0110994Y0136485D01*
X0110994Y0134550D01*
X0112006Y0134550D02*
X0112006Y0137452D01*
X0110994Y0136001D02*
X0109059Y0136001D01*
X0108048Y0135517D02*
X0108048Y0137452D01*
X0108048Y0135517D02*
X0107080Y0134550D01*
X0106113Y0135517D01*
X0106113Y0137452D01*
X0105101Y0136001D02*
X0103166Y0134550D01*
X0105101Y0136001D02*
X0103166Y0137452D01*
X0112006Y0134550D02*
X0113941Y0134550D01*
X0114952Y0135034D02*
X0115436Y0134550D01*
X0116403Y0134550D01*
X0116887Y0135034D01*
X0116887Y0137452D01*
X0117899Y0137452D02*
X0117899Y0134550D01*
X0119834Y0134550D01*
X0118866Y0136001D02*
X0117899Y0136001D01*
X0117899Y0137452D02*
X0119834Y0137452D01*
X0114952Y0137452D02*
X0114952Y0135034D01*
X0091629Y0113853D02*
X0089160Y0113853D01*
X0089160Y0110150D01*
X0091629Y0110150D01*
X0090394Y0112002D02*
X0089160Y0112002D01*
X0087946Y0113853D02*
X0087946Y0110150D01*
X0085477Y0110150D02*
X0085477Y0113853D01*
X0086711Y0112619D01*
X0087946Y0113853D01*
X0084262Y0112619D02*
X0084262Y0110150D01*
X0084262Y0112002D02*
X0081794Y0112002D01*
X0081794Y0112619D02*
X0081794Y0110150D01*
X0080579Y0110150D02*
X0080579Y0113853D01*
X0081794Y0112619D02*
X0083028Y0113853D01*
X0084262Y0112619D01*
X0080579Y0110150D02*
X0078111Y0113853D01*
X0078111Y0110150D01*
X0076896Y0112002D02*
X0074427Y0110150D01*
X0076896Y0112002D02*
X0074427Y0113853D01*
X0069834Y0114550D02*
X0067899Y0114550D01*
X0067899Y0117452D01*
X0069834Y0117452D01*
X0068866Y0116001D02*
X0067899Y0116001D01*
X0066887Y0115034D02*
X0066887Y0117452D01*
X0064952Y0117452D02*
X0064952Y0115034D01*
X0065436Y0114550D01*
X0066403Y0114550D01*
X0066887Y0115034D01*
X0063941Y0114550D02*
X0062006Y0114550D01*
X0062006Y0117452D01*
X0060994Y0116485D02*
X0060994Y0114550D01*
X0060994Y0116001D02*
X0059059Y0116001D01*
X0059059Y0116485D02*
X0060027Y0117452D01*
X0060994Y0116485D01*
X0059059Y0116485D02*
X0059059Y0114550D01*
X0058048Y0115517D02*
X0058048Y0117452D01*
X0058048Y0115517D02*
X0057080Y0114550D01*
X0056113Y0115517D01*
X0056113Y0117452D01*
X0055101Y0116001D02*
X0053166Y0114550D01*
X0055101Y0116001D02*
X0053166Y0117452D01*
X0060337Y0099500D02*
X0060337Y0095750D01*
X0061837Y0095750D01*
X0060337Y0095750D02*
X0061837Y0098500D01*
X0058837Y0098500D01*
X0060337Y0095750D01*
X0058837Y0095750D01*
X0060337Y0095750D02*
X0060337Y0094750D01*
X0068166Y0136950D02*
X0070101Y0138401D01*
X0068166Y0139852D01*
X0071113Y0139852D02*
X0071113Y0137917D01*
X0072080Y0136950D01*
X0073048Y0137917D01*
X0073048Y0139852D01*
X0074059Y0138885D02*
X0074059Y0136950D01*
X0074059Y0138401D02*
X0075994Y0138401D01*
X0075994Y0138885D02*
X0075994Y0136950D01*
X0077006Y0136950D02*
X0077006Y0139852D01*
X0075994Y0138885D02*
X0075027Y0139852D01*
X0074059Y0138885D01*
X0077006Y0136950D02*
X0078941Y0136950D01*
X0079952Y0137434D02*
X0079952Y0139852D01*
X0081887Y0139852D02*
X0081887Y0137434D01*
X0081403Y0136950D01*
X0080436Y0136950D01*
X0079952Y0137434D01*
X0082899Y0136950D02*
X0082899Y0139852D01*
X0084834Y0139852D01*
X0083866Y0138401D02*
X0082899Y0138401D01*
X0082899Y0136950D02*
X0084834Y0136950D01*
X0116587Y0188000D02*
X0116587Y0188500D01*
X0116087Y0188500D01*
X0116587Y0188500D02*
X0116587Y0189000D01*
X0116587Y0188500D02*
X0117087Y0188500D01*
X0136087Y0188500D02*
X0136587Y0188500D01*
X0136587Y0189000D01*
X0136587Y0188500D02*
X0137087Y0188500D01*
X0136587Y0188500D02*
X0136587Y0188000D01*
X0134937Y0208829D02*
X0133486Y0210764D01*
X0132035Y0208829D01*
X0132035Y0211776D02*
X0133970Y0211776D01*
X0134937Y0212743D01*
X0133970Y0213711D01*
X0132035Y0213711D01*
X0133002Y0214722D02*
X0132035Y0215690D01*
X0133002Y0216657D01*
X0134937Y0216657D01*
X0134937Y0217669D02*
X0134937Y0219604D01*
X0134453Y0220615D02*
X0134937Y0221099D01*
X0134937Y0222066D01*
X0134453Y0222550D01*
X0132035Y0222550D01*
X0132035Y0223562D02*
X0134937Y0223562D01*
X0134937Y0225497D01*
X0133486Y0224529D02*
X0133486Y0223562D01*
X0132035Y0223562D02*
X0132035Y0225497D01*
X0132035Y0220615D02*
X0134453Y0220615D01*
X0134937Y0217669D02*
X0132035Y0217669D01*
X0133486Y0216657D02*
X0133486Y0214722D01*
X0133002Y0214722D02*
X0134937Y0214722D01*
X0127437Y0215090D02*
X0125585Y0217559D01*
X0123734Y0215090D01*
X0123734Y0218774D02*
X0127437Y0221242D01*
X0123734Y0221242D01*
X0124968Y0222457D02*
X0123734Y0223691D01*
X0124968Y0224925D01*
X0127437Y0224925D01*
X0127437Y0226140D02*
X0123734Y0226140D01*
X0124968Y0227374D01*
X0123734Y0228609D01*
X0127437Y0228609D01*
X0127437Y0229823D02*
X0127437Y0232292D01*
X0125585Y0231057D02*
X0125585Y0229823D01*
X0123734Y0229823D02*
X0127437Y0229823D01*
X0123734Y0229823D02*
X0123734Y0232292D01*
X0125585Y0224925D02*
X0125585Y0222457D01*
X0124968Y0222457D02*
X0127437Y0222457D01*
X0127437Y0218774D02*
X0123734Y0218774D01*
X0107437Y0218774D02*
X0103734Y0218774D01*
X0107437Y0221242D01*
X0103734Y0221242D01*
X0104968Y0222457D02*
X0103734Y0223691D01*
X0104968Y0224925D01*
X0107437Y0224925D01*
X0107437Y0226140D02*
X0103734Y0226140D01*
X0104968Y0227374D01*
X0103734Y0228609D01*
X0107437Y0228609D01*
X0107437Y0229823D02*
X0107437Y0232292D01*
X0105585Y0231057D02*
X0105585Y0229823D01*
X0103734Y0229823D02*
X0107437Y0229823D01*
X0103734Y0229823D02*
X0103734Y0232292D01*
X0105585Y0224925D02*
X0105585Y0222457D01*
X0104968Y0222457D02*
X0107437Y0222457D01*
X0105585Y0217559D02*
X0107437Y0215090D01*
X0105585Y0217559D02*
X0103734Y0215090D01*
X0152035Y0215690D02*
X0153002Y0214722D01*
X0154937Y0214722D01*
X0153970Y0213711D02*
X0152035Y0213711D01*
X0153486Y0214722D02*
X0153486Y0216657D01*
X0153002Y0216657D02*
X0154937Y0216657D01*
X0154937Y0217669D02*
X0154937Y0219604D01*
X0154453Y0220615D02*
X0154937Y0221099D01*
X0154937Y0222066D01*
X0154453Y0222550D01*
X0152035Y0222550D01*
X0152035Y0223562D02*
X0154937Y0223562D01*
X0154937Y0225497D01*
X0153486Y0224529D02*
X0153486Y0223562D01*
X0152035Y0223562D02*
X0152035Y0225497D01*
X0152035Y0220615D02*
X0154453Y0220615D01*
X0154937Y0217669D02*
X0152035Y0217669D01*
X0153002Y0216657D02*
X0152035Y0215690D01*
X0153970Y0213711D02*
X0154937Y0212743D01*
X0153970Y0211776D01*
X0152035Y0211776D01*
X0153486Y0210764D02*
X0154937Y0208829D01*
X0153486Y0210764D02*
X0152035Y0208829D01*
X0185735Y0185497D02*
X0185735Y0183562D01*
X0188637Y0183562D01*
X0188637Y0185497D01*
X0187186Y0184529D02*
X0187186Y0183562D01*
X0188153Y0182550D02*
X0185735Y0182550D01*
X0185735Y0180615D02*
X0188153Y0180615D01*
X0188637Y0181099D01*
X0188637Y0182066D01*
X0188153Y0182550D01*
X0188637Y0179604D02*
X0188637Y0177669D01*
X0185735Y0177669D01*
X0186702Y0176657D02*
X0188637Y0176657D01*
X0187186Y0176657D02*
X0187186Y0174722D01*
X0186702Y0174722D02*
X0185735Y0175690D01*
X0186702Y0176657D01*
X0186702Y0174722D02*
X0188637Y0174722D01*
X0187670Y0173711D02*
X0185735Y0173711D01*
X0187670Y0173711D02*
X0188637Y0172743D01*
X0187670Y0171776D01*
X0185735Y0171776D01*
X0187186Y0170764D02*
X0188637Y0168829D01*
X0187186Y0170764D02*
X0185735Y0168829D01*
X0193166Y0174550D02*
X0195101Y0176001D01*
X0193166Y0177452D01*
X0196113Y0177452D02*
X0196113Y0175517D01*
X0197080Y0174550D01*
X0198048Y0175517D01*
X0198048Y0177452D01*
X0199059Y0176485D02*
X0200027Y0177452D01*
X0200994Y0176485D01*
X0200994Y0174550D01*
X0202006Y0174550D02*
X0203941Y0174550D01*
X0204952Y0175034D02*
X0204952Y0177452D01*
X0206887Y0177452D02*
X0206887Y0175034D01*
X0206403Y0174550D01*
X0205436Y0174550D01*
X0204952Y0175034D01*
X0207899Y0174550D02*
X0207899Y0177452D01*
X0209834Y0177452D01*
X0208866Y0176001D02*
X0207899Y0176001D01*
X0207899Y0174550D02*
X0209834Y0174550D01*
X0213234Y0175090D02*
X0215085Y0177559D01*
X0216937Y0175090D01*
X0216937Y0178774D02*
X0213234Y0178774D01*
X0216937Y0181242D01*
X0213234Y0181242D01*
X0214468Y0182457D02*
X0213234Y0183691D01*
X0214468Y0184925D01*
X0216937Y0184925D01*
X0216937Y0186140D02*
X0213234Y0186140D01*
X0214468Y0187374D01*
X0213234Y0188609D01*
X0216937Y0188609D01*
X0216937Y0189823D02*
X0213234Y0189823D01*
X0213234Y0192292D01*
X0215085Y0191057D02*
X0215085Y0189823D01*
X0216937Y0189823D02*
X0216937Y0192292D01*
X0215085Y0184925D02*
X0215085Y0182457D01*
X0214468Y0182457D02*
X0216937Y0182457D01*
X0202006Y0177452D02*
X0202006Y0174550D01*
X0200994Y0176001D02*
X0199059Y0176001D01*
X0199059Y0176485D02*
X0199059Y0174550D01*
X0199952Y0159852D02*
X0199952Y0157434D01*
X0200436Y0156950D01*
X0201403Y0156950D01*
X0201887Y0157434D01*
X0201887Y0159852D01*
X0202899Y0159852D02*
X0202899Y0156950D01*
X0204834Y0156950D01*
X0204952Y0157452D02*
X0204952Y0155034D01*
X0205436Y0154550D01*
X0206403Y0154550D01*
X0206887Y0155034D01*
X0206887Y0157452D01*
X0207899Y0157452D02*
X0207899Y0154550D01*
X0209834Y0154550D01*
X0208866Y0156001D02*
X0207899Y0156001D01*
X0207899Y0157452D02*
X0209834Y0157452D01*
X0204834Y0159852D02*
X0202899Y0159852D01*
X0202899Y0158401D02*
X0203866Y0158401D01*
X0202006Y0157452D02*
X0202006Y0154550D01*
X0203941Y0154550D01*
X0204087Y0154000D02*
X0204087Y0153500D01*
X0204587Y0153500D01*
X0204087Y0153500D02*
X0204087Y0153000D01*
X0204087Y0153500D02*
X0203587Y0153500D01*
X0200994Y0154550D02*
X0200994Y0156485D01*
X0200027Y0157452D01*
X0199059Y0156485D01*
X0199059Y0154550D01*
X0198048Y0155517D02*
X0198048Y0157452D01*
X0198941Y0156950D02*
X0197006Y0156950D01*
X0197006Y0159852D01*
X0195994Y0158885D02*
X0195994Y0156950D01*
X0196113Y0157452D02*
X0196113Y0155517D01*
X0197080Y0154550D01*
X0198048Y0155517D01*
X0199059Y0156001D02*
X0200994Y0156001D01*
X0195994Y0158401D02*
X0194059Y0158401D01*
X0194059Y0158885D02*
X0195027Y0159852D01*
X0195994Y0158885D01*
X0194059Y0158885D02*
X0194059Y0156950D01*
X0193166Y0157452D02*
X0195101Y0156001D01*
X0193166Y0154550D01*
X0192080Y0156950D02*
X0193048Y0157917D01*
X0193048Y0159852D01*
X0191113Y0159852D02*
X0191113Y0157917D01*
X0192080Y0156950D01*
X0190101Y0158401D02*
X0188166Y0159852D01*
X0190101Y0158401D02*
X0188166Y0156950D01*
X0198885Y0145497D02*
X0198885Y0143562D01*
X0201787Y0143562D01*
X0201787Y0145497D01*
X0200336Y0144529D02*
X0200336Y0143562D01*
X0201303Y0142550D02*
X0198885Y0142550D01*
X0198885Y0140615D02*
X0201303Y0140615D01*
X0201787Y0141099D01*
X0201787Y0142066D01*
X0201303Y0142550D01*
X0201787Y0139604D02*
X0201787Y0137669D01*
X0198885Y0137669D01*
X0199235Y0137355D02*
X0199235Y0135420D01*
X0202137Y0135420D01*
X0202137Y0137355D01*
X0201787Y0136657D02*
X0199852Y0136657D01*
X0198885Y0135690D01*
X0199852Y0134722D01*
X0201787Y0134722D01*
X0201653Y0134408D02*
X0199235Y0134408D01*
X0198885Y0133711D02*
X0200820Y0133711D01*
X0201787Y0132743D01*
X0200820Y0131776D01*
X0198885Y0131776D01*
X0199235Y0132473D02*
X0201653Y0132473D01*
X0202137Y0132957D01*
X0202137Y0133925D01*
X0201653Y0134408D01*
X0200579Y0133853D02*
X0200579Y0130150D01*
X0198111Y0133853D01*
X0198111Y0130150D01*
X0199235Y0129527D02*
X0202137Y0129527D01*
X0202137Y0131462D01*
X0201794Y0132002D02*
X0204262Y0132002D01*
X0204262Y0132619D02*
X0204262Y0130150D01*
X0205477Y0130150D02*
X0205477Y0133853D01*
X0206711Y0132619D01*
X0207946Y0133853D01*
X0207946Y0130150D01*
X0209160Y0130150D02*
X0211629Y0130150D01*
X0210394Y0132002D02*
X0209160Y0132002D01*
X0209160Y0133853D02*
X0209160Y0130150D01*
X0209160Y0133853D02*
X0211629Y0133853D01*
X0211794Y0138150D02*
X0211794Y0140619D01*
X0213028Y0141853D01*
X0214262Y0140619D01*
X0214262Y0138150D01*
X0215477Y0138150D02*
X0215477Y0141853D01*
X0216711Y0140619D01*
X0217946Y0141853D01*
X0217946Y0138150D01*
X0219160Y0138150D02*
X0221629Y0138150D01*
X0220394Y0140002D02*
X0219160Y0140002D01*
X0219160Y0141853D02*
X0219160Y0138150D01*
X0219160Y0141853D02*
X0221629Y0141853D01*
X0214262Y0140002D02*
X0211794Y0140002D01*
X0210579Y0138150D02*
X0210579Y0141853D01*
X0208111Y0141853D02*
X0210579Y0138150D01*
X0208111Y0138150D02*
X0208111Y0141853D01*
X0206896Y0140002D02*
X0204427Y0138150D01*
X0206896Y0140002D02*
X0204427Y0141853D01*
X0200336Y0136657D02*
X0200336Y0134722D01*
X0200686Y0135420D02*
X0200686Y0136387D01*
X0203028Y0133853D02*
X0201794Y0132619D01*
X0201794Y0130150D01*
X0201787Y0128829D02*
X0200336Y0130764D01*
X0198885Y0128829D01*
X0199235Y0127548D02*
X0200202Y0128515D01*
X0202137Y0128515D01*
X0200686Y0128515D02*
X0200686Y0126580D01*
X0200202Y0126580D02*
X0199235Y0127548D01*
X0200202Y0126580D02*
X0202137Y0126580D01*
X0201170Y0125569D02*
X0199235Y0125569D01*
X0201170Y0125569D02*
X0202137Y0124601D01*
X0201170Y0123634D01*
X0199235Y0123634D01*
X0200686Y0122622D02*
X0202137Y0120687D01*
X0200686Y0122622D02*
X0199235Y0120687D01*
X0198166Y0115052D02*
X0200101Y0113601D01*
X0198166Y0112150D01*
X0201113Y0113117D02*
X0201113Y0115052D01*
X0201113Y0113117D02*
X0202080Y0112150D01*
X0203048Y0113117D01*
X0203048Y0115052D01*
X0204059Y0114085D02*
X0205027Y0115052D01*
X0205994Y0114085D01*
X0205994Y0112150D01*
X0207006Y0112150D02*
X0208941Y0112150D01*
X0209952Y0112634D02*
X0209952Y0115052D01*
X0211887Y0115052D02*
X0211887Y0112634D01*
X0211403Y0112150D01*
X0210436Y0112150D01*
X0209952Y0112634D01*
X0212899Y0112150D02*
X0212899Y0115052D01*
X0214834Y0115052D01*
X0213866Y0113601D02*
X0212899Y0113601D01*
X0212899Y0112150D02*
X0214834Y0112150D01*
X0207006Y0112150D02*
X0207006Y0115052D01*
X0205994Y0113601D02*
X0204059Y0113601D01*
X0204059Y0114085D02*
X0204059Y0112150D01*
X0194427Y0130150D02*
X0196896Y0132002D01*
X0194427Y0133853D01*
X0203028Y0133853D02*
X0204262Y0132619D01*
X0190337Y0094500D02*
X0190337Y0090750D01*
X0191837Y0090750D01*
X0190337Y0090750D02*
X0188837Y0090750D01*
X0190337Y0090750D02*
X0188837Y0093500D01*
X0191837Y0093500D01*
X0190337Y0090750D01*
X0190337Y0089750D01*
X0219734Y0082436D02*
X0219734Y0079967D01*
X0223437Y0079967D01*
X0223437Y0082436D01*
X0221585Y0081201D02*
X0221585Y0079967D01*
X0219734Y0078752D02*
X0223437Y0078752D01*
X0223437Y0076284D02*
X0219734Y0076284D01*
X0220968Y0077518D01*
X0219734Y0078752D01*
X0220968Y0075069D02*
X0223437Y0075069D01*
X0221585Y0075069D02*
X0221585Y0072600D01*
X0220968Y0072600D02*
X0219734Y0073835D01*
X0220968Y0075069D01*
X0220968Y0072600D02*
X0223437Y0072600D01*
X0223437Y0071386D02*
X0219734Y0071386D01*
X0219734Y0068917D02*
X0223437Y0071386D01*
X0223437Y0068917D02*
X0219734Y0068917D01*
X0221585Y0067703D02*
X0223437Y0065234D01*
X0221585Y0067703D02*
X0219734Y0065234D01*
X0244524Y0075650D02*
X0246459Y0077101D01*
X0244524Y0078552D01*
X0247471Y0078552D02*
X0247471Y0076617D01*
X0248438Y0075650D01*
X0249406Y0076617D01*
X0249406Y0078552D01*
X0250417Y0077585D02*
X0251385Y0078552D01*
X0252352Y0077585D01*
X0252352Y0075650D01*
X0253364Y0075650D02*
X0255299Y0075650D01*
X0256310Y0076134D02*
X0256794Y0075650D01*
X0257762Y0075650D01*
X0258245Y0076134D01*
X0258245Y0078552D01*
X0259257Y0078552D02*
X0259257Y0075650D01*
X0261192Y0075650D01*
X0260224Y0077101D02*
X0259257Y0077101D01*
X0259257Y0078552D02*
X0261192Y0078552D01*
X0256310Y0078552D02*
X0256310Y0076134D01*
X0253364Y0075650D02*
X0253364Y0078552D01*
X0252352Y0077101D02*
X0250417Y0077101D01*
X0250417Y0077585D02*
X0250417Y0075650D01*
D14*
X0212837Y0072500D02*
X0212837Y0079500D01*
X0212835Y0079598D01*
X0212829Y0079696D01*
X0212820Y0079794D01*
X0212806Y0079891D01*
X0212789Y0079988D01*
X0212768Y0080084D01*
X0212743Y0080179D01*
X0212715Y0080273D01*
X0212682Y0080365D01*
X0212647Y0080457D01*
X0212607Y0080547D01*
X0212565Y0080635D01*
X0212518Y0080722D01*
X0212469Y0080806D01*
X0212416Y0080889D01*
X0212360Y0080969D01*
X0212300Y0081048D01*
X0212238Y0081124D01*
X0212173Y0081197D01*
X0212105Y0081268D01*
X0212034Y0081336D01*
X0211961Y0081401D01*
X0211885Y0081463D01*
X0211806Y0081523D01*
X0211726Y0081579D01*
X0211643Y0081632D01*
X0211559Y0081681D01*
X0211472Y0081728D01*
X0211384Y0081770D01*
X0211294Y0081810D01*
X0211202Y0081845D01*
X0211110Y0081878D01*
X0211016Y0081906D01*
X0210921Y0081931D01*
X0210825Y0081952D01*
X0210728Y0081969D01*
X0210631Y0081983D01*
X0210533Y0081992D01*
X0210435Y0081998D01*
X0210337Y0082000D01*
X0210239Y0081998D01*
X0210141Y0081992D01*
X0210043Y0081983D01*
X0209946Y0081969D01*
X0209849Y0081952D01*
X0209753Y0081931D01*
X0209658Y0081906D01*
X0209564Y0081878D01*
X0209472Y0081845D01*
X0209380Y0081810D01*
X0209290Y0081770D01*
X0209202Y0081728D01*
X0209115Y0081681D01*
X0209031Y0081632D01*
X0208948Y0081579D01*
X0208868Y0081523D01*
X0208789Y0081463D01*
X0208713Y0081401D01*
X0208640Y0081336D01*
X0208569Y0081268D01*
X0208501Y0081197D01*
X0208436Y0081124D01*
X0208374Y0081048D01*
X0208314Y0080969D01*
X0208258Y0080889D01*
X0208205Y0080806D01*
X0208156Y0080722D01*
X0208109Y0080635D01*
X0208067Y0080547D01*
X0208027Y0080457D01*
X0207992Y0080365D01*
X0207959Y0080273D01*
X0207931Y0080179D01*
X0207906Y0080084D01*
X0207885Y0079988D01*
X0207868Y0079891D01*
X0207854Y0079794D01*
X0207845Y0079696D01*
X0207839Y0079598D01*
X0207837Y0079500D01*
X0207837Y0072500D01*
X0207839Y0072402D01*
X0207845Y0072304D01*
X0207854Y0072206D01*
X0207868Y0072109D01*
X0207885Y0072012D01*
X0207906Y0071916D01*
X0207931Y0071821D01*
X0207959Y0071727D01*
X0207992Y0071635D01*
X0208027Y0071543D01*
X0208067Y0071453D01*
X0208109Y0071365D01*
X0208156Y0071278D01*
X0208205Y0071194D01*
X0208258Y0071111D01*
X0208314Y0071031D01*
X0208374Y0070952D01*
X0208436Y0070876D01*
X0208501Y0070803D01*
X0208569Y0070732D01*
X0208640Y0070664D01*
X0208713Y0070599D01*
X0208789Y0070537D01*
X0208868Y0070477D01*
X0208948Y0070421D01*
X0209031Y0070368D01*
X0209115Y0070319D01*
X0209202Y0070272D01*
X0209290Y0070230D01*
X0209380Y0070190D01*
X0209472Y0070155D01*
X0209564Y0070122D01*
X0209658Y0070094D01*
X0209753Y0070069D01*
X0209849Y0070048D01*
X0209946Y0070031D01*
X0210043Y0070017D01*
X0210141Y0070008D01*
X0210239Y0070002D01*
X0210337Y0070000D01*
X0210435Y0070002D01*
X0210533Y0070008D01*
X0210631Y0070017D01*
X0210728Y0070031D01*
X0210825Y0070048D01*
X0210921Y0070069D01*
X0211016Y0070094D01*
X0211110Y0070122D01*
X0211202Y0070155D01*
X0211294Y0070190D01*
X0211384Y0070230D01*
X0211472Y0070272D01*
X0211559Y0070319D01*
X0211643Y0070368D01*
X0211726Y0070421D01*
X0211806Y0070477D01*
X0211885Y0070537D01*
X0211961Y0070599D01*
X0212034Y0070664D01*
X0212105Y0070732D01*
X0212173Y0070803D01*
X0212238Y0070876D01*
X0212300Y0070952D01*
X0212360Y0071031D01*
X0212416Y0071111D01*
X0212469Y0071194D01*
X0212518Y0071278D01*
X0212565Y0071365D01*
X0212607Y0071453D01*
X0212647Y0071543D01*
X0212682Y0071635D01*
X0212715Y0071727D01*
X0212743Y0071821D01*
X0212768Y0071916D01*
X0212789Y0072012D01*
X0212806Y0072109D01*
X0212820Y0072206D01*
X0212829Y0072304D01*
X0212835Y0072402D01*
X0212837Y0072500D01*
X0212837Y0079500D02*
X0212835Y0079598D01*
X0212829Y0079696D01*
X0212820Y0079794D01*
X0212806Y0079891D01*
X0212789Y0079988D01*
X0212768Y0080084D01*
X0212743Y0080179D01*
X0212715Y0080273D01*
X0212682Y0080365D01*
X0212647Y0080457D01*
X0212607Y0080547D01*
X0212565Y0080635D01*
X0212518Y0080722D01*
X0212469Y0080806D01*
X0212416Y0080889D01*
X0212360Y0080969D01*
X0212300Y0081048D01*
X0212238Y0081124D01*
X0212173Y0081197D01*
X0212105Y0081268D01*
X0212034Y0081336D01*
X0211961Y0081401D01*
X0211885Y0081463D01*
X0211806Y0081523D01*
X0211726Y0081579D01*
X0211643Y0081632D01*
X0211559Y0081681D01*
X0211472Y0081728D01*
X0211384Y0081770D01*
X0211294Y0081810D01*
X0211202Y0081845D01*
X0211110Y0081878D01*
X0211016Y0081906D01*
X0210921Y0081931D01*
X0210825Y0081952D01*
X0210728Y0081969D01*
X0210631Y0081983D01*
X0210533Y0081992D01*
X0210435Y0081998D01*
X0210337Y0082000D01*
X0190337Y0078500D02*
X0190337Y0076000D01*
X0190337Y0103500D02*
X0190337Y0106000D01*
X0194337Y0151000D02*
X0194339Y0151154D01*
X0194345Y0151309D01*
X0194355Y0151463D01*
X0194369Y0151617D01*
X0194387Y0151770D01*
X0194408Y0151923D01*
X0194434Y0152076D01*
X0194464Y0152227D01*
X0194497Y0152378D01*
X0194535Y0152528D01*
X0194576Y0152677D01*
X0194621Y0152825D01*
X0194670Y0152971D01*
X0194723Y0153117D01*
X0194779Y0153260D01*
X0194839Y0153403D01*
X0194903Y0153543D01*
X0194970Y0153683D01*
X0195041Y0153820D01*
X0195115Y0153955D01*
X0195193Y0154089D01*
X0195274Y0154220D01*
X0195359Y0154349D01*
X0195447Y0154477D01*
X0195538Y0154601D01*
X0195632Y0154724D01*
X0195730Y0154844D01*
X0195830Y0154961D01*
X0195934Y0155076D01*
X0196040Y0155188D01*
X0196149Y0155297D01*
X0196261Y0155403D01*
X0196376Y0155507D01*
X0196493Y0155607D01*
X0196613Y0155705D01*
X0196736Y0155799D01*
X0196860Y0155890D01*
X0196988Y0155978D01*
X0197117Y0156063D01*
X0197248Y0156144D01*
X0197382Y0156222D01*
X0197517Y0156296D01*
X0197654Y0156367D01*
X0197794Y0156434D01*
X0197934Y0156498D01*
X0198077Y0156558D01*
X0198220Y0156614D01*
X0198366Y0156667D01*
X0198512Y0156716D01*
X0198660Y0156761D01*
X0198809Y0156802D01*
X0198959Y0156840D01*
X0199110Y0156873D01*
X0199261Y0156903D01*
X0199414Y0156929D01*
X0199567Y0156950D01*
X0199720Y0156968D01*
X0199874Y0156982D01*
X0200028Y0156992D01*
X0200183Y0156998D01*
X0200337Y0157000D01*
X0200491Y0156998D01*
X0200646Y0156992D01*
X0200800Y0156982D01*
X0200954Y0156968D01*
X0201107Y0156950D01*
X0201260Y0156929D01*
X0201413Y0156903D01*
X0201564Y0156873D01*
X0201715Y0156840D01*
X0201865Y0156802D01*
X0202014Y0156761D01*
X0202162Y0156716D01*
X0202308Y0156667D01*
X0202454Y0156614D01*
X0202597Y0156558D01*
X0202740Y0156498D01*
X0202880Y0156434D01*
X0203020Y0156367D01*
X0203157Y0156296D01*
X0203292Y0156222D01*
X0203426Y0156144D01*
X0203557Y0156063D01*
X0203686Y0155978D01*
X0203814Y0155890D01*
X0203938Y0155799D01*
X0204061Y0155705D01*
X0204181Y0155607D01*
X0204298Y0155507D01*
X0204413Y0155403D01*
X0204525Y0155297D01*
X0204634Y0155188D01*
X0204740Y0155076D01*
X0204844Y0154961D01*
X0204944Y0154844D01*
X0205042Y0154724D01*
X0205136Y0154601D01*
X0205227Y0154477D01*
X0205315Y0154349D01*
X0205400Y0154220D01*
X0205481Y0154089D01*
X0205559Y0153955D01*
X0205633Y0153820D01*
X0205704Y0153683D01*
X0205771Y0153543D01*
X0205835Y0153403D01*
X0205895Y0153260D01*
X0205951Y0153117D01*
X0206004Y0152971D01*
X0206053Y0152825D01*
X0206098Y0152677D01*
X0206139Y0152528D01*
X0206177Y0152378D01*
X0206210Y0152227D01*
X0206240Y0152076D01*
X0206266Y0151923D01*
X0206287Y0151770D01*
X0206305Y0151617D01*
X0206319Y0151463D01*
X0206329Y0151309D01*
X0206335Y0151154D01*
X0206337Y0151000D01*
X0206335Y0150846D01*
X0206329Y0150691D01*
X0206319Y0150537D01*
X0206305Y0150383D01*
X0206287Y0150230D01*
X0206266Y0150077D01*
X0206240Y0149924D01*
X0206210Y0149773D01*
X0206177Y0149622D01*
X0206139Y0149472D01*
X0206098Y0149323D01*
X0206053Y0149175D01*
X0206004Y0149029D01*
X0205951Y0148883D01*
X0205895Y0148740D01*
X0205835Y0148597D01*
X0205771Y0148457D01*
X0205704Y0148317D01*
X0205633Y0148180D01*
X0205559Y0148045D01*
X0205481Y0147911D01*
X0205400Y0147780D01*
X0205315Y0147651D01*
X0205227Y0147523D01*
X0205136Y0147399D01*
X0205042Y0147276D01*
X0204944Y0147156D01*
X0204844Y0147039D01*
X0204740Y0146924D01*
X0204634Y0146812D01*
X0204525Y0146703D01*
X0204413Y0146597D01*
X0204298Y0146493D01*
X0204181Y0146393D01*
X0204061Y0146295D01*
X0203938Y0146201D01*
X0203814Y0146110D01*
X0203686Y0146022D01*
X0203557Y0145937D01*
X0203426Y0145856D01*
X0203292Y0145778D01*
X0203157Y0145704D01*
X0203020Y0145633D01*
X0202880Y0145566D01*
X0202740Y0145502D01*
X0202597Y0145442D01*
X0202454Y0145386D01*
X0202308Y0145333D01*
X0202162Y0145284D01*
X0202014Y0145239D01*
X0201865Y0145198D01*
X0201715Y0145160D01*
X0201564Y0145127D01*
X0201413Y0145097D01*
X0201260Y0145071D01*
X0201107Y0145050D01*
X0200954Y0145032D01*
X0200800Y0145018D01*
X0200646Y0145008D01*
X0200491Y0145002D01*
X0200337Y0145000D01*
X0200183Y0145002D01*
X0200028Y0145008D01*
X0199874Y0145018D01*
X0199720Y0145032D01*
X0199567Y0145050D01*
X0199414Y0145071D01*
X0199261Y0145097D01*
X0199110Y0145127D01*
X0198959Y0145160D01*
X0198809Y0145198D01*
X0198660Y0145239D01*
X0198512Y0145284D01*
X0198366Y0145333D01*
X0198220Y0145386D01*
X0198077Y0145442D01*
X0197934Y0145502D01*
X0197794Y0145566D01*
X0197654Y0145633D01*
X0197517Y0145704D01*
X0197382Y0145778D01*
X0197248Y0145856D01*
X0197117Y0145937D01*
X0196988Y0146022D01*
X0196860Y0146110D01*
X0196736Y0146201D01*
X0196613Y0146295D01*
X0196493Y0146393D01*
X0196376Y0146493D01*
X0196261Y0146597D01*
X0196149Y0146703D01*
X0196040Y0146812D01*
X0195934Y0146924D01*
X0195830Y0147039D01*
X0195730Y0147156D01*
X0195632Y0147276D01*
X0195538Y0147399D01*
X0195447Y0147523D01*
X0195359Y0147651D01*
X0195274Y0147780D01*
X0195193Y0147911D01*
X0195115Y0148045D01*
X0195041Y0148180D01*
X0194970Y0148317D01*
X0194903Y0148457D01*
X0194839Y0148597D01*
X0194779Y0148740D01*
X0194723Y0148883D01*
X0194670Y0149029D01*
X0194621Y0149175D01*
X0194576Y0149323D01*
X0194535Y0149472D01*
X0194497Y0149622D01*
X0194464Y0149773D01*
X0194434Y0149924D01*
X0194408Y0150077D01*
X0194387Y0150230D01*
X0194369Y0150383D01*
X0194355Y0150537D01*
X0194345Y0150691D01*
X0194339Y0150846D01*
X0194337Y0151000D01*
X0134337Y0191000D02*
X0134339Y0191154D01*
X0134345Y0191309D01*
X0134355Y0191463D01*
X0134369Y0191617D01*
X0134387Y0191770D01*
X0134408Y0191923D01*
X0134434Y0192076D01*
X0134464Y0192227D01*
X0134497Y0192378D01*
X0134535Y0192528D01*
X0134576Y0192677D01*
X0134621Y0192825D01*
X0134670Y0192971D01*
X0134723Y0193117D01*
X0134779Y0193260D01*
X0134839Y0193403D01*
X0134903Y0193543D01*
X0134970Y0193683D01*
X0135041Y0193820D01*
X0135115Y0193955D01*
X0135193Y0194089D01*
X0135274Y0194220D01*
X0135359Y0194349D01*
X0135447Y0194477D01*
X0135538Y0194601D01*
X0135632Y0194724D01*
X0135730Y0194844D01*
X0135830Y0194961D01*
X0135934Y0195076D01*
X0136040Y0195188D01*
X0136149Y0195297D01*
X0136261Y0195403D01*
X0136376Y0195507D01*
X0136493Y0195607D01*
X0136613Y0195705D01*
X0136736Y0195799D01*
X0136860Y0195890D01*
X0136988Y0195978D01*
X0137117Y0196063D01*
X0137248Y0196144D01*
X0137382Y0196222D01*
X0137517Y0196296D01*
X0137654Y0196367D01*
X0137794Y0196434D01*
X0137934Y0196498D01*
X0138077Y0196558D01*
X0138220Y0196614D01*
X0138366Y0196667D01*
X0138512Y0196716D01*
X0138660Y0196761D01*
X0138809Y0196802D01*
X0138959Y0196840D01*
X0139110Y0196873D01*
X0139261Y0196903D01*
X0139414Y0196929D01*
X0139567Y0196950D01*
X0139720Y0196968D01*
X0139874Y0196982D01*
X0140028Y0196992D01*
X0140183Y0196998D01*
X0140337Y0197000D01*
X0140491Y0196998D01*
X0140646Y0196992D01*
X0140800Y0196982D01*
X0140954Y0196968D01*
X0141107Y0196950D01*
X0141260Y0196929D01*
X0141413Y0196903D01*
X0141564Y0196873D01*
X0141715Y0196840D01*
X0141865Y0196802D01*
X0142014Y0196761D01*
X0142162Y0196716D01*
X0142308Y0196667D01*
X0142454Y0196614D01*
X0142597Y0196558D01*
X0142740Y0196498D01*
X0142880Y0196434D01*
X0143020Y0196367D01*
X0143157Y0196296D01*
X0143292Y0196222D01*
X0143426Y0196144D01*
X0143557Y0196063D01*
X0143686Y0195978D01*
X0143814Y0195890D01*
X0143938Y0195799D01*
X0144061Y0195705D01*
X0144181Y0195607D01*
X0144298Y0195507D01*
X0144413Y0195403D01*
X0144525Y0195297D01*
X0144634Y0195188D01*
X0144740Y0195076D01*
X0144844Y0194961D01*
X0144944Y0194844D01*
X0145042Y0194724D01*
X0145136Y0194601D01*
X0145227Y0194477D01*
X0145315Y0194349D01*
X0145400Y0194220D01*
X0145481Y0194089D01*
X0145559Y0193955D01*
X0145633Y0193820D01*
X0145704Y0193683D01*
X0145771Y0193543D01*
X0145835Y0193403D01*
X0145895Y0193260D01*
X0145951Y0193117D01*
X0146004Y0192971D01*
X0146053Y0192825D01*
X0146098Y0192677D01*
X0146139Y0192528D01*
X0146177Y0192378D01*
X0146210Y0192227D01*
X0146240Y0192076D01*
X0146266Y0191923D01*
X0146287Y0191770D01*
X0146305Y0191617D01*
X0146319Y0191463D01*
X0146329Y0191309D01*
X0146335Y0191154D01*
X0146337Y0191000D01*
X0146335Y0190846D01*
X0146329Y0190691D01*
X0146319Y0190537D01*
X0146305Y0190383D01*
X0146287Y0190230D01*
X0146266Y0190077D01*
X0146240Y0189924D01*
X0146210Y0189773D01*
X0146177Y0189622D01*
X0146139Y0189472D01*
X0146098Y0189323D01*
X0146053Y0189175D01*
X0146004Y0189029D01*
X0145951Y0188883D01*
X0145895Y0188740D01*
X0145835Y0188597D01*
X0145771Y0188457D01*
X0145704Y0188317D01*
X0145633Y0188180D01*
X0145559Y0188045D01*
X0145481Y0187911D01*
X0145400Y0187780D01*
X0145315Y0187651D01*
X0145227Y0187523D01*
X0145136Y0187399D01*
X0145042Y0187276D01*
X0144944Y0187156D01*
X0144844Y0187039D01*
X0144740Y0186924D01*
X0144634Y0186812D01*
X0144525Y0186703D01*
X0144413Y0186597D01*
X0144298Y0186493D01*
X0144181Y0186393D01*
X0144061Y0186295D01*
X0143938Y0186201D01*
X0143814Y0186110D01*
X0143686Y0186022D01*
X0143557Y0185937D01*
X0143426Y0185856D01*
X0143292Y0185778D01*
X0143157Y0185704D01*
X0143020Y0185633D01*
X0142880Y0185566D01*
X0142740Y0185502D01*
X0142597Y0185442D01*
X0142454Y0185386D01*
X0142308Y0185333D01*
X0142162Y0185284D01*
X0142014Y0185239D01*
X0141865Y0185198D01*
X0141715Y0185160D01*
X0141564Y0185127D01*
X0141413Y0185097D01*
X0141260Y0185071D01*
X0141107Y0185050D01*
X0140954Y0185032D01*
X0140800Y0185018D01*
X0140646Y0185008D01*
X0140491Y0185002D01*
X0140337Y0185000D01*
X0140183Y0185002D01*
X0140028Y0185008D01*
X0139874Y0185018D01*
X0139720Y0185032D01*
X0139567Y0185050D01*
X0139414Y0185071D01*
X0139261Y0185097D01*
X0139110Y0185127D01*
X0138959Y0185160D01*
X0138809Y0185198D01*
X0138660Y0185239D01*
X0138512Y0185284D01*
X0138366Y0185333D01*
X0138220Y0185386D01*
X0138077Y0185442D01*
X0137934Y0185502D01*
X0137794Y0185566D01*
X0137654Y0185633D01*
X0137517Y0185704D01*
X0137382Y0185778D01*
X0137248Y0185856D01*
X0137117Y0185937D01*
X0136988Y0186022D01*
X0136860Y0186110D01*
X0136736Y0186201D01*
X0136613Y0186295D01*
X0136493Y0186393D01*
X0136376Y0186493D01*
X0136261Y0186597D01*
X0136149Y0186703D01*
X0136040Y0186812D01*
X0135934Y0186924D01*
X0135830Y0187039D01*
X0135730Y0187156D01*
X0135632Y0187276D01*
X0135538Y0187399D01*
X0135447Y0187523D01*
X0135359Y0187651D01*
X0135274Y0187780D01*
X0135193Y0187911D01*
X0135115Y0188045D01*
X0135041Y0188180D01*
X0134970Y0188317D01*
X0134903Y0188457D01*
X0134839Y0188597D01*
X0134779Y0188740D01*
X0134723Y0188883D01*
X0134670Y0189029D01*
X0134621Y0189175D01*
X0134576Y0189323D01*
X0134535Y0189472D01*
X0134497Y0189622D01*
X0134464Y0189773D01*
X0134434Y0189924D01*
X0134408Y0190077D01*
X0134387Y0190230D01*
X0134369Y0190383D01*
X0134355Y0190537D01*
X0134345Y0190691D01*
X0134339Y0190846D01*
X0134337Y0191000D01*
X0114337Y0191000D02*
X0114339Y0191154D01*
X0114345Y0191309D01*
X0114355Y0191463D01*
X0114369Y0191617D01*
X0114387Y0191770D01*
X0114408Y0191923D01*
X0114434Y0192076D01*
X0114464Y0192227D01*
X0114497Y0192378D01*
X0114535Y0192528D01*
X0114576Y0192677D01*
X0114621Y0192825D01*
X0114670Y0192971D01*
X0114723Y0193117D01*
X0114779Y0193260D01*
X0114839Y0193403D01*
X0114903Y0193543D01*
X0114970Y0193683D01*
X0115041Y0193820D01*
X0115115Y0193955D01*
X0115193Y0194089D01*
X0115274Y0194220D01*
X0115359Y0194349D01*
X0115447Y0194477D01*
X0115538Y0194601D01*
X0115632Y0194724D01*
X0115730Y0194844D01*
X0115830Y0194961D01*
X0115934Y0195076D01*
X0116040Y0195188D01*
X0116149Y0195297D01*
X0116261Y0195403D01*
X0116376Y0195507D01*
X0116493Y0195607D01*
X0116613Y0195705D01*
X0116736Y0195799D01*
X0116860Y0195890D01*
X0116988Y0195978D01*
X0117117Y0196063D01*
X0117248Y0196144D01*
X0117382Y0196222D01*
X0117517Y0196296D01*
X0117654Y0196367D01*
X0117794Y0196434D01*
X0117934Y0196498D01*
X0118077Y0196558D01*
X0118220Y0196614D01*
X0118366Y0196667D01*
X0118512Y0196716D01*
X0118660Y0196761D01*
X0118809Y0196802D01*
X0118959Y0196840D01*
X0119110Y0196873D01*
X0119261Y0196903D01*
X0119414Y0196929D01*
X0119567Y0196950D01*
X0119720Y0196968D01*
X0119874Y0196982D01*
X0120028Y0196992D01*
X0120183Y0196998D01*
X0120337Y0197000D01*
X0120491Y0196998D01*
X0120646Y0196992D01*
X0120800Y0196982D01*
X0120954Y0196968D01*
X0121107Y0196950D01*
X0121260Y0196929D01*
X0121413Y0196903D01*
X0121564Y0196873D01*
X0121715Y0196840D01*
X0121865Y0196802D01*
X0122014Y0196761D01*
X0122162Y0196716D01*
X0122308Y0196667D01*
X0122454Y0196614D01*
X0122597Y0196558D01*
X0122740Y0196498D01*
X0122880Y0196434D01*
X0123020Y0196367D01*
X0123157Y0196296D01*
X0123292Y0196222D01*
X0123426Y0196144D01*
X0123557Y0196063D01*
X0123686Y0195978D01*
X0123814Y0195890D01*
X0123938Y0195799D01*
X0124061Y0195705D01*
X0124181Y0195607D01*
X0124298Y0195507D01*
X0124413Y0195403D01*
X0124525Y0195297D01*
X0124634Y0195188D01*
X0124740Y0195076D01*
X0124844Y0194961D01*
X0124944Y0194844D01*
X0125042Y0194724D01*
X0125136Y0194601D01*
X0125227Y0194477D01*
X0125315Y0194349D01*
X0125400Y0194220D01*
X0125481Y0194089D01*
X0125559Y0193955D01*
X0125633Y0193820D01*
X0125704Y0193683D01*
X0125771Y0193543D01*
X0125835Y0193403D01*
X0125895Y0193260D01*
X0125951Y0193117D01*
X0126004Y0192971D01*
X0126053Y0192825D01*
X0126098Y0192677D01*
X0126139Y0192528D01*
X0126177Y0192378D01*
X0126210Y0192227D01*
X0126240Y0192076D01*
X0126266Y0191923D01*
X0126287Y0191770D01*
X0126305Y0191617D01*
X0126319Y0191463D01*
X0126329Y0191309D01*
X0126335Y0191154D01*
X0126337Y0191000D01*
X0126335Y0190846D01*
X0126329Y0190691D01*
X0126319Y0190537D01*
X0126305Y0190383D01*
X0126287Y0190230D01*
X0126266Y0190077D01*
X0126240Y0189924D01*
X0126210Y0189773D01*
X0126177Y0189622D01*
X0126139Y0189472D01*
X0126098Y0189323D01*
X0126053Y0189175D01*
X0126004Y0189029D01*
X0125951Y0188883D01*
X0125895Y0188740D01*
X0125835Y0188597D01*
X0125771Y0188457D01*
X0125704Y0188317D01*
X0125633Y0188180D01*
X0125559Y0188045D01*
X0125481Y0187911D01*
X0125400Y0187780D01*
X0125315Y0187651D01*
X0125227Y0187523D01*
X0125136Y0187399D01*
X0125042Y0187276D01*
X0124944Y0187156D01*
X0124844Y0187039D01*
X0124740Y0186924D01*
X0124634Y0186812D01*
X0124525Y0186703D01*
X0124413Y0186597D01*
X0124298Y0186493D01*
X0124181Y0186393D01*
X0124061Y0186295D01*
X0123938Y0186201D01*
X0123814Y0186110D01*
X0123686Y0186022D01*
X0123557Y0185937D01*
X0123426Y0185856D01*
X0123292Y0185778D01*
X0123157Y0185704D01*
X0123020Y0185633D01*
X0122880Y0185566D01*
X0122740Y0185502D01*
X0122597Y0185442D01*
X0122454Y0185386D01*
X0122308Y0185333D01*
X0122162Y0185284D01*
X0122014Y0185239D01*
X0121865Y0185198D01*
X0121715Y0185160D01*
X0121564Y0185127D01*
X0121413Y0185097D01*
X0121260Y0185071D01*
X0121107Y0185050D01*
X0120954Y0185032D01*
X0120800Y0185018D01*
X0120646Y0185008D01*
X0120491Y0185002D01*
X0120337Y0185000D01*
X0120183Y0185002D01*
X0120028Y0185008D01*
X0119874Y0185018D01*
X0119720Y0185032D01*
X0119567Y0185050D01*
X0119414Y0185071D01*
X0119261Y0185097D01*
X0119110Y0185127D01*
X0118959Y0185160D01*
X0118809Y0185198D01*
X0118660Y0185239D01*
X0118512Y0185284D01*
X0118366Y0185333D01*
X0118220Y0185386D01*
X0118077Y0185442D01*
X0117934Y0185502D01*
X0117794Y0185566D01*
X0117654Y0185633D01*
X0117517Y0185704D01*
X0117382Y0185778D01*
X0117248Y0185856D01*
X0117117Y0185937D01*
X0116988Y0186022D01*
X0116860Y0186110D01*
X0116736Y0186201D01*
X0116613Y0186295D01*
X0116493Y0186393D01*
X0116376Y0186493D01*
X0116261Y0186597D01*
X0116149Y0186703D01*
X0116040Y0186812D01*
X0115934Y0186924D01*
X0115830Y0187039D01*
X0115730Y0187156D01*
X0115632Y0187276D01*
X0115538Y0187399D01*
X0115447Y0187523D01*
X0115359Y0187651D01*
X0115274Y0187780D01*
X0115193Y0187911D01*
X0115115Y0188045D01*
X0115041Y0188180D01*
X0114970Y0188317D01*
X0114903Y0188457D01*
X0114839Y0188597D01*
X0114779Y0188740D01*
X0114723Y0188883D01*
X0114670Y0189029D01*
X0114621Y0189175D01*
X0114576Y0189323D01*
X0114535Y0189472D01*
X0114497Y0189622D01*
X0114464Y0189773D01*
X0114434Y0189924D01*
X0114408Y0190077D01*
X0114387Y0190230D01*
X0114369Y0190383D01*
X0114355Y0190537D01*
X0114345Y0190691D01*
X0114339Y0190846D01*
X0114337Y0191000D01*
X0060337Y0116000D02*
X0060337Y0113500D01*
X0060337Y0078500D02*
X0060337Y0076000D01*
X0034337Y0041000D02*
X0034339Y0041154D01*
X0034345Y0041309D01*
X0034355Y0041463D01*
X0034369Y0041617D01*
X0034387Y0041770D01*
X0034408Y0041923D01*
X0034434Y0042076D01*
X0034464Y0042227D01*
X0034497Y0042378D01*
X0034535Y0042528D01*
X0034576Y0042677D01*
X0034621Y0042825D01*
X0034670Y0042971D01*
X0034723Y0043117D01*
X0034779Y0043260D01*
X0034839Y0043403D01*
X0034903Y0043543D01*
X0034970Y0043683D01*
X0035041Y0043820D01*
X0035115Y0043955D01*
X0035193Y0044089D01*
X0035274Y0044220D01*
X0035359Y0044349D01*
X0035447Y0044477D01*
X0035538Y0044601D01*
X0035632Y0044724D01*
X0035730Y0044844D01*
X0035830Y0044961D01*
X0035934Y0045076D01*
X0036040Y0045188D01*
X0036149Y0045297D01*
X0036261Y0045403D01*
X0036376Y0045507D01*
X0036493Y0045607D01*
X0036613Y0045705D01*
X0036736Y0045799D01*
X0036860Y0045890D01*
X0036988Y0045978D01*
X0037117Y0046063D01*
X0037248Y0046144D01*
X0037382Y0046222D01*
X0037517Y0046296D01*
X0037654Y0046367D01*
X0037794Y0046434D01*
X0037934Y0046498D01*
X0038077Y0046558D01*
X0038220Y0046614D01*
X0038366Y0046667D01*
X0038512Y0046716D01*
X0038660Y0046761D01*
X0038809Y0046802D01*
X0038959Y0046840D01*
X0039110Y0046873D01*
X0039261Y0046903D01*
X0039414Y0046929D01*
X0039567Y0046950D01*
X0039720Y0046968D01*
X0039874Y0046982D01*
X0040028Y0046992D01*
X0040183Y0046998D01*
X0040337Y0047000D01*
X0040491Y0046998D01*
X0040646Y0046992D01*
X0040800Y0046982D01*
X0040954Y0046968D01*
X0041107Y0046950D01*
X0041260Y0046929D01*
X0041413Y0046903D01*
X0041564Y0046873D01*
X0041715Y0046840D01*
X0041865Y0046802D01*
X0042014Y0046761D01*
X0042162Y0046716D01*
X0042308Y0046667D01*
X0042454Y0046614D01*
X0042597Y0046558D01*
X0042740Y0046498D01*
X0042880Y0046434D01*
X0043020Y0046367D01*
X0043157Y0046296D01*
X0043292Y0046222D01*
X0043426Y0046144D01*
X0043557Y0046063D01*
X0043686Y0045978D01*
X0043814Y0045890D01*
X0043938Y0045799D01*
X0044061Y0045705D01*
X0044181Y0045607D01*
X0044298Y0045507D01*
X0044413Y0045403D01*
X0044525Y0045297D01*
X0044634Y0045188D01*
X0044740Y0045076D01*
X0044844Y0044961D01*
X0044944Y0044844D01*
X0045042Y0044724D01*
X0045136Y0044601D01*
X0045227Y0044477D01*
X0045315Y0044349D01*
X0045400Y0044220D01*
X0045481Y0044089D01*
X0045559Y0043955D01*
X0045633Y0043820D01*
X0045704Y0043683D01*
X0045771Y0043543D01*
X0045835Y0043403D01*
X0045895Y0043260D01*
X0045951Y0043117D01*
X0046004Y0042971D01*
X0046053Y0042825D01*
X0046098Y0042677D01*
X0046139Y0042528D01*
X0046177Y0042378D01*
X0046210Y0042227D01*
X0046240Y0042076D01*
X0046266Y0041923D01*
X0046287Y0041770D01*
X0046305Y0041617D01*
X0046319Y0041463D01*
X0046329Y0041309D01*
X0046335Y0041154D01*
X0046337Y0041000D01*
X0046335Y0040846D01*
X0046329Y0040691D01*
X0046319Y0040537D01*
X0046305Y0040383D01*
X0046287Y0040230D01*
X0046266Y0040077D01*
X0046240Y0039924D01*
X0046210Y0039773D01*
X0046177Y0039622D01*
X0046139Y0039472D01*
X0046098Y0039323D01*
X0046053Y0039175D01*
X0046004Y0039029D01*
X0045951Y0038883D01*
X0045895Y0038740D01*
X0045835Y0038597D01*
X0045771Y0038457D01*
X0045704Y0038317D01*
X0045633Y0038180D01*
X0045559Y0038045D01*
X0045481Y0037911D01*
X0045400Y0037780D01*
X0045315Y0037651D01*
X0045227Y0037523D01*
X0045136Y0037399D01*
X0045042Y0037276D01*
X0044944Y0037156D01*
X0044844Y0037039D01*
X0044740Y0036924D01*
X0044634Y0036812D01*
X0044525Y0036703D01*
X0044413Y0036597D01*
X0044298Y0036493D01*
X0044181Y0036393D01*
X0044061Y0036295D01*
X0043938Y0036201D01*
X0043814Y0036110D01*
X0043686Y0036022D01*
X0043557Y0035937D01*
X0043426Y0035856D01*
X0043292Y0035778D01*
X0043157Y0035704D01*
X0043020Y0035633D01*
X0042880Y0035566D01*
X0042740Y0035502D01*
X0042597Y0035442D01*
X0042454Y0035386D01*
X0042308Y0035333D01*
X0042162Y0035284D01*
X0042014Y0035239D01*
X0041865Y0035198D01*
X0041715Y0035160D01*
X0041564Y0035127D01*
X0041413Y0035097D01*
X0041260Y0035071D01*
X0041107Y0035050D01*
X0040954Y0035032D01*
X0040800Y0035018D01*
X0040646Y0035008D01*
X0040491Y0035002D01*
X0040337Y0035000D01*
X0040183Y0035002D01*
X0040028Y0035008D01*
X0039874Y0035018D01*
X0039720Y0035032D01*
X0039567Y0035050D01*
X0039414Y0035071D01*
X0039261Y0035097D01*
X0039110Y0035127D01*
X0038959Y0035160D01*
X0038809Y0035198D01*
X0038660Y0035239D01*
X0038512Y0035284D01*
X0038366Y0035333D01*
X0038220Y0035386D01*
X0038077Y0035442D01*
X0037934Y0035502D01*
X0037794Y0035566D01*
X0037654Y0035633D01*
X0037517Y0035704D01*
X0037382Y0035778D01*
X0037248Y0035856D01*
X0037117Y0035937D01*
X0036988Y0036022D01*
X0036860Y0036110D01*
X0036736Y0036201D01*
X0036613Y0036295D01*
X0036493Y0036393D01*
X0036376Y0036493D01*
X0036261Y0036597D01*
X0036149Y0036703D01*
X0036040Y0036812D01*
X0035934Y0036924D01*
X0035830Y0037039D01*
X0035730Y0037156D01*
X0035632Y0037276D01*
X0035538Y0037399D01*
X0035447Y0037523D01*
X0035359Y0037651D01*
X0035274Y0037780D01*
X0035193Y0037911D01*
X0035115Y0038045D01*
X0035041Y0038180D01*
X0034970Y0038317D01*
X0034903Y0038457D01*
X0034839Y0038597D01*
X0034779Y0038740D01*
X0034723Y0038883D01*
X0034670Y0039029D01*
X0034621Y0039175D01*
X0034576Y0039323D01*
X0034535Y0039472D01*
X0034497Y0039622D01*
X0034464Y0039773D01*
X0034434Y0039924D01*
X0034408Y0040077D01*
X0034387Y0040230D01*
X0034369Y0040383D01*
X0034355Y0040537D01*
X0034345Y0040691D01*
X0034339Y0040846D01*
X0034337Y0041000D01*
D15*
X0059837Y0091000D02*
X0060837Y0091000D01*
X0060924Y0091002D01*
X0061011Y0091008D01*
X0061098Y0091017D01*
X0061184Y0091030D01*
X0061270Y0091047D01*
X0061355Y0091068D01*
X0061438Y0091093D01*
X0061521Y0091121D01*
X0061602Y0091152D01*
X0061682Y0091187D01*
X0061760Y0091226D01*
X0061837Y0091268D01*
X0061912Y0091313D01*
X0061984Y0091362D01*
X0062055Y0091413D01*
X0062123Y0091468D01*
X0062188Y0091525D01*
X0062251Y0091586D01*
X0062312Y0091649D01*
X0062369Y0091714D01*
X0062424Y0091782D01*
X0062475Y0091853D01*
X0062524Y0091925D01*
X0062569Y0092000D01*
X0062611Y0092077D01*
X0062650Y0092155D01*
X0062685Y0092235D01*
X0062716Y0092316D01*
X0062744Y0092399D01*
X0062769Y0092482D01*
X0062790Y0092567D01*
X0062807Y0092653D01*
X0062820Y0092739D01*
X0062829Y0092826D01*
X0062835Y0092913D01*
X0062837Y0093000D01*
X0062837Y0099000D01*
X0062835Y0099087D01*
X0062829Y0099174D01*
X0062820Y0099261D01*
X0062807Y0099347D01*
X0062790Y0099433D01*
X0062769Y0099518D01*
X0062744Y0099601D01*
X0062716Y0099684D01*
X0062685Y0099765D01*
X0062650Y0099845D01*
X0062611Y0099923D01*
X0062569Y0100000D01*
X0062524Y0100075D01*
X0062475Y0100147D01*
X0062424Y0100218D01*
X0062369Y0100286D01*
X0062312Y0100351D01*
X0062251Y0100414D01*
X0062188Y0100475D01*
X0062123Y0100532D01*
X0062055Y0100587D01*
X0061984Y0100638D01*
X0061912Y0100687D01*
X0061837Y0100732D01*
X0061760Y0100774D01*
X0061682Y0100813D01*
X0061602Y0100848D01*
X0061521Y0100879D01*
X0061438Y0100907D01*
X0061355Y0100932D01*
X0061270Y0100953D01*
X0061184Y0100970D01*
X0061098Y0100983D01*
X0061011Y0100992D01*
X0060924Y0100998D01*
X0060837Y0101000D01*
X0059837Y0101000D01*
X0059750Y0100998D01*
X0059663Y0100992D01*
X0059576Y0100983D01*
X0059490Y0100970D01*
X0059404Y0100953D01*
X0059319Y0100932D01*
X0059236Y0100907D01*
X0059153Y0100879D01*
X0059072Y0100848D01*
X0058992Y0100813D01*
X0058914Y0100774D01*
X0058837Y0100732D01*
X0058762Y0100687D01*
X0058690Y0100638D01*
X0058619Y0100587D01*
X0058551Y0100532D01*
X0058486Y0100475D01*
X0058423Y0100414D01*
X0058362Y0100351D01*
X0058305Y0100286D01*
X0058250Y0100218D01*
X0058199Y0100147D01*
X0058150Y0100075D01*
X0058105Y0100000D01*
X0058063Y0099923D01*
X0058024Y0099845D01*
X0057989Y0099765D01*
X0057958Y0099684D01*
X0057930Y0099601D01*
X0057905Y0099518D01*
X0057884Y0099433D01*
X0057867Y0099347D01*
X0057854Y0099261D01*
X0057845Y0099174D01*
X0057839Y0099087D01*
X0057837Y0099000D01*
X0057837Y0093000D01*
X0057839Y0092913D01*
X0057845Y0092826D01*
X0057854Y0092739D01*
X0057867Y0092653D01*
X0057884Y0092567D01*
X0057905Y0092482D01*
X0057930Y0092399D01*
X0057958Y0092316D01*
X0057989Y0092235D01*
X0058024Y0092155D01*
X0058063Y0092077D01*
X0058105Y0092000D01*
X0058150Y0091925D01*
X0058199Y0091853D01*
X0058250Y0091782D01*
X0058305Y0091714D01*
X0058362Y0091649D01*
X0058423Y0091586D01*
X0058486Y0091525D01*
X0058551Y0091468D01*
X0058619Y0091413D01*
X0058690Y0091362D01*
X0058762Y0091313D01*
X0058837Y0091268D01*
X0058914Y0091226D01*
X0058992Y0091187D01*
X0059072Y0091152D01*
X0059153Y0091121D01*
X0059236Y0091093D01*
X0059319Y0091068D01*
X0059404Y0091047D01*
X0059490Y0091030D01*
X0059576Y0091017D01*
X0059663Y0091008D01*
X0059750Y0091002D01*
X0059837Y0091000D01*
X0059477Y0125700D02*
X0061879Y0127502D01*
X0059477Y0129303D01*
X0063161Y0129303D02*
X0063161Y0125700D01*
X0065563Y0125700D02*
X0063161Y0129303D01*
X0065563Y0129303D02*
X0065563Y0125700D01*
X0066844Y0125700D02*
X0066844Y0128102D01*
X0068045Y0129303D01*
X0069246Y0128102D01*
X0069246Y0125700D01*
X0070527Y0125700D02*
X0070527Y0129303D01*
X0071728Y0128102D01*
X0072929Y0129303D01*
X0072929Y0125700D01*
X0074210Y0125700D02*
X0074210Y0129303D01*
X0076612Y0129303D01*
X0075411Y0127502D02*
X0074210Y0127502D01*
X0074210Y0125700D02*
X0076612Y0125700D01*
X0069246Y0127502D02*
X0066844Y0127502D01*
X0066533Y0151180D02*
X0068835Y0154249D01*
X0071137Y0151180D01*
X0071137Y0155784D02*
X0066533Y0155784D01*
X0071137Y0158853D01*
X0066533Y0158853D01*
X0068068Y0160388D02*
X0066533Y0161923D01*
X0068068Y0163457D01*
X0071137Y0163457D01*
X0071137Y0164992D02*
X0066533Y0164992D01*
X0068068Y0166527D01*
X0066533Y0168061D01*
X0071137Y0168061D01*
X0071137Y0169596D02*
X0071137Y0172665D01*
X0068835Y0171130D02*
X0068835Y0169596D01*
X0066533Y0169596D02*
X0066533Y0172665D01*
X0066533Y0169596D02*
X0071137Y0169596D01*
X0068835Y0163457D02*
X0068835Y0160388D01*
X0068068Y0160388D02*
X0071137Y0160388D01*
X0109477Y0126303D02*
X0111879Y0124502D01*
X0109477Y0122700D01*
X0113161Y0122700D02*
X0113161Y0126303D01*
X0115563Y0122700D01*
X0115563Y0126303D01*
X0116844Y0125102D02*
X0118045Y0126303D01*
X0119246Y0125102D01*
X0119246Y0122700D01*
X0120527Y0122700D02*
X0120527Y0126303D01*
X0121728Y0125102D01*
X0122929Y0126303D01*
X0122929Y0122700D01*
X0124210Y0122700D02*
X0126612Y0122700D01*
X0125411Y0124502D02*
X0124210Y0124502D01*
X0124210Y0126303D02*
X0124210Y0122700D01*
X0124210Y0126303D02*
X0126612Y0126303D01*
X0119246Y0124502D02*
X0116844Y0124502D01*
X0116844Y0125102D02*
X0116844Y0122700D01*
X0129477Y0116303D02*
X0131879Y0114502D01*
X0129477Y0112700D01*
X0127834Y0111803D02*
X0130236Y0110002D01*
X0127834Y0108200D01*
X0131517Y0108200D02*
X0131517Y0111803D01*
X0133919Y0108200D01*
X0133919Y0111803D01*
X0133161Y0112700D02*
X0133161Y0116303D01*
X0135563Y0112700D01*
X0135563Y0116303D01*
X0136844Y0115102D02*
X0136844Y0112700D01*
X0136401Y0111803D02*
X0135200Y0110602D01*
X0135200Y0108200D01*
X0135200Y0110002D02*
X0137602Y0110002D01*
X0137602Y0110602D02*
X0137602Y0108200D01*
X0138883Y0108200D02*
X0138883Y0111803D01*
X0140084Y0110602D01*
X0141285Y0111803D01*
X0141285Y0108200D01*
X0142566Y0108200D02*
X0144968Y0108200D01*
X0143767Y0110002D02*
X0142566Y0110002D01*
X0142566Y0111803D02*
X0142566Y0108200D01*
X0142566Y0111803D02*
X0144968Y0111803D01*
X0144210Y0112700D02*
X0146612Y0112700D01*
X0145411Y0114502D02*
X0144210Y0114502D01*
X0144210Y0116303D02*
X0144210Y0112700D01*
X0142929Y0112700D02*
X0142929Y0116303D01*
X0141728Y0115102D01*
X0140527Y0116303D01*
X0140527Y0112700D01*
X0139246Y0112700D02*
X0139246Y0115102D01*
X0138045Y0116303D01*
X0136844Y0115102D01*
X0136844Y0114502D02*
X0139246Y0114502D01*
X0136401Y0111803D02*
X0137602Y0110602D01*
X0144210Y0116303D02*
X0146612Y0116303D01*
X0169477Y0116303D02*
X0171879Y0114502D01*
X0169477Y0112700D01*
X0170034Y0113708D02*
X0171235Y0114909D01*
X0173637Y0114909D01*
X0173637Y0116190D02*
X0170034Y0116190D01*
X0171235Y0117391D01*
X0170034Y0118592D01*
X0173637Y0118592D01*
X0173637Y0119873D02*
X0173637Y0122275D01*
X0171835Y0121074D02*
X0171835Y0119873D01*
X0170034Y0119873D02*
X0170034Y0122275D01*
X0170034Y0119873D02*
X0173637Y0119873D01*
X0173161Y0116303D02*
X0175563Y0112700D01*
X0175563Y0116303D01*
X0176844Y0115102D02*
X0178045Y0116303D01*
X0179246Y0115102D01*
X0179246Y0112700D01*
X0180527Y0112700D02*
X0180527Y0116303D01*
X0181728Y0115102D01*
X0182929Y0116303D01*
X0182929Y0112700D01*
X0184210Y0112700D02*
X0186612Y0112700D01*
X0185411Y0114502D02*
X0184210Y0114502D01*
X0184210Y0116303D02*
X0184210Y0112700D01*
X0184210Y0116303D02*
X0186612Y0116303D01*
X0190334Y0118200D02*
X0192736Y0120002D01*
X0190334Y0121803D01*
X0194017Y0121803D02*
X0196419Y0118200D01*
X0196419Y0121803D01*
X0197700Y0120602D02*
X0198901Y0121803D01*
X0200102Y0120602D01*
X0200102Y0118200D01*
X0201383Y0118200D02*
X0201383Y0121803D01*
X0202584Y0120602D01*
X0203785Y0121803D01*
X0203785Y0118200D01*
X0205066Y0118200D02*
X0207468Y0118200D01*
X0206267Y0120002D02*
X0205066Y0120002D01*
X0205066Y0121803D02*
X0205066Y0118200D01*
X0205066Y0121803D02*
X0207468Y0121803D01*
X0200102Y0120002D02*
X0197700Y0120002D01*
X0197700Y0120602D02*
X0197700Y0118200D01*
X0194017Y0118200D02*
X0194017Y0121803D01*
X0194210Y0125700D02*
X0196612Y0125700D01*
X0195411Y0127502D02*
X0194210Y0127502D01*
X0194210Y0129303D02*
X0194210Y0125700D01*
X0192929Y0125700D02*
X0192929Y0129303D01*
X0191728Y0128102D01*
X0190527Y0129303D01*
X0190527Y0125700D01*
X0189246Y0125700D02*
X0189246Y0128102D01*
X0188045Y0129303D01*
X0186844Y0128102D01*
X0186844Y0125700D01*
X0185563Y0125700D02*
X0185563Y0129303D01*
X0186844Y0127502D02*
X0189246Y0127502D01*
X0185563Y0125700D02*
X0183161Y0129303D01*
X0183161Y0125700D01*
X0181879Y0127502D02*
X0179477Y0125700D01*
X0181879Y0127502D02*
X0179477Y0129303D01*
X0187034Y0135140D02*
X0188835Y0137542D01*
X0190637Y0135140D01*
X0190637Y0138824D02*
X0187034Y0138824D01*
X0190637Y0141226D01*
X0187034Y0141226D01*
X0188235Y0142507D02*
X0187034Y0143708D01*
X0188235Y0144909D01*
X0190637Y0144909D01*
X0190637Y0146190D02*
X0187034Y0146190D01*
X0188235Y0147391D01*
X0187034Y0148592D01*
X0190637Y0148592D01*
X0190637Y0149873D02*
X0190637Y0152275D01*
X0188835Y0151074D02*
X0188835Y0149873D01*
X0187034Y0149873D02*
X0187034Y0152275D01*
X0187034Y0149873D02*
X0190637Y0149873D01*
X0188835Y0144909D02*
X0188835Y0142507D01*
X0188235Y0142507D02*
X0190637Y0142507D01*
X0194210Y0129303D02*
X0196612Y0129303D01*
X0179246Y0114502D02*
X0176844Y0114502D01*
X0176844Y0115102D02*
X0176844Y0112700D01*
X0173637Y0112507D02*
X0171235Y0112507D01*
X0170034Y0113708D01*
X0171835Y0112507D02*
X0171835Y0114909D01*
X0173161Y0116303D02*
X0173161Y0112700D01*
X0173637Y0111226D02*
X0170034Y0111226D01*
X0170034Y0108824D02*
X0173637Y0111226D01*
X0173637Y0108824D02*
X0170034Y0108824D01*
X0171835Y0107542D02*
X0173637Y0105140D01*
X0171835Y0107542D02*
X0170034Y0105140D01*
X0187837Y0094000D02*
X0187837Y0088000D01*
X0187839Y0087913D01*
X0187845Y0087826D01*
X0187854Y0087739D01*
X0187867Y0087653D01*
X0187884Y0087567D01*
X0187905Y0087482D01*
X0187930Y0087399D01*
X0187958Y0087316D01*
X0187989Y0087235D01*
X0188024Y0087155D01*
X0188063Y0087077D01*
X0188105Y0087000D01*
X0188150Y0086925D01*
X0188199Y0086853D01*
X0188250Y0086782D01*
X0188305Y0086714D01*
X0188362Y0086649D01*
X0188423Y0086586D01*
X0188486Y0086525D01*
X0188551Y0086468D01*
X0188619Y0086413D01*
X0188690Y0086362D01*
X0188762Y0086313D01*
X0188837Y0086268D01*
X0188914Y0086226D01*
X0188992Y0086187D01*
X0189072Y0086152D01*
X0189153Y0086121D01*
X0189236Y0086093D01*
X0189319Y0086068D01*
X0189404Y0086047D01*
X0189490Y0086030D01*
X0189576Y0086017D01*
X0189663Y0086008D01*
X0189750Y0086002D01*
X0189837Y0086000D01*
X0190837Y0086000D01*
X0190924Y0086002D01*
X0191011Y0086008D01*
X0191098Y0086017D01*
X0191184Y0086030D01*
X0191270Y0086047D01*
X0191355Y0086068D01*
X0191438Y0086093D01*
X0191521Y0086121D01*
X0191602Y0086152D01*
X0191682Y0086187D01*
X0191760Y0086226D01*
X0191837Y0086268D01*
X0191912Y0086313D01*
X0191984Y0086362D01*
X0192055Y0086413D01*
X0192123Y0086468D01*
X0192188Y0086525D01*
X0192251Y0086586D01*
X0192312Y0086649D01*
X0192369Y0086714D01*
X0192424Y0086782D01*
X0192475Y0086853D01*
X0192524Y0086925D01*
X0192569Y0087000D01*
X0192611Y0087077D01*
X0192650Y0087155D01*
X0192685Y0087235D01*
X0192716Y0087316D01*
X0192744Y0087399D01*
X0192769Y0087482D01*
X0192790Y0087567D01*
X0192807Y0087653D01*
X0192820Y0087739D01*
X0192829Y0087826D01*
X0192835Y0087913D01*
X0192837Y0088000D01*
X0192837Y0094000D01*
X0192835Y0094087D01*
X0192829Y0094174D01*
X0192820Y0094261D01*
X0192807Y0094347D01*
X0192790Y0094433D01*
X0192769Y0094518D01*
X0192744Y0094601D01*
X0192716Y0094684D01*
X0192685Y0094765D01*
X0192650Y0094845D01*
X0192611Y0094923D01*
X0192569Y0095000D01*
X0192524Y0095075D01*
X0192475Y0095147D01*
X0192424Y0095218D01*
X0192369Y0095286D01*
X0192312Y0095351D01*
X0192251Y0095414D01*
X0192188Y0095475D01*
X0192123Y0095532D01*
X0192055Y0095587D01*
X0191984Y0095638D01*
X0191912Y0095687D01*
X0191837Y0095732D01*
X0191760Y0095774D01*
X0191682Y0095813D01*
X0191602Y0095848D01*
X0191521Y0095879D01*
X0191438Y0095907D01*
X0191355Y0095932D01*
X0191270Y0095953D01*
X0191184Y0095970D01*
X0191098Y0095983D01*
X0191011Y0095992D01*
X0190924Y0095998D01*
X0190837Y0096000D01*
X0189837Y0096000D01*
X0189750Y0095998D01*
X0189663Y0095992D01*
X0189576Y0095983D01*
X0189490Y0095970D01*
X0189404Y0095953D01*
X0189319Y0095932D01*
X0189236Y0095907D01*
X0189153Y0095879D01*
X0189072Y0095848D01*
X0188992Y0095813D01*
X0188914Y0095774D01*
X0188837Y0095732D01*
X0188762Y0095687D01*
X0188690Y0095638D01*
X0188619Y0095587D01*
X0188551Y0095532D01*
X0188486Y0095475D01*
X0188423Y0095414D01*
X0188362Y0095351D01*
X0188305Y0095286D01*
X0188250Y0095218D01*
X0188199Y0095147D01*
X0188150Y0095075D01*
X0188105Y0095000D01*
X0188063Y0094923D01*
X0188024Y0094845D01*
X0187989Y0094765D01*
X0187958Y0094684D01*
X0187930Y0094601D01*
X0187905Y0094518D01*
X0187884Y0094433D01*
X0187867Y0094347D01*
X0187854Y0094261D01*
X0187845Y0094174D01*
X0187839Y0094087D01*
X0187837Y0094000D01*
X0257834Y0104700D02*
X0260236Y0106502D01*
X0257834Y0108303D01*
X0261517Y0108303D02*
X0263919Y0104700D01*
X0263919Y0108303D01*
X0265200Y0107102D02*
X0266401Y0108303D01*
X0267602Y0107102D01*
X0267602Y0104700D01*
X0268883Y0104700D02*
X0268883Y0108303D01*
X0270084Y0107102D01*
X0271285Y0108303D01*
X0271285Y0104700D01*
X0272566Y0104700D02*
X0274968Y0104700D01*
X0273767Y0106502D02*
X0272566Y0106502D01*
X0272566Y0108303D02*
X0272566Y0104700D01*
X0267602Y0106502D02*
X0265200Y0106502D01*
X0265200Y0107102D02*
X0265200Y0104700D01*
X0261517Y0104700D02*
X0261517Y0108303D01*
X0272566Y0108303D02*
X0274968Y0108303D01*
X0216612Y0165700D02*
X0214210Y0165700D01*
X0214210Y0169303D01*
X0216612Y0169303D01*
X0215411Y0167502D02*
X0214210Y0167502D01*
X0212929Y0169303D02*
X0212929Y0165700D01*
X0210527Y0165700D02*
X0210527Y0169303D01*
X0211728Y0168102D01*
X0212929Y0169303D01*
X0209246Y0168102D02*
X0209246Y0165700D01*
X0209246Y0167502D02*
X0206844Y0167502D01*
X0206844Y0168102D02*
X0208045Y0169303D01*
X0209246Y0168102D01*
X0206844Y0168102D02*
X0206844Y0165700D01*
X0205563Y0165700D02*
X0205563Y0169303D01*
X0203161Y0169303D02*
X0203161Y0165700D01*
X0201879Y0167502D02*
X0199477Y0165700D01*
X0201879Y0167502D02*
X0199477Y0169303D01*
X0203161Y0169303D02*
X0205563Y0165700D01*
X0205563Y0185700D02*
X0205563Y0189303D01*
X0206844Y0188102D02*
X0208045Y0189303D01*
X0209246Y0188102D01*
X0209246Y0185700D01*
X0210527Y0185700D02*
X0210527Y0189303D01*
X0211728Y0188102D01*
X0212929Y0189303D01*
X0212929Y0185700D01*
X0214210Y0185700D02*
X0216612Y0185700D01*
X0215411Y0187502D02*
X0214210Y0187502D01*
X0214210Y0189303D02*
X0214210Y0185700D01*
X0214210Y0189303D02*
X0216612Y0189303D01*
X0209246Y0187502D02*
X0206844Y0187502D01*
X0206844Y0188102D02*
X0206844Y0185700D01*
X0205563Y0185700D02*
X0203161Y0189303D01*
X0203161Y0185700D01*
X0201879Y0187502D02*
X0199477Y0185700D01*
X0201879Y0187502D02*
X0199477Y0189303D01*
X0126612Y0086303D02*
X0124210Y0086303D01*
X0124210Y0082700D01*
X0126612Y0082700D01*
X0125411Y0084502D02*
X0124210Y0084502D01*
X0122929Y0086303D02*
X0122929Y0082700D01*
X0120527Y0082700D02*
X0120527Y0086303D01*
X0121728Y0085102D01*
X0122929Y0086303D01*
X0119246Y0085102D02*
X0119246Y0082700D01*
X0119246Y0084502D02*
X0116844Y0084502D01*
X0116844Y0085102D02*
X0118045Y0086303D01*
X0119246Y0085102D01*
X0116844Y0085102D02*
X0116844Y0082700D01*
X0115563Y0082700D02*
X0115563Y0086303D01*
X0113161Y0086303D02*
X0115563Y0082700D01*
X0113161Y0082700D02*
X0113161Y0086303D01*
X0111879Y0084502D02*
X0109477Y0082700D01*
X0111879Y0084502D02*
X0109477Y0086303D01*
X0109477Y0076303D02*
X0111879Y0074502D01*
X0109477Y0072700D01*
X0113161Y0072700D02*
X0113161Y0076303D01*
X0115563Y0072700D01*
X0115563Y0076303D01*
X0116844Y0075102D02*
X0116844Y0072700D01*
X0116844Y0074502D02*
X0119246Y0074502D01*
X0119246Y0075102D02*
X0119246Y0072700D01*
X0120527Y0072700D02*
X0120527Y0076303D01*
X0121728Y0075102D01*
X0122929Y0076303D01*
X0122929Y0072700D01*
X0124210Y0072700D02*
X0124210Y0076303D01*
X0126612Y0076303D01*
X0125411Y0074502D02*
X0124210Y0074502D01*
X0124210Y0072700D02*
X0126612Y0072700D01*
X0119246Y0075102D02*
X0118045Y0076303D01*
X0116844Y0075102D01*
X0116612Y0046303D02*
X0114210Y0046303D01*
X0114210Y0042700D01*
X0116612Y0042700D01*
X0115411Y0044502D02*
X0114210Y0044502D01*
X0112929Y0046303D02*
X0112929Y0042700D01*
X0110527Y0042700D02*
X0110527Y0046303D01*
X0111728Y0045102D01*
X0112929Y0046303D01*
X0109246Y0045102D02*
X0109246Y0042700D01*
X0109246Y0044502D02*
X0106844Y0044502D01*
X0106844Y0045102D02*
X0108045Y0046303D01*
X0109246Y0045102D01*
X0106844Y0045102D02*
X0106844Y0042700D01*
X0105563Y0042700D02*
X0105563Y0046303D01*
X0103161Y0046303D02*
X0105563Y0042700D01*
X0103161Y0042700D02*
X0103161Y0046303D01*
X0101879Y0044502D02*
X0099477Y0042700D01*
X0101879Y0044502D02*
X0099477Y0046303D01*
X0021137Y0120576D02*
X0018835Y0123645D01*
X0016533Y0120576D01*
X0016533Y0125180D02*
X0019602Y0125180D01*
X0021137Y0126715D01*
X0019602Y0128249D01*
X0016533Y0128249D01*
X0018068Y0129784D02*
X0016533Y0131319D01*
X0018068Y0132853D01*
X0021137Y0132853D01*
X0021137Y0134388D02*
X0021137Y0137457D01*
X0020370Y0138992D02*
X0021137Y0139759D01*
X0021137Y0141294D01*
X0020370Y0142061D01*
X0016533Y0142061D01*
X0016533Y0143596D02*
X0021137Y0143596D01*
X0021137Y0146665D01*
X0018835Y0145130D02*
X0018835Y0143596D01*
X0016533Y0143596D02*
X0016533Y0146665D01*
X0016533Y0138992D02*
X0020370Y0138992D01*
X0021137Y0134388D02*
X0016533Y0134388D01*
X0018835Y0132853D02*
X0018835Y0129784D01*
X0018068Y0129784D02*
X0021137Y0129784D01*
D16*
X0060337Y0107300D03*
X0060337Y0084700D03*
D17*
X0060337Y0093250D03*
X0190337Y0088250D03*
D18*
X0161087Y0116000D03*
X0149587Y0116000D03*
X0151087Y0126000D03*
X0139587Y0126000D03*
X0111087Y0126000D03*
X0099587Y0126000D03*
X0091087Y0136000D03*
X0079587Y0136000D03*
X0041087Y0116000D03*
X0029587Y0116000D03*
X0079587Y0096000D03*
X0079587Y0086000D03*
X0091087Y0086000D03*
X0091087Y0096000D03*
X0081087Y0056000D03*
X0069587Y0056000D03*
X0169587Y0156000D03*
X0181087Y0156000D03*
X0181087Y0176000D03*
X0169587Y0176000D03*
D19*
X0056258Y0173874D02*
X0056258Y0138126D01*
X0030770Y0138126D01*
X0030770Y0173874D01*
X0056258Y0173874D01*
X0033644Y0173874D02*
X0033644Y0138126D01*
X0030376Y0150114D02*
X0016361Y0150114D01*
X0015180Y0152083D01*
X0015180Y0159917D01*
X0016361Y0161886D01*
X0030376Y0161886D01*
X0027522Y0161492D02*
X0029589Y0150508D01*
X0027620Y0150508D02*
X0025554Y0161492D01*
X0023585Y0161492D02*
X0025652Y0150508D01*
X0023683Y0150508D02*
X0021617Y0161492D01*
X0019648Y0161492D02*
X0021715Y0150508D01*
X0019746Y0150508D02*
X0017680Y0161492D01*
X0015869Y0160606D02*
X0017935Y0150508D01*
X0015180Y0152083D02*
X0001400Y0152083D01*
X0001400Y0159917D01*
X0015180Y0159917D01*
X0022896Y0169543D02*
X0030376Y0169543D01*
X0030770Y0173874D02*
X0022896Y0173874D01*
X0022896Y0169543D01*
X0017361Y0081886D02*
X0016180Y0079917D01*
X0016180Y0072083D01*
X0017361Y0070114D01*
X0031376Y0070114D01*
X0030589Y0070508D02*
X0028522Y0081492D01*
X0026554Y0081492D02*
X0028620Y0070508D01*
X0026652Y0070508D02*
X0024585Y0081492D01*
X0022617Y0081492D02*
X0024683Y0070508D01*
X0022715Y0070508D02*
X0020648Y0081492D01*
X0018680Y0081492D02*
X0020746Y0070508D01*
X0018935Y0070508D02*
X0016869Y0080606D01*
X0016180Y0079917D02*
X0002400Y0079917D01*
X0002400Y0072083D01*
X0016180Y0072083D01*
X0017361Y0081886D02*
X0031376Y0081886D01*
D20*
X0040337Y0042150D03*
X0200337Y0149850D03*
X0140337Y0192150D03*
X0120337Y0192150D03*
D21*
X0200337Y0116750D03*
X0200337Y0105250D03*
X0160337Y0086750D03*
X0160337Y0075250D03*
D22*
X0190337Y0082200D03*
X0190337Y0099800D03*
D23*
X0210337Y0077000D03*
X0210337Y0075000D03*
M02*
