G75*
%MOIN*%
%OFA0B0*%
%FSLAX25Y25*%
%IPPOS*%
%LPD*%
%AMOC8*
5,1,8,0,0,1.08239X$1,22.5*
%
%ADD10C,0.07000*%
%ADD11C,0.05000*%
%ADD12R,0.03962X0.03962*%
D10*
X0040337Y0021000D03*
X0040337Y0031000D03*
X0040337Y0041000D03*
X0040337Y0061000D03*
X0040337Y0071000D03*
X0040337Y0081000D03*
X0040337Y0101000D03*
X0040337Y0121000D03*
X0040337Y0131000D03*
X0040337Y0141000D03*
X0040337Y0161000D03*
X0040337Y0181000D03*
X0040337Y0191000D03*
X0040337Y0201000D03*
X0040337Y0221000D03*
X0040337Y0241000D03*
X0040337Y0251000D03*
X0040337Y0261000D03*
X0040337Y0281000D03*
X0040337Y0301000D03*
X0040337Y0311000D03*
X0040337Y0321000D03*
X0100337Y0291000D03*
X0100337Y0281000D03*
X0100337Y0271000D03*
X0110337Y0261000D03*
X0120337Y0261000D03*
X0130337Y0261000D03*
X0140337Y0271000D03*
X0140337Y0281000D03*
X0140337Y0291000D03*
X0160337Y0291000D03*
X0160337Y0281000D03*
X0160337Y0271000D03*
X0160337Y0261000D03*
X0160337Y0251000D03*
X0160337Y0241000D03*
X0170337Y0211000D03*
X0190337Y0211000D03*
X0200337Y0201000D03*
X0210337Y0201000D03*
X0220337Y0191000D03*
X0230337Y0201000D03*
X0230337Y0171000D03*
X0210337Y0171000D03*
X0200337Y0171000D03*
X0190337Y0171000D03*
X0190337Y0181000D03*
X0190337Y0161000D03*
X0190337Y0151000D03*
X0190337Y0141000D03*
X0190337Y0131000D03*
X0190337Y0121000D03*
X0190337Y0101000D03*
X0210337Y0101000D03*
X0220337Y0091000D03*
X0210337Y0081000D03*
X0210337Y0061000D03*
X0200337Y0051000D03*
X0210337Y0041000D03*
X0230337Y0071000D03*
X0240337Y0081000D03*
X0240337Y0051000D03*
X0180337Y0051000D03*
X0160337Y0051000D03*
X0180337Y0021000D03*
X0130337Y0061000D03*
X0120337Y0071000D03*
X0130337Y0081000D03*
X0130337Y0096000D03*
X0150337Y0101000D03*
X0160337Y0091000D03*
X0160337Y0121000D03*
X0160337Y0131000D03*
X0160337Y0141000D03*
X0160337Y0151000D03*
X0160337Y0161000D03*
X0160337Y0171000D03*
X0160337Y0181000D03*
X0130337Y0221000D03*
X0120337Y0221000D03*
X0110337Y0221000D03*
X0100337Y0151000D03*
X0090337Y0141000D03*
X0100337Y0131000D03*
X0100337Y0111000D03*
X0090337Y0111000D03*
X0090337Y0071000D03*
X0100337Y0071000D03*
X0100337Y0061000D03*
X0110337Y0031000D03*
X0070337Y0031000D03*
X0060337Y0061000D03*
X0130337Y0136000D03*
X0210337Y0141000D03*
X0230337Y0141000D03*
X0215337Y0231000D03*
X0215337Y0251000D03*
X0190337Y0251000D03*
X0190337Y0241000D03*
X0190337Y0261000D03*
X0190337Y0271000D03*
X0190337Y0281000D03*
X0190337Y0291000D03*
X0190337Y0301000D03*
X0170337Y0321000D03*
X0160337Y0301000D03*
X0210337Y0321000D03*
X0220337Y0321000D03*
X0220337Y0301000D03*
X0230337Y0281000D03*
X0250337Y0281000D03*
X0260337Y0301000D03*
X0260337Y0321000D03*
D11*
X0040337Y0021000D02*
X0040337Y0011000D01*
X0060337Y0011000D01*
X0270337Y0011000D01*
X0270337Y0121000D01*
X0260337Y0121000D01*
X0260337Y0271000D01*
X0190337Y0271000D01*
X0190337Y0261000D02*
X0180337Y0261000D01*
X0180337Y0281000D01*
X0230337Y0281000D01*
X0230337Y0331000D01*
X0070337Y0331000D01*
X0040337Y0331000D01*
X0040337Y0321000D01*
X0040337Y0311000D02*
X0060337Y0311000D01*
X0070337Y0301000D02*
X0040337Y0301000D01*
X0040337Y0281000D02*
X0060337Y0281000D01*
X0070337Y0271000D02*
X0040337Y0271000D01*
X0040337Y0261000D01*
X0040337Y0251000D02*
X0060337Y0251000D01*
X0070337Y0261000D02*
X0070337Y0271000D01*
X0090337Y0291000D02*
X0100337Y0291000D01*
X0090337Y0291000D02*
X0090337Y0301000D01*
X0160337Y0301000D01*
X0160337Y0291000D02*
X0140337Y0291000D01*
X0120337Y0291000D01*
X0120337Y0281000D01*
X0100337Y0281000D01*
X0100337Y0271000D02*
X0110337Y0271000D01*
X0110337Y0261000D01*
X0110337Y0251000D01*
X0130337Y0251000D01*
X0130337Y0261000D01*
X0130337Y0251000D02*
X0160337Y0251000D01*
X0160337Y0241000D02*
X0130337Y0241000D01*
X0130337Y0221000D01*
X0130337Y0181000D01*
X0040337Y0181000D01*
X0040337Y0191000D02*
X0070337Y0191000D01*
X0070337Y0201000D02*
X0070337Y0221000D01*
X0070337Y0221000D01*
X0075337Y0221000D02*
X0110337Y0221000D01*
X0120337Y0221000D01*
X0120337Y0201000D01*
X0140337Y0221000D02*
X0140337Y0161000D01*
X0160337Y0161000D01*
X0160337Y0171000D02*
X0150337Y0171000D01*
X0150337Y0226000D01*
X0170337Y0211000D02*
X0170337Y0271000D01*
X0160337Y0271000D01*
X0140337Y0271000D01*
X0140337Y0281000D01*
X0150337Y0281000D02*
X0160337Y0281000D01*
X0160337Y0261000D02*
X0140337Y0261000D01*
X0120337Y0261000D02*
X0120337Y0281000D01*
X0090337Y0291000D02*
X0090337Y0241000D01*
X0040337Y0241000D01*
X0040337Y0221000D02*
X0060337Y0221000D01*
X0070337Y0201000D02*
X0040337Y0201000D01*
X0040337Y0201000D01*
X0040337Y0161000D02*
X0070337Y0161000D01*
X0070337Y0141000D02*
X0065337Y0141000D01*
X0070337Y0141000D02*
X0040337Y0141000D01*
X0040337Y0141000D01*
X0040337Y0131000D02*
X0050337Y0131000D01*
X0090337Y0131000D01*
X0090337Y0111000D01*
X0100337Y0111000D02*
X0100337Y0131000D01*
X0090337Y0141000D02*
X0100337Y0151000D01*
X0130337Y0151000D01*
X0160337Y0151000D01*
X0160337Y0141000D02*
X0150337Y0141000D01*
X0150337Y0101000D01*
X0150337Y0091000D01*
X0160337Y0091000D01*
X0170337Y0071000D02*
X0210337Y0071000D01*
X0210337Y0081000D01*
X0210337Y0071000D02*
X0230337Y0071000D01*
X0240337Y0081000D02*
X0240337Y0061000D01*
X0210337Y0061000D01*
X0200337Y0051000D02*
X0180337Y0051000D01*
X0170337Y0071000D02*
X0170337Y0131000D01*
X0160337Y0131000D01*
X0170337Y0131000D02*
X0170337Y0191000D01*
X0170337Y0201000D01*
X0170337Y0191000D02*
X0200337Y0191000D01*
X0200337Y0171000D01*
X0210337Y0171000D01*
X0220337Y0161000D02*
X0190337Y0161000D01*
X0190337Y0151000D02*
X0230337Y0151000D01*
X0230337Y0171000D01*
X0230337Y0201000D01*
X0230337Y0211000D01*
X0170337Y0211000D01*
X0190337Y0231000D02*
X0215337Y0231000D01*
X0240337Y0231000D01*
X0240337Y0221000D01*
X0240337Y0121000D01*
X0240337Y0101000D02*
X0230337Y0101000D01*
X0210337Y0101000D01*
X0220337Y0091000D02*
X0190337Y0091000D01*
X0190337Y0101000D01*
X0190337Y0121000D02*
X0210337Y0121000D01*
X0210337Y0131000D02*
X0190337Y0131000D01*
X0190337Y0141000D02*
X0210337Y0141000D01*
X0220337Y0161000D02*
X0220337Y0191000D01*
X0210337Y0201000D02*
X0200337Y0201000D01*
X0190337Y0231000D02*
X0190337Y0241000D01*
X0190337Y0251000D02*
X0215337Y0251000D01*
X0240337Y0251000D01*
X0250337Y0251000D01*
X0250337Y0021000D01*
X0180337Y0021000D01*
X0100337Y0021000D01*
X0100337Y0036000D01*
X0110337Y0031000D01*
X0100337Y0036000D02*
X0100337Y0071000D01*
X0100337Y0061000D01*
X0100337Y0071000D02*
X0090337Y0071000D01*
X0110337Y0071000D02*
X0110337Y0096000D01*
X0070337Y0096000D01*
X0070337Y0081000D01*
X0070337Y0041000D01*
X0040337Y0041000D01*
X0040337Y0031000D02*
X0070337Y0031000D01*
X0060337Y0051000D02*
X0040337Y0051000D01*
X0040337Y0061000D01*
X0040337Y0071000D02*
X0060337Y0071000D01*
X0060337Y0061000D01*
X0050337Y0081000D02*
X0070337Y0081000D01*
X0040337Y0081000D01*
X0050337Y0081000D01*
X0040337Y0101000D02*
X0040337Y0121000D01*
X0110337Y0071000D02*
X0120337Y0071000D01*
X0170337Y0071000D01*
X0160337Y0051000D02*
X0130337Y0051000D01*
X0130337Y0061000D01*
X0130337Y0081000D02*
X0130337Y0096000D01*
X0130337Y0136000D02*
X0130337Y0151000D01*
X0210337Y0041000D02*
X0240337Y0041000D01*
X0240337Y0051000D01*
X0240337Y0081000D02*
X0240337Y0101000D01*
X0230337Y0101000D02*
X0230337Y0141000D01*
X0230337Y0151000D01*
X0270337Y0131000D02*
X0270337Y0321000D01*
X0260337Y0321000D01*
X0260337Y0301000D02*
X0260337Y0281000D01*
X0250337Y0281000D01*
X0260337Y0281000D02*
X0260337Y0271000D01*
X0230337Y0281000D02*
X0190337Y0281000D01*
X0190337Y0291000D02*
X0220337Y0291000D01*
X0220337Y0301000D01*
X0220337Y0321000D01*
X0210337Y0321000D01*
X0190337Y0321000D02*
X0190337Y0301000D01*
X0190337Y0321000D02*
X0170337Y0321000D01*
X0070337Y0321000D01*
X0070337Y0301000D01*
D12*
X0060337Y0311000D03*
X0070337Y0331000D03*
X0060337Y0281000D03*
X0070337Y0271000D03*
X0070337Y0261000D03*
X0060337Y0251000D03*
X0040337Y0271000D03*
X0060337Y0221000D03*
X0070337Y0221000D03*
X0060337Y0201000D03*
X0070337Y0191000D03*
X0070337Y0161000D03*
X0070337Y0141000D03*
X0050337Y0131000D03*
X0050337Y0131000D03*
X0070337Y0081000D03*
X0060337Y0051000D03*
X0060337Y0011000D03*
X0210337Y0121000D03*
X0210337Y0131000D03*
X0240337Y0121000D03*
X0270337Y0131000D03*
X0230337Y0071000D03*
X0230337Y0071000D03*
X0240337Y0041000D03*
X0270337Y0041000D03*
X0170337Y0201000D03*
X0150337Y0226000D03*
X0140337Y0221000D03*
X0120337Y0221000D03*
X0120337Y0201000D03*
X0140337Y0261000D03*
X0150337Y0281000D03*
M02*
