G75*
%MOIN*%
%OFA0B0*%
%FSLAX25Y25*%
%IPPOS*%
%LPD*%
%AMOC8*
5,1,8,0,0,1.08239X$1,22.5*
%
%ADD10C,0.07800*%
%ADD11R,0.04762X0.04762*%
D10*
X0040337Y0021000D03*
X0040337Y0031000D03*
X0040337Y0041000D03*
X0040337Y0061000D03*
X0040337Y0071000D03*
X0040337Y0081000D03*
X0040337Y0101000D03*
X0040337Y0121000D03*
X0040337Y0131000D03*
X0040337Y0141000D03*
X0040337Y0161000D03*
X0040337Y0181000D03*
X0040337Y0191000D03*
X0040337Y0201000D03*
X0040337Y0221000D03*
X0040337Y0241000D03*
X0040337Y0251000D03*
X0040337Y0261000D03*
X0040337Y0281000D03*
X0040337Y0301000D03*
X0040337Y0311000D03*
X0040337Y0321000D03*
X0100337Y0291000D03*
X0100337Y0281000D03*
X0100337Y0271000D03*
X0110337Y0261000D03*
X0120337Y0261000D03*
X0130337Y0261000D03*
X0140337Y0271000D03*
X0140337Y0281000D03*
X0140337Y0291000D03*
X0160337Y0291000D03*
X0160337Y0281000D03*
X0160337Y0271000D03*
X0160337Y0261000D03*
X0160337Y0251000D03*
X0160337Y0241000D03*
X0170337Y0211000D03*
X0190337Y0211000D03*
X0200337Y0201000D03*
X0210337Y0201000D03*
X0220337Y0191000D03*
X0230337Y0201000D03*
X0230337Y0171000D03*
X0210337Y0171000D03*
X0200337Y0171000D03*
X0190337Y0171000D03*
X0190337Y0181000D03*
X0190337Y0161000D03*
X0190337Y0151000D03*
X0190337Y0141000D03*
X0190337Y0131000D03*
X0190337Y0121000D03*
X0190337Y0101000D03*
X0210337Y0101000D03*
X0220337Y0091000D03*
X0210337Y0081000D03*
X0210337Y0061000D03*
X0200337Y0051000D03*
X0210337Y0041000D03*
X0230337Y0071000D03*
X0240337Y0081000D03*
X0240337Y0051000D03*
X0180337Y0051000D03*
X0160337Y0051000D03*
X0180337Y0021000D03*
X0130337Y0061000D03*
X0120337Y0071000D03*
X0130337Y0081000D03*
X0130337Y0096000D03*
X0150337Y0101000D03*
X0160337Y0091000D03*
X0160337Y0121000D03*
X0160337Y0131000D03*
X0160337Y0141000D03*
X0160337Y0151000D03*
X0160337Y0161000D03*
X0160337Y0171000D03*
X0160337Y0181000D03*
X0130337Y0221000D03*
X0120337Y0221000D03*
X0110337Y0221000D03*
X0100337Y0151000D03*
X0090337Y0141000D03*
X0100337Y0131000D03*
X0100337Y0111000D03*
X0090337Y0111000D03*
X0090337Y0071000D03*
X0100337Y0071000D03*
X0100337Y0061000D03*
X0110337Y0031000D03*
X0070337Y0031000D03*
X0060337Y0061000D03*
X0130337Y0136000D03*
X0210337Y0141000D03*
X0230337Y0141000D03*
X0215337Y0231000D03*
X0215337Y0251000D03*
X0190337Y0251000D03*
X0190337Y0241000D03*
X0190337Y0261000D03*
X0190337Y0271000D03*
X0190337Y0281000D03*
X0190337Y0291000D03*
X0190337Y0301000D03*
X0170337Y0321000D03*
X0160337Y0301000D03*
X0210337Y0321000D03*
X0220337Y0321000D03*
X0220337Y0301000D03*
X0230337Y0281000D03*
X0250337Y0281000D03*
X0260337Y0301000D03*
X0260337Y0321000D03*
D11*
X0170337Y0201000D03*
X0150337Y0226000D03*
X0140337Y0221000D03*
X0120337Y0221000D03*
X0120337Y0201000D03*
X0070337Y0191000D03*
X0060337Y0201000D03*
X0060337Y0221000D03*
X0070337Y0221000D03*
X0060337Y0251000D03*
X0070337Y0261000D03*
X0070337Y0271000D03*
X0060337Y0281000D03*
X0040337Y0271000D03*
X0060337Y0311000D03*
X0070337Y0331000D03*
X0140337Y0261000D03*
X0150337Y0281000D03*
X0070337Y0161000D03*
X0070337Y0141000D03*
X0050337Y0131000D03*
X0050337Y0131000D03*
X0070337Y0081000D03*
X0060337Y0051000D03*
X0060337Y0011000D03*
X0210337Y0121000D03*
X0210337Y0131000D03*
X0240337Y0121000D03*
X0270337Y0131000D03*
X0230337Y0071000D03*
X0230337Y0071000D03*
X0240337Y0041000D03*
X0270337Y0041000D03*
M02*
