999
dxfrw 0.6.3
  0
SECTION
  2
HEADER
  9
$ACADVER
  1
AC1021
  9
$DWGCODEPAGE
  3
ANSI_1252
  9
$INSBASE
 10
0
 20
0
 30
0
  9
$EXTMIN
 10
262.368296
 20
403.35766
 30
0
  9
$EXTMAX
 10
352.895328
 20
437.526148
 30
0
  9
$LIMMIN
 10
0
 20
0
  9
$LIMMAX
 10
420
 20
297
  9
$ORTHOMODE
 70
    0
  9
$REGENMODE
 70
    1
  9
$FILLMODE
 70
    1
  9
$QTEXTMODE
 70
    0
  9
$MIRRTEXT
 70
    0
  9
$LTSCALE
 40
1
  9
$ATTMODE
 70
    0
  9
$TEXTSIZE
 40
2.5
  9
$TRACEWID
 40
15.68
  9
$TEXTSTYLE
  7
STANDARD
  9
$CLAYER
  8
0
  9
$CELTYPE
  6
BYLAYER
  9
$CECOLOR
 62
  256
  9
$CELTSCALE
 40
1
  9
$DISPSILH
 70
    0
  9
$DIMSCALE
 40
2.5
  9
$DIMASZ
 40
2.5
  9
$DIMEXO
 40
0.625
  9
$DIMDLI
 40
3.75
  9
$DIMRND
 40
0
  9
$DIMDLE
 40
0
  9
$DIMEXE
 40
1.25
  9
$DIMTP
 40
0
  9
$DIMTM
 40
0
  9
$DIMTXT
 40
2.5
  9
$DIMCEN
 40
2.5
  9
$DIMTSZ
 40
0
  9
$DIMTOL
 70
    0
  9
$DIMLIM
 70
    0
  9
$DIMTIH
 70
    0
  9
$DIMTOH
 70
    0
  9
$DIMSE1
 70
    0
  9
$DIMSE2
 70
    0
  9
$DIMTAD
 70
    1
  9
$DIMZIN
 70
    8
  9
$DIMBLK
  1

  9
$DIMASO
 70
    1
  9
$DIMSHO
 70
    1
  9
$DIMPOST
  1

  9
$DIMAPOST
  1

  9
$DIMALT
 70
    0
  9
$DIMALTD
 70
    3
  9
$DIMALTF
 40
0.03937
  9
$DIMLFAC
 40
1
  9
$DIMTOFL
 70
    1
  9
$DIMTVP
 40
0
  9
$DIMTIX
 70
    0
  9
$DIMSOXD
 70
    0
  9
$DIMSAH
 70
    0
  9
$DIMBLK1
  1

  9
$DIMBLK2
  1

  9
$DIMSTYLE
  2
Standard
  9
$DIMCLRD
 70
    0
  9
$DIMCLRE
 70
    0
  9
$DIMCLRT
 70
    0
  9
$DIMTFAC
 40
1
  9
$DIMGAP
 40
0.625
  9
$DIMJUST
 70
    0
  9
$DIMSD1
 70
    0
  9
$DIMSD2
 70
    0
  9
$DIMTOLJ
 70
    0
  9
$DIMTZIN
 70
    8
  9
$DIMALTZ
 70
    0
  9
$DIMALTTZ
 70
    0
  9
$DIMUPT
 70
    0
  9
$DIMDEC
 70
    2
  9
$DIMTDEC
 70
    2
  9
$DIMALTU
 70
    2
  9
$DIMALTTD
 70
    3
  9
$DIMTXSTY
  7
STANDARD
  9
$DIMAUNIT
 70
    0
  9
$DIMADEC
 70
    0
  9
$DIMALTRND
 40
0
  9
$DIMAZIN
 70
    0
  9
$DIMDSEP
 70
   44
  9
$DIMATFIT
 70
    3
  9
$DIMFRAC
 70
    0
  9
$DIMLDRBLK
  1
STANDARD
  9
$DIMLUNIT
 70
    2
  9
$DIMLWD
 70
   -2
  9
$DIMLWE
 70
   -2
  9
$DIMTMOVE
 70
    0
  9
$DIMFXL
 40
1
  9
$DIMFXLON
 70
    0
  9
$DIMJOGANG
 40
0.7854
  9
$DIMTFILL
 70
    0
  9
$DIMTFILLCLR
 70
    0
  9
$DIMARCSYM
 70
    0
  9
$DIMLTYPE
  6

  9
$DIMLTEX1
  6

  9
$DIMLTEX2
  6

  9
$LUNITS
 70
    2
  9
$LUPREC
 70
    4
  9
$SKETCHINC
 40
1
  9
$FILLETRAD
 40
0
  9
$AUNITS
 70
    0
  9
$AUPREC
 70
    2
  9
$MENU
  1
.
  9
$ELEVATION
 40
0
  9
$PELEVATION
 40
0
  9
$THICKNESS
 40
0
  9
$LIMCHECK
 70
    0
  9
$CHAMFERA
 40
0
  9
$CHAMFERB
 40
0
  9
$CHAMFERC
 40
0
  9
$CHAMFERD
 40
0
  9
$SKPOLY
 70
    0
  9
$USRTIMER
 70
    1
  9
$ANGBASE
 50
0
  9
$ANGDIR
 70
    0
  9
$PDMODE
 70
   34
  9
$PDSIZE
 40
0
  9
$PLINEWID
 40
0
  9
$SPLFRAME
 70
    0
  9
$SPLINETYPE
 70
    2
  9
$SPLINESEGS
 70
    8
  9
$HANDSEED
  5
20000
  9
$SURFTAB1
 70
    6
  9
$SURFTAB2
 70
    6
  9
$SURFTYPE
 70
    6
  9
$SURFU
 70
    6
  9
$SURFV
 70
    6
  9
$UCSBASE
  2

  9
$UCSNAME
  2

  9
$UCSORG
 10
0
 20
0
 30
0
  9
$UCSXDIR
 10
1
 20
0
 30
0
  9
$UCSYDIR
 10
0
 20
1
 30
0
  9
$UCSORTHOREF
  2

  9
$UCSORTHOVIEW
 70
    0
  9
$UCSORGTOP
 10
0
 20
0
 30
0
  9
$UCSORGBOTTOM
 10
0
 20
0
 30
0
  9
$UCSORGLEFT
 10
0
 20
0
 30
0
  9
$UCSORGRIGHT
 10
0
 20
0
 30
0
  9
$UCSORGFRONT
 10
0
 20
0
 30
0
  9
$UCSORGBACK
 10
0
 20
0
 30
0
  9
$PUCSBASE
  2

  9
$PUCSNAME
  2

  9
$PUCSORG
 10
0
 20
0
 30
0
  9
$PUCSXDIR
 10
1
 20
0
 30
0
  9
$PUCSYDIR
 10
0
 20
1
 30
0
  9
$PUCSORTHOREF
  2

  9
$PUCSORTHOVIEW
 70
    0
  9
$PUCSORGTOP
 10
0
 20
0
 30
0
  9
$PUCSORGBOTTOM
 10
0
 20
0
 30
0
  9
$PUCSORGLEFT
 10
0
 20
0
 30
0
  9
$PUCSORGRIGHT
 10
0
 20
0
 30
0
  9
$PUCSORGFRONT
 10
0
 20
0
 30
0
  9
$PUCSORGBACK
 10
0
 20
0
 30
0
  9
$USERI1
 70
    0
  9
$USERI2
 70
    0
  9
$USERI3
 70
    0
  9
$USERI4
 70
    0
  9
$USERI5
 70
    0
  9
$USERR1
 40
0
  9
$USERR2
 40
0
  9
$USERR3
 40
0
  9
$USERR4
 40
0
  9
$USERR5
 40
0
  9
$WORLDVIEW
 70
    1
  9
$SHADEDGE
 70
    3
  9
$SHADEDIF
 70
   70
  9
$TILEMODE
 70
    1
  9
$MAXACTVP
 70
   64
  9
$PINSBASE
 10
0
 20
0
 30
0
  9
$PLIMCHECK
 70
    0
  9
$PEXTMIN
 10
0
 20
0
 30
0
  9
$PEXTMAX
 10
0
 20
0
 30
0
  9
$GRIDMODE
 70
    0
  9
$SNAPSTYLE
 70
    0
  9
$PLIMMIN
 10
0
 20
0
  9
$PLIMMAX
 10
210
 20
297
  9
$UNITMODE
 70
    0
  9
$VISRETAIN
 70
    1
  9
$PLINEGEN
 70
    0
  9
$PSLTSCALE
 70
    1
  9
$TREEDEPTH
 70
 3020
  9
$CMLSTYLE
  2
Standard
  9
$CMLJUST
 70
    0
  9
$CMLSCALE
 40
20
  9
$PROXYGRAPHICS
 70
    1
  9
$MEASUREMENT
 70
    1
  9
$CELWEIGHT
370
   -1
  9
$ENDCAPS
280
    0
  9
$JOINSTYLE
280
    0
  9
$LWDISPLAY
290
    0
  9
$INSUNITS
 70
    4
  9
$HYPERLINKBASE
  1

  9
$STYLESHEET
  1

  9
$XEDIT
290
    1
  9
$CEPSNTYPE
380
    0
  9
$PSTYLEMODE
290
    1
  9
$EXTNAMES
290
    1
  9
$PSVPSCALE
 40
1
  9
$OLESTARTUP
290
    0
  9
$SORTENTS
280
  127
  9
$INDEXCTL
280
    0
  9
$HIDETEXT
280
    1
  9
$XCLIPFRAME
290
    0
  9
$HALOGAP
280
    0
  9
$OBSCOLOR
 70
  257
  9
$OBSLTYPE
280
    0
  9
$INTERSECTIONDISPLAY
280
    0
  9
$INTERSECTIONCOLOR
 70
  257
  9
$DIMASSOC
280
    1
  9
$PROJECTNAME
  1

  9
$CAMERADISPLAY
290
    0
  9
$LENSLENGTH
 40
50
  9
$CAMERAHEIGHT
 40
0
  9
$STEPSPERSEC
 40
2
  9
$STEPSIZE
 40
50
  9
$3DDWFPREC
 40
2
  9
$PSOLWIDTH
 40
5
  9
$PSOLHEIGHT
 40
80
  9
$LOFTANG1
 40
1.570796326794897
  9
$LOFTANG2
 40
1.570796326794897
  9
$LOFTMAG1
 40
0
  9
$LOFTMAG2
 40
0
  9
$LOFTPARAM
 70
    7
  9
$LOFTNORMALS
280
    1
  9
$LATITUDE
 40
1
  9
$LONGITUDE
 40
1
  9
$NORTHDIRECTION
 40
0
  9
$TIMEZONE
 70
-8000
  9
$LIGHTGLYPHDISPLAY
280
    1
  9
$TILEMODELIGHTSYNCH
280
    1
  9
$SOLIDHIST
280
    1
  9
$SHOWHIST
280
    1
  9
$DWFFRAME
280
    2
  9
$DGNFRAME
280
    0
  9
$REALWORLDSCALE
290
    1
  9
$INTERFERECOLOR
 62
    1
  9
$CSHADOW
280
    0
  9
$SHADOWPLANELOCATION
 40
0
  0
ENDSEC
  0
SECTION
  2
CLASSES
  0
ENDSEC
  0
SECTION
  2
TABLES
  0
TABLE
  2
VPORT
  5
8
330
0
100
AcDbSymbolTable
 70
    1
  0
VPORT
  5
31
330
2
100
AcDbSymbolTableRecord
100
AcDbViewportTableRecord
  2
*ACTIVE
 70
    0
 10
0
 20
0
 11
1
 21
1
 12
210.8447031343894
 22
238.0639796065548
 13
0
 23
0
 14
10
 24
10
 15
10
 25
10
 16
0
 26
0
 36
1
 17
0
 27
0
 37
0
 40
231.991987162764
 41
1.429602888086643
 42
50
 43
0
 44
0
 50
0
 51
0
 71
    0
 72
  100
 73
    1
 74
    3
 75
    0
 76
    0
 77
    0
 78
    0
281
    0
 65
    1
110
0
120
0
130
0
111
1
121
0
131
0
112
0
122
1
132
0
 79
    0
146
0
348
10020
 60
    7
 61
    5
292
1
282
    1
141
0
142
0
 63
  250
421
3358443
  0
ENDTAB
  0
TABLE
  2
LTYPE
  5
5
330
0
100
AcDbSymbolTable
 70
    4
  0
LTYPE
  5
14
330
5
100
AcDbSymbolTableRecord
100
AcDbLinetypeTableRecord
  2
ByBlock
 70
    0
  3

 72
   65
 73
    0
 40
0
  0
LTYPE
  5
15
330
5
100
AcDbSymbolTableRecord
100
AcDbLinetypeTableRecord
  2
ByLayer
 70
    0
  3

 72
   65
 73
    0
 40
0
  0
LTYPE
  5
16
330
5
100
AcDbSymbolTableRecord
100
AcDbLinetypeTableRecord
  2
Continuous
 70
    0
  3
Solid line
 72
   65
 73
    0
 40
0
  0
LTYPE
  5
32
330
5
100
AcDbSymbolTableRecord
100
AcDbLinetypeTableRecord
  2
DOT
 70
    0
  3
Dot . . . . . . . . . . . . . . . . . . . . . .
 72
   65
 73
    2
 40
6.35
 49
0
 74
    0
 49
-6.35
 74
    0
  0
LTYPE
  5
33
330
5
100
AcDbSymbolTableRecord
100
AcDbLinetypeTableRecord
  2
DOTTINY
 70
    0
  3
Dot (.15x) .....................................
 72
   65
 73
    2
 40
0.9525
 49
0
 74
    0
 49
-0.9525
 74
    0
  0
LTYPE
  5
34
330
5
100
AcDbSymbolTableRecord
100
AcDbLinetypeTableRecord
  2
DOT2
 70
    0
  3
Dot (.5x) .....................................
 72
   65
 73
    2
 40
3.175
 49
0
 74
    0
 49
-3.175
 74
    0
  0
LTYPE
  5
35
330
5
100
AcDbSymbolTableRecord
100
AcDbLinetypeTableRecord
  2
DOTX2
 70
    0
  3
Dot (2x) .  .  .  .  .  .  .  .  .  .  .  .  .
 72
   65
 73
    2
 40
12.7
 49
0
 74
    0
 49
-12.7
 74
    0
  0
LTYPE
  5
36
330
5
100
AcDbSymbolTableRecord
100
AcDbLinetypeTableRecord
  2
DASHED
 70
    0
  3
Dashed _ _ _ _ _ _ _ _ _ _ _ _ _ _ _ _ _
 72
   65
 73
    2
 40
19.05
 49
12.7
 74
    0
 49
-6.35
 74
    0
  0
LTYPE
  5
37
330
5
100
AcDbSymbolTableRecord
100
AcDbLinetypeTableRecord
  2
DASHEDTINY
 70
    0
  3
Dashed (.15x) _ _ _ _ _ _ _ _ _ _ _ _ _ _ _ _ _
 72
   65
 73
    2
 40
2.8575
 49
1.905
 74
    0
 49
-0.9525
 74
    0
  0
LTYPE
  5
38
330
5
100
AcDbSymbolTableRecord
100
AcDbLinetypeTableRecord
  2
DASHED2
 70
    0
  3
Dashed (.5x) _ _ _ _ _ _ _ _ _ _ _ _ _ _ _ _ _
 72
   65
 73
    2
 40
9.524999999999999
 49
6.35
 74
    0
 49
-3.175
 74
    0
  0
LTYPE
  5
39
330
5
100
AcDbSymbolTableRecord
100
AcDbLinetypeTableRecord
  2
DASHEDX2
 70
    0
  3
Dashed (2x) ____  ____  ____  ____  ____  ___
 72
   65
 73
    2
 40
38.09999999999999
 49
25.4
 74
    0
 49
-12.7
 74
    0
  0
LTYPE
  5
3A
330
5
100
AcDbSymbolTableRecord
100
AcDbLinetypeTableRecord
  2
DASHDOT
 70
    0
  3
Dash dot __ . __ . __ . __ . __ . __ . __ . __
 72
   65
 73
    4
 40
25.4
 49
12.7
 74
    0
 49
-6.35
 74
    0
 49
0
 74
    0
 49
-6.35
 74
    0
  0
LTYPE
  5
3B
330
5
100
AcDbSymbolTableRecord
100
AcDbLinetypeTableRecord
  2
DASHDOTTINY
 70
    0
  3
Dash dot (.15x) _._._._._._._._._._._._._._._.
 72
   65
 73
    4
 40
3.81
 49
1.905
 74
    0
 49
-0.9525
 74
    0
 49
0
 74
    0
 49
-0.9525
 74
    0
  0
LTYPE
  5
3C
330
5
100
AcDbSymbolTableRecord
100
AcDbLinetypeTableRecord
  2
DASHDOT2
 70
    0
  3
Dash dot (.5x) _._._._._._._._._._._._._._._.
 72
   65
 73
    4
 40
12.7
 49
6.35
 74
    0
 49
-3.175
 74
    0
 49
0
 74
    0
 49
-3.175
 74
    0
  0
LTYPE
  5
3D
330
5
100
AcDbSymbolTableRecord
100
AcDbLinetypeTableRecord
  2
DASHDOTX2
 70
    0
  3
Dash dot (2x) ____  .  ____  .  ____  .  ___
 72
   65
 73
    4
 40
50.8
 49
25.4
 74
    0
 49
-12.7
 74
    0
 49
0
 74
    0
 49
-12.7
 74
    0
  0
LTYPE
  5
3E
330
5
100
AcDbSymbolTableRecord
100
AcDbLinetypeTableRecord
  2
DIVIDE
 70
    0
  3
Divide ____ . . ____ . . ____ . . ____ . . ____
 72
   65
 73
    6
 40
31.75
 49
12.7
 74
    0
 49
-6.35
 74
    0
 49
0
 74
    0
 49
-6.35
 74
    0
 49
0
 74
    0
 49
-6.35
 74
    0
  0
LTYPE
  5
3F
330
5
100
AcDbSymbolTableRecord
100
AcDbLinetypeTableRecord
  2
DIVIDETINY
 70
    0
  3
Divide (.15x) __..__..__..__..__..__..__..__.._
 72
   65
 73
    6
 40
4.7625
 49
1.905
 74
    0
 49
-0.9525
 74
    0
 49
0
 74
    0
 49
-0.9525
 74
    0
 49
0
 74
    0
 49
-0.9525
 74
    0
  0
LTYPE
  5
40
330
5
100
AcDbSymbolTableRecord
100
AcDbLinetypeTableRecord
  2
DIVIDE2
 70
    0
  3
Divide (.5x) __..__..__..__..__..__..__..__.._
 72
   65
 73
    6
 40
15.875
 49
6.35
 74
    0
 49
-3.175
 74
    0
 49
0
 74
    0
 49
-3.175
 74
    0
 49
0
 74
    0
 49
-3.175
 74
    0
  0
LTYPE
  5
41
330
5
100
AcDbSymbolTableRecord
100
AcDbLinetypeTableRecord
  2
DIVIDEX2
 70
    0
  3
Divide (2x) ________  .  .  ________  .  .  _
 72
   65
 73
    6
 40
63.5
 49
25.4
 74
    0
 49
-12.7
 74
    0
 49
0
 74
    0
 49
-12.7
 74
    0
 49
0
 74
    0
 49
-12.7
 74
    0
  0
LTYPE
  5
42
330
5
100
AcDbSymbolTableRecord
100
AcDbLinetypeTableRecord
  2
BORDER
 70
    0
  3
Border __ __ . __ __ . __ __ . __ __ . __ __ .
 72
   65
 73
    6
 40
44.45
 49
12.7
 74
    0
 49
-6.35
 74
    0
 49
12.7
 74
    0
 49
-6.35
 74
    0
 49
0
 74
    0
 49
-6.35
 74
    0
  0
LTYPE
  5
43
330
5
100
AcDbSymbolTableRecord
100
AcDbLinetypeTableRecord
  2
BORDERTINY
 70
    0
  3
Border (.15x) __.__.__.__.__.__.__.__.__.__.__.
 72
   65
 73
    6
 40
6.6675
 49
1.905
 74
    0
 49
-0.9525
 74
    0
 49
1.905
 74
    0
 49
-0.9525
 74
    0
 49
0
 74
    0
 49
-0.9525
 74
    0
  0
LTYPE
  5
44
330
5
100
AcDbSymbolTableRecord
100
AcDbLinetypeTableRecord
  2
BORDER2
 70
    0
  3
Border (.5x) __.__.__.__.__.__.__.__.__.__.__.
 72
   65
 73
    6
 40
22.225
 49
6.35
 74
    0
 49
-3.175
 74
    0
 49
6.35
 74
    0
 49
-3.175
 74
    0
 49
0
 74
    0
 49
-3.175
 74
    0
  0
LTYPE
  5
45
330
5
100
AcDbSymbolTableRecord
100
AcDbLinetypeTableRecord
  2
BORDERX2
 70
    0
  3
Border (2x) ____  ____  .  ____  ____  .  ___
 72
   65
 73
    6
 40
88.89999999999999
 49
25.4
 74
    0
 49
-12.7
 74
    0
 49
25.4
 74
    0
 49
-12.7
 74
    0
 49
0
 74
    0
 49
-12.7
 74
    0
  0
LTYPE
  5
46
330
5
100
AcDbSymbolTableRecord
100
AcDbLinetypeTableRecord
  2
CENTER
 70
    0
  3
Center ____ _ ____ _ ____ _ ____ _ ____ _ ____
 72
   65
 73
    4
 40
50.8
 49
31.75
 74
    0
 49
-6.35
 74
    0
 49
6.35
 74
    0
 49
-6.35
 74
    0
  0
LTYPE
  5
47
330
5
100
AcDbSymbolTableRecord
100
AcDbLinetypeTableRecord
  2
CENTERTINY
 70
    0
  3
Center (.15x) ___ _ ___ _ ___ _ ___ _ ___ _ ___
 72
   65
 73
    4
 40
7.62
 49
4.7625
 74
    0
 49
-0.9525
 74
    0
 49
0.9525
 74
    0
 49
-0.9525
 74
    0
  0
LTYPE
  5
48
330
5
100
AcDbSymbolTableRecord
100
AcDbLinetypeTableRecord
  2
CENTER2
 70
    0
  3
Center (.5x) ___ _ ___ _ ___ _ ___ _ ___ _ ___
 72
   65
 73
    4
 40
28.575
 49
19.05
 74
    0
 49
-3.175
 74
    0
 49
3.175
 74
    0
 49
-3.175
 74
    0
  0
LTYPE
  5
49
330
5
100
AcDbSymbolTableRecord
100
AcDbLinetypeTableRecord
  2
CENTERX2
 70
    0
  3
Center (2x) ________  __  ________  __  _____
 72
   65
 73
    4
 40
101.6
 49
63.5
 74
    0
 49
-12.7
 74
    0
 49
12.7
 74
    0
 49
-12.7
 74
    0
  0
ENDTAB
  0
TABLE
  2
LAYER
  5
2
330
0
100
AcDbSymbolTable
 70
    1
  0
LAYER
  5
10
330
2
100
AcDbSymbolTableRecord
100
AcDbLayerTableRecord
  2
0
 70
    0
 62
    7
  6
CONTINUOUS
370
   -3
390
F
  0
LAYER
  5
4A
330
2
100
AcDbSymbolTableRecord
100
AcDbLayerTableRecord
  2
Layer_1
 70
    0
 62
    7
  6
CONTINUOUS
370
   -3
390
F
  0
ENDTAB
  0
TABLE
  2
STYLE
  5
3
330
0
100
AcDbSymbolTable
 70
    3
  0
STYLE
  5
4B
330
2
100
AcDbSymbolTableRecord
100
AcDbTextStyleTableRecord
  2
Standard
 70
    0
 40
0
 41
1
 50
0
 71
    0
 42
1
  3
txt
  4

  0
ENDTAB
  0
TABLE
  2
VIEW
  5
6
330
0
100
AcDbSymbolTable
 70
    0
  0
ENDTAB
  0
TABLE
  2
UCS
  5
7
330
0
100
AcDbSymbolTable
 70
    0
  0
ENDTAB
  0
TABLE
  2
APPID
  5
9
330
0
100
AcDbSymbolTable
 70
    1
  0
APPID
  5
12
330
9
100
AcDbSymbolTableRecord
100
AcDbRegAppTableRecord
  2
ACAD
 70
    0
  0
APPID
  5
4C
330
9
100
AcDbSymbolTableRecord
100
AcDbRegAppTableRecord
  2
LibreCad
 70
    0
  0
ENDTAB
  0
TABLE
  2
DIMSTYLE
  5
A
330
0
100
AcDbSymbolTable
 70
    1
100
AcDbDimStyleTable
 71
    1
  0
DIMSTYLE
105
4D
330
A
100
AcDbSymbolTableRecord
100
AcDbDimStyleTableRecord
  2
Standard
 70
    0
 40
1
 41
2.5
 42
0.625
 43
0.38
 44
1.25
 45
0
 46
0
 47
0
 48
0
 49
1
140
2.5
141
0.09
142
2.5
143
25.4
144
1
145
0
146
1
147
0.625
148
0
 71
    0
 72
    0
 73
    0
 74
    1
 75
    0
 76
    0
 77
    0
 78
    1
 79
    0
170
    0
171
    2
172
    0
173
    0
174
    0
175
    0
176
    0
177
    0
178
    0
179
    0
271
    2
272
    4
273
    2
274
    2
275
    0
276
    0
277
    2
278
    0
279
    0
280
    0
281
    0
282
    0
283
    1
284
    0
285
    0
286
    0
288
    0
289
    3
340
standard
341

371
   -2
372
   -2
  0
ENDTAB
  0
TABLE
  2
BLOCK_RECORD
  5
1
330
0
100
AcDbSymbolTable
 70
    2
  0
BLOCK_RECORD
  5
1F
330
1
100
AcDbSymbolTableRecord
100
AcDbBlockTableRecord
  2
*Model_Space
 70
    0
280
    1
281
    0
  0
BLOCK_RECORD
  5
1E
330
1
100
AcDbSymbolTableRecord
100
AcDbBlockTableRecord
  2
*Paper_Space
 70
    0
280
    1
281
    0
  0
ENDTAB
  0
ENDSEC
  0
SECTION
  2
BLOCKS
  0
BLOCK
  5
20
330
1F
100
AcDbEntity
  8
0
100
AcDbBlockBegin
  2
*Model_Space
 70
    0
 10
0
 20
0
 30
0
  3
*Model_Space
  1

  0
ENDBLK
  5
21
330
1F
100
AcDbEntity
  8
0
100
AcDbBlockEnd
  0
BLOCK
  5
1C
330
1B
100
AcDbEntity
  8
0
100
AcDbBlockBegin
  2
*Paper_Space
 70
    0
 10
0
 20
0
 30
0
  3
*Paper_Space
  1

  0
ENDBLK
  5
1D
330
1F
100
AcDbEntity
  8
0
100
AcDbBlockEnd
  0
ENDSEC
  0
SECTION
  2
ENTITIES
  0
SPLINE
  5
4E
100
AcDbEntity
  8
Layer_1
  6
ByLayer
 62
    7
370
   -1
100
AcDbSpline
210
0
220
0
230
0
 70
    8
 71
    3
 72
    8
 73
    4
 74
    0
 42
1e-007
 43
1e-007
 40
0
 40
0
 40
0
 40
0
 40
1
 40
1
 40
1
 40
1
 10
253.557296
 20
429.13878
 30
0
 10
253.557296
 20
429.13878
 30
0
 10
254.299408
 20
429.13878
 30
0
 10
255.209296
 20
429.13878
 30
0
  0
SPLINE
  5
4F
100
AcDbEntity
  8
Layer_1
  6
ByLayer
 62
    7
370
   -1
100
AcDbSpline
210
0
220
0
230
0
 70
    8
 71
    3
 72
    8
 73
    4
 74
    0
 42
1e-007
 43
1e-007
 40
0
 40
0
 40
0
 40
0
 40
1
 40
1
 40
1
 40
1
 10
255.209296
 20
429.13878
 30
0
 10
255.740696
 20
429.13878
 30
0
 10
256.32932
 20
429.13878
 30
0
 10
256.86076
 20
429.13878
 30
0
  0
SPLINE
  5
50
100
AcDbEntity
  8
Layer_1
  6
ByLayer
 62
    7
370
   -1
100
AcDbSpline
210
0
220
0
230
0
 70
    8
 71
    3
 72
    8
 73
    4
 74
    0
 42
1e-007
 43
1e-007
 40
0
 40
0
 40
0
 40
0
 40
1
 40
1
 40
1
 40
1
 10
256.86076
 20
429.13878
 30
0
 10
257.770888
 20
429.13878
 30
0
 10
258.513296
 20
429.13878
 30
0
 10
258.513296
 20
429.13878
 30
0
  0
SPLINE
  5
51
100
AcDbEntity
  8
Layer_1
  6
ByLayer
 62
    7
370
   -1
100
AcDbSpline
210
0
220
0
230
0
 70
    8
 71
    3
 72
    8
 73
    4
 74
    0
 42
1e-007
 43
1e-007
 40
0
 40
0
 40
0
 40
0
 40
1
 40
1
 40
1
 40
1
 10
253.557296
 20
414.33878
 30
0
 10
253.557296
 20
414.33878
 30
0
 10
254.299408
 20
414.33878
 30
0
 10
255.209296
 20
414.33878
 30
0
  0
SPLINE
  5
52
100
AcDbEntity
  8
Layer_1
  6
ByLayer
 62
    7
370
   -1
100
AcDbSpline
210
0
220
0
230
0
 70
    8
 71
    3
 72
    8
 73
    4
 74
    0
 42
1e-007
 43
1e-007
 40
0
 40
0
 40
0
 40
0
 40
1
 40
1
 40
1
 40
1
 10
255.209296
 20
414.33878
 30
0
 10
255.740696
 20
414.33878
 30
0
 10
256.32932
 20
414.33878
 30
0
 10
256.86076
 20
414.33878
 30
0
  0
SPLINE
  5
53
100
AcDbEntity
  8
Layer_1
  6
ByLayer
 62
    7
370
   -1
100
AcDbSpline
210
0
220
0
230
0
 70
    8
 71
    3
 72
    8
 73
    4
 74
    0
 42
1e-007
 43
1e-007
 40
0
 40
0
 40
0
 40
0
 40
1
 40
1
 40
1
 40
1
 10
256.86076
 20
414.33878
 30
0
 10
257.770888
 20
414.33878
 30
0
 10
258.513296
 20
414.33878
 30
0
 10
258.513296
 20
414.33878
 30
0
  0
SPLINE
  5
54
100
AcDbEntity
  8
Layer_1
  6
ByLayer
 62
    7
370
   -1
100
AcDbSpline
210
0
220
0
230
0
 70
    8
 71
    3
 72
    8
 73
    4
 74
    0
 42
1e-007
 43
1e-007
 40
0
 40
0
 40
0
 40
0
 40
1
 40
1
 40
1
 40
1
 10
262.506296
 20
404.258148
 30
0
 10
263.215768
 20
404.258148
 30
0
 10
263.880856
 20
404.068524
 30
0
 10
264.453648
 20
403.73718
 30
0
  0
SPLINE
  5
55
100
AcDbEntity
  8
Layer_1
  6
ByLayer
 62
    7
370
   -1
100
AcDbSpline
210
0
220
0
230
0
 70
    8
 71
    3
 72
    8
 73
    4
 74
    0
 42
1e-007
 43
1e-007
 40
0
 40
0
 40
0
 40
0
 40
1
 40
1
 40
1
 40
1
 10
264.453648
 20
403.73718
 30
0
 10
265.044656
 20
403.3953
 30
0
 10
265.537408
 20
402.902548
 30
0
 10
265.879296
 20
402.311556
 30
0
  0
SPLINE
  5
56
100
AcDbEntity
  8
Layer_1
  6
ByLayer
 62
    7
370
   -1
100
AcDbSpline
210
0
220
0
230
0
 70
    8
 71
    3
 72
    8
 73
    4
 74
    0
 42
1e-007
 43
1e-007
 40
0
 40
0
 40
0
 40
0
 40
1
 40
1
 40
1
 40
1
 10
265.879296
 20
402.311556
 30
0
 10
266.210656
 20
401.73874
 30
0
 10
266.400296
 20
401.073636
 30
0
 10
266.400296
 20
400.364148
 30
0
  0
SPLINE
  5
57
100
AcDbEntity
  8
Layer_1
  6
ByLayer
 62
    7
370
   -1
100
AcDbSpline
210
0
220
0
230
0
 70
    8
 71
    3
 72
    8
 73
    4
 74
    0
 42
1e-007
 43
1e-007
 40
0
 40
0
 40
0
 40
0
 40
1
 40
1
 40
1
 40
1
 10
266.400296
 20
400.364148
 30
0
 10
266.400296
 20
399.65466
 30
0
 10
266.210672
 20
398.989572
 30
0
 10
265.879336
 20
398.416772
 30
0
  0
SPLINE
  5
58
100
AcDbEntity
  8
Layer_1
  6
ByLayer
 62
    7
370
   -1
100
AcDbSpline
210
0
220
0
230
0
 70
    8
 71
    3
 72
    8
 73
    4
 74
    0
 42
1e-007
 43
1e-007
 40
0
 40
0
 40
0
 40
0
 40
1
 40
1
 40
1
 40
1
 10
265.879336
 20
398.416772
 30
0
 10
265.537464
 20
397.825772
 30
0
 10
265.04472
 20
397.33302
 30
0
 10
264.45372
 20
396.99114
 30
0
  0
SPLINE
  5
59
100
AcDbEntity
  8
Layer_1
  6
ByLayer
 62
    7
370
   -1
100
AcDbSpline
210
0
220
0
230
0
 70
    8
 71
    3
 72
    8
 73
    4
 74
    0
 42
1e-007
 43
1e-007
 40
0
 40
0
 40
0
 40
0
 40
1
 40
1
 40
1
 40
1
 10
264.45372
 20
396.99114
 30
0
 10
263.880912
 20
396.65978
 30
0
 10
263.2158
 20
396.470148
 30
0
 10
262.506296
 20
396.470148
 30
0
  0
SPLINE
  5
5A
100
AcDbEntity
  8
Layer_1
  6
ByLayer
 62
    7
370
   -1
100
AcDbSpline
210
0
220
0
230
0
 70
    8
 71
    3
 72
    8
 73
    4
 74
    0
 42
1e-007
 43
1e-007
 40
0
 40
0
 40
0
 40
0
 40
1
 40
1
 40
1
 40
1
 10
262.506296
 20
396.470148
 30
0
 10
261.796824
 20
396.470148
 30
0
 10
261.131736
 20
396.659764
 30
0
 10
260.558944
 20
396.9911
 30
0
  0
SPLINE
  5
5B
100
AcDbEntity
  8
Layer_1
  6
ByLayer
 62
    7
370
   -1
100
AcDbSpline
210
0
220
0
230
0
 70
    8
 71
    3
 72
    8
 73
    4
 74
    0
 42
1e-007
 43
1e-007
 40
0
 40
0
 40
0
 40
0
 40
1
 40
1
 40
1
 40
1
 10
260.558944
 20
396.9911
 30
0
 10
259.967936
 20
397.332972
 30
0
 10
259.475184
 20
397.825708
 30
0
 10
259.133296
 20
398.416708
 30
0
  0
SPLINE
  5
5C
100
AcDbEntity
  8
Layer_1
  6
ByLayer
 62
    7
370
   -1
100
AcDbSpline
210
0
220
0
230
0
 70
    8
 71
    3
 72
    8
 73
    4
 74
    0
 42
1e-007
 43
1e-007
 40
0
 40
0
 40
0
 40
0
 40
1
 40
1
 40
1
 40
1
 10
259.133296
 20
398.416708
 30
0
 10
258.801936
 20
398.989516
 30
0
 10
258.612296
 20
399.654636
 30
0
 10
258.612296
 20
400.364148
 30
0
  0
SPLINE
  5
5D
100
AcDbEntity
  8
Layer_1
  6
ByLayer
 62
    7
370
   -1
100
AcDbSpline
210
0
220
0
230
0
 70
    8
 71
    3
 72
    8
 73
    4
 74
    0
 42
1e-007
 43
1e-007
 40
0
 40
0
 40
0
 40
0
 40
1
 40
1
 40
1
 40
1
 10
258.612296
 20
400.364148
 30
0
 10
258.612296
 20
401.073604
 30
0
 10
258.80192
 20
401.738692
 30
0
 10
259.133256
 20
402.311484
 30
0
  0
SPLINE
  5
5E
100
AcDbEntity
  8
Layer_1
  6
ByLayer
 62
    7
370
   -1
100
AcDbSpline
210
0
220
0
230
0
 70
    8
 71
    3
 72
    8
 73
    4
 74
    0
 42
1e-007
 43
1e-007
 40
0
 40
0
 40
0
 40
0
 40
1
 40
1
 40
1
 40
1
 10
259.133256
 20
402.311484
 30
0
 10
259.475128
 20
402.902492
 30
0
 10
259.967872
 20
403.395252
 30
0
 10
260.558872
 20
403.73714
 30
0
  0
SPLINE
  5
5F
100
AcDbEntity
  8
Layer_1
  6
ByLayer
 62
    7
370
   -1
100
AcDbSpline
210
0
220
0
230
0
 70
    8
 71
    3
 72
    8
 73
    4
 74
    0
 42
1e-007
 43
1e-007
 40
0
 40
0
 40
0
 40
0
 40
1
 40
1
 40
1
 40
1
 10
260.558872
 20
403.73714
 30
0
 10
261.13168
 20
404.068508
 30
0
 10
261.796792
 20
404.258148
 30
0
 10
262.506296
 20
404.258148
 30
0
  0
SPLINE
  5
60
100
AcDbEntity
  8
Layer_1
  6
ByLayer
 62
    7
370
   -1
100
AcDbSpline
210
0
220
0
230
0
 70
    8
 71
    3
 72
    8
 73
    4
 74
    0
 42
1e-007
 43
1e-007
 40
0
 40
0
 40
0
 40
0
 40
1
 40
1
 40
1
 40
1
 10
262.368296
 20
406.595108
 30
0
 10
262.92628
 20
406.595108
 30
0
 10
263.467096
 20
406.521828
 30
0
 10
263.981656
 20
406.38426
 30
0
  0
SPLINE
  5
61
100
AcDbEntity
  8
Layer_1
  6
ByLayer
 62
    7
370
   -1
100
AcDbSpline
210
0
220
0
230
0
 70
    8
 71
    3
 72
    8
 73
    4
 74
    0
 42
1e-007
 43
1e-007
 40
0
 40
0
 40
0
 40
0
 40
1
 40
1
 40
1
 40
1
 10
263.981656
 20
406.38426
 30
0
 10
264.514248
 20
406.241916
 30
0
 10
265.018704
 20
406.03078
 30
0
 10
265.484944
 20
405.760972
 30
0
  0
SPLINE
  5
62
100
AcDbEntity
  8
Layer_1
  6
ByLayer
 62
    7
370
   -1
100
AcDbSpline
210
0
220
0
230
0
 70
    8
 71
    3
 72
    8
 73
    4
 74
    0
 42
1e-007
 43
1e-007
 40
0
 40
0
 40
0
 40
0
 40
1
 40
1
 40
1
 40
1
 10
265.484944
 20
405.760972
 30
0
 10
265.9576
 20
405.487444
 30
0
 10
266.390968
 20
405.153604
 30
0
 10
266.774544
 20
404.769988
 30
0
  0
SPLINE
  5
63
100
AcDbEntity
  8
Layer_1
  6
ByLayer
 62
    7
370
   -1
100
AcDbSpline
210
0
220
0
230
0
 70
    8
 71
    3
 72
    8
 73
    4
 74
    0
 42
1e-007
 43
1e-007
 40
0
 40
0
 40
0
 40
0
 40
1
 40
1
 40
1
 40
1
 10
266.774544
 20
404.769988
 30
0
 10
267.158272
 20
404.38622
 30
0
 10
267.49216
 20
403.952636
 30
0
 10
267.765688
 20
403.479772
 30
0
  0
SPLINE
  5
64
100
AcDbEntity
  8
Layer_1
  6
ByLayer
 62
    7
370
   -1
100
AcDbSpline
210
0
220
0
230
0
 70
    8
 71
    3
 72
    8
 73
    4
 74
    0
 42
1e-007
 43
1e-007
 40
0
 40
0
 40
0
 40
0
 40
1
 40
1
 40
1
 40
1
 10
267.765688
 20
403.479772
 30
0
 10
268.035184
 20
403.013892
 30
0
 10
268.246088
 20
402.509876
 30
0
 10
268.388336
 20
401.977812
 30
0
  0
SPLINE
  5
65
100
AcDbEntity
  8
Layer_1
  6
ByLayer
 62
    7
370
   -1
100
AcDbSpline
210
0
220
0
230
0
 70
    8
 71
    3
 72
    8
 73
    4
 74
    0
 42
1e-007
 43
1e-007
 40
0
 40
0
 40
0
 40
0
 40
1
 40
1
 40
1
 40
1
 10
268.388336
 20
401.977812
 30
0
 10
268.525936
 20
401.463132
 30
0
 10
268.599296
 20
400.922196
 30
0
 10
268.599296
 20
400.364148
 30
0
  0
SPLINE
  5
66
100
AcDbEntity
  8
Layer_1
  6
ByLayer
 62
    7
370
   -1
100
AcDbSpline
210
0
220
0
230
0
 70
    8
 71
    3
 72
    8
 73
    4
 74
    0
 42
1e-007
 43
1e-007
 40
0
 40
0
 40
0
 40
0
 40
1
 40
1
 40
1
 40
1
 10
268.599296
 20
400.364148
 30
0
 10
268.599296
 20
399.806324
 30
0
 10
268.526016
 20
399.265604
 30
0
 10
268.388512
 20
398.751116
 30
0
  0
SPLINE
  5
67
100
AcDbEntity
  8
Layer_1
  6
ByLayer
 62
    7
370
   -1
100
AcDbSpline
210
0
220
0
230
0
 70
    8
 71
    3
 72
    8
 73
    4
 74
    0
 42
1e-007
 43
1e-007
 40
0
 40
0
 40
0
 40
0
 40
1
 40
1
 40
1
 40
1
 10
268.388512
 20
398.751116
 30
0
 10
268.246208
 20
398.218588
 30
0
 10
268.035136
 20
397.714156
 30
0
 10
267.765376
 20
397.247916
 30
0
  0
SPLINE
  5
68
100
AcDbEntity
  8
Layer_1
  6
ByLayer
 62
    7
370
   -1
100
AcDbSpline
210
0
220
0
230
0
 70
    8
 71
    3
 72
    8
 73
    4
 74
    0
 42
1e-007
 43
1e-007
 40
0
 40
0
 40
0
 40
0
 40
1
 40
1
 40
1
 40
1
 10
267.765376
 20
397.247916
 30
0
 10
267.491904
 20
396.77526
 30
0
 10
267.15812
 20
396.34186
 30
0
 10
266.774544
 20
395.958236
 30
0
  0
SPLINE
  5
69
100
AcDbEntity
  8
Layer_1
  6
ByLayer
 62
    7
370
   -1
100
AcDbSpline
210
0
220
0
230
0
 70
    8
 71
    3
 72
    8
 73
    4
 74
    0
 42
1e-007
 43
1e-007
 40
0
 40
0
 40
0
 40
0
 40
1
 40
1
 40
1
 40
1
 10
266.774544
 20
395.958236
 30
0
 10
266.390824
 20
395.574468
 30
0
 10
265.957264
 20
395.240524
 30
0
 10
265.484392
 20
394.966932
 30
0
  0
SPLINE
  5
6A
100
AcDbEntity
  8
Layer_1
  6
ByLayer
 62
    7
370
   -1
100
AcDbSpline
210
0
220
0
230
0
 70
    8
 71
    3
 72
    8
 73
    4
 74
    0
 42
1e-007
 43
1e-007
 40
0
 40
0
 40
0
 40
0
 40
1
 40
1
 40
1
 40
1
 10
265.484392
 20
394.966932
 30
0
 10
265.018056
 20
394.697124
 30
0
 10
264.513488
 20
394.486012
 30
0
 10
263.980784
 20
394.343724
 30
0
  0
SPLINE
  5
6B
100
AcDbEntity
  8
Layer_1
  6
ByLayer
 62
    7
370
   -1
100
AcDbSpline
210
0
220
0
230
0
 70
    8
 71
    3
 72
    8
 73
    4
 74
    0
 42
1e-007
 43
1e-007
 40
0
 40
0
 40
0
 40
0
 40
1
 40
1
 40
1
 40
1
 10
263.980784
 20
394.343724
 30
0
 10
263.466488
 20
394.206348
 30
0
 10
262.92596
 20
394.133108
 30
0
 10
262.368296
 20
394.133108
 30
0
  0
SPLINE
  5
6C
100
AcDbEntity
  8
Layer_1
  6
ByLayer
 62
    7
370
   -1
100
AcDbSpline
210
0
220
0
230
0
 70
    8
 71
    3
 72
    8
 73
    4
 74
    0
 42
1e-007
 43
1e-007
 40
0
 40
0
 40
0
 40
0
 40
1
 40
1
 40
1
 40
1
 10
262.368296
 20
394.133108
 30
0
 10
261.81048
 20
394.133108
 30
0
 10
261.269792
 20
394.206468
 30
0
 10
260.755344
 20
394.343956
 30
0
  0
SPLINE
  5
6D
100
AcDbEntity
  8
Layer_1
  6
ByLayer
 62
    7
370
   -1
100
AcDbSpline
210
0
220
0
230
0
 70
    8
 71
    3
 72
    8
 73
    4
 74
    0
 42
1e-007
 43
1e-007
 40
0
 40
0
 40
0
 40
0
 40
1
 40
1
 40
1
 40
1
 10
260.755344
 20
394.343956
 30
0
 10
260.222872
 20
394.4863
 30
0
 10
259.718504
 20
394.697436
 30
0
 10
259.252344
 20
394.967252
 30
0
  0
SPLINE
  5
6E
100
AcDbEntity
  8
Layer_1
  6
ByLayer
 62
    7
370
   -1
100
AcDbSpline
210
0
220
0
230
0
 70
    8
 71
    3
 72
    8
 73
    4
 74
    0
 42
1e-007
 43
1e-007
 40
0
 40
0
 40
0
 40
0
 40
1
 40
1
 40
1
 40
1
 10
259.252344
 20
394.967252
 30
0
 10
258.779768
 20
395.24078
 30
0
 10
258.346456
 20
395.57462
 30
0
 10
257.96292
 20
395.958236
 30
0
  0
SPLINE
  5
6F
100
AcDbEntity
  8
Layer_1
  6
ByLayer
 62
    7
370
   -1
100
AcDbSpline
210
0
220
0
230
0
 70
    8
 71
    3
 72
    8
 73
    4
 74
    0
 42
1e-007
 43
1e-007
 40
0
 40
0
 40
0
 40
0
 40
1
 40
1
 40
1
 40
1
 10
257.96292
 20
395.958236
 30
0
 10
257.57924
 20
396.342004
 30
0
 10
257.245376
 20
396.775596
 30
0
 10
256.971864
 20
397.248468
 30
0
  0
SPLINE
  5
70
100
AcDbEntity
  8
Layer_1
  6
ByLayer
 62
    7
370
   -1
100
AcDbSpline
210
0
220
0
230
0
 70
    8
 71
    3
 72
    8
 73
    4
 74
    0
 42
1e-007
 43
1e-007
 40
0
 40
0
 40
0
 40
0
 40
1
 40
1
 40
1
 40
1
 10
256.971864
 20
397.248468
 30
0
 10
256.702384
 20
397.714356
 30
0
 10
256.491496
 20
398.21838
 30
0
 10
256.349248
 20
398.750452
 30
0
  0
SPLINE
  5
71
100
AcDbEntity
  8
Layer_1
  6
ByLayer
 62
    7
370
   -1
100
AcDbSpline
210
0
220
0
230
0
 70
    8
 71
    3
 72
    8
 73
    4
 74
    0
 42
1e-007
 43
1e-007
 40
0
 40
0
 40
0
 40
0
 40
1
 40
1
 40
1
 40
1
 10
256.349248
 20
398.750452
 30
0
 10
256.211656
 20
399.26514
 30
0
 10
256.138296
 20
399.806084
 30
0
 10
256.138296
 20
400.364148
 30
0
  0
SPLINE
  5
72
100
AcDbEntity
  8
Layer_1
  6
ByLayer
 62
    7
370
   -1
100
AcDbSpline
210
0
220
0
230
0
 70
    8
 71
    3
 72
    8
 73
    4
 74
    0
 42
1e-007
 43
1e-007
 40
0
 40
0
 40
0
 40
0
 40
1
 40
1
 40
1
 40
1
 10
256.138296
 20
400.364148
 30
0
 10
256.138296
 20
400.921956
 30
0
 10
256.211576
 20
401.462668
 30
0
 10
256.349072
 20
401.977148
 30
0
  0
SPLINE
  5
73
100
AcDbEntity
  8
Layer_1
  6
ByLayer
 62
    7
370
   -1
100
AcDbSpline
210
0
220
0
230
0
 70
    8
 71
    3
 72
    8
 73
    4
 74
    0
 42
1e-007
 43
1e-007
 40
0
 40
0
 40
0
 40
0
 40
1
 40
1
 40
1
 40
1
 10
256.349072
 20
401.977148
 30
0
 10
256.491376
 20
402.509668
 30
0
 10
256.70244
 20
403.014092
 30
0
 10
256.972184
 20
403.480324
 30
0
  0
SPLINE
  5
74
100
AcDbEntity
  8
Layer_1
  6
ByLayer
 62
    7
370
   -1
100
AcDbSpline
210
0
220
0
230
0
 70
    8
 71
    3
 72
    8
 73
    4
 74
    0
 42
1e-007
 43
1e-007
 40
0
 40
0
 40
0
 40
0
 40
1
 40
1
 40
1
 40
1
 10
256.972184
 20
403.480324
 30
0
 10
257.245632
 20
403.952972
 30
0
 10
257.579384
 20
404.386372
 30
0
 10
257.96292
 20
404.769988
 30
0
  0
SPLINE
  5
75
100
AcDbEntity
  8
Layer_1
  6
ByLayer
 62
    7
370
   -1
100
AcDbSpline
210
0
220
0
230
0
 70
    8
 71
    3
 72
    8
 73
    4
 74
    0
 42
1e-007
 43
1e-007
 40
0
 40
0
 40
0
 40
0
 40
1
 40
1
 40
1
 40
1
 10
257.96292
 20
404.769988
 30
0
 10
258.3466
 20
405.153756
 30
0
 10
258.780104
 20
405.4877
 30
0
 10
259.252896
 20
405.761284
 30
0
  0
SPLINE
  5
76
100
AcDbEntity
  8
Layer_1
  6
ByLayer
 62
    7
370
   -1
100
AcDbSpline
210
0
220
0
230
0
 70
    8
 71
    3
 72
    8
 73
    4
 74
    0
 42
1e-007
 43
1e-007
 40
0
 40
0
 40
0
 40
0
 40
1
 40
1
 40
1
 40
1
 10
259.252896
 20
405.761284
 30
0
 10
259.718712
 20
406.030836
 30
0
 10
260.222664
 20
406.241796
 30
0
 10
260.75468
 20
406.384084
 30
0
  0
SPLINE
  5
77
100
AcDbEntity
  8
Layer_1
  6
ByLayer
 62
    7
370
   -1
100
AcDbSpline
210
0
220
0
230
0
 70
    8
 71
    3
 72
    8
 73
    4
 74
    0
 42
1e-007
 43
1e-007
 40
0
 40
0
 40
0
 40
0
 40
1
 40
1
 40
1
 40
1
 10
260.75468
 20
406.384084
 30
0
 10
261.269328
 20
406.521724
 30
0
 10
261.81024
 20
406.595108
 30
0
 10
262.368296
 20
406.595108
 30
0
  0
SPLINE
  5
78
100
AcDbEntity
  8
Layer_1
  6
ByLayer
 62
    7
370
   -1
100
AcDbSpline
210
0
220
0
230
0
 70
    8
 71
    3
 72
    8
 73
    4
 74
    0
 42
1e-007
 43
1e-007
 40
0
 40
0
 40
0
 40
0
 40
1
 40
1
 40
1
 40
1
 10
271.390296
 20
410.823292
 30
0
 10
271.390296
 20
410.823292
 30
0
 10
270.70872
 20
410.826492
 30
0
 10
269.55312
 20
410.832252
 30
0
  0
SPLINE
  5
79
100
AcDbEntity
  8
Layer_1
  6
ByLayer
 62
    7
370
   -1
100
AcDbSpline
210
0
220
0
230
0
 70
    8
 71
    3
 72
    8
 73
    4
 74
    0
 42
1e-007
 43
1e-007
 40
0
 40
0
 40
0
 40
0
 40
1
 40
1
 40
1
 40
1
 10
269.55312
 20
410.832252
 30
0
 10
269.031192
 20
410.834652
 30
0
 10
268.41256
 20
410.837852
 30
0
 10
267.716352
 20
410.841212
 30
0
  0
SPLINE
  5
7A
100
AcDbEntity
  8
Layer_1
  6
ByLayer
 62
    7
370
   -1
100
AcDbSpline
210
0
220
0
230
0
 70
    8
 71
    3
 72
    8
 73
    4
 74
    0
 42
1e-007
 43
1e-007
 40
0
 40
0
 40
0
 40
0
 40
1
 40
1
 40
1
 40
1
 10
267.716352
 20
410.841212
 30
0
 10
267.151464
 20
410.843612
 30
0
 10
266.535512
 20
410.846812
 30
0
 10
265.878704
 20
410.850172
 30
0
  0
SPLINE
  5
7B
100
AcDbEntity
  8
Layer_1
  6
ByLayer
 62
    7
370
   -1
100
AcDbSpline
210
0
220
0
230
0
 70
    8
 71
    3
 72
    8
 73
    4
 74
    0
 42
1e-007
 43
1e-007
 40
0
 40
0
 40
0
 40
0
 40
1
 40
1
 40
1
 40
1
 10
265.878704
 20
410.850172
 30
0
 10
265.295744
 20
410.853372
 30
0
 10
264.680608
 20
410.855772
 30
0
 10
264.040424
 20
410.859132
 30
0
  0
SPLINE
  5
7C
100
AcDbEntity
  8
Layer_1
  6
ByLayer
 62
    7
370
   -1
100
AcDbSpline
210
0
220
0
230
0
 70
    8
 71
    3
 72
    8
 73
    4
 74
    0
 42
1e-007
 43
1e-007
 40
0
 40
0
 40
0
 40
0
 40
1
 40
1
 40
1
 40
1
 10
264.040424
 20
410.859132
 30
0
 10
263.44752
 20
410.862332
 30
0
 10
262.833136
 20
410.864732
 30
0
 10
262.202952
 20
410.868092
 30
0
  0
SPLINE
  5
7D
100
AcDbEntity
  8
Layer_1
  6
ByLayer
 62
    7
370
   -1
100
AcDbSpline
210
0
220
0
230
0
 70
    8
 71
    3
 72
    8
 73
    4
 74
    0
 42
1e-007
 43
1e-007
 40
0
 40
0
 40
0
 40
0
 40
1
 40
1
 40
1
 40
1
 10
262.202952
 20
410.868092
 30
0
 10
261.603376
 20
410.871292
 30
0
 10
260.989488
 20
410.873692
 30
0
 10
260.366184
 20
410.877052
 30
0
  0
SPLINE
  5
7E
100
AcDbEntity
  8
Layer_1
  6
ByLayer
 62
    7
370
   -1
100
AcDbSpline
210
0
220
0
230
0
 70
    8
 71
    3
 72
    8
 73
    4
 74
    0
 42
1e-007
 43
1e-007
 40
0
 40
0
 40
0
 40
0
 40
1
 40
1
 40
1
 40
1
 10
260.366184
 20
410.877052
 30
0
 10
259.761272
 20
410.880252
 30
0
 10
259.147488
 20
410.882652
 30
0
 10
258.529296
 20
410.886012
 30
0
  0
SPLINE
  5
7F
100
AcDbEntity
  8
Layer_1
  6
ByLayer
 62
    7
370
   -1
100
AcDbSpline
210
0
220
0
230
0
 70
    8
 71
    3
 72
    8
 73
    4
 74
    0
 42
1e-007
 43
1e-007
 40
0
 40
0
 40
0
 40
0
 40
1
 40
1
 40
1
 40
1
 10
258.529296
 20
410.886012
 30
0
 10
257.919496
 20
410.889212
 30
0
 10
257.305416
 20
410.891612
 30
0
 10
256.691328
 20
410.894972
 30
0
  0
SPLINE
  5
80
100
AcDbEntity
  8
Layer_1
  6
ByLayer
 62
    7
370
   -1
100
AcDbSpline
210
0
220
0
230
0
 70
    8
 71
    3
 72
    8
 73
    4
 74
    0
 42
1e-007
 43
1e-007
 40
0
 40
0
 40
0
 40
0
 40
1
 40
1
 40
1
 40
1
 10
256.691328
 20
410.894972
 30
0
 10
256.077488
 20
410.898172
 30
0
 10
255.463656
 20
410.900572
 30
0
 10
254.854096
 20
410.903932
 30
0
  0
SPLINE
  5
81
100
AcDbEntity
  8
Layer_1
  6
ByLayer
 62
    7
370
   -1
100
AcDbSpline
210
0
220
0
230
0
 70
    8
 71
    3
 72
    8
 73
    4
 74
    0
 42
1e-007
 43
1e-007
 40
0
 40
0
 40
0
 40
0
 40
1
 40
1
 40
1
 40
1
 10
254.854096
 20
410.903932
 30
0
 10
254.235552
 20
410.907132
 30
0
 10
253.621408
 20
410.909532
 30
0
 10
253.016152
 20
410.912892
 30
0
  0
SPLINE
  5
82
100
AcDbEntity
  8
Layer_1
  6
ByLayer
 62
    7
370
   -1
100
AcDbSpline
210
0
220
0
230
0
 70
    8
 71
    3
 72
    8
 73
    4
 74
    0
 42
1e-007
 43
1e-007
 40
0
 40
0
 40
0
 40
0
 40
1
 40
1
 40
1
 40
1
 10
253.016152
 20
410.912892
 30
0
 10
252.392472
 20
410.916092
 30
0
 10
251.778216
 20
410.919292
 30
0
 10
251.178288
 20
410.921852
 30
0
  0
SPLINE
  5
83
100
AcDbEntity
  8
Layer_1
  6
ByLayer
 62
    7
370
   -1
100
AcDbSpline
210
0
220
0
230
0
 70
    8
 71
    3
 72
    8
 73
    4
 74
    0
 42
1e-007
 43
1e-007
 40
0
 40
0
 40
0
 40
0
 40
1
 40
1
 40
1
 40
1
 10
251.178288
 20
410.921852
 30
0
 10
250.548328
 20
410.925052
 30
0
 10
249.934168
 20
410.928252
 30
0
 10
249.341472
 20
410.930732
 30
0
  0
SPLINE
  5
84
100
AcDbEntity
  8
Layer_1
  6
ByLayer
 62
    7
370
   -1
100
AcDbSpline
210
0
220
0
230
0
 70
    8
 71
    3
 72
    8
 73
    4
 74
    0
 42
1e-007
 43
1e-007
 40
0
 40
0
 40
0
 40
0
 40
1
 40
1
 40
1
 40
1
 10
249.341472
 20
410.930732
 30
0
 10
248.701856
 20
410.933932
 30
0
 10
248.087232
 20
410.937132
 30
0
 10
247.504728
 20
410.939692
 30
0
  0
SPLINE
  5
85
100
AcDbEntity
  8
Layer_1
  6
ByLayer
 62
    7
370
   -1
100
AcDbSpline
210
0
220
0
230
0
 70
    8
 71
    3
 72
    8
 73
    4
 74
    0
 42
1e-007
 43
1e-007
 40
0
 40
0
 40
0
 40
0
 40
1
 40
1
 40
1
 40
1
 10
247.504728
 20
410.939692
 30
0
 10
246.847792
 20
410.942892
 30
0
 10
246.231712
 20
410.946092
 30
0
 10
245.666704
 20
410.948652
 30
0
  0
SPLINE
  5
86
100
AcDbEntity
  8
Layer_1
  6
ByLayer
 62
    7
370
   -1
100
AcDbSpline
210
0
220
0
230
0
 70
    8
 71
    3
 72
    8
 73
    4
 74
    0
 42
1e-007
 43
1e-007
 40
0
 40
0
 40
0
 40
0
 40
1
 40
1
 40
1
 40
1
 10
245.666704
 20
410.948652
 30
0
 10
244.970456
 20
410.951852
 30
0
 10
244.351752
 20
410.955052
 30
0
 10
243.829712
 20
410.957532
 30
0
  0
SPLINE
  5
87
100
AcDbEntity
  8
Layer_1
  6
ByLayer
 62
    7
370
   -1
100
AcDbSpline
210
0
220
0
230
0
 70
    8
 71
    3
 72
    8
 73
    4
 74
    0
 42
1e-007
 43
1e-007
 40
0
 40
0
 40
0
 40
0
 40
1
 40
1
 40
1
 40
1
 10
243.829712
 20
410.957532
 30
0
 10
242.67336
 20
410.963132
 30
0
 10
241.991296
 20
410.966492
 30
0
 10
241.991296
 20
410.966492
 30
0
  0
SPLINE
  5
88
100
AcDbEntity
  8
Layer_1
  6
ByLayer
 62
    7
370
   -1
100
AcDbSpline
210
0
220
0
230
0
 70
    8
 71
    3
 72
    8
 73
    4
 74
    0
 42
1e-007
 43
1e-007
 40
0
 40
0
 40
0
 40
0
 40
1
 40
1
 40
1
 40
1
 10
241.991296
 20
410.966492
 30
0
 10
241.991296
 20
410.966492
 30
0
 10
241.991296
 20
409.955052
 30
0
 10
241.991296
 20
408.59222
 30
0
  0
SPLINE
  5
89
100
AcDbEntity
  8
Layer_1
  6
ByLayer
 62
    7
370
   -1
100
AcDbSpline
210
0
220
0
230
0
 70
    8
 71
    3
 72
    8
 73
    4
 74
    0
 42
1e-007
 43
1e-007
 40
0
 40
0
 40
0
 40
0
 40
1
 40
1
 40
1
 40
1
 10
241.991296
 20
408.59222
 30
0
 10
241.991296
 20
407.8667
 30
0
 10
241.991296
 20
407.041596
 30
0
 10
241.991296
 20
406.216492
 30
0
  0
SPLINE
  5
8A
100
AcDbEntity
  8
Layer_1
  6
ByLayer
 62
    7
370
   -1
100
AcDbSpline
210
0
220
0
230
0
 70
    8
 71
    3
 72
    8
 73
    4
 74
    0
 42
1e-007
 43
1e-007
 40
0
 40
0
 40
0
 40
0
 40
1
 40
1
 40
1
 40
1
 10
241.991296
 20
406.216492
 30
0
 10
241.991296
 20
405.391388
 30
0
 10
241.991296
 20
404.566284
 30
0
 10
241.991296
 20
403.840764
 30
0
  0
SPLINE
  5
8B
100
AcDbEntity
  8
Layer_1
  6
ByLayer
 62
    7
370
   -1
100
AcDbSpline
210
0
220
0
230
0
 70
    8
 71
    3
 72
    8
 73
    4
 74
    0
 42
1e-007
 43
1e-007
 40
0
 40
0
 40
0
 40
0
 40
1
 40
1
 40
1
 40
1
 10
241.991296
 20
403.840764
 30
0
 10
241.991296
 20
402.477932
 30
0
 10
241.991296
 20
401.466492
 30
0
 10
241.991296
 20
401.466492
 30
0
  0
SPLINE
  5
8C
100
AcDbEntity
  8
Layer_1
  6
ByLayer
 62
    7
370
   -1
100
AcDbSpline
210
0
220
0
230
0
 70
    8
 71
    3
 72
    8
 73
    4
 74
    0
 42
1e-007
 43
1e-007
 40
0
 40
0
 40
0
 40
0
 40
1
 40
1
 40
1
 40
1
 10
241.991296
 20
401.466492
 30
0
 10
241.991296
 20
401.466492
 30
0
 10
242.48144
 20
400.976348
 30
0
 10
243.20768
 20
400.250108
 30
0
  0
SPLINE
  5
8D
100
AcDbEntity
  8
Layer_1
  6
ByLayer
 62
    7
370
   -1
100
AcDbSpline
210
0
220
0
230
0
 70
    8
 71
    3
 72
    8
 73
    4
 74
    0
 42
1e-007
 43
1e-007
 40
0
 40
0
 40
0
 40
0
 40
1
 40
1
 40
1
 40
1
 10
243.20768
 20
400.250108
 30
0
 10
243.565912
 20
399.891876
 30
0
 10
243.981576
 20
399.476212
 30
0
 10
244.424208
 20
399.03358
 30
0
  0
SPLINE
  5
8E
100
AcDbEntity
  8
Layer_1
  6
ByLayer
 62
    7
370
   -1
100
AcDbSpline
210
0
220
0
230
0
 70
    8
 71
    3
 72
    8
 73
    4
 74
    0
 42
1e-007
 43
1e-007
 40
0
 40
0
 40
0
 40
0
 40
1
 40
1
 40
1
 40
1
 10
244.424208
 20
399.03358
 30
0
 10
244.81552
 20
398.642268
 30
0
 10
245.227912
 20
398.229876
 30
0
 10
245.640296
 20
397.817492
 30
0
  0
SPLINE
  5
8F
100
AcDbEntity
  8
Layer_1
  6
ByLayer
 62
    7
370
   -1
100
AcDbSpline
210
0
220
0
230
0
 70
    8
 71
    3
 72
    8
 73
    4
 74
    0
 42
1e-007
 43
1e-007
 40
0
 40
0
 40
0
 40
0
 40
1
 40
1
 40
1
 40
1
 10
245.640296
 20
397.817492
 30
0
 10
246.052768
 20
397.40502
 30
0
 10
246.46524
 20
396.992548
 30
0
 10
246.856632
 20
396.601156
 30
0
  0
SPLINE
  5
90
100
AcDbEntity
  8
Layer_1
  6
ByLayer
 62
    7
370
   -1
100
AcDbSpline
210
0
220
0
230
0
 70
    8
 71
    3
 72
    8
 73
    4
 74
    0
 42
1e-007
 43
1e-007
 40
0
 40
0
 40
0
 40
0
 40
1
 40
1
 40
1
 40
1
 10
246.856632
 20
396.601156
 30
0
 10
247.299216
 20
396.158572
 30
0
 10
247.714848
 20
395.74294
 30
0
 10
248.073032
 20
395.384756
 30
0
  0
SPLINE
  5
91
100
AcDbEntity
  8
Layer_1
  6
ByLayer
 62
    7
370
   -1
100
AcDbSpline
210
0
220
0
230
0
 70
    8
 71
    3
 72
    8
 73
    4
 74
    0
 42
1e-007
 43
1e-007
 40
0
 40
0
 40
0
 40
0
 40
1
 40
1
 40
1
 40
1
 10
248.073032
 20
395.384756
 30
0
 10
248.799208
 20
394.65858
 30
0
 10
249.289296
 20
394.168492
 30
0
 10
249.289296
 20
394.168492
 30
0
  0
SPLINE
  5
92
100
AcDbEntity
  8
Layer_1
  6
ByLayer
 62
    7
370
   -1
100
AcDbSpline
210
0
220
0
230
0
 70
    8
 71
    3
 72
    8
 73
    4
 74
    0
 42
1e-007
 43
1e-007
 40
0
 40
0
 40
0
 40
0
 40
1
 40
1
 40
1
 40
1
 10
249.289296
 20
394.168492
 30
0
 10
249.289296
 20
394.168492
 30
0
 10
250.056864
 20
394.168492
 30
0
 10
250.99796
 20
394.168492
 30
0
  0
SPLINE
  5
93
100
AcDbEntity
  8
Layer_1
  6
ByLayer
 62
    7
370
   -1
100
AcDbSpline
210
0
220
0
230
0
 70
    8
 71
    3
 72
    8
 73
    4
 74
    0
 42
1e-007
 43
1e-007
 40
0
 40
0
 40
0
 40
0
 40
1
 40
1
 40
1
 40
1
 10
250.99796
 20
394.168492
 30
0
 10
251.547592
 20
394.168492
 30
0
 10
252.156408
 20
394.168492
 30
0
 10
252.706072
 20
394.168492
 30
0
  0
SPLINE
  5
94
100
AcDbEntity
  8
Layer_1
  6
ByLayer
 62
    7
370
   -1
100
AcDbSpline
210
0
220
0
230
0
 70
    8
 71
    3
 72
    8
 73
    4
 74
    0
 42
1e-007
 43
1e-007
 40
0
 40
0
 40
0
 40
0
 40
1
 40
1
 40
1
 40
1
 10
252.706072
 20
394.168492
 30
0
 10
253.647424
 20
394.168492
 30
0
 10
254.415296
 20
394.168492
 30
0
 10
254.415296
 20
394.168492
 30
0
  0
SPLINE
  5
95
100
AcDbEntity
  8
Layer_1
  6
ByLayer
 62
    7
370
   -1
100
AcDbSpline
210
0
220
0
230
0
 70
    8
 71
    3
 72
    8
 73
    4
 74
    0
 42
1e-007
 43
1e-007
 40
0
 40
0
 40
0
 40
0
 40
1
 40
1
 40
1
 40
1
 10
254.415296
 20
394.168492
 30
0
 10
254.415296
 20
394.168492
 30
0
 10
254.415296
 20
393.265556
 30
0
 10
254.415296
 20
392.158492
 30
0
  0
SPLINE
  5
96
100
AcDbEntity
  8
Layer_1
  6
ByLayer
 62
    7
370
   -1
100
AcDbSpline
210
0
220
0
230
0
 70
    8
 71
    3
 72
    8
 73
    4
 74
    0
 42
1e-007
 43
1e-007
 40
0
 40
0
 40
0
 40
0
 40
1
 40
1
 40
1
 40
1
 10
254.415296
 20
392.158492
 30
0
 10
254.415296
 20
391.51194
 30
0
 10
254.415296
 20
390.795756
 30
0
 10
254.415296
 20
390.149148
 30
0
  0
SPLINE
  5
97
100
AcDbEntity
  8
Layer_1
  6
ByLayer
 62
    7
370
   -1
100
AcDbSpline
210
0
220
0
230
0
 70
    8
 71
    3
 72
    8
 73
    4
 74
    0
 42
1e-007
 43
1e-007
 40
0
 40
0
 40
0
 40
0
 40
1
 40
1
 40
1
 40
1
 10
254.415296
 20
390.149148
 30
0
 10
254.415296
 20
389.04178
 30
0
 10
254.415296
 20
388.138492
 30
0
 10
254.415296
 20
388.138492
 30
0
  0
SPLINE
  5
98
100
AcDbEntity
  8
Layer_1
  6
ByLayer
 62
    7
370
   -1
100
AcDbSpline
210
0
220
0
230
0
 70
    8
 71
    3
 72
    8
 73
    4
 74
    0
 42
1e-007
 43
1e-007
 40
0
 40
0
 40
0
 40
0
 40
1
 40
1
 40
1
 40
1
 10
254.415296
 20
388.138492
 30
0
 10
254.415296
 20
387.342228
 30
0
 10
254.517448
 20
386.575676
 30
0
 10
254.709496
 20
385.849908
 30
0
  0
SPLINE
  5
99
100
AcDbEntity
  8
Layer_1
  6
ByLayer
 62
    7
370
   -1
100
AcDbSpline
210
0
220
0
230
0
 70
    8
 71
    3
 72
    8
 73
    4
 74
    0
 42
1e-007
 43
1e-007
 40
0
 40
0
 40
0
 40
0
 40
1
 40
1
 40
1
 40
1
 10
254.709496
 20
385.849908
 30
0
 10
254.91036
 20
385.090812
 30
0
 10
255.209568
 20
384.376324
 30
0
 10
255.59308
 20
383.719108
 30
0
  0
SPLINE
  5
9A
100
AcDbEntity
  8
Layer_1
  6
ByLayer
 62
    7
370
   -1
100
AcDbSpline
210
0
220
0
230
0
 70
    8
 71
    3
 72
    8
 73
    4
 74
    0
 42
1e-007
 43
1e-007
 40
0
 40
0
 40
0
 40
0
 40
1
 40
1
 40
1
 40
1
 10
255.59308
 20
383.719108
 30
0
 10
255.98416
 20
383.048932
 30
0
 10
256.462904
 20
382.438308
 30
0
 10
257.014448
 20
381.900652
 30
0
  0
SPLINE
  5
9B
100
AcDbEntity
  8
Layer_1
  6
ByLayer
 62
    7
370
   -1
100
AcDbSpline
210
0
220
0
230
0
 70
    8
 71
    3
 72
    8
 73
    4
 74
    0
 42
1e-007
 43
1e-007
 40
0
 40
0
 40
0
 40
0
 40
1
 40
1
 40
1
 40
1
 10
257.014448
 20
381.900652
 30
0
 10
257.5644
 20
381.364548
 30
0
 10
258.186728
 20
380.900996
 30
0
 10
258.866688
 20
380.5233
 30
0
  0
SPLINE
  5
9C
100
AcDbEntity
  8
Layer_1
  6
ByLayer
 62
    7
370
   -1
100
AcDbSpline
210
0
220
0
230
0
 70
    8
 71
    3
 72
    8
 73
    4
 74
    0
 42
1e-007
 43
1e-007
 40
0
 40
0
 40
0
 40
0
 40
1
 40
1
 40
1
 40
1
 10
258.866688
 20
380.5233
 30
0
 10
259.531528
 20
380.154004
 30
0
 10
260.251456
 20
379.866788
 30
0
 10
261.012696
 20
379.674092
 30
0
  0
SPLINE
  5
9D
100
AcDbEntity
  8
Layer_1
  6
ByLayer
 62
    7
370
   -1
100
AcDbSpline
210
0
220
0
230
0
 70
    8
 71
    3
 72
    8
 73
    4
 74
    0
 42
1e-007
 43
1e-007
 40
0
 40
0
 40
0
 40
0
 40
1
 40
1
 40
1
 40
1
 10
261.012696
 20
379.674092
 30
0
 10
261.742632
 20
379.489324
 30
0
 10
262.510544
 20
379.391452
 30
0
 10
263.304296
 20
379.391452
 30
0
  0
SPLINE
  5
9E
100
AcDbEntity
  8
Layer_1
  6
ByLayer
 62
    7
370
   -1
100
AcDbSpline
210
0
220
0
230
0
 70
    8
 71
    3
 72
    8
 73
    4
 74
    0
 42
1e-007
 43
1e-007
 40
0
 40
0
 40
0
 40
0
 40
1
 40
1
 40
1
 40
1
 10
263.304296
 20
379.391452
 30
0
 10
263.304296
 20
379.391452
 30
0
 10
264.008752
 20
379.392132
 30
0
 10
265.244368
 20
379.393052
 30
0
  0
SPLINE
  5
9F
100
AcDbEntity
  8
Layer_1
  6
ByLayer
 62
    7
370
   -1
100
AcDbSpline
210
0
220
0
230
0
 70
    8
 71
    3
 72
    8
 73
    4
 74
    0
 42
1e-007
 43
1e-007
 40
0
 40
0
 40
0
 40
0
 40
1
 40
1
 40
1
 40
1
 10
265.244368
 20
379.393052
 30
0
 10
265.792024
 20
379.39358
 30
0
 10
266.44404
 20
379.393852
 30
0
 10
267.185312
 20
379.394652
 30
0
  0
SPLINE
  5
A0
100
AcDbEntity
  8
Layer_1
  6
ByLayer
 62
    7
370
   -1
100
AcDbSpline
210
0
220
0
230
0
 70
    8
 71
    3
 72
    8
 73
    4
 74
    0
 42
1e-007
 43
1e-007
 40
0
 40
0
 40
0
 40
0
 40
1
 40
1
 40
1
 40
1
 10
267.185312
 20
379.394652
 30
0
 10
267.77776
 20
379.39522
 30
0
 10
268.427224
 20
379.395452
 30
0
 10
269.126
 20
379.396252
 30
0
  0
SPLINE
  5
A1
100
AcDbEntity
  8
Layer_1
  6
ByLayer
 62
    7
370
   -1
100
AcDbSpline
210
0
220
0
230
0
 70
    8
 71
    3
 72
    8
 73
    4
 74
    0
 42
1e-007
 43
1e-007
 40
0
 40
0
 40
0
 40
0
 40
1
 40
1
 40
1
 40
1
 10
269.126
 20
379.396252
 30
0
 10
269.73656
 20
379.396844
 30
0
 10
270.38476
 20
379.397852
 30
0
 10
271.065464
 20
379.397852
 30
0
  0
SPLINE
  5
A2
100
AcDbEntity
  8
Layer_1
  6
ByLayer
 62
    7
370
   -1
100
AcDbSpline
210
0
220
0
230
0
 70
    8
 71
    3
 72
    8
 73
    4
 74
    0
 42
1e-007
 43
1e-007
 40
0
 40
0
 40
0
 40
0
 40
1
 40
1
 40
1
 40
1
 10
271.065464
 20
379.397852
 30
0
 10
271.686432
 20
379.398452
 30
0
 10
272.334448
 20
379.399452
 30
0
 10
273.005624
 20
379.399452
 30
0
  0
SPLINE
  5
A3
100
AcDbEntity
  8
Layer_1
  6
ByLayer
 62
    7
370
   -1
100
AcDbSpline
210
0
220
0
230
0
 70
    8
 71
    3
 72
    8
 73
    4
 74
    0
 42
1e-007
 43
1e-007
 40
0
 40
0
 40
0
 40
0
 40
1
 40
1
 40
1
 40
1
 10
273.005624
 20
379.399452
 30
0
 10
273.633192
 20
379.400052
 30
0
 10
274.281008
 20
379.401052
 30
0
 10
274.945872
 20
379.401052
 30
0
  0
SPLINE
  5
A4
100
AcDbEntity
  8
Layer_1
  6
ByLayer
 62
    7
370
   -1
100
AcDbSpline
210
0
220
0
230
0
 70
    8
 71
    3
 72
    8
 73
    4
 74
    0
 42
1e-007
 43
1e-007
 40
0
 40
0
 40
0
 40
0
 40
1
 40
1
 40
1
 40
1
 10
274.945872
 20
379.401052
 30
0
 10
275.577816
 20
379.40166
 30
0
 10
276.225168
 20
379.402652
 30
0
 10
276.885192
 20
379.402652
 30
0
  0
SPLINE
  5
A5
100
AcDbEntity
  8
Layer_1
  6
ByLayer
 62
    7
370
   -1
100
AcDbSpline
210
0
220
0
230
0
 70
    8
 71
    3
 72
    8
 73
    4
 74
    0
 42
1e-007
 43
1e-007
 40
0
 40
0
 40
0
 40
0
 40
1
 40
1
 40
1
 40
1
 10
276.885192
 20
379.402652
 30
0
 10
277.52116
 20
379.403268
 30
0
 10
278.168896
 20
379.404252
 30
0
 10
278.825936
 20
379.404252
 30
0
  0
SPLINE
  5
A6
100
AcDbEntity
  8
Layer_1
  6
ByLayer
 62
    7
370
   -1
100
AcDbSpline
210
0
220
0
230
0
 70
    8
 71
    3
 72
    8
 73
    4
 74
    0
 42
1e-007
 43
1e-007
 40
0
 40
0
 40
0
 40
0
 40
1
 40
1
 40
1
 40
1
 10
278.825936
 20
379.404252
 30
0
 10
279.464576
 20
379.40486
 30
0
 10
280.112016
 20
379.405852
 30
0
 10
280.766
 20
379.405852
 30
0
  0
SPLINE
  5
A7
100
AcDbEntity
  8
Layer_1
  6
ByLayer
 62
    7
370
   -1
100
AcDbSpline
210
0
220
0
230
0
 70
    8
 71
    3
 72
    8
 73
    4
 74
    0
 42
1e-007
 43
1e-007
 40
0
 40
0
 40
0
 40
0
 40
1
 40
1
 40
1
 40
1
 10
280.766
 20
379.405852
 30
0
 10
281.40724
 20
379.406468
 30
0
 10
282.054776
 20
379.407452
 30
0
 10
282.70648
 20
379.407452
 30
0
  0
SPLINE
  5
A8
100
AcDbEntity
  8
Layer_1
  6
ByLayer
 62
    7
370
   -1
100
AcDbSpline
210
0
220
0
230
0
 70
    8
 71
    3
 72
    8
 73
    4
 74
    0
 42
1e-007
 43
1e-007
 40
0
 40
0
 40
0
 40
0
 40
1
 40
1
 40
1
 40
1
 10
282.70648
 20
379.407452
 30
0
 10
283.34968
 20
379.408076
 30
0
 10
283.996944
 20
379.409052
 30
0
 10
284.646232
 20
379.409052
 30
0
  0
SPLINE
  5
A9
100
AcDbEntity
  8
Layer_1
  6
ByLayer
 62
    7
370
   -1
100
AcDbSpline
210
0
220
0
230
0
 70
    8
 71
    3
 72
    8
 73
    4
 74
    0
 42
1e-007
 43
1e-007
 40
0
 40
0
 40
0
 40
0
 40
1
 40
1
 40
1
 40
1
 10
284.646232
 20
379.409052
 30
0
 10
285.291728
 20
379.409668
 30
0
 10
285.939224
 20
379.410652
 30
0
 10
286.586728
 20
379.410652
 30
0
  0
SPLINE
  5
AA
100
AcDbEntity
  8
Layer_1
  6
ByLayer
 62
    7
370
   -1
100
AcDbSpline
210
0
220
0
230
0
 70
    8
 71
    3
 72
    8
 73
    4
 74
    0
 42
1e-007
 43
1e-007
 40
0
 40
0
 40
0
 40
0
 40
1
 40
1
 40
1
 40
1
 10
286.586728
 20
379.410652
 30
0
 10
287.234392
 20
379.411276
 30
0
 10
287.882056
 20
379.412252
 30
0
 10
288.52772
 20
379.412252
 30
0
  0
SPLINE
  5
AB
100
AcDbEntity
  8
Layer_1
  6
ByLayer
 62
    7
370
   -1
100
AcDbSpline
210
0
220
0
230
0
 70
    8
 71
    3
 72
    8
 73
    4
 74
    0
 42
1e-007
 43
1e-007
 40
0
 40
0
 40
0
 40
0
 40
1
 40
1
 40
1
 40
1
 10
288.52772
 20
379.412252
 30
0
 10
289.177232
 20
379.412884
 30
0
 10
289.824712
 20
379.413852
 30
0
 10
290.46812
 20
379.413852
 30
0
  0
SPLINE
  5
AC
100
AcDbEntity
  8
Layer_1
  6
ByLayer
 62
    7
370
   -1
100
AcDbSpline
210
0
220
0
230
0
 70
    8
 71
    3
 72
    8
 73
    4
 74
    0
 42
1e-007
 43
1e-007
 40
0
 40
0
 40
0
 40
0
 40
1
 40
1
 40
1
 40
1
 10
290.46812
 20
379.413852
 30
0
 10
291.119696
 20
379.414476
 30
0
 10
291.767096
 20
379.415452
 30
0
 10
292.408208
 20
379.415452
 30
0
  0
SPLINE
  5
AD
100
AcDbEntity
  8
Layer_1
  6
ByLayer
 62
    7
370
   -1
100
AcDbSpline
210
0
220
0
230
0
 70
    8
 71
    3
 72
    8
 73
    4
 74
    0
 42
1e-007
 43
1e-007
 40
0
 40
0
 40
0
 40
0
 40
1
 40
1
 40
1
 40
1
 10
292.408208
 20
379.415452
 30
0
 10
293.06196
 20
379.416084
 30
0
 10
293.709176
 20
379.417052
 30
0
 10
294.347592
 20
379.417052
 30
0
  0
SPLINE
  5
AE
100
AcDbEntity
  8
Layer_1
  6
ByLayer
 62
    7
370
   -1
100
AcDbSpline
210
0
220
0
230
0
 70
    8
 71
    3
 72
    8
 73
    4
 74
    0
 42
1e-007
 43
1e-007
 40
0
 40
0
 40
0
 40
0
 40
1
 40
1
 40
1
 40
1
 10
294.347592
 20
379.417052
 30
0
 10
295.004624
 20
379.417684
 30
0
 10
295.652352
 20
379.418652
 30
0
 10
296.288312
 20
379.418652
 30
0
  0
SPLINE
  5
AF
100
AcDbEntity
  8
Layer_1
  6
ByLayer
 62
    7
370
   -1
100
AcDbSpline
210
0
220
0
230
0
 70
    8
 71
    3
 72
    8
 73
    4
 74
    0
 42
1e-007
 43
1e-007
 40
0
 40
0
 40
0
 40
0
 40
1
 40
1
 40
1
 40
1
 10
296.288312
 20
379.418652
 30
0
 10
296.948872
 20
379.419284
 30
0
 10
297.596744
 20
379.420252
 30
0
 10
298.229176
 20
379.420252
 30
0
  0
SPLINE
  5
B0
100
AcDbEntity
  8
Layer_1
  6
ByLayer
 62
    7
370
   -1
100
AcDbSpline
210
0
220
0
230
0
 70
    8
 71
    3
 72
    8
 73
    4
 74
    0
 42
1e-007
 43
1e-007
 40
0
 40
0
 40
0
 40
0
 40
1
 40
1
 40
1
 40
1
 10
298.229176
 20
379.420252
 30
0
 10
298.894176
 20
379.420892
 30
0
 10
299.542112
 20
379.421852
 30
0
 10
300.1698
 20
379.421852
 30
0
  0
SPLINE
  5
B1
100
AcDbEntity
  8
Layer_1
  6
ByLayer
 62
    7
370
   -1
100
AcDbSpline
210
0
220
0
230
0
 70
    8
 71
    3
 72
    8
 73
    4
 74
    0
 42
1e-007
 43
1e-007
 40
0
 40
0
 40
0
 40
0
 40
1
 40
1
 40
1
 40
1
 10
300.1698
 20
379.421852
 30
0
 10
300.840592
 20
379.422492
 30
0
 10
301.488256
 20
379.423452
 30
0
 10
302.108896
 20
379.423452
 30
0
  0
SPLINE
  5
B2
100
AcDbEntity
  8
Layer_1
  6
ByLayer
 62
    7
370
   -1
100
AcDbSpline
210
0
220
0
230
0
 70
    8
 71
    3
 72
    8
 73
    4
 74
    0
 42
1e-007
 43
1e-007
 40
0
 40
0
 40
0
 40
0
 40
1
 40
1
 40
1
 40
1
 10
302.108896
 20
379.423452
 30
0
 10
302.789872
 20
379.424108
 30
0
 10
303.438312
 20
379.425052
 30
0
 10
304.049072
 20
379.425052
 30
0
  0
SPLINE
  5
B3
100
AcDbEntity
  8
Layer_1
  6
ByLayer
 62
    7
370
   -1
100
AcDbSpline
210
0
220
0
230
0
 70
    8
 71
    3
 72
    8
 73
    4
 74
    0
 42
1e-007
 43
1e-007
 40
0
 40
0
 40
0
 40
0
 40
1
 40
1
 40
1
 40
1
 10
304.049072
 20
379.425052
 30
0
 10
304.74748
 20
379.425724
 30
0
 10
305.396608
 20
379.426652
 30
0
 10
305.988768
 20
379.426652
 30
0
  0
SPLINE
  5
B4
100
AcDbEntity
  8
Layer_1
  6
ByLayer
 62
    7
370
   -1
100
AcDbSpline
210
0
220
0
230
0
 70
    8
 71
    3
 72
    8
 73
    4
 74
    0
 42
1e-007
 43
1e-007
 40
0
 40
0
 40
0
 40
0
 40
1
 40
1
 40
1
 40
1
 10
305.988768
 20
379.426652
 30
0
 10
306.73
 20
379.427364
 30
0
 10
307.38196
 20
379.428252
 30
0
 10
307.929576
 20
379.428252
 30
0
  0
SPLINE
  5
B5
100
AcDbEntity
  8
Layer_1
  6
ByLayer
 62
    7
370
   -1
100
AcDbSpline
210
0
220
0
230
0
 70
    8
 71
    3
 72
    8
 73
    4
 74
    0
 42
1e-007
 43
1e-007
 40
0
 40
0
 40
0
 40
0
 40
1
 40
1
 40
1
 40
1
 10
307.929576
 20
379.428252
 30
0
 10
309.164976
 20
379.429052
 30
0
 10
309.869296
 20
379.429852
 30
0
 10
309.869296
 20
379.429852
 30
0
  0
SPLINE
  5
B6
100
AcDbEntity
  8
Layer_1
  6
ByLayer
 62
    7
370
   -1
100
AcDbSpline
210
0
220
0
230
0
 70
    8
 71
    3
 72
    8
 73
    4
 74
    0
 42
1e-007
 43
1e-007
 40
0
 40
0
 40
0
 40
0
 40
1
 40
1
 40
1
 40
1
 10
245.984296
 20
430.956868
 30
0
 10
245.984296
 20
430.956868
 30
0
 10
245.984296
 20
430.099156
 30
0
 10
245.984296
 20
428.739308
 30
0
  0
SPLINE
  5
B7
100
AcDbEntity
  8
Layer_1
  6
ByLayer
 62
    7
370
   -1
100
AcDbSpline
210
0
220
0
230
0
 70
    8
 71
    3
 72
    8
 73
    4
 74
    0
 42
1e-007
 43
1e-007
 40
0
 40
0
 40
0
 40
0
 40
1
 40
1
 40
1
 40
1
 10
245.984296
 20
428.739308
 30
0
 10
245.984296
 20
428.098636
 30
0
 10
245.984296
 20
427.346516
 30
0
 10
245.984296
 20
426.520116
 30
0
  0
SPLINE
  5
B8
100
AcDbEntity
  8
Layer_1
  6
ByLayer
 62
    7
370
   -1
100
AcDbSpline
210
0
220
0
230
0
 70
    8
 71
    3
 72
    8
 73
    4
 74
    0
 42
1e-007
 43
1e-007
 40
0
 40
0
 40
0
 40
0
 40
1
 40
1
 40
1
 40
1
 10
245.984296
 20
426.520116
 30
0
 10
245.984296
 20
425.825884
 30
0
 10
245.984296
 20
425.079236
 30
0
 10
245.984296
 20
424.302212
 30
0
  0
SPLINE
  5
B9
100
AcDbEntity
  8
Layer_1
  6
ByLayer
 62
    7
370
   -1
100
AcDbSpline
210
0
220
0
230
0
 70
    8
 71
    3
 72
    8
 73
    4
 74
    0
 42
1e-007
 43
1e-007
 40
0
 40
0
 40
0
 40
0
 40
1
 40
1
 40
1
 40
1
 10
245.984296
 20
424.302212
 30
0
 10
245.984296
 20
423.58286
 30
0
 10
245.984296
 20
422.837476
 30
0
 10
245.984296
 20
422.083556
 30
0
  0
SPLINE
  5
BA
100
AcDbEntity
  8
Layer_1
  6
ByLayer
 62
    7
370
   -1
100
AcDbSpline
210
0
220
0
230
0
 70
    8
 71
    3
 72
    8
 73
    4
 74
    0
 42
1e-007
 43
1e-007
 40
0
 40
0
 40
0
 40
0
 40
1
 40
1
 40
1
 40
1
 10
245.984296
 20
422.083556
 30
0
 10
245.984296
 20
421.347132
 30
0
 10
245.984296
 20
420.602556
 30
0
 10
245.984296
 20
419.866132
 30
0
  0
SPLINE
  5
BB
100
AcDbEntity
  8
Layer_1
  6
ByLayer
 62
    7
370
   -1
100
AcDbSpline
210
0
220
0
230
0
 70
    8
 71
    3
 72
    8
 73
    4
 74
    0
 42
1e-007
 43
1e-007
 40
0
 40
0
 40
0
 40
0
 40
1
 40
1
 40
1
 40
1
 10
245.984296
 20
419.866132
 30
0
 10
245.984296
 20
419.112244
 30
0
 10
245.984296
 20
418.3669
 30
0
 10
245.984296
 20
417.64758
 30
0
  0
SPLINE
  5
BC
100
AcDbEntity
  8
Layer_1
  6
ByLayer
 62
    7
370
   -1
100
AcDbSpline
210
0
220
0
230
0
 70
    8
 71
    3
 72
    8
 73
    4
 74
    0
 42
1e-007
 43
1e-007
 40
0
 40
0
 40
0
 40
0
 40
1
 40
1
 40
1
 40
1
 10
245.984296
 20
417.64758
 30
0
 10
245.984296
 20
416.870412
 30
0
 10
245.984296
 20
416.123628
 30
0
 10
245.984296
 20
415.429284
 30
0
  0
SPLINE
  5
BD
100
AcDbEntity
  8
Layer_1
  6
ByLayer
 62
    7
370
   -1
100
AcDbSpline
210
0
220
0
230
0
 70
    8
 71
    3
 72
    8
 73
    4
 74
    0
 42
1e-007
 43
1e-007
 40
0
 40
0
 40
0
 40
0
 40
1
 40
1
 40
1
 40
1
 10
245.984296
 20
415.429284
 30
0
 10
245.984296
 20
414.603404
 30
0
 10
245.984296
 20
413.851724
 30
0
 10
245.984296
 20
413.21134
 30
0
  0
SPLINE
  5
BE
100
AcDbEntity
  8
Layer_1
  6
ByLayer
 62
    7
370
   -1
100
AcDbSpline
210
0
220
0
230
0
 70
    8
 71
    3
 72
    8
 73
    4
 74
    0
 42
1e-007
 43
1e-007
 40
0
 40
0
 40
0
 40
0
 40
1
 40
1
 40
1
 40
1
 10
245.984296
 20
413.21134
 30
0
 10
245.984296
 20
411.850956
 30
0
 10
245.984296
 20
410.992868
 30
0
 10
245.984296
 20
410.992868
 30
0
  0
SPLINE
  5
BF
100
AcDbEntity
  8
Layer_1
  6
ByLayer
 62
    7
370
   -1
100
AcDbSpline
210
0
220
0
230
0
 70
    8
 71
    3
 72
    8
 73
    4
 74
    0
 42
1e-007
 43
1e-007
 40
0
 40
0
 40
0
 40
0
 40
1
 40
1
 40
1
 40
1
 10
253.612296
 20
430.859908
 30
0
 10
253.612296
 20
430.859908
 30
0
 10
253.612296
 20
430.010492
 30
0
 10
253.612296
 20
428.66378
 30
0
  0
SPLINE
  5
C0
100
AcDbEntity
  8
Layer_1
  6
ByLayer
 62
    7
370
   -1
100
AcDbSpline
210
0
220
0
230
0
 70
    8
 71
    3
 72
    8
 73
    4
 74
    0
 42
1e-007
 43
1e-007
 40
0
 40
0
 40
0
 40
0
 40
1
 40
1
 40
1
 40
1
 10
253.612296
 20
428.66378
 30
0
 10
253.612296
 20
428.029308
 30
0
 10
253.612296
 20
427.284452
 30
0
 10
253.612296
 20
426.466044
 30
0
  0
SPLINE
  5
C1
100
AcDbEntity
  8
Layer_1
  6
ByLayer
 62
    7
370
   -1
100
AcDbSpline
210
0
220
0
230
0
 70
    8
 71
    3
 72
    8
 73
    4
 74
    0
 42
1e-007
 43
1e-007
 40
0
 40
0
 40
0
 40
0
 40
1
 40
1
 40
1
 40
1
 10
253.612296
 20
426.466044
 30
0
 10
253.612296
 20
425.778516
 30
0
 10
253.612296
 20
425.039084
 30
0
 10
253.612296
 20
424.269572
 30
0
  0
SPLINE
  5
C2
100
AcDbEntity
  8
Layer_1
  6
ByLayer
 62
    7
370
   -1
100
AcDbSpline
210
0
220
0
230
0
 70
    8
 71
    3
 72
    8
 73
    4
 74
    0
 42
1e-007
 43
1e-007
 40
0
 40
0
 40
0
 40
0
 40
1
 40
1
 40
1
 40
1
 10
253.612296
 20
424.269572
 30
0
 10
253.612296
 20
423.557172
 30
0
 10
253.612296
 20
422.818996
 30
0
 10
253.612296
 20
422.072356
 30
0
  0
SPLINE
  5
C3
100
AcDbEntity
  8
Layer_1
  6
ByLayer
 62
    7
370
   -1
100
AcDbSpline
210
0
220
0
230
0
 70
    8
 71
    3
 72
    8
 73
    4
 74
    0
 42
1e-007
 43
1e-007
 40
0
 40
0
 40
0
 40
0
 40
1
 40
1
 40
1
 40
1
 10
253.612296
 20
422.072356
 30
0
 10
253.612296
 20
421.343052
 30
0
 10
253.612296
 20
420.605676
 30
0
 10
253.612296
 20
419.876372
 30
0
  0
SPLINE
  5
C4
100
AcDbEntity
  8
Layer_1
  6
ByLayer
 62
    7
370
   -1
100
AcDbSpline
210
0
220
0
230
0
 70
    8
 71
    3
 72
    8
 73
    4
 74
    0
 42
1e-007
 43
1e-007
 40
0
 40
0
 40
0
 40
0
 40
1
 40
1
 40
1
 40
1
 10
253.612296
 20
419.876372
 30
0
 10
253.612296
 20
419.129764
 30
0
 10
253.612296
 20
418.39162
 30
0
 10
253.612296
 20
417.67926
 30
0
  0
SPLINE
  5
C5
100
AcDbEntity
  8
Layer_1
  6
ByLayer
 62
    7
370
   -1
100
AcDbSpline
210
0
220
0
230
0
 70
    8
 71
    3
 72
    8
 73
    4
 74
    0
 42
1e-007
 43
1e-007
 40
0
 40
0
 40
0
 40
0
 40
1
 40
1
 40
1
 40
1
 10
253.612296
 20
417.67926
 30
0
 10
253.612296
 20
416.909604
 30
0
 10
253.612296
 20
416.170036
 30
0
 10
253.612296
 20
415.482404
 30
0
  0
SPLINE
  5
C6
100
AcDbEntity
  8
Layer_1
  6
ByLayer
 62
    7
370
   -1
100
AcDbSpline
210
0
220
0
230
0
 70
    8
 71
    3
 72
    8
 73
    4
 74
    0
 42
1e-007
 43
1e-007
 40
0
 40
0
 40
0
 40
0
 40
1
 40
1
 40
1
 40
1
 10
253.612296
 20
415.482404
 30
0
 10
253.612296
 20
414.664508
 30
0
 10
253.612296
 20
413.920092
 30
0
 10
253.612296
 20
413.2859
 30
0
  0
SPLINE
  5
C7
100
AcDbEntity
  8
Layer_1
  6
ByLayer
 62
    7
370
   -1
100
AcDbSpline
210
0
220
0
230
0
 70
    8
 71
    3
 72
    8
 73
    4
 74
    0
 42
1e-007
 43
1e-007
 40
0
 40
0
 40
0
 40
0
 40
1
 40
1
 40
1
 40
1
 10
253.612296
 20
413.2859
 30
0
 10
253.612296
 20
411.938668
 30
0
 10
253.612296
 20
411.088868
 30
0
 10
253.612296
 20
411.088868
 30
0
  0
SPLINE
  5
C8
100
AcDbEntity
  8
Layer_1
  6
ByLayer
 62
    7
370
   -1
100
AcDbSpline
210
0
220
0
230
0
 70
    8
 71
    3
 72
    8
 73
    4
 74
    0
 42
1e-007
 43
1e-007
 40
0
 40
0
 40
0
 40
0
 40
1
 40
1
 40
1
 40
1
 10
262.506296
 20
437.526148
 30
0
 10
263.215768
 20
437.526148
 30
0
 10
263.880856
 20
437.715876
 30
0
 10
264.453648
 20
438.047364
 30
0
  0
SPLINE
  5
C9
100
AcDbEntity
  8
Layer_1
  6
ByLayer
 62
    7
370
   -1
100
AcDbSpline
210
0
220
0
230
0
 70
    8
 71
    3
 72
    8
 73
    4
 74
    0
 42
1e-007
 43
1e-007
 40
0
 40
0
 40
0
 40
0
 40
1
 40
1
 40
1
 40
1
 10
264.453648
 20
438.047364
 30
0
 10
265.044656
 20
438.389388
 30
0
 10
265.537408
 20
438.882316
 30
0
 10
265.879296
 20
439.47346
 30
0
  0
SPLINE
  5
CA
100
AcDbEntity
  8
Layer_1
  6
ByLayer
 62
    7
370
   -1
100
AcDbSpline
210
0
220
0
230
0
 70
    8
 71
    3
 72
    8
 73
    4
 74
    0
 42
1e-007
 43
1e-007
 40
0
 40
0
 40
0
 40
0
 40
1
 40
1
 40
1
 40
1
 10
265.879296
 20
439.47346
 30
0
 10
266.210656
 20
440.046412
 30
0
 10
266.400296
 20
440.71162
 30
0
 10
266.400296
 20
441.421108
 30
0
  0
SPLINE
  5
CB
100
AcDbEntity
  8
Layer_1
  6
ByLayer
 62
    7
370
   -1
100
AcDbSpline
210
0
220
0
230
0
 70
    8
 71
    3
 72
    8
 73
    4
 74
    0
 42
1e-007
 43
1e-007
 40
0
 40
0
 40
0
 40
0
 40
1
 40
1
 40
1
 40
1
 10
266.400296
 20
441.421108
 30
0
 10
266.400296
 20
442.130252
 30
0
 10
266.210672
 20
442.795228
 30
0
 10
265.879336
 20
443.36802
 30
0
  0
SPLINE
  5
CC
100
AcDbEntity
  8
Layer_1
  6
ByLayer
 62
    7
370
   -1
100
AcDbSpline
210
0
220
0
230
0
 70
    8
 71
    3
 72
    8
 73
    4
 74
    0
 42
1e-007
 43
1e-007
 40
0
 40
0
 40
0
 40
0
 40
1
 40
1
 40
1
 40
1
 10
265.879336
 20
443.36802
 30
0
 10
265.537464
 20
443.95902
 30
0
 10
265.04472
 20
444.451892
 30
0
 10
264.45372
 20
444.793884
 30
0
  0
SPLINE
  5
CD
100
AcDbEntity
  8
Layer_1
  6
ByLayer
 62
    7
370
   -1
100
AcDbSpline
210
0
220
0
230
0
 70
    8
 71
    3
 72
    8
 73
    4
 74
    0
 42
1e-007
 43
1e-007
 40
0
 40
0
 40
0
 40
0
 40
1
 40
1
 40
1
 40
1
 10
264.45372
 20
444.793884
 30
0
 10
263.880912
 20
445.125364
 30
0
 10
263.2158
 20
445.315108
 30
0
 10
262.506296
 20
445.315108
 30
0
  0
SPLINE
  5
CE
100
AcDbEntity
  8
Layer_1
  6
ByLayer
 62
    7
370
   -1
100
AcDbSpline
210
0
220
0
230
0
 70
    8
 71
    3
 72
    8
 73
    4
 74
    0
 42
1e-007
 43
1e-007
 40
0
 40
0
 40
0
 40
0
 40
1
 40
1
 40
1
 40
1
 10
262.506296
 20
445.315108
 30
0
 10
261.796824
 20
445.315108
 30
0
 10
261.131736
 20
445.12538
 30
0
 10
260.558944
 20
444.793924
 30
0
  0
SPLINE
  5
CF
100
AcDbEntity
  8
Layer_1
  6
ByLayer
 62
    7
370
   -1
100
AcDbSpline
210
0
220
0
230
0
 70
    8
 71
    3
 72
    8
 73
    4
 74
    0
 42
1e-007
 43
1e-007
 40
0
 40
0
 40
0
 40
0
 40
1
 40
1
 40
1
 40
1
 10
260.558944
 20
444.793924
 30
0
 10
259.967936
 20
444.45194
 30
0
 10
259.475184
 20
443.959084
 30
0
 10
259.133296
 20
443.368092
 30
0
  0
SPLINE
  5
D0
100
AcDbEntity
  8
Layer_1
  6
ByLayer
 62
    7
370
   -1
100
AcDbSpline
210
0
220
0
230
0
 70
    8
 71
    3
 72
    8
 73
    4
 74
    0
 42
1e-007
 43
1e-007
 40
0
 40
0
 40
0
 40
0
 40
1
 40
1
 40
1
 40
1
 10
259.133296
 20
443.368092
 30
0
 10
258.801936
 20
442.795276
 30
0
 10
258.612296
 20
442.130276
 30
0
 10
258.612296
 20
441.421108
 30
0
  0
SPLINE
  5
D1
100
AcDbEntity
  8
Layer_1
  6
ByLayer
 62
    7
370
   -1
100
AcDbSpline
210
0
220
0
230
0
 70
    8
 71
    3
 72
    8
 73
    4
 74
    0
 42
1e-007
 43
1e-007
 40
0
 40
0
 40
0
 40
0
 40
1
 40
1
 40
1
 40
1
 10
258.612296
 20
441.421108
 30
0
 10
258.612296
 20
440.711652
 30
0
 10
258.80192
 20
440.04646
 30
0
 10
259.133256
 20
439.473524
 30
0
  0
SPLINE
  5
D2
100
AcDbEntity
  8
Layer_1
  6
ByLayer
 62
    7
370
   -1
100
AcDbSpline
210
0
220
0
230
0
 70
    8
 71
    3
 72
    8
 73
    4
 74
    0
 42
1e-007
 43
1e-007
 40
0
 40
0
 40
0
 40
0
 40
1
 40
1
 40
1
 40
1
 10
259.133256
 20
439.473524
 30
0
 10
259.475128
 20
438.88238
 30
0
 10
259.967872
 20
438.389436
 30
0
 10
260.558872
 20
438.047404
 30
0
  0
SPLINE
  5
D3
100
AcDbEntity
  8
Layer_1
  6
ByLayer
 62
    7
370
   -1
100
AcDbSpline
210
0
220
0
230
0
 70
    8
 71
    3
 72
    8
 73
    4
 74
    0
 42
1e-007
 43
1e-007
 40
0
 40
0
 40
0
 40
0
 40
1
 40
1
 40
1
 40
1
 10
260.558872
 20
438.047404
 30
0
 10
261.13168
 20
437.715892
 30
0
 10
261.796792
 20
437.526148
 30
0
 10
262.506296
 20
437.526148
 30
0
  0
SPLINE
  5
D4
100
AcDbEntity
  8
Layer_1
  6
ByLayer
 62
    7
370
   -1
100
AcDbSpline
210
0
220
0
230
0
 70
    8
 71
    3
 72
    8
 73
    4
 74
    0
 42
1e-007
 43
1e-007
 40
0
 40
0
 40
0
 40
0
 40
1
 40
1
 40
1
 40
1
 10
262.368296
 20
435.190148
 30
0
 10
262.92628
 20
435.190148
 30
0
 10
263.467096
 20
435.263508
 30
0
 10
263.981656
 20
435.400996
 30
0
  0
SPLINE
  5
D5
100
AcDbEntity
  8
Layer_1
  6
ByLayer
 62
    7
370
   -1
100
AcDbSpline
210
0
220
0
230
0
 70
    8
 71
    3
 72
    8
 73
    4
 74
    0
 42
1e-007
 43
1e-007
 40
0
 40
0
 40
0
 40
0
 40
1
 40
1
 40
1
 40
1
 10
263.981656
 20
435.400996
 30
0
 10
264.514248
 20
435.54334
 30
0
 10
265.018704
 20
435.754476
 30
0
 10
265.484944
 20
436.024284
 30
0
  0
SPLINE
  5
D6
100
AcDbEntity
  8
Layer_1
  6
ByLayer
 62
    7
370
   -1
100
AcDbSpline
210
0
220
0
230
0
 70
    8
 71
    3
 72
    8
 73
    4
 74
    0
 42
1e-007
 43
1e-007
 40
0
 40
0
 40
0
 40
0
 40
1
 40
1
 40
1
 40
1
 10
265.484944
 20
436.024284
 30
0
 10
265.9576
 20
436.297812
 30
0
 10
266.390968
 20
436.631652
 30
0
 10
266.774544
 20
437.015268
 30
0
  0
SPLINE
  5
D7
100
AcDbEntity
  8
Layer_1
  6
ByLayer
 62
    7
370
   -1
100
AcDbSpline
210
0
220
0
230
0
 70
    8
 71
    3
 72
    8
 73
    4
 74
    0
 42
1e-007
 43
1e-007
 40
0
 40
0
 40
0
 40
0
 40
1
 40
1
 40
1
 40
1
 10
266.774544
 20
437.015268
 30
0
 10
267.158272
 20
437.399036
 30
0
 10
267.49216
 20
437.83262
 30
0
 10
267.765688
 20
438.305484
 30
0
  0
SPLINE
  5
D8
100
AcDbEntity
  8
Layer_1
  6
ByLayer
 62
    7
370
   -1
100
AcDbSpline
210
0
220
0
230
0
 70
    8
 71
    3
 72
    8
 73
    4
 74
    0
 42
1e-007
 43
1e-007
 40
0
 40
0
 40
0
 40
0
 40
1
 40
1
 40
1
 40
1
 10
267.765688
 20
438.305484
 30
0
 10
268.035184
 20
438.771364
 30
0
 10
268.246088
 20
439.27538
 30
0
 10
268.388336
 20
439.807444
 30
0
  0
SPLINE
  5
D9
100
AcDbEntity
  8
Layer_1
  6
ByLayer
 62
    7
370
   -1
100
AcDbSpline
210
0
220
0
230
0
 70
    8
 71
    3
 72
    8
 73
    4
 74
    0
 42
1e-007
 43
1e-007
 40
0
 40
0
 40
0
 40
0
 40
1
 40
1
 40
1
 40
1
 10
268.388336
 20
439.807444
 30
0
 10
268.525936
 20
440.322124
 30
0
 10
268.599296
 20
440.86306
 30
0
 10
268.599296
 20
441.421108
 30
0
  0
SPLINE
  5
DA
100
AcDbEntity
  8
Layer_1
  6
ByLayer
 62
    7
370
   -1
100
AcDbSpline
210
0
220
0
230
0
 70
    8
 71
    3
 72
    8
 73
    4
 74
    0
 42
1e-007
 43
1e-007
 40
0
 40
0
 40
0
 40
0
 40
1
 40
1
 40
1
 40
1
 10
268.599296
 20
441.421108
 30
0
 10
268.599296
 20
441.978932
 30
0
 10
268.526016
 20
442.519652
 30
0
 10
268.388512
 20
443.03414
 30
0
  0
SPLINE
  5
DB
100
AcDbEntity
  8
Layer_1
  6
ByLayer
 62
    7
370
   -1
100
AcDbSpline
210
0
220
0
230
0
 70
    8
 71
    3
 72
    8
 73
    4
 74
    0
 42
1e-007
 43
1e-007
 40
0
 40
0
 40
0
 40
0
 40
1
 40
1
 40
1
 40
1
 10
268.388512
 20
443.03414
 30
0
 10
268.246208
 20
443.566668
 30
0
 10
268.035136
 20
444.0711
 30
0
 10
267.765376
 20
444.53734
 30
0
  0
SPLINE
  5
DC
100
AcDbEntity
  8
Layer_1
  6
ByLayer
 62
    7
370
   -1
100
AcDbSpline
210
0
220
0
230
0
 70
    8
 71
    3
 72
    8
 73
    4
 74
    0
 42
1e-007
 43
1e-007
 40
0
 40
0
 40
0
 40
0
 40
1
 40
1
 40
1
 40
1
 10
267.765376
 20
444.53734
 30
0
 10
267.491904
 20
445.009996
 30
0
 10
267.15812
 20
445.443396
 30
0
 10
266.774544
 20
445.82702
 30
0
  0
SPLINE
  5
DD
100
AcDbEntity
  8
Layer_1
  6
ByLayer
 62
    7
370
   -1
100
AcDbSpline
210
0
220
0
230
0
 70
    8
 71
    3
 72
    8
 73
    4
 74
    0
 42
1e-007
 43
1e-007
 40
0
 40
0
 40
0
 40
0
 40
1
 40
1
 40
1
 40
1
 10
266.774544
 20
445.82702
 30
0
 10
266.390824
 20
446.210788
 30
0
 10
265.957264
 20
446.544732
 30
0
 10
265.484392
 20
446.818324
 30
0
  0
SPLINE
  5
DE
100
AcDbEntity
  8
Layer_1
  6
ByLayer
 62
    7
370
   -1
100
AcDbSpline
210
0
220
0
230
0
 70
    8
 71
    3
 72
    8
 73
    4
 74
    0
 42
1e-007
 43
1e-007
 40
0
 40
0
 40
0
 40
0
 40
1
 40
1
 40
1
 40
1
 10
265.484392
 20
446.818324
 30
0
 10
265.018056
 20
447.088132
 30
0
 10
264.513488
 20
447.299244
 30
0
 10
263.980784
 20
447.441532
 30
0
  0
SPLINE
  5
DF
100
AcDbEntity
  8
Layer_1
  6
ByLayer
 62
    7
370
   -1
100
AcDbSpline
210
0
220
0
230
0
 70
    8
 71
    3
 72
    8
 73
    4
 74
    0
 42
1e-007
 43
1e-007
 40
0
 40
0
 40
0
 40
0
 40
1
 40
1
 40
1
 40
1
 10
263.980784
 20
447.441532
 30
0
 10
263.466488
 20
447.578908
 30
0
 10
262.92596
 20
447.652148
 30
0
 10
262.368296
 20
447.652148
 30
0
  0
SPLINE
  5
E0
100
AcDbEntity
  8
Layer_1
  6
ByLayer
 62
    7
370
   -1
100
AcDbSpline
210
0
220
0
230
0
 70
    8
 71
    3
 72
    8
 73
    4
 74
    0
 42
1e-007
 43
1e-007
 40
0
 40
0
 40
0
 40
0
 40
1
 40
1
 40
1
 40
1
 10
262.368296
 20
447.652148
 30
0
 10
261.81048
 20
447.652148
 30
0
 10
261.269792
 20
447.578868
 30
0
 10
260.755344
 20
447.4413
 30
0
  0
SPLINE
  5
E1
100
AcDbEntity
  8
Layer_1
  6
ByLayer
 62
    7
370
   -1
100
AcDbSpline
210
0
220
0
230
0
 70
    8
 71
    3
 72
    8
 73
    4
 74
    0
 42
1e-007
 43
1e-007
 40
0
 40
0
 40
0
 40
0
 40
1
 40
1
 40
1
 40
1
 10
260.755344
 20
447.4413
 30
0
 10
260.222872
 20
447.298956
 30
0
 10
259.718504
 20
447.08782
 30
0
 10
259.252344
 20
446.818004
 30
0
  0
SPLINE
  5
E2
100
AcDbEntity
  8
Layer_1
  6
ByLayer
 62
    7
370
   -1
100
AcDbSpline
210
0
220
0
230
0
 70
    8
 71
    3
 72
    8
 73
    4
 74
    0
 42
1e-007
 43
1e-007
 40
0
 40
0
 40
0
 40
0
 40
1
 40
1
 40
1
 40
1
 10
259.252344
 20
446.818004
 30
0
 10
258.779768
 20
446.544476
 30
0
 10
258.346456
 20
446.210636
 30
0
 10
257.96292
 20
445.82702
 30
0
  0
SPLINE
  5
E3
100
AcDbEntity
  8
Layer_1
  6
ByLayer
 62
    7
370
   -1
100
AcDbSpline
210
0
220
0
230
0
 70
    8
 71
    3
 72
    8
 73
    4
 74
    0
 42
1e-007
 43
1e-007
 40
0
 40
0
 40
0
 40
0
 40
1
 40
1
 40
1
 40
1
 10
257.96292
 20
445.82702
 30
0
 10
257.57924
 20
445.443252
 30
0
 10
257.245376
 20
445.00966
 30
0
 10
256.971864
 20
444.536788
 30
0
  0
SPLINE
  5
E4
100
AcDbEntity
  8
Layer_1
  6
ByLayer
 62
    7
370
   -1
100
AcDbSpline
210
0
220
0
230
0
 70
    8
 71
    3
 72
    8
 73
    4
 74
    0
 42
1e-007
 43
1e-007
 40
0
 40
0
 40
0
 40
0
 40
1
 40
1
 40
1
 40
1
 10
256.971864
 20
444.536788
 30
0
 10
256.702384
 20
444.0709
 30
0
 10
256.491496
 20
443.566876
 30
0
 10
256.349248
 20
443.034804
 30
0
  0
SPLINE
  5
E5
100
AcDbEntity
  8
Layer_1
  6
ByLayer
 62
    7
370
   -1
100
AcDbSpline
210
0
220
0
230
0
 70
    8
 71
    3
 72
    8
 73
    4
 74
    0
 42
1e-007
 43
1e-007
 40
0
 40
0
 40
0
 40
0
 40
1
 40
1
 40
1
 40
1
 10
256.349248
 20
443.034804
 30
0
 10
256.211656
 20
442.520116
 30
0
 10
256.138296
 20
441.979172
 30
0
 10
256.138296
 20
441.421108
 30
0
  0
SPLINE
  5
E6
100
AcDbEntity
  8
Layer_1
  6
ByLayer
 62
    7
370
   -1
100
AcDbSpline
210
0
220
0
230
0
 70
    8
 71
    3
 72
    8
 73
    4
 74
    0
 42
1e-007
 43
1e-007
 40
0
 40
0
 40
0
 40
0
 40
1
 40
1
 40
1
 40
1
 10
256.138296
 20
441.421108
 30
0
 10
256.138296
 20
440.8633
 30
0
 10
256.211576
 20
440.322588
 30
0
 10
256.349072
 20
439.808108
 30
0
  0
SPLINE
  5
E7
100
AcDbEntity
  8
Layer_1
  6
ByLayer
 62
    7
370
   -1
100
AcDbSpline
210
0
220
0
230
0
 70
    8
 71
    3
 72
    8
 73
    4
 74
    0
 42
1e-007
 43
1e-007
 40
0
 40
0
 40
0
 40
0
 40
1
 40
1
 40
1
 40
1
 10
256.349072
 20
439.808108
 30
0
 10
256.491376
 20
439.275588
 30
0
 10
256.70244
 20
438.771164
 30
0
 10
256.972184
 20
438.304932
 30
0
  0
SPLINE
  5
E8
100
AcDbEntity
  8
Layer_1
  6
ByLayer
 62
    7
370
   -1
100
AcDbSpline
210
0
220
0
230
0
 70
    8
 71
    3
 72
    8
 73
    4
 74
    0
 42
1e-007
 43
1e-007
 40
0
 40
0
 40
0
 40
0
 40
1
 40
1
 40
1
 40
1
 10
256.972184
 20
438.304932
 30
0
 10
257.245632
 20
437.832284
 30
0
 10
257.579384
 20
437.398884
 30
0
 10
257.96292
 20
437.015268
 30
0
  0
SPLINE
  5
E9
100
AcDbEntity
  8
Layer_1
  6
ByLayer
 62
    7
370
   -1
100
AcDbSpline
210
0
220
0
230
0
 70
    8
 71
    3
 72
    8
 73
    4
 74
    0
 42
1e-007
 43
1e-007
 40
0
 40
0
 40
0
 40
0
 40
1
 40
1
 40
1
 40
1
 10
257.96292
 20
437.015268
 30
0
 10
258.3466
 20
436.6315
 30
0
 10
258.780104
 20
436.297556
 30
0
 10
259.252896
 20
436.023972
 30
0
  0
SPLINE
  5
EA
100
AcDbEntity
  8
Layer_1
  6
ByLayer
 62
    7
370
   -1
100
AcDbSpline
210
0
220
0
230
0
 70
    8
 71
    3
 72
    8
 73
    4
 74
    0
 42
1e-007
 43
1e-007
 40
0
 40
0
 40
0
 40
0
 40
1
 40
1
 40
1
 40
1
 10
259.252896
 20
436.023972
 30
0
 10
259.718712
 20
435.75442
 30
0
 10
260.222664
 20
435.54346
 30
0
 10
260.75468
 20
435.401172
 30
0
  0
SPLINE
  5
EB
100
AcDbEntity
  8
Layer_1
  6
ByLayer
 62
    7
370
   -1
100
AcDbSpline
210
0
220
0
230
0
 70
    8
 71
    3
 72
    8
 73
    4
 74
    0
 42
1e-007
 43
1e-007
 40
0
 40
0
 40
0
 40
0
 40
1
 40
1
 40
1
 40
1
 10
260.75468
 20
435.401172
 30
0
 10
261.269328
 20
435.263532
 30
0
 10
261.81024
 20
435.190148
 30
0
 10
262.368296
 20
435.190148
 30
0
  0
LWPOLYLINE
  5
EC
100
AcDbEntity
  8
Layer_1
  6
ByLayer
 62
    7
370
   -1
100
AcDbPolyline
 90
    2
 70
    0
 43
0
 10
262.506296
 20
437.526148
 10
262.506296
 20
437.526148
  0
SPLINE
  5
ED
100
AcDbEntity
  8
Layer_1
  6
ByLayer
 62
    7
370
   -1
100
AcDbSpline
210
0
220
0
230
0
 70
    8
 71
    3
 72
    8
 73
    4
 74
    0
 42
1e-007
 43
1e-007
 40
0
 40
0
 40
0
 40
0
 40
1
 40
1
 40
1
 40
1
 10
271.24744
 20
430.819108
 30
0
 10
271.24744
 20
430.819108
 30
0
 10
270.569176
 20
430.819108
 30
0
 10
269.419192
 20
430.819108
 30
0
  0
SPLINE
  5
EE
100
AcDbEntity
  8
Layer_1
  6
ByLayer
 62
    7
370
   -1
100
AcDbSpline
210
0
220
0
230
0
 70
    8
 71
    3
 72
    8
 73
    4
 74
    0
 42
1e-007
 43
1e-007
 40
0
 40
0
 40
0
 40
0
 40
1
 40
1
 40
1
 40
1
 10
269.419192
 20
430.819108
 30
0
 10
268.8998
 20
430.819108
 30
0
 10
268.284168
 20
430.819108
 30
0
 10
267.591352
 20
430.819108
 30
0
  0
SPLINE
  5
EF
100
AcDbEntity
  8
Layer_1
  6
ByLayer
 62
    7
370
   -1
100
AcDbSpline
210
0
220
0
230
0
 70
    8
 71
    3
 72
    8
 73
    4
 74
    0
 42
1e-007
 43
1e-007
 40
0
 40
0
 40
0
 40
0
 40
1
 40
1
 40
1
 40
1
 10
267.591352
 20
430.819108
 30
0
 10
267.029208
 20
430.819108
 30
0
 10
266.416248
 20
430.819108
 30
0
 10
265.762624
 20
430.819108
 30
0
  0
SPLINE
  5
F0
100
AcDbEntity
  8
Layer_1
  6
ByLayer
 62
    7
370
   -1
100
AcDbSpline
210
0
220
0
230
0
 70
    8
 71
    3
 72
    8
 73
    4
 74
    0
 42
1e-007
 43
1e-007
 40
0
 40
0
 40
0
 40
0
 40
1
 40
1
 40
1
 40
1
 10
265.762624
 20
430.819108
 30
0
 10
265.182504
 20
430.819108
 30
0
 10
264.570352
 20
430.819108
 30
0
 10
263.93328
 20
430.819108
 30
0
  0
SPLINE
  5
F1
100
AcDbEntity
  8
Layer_1
  6
ByLayer
 62
    7
370
   -1
100
AcDbSpline
210
0
220
0
230
0
 70
    8
 71
    3
 72
    8
 73
    4
 74
    0
 42
1e-007
 43
1e-007
 40
0
 40
0
 40
0
 40
0
 40
1
 40
1
 40
1
 40
1
 10
263.93328
 20
430.819108
 30
0
 10
263.343264
 20
430.819108
 30
0
 10
262.731864
 20
430.819108
 30
0
 10
262.104736
 20
430.819108
 30
0
  0
SPLINE
  5
F2
100
AcDbEntity
  8
Layer_1
  6
ByLayer
 62
    7
370
   -1
100
AcDbSpline
210
0
220
0
230
0
 70
    8
 71
    3
 72
    8
 73
    4
 74
    0
 42
1e-007
 43
1e-007
 40
0
 40
0
 40
0
 40
0
 40
1
 40
1
 40
1
 40
1
 10
262.104736
 20
430.819108
 30
0
 10
261.508072
 20
430.819108
 30
0
 10
260.897176
 20
430.819108
 30
0
 10
260.276896
 20
430.819108
 30
0
  0
SPLINE
  5
F3
100
AcDbEntity
  8
Layer_1
  6
ByLayer
 62
    7
370
   -1
100
AcDbSpline
210
0
220
0
230
0
 70
    8
 71
    3
 72
    8
 73
    4
 74
    0
 42
1e-007
 43
1e-007
 40
0
 40
0
 40
0
 40
0
 40
1
 40
1
 40
1
 40
1
 10
260.276896
 20
430.819108
 30
0
 10
259.674928
 20
430.819108
 30
0
 10
259.064128
 20
430.819108
 30
0
 10
258.448936
 20
430.819108
 30
0
  0
SPLINE
  5
F4
100
AcDbEntity
  8
Layer_1
  6
ByLayer
 62
    7
370
   -1
100
AcDbSpline
210
0
220
0
230
0
 70
    8
 71
    3
 72
    8
 73
    4
 74
    0
 42
1e-007
 43
1e-007
 40
0
 40
0
 40
0
 40
0
 40
1
 40
1
 40
1
 40
1
 10
258.448936
 20
430.819108
 30
0
 10
257.842104
 20
430.819108
 30
0
 10
257.231
 20
430.819108
 30
0
 10
256.619896
 20
430.819108
 30
0
  0
SPLINE
  5
F5
100
AcDbEntity
  8
Layer_1
  6
ByLayer
 62
    7
370
   -1
100
AcDbSpline
210
0
220
0
230
0
 70
    8
 71
    3
 72
    8
 73
    4
 74
    0
 42
1e-007
 43
1e-007
 40
0
 40
0
 40
0
 40
0
 40
1
 40
1
 40
1
 40
1
 10
256.619896
 20
430.819108
 30
0
 10
256.00904
 20
430.819108
 30
0
 10
255.398192
 20
430.819108
 30
0
 10
254.7916
 20
430.819108
 30
0
  0
SPLINE
  5
F6
100
AcDbEntity
  8
Layer_1
  6
ByLayer
 62
    7
370
   -1
100
AcDbSpline
210
0
220
0
230
0
 70
    8
 71
    3
 72
    8
 73
    4
 74
    0
 42
1e-007
 43
1e-007
 40
0
 40
0
 40
0
 40
0
 40
1
 40
1
 40
1
 40
1
 10
254.7916
 20
430.819108
 30
0
 10
254.176056
 20
430.819108
 30
0
 10
253.564896
 20
430.819108
 30
0
 10
252.962584
 20
430.819108
 30
0
  0
SPLINE
  5
F7
100
AcDbEntity
  8
Layer_1
  6
ByLayer
 62
    7
370
   -1
100
AcDbSpline
210
0
220
0
230
0
 70
    8
 71
    3
 72
    8
 73
    4
 74
    0
 42
1e-007
 43
1e-007
 40
0
 40
0
 40
0
 40
0
 40
1
 40
1
 40
1
 40
1
 10
252.962584
 20
430.819108
 30
0
 10
252.341928
 20
430.819108
 30
0
 10
251.730656
 20
430.819108
 30
0
 10
251.13364
 20
430.819108
 30
0
  0
SPLINE
  5
F8
100
AcDbEntity
  8
Layer_1
  6
ByLayer
 62
    7
370
   -1
100
AcDbSpline
210
0
220
0
230
0
 70
    8
 71
    3
 72
    8
 73
    4
 74
    0
 42
1e-007
 43
1e-007
 40
0
 40
0
 40
0
 40
0
 40
1
 40
1
 40
1
 40
1
 10
251.13364
 20
430.819108
 30
0
 10
250.506752
 20
430.819108
 30
0
 10
249.895576
 20
430.819108
 30
0
 10
249.30576
 20
430.819108
 30
0
  0
SPLINE
  5
F9
100
AcDbEntity
  8
Layer_1
  6
ByLayer
 62
    7
370
   -1
100
AcDbSpline
210
0
220
0
230
0
 70
    8
 71
    3
 72
    8
 73
    4
 74
    0
 42
1e-007
 43
1e-007
 40
0
 40
0
 40
0
 40
0
 40
1
 40
1
 40
1
 40
1
 10
249.30576
 20
430.819108
 30
0
 10
248.669248
 20
430.819108
 30
0
 10
248.057608
 20
430.819108
 30
0
 10
247.477936
 20
430.819108
 30
0
  0
SPLINE
  5
FA
100
AcDbEntity
  8
Layer_1
  6
ByLayer
 62
    7
370
   -1
100
AcDbSpline
210
0
220
0
230
0
 70
    8
 71
    3
 72
    8
 73
    4
 74
    0
 42
1e-007
 43
1e-007
 40
0
 40
0
 40
0
 40
0
 40
1
 40
1
 40
1
 40
1
 10
247.477936
 20
430.819108
 30
0
 10
246.824192
 20
430.819108
 30
0
 10
246.211112
 20
430.819108
 30
0
 10
245.64884
 20
430.819108
 30
0
  0
SPLINE
  5
FB
100
AcDbEntity
  8
Layer_1
  6
ByLayer
 62
    7
370
   -1
100
AcDbSpline
210
0
220
0
230
0
 70
    8
 71
    3
 72
    8
 73
    4
 74
    0
 42
1e-007
 43
1e-007
 40
0
 40
0
 40
0
 40
0
 40
1
 40
1
 40
1
 40
1
 10
245.64884
 20
430.819108
 30
0
 10
244.955976
 20
430.819108
 30
0
 10
244.34028
 20
430.819108
 30
0
 10
243.820784
 20
430.819108
 30
0
  0
SPLINE
  5
FC
100
AcDbEntity
  8
Layer_1
  6
ByLayer
 62
    7
370
   -1
100
AcDbSpline
210
0
220
0
230
0
 70
    8
 71
    3
 72
    8
 73
    4
 74
    0
 42
1e-007
 43
1e-007
 40
0
 40
0
 40
0
 40
0
 40
1
 40
1
 40
1
 40
1
 10
243.820784
 20
430.819108
 30
0
 10
242.670048
 20
430.819108
 30
0
 10
241.991296
 20
430.819108
 30
0
 10
241.991296
 20
430.819108
 30
0
  0
SPLINE
  5
FD
100
AcDbEntity
  8
Layer_1
  6
ByLayer
 62
    7
370
   -1
100
AcDbSpline
210
0
220
0
230
0
 70
    8
 71
    3
 72
    8
 73
    4
 74
    0
 42
1e-007
 43
1e-007
 40
0
 40
0
 40
0
 40
0
 40
1
 40
1
 40
1
 40
1
 10
241.991296
 20
430.819108
 30
0
 10
241.991296
 20
430.819108
 30
0
 10
241.991296
 20
431.830548
 30
0
 10
241.991296
 20
433.19338
 30
0
  0
SPLINE
  5
FE
100
AcDbEntity
  8
Layer_1
  6
ByLayer
 62
    7
370
   -1
100
AcDbSpline
210
0
220
0
230
0
 70
    8
 71
    3
 72
    8
 73
    4
 74
    0
 42
1e-007
 43
1e-007
 40
0
 40
0
 40
0
 40
0
 40
1
 40
1
 40
1
 40
1
 10
241.991296
 20
433.19338
 30
0
 10
241.991296
 20
433.9189
 30
0
 10
241.991296
 20
434.744004
 30
0
 10
241.991296
 20
435.569108
 30
0
  0
SPLINE
  5
FF
100
AcDbEntity
  8
Layer_1
  6
ByLayer
 62
    7
370
   -1
100
AcDbSpline
210
0
220
0
230
0
 70
    8
 71
    3
 72
    8
 73
    4
 74
    0
 42
1e-007
 43
1e-007
 40
0
 40
0
 40
0
 40
0
 40
1
 40
1
 40
1
 40
1
 10
241.991296
 20
435.569108
 30
0
 10
241.991296
 20
436.394212
 30
0
 10
241.991296
 20
437.219316
 30
0
 10
241.991296
 20
437.944836
 30
0
  0
SPLINE
  5
100
100
AcDbEntity
  8
Layer_1
  6
ByLayer
 62
    7
370
   -1
100
AcDbSpline
210
0
220
0
230
0
 70
    8
 71
    3
 72
    8
 73
    4
 74
    0
 42
1e-007
 43
1e-007
 40
0
 40
0
 40
0
 40
0
 40
1
 40
1
 40
1
 40
1
 10
241.991296
 20
437.944836
 30
0
 10
241.991296
 20
439.307668
 30
0
 10
241.991296
 20
440.319108
 30
0
 10
241.991296
 20
440.319108
 30
0
  0
SPLINE
  5
101
100
AcDbEntity
  8
Layer_1
  6
ByLayer
 62
    7
370
   -1
100
AcDbSpline
210
0
220
0
230
0
 70
    8
 71
    3
 72
    8
 73
    4
 74
    0
 42
1e-007
 43
1e-007
 40
0
 40
0
 40
0
 40
0
 40
1
 40
1
 40
1
 40
1
 10
241.991296
 20
440.319108
 30
0
 10
241.991296
 20
440.319108
 30
0
 10
242.48144
 20
440.809188
 30
0
 10
243.20768
 20
441.535332
 30
0
  0
SPLINE
  5
102
100
AcDbEntity
  8
Layer_1
  6
ByLayer
 62
    7
370
   -1
100
AcDbSpline
210
0
220
0
230
0
 70
    8
 71
    3
 72
    8
 73
    4
 74
    0
 42
1e-007
 43
1e-007
 40
0
 40
0
 40
0
 40
0
 40
1
 40
1
 40
1
 40
1
 10
243.20768
 20
441.535332
 30
0
 10
243.565912
 20
441.893516
 30
0
 10
243.981576
 20
442.309132
 30
0
 10
244.424208
 20
442.7517
 30
0
  0
SPLINE
  5
103
100
AcDbEntity
  8
Layer_1
  6
ByLayer
 62
    7
370
   -1
100
AcDbSpline
210
0
220
0
230
0
 70
    8
 71
    3
 72
    8
 73
    4
 74
    0
 42
1e-007
 43
1e-007
 40
0
 40
0
 40
0
 40
0
 40
1
 40
1
 40
1
 40
1
 10
244.424208
 20
442.7517
 30
0
 10
244.81552
 20
443.142964
 30
0
 10
245.227912
 20
443.555292
 30
0
 10
245.640296
 20
443.967628
 30
0
  0
SPLINE
  5
104
100
AcDbEntity
  8
Layer_1
  6
ByLayer
 62
    7
370
   -1
100
AcDbSpline
210
0
220
0
230
0
 70
    8
 71
    3
 72
    8
 73
    4
 74
    0
 42
1e-007
 43
1e-007
 40
0
 40
0
 40
0
 40
0
 40
1
 40
1
 40
1
 40
1
 10
245.640296
 20
443.967628
 30
0
 10
246.052768
 20
444.380044
 30
0
 10
246.46524
 20
444.792468
 30
0
 10
246.856632
 20
445.183804
 30
0
  0
SPLINE
  5
105
100
AcDbEntity
  8
Layer_1
  6
ByLayer
 62
    7
370
   -1
100
AcDbSpline
210
0
220
0
230
0
 70
    8
 71
    3
 72
    8
 73
    4
 74
    0
 42
1e-007
 43
1e-007
 40
0
 40
0
 40
0
 40
0
 40
1
 40
1
 40
1
 40
1
 10
246.856632
 20
445.183804
 30
0
 10
247.299216
 20
445.626332
 30
0
 10
247.714848
 20
446.041908
 30
0
 10
248.073032
 20
446.400044
 30
0
  0
SPLINE
  5
106
100
AcDbEntity
  8
Layer_1
  6
ByLayer
 62
    7
370
   -1
100
AcDbSpline
210
0
220
0
230
0
 70
    8
 71
    3
 72
    8
 73
    4
 74
    0
 42
1e-007
 43
1e-007
 40
0
 40
0
 40
0
 40
0
 40
1
 40
1
 40
1
 40
1
 10
248.073032
 20
446.400044
 30
0
 10
248.799208
 20
447.126124
 30
0
 10
249.289296
 20
447.616148
 30
0
 10
249.289296
 20
447.616148
 30
0
  0
SPLINE
  5
107
100
AcDbEntity
  8
Layer_1
  6
ByLayer
 62
    7
370
   -1
100
AcDbSpline
210
0
220
0
230
0
 70
    8
 71
    3
 72
    8
 73
    4
 74
    0
 42
1e-007
 43
1e-007
 40
0
 40
0
 40
0
 40
0
 40
1
 40
1
 40
1
 40
1
 10
249.289296
 20
447.616148
 30
0
 10
249.289296
 20
447.616148
 30
0
 10
250.056864
 20
447.616148
 30
0
 10
250.99796
 20
447.616148
 30
0
  0
SPLINE
  5
108
100
AcDbEntity
  8
Layer_1
  6
ByLayer
 62
    7
370
   -1
100
AcDbSpline
210
0
220
0
230
0
 70
    8
 71
    3
 72
    8
 73
    4
 74
    0
 42
1e-007
 43
1e-007
 40
0
 40
0
 40
0
 40
0
 40
1
 40
1
 40
1
 40
1
 10
250.99796
 20
447.616148
 30
0
 10
251.547592
 20
447.616148
 30
0
 10
252.156408
 20
447.616148
 30
0
 10
252.706072
 20
447.616148
 30
0
  0
SPLINE
  5
109
100
AcDbEntity
  8
Layer_1
  6
ByLayer
 62
    7
370
   -1
100
AcDbSpline
210
0
220
0
230
0
 70
    8
 71
    3
 72
    8
 73
    4
 74
    0
 42
1e-007
 43
1e-007
 40
0
 40
0
 40
0
 40
0
 40
1
 40
1
 40
1
 40
1
 10
252.706072
 20
447.616148
 30
0
 10
253.647424
 20
447.616148
 30
0
 10
254.415296
 20
447.616148
 30
0
 10
254.415296
 20
447.616148
 30
0
  0
SPLINE
  5
10A
100
AcDbEntity
  8
Layer_1
  6
ByLayer
 62
    7
370
   -1
100
AcDbSpline
210
0
220
0
230
0
 70
    8
 71
    3
 72
    8
 73
    4
 74
    0
 42
1e-007
 43
1e-007
 40
0
 40
0
 40
0
 40
0
 40
1
 40
1
 40
1
 40
1
 10
254.415296
 20
447.616148
 30
0
 10
254.415296
 20
447.616148
 30
0
 10
254.415296
 20
448.519236
 30
0
 10
254.415296
 20
449.626492
 30
0
  0
SPLINE
  5
10B
100
AcDbEntity
  8
Layer_1
  6
ByLayer
 62
    7
370
   -1
100
AcDbSpline
210
0
220
0
230
0
 70
    8
 71
    3
 72
    8
 73
    4
 74
    0
 42
1e-007
 43
1e-007
 40
0
 40
0
 40
0
 40
0
 40
1
 40
1
 40
1
 40
1
 10
254.415296
 20
449.626492
 30
0
 10
254.415296
 20
450.273164
 30
0
 10
254.415296
 20
450.989468
 30
0
 10
254.415296
 20
451.636188
 30
0
  0
SPLINE
  5
10C
100
AcDbEntity
  8
Layer_1
  6
ByLayer
 62
    7
370
   -1
100
AcDbSpline
210
0
220
0
230
0
 70
    8
 71
    3
 72
    8
 73
    4
 74
    0
 42
1e-007
 43
1e-007
 40
0
 40
0
 40
0
 40
0
 40
1
 40
1
 40
1
 40
1
 10
254.415296
 20
451.636188
 30
0
 10
254.415296
 20
452.74374
 30
0
 10
254.415296
 20
453.647188
 30
0
 10
254.415296
 20
453.647188
 30
0
  0
SPLINE
  5
10D
100
AcDbEntity
  8
Layer_1
  6
ByLayer
 62
    7
370
   -1
100
AcDbSpline
210
0
220
0
230
0
 70
    8
 71
    3
 72
    8
 73
    4
 74
    0
 42
1e-007
 43
1e-007
 40
0
 40
0
 40
0
 40
0
 40
1
 40
1
 40
1
 40
1
 10
254.415296
 20
453.647188
 30
0
 10
254.415296
 20
454.442876
 30
0
 10
254.517032
 20
455.208412
 30
0
 10
254.708368
 20
455.932908
 30
0
  0
SPLINE
  5
10E
100
AcDbEntity
  8
Layer_1
  6
ByLayer
 62
    7
370
   -1
100
AcDbSpline
210
0
220
0
230
0
 70
    8
 71
    3
 72
    8
 73
    4
 74
    0
 42
1e-007
 43
1e-007
 40
0
 40
0
 40
0
 40
0
 40
1
 40
1
 40
1
 40
1
 10
254.708368
 20
455.932908
 30
0
 10
254.908712
 20
456.691516
 30
0
 10
255.207288
 20
457.405124
 30
0
 10
255.59016
 20
458.061228
 30
0
  0
SPLINE
  5
10F
100
AcDbEntity
  8
Layer_1
  6
ByLayer
 62
    7
370
   -1
100
AcDbSpline
210
0
220
0
230
0
 70
    8
 71
    3
 72
    8
 73
    4
 74
    0
 42
1e-007
 43
1e-007
 40
0
 40
0
 40
0
 40
0
 40
1
 40
1
 40
1
 40
1
 10
255.59016
 20
458.061228
 30
0
 10
255.980584
 20
458.730268
 30
0
 10
256.458656
 20
459.339516
 30
0
 10
257.009608
 20
459.875716
 30
0
  0
SPLINE
  5
110
100
AcDbEntity
  8
Layer_1
  6
ByLayer
 62
    7
370
   -1
100
AcDbSpline
210
0
220
0
230
0
 70
    8
 71
    3
 72
    8
 73
    4
 74
    0
 42
1e-007
 43
1e-007
 40
0
 40
0
 40
0
 40
0
 40
1
 40
1
 40
1
 40
1
 10
257.009608
 20
459.875716
 30
0
 10
257.558896
 20
460.410292
 30
0
 10
258.180608
 20
460.872252
 30
0
 10
258.86012
 20
461.248468
 30
0
  0
SPLINE
  5
111
100
AcDbEntity
  8
Layer_1
  6
ByLayer
 62
    7
370
   -1
100
AcDbSpline
210
0
220
0
230
0
 70
    8
 71
    3
 72
    8
 73
    4
 74
    0
 42
1e-007
 43
1e-007
 40
0
 40
0
 40
0
 40
0
 40
1
 40
1
 40
1
 40
1
 10
258.86012
 20
461.248468
 30
0
 10
259.524112
 20
461.616092
 30
0
 10
260.24328
 20
461.901836
 30
0
 10
261.00396
 20
462.093444
 30
0
  0
SPLINE
  5
112
100
AcDbEntity
  8
Layer_1
  6
ByLayer
 62
    7
370
   -1
100
AcDbSpline
210
0
220
0
230
0
 70
    8
 71
    3
 72
    8
 73
    4
 74
    0
 42
1e-007
 43
1e-007
 40
0
 40
0
 40
0
 40
0
 40
1
 40
1
 40
1
 40
1
 10
261.00396
 20
462.093444
 30
0
 10
261.732648
 20
462.276988
 30
0
 10
262.499432
 20
462.374148
 30
0
 10
263.292296
 20
462.374148
 30
0
  0
SPLINE
  5
113
100
AcDbEntity
  8
Layer_1
  6
ByLayer
 62
    7
370
   -1
100
AcDbSpline
210
0
220
0
230
0
 70
    8
 71
    3
 72
    8
 73
    4
 74
    0
 42
1e-007
 43
1e-007
 40
0
 40
0
 40
0
 40
0
 40
1
 40
1
 40
1
 40
1
 10
263.292296
 20
462.374148
 30
0
 10
263.292296
 20
462.374148
 30
0
 10
263.996928
 20
462.373764
 30
0
 10
265.232864
 20
462.373348
 30
0
  0
SPLINE
  5
114
100
AcDbEntity
  8
Layer_1
  6
ByLayer
 62
    7
370
   -1
100
AcDbSpline
210
0
220
0
230
0
 70
    8
 71
    3
 72
    8
 73
    4
 74
    0
 42
1e-007
 43
1e-007
 40
0
 40
0
 40
0
 40
0
 40
1
 40
1
 40
1
 40
1
 10
265.232864
 20
462.373348
 30
0
 10
265.780672
 20
462.373044
 30
0
 10
266.432848
 20
462.372684
 30
0
 10
267.174312
 20
462.372548
 30
0
  0
SPLINE
  5
115
100
AcDbEntity
  8
Layer_1
  6
ByLayer
 62
    7
370
   -1
100
AcDbSpline
210
0
220
0
230
0
 70
    8
 71
    3
 72
    8
 73
    4
 74
    0
 42
1e-007
 43
1e-007
 40
0
 40
0
 40
0
 40
0
 40
1
 40
1
 40
1
 40
1
 10
267.174312
 20
462.372548
 30
0
 10
267.766912
 20
462.372228
 30
0
 10
268.416544
 20
462.371868
 30
0
 10
269.115504
 20
462.371748
 30
0
  0
SPLINE
  5
116
100
AcDbEntity
  8
Layer_1
  6
ByLayer
 62
    7
370
   -1
100
AcDbSpline
210
0
220
0
230
0
 70
    8
 71
    3
 72
    8
 73
    4
 74
    0
 42
1e-007
 43
1e-007
 40
0
 40
0
 40
0
 40
0
 40
1
 40
1
 40
1
 40
1
 10
269.115504
 20
462.371748
 30
0
 10
269.726216
 20
462.371412
 30
0
 10
270.374584
 20
462.371052
 30
0
 10
271.055464
 20
462.370948
 30
0
  0
SPLINE
  5
117
100
AcDbEntity
  8
Layer_1
  6
ByLayer
 62
    7
370
   -1
100
AcDbSpline
210
0
220
0
230
0
 70
    8
 71
    3
 72
    8
 73
    4
 74
    0
 42
1e-007
 43
1e-007
 40
0
 40
0
 40
0
 40
0
 40
1
 40
1
 40
1
 40
1
 10
271.055464
 20
462.370948
 30
0
 10
271.676592
 20
462.370604
 30
0
 10
272.324776
 20
462.370244
 30
0
 10
272.99612
 20
462.370148
 30
0
  0
SPLINE
  5
118
100
AcDbEntity
  8
Layer_1
  6
ByLayer
 62
    7
370
   -1
100
AcDbSpline
210
0
220
0
230
0
 70
    8
 71
    3
 72
    8
 73
    4
 74
    0
 42
1e-007
 43
1e-007
 40
0
 40
0
 40
0
 40
0
 40
1
 40
1
 40
1
 40
1
 10
272.99612
 20
462.370148
 30
0
 10
273.623856
 20
462.369804
 30
0
 10
274.27184
 20
462.369452
 30
0
 10
274.936872
 20
462.369348
 30
0
  0
SPLINE
  5
119
100
AcDbEntity
  8
Layer_1
  6
ByLayer
 62
    7
370
   -1
100
AcDbSpline
210
0
220
0
230
0
 70
    8
 71
    3
 72
    8
 73
    4
 74
    0
 42
1e-007
 43
1e-007
 40
0
 40
0
 40
0
 40
0
 40
1
 40
1
 40
1
 40
1
 10
274.936872
 20
462.369348
 30
0
 10
275.568984
 20
462.369004
 30
0
 10
276.216496
 20
462.368644
 30
0
 10
276.876688
 20
462.368548
 30
0
  0
SPLINE
  5
11A
100
AcDbEntity
  8
Layer_1
  6
ByLayer
 62
    7
370
   -1
100
AcDbSpline
210
0
220
0
230
0
 70
    8
 71
    3
 72
    8
 73
    4
 74
    0
 42
1e-007
 43
1e-007
 40
0
 40
0
 40
0
 40
0
 40
1
 40
1
 40
1
 40
1
 10
276.876688
 20
462.368548
 30
0
 10
277.512824
 20
462.368196
 30
0
 10
278.16072
 20
462.367836
 30
0
 10
278.817936
 20
462.367748
 30
0
  0
SPLINE
  5
11B
100
AcDbEntity
  8
Layer_1
  6
ByLayer
 62
    7
370
   -1
100
AcDbSpline
210
0
220
0
230
0
 70
    8
 71
    3
 72
    8
 73
    4
 74
    0
 42
1e-007
 43
1e-007
 40
0
 40
0
 40
0
 40
0
 40
1
 40
1
 40
1
 40
1
 10
278.817936
 20
462.367748
 30
0
 10
279.456744
 20
462.367396
 30
0
 10
280.104352
 20
462.367044
 30
0
 10
280.758504
 20
462.366948
 30
0
  0
SPLINE
  5
11C
100
AcDbEntity
  8
Layer_1
  6
ByLayer
 62
    7
370
   -1
100
AcDbSpline
210
0
220
0
230
0
 70
    8
 71
    3
 72
    8
 73
    4
 74
    0
 42
1e-007
 43
1e-007
 40
0
 40
0
 40
0
 40
0
 40
1
 40
1
 40
1
 40
1
 10
280.758504
 20
462.366948
 30
0
 10
281.399904
 20
462.366596
 30
0
 10
282.047608
 20
462.366236
 30
0
 10
282.69948
 20
462.366148
 30
0
  0
SPLINE
  5
11D
100
AcDbEntity
  8
Layer_1
  6
ByLayer
 62
    7
370
   -1
100
AcDbSpline
210
0
220
0
230
0
 70
    8
 71
    3
 72
    8
 73
    4
 74
    0
 42
1e-007
 43
1e-007
 40
0
 40
0
 40
0
 40
0
 40
1
 40
1
 40
1
 40
1
 10
282.69948
 20
462.366148
 30
0
 10
283.342848
 20
462.365788
 30
0
 10
283.990272
 20
462.365436
 30
0
 10
284.639728
 20
462.365348
 30
0
  0
SPLINE
  5
11E
100
AcDbEntity
  8
Layer_1
  6
ByLayer
 62
    7
370
   -1
100
AcDbSpline
210
0
220
0
230
0
 70
    8
 71
    3
 72
    8
 73
    4
 74
    0
 42
1e-007
 43
1e-007
 40
0
 40
0
 40
0
 40
0
 40
1
 40
1
 40
1
 40
1
 10
284.639728
 20
462.365348
 30
0
 10
285.285392
 20
462.364996
 30
0
 10
285.933056
 20
462.364644
 30
0
 10
286.580728
 20
462.364548
 30
0
  0
SPLINE
  5
11F
100
AcDbEntity
  8
Layer_1
  6
ByLayer
 62
    7
370
   -1
100
AcDbSpline
210
0
220
0
230
0
 70
    8
 71
    3
 72
    8
 73
    4
 74
    0
 42
1e-007
 43
1e-007
 40
0
 40
0
 40
0
 40
0
 40
1
 40
1
 40
1
 40
1
 10
286.580728
 20
462.364548
 30
0
 10
287.22856
 20
462.364188
 30
0
 10
287.876392
 20
462.363836
 30
0
 10
288.522224
 20
462.363748
 30
0
  0
SPLINE
  5
120
100
AcDbEntity
  8
Layer_1
  6
ByLayer
 62
    7
370
   -1
100
AcDbSpline
210
0
220
0
230
0
 70
    8
 71
    3
 72
    8
 73
    4
 74
    0
 42
1e-007
 43
1e-007
 40
0
 40
0
 40
0
 40
0
 40
1
 40
1
 40
1
 40
1
 10
288.522224
 20
462.363748
 30
0
 10
289.171896
 20
462.363388
 30
0
 10
289.819544
 20
462.363028
 30
0
 10
290.46312
 20
462.362948
 30
0
  0
SPLINE
  5
121
100
AcDbEntity
  8
Layer_1
  6
ByLayer
 62
    7
370
   -1
100
AcDbSpline
210
0
220
0
230
0
 70
    8
 71
    3
 72
    8
 73
    4
 74
    0
 42
1e-007
 43
1e-007
 40
0
 40
0
 40
0
 40
0
 40
1
 40
1
 40
1
 40
1
 10
290.46312
 20
462.362948
 30
0
 10
291.114864
 20
462.362588
 30
0
 10
291.762432
 20
462.362236
 30
0
 10
292.403712
 20
462.362148
 30
0
  0
SPLINE
  5
122
100
AcDbEntity
  8
Layer_1
  6
ByLayer
 62
    7
370
   -1
100
AcDbSpline
210
0
220
0
230
0
 70
    8
 71
    3
 72
    8
 73
    4
 74
    0
 42
1e-007
 43
1e-007
 40
0
 40
0
 40
0
 40
0
 40
1
 40
1
 40
1
 40
1
 10
292.403712
 20
462.362148
 30
0
 10
293.057632
 20
462.361788
 30
0
 10
293.705008
 20
462.361436
 30
0
 10
294.343592
 20
462.361348
 30
0
  0
SPLINE
  5
123
100
AcDbEntity
  8
Layer_1
  6
ByLayer
 62
    7
370
   -1
100
AcDbSpline
210
0
220
0
230
0
 70
    8
 71
    3
 72
    8
 73
    4
 74
    0
 42
1e-007
 43
1e-007
 40
0
 40
0
 40
0
 40
0
 40
1
 40
1
 40
1
 40
1
 10
294.343592
 20
462.361348
 30
0
 10
295.000792
 20
462.360988
 30
0
 10
295.648688
 20
462.360628
 30
0
 10
296.284808
 20
462.360548
 30
0
  0
SPLINE
  5
124
100
AcDbEntity
  8
Layer_1
  6
ByLayer
 62
    7
370
   -1
100
AcDbSpline
210
0
220
0
230
0
 70
    8
 71
    3
 72
    8
 73
    4
 74
    0
 42
1e-007
 43
1e-007
 40
0
 40
0
 40
0
 40
0
 40
1
 40
1
 40
1
 40
1
 10
296.284808
 20
462.360548
 30
0
 10
296.945536
 20
462.360188
 30
0
 10
297.593576
 20
462.359828
 30
0
 10
298.226176
 20
462.359748
 30
0
  0
SPLINE
  5
125
100
AcDbEntity
  8
Layer_1
  6
ByLayer
 62
    7
370
   -1
100
AcDbSpline
210
0
220
0
230
0
 70
    8
 71
    3
 72
    8
 73
    4
 74
    0
 42
1e-007
 43
1e-007
 40
0
 40
0
 40
0
 40
0
 40
1
 40
1
 40
1
 40
1
 10
298.226176
 20
462.359748
 30
0
 10
298.891352
 20
462.35938
 30
0
 10
299.539456
 20
462.359028
 30
0
 10
300.167296
 20
462.358948
 30
0
  0
SPLINE
  5
126
100
AcDbEntity
  8
Layer_1
  6
ByLayer
 62
    7
370
   -1
100
AcDbSpline
210
0
220
0
230
0
 70
    8
 71
    3
 72
    8
 73
    4
 74
    0
 42
1e-007
 43
1e-007
 40
0
 40
0
 40
0
 40
0
 40
1
 40
1
 40
1
 40
1
 10
300.167296
 20
462.358948
 30
0
 10
300.838264
 20
462.358572
 30
0
 10
301.486096
 20
462.35822
 30
0
 10
302.106896
 20
462.358148
 30
0
  0
SPLINE
  5
127
100
AcDbEntity
  8
Layer_1
  6
ByLayer
 62
    7
370
   -1
100
AcDbSpline
210
0
220
0
230
0
 70
    8
 71
    3
 72
    8
 73
    4
 74
    0
 42
1e-007
 43
1e-007
 40
0
 40
0
 40
0
 40
0
 40
1
 40
1
 40
1
 40
1
 10
302.106896
 20
462.358148
 30
0
 10
302.788048
 20
462.35778
 30
0
 10
303.436656
 20
462.35742
 30
0
 10
304.047568
 20
462.357348
 30
0
  0
SPLINE
  5
128
100
AcDbEntity
  8
Layer_1
  6
ByLayer
 62
    7
370
   -1
100
AcDbSpline
210
0
220
0
230
0
 70
    8
 71
    3
 72
    8
 73
    4
 74
    0
 42
1e-007
 43
1e-007
 40
0
 40
0
 40
0
 40
0
 40
1
 40
1
 40
1
 40
1
 10
304.047568
 20
462.357348
 30
0
 10
304.74616
 20
462.356964
 30
0
 10
305.395456
 20
462.356604
 30
0
 10
305.987768
 20
462.356548
 30
0
  0
SPLINE
  5
129
100
AcDbEntity
  8
Layer_1
  6
ByLayer
 62
    7
370
   -1
100
AcDbSpline
210
0
220
0
230
0
 70
    8
 71
    3
 72
    8
 73
    4
 74
    0
 42
1e-007
 43
1e-007
 40
0
 40
0
 40
0
 40
0
 40
1
 40
1
 40
1
 40
1
 10
305.987768
 20
462.356548
 30
0
 10
306.729192
 20
462.35614
 30
0
 10
307.38132
 20
462.35578
 30
0
 10
307.92908
 20
462.355748
 30
0
  0
SPLINE
  5
12A
100
AcDbEntity
  8
Layer_1
  6
ByLayer
 62
    7
370
   -1
100
AcDbSpline
210
0
220
0
230
0
 70
    8
 71
    3
 72
    8
 73
    4
 74
    0
 42
1e-007
 43
1e-007
 40
0
 40
0
 40
0
 40
0
 40
1
 40
1
 40
1
 40
1
 10
307.92908
 20
462.355748
 30
0
 10
309.164792
 20
462.355068
 30
0
 10
309.869296
 20
462.354948
 30
0
 10
309.869296
 20
462.354948
 30
0
  0
SPLINE
  5
12B
100
AcDbEntity
  8
Layer_1
  6
ByLayer
 62
    7
370
   -1
100
AcDbSpline
210
0
220
0
230
0
 70
    8
 71
    3
 72
    8
 73
    4
 74
    0
 42
1e-007
 43
1e-007
 40
0
 40
0
 40
0
 40
0
 40
1
 40
1
 40
1
 40
1
 10
306.705792
 20
437.67866
 30
0
 10
306.705792
 20
437.67866
 30
0
 10
306.705792
 20
436.839036
 30
0
 10
306.705792
 20
435.424428
 30
0
  0
SPLINE
  5
12C
100
AcDbEntity
  8
Layer_1
  6
ByLayer
 62
    7
370
   -1
100
AcDbSpline
210
0
220
0
230
0
 70
    8
 71
    3
 72
    8
 73
    4
 74
    0
 42
1e-007
 43
1e-007
 40
0
 40
0
 40
0
 40
0
 40
1
 40
1
 40
1
 40
1
 10
306.705792
 20
435.424428
 30
0
 10
306.705792
 20
434.783076
 30
0
 10
306.705792
 20
434.023532
 30
0
 10
306.705792
 20
433.17046
 30
0
  0
SPLINE
  5
12D
100
AcDbEntity
  8
Layer_1
  6
ByLayer
 62
    7
370
   -1
100
AcDbSpline
210
0
220
0
230
0
 70
    8
 71
    3
 72
    8
 73
    4
 74
    0
 42
1e-007
 43
1e-007
 40
0
 40
0
 40
0
 40
0
 40
1
 40
1
 40
1
 40
1
 10
306.705792
 20
433.17046
 30
0
 10
306.705792
 20
432.476748
 30
0
 10
306.705792
 20
431.721188
 30
0
 10
306.705792
 20
430.917036
 30
0
  0
SPLINE
  5
12E
100
AcDbEntity
  8
Layer_1
  6
ByLayer
 62
    7
370
   -1
100
AcDbSpline
210
0
220
0
230
0
 70
    8
 71
    3
 72
    8
 73
    4
 74
    0
 42
1e-007
 43
1e-007
 40
0
 40
0
 40
0
 40
0
 40
1
 40
1
 40
1
 40
1
 10
306.705792
 20
430.917036
 30
0
 10
306.705792
 20
430.201196
 30
0
 10
306.705792
 20
429.44686
 30
0
 10
306.705792
 20
428.663372
 30
0
  0
SPLINE
  5
12F
100
AcDbEntity
  8
Layer_1
  6
ByLayer
 62
    7
370
   -1
100
AcDbSpline
210
0
220
0
230
0
 70
    8
 71
    3
 72
    8
 73
    4
 74
    0
 42
1e-007
 43
1e-007
 40
0
 40
0
 40
0
 40
0
 40
1
 40
1
 40
1
 40
1
 10
306.705792
 20
428.663372
 30
0
 10
306.705792
 20
427.934788
 30
0
 10
306.705792
 20
427.180996
 30
0
 10
306.705792
 20
426.409524
 30
0
  0
SPLINE
  5
130
100
AcDbEntity
  8
Layer_1
  6
ByLayer
 62
    7
370
   -1
100
AcDbSpline
210
0
220
0
230
0
 70
    8
 71
    3
 72
    8
 73
    4
 74
    0
 42
1e-007
 43
1e-007
 40
0
 40
0
 40
0
 40
0
 40
1
 40
1
 40
1
 40
1
 10
306.705792
 20
426.409524
 30
0
 10
306.705792
 20
425.671948
 30
0
 10
306.705792
 20
424.918212
 30
0
 10
306.705792
 20
424.154884
 30
0
  0
SPLINE
  5
131
100
AcDbEntity
  8
Layer_1
  6
ByLayer
 62
    7
370
   -1
100
AcDbSpline
210
0
220
0
230
0
 70
    8
 71
    3
 72
    8
 73
    4
 74
    0
 42
1e-007
 43
1e-007
 40
0
 40
0
 40
0
 40
0
 40
1
 40
1
 40
1
 40
1
 10
306.705792
 20
424.154884
 30
0
 10
306.705792
 20
423.410588
 30
0
 10
306.705792
 20
422.657172
 30
0
 10
306.705792
 20
421.90074
 30
0
  0
SPLINE
  5
132
100
AcDbEntity
  8
Layer_1
  6
ByLayer
 62
    7
370
   -1
100
AcDbSpline
210
0
220
0
230
0
 70
    8
 71
    3
 72
    8
 73
    4
 74
    0
 42
1e-007
 43
1e-007
 40
0
 40
0
 40
0
 40
0
 40
1
 40
1
 40
1
 40
1
 10
306.705792
 20
421.90074
 30
0
 10
306.705792
 20
421.150292
 30
0
 10
306.705792
 20
420.396868
 30
0
 10
306.705792
 20
419.64642
 30
0
  0
SPLINE
  5
133
100
AcDbEntity
  8
Layer_1
  6
ByLayer
 62
    7
370
   -1
100
AcDbSpline
210
0
220
0
230
0
 70
    8
 71
    3
 72
    8
 73
    4
 74
    0
 42
1e-007
 43
1e-007
 40
0
 40
0
 40
0
 40
0
 40
1
 40
1
 40
1
 40
1
 10
306.705792
 20
419.64642
 30
0
 10
306.705792
 20
418.890092
 30
0
 10
306.705792
 20
418.13678
 30
0
 10
306.705792
 20
417.392596
 30
0
  0
SPLINE
  5
134
100
AcDbEntity
  8
Layer_1
  6
ByLayer
 62
    7
370
   -1
100
AcDbSpline
210
0
220
0
230
0
 70
    8
 71
    3
 72
    8
 73
    4
 74
    0
 42
1e-007
 43
1e-007
 40
0
 40
0
 40
0
 40
0
 40
1
 40
1
 40
1
 40
1
 10
306.705792
 20
417.392596
 30
0
 10
306.705792
 20
416.629764
 30
0
 10
306.705792
 20
415.876516
 30
0
 10
306.705792
 20
415.139404
 30
0
  0
SPLINE
  5
135
100
AcDbEntity
  8
Layer_1
  6
ByLayer
 62
    7
370
   -1
100
AcDbSpline
210
0
220
0
230
0
 70
    8
 71
    3
 72
    8
 73
    4
 74
    0
 42
1e-007
 43
1e-007
 40
0
 40
0
 40
0
 40
0
 40
1
 40
1
 40
1
 40
1
 10
306.705792
 20
415.139404
 30
0
 10
306.705792
 20
414.367572
 30
0
 10
306.705792
 20
413.613436
 30
0
 10
306.705792
 20
412.884532
 30
0
  0
SPLINE
  5
136
100
AcDbEntity
  8
Layer_1
  6
ByLayer
 62
    7
370
   -1
100
AcDbSpline
210
0
220
0
230
0
 70
    8
 71
    3
 72
    8
 73
    4
 74
    0
 42
1e-007
 43
1e-007
 40
0
 40
0
 40
0
 40
0
 40
1
 40
1
 40
1
 40
1
 10
306.705792
 20
412.884532
 30
0
 10
306.705792
 20
412.10098
 30
0
 10
306.705792
 20
411.34658
 30
0
 10
306.705792
 20
410.6307
 30
0
  0
SPLINE
  5
137
100
AcDbEntity
  8
Layer_1
  6
ByLayer
 62
    7
370
   -1
100
AcDbSpline
210
0
220
0
230
0
 70
    8
 71
    3
 72
    8
 73
    4
 74
    0
 42
1e-007
 43
1e-007
 40
0
 40
0
 40
0
 40
0
 40
1
 40
1
 40
1
 40
1
 10
306.705792
 20
410.6307
 30
0
 10
306.705792
 20
409.8265
 30
0
 10
306.705792
 20
409.070908
 30
0
 10
306.705792
 20
408.377188
 30
0
  0
SPLINE
  5
138
100
AcDbEntity
  8
Layer_1
  6
ByLayer
 62
    7
370
   -1
100
AcDbSpline
210
0
220
0
230
0
 70
    8
 71
    3
 72
    8
 73
    4
 74
    0
 42
1e-007
 43
1e-007
 40
0
 40
0
 40
0
 40
0
 40
1
 40
1
 40
1
 40
1
 10
306.705792
 20
408.377188
 30
0
 10
306.705792
 20
407.524188
 30
0
 10
306.705792
 20
406.764732
 30
0
 10
306.705792
 20
406.123492
 30
0
  0
SPLINE
  5
139
100
AcDbEntity
  8
Layer_1
  6
ByLayer
 62
    7
370
   -1
100
AcDbSpline
210
0
220
0
230
0
 70
    8
 71
    3
 72
    8
 73
    4
 74
    0
 42
1e-007
 43
1e-007
 40
0
 40
0
 40
0
 40
0
 40
1
 40
1
 40
1
 40
1
 10
306.705792
 20
406.123492
 30
0
 10
306.705792
 20
404.709556
 30
0
 10
306.705792
 20
403.870372
 30
0
 10
306.705792
 20
403.870372
 30
0
  0
SPLINE
  5
13A
100
AcDbEntity
  8
Layer_1
  6
ByLayer
 62
    7
370
   -1
100
AcDbSpline
210
0
220
0
230
0
 70
    8
 71
    3
 72
    8
 73
    4
 74
    0
 42
1e-007
 43
1e-007
 40
0
 40
0
 40
0
 40
0
 40
1
 40
1
 40
1
 40
1
 10
316.756792
 20
437.471348
 30
0
 10
316.756792
 20
437.471348
 30
0
 10
316.756792
 20
436.644604
 30
0
 10
316.756792
 20
435.251676
 30
0
  0
SPLINE
  5
13B
100
AcDbEntity
  8
Layer_1
  6
ByLayer
 62
    7
370
   -1
100
AcDbSpline
210
0
220
0
230
0
 70
    8
 71
    3
 72
    8
 73
    4
 74
    0
 42
1e-007
 43
1e-007
 40
0
 40
0
 40
0
 40
0
 40
1
 40
1
 40
1
 40
1
 10
316.756792
 20
435.251676
 30
0
 10
316.756792
 20
434.620156
 30
0
 10
316.756792
 20
433.87226
 30
0
 10
316.756792
 20
433.03226
 30
0
  0
SPLINE
  5
13C
100
AcDbEntity
  8
Layer_1
  6
ByLayer
 62
    7
370
   -1
100
AcDbSpline
210
0
220
0
230
0
 70
    8
 71
    3
 72
    8
 73
    4
 74
    0
 42
1e-007
 43
1e-007
 40
0
 40
0
 40
0
 40
0
 40
1
 40
1
 40
1
 40
1
 10
316.756792
 20
433.03226
 30
0
 10
316.756792
 20
432.349188
 30
0
 10
316.756792
 20
431.605212
 30
0
 10
316.756792
 20
430.813388
 30
0
  0
SPLINE
  5
13D
100
AcDbEntity
  8
Layer_1
  6
ByLayer
 62
    7
370
   -1
100
AcDbSpline
210
0
220
0
230
0
 70
    8
 71
    3
 72
    8
 73
    4
 74
    0
 42
1e-007
 43
1e-007
 40
0
 40
0
 40
0
 40
0
 40
1
 40
1
 40
1
 40
1
 10
316.756792
 20
430.813388
 30
0
 10
316.756792
 20
430.108524
 30
0
 10
316.756792
 20
429.365748
 30
0
 10
316.756792
 20
428.594276
 30
0
  0
SPLINE
  5
13E
100
AcDbEntity
  8
Layer_1
  6
ByLayer
 62
    7
370
   -1
100
AcDbSpline
210
0
220
0
230
0
 70
    8
 71
    3
 72
    8
 73
    4
 74
    0
 42
1e-007
 43
1e-007
 40
0
 40
0
 40
0
 40
0
 40
1
 40
1
 40
1
 40
1
 10
316.756792
 20
428.594276
 30
0
 10
316.756792
 20
427.87686
 30
0
 10
316.756792
 20
427.134628
 30
0
 10
316.756792
 20
426.374988
 30
0
  0
SPLINE
  5
13F
100
AcDbEntity
  8
Layer_1
  6
ByLayer
 62
    7
370
   -1
100
AcDbSpline
210
0
220
0
230
0
 70
    8
 71
    3
 72
    8
 73
    4
 74
    0
 42
1e-007
 43
1e-007
 40
0
 40
0
 40
0
 40
0
 40
1
 40
1
 40
1
 40
1
 10
316.756792
 20
426.374988
 30
0
 10
316.756792
 20
425.648716
 30
0
 10
316.756792
 20
424.906532
 30
0
 10
316.756792
 20
424.154908
 30
0
  0
SPLINE
  5
140
100
AcDbEntity
  8
Layer_1
  6
ByLayer
 62
    7
370
   -1
100
AcDbSpline
210
0
220
0
230
0
 70
    8
 71
    3
 72
    8
 73
    4
 74
    0
 42
1e-007
 43
1e-007
 40
0
 40
0
 40
0
 40
0
 40
1
 40
1
 40
1
 40
1
 10
316.756792
 20
424.154908
 30
0
 10
316.756792
 20
423.422028
 30
0
 10
316.756792
 20
422.680164
 30
0
 10
316.756792
 20
421.935324
 30
0
  0
SPLINE
  5
141
100
AcDbEntity
  8
Layer_1
  6
ByLayer
 62
    7
370
   -1
100
AcDbSpline
210
0
220
0
230
0
 70
    8
 71
    3
 72
    8
 73
    4
 74
    0
 42
1e-007
 43
1e-007
 40
0
 40
0
 40
0
 40
0
 40
1
 40
1
 40
1
 40
1
 10
316.756792
 20
421.935324
 30
0
 10
316.756792
 20
421.19638
 30
0
 10
316.756792
 20
420.454508
 30
0
 10
316.756792
 20
419.715564
 30
0
  0
SPLINE
  5
142
100
AcDbEntity
  8
Layer_1
  6
ByLayer
 62
    7
370
   -1
100
AcDbSpline
210
0
220
0
230
0
 70
    8
 71
    3
 72
    8
 73
    4
 74
    0
 42
1e-007
 43
1e-007
 40
0
 40
0
 40
0
 40
0
 40
1
 40
1
 40
1
 40
1
 10
316.756792
 20
419.715564
 30
0
 10
316.756792
 20
418.970828
 30
0
 10
316.756792
 20
418.229076
 30
0
 10
316.756792
 20
417.496292
 30
0
  0
SPLINE
  5
143
100
AcDbEntity
  8
Layer_1
  6
ByLayer
 62
    7
370
   -1
100
AcDbSpline
210
0
220
0
230
0
 70
    8
 71
    3
 72
    8
 73
    4
 74
    0
 42
1e-007
 43
1e-007
 40
0
 40
0
 40
0
 40
0
 40
1
 40
1
 40
1
 40
1
 10
316.756792
 20
417.496292
 30
0
 10
316.756792
 20
416.745156
 30
0
 10
316.756792
 20
416.00346
 30
0
 10
316.756792
 20
415.277652
 30
0
  0
SPLINE
  5
144
100
AcDbEntity
  8
Layer_1
  6
ByLayer
 62
    7
370
   -1
100
AcDbSpline
210
0
220
0
230
0
 70
    8
 71
    3
 72
    8
 73
    4
 74
    0
 42
1e-007
 43
1e-007
 40
0
 40
0
 40
0
 40
0
 40
1
 40
1
 40
1
 40
1
 10
316.756792
 20
415.277652
 30
0
 10
316.756792
 20
414.517652
 30
0
 10
316.756792
 20
413.775076
 30
0
 10
316.756792
 20
413.057348
 30
0
  0
SPLINE
  5
145
100
AcDbEntity
  8
Layer_1
  6
ByLayer
 62
    7
370
   -1
100
AcDbSpline
210
0
220
0
230
0
 70
    8
 71
    3
 72
    8
 73
    4
 74
    0
 42
1e-007
 43
1e-007
 40
0
 40
0
 40
0
 40
0
 40
1
 40
1
 40
1
 40
1
 10
316.756792
 20
413.057348
 30
0
 10
316.756792
 20
412.285804
 30
0
 10
316.756792
 20
411.54298
 30
0
 10
316.756792
 20
410.838076
 30
0
  0
SPLINE
  5
146
100
AcDbEntity
  8
Layer_1
  6
ByLayer
 62
    7
370
   -1
100
AcDbSpline
210
0
220
0
230
0
 70
    8
 71
    3
 72
    8
 73
    4
 74
    0
 42
1e-007
 43
1e-007
 40
0
 40
0
 40
0
 40
0
 40
1
 40
1
 40
1
 40
1
 10
316.756792
 20
410.838076
 30
0
 10
316.756792
 20
410.046204
 30
0
 10
316.756792
 20
409.302196
 30
0
 10
316.756792
 20
408.619108
 30
0
  0
SPLINE
  5
147
100
AcDbEntity
  8
Layer_1
  6
ByLayer
 62
    7
370
   -1
100
AcDbSpline
210
0
220
0
230
0
 70
    8
 71
    3
 72
    8
 73
    4
 74
    0
 42
1e-007
 43
1e-007
 40
0
 40
0
 40
0
 40
0
 40
1
 40
1
 40
1
 40
1
 10
316.756792
 20
408.619108
 30
0
 10
316.756792
 20
407.779188
 30
0
 10
316.756792
 20
407.03138
 30
0
 10
316.756792
 20
406.399964
 30
0
  0
SPLINE
  5
148
100
AcDbEntity
  8
Layer_1
  6
ByLayer
 62
    7
370
   -1
100
AcDbSpline
210
0
220
0
230
0
 70
    8
 71
    3
 72
    8
 73
    4
 74
    0
 42
1e-007
 43
1e-007
 40
0
 40
0
 40
0
 40
0
 40
1
 40
1
 40
1
 40
1
 10
316.756792
 20
406.399964
 30
0
 10
316.756792
 20
405.007708
 30
0
 10
316.756792
 20
404.181388
 30
0
 10
316.756792
 20
404.181388
 30
0
  0
SPLINE
  5
149
100
AcDbEntity
  8
Layer_1
  6
ByLayer
 62
    7
370
   -1
100
AcDbSpline
210
0
220
0
230
0
 70
    8
 71
    3
 72
    8
 73
    4
 74
    0
 42
1e-007
 43
1e-007
 40
0
 40
0
 40
0
 40
0
 40
1
 40
1
 40
1
 40
1
 10
350.325896
 20
436.27366
 30
0
 10
350.325896
 20
436.27366
 30
0
 10
351.065496
 20
436.27366
 30
0
 10
351.805096
 20
436.27366
 30
0
  0
SPLINE
  5
14A
100
AcDbEntity
  8
Layer_1
  6
ByLayer
 62
    7
370
   -1
100
AcDbSpline
210
0
220
0
230
0
 70
    8
 71
    3
 72
    8
 73
    4
 74
    0
 42
1e-007
 43
1e-007
 40
0
 40
0
 40
0
 40
0
 40
1
 40
1
 40
1
 40
1
 10
351.805096
 20
436.27366
 30
0
 10
352.544688
 20
436.27366
 30
0
 10
353.284288
 20
436.27366
 30
0
 10
353.284288
 20
436.27366
 30
0
  0
SPLINE
  5
14B
100
AcDbEntity
  8
Layer_1
  6
ByLayer
 62
    7
370
   -1
100
AcDbSpline
210
0
220
0
230
0
 70
    8
 71
    3
 72
    8
 73
    4
 74
    0
 42
1e-007
 43
1e-007
 40
0
 40
0
 40
0
 40
0
 40
1
 40
1
 40
1
 40
1
 10
353.284288
 20
436.27366
 30
0
 10
353.284288
 20
436.27366
 30
0
 10
353.284288
 20
435.552276
 30
0
 10
353.284288
 20
434.329188
 30
0
  0
SPLINE
  5
14C
100
AcDbEntity
  8
Layer_1
  6
ByLayer
 62
    7
370
   -1
100
AcDbSpline
210
0
220
0
230
0
 70
    8
 71
    3
 72
    8
 73
    4
 74
    0
 42
1e-007
 43
1e-007
 40
0
 40
0
 40
0
 40
0
 40
1
 40
1
 40
1
 40
1
 10
353.284288
 20
434.329188
 30
0
 10
353.284288
 20
433.776428
 30
0
 10
353.284288
 20
433.121204
 30
0
 10
353.284288
 20
432.38378
 30
0
  0
SPLINE
  5
14D
100
AcDbEntity
  8
Layer_1
  6
ByLayer
 62
    7
370
   -1
100
AcDbSpline
210
0
220
0
230
0
 70
    8
 71
    3
 72
    8
 73
    4
 74
    0
 42
1e-007
 43
1e-007
 40
0
 40
0
 40
0
 40
0
 40
1
 40
1
 40
1
 40
1
 10
353.284288
 20
432.38378
 30
0
 10
353.284288
 20
431.78606
 30
0
 10
353.284288
 20
431.13434
 30
0
 10
353.284288
 20
430.43942
 30
0
  0
SPLINE
  5
14E
100
AcDbEntity
  8
Layer_1
  6
ByLayer
 62
    7
370
   -1
100
AcDbSpline
210
0
220
0
230
0
 70
    8
 71
    3
 72
    8
 73
    4
 74
    0
 42
1e-007
 43
1e-007
 40
0
 40
0
 40
0
 40
0
 40
1
 40
1
 40
1
 40
1
 10
353.284288
 20
430.43942
 30
0
 10
353.284288
 20
429.822644
 30
0
 10
353.284288
 20
429.171828
 30
0
 10
353.284288
 20
428.494532
 30
0
  0
SPLINE
  5
14F
100
AcDbEntity
  8
Layer_1
  6
ByLayer
 62
    7
370
   -1
100
AcDbSpline
210
0
220
0
230
0
 70
    8
 71
    3
 72
    8
 73
    4
 74
    0
 42
1e-007
 43
1e-007
 40
0
 40
0
 40
0
 40
0
 40
1
 40
1
 40
1
 40
1
 10
353.284288
 20
428.494532
 30
0
 10
353.284288
 20
427.867004
 30
0
 10
353.284288
 20
427.216732
 30
0
 10
353.284288
 20
426.54974
 30
0
  0
SPLINE
  5
150
100
AcDbEntity
  8
Layer_1
  6
ByLayer
 62
    7
370
   -1
100
AcDbSpline
210
0
220
0
230
0
 70
    8
 71
    3
 72
    8
 73
    4
 74
    0
 42
1e-007
 43
1e-007
 40
0
 40
0
 40
0
 40
0
 40
1
 40
1
 40
1
 40
1
 10
353.284288
 20
426.54974
 30
0
 10
353.284288
 20
425.915148
 30
0
 10
353.284288
 20
425.265412
 30
0
 10
353.284288
 20
424.605708
 30
0
  0
SPLINE
  5
151
100
AcDbEntity
  8
Layer_1
  6
ByLayer
 62
    7
370
   -1
100
AcDbSpline
210
0
220
0
230
0
 70
    8
 71
    3
 72
    8
 73
    4
 74
    0
 42
1e-007
 43
1e-007
 40
0
 40
0
 40
0
 40
0
 40
1
 40
1
 40
1
 40
1
 10
353.284288
 20
424.605708
 30
0
 10
353.284288
 20
423.965468
 30
0
 10
353.284288
 20
423.315836
 30
0
 10
353.284288
 20
422.66154
 30
0
  0
SPLINE
  5
152
100
AcDbEntity
  8
Layer_1
  6
ByLayer
 62
    7
370
   -1
100
AcDbSpline
210
0
220
0
230
0
 70
    8
 71
    3
 72
    8
 73
    4
 74
    0
 42
1e-007
 43
1e-007
 40
0
 40
0
 40
0
 40
0
 40
1
 40
1
 40
1
 40
1
 10
353.284288
 20
422.66154
 30
0
 10
353.284288
 20
422.016124
 30
0
 10
353.284288
 20
421.366172
 30
0
 10
353.284288
 20
420.71622
 30
0
  0
SPLINE
  5
153
100
AcDbEntity
  8
Layer_1
  6
ByLayer
 62
    7
370
   -1
100
AcDbSpline
210
0
220
0
230
0
 70
    8
 71
    3
 72
    8
 73
    4
 74
    0
 42
1e-007
 43
1e-007
 40
0
 40
0
 40
0
 40
0
 40
1
 40
1
 40
1
 40
1
 10
353.284288
 20
420.71622
 30
0
 10
353.284288
 20
420.06654
 30
0
 10
353.284288
 20
419.416852
 30
0
 10
353.284288
 20
418.771692
 30
0
  0
SPLINE
  5
154
100
AcDbEntity
  8
Layer_1
  6
ByLayer
 62
    7
370
   -1
100
AcDbSpline
210
0
220
0
230
0
 70
    8
 71
    3
 72
    8
 73
    4
 74
    0
 42
1e-007
 43
1e-007
 40
0
 40
0
 40
0
 40
0
 40
1
 40
1
 40
1
 40
1
 10
353.284288
 20
418.771692
 30
0
 10
353.284288
 20
418.11702
 30
0
 10
353.284288
 20
417.467012
 30
0
 10
353.284288
 20
416.826404
 30
0
  0
SPLINE
  5
155
100
AcDbEntity
  8
Layer_1
  6
ByLayer
 62
    7
370
   -1
100
AcDbSpline
210
0
220
0
230
0
 70
    8
 71
    3
 72
    8
 73
    4
 74
    0
 42
1e-007
 43
1e-007
 40
0
 40
0
 40
0
 40
0
 40
1
 40
1
 40
1
 40
1
 10
353.284288
 20
416.826404
 30
0
 10
353.284288
 20
416.166292
 30
0
 10
353.284288
 20
415.516164
 30
0
 10
353.284288
 20
414.881196
 30
0
  0
SPLINE
  5
156
100
AcDbEntity
  8
Layer_1
  6
ByLayer
 62
    7
370
   -1
100
AcDbSpline
210
0
220
0
230
0
 70
    8
 71
    3
 72
    8
 73
    4
 74
    0
 42
1e-007
 43
1e-007
 40
0
 40
0
 40
0
 40
0
 40
1
 40
1
 40
1
 40
1
 10
353.284288
 20
414.881196
 30
0
 10
353.284288
 20
414.214452
 30
0
 10
353.284288
 20
413.564428
 30
0
 10
353.284288
 20
412.937108
 30
0
  0
SPLINE
  5
157
100
AcDbEntity
  8
Layer_1
  6
ByLayer
 62
    7
370
   -1
100
AcDbSpline
210
0
220
0
230
0
 70
    8
 71
    3
 72
    8
 73
    4
 74
    0
 42
1e-007
 43
1e-007
 40
0
 40
0
 40
0
 40
0
 40
1
 40
1
 40
1
 40
1
 10
353.284288
 20
412.937108
 30
0
 10
353.284288
 20
412.259588
 30
0
 10
353.284288
 20
411.608572
 30
0
 10
353.284288
 20
410.991604
 30
0
  0
SPLINE
  5
158
100
AcDbEntity
  8
Layer_1
  6
ByLayer
 62
    7
370
   -1
100
AcDbSpline
210
0
220
0
230
0
 70
    8
 71
    3
 72
    8
 73
    4
 74
    0
 42
1e-007
 43
1e-007
 40
0
 40
0
 40
0
 40
0
 40
1
 40
1
 40
1
 40
1
 10
353.284288
 20
410.991604
 30
0
 10
353.284288
 20
410.296468
 30
0
 10
353.284288
 20
409.644564
 30
0
 10
353.284288
 20
409.0467
 30
0
  0
SPLINE
  5
159
100
AcDbEntity
  8
Layer_1
  6
ByLayer
 62
    7
370
   -1
100
AcDbSpline
210
0
220
0
230
0
 70
    8
 71
    3
 72
    8
 73
    4
 74
    0
 42
1e-007
 43
1e-007
 40
0
 40
0
 40
0
 40
0
 40
1
 40
1
 40
1
 40
1
 10
353.284288
 20
409.0467
 30
0
 10
353.284288
 20
408.309972
 30
0
 10
353.284288
 20
407.6553
 30
0
 10
353.284288
 20
407.102916
 30
0
  0
SPLINE
  5
15A
100
AcDbEntity
  8
Layer_1
  6
ByLayer
 62
    7
370
   -1
100
AcDbSpline
210
0
220
0
230
0
 70
    8
 71
    3
 72
    8
 73
    4
 74
    0
 42
1e-007
 43
1e-007
 40
0
 40
0
 40
0
 40
0
 40
1
 40
1
 40
1
 40
1
 10
353.284288
 20
407.102916
 30
0
 10
353.284288
 20
405.879356
 30
0
 10
353.284288
 20
405.15766
 30
0
 10
353.284288
 20
405.15766
 30
0
  0
SPLINE
  5
15B
100
AcDbEntity
  8
Layer_1
  6
ByLayer
 62
    7
370
   -1
100
AcDbSpline
210
0
220
0
230
0
 70
    8
 71
    3
 72
    8
 73
    4
 74
    0
 42
1e-007
 43
1e-007
 40
0
 40
0
 40
0
 40
0
 40
1
 40
1
 40
1
 40
1
 10
353.284288
 20
405.15766
 30
0
 10
353.284288
 20
405.15766
 30
0
 10
352.437552
 20
405.15766
 30
0
 10
351.590808
 20
405.15766
 30
0
  0
SPLINE
  5
15C
100
AcDbEntity
  8
Layer_1
  6
ByLayer
 62
    7
370
   -1
100
AcDbSpline
210
0
220
0
230
0
 70
    8
 71
    3
 72
    8
 73
    4
 74
    0
 42
1e-007
 43
1e-007
 40
0
 40
0
 40
0
 40
0
 40
1
 40
1
 40
1
 40
1
 10
351.590808
 20
405.15766
 30
0
 10
350.744072
 20
405.15766
 30
0
 10
349.897328
 20
405.15766
 30
0
 10
349.897328
 20
405.15766
 30
0
  0
SPLINE
  5
15D
100
AcDbEntity
  8
Layer_1
  6
ByLayer
 62
    7
370
   -1
100
AcDbSpline
210
0
220
0
230
0
 70
    8
 71
    3
 72
    8
 73
    4
 74
    0
 42
1e-007
 43
1e-007
 40
0
 40
0
 40
0
 40
0
 40
1
 40
1
 40
1
 40
1
 10
311.731296
 20
403.35766
 30
0
 10
312.506792
 20
403.35766
 30
0
 10
313.27052
 20
403.40806
 30
0
 10
314.0194
 20
403.5057
 30
0
  0
SPLINE
  5
15E
100
AcDbEntity
  8
Layer_1
  6
ByLayer
 62
    7
370
   -1
100
AcDbSpline
210
0
220
0
230
0
 70
    8
 71
    3
 72
    8
 73
    4
 74
    0
 42
1e-007
 43
1e-007
 40
0
 40
0
 40
0
 40
0
 40
1
 40
1
 40
1
 40
1
 10
314.0194
 20
403.5057
 30
0
 10
314.785664
 20
403.605628
 30
0
 10
315.536376
 20
403.75506
 30
0
 10
316.268216
 20
403.950684
 30
0
  0
SPLINE
  5
15F
100
AcDbEntity
  8
Layer_1
  6
ByLayer
 62
    7
370
   -1
100
AcDbSpline
210
0
220
0
230
0
 70
    8
 71
    3
 72
    8
 73
    4
 74
    0
 42
1e-007
 43
1e-007
 40
0
 40
0
 40
0
 40
0
 40
1
 40
1
 40
1
 40
1
 10
316.268216
 20
403.950684
 30
0
 10
317.012312
 20
404.14958
 30
0
 10
317.736896
 20
404.396228
 30
0
 10
318.438496
 20
404.68714
 30
0
  0
SPLINE
  5
160
100
AcDbEntity
  8
Layer_1
  6
ByLayer
 62
    7
370
   -1
100
AcDbSpline
210
0
220
0
230
0
 70
    8
 71
    3
 72
    8
 73
    4
 74
    0
 42
1e-007
 43
1e-007
 40
0
 40
0
 40
0
 40
0
 40
1
 40
1
 40
1
 40
1
 10
318.438496
 20
404.68714
 30
0
 10
319.148584
 20
404.98158
 30
0
 10
319.83512
 20
405.321356
 30
0
 10
320.494496
 20
405.702868
 30
0
  0
SPLINE
  5
161
100
AcDbEntity
  8
Layer_1
  6
ByLayer
 62
    7
370
   -1
100
AcDbSpline
210
0
220
0
230
0
 70
    8
 71
    3
 72
    8
 73
    4
 74
    0
 42
1e-007
 43
1e-007
 40
0
 40
0
 40
0
 40
0
 40
1
 40
1
 40
1
 40
1
 10
320.494496
 20
405.702868
 30
0
 10
321.157912
 20
406.086716
 30
0
 10
321.793832
 20
406.512804
 30
0
 10
322.398568
 20
406.977468
 30
0
  0
SPLINE
  5
162
100
AcDbEntity
  8
Layer_1
  6
ByLayer
 62
    7
370
   -1
100
AcDbSpline
210
0
220
0
230
0
 70
    8
 71
    3
 72
    8
 73
    4
 74
    0
 42
1e-007
 43
1e-007
 40
0
 40
0
 40
0
 40
0
 40
1
 40
1
 40
1
 40
1
 10
322.398568
 20
406.977468
 30
0
 10
323.00568
 20
407.44394
 30
0
 10
323.581368
 20
407.949292
 30
0
 10
324.12192
 20
408.48978
 30
0
  0
SPLINE
  5
163
100
AcDbEntity
  8
Layer_1
  6
ByLayer
 62
    7
370
   -1
100
AcDbSpline
210
0
220
0
230
0
 70
    8
 71
    3
 72
    8
 73
    4
 74
    0
 42
1e-007
 43
1e-007
 40
0
 40
0
 40
0
 40
0
 40
1
 40
1
 40
1
 40
1
 10
324.12192
 20
408.48978
 30
0
 10
324.662304
 20
409.030116
 30
0
 10
325.167568
 20
409.605572
 30
0
 10
325.633992
 20
410.212436
 30
0
  0
SPLINE
  5
164
100
AcDbEntity
  8
Layer_1
  6
ByLayer
 62
    7
370
   -1
100
AcDbSpline
210
0
220
0
230
0
 70
    8
 71
    3
 72
    8
 73
    4
 74
    0
 42
1e-007
 43
1e-007
 40
0
 40
0
 40
0
 40
0
 40
1
 40
1
 40
1
 40
1
 10
325.633992
 20
410.212436
 30
0
 10
326.099104
 20
410.817596
 30
0
 10
326.5256
 20
411.453988
 30
0
 10
326.909776
 20
412.117924
 30
0
  0
SPLINE
  5
165
100
AcDbEntity
  8
Layer_1
  6
ByLayer
 62
    7
370
   -1
100
AcDbSpline
210
0
220
0
230
0
 70
    8
 71
    3
 72
    8
 73
    4
 74
    0
 42
1e-007
 43
1e-007
 40
0
 40
0
 40
0
 40
0
 40
1
 40
1
 40
1
 40
1
 10
326.909776
 20
412.117924
 30
0
 10
327.291344
 20
412.77734
 30
0
 10
327.631168
 20
413.463916
 30
0
 10
327.925648
 20
414.174052
 30
0
  0
SPLINE
  5
166
100
AcDbEntity
  8
Layer_1
  6
ByLayer
 62
    7
370
   -1
100
AcDbSpline
210
0
220
0
230
0
 70
    8
 71
    3
 72
    8
 73
    4
 74
    0
 42
1e-007
 43
1e-007
 40
0
 40
0
 40
0
 40
0
 40
1
 40
1
 40
1
 40
1
 10
327.925648
 20
414.174052
 30
0
 10
328.2166
 20
414.875708
 30
0
 10
328.463288
 20
415.600364
 30
0
 10
328.662216
 20
416.344532
 30
0
  0
SPLINE
  5
167
100
AcDbEntity
  8
Layer_1
  6
ByLayer
 62
    7
370
   -1
100
AcDbSpline
210
0
220
0
230
0
 70
    8
 71
    3
 72
    8
 73
    4
 74
    0
 42
1e-007
 43
1e-007
 40
0
 40
0
 40
0
 40
0
 40
1
 40
1
 40
1
 40
1
 10
328.662216
 20
416.344532
 30
0
 10
328.857904
 20
417.07658
 30
0
 10
329.007376
 20
417.827508
 30
0
 10
329.107312
 20
418.593996
 30
0
  0
SPLINE
  5
168
100
AcDbEntity
  8
Layer_1
  6
ByLayer
 62
    7
370
   -1
100
AcDbSpline
210
0
220
0
230
0
 70
    8
 71
    3
 72
    8
 73
    4
 74
    0
 42
1e-007
 43
1e-007
 40
0
 40
0
 40
0
 40
0
 40
1
 40
1
 40
1
 40
1
 10
329.107312
 20
418.593996
 30
0
 10
329.204936
 20
419.342732
 30
0
 10
329.255296
 20
420.106316
 30
0
 10
329.255296
 20
420.88166
 30
0
  0
SPLINE
  5
169
100
AcDbEntity
  8
Layer_1
  6
ByLayer
 62
    7
370
   -1
100
AcDbSpline
210
0
220
0
230
0
 70
    8
 71
    3
 72
    8
 73
    4
 74
    0
 42
1e-007
 43
1e-007
 40
0
 40
0
 40
0
 40
0
 40
1
 40
1
 40
1
 40
1
 10
329.255296
 20
420.88166
 30
0
 10
329.255296
 20
421.657156
 30
0
 10
329.204896
 20
422.420884
 30
0
 10
329.107256
 20
423.169764
 30
0
  0
SPLINE
  5
16A
100
AcDbEntity
  8
Layer_1
  6
ByLayer
 62
    7
370
   -1
100
AcDbSpline
210
0
220
0
230
0
 70
    8
 71
    3
 72
    8
 73
    4
 74
    0
 42
1e-007
 43
1e-007
 40
0
 40
0
 40
0
 40
0
 40
1
 40
1
 40
1
 40
1
 10
329.107256
 20
423.169764
 30
0
 10
329.007328
 20
423.936028
 30
0
 10
328.857896
 20
424.68674
 30
0
 10
328.662272
 20
425.41858
 30
0
  0
SPLINE
  5
16B
100
AcDbEntity
  8
Layer_1
  6
ByLayer
 62
    7
370
   -1
100
AcDbSpline
210
0
220
0
230
0
 70
    8
 71
    3
 72
    8
 73
    4
 74
    0
 42
1e-007
 43
1e-007
 40
0
 40
0
 40
0
 40
0
 40
1
 40
1
 40
1
 40
1
 10
328.662272
 20
425.41858
 30
0
 10
328.463376
 20
426.162676
 30
0
 10
328.216728
 20
426.88726
 30
0
 10
327.925816
 20
427.58886
 30
0
  0
SPLINE
  5
16C
100
AcDbEntity
  8
Layer_1
  6
ByLayer
 62
    7
370
   -1
100
AcDbSpline
210
0
220
0
230
0
 70
    8
 71
    3
 72
    8
 73
    4
 74
    0
 42
1e-007
 43
1e-007
 40
0
 40
0
 40
0
 40
0
 40
1
 40
1
 40
1
 40
1
 10
327.925816
 20
427.58886
 30
0
 10
327.631376
 20
428.298948
 30
0
 10
327.2916
 20
428.985484
 30
0
 10
326.910088
 20
429.64486
 30
0
  0
SPLINE
  5
16D
100
AcDbEntity
  8
Layer_1
  6
ByLayer
 62
    7
370
   -1
100
AcDbSpline
210
0
220
0
230
0
 70
    8
 71
    3
 72
    8
 73
    4
 74
    0
 42
1e-007
 43
1e-007
 40
0
 40
0
 40
0
 40
0
 40
1
 40
1
 40
1
 40
1
 10
326.910088
 20
429.64486
 30
0
 10
326.52624
 20
430.308276
 30
0
 10
326.100152
 20
430.944196
 30
0
 10
325.635488
 20
431.548932
 30
0
  0
SPLINE
  5
16E
100
AcDbEntity
  8
Layer_1
  6
ByLayer
 62
    7
370
   -1
100
AcDbSpline
210
0
220
0
230
0
 70
    8
 71
    3
 72
    8
 73
    4
 74
    0
 42
1e-007
 43
1e-007
 40
0
 40
0
 40
0
 40
0
 40
1
 40
1
 40
1
 40
1
 10
325.635488
 20
431.548932
 30
0
 10
325.169016
 20
432.156044
 30
0
 10
324.663664
 20
432.731732
 30
0
 10
324.123176
 20
433.272284
 30
0
  0
SPLINE
  5
16F
100
AcDbEntity
  8
Layer_1
  6
ByLayer
 62
    7
370
   -1
100
AcDbSpline
210
0
220
0
230
0
 70
    8
 71
    3
 72
    8
 73
    4
 74
    0
 42
1e-007
 43
1e-007
 40
0
 40
0
 40
0
 40
0
 40
1
 40
1
 40
1
 40
1
 10
324.123176
 20
433.272284
 30
0
 10
323.58284
 20
433.812668
 30
0
 10
323.007384
 20
434.317932
 30
0
 10
322.40052
 20
434.784356
 30
0
  0
SPLINE
  5
170
100
AcDbEntity
  8
Layer_1
  6
ByLayer
 62
    7
370
   -1
100
AcDbSpline
210
0
220
0
230
0
 70
    8
 71
    3
 72
    8
 73
    4
 74
    0
 42
1e-007
 43
1e-007
 40
0
 40
0
 40
0
 40
0
 40
1
 40
1
 40
1
 40
1
 10
322.40052
 20
434.784356
 30
0
 10
321.79536
 20
435.249468
 30
0
 10
321.158968
 20
435.675964
 30
0
 10
320.495032
 20
436.06014
 30
0
  0
SPLINE
  5
171
100
AcDbEntity
  8
Layer_1
  6
ByLayer
 62
    7
370
   -1
100
AcDbSpline
210
0
220
0
230
0
 70
    8
 71
    3
 72
    8
 73
    4
 74
    0
 42
1e-007
 43
1e-007
 40
0
 40
0
 40
0
 40
0
 40
1
 40
1
 40
1
 40
1
 10
320.495032
 20
436.06014
 30
0
 10
319.835616
 20
436.441708
 30
0
 10
319.14904
 20
436.781532
 30
0
 10
318.438904
 20
437.076012
 30
0
  0
SPLINE
  5
172
100
AcDbEntity
  8
Layer_1
  6
ByLayer
 62
    7
370
   -1
100
AcDbSpline
210
0
220
0
230
0
 70
    8
 71
    3
 72
    8
 73
    4
 74
    0
 42
1e-007
 43
1e-007
 40
0
 40
0
 40
0
 40
0
 40
1
 40
1
 40
1
 40
1
 10
318.438904
 20
437.076012
 30
0
 10
317.737248
 20
437.366964
 30
0
 10
317.012592
 20
437.613652
 30
0
 10
316.268424
 20
437.81258
 30
0
  0
SPLINE
  5
173
100
AcDbEntity
  8
Layer_1
  6
ByLayer
 62
    7
370
   -1
100
AcDbSpline
210
0
220
0
230
0
 70
    8
 71
    3
 72
    8
 73
    4
 74
    0
 42
1e-007
 43
1e-007
 40
0
 40
0
 40
0
 40
0
 40
1
 40
1
 40
1
 40
1
 10
316.268424
 20
437.81258
 30
0
 10
315.536376
 20
438.008268
 30
0
 10
314.785448
 20
438.15774
 30
0
 10
314.01896
 20
438.257676
 30
0
  0
SPLINE
  5
174
100
AcDbEntity
  8
Layer_1
  6
ByLayer
 62
    7
370
   -1
100
AcDbSpline
210
0
220
0
230
0
 70
    8
 71
    3
 72
    8
 73
    4
 74
    0
 42
1e-007
 43
1e-007
 40
0
 40
0
 40
0
 40
0
 40
1
 40
1
 40
1
 40
1
 10
314.01896
 20
438.257676
 30
0
 10
313.270224
 20
438.3553
 30
0
 10
312.50664
 20
438.40566
 30
0
 10
311.731296
 20
438.40566
 30
0
  0
SPLINE
  5
175
100
AcDbEntity
  8
Layer_1
  6
ByLayer
 62
    7
370
   -1
100
AcDbSpline
210
0
220
0
230
0
 70
    8
 71
    3
 72
    8
 73
    4
 74
    0
 42
1e-007
 43
1e-007
 40
0
 40
0
 40
0
 40
0
 40
1
 40
1
 40
1
 40
1
 10
311.731296
 20
438.40566
 30
0
 10
310.9558
 20
438.40566
 30
0
 10
310.192072
 20
438.35526
 30
0
 10
309.443192
 20
438.25762
 30
0
  0
SPLINE
  5
176
100
AcDbEntity
  8
Layer_1
  6
ByLayer
 62
    7
370
   -1
100
AcDbSpline
210
0
220
0
230
0
 70
    8
 71
    3
 72
    8
 73
    4
 74
    0
 42
1e-007
 43
1e-007
 40
0
 40
0
 40
0
 40
0
 40
1
 40
1
 40
1
 40
1
 10
309.443192
 20
438.25762
 30
0
 10
308.676928
 20
438.157692
 30
0
 10
307.926216
 20
438.00826
 30
0
 10
307.194376
 20
437.812636
 30
0
  0
SPLINE
  5
177
100
AcDbEntity
  8
Layer_1
  6
ByLayer
 62
    7
370
   -1
100
AcDbSpline
210
0
220
0
230
0
 70
    8
 71
    3
 72
    8
 73
    4
 74
    0
 42
1e-007
 43
1e-007
 40
0
 40
0
 40
0
 40
0
 40
1
 40
1
 40
1
 40
1
 10
307.194376
 20
437.812636
 30
0
 10
306.45028
 20
437.61374
 30
0
 10
305.725696
 20
437.367092
 30
0
 10
305.024096
 20
437.07618
 30
0
  0
SPLINE
  5
178
100
AcDbEntity
  8
Layer_1
  6
ByLayer
 62
    7
370
   -1
100
AcDbSpline
210
0
220
0
230
0
 70
    8
 71
    3
 72
    8
 73
    4
 74
    0
 42
1e-007
 43
1e-007
 40
0
 40
0
 40
0
 40
0
 40
1
 40
1
 40
1
 40
1
 10
305.024096
 20
437.07618
 30
0
 10
304.314008
 20
436.78174
 30
0
 10
303.627472
 20
436.441964
 30
0
 10
302.968096
 20
436.060452
 30
0
  0
SPLINE
  5
179
100
AcDbEntity
  8
Layer_1
  6
ByLayer
 62
    7
370
   -1
100
AcDbSpline
210
0
220
0
230
0
 70
    8
 71
    3
 72
    8
 73
    4
 74
    0
 42
1e-007
 43
1e-007
 40
0
 40
0
 40
0
 40
0
 40
1
 40
1
 40
1
 40
1
 10
302.968096
 20
436.060452
 30
0
 10
302.30468
 20
435.676604
 30
0
 10
301.66876
 20
435.250516
 30
0
 10
301.064024
 20
434.785852
 30
0
  0
SPLINE
  5
17A
100
AcDbEntity
  8
Layer_1
  6
ByLayer
 62
    7
370
   -1
100
AcDbSpline
210
0
220
0
230
0
 70
    8
 71
    3
 72
    8
 73
    4
 74
    0
 42
1e-007
 43
1e-007
 40
0
 40
0
 40
0
 40
0
 40
1
 40
1
 40
1
 40
1
 10
301.064024
 20
434.785852
 30
0
 10
300.456912
 20
434.31938
 30
0
 10
299.881224
 20
433.814028
 30
0
 10
299.340672
 20
433.27354
 30
0
  0
SPLINE
  5
17B
100
AcDbEntity
  8
Layer_1
  6
ByLayer
 62
    7
370
   -1
100
AcDbSpline
210
0
220
0
230
0
 70
    8
 71
    3
 72
    8
 73
    4
 74
    0
 42
1e-007
 43
1e-007
 40
0
 40
0
 40
0
 40
0
 40
1
 40
1
 40
1
 40
1
 10
299.340672
 20
433.27354
 30
0
 10
298.800288
 20
432.733204
 30
0
 10
298.295024
 20
432.157748
 30
0
 10
297.8286
 20
431.550884
 30
0
  0
SPLINE
  5
17C
100
AcDbEntity
  8
Layer_1
  6
ByLayer
 62
    7
370
   -1
100
AcDbSpline
210
0
220
0
230
0
 70
    8
 71
    3
 72
    8
 73
    4
 74
    0
 42
1e-007
 43
1e-007
 40
0
 40
0
 40
0
 40
0
 40
1
 40
1
 40
1
 40
1
 10
297.8286
 20
431.550884
 30
0
 10
297.363488
 20
430.945724
 30
0
 10
296.936992
 20
430.309332
 30
0
 10
296.552816
 20
429.645396
 30
0
  0
SPLINE
  5
17D
100
AcDbEntity
  8
Layer_1
  6
ByLayer
 62
    7
370
   -1
100
AcDbSpline
210
0
220
0
230
0
 70
    8
 71
    3
 72
    8
 73
    4
 74
    0
 42
1e-007
 43
1e-007
 40
0
 40
0
 40
0
 40
0
 40
1
 40
1
 40
1
 40
1
 10
296.552816
 20
429.645396
 30
0
 10
296.171248
 20
428.98598
 30
0
 10
295.831424
 20
428.299404
 30
0
 10
295.536944
 20
427.589268
 30
0
  0
SPLINE
  5
17E
100
AcDbEntity
  8
Layer_1
  6
ByLayer
 62
    7
370
   -1
100
AcDbSpline
210
0
220
0
230
0
 70
    8
 71
    3
 72
    8
 73
    4
 74
    0
 42
1e-007
 43
1e-007
 40
0
 40
0
 40
0
 40
0
 40
1
 40
1
 40
1
 40
1
 10
295.536944
 20
427.589268
 30
0
 10
295.245992
 20
426.887612
 30
0
 10
294.999304
 20
426.162956
 30
0
 10
294.800376
 20
425.418788
 30
0
  0
SPLINE
  5
17F
100
AcDbEntity
  8
Layer_1
  6
ByLayer
 62
    7
370
   -1
100
AcDbSpline
210
0
220
0
230
0
 70
    8
 71
    3
 72
    8
 73
    4
 74
    0
 42
1e-007
 43
1e-007
 40
0
 40
0
 40
0
 40
0
 40
1
 40
1
 40
1
 40
1
 10
294.800376
 20
425.418788
 30
0
 10
294.604688
 20
424.68674
 30
0
 10
294.455216
 20
423.935812
 30
0
 10
294.35528
 20
423.169324
 30
0
  0
SPLINE
  5
180
100
AcDbEntity
  8
Layer_1
  6
ByLayer
 62
    7
370
   -1
100
AcDbSpline
210
0
220
0
230
0
 70
    8
 71
    3
 72
    8
 73
    4
 74
    0
 42
1e-007
 43
1e-007
 40
0
 40
0
 40
0
 40
0
 40
1
 40
1
 40
1
 40
1
 10
294.35528
 20
423.169324
 30
0
 10
294.257656
 20
422.420588
 30
0
 10
294.207296
 20
421.657004
 30
0
 10
294.207296
 20
420.88166
 30
0
  0
SPLINE
  5
181
100
AcDbEntity
  8
Layer_1
  6
ByLayer
 62
    7
370
   -1
100
AcDbSpline
210
0
220
0
230
0
 70
    8
 71
    3
 72
    8
 73
    4
 74
    0
 42
1e-007
 43
1e-007
 40
0
 40
0
 40
0
 40
0
 40
1
 40
1
 40
1
 40
1
 10
294.207296
 20
420.88166
 30
0
 10
294.207296
 20
420.106164
 30
0
 10
294.257696
 20
419.342436
 30
0
 10
294.355336
 20
418.593556
 30
0
  0
SPLINE
  5
182
100
AcDbEntity
  8
Layer_1
  6
ByLayer
 62
    7
370
   -1
100
AcDbSpline
210
0
220
0
230
0
 70
    8
 71
    3
 72
    8
 73
    4
 74
    0
 42
1e-007
 43
1e-007
 40
0
 40
0
 40
0
 40
0
 40
1
 40
1
 40
1
 40
1
 10
294.355336
 20
418.593556
 30
0
 10
294.455264
 20
417.827292
 30
0
 10
294.604696
 20
417.07658
 30
0
 10
294.80032
 20
416.34474
 30
0
  0
SPLINE
  5
183
100
AcDbEntity
  8
Layer_1
  6
ByLayer
 62
    7
370
   -1
100
AcDbSpline
210
0
220
0
230
0
 70
    8
 71
    3
 72
    8
 73
    4
 74
    0
 42
1e-007
 43
1e-007
 40
0
 40
0
 40
0
 40
0
 40
1
 40
1
 40
1
 40
1
 10
294.80032
 20
416.34474
 30
0
 10
294.999216
 20
415.600644
 30
0
 10
295.245864
 20
414.87606
 30
0
 10
295.536776
 20
414.17446
 30
0
  0
SPLINE
  5
184
100
AcDbEntity
  8
Layer_1
  6
ByLayer
 62
    7
370
   -1
100
AcDbSpline
210
0
220
0
230
0
 70
    8
 71
    3
 72
    8
 73
    4
 74
    0
 42
1e-007
 43
1e-007
 40
0
 40
0
 40
0
 40
0
 40
1
 40
1
 40
1
 40
1
 10
295.536776
 20
414.17446
 30
0
 10
295.831216
 20
413.464372
 30
0
 10
296.170992
 20
412.777836
 30
0
 10
296.552504
 20
412.11846
 30
0
  0
SPLINE
  5
185
100
AcDbEntity
  8
Layer_1
  6
ByLayer
 62
    7
370
   -1
100
AcDbSpline
210
0
220
0
230
0
 70
    8
 71
    3
 72
    8
 73
    4
 74
    0
 42
1e-007
 43
1e-007
 40
0
 40
0
 40
0
 40
0
 40
1
 40
1
 40
1
 40
1
 10
296.552504
 20
412.11846
 30
0
 10
296.936352
 20
411.455044
 30
0
 10
297.36244
 20
410.819124
 30
0
 10
297.827104
 20
410.214388
 30
0
  0
SPLINE
  5
186
100
AcDbEntity
  8
Layer_1
  6
ByLayer
 62
    7
370
   -1
100
AcDbSpline
210
0
220
0
230
0
 70
    8
 71
    3
 72
    8
 73
    4
 74
    0
 42
1e-007
 43
1e-007
 40
0
 40
0
 40
0
 40
0
 40
1
 40
1
 40
1
 40
1
 10
297.827104
 20
410.214388
 30
0
 10
298.293576
 20
409.607276
 30
0
 10
298.798928
 20
409.031588
 30
0
 10
299.339416
 20
408.491036
 30
0
  0
SPLINE
  5
187
100
AcDbEntity
  8
Layer_1
  6
ByLayer
 62
    7
370
   -1
100
AcDbSpline
210
0
220
0
230
0
 70
    8
 71
    3
 72
    8
 73
    4
 74
    0
 42
1e-007
 43
1e-007
 40
0
 40
0
 40
0
 40
0
 40
1
 40
1
 40
1
 40
1
 10
299.339416
 20
408.491036
 30
0
 10
299.879752
 20
407.950652
 30
0
 10
300.455208
 20
407.445388
 30
0
 10
301.062072
 20
406.978964
 30
0
  0
SPLINE
  5
188
100
AcDbEntity
  8
Layer_1
  6
ByLayer
 62
    7
370
   -1
100
AcDbSpline
210
0
220
0
230
0
 70
    8
 71
    3
 72
    8
 73
    4
 74
    0
 42
1e-007
 43
1e-007
 40
0
 40
0
 40
0
 40
0
 40
1
 40
1
 40
1
 40
1
 10
301.062072
 20
406.978964
 30
0
 10
301.667232
 20
406.513852
 30
0
 10
302.303624
 20
406.087356
 30
0
 10
302.96756
 20
405.70318
 30
0
  0
SPLINE
  5
189
100
AcDbEntity
  8
Layer_1
  6
ByLayer
 62
    7
370
   -1
100
AcDbSpline
210
0
220
0
230
0
 70
    8
 71
    3
 72
    8
 73
    4
 74
    0
 42
1e-007
 43
1e-007
 40
0
 40
0
 40
0
 40
0
 40
1
 40
1
 40
1
 40
1
 10
302.96756
 20
405.70318
 30
0
 10
303.626976
 20
405.321612
 30
0
 10
304.313552
 20
404.981788
 30
0
 10
305.023688
 20
404.687308
 30
0
  0
SPLINE
  5
18A
100
AcDbEntity
  8
Layer_1
  6
ByLayer
 62
    7
370
   -1
100
AcDbSpline
210
0
220
0
230
0
 70
    8
 71
    3
 72
    8
 73
    4
 74
    0
 42
1e-007
 43
1e-007
 40
0
 40
0
 40
0
 40
0
 40
1
 40
1
 40
1
 40
1
 10
305.023688
 20
404.687308
 30
0
 10
305.725344
 20
404.396356
 30
0
 10
306.45
 20
404.149668
 30
0
 10
307.194168
 20
403.95074
 30
0
  0
SPLINE
  5
18B
100
AcDbEntity
  8
Layer_1
  6
ByLayer
 62
    7
370
   -1
100
AcDbSpline
210
0
220
0
230
0
 70
    8
 71
    3
 72
    8
 73
    4
 74
    0
 42
1e-007
 43
1e-007
 40
0
 40
0
 40
0
 40
0
 40
1
 40
1
 40
1
 40
1
 10
307.194168
 20
403.95074
 30
0
 10
307.926216
 20
403.755052
 30
0
 10
308.677144
 20
403.60558
 30
0
 10
309.443632
 20
403.505644
 30
0
  0
SPLINE
  5
18C
100
AcDbEntity
  8
Layer_1
  6
ByLayer
 62
    7
370
   -1
100
AcDbSpline
210
0
220
0
230
0
 70
    8
 71
    3
 72
    8
 73
    4
 74
    0
 42
1e-007
 43
1e-007
 40
0
 40
0
 40
0
 40
0
 40
1
 40
1
 40
1
 40
1
 10
309.443632
 20
403.505644
 30
0
 10
310.192368
 20
403.40802
 30
0
 10
310.955952
 20
403.35766
 30
0
 10
311.731296
 20
403.35766
 30
0
  0
LWPOLYLINE
  5
18D
100
AcDbEntity
  8
Layer_1
  6
ByLayer
 62
    7
370
   -1
100
AcDbPolyline
 90
    2
 70
    0
 43
0
 10
262.368296
 20
435.190148
 10
262.368296
 20
435.190148
  0
SPLINE
  5
18E
100
AcDbEntity
  8
Layer_1
  6
ByLayer
 62
    7
370
   -1
100
AcDbSpline
210
0
220
0
230
0
 70
    8
 71
    3
 72
    8
 73
    4
 74
    0
 42
1e-007
 43
1e-007
 40
0
 40
0
 40
0
 40
0
 40
1
 40
1
 40
1
 40
1
 10
352.895328
 20
421.024532
 30
0
 10
352.895329
 20
398.132468
 30
0
 10
334.337647
 20
379.574783
 30
0
 10
311.445584
 20
379.57478
 30
0
  0
SPLINE
  5
18F
100
AcDbEntity
  8
Layer_1
  6
ByLayer
 62
    7
370
   -1
100
AcDbSpline
210
0
220
0
230
0
 70
    8
 71
    3
 72
    8
 73
    4
 74
    0
 42
1e-007
 43
1e-007
 40
0
 40
0
 40
0
 40
0
 40
1
 40
1
 40
1
 40
1
 10
311.445584
 20
379.57478
 30
0
 10
300.452426
 20
379.574779
 30
0
 10
289.909519
 20
383.941794
 30
0
 10
282.136183
 20
391.71513
 30
0
  0
SPLINE
  5
190
100
AcDbEntity
  8
Layer_1
  6
ByLayer
 62
    7
370
   -1
100
AcDbSpline
210
0
220
0
230
0
 70
    8
 71
    3
 72
    8
 73
    4
 74
    0
 42
1e-007
 43
1e-007
 40
0
 40
0
 40
0
 40
0
 40
1
 40
1
 40
1
 40
1
 10
282.136183
 20
391.71513
 30
0
 10
274.362846
 20
399.488467
 30
0
 10
269.995831
 20
410.031374
 30
0
 10
269.995832
 20
421.024532
 30
0
  0
SPLINE
  5
191
100
AcDbEntity
  8
Layer_1
  6
ByLayer
 62
    7
370
   -1
100
AcDbSpline
210
0
220
0
230
0
 70
    8
 71
    3
 72
    8
 73
    4
 74
    0
 42
1e-007
 43
1e-007
 40
0
 40
0
 40
0
 40
0
 40
1
 40
1
 40
1
 40
1
 10
269.995832
 20
421.024532
 30
0
 10
269.995835
 20
443.916595
 30
0
 10
288.553521
 20
462.474277
 30
0
 10
311.445584
 20
462.474276
 30
0
  0
SPLINE
  5
192
100
AcDbEntity
  8
Layer_1
  6
ByLayer
 62
    7
370
   -1
100
AcDbSpline
210
0
220
0
230
0
 70
    8
 71
    3
 72
    8
 73
    4
 74
    0
 42
1e-007
 43
1e-007
 40
0
 40
0
 40
0
 40
0
 40
1
 40
1
 40
1
 40
1
 10
311.445584
 20
462.474276
 30
0
 10
334.337644
 20
462.474273
 30
0
 10
352.895325
 20
443.916592
 30
0
 10
352.895328
 20
421.024532
 30
0
  0
LWPOLYLINE
  5
193
100
AcDbEntity
  8
Layer_1
  6
ByLayer
 62
    7
370
   -1
100
AcDbPolyline
 90
    2
 70
    0
 43
0
 10
311.731296
 20
403.35766
 10
311.731296
 20
403.35766
  0
LWPOLYLINE
  5
194
100
AcDbEntity
  8
Layer_1
  6
ByLayer
 62
    7
370
   -1
100
AcDbPolyline
 90
    2
 70
    1
 43
0
 10
352.895328
 20
421.024532
 10
352.895328
 20
421.024532
  0
LWPOLYLINE
  5
195
100
AcDbEntity
  8
0
  6
ByLayer
 62
  256
370
   -1
100
AcDbPolyline
 90
    1
 70
    1
 43
0
 10
262.506296
 20
404.258148
  0
LWPOLYLINE
  5
196
100
AcDbEntity
  8
0
  6
ByLayer
 62
  256
370
   -1
100
AcDbPolyline
 90
    1
 70
    1
 43
0
 10
262.368296
 20
406.595108
  0
ENDSEC
  0
SECTION
  2
OBJECTS
  0
DICTIONARY
  5
C
330
0
100
AcDbDictionary
281
    1
  3
ACAD_GROUP
350
D
  0
DICTIONARY
  5
D
330
C
100
AcDbDictionary
281
    1
  0
ENDSEC
  0
EOF
