<svg viewBox="0 0 36 108">
  <defs/>
  <path fill="none" stroke="#ff0" d="M23.512 61.323l-1.541 1.68-1.826 1.364-2.074.946-2.24.414-2.658-.555-2.22-1.58-1.405-2.322.526-2.558 2.465-1.089 2.734-.065 2.713.378 2.458 1.037 2.094 1.66 1.72 2.049 1.311 2.333.798 2.55.072 2.666-.927 2.491-1.373 2.219-1.539 2.103-1.913 1.765-2.334 1.137-2.578.326-2.575-.378-2.46-.857-1.378-2.53 1.477-2.458 2.701-1.185 2.95-.014 2.664.978 2.426 1.47 2.084 1.926 1.612 2.333.946 2.67-.002 2.823-1.15 2.573-2.08 1.915-2.561 1.214-2.756.68.277 2.5.162 2.51-.308 2.458M17.78 9.495l-.223 2.402.002 2.41.764 2.247 2.871.513 2.577 1.345 1.782 2.286.655 2.83-.308 2.898-1.022 2.733-1.59 2.448-2.085 2.04-2.529 1.45-2.841.63-2.659-.555-2.22-1.58-1.405-2.322.526-2.558 2.465-1.089 2.734-.065 2.713.378 2.458 1.037 2.094 1.66 1.72 2.049 1.311 2.333.798 2.55.072 2.666-.927 2.491-1.373 2.219-1.539 2.103-1.913 1.765-2.334 1.137-2.578.326-2.575-.378-2.46-.857-1.378-2.53 1.477-2.458 2.701-1.185 2.95-.014 2.506.916 2.27 1.403 1.986 1.785 1.623 2.12 1.121 2.42.417 2.631-.455 2.622-1.266 2.343-1.364 2.079-1.775 1.748-1.99 1.501"/>
</svg>
