  0
SECTION
  2
HEADER
  9
$ACADVER
  1
AC1014
  9
$HANDSEED
  5
FFFF
  9
$MEASUREMENT
 70
     1
  0
ENDSEC
  0
SECTION
  2
TABLES
  0
TABLE
  2
VPORT
  5
8
330
0
100
AcDbSymbolTable
 70
     4
  0
VPORT
  5
2E
330
8
100
AcDbSymbolTableRecord
100
AcDbViewportTableRecord
  2
*ACTIVE
 70
     0
 10
0.0
 20
0.0
 11
1.0
 21
1.0
 12
210.0
 22
148.5
 13
0.0
 23
0.0
 14
10.0
 24
10.0
 15
10.0
 25
10.0
 16
0.0
 26
0.0
 36
1.0
 17
0.0
 27
0.0
 37
0.0
 40
341.0
 41
1.24
 42
50.0
 43
0.0
 44
0.0
 50
0.0
 51
0.0
 71
     0
 72
   100
 73
     1
 74
     3
 75
     0
 76
     0
 77
     0
 78
     0
  0
ENDTAB
  0
TABLE
  2
LTYPE
  5
5
330
0
100
AcDbSymbolTable
 70
     1
  0
LTYPE
  5
14
330
5
100
AcDbSymbolTableRecord
100
AcDbLinetypeTableRecord
  2
BYBLOCK
 70
     0
  3

 72
    65
 73
     0
 40
0.0
  0
LTYPE
  5
15
330
5
100
AcDbSymbolTableRecord
100
AcDbLinetypeTableRecord
  2
BYLAYER
 70
     0
  3

 72
    65
 73
     0
 40
0.0
  0
LTYPE
  5
16
330
5
100
AcDbSymbolTableRecord
100
AcDbLinetypeTableRecord
  2
CONTINUOUS
 70
     0
  3
Solid line
 72
    65
 73
     0
 40
0.0
  0
ENDTAB
  0
TABLE
  2
LAYER
  5
2
100
AcDbSymbolTable
 70
2
  0
LAYER
  5
50
100
AcDbSymbolTableRecord
100
AcDbLayerTableRecord
  2
0
 70
0
  6
CONTINUOUS
  0
LAYER
  5
51
100
AcDbSymbolTableRecord
100
AcDbLayerTableRecord
  2
Layer_1
 70
0
  6
CONTINUOUS
  0
ENDTAB
  0
TABLE
  2
STYLE
  5
3
330
0
100
AcDbSymbolTable
 70
     1
  0
STYLE
  5
11
330
3
100
AcDbSymbolTableRecord
100
AcDbTextStyleTableRecord
  2
STANDARD
 70
     0
 40
0.0
 41
1.0
 50
0.0
 71
     0
 42
2.5
  3
txt
  4

  0
ENDTAB
  0
TABLE
  2
VIEW
  5
6
330
0
100
AcDbSymbolTable
 70
     0
  0
ENDTAB
  0
TABLE
  2
UCS
  5
7
330
0
100
AcDbSymbolTable
 70
     0
  0
ENDTAB
  0
TABLE
  2
APPID
  5
9
330
0
100
AcDbSymbolTable
 70
     2
  0
APPID
  5
12
330
9
100
AcDbSymbolTableRecord
100
AcDbRegAppTableRecord
  2
ACAD
 70
     0
  0
ENDTAB
  0
TABLE
  2
DIMSTYLE
  5
A
330
0
100
AcDbSymbolTable
 70
     1
  0
DIMSTYLE
105
27
330
A
100
AcDbSymbolTableRecord
100
AcDbDimStyleTableRecord
  2
ISO-25
 70
     0
  3

  4

  5

  6

  7

 40
1.0
 41
2.5
 42
0.625
 43
3.75
 44
1.25
 45
0.0
 46
0.0
 47
0.0
 48
0.0
140
2.5
141
2.5
142
0.0
143
0.03937007874016
144
1.0
145
0.0
146
1.0
147
0.625
 71
     0
 72
     0
 73
     0
 74
     0
 75
     0
 76
     0
 77
     1
 78
     8
170
     0
171
     3
172
     1
173
     0
174
     0
175
     0
176
     0
177
     0
178
     0
270
     2
271
     2
272
     2
273
     2
274
     3
340
11
275
     0
280
     0
281
     0
282
     0
283
     0
284
     8
285
     0
286
     0
287
     3
288
     0
  0
ENDTAB
  0
TABLE
  2
BLOCK_RECORD
  5
1
330
0
100
AcDbSymbolTable
 70
     1
  0
BLOCK_RECORD
  5
1F
330
1
100
AcDbSymbolTableRecord
100
AcDbBlockTableRecord
  2
*MODEL_SPACE
  0
BLOCK_RECORD
  5
1B
330
1
100
AcDbSymbolTableRecord
100
AcDbBlockTableRecord
  2
*PAPER_SPACE
  0
ENDTAB
  0
ENDSEC
  0
SECTION
  2
BLOCKS
  0
BLOCK
  5
20
330
1F
100
AcDbEntity
  8
0
100
AcDbBlockBegin
  2
*MODEL_SPACE
 70
     0
 10
0.0
 20
0.0
 30
0.0
  3
*MODEL_SPACE
  1

  0
ENDBLK
  5
21
330
1F
100
AcDbEntity
  8
0
100
AcDbBlockEnd
  0
BLOCK
  5
1C
330
1B
100
AcDbEntity
 67
     1
  8
0
100
AcDbBlockBegin
  2
*PAPER_SPACE
  1

  0
ENDBLK
  5
1D
330
1B
100
AcDbEntity
 67
     1
  8
0
100
AcDbBlockEnd
  0
ENDSEC
  0
SECTION
  2
ENTITIES
  0
LWPOLYLINE
  5
100
100
AcDbEntity
  8
Layer_1
 62
1
100
AcDbPolyline
 90
2
 70
0
 10
32.320829
 20
49.798331
 30
0.0
 10
32.320829
 20
49.798331
 30
0.0
  0
LWPOLYLINE
  5
101
100
AcDbEntity
  8
Layer_1
 62
1
100
AcDbPolyline
 90
9
 70
0
 10
39.517669
 20
44.943691
 30
0.0
 10
38.965968
 20
45.951227
 30
0.0
 10
38.306485
 20
46.890881
 30
0.0
 10
37.532747
 20
47.738487
 30
0.0
 10
36.645297
 20
48.466207
 30
0.0
 10
35.655802
 20
49.047140
 30
0.0
 10
34.586968
 20
49.463153
 30
0.0
 10
33.465409
 20
49.710605
 30
0.0
 10
32.320829
 20
49.798331
 30
0.0
  0
LWPOLYLINE
  5
102
100
AcDbEntity
  8
Layer_1
 62
1
100
AcDbPolyline
 90
7
 70
0
 10
40.064544
 20
39.182723
 30
0.0
 10
40.064544
 20
40.143455
 30
0.0
 10
40.064544
 20
41.103044
 30
0.0
 10
40.064544
 20
42.062876
 30
0.0
 10
40.064544
 20
43.022742
 30
0.0
 10
40.064544
 20
43.982619
 30
0.0
 10
40.064544
 20
44.943691
 30
0.0
  0
LWPOLYLINE
  5
103
100
AcDbEntity
  8
Layer_1
 62
1
100
AcDbPolyline
 90
11
 70
0
 10
31.309891
 20
34.393843
 30
0.0
 10
32.308709
 20
34.415073
 30
0.0
 10
33.302315
 20
34.532072
 30
0.0
 10
34.278112
 20
34.752634
 30
0.0
 10
35.221322
 20
35.082315
 30
0.0
 10
36.117236
 20
35.523958
 30
0.0
 10
36.950618
 20
36.076396
 30
0.0
 10
37.705298
 20
36.731720
 30
0.0
 10
38.370692
 20
37.478560
 30
0.0
 10
38.939610
 20
38.300719
 30
0.0
 10
39.411454
 20
39.182723
 30
0.0
  0
LWPOLYLINE
  5
104
100
AcDbEntity
  8
Layer_1
 62
1
100
AcDbPolyline
 90
3
 70
0
 10
21.763015
 20
36.012563
 30
0.0
 10
22.226178
 20
34.843781
 30
0.0
 10
23.408329
 20
34.393843
 30
0.0
  0
LWPOLYLINE
  5
105
100
AcDbEntity
  8
Layer_1
 62
1
100
AcDbPolyline
 90
2
 70
0
 10
20.814578
 20
37.128243
 30
0.0
 10
21.763015
 20
37.128243
 30
0.0
  0
LWPOLYLINE
  5
106
100
AcDbEntity
  8
Layer_1
 62
1
100
AcDbPolyline
 90
3
 70
0
 10
19.463015
 20
40.237603
 30
0.0
 10
19.463015
 20
39.358683
 30
0.0
 10
19.463015
 20
38.479763
 30
0.0
  0
LWPOLYLINE
  5
107
100
AcDbEntity
  8
Layer_1
 62
1
100
AcDbPolyline
 90
5
 70
0
 10
20.144266
 20
43.943851
 30
0.0
 10
20.146122
 20
43.017871
 30
0.0
 10
20.145832
 20
42.091085
 30
0.0
 10
20.145142
 20
41.165128
 30
0.0
 10
20.144266
 20
40.237603
 30
0.0
  0
LWPOLYLINE
  5
108
100
AcDbEntity
  8
Layer_1
 62
1
100
AcDbPolyline
 90
3
 70
0
 10
19.463015
 20
45.701611
 30
0.0
 10
19.463015
 20
44.822731
 30
0.0
 10
19.463015
 20
43.943851
 30
0.0
  0
LWPOLYLINE
  5
109
100
AcDbEntity
  8
Layer_1
 62
1
100
AcDbPolyline
 90
2
 70
0
 10
21.763015
 20
47.053211
 30
0.0
 10
20.814578
 20
47.053211
 30
0.0
  0
LWPOLYLINE
  5
10a
100
AcDbEntity
  8
Layer_1
 62
1
100
AcDbPolyline
 90
4
 70
0
 10
23.408329
 20
49.787531
 30
0.0
 10
22.243648
 20
49.327281
 30
0.0
 10
21.763015
 20
48.168811
 30
0.0
 10
21.763015
 20
47.053211
 30
0.0
  0
LWPOLYLINE
  5
10b
100
AcDbEntity
  8
Layer_1
 62
1
100
AcDbPolyline
 90
9
 70
0
 10
32.320829
 20
49.798331
 30
0.0
 10
31.206561
 20
49.788996
 30
0.0
 10
30.092341
 20
49.783663
 30
0.0
 10
28.979051
 20
49.781402
 30
0.0
 10
27.864709
 20
49.781347
 30
0.0
 10
26.750780
 20
49.782684
 30
0.0
 10
25.636513
 20
49.784619
 30
0.0
 10
24.522242
 20
49.786367
 30
0.0
 10
23.408329
 20
49.787131
 30
0.0
  0
LWPOLYLINE
  5
10c
100
AcDbEntity
  8
Layer_1
 62
1
100
AcDbPolyline
 90
2
 70
0
 10
32.320829
 20
49.798331
 30
0.0
 10
32.320829
 20
49.798331
 30
0.0
  0
LWPOLYLINE
  5
10d
100
AcDbEntity
  8
Layer_1
 62
1
100
AcDbPolyline
 90
2
 70
0
 10
40.064544
 20
44.943691
 30
0.0
 10
39.517669
 20
44.943691
 30
0.0
  0
LWPOLYLINE
  5
10e
100
AcDbEntity
  8
Layer_1
 62
1
100
AcDbPolyline
 90
2
 70
0
 10
39.411454
 20
39.182723
 30
0.0
 10
40.064544
 20
39.182723
 30
0.0
  0
LWPOLYLINE
  5
10f
100
AcDbEntity
  8
Layer_1
 62
1
100
AcDbPolyline
 90
9
 70
0
 10
23.408329
 20
34.393843
 30
0.0
 10
24.396035
 20
34.393843
 30
0.0
 10
25.384389
 20
34.393843
 30
0.0
 10
26.372403
 20
34.393843
 30
0.0
 10
27.359992
 20
34.393843
 30
0.0
 10
28.346971
 20
34.393843
 30
0.0
 10
29.334338
 20
34.393843
 30
0.0
 10
30.322454
 20
34.393843
 30
0.0
 10
31.309891
 20
34.393843
 30
0.0
  0
LWPOLYLINE
  5
110
100
AcDbEntity
  8
Layer_1
 62
1
100
AcDbPolyline
 90
2
 70
0
 10
21.763015
 20
37.128243
 30
0.0
 10
21.763015
 20
36.012563
 30
0.0
  0
LWPOLYLINE
  5
111
100
AcDbEntity
  8
Layer_1
 62
1
100
AcDbPolyline
 90
3
 70
0
 10
19.463015
 20
38.479763
 30
0.0
 10
20.139445
 20
37.804663
 30
0.0
 10
20.814578
 20
37.128243
 30
0.0
  0
LWPOLYLINE
  5
112
100
AcDbEntity
  8
Layer_1
 62
1
100
AcDbPolyline
 90
2
 70
0
 10
20.144266
 20
40.237603
 30
0.0
 10
19.463015
 20
40.237603
 30
0.0
  0
LWPOLYLINE
  5
113
100
AcDbEntity
  8
Layer_1
 62
1
100
AcDbPolyline
 90
2
 70
0
 10
19.463015
 20
43.943851
 30
0.0
 10
20.144266
 20
43.943851
 30
0.0
  0
LWPOLYLINE
  5
114
100
AcDbEntity
  8
Layer_1
 62
1
100
AcDbPolyline
 90
3
 70
0
 10
20.814578
 20
47.053211
 30
0.0
 10
20.139445
 20
46.376751
 30
0.0
 10
19.463015
 20
45.701611
 30
0.0
  0
ENDSEC
  0
SECTION
  2
OBJECTS
  0
DICTIONARY
  5
C
330
0
100
AcDbDictionary
  3
ACAD_GROUP
350
D
  3
ACAD_MLINESTYLE
350
17
  0
DICTIONARY
  5
D
330
C
100
AcDbDictionary
  0
DICTIONARY
  5
1A
330
C
100
AcDbDictionary
  0
DICTIONARY
  5
17
330
C
100
AcDbDictionary
  3
STANDARD
350
18
  0
DICTIONARY
  5
19
330
C
100
AcDbDictionary
  0
ENDSEC
  0
EOF
