  0
SECTION
  2
HEADER
  9
$ACADVER
  1
AC1014
  9
$HANDSEED
  5
FFFF
  9
$MEASUREMENT
 70
     1
  0
ENDSEC
  0
SECTION
  2
TABLES
  0
TABLE
  2
VPORT
  5
8
330
0
100
AcDbSymbolTable
 70
     4
  0
VPORT
  5
2E
330
8
100
AcDbSymbolTableRecord
100
AcDbViewportTableRecord
  2
*ACTIVE
 70
     0
 10
0.0
 20
0.0
 11
1.0
 21
1.0
 12
210.0
 22
148.5
 13
0.0
 23
0.0
 14
10.0
 24
10.0
 15
10.0
 25
10.0
 16
0.0
 26
0.0
 36
1.0
 17
0.0
 27
0.0
 37
0.0
 40
341.0
 41
1.24
 42
50.0
 43
0.0
 44
0.0
 50
0.0
 51
0.0
 71
     0
 72
   100
 73
     1
 74
     3
 75
     0
 76
     0
 77
     0
 78
     0
  0
ENDTAB
  0
TABLE
  2
LTYPE
  5
5
330
0
100
AcDbSymbolTable
 70
     1
  0
LTYPE
  5
14
330
5
100
AcDbSymbolTableRecord
100
AcDbLinetypeTableRecord
  2
BYBLOCK
 70
     0
  3

 72
    65
 73
     0
 40
0.0
  0
LTYPE
  5
15
330
5
100
AcDbSymbolTableRecord
100
AcDbLinetypeTableRecord
  2
BYLAYER
 70
     0
  3

 72
    65
 73
     0
 40
0.0
  0
LTYPE
  5
16
330
5
100
AcDbSymbolTableRecord
100
AcDbLinetypeTableRecord
  2
CONTINUOUS
 70
     0
  3
Solid line
 72
    65
 73
     0
 40
0.0
  0
ENDTAB
  0
TABLE
  2
LAYER
  5
2
100
AcDbSymbolTable
 70
2
  0
LAYER
  5
50
100
AcDbSymbolTableRecord
100
AcDbLayerTableRecord
  2
0
 70
0
  6
CONTINUOUS
  0
LAYER
  5
51
100
AcDbSymbolTableRecord
100
AcDbLayerTableRecord
  2
Layer_1
 70
0
  6
CONTINUOUS
  0
ENDTAB
  0
TABLE
  2
STYLE
  5
3
330
0
100
AcDbSymbolTable
 70
     1
  0
STYLE
  5
11
330
3
100
AcDbSymbolTableRecord
100
AcDbTextStyleTableRecord
  2
STANDARD
 70
     0
 40
0.0
 41
1.0
 50
0.0
 71
     0
 42
2.5
  3
txt
  4

  0
ENDTAB
  0
TABLE
  2
VIEW
  5
6
330
0
100
AcDbSymbolTable
 70
     0
  0
ENDTAB
  0
TABLE
  2
UCS
  5
7
330
0
100
AcDbSymbolTable
 70
     0
  0
ENDTAB
  0
TABLE
  2
APPID
  5
9
330
0
100
AcDbSymbolTable
 70
     2
  0
APPID
  5
12
330
9
100
AcDbSymbolTableRecord
100
AcDbRegAppTableRecord
  2
ACAD
 70
     0
  0
ENDTAB
  0
TABLE
  2
DIMSTYLE
  5
A
330
0
100
AcDbSymbolTable
 70
     1
  0
DIMSTYLE
105
27
330
A
100
AcDbSymbolTableRecord
100
AcDbDimStyleTableRecord
  2
ISO-25
 70
     0
  3

  4

  5

  6

  7

 40
1.0
 41
2.5
 42
0.625
 43
3.75
 44
1.25
 45
0.0
 46
0.0
 47
0.0
 48
0.0
140
2.5
141
2.5
142
0.0
143
0.03937007874016
144
1.0
145
0.0
146
1.0
147
0.625
 71
     0
 72
     0
 73
     0
 74
     0
 75
     0
 76
     0
 77
     1
 78
     8
170
     0
171
     3
172
     1
173
     0
174
     0
175
     0
176
     0
177
     0
178
     0
270
     2
271
     2
272
     2
273
     2
274
     3
340
11
275
     0
280
     0
281
     0
282
     0
283
     0
284
     8
285
     0
286
     0
287
     3
288
     0
  0
ENDTAB
  0
TABLE
  2
BLOCK_RECORD
  5
1
330
0
100
AcDbSymbolTable
 70
     1
  0
BLOCK_RECORD
  5
1F
330
1
100
AcDbSymbolTableRecord
100
AcDbBlockTableRecord
  2
*MODEL_SPACE
  0
BLOCK_RECORD
  5
1B
330
1
100
AcDbSymbolTableRecord
100
AcDbBlockTableRecord
  2
*PAPER_SPACE
  0
ENDTAB
  0
ENDSEC
  0
SECTION
  2
BLOCKS
  0
BLOCK
  5
20
330
1F
100
AcDbEntity
  8
0
100
AcDbBlockBegin
  2
*MODEL_SPACE
 70
     0
 10
0.0
 20
0.0
 30
0.0
  3
*MODEL_SPACE
  1

  0
ENDBLK
  5
21
330
1F
100
AcDbEntity
  8
0
100
AcDbBlockEnd
  0
BLOCK
  5
1C
330
1B
100
AcDbEntity
 67
     1
  8
0
100
AcDbBlockBegin
  2
*PAPER_SPACE
  1

  0
ENDBLK
  5
1D
330
1B
100
AcDbEntity
 67
     1
  8
0
100
AcDbBlockEnd
  0
ENDSEC
  0
SECTION
  2
ENTITIES
  0
LWPOLYLINE
  5
100
100
AcDbEntity
  8
Layer_1
 62
1
100
AcDbPolyline
 90
26
 70
0
 10
23.229840
 20
44.815411
 30
0.0
 10
23.528728
 20
44.854531
 30
0.0
 10
23.807224
 20
44.969995
 30
0.0
 10
24.046128
 20
45.153587
 30
0.0
 10
24.229744
 20
45.392611
 30
0.0
 10
24.345096
 20
45.670851
 30
0.0
 10
24.384216
 20
45.969795
 30
0.0
 10
24.345176
 20
46.268619
 30
0.0
 10
24.229736
 20
46.547099
 30
0.0
 10
24.046176
 20
46.786027
 30
0.0
 10
23.807168
 20
46.969675
 30
0.0
 10
23.528608
 20
47.085131
 30
0.0
 10
23.229888
 20
47.124171
 30
0.0
 10
22.931072
 20
47.085051
 30
0.0
 10
22.652632
 20
46.969579
 30
0.0
 10
22.413752
 20
46.785987
 30
0.0
 10
22.230160
 20
46.546971
 30
0.0
 10
22.114816
 20
46.268707
 30
0.0
 10
22.075696
 20
45.969763
 30
0.0
 10
22.114736
 20
45.670939
 30
0.0
 10
22.230176
 20
45.392467
 30
0.0
 10
22.413712
 20
45.153547
 30
0.0
 10
22.652688
 20
44.969899
 30
0.0
 10
22.930912
 20
44.854523
 30
0.0
 10
23.229848
 20
44.815403
 30
0.0
 10
23.229848
 20
44.815403
 30
0.0
  0
LWPOLYLINE
  5
101
100
AcDbEntity
  8
Layer_1
 62
1
100
AcDbPolyline
 90
14
 70
0
 10
23.255448
 20
45.248163
 30
0.0
 10
23.616208
 20
45.344731
 30
0.0
 10
23.880320
 20
45.608923
 30
0.0
 10
23.976832
 20
45.969739
 30
0.0
 10
23.880328
 20
46.330419
 30
0.0
 10
23.616216
 20
46.594571
 30
0.0
 10
23.255448
 20
46.691131
 30
0.0
 10
22.894680
 20
46.594579
 30
0.0
 10
22.630568
 20
46.330435
 30
0.0
 10
22.534048
 20
45.969739
 30
0.0
 10
22.630568
 20
45.608931
 30
0.0
 10
22.894672
 20
45.344731
 30
0.0
 10
23.255448
 20
45.248163
 30
0.0
 10
23.255448
 20
45.248163
 30
0.0
  0
LWPOLYLINE
  5
102
100
AcDbEntity
  8
Layer_1
 62
1
100
AcDbPolyline
 90
26
 70
0
 10
23.229848
 20
39.517963
 30
0.0
 10
23.528736
 20
39.478843
 30
0.0
 10
23.807232
 20
39.363371
 30
0.0
 10
24.046136
 20
39.179787
 30
0.0
 10
24.229752
 20
38.940763
 30
0.0
 10
24.345104
 20
38.662515
 30
0.0
 10
24.384224
 20
38.363571
 30
0.0
 10
24.345184
 20
38.064747
 30
0.0
 10
24.229744
 20
37.786259
 30
0.0
 10
24.046184
 20
37.547339
 30
0.0
 10
23.807176
 20
37.363691
 30
0.0
 10
23.528616
 20
37.248243
 30
0.0
 10
23.229896
 20
37.209203
 30
0.0
 10
22.931080
 20
37.248323
 30
0.0
 10
22.652640
 20
37.363795
 30
0.0
 10
22.413760
 20
37.547379
 30
0.0
 10
22.230168
 20
37.786403
 30
0.0
 10
22.114824
 20
38.064659
 30
0.0
 10
22.075704
 20
38.363611
 30
0.0
 10
22.114744
 20
38.662427
 30
0.0
 10
22.230184
 20
38.940899
 30
0.0
 10
22.413720
 20
39.179819
 30
0.0
 10
22.652696
 20
39.363467
 30
0.0
 10
22.930920
 20
39.478843
 30
0.0
 10
23.229856
 20
39.517963
 30
0.0
 10
23.229856
 20
39.517963
 30
0.0
  0
LWPOLYLINE
  5
103
100
AcDbEntity
  8
Layer_1
 62
1
100
AcDbPolyline
 90
14
 70
0
 10
23.255456
 20
39.085019
 30
0.0
 10
23.616216
 20
38.988515
 30
0.0
 10
23.880328
 20
38.724403
 30
0.0
 10
23.976840
 20
38.363635
 30
0.0
 10
23.880336
 20
38.002867
 30
0.0
 10
23.616224
 20
37.738755
 30
0.0
 10
23.255456
 20
37.642235
 30
0.0
 10
22.894688
 20
37.738747
 30
0.0
 10
22.630576
 20
38.002851
 30
0.0
 10
22.534056
 20
38.363635
 30
0.0
 10
22.630576
 20
38.724387
 30
0.0
 10
22.894680
 20
38.988499
 30
0.0
 10
23.255456
 20
39.085019
 30
0.0
 10
23.255456
 20
39.085019
 30
0.0
  0
LWPOLYLINE
  5
104
100
AcDbEntity
  8
Layer_1
 62
1
100
AcDbPolyline
 90
2
 70
0
 10
32.374656
 20
38.821051
 30
0.0
 10
32.805952
 20
38.850571
 30
0.0
  0
LWPOLYLINE
  5
105
100
AcDbEntity
  8
Layer_1
 62
1
100
AcDbPolyline
 90
2
 70
0
 10
33.417848
 20
38.994795
 30
0.0
 10
34.025232
 20
39.280195
 30
0.0
  0
LWPOLYLINE
  5
106
100
AcDbEntity
  8
Layer_1
 62
1
100
AcDbPolyline
 90
2
 70
0
 10
34.562976
 20
39.683171
 30
0.0
 10
35.007928
 20
40.185707
 30
0.0
  0
LWPOLYLINE
  5
107
100
AcDbEntity
  8
Layer_1
 62
1
100
AcDbPolyline
 90
2
 70
0
 10
35.341496
 20
40.766211
 30
0.0
 10
35.549280
 20
41.401475
 30
0.0
  0
LWPOLYLINE
  5
108
100
AcDbEntity
  8
Layer_1
 62
1
100
AcDbPolyline
 90
2
 70
0
 10
35.621120
 20
42.067539
 30
0.0
 10
35.537592
 20
42.770523
 30
0.0
  0
LWPOLYLINE
  5
109
100
AcDbEntity
  8
Layer_1
 62
1
100
AcDbPolyline
 90
2
 70
0
 10
35.306000
 20
43.439627
 30
0.0
 10
34.937160
 20
44.044683
 30
0.0
  0
LWPOLYLINE
  5
10a
100
AcDbEntity
  8
Layer_1
 62
1
100
AcDbPolyline
 90
2
 70
0
 10
34.451760
 20
44.554099
 30
0.0
 10
33.868824
 20
44.947499
 30
0.0
  0
LWPOLYLINE
  5
10b
100
AcDbEntity
  8
Layer_1
 62
1
100
AcDbPolyline
 90
2
 70
0
 10
33.215208
 20
45.204115
 30
0.0
 10
32.741880
 20
45.292123
 30
0.0
  0
LWPOLYLINE
  5
10c
100
AcDbEntity
  8
Layer_1
 62
1
100
AcDbPolyline
 90
2
 70
0
 10
32.265544
 20
45.273323
 30
0.0
 10
31.789400
 20
45.254603
 30
0.0
  0
LWPOLYLINE
  5
10d
100
AcDbEntity
  8
Layer_1
 62
1
100
AcDbPolyline
 90
2
 70
0
 10
31.328528
 20
45.143051
 30
0.0
 10
30.608120
 20
44.801987
 30
0.0
  0
LWPOLYLINE
  5
10e
100
AcDbEntity
  8
Layer_1
 62
1
100
AcDbPolyline
 90
2
 70
0
 10
30.000184
 20
44.286555
 30
0.0
 10
29.549256
 20
43.629243
 30
0.0
  0
LWPOLYLINE
  5
10f
100
AcDbEntity
  8
Layer_1
 62
1
100
AcDbPolyline
 90
2
 70
0
 10
29.276920
 20
42.880707
 30
0.0
 10
29.186440
 20
42.088427
 30
0.0
  0
LWPOLYLINE
  5
110
100
AcDbEntity
  8
Layer_1
 62
1
100
AcDbPolyline
 90
2
 70
0
 10
29.275984
 20
41.298195
 30
0.0
 10
29.543088
 20
40.550251
 30
0.0
  0
LWPOLYLINE
  5
111
100
AcDbEntity
  8
Layer_1
 62
1
100
AcDbPolyline
 90
2
 70
0
 10
29.982776
 20
39.889531
 30
0.0
 10
30.577216
 20
39.363419
 30
0.0
  0
LWPOLYLINE
  5
112
100
AcDbEntity
  8
Layer_1
 62
1
100
AcDbPolyline
 90
2
 70
0
 10
31.287168
 20
39.007803
 30
0.0
 10
31.835440
 20
38.870307
 30
0.0
  0
LWPOLYLINE
  5
113
100
AcDbEntity
  8
Layer_1
 62
1
100
AcDbPolyline
 90
2
 70
0
 10
23.401048
 20
49.781027
 30
0.0
 10
32.029824
 20
49.777027
 30
0.0
  0
LWPOLYLINE
  5
114
100
AcDbEntity
  8
Layer_1
 62
1
100
AcDbPolyline
 90
2
 70
0
 10
23.750864
 20
34.410411
 30
0.0
 10
31.564984
 20
34.409995
 30
0.0
  0
LWPOLYLINE
  5
115
100
AcDbEntity
  8
Layer_1
 62
1
100
AcDbPolyline
 90
2
 70
0
 10
32.321608
 20
49.772755
 30
0.0
 10
31.319240
 20
49.707875
 30
0.0
  0
LWPOLYLINE
  5
116
100
AcDbEntity
  8
Layer_1
 62
1
100
AcDbPolyline
 90
2
 70
0
 10
30.333696
 20
49.512867
 30
0.0
 10
29.382472
 20
49.190059
 30
0.0
  0
LWPOLYLINE
  5
117
100
AcDbEntity
  8
Layer_1
 62
1
100
AcDbPolyline
 90
2
 70
0
 10
28.481880
 20
48.745131
 30
0.0
 10
27.647104
 20
48.186299
 30
0.0
  0
LWPOLYLINE
  5
118
100
AcDbEntity
  8
Layer_1
 62
1
100
AcDbPolyline
 90
2
 70
0
 10
26.891920
 20
47.523539
 30
0.0
 10
26.229360
 20
46.768587
 30
0.0
  0
LWPOLYLINE
  5
119
100
AcDbEntity
  8
Layer_1
 62
1
100
AcDbPolyline
 90
2
 70
0
 10
25.670512
 20
45.933779
 30
0.0
 10
25.225536
 20
45.033035
 30
0.0
  0
LWPOLYLINE
  5
11a
100
AcDbEntity
  8
Layer_1
 62
1
100
AcDbPolyline
 90
2
 70
0
 10
24.902744
 20
44.081779
 30
0.0
 10
24.707760
 20
43.096163
 30
0.0
  0
LWPOLYLINE
  5
11b
100
AcDbEntity
  8
Layer_1
 62
1
100
AcDbPolyline
 90
2
 70
0
 10
24.642960
 20
42.093819
 30
0.0
 10
24.707840
 20
41.091475
 30
0.0
  0
LWPOLYLINE
  5
11c
100
AcDbEntity
  8
Layer_1
 62
1
100
AcDbPolyline
 90
2
 70
0
 10
24.902840
 20
40.105955
 30
0.0
 10
25.225632
 20
39.154747
 30
0.0
  0
LWPOLYLINE
  5
11d
100
AcDbEntity
  8
Layer_1
 62
1
100
AcDbPolyline
 90
2
 70
0
 10
25.670536
 20
38.254171
 30
0.0
 10
26.229344
 20
37.419403
 30
0.0
  0
LWPOLYLINE
  5
11e
100
AcDbEntity
  8
Layer_1
 62
1
100
AcDbPolyline
 90
2
 70
0
 10
26.892072
 20
36.664275
 30
0.0
 10
27.647040
 20
36.001699
 30
0.0
  0
LWPOLYLINE
  5
11f
100
AcDbEntity
  8
Layer_1
 62
1
100
AcDbPolyline
 90
2
 70
0
 10
28.481816
 20
35.442851
 30
0.0
 10
29.382528
 20
34.997859
 30
0.0
  0
LWPOLYLINE
  5
120
100
AcDbEntity
  8
Layer_1
 62
1
100
AcDbPolyline
 90
2
 70
0
 10
30.333744
 20
34.675051
 30
0.0
 10
31.319328
 20
34.480035
 30
0.0
  0
LWPOLYLINE
  5
121
100
AcDbEntity
  8
Layer_1
 62
1
100
AcDbPolyline
 90
2
 70
0
 10
32.006224
 20
34.419315
 30
0.0
 10
32.673592
 20
34.438195
 30
0.0
  0
LWPOLYLINE
  5
122
100
AcDbEntity
  8
Layer_1
 62
1
100
AcDbPolyline
 90
2
 70
0
 10
33.321120
 20
34.481075
 30
0.0
 10
34.303400
 20
34.676603
 30
0.0
  0
LWPOLYLINE
  5
123
100
AcDbEntity
  8
Layer_1
 62
1
100
AcDbPolyline
 90
2
 70
0
 10
35.251792
 20
34.998595
 30
0.0
 10
36.150280
 20
35.441403
 30
0.0
  0
LWPOLYLINE
  5
124
100
AcDbEntity
  8
Layer_1
 62
1
100
AcDbPolyline
 90
2
 70
0
 10
36.983736
 20
35.997331
 30
0.0
 10
37.737664
 20
36.656691
 30
0.0
  0
LWPOLYLINE
  5
125
100
AcDbEntity
  8
Layer_1
 62
1
100
AcDbPolyline
 90
2
 70
0
 10
38.399368
 20
37.408627
 30
0.0
 10
38.957464
 20
38.240643
 30
0.0
  0
LWPOLYLINE
  5
126
100
AcDbEntity
  8
Layer_1
 62
1
100
AcDbPolyline
 90
2
 70
0
 10
39.414784
 20
39.147515
 30
0.0
 10
40.072680
 20
39.154715
 30
0.0
  0
LWPOLYLINE
  5
127
100
AcDbEntity
  8
Layer_1
 62
1
100
AcDbPolyline
 90
2
 70
0
 10
40.072680
 20
44.919115
 30
0.0
 10
39.454240
 20
44.923915
 30
0.0
  0
LWPOLYLINE
  5
128
100
AcDbEntity
  8
Layer_1
 62
1
100
AcDbPolyline
 90
2
 70
0
 10
39.018056
 20
45.842395
 30
0.0
 10
38.464152
 20
46.695091
 30
0.0
  0
LWPOLYLINE
  5
129
100
AcDbEntity
  8
Layer_1
 62
1
100
AcDbPolyline
 90
2
 70
0
 10
37.802160
 20
47.466987
 30
0.0
 10
37.044024
 20
48.144595
 30
0.0
  0
LWPOLYLINE
  5
12a
100
AcDbEntity
  8
Layer_1
 62
1
100
AcDbPolyline
 90
2
 70
0
 10
36.203104
 20
48.716307
 30
0.0
 10
35.294208
 20
49.172059
 30
0.0
  0
LWPOLYLINE
  5
12b
100
AcDbEntity
  8
Layer_1
 62
1
100
AcDbPolyline
 90
2
 70
0
 10
34.333072
 20
49.503643
 30
0.0
 10
33.336392
 20
49.705035
 30
0.0
  0
LWPOLYLINE
  5
12c
100
AcDbEntity
  8
Layer_1
 62
1
100
AcDbPolyline
 90
2
 70
0
 10
32.321696
 20
49.772875
 30
0.0
 10
32.321720
 20
49.772875
 30
0.0
  0
LWPOLYLINE
  5
12d
100
AcDbEntity
  8
Layer_1
 62
1
100
AcDbPolyline
 90
2
 70
0
 10
19.454872
 20
43.935179
 30
0.0
 10
19.454872
 20
45.695123
 30
0.0
  0
LWPOLYLINE
  5
12e
100
AcDbEntity
  8
Layer_1
 62
1
100
AcDbPolyline
 90
2
 70
0
 10
20.806888
 20
47.046955
 30
0.0
 10
21.756520
 20
47.046955
 30
0.0
  0
LWPOLYLINE
  5
12f
100
AcDbEntity
  8
Layer_1
 62
1
100
AcDbPolyline
 90
2
 70
0
 10
21.756520
 20
48.164251
 30
0.0
 10
21.985528
 20
48.975547
 30
0.0
  0
LWPOLYLINE
  5
130
100
AcDbEntity
  8
Layer_1
 62
1
100
AcDbPolyline
 90
2
 70
0
 10
22.586024
 20
49.566235
 30
0.0
 10
23.401048
 20
49.780987
 30
0.0
  0
LWPOLYLINE
  5
131
100
AcDbEntity
  8
Layer_1
 62
1
100
AcDbPolyline
 90
2
 70
0
 10
21.607752
 20
43.942291
 30
0.0
 10
21.607752
 20
40.279563
 30
0.0
  0
LWPOLYLINE
  5
132
100
AcDbEntity
  8
Layer_1
 62
1
100
AcDbPolyline
 90
2
 70
0
 10
20.194608
 20
43.960259
 30
0.0
 10
20.194608
 20
40.261779
 30
0.0
  0
LWPOLYLINE
  5
133
100
AcDbEntity
  8
Layer_1
 62
1
100
AcDbPolyline
 90
2
 70
0
 10
19.454872
 20
40.256979
 30
0.0
 10
19.454872
 20
38.497035
 30
0.0
  0
LWPOLYLINE
  5
134
100
AcDbEntity
  8
Layer_1
 62
1
100
AcDbPolyline
 90
2
 70
0
 10
20.806888
 20
37.145027
 30
0.0
 10
21.756520
 20
37.145027
 30
0.0
  0
LWPOLYLINE
  5
135
100
AcDbEntity
  8
Layer_1
 62
1
100
AcDbPolyline
 90
2
 70
0
 10
21.747640
 20
36.346619
 30
0.0
 10
21.844112
 20
35.556227
 30
0.0
  0
LWPOLYLINE
  5
136
100
AcDbEntity
  8
Layer_1
 62
1
100
AcDbPolyline
 90
2
 70
0
 10
22.238032
 20
34.872315
 30
0.0
 10
22.947944
 20
34.483307
 30
0.0
  0
LWPOLYLINE
  5
137
100
AcDbEntity
  8
Layer_1
 62
1
100
AcDbPolyline
 90
2
 70
0
 10
31.319240
 20
49.707875
 30
0.0
 10
30.333696
 20
49.512867
 30
0.0
  0
LWPOLYLINE
  5
138
100
AcDbEntity
  8
Layer_1
 62
1
100
AcDbPolyline
 90
2
 70
0
 10
29.382472
 20
49.190059
 30
0.0
 10
28.481880
 20
48.745131
 30
0.0
  0
LWPOLYLINE
  5
139
100
AcDbEntity
  8
Layer_1
 62
1
100
AcDbPolyline
 90
2
 70
0
 10
27.647104
 20
48.186299
 30
0.0
 10
26.891920
 20
47.523539
 30
0.0
  0
LWPOLYLINE
  5
13a
100
AcDbEntity
  8
Layer_1
 62
1
100
AcDbPolyline
 90
2
 70
0
 10
26.229360
 20
46.768587
 30
0.0
 10
25.670512
 20
45.933779
 30
0.0
  0
LWPOLYLINE
  5
13b
100
AcDbEntity
  8
Layer_1
 62
1
100
AcDbPolyline
 90
2
 70
0
 10
25.225536
 20
45.033035
 30
0.0
 10
24.902744
 20
44.081779
 30
0.0
  0
LWPOLYLINE
  5
13c
100
AcDbEntity
  8
Layer_1
 62
1
100
AcDbPolyline
 90
2
 70
0
 10
24.707760
 20
43.096163
 30
0.0
 10
24.642960
 20
42.093819
 30
0.0
  0
LWPOLYLINE
  5
13d
100
AcDbEntity
  8
Layer_1
 62
1
100
AcDbPolyline
 90
2
 70
0
 10
24.707840
 20
41.091475
 30
0.0
 10
24.902840
 20
40.105955
 30
0.0
  0
LWPOLYLINE
  5
13e
100
AcDbEntity
  8
Layer_1
 62
1
100
AcDbPolyline
 90
2
 70
0
 10
25.225632
 20
39.154747
 30
0.0
 10
25.670536
 20
38.254171
 30
0.0
  0
LWPOLYLINE
  5
13f
100
AcDbEntity
  8
Layer_1
 62
1
100
AcDbPolyline
 90
2
 70
0
 10
26.229344
 20
37.419403
 30
0.0
 10
26.892072
 20
36.664275
 30
0.0
  0
LWPOLYLINE
  5
140
100
AcDbEntity
  8
Layer_1
 62
1
100
AcDbPolyline
 90
2
 70
0
 10
27.647040
 20
36.001699
 30
0.0
 10
28.481816
 20
35.442851
 30
0.0
  0
LWPOLYLINE
  5
141
100
AcDbEntity
  8
Layer_1
 62
1
100
AcDbPolyline
 90
2
 70
0
 10
29.382528
 20
34.997859
 30
0.0
 10
30.333744
 20
34.675051
 30
0.0
  0
LWPOLYLINE
  5
142
100
AcDbEntity
  8
Layer_1
 62
1
100
AcDbPolyline
 90
2
 70
0
 10
31.319328
 20
34.480035
 30
0.0
 10
31.990248
 20
34.429795
 30
0.0
  0
LWPOLYLINE
  5
143
100
AcDbEntity
  8
Layer_1
 62
1
100
AcDbPolyline
 90
2
 70
0
 10
32.641496
 20
34.432195
 30
0.0
 10
33.351376
 20
34.473315
 30
0.0
  0
LWPOLYLINE
  5
144
100
AcDbEntity
  8
Layer_1
 62
1
100
AcDbPolyline
 90
2
 70
0
 10
34.303400
 20
34.676835
 30
0.0
 10
35.251792
 20
34.998827
 30
0.0
  0
LWPOLYLINE
  5
145
100
AcDbEntity
  8
Layer_1
 62
1
100
AcDbPolyline
 90
2
 70
0
 10
36.150280
 20
35.441635
 30
0.0
 10
36.983736
 20
35.997563
 30
0.0
  0
LWPOLYLINE
  5
146
100
AcDbEntity
  8
Layer_1
 62
1
100
AcDbPolyline
 90
2
 70
0
 10
37.737664
 20
36.656923
 30
0.0
 10
38.399368
 20
37.408859
 30
0.0
  0
LWPOLYLINE
  5
147
100
AcDbEntity
  8
Layer_1
 62
1
100
AcDbPolyline
 90
2
 70
0
 10
38.957464
 20
38.240875
 30
0.0
 10
39.410584
 20
39.146675
 30
0.0
  0
LWPOLYLINE
  5
148
100
AcDbEntity
  8
Layer_1
 62
1
100
AcDbPolyline
 90
2
 70
0
 10
40.072680
 20
39.154755
 30
0.0
 10
40.072680
 20
44.919155
 30
0.0
  0
LWPOLYLINE
  5
149
100
AcDbEntity
  8
Layer_1
 62
1
100
AcDbPolyline
 90
2
 70
0
 10
39.454240
 20
44.923955
 30
0.0
 10
39.018056
 20
45.842435
 30
0.0
  0
LWPOLYLINE
  5
14a
100
AcDbEntity
  8
Layer_1
 62
1
100
AcDbPolyline
 90
2
 70
0
 10
38.464152
 20
46.695131
 30
0.0
 10
37.802160
 20
47.467027
 30
0.0
  0
LWPOLYLINE
  5
14b
100
AcDbEntity
  8
Layer_1
 62
1
100
AcDbPolyline
 90
2
 70
0
 10
37.044024
 20
48.144635
 30
0.0
 10
36.203104
 20
48.716347
 30
0.0
  0
LWPOLYLINE
  5
14c
100
AcDbEntity
  8
Layer_1
 62
1
100
AcDbPolyline
 90
2
 70
0
 10
35.294208
 20
49.172099
 30
0.0
 10
34.333072
 20
49.503683
 30
0.0
  0
LWPOLYLINE
  5
14d
100
AcDbEntity
  8
Layer_1
 62
1
100
AcDbPolyline
 90
3
 70
0
 10
33.336392
 20
49.705075
 30
0.0
 10
32.321696
 20
49.772915
 30
0.0
 10
32.321720
 20
49.772915
 30
0.0
  0
LWPOLYLINE
  5
14e
100
AcDbEntity
  8
Layer_1
 62
1
100
AcDbPolyline
 90
2
 70
0
 10
24.848328
 20
43.908659
 30
0.0
 10
19.454872
 20
43.935219
 30
0.0
  0
LWPOLYLINE
  5
14f
100
AcDbEntity
  8
Layer_1
 62
1
100
AcDbPolyline
 90
2
 70
0
 10
19.454872
 20
45.695163
 30
0.0
 10
20.806888
 20
47.046995
 30
0.0
  0
LWPOLYLINE
  5
150
100
AcDbEntity
  8
Layer_1
 62
1
100
AcDbPolyline
 90
2
 70
0
 10
21.756520
 20
47.046995
 30
0.0
 10
21.756520
 20
48.164291
 30
0.0
  0
LWPOLYLINE
  5
151
100
AcDbEntity
  8
Layer_1
 62
1
100
AcDbPolyline
 90
2
 70
0
 10
21.985528
 20
48.975587
 30
0.0
 10
22.586024
 20
49.566275
 30
0.0
  0
LWPOLYLINE
  5
152
100
AcDbEntity
  8
Layer_1
 62
1
100
AcDbPolyline
 90
2
 70
0
 10
24.901264
 20
40.203819
 30
0.0
 10
19.454872
 20
40.256939
 30
0.0
  0
LWPOLYLINE
  5
153
100
AcDbEntity
  8
Layer_1
 62
1
100
AcDbPolyline
 90
2
 70
0
 10
19.454872
 20
38.496995
 30
0.0
 10
20.806888
 20
37.144987
 30
0.0
  0
LWPOLYLINE
  5
154
100
AcDbEntity
  8
Layer_1
 62
1
100
AcDbPolyline
 90
2
 70
0
 10
21.756520
 20
37.144987
 30
0.0
 10
21.747640
 20
36.346579
 30
0.0
  0
LWPOLYLINE
  5
155
100
AcDbEntity
  8
Layer_1
 62
1
100
AcDbPolyline
 90
2
 70
0
 10
21.844112
 20
35.556187
 30
0.0
 10
22.238032
 20
34.872275
 30
0.0
  0
LWPOLYLINE
  5
156
100
AcDbEntity
  8
Layer_1
 62
1
100
AcDbPolyline
 90
2
 70
0
 10
22.947944
 20
34.483267
 30
0.0
 10
23.762688
 20
34.407747
 30
0.0
  0
LWPOLYLINE
  5
157
100
AcDbEntity
  8
Layer_1
 62
1
100
AcDbPolyline
 90
3
 70
0
 10
32.805952
 20
38.850571
 30
0.0
 10
33.317264
 20
38.961355
 30
0.0
 10
33.417848
 20
38.994795
 30
0.0
  0
LWPOLYLINE
  5
158
100
AcDbEntity
  8
Layer_1
 62
1
100
AcDbPolyline
 90
2
 70
0
 10
34.025232
 20
39.280195
 30
0.0
 10
34.562976
 20
39.683171
 30
0.0
  0
LWPOLYLINE
  5
159
100
AcDbEntity
  8
Layer_1
 62
1
100
AcDbPolyline
 90
2
 70
0
 10
35.007928
 20
40.185707
 30
0.0
 10
35.341496
 20
40.766211
 30
0.0
  0
LWPOLYLINE
  5
15a
100
AcDbEntity
  8
Layer_1
 62
1
100
AcDbPolyline
 90
2
 70
0
 10
35.549280
 20
41.401475
 30
0.0
 10
35.621120
 20
42.067539
 30
0.0
  0
LWPOLYLINE
  5
15b
100
AcDbEntity
  8
Layer_1
 62
1
100
AcDbPolyline
 90
2
 70
0
 10
35.537592
 20
42.770523
 30
0.0
 10
35.306000
 20
43.439627
 30
0.0
  0
LWPOLYLINE
  5
15c
100
AcDbEntity
  8
Layer_1
 62
1
100
AcDbPolyline
 90
2
 70
0
 10
34.937160
 20
44.044683
 30
0.0
 10
34.451760
 20
44.554099
 30
0.0
  0
LWPOLYLINE
  5
15d
100
AcDbEntity
  8
Layer_1
 62
1
100
AcDbPolyline
 90
2
 70
0
 10
33.868824
 20
44.947499
 30
0.0
 10
33.215208
 20
45.204115
 30
0.0
  0
LWPOLYLINE
  5
15e
100
AcDbEntity
  8
Layer_1
 62
1
100
AcDbPolyline
 90
2
 70
0
 10
32.741880
 20
45.292123
 30
0.0
 10
32.293864
 20
45.274443
 30
0.0
  0
LWPOLYLINE
  5
15f
100
AcDbEntity
  8
Layer_1
 62
1
100
AcDbPolyline
 90
2
 70
0
 10
31.789400
 20
45.254603
 30
0.0
 10
31.328528
 20
45.143051
 30
0.0
  0
LWPOLYLINE
  5
160
100
AcDbEntity
  8
Layer_1
 62
1
100
AcDbPolyline
 90
2
 70
0
 10
30.608120
 20
44.801987
 30
0.0
 10
30.000184
 20
44.286555
 30
0.0
  0
LWPOLYLINE
  5
161
100
AcDbEntity
  8
Layer_1
 62
1
100
AcDbPolyline
 90
2
 70
0
 10
29.549256
 20
43.629243
 30
0.0
 10
29.276920
 20
42.880707
 30
0.0
  0
LWPOLYLINE
  5
162
100
AcDbEntity
  8
Layer_1
 62
1
100
AcDbPolyline
 90
2
 70
0
 10
29.186440
 20
42.088427
 30
0.0
 10
29.275984
 20
41.298195
 30
0.0
  0
LWPOLYLINE
  5
163
100
AcDbEntity
  8
Layer_1
 62
1
100
AcDbPolyline
 90
2
 70
0
 10
29.543088
 20
40.550251
 30
0.0
 10
29.982776
 20
39.889531
 30
0.0
  0
LWPOLYLINE
  5
164
100
AcDbEntity
  8
Layer_1
 62
1
100
AcDbPolyline
 90
2
 70
0
 10
30.577216
 20
39.363419
 30
0.0
 10
31.287168
 20
39.007803
 30
0.0
  0
LWPOLYLINE
  5
165
100
AcDbEntity
  8
Layer_1
 62
1
100
AcDbPolyline
 90
2
 70
0
 10
31.835440
 20
38.870307
 30
0.0
 10
32.374672
 20
38.821107
 30
0.0
  0
LWPOLYLINE
  5
166
100
AcDbEntity
  8
Layer_1
 62
1
100
AcDbPolyline
 90
2
 70
0
 10
33.305680
 20
45.140923
 30
0.0
 10
33.305680
 20
38.973715
 30
0.0
  0
SPLINE
  5
167
100
AcDbEntity
  8
Layer_1
 62
1
100
AcDbSpline
 70
8
 71
3
 72
8
 73
4
 74
0
 40
0
 40
0
 40
0
 40
0
 40
1
 40
1
 40
1
 40
1
 10
31.443656
 20
44.397171
 30
0.0
 10
31.443584
 20
42.586811
 30
0.0
 10
31.442056
 20
40.776451
 30
0.0
 10
31.440456
 20
38.966091
 30
0.0
  0
LWPOLYLINE
  5
168
100
AcDbEntity
  8
Layer_1
 62
1
100
AcDbPolyline
 90
2
 70
0
 10
31.443656
 20
45.179331
 30
0.0
 10
31.443656
 20
44.397171
 30
0.0
  0
ENDSEC
  0
SECTION
  2
OBJECTS
  0
DICTIONARY
  5
C
330
0
100
AcDbDictionary
  3
ACAD_GROUP
350
D
  3
ACAD_MLINESTYLE
350
17
  0
DICTIONARY
  5
D
330
C
100
AcDbDictionary
  0
DICTIONARY
  5
1A
330
C
100
AcDbDictionary
  0
DICTIONARY
  5
17
330
C
100
AcDbDictionary
  3
STANDARD
350
18
  0
DICTIONARY
  5
19
330
C
100
AcDbDictionary
  0
ENDSEC
  0
EOF
