<svg viewBox="0 0 74.409 105.236">
  <defs/>
  <path fill="none" stroke="#7b7b7b" stroke-width=".116" d="M41.625 48.708c3.91 1.373 3.775 6.512-.01 7.8m-2.28 0c-3.978-1.238-3.727-6.634-.012-7.787m10.074.336c-1.824-3.77-4.85-6.02-8.996-6.069m9.68 13.27v-7.201M39.137 62.244c4.46.106 8.212-1.891 10.127-5.986m-22.06 3.963c.03 1.282.84 1.949 2.056 2.023m-3.242-3.418h1.186m-2.875-3.887v2.198m.851-6.83c.003.249.003 1.562 0 4.632m-.851-6.83v2.197m2.875-3.886h-1.186m3.242-3.418c-1.273.073-1.955.819-2.056 2.023m14.412 11.483c.016-2.627.016-6.288.01-7.8m-2.303.013l.012 7.787M27.204 45.025v1.395M40.4 42.988c-3.629.038-7.433.014-11.14.014m20.82 6.055h-.684m-.133 7.2c.145.001.57 0 .817 0m-20.82 5.987h9.876m-11.933-3.418v1.395m-2.875-3.084c.564.561 1.127 1.125 1.69 1.689m-.839-3.887h-.851m0-4.633h.851m.838-3.886a673.19 673.19 0 0 1-1.69 1.69"/>
</svg>
