  0
SECTION
  2
HEADER
  9
$ACADVER
  1
AC1014
  9
$HANDSEED
  5
FFFF
  9
$MEASUREMENT
 70
     1
  0
ENDSEC
  0
SECTION
  2
TABLES
  0
TABLE
  2
VPORT
  5
8
330
0
100
AcDbSymbolTable
 70
     4
  0
VPORT
  5
2E
330
8
100
AcDbSymbolTableRecord
100
AcDbViewportTableRecord
  2
*ACTIVE
 70
     0
 10
0.0
 20
0.0
 11
1.0
 21
1.0
 12
210.0
 22
148.5
 13
0.0
 23
0.0
 14
10.0
 24
10.0
 15
10.0
 25
10.0
 16
0.0
 26
0.0
 36
1.0
 17
0.0
 27
0.0
 37
0.0
 40
341.0
 41
1.24
 42
50.0
 43
0.0
 44
0.0
 50
0.0
 51
0.0
 71
     0
 72
   100
 73
     1
 74
     3
 75
     0
 76
     0
 77
     0
 78
     0
  0
ENDTAB
  0
TABLE
  2
LTYPE
  5
5
330
0
100
AcDbSymbolTable
 70
     1
  0
LTYPE
  5
14
330
5
100
AcDbSymbolTableRecord
100
AcDbLinetypeTableRecord
  2
BYBLOCK
 70
     0
  3

 72
    65
 73
     0
 40
0.0
  0
LTYPE
  5
15
330
5
100
AcDbSymbolTableRecord
100
AcDbLinetypeTableRecord
  2
BYLAYER
 70
     0
  3

 72
    65
 73
     0
 40
0.0
  0
LTYPE
  5
16
330
5
100
AcDbSymbolTableRecord
100
AcDbLinetypeTableRecord
  2
CONTINUOUS
 70
     0
  3
Solid line
 72
    65
 73
     0
 40
0.0
  0
ENDTAB
  0
TABLE
  2
LAYER
  5
2
100
AcDbSymbolTable
 70
2
  0
LAYER
  5
50
100
AcDbSymbolTableRecord
100
AcDbLayerTableRecord
  2
0
 70
0
  6
CONTINUOUS
  0
LAYER
  5
51
100
AcDbSymbolTableRecord
100
AcDbLayerTableRecord
  2
Layer_1
 70
0
  6
CONTINUOUS
  0
ENDTAB
  0
TABLE
  2
STYLE
  5
3
330
0
100
AcDbSymbolTable
 70
     1
  0
STYLE
  5
11
330
3
100
AcDbSymbolTableRecord
100
AcDbTextStyleTableRecord
  2
STANDARD
 70
     0
 40
0.0
 41
1.0
 50
0.0
 71
     0
 42
2.5
  3
txt
  4

  0
ENDTAB
  0
TABLE
  2
VIEW
  5
6
330
0
100
AcDbSymbolTable
 70
     0
  0
ENDTAB
  0
TABLE
  2
UCS
  5
7
330
0
100
AcDbSymbolTable
 70
     0
  0
ENDTAB
  0
TABLE
  2
APPID
  5
9
330
0
100
AcDbSymbolTable
 70
     2
  0
APPID
  5
12
330
9
100
AcDbSymbolTableRecord
100
AcDbRegAppTableRecord
  2
ACAD
 70
     0
  0
ENDTAB
  0
TABLE
  2
DIMSTYLE
  5
A
330
0
100
AcDbSymbolTable
 70
     1
  0
DIMSTYLE
105
27
330
A
100
AcDbSymbolTableRecord
100
AcDbDimStyleTableRecord
  2
ISO-25
 70
     0
  3

  4

  5

  6

  7

 40
1.0
 41
2.5
 42
0.625
 43
3.75
 44
1.25
 45
0.0
 46
0.0
 47
0.0
 48
0.0
140
2.5
141
2.5
142
0.0
143
0.03937007874016
144
1.0
145
0.0
146
1.0
147
0.625
 71
     0
 72
     0
 73
     0
 74
     0
 75
     0
 76
     0
 77
     1
 78
     8
170
     0
171
     3
172
     1
173
     0
174
     0
175
     0
176
     0
177
     0
178
     0
270
     2
271
     2
272
     2
273
     2
274
     3
340
11
275
     0
280
     0
281
     0
282
     0
283
     0
284
     8
285
     0
286
     0
287
     3
288
     0
  0
ENDTAB
  0
TABLE
  2
BLOCK_RECORD
  5
1
330
0
100
AcDbSymbolTable
 70
     1
  0
BLOCK_RECORD
  5
1F
330
1
100
AcDbSymbolTableRecord
100
AcDbBlockTableRecord
  2
*MODEL_SPACE
  0
BLOCK_RECORD
  5
1B
330
1
100
AcDbSymbolTableRecord
100
AcDbBlockTableRecord
  2
*PAPER_SPACE
  0
ENDTAB
  0
ENDSEC
  0
SECTION
  2
BLOCKS
  0
BLOCK
  5
20
330
1F
100
AcDbEntity
  8
0
100
AcDbBlockBegin
  2
*MODEL_SPACE
 70
     0
 10
0.0
 20
0.0
 30
0.0
  3
*MODEL_SPACE
  1

  0
ENDBLK
  5
21
330
1F
100
AcDbEntity
  8
0
100
AcDbBlockEnd
  0
BLOCK
  5
1C
330
1B
100
AcDbEntity
 67
     1
  8
0
100
AcDbBlockBegin
  2
*PAPER_SPACE
  1

  0
ENDBLK
  5
1D
330
1B
100
AcDbEntity
 67
     1
  8
0
100
AcDbBlockEnd
  0
ENDSEC
  0
SECTION
  2
ENTITIES
  0
LWPOLYLINE
  5
100
100
AcDbEntity
  8
Layer_1
 62
7
100
AcDbPolyline
 90
26
 70
0
 10
31.324739
 20
38.692403
 30
0.0
 10
32.221985
 20
38.809603
 30
0.0
 10
33.058745
 20
39.156403
 30
0.0
 10
33.776764
 20
39.708083
 30
0.0
 10
34.328432
 20
40.426083
 30
0.0
 10
34.675282
 20
41.262883
 30
0.0
 10
34.792499
 20
42.160163
 30
0.0
 10
34.675291
 20
43.057419
 30
0.0
 10
34.328468
 20
43.894179
 30
0.0
 10
33.776814
 20
44.612187
 30
0.0
 10
33.058806
 20
45.163851
 30
0.0
 10
32.222019
 20
45.510683
 30
0.0
 10
31.324739
 20
45.627899
 30
0.0
 10
30.427461
 20
45.510699
 30
0.0
 10
29.590678
 20
45.163883
 30
0.0
 10
28.872644
 20
44.612243
 30
0.0
 10
28.320969
 20
43.894243
 30
0.0
 10
27.974117
 20
43.057451
 30
0.0
 10
27.856899
 20
42.160163
 30
0.0
 10
27.974107
 20
41.262883
 30
0.0
 10
28.320933
 20
40.426083
 30
0.0
 10
28.872594
 20
39.708083
 30
0.0
 10
29.590616
 20
39.156483
 30
0.0
 10
30.427426
 20
38.809603
 30
0.0
 10
31.324739
 20
38.692403
 30
0.0
 10
31.324739
 20
38.692403
 30
0.0
  0
LWPOLYLINE
  5
101
100
AcDbEntity
  8
Layer_1
 62
7
100
AcDbPolyline
 90
58
 70
0
 10
21.091299
 20
42.095011
 30
0.0
 10
21.155187
 20
40.942083
 30
0.0
 10
21.347174
 20
39.804803
 30
0.0
 10
21.666075
 20
38.696163
 30
0.0
 10
22.108009
 20
37.630483
 30
0.0
 10
22.667428
 20
36.620483
 30
0.0
 10
23.335663
 20
35.680483
 30
0.0
 10
24.104596
 20
34.820643
 30
0.0
 10
24.964430
 20
34.051763
 30
0.0
 10
25.904534
 20
33.383523
 30
0.0
 10
26.914611
 20
32.824083
 30
0.0
 10
27.980570
 20
32.382083
 30
0.0
 10
29.089538
 20
32.063123
 30
0.0
 10
30.226540
 20
31.871283
 30
0.0
 10
31.379140
 20
31.807283
 30
0.0
 10
32.532062
 20
31.871283
 30
0.0
 10
33.669362
 20
32.063203
 30
0.0
 10
34.778038
 20
32.382083
 30
0.0
 10
35.843722
 20
32.824003
 30
0.0
 10
36.853694
 20
33.383443
 30
0.0
 10
37.793703
 20
34.051603
 30
0.0
 10
38.653516
 20
34.820563
 30
0.0
 10
39.422428
 20
35.680323
 30
0.0
 10
40.090692
 20
36.620403
 30
0.0
 10
40.650126
 20
37.630483
 30
0.0
 10
41.092117
 20
38.696403
 30
0.0
 10
41.411022
 20
39.805363
 30
0.0
 10
41.602892
 20
40.942323
 30
0.0
 10
41.666740
 20
42.094931
 30
0.0
 10
41.602852
 20
43.247891
 30
0.0
 10
41.410874
 20
44.385227
 30
0.0
 10
41.091988
 20
45.493931
 30
0.0
 10
40.650074
 20
46.559635
 30
0.0
 10
40.090677
 20
47.569627
 30
0.0
 10
39.422466
 20
48.509651
 30
0.0
 10
38.653560
 20
49.369475
 30
0.0
 10
37.793753
 20
50.138403
 30
0.0
 10
36.853673
 20
50.806675
 30
0.0
 10
35.843618
 20
51.366107
 30
0.0
 10
34.777678
 20
51.808107
 30
0.0
 10
33.668726
 20
52.127011
 30
0.0
 10
32.531733
 20
52.318883
 30
0.0
 10
31.379136
 20
52.382723
 30
0.0
 10
30.226211
 20
52.318803
 30
0.0
 10
29.088901
 20
52.126827
 30
0.0
 10
27.980210
 20
51.807939
 30
0.0
 10
26.914508
 20
51.366027
 30
0.0
 10
25.904513
 20
50.806619
 30
0.0
 10
24.964478
 20
50.138403
 30
0.0
 10
24.104640
 20
49.369491
 30
0.0
 10
23.335702
 20
48.509667
 30
0.0
 10
22.667413
 20
47.569571
 30
0.0
 10
22.107957
 20
46.559499
 30
0.0
 10
21.665946
 20
45.493531
 30
0.0
 10
21.347026
 20
44.384547
 30
0.0
 10
21.155147
 20
43.247523
 30
0.0
 10
21.091299
 20
42.094891
 30
0.0
 10
21.091299
 20
42.094891
 30
0.0
  0
LWPOLYLINE
  5
102
100
AcDbEntity
  8
Layer_1
 62
7
100
AcDbPolyline
 90
3
 70
0
 10
18.377619
 20
39.327603
 30
0.0
 10
18.377619
 20
40.744323
 30
0.0
 10
18.377619
 20
42.161019
 30
0.0
  0
LWPOLYLINE
  5
103
100
AcDbEntity
  8
Layer_1
 62
7
100
AcDbPolyline
 90
3
 70
0
 10
19.418419
 20
39.327603
 30
0.0
 10
19.418419
 20
40.744323
 30
0.0
 10
19.418419
 20
42.161019
 30
0.0
  0
LWPOLYLINE
  5
104
100
AcDbEntity
  8
Layer_1
 62
7
100
AcDbPolyline
 90
74
 70
0
 10
21.420899
 20
39.354403
 30
0.0
 10
20.504489
 20
39.354403
 30
0.0
 10
19.588699
 20
39.354403
 30
0.0
 10
18.672910
 20
39.354403
 30
0.0
 10
17.756499
 20
39.354403
 30
0.0
 10
17.756499
 20
38.046483
 30
0.0
 10
18.451299
 20
37.236883
 30
0.0
 10
19.146099
 20
36.427363
 30
0.0
 10
20.734499
 20
36.427363
 30
0.0
 10
22.322899
 20
36.427363
 30
0.0
 10
22.943987
 20
35.538883
 30
0.0
 10
23.650960
 20
34.717123
 30
0.0
 10
24.437286
 20
33.969683
 30
0.0
 10
25.294183
 20
33.305043
 30
0.0
 10
26.213251
 20
32.730243
 30
0.0
 10
27.185494
 20
32.251363
 30
0.0
 10
28.202127
 20
31.873603
 30
0.0
 10
29.251659
 20
31.601603
 30
0.0
 10
30.323779
 20
31.438003
 30
0.0
 10
31.406339
 20
31.383603
 30
0.0
 10
32.455950
 20
31.434803
 30
0.0
 10
33.496559
 20
31.587843
 30
0.0
 10
34.516457
 20
31.842483
 30
0.0
 10
35.506388
 20
32.196723
 30
0.0
 10
36.456310
 20
32.646723
 30
0.0
 10
37.357329
 20
33.187843
 30
0.0
 10
38.201336
 20
33.814723
 30
0.0
 10
38.980276
 20
34.520963
 30
0.0
 10
39.686710
 20
35.299923
 30
0.0
 10
40.313682
 20
36.143843
 30
0.0
 10
40.855072
 20
37.045203
 30
0.0
 10
41.305290
 20
37.995603
 30
0.0
 10
41.659381
 20
38.985123
 30
0.0
 10
41.913989
 20
40.004643
 30
0.0
 10
42.067138
 20
41.045523
 30
0.0
 10
42.117938
 20
42.095379
 30
0.0
 10
42.067162
 20
43.144987
 30
0.0
 10
41.914096
 20
44.185595
 30
0.0
 10
41.659425
 20
45.205499
 30
0.0
 10
41.305196
 20
46.195427
 30
0.0
 10
40.855168
 20
47.145347
 30
0.0
 10
40.314043
 20
48.046371
 30
0.0
 10
39.687159
 20
48.890379
 30
0.0
 10
38.980818
 20
49.669315
 30
0.0
 10
38.201884
 20
50.375747
 30
0.0
 10
37.357870
 20
51.002723
 30
0.0
 10
36.456494
 20
51.544115
 30
0.0
 10
35.506166
 20
51.994331
 30
0.0
 10
34.516612
 20
52.348419
 30
0.0
 10
33.497118
 20
52.603027
 30
0.0
 10
32.456233
 20
52.756179
 30
0.0
 10
31.406335
 20
52.806979
 30
0.0
 10
30.336846
 20
52.754259
 30
0.0
 10
29.277215
 20
52.595379
 30
0.0
 10
28.239575
 20
52.331147
 30
0.0
 10
27.233639
 20
51.963803
 30
0.0
 10
26.269374
 20
51.497099
 30
0.0
 10
25.356659
 20
50.936227
 30
0.0
 10
24.504815
 20
50.287523
 30
0.0
 10
23.721336
 20
49.557147
 30
0.0
 10
23.014046
 20
48.752379
 30
0.0
 10
22.390175
 20
47.881067
 30
0.0
 10
22.415775
 20
47.882667
 30
0.0
 10
21.599191
 20
47.882667
 30
0.0
 10
20.781055
 20
47.882667
 30
0.0
 10
19.962919
 20
47.882667
 30
0.0
 10
19.146335
 20
47.882667
 30
0.0
 10
18.451535
 20
47.078963
 30
0.0
 10
17.756735
 20
46.275259
 30
0.0
 10
17.756735
 20
44.967571
 30
0.0
 10
18.673146
 20
44.967571
 30
0.0
 10
19.588935
 20
44.967571
 30
0.0
 10
20.504725
 20
44.967571
 30
0.0
 10
21.421135
 20
44.967571
 30
0.0
  0
LWPOLYLINE
  5
105
100
AcDbEntity
  8
Layer_1
 62
7
100
AcDbPolyline
 90
10
 70
0
 10
18.734015
 20
37.948883
 30
0.0
 10
19.072625
 20
38.766243
 30
0.0
 10
19.890095
 20
39.104803
 30
0.0
 10
20.707426
 20
38.766243
 30
0.0
 10
21.046015
 20
37.948883
 30
0.0
 10
20.707426
 20
37.131603
 30
0.0
 10
19.890095
 20
36.793043
 30
0.0
 10
19.072625
 20
37.131603
 30
0.0
 10
18.734015
 20
37.948883
 30
0.0
 10
18.734015
 20
37.948883
 30
0.0
  0
LWPOLYLINE
  5
106
100
AcDbEntity
  8
Layer_1
 62
7
100
AcDbPolyline
 90
3
 70
0
 10
18.377855
 20
44.994779
 30
0.0
 10
18.377855
 20
43.578051
 30
0.0
 10
18.377855
 20
42.161315
 30
0.0
  0
LWPOLYLINE
  5
107
100
AcDbEntity
  8
Layer_1
 62
7
100
AcDbPolyline
 90
3
 70
0
 10
19.418655
 20
44.994779
 30
0.0
 10
19.418655
 20
43.578051
 30
0.0
 10
19.418655
 20
42.161315
 30
0.0
  0
LWPOLYLINE
  5
108
100
AcDbEntity
  8
Layer_1
 62
7
100
AcDbPolyline
 90
10
 70
0
 10
18.734015
 20
46.373179
 30
0.0
 10
19.072625
 20
45.555891
 30
0.0
 10
19.890095
 20
45.217395
 30
0.0
 10
20.707426
 20
45.555891
 30
0.0
 10
21.046015
 20
46.373179
 30
0.0
 10
20.707426
 20
47.190563
 30
0.0
 10
19.890095
 20
47.529163
 30
0.0
 10
19.072625
 20
47.190563
 30
0.0
 10
18.734015
 20
46.373179
 30
0.0
 10
18.734015
 20
46.373179
 30
0.0
  0
LWPOLYLINE
  5
109
100
AcDbEntity
  8
Layer_1
 62
7
100
AcDbPolyline
 90
7
 70
0
 10
30.562095
 20
38.853603
 30
0.0
 10
30.562095
 20
39.959523
 30
0.0
 10
30.562095
 20
41.064003
 30
0.0
 10
30.562095
 20
42.168891
 30
0.0
 10
30.562095
 20
43.273787
 30
0.0
 10
30.562095
 20
44.378691
 30
0.0
 10
30.562095
 20
45.484971
 30
0.0
  0
LWPOLYLINE
  5
10a
100
AcDbEntity
  8
Layer_1
 62
7
100
AcDbPolyline
 90
7
 70
0
 10
32.196655
 20
38.853603
 30
0.0
 10
32.196655
 20
39.959523
 30
0.0
 10
32.196655
 20
41.064003
 30
0.0
 10
32.196655
 20
42.168891
 30
0.0
 10
32.196655
 20
43.273787
 30
0.0
 10
32.196655
 20
44.378691
 30
0.0
 10
32.196655
 20
45.484971
 30
0.0
  0
LWPOLYLINE
  5
10b
100
AcDbEntity
  8
Layer_1
 62
7
100
AcDbPolyline
 90
7
 70
0
 10
19.966255
 20
44.931915
 30
0.0
 10
19.966255
 20
44.013195
 30
0.0
 10
19.966255
 20
43.095563
 30
0.0
 10
19.966255
 20
42.177699
 30
0.0
 10
19.966255
 20
41.259763
 30
0.0
 10
19.966255
 20
40.341923
 30
0.0
 10
19.966255
 20
39.422883
 30
0.0
  0
LWPOLYLINE
  5
10c
100
AcDbEntity
  8
Layer_1
 62
7
100
AcDbPolyline
 90
7
 70
0
 10
20.582575
 20
44.890899
 30
0.0
 10
20.582575
 20
43.979019
 30
0.0
 10
20.582575
 20
43.068219
 30
0.0
 10
20.582575
 20
42.157187
 30
0.0
 10
20.582575
 20
41.246163
 30
0.0
 10
20.582575
 20
40.335043
 30
0.0
 10
20.582575
 20
39.422883
 30
0.0
  0
ENDSEC
  0
SECTION
  2
OBJECTS
  0
DICTIONARY
  5
C
330
0
100
AcDbDictionary
  3
ACAD_GROUP
350
D
  3
ACAD_MLINESTYLE
350
17
  0
DICTIONARY
  5
D
330
C
100
AcDbDictionary
  0
DICTIONARY
  5
1A
330
C
100
AcDbDictionary
  0
DICTIONARY
  5
17
330
C
100
AcDbDictionary
  3
STANDARD
350
18
  0
DICTIONARY
  5
19
330
C
100
AcDbDictionary
  0
ENDSEC
  0
EOF
