  0
SECTION
  2
HEADER
  9
$ACADVER
  1
AC1014
  9
$HANDSEED
  5
FFFF
  9
$MEASUREMENT
 70
     1
  0
ENDSEC
  0
SECTION
  2
TABLES
  0
TABLE
  2
VPORT
  5
8
330
0
100
AcDbSymbolTable
 70
     4
  0
VPORT
  5
2E
330
8
100
AcDbSymbolTableRecord
100
AcDbViewportTableRecord
  2
*ACTIVE
 70
     0
 10
0.0
 20
0.0
 11
1.0
 21
1.0
 12
210.0
 22
148.5
 13
0.0
 23
0.0
 14
10.0
 24
10.0
 15
10.0
 25
10.0
 16
0.0
 26
0.0
 36
1.0
 17
0.0
 27
0.0
 37
0.0
 40
341.0
 41
1.24
 42
50.0
 43
0.0
 44
0.0
 50
0.0
 51
0.0
 71
     0
 72
   100
 73
     1
 74
     3
 75
     0
 76
     0
 77
     0
 78
     0
  0
ENDTAB
  0
TABLE
  2
LTYPE
  5
5
330
0
100
AcDbSymbolTable
 70
     1
  0
LTYPE
  5
14
330
5
100
AcDbSymbolTableRecord
100
AcDbLinetypeTableRecord
  2
BYBLOCK
 70
     0
  3

 72
    65
 73
     0
 40
0.0
  0
LTYPE
  5
15
330
5
100
AcDbSymbolTableRecord
100
AcDbLinetypeTableRecord
  2
BYLAYER
 70
     0
  3

 72
    65
 73
     0
 40
0.0
  0
LTYPE
  5
16
330
5
100
AcDbSymbolTableRecord
100
AcDbLinetypeTableRecord
  2
CONTINUOUS
 70
     0
  3
Solid line
 72
    65
 73
     0
 40
0.0
  0
ENDTAB
  0
TABLE
  2
LAYER
  5
2
100
AcDbSymbolTable
 70
2
  0
LAYER
  5
50
100
AcDbSymbolTableRecord
100
AcDbLayerTableRecord
  2
0
 70
0
  6
CONTINUOUS
  0
LAYER
  5
51
100
AcDbSymbolTableRecord
100
AcDbLayerTableRecord
  2
Layer_1
 70
0
  6
CONTINUOUS
  0
ENDTAB
  0
TABLE
  2
STYLE
  5
3
330
0
100
AcDbSymbolTable
 70
     1
  0
STYLE
  5
11
330
3
100
AcDbSymbolTableRecord
100
AcDbTextStyleTableRecord
  2
STANDARD
 70
     0
 40
0.0
 41
1.0
 50
0.0
 71
     0
 42
2.5
  3
txt
  4

  0
ENDTAB
  0
TABLE
  2
VIEW
  5
6
330
0
100
AcDbSymbolTable
 70
     0
  0
ENDTAB
  0
TABLE
  2
UCS
  5
7
330
0
100
AcDbSymbolTable
 70
     0
  0
ENDTAB
  0
TABLE
  2
APPID
  5
9
330
0
100
AcDbSymbolTable
 70
     2
  0
APPID
  5
12
330
9
100
AcDbSymbolTableRecord
100
AcDbRegAppTableRecord
  2
ACAD
 70
     0
  0
ENDTAB
  0
TABLE
  2
DIMSTYLE
  5
A
330
0
100
AcDbSymbolTable
 70
     1
  0
DIMSTYLE
105
27
330
A
100
AcDbSymbolTableRecord
100
AcDbDimStyleTableRecord
  2
ISO-25
 70
     0
  3

  4

  5

  6

  7

 40
1.0
 41
2.5
 42
0.625
 43
3.75
 44
1.25
 45
0.0
 46
0.0
 47
0.0
 48
0.0
140
2.5
141
2.5
142
0.0
143
0.03937007874016
144
1.0
145
0.0
146
1.0
147
0.625
 71
     0
 72
     0
 73
     0
 74
     0
 75
     0
 76
     0
 77
     1
 78
     8
170
     0
171
     3
172
     1
173
     0
174
     0
175
     0
176
     0
177
     0
178
     0
270
     2
271
     2
272
     2
273
     2
274
     3
340
11
275
     0
280
     0
281
     0
282
     0
283
     0
284
     8
285
     0
286
     0
287
     3
288
     0
  0
ENDTAB
  0
TABLE
  2
BLOCK_RECORD
  5
1
330
0
100
AcDbSymbolTable
 70
     1
  0
BLOCK_RECORD
  5
1F
330
1
100
AcDbSymbolTableRecord
100
AcDbBlockTableRecord
  2
*MODEL_SPACE
  0
BLOCK_RECORD
  5
1B
330
1
100
AcDbSymbolTableRecord
100
AcDbBlockTableRecord
  2
*PAPER_SPACE
  0
ENDTAB
  0
ENDSEC
  0
SECTION
  2
BLOCKS
  0
BLOCK
  5
20
330
1F
100
AcDbEntity
  8
0
100
AcDbBlockBegin
  2
*MODEL_SPACE
 70
     0
 10
0.0
 20
0.0
 30
0.0
  3
*MODEL_SPACE
  1

  0
ENDBLK
  5
21
330
1F
100
AcDbEntity
  8
0
100
AcDbBlockEnd
  0
BLOCK
  5
1C
330
1B
100
AcDbEntity
 67
     1
  8
0
100
AcDbBlockBegin
  2
*PAPER_SPACE
  1

  0
ENDBLK
  5
1D
330
1B
100
AcDbEntity
 67
     1
  8
0
100
AcDbBlockEnd
  0
ENDSEC
  0
SECTION
  2
ENTITIES
  0
LWPOLYLINE
  5
100
100
AcDbEntity
  8
Layer_1
 62
7
100
AcDbPolyline
 90
2
 70
0
 10
21.588634
 20
-122.657779
 30
0.0
 10
22.507784
 20
-122.657779
 30
0.0
  0
LWPOLYLINE
  5
101
100
AcDbEntity
  8
Layer_1
 62
7
100
AcDbPolyline
 90
2
 70
0
 10
21.588634
 20
-125.402579
 30
0.0
 10
22.507784
 20
-125.402579
 30
0.0
  0
LWPOLYLINE
  5
102
100
AcDbEntity
  8
Layer_1
 62
7
100
AcDbPolyline
 90
6
 70
0
 10
23.248333
 20
-127.272099
 30
0.0
 10
23.970514
 20
-127.994339
 30
0.0
 10
23.248333
 20
-128.716499
 30
0.0
 10
22.526143
 20
-127.994339
 30
0.0
 10
23.248333
 20
-127.272099
 30
0.0
 10
23.248333
 20
-127.272099
 30
0.0
  0
LWPOLYLINE
  5
103
100
AcDbEntity
  8
Layer_1
 62
7
100
AcDbPolyline
 90
10
 70
0
 10
23.222693
 20
-126.838659
 30
0.0
 10
24.039882
 20
-127.177159
 30
0.0
 10
24.378301
 20
-127.994339
 30
0.0
 10
24.039882
 20
-128.811449
 30
0.0
 10
23.222693
 20
-129.149939
 30
0.0
 10
22.405663
 20
-128.811449
 30
0.0
 10
22.067267
 20
-127.994339
 30
0.0
 10
22.405663
 20
-127.177159
 30
0.0
 10
23.222693
 20
-126.838659
 30
0.0
 10
23.222693
 20
-126.838659
 30
0.0
  0
LWPOLYLINE
  5
104
100
AcDbEntity
  8
Layer_1
 62
7
100
AcDbPolyline
 90
23
 70
0
 10
24.895922
 20
-126.054579
 30
0.0
 10
23.986653
 20
-126.050177
 30
0.0
 10
23.078465
 20
-126.045779
 30
0.0
 10
22.170047
 20
-126.041381
 30
0.0
 10
21.261597
 20
-126.036982
 30
0.0
 10
20.353136
 20
-126.032583
 30
0.0
 10
19.443545
 20
-126.028179
 30
0.0
 10
19.443545
 20
-126.909099
 30
0.0
 10
19.443545
 20
-127.790019
 30
0.0
 10
20.120292
 20
-128.466779
 30
0.0
 10
20.797040
 20
-129.143539
 30
0.0
 10
21.747715
 20
-129.143539
 30
0.0
 10
21.747715
 20
-130.261859
 30
0.0
 10
22.229760
 20
-131.418792
 30
0.0
 10
23.396283
 20
-131.884179
 30
0.0
 10
24.475795
 20
-131.883179
 30
0.0
 10
25.556015
 20
-131.882179
 30
0.0
 10
26.635865
 20
-131.881178
 30
0.0
 10
27.715248
 20
-131.880178
 30
0.0
 10
28.793967
 20
-131.879179
 30
0.0
 10
29.873108
 20
-131.878179
 30
0.0
 10
30.953068
 20
-131.877179
 30
0.0
 10
32.032286
 20
-131.876179
 30
0.0
  0
LWPOLYLINE
  5
105
100
AcDbEntity
  8
Layer_1
 62
7
100
AcDbPolyline
 90
5
 70
0
 10
20.184094
 20
-122.320979
 30
0.0
 10
20.184094
 20
-123.246933
 30
0.0
 10
20.184094
 20
-124.172259
 30
0.0
 10
20.184094
 20
-125.097586
 30
0.0
 10
20.184094
 20
-126.023539
 30
0.0
  0
LWPOLYLINE
  5
106
100
AcDbEntity
  8
Layer_1
 62
7
100
AcDbPolyline
 90
5
 70
0
 10
21.598793
 20
-122.338979
 30
0.0
 10
21.598793
 20
-123.255990
 30
0.0
 10
21.598793
 20
-124.172379
 30
0.0
 10
21.598793
 20
-125.088769
 30
0.0
 10
21.598793
 20
-126.005779
 30
0.0
  0
LWPOLYLINE
  5
107
100
AcDbEntity
  8
Layer_1
 62
7
100
AcDbPolyline
 90
6
 70
0
 10
23.248288
 20
-121.102659
 30
0.0
 10
23.970470
 20
-120.380339
 30
0.0
 10
23.248288
 20
-119.658099
 30
0.0
 10
22.526098
 20
-120.380339
 30
0.0
 10
23.248288
 20
-121.102659
 30
0.0
 10
23.248288
 20
-121.102659
 30
0.0
  0
LWPOLYLINE
  5
108
100
AcDbEntity
  8
Layer_1
 62
7
100
AcDbPolyline
 90
10
 70
0
 10
23.222648
 20
-121.535939
 30
0.0
 10
24.039837
 20
-121.197449
 30
0.0
 10
24.378256
 20
-120.380339
 30
0.0
 10
24.039837
 20
-119.563229
 30
0.0
 10
23.222648
 20
-119.224739
 30
0.0
 10
22.405619
 20
-119.563229
 30
0.0
 10
22.067222
 20
-120.380339
 30
0.0
 10
22.405619
 20
-121.197449
 30
0.0
 10
23.222648
 20
-121.535939
 30
0.0
 10
23.222648
 20
-121.535939
 30
0.0
  0
LWPOLYLINE
  5
109
100
AcDbEntity
  8
Layer_1
 62
7
100
AcDbPolyline
 90
23
 70
0
 10
24.869381
 20
-122.346499
 30
0.0
 10
23.964530
 20
-122.346499
 30
0.0
 10
23.060756
 20
-122.346499
 30
0.0
 10
22.156752
 20
-122.346499
 30
0.0
 10
21.252717
 20
-122.346499
 30
0.0
 10
20.348671
 20
-122.346499
 30
0.0
 10
19.443500
 20
-122.346499
 30
0.0
 10
19.443500
 20
-121.465579
 30
0.0
 10
19.443500
 20
-120.584659
 30
0.0
 10
20.120248
 20
-119.907979
 30
0.0
 10
20.796995
 20
-119.231299
 30
0.0
 10
21.747670
 20
-119.231299
 30
0.0
 10
21.747670
 20
-118.112819
 30
0.0
 10
22.228600
 20
-116.957902
 30
0.0
 10
23.394014
 20
-116.494339
 30
0.0
 10
24.473805
 20
-116.495339
 30
0.0
 10
25.554303
 20
-116.496340
 30
0.0
 10
26.634430
 20
-116.497340
 30
0.0
 10
27.714092
 20
-116.498340
 30
0.0
 10
28.793088
 20
-116.499339
 30
0.0
 10
29.872507
 20
-116.500339
 30
0.0
 10
30.952745
 20
-116.501339
 30
0.0
 10
32.032242
 20
-116.502339
 30
0.0
  0
LWPOLYLINE
  5
10a
100
AcDbEntity
  8
Layer_1
 62
7
100
AcDbPolyline
 90
7
 70
0
 10
31.445535
 20
-121.077539
 30
0.0
 10
31.445535
 20
-122.123186
 30
0.0
 10
31.445535
 20
-123.167590
 30
0.0
 10
31.445535
 20
-124.212259
 30
0.0
 10
31.445535
 20
-125.256964
 30
0.0
 10
31.445535
 20
-126.301681
 30
0.0
 10
31.445535
 20
-127.347699
 30
0.0
  0
LWPOLYLINE
  5
10b
100
AcDbEntity
  8
Layer_1
 62
7
100
AcDbPolyline
 90
7
 70
0
 10
33.309606
 20
-121.116019
 30
0.0
 10
33.309606
 20
-122.145630
 30
0.0
 10
33.309606
 20
-123.174017
 30
0.0
 10
33.309606
 20
-124.202664
 30
0.0
 10
33.309606
 20
-125.231348
 30
0.0
 10
33.309606
 20
-126.260043
 30
0.0
 10
33.309606
 20
-127.290019
 30
0.0
  0
LWPOLYLINE
  5
10c
100
AcDbEntity
  8
Layer_1
 62
7
100
AcDbPolyline
 90
9
 70
0
 10
39.535378
 20
-121.338099
 30
0.0
 10
40.084044
 20
-121.338099
 30
0.0
 10
40.084044
 20
-122.300470
 30
0.0
 10
40.084044
 20
-123.261697
 30
0.0
 10
40.084044
 20
-124.223167
 30
0.0
 10
40.084044
 20
-125.184672
 30
0.0
 10
40.084044
 20
-126.146187
 30
0.0
 10
40.084044
 20
-127.108899
 30
0.0
 10
39.455898
 20
-127.108899
 30
0.0
  0
LWPOLYLINE
  5
10d
100
AcDbEntity
  8
Layer_1
 62
7
100
AcDbPolyline
 90
50
 70
0
 10
32.377570
 20
-131.884579
 30
0.0
 10
33.381588
 20
-131.819642
 30
0.0
 10
34.368846
 20
-131.624323
 30
0.0
 10
35.321637
 20
-131.301016
 30
0.0
 10
36.223974
 20
-130.855243
 30
0.0
 10
37.059942
 20
-130.295637
 30
0.0
 10
37.816537
 20
-129.631638
 30
0.0
 10
38.480560
 20
-128.874992
 30
0.0
 10
39.040178
 20
-128.038964
 30
0.0
 10
39.485910
 20
-127.136655
 30
0.0
 10
39.809185
 20
-126.183894
 30
0.0
 10
40.004478
 20
-125.196697
 30
0.0
 10
40.069406
 20
-124.192739
 30
0.0
 10
40.004468
 20
-123.188722
 30
0.0
 10
39.809145
 20
-122.201467
 30
0.0
 10
39.485832
 20
-121.248681
 30
0.0
 10
39.040052
 20
-120.346353
 30
0.0
 10
38.480439
 20
-119.510393
 30
0.0
 10
37.816435
 20
-118.753808
 30
0.0
 10
37.059785
 20
-118.089795
 30
0.0
 10
36.223755
 20
-117.530186
 30
0.0
 10
35.321449
 20
-117.084463
 30
0.0
 10
34.368696
 20
-116.761195
 30
0.0
 10
33.381510
 20
-116.565906
 30
0.0
 10
32.377570
 20
-116.500979
 30
0.0
 10
31.373555
 20
-116.565916
 30
0.0
 10
30.386299
 20
-116.761235
 30
0.0
 10
29.433510
 20
-117.084541
 30
0.0
 10
28.531175
 20
-117.530313
 30
0.0
 10
27.695208
 20
-118.089916
 30
0.0
 10
26.938615
 20
-118.753910
 30
0.0
 10
26.274593
 20
-119.510550
 30
0.0
 10
25.714976
 20
-120.346571
 30
0.0
 10
25.269246
 20
-121.248870
 30
0.0
 10
24.945971
 20
-122.201617
 30
0.0
 10
24.750678
 20
-123.188800
 30
0.0
 10
24.685750
 20
-124.192739
 30
0.0
 10
24.750689
 20
-125.196774
 30
0.0
 10
24.946011
 20
-126.184044
 30
0.0
 10
25.269324
 20
-127.136843
 30
0.0
 10
25.715102
 20
-128.039182
 30
0.0
 10
26.274714
 20
-128.875149
 30
0.0
 10
26.938717
 20
-129.631740
 30
0.0
 10
27.695365
 20
-130.295757
 30
0.0
 10
28.531393
 20
-130.855369
 30
0.0
 10
29.433698
 20
-131.301094
 30
0.0
 10
30.386449
 20
-131.624363
 30
0.0
 10
31.373633
 20
-131.819652
 30
0.0
 10
32.377570
 20
-131.884579
 30
0.0
 10
32.377570
 20
-131.884579
 30
0.0
  0
LWPOLYLINE
  5
10e
100
AcDbEntity
  8
Layer_1
 62
7
100
AcDbPolyline
 90
26
 70
0
 10
32.377570
 20
-127.442819
 30
0.0
 10
33.218489
 20
-127.332967
 30
0.0
 10
34.002715
 20
-127.007912
 30
0.0
 10
34.675651
 20
-126.490883
 30
0.0
 10
35.192678
 20
-125.817945
 30
0.0
 10
35.517746
 20
-125.033687
 30
0.0
 10
35.627602
 20
-124.192739
 30
0.0
 10
35.517755
 20
-123.351857
 30
0.0
 10
35.192712
 20
-122.567648
 30
0.0
 10
34.675698
 20
-121.894713
 30
0.0
 10
34.002773
 20
-121.377678
 30
0.0
 10
33.218522
 20
-121.052600
 30
0.0
 10
32.377570
 20
-120.942739
 30
0.0
 10
31.536655
 20
-121.052591
 30
0.0
 10
30.752431
 20
-121.377644
 30
0.0
 10
30.079497
 20
-121.894666
 30
0.0
 10
29.562470
 20
-122.567590
 30
0.0
 10
29.237402
 20
-123.351825
 30
0.0
 10
29.127546
 20
-124.192739
 30
0.0
 10
29.237394
 20
-125.033654
 30
0.0
 10
29.562437
 20
-125.817887
 30
0.0
 10
30.079450
 20
-126.490836
 30
0.0
 10
30.752373
 20
-127.007878
 30
0.0
 10
31.536622
 20
-127.332958
 30
0.0
 10
32.377570
 20
-127.442819
 30
0.0
 10
32.377570
 20
-127.442819
 30
0.0
  0
ENDSEC
  0
SECTION
  2
OBJECTS
  0
DICTIONARY
  5
C
330
0
100
AcDbDictionary
  3
ACAD_GROUP
350
D
  3
ACAD_MLINESTYLE
350
17
  0
DICTIONARY
  5
D
330
C
100
AcDbDictionary
  0
DICTIONARY
  5
1A
330
C
100
AcDbDictionary
  0
DICTIONARY
  5
17
330
C
100
AcDbDictionary
  3
STANDARD
350
18
  0
DICTIONARY
  5
19
330
C
100
AcDbDictionary
  0
ENDSEC
  0
EOF
