<?xml version="1.0" encoding="UTF-8" standalone="no"?>
<svg
   xmlns:dc="http://purl.org/dc/elements/1.1/"
   xmlns:cc="http://creativecommons.org/ns#"
   xmlns:rdf="http://www.w3.org/1999/02/22-rdf-syntax-ns#"
   xmlns:svg="http://www.w3.org/2000/svg"
   xmlns="http://www.w3.org/2000/svg"
   xmlns:sodipodi="http://sodipodi.sourceforge.net/DTD/sodipodi-0.dtd"
   xmlns:inkscape="http://www.inkscape.org/namespaces/inkscape"
   id="svg233"
   version="1.1"
   viewBox="0 0 101.04482 72.24794"
   height="72.24794pt"
   width="101.04482pt"
   sodipodi:docname="FM-Radio-Simple-Receiver-Dip2-board-mirrored.svg"
   inkscape:version="0.92.5 (2060ec1f9f, 2020-04-08)">
  <sodipodi:namedview
     pagecolor="#ffffff"
     bordercolor="#666666"
     borderopacity="1"
     objecttolerance="10"
     gridtolerance="10"
     guidetolerance="10"
     inkscape:pageopacity="0"
     inkscape:pageshadow="2"
     inkscape:window-width="600"
     inkscape:window-height="420"
     id="namedview122"
     showgrid="false"
     inkscape:zoom="2.1325301"
     inkscape:cx="67.389248"
     inkscape:cy="48.139256"
     inkscape:window-x="0"
     inkscape:window-y="0"
     inkscape:window-maximized="0"
     inkscape:current-layer="svg233" />
  <metadata
     id="metadata237">
    <rdf:RDF>
      <cc:Work
         rdf:about="">
        <dc:format>image/svg+xml</dc:format>
        <dc:type
           rdf:resource="http://purl.org/dc/dcmitype/StillImage" />
      </cc:Work>
    </rdf:RDF>
  </metadata>
  <defs
     id="defs14">
    <clipPath
       id="clip1">
      <path
         id="path2"
         d="m 106,5.300781 h 0.5625 V 77.660156 H 106 Z m 0,0"
         inkscape:connector-curvature="0" />
    </clipPath>
    <clipPath
       id="clip2">
      <path
         id="path5"
         d="M 5.402344,77 H 106.5625 v 0.660156 H 5.402344 Z m 0,0"
         inkscape:connector-curvature="0" />
    </clipPath>
    <clipPath
       id="clip3">
      <path
         id="path8"
         d="M 5.402344,5.300781 H 6 V 77.660156 H 5.402344 Z m 0,0"
         inkscape:connector-curvature="0" />
    </clipPath>
    <clipPath
       id="clip4">
      <path
         id="path11"
         d="M 5.402344,5.300781 H 106.5625 V 6 H 5.402344 Z m 0,0"
         inkscape:connector-curvature="0" />
    </clipPath>
  </defs>
  <g
     id="surface1"
     transform="translate(-5.458064,-5.3565032)">
    <path
       id="path16"
       transform="matrix(0.06,0,0,0.06,-154.019,-256)"
       d="m 4219.0016,5316.9923 h -360.026"
       style="fill:none;stroke:#000000;stroke-width:20;stroke-linecap:round;stroke-linejoin:round;stroke-miterlimit:10;stroke-opacity:1"
       inkscape:connector-curvature="0" />
    <path
       id="path18"
       transform="matrix(0.06,0,0,0.06,-154.019,-256)"
       d="M 4219.0016,4958.0079 V 4597.9818"
       style="fill:none;stroke:#000000;stroke-width:20;stroke-linecap:round;stroke-linejoin:round;stroke-miterlimit:10;stroke-opacity:1"
       inkscape:connector-curvature="0" />
    <path
       id="path20"
       transform="matrix(0.06,0,0,0.06,-154.019,-256)"
       d="m 3740.0303,5077.9949 v 119.0104"
       style="fill:none;stroke:#000000;stroke-width:20;stroke-linecap:round;stroke-linejoin:round;stroke-miterlimit:10;stroke-opacity:1"
       inkscape:connector-curvature="0" />
    <path
       id="path22"
       transform="matrix(0.06,0,0,0.06,-154.019,-256)"
       d="m 3740.0303,4597.9818 v 119.987"
       style="fill:none;stroke:#000000;stroke-width:20;stroke-linecap:round;stroke-linejoin:round;stroke-miterlimit:10;stroke-opacity:1"
       inkscape:connector-curvature="0" />
    <path
       id="path24"
       transform="matrix(0.06,0,0,0.06,-154.019,-256)"
       d="m 3740.0303,4717.9688 118.9453,120.0521"
       style="fill:none;stroke:#000000;stroke-width:20;stroke-linecap:round;stroke-linejoin:round;stroke-miterlimit:10;stroke-opacity:1"
       inkscape:connector-curvature="0" />
    <path
       id="path26"
       transform="matrix(0.06,0,0,0.06,-154.019,-256)"
       d="m 3858.9756,4838.0209 -118.9453,119.987"
       style="fill:none;stroke:#000000;stroke-width:20;stroke-linecap:round;stroke-linejoin:round;stroke-miterlimit:10;stroke-opacity:1"
       inkscape:connector-curvature="0" />
    <path
       id="path28"
       transform="matrix(0.06,0,0,0.06,-154.019,-256)"
       d="m 3740.0303,4958.0079 v 119.987"
       style="fill:none;stroke:#000000;stroke-width:20;stroke-linecap:round;stroke-linejoin:round;stroke-miterlimit:10;stroke-opacity:1"
       inkscape:connector-curvature="0" />
    <path
       id="path30"
       transform="matrix(0.06,0,0,0.06,-154.019,-256)"
       d="M 3858.9756,4838.0209 3740.0303,4717.9688"
       style="fill:none;stroke:#000000;stroke-width:20;stroke-linecap:round;stroke-linejoin:round;stroke-miterlimit:10;stroke-opacity:1"
       inkscape:connector-curvature="0" />
    <path
       id="path32"
       transform="matrix(0.06,0,0,0.06,-154.019,-256)"
       d="m 3740.0303,4717.9688 v -119.987"
       style="fill:none;stroke:#000000;stroke-width:20;stroke-linecap:round;stroke-linejoin:round;stroke-miterlimit:10;stroke-opacity:1"
       inkscape:connector-curvature="0" />
    <path
       id="path34"
       transform="matrix(0.06,0,0,0.06,-154.019,-256)"
       d="m 3858.9756,4838.0209 -118.9453,119.987"
       style="fill:none;stroke:#000000;stroke-width:20;stroke-linecap:round;stroke-linejoin:round;stroke-miterlimit:10;stroke-opacity:1"
       inkscape:connector-curvature="0" />
    <path
       id="path36"
       transform="matrix(0.06,0,0,0.06,-154.019,-256)"
       d="m 3740.0303,4958.0079 v 119.987"
       style="fill:none;stroke:#000000;stroke-width:20;stroke-linecap:round;stroke-linejoin:round;stroke-miterlimit:10;stroke-opacity:1"
       inkscape:connector-curvature="0" />
    <path
       id="path38"
       transform="matrix(0.06,0,0,0.06,-154.019,-256)"
       d="m 3499.9912,4838.0209 v 119.987"
       style="fill:none;stroke:#000000;stroke-width:20;stroke-linecap:round;stroke-linejoin:round;stroke-miterlimit:10;stroke-opacity:1"
       inkscape:connector-curvature="0" />
    <path
       id="path40"
       transform="matrix(0.06,0,0,0.06,-154.019,-256)"
       d="m 3499.9912,4958.0079 h -239.974"
       style="fill:none;stroke:#000000;stroke-width:20;stroke-linecap:round;stroke-linejoin:round;stroke-miterlimit:10;stroke-opacity:1"
       inkscape:connector-curvature="0" />
    <path
       id="path42"
       transform="matrix(0.06,0,0,0.06,-154.019,-256)"
       d="M 3260.0172,4958.0079 H 2780.9808"
       style="fill:none;stroke:#000000;stroke-width:20;stroke-linecap:round;stroke-linejoin:round;stroke-miterlimit:10;stroke-opacity:1"
       inkscape:connector-curvature="0" />
    <path
       id="path44"
       transform="matrix(0.06,0,0,0.06,-154.019,-256)"
       d="m 3858.9756,5436.9793 h 120.0521"
       style="fill:none;stroke:#000000;stroke-width:20;stroke-linecap:round;stroke-linejoin:round;stroke-miterlimit:10;stroke-opacity:1"
       inkscape:connector-curvature="0" />
    <path
       id="path46"
       transform="matrix(0.06,0,0,0.06,-154.019,-256)"
       d="m 3740.0303,5436.9793 h 118.9453"
       style="fill:none;stroke:#000000;stroke-width:20;stroke-linecap:round;stroke-linejoin:round;stroke-miterlimit:10;stroke-opacity:1"
       inkscape:connector-curvature="0" />
    <path
       id="path48"
       transform="matrix(0.06,0,0,0.06,-154.019,-256)"
       d="M 3260.0172,5436.9793 H 3140.0303"
       style="fill:none;stroke:#000000;stroke-width:20;stroke-linecap:round;stroke-linejoin:round;stroke-miterlimit:10;stroke-opacity:1"
       inkscape:connector-curvature="0" />
    <path
       id="path50"
       transform="matrix(0.06,0,0,0.06,-154.019,-256)"
       d="m 3260.0172,4717.9688 h 239.974"
       style="fill:none;stroke:#000000;stroke-width:20;stroke-linecap:round;stroke-linejoin:round;stroke-miterlimit:10;stroke-opacity:1"
       inkscape:connector-curvature="0" />
    <path
       id="path52"
       transform="matrix(0.06,0,0,0.06,-154.019,-256)"
       d="m 3499.9912,4717.9688 h 119.987"
       style="fill:none;stroke:#000000;stroke-width:20;stroke-linecap:round;stroke-linejoin:round;stroke-miterlimit:10;stroke-opacity:1"
       inkscape:connector-curvature="0" />
    <path
       id="path54"
       transform="matrix(0.06,0,0,0.06,-154.019,-256)"
       d="m 3619.9782,4717.9688 v 479.0365"
       style="fill:none;stroke:#000000;stroke-width:20;stroke-linecap:round;stroke-linejoin:round;stroke-miterlimit:10;stroke-opacity:1"
       inkscape:connector-curvature="0" />
    <path
       id="path56"
       transform="matrix(0.06,0,0,0.06,-154.019,-256)"
       d="m 3619.9782,5197.0053 h -359.961"
       style="fill:none;stroke:#000000;stroke-width:20;stroke-linecap:round;stroke-linejoin:round;stroke-miterlimit:10;stroke-opacity:1"
       inkscape:connector-curvature="0" />
    <path
       id="path58"
       transform="matrix(0.06,0,0,0.06,-154.019,-256)"
       d="m 3499.9912,5436.9793 h -239.974"
       style="fill:none;stroke:#000000;stroke-width:20;stroke-linecap:round;stroke-linejoin:round;stroke-miterlimit:10;stroke-opacity:1"
       inkscape:connector-curvature="0" />
    <path
       id="path60"
       transform="matrix(0.06,0,0,0.06,-154.019,-256)"
       d="M 3260.0172,5436.9793 V 5077.9949"
       style="fill:none;stroke:#000000;stroke-width:20;stroke-linecap:round;stroke-linejoin:round;stroke-miterlimit:10;stroke-opacity:1"
       inkscape:connector-curvature="0" />
    <path
       id="path62"
       transform="matrix(0.06,0,0,0.06,-154.019,-256)"
       d="M 3260.0172,5197.0053 V 5077.9949"
       style="fill:none;stroke:#000000;stroke-width:20;stroke-linecap:round;stroke-linejoin:round;stroke-miterlimit:10;stroke-opacity:1"
       inkscape:connector-curvature="0" />
    <path
       id="path64"
       transform="matrix(0.06,0,0,0.06,-154.019,-256)"
       d="m 3619.9782,4477.9949 -119.987,119.9869"
       style="fill:none;stroke:#000000;stroke-width:20;stroke-linecap:round;stroke-linejoin:round;stroke-miterlimit:10;stroke-opacity:1"
       inkscape:connector-curvature="0" />
    <path
       id="path66"
       transform="matrix(0.06,0,0,0.06,-154.019,-256)"
       d="m 3499.9912,4597.9818 -119.987,-119.9869"
       style="fill:none;stroke:#000000;stroke-width:20;stroke-linecap:round;stroke-linejoin:round;stroke-miterlimit:10;stroke-opacity:1"
       inkscape:connector-curvature="0" />
    <path
       id="path68"
       transform="matrix(0.06,0,0,0.06,-154.019,-256)"
       d="m 3380.0042,4477.9949 h -119.987"
       style="fill:none;stroke:#000000;stroke-width:20;stroke-linecap:round;stroke-linejoin:round;stroke-miterlimit:10;stroke-opacity:1"
       inkscape:connector-curvature="0" />
    <path
       id="path70"
       transform="matrix(0.06,0,0,0.06,-154.019,-256)"
       d="M 3979.0277,4838.0209 V 4597.9818"
       style="fill:none;stroke:#000000;stroke-width:20;stroke-linecap:round;stroke-linejoin:round;stroke-miterlimit:10;stroke-opacity:1"
       inkscape:connector-curvature="0" />
    <path
       id="path72"
       transform="matrix(0.06,0,0,0.06,-154.019,-256)"
       d="M 3979.0277,4597.9818 3858.9756,4477.9949"
       style="fill:none;stroke:#000000;stroke-width:20;stroke-linecap:round;stroke-linejoin:round;stroke-miterlimit:10;stroke-opacity:1"
       inkscape:connector-curvature="0" />
    <path
       id="path74"
       transform="matrix(0.06,0,0,0.06,-154.019,-256)"
       d="M 3858.9756,4477.9949 H 3619.9782"
       style="fill:none;stroke:#000000;stroke-width:20;stroke-linecap:round;stroke-linejoin:round;stroke-miterlimit:10;stroke-opacity:1"
       inkscape:connector-curvature="0" />
    <path
       id="path76"
       transform="matrix(0.06,0,0,0.06,-154.019,-256)"
       d="M 3260.0172,4838.0209 H 3140.0303"
       style="fill:none;stroke:#000000;stroke-width:20;stroke-linecap:round;stroke-linejoin:round;stroke-miterlimit:10;stroke-opacity:1"
       inkscape:connector-curvature="0" />
    <path
       id="path78"
       transform="matrix(0.06,0,0,0.06,-154.019,-256)"
       d="M 3140.0303,4838.0209 V 4597.9818"
       style="fill:none;stroke:#000000;stroke-width:20;stroke-linecap:round;stroke-linejoin:round;stroke-miterlimit:10;stroke-opacity:1"
       inkscape:connector-curvature="0" />
    <path
       id="path80"
       transform="matrix(0.06,0,0,0.06,-154.019,-256)"
       d="m 3140.0303,4597.9818 119.9869,-119.9869"
       style="fill:none;stroke:#000000;stroke-width:20;stroke-linecap:round;stroke-linejoin:round;stroke-miterlimit:10;stroke-opacity:1"
       inkscape:connector-curvature="0" />
    <path
       id="path82"
       transform="matrix(0.06,0,0,0.06,-154.019,-256)"
       d="m 3858.9756,5197.0053 h 120.0521"
       style="fill:none;stroke:#000000;stroke-width:20;stroke-linecap:round;stroke-linejoin:round;stroke-miterlimit:10;stroke-opacity:1"
       inkscape:connector-curvature="0" />
    <path
       id="path84"
       transform="matrix(0.06,0,0,0.06,-154.019,-256)"
       d="m 3979.0277,5077.9949 v -239.974"
       style="fill:none;stroke:#000000;stroke-width:20;stroke-linecap:round;stroke-linejoin:round;stroke-miterlimit:10;stroke-opacity:1"
       inkscape:connector-curvature="0" />
    <path
       id="path86"
       transform="matrix(0.06,0,0,0.06,-154.019,-256)"
       d="m 4219.0016,5077.9949 v 119.0104"
       style="fill:none;stroke:#000000;stroke-width:20;stroke-linecap:round;stroke-linejoin:round;stroke-miterlimit:10;stroke-opacity:1"
       inkscape:connector-curvature="0" />
    <path
       id="path88"
       transform="matrix(0.06,0,0,0.06,-154.019,-256)"
       d="M 4219.0016,5197.0053 H 3979.0277"
       style="fill:none;stroke:#000000;stroke-width:20;stroke-linecap:round;stroke-linejoin:round;stroke-miterlimit:10;stroke-opacity:1"
       inkscape:connector-curvature="0" />
    <path
       id="path90"
       transform="matrix(0.06,0,0,0.06,-154.019,-256)"
       d="M 3979.0277,5197.0053 V 5077.9949"
       style="fill:none;stroke:#000000;stroke-width:20;stroke-linecap:round;stroke-linejoin:round;stroke-miterlimit:10;stroke-opacity:1"
       inkscape:connector-curvature="0" />
    <path
       id="path92"
       transform="matrix(0.06,0,0,0.06,-154.019,-256)"
       d="m 4260.9938,5155.0131 h -83.9844 v 83.9844 h 83.9844 z m 0,0"
       style="fill:#000000;fill-opacity:1;fill-rule:nonzero;stroke:#000000;stroke-width:2;stroke-linecap:round;stroke-linejoin:round;stroke-miterlimit:10;stroke-opacity:1"
       inkscape:connector-curvature="0" />
    <path
       id="path94"
       transform="matrix(0.06,0,0,0.06,-154.019,-256)"
       d="m 4241.0068,5197.0053 c 0,11.5885 -9.4401,20.9635 -21.0286,20.9635 -11.5885,0 -20.9635,-9.375 -20.9635,-20.9635 0,-11.5885 9.375,-21.0287 20.9635,-21.0287 11.5885,0 21.0286,9.4402 21.0286,21.0287 z m 0,0"
       style="fill:#ffffff;fill-opacity:1;fill-rule:evenodd;stroke:#000000;stroke-width:1;stroke-linecap:square;stroke-linejoin:bevel;stroke-miterlimit:10;stroke-opacity:1"
       inkscape:connector-curvature="0" />
    <path
       id="path96"
       transform="matrix(0.06,0,0,0.06,-154.019,-256)"
       d="m 4261.9704,5316.9923 c 0,23.1771 -18.75,41.9922 -41.9922,41.9922 -23.1771,0 -41.9922,-18.8151 -41.9922,-41.9922 0,-23.1771 18.8151,-41.9922 41.9922,-41.9922 23.2422,0 41.9922,18.8151 41.9922,41.9922 z m 0,0"
       style="fill:#000000;fill-opacity:1;fill-rule:evenodd;stroke:#000000;stroke-width:2;stroke-linecap:round;stroke-linejoin:round;stroke-miterlimit:10;stroke-opacity:1"
       inkscape:connector-curvature="0" />
    <path
       id="path98"
       transform="matrix(0.06,0,0,0.06,-154.019,-256)"
       d="m 4241.0068,5316.9923 c 0,11.5885 -9.4401,21.0286 -21.0286,21.0286 -11.5885,0 -20.9635,-9.4401 -20.9635,-21.0286 0,-11.5886 9.375,-20.9636 20.9635,-20.9636 11.5885,0 21.0286,9.375 21.0286,20.9636 z m 0,0"
       style="fill:#ffffff;fill-opacity:1;fill-rule:evenodd;stroke:#000000;stroke-width:1;stroke-linecap:square;stroke-linejoin:bevel;stroke-miterlimit:10;stroke-opacity:1"
       inkscape:connector-curvature="0" />
    <path
       id="path100"
       transform="matrix(0.06,0,0,0.06,-154.019,-256)"
       d="m 3302.986,5436.9793 c 0,23.2421 -18.8151,41.9921 -41.9922,41.9921 -23.1771,0 -41.9922,-18.75 -41.9922,-41.9921 0,-23.1771 18.8151,-41.9922 41.9922,-41.9922 23.1771,0 41.9922,18.8151 41.9922,41.9922 z m 0,0"
       style="fill:#000000;fill-opacity:1;fill-rule:evenodd;stroke:#000000;stroke-width:2;stroke-linecap:round;stroke-linejoin:round;stroke-miterlimit:10;stroke-opacity:1"
       inkscape:connector-curvature="0" />
    <path
       id="path102"
       transform="matrix(0.06,0,0,0.06,-154.019,-256)"
       d="m 3282.0225,5436.9793 c 0,11.5885 -9.4402,21.0286 -21.0287,21.0286 -11.5885,0 -20.9635,-9.4401 -20.9635,-21.0286 0,-11.5886 9.375,-20.9636 20.9635,-20.9636 11.5885,0 21.0287,9.375 21.0287,20.9636 z m 0,0"
       style="fill:#ffffff;fill-opacity:1;fill-rule:evenodd;stroke:#000000;stroke-width:1;stroke-linecap:square;stroke-linejoin:bevel;stroke-miterlimit:10;stroke-opacity:1"
       inkscape:connector-curvature="0" />
    <path
       id="path104"
       transform="matrix(0.06,0,0,0.06,-154.019,-256)"
       d="m 4260.9938,5036.0027 h -83.9844 v 83.9844 h 83.9844 z m 0,0"
       style="fill:#000000;fill-opacity:1;fill-rule:nonzero;stroke:#000000;stroke-width:2;stroke-linecap:round;stroke-linejoin:round;stroke-miterlimit:10;stroke-opacity:1"
       inkscape:connector-curvature="0" />
    <path
       id="path106"
       transform="matrix(0.06,0,0,0.06,-154.019,-256)"
       d="m 4241.0068,5077.9949 c 0,11.5885 -9.4401,21.0286 -21.0286,21.0286 -11.5885,0 -20.9635,-9.4401 -20.9635,-21.0286 0,-11.5886 9.375,-20.9636 20.9635,-20.9636 11.5885,0 21.0286,9.375 21.0286,20.9636 z m 0,0"
       style="fill:#ffffff;fill-opacity:1;fill-rule:evenodd;stroke:#000000;stroke-width:1;stroke-linecap:square;stroke-linejoin:bevel;stroke-miterlimit:10;stroke-opacity:1"
       inkscape:connector-curvature="0" />
    <path
       id="path108"
       transform="matrix(0.06,0,0,0.06,-154.019,-256)"
       d="m 4261.9704,4958.0079 c 0,23.1771 -18.75,41.9922 -41.9922,41.9922 -23.1771,0 -41.9922,-18.8151 -41.9922,-41.9922 0,-23.1771 18.8151,-41.9922 41.9922,-41.9922 23.2422,0 41.9922,18.8151 41.9922,41.9922 z m 0,0"
       style="fill:#000000;fill-opacity:1;fill-rule:evenodd;stroke:#000000;stroke-width:2;stroke-linecap:round;stroke-linejoin:round;stroke-miterlimit:10;stroke-opacity:1"
       inkscape:connector-curvature="0" />
    <path
       id="path110"
       transform="matrix(0.06,0,0,0.06,-154.019,-256)"
       d="m 4241.0068,4958.0079 c 0,11.5885 -9.4401,20.9635 -21.0286,20.9635 -11.5885,0 -20.9635,-9.375 -20.9635,-20.9635 0,-11.5885 9.375,-21.0287 20.9635,-21.0287 11.5885,0 21.0286,9.4402 21.0286,21.0287 z m 0,0"
       style="fill:#ffffff;fill-opacity:1;fill-rule:evenodd;stroke:#000000;stroke-width:1;stroke-linecap:square;stroke-linejoin:bevel;stroke-miterlimit:10;stroke-opacity:1"
       inkscape:connector-curvature="0" />
    <path
       id="path112"
       transform="matrix(0.06,0,0,0.06,-154.019,-256)"
       d="m 4021.9964,4838.0209 c 0,23.1771 -18.8151,41.9922 -41.9922,41.9922 -23.1771,0 -41.9922,-18.8151 -41.9922,-41.9922 0,-23.2422 18.8151,-41.9922 41.9922,-41.9922 23.1771,0 41.9922,18.75 41.9922,41.9922 z m 0,0"
       style="fill:#000000;fill-opacity:1;fill-rule:evenodd;stroke:#000000;stroke-width:2;stroke-linecap:round;stroke-linejoin:round;stroke-miterlimit:10;stroke-opacity:1"
       inkscape:connector-curvature="0" />
    <path
       id="path114"
       transform="matrix(0.06,0,0,0.06,-154.019,-256)"
       d="m 4000.9678,4838.0209 c 0,11.5886 -9.375,20.9636 -20.9636,20.9636 -11.5885,0 -21.0286,-9.375 -21.0286,-20.9636 0,-11.5885 9.4401,-21.0286 21.0286,-21.0286 11.5886,0 20.9636,9.4401 20.9636,21.0286 z m 0,0"
       style="fill:#ffffff;fill-opacity:1;fill-rule:evenodd;stroke:#000000;stroke-width:1;stroke-linecap:square;stroke-linejoin:bevel;stroke-miterlimit:10;stroke-opacity:1"
       inkscape:connector-curvature="0" />
    <path
       id="path116"
       transform="matrix(0.06,0,0,0.06,-154.019,-256)"
       d="m 3902.0094,4838.0209 c 0,23.1771 -18.8151,41.9922 -41.9921,41.9922 -23.2422,0 -41.9922,-18.8151 -41.9922,-41.9922 0,-23.2422 18.75,-41.9922 41.9922,-41.9922 23.177,0 41.9921,18.75 41.9921,41.9922 z m 0,0"
       style="fill:#000000;fill-opacity:1;fill-rule:evenodd;stroke:#000000;stroke-width:2;stroke-linecap:round;stroke-linejoin:round;stroke-miterlimit:10;stroke-opacity:1"
       inkscape:connector-curvature="0" />
    <path
       id="path118"
       transform="matrix(0.06,0,0,0.06,-154.019,-256)"
       d="m 3880.9808,4838.0209 c 0,11.5886 -9.375,20.9636 -20.9635,20.9636 -11.5886,0 -21.0287,-9.375 -21.0287,-20.9636 0,-11.5885 9.4401,-21.0286 21.0287,-21.0286 11.5885,0 20.9635,9.4401 20.9635,21.0286 z m 0,0"
       style="fill:#ffffff;fill-opacity:1;fill-rule:evenodd;stroke:#000000;stroke-width:1;stroke-linecap:square;stroke-linejoin:bevel;stroke-miterlimit:10;stroke-opacity:1"
       inkscape:connector-curvature="0" />
    <path
       id="path120"
       transform="matrix(0.06,0,0,0.06,-154.019,-256)"
       d="m 4021.9964,5077.9949 c 0,23.1771 -18.8151,41.9922 -41.9922,41.9922 -23.1771,0 -41.9922,-18.8151 -41.9922,-41.9922 0,-23.1771 18.8151,-41.9922 41.9922,-41.9922 23.1771,0 41.9922,18.8151 41.9922,41.9922 z m 0,0"
       style="fill:#000000;fill-opacity:1;fill-rule:evenodd;stroke:#000000;stroke-width:2;stroke-linecap:round;stroke-linejoin:round;stroke-miterlimit:10;stroke-opacity:1"
       inkscape:connector-curvature="0" />
    <path
       id="path122"
       transform="matrix(0.06,0,0,0.06,-154.019,-256)"
       d="m 4000.9678,5077.9949 c 0,11.5885 -9.375,21.0286 -20.9636,21.0286 -11.5885,0 -21.0286,-9.4401 -21.0286,-21.0286 0,-11.5886 9.4401,-20.9636 21.0286,-20.9636 11.5886,0 20.9636,9.375 20.9636,20.9636 z m 0,0"
       style="fill:#ffffff;fill-opacity:1;fill-rule:evenodd;stroke:#000000;stroke-width:1;stroke-linecap:square;stroke-linejoin:bevel;stroke-miterlimit:10;stroke-opacity:1"
       inkscape:connector-curvature="0" />
    <path
       id="path124"
       transform="matrix(0.06,0,0,0.06,-154.019,-256)"
       d="m 3782.999,5077.9949 c 0,23.1771 -18.8151,41.9922 -41.9922,41.9922 -23.1771,0 -41.9922,-18.8151 -41.9922,-41.9922 0,-23.1771 18.8151,-41.9922 41.9922,-41.9922 23.1771,0 41.9922,18.8151 41.9922,41.9922 z m 0,0"
       style="fill:#000000;fill-opacity:1;fill-rule:evenodd;stroke:#000000;stroke-width:2;stroke-linecap:round;stroke-linejoin:round;stroke-miterlimit:10;stroke-opacity:1"
       inkscape:connector-curvature="0" />
    <path
       id="path126"
       transform="matrix(0.06,0,0,0.06,-154.019,-256)"
       d="m 3761.9704,5077.9949 c 0,11.5885 -9.375,21.0286 -20.9636,21.0286 -11.5885,0 -21.0286,-9.4401 -21.0286,-21.0286 0,-11.5886 9.4401,-20.9636 21.0286,-20.9636 11.5886,0 20.9636,9.375 20.9636,20.9636 z m 0,0"
       style="fill:#ffffff;fill-opacity:1;fill-rule:evenodd;stroke:#000000;stroke-width:1;stroke-linecap:square;stroke-linejoin:bevel;stroke-miterlimit:10;stroke-opacity:1"
       inkscape:connector-curvature="0" />
    <path
       id="path128"
       transform="matrix(0.06,0,0,0.06,-154.019,-256)"
       d="m 3063.012,4477.9949 c 0,23.177 -18.8151,41.9922 -41.9922,41.9922 -23.2421,0 -41.9921,-18.8152 -41.9921,-41.9922 0,-23.1771 18.75,-41.9922 41.9921,-41.9922 23.1771,0 41.9922,18.8151 41.9922,41.9922 z m 0,0"
       style="fill:#000000;fill-opacity:1;fill-rule:evenodd;stroke:#000000;stroke-width:2;stroke-linecap:round;stroke-linejoin:round;stroke-miterlimit:10;stroke-opacity:1"
       inkscape:connector-curvature="0" />
    <path
       id="path130"
       transform="matrix(0.06,0,0,0.06,-154.019,-256)"
       d="m 3041.9834,4477.9949 c 0,11.5885 -9.375,21.0286 -20.9636,21.0286 -11.5885,0 -21.0286,-9.4401 -21.0286,-21.0286 0,-11.5886 9.4401,-20.9636 21.0286,-20.9636 11.5886,0 20.9636,9.375 20.9636,20.9636 z m 0,0"
       style="fill:#ffffff;fill-opacity:1;fill-rule:evenodd;stroke:#000000;stroke-width:1;stroke-linecap:square;stroke-linejoin:bevel;stroke-miterlimit:10;stroke-opacity:1"
       inkscape:connector-curvature="0" />
    <path
       id="path132"
       transform="matrix(0.06,0,0,0.06,-154.019,-256)"
       d="m 3302.986,4477.9949 c 0,23.177 -18.8151,41.9922 -41.9922,41.9922 -23.1771,0 -41.9922,-18.8152 -41.9922,-41.9922 0,-23.1771 18.8151,-41.9922 41.9922,-41.9922 23.1771,0 41.9922,18.8151 41.9922,41.9922 z m 0,0"
       style="fill:#000000;fill-opacity:1;fill-rule:evenodd;stroke:#000000;stroke-width:2;stroke-linecap:round;stroke-linejoin:round;stroke-miterlimit:10;stroke-opacity:1"
       inkscape:connector-curvature="0" />
    <path
       id="path134"
       transform="matrix(0.06,0,0,0.06,-154.019,-256)"
       d="m 3282.0225,4477.9949 c 0,11.5885 -9.4402,21.0286 -21.0287,21.0286 -11.5885,0 -20.9635,-9.4401 -20.9635,-21.0286 0,-11.5886 9.375,-20.9636 20.9635,-20.9636 11.5885,0 21.0287,9.375 21.0287,20.9636 z m 0,0"
       style="fill:#ffffff;fill-opacity:1;fill-rule:evenodd;stroke:#000000;stroke-width:1;stroke-linecap:square;stroke-linejoin:bevel;stroke-miterlimit:10;stroke-opacity:1"
       inkscape:connector-curvature="0" />
    <path
       id="path136"
       transform="matrix(0.06,0,0,0.06,-154.019,-256)"
       d="m 3302.986,4717.9688 c 0,23.2422 -18.8151,42.0573 -41.9922,42.0573 -23.1771,0 -41.9922,-18.8151 -41.9922,-42.0573 0,-23.1771 18.8151,-41.9922 41.9922,-41.9922 23.1771,0 41.9922,18.8151 41.9922,41.9922 z m 0,0"
       style="fill:#000000;fill-opacity:1;fill-rule:evenodd;stroke:#000000;stroke-width:2;stroke-linecap:round;stroke-linejoin:round;stroke-miterlimit:10;stroke-opacity:1"
       inkscape:connector-curvature="0" />
    <path
       id="path138"
       transform="matrix(0.06,0,0,0.06,-154.019,-256)"
       d="m 3282.0225,4717.9688 c 0,11.6537 -9.4402,21.0287 -21.0287,21.0287 -11.5885,0 -20.9635,-9.375 -20.9635,-21.0287 0,-11.5885 9.375,-20.9635 20.9635,-20.9635 11.5885,0 21.0287,9.375 21.0287,20.9635 z m 0,0"
       style="fill:#ffffff;fill-opacity:1;fill-rule:evenodd;stroke:#000000;stroke-width:1;stroke-linecap:square;stroke-linejoin:bevel;stroke-miterlimit:10;stroke-opacity:1"
       inkscape:connector-curvature="0" />
    <path
       id="path140"
       transform="matrix(0.06,0,0,0.06,-154.019,-256)"
       d="m 3782.999,5436.9793 c 0,23.2421 -18.8151,41.9921 -41.9922,41.9921 -23.1771,0 -41.9922,-18.75 -41.9922,-41.9921 0,-23.1771 18.8151,-41.9922 41.9922,-41.9922 23.1771,0 41.9922,18.8151 41.9922,41.9922 z m 0,0"
       style="fill:#000000;fill-opacity:1;fill-rule:evenodd;stroke:#000000;stroke-width:2;stroke-linecap:round;stroke-linejoin:round;stroke-miterlimit:10;stroke-opacity:1"
       inkscape:connector-curvature="0" />
    <path
       id="path142"
       transform="matrix(0.06,0,0,0.06,-154.019,-256)"
       d="m 3761.9704,5436.9793 c 0,11.5885 -9.375,21.0286 -20.9636,21.0286 -11.5885,0 -21.0286,-9.4401 -21.0286,-21.0286 0,-11.5886 9.4401,-20.9636 21.0286,-20.9636 11.5886,0 20.9636,9.375 20.9636,20.9636 z m 0,0"
       style="fill:#ffffff;fill-opacity:1;fill-rule:evenodd;stroke:#000000;stroke-width:1;stroke-linecap:square;stroke-linejoin:bevel;stroke-miterlimit:10;stroke-opacity:1"
       inkscape:connector-curvature="0" />
    <path
       id="path144"
       transform="matrix(0.06,0,0,0.06,-154.019,-256)"
       d="m 3543.0251,5436.9793 c 0,23.2421 -18.8151,41.9921 -42.0573,41.9921 -23.1771,0 -41.9922,-18.75 -41.9922,-41.9921 0,-23.1771 18.8151,-41.9922 41.9922,-41.9922 23.2422,0 42.0573,18.8151 42.0573,41.9922 z m 0,0"
       style="fill:#000000;fill-opacity:1;fill-rule:evenodd;stroke:#000000;stroke-width:2;stroke-linecap:round;stroke-linejoin:round;stroke-miterlimit:10;stroke-opacity:1"
       inkscape:connector-curvature="0" />
    <path
       id="path146"
       transform="matrix(0.06,0,0,0.06,-154.019,-256)"
       d="m 3521.9964,5436.9793 c 0,11.5885 -9.375,21.0286 -21.0286,21.0286 -11.5886,0 -20.9636,-9.4401 -20.9636,-21.0286 0,-11.5886 9.375,-20.9636 20.9636,-20.9636 11.6536,0 21.0286,9.375 21.0286,20.9636 z m 0,0"
       style="fill:#ffffff;fill-opacity:1;fill-rule:evenodd;stroke:#000000;stroke-width:1;stroke-linecap:square;stroke-linejoin:bevel;stroke-miterlimit:10;stroke-opacity:1"
       inkscape:connector-curvature="0" />
    <path
       id="path148"
       transform="matrix(0.06,0,0,0.06,-154.019,-256)"
       d="m 4021.9964,5197.0053 c 0,23.1771 -18.8151,41.9922 -41.9922,41.9922 -23.1771,0 -41.9922,-18.8151 -41.9922,-41.9922 0,-23.1771 18.8151,-41.9922 41.9922,-41.9922 23.1771,0 41.9922,18.8151 41.9922,41.9922 z m 0,0"
       style="fill:#000000;fill-opacity:1;fill-rule:evenodd;stroke:#000000;stroke-width:2;stroke-linecap:round;stroke-linejoin:round;stroke-miterlimit:10;stroke-opacity:1"
       inkscape:connector-curvature="0" />
    <path
       id="path150"
       transform="matrix(0.06,0,0,0.06,-154.019,-256)"
       d="m 4000.9678,5197.0053 c 0,11.5885 -9.375,20.9635 -20.9636,20.9635 -11.5885,0 -21.0286,-9.375 -21.0286,-20.9635 0,-11.5885 9.4401,-21.0287 21.0286,-21.0287 11.5886,0 20.9636,9.4402 20.9636,21.0287 z m 0,0"
       style="fill:#ffffff;fill-opacity:1;fill-rule:evenodd;stroke:#000000;stroke-width:1;stroke-linecap:square;stroke-linejoin:bevel;stroke-miterlimit:10;stroke-opacity:1"
       inkscape:connector-curvature="0" />
    <path
       id="path152"
       transform="matrix(0.06,0,0,0.06,-154.019,-256)"
       d="m 4021.9964,5436.9793 c 0,23.2421 -18.8151,41.9921 -41.9922,41.9921 -23.1771,0 -41.9922,-18.75 -41.9922,-41.9921 0,-23.1771 18.8151,-41.9922 41.9922,-41.9922 23.1771,0 41.9922,18.8151 41.9922,41.9922 z m 0,0"
       style="fill:#000000;fill-opacity:1;fill-rule:evenodd;stroke:#000000;stroke-width:2;stroke-linecap:round;stroke-linejoin:round;stroke-miterlimit:10;stroke-opacity:1"
       inkscape:connector-curvature="0" />
    <path
       id="path154"
       transform="matrix(0.06,0,0,0.06,-154.019,-256)"
       d="m 4000.9678,5436.9793 c 0,11.5885 -9.375,21.0286 -20.9636,21.0286 -11.5885,0 -21.0286,-9.4401 -21.0286,-21.0286 0,-11.5886 9.4401,-20.9636 21.0286,-20.9636 11.5886,0 20.9636,9.375 20.9636,20.9636 z m 0,0"
       style="fill:#ffffff;fill-opacity:1;fill-rule:evenodd;stroke:#000000;stroke-width:1;stroke-linecap:square;stroke-linejoin:bevel;stroke-miterlimit:10;stroke-opacity:1"
       inkscape:connector-curvature="0" />
    <path
       id="path156"
       transform="matrix(0.06,0,0,0.06,-154.019,-256)"
       d="m 3182.999,5436.9793 c 0,23.2421 -18.8151,41.9921 -41.9922,41.9921 -23.1771,0 -41.9922,-18.75 -41.9922,-41.9921 0,-23.1771 18.8151,-41.9922 41.9922,-41.9922 23.1771,0 41.9922,18.8151 41.9922,41.9922 z m 0,0"
       style="fill:#000000;fill-opacity:1;fill-rule:evenodd;stroke:#000000;stroke-width:2;stroke-linecap:round;stroke-linejoin:round;stroke-miterlimit:10;stroke-opacity:1"
       inkscape:connector-curvature="0" />
    <path
       id="path158"
       transform="matrix(0.06,0,0,0.06,-154.019,-256)"
       d="m 3161.9704,5436.9793 c 0,11.5885 -9.375,21.0286 -20.9636,21.0286 -11.5885,0 -21.0286,-9.4401 -21.0286,-21.0286 0,-11.5886 9.4401,-20.9636 21.0286,-20.9636 11.5886,0 20.9636,9.375 20.9636,20.9636 z m 0,0"
       style="fill:#ffffff;fill-opacity:1;fill-rule:evenodd;stroke:#000000;stroke-width:1;stroke-linecap:square;stroke-linejoin:bevel;stroke-miterlimit:10;stroke-opacity:1"
       inkscape:connector-curvature="0" />
    <path
       id="path160"
       transform="matrix(0.06,0,0,0.06,-154.019,-256)"
       d="m 2824.0146,4958.0079 c 0,23.1771 -18.8151,41.9922 -41.9922,41.9922 -23.2421,0 -41.9921,-18.8151 -41.9921,-41.9922 0,-23.1771 18.75,-41.9922 41.9921,-41.9922 23.1771,0 41.9922,18.8151 41.9922,41.9922 z m 0,0"
       style="fill:#000000;fill-opacity:1;fill-rule:evenodd;stroke:#000000;stroke-width:2;stroke-linecap:round;stroke-linejoin:round;stroke-miterlimit:10;stroke-opacity:1"
       inkscape:connector-curvature="0" />
    <path
       id="path162"
       transform="matrix(0.06,0,0,0.06,-154.019,-256)"
       d="m 2802.986,4958.0079 c 0,11.5885 -9.375,20.9635 -20.9636,20.9635 -11.5885,0 -21.0286,-9.375 -21.0286,-20.9635 0,-11.5885 9.4401,-21.0287 21.0286,-21.0287 11.5886,0 20.9636,9.4402 20.9636,21.0287 z m 0,0"
       style="fill:#ffffff;fill-opacity:1;fill-rule:evenodd;stroke:#000000;stroke-width:1;stroke-linecap:square;stroke-linejoin:bevel;stroke-miterlimit:10;stroke-opacity:1"
       inkscape:connector-curvature="0" />
    <path
       id="path164"
       transform="matrix(0.06,0,0,0.06,-154.019,-256)"
       d="m 4261.9704,4597.9818 c 0,23.2422 -18.75,41.9922 -41.9922,41.9922 -23.1771,0 -41.9922,-18.75 -41.9922,-41.9922 0,-23.177 18.8151,-41.9921 41.9922,-41.9921 23.2422,0 41.9922,18.8151 41.9922,41.9921 z m 0,0"
       style="fill:#000000;fill-opacity:1;fill-rule:evenodd;stroke:#000000;stroke-width:2;stroke-linecap:round;stroke-linejoin:round;stroke-miterlimit:10;stroke-opacity:1"
       inkscape:connector-curvature="0" />
    <path
       id="path166"
       transform="matrix(0.06,0,0,0.06,-154.019,-256)"
       d="m 4241.0068,4597.9818 c 0,11.5886 -9.4401,21.0287 -21.0286,21.0287 -11.5885,0 -20.9635,-9.4401 -20.9635,-21.0287 0,-11.5885 9.375,-20.9635 20.9635,-20.9635 11.5885,0 21.0286,9.375 21.0286,20.9635 z m 0,0"
       style="fill:#ffffff;fill-opacity:1;fill-rule:evenodd;stroke:#000000;stroke-width:1;stroke-linecap:square;stroke-linejoin:bevel;stroke-miterlimit:10;stroke-opacity:1"
       inkscape:connector-curvature="0" />
    <path
       id="path168"
       transform="matrix(0.06,0,0,0.06,-154.019,-256)"
       d="m 3782.999,4597.9818 c 0,23.2422 -18.8151,41.9922 -41.9922,41.9922 -23.1771,0 -41.9922,-18.75 -41.9922,-41.9922 0,-23.177 18.8151,-41.9921 41.9922,-41.9921 23.1771,0 41.9922,18.8151 41.9922,41.9921 z m 0,0"
       style="fill:#000000;fill-opacity:1;fill-rule:evenodd;stroke:#000000;stroke-width:2;stroke-linecap:round;stroke-linejoin:round;stroke-miterlimit:10;stroke-opacity:1"
       inkscape:connector-curvature="0" />
    <path
       id="path170"
       transform="matrix(0.06,0,0,0.06,-154.019,-256)"
       d="m 3761.9704,4597.9818 c 0,11.5886 -9.375,21.0287 -20.9636,21.0287 -11.5885,0 -21.0286,-9.4401 -21.0286,-21.0287 0,-11.5885 9.4401,-20.9635 21.0286,-20.9635 11.5886,0 20.9636,9.375 20.9636,20.9635 z m 0,0"
       style="fill:#ffffff;fill-opacity:1;fill-rule:evenodd;stroke:#000000;stroke-width:1;stroke-linecap:square;stroke-linejoin:bevel;stroke-miterlimit:10;stroke-opacity:1"
       inkscape:connector-curvature="0" />
    <path
       id="path172"
       transform="matrix(0.06,0,0,0.06,-154.019,-256)"
       d="m 3782.999,5197.0053 c 0,23.1771 -18.8151,41.9922 -41.9922,41.9922 -23.1771,0 -41.9922,-18.8151 -41.9922,-41.9922 0,-23.1771 18.8151,-41.9922 41.9922,-41.9922 23.1771,0 41.9922,18.8151 41.9922,41.9922 z m 0,0"
       style="fill:#000000;fill-opacity:1;fill-rule:evenodd;stroke:#000000;stroke-width:2;stroke-linecap:round;stroke-linejoin:round;stroke-miterlimit:10;stroke-opacity:1"
       inkscape:connector-curvature="0" />
    <path
       id="path174"
       transform="matrix(0.06,0,0,0.06,-154.019,-256)"
       d="m 3761.9704,5197.0053 c 0,11.5885 -9.375,20.9635 -20.9636,20.9635 -11.5885,0 -21.0286,-9.375 -21.0286,-20.9635 0,-11.5885 9.4401,-21.0287 21.0286,-21.0287 11.5886,0 20.9636,9.4402 20.9636,21.0287 z m 0,0"
       style="fill:#ffffff;fill-opacity:1;fill-rule:evenodd;stroke:#000000;stroke-width:1;stroke-linecap:square;stroke-linejoin:bevel;stroke-miterlimit:10;stroke-opacity:1"
       inkscape:connector-curvature="0" />
    <path
       id="path176"
       transform="matrix(0.06,0,0,0.06,-154.019,-256)"
       d="m 3302.986,5197.0053 c 0,23.1771 -18.8151,41.9922 -41.9922,41.9922 -23.1771,0 -41.9922,-18.8151 -41.9922,-41.9922 0,-23.1771 18.8151,-41.9922 41.9922,-41.9922 23.1771,0 41.9922,18.8151 41.9922,41.9922 z m 0,0"
       style="fill:#000000;fill-opacity:1;fill-rule:evenodd;stroke:#000000;stroke-width:2;stroke-linecap:round;stroke-linejoin:round;stroke-miterlimit:10;stroke-opacity:1"
       inkscape:connector-curvature="0" />
    <path
       id="path178"
       transform="matrix(0.06,0,0,0.06,-154.019,-256)"
       d="m 3282.0225,5197.0053 c 0,11.5885 -9.4402,20.9635 -21.0287,20.9635 -11.5885,0 -20.9635,-9.375 -20.9635,-20.9635 0,-11.5885 9.375,-21.0287 20.9635,-21.0287 11.5885,0 21.0287,9.4402 21.0287,21.0287 z m 0,0"
       style="fill:#ffffff;fill-opacity:1;fill-rule:evenodd;stroke:#000000;stroke-width:1;stroke-linecap:square;stroke-linejoin:bevel;stroke-miterlimit:10;stroke-opacity:1"
       inkscape:connector-curvature="0" />
    <path
       id="path180"
       transform="matrix(0.06,0,0,0.06,-154.019,-256)"
       d="m 3902.0094,5197.0053 c 0,23.1771 -18.8151,41.9922 -41.9921,41.9922 -23.2422,0 -41.9922,-18.8151 -41.9922,-41.9922 0,-23.1771 18.75,-41.9922 41.9922,-41.9922 23.177,0 41.9921,18.8151 41.9921,41.9922 z m 0,0"
       style="fill:#000000;fill-opacity:1;fill-rule:evenodd;stroke:#000000;stroke-width:2;stroke-linecap:round;stroke-linejoin:round;stroke-miterlimit:10;stroke-opacity:1"
       inkscape:connector-curvature="0" />
    <path
       id="path182"
       transform="matrix(0.06,0,0,0.06,-154.019,-256)"
       d="m 3880.9808,5197.0053 c 0,11.5885 -9.375,20.9635 -20.9635,20.9635 -11.5886,0 -21.0287,-9.375 -21.0287,-20.9635 0,-11.5885 9.4401,-21.0287 21.0287,-21.0287 11.5885,0 20.9635,9.4402 20.9635,21.0287 z m 0,0"
       style="fill:#ffffff;fill-opacity:1;fill-rule:evenodd;stroke:#000000;stroke-width:1;stroke-linecap:square;stroke-linejoin:bevel;stroke-miterlimit:10;stroke-opacity:1"
       inkscape:connector-curvature="0" />
    <path
       id="path184"
       transform="matrix(0.06,0,0,0.06,-154.019,-256)"
       d="m 3902.0094,5316.9923 c 0,23.1771 -18.8151,41.9922 -41.9921,41.9922 -23.2422,0 -41.9922,-18.8151 -41.9922,-41.9922 0,-23.1771 18.75,-41.9922 41.9922,-41.9922 23.177,0 41.9921,18.8151 41.9921,41.9922 z m 0,0"
       style="fill:#000000;fill-opacity:1;fill-rule:evenodd;stroke:#000000;stroke-width:2;stroke-linecap:round;stroke-linejoin:round;stroke-miterlimit:10;stroke-opacity:1"
       inkscape:connector-curvature="0" />
    <path
       id="path186"
       transform="matrix(0.06,0,0,0.06,-154.019,-256)"
       d="m 3880.9808,5316.9923 c 0,11.5885 -9.375,21.0286 -20.9635,21.0286 -11.5886,0 -21.0287,-9.4401 -21.0287,-21.0286 0,-11.5886 9.4401,-20.9636 21.0287,-20.9636 11.5885,0 20.9635,9.375 20.9635,20.9636 z m 0,0"
       style="fill:#ffffff;fill-opacity:1;fill-rule:evenodd;stroke:#000000;stroke-width:1;stroke-linecap:square;stroke-linejoin:bevel;stroke-miterlimit:10;stroke-opacity:1"
       inkscape:connector-curvature="0" />
    <path
       id="path188"
       transform="matrix(0.06,0,0,0.06,-154.019,-256)"
       d="m 3900.9678,5394.9871 h -83.9844 v 83.9843 h 83.9844 z m 0,0"
       style="fill:#000000;fill-opacity:1;fill-rule:nonzero;stroke:#000000;stroke-width:2;stroke-linecap:round;stroke-linejoin:round;stroke-miterlimit:10;stroke-opacity:1"
       inkscape:connector-curvature="0" />
    <path
       id="path190"
       transform="matrix(0.06,0,0,0.06,-154.019,-256)"
       d="m 3880.9808,5436.9793 c 0,11.5885 -9.375,21.0286 -20.9635,21.0286 -11.5886,0 -21.0287,-9.4401 -21.0287,-21.0286 0,-11.5886 9.4401,-20.9636 21.0287,-20.9636 11.5885,0 20.9635,9.375 20.9635,20.9636 z m 0,0"
       style="fill:#ffffff;fill-opacity:1;fill-rule:evenodd;stroke:#000000;stroke-width:1;stroke-linecap:square;stroke-linejoin:bevel;stroke-miterlimit:10;stroke-opacity:1"
       inkscape:connector-curvature="0" />
    <path
       id="path192"
       transform="matrix(0.06,0,0,0.06,-154.019,-256)"
       d="m 3543.0251,4838.0209 c 0,23.1771 -18.8151,41.9922 -42.0573,41.9922 -23.1771,0 -41.9922,-18.8151 -41.9922,-41.9922 0,-23.2422 18.8151,-41.9922 41.9922,-41.9922 23.2422,0 42.0573,18.75 42.0573,41.9922 z m 0,0"
       style="fill:#000000;fill-opacity:1;fill-rule:evenodd;stroke:#000000;stroke-width:2;stroke-linecap:round;stroke-linejoin:round;stroke-miterlimit:10;stroke-opacity:1"
       inkscape:connector-curvature="0" />
    <path
       id="path194"
       transform="matrix(0.06,0,0,0.06,-154.019,-256)"
       d="m 3521.9964,4838.0209 c 0,11.5886 -9.375,20.9636 -21.0286,20.9636 -11.5886,0 -20.9636,-9.375 -20.9636,-20.9636 0,-11.5885 9.375,-21.0286 20.9636,-21.0286 11.6536,0 21.0286,9.4401 21.0286,21.0286 z m 0,0"
       style="fill:#ffffff;fill-opacity:1;fill-rule:evenodd;stroke:#000000;stroke-width:1;stroke-linecap:square;stroke-linejoin:bevel;stroke-miterlimit:10;stroke-opacity:1"
       inkscape:connector-curvature="0" />
    <path
       id="path196"
       transform="matrix(0.06,0,0,0.06,-154.019,-256)"
       d="m 3543.0251,4597.9818 c 0,23.2422 -18.8151,41.9922 -42.0573,41.9922 -23.1771,0 -41.9922,-18.75 -41.9922,-41.9922 0,-23.177 18.8151,-41.9921 41.9922,-41.9921 23.2422,0 42.0573,18.8151 42.0573,41.9921 z m 0,0"
       style="fill:#000000;fill-opacity:1;fill-rule:evenodd;stroke:#000000;stroke-width:2;stroke-linecap:round;stroke-linejoin:round;stroke-miterlimit:10;stroke-opacity:1"
       inkscape:connector-curvature="0" />
    <path
       id="path198"
       transform="matrix(0.06,0,0,0.06,-154.019,-256)"
       d="m 3521.9964,4597.9818 c 0,11.5886 -9.375,21.0287 -21.0286,21.0287 -11.5886,0 -20.9636,-9.4401 -20.9636,-21.0287 0,-11.5885 9.375,-20.9635 20.9636,-20.9635 11.6536,0 21.0286,9.375 21.0286,20.9635 z m 0,0"
       style="fill:#ffffff;fill-opacity:1;fill-rule:evenodd;stroke:#000000;stroke-width:1;stroke-linecap:square;stroke-linejoin:bevel;stroke-miterlimit:10;stroke-opacity:1"
       inkscape:connector-curvature="0" />
    <path
       id="path200"
       transform="matrix(0.06,0,0,0.06,-154.019,-256)"
       d="m 3543.0251,4717.9688 c 0,23.2422 -18.8151,42.0573 -42.0573,42.0573 -23.1771,0 -41.9922,-18.8151 -41.9922,-42.0573 0,-23.1771 18.8151,-41.9922 41.9922,-41.9922 23.2422,0 42.0573,18.8151 42.0573,41.9922 z m 0,0"
       style="fill:#000000;fill-opacity:1;fill-rule:evenodd;stroke:#000000;stroke-width:2;stroke-linecap:round;stroke-linejoin:round;stroke-miterlimit:10;stroke-opacity:1"
       inkscape:connector-curvature="0" />
    <path
       id="path202"
       transform="matrix(0.06,0,0,0.06,-154.019,-256)"
       d="m 3521.9964,4717.9688 c 0,11.6537 -9.375,21.0287 -21.0286,21.0287 -11.5886,0 -20.9636,-9.375 -20.9636,-21.0287 0,-11.5885 9.375,-20.9635 20.9636,-20.9635 11.6536,0 21.0286,9.375 21.0286,20.9635 z m 0,0"
       style="fill:#ffffff;fill-opacity:1;fill-rule:evenodd;stroke:#000000;stroke-width:1;stroke-linecap:square;stroke-linejoin:bevel;stroke-miterlimit:10;stroke-opacity:1"
       inkscape:connector-curvature="0" />
    <path
       id="path204"
       transform="matrix(0.06,0,0,0.06,-154.019,-256)"
       d="m 3302.986,5077.9949 c 0,23.1771 -18.8151,41.9922 -41.9922,41.9922 -23.1771,0 -41.9922,-18.8151 -41.9922,-41.9922 0,-23.1771 18.8151,-41.9922 41.9922,-41.9922 23.1771,0 41.9922,18.8151 41.9922,41.9922 z m 0,0"
       style="fill:#000000;fill-opacity:1;fill-rule:evenodd;stroke:#000000;stroke-width:2;stroke-linecap:round;stroke-linejoin:round;stroke-miterlimit:10;stroke-opacity:1"
       inkscape:connector-curvature="0" />
    <path
       id="path206"
       transform="matrix(0.06,0,0,0.06,-154.019,-256)"
       d="m 3282.0225,5077.9949 c 0,11.5885 -9.4402,21.0286 -21.0287,21.0286 -11.5885,0 -20.9635,-9.4401 -20.9635,-21.0286 0,-11.5886 9.375,-20.9636 20.9635,-20.9636 11.5885,0 21.0287,9.375 21.0287,20.9636 z m 0,0"
       style="fill:#ffffff;fill-opacity:1;fill-rule:evenodd;stroke:#000000;stroke-width:1;stroke-linecap:square;stroke-linejoin:bevel;stroke-miterlimit:10;stroke-opacity:1"
       inkscape:connector-curvature="0" />
    <path
       id="path208"
       transform="matrix(0.06,0,0,0.06,-154.019,-256)"
       d="m 3302.986,4838.0209 c 0,23.1771 -18.8151,41.9922 -41.9922,41.9922 -23.1771,0 -41.9922,-18.8151 -41.9922,-41.9922 0,-23.2422 18.8151,-41.9922 41.9922,-41.9922 23.1771,0 41.9922,18.75 41.9922,41.9922 z m 0,0"
       style="fill:#000000;fill-opacity:1;fill-rule:evenodd;stroke:#000000;stroke-width:2;stroke-linecap:round;stroke-linejoin:round;stroke-miterlimit:10;stroke-opacity:1"
       inkscape:connector-curvature="0" />
    <path
       id="path210"
       transform="matrix(0.06,0,0,0.06,-154.019,-256)"
       d="m 3282.0225,4838.0209 c 0,11.5886 -9.4402,20.9636 -21.0287,20.9636 -11.5885,0 -20.9635,-9.375 -20.9635,-20.9636 0,-11.5885 9.375,-21.0286 20.9635,-21.0286 11.5885,0 21.0287,9.4401 21.0287,21.0286 z m 0,0"
       style="fill:#ffffff;fill-opacity:1;fill-rule:evenodd;stroke:#000000;stroke-width:1;stroke-linecap:square;stroke-linejoin:bevel;stroke-miterlimit:10;stroke-opacity:1"
       inkscape:connector-curvature="0" />
    <path
       id="path212"
       transform="matrix(0.06,0,0,0.06,-154.019,-256)"
       d="m 3302.986,4958.0079 c 0,23.1771 -18.8151,41.9922 -41.9922,41.9922 -23.1771,0 -41.9922,-18.8151 -41.9922,-41.9922 0,-23.1771 18.8151,-41.9922 41.9922,-41.9922 23.1771,0 41.9922,18.8151 41.9922,41.9922 z m 0,0"
       style="fill:#000000;fill-opacity:1;fill-rule:evenodd;stroke:#000000;stroke-width:2;stroke-linecap:round;stroke-linejoin:round;stroke-miterlimit:10;stroke-opacity:1"
       inkscape:connector-curvature="0" />
    <path
       id="path214"
       transform="matrix(0.06,0,0,0.06,-154.019,-256)"
       d="m 3282.0225,4958.0079 c 0,11.5885 -9.4402,20.9635 -21.0287,20.9635 -11.5885,0 -20.9635,-9.375 -20.9635,-20.9635 0,-11.5885 9.375,-21.0287 20.9635,-21.0287 11.5885,0 21.0287,9.4402 21.0287,21.0287 z m 0,0"
       style="fill:#ffffff;fill-opacity:1;fill-rule:evenodd;stroke:#000000;stroke-width:1;stroke-linecap:square;stroke-linejoin:bevel;stroke-miterlimit:10;stroke-opacity:1"
       inkscape:connector-curvature="0" />
    <g
       id="g218"
       clip-path="url(#clip1)"
       style="clip-rule:nonzero">
      <path
         id="path216"
         transform="matrix(0.06,0,0,0.06,-154.019,-256)"
         d="M 4338.9886,4358.9844 V 5557.0313"
         style="fill:none;stroke:#000000;stroke-width:6;stroke-linecap:round;stroke-linejoin:round;stroke-miterlimit:10;stroke-opacity:1"
         inkscape:connector-curvature="0" />
    </g>
    <g
       id="g222"
       clip-path="url(#clip2)"
       style="clip-rule:nonzero">
      <path
         id="path220"
         transform="matrix(0.06,0,0,0.06,-154.019,-256)"
         d="M 4338.9886,5557.0313 H 2660.9938"
         style="fill:none;stroke:#000000;stroke-width:6;stroke-linecap:round;stroke-linejoin:round;stroke-miterlimit:10;stroke-opacity:1"
         inkscape:connector-curvature="0" />
    </g>
    <g
       id="g226"
       clip-path="url(#clip3)"
       style="clip-rule:nonzero">
      <path
         id="path224"
         transform="matrix(0.06,0,0,0.06,-154.019,-256)"
         d="M 2660.9938,5557.0313 V 4358.9844"
         style="fill:none;stroke:#000000;stroke-width:6;stroke-linecap:round;stroke-linejoin:round;stroke-miterlimit:10;stroke-opacity:1"
         inkscape:connector-curvature="0" />
    </g>
    <g
       id="g230"
       clip-path="url(#clip4)"
       style="clip-rule:nonzero">
      <path
         id="path228"
         transform="matrix(0.06,0,0,0.06,-154.019,-256)"
         d="M 2660.9938,4358.9844 H 4338.9886"
         style="fill:none;stroke:#000000;stroke-width:6;stroke-linecap:round;stroke-linejoin:round;stroke-miterlimit:10;stroke-opacity:1"
         inkscape:connector-curvature="0" />
    </g>
  </g>
</svg>
